{
  "jsonPath": "Unknown/Unknown/Zadera/the-narrow-shell.json",
  "path": "Unknown\\Unknown\\Zadera\\The Narrow Shell.mid",
  "name": "The Narrow Shell",
  "difficulty": "Advanced",
  "bpm": 80,
  "notes": [
    {
      "midi": 72,
      "hit": false,
      "t": 3000,
      "d": 460.9375,
      "v": 106
    },
    {
      "midi": 64,
      "hit": false,
      "t": 3000,
      "d": 488.28125,
      "v": 106
    },
    {
      "midi": 67,
      "hit": false,
      "t": 3000,
      "d": 488.28125,
      "v": 106
    },
    {
      "midi": 64,
      "hit": false,
      "t": 3562.5,
      "d": 335.9375,
      "v": 78
    },
    {
      "midi": 74,
      "hit": false,
      "t": 3562.5,
      "d": 347.65625,
      "v": 116
    },
    {
      "midi": 67,
      "hit": false,
      "t": 3566.40625,
      "d": 347.65625,
      "v": 96
    },
    {
      "midi": 76,
      "hit": false,
      "t": 3937.5,
      "d": 335.9375,
      "v": 106
    },
    {
      "midi": 64,
      "hit": false,
      "t": 3945.3125,
      "d": 328.125,
      "v": 100
    },
    {
      "midi": 67,
      "hit": false,
      "t": 3945.3125,
      "d": 328.125,
      "v": 96
    },
    {
      "midi": 74,
      "hit": false,
      "t": 4312.5,
      "d": 320.3125,
      "v": 96
    },
    {
      "midi": 64,
      "hit": false,
      "t": 4312.5,
      "d": 339.84375,
      "v": 106
    },
    {
      "midi": 68,
      "hit": false,
      "t": 4312.5,
      "d": 339.84375,
      "v": 90
    },
    {
      "midi": 68,
      "hit": false,
      "t": 4687.5,
      "d": 496.09375,
      "v": 78
    },
    {
      "midi": 64,
      "hit": false,
      "t": 4691.40625,
      "d": 500,
      "v": 92
    },
    {
      "midi": 71,
      "hit": false,
      "t": 4695.3125,
      "d": 496.09375,
      "v": 96
    },
    {
      "midi": 72,
      "hit": false,
      "t": 5238.28125,
      "d": 320.3125,
      "v": 110
    },
    {
      "midi": 68,
      "hit": false,
      "t": 5238.28125,
      "d": 347.65625,
      "v": 106
    },
    {
      "midi": 64,
      "hit": false,
      "t": 5242.1875,
      "d": 328.125,
      "v": 110
    },
    {
      "midi": 68,
      "hit": false,
      "t": 5617.1875,
      "d": 359.375,
      "v": 42
    },
    {
      "midi": 74,
      "hit": false,
      "t": 5625,
      "d": 343.75,
      "v": 100
    },
    {
      "midi": 64,
      "hit": false,
      "t": 5625,
      "d": 347.65625,
      "v": 106
    },
    {
      "midi": 72,
      "hit": false,
      "t": 6000,
      "d": 488.28125,
      "v": 110
    },
    {
      "midi": 65,
      "hit": false,
      "t": 6003.90625,
      "d": 484.375,
      "v": 92
    },
    {
      "midi": 69,
      "hit": false,
      "t": 6003.90625,
      "d": 500,
      "v": 106
    },
    {
      "midi": 65,
      "hit": false,
      "t": 6562.5,
      "d": 312.5,
      "v": 84
    },
    {
      "midi": 69,
      "hit": false,
      "t": 6562.5,
      "d": 316.40625,
      "v": 106
    },
    {
      "midi": 74,
      "hit": false,
      "t": 6566.40625,
      "d": 316.40625,
      "v": 116
    },
    {
      "midi": 65,
      "hit": false,
      "t": 6937.5,
      "d": 304.6875,
      "v": 84
    },
    {
      "midi": 76,
      "hit": false,
      "t": 6937.5,
      "d": 332.03125,
      "v": 122
    },
    {
      "midi": 69,
      "hit": false,
      "t": 6941.40625,
      "d": 300.78125,
      "v": 110
    },
    {
      "midi": 76,
      "hit": false,
      "t": 7304.6875,
      "d": 371.09375,
      "v": 92
    },
    {
      "midi": 65,
      "hit": false,
      "t": 7312.5,
      "d": 347.65625,
      "v": 96
    },
    {
      "midi": 69,
      "hit": false,
      "t": 7316.40625,
      "d": 328.125,
      "v": 92
    },
    {
      "midi": 69,
      "hit": false,
      "t": 7691.40625,
      "d": 339.84375,
      "v": 88
    },
    {
      "midi": 65,
      "hit": false,
      "t": 7691.40625,
      "d": 355.46875,
      "v": 84
    },
    {
      "midi": 74,
      "hit": false,
      "t": 7699.21875,
      "d": 355.46875,
      "v": 100
    },
    {
      "midi": 65,
      "hit": false,
      "t": 8066.40625,
      "d": 343.75,
      "v": 92
    },
    {
      "midi": 69,
      "hit": false,
      "t": 8066.40625,
      "d": 410.15625,
      "v": 88
    },
    {
      "midi": 72,
      "hit": false,
      "t": 8074.21875,
      "d": 402.34375,
      "v": 100
    },
    {
      "midi": 65,
      "hit": false,
      "t": 8437.5,
      "d": 269.53125,
      "v": 88
    },
    {
      "midi": 71,
      "hit": false,
      "t": 8625,
      "d": 179.6875,
      "v": 101
    },
    {
      "midi": 69,
      "hit": false,
      "t": 8625,
      "d": 183.59375,
      "v": 79
    },
    {
      "midi": 65,
      "hit": false,
      "t": 8812.5,
      "d": 156.25,
      "v": 78
    },
    {
      "midi": 72,
      "hit": false,
      "t": 9007.8125,
      "d": 460.9375,
      "v": 106
    },
    {
      "midi": 64,
      "hit": false,
      "t": 9007.8125,
      "d": 488.28125,
      "v": 106
    },
    {
      "midi": 67,
      "hit": false,
      "t": 9007.8125,
      "d": 488.28125,
      "v": 106
    },
    {
      "midi": 64,
      "hit": false,
      "t": 9570.3125,
      "d": 335.9375,
      "v": 78
    },
    {
      "midi": 74,
      "hit": false,
      "t": 9570.3125,
      "d": 347.65625,
      "v": 116
    },
    {
      "midi": 67,
      "hit": false,
      "t": 9574.21875,
      "d": 347.65625,
      "v": 96
    },
    {
      "midi": 76,
      "hit": false,
      "t": 9945.3125,
      "d": 335.9375,
      "v": 106
    },
    {
      "midi": 64,
      "hit": false,
      "t": 9953.125,
      "d": 328.125,
      "v": 100
    },
    {
      "midi": 67,
      "hit": false,
      "t": 9953.125,
      "d": 328.125,
      "v": 96
    },
    {
      "midi": 74,
      "hit": false,
      "t": 10320.3125,
      "d": 320.3125,
      "v": 96
    },
    {
      "midi": 64,
      "hit": false,
      "t": 10320.3125,
      "d": 339.84375,
      "v": 106
    },
    {
      "midi": 68,
      "hit": false,
      "t": 10320.3125,
      "d": 339.84375,
      "v": 90
    },
    {
      "midi": 68,
      "hit": false,
      "t": 10695.3125,
      "d": 496.09375,
      "v": 78
    },
    {
      "midi": 64,
      "hit": false,
      "t": 10699.21875,
      "d": 500,
      "v": 92
    },
    {
      "midi": 72,
      "hit": false,
      "t": 10703.125,
      "d": 496.09375,
      "v": 96
    },
    {
      "midi": 68,
      "hit": false,
      "t": 11250,
      "d": 343.75,
      "v": 90
    },
    {
      "midi": 74,
      "hit": false,
      "t": 11253.90625,
      "d": 187.5,
      "v": 106
    },
    {
      "midi": 76,
      "hit": false,
      "t": 11417.96875,
      "d": 179.6875,
      "v": 88
    },
    {
      "midi": 74,
      "hit": false,
      "t": 11621.09375,
      "d": 347.65625,
      "v": 110
    },
    {
      "midi": 68,
      "hit": false,
      "t": 11625,
      "d": 347.65625,
      "v": 78
    },
    {
      "midi": 72,
      "hit": false,
      "t": 12007.8125,
      "d": 488.28125,
      "v": 110
    },
    {
      "midi": 65,
      "hit": false,
      "t": 12011.71875,
      "d": 484.375,
      "v": 92
    },
    {
      "midi": 69,
      "hit": false,
      "t": 12011.71875,
      "d": 500,
      "v": 106
    },
    {
      "midi": 65,
      "hit": false,
      "t": 12570.3125,
      "d": 312.5,
      "v": 84
    },
    {
      "midi": 69,
      "hit": false,
      "t": 12570.3125,
      "d": 316.40625,
      "v": 106
    },
    {
      "midi": 74,
      "hit": false,
      "t": 12574.21875,
      "d": 316.40625,
      "v": 116
    },
    {
      "midi": 65,
      "hit": false,
      "t": 12945.3125,
      "d": 511.71875,
      "v": 84
    },
    {
      "midi": 76,
      "hit": false,
      "t": 12945.3125,
      "d": 542.96875,
      "v": 122
    },
    {
      "midi": 69,
      "hit": false,
      "t": 12949.21875,
      "d": 511.71875,
      "v": 110
    },
    {
      "midi": 67,
      "hit": false,
      "t": 13500,
      "d": 93.75,
      "v": 52
    },
    {
      "midi": 71,
      "hit": false,
      "t": 13500,
      "d": 210.9375,
      "v": 106
    },
    {
      "midi": 74,
      "hit": false,
      "t": 13500,
      "d": 250,
      "v": 110
    },
    {
      "midi": 67,
      "hit": false,
      "t": 13687.5,
      "d": 1316.40625,
      "v": 84
    },
    {
      "midi": 71,
      "hit": false,
      "t": 13875,
      "d": 898.4375,
      "v": 88
    },
    {
      "midi": 74,
      "hit": false,
      "t": 14062.5,
      "d": 734.375,
      "v": 88
    },
    {
      "midi": 79,
      "hit": false,
      "t": 14250,
      "d": 753.90625,
      "v": 106
    },
    {
      "midi": 71,
      "hit": false,
      "t": 14812.5,
      "d": 335.9375,
      "v": 96
    },
    {
      "midi": 74,
      "hit": false,
      "t": 14816.40625,
      "d": 343.75,
      "v": 106
    },
    {
      "midi": 77,
      "hit": false,
      "t": 15187.5,
      "d": 316.40625,
      "v": 110
    },
    {
      "midi": 71,
      "hit": false,
      "t": 15187.5,
      "d": 359.375,
      "v": 88
    },
    {
      "midi": 76,
      "hit": false,
      "t": 15562.5,
      "d": 328.125,
      "v": 88
    },
    {
      "midi": 71,
      "hit": false,
      "t": 15562.5,
      "d": 351.5625,
      "v": 84
    },
    {
      "midi": 79,
      "hit": false,
      "t": 15730.46875,
      "d": 750,
      "v": 66
    },
    {
      "midi": 71,
      "hit": false,
      "t": 15937.5,
      "d": 507.8125,
      "v": 88
    },
    {
      "midi": 74,
      "hit": false,
      "t": 15937.5,
      "d": 542.96875,
      "v": 106
    },
    {
      "midi": 36,
      "hit": false,
      "t": 16500,
      "d": 761.71875,
      "v": 84
    },
    {
      "midi": 72,
      "hit": false,
      "t": 16507.8125,
      "d": 1023.4375,
      "v": 110
    },
    {
      "midi": 64,
      "hit": false,
      "t": 16511.71875,
      "d": 835.9375,
      "v": 110
    },
    {
      "midi": 67,
      "hit": false,
      "t": 16511.71875,
      "d": 937.5,
      "v": 110
    },
    {
      "midi": 48,
      "hit": false,
      "t": 17250,
      "d": 468.75,
      "v": 92
    },
    {
      "midi": 64,
      "hit": false,
      "t": 17437.5,
      "d": 363.28125,
      "v": 84
    },
    {
      "midi": 67,
      "hit": false,
      "t": 17625,
      "d": 183.59375,
      "v": 96
    },
    {
      "midi": 36,
      "hit": false,
      "t": 17625,
      "d": 347.65625,
      "v": 74
    },
    {
      "midi": 74,
      "hit": false,
      "t": 17824.21875,
      "d": 617.1875,
      "v": 100
    },
    {
      "midi": 64,
      "hit": false,
      "t": 17824.21875,
      "d": 652.34375,
      "v": 92
    },
    {
      "midi": 68,
      "hit": false,
      "t": 17824.21875,
      "d": 652.34375,
      "v": 72
    },
    {
      "midi": 40,
      "hit": false,
      "t": 18000,
      "d": 308.59375,
      "v": 56
    },
    {
      "midi": 40,
      "hit": false,
      "t": 18375,
      "d": 402.34375,
      "v": 84
    },
    {
      "midi": 68,
      "hit": false,
      "t": 18550.78125,
      "d": 328.125,
      "v": 72
    },
    {
      "midi": 64,
      "hit": false,
      "t": 18550.78125,
      "d": 335.9375,
      "v": 92
    },
    {
      "midi": 71,
      "hit": false,
      "t": 18554.6875,
      "d": 320.3125,
      "v": 92
    },
    {
      "midi": 52,
      "hit": false,
      "t": 18750,
      "d": 714.84375,
      "v": 80
    },
    {
      "midi": 68,
      "hit": false,
      "t": 18925.78125,
      "d": 523.4375,
      "v": 78
    },
    {
      "midi": 74,
      "hit": false,
      "t": 18925.78125,
      "d": 523.4375,
      "v": 106
    },
    {
      "midi": 64,
      "hit": false,
      "t": 18929.6875,
      "d": 523.4375,
      "v": 88
    },
    {
      "midi": 40,
      "hit": false,
      "t": 19125,
      "d": 234.375,
      "v": 69
    },
    {
      "midi": 41,
      "hit": false,
      "t": 19500,
      "d": 777.34375,
      "v": 58
    },
    {
      "midi": 65,
      "hit": false,
      "t": 19503.90625,
      "d": 523.4375,
      "v": 92
    },
    {
      "midi": 69,
      "hit": false,
      "t": 19503.90625,
      "d": 539.0625,
      "v": 106
    },
    {
      "midi": 72,
      "hit": false,
      "t": 19507.8125,
      "d": 535.15625,
      "v": 107
    },
    {
      "midi": 72,
      "hit": false,
      "t": 20070.3125,
      "d": 312.5,
      "v": 74
    },
    {
      "midi": 69,
      "hit": false,
      "t": 20070.3125,
      "d": 324.21875,
      "v": 58
    },
    {
      "midi": 65,
      "hit": false,
      "t": 20074.21875,
      "d": 316.40625,
      "v": 68
    },
    {
      "midi": 53,
      "hit": false,
      "t": 20250,
      "d": 710.9375,
      "v": 92
    },
    {
      "midi": 69,
      "hit": false,
      "t": 20441.40625,
      "d": 304.6875,
      "v": 78
    },
    {
      "midi": 65,
      "hit": false,
      "t": 20445.3125,
      "d": 292.96875,
      "v": 74
    },
    {
      "midi": 74,
      "hit": false,
      "t": 20445.3125,
      "d": 300.78125,
      "v": 106
    },
    {
      "midi": 69,
      "hit": false,
      "t": 20820.3125,
      "d": 312.5,
      "v": 84
    },
    {
      "midi": 76,
      "hit": false,
      "t": 20828.125,
      "d": 273.4375,
      "v": 110
    },
    {
      "midi": 65,
      "hit": false,
      "t": 20828.125,
      "d": 316.40625,
      "v": 66
    },
    {
      "midi": 43,
      "hit": false,
      "t": 21000,
      "d": 214.84375,
      "v": 60
    },
    {
      "midi": 65,
      "hit": false,
      "t": 21199.21875,
      "d": 308.59375,
      "v": 68
    },
    {
      "midi": 69,
      "hit": false,
      "t": 21199.21875,
      "d": 320.3125,
      "v": 78
    },
    {
      "midi": 74,
      "hit": false,
      "t": 21203.125,
      "d": 265.625,
      "v": 78
    },
    {
      "midi": 43,
      "hit": false,
      "t": 21375,
      "d": 402.34375,
      "v": 78
    },
    {
      "midi": 69,
      "hit": false,
      "t": 21574.21875,
      "d": 312.5,
      "v": 66
    },
    {
      "midi": 72,
      "hit": false,
      "t": 21582.03125,
      "d": 292.96875,
      "v": 92
    },
    {
      "midi": 65,
      "hit": false,
      "t": 21593.75,
      "d": 285.15625,
      "v": 78
    },
    {
      "midi": 55,
      "hit": false,
      "t": 21750,
      "d": 382.8125,
      "v": 70
    },
    {
      "midi": 69,
      "hit": false,
      "t": 21945.3125,
      "d": 484.375,
      "v": 92
    },
    {
      "midi": 74,
      "hit": false,
      "t": 21945.3125,
      "d": 488.28125,
      "v": 100
    },
    {
      "midi": 65,
      "hit": false,
      "t": 21949.21875,
      "d": 484.375,
      "v": 84
    },
    {
      "midi": 43,
      "hit": false,
      "t": 22125,
      "d": 300.78125,
      "v": 80
    },
    {
      "midi": 36,
      "hit": false,
      "t": 22500,
      "d": 761.71875,
      "v": 84
    },
    {
      "midi": 72,
      "hit": false,
      "t": 22507.8125,
      "d": 1023.4375,
      "v": 110
    },
    {
      "midi": 64,
      "hit": false,
      "t": 22511.71875,
      "d": 835.9375,
      "v": 110
    },
    {
      "midi": 67,
      "hit": false,
      "t": 22511.71875,
      "d": 937.5,
      "v": 110
    },
    {
      "midi": 48,
      "hit": false,
      "t": 23250,
      "d": 468.75,
      "v": 92
    },
    {
      "midi": 64,
      "hit": false,
      "t": 23437.5,
      "d": 363.28125,
      "v": 84
    },
    {
      "midi": 67,
      "hit": false,
      "t": 23625,
      "d": 183.59375,
      "v": 96
    },
    {
      "midi": 36,
      "hit": false,
      "t": 23625,
      "d": 347.65625,
      "v": 74
    },
    {
      "midi": 74,
      "hit": false,
      "t": 23824.21875,
      "d": 617.1875,
      "v": 100
    },
    {
      "midi": 64,
      "hit": false,
      "t": 23824.21875,
      "d": 652.34375,
      "v": 92
    },
    {
      "midi": 68,
      "hit": false,
      "t": 23824.21875,
      "d": 652.34375,
      "v": 72
    },
    {
      "midi": 40,
      "hit": false,
      "t": 24000,
      "d": 308.59375,
      "v": 56
    },
    {
      "midi": 40,
      "hit": false,
      "t": 24375,
      "d": 402.34375,
      "v": 84
    },
    {
      "midi": 68,
      "hit": false,
      "t": 24550.78125,
      "d": 328.125,
      "v": 72
    },
    {
      "midi": 64,
      "hit": false,
      "t": 24550.78125,
      "d": 335.9375,
      "v": 92
    },
    {
      "midi": 71,
      "hit": false,
      "t": 24554.6875,
      "d": 320.3125,
      "v": 92
    },
    {
      "midi": 52,
      "hit": false,
      "t": 24750,
      "d": 714.84375,
      "v": 80
    },
    {
      "midi": 68,
      "hit": false,
      "t": 24925.78125,
      "d": 523.4375,
      "v": 78
    },
    {
      "midi": 74,
      "hit": false,
      "t": 24925.78125,
      "d": 523.4375,
      "v": 106
    },
    {
      "midi": 64,
      "hit": false,
      "t": 24929.6875,
      "d": 523.4375,
      "v": 88
    },
    {
      "midi": 40,
      "hit": false,
      "t": 25125,
      "d": 234.375,
      "v": 69
    },
    {
      "midi": 41,
      "hit": false,
      "t": 25500,
      "d": 777.34375,
      "v": 58
    },
    {
      "midi": 65,
      "hit": false,
      "t": 25503.90625,
      "d": 523.4375,
      "v": 92
    },
    {
      "midi": 69,
      "hit": false,
      "t": 25503.90625,
      "d": 539.0625,
      "v": 106
    },
    {
      "midi": 72,
      "hit": false,
      "t": 25507.8125,
      "d": 535.15625,
      "v": 107
    },
    {
      "midi": 72,
      "hit": false,
      "t": 26070.3125,
      "d": 312.5,
      "v": 74
    },
    {
      "midi": 69,
      "hit": false,
      "t": 26070.3125,
      "d": 324.21875,
      "v": 58
    },
    {
      "midi": 65,
      "hit": false,
      "t": 26074.21875,
      "d": 316.40625,
      "v": 68
    },
    {
      "midi": 53,
      "hit": false,
      "t": 26250,
      "d": 710.9375,
      "v": 92
    },
    {
      "midi": 69,
      "hit": false,
      "t": 26441.40625,
      "d": 304.6875,
      "v": 78
    },
    {
      "midi": 65,
      "hit": false,
      "t": 26445.3125,
      "d": 292.96875,
      "v": 74
    },
    {
      "midi": 74,
      "hit": false,
      "t": 26445.3125,
      "d": 300.78125,
      "v": 106
    },
    {
      "midi": 69,
      "hit": false,
      "t": 26820.3125,
      "d": 312.5,
      "v": 84
    },
    {
      "midi": 76,
      "hit": false,
      "t": 26828.125,
      "d": 273.4375,
      "v": 110
    },
    {
      "midi": 65,
      "hit": false,
      "t": 26828.125,
      "d": 316.40625,
      "v": 66
    },
    {
      "midi": 43,
      "hit": false,
      "t": 27000,
      "d": 214.84375,
      "v": 60
    },
    {
      "midi": 65,
      "hit": false,
      "t": 27199.21875,
      "d": 308.59375,
      "v": 68
    },
    {
      "midi": 69,
      "hit": false,
      "t": 27199.21875,
      "d": 320.3125,
      "v": 78
    },
    {
      "midi": 74,
      "hit": false,
      "t": 27203.125,
      "d": 265.625,
      "v": 78
    },
    {
      "midi": 43,
      "hit": false,
      "t": 27375,
      "d": 402.34375,
      "v": 78
    },
    {
      "midi": 69,
      "hit": false,
      "t": 27574.21875,
      "d": 312.5,
      "v": 66
    },
    {
      "midi": 72,
      "hit": false,
      "t": 27582.03125,
      "d": 292.96875,
      "v": 92
    },
    {
      "midi": 65,
      "hit": false,
      "t": 27593.75,
      "d": 285.15625,
      "v": 78
    },
    {
      "midi": 55,
      "hit": false,
      "t": 27750,
      "d": 382.8125,
      "v": 70
    },
    {
      "midi": 69,
      "hit": false,
      "t": 27945.3125,
      "d": 484.375,
      "v": 92
    },
    {
      "midi": 74,
      "hit": false,
      "t": 27945.3125,
      "d": 488.28125,
      "v": 100
    },
    {
      "midi": 65,
      "hit": false,
      "t": 27949.21875,
      "d": 484.375,
      "v": 84
    },
    {
      "midi": 43,
      "hit": false,
      "t": 28125,
      "d": 300.78125,
      "v": 80
    },
    {
      "midi": 36,
      "hit": false,
      "t": 28500,
      "d": 761.71875,
      "v": 84
    },
    {
      "midi": 72,
      "hit": false,
      "t": 28507.8125,
      "d": 1023.4375,
      "v": 110
    },
    {
      "midi": 64,
      "hit": false,
      "t": 28511.71875,
      "d": 835.9375,
      "v": 110
    },
    {
      "midi": 67,
      "hit": false,
      "t": 28511.71875,
      "d": 937.5,
      "v": 110
    },
    {
      "midi": 48,
      "hit": false,
      "t": 29250,
      "d": 468.75,
      "v": 92
    },
    {
      "midi": 64,
      "hit": false,
      "t": 29437.5,
      "d": 363.28125,
      "v": 84
    },
    {
      "midi": 67,
      "hit": false,
      "t": 29625,
      "d": 183.59375,
      "v": 96
    },
    {
      "midi": 36,
      "hit": false,
      "t": 29625,
      "d": 347.65625,
      "v": 74
    },
    {
      "midi": 74,
      "hit": false,
      "t": 29824.21875,
      "d": 617.1875,
      "v": 100
    },
    {
      "midi": 64,
      "hit": false,
      "t": 29824.21875,
      "d": 652.34375,
      "v": 92
    },
    {
      "midi": 68,
      "hit": false,
      "t": 29824.21875,
      "d": 652.34375,
      "v": 72
    },
    {
      "midi": 40,
      "hit": false,
      "t": 30000,
      "d": 308.59375,
      "v": 56
    },
    {
      "midi": 40,
      "hit": false,
      "t": 30375,
      "d": 402.34375,
      "v": 84
    },
    {
      "midi": 68,
      "hit": false,
      "t": 30550.78125,
      "d": 328.125,
      "v": 72
    },
    {
      "midi": 64,
      "hit": false,
      "t": 30550.78125,
      "d": 335.9375,
      "v": 92
    },
    {
      "midi": 71,
      "hit": false,
      "t": 30554.6875,
      "d": 320.3125,
      "v": 92
    },
    {
      "midi": 52,
      "hit": false,
      "t": 30750,
      "d": 714.84375,
      "v": 80
    },
    {
      "midi": 68,
      "hit": false,
      "t": 30925.78125,
      "d": 523.4375,
      "v": 78
    },
    {
      "midi": 74,
      "hit": false,
      "t": 30925.78125,
      "d": 523.4375,
      "v": 106
    },
    {
      "midi": 64,
      "hit": false,
      "t": 30929.6875,
      "d": 523.4375,
      "v": 88
    },
    {
      "midi": 40,
      "hit": false,
      "t": 31125,
      "d": 234.375,
      "v": 69
    },
    {
      "midi": 41,
      "hit": false,
      "t": 31500,
      "d": 777.34375,
      "v": 58
    },
    {
      "midi": 65,
      "hit": false,
      "t": 31503.90625,
      "d": 523.4375,
      "v": 92
    },
    {
      "midi": 69,
      "hit": false,
      "t": 31503.90625,
      "d": 539.0625,
      "v": 106
    },
    {
      "midi": 72,
      "hit": false,
      "t": 31507.8125,
      "d": 535.15625,
      "v": 107
    },
    {
      "midi": 72,
      "hit": false,
      "t": 32070.3125,
      "d": 312.5,
      "v": 74
    },
    {
      "midi": 69,
      "hit": false,
      "t": 32070.3125,
      "d": 324.21875,
      "v": 58
    },
    {
      "midi": 65,
      "hit": false,
      "t": 32074.21875,
      "d": 316.40625,
      "v": 68
    },
    {
      "midi": 53,
      "hit": false,
      "t": 32250,
      "d": 710.9375,
      "v": 92
    },
    {
      "midi": 69,
      "hit": false,
      "t": 32441.40625,
      "d": 304.6875,
      "v": 78
    },
    {
      "midi": 65,
      "hit": false,
      "t": 32445.3125,
      "d": 292.96875,
      "v": 74
    },
    {
      "midi": 74,
      "hit": false,
      "t": 32445.3125,
      "d": 300.78125,
      "v": 106
    },
    {
      "midi": 69,
      "hit": false,
      "t": 32820.3125,
      "d": 312.5,
      "v": 84
    },
    {
      "midi": 76,
      "hit": false,
      "t": 32828.125,
      "d": 273.4375,
      "v": 110
    },
    {
      "midi": 65,
      "hit": false,
      "t": 32828.125,
      "d": 316.40625,
      "v": 66
    },
    {
      "midi": 43,
      "hit": false,
      "t": 33000,
      "d": 214.84375,
      "v": 60
    },
    {
      "midi": 65,
      "hit": false,
      "t": 33199.21875,
      "d": 308.59375,
      "v": 68
    },
    {
      "midi": 69,
      "hit": false,
      "t": 33199.21875,
      "d": 320.3125,
      "v": 78
    },
    {
      "midi": 74,
      "hit": false,
      "t": 33203.125,
      "d": 265.625,
      "v": 78
    },
    {
      "midi": 43,
      "hit": false,
      "t": 33375,
      "d": 402.34375,
      "v": 78
    },
    {
      "midi": 69,
      "hit": false,
      "t": 33574.21875,
      "d": 312.5,
      "v": 66
    },
    {
      "midi": 72,
      "hit": false,
      "t": 33582.03125,
      "d": 292.96875,
      "v": 92
    },
    {
      "midi": 65,
      "hit": false,
      "t": 33593.75,
      "d": 285.15625,
      "v": 78
    },
    {
      "midi": 55,
      "hit": false,
      "t": 33750,
      "d": 382.8125,
      "v": 70
    },
    {
      "midi": 69,
      "hit": false,
      "t": 33945.3125,
      "d": 484.375,
      "v": 92
    },
    {
      "midi": 74,
      "hit": false,
      "t": 33945.3125,
      "d": 488.28125,
      "v": 100
    },
    {
      "midi": 65,
      "hit": false,
      "t": 33949.21875,
      "d": 484.375,
      "v": 84
    },
    {
      "midi": 43,
      "hit": false,
      "t": 34125,
      "d": 300.78125,
      "v": 80
    },
    {
      "midi": 36,
      "hit": false,
      "t": 34500,
      "d": 761.71875,
      "v": 84
    },
    {
      "midi": 72,
      "hit": false,
      "t": 34507.8125,
      "d": 1023.4375,
      "v": 110
    },
    {
      "midi": 64,
      "hit": false,
      "t": 34511.71875,
      "d": 835.9375,
      "v": 110
    },
    {
      "midi": 67,
      "hit": false,
      "t": 34511.71875,
      "d": 937.5,
      "v": 110
    },
    {
      "midi": 48,
      "hit": false,
      "t": 35250,
      "d": 468.75,
      "v": 92
    },
    {
      "midi": 64,
      "hit": false,
      "t": 35437.5,
      "d": 363.28125,
      "v": 84
    },
    {
      "midi": 67,
      "hit": false,
      "t": 35625,
      "d": 183.59375,
      "v": 96
    },
    {
      "midi": 36,
      "hit": false,
      "t": 35625,
      "d": 347.65625,
      "v": 74
    },
    {
      "midi": 74,
      "hit": false,
      "t": 35824.21875,
      "d": 617.1875,
      "v": 100
    },
    {
      "midi": 64,
      "hit": false,
      "t": 35824.21875,
      "d": 652.34375,
      "v": 92
    },
    {
      "midi": 68,
      "hit": false,
      "t": 35824.21875,
      "d": 652.34375,
      "v": 72
    },
    {
      "midi": 40,
      "hit": false,
      "t": 36000,
      "d": 308.59375,
      "v": 56
    },
    {
      "midi": 40,
      "hit": false,
      "t": 36375,
      "d": 402.34375,
      "v": 84
    },
    {
      "midi": 68,
      "hit": false,
      "t": 36550.78125,
      "d": 328.125,
      "v": 72
    },
    {
      "midi": 64,
      "hit": false,
      "t": 36550.78125,
      "d": 335.9375,
      "v": 92
    },
    {
      "midi": 71,
      "hit": false,
      "t": 36554.6875,
      "d": 320.3125,
      "v": 92
    },
    {
      "midi": 52,
      "hit": false,
      "t": 36750,
      "d": 714.84375,
      "v": 80
    },
    {
      "midi": 68,
      "hit": false,
      "t": 36925.78125,
      "d": 523.4375,
      "v": 78
    },
    {
      "midi": 74,
      "hit": false,
      "t": 36925.78125,
      "d": 523.4375,
      "v": 106
    },
    {
      "midi": 64,
      "hit": false,
      "t": 36929.6875,
      "d": 523.4375,
      "v": 88
    },
    {
      "midi": 40,
      "hit": false,
      "t": 37125,
      "d": 234.375,
      "v": 69
    },
    {
      "midi": 41,
      "hit": false,
      "t": 37500,
      "d": 777.34375,
      "v": 58
    },
    {
      "midi": 65,
      "hit": false,
      "t": 37503.90625,
      "d": 523.4375,
      "v": 92
    },
    {
      "midi": 69,
      "hit": false,
      "t": 37503.90625,
      "d": 539.0625,
      "v": 106
    },
    {
      "midi": 72,
      "hit": false,
      "t": 37507.8125,
      "d": 535.15625,
      "v": 107
    },
    {
      "midi": 72,
      "hit": false,
      "t": 38070.3125,
      "d": 312.5,
      "v": 74
    },
    {
      "midi": 69,
      "hit": false,
      "t": 38070.3125,
      "d": 324.21875,
      "v": 58
    },
    {
      "midi": 65,
      "hit": false,
      "t": 38074.21875,
      "d": 316.40625,
      "v": 68
    },
    {
      "midi": 53,
      "hit": false,
      "t": 38250,
      "d": 710.9375,
      "v": 92
    },
    {
      "midi": 69,
      "hit": false,
      "t": 38441.40625,
      "d": 535.15625,
      "v": 78
    },
    {
      "midi": 65,
      "hit": false,
      "t": 38445.3125,
      "d": 523.4375,
      "v": 74
    },
    {
      "midi": 74,
      "hit": false,
      "t": 38445.3125,
      "d": 531.25,
      "v": 106
    },
    {
      "midi": 43,
      "hit": false,
      "t": 39000,
      "d": 214.84375,
      "v": 65
    },
    {
      "midi": 67,
      "hit": false,
      "t": 39000,
      "d": 1156.25,
      "v": 65
    },
    {
      "midi": 79,
      "hit": false,
      "t": 39187.5,
      "d": 500,
      "v": 66
    },
    {
      "midi": 43,
      "hit": false,
      "t": 39375,
      "d": 402.34375,
      "v": 78
    },
    {
      "midi": 74,
      "hit": false,
      "t": 39750,
      "d": 97.65625,
      "v": 62
    },
    {
      "midi": 79,
      "hit": false,
      "t": 39750,
      "d": 105.46875,
      "v": 88
    },
    {
      "midi": 55,
      "hit": false,
      "t": 39750,
      "d": 382.8125,
      "v": 70
    },
    {
      "midi": 74,
      "hit": false,
      "t": 39937.5,
      "d": 531.25,
      "v": 80
    },
    {
      "midi": 79,
      "hit": false,
      "t": 39937.5,
      "d": 535.15625,
      "v": 92
    },
    {
      "midi": 43,
      "hit": false,
      "t": 40125,
      "d": 300.78125,
      "v": 80
    },
    {
      "midi": 36,
      "hit": false,
      "t": 40500,
      "d": 761.71875,
      "v": 84
    },
    {
      "midi": 72,
      "hit": false,
      "t": 40507.8125,
      "d": 1023.4375,
      "v": 110
    },
    {
      "midi": 64,
      "hit": false,
      "t": 40511.71875,
      "d": 835.9375,
      "v": 110
    },
    {
      "midi": 67,
      "hit": false,
      "t": 40511.71875,
      "d": 937.5,
      "v": 110
    },
    {
      "midi": 48,
      "hit": false,
      "t": 41250,
      "d": 468.75,
      "v": 92
    },
    {
      "midi": 64,
      "hit": false,
      "t": 41437.5,
      "d": 363.28125,
      "v": 84
    },
    {
      "midi": 67,
      "hit": false,
      "t": 41625,
      "d": 183.59375,
      "v": 96
    },
    {
      "midi": 36,
      "hit": false,
      "t": 41625,
      "d": 347.65625,
      "v": 74
    },
    {
      "midi": 74,
      "hit": false,
      "t": 41824.21875,
      "d": 617.1875,
      "v": 100
    },
    {
      "midi": 64,
      "hit": false,
      "t": 41824.21875,
      "d": 652.34375,
      "v": 92
    },
    {
      "midi": 68,
      "hit": false,
      "t": 41824.21875,
      "d": 652.34375,
      "v": 72
    },
    {
      "midi": 40,
      "hit": false,
      "t": 42000,
      "d": 308.59375,
      "v": 56
    },
    {
      "midi": 40,
      "hit": false,
      "t": 42375,
      "d": 402.34375,
      "v": 84
    },
    {
      "midi": 68,
      "hit": false,
      "t": 42550.78125,
      "d": 328.125,
      "v": 72
    },
    {
      "midi": 64,
      "hit": false,
      "t": 42550.78125,
      "d": 335.9375,
      "v": 92
    },
    {
      "midi": 71,
      "hit": false,
      "t": 42554.6875,
      "d": 320.3125,
      "v": 92
    },
    {
      "midi": 52,
      "hit": false,
      "t": 42750,
      "d": 714.84375,
      "v": 80
    },
    {
      "midi": 68,
      "hit": false,
      "t": 42925.78125,
      "d": 523.4375,
      "v": 78
    },
    {
      "midi": 74,
      "hit": false,
      "t": 42925.78125,
      "d": 523.4375,
      "v": 106
    },
    {
      "midi": 64,
      "hit": false,
      "t": 42929.6875,
      "d": 523.4375,
      "v": 88
    },
    {
      "midi": 40,
      "hit": false,
      "t": 43125,
      "d": 234.375,
      "v": 69
    },
    {
      "midi": 41,
      "hit": false,
      "t": 43500,
      "d": 777.34375,
      "v": 58
    },
    {
      "midi": 65,
      "hit": false,
      "t": 43503.90625,
      "d": 523.4375,
      "v": 92
    },
    {
      "midi": 69,
      "hit": false,
      "t": 43503.90625,
      "d": 539.0625,
      "v": 106
    },
    {
      "midi": 72,
      "hit": false,
      "t": 43507.8125,
      "d": 535.15625,
      "v": 107
    },
    {
      "midi": 72,
      "hit": false,
      "t": 44070.3125,
      "d": 312.5,
      "v": 74
    },
    {
      "midi": 69,
      "hit": false,
      "t": 44070.3125,
      "d": 324.21875,
      "v": 58
    },
    {
      "midi": 65,
      "hit": false,
      "t": 44074.21875,
      "d": 316.40625,
      "v": 68
    },
    {
      "midi": 53,
      "hit": false,
      "t": 44250,
      "d": 710.9375,
      "v": 92
    },
    {
      "midi": 69,
      "hit": false,
      "t": 44441.40625,
      "d": 304.6875,
      "v": 78
    },
    {
      "midi": 65,
      "hit": false,
      "t": 44445.3125,
      "d": 292.96875,
      "v": 74
    },
    {
      "midi": 74,
      "hit": false,
      "t": 44445.3125,
      "d": 300.78125,
      "v": 106
    },
    {
      "midi": 69,
      "hit": false,
      "t": 44820.3125,
      "d": 312.5,
      "v": 84
    },
    {
      "midi": 76,
      "hit": false,
      "t": 44828.125,
      "d": 273.4375,
      "v": 110
    },
    {
      "midi": 65,
      "hit": false,
      "t": 44828.125,
      "d": 316.40625,
      "v": 66
    },
    {
      "midi": 43,
      "hit": false,
      "t": 45000,
      "d": 214.84375,
      "v": 60
    },
    {
      "midi": 65,
      "hit": false,
      "t": 45199.21875,
      "d": 308.59375,
      "v": 68
    },
    {
      "midi": 69,
      "hit": false,
      "t": 45199.21875,
      "d": 320.3125,
      "v": 78
    },
    {
      "midi": 74,
      "hit": false,
      "t": 45203.125,
      "d": 265.625,
      "v": 78
    },
    {
      "midi": 43,
      "hit": false,
      "t": 45375,
      "d": 402.34375,
      "v": 78
    },
    {
      "midi": 69,
      "hit": false,
      "t": 45574.21875,
      "d": 312.5,
      "v": 66
    },
    {
      "midi": 72,
      "hit": false,
      "t": 45582.03125,
      "d": 292.96875,
      "v": 92
    },
    {
      "midi": 65,
      "hit": false,
      "t": 45593.75,
      "d": 285.15625,
      "v": 78
    },
    {
      "midi": 55,
      "hit": false,
      "t": 45750,
      "d": 382.8125,
      "v": 70
    },
    {
      "midi": 69,
      "hit": false,
      "t": 45945.3125,
      "d": 484.375,
      "v": 92
    },
    {
      "midi": 74,
      "hit": false,
      "t": 45945.3125,
      "d": 488.28125,
      "v": 100
    },
    {
      "midi": 65,
      "hit": false,
      "t": 45949.21875,
      "d": 484.375,
      "v": 84
    },
    {
      "midi": 43,
      "hit": false,
      "t": 46125,
      "d": 300.78125,
      "v": 80
    },
    {
      "midi": 36,
      "hit": false,
      "t": 46500,
      "d": 761.71875,
      "v": 84
    },
    {
      "midi": 72,
      "hit": false,
      "t": 46507.8125,
      "d": 1023.4375,
      "v": 110
    },
    {
      "midi": 64,
      "hit": false,
      "t": 46511.71875,
      "d": 835.9375,
      "v": 110
    },
    {
      "midi": 67,
      "hit": false,
      "t": 46511.71875,
      "d": 937.5,
      "v": 110
    },
    {
      "midi": 48,
      "hit": false,
      "t": 47250,
      "d": 468.75,
      "v": 92
    },
    {
      "midi": 64,
      "hit": false,
      "t": 47437.5,
      "d": 363.28125,
      "v": 84
    },
    {
      "midi": 67,
      "hit": false,
      "t": 47625,
      "d": 183.59375,
      "v": 96
    },
    {
      "midi": 36,
      "hit": false,
      "t": 47625,
      "d": 347.65625,
      "v": 74
    },
    {
      "midi": 74,
      "hit": false,
      "t": 47824.21875,
      "d": 617.1875,
      "v": 100
    },
    {
      "midi": 64,
      "hit": false,
      "t": 47824.21875,
      "d": 652.34375,
      "v": 92
    },
    {
      "midi": 68,
      "hit": false,
      "t": 47824.21875,
      "d": 652.34375,
      "v": 72
    },
    {
      "midi": 40,
      "hit": false,
      "t": 48000,
      "d": 308.59375,
      "v": 56
    },
    {
      "midi": 40,
      "hit": false,
      "t": 48375,
      "d": 402.34375,
      "v": 84
    },
    {
      "midi": 68,
      "hit": false,
      "t": 48550.78125,
      "d": 328.125,
      "v": 72
    },
    {
      "midi": 64,
      "hit": false,
      "t": 48550.78125,
      "d": 335.9375,
      "v": 92
    },
    {
      "midi": 71,
      "hit": false,
      "t": 48554.6875,
      "d": 320.3125,
      "v": 92
    },
    {
      "midi": 52,
      "hit": false,
      "t": 48750,
      "d": 714.84375,
      "v": 80
    },
    {
      "midi": 68,
      "hit": false,
      "t": 48925.78125,
      "d": 523.4375,
      "v": 78
    },
    {
      "midi": 74,
      "hit": false,
      "t": 48925.78125,
      "d": 523.4375,
      "v": 106
    },
    {
      "midi": 64,
      "hit": false,
      "t": 48929.6875,
      "d": 523.4375,
      "v": 88
    },
    {
      "midi": 40,
      "hit": false,
      "t": 49125,
      "d": 234.375,
      "v": 69
    },
    {
      "midi": 41,
      "hit": false,
      "t": 49500,
      "d": 777.34375,
      "v": 58
    },
    {
      "midi": 65,
      "hit": false,
      "t": 49503.90625,
      "d": 523.4375,
      "v": 92
    },
    {
      "midi": 69,
      "hit": false,
      "t": 49503.90625,
      "d": 539.0625,
      "v": 106
    },
    {
      "midi": 72,
      "hit": false,
      "t": 49507.8125,
      "d": 535.15625,
      "v": 107
    },
    {
      "midi": 72,
      "hit": false,
      "t": 50070.3125,
      "d": 312.5,
      "v": 74
    },
    {
      "midi": 69,
      "hit": false,
      "t": 50070.3125,
      "d": 324.21875,
      "v": 58
    },
    {
      "midi": 65,
      "hit": false,
      "t": 50074.21875,
      "d": 316.40625,
      "v": 68
    },
    {
      "midi": 53,
      "hit": false,
      "t": 50250,
      "d": 710.9375,
      "v": 92
    },
    {
      "midi": 69,
      "hit": false,
      "t": 50441.40625,
      "d": 304.6875,
      "v": 78
    },
    {
      "midi": 65,
      "hit": false,
      "t": 50445.3125,
      "d": 292.96875,
      "v": 74
    },
    {
      "midi": 74,
      "hit": false,
      "t": 50445.3125,
      "d": 300.78125,
      "v": 106
    },
    {
      "midi": 69,
      "hit": false,
      "t": 50820.3125,
      "d": 312.5,
      "v": 84
    },
    {
      "midi": 76,
      "hit": false,
      "t": 50828.125,
      "d": 273.4375,
      "v": 110
    },
    {
      "midi": 65,
      "hit": false,
      "t": 50828.125,
      "d": 316.40625,
      "v": 66
    },
    {
      "midi": 43,
      "hit": false,
      "t": 51000,
      "d": 214.84375,
      "v": 60
    },
    {
      "midi": 65,
      "hit": false,
      "t": 51199.21875,
      "d": 308.59375,
      "v": 68
    },
    {
      "midi": 69,
      "hit": false,
      "t": 51199.21875,
      "d": 320.3125,
      "v": 78
    },
    {
      "midi": 74,
      "hit": false,
      "t": 51203.125,
      "d": 265.625,
      "v": 78
    },
    {
      "midi": 43,
      "hit": false,
      "t": 51375,
      "d": 402.34375,
      "v": 78
    },
    {
      "midi": 69,
      "hit": false,
      "t": 51574.21875,
      "d": 312.5,
      "v": 66
    },
    {
      "midi": 72,
      "hit": false,
      "t": 51582.03125,
      "d": 292.96875,
      "v": 92
    },
    {
      "midi": 65,
      "hit": false,
      "t": 51593.75,
      "d": 285.15625,
      "v": 78
    },
    {
      "midi": 55,
      "hit": false,
      "t": 51750,
      "d": 382.8125,
      "v": 70
    },
    {
      "midi": 69,
      "hit": false,
      "t": 51945.3125,
      "d": 484.375,
      "v": 92
    },
    {
      "midi": 74,
      "hit": false,
      "t": 51945.3125,
      "d": 488.28125,
      "v": 100
    },
    {
      "midi": 65,
      "hit": false,
      "t": 51949.21875,
      "d": 484.375,
      "v": 84
    },
    {
      "midi": 43,
      "hit": false,
      "t": 52125,
      "d": 300.78125,
      "v": 80
    },
    {
      "midi": 36,
      "hit": false,
      "t": 52500,
      "d": 761.71875,
      "v": 84
    },
    {
      "midi": 72,
      "hit": false,
      "t": 52507.8125,
      "d": 1023.4375,
      "v": 110
    },
    {
      "midi": 64,
      "hit": false,
      "t": 52511.71875,
      "d": 835.9375,
      "v": 110
    },
    {
      "midi": 67,
      "hit": false,
      "t": 52511.71875,
      "d": 937.5,
      "v": 110
    },
    {
      "midi": 48,
      "hit": false,
      "t": 53250,
      "d": 468.75,
      "v": 92
    },
    {
      "midi": 64,
      "hit": false,
      "t": 53437.5,
      "d": 363.28125,
      "v": 84
    },
    {
      "midi": 67,
      "hit": false,
      "t": 53625,
      "d": 183.59375,
      "v": 96
    },
    {
      "midi": 36,
      "hit": false,
      "t": 53625,
      "d": 347.65625,
      "v": 74
    },
    {
      "midi": 74,
      "hit": false,
      "t": 53824.21875,
      "d": 617.1875,
      "v": 100
    },
    {
      "midi": 64,
      "hit": false,
      "t": 53824.21875,
      "d": 652.34375,
      "v": 92
    },
    {
      "midi": 68,
      "hit": false,
      "t": 53824.21875,
      "d": 652.34375,
      "v": 72
    },
    {
      "midi": 40,
      "hit": false,
      "t": 54000,
      "d": 308.59375,
      "v": 56
    },
    {
      "midi": 40,
      "hit": false,
      "t": 54375,
      "d": 402.34375,
      "v": 84
    },
    {
      "midi": 68,
      "hit": false,
      "t": 54550.78125,
      "d": 328.125,
      "v": 72
    },
    {
      "midi": 64,
      "hit": false,
      "t": 54550.78125,
      "d": 335.9375,
      "v": 92
    },
    {
      "midi": 71,
      "hit": false,
      "t": 54554.6875,
      "d": 320.3125,
      "v": 92
    },
    {
      "midi": 52,
      "hit": false,
      "t": 54750,
      "d": 714.84375,
      "v": 80
    },
    {
      "midi": 68,
      "hit": false,
      "t": 54925.78125,
      "d": 523.4375,
      "v": 78
    },
    {
      "midi": 74,
      "hit": false,
      "t": 54925.78125,
      "d": 523.4375,
      "v": 106
    },
    {
      "midi": 64,
      "hit": false,
      "t": 54929.6875,
      "d": 523.4375,
      "v": 88
    },
    {
      "midi": 40,
      "hit": false,
      "t": 55125,
      "d": 234.375,
      "v": 69
    },
    {
      "midi": 41,
      "hit": false,
      "t": 55500,
      "d": 777.34375,
      "v": 58
    },
    {
      "midi": 65,
      "hit": false,
      "t": 55503.90625,
      "d": 523.4375,
      "v": 92
    },
    {
      "midi": 69,
      "hit": false,
      "t": 55503.90625,
      "d": 539.0625,
      "v": 106
    },
    {
      "midi": 72,
      "hit": false,
      "t": 55507.8125,
      "d": 535.15625,
      "v": 107
    },
    {
      "midi": 72,
      "hit": false,
      "t": 56070.3125,
      "d": 312.5,
      "v": 74
    },
    {
      "midi": 69,
      "hit": false,
      "t": 56070.3125,
      "d": 324.21875,
      "v": 58
    },
    {
      "midi": 65,
      "hit": false,
      "t": 56074.21875,
      "d": 316.40625,
      "v": 68
    },
    {
      "midi": 53,
      "hit": false,
      "t": 56250,
      "d": 710.9375,
      "v": 92
    },
    {
      "midi": 69,
      "hit": false,
      "t": 56441.40625,
      "d": 304.6875,
      "v": 78
    },
    {
      "midi": 65,
      "hit": false,
      "t": 56445.3125,
      "d": 292.96875,
      "v": 74
    },
    {
      "midi": 74,
      "hit": false,
      "t": 56445.3125,
      "d": 300.78125,
      "v": 106
    },
    {
      "midi": 69,
      "hit": false,
      "t": 56820.3125,
      "d": 312.5,
      "v": 84
    },
    {
      "midi": 76,
      "hit": false,
      "t": 56828.125,
      "d": 273.4375,
      "v": 110
    },
    {
      "midi": 65,
      "hit": false,
      "t": 56828.125,
      "d": 316.40625,
      "v": 66
    },
    {
      "midi": 43,
      "hit": false,
      "t": 57000,
      "d": 214.84375,
      "v": 60
    },
    {
      "midi": 65,
      "hit": false,
      "t": 57199.21875,
      "d": 308.59375,
      "v": 68
    },
    {
      "midi": 69,
      "hit": false,
      "t": 57199.21875,
      "d": 320.3125,
      "v": 78
    },
    {
      "midi": 74,
      "hit": false,
      "t": 57203.125,
      "d": 265.625,
      "v": 78
    },
    {
      "midi": 43,
      "hit": false,
      "t": 57375,
      "d": 402.34375,
      "v": 78
    },
    {
      "midi": 69,
      "hit": false,
      "t": 57574.21875,
      "d": 312.5,
      "v": 66
    },
    {
      "midi": 72,
      "hit": false,
      "t": 57582.03125,
      "d": 292.96875,
      "v": 92
    },
    {
      "midi": 65,
      "hit": false,
      "t": 57593.75,
      "d": 285.15625,
      "v": 78
    },
    {
      "midi": 55,
      "hit": false,
      "t": 57750,
      "d": 382.8125,
      "v": 70
    },
    {
      "midi": 69,
      "hit": false,
      "t": 57945.3125,
      "d": 484.375,
      "v": 92
    },
    {
      "midi": 74,
      "hit": false,
      "t": 57945.3125,
      "d": 488.28125,
      "v": 100
    },
    {
      "midi": 65,
      "hit": false,
      "t": 57949.21875,
      "d": 484.375,
      "v": 84
    },
    {
      "midi": 43,
      "hit": false,
      "t": 58125,
      "d": 300.78125,
      "v": 80
    },
    {
      "midi": 36,
      "hit": false,
      "t": 58500,
      "d": 761.71875,
      "v": 84
    },
    {
      "midi": 72,
      "hit": false,
      "t": 58507.8125,
      "d": 1023.4375,
      "v": 110
    },
    {
      "midi": 64,
      "hit": false,
      "t": 58511.71875,
      "d": 835.9375,
      "v": 110
    },
    {
      "midi": 67,
      "hit": false,
      "t": 58511.71875,
      "d": 937.5,
      "v": 110
    },
    {
      "midi": 48,
      "hit": false,
      "t": 59250,
      "d": 468.75,
      "v": 92
    },
    {
      "midi": 64,
      "hit": false,
      "t": 59437.5,
      "d": 363.28125,
      "v": 84
    },
    {
      "midi": 67,
      "hit": false,
      "t": 59625,
      "d": 183.59375,
      "v": 96
    },
    {
      "midi": 36,
      "hit": false,
      "t": 59625,
      "d": 347.65625,
      "v": 74
    },
    {
      "midi": 74,
      "hit": false,
      "t": 59824.21875,
      "d": 617.1875,
      "v": 100
    },
    {
      "midi": 64,
      "hit": false,
      "t": 59824.21875,
      "d": 652.34375,
      "v": 92
    },
    {
      "midi": 68,
      "hit": false,
      "t": 59824.21875,
      "d": 652.34375,
      "v": 72
    },
    {
      "midi": 40,
      "hit": false,
      "t": 60000,
      "d": 308.59375,
      "v": 56
    },
    {
      "midi": 40,
      "hit": false,
      "t": 60375,
      "d": 402.34375,
      "v": 84
    },
    {
      "midi": 68,
      "hit": false,
      "t": 60550.78125,
      "d": 328.125,
      "v": 72
    },
    {
      "midi": 64,
      "hit": false,
      "t": 60550.78125,
      "d": 335.9375,
      "v": 92
    },
    {
      "midi": 71,
      "hit": false,
      "t": 60554.6875,
      "d": 320.3125,
      "v": 92
    },
    {
      "midi": 52,
      "hit": false,
      "t": 60750,
      "d": 714.84375,
      "v": 80
    },
    {
      "midi": 68,
      "hit": false,
      "t": 60925.78125,
      "d": 523.4375,
      "v": 78
    },
    {
      "midi": 74,
      "hit": false,
      "t": 60925.78125,
      "d": 523.4375,
      "v": 106
    },
    {
      "midi": 64,
      "hit": false,
      "t": 60929.6875,
      "d": 523.4375,
      "v": 88
    },
    {
      "midi": 40,
      "hit": false,
      "t": 61125,
      "d": 234.375,
      "v": 69
    },
    {
      "midi": 41,
      "hit": false,
      "t": 61500,
      "d": 777.34375,
      "v": 58
    },
    {
      "midi": 65,
      "hit": false,
      "t": 61503.90625,
      "d": 523.4375,
      "v": 92
    },
    {
      "midi": 69,
      "hit": false,
      "t": 61503.90625,
      "d": 539.0625,
      "v": 106
    },
    {
      "midi": 72,
      "hit": false,
      "t": 61507.8125,
      "d": 535.15625,
      "v": 107
    },
    {
      "midi": 72,
      "hit": false,
      "t": 62070.3125,
      "d": 312.5,
      "v": 74
    },
    {
      "midi": 69,
      "hit": false,
      "t": 62070.3125,
      "d": 324.21875,
      "v": 58
    },
    {
      "midi": 65,
      "hit": false,
      "t": 62074.21875,
      "d": 316.40625,
      "v": 68
    },
    {
      "midi": 53,
      "hit": false,
      "t": 62250,
      "d": 710.9375,
      "v": 92
    },
    {
      "midi": 69,
      "hit": false,
      "t": 62441.40625,
      "d": 535.15625,
      "v": 78
    },
    {
      "midi": 65,
      "hit": false,
      "t": 62445.3125,
      "d": 523.4375,
      "v": 74
    },
    {
      "midi": 74,
      "hit": false,
      "t": 62445.3125,
      "d": 531.25,
      "v": 106
    },
    {
      "midi": 43,
      "hit": false,
      "t": 63000,
      "d": 214.84375,
      "v": 65
    },
    {
      "midi": 67,
      "hit": false,
      "t": 63000,
      "d": 1156.25,
      "v": 65
    },
    {
      "midi": 79,
      "hit": false,
      "t": 63187.5,
      "d": 500,
      "v": 66
    },
    {
      "midi": 43,
      "hit": false,
      "t": 63375,
      "d": 402.34375,
      "v": 78
    },
    {
      "midi": 74,
      "hit": false,
      "t": 63750,
      "d": 97.65625,
      "v": 62
    },
    {
      "midi": 79,
      "hit": false,
      "t": 63750,
      "d": 105.46875,
      "v": 88
    },
    {
      "midi": 55,
      "hit": false,
      "t": 63750,
      "d": 382.8125,
      "v": 70
    },
    {
      "midi": 74,
      "hit": false,
      "t": 63937.5,
      "d": 531.25,
      "v": 80
    },
    {
      "midi": 79,
      "hit": false,
      "t": 63937.5,
      "d": 535.15625,
      "v": 92
    },
    {
      "midi": 43,
      "hit": false,
      "t": 64125,
      "d": 300.78125,
      "v": 80
    },
    {
      "midi": 36,
      "hit": false,
      "t": 64500,
      "d": 761.71875,
      "v": 84
    },
    {
      "midi": 72,
      "hit": false,
      "t": 64507.8125,
      "d": 1023.4375,
      "v": 110
    },
    {
      "midi": 64,
      "hit": false,
      "t": 64511.71875,
      "d": 835.9375,
      "v": 110
    },
    {
      "midi": 67,
      "hit": false,
      "t": 64511.71875,
      "d": 937.5,
      "v": 110
    },
    {
      "midi": 48,
      "hit": false,
      "t": 65250,
      "d": 468.75,
      "v": 92
    },
    {
      "midi": 64,
      "hit": false,
      "t": 65437.5,
      "d": 363.28125,
      "v": 84
    },
    {
      "midi": 67,
      "hit": false,
      "t": 65625,
      "d": 183.59375,
      "v": 96
    },
    {
      "midi": 36,
      "hit": false,
      "t": 65625,
      "d": 347.65625,
      "v": 74
    },
    {
      "midi": 74,
      "hit": false,
      "t": 65824.21875,
      "d": 617.1875,
      "v": 100
    },
    {
      "midi": 64,
      "hit": false,
      "t": 65824.21875,
      "d": 652.34375,
      "v": 92
    },
    {
      "midi": 68,
      "hit": false,
      "t": 65824.21875,
      "d": 652.34375,
      "v": 72
    },
    {
      "midi": 40,
      "hit": false,
      "t": 66000,
      "d": 308.59375,
      "v": 56
    },
    {
      "midi": 40,
      "hit": false,
      "t": 66375,
      "d": 402.34375,
      "v": 84
    },
    {
      "midi": 68,
      "hit": false,
      "t": 66550.78125,
      "d": 328.125,
      "v": 72
    },
    {
      "midi": 64,
      "hit": false,
      "t": 66550.78125,
      "d": 335.9375,
      "v": 92
    },
    {
      "midi": 71,
      "hit": false,
      "t": 66554.6875,
      "d": 320.3125,
      "v": 92
    },
    {
      "midi": 52,
      "hit": false,
      "t": 66750,
      "d": 714.84375,
      "v": 80
    },
    {
      "midi": 68,
      "hit": false,
      "t": 66925.78125,
      "d": 523.4375,
      "v": 78
    },
    {
      "midi": 74,
      "hit": false,
      "t": 66925.78125,
      "d": 523.4375,
      "v": 106
    },
    {
      "midi": 64,
      "hit": false,
      "t": 66929.6875,
      "d": 523.4375,
      "v": 88
    },
    {
      "midi": 40,
      "hit": false,
      "t": 67125,
      "d": 234.375,
      "v": 69
    },
    {
      "midi": 41,
      "hit": false,
      "t": 67500,
      "d": 777.34375,
      "v": 58
    },
    {
      "midi": 65,
      "hit": false,
      "t": 67503.90625,
      "d": 523.4375,
      "v": 92
    },
    {
      "midi": 69,
      "hit": false,
      "t": 67503.90625,
      "d": 539.0625,
      "v": 106
    },
    {
      "midi": 72,
      "hit": false,
      "t": 67507.8125,
      "d": 535.15625,
      "v": 107
    },
    {
      "midi": 72,
      "hit": false,
      "t": 68070.3125,
      "d": 312.5,
      "v": 74
    },
    {
      "midi": 69,
      "hit": false,
      "t": 68070.3125,
      "d": 324.21875,
      "v": 58
    },
    {
      "midi": 65,
      "hit": false,
      "t": 68074.21875,
      "d": 316.40625,
      "v": 68
    },
    {
      "midi": 53,
      "hit": false,
      "t": 68250,
      "d": 710.9375,
      "v": 92
    },
    {
      "midi": 69,
      "hit": false,
      "t": 68441.40625,
      "d": 304.6875,
      "v": 78
    },
    {
      "midi": 65,
      "hit": false,
      "t": 68445.3125,
      "d": 292.96875,
      "v": 74
    },
    {
      "midi": 74,
      "hit": false,
      "t": 68445.3125,
      "d": 300.78125,
      "v": 106
    },
    {
      "midi": 69,
      "hit": false,
      "t": 68820.3125,
      "d": 312.5,
      "v": 84
    },
    {
      "midi": 76,
      "hit": false,
      "t": 68828.125,
      "d": 273.4375,
      "v": 110
    },
    {
      "midi": 65,
      "hit": false,
      "t": 68828.125,
      "d": 316.40625,
      "v": 66
    },
    {
      "midi": 43,
      "hit": false,
      "t": 69000,
      "d": 214.84375,
      "v": 60
    },
    {
      "midi": 65,
      "hit": false,
      "t": 69199.21875,
      "d": 308.59375,
      "v": 68
    },
    {
      "midi": 69,
      "hit": false,
      "t": 69199.21875,
      "d": 320.3125,
      "v": 78
    },
    {
      "midi": 74,
      "hit": false,
      "t": 69203.125,
      "d": 265.625,
      "v": 78
    },
    {
      "midi": 43,
      "hit": false,
      "t": 69375,
      "d": 402.34375,
      "v": 78
    },
    {
      "midi": 69,
      "hit": false,
      "t": 69574.21875,
      "d": 312.5,
      "v": 66
    },
    {
      "midi": 72,
      "hit": false,
      "t": 69582.03125,
      "d": 292.96875,
      "v": 92
    },
    {
      "midi": 65,
      "hit": false,
      "t": 69593.75,
      "d": 285.15625,
      "v": 78
    },
    {
      "midi": 55,
      "hit": false,
      "t": 69750,
      "d": 382.8125,
      "v": 70
    },
    {
      "midi": 69,
      "hit": false,
      "t": 69945.3125,
      "d": 484.375,
      "v": 92
    },
    {
      "midi": 74,
      "hit": false,
      "t": 69945.3125,
      "d": 488.28125,
      "v": 100
    },
    {
      "midi": 65,
      "hit": false,
      "t": 69949.21875,
      "d": 484.375,
      "v": 84
    },
    {
      "midi": 43,
      "hit": false,
      "t": 70125,
      "d": 300.78125,
      "v": 80
    },
    {
      "midi": 36,
      "hit": false,
      "t": 70500,
      "d": 761.71875,
      "v": 84
    },
    {
      "midi": 72,
      "hit": false,
      "t": 70507.8125,
      "d": 1023.4375,
      "v": 110
    },
    {
      "midi": 64,
      "hit": false,
      "t": 70511.71875,
      "d": 835.9375,
      "v": 110
    },
    {
      "midi": 67,
      "hit": false,
      "t": 70511.71875,
      "d": 937.5,
      "v": 110
    },
    {
      "midi": 48,
      "hit": false,
      "t": 71250,
      "d": 468.75,
      "v": 92
    },
    {
      "midi": 64,
      "hit": false,
      "t": 71437.5,
      "d": 363.28125,
      "v": 84
    },
    {
      "midi": 67,
      "hit": false,
      "t": 71625,
      "d": 183.59375,
      "v": 96
    },
    {
      "midi": 36,
      "hit": false,
      "t": 71625,
      "d": 347.65625,
      "v": 74
    },
    {
      "midi": 74,
      "hit": false,
      "t": 71824.21875,
      "d": 617.1875,
      "v": 100
    },
    {
      "midi": 64,
      "hit": false,
      "t": 71824.21875,
      "d": 652.34375,
      "v": 92
    },
    {
      "midi": 68,
      "hit": false,
      "t": 71824.21875,
      "d": 652.34375,
      "v": 72
    },
    {
      "midi": 40,
      "hit": false,
      "t": 72000,
      "d": 308.59375,
      "v": 56
    },
    {
      "midi": 40,
      "hit": false,
      "t": 72375,
      "d": 402.34375,
      "v": 84
    },
    {
      "midi": 68,
      "hit": false,
      "t": 72550.78125,
      "d": 328.125,
      "v": 72
    },
    {
      "midi": 64,
      "hit": false,
      "t": 72550.78125,
      "d": 335.9375,
      "v": 92
    },
    {
      "midi": 71,
      "hit": false,
      "t": 72554.6875,
      "d": 320.3125,
      "v": 92
    },
    {
      "midi": 52,
      "hit": false,
      "t": 72750,
      "d": 714.84375,
      "v": 80
    },
    {
      "midi": 68,
      "hit": false,
      "t": 72925.78125,
      "d": 523.4375,
      "v": 78
    },
    {
      "midi": 74,
      "hit": false,
      "t": 72925.78125,
      "d": 523.4375,
      "v": 106
    },
    {
      "midi": 64,
      "hit": false,
      "t": 72929.6875,
      "d": 523.4375,
      "v": 88
    },
    {
      "midi": 40,
      "hit": false,
      "t": 73125,
      "d": 234.375,
      "v": 69
    },
    {
      "midi": 41,
      "hit": false,
      "t": 73500,
      "d": 777.34375,
      "v": 58
    },
    {
      "midi": 65,
      "hit": false,
      "t": 73503.90625,
      "d": 523.4375,
      "v": 92
    },
    {
      "midi": 69,
      "hit": false,
      "t": 73503.90625,
      "d": 539.0625,
      "v": 106
    },
    {
      "midi": 72,
      "hit": false,
      "t": 73507.8125,
      "d": 535.15625,
      "v": 107
    },
    {
      "midi": 72,
      "hit": false,
      "t": 74070.3125,
      "d": 312.5,
      "v": 74
    },
    {
      "midi": 69,
      "hit": false,
      "t": 74070.3125,
      "d": 324.21875,
      "v": 58
    },
    {
      "midi": 65,
      "hit": false,
      "t": 74074.21875,
      "d": 316.40625,
      "v": 68
    },
    {
      "midi": 53,
      "hit": false,
      "t": 74250,
      "d": 710.9375,
      "v": 92
    },
    {
      "midi": 69,
      "hit": false,
      "t": 74441.40625,
      "d": 304.6875,
      "v": 78
    },
    {
      "midi": 65,
      "hit": false,
      "t": 74445.3125,
      "d": 292.96875,
      "v": 74
    },
    {
      "midi": 74,
      "hit": false,
      "t": 74445.3125,
      "d": 300.78125,
      "v": 106
    },
    {
      "midi": 69,
      "hit": false,
      "t": 74820.3125,
      "d": 312.5,
      "v": 84
    },
    {
      "midi": 76,
      "hit": false,
      "t": 74828.125,
      "d": 273.4375,
      "v": 110
    },
    {
      "midi": 65,
      "hit": false,
      "t": 74828.125,
      "d": 316.40625,
      "v": 66
    },
    {
      "midi": 43,
      "hit": false,
      "t": 75000,
      "d": 214.84375,
      "v": 60
    },
    {
      "midi": 65,
      "hit": false,
      "t": 75199.21875,
      "d": 308.59375,
      "v": 68
    },
    {
      "midi": 69,
      "hit": false,
      "t": 75199.21875,
      "d": 320.3125,
      "v": 78
    },
    {
      "midi": 74,
      "hit": false,
      "t": 75203.125,
      "d": 265.625,
      "v": 78
    },
    {
      "midi": 43,
      "hit": false,
      "t": 75375,
      "d": 402.34375,
      "v": 78
    },
    {
      "midi": 69,
      "hit": false,
      "t": 75574.21875,
      "d": 312.5,
      "v": 66
    },
    {
      "midi": 72,
      "hit": false,
      "t": 75582.03125,
      "d": 292.96875,
      "v": 92
    },
    {
      "midi": 65,
      "hit": false,
      "t": 75593.75,
      "d": 285.15625,
      "v": 78
    },
    {
      "midi": 55,
      "hit": false,
      "t": 75750,
      "d": 382.8125,
      "v": 70
    },
    {
      "midi": 69,
      "hit": false,
      "t": 75945.3125,
      "d": 484.375,
      "v": 92
    },
    {
      "midi": 74,
      "hit": false,
      "t": 75945.3125,
      "d": 488.28125,
      "v": 100
    },
    {
      "midi": 65,
      "hit": false,
      "t": 75949.21875,
      "d": 484.375,
      "v": 84
    },
    {
      "midi": 43,
      "hit": false,
      "t": 76125,
      "d": 300.78125,
      "v": 80
    },
    {
      "midi": 36,
      "hit": false,
      "t": 76500,
      "d": 761.71875,
      "v": 84
    },
    {
      "midi": 72,
      "hit": false,
      "t": 76507.8125,
      "d": 1023.4375,
      "v": 110
    },
    {
      "midi": 64,
      "hit": false,
      "t": 76511.71875,
      "d": 835.9375,
      "v": 110
    },
    {
      "midi": 67,
      "hit": false,
      "t": 76511.71875,
      "d": 937.5,
      "v": 110
    },
    {
      "midi": 48,
      "hit": false,
      "t": 77250,
      "d": 468.75,
      "v": 92
    },
    {
      "midi": 64,
      "hit": false,
      "t": 77437.5,
      "d": 363.28125,
      "v": 84
    },
    {
      "midi": 67,
      "hit": false,
      "t": 77625,
      "d": 183.59375,
      "v": 96
    },
    {
      "midi": 36,
      "hit": false,
      "t": 77625,
      "d": 347.65625,
      "v": 74
    },
    {
      "midi": 74,
      "hit": false,
      "t": 77824.21875,
      "d": 617.1875,
      "v": 100
    },
    {
      "midi": 64,
      "hit": false,
      "t": 77824.21875,
      "d": 652.34375,
      "v": 92
    },
    {
      "midi": 68,
      "hit": false,
      "t": 77824.21875,
      "d": 652.34375,
      "v": 72
    },
    {
      "midi": 40,
      "hit": false,
      "t": 78000,
      "d": 308.59375,
      "v": 56
    },
    {
      "midi": 40,
      "hit": false,
      "t": 78375,
      "d": 402.34375,
      "v": 84
    },
    {
      "midi": 68,
      "hit": false,
      "t": 78550.78125,
      "d": 328.125,
      "v": 72
    },
    {
      "midi": 64,
      "hit": false,
      "t": 78550.78125,
      "d": 335.9375,
      "v": 92
    },
    {
      "midi": 71,
      "hit": false,
      "t": 78554.6875,
      "d": 320.3125,
      "v": 92
    },
    {
      "midi": 52,
      "hit": false,
      "t": 78750,
      "d": 714.84375,
      "v": 80
    },
    {
      "midi": 68,
      "hit": false,
      "t": 78925.78125,
      "d": 523.4375,
      "v": 78
    },
    {
      "midi": 74,
      "hit": false,
      "t": 78925.78125,
      "d": 523.4375,
      "v": 106
    },
    {
      "midi": 64,
      "hit": false,
      "t": 78929.6875,
      "d": 523.4375,
      "v": 88
    },
    {
      "midi": 40,
      "hit": false,
      "t": 79125,
      "d": 234.375,
      "v": 69
    },
    {
      "midi": 41,
      "hit": false,
      "t": 79500,
      "d": 777.34375,
      "v": 58
    },
    {
      "midi": 65,
      "hit": false,
      "t": 79503.90625,
      "d": 523.4375,
      "v": 92
    },
    {
      "midi": 69,
      "hit": false,
      "t": 79503.90625,
      "d": 539.0625,
      "v": 106
    },
    {
      "midi": 72,
      "hit": false,
      "t": 79507.8125,
      "d": 535.15625,
      "v": 107
    },
    {
      "midi": 72,
      "hit": false,
      "t": 80070.3125,
      "d": 312.5,
      "v": 74
    },
    {
      "midi": 69,
      "hit": false,
      "t": 80070.3125,
      "d": 324.21875,
      "v": 58
    },
    {
      "midi": 65,
      "hit": false,
      "t": 80074.21875,
      "d": 316.40625,
      "v": 68
    },
    {
      "midi": 53,
      "hit": false,
      "t": 80250,
      "d": 710.9375,
      "v": 92
    },
    {
      "midi": 69,
      "hit": false,
      "t": 80441.40625,
      "d": 304.6875,
      "v": 78
    },
    {
      "midi": 65,
      "hit": false,
      "t": 80445.3125,
      "d": 292.96875,
      "v": 74
    },
    {
      "midi": 74,
      "hit": false,
      "t": 80445.3125,
      "d": 300.78125,
      "v": 106
    },
    {
      "midi": 69,
      "hit": false,
      "t": 80820.3125,
      "d": 312.5,
      "v": 84
    },
    {
      "midi": 76,
      "hit": false,
      "t": 80828.125,
      "d": 273.4375,
      "v": 110
    },
    {
      "midi": 65,
      "hit": false,
      "t": 80828.125,
      "d": 316.40625,
      "v": 66
    },
    {
      "midi": 43,
      "hit": false,
      "t": 81000,
      "d": 214.84375,
      "v": 60
    },
    {
      "midi": 65,
      "hit": false,
      "t": 81199.21875,
      "d": 308.59375,
      "v": 68
    },
    {
      "midi": 69,
      "hit": false,
      "t": 81199.21875,
      "d": 320.3125,
      "v": 78
    },
    {
      "midi": 74,
      "hit": false,
      "t": 81203.125,
      "d": 265.625,
      "v": 78
    },
    {
      "midi": 43,
      "hit": false,
      "t": 81375,
      "d": 402.34375,
      "v": 78
    },
    {
      "midi": 69,
      "hit": false,
      "t": 81574.21875,
      "d": 312.5,
      "v": 66
    },
    {
      "midi": 72,
      "hit": false,
      "t": 81582.03125,
      "d": 292.96875,
      "v": 92
    },
    {
      "midi": 65,
      "hit": false,
      "t": 81593.75,
      "d": 285.15625,
      "v": 78
    },
    {
      "midi": 55,
      "hit": false,
      "t": 81750,
      "d": 382.8125,
      "v": 70
    },
    {
      "midi": 69,
      "hit": false,
      "t": 81945.3125,
      "d": 484.375,
      "v": 92
    },
    {
      "midi": 74,
      "hit": false,
      "t": 81945.3125,
      "d": 488.28125,
      "v": 100
    },
    {
      "midi": 65,
      "hit": false,
      "t": 81949.21875,
      "d": 484.375,
      "v": 84
    },
    {
      "midi": 43,
      "hit": false,
      "t": 82125,
      "d": 300.78125,
      "v": 80
    },
    {
      "midi": 36,
      "hit": false,
      "t": 82500,
      "d": 761.71875,
      "v": 84
    },
    {
      "midi": 72,
      "hit": false,
      "t": 82507.8125,
      "d": 1023.4375,
      "v": 110
    },
    {
      "midi": 64,
      "hit": false,
      "t": 82511.71875,
      "d": 835.9375,
      "v": 110
    },
    {
      "midi": 67,
      "hit": false,
      "t": 82511.71875,
      "d": 937.5,
      "v": 110
    },
    {
      "midi": 48,
      "hit": false,
      "t": 83250,
      "d": 468.75,
      "v": 92
    },
    {
      "midi": 64,
      "hit": false,
      "t": 83437.5,
      "d": 363.28125,
      "v": 84
    },
    {
      "midi": 67,
      "hit": false,
      "t": 83625,
      "d": 183.59375,
      "v": 96
    },
    {
      "midi": 36,
      "hit": false,
      "t": 83625,
      "d": 347.65625,
      "v": 74
    },
    {
      "midi": 74,
      "hit": false,
      "t": 83824.21875,
      "d": 617.1875,
      "v": 100
    },
    {
      "midi": 64,
      "hit": false,
      "t": 83824.21875,
      "d": 652.34375,
      "v": 92
    },
    {
      "midi": 68,
      "hit": false,
      "t": 83824.21875,
      "d": 652.34375,
      "v": 72
    },
    {
      "midi": 40,
      "hit": false,
      "t": 84000,
      "d": 308.59375,
      "v": 56
    },
    {
      "midi": 40,
      "hit": false,
      "t": 84375,
      "d": 402.34375,
      "v": 84
    },
    {
      "midi": 68,
      "hit": false,
      "t": 84550.78125,
      "d": 328.125,
      "v": 72
    },
    {
      "midi": 64,
      "hit": false,
      "t": 84550.78125,
      "d": 335.9375,
      "v": 92
    },
    {
      "midi": 71,
      "hit": false,
      "t": 84554.6875,
      "d": 320.3125,
      "v": 92
    },
    {
      "midi": 52,
      "hit": false,
      "t": 84750,
      "d": 714.84375,
      "v": 80
    },
    {
      "midi": 68,
      "hit": false,
      "t": 84925.78125,
      "d": 523.4375,
      "v": 78
    },
    {
      "midi": 74,
      "hit": false,
      "t": 84925.78125,
      "d": 523.4375,
      "v": 106
    },
    {
      "midi": 64,
      "hit": false,
      "t": 84929.6875,
      "d": 523.4375,
      "v": 88
    },
    {
      "midi": 40,
      "hit": false,
      "t": 85125,
      "d": 234.375,
      "v": 69
    },
    {
      "midi": 41,
      "hit": false,
      "t": 85500,
      "d": 777.34375,
      "v": 58
    },
    {
      "midi": 65,
      "hit": false,
      "t": 85503.90625,
      "d": 523.4375,
      "v": 92
    },
    {
      "midi": 69,
      "hit": false,
      "t": 85503.90625,
      "d": 539.0625,
      "v": 106
    },
    {
      "midi": 72,
      "hit": false,
      "t": 85507.8125,
      "d": 535.15625,
      "v": 107
    },
    {
      "midi": 72,
      "hit": false,
      "t": 86070.3125,
      "d": 312.5,
      "v": 74
    },
    {
      "midi": 69,
      "hit": false,
      "t": 86070.3125,
      "d": 324.21875,
      "v": 58
    },
    {
      "midi": 65,
      "hit": false,
      "t": 86074.21875,
      "d": 316.40625,
      "v": 68
    },
    {
      "midi": 53,
      "hit": false,
      "t": 86250,
      "d": 710.9375,
      "v": 92
    },
    {
      "midi": 69,
      "hit": false,
      "t": 86441.40625,
      "d": 535.15625,
      "v": 78
    },
    {
      "midi": 65,
      "hit": false,
      "t": 86445.3125,
      "d": 523.4375,
      "v": 74
    },
    {
      "midi": 74,
      "hit": false,
      "t": 86445.3125,
      "d": 531.25,
      "v": 106
    },
    {
      "midi": 43,
      "hit": false,
      "t": 87000,
      "d": 214.84375,
      "v": 65
    },
    {
      "midi": 67,
      "hit": false,
      "t": 87000,
      "d": 1156.25,
      "v": 65
    },
    {
      "midi": 79,
      "hit": false,
      "t": 87187.5,
      "d": 500,
      "v": 66
    },
    {
      "midi": 43,
      "hit": false,
      "t": 87375,
      "d": 402.34375,
      "v": 78
    },
    {
      "midi": 74,
      "hit": false,
      "t": 87750,
      "d": 97.65625,
      "v": 62
    },
    {
      "midi": 79,
      "hit": false,
      "t": 87750,
      "d": 105.46875,
      "v": 88
    },
    {
      "midi": 55,
      "hit": false,
      "t": 87750,
      "d": 382.8125,
      "v": 70
    },
    {
      "midi": 74,
      "hit": false,
      "t": 87937.5,
      "d": 531.25,
      "v": 80
    },
    {
      "midi": 79,
      "hit": false,
      "t": 87937.5,
      "d": 535.15625,
      "v": 92
    },
    {
      "midi": 43,
      "hit": false,
      "t": 88125,
      "d": 300.78125,
      "v": 80
    },
    {
      "midi": 36,
      "hit": false,
      "t": 88500,
      "d": 761.71875,
      "v": 84
    },
    {
      "midi": 72,
      "hit": false,
      "t": 88507.8125,
      "d": 1023.4375,
      "v": 110
    },
    {
      "midi": 64,
      "hit": false,
      "t": 88511.71875,
      "d": 835.9375,
      "v": 110
    },
    {
      "midi": 67,
      "hit": false,
      "t": 88511.71875,
      "d": 937.5,
      "v": 110
    },
    {
      "midi": 48,
      "hit": false,
      "t": 89250,
      "d": 468.75,
      "v": 92
    },
    {
      "midi": 64,
      "hit": false,
      "t": 89437.5,
      "d": 363.28125,
      "v": 84
    },
    {
      "midi": 67,
      "hit": false,
      "t": 89625,
      "d": 183.59375,
      "v": 96
    },
    {
      "midi": 36,
      "hit": false,
      "t": 89625,
      "d": 347.65625,
      "v": 74
    },
    {
      "midi": 74,
      "hit": false,
      "t": 89824.21875,
      "d": 617.1875,
      "v": 100
    },
    {
      "midi": 64,
      "hit": false,
      "t": 89824.21875,
      "d": 652.34375,
      "v": 92
    },
    {
      "midi": 68,
      "hit": false,
      "t": 89824.21875,
      "d": 652.34375,
      "v": 72
    },
    {
      "midi": 40,
      "hit": false,
      "t": 90000,
      "d": 308.59375,
      "v": 56
    },
    {
      "midi": 40,
      "hit": false,
      "t": 90375,
      "d": 402.34375,
      "v": 84
    },
    {
      "midi": 68,
      "hit": false,
      "t": 90550.78125,
      "d": 328.125,
      "v": 72
    },
    {
      "midi": 64,
      "hit": false,
      "t": 90550.78125,
      "d": 335.9375,
      "v": 92
    },
    {
      "midi": 71,
      "hit": false,
      "t": 90554.6875,
      "d": 320.3125,
      "v": 92
    },
    {
      "midi": 52,
      "hit": false,
      "t": 90750,
      "d": 714.84375,
      "v": 80
    },
    {
      "midi": 68,
      "hit": false,
      "t": 90925.78125,
      "d": 523.4375,
      "v": 78
    },
    {
      "midi": 74,
      "hit": false,
      "t": 90925.78125,
      "d": 523.4375,
      "v": 106
    },
    {
      "midi": 64,
      "hit": false,
      "t": 90929.6875,
      "d": 523.4375,
      "v": 88
    },
    {
      "midi": 40,
      "hit": false,
      "t": 91125,
      "d": 234.375,
      "v": 69
    },
    {
      "midi": 41,
      "hit": false,
      "t": 91500,
      "d": 777.34375,
      "v": 58
    },
    {
      "midi": 65,
      "hit": false,
      "t": 91503.90625,
      "d": 523.4375,
      "v": 92
    },
    {
      "midi": 69,
      "hit": false,
      "t": 91503.90625,
      "d": 539.0625,
      "v": 106
    },
    {
      "midi": 72,
      "hit": false,
      "t": 91507.8125,
      "d": 535.15625,
      "v": 107
    },
    {
      "midi": 72,
      "hit": false,
      "t": 92070.3125,
      "d": 312.5,
      "v": 74
    },
    {
      "midi": 69,
      "hit": false,
      "t": 92070.3125,
      "d": 324.21875,
      "v": 58
    },
    {
      "midi": 65,
      "hit": false,
      "t": 92074.21875,
      "d": 316.40625,
      "v": 68
    },
    {
      "midi": 53,
      "hit": false,
      "t": 92250,
      "d": 710.9375,
      "v": 92
    },
    {
      "midi": 69,
      "hit": false,
      "t": 92441.40625,
      "d": 304.6875,
      "v": 78
    },
    {
      "midi": 65,
      "hit": false,
      "t": 92445.3125,
      "d": 292.96875,
      "v": 74
    },
    {
      "midi": 74,
      "hit": false,
      "t": 92445.3125,
      "d": 300.78125,
      "v": 106
    },
    {
      "midi": 69,
      "hit": false,
      "t": 92820.3125,
      "d": 312.5,
      "v": 84
    },
    {
      "midi": 76,
      "hit": false,
      "t": 92828.125,
      "d": 273.4375,
      "v": 110
    },
    {
      "midi": 65,
      "hit": false,
      "t": 92828.125,
      "d": 316.40625,
      "v": 66
    },
    {
      "midi": 43,
      "hit": false,
      "t": 93000,
      "d": 214.84375,
      "v": 60
    },
    {
      "midi": 65,
      "hit": false,
      "t": 93199.21875,
      "d": 308.59375,
      "v": 68
    },
    {
      "midi": 69,
      "hit": false,
      "t": 93199.21875,
      "d": 320.3125,
      "v": 78
    },
    {
      "midi": 74,
      "hit": false,
      "t": 93203.125,
      "d": 265.625,
      "v": 78
    },
    {
      "midi": 43,
      "hit": false,
      "t": 93375,
      "d": 402.34375,
      "v": 78
    },
    {
      "midi": 69,
      "hit": false,
      "t": 93574.21875,
      "d": 312.5,
      "v": 66
    },
    {
      "midi": 72,
      "hit": false,
      "t": 93582.03125,
      "d": 292.96875,
      "v": 92
    },
    {
      "midi": 65,
      "hit": false,
      "t": 93593.75,
      "d": 285.15625,
      "v": 78
    },
    {
      "midi": 55,
      "hit": false,
      "t": 93750,
      "d": 382.8125,
      "v": 70
    },
    {
      "midi": 69,
      "hit": false,
      "t": 93945.3125,
      "d": 484.375,
      "v": 92
    },
    {
      "midi": 74,
      "hit": false,
      "t": 93945.3125,
      "d": 488.28125,
      "v": 100
    },
    {
      "midi": 65,
      "hit": false,
      "t": 93949.21875,
      "d": 484.375,
      "v": 84
    },
    {
      "midi": 43,
      "hit": false,
      "t": 94125,
      "d": 300.78125,
      "v": 80
    },
    {
      "midi": 36,
      "hit": false,
      "t": 94500,
      "d": 761.71875,
      "v": 84
    },
    {
      "midi": 72,
      "hit": false,
      "t": 94507.8125,
      "d": 1023.4375,
      "v": 110
    },
    {
      "midi": 64,
      "hit": false,
      "t": 94511.71875,
      "d": 835.9375,
      "v": 110
    },
    {
      "midi": 67,
      "hit": false,
      "t": 94511.71875,
      "d": 937.5,
      "v": 110
    },
    {
      "midi": 48,
      "hit": false,
      "t": 95250,
      "d": 468.75,
      "v": 92
    },
    {
      "midi": 64,
      "hit": false,
      "t": 95437.5,
      "d": 363.28125,
      "v": 84
    },
    {
      "midi": 67,
      "hit": false,
      "t": 95625,
      "d": 183.59375,
      "v": 96
    },
    {
      "midi": 36,
      "hit": false,
      "t": 95625,
      "d": 347.65625,
      "v": 74
    },
    {
      "midi": 74,
      "hit": false,
      "t": 95824.21875,
      "d": 617.1875,
      "v": 100
    },
    {
      "midi": 64,
      "hit": false,
      "t": 95824.21875,
      "d": 652.34375,
      "v": 92
    },
    {
      "midi": 68,
      "hit": false,
      "t": 95824.21875,
      "d": 652.34375,
      "v": 72
    },
    {
      "midi": 40,
      "hit": false,
      "t": 96000,
      "d": 308.59375,
      "v": 56
    },
    {
      "midi": 40,
      "hit": false,
      "t": 96375,
      "d": 402.34375,
      "v": 84
    },
    {
      "midi": 68,
      "hit": false,
      "t": 96550.78125,
      "d": 328.125,
      "v": 72
    },
    {
      "midi": 64,
      "hit": false,
      "t": 96550.78125,
      "d": 335.9375,
      "v": 92
    },
    {
      "midi": 71,
      "hit": false,
      "t": 96554.6875,
      "d": 320.3125,
      "v": 92
    },
    {
      "midi": 52,
      "hit": false,
      "t": 96750,
      "d": 714.84375,
      "v": 80
    },
    {
      "midi": 68,
      "hit": false,
      "t": 96925.78125,
      "d": 523.4375,
      "v": 78
    },
    {
      "midi": 74,
      "hit": false,
      "t": 96925.78125,
      "d": 523.4375,
      "v": 106
    },
    {
      "midi": 64,
      "hit": false,
      "t": 96929.6875,
      "d": 523.4375,
      "v": 88
    },
    {
      "midi": 40,
      "hit": false,
      "t": 97125,
      "d": 234.375,
      "v": 69
    },
    {
      "midi": 41,
      "hit": false,
      "t": 97500,
      "d": 777.34375,
      "v": 58
    },
    {
      "midi": 65,
      "hit": false,
      "t": 97503.90625,
      "d": 523.4375,
      "v": 92
    },
    {
      "midi": 69,
      "hit": false,
      "t": 97503.90625,
      "d": 539.0625,
      "v": 106
    },
    {
      "midi": 72,
      "hit": false,
      "t": 97507.8125,
      "d": 535.15625,
      "v": 107
    },
    {
      "midi": 72,
      "hit": false,
      "t": 98070.3125,
      "d": 312.5,
      "v": 74
    },
    {
      "midi": 69,
      "hit": false,
      "t": 98070.3125,
      "d": 324.21875,
      "v": 58
    },
    {
      "midi": 65,
      "hit": false,
      "t": 98074.21875,
      "d": 316.40625,
      "v": 68
    },
    {
      "midi": 53,
      "hit": false,
      "t": 98250,
      "d": 710.9375,
      "v": 92
    },
    {
      "midi": 69,
      "hit": false,
      "t": 98441.40625,
      "d": 304.6875,
      "v": 78
    },
    {
      "midi": 65,
      "hit": false,
      "t": 98445.3125,
      "d": 292.96875,
      "v": 74
    },
    {
      "midi": 74,
      "hit": false,
      "t": 98445.3125,
      "d": 300.78125,
      "v": 106
    },
    {
      "midi": 69,
      "hit": false,
      "t": 98820.3125,
      "d": 312.5,
      "v": 84
    },
    {
      "midi": 76,
      "hit": false,
      "t": 98828.125,
      "d": 273.4375,
      "v": 110
    },
    {
      "midi": 65,
      "hit": false,
      "t": 98828.125,
      "d": 316.40625,
      "v": 66
    },
    {
      "midi": 43,
      "hit": false,
      "t": 99000,
      "d": 214.84375,
      "v": 60
    },
    {
      "midi": 65,
      "hit": false,
      "t": 99199.21875,
      "d": 308.59375,
      "v": 68
    },
    {
      "midi": 69,
      "hit": false,
      "t": 99199.21875,
      "d": 320.3125,
      "v": 78
    },
    {
      "midi": 74,
      "hit": false,
      "t": 99203.125,
      "d": 265.625,
      "v": 78
    },
    {
      "midi": 43,
      "hit": false,
      "t": 99375,
      "d": 402.34375,
      "v": 78
    },
    {
      "midi": 69,
      "hit": false,
      "t": 99574.21875,
      "d": 312.5,
      "v": 66
    },
    {
      "midi": 72,
      "hit": false,
      "t": 99582.03125,
      "d": 292.96875,
      "v": 92
    },
    {
      "midi": 65,
      "hit": false,
      "t": 99593.75,
      "d": 285.15625,
      "v": 78
    },
    {
      "midi": 55,
      "hit": false,
      "t": 99750,
      "d": 382.8125,
      "v": 70
    },
    {
      "midi": 69,
      "hit": false,
      "t": 99945.3125,
      "d": 484.375,
      "v": 92
    },
    {
      "midi": 74,
      "hit": false,
      "t": 99945.3125,
      "d": 488.28125,
      "v": 100
    },
    {
      "midi": 65,
      "hit": false,
      "t": 99949.21875,
      "d": 484.375,
      "v": 84
    },
    {
      "midi": 43,
      "hit": false,
      "t": 100125,
      "d": 300.78125,
      "v": 80
    },
    {
      "midi": 36,
      "hit": false,
      "t": 100500,
      "d": 761.71875,
      "v": 84
    },
    {
      "midi": 72,
      "hit": false,
      "t": 100507.8125,
      "d": 1023.4375,
      "v": 110
    },
    {
      "midi": 64,
      "hit": false,
      "t": 100511.71875,
      "d": 835.9375,
      "v": 110
    },
    {
      "midi": 67,
      "hit": false,
      "t": 100511.71875,
      "d": 937.5,
      "v": 110
    },
    {
      "midi": 48,
      "hit": false,
      "t": 101250,
      "d": 468.75,
      "v": 92
    },
    {
      "midi": 64,
      "hit": false,
      "t": 101437.5,
      "d": 363.28125,
      "v": 84
    },
    {
      "midi": 67,
      "hit": false,
      "t": 101625,
      "d": 183.59375,
      "v": 96
    },
    {
      "midi": 36,
      "hit": false,
      "t": 101625,
      "d": 347.65625,
      "v": 74
    },
    {
      "midi": 74,
      "hit": false,
      "t": 101824.21875,
      "d": 617.1875,
      "v": 100
    },
    {
      "midi": 64,
      "hit": false,
      "t": 101824.21875,
      "d": 652.34375,
      "v": 92
    },
    {
      "midi": 68,
      "hit": false,
      "t": 101824.21875,
      "d": 652.34375,
      "v": 72
    },
    {
      "midi": 40,
      "hit": false,
      "t": 102000,
      "d": 308.59375,
      "v": 56
    },
    {
      "midi": 40,
      "hit": false,
      "t": 102375,
      "d": 402.34375,
      "v": 84
    },
    {
      "midi": 68,
      "hit": false,
      "t": 102550.78125,
      "d": 328.125,
      "v": 72
    },
    {
      "midi": 64,
      "hit": false,
      "t": 102550.78125,
      "d": 335.9375,
      "v": 92
    },
    {
      "midi": 71,
      "hit": false,
      "t": 102554.6875,
      "d": 320.3125,
      "v": 92
    },
    {
      "midi": 52,
      "hit": false,
      "t": 102750,
      "d": 714.84375,
      "v": 80
    },
    {
      "midi": 68,
      "hit": false,
      "t": 102925.78125,
      "d": 523.4375,
      "v": 78
    },
    {
      "midi": 74,
      "hit": false,
      "t": 102925.78125,
      "d": 523.4375,
      "v": 106
    },
    {
      "midi": 64,
      "hit": false,
      "t": 102929.6875,
      "d": 523.4375,
      "v": 88
    },
    {
      "midi": 40,
      "hit": false,
      "t": 103125,
      "d": 234.375,
      "v": 69
    },
    {
      "midi": 41,
      "hit": false,
      "t": 103500,
      "d": 777.34375,
      "v": 58
    },
    {
      "midi": 65,
      "hit": false,
      "t": 103503.90625,
      "d": 523.4375,
      "v": 92
    },
    {
      "midi": 69,
      "hit": false,
      "t": 103503.90625,
      "d": 539.0625,
      "v": 106
    },
    {
      "midi": 72,
      "hit": false,
      "t": 103507.8125,
      "d": 535.15625,
      "v": 107
    },
    {
      "midi": 72,
      "hit": false,
      "t": 104070.3125,
      "d": 312.5,
      "v": 74
    },
    {
      "midi": 69,
      "hit": false,
      "t": 104070.3125,
      "d": 324.21875,
      "v": 58
    },
    {
      "midi": 65,
      "hit": false,
      "t": 104074.21875,
      "d": 316.40625,
      "v": 68
    },
    {
      "midi": 53,
      "hit": false,
      "t": 104250,
      "d": 710.9375,
      "v": 92
    },
    {
      "midi": 69,
      "hit": false,
      "t": 104441.40625,
      "d": 304.6875,
      "v": 78
    },
    {
      "midi": 65,
      "hit": false,
      "t": 104445.3125,
      "d": 292.96875,
      "v": 74
    },
    {
      "midi": 74,
      "hit": false,
      "t": 104445.3125,
      "d": 300.78125,
      "v": 106
    },
    {
      "midi": 69,
      "hit": false,
      "t": 104820.3125,
      "d": 312.5,
      "v": 84
    },
    {
      "midi": 76,
      "hit": false,
      "t": 104828.125,
      "d": 273.4375,
      "v": 110
    },
    {
      "midi": 65,
      "hit": false,
      "t": 104828.125,
      "d": 316.40625,
      "v": 66
    },
    {
      "midi": 43,
      "hit": false,
      "t": 105000,
      "d": 214.84375,
      "v": 60
    },
    {
      "midi": 65,
      "hit": false,
      "t": 105199.21875,
      "d": 308.59375,
      "v": 68
    },
    {
      "midi": 69,
      "hit": false,
      "t": 105199.21875,
      "d": 320.3125,
      "v": 78
    },
    {
      "midi": 74,
      "hit": false,
      "t": 105203.125,
      "d": 265.625,
      "v": 78
    },
    {
      "midi": 43,
      "hit": false,
      "t": 105375,
      "d": 402.34375,
      "v": 78
    },
    {
      "midi": 69,
      "hit": false,
      "t": 105574.21875,
      "d": 312.5,
      "v": 66
    },
    {
      "midi": 72,
      "hit": false,
      "t": 105582.03125,
      "d": 292.96875,
      "v": 92
    },
    {
      "midi": 65,
      "hit": false,
      "t": 105593.75,
      "d": 285.15625,
      "v": 78
    },
    {
      "midi": 55,
      "hit": false,
      "t": 105750,
      "d": 382.8125,
      "v": 70
    },
    {
      "midi": 69,
      "hit": false,
      "t": 105945.3125,
      "d": 484.375,
      "v": 92
    },
    {
      "midi": 74,
      "hit": false,
      "t": 105945.3125,
      "d": 488.28125,
      "v": 100
    },
    {
      "midi": 65,
      "hit": false,
      "t": 105949.21875,
      "d": 484.375,
      "v": 84
    },
    {
      "midi": 43,
      "hit": false,
      "t": 106125,
      "d": 300.78125,
      "v": 80
    },
    {
      "midi": 36,
      "hit": false,
      "t": 106500,
      "d": 761.71875,
      "v": 84
    },
    {
      "midi": 72,
      "hit": false,
      "t": 106507.8125,
      "d": 1023.4375,
      "v": 110
    },
    {
      "midi": 64,
      "hit": false,
      "t": 106511.71875,
      "d": 835.9375,
      "v": 110
    },
    {
      "midi": 67,
      "hit": false,
      "t": 106511.71875,
      "d": 937.5,
      "v": 110
    },
    {
      "midi": 48,
      "hit": false,
      "t": 107250,
      "d": 468.75,
      "v": 92
    },
    {
      "midi": 64,
      "hit": false,
      "t": 107437.5,
      "d": 363.28125,
      "v": 84
    },
    {
      "midi": 67,
      "hit": false,
      "t": 107625,
      "d": 183.59375,
      "v": 96
    },
    {
      "midi": 36,
      "hit": false,
      "t": 107625,
      "d": 347.65625,
      "v": 74
    },
    {
      "midi": 74,
      "hit": false,
      "t": 107824.21875,
      "d": 617.1875,
      "v": 100
    },
    {
      "midi": 64,
      "hit": false,
      "t": 107824.21875,
      "d": 652.34375,
      "v": 92
    },
    {
      "midi": 68,
      "hit": false,
      "t": 107824.21875,
      "d": 652.34375,
      "v": 72
    },
    {
      "midi": 40,
      "hit": false,
      "t": 108000,
      "d": 308.59375,
      "v": 56
    },
    {
      "midi": 40,
      "hit": false,
      "t": 108375,
      "d": 402.34375,
      "v": 84
    },
    {
      "midi": 68,
      "hit": false,
      "t": 108550.78125,
      "d": 328.125,
      "v": 72
    },
    {
      "midi": 64,
      "hit": false,
      "t": 108550.78125,
      "d": 335.9375,
      "v": 92
    },
    {
      "midi": 71,
      "hit": false,
      "t": 108554.6875,
      "d": 320.3125,
      "v": 92
    },
    {
      "midi": 52,
      "hit": false,
      "t": 108750,
      "d": 714.84375,
      "v": 80
    },
    {
      "midi": 68,
      "hit": false,
      "t": 108925.78125,
      "d": 523.4375,
      "v": 78
    },
    {
      "midi": 74,
      "hit": false,
      "t": 108925.78125,
      "d": 523.4375,
      "v": 106
    },
    {
      "midi": 64,
      "hit": false,
      "t": 108929.6875,
      "d": 523.4375,
      "v": 88
    },
    {
      "midi": 40,
      "hit": false,
      "t": 109125,
      "d": 234.375,
      "v": 69
    },
    {
      "midi": 41,
      "hit": false,
      "t": 109500,
      "d": 777.34375,
      "v": 58
    },
    {
      "midi": 65,
      "hit": false,
      "t": 109503.90625,
      "d": 523.4375,
      "v": 92
    },
    {
      "midi": 69,
      "hit": false,
      "t": 109503.90625,
      "d": 539.0625,
      "v": 106
    },
    {
      "midi": 72,
      "hit": false,
      "t": 109507.8125,
      "d": 535.15625,
      "v": 107
    },
    {
      "midi": 72,
      "hit": false,
      "t": 110070.3125,
      "d": 312.5,
      "v": 74
    },
    {
      "midi": 69,
      "hit": false,
      "t": 110070.3125,
      "d": 324.21875,
      "v": 58
    },
    {
      "midi": 65,
      "hit": false,
      "t": 110074.21875,
      "d": 316.40625,
      "v": 68
    },
    {
      "midi": 53,
      "hit": false,
      "t": 110250,
      "d": 710.9375,
      "v": 92
    },
    {
      "midi": 69,
      "hit": false,
      "t": 110441.40625,
      "d": 519.53125,
      "v": 78
    },
    {
      "midi": 65,
      "hit": false,
      "t": 110445.3125,
      "d": 507.8125,
      "v": 74
    },
    {
      "midi": 74,
      "hit": false,
      "t": 110445.3125,
      "d": 515.625,
      "v": 106
    },
    {
      "midi": 71,
      "hit": false,
      "t": 111000,
      "d": 484.375,
      "v": 91
    },
    {
      "midi": 67,
      "hit": false,
      "t": 111000,
      "d": 496.09375,
      "v": 85
    },
    {
      "midi": 74,
      "hit": false,
      "t": 111000,
      "d": 496.09375,
      "v": 87
    },
    {
      "midi": 43,
      "hit": false,
      "t": 111000,
      "d": 800.78125,
      "v": 80
    },
    {
      "midi": 74,
      "hit": false,
      "t": 111562.5,
      "d": 136.71875,
      "v": 91
    },
    {
      "midi": 71,
      "hit": false,
      "t": 111562.5,
      "d": 152.34375,
      "v": 88
    },
    {
      "midi": 67,
      "hit": false,
      "t": 111562.5,
      "d": 308.59375,
      "v": 84
    },
    {
      "midi": 71,
      "hit": false,
      "t": 111750,
      "d": 93.75,
      "v": 64
    },
    {
      "midi": 79,
      "hit": false,
      "t": 111750,
      "d": 484.375,
      "v": 91
    },
    {
      "midi": 74,
      "hit": false,
      "t": 111750,
      "d": 496.09375,
      "v": 87
    },
    {
      "midi": 55,
      "hit": false,
      "t": 111750,
      "d": 738.28125,
      "v": 96
    },
    {
      "midi": 67,
      "hit": false,
      "t": 111937.5,
      "d": 257.8125,
      "v": 88
    },
    {
      "midi": 71,
      "hit": false,
      "t": 111937.5,
      "d": 312.5,
      "v": 88
    },
    {
      "midi": 67,
      "hit": false,
      "t": 112312.5,
      "d": 277.34375,
      "v": 72
    },
    {
      "midi": 74,
      "hit": false,
      "t": 112312.5,
      "d": 285.15625,
      "v": 85
    },
    {
      "midi": 71,
      "hit": false,
      "t": 112312.5,
      "d": 304.6875,
      "v": 87
    },
    {
      "midi": 77,
      "hit": false,
      "t": 112687.5,
      "d": 253.90625,
      "v": 85
    },
    {
      "midi": 67,
      "hit": false,
      "t": 112687.5,
      "d": 269.53125,
      "v": 84
    },
    {
      "midi": 71,
      "hit": false,
      "t": 112687.5,
      "d": 292.96875,
      "v": 88
    },
    {
      "midi": 43,
      "hit": false,
      "t": 112687.5,
      "d": 816.40625,
      "v": 80
    },
    {
      "midi": 67,
      "hit": false,
      "t": 113062.5,
      "d": 281.25,
      "v": 65
    },
    {
      "midi": 71,
      "hit": false,
      "t": 113062.5,
      "d": 292.96875,
      "v": 84
    },
    {
      "midi": 76,
      "hit": false,
      "t": 113062.5,
      "d": 300.78125,
      "v": 85
    },
    {
      "midi": 67,
      "hit": false,
      "t": 113425.78125,
      "d": 507.8125,
      "v": 87
    },
    {
      "midi": 55,
      "hit": false,
      "t": 113437.5,
      "d": 246.09375,
      "v": 70
    },
    {
      "midi": 74,
      "hit": false,
      "t": 113437.5,
      "d": 472.65625,
      "v": 93
    },
    {
      "midi": 71,
      "hit": false,
      "t": 113437.5,
      "d": 496.09375,
      "v": 97
    },
    {
      "midi": 36,
      "hit": false,
      "t": 114000,
      "d": 761.71875,
      "v": 84
    },
    {
      "midi": 72,
      "hit": false,
      "t": 114007.8125,
      "d": 1023.4375,
      "v": 110
    },
    {
      "midi": 64,
      "hit": false,
      "t": 114011.71875,
      "d": 835.9375,
      "v": 110
    },
    {
      "midi": 67,
      "hit": false,
      "t": 114011.71875,
      "d": 937.5,
      "v": 110
    },
    {
      "midi": 48,
      "hit": false,
      "t": 114750,
      "d": 468.75,
      "v": 92
    },
    {
      "midi": 64,
      "hit": false,
      "t": 114937.5,
      "d": 363.28125,
      "v": 84
    },
    {
      "midi": 67,
      "hit": false,
      "t": 115125,
      "d": 183.59375,
      "v": 96
    },
    {
      "midi": 36,
      "hit": false,
      "t": 115125,
      "d": 347.65625,
      "v": 74
    },
    {
      "midi": 74,
      "hit": false,
      "t": 115324.21875,
      "d": 617.1875,
      "v": 100
    },
    {
      "midi": 64,
      "hit": false,
      "t": 115324.21875,
      "d": 652.34375,
      "v": 92
    },
    {
      "midi": 68,
      "hit": false,
      "t": 115324.21875,
      "d": 652.34375,
      "v": 72
    },
    {
      "midi": 40,
      "hit": false,
      "t": 115500,
      "d": 308.59375,
      "v": 56
    },
    {
      "midi": 40,
      "hit": false,
      "t": 115875,
      "d": 402.34375,
      "v": 84
    },
    {
      "midi": 68,
      "hit": false,
      "t": 116050.78125,
      "d": 328.125,
      "v": 72
    },
    {
      "midi": 64,
      "hit": false,
      "t": 116050.78125,
      "d": 335.9375,
      "v": 92
    },
    {
      "midi": 71,
      "hit": false,
      "t": 116054.6875,
      "d": 320.3125,
      "v": 92
    },
    {
      "midi": 52,
      "hit": false,
      "t": 116250,
      "d": 714.84375,
      "v": 80
    },
    {
      "midi": 68,
      "hit": false,
      "t": 116425.78125,
      "d": 523.4375,
      "v": 78
    },
    {
      "midi": 74,
      "hit": false,
      "t": 116425.78125,
      "d": 523.4375,
      "v": 106
    },
    {
      "midi": 64,
      "hit": false,
      "t": 116429.6875,
      "d": 523.4375,
      "v": 88
    },
    {
      "midi": 40,
      "hit": false,
      "t": 116625,
      "d": 234.375,
      "v": 69
    },
    {
      "midi": 41,
      "hit": false,
      "t": 117000,
      "d": 777.34375,
      "v": 58
    },
    {
      "midi": 65,
      "hit": false,
      "t": 117003.90625,
      "d": 523.4375,
      "v": 92
    },
    {
      "midi": 69,
      "hit": false,
      "t": 117003.90625,
      "d": 539.0625,
      "v": 106
    },
    {
      "midi": 72,
      "hit": false,
      "t": 117007.8125,
      "d": 535.15625,
      "v": 107
    },
    {
      "midi": 72,
      "hit": false,
      "t": 117570.3125,
      "d": 312.5,
      "v": 74
    },
    {
      "midi": 69,
      "hit": false,
      "t": 117570.3125,
      "d": 324.21875,
      "v": 58
    },
    {
      "midi": 65,
      "hit": false,
      "t": 117574.21875,
      "d": 316.40625,
      "v": 68
    },
    {
      "midi": 53,
      "hit": false,
      "t": 117750,
      "d": 710.9375,
      "v": 92
    },
    {
      "midi": 69,
      "hit": false,
      "t": 117941.40625,
      "d": 304.6875,
      "v": 78
    },
    {
      "midi": 65,
      "hit": false,
      "t": 117945.3125,
      "d": 292.96875,
      "v": 74
    },
    {
      "midi": 74,
      "hit": false,
      "t": 117945.3125,
      "d": 300.78125,
      "v": 106
    },
    {
      "midi": 69,
      "hit": false,
      "t": 118320.3125,
      "d": 312.5,
      "v": 84
    },
    {
      "midi": 76,
      "hit": false,
      "t": 118328.125,
      "d": 273.4375,
      "v": 110
    },
    {
      "midi": 65,
      "hit": false,
      "t": 118328.125,
      "d": 316.40625,
      "v": 66
    },
    {
      "midi": 43,
      "hit": false,
      "t": 118500,
      "d": 214.84375,
      "v": 60
    },
    {
      "midi": 65,
      "hit": false,
      "t": 118699.21875,
      "d": 308.59375,
      "v": 68
    },
    {
      "midi": 69,
      "hit": false,
      "t": 118699.21875,
      "d": 320.3125,
      "v": 78
    },
    {
      "midi": 74,
      "hit": false,
      "t": 118703.125,
      "d": 265.625,
      "v": 78
    },
    {
      "midi": 43,
      "hit": false,
      "t": 118875,
      "d": 402.34375,
      "v": 78
    },
    {
      "midi": 69,
      "hit": false,
      "t": 119074.21875,
      "d": 312.5,
      "v": 66
    },
    {
      "midi": 72,
      "hit": false,
      "t": 119082.03125,
      "d": 292.96875,
      "v": 92
    },
    {
      "midi": 65,
      "hit": false,
      "t": 119093.75,
      "d": 285.15625,
      "v": 78
    },
    {
      "midi": 55,
      "hit": false,
      "t": 119250,
      "d": 382.8125,
      "v": 70
    },
    {
      "midi": 69,
      "hit": false,
      "t": 119445.3125,
      "d": 484.375,
      "v": 92
    },
    {
      "midi": 74,
      "hit": false,
      "t": 119445.3125,
      "d": 488.28125,
      "v": 100
    },
    {
      "midi": 65,
      "hit": false,
      "t": 119449.21875,
      "d": 484.375,
      "v": 84
    },
    {
      "midi": 43,
      "hit": false,
      "t": 119625,
      "d": 300.78125,
      "v": 80
    },
    {
      "midi": 36,
      "hit": false,
      "t": 120000,
      "d": 761.71875,
      "v": 84
    },
    {
      "midi": 72,
      "hit": false,
      "t": 120007.8125,
      "d": 1023.4375,
      "v": 110
    },
    {
      "midi": 64,
      "hit": false,
      "t": 120011.71875,
      "d": 835.9375,
      "v": 110
    },
    {
      "midi": 67,
      "hit": false,
      "t": 120011.71875,
      "d": 937.5,
      "v": 110
    },
    {
      "midi": 48,
      "hit": false,
      "t": 120750,
      "d": 468.75,
      "v": 92
    },
    {
      "midi": 64,
      "hit": false,
      "t": 120937.5,
      "d": 363.28125,
      "v": 84
    },
    {
      "midi": 67,
      "hit": false,
      "t": 121125,
      "d": 183.59375,
      "v": 96
    },
    {
      "midi": 36,
      "hit": false,
      "t": 121125,
      "d": 347.65625,
      "v": 74
    },
    {
      "midi": 74,
      "hit": false,
      "t": 121324.21875,
      "d": 617.1875,
      "v": 100
    },
    {
      "midi": 64,
      "hit": false,
      "t": 121324.21875,
      "d": 652.34375,
      "v": 92
    },
    {
      "midi": 68,
      "hit": false,
      "t": 121324.21875,
      "d": 652.34375,
      "v": 72
    },
    {
      "midi": 40,
      "hit": false,
      "t": 121500,
      "d": 308.59375,
      "v": 56
    },
    {
      "midi": 40,
      "hit": false,
      "t": 121875,
      "d": 402.34375,
      "v": 84
    },
    {
      "midi": 68,
      "hit": false,
      "t": 122050.78125,
      "d": 328.125,
      "v": 72
    },
    {
      "midi": 64,
      "hit": false,
      "t": 122050.78125,
      "d": 335.9375,
      "v": 92
    },
    {
      "midi": 71,
      "hit": false,
      "t": 122054.6875,
      "d": 320.3125,
      "v": 92
    },
    {
      "midi": 52,
      "hit": false,
      "t": 122250,
      "d": 714.84375,
      "v": 80
    },
    {
      "midi": 68,
      "hit": false,
      "t": 122425.78125,
      "d": 523.4375,
      "v": 78
    },
    {
      "midi": 74,
      "hit": false,
      "t": 122425.78125,
      "d": 523.4375,
      "v": 106
    },
    {
      "midi": 64,
      "hit": false,
      "t": 122429.6875,
      "d": 523.4375,
      "v": 88
    },
    {
      "midi": 40,
      "hit": false,
      "t": 122625,
      "d": 234.375,
      "v": 69
    },
    {
      "midi": 41,
      "hit": false,
      "t": 123000,
      "d": 777.34375,
      "v": 58
    },
    {
      "midi": 65,
      "hit": false,
      "t": 123003.90625,
      "d": 523.4375,
      "v": 92
    },
    {
      "midi": 69,
      "hit": false,
      "t": 123003.90625,
      "d": 539.0625,
      "v": 106
    },
    {
      "midi": 72,
      "hit": false,
      "t": 123007.8125,
      "d": 535.15625,
      "v": 107
    },
    {
      "midi": 72,
      "hit": false,
      "t": 123570.3125,
      "d": 312.5,
      "v": 74
    },
    {
      "midi": 69,
      "hit": false,
      "t": 123570.3125,
      "d": 324.21875,
      "v": 58
    },
    {
      "midi": 65,
      "hit": false,
      "t": 123574.21875,
      "d": 316.40625,
      "v": 68
    },
    {
      "midi": 53,
      "hit": false,
      "t": 123750,
      "d": 710.9375,
      "v": 92
    },
    {
      "midi": 69,
      "hit": false,
      "t": 123941.40625,
      "d": 304.6875,
      "v": 78
    },
    {
      "midi": 65,
      "hit": false,
      "t": 123945.3125,
      "d": 292.96875,
      "v": 74
    },
    {
      "midi": 74,
      "hit": false,
      "t": 123945.3125,
      "d": 300.78125,
      "v": 106
    },
    {
      "midi": 69,
      "hit": false,
      "t": 124320.3125,
      "d": 312.5,
      "v": 84
    },
    {
      "midi": 76,
      "hit": false,
      "t": 124328.125,
      "d": 273.4375,
      "v": 110
    },
    {
      "midi": 65,
      "hit": false,
      "t": 124328.125,
      "d": 316.40625,
      "v": 66
    },
    {
      "midi": 43,
      "hit": false,
      "t": 124500,
      "d": 214.84375,
      "v": 60
    },
    {
      "midi": 65,
      "hit": false,
      "t": 124699.21875,
      "d": 308.59375,
      "v": 68
    },
    {
      "midi": 69,
      "hit": false,
      "t": 124699.21875,
      "d": 320.3125,
      "v": 78
    },
    {
      "midi": 74,
      "hit": false,
      "t": 124703.125,
      "d": 265.625,
      "v": 78
    },
    {
      "midi": 43,
      "hit": false,
      "t": 124875,
      "d": 402.34375,
      "v": 78
    },
    {
      "midi": 69,
      "hit": false,
      "t": 125074.21875,
      "d": 312.5,
      "v": 66
    },
    {
      "midi": 72,
      "hit": false,
      "t": 125082.03125,
      "d": 292.96875,
      "v": 92
    },
    {
      "midi": 65,
      "hit": false,
      "t": 125093.75,
      "d": 285.15625,
      "v": 78
    },
    {
      "midi": 55,
      "hit": false,
      "t": 125250,
      "d": 382.8125,
      "v": 70
    },
    {
      "midi": 69,
      "hit": false,
      "t": 125445.3125,
      "d": 484.375,
      "v": 92
    },
    {
      "midi": 74,
      "hit": false,
      "t": 125445.3125,
      "d": 488.28125,
      "v": 100
    },
    {
      "midi": 65,
      "hit": false,
      "t": 125449.21875,
      "d": 484.375,
      "v": 84
    },
    {
      "midi": 43,
      "hit": false,
      "t": 125625,
      "d": 300.78125,
      "v": 80
    },
    {
      "midi": 36,
      "hit": false,
      "t": 126000,
      "d": 761.71875,
      "v": 84
    },
    {
      "midi": 72,
      "hit": false,
      "t": 126007.8125,
      "d": 1023.4375,
      "v": 110
    },
    {
      "midi": 64,
      "hit": false,
      "t": 126011.71875,
      "d": 835.9375,
      "v": 110
    },
    {
      "midi": 67,
      "hit": false,
      "t": 126011.71875,
      "d": 937.5,
      "v": 110
    },
    {
      "midi": 48,
      "hit": false,
      "t": 126750,
      "d": 468.75,
      "v": 92
    },
    {
      "midi": 64,
      "hit": false,
      "t": 126937.5,
      "d": 363.28125,
      "v": 84
    },
    {
      "midi": 67,
      "hit": false,
      "t": 127125,
      "d": 183.59375,
      "v": 96
    },
    {
      "midi": 36,
      "hit": false,
      "t": 127125,
      "d": 347.65625,
      "v": 74
    },
    {
      "midi": 74,
      "hit": false,
      "t": 127324.21875,
      "d": 617.1875,
      "v": 100
    },
    {
      "midi": 64,
      "hit": false,
      "t": 127324.21875,
      "d": 652.34375,
      "v": 92
    },
    {
      "midi": 68,
      "hit": false,
      "t": 127324.21875,
      "d": 652.34375,
      "v": 72
    },
    {
      "midi": 40,
      "hit": false,
      "t": 127500,
      "d": 308.59375,
      "v": 56
    },
    {
      "midi": 40,
      "hit": false,
      "t": 127875,
      "d": 402.34375,
      "v": 84
    },
    {
      "midi": 68,
      "hit": false,
      "t": 128050.78125,
      "d": 328.125,
      "v": 72
    },
    {
      "midi": 64,
      "hit": false,
      "t": 128050.78125,
      "d": 335.9375,
      "v": 92
    },
    {
      "midi": 71,
      "hit": false,
      "t": 128054.6875,
      "d": 320.3125,
      "v": 92
    },
    {
      "midi": 52,
      "hit": false,
      "t": 128250,
      "d": 714.84375,
      "v": 80
    },
    {
      "midi": 68,
      "hit": false,
      "t": 128425.78125,
      "d": 523.4375,
      "v": 78
    },
    {
      "midi": 74,
      "hit": false,
      "t": 128425.78125,
      "d": 523.4375,
      "v": 106
    },
    {
      "midi": 64,
      "hit": false,
      "t": 128429.6875,
      "d": 523.4375,
      "v": 88
    },
    {
      "midi": 40,
      "hit": false,
      "t": 128625,
      "d": 234.375,
      "v": 69
    },
    {
      "midi": 41,
      "hit": false,
      "t": 129000,
      "d": 777.34375,
      "v": 58
    },
    {
      "midi": 65,
      "hit": false,
      "t": 129003.90625,
      "d": 523.4375,
      "v": 92
    },
    {
      "midi": 69,
      "hit": false,
      "t": 129003.90625,
      "d": 539.0625,
      "v": 106
    },
    {
      "midi": 72,
      "hit": false,
      "t": 129007.8125,
      "d": 535.15625,
      "v": 107
    },
    {
      "midi": 72,
      "hit": false,
      "t": 129570.3125,
      "d": 312.5,
      "v": 74
    },
    {
      "midi": 69,
      "hit": false,
      "t": 129570.3125,
      "d": 324.21875,
      "v": 58
    },
    {
      "midi": 65,
      "hit": false,
      "t": 129574.21875,
      "d": 316.40625,
      "v": 68
    },
    {
      "midi": 53,
      "hit": false,
      "t": 129750,
      "d": 710.9375,
      "v": 92
    },
    {
      "midi": 69,
      "hit": false,
      "t": 129941.40625,
      "d": 304.6875,
      "v": 78
    },
    {
      "midi": 65,
      "hit": false,
      "t": 129945.3125,
      "d": 292.96875,
      "v": 74
    },
    {
      "midi": 74,
      "hit": false,
      "t": 129945.3125,
      "d": 300.78125,
      "v": 106
    },
    {
      "midi": 69,
      "hit": false,
      "t": 130320.3125,
      "d": 312.5,
      "v": 84
    },
    {
      "midi": 76,
      "hit": false,
      "t": 130328.125,
      "d": 273.4375,
      "v": 110
    },
    {
      "midi": 65,
      "hit": false,
      "t": 130328.125,
      "d": 316.40625,
      "v": 66
    },
    {
      "midi": 43,
      "hit": false,
      "t": 130500,
      "d": 214.84375,
      "v": 60
    },
    {
      "midi": 65,
      "hit": false,
      "t": 130699.21875,
      "d": 308.59375,
      "v": 68
    },
    {
      "midi": 69,
      "hit": false,
      "t": 130699.21875,
      "d": 320.3125,
      "v": 78
    },
    {
      "midi": 74,
      "hit": false,
      "t": 130703.125,
      "d": 265.625,
      "v": 78
    },
    {
      "midi": 43,
      "hit": false,
      "t": 130875,
      "d": 402.34375,
      "v": 78
    },
    {
      "midi": 69,
      "hit": false,
      "t": 131074.21875,
      "d": 312.5,
      "v": 66
    },
    {
      "midi": 72,
      "hit": false,
      "t": 131082.03125,
      "d": 292.96875,
      "v": 92
    },
    {
      "midi": 65,
      "hit": false,
      "t": 131093.75,
      "d": 285.15625,
      "v": 78
    },
    {
      "midi": 55,
      "hit": false,
      "t": 131250,
      "d": 382.8125,
      "v": 70
    },
    {
      "midi": 69,
      "hit": false,
      "t": 131445.3125,
      "d": 484.375,
      "v": 92
    },
    {
      "midi": 74,
      "hit": false,
      "t": 131445.3125,
      "d": 488.28125,
      "v": 100
    },
    {
      "midi": 65,
      "hit": false,
      "t": 131449.21875,
      "d": 484.375,
      "v": 84
    },
    {
      "midi": 43,
      "hit": false,
      "t": 131625,
      "d": 300.78125,
      "v": 80
    },
    {
      "midi": 36,
      "hit": false,
      "t": 132000,
      "d": 761.71875,
      "v": 84
    },
    {
      "midi": 72,
      "hit": false,
      "t": 132007.8125,
      "d": 1023.4375,
      "v": 110
    },
    {
      "midi": 64,
      "hit": false,
      "t": 132011.71875,
      "d": 835.9375,
      "v": 110
    },
    {
      "midi": 67,
      "hit": false,
      "t": 132011.71875,
      "d": 937.5,
      "v": 110
    },
    {
      "midi": 48,
      "hit": false,
      "t": 132750,
      "d": 468.75,
      "v": 92
    },
    {
      "midi": 64,
      "hit": false,
      "t": 132937.5,
      "d": 363.28125,
      "v": 84
    },
    {
      "midi": 67,
      "hit": false,
      "t": 133125,
      "d": 183.59375,
      "v": 96
    },
    {
      "midi": 36,
      "hit": false,
      "t": 133125,
      "d": 347.65625,
      "v": 74
    },
    {
      "midi": 74,
      "hit": false,
      "t": 133324.21875,
      "d": 617.1875,
      "v": 100
    },
    {
      "midi": 64,
      "hit": false,
      "t": 133324.21875,
      "d": 652.34375,
      "v": 92
    },
    {
      "midi": 68,
      "hit": false,
      "t": 133324.21875,
      "d": 652.34375,
      "v": 72
    },
    {
      "midi": 40,
      "hit": false,
      "t": 133500,
      "d": 308.59375,
      "v": 56
    },
    {
      "midi": 40,
      "hit": false,
      "t": 133875,
      "d": 402.34375,
      "v": 84
    },
    {
      "midi": 68,
      "hit": false,
      "t": 134050.78125,
      "d": 328.125,
      "v": 72
    },
    {
      "midi": 64,
      "hit": false,
      "t": 134050.78125,
      "d": 335.9375,
      "v": 92
    },
    {
      "midi": 71,
      "hit": false,
      "t": 134054.6875,
      "d": 320.3125,
      "v": 92
    },
    {
      "midi": 52,
      "hit": false,
      "t": 134250,
      "d": 714.84375,
      "v": 80
    },
    {
      "midi": 68,
      "hit": false,
      "t": 134425.78125,
      "d": 523.4375,
      "v": 78
    },
    {
      "midi": 74,
      "hit": false,
      "t": 134425.78125,
      "d": 523.4375,
      "v": 106
    },
    {
      "midi": 64,
      "hit": false,
      "t": 134429.6875,
      "d": 523.4375,
      "v": 88
    },
    {
      "midi": 40,
      "hit": false,
      "t": 134625,
      "d": 234.375,
      "v": 69
    },
    {
      "midi": 41,
      "hit": false,
      "t": 135000,
      "d": 777.34375,
      "v": 58
    },
    {
      "midi": 65,
      "hit": false,
      "t": 135003.90625,
      "d": 523.4375,
      "v": 92
    },
    {
      "midi": 69,
      "hit": false,
      "t": 135003.90625,
      "d": 539.0625,
      "v": 106
    },
    {
      "midi": 72,
      "hit": false,
      "t": 135007.8125,
      "d": 535.15625,
      "v": 107
    },
    {
      "midi": 72,
      "hit": false,
      "t": 135570.3125,
      "d": 312.5,
      "v": 74
    },
    {
      "midi": 69,
      "hit": false,
      "t": 135570.3125,
      "d": 324.21875,
      "v": 58
    },
    {
      "midi": 65,
      "hit": false,
      "t": 135574.21875,
      "d": 316.40625,
      "v": 68
    },
    {
      "midi": 53,
      "hit": false,
      "t": 135750,
      "d": 710.9375,
      "v": 92
    },
    {
      "midi": 69,
      "hit": false,
      "t": 135941.40625,
      "d": 304.6875,
      "v": 78
    },
    {
      "midi": 65,
      "hit": false,
      "t": 135945.3125,
      "d": 292.96875,
      "v": 74
    },
    {
      "midi": 74,
      "hit": false,
      "t": 135945.3125,
      "d": 300.78125,
      "v": 106
    },
    {
      "midi": 69,
      "hit": false,
      "t": 136320.3125,
      "d": 312.5,
      "v": 84
    },
    {
      "midi": 76,
      "hit": false,
      "t": 136328.125,
      "d": 273.4375,
      "v": 110
    },
    {
      "midi": 65,
      "hit": false,
      "t": 136328.125,
      "d": 316.40625,
      "v": 66
    },
    {
      "midi": 43,
      "hit": false,
      "t": 136500,
      "d": 214.84375,
      "v": 60
    },
    {
      "midi": 65,
      "hit": false,
      "t": 136699.21875,
      "d": 308.59375,
      "v": 68
    },
    {
      "midi": 69,
      "hit": false,
      "t": 136699.21875,
      "d": 320.3125,
      "v": 78
    },
    {
      "midi": 74,
      "hit": false,
      "t": 136703.125,
      "d": 265.625,
      "v": 78
    },
    {
      "midi": 43,
      "hit": false,
      "t": 136875,
      "d": 402.34375,
      "v": 78
    },
    {
      "midi": 69,
      "hit": false,
      "t": 137074.21875,
      "d": 312.5,
      "v": 66
    },
    {
      "midi": 72,
      "hit": false,
      "t": 137082.03125,
      "d": 292.96875,
      "v": 92
    },
    {
      "midi": 65,
      "hit": false,
      "t": 137093.75,
      "d": 285.15625,
      "v": 78
    },
    {
      "midi": 55,
      "hit": false,
      "t": 137250,
      "d": 382.8125,
      "v": 70
    },
    {
      "midi": 69,
      "hit": false,
      "t": 137445.3125,
      "d": 484.375,
      "v": 92
    },
    {
      "midi": 74,
      "hit": false,
      "t": 137445.3125,
      "d": 488.28125,
      "v": 100
    },
    {
      "midi": 65,
      "hit": false,
      "t": 137449.21875,
      "d": 484.375,
      "v": 84
    },
    {
      "midi": 43,
      "hit": false,
      "t": 137625,
      "d": 300.78125,
      "v": 80
    },
    {
      "midi": 36,
      "hit": false,
      "t": 138000,
      "d": 761.71875,
      "v": 84
    },
    {
      "midi": 72,
      "hit": false,
      "t": 138007.8125,
      "d": 1023.4375,
      "v": 110
    },
    {
      "midi": 64,
      "hit": false,
      "t": 138011.71875,
      "d": 835.9375,
      "v": 110
    },
    {
      "midi": 67,
      "hit": false,
      "t": 138011.71875,
      "d": 937.5,
      "v": 110
    },
    {
      "midi": 48,
      "hit": false,
      "t": 138750,
      "d": 468.75,
      "v": 92
    },
    {
      "midi": 64,
      "hit": false,
      "t": 138937.5,
      "d": 363.28125,
      "v": 84
    },
    {
      "midi": 67,
      "hit": false,
      "t": 139125,
      "d": 183.59375,
      "v": 96
    },
    {
      "midi": 36,
      "hit": false,
      "t": 139125,
      "d": 347.65625,
      "v": 74
    },
    {
      "midi": 74,
      "hit": false,
      "t": 139324.21875,
      "d": 617.1875,
      "v": 100
    },
    {
      "midi": 64,
      "hit": false,
      "t": 139324.21875,
      "d": 652.34375,
      "v": 92
    },
    {
      "midi": 68,
      "hit": false,
      "t": 139324.21875,
      "d": 652.34375,
      "v": 72
    },
    {
      "midi": 40,
      "hit": false,
      "t": 139500,
      "d": 308.59375,
      "v": 56
    },
    {
      "midi": 40,
      "hit": false,
      "t": 139875,
      "d": 402.34375,
      "v": 84
    },
    {
      "midi": 68,
      "hit": false,
      "t": 140050.78125,
      "d": 328.125,
      "v": 72
    },
    {
      "midi": 64,
      "hit": false,
      "t": 140050.78125,
      "d": 335.9375,
      "v": 92
    },
    {
      "midi": 71,
      "hit": false,
      "t": 140054.6875,
      "d": 320.3125,
      "v": 92
    },
    {
      "midi": 52,
      "hit": false,
      "t": 140250,
      "d": 714.84375,
      "v": 80
    },
    {
      "midi": 68,
      "hit": false,
      "t": 140425.78125,
      "d": 523.4375,
      "v": 78
    },
    {
      "midi": 74,
      "hit": false,
      "t": 140425.78125,
      "d": 523.4375,
      "v": 106
    },
    {
      "midi": 64,
      "hit": false,
      "t": 140429.6875,
      "d": 523.4375,
      "v": 88
    },
    {
      "midi": 40,
      "hit": false,
      "t": 140625,
      "d": 234.375,
      "v": 69
    },
    {
      "midi": 41,
      "hit": false,
      "t": 141000,
      "d": 777.34375,
      "v": 58
    },
    {
      "midi": 65,
      "hit": false,
      "t": 141003.90625,
      "d": 523.4375,
      "v": 92
    },
    {
      "midi": 69,
      "hit": false,
      "t": 141003.90625,
      "d": 539.0625,
      "v": 106
    },
    {
      "midi": 72,
      "hit": false,
      "t": 141007.8125,
      "d": 535.15625,
      "v": 107
    },
    {
      "midi": 72,
      "hit": false,
      "t": 141570.3125,
      "d": 312.5,
      "v": 74
    },
    {
      "midi": 69,
      "hit": false,
      "t": 141570.3125,
      "d": 324.21875,
      "v": 58
    },
    {
      "midi": 65,
      "hit": false,
      "t": 141574.21875,
      "d": 316.40625,
      "v": 68
    },
    {
      "midi": 53,
      "hit": false,
      "t": 141750,
      "d": 710.9375,
      "v": 92
    },
    {
      "midi": 69,
      "hit": false,
      "t": 141941.40625,
      "d": 304.6875,
      "v": 78
    },
    {
      "midi": 65,
      "hit": false,
      "t": 141945.3125,
      "d": 292.96875,
      "v": 74
    },
    {
      "midi": 74,
      "hit": false,
      "t": 141945.3125,
      "d": 300.78125,
      "v": 106
    },
    {
      "midi": 69,
      "hit": false,
      "t": 142320.3125,
      "d": 312.5,
      "v": 84
    },
    {
      "midi": 76,
      "hit": false,
      "t": 142328.125,
      "d": 273.4375,
      "v": 110
    },
    {
      "midi": 65,
      "hit": false,
      "t": 142328.125,
      "d": 316.40625,
      "v": 66
    },
    {
      "midi": 43,
      "hit": false,
      "t": 142500,
      "d": 214.84375,
      "v": 60
    },
    {
      "midi": 65,
      "hit": false,
      "t": 142699.21875,
      "d": 308.59375,
      "v": 68
    },
    {
      "midi": 69,
      "hit": false,
      "t": 142699.21875,
      "d": 320.3125,
      "v": 78
    },
    {
      "midi": 74,
      "hit": false,
      "t": 142703.125,
      "d": 265.625,
      "v": 78
    },
    {
      "midi": 43,
      "hit": false,
      "t": 142875,
      "d": 402.34375,
      "v": 78
    },
    {
      "midi": 69,
      "hit": false,
      "t": 143074.21875,
      "d": 312.5,
      "v": 66
    },
    {
      "midi": 72,
      "hit": false,
      "t": 143082.03125,
      "d": 292.96875,
      "v": 92
    },
    {
      "midi": 65,
      "hit": false,
      "t": 143093.75,
      "d": 285.15625,
      "v": 78
    },
    {
      "midi": 55,
      "hit": false,
      "t": 143250,
      "d": 382.8125,
      "v": 70
    },
    {
      "midi": 69,
      "hit": false,
      "t": 143445.3125,
      "d": 484.375,
      "v": 92
    },
    {
      "midi": 74,
      "hit": false,
      "t": 143445.3125,
      "d": 488.28125,
      "v": 100
    },
    {
      "midi": 65,
      "hit": false,
      "t": 143449.21875,
      "d": 484.375,
      "v": 84
    },
    {
      "midi": 43,
      "hit": false,
      "t": 143625,
      "d": 300.78125,
      "v": 80
    },
    {
      "midi": 36,
      "hit": false,
      "t": 144000,
      "d": 761.71875,
      "v": 84
    },
    {
      "midi": 72,
      "hit": false,
      "t": 144007.8125,
      "d": 1023.4375,
      "v": 110
    },
    {
      "midi": 64,
      "hit": false,
      "t": 144011.71875,
      "d": 835.9375,
      "v": 110
    },
    {
      "midi": 67,
      "hit": false,
      "t": 144011.71875,
      "d": 937.5,
      "v": 110
    },
    {
      "midi": 48,
      "hit": false,
      "t": 144750,
      "d": 468.75,
      "v": 92
    },
    {
      "midi": 64,
      "hit": false,
      "t": 144937.5,
      "d": 363.28125,
      "v": 84
    },
    {
      "midi": 67,
      "hit": false,
      "t": 145125,
      "d": 183.59375,
      "v": 96
    },
    {
      "midi": 36,
      "hit": false,
      "t": 145125,
      "d": 347.65625,
      "v": 74
    },
    {
      "midi": 74,
      "hit": false,
      "t": 145324.21875,
      "d": 617.1875,
      "v": 100
    },
    {
      "midi": 64,
      "hit": false,
      "t": 145324.21875,
      "d": 652.34375,
      "v": 92
    },
    {
      "midi": 68,
      "hit": false,
      "t": 145324.21875,
      "d": 652.34375,
      "v": 72
    },
    {
      "midi": 40,
      "hit": false,
      "t": 145500,
      "d": 308.59375,
      "v": 56
    },
    {
      "midi": 40,
      "hit": false,
      "t": 145875,
      "d": 402.34375,
      "v": 84
    },
    {
      "midi": 68,
      "hit": false,
      "t": 146050.78125,
      "d": 328.125,
      "v": 72
    },
    {
      "midi": 64,
      "hit": false,
      "t": 146050.78125,
      "d": 335.9375,
      "v": 92
    },
    {
      "midi": 71,
      "hit": false,
      "t": 146054.6875,
      "d": 320.3125,
      "v": 92
    },
    {
      "midi": 52,
      "hit": false,
      "t": 146250,
      "d": 714.84375,
      "v": 80
    },
    {
      "midi": 68,
      "hit": false,
      "t": 146425.78125,
      "d": 523.4375,
      "v": 78
    },
    {
      "midi": 74,
      "hit": false,
      "t": 146425.78125,
      "d": 523.4375,
      "v": 106
    },
    {
      "midi": 64,
      "hit": false,
      "t": 146429.6875,
      "d": 523.4375,
      "v": 88
    },
    {
      "midi": 40,
      "hit": false,
      "t": 146625,
      "d": 234.375,
      "v": 69
    },
    {
      "midi": 41,
      "hit": false,
      "t": 147000,
      "d": 777.34375,
      "v": 58
    },
    {
      "midi": 65,
      "hit": false,
      "t": 147003.90625,
      "d": 523.4375,
      "v": 92
    },
    {
      "midi": 69,
      "hit": false,
      "t": 147003.90625,
      "d": 539.0625,
      "v": 106
    },
    {
      "midi": 72,
      "hit": false,
      "t": 147007.8125,
      "d": 535.15625,
      "v": 107
    },
    {
      "midi": 72,
      "hit": false,
      "t": 147570.3125,
      "d": 312.5,
      "v": 74
    },
    {
      "midi": 69,
      "hit": false,
      "t": 147570.3125,
      "d": 324.21875,
      "v": 58
    },
    {
      "midi": 65,
      "hit": false,
      "t": 147574.21875,
      "d": 316.40625,
      "v": 68
    },
    {
      "midi": 53,
      "hit": false,
      "t": 147750,
      "d": 710.9375,
      "v": 92
    },
    {
      "midi": 69,
      "hit": false,
      "t": 147941.40625,
      "d": 304.6875,
      "v": 78
    },
    {
      "midi": 65,
      "hit": false,
      "t": 147945.3125,
      "d": 292.96875,
      "v": 74
    },
    {
      "midi": 74,
      "hit": false,
      "t": 147945.3125,
      "d": 300.78125,
      "v": 106
    },
    {
      "midi": 69,
      "hit": false,
      "t": 148320.3125,
      "d": 312.5,
      "v": 84
    },
    {
      "midi": 76,
      "hit": false,
      "t": 148328.125,
      "d": 273.4375,
      "v": 110
    },
    {
      "midi": 65,
      "hit": false,
      "t": 148328.125,
      "d": 316.40625,
      "v": 66
    },
    {
      "midi": 43,
      "hit": false,
      "t": 148500,
      "d": 214.84375,
      "v": 60
    },
    {
      "midi": 65,
      "hit": false,
      "t": 148699.21875,
      "d": 308.59375,
      "v": 68
    },
    {
      "midi": 69,
      "hit": false,
      "t": 148699.21875,
      "d": 320.3125,
      "v": 78
    },
    {
      "midi": 74,
      "hit": false,
      "t": 148703.125,
      "d": 265.625,
      "v": 78
    },
    {
      "midi": 43,
      "hit": false,
      "t": 148875,
      "d": 402.34375,
      "v": 78
    },
    {
      "midi": 69,
      "hit": false,
      "t": 149074.21875,
      "d": 312.5,
      "v": 66
    },
    {
      "midi": 72,
      "hit": false,
      "t": 149082.03125,
      "d": 292.96875,
      "v": 92
    },
    {
      "midi": 65,
      "hit": false,
      "t": 149093.75,
      "d": 285.15625,
      "v": 78
    },
    {
      "midi": 55,
      "hit": false,
      "t": 149250,
      "d": 382.8125,
      "v": 70
    },
    {
      "midi": 69,
      "hit": false,
      "t": 149445.3125,
      "d": 484.375,
      "v": 92
    },
    {
      "midi": 74,
      "hit": false,
      "t": 149445.3125,
      "d": 488.28125,
      "v": 100
    },
    {
      "midi": 65,
      "hit": false,
      "t": 149449.21875,
      "d": 484.375,
      "v": 84
    },
    {
      "midi": 43,
      "hit": false,
      "t": 149625,
      "d": 300.78125,
      "v": 80
    },
    {
      "midi": 36,
      "hit": false,
      "t": 150000,
      "d": 761.71875,
      "v": 84
    },
    {
      "midi": 72,
      "hit": false,
      "t": 150007.8125,
      "d": 1023.4375,
      "v": 110
    },
    {
      "midi": 64,
      "hit": false,
      "t": 150011.71875,
      "d": 835.9375,
      "v": 110
    },
    {
      "midi": 67,
      "hit": false,
      "t": 150011.71875,
      "d": 937.5,
      "v": 110
    },
    {
      "midi": 48,
      "hit": false,
      "t": 150750,
      "d": 468.75,
      "v": 92
    },
    {
      "midi": 64,
      "hit": false,
      "t": 150937.5,
      "d": 363.28125,
      "v": 84
    },
    {
      "midi": 67,
      "hit": false,
      "t": 151125,
      "d": 183.59375,
      "v": 96
    },
    {
      "midi": 36,
      "hit": false,
      "t": 151125,
      "d": 347.65625,
      "v": 74
    },
    {
      "midi": 74,
      "hit": false,
      "t": 151324.21875,
      "d": 617.1875,
      "v": 100
    },
    {
      "midi": 64,
      "hit": false,
      "t": 151324.21875,
      "d": 652.34375,
      "v": 92
    },
    {
      "midi": 68,
      "hit": false,
      "t": 151324.21875,
      "d": 652.34375,
      "v": 72
    },
    {
      "midi": 40,
      "hit": false,
      "t": 151500,
      "d": 308.59375,
      "v": 56
    },
    {
      "midi": 40,
      "hit": false,
      "t": 151875,
      "d": 402.34375,
      "v": 84
    },
    {
      "midi": 68,
      "hit": false,
      "t": 152050.78125,
      "d": 328.125,
      "v": 72
    },
    {
      "midi": 64,
      "hit": false,
      "t": 152050.78125,
      "d": 335.9375,
      "v": 92
    },
    {
      "midi": 71,
      "hit": false,
      "t": 152054.6875,
      "d": 320.3125,
      "v": 92
    },
    {
      "midi": 52,
      "hit": false,
      "t": 152250,
      "d": 714.84375,
      "v": 80
    },
    {
      "midi": 68,
      "hit": false,
      "t": 152425.78125,
      "d": 523.4375,
      "v": 78
    },
    {
      "midi": 74,
      "hit": false,
      "t": 152425.78125,
      "d": 523.4375,
      "v": 106
    },
    {
      "midi": 64,
      "hit": false,
      "t": 152429.6875,
      "d": 523.4375,
      "v": 88
    },
    {
      "midi": 40,
      "hit": false,
      "t": 152625,
      "d": 234.375,
      "v": 69
    },
    {
      "midi": 41,
      "hit": false,
      "t": 153000,
      "d": 777.34375,
      "v": 58
    },
    {
      "midi": 65,
      "hit": false,
      "t": 153003.90625,
      "d": 523.4375,
      "v": 92
    },
    {
      "midi": 69,
      "hit": false,
      "t": 153003.90625,
      "d": 539.0625,
      "v": 106
    },
    {
      "midi": 72,
      "hit": false,
      "t": 153007.8125,
      "d": 535.15625,
      "v": 107
    },
    {
      "midi": 72,
      "hit": false,
      "t": 153570.3125,
      "d": 312.5,
      "v": 74
    },
    {
      "midi": 69,
      "hit": false,
      "t": 153570.3125,
      "d": 324.21875,
      "v": 58
    },
    {
      "midi": 65,
      "hit": false,
      "t": 153574.21875,
      "d": 316.40625,
      "v": 68
    },
    {
      "midi": 53,
      "hit": false,
      "t": 153750,
      "d": 710.9375,
      "v": 92
    },
    {
      "midi": 69,
      "hit": false,
      "t": 153941.40625,
      "d": 304.6875,
      "v": 78
    },
    {
      "midi": 65,
      "hit": false,
      "t": 153945.3125,
      "d": 292.96875,
      "v": 74
    },
    {
      "midi": 74,
      "hit": false,
      "t": 153945.3125,
      "d": 300.78125,
      "v": 106
    },
    {
      "midi": 69,
      "hit": false,
      "t": 154320.3125,
      "d": 312.5,
      "v": 84
    },
    {
      "midi": 76,
      "hit": false,
      "t": 154328.125,
      "d": 273.4375,
      "v": 110
    },
    {
      "midi": 65,
      "hit": false,
      "t": 154328.125,
      "d": 316.40625,
      "v": 66
    },
    {
      "midi": 43,
      "hit": false,
      "t": 154500,
      "d": 214.84375,
      "v": 60
    },
    {
      "midi": 65,
      "hit": false,
      "t": 154699.21875,
      "d": 308.59375,
      "v": 68
    },
    {
      "midi": 69,
      "hit": false,
      "t": 154699.21875,
      "d": 320.3125,
      "v": 78
    },
    {
      "midi": 74,
      "hit": false,
      "t": 154703.125,
      "d": 265.625,
      "v": 78
    },
    {
      "midi": 43,
      "hit": false,
      "t": 154875,
      "d": 402.34375,
      "v": 78
    },
    {
      "midi": 69,
      "hit": false,
      "t": 155074.21875,
      "d": 312.5,
      "v": 66
    },
    {
      "midi": 72,
      "hit": false,
      "t": 155082.03125,
      "d": 292.96875,
      "v": 92
    },
    {
      "midi": 65,
      "hit": false,
      "t": 155093.75,
      "d": 285.15625,
      "v": 78
    },
    {
      "midi": 55,
      "hit": false,
      "t": 155250,
      "d": 382.8125,
      "v": 70
    },
    {
      "midi": 69,
      "hit": false,
      "t": 155445.3125,
      "d": 484.375,
      "v": 92
    },
    {
      "midi": 74,
      "hit": false,
      "t": 155445.3125,
      "d": 488.28125,
      "v": 100
    },
    {
      "midi": 65,
      "hit": false,
      "t": 155449.21875,
      "d": 484.375,
      "v": 84
    },
    {
      "midi": 43,
      "hit": false,
      "t": 155625,
      "d": 300.78125,
      "v": 80
    },
    {
      "midi": 36,
      "hit": false,
      "t": 156000,
      "d": 761.71875,
      "v": 84
    },
    {
      "midi": 72,
      "hit": false,
      "t": 156007.8125,
      "d": 1023.4375,
      "v": 110
    },
    {
      "midi": 64,
      "hit": false,
      "t": 156011.71875,
      "d": 835.9375,
      "v": 110
    },
    {
      "midi": 67,
      "hit": false,
      "t": 156011.71875,
      "d": 937.5,
      "v": 110
    },
    {
      "midi": 48,
      "hit": false,
      "t": 156750,
      "d": 468.75,
      "v": 92
    },
    {
      "midi": 64,
      "hit": false,
      "t": 156937.5,
      "d": 363.28125,
      "v": 84
    },
    {
      "midi": 67,
      "hit": false,
      "t": 157125,
      "d": 183.59375,
      "v": 96
    },
    {
      "midi": 36,
      "hit": false,
      "t": 157125,
      "d": 347.65625,
      "v": 74
    },
    {
      "midi": 74,
      "hit": false,
      "t": 157324.21875,
      "d": 617.1875,
      "v": 100
    },
    {
      "midi": 64,
      "hit": false,
      "t": 157324.21875,
      "d": 652.34375,
      "v": 92
    },
    {
      "midi": 68,
      "hit": false,
      "t": 157324.21875,
      "d": 652.34375,
      "v": 72
    },
    {
      "midi": 40,
      "hit": false,
      "t": 157500,
      "d": 308.59375,
      "v": 56
    },
    {
      "midi": 40,
      "hit": false,
      "t": 157875,
      "d": 402.34375,
      "v": 84
    },
    {
      "midi": 68,
      "hit": false,
      "t": 158050.78125,
      "d": 328.125,
      "v": 72
    },
    {
      "midi": 64,
      "hit": false,
      "t": 158050.78125,
      "d": 335.9375,
      "v": 92
    },
    {
      "midi": 71,
      "hit": false,
      "t": 158054.6875,
      "d": 320.3125,
      "v": 92
    },
    {
      "midi": 52,
      "hit": false,
      "t": 158250,
      "d": 714.84375,
      "v": 80
    },
    {
      "midi": 68,
      "hit": false,
      "t": 158425.78125,
      "d": 523.4375,
      "v": 78
    },
    {
      "midi": 74,
      "hit": false,
      "t": 158425.78125,
      "d": 523.4375,
      "v": 106
    },
    {
      "midi": 64,
      "hit": false,
      "t": 158429.6875,
      "d": 523.4375,
      "v": 88
    },
    {
      "midi": 40,
      "hit": false,
      "t": 158625,
      "d": 234.375,
      "v": 69
    },
    {
      "midi": 41,
      "hit": false,
      "t": 159000,
      "d": 777.34375,
      "v": 58
    },
    {
      "midi": 65,
      "hit": false,
      "t": 159003.90625,
      "d": 523.4375,
      "v": 92
    },
    {
      "midi": 69,
      "hit": false,
      "t": 159003.90625,
      "d": 539.0625,
      "v": 106
    },
    {
      "midi": 72,
      "hit": false,
      "t": 159007.8125,
      "d": 535.15625,
      "v": 107
    },
    {
      "midi": 72,
      "hit": false,
      "t": 159570.3125,
      "d": 312.5,
      "v": 74
    },
    {
      "midi": 69,
      "hit": false,
      "t": 159570.3125,
      "d": 324.21875,
      "v": 58
    },
    {
      "midi": 65,
      "hit": false,
      "t": 159574.21875,
      "d": 316.40625,
      "v": 68
    },
    {
      "midi": 53,
      "hit": false,
      "t": 159750,
      "d": 710.9375,
      "v": 92
    },
    {
      "midi": 69,
      "hit": false,
      "t": 159941.40625,
      "d": 304.6875,
      "v": 78
    },
    {
      "midi": 65,
      "hit": false,
      "t": 159945.3125,
      "d": 292.96875,
      "v": 74
    },
    {
      "midi": 74,
      "hit": false,
      "t": 159945.3125,
      "d": 300.78125,
      "v": 106
    },
    {
      "midi": 69,
      "hit": false,
      "t": 160320.3125,
      "d": 312.5,
      "v": 84
    },
    {
      "midi": 76,
      "hit": false,
      "t": 160328.125,
      "d": 273.4375,
      "v": 110
    },
    {
      "midi": 65,
      "hit": false,
      "t": 160328.125,
      "d": 316.40625,
      "v": 66
    },
    {
      "midi": 43,
      "hit": false,
      "t": 160500,
      "d": 214.84375,
      "v": 60
    },
    {
      "midi": 65,
      "hit": false,
      "t": 160699.21875,
      "d": 308.59375,
      "v": 68
    },
    {
      "midi": 69,
      "hit": false,
      "t": 160699.21875,
      "d": 320.3125,
      "v": 78
    },
    {
      "midi": 74,
      "hit": false,
      "t": 160703.125,
      "d": 265.625,
      "v": 78
    },
    {
      "midi": 43,
      "hit": false,
      "t": 160875,
      "d": 402.34375,
      "v": 78
    },
    {
      "midi": 69,
      "hit": false,
      "t": 161074.21875,
      "d": 312.5,
      "v": 66
    },
    {
      "midi": 72,
      "hit": false,
      "t": 161082.03125,
      "d": 292.96875,
      "v": 92
    },
    {
      "midi": 65,
      "hit": false,
      "t": 161093.75,
      "d": 285.15625,
      "v": 78
    },
    {
      "midi": 55,
      "hit": false,
      "t": 161250,
      "d": 382.8125,
      "v": 70
    },
    {
      "midi": 69,
      "hit": false,
      "t": 161445.3125,
      "d": 484.375,
      "v": 92
    },
    {
      "midi": 74,
      "hit": false,
      "t": 161445.3125,
      "d": 488.28125,
      "v": 100
    },
    {
      "midi": 65,
      "hit": false,
      "t": 161449.21875,
      "d": 484.375,
      "v": 84
    },
    {
      "midi": 43,
      "hit": false,
      "t": 161625,
      "d": 300.78125,
      "v": 80
    },
    {
      "midi": 36,
      "hit": false,
      "t": 162000,
      "d": 761.71875,
      "v": 84
    },
    {
      "midi": 72,
      "hit": false,
      "t": 162007.8125,
      "d": 1023.4375,
      "v": 110
    },
    {
      "midi": 64,
      "hit": false,
      "t": 162011.71875,
      "d": 835.9375,
      "v": 110
    },
    {
      "midi": 67,
      "hit": false,
      "t": 162011.71875,
      "d": 937.5,
      "v": 110
    },
    {
      "midi": 48,
      "hit": false,
      "t": 162750,
      "d": 468.75,
      "v": 92
    },
    {
      "midi": 64,
      "hit": false,
      "t": 162937.5,
      "d": 363.28125,
      "v": 84
    },
    {
      "midi": 67,
      "hit": false,
      "t": 163125,
      "d": 183.59375,
      "v": 96
    },
    {
      "midi": 36,
      "hit": false,
      "t": 163125,
      "d": 347.65625,
      "v": 74
    },
    {
      "midi": 74,
      "hit": false,
      "t": 163324.21875,
      "d": 617.1875,
      "v": 100
    },
    {
      "midi": 64,
      "hit": false,
      "t": 163324.21875,
      "d": 652.34375,
      "v": 92
    },
    {
      "midi": 68,
      "hit": false,
      "t": 163324.21875,
      "d": 652.34375,
      "v": 72
    },
    {
      "midi": 40,
      "hit": false,
      "t": 163500,
      "d": 308.59375,
      "v": 56
    },
    {
      "midi": 40,
      "hit": false,
      "t": 163875,
      "d": 402.34375,
      "v": 84
    },
    {
      "midi": 68,
      "hit": false,
      "t": 164050.78125,
      "d": 328.125,
      "v": 72
    },
    {
      "midi": 64,
      "hit": false,
      "t": 164050.78125,
      "d": 335.9375,
      "v": 92
    },
    {
      "midi": 71,
      "hit": false,
      "t": 164054.6875,
      "d": 320.3125,
      "v": 92
    },
    {
      "midi": 52,
      "hit": false,
      "t": 164250,
      "d": 714.84375,
      "v": 80
    },
    {
      "midi": 68,
      "hit": false,
      "t": 164425.78125,
      "d": 523.4375,
      "v": 78
    },
    {
      "midi": 74,
      "hit": false,
      "t": 164425.78125,
      "d": 523.4375,
      "v": 106
    },
    {
      "midi": 64,
      "hit": false,
      "t": 164429.6875,
      "d": 523.4375,
      "v": 88
    },
    {
      "midi": 40,
      "hit": false,
      "t": 164625,
      "d": 234.375,
      "v": 69
    },
    {
      "midi": 41,
      "hit": false,
      "t": 165000,
      "d": 777.34375,
      "v": 58
    },
    {
      "midi": 65,
      "hit": false,
      "t": 165003.90625,
      "d": 523.4375,
      "v": 92
    },
    {
      "midi": 69,
      "hit": false,
      "t": 165003.90625,
      "d": 539.0625,
      "v": 106
    },
    {
      "midi": 72,
      "hit": false,
      "t": 165007.8125,
      "d": 535.15625,
      "v": 107
    },
    {
      "midi": 72,
      "hit": false,
      "t": 165570.3125,
      "d": 312.5,
      "v": 74
    },
    {
      "midi": 69,
      "hit": false,
      "t": 165570.3125,
      "d": 324.21875,
      "v": 58
    },
    {
      "midi": 65,
      "hit": false,
      "t": 165574.21875,
      "d": 316.40625,
      "v": 68
    },
    {
      "midi": 53,
      "hit": false,
      "t": 165750,
      "d": 710.9375,
      "v": 92
    },
    {
      "midi": 69,
      "hit": false,
      "t": 165941.40625,
      "d": 304.6875,
      "v": 78
    },
    {
      "midi": 65,
      "hit": false,
      "t": 165945.3125,
      "d": 292.96875,
      "v": 74
    },
    {
      "midi": 74,
      "hit": false,
      "t": 165945.3125,
      "d": 300.78125,
      "v": 106
    },
    {
      "midi": 69,
      "hit": false,
      "t": 166320.3125,
      "d": 312.5,
      "v": 84
    },
    {
      "midi": 76,
      "hit": false,
      "t": 166328.125,
      "d": 273.4375,
      "v": 110
    },
    {
      "midi": 65,
      "hit": false,
      "t": 166328.125,
      "d": 316.40625,
      "v": 66
    },
    {
      "midi": 43,
      "hit": false,
      "t": 166500,
      "d": 214.84375,
      "v": 60
    },
    {
      "midi": 65,
      "hit": false,
      "t": 166699.21875,
      "d": 308.59375,
      "v": 68
    },
    {
      "midi": 69,
      "hit": false,
      "t": 166699.21875,
      "d": 320.3125,
      "v": 78
    },
    {
      "midi": 74,
      "hit": false,
      "t": 166703.125,
      "d": 265.625,
      "v": 78
    },
    {
      "midi": 43,
      "hit": false,
      "t": 166875,
      "d": 402.34375,
      "v": 78
    },
    {
      "midi": 69,
      "hit": false,
      "t": 167074.21875,
      "d": 312.5,
      "v": 66
    },
    {
      "midi": 72,
      "hit": false,
      "t": 167082.03125,
      "d": 292.96875,
      "v": 92
    },
    {
      "midi": 65,
      "hit": false,
      "t": 167093.75,
      "d": 285.15625,
      "v": 78
    },
    {
      "midi": 55,
      "hit": false,
      "t": 167250,
      "d": 382.8125,
      "v": 70
    },
    {
      "midi": 69,
      "hit": false,
      "t": 167445.3125,
      "d": 484.375,
      "v": 92
    },
    {
      "midi": 74,
      "hit": false,
      "t": 167445.3125,
      "d": 488.28125,
      "v": 100
    },
    {
      "midi": 65,
      "hit": false,
      "t": 167449.21875,
      "d": 484.375,
      "v": 84
    },
    {
      "midi": 43,
      "hit": false,
      "t": 167625,
      "d": 300.78125,
      "v": 80
    },
    {
      "midi": 36,
      "hit": false,
      "t": 168000,
      "d": 761.71875,
      "v": 84
    },
    {
      "midi": 72,
      "hit": false,
      "t": 168007.8125,
      "d": 1023.4375,
      "v": 110
    },
    {
      "midi": 64,
      "hit": false,
      "t": 168011.71875,
      "d": 835.9375,
      "v": 110
    },
    {
      "midi": 67,
      "hit": false,
      "t": 168011.71875,
      "d": 937.5,
      "v": 110
    },
    {
      "midi": 48,
      "hit": false,
      "t": 168750,
      "d": 468.75,
      "v": 92
    },
    {
      "midi": 64,
      "hit": false,
      "t": 168937.5,
      "d": 363.28125,
      "v": 84
    },
    {
      "midi": 67,
      "hit": false,
      "t": 169125,
      "d": 183.59375,
      "v": 96
    },
    {
      "midi": 36,
      "hit": false,
      "t": 169125,
      "d": 347.65625,
      "v": 74
    },
    {
      "midi": 74,
      "hit": false,
      "t": 169324.21875,
      "d": 617.1875,
      "v": 100
    },
    {
      "midi": 64,
      "hit": false,
      "t": 169324.21875,
      "d": 652.34375,
      "v": 92
    },
    {
      "midi": 68,
      "hit": false,
      "t": 169324.21875,
      "d": 652.34375,
      "v": 72
    },
    {
      "midi": 40,
      "hit": false,
      "t": 169500,
      "d": 308.59375,
      "v": 56
    },
    {
      "midi": 40,
      "hit": false,
      "t": 169875,
      "d": 402.34375,
      "v": 84
    },
    {
      "midi": 68,
      "hit": false,
      "t": 170050.78125,
      "d": 328.125,
      "v": 72
    },
    {
      "midi": 64,
      "hit": false,
      "t": 170050.78125,
      "d": 335.9375,
      "v": 92
    },
    {
      "midi": 71,
      "hit": false,
      "t": 170054.6875,
      "d": 320.3125,
      "v": 92
    },
    {
      "midi": 52,
      "hit": false,
      "t": 170250,
      "d": 714.84375,
      "v": 80
    },
    {
      "midi": 68,
      "hit": false,
      "t": 170425.78125,
      "d": 523.4375,
      "v": 78
    },
    {
      "midi": 74,
      "hit": false,
      "t": 170425.78125,
      "d": 523.4375,
      "v": 106
    },
    {
      "midi": 64,
      "hit": false,
      "t": 170429.6875,
      "d": 523.4375,
      "v": 88
    },
    {
      "midi": 40,
      "hit": false,
      "t": 170625,
      "d": 234.375,
      "v": 69
    },
    {
      "midi": 41,
      "hit": false,
      "t": 171000,
      "d": 777.34375,
      "v": 58
    },
    {
      "midi": 65,
      "hit": false,
      "t": 171003.90625,
      "d": 523.4375,
      "v": 92
    },
    {
      "midi": 69,
      "hit": false,
      "t": 171003.90625,
      "d": 539.0625,
      "v": 106
    },
    {
      "midi": 72,
      "hit": false,
      "t": 171007.8125,
      "d": 535.15625,
      "v": 107
    },
    {
      "midi": 72,
      "hit": false,
      "t": 171570.3125,
      "d": 312.5,
      "v": 74
    },
    {
      "midi": 69,
      "hit": false,
      "t": 171570.3125,
      "d": 324.21875,
      "v": 58
    },
    {
      "midi": 65,
      "hit": false,
      "t": 171574.21875,
      "d": 316.40625,
      "v": 68
    },
    {
      "midi": 53,
      "hit": false,
      "t": 171750,
      "d": 710.9375,
      "v": 92
    },
    {
      "midi": 69,
      "hit": false,
      "t": 171941.40625,
      "d": 304.6875,
      "v": 78
    },
    {
      "midi": 65,
      "hit": false,
      "t": 171945.3125,
      "d": 292.96875,
      "v": 74
    },
    {
      "midi": 74,
      "hit": false,
      "t": 171945.3125,
      "d": 300.78125,
      "v": 106
    },
    {
      "midi": 69,
      "hit": false,
      "t": 172320.3125,
      "d": 312.5,
      "v": 84
    },
    {
      "midi": 76,
      "hit": false,
      "t": 172328.125,
      "d": 273.4375,
      "v": 110
    },
    {
      "midi": 65,
      "hit": false,
      "t": 172328.125,
      "d": 316.40625,
      "v": 66
    },
    {
      "midi": 43,
      "hit": false,
      "t": 172500,
      "d": 214.84375,
      "v": 60
    },
    {
      "midi": 65,
      "hit": false,
      "t": 172699.21875,
      "d": 308.59375,
      "v": 68
    },
    {
      "midi": 69,
      "hit": false,
      "t": 172699.21875,
      "d": 320.3125,
      "v": 78
    },
    {
      "midi": 74,
      "hit": false,
      "t": 172703.125,
      "d": 265.625,
      "v": 78
    },
    {
      "midi": 43,
      "hit": false,
      "t": 172875,
      "d": 402.34375,
      "v": 78
    },
    {
      "midi": 69,
      "hit": false,
      "t": 173074.21875,
      "d": 312.5,
      "v": 66
    },
    {
      "midi": 72,
      "hit": false,
      "t": 173082.03125,
      "d": 292.96875,
      "v": 92
    },
    {
      "midi": 65,
      "hit": false,
      "t": 173093.75,
      "d": 285.15625,
      "v": 78
    },
    {
      "midi": 55,
      "hit": false,
      "t": 173250,
      "d": 382.8125,
      "v": 70
    },
    {
      "midi": 69,
      "hit": false,
      "t": 173445.3125,
      "d": 484.375,
      "v": 92
    },
    {
      "midi": 74,
      "hit": false,
      "t": 173445.3125,
      "d": 488.28125,
      "v": 100
    },
    {
      "midi": 65,
      "hit": false,
      "t": 173449.21875,
      "d": 484.375,
      "v": 84
    },
    {
      "midi": 43,
      "hit": false,
      "t": 173625,
      "d": 300.78125,
      "v": 80
    },
    {
      "midi": 36,
      "hit": false,
      "t": 174000,
      "d": 761.71875,
      "v": 84
    },
    {
      "midi": 72,
      "hit": false,
      "t": 174007.8125,
      "d": 1023.4375,
      "v": 110
    },
    {
      "midi": 64,
      "hit": false,
      "t": 174011.71875,
      "d": 835.9375,
      "v": 110
    },
    {
      "midi": 67,
      "hit": false,
      "t": 174011.71875,
      "d": 937.5,
      "v": 110
    },
    {
      "midi": 48,
      "hit": false,
      "t": 174750,
      "d": 468.75,
      "v": 92
    },
    {
      "midi": 64,
      "hit": false,
      "t": 174937.5,
      "d": 363.28125,
      "v": 84
    },
    {
      "midi": 67,
      "hit": false,
      "t": 175125,
      "d": 183.59375,
      "v": 96
    },
    {
      "midi": 36,
      "hit": false,
      "t": 175125,
      "d": 347.65625,
      "v": 74
    },
    {
      "midi": 74,
      "hit": false,
      "t": 175324.21875,
      "d": 617.1875,
      "v": 100
    },
    {
      "midi": 64,
      "hit": false,
      "t": 175324.21875,
      "d": 652.34375,
      "v": 92
    },
    {
      "midi": 68,
      "hit": false,
      "t": 175324.21875,
      "d": 652.34375,
      "v": 72
    },
    {
      "midi": 40,
      "hit": false,
      "t": 175500,
      "d": 308.59375,
      "v": 56
    },
    {
      "midi": 40,
      "hit": false,
      "t": 175875,
      "d": 402.34375,
      "v": 84
    },
    {
      "midi": 68,
      "hit": false,
      "t": 176050.78125,
      "d": 328.125,
      "v": 72
    },
    {
      "midi": 64,
      "hit": false,
      "t": 176050.78125,
      "d": 335.9375,
      "v": 92
    },
    {
      "midi": 71,
      "hit": false,
      "t": 176054.6875,
      "d": 320.3125,
      "v": 92
    },
    {
      "midi": 52,
      "hit": false,
      "t": 176250,
      "d": 714.84375,
      "v": 80
    },
    {
      "midi": 68,
      "hit": false,
      "t": 176425.78125,
      "d": 523.4375,
      "v": 78
    },
    {
      "midi": 74,
      "hit": false,
      "t": 176425.78125,
      "d": 523.4375,
      "v": 106
    },
    {
      "midi": 64,
      "hit": false,
      "t": 176429.6875,
      "d": 523.4375,
      "v": 88
    },
    {
      "midi": 40,
      "hit": false,
      "t": 176625,
      "d": 234.375,
      "v": 69
    },
    {
      "midi": 41,
      "hit": false,
      "t": 177000,
      "d": 777.34375,
      "v": 58
    },
    {
      "midi": 65,
      "hit": false,
      "t": 177003.90625,
      "d": 523.4375,
      "v": 92
    },
    {
      "midi": 69,
      "hit": false,
      "t": 177003.90625,
      "d": 539.0625,
      "v": 106
    },
    {
      "midi": 72,
      "hit": false,
      "t": 177007.8125,
      "d": 535.15625,
      "v": 107
    },
    {
      "midi": 72,
      "hit": false,
      "t": 177570.3125,
      "d": 312.5,
      "v": 74
    },
    {
      "midi": 69,
      "hit": false,
      "t": 177570.3125,
      "d": 324.21875,
      "v": 58
    },
    {
      "midi": 65,
      "hit": false,
      "t": 177574.21875,
      "d": 316.40625,
      "v": 68
    },
    {
      "midi": 53,
      "hit": false,
      "t": 177750,
      "d": 710.9375,
      "v": 92
    },
    {
      "midi": 69,
      "hit": false,
      "t": 177941.40625,
      "d": 304.6875,
      "v": 78
    },
    {
      "midi": 65,
      "hit": false,
      "t": 177945.3125,
      "d": 292.96875,
      "v": 74
    },
    {
      "midi": 74,
      "hit": false,
      "t": 177945.3125,
      "d": 300.78125,
      "v": 106
    },
    {
      "midi": 69,
      "hit": false,
      "t": 178320.3125,
      "d": 312.5,
      "v": 84
    },
    {
      "midi": 76,
      "hit": false,
      "t": 178328.125,
      "d": 273.4375,
      "v": 110
    },
    {
      "midi": 65,
      "hit": false,
      "t": 178328.125,
      "d": 316.40625,
      "v": 66
    },
    {
      "midi": 41,
      "hit": false,
      "t": 178500,
      "d": 214.84375,
      "v": 60
    },
    {
      "midi": 65,
      "hit": false,
      "t": 178699.21875,
      "d": 308.59375,
      "v": 68
    },
    {
      "midi": 69,
      "hit": false,
      "t": 178699.21875,
      "d": 320.3125,
      "v": 78
    },
    {
      "midi": 74,
      "hit": false,
      "t": 178703.125,
      "d": 265.625,
      "v": 78
    },
    {
      "midi": 41,
      "hit": false,
      "t": 178875,
      "d": 402.34375,
      "v": 78
    },
    {
      "midi": 69,
      "hit": false,
      "t": 179074.21875,
      "d": 312.5,
      "v": 66
    },
    {
      "midi": 72,
      "hit": false,
      "t": 179082.03125,
      "d": 292.96875,
      "v": 92
    },
    {
      "midi": 65,
      "hit": false,
      "t": 179093.75,
      "d": 285.15625,
      "v": 78
    },
    {
      "midi": 53,
      "hit": false,
      "t": 179250,
      "d": 382.8125,
      "v": 70
    },
    {
      "midi": 69,
      "hit": false,
      "t": 179445.3125,
      "d": 484.375,
      "v": 92
    },
    {
      "midi": 74,
      "hit": false,
      "t": 179445.3125,
      "d": 488.28125,
      "v": 100
    },
    {
      "midi": 65,
      "hit": false,
      "t": 179449.21875,
      "d": 484.375,
      "v": 84
    },
    {
      "midi": 41,
      "hit": false,
      "t": 179625,
      "d": 300.78125,
      "v": 80
    },
    {
      "midi": 65,
      "hit": false,
      "t": 179988.28125,
      "d": 343.75,
      "v": 78
    },
    {
      "midi": 68,
      "hit": false,
      "t": 179988.28125,
      "d": 343.75,
      "v": 72
    },
    {
      "midi": 75,
      "hit": false,
      "t": 179988.28125,
      "d": 363.28125,
      "v": 98
    },
    {
      "midi": 44,
      "hit": false,
      "t": 180000,
      "d": 261.71875,
      "v": 100
    },
    {
      "midi": 44,
      "hit": false,
      "t": 180375,
      "d": 343.75,
      "v": 77
    },
    {
      "midi": 75,
      "hit": false,
      "t": 180378.90625,
      "d": 156.25,
      "v": 56
    },
    {
      "midi": 68,
      "hit": false,
      "t": 180390.625,
      "d": 140.625,
      "v": 44
    },
    {
      "midi": 65,
      "hit": false,
      "t": 180390.625,
      "d": 148.4375,
      "v": 40
    },
    {
      "midi": 74,
      "hit": false,
      "t": 180570.3125,
      "d": 292.96875,
      "v": 116
    },
    {
      "midi": 68,
      "hit": false,
      "t": 180570.3125,
      "d": 304.6875,
      "v": 98
    },
    {
      "midi": 65,
      "hit": false,
      "t": 180574.21875,
      "d": 320.3125,
      "v": 96
    },
    {
      "midi": 44,
      "hit": false,
      "t": 180750,
      "d": 621.09375,
      "v": 74
    },
    {
      "midi": 68,
      "hit": false,
      "t": 180933.59375,
      "d": 140.625,
      "v": 52
    },
    {
      "midi": 65,
      "hit": false,
      "t": 180941.40625,
      "d": 152.34375,
      "v": 10
    },
    {
      "midi": 74,
      "hit": false,
      "t": 180949.21875,
      "d": 117.1875,
      "v": 92
    },
    {
      "midi": 68,
      "hit": false,
      "t": 181128.90625,
      "d": 515.625,
      "v": 72
    },
    {
      "midi": 65,
      "hit": false,
      "t": 181136.71875,
      "d": 437.5,
      "v": 68
    },
    {
      "midi": 72,
      "hit": false,
      "t": 181140.625,
      "d": 621.09375,
      "v": 92
    },
    {
      "midi": 44,
      "hit": false,
      "t": 181500,
      "d": 1492.1875,
      "v": 74
    },
    {
      "midi": 65,
      "hit": false,
      "t": 181691.40625,
      "d": 511.71875,
      "v": 62
    },
    {
      "midi": 68,
      "hit": false,
      "t": 181878.90625,
      "d": 667.96875,
      "v": 78
    },
    {
      "midi": 72,
      "hit": false,
      "t": 182078.125,
      "d": 253.90625,
      "v": 100
    },
    {
      "midi": 75,
      "hit": false,
      "t": 182250,
      "d": 312.5,
      "v": 108
    },
    {
      "midi": 65,
      "hit": false,
      "t": 182250,
      "d": 335.9375,
      "v": 86
    },
    {
      "midi": 65,
      "hit": false,
      "t": 182625,
      "d": 367.1875,
      "v": 110
    },
    {
      "midi": 68,
      "hit": false,
      "t": 182625,
      "d": 367.1875,
      "v": 103
    },
    {
      "midi": 74,
      "hit": false,
      "t": 182625,
      "d": 367.1875,
      "v": 114
    },
    {
      "midi": 72,
      "hit": false,
      "t": 183000,
      "d": 2703.125,
      "v": 111
    },
    {
      "midi": 36,
      "hit": false,
      "t": 183000,
      "d": 2820.3125,
      "v": 80
    },
    {
      "midi": 64,
      "hit": false,
      "t": 183000,
      "d": 2847.65625,
      "v": 108
    },
    {
      "midi": 67,
      "hit": false,
      "t": 183000,
      "d": 2921.875,
      "v": 114
    },
    {
      "midi": 38,
      "hit": false,
      "t": 186000,
      "d": 761.71875,
      "v": 84
    },
    {
      "midi": 74,
      "hit": false,
      "t": 186007.8125,
      "d": 1023.4375,
      "v": 110
    },
    {
      "midi": 66,
      "hit": false,
      "t": 186011.71875,
      "d": 835.9375,
      "v": 110
    },
    {
      "midi": 69,
      "hit": false,
      "t": 186011.71875,
      "d": 937.5,
      "v": 110
    },
    {
      "midi": 50,
      "hit": false,
      "t": 186750,
      "d": 468.75,
      "v": 92
    },
    {
      "midi": 66,
      "hit": false,
      "t": 186937.5,
      "d": 363.28125,
      "v": 84
    },
    {
      "midi": 69,
      "hit": false,
      "t": 187125,
      "d": 183.59375,
      "v": 96
    },
    {
      "midi": 38,
      "hit": false,
      "t": 187125,
      "d": 347.65625,
      "v": 74
    },
    {
      "midi": 76,
      "hit": false,
      "t": 187324.21875,
      "d": 617.1875,
      "v": 100
    },
    {
      "midi": 66,
      "hit": false,
      "t": 187324.21875,
      "d": 652.34375,
      "v": 92
    },
    {
      "midi": 70,
      "hit": false,
      "t": 187324.21875,
      "d": 652.34375,
      "v": 72
    },
    {
      "midi": 42,
      "hit": false,
      "t": 187500,
      "d": 308.59375,
      "v": 56
    },
    {
      "midi": 42,
      "hit": false,
      "t": 187875,
      "d": 402.34375,
      "v": 84
    },
    {
      "midi": 70,
      "hit": false,
      "t": 188050.78125,
      "d": 328.125,
      "v": 72
    },
    {
      "midi": 66,
      "hit": false,
      "t": 188050.78125,
      "d": 335.9375,
      "v": 92
    },
    {
      "midi": 73,
      "hit": false,
      "t": 188054.6875,
      "d": 320.3125,
      "v": 92
    },
    {
      "midi": 54,
      "hit": false,
      "t": 188250,
      "d": 714.84375,
      "v": 80
    },
    {
      "midi": 70,
      "hit": false,
      "t": 188425.78125,
      "d": 523.4375,
      "v": 78
    },
    {
      "midi": 76,
      "hit": false,
      "t": 188425.78125,
      "d": 523.4375,
      "v": 106
    },
    {
      "midi": 66,
      "hit": false,
      "t": 188429.6875,
      "d": 523.4375,
      "v": 88
    },
    {
      "midi": 42,
      "hit": false,
      "t": 188625,
      "d": 234.375,
      "v": 69
    },
    {
      "midi": 43,
      "hit": false,
      "t": 189000,
      "d": 777.34375,
      "v": 58
    },
    {
      "midi": 67,
      "hit": false,
      "t": 189003.90625,
      "d": 523.4375,
      "v": 92
    },
    {
      "midi": 71,
      "hit": false,
      "t": 189003.90625,
      "d": 539.0625,
      "v": 106
    },
    {
      "midi": 74,
      "hit": false,
      "t": 189007.8125,
      "d": 535.15625,
      "v": 107
    },
    {
      "midi": 74,
      "hit": false,
      "t": 189570.3125,
      "d": 312.5,
      "v": 74
    },
    {
      "midi": 71,
      "hit": false,
      "t": 189570.3125,
      "d": 324.21875,
      "v": 58
    },
    {
      "midi": 67,
      "hit": false,
      "t": 189574.21875,
      "d": 316.40625,
      "v": 68
    },
    {
      "midi": 55,
      "hit": false,
      "t": 189750,
      "d": 710.9375,
      "v": 92
    },
    {
      "midi": 71,
      "hit": false,
      "t": 189941.40625,
      "d": 304.6875,
      "v": 78
    },
    {
      "midi": 67,
      "hit": false,
      "t": 189945.3125,
      "d": 292.96875,
      "v": 74
    },
    {
      "midi": 76,
      "hit": false,
      "t": 189945.3125,
      "d": 300.78125,
      "v": 106
    },
    {
      "midi": 71,
      "hit": false,
      "t": 190320.3125,
      "d": 312.5,
      "v": 84
    },
    {
      "midi": 78,
      "hit": false,
      "t": 190328.125,
      "d": 273.4375,
      "v": 110
    },
    {
      "midi": 67,
      "hit": false,
      "t": 190328.125,
      "d": 316.40625,
      "v": 66
    },
    {
      "midi": 45,
      "hit": false,
      "t": 190500,
      "d": 214.84375,
      "v": 60
    },
    {
      "midi": 67,
      "hit": false,
      "t": 190699.21875,
      "d": 308.59375,
      "v": 68
    },
    {
      "midi": 71,
      "hit": false,
      "t": 190699.21875,
      "d": 320.3125,
      "v": 78
    },
    {
      "midi": 76,
      "hit": false,
      "t": 190703.125,
      "d": 265.625,
      "v": 78
    },
    {
      "midi": 45,
      "hit": false,
      "t": 190875,
      "d": 402.34375,
      "v": 78
    },
    {
      "midi": 71,
      "hit": false,
      "t": 191074.21875,
      "d": 312.5,
      "v": 66
    },
    {
      "midi": 74,
      "hit": false,
      "t": 191082.03125,
      "d": 292.96875,
      "v": 92
    },
    {
      "midi": 67,
      "hit": false,
      "t": 191093.75,
      "d": 285.15625,
      "v": 78
    },
    {
      "midi": 57,
      "hit": false,
      "t": 191250,
      "d": 382.8125,
      "v": 70
    },
    {
      "midi": 71,
      "hit": false,
      "t": 191445.3125,
      "d": 484.375,
      "v": 92
    },
    {
      "midi": 76,
      "hit": false,
      "t": 191445.3125,
      "d": 488.28125,
      "v": 100
    },
    {
      "midi": 67,
      "hit": false,
      "t": 191449.21875,
      "d": 484.375,
      "v": 84
    },
    {
      "midi": 45,
      "hit": false,
      "t": 191625,
      "d": 300.78125,
      "v": 80
    },
    {
      "midi": 38,
      "hit": false,
      "t": 192000,
      "d": 761.71875,
      "v": 84
    },
    {
      "midi": 74,
      "hit": false,
      "t": 192007.8125,
      "d": 1023.4375,
      "v": 110
    },
    {
      "midi": 66,
      "hit": false,
      "t": 192011.71875,
      "d": 835.9375,
      "v": 110
    },
    {
      "midi": 69,
      "hit": false,
      "t": 192011.71875,
      "d": 937.5,
      "v": 110
    },
    {
      "midi": 50,
      "hit": false,
      "t": 192750,
      "d": 468.75,
      "v": 92
    },
    {
      "midi": 66,
      "hit": false,
      "t": 192937.5,
      "d": 363.28125,
      "v": 84
    },
    {
      "midi": 69,
      "hit": false,
      "t": 193125,
      "d": 183.59375,
      "v": 96
    },
    {
      "midi": 38,
      "hit": false,
      "t": 193125,
      "d": 347.65625,
      "v": 74
    },
    {
      "midi": 76,
      "hit": false,
      "t": 193324.21875,
      "d": 617.1875,
      "v": 100
    },
    {
      "midi": 66,
      "hit": false,
      "t": 193324.21875,
      "d": 652.34375,
      "v": 92
    },
    {
      "midi": 70,
      "hit": false,
      "t": 193324.21875,
      "d": 652.34375,
      "v": 72
    },
    {
      "midi": 42,
      "hit": false,
      "t": 193500,
      "d": 308.59375,
      "v": 56
    },
    {
      "midi": 42,
      "hit": false,
      "t": 193875,
      "d": 402.34375,
      "v": 84
    },
    {
      "midi": 70,
      "hit": false,
      "t": 194050.78125,
      "d": 328.125,
      "v": 72
    },
    {
      "midi": 66,
      "hit": false,
      "t": 194050.78125,
      "d": 335.9375,
      "v": 92
    },
    {
      "midi": 73,
      "hit": false,
      "t": 194054.6875,
      "d": 320.3125,
      "v": 92
    },
    {
      "midi": 54,
      "hit": false,
      "t": 194250,
      "d": 714.84375,
      "v": 80
    },
    {
      "midi": 70,
      "hit": false,
      "t": 194425.78125,
      "d": 523.4375,
      "v": 78
    },
    {
      "midi": 76,
      "hit": false,
      "t": 194425.78125,
      "d": 523.4375,
      "v": 106
    },
    {
      "midi": 66,
      "hit": false,
      "t": 194429.6875,
      "d": 523.4375,
      "v": 88
    },
    {
      "midi": 42,
      "hit": false,
      "t": 194625,
      "d": 234.375,
      "v": 69
    },
    {
      "midi": 43,
      "hit": false,
      "t": 195000,
      "d": 777.34375,
      "v": 58
    },
    {
      "midi": 67,
      "hit": false,
      "t": 195003.90625,
      "d": 523.4375,
      "v": 92
    },
    {
      "midi": 71,
      "hit": false,
      "t": 195003.90625,
      "d": 539.0625,
      "v": 106
    },
    {
      "midi": 74,
      "hit": false,
      "t": 195007.8125,
      "d": 535.15625,
      "v": 107
    },
    {
      "midi": 74,
      "hit": false,
      "t": 195570.3125,
      "d": 312.5,
      "v": 74
    },
    {
      "midi": 71,
      "hit": false,
      "t": 195570.3125,
      "d": 324.21875,
      "v": 58
    },
    {
      "midi": 67,
      "hit": false,
      "t": 195574.21875,
      "d": 316.40625,
      "v": 68
    },
    {
      "midi": 55,
      "hit": false,
      "t": 195750,
      "d": 710.9375,
      "v": 92
    },
    {
      "midi": 71,
      "hit": false,
      "t": 195941.40625,
      "d": 304.6875,
      "v": 78
    },
    {
      "midi": 67,
      "hit": false,
      "t": 195945.3125,
      "d": 292.96875,
      "v": 74
    },
    {
      "midi": 76,
      "hit": false,
      "t": 195945.3125,
      "d": 300.78125,
      "v": 106
    },
    {
      "midi": 71,
      "hit": false,
      "t": 196320.3125,
      "d": 312.5,
      "v": 84
    },
    {
      "midi": 78,
      "hit": false,
      "t": 196328.125,
      "d": 273.4375,
      "v": 110
    },
    {
      "midi": 67,
      "hit": false,
      "t": 196328.125,
      "d": 316.40625,
      "v": 66
    },
    {
      "midi": 45,
      "hit": false,
      "t": 196500,
      "d": 214.84375,
      "v": 60
    },
    {
      "midi": 67,
      "hit": false,
      "t": 196699.21875,
      "d": 308.59375,
      "v": 68
    },
    {
      "midi": 71,
      "hit": false,
      "t": 196699.21875,
      "d": 320.3125,
      "v": 78
    },
    {
      "midi": 76,
      "hit": false,
      "t": 196703.125,
      "d": 265.625,
      "v": 78
    },
    {
      "midi": 45,
      "hit": false,
      "t": 196875,
      "d": 402.34375,
      "v": 78
    },
    {
      "midi": 71,
      "hit": false,
      "t": 197074.21875,
      "d": 312.5,
      "v": 66
    },
    {
      "midi": 74,
      "hit": false,
      "t": 197082.03125,
      "d": 292.96875,
      "v": 92
    },
    {
      "midi": 67,
      "hit": false,
      "t": 197093.75,
      "d": 285.15625,
      "v": 78
    },
    {
      "midi": 57,
      "hit": false,
      "t": 197250,
      "d": 382.8125,
      "v": 70
    },
    {
      "midi": 71,
      "hit": false,
      "t": 197445.3125,
      "d": 484.375,
      "v": 92
    },
    {
      "midi": 76,
      "hit": false,
      "t": 197445.3125,
      "d": 488.28125,
      "v": 100
    },
    {
      "midi": 67,
      "hit": false,
      "t": 197449.21875,
      "d": 484.375,
      "v": 84
    },
    {
      "midi": 45,
      "hit": false,
      "t": 197625,
      "d": 300.78125,
      "v": 80
    },
    {
      "midi": 38,
      "hit": false,
      "t": 198000,
      "d": 761.71875,
      "v": 84
    },
    {
      "midi": 74,
      "hit": false,
      "t": 198007.8125,
      "d": 1023.4375,
      "v": 110
    },
    {
      "midi": 66,
      "hit": false,
      "t": 198011.71875,
      "d": 835.9375,
      "v": 110
    },
    {
      "midi": 69,
      "hit": false,
      "t": 198011.71875,
      "d": 937.5,
      "v": 110
    },
    {
      "midi": 50,
      "hit": false,
      "t": 198750,
      "d": 468.75,
      "v": 92
    },
    {
      "midi": 66,
      "hit": false,
      "t": 198937.5,
      "d": 363.28125,
      "v": 84
    },
    {
      "midi": 69,
      "hit": false,
      "t": 199125,
      "d": 183.59375,
      "v": 96
    },
    {
      "midi": 38,
      "hit": false,
      "t": 199125,
      "d": 347.65625,
      "v": 74
    },
    {
      "midi": 76,
      "hit": false,
      "t": 199324.21875,
      "d": 617.1875,
      "v": 100
    },
    {
      "midi": 66,
      "hit": false,
      "t": 199324.21875,
      "d": 652.34375,
      "v": 92
    },
    {
      "midi": 70,
      "hit": false,
      "t": 199324.21875,
      "d": 652.34375,
      "v": 72
    },
    {
      "midi": 42,
      "hit": false,
      "t": 199500,
      "d": 308.59375,
      "v": 56
    },
    {
      "midi": 42,
      "hit": false,
      "t": 199875,
      "d": 402.34375,
      "v": 84
    },
    {
      "midi": 70,
      "hit": false,
      "t": 200050.78125,
      "d": 328.125,
      "v": 72
    },
    {
      "midi": 66,
      "hit": false,
      "t": 200050.78125,
      "d": 335.9375,
      "v": 92
    },
    {
      "midi": 73,
      "hit": false,
      "t": 200054.6875,
      "d": 320.3125,
      "v": 92
    },
    {
      "midi": 54,
      "hit": false,
      "t": 200250,
      "d": 714.84375,
      "v": 80
    },
    {
      "midi": 70,
      "hit": false,
      "t": 200425.78125,
      "d": 523.4375,
      "v": 78
    },
    {
      "midi": 76,
      "hit": false,
      "t": 200425.78125,
      "d": 523.4375,
      "v": 106
    },
    {
      "midi": 66,
      "hit": false,
      "t": 200429.6875,
      "d": 523.4375,
      "v": 88
    },
    {
      "midi": 42,
      "hit": false,
      "t": 200625,
      "d": 234.375,
      "v": 69
    },
    {
      "midi": 43,
      "hit": false,
      "t": 201000,
      "d": 777.34375,
      "v": 58
    },
    {
      "midi": 67,
      "hit": false,
      "t": 201003.90625,
      "d": 523.4375,
      "v": 92
    },
    {
      "midi": 71,
      "hit": false,
      "t": 201003.90625,
      "d": 539.0625,
      "v": 106
    },
    {
      "midi": 74,
      "hit": false,
      "t": 201007.8125,
      "d": 535.15625,
      "v": 107
    },
    {
      "midi": 74,
      "hit": false,
      "t": 201570.3125,
      "d": 312.5,
      "v": 74
    },
    {
      "midi": 71,
      "hit": false,
      "t": 201570.3125,
      "d": 324.21875,
      "v": 58
    },
    {
      "midi": 67,
      "hit": false,
      "t": 201574.21875,
      "d": 316.40625,
      "v": 68
    },
    {
      "midi": 55,
      "hit": false,
      "t": 201750,
      "d": 710.9375,
      "v": 92
    },
    {
      "midi": 71,
      "hit": false,
      "t": 201941.40625,
      "d": 304.6875,
      "v": 78
    },
    {
      "midi": 67,
      "hit": false,
      "t": 201945.3125,
      "d": 292.96875,
      "v": 74
    },
    {
      "midi": 76,
      "hit": false,
      "t": 201945.3125,
      "d": 300.78125,
      "v": 106
    },
    {
      "midi": 71,
      "hit": false,
      "t": 202320.3125,
      "d": 312.5,
      "v": 84
    },
    {
      "midi": 78,
      "hit": false,
      "t": 202328.125,
      "d": 273.4375,
      "v": 110
    },
    {
      "midi": 67,
      "hit": false,
      "t": 202328.125,
      "d": 316.40625,
      "v": 66
    },
    {
      "midi": 45,
      "hit": false,
      "t": 202500,
      "d": 214.84375,
      "v": 60
    },
    {
      "midi": 67,
      "hit": false,
      "t": 202699.21875,
      "d": 308.59375,
      "v": 68
    },
    {
      "midi": 71,
      "hit": false,
      "t": 202699.21875,
      "d": 320.3125,
      "v": 78
    },
    {
      "midi": 76,
      "hit": false,
      "t": 202703.125,
      "d": 265.625,
      "v": 78
    },
    {
      "midi": 45,
      "hit": false,
      "t": 202875,
      "d": 402.34375,
      "v": 78
    },
    {
      "midi": 71,
      "hit": false,
      "t": 203074.21875,
      "d": 312.5,
      "v": 66
    },
    {
      "midi": 74,
      "hit": false,
      "t": 203082.03125,
      "d": 292.96875,
      "v": 92
    },
    {
      "midi": 67,
      "hit": false,
      "t": 203093.75,
      "d": 285.15625,
      "v": 78
    },
    {
      "midi": 57,
      "hit": false,
      "t": 203250,
      "d": 382.8125,
      "v": 70
    },
    {
      "midi": 71,
      "hit": false,
      "t": 203445.3125,
      "d": 484.375,
      "v": 92
    },
    {
      "midi": 76,
      "hit": false,
      "t": 203445.3125,
      "d": 488.28125,
      "v": 100
    },
    {
      "midi": 67,
      "hit": false,
      "t": 203449.21875,
      "d": 484.375,
      "v": 84
    },
    {
      "midi": 45,
      "hit": false,
      "t": 203625,
      "d": 300.78125,
      "v": 80
    },
    {
      "midi": 38,
      "hit": false,
      "t": 204000,
      "d": 761.71875,
      "v": 84
    },
    {
      "midi": 74,
      "hit": false,
      "t": 204007.8125,
      "d": 1023.4375,
      "v": 110
    },
    {
      "midi": 66,
      "hit": false,
      "t": 204011.71875,
      "d": 835.9375,
      "v": 110
    },
    {
      "midi": 69,
      "hit": false,
      "t": 204011.71875,
      "d": 937.5,
      "v": 110
    },
    {
      "midi": 50,
      "hit": false,
      "t": 204750,
      "d": 468.75,
      "v": 92
    },
    {
      "midi": 66,
      "hit": false,
      "t": 204937.5,
      "d": 363.28125,
      "v": 84
    },
    {
      "midi": 69,
      "hit": false,
      "t": 205125,
      "d": 183.59375,
      "v": 96
    },
    {
      "midi": 38,
      "hit": false,
      "t": 205125,
      "d": 347.65625,
      "v": 74
    },
    {
      "midi": 76,
      "hit": false,
      "t": 205324.21875,
      "d": 617.1875,
      "v": 100
    },
    {
      "midi": 66,
      "hit": false,
      "t": 205324.21875,
      "d": 652.34375,
      "v": 92
    },
    {
      "midi": 70,
      "hit": false,
      "t": 205324.21875,
      "d": 652.34375,
      "v": 72
    },
    {
      "midi": 42,
      "hit": false,
      "t": 205500,
      "d": 308.59375,
      "v": 56
    },
    {
      "midi": 42,
      "hit": false,
      "t": 205875,
      "d": 402.34375,
      "v": 84
    },
    {
      "midi": 70,
      "hit": false,
      "t": 206050.78125,
      "d": 328.125,
      "v": 72
    },
    {
      "midi": 66,
      "hit": false,
      "t": 206050.78125,
      "d": 335.9375,
      "v": 92
    },
    {
      "midi": 73,
      "hit": false,
      "t": 206054.6875,
      "d": 320.3125,
      "v": 92
    },
    {
      "midi": 54,
      "hit": false,
      "t": 206250,
      "d": 714.84375,
      "v": 80
    },
    {
      "midi": 70,
      "hit": false,
      "t": 206425.78125,
      "d": 523.4375,
      "v": 78
    },
    {
      "midi": 76,
      "hit": false,
      "t": 206425.78125,
      "d": 523.4375,
      "v": 106
    },
    {
      "midi": 66,
      "hit": false,
      "t": 206429.6875,
      "d": 523.4375,
      "v": 88
    },
    {
      "midi": 42,
      "hit": false,
      "t": 206625,
      "d": 234.375,
      "v": 69
    },
    {
      "midi": 43,
      "hit": false,
      "t": 207000,
      "d": 777.34375,
      "v": 58
    },
    {
      "midi": 67,
      "hit": false,
      "t": 207003.90625,
      "d": 523.4375,
      "v": 92
    },
    {
      "midi": 71,
      "hit": false,
      "t": 207003.90625,
      "d": 539.0625,
      "v": 106
    },
    {
      "midi": 74,
      "hit": false,
      "t": 207007.8125,
      "d": 535.15625,
      "v": 107
    },
    {
      "midi": 74,
      "hit": false,
      "t": 207570.3125,
      "d": 312.5,
      "v": 74
    },
    {
      "midi": 71,
      "hit": false,
      "t": 207570.3125,
      "d": 324.21875,
      "v": 58
    },
    {
      "midi": 67,
      "hit": false,
      "t": 207574.21875,
      "d": 316.40625,
      "v": 68
    },
    {
      "midi": 55,
      "hit": false,
      "t": 207750,
      "d": 710.9375,
      "v": 92
    },
    {
      "midi": 71,
      "hit": false,
      "t": 207941.40625,
      "d": 304.6875,
      "v": 78
    },
    {
      "midi": 67,
      "hit": false,
      "t": 207945.3125,
      "d": 292.96875,
      "v": 74
    },
    {
      "midi": 76,
      "hit": false,
      "t": 207945.3125,
      "d": 300.78125,
      "v": 106
    },
    {
      "midi": 71,
      "hit": false,
      "t": 208320.3125,
      "d": 312.5,
      "v": 84
    },
    {
      "midi": 78,
      "hit": false,
      "t": 208328.125,
      "d": 273.4375,
      "v": 110
    },
    {
      "midi": 67,
      "hit": false,
      "t": 208328.125,
      "d": 316.40625,
      "v": 66
    },
    {
      "midi": 45,
      "hit": false,
      "t": 208500,
      "d": 214.84375,
      "v": 60
    },
    {
      "midi": 67,
      "hit": false,
      "t": 208699.21875,
      "d": 308.59375,
      "v": 68
    },
    {
      "midi": 71,
      "hit": false,
      "t": 208699.21875,
      "d": 320.3125,
      "v": 78
    },
    {
      "midi": 76,
      "hit": false,
      "t": 208703.125,
      "d": 265.625,
      "v": 78
    },
    {
      "midi": 45,
      "hit": false,
      "t": 208875,
      "d": 402.34375,
      "v": 78
    },
    {
      "midi": 71,
      "hit": false,
      "t": 209074.21875,
      "d": 312.5,
      "v": 66
    },
    {
      "midi": 74,
      "hit": false,
      "t": 209082.03125,
      "d": 292.96875,
      "v": 92
    },
    {
      "midi": 67,
      "hit": false,
      "t": 209093.75,
      "d": 285.15625,
      "v": 78
    },
    {
      "midi": 57,
      "hit": false,
      "t": 209250,
      "d": 382.8125,
      "v": 70
    },
    {
      "midi": 71,
      "hit": false,
      "t": 209445.3125,
      "d": 484.375,
      "v": 92
    },
    {
      "midi": 76,
      "hit": false,
      "t": 209445.3125,
      "d": 488.28125,
      "v": 100
    },
    {
      "midi": 67,
      "hit": false,
      "t": 209449.21875,
      "d": 484.375,
      "v": 84
    },
    {
      "midi": 45,
      "hit": false,
      "t": 209625,
      "d": 300.78125,
      "v": 80
    },
    {
      "midi": 38,
      "hit": false,
      "t": 210000,
      "d": 761.71875,
      "v": 84
    },
    {
      "midi": 74,
      "hit": false,
      "t": 210007.8125,
      "d": 1023.4375,
      "v": 110
    },
    {
      "midi": 66,
      "hit": false,
      "t": 210011.71875,
      "d": 835.9375,
      "v": 110
    },
    {
      "midi": 69,
      "hit": false,
      "t": 210011.71875,
      "d": 937.5,
      "v": 110
    },
    {
      "midi": 50,
      "hit": false,
      "t": 210750,
      "d": 468.75,
      "v": 92
    },
    {
      "midi": 66,
      "hit": false,
      "t": 210937.5,
      "d": 363.28125,
      "v": 84
    },
    {
      "midi": 69,
      "hit": false,
      "t": 211125,
      "d": 183.59375,
      "v": 96
    },
    {
      "midi": 38,
      "hit": false,
      "t": 211125,
      "d": 347.65625,
      "v": 74
    },
    {
      "midi": 76,
      "hit": false,
      "t": 211324.21875,
      "d": 617.1875,
      "v": 100
    },
    {
      "midi": 66,
      "hit": false,
      "t": 211324.21875,
      "d": 652.34375,
      "v": 92
    },
    {
      "midi": 70,
      "hit": false,
      "t": 211324.21875,
      "d": 652.34375,
      "v": 72
    },
    {
      "midi": 42,
      "hit": false,
      "t": 211500,
      "d": 308.59375,
      "v": 56
    },
    {
      "midi": 42,
      "hit": false,
      "t": 211875,
      "d": 402.34375,
      "v": 84
    },
    {
      "midi": 70,
      "hit": false,
      "t": 212050.78125,
      "d": 328.125,
      "v": 72
    },
    {
      "midi": 66,
      "hit": false,
      "t": 212050.78125,
      "d": 335.9375,
      "v": 92
    },
    {
      "midi": 73,
      "hit": false,
      "t": 212054.6875,
      "d": 320.3125,
      "v": 92
    },
    {
      "midi": 54,
      "hit": false,
      "t": 212250,
      "d": 714.84375,
      "v": 80
    },
    {
      "midi": 70,
      "hit": false,
      "t": 212425.78125,
      "d": 523.4375,
      "v": 78
    },
    {
      "midi": 76,
      "hit": false,
      "t": 212425.78125,
      "d": 523.4375,
      "v": 106
    },
    {
      "midi": 66,
      "hit": false,
      "t": 212429.6875,
      "d": 523.4375,
      "v": 88
    },
    {
      "midi": 42,
      "hit": false,
      "t": 212625,
      "d": 234.375,
      "v": 69
    },
    {
      "midi": 43,
      "hit": false,
      "t": 213000,
      "d": 777.34375,
      "v": 58
    },
    {
      "midi": 67,
      "hit": false,
      "t": 213003.90625,
      "d": 523.4375,
      "v": 92
    },
    {
      "midi": 71,
      "hit": false,
      "t": 213003.90625,
      "d": 539.0625,
      "v": 106
    },
    {
      "midi": 74,
      "hit": false,
      "t": 213007.8125,
      "d": 535.15625,
      "v": 107
    },
    {
      "midi": 74,
      "hit": false,
      "t": 213570.3125,
      "d": 312.5,
      "v": 74
    },
    {
      "midi": 71,
      "hit": false,
      "t": 213570.3125,
      "d": 324.21875,
      "v": 58
    },
    {
      "midi": 67,
      "hit": false,
      "t": 213574.21875,
      "d": 316.40625,
      "v": 68
    },
    {
      "midi": 55,
      "hit": false,
      "t": 213750,
      "d": 710.9375,
      "v": 92
    },
    {
      "midi": 71,
      "hit": false,
      "t": 213941.40625,
      "d": 304.6875,
      "v": 78
    },
    {
      "midi": 67,
      "hit": false,
      "t": 213945.3125,
      "d": 292.96875,
      "v": 74
    },
    {
      "midi": 76,
      "hit": false,
      "t": 213945.3125,
      "d": 300.78125,
      "v": 106
    },
    {
      "midi": 71,
      "hit": false,
      "t": 214320.3125,
      "d": 312.5,
      "v": 84
    },
    {
      "midi": 78,
      "hit": false,
      "t": 214328.125,
      "d": 273.4375,
      "v": 110
    },
    {
      "midi": 67,
      "hit": false,
      "t": 214328.125,
      "d": 316.40625,
      "v": 66
    },
    {
      "midi": 45,
      "hit": false,
      "t": 214500,
      "d": 214.84375,
      "v": 60
    },
    {
      "midi": 67,
      "hit": false,
      "t": 214699.21875,
      "d": 308.59375,
      "v": 68
    },
    {
      "midi": 71,
      "hit": false,
      "t": 214699.21875,
      "d": 320.3125,
      "v": 78
    },
    {
      "midi": 76,
      "hit": false,
      "t": 214703.125,
      "d": 265.625,
      "v": 78
    },
    {
      "midi": 45,
      "hit": false,
      "t": 214875,
      "d": 402.34375,
      "v": 78
    },
    {
      "midi": 71,
      "hit": false,
      "t": 215074.21875,
      "d": 312.5,
      "v": 66
    },
    {
      "midi": 74,
      "hit": false,
      "t": 215082.03125,
      "d": 292.96875,
      "v": 92
    },
    {
      "midi": 67,
      "hit": false,
      "t": 215093.75,
      "d": 285.15625,
      "v": 78
    },
    {
      "midi": 57,
      "hit": false,
      "t": 215250,
      "d": 382.8125,
      "v": 70
    },
    {
      "midi": 71,
      "hit": false,
      "t": 215445.3125,
      "d": 484.375,
      "v": 92
    },
    {
      "midi": 76,
      "hit": false,
      "t": 215445.3125,
      "d": 488.28125,
      "v": 100
    },
    {
      "midi": 67,
      "hit": false,
      "t": 215449.21875,
      "d": 484.375,
      "v": 84
    },
    {
      "midi": 45,
      "hit": false,
      "t": 215625,
      "d": 300.78125,
      "v": 80
    },
    {
      "midi": 38,
      "hit": false,
      "t": 216000,
      "d": 761.71875,
      "v": 84
    },
    {
      "midi": 74,
      "hit": false,
      "t": 216007.8125,
      "d": 1023.4375,
      "v": 110
    },
    {
      "midi": 66,
      "hit": false,
      "t": 216011.71875,
      "d": 835.9375,
      "v": 110
    },
    {
      "midi": 69,
      "hit": false,
      "t": 216011.71875,
      "d": 937.5,
      "v": 110
    },
    {
      "midi": 50,
      "hit": false,
      "t": 216750,
      "d": 468.75,
      "v": 92
    },
    {
      "midi": 66,
      "hit": false,
      "t": 216937.5,
      "d": 363.28125,
      "v": 84
    },
    {
      "midi": 69,
      "hit": false,
      "t": 217125,
      "d": 183.59375,
      "v": 96
    },
    {
      "midi": 38,
      "hit": false,
      "t": 217125,
      "d": 347.65625,
      "v": 74
    },
    {
      "midi": 76,
      "hit": false,
      "t": 217324.21875,
      "d": 617.1875,
      "v": 100
    },
    {
      "midi": 66,
      "hit": false,
      "t": 217324.21875,
      "d": 652.34375,
      "v": 92
    },
    {
      "midi": 70,
      "hit": false,
      "t": 217324.21875,
      "d": 652.34375,
      "v": 72
    },
    {
      "midi": 42,
      "hit": false,
      "t": 217500,
      "d": 308.59375,
      "v": 56
    },
    {
      "midi": 42,
      "hit": false,
      "t": 217875,
      "d": 402.34375,
      "v": 84
    },
    {
      "midi": 70,
      "hit": false,
      "t": 218050.78125,
      "d": 328.125,
      "v": 72
    },
    {
      "midi": 66,
      "hit": false,
      "t": 218050.78125,
      "d": 335.9375,
      "v": 92
    },
    {
      "midi": 73,
      "hit": false,
      "t": 218054.6875,
      "d": 320.3125,
      "v": 92
    },
    {
      "midi": 54,
      "hit": false,
      "t": 218250,
      "d": 714.84375,
      "v": 80
    },
    {
      "midi": 70,
      "hit": false,
      "t": 218425.78125,
      "d": 523.4375,
      "v": 78
    },
    {
      "midi": 76,
      "hit": false,
      "t": 218425.78125,
      "d": 523.4375,
      "v": 106
    },
    {
      "midi": 66,
      "hit": false,
      "t": 218429.6875,
      "d": 523.4375,
      "v": 88
    },
    {
      "midi": 42,
      "hit": false,
      "t": 218625,
      "d": 234.375,
      "v": 69
    },
    {
      "midi": 43,
      "hit": false,
      "t": 219000,
      "d": 777.34375,
      "v": 58
    },
    {
      "midi": 67,
      "hit": false,
      "t": 219003.90625,
      "d": 523.4375,
      "v": 92
    },
    {
      "midi": 71,
      "hit": false,
      "t": 219003.90625,
      "d": 539.0625,
      "v": 106
    },
    {
      "midi": 74,
      "hit": false,
      "t": 219007.8125,
      "d": 535.15625,
      "v": 107
    },
    {
      "midi": 74,
      "hit": false,
      "t": 219570.3125,
      "d": 312.5,
      "v": 74
    },
    {
      "midi": 71,
      "hit": false,
      "t": 219570.3125,
      "d": 324.21875,
      "v": 58
    },
    {
      "midi": 67,
      "hit": false,
      "t": 219574.21875,
      "d": 316.40625,
      "v": 68
    },
    {
      "midi": 55,
      "hit": false,
      "t": 219750,
      "d": 710.9375,
      "v": 92
    },
    {
      "midi": 71,
      "hit": false,
      "t": 219941.40625,
      "d": 304.6875,
      "v": 78
    },
    {
      "midi": 67,
      "hit": false,
      "t": 219945.3125,
      "d": 292.96875,
      "v": 74
    },
    {
      "midi": 76,
      "hit": false,
      "t": 219945.3125,
      "d": 300.78125,
      "v": 106
    },
    {
      "midi": 71,
      "hit": false,
      "t": 220320.3125,
      "d": 312.5,
      "v": 84
    },
    {
      "midi": 78,
      "hit": false,
      "t": 220328.125,
      "d": 273.4375,
      "v": 110
    },
    {
      "midi": 67,
      "hit": false,
      "t": 220328.125,
      "d": 316.40625,
      "v": 66
    },
    {
      "midi": 43,
      "hit": false,
      "t": 220500,
      "d": 214.84375,
      "v": 60
    },
    {
      "midi": 67,
      "hit": false,
      "t": 220699.21875,
      "d": 308.59375,
      "v": 68
    },
    {
      "midi": 71,
      "hit": false,
      "t": 220699.21875,
      "d": 320.3125,
      "v": 78
    },
    {
      "midi": 76,
      "hit": false,
      "t": 220703.125,
      "d": 265.625,
      "v": 78
    },
    {
      "midi": 43,
      "hit": false,
      "t": 220875,
      "d": 402.34375,
      "v": 78
    },
    {
      "midi": 71,
      "hit": false,
      "t": 221074.21875,
      "d": 312.5,
      "v": 66
    },
    {
      "midi": 74,
      "hit": false,
      "t": 221082.03125,
      "d": 292.96875,
      "v": 92
    },
    {
      "midi": 67,
      "hit": false,
      "t": 221093.75,
      "d": 285.15625,
      "v": 78
    },
    {
      "midi": 55,
      "hit": false,
      "t": 221250,
      "d": 382.8125,
      "v": 70
    },
    {
      "midi": 71,
      "hit": false,
      "t": 221445.3125,
      "d": 484.375,
      "v": 92
    },
    {
      "midi": 76,
      "hit": false,
      "t": 221445.3125,
      "d": 488.28125,
      "v": 100
    },
    {
      "midi": 67,
      "hit": false,
      "t": 221449.21875,
      "d": 484.375,
      "v": 84
    },
    {
      "midi": 43,
      "hit": false,
      "t": 221625,
      "d": 300.78125,
      "v": 80
    },
    {
      "midi": 67,
      "hit": false,
      "t": 221988.28125,
      "d": 343.75,
      "v": 78
    },
    {
      "midi": 70,
      "hit": false,
      "t": 221988.28125,
      "d": 343.75,
      "v": 72
    },
    {
      "midi": 77,
      "hit": false,
      "t": 221988.28125,
      "d": 363.28125,
      "v": 98
    },
    {
      "midi": 46,
      "hit": false,
      "t": 222000,
      "d": 261.71875,
      "v": 100
    },
    {
      "midi": 46,
      "hit": false,
      "t": 222375,
      "d": 343.75,
      "v": 77
    },
    {
      "midi": 77,
      "hit": false,
      "t": 222378.90625,
      "d": 156.25,
      "v": 56
    },
    {
      "midi": 70,
      "hit": false,
      "t": 222390.625,
      "d": 140.625,
      "v": 44
    },
    {
      "midi": 67,
      "hit": false,
      "t": 222390.625,
      "d": 148.4375,
      "v": 40
    },
    {
      "midi": 76,
      "hit": false,
      "t": 222570.3125,
      "d": 292.96875,
      "v": 116
    },
    {
      "midi": 70,
      "hit": false,
      "t": 222570.3125,
      "d": 304.6875,
      "v": 98
    },
    {
      "midi": 67,
      "hit": false,
      "t": 222574.21875,
      "d": 320.3125,
      "v": 96
    },
    {
      "midi": 46,
      "hit": false,
      "t": 222750,
      "d": 621.09375,
      "v": 74
    },
    {
      "midi": 70,
      "hit": false,
      "t": 222933.59375,
      "d": 140.625,
      "v": 52
    },
    {
      "midi": 67,
      "hit": false,
      "t": 222941.40625,
      "d": 152.34375,
      "v": 10
    },
    {
      "midi": 76,
      "hit": false,
      "t": 222949.21875,
      "d": 117.1875,
      "v": 92
    },
    {
      "midi": 70,
      "hit": false,
      "t": 223128.90625,
      "d": 515.625,
      "v": 72
    },
    {
      "midi": 67,
      "hit": false,
      "t": 223136.71875,
      "d": 437.5,
      "v": 68
    },
    {
      "midi": 74,
      "hit": false,
      "t": 223140.625,
      "d": 621.09375,
      "v": 92
    },
    {
      "midi": 46,
      "hit": false,
      "t": 223500,
      "d": 1492.1875,
      "v": 74
    },
    {
      "midi": 67,
      "hit": false,
      "t": 223691.40625,
      "d": 511.71875,
      "v": 62
    },
    {
      "midi": 70,
      "hit": false,
      "t": 223878.90625,
      "d": 667.96875,
      "v": 78
    },
    {
      "midi": 74,
      "hit": false,
      "t": 224078.125,
      "d": 253.90625,
      "v": 100
    },
    {
      "midi": 77,
      "hit": false,
      "t": 224250,
      "d": 312.5,
      "v": 108
    },
    {
      "midi": 67,
      "hit": false,
      "t": 224250,
      "d": 335.9375,
      "v": 86
    },
    {
      "midi": 67,
      "hit": false,
      "t": 224625,
      "d": 367.1875,
      "v": 110
    },
    {
      "midi": 70,
      "hit": false,
      "t": 224625,
      "d": 367.1875,
      "v": 103
    },
    {
      "midi": 76,
      "hit": false,
      "t": 224625,
      "d": 367.1875,
      "v": 114
    },
    {
      "midi": 74,
      "hit": false,
      "t": 225000,
      "d": 2703.125,
      "v": 111
    },
    {
      "midi": 38,
      "hit": false,
      "t": 225000,
      "d": 2820.3125,
      "v": 80
    },
    {
      "midi": 66,
      "hit": false,
      "t": 225000,
      "d": 2847.65625,
      "v": 108
    },
    {
      "midi": 69,
      "hit": false,
      "t": 225000,
      "d": 2921.875,
      "v": 114
    }
  ]
}