{
  "jsonPath": "Classical/American Modern Classical/Zez Confrey/dizzy-fingers.json",
  "path": "Classical\\American Modern Classical\\Zez Confrey\\Dizzy Fingers.mid",
  "name": "Dizzy Fingers",
  "difficulty": "Advanced",
  "bpm": 120,
  "notes": [
    {
      "midi": 45,
      "hit": false,
      "t": 0,
      "d": 150,
      "v": 107
    },
    {
      "midi": 61,
      "hit": false,
      "t": 162.5,
      "d": 37.5,
      "v": 72
    },
    {
      "midi": 66,
      "hit": false,
      "t": 162.5,
      "d": 37.5,
      "v": 74
    },
    {
      "midi": 57,
      "hit": false,
      "t": 162.5,
      "d": 54.16666666666666,
      "v": 86
    },
    {
      "midi": 52,
      "hit": false,
      "t": 162.5,
      "d": 66.66666666666666,
      "v": 69
    },
    {
      "midi": 40,
      "hit": false,
      "t": 362.5,
      "d": 183.33333333333337,
      "v": 67
    },
    {
      "midi": 56,
      "hit": false,
      "t": 562.5,
      "d": 50,
      "v": 66
    },
    {
      "midi": 62,
      "hit": false,
      "t": 562.5,
      "d": 50,
      "v": 66
    },
    {
      "midi": 66,
      "hit": false,
      "t": 575,
      "d": 37.5,
      "v": 62
    },
    {
      "midi": 52,
      "hit": false,
      "t": 575,
      "d": 45.83333333333337,
      "v": 60
    },
    {
      "midi": 45,
      "hit": false,
      "t": 783.3333333333334,
      "d": 191.66666666666663,
      "v": 68
    },
    {
      "midi": 57,
      "hit": false,
      "t": 975,
      "d": 50,
      "v": 68
    },
    {
      "midi": 61,
      "hit": false,
      "t": 975,
      "d": 50,
      "v": 62
    },
    {
      "midi": 66,
      "hit": false,
      "t": 975,
      "d": 50,
      "v": 66
    },
    {
      "midi": 52,
      "hit": false,
      "t": 975,
      "d": 58.33333333333326,
      "v": 56
    },
    {
      "midi": 40,
      "hit": false,
      "t": 1175,
      "d": 175,
      "v": 63
    },
    {
      "midi": 56,
      "hit": false,
      "t": 1358.3333333333333,
      "d": 50,
      "v": 66
    },
    {
      "midi": 62,
      "hit": false,
      "t": 1358.3333333333333,
      "d": 50,
      "v": 69
    },
    {
      "midi": 66,
      "hit": false,
      "t": 1366.6666666666665,
      "d": 41.66666666666674,
      "v": 58
    },
    {
      "midi": 52,
      "hit": false,
      "t": 1366.6666666666665,
      "d": 58.333333333333485,
      "v": 62
    },
    {
      "midi": 45,
      "hit": false,
      "t": 1558.3333333333333,
      "d": 183.33333333333326,
      "v": 66
    },
    {
      "midi": 57,
      "hit": false,
      "t": 1762.4999999999998,
      "d": 37.5,
      "v": 74
    },
    {
      "midi": 66,
      "hit": false,
      "t": 1762.4999999999998,
      "d": 37.5,
      "v": 65
    },
    {
      "midi": 61,
      "hit": false,
      "t": 1762.4999999999998,
      "d": 45.83333333333326,
      "v": 68
    },
    {
      "midi": 52,
      "hit": false,
      "t": 1762.4999999999998,
      "d": 58.33333333333326,
      "v": 50
    },
    {
      "midi": 40,
      "hit": false,
      "t": 1954.1666666666663,
      "d": 179.16666666666674,
      "v": 67
    },
    {
      "midi": 56,
      "hit": false,
      "t": 2145.833333333333,
      "d": 37.5,
      "v": 60
    },
    {
      "midi": 62,
      "hit": false,
      "t": 2145.833333333333,
      "d": 45.833333333333485,
      "v": 63
    },
    {
      "midi": 66,
      "hit": false,
      "t": 2145.833333333333,
      "d": 45.833333333333485,
      "v": 65
    },
    {
      "midi": 52,
      "hit": false,
      "t": 2162.4999999999995,
      "d": 50.000000000000455,
      "v": 54
    },
    {
      "midi": 45,
      "hit": false,
      "t": 2345.8333333333335,
      "d": 183.33333333333348,
      "v": 68
    },
    {
      "midi": 61,
      "hit": false,
      "t": 2537.5000000000005,
      "d": 37.5,
      "v": 68
    },
    {
      "midi": 57,
      "hit": false,
      "t": 2537.5000000000005,
      "d": 50,
      "v": 83
    },
    {
      "midi": 66,
      "hit": false,
      "t": 2537.5000000000005,
      "d": 50,
      "v": 68
    },
    {
      "midi": 52,
      "hit": false,
      "t": 2537.5000000000005,
      "d": 58.333333333333485,
      "v": 62
    },
    {
      "midi": 40,
      "hit": false,
      "t": 2737.5000000000005,
      "d": 183.33333333333348,
      "v": 77
    },
    {
      "midi": 56,
      "hit": false,
      "t": 2912.5000000000005,
      "d": 58.333333333333485,
      "v": 74
    },
    {
      "midi": 62,
      "hit": false,
      "t": 2912.5000000000005,
      "d": 75.00000000000045,
      "v": 80
    },
    {
      "midi": 66,
      "hit": false,
      "t": 2920.833333333334,
      "d": 58.333333333333485,
      "v": 77
    },
    {
      "midi": 52,
      "hit": false,
      "t": 2920.833333333334,
      "d": 66.66666666666697,
      "v": 77
    },
    {
      "midi": 45,
      "hit": false,
      "t": 3133.3333333333344,
      "d": 162.5,
      "v": 101
    },
    {
      "midi": 57,
      "hit": false,
      "t": 3304.166666666668,
      "d": 50,
      "v": 80
    },
    {
      "midi": 61,
      "hit": false,
      "t": 3304.166666666668,
      "d": 50,
      "v": 66
    },
    {
      "midi": 52,
      "hit": false,
      "t": 3304.166666666668,
      "d": 58.333333333333485,
      "v": 69
    },
    {
      "midi": 66,
      "hit": false,
      "t": 3304.166666666668,
      "d": 58.333333333333485,
      "v": 77
    },
    {
      "midi": 40,
      "hit": false,
      "t": 3525.0000000000014,
      "d": 162.5,
      "v": 71
    },
    {
      "midi": 62,
      "hit": false,
      "t": 3708.333333333335,
      "d": 45.833333333333485,
      "v": 66
    },
    {
      "midi": 56,
      "hit": false,
      "t": 3708.333333333335,
      "d": 54.16666666666697,
      "v": 58
    },
    {
      "midi": 66,
      "hit": false,
      "t": 3716.6666666666683,
      "d": 37.5,
      "v": 63
    },
    {
      "midi": 52,
      "hit": false,
      "t": 3716.6666666666683,
      "d": 58.333333333333485,
      "v": 54
    },
    {
      "midi": 45,
      "hit": false,
      "t": 3916.6666666666683,
      "d": 183.33333333333348,
      "v": 65
    },
    {
      "midi": 52,
      "hit": false,
      "t": 4100.000000000002,
      "d": 58.33333333333303,
      "v": 54
    },
    {
      "midi": 61,
      "hit": false,
      "t": 4100.000000000002,
      "d": 58.33333333333303,
      "v": 40
    },
    {
      "midi": 57,
      "hit": false,
      "t": 4100.000000000002,
      "d": 66.66666666666606,
      "v": 66
    },
    {
      "midi": 66,
      "hit": false,
      "t": 4100.000000000002,
      "d": 66.66666666666606,
      "v": 60
    },
    {
      "midi": 40,
      "hit": false,
      "t": 4329.166666666668,
      "d": 162.5,
      "v": 66
    },
    {
      "midi": 62,
      "hit": false,
      "t": 4504.166666666668,
      "d": 45.83333333333303,
      "v": 63
    },
    {
      "midi": 66,
      "hit": false,
      "t": 4504.166666666668,
      "d": 45.83333333333303,
      "v": 62
    },
    {
      "midi": 56,
      "hit": false,
      "t": 4504.166666666668,
      "d": 54.16666666666606,
      "v": 60
    },
    {
      "midi": 52,
      "hit": false,
      "t": 4512.500000000001,
      "d": 45.83333333333303,
      "v": 52
    },
    {
      "midi": 45,
      "hit": false,
      "t": 4712.500000000001,
      "d": 162.5,
      "v": 68
    },
    {
      "midi": 66,
      "hit": false,
      "t": 4895.833333333334,
      "d": 58.33333333333303,
      "v": 65
    },
    {
      "midi": 61,
      "hit": false,
      "t": 4904.166666666667,
      "d": 37.5,
      "v": 54
    },
    {
      "midi": 52,
      "hit": false,
      "t": 4904.166666666667,
      "d": 50,
      "v": 52
    },
    {
      "midi": 57,
      "hit": false,
      "t": 4904.166666666667,
      "d": 50,
      "v": 68
    },
    {
      "midi": 40,
      "hit": false,
      "t": 5104.166666666667,
      "d": 166.66666666666697,
      "v": 59
    },
    {
      "midi": 62,
      "hit": false,
      "t": 5270.833333333334,
      "d": 54.16666666666606,
      "v": 68
    },
    {
      "midi": 56,
      "hit": false,
      "t": 5279.166666666667,
      "d": 58.33333333333303,
      "v": 60
    },
    {
      "midi": 66,
      "hit": false,
      "t": 5287.5,
      "d": 37.5,
      "v": 60
    },
    {
      "midi": 52,
      "hit": false,
      "t": 5295.833333333333,
      "d": 50,
      "v": 58
    },
    {
      "midi": 45,
      "hit": false,
      "t": 5487.5,
      "d": 183.33333333333303,
      "v": 63
    },
    {
      "midi": 52,
      "hit": false,
      "t": 5679.166666666666,
      "d": 50,
      "v": 56
    },
    {
      "midi": 57,
      "hit": false,
      "t": 5679.166666666666,
      "d": 50,
      "v": 71
    },
    {
      "midi": 61,
      "hit": false,
      "t": 5679.166666666666,
      "d": 50,
      "v": 63
    },
    {
      "midi": 66,
      "hit": false,
      "t": 5679.166666666666,
      "d": 50,
      "v": 65
    },
    {
      "midi": 40,
      "hit": false,
      "t": 5883.333333333333,
      "d": 170.83333333333303,
      "v": 67
    },
    {
      "midi": 62,
      "hit": false,
      "t": 6045.833333333333,
      "d": 58.33333333333303,
      "v": 62
    },
    {
      "midi": 56,
      "hit": false,
      "t": 6045.833333333333,
      "d": 66.66666666666606,
      "v": 63
    },
    {
      "midi": 66,
      "hit": false,
      "t": 6054.166666666666,
      "d": 79.16666666666606,
      "v": 65
    },
    {
      "midi": 52,
      "hit": false,
      "t": 6074.999999999999,
      "d": 37.5,
      "v": 60
    },
    {
      "midi": 45,
      "hit": false,
      "t": 6254.166666666665,
      "d": 166.66666666666606,
      "v": 80
    },
    {
      "midi": 57,
      "hit": false,
      "t": 6399.999999999998,
      "d": 116.66666666666606,
      "v": 77
    },
    {
      "midi": 52,
      "hit": false,
      "t": 6429.166666666664,
      "d": 58.33333333333303,
      "v": 62
    },
    {
      "midi": 61,
      "hit": false,
      "t": 6487.499999999997,
      "d": 104.16666666666697,
      "v": 65
    },
    {
      "midi": 64,
      "hit": false,
      "t": 6583.333333333331,
      "d": 37.5,
      "v": 63
    },
    {
      "midi": 66,
      "hit": false,
      "t": 6620.833333333331,
      "d": 45.83333333333303,
      "v": 66
    },
    {
      "midi": 40,
      "hit": false,
      "t": 6629.166666666664,
      "d": 154.16666666666606,
      "v": 73
    },
    {
      "midi": 69,
      "hit": false,
      "t": 6762.499999999997,
      "d": 116.66666666666606,
      "v": 74
    },
    {
      "midi": 52,
      "hit": false,
      "t": 6791.666666666663,
      "d": 79.16666666666697,
      "v": 66
    },
    {
      "midi": 73,
      "hit": false,
      "t": 6841.666666666663,
      "d": 112.5,
      "v": 68
    },
    {
      "midi": 76,
      "hit": false,
      "t": 6924.999999999996,
      "d": 108.33333333333303,
      "v": 63
    },
    {
      "midi": 45,
      "hit": false,
      "t": 7012.499999999996,
      "d": 162.5,
      "v": 90
    },
    {
      "midi": 78,
      "hit": false,
      "t": 7020.833333333329,
      "d": 154.16666666666697,
      "v": 69
    },
    {
      "midi": 76,
      "hit": false,
      "t": 7137.499999999996,
      "d": 95.83333333333303,
      "v": 74
    },
    {
      "midi": 52,
      "hit": false,
      "t": 7195.833333333329,
      "d": 58.33333333333303,
      "v": 58
    },
    {
      "midi": 73,
      "hit": false,
      "t": 7212.499999999996,
      "d": 70.83333333333303,
      "v": 66
    },
    {
      "midi": 69,
      "hit": false,
      "t": 7299.999999999996,
      "d": 66.66666666666697,
      "v": 80
    },
    {
      "midi": 40,
      "hit": false,
      "t": 7379.166666666663,
      "d": 170.83333333333303,
      "v": 73
    },
    {
      "midi": 66,
      "hit": false,
      "t": 7424.999999999996,
      "d": 87.5,
      "v": 56
    },
    {
      "midi": 64,
      "hit": false,
      "t": 7491.666666666663,
      "d": 95.83333333333303,
      "v": 66
    },
    {
      "midi": 61,
      "hit": false,
      "t": 7558.333333333329,
      "d": 87.5,
      "v": 69
    },
    {
      "midi": 52,
      "hit": false,
      "t": 7570.833333333329,
      "d": 66.66666666666697,
      "v": 63
    },
    {
      "midi": 57,
      "hit": false,
      "t": 7654.166666666662,
      "d": 1554.1666666666679,
      "v": 80
    },
    {
      "midi": 61,
      "hit": false,
      "t": 7741.666666666662,
      "d": 1554.1666666666697,
      "v": 77
    },
    {
      "midi": 45,
      "hit": false,
      "t": 7762.499999999995,
      "d": 75,
      "v": 86
    },
    {
      "midi": 64,
      "hit": false,
      "t": 7954.166666666662,
      "d": 54.16666666666697,
      "v": 69
    },
    {
      "midi": 52,
      "hit": false,
      "t": 7962.499999999995,
      "d": 45.83333333333394,
      "v": 62
    },
    {
      "midi": 69,
      "hit": false,
      "t": 7962.499999999995,
      "d": 45.83333333333394,
      "v": 71
    },
    {
      "midi": 66,
      "hit": false,
      "t": 7991.666666666662,
      "d": 16.66666666666697,
      "v": 62
    },
    {
      "midi": 40,
      "hit": false,
      "t": 8162.499999999996,
      "d": 191.66666666666606,
      "v": 66
    },
    {
      "midi": 64,
      "hit": false,
      "t": 8354.166666666662,
      "d": 37.5,
      "v": 60
    },
    {
      "midi": 52,
      "hit": false,
      "t": 8354.166666666662,
      "d": 50,
      "v": 60
    },
    {
      "midi": 66,
      "hit": false,
      "t": 8354.166666666662,
      "d": 50,
      "v": 60
    },
    {
      "midi": 69,
      "hit": false,
      "t": 8362.499999999996,
      "d": 41.66666666666606,
      "v": 62
    },
    {
      "midi": 45,
      "hit": false,
      "t": 8566.666666666662,
      "d": 191.66666666666606,
      "v": 72
    },
    {
      "midi": 64,
      "hit": false,
      "t": 8737.499999999995,
      "d": 58.33333333333394,
      "v": 65
    },
    {
      "midi": 66,
      "hit": false,
      "t": 8745.833333333328,
      "d": 50,
      "v": 62
    },
    {
      "midi": 69,
      "hit": false,
      "t": 8758.333333333328,
      "d": 37.5,
      "v": 66
    },
    {
      "midi": 52,
      "hit": false,
      "t": 8766.666666666662,
      "d": 58.33333333333212,
      "v": 68
    },
    {
      "midi": 44,
      "hit": false,
      "t": 8958.333333333328,
      "d": 170.83333333333394,
      "v": 68
    },
    {
      "midi": 52,
      "hit": false,
      "t": 9129.166666666662,
      "d": 70.83333333333394,
      "v": 66
    },
    {
      "midi": 64,
      "hit": false,
      "t": 9129.166666666662,
      "d": 87.50000000000182,
      "v": 66
    },
    {
      "midi": 66,
      "hit": false,
      "t": 9129.166666666662,
      "d": 108.33333333333576,
      "v": 68
    },
    {
      "midi": 69,
      "hit": false,
      "t": 9149.999999999996,
      "d": 87.50000000000182,
      "v": 69
    },
    {
      "midi": 42,
      "hit": false,
      "t": 9320.833333333332,
      "d": 154.16666666666788,
      "v": 71
    },
    {
      "midi": 57,
      "hit": false,
      "t": 9437.5,
      "d": 125,
      "v": 68
    },
    {
      "midi": 47,
      "hit": false,
      "t": 9504.166666666666,
      "d": 37.5,
      "v": 74
    },
    {
      "midi": 61,
      "hit": false,
      "t": 9512.5,
      "d": 125,
      "v": 65
    },
    {
      "midi": 63,
      "hit": false,
      "t": 9600,
      "d": 79.16666666666606,
      "v": 66
    },
    {
      "midi": 66,
      "hit": false,
      "t": 9666.666666666666,
      "d": 37.5,
      "v": 65
    },
    {
      "midi": 35,
      "hit": false,
      "t": 9695.833333333332,
      "d": 154.16666666666788,
      "v": 74
    },
    {
      "midi": 69,
      "hit": false,
      "t": 9800,
      "d": 116.66666666666606,
      "v": 83
    },
    {
      "midi": 47,
      "hit": false,
      "t": 9879.166666666666,
      "d": 37.5,
      "v": 68
    },
    {
      "midi": 73,
      "hit": false,
      "t": 9895.833333333332,
      "d": 95.83333333333394,
      "v": 69
    },
    {
      "midi": 75,
      "hit": false,
      "t": 9966.666666666666,
      "d": 95.83333333333394,
      "v": 65
    },
    {
      "midi": 78,
      "hit": false,
      "t": 10062.5,
      "d": 133.33333333333576,
      "v": 71
    },
    {
      "midi": 42,
      "hit": false,
      "t": 10070.833333333334,
      "d": 95.83333333333394,
      "v": 72
    },
    {
      "midi": 75,
      "hit": false,
      "t": 10175.000000000002,
      "d": 66.66666666666606,
      "v": 74
    },
    {
      "midi": 73,
      "hit": false,
      "t": 10225.000000000002,
      "d": 75,
      "v": 66
    },
    {
      "midi": 47,
      "hit": false,
      "t": 10262.500000000002,
      "d": 37.5,
      "v": 62
    },
    {
      "midi": 69,
      "hit": false,
      "t": 10337.500000000002,
      "d": 79.16666666666606,
      "v": 77
    },
    {
      "midi": 35,
      "hit": false,
      "t": 10433.333333333334,
      "d": 183.33333333333394,
      "v": 75
    },
    {
      "midi": 66,
      "hit": false,
      "t": 10454.166666666668,
      "d": 66.66666666666606,
      "v": 68
    },
    {
      "midi": 63,
      "hit": false,
      "t": 10529.166666666668,
      "d": 95.83333333333394,
      "v": 80
    },
    {
      "midi": 47,
      "hit": false,
      "t": 10616.666666666668,
      "d": 45.83333333333394,
      "v": 72
    },
    {
      "midi": 61,
      "hit": false,
      "t": 10625.000000000002,
      "d": 79.16666666666606,
      "v": 63
    },
    {
      "midi": 57,
      "hit": false,
      "t": 10712.500000000002,
      "d": 1458.3333333333412,
      "v": 80
    },
    {
      "midi": 42,
      "hit": false,
      "t": 10808.333333333336,
      "d": 45.83333333333394,
      "v": 80
    },
    {
      "midi": 61,
      "hit": false,
      "t": 10808.333333333336,
      "d": 1408.3333333333394,
      "v": 86
    },
    {
      "midi": 47,
      "hit": false,
      "t": 11008.333333333336,
      "d": 37.50000000000182,
      "v": 69
    },
    {
      "midi": 63,
      "hit": false,
      "t": 11008.333333333336,
      "d": 58.33333333333576,
      "v": 52
    },
    {
      "midi": 66,
      "hit": false,
      "t": 11029.16666666667,
      "d": 37.50000000000182,
      "v": 50
    },
    {
      "midi": 69,
      "hit": false,
      "t": 11037.500000000004,
      "d": 37.50000000000182,
      "v": 56
    },
    {
      "midi": 35,
      "hit": false,
      "t": 11212.500000000005,
      "d": 170.83333333333394,
      "v": 67
    },
    {
      "midi": 47,
      "hit": false,
      "t": 11391.666666666673,
      "d": 37.5,
      "v": 68
    },
    {
      "midi": 63,
      "hit": false,
      "t": 11391.666666666673,
      "d": 50,
      "v": 56
    },
    {
      "midi": 66,
      "hit": false,
      "t": 11404.166666666673,
      "d": 45.83333333333394,
      "v": 52
    },
    {
      "midi": 69,
      "hit": false,
      "t": 11412.500000000007,
      "d": 45.83333333333394,
      "v": 58
    },
    {
      "midi": 42,
      "hit": false,
      "t": 11604.166666666675,
      "d": 154.16666666666606,
      "v": 63
    },
    {
      "midi": 63,
      "hit": false,
      "t": 11787.500000000007,
      "d": 54.16666666666788,
      "v": 60
    },
    {
      "midi": 66,
      "hit": false,
      "t": 11787.500000000007,
      "d": 54.16666666666788,
      "v": 60
    },
    {
      "midi": 69,
      "hit": false,
      "t": 11787.500000000007,
      "d": 75.00000000000182,
      "v": 66
    },
    {
      "midi": 47,
      "hit": false,
      "t": 11795.833333333341,
      "d": 45.83333333333394,
      "v": 71
    },
    {
      "midi": 35,
      "hit": false,
      "t": 11987.50000000001,
      "d": 183.33333333333394,
      "v": 73
    },
    {
      "midi": 63,
      "hit": false,
      "t": 12170.833333333343,
      "d": 45.83333333333212,
      "v": 62
    },
    {
      "midi": 66,
      "hit": false,
      "t": 12170.833333333343,
      "d": 75,
      "v": 65
    },
    {
      "midi": 69,
      "hit": false,
      "t": 12170.833333333343,
      "d": 75,
      "v": 69
    },
    {
      "midi": 47,
      "hit": false,
      "t": 12187.50000000001,
      "d": 37.5,
      "v": 72
    },
    {
      "midi": 47,
      "hit": false,
      "t": 12379.166666666677,
      "d": 66.66666666666606,
      "v": 86
    },
    {
      "midi": 62,
      "hit": false,
      "t": 12495.833333333343,
      "d": 112.50000000000182,
      "v": 72
    },
    {
      "midi": 66,
      "hit": false,
      "t": 12554.166666666677,
      "d": 120.83333333333576,
      "v": 71
    },
    {
      "midi": 52,
      "hit": false,
      "t": 12562.500000000011,
      "d": 58.33333333333394,
      "v": 68
    },
    {
      "midi": 68,
      "hit": false,
      "t": 12629.166666666679,
      "d": 95.83333333333394,
      "v": 58
    },
    {
      "midi": 73,
      "hit": false,
      "t": 12725.000000000013,
      "d": 116.66666666666606,
      "v": 69
    },
    {
      "midi": 40,
      "hit": false,
      "t": 12762.500000000013,
      "d": 125,
      "v": 71
    },
    {
      "midi": 68,
      "hit": false,
      "t": 12829.166666666679,
      "d": 87.5,
      "v": 56
    },
    {
      "midi": 66,
      "hit": false,
      "t": 12916.666666666679,
      "d": 75,
      "v": 66
    },
    {
      "midi": 52,
      "hit": false,
      "t": 12945.833333333345,
      "d": 58.33333333333394,
      "v": 62
    },
    {
      "midi": 62,
      "hit": false,
      "t": 13004.166666666679,
      "d": 708.3333333333358,
      "v": 63
    },
    {
      "midi": 66,
      "hit": false,
      "t": 13108.333333333345,
      "d": 633.3333333333358,
      "v": 74
    },
    {
      "midi": 47,
      "hit": false,
      "t": 13129.166666666679,
      "d": 66.66666666666606,
      "v": 80
    },
    {
      "midi": 68,
      "hit": false,
      "t": 13291.666666666679,
      "d": 75,
      "v": 63
    },
    {
      "midi": 52,
      "hit": false,
      "t": 13308.333333333345,
      "d": 58.33333333333394,
      "v": 68
    },
    {
      "midi": 73,
      "hit": false,
      "t": 13308.333333333345,
      "d": 66.66666666666788,
      "v": 72
    },
    {
      "midi": 40,
      "hit": false,
      "t": 13491.666666666679,
      "d": 154.16666666666788,
      "v": 77
    },
    {
      "midi": 68,
      "hit": false,
      "t": 13683.333333333347,
      "d": 87.50000000000182,
      "v": 71
    },
    {
      "midi": 73,
      "hit": false,
      "t": 13683.333333333347,
      "d": 87.50000000000182,
      "v": 72
    },
    {
      "midi": 52,
      "hit": false,
      "t": 13704.16666666668,
      "d": 45.83333333333394,
      "v": 65
    },
    {
      "midi": 45,
      "hit": false,
      "t": 13883.333333333348,
      "d": 108.33333333333394,
      "v": 80
    },
    {
      "midi": 61,
      "hit": false,
      "t": 14000.000000000016,
      "d": 112.5,
      "v": 66
    },
    {
      "midi": 52,
      "hit": false,
      "t": 14066.666666666682,
      "d": 45.83333333333394,
      "v": 65
    },
    {
      "midi": 66,
      "hit": false,
      "t": 14087.500000000016,
      "d": 112.5,
      "v": 68
    },
    {
      "midi": 68,
      "hit": false,
      "t": 14170.83333333335,
      "d": 79.16666666666606,
      "v": 63
    },
    {
      "midi": 73,
      "hit": false,
      "t": 14258.33333333335,
      "d": 125,
      "v": 68
    },
    {
      "midi": 40,
      "hit": false,
      "t": 14266.666666666684,
      "d": 133.33333333333212,
      "v": 68
    },
    {
      "midi": 68,
      "hit": false,
      "t": 14362.500000000016,
      "d": 79.16666666666606,
      "v": 56
    },
    {
      "midi": 52,
      "hit": false,
      "t": 14441.666666666682,
      "d": 45.83333333333394,
      "v": 58
    },
    {
      "midi": 66,
      "hit": false,
      "t": 14441.666666666682,
      "d": 75,
      "v": 66
    },
    {
      "midi": 61,
      "hit": false,
      "t": 14525.000000000016,
      "d": 654.1666666666679,
      "v": 68
    },
    {
      "midi": 45,
      "hit": false,
      "t": 14620.83333333335,
      "d": 66.66666666666606,
      "v": 77
    },
    {
      "midi": 66,
      "hit": false,
      "t": 14620.83333333335,
      "d": 641.6666666666679,
      "v": 72
    },
    {
      "midi": 52,
      "hit": false,
      "t": 14825.000000000016,
      "d": 45.83333333333394,
      "v": 68
    },
    {
      "midi": 68,
      "hit": false,
      "t": 14825.000000000016,
      "d": 75,
      "v": 60
    },
    {
      "midi": 73,
      "hit": false,
      "t": 14825.000000000016,
      "d": 75,
      "v": 69
    },
    {
      "midi": 40,
      "hit": false,
      "t": 14995.83333333335,
      "d": 162.5,
      "v": 74
    },
    {
      "midi": 68,
      "hit": false,
      "t": 15187.500000000018,
      "d": 95.83333333333394,
      "v": 69
    },
    {
      "midi": 73,
      "hit": false,
      "t": 15187.500000000018,
      "d": 104.16666666666788,
      "v": 62
    },
    {
      "midi": 52,
      "hit": false,
      "t": 15195.833333333352,
      "d": 41.66666666666606,
      "v": 66
    },
    {
      "midi": 47,
      "hit": false,
      "t": 15408.333333333352,
      "d": 116.66666666666788,
      "v": 80
    },
    {
      "midi": 56,
      "hit": false,
      "t": 15408.333333333352,
      "d": 116.66666666666788,
      "v": 77
    },
    {
      "midi": 64,
      "hit": false,
      "t": 15591.666666666686,
      "d": 150,
      "v": 62
    },
    {
      "midi": 66,
      "hit": false,
      "t": 15704.166666666686,
      "d": 125,
      "v": 62
    },
    {
      "midi": 68,
      "hit": false,
      "t": 15791.666666666686,
      "d": 66.66666666666788,
      "v": 58
    },
    {
      "midi": 69,
      "hit": false,
      "t": 15916.666666666688,
      "d": 95.83333333333394,
      "v": 80
    },
    {
      "midi": 71,
      "hit": false,
      "t": 16004.166666666688,
      "d": 104.16666666666606,
      "v": 69
    },
    {
      "midi": 73,
      "hit": false,
      "t": 16079.166666666688,
      "d": 133.33333333333394,
      "v": 54
    },
    {
      "midi": 75,
      "hit": false,
      "t": 16204.166666666688,
      "d": 58.33333333333394,
      "v": 66
    },
    {
      "midi": 47,
      "hit": false,
      "t": 16212.500000000022,
      "d": 50,
      "v": 74
    },
    {
      "midi": 51,
      "hit": false,
      "t": 16212.500000000022,
      "d": 50,
      "v": 71
    },
    {
      "midi": 57,
      "hit": false,
      "t": 16212.500000000022,
      "d": 50,
      "v": 77
    },
    {
      "midi": 76,
      "hit": false,
      "t": 16308.333333333356,
      "d": 87.50000000000182,
      "v": 74
    },
    {
      "midi": 78,
      "hit": false,
      "t": 16412.500000000025,
      "d": 137.5,
      "v": 74
    },
    {
      "midi": 80,
      "hit": false,
      "t": 16508.333333333358,
      "d": 95.83333333333212,
      "v": 60
    },
    {
      "midi": 81,
      "hit": false,
      "t": 16595.833333333358,
      "d": 145.83333333333212,
      "v": 72
    },
    {
      "midi": 80,
      "hit": false,
      "t": 16720.833333333358,
      "d": 104.16666666666424,
      "v": 68
    },
    {
      "midi": 78,
      "hit": false,
      "t": 16787.500000000022,
      "d": 79.16666666666788,
      "v": 60
    },
    {
      "midi": 76,
      "hit": false,
      "t": 16904.16666666669,
      "d": 83.33333333333212,
      "v": 66
    },
    {
      "midi": 75,
      "hit": false,
      "t": 17000.000000000022,
      "d": 125,
      "v": 56
    },
    {
      "midi": 57,
      "hit": false,
      "t": 17016.66666666669,
      "d": 125,
      "v": 80
    },
    {
      "midi": 51,
      "hit": false,
      "t": 17016.66666666669,
      "d": 154.16666666666788,
      "v": 63
    },
    {
      "midi": 47,
      "hit": false,
      "t": 17016.66666666669,
      "d": 175,
      "v": 80
    },
    {
      "midi": 73,
      "hit": false,
      "t": 17075.000000000022,
      "d": 133.33333333333212,
      "v": 63
    },
    {
      "midi": 71,
      "hit": false,
      "t": 17200.000000000022,
      "d": 58.33333333333212,
      "v": 68
    },
    {
      "midi": 69,
      "hit": false,
      "t": 17287.500000000022,
      "d": 83.33333333333212,
      "v": 80
    },
    {
      "midi": 68,
      "hit": false,
      "t": 17370.833333333354,
      "d": 145.83333333333576,
      "v": 71
    },
    {
      "midi": 66,
      "hit": false,
      "t": 17487.500000000022,
      "d": 66.66666666666788,
      "v": 60
    },
    {
      "midi": 64,
      "hit": false,
      "t": 17575.000000000022,
      "d": 75,
      "v": 72
    },
    {
      "midi": 62,
      "hit": false,
      "t": 17679.16666666669,
      "d": 95.83333333333212,
      "v": 68
    },
    {
      "midi": 61,
      "hit": false,
      "t": 17754.16666666669,
      "d": 137.49999999999636,
      "v": 71
    },
    {
      "midi": 40,
      "hit": false,
      "t": 17795.833333333354,
      "d": 679.1666666666642,
      "v": 86
    },
    {
      "midi": 59,
      "hit": false,
      "t": 17879.166666666686,
      "d": 79.16666666666788,
      "v": 71
    },
    {
      "midi": 57,
      "hit": false,
      "t": 17995.833333333354,
      "d": 75,
      "v": 74
    },
    {
      "midi": 56,
      "hit": false,
      "t": 18062.500000000022,
      "d": 145.83333333333212,
      "v": 71
    },
    {
      "midi": 54,
      "hit": false,
      "t": 18166.666666666686,
      "d": 95.83333333333576,
      "v": 63
    },
    {
      "midi": 50,
      "hit": false,
      "t": 18166.666666666686,
      "d": 183.33333333333576,
      "v": 80
    },
    {
      "midi": 52,
      "hit": false,
      "t": 18262.500000000022,
      "d": 154.16666666666424,
      "v": 74
    },
    {
      "midi": 54,
      "hit": false,
      "t": 18370.833333333354,
      "d": 124.99999999999636,
      "v": 72
    },
    {
      "midi": 56,
      "hit": false,
      "t": 18466.666666666686,
      "d": 74.99999999999636,
      "v": 68
    },
    {
      "midi": 45,
      "hit": false,
      "t": 18570.83333333335,
      "d": 154.16666666666788,
      "v": 101
    },
    {
      "midi": 57,
      "hit": false,
      "t": 18695.83333333335,
      "d": 112.5,
      "v": 83
    },
    {
      "midi": 52,
      "hit": false,
      "t": 18733.33333333335,
      "d": 50,
      "v": 65
    },
    {
      "midi": 61,
      "hit": false,
      "t": 18783.33333333335,
      "d": 133.33333333333212,
      "v": 69
    },
    {
      "midi": 64,
      "hit": false,
      "t": 18858.33333333335,
      "d": 104.16666666666424,
      "v": 62
    },
    {
      "midi": 66,
      "hit": false,
      "t": 18945.83333333335,
      "d": 54.16666666666424,
      "v": 71
    },
    {
      "midi": 40,
      "hit": false,
      "t": 18954.166666666682,
      "d": 116.66666666666424,
      "v": 74
    },
    {
      "midi": 69,
      "hit": false,
      "t": 19095.833333333347,
      "d": 108.33333333333212,
      "v": 80
    },
    {
      "midi": 52,
      "hit": false,
      "t": 19166.66666666668,
      "d": 37.5,
      "v": 66
    },
    {
      "midi": 73,
      "hit": false,
      "t": 19183.333333333347,
      "d": 95.83333333333212,
      "v": 71
    },
    {
      "midi": 76,
      "hit": false,
      "t": 19250.00000000001,
      "d": 116.66666666666788,
      "v": 65
    },
    {
      "midi": 78,
      "hit": false,
      "t": 19358.333333333347,
      "d": 162.5,
      "v": 68
    },
    {
      "midi": 45,
      "hit": false,
      "t": 19375.00000000001,
      "d": 79.16666666666788,
      "v": 86
    },
    {
      "midi": 76,
      "hit": false,
      "t": 19470.833333333347,
      "d": 104.16666666666788,
      "v": 72
    },
    {
      "midi": 52,
      "hit": false,
      "t": 19558.333333333347,
      "d": 58.33333333333576,
      "v": 63
    },
    {
      "midi": 73,
      "hit": false,
      "t": 19558.333333333347,
      "d": 75.00000000000364,
      "v": 68
    },
    {
      "midi": 69,
      "hit": false,
      "t": 19654.166666666682,
      "d": 75,
      "v": 77
    },
    {
      "midi": 66,
      "hit": false,
      "t": 19750.000000000015,
      "d": 54.16666666666424,
      "v": 71
    },
    {
      "midi": 40,
      "hit": false,
      "t": 19758.333333333347,
      "d": 162.49999999999636,
      "v": 77
    },
    {
      "midi": 64,
      "hit": false,
      "t": 19862.50000000001,
      "d": 108.33333333332848,
      "v": 63
    },
    {
      "midi": 61,
      "hit": false,
      "t": 19941.666666666675,
      "d": 87.49999999999636,
      "v": 66
    },
    {
      "midi": 52,
      "hit": false,
      "t": 19950.000000000007,
      "d": 66.66666666666424,
      "v": 66
    },
    {
      "midi": 57,
      "hit": false,
      "t": 20029.16666666667,
      "d": 1587.4999999999964,
      "v": 80
    },
    {
      "midi": 61,
      "hit": false,
      "t": 20104.16666666667,
      "d": 1533.3333333333285,
      "v": 72
    },
    {
      "midi": 45,
      "hit": false,
      "t": 20125.000000000004,
      "d": 66.66666666666788,
      "v": 90
    },
    {
      "midi": 64,
      "hit": false,
      "t": 20333.33333333334,
      "d": 104.16666666666424,
      "v": 50
    },
    {
      "midi": 52,
      "hit": false,
      "t": 20341.66666666667,
      "d": 50,
      "v": 62
    },
    {
      "midi": 69,
      "hit": false,
      "t": 20354.16666666667,
      "d": 58.33333333333212,
      "v": 69
    },
    {
      "midi": 40,
      "hit": false,
      "t": 20525.000000000004,
      "d": 183.33333333333212,
      "v": 73
    },
    {
      "midi": 69,
      "hit": false,
      "t": 20708.333333333336,
      "d": 66.66666666666788,
      "v": 65
    },
    {
      "midi": 52,
      "hit": false,
      "t": 20725.000000000004,
      "d": 41.66666666666788,
      "v": 63
    },
    {
      "midi": 66,
      "hit": false,
      "t": 20725.000000000004,
      "d": 41.66666666666788,
      "v": 56
    },
    {
      "midi": 64,
      "hit": false,
      "t": 20725.000000000004,
      "d": 50,
      "v": 39
    },
    {
      "midi": 45,
      "hit": false,
      "t": 20929.16666666667,
      "d": 179.16666666666788,
      "v": 80
    },
    {
      "midi": 64,
      "hit": false,
      "t": 21100.000000000007,
      "d": 58.33333333333212,
      "v": 58
    },
    {
      "midi": 66,
      "hit": false,
      "t": 21100.000000000007,
      "d": 58.33333333333212,
      "v": 62
    },
    {
      "midi": 69,
      "hit": false,
      "t": 21100.000000000007,
      "d": 66.66666666666424,
      "v": 68
    },
    {
      "midi": 52,
      "hit": false,
      "t": 21120.83333333334,
      "d": 45.83333333333212,
      "v": 68
    },
    {
      "midi": 44,
      "hit": false,
      "t": 21320.83333333334,
      "d": 191.66666666666424,
      "v": 68
    },
    {
      "midi": 64,
      "hit": false,
      "t": 21491.66666666667,
      "d": 95.83333333333212,
      "v": 66
    },
    {
      "midi": 66,
      "hit": false,
      "t": 21504.16666666667,
      "d": 104.16666666666424,
      "v": 66
    },
    {
      "midi": 52,
      "hit": false,
      "t": 21512.500000000004,
      "d": 50,
      "v": 66
    },
    {
      "midi": 69,
      "hit": false,
      "t": 21512.500000000004,
      "d": 87.5,
      "v": 77
    },
    {
      "midi": 42,
      "hit": false,
      "t": 21683.333333333332,
      "d": 166.66666666666788,
      "v": 71
    },
    {
      "midi": 57,
      "hit": false,
      "t": 21800,
      "d": 125,
      "v": 71
    },
    {
      "midi": 47,
      "hit": false,
      "t": 21866.666666666668,
      "d": 37.5,
      "v": 69
    },
    {
      "midi": 61,
      "hit": false,
      "t": 21895.833333333336,
      "d": 124.99999999999636,
      "v": 69
    },
    {
      "midi": 63,
      "hit": false,
      "t": 21970.833333333332,
      "d": 95.83333333333212,
      "v": 60
    },
    {
      "midi": 66,
      "hit": false,
      "t": 22058.333333333332,
      "d": 37.5,
      "v": 69
    },
    {
      "midi": 35,
      "hit": false,
      "t": 22066.666666666664,
      "d": 87.5,
      "v": 74
    },
    {
      "midi": 69,
      "hit": false,
      "t": 22204.166666666664,
      "d": 104.16666666666788,
      "v": 90
    },
    {
      "midi": 47,
      "hit": false,
      "t": 22241.666666666664,
      "d": 37.5,
      "v": 72
    },
    {
      "midi": 73,
      "hit": false,
      "t": 22308.333333333332,
      "d": 95.83333333333212,
      "v": 72
    },
    {
      "midi": 75,
      "hit": false,
      "t": 22366.666666666664,
      "d": 104.16666666666424,
      "v": 72
    },
    {
      "midi": 42,
      "hit": false,
      "t": 22462.499999999996,
      "d": 58.33333333333212,
      "v": 74
    },
    {
      "midi": 78,
      "hit": false,
      "t": 22470.83333333333,
      "d": 133.33333333333576,
      "v": 72
    },
    {
      "midi": 75,
      "hit": false,
      "t": 22574.999999999996,
      "d": 66.66666666666788,
      "v": 71
    },
    {
      "midi": 73,
      "hit": false,
      "t": 22633.333333333332,
      "d": 66.66666666666424,
      "v": 68
    },
    {
      "midi": 47,
      "hit": false,
      "t": 22641.666666666664,
      "d": 50,
      "v": 66
    },
    {
      "midi": 69,
      "hit": false,
      "t": 22720.83333333333,
      "d": 95.83333333333212,
      "v": 71
    },
    {
      "midi": 35,
      "hit": false,
      "t": 22845.83333333333,
      "d": 170.83333333333212,
      "v": 77
    },
    {
      "midi": 66,
      "hit": false,
      "t": 22862.499999999996,
      "d": 58.33333333333212,
      "v": 56
    },
    {
      "midi": 63,
      "hit": false,
      "t": 22920.83333333333,
      "d": 95.83333333333212,
      "v": 80
    },
    {
      "midi": 61,
      "hit": false,
      "t": 23016.66666666666,
      "d": 79.16666666666424,
      "v": 60
    },
    {
      "midi": 47,
      "hit": false,
      "t": 23037.499999999993,
      "d": 45.83333333333212,
      "v": 66
    },
    {
      "midi": 57,
      "hit": false,
      "t": 23095.833333333325,
      "d": 1512.4999999999927,
      "v": 80
    },
    {
      "midi": 61,
      "hit": false,
      "t": 23208.333333333325,
      "d": 1445.8333333333248,
      "v": 86
    },
    {
      "midi": 42,
      "hit": false,
      "t": 23229.166666666657,
      "d": 37.5,
      "v": 77
    },
    {
      "midi": 63,
      "hit": false,
      "t": 23420.83333333332,
      "d": 58.33333333333576,
      "v": 60
    },
    {
      "midi": 66,
      "hit": false,
      "t": 23437.49999999999,
      "d": 41.66666666666788,
      "v": 54
    },
    {
      "midi": 69,
      "hit": false,
      "t": 23437.49999999999,
      "d": 41.66666666666788,
      "v": 65
    },
    {
      "midi": 47,
      "hit": false,
      "t": 23449.99999999999,
      "d": 37.5,
      "v": 68
    },
    {
      "midi": 35,
      "hit": false,
      "t": 23641.666666666657,
      "d": 200,
      "v": 71
    },
    {
      "midi": 47,
      "hit": false,
      "t": 23820.833333333325,
      "d": 50,
      "v": 71
    },
    {
      "midi": 63,
      "hit": false,
      "t": 23820.833333333325,
      "d": 50,
      "v": 62
    },
    {
      "midi": 66,
      "hit": false,
      "t": 23820.833333333325,
      "d": 50,
      "v": 63
    },
    {
      "midi": 69,
      "hit": false,
      "t": 23820.833333333325,
      "d": 50,
      "v": 65
    },
    {
      "midi": 42,
      "hit": false,
      "t": 24041.666666666657,
      "d": 175,
      "v": 69
    },
    {
      "midi": 63,
      "hit": false,
      "t": 24216.666666666657,
      "d": 45.83333333333212,
      "v": 54
    },
    {
      "midi": 66,
      "hit": false,
      "t": 24216.666666666657,
      "d": 54.16666666666424,
      "v": 58
    },
    {
      "midi": 69,
      "hit": false,
      "t": 24216.666666666657,
      "d": 74.99999999999636,
      "v": 66
    },
    {
      "midi": 47,
      "hit": false,
      "t": 24224.99999999999,
      "d": 45.83333333333212,
      "v": 72
    },
    {
      "midi": 35,
      "hit": false,
      "t": 24424.999999999985,
      "d": 183.33333333333212,
      "v": 77
    },
    {
      "midi": 47,
      "hit": false,
      "t": 24608.333333333318,
      "d": 45.83333333333212,
      "v": 74
    },
    {
      "midi": 63,
      "hit": false,
      "t": 24608.333333333318,
      "d": 45.83333333333212,
      "v": 65
    },
    {
      "midi": 66,
      "hit": false,
      "t": 24608.333333333318,
      "d": 75,
      "v": 68
    },
    {
      "midi": 69,
      "hit": false,
      "t": 24608.333333333318,
      "d": 75,
      "v": 71
    },
    {
      "midi": 47,
      "hit": false,
      "t": 24820.833333333318,
      "d": 75,
      "v": 80
    },
    {
      "midi": 62,
      "hit": false,
      "t": 24941.66666666665,
      "d": 116.66666666666788,
      "v": 71
    },
    {
      "midi": 52,
      "hit": false,
      "t": 25012.499999999985,
      "d": 45.83333333333212,
      "v": 66
    },
    {
      "midi": 66,
      "hit": false,
      "t": 25020.833333333318,
      "d": 112.5,
      "v": 72
    },
    {
      "midi": 68,
      "hit": false,
      "t": 25095.833333333318,
      "d": 95.83333333333212,
      "v": 62
    },
    {
      "midi": 73,
      "hit": false,
      "t": 25191.66666666665,
      "d": 125,
      "v": 68
    },
    {
      "midi": 40,
      "hit": false,
      "t": 25204.16666666665,
      "d": 170.83333333333212,
      "v": 71
    },
    {
      "midi": 68,
      "hit": false,
      "t": 25287.49999999998,
      "d": 108.33333333333212,
      "v": 60
    },
    {
      "midi": 66,
      "hit": false,
      "t": 25383.333333333314,
      "d": 87.49999999999636,
      "v": 65
    },
    {
      "midi": 52,
      "hit": false,
      "t": 25404.166666666646,
      "d": 58.33333333333212,
      "v": 60
    },
    {
      "midi": 62,
      "hit": false,
      "t": 25470.83333333331,
      "d": 716.6666666666606,
      "v": 66
    },
    {
      "midi": 66,
      "hit": false,
      "t": 25566.666666666642,
      "d": 641.6666666666606,
      "v": 83
    },
    {
      "midi": 47,
      "hit": false,
      "t": 25595.83333333331,
      "d": 66.66666666666788,
      "v": 80
    },
    {
      "midi": 68,
      "hit": false,
      "t": 25758.33333333331,
      "d": 74.99999999999636,
      "v": 66
    },
    {
      "midi": 52,
      "hit": false,
      "t": 25779.166666666642,
      "d": 54.16666666666424,
      "v": 68
    },
    {
      "midi": 73,
      "hit": false,
      "t": 25779.166666666642,
      "d": 54.16666666666424,
      "v": 69
    },
    {
      "midi": 40,
      "hit": false,
      "t": 25970.833333333307,
      "d": 191.66666666666424,
      "v": 73
    },
    {
      "midi": 68,
      "hit": false,
      "t": 26162.49999999997,
      "d": 74.99999999999636,
      "v": 69
    },
    {
      "midi": 73,
      "hit": false,
      "t": 26162.49999999997,
      "d": 74.99999999999636,
      "v": 77
    },
    {
      "midi": 52,
      "hit": false,
      "t": 26170.833333333303,
      "d": 45.83333333333212,
      "v": 68
    },
    {
      "midi": 45,
      "hit": false,
      "t": 26362.499999999967,
      "d": 95.83333333333212,
      "v": 83
    },
    {
      "midi": 61,
      "hit": false,
      "t": 26449.999999999967,
      "d": 120.83333333333212,
      "v": 63
    },
    {
      "midi": 66,
      "hit": false,
      "t": 26533.3333333333,
      "d": 133.33333333333212,
      "v": 68
    },
    {
      "midi": 52,
      "hit": false,
      "t": 26545.8333333333,
      "d": 66.66666666666788,
      "v": 60
    },
    {
      "midi": 68,
      "hit": false,
      "t": 26620.8333333333,
      "d": 87.5,
      "v": 60
    },
    {
      "midi": 73,
      "hit": false,
      "t": 26724.999999999967,
      "d": 133.33333333333212,
      "v": 65
    },
    {
      "midi": 40,
      "hit": false,
      "t": 26745.8333333333,
      "d": 162.5,
      "v": 71
    },
    {
      "midi": 68,
      "hit": false,
      "t": 26820.8333333333,
      "d": 108.33333333333212,
      "v": 52
    },
    {
      "midi": 66,
      "hit": false,
      "t": 26916.66666666663,
      "d": 87.49999999999636,
      "v": 65
    },
    {
      "midi": 52,
      "hit": false,
      "t": 26937.499999999964,
      "d": 58.33333333333212,
      "v": 63
    },
    {
      "midi": 61,
      "hit": false,
      "t": 27004.166666666628,
      "d": 691.6666666666606,
      "v": 68
    },
    {
      "midi": 66,
      "hit": false,
      "t": 27120.833333333296,
      "d": 670.8333333333248,
      "v": 74
    },
    {
      "midi": 45,
      "hit": false,
      "t": 27129.166666666628,
      "d": 75,
      "v": 80
    },
    {
      "midi": 68,
      "hit": false,
      "t": 27320.833333333296,
      "d": 74.99999999999636,
      "v": 68
    },
    {
      "midi": 73,
      "hit": false,
      "t": 27329.166666666628,
      "d": 66.66666666666424,
      "v": 65
    },
    {
      "midi": 52,
      "hit": false,
      "t": 27337.49999999996,
      "d": 58.33333333333212,
      "v": 69
    },
    {
      "midi": 40,
      "hit": false,
      "t": 27504.166666666624,
      "d": 170.83333333333212,
      "v": 80
    },
    {
      "midi": 52,
      "hit": false,
      "t": 27704.16666666662,
      "d": 37.5,
      "v": 60
    },
    {
      "midi": 68,
      "hit": false,
      "t": 27712.499999999953,
      "d": 87.5,
      "v": 63
    },
    {
      "midi": 73,
      "hit": false,
      "t": 27712.499999999953,
      "d": 116.66666666666788,
      "v": 69
    },
    {
      "midi": 47,
      "hit": false,
      "t": 27912.499999999953,
      "d": 175,
      "v": 80
    },
    {
      "midi": 56,
      "hit": false,
      "t": 27924.999999999953,
      "d": 154.16666666666788,
      "v": 77
    },
    {
      "midi": 64,
      "hit": false,
      "t": 28133.333333333285,
      "d": 125,
      "v": 63
    },
    {
      "midi": 66,
      "hit": false,
      "t": 28229.166666666617,
      "d": 125.00000000000364,
      "v": 63
    },
    {
      "midi": 68,
      "hit": false,
      "t": 28324.999999999953,
      "d": 58.33333333333576,
      "v": 58
    },
    {
      "midi": 69,
      "hit": false,
      "t": 28462.499999999956,
      "d": 75,
      "v": 74
    },
    {
      "midi": 71,
      "hit": false,
      "t": 28558.33333333329,
      "d": 112.5,
      "v": 68
    },
    {
      "midi": 73,
      "hit": false,
      "t": 28641.66666666662,
      "d": 95.83333333333576,
      "v": 56
    },
    {
      "midi": 44,
      "hit": false,
      "t": 28737.499999999956,
      "d": 87.5,
      "v": 83
    },
    {
      "midi": 74,
      "hit": false,
      "t": 28737.499999999956,
      "d": 133.33333333333212,
      "v": 74
    },
    {
      "midi": 52,
      "hit": false,
      "t": 28749.999999999956,
      "d": 75,
      "v": 80
    },
    {
      "midi": 73,
      "hit": false,
      "t": 28845.83333333329,
      "d": 112.5,
      "v": 63
    },
    {
      "midi": 71,
      "hit": false,
      "t": 28941.66666666662,
      "d": 54.16666666666788,
      "v": 65
    },
    {
      "midi": 69,
      "hit": false,
      "t": 29037.499999999956,
      "d": 66.66666666666788,
      "v": 69
    },
    {
      "midi": 68,
      "hit": false,
      "t": 29133.333333333292,
      "d": 95.83333333333212,
      "v": 56
    },
    {
      "midi": 66,
      "hit": false,
      "t": 29216.666666666624,
      "d": 125,
      "v": 66
    },
    {
      "midi": 64,
      "hit": false,
      "t": 29333.333333333292,
      "d": 66.66666666666424,
      "v": 58
    },
    {
      "midi": 62,
      "hit": false,
      "t": 29420.83333333329,
      "d": 95.83333333333576,
      "v": 77
    },
    {
      "midi": 61,
      "hit": false,
      "t": 29524.999999999956,
      "d": 125,
      "v": 69
    },
    {
      "midi": 40,
      "hit": false,
      "t": 29562.499999999956,
      "d": 758.3333333333358,
      "v": 83
    },
    {
      "midi": 50,
      "hit": false,
      "t": 29562.499999999956,
      "d": 787.5000000000036,
      "v": 80
    },
    {
      "midi": 59,
      "hit": false,
      "t": 29649.999999999956,
      "d": 75,
      "v": 71
    },
    {
      "midi": 57,
      "hit": false,
      "t": 29754.166666666624,
      "d": 104.16666666666788,
      "v": 74
    },
    {
      "midi": 56,
      "hit": false,
      "t": 29829.166666666624,
      "d": 145.83333333333576,
      "v": 65
    },
    {
      "midi": 54,
      "hit": false,
      "t": 29937.49999999996,
      "d": 95.83333333333212,
      "v": 65
    },
    {
      "midi": 52,
      "hit": false,
      "t": 30049.99999999996,
      "d": 154.16666666666788,
      "v": 72
    },
    {
      "midi": 54,
      "hit": false,
      "t": 30137.49999999996,
      "d": 133.33333333333212,
      "v": 71
    },
    {
      "midi": 56,
      "hit": false,
      "t": 30224.99999999996,
      "d": 125,
      "v": 66
    },
    {
      "midi": 57,
      "hit": false,
      "t": 30337.49999999996,
      "d": 79.16666666666424,
      "v": 86
    },
    {
      "midi": 45,
      "hit": false,
      "t": 30379.166666666624,
      "d": 54.16666666666788,
      "v": 101
    },
    {
      "midi": 52,
      "hit": false,
      "t": 30787.49999999996,
      "d": 50,
      "v": 83
    },
    {
      "midi": 56,
      "hit": false,
      "t": 30787.49999999996,
      "d": 50,
      "v": 80
    },
    {
      "midi": 40,
      "hit": false,
      "t": 30787.49999999996,
      "d": 58.33333333333212,
      "v": 95
    },
    {
      "midi": 62,
      "hit": false,
      "t": 30787.49999999996,
      "d": 70.83333333333212,
      "v": 83
    },
    {
      "midi": 64,
      "hit": false,
      "t": 30787.49999999996,
      "d": 70.83333333333212,
      "v": 86
    },
    {
      "midi": 45,
      "hit": false,
      "t": 31262.49999999996,
      "d": 116.66666666666788,
      "v": 107
    },
    {
      "midi": 52,
      "hit": false,
      "t": 31474.99999999996,
      "d": 54.16666666666788,
      "v": 71
    },
    {
      "midi": 57,
      "hit": false,
      "t": 31474.99999999996,
      "d": 75,
      "v": 74
    },
    {
      "midi": 59,
      "hit": false,
      "t": 31579.166666666628,
      "d": 87.5,
      "v": 77
    },
    {
      "midi": 40,
      "hit": false,
      "t": 31666.666666666628,
      "d": 75,
      "v": 73
    },
    {
      "midi": 60,
      "hit": false,
      "t": 31666.666666666628,
      "d": 112.5,
      "v": 65
    },
    {
      "midi": 59,
      "hit": false,
      "t": 31762.49999999996,
      "d": 83.33333333333576,
      "v": 69
    },
    {
      "midi": 52,
      "hit": false,
      "t": 31895.833333333296,
      "d": 45.83333333333212,
      "v": 65
    },
    {
      "midi": 57,
      "hit": false,
      "t": 31895.833333333296,
      "d": 75,
      "v": 71
    },
    {
      "midi": 56,
      "hit": false,
      "t": 31954.166666666628,
      "d": 83.33333333333576,
      "v": 66
    },
    {
      "midi": 57,
      "hit": false,
      "t": 32066.66666666663,
      "d": 87.5,
      "v": 80
    },
    {
      "midi": 45,
      "hit": false,
      "t": 32087.499999999964,
      "d": 66.66666666666788,
      "v": 80
    },
    {
      "midi": 59,
      "hit": false,
      "t": 32191.66666666663,
      "d": 75,
      "v": 77
    },
    {
      "midi": 60,
      "hit": false,
      "t": 32266.66666666663,
      "d": 137.49999999999636,
      "v": 66
    },
    {
      "midi": 52,
      "hit": false,
      "t": 32287.499999999964,
      "d": 50,
      "v": 63
    },
    {
      "midi": 59,
      "hit": false,
      "t": 32383.333333333296,
      "d": 75,
      "v": 74
    },
    {
      "midi": 40,
      "hit": false,
      "t": 32487.499999999964,
      "d": 116.66666666666788,
      "v": 77
    },
    {
      "midi": 57,
      "hit": false,
      "t": 32516.66666666663,
      "d": 95.83333333333212,
      "v": 80
    },
    {
      "midi": 56,
      "hit": false,
      "t": 32604.16666666663,
      "d": 66.66666666666424,
      "v": 65
    },
    {
      "midi": 52,
      "hit": false,
      "t": 32662.499999999964,
      "d": 74.99999999999636,
      "v": 68
    },
    {
      "midi": 57,
      "hit": false,
      "t": 32691.666666666628,
      "d": 104.16666666666424,
      "v": 71
    },
    {
      "midi": 59,
      "hit": false,
      "t": 32804.16666666663,
      "d": 87.50000000000728,
      "v": 86
    },
    {
      "midi": 45,
      "hit": false,
      "t": 32862.49999999996,
      "d": 87.50000000000728,
      "v": 95
    },
    {
      "midi": 60,
      "hit": false,
      "t": 32883.3333333333,
      "d": 66.66666666667152,
      "v": 80
    },
    {
      "midi": 62,
      "hit": false,
      "t": 32995.83333333331,
      "d": 58.33333333333576,
      "v": 80
    },
    {
      "midi": 52,
      "hit": false,
      "t": 33054.16666666664,
      "d": 66.66666666667152,
      "v": 74
    },
    {
      "midi": 64,
      "hit": false,
      "t": 33074.99999999998,
      "d": 66.66666666667152,
      "v": 80
    },
    {
      "midi": 40,
      "hit": false,
      "t": 33295.833333333314,
      "d": 112.49999999999272,
      "v": 68
    },
    {
      "midi": 72,
      "hit": false,
      "t": 33295.833333333314,
      "d": 112.49999999999272,
      "v": 50
    },
    {
      "midi": 66,
      "hit": false,
      "t": 33312.49999999998,
      "d": 104.16666666666424,
      "v": 65
    },
    {
      "midi": 64,
      "hit": false,
      "t": 33391.66666666664,
      "d": 66.66666666666424,
      "v": 68
    },
    {
      "midi": 60,
      "hit": false,
      "t": 33458.33333333331,
      "d": 66.66666666666424,
      "v": 74
    },
    {
      "midi": 52,
      "hit": false,
      "t": 33474.99999999997,
      "d": 37.5,
      "v": 62
    },
    {
      "midi": 72,
      "hit": false,
      "t": 33679.166666666635,
      "d": 120.83333333332848,
      "v": 66
    },
    {
      "midi": 45,
      "hit": false,
      "t": 33704.166666666635,
      "d": 95.83333333332848,
      "v": 77
    },
    {
      "midi": 68,
      "hit": false,
      "t": 33704.166666666635,
      "d": 124.99999999999272,
      "v": 63
    },
    {
      "midi": 64,
      "hit": false,
      "t": 33783.3333333333,
      "d": 87.5,
      "v": 69
    },
    {
      "midi": 52,
      "hit": false,
      "t": 33849.99999999996,
      "d": 45.83333333333576,
      "v": 63
    },
    {
      "midi": 60,
      "hit": false,
      "t": 33849.99999999996,
      "d": 66.66666666667152,
      "v": 72
    },
    {
      "midi": 72,
      "hit": false,
      "t": 34070.8333333333,
      "d": 141.66666666667152,
      "v": 71
    },
    {
      "midi": 40,
      "hit": false,
      "t": 34079.166666666635,
      "d": 116.66666666667152,
      "v": 77
    },
    {
      "midi": 66,
      "hit": false,
      "t": 34116.666666666635,
      "d": 116.66666666667152,
      "v": 63
    },
    {
      "midi": 64,
      "hit": false,
      "t": 34195.83333333331,
      "d": 83.33333333333576,
      "v": 74
    },
    {
      "midi": 52,
      "hit": false,
      "t": 34270.83333333331,
      "d": 50,
      "v": 71
    },
    {
      "midi": 60,
      "hit": false,
      "t": 34270.83333333331,
      "d": 66.66666666666424,
      "v": 71
    },
    {
      "midi": 45,
      "hit": false,
      "t": 34483.33333333331,
      "d": 58.33333333333576,
      "v": 107
    },
    {
      "midi": 52,
      "hit": false,
      "t": 34691.66666666664,
      "d": 66.66666666666424,
      "v": 46
    },
    {
      "midi": 57,
      "hit": false,
      "t": 34720.83333333331,
      "d": 95.83333333333576,
      "v": 71
    },
    {
      "midi": 59,
      "hit": false,
      "t": 34816.66666666664,
      "d": 66.66666666666424,
      "v": 66
    },
    {
      "midi": 40,
      "hit": false,
      "t": 34883.33333333331,
      "d": 79.16666666666424,
      "v": 71
    },
    {
      "midi": 60,
      "hit": false,
      "t": 34883.33333333331,
      "d": 108.33333333332848,
      "v": 58
    },
    {
      "midi": 59,
      "hit": false,
      "t": 34991.666666666635,
      "d": 75,
      "v": 77
    },
    {
      "midi": 52,
      "hit": false,
      "t": 35087.49999999997,
      "d": 37.5,
      "v": 63
    },
    {
      "midi": 57,
      "hit": false,
      "t": 35104.166666666635,
      "d": 79.16666666667152,
      "v": 69
    },
    {
      "midi": 56,
      "hit": false,
      "t": 35170.83333333331,
      "d": 66.66666666666424,
      "v": 72
    },
    {
      "midi": 57,
      "hit": false,
      "t": 35279.166666666635,
      "d": 75,
      "v": 83
    },
    {
      "midi": 45,
      "hit": false,
      "t": 35287.49999999997,
      "d": 37.5,
      "v": 80
    },
    {
      "midi": 59,
      "hit": false,
      "t": 35404.166666666635,
      "d": 54.16666666666424,
      "v": 74
    },
    {
      "midi": 60,
      "hit": false,
      "t": 35458.3333333333,
      "d": 116.66666666667152,
      "v": 72
    },
    {
      "midi": 52,
      "hit": false,
      "t": 35479.166666666635,
      "d": 37.5,
      "v": 62
    },
    {
      "midi": 59,
      "hit": false,
      "t": 35574.99999999997,
      "d": 58.33333333333576,
      "v": 80
    },
    {
      "midi": 40,
      "hit": false,
      "t": 35670.83333333331,
      "d": 37.5,
      "v": 75
    },
    {
      "midi": 57,
      "hit": false,
      "t": 35691.66666666664,
      "d": 75,
      "v": 63
    },
    {
      "midi": 56,
      "hit": false,
      "t": 35766.66666666664,
      "d": 75,
      "v": 63
    },
    {
      "midi": 52,
      "hit": false,
      "t": 35854.16666666664,
      "d": 54.16666666667152,
      "v": 68
    },
    {
      "midi": 57,
      "hit": false,
      "t": 35862.49999999998,
      "d": 87.5,
      "v": 80
    },
    {
      "midi": 59,
      "hit": false,
      "t": 35966.66666666664,
      "d": 87.5,
      "v": 86
    },
    {
      "midi": 60,
      "hit": false,
      "t": 36045.83333333331,
      "d": 54.16666666667152,
      "v": 80
    },
    {
      "midi": 45,
      "hit": false,
      "t": 36045.83333333331,
      "d": 66.66666666667152,
      "v": 86
    },
    {
      "midi": 62,
      "hit": false,
      "t": 36149.99999999998,
      "d": 66.66666666667152,
      "v": 80
    },
    {
      "midi": 52,
      "hit": false,
      "t": 36224.999999999985,
      "d": 50,
      "v": 69
    },
    {
      "midi": 64,
      "hit": false,
      "t": 36224.999999999985,
      "d": 66.66666666666424,
      "v": 90
    },
    {
      "midi": 72,
      "hit": false,
      "t": 36445.833333333314,
      "d": 95.83333333333576,
      "v": 69
    },
    {
      "midi": 66,
      "hit": false,
      "t": 36458.333333333314,
      "d": 120.83333333333576,
      "v": 60
    },
    {
      "midi": 40,
      "hit": false,
      "t": 36466.66666666665,
      "d": 87.5,
      "v": 71
    },
    {
      "midi": 64,
      "hit": false,
      "t": 36541.66666666665,
      "d": 66.66666666666424,
      "v": 77
    },
    {
      "midi": 60,
      "hit": false,
      "t": 36608.333333333314,
      "d": 58.33333333332848,
      "v": 71
    },
    {
      "midi": 52,
      "hit": false,
      "t": 36637.49999999998,
      "d": 50,
      "v": 63
    },
    {
      "midi": 72,
      "hit": false,
      "t": 36820.833333333314,
      "d": 104.16666666667152,
      "v": 63
    },
    {
      "midi": 68,
      "hit": false,
      "t": 36841.66666666665,
      "d": 104.16666666667152,
      "v": 65
    },
    {
      "midi": 45,
      "hit": false,
      "t": 36858.333333333314,
      "d": 79.16666666667152,
      "v": 77
    },
    {
      "midi": 64,
      "hit": false,
      "t": 36916.66666666665,
      "d": 75.00000000000728,
      "v": 71
    },
    {
      "midi": 60,
      "hit": false,
      "t": 36983.33333333332,
      "d": 66.66666666666424,
      "v": 72
    },
    {
      "midi": 52,
      "hit": false,
      "t": 37020.83333333332,
      "d": 50,
      "v": 58
    },
    {
      "midi": 72,
      "hit": false,
      "t": 37224.999999999985,
      "d": 112.5,
      "v": 58
    },
    {
      "midi": 66,
      "hit": false,
      "t": 37233.33333333332,
      "d": 125,
      "v": 63
    },
    {
      "midi": 40,
      "hit": false,
      "t": 37233.33333333332,
      "d": 170.83333333332848,
      "v": 71
    },
    {
      "midi": 64,
      "hit": false,
      "t": 37320.83333333332,
      "d": 95.83333333332848,
      "v": 74
    },
    {
      "midi": 52,
      "hit": false,
      "t": 37387.499999999985,
      "d": 45.83333333332848,
      "v": 68
    },
    {
      "midi": 60,
      "hit": false,
      "t": 37387.499999999985,
      "d": 66.66666666666424,
      "v": 72
    },
    {
      "midi": 52,
      "hit": false,
      "t": 37595.833333333314,
      "d": 58.33333333332848,
      "v": 70
    },
    {
      "midi": 64,
      "hit": false,
      "t": 37624.99999999998,
      "d": 29.16666666666424,
      "v": 66
    },
    {
      "midi": 65,
      "hit": false,
      "t": 37808.33333333331,
      "d": 45.83333333333576,
      "v": 72
    },
    {
      "midi": 62,
      "hit": false,
      "t": 37816.66666666664,
      "d": 29.16666666666424,
      "v": 77
    },
    {
      "midi": 59,
      "hit": false,
      "t": 38016.66666666664,
      "d": 41.66666666666424,
      "v": 80
    },
    {
      "midi": 69,
      "hit": false,
      "t": 38016.66666666664,
      "d": 41.66666666666424,
      "v": 71
    },
    {
      "midi": 71,
      "hit": false,
      "t": 38016.66666666664,
      "d": 41.66666666666424,
      "v": 68
    },
    {
      "midi": 74,
      "hit": false,
      "t": 38016.66666666664,
      "d": 58.33333333332848,
      "v": 86
    },
    {
      "midi": 52,
      "hit": false,
      "t": 38220.83333333331,
      "d": 37.5,
      "v": 72
    },
    {
      "midi": 64,
      "hit": false,
      "t": 38220.83333333331,
      "d": 37.5,
      "v": 71
    },
    {
      "midi": 62,
      "hit": false,
      "t": 38420.83333333331,
      "d": 37.5,
      "v": 72
    },
    {
      "midi": 65,
      "hit": false,
      "t": 38420.83333333331,
      "d": 50,
      "v": 72
    },
    {
      "midi": 59,
      "hit": false,
      "t": 38604.16666666664,
      "d": 66.66666666667152,
      "v": 86
    },
    {
      "midi": 69,
      "hit": false,
      "t": 38604.16666666664,
      "d": 125.00000000000728,
      "v": 77
    },
    {
      "midi": 74,
      "hit": false,
      "t": 38604.16666666664,
      "d": 125.00000000000728,
      "v": 83
    },
    {
      "midi": 71,
      "hit": false,
      "t": 38604.16666666664,
      "d": 141.66666666667152,
      "v": 77
    },
    {
      "midi": 64,
      "hit": false,
      "t": 38804.16666666665,
      "d": 50,
      "v": 77
    },
    {
      "midi": 52,
      "hit": false,
      "t": 38804.16666666665,
      "d": 66.66666666666424,
      "v": 77
    },
    {
      "midi": 62,
      "hit": false,
      "t": 39004.16666666665,
      "d": 41.66666666666424,
      "v": 69
    },
    {
      "midi": 65,
      "hit": false,
      "t": 39004.16666666665,
      "d": 41.66666666666424,
      "v": 65
    },
    {
      "midi": 59,
      "hit": false,
      "t": 39195.833333333314,
      "d": 50,
      "v": 83
    },
    {
      "midi": 74,
      "hit": false,
      "t": 39195.833333333314,
      "d": 204.16666666666424,
      "v": 80
    },
    {
      "midi": 69,
      "hit": false,
      "t": 39195.833333333314,
      "d": 212.5,
      "v": 71
    },
    {
      "midi": 71,
      "hit": false,
      "t": 39195.833333333314,
      "d": 212.5,
      "v": 77
    },
    {
      "midi": 52,
      "hit": false,
      "t": 39399.99999999998,
      "d": 66.66666666667152,
      "v": 80
    },
    {
      "midi": 64,
      "hit": false,
      "t": 39408.333333333314,
      "d": 37.5,
      "v": 66
    },
    {
      "midi": 62,
      "hit": false,
      "t": 39599.999999999985,
      "d": 37.5,
      "v": 74
    },
    {
      "midi": 65,
      "hit": false,
      "t": 39599.999999999985,
      "d": 66.66666666666424,
      "v": 74
    },
    {
      "midi": 59,
      "hit": false,
      "t": 39783.33333333332,
      "d": 37.500000000007276,
      "v": 90
    },
    {
      "midi": 71,
      "hit": false,
      "t": 39783.33333333332,
      "d": 37.500000000007276,
      "v": 63
    },
    {
      "midi": 74,
      "hit": false,
      "t": 39783.33333333332,
      "d": 37.500000000007276,
      "v": 74
    },
    {
      "midi": 69,
      "hit": false,
      "t": 39791.66666666666,
      "d": 29.166666666671517,
      "v": 71
    },
    {
      "midi": 65,
      "hit": false,
      "t": 39812.49999999999,
      "d": 25,
      "v": 49
    },
    {
      "midi": 60,
      "hit": false,
      "t": 39983.33333333333,
      "d": 58.33333333333576,
      "v": 90
    },
    {
      "midi": 69,
      "hit": false,
      "t": 40166.666666666664,
      "d": 37.5,
      "v": 77
    },
    {
      "midi": 66,
      "hit": false,
      "t": 40166.666666666664,
      "d": 45.83333333333576,
      "v": 72
    },
    {
      "midi": 75,
      "hit": false,
      "t": 40166.666666666664,
      "d": 45.83333333333576,
      "v": 72
    },
    {
      "midi": 57,
      "hit": false,
      "t": 40366.666666666664,
      "d": 58.33333333333576,
      "v": 101
    },
    {
      "midi": 72,
      "hit": false,
      "t": 40558.333333333336,
      "d": 75.00000000000728,
      "v": 77
    },
    {
      "midi": 63,
      "hit": false,
      "t": 40566.66666666667,
      "d": 58.33333333333576,
      "v": 68
    },
    {
      "midi": 66,
      "hit": false,
      "t": 40566.66666666667,
      "d": 66.66666666667152,
      "v": 63
    },
    {
      "midi": 44,
      "hit": false,
      "t": 40750.00000000001,
      "d": 58.33333333333576,
      "v": 95
    },
    {
      "midi": 56,
      "hit": false,
      "t": 40750.00000000001,
      "d": 58.33333333333576,
      "v": 90
    },
    {
      "midi": 57,
      "hit": false,
      "t": 40941.66666666668,
      "d": 45.83333333333576,
      "v": 60
    },
    {
      "midi": 54,
      "hit": false,
      "t": 40979.16666666668,
      "d": 37.5,
      "v": 60
    },
    {
      "midi": 61,
      "hit": false,
      "t": 41141.66666666668,
      "d": 175,
      "v": 65
    },
    {
      "midi": 63,
      "hit": false,
      "t": 41141.66666666668,
      "d": 175,
      "v": 66
    },
    {
      "midi": 66,
      "hit": false,
      "t": 41141.66666666668,
      "d": 175,
      "v": 63
    },
    {
      "midi": 51,
      "hit": false,
      "t": 41170.83333333334,
      "d": 37.5,
      "v": 60
    },
    {
      "midi": 44,
      "hit": false,
      "t": 41354.16666666668,
      "d": 45.83333333333576,
      "v": 83
    },
    {
      "midi": 56,
      "hit": false,
      "t": 41354.16666666668,
      "d": 45.83333333333576,
      "v": 83
    },
    {
      "midi": 54,
      "hit": false,
      "t": 41537.500000000015,
      "d": 45.83333333333576,
      "v": 74
    },
    {
      "midi": 57,
      "hit": false,
      "t": 41545.83333333335,
      "d": 45.83333333333576,
      "v": 68
    },
    {
      "midi": 63,
      "hit": false,
      "t": 41729.166666666686,
      "d": 54.16666666667152,
      "v": 68
    },
    {
      "midi": 61,
      "hit": false,
      "t": 41729.166666666686,
      "d": 66.66666666667152,
      "v": 63
    },
    {
      "midi": 51,
      "hit": false,
      "t": 41737.50000000002,
      "d": 58.33333333333576,
      "v": 69
    },
    {
      "midi": 66,
      "hit": false,
      "t": 41737.50000000002,
      "d": 58.33333333333576,
      "v": 60
    },
    {
      "midi": 56,
      "hit": false,
      "t": 41929.16666666669,
      "d": 58.33333333333576,
      "v": 83
    },
    {
      "midi": 44,
      "hit": false,
      "t": 41929.16666666669,
      "d": 66.66666666667152,
      "v": 90
    },
    {
      "midi": 57,
      "hit": false,
      "t": 42112.50000000003,
      "d": 83.33333333333576,
      "v": 77
    },
    {
      "midi": 54,
      "hit": false,
      "t": 42120.833333333365,
      "d": 58.33333333333576,
      "v": 77
    },
    {
      "midi": 51,
      "hit": false,
      "t": 42304.1666666667,
      "d": 66.66666666666424,
      "v": 74
    },
    {
      "midi": 61,
      "hit": false,
      "t": 42304.1666666667,
      "d": 66.66666666666424,
      "v": 68
    },
    {
      "midi": 63,
      "hit": false,
      "t": 42304.1666666667,
      "d": 66.66666666666424,
      "v": 77
    },
    {
      "midi": 66,
      "hit": false,
      "t": 42304.1666666667,
      "d": 66.66666666666424,
      "v": 68
    },
    {
      "midi": 44,
      "hit": false,
      "t": 42495.833333333365,
      "d": 54.16666666666424,
      "v": 83
    },
    {
      "midi": 56,
      "hit": false,
      "t": 42666.66666666669,
      "d": 45.83333333333576,
      "v": 74
    },
    {
      "midi": 57,
      "hit": false,
      "t": 42675.00000000003,
      "d": 79.16666666666424,
      "v": 80
    },
    {
      "midi": 61,
      "hit": false,
      "t": 42850.00000000003,
      "d": 54.16666666666424,
      "v": 63
    },
    {
      "midi": 63,
      "hit": false,
      "t": 42850.00000000003,
      "d": 54.16666666666424,
      "v": 72
    },
    {
      "midi": 66,
      "hit": false,
      "t": 42850.00000000003,
      "d": 83.33333333332848,
      "v": 71
    },
    {
      "midi": 54,
      "hit": false,
      "t": 42866.66666666669,
      "d": 37.5,
      "v": 69
    },
    {
      "midi": 57,
      "hit": false,
      "t": 42866.66666666669,
      "d": 37.5,
      "v": 65
    },
    {
      "midi": 52,
      "hit": false,
      "t": 43058.33333333336,
      "d": 558.3333333333285,
      "v": 90
    },
    {
      "midi": 56,
      "hit": false,
      "t": 43241.666666666686,
      "d": 45.83333333333576,
      "v": 72
    },
    {
      "midi": 62,
      "hit": false,
      "t": 43241.666666666686,
      "d": 75,
      "v": 80
    },
    {
      "midi": 64,
      "hit": false,
      "t": 43241.666666666686,
      "d": 75,
      "v": 72
    },
    {
      "midi": 40,
      "hit": false,
      "t": 43441.666666666686,
      "d": 212.5,
      "v": 95
    },
    {
      "midi": 64,
      "hit": false,
      "t": 43625.00000000002,
      "d": 58.33333333332848,
      "v": 80
    },
    {
      "midi": 62,
      "hit": false,
      "t": 43625.00000000002,
      "d": 66.66666666666424,
      "v": 86
    },
    {
      "midi": 71,
      "hit": false,
      "t": 43625.00000000002,
      "d": 66.66666666666424,
      "v": 86
    },
    {
      "midi": 45,
      "hit": false,
      "t": 43825.00000000002,
      "d": 58.33333333333576,
      "v": 101
    },
    {
      "midi": 57,
      "hit": false,
      "t": 44045.83333333336,
      "d": 79.16666666666424,
      "v": 69
    },
    {
      "midi": 52,
      "hit": false,
      "t": 44054.16666666669,
      "d": 41.66666666666424,
      "v": 66
    },
    {
      "midi": 59,
      "hit": false,
      "t": 44141.666666666686,
      "d": 79.16666666666424,
      "v": 68
    },
    {
      "midi": 60,
      "hit": false,
      "t": 44229.166666666686,
      "d": 87.5,
      "v": 56
    },
    {
      "midi": 40,
      "hit": false,
      "t": 44245.83333333335,
      "d": 50,
      "v": 68
    },
    {
      "midi": 59,
      "hit": false,
      "t": 44333.33333333335,
      "d": 50,
      "v": 60
    },
    {
      "midi": 52,
      "hit": false,
      "t": 44420.83333333335,
      "d": 45.83333333333576,
      "v": 54
    },
    {
      "midi": 57,
      "hit": false,
      "t": 44429.166666666686,
      "d": 79.16666666666424,
      "v": 65
    },
    {
      "midi": 56,
      "hit": false,
      "t": 44508.33333333335,
      "d": 66.66666666666424,
      "v": 66
    },
    {
      "midi": 45,
      "hit": false,
      "t": 44612.500000000015,
      "d": 37.5,
      "v": 77
    },
    {
      "midi": 57,
      "hit": false,
      "t": 44612.500000000015,
      "d": 87.5,
      "v": 80
    },
    {
      "midi": 59,
      "hit": false,
      "t": 44716.66666666668,
      "d": 66.66666666667152,
      "v": 74
    },
    {
      "midi": 52,
      "hit": false,
      "t": 44775.000000000015,
      "d": 58.33333333333576,
      "v": 62
    },
    {
      "midi": 60,
      "hit": false,
      "t": 44783.33333333335,
      "d": 116.66666666667152,
      "v": 69
    },
    {
      "midi": 59,
      "hit": false,
      "t": 44879.166666666686,
      "d": 79.16666666667152,
      "v": 72
    },
    {
      "midi": 40,
      "hit": false,
      "t": 44987.50000000002,
      "d": 45.83333333333576,
      "v": 80
    },
    {
      "midi": 57,
      "hit": false,
      "t": 45012.50000000002,
      "d": 70.83333333333576,
      "v": 69
    },
    {
      "midi": 56,
      "hit": false,
      "t": 45062.50000000002,
      "d": 87.5,
      "v": 66
    },
    {
      "midi": 57,
      "hit": false,
      "t": 45179.166666666686,
      "d": 95.83333333333576,
      "v": 77
    },
    {
      "midi": 52,
      "hit": false,
      "t": 45187.50000000002,
      "d": 58.33333333333576,
      "v": 65
    },
    {
      "midi": 59,
      "hit": false,
      "t": 45283.33333333336,
      "d": 87.5,
      "v": 80
    },
    {
      "midi": 60,
      "hit": false,
      "t": 45370.83333333336,
      "d": 66.66666666667152,
      "v": 74
    },
    {
      "midi": 45,
      "hit": false,
      "t": 45379.16666666669,
      "d": 45.83333333333576,
      "v": 83
    },
    {
      "midi": 62,
      "hit": false,
      "t": 45475.00000000003,
      "d": 66.66666666666424,
      "v": 66
    },
    {
      "midi": 52,
      "hit": false,
      "t": 45541.66666666669,
      "d": 45.83333333333576,
      "v": 69
    },
    {
      "midi": 64,
      "hit": false,
      "t": 45562.50000000003,
      "d": 66.66666666666424,
      "v": 77
    },
    {
      "midi": 72,
      "hit": false,
      "t": 45725.00000000003,
      "d": 191.66666666666424,
      "v": 50
    },
    {
      "midi": 40,
      "hit": false,
      "t": 45770.833333333365,
      "d": 66.66666666666424,
      "v": 74
    },
    {
      "midi": 66,
      "hit": false,
      "t": 45800.00000000003,
      "d": 116.66666666666424,
      "v": 58
    },
    {
      "midi": 64,
      "hit": false,
      "t": 45887.50000000003,
      "d": 66.66666666666424,
      "v": 58
    },
    {
      "midi": 60,
      "hit": false,
      "t": 45954.16666666669,
      "d": 66.66666666667152,
      "v": 74
    },
    {
      "midi": 52,
      "hit": false,
      "t": 45962.50000000003,
      "d": 37.5,
      "v": 62
    },
    {
      "midi": 72,
      "hit": false,
      "t": 46154.1666666667,
      "d": 116.66666666667152,
      "v": 69
    },
    {
      "midi": 45,
      "hit": false,
      "t": 46175.00000000004,
      "d": 75,
      "v": 77
    },
    {
      "midi": 68,
      "hit": false,
      "t": 46175.00000000004,
      "d": 112.5,
      "v": 63
    },
    {
      "midi": 64,
      "hit": false,
      "t": 46250.00000000004,
      "d": 87.5,
      "v": 72
    },
    {
      "midi": 52,
      "hit": false,
      "t": 46316.6666666667,
      "d": 50.000000000007276,
      "v": 68
    },
    {
      "midi": 60,
      "hit": false,
      "t": 46329.1666666667,
      "d": 54.16666666667152,
      "v": 69
    },
    {
      "midi": 72,
      "hit": false,
      "t": 46558.33333333337,
      "d": 95.83333333332848,
      "v": 54
    },
    {
      "midi": 40,
      "hit": false,
      "t": 46558.33333333337,
      "d": 112.49999999999272,
      "v": 80
    },
    {
      "midi": 66,
      "hit": false,
      "t": 46558.33333333337,
      "d": 124.99999999999272,
      "v": 58
    },
    {
      "midi": 64,
      "hit": false,
      "t": 46625.00000000004,
      "d": 112.49999999999272,
      "v": 65
    },
    {
      "midi": 60,
      "hit": false,
      "t": 46712.50000000003,
      "d": 75,
      "v": 77
    },
    {
      "midi": 52,
      "hit": false,
      "t": 46758.333333333365,
      "d": 58.33333333332848,
      "v": 77
    },
    {
      "midi": 45,
      "hit": false,
      "t": 46958.33333333336,
      "d": 58.33333333333576,
      "v": 101
    },
    {
      "midi": 52,
      "hit": false,
      "t": 47141.66666666669,
      "d": 58.33333333333576,
      "v": 71
    },
    {
      "midi": 69,
      "hit": false,
      "t": 47162.50000000003,
      "d": 66.66666666666424,
      "v": 74
    },
    {
      "midi": 71,
      "hit": false,
      "t": 47266.66666666669,
      "d": 58.33333333333576,
      "v": 58
    },
    {
      "midi": 72,
      "hit": false,
      "t": 47333.333333333365,
      "d": 87.5,
      "v": 58
    },
    {
      "midi": 40,
      "hit": false,
      "t": 47362.50000000003,
      "d": 58.33333333333576,
      "v": 68
    },
    {
      "midi": 71,
      "hit": false,
      "t": 47437.50000000003,
      "d": 58.33333333333576,
      "v": 63
    },
    {
      "midi": 52,
      "hit": false,
      "t": 47533.333333333365,
      "d": 50,
      "v": 65
    },
    {
      "midi": 69,
      "hit": false,
      "t": 47545.833333333365,
      "d": 75,
      "v": 72
    },
    {
      "midi": 68,
      "hit": false,
      "t": 47620.833333333365,
      "d": 66.66666666666424,
      "v": 69
    },
    {
      "midi": 69,
      "hit": false,
      "t": 47725.00000000003,
      "d": 79.16666666666424,
      "v": 74
    },
    {
      "midi": 45,
      "hit": false,
      "t": 47737.50000000003,
      "d": 66.66666666666424,
      "v": 95
    },
    {
      "midi": 71,
      "hit": false,
      "t": 47841.66666666669,
      "d": 58.33333333333576,
      "v": 77
    },
    {
      "midi": 72,
      "hit": false,
      "t": 47900.00000000003,
      "d": 133.33333333332848,
      "v": 72
    },
    {
      "midi": 52,
      "hit": false,
      "t": 47916.66666666669,
      "d": 58.33333333332848,
      "v": 68
    },
    {
      "midi": 71,
      "hit": false,
      "t": 48012.50000000002,
      "d": 79.16666666667152,
      "v": 74
    },
    {
      "midi": 40,
      "hit": false,
      "t": 48137.50000000003,
      "d": 66.66666666666424,
      "v": 74
    },
    {
      "midi": 69,
      "hit": false,
      "t": 48137.50000000003,
      "d": 79.16666666666424,
      "v": 68
    },
    {
      "midi": 68,
      "hit": false,
      "t": 48204.16666666669,
      "d": 79.16666666666424,
      "v": 72
    },
    {
      "midi": 52,
      "hit": false,
      "t": 48320.83333333336,
      "d": 66.66666666666424,
      "v": 66
    },
    {
      "midi": 69,
      "hit": false,
      "t": 48320.83333333336,
      "d": 87.5,
      "v": 74
    },
    {
      "midi": 71,
      "hit": false,
      "t": 48425.00000000002,
      "d": 79.16666666666424,
      "v": 80
    },
    {
      "midi": 72,
      "hit": false,
      "t": 48491.666666666686,
      "d": 79.16666666666424,
      "v": 77
    },
    {
      "midi": 45,
      "hit": false,
      "t": 48541.666666666686,
      "d": 58.33333333332848,
      "v": 95
    },
    {
      "midi": 74,
      "hit": false,
      "t": 48600.000000000015,
      "d": 66.66666666666424,
      "v": 80
    },
    {
      "midi": 76,
      "hit": false,
      "t": 48695.83333333334,
      "d": 66.66666666666424,
      "v": 86
    },
    {
      "midi": 52,
      "hit": false,
      "t": 48725.00000000001,
      "d": 66.66666666666424,
      "v": 74
    },
    {
      "midi": 84,
      "hit": false,
      "t": 48933.333333333336,
      "d": 116.66666666666424,
      "v": 71
    },
    {
      "midi": 78,
      "hit": false,
      "t": 48933.333333333336,
      "d": 133.33333333332848,
      "v": 60
    },
    {
      "midi": 40,
      "hit": false,
      "t": 48954.16666666667,
      "d": 112.49999999999272,
      "v": 74
    },
    {
      "midi": 76,
      "hit": false,
      "t": 49020.833333333336,
      "d": 95.83333333332848,
      "v": 66
    },
    {
      "midi": 72,
      "hit": false,
      "t": 49095.83333333333,
      "d": 79.16666666667152,
      "v": 77
    },
    {
      "midi": 52,
      "hit": false,
      "t": 49116.666666666664,
      "d": 45.83333333333576,
      "v": 68
    },
    {
      "midi": 84,
      "hit": false,
      "t": 49325,
      "d": 116.66666666666424,
      "v": 63
    },
    {
      "midi": 80,
      "hit": false,
      "t": 49337.5,
      "d": 112.5,
      "v": 69
    },
    {
      "midi": 45,
      "hit": false,
      "t": 49345.833333333336,
      "d": 95.83333333332848,
      "v": 90
    },
    {
      "midi": 76,
      "hit": false,
      "t": 49412.5,
      "d": 87.5,
      "v": 66
    },
    {
      "midi": 72,
      "hit": false,
      "t": 49479.166666666664,
      "d": 79.16666666666424,
      "v": 69
    },
    {
      "midi": 52,
      "hit": false,
      "t": 49491.666666666664,
      "d": 54.16666666666424,
      "v": 71
    },
    {
      "midi": 84,
      "hit": false,
      "t": 49699.99999999999,
      "d": 145.83333333333576,
      "v": 72
    },
    {
      "midi": 78,
      "hit": false,
      "t": 49720.83333333333,
      "d": 133.33333333333576,
      "v": 58
    },
    {
      "midi": 40,
      "hit": false,
      "t": 49720.83333333333,
      "d": 179.16666666666424,
      "v": 77
    },
    {
      "midi": 76,
      "hit": false,
      "t": 49804.166666666664,
      "d": 95.83333333332848,
      "v": 74
    },
    {
      "midi": 52,
      "hit": false,
      "t": 49883.33333333333,
      "d": 45.83333333332848,
      "v": 71
    },
    {
      "midi": 72,
      "hit": false,
      "t": 49883.33333333333,
      "d": 66.66666666666424,
      "v": 83
    },
    {
      "midi": 64,
      "hit": false,
      "t": 50091.66666666666,
      "d": 50,
      "v": 83
    },
    {
      "midi": 52,
      "hit": false,
      "t": 50091.66666666666,
      "d": 70.83333333333576,
      "v": 83
    },
    {
      "midi": 62,
      "hit": false,
      "t": 50295.83333333333,
      "d": 37.5,
      "v": 74
    },
    {
      "midi": 65,
      "hit": false,
      "t": 50295.83333333333,
      "d": 45.83333333333576,
      "v": 62
    },
    {
      "midi": 59,
      "hit": false,
      "t": 50495.83333333333,
      "d": 37.5,
      "v": 86
    },
    {
      "midi": 69,
      "hit": false,
      "t": 50495.83333333333,
      "d": 37.5,
      "v": 71
    },
    {
      "midi": 71,
      "hit": false,
      "t": 50495.83333333333,
      "d": 37.5,
      "v": 71
    },
    {
      "midi": 74,
      "hit": false,
      "t": 50495.83333333333,
      "d": 75,
      "v": 83
    },
    {
      "midi": 64,
      "hit": false,
      "t": 50695.83333333333,
      "d": 66.66666666667152,
      "v": 83
    },
    {
      "midi": 76,
      "hit": false,
      "t": 50708.33333333333,
      "d": 45.83333333333576,
      "v": 69
    },
    {
      "midi": 74,
      "hit": false,
      "t": 50900,
      "d": 54.16666666666424,
      "v": 83
    },
    {
      "midi": 77,
      "hit": false,
      "t": 50900,
      "d": 66.66666666666424,
      "v": 77
    },
    {
      "midi": 71,
      "hit": false,
      "t": 51100,
      "d": 29.16666666666424,
      "v": 80
    },
    {
      "midi": 81,
      "hit": false,
      "t": 51100,
      "d": 29.16666666666424,
      "v": 80
    },
    {
      "midi": 83,
      "hit": false,
      "t": 51100,
      "d": 29.16666666666424,
      "v": 71
    },
    {
      "midi": 86,
      "hit": false,
      "t": 51100,
      "d": 29.16666666666424,
      "v": 80
    },
    {
      "midi": 52,
      "hit": false,
      "t": 51291.666666666664,
      "d": 66.66666666666424,
      "v": 83
    },
    {
      "midi": 64,
      "hit": false,
      "t": 51291.666666666664,
      "d": 66.66666666666424,
      "v": 90
    },
    {
      "midi": 65,
      "hit": false,
      "t": 51483.33333333333,
      "d": 75,
      "v": 80
    },
    {
      "midi": 62,
      "hit": false,
      "t": 51491.666666666664,
      "d": 66.66666666666424,
      "v": 80
    },
    {
      "midi": 69,
      "hit": false,
      "t": 51683.33333333333,
      "d": 50,
      "v": 80
    },
    {
      "midi": 71,
      "hit": false,
      "t": 51683.33333333333,
      "d": 50,
      "v": 74
    },
    {
      "midi": 59,
      "hit": false,
      "t": 51683.33333333333,
      "d": 66.66666666666424,
      "v": 95
    },
    {
      "midi": 74,
      "hit": false,
      "t": 51683.33333333333,
      "d": 79.16666666666424,
      "v": 83
    },
    {
      "midi": 64,
      "hit": false,
      "t": 51895.83333333333,
      "d": 45.83333333333576,
      "v": 80
    },
    {
      "midi": 76,
      "hit": false,
      "t": 51904.166666666664,
      "d": 29.16666666666424,
      "v": 80
    },
    {
      "midi": 74,
      "hit": false,
      "t": 52087.5,
      "d": 37.5,
      "v": 66
    },
    {
      "midi": 77,
      "hit": false,
      "t": 52104.166666666664,
      "d": 58.33333333333576,
      "v": 77
    },
    {
      "midi": 81,
      "hit": false,
      "t": 52279.166666666664,
      "d": 37.5,
      "v": 80
    },
    {
      "midi": 83,
      "hit": false,
      "t": 52279.166666666664,
      "d": 37.5,
      "v": 72
    },
    {
      "midi": 71,
      "hit": false,
      "t": 52279.166666666664,
      "d": 45.83333333333576,
      "v": 90
    },
    {
      "midi": 86,
      "hit": false,
      "t": 52279.166666666664,
      "d": 66.66666666667152,
      "v": 86
    },
    {
      "midi": 72,
      "hit": false,
      "t": 52487.5,
      "d": 41.66666666666424,
      "v": 90
    },
    {
      "midi": 60,
      "hit": false,
      "t": 52487.5,
      "d": 58.33333333332848,
      "v": 86
    },
    {
      "midi": 78,
      "hit": false,
      "t": 52679.166666666664,
      "d": 41.66666666666424,
      "v": 77
    },
    {
      "midi": 81,
      "hit": false,
      "t": 52679.166666666664,
      "d": 41.66666666666424,
      "v": 80
    },
    {
      "midi": 87,
      "hit": false,
      "t": 52679.166666666664,
      "d": 41.66666666666424,
      "v": 83
    },
    {
      "midi": 57,
      "hit": false,
      "t": 52883.33333333333,
      "d": 58.33333333332848,
      "v": 101
    },
    {
      "midi": 69,
      "hit": false,
      "t": 52883.33333333333,
      "d": 58.33333333332848,
      "v": 101
    },
    {
      "midi": 75,
      "hit": false,
      "t": 53083.33333333332,
      "d": 58.33333333333576,
      "v": 72
    },
    {
      "midi": 78,
      "hit": false,
      "t": 53083.33333333332,
      "d": 66.66666666667152,
      "v": 68
    },
    {
      "midi": 84,
      "hit": false,
      "t": 53083.33333333332,
      "d": 66.66666666667152,
      "v": 77
    },
    {
      "midi": 56,
      "hit": false,
      "t": 53283.33333333332,
      "d": 58.33333333333576,
      "v": 95
    },
    {
      "midi": 68,
      "hit": false,
      "t": 53283.33333333332,
      "d": 58.33333333333576,
      "v": 104
    },
    {
      "midi": 69,
      "hit": false,
      "t": 53474.99999999999,
      "d": 50,
      "v": 72
    },
    {
      "midi": 66,
      "hit": false,
      "t": 53504.16666666666,
      "d": 50,
      "v": 71
    },
    {
      "midi": 73,
      "hit": false,
      "t": 53679.16666666666,
      "d": 45.83333333332848,
      "v": 71
    },
    {
      "midi": 75,
      "hit": false,
      "t": 53679.16666666666,
      "d": 45.83333333332848,
      "v": 66
    },
    {
      "midi": 78,
      "hit": false,
      "t": 53679.16666666666,
      "d": 66.66666666666424,
      "v": 72
    },
    {
      "midi": 63,
      "hit": false,
      "t": 53708.33333333332,
      "d": 25,
      "v": 69
    },
    {
      "midi": 64,
      "hit": false,
      "t": 53887.499999999985,
      "d": 58.33333333333576,
      "v": 83
    },
    {
      "midi": 52,
      "hit": false,
      "t": 53887.499999999985,
      "d": 66.66666666667152,
      "v": 86
    },
    {
      "midi": 65,
      "hit": false,
      "t": 54079.16666666666,
      "d": 66.66666666666424,
      "v": 80
    },
    {
      "midi": 62,
      "hit": false,
      "t": 54091.66666666666,
      "d": 66.66666666666424,
      "v": 80
    },
    {
      "midi": 59,
      "hit": false,
      "t": 54270.83333333332,
      "d": 50,
      "v": 90
    },
    {
      "midi": 65,
      "hit": false,
      "t": 54270.83333333332,
      "d": 50,
      "v": 72
    },
    {
      "midi": 69,
      "hit": false,
      "t": 54270.83333333332,
      "d": 50,
      "v": 80
    },
    {
      "midi": 71,
      "hit": false,
      "t": 54270.83333333332,
      "d": 50,
      "v": 71
    },
    {
      "midi": 74,
      "hit": false,
      "t": 54270.83333333332,
      "d": 50,
      "v": 83
    },
    {
      "midi": 44,
      "hit": false,
      "t": 54474.999999999985,
      "d": 45.83333333333576,
      "v": 101
    },
    {
      "midi": 56,
      "hit": false,
      "t": 54474.999999999985,
      "d": 45.83333333333576,
      "v": 95
    },
    {
      "midi": 57,
      "hit": false,
      "t": 54645.83333333332,
      "d": 66.66666666667152,
      "v": 80
    },
    {
      "midi": 54,
      "hit": false,
      "t": 54666.66666666666,
      "d": 54.16666666667152,
      "v": 77
    },
    {
      "midi": 63,
      "hit": false,
      "t": 54829.166666666664,
      "d": 54.16666666666424,
      "v": 80
    },
    {
      "midi": 61,
      "hit": false,
      "t": 54837.5,
      "d": 58.33333333332848,
      "v": 66
    },
    {
      "midi": 66,
      "hit": false,
      "t": 54837.5,
      "d": 66.66666666666424,
      "v": 72
    },
    {
      "midi": 51,
      "hit": false,
      "t": 54866.666666666664,
      "d": 37.5,
      "v": 68
    },
    {
      "midi": 52,
      "hit": false,
      "t": 55037.5,
      "d": 50,
      "v": 80
    },
    {
      "midi": 40,
      "hit": false,
      "t": 55037.5,
      "d": 58.33333333333576,
      "v": 95
    },
    {
      "midi": 53,
      "hit": false,
      "t": 55229.16666666667,
      "d": 87.50000000000728,
      "v": 71
    },
    {
      "midi": 50,
      "hit": false,
      "t": 55250.00000000001,
      "d": 58.33333333333576,
      "v": 80
    },
    {
      "midi": 47,
      "hit": false,
      "t": 55412.500000000015,
      "d": 45.83333333333576,
      "v": 90
    },
    {
      "midi": 57,
      "hit": false,
      "t": 55412.500000000015,
      "d": 66.66666666667152,
      "v": 72
    },
    {
      "midi": 59,
      "hit": false,
      "t": 55412.500000000015,
      "d": 66.66666666667152,
      "v": 71
    },
    {
      "midi": 62,
      "hit": false,
      "t": 55412.500000000015,
      "d": 66.66666666667152,
      "v": 74
    },
    {
      "midi": 52,
      "hit": false,
      "t": 55604.166666666686,
      "d": 66.66666666667152,
      "v": 80
    },
    {
      "midi": 40,
      "hit": false,
      "t": 55612.50000000002,
      "d": 37.5,
      "v": 80
    },
    {
      "midi": 64,
      "hit": false,
      "t": 55612.50000000002,
      "d": 58.33333333333576,
      "v": 80
    },
    {
      "midi": 54,
      "hit": false,
      "t": 55787.50000000002,
      "d": 54.16666666667152,
      "v": 72
    },
    {
      "midi": 50,
      "hit": false,
      "t": 55795.83333333336,
      "d": 37.5,
      "v": 72
    },
    {
      "midi": 66,
      "hit": false,
      "t": 55795.83333333336,
      "d": 45.83333333333576,
      "v": 77
    },
    {
      "midi": 38,
      "hit": false,
      "t": 55804.16666666669,
      "d": 37.5,
      "v": 67
    },
    {
      "midi": 36,
      "hit": false,
      "t": 55979.1666666667,
      "d": 45.83333333333576,
      "v": 80
    },
    {
      "midi": 48,
      "hit": false,
      "t": 55979.1666666667,
      "d": 45.83333333333576,
      "v": 80
    },
    {
      "midi": 55,
      "hit": false,
      "t": 55979.1666666667,
      "d": 54.16666666667152,
      "v": 86
    },
    {
      "midi": 67,
      "hit": false,
      "t": 55979.1666666667,
      "d": 54.16666666667152,
      "v": 95
    },
    {
      "midi": 47,
      "hit": false,
      "t": 56170.83333333337,
      "d": 54.16666666666424,
      "v": 90
    },
    {
      "midi": 56,
      "hit": false,
      "t": 56170.83333333337,
      "d": 54.16666666666424,
      "v": 86
    },
    {
      "midi": 68,
      "hit": false,
      "t": 56170.83333333337,
      "d": 54.16666666666424,
      "v": 83
    },
    {
      "midi": 35,
      "hit": false,
      "t": 56187.50000000004,
      "d": 37.5,
      "v": 83
    },
    {
      "midi": 33,
      "hit": false,
      "t": 56370.83333333337,
      "d": 45.83333333333576,
      "v": 107
    },
    {
      "midi": 45,
      "hit": false,
      "t": 56370.83333333337,
      "d": 45.83333333333576,
      "v": 107
    },
    {
      "midi": 57,
      "hit": false,
      "t": 56370.83333333337,
      "d": 200,
      "v": 104
    },
    {
      "midi": 69,
      "hit": false,
      "t": 56370.83333333337,
      "d": 2337.5000000000364,
      "v": 104
    },
    {
      "midi": 61,
      "hit": false,
      "t": 56541.66666666671,
      "d": 66.66666666666424,
      "v": 60
    },
    {
      "midi": 66,
      "hit": false,
      "t": 56541.66666666671,
      "d": 79.16666666666424,
      "v": 65
    },
    {
      "midi": 52,
      "hit": false,
      "t": 56570.83333333337,
      "d": 58.33333333333576,
      "v": 77
    },
    {
      "midi": 40,
      "hit": false,
      "t": 56783.33333333337,
      "d": 154.16666666666424,
      "v": 71
    },
    {
      "midi": 56,
      "hit": false,
      "t": 56966.6666666667,
      "d": 54.16666666666424,
      "v": 50
    },
    {
      "midi": 62,
      "hit": false,
      "t": 56966.6666666667,
      "d": 54.16666666666424,
      "v": 40
    },
    {
      "midi": 66,
      "hit": false,
      "t": 56983.333333333365,
      "d": 50,
      "v": 50
    },
    {
      "midi": 52,
      "hit": false,
      "t": 56991.6666666667,
      "d": 70.83333333332848,
      "v": 56
    },
    {
      "midi": 45,
      "hit": false,
      "t": 57195.833333333365,
      "d": 170.83333333333576,
      "v": 60
    },
    {
      "midi": 61,
      "hit": false,
      "t": 57375.00000000004,
      "d": 58.33333333333576,
      "v": 50
    },
    {
      "midi": 57,
      "hit": false,
      "t": 57387.50000000004,
      "d": 58.33333333333576,
      "v": 60
    },
    {
      "midi": 66,
      "hit": false,
      "t": 57387.50000000004,
      "d": 58.33333333333576,
      "v": 37
    },
    {
      "midi": 52,
      "hit": false,
      "t": 57387.50000000004,
      "d": 75,
      "v": 54
    },
    {
      "midi": 40,
      "hit": false,
      "t": 57579.1666666667,
      "d": 191.66666666667152,
      "v": 59
    },
    {
      "midi": 56,
      "hit": false,
      "t": 57787.50000000004,
      "d": 58.33333333333576,
      "v": 44
    },
    {
      "midi": 62,
      "hit": false,
      "t": 57787.50000000004,
      "d": 66.66666666667152,
      "v": 62
    },
    {
      "midi": 52,
      "hit": false,
      "t": 57800.00000000004,
      "d": 54.16666666667152,
      "v": 54
    },
    {
      "midi": 66,
      "hit": false,
      "t": 57800.00000000004,
      "d": 66.66666666667152,
      "v": 46
    },
    {
      "midi": 45,
      "hit": false,
      "t": 58000.000000000044,
      "d": 170.83333333333576,
      "v": 63
    },
    {
      "midi": 66,
      "hit": false,
      "t": 58183.33333333338,
      "d": 45.833333333343035,
      "v": 54
    },
    {
      "midi": 61,
      "hit": false,
      "t": 58191.666666666715,
      "d": 29.166666666671517,
      "v": 37
    },
    {
      "midi": 52,
      "hit": false,
      "t": 58191.666666666715,
      "d": 58.333333333343035,
      "v": 50
    },
    {
      "midi": 57,
      "hit": false,
      "t": 58200.00000000005,
      "d": 37.500000000007276,
      "v": 39
    },
    {
      "midi": 40,
      "hit": false,
      "t": 58383.333333333394,
      "d": 183.33333333333576,
      "v": 62
    },
    {
      "midi": 56,
      "hit": false,
      "t": 58566.66666666673,
      "d": 54.16666666667152,
      "v": 50
    },
    {
      "midi": 62,
      "hit": false,
      "t": 58575.000000000065,
      "d": 66.66666666667152,
      "v": 58
    },
    {
      "midi": 66,
      "hit": false,
      "t": 58575.000000000065,
      "d": 125.00000000000728,
      "v": 56
    },
    {
      "midi": 52,
      "hit": false,
      "t": 58595.8333333334,
      "d": 45.83333333333576,
      "v": 52
    },
    {
      "midi": 45,
      "hit": false,
      "t": 58775.00000000007,
      "d": 145.83333333333576,
      "v": 80
    },
    {
      "midi": 57,
      "hit": false,
      "t": 58883.33333333341,
      "d": 112.5,
      "v": 72
    },
    {
      "midi": 52,
      "hit": false,
      "t": 58929.166666666744,
      "d": 75,
      "v": 60
    },
    {
      "midi": 61,
      "hit": false,
      "t": 58966.666666666744,
      "d": 108.33333333333576,
      "v": 60
    },
    {
      "midi": 64,
      "hit": false,
      "t": 59054.166666666744,
      "d": 75,
      "v": 50
    },
    {
      "midi": 66,
      "hit": false,
      "t": 59129.166666666744,
      "d": 41.66666666666424,
      "v": 68
    },
    {
      "midi": 40,
      "hit": false,
      "t": 59129.166666666744,
      "d": 162.5,
      "v": 86
    },
    {
      "midi": 69,
      "hit": false,
      "t": 59283.33333333341,
      "d": 95.83333333333576,
      "v": 80
    },
    {
      "midi": 52,
      "hit": false,
      "t": 59312.50000000008,
      "d": 95.83333333333576,
      "v": 68
    },
    {
      "midi": 73,
      "hit": false,
      "t": 59350.00000000008,
      "d": 87.50000000000728,
      "v": 68
    },
    {
      "midi": 76,
      "hit": false,
      "t": 59400.00000000008,
      "d": 75.00000000000728,
      "v": 68
    },
    {
      "midi": 78,
      "hit": false,
      "t": 59512.50000000009,
      "d": 145.83333333333576,
      "v": 80
    },
    {
      "midi": 69,
      "hit": false,
      "t": 59533.33333333342,
      "d": 58.33333333333576,
      "v": 101
    },
    {
      "midi": 73,
      "hit": false,
      "t": 59533.33333333342,
      "d": 75,
      "v": 77
    },
    {
      "midi": 76,
      "hit": false,
      "t": 59533.33333333342,
      "d": 87.5,
      "v": 80
    },
    {
      "midi": 45,
      "hit": false,
      "t": 59533.33333333342,
      "d": 162.5,
      "v": 104
    },
    {
      "midi": 81,
      "hit": false,
      "t": 59533.33333333342,
      "d": 2933.3333333333867,
      "v": 90
    },
    {
      "midi": 73,
      "hit": false,
      "t": 59725.00000000009,
      "d": 37.500000000007276,
      "v": 71
    },
    {
      "midi": 69,
      "hit": false,
      "t": 59733.33333333342,
      "d": 29.166666666671517,
      "v": 74
    },
    {
      "midi": 76,
      "hit": false,
      "t": 59733.33333333342,
      "d": 37.500000000007276,
      "v": 60
    },
    {
      "midi": 78,
      "hit": false,
      "t": 59733.33333333342,
      "d": 58.333333333343035,
      "v": 52
    },
    {
      "midi": 52,
      "hit": false,
      "t": 59754.16666666676,
      "d": 37.500000000007276,
      "v": 58
    },
    {
      "midi": 40,
      "hit": false,
      "t": 59925.0000000001,
      "d": 220.83333333333576,
      "v": 71
    },
    {
      "midi": 74,
      "hit": false,
      "t": 60129.166666666766,
      "d": 45.833333333343035,
      "v": 66
    },
    {
      "midi": 68,
      "hit": false,
      "t": 60129.166666666766,
      "d": 54.16666666667879,
      "v": 52
    },
    {
      "midi": 78,
      "hit": false,
      "t": 60137.5000000001,
      "d": 45.833333333343035,
      "v": 56
    },
    {
      "midi": 52,
      "hit": false,
      "t": 60154.16666666677,
      "d": 50.000000000007276,
      "v": 58
    },
    {
      "midi": 45,
      "hit": false,
      "t": 60345.833333333445,
      "d": 204.16666666667152,
      "v": 65
    },
    {
      "midi": 78,
      "hit": false,
      "t": 60520.833333333445,
      "d": 66.66666666667152,
      "v": 58
    },
    {
      "midi": 73,
      "hit": false,
      "t": 60529.16666666678,
      "d": 37.5,
      "v": 54
    },
    {
      "midi": 69,
      "hit": false,
      "t": 60537.50000000012,
      "d": 50,
      "v": 52
    },
    {
      "midi": 52,
      "hit": false,
      "t": 60550.00000000012,
      "d": 58.33333333333576,
      "v": 52
    },
    {
      "midi": 40,
      "hit": false,
      "t": 60741.66666666679,
      "d": 200,
      "v": 56
    },
    {
      "midi": 68,
      "hit": false,
      "t": 60920.83333333345,
      "d": 58.33333333333576,
      "v": 52
    },
    {
      "midi": 74,
      "hit": false,
      "t": 60933.33333333345,
      "d": 45.83333333333576,
      "v": 56
    },
    {
      "midi": 52,
      "hit": false,
      "t": 60933.33333333345,
      "d": 58.33333333333576,
      "v": 58
    },
    {
      "midi": 78,
      "hit": false,
      "t": 60933.33333333345,
      "d": 66.66666666667152,
      "v": 46
    },
    {
      "midi": 45,
      "hit": false,
      "t": 61133.33333333346,
      "d": 183.33333333333576,
      "v": 60
    },
    {
      "midi": 73,
      "hit": false,
      "t": 61325.00000000013,
      "d": 37.5,
      "v": 50
    },
    {
      "midi": 52,
      "hit": false,
      "t": 61325.00000000013,
      "d": 66.66666666667152,
      "v": 52
    },
    {
      "midi": 78,
      "hit": false,
      "t": 61325.00000000013,
      "d": 66.66666666667152,
      "v": 58
    },
    {
      "midi": 69,
      "hit": false,
      "t": 61345.83333333347,
      "d": 37.5,
      "v": 52
    },
    {
      "midi": 40,
      "hit": false,
      "t": 61537.50000000014,
      "d": 179.16666666666424,
      "v": 60
    },
    {
      "midi": 68,
      "hit": false,
      "t": 61716.6666666668,
      "d": 50,
      "v": 42
    },
    {
      "midi": 74,
      "hit": false,
      "t": 61716.6666666668,
      "d": 50,
      "v": 60
    },
    {
      "midi": 78,
      "hit": false,
      "t": 61716.6666666668,
      "d": 66.66666666666424,
      "v": 54
    },
    {
      "midi": 52,
      "hit": false,
      "t": 61737.50000000014,
      "d": 45.83333333332848,
      "v": 54
    },
    {
      "midi": 45,
      "hit": false,
      "t": 61937.50000000013,
      "d": 183.33333333333576,
      "v": 58
    },
    {
      "midi": 73,
      "hit": false,
      "t": 62120.83333333347,
      "d": 37.5,
      "v": 56
    },
    {
      "midi": 69,
      "hit": false,
      "t": 62120.83333333347,
      "d": 45.83333333333576,
      "v": 63
    },
    {
      "midi": 78,
      "hit": false,
      "t": 62120.83333333347,
      "d": 66.66666666667152,
      "v": 62
    },
    {
      "midi": 52,
      "hit": false,
      "t": 62141.6666666668,
      "d": 45.83333333333576,
      "v": 52
    },
    {
      "midi": 40,
      "hit": false,
      "t": 62320.833333333474,
      "d": 191.66666666667152,
      "v": 63
    },
    {
      "midi": 74,
      "hit": false,
      "t": 62512.500000000146,
      "d": 50,
      "v": 66
    },
    {
      "midi": 52,
      "hit": false,
      "t": 62512.500000000146,
      "d": 58.33333333333576,
      "v": 58
    },
    {
      "midi": 78,
      "hit": false,
      "t": 62512.500000000146,
      "d": 58.33333333333576,
      "v": 63
    },
    {
      "midi": 68,
      "hit": false,
      "t": 62512.500000000146,
      "d": 79.16666666667152,
      "v": 50
    },
    {
      "midi": 45,
      "hit": false,
      "t": 62725.00000000015,
      "d": 141.66666666667152,
      "v": 80
    },
    {
      "midi": 57,
      "hit": false,
      "t": 62866.666666666824,
      "d": 79.16666666667152,
      "v": 54
    },
    {
      "midi": 52,
      "hit": false,
      "t": 62887.50000000016,
      "d": 66.66666666667152,
      "v": 56
    },
    {
      "midi": 61,
      "hit": false,
      "t": 62933.333333333496,
      "d": 125,
      "v": 62
    },
    {
      "midi": 64,
      "hit": false,
      "t": 63029.16666666683,
      "d": 87.5,
      "v": 56
    },
    {
      "midi": 40,
      "hit": false,
      "t": 63100.00000000016,
      "d": 170.83333333334303,
      "v": 71
    },
    {
      "midi": 66,
      "hit": false,
      "t": 63108.333333333496,
      "d": 37.500000000007276,
      "v": 71
    },
    {
      "midi": 69,
      "hit": false,
      "t": 63250.00000000017,
      "d": 108.33333333333576,
      "v": 72
    },
    {
      "midi": 52,
      "hit": false,
      "t": 63279.16666666684,
      "d": 79.16666666666424,
      "v": 60
    },
    {
      "midi": 73,
      "hit": false,
      "t": 63358.3333333335,
      "d": 66.66666666667152,
      "v": 58
    },
    {
      "midi": 76,
      "hit": false,
      "t": 63404.16666666684,
      "d": 95.83333333333576,
      "v": 58
    },
    {
      "midi": 78,
      "hit": false,
      "t": 63491.66666666684,
      "d": 141.66666666666424,
      "v": 65
    },
    {
      "midi": 45,
      "hit": false,
      "t": 63491.66666666684,
      "d": 162.5,
      "v": 83
    },
    {
      "midi": 76,
      "hit": false,
      "t": 63604.16666666684,
      "d": 87.50000000000728,
      "v": 71
    },
    {
      "midi": 73,
      "hit": false,
      "t": 63675.000000000175,
      "d": 66.66666666667152,
      "v": 65
    },
    {
      "midi": 52,
      "hit": false,
      "t": 63683.33333333351,
      "d": 66.66666666667152,
      "v": 56
    },
    {
      "midi": 69,
      "hit": false,
      "t": 63758.33333333352,
      "d": 50,
      "v": 68
    },
    {
      "midi": 40,
      "hit": false,
      "t": 63854.16666666685,
      "d": 204.16666666667152,
      "v": 73
    },
    {
      "midi": 66,
      "hit": false,
      "t": 63875.00000000019,
      "d": 66.66666666666424,
      "v": 56
    },
    {
      "midi": 64,
      "hit": false,
      "t": 63950.00000000019,
      "d": 116.66666666667152,
      "v": 68
    },
    {
      "midi": 61,
      "hit": false,
      "t": 64037.50000000019,
      "d": 87.50000000000728,
      "v": 58
    },
    {
      "midi": 52,
      "hit": false,
      "t": 64045.833333333525,
      "d": 79.16666666667152,
      "v": 60
    },
    {
      "midi": 57,
      "hit": false,
      "t": 64112.5000000002,
      "d": 125,
      "v": 74
    },
    {
      "midi": 61,
      "hit": false,
      "t": 64220.83333333353,
      "d": 54.16666666666424,
      "v": 80
    },
    {
      "midi": 45,
      "hit": false,
      "t": 64237.5000000002,
      "d": 183.33333333333576,
      "v": 83
    },
    {
      "midi": 69,
      "hit": false,
      "t": 64400.0000000002,
      "d": 79.16666666667152,
      "v": 83
    },
    {
      "midi": 52,
      "hit": false,
      "t": 64429.16666666687,
      "d": 79.16666666666424,
      "v": 63
    },
    {
      "midi": 73,
      "hit": false,
      "t": 64479.16666666687,
      "d": 95.83333333332848,
      "v": 71
    },
    {
      "midi": 76,
      "hit": false,
      "t": 64562.5000000002,
      "d": 87.5,
      "v": 65
    },
    {
      "midi": 78,
      "hit": false,
      "t": 64633.33333333353,
      "d": 54.16666666666424,
      "v": 68
    },
    {
      "midi": 40,
      "hit": false,
      "t": 64633.33333333353,
      "d": 191.66666666666424,
      "v": 74
    },
    {
      "midi": 81,
      "hit": false,
      "t": 64775.0000000002,
      "d": 87.5,
      "v": 71
    },
    {
      "midi": 52,
      "hit": false,
      "t": 64825.0000000002,
      "d": 75,
      "v": 65
    },
    {
      "midi": 85,
      "hit": false,
      "t": 64850.0000000002,
      "d": 87.5,
      "v": 66
    },
    {
      "midi": 88,
      "hit": false,
      "t": 64937.5000000002,
      "d": 79.16666666666424,
      "v": 66
    },
    {
      "midi": 90,
      "hit": false,
      "t": 65004.16666666686,
      "d": 145.83333333333576,
      "v": 72
    },
    {
      "midi": 45,
      "hit": false,
      "t": 65025.0000000002,
      "d": 191.66666666667152,
      "v": 86
    },
    {
      "midi": 88,
      "hit": false,
      "t": 65120.83333333353,
      "d": 87.5,
      "v": 80
    },
    {
      "midi": 85,
      "hit": false,
      "t": 65187.5000000002,
      "d": 75.00000000000728,
      "v": 62
    },
    {
      "midi": 52,
      "hit": false,
      "t": 65216.66666666687,
      "d": 95.83333333333576,
      "v": 62
    },
    {
      "midi": 81,
      "hit": false,
      "t": 65275.000000000204,
      "d": 66.66666666666424,
      "v": 72
    },
    {
      "midi": 44,
      "hit": false,
      "t": 65387.500000000204,
      "d": 204.16666666667152,
      "v": 72
    },
    {
      "midi": 78,
      "hit": false,
      "t": 65408.33333333354,
      "d": 58.33333333333576,
      "v": 50
    },
    {
      "midi": 76,
      "hit": false,
      "t": 65475.00000000021,
      "d": 104.16666666666424,
      "v": 66
    },
    {
      "midi": 73,
      "hit": false,
      "t": 65550.0000000002,
      "d": 87.5,
      "v": 62
    },
    {
      "midi": 52,
      "hit": false,
      "t": 65579.16666666688,
      "d": 95.83333333332848,
      "v": 63
    },
    {
      "midi": 69,
      "hit": false,
      "t": 65637.5000000002,
      "d": 125,
      "v": 71
    },
    {
      "midi": 73,
      "hit": false,
      "t": 65741.66666666688,
      "d": 66.66666666665697,
      "v": 86
    },
    {
      "midi": 42,
      "hit": false,
      "t": 65741.66666666688,
      "d": 174.99999999998545,
      "v": 74
    },
    {
      "midi": 57,
      "hit": false,
      "t": 65925.00000000019,
      "d": 116.66666666665697,
      "v": 77
    },
    {
      "midi": 47,
      "hit": false,
      "t": 65933.33333333352,
      "d": 58.33333333332848,
      "v": 69
    },
    {
      "midi": 61,
      "hit": false,
      "t": 66000.00000000017,
      "d": 108.33333333334303,
      "v": 65
    },
    {
      "midi": 63,
      "hit": false,
      "t": 66070.83333333352,
      "d": 75,
      "v": 66
    },
    {
      "midi": 35,
      "hit": false,
      "t": 66108.33333333352,
      "d": 208.33333333334303,
      "v": 71
    },
    {
      "midi": 66,
      "hit": false,
      "t": 66137.50000000019,
      "d": 37.5,
      "v": 58
    },
    {
      "midi": 69,
      "hit": false,
      "t": 66250.00000000019,
      "d": 79.16666666667152,
      "v": 90
    },
    {
      "midi": 47,
      "hit": false,
      "t": 66316.66666666686,
      "d": 58.333333333343035,
      "v": 65
    },
    {
      "midi": 73,
      "hit": false,
      "t": 66345.83333333353,
      "d": 95.83333333334303,
      "v": 69
    },
    {
      "midi": 75,
      "hit": false,
      "t": 66404.16666666688,
      "d": 95.83333333332848,
      "v": 66
    },
    {
      "midi": 78,
      "hit": false,
      "t": 66500.0000000002,
      "d": 133.33333333332848,
      "v": 72
    },
    {
      "midi": 42,
      "hit": false,
      "t": 66520.83333333353,
      "d": 141.66666666667152,
      "v": 77
    },
    {
      "midi": 75,
      "hit": false,
      "t": 66616.66666666686,
      "d": 66.66666666667152,
      "v": 71
    },
    {
      "midi": 73,
      "hit": false,
      "t": 66662.5000000002,
      "d": 79.16666666665697,
      "v": 69
    },
    {
      "midi": 47,
      "hit": false,
      "t": 66691.66666666686,
      "d": 58.33333333332848,
      "v": 69
    },
    {
      "midi": 69,
      "hit": false,
      "t": 66766.66666666686,
      "d": 79.16666666667152,
      "v": 77
    },
    {
      "midi": 35,
      "hit": false,
      "t": 66862.5000000002,
      "d": 212.5,
      "v": 74
    },
    {
      "midi": 66,
      "hit": false,
      "t": 66870.83333333353,
      "d": 37.5,
      "v": 58
    },
    {
      "midi": 63,
      "hit": false,
      "t": 66987.5000000002,
      "d": 87.5,
      "v": 71
    },
    {
      "midi": 47,
      "hit": false,
      "t": 67045.83333333353,
      "d": 79.16666666667152,
      "v": 72
    },
    {
      "midi": 61,
      "hit": false,
      "t": 67075.0000000002,
      "d": 75,
      "v": 60
    },
    {
      "midi": 57,
      "hit": false,
      "t": 67141.66666666688,
      "d": 145.83333333332848,
      "v": 80
    },
    {
      "midi": 42,
      "hit": false,
      "t": 67237.5000000002,
      "d": 133.33333333334303,
      "v": 83
    },
    {
      "midi": 61,
      "hit": false,
      "t": 67258.33333333353,
      "d": 58.333333333343035,
      "v": 83
    },
    {
      "midi": 47,
      "hit": false,
      "t": 67400.00000000022,
      "d": 79.16666666667152,
      "v": 77
    },
    {
      "midi": 69,
      "hit": false,
      "t": 67450.00000000022,
      "d": 75,
      "v": 74
    },
    {
      "midi": 73,
      "hit": false,
      "t": 67525.00000000022,
      "d": 79.16666666667152,
      "v": 72
    },
    {
      "midi": 75,
      "hit": false,
      "t": 67575.00000000022,
      "d": 83.33333333332848,
      "v": 65
    },
    {
      "midi": 35,
      "hit": false,
      "t": 67604.16666666689,
      "d": 191.66666666665697,
      "v": 73
    },
    {
      "midi": 78,
      "hit": false,
      "t": 67650.00000000022,
      "d": 58.33333333332848,
      "v": 72
    },
    {
      "midi": 47,
      "hit": false,
      "t": 67783.33333333355,
      "d": 95.83333333332848,
      "v": 72
    },
    {
      "midi": 81,
      "hit": false,
      "t": 67795.83333333355,
      "d": 83.33333333332848,
      "v": 80
    },
    {
      "midi": 85,
      "hit": false,
      "t": 67879.16666666688,
      "d": 79.16666666667152,
      "v": 58
    },
    {
      "midi": 87,
      "hit": false,
      "t": 67929.16666666688,
      "d": 83.33333333332848,
      "v": 65
    },
    {
      "midi": 90,
      "hit": false,
      "t": 68012.5000000002,
      "d": 137.5,
      "v": 77
    },
    {
      "midi": 42,
      "hit": false,
      "t": 68012.5000000002,
      "d": 154.16666666667152,
      "v": 74
    },
    {
      "midi": 87,
      "hit": false,
      "t": 68108.33333333353,
      "d": 87.5,
      "v": 74
    },
    {
      "midi": 85,
      "hit": false,
      "t": 68166.66666666688,
      "d": 66.66666666665697,
      "v": 56
    },
    {
      "midi": 47,
      "hit": false,
      "t": 68187.5000000002,
      "d": 74.99999999998545,
      "v": 71
    },
    {
      "midi": 81,
      "hit": false,
      "t": 68254.16666666686,
      "d": 58.33333333332848,
      "v": 69
    },
    {
      "midi": 78,
      "hit": false,
      "t": 68333.33333333352,
      "d": 58.33333333332848,
      "v": 72
    },
    {
      "midi": 35,
      "hit": false,
      "t": 68379.16666666685,
      "d": 191.66666666665697,
      "v": 75
    },
    {
      "midi": 75,
      "hit": false,
      "t": 68437.50000000017,
      "d": 75,
      "v": 65
    },
    {
      "midi": 73,
      "hit": false,
      "t": 68525.00000000017,
      "d": 79.16666666665697,
      "v": 72
    },
    {
      "midi": 47,
      "hit": false,
      "t": 68570.8333333335,
      "d": 66.66666666665697,
      "v": 77
    },
    {
      "midi": 69,
      "hit": false,
      "t": 68616.66666666683,
      "d": 66.66666666665697,
      "v": 90
    },
    {
      "midi": 47,
      "hit": false,
      "t": 68741.66666666682,
      "d": 116.66666666667152,
      "v": 95
    },
    {
      "midi": 62,
      "hit": false,
      "t": 68887.50000000016,
      "d": 83.33333333332848,
      "v": 72
    },
    {
      "midi": 52,
      "hit": false,
      "t": 68925.00000000016,
      "d": 66.66666666665697,
      "v": 72
    },
    {
      "midi": 66,
      "hit": false,
      "t": 68970.83333333349,
      "d": 79.16666666665697,
      "v": 60
    },
    {
      "midi": 68,
      "hit": false,
      "t": 69029.16666666682,
      "d": 87.5,
      "v": 63
    },
    {
      "midi": 73,
      "hit": false,
      "t": 69125.00000000015,
      "d": 133.33333333334303,
      "v": 72
    },
    {
      "midi": 40,
      "hit": false,
      "t": 69137.50000000015,
      "d": 191.66666666667152,
      "v": 74
    },
    {
      "midi": 68,
      "hit": false,
      "t": 69220.83333333349,
      "d": 95.83333333332848,
      "v": 68
    },
    {
      "midi": 66,
      "hit": false,
      "t": 69316.66666666682,
      "d": 87.49999999998545,
      "v": 65
    },
    {
      "midi": 52,
      "hit": false,
      "t": 69337.50000000015,
      "d": 45.83333333332848,
      "v": 60
    },
    {
      "midi": 62,
      "hit": false,
      "t": 69412.50000000013,
      "d": 50,
      "v": 74
    },
    {
      "midi": 47,
      "hit": false,
      "t": 69529.1666666668,
      "d": 75,
      "v": 86
    },
    {
      "midi": 74,
      "hit": false,
      "t": 69662.50000000013,
      "d": 87.5,
      "v": 83
    },
    {
      "midi": 52,
      "hit": false,
      "t": 69700.00000000013,
      "d": 66.66666666667152,
      "v": 66
    },
    {
      "midi": 78,
      "hit": false,
      "t": 69750.00000000013,
      "d": 95.83333333334303,
      "v": 62
    },
    {
      "midi": 80,
      "hit": false,
      "t": 69795.83333333347,
      "d": 125,
      "v": 63
    },
    {
      "midi": 40,
      "hit": false,
      "t": 69904.1666666668,
      "d": 200,
      "v": 75
    },
    {
      "midi": 85,
      "hit": false,
      "t": 69920.83333333347,
      "d": 133.33333333332848,
      "v": 66
    },
    {
      "midi": 80,
      "hit": false,
      "t": 70008.33333333347,
      "d": 112.5,
      "v": 62
    },
    {
      "midi": 52,
      "hit": false,
      "t": 70095.83333333347,
      "d": 66.66666666667152,
      "v": 65
    },
    {
      "midi": 78,
      "hit": false,
      "t": 70095.83333333347,
      "d": 83.33333333332848,
      "v": 68
    },
    {
      "midi": 74,
      "hit": false,
      "t": 70170.83333333347,
      "d": 75,
      "v": 80
    },
    {
      "midi": 45,
      "hit": false,
      "t": 70312.50000000015,
      "d": 79.16666666667152,
      "v": 86
    },
    {
      "midi": 61,
      "hit": false,
      "t": 70420.83333333349,
      "d": 75,
      "v": 77
    },
    {
      "midi": 52,
      "hit": false,
      "t": 70495.83333333349,
      "d": 50,
      "v": 44
    },
    {
      "midi": 66,
      "hit": false,
      "t": 70495.83333333349,
      "d": 95.83333333334303,
      "v": 62
    },
    {
      "midi": 68,
      "hit": false,
      "t": 70562.50000000016,
      "d": 87.5,
      "v": 69
    },
    {
      "midi": 40,
      "hit": false,
      "t": 70658.33333333349,
      "d": 175,
      "v": 71
    },
    {
      "midi": 73,
      "hit": false,
      "t": 70670.83333333349,
      "d": 120.83333333332848,
      "v": 56
    },
    {
      "midi": 68,
      "hit": false,
      "t": 70766.66666666682,
      "d": 75,
      "v": 66
    },
    {
      "midi": 66,
      "hit": false,
      "t": 70850.00000000015,
      "d": 79.16666666665697,
      "v": 66
    },
    {
      "midi": 52,
      "hit": false,
      "t": 70870.83333333347,
      "d": 58.33333333332848,
      "v": 60
    },
    {
      "midi": 61,
      "hit": false,
      "t": 70937.50000000013,
      "d": 66.66666666667152,
      "v": 74
    },
    {
      "midi": 45,
      "hit": false,
      "t": 71062.50000000013,
      "d": 104.16666666667152,
      "v": 86
    },
    {
      "midi": 73,
      "hit": false,
      "t": 71166.6666666668,
      "d": 95.83333333332848,
      "v": 83
    },
    {
      "midi": 52,
      "hit": false,
      "t": 71254.1666666668,
      "d": 66.66666666665697,
      "v": 63
    },
    {
      "midi": 78,
      "hit": false,
      "t": 71254.1666666668,
      "d": 104.16666666665697,
      "v": 60
    },
    {
      "midi": 80,
      "hit": false,
      "t": 71312.50000000013,
      "d": 125,
      "v": 65
    },
    {
      "midi": 85,
      "hit": false,
      "t": 71437.50000000013,
      "d": 141.66666666665697,
      "v": 72
    },
    {
      "midi": 40,
      "hit": false,
      "t": 71445.83333333346,
      "d": 154.16666666665697,
      "v": 77
    },
    {
      "midi": 80,
      "hit": false,
      "t": 71541.66666666679,
      "d": 87.5,
      "v": 71
    },
    {
      "midi": 78,
      "hit": false,
      "t": 71616.66666666679,
      "d": 95.83333333332848,
      "v": 66
    },
    {
      "midi": 52,
      "hit": false,
      "t": 71629.16666666679,
      "d": 45.83333333332848,
      "v": 66
    },
    {
      "midi": 73,
      "hit": false,
      "t": 71725.00000000012,
      "d": 54.16666666667152,
      "v": 77
    },
    {
      "midi": 47,
      "hit": false,
      "t": 71837.50000000012,
      "d": 287.5,
      "v": 90
    },
    {
      "midi": 56,
      "hit": false,
      "t": 71845.83333333344,
      "d": 337.5,
      "v": 90
    },
    {
      "midi": 64,
      "hit": false,
      "t": 72070.83333333344,
      "d": 95.83333333332848,
      "v": 59
    },
    {
      "midi": 66,
      "hit": false,
      "t": 72145.83333333344,
      "d": 125,
      "v": 65
    },
    {
      "midi": 68,
      "hit": false,
      "t": 72241.66666666677,
      "d": 75,
      "v": 58
    },
    {
      "midi": 69,
      "hit": false,
      "t": 72354.16666666677,
      "d": 116.66666666667152,
      "v": 80
    },
    {
      "midi": 71,
      "hit": false,
      "t": 72470.83333333344,
      "d": 116.66666666667152,
      "v": 69
    },
    {
      "midi": 73,
      "hit": false,
      "t": 72537.50000000012,
      "d": 145.83333333332848,
      "v": 60
    },
    {
      "midi": 75,
      "hit": false,
      "t": 72662.50000000012,
      "d": 66.66666666665697,
      "v": 69
    },
    {
      "midi": 51,
      "hit": false,
      "t": 72683.33333333344,
      "d": 45.83333333332848,
      "v": 77
    },
    {
      "midi": 57,
      "hit": false,
      "t": 72683.33333333344,
      "d": 45.83333333332848,
      "v": 86
    },
    {
      "midi": 47,
      "hit": false,
      "t": 72683.33333333344,
      "d": 66.66666666665697,
      "v": 83
    },
    {
      "midi": 76,
      "hit": false,
      "t": 72787.5000000001,
      "d": 87.5,
      "v": 65
    },
    {
      "midi": 78,
      "hit": false,
      "t": 72900.0000000001,
      "d": 137.5,
      "v": 68
    },
    {
      "midi": 80,
      "hit": false,
      "t": 72995.83333333343,
      "d": 108.33333333334303,
      "v": 65
    },
    {
      "midi": 81,
      "hit": false,
      "t": 73112.5000000001,
      "d": 133.33333333334303,
      "v": 74
    },
    {
      "midi": 80,
      "hit": false,
      "t": 73216.66666666677,
      "d": 125,
      "v": 65
    },
    {
      "midi": 78,
      "hit": false,
      "t": 73304.16666666677,
      "d": 87.5,
      "v": 65
    },
    {
      "midi": 76,
      "hit": false,
      "t": 73408.33333333344,
      "d": 95.83333333332848,
      "v": 65
    },
    {
      "midi": 75,
      "hit": false,
      "t": 73525.0000000001,
      "d": 116.66666666665697,
      "v": 63
    },
    {
      "midi": 57,
      "hit": false,
      "t": 73533.33333333343,
      "d": 87.5,
      "v": 83
    },
    {
      "midi": 47,
      "hit": false,
      "t": 73533.33333333343,
      "d": 116.66666666665697,
      "v": 95
    },
    {
      "midi": 51,
      "hit": false,
      "t": 73533.33333333343,
      "d": 116.66666666665697,
      "v": 77
    },
    {
      "midi": 73,
      "hit": false,
      "t": 73591.66666666676,
      "d": 133.33333333332848,
      "v": 66
    },
    {
      "midi": 71,
      "hit": false,
      "t": 73716.66666666676,
      "d": 75,
      "v": 65
    },
    {
      "midi": 69,
      "hit": false,
      "t": 73804.16666666676,
      "d": 83.33333333332848,
      "v": 77
    },
    {
      "midi": 68,
      "hit": false,
      "t": 73900.00000000009,
      "d": 162.5,
      "v": 71
    },
    {
      "midi": 66,
      "hit": false,
      "t": 74004.16666666676,
      "d": 95.83333333332848,
      "v": 62
    },
    {
      "midi": 64,
      "hit": false,
      "t": 74108.33333333342,
      "d": 79.16666666667152,
      "v": 72
    },
    {
      "midi": 62,
      "hit": false,
      "t": 74216.66666666676,
      "d": 104.16666666665697,
      "v": 68
    },
    {
      "midi": 61,
      "hit": false,
      "t": 74300.00000000009,
      "d": 125,
      "v": 71
    },
    {
      "midi": 40,
      "hit": false,
      "t": 74337.50000000009,
      "d": 712.5,
      "v": 101
    },
    {
      "midi": 59,
      "hit": false,
      "t": 74425.00000000009,
      "d": 87.5,
      "v": 72
    },
    {
      "midi": 57,
      "hit": false,
      "t": 74529.16666666676,
      "d": 87.5,
      "v": 63
    },
    {
      "midi": 56,
      "hit": false,
      "t": 74600.00000000009,
      "d": 179.16666666667152,
      "v": 71
    },
    {
      "midi": 54,
      "hit": false,
      "t": 74720.83333333342,
      "d": 108.33333333334303,
      "v": 66
    },
    {
      "midi": 50,
      "hit": false,
      "t": 74750.00000000009,
      "d": 345.8333333333285,
      "v": 90
    },
    {
      "midi": 52,
      "hit": false,
      "t": 74829.16666666676,
      "d": 170.83333333332848,
      "v": 74
    },
    {
      "midi": 54,
      "hit": false,
      "t": 74941.66666666676,
      "d": 116.66666666665697,
      "v": 69
    },
    {
      "midi": 56,
      "hit": false,
      "t": 75020.83333333342,
      "d": 95.83333333332848,
      "v": 77
    },
    {
      "midi": 45,
      "hit": false,
      "t": 75154.16666666674,
      "d": 116.66666666667152,
      "v": 104
    },
    {
      "midi": 57,
      "hit": false,
      "t": 75287.50000000009,
      "d": 116.66666666667152,
      "v": 80
    },
    {
      "midi": 52,
      "hit": false,
      "t": 75354.16666666676,
      "d": 50,
      "v": 69
    },
    {
      "midi": 61,
      "hit": false,
      "t": 75366.66666666676,
      "d": 120.83333333332848,
      "v": 65
    },
    {
      "midi": 64,
      "hit": false,
      "t": 75450.00000000009,
      "d": 95.83333333334303,
      "v": 65
    },
    {
      "midi": 66,
      "hit": false,
      "t": 75545.83333333343,
      "d": 37.5,
      "v": 56
    },
    {
      "midi": 40,
      "hit": false,
      "t": 75558.33333333343,
      "d": 45.83333333332848,
      "v": 69
    },
    {
      "midi": 69,
      "hit": false,
      "t": 75670.83333333343,
      "d": 116.66666666667152,
      "v": 77
    },
    {
      "midi": 52,
      "hit": false,
      "t": 75750.0000000001,
      "d": 45.83333333332848,
      "v": 54
    },
    {
      "midi": 73,
      "hit": false,
      "t": 75775.0000000001,
      "d": 95.83333333332848,
      "v": 68
    },
    {
      "midi": 76,
      "hit": false,
      "t": 75854.16666666676,
      "d": 104.16666666667152,
      "v": 56
    },
    {
      "midi": 78,
      "hit": false,
      "t": 75950.0000000001,
      "d": 162.5,
      "v": 66
    },
    {
      "midi": 45,
      "hit": false,
      "t": 75966.66666666676,
      "d": 70.83333333334303,
      "v": 83
    },
    {
      "midi": 76,
      "hit": false,
      "t": 76075.0000000001,
      "d": 125,
      "v": 65
    },
    {
      "midi": 52,
      "hit": false,
      "t": 76158.33333333343,
      "d": 58.333333333343035,
      "v": 60
    },
    {
      "midi": 73,
      "hit": false,
      "t": 76158.33333333343,
      "d": 87.50000000001455,
      "v": 54
    },
    {
      "midi": 69,
      "hit": false,
      "t": 76275.0000000001,
      "d": 66.66666666665697,
      "v": 72
    },
    {
      "midi": 40,
      "hit": false,
      "t": 76350.00000000009,
      "d": 191.66666666667152,
      "v": 77
    },
    {
      "midi": 66,
      "hit": false,
      "t": 76420.83333333342,
      "d": 66.66666666667152,
      "v": 69
    },
    {
      "midi": 64,
      "hit": false,
      "t": 76487.50000000009,
      "d": 104.16666666667152,
      "v": 69
    },
    {
      "midi": 52,
      "hit": false,
      "t": 76554.16666666676,
      "d": 66.66666666667152,
      "v": 62
    },
    {
      "midi": 61,
      "hit": false,
      "t": 76583.33333333343,
      "d": 66.66666666667152,
      "v": 54
    },
    {
      "midi": 57,
      "hit": false,
      "t": 76650.0000000001,
      "d": 125,
      "v": 77
    },
    {
      "midi": 61,
      "hit": false,
      "t": 76754.16666666677,
      "d": 58.33333333332848,
      "v": 83
    },
    {
      "midi": 45,
      "hit": false,
      "t": 76754.16666666677,
      "d": 145.83333333332848,
      "v": 95
    },
    {
      "midi": 52,
      "hit": false,
      "t": 76925.0000000001,
      "d": 79.16666666667152,
      "v": 63
    },
    {
      "midi": 69,
      "hit": false,
      "t": 76937.5000000001,
      "d": 75,
      "v": 90
    },
    {
      "midi": 73,
      "hit": false,
      "t": 77033.33333333343,
      "d": 75,
      "v": 69
    },
    {
      "midi": 76,
      "hit": false,
      "t": 77091.66666666676,
      "d": 95.83333333334303,
      "v": 65
    },
    {
      "midi": 40,
      "hit": false,
      "t": 77158.33333333343,
      "d": 191.66666666667152,
      "v": 73
    },
    {
      "midi": 78,
      "hit": false,
      "t": 77187.5000000001,
      "d": 45.83333333332848,
      "v": 65
    },
    {
      "midi": 81,
      "hit": false,
      "t": 77320.83333333343,
      "d": 75,
      "v": 62
    },
    {
      "midi": 52,
      "hit": false,
      "t": 77337.5000000001,
      "d": 87.49999999998545,
      "v": 68
    },
    {
      "midi": 85,
      "hit": false,
      "t": 77404.16666666676,
      "d": 87.5,
      "v": 66
    },
    {
      "midi": 88,
      "hit": false,
      "t": 77462.50000000009,
      "d": 108.33333333334303,
      "v": 71
    },
    {
      "midi": 90,
      "hit": false,
      "t": 77558.33333333343,
      "d": 162.5,
      "v": 72
    },
    {
      "midi": 45,
      "hit": false,
      "t": 77570.83333333343,
      "d": 216.66666666667152,
      "v": 101
    },
    {
      "midi": 88,
      "hit": false,
      "t": 77675.0000000001,
      "d": 95.83333333332848,
      "v": 80
    },
    {
      "midi": 85,
      "hit": false,
      "t": 77741.66666666676,
      "d": 87.50000000001455,
      "v": 68
    },
    {
      "midi": 52,
      "hit": false,
      "t": 77787.5000000001,
      "d": 87.50000000001455,
      "v": 63
    },
    {
      "midi": 81,
      "hit": false,
      "t": 77845.83333333344,
      "d": 66.66666666667152,
      "v": 77
    },
    {
      "midi": 44,
      "hit": false,
      "t": 77954.16666666679,
      "d": 237.49999999998545,
      "v": 83
    },
    {
      "midi": 78,
      "hit": false,
      "t": 77979.16666666679,
      "d": 87.5,
      "v": 68
    },
    {
      "midi": 76,
      "hit": false,
      "t": 78050.00000000012,
      "d": 112.5,
      "v": 72
    },
    {
      "midi": 73,
      "hit": false,
      "t": 78154.16666666679,
      "d": 74.99999999998545,
      "v": 60
    },
    {
      "midi": 52,
      "hit": false,
      "t": 78170.83333333344,
      "d": 79.16666666665697,
      "v": 62
    },
    {
      "midi": 69,
      "hit": false,
      "t": 78229.16666666677,
      "d": 133.33333333332848,
      "v": 77
    },
    {
      "midi": 73,
      "hit": false,
      "t": 78337.5000000001,
      "d": 54.16666666667152,
      "v": 83
    },
    {
      "midi": 42,
      "hit": false,
      "t": 78345.83333333343,
      "d": 191.66666666667152,
      "v": 86
    },
    {
      "midi": 47,
      "hit": false,
      "t": 78545.83333333343,
      "d": 50,
      "v": 69
    },
    {
      "midi": 57,
      "hit": false,
      "t": 78566.66666666676,
      "d": 37.5,
      "v": 56
    },
    {
      "midi": 61,
      "hit": false,
      "t": 78612.50000000009,
      "d": 79.16666666667152,
      "v": 65
    },
    {
      "midi": 63,
      "hit": false,
      "t": 78662.50000000009,
      "d": 83.33333333334303,
      "v": 72
    },
    {
      "midi": 35,
      "hit": false,
      "t": 78729.16666666676,
      "d": 200.00000000001455,
      "v": 71
    },
    {
      "midi": 66,
      "hit": false,
      "t": 78745.83333333343,
      "d": 29.166666666671517,
      "v": 50
    },
    {
      "midi": 69,
      "hit": false,
      "t": 78862.5000000001,
      "d": 95.83333333334303,
      "v": 86
    },
    {
      "midi": 47,
      "hit": false,
      "t": 78912.5000000001,
      "d": 66.66666666667152,
      "v": 63
    },
    {
      "midi": 73,
      "hit": false,
      "t": 78966.66666666677,
      "d": 87.5,
      "v": 69
    },
    {
      "midi": 75,
      "hit": false,
      "t": 79008.33333333344,
      "d": 104.16666666665697,
      "v": 68
    },
    {
      "midi": 78,
      "hit": false,
      "t": 79112.5000000001,
      "d": 133.33333333334303,
      "v": 71
    },
    {
      "midi": 42,
      "hit": false,
      "t": 79141.66666666677,
      "d": 133.33333333334303,
      "v": 80
    },
    {
      "midi": 75,
      "hit": false,
      "t": 79216.66666666677,
      "d": 87.5,
      "v": 69
    },
    {
      "midi": 73,
      "hit": false,
      "t": 79283.33333333344,
      "d": 79.16666666665697,
      "v": 66
    },
    {
      "midi": 47,
      "hit": false,
      "t": 79312.5000000001,
      "d": 58.33333333332848,
      "v": 71
    },
    {
      "midi": 69,
      "hit": false,
      "t": 79379.16666666676,
      "d": 87.5,
      "v": 74
    },
    {
      "midi": 35,
      "hit": false,
      "t": 79504.16666666676,
      "d": 241.66666666665697,
      "v": 80
    },
    {
      "midi": 66,
      "hit": false,
      "t": 79525.00000000009,
      "d": 75,
      "v": 63
    },
    {
      "midi": 63,
      "hit": false,
      "t": 79600.00000000009,
      "d": 125,
      "v": 69
    },
    {
      "midi": 47,
      "hit": false,
      "t": 79687.50000000009,
      "d": 87.5,
      "v": 69
    },
    {
      "midi": 61,
      "hit": false,
      "t": 79704.16666666676,
      "d": 79.16666666665697,
      "v": 56
    },
    {
      "midi": 57,
      "hit": false,
      "t": 79783.33333333342,
      "d": 133.33333333334303,
      "v": 77
    },
    {
      "midi": 61,
      "hit": false,
      "t": 79887.50000000009,
      "d": 58.333333333343035,
      "v": 77
    },
    {
      "midi": 42,
      "hit": false,
      "t": 79887.50000000009,
      "d": 154.16666666667152,
      "v": 86
    },
    {
      "midi": 47,
      "hit": false,
      "t": 80070.83333333343,
      "d": 75,
      "v": 71
    },
    {
      "midi": 69,
      "hit": false,
      "t": 80079.16666666676,
      "d": 79.16666666667152,
      "v": 83
    },
    {
      "midi": 73,
      "hit": false,
      "t": 80175.0000000001,
      "d": 58.33333333332848,
      "v": 68
    },
    {
      "midi": 75,
      "hit": false,
      "t": 80225.0000000001,
      "d": 66.66666666665697,
      "v": 65
    },
    {
      "midi": 35,
      "hit": false,
      "t": 80270.83333333343,
      "d": 174.99999999998545,
      "v": 74
    },
    {
      "midi": 78,
      "hit": false,
      "t": 80300.00000000009,
      "d": 50,
      "v": 63
    },
    {
      "midi": 81,
      "hit": false,
      "t": 80433.33333333342,
      "d": 79.16666666667152,
      "v": 77
    },
    {
      "midi": 47,
      "hit": false,
      "t": 80445.83333333342,
      "d": 83.33333333334303,
      "v": 74
    },
    {
      "midi": 85,
      "hit": false,
      "t": 80529.16666666676,
      "d": 95.83333333332848,
      "v": 66
    },
    {
      "midi": 87,
      "hit": false,
      "t": 80587.50000000009,
      "d": 75,
      "v": 56
    },
    {
      "midi": 90,
      "hit": false,
      "t": 80675.00000000009,
      "d": 141.66666666667152,
      "v": 77
    },
    {
      "midi": 42,
      "hit": false,
      "t": 80683.33333333342,
      "d": 145.83333333334303,
      "v": 80
    },
    {
      "midi": 87,
      "hit": false,
      "t": 80787.50000000009,
      "d": 87.5,
      "v": 72
    },
    {
      "midi": 85,
      "hit": false,
      "t": 80845.83333333343,
      "d": 79.16666666665697,
      "v": 58
    },
    {
      "midi": 47,
      "hit": false,
      "t": 80866.66666666676,
      "d": 66.66666666665697,
      "v": 71
    },
    {
      "midi": 81,
      "hit": false,
      "t": 80933.33333333342,
      "d": 87.5,
      "v": 72
    },
    {
      "midi": 35,
      "hit": false,
      "t": 81045.83333333342,
      "d": 233.33333333332848,
      "v": 80
    },
    {
      "midi": 78,
      "hit": false,
      "t": 81075.00000000009,
      "d": 79.16666666667152,
      "v": 66
    },
    {
      "midi": 75,
      "hit": false,
      "t": 81141.66666666676,
      "d": 145.83333333331393,
      "v": 71
    },
    {
      "midi": 73,
      "hit": false,
      "t": 81250.00000000009,
      "d": 104.16666666664241,
      "v": 62
    },
    {
      "midi": 47,
      "hit": false,
      "t": 81258.33333333342,
      "d": 74.99999999998545,
      "v": 74
    },
    {
      "midi": 69,
      "hit": false,
      "t": 81345.8333333334,
      "d": 66.66666666665697,
      "v": 90
    },
    {
      "midi": 47,
      "hit": false,
      "t": 81458.33333333339,
      "d": 58.33333333332848,
      "v": 95
    },
    {
      "midi": 62,
      "hit": false,
      "t": 81583.33333333339,
      "d": 116.66666666665697,
      "v": 72
    },
    {
      "midi": 52,
      "hit": false,
      "t": 81633.33333333339,
      "d": 58.33333333332848,
      "v": 74
    },
    {
      "midi": 66,
      "hit": false,
      "t": 81670.83333333339,
      "d": 104.16666666665697,
      "v": 66
    },
    {
      "midi": 68,
      "hit": false,
      "t": 81729.16666666672,
      "d": 112.49999999998545,
      "v": 65
    },
    {
      "midi": 73,
      "hit": false,
      "t": 81833.33333333337,
      "d": 145.83333333334303,
      "v": 68
    },
    {
      "midi": 40,
      "hit": false,
      "t": 81854.1666666667,
      "d": 125.00000000001455,
      "v": 75
    },
    {
      "midi": 68,
      "hit": false,
      "t": 81950.00000000004,
      "d": 95.83333333332848,
      "v": 54
    },
    {
      "midi": 66,
      "hit": false,
      "t": 82025.00000000004,
      "d": 104.16666666665697,
      "v": 66
    },
    {
      "midi": 52,
      "hit": false,
      "t": 82033.33333333337,
      "d": 50,
      "v": 56
    },
    {
      "midi": 62,
      "hit": false,
      "t": 82129.1666666667,
      "d": 66.66666666667152,
      "v": 72
    },
    {
      "midi": 47,
      "hit": false,
      "t": 82245.83333333337,
      "d": 66.66666666667152,
      "v": 86
    },
    {
      "midi": 74,
      "hit": false,
      "t": 82362.50000000004,
      "d": 75,
      "v": 95
    },
    {
      "midi": 52,
      "hit": false,
      "t": 82400.00000000004,
      "d": 58.33333333332848,
      "v": 69
    },
    {
      "midi": 78,
      "hit": false,
      "t": 82466.6666666667,
      "d": 87.5,
      "v": 69
    },
    {
      "midi": 80,
      "hit": false,
      "t": 82512.50000000003,
      "d": 116.66666666667152,
      "v": 63
    },
    {
      "midi": 40,
      "hit": false,
      "t": 82600.00000000003,
      "d": 212.5,
      "v": 74
    },
    {
      "midi": 85,
      "hit": false,
      "t": 82629.1666666667,
      "d": 154.16666666667152,
      "v": 71
    },
    {
      "midi": 80,
      "hit": false,
      "t": 82733.33333333337,
      "d": 108.33333333332848,
      "v": 66
    },
    {
      "midi": 52,
      "hit": false,
      "t": 82791.6666666667,
      "d": 75,
      "v": 63
    },
    {
      "midi": 78,
      "hit": false,
      "t": 82812.50000000003,
      "d": 95.83333333332848,
      "v": 69
    },
    {
      "midi": 74,
      "hit": false,
      "t": 82887.50000000003,
      "d": 75,
      "v": 80
    },
    {
      "midi": 45,
      "hit": false,
      "t": 83020.83333333336,
      "d": 66.66666666667152,
      "v": 90
    },
    {
      "midi": 61,
      "hit": false,
      "t": 83137.50000000003,
      "d": 87.5,
      "v": 83
    },
    {
      "midi": 52,
      "hit": false,
      "t": 83204.1666666667,
      "d": 45.83333333332848,
      "v": 68
    },
    {
      "midi": 66,
      "hit": false,
      "t": 83241.6666666667,
      "d": 95.83333333332848,
      "v": 66
    },
    {
      "midi": 68,
      "hit": false,
      "t": 83308.33333333336,
      "d": 87.5,
      "v": 58
    },
    {
      "midi": 40,
      "hit": false,
      "t": 83387.50000000003,
      "d": 150,
      "v": 74
    },
    {
      "midi": 73,
      "hit": false,
      "t": 83395.83333333336,
      "d": 141.66666666667152,
      "v": 66
    },
    {
      "midi": 68,
      "hit": false,
      "t": 83520.83333333336,
      "d": 75,
      "v": 62
    },
    {
      "midi": 66,
      "hit": false,
      "t": 83587.50000000003,
      "d": 87.5,
      "v": 63
    },
    {
      "midi": 52,
      "hit": false,
      "t": 83595.83333333336,
      "d": 66.66666666667152,
      "v": 50
    },
    {
      "midi": 61,
      "hit": false,
      "t": 83691.6666666667,
      "d": 66.66666666667152,
      "v": 71
    },
    {
      "midi": 45,
      "hit": false,
      "t": 83800.00000000004,
      "d": 66.66666666667152,
      "v": 83
    },
    {
      "midi": 73,
      "hit": false,
      "t": 83912.50000000004,
      "d": 87.5,
      "v": 83
    },
    {
      "midi": 52,
      "hit": false,
      "t": 83970.83333333337,
      "d": 45.833333333343035,
      "v": 66
    },
    {
      "midi": 78,
      "hit": false,
      "t": 84029.16666666672,
      "d": 83.33333333332848,
      "v": 54
    },
    {
      "midi": 80,
      "hit": false,
      "t": 84066.66666666672,
      "d": 104.16666666665697,
      "v": 65
    },
    {
      "midi": 40,
      "hit": false,
      "t": 84170.83333333337,
      "d": 162.5,
      "v": 74
    },
    {
      "midi": 85,
      "hit": false,
      "t": 84183.33333333337,
      "d": 150,
      "v": 69
    },
    {
      "midi": 80,
      "hit": false,
      "t": 84295.83333333337,
      "d": 79.16666666667152,
      "v": 62
    },
    {
      "midi": 52,
      "hit": false,
      "t": 84362.50000000004,
      "d": 37.5,
      "v": 60
    },
    {
      "midi": 78,
      "hit": false,
      "t": 84362.50000000004,
      "d": 116.66666666665697,
      "v": 69
    },
    {
      "midi": 73,
      "hit": false,
      "t": 84458.33333333337,
      "d": 116.66666666665697,
      "v": 69
    },
    {
      "midi": 56,
      "hit": false,
      "t": 84575.00000000003,
      "d": 250,
      "v": 83
    },
    {
      "midi": 47,
      "hit": false,
      "t": 84575.00000000003,
      "d": 279.1666666666715,
      "v": 80
    },
    {
      "midi": 76,
      "hit": false,
      "t": 84825.00000000003,
      "d": 112.50000000001455,
      "v": 65
    },
    {
      "midi": 78,
      "hit": false,
      "t": 84920.83333333337,
      "d": 112.50000000001455,
      "v": 68
    },
    {
      "midi": 80,
      "hit": false,
      "t": 85004.16666666672,
      "d": 66.66666666667152,
      "v": 62
    },
    {
      "midi": 81,
      "hit": false,
      "t": 85120.83333333339,
      "d": 75,
      "v": 72
    },
    {
      "midi": 83,
      "hit": false,
      "t": 85237.50000000006,
      "d": 120.83333333332848,
      "v": 71
    },
    {
      "midi": 85,
      "hit": false,
      "t": 85312.50000000006,
      "d": 104.16666666665697,
      "v": 52
    },
    {
      "midi": 44,
      "hit": false,
      "t": 85429.16666666672,
      "d": 75,
      "v": 90
    },
    {
      "midi": 52,
      "hit": false,
      "t": 85429.16666666672,
      "d": 75,
      "v": 83
    },
    {
      "midi": 86,
      "hit": false,
      "t": 85429.16666666672,
      "d": 141.66666666665697,
      "v": 80
    },
    {
      "midi": 85,
      "hit": false,
      "t": 85525.00000000004,
      "d": 133.33333333332848,
      "v": 68
    },
    {
      "midi": 83,
      "hit": false,
      "t": 85637.50000000004,
      "d": 58.33333333332848,
      "v": 58
    },
    {
      "midi": 81,
      "hit": false,
      "t": 85725.00000000004,
      "d": 45.83333333332848,
      "v": 69
    },
    {
      "midi": 80,
      "hit": false,
      "t": 85812.50000000004,
      "d": 120.83333333332848,
      "v": 58
    },
    {
      "midi": 78,
      "hit": false,
      "t": 85908.33333333337,
      "d": 133.33333333334303,
      "v": 66
    },
    {
      "midi": 76,
      "hit": false,
      "t": 86012.50000000004,
      "d": 87.5,
      "v": 63
    },
    {
      "midi": 74,
      "hit": false,
      "t": 86100.00000000004,
      "d": 104.16666666667152,
      "v": 77
    },
    {
      "midi": 73,
      "hit": false,
      "t": 86204.16666666672,
      "d": 154.16666666665697,
      "v": 71
    },
    {
      "midi": 40,
      "hit": false,
      "t": 86241.66666666672,
      "d": 124.99999999998545,
      "v": 80
    },
    {
      "midi": 71,
      "hit": false,
      "t": 86337.50000000004,
      "d": 66.66666666665697,
      "v": 66
    },
    {
      "midi": 50,
      "hit": false,
      "t": 86345.83333333337,
      "d": 116.66666666665697,
      "v": 72
    },
    {
      "midi": 69,
      "hit": false,
      "t": 86425.00000000003,
      "d": 75,
      "v": 72
    },
    {
      "midi": 49,
      "hit": false,
      "t": 86441.6666666667,
      "d": 87.5,
      "v": 68
    },
    {
      "midi": 68,
      "hit": false,
      "t": 86500.00000000003,
      "d": 162.5,
      "v": 69
    },
    {
      "midi": 47,
      "hit": false,
      "t": 86504.1666666667,
      "d": 87.5,
      "v": 74
    },
    {
      "midi": 66,
      "hit": false,
      "t": 86625.00000000003,
      "d": 87.5,
      "v": 65
    },
    {
      "midi": 45,
      "hit": false,
      "t": 86629.1666666667,
      "d": 83.33333333332848,
      "v": 74
    },
    {
      "midi": 64,
      "hit": false,
      "t": 86712.50000000003,
      "d": 141.66666666667152,
      "v": 74
    },
    {
      "midi": 44,
      "hit": false,
      "t": 86716.6666666667,
      "d": 104.16666666667152,
      "v": 74
    },
    {
      "midi": 42,
      "hit": false,
      "t": 86808.33333333337,
      "d": 87.49999999998545,
      "v": 69
    },
    {
      "midi": 66,
      "hit": false,
      "t": 86808.33333333337,
      "d": 124.99999999998545,
      "v": 74
    },
    {
      "midi": 40,
      "hit": false,
      "t": 86875.00000000003,
      "d": 75,
      "v": 69
    },
    {
      "midi": 68,
      "hit": false,
      "t": 86875.00000000003,
      "d": 104.16666666667152,
      "v": 66
    },
    {
      "midi": 69,
      "hit": false,
      "t": 86962.50000000003,
      "d": 54.16666666667152,
      "v": 83
    },
    {
      "midi": 45,
      "hit": false,
      "t": 86962.50000000003,
      "d": 458.33333333334303,
      "v": 101
    },
    {
      "midi": 40,
      "hit": false,
      "t": 87179.1666666667,
      "d": 41.66666666667152,
      "v": 71
    },
    {
      "midi": 73,
      "hit": false,
      "t": 87400.00000000004,
      "d": 87.5,
      "v": 83
    },
    {
      "midi": 76,
      "hit": false,
      "t": 87400.00000000004,
      "d": 87.5,
      "v": 86
    },
    {
      "midi": 33,
      "hit": false,
      "t": 87400.00000000004,
      "d": 95.83333333332848,
      "v": 90
    },
    {
      "midi": 69,
      "hit": false,
      "t": 87400.00000000004,
      "d": 95.83333333332848,
      "v": 95
    },
    {
      "midi": 81,
      "hit": false,
      "t": 87400.00000000004,
      "d": 108.33333333332848,
      "v": 101
    },
    {
      "midi": 50,
      "hit": false,
      "t": 87829.1666666667,
      "d": 112.5,
      "v": 101
    },
    {
      "midi": 62,
      "hit": false,
      "t": 87933.33333333337,
      "d": 87.5,
      "v": 95
    },
    {
      "midi": 57,
      "hit": false,
      "t": 87991.6666666667,
      "d": 66.66666666667152,
      "v": 74
    },
    {
      "midi": 61,
      "hit": false,
      "t": 88029.1666666667,
      "d": 75,
      "v": 71
    },
    {
      "midi": 62,
      "hit": false,
      "t": 88154.1666666667,
      "d": 87.5,
      "v": 77
    },
    {
      "midi": 45,
      "hit": false,
      "t": 88220.83333333337,
      "d": 45.83333333332848,
      "v": 80
    },
    {
      "midi": 64,
      "hit": false,
      "t": 88229.1666666667,
      "d": 95.83333333332848,
      "v": 69
    },
    {
      "midi": 66,
      "hit": false,
      "t": 88325.00000000003,
      "d": 108.33333333332848,
      "v": 74
    },
    {
      "midi": 57,
      "hit": false,
      "t": 88412.50000000003,
      "d": 37.49999999998545,
      "v": 71
    },
    {
      "midi": 69,
      "hit": false,
      "t": 88441.66666666669,
      "d": 66.66666666665697,
      "v": 86
    },
    {
      "midi": 62,
      "hit": false,
      "t": 88529.16666666667,
      "d": 83.33333333332848,
      "v": 83
    },
    {
      "midi": 50,
      "hit": false,
      "t": 88612.5,
      "d": 50,
      "v": 65
    },
    {
      "midi": 61,
      "hit": false,
      "t": 88612.5,
      "d": 66.66666666667152,
      "v": 66
    },
    {
      "midi": 62,
      "hit": false,
      "t": 88720.83333333334,
      "d": 104.16666666665697,
      "v": 77
    },
    {
      "midi": 57,
      "hit": false,
      "t": 88804.16666666667,
      "d": 50,
      "v": 65
    },
    {
      "midi": 64,
      "hit": false,
      "t": 88825,
      "d": 95.83333333332848,
      "v": 68
    },
    {
      "midi": 66,
      "hit": false,
      "t": 88912.5,
      "d": 104.16666666665697,
      "v": 68
    },
    {
      "midi": 45,
      "hit": false,
      "t": 89016.66666666666,
      "d": 66.66666666667152,
      "v": 90
    },
    {
      "midi": 69,
      "hit": false,
      "t": 89016.66666666666,
      "d": 112.50000000001455,
      "v": 95
    },
    {
      "midi": 62,
      "hit": false,
      "t": 89112.5,
      "d": 95.83333333332848,
      "v": 83
    },
    {
      "midi": 57,
      "hit": false,
      "t": 89187.5,
      "d": 50,
      "v": 68
    },
    {
      "midi": 61,
      "hit": false,
      "t": 89200,
      "d": 83.33333333332848,
      "v": 69
    },
    {
      "midi": 62,
      "hit": false,
      "t": 89312.5,
      "d": 95.83333333334303,
      "v": 69
    },
    {
      "midi": 64,
      "hit": false,
      "t": 89391.66666666667,
      "d": 95.83333333332848,
      "v": 71
    },
    {
      "midi": 50,
      "hit": false,
      "t": 89408.33333333334,
      "d": 66.66666666665697,
      "v": 65
    },
    {
      "midi": 66,
      "hit": false,
      "t": 89487.5,
      "d": 95.83333333332848,
      "v": 58
    },
    {
      "midi": 69,
      "hit": false,
      "t": 89583.33333333333,
      "d": 112.50000000001455,
      "v": 86
    },
    {
      "midi": 57,
      "hit": false,
      "t": 89600,
      "d": 50,
      "v": 72
    },
    {
      "midi": 62,
      "hit": false,
      "t": 89679.16666666667,
      "d": 95.83333333334303,
      "v": 95
    },
    {
      "midi": 61,
      "hit": false,
      "t": 89762.50000000001,
      "d": 87.5,
      "v": 71
    },
    {
      "midi": 45,
      "hit": false,
      "t": 89783.33333333334,
      "d": 66.66666666667152,
      "v": 74
    },
    {
      "midi": 62,
      "hit": false,
      "t": 89887.50000000001,
      "d": 95.83333333332848,
      "v": 80
    },
    {
      "midi": 64,
      "hit": false,
      "t": 89966.66666666669,
      "d": 95.83333333331393,
      "v": 77
    },
    {
      "midi": 57,
      "hit": false,
      "t": 89975.00000000001,
      "d": 37.5,
      "v": 69
    },
    {
      "midi": 66,
      "hit": false,
      "t": 90041.66666666667,
      "d": 95.83333333332848,
      "v": 72
    },
    {
      "midi": 69,
      "hit": false,
      "t": 90137.5,
      "d": 583.3333333333285,
      "v": 86
    },
    {
      "midi": 51,
      "hit": false,
      "t": 90158.33333333333,
      "d": 54.16666666667152,
      "v": 69
    },
    {
      "midi": 66,
      "hit": false,
      "t": 90329.16666666666,
      "d": 58.333333333343035,
      "v": 65
    },
    {
      "midi": 57,
      "hit": false,
      "t": 90358.33333333333,
      "d": 29.166666666671517,
      "v": 68
    },
    {
      "midi": 59,
      "hit": false,
      "t": 90358.33333333333,
      "d": 37.5,
      "v": 66
    },
    {
      "midi": 47,
      "hit": false,
      "t": 90541.66666666666,
      "d": 66.66666666667152,
      "v": 80
    },
    {
      "midi": 59,
      "hit": false,
      "t": 90720.83333333333,
      "d": 50,
      "v": 80
    },
    {
      "midi": 66,
      "hit": false,
      "t": 90720.83333333333,
      "d": 79.16666666665697,
      "v": 69
    },
    {
      "midi": 57,
      "hit": false,
      "t": 90741.66666666666,
      "d": 37.5,
      "v": 77
    },
    {
      "midi": 52,
      "hit": false,
      "t": 90912.49999999999,
      "d": 66.66666666667152,
      "v": 80
    },
    {
      "midi": 64,
      "hit": false,
      "t": 90999.99999999999,
      "d": 87.5,
      "v": 77
    },
    {
      "midi": 59,
      "hit": false,
      "t": 91074.99999999999,
      "d": 50,
      "v": 71
    },
    {
      "midi": 63,
      "hit": false,
      "t": 91087.49999999999,
      "d": 54.16666666667152,
      "v": 69
    },
    {
      "midi": 64,
      "hit": false,
      "t": 91199.99999999999,
      "d": 87.5,
      "v": 74
    },
    {
      "midi": 66,
      "hit": false,
      "t": 91279.16666666666,
      "d": 95.83333333332848,
      "v": 77
    },
    {
      "midi": 47,
      "hit": false,
      "t": 91295.83333333331,
      "d": 37.5,
      "v": 63
    },
    {
      "midi": 67,
      "hit": false,
      "t": 91383.33333333331,
      "d": 95.83333333332848,
      "v": 68
    },
    {
      "midi": 59,
      "hit": false,
      "t": 91470.83333333331,
      "d": 37.49999999998545,
      "v": 77
    },
    {
      "midi": 71,
      "hit": false,
      "t": 91487.49999999997,
      "d": 87.5,
      "v": 90
    },
    {
      "midi": 64,
      "hit": false,
      "t": 91574.99999999997,
      "d": 87.5,
      "v": 86
    },
    {
      "midi": 52,
      "hit": false,
      "t": 91649.99999999997,
      "d": 50,
      "v": 68
    },
    {
      "midi": 63,
      "hit": false,
      "t": 91649.99999999997,
      "d": 79.16666666667152,
      "v": 71
    },
    {
      "midi": 64,
      "hit": false,
      "t": 91766.66666666664,
      "d": 87.5,
      "v": 77
    },
    {
      "midi": 59,
      "hit": false,
      "t": 91833.33333333331,
      "d": 50,
      "v": 63
    },
    {
      "midi": 66,
      "hit": false,
      "t": 91841.66666666664,
      "d": 79.16666666667152,
      "v": 80
    },
    {
      "midi": 67,
      "hit": false,
      "t": 91937.49999999999,
      "d": 79.16666666667152,
      "v": 69
    },
    {
      "midi": 71,
      "hit": false,
      "t": 92033.33333333333,
      "d": 87.5,
      "v": 86
    },
    {
      "midi": 47,
      "hit": false,
      "t": 92062.5,
      "d": 37.5,
      "v": 77
    },
    {
      "midi": 64,
      "hit": false,
      "t": 92120.83333333333,
      "d": 95.83333333332848,
      "v": 72
    },
    {
      "midi": 63,
      "hit": false,
      "t": 92208.33333333333,
      "d": 83.33333333332848,
      "v": 72
    },
    {
      "midi": 59,
      "hit": false,
      "t": 92245.83333333333,
      "d": 37.5,
      "v": 65
    },
    {
      "midi": 64,
      "hit": false,
      "t": 92333.33333333333,
      "d": 83.33333333332848,
      "v": 69
    },
    {
      "midi": 66,
      "hit": false,
      "t": 92416.66666666666,
      "d": 87.49999999998545,
      "v": 77
    },
    {
      "midi": 52,
      "hit": false,
      "t": 92437.49999999999,
      "d": 45.83333333332848,
      "v": 58
    },
    {
      "midi": 67,
      "hit": false,
      "t": 92495.83333333331,
      "d": 95.83333333332848,
      "v": 68
    },
    {
      "midi": 71,
      "hit": false,
      "t": 92599.99999999997,
      "d": 104.16666666667152,
      "v": 80
    },
    {
      "midi": 59,
      "hit": false,
      "t": 92608.3333333333,
      "d": 41.66666666667152,
      "v": 69
    },
    {
      "midi": 64,
      "hit": false,
      "t": 92704.16666666664,
      "d": 108.33333333332848,
      "v": 83
    },
    {
      "midi": 47,
      "hit": false,
      "t": 92791.66666666664,
      "d": 87.5,
      "v": 83
    },
    {
      "midi": 63,
      "hit": false,
      "t": 92812.49999999997,
      "d": 66.66666666667152,
      "v": 66
    },
    {
      "midi": 64,
      "hit": false,
      "t": 92908.33333333331,
      "d": 112.50000000001455,
      "v": 63
    },
    {
      "midi": 59,
      "hit": false,
      "t": 92974.99999999999,
      "d": 58.333333333343035,
      "v": 72
    },
    {
      "midi": 66,
      "hit": false,
      "t": 92991.66666666666,
      "d": 95.83333333334303,
      "v": 83
    },
    {
      "midi": 67,
      "hit": false,
      "t": 93058.33333333333,
      "d": 95.83333333332848,
      "v": 71
    },
    {
      "midi": 71,
      "hit": false,
      "t": 93145.83333333333,
      "d": 624.9999999999854,
      "v": 90
    },
    {
      "midi": 53,
      "hit": false,
      "t": 93166.66666666666,
      "d": 58.33333333332848,
      "v": 80
    },
    {
      "midi": 68,
      "hit": false,
      "t": 93345.83333333331,
      "d": 70.83333333332848,
      "v": 65
    },
    {
      "midi": 61,
      "hit": false,
      "t": 93358.33333333331,
      "d": 37.5,
      "v": 46
    },
    {
      "midi": 59,
      "hit": false,
      "t": 93366.66666666664,
      "d": 37.5,
      "v": 71
    },
    {
      "midi": 49,
      "hit": false,
      "t": 93579.16666666664,
      "d": 95.83333333334303,
      "v": 54
    },
    {
      "midi": 61,
      "hit": false,
      "t": 93741.66666666666,
      "d": 58.33333333332848,
      "v": 74
    },
    {
      "midi": 68,
      "hit": false,
      "t": 93741.66666666666,
      "d": 95.83333333332848,
      "v": 77
    },
    {
      "midi": 59,
      "hit": false,
      "t": 93749.99999999999,
      "d": 37.5,
      "v": 80
    },
    {
      "midi": 54,
      "hit": false,
      "t": 93941.66666666666,
      "d": 75,
      "v": 80
    },
    {
      "midi": 69,
      "hit": false,
      "t": 94045.83333333333,
      "d": 58.33333333332848,
      "v": 90
    },
    {
      "midi": 62,
      "hit": false,
      "t": 94104.16666666666,
      "d": 29.166666666656965,
      "v": 68
    },
    {
      "midi": 68,
      "hit": false,
      "t": 94112.49999999999,
      "d": 70.83333333332848,
      "v": 62
    },
    {
      "midi": 69,
      "hit": false,
      "t": 94229.16666666664,
      "d": 66.66666666667152,
      "v": 77
    },
    {
      "midi": 50,
      "hit": false,
      "t": 94295.83333333331,
      "d": 50,
      "v": 60
    },
    {
      "midi": 71,
      "hit": false,
      "t": 94316.66666666664,
      "d": 75,
      "v": 80
    },
    {
      "midi": 73,
      "hit": false,
      "t": 94412.49999999997,
      "d": 95.83333333334303,
      "v": 56
    },
    {
      "midi": 62,
      "hit": false,
      "t": 94479.16666666664,
      "d": 45.833333333343035,
      "v": 72
    },
    {
      "midi": 74,
      "hit": false,
      "t": 94479.16666666664,
      "d": 87.50000000001455,
      "v": 80
    },
    {
      "midi": 69,
      "hit": false,
      "t": 94591.66666666666,
      "d": 79.16666666667152,
      "v": 95
    },
    {
      "midi": 54,
      "hit": false,
      "t": 94670.83333333333,
      "d": 45.83333333332848,
      "v": 46
    },
    {
      "midi": 68,
      "hit": false,
      "t": 94670.83333333333,
      "d": 75,
      "v": 74
    },
    {
      "midi": 69,
      "hit": false,
      "t": 94783.33333333333,
      "d": 87.5,
      "v": 80
    },
    {
      "midi": 62,
      "hit": false,
      "t": 94854.16666666666,
      "d": 37.5,
      "v": 58
    },
    {
      "midi": 71,
      "hit": false,
      "t": 94870.83333333333,
      "d": 95.83333333332848,
      "v": 80
    },
    {
      "midi": 73,
      "hit": false,
      "t": 94958.33333333333,
      "d": 95.83333333332848,
      "v": 58
    },
    {
      "midi": 74,
      "hit": false,
      "t": 95033.33333333333,
      "d": 79.16666666665697,
      "v": 80
    },
    {
      "midi": 50,
      "hit": false,
      "t": 95054.16666666666,
      "d": 58.33333333332848,
      "v": 80
    },
    {
      "midi": 69,
      "hit": false,
      "t": 95141.66666666666,
      "d": 75,
      "v": 83
    },
    {
      "midi": 68,
      "hit": false,
      "t": 95216.66666666666,
      "d": 87.5,
      "v": 71
    },
    {
      "midi": 62,
      "hit": false,
      "t": 95245.83333333333,
      "d": 45.83333333332848,
      "v": 65
    },
    {
      "midi": 69,
      "hit": false,
      "t": 95333.33333333333,
      "d": 95.83333333332848,
      "v": 72
    },
    {
      "midi": 71,
      "hit": false,
      "t": 95416.66666666666,
      "d": 87.5,
      "v": 80
    },
    {
      "midi": 54,
      "hit": false,
      "t": 95445.83333333333,
      "d": 58.33333333332848,
      "v": 60
    },
    {
      "midi": 73,
      "hit": false,
      "t": 95495.83333333333,
      "d": 104.16666666665697,
      "v": 63
    },
    {
      "midi": 74,
      "hit": false,
      "t": 95608.33333333331,
      "d": 87.5,
      "v": 80
    },
    {
      "midi": 62,
      "hit": false,
      "t": 95620.83333333331,
      "d": 45.83333333332848,
      "v": 68
    },
    {
      "midi": 69,
      "hit": false,
      "t": 95704.16666666664,
      "d": 87.5,
      "v": 77
    },
    {
      "midi": 68,
      "hit": false,
      "t": 95783.33333333331,
      "d": 74.99999999998545,
      "v": 69
    },
    {
      "midi": 50,
      "hit": false,
      "t": 95799.99999999997,
      "d": 79.16666666665697,
      "v": 69
    },
    {
      "midi": 69,
      "hit": false,
      "t": 95887.49999999996,
      "d": 125,
      "v": 83
    },
    {
      "midi": 62,
      "hit": false,
      "t": 95983.33333333328,
      "d": 45.833333333343035,
      "v": 66
    },
    {
      "midi": 71,
      "hit": false,
      "t": 95983.33333333328,
      "d": 95.83333333334303,
      "v": 80
    },
    {
      "midi": 73,
      "hit": false,
      "t": 96049.99999999996,
      "d": 116.66666666667152,
      "v": 68
    },
    {
      "midi": 74,
      "hit": false,
      "t": 96154.16666666663,
      "d": 604.166666666657,
      "v": 86
    },
    {
      "midi": 55,
      "hit": false,
      "t": 96166.66666666663,
      "d": 45.83333333332848,
      "v": 71
    },
    {
      "midi": 67,
      "hit": false,
      "t": 96345.83333333328,
      "d": 58.33333333332848,
      "v": 58
    },
    {
      "midi": 71,
      "hit": false,
      "t": 96345.83333333328,
      "d": 79.16666666665697,
      "v": 69
    },
    {
      "midi": 62,
      "hit": false,
      "t": 96358.33333333328,
      "d": 45.83333333332848,
      "v": 72
    },
    {
      "midi": 64,
      "hit": false,
      "t": 96366.66666666661,
      "d": 37.5,
      "v": 58
    },
    {
      "midi": 55,
      "hit": false,
      "t": 96549.99999999994,
      "d": 208.33333333334303,
      "v": 66
    },
    {
      "midi": 62,
      "hit": false,
      "t": 96741.66666666661,
      "d": 37.5,
      "v": 66
    },
    {
      "midi": 64,
      "hit": false,
      "t": 96741.66666666661,
      "d": 37.5,
      "v": 72
    },
    {
      "midi": 67,
      "hit": false,
      "t": 96741.66666666661,
      "d": 45.83333333332848,
      "v": 71
    },
    {
      "midi": 71,
      "hit": false,
      "t": 96741.66666666661,
      "d": 75,
      "v": 77
    },
    {
      "midi": 62,
      "hit": false,
      "t": 96949.99999999994,
      "d": 162.5,
      "v": 80
    },
    {
      "midi": 67,
      "hit": false,
      "t": 96949.99999999994,
      "d": 162.5,
      "v": 86
    },
    {
      "midi": 57,
      "hit": false,
      "t": 96949.99999999994,
      "d": 183.33333333332848,
      "v": 101
    },
    {
      "midi": 69,
      "hit": false,
      "t": 97170.83333333327,
      "d": 95.83333333332848,
      "v": 77
    },
    {
      "midi": 71,
      "hit": false,
      "t": 97258.33333333327,
      "d": 87.5,
      "v": 68
    },
    {
      "midi": 73,
      "hit": false,
      "t": 97345.83333333327,
      "d": 66.66666666667152,
      "v": 52
    },
    {
      "midi": 74,
      "hit": false,
      "t": 97466.66666666661,
      "d": 87.5,
      "v": 71
    },
    {
      "midi": 76,
      "hit": false,
      "t": 97574.99999999994,
      "d": 83.33333333332848,
      "v": 69
    },
    {
      "midi": 78,
      "hit": false,
      "t": 97649.99999999994,
      "d": 104.16666666665697,
      "v": 58
    },
    {
      "midi": 79,
      "hit": false,
      "t": 97766.6666666666,
      "d": 133.33333333332848,
      "v": 72
    },
    {
      "midi": 61,
      "hit": false,
      "t": 97774.99999999993,
      "d": 58.33333333332848,
      "v": 80
    },
    {
      "midi": 67,
      "hit": false,
      "t": 97774.99999999993,
      "d": 58.33333333332848,
      "v": 90
    },
    {
      "midi": 57,
      "hit": false,
      "t": 97774.99999999993,
      "d": 75,
      "v": 90
    },
    {
      "midi": 78,
      "hit": false,
      "t": 97870.83333333326,
      "d": 116.66666666667152,
      "v": 66
    },
    {
      "midi": 76,
      "hit": false,
      "t": 97974.99999999993,
      "d": 66.66666666667152,
      "v": 68
    },
    {
      "midi": 74,
      "hit": false,
      "t": 98070.83333333327,
      "d": 79.16666666667152,
      "v": 66
    },
    {
      "midi": 73,
      "hit": false,
      "t": 98166.66666666661,
      "d": 125,
      "v": 58
    },
    {
      "midi": 71,
      "hit": false,
      "t": 98274.99999999994,
      "d": 112.5,
      "v": 58
    },
    {
      "midi": 69,
      "hit": false,
      "t": 98379.16666666661,
      "d": 66.66666666665697,
      "v": 66
    },
    {
      "midi": 67,
      "hit": false,
      "t": 98474.99999999994,
      "d": 95.83333333332848,
      "v": 74
    },
    {
      "midi": 66,
      "hit": false,
      "t": 98562.49999999994,
      "d": 162.5,
      "v": 80
    },
    {
      "midi": 55,
      "hit": false,
      "t": 98608.33333333327,
      "d": 412.5,
      "v": 80
    },
    {
      "midi": 45,
      "hit": false,
      "t": 98608.33333333327,
      "d": 670.8333333333285,
      "v": 95
    },
    {
      "midi": 52,
      "hit": false,
      "t": 98608.33333333327,
      "d": 708.3333333333285,
      "v": 77
    },
    {
      "midi": 64,
      "hit": false,
      "t": 98687.49999999994,
      "d": 95.83333333332848,
      "v": 69
    },
    {
      "midi": 62,
      "hit": false,
      "t": 98791.6666666666,
      "d": 104.16666666667152,
      "v": 68
    },
    {
      "midi": 61,
      "hit": false,
      "t": 98866.6666666666,
      "d": 162.5,
      "v": 69
    },
    {
      "midi": 59,
      "hit": false,
      "t": 99012.49999999994,
      "d": 74.99999999998545,
      "v": 74
    },
    {
      "midi": 57,
      "hit": false,
      "t": 99087.49999999993,
      "d": 162.5,
      "v": 80
    },
    {
      "midi": 59,
      "hit": false,
      "t": 99204.1666666666,
      "d": 125,
      "v": 80
    },
    {
      "midi": 61,
      "hit": false,
      "t": 99262.49999999993,
      "d": 120.83333333334303,
      "v": 66
    },
    {
      "midi": 62,
      "hit": false,
      "t": 99383.33333333327,
      "d": 87.49999999998545,
      "v": 83
    },
    {
      "midi": 50,
      "hit": false,
      "t": 99404.1666666666,
      "d": 58.33333333332848,
      "v": 101
    },
    {
      "midi": 52,
      "hit": false,
      "t": 99845.83333333326,
      "d": 37.5,
      "v": 83
    },
    {
      "midi": 45,
      "hit": false,
      "t": 99845.83333333326,
      "d": 58.33333333332848,
      "v": 104
    },
    {
      "midi": 55,
      "hit": false,
      "t": 99845.83333333326,
      "d": 58.33333333332848,
      "v": 101
    },
    {
      "midi": 57,
      "hit": false,
      "t": 99845.83333333326,
      "d": 58.33333333332848,
      "v": 104
    },
    {
      "midi": 64,
      "hit": false,
      "t": 99845.83333333326,
      "d": 58.33333333332848,
      "v": 90
    },
    {
      "midi": 61,
      "hit": false,
      "t": 99845.83333333326,
      "d": 75,
      "v": 90
    },
    {
      "midi": 69,
      "hit": false,
      "t": 99845.83333333326,
      "d": 87.5,
      "v": 101
    },
    {
      "midi": 50,
      "hit": false,
      "t": 100320.83333333326,
      "d": 95.83333333332848,
      "v": 101
    },
    {
      "midi": 74,
      "hit": false,
      "t": 100416.66666666658,
      "d": 125,
      "v": 80
    },
    {
      "midi": 57,
      "hit": false,
      "t": 100504.16666666658,
      "d": 54.16666666667152,
      "v": 71
    },
    {
      "midi": 73,
      "hit": false,
      "t": 100541.66666666658,
      "d": 95.83333333332848,
      "v": 69
    },
    {
      "midi": 74,
      "hit": false,
      "t": 100616.66666666658,
      "d": 145.83333333332848,
      "v": 58
    },
    {
      "midi": 45,
      "hit": false,
      "t": 100733.33333333324,
      "d": 66.66666666667152,
      "v": 80
    },
    {
      "midi": 76,
      "hit": false,
      "t": 100733.33333333324,
      "d": 162.50000000001455,
      "v": 63
    },
    {
      "midi": 78,
      "hit": false,
      "t": 100816.66666666658,
      "d": 154.16666666668607,
      "v": 60
    },
    {
      "midi": 57,
      "hit": false,
      "t": 100924.99999999993,
      "d": 45.833333333343035,
      "v": 80
    },
    {
      "midi": 69,
      "hit": false,
      "t": 100924.99999999993,
      "d": 58.333333333343035,
      "v": 77
    },
    {
      "midi": 81,
      "hit": false,
      "t": 100941.6666666666,
      "d": 79.16666666667152,
      "v": 90
    },
    {
      "midi": 74,
      "hit": false,
      "t": 101066.6666666666,
      "d": 58.33333333332848,
      "v": 72
    },
    {
      "midi": 50,
      "hit": false,
      "t": 101104.1666666666,
      "d": 58.33333333332848,
      "v": 74
    },
    {
      "midi": 73,
      "hit": false,
      "t": 101145.83333333326,
      "d": 54.16666666667152,
      "v": 70
    },
    {
      "midi": 74,
      "hit": false,
      "t": 101229.1666666666,
      "d": 125,
      "v": 68
    },
    {
      "midi": 57,
      "hit": false,
      "t": 101324.99999999993,
      "d": 50,
      "v": 69
    },
    {
      "midi": 76,
      "hit": false,
      "t": 101337.49999999993,
      "d": 133.33333333334303,
      "v": 58
    },
    {
      "midi": 78,
      "hit": false,
      "t": 101391.6666666666,
      "d": 166.66666666665697,
      "v": 69
    },
    {
      "midi": 69,
      "hit": false,
      "t": 101529.1666666666,
      "d": 54.166666666656965,
      "v": 101
    },
    {
      "midi": 81,
      "hit": false,
      "t": 101529.1666666666,
      "d": 125,
      "v": 101
    },
    {
      "midi": 45,
      "hit": false,
      "t": 101537.49999999993,
      "d": 75,
      "v": 95
    },
    {
      "midi": 74,
      "hit": false,
      "t": 101654.1666666666,
      "d": 95.83333333332848,
      "v": 66
    },
    {
      "midi": 57,
      "hit": false,
      "t": 101729.1666666666,
      "d": 37.5,
      "v": 74
    },
    {
      "midi": 73,
      "hit": false,
      "t": 101737.49999999993,
      "d": 108.33333333334303,
      "v": 69
    },
    {
      "midi": 74,
      "hit": false,
      "t": 101833.33333333327,
      "d": 133.33333333332848,
      "v": 65
    },
    {
      "midi": 76,
      "hit": false,
      "t": 101929.1666666666,
      "d": 154.16666666667152,
      "v": 69
    },
    {
      "midi": 50,
      "hit": false,
      "t": 101941.6666666666,
      "d": 112.5,
      "v": 66
    },
    {
      "midi": 78,
      "hit": false,
      "t": 102008.33333333327,
      "d": 150,
      "v": 65
    },
    {
      "midi": 69,
      "hit": false,
      "t": 102112.49999999994,
      "d": 95.83333333332848,
      "v": 83
    },
    {
      "midi": 81,
      "hit": false,
      "t": 102112.49999999994,
      "d": 154.16666666667152,
      "v": 83
    },
    {
      "midi": 57,
      "hit": false,
      "t": 102120.83333333327,
      "d": 66.66666666667152,
      "v": 74
    },
    {
      "midi": 74,
      "hit": false,
      "t": 102237.49999999994,
      "d": 133.33333333332848,
      "v": 77
    },
    {
      "midi": 45,
      "hit": false,
      "t": 102341.66666666661,
      "d": 124.99999999998545,
      "v": 80
    },
    {
      "midi": 73,
      "hit": false,
      "t": 102349.99999999994,
      "d": 124.99999999998545,
      "v": 74
    },
    {
      "midi": 74,
      "hit": false,
      "t": 102445.83333333327,
      "d": 166.66666666665697,
      "v": 68
    },
    {
      "midi": 57,
      "hit": false,
      "t": 102524.99999999993,
      "d": 66.66666666667152,
      "v": 71
    },
    {
      "midi": 76,
      "hit": false,
      "t": 102533.33333333326,
      "d": 162.5,
      "v": 62
    },
    {
      "midi": 78,
      "hit": false,
      "t": 102591.6666666666,
      "d": 162.49999999998545,
      "v": 66
    },
    {
      "midi": 51,
      "hit": false,
      "t": 102708.33333333326,
      "d": 95.83333333332848,
      "v": 83
    },
    {
      "midi": 69,
      "hit": false,
      "t": 102708.33333333326,
      "d": 612.5,
      "v": 101
    },
    {
      "midi": 81,
      "hit": false,
      "t": 102708.33333333326,
      "d": 641.6666666666715,
      "v": 101
    },
    {
      "midi": 71,
      "hit": false,
      "t": 102899.99999999991,
      "d": 66.66666666667152,
      "v": 60
    },
    {
      "midi": 78,
      "hit": false,
      "t": 102899.99999999991,
      "d": 83.33333333334303,
      "v": 63
    },
    {
      "midi": 57,
      "hit": false,
      "t": 102924.99999999991,
      "d": 41.66666666667152,
      "v": 69
    },
    {
      "midi": 47,
      "hit": false,
      "t": 103116.66666666658,
      "d": 154.16666666667152,
      "v": 83
    },
    {
      "midi": 57,
      "hit": false,
      "t": 103308.33333333326,
      "d": 58.333333333343035,
      "v": 80
    },
    {
      "midi": 71,
      "hit": false,
      "t": 103308.33333333326,
      "d": 58.333333333343035,
      "v": 83
    },
    {
      "midi": 78,
      "hit": false,
      "t": 103308.33333333326,
      "d": 79.16666666667152,
      "v": 77
    },
    {
      "midi": 52,
      "hit": false,
      "t": 103520.83333333327,
      "d": 66.66666666667152,
      "v": 77
    },
    {
      "midi": 76,
      "hit": false,
      "t": 103608.33333333327,
      "d": 104.16666666665697,
      "v": 69
    },
    {
      "midi": 59,
      "hit": false,
      "t": 103683.33333333327,
      "d": 49.99999999998545,
      "v": 74
    },
    {
      "midi": 75,
      "hit": false,
      "t": 103704.1666666666,
      "d": 83.33333333332848,
      "v": 69
    },
    {
      "midi": 76,
      "hit": false,
      "t": 103770.83333333326,
      "d": 141.66666666667152,
      "v": 63
    },
    {
      "midi": 78,
      "hit": false,
      "t": 103883.33333333326,
      "d": 154.16666666667152,
      "v": 63
    },
    {
      "midi": 47,
      "hit": false,
      "t": 103895.83333333326,
      "d": 95.83333333334303,
      "v": 80
    },
    {
      "midi": 79,
      "hit": false,
      "t": 103954.1666666666,
      "d": 150,
      "v": 71
    },
    {
      "midi": 71,
      "hit": false,
      "t": 104066.6666666666,
      "d": 87.5,
      "v": 83
    },
    {
      "midi": 59,
      "hit": false,
      "t": 104074.99999999993,
      "d": 41.66666666667152,
      "v": 74
    },
    {
      "midi": 83,
      "hit": false,
      "t": 104074.99999999993,
      "d": 154.16666666667152,
      "v": 83
    },
    {
      "midi": 76,
      "hit": false,
      "t": 104199.99999999993,
      "d": 116.66666666665697,
      "v": 60
    },
    {
      "midi": 52,
      "hit": false,
      "t": 104279.1666666666,
      "d": 45.83333333331393,
      "v": 69
    },
    {
      "midi": 75,
      "hit": false,
      "t": 104295.83333333326,
      "d": 108.33333333332848,
      "v": 72
    },
    {
      "midi": 76,
      "hit": false,
      "t": 104391.66666666658,
      "d": 125.00000000001455,
      "v": 50
    },
    {
      "midi": 59,
      "hit": false,
      "t": 104458.33333333326,
      "d": 58.333333333343035,
      "v": 66
    },
    {
      "midi": 78,
      "hit": false,
      "t": 104458.33333333326,
      "d": 175.00000000001455,
      "v": 66
    },
    {
      "midi": 79,
      "hit": false,
      "t": 104545.83333333327,
      "d": 162.5,
      "v": 74
    },
    {
      "midi": 71,
      "hit": false,
      "t": 104679.1666666666,
      "d": 79.16666666667152,
      "v": 95
    },
    {
      "midi": 47,
      "hit": false,
      "t": 104679.1666666666,
      "d": 108.33333333334303,
      "v": 95
    },
    {
      "midi": 83,
      "hit": false,
      "t": 104679.1666666666,
      "d": 145.83333333334303,
      "v": 95
    },
    {
      "midi": 76,
      "hit": false,
      "t": 104787.49999999994,
      "d": 112.5,
      "v": 74
    },
    {
      "midi": 59,
      "hit": false,
      "t": 104862.49999999994,
      "d": 37.5,
      "v": 63
    },
    {
      "midi": 75,
      "hit": false,
      "t": 104899.99999999994,
      "d": 108.33333333332848,
      "v": 77
    },
    {
      "midi": 76,
      "hit": false,
      "t": 104995.83333333327,
      "d": 116.66666666667152,
      "v": 69
    },
    {
      "midi": 78,
      "hit": false,
      "t": 105062.49999999994,
      "d": 116.66666666667152,
      "v": 62
    },
    {
      "midi": 52,
      "hit": false,
      "t": 105074.99999999994,
      "d": 125,
      "v": 62
    },
    {
      "midi": 79,
      "hit": false,
      "t": 105129.16666666661,
      "d": 154.1666666666424,
      "v": 71
    },
    {
      "midi": 59,
      "hit": false,
      "t": 105245.83333333327,
      "d": 66.66666666665697,
      "v": 74
    },
    {
      "midi": 83,
      "hit": false,
      "t": 105254.1666666666,
      "d": 220.83333333332848,
      "v": 77
    },
    {
      "midi": 71,
      "hit": false,
      "t": 105274.99999999993,
      "d": 75,
      "v": 77
    },
    {
      "midi": 76,
      "hit": false,
      "t": 105370.83333333326,
      "d": 141.66666666667152,
      "v": 77
    },
    {
      "midi": 47,
      "hit": false,
      "t": 105437.49999999993,
      "d": 162.5,
      "v": 83
    },
    {
      "midi": 75,
      "hit": false,
      "t": 105512.49999999993,
      "d": 116.66666666667152,
      "v": 72
    },
    {
      "midi": 76,
      "hit": false,
      "t": 105599.99999999993,
      "d": 145.83333333334303,
      "v": 68
    },
    {
      "midi": 59,
      "hit": false,
      "t": 105629.1666666666,
      "d": 75,
      "v": 72
    },
    {
      "midi": 78,
      "hit": false,
      "t": 105666.6666666666,
      "d": 145.83333333334303,
      "v": 66
    },
    {
      "midi": 79,
      "hit": false,
      "t": 105733.33333333327,
      "d": 145.83333333334303,
      "v": 71
    },
    {
      "midi": 53,
      "hit": false,
      "t": 105829.16666666661,
      "d": 108.33333333332848,
      "v": 86
    },
    {
      "midi": 71,
      "hit": false,
      "t": 105829.16666666661,
      "d": 624.9999999999709,
      "v": 83
    },
    {
      "midi": 83,
      "hit": false,
      "t": 105829.16666666661,
      "d": 633.3333333332994,
      "v": 95
    },
    {
      "midi": 73,
      "hit": false,
      "t": 106033.33333333327,
      "d": 37.5,
      "v": 69
    },
    {
      "midi": 80,
      "hit": false,
      "t": 106033.33333333327,
      "d": 54.16666666667152,
      "v": 69
    },
    {
      "midi": 59,
      "hit": false,
      "t": 106041.6666666666,
      "d": 45.833333333343035,
      "v": 72
    },
    {
      "midi": 49,
      "hit": false,
      "t": 106233.33333333327,
      "d": 133.33333333332848,
      "v": 65
    },
    {
      "midi": 73,
      "hit": false,
      "t": 106424.99999999993,
      "d": 45.83333333331393,
      "v": 83
    },
    {
      "midi": 80,
      "hit": false,
      "t": 106424.99999999993,
      "d": 74.99999999998545,
      "v": 90
    },
    {
      "midi": 59,
      "hit": false,
      "t": 106445.83333333326,
      "d": 37.49999999998545,
      "v": 74
    },
    {
      "midi": 54,
      "hit": false,
      "t": 106645.83333333324,
      "d": 104.16666666667152,
      "v": 77
    },
    {
      "midi": 81,
      "hit": false,
      "t": 106749.99999999991,
      "d": 87.5,
      "v": 69
    },
    {
      "midi": 62,
      "hit": false,
      "t": 106808.33333333324,
      "d": 45.833333333343035,
      "v": 71
    },
    {
      "midi": 80,
      "hit": false,
      "t": 106837.49999999991,
      "d": 95.83333333334303,
      "v": 74
    },
    {
      "midi": 81,
      "hit": false,
      "t": 106933.33333333326,
      "d": 125,
      "v": 72
    },
    {
      "midi": 50,
      "hit": false,
      "t": 107008.33333333326,
      "d": 108.33333333332848,
      "v": 74
    },
    {
      "midi": 83,
      "hit": false,
      "t": 107020.83333333326,
      "d": 141.66666666665697,
      "v": 69
    },
    {
      "midi": 85,
      "hit": false,
      "t": 107095.83333333326,
      "d": 133.33333333332848,
      "v": 58
    },
    {
      "midi": 62,
      "hit": false,
      "t": 107199.99999999991,
      "d": 50,
      "v": 71
    },
    {
      "midi": 74,
      "hit": false,
      "t": 107199.99999999991,
      "d": 79.16666666667152,
      "v": 83
    },
    {
      "midi": 86,
      "hit": false,
      "t": 107199.99999999991,
      "d": 162.50000000001455,
      "v": 80
    },
    {
      "midi": 81,
      "hit": false,
      "t": 107308.33333333326,
      "d": 120.83333333334303,
      "v": 80
    },
    {
      "midi": 54,
      "hit": false,
      "t": 107391.6666666666,
      "d": 125,
      "v": 60
    },
    {
      "midi": 80,
      "hit": false,
      "t": 107429.1666666666,
      "d": 87.5,
      "v": 66
    },
    {
      "midi": 81,
      "hit": false,
      "t": 107508.33333333327,
      "d": 154.16666666665697,
      "v": 68
    },
    {
      "midi": 62,
      "hit": false,
      "t": 107574.99999999993,
      "d": 87.5,
      "v": 69
    },
    {
      "midi": 83,
      "hit": false,
      "t": 107595.83333333326,
      "d": 150,
      "v": 69
    },
    {
      "midi": 85,
      "hit": false,
      "t": 107649.99999999993,
      "d": 145.83333333332848,
      "v": 56
    },
    {
      "midi": 86,
      "hit": false,
      "t": 107758.33333333326,
      "d": 170.83333333334303,
      "v": 66
    },
    {
      "midi": 74,
      "hit": false,
      "t": 107787.49999999993,
      "d": 83.33333333332848,
      "v": 86
    },
    {
      "midi": 50,
      "hit": false,
      "t": 107795.83333333326,
      "d": 162.50000000001455,
      "v": 86
    },
    {
      "midi": 81,
      "hit": false,
      "t": 107899.99999999993,
      "d": 125.00000000001455,
      "v": 80
    },
    {
      "midi": 62,
      "hit": false,
      "t": 107995.83333333327,
      "d": 58.33333333332848,
      "v": 66
    },
    {
      "midi": 80,
      "hit": false,
      "t": 108045.83333333327,
      "d": 95.83333333332848,
      "v": 71
    },
    {
      "midi": 81,
      "hit": false,
      "t": 108129.1666666666,
      "d": 137.5,
      "v": 72
    },
    {
      "midi": 54,
      "hit": false,
      "t": 108187.49999999993,
      "d": 154.16666666667152,
      "v": 68
    },
    {
      "midi": 83,
      "hit": false,
      "t": 108216.6666666666,
      "d": 133.33333333332848,
      "v": 69
    },
    {
      "midi": 85,
      "hit": false,
      "t": 108283.33333333327,
      "d": 133.33333333332848,
      "v": 60
    },
    {
      "midi": 86,
      "hit": false,
      "t": 108349.99999999993,
      "d": 191.66666666665697,
      "v": 80
    },
    {
      "midi": 62,
      "hit": false,
      "t": 108370.83333333326,
      "d": 66.66666666667152,
      "v": 72
    },
    {
      "midi": 74,
      "hit": false,
      "t": 108387.49999999993,
      "d": 87.5,
      "v": 77
    },
    {
      "midi": 81,
      "hit": false,
      "t": 108483.33333333326,
      "d": 154.16666666667152,
      "v": 83
    },
    {
      "midi": 50,
      "hit": false,
      "t": 108554.16666666658,
      "d": 179.16666666667152,
      "v": 80
    },
    {
      "midi": 80,
      "hit": false,
      "t": 108620.83333333326,
      "d": 104.16666666667152,
      "v": 71
    },
    {
      "midi": 81,
      "hit": false,
      "t": 108704.1666666666,
      "d": 154.16666666665697,
      "v": 72
    },
    {
      "midi": 62,
      "hit": false,
      "t": 108754.16666666658,
      "d": 75,
      "v": 69
    },
    {
      "midi": 83,
      "hit": false,
      "t": 108791.66666666658,
      "d": 154.16666666665697,
      "v": 74
    },
    {
      "midi": 85,
      "hit": false,
      "t": 108866.66666666658,
      "d": 116.66666666665697,
      "v": 63
    },
    {
      "midi": 55,
      "hit": false,
      "t": 108937.49999999991,
      "d": 191.66666666665697,
      "v": 80
    },
    {
      "midi": 86,
      "hit": false,
      "t": 108937.49999999991,
      "d": 737.4999999999854,
      "v": 95
    },
    {
      "midi": 74,
      "hit": false,
      "t": 109129.16666666657,
      "d": 45.833333333343035,
      "v": 80
    },
    {
      "midi": 79,
      "hit": false,
      "t": 109129.16666666657,
      "d": 45.833333333343035,
      "v": 80
    },
    {
      "midi": 83,
      "hit": false,
      "t": 109129.16666666657,
      "d": 75,
      "v": 77
    },
    {
      "midi": 62,
      "hit": false,
      "t": 109145.83333333324,
      "d": 50,
      "v": 74
    },
    {
      "midi": 55,
      "hit": false,
      "t": 109337.4999999999,
      "d": 212.5,
      "v": 80
    },
    {
      "midi": 62,
      "hit": false,
      "t": 109537.4999999999,
      "d": 41.66666666667152,
      "v": 68
    },
    {
      "midi": 74,
      "hit": false,
      "t": 109537.4999999999,
      "d": 41.66666666667152,
      "v": 74
    },
    {
      "midi": 79,
      "hit": false,
      "t": 109537.4999999999,
      "d": 50,
      "v": 77
    },
    {
      "midi": 83,
      "hit": false,
      "t": 109537.4999999999,
      "d": 79.16666666667152,
      "v": 80
    },
    {
      "midi": 67,
      "hit": false,
      "t": 109749.9999999999,
      "d": 75,
      "v": 90
    },
    {
      "midi": 57,
      "hit": false,
      "t": 109749.9999999999,
      "d": 95.83333333332848,
      "v": 95
    },
    {
      "midi": 62,
      "hit": false,
      "t": 109749.9999999999,
      "d": 95.83333333332848,
      "v": 83
    },
    {
      "midi": 81,
      "hit": false,
      "t": 109970.83333333323,
      "d": 116.66666666667152,
      "v": 66
    },
    {
      "midi": 83,
      "hit": false,
      "t": 110074.9999999999,
      "d": 116.66666666665697,
      "v": 66
    },
    {
      "midi": 85,
      "hit": false,
      "t": 110170.83333333323,
      "d": 79.16666666665697,
      "v": 60
    },
    {
      "midi": 86,
      "hit": false,
      "t": 110295.83333333321,
      "d": 95.83333333332848,
      "v": 80
    },
    {
      "midi": 88,
      "hit": false,
      "t": 110420.83333333321,
      "d": 95.83333333334303,
      "v": 68
    },
    {
      "midi": 90,
      "hit": false,
      "t": 110487.49999999988,
      "d": 116.66666666667152,
      "v": 65
    },
    {
      "midi": 91,
      "hit": false,
      "t": 110604.16666666656,
      "d": 141.66666666667152,
      "v": 77
    },
    {
      "midi": 61,
      "hit": false,
      "t": 110641.66666666656,
      "d": 58.333333333343035,
      "v": 80
    },
    {
      "midi": 67,
      "hit": false,
      "t": 110641.66666666656,
      "d": 58.333333333343035,
      "v": 86
    },
    {
      "midi": 57,
      "hit": false,
      "t": 110641.66666666656,
      "d": 75,
      "v": 95
    },
    {
      "midi": 90,
      "hit": false,
      "t": 110708.33333333323,
      "d": 145.83333333332848,
      "v": 69
    },
    {
      "midi": 88,
      "hit": false,
      "t": 110833.33333333323,
      "d": 66.66666666665697,
      "v": 66
    },
    {
      "midi": 86,
      "hit": false,
      "t": 110908.33333333321,
      "d": 79.16666666667152,
      "v": 77
    },
    {
      "midi": 85,
      "hit": false,
      "t": 111016.66666666656,
      "d": 125,
      "v": 58
    },
    {
      "midi": 83,
      "hit": false,
      "t": 111120.83333333323,
      "d": 133.33333333332848,
      "v": 60
    },
    {
      "midi": 81,
      "hit": false,
      "t": 111237.49999999988,
      "d": 75,
      "v": 71
    },
    {
      "midi": 79,
      "hit": false,
      "t": 111333.33333333321,
      "d": 95.83333333334303,
      "v": 77
    },
    {
      "midi": 78,
      "hit": false,
      "t": 111429.16666666656,
      "d": 149.99999999998545,
      "v": 74
    },
    {
      "midi": 45,
      "hit": false,
      "t": 111474.99999999988,
      "d": 124.99999999998545,
      "v": 80
    },
    {
      "midi": 76,
      "hit": false,
      "t": 111562.49999999988,
      "d": 66.66666666665697,
      "v": 63
    },
    {
      "midi": 55,
      "hit": false,
      "t": 111562.49999999988,
      "d": 112.49999999998545,
      "v": 74
    },
    {
      "midi": 74,
      "hit": false,
      "t": 111637.49999999987,
      "d": 87.5,
      "v": 65
    },
    {
      "midi": 54,
      "hit": false,
      "t": 111674.99999999987,
      "d": 58.33333333332848,
      "v": 66
    },
    {
      "midi": 73,
      "hit": false,
      "t": 111716.66666666654,
      "d": 170.83333333331393,
      "v": 74
    },
    {
      "midi": 52,
      "hit": false,
      "t": 111733.3333333332,
      "d": 50,
      "v": 63
    },
    {
      "midi": 50,
      "hit": false,
      "t": 111829.16666666653,
      "d": 125,
      "v": 74
    },
    {
      "midi": 71,
      "hit": false,
      "t": 111837.49999999985,
      "d": 108.33333333334303,
      "v": 68
    },
    {
      "midi": 49,
      "hit": false,
      "t": 111916.66666666653,
      "d": 133.33333333332848,
      "v": 77
    },
    {
      "midi": 69,
      "hit": false,
      "t": 111962.49999999985,
      "d": 125,
      "v": 83
    },
    {
      "midi": 47,
      "hit": false,
      "t": 112049.99999999985,
      "d": 133.33333333332848,
      "v": 65
    },
    {
      "midi": 71,
      "hit": false,
      "t": 112049.99999999985,
      "d": 133.33333333332848,
      "v": 71
    },
    {
      "midi": 45,
      "hit": false,
      "t": 112099.99999999985,
      "d": 104.16666666665697,
      "v": 77
    },
    {
      "midi": 73,
      "hit": false,
      "t": 112124.99999999985,
      "d": 124.99999999998545,
      "v": 65
    },
    {
      "midi": 50,
      "hit": false,
      "t": 112212.49999999984,
      "d": 270.83333333334303,
      "v": 95
    },
    {
      "midi": 74,
      "hit": false,
      "t": 112233.33333333317,
      "d": 141.66666666667152,
      "v": 74
    },
    {
      "midi": 73,
      "hit": false,
      "t": 112358.33333333317,
      "d": 83.33333333334303,
      "v": 74
    },
    {
      "midi": 38,
      "hit": false,
      "t": 112454.16666666651,
      "d": 66.66666666667152,
      "v": 86
    },
    {
      "midi": 74,
      "hit": false,
      "t": 112454.16666666651,
      "d": 83.33333333334303,
      "v": 80
    },
    {
      "midi": 75,
      "hit": false,
      "t": 112558.33333333318,
      "d": 37.5,
      "v": 69
    },
    {
      "midi": 76,
      "hit": false,
      "t": 112654.16666666651,
      "d": 95.83333333332848,
      "v": 80
    },
    {
      "midi": 52,
      "hit": false,
      "t": 112674.99999999984,
      "d": 66.66666666667152,
      "v": 80
    },
    {
      "midi": 78,
      "hit": false,
      "t": 112770.83333333317,
      "d": 133.33333333332848,
      "v": 74
    },
    {
      "midi": 40,
      "hit": false,
      "t": 112866.6666666665,
      "d": 66.66666666667152,
      "v": 90
    },
    {
      "midi": 79,
      "hit": false,
      "t": 112866.6666666665,
      "d": 141.66666666667152,
      "v": 63
    },
    {
      "midi": 80,
      "hit": false,
      "t": 112941.6666666665,
      "d": 125,
      "v": 72
    },
    {
      "midi": 81,
      "hit": false,
      "t": 113045.83333333317,
      "d": 2320.8333333333285,
      "v": 83
    },
    {
      "midi": 45,
      "hit": false,
      "t": 113066.6666666665,
      "d": 75,
      "v": 104
    },
    {
      "midi": 69,
      "hit": false,
      "t": 113266.6666666665,
      "d": 50,
      "v": 62
    },
    {
      "midi": 73,
      "hit": false,
      "t": 113266.6666666665,
      "d": 66.66666666667152,
      "v": 58
    },
    {
      "midi": 78,
      "hit": false,
      "t": 113266.6666666665,
      "d": 66.66666666667152,
      "v": 52
    },
    {
      "midi": 52,
      "hit": false,
      "t": 113287.49999999983,
      "d": 45.833333333343035,
      "v": 69
    },
    {
      "midi": 40,
      "hit": false,
      "t": 113479.1666666665,
      "d": 179.16666666667152,
      "v": 67
    },
    {
      "midi": 74,
      "hit": false,
      "t": 113658.33333333317,
      "d": 50,
      "v": 71
    },
    {
      "midi": 52,
      "hit": false,
      "t": 113658.33333333317,
      "d": 58.33333333332848,
      "v": 66
    },
    {
      "midi": 78,
      "hit": false,
      "t": 113658.33333333317,
      "d": 58.33333333332848,
      "v": 58
    },
    {
      "midi": 68,
      "hit": false,
      "t": 113670.83333333317,
      "d": 37.5,
      "v": 44
    },
    {
      "midi": 45,
      "hit": false,
      "t": 113862.49999999983,
      "d": 191.66666666667152,
      "v": 69
    },
    {
      "midi": 73,
      "hit": false,
      "t": 114054.1666666665,
      "d": 45.833333333343035,
      "v": 60
    },
    {
      "midi": 78,
      "hit": false,
      "t": 114054.1666666665,
      "d": 66.66666666667152,
      "v": 63
    },
    {
      "midi": 69,
      "hit": false,
      "t": 114070.83333333317,
      "d": 41.66666666667152,
      "v": 62
    },
    {
      "midi": 52,
      "hit": false,
      "t": 114070.83333333317,
      "d": 50,
      "v": 58
    },
    {
      "midi": 40,
      "hit": false,
      "t": 114274.99999999984,
      "d": 200,
      "v": 62
    },
    {
      "midi": 68,
      "hit": false,
      "t": 114466.66666666651,
      "d": 45.83333333332848,
      "v": 48
    },
    {
      "midi": 78,
      "hit": false,
      "t": 114466.66666666651,
      "d": 66.66666666665697,
      "v": 58
    },
    {
      "midi": 74,
      "hit": false,
      "t": 114474.99999999984,
      "d": 37.5,
      "v": 60
    },
    {
      "midi": 52,
      "hit": false,
      "t": 114483.33333333317,
      "d": 37.5,
      "v": 58
    },
    {
      "midi": 45,
      "hit": false,
      "t": 114687.49999999984,
      "d": 179.16666666667152,
      "v": 62
    },
    {
      "midi": 73,
      "hit": false,
      "t": 114866.66666666651,
      "d": 37.5,
      "v": 65
    },
    {
      "midi": 78,
      "hit": false,
      "t": 114866.66666666651,
      "d": 58.33333333332848,
      "v": 62
    },
    {
      "midi": 69,
      "hit": false,
      "t": 114887.49999999984,
      "d": 37.5,
      "v": 38
    },
    {
      "midi": 52,
      "hit": false,
      "t": 114887.49999999984,
      "d": 45.83333333332848,
      "v": 56
    },
    {
      "midi": 40,
      "hit": false,
      "t": 115079.1666666665,
      "d": 191.66666666667152,
      "v": 68
    },
    {
      "midi": 68,
      "hit": false,
      "t": 115262.49999999984,
      "d": 83.33333333332848,
      "v": 56
    },
    {
      "midi": 74,
      "hit": false,
      "t": 115262.49999999984,
      "d": 95.83333333332848,
      "v": 68
    },
    {
      "midi": 78,
      "hit": false,
      "t": 115262.49999999984,
      "d": 112.49999999998545,
      "v": 56
    },
    {
      "midi": 52,
      "hit": false,
      "t": 115287.49999999984,
      "d": 50,
      "v": 63
    },
    {
      "midi": 45,
      "hit": false,
      "t": 115470.83333333315,
      "d": 145.83333333332848,
      "v": 90
    },
    {
      "midi": 81,
      "hit": false,
      "t": 115587.49999999983,
      "d": 112.49999999998545,
      "v": 80
    },
    {
      "midi": 52,
      "hit": false,
      "t": 115624.99999999981,
      "d": 58.33333333332848,
      "v": 68
    },
    {
      "midi": 78,
      "hit": false,
      "t": 115645.83333333314,
      "d": 150.00000000001455,
      "v": 71
    },
    {
      "midi": 76,
      "hit": false,
      "t": 115741.66666666648,
      "d": 104.16666666667152,
      "v": 65
    },
    {
      "midi": 73,
      "hit": false,
      "t": 115816.66666666648,
      "d": 66.66666666667152,
      "v": 60
    },
    {
      "midi": 40,
      "hit": false,
      "t": 115845.83333333315,
      "d": 141.66666666667152,
      "v": 83
    },
    {
      "midi": 69,
      "hit": false,
      "t": 115891.66666666648,
      "d": 66.66666666667152,
      "v": 80
    },
    {
      "midi": 52,
      "hit": false,
      "t": 116016.6666666665,
      "d": 58.33333333332848,
      "v": 69
    },
    {
      "midi": 66,
      "hit": false,
      "t": 116016.6666666665,
      "d": 87.49999999998545,
      "v": 60
    },
    {
      "midi": 64,
      "hit": false,
      "t": 116095.83333333315,
      "d": 83.33333333332848,
      "v": 69
    },
    {
      "midi": 61,
      "hit": false,
      "t": 116149.99999999981,
      "d": 137.5,
      "v": 68
    },
    {
      "midi": 57,
      "hit": false,
      "t": 116237.49999999981,
      "d": 325,
      "v": 95
    },
    {
      "midi": 45,
      "hit": false,
      "t": 116245.83333333314,
      "d": 79.16666666667152,
      "v": 107
    },
    {
      "midi": 52,
      "hit": false,
      "t": 116437.49999999981,
      "d": 58.33333333332848,
      "v": 65
    },
    {
      "midi": 61,
      "hit": false,
      "t": 116437.49999999981,
      "d": 70.83333333332848,
      "v": 72
    },
    {
      "midi": 66,
      "hit": false,
      "t": 116437.49999999981,
      "d": 70.83333333332848,
      "v": 68
    },
    {
      "midi": 69,
      "hit": false,
      "t": 116458.33333333314,
      "d": 2845.8333333332994,
      "v": 80
    },
    {
      "midi": 40,
      "hit": false,
      "t": 116629.16666666648,
      "d": 183.33333333332848,
      "v": 69
    },
    {
      "midi": 56,
      "hit": false,
      "t": 116820.83333333314,
      "d": 87.49999999998545,
      "v": 54
    },
    {
      "midi": 66,
      "hit": false,
      "t": 116820.83333333314,
      "d": 95.83333333331393,
      "v": 56
    },
    {
      "midi": 62,
      "hit": false,
      "t": 116841.66666666647,
      "d": 50,
      "v": 58
    },
    {
      "midi": 52,
      "hit": false,
      "t": 116849.9999999998,
      "d": 50,
      "v": 60
    },
    {
      "midi": 45,
      "hit": false,
      "t": 117070.83333333312,
      "d": 175,
      "v": 62
    },
    {
      "midi": 66,
      "hit": false,
      "t": 117233.33333333312,
      "d": 79.16666666665697,
      "v": 54
    },
    {
      "midi": 61,
      "hit": false,
      "t": 117245.83333333312,
      "d": 54.166666666656965,
      "v": 60
    },
    {
      "midi": 52,
      "hit": false,
      "t": 117254.16666666645,
      "d": 45.83333333332848,
      "v": 56
    },
    {
      "midi": 57,
      "hit": false,
      "t": 117254.16666666645,
      "d": 45.83333333332848,
      "v": 58
    },
    {
      "midi": 40,
      "hit": false,
      "t": 117454.16666666645,
      "d": 191.66666666667152,
      "v": 65
    },
    {
      "midi": 56,
      "hit": false,
      "t": 117645.83333333312,
      "d": 58.33333333332848,
      "v": 54
    },
    {
      "midi": 66,
      "hit": false,
      "t": 117645.83333333312,
      "d": 58.33333333332848,
      "v": 54
    },
    {
      "midi": 52,
      "hit": false,
      "t": 117658.33333333312,
      "d": 45.83333333332848,
      "v": 54
    },
    {
      "midi": 62,
      "hit": false,
      "t": 117658.33333333312,
      "d": 45.83333333332848,
      "v": 62
    },
    {
      "midi": 45,
      "hit": false,
      "t": 117858.33333333312,
      "d": 183.33333333332848,
      "v": 60
    },
    {
      "midi": 61,
      "hit": false,
      "t": 118041.66666666645,
      "d": 54.16666666667152,
      "v": 63
    },
    {
      "midi": 66,
      "hit": false,
      "t": 118041.66666666645,
      "d": 66.66666666667152,
      "v": 62
    },
    {
      "midi": 52,
      "hit": false,
      "t": 118058.33333333312,
      "d": 50,
      "v": 50
    },
    {
      "midi": 57,
      "hit": false,
      "t": 118058.33333333312,
      "d": 50,
      "v": 52
    },
    {
      "midi": 40,
      "hit": false,
      "t": 118249.9999999998,
      "d": 191.66666666667152,
      "v": 68
    },
    {
      "midi": 56,
      "hit": false,
      "t": 118441.66666666647,
      "d": 58.33333333332848,
      "v": 52
    },
    {
      "midi": 62,
      "hit": false,
      "t": 118449.9999999998,
      "d": 50,
      "v": 58
    },
    {
      "midi": 66,
      "hit": false,
      "t": 118449.9999999998,
      "d": 58.33333333332848,
      "v": 54
    },
    {
      "midi": 52,
      "hit": false,
      "t": 118470.83333333312,
      "d": 37.5,
      "v": 42
    },
    {
      "midi": 45,
      "hit": false,
      "t": 118683.33333333312,
      "d": 150,
      "v": 62
    },
    {
      "midi": 66,
      "hit": false,
      "t": 118845.83333333312,
      "d": 66.66666666665697,
      "v": 62
    },
    {
      "midi": 61,
      "hit": false,
      "t": 118854.16666666645,
      "d": 37.5,
      "v": 56
    },
    {
      "midi": 52,
      "hit": false,
      "t": 118874.99999999978,
      "d": 45.83333333332848,
      "v": 48
    },
    {
      "midi": 57,
      "hit": false,
      "t": 118874.99999999978,
      "d": 45.83333333332848,
      "v": 46
    },
    {
      "midi": 40,
      "hit": false,
      "t": 119074.99999999978,
      "d": 183.33333333332848,
      "v": 65
    },
    {
      "midi": 56,
      "hit": false,
      "t": 119258.33333333311,
      "d": 54.166666666656965,
      "v": 56
    },
    {
      "midi": 62,
      "hit": false,
      "t": 119258.33333333311,
      "d": 54.166666666656965,
      "v": 68
    },
    {
      "midi": 66,
      "hit": false,
      "t": 119258.33333333311,
      "d": 83.33333333332848,
      "v": 58
    },
    {
      "midi": 52,
      "hit": false,
      "t": 119266.66666666644,
      "d": 45.83333333332848,
      "v": 58
    },
    {
      "midi": 45,
      "hit": false,
      "t": 119449.99999999977,
      "d": 133.33333333332848,
      "v": 80
    },
    {
      "midi": 57,
      "hit": false,
      "t": 119562.49999999977,
      "d": 133.33333333331393,
      "v": 68
    },
    {
      "midi": 52,
      "hit": false,
      "t": 119629.16666666642,
      "d": 58.33333333332848,
      "v": 60
    },
    {
      "midi": 61,
      "hit": false,
      "t": 119649.99999999975,
      "d": 125,
      "v": 68
    },
    {
      "midi": 64,
      "hit": false,
      "t": 119745.83333333308,
      "d": 75,
      "v": 58
    },
    {
      "midi": 66,
      "hit": false,
      "t": 119820.83333333308,
      "d": 50,
      "v": 66
    },
    {
      "midi": 40,
      "hit": false,
      "t": 119849.99999999975,
      "d": 133.33333333332848,
      "v": 68
    },
    {
      "midi": 69,
      "hit": false,
      "t": 119966.66666666641,
      "d": 45.833333333343035,
      "v": 67
    },
    {
      "midi": 52,
      "hit": false,
      "t": 120024.99999999975,
      "d": 45.83333333332848,
      "v": 60
    },
    {
      "midi": 73,
      "hit": false,
      "t": 120070.83333333308,
      "d": 104.16666666667152,
      "v": 65
    },
    {
      "midi": 76,
      "hit": false,
      "t": 120158.33333333308,
      "d": 104.16666666667152,
      "v": 60
    },
    {
      "midi": 45,
      "hit": false,
      "t": 120233.33333333308,
      "d": 154.16666666667152,
      "v": 80
    },
    {
      "midi": 78,
      "hit": false,
      "t": 120245.83333333308,
      "d": 141.66666666667152,
      "v": 68
    },
    {
      "midi": 76,
      "hit": false,
      "t": 120358.33333333308,
      "d": 104.16666666667152,
      "v": 68
    },
    {
      "midi": 52,
      "hit": false,
      "t": 120424.99999999975,
      "d": 58.33333333332848,
      "v": 58
    },
    {
      "midi": 73,
      "hit": false,
      "t": 120437.49999999975,
      "d": 66.66666666665697,
      "v": 62
    },
    {
      "midi": 69,
      "hit": false,
      "t": 120512.49999999974,
      "d": 75,
      "v": 72
    },
    {
      "midi": 40,
      "hit": false,
      "t": 120629.16666666641,
      "d": 179.16666666667152,
      "v": 73
    },
    {
      "midi": 66,
      "hit": false,
      "t": 120637.49999999974,
      "d": 66.66666666667152,
      "v": 63
    },
    {
      "midi": 64,
      "hit": false,
      "t": 120704.16666666641,
      "d": 104.16666666667152,
      "v": 68
    },
    {
      "midi": 61,
      "hit": false,
      "t": 120808.33333333308,
      "d": 79.16666666665697,
      "v": 50
    },
    {
      "midi": 52,
      "hit": false,
      "t": 120829.16666666641,
      "d": 75,
      "v": 60
    },
    {
      "midi": 57,
      "hit": false,
      "t": 120874.99999999974,
      "d": 137.5,
      "v": 72
    },
    {
      "midi": 61,
      "hit": false,
      "t": 120991.66666666641,
      "d": 58.33333333332848,
      "v": 83
    },
    {
      "midi": 45,
      "hit": false,
      "t": 121029.16666666641,
      "d": 174.99999999998545,
      "v": 80
    },
    {
      "midi": 69,
      "hit": false,
      "t": 121183.33333333307,
      "d": 75,
      "v": 56
    },
    {
      "midi": 52,
      "hit": false,
      "t": 121220.83333333307,
      "d": 66.66666666667152,
      "v": 60
    },
    {
      "midi": 73,
      "hit": false,
      "t": 121270.83333333307,
      "d": 95.83333333332848,
      "v": 68
    },
    {
      "midi": 76,
      "hit": false,
      "t": 121345.83333333307,
      "d": 87.49999999998545,
      "v": 60
    },
    {
      "midi": 40,
      "hit": false,
      "t": 121412.49999999972,
      "d": 212.49999999998545,
      "v": 74
    },
    {
      "midi": 78,
      "hit": false,
      "t": 121433.33333333305,
      "d": 37.5,
      "v": 60
    },
    {
      "midi": 81,
      "hit": false,
      "t": 121558.33333333305,
      "d": 104.16666666665697,
      "v": 80
    },
    {
      "midi": 52,
      "hit": false,
      "t": 121604.16666666638,
      "d": 95.83333333332848,
      "v": 62
    },
    {
      "midi": 85,
      "hit": false,
      "t": 121654.16666666638,
      "d": 83.33333333332848,
      "v": 62
    },
    {
      "midi": 88,
      "hit": false,
      "t": 121708.33333333304,
      "d": 116.66666666665697,
      "v": 69
    },
    {
      "midi": 90,
      "hit": false,
      "t": 121795.83333333304,
      "d": 174.99999999998545,
      "v": 77
    },
    {
      "midi": 45,
      "hit": false,
      "t": 121816.66666666637,
      "d": 200,
      "v": 95
    },
    {
      "midi": 88,
      "hit": false,
      "t": 121920.83333333302,
      "d": 95.83333333334303,
      "v": 72
    },
    {
      "midi": 85,
      "hit": false,
      "t": 121987.4999999997,
      "d": 87.5,
      "v": 65
    },
    {
      "midi": 52,
      "hit": false,
      "t": 122016.66666666637,
      "d": 95.83333333332848,
      "v": 60
    },
    {
      "midi": 81,
      "hit": false,
      "t": 122083.33333333302,
      "d": 66.66666666667152,
      "v": 66
    },
    {
      "midi": 44,
      "hit": false,
      "t": 122187.4999999997,
      "d": 233.33333333331393,
      "v": 72
    },
    {
      "midi": 78,
      "hit": false,
      "t": 122208.33333333302,
      "d": 95.83333333332848,
      "v": 63
    },
    {
      "midi": 76,
      "hit": false,
      "t": 122283.33333333302,
      "d": 116.66666666665697,
      "v": 72
    },
    {
      "midi": 73,
      "hit": false,
      "t": 122379.16666666635,
      "d": 70.83333333332848,
      "v": 60
    },
    {
      "midi": 52,
      "hit": false,
      "t": 122399.99999999968,
      "d": 95.83333333332848,
      "v": 58
    },
    {
      "midi": 69,
      "hit": false,
      "t": 122449.99999999968,
      "d": 141.66666666665697,
      "v": 80
    },
    {
      "midi": 73,
      "hit": false,
      "t": 122562.49999999968,
      "d": 66.66666666665697,
      "v": 80
    },
    {
      "midi": 42,
      "hit": false,
      "t": 122570.83333333301,
      "d": 183.33333333332848,
      "v": 72
    },
    {
      "midi": 57,
      "hit": false,
      "t": 122754.16666666634,
      "d": 124.99999999998545,
      "v": 72
    },
    {
      "midi": 47,
      "hit": false,
      "t": 122774.99999999967,
      "d": 58.33333333332848,
      "v": 71
    },
    {
      "midi": 61,
      "hit": false,
      "t": 122833.333333333,
      "d": 112.49999999998545,
      "v": 66
    },
    {
      "midi": 63,
      "hit": false,
      "t": 122887.49999999965,
      "d": 95.83333333332848,
      "v": 63
    },
    {
      "midi": 35,
      "hit": false,
      "t": 122945.83333333298,
      "d": 212.5,
      "v": 63
    },
    {
      "midi": 66,
      "hit": false,
      "t": 122966.66666666631,
      "d": 45.833333333343035,
      "v": 65
    },
    {
      "midi": 69,
      "hit": false,
      "t": 123108.33333333298,
      "d": 108.33333333332848,
      "v": 80
    },
    {
      "midi": 47,
      "hit": false,
      "t": 123158.33333333298,
      "d": 75,
      "v": 71
    },
    {
      "midi": 73,
      "hit": false,
      "t": 123204.16666666631,
      "d": 108.33333333334303,
      "v": 63
    },
    {
      "midi": 75,
      "hit": false,
      "t": 123262.49999999965,
      "d": 104.16666666665697,
      "v": 60
    },
    {
      "midi": 78,
      "hit": false,
      "t": 123366.66666666631,
      "d": 145.83333333331393,
      "v": 72
    },
    {
      "midi": 42,
      "hit": false,
      "t": 123387.49999999964,
      "d": 154.16666666665697,
      "v": 72
    },
    {
      "midi": 75,
      "hit": false,
      "t": 123483.33333333296,
      "d": 75,
      "v": 68
    },
    {
      "midi": 73,
      "hit": false,
      "t": 123529.1666666663,
      "d": 87.5,
      "v": 65
    },
    {
      "midi": 47,
      "hit": false,
      "t": 123570.83333333296,
      "d": 66.66666666665697,
      "v": 66
    },
    {
      "midi": 69,
      "hit": false,
      "t": 123637.49999999962,
      "d": 83.33333333332848,
      "v": 72
    },
    {
      "midi": 35,
      "hit": false,
      "t": 123741.66666666628,
      "d": 241.66666666667152,
      "v": 73
    },
    {
      "midi": 66,
      "hit": false,
      "t": 123770.83333333295,
      "d": 58.33333333332848,
      "v": 69
    },
    {
      "midi": 63,
      "hit": false,
      "t": 123845.83333333295,
      "d": 95.83333333332848,
      "v": 80
    },
    {
      "midi": 61,
      "hit": false,
      "t": 123941.66666666628,
      "d": 87.5,
      "v": 54
    },
    {
      "midi": 47,
      "hit": false,
      "t": 123941.66666666628,
      "d": 95.83333333332848,
      "v": 69
    },
    {
      "midi": 57,
      "hit": false,
      "t": 124029.16666666628,
      "d": 133.33333333331393,
      "v": 80
    },
    {
      "midi": 61,
      "hit": false,
      "t": 124133.33333333294,
      "d": 79.16666666665697,
      "v": 77
    },
    {
      "midi": 42,
      "hit": false,
      "t": 124145.83333333294,
      "d": 162.49999999998545,
      "v": 72
    },
    {
      "midi": 47,
      "hit": false,
      "t": 124324.99999999959,
      "d": 79.16666666667152,
      "v": 72
    },
    {
      "midi": 69,
      "hit": false,
      "t": 124324.99999999959,
      "d": 108.33333333334303,
      "v": 95
    },
    {
      "midi": 73,
      "hit": false,
      "t": 124433.33333333294,
      "d": 83.33333333332848,
      "v": 71
    },
    {
      "midi": 75,
      "hit": false,
      "t": 124470.83333333294,
      "d": 104.16666666667152,
      "v": 69
    },
    {
      "midi": 35,
      "hit": false,
      "t": 124529.16666666626,
      "d": 170.83333333334303,
      "v": 68
    },
    {
      "midi": 78,
      "hit": false,
      "t": 124558.33333333294,
      "d": 54.16666666667152,
      "v": 58
    },
    {
      "midi": 81,
      "hit": false,
      "t": 124691.66666666628,
      "d": 104.16666666665697,
      "v": 72
    },
    {
      "midi": 47,
      "hit": false,
      "t": 124699.9999999996,
      "d": 95.83333333332848,
      "v": 72
    },
    {
      "midi": 85,
      "hit": false,
      "t": 124774.9999999996,
      "d": 125,
      "v": 65
    },
    {
      "midi": 87,
      "hit": false,
      "t": 124854.16666666626,
      "d": 95.83333333334303,
      "v": 65
    },
    {
      "midi": 42,
      "hit": false,
      "t": 124870.83333333294,
      "d": 179.16666666667152,
      "v": 62
    },
    {
      "midi": 90,
      "hit": false,
      "t": 124941.66666666628,
      "d": 141.66666666665697,
      "v": 72
    },
    {
      "midi": 47,
      "hit": false,
      "t": 125054.16666666628,
      "d": 79.16666666665697,
      "v": 77
    },
    {
      "midi": 87,
      "hit": false,
      "t": 125054.16666666628,
      "d": 95.83333333332848,
      "v": 71
    },
    {
      "midi": 85,
      "hit": false,
      "t": 125112.4999999996,
      "d": 87.5,
      "v": 58
    },
    {
      "midi": 81,
      "hit": false,
      "t": 125216.66666666628,
      "d": 79.16666666667152,
      "v": 74
    },
    {
      "midi": 35,
      "hit": false,
      "t": 125254.16666666628,
      "d": 229.16666666665697,
      "v": 77
    },
    {
      "midi": 78,
      "hit": false,
      "t": 125341.66666666628,
      "d": 95.83333333332848,
      "v": 66
    },
    {
      "midi": 75,
      "hit": false,
      "t": 125429.16666666628,
      "d": 104.16666666665697,
      "v": 71
    },
    {
      "midi": 73,
      "hit": false,
      "t": 125516.66666666626,
      "d": 95.83333333332848,
      "v": 66
    },
    {
      "midi": 47,
      "hit": false,
      "t": 125520.83333333294,
      "d": 58.33333333332848,
      "v": 74
    },
    {
      "midi": 69,
      "hit": false,
      "t": 125612.49999999959,
      "d": 66.66666666667152,
      "v": 86
    },
    {
      "midi": 47,
      "hit": false,
      "t": 125745.83333333294,
      "d": 58.33333333332848,
      "v": 95
    },
    {
      "midi": 62,
      "hit": false,
      "t": 125849.99999999959,
      "d": 116.66666666665697,
      "v": 72
    },
    {
      "midi": 52,
      "hit": false,
      "t": 125908.33333333292,
      "d": 75,
      "v": 71
    },
    {
      "midi": 66,
      "hit": false,
      "t": 125945.83333333292,
      "d": 95.83333333332848,
      "v": 62
    },
    {
      "midi": 68,
      "hit": false,
      "t": 126004.16666666625,
      "d": 112.5,
      "v": 63
    },
    {
      "midi": 73,
      "hit": false,
      "t": 126129.16666666625,
      "d": 133.33333333334303,
      "v": 68
    },
    {
      "midi": 40,
      "hit": false,
      "t": 126133.33333333292,
      "d": 145.83333333334303,
      "v": 73
    },
    {
      "midi": 68,
      "hit": false,
      "t": 126224.99999999959,
      "d": 125.00000000001455,
      "v": 65
    },
    {
      "midi": 66,
      "hit": false,
      "t": 126320.83333333294,
      "d": 104.16666666667152,
      "v": 66
    },
    {
      "midi": 52,
      "hit": false,
      "t": 126337.4999999996,
      "d": 50,
      "v": 65
    },
    {
      "midi": 62,
      "hit": false,
      "t": 126433.33333333294,
      "d": 66.66666666667152,
      "v": 72
    },
    {
      "midi": 47,
      "hit": false,
      "t": 126570.83333333294,
      "d": 54.16666666667152,
      "v": 86
    },
    {
      "midi": 74,
      "hit": false,
      "t": 126666.66666666628,
      "d": 83.33333333332848,
      "v": 90
    },
    {
      "midi": 52,
      "hit": false,
      "t": 126741.66666666628,
      "d": 58.33333333332848,
      "v": 65
    },
    {
      "midi": 78,
      "hit": false,
      "t": 126749.9999999996,
      "d": 125,
      "v": 66
    },
    {
      "midi": 80,
      "hit": false,
      "t": 126829.16666666628,
      "d": 112.5,
      "v": 65
    },
    {
      "midi": 85,
      "hit": false,
      "t": 126941.66666666628,
      "d": 145.83333333332848,
      "v": 68
    },
    {
      "midi": 40,
      "hit": false,
      "t": 126941.66666666628,
      "d": 175,
      "v": 71
    },
    {
      "midi": 80,
      "hit": false,
      "t": 127049.9999999996,
      "d": 112.50000000001455,
      "v": 66
    },
    {
      "midi": 78,
      "hit": false,
      "t": 127133.33333333295,
      "d": 95.83333333334303,
      "v": 69
    },
    {
      "midi": 52,
      "hit": false,
      "t": 127145.83333333295,
      "d": 45.833333333343035,
      "v": 65
    },
    {
      "midi": 74,
      "hit": false,
      "t": 127229.1666666663,
      "d": 66.66666666667152,
      "v": 80
    },
    {
      "midi": 45,
      "hit": false,
      "t": 127362.49999999964,
      "d": 29.166666666671517,
      "v": 90
    },
    {
      "midi": 61,
      "hit": false,
      "t": 127470.83333333298,
      "d": 95.83333333332848,
      "v": 80
    },
    {
      "midi": 52,
      "hit": false,
      "t": 127545.83333333298,
      "d": 58.33333333332848,
      "v": 68
    },
    {
      "midi": 66,
      "hit": false,
      "t": 127566.66666666631,
      "d": 112.5,
      "v": 63
    },
    {
      "midi": 68,
      "hit": false,
      "t": 127633.33333333298,
      "d": 104.16666666665697,
      "v": 63
    },
    {
      "midi": 40,
      "hit": false,
      "t": 127745.83333333296,
      "d": 125.00000000001455,
      "v": 74
    },
    {
      "midi": 73,
      "hit": false,
      "t": 127745.83333333296,
      "d": 125.00000000001455,
      "v": 66
    },
    {
      "midi": 68,
      "hit": false,
      "t": 127854.16666666631,
      "d": 75,
      "v": 65
    },
    {
      "midi": 66,
      "hit": false,
      "t": 127920.83333333298,
      "d": 87.5,
      "v": 69
    },
    {
      "midi": 52,
      "hit": false,
      "t": 127958.33333333298,
      "d": 50,
      "v": 58
    },
    {
      "midi": 61,
      "hit": false,
      "t": 128024.99999999965,
      "d": 58.33333333332848,
      "v": 72
    },
    {
      "midi": 45,
      "hit": false,
      "t": 128158.33333333298,
      "d": 66.66666666667152,
      "v": 86
    },
    {
      "midi": 73,
      "hit": false,
      "t": 128237.49999999965,
      "d": 95.83333333332848,
      "v": 83
    },
    {
      "midi": 52,
      "hit": false,
      "t": 128362.49999999965,
      "d": 45.83333333332848,
      "v": 54
    },
    {
      "midi": 78,
      "hit": false,
      "t": 128362.49999999965,
      "d": 104.16666666665697,
      "v": 66
    },
    {
      "midi": 80,
      "hit": false,
      "t": 128416.66666666631,
      "d": 125,
      "v": 54
    },
    {
      "midi": 40,
      "hit": false,
      "t": 128541.66666666631,
      "d": 145.83333333332848,
      "v": 73
    },
    {
      "midi": 85,
      "hit": false,
      "t": 128541.66666666631,
      "d": 154.16666666665697,
      "v": 68
    },
    {
      "midi": 80,
      "hit": false,
      "t": 128658.33333333296,
      "d": 87.5,
      "v": 65
    },
    {
      "midi": 52,
      "hit": false,
      "t": 128733.33333333296,
      "d": 29.166666666671517,
      "v": 62
    },
    {
      "midi": 78,
      "hit": false,
      "t": 128733.33333333296,
      "d": 108.33333333334303,
      "v": 66
    },
    {
      "midi": 73,
      "hit": false,
      "t": 128841.66666666631,
      "d": 83.33333333334303,
      "v": 65
    },
    {
      "midi": 47,
      "hit": false,
      "t": 128937.49999999965,
      "d": 237.5,
      "v": 80
    },
    {
      "midi": 56,
      "hit": false,
      "t": 128937.49999999965,
      "d": 275,
      "v": 83
    },
    {
      "midi": 76,
      "hit": false,
      "t": 129166.66666666632,
      "d": 104.16666666665697,
      "v": 65
    },
    {
      "midi": 78,
      "hit": false,
      "t": 129262.49999999965,
      "d": 112.49999999998545,
      "v": 66
    },
    {
      "midi": 80,
      "hit": false,
      "t": 129366.66666666631,
      "d": 58.33333333332848,
      "v": 46
    },
    {
      "midi": 81,
      "hit": false,
      "t": 129470.83333333296,
      "d": 108.33333333332848,
      "v": 77
    },
    {
      "midi": 83,
      "hit": false,
      "t": 129587.49999999962,
      "d": 87.5,
      "v": 66
    },
    {
      "midi": 85,
      "hit": false,
      "t": 129645.83333333295,
      "d": 162.5,
      "v": 54
    },
    {
      "midi": 47,
      "hit": false,
      "t": 129758.33333333295,
      "d": 108.33333333332848,
      "v": 83
    },
    {
      "midi": 51,
      "hit": false,
      "t": 129758.33333333295,
      "d": 137.5,
      "v": 74
    },
    {
      "midi": 57,
      "hit": false,
      "t": 129758.33333333295,
      "d": 137.5,
      "v": 83
    },
    {
      "midi": 87,
      "hit": false,
      "t": 129787.49999999962,
      "d": 79.16666666665697,
      "v": 65
    },
    {
      "midi": 88,
      "hit": false,
      "t": 129912.49999999962,
      "d": 95.83333333332848,
      "v": 80
    },
    {
      "midi": 90,
      "hit": false,
      "t": 130020.83333333295,
      "d": 112.5,
      "v": 72
    },
    {
      "midi": 92,
      "hit": false,
      "t": 130095.83333333295,
      "d": 125,
      "v": 52
    },
    {
      "midi": 93,
      "hit": false,
      "t": 130212.49999999962,
      "d": 141.66666666665697,
      "v": 86
    },
    {
      "midi": 92,
      "hit": false,
      "t": 130345.83333333295,
      "d": 104.16666666665697,
      "v": 69
    },
    {
      "midi": 90,
      "hit": false,
      "t": 130404.16666666628,
      "d": 83.33333333332848,
      "v": 63
    },
    {
      "midi": 88,
      "hit": false,
      "t": 130524.9999999996,
      "d": 50,
      "v": 71
    },
    {
      "midi": 57,
      "hit": false,
      "t": 130604.16666666628,
      "d": 75,
      "v": 95
    },
    {
      "midi": 51,
      "hit": false,
      "t": 130604.16666666628,
      "d": 112.5,
      "v": 77
    },
    {
      "midi": 47,
      "hit": false,
      "t": 130604.16666666628,
      "d": 125,
      "v": 90
    },
    {
      "midi": 87,
      "hit": false,
      "t": 130604.16666666628,
      "d": 133.33333333332848,
      "v": 68
    },
    {
      "midi": 85,
      "hit": false,
      "t": 130699.9999999996,
      "d": 154.16666666667152,
      "v": 65
    },
    {
      "midi": 83,
      "hit": false,
      "t": 130824.9999999996,
      "d": 75,
      "v": 68
    },
    {
      "midi": 81,
      "hit": false,
      "t": 130920.83333333294,
      "d": 75,
      "v": 68
    },
    {
      "midi": 80,
      "hit": false,
      "t": 131016.66666666626,
      "d": 133.3333333333576,
      "v": 68
    },
    {
      "midi": 78,
      "hit": false,
      "t": 131129.16666666628,
      "d": 87.5,
      "v": 65
    },
    {
      "midi": 76,
      "hit": false,
      "t": 131237.49999999962,
      "d": 83.33333333334303,
      "v": 63
    },
    {
      "midi": 74,
      "hit": false,
      "t": 131320.83333333296,
      "d": 108.33333333331393,
      "v": 60
    },
    {
      "midi": 73,
      "hit": false,
      "t": 131399.99999999962,
      "d": 154.16666666665697,
      "v": 71
    },
    {
      "midi": 40,
      "hit": false,
      "t": 131429.16666666628,
      "d": 687.5,
      "v": 101
    },
    {
      "midi": 71,
      "hit": false,
      "t": 131533.33333333294,
      "d": 75,
      "v": 65
    },
    {
      "midi": 69,
      "hit": false,
      "t": 131629.16666666628,
      "d": 87.5,
      "v": 80
    },
    {
      "midi": 68,
      "hit": false,
      "t": 131716.66666666628,
      "d": 170.83333333334303,
      "v": 68
    },
    {
      "midi": 66,
      "hit": false,
      "t": 131829.16666666628,
      "d": 108.33333333334303,
      "v": 72
    },
    {
      "midi": 52,
      "hit": false,
      "t": 131841.66666666628,
      "d": 191.66666666665697,
      "v": 86
    },
    {
      "midi": 64,
      "hit": false,
      "t": 131954.16666666628,
      "d": 154.16666666665697,
      "v": 77
    },
    {
      "midi": 66,
      "hit": false,
      "t": 132058.33333333294,
      "d": 125.0000000000291,
      "v": 80
    },
    {
      "midi": 68,
      "hit": false,
      "t": 132137.49999999962,
      "d": 87.5,
      "v": 77
    },
    {
      "midi": 45,
      "hit": false,
      "t": 132241.66666666628,
      "d": 154.16666666665697,
      "v": 107
    },
    {
      "midi": 69,
      "hit": false,
      "t": 132358.33333333294,
      "d": 112.5000000000291,
      "v": 86
    },
    {
      "midi": 52,
      "hit": false,
      "t": 132433.33333333294,
      "d": 58.33333333337214,
      "v": 71
    },
    {
      "midi": 73,
      "hit": false,
      "t": 132462.49999999962,
      "d": 125.0000000000291,
      "v": 66
    },
    {
      "midi": 76,
      "hit": false,
      "t": 132549.99999999965,
      "d": 112.5,
      "v": 65
    },
    {
      "midi": 40,
      "hit": false,
      "t": 132645.833333333,
      "d": 66.66666666665697,
      "v": 80
    },
    {
      "midi": 78,
      "hit": false,
      "t": 132662.49999999965,
      "d": 50,
      "v": 66
    },
    {
      "midi": 81,
      "hit": false,
      "t": 132799.99999999965,
      "d": 95.83333333334303,
      "v": 86
    },
    {
      "midi": 52,
      "hit": false,
      "t": 132845.833333333,
      "d": 37.5,
      "v": 63
    },
    {
      "midi": 85,
      "hit": false,
      "t": 132904.16666666634,
      "d": 104.16666666665697,
      "v": 62
    },
    {
      "midi": 88,
      "hit": false,
      "t": 132970.833333333,
      "d": 116.66666666668607,
      "v": 58
    },
    {
      "midi": 45,
      "hit": false,
      "t": 133058.333333333,
      "d": 37.500000000029104,
      "v": 80
    },
    {
      "midi": 90,
      "hit": false,
      "t": 133066.66666666634,
      "d": 141.66666666668607,
      "v": 69
    },
    {
      "midi": 88,
      "hit": false,
      "t": 133191.66666666637,
      "d": 95.83333333331393,
      "v": 71
    },
    {
      "midi": 52,
      "hit": false,
      "t": 133249.99999999968,
      "d": 45.833333333343035,
      "v": 60
    },
    {
      "midi": 85,
      "hit": false,
      "t": 133266.66666666634,
      "d": 79.16666666668607,
      "v": 56
    },
    {
      "midi": 81,
      "hit": false,
      "t": 133354.16666666637,
      "d": 75,
      "v": 74
    },
    {
      "midi": 40,
      "hit": false,
      "t": 133449.9999999997,
      "d": 191.66666666665697,
      "v": 80
    },
    {
      "midi": 78,
      "hit": false,
      "t": 133479.16666666637,
      "d": 95.83333333334303,
      "v": 60
    },
    {
      "midi": 76,
      "hit": false,
      "t": 133574.9999999997,
      "d": 95.83333333331393,
      "v": 65
    },
    {
      "midi": 52,
      "hit": false,
      "t": 133641.66666666637,
      "d": 66.66666666665697,
      "v": 63
    },
    {
      "midi": 73,
      "hit": false,
      "t": 133641.66666666637,
      "d": 95.83333333331393,
      "v": 62
    },
    {
      "midi": 69,
      "hit": false,
      "t": 133737.49999999968,
      "d": 133.33333333334303,
      "v": 80
    },
    {
      "midi": 73,
      "hit": false,
      "t": 133833.33333333302,
      "d": 75,
      "v": 86
    },
    {
      "midi": 45,
      "hit": false,
      "t": 133862.49999999968,
      "d": 66.66666666668607,
      "v": 86
    },
    {
      "midi": 52,
      "hit": false,
      "t": 134033.33333333302,
      "d": 50,
      "v": 65
    },
    {
      "midi": 57,
      "hit": false,
      "t": 134033.33333333302,
      "d": 116.66666666665697,
      "v": 69
    },
    {
      "midi": 61,
      "hit": false,
      "t": 134112.49999999968,
      "d": 133.33333333334303,
      "v": 62
    },
    {
      "midi": 64,
      "hit": false,
      "t": 134195.83333333302,
      "d": 95.83333333334303,
      "v": 68
    },
    {
      "midi": 40,
      "hit": false,
      "t": 134245.83333333302,
      "d": 154.16666666665697,
      "v": 67
    },
    {
      "midi": 66,
      "hit": false,
      "t": 134291.66666666637,
      "d": 41.666666666656965,
      "v": 58
    },
    {
      "midi": 69,
      "hit": false,
      "t": 134408.33333333302,
      "d": 75,
      "v": 86
    },
    {
      "midi": 52,
      "hit": false,
      "t": 134416.66666666637,
      "d": 66.66666666665697,
      "v": 66
    },
    {
      "midi": 73,
      "hit": false,
      "t": 134495.83333333302,
      "d": 112.5,
      "v": 72
    },
    {
      "midi": 76,
      "hit": false,
      "t": 134570.83333333302,
      "d": 116.66666666665697,
      "v": 50
    },
    {
      "midi": 78,
      "hit": false,
      "t": 134658.33333333302,
      "d": 162.5,
      "v": 66
    },
    {
      "midi": 45,
      "hit": false,
      "t": 134658.33333333302,
      "d": 170.83333333334303,
      "v": 90
    },
    {
      "midi": 76,
      "hit": false,
      "t": 134770.83333333302,
      "d": 125.0000000000291,
      "v": 60
    },
    {
      "midi": 52,
      "hit": false,
      "t": 134849.9999999997,
      "d": 75,
      "v": 66
    },
    {
      "midi": 73,
      "hit": false,
      "t": 134849.9999999997,
      "d": 83.33333333334303,
      "v": 65
    },
    {
      "midi": 69,
      "hit": false,
      "t": 134945.83333333305,
      "d": 75,
      "v": 80
    },
    {
      "midi": 44,
      "hit": false,
      "t": 135049.9999999997,
      "d": 191.66666666665697,
      "v": 69
    },
    {
      "midi": 66,
      "hit": false,
      "t": 135079.16666666637,
      "d": 75,
      "v": 68
    },
    {
      "midi": 64,
      "hit": false,
      "t": 135166.66666666637,
      "d": 95.83333333334303,
      "v": 62
    },
    {
      "midi": 61,
      "hit": false,
      "t": 135241.66666666637,
      "d": 75,
      "v": 54
    },
    {
      "midi": 52,
      "hit": false,
      "t": 135241.66666666637,
      "d": 87.5,
      "v": 60
    },
    {
      "midi": 57,
      "hit": false,
      "t": 135308.33333333302,
      "d": 145.83333333334303,
      "v": 80
    },
    {
      "midi": 61,
      "hit": false,
      "t": 135424.9999999997,
      "d": 74.9999999999709,
      "v": 86
    },
    {
      "midi": 42,
      "hit": false,
      "t": 135424.9999999997,
      "d": 179.16666666662786,
      "v": 74
    },
    {
      "midi": 69,
      "hit": false,
      "t": 135616.66666666634,
      "d": 95.83333333334303,
      "v": 86
    },
    {
      "midi": 47,
      "hit": false,
      "t": 135624.99999999968,
      "d": 58.333333333343035,
      "v": 72
    },
    {
      "midi": 73,
      "hit": false,
      "t": 135712.49999999968,
      "d": 83.33333333334303,
      "v": 68
    },
    {
      "midi": 75,
      "hit": false,
      "t": 135758.33333333302,
      "d": 95.83333333334303,
      "v": 66
    },
    {
      "midi": 35,
      "hit": false,
      "t": 135816.66666666637,
      "d": 170.83333333334303,
      "v": 69
    },
    {
      "midi": 78,
      "hit": false,
      "t": 135845.83333333302,
      "d": 45.833333333343035,
      "v": 66
    },
    {
      "midi": 81,
      "hit": false,
      "t": 135979.16666666637,
      "d": 95.83333333334303,
      "v": 80
    },
    {
      "midi": 47,
      "hit": false,
      "t": 136008.33333333305,
      "d": 75,
      "v": 71
    },
    {
      "midi": 85,
      "hit": false,
      "t": 136074.9999999997,
      "d": 104.16666666668607,
      "v": 63
    },
    {
      "midi": 87,
      "hit": false,
      "t": 136141.6666666664,
      "d": 95.83333333334303,
      "v": 62
    },
    {
      "midi": 90,
      "hit": false,
      "t": 136229.1666666664,
      "d": 154.16666666668607,
      "v": 77
    },
    {
      "midi": 42,
      "hit": false,
      "t": 136249.99999999974,
      "d": 162.5,
      "v": 77
    },
    {
      "midi": 87,
      "hit": false,
      "t": 136345.83333333308,
      "d": 95.83333333331393,
      "v": 65
    },
    {
      "midi": 85,
      "hit": false,
      "t": 136399.99999999974,
      "d": 95.83333333331393,
      "v": 63
    },
    {
      "midi": 47,
      "hit": false,
      "t": 136429.1666666664,
      "d": 66.66666666665697,
      "v": 66
    },
    {
      "midi": 81,
      "hit": false,
      "t": 136508.33333333305,
      "d": 75,
      "v": 72
    },
    {
      "midi": 35,
      "hit": false,
      "t": 136620.83333333305,
      "d": 212.5,
      "v": 80
    },
    {
      "midi": 78,
      "hit": false,
      "t": 136649.9999999997,
      "d": 79.16666666665697,
      "v": 71
    },
    {
      "midi": 75,
      "hit": false,
      "t": 136729.16666666637,
      "d": 112.5000000000291,
      "v": 69
    },
    {
      "midi": 47,
      "hit": false,
      "t": 136812.4999999997,
      "d": 79.16666666668607,
      "v": 72
    },
    {
      "midi": 73,
      "hit": false,
      "t": 136824.9999999997,
      "d": 66.66666666668607,
      "v": 52
    },
    {
      "midi": 69,
      "hit": false,
      "t": 136899.99999999974,
      "d": 133.33333333334303,
      "v": 80
    },
    {
      "midi": 73,
      "hit": false,
      "t": 137016.6666666664,
      "d": 54.16666666668607,
      "v": 77
    },
    {
      "midi": 42,
      "hit": false,
      "t": 137024.99999999974,
      "d": 133.33333333334303,
      "v": 77
    },
    {
      "midi": 47,
      "hit": false,
      "t": 137216.66666666642,
      "d": 66.66666666665697,
      "v": 74
    },
    {
      "midi": 57,
      "hit": false,
      "t": 137216.66666666642,
      "d": 124.9999999999709,
      "v": 77
    },
    {
      "midi": 61,
      "hit": false,
      "t": 137312.49999999974,
      "d": 112.4999999999709,
      "v": 65
    },
    {
      "midi": 63,
      "hit": false,
      "t": 137370.83333333305,
      "d": 104.16666666665697,
      "v": 63
    },
    {
      "midi": 35,
      "hit": false,
      "t": 137408.33333333305,
      "d": 200,
      "v": 75
    },
    {
      "midi": 66,
      "hit": false,
      "t": 137454.16666666637,
      "d": 58.333333333343035,
      "v": 62
    },
    {
      "midi": 47,
      "hit": false,
      "t": 137599.9999999997,
      "d": 66.66666666668607,
      "v": 74
    },
    {
      "midi": 69,
      "hit": false,
      "t": 137599.9999999997,
      "d": 75.0000000000291,
      "v": 77
    },
    {
      "midi": 73,
      "hit": false,
      "t": 137687.49999999974,
      "d": 104.16666666665697,
      "v": 69
    },
    {
      "midi": 75,
      "hit": false,
      "t": 137741.6666666664,
      "d": 108.33333333334303,
      "v": 62
    },
    {
      "midi": 42,
      "hit": false,
      "t": 137808.33333333305,
      "d": 125.0000000000291,
      "v": 72
    },
    {
      "midi": 78,
      "hit": false,
      "t": 137829.1666666664,
      "d": 133.33333333334303,
      "v": 72
    },
    {
      "midi": 75,
      "hit": false,
      "t": 137945.83333333308,
      "d": 83.33333333331393,
      "v": 66
    },
    {
      "midi": 47,
      "hit": false,
      "t": 137991.6666666664,
      "d": 79.16666666665697,
      "v": 69
    },
    {
      "midi": 73,
      "hit": false,
      "t": 137999.99999999974,
      "d": 79.16666666665697,
      "v": 60
    },
    {
      "midi": 69,
      "hit": false,
      "t": 138108.33333333305,
      "d": 83.33333333334303,
      "v": 72
    },
    {
      "midi": 35,
      "hit": false,
      "t": 138212.49999999974,
      "d": 200.0000000000291,
      "v": 80
    },
    {
      "midi": 66,
      "hit": false,
      "t": 138233.33333333308,
      "d": 83.33333333334303,
      "v": 68
    },
    {
      "midi": 63,
      "hit": false,
      "t": 138308.33333333308,
      "d": 104.16666666668607,
      "v": 74
    },
    {
      "midi": 61,
      "hit": false,
      "t": 138404.16666666642,
      "d": 95.83333333337214,
      "v": 65
    },
    {
      "midi": 47,
      "hit": false,
      "t": 138433.3333333331,
      "d": 58.333333333343035,
      "v": 72
    },
    {
      "midi": 57,
      "hit": false,
      "t": 138491.66666666645,
      "d": 75,
      "v": 86
    },
    {
      "midi": 47,
      "hit": false,
      "t": 138616.66666666645,
      "d": 54.166666666656965,
      "v": 95
    },
    {
      "midi": 62,
      "hit": false,
      "t": 138749.99999999977,
      "d": 87.5,
      "v": 77
    },
    {
      "midi": 52,
      "hit": false,
      "t": 138779.16666666642,
      "d": 66.66666666668607,
      "v": 72
    },
    {
      "midi": 66,
      "hit": false,
      "t": 138816.66666666642,
      "d": 116.66666666668607,
      "v": 62
    },
    {
      "midi": 68,
      "hit": false,
      "t": 138883.3333333331,
      "d": 104.16666666665697,
      "v": 48
    },
    {
      "midi": 73,
      "hit": false,
      "t": 138987.49999999977,
      "d": 137.5,
      "v": 69
    },
    {
      "midi": 40,
      "hit": false,
      "t": 138987.49999999977,
      "d": 175,
      "v": 74
    },
    {
      "midi": 68,
      "hit": false,
      "t": 139095.8333333331,
      "d": 104.16666666665697,
      "v": 66
    },
    {
      "midi": 66,
      "hit": false,
      "t": 139179.16666666642,
      "d": 87.5000000000291,
      "v": 65
    },
    {
      "midi": 52,
      "hit": false,
      "t": 139199.99999999977,
      "d": 45.833333333343035,
      "v": 60
    },
    {
      "midi": 62,
      "hit": false,
      "t": 139266.66666666645,
      "d": 66.66666666665697,
      "v": 77
    },
    {
      "midi": 47,
      "hit": false,
      "t": 139412.49999999977,
      "d": 37.5,
      "v": 86
    },
    {
      "midi": 74,
      "hit": false,
      "t": 139516.66666666642,
      "d": 95.83333333334303,
      "v": 86
    },
    {
      "midi": 52,
      "hit": false,
      "t": 139574.99999999977,
      "d": 54.16666666668607,
      "v": 66
    },
    {
      "midi": 78,
      "hit": false,
      "t": 139620.8333333331,
      "d": 95.83333333334303,
      "v": 56
    },
    {
      "midi": 80,
      "hit": false,
      "t": 139679.16666666645,
      "d": 104.16666666665697,
      "v": 65
    },
    {
      "midi": 40,
      "hit": false,
      "t": 139783.3333333331,
      "d": 183.33333333331393,
      "v": 71
    },
    {
      "midi": 85,
      "hit": false,
      "t": 139795.8333333331,
      "d": 141.66666666665697,
      "v": 71
    },
    {
      "midi": 80,
      "hit": false,
      "t": 139891.66666666642,
      "d": 95.83333333334303,
      "v": 68
    },
    {
      "midi": 78,
      "hit": false,
      "t": 139966.66666666642,
      "d": 87.5000000000291,
      "v": 71
    },
    {
      "midi": 52,
      "hit": false,
      "t": 139987.49999999977,
      "d": 45.833333333343035,
      "v": 65
    },
    {
      "midi": 74,
      "hit": false,
      "t": 140054.16666666645,
      "d": 66.66666666665697,
      "v": 77
    },
    {
      "midi": 45,
      "hit": false,
      "t": 140195.8333333331,
      "d": 66.66666666665697,
      "v": 83
    },
    {
      "midi": 61,
      "hit": false,
      "t": 140299.99999999977,
      "d": 95.83333333334303,
      "v": 71
    },
    {
      "midi": 52,
      "hit": false,
      "t": 140379.16666666642,
      "d": 58.333333333343035,
      "v": 68
    },
    {
      "midi": 66,
      "hit": false,
      "t": 140387.49999999977,
      "d": 145.83333333331393,
      "v": 63
    },
    {
      "midi": 68,
      "hit": false,
      "t": 140454.16666666642,
      "d": 125,
      "v": 62
    },
    {
      "midi": 40,
      "hit": false,
      "t": 140579.16666666642,
      "d": 145.83333333334303,
      "v": 74
    },
    {
      "midi": 73,
      "hit": false,
      "t": 140587.49999999977,
      "d": 125,
      "v": 69
    },
    {
      "midi": 68,
      "hit": false,
      "t": 140683.3333333331,
      "d": 95.83333333334303,
      "v": 68
    },
    {
      "midi": 66,
      "hit": false,
      "t": 140770.8333333331,
      "d": 79.16666666668607,
      "v": 62
    },
    {
      "midi": 52,
      "hit": false,
      "t": 140779.16666666645,
      "d": 50,
      "v": 65
    },
    {
      "midi": 61,
      "hit": false,
      "t": 140858.33333333314,
      "d": 66.66666666665697,
      "v": 71
    },
    {
      "midi": 45,
      "hit": false,
      "t": 140999.9999999998,
      "d": 66.66666666665697,
      "v": 90
    },
    {
      "midi": 73,
      "hit": false,
      "t": 141108.3333333331,
      "d": 112.4999999999709,
      "v": 80
    },
    {
      "midi": 52,
      "hit": false,
      "t": 141174.99999999977,
      "d": 58.33333333331393,
      "v": 68
    },
    {
      "midi": 78,
      "hit": false,
      "t": 141220.83333333308,
      "d": 95.83333333334303,
      "v": 63
    },
    {
      "midi": 80,
      "hit": false,
      "t": 141279.16666666642,
      "d": 95.83333333334303,
      "v": 62
    },
    {
      "midi": 40,
      "hit": false,
      "t": 141366.66666666642,
      "d": 162.5,
      "v": 80
    },
    {
      "midi": 85,
      "hit": false,
      "t": 141383.3333333331,
      "d": 137.4999999999709,
      "v": 68
    },
    {
      "midi": 80,
      "hit": false,
      "t": 141479.16666666642,
      "d": 95.83333333334303,
      "v": 62
    },
    {
      "midi": 52,
      "hit": false,
      "t": 141558.33333333308,
      "d": 37.500000000029104,
      "v": 63
    },
    {
      "midi": 78,
      "hit": false,
      "t": 141566.66666666642,
      "d": 95.83333333337214,
      "v": 62
    },
    {
      "midi": 73,
      "hit": false,
      "t": 141654.16666666645,
      "d": 95.83333333334303,
      "v": 65
    },
    {
      "midi": 47,
      "hit": false,
      "t": 141758.33333333314,
      "d": 295.83333333334303,
      "v": 80
    },
    {
      "midi": 56,
      "hit": false,
      "t": 141766.66666666648,
      "d": 258.33333333334303,
      "v": 83
    },
    {
      "midi": 76,
      "hit": false,
      "t": 142024.99999999983,
      "d": 87.5,
      "v": 52
    },
    {
      "midi": 78,
      "hit": false,
      "t": 142104.16666666648,
      "d": 125,
      "v": 65
    },
    {
      "midi": 80,
      "hit": false,
      "t": 142191.66666666648,
      "d": 75,
      "v": 63
    },
    {
      "midi": 81,
      "hit": false,
      "t": 142312.49999999983,
      "d": 87.5,
      "v": 80
    },
    {
      "midi": 83,
      "hit": false,
      "t": 142420.83333333317,
      "d": 112.5,
      "v": 72
    },
    {
      "midi": 85,
      "hit": false,
      "t": 142495.83333333317,
      "d": 133.33333333331393,
      "v": 52
    },
    {
      "midi": 44,
      "hit": false,
      "t": 142599.99999999983,
      "d": 79.16666666665697,
      "v": 86
    },
    {
      "midi": 52,
      "hit": false,
      "t": 142599.99999999983,
      "d": 79.16666666665697,
      "v": 83
    },
    {
      "midi": 86,
      "hit": false,
      "t": 142599.99999999983,
      "d": 145.83333333331393,
      "v": 80
    },
    {
      "midi": 85,
      "hit": false,
      "t": 142716.66666666648,
      "d": 124.9999999999709,
      "v": 46
    },
    {
      "midi": 83,
      "hit": false,
      "t": 142812.4999999998,
      "d": 66.66666666665697,
      "v": 65
    },
    {
      "midi": 81,
      "hit": false,
      "t": 142908.3333333331,
      "d": 50,
      "v": 66
    },
    {
      "midi": 80,
      "hit": false,
      "t": 142995.8333333331,
      "d": 125,
      "v": 56
    },
    {
      "midi": 78,
      "hit": false,
      "t": 143091.66666666645,
      "d": 125,
      "v": 68
    },
    {
      "midi": 76,
      "hit": false,
      "t": 143204.16666666645,
      "d": 66.66666666665697,
      "v": 56
    },
    {
      "midi": 74,
      "hit": false,
      "t": 143283.3333333331,
      "d": 95.83333333331393,
      "v": 71
    },
    {
      "midi": 73,
      "hit": false,
      "t": 143395.83333333308,
      "d": 137.5,
      "v": 66
    },
    {
      "midi": 40,
      "hit": false,
      "t": 143424.99999999974,
      "d": 95.83333333334303,
      "v": 74
    },
    {
      "midi": 50,
      "hit": false,
      "t": 143491.6666666664,
      "d": 125,
      "v": 80
    },
    {
      "midi": 71,
      "hit": false,
      "t": 143512.49999999974,
      "d": 75,
      "v": 65
    },
    {
      "midi": 69,
      "hit": false,
      "t": 143599.99999999974,
      "d": 83.33333333334303,
      "v": 68
    },
    {
      "midi": 49,
      "hit": false,
      "t": 143599.99999999974,
      "d": 104.16666666668607,
      "v": 68
    },
    {
      "midi": 47,
      "hit": false,
      "t": 143674.99999999974,
      "d": 87.5000000000291,
      "v": 80
    },
    {
      "midi": 68,
      "hit": false,
      "t": 143674.99999999974,
      "d": 162.5000000000291,
      "v": 71
    },
    {
      "midi": 66,
      "hit": false,
      "t": 143791.66666666642,
      "d": 104.16666666668607,
      "v": 68
    },
    {
      "midi": 45,
      "hit": false,
      "t": 143791.66666666642,
      "d": 125.0000000000291,
      "v": 77
    },
    {
      "midi": 64,
      "hit": false,
      "t": 143924.9999999998,
      "d": 125,
      "v": 72
    },
    {
      "midi": 44,
      "hit": false,
      "t": 143933.33333333314,
      "d": 145.83333333331393,
      "v": 72
    },
    {
      "midi": 66,
      "hit": false,
      "t": 143999.9999999998,
      "d": 125,
      "v": 80
    },
    {
      "midi": 42,
      "hit": false,
      "t": 144029.16666666645,
      "d": 95.83333333334303,
      "v": 72
    },
    {
      "midi": 40,
      "hit": false,
      "t": 144079.16666666645,
      "d": 95.83333333334303,
      "v": 71
    },
    {
      "midi": 68,
      "hit": false,
      "t": 144079.16666666645,
      "d": 95.83333333334303,
      "v": 63
    },
    {
      "midi": 69,
      "hit": false,
      "t": 144154.16666666645,
      "d": 66.66666666668607,
      "v": 90
    },
    {
      "midi": 45,
      "hit": false,
      "t": 144162.4999999998,
      "d": 470.83333333331393,
      "v": 107
    },
    {
      "midi": 40,
      "hit": false,
      "t": 144374.9999999998,
      "d": 29.166666666656965,
      "v": 66
    },
    {
      "midi": 33,
      "hit": false,
      "t": 144595.8333333331,
      "d": 45.833333333343035,
      "v": 101
    },
    {
      "midi": 69,
      "hit": false,
      "t": 144595.8333333331,
      "d": 66.66666666668607,
      "v": 101
    },
    {
      "midi": 73,
      "hit": false,
      "t": 144595.8333333331,
      "d": 66.66666666668607,
      "v": 86
    },
    {
      "midi": 76,
      "hit": false,
      "t": 144595.8333333331,
      "d": 75.0000000000291,
      "v": 86
    },
    {
      "midi": 81,
      "hit": false,
      "t": 144595.8333333331,
      "d": 87.5000000000291,
      "v": 101
    }
  ]
}