{
  "jsonPath": "Rock/Progressive House/Gaia/tuvan.json",
  "path": "Rock\\Progressive House\\Gaia\\Tuvan.mid",
  "name": "Tuvan",
  "difficulty": "Advanced",
  "bpm": 140.00014000014,
  "notes": [
    {
      "midi": 63,
      "hit": false,
      "t": 214.2855,
      "d": 98.21418750000004,
      "v": 100
    },
    {
      "midi": 48,
      "hit": false,
      "t": 214.2855,
      "d": 102.67846875000004,
      "v": 100
    },
    {
      "midi": 48,
      "hit": false,
      "t": 321.42825000000005,
      "d": 102.67846874999998,
      "v": 100
    },
    {
      "midi": 63,
      "hit": false,
      "t": 642.8565000000001,
      "d": 98.21418749999998,
      "v": 100
    },
    {
      "midi": 48,
      "hit": false,
      "t": 642.8565000000001,
      "d": 102.67846874999998,
      "v": 100
    },
    {
      "midi": 48,
      "hit": false,
      "t": 749.9992500000001,
      "d": 102.67846874999998,
      "v": 100
    },
    {
      "midi": 63,
      "hit": false,
      "t": 1071.4275,
      "d": 98.21418749999998,
      "v": 100
    },
    {
      "midi": 48,
      "hit": false,
      "t": 1071.4275,
      "d": 102.67846875000009,
      "v": 100
    },
    {
      "midi": 48,
      "hit": false,
      "t": 1178.5702500000002,
      "d": 102.67846875000009,
      "v": 100
    },
    {
      "midi": 63,
      "hit": false,
      "t": 1499.9985,
      "d": 98.21418749999998,
      "v": 100
    },
    {
      "midi": 48,
      "hit": false,
      "t": 1499.9985000000004,
      "d": 102.67846875000009,
      "v": 100
    },
    {
      "midi": 48,
      "hit": false,
      "t": 1607.1412500000006,
      "d": 102.67846875000009,
      "v": 100
    },
    {
      "midi": 68,
      "hit": false,
      "t": 1928.5694999999998,
      "d": 98.21418749999998,
      "v": 100
    },
    {
      "midi": 48,
      "hit": false,
      "t": 1928.5695000000007,
      "d": 102.67846875000009,
      "v": 100
    },
    {
      "midi": 48,
      "hit": false,
      "t": 2035.712250000001,
      "d": 102.67846874999987,
      "v": 100
    },
    {
      "midi": 68,
      "hit": false,
      "t": 2357.1405,
      "d": 98.21418750000021,
      "v": 100
    },
    {
      "midi": 48,
      "hit": false,
      "t": 2357.140500000001,
      "d": 102.67846874999987,
      "v": 100
    },
    {
      "midi": 48,
      "hit": false,
      "t": 2464.283250000001,
      "d": 102.67846874999987,
      "v": 100
    },
    {
      "midi": 68,
      "hit": false,
      "t": 2785.7115000000003,
      "d": 98.21418750000021,
      "v": 100
    },
    {
      "midi": 48,
      "hit": false,
      "t": 2785.711500000001,
      "d": 102.67846874999987,
      "v": 100
    },
    {
      "midi": 48,
      "hit": false,
      "t": 2892.854250000001,
      "d": 102.67846874999987,
      "v": 100
    },
    {
      "midi": 68,
      "hit": false,
      "t": 3214.2825000000007,
      "d": 98.21418750000021,
      "v": 100
    },
    {
      "midi": 48,
      "hit": false,
      "t": 3214.2825000000007,
      "d": 102.67846874999987,
      "v": 100
    },
    {
      "midi": 48,
      "hit": false,
      "t": 3321.4252500000007,
      "d": 102.67846874999987,
      "v": 100
    },
    {
      "midi": 48,
      "hit": false,
      "t": 3642.8535000000006,
      "d": 102.67846874999987,
      "v": 100
    },
    {
      "midi": 67,
      "hit": false,
      "t": 3642.853500000001,
      "d": 98.21418750000021,
      "v": 100
    },
    {
      "midi": 48,
      "hit": false,
      "t": 3749.9962500000006,
      "d": 102.67846874999987,
      "v": 100
    },
    {
      "midi": 48,
      "hit": false,
      "t": 4071.4245000000005,
      "d": 102.67846874999987,
      "v": 100
    },
    {
      "midi": 67,
      "hit": false,
      "t": 4071.4245000000014,
      "d": 98.21418750000021,
      "v": 100
    },
    {
      "midi": 48,
      "hit": false,
      "t": 4178.56725,
      "d": 102.67846875000032,
      "v": 100
    },
    {
      "midi": 48,
      "hit": false,
      "t": 4499.9955,
      "d": 102.67846875000032,
      "v": 100
    },
    {
      "midi": 67,
      "hit": false,
      "t": 4499.995500000002,
      "d": 98.21418749999975,
      "v": 100
    },
    {
      "midi": 48,
      "hit": false,
      "t": 4607.13825,
      "d": 102.67846875000032,
      "v": 100
    },
    {
      "midi": 48,
      "hit": false,
      "t": 4928.5665,
      "d": 102.67846875000032,
      "v": 100
    },
    {
      "midi": 67,
      "hit": false,
      "t": 4928.566500000002,
      "d": 98.21418749999975,
      "v": 100
    },
    {
      "midi": 48,
      "hit": false,
      "t": 5035.70925,
      "d": 102.67846875000032,
      "v": 100
    },
    {
      "midi": 48,
      "hit": false,
      "t": 5357.1375,
      "d": 102.67846875000032,
      "v": 100
    },
    {
      "midi": 67,
      "hit": false,
      "t": 5357.137500000002,
      "d": 98.21418749999975,
      "v": 100
    },
    {
      "midi": 48,
      "hit": false,
      "t": 5464.28025,
      "d": 102.67846875000032,
      "v": 100
    },
    {
      "midi": 48,
      "hit": false,
      "t": 5785.7085,
      "d": 102.67846875000032,
      "v": 100
    },
    {
      "midi": 67,
      "hit": false,
      "t": 5785.708500000002,
      "d": 98.21418749999975,
      "v": 100
    },
    {
      "midi": 48,
      "hit": false,
      "t": 5892.85125,
      "d": 102.67846875000032,
      "v": 100
    },
    {
      "midi": 48,
      "hit": false,
      "t": 6214.2795,
      "d": 102.67846875000032,
      "v": 100
    },
    {
      "midi": 67,
      "hit": false,
      "t": 6214.2795000000015,
      "d": 98.21418749999975,
      "v": 100
    },
    {
      "midi": 48,
      "hit": false,
      "t": 6321.42225,
      "d": 102.67846875000032,
      "v": 100
    },
    {
      "midi": 48,
      "hit": false,
      "t": 6642.8505,
      "d": 102.67846875000032,
      "v": 100
    },
    {
      "midi": 67,
      "hit": false,
      "t": 6642.850500000001,
      "d": 98.21418749999975,
      "v": 100
    },
    {
      "midi": 48,
      "hit": false,
      "t": 6749.9932499999995,
      "d": 102.67846875000032,
      "v": 100
    },
    {
      "midi": 48,
      "hit": false,
      "t": 7071.4214999999995,
      "d": 102.67846875000032,
      "v": 100
    },
    {
      "midi": 63,
      "hit": false,
      "t": 7071.421500000001,
      "d": 98.21418749999975,
      "v": 100
    },
    {
      "midi": 48,
      "hit": false,
      "t": 7178.564249999999,
      "d": 102.67846875000032,
      "v": 100
    },
    {
      "midi": 48,
      "hit": false,
      "t": 7499.992499999999,
      "d": 102.67846875000032,
      "v": 100
    },
    {
      "midi": 63,
      "hit": false,
      "t": 7499.992500000001,
      "d": 98.21418749999975,
      "v": 100
    },
    {
      "midi": 48,
      "hit": false,
      "t": 7607.135249999999,
      "d": 102.67846875000032,
      "v": 100
    },
    {
      "midi": 48,
      "hit": false,
      "t": 7928.563499999999,
      "d": 102.67846875000032,
      "v": 100
    },
    {
      "midi": 63,
      "hit": false,
      "t": 7928.563500000001,
      "d": 98.21418749999975,
      "v": 100
    },
    {
      "midi": 48,
      "hit": false,
      "t": 8035.706249999999,
      "d": 102.67846875000032,
      "v": 100
    },
    {
      "midi": 63,
      "hit": false,
      "t": 8357.1345,
      "d": 98.21418749999975,
      "v": 100
    },
    {
      "midi": 48,
      "hit": false,
      "t": 8357.1345,
      "d": 102.67846875000032,
      "v": 100
    },
    {
      "midi": 48,
      "hit": false,
      "t": 8464.277250000001,
      "d": 102.67846875000032,
      "v": 100
    },
    {
      "midi": 65,
      "hit": false,
      "t": 8785.7055,
      "d": 98.21418749999975,
      "v": 100
    },
    {
      "midi": 48,
      "hit": false,
      "t": 8785.705500000002,
      "d": 102.67846875000032,
      "v": 100
    },
    {
      "midi": 48,
      "hit": false,
      "t": 8892.848250000003,
      "d": 102.67846875000032,
      "v": 100
    },
    {
      "midi": 65,
      "hit": false,
      "t": 9214.2765,
      "d": 98.21418749999975,
      "v": 100
    },
    {
      "midi": 48,
      "hit": false,
      "t": 9214.276500000004,
      "d": 102.67846875000032,
      "v": 100
    },
    {
      "midi": 48,
      "hit": false,
      "t": 9321.419250000004,
      "d": 102.67846875000032,
      "v": 100
    },
    {
      "midi": 65,
      "hit": false,
      "t": 9642.8475,
      "d": 98.21418749999975,
      "v": 100
    },
    {
      "midi": 48,
      "hit": false,
      "t": 9642.847500000005,
      "d": 102.67846875000032,
      "v": 100
    },
    {
      "midi": 48,
      "hit": false,
      "t": 9749.990250000006,
      "d": 102.67846875000032,
      "v": 100
    },
    {
      "midi": 65,
      "hit": false,
      "t": 10071.4185,
      "d": 98.21418749999975,
      "v": 100
    },
    {
      "midi": 48,
      "hit": false,
      "t": 10071.418500000007,
      "d": 102.67846875000032,
      "v": 100
    },
    {
      "midi": 48,
      "hit": false,
      "t": 10178.561250000008,
      "d": 102.67846875000032,
      "v": 100
    },
    {
      "midi": 62,
      "hit": false,
      "t": 10499.9895,
      "d": 98.21418749999975,
      "v": 100
    },
    {
      "midi": 48,
      "hit": false,
      "t": 10499.989500000009,
      "d": 102.67846875000032,
      "v": 100
    },
    {
      "midi": 48,
      "hit": false,
      "t": 10607.13225000001,
      "d": 102.67846875000032,
      "v": 100
    },
    {
      "midi": 62,
      "hit": false,
      "t": 10928.5605,
      "d": 98.21418749999975,
      "v": 100
    },
    {
      "midi": 48,
      "hit": false,
      "t": 10928.56050000001,
      "d": 102.67846875000032,
      "v": 100
    },
    {
      "midi": 48,
      "hit": false,
      "t": 11035.703250000011,
      "d": 102.67846875000032,
      "v": 100
    },
    {
      "midi": 62,
      "hit": false,
      "t": 11357.1315,
      "d": 98.21418749999975,
      "v": 100
    },
    {
      "midi": 48,
      "hit": false,
      "t": 11357.131500000012,
      "d": 102.67846875000032,
      "v": 100
    },
    {
      "midi": 48,
      "hit": false,
      "t": 11464.274250000013,
      "d": 102.67846875000032,
      "v": 100
    },
    {
      "midi": 62,
      "hit": false,
      "t": 11785.7025,
      "d": 98.21418749999975,
      "v": 100
    },
    {
      "midi": 48,
      "hit": false,
      "t": 11785.702500000014,
      "d": 102.67846875000032,
      "v": 100
    },
    {
      "midi": 48,
      "hit": false,
      "t": 11892.845250000015,
      "d": 102.67846875000032,
      "v": 100
    },
    {
      "midi": 62,
      "hit": false,
      "t": 12214.2735,
      "d": 98.21418749999975,
      "v": 100
    },
    {
      "midi": 48,
      "hit": false,
      "t": 12214.273500000016,
      "d": 102.67846875000032,
      "v": 100
    },
    {
      "midi": 48,
      "hit": false,
      "t": 12321.416250000017,
      "d": 102.67846875000032,
      "v": 100
    },
    {
      "midi": 62,
      "hit": false,
      "t": 12642.8445,
      "d": 98.21418749999975,
      "v": 100
    },
    {
      "midi": 48,
      "hit": false,
      "t": 12642.844500000017,
      "d": 102.67846875000032,
      "v": 100
    },
    {
      "midi": 48,
      "hit": false,
      "t": 12749.987250000018,
      "d": 102.67846875000032,
      "v": 100
    },
    {
      "midi": 62,
      "hit": false,
      "t": 13071.4155,
      "d": 98.21418749999975,
      "v": 100
    },
    {
      "midi": 48,
      "hit": false,
      "t": 13071.41550000002,
      "d": 102.67846875000032,
      "v": 100
    },
    {
      "midi": 48,
      "hit": false,
      "t": 13178.55825000002,
      "d": 102.67846875000032,
      "v": 100
    },
    {
      "midi": 62,
      "hit": false,
      "t": 13499.986499999999,
      "d": 98.21418749999975,
      "v": 100
    },
    {
      "midi": 48,
      "hit": false,
      "t": 13499.98650000002,
      "d": 102.67846875000032,
      "v": 100
    },
    {
      "midi": 48,
      "hit": false,
      "t": 13607.129250000022,
      "d": 102.67846875000032,
      "v": 100
    },
    {
      "midi": 63,
      "hit": false,
      "t": 13928.557499999999,
      "d": 98.21418749999975,
      "v": 100
    },
    {
      "midi": 48,
      "hit": false,
      "t": 13928.557500000023,
      "d": 102.67846875000032,
      "v": 100
    },
    {
      "midi": 48,
      "hit": false,
      "t": 14035.700250000024,
      "d": 102.67846875000032,
      "v": 100
    },
    {
      "midi": 63,
      "hit": false,
      "t": 14357.128499999999,
      "d": 98.21418749999975,
      "v": 100
    },
    {
      "midi": 48,
      "hit": false,
      "t": 14357.128500000024,
      "d": 102.67846875000032,
      "v": 100
    },
    {
      "midi": 48,
      "hit": false,
      "t": 14464.271250000025,
      "d": 102.67846875000032,
      "v": 100
    },
    {
      "midi": 63,
      "hit": false,
      "t": 14785.699499999999,
      "d": 98.21418749999975,
      "v": 100
    },
    {
      "midi": 48,
      "hit": false,
      "t": 14785.699500000026,
      "d": 102.67846875000032,
      "v": 100
    },
    {
      "midi": 48,
      "hit": false,
      "t": 14892.842250000027,
      "d": 102.67846875000032,
      "v": 100
    },
    {
      "midi": 63,
      "hit": false,
      "t": 15214.270499999999,
      "d": 98.21418749999975,
      "v": 100
    },
    {
      "midi": 48,
      "hit": false,
      "t": 15214.270500000028,
      "d": 102.67846875000032,
      "v": 100
    },
    {
      "midi": 48,
      "hit": false,
      "t": 15321.413250000029,
      "d": 102.67846875000032,
      "v": 100
    },
    {
      "midi": 68,
      "hit": false,
      "t": 15642.841499999999,
      "d": 98.21418749999975,
      "v": 100
    },
    {
      "midi": 48,
      "hit": false,
      "t": 15642.84150000003,
      "d": 102.67846875000032,
      "v": 100
    },
    {
      "midi": 48,
      "hit": false,
      "t": 15749.98425000003,
      "d": 102.67846875000032,
      "v": 100
    },
    {
      "midi": 68,
      "hit": false,
      "t": 16071.412499999999,
      "d": 98.21418749999975,
      "v": 100
    },
    {
      "midi": 48,
      "hit": false,
      "t": 16071.412500000031,
      "d": 102.67846875000032,
      "v": 100
    },
    {
      "midi": 48,
      "hit": false,
      "t": 16178.555250000032,
      "d": 102.67846875000032,
      "v": 100
    },
    {
      "midi": 68,
      "hit": false,
      "t": 16499.9835,
      "d": 98.21418750000157,
      "v": 100
    },
    {
      "midi": 48,
      "hit": false,
      "t": 16499.98350000003,
      "d": 102.67846875000032,
      "v": 100
    },
    {
      "midi": 48,
      "hit": false,
      "t": 16607.12625000003,
      "d": 102.67846875000032,
      "v": 100
    },
    {
      "midi": 68,
      "hit": false,
      "t": 16928.5545,
      "d": 98.21418750000157,
      "v": 100
    },
    {
      "midi": 48,
      "hit": false,
      "t": 16928.55450000003,
      "d": 102.67846875000032,
      "v": 100
    },
    {
      "midi": 48,
      "hit": false,
      "t": 17035.69725000003,
      "d": 102.67846875000032,
      "v": 100
    },
    {
      "midi": 65,
      "hit": false,
      "t": 17357.1255,
      "d": 98.21418750000157,
      "v": 100
    },
    {
      "midi": 48,
      "hit": false,
      "t": 17357.12550000003,
      "d": 102.67846875000032,
      "v": 100
    },
    {
      "midi": 48,
      "hit": false,
      "t": 17464.26825000003,
      "d": 102.67846875000032,
      "v": 100
    },
    {
      "midi": 65,
      "hit": false,
      "t": 17785.6965,
      "d": 98.21418750000157,
      "v": 100
    },
    {
      "midi": 48,
      "hit": false,
      "t": 17785.69650000003,
      "d": 102.67846875000032,
      "v": 100
    },
    {
      "midi": 48,
      "hit": false,
      "t": 17892.83925000003,
      "d": 102.67846875000032,
      "v": 100
    },
    {
      "midi": 65,
      "hit": false,
      "t": 18214.267499999998,
      "d": 98.21418750000157,
      "v": 100
    },
    {
      "midi": 48,
      "hit": false,
      "t": 18214.26750000003,
      "d": 102.67846875000032,
      "v": 100
    },
    {
      "midi": 48,
      "hit": false,
      "t": 18321.41025000003,
      "d": 102.67846875000032,
      "v": 100
    },
    {
      "midi": 65,
      "hit": false,
      "t": 18642.838499999998,
      "d": 98.21418750000157,
      "v": 100
    },
    {
      "midi": 48,
      "hit": false,
      "t": 18642.83850000003,
      "d": 102.67846875000032,
      "v": 100
    },
    {
      "midi": 48,
      "hit": false,
      "t": 18749.98125000003,
      "d": 102.67846875000032,
      "v": 100
    },
    {
      "midi": 67,
      "hit": false,
      "t": 19071.409499999998,
      "d": 98.21418750000157,
      "v": 100
    },
    {
      "midi": 48,
      "hit": false,
      "t": 19071.40950000003,
      "d": 102.67846875000032,
      "v": 100
    },
    {
      "midi": 48,
      "hit": false,
      "t": 19178.55225000003,
      "d": 102.67846875000032,
      "v": 100
    },
    {
      "midi": 67,
      "hit": false,
      "t": 19499.980499999998,
      "d": 98.21418750000157,
      "v": 100
    },
    {
      "midi": 48,
      "hit": false,
      "t": 19499.98050000003,
      "d": 102.67846875000032,
      "v": 100
    },
    {
      "midi": 48,
      "hit": false,
      "t": 19607.12325000003,
      "d": 102.67846875000032,
      "v": 100
    },
    {
      "midi": 67,
      "hit": false,
      "t": 19928.551499999998,
      "d": 98.21418750000157,
      "v": 100
    },
    {
      "midi": 48,
      "hit": false,
      "t": 19928.55150000003,
      "d": 102.67846875000032,
      "v": 100
    },
    {
      "midi": 48,
      "hit": false,
      "t": 20035.69425000003,
      "d": 102.67846875000032,
      "v": 100
    },
    {
      "midi": 67,
      "hit": false,
      "t": 20357.122499999998,
      "d": 98.21418750000157,
      "v": 100
    },
    {
      "midi": 48,
      "hit": false,
      "t": 20357.12250000003,
      "d": 102.67846875000032,
      "v": 100
    },
    {
      "midi": 48,
      "hit": false,
      "t": 20464.26525000003,
      "d": 102.67846875000032,
      "v": 100
    },
    {
      "midi": 63,
      "hit": false,
      "t": 20785.693499999998,
      "d": 98.21418750000157,
      "v": 100
    },
    {
      "midi": 48,
      "hit": false,
      "t": 20785.69350000003,
      "d": 102.67846875000032,
      "v": 100
    },
    {
      "midi": 48,
      "hit": false,
      "t": 20892.83625000003,
      "d": 102.67846875000032,
      "v": 100
    },
    {
      "midi": 63,
      "hit": false,
      "t": 21214.264499999997,
      "d": 98.21418750000157,
      "v": 100
    },
    {
      "midi": 48,
      "hit": false,
      "t": 21214.26450000003,
      "d": 102.67846875000032,
      "v": 100
    },
    {
      "midi": 48,
      "hit": false,
      "t": 21321.40725000003,
      "d": 102.67846875000032,
      "v": 100
    },
    {
      "midi": 63,
      "hit": false,
      "t": 21642.835499999997,
      "d": 98.21418750000157,
      "v": 100
    },
    {
      "midi": 48,
      "hit": false,
      "t": 21642.83550000003,
      "d": 102.67846875000032,
      "v": 100
    },
    {
      "midi": 48,
      "hit": false,
      "t": 21749.97825000003,
      "d": 102.67846875000032,
      "v": 100
    },
    {
      "midi": 63,
      "hit": false,
      "t": 22071.406499999997,
      "d": 98.21418750000157,
      "v": 100
    },
    {
      "midi": 48,
      "hit": false,
      "t": 22071.40650000003,
      "d": 102.67846875000032,
      "v": 100
    },
    {
      "midi": 48,
      "hit": false,
      "t": 22178.54925000003,
      "d": 102.67846875000032,
      "v": 100
    },
    {
      "midi": 65,
      "hit": false,
      "t": 22499.977499999997,
      "d": 98.21418750000157,
      "v": 100
    },
    {
      "midi": 48,
      "hit": false,
      "t": 22499.97750000003,
      "d": 102.67846875000032,
      "v": 100
    },
    {
      "midi": 48,
      "hit": false,
      "t": 22607.12025000003,
      "d": 102.67846875000032,
      "v": 100
    },
    {
      "midi": 65,
      "hit": false,
      "t": 22928.548499999997,
      "d": 98.21418750000157,
      "v": 100
    },
    {
      "midi": 48,
      "hit": false,
      "t": 22928.54850000003,
      "d": 102.67846875000032,
      "v": 100
    },
    {
      "midi": 48,
      "hit": false,
      "t": 23035.69125000003,
      "d": 102.67846875000032,
      "v": 100
    },
    {
      "midi": 65,
      "hit": false,
      "t": 23357.119499999997,
      "d": 98.21418750000157,
      "v": 100
    },
    {
      "midi": 48,
      "hit": false,
      "t": 23357.11950000003,
      "d": 102.67846875000032,
      "v": 100
    },
    {
      "midi": 48,
      "hit": false,
      "t": 23464.26225000003,
      "d": 102.67846875000032,
      "v": 100
    },
    {
      "midi": 65,
      "hit": false,
      "t": 23785.690499999997,
      "d": 98.21418750000157,
      "v": 100
    },
    {
      "midi": 48,
      "hit": false,
      "t": 23785.69050000003,
      "d": 102.67846875000032,
      "v": 100
    },
    {
      "midi": 48,
      "hit": false,
      "t": 23892.83325000003,
      "d": 102.67846875000032,
      "v": 100
    },
    {
      "midi": 67,
      "hit": false,
      "t": 24214.261499999997,
      "d": 98.21418750000157,
      "v": 100
    },
    {
      "midi": 48,
      "hit": false,
      "t": 24214.26150000003,
      "d": 102.67846875000032,
      "v": 100
    },
    {
      "midi": 48,
      "hit": false,
      "t": 24321.40425000003,
      "d": 102.67846875000032,
      "v": 100
    },
    {
      "midi": 67,
      "hit": false,
      "t": 24642.832499999997,
      "d": 98.21418750000157,
      "v": 100
    },
    {
      "midi": 48,
      "hit": false,
      "t": 24642.83250000003,
      "d": 102.67846875000032,
      "v": 100
    },
    {
      "midi": 48,
      "hit": false,
      "t": 24749.97525000003,
      "d": 102.67846875000032,
      "v": 100
    },
    {
      "midi": 67,
      "hit": false,
      "t": 25071.403499999997,
      "d": 98.21418750000157,
      "v": 100
    },
    {
      "midi": 48,
      "hit": false,
      "t": 25071.40350000003,
      "d": 102.67846875000032,
      "v": 100
    },
    {
      "midi": 48,
      "hit": false,
      "t": 25178.54625000003,
      "d": 102.67846875000032,
      "v": 100
    },
    {
      "midi": 67,
      "hit": false,
      "t": 25499.974499999997,
      "d": 98.21418750000157,
      "v": 100
    },
    {
      "midi": 48,
      "hit": false,
      "t": 25499.97450000003,
      "d": 102.67846875000032,
      "v": 100
    },
    {
      "midi": 48,
      "hit": false,
      "t": 25607.11725000003,
      "d": 102.67846875000032,
      "v": 100
    },
    {
      "midi": 67,
      "hit": false,
      "t": 25928.545499999997,
      "d": 98.21418750000157,
      "v": 100
    },
    {
      "midi": 48,
      "hit": false,
      "t": 25928.54550000003,
      "d": 102.67846875000032,
      "v": 100
    },
    {
      "midi": 48,
      "hit": false,
      "t": 26035.68825000003,
      "d": 102.67846875000032,
      "v": 100
    },
    {
      "midi": 67,
      "hit": false,
      "t": 26357.116499999996,
      "d": 98.21418750000157,
      "v": 100
    },
    {
      "midi": 48,
      "hit": false,
      "t": 26357.11650000003,
      "d": 102.67846875000032,
      "v": 100
    },
    {
      "midi": 48,
      "hit": false,
      "t": 26464.25925000003,
      "d": 102.67846875000032,
      "v": 100
    },
    {
      "midi": 67,
      "hit": false,
      "t": 26785.687499999996,
      "d": 98.21418750000157,
      "v": 100
    },
    {
      "midi": 48,
      "hit": false,
      "t": 26785.68750000003,
      "d": 102.67846875000032,
      "v": 100
    },
    {
      "midi": 48,
      "hit": false,
      "t": 26892.830250000028,
      "d": 102.67846875000032,
      "v": 100
    },
    {
      "midi": 67,
      "hit": false,
      "t": 27214.258499999996,
      "d": 98.21418750000157,
      "v": 100
    },
    {
      "midi": 48,
      "hit": false,
      "t": 27214.25850000003,
      "d": 102.67846875000032,
      "v": 100
    },
    {
      "midi": 48,
      "hit": false,
      "t": 27321.401250000028,
      "d": 102.67846875000032,
      "v": 100
    },
    {
      "midi": 63,
      "hit": false,
      "t": 27642.829499999996,
      "d": 98.21418750000157,
      "v": 100
    },
    {
      "midi": 48,
      "hit": false,
      "t": 27642.82950000003,
      "d": 102.67846875000032,
      "v": 100
    },
    {
      "midi": 48,
      "hit": false,
      "t": 27749.972250000028,
      "d": 102.67846875000032,
      "v": 100
    },
    {
      "midi": 63,
      "hit": false,
      "t": 28071.400499999996,
      "d": 98.21418750000157,
      "v": 100
    },
    {
      "midi": 48,
      "hit": false,
      "t": 28071.40050000003,
      "d": 102.67846875000032,
      "v": 100
    },
    {
      "midi": 48,
      "hit": false,
      "t": 28178.543250000028,
      "d": 102.67846875000032,
      "v": 100
    },
    {
      "midi": 63,
      "hit": false,
      "t": 28499.971499999996,
      "d": 98.21418750000157,
      "v": 100
    },
    {
      "midi": 48,
      "hit": false,
      "t": 28499.97150000003,
      "d": 102.67846875000032,
      "v": 100
    },
    {
      "midi": 48,
      "hit": false,
      "t": 28607.114250000028,
      "d": 102.67846875000032,
      "v": 100
    },
    {
      "midi": 63,
      "hit": false,
      "t": 28928.542499999996,
      "d": 98.21418750000157,
      "v": 100
    },
    {
      "midi": 48,
      "hit": false,
      "t": 28928.54250000003,
      "d": 102.67846875000032,
      "v": 100
    },
    {
      "midi": 48,
      "hit": false,
      "t": 29035.685250000028,
      "d": 102.67846875000032,
      "v": 100
    },
    {
      "midi": 68,
      "hit": false,
      "t": 29357.113499999996,
      "d": 98.21418750000157,
      "v": 100
    },
    {
      "midi": 53,
      "hit": false,
      "t": 29357.11350000003,
      "d": 102.67846875000032,
      "v": 100
    },
    {
      "midi": 53,
      "hit": false,
      "t": 29464.256250000028,
      "d": 102.67846875000032,
      "v": 100
    },
    {
      "midi": 68,
      "hit": false,
      "t": 29785.684499999996,
      "d": 98.21418750000157,
      "v": 100
    },
    {
      "midi": 53,
      "hit": false,
      "t": 29785.68450000003,
      "d": 102.67846875000032,
      "v": 100
    },
    {
      "midi": 53,
      "hit": false,
      "t": 29892.827250000028,
      "d": 102.67846875000032,
      "v": 100
    },
    {
      "midi": 68,
      "hit": false,
      "t": 30214.255499999996,
      "d": 98.21418750000157,
      "v": 100
    },
    {
      "midi": 53,
      "hit": false,
      "t": 30214.25550000003,
      "d": 102.67846875000032,
      "v": 100
    },
    {
      "midi": 53,
      "hit": false,
      "t": 30321.398250000027,
      "d": 102.67846875000032,
      "v": 100
    },
    {
      "midi": 68,
      "hit": false,
      "t": 30642.826499999996,
      "d": 98.21418750000157,
      "v": 100
    },
    {
      "midi": 53,
      "hit": false,
      "t": 30642.82650000003,
      "d": 102.67846875000032,
      "v": 100
    },
    {
      "midi": 53,
      "hit": false,
      "t": 30749.969250000027,
      "d": 102.67846875000032,
      "v": 100
    },
    {
      "midi": 67,
      "hit": false,
      "t": 31071.397499999995,
      "d": 98.21418750000157,
      "v": 100
    },
    {
      "midi": 51,
      "hit": false,
      "t": 31071.39750000003,
      "d": 102.67846875000032,
      "v": 100
    },
    {
      "midi": 51,
      "hit": false,
      "t": 31178.540250000027,
      "d": 102.67846875000032,
      "v": 100
    },
    {
      "midi": 67,
      "hit": false,
      "t": 31499.968499999995,
      "d": 98.21418750000157,
      "v": 100
    },
    {
      "midi": 51,
      "hit": false,
      "t": 31499.968500000028,
      "d": 102.67846875000032,
      "v": 100
    },
    {
      "midi": 51,
      "hit": false,
      "t": 31607.111250000027,
      "d": 102.67846875000032,
      "v": 100
    },
    {
      "midi": 67,
      "hit": false,
      "t": 31928.539499999995,
      "d": 98.21418750000157,
      "v": 100
    },
    {
      "midi": 51,
      "hit": false,
      "t": 31928.539500000028,
      "d": 102.67846875000032,
      "v": 100
    },
    {
      "midi": 51,
      "hit": false,
      "t": 32035.682250000027,
      "d": 102.67846875000032,
      "v": 100
    },
    {
      "midi": 67,
      "hit": false,
      "t": 32357.110499999995,
      "d": 98.21418750000157,
      "v": 100
    },
    {
      "midi": 51,
      "hit": false,
      "t": 32357.110500000028,
      "d": 102.67846875000032,
      "v": 100
    },
    {
      "midi": 51,
      "hit": false,
      "t": 32464.253250000027,
      "d": 102.67846875000032,
      "v": 100
    },
    {
      "midi": 67,
      "hit": false,
      "t": 32785.6815,
      "d": 98.21418750000157,
      "v": 100
    },
    {
      "midi": 47,
      "hit": false,
      "t": 32785.68150000003,
      "d": 102.67846874999668,
      "v": 100
    },
    {
      "midi": 47,
      "hit": false,
      "t": 32892.82425000003,
      "d": 102.67846874999668,
      "v": 100
    },
    {
      "midi": 67,
      "hit": false,
      "t": 33214.2525,
      "d": 98.21418750000157,
      "v": 100
    },
    {
      "midi": 47,
      "hit": false,
      "t": 33214.252500000024,
      "d": 102.67846874999668,
      "v": 100
    },
    {
      "midi": 47,
      "hit": false,
      "t": 33321.39525000002,
      "d": 102.67846874999668,
      "v": 100
    },
    {
      "midi": 67,
      "hit": false,
      "t": 33642.823500000006,
      "d": 98.21418750000157,
      "v": 100
    },
    {
      "midi": 47,
      "hit": false,
      "t": 33642.82350000002,
      "d": 102.67846874999668,
      "v": 100
    },
    {
      "midi": 47,
      "hit": false,
      "t": 33749.96625000002,
      "d": 102.67846874999668,
      "v": 100
    },
    {
      "midi": 67,
      "hit": false,
      "t": 34071.39450000001,
      "d": 98.21418750000157,
      "v": 100
    },
    {
      "midi": 47,
      "hit": false,
      "t": 34071.39450000002,
      "d": 102.67846874999668,
      "v": 100
    },
    {
      "midi": 47,
      "hit": false,
      "t": 34178.537250000016,
      "d": 102.67846874999668,
      "v": 100
    },
    {
      "midi": 63,
      "hit": false,
      "t": 34499.96550000001,
      "d": 98.21418750000157,
      "v": 100
    },
    {
      "midi": 44,
      "hit": false,
      "t": 34499.96550000001,
      "d": 102.67846874999668,
      "v": 100
    },
    {
      "midi": 44,
      "hit": false,
      "t": 34607.10825000001,
      "d": 102.67846874999668,
      "v": 100
    },
    {
      "midi": 44,
      "hit": false,
      "t": 34928.53650000001,
      "d": 102.67846874999668,
      "v": 100
    },
    {
      "midi": 63,
      "hit": false,
      "t": 34928.53650000002,
      "d": 98.21418750000157,
      "v": 100
    },
    {
      "midi": 44,
      "hit": false,
      "t": 35035.67925000001,
      "d": 102.67846874999668,
      "v": 100
    },
    {
      "midi": 44,
      "hit": false,
      "t": 35357.107500000006,
      "d": 102.67846874999668,
      "v": 100
    },
    {
      "midi": 63,
      "hit": false,
      "t": 35357.10750000002,
      "d": 98.21418750000157,
      "v": 100
    },
    {
      "midi": 44,
      "hit": false,
      "t": 35464.250250000005,
      "d": 102.67846874999668,
      "v": 100
    },
    {
      "midi": 44,
      "hit": false,
      "t": 35785.6785,
      "d": 102.67846874999668,
      "v": 100
    },
    {
      "midi": 63,
      "hit": false,
      "t": 35785.67850000002,
      "d": 98.21418750000157,
      "v": 100
    },
    {
      "midi": 44,
      "hit": false,
      "t": 35892.82125,
      "d": 102.67846874999668,
      "v": 100
    },
    {
      "midi": 41,
      "hit": false,
      "t": 36214.2495,
      "d": 102.67846874999668,
      "v": 100
    },
    {
      "midi": 65,
      "hit": false,
      "t": 36214.24950000003,
      "d": 98.21418750000157,
      "v": 100
    },
    {
      "midi": 41,
      "hit": false,
      "t": 36321.39225,
      "d": 102.67846874999668,
      "v": 100
    },
    {
      "midi": 41,
      "hit": false,
      "t": 36642.820499999994,
      "d": 102.67846874999668,
      "v": 100
    },
    {
      "midi": 65,
      "hit": false,
      "t": 36642.82050000003,
      "d": 98.21418750000157,
      "v": 100
    },
    {
      "midi": 41,
      "hit": false,
      "t": 36749.96324999999,
      "d": 102.67846874999668,
      "v": 100
    },
    {
      "midi": 41,
      "hit": false,
      "t": 37071.39149999999,
      "d": 102.67846874999668,
      "v": 100
    },
    {
      "midi": 65,
      "hit": false,
      "t": 37071.391500000034,
      "d": 98.21418750000157,
      "v": 100
    },
    {
      "midi": 41,
      "hit": false,
      "t": 37178.53424999999,
      "d": 102.67846874999668,
      "v": 100
    },
    {
      "midi": 41,
      "hit": false,
      "t": 37499.96249999999,
      "d": 102.67846874999668,
      "v": 100
    },
    {
      "midi": 65,
      "hit": false,
      "t": 37499.96250000004,
      "d": 98.21418750000157,
      "v": 100
    },
    {
      "midi": 41,
      "hit": false,
      "t": 37607.105249999986,
      "d": 102.67846874999668,
      "v": 100
    },
    {
      "midi": 43,
      "hit": false,
      "t": 37928.53349999998,
      "d": 102.67846874999668,
      "v": 100
    },
    {
      "midi": 62,
      "hit": false,
      "t": 37928.53350000004,
      "d": 98.21418750000157,
      "v": 100
    },
    {
      "midi": 43,
      "hit": false,
      "t": 38035.67624999998,
      "d": 102.67846874999668,
      "v": 100
    },
    {
      "midi": 43,
      "hit": false,
      "t": 38357.10449999998,
      "d": 102.67846874999668,
      "v": 100
    },
    {
      "midi": 62,
      "hit": false,
      "t": 38357.104500000045,
      "d": 98.21418750000157,
      "v": 100
    },
    {
      "midi": 43,
      "hit": false,
      "t": 38464.24724999998,
      "d": 102.67846874999668,
      "v": 100
    },
    {
      "midi": 43,
      "hit": false,
      "t": 38785.675499999976,
      "d": 102.67846874999668,
      "v": 100
    },
    {
      "midi": 62,
      "hit": false,
      "t": 38785.67550000005,
      "d": 98.21418750000157,
      "v": 100
    },
    {
      "midi": 43,
      "hit": false,
      "t": 38892.818249999975,
      "d": 102.67846874999668,
      "v": 100
    },
    {
      "midi": 43,
      "hit": false,
      "t": 39214.24649999997,
      "d": 102.67846874999668,
      "v": 100
    },
    {
      "midi": 62,
      "hit": false,
      "t": 39214.24650000005,
      "d": 98.21418750000157,
      "v": 100
    },
    {
      "midi": 43,
      "hit": false,
      "t": 39321.38924999997,
      "d": 102.67846874999668,
      "v": 100
    },
    {
      "midi": 47,
      "hit": false,
      "t": 39642.81749999997,
      "d": 102.67846874999668,
      "v": 100
    },
    {
      "midi": 62,
      "hit": false,
      "t": 39642.817500000056,
      "d": 98.21418750000157,
      "v": 100
    },
    {
      "midi": 47,
      "hit": false,
      "t": 39749.96024999997,
      "d": 102.67846874999668,
      "v": 100
    },
    {
      "midi": 47,
      "hit": false,
      "t": 40071.388499999965,
      "d": 102.67846874999668,
      "v": 100
    },
    {
      "midi": 62,
      "hit": false,
      "t": 40071.38850000006,
      "d": 98.21418750000157,
      "v": 100
    },
    {
      "midi": 47,
      "hit": false,
      "t": 40178.53124999996,
      "d": 102.67846874999668,
      "v": 100
    },
    {
      "midi": 47,
      "hit": false,
      "t": 40499.95949999996,
      "d": 102.67846874999668,
      "v": 100
    },
    {
      "midi": 62,
      "hit": false,
      "t": 40499.95950000006,
      "d": 98.21418750000157,
      "v": 100
    },
    {
      "midi": 47,
      "hit": false,
      "t": 40607.10224999996,
      "d": 102.67846874999668,
      "v": 100
    },
    {
      "midi": 47,
      "hit": false,
      "t": 40928.53049999996,
      "d": 102.67846874999668,
      "v": 100
    },
    {
      "midi": 62,
      "hit": false,
      "t": 40928.530500000066,
      "d": 98.21418750000157,
      "v": 100
    },
    {
      "midi": 47,
      "hit": false,
      "t": 41035.673249999956,
      "d": 102.67846874999668,
      "v": 100
    },
    {
      "midi": 48,
      "hit": false,
      "t": 41357.10149999995,
      "d": 102.67846874999668,
      "v": 100
    },
    {
      "midi": 63,
      "hit": false,
      "t": 41357.10150000007,
      "d": 98.21418750000157,
      "v": 100
    },
    {
      "midi": 48,
      "hit": false,
      "t": 41464.24424999995,
      "d": 102.67846874999668,
      "v": 100
    },
    {
      "midi": 48,
      "hit": false,
      "t": 41785.67249999995,
      "d": 102.67846874999668,
      "v": 100
    },
    {
      "midi": 63,
      "hit": false,
      "t": 41785.67250000007,
      "d": 98.21418750000157,
      "v": 100
    },
    {
      "midi": 48,
      "hit": false,
      "t": 41892.81524999995,
      "d": 102.67846874999668,
      "v": 100
    },
    {
      "midi": 48,
      "hit": false,
      "t": 42214.243499999946,
      "d": 102.67846874999668,
      "v": 100
    },
    {
      "midi": 63,
      "hit": false,
      "t": 42214.24350000008,
      "d": 98.21418750000157,
      "v": 100
    },
    {
      "midi": 48,
      "hit": false,
      "t": 42321.386249999945,
      "d": 102.67846874999668,
      "v": 100
    },
    {
      "midi": 48,
      "hit": false,
      "t": 42642.81449999994,
      "d": 102.67846874999668,
      "v": 100
    },
    {
      "midi": 63,
      "hit": false,
      "t": 42642.81450000008,
      "d": 98.21418750000157,
      "v": 100
    },
    {
      "midi": 48,
      "hit": false,
      "t": 42749.95724999994,
      "d": 102.67846874999668,
      "v": 100
    },
    {
      "midi": 44,
      "hit": false,
      "t": 43071.38549999994,
      "d": 102.67846874999668,
      "v": 100
    },
    {
      "midi": 68,
      "hit": false,
      "t": 43071.385500000084,
      "d": 98.21418750000157,
      "v": 100
    },
    {
      "midi": 44,
      "hit": false,
      "t": 43178.52824999994,
      "d": 102.67846874999668,
      "v": 100
    },
    {
      "midi": 44,
      "hit": false,
      "t": 43499.956499999935,
      "d": 102.67846874999668,
      "v": 100
    },
    {
      "midi": 68,
      "hit": false,
      "t": 43499.95650000009,
      "d": 98.21418750000157,
      "v": 100
    },
    {
      "midi": 44,
      "hit": false,
      "t": 43607.099249999934,
      "d": 102.67846874999668,
      "v": 100
    },
    {
      "midi": 44,
      "hit": false,
      "t": 43928.52749999993,
      "d": 102.67846874999668,
      "v": 100
    },
    {
      "midi": 68,
      "hit": false,
      "t": 43928.52750000009,
      "d": 98.21418750000157,
      "v": 100
    },
    {
      "midi": 44,
      "hit": false,
      "t": 44035.67024999993,
      "d": 102.67846874999668,
      "v": 100
    },
    {
      "midi": 44,
      "hit": false,
      "t": 44357.09849999993,
      "d": 102.67846874999668,
      "v": 100
    },
    {
      "midi": 68,
      "hit": false,
      "t": 44357.098500000095,
      "d": 98.21418750000157,
      "v": 100
    },
    {
      "midi": 44,
      "hit": false,
      "t": 44464.24124999993,
      "d": 102.67846874999668,
      "v": 100
    },
    {
      "midi": 46,
      "hit": false,
      "t": 44785.66949999992,
      "d": 102.67846874999668,
      "v": 100
    },
    {
      "midi": 65,
      "hit": false,
      "t": 44785.6695000001,
      "d": 98.21418750000157,
      "v": 100
    },
    {
      "midi": 46,
      "hit": false,
      "t": 44892.81224999992,
      "d": 102.67846874999668,
      "v": 100
    },
    {
      "midi": 46,
      "hit": false,
      "t": 45214.24049999992,
      "d": 102.67846874999668,
      "v": 100
    },
    {
      "midi": 65,
      "hit": false,
      "t": 45214.2405000001,
      "d": 98.21418750000157,
      "v": 100
    },
    {
      "midi": 46,
      "hit": false,
      "t": 45321.38324999992,
      "d": 102.67846874999668,
      "v": 100
    },
    {
      "midi": 46,
      "hit": false,
      "t": 45642.811499999916,
      "d": 102.67846874999668,
      "v": 100
    },
    {
      "midi": 65,
      "hit": false,
      "t": 45642.811500000105,
      "d": 98.21418750000157,
      "v": 100
    },
    {
      "midi": 46,
      "hit": false,
      "t": 45749.954249999915,
      "d": 102.67846874999668,
      "v": 100
    },
    {
      "midi": 46,
      "hit": false,
      "t": 46071.38249999991,
      "d": 102.67846874999668,
      "v": 100
    },
    {
      "midi": 65,
      "hit": false,
      "t": 46071.38250000011,
      "d": 98.21418750000157,
      "v": 100
    },
    {
      "midi": 46,
      "hit": false,
      "t": 46178.52524999991,
      "d": 102.67846874999668,
      "v": 100
    },
    {
      "midi": 51,
      "hit": false,
      "t": 46499.95349999991,
      "d": 102.67846874999668,
      "v": 100
    },
    {
      "midi": 67,
      "hit": false,
      "t": 46499.95350000011,
      "d": 98.21418750000157,
      "v": 100
    },
    {
      "midi": 51,
      "hit": false,
      "t": 46607.09624999991,
      "d": 102.67846874999668,
      "v": 100
    },
    {
      "midi": 51,
      "hit": false,
      "t": 46928.524499999905,
      "d": 102.67846874999668,
      "v": 100
    },
    {
      "midi": 67,
      "hit": false,
      "t": 46928.524500000116,
      "d": 98.21418750000157,
      "v": 100
    },
    {
      "midi": 51,
      "hit": false,
      "t": 47035.667249999904,
      "d": 102.67846874999668,
      "v": 100
    },
    {
      "midi": 51,
      "hit": false,
      "t": 47357.0954999999,
      "d": 102.67846874999668,
      "v": 100
    },
    {
      "midi": 67,
      "hit": false,
      "t": 47357.09550000012,
      "d": 98.21418750000157,
      "v": 100
    },
    {
      "midi": 51,
      "hit": false,
      "t": 47464.2382499999,
      "d": 102.67846874999668,
      "v": 100
    },
    {
      "midi": 51,
      "hit": false,
      "t": 47785.6664999999,
      "d": 102.67846874999668,
      "v": 100
    },
    {
      "midi": 67,
      "hit": false,
      "t": 47785.66650000012,
      "d": 98.21418750000157,
      "v": 100
    },
    {
      "midi": 51,
      "hit": false,
      "t": 47892.8092499999,
      "d": 102.67846874999668,
      "v": 100
    },
    {
      "midi": 44,
      "hit": false,
      "t": 48214.237499999894,
      "d": 102.67846874999668,
      "v": 100
    },
    {
      "midi": 63,
      "hit": false,
      "t": 48214.23750000013,
      "d": 98.21418750000157,
      "v": 100
    },
    {
      "midi": 44,
      "hit": false,
      "t": 48321.38024999989,
      "d": 102.67846874999668,
      "v": 100
    },
    {
      "midi": 44,
      "hit": false,
      "t": 48642.80849999989,
      "d": 102.67846874999668,
      "v": 100
    },
    {
      "midi": 63,
      "hit": false,
      "t": 48642.80850000013,
      "d": 98.21418750000157,
      "v": 100
    },
    {
      "midi": 44,
      "hit": false,
      "t": 48749.95124999989,
      "d": 102.67846874999668,
      "v": 100
    },
    {
      "midi": 44,
      "hit": false,
      "t": 49071.379499999886,
      "d": 102.67846874999668,
      "v": 100
    },
    {
      "midi": 63,
      "hit": false,
      "t": 49071.379500000134,
      "d": 98.21418750000157,
      "v": 100
    },
    {
      "midi": 44,
      "hit": false,
      "t": 49178.522249999885,
      "d": 102.67846874999668,
      "v": 100
    },
    {
      "midi": 44,
      "hit": false,
      "t": 49499.95049999988,
      "d": 102.67846874999668,
      "v": 100
    },
    {
      "midi": 63,
      "hit": false,
      "t": 49499.95050000014,
      "d": 98.21418750000157,
      "v": 100
    },
    {
      "midi": 44,
      "hit": false,
      "t": 49607.09324999988,
      "d": 102.67846874999668,
      "v": 100
    },
    {
      "midi": 50,
      "hit": false,
      "t": 49928.52149999988,
      "d": 102.67846874999668,
      "v": 100
    },
    {
      "midi": 65,
      "hit": false,
      "t": 49928.52150000014,
      "d": 98.21418750000157,
      "v": 100
    },
    {
      "midi": 50,
      "hit": false,
      "t": 50035.66424999988,
      "d": 102.67846874999668,
      "v": 100
    },
    {
      "midi": 50,
      "hit": false,
      "t": 50357.092499999875,
      "d": 102.67846874999668,
      "v": 100
    },
    {
      "midi": 65,
      "hit": false,
      "t": 50357.092500000144,
      "d": 98.21418750000157,
      "v": 100
    },
    {
      "midi": 50,
      "hit": false,
      "t": 50464.235249999874,
      "d": 102.67846874999668,
      "v": 100
    },
    {
      "midi": 50,
      "hit": false,
      "t": 50785.66349999987,
      "d": 102.67846874999668,
      "v": 100
    },
    {
      "midi": 65,
      "hit": false,
      "t": 50785.66350000015,
      "d": 98.21418750000157,
      "v": 100
    },
    {
      "midi": 50,
      "hit": false,
      "t": 50892.80624999987,
      "d": 102.67846874999668,
      "v": 100
    },
    {
      "midi": 50,
      "hit": false,
      "t": 51214.23449999987,
      "d": 102.67846874999668,
      "v": 100
    },
    {
      "midi": 65,
      "hit": false,
      "t": 51214.23450000015,
      "d": 98.21418750000157,
      "v": 100
    },
    {
      "midi": 50,
      "hit": false,
      "t": 51321.37724999987,
      "d": 102.67846874999668,
      "v": 100
    },
    {
      "midi": 43,
      "hit": false,
      "t": 51642.805499999864,
      "d": 102.67846874999668,
      "v": 100
    },
    {
      "midi": 67,
      "hit": false,
      "t": 51642.805500000155,
      "d": 98.21418750000157,
      "v": 100
    },
    {
      "midi": 43,
      "hit": false,
      "t": 51749.94824999986,
      "d": 102.67846874999668,
      "v": 100
    },
    {
      "midi": 43,
      "hit": false,
      "t": 52071.37649999986,
      "d": 102.67846874999668,
      "v": 100
    },
    {
      "midi": 67,
      "hit": false,
      "t": 52071.37650000016,
      "d": 98.21418750000157,
      "v": 100
    },
    {
      "midi": 43,
      "hit": false,
      "t": 52178.51924999986,
      "d": 102.67846874999668,
      "v": 100
    },
    {
      "midi": 43,
      "hit": false,
      "t": 52499.94749999986,
      "d": 102.67846874999668,
      "v": 100
    },
    {
      "midi": 67,
      "hit": false,
      "t": 52499.94750000016,
      "d": 98.21418750000157,
      "v": 100
    },
    {
      "midi": 43,
      "hit": false,
      "t": 52607.090249999856,
      "d": 102.67846874999668,
      "v": 100
    },
    {
      "midi": 43,
      "hit": false,
      "t": 52928.51849999985,
      "d": 102.67846874999668,
      "v": 100
    },
    {
      "midi": 67,
      "hit": false,
      "t": 52928.518500000166,
      "d": 98.21418750000157,
      "v": 100
    },
    {
      "midi": 43,
      "hit": false,
      "t": 53035.66124999985,
      "d": 102.67846874999668,
      "v": 100
    },
    {
      "midi": 47,
      "hit": false,
      "t": 53357.08949999985,
      "d": 102.67846874999668,
      "v": 100
    },
    {
      "midi": 67,
      "hit": false,
      "t": 53357.08950000017,
      "d": 98.21418750000157,
      "v": 100
    },
    {
      "midi": 47,
      "hit": false,
      "t": 53464.23224999985,
      "d": 102.67846874999668,
      "v": 100
    },
    {
      "midi": 47,
      "hit": false,
      "t": 53785.660499999845,
      "d": 102.67846874999668,
      "v": 100
    },
    {
      "midi": 67,
      "hit": false,
      "t": 53785.66050000017,
      "d": 98.21418750000157,
      "v": 100
    },
    {
      "midi": 47,
      "hit": false,
      "t": 53892.803249999844,
      "d": 102.67846874999668,
      "v": 100
    },
    {
      "midi": 47,
      "hit": false,
      "t": 54214.23149999984,
      "d": 102.67846874999668,
      "v": 100
    },
    {
      "midi": 67,
      "hit": false,
      "t": 54214.231500000176,
      "d": 98.21418750000157,
      "v": 100
    },
    {
      "midi": 47,
      "hit": false,
      "t": 54321.37424999984,
      "d": 102.67846874999668,
      "v": 100
    },
    {
      "midi": 47,
      "hit": false,
      "t": 54642.80249999984,
      "d": 102.67846874999668,
      "v": 100
    },
    {
      "midi": 67,
      "hit": false,
      "t": 54642.80250000018,
      "d": 98.21418750000157,
      "v": 100
    },
    {
      "midi": 47,
      "hit": false,
      "t": 54749.94524999984,
      "d": 102.67846874999668,
      "v": 100
    },
    {
      "midi": 48,
      "hit": false,
      "t": 54857.087999999836,
      "d": 1709.8197187499973,
      "v": 100
    },
    {
      "midi": 75,
      "hit": false,
      "t": 54857.088,
      "d": 1696.4268749999974,
      "v": 100
    },
    {
      "midi": 48,
      "hit": false,
      "t": 54857.088,
      "d": 1705.3554374999949,
      "v": 100
    },
    {
      "midi": 60,
      "hit": false,
      "t": 54857.088,
      "d": 1705.3554374999949,
      "v": 100
    },
    {
      "midi": 53,
      "hit": false,
      "t": 56571.371999999836,
      "d": 1709.8197187499973,
      "v": 100
    },
    {
      "midi": 80,
      "hit": false,
      "t": 56571.371999999996,
      "d": 1696.4268749999974,
      "v": 100
    },
    {
      "midi": 53,
      "hit": false,
      "t": 56571.371999999996,
      "d": 1705.3554374999949,
      "v": 100
    },
    {
      "midi": 65,
      "hit": false,
      "t": 56571.371999999996,
      "d": 1705.3554374999949,
      "v": 100
    },
    {
      "midi": 51,
      "hit": false,
      "t": 58285.655999999835,
      "d": 1709.8197187499973,
      "v": 100
    },
    {
      "midi": 51,
      "hit": false,
      "t": 58285.65599999999,
      "d": 1705.3554375000022,
      "v": 100
    },
    {
      "midi": 63,
      "hit": false,
      "t": 58285.65599999999,
      "d": 1705.3554375000022,
      "v": 100
    },
    {
      "midi": 79,
      "hit": false,
      "t": 58285.65599999999,
      "d": 3419.639437500002,
      "v": 100
    },
    {
      "midi": 47,
      "hit": false,
      "t": 59999.939999999835,
      "d": 1709.8197187499973,
      "v": 100
    },
    {
      "midi": 47,
      "hit": false,
      "t": 59999.93999999999,
      "d": 1705.3554375000022,
      "v": 100
    },
    {
      "midi": 59,
      "hit": false,
      "t": 59999.93999999999,
      "d": 1705.3554375000022,
      "v": 100
    },
    {
      "midi": 44,
      "hit": false,
      "t": 61714.223999999835,
      "d": 1709.8197187499973,
      "v": 100
    },
    {
      "midi": 44,
      "hit": false,
      "t": 61714.22399999999,
      "d": 1705.3554375000022,
      "v": 100
    },
    {
      "midi": 56,
      "hit": false,
      "t": 61714.22399999999,
      "d": 1705.3554375000022,
      "v": 100
    },
    {
      "midi": 75,
      "hit": false,
      "t": 61714.22399999999,
      "d": 1705.3554375000022,
      "v": 100
    },
    {
      "midi": 41,
      "hit": false,
      "t": 63428.507999999834,
      "d": 1709.8197187499973,
      "v": 100
    },
    {
      "midi": 41,
      "hit": false,
      "t": 63428.50799999999,
      "d": 1705.3554375000022,
      "v": 100
    },
    {
      "midi": 53,
      "hit": false,
      "t": 63428.50799999999,
      "d": 1705.3554375000022,
      "v": 100
    },
    {
      "midi": 77,
      "hit": false,
      "t": 63428.50799999999,
      "d": 1705.3554375000022,
      "v": 100
    },
    {
      "midi": 43,
      "hit": false,
      "t": 65142.791999999834,
      "d": 1709.8197187499973,
      "v": 100
    },
    {
      "midi": 43,
      "hit": false,
      "t": 65142.79199999999,
      "d": 1705.3554374999949,
      "v": 100
    },
    {
      "midi": 55,
      "hit": false,
      "t": 65142.79199999999,
      "d": 1705.3554374999949,
      "v": 100
    },
    {
      "midi": 74,
      "hit": false,
      "t": 65142.79199999999,
      "d": 3419.6394374999945,
      "v": 100
    },
    {
      "midi": 47,
      "hit": false,
      "t": 66857.07599999983,
      "d": 1709.8197187500045,
      "v": 100
    },
    {
      "midi": 47,
      "hit": false,
      "t": 66857.07599999999,
      "d": 1705.3554374999949,
      "v": 100
    },
    {
      "midi": 59,
      "hit": false,
      "t": 66857.07599999999,
      "d": 1705.3554374999949,
      "v": 100
    },
    {
      "midi": 48,
      "hit": false,
      "t": 68571.35999999983,
      "d": 1709.8197187500045,
      "v": 100
    },
    {
      "midi": 48,
      "hit": false,
      "t": 68571.35999999999,
      "d": 1705.3554374999949,
      "v": 100
    },
    {
      "midi": 60,
      "hit": false,
      "t": 68571.35999999999,
      "d": 1705.3554374999949,
      "v": 100
    },
    {
      "midi": 75,
      "hit": false,
      "t": 68571.35999999999,
      "d": 1705.3554374999949,
      "v": 100
    },
    {
      "midi": 44,
      "hit": false,
      "t": 70285.64399999983,
      "d": 1709.8197187500045,
      "v": 100
    },
    {
      "midi": 44,
      "hit": false,
      "t": 70285.64399999999,
      "d": 1705.3554374999949,
      "v": 100
    },
    {
      "midi": 56,
      "hit": false,
      "t": 70285.64399999999,
      "d": 1705.3554374999949,
      "v": 100
    },
    {
      "midi": 80,
      "hit": false,
      "t": 70285.64399999999,
      "d": 1705.3554374999949,
      "v": 100
    },
    {
      "midi": 46,
      "hit": false,
      "t": 71999.92799999983,
      "d": 1709.8197187500045,
      "v": 100
    },
    {
      "midi": 46,
      "hit": false,
      "t": 71999.92799999999,
      "d": 1705.3554374999949,
      "v": 100
    },
    {
      "midi": 58,
      "hit": false,
      "t": 71999.92799999999,
      "d": 1705.3554374999949,
      "v": 100
    },
    {
      "midi": 77,
      "hit": false,
      "t": 71999.92799999999,
      "d": 1705.3554374999949,
      "v": 100
    },
    {
      "midi": 51,
      "hit": false,
      "t": 73714.21199999982,
      "d": 1709.8197187500045,
      "v": 100
    },
    {
      "midi": 51,
      "hit": false,
      "t": 73714.21199999998,
      "d": 1705.3554374999949,
      "v": 100
    },
    {
      "midi": 63,
      "hit": false,
      "t": 73714.21199999998,
      "d": 1705.3554374999949,
      "v": 100
    },
    {
      "midi": 79,
      "hit": false,
      "t": 73714.21199999998,
      "d": 1705.3554374999949,
      "v": 100
    },
    {
      "midi": 44,
      "hit": false,
      "t": 75428.49599999982,
      "d": 1709.8197187500045,
      "v": 100
    },
    {
      "midi": 44,
      "hit": false,
      "t": 75428.49599999998,
      "d": 1705.3554374999949,
      "v": 100
    },
    {
      "midi": 56,
      "hit": false,
      "t": 75428.49599999998,
      "d": 1705.3554374999949,
      "v": 100
    },
    {
      "midi": 75,
      "hit": false,
      "t": 75428.49599999998,
      "d": 1705.3554374999949,
      "v": 100
    },
    {
      "midi": 50,
      "hit": false,
      "t": 77142.77999999982,
      "d": 1709.8197187500045,
      "v": 100
    },
    {
      "midi": 50,
      "hit": false,
      "t": 77142.77999999998,
      "d": 1705.3554374999949,
      "v": 100
    },
    {
      "midi": 62,
      "hit": false,
      "t": 77142.77999999998,
      "d": 1705.3554374999949,
      "v": 100
    },
    {
      "midi": 77,
      "hit": false,
      "t": 77142.77999999998,
      "d": 1705.3554374999949,
      "v": 100
    },
    {
      "midi": 43,
      "hit": false,
      "t": 78857.06399999982,
      "d": 1709.8197187500045,
      "v": 100
    },
    {
      "midi": 43,
      "hit": false,
      "t": 78857.06399999998,
      "d": 1705.3554374999949,
      "v": 100
    },
    {
      "midi": 55,
      "hit": false,
      "t": 78857.06399999998,
      "d": 1705.3554374999949,
      "v": 100
    },
    {
      "midi": 79,
      "hit": false,
      "t": 78857.06399999998,
      "d": 3419.6394374999945,
      "v": 100
    },
    {
      "midi": 47,
      "hit": false,
      "t": 80571.34799999982,
      "d": 1709.8197187500045,
      "v": 100
    },
    {
      "midi": 47,
      "hit": false,
      "t": 80571.34799999998,
      "d": 1705.3554374999949,
      "v": 100
    },
    {
      "midi": 59,
      "hit": false,
      "t": 80571.34799999998,
      "d": 1705.3554374999949,
      "v": 100
    },
    {
      "midi": 48,
      "hit": false,
      "t": 82499.91749999982,
      "d": 102.67846875000396,
      "v": 100
    },
    {
      "midi": 48,
      "hit": false,
      "t": 82499.91750000001,
      "d": 98.2141874999943,
      "v": 100
    },
    {
      "midi": 48,
      "hit": false,
      "t": 82607.06024999982,
      "d": 102.67846875000396,
      "v": 100
    },
    {
      "midi": 63,
      "hit": false,
      "t": 82714.20300000001,
      "d": 98.2141874999943,
      "v": 100
    },
    {
      "midi": 48,
      "hit": false,
      "t": 82928.48849999982,
      "d": 102.67846875000396,
      "v": 100
    },
    {
      "midi": 48,
      "hit": false,
      "t": 82928.4885,
      "d": 98.2141874999943,
      "v": 100
    },
    {
      "midi": 48,
      "hit": false,
      "t": 83035.63124999982,
      "d": 102.67846875000396,
      "v": 100
    },
    {
      "midi": 48,
      "hit": false,
      "t": 83035.63125,
      "d": 98.2141874999943,
      "v": 100
    },
    {
      "midi": 48,
      "hit": false,
      "t": 83249.91675,
      "d": 98.2141874999943,
      "v": 100
    },
    {
      "midi": 48,
      "hit": false,
      "t": 83357.05949999981,
      "d": 102.67846875000396,
      "v": 100
    },
    {
      "midi": 48,
      "hit": false,
      "t": 83464.20224999981,
      "d": 102.67846875000396,
      "v": 100
    },
    {
      "midi": 48,
      "hit": false,
      "t": 83464.20225,
      "d": 98.2141874999943,
      "v": 100
    },
    {
      "midi": 63,
      "hit": false,
      "t": 83571.345,
      "d": 98.2141874999943,
      "v": 100
    },
    {
      "midi": 48,
      "hit": false,
      "t": 83785.63049999981,
      "d": 102.67846875000396,
      "v": 100
    },
    {
      "midi": 48,
      "hit": false,
      "t": 83785.6305,
      "d": 98.2141874999943,
      "v": 100
    },
    {
      "midi": 48,
      "hit": false,
      "t": 83892.77324999981,
      "d": 102.67846875000396,
      "v": 100
    },
    {
      "midi": 63,
      "hit": false,
      "t": 83892.77325,
      "d": 98.2141874999943,
      "v": 100
    },
    {
      "midi": 53,
      "hit": false,
      "t": 84214.2014999998,
      "d": 102.67846875000396,
      "v": 100
    },
    {
      "midi": 53,
      "hit": false,
      "t": 84214.2015,
      "d": 98.2141874999943,
      "v": 100
    },
    {
      "midi": 53,
      "hit": false,
      "t": 84321.3442499998,
      "d": 102.67846875000396,
      "v": 100
    },
    {
      "midi": 68,
      "hit": false,
      "t": 84428.487,
      "d": 98.2141874999943,
      "v": 100
    },
    {
      "midi": 53,
      "hit": false,
      "t": 84642.7724999998,
      "d": 102.67846875000396,
      "v": 100
    },
    {
      "midi": 53,
      "hit": false,
      "t": 84642.77249999999,
      "d": 98.2141874999943,
      "v": 100
    },
    {
      "midi": 53,
      "hit": false,
      "t": 84749.9152499998,
      "d": 102.67846875000396,
      "v": 100
    },
    {
      "midi": 53,
      "hit": false,
      "t": 84749.91524999999,
      "d": 98.2141874999943,
      "v": 100
    },
    {
      "midi": 53,
      "hit": false,
      "t": 84964.20074999999,
      "d": 98.2141874999943,
      "v": 100
    },
    {
      "midi": 53,
      "hit": false,
      "t": 85071.3434999998,
      "d": 102.67846875000396,
      "v": 100
    },
    {
      "midi": 53,
      "hit": false,
      "t": 85178.4862499998,
      "d": 102.67846875000396,
      "v": 100
    },
    {
      "midi": 53,
      "hit": false,
      "t": 85178.48624999999,
      "d": 98.2141874999943,
      "v": 100
    },
    {
      "midi": 68,
      "hit": false,
      "t": 85285.62899999999,
      "d": 98.2141874999943,
      "v": 100
    },
    {
      "midi": 53,
      "hit": false,
      "t": 85499.9144999998,
      "d": 102.67846875000396,
      "v": 100
    },
    {
      "midi": 53,
      "hit": false,
      "t": 85499.91449999998,
      "d": 98.2141874999943,
      "v": 100
    },
    {
      "midi": 53,
      "hit": false,
      "t": 85607.0572499998,
      "d": 102.67846875000396,
      "v": 100
    },
    {
      "midi": 68,
      "hit": false,
      "t": 85607.05724999998,
      "d": 98.2141874999943,
      "v": 100
    },
    {
      "midi": 51,
      "hit": false,
      "t": 85928.48549999979,
      "d": 102.67846875000396,
      "v": 100
    },
    {
      "midi": 51,
      "hit": false,
      "t": 85928.48549999998,
      "d": 98.2141874999943,
      "v": 100
    },
    {
      "midi": 51,
      "hit": false,
      "t": 86035.62824999979,
      "d": 102.67846875000396,
      "v": 100
    },
    {
      "midi": 67,
      "hit": false,
      "t": 86142.77099999998,
      "d": 98.2141874999943,
      "v": 100
    },
    {
      "midi": 51,
      "hit": false,
      "t": 86357.05649999979,
      "d": 102.67846875000396,
      "v": 100
    },
    {
      "midi": 51,
      "hit": false,
      "t": 86357.05649999998,
      "d": 98.2141874999943,
      "v": 100
    },
    {
      "midi": 51,
      "hit": false,
      "t": 86464.19924999979,
      "d": 102.67846875000396,
      "v": 100
    },
    {
      "midi": 51,
      "hit": false,
      "t": 86464.19924999998,
      "d": 98.2141874999943,
      "v": 100
    },
    {
      "midi": 51,
      "hit": false,
      "t": 86678.48474999997,
      "d": 98.2141874999943,
      "v": 100
    },
    {
      "midi": 51,
      "hit": false,
      "t": 86785.62749999978,
      "d": 102.67846875000396,
      "v": 100
    },
    {
      "midi": 51,
      "hit": false,
      "t": 86892.77024999978,
      "d": 102.67846875000396,
      "v": 100
    },
    {
      "midi": 51,
      "hit": false,
      "t": 86892.77024999997,
      "d": 98.2141874999943,
      "v": 100
    },
    {
      "midi": 67,
      "hit": false,
      "t": 86999.91299999997,
      "d": 98.2141874999943,
      "v": 100
    },
    {
      "midi": 51,
      "hit": false,
      "t": 87214.19849999978,
      "d": 102.67846875000396,
      "v": 100
    },
    {
      "midi": 51,
      "hit": false,
      "t": 87214.19849999997,
      "d": 98.2141874999943,
      "v": 100
    },
    {
      "midi": 51,
      "hit": false,
      "t": 87321.34124999978,
      "d": 102.67846875000396,
      "v": 100
    },
    {
      "midi": 67,
      "hit": false,
      "t": 87321.34124999997,
      "d": 98.2141874999943,
      "v": 100
    },
    {
      "midi": 47,
      "hit": false,
      "t": 87642.76949999978,
      "d": 102.67846875000396,
      "v": 100
    },
    {
      "midi": 47,
      "hit": false,
      "t": 87642.76949999997,
      "d": 98.2141874999943,
      "v": 100
    },
    {
      "midi": 47,
      "hit": false,
      "t": 87749.91224999978,
      "d": 102.67846875000396,
      "v": 100
    },
    {
      "midi": 67,
      "hit": false,
      "t": 87857.05499999996,
      "d": 98.2141874999943,
      "v": 100
    },
    {
      "midi": 47,
      "hit": false,
      "t": 88071.34049999977,
      "d": 102.67846875000396,
      "v": 100
    },
    {
      "midi": 47,
      "hit": false,
      "t": 88071.34049999996,
      "d": 98.2141874999943,
      "v": 100
    },
    {
      "midi": 47,
      "hit": false,
      "t": 88178.48324999977,
      "d": 102.67846875000396,
      "v": 100
    },
    {
      "midi": 47,
      "hit": false,
      "t": 88178.48324999996,
      "d": 98.2141874999943,
      "v": 100
    },
    {
      "midi": 47,
      "hit": false,
      "t": 88392.76874999996,
      "d": 98.2141874999943,
      "v": 100
    },
    {
      "midi": 47,
      "hit": false,
      "t": 88499.91149999977,
      "d": 102.67846875000396,
      "v": 100
    },
    {
      "midi": 47,
      "hit": false,
      "t": 88607.05424999977,
      "d": 102.67846875000396,
      "v": 100
    },
    {
      "midi": 47,
      "hit": false,
      "t": 88607.05424999996,
      "d": 98.2141874999943,
      "v": 100
    },
    {
      "midi": 67,
      "hit": false,
      "t": 88714.19699999996,
      "d": 98.2141874999943,
      "v": 100
    },
    {
      "midi": 47,
      "hit": false,
      "t": 88928.48249999977,
      "d": 102.67846875000396,
      "v": 100
    },
    {
      "midi": 47,
      "hit": false,
      "t": 88928.48249999995,
      "d": 98.2141874999943,
      "v": 100
    },
    {
      "midi": 47,
      "hit": false,
      "t": 89035.62524999976,
      "d": 102.67846875000396,
      "v": 100
    },
    {
      "midi": 67,
      "hit": false,
      "t": 89035.62524999995,
      "d": 98.2141874999943,
      "v": 100
    },
    {
      "midi": 44,
      "hit": false,
      "t": 89357.05349999976,
      "d": 102.67846875000396,
      "v": 100
    },
    {
      "midi": 44,
      "hit": false,
      "t": 89357.05349999995,
      "d": 98.2141874999943,
      "v": 100
    },
    {
      "midi": 44,
      "hit": false,
      "t": 89464.19624999976,
      "d": 102.67846875000396,
      "v": 100
    },
    {
      "midi": 63,
      "hit": false,
      "t": 89571.33899999995,
      "d": 98.2141874999943,
      "v": 100
    },
    {
      "midi": 44,
      "hit": false,
      "t": 89785.62449999976,
      "d": 102.67846875000396,
      "v": 100
    },
    {
      "midi": 44,
      "hit": false,
      "t": 89785.62449999995,
      "d": 98.2141874999943,
      "v": 100
    },
    {
      "midi": 44,
      "hit": false,
      "t": 89892.76724999976,
      "d": 102.67846875000396,
      "v": 100
    },
    {
      "midi": 44,
      "hit": false,
      "t": 89892.76724999995,
      "d": 98.2141874999943,
      "v": 100
    },
    {
      "midi": 44,
      "hit": false,
      "t": 90107.05274999994,
      "d": 98.2141874999943,
      "v": 100
    },
    {
      "midi": 44,
      "hit": false,
      "t": 90214.19549999975,
      "d": 102.67846875000396,
      "v": 100
    },
    {
      "midi": 44,
      "hit": false,
      "t": 90321.33824999975,
      "d": 102.67846875000396,
      "v": 100
    },
    {
      "midi": 44,
      "hit": false,
      "t": 90321.33824999994,
      "d": 98.2141874999943,
      "v": 100
    },
    {
      "midi": 63,
      "hit": false,
      "t": 90428.48099999994,
      "d": 98.2141874999943,
      "v": 100
    },
    {
      "midi": 44,
      "hit": false,
      "t": 90642.76649999975,
      "d": 102.67846875000396,
      "v": 100
    },
    {
      "midi": 44,
      "hit": false,
      "t": 90642.76649999994,
      "d": 98.2141874999943,
      "v": 100
    },
    {
      "midi": 44,
      "hit": false,
      "t": 90749.90924999975,
      "d": 102.67846875000396,
      "v": 100
    },
    {
      "midi": 63,
      "hit": false,
      "t": 90749.90924999994,
      "d": 98.2141874999943,
      "v": 100
    },
    {
      "midi": 41,
      "hit": false,
      "t": 91071.33749999975,
      "d": 102.67846875000396,
      "v": 100
    },
    {
      "midi": 41,
      "hit": false,
      "t": 91071.33749999994,
      "d": 98.2141874999943,
      "v": 100
    },
    {
      "midi": 41,
      "hit": false,
      "t": 91178.48024999975,
      "d": 102.67846875000396,
      "v": 100
    },
    {
      "midi": 65,
      "hit": false,
      "t": 91285.62299999993,
      "d": 98.2141874999943,
      "v": 100
    },
    {
      "midi": 41,
      "hit": false,
      "t": 91499.90849999974,
      "d": 102.67846875000396,
      "v": 100
    },
    {
      "midi": 41,
      "hit": false,
      "t": 91499.90849999993,
      "d": 98.2141874999943,
      "v": 100
    },
    {
      "midi": 41,
      "hit": false,
      "t": 91607.05124999974,
      "d": 102.67846875000396,
      "v": 100
    },
    {
      "midi": 41,
      "hit": false,
      "t": 91607.05124999993,
      "d": 98.2141874999943,
      "v": 100
    },
    {
      "midi": 41,
      "hit": false,
      "t": 91821.33674999993,
      "d": 98.2141874999943,
      "v": 100
    },
    {
      "midi": 41,
      "hit": false,
      "t": 91928.47949999974,
      "d": 102.67846875000396,
      "v": 100
    },
    {
      "midi": 41,
      "hit": false,
      "t": 92035.62224999974,
      "d": 102.67846875000396,
      "v": 100
    },
    {
      "midi": 41,
      "hit": false,
      "t": 92035.62224999993,
      "d": 98.2141874999943,
      "v": 100
    },
    {
      "midi": 65,
      "hit": false,
      "t": 92142.76499999993,
      "d": 98.2141874999943,
      "v": 100
    },
    {
      "midi": 41,
      "hit": false,
      "t": 92357.05049999974,
      "d": 102.67846875000396,
      "v": 100
    },
    {
      "midi": 41,
      "hit": false,
      "t": 92357.05049999992,
      "d": 98.2141874999943,
      "v": 100
    },
    {
      "midi": 41,
      "hit": false,
      "t": 92464.19324999973,
      "d": 102.67846875000396,
      "v": 100
    },
    {
      "midi": 65,
      "hit": false,
      "t": 92464.19324999992,
      "d": 98.2141874999943,
      "v": 100
    },
    {
      "midi": 43,
      "hit": false,
      "t": 92785.62149999973,
      "d": 102.67846875000396,
      "v": 100
    },
    {
      "midi": 43,
      "hit": false,
      "t": 92785.62149999992,
      "d": 98.2141874999943,
      "v": 100
    },
    {
      "midi": 43,
      "hit": false,
      "t": 92892.76424999973,
      "d": 102.67846875000396,
      "v": 100
    },
    {
      "midi": 62,
      "hit": false,
      "t": 92999.90699999992,
      "d": 98.2141874999943,
      "v": 100
    },
    {
      "midi": 43,
      "hit": false,
      "t": 93214.19249999973,
      "d": 102.67846875000396,
      "v": 100
    },
    {
      "midi": 43,
      "hit": false,
      "t": 93214.19249999992,
      "d": 98.2141874999943,
      "v": 100
    },
    {
      "midi": 43,
      "hit": false,
      "t": 93321.33524999973,
      "d": 102.67846875000396,
      "v": 100
    },
    {
      "midi": 43,
      "hit": false,
      "t": 93321.33524999992,
      "d": 98.2141874999943,
      "v": 100
    },
    {
      "midi": 43,
      "hit": false,
      "t": 93535.62074999991,
      "d": 98.2141874999943,
      "v": 100
    },
    {
      "midi": 43,
      "hit": false,
      "t": 93642.76349999972,
      "d": 102.67846875000396,
      "v": 100
    },
    {
      "midi": 43,
      "hit": false,
      "t": 93749.90624999972,
      "d": 102.67846875000396,
      "v": 100
    },
    {
      "midi": 43,
      "hit": false,
      "t": 93749.90624999991,
      "d": 98.2141874999943,
      "v": 100
    },
    {
      "midi": 62,
      "hit": false,
      "t": 93857.04899999991,
      "d": 98.2141874999943,
      "v": 100
    },
    {
      "midi": 43,
      "hit": false,
      "t": 94071.33449999972,
      "d": 102.67846875000396,
      "v": 100
    },
    {
      "midi": 43,
      "hit": false,
      "t": 94071.33449999991,
      "d": 98.2141874999943,
      "v": 100
    },
    {
      "midi": 43,
      "hit": false,
      "t": 94178.47724999972,
      "d": 102.67846875000396,
      "v": 100
    },
    {
      "midi": 62,
      "hit": false,
      "t": 94178.47724999991,
      "d": 98.2141874999943,
      "v": 100
    },
    {
      "midi": 47,
      "hit": false,
      "t": 94499.90549999972,
      "d": 102.67846875000396,
      "v": 100
    },
    {
      "midi": 47,
      "hit": false,
      "t": 94499.9054999999,
      "d": 98.2141874999943,
      "v": 100
    },
    {
      "midi": 47,
      "hit": false,
      "t": 94607.04824999972,
      "d": 102.67846875000396,
      "v": 100
    },
    {
      "midi": 62,
      "hit": false,
      "t": 94714.1909999999,
      "d": 98.2141874999943,
      "v": 100
    },
    {
      "midi": 47,
      "hit": false,
      "t": 94928.47649999971,
      "d": 102.67846875000396,
      "v": 100
    },
    {
      "midi": 47,
      "hit": false,
      "t": 94928.4764999999,
      "d": 98.2141874999943,
      "v": 100
    },
    {
      "midi": 47,
      "hit": false,
      "t": 95035.61924999971,
      "d": 102.67846875000396,
      "v": 100
    },
    {
      "midi": 47,
      "hit": false,
      "t": 95035.6192499999,
      "d": 98.2141874999943,
      "v": 100
    },
    {
      "midi": 47,
      "hit": false,
      "t": 95249.9047499999,
      "d": 98.2141874999943,
      "v": 100
    },
    {
      "midi": 47,
      "hit": false,
      "t": 95357.04749999971,
      "d": 102.67846875000396,
      "v": 100
    },
    {
      "midi": 47,
      "hit": false,
      "t": 95464.19024999971,
      "d": 102.67846875000396,
      "v": 100
    },
    {
      "midi": 47,
      "hit": false,
      "t": 95464.1902499999,
      "d": 98.2141874999943,
      "v": 100
    },
    {
      "midi": 62,
      "hit": false,
      "t": 95571.3329999999,
      "d": 98.2141874999943,
      "v": 100
    },
    {
      "midi": 47,
      "hit": false,
      "t": 95785.6184999997,
      "d": 102.67846875000396,
      "v": 100
    },
    {
      "midi": 47,
      "hit": false,
      "t": 95785.6184999999,
      "d": 98.2141874999943,
      "v": 100
    },
    {
      "midi": 47,
      "hit": false,
      "t": 95892.7612499997,
      "d": 102.67846875000396,
      "v": 100
    },
    {
      "midi": 62,
      "hit": false,
      "t": 95892.7612499999,
      "d": 98.2141874999943,
      "v": 100
    },
    {
      "midi": 48,
      "hit": false,
      "t": 96214.1894999997,
      "d": 102.67846875000396,
      "v": 100
    },
    {
      "midi": 48,
      "hit": false,
      "t": 96214.18949999989,
      "d": 98.2141874999943,
      "v": 100
    },
    {
      "midi": 48,
      "hit": false,
      "t": 96321.3322499997,
      "d": 102.67846875000396,
      "v": 100
    },
    {
      "midi": 63,
      "hit": false,
      "t": 96428.47499999989,
      "d": 98.2141874999943,
      "v": 100
    },
    {
      "midi": 48,
      "hit": false,
      "t": 96642.7604999997,
      "d": 102.67846875000396,
      "v": 100
    },
    {
      "midi": 48,
      "hit": false,
      "t": 96642.76049999989,
      "d": 98.2141874999943,
      "v": 100
    },
    {
      "midi": 48,
      "hit": false,
      "t": 96749.9032499997,
      "d": 102.67846875000396,
      "v": 100
    },
    {
      "midi": 48,
      "hit": false,
      "t": 96749.90324999989,
      "d": 98.2141874999943,
      "v": 100
    },
    {
      "midi": 48,
      "hit": false,
      "t": 96964.18874999988,
      "d": 98.2141874999943,
      "v": 100
    },
    {
      "midi": 48,
      "hit": false,
      "t": 97071.3314999997,
      "d": 102.67846875000396,
      "v": 100
    },
    {
      "midi": 48,
      "hit": false,
      "t": 97178.4742499997,
      "d": 102.67846875000396,
      "v": 100
    },
    {
      "midi": 48,
      "hit": false,
      "t": 97178.47424999988,
      "d": 98.2141874999943,
      "v": 100
    },
    {
      "midi": 63,
      "hit": false,
      "t": 97285.61699999988,
      "d": 98.2141874999943,
      "v": 100
    },
    {
      "midi": 48,
      "hit": false,
      "t": 97499.90249999969,
      "d": 102.67846875000396,
      "v": 100
    },
    {
      "midi": 48,
      "hit": false,
      "t": 97499.90249999988,
      "d": 98.2141874999943,
      "v": 100
    },
    {
      "midi": 48,
      "hit": false,
      "t": 97607.04524999969,
      "d": 102.67846875000396,
      "v": 100
    },
    {
      "midi": 63,
      "hit": false,
      "t": 97607.04524999988,
      "d": 98.2141874999943,
      "v": 100
    },
    {
      "midi": 44,
      "hit": false,
      "t": 97928.47349999969,
      "d": 102.67846875000396,
      "v": 100
    },
    {
      "midi": 44,
      "hit": false,
      "t": 97928.47349999988,
      "d": 98.2141874999943,
      "v": 100
    },
    {
      "midi": 44,
      "hit": false,
      "t": 98035.61624999969,
      "d": 102.67846875000396,
      "v": 100
    },
    {
      "midi": 68,
      "hit": false,
      "t": 98142.75899999987,
      "d": 98.2141874999943,
      "v": 100
    },
    {
      "midi": 44,
      "hit": false,
      "t": 98357.04449999968,
      "d": 102.67846875000396,
      "v": 100
    },
    {
      "midi": 44,
      "hit": false,
      "t": 98357.04449999987,
      "d": 98.2141874999943,
      "v": 100
    },
    {
      "midi": 44,
      "hit": false,
      "t": 98464.18724999968,
      "d": 102.67846875000396,
      "v": 100
    },
    {
      "midi": 44,
      "hit": false,
      "t": 98464.18724999987,
      "d": 98.2141874999943,
      "v": 100
    },
    {
      "midi": 44,
      "hit": false,
      "t": 98678.47274999987,
      "d": 98.2141874999943,
      "v": 100
    },
    {
      "midi": 44,
      "hit": false,
      "t": 98785.61549999968,
      "d": 102.67846875000396,
      "v": 100
    },
    {
      "midi": 44,
      "hit": false,
      "t": 98892.75824999968,
      "d": 102.67846875000396,
      "v": 100
    },
    {
      "midi": 44,
      "hit": false,
      "t": 98892.75824999987,
      "d": 98.2141874999943,
      "v": 100
    },
    {
      "midi": 68,
      "hit": false,
      "t": 98999.90099999987,
      "d": 98.2141874999943,
      "v": 100
    },
    {
      "midi": 44,
      "hit": false,
      "t": 99214.18649999968,
      "d": 102.67846875000396,
      "v": 100
    },
    {
      "midi": 44,
      "hit": false,
      "t": 99214.18649999987,
      "d": 98.2141874999943,
      "v": 100
    },
    {
      "midi": 44,
      "hit": false,
      "t": 99321.32924999968,
      "d": 102.67846875000396,
      "v": 100
    },
    {
      "midi": 68,
      "hit": false,
      "t": 99321.32924999986,
      "d": 98.2141874999943,
      "v": 100
    },
    {
      "midi": 46,
      "hit": false,
      "t": 99642.75749999967,
      "d": 102.67846875000396,
      "v": 100
    },
    {
      "midi": 46,
      "hit": false,
      "t": 99642.75749999986,
      "d": 98.2141874999943,
      "v": 100
    },
    {
      "midi": 46,
      "hit": false,
      "t": 99749.90024999967,
      "d": 102.67846875000396,
      "v": 100
    },
    {
      "midi": 65,
      "hit": false,
      "t": 99857.04299999986,
      "d": 98.2141874999943,
      "v": 100
    },
    {
      "midi": 46,
      "hit": false,
      "t": 100071.32849999967,
      "d": 102.67846875000396,
      "v": 100
    },
    {
      "midi": 46,
      "hit": false,
      "t": 100071.32849999986,
      "d": 98.2141874999943,
      "v": 100
    },
    {
      "midi": 46,
      "hit": false,
      "t": 100178.47124999967,
      "d": 102.67846875000396,
      "v": 100
    },
    {
      "midi": 46,
      "hit": false,
      "t": 100178.47124999986,
      "d": 98.2141874999943,
      "v": 100
    },
    {
      "midi": 46,
      "hit": false,
      "t": 100392.75674999985,
      "d": 98.2141874999943,
      "v": 100
    },
    {
      "midi": 46,
      "hit": false,
      "t": 100499.89949999966,
      "d": 102.67846875000396,
      "v": 100
    },
    {
      "midi": 46,
      "hit": false,
      "t": 100607.04224999966,
      "d": 102.67846875000396,
      "v": 100
    },
    {
      "midi": 46,
      "hit": false,
      "t": 100607.04224999985,
      "d": 98.2141874999943,
      "v": 100
    },
    {
      "midi": 65,
      "hit": false,
      "t": 100714.18499999985,
      "d": 98.2141874999943,
      "v": 100
    },
    {
      "midi": 46,
      "hit": false,
      "t": 100928.47049999966,
      "d": 102.67846875000396,
      "v": 100
    },
    {
      "midi": 46,
      "hit": false,
      "t": 100928.47049999985,
      "d": 98.2141874999943,
      "v": 100
    },
    {
      "midi": 46,
      "hit": false,
      "t": 101035.61324999966,
      "d": 102.67846875000396,
      "v": 100
    },
    {
      "midi": 65,
      "hit": false,
      "t": 101035.61324999985,
      "d": 98.2141874999943,
      "v": 100
    },
    {
      "midi": 51,
      "hit": false,
      "t": 101357.04149999966,
      "d": 102.67846875000396,
      "v": 100
    },
    {
      "midi": 51,
      "hit": false,
      "t": 101357.04149999985,
      "d": 98.2141874999943,
      "v": 100
    },
    {
      "midi": 51,
      "hit": false,
      "t": 101464.18424999966,
      "d": 102.67846875000396,
      "v": 100
    },
    {
      "midi": 67,
      "hit": false,
      "t": 101571.32699999984,
      "d": 98.2141874999943,
      "v": 100
    },
    {
      "midi": 51,
      "hit": false,
      "t": 101785.61249999965,
      "d": 102.67846875000396,
      "v": 100
    },
    {
      "midi": 51,
      "hit": false,
      "t": 101785.61249999984,
      "d": 98.2141874999943,
      "v": 100
    },
    {
      "midi": 51,
      "hit": false,
      "t": 101892.75524999965,
      "d": 102.67846875000396,
      "v": 100
    },
    {
      "midi": 51,
      "hit": false,
      "t": 101892.75524999984,
      "d": 98.2141874999943,
      "v": 100
    },
    {
      "midi": 51,
      "hit": false,
      "t": 102107.04074999984,
      "d": 98.2141874999943,
      "v": 100
    },
    {
      "midi": 51,
      "hit": false,
      "t": 102214.18349999965,
      "d": 102.67846875000396,
      "v": 100
    },
    {
      "midi": 51,
      "hit": false,
      "t": 102321.32624999965,
      "d": 102.67846875000396,
      "v": 100
    },
    {
      "midi": 51,
      "hit": false,
      "t": 102321.32624999984,
      "d": 98.2141874999943,
      "v": 100
    },
    {
      "midi": 67,
      "hit": false,
      "t": 102428.46899999984,
      "d": 98.2141874999943,
      "v": 100
    },
    {
      "midi": 51,
      "hit": false,
      "t": 102642.75449999965,
      "d": 102.67846875000396,
      "v": 100
    },
    {
      "midi": 51,
      "hit": false,
      "t": 102642.75449999984,
      "d": 98.2141874999943,
      "v": 100
    },
    {
      "midi": 51,
      "hit": false,
      "t": 102749.89724999965,
      "d": 102.67846875000396,
      "v": 100
    },
    {
      "midi": 67,
      "hit": false,
      "t": 102749.89724999983,
      "d": 98.2141874999943,
      "v": 100
    },
    {
      "midi": 44,
      "hit": false,
      "t": 103071.32549999964,
      "d": 102.67846875000396,
      "v": 100
    },
    {
      "midi": 44,
      "hit": false,
      "t": 103071.32549999983,
      "d": 98.2141874999943,
      "v": 100
    },
    {
      "midi": 44,
      "hit": false,
      "t": 103178.46824999964,
      "d": 102.67846875000396,
      "v": 100
    },
    {
      "midi": 63,
      "hit": false,
      "t": 103285.61099999983,
      "d": 98.2141874999943,
      "v": 100
    },
    {
      "midi": 44,
      "hit": false,
      "t": 103499.89649999964,
      "d": 102.67846875000396,
      "v": 100
    },
    {
      "midi": 44,
      "hit": false,
      "t": 103499.89649999983,
      "d": 98.2141874999943,
      "v": 100
    },
    {
      "midi": 44,
      "hit": false,
      "t": 103607.03924999964,
      "d": 102.67846875000396,
      "v": 100
    },
    {
      "midi": 44,
      "hit": false,
      "t": 103607.03924999983,
      "d": 98.2141874999943,
      "v": 100
    },
    {
      "midi": 44,
      "hit": false,
      "t": 103821.32474999983,
      "d": 98.2141874999943,
      "v": 100
    },
    {
      "midi": 44,
      "hit": false,
      "t": 103928.46749999964,
      "d": 102.67846875000396,
      "v": 100
    },
    {
      "midi": 44,
      "hit": false,
      "t": 104035.61024999963,
      "d": 102.67846875000396,
      "v": 100
    },
    {
      "midi": 44,
      "hit": false,
      "t": 104035.61024999982,
      "d": 98.2141874999943,
      "v": 100
    },
    {
      "midi": 63,
      "hit": false,
      "t": 104142.75299999982,
      "d": 98.2141874999943,
      "v": 100
    },
    {
      "midi": 44,
      "hit": false,
      "t": 104357.03849999963,
      "d": 102.67846875000396,
      "v": 100
    },
    {
      "midi": 44,
      "hit": false,
      "t": 104357.03849999982,
      "d": 98.2141874999943,
      "v": 100
    },
    {
      "midi": 44,
      "hit": false,
      "t": 104464.18124999963,
      "d": 102.67846875000396,
      "v": 100
    },
    {
      "midi": 63,
      "hit": false,
      "t": 104464.18124999982,
      "d": 98.2141874999943,
      "v": 100
    },
    {
      "midi": 50,
      "hit": false,
      "t": 104785.60949999963,
      "d": 102.67846875000396,
      "v": 100
    },
    {
      "midi": 50,
      "hit": false,
      "t": 104785.60949999982,
      "d": 98.2141874999943,
      "v": 100
    },
    {
      "midi": 50,
      "hit": false,
      "t": 104892.75224999963,
      "d": 102.67846875000396,
      "v": 100
    },
    {
      "midi": 65,
      "hit": false,
      "t": 104999.89499999981,
      "d": 98.2141874999943,
      "v": 100
    },
    {
      "midi": 50,
      "hit": false,
      "t": 105214.18049999962,
      "d": 102.67846875000396,
      "v": 100
    },
    {
      "midi": 50,
      "hit": false,
      "t": 105214.18049999981,
      "d": 98.2141874999943,
      "v": 100
    },
    {
      "midi": 50,
      "hit": false,
      "t": 105321.32324999962,
      "d": 102.67846875000396,
      "v": 100
    },
    {
      "midi": 50,
      "hit": false,
      "t": 105321.32324999981,
      "d": 98.2141874999943,
      "v": 100
    },
    {
      "midi": 50,
      "hit": false,
      "t": 105535.60874999981,
      "d": 98.2141874999943,
      "v": 100
    },
    {
      "midi": 50,
      "hit": false,
      "t": 105642.75149999962,
      "d": 102.67846875000396,
      "v": 100
    },
    {
      "midi": 50,
      "hit": false,
      "t": 105749.89424999962,
      "d": 102.67846875000396,
      "v": 100
    },
    {
      "midi": 50,
      "hit": false,
      "t": 105749.89424999981,
      "d": 98.2141874999943,
      "v": 100
    },
    {
      "midi": 65,
      "hit": false,
      "t": 105857.03699999981,
      "d": 98.2141874999943,
      "v": 100
    },
    {
      "midi": 50,
      "hit": false,
      "t": 106071.32249999962,
      "d": 102.67846875000396,
      "v": 100
    },
    {
      "midi": 50,
      "hit": false,
      "t": 106071.3224999998,
      "d": 98.2141874999943,
      "v": 100
    },
    {
      "midi": 50,
      "hit": false,
      "t": 106178.46524999962,
      "d": 102.67846875000396,
      "v": 100
    },
    {
      "midi": 65,
      "hit": false,
      "t": 106178.4652499998,
      "d": 98.2141874999943,
      "v": 100
    },
    {
      "midi": 43,
      "hit": false,
      "t": 106499.89349999961,
      "d": 102.67846875000396,
      "v": 100
    },
    {
      "midi": 43,
      "hit": false,
      "t": 106499.8934999998,
      "d": 98.2141874999943,
      "v": 100
    },
    {
      "midi": 43,
      "hit": false,
      "t": 106607.03624999961,
      "d": 102.67846875000396,
      "v": 100
    },
    {
      "midi": 67,
      "hit": false,
      "t": 106714.1789999998,
      "d": 98.2141874999943,
      "v": 100
    },
    {
      "midi": 43,
      "hit": false,
      "t": 106928.46449999961,
      "d": 102.67846875000396,
      "v": 100
    },
    {
      "midi": 43,
      "hit": false,
      "t": 106928.4644999998,
      "d": 98.2141874999943,
      "v": 100
    },
    {
      "midi": 43,
      "hit": false,
      "t": 107035.60724999961,
      "d": 102.67846875000396,
      "v": 100
    },
    {
      "midi": 43,
      "hit": false,
      "t": 107035.6072499998,
      "d": 98.2141874999943,
      "v": 100
    },
    {
      "midi": 43,
      "hit": false,
      "t": 107249.8927499998,
      "d": 98.2141874999943,
      "v": 100
    },
    {
      "midi": 43,
      "hit": false,
      "t": 107357.0354999996,
      "d": 102.67846875000396,
      "v": 100
    },
    {
      "midi": 43,
      "hit": false,
      "t": 107464.1782499996,
      "d": 102.67846875000396,
      "v": 100
    },
    {
      "midi": 43,
      "hit": false,
      "t": 107464.1782499998,
      "d": 98.2141874999943,
      "v": 100
    },
    {
      "midi": 67,
      "hit": false,
      "t": 107571.32099999979,
      "d": 98.2141874999943,
      "v": 100
    },
    {
      "midi": 43,
      "hit": false,
      "t": 107785.6064999996,
      "d": 102.67846875000396,
      "v": 100
    },
    {
      "midi": 43,
      "hit": false,
      "t": 107785.60649999979,
      "d": 98.2141874999943,
      "v": 100
    },
    {
      "midi": 43,
      "hit": false,
      "t": 107892.7492499996,
      "d": 102.67846875000396,
      "v": 100
    },
    {
      "midi": 67,
      "hit": false,
      "t": 107892.74924999979,
      "d": 98.2141874999943,
      "v": 100
    },
    {
      "midi": 47,
      "hit": false,
      "t": 108214.1774999996,
      "d": 102.67846875000396,
      "v": 100
    },
    {
      "midi": 47,
      "hit": false,
      "t": 108214.17749999979,
      "d": 98.2141874999943,
      "v": 100
    },
    {
      "midi": 47,
      "hit": false,
      "t": 108321.3202499996,
      "d": 102.67846875000396,
      "v": 100
    },
    {
      "midi": 67,
      "hit": false,
      "t": 108428.46299999979,
      "d": 98.2141874999943,
      "v": 100
    },
    {
      "midi": 47,
      "hit": false,
      "t": 108642.7484999996,
      "d": 102.67846875000396,
      "v": 100
    },
    {
      "midi": 47,
      "hit": false,
      "t": 108642.74849999978,
      "d": 98.2141874999943,
      "v": 100
    },
    {
      "midi": 47,
      "hit": false,
      "t": 108749.8912499996,
      "d": 102.67846875000396,
      "v": 100
    },
    {
      "midi": 47,
      "hit": false,
      "t": 108749.89124999978,
      "d": 98.2141874999943,
      "v": 100
    },
    {
      "midi": 47,
      "hit": false,
      "t": 108964.17674999978,
      "d": 98.2141874999943,
      "v": 100
    },
    {
      "midi": 47,
      "hit": false,
      "t": 109071.31949999959,
      "d": 102.67846875000396,
      "v": 100
    },
    {
      "midi": 47,
      "hit": false,
      "t": 109178.46224999959,
      "d": 102.67846875000396,
      "v": 100
    },
    {
      "midi": 47,
      "hit": false,
      "t": 109178.46224999978,
      "d": 98.2141874999943,
      "v": 100
    },
    {
      "midi": 67,
      "hit": false,
      "t": 109285.60499999978,
      "d": 98.2141874999943,
      "v": 100
    },
    {
      "midi": 47,
      "hit": false,
      "t": 109499.89049999959,
      "d": 102.67846875000396,
      "v": 100
    },
    {
      "midi": 47,
      "hit": false,
      "t": 109499.89049999978,
      "d": 98.2141874999943,
      "v": 100
    },
    {
      "midi": 47,
      "hit": false,
      "t": 109607.03324999959,
      "d": 102.67846875000396,
      "v": 100
    },
    {
      "midi": 67,
      "hit": false,
      "t": 109607.03324999977,
      "d": 98.2141874999943,
      "v": 100
    },
    {
      "midi": 48,
      "hit": false,
      "t": 109714.176,
      "d": 98.2141874999943,
      "v": 100
    },
    {
      "midi": 63,
      "hit": false,
      "t": 109714.176,
      "d": 98.2141874999943,
      "v": 100
    },
    {
      "midi": 48,
      "hit": false,
      "t": 109821.31875,
      "d": 98.2141874999943,
      "v": 100
    },
    {
      "midi": 63,
      "hit": false,
      "t": 109821.31875,
      "d": 98.2141874999943,
      "v": 100
    },
    {
      "midi": 48,
      "hit": false,
      "t": 109928.46149999958,
      "d": 102.67846875000396,
      "v": 100
    },
    {
      "midi": 48,
      "hit": false,
      "t": 110035.60424999958,
      "d": 102.67846875000396,
      "v": 100
    },
    {
      "midi": 48,
      "hit": false,
      "t": 110035.60425,
      "d": 98.2141874999943,
      "v": 100
    },
    {
      "midi": 63,
      "hit": false,
      "t": 110035.60425,
      "d": 98.2141874999943,
      "v": 100
    },
    {
      "midi": 48,
      "hit": false,
      "t": 110357.03249999958,
      "d": 102.67846875000396,
      "v": 100
    },
    {
      "midi": 48,
      "hit": false,
      "t": 110357.0325,
      "d": 98.2141874999943,
      "v": 100
    },
    {
      "midi": 63,
      "hit": false,
      "t": 110357.0325,
      "d": 98.2141874999943,
      "v": 100
    },
    {
      "midi": 48,
      "hit": false,
      "t": 110464.17524999958,
      "d": 102.67846875000396,
      "v": 100
    },
    {
      "midi": 48,
      "hit": false,
      "t": 110571.318,
      "d": 98.2141874999943,
      "v": 100
    },
    {
      "midi": 63,
      "hit": false,
      "t": 110571.318,
      "d": 98.2141874999943,
      "v": 100
    },
    {
      "midi": 48,
      "hit": false,
      "t": 110678.46075,
      "d": 98.2141874999943,
      "v": 100
    },
    {
      "midi": 63,
      "hit": false,
      "t": 110678.46075,
      "d": 98.2141874999943,
      "v": 100
    },
    {
      "midi": 48,
      "hit": false,
      "t": 110785.60349999958,
      "d": 102.67846875000396,
      "v": 100
    },
    {
      "midi": 48,
      "hit": false,
      "t": 110892.74624999957,
      "d": 102.67846875000396,
      "v": 100
    },
    {
      "midi": 48,
      "hit": false,
      "t": 110892.74625,
      "d": 98.2141874999943,
      "v": 100
    },
    {
      "midi": 63,
      "hit": false,
      "t": 110892.74625,
      "d": 98.2141874999943,
      "v": 100
    },
    {
      "midi": 48,
      "hit": false,
      "t": 111214.17449999957,
      "d": 102.67846875000396,
      "v": 100
    },
    {
      "midi": 48,
      "hit": false,
      "t": 111214.1745,
      "d": 98.2141874999943,
      "v": 100
    },
    {
      "midi": 63,
      "hit": false,
      "t": 111214.1745,
      "d": 98.2141874999943,
      "v": 100
    },
    {
      "midi": 48,
      "hit": false,
      "t": 111321.31724999957,
      "d": 102.67846875000396,
      "v": 100
    },
    {
      "midi": 53,
      "hit": false,
      "t": 111428.45999999999,
      "d": 98.2141874999943,
      "v": 100
    },
    {
      "midi": 68,
      "hit": false,
      "t": 111428.45999999999,
      "d": 98.2141874999943,
      "v": 100
    },
    {
      "midi": 53,
      "hit": false,
      "t": 111535.60274999999,
      "d": 98.2141874999943,
      "v": 100
    },
    {
      "midi": 68,
      "hit": false,
      "t": 111535.60274999999,
      "d": 98.2141874999943,
      "v": 100
    },
    {
      "midi": 53,
      "hit": false,
      "t": 111642.74549999957,
      "d": 102.67846875000396,
      "v": 100
    },
    {
      "midi": 53,
      "hit": false,
      "t": 111749.88824999957,
      "d": 102.67846875000396,
      "v": 100
    },
    {
      "midi": 53,
      "hit": false,
      "t": 111749.88824999999,
      "d": 98.2141874999943,
      "v": 100
    },
    {
      "midi": 68,
      "hit": false,
      "t": 111749.88824999999,
      "d": 98.2141874999943,
      "v": 100
    },
    {
      "midi": 53,
      "hit": false,
      "t": 112071.31649999956,
      "d": 102.67846875000396,
      "v": 100
    },
    {
      "midi": 53,
      "hit": false,
      "t": 112071.31649999999,
      "d": 98.2141874999943,
      "v": 100
    },
    {
      "midi": 68,
      "hit": false,
      "t": 112071.31649999999,
      "d": 98.2141874999943,
      "v": 100
    },
    {
      "midi": 53,
      "hit": false,
      "t": 112178.45924999956,
      "d": 102.67846875000396,
      "v": 100
    },
    {
      "midi": 53,
      "hit": false,
      "t": 112285.60199999998,
      "d": 98.2141874999943,
      "v": 100
    },
    {
      "midi": 68,
      "hit": false,
      "t": 112285.60199999998,
      "d": 98.2141874999943,
      "v": 100
    },
    {
      "midi": 53,
      "hit": false,
      "t": 112392.74474999998,
      "d": 98.2141874999943,
      "v": 100
    },
    {
      "midi": 68,
      "hit": false,
      "t": 112392.74474999998,
      "d": 98.2141874999943,
      "v": 100
    },
    {
      "midi": 53,
      "hit": false,
      "t": 112499.88749999956,
      "d": 102.67846875000396,
      "v": 100
    },
    {
      "midi": 53,
      "hit": false,
      "t": 112607.03024999956,
      "d": 102.67846875000396,
      "v": 100
    },
    {
      "midi": 53,
      "hit": false,
      "t": 112607.03024999998,
      "d": 98.2141874999943,
      "v": 100
    },
    {
      "midi": 68,
      "hit": false,
      "t": 112607.03024999998,
      "d": 98.2141874999943,
      "v": 100
    },
    {
      "midi": 53,
      "hit": false,
      "t": 112928.45849999956,
      "d": 102.67846875000396,
      "v": 100
    },
    {
      "midi": 53,
      "hit": false,
      "t": 112928.45849999998,
      "d": 98.2141874999943,
      "v": 100
    },
    {
      "midi": 68,
      "hit": false,
      "t": 112928.45849999998,
      "d": 98.2141874999943,
      "v": 100
    },
    {
      "midi": 53,
      "hit": false,
      "t": 113035.60124999956,
      "d": 102.67846875000396,
      "v": 100
    },
    {
      "midi": 51,
      "hit": false,
      "t": 113142.74399999998,
      "d": 98.2141874999943,
      "v": 100
    },
    {
      "midi": 67,
      "hit": false,
      "t": 113142.74399999998,
      "d": 98.2141874999943,
      "v": 100
    },
    {
      "midi": 51,
      "hit": false,
      "t": 113249.88674999998,
      "d": 98.2141874999943,
      "v": 100
    },
    {
      "midi": 67,
      "hit": false,
      "t": 113249.88674999998,
      "d": 98.2141874999943,
      "v": 100
    },
    {
      "midi": 51,
      "hit": false,
      "t": 113357.02949999955,
      "d": 102.67846875000396,
      "v": 100
    },
    {
      "midi": 51,
      "hit": false,
      "t": 113464.17224999955,
      "d": 102.67846875000396,
      "v": 100
    },
    {
      "midi": 51,
      "hit": false,
      "t": 113464.17224999997,
      "d": 98.2141874999943,
      "v": 100
    },
    {
      "midi": 67,
      "hit": false,
      "t": 113464.17224999997,
      "d": 98.2141874999943,
      "v": 100
    },
    {
      "midi": 51,
      "hit": false,
      "t": 113785.60049999955,
      "d": 102.67846875000396,
      "v": 100
    },
    {
      "midi": 51,
      "hit": false,
      "t": 113785.60049999997,
      "d": 98.2141874999943,
      "v": 100
    },
    {
      "midi": 67,
      "hit": false,
      "t": 113785.60049999997,
      "d": 98.2141874999943,
      "v": 100
    },
    {
      "midi": 51,
      "hit": false,
      "t": 113892.74324999955,
      "d": 102.67846875000396,
      "v": 100
    },
    {
      "midi": 51,
      "hit": false,
      "t": 113999.88599999997,
      "d": 98.2141874999943,
      "v": 100
    },
    {
      "midi": 67,
      "hit": false,
      "t": 113999.88599999997,
      "d": 98.2141874999943,
      "v": 100
    },
    {
      "midi": 51,
      "hit": false,
      "t": 114107.02874999997,
      "d": 98.2141874999943,
      "v": 100
    },
    {
      "midi": 67,
      "hit": false,
      "t": 114107.02874999997,
      "d": 98.2141874999943,
      "v": 100
    },
    {
      "midi": 51,
      "hit": false,
      "t": 114214.17149999955,
      "d": 102.67846875000396,
      "v": 100
    },
    {
      "midi": 51,
      "hit": false,
      "t": 114321.31424999954,
      "d": 102.67846875000396,
      "v": 100
    },
    {
      "midi": 51,
      "hit": false,
      "t": 114321.31424999997,
      "d": 98.2141874999943,
      "v": 100
    },
    {
      "midi": 67,
      "hit": false,
      "t": 114321.31424999997,
      "d": 98.2141874999943,
      "v": 100
    },
    {
      "midi": 51,
      "hit": false,
      "t": 114642.74249999954,
      "d": 102.67846875000396,
      "v": 100
    },
    {
      "midi": 51,
      "hit": false,
      "t": 114642.74249999996,
      "d": 98.2141874999943,
      "v": 100
    },
    {
      "midi": 67,
      "hit": false,
      "t": 114642.74249999996,
      "d": 98.2141874999943,
      "v": 100
    },
    {
      "midi": 51,
      "hit": false,
      "t": 114749.88524999954,
      "d": 102.67846875000396,
      "v": 100
    },
    {
      "midi": 47,
      "hit": false,
      "t": 114857.02799999996,
      "d": 98.2141874999943,
      "v": 100
    },
    {
      "midi": 67,
      "hit": false,
      "t": 114857.02799999996,
      "d": 98.2141874999943,
      "v": 100
    },
    {
      "midi": 47,
      "hit": false,
      "t": 114964.17074999996,
      "d": 98.2141874999943,
      "v": 100
    },
    {
      "midi": 67,
      "hit": false,
      "t": 114964.17074999996,
      "d": 98.2141874999943,
      "v": 100
    },
    {
      "midi": 47,
      "hit": false,
      "t": 115071.31349999954,
      "d": 102.67846875000396,
      "v": 100
    },
    {
      "midi": 47,
      "hit": false,
      "t": 115178.45624999954,
      "d": 102.67846875000396,
      "v": 100
    },
    {
      "midi": 47,
      "hit": false,
      "t": 115178.45624999996,
      "d": 98.2141874999943,
      "v": 100
    },
    {
      "midi": 67,
      "hit": false,
      "t": 115178.45624999996,
      "d": 98.2141874999943,
      "v": 100
    },
    {
      "midi": 47,
      "hit": false,
      "t": 115499.88449999953,
      "d": 102.67846875000396,
      "v": 100
    },
    {
      "midi": 47,
      "hit": false,
      "t": 115499.88449999996,
      "d": 98.2141874999943,
      "v": 100
    },
    {
      "midi": 67,
      "hit": false,
      "t": 115499.88449999996,
      "d": 98.2141874999943,
      "v": 100
    },
    {
      "midi": 47,
      "hit": false,
      "t": 115607.02724999953,
      "d": 102.67846875000396,
      "v": 100
    },
    {
      "midi": 47,
      "hit": false,
      "t": 115714.16999999995,
      "d": 98.2141874999943,
      "v": 100
    },
    {
      "midi": 67,
      "hit": false,
      "t": 115714.16999999995,
      "d": 98.2141874999943,
      "v": 100
    },
    {
      "midi": 47,
      "hit": false,
      "t": 115821.31274999995,
      "d": 98.2141874999943,
      "v": 100
    },
    {
      "midi": 67,
      "hit": false,
      "t": 115821.31274999995,
      "d": 98.2141874999943,
      "v": 100
    },
    {
      "midi": 47,
      "hit": false,
      "t": 115928.45549999953,
      "d": 102.67846875000396,
      "v": 100
    },
    {
      "midi": 47,
      "hit": false,
      "t": 116035.59824999953,
      "d": 102.67846875000396,
      "v": 100
    },
    {
      "midi": 47,
      "hit": false,
      "t": 116035.59824999995,
      "d": 98.2141874999943,
      "v": 100
    },
    {
      "midi": 67,
      "hit": false,
      "t": 116035.59824999995,
      "d": 98.2141874999943,
      "v": 100
    },
    {
      "midi": 47,
      "hit": false,
      "t": 116357.02649999953,
      "d": 102.67846875000396,
      "v": 100
    },
    {
      "midi": 47,
      "hit": false,
      "t": 116357.02649999995,
      "d": 98.2141874999943,
      "v": 100
    },
    {
      "midi": 67,
      "hit": false,
      "t": 116357.02649999995,
      "d": 98.2141874999943,
      "v": 100
    },
    {
      "midi": 47,
      "hit": false,
      "t": 116464.16924999953,
      "d": 102.67846875000396,
      "v": 100
    },
    {
      "midi": 44,
      "hit": false,
      "t": 116571.31199999995,
      "d": 98.2141874999943,
      "v": 100
    },
    {
      "midi": 63,
      "hit": false,
      "t": 116571.31199999995,
      "d": 98.2141874999943,
      "v": 100
    },
    {
      "midi": 44,
      "hit": false,
      "t": 116678.45474999995,
      "d": 98.2141874999943,
      "v": 100
    },
    {
      "midi": 63,
      "hit": false,
      "t": 116678.45474999995,
      "d": 98.2141874999943,
      "v": 100
    },
    {
      "midi": 44,
      "hit": false,
      "t": 116785.59749999952,
      "d": 102.67846875000396,
      "v": 100
    },
    {
      "midi": 44,
      "hit": false,
      "t": 116892.74024999952,
      "d": 102.67846875000396,
      "v": 100
    },
    {
      "midi": 44,
      "hit": false,
      "t": 116892.74024999994,
      "d": 98.2141874999943,
      "v": 100
    },
    {
      "midi": 63,
      "hit": false,
      "t": 116892.74024999994,
      "d": 98.2141874999943,
      "v": 100
    },
    {
      "midi": 44,
      "hit": false,
      "t": 117214.16849999952,
      "d": 102.67846875000396,
      "v": 100
    },
    {
      "midi": 44,
      "hit": false,
      "t": 117214.16849999994,
      "d": 98.2141874999943,
      "v": 100
    },
    {
      "midi": 63,
      "hit": false,
      "t": 117214.16849999994,
      "d": 98.2141874999943,
      "v": 100
    },
    {
      "midi": 44,
      "hit": false,
      "t": 117321.31124999952,
      "d": 102.67846875000396,
      "v": 100
    },
    {
      "midi": 44,
      "hit": false,
      "t": 117428.45399999994,
      "d": 98.2141874999943,
      "v": 100
    },
    {
      "midi": 63,
      "hit": false,
      "t": 117428.45399999994,
      "d": 98.2141874999943,
      "v": 100
    },
    {
      "midi": 44,
      "hit": false,
      "t": 117535.59674999994,
      "d": 98.2141874999943,
      "v": 100
    },
    {
      "midi": 63,
      "hit": false,
      "t": 117535.59674999994,
      "d": 98.2141874999943,
      "v": 100
    },
    {
      "midi": 44,
      "hit": false,
      "t": 117642.73949999952,
      "d": 102.67846875000396,
      "v": 100
    },
    {
      "midi": 44,
      "hit": false,
      "t": 117749.88224999951,
      "d": 102.67846875000396,
      "v": 100
    },
    {
      "midi": 44,
      "hit": false,
      "t": 117749.88224999994,
      "d": 98.2141874999943,
      "v": 100
    },
    {
      "midi": 63,
      "hit": false,
      "t": 117749.88224999994,
      "d": 98.2141874999943,
      "v": 100
    },
    {
      "midi": 44,
      "hit": false,
      "t": 118071.31049999951,
      "d": 102.67846875000396,
      "v": 100
    },
    {
      "midi": 44,
      "hit": false,
      "t": 118071.31049999993,
      "d": 98.2141874999943,
      "v": 100
    },
    {
      "midi": 63,
      "hit": false,
      "t": 118071.31049999993,
      "d": 98.2141874999943,
      "v": 100
    },
    {
      "midi": 44,
      "hit": false,
      "t": 118178.45324999951,
      "d": 102.67846875000396,
      "v": 100
    },
    {
      "midi": 41,
      "hit": false,
      "t": 118285.59599999993,
      "d": 98.2141874999943,
      "v": 100
    },
    {
      "midi": 65,
      "hit": false,
      "t": 118285.59599999993,
      "d": 98.2141874999943,
      "v": 100
    },
    {
      "midi": 41,
      "hit": false,
      "t": 118392.73874999993,
      "d": 98.2141874999943,
      "v": 100
    },
    {
      "midi": 65,
      "hit": false,
      "t": 118392.73874999993,
      "d": 98.2141874999943,
      "v": 100
    },
    {
      "midi": 41,
      "hit": false,
      "t": 118499.88149999951,
      "d": 102.67846875000396,
      "v": 100
    },
    {
      "midi": 41,
      "hit": false,
      "t": 118607.02424999951,
      "d": 102.67846875000396,
      "v": 100
    },
    {
      "midi": 41,
      "hit": false,
      "t": 118607.02424999993,
      "d": 98.2141874999943,
      "v": 100
    },
    {
      "midi": 65,
      "hit": false,
      "t": 118607.02424999993,
      "d": 98.2141874999943,
      "v": 100
    },
    {
      "midi": 41,
      "hit": false,
      "t": 118928.4524999995,
      "d": 102.67846875000396,
      "v": 100
    },
    {
      "midi": 41,
      "hit": false,
      "t": 118928.45249999993,
      "d": 98.2141874999943,
      "v": 100
    },
    {
      "midi": 65,
      "hit": false,
      "t": 118928.45249999993,
      "d": 98.2141874999943,
      "v": 100
    },
    {
      "midi": 41,
      "hit": false,
      "t": 119035.5952499995,
      "d": 102.67846875000396,
      "v": 100
    },
    {
      "midi": 41,
      "hit": false,
      "t": 119142.73799999992,
      "d": 98.2141874999943,
      "v": 100
    },
    {
      "midi": 65,
      "hit": false,
      "t": 119142.73799999992,
      "d": 98.2141874999943,
      "v": 100
    },
    {
      "midi": 41,
      "hit": false,
      "t": 119249.88074999992,
      "d": 98.2141874999943,
      "v": 100
    },
    {
      "midi": 65,
      "hit": false,
      "t": 119249.88074999992,
      "d": 98.2141874999943,
      "v": 100
    },
    {
      "midi": 41,
      "hit": false,
      "t": 119357.0234999995,
      "d": 102.67846875000396,
      "v": 100
    },
    {
      "midi": 41,
      "hit": false,
      "t": 119464.1662499995,
      "d": 102.67846875000396,
      "v": 100
    },
    {
      "midi": 41,
      "hit": false,
      "t": 119464.16624999992,
      "d": 98.2141874999943,
      "v": 100
    },
    {
      "midi": 65,
      "hit": false,
      "t": 119464.16624999992,
      "d": 98.2141874999943,
      "v": 100
    },
    {
      "midi": 41,
      "hit": false,
      "t": 119785.5944999995,
      "d": 102.67846875000396,
      "v": 100
    },
    {
      "midi": 41,
      "hit": false,
      "t": 119785.59449999992,
      "d": 98.2141874999943,
      "v": 100
    },
    {
      "midi": 65,
      "hit": false,
      "t": 119785.59449999992,
      "d": 98.2141874999943,
      "v": 100
    },
    {
      "midi": 41,
      "hit": false,
      "t": 119892.7372499995,
      "d": 102.67846875000396,
      "v": 100
    },
    {
      "midi": 43,
      "hit": false,
      "t": 119999.87999999992,
      "d": 98.2141874999943,
      "v": 100
    },
    {
      "midi": 62,
      "hit": false,
      "t": 119999.87999999992,
      "d": 98.2141874999943,
      "v": 100
    },
    {
      "midi": 43,
      "hit": false,
      "t": 120107.02274999992,
      "d": 98.2141874999943,
      "v": 100
    },
    {
      "midi": 62,
      "hit": false,
      "t": 120107.02274999992,
      "d": 98.2141874999943,
      "v": 100
    },
    {
      "midi": 43,
      "hit": false,
      "t": 120214.1654999995,
      "d": 102.67846875000396,
      "v": 100
    },
    {
      "midi": 43,
      "hit": false,
      "t": 120321.30824999949,
      "d": 102.67846875000396,
      "v": 100
    },
    {
      "midi": 43,
      "hit": false,
      "t": 120321.30824999991,
      "d": 98.2141874999943,
      "v": 100
    },
    {
      "midi": 62,
      "hit": false,
      "t": 120321.30824999991,
      "d": 98.2141874999943,
      "v": 100
    },
    {
      "midi": 43,
      "hit": false,
      "t": 120642.73649999949,
      "d": 102.67846875000396,
      "v": 100
    },
    {
      "midi": 43,
      "hit": false,
      "t": 120642.73649999991,
      "d": 98.2141874999943,
      "v": 100
    },
    {
      "midi": 62,
      "hit": false,
      "t": 120642.73649999991,
      "d": 98.2141874999943,
      "v": 100
    },
    {
      "midi": 43,
      "hit": false,
      "t": 120749.87924999949,
      "d": 102.67846875000396,
      "v": 100
    },
    {
      "midi": 43,
      "hit": false,
      "t": 120857.02199999991,
      "d": 98.2141874999943,
      "v": 100
    },
    {
      "midi": 62,
      "hit": false,
      "t": 120857.02199999991,
      "d": 98.2141874999943,
      "v": 100
    },
    {
      "midi": 43,
      "hit": false,
      "t": 120964.16474999991,
      "d": 98.2141874999943,
      "v": 100
    },
    {
      "midi": 62,
      "hit": false,
      "t": 120964.16474999991,
      "d": 98.2141874999943,
      "v": 100
    },
    {
      "midi": 43,
      "hit": false,
      "t": 121071.30749999949,
      "d": 102.67846875000396,
      "v": 100
    },
    {
      "midi": 43,
      "hit": false,
      "t": 121178.45024999949,
      "d": 102.67846875000396,
      "v": 100
    },
    {
      "midi": 43,
      "hit": false,
      "t": 121178.4502499999,
      "d": 98.2141874999943,
      "v": 100
    },
    {
      "midi": 62,
      "hit": false,
      "t": 121178.4502499999,
      "d": 98.2141874999943,
      "v": 100
    },
    {
      "midi": 43,
      "hit": false,
      "t": 121499.87849999948,
      "d": 102.67846875000396,
      "v": 100
    },
    {
      "midi": 43,
      "hit": false,
      "t": 121499.8784999999,
      "d": 98.2141874999943,
      "v": 100
    },
    {
      "midi": 62,
      "hit": false,
      "t": 121499.8784999999,
      "d": 98.2141874999943,
      "v": 100
    },
    {
      "midi": 43,
      "hit": false,
      "t": 121607.02124999948,
      "d": 102.67846875000396,
      "v": 100
    },
    {
      "midi": 47,
      "hit": false,
      "t": 121714.1639999999,
      "d": 98.2141874999943,
      "v": 100
    },
    {
      "midi": 62,
      "hit": false,
      "t": 121714.1639999999,
      "d": 98.2141874999943,
      "v": 100
    },
    {
      "midi": 47,
      "hit": false,
      "t": 121821.3067499999,
      "d": 98.2141874999943,
      "v": 100
    },
    {
      "midi": 62,
      "hit": false,
      "t": 121821.3067499999,
      "d": 98.2141874999943,
      "v": 100
    },
    {
      "midi": 47,
      "hit": false,
      "t": 121928.44949999948,
      "d": 102.67846875000396,
      "v": 100
    },
    {
      "midi": 47,
      "hit": false,
      "t": 122035.59224999948,
      "d": 102.67846875000396,
      "v": 100
    },
    {
      "midi": 47,
      "hit": false,
      "t": 122035.5922499999,
      "d": 98.2141874999943,
      "v": 100
    },
    {
      "midi": 62,
      "hit": false,
      "t": 122035.5922499999,
      "d": 98.2141874999943,
      "v": 100
    },
    {
      "midi": 47,
      "hit": false,
      "t": 122357.02049999947,
      "d": 102.67846875000396,
      "v": 100
    },
    {
      "midi": 47,
      "hit": false,
      "t": 122357.0204999999,
      "d": 98.2141874999943,
      "v": 100
    },
    {
      "midi": 62,
      "hit": false,
      "t": 122357.0204999999,
      "d": 98.2141874999943,
      "v": 100
    },
    {
      "midi": 47,
      "hit": false,
      "t": 122464.16324999947,
      "d": 102.67846875000396,
      "v": 100
    },
    {
      "midi": 47,
      "hit": false,
      "t": 122571.3059999999,
      "d": 98.2141874999943,
      "v": 100
    },
    {
      "midi": 62,
      "hit": false,
      "t": 122571.3059999999,
      "d": 98.2141874999943,
      "v": 100
    },
    {
      "midi": 47,
      "hit": false,
      "t": 122678.4487499999,
      "d": 98.2141874999943,
      "v": 100
    },
    {
      "midi": 62,
      "hit": false,
      "t": 122678.4487499999,
      "d": 98.2141874999943,
      "v": 100
    },
    {
      "midi": 47,
      "hit": false,
      "t": 122785.59149999947,
      "d": 102.67846875000396,
      "v": 100
    },
    {
      "midi": 47,
      "hit": false,
      "t": 122892.73424999947,
      "d": 102.67846875000396,
      "v": 100
    },
    {
      "midi": 47,
      "hit": false,
      "t": 122892.73424999989,
      "d": 98.2141874999943,
      "v": 100
    },
    {
      "midi": 62,
      "hit": false,
      "t": 122892.73424999989,
      "d": 98.2141874999943,
      "v": 100
    },
    {
      "midi": 47,
      "hit": false,
      "t": 123214.16249999947,
      "d": 102.67846875000396,
      "v": 100
    },
    {
      "midi": 47,
      "hit": false,
      "t": 123214.16249999989,
      "d": 98.2141874999943,
      "v": 100
    },
    {
      "midi": 62,
      "hit": false,
      "t": 123214.16249999989,
      "d": 98.2141874999943,
      "v": 100
    },
    {
      "midi": 47,
      "hit": false,
      "t": 123321.30524999947,
      "d": 102.67846875000396,
      "v": 100
    },
    {
      "midi": 48,
      "hit": false,
      "t": 123428.44799999989,
      "d": 98.2141874999943,
      "v": 100
    },
    {
      "midi": 63,
      "hit": false,
      "t": 123428.44799999989,
      "d": 98.2141874999943,
      "v": 100
    },
    {
      "midi": 48,
      "hit": false,
      "t": 123535.59074999989,
      "d": 98.2141874999943,
      "v": 100
    },
    {
      "midi": 63,
      "hit": false,
      "t": 123535.59074999989,
      "d": 98.2141874999943,
      "v": 100
    },
    {
      "midi": 48,
      "hit": false,
      "t": 123642.73349999946,
      "d": 102.67846875000396,
      "v": 100
    },
    {
      "midi": 48,
      "hit": false,
      "t": 123749.87624999946,
      "d": 102.67846875000396,
      "v": 100
    },
    {
      "midi": 48,
      "hit": false,
      "t": 123749.87624999988,
      "d": 98.2141874999943,
      "v": 100
    },
    {
      "midi": 63,
      "hit": false,
      "t": 123749.87624999988,
      "d": 98.2141874999943,
      "v": 100
    },
    {
      "midi": 48,
      "hit": false,
      "t": 124071.30449999946,
      "d": 102.67846875000396,
      "v": 100
    },
    {
      "midi": 48,
      "hit": false,
      "t": 124071.30449999988,
      "d": 98.2141874999943,
      "v": 100
    },
    {
      "midi": 63,
      "hit": false,
      "t": 124071.30449999988,
      "d": 98.2141874999943,
      "v": 100
    },
    {
      "midi": 48,
      "hit": false,
      "t": 124178.44724999946,
      "d": 102.67846875000396,
      "v": 100
    },
    {
      "midi": 48,
      "hit": false,
      "t": 124285.58999999988,
      "d": 98.2141874999943,
      "v": 100
    },
    {
      "midi": 63,
      "hit": false,
      "t": 124285.58999999988,
      "d": 98.2141874999943,
      "v": 100
    },
    {
      "midi": 48,
      "hit": false,
      "t": 124392.73274999988,
      "d": 98.2141874999943,
      "v": 100
    },
    {
      "midi": 63,
      "hit": false,
      "t": 124392.73274999988,
      "d": 98.2141874999943,
      "v": 100
    },
    {
      "midi": 48,
      "hit": false,
      "t": 124499.87549999946,
      "d": 102.67846875000396,
      "v": 100
    },
    {
      "midi": 48,
      "hit": false,
      "t": 124607.01824999946,
      "d": 102.67846875000396,
      "v": 100
    },
    {
      "midi": 48,
      "hit": false,
      "t": 124607.01824999988,
      "d": 98.2141874999943,
      "v": 100
    },
    {
      "midi": 63,
      "hit": false,
      "t": 124607.01824999988,
      "d": 98.2141874999943,
      "v": 100
    },
    {
      "midi": 48,
      "hit": false,
      "t": 124928.44649999945,
      "d": 102.67846875000396,
      "v": 100
    },
    {
      "midi": 48,
      "hit": false,
      "t": 124928.44649999987,
      "d": 98.2141874999943,
      "v": 100
    },
    {
      "midi": 63,
      "hit": false,
      "t": 124928.44649999987,
      "d": 98.2141874999943,
      "v": 100
    },
    {
      "midi": 48,
      "hit": false,
      "t": 125035.58924999945,
      "d": 102.67846875000396,
      "v": 100
    },
    {
      "midi": 44,
      "hit": false,
      "t": 125142.73199999987,
      "d": 98.2141874999943,
      "v": 100
    },
    {
      "midi": 68,
      "hit": false,
      "t": 125142.73199999987,
      "d": 98.2141874999943,
      "v": 100
    },
    {
      "midi": 44,
      "hit": false,
      "t": 125249.87474999987,
      "d": 98.2141874999943,
      "v": 100
    },
    {
      "midi": 68,
      "hit": false,
      "t": 125249.87474999987,
      "d": 98.2141874999943,
      "v": 100
    },
    {
      "midi": 44,
      "hit": false,
      "t": 125357.01749999945,
      "d": 102.67846875000396,
      "v": 100
    },
    {
      "midi": 44,
      "hit": false,
      "t": 125464.16024999945,
      "d": 102.67846875000396,
      "v": 100
    },
    {
      "midi": 44,
      "hit": false,
      "t": 125464.16024999987,
      "d": 98.2141874999943,
      "v": 100
    },
    {
      "midi": 68,
      "hit": false,
      "t": 125464.16024999987,
      "d": 98.2141874999943,
      "v": 100
    },
    {
      "midi": 44,
      "hit": false,
      "t": 125785.58849999945,
      "d": 102.67846875000396,
      "v": 100
    },
    {
      "midi": 44,
      "hit": false,
      "t": 125785.58849999987,
      "d": 98.2141874999943,
      "v": 100
    },
    {
      "midi": 68,
      "hit": false,
      "t": 125785.58849999987,
      "d": 98.2141874999943,
      "v": 100
    },
    {
      "midi": 44,
      "hit": false,
      "t": 125892.73124999944,
      "d": 102.67846875000396,
      "v": 100
    },
    {
      "midi": 44,
      "hit": false,
      "t": 125999.87399999987,
      "d": 98.2141874999943,
      "v": 100
    },
    {
      "midi": 68,
      "hit": false,
      "t": 125999.87399999987,
      "d": 98.2141874999943,
      "v": 100
    },
    {
      "midi": 44,
      "hit": false,
      "t": 126107.01674999986,
      "d": 98.2141874999943,
      "v": 100
    },
    {
      "midi": 68,
      "hit": false,
      "t": 126107.01674999986,
      "d": 98.2141874999943,
      "v": 100
    },
    {
      "midi": 44,
      "hit": false,
      "t": 126214.15949999944,
      "d": 102.67846875000396,
      "v": 100
    },
    {
      "midi": 44,
      "hit": false,
      "t": 126321.30224999944,
      "d": 102.67846875000396,
      "v": 100
    },
    {
      "midi": 44,
      "hit": false,
      "t": 126321.30224999986,
      "d": 98.2141874999943,
      "v": 100
    },
    {
      "midi": 68,
      "hit": false,
      "t": 126321.30224999986,
      "d": 98.2141874999943,
      "v": 100
    },
    {
      "midi": 44,
      "hit": false,
      "t": 126642.73049999944,
      "d": 102.67846875000396,
      "v": 100
    },
    {
      "midi": 44,
      "hit": false,
      "t": 126642.73049999986,
      "d": 98.2141874999943,
      "v": 100
    },
    {
      "midi": 68,
      "hit": false,
      "t": 126642.73049999986,
      "d": 98.2141874999943,
      "v": 100
    },
    {
      "midi": 44,
      "hit": false,
      "t": 126749.87324999944,
      "d": 102.67846875000396,
      "v": 100
    },
    {
      "midi": 46,
      "hit": false,
      "t": 126857.01599999986,
      "d": 98.2141874999943,
      "v": 100
    },
    {
      "midi": 65,
      "hit": false,
      "t": 126857.01599999986,
      "d": 98.2141874999943,
      "v": 100
    },
    {
      "midi": 46,
      "hit": false,
      "t": 126964.15874999986,
      "d": 98.2141874999943,
      "v": 100
    },
    {
      "midi": 65,
      "hit": false,
      "t": 126964.15874999986,
      "d": 98.2141874999943,
      "v": 100
    },
    {
      "midi": 46,
      "hit": false,
      "t": 127071.30149999943,
      "d": 102.67846875000396,
      "v": 100
    },
    {
      "midi": 46,
      "hit": false,
      "t": 127178.44424999943,
      "d": 102.67846875000396,
      "v": 100
    },
    {
      "midi": 46,
      "hit": false,
      "t": 127178.44424999985,
      "d": 98.2141874999943,
      "v": 100
    },
    {
      "midi": 65,
      "hit": false,
      "t": 127178.44424999985,
      "d": 98.2141874999943,
      "v": 100
    },
    {
      "midi": 46,
      "hit": false,
      "t": 127499.87249999943,
      "d": 102.67846875000396,
      "v": 100
    },
    {
      "midi": 46,
      "hit": false,
      "t": 127499.87249999985,
      "d": 98.2141874999943,
      "v": 100
    },
    {
      "midi": 65,
      "hit": false,
      "t": 127499.87249999985,
      "d": 98.2141874999943,
      "v": 100
    },
    {
      "midi": 46,
      "hit": false,
      "t": 127607.01524999943,
      "d": 102.67846875000396,
      "v": 100
    },
    {
      "midi": 46,
      "hit": false,
      "t": 127714.15799999985,
      "d": 98.2141874999943,
      "v": 100
    },
    {
      "midi": 65,
      "hit": false,
      "t": 127714.15799999985,
      "d": 98.2141874999943,
      "v": 100
    },
    {
      "midi": 46,
      "hit": false,
      "t": 127821.30074999985,
      "d": 98.2141874999943,
      "v": 100
    },
    {
      "midi": 65,
      "hit": false,
      "t": 127821.30074999985,
      "d": 98.2141874999943,
      "v": 100
    },
    {
      "midi": 46,
      "hit": false,
      "t": 127928.44349999943,
      "d": 102.67846875000396,
      "v": 100
    },
    {
      "midi": 46,
      "hit": false,
      "t": 128035.58624999943,
      "d": 102.67846875000396,
      "v": 100
    },
    {
      "midi": 46,
      "hit": false,
      "t": 128035.58624999985,
      "d": 98.2141874999943,
      "v": 100
    },
    {
      "midi": 65,
      "hit": false,
      "t": 128035.58624999985,
      "d": 98.2141874999943,
      "v": 100
    },
    {
      "midi": 46,
      "hit": false,
      "t": 128357.01449999942,
      "d": 102.67846875000396,
      "v": 100
    },
    {
      "midi": 46,
      "hit": false,
      "t": 128357.01449999984,
      "d": 98.2141874999943,
      "v": 100
    },
    {
      "midi": 65,
      "hit": false,
      "t": 128357.01449999984,
      "d": 98.2141874999943,
      "v": 100
    },
    {
      "midi": 46,
      "hit": false,
      "t": 128464.15724999942,
      "d": 102.67846875000396,
      "v": 100
    },
    {
      "midi": 51,
      "hit": false,
      "t": 128571.29999999984,
      "d": 98.2141874999943,
      "v": 100
    },
    {
      "midi": 67,
      "hit": false,
      "t": 128571.29999999984,
      "d": 98.2141874999943,
      "v": 100
    },
    {
      "midi": 51,
      "hit": false,
      "t": 128678.44274999984,
      "d": 98.2141874999943,
      "v": 100
    },
    {
      "midi": 67,
      "hit": false,
      "t": 128678.44274999984,
      "d": 98.2141874999943,
      "v": 100
    },
    {
      "midi": 51,
      "hit": false,
      "t": 128785.58549999942,
      "d": 102.67846875000396,
      "v": 100
    },
    {
      "midi": 51,
      "hit": false,
      "t": 128892.72824999942,
      "d": 102.67846875000396,
      "v": 100
    },
    {
      "midi": 51,
      "hit": false,
      "t": 128892.72824999984,
      "d": 98.2141874999943,
      "v": 100
    },
    {
      "midi": 67,
      "hit": false,
      "t": 128892.72824999984,
      "d": 98.2141874999943,
      "v": 100
    },
    {
      "midi": 51,
      "hit": false,
      "t": 129214.15649999942,
      "d": 102.67846875000396,
      "v": 100
    },
    {
      "midi": 51,
      "hit": false,
      "t": 129214.15649999984,
      "d": 98.2141874999943,
      "v": 100
    },
    {
      "midi": 67,
      "hit": false,
      "t": 129214.15649999984,
      "d": 98.2141874999943,
      "v": 100
    },
    {
      "midi": 51,
      "hit": false,
      "t": 129321.29924999941,
      "d": 102.67846875000396,
      "v": 100
    },
    {
      "midi": 51,
      "hit": false,
      "t": 129428.44199999984,
      "d": 98.2141874999943,
      "v": 100
    },
    {
      "midi": 67,
      "hit": false,
      "t": 129428.44199999984,
      "d": 98.2141874999943,
      "v": 100
    },
    {
      "midi": 51,
      "hit": false,
      "t": 129535.58474999983,
      "d": 98.2141874999943,
      "v": 100
    },
    {
      "midi": 67,
      "hit": false,
      "t": 129535.58474999983,
      "d": 98.2141874999943,
      "v": 100
    },
    {
      "midi": 51,
      "hit": false,
      "t": 129642.72749999941,
      "d": 102.67846875000396,
      "v": 100
    },
    {
      "midi": 51,
      "hit": false,
      "t": 129749.87024999941,
      "d": 102.67846875000396,
      "v": 100
    },
    {
      "midi": 51,
      "hit": false,
      "t": 129749.87024999983,
      "d": 98.2141874999943,
      "v": 100
    },
    {
      "midi": 67,
      "hit": false,
      "t": 129749.87024999983,
      "d": 98.2141874999943,
      "v": 100
    },
    {
      "midi": 51,
      "hit": false,
      "t": 130071.29849999941,
      "d": 102.67846875000396,
      "v": 100
    },
    {
      "midi": 51,
      "hit": false,
      "t": 130071.29849999983,
      "d": 98.2141874999943,
      "v": 100
    },
    {
      "midi": 67,
      "hit": false,
      "t": 130071.29849999983,
      "d": 98.2141874999943,
      "v": 100
    },
    {
      "midi": 51,
      "hit": false,
      "t": 130178.4412499994,
      "d": 102.67846875000396,
      "v": 100
    },
    {
      "midi": 44,
      "hit": false,
      "t": 130285.58399999983,
      "d": 98.2141874999943,
      "v": 100
    },
    {
      "midi": 63,
      "hit": false,
      "t": 130285.58399999983,
      "d": 98.2141874999943,
      "v": 100
    },
    {
      "midi": 44,
      "hit": false,
      "t": 130392.72674999983,
      "d": 98.2141874999943,
      "v": 100
    },
    {
      "midi": 63,
      "hit": false,
      "t": 130392.72674999983,
      "d": 98.2141874999943,
      "v": 100
    },
    {
      "midi": 44,
      "hit": false,
      "t": 130499.8694999994,
      "d": 102.67846875000396,
      "v": 100
    },
    {
      "midi": 44,
      "hit": false,
      "t": 130607.0122499994,
      "d": 102.67846875000396,
      "v": 100
    },
    {
      "midi": 44,
      "hit": false,
      "t": 130607.01224999983,
      "d": 98.2141874999943,
      "v": 100
    },
    {
      "midi": 63,
      "hit": false,
      "t": 130607.01224999983,
      "d": 98.2141874999943,
      "v": 100
    },
    {
      "midi": 44,
      "hit": false,
      "t": 130928.4404999994,
      "d": 102.67846875000396,
      "v": 100
    },
    {
      "midi": 44,
      "hit": false,
      "t": 130928.44049999982,
      "d": 98.2141874999943,
      "v": 100
    },
    {
      "midi": 63,
      "hit": false,
      "t": 130928.44049999982,
      "d": 98.2141874999943,
      "v": 100
    },
    {
      "midi": 44,
      "hit": false,
      "t": 131035.5832499994,
      "d": 102.6784687499894,
      "v": 100
    },
    {
      "midi": 44,
      "hit": false,
      "t": 131142.72599999982,
      "d": 98.21418750000885,
      "v": 100
    },
    {
      "midi": 63,
      "hit": false,
      "t": 131142.72599999982,
      "d": 98.21418750000885,
      "v": 100
    },
    {
      "midi": 44,
      "hit": false,
      "t": 131249.86874999982,
      "d": 98.21418750000885,
      "v": 100
    },
    {
      "midi": 63,
      "hit": false,
      "t": 131249.86874999982,
      "d": 98.21418750000885,
      "v": 100
    },
    {
      "midi": 44,
      "hit": false,
      "t": 131357.01149999938,
      "d": 102.67846875000396,
      "v": 100
    },
    {
      "midi": 44,
      "hit": false,
      "t": 131464.15424999938,
      "d": 102.67846875000396,
      "v": 100
    },
    {
      "midi": 44,
      "hit": false,
      "t": 131464.15424999982,
      "d": 98.21418750000885,
      "v": 100
    },
    {
      "midi": 63,
      "hit": false,
      "t": 131464.15424999982,
      "d": 98.21418750000885,
      "v": 100
    },
    {
      "midi": 44,
      "hit": false,
      "t": 131785.58249999938,
      "d": 102.67846875000396,
      "v": 100
    },
    {
      "midi": 44,
      "hit": false,
      "t": 131785.58249999981,
      "d": 98.21418750000885,
      "v": 100
    },
    {
      "midi": 63,
      "hit": false,
      "t": 131785.58249999981,
      "d": 98.21418750000885,
      "v": 100
    },
    {
      "midi": 44,
      "hit": false,
      "t": 131892.72524999938,
      "d": 102.67846875000396,
      "v": 100
    },
    {
      "midi": 50,
      "hit": false,
      "t": 131999.8679999998,
      "d": 98.21418750000885,
      "v": 100
    },
    {
      "midi": 65,
      "hit": false,
      "t": 131999.8679999998,
      "d": 98.21418750000885,
      "v": 100
    },
    {
      "midi": 50,
      "hit": false,
      "t": 132107.0107499998,
      "d": 98.21418750000885,
      "v": 100
    },
    {
      "midi": 65,
      "hit": false,
      "t": 132107.0107499998,
      "d": 98.21418750000885,
      "v": 100
    },
    {
      "midi": 50,
      "hit": false,
      "t": 132214.15349999937,
      "d": 102.67846875000396,
      "v": 100
    },
    {
      "midi": 50,
      "hit": false,
      "t": 132321.29624999937,
      "d": 102.67846875000396,
      "v": 100
    },
    {
      "midi": 50,
      "hit": false,
      "t": 132321.2962499998,
      "d": 98.21418750000885,
      "v": 100
    },
    {
      "midi": 65,
      "hit": false,
      "t": 132321.2962499998,
      "d": 98.21418750000885,
      "v": 100
    },
    {
      "midi": 50,
      "hit": false,
      "t": 132642.72449999937,
      "d": 102.67846875000396,
      "v": 100
    },
    {
      "midi": 50,
      "hit": false,
      "t": 132642.7244999998,
      "d": 98.21418750000885,
      "v": 100
    },
    {
      "midi": 65,
      "hit": false,
      "t": 132642.7244999998,
      "d": 98.21418750000885,
      "v": 100
    },
    {
      "midi": 50,
      "hit": false,
      "t": 132749.86724999937,
      "d": 102.67846875000396,
      "v": 100
    },
    {
      "midi": 50,
      "hit": false,
      "t": 132857.0099999998,
      "d": 98.21418750000885,
      "v": 100
    },
    {
      "midi": 65,
      "hit": false,
      "t": 132857.0099999998,
      "d": 98.21418750000885,
      "v": 100
    },
    {
      "midi": 50,
      "hit": false,
      "t": 132964.1527499998,
      "d": 98.21418750000885,
      "v": 100
    },
    {
      "midi": 65,
      "hit": false,
      "t": 132964.1527499998,
      "d": 98.21418750000885,
      "v": 100
    },
    {
      "midi": 50,
      "hit": false,
      "t": 133071.29549999937,
      "d": 102.67846875000396,
      "v": 100
    },
    {
      "midi": 50,
      "hit": false,
      "t": 133178.43824999937,
      "d": 102.67846875000396,
      "v": 100
    },
    {
      "midi": 50,
      "hit": false,
      "t": 133178.4382499998,
      "d": 98.21418750000885,
      "v": 100
    },
    {
      "midi": 65,
      "hit": false,
      "t": 133178.4382499998,
      "d": 98.21418750000885,
      "v": 100
    },
    {
      "midi": 50,
      "hit": false,
      "t": 133499.86649999936,
      "d": 102.67846875000396,
      "v": 100
    },
    {
      "midi": 50,
      "hit": false,
      "t": 133499.8664999998,
      "d": 98.21418750000885,
      "v": 100
    },
    {
      "midi": 65,
      "hit": false,
      "t": 133499.8664999998,
      "d": 98.21418750000885,
      "v": 100
    },
    {
      "midi": 50,
      "hit": false,
      "t": 133607.00924999936,
      "d": 102.67846875000396,
      "v": 100
    },
    {
      "midi": 43,
      "hit": false,
      "t": 133714.1519999998,
      "d": 98.21418750000885,
      "v": 100
    },
    {
      "midi": 67,
      "hit": false,
      "t": 133714.1519999998,
      "d": 98.21418750000885,
      "v": 100
    },
    {
      "midi": 43,
      "hit": false,
      "t": 133821.2947499998,
      "d": 98.21418750000885,
      "v": 100
    },
    {
      "midi": 67,
      "hit": false,
      "t": 133821.2947499998,
      "d": 98.21418750000885,
      "v": 100
    },
    {
      "midi": 43,
      "hit": false,
      "t": 133928.43749999936,
      "d": 102.67846875000396,
      "v": 100
    },
    {
      "midi": 43,
      "hit": false,
      "t": 134035.58024999936,
      "d": 102.67846875000396,
      "v": 100
    },
    {
      "midi": 43,
      "hit": false,
      "t": 134035.5802499998,
      "d": 98.21418750000885,
      "v": 100
    },
    {
      "midi": 67,
      "hit": false,
      "t": 134035.5802499998,
      "d": 98.21418750000885,
      "v": 100
    },
    {
      "midi": 43,
      "hit": false,
      "t": 134357.00849999936,
      "d": 102.67846875000396,
      "v": 100
    },
    {
      "midi": 43,
      "hit": false,
      "t": 134357.0084999998,
      "d": 98.21418750000885,
      "v": 100
    },
    {
      "midi": 67,
      "hit": false,
      "t": 134357.0084999998,
      "d": 98.21418750000885,
      "v": 100
    },
    {
      "midi": 43,
      "hit": false,
      "t": 134464.15124999936,
      "d": 102.67846875000396,
      "v": 100
    },
    {
      "midi": 43,
      "hit": false,
      "t": 134571.2939999998,
      "d": 98.21418750000885,
      "v": 100
    },
    {
      "midi": 67,
      "hit": false,
      "t": 134571.2939999998,
      "d": 98.21418750000885,
      "v": 100
    },
    {
      "midi": 43,
      "hit": false,
      "t": 134678.4367499998,
      "d": 98.21418750000885,
      "v": 100
    },
    {
      "midi": 67,
      "hit": false,
      "t": 134678.4367499998,
      "d": 98.21418750000885,
      "v": 100
    },
    {
      "midi": 43,
      "hit": false,
      "t": 134785.57949999935,
      "d": 102.67846875000396,
      "v": 100
    },
    {
      "midi": 43,
      "hit": false,
      "t": 134892.72224999935,
      "d": 102.67846875000396,
      "v": 100
    },
    {
      "midi": 43,
      "hit": false,
      "t": 134892.7222499998,
      "d": 98.21418750000885,
      "v": 100
    },
    {
      "midi": 67,
      "hit": false,
      "t": 134892.7222499998,
      "d": 98.21418750000885,
      "v": 100
    },
    {
      "midi": 43,
      "hit": false,
      "t": 135214.15049999935,
      "d": 102.67846875000396,
      "v": 100
    },
    {
      "midi": 43,
      "hit": false,
      "t": 135214.15049999979,
      "d": 98.21418750000885,
      "v": 100
    },
    {
      "midi": 67,
      "hit": false,
      "t": 135214.15049999979,
      "d": 98.21418750000885,
      "v": 100
    },
    {
      "midi": 43,
      "hit": false,
      "t": 135321.29324999935,
      "d": 102.67846875000396,
      "v": 100
    },
    {
      "midi": 47,
      "hit": false,
      "t": 135428.43599999978,
      "d": 98.21418750000885,
      "v": 100
    },
    {
      "midi": 67,
      "hit": false,
      "t": 135428.43599999978,
      "d": 98.21418750000885,
      "v": 100
    },
    {
      "midi": 47,
      "hit": false,
      "t": 135535.57874999978,
      "d": 98.21418750000885,
      "v": 100
    },
    {
      "midi": 67,
      "hit": false,
      "t": 135535.57874999978,
      "d": 98.21418750000885,
      "v": 100
    },
    {
      "midi": 47,
      "hit": false,
      "t": 135642.72149999934,
      "d": 102.67846875000396,
      "v": 100
    },
    {
      "midi": 47,
      "hit": false,
      "t": 135749.86424999934,
      "d": 102.67846875000396,
      "v": 100
    },
    {
      "midi": 47,
      "hit": false,
      "t": 135749.86424999978,
      "d": 98.21418750000885,
      "v": 100
    },
    {
      "midi": 67,
      "hit": false,
      "t": 135749.86424999978,
      "d": 98.21418750000885,
      "v": 100
    },
    {
      "midi": 47,
      "hit": false,
      "t": 136071.29249999934,
      "d": 102.67846875000396,
      "v": 100
    },
    {
      "midi": 47,
      "hit": false,
      "t": 136071.29249999978,
      "d": 98.21418750000885,
      "v": 100
    },
    {
      "midi": 67,
      "hit": false,
      "t": 136071.29249999978,
      "d": 98.21418750000885,
      "v": 100
    },
    {
      "midi": 47,
      "hit": false,
      "t": 136178.43524999934,
      "d": 102.67846875000396,
      "v": 100
    },
    {
      "midi": 47,
      "hit": false,
      "t": 136285.57799999978,
      "d": 98.21418750000885,
      "v": 100
    },
    {
      "midi": 67,
      "hit": false,
      "t": 136285.57799999978,
      "d": 98.21418750000885,
      "v": 100
    },
    {
      "midi": 47,
      "hit": false,
      "t": 136392.72074999977,
      "d": 98.21418750000885,
      "v": 100
    },
    {
      "midi": 67,
      "hit": false,
      "t": 136392.72074999977,
      "d": 98.21418750000885,
      "v": 100
    },
    {
      "midi": 47,
      "hit": false,
      "t": 136499.86349999934,
      "d": 102.67846875000396,
      "v": 100
    },
    {
      "midi": 47,
      "hit": false,
      "t": 136607.00624999934,
      "d": 102.67846875000396,
      "v": 100
    },
    {
      "midi": 47,
      "hit": false,
      "t": 136607.00624999977,
      "d": 98.21418750000885,
      "v": 100
    },
    {
      "midi": 67,
      "hit": false,
      "t": 136607.00624999977,
      "d": 98.21418750000885,
      "v": 100
    },
    {
      "midi": 47,
      "hit": false,
      "t": 136928.43449999933,
      "d": 102.67846875000396,
      "v": 100
    },
    {
      "midi": 47,
      "hit": false,
      "t": 136928.43449999977,
      "d": 98.21418750000885,
      "v": 100
    },
    {
      "midi": 67,
      "hit": false,
      "t": 136928.43449999977,
      "d": 98.21418750000885,
      "v": 100
    },
    {
      "midi": 47,
      "hit": false,
      "t": 137035.57724999933,
      "d": 102.67846875000396,
      "v": 100
    }
  ]
}