{
  "jsonPath": "Rock/Spanish Pop Rock/Pastora/peder-el-tiempo.json",
  "path": "Rock\\Spanish Pop Rock\\Pastora\\Peder El Tiempo.mid",
  "name": "Peder El Tiempo",
  "difficulty": "Advanced",
  "bpm": 120,
  "notes": [
    {
      "midi": 60,
      "hit": false,
      "t": 2633.3333333333335,
      "d": 133.33333333333348,
      "v": 49
    },
    {
      "midi": 65,
      "hit": false,
      "t": 2716.666666666667,
      "d": 83.33333333333348,
      "v": 57
    },
    {
      "midi": 41,
      "hit": false,
      "t": 2733.3333333333335,
      "d": 1166.6666666666665,
      "v": 43
    },
    {
      "midi": 69,
      "hit": false,
      "t": 2766.666666666667,
      "d": 100,
      "v": 89
    },
    {
      "midi": 72,
      "hit": false,
      "t": 2866.666666666667,
      "d": 100,
      "v": 96
    },
    {
      "midi": 48,
      "hit": false,
      "t": 3133.3333333333335,
      "d": 716.6666666666665,
      "v": 63
    },
    {
      "midi": 74,
      "hit": false,
      "t": 3166.666666666667,
      "d": 316.6666666666665,
      "v": 78
    },
    {
      "midi": 53,
      "hit": false,
      "t": 3516.666666666667,
      "d": 316.6666666666665,
      "v": 51
    },
    {
      "midi": 72,
      "hit": false,
      "t": 3516.666666666667,
      "d": 349.99999999999955,
      "v": 82
    },
    {
      "midi": 69,
      "hit": false,
      "t": 3900,
      "d": 83.33333333333348,
      "v": 53
    },
    {
      "midi": 65,
      "hit": false,
      "t": 4233.333333333333,
      "d": 300,
      "v": 68
    },
    {
      "midi": 38,
      "hit": false,
      "t": 4250,
      "d": 1033.3333333333321,
      "v": 65
    },
    {
      "midi": 62,
      "hit": false,
      "t": 4266.666666666667,
      "d": 216.66666666666606,
      "v": 65
    },
    {
      "midi": 67,
      "hit": false,
      "t": 4566.666666666666,
      "d": 150,
      "v": 75
    },
    {
      "midi": 45,
      "hit": false,
      "t": 4566.666666666666,
      "d": 749.9999999999991,
      "v": 60
    },
    {
      "midi": 69,
      "hit": false,
      "t": 4949.999999999999,
      "d": 283.33333333333303,
      "v": 73
    },
    {
      "midi": 50,
      "hit": false,
      "t": 4949.999999999999,
      "d": 333.33333333333303,
      "v": 53
    },
    {
      "midi": 65,
      "hit": false,
      "t": 5266.666666666665,
      "d": 66.66666666666697,
      "v": 65
    },
    {
      "midi": 58,
      "hit": false,
      "t": 5616.666666666666,
      "d": 116.66666666666697,
      "v": 65
    },
    {
      "midi": 43,
      "hit": false,
      "t": 5616.666666666666,
      "d": 1133.333333333333,
      "v": 60
    },
    {
      "midi": 62,
      "hit": false,
      "t": 5716.666666666666,
      "d": 83.33333333333303,
      "v": 93
    },
    {
      "midi": 67,
      "hit": false,
      "t": 5766.666666666666,
      "d": 83.33333333333303,
      "v": 93
    },
    {
      "midi": 50,
      "hit": false,
      "t": 6016.666666666666,
      "d": 700,
      "v": 60
    },
    {
      "midi": 56,
      "hit": false,
      "t": 6316.666666666666,
      "d": 116.66666666666697,
      "v": 45
    },
    {
      "midi": 53,
      "hit": false,
      "t": 6383.333333333333,
      "d": 300,
      "v": 40
    },
    {
      "midi": 59,
      "hit": false,
      "t": 6416.666666666666,
      "d": 66.66666666666697,
      "v": 70
    },
    {
      "midi": 62,
      "hit": false,
      "t": 6466.666666666666,
      "d": 50,
      "v": 80
    },
    {
      "midi": 65,
      "hit": false,
      "t": 6483.333333333333,
      "d": 150,
      "v": 106
    },
    {
      "midi": 55,
      "hit": false,
      "t": 7066.666666666665,
      "d": 83.33333333333303,
      "v": 58
    },
    {
      "midi": 36,
      "hit": false,
      "t": 7099.999999999998,
      "d": 1000,
      "v": 78
    },
    {
      "midi": 60,
      "hit": false,
      "t": 7116.666666666665,
      "d": 83.33333333333303,
      "v": 96
    },
    {
      "midi": 64,
      "hit": false,
      "t": 7199.999999999998,
      "d": 100,
      "v": 86
    },
    {
      "midi": 43,
      "hit": false,
      "t": 7499.999999999998,
      "d": 633.333333333333,
      "v": 66
    },
    {
      "midi": 48,
      "hit": false,
      "t": 7849.999999999998,
      "d": 300,
      "v": 66
    },
    {
      "midi": 60,
      "hit": false,
      "t": 8449.999999999998,
      "d": 100,
      "v": 65
    },
    {
      "midi": 65,
      "hit": false,
      "t": 8499.999999999998,
      "d": 83.33333333333212,
      "v": 42
    },
    {
      "midi": 41,
      "hit": false,
      "t": 8533.333333333332,
      "d": 1033.3333333333303,
      "v": 68
    },
    {
      "midi": 69,
      "hit": false,
      "t": 8566.666666666664,
      "d": 83.33333333333212,
      "v": 65
    },
    {
      "midi": 72,
      "hit": false,
      "t": 8649.999999999996,
      "d": 66.66666666666606,
      "v": 106
    },
    {
      "midi": 48,
      "hit": false,
      "t": 8899.999999999996,
      "d": 633.3333333333321,
      "v": 69
    },
    {
      "midi": 74,
      "hit": false,
      "t": 8966.666666666662,
      "d": 316.66666666666606,
      "v": 70
    },
    {
      "midi": 53,
      "hit": false,
      "t": 9283.333333333328,
      "d": 216.66666666666606,
      "v": 51
    },
    {
      "midi": 72,
      "hit": false,
      "t": 9299.999999999995,
      "d": 316.6666666666679,
      "v": 82
    },
    {
      "midi": 69,
      "hit": false,
      "t": 9649.999999999996,
      "d": 83.33333333333394,
      "v": 78
    },
    {
      "midi": 65,
      "hit": false,
      "t": 9999.999999999996,
      "d": 216.66666666666606,
      "v": 60
    },
    {
      "midi": 38,
      "hit": false,
      "t": 9999.999999999996,
      "d": 950,
      "v": 63
    },
    {
      "midi": 62,
      "hit": false,
      "t": 10016.666666666662,
      "d": 133.33333333333394,
      "v": 43
    },
    {
      "midi": 67,
      "hit": false,
      "t": 10349.999999999996,
      "d": 233.33333333333394,
      "v": 55
    },
    {
      "midi": 45,
      "hit": false,
      "t": 10349.999999999996,
      "d": 616.6666666666661,
      "v": 57
    },
    {
      "midi": 69,
      "hit": false,
      "t": 10699.999999999996,
      "d": 266.66666666666606,
      "v": 62
    },
    {
      "midi": 50,
      "hit": false,
      "t": 10749.999999999996,
      "d": 233.33333333333212,
      "v": 51
    },
    {
      "midi": 65,
      "hit": false,
      "t": 10999.999999999995,
      "d": 66.66666666666606,
      "v": 60
    },
    {
      "midi": 58,
      "hit": false,
      "t": 11316.66666666666,
      "d": 83.33333333333394,
      "v": 78
    },
    {
      "midi": 43,
      "hit": false,
      "t": 11316.66666666666,
      "d": 1083.333333333334,
      "v": 50
    },
    {
      "midi": 62,
      "hit": false,
      "t": 11399.999999999995,
      "d": 50,
      "v": 78
    },
    {
      "midi": 67,
      "hit": false,
      "t": 11449.999999999995,
      "d": 83.33333333333394,
      "v": 103
    },
    {
      "midi": 72,
      "hit": false,
      "t": 11783.333333333328,
      "d": 250,
      "v": 86
    },
    {
      "midi": 50,
      "hit": false,
      "t": 11799.999999999995,
      "d": 600,
      "v": 62
    },
    {
      "midi": 69,
      "hit": false,
      "t": 12166.666666666662,
      "d": 83.33333333333212,
      "v": 68
    },
    {
      "midi": 55,
      "hit": false,
      "t": 12183.333333333328,
      "d": 166.66666666666606,
      "v": 52
    },
    {
      "midi": 67,
      "hit": false,
      "t": 12499.999999999995,
      "d": 100,
      "v": 62
    },
    {
      "midi": 69,
      "hit": false,
      "t": 12599.999999999995,
      "d": 133.33333333333212,
      "v": 67
    },
    {
      "midi": 67,
      "hit": false,
      "t": 12699.999999999995,
      "d": 133.33333333333212,
      "v": 46
    },
    {
      "midi": 65,
      "hit": false,
      "t": 12883.333333333327,
      "d": 83.33333333333394,
      "v": 77
    },
    {
      "midi": 41,
      "hit": false,
      "t": 12883.333333333327,
      "d": 1133.3333333333358,
      "v": 89
    },
    {
      "midi": 48,
      "hit": false,
      "t": 13199.999999999995,
      "d": 850.0000000000018,
      "v": 85
    },
    {
      "midi": 53,
      "hit": false,
      "t": 13583.333333333328,
      "d": 433.33333333333394,
      "v": 69
    },
    {
      "midi": 55,
      "hit": false,
      "t": 13916.666666666662,
      "d": 83.33333333333394,
      "v": 73
    },
    {
      "midi": 57,
      "hit": false,
      "t": 14233.33333333333,
      "d": 133.33333333333212,
      "v": 58
    },
    {
      "midi": 41,
      "hit": false,
      "t": 14316.666666666664,
      "d": 849.9999999999982,
      "v": 56
    },
    {
      "midi": 60,
      "hit": false,
      "t": 14333.33333333333,
      "d": 83.33333333333212,
      "v": 70
    },
    {
      "midi": 65,
      "hit": false,
      "t": 14416.666666666662,
      "d": 133.33333333333394,
      "v": 82
    },
    {
      "midi": 53,
      "hit": false,
      "t": 15716.666666666662,
      "d": 949.9999999999982,
      "v": 113
    },
    {
      "midi": 60,
      "hit": false,
      "t": 15883.333333333328,
      "d": 750,
      "v": 58
    },
    {
      "midi": 67,
      "hit": false,
      "t": 16083.333333333328,
      "d": 116.66666666666606,
      "v": 75
    },
    {
      "midi": 69,
      "hit": false,
      "t": 16249.999999999995,
      "d": 116.66666666666606,
      "v": 77
    },
    {
      "midi": 72,
      "hit": false,
      "t": 16433.33333333333,
      "d": 116.66666666666788,
      "v": 85
    },
    {
      "midi": 77,
      "hit": false,
      "t": 16599.999999999996,
      "d": 166.66666666666424,
      "v": 47
    },
    {
      "midi": 72,
      "hit": false,
      "t": 16783.33333333333,
      "d": 166.66666666666788,
      "v": 68
    },
    {
      "midi": 69,
      "hit": false,
      "t": 16949.999999999996,
      "d": 116.66666666666424,
      "v": 69
    },
    {
      "midi": 52,
      "hit": false,
      "t": 17149.999999999993,
      "d": 899.9999999999964,
      "v": 120
    },
    {
      "midi": 60,
      "hit": false,
      "t": 17316.666666666657,
      "d": 733.3333333333321,
      "v": 73
    },
    {
      "midi": 67,
      "hit": false,
      "t": 17516.666666666657,
      "d": 133.33333333333212,
      "v": 70
    },
    {
      "midi": 69,
      "hit": false,
      "t": 17699.99999999999,
      "d": 100,
      "v": 60
    },
    {
      "midi": 72,
      "hit": false,
      "t": 17883.33333333332,
      "d": 116.66666666666788,
      "v": 82
    },
    {
      "midi": 76,
      "hit": false,
      "t": 18049.99999999999,
      "d": 133.33333333333212,
      "v": 91
    },
    {
      "midi": 72,
      "hit": false,
      "t": 18233.33333333332,
      "d": 150,
      "v": 67
    },
    {
      "midi": 69,
      "hit": false,
      "t": 18399.99999999999,
      "d": 100,
      "v": 82
    },
    {
      "midi": 50,
      "hit": false,
      "t": 18566.666666666657,
      "d": 1083.3333333333285,
      "v": 96
    },
    {
      "midi": 57,
      "hit": false,
      "t": 18733.333333333325,
      "d": 966.6666666666606,
      "v": 55
    },
    {
      "midi": 64,
      "hit": false,
      "t": 18916.666666666657,
      "d": 100,
      "v": 62
    },
    {
      "midi": 67,
      "hit": false,
      "t": 19099.99999999999,
      "d": 133.33333333333212,
      "v": 55
    },
    {
      "midi": 69,
      "hit": false,
      "t": 19266.666666666653,
      "d": 116.66666666666788,
      "v": 83
    },
    {
      "midi": 72,
      "hit": false,
      "t": 19466.666666666653,
      "d": 150,
      "v": 83
    },
    {
      "midi": 69,
      "hit": false,
      "t": 19649.999999999985,
      "d": 116.66666666666788,
      "v": 63
    },
    {
      "midi": 67,
      "hit": false,
      "t": 19816.666666666653,
      "d": 133.33333333333212,
      "v": 71
    },
    {
      "midi": 48,
      "hit": false,
      "t": 19999.999999999985,
      "d": 1100.0000000000036,
      "v": 108
    },
    {
      "midi": 57,
      "hit": false,
      "t": 20166.666666666653,
      "d": 1000.0000000000036,
      "v": 78
    },
    {
      "midi": 64,
      "hit": false,
      "t": 20366.666666666653,
      "d": 133.33333333333212,
      "v": 62
    },
    {
      "midi": 67,
      "hit": false,
      "t": 20549.999999999985,
      "d": 100,
      "v": 75
    },
    {
      "midi": 69,
      "hit": false,
      "t": 20716.666666666653,
      "d": 116.66666666666788,
      "v": 83
    },
    {
      "midi": 72,
      "hit": false,
      "t": 20916.666666666653,
      "d": 150,
      "v": 66
    },
    {
      "midi": 69,
      "hit": false,
      "t": 21083.33333333332,
      "d": 166.66666666666788,
      "v": 51
    },
    {
      "midi": 67,
      "hit": false,
      "t": 21249.99999999999,
      "d": 100,
      "v": 60
    },
    {
      "midi": 50,
      "hit": false,
      "t": 21433.33333333332,
      "d": 1066.6666666666752,
      "v": 103
    },
    {
      "midi": 62,
      "hit": false,
      "t": 21633.33333333332,
      "d": 100,
      "v": 82
    },
    {
      "midi": 65,
      "hit": false,
      "t": 21799.99999999999,
      "d": 150,
      "v": 80
    },
    {
      "midi": 69,
      "hit": false,
      "t": 21966.666666666657,
      "d": 166.66666666666788,
      "v": 78
    },
    {
      "midi": 74,
      "hit": false,
      "t": 22149.999999999993,
      "d": 166.66666666666788,
      "v": 68
    },
    {
      "midi": 69,
      "hit": false,
      "t": 22333.33333333333,
      "d": 166.66666666666788,
      "v": 73
    },
    {
      "midi": 65,
      "hit": false,
      "t": 22499.999999999996,
      "d": 166.66666666666788,
      "v": 73
    },
    {
      "midi": 62,
      "hit": false,
      "t": 22683.333333333332,
      "d": 116.66666666666788,
      "v": 82
    },
    {
      "midi": 55,
      "hit": false,
      "t": 22883.333333333332,
      "d": 733.3333333333285,
      "v": 93
    },
    {
      "midi": 62,
      "hit": false,
      "t": 23066.666666666664,
      "d": 133.33333333333212,
      "v": 83
    },
    {
      "midi": 65,
      "hit": false,
      "t": 23233.33333333333,
      "d": 183.33333333333212,
      "v": 44
    },
    {
      "midi": 67,
      "hit": false,
      "t": 23416.66666666666,
      "d": 133.33333333333212,
      "v": 58
    },
    {
      "midi": 70,
      "hit": false,
      "t": 23599.999999999993,
      "d": 200,
      "v": 82
    },
    {
      "midi": 67,
      "hit": false,
      "t": 23766.66666666666,
      "d": 166.66666666666424,
      "v": 57
    },
    {
      "midi": 65,
      "hit": false,
      "t": 23933.333333333325,
      "d": 166.66666666666788,
      "v": 67
    },
    {
      "midi": 62,
      "hit": false,
      "t": 24116.66666666666,
      "d": 100,
      "v": 73
    },
    {
      "midi": 48,
      "hit": false,
      "t": 24299.999999999993,
      "d": 999.9999999999964,
      "v": 108
    },
    {
      "midi": 58,
      "hit": false,
      "t": 24483.333333333325,
      "d": 783.3333333333321,
      "v": 70
    },
    {
      "midi": 62,
      "hit": false,
      "t": 24649.999999999993,
      "d": 183.33333333333212,
      "v": 72
    },
    {
      "midi": 65,
      "hit": false,
      "t": 24833.333333333325,
      "d": 200,
      "v": 49
    },
    {
      "midi": 70,
      "hit": false,
      "t": 25016.666666666657,
      "d": 150,
      "v": 66
    },
    {
      "midi": 72,
      "hit": false,
      "t": 25183.333333333325,
      "d": 183.33333333333212,
      "v": 72
    },
    {
      "midi": 70,
      "hit": false,
      "t": 25366.666666666657,
      "d": 166.66666666666788,
      "v": 56
    },
    {
      "midi": 65,
      "hit": false,
      "t": 25533.333333333325,
      "d": 83.33333333333212,
      "v": 44
    },
    {
      "midi": 53,
      "hit": false,
      "t": 25716.666666666657,
      "d": 949.9999999999964,
      "v": 98
    },
    {
      "midi": 60,
      "hit": false,
      "t": 25899.99999999999,
      "d": 766.6666666666642,
      "v": 17
    },
    {
      "midi": 67,
      "hit": false,
      "t": 26066.666666666657,
      "d": 166.66666666666788,
      "v": 73
    },
    {
      "midi": 69,
      "hit": false,
      "t": 26233.333333333325,
      "d": 133.33333333333212,
      "v": 67
    },
    {
      "midi": 72,
      "hit": false,
      "t": 26399.99999999999,
      "d": 150,
      "v": 71
    },
    {
      "midi": 77,
      "hit": false,
      "t": 26583.33333333332,
      "d": 166.66666666666424,
      "v": 25
    },
    {
      "midi": 72,
      "hit": false,
      "t": 26766.666666666653,
      "d": 150,
      "v": 68
    },
    {
      "midi": 69,
      "hit": false,
      "t": 26933.33333333332,
      "d": 166.66666666666424,
      "v": 70
    },
    {
      "midi": 52,
      "hit": false,
      "t": 27133.333333333318,
      "d": 900,
      "v": 103
    },
    {
      "midi": 60,
      "hit": false,
      "t": 27333.333333333318,
      "d": 683.3333333333321,
      "v": 98
    },
    {
      "midi": 67,
      "hit": false,
      "t": 27533.333333333318,
      "d": 133.33333333333212,
      "v": 50
    },
    {
      "midi": 69,
      "hit": false,
      "t": 27699.99999999998,
      "d": 166.66666666666788,
      "v": 48
    },
    {
      "midi": 72,
      "hit": false,
      "t": 27883.333333333318,
      "d": 133.33333333333212,
      "v": 89
    },
    {
      "midi": 76,
      "hit": false,
      "t": 28049.999999999985,
      "d": 150,
      "v": 77
    },
    {
      "midi": 72,
      "hit": false,
      "t": 28216.666666666653,
      "d": 150,
      "v": 62
    },
    {
      "midi": 69,
      "hit": false,
      "t": 28399.999999999985,
      "d": 83.33333333333212,
      "v": 70
    },
    {
      "midi": 50,
      "hit": false,
      "t": 28566.66666666665,
      "d": 983.3333333333285,
      "v": 100
    },
    {
      "midi": 57,
      "hit": false,
      "t": 28749.99999999998,
      "d": 816.6666666666642,
      "v": 83
    },
    {
      "midi": 64,
      "hit": false,
      "t": 28933.333333333314,
      "d": 83.33333333333212,
      "v": 58
    },
    {
      "midi": 67,
      "hit": false,
      "t": 29083.333333333314,
      "d": 183.33333333333212,
      "v": 60
    },
    {
      "midi": 69,
      "hit": false,
      "t": 29266.666666666646,
      "d": 133.33333333333212,
      "v": 77
    },
    {
      "midi": 72,
      "hit": false,
      "t": 29449.999999999978,
      "d": 183.33333333333576,
      "v": 86
    },
    {
      "midi": 69,
      "hit": false,
      "t": 29633.333333333314,
      "d": 133.33333333333212,
      "v": 75
    },
    {
      "midi": 67,
      "hit": false,
      "t": 29799.999999999978,
      "d": 116.66666666666424,
      "v": 91
    },
    {
      "midi": 48,
      "hit": false,
      "t": 29999.999999999975,
      "d": 983.3333333333358,
      "v": 111
    },
    {
      "midi": 57,
      "hit": false,
      "t": 30166.666666666642,
      "d": 833.3333333333358,
      "v": 65
    },
    {
      "midi": 64,
      "hit": false,
      "t": 30383.33333333331,
      "d": 100,
      "v": 72
    },
    {
      "midi": 67,
      "hit": false,
      "t": 30549.999999999978,
      "d": 133.33333333333212,
      "v": 71
    },
    {
      "midi": 69,
      "hit": false,
      "t": 30733.33333333331,
      "d": 166.66666666666788,
      "v": 83
    },
    {
      "midi": 69,
      "hit": false,
      "t": 31083.33333333331,
      "d": 133.33333333333212,
      "v": 72
    },
    {
      "midi": 67,
      "hit": false,
      "t": 31249.999999999975,
      "d": 83.33333333333212,
      "v": 67
    },
    {
      "midi": 50,
      "hit": false,
      "t": 31433.333333333307,
      "d": 966.6666666666679,
      "v": 96
    },
    {
      "midi": 62,
      "hit": false,
      "t": 31616.66666666664,
      "d": 100,
      "v": 73
    },
    {
      "midi": 65,
      "hit": false,
      "t": 31783.333333333307,
      "d": 150,
      "v": 60
    },
    {
      "midi": 69,
      "hit": false,
      "t": 31949.999999999975,
      "d": 166.66666666666788,
      "v": 71
    },
    {
      "midi": 74,
      "hit": false,
      "t": 32149.999999999975,
      "d": 150,
      "v": 46
    },
    {
      "midi": 69,
      "hit": false,
      "t": 32316.666666666642,
      "d": 216.66666666666424,
      "v": 51
    },
    {
      "midi": 65,
      "hit": false,
      "t": 32499.999999999975,
      "d": 166.66666666666424,
      "v": 71
    },
    {
      "midi": 62,
      "hit": false,
      "t": 32683.333333333307,
      "d": 116.66666666666424,
      "v": 58
    },
    {
      "midi": 50,
      "hit": false,
      "t": 32883.33333333331,
      "d": 400.0000000000073,
      "v": 103
    },
    {
      "midi": 62,
      "hit": false,
      "t": 33049.99999999998,
      "d": 133.33333333333576,
      "v": 72
    },
    {
      "midi": 65,
      "hit": false,
      "t": 33233.333333333314,
      "d": 166.66666666666424,
      "v": 62
    },
    {
      "midi": 69,
      "hit": false,
      "t": 33399.99999999998,
      "d": 116.66666666666424,
      "v": 98
    },
    {
      "midi": 48,
      "hit": false,
      "t": 33599.99999999997,
      "d": 350.0000000000073,
      "v": 117
    },
    {
      "midi": 60,
      "hit": false,
      "t": 33766.66666666664,
      "d": 133.33333333333576,
      "v": 55
    },
    {
      "midi": 65,
      "hit": false,
      "t": 33949.99999999998,
      "d": 200,
      "v": 63
    },
    {
      "midi": 69,
      "hit": false,
      "t": 34133.333333333314,
      "d": 100,
      "v": 83
    },
    {
      "midi": 46,
      "hit": false,
      "t": 34299.99999999998,
      "d": 383.33333333333576,
      "v": 70
    },
    {
      "midi": 58,
      "hit": false,
      "t": 34466.66666666664,
      "d": 133.33333333333576,
      "v": 87
    },
    {
      "midi": 62,
      "hit": false,
      "t": 34649.99999999998,
      "d": 166.66666666667152,
      "v": 77
    },
    {
      "midi": 65,
      "hit": false,
      "t": 34833.333333333314,
      "d": 116.66666666667152,
      "v": 75
    },
    {
      "midi": 43,
      "hit": false,
      "t": 34999.999999999985,
      "d": 333.3333333333285,
      "v": 82
    },
    {
      "midi": 55,
      "hit": false,
      "t": 35216.66666666665,
      "d": 116.66666666666424,
      "v": 32
    },
    {
      "midi": 58,
      "hit": false,
      "t": 35399.99999999998,
      "d": 200,
      "v": 50
    },
    {
      "midi": 62,
      "hit": false,
      "t": 35616.66666666664,
      "d": 116.66666666666424,
      "v": 91
    },
    {
      "midi": 41,
      "hit": false,
      "t": 35849.99999999997,
      "d": 2100,
      "v": 96
    },
    {
      "midi": 48,
      "hit": false,
      "t": 36066.66666666664,
      "d": 1949.9999999999927,
      "v": 75
    },
    {
      "midi": 53,
      "hit": false,
      "t": 36299.99999999998,
      "d": 1749.9999999999927,
      "v": 91
    },
    {
      "midi": 55,
      "hit": false,
      "t": 36566.66666666664,
      "d": 133.33333333333576,
      "v": 75
    },
    {
      "midi": 57,
      "hit": false,
      "t": 36816.66666666664,
      "d": 216.66666666666424,
      "v": 86
    },
    {
      "midi": 60,
      "hit": false,
      "t": 37049.99999999997,
      "d": 100,
      "v": 60
    },
    {
      "midi": 65,
      "hit": false,
      "t": 37316.666666666635,
      "d": 166.66666666666424,
      "v": 108
    },
    {
      "midi": 67,
      "hit": false,
      "t": 37566.666666666635,
      "d": 150,
      "v": 77
    },
    {
      "midi": 69,
      "hit": false,
      "t": 37866.666666666635,
      "d": 100,
      "v": 103
    },
    {
      "midi": 57,
      "hit": false,
      "t": 48366.666666666664,
      "d": 166.66666666666424,
      "v": 70
    },
    {
      "midi": 60,
      "hit": false,
      "t": 48366.666666666664,
      "d": 166.66666666666424,
      "v": 70
    },
    {
      "midi": 65,
      "hit": false,
      "t": 48366.666666666664,
      "d": 166.66666666666424,
      "v": 70
    },
    {
      "midi": 57,
      "hit": false,
      "t": 48616.666666666664,
      "d": 350,
      "v": 80
    },
    {
      "midi": 60,
      "hit": false,
      "t": 48616.666666666664,
      "d": 350,
      "v": 80
    },
    {
      "midi": 65,
      "hit": false,
      "t": 48616.666666666664,
      "d": 350,
      "v": 80
    },
    {
      "midi": 55,
      "hit": false,
      "t": 49083.33333333333,
      "d": 183.33333333333576,
      "v": 65
    },
    {
      "midi": 58,
      "hit": false,
      "t": 49083.33333333333,
      "d": 183.33333333333576,
      "v": 65
    },
    {
      "midi": 62,
      "hit": false,
      "t": 49083.33333333333,
      "d": 183.33333333333576,
      "v": 65
    },
    {
      "midi": 43,
      "hit": false,
      "t": 49333.33333333333,
      "d": 50,
      "v": 50
    },
    {
      "midi": 55,
      "hit": false,
      "t": 49433.33333333333,
      "d": 233.33333333333576,
      "v": 75
    },
    {
      "midi": 58,
      "hit": false,
      "t": 49433.33333333333,
      "d": 233.33333333333576,
      "v": 75
    },
    {
      "midi": 62,
      "hit": false,
      "t": 49433.33333333333,
      "d": 233.33333333333576,
      "v": 75
    },
    {
      "midi": 57,
      "hit": false,
      "t": 49800,
      "d": 183.33333333333576,
      "v": 65
    },
    {
      "midi": 60,
      "hit": false,
      "t": 49800,
      "d": 183.33333333333576,
      "v": 65
    },
    {
      "midi": 64,
      "hit": false,
      "t": 49800,
      "d": 183.33333333333576,
      "v": 65
    },
    {
      "midi": 69,
      "hit": false,
      "t": 49800,
      "d": 183.33333333333576,
      "v": 65
    },
    {
      "midi": 45,
      "hit": false,
      "t": 50050,
      "d": 50,
      "v": 50
    },
    {
      "midi": 57,
      "hit": false,
      "t": 50150,
      "d": 233.33333333333576,
      "v": 75
    },
    {
      "midi": 60,
      "hit": false,
      "t": 50150,
      "d": 233.33333333333576,
      "v": 75
    },
    {
      "midi": 64,
      "hit": false,
      "t": 50150,
      "d": 233.33333333333576,
      "v": 75
    },
    {
      "midi": 69,
      "hit": false,
      "t": 50150,
      "d": 233.33333333333576,
      "v": 75
    },
    {
      "midi": 60,
      "hit": false,
      "t": 50516.66666666667,
      "d": 166.66666666666424,
      "v": 70
    },
    {
      "midi": 64,
      "hit": false,
      "t": 50516.66666666667,
      "d": 166.66666666666424,
      "v": 70
    },
    {
      "midi": 67,
      "hit": false,
      "t": 50516.66666666667,
      "d": 166.66666666666424,
      "v": 70
    },
    {
      "midi": 72,
      "hit": false,
      "t": 50516.66666666667,
      "d": 166.66666666666424,
      "v": 70
    },
    {
      "midi": 60,
      "hit": false,
      "t": 50766.66666666667,
      "d": 350,
      "v": 80
    },
    {
      "midi": 64,
      "hit": false,
      "t": 50766.66666666667,
      "d": 350,
      "v": 80
    },
    {
      "midi": 67,
      "hit": false,
      "t": 50766.66666666667,
      "d": 350,
      "v": 80
    },
    {
      "midi": 72,
      "hit": false,
      "t": 50766.66666666667,
      "d": 350,
      "v": 80
    },
    {
      "midi": 57,
      "hit": false,
      "t": 51233.333333333336,
      "d": 166.66666666666424,
      "v": 70
    },
    {
      "midi": 60,
      "hit": false,
      "t": 51233.333333333336,
      "d": 166.66666666666424,
      "v": 70
    },
    {
      "midi": 65,
      "hit": false,
      "t": 51233.333333333336,
      "d": 166.66666666666424,
      "v": 70
    },
    {
      "midi": 57,
      "hit": false,
      "t": 51483.333333333336,
      "d": 350,
      "v": 80
    },
    {
      "midi": 60,
      "hit": false,
      "t": 51483.333333333336,
      "d": 350,
      "v": 80
    },
    {
      "midi": 65,
      "hit": false,
      "t": 51483.333333333336,
      "d": 350,
      "v": 80
    },
    {
      "midi": 55,
      "hit": false,
      "t": 51933.333333333336,
      "d": 616.6666666666642,
      "v": 68
    },
    {
      "midi": 58,
      "hit": false,
      "t": 51933.333333333336,
      "d": 616.6666666666642,
      "v": 68
    },
    {
      "midi": 62,
      "hit": false,
      "t": 51933.333333333336,
      "d": 616.6666666666642,
      "v": 68
    },
    {
      "midi": 67,
      "hit": false,
      "t": 51933.333333333336,
      "d": 616.6666666666642,
      "v": 68
    },
    {
      "midi": 52,
      "hit": false,
      "t": 52650,
      "d": 616.6666666666642,
      "v": 68
    },
    {
      "midi": 55,
      "hit": false,
      "t": 52650,
      "d": 616.6666666666642,
      "v": 68
    },
    {
      "midi": 60,
      "hit": false,
      "t": 52650,
      "d": 616.6666666666642,
      "v": 68
    },
    {
      "midi": 53,
      "hit": false,
      "t": 53366.666666666664,
      "d": 183.33333333333576,
      "v": 65
    },
    {
      "midi": 57,
      "hit": false,
      "t": 53366.666666666664,
      "d": 183.33333333333576,
      "v": 65
    },
    {
      "midi": 60,
      "hit": false,
      "t": 53366.666666666664,
      "d": 183.33333333333576,
      "v": 65
    },
    {
      "midi": 53,
      "hit": false,
      "t": 53733.333333333336,
      "d": 233.33333333333576,
      "v": 75
    },
    {
      "midi": 57,
      "hit": false,
      "t": 53733.333333333336,
      "d": 233.33333333333576,
      "v": 75
    },
    {
      "midi": 60,
      "hit": false,
      "t": 53733.333333333336,
      "d": 233.33333333333576,
      "v": 75
    },
    {
      "midi": 53,
      "hit": false,
      "t": 54333.333333333336,
      "d": 233.33333333333576,
      "v": 75
    },
    {
      "midi": 57,
      "hit": false,
      "t": 54333.333333333336,
      "d": 233.33333333333576,
      "v": 75
    },
    {
      "midi": 60,
      "hit": false,
      "t": 54333.333333333336,
      "d": 233.33333333333576,
      "v": 75
    },
    {
      "midi": 41,
      "hit": false,
      "t": 54700.00000000001,
      "d": 50,
      "v": 44
    },
    {
      "midi": 53,
      "hit": false,
      "t": 54800.00000000001,
      "d": 616.6666666666642,
      "v": 68
    },
    {
      "midi": 57,
      "hit": false,
      "t": 54800.00000000001,
      "d": 616.6666666666642,
      "v": 68
    },
    {
      "midi": 60,
      "hit": false,
      "t": 54800.00000000001,
      "d": 616.6666666666642,
      "v": 68
    },
    {
      "midi": 65,
      "hit": false,
      "t": 54800.00000000001,
      "d": 616.6666666666642,
      "v": 68
    },
    {
      "midi": 53,
      "hit": false,
      "t": 55516.66666666667,
      "d": 550,
      "v": 75
    },
    {
      "midi": 57,
      "hit": false,
      "t": 55516.66666666667,
      "d": 550,
      "v": 75
    },
    {
      "midi": 60,
      "hit": false,
      "t": 55516.66666666667,
      "d": 550,
      "v": 75
    },
    {
      "midi": 65,
      "hit": false,
      "t": 55516.66666666667,
      "d": 550,
      "v": 75
    },
    {
      "midi": 53,
      "hit": false,
      "t": 56100.00000000001,
      "d": 116.66666666666424,
      "v": 60
    },
    {
      "midi": 57,
      "hit": false,
      "t": 56100.00000000001,
      "d": 116.66666666666424,
      "v": 60
    },
    {
      "midi": 60,
      "hit": false,
      "t": 56100.00000000001,
      "d": 116.66666666666424,
      "v": 60
    },
    {
      "midi": 65,
      "hit": false,
      "t": 56100.00000000001,
      "d": 116.66666666666424,
      "v": 60
    },
    {
      "midi": 53,
      "hit": false,
      "t": 56466.66666666667,
      "d": 83.33333333333576,
      "v": 70
    },
    {
      "midi": 57,
      "hit": false,
      "t": 56583.33333333334,
      "d": 83.33333333333576,
      "v": 70
    },
    {
      "midi": 60,
      "hit": false,
      "t": 56700.000000000015,
      "d": 83.33333333333576,
      "v": 70
    },
    {
      "midi": 65,
      "hit": false,
      "t": 56816.666666666686,
      "d": 83.33333333333576,
      "v": 70
    },
    {
      "midi": 53,
      "hit": false,
      "t": 56933.33333333336,
      "d": 183.33333333333576,
      "v": 70
    },
    {
      "midi": 57,
      "hit": false,
      "t": 56933.33333333336,
      "d": 183.33333333333576,
      "v": 70
    },
    {
      "midi": 60,
      "hit": false,
      "t": 56933.33333333336,
      "d": 183.33333333333576,
      "v": 70
    },
    {
      "midi": 65,
      "hit": false,
      "t": 56933.33333333336,
      "d": 183.33333333333576,
      "v": 70
    },
    {
      "midi": 53,
      "hit": false,
      "t": 57200.00000000003,
      "d": 100,
      "v": 70
    },
    {
      "midi": 57,
      "hit": false,
      "t": 57200.00000000003,
      "d": 100,
      "v": 70
    },
    {
      "midi": 60,
      "hit": false,
      "t": 57200.00000000003,
      "d": 100,
      "v": 70
    },
    {
      "midi": 65,
      "hit": false,
      "t": 57200.00000000003,
      "d": 100,
      "v": 70
    },
    {
      "midi": 53,
      "hit": false,
      "t": 57533.333333333365,
      "d": 683.3333333333358,
      "v": 70
    },
    {
      "midi": 57,
      "hit": false,
      "t": 57533.333333333365,
      "d": 683.3333333333358,
      "v": 70
    },
    {
      "midi": 60,
      "hit": false,
      "t": 57533.333333333365,
      "d": 683.3333333333358,
      "v": 70
    },
    {
      "midi": 65,
      "hit": false,
      "t": 57533.333333333365,
      "d": 683.3333333333358,
      "v": 70
    },
    {
      "midi": 57,
      "hit": false,
      "t": 58733.333333333365,
      "d": 233.33333333333576,
      "v": 70
    },
    {
      "midi": 60,
      "hit": false,
      "t": 58733.333333333365,
      "d": 233.33333333333576,
      "v": 70
    },
    {
      "midi": 64,
      "hit": false,
      "t": 58733.333333333365,
      "d": 233.33333333333576,
      "v": 70
    },
    {
      "midi": 69,
      "hit": false,
      "t": 58733.333333333365,
      "d": 233.33333333333576,
      "v": 70
    },
    {
      "midi": 57,
      "hit": false,
      "t": 59083.333333333365,
      "d": 166.66666666666424,
      "v": 70
    },
    {
      "midi": 60,
      "hit": false,
      "t": 59083.333333333365,
      "d": 166.66666666666424,
      "v": 70
    },
    {
      "midi": 64,
      "hit": false,
      "t": 59083.333333333365,
      "d": 166.66666666666424,
      "v": 70
    },
    {
      "midi": 57,
      "hit": false,
      "t": 59333.333333333365,
      "d": 83.33333333333576,
      "v": 70
    },
    {
      "midi": 60,
      "hit": false,
      "t": 59333.333333333365,
      "d": 83.33333333333576,
      "v": 70
    },
    {
      "midi": 64,
      "hit": false,
      "t": 59333.333333333365,
      "d": 83.33333333333576,
      "v": 70
    },
    {
      "midi": 57,
      "hit": false,
      "t": 59700.00000000004,
      "d": 83.33333333333576,
      "v": 70
    },
    {
      "midi": 60,
      "hit": false,
      "t": 59700.00000000004,
      "d": 83.33333333333576,
      "v": 70
    },
    {
      "midi": 64,
      "hit": false,
      "t": 59700.00000000004,
      "d": 83.33333333333576,
      "v": 70
    },
    {
      "midi": 57,
      "hit": false,
      "t": 60516.66666666671,
      "d": 183.33333333333576,
      "v": 65
    },
    {
      "midi": 60,
      "hit": false,
      "t": 60516.66666666671,
      "d": 183.33333333333576,
      "v": 65
    },
    {
      "midi": 64,
      "hit": false,
      "t": 60516.66666666671,
      "d": 183.33333333333576,
      "v": 65
    },
    {
      "midi": 69,
      "hit": false,
      "t": 60516.66666666671,
      "d": 183.33333333333576,
      "v": 65
    },
    {
      "midi": 57,
      "hit": false,
      "t": 60866.66666666671,
      "d": 233.33333333333576,
      "v": 75
    },
    {
      "midi": 60,
      "hit": false,
      "t": 60866.66666666671,
      "d": 233.33333333333576,
      "v": 75
    },
    {
      "midi": 64,
      "hit": false,
      "t": 60866.66666666671,
      "d": 233.33333333333576,
      "v": 75
    },
    {
      "midi": 69,
      "hit": false,
      "t": 60866.66666666671,
      "d": 233.33333333333576,
      "v": 75
    },
    {
      "midi": 53,
      "hit": false,
      "t": 61233.33333333338,
      "d": 183.33333333333576,
      "v": 70
    },
    {
      "midi": 62,
      "hit": false,
      "t": 61233.33333333338,
      "d": 183.33333333333576,
      "v": 70
    },
    {
      "midi": 69,
      "hit": false,
      "t": 61233.33333333338,
      "d": 183.33333333333576,
      "v": 70
    },
    {
      "midi": 53,
      "hit": false,
      "t": 61483.33333333338,
      "d": 100,
      "v": 70
    },
    {
      "midi": 62,
      "hit": false,
      "t": 61483.33333333338,
      "d": 100,
      "v": 70
    },
    {
      "midi": 69,
      "hit": false,
      "t": 61483.33333333338,
      "d": 100,
      "v": 70
    },
    {
      "midi": 53,
      "hit": false,
      "t": 61816.666666666715,
      "d": 683.3333333333358,
      "v": 70
    },
    {
      "midi": 62,
      "hit": false,
      "t": 61816.666666666715,
      "d": 683.3333333333358,
      "v": 70
    },
    {
      "midi": 69,
      "hit": false,
      "t": 61816.666666666715,
      "d": 683.3333333333358,
      "v": 70
    },
    {
      "midi": 55,
      "hit": false,
      "t": 62650.00000000005,
      "d": 166.66666666666424,
      "v": 70
    },
    {
      "midi": 58,
      "hit": false,
      "t": 62650.00000000005,
      "d": 166.66666666666424,
      "v": 70
    },
    {
      "midi": 62,
      "hit": false,
      "t": 62650.00000000005,
      "d": 166.66666666666424,
      "v": 70
    },
    {
      "midi": 67,
      "hit": false,
      "t": 62650.00000000005,
      "d": 166.66666666666424,
      "v": 70
    },
    {
      "midi": 55,
      "hit": false,
      "t": 62900.00000000005,
      "d": 350,
      "v": 80
    },
    {
      "midi": 58,
      "hit": false,
      "t": 62900.00000000005,
      "d": 350,
      "v": 80
    },
    {
      "midi": 62,
      "hit": false,
      "t": 62900.00000000005,
      "d": 350,
      "v": 80
    },
    {
      "midi": 67,
      "hit": false,
      "t": 62900.00000000005,
      "d": 350,
      "v": 80
    },
    {
      "midi": 52,
      "hit": false,
      "t": 63366.666666666715,
      "d": 183.33333333333576,
      "v": 65
    },
    {
      "midi": 60,
      "hit": false,
      "t": 63366.666666666715,
      "d": 183.33333333333576,
      "v": 65
    },
    {
      "midi": 67,
      "hit": false,
      "t": 63366.666666666715,
      "d": 183.33333333333576,
      "v": 65
    },
    {
      "midi": 36,
      "hit": false,
      "t": 63616.666666666715,
      "d": 50,
      "v": 50
    },
    {
      "midi": 52,
      "hit": false,
      "t": 63733.33333333338,
      "d": 233.33333333333576,
      "v": 75
    },
    {
      "midi": 60,
      "hit": false,
      "t": 63733.33333333338,
      "d": 233.33333333333576,
      "v": 75
    },
    {
      "midi": 67,
      "hit": false,
      "t": 63733.33333333338,
      "d": 233.33333333333576,
      "v": 75
    },
    {
      "midi": 53,
      "hit": false,
      "t": 64333.33333333338,
      "d": 233.33333333333576,
      "v": 75
    },
    {
      "midi": 57,
      "hit": false,
      "t": 64333.33333333338,
      "d": 233.33333333333576,
      "v": 75
    },
    {
      "midi": 60,
      "hit": false,
      "t": 64333.33333333338,
      "d": 233.33333333333576,
      "v": 75
    },
    {
      "midi": 65,
      "hit": false,
      "t": 64333.33333333338,
      "d": 233.33333333333576,
      "v": 75
    },
    {
      "midi": 41,
      "hit": false,
      "t": 64700.00000000005,
      "d": 50,
      "v": 44
    },
    {
      "midi": 53,
      "hit": false,
      "t": 64800.00000000005,
      "d": 616.6666666666642,
      "v": 68
    },
    {
      "midi": 57,
      "hit": false,
      "t": 64800.00000000005,
      "d": 616.6666666666642,
      "v": 68
    },
    {
      "midi": 60,
      "hit": false,
      "t": 64800.00000000005,
      "d": 616.6666666666642,
      "v": 68
    },
    {
      "midi": 65,
      "hit": false,
      "t": 64800.00000000005,
      "d": 616.6666666666642,
      "v": 68
    },
    {
      "midi": 53,
      "hit": false,
      "t": 65516.666666666715,
      "d": 550,
      "v": 75
    },
    {
      "midi": 57,
      "hit": false,
      "t": 65516.666666666715,
      "d": 550,
      "v": 75
    },
    {
      "midi": 60,
      "hit": false,
      "t": 65516.666666666715,
      "d": 550,
      "v": 75
    },
    {
      "midi": 65,
      "hit": false,
      "t": 65516.666666666715,
      "d": 550,
      "v": 75
    },
    {
      "midi": 53,
      "hit": false,
      "t": 66100.00000000004,
      "d": 116.66666666667152,
      "v": 60
    },
    {
      "midi": 57,
      "hit": false,
      "t": 66100.00000000004,
      "d": 116.66666666667152,
      "v": 60
    },
    {
      "midi": 60,
      "hit": false,
      "t": 66100.00000000004,
      "d": 116.66666666667152,
      "v": 60
    },
    {
      "midi": 65,
      "hit": false,
      "t": 66100.00000000004,
      "d": 116.66666666667152,
      "v": 60
    },
    {
      "midi": 53,
      "hit": false,
      "t": 66466.66666666672,
      "d": 83.33333333332848,
      "v": 70
    },
    {
      "midi": 57,
      "hit": false,
      "t": 66583.33333333337,
      "d": 83.33333333332848,
      "v": 70
    },
    {
      "midi": 60,
      "hit": false,
      "t": 66700.00000000003,
      "d": 83.33333333332848,
      "v": 70
    },
    {
      "midi": 65,
      "hit": false,
      "t": 66816.66666666669,
      "d": 83.33333333332848,
      "v": 70
    },
    {
      "midi": 53,
      "hit": false,
      "t": 66933.33333333334,
      "d": 1416.6666666666715,
      "v": 70
    },
    {
      "midi": 57,
      "hit": false,
      "t": 68366.66666666669,
      "d": 16.666666666671517,
      "v": 80
    },
    {
      "midi": 60,
      "hit": false,
      "t": 68366.66666666669,
      "d": 16.666666666671517,
      "v": 80
    },
    {
      "midi": 64,
      "hit": false,
      "t": 68366.66666666669,
      "d": 166.66666666667152,
      "v": 80
    },
    {
      "midi": 69,
      "hit": false,
      "t": 68366.66666666669,
      "d": 166.66666666667152,
      "v": 80
    },
    {
      "midi": 57,
      "hit": false,
      "t": 68733.33333333336,
      "d": 683.3333333333285,
      "v": 75
    },
    {
      "midi": 60,
      "hit": false,
      "t": 68733.33333333336,
      "d": 683.3333333333285,
      "v": 75
    },
    {
      "midi": 64,
      "hit": false,
      "t": 68733.33333333336,
      "d": 683.3333333333285,
      "v": 75
    },
    {
      "midi": 69,
      "hit": false,
      "t": 68733.33333333336,
      "d": 683.3333333333285,
      "v": 75
    },
    {
      "midi": 58,
      "hit": false,
      "t": 69700.00000000001,
      "d": 83.33333333332848,
      "v": 75
    },
    {
      "midi": 61,
      "hit": false,
      "t": 69700.00000000001,
      "d": 83.33333333332848,
      "v": 75
    },
    {
      "midi": 65,
      "hit": false,
      "t": 69700.00000000001,
      "d": 83.33333333332848,
      "v": 75
    },
    {
      "midi": 70,
      "hit": false,
      "t": 69700.00000000001,
      "d": 83.33333333332848,
      "v": 75
    },
    {
      "midi": 57,
      "hit": false,
      "t": 69800.00000000001,
      "d": 183.33333333332848,
      "v": 70
    },
    {
      "midi": 60,
      "hit": false,
      "t": 69800.00000000001,
      "d": 183.33333333332848,
      "v": 70
    },
    {
      "midi": 64,
      "hit": false,
      "t": 69800.00000000001,
      "d": 183.33333333332848,
      "v": 70
    },
    {
      "midi": 69,
      "hit": false,
      "t": 69800.00000000001,
      "d": 183.33333333332848,
      "v": 70
    },
    {
      "midi": 57,
      "hit": false,
      "t": 70050.00000000001,
      "d": 100,
      "v": 70
    },
    {
      "midi": 60,
      "hit": false,
      "t": 70050.00000000001,
      "d": 100,
      "v": 70
    },
    {
      "midi": 64,
      "hit": false,
      "t": 70050.00000000001,
      "d": 100,
      "v": 70
    },
    {
      "midi": 69,
      "hit": false,
      "t": 70050.00000000001,
      "d": 100,
      "v": 70
    },
    {
      "midi": 57,
      "hit": false,
      "t": 70400.00000000001,
      "d": 683.3333333333285,
      "v": 70
    },
    {
      "midi": 60,
      "hit": false,
      "t": 70400.00000000001,
      "d": 683.3333333333285,
      "v": 70
    },
    {
      "midi": 64,
      "hit": false,
      "t": 70400.00000000001,
      "d": 683.3333333333285,
      "v": 70
    },
    {
      "midi": 69,
      "hit": false,
      "t": 70400.00000000001,
      "d": 683.3333333333285,
      "v": 70
    },
    {
      "midi": 53,
      "hit": false,
      "t": 71233.33333333334,
      "d": 183.33333333332848,
      "v": 70
    },
    {
      "midi": 62,
      "hit": false,
      "t": 71233.33333333334,
      "d": 183.33333333332848,
      "v": 70
    },
    {
      "midi": 69,
      "hit": false,
      "t": 71233.33333333334,
      "d": 183.33333333332848,
      "v": 70
    },
    {
      "midi": 53,
      "hit": false,
      "t": 71483.33333333334,
      "d": 100,
      "v": 70
    },
    {
      "midi": 62,
      "hit": false,
      "t": 71483.33333333334,
      "d": 100,
      "v": 70
    },
    {
      "midi": 69,
      "hit": false,
      "t": 71483.33333333334,
      "d": 100,
      "v": 70
    },
    {
      "midi": 53,
      "hit": false,
      "t": 71816.66666666667,
      "d": 683.3333333333285,
      "v": 70
    },
    {
      "midi": 57,
      "hit": false,
      "t": 71816.66666666667,
      "d": 683.3333333333285,
      "v": 70
    },
    {
      "midi": 62,
      "hit": false,
      "t": 71816.66666666667,
      "d": 683.3333333333285,
      "v": 70
    },
    {
      "midi": 55,
      "hit": false,
      "t": 72650,
      "d": 616.6666666666715,
      "v": 68
    },
    {
      "midi": 58,
      "hit": false,
      "t": 72650,
      "d": 616.6666666666715,
      "v": 68
    },
    {
      "midi": 62,
      "hit": false,
      "t": 72650,
      "d": 616.6666666666715,
      "v": 68
    },
    {
      "midi": 67,
      "hit": false,
      "t": 72650,
      "d": 616.6666666666715,
      "v": 68
    },
    {
      "midi": 52,
      "hit": false,
      "t": 73366.66666666667,
      "d": 616.6666666666715,
      "v": 68
    },
    {
      "midi": 60,
      "hit": false,
      "t": 73366.66666666667,
      "d": 616.6666666666715,
      "v": 68
    },
    {
      "midi": 67,
      "hit": false,
      "t": 73366.66666666667,
      "d": 616.6666666666715,
      "v": 68
    },
    {
      "midi": 53,
      "hit": false,
      "t": 74083.33333333334,
      "d": 616.6666666666715,
      "v": 68
    },
    {
      "midi": 57,
      "hit": false,
      "t": 74083.33333333334,
      "d": 616.6666666666715,
      "v": 68
    },
    {
      "midi": 60,
      "hit": false,
      "t": 74083.33333333334,
      "d": 616.6666666666715,
      "v": 68
    },
    {
      "midi": 53,
      "hit": false,
      "t": 74800.00000000001,
      "d": 183.33333333332848,
      "v": 65
    },
    {
      "midi": 57,
      "hit": false,
      "t": 74800.00000000001,
      "d": 183.33333333332848,
      "v": 65
    },
    {
      "midi": 60,
      "hit": false,
      "t": 74800.00000000001,
      "d": 183.33333333332848,
      "v": 65
    },
    {
      "midi": 65,
      "hit": false,
      "t": 74800.00000000001,
      "d": 183.33333333332848,
      "v": 65
    },
    {
      "midi": 53,
      "hit": false,
      "t": 75150.00000000001,
      "d": 233.33333333332848,
      "v": 75
    },
    {
      "midi": 57,
      "hit": false,
      "t": 75150.00000000001,
      "d": 233.33333333332848,
      "v": 75
    },
    {
      "midi": 60,
      "hit": false,
      "t": 75150.00000000001,
      "d": 233.33333333332848,
      "v": 75
    },
    {
      "midi": 65,
      "hit": false,
      "t": 75150.00000000001,
      "d": 233.33333333332848,
      "v": 75
    },
    {
      "midi": 53,
      "hit": false,
      "t": 75766.66666666667,
      "d": 233.33333333332848,
      "v": 75
    },
    {
      "midi": 57,
      "hit": false,
      "t": 75766.66666666667,
      "d": 233.33333333332848,
      "v": 75
    },
    {
      "midi": 60,
      "hit": false,
      "t": 75766.66666666667,
      "d": 233.33333333332848,
      "v": 75
    },
    {
      "midi": 65,
      "hit": false,
      "t": 75766.66666666667,
      "d": 233.33333333332848,
      "v": 75
    },
    {
      "midi": 41,
      "hit": false,
      "t": 76116.66666666667,
      "d": 50,
      "v": 44
    },
    {
      "midi": 53,
      "hit": false,
      "t": 76233.33333333334,
      "d": 616.6666666666715,
      "v": 68
    },
    {
      "midi": 57,
      "hit": false,
      "t": 76233.33333333334,
      "d": 616.6666666666715,
      "v": 68
    },
    {
      "midi": 60,
      "hit": false,
      "t": 76233.33333333334,
      "d": 616.6666666666715,
      "v": 68
    },
    {
      "midi": 53,
      "hit": false,
      "t": 76933.33333333334,
      "d": 550,
      "v": 75
    },
    {
      "midi": 57,
      "hit": false,
      "t": 76933.33333333334,
      "d": 550,
      "v": 75
    },
    {
      "midi": 60,
      "hit": false,
      "t": 76933.33333333334,
      "d": 550,
      "v": 75
    },
    {
      "midi": 65,
      "hit": false,
      "t": 76933.33333333334,
      "d": 550,
      "v": 75
    },
    {
      "midi": 53,
      "hit": false,
      "t": 77533.33333333334,
      "d": 116.66666666667152,
      "v": 60
    },
    {
      "midi": 57,
      "hit": false,
      "t": 77533.33333333334,
      "d": 116.66666666667152,
      "v": 60
    },
    {
      "midi": 60,
      "hit": false,
      "t": 77533.33333333334,
      "d": 116.66666666667152,
      "v": 60
    },
    {
      "midi": 65,
      "hit": false,
      "t": 77533.33333333334,
      "d": 116.66666666667152,
      "v": 60
    },
    {
      "midi": 53,
      "hit": false,
      "t": 77900.00000000001,
      "d": 83.33333333332848,
      "v": 70
    },
    {
      "midi": 57,
      "hit": false,
      "t": 78016.66666666667,
      "d": 83.33333333332848,
      "v": 70
    },
    {
      "midi": 60,
      "hit": false,
      "t": 78133.33333333333,
      "d": 83.33333333332848,
      "v": 70
    },
    {
      "midi": 65,
      "hit": false,
      "t": 78249.99999999999,
      "d": 83.33333333332848,
      "v": 70
    },
    {
      "midi": 53,
      "hit": false,
      "t": 78366.66666666664,
      "d": 183.33333333332848,
      "v": 70
    },
    {
      "midi": 57,
      "hit": false,
      "t": 78366.66666666664,
      "d": 183.33333333332848,
      "v": 70
    },
    {
      "midi": 60,
      "hit": false,
      "t": 78366.66666666664,
      "d": 183.33333333332848,
      "v": 70
    },
    {
      "midi": 65,
      "hit": false,
      "t": 78366.66666666664,
      "d": 183.33333333332848,
      "v": 70
    },
    {
      "midi": 53,
      "hit": false,
      "t": 78616.66666666664,
      "d": 100,
      "v": 70
    },
    {
      "midi": 57,
      "hit": false,
      "t": 78616.66666666664,
      "d": 100,
      "v": 70
    },
    {
      "midi": 60,
      "hit": false,
      "t": 78616.66666666664,
      "d": 100,
      "v": 70
    },
    {
      "midi": 65,
      "hit": false,
      "t": 78616.66666666664,
      "d": 100,
      "v": 70
    },
    {
      "midi": 53,
      "hit": false,
      "t": 78966.66666666664,
      "d": 683.3333333333285,
      "v": 70
    },
    {
      "midi": 57,
      "hit": false,
      "t": 78966.66666666664,
      "d": 683.3333333333285,
      "v": 70
    },
    {
      "midi": 60,
      "hit": false,
      "t": 78966.66666666664,
      "d": 683.3333333333285,
      "v": 70
    },
    {
      "midi": 65,
      "hit": false,
      "t": 78966.66666666664,
      "d": 683.3333333333285,
      "v": 70
    },
    {
      "midi": 57,
      "hit": false,
      "t": 79799.99999999997,
      "d": 166.66666666667152,
      "v": 80
    },
    {
      "midi": 60,
      "hit": false,
      "t": 79799.99999999997,
      "d": 166.66666666667152,
      "v": 80
    },
    {
      "midi": 64,
      "hit": false,
      "t": 79799.99999999997,
      "d": 166.66666666667152,
      "v": 80
    },
    {
      "midi": 57,
      "hit": false,
      "t": 80149.99999999997,
      "d": 683.3333333333285,
      "v": 75
    },
    {
      "midi": 60,
      "hit": false,
      "t": 80149.99999999997,
      "d": 683.3333333333285,
      "v": 75
    },
    {
      "midi": 64,
      "hit": false,
      "t": 80149.99999999997,
      "d": 683.3333333333285,
      "v": 75
    },
    {
      "midi": 58,
      "hit": false,
      "t": 81116.66666666663,
      "d": 83.33333333332848,
      "v": 75
    },
    {
      "midi": 61,
      "hit": false,
      "t": 81116.66666666663,
      "d": 83.33333333332848,
      "v": 75
    },
    {
      "midi": 65,
      "hit": false,
      "t": 81116.66666666663,
      "d": 83.33333333332848,
      "v": 75
    },
    {
      "midi": 57,
      "hit": false,
      "t": 81233.33333333328,
      "d": 183.33333333332848,
      "v": 70
    },
    {
      "midi": 60,
      "hit": false,
      "t": 81233.33333333328,
      "d": 183.33333333332848,
      "v": 70
    },
    {
      "midi": 64,
      "hit": false,
      "t": 81233.33333333328,
      "d": 183.33333333332848,
      "v": 70
    },
    {
      "midi": 57,
      "hit": false,
      "t": 81483.33333333328,
      "d": 100,
      "v": 70
    },
    {
      "midi": 60,
      "hit": false,
      "t": 81483.33333333328,
      "d": 100,
      "v": 70
    },
    {
      "midi": 64,
      "hit": false,
      "t": 81483.33333333328,
      "d": 100,
      "v": 70
    },
    {
      "midi": 57,
      "hit": false,
      "t": 81816.66666666661,
      "d": 683.3333333333285,
      "v": 70
    },
    {
      "midi": 60,
      "hit": false,
      "t": 81816.66666666661,
      "d": 683.3333333333285,
      "v": 70
    },
    {
      "midi": 64,
      "hit": false,
      "t": 81816.66666666661,
      "d": 683.3333333333285,
      "v": 70
    },
    {
      "midi": 53,
      "hit": false,
      "t": 82649.99999999994,
      "d": 616.6666666666715,
      "v": 68
    },
    {
      "midi": 62,
      "hit": false,
      "t": 82649.99999999994,
      "d": 616.6666666666715,
      "v": 68
    },
    {
      "midi": 69,
      "hit": false,
      "t": 82649.99999999994,
      "d": 616.6666666666715,
      "v": 68
    },
    {
      "midi": 53,
      "hit": false,
      "t": 83366.66666666661,
      "d": 183.33333333332848,
      "v": 65
    },
    {
      "midi": 62,
      "hit": false,
      "t": 83366.66666666661,
      "d": 183.33333333332848,
      "v": 65
    },
    {
      "midi": 69,
      "hit": false,
      "t": 83366.66666666661,
      "d": 183.33333333332848,
      "v": 65
    },
    {
      "midi": 38,
      "hit": false,
      "t": 83616.66666666661,
      "d": 50,
      "v": 50
    },
    {
      "midi": 53,
      "hit": false,
      "t": 83733.33333333328,
      "d": 233.33333333332848,
      "v": 75
    },
    {
      "midi": 62,
      "hit": false,
      "t": 83733.33333333328,
      "d": 233.33333333332848,
      "v": 75
    },
    {
      "midi": 69,
      "hit": false,
      "t": 83733.33333333328,
      "d": 233.33333333332848,
      "v": 75
    },
    {
      "midi": 55,
      "hit": false,
      "t": 84083.33333333328,
      "d": 616.6666666666715,
      "v": 68
    },
    {
      "midi": 58,
      "hit": false,
      "t": 84083.33333333328,
      "d": 616.6666666666715,
      "v": 68
    },
    {
      "midi": 62,
      "hit": false,
      "t": 84083.33333333328,
      "d": 616.6666666666715,
      "v": 68
    },
    {
      "midi": 67,
      "hit": false,
      "t": 84083.33333333328,
      "d": 616.6666666666715,
      "v": 68
    },
    {
      "midi": 52,
      "hit": false,
      "t": 84799.99999999996,
      "d": 616.6666666666715,
      "v": 68
    },
    {
      "midi": 55,
      "hit": false,
      "t": 84799.99999999996,
      "d": 616.6666666666715,
      "v": 68
    },
    {
      "midi": 60,
      "hit": false,
      "t": 84799.99999999996,
      "d": 616.6666666666715,
      "v": 68
    },
    {
      "midi": 53,
      "hit": false,
      "t": 85866.66666666663,
      "d": 233.33333333332848,
      "v": 70
    },
    {
      "midi": 57,
      "hit": false,
      "t": 85866.66666666663,
      "d": 233.33333333332848,
      "v": 70
    },
    {
      "midi": 60,
      "hit": false,
      "t": 85866.66666666663,
      "d": 233.33333333332848,
      "v": 70
    },
    {
      "midi": 53,
      "hit": false,
      "t": 86233.33333333328,
      "d": 166.66666666667152,
      "v": 70
    },
    {
      "midi": 57,
      "hit": false,
      "t": 86233.33333333328,
      "d": 166.66666666667152,
      "v": 70
    },
    {
      "midi": 60,
      "hit": false,
      "t": 86233.33333333328,
      "d": 166.66666666667152,
      "v": 70
    },
    {
      "midi": 53,
      "hit": false,
      "t": 86483.33333333328,
      "d": 83.33333333332848,
      "v": 70
    },
    {
      "midi": 57,
      "hit": false,
      "t": 86483.33333333328,
      "d": 83.33333333332848,
      "v": 70
    },
    {
      "midi": 60,
      "hit": false,
      "t": 86483.33333333328,
      "d": 83.33333333332848,
      "v": 70
    },
    {
      "midi": 53,
      "hit": false,
      "t": 86833.33333333328,
      "d": 83.33333333332848,
      "v": 70
    },
    {
      "midi": 57,
      "hit": false,
      "t": 86833.33333333328,
      "d": 83.33333333332848,
      "v": 70
    },
    {
      "midi": 60,
      "hit": false,
      "t": 86833.33333333328,
      "d": 83.33333333332848,
      "v": 70
    },
    {
      "midi": 53,
      "hit": false,
      "t": 87649.99999999994,
      "d": 183.33333333332848,
      "v": 65
    },
    {
      "midi": 57,
      "hit": false,
      "t": 87649.99999999994,
      "d": 183.33333333332848,
      "v": 65
    },
    {
      "midi": 60,
      "hit": false,
      "t": 87649.99999999994,
      "d": 183.33333333332848,
      "v": 65
    },
    {
      "midi": 41,
      "hit": false,
      "t": 87899.99999999994,
      "d": 50,
      "v": 30
    },
    {
      "midi": 53,
      "hit": false,
      "t": 88016.66666666661,
      "d": 233.33333333332848,
      "v": 75
    },
    {
      "midi": 57,
      "hit": false,
      "t": 88016.66666666661,
      "d": 233.33333333332848,
      "v": 75
    },
    {
      "midi": 60,
      "hit": false,
      "t": 88016.66666666661,
      "d": 233.33333333332848,
      "v": 75
    },
    {
      "midi": 53,
      "hit": false,
      "t": 88366.66666666661,
      "d": 183.33333333332848,
      "v": 70
    },
    {
      "midi": 57,
      "hit": false,
      "t": 88366.66666666661,
      "d": 183.33333333332848,
      "v": 70
    },
    {
      "midi": 60,
      "hit": false,
      "t": 88366.66666666661,
      "d": 183.33333333332848,
      "v": 70
    },
    {
      "midi": 65,
      "hit": false,
      "t": 88366.66666666661,
      "d": 183.33333333332848,
      "v": 70
    },
    {
      "midi": 53,
      "hit": false,
      "t": 88616.66666666661,
      "d": 100,
      "v": 70
    },
    {
      "midi": 57,
      "hit": false,
      "t": 88616.66666666661,
      "d": 100,
      "v": 70
    },
    {
      "midi": 60,
      "hit": false,
      "t": 88616.66666666661,
      "d": 100,
      "v": 70
    },
    {
      "midi": 65,
      "hit": false,
      "t": 88616.66666666661,
      "d": 100,
      "v": 70
    },
    {
      "midi": 53,
      "hit": false,
      "t": 88966.66666666661,
      "d": 683.3333333333285,
      "v": 70
    },
    {
      "midi": 57,
      "hit": false,
      "t": 88966.66666666661,
      "d": 683.3333333333285,
      "v": 70
    },
    {
      "midi": 60,
      "hit": false,
      "t": 88966.66666666661,
      "d": 683.3333333333285,
      "v": 70
    },
    {
      "midi": 65,
      "hit": false,
      "t": 88966.66666666661,
      "d": 683.3333333333285,
      "v": 70
    },
    {
      "midi": 57,
      "hit": false,
      "t": 90149.99999999994,
      "d": 233.33333333332848,
      "v": 70
    },
    {
      "midi": 60,
      "hit": false,
      "t": 90149.99999999994,
      "d": 233.33333333332848,
      "v": 70
    },
    {
      "midi": 64,
      "hit": false,
      "t": 90149.99999999994,
      "d": 233.33333333332848,
      "v": 70
    },
    {
      "midi": 69,
      "hit": false,
      "t": 90149.99999999994,
      "d": 233.33333333332848,
      "v": 70
    },
    {
      "midi": 57,
      "hit": false,
      "t": 90516.6666666666,
      "d": 166.66666666667152,
      "v": 70
    },
    {
      "midi": 60,
      "hit": false,
      "t": 90516.6666666666,
      "d": 166.66666666667152,
      "v": 70
    },
    {
      "midi": 64,
      "hit": false,
      "t": 90516.6666666666,
      "d": 166.66666666667152,
      "v": 70
    },
    {
      "midi": 57,
      "hit": false,
      "t": 90766.6666666666,
      "d": 83.33333333332848,
      "v": 70
    },
    {
      "midi": 60,
      "hit": false,
      "t": 90766.6666666666,
      "d": 83.33333333332848,
      "v": 70
    },
    {
      "midi": 64,
      "hit": false,
      "t": 90766.6666666666,
      "d": 83.33333333332848,
      "v": 70
    },
    {
      "midi": 57,
      "hit": false,
      "t": 91116.6666666666,
      "d": 83.33333333332848,
      "v": 70
    },
    {
      "midi": 60,
      "hit": false,
      "t": 91116.6666666666,
      "d": 83.33333333332848,
      "v": 70
    },
    {
      "midi": 64,
      "hit": false,
      "t": 91116.6666666666,
      "d": 83.33333333332848,
      "v": 70
    },
    {
      "midi": 57,
      "hit": false,
      "t": 91933.33333333326,
      "d": 183.33333333332848,
      "v": 65
    },
    {
      "midi": 60,
      "hit": false,
      "t": 91933.33333333326,
      "d": 183.33333333332848,
      "v": 65
    },
    {
      "midi": 64,
      "hit": false,
      "t": 91933.33333333326,
      "d": 183.33333333332848,
      "v": 65
    },
    {
      "midi": 45,
      "hit": false,
      "t": 92199.99999999991,
      "d": 50,
      "v": 30
    },
    {
      "midi": 57,
      "hit": false,
      "t": 92299.99999999991,
      "d": 233.33333333332848,
      "v": 75
    },
    {
      "midi": 60,
      "hit": false,
      "t": 92299.99999999991,
      "d": 233.33333333332848,
      "v": 75
    },
    {
      "midi": 64,
      "hit": false,
      "t": 92299.99999999991,
      "d": 233.33333333332848,
      "v": 75
    },
    {
      "midi": 53,
      "hit": false,
      "t": 92649.99999999991,
      "d": 183.33333333332848,
      "v": 70
    },
    {
      "midi": 62,
      "hit": false,
      "t": 92649.99999999991,
      "d": 183.33333333332848,
      "v": 70
    },
    {
      "midi": 69,
      "hit": false,
      "t": 92649.99999999991,
      "d": 183.33333333332848,
      "v": 70
    },
    {
      "midi": 53,
      "hit": false,
      "t": 92899.99999999991,
      "d": 100,
      "v": 70
    },
    {
      "midi": 62,
      "hit": false,
      "t": 92899.99999999991,
      "d": 100,
      "v": 70
    },
    {
      "midi": 69,
      "hit": false,
      "t": 92899.99999999991,
      "d": 100,
      "v": 70
    },
    {
      "midi": 53,
      "hit": false,
      "t": 93249.99999999991,
      "d": 683.3333333333285,
      "v": 70
    },
    {
      "midi": 62,
      "hit": false,
      "t": 93249.99999999991,
      "d": 683.3333333333285,
      "v": 70
    },
    {
      "midi": 69,
      "hit": false,
      "t": 93249.99999999991,
      "d": 683.3333333333285,
      "v": 70
    },
    {
      "midi": 55,
      "hit": false,
      "t": 94083.33333333324,
      "d": 616.6666666666715,
      "v": 68
    },
    {
      "midi": 58,
      "hit": false,
      "t": 94083.33333333324,
      "d": 616.6666666666715,
      "v": 68
    },
    {
      "midi": 62,
      "hit": false,
      "t": 94083.33333333324,
      "d": 616.6666666666715,
      "v": 68
    },
    {
      "midi": 67,
      "hit": false,
      "t": 94083.33333333324,
      "d": 616.6666666666715,
      "v": 68
    },
    {
      "midi": 52,
      "hit": false,
      "t": 94799.99999999991,
      "d": 183.33333333332848,
      "v": 65
    },
    {
      "midi": 55,
      "hit": false,
      "t": 94799.99999999991,
      "d": 183.33333333332848,
      "v": 65
    },
    {
      "midi": 60,
      "hit": false,
      "t": 94799.99999999991,
      "d": 183.33333333332848,
      "v": 65
    },
    {
      "midi": 52,
      "hit": false,
      "t": 95149.99999999991,
      "d": 233.33333333332848,
      "v": 75
    },
    {
      "midi": 55,
      "hit": false,
      "t": 95149.99999999991,
      "d": 233.33333333332848,
      "v": 75
    },
    {
      "midi": 60,
      "hit": false,
      "t": 95149.99999999991,
      "d": 233.33333333332848,
      "v": 75
    },
    {
      "midi": 53,
      "hit": false,
      "t": 95516.66666666657,
      "d": 616.6666666666715,
      "v": 68
    },
    {
      "midi": 57,
      "hit": false,
      "t": 95516.66666666657,
      "d": 616.6666666666715,
      "v": 68
    },
    {
      "midi": 60,
      "hit": false,
      "t": 95516.66666666657,
      "d": 616.6666666666715,
      "v": 68
    },
    {
      "midi": 53,
      "hit": false,
      "t": 96233.33333333324,
      "d": 183.33333333332848,
      "v": 65
    },
    {
      "midi": 57,
      "hit": false,
      "t": 96233.33333333324,
      "d": 183.33333333332848,
      "v": 65
    },
    {
      "midi": 60,
      "hit": false,
      "t": 96233.33333333324,
      "d": 183.33333333332848,
      "v": 65
    },
    {
      "midi": 41,
      "hit": false,
      "t": 96483.33333333324,
      "d": 50,
      "v": 30
    },
    {
      "midi": 53,
      "hit": false,
      "t": 96583.33333333324,
      "d": 233.33333333332848,
      "v": 75
    },
    {
      "midi": 57,
      "hit": false,
      "t": 96583.33333333324,
      "d": 233.33333333332848,
      "v": 75
    },
    {
      "midi": 60,
      "hit": false,
      "t": 96583.33333333324,
      "d": 233.33333333332848,
      "v": 75
    },
    {
      "midi": 53,
      "hit": false,
      "t": 105516.66666666657,
      "d": 616.6666666666715,
      "v": 68
    },
    {
      "midi": 57,
      "hit": false,
      "t": 105516.66666666657,
      "d": 616.6666666666715,
      "v": 68
    },
    {
      "midi": 60,
      "hit": false,
      "t": 105516.66666666657,
      "d": 616.6666666666715,
      "v": 68
    },
    {
      "midi": 55,
      "hit": false,
      "t": 106233.33333333324,
      "d": 166.66666666667152,
      "v": 70
    },
    {
      "midi": 58,
      "hit": false,
      "t": 106233.33333333324,
      "d": 166.66666666667152,
      "v": 70
    },
    {
      "midi": 62,
      "hit": false,
      "t": 106233.33333333324,
      "d": 166.66666666667152,
      "v": 70
    },
    {
      "midi": 55,
      "hit": false,
      "t": 106483.33333333324,
      "d": 350,
      "v": 80
    },
    {
      "midi": 58,
      "hit": false,
      "t": 106483.33333333324,
      "d": 350,
      "v": 80
    },
    {
      "midi": 62,
      "hit": false,
      "t": 106483.33333333324,
      "d": 350,
      "v": 80
    },
    {
      "midi": 57,
      "hit": false,
      "t": 106933.33333333324,
      "d": 183.33333333332848,
      "v": 65
    },
    {
      "midi": 60,
      "hit": false,
      "t": 106933.33333333324,
      "d": 183.33333333332848,
      "v": 65
    },
    {
      "midi": 64,
      "hit": false,
      "t": 106933.33333333324,
      "d": 183.33333333332848,
      "v": 65
    },
    {
      "midi": 45,
      "hit": false,
      "t": 107199.9999999999,
      "d": 50,
      "v": 50
    },
    {
      "midi": 57,
      "hit": false,
      "t": 107299.9999999999,
      "d": 233.33333333332848,
      "v": 75
    },
    {
      "midi": 60,
      "hit": false,
      "t": 107299.9999999999,
      "d": 233.33333333332848,
      "v": 75
    },
    {
      "midi": 64,
      "hit": false,
      "t": 107299.9999999999,
      "d": 233.33333333332848,
      "v": 75
    },
    {
      "midi": 52,
      "hit": false,
      "t": 107649.9999999999,
      "d": 183.33333333332848,
      "v": 65
    },
    {
      "midi": 60,
      "hit": false,
      "t": 107649.9999999999,
      "d": 183.33333333332848,
      "v": 65
    },
    {
      "midi": 67,
      "hit": false,
      "t": 107649.9999999999,
      "d": 183.33333333332848,
      "v": 65
    },
    {
      "midi": 36,
      "hit": false,
      "t": 107899.9999999999,
      "d": 50,
      "v": 30
    },
    {
      "midi": 52,
      "hit": false,
      "t": 108016.66666666657,
      "d": 233.33333333332848,
      "v": 75
    },
    {
      "midi": 60,
      "hit": false,
      "t": 108016.66666666657,
      "d": 233.33333333332848,
      "v": 75
    },
    {
      "midi": 67,
      "hit": false,
      "t": 108016.66666666657,
      "d": 233.33333333332848,
      "v": 75
    },
    {
      "midi": 53,
      "hit": false,
      "t": 108366.66666666657,
      "d": 183.33333333332848,
      "v": 65
    },
    {
      "midi": 57,
      "hit": false,
      "t": 108366.66666666657,
      "d": 183.33333333332848,
      "v": 65
    },
    {
      "midi": 60,
      "hit": false,
      "t": 108366.66666666657,
      "d": 183.33333333332848,
      "v": 65
    },
    {
      "midi": 41,
      "hit": false,
      "t": 108616.66666666657,
      "d": 50,
      "v": 50
    },
    {
      "midi": 53,
      "hit": false,
      "t": 108733.33333333324,
      "d": 233.33333333332848,
      "v": 75
    },
    {
      "midi": 57,
      "hit": false,
      "t": 108733.33333333324,
      "d": 233.33333333332848,
      "v": 75
    },
    {
      "midi": 60,
      "hit": false,
      "t": 108733.33333333324,
      "d": 233.33333333332848,
      "v": 75
    },
    {
      "midi": 55,
      "hit": false,
      "t": 109083.33333333324,
      "d": 616.6666666666715,
      "v": 68
    },
    {
      "midi": 58,
      "hit": false,
      "t": 109083.33333333324,
      "d": 616.6666666666715,
      "v": 68
    },
    {
      "midi": 62,
      "hit": false,
      "t": 109083.33333333324,
      "d": 616.6666666666715,
      "v": 68
    },
    {
      "midi": 67,
      "hit": false,
      "t": 109083.33333333324,
      "d": 616.6666666666715,
      "v": 68
    },
    {
      "midi": 52,
      "hit": false,
      "t": 109799.99999999991,
      "d": 616.6666666666715,
      "v": 68
    },
    {
      "midi": 60,
      "hit": false,
      "t": 109799.99999999991,
      "d": 616.6666666666715,
      "v": 68
    },
    {
      "midi": 67,
      "hit": false,
      "t": 109799.99999999991,
      "d": 616.6666666666715,
      "v": 68
    },
    {
      "midi": 53,
      "hit": false,
      "t": 110516.66666666658,
      "d": 166.66666666667152,
      "v": 70
    },
    {
      "midi": 57,
      "hit": false,
      "t": 110516.66666666658,
      "d": 166.66666666667152,
      "v": 70
    },
    {
      "midi": 60,
      "hit": false,
      "t": 110516.66666666658,
      "d": 166.66666666667152,
      "v": 70
    },
    {
      "midi": 53,
      "hit": false,
      "t": 110766.66666666658,
      "d": 350,
      "v": 80
    },
    {
      "midi": 57,
      "hit": false,
      "t": 110766.66666666658,
      "d": 350,
      "v": 80
    },
    {
      "midi": 60,
      "hit": false,
      "t": 110766.66666666658,
      "d": 350,
      "v": 80
    },
    {
      "midi": 53,
      "hit": false,
      "t": 111233.33333333326,
      "d": 183.33333333332848,
      "v": 70
    },
    {
      "midi": 57,
      "hit": false,
      "t": 111233.33333333326,
      "d": 183.33333333332848,
      "v": 70
    },
    {
      "midi": 60,
      "hit": false,
      "t": 111233.33333333326,
      "d": 183.33333333332848,
      "v": 70
    },
    {
      "midi": 65,
      "hit": false,
      "t": 111233.33333333326,
      "d": 183.33333333332848,
      "v": 70
    },
    {
      "midi": 53,
      "hit": false,
      "t": 111483.33333333326,
      "d": 100,
      "v": 70
    },
    {
      "midi": 57,
      "hit": false,
      "t": 111483.33333333326,
      "d": 100,
      "v": 70
    },
    {
      "midi": 60,
      "hit": false,
      "t": 111483.33333333326,
      "d": 100,
      "v": 70
    },
    {
      "midi": 65,
      "hit": false,
      "t": 111483.33333333326,
      "d": 100,
      "v": 70
    },
    {
      "midi": 53,
      "hit": false,
      "t": 111816.66666666658,
      "d": 683.3333333333285,
      "v": 70
    },
    {
      "midi": 57,
      "hit": false,
      "t": 111816.66666666658,
      "d": 683.3333333333285,
      "v": 70
    },
    {
      "midi": 60,
      "hit": false,
      "t": 111816.66666666658,
      "d": 683.3333333333285,
      "v": 70
    },
    {
      "midi": 53,
      "hit": false,
      "t": 112899.99999999991,
      "d": 233.33333333332848,
      "v": 75
    },
    {
      "midi": 57,
      "hit": false,
      "t": 112899.99999999991,
      "d": 233.33333333332848,
      "v": 75
    },
    {
      "midi": 60,
      "hit": false,
      "t": 112899.99999999991,
      "d": 233.33333333332848,
      "v": 75
    },
    {
      "midi": 65,
      "hit": false,
      "t": 112899.99999999991,
      "d": 233.33333333332848,
      "v": 75
    },
    {
      "midi": 41,
      "hit": false,
      "t": 113266.66666666657,
      "d": 50,
      "v": 44
    },
    {
      "midi": 53,
      "hit": false,
      "t": 113366.66666666657,
      "d": 616.6666666666715,
      "v": 68
    },
    {
      "midi": 57,
      "hit": false,
      "t": 113366.66666666657,
      "d": 616.6666666666715,
      "v": 68
    },
    {
      "midi": 60,
      "hit": false,
      "t": 113366.66666666657,
      "d": 616.6666666666715,
      "v": 68
    },
    {
      "midi": 53,
      "hit": false,
      "t": 114083.33333333324,
      "d": 183.33333333332848,
      "v": 70
    },
    {
      "midi": 57,
      "hit": false,
      "t": 114083.33333333324,
      "d": 183.33333333332848,
      "v": 70
    },
    {
      "midi": 60,
      "hit": false,
      "t": 114083.33333333324,
      "d": 183.33333333332848,
      "v": 70
    },
    {
      "midi": 53,
      "hit": false,
      "t": 114333.33333333324,
      "d": 100,
      "v": 70
    },
    {
      "midi": 57,
      "hit": false,
      "t": 114333.33333333324,
      "d": 100,
      "v": 70
    },
    {
      "midi": 60,
      "hit": false,
      "t": 114333.33333333324,
      "d": 100,
      "v": 70
    },
    {
      "midi": 53,
      "hit": false,
      "t": 114683.33333333324,
      "d": 683.3333333333285,
      "v": 70
    },
    {
      "midi": 57,
      "hit": false,
      "t": 114683.33333333324,
      "d": 683.3333333333285,
      "v": 70
    },
    {
      "midi": 60,
      "hit": false,
      "t": 114683.33333333324,
      "d": 683.3333333333285,
      "v": 70
    },
    {
      "midi": 57,
      "hit": false,
      "t": 115866.66666666657,
      "d": 233.33333333332848,
      "v": 70
    },
    {
      "midi": 60,
      "hit": false,
      "t": 115866.66666666657,
      "d": 233.33333333332848,
      "v": 70
    },
    {
      "midi": 64,
      "hit": false,
      "t": 115866.66666666657,
      "d": 233.33333333332848,
      "v": 70
    },
    {
      "midi": 69,
      "hit": false,
      "t": 115866.66666666657,
      "d": 233.33333333332848,
      "v": 70
    },
    {
      "midi": 57,
      "hit": false,
      "t": 116233.33333333323,
      "d": 166.66666666667152,
      "v": 70
    },
    {
      "midi": 60,
      "hit": false,
      "t": 116233.33333333323,
      "d": 166.66666666667152,
      "v": 70
    },
    {
      "midi": 64,
      "hit": false,
      "t": 116233.33333333323,
      "d": 166.66666666667152,
      "v": 70
    },
    {
      "midi": 57,
      "hit": false,
      "t": 116483.33333333323,
      "d": 83.33333333332848,
      "v": 70
    },
    {
      "midi": 60,
      "hit": false,
      "t": 116483.33333333323,
      "d": 83.33333333332848,
      "v": 70
    },
    {
      "midi": 64,
      "hit": false,
      "t": 116483.33333333323,
      "d": 83.33333333332848,
      "v": 70
    },
    {
      "midi": 57,
      "hit": false,
      "t": 116833.33333333323,
      "d": 83.33333333332848,
      "v": 70
    },
    {
      "midi": 60,
      "hit": false,
      "t": 116833.33333333323,
      "d": 83.33333333332848,
      "v": 70
    },
    {
      "midi": 64,
      "hit": false,
      "t": 116833.33333333323,
      "d": 83.33333333332848,
      "v": 70
    },
    {
      "midi": 57,
      "hit": false,
      "t": 117649.99999999988,
      "d": 183.33333333332848,
      "v": 65
    },
    {
      "midi": 60,
      "hit": false,
      "t": 117649.99999999988,
      "d": 183.33333333332848,
      "v": 65
    },
    {
      "midi": 64,
      "hit": false,
      "t": 117649.99999999988,
      "d": 183.33333333332848,
      "v": 65
    },
    {
      "midi": 69,
      "hit": false,
      "t": 117649.99999999988,
      "d": 183.33333333332848,
      "v": 65
    },
    {
      "midi": 45,
      "hit": false,
      "t": 117899.99999999988,
      "d": 50,
      "v": 30
    },
    {
      "midi": 57,
      "hit": false,
      "t": 118016.66666666656,
      "d": 233.33333333332848,
      "v": 75
    },
    {
      "midi": 60,
      "hit": false,
      "t": 118016.66666666656,
      "d": 233.33333333332848,
      "v": 75
    },
    {
      "midi": 64,
      "hit": false,
      "t": 118016.66666666656,
      "d": 233.33333333332848,
      "v": 75
    },
    {
      "midi": 69,
      "hit": false,
      "t": 118016.66666666656,
      "d": 233.33333333332848,
      "v": 75
    },
    {
      "midi": 53,
      "hit": false,
      "t": 118366.66666666656,
      "d": 616.6666666666715,
      "v": 68
    },
    {
      "midi": 62,
      "hit": false,
      "t": 118366.66666666656,
      "d": 616.6666666666715,
      "v": 68
    },
    {
      "midi": 69,
      "hit": false,
      "t": 118366.66666666656,
      "d": 616.6666666666715,
      "v": 68
    },
    {
      "midi": 53,
      "hit": false,
      "t": 119083.33333333323,
      "d": 183.33333333332848,
      "v": 65
    },
    {
      "midi": 62,
      "hit": false,
      "t": 119083.33333333323,
      "d": 183.33333333332848,
      "v": 65
    },
    {
      "midi": 69,
      "hit": false,
      "t": 119083.33333333323,
      "d": 183.33333333332848,
      "v": 65
    },
    {
      "midi": 38,
      "hit": false,
      "t": 119333.33333333323,
      "d": 50,
      "v": 30
    },
    {
      "midi": 53,
      "hit": false,
      "t": 119433.33333333323,
      "d": 233.33333333332848,
      "v": 75
    },
    {
      "midi": 62,
      "hit": false,
      "t": 119433.33333333323,
      "d": 233.33333333332848,
      "v": 75
    },
    {
      "midi": 69,
      "hit": false,
      "t": 119433.33333333323,
      "d": 233.33333333332848,
      "v": 75
    },
    {
      "midi": 55,
      "hit": false,
      "t": 119799.99999999988,
      "d": 616.6666666666715,
      "v": 68
    },
    {
      "midi": 58,
      "hit": false,
      "t": 119799.99999999988,
      "d": 616.6666666666715,
      "v": 68
    },
    {
      "midi": 62,
      "hit": false,
      "t": 119799.99999999988,
      "d": 616.6666666666715,
      "v": 68
    },
    {
      "midi": 67,
      "hit": false,
      "t": 119799.99999999988,
      "d": 616.6666666666715,
      "v": 68
    },
    {
      "midi": 52,
      "hit": false,
      "t": 120516.66666666656,
      "d": 183.33333333332848,
      "v": 65
    },
    {
      "midi": 60,
      "hit": false,
      "t": 120516.66666666656,
      "d": 183.33333333332848,
      "v": 65
    },
    {
      "midi": 67,
      "hit": false,
      "t": 120516.66666666656,
      "d": 183.33333333332848,
      "v": 65
    },
    {
      "midi": 36,
      "hit": false,
      "t": 120766.66666666656,
      "d": 50,
      "v": 30
    },
    {
      "midi": 52,
      "hit": false,
      "t": 120866.66666666656,
      "d": 233.33333333332848,
      "v": 75
    },
    {
      "midi": 60,
      "hit": false,
      "t": 120866.66666666656,
      "d": 233.33333333332848,
      "v": 75
    },
    {
      "midi": 67,
      "hit": false,
      "t": 120866.66666666656,
      "d": 233.33333333332848,
      "v": 75
    },
    {
      "midi": 53,
      "hit": false,
      "t": 121583.33333333321,
      "d": 233.33333333332848,
      "v": 70
    },
    {
      "midi": 57,
      "hit": false,
      "t": 121583.33333333321,
      "d": 233.33333333332848,
      "v": 70
    },
    {
      "midi": 60,
      "hit": false,
      "t": 121583.33333333321,
      "d": 233.33333333332848,
      "v": 70
    },
    {
      "midi": 65,
      "hit": false,
      "t": 121583.33333333321,
      "d": 233.33333333332848,
      "v": 70
    },
    {
      "midi": 53,
      "hit": false,
      "t": 121933.33333333321,
      "d": 166.66666666667152,
      "v": 70
    },
    {
      "midi": 57,
      "hit": false,
      "t": 121933.33333333321,
      "d": 166.66666666667152,
      "v": 70
    },
    {
      "midi": 60,
      "hit": false,
      "t": 121933.33333333321,
      "d": 166.66666666667152,
      "v": 70
    },
    {
      "midi": 53,
      "hit": false,
      "t": 122199.99999999988,
      "d": 83.33333333332848,
      "v": 70
    },
    {
      "midi": 57,
      "hit": false,
      "t": 122199.99999999988,
      "d": 83.33333333332848,
      "v": 70
    },
    {
      "midi": 60,
      "hit": false,
      "t": 122199.99999999988,
      "d": 83.33333333332848,
      "v": 70
    },
    {
      "midi": 53,
      "hit": false,
      "t": 122549.99999999988,
      "d": 83.33333333332848,
      "v": 70
    },
    {
      "midi": 57,
      "hit": false,
      "t": 122549.99999999988,
      "d": 83.33333333332848,
      "v": 70
    },
    {
      "midi": 60,
      "hit": false,
      "t": 122549.99999999988,
      "d": 83.33333333332848,
      "v": 70
    },
    {
      "midi": 53,
      "hit": false,
      "t": 123366.66666666654,
      "d": 183.33333333332848,
      "v": 65
    },
    {
      "midi": 57,
      "hit": false,
      "t": 123366.66666666654,
      "d": 183.33333333332848,
      "v": 65
    },
    {
      "midi": 60,
      "hit": false,
      "t": 123366.66666666654,
      "d": 183.33333333332848,
      "v": 65
    },
    {
      "midi": 65,
      "hit": false,
      "t": 123366.66666666654,
      "d": 183.33333333332848,
      "v": 65
    },
    {
      "midi": 41,
      "hit": false,
      "t": 123616.66666666654,
      "d": 50,
      "v": 50
    },
    {
      "midi": 53,
      "hit": false,
      "t": 123733.33333333321,
      "d": 233.33333333332848,
      "v": 75
    },
    {
      "midi": 57,
      "hit": false,
      "t": 123733.33333333321,
      "d": 233.33333333332848,
      "v": 75
    },
    {
      "midi": 60,
      "hit": false,
      "t": 123733.33333333321,
      "d": 233.33333333332848,
      "v": 75
    },
    {
      "midi": 65,
      "hit": false,
      "t": 123733.33333333321,
      "d": 233.33333333332848,
      "v": 75
    },
    {
      "midi": 53,
      "hit": false,
      "t": 124083.33333333321,
      "d": 1416.6666666666715,
      "v": 70
    },
    {
      "midi": 57,
      "hit": false,
      "t": 124083.33333333321,
      "d": 1416.6666666666715,
      "v": 70
    },
    {
      "midi": 60,
      "hit": false,
      "t": 124083.33333333321,
      "d": 1416.6666666666715,
      "v": 70
    },
    {
      "midi": 57,
      "hit": false,
      "t": 125766.66666666656,
      "d": 233.33333333332848,
      "v": 75
    },
    {
      "midi": 60,
      "hit": false,
      "t": 125766.66666666656,
      "d": 233.33333333332848,
      "v": 75
    },
    {
      "midi": 64,
      "hit": false,
      "t": 125766.66666666656,
      "d": 233.33333333332848,
      "v": 75
    },
    {
      "midi": 69,
      "hit": false,
      "t": 125766.66666666656,
      "d": 233.33333333332848,
      "v": 75
    },
    {
      "midi": 45,
      "hit": false,
      "t": 126116.66666666656,
      "d": 50,
      "v": 44
    },
    {
      "midi": 57,
      "hit": false,
      "t": 126233.33333333323,
      "d": 616.6666666666715,
      "v": 68
    },
    {
      "midi": 60,
      "hit": false,
      "t": 126233.33333333323,
      "d": 616.6666666666715,
      "v": 68
    },
    {
      "midi": 64,
      "hit": false,
      "t": 126233.33333333323,
      "d": 616.6666666666715,
      "v": 68
    },
    {
      "midi": 57,
      "hit": false,
      "t": 126933.33333333323,
      "d": 550,
      "v": 75
    },
    {
      "midi": 60,
      "hit": false,
      "t": 126933.33333333323,
      "d": 550,
      "v": 75
    },
    {
      "midi": 64,
      "hit": false,
      "t": 126933.33333333323,
      "d": 550,
      "v": 75
    },
    {
      "midi": 69,
      "hit": false,
      "t": 126933.33333333323,
      "d": 550,
      "v": 75
    },
    {
      "midi": 57,
      "hit": false,
      "t": 127533.33333333323,
      "d": 116.66666666667152,
      "v": 60
    },
    {
      "midi": 60,
      "hit": false,
      "t": 127533.33333333323,
      "d": 116.66666666667152,
      "v": 60
    },
    {
      "midi": 64,
      "hit": false,
      "t": 127533.33333333323,
      "d": 116.66666666667152,
      "v": 60
    },
    {
      "midi": 69,
      "hit": false,
      "t": 127533.33333333323,
      "d": 116.66666666667152,
      "v": 60
    },
    {
      "midi": 57,
      "hit": false,
      "t": 127899.9999999999,
      "d": 83.33333333332848,
      "v": 70
    },
    {
      "midi": 60,
      "hit": false,
      "t": 128016.66666666656,
      "d": 83.33333333332848,
      "v": 70
    },
    {
      "midi": 64,
      "hit": false,
      "t": 128133.33333333321,
      "d": 83.33333333332848,
      "v": 70
    },
    {
      "midi": 69,
      "hit": false,
      "t": 128249.99999999987,
      "d": 83.33333333332848,
      "v": 70
    },
    {
      "midi": 65,
      "hit": false,
      "t": 128366.66666666653,
      "d": 1416.6666666666715,
      "v": 70
    },
    {
      "midi": 69,
      "hit": false,
      "t": 128366.66666666653,
      "d": 1416.6666666666715,
      "v": 70
    },
    {
      "midi": 74,
      "hit": false,
      "t": 128366.66666666653,
      "d": 1416.6666666666715,
      "v": 70
    },
    {
      "midi": 62,
      "hit": false,
      "t": 129799.99999999987,
      "d": 16.666666666671517,
      "v": 68
    },
    {
      "midi": 58,
      "hit": false,
      "t": 129799.99999999987,
      "d": 616.6666666666715,
      "v": 68
    },
    {
      "midi": 67,
      "hit": false,
      "t": 129799.99999999987,
      "d": 616.6666666666715,
      "v": 68
    },
    {
      "midi": 60,
      "hit": false,
      "t": 130516.66666666654,
      "d": 616.666666666657,
      "v": 68
    },
    {
      "midi": 64,
      "hit": false,
      "t": 130516.66666666654,
      "d": 616.666666666657,
      "v": 68
    },
    {
      "midi": 67,
      "hit": false,
      "t": 130516.66666666654,
      "d": 616.666666666657,
      "v": 68
    },
    {
      "midi": 72,
      "hit": false,
      "t": 130516.66666666654,
      "d": 616.666666666657,
      "v": 68
    },
    {
      "midi": 57,
      "hit": false,
      "t": 131233.3333333332,
      "d": 616.666666666657,
      "v": 68
    },
    {
      "midi": 65,
      "hit": false,
      "t": 131233.3333333332,
      "d": 616.666666666657,
      "v": 68
    },
    {
      "midi": 72,
      "hit": false,
      "t": 131233.3333333332,
      "d": 616.666666666657,
      "v": 68
    },
    {
      "midi": 57,
      "hit": false,
      "t": 131933.3333333332,
      "d": 183.33333333334303,
      "v": 65
    },
    {
      "midi": 65,
      "hit": false,
      "t": 131933.3333333332,
      "d": 183.33333333334303,
      "v": 65
    },
    {
      "midi": 72,
      "hit": false,
      "t": 131933.3333333332,
      "d": 183.33333333334303,
      "v": 65
    },
    {
      "midi": 41,
      "hit": false,
      "t": 132199.99999999988,
      "d": 50,
      "v": 50
    },
    {
      "midi": 57,
      "hit": false,
      "t": 132299.99999999988,
      "d": 233.33333333334303,
      "v": 75
    },
    {
      "midi": 65,
      "hit": false,
      "t": 132299.99999999988,
      "d": 233.33333333334303,
      "v": 75
    },
    {
      "midi": 72,
      "hit": false,
      "t": 132299.99999999988,
      "d": 233.33333333334303,
      "v": 75
    },
    {
      "midi": 57,
      "hit": false,
      "t": 132649.99999999988,
      "d": 183.33333333334303,
      "v": 70
    },
    {
      "midi": 60,
      "hit": false,
      "t": 132649.99999999988,
      "d": 183.33333333334303,
      "v": 70
    },
    {
      "midi": 65,
      "hit": false,
      "t": 132649.99999999988,
      "d": 183.33333333334303,
      "v": 70
    },
    {
      "midi": 57,
      "hit": false,
      "t": 132899.99999999988,
      "d": 100,
      "v": 70
    },
    {
      "midi": 60,
      "hit": false,
      "t": 132899.99999999988,
      "d": 100,
      "v": 70
    },
    {
      "midi": 65,
      "hit": false,
      "t": 132899.99999999988,
      "d": 100,
      "v": 70
    },
    {
      "midi": 57,
      "hit": false,
      "t": 133249.99999999988,
      "d": 683.333333333343,
      "v": 70
    },
    {
      "midi": 65,
      "hit": false,
      "t": 133249.99999999988,
      "d": 683.333333333343,
      "v": 70
    },
    {
      "midi": 72,
      "hit": false,
      "t": 133249.99999999988,
      "d": 683.333333333343,
      "v": 70
    },
    {
      "midi": 57,
      "hit": false,
      "t": 134333.33333333323,
      "d": 233.33333333334303,
      "v": 75
    },
    {
      "midi": 65,
      "hit": false,
      "t": 134333.33333333323,
      "d": 233.33333333334303,
      "v": 75
    },
    {
      "midi": 72,
      "hit": false,
      "t": 134333.33333333323,
      "d": 233.33333333334303,
      "v": 75
    },
    {
      "midi": 41,
      "hit": false,
      "t": 134699.9999999999,
      "d": 50,
      "v": 44
    },
    {
      "midi": 57,
      "hit": false,
      "t": 134799.9999999999,
      "d": 616.666666666657,
      "v": 68
    },
    {
      "midi": 65,
      "hit": false,
      "t": 134799.9999999999,
      "d": 616.666666666657,
      "v": 68
    },
    {
      "midi": 72,
      "hit": false,
      "t": 134799.9999999999,
      "d": 616.666666666657,
      "v": 68
    },
    {
      "midi": 57,
      "hit": false,
      "t": 135516.66666666657,
      "d": 183.33333333334303,
      "v": 70
    },
    {
      "midi": 60,
      "hit": false,
      "t": 135516.66666666657,
      "d": 183.33333333334303,
      "v": 70
    },
    {
      "midi": 65,
      "hit": false,
      "t": 135516.66666666657,
      "d": 183.33333333334303,
      "v": 70
    },
    {
      "midi": 57,
      "hit": false,
      "t": 135766.66666666657,
      "d": 100,
      "v": 70
    },
    {
      "midi": 60,
      "hit": false,
      "t": 135766.66666666657,
      "d": 100,
      "v": 70
    },
    {
      "midi": 65,
      "hit": false,
      "t": 135766.66666666657,
      "d": 100,
      "v": 70
    },
    {
      "midi": 57,
      "hit": false,
      "t": 136099.9999999999,
      "d": 683.333333333343,
      "v": 70
    },
    {
      "midi": 65,
      "hit": false,
      "t": 136099.9999999999,
      "d": 683.333333333343,
      "v": 70
    },
    {
      "midi": 72,
      "hit": false,
      "t": 136099.9999999999,
      "d": 683.333333333343,
      "v": 70
    },
    {
      "midi": 57,
      "hit": false,
      "t": 137199.9999999999,
      "d": 233.33333333334303,
      "v": 75
    },
    {
      "midi": 60,
      "hit": false,
      "t": 137199.9999999999,
      "d": 233.33333333334303,
      "v": 75
    },
    {
      "midi": 64,
      "hit": false,
      "t": 137199.9999999999,
      "d": 233.33333333334303,
      "v": 75
    },
    {
      "midi": 69,
      "hit": false,
      "t": 137199.9999999999,
      "d": 233.33333333334303,
      "v": 75
    },
    {
      "midi": 45,
      "hit": false,
      "t": 137549.9999999999,
      "d": 50,
      "v": 44
    },
    {
      "midi": 57,
      "hit": false,
      "t": 137649.9999999999,
      "d": 616.666666666657,
      "v": 68
    },
    {
      "midi": 60,
      "hit": false,
      "t": 137649.9999999999,
      "d": 616.666666666657,
      "v": 68
    },
    {
      "midi": 64,
      "hit": false,
      "t": 137649.9999999999,
      "d": 616.666666666657,
      "v": 68
    },
    {
      "midi": 69,
      "hit": false,
      "t": 137649.9999999999,
      "d": 616.666666666657,
      "v": 68
    },
    {
      "midi": 57,
      "hit": false,
      "t": 138366.66666666657,
      "d": 550,
      "v": 75
    },
    {
      "midi": 60,
      "hit": false,
      "t": 138366.66666666657,
      "d": 550,
      "v": 75
    },
    {
      "midi": 64,
      "hit": false,
      "t": 138366.66666666657,
      "d": 550,
      "v": 75
    },
    {
      "midi": 57,
      "hit": false,
      "t": 138966.66666666657,
      "d": 116.66666666665697,
      "v": 60
    },
    {
      "midi": 60,
      "hit": false,
      "t": 138966.66666666657,
      "d": 116.66666666665697,
      "v": 60
    },
    {
      "midi": 64,
      "hit": false,
      "t": 138966.66666666657,
      "d": 116.66666666665697,
      "v": 60
    },
    {
      "midi": 57,
      "hit": false,
      "t": 139316.66666666657,
      "d": 83.33333333334303,
      "v": 70
    },
    {
      "midi": 60,
      "hit": false,
      "t": 139433.33333333326,
      "d": 83.33333333334303,
      "v": 70
    },
    {
      "midi": 64,
      "hit": false,
      "t": 139566.6666666666,
      "d": 83.33333333334303,
      "v": 70
    },
    {
      "midi": 57,
      "hit": false,
      "t": 139683.33333333328,
      "d": 83.33333333334303,
      "v": 70
    },
    {
      "midi": 53,
      "hit": false,
      "t": 140049.99999999997,
      "d": 233.33333333331393,
      "v": 75
    },
    {
      "midi": 62,
      "hit": false,
      "t": 140049.99999999997,
      "d": 233.33333333331393,
      "v": 75
    },
    {
      "midi": 69,
      "hit": false,
      "t": 140066.66666666663,
      "d": 233.33333333331393,
      "v": 75
    },
    {
      "midi": 38,
      "hit": false,
      "t": 140399.99999999994,
      "d": 50,
      "v": 44
    },
    {
      "midi": 53,
      "hit": false,
      "t": 140516.6666666666,
      "d": 616.666666666657,
      "v": 68
    },
    {
      "midi": 62,
      "hit": false,
      "t": 140516.6666666666,
      "d": 616.666666666657,
      "v": 68
    },
    {
      "midi": 69,
      "hit": false,
      "t": 140516.6666666666,
      "d": 616.666666666657,
      "v": 68
    },
    {
      "midi": 55,
      "hit": false,
      "t": 141233.33333333326,
      "d": 616.666666666657,
      "v": 68
    },
    {
      "midi": 58,
      "hit": false,
      "t": 141233.33333333326,
      "d": 616.666666666657,
      "v": 68
    },
    {
      "midi": 62,
      "hit": false,
      "t": 141233.33333333326,
      "d": 616.666666666657,
      "v": 68
    },
    {
      "midi": 52,
      "hit": false,
      "t": 141933.33333333326,
      "d": 616.666666666657,
      "v": 68
    },
    {
      "midi": 55,
      "hit": false,
      "t": 141933.33333333326,
      "d": 616.666666666657,
      "v": 68
    },
    {
      "midi": 60,
      "hit": false,
      "t": 141933.33333333326,
      "d": 616.666666666657,
      "v": 68
    },
    {
      "midi": 53,
      "hit": false,
      "t": 142649.9999999999,
      "d": 183.33333333334303,
      "v": 70
    },
    {
      "midi": 57,
      "hit": false,
      "t": 142649.9999999999,
      "d": 183.33333333334303,
      "v": 70
    },
    {
      "midi": 60,
      "hit": false,
      "t": 142649.9999999999,
      "d": 183.33333333334303,
      "v": 70
    },
    {
      "midi": 53,
      "hit": false,
      "t": 142899.9999999999,
      "d": 100,
      "v": 70
    },
    {
      "midi": 57,
      "hit": false,
      "t": 142899.9999999999,
      "d": 100,
      "v": 70
    },
    {
      "midi": 60,
      "hit": false,
      "t": 142899.9999999999,
      "d": 100,
      "v": 70
    },
    {
      "midi": 53,
      "hit": false,
      "t": 143249.9999999999,
      "d": 683.333333333343,
      "v": 70
    },
    {
      "midi": 57,
      "hit": false,
      "t": 143249.9999999999,
      "d": 683.333333333343,
      "v": 70
    },
    {
      "midi": 60,
      "hit": false,
      "t": 143249.9999999999,
      "d": 683.333333333343,
      "v": 70
    },
    {
      "midi": 65,
      "hit": false,
      "t": 143249.9999999999,
      "d": 683.333333333343,
      "v": 70
    },
    {
      "midi": 53,
      "hit": false,
      "t": 144333.33333333326,
      "d": 233.33333333334303,
      "v": 75
    },
    {
      "midi": 57,
      "hit": false,
      "t": 144333.33333333326,
      "d": 233.33333333334303,
      "v": 75
    },
    {
      "midi": 60,
      "hit": false,
      "t": 144333.33333333326,
      "d": 233.33333333334303,
      "v": 75
    },
    {
      "midi": 65,
      "hit": false,
      "t": 144333.33333333326,
      "d": 233.33333333334303,
      "v": 75
    },
    {
      "midi": 41,
      "hit": false,
      "t": 144699.99999999994,
      "d": 50,
      "v": 44
    },
    {
      "midi": 53,
      "hit": false,
      "t": 144799.99999999994,
      "d": 616.666666666657,
      "v": 68
    },
    {
      "midi": 57,
      "hit": false,
      "t": 144799.99999999994,
      "d": 616.666666666657,
      "v": 68
    },
    {
      "midi": 60,
      "hit": false,
      "t": 144799.99999999994,
      "d": 616.666666666657,
      "v": 68
    },
    {
      "midi": 53,
      "hit": false,
      "t": 145516.6666666666,
      "d": 616.666666666657,
      "v": 68
    },
    {
      "midi": 57,
      "hit": false,
      "t": 145516.6666666666,
      "d": 616.666666666657,
      "v": 68
    },
    {
      "midi": 60,
      "hit": false,
      "t": 145516.6666666666,
      "d": 616.666666666657,
      "v": 68
    },
    {
      "midi": 53,
      "hit": false,
      "t": 146233.33333333326,
      "d": 183.33333333334303,
      "v": 65
    },
    {
      "midi": 57,
      "hit": false,
      "t": 146233.33333333326,
      "d": 183.33333333334303,
      "v": 65
    },
    {
      "midi": 60,
      "hit": false,
      "t": 146233.33333333326,
      "d": 183.33333333334303,
      "v": 65
    },
    {
      "midi": 65,
      "hit": false,
      "t": 146233.33333333326,
      "d": 183.33333333334303,
      "v": 65
    },
    {
      "midi": 41,
      "hit": false,
      "t": 146483.33333333326,
      "d": 50,
      "v": 50
    },
    {
      "midi": 53,
      "hit": false,
      "t": 146583.33333333326,
      "d": 233.33333333334303,
      "v": 75
    },
    {
      "midi": 57,
      "hit": false,
      "t": 146583.33333333326,
      "d": 233.33333333334303,
      "v": 75
    },
    {
      "midi": 60,
      "hit": false,
      "t": 146583.33333333326,
      "d": 233.33333333334303,
      "v": 75
    },
    {
      "midi": 65,
      "hit": false,
      "t": 146583.33333333326,
      "d": 233.33333333334303,
      "v": 75
    },
    {
      "midi": 57,
      "hit": false,
      "t": 147199.99999999994,
      "d": 233.33333333334303,
      "v": 75
    },
    {
      "midi": 60,
      "hit": false,
      "t": 147199.99999999994,
      "d": 233.33333333334303,
      "v": 75
    },
    {
      "midi": 64,
      "hit": false,
      "t": 147199.99999999994,
      "d": 233.33333333334303,
      "v": 75
    },
    {
      "midi": 69,
      "hit": false,
      "t": 147199.99999999994,
      "d": 233.33333333334303,
      "v": 75
    },
    {
      "midi": 45,
      "hit": false,
      "t": 147549.99999999994,
      "d": 50,
      "v": 44
    },
    {
      "midi": 57,
      "hit": false,
      "t": 147649.99999999994,
      "d": 616.666666666657,
      "v": 68
    },
    {
      "midi": 60,
      "hit": false,
      "t": 147649.99999999994,
      "d": 616.666666666657,
      "v": 68
    },
    {
      "midi": 64,
      "hit": false,
      "t": 147649.99999999994,
      "d": 616.666666666657,
      "v": 68
    },
    {
      "midi": 69,
      "hit": false,
      "t": 147649.99999999994,
      "d": 616.666666666657,
      "v": 68
    },
    {
      "midi": 57,
      "hit": false,
      "t": 148366.6666666666,
      "d": 550,
      "v": 75
    },
    {
      "midi": 60,
      "hit": false,
      "t": 148366.6666666666,
      "d": 550,
      "v": 75
    },
    {
      "midi": 64,
      "hit": false,
      "t": 148366.6666666666,
      "d": 550,
      "v": 75
    },
    {
      "midi": 69,
      "hit": false,
      "t": 148366.6666666666,
      "d": 550,
      "v": 75
    },
    {
      "midi": 57,
      "hit": false,
      "t": 148966.6666666666,
      "d": 116.66666666665697,
      "v": 60
    },
    {
      "midi": 60,
      "hit": false,
      "t": 148966.6666666666,
      "d": 116.66666666665697,
      "v": 60
    },
    {
      "midi": 64,
      "hit": false,
      "t": 148966.6666666666,
      "d": 116.66666666665697,
      "v": 60
    },
    {
      "midi": 69,
      "hit": false,
      "t": 148966.6666666666,
      "d": 116.66666666665697,
      "v": 60
    },
    {
      "midi": 57,
      "hit": false,
      "t": 149316.6666666666,
      "d": 83.33333333334303,
      "v": 70
    },
    {
      "midi": 60,
      "hit": false,
      "t": 149433.33333333328,
      "d": 83.33333333334303,
      "v": 70
    },
    {
      "midi": 64,
      "hit": false,
      "t": 149566.66666666663,
      "d": 83.33333333334303,
      "v": 70
    },
    {
      "midi": 69,
      "hit": false,
      "t": 149683.3333333333,
      "d": 83.33333333334303,
      "v": 70
    },
    {
      "midi": 62,
      "hit": false,
      "t": 150050,
      "d": 233.33333333334303,
      "v": 75
    },
    {
      "midi": 65,
      "hit": false,
      "t": 150050,
      "d": 233.33333333334303,
      "v": 75
    },
    {
      "midi": 69,
      "hit": false,
      "t": 150050,
      "d": 233.33333333334303,
      "v": 75
    },
    {
      "midi": 38,
      "hit": false,
      "t": 150400,
      "d": 50,
      "v": 44
    },
    {
      "midi": 62,
      "hit": false,
      "t": 150516.66666666666,
      "d": 616.666666666657,
      "v": 68
    },
    {
      "midi": 65,
      "hit": false,
      "t": 150516.66666666666,
      "d": 616.666666666657,
      "v": 68
    },
    {
      "midi": 69,
      "hit": false,
      "t": 150516.66666666666,
      "d": 616.666666666657,
      "v": 68
    },
    {
      "midi": 74,
      "hit": false,
      "t": 150516.66666666666,
      "d": 616.666666666657,
      "v": 68
    },
    {
      "midi": 58,
      "hit": false,
      "t": 151233.3333333333,
      "d": 166.66666666665697,
      "v": 70
    },
    {
      "midi": 67,
      "hit": false,
      "t": 151233.3333333333,
      "d": 166.66666666665697,
      "v": 70
    },
    {
      "midi": 74,
      "hit": false,
      "t": 151233.3333333333,
      "d": 166.66666666665697,
      "v": 70
    },
    {
      "midi": 58,
      "hit": false,
      "t": 151483.3333333333,
      "d": 350,
      "v": 80
    },
    {
      "midi": 67,
      "hit": false,
      "t": 151483.3333333333,
      "d": 350,
      "v": 80
    },
    {
      "midi": 74,
      "hit": false,
      "t": 151483.3333333333,
      "d": 350,
      "v": 80
    },
    {
      "midi": 60,
      "hit": false,
      "t": 151933.3333333333,
      "d": 166.66666666665697,
      "v": 70
    },
    {
      "midi": 64,
      "hit": false,
      "t": 151933.3333333333,
      "d": 166.66666666665697,
      "v": 70
    },
    {
      "midi": 67,
      "hit": false,
      "t": 151933.3333333333,
      "d": 166.66666666665697,
      "v": 70
    },
    {
      "midi": 60,
      "hit": false,
      "t": 152199.99999999997,
      "d": 350,
      "v": 80
    },
    {
      "midi": 64,
      "hit": false,
      "t": 152199.99999999997,
      "d": 350,
      "v": 80
    },
    {
      "midi": 67,
      "hit": false,
      "t": 152199.99999999997,
      "d": 350,
      "v": 80
    },
    {
      "midi": 57,
      "hit": false,
      "t": 152649.99999999997,
      "d": 183.33333333334303,
      "v": 70
    },
    {
      "midi": 65,
      "hit": false,
      "t": 152649.99999999997,
      "d": 183.33333333334303,
      "v": 70
    },
    {
      "midi": 72,
      "hit": false,
      "t": 152649.99999999997,
      "d": 183.33333333334303,
      "v": 70
    },
    {
      "midi": 57,
      "hit": false,
      "t": 152899.99999999997,
      "d": 100,
      "v": 70
    },
    {
      "midi": 65,
      "hit": false,
      "t": 152899.99999999997,
      "d": 100,
      "v": 70
    },
    {
      "midi": 72,
      "hit": false,
      "t": 152899.99999999997,
      "d": 100,
      "v": 70
    },
    {
      "midi": 57,
      "hit": false,
      "t": 153249.99999999997,
      "d": 683.333333333343,
      "v": 70
    },
    {
      "midi": 65,
      "hit": false,
      "t": 153249.99999999997,
      "d": 683.333333333343,
      "v": 70
    },
    {
      "midi": 72,
      "hit": false,
      "t": 153249.99999999997,
      "d": 683.333333333343,
      "v": 70
    },
    {
      "midi": 57,
      "hit": false,
      "t": 154333.3333333333,
      "d": 233.33333333334303,
      "v": 75
    },
    {
      "midi": 65,
      "hit": false,
      "t": 154333.3333333333,
      "d": 233.33333333334303,
      "v": 75
    },
    {
      "midi": 72,
      "hit": false,
      "t": 154333.3333333333,
      "d": 233.33333333334303,
      "v": 75
    },
    {
      "midi": 41,
      "hit": false,
      "t": 154700,
      "d": 50,
      "v": 44
    },
    {
      "midi": 57,
      "hit": false,
      "t": 154800,
      "d": 616.666666666657,
      "v": 68
    },
    {
      "midi": 60,
      "hit": false,
      "t": 154800,
      "d": 616.666666666657,
      "v": 68
    },
    {
      "midi": 65,
      "hit": false,
      "t": 154800,
      "d": 616.666666666657,
      "v": 68
    },
    {
      "midi": 62,
      "hit": false,
      "t": 155516.66666666666,
      "d": 183.33333333334303,
      "v": 70
    },
    {
      "midi": 65,
      "hit": false,
      "t": 155516.66666666666,
      "d": 183.33333333334303,
      "v": 70
    },
    {
      "midi": 69,
      "hit": false,
      "t": 155516.66666666666,
      "d": 183.33333333334303,
      "v": 70
    },
    {
      "midi": 74,
      "hit": false,
      "t": 155516.66666666666,
      "d": 183.33333333334303,
      "v": 70
    },
    {
      "midi": 62,
      "hit": false,
      "t": 155766.66666666666,
      "d": 100,
      "v": 70
    },
    {
      "midi": 65,
      "hit": false,
      "t": 155766.66666666666,
      "d": 100,
      "v": 70
    },
    {
      "midi": 69,
      "hit": false,
      "t": 155766.66666666666,
      "d": 100,
      "v": 70
    },
    {
      "midi": 74,
      "hit": false,
      "t": 155766.66666666666,
      "d": 100,
      "v": 70
    },
    {
      "midi": 62,
      "hit": false,
      "t": 156100,
      "d": 683.333333333343,
      "v": 70
    },
    {
      "midi": 65,
      "hit": false,
      "t": 156100,
      "d": 683.333333333343,
      "v": 70
    },
    {
      "midi": 69,
      "hit": false,
      "t": 156100,
      "d": 683.333333333343,
      "v": 70
    },
    {
      "midi": 74,
      "hit": false,
      "t": 156100,
      "d": 683.333333333343,
      "v": 70
    },
    {
      "midi": 58,
      "hit": false,
      "t": 156933.33333333334,
      "d": 183.33333333334303,
      "v": 65
    },
    {
      "midi": 67,
      "hit": false,
      "t": 156933.33333333334,
      "d": 183.33333333334303,
      "v": 65
    },
    {
      "midi": 74,
      "hit": false,
      "t": 156933.33333333334,
      "d": 183.33333333334303,
      "v": 65
    },
    {
      "midi": 43,
      "hit": false,
      "t": 157200.00000000003,
      "d": 50,
      "v": 30
    },
    {
      "midi": 58,
      "hit": false,
      "t": 157300.00000000003,
      "d": 233.33333333334303,
      "v": 75
    },
    {
      "midi": 67,
      "hit": false,
      "t": 157300.00000000003,
      "d": 233.33333333334303,
      "v": 75
    },
    {
      "midi": 74,
      "hit": false,
      "t": 157300.00000000003,
      "d": 233.33333333334303,
      "v": 75
    },
    {
      "midi": 60,
      "hit": false,
      "t": 157650.00000000003,
      "d": 616.666666666657,
      "v": 68
    },
    {
      "midi": 64,
      "hit": false,
      "t": 157650.00000000003,
      "d": 616.666666666657,
      "v": 68
    },
    {
      "midi": 67,
      "hit": false,
      "t": 157650.00000000003,
      "d": 616.666666666657,
      "v": 68
    },
    {
      "midi": 72,
      "hit": false,
      "t": 157650.00000000003,
      "d": 616.666666666657,
      "v": 68
    },
    {
      "midi": 57,
      "hit": false,
      "t": 158366.6666666667,
      "d": 1416.666666666657,
      "v": 70
    },
    {
      "midi": 65,
      "hit": false,
      "t": 158366.6666666667,
      "d": 1416.666666666657,
      "v": 70
    },
    {
      "midi": 72,
      "hit": false,
      "t": 158366.6666666667,
      "d": 1416.666666666657,
      "v": 70
    }
  ]
}