{
  "jsonPath": "Latin/Latin/Shakira/she-wolf.json",
  "path": "Latin\\Latin\\Shakira\\She Wolf.mid",
  "name": "She Wolf",
  "difficulty": "Advanced",
  "bpm": 134.00005806669182,
  "notes": [
    {
      "midi": 66,
      "hit": false,
      "t": 8955.220000000001,
      "d": 205.22379166666724,
      "v": 127
    },
    {
      "midi": 69,
      "hit": false,
      "t": 8955.220000000001,
      "d": 205.22379166666724,
      "v": 127
    },
    {
      "midi": 62,
      "hit": false,
      "t": 9179.100500000002,
      "d": 251.8655624999992,
      "v": 127
    },
    {
      "midi": 66,
      "hit": false,
      "t": 9402.981000000002,
      "d": 205.22379166666724,
      "v": 127
    },
    {
      "midi": 69,
      "hit": false,
      "t": 9402.981000000002,
      "d": 205.22379166666724,
      "v": 127
    },
    {
      "midi": 62,
      "hit": false,
      "t": 9626.861500000003,
      "d": 205.22379166666724,
      "v": 127
    },
    {
      "midi": 69,
      "hit": false,
      "t": 9850.742000000004,
      "d": 195.8954374999994,
      "v": 127
    },
    {
      "midi": 66,
      "hit": false,
      "t": 9850.742000000004,
      "d": 205.22379166666542,
      "v": 127
    },
    {
      "midi": 62,
      "hit": false,
      "t": 10074.622500000003,
      "d": 195.8954374999994,
      "v": 127
    },
    {
      "midi": 66,
      "hit": false,
      "t": 10298.503000000002,
      "d": 214.55214583333327,
      "v": 127
    },
    {
      "midi": 71,
      "hit": false,
      "t": 10298.503000000002,
      "d": 223.8804999999993,
      "v": 127
    },
    {
      "midi": 62,
      "hit": false,
      "t": 10522.383500000002,
      "d": 177.23872916666733,
      "v": 127
    },
    {
      "midi": 62,
      "hit": false,
      "t": 10746.264000000003,
      "d": 158.58202083333344,
      "v": 127
    },
    {
      "midi": 66,
      "hit": false,
      "t": 10746.264000000003,
      "d": 214.55214583333327,
      "v": 127
    },
    {
      "midi": 57,
      "hit": false,
      "t": 10970.144500000002,
      "d": 214.55214583333327,
      "v": 127
    },
    {
      "midi": 62,
      "hit": false,
      "t": 11194.025000000001,
      "d": 195.8954374999994,
      "v": 127
    },
    {
      "midi": 66,
      "hit": false,
      "t": 11194.025000000001,
      "d": 214.55214583333327,
      "v": 127
    },
    {
      "midi": 57,
      "hit": false,
      "t": 11417.9055,
      "d": 214.55214583333327,
      "v": 127
    },
    {
      "midi": 61,
      "hit": false,
      "t": 11641.786,
      "d": 177.23872916666733,
      "v": 127
    },
    {
      "midi": 64,
      "hit": false,
      "t": 11641.786,
      "d": 177.23872916666733,
      "v": 127
    },
    {
      "midi": 57,
      "hit": false,
      "t": 11865.666500000001,
      "d": 233.20885416666533,
      "v": 127
    },
    {
      "midi": 64,
      "hit": false,
      "t": 12089.547,
      "d": 195.8954374999994,
      "v": 127
    },
    {
      "midi": 61,
      "hit": false,
      "t": 12089.547,
      "d": 214.55214583333327,
      "v": 127
    },
    {
      "midi": 57,
      "hit": false,
      "t": 12313.4275,
      "d": 158.58202083333344,
      "v": 127
    },
    {
      "midi": 66,
      "hit": false,
      "t": 12537.307999999999,
      "d": 195.8954374999994,
      "v": 127
    },
    {
      "midi": 69,
      "hit": false,
      "t": 12537.307999999999,
      "d": 223.8804999999993,
      "v": 127
    },
    {
      "midi": 62,
      "hit": false,
      "t": 12761.188499999998,
      "d": 233.20885416666533,
      "v": 127
    },
    {
      "midi": 66,
      "hit": false,
      "t": 12985.068999999998,
      "d": 195.8954374999994,
      "v": 127
    },
    {
      "midi": 69,
      "hit": false,
      "t": 12985.068999999998,
      "d": 214.55214583333327,
      "v": 127
    },
    {
      "midi": 62,
      "hit": false,
      "t": 13208.949499999997,
      "d": 186.56708333333336,
      "v": 127
    },
    {
      "midi": 66,
      "hit": false,
      "t": 13432.829999999996,
      "d": 214.55214583333327,
      "v": 127
    },
    {
      "midi": 69,
      "hit": false,
      "t": 13432.829999999996,
      "d": 223.8804999999993,
      "v": 127
    },
    {
      "midi": 62,
      "hit": false,
      "t": 13656.710499999996,
      "d": 186.56708333333336,
      "v": 127
    },
    {
      "midi": 66,
      "hit": false,
      "t": 13880.590999999995,
      "d": 205.22379166666724,
      "v": 127
    },
    {
      "midi": 71,
      "hit": false,
      "t": 13880.590999999995,
      "d": 223.88050000000112,
      "v": 127
    },
    {
      "midi": 62,
      "hit": false,
      "t": 14104.471499999996,
      "d": 167.91037499999948,
      "v": 127
    },
    {
      "midi": 66,
      "hit": false,
      "t": 14328.351999999995,
      "d": 195.8954374999994,
      "v": 127
    },
    {
      "midi": 62,
      "hit": false,
      "t": 14328.351999999995,
      "d": 205.22379166666542,
      "v": 127
    },
    {
      "midi": 57,
      "hit": false,
      "t": 14552.232499999995,
      "d": 233.20885416666533,
      "v": 127
    },
    {
      "midi": 62,
      "hit": false,
      "t": 14776.112999999994,
      "d": 205.22379166666542,
      "v": 127
    },
    {
      "midi": 66,
      "hit": false,
      "t": 14776.112999999994,
      "d": 233.20885416666533,
      "v": 127
    },
    {
      "midi": 57,
      "hit": false,
      "t": 14999.993499999993,
      "d": 233.20885416666533,
      "v": 127
    },
    {
      "midi": 61,
      "hit": false,
      "t": 15223.873999999993,
      "d": 205.22379166666542,
      "v": 127
    },
    {
      "midi": 64,
      "hit": false,
      "t": 15223.873999999993,
      "d": 205.22379166666542,
      "v": 127
    },
    {
      "midi": 57,
      "hit": false,
      "t": 15447.754499999992,
      "d": 233.20885416666533,
      "v": 127
    },
    {
      "midi": 61,
      "hit": false,
      "t": 15671.634999999991,
      "d": 223.8804999999993,
      "v": 127
    },
    {
      "midi": 64,
      "hit": false,
      "t": 15671.634999999991,
      "d": 242.53720833333318,
      "v": 127
    },
    {
      "midi": 57,
      "hit": false,
      "t": 15895.51549999999,
      "d": 177.23872916666733,
      "v": 127
    },
    {
      "midi": 66,
      "hit": false,
      "t": 202387.972,
      "d": 205.22379166667815,
      "v": 127
    },
    {
      "midi": 69,
      "hit": false,
      "t": 202387.972,
      "d": 205.22379166667815,
      "v": 127
    },
    {
      "midi": 62,
      "hit": false,
      "t": 202611.8525,
      "d": 251.86556249999558,
      "v": 127
    },
    {
      "midi": 66,
      "hit": false,
      "t": 202835.733,
      "d": 205.22379166664905,
      "v": 127
    },
    {
      "midi": 69,
      "hit": false,
      "t": 202835.733,
      "d": 205.22379166664905,
      "v": 127
    },
    {
      "midi": 62,
      "hit": false,
      "t": 203059.61349999998,
      "d": 205.22379166667815,
      "v": 127
    },
    {
      "midi": 69,
      "hit": false,
      "t": 203283.49399999998,
      "d": 195.89543750000303,
      "v": 127
    },
    {
      "midi": 66,
      "hit": false,
      "t": 203283.49399999998,
      "d": 205.22379166667815,
      "v": 127
    },
    {
      "midi": 62,
      "hit": false,
      "t": 203507.37449999998,
      "d": 195.89543750000303,
      "v": 127
    },
    {
      "midi": 66,
      "hit": false,
      "t": 203731.25499999998,
      "d": 214.55214583332418,
      "v": 127
    },
    {
      "midi": 71,
      "hit": false,
      "t": 203731.25499999998,
      "d": 223.8804999999993,
      "v": 127
    },
    {
      "midi": 62,
      "hit": false,
      "t": 203955.13549999997,
      "d": 177.23872916665277,
      "v": 127
    },
    {
      "midi": 62,
      "hit": false,
      "t": 204179.01599999997,
      "d": 158.58202083333163,
      "v": 127
    },
    {
      "midi": 66,
      "hit": false,
      "t": 204179.01599999997,
      "d": 214.55214583332418,
      "v": 127
    },
    {
      "midi": 57,
      "hit": false,
      "t": 204402.89649999997,
      "d": 214.55214583332418,
      "v": 127
    },
    {
      "midi": 62,
      "hit": false,
      "t": 204626.77699999997,
      "d": 195.89543750000303,
      "v": 127
    },
    {
      "midi": 66,
      "hit": false,
      "t": 204626.77699999997,
      "d": 214.55214583332418,
      "v": 127
    },
    {
      "midi": 57,
      "hit": false,
      "t": 204850.65749999997,
      "d": 214.55214583332418,
      "v": 127
    },
    {
      "midi": 61,
      "hit": false,
      "t": 205074.53799999997,
      "d": 177.23872916665277,
      "v": 127
    },
    {
      "midi": 64,
      "hit": false,
      "t": 205074.53799999997,
      "d": 177.23872916665277,
      "v": 127
    },
    {
      "midi": 57,
      "hit": false,
      "t": 205298.41849999997,
      "d": 233.20885416667443,
      "v": 127
    },
    {
      "midi": 64,
      "hit": false,
      "t": 205522.29899999997,
      "d": 195.89543750000303,
      "v": 127
    },
    {
      "midi": 61,
      "hit": false,
      "t": 205522.29899999997,
      "d": 214.55214583332418,
      "v": 127
    },
    {
      "midi": 57,
      "hit": false,
      "t": 205746.17949999997,
      "d": 158.58202083333163,
      "v": 127
    },
    {
      "midi": 66,
      "hit": false,
      "t": 205970.05999999997,
      "d": 205.22379166667815,
      "v": 127
    },
    {
      "midi": 69,
      "hit": false,
      "t": 205970.05999999997,
      "d": 205.22379166667815,
      "v": 127
    },
    {
      "midi": 62,
      "hit": false,
      "t": 206193.94049999997,
      "d": 251.86556249999558,
      "v": 127
    },
    {
      "midi": 66,
      "hit": false,
      "t": 206417.82099999997,
      "d": 205.22379166664905,
      "v": 127
    },
    {
      "midi": 69,
      "hit": false,
      "t": 206417.82099999997,
      "d": 205.22379166664905,
      "v": 127
    },
    {
      "midi": 62,
      "hit": false,
      "t": 206641.70149999994,
      "d": 205.22379166667815,
      "v": 127
    },
    {
      "midi": 69,
      "hit": false,
      "t": 206865.58199999994,
      "d": 195.89543750000303,
      "v": 127
    },
    {
      "midi": 66,
      "hit": false,
      "t": 206865.58199999994,
      "d": 205.22379166667815,
      "v": 127
    },
    {
      "midi": 62,
      "hit": false,
      "t": 207089.46249999994,
      "d": 195.89543750000303,
      "v": 127
    },
    {
      "midi": 66,
      "hit": false,
      "t": 207313.34299999994,
      "d": 214.55214583332418,
      "v": 127
    },
    {
      "midi": 71,
      "hit": false,
      "t": 207313.34299999994,
      "d": 223.8804999999993,
      "v": 127
    },
    {
      "midi": 62,
      "hit": false,
      "t": 207537.22349999993,
      "d": 177.23872916665277,
      "v": 127
    },
    {
      "midi": 62,
      "hit": false,
      "t": 207761.10399999993,
      "d": 158.58202083333163,
      "v": 127
    },
    {
      "midi": 66,
      "hit": false,
      "t": 207761.10399999993,
      "d": 214.55214583332418,
      "v": 127
    },
    {
      "midi": 57,
      "hit": false,
      "t": 207984.98449999993,
      "d": 214.55214583332418,
      "v": 127
    },
    {
      "midi": 62,
      "hit": false,
      "t": 208208.86499999993,
      "d": 195.89543750000303,
      "v": 127
    },
    {
      "midi": 66,
      "hit": false,
      "t": 208208.86499999993,
      "d": 214.55214583332418,
      "v": 127
    },
    {
      "midi": 57,
      "hit": false,
      "t": 208432.74549999993,
      "d": 214.55214583332418,
      "v": 127
    },
    {
      "midi": 61,
      "hit": false,
      "t": 208656.62599999993,
      "d": 177.23872916665277,
      "v": 127
    },
    {
      "midi": 64,
      "hit": false,
      "t": 208656.62599999993,
      "d": 177.23872916665277,
      "v": 127
    },
    {
      "midi": 57,
      "hit": false,
      "t": 208880.50649999993,
      "d": 233.20885416667443,
      "v": 127
    },
    {
      "midi": 64,
      "hit": false,
      "t": 209104.38699999993,
      "d": 195.89543750000303,
      "v": 127
    },
    {
      "midi": 61,
      "hit": false,
      "t": 209104.38699999993,
      "d": 214.55214583332418,
      "v": 127
    },
    {
      "midi": 57,
      "hit": false,
      "t": 209328.26749999993,
      "d": 158.58202083333163,
      "v": 127
    },
    {
      "midi": 69,
      "hit": false,
      "t": 209552.14799999993,
      "d": 223.8804999999993,
      "v": 127
    },
    {
      "midi": 66,
      "hit": false,
      "t": 209552.14799999993,
      "d": 242.53720833332045,
      "v": 127
    },
    {
      "midi": 47,
      "hit": false,
      "t": 209552.14799999993,
      "d": 1847.0141249999579,
      "v": 127
    },
    {
      "midi": 62,
      "hit": false,
      "t": 209776.02849999993,
      "d": 195.89543749997392,
      "v": 127
    },
    {
      "midi": 66,
      "hit": false,
      "t": 209999.9089999999,
      "d": 195.89543750000303,
      "v": 127
    },
    {
      "midi": 69,
      "hit": false,
      "t": 209999.9089999999,
      "d": 195.89543750000303,
      "v": 127
    },
    {
      "midi": 62,
      "hit": false,
      "t": 210223.7894999999,
      "d": 177.23872916665277,
      "v": 127
    },
    {
      "midi": 66,
      "hit": false,
      "t": 210447.6699999999,
      "d": 214.55214583332418,
      "v": 127
    },
    {
      "midi": 69,
      "hit": false,
      "t": 210447.6699999999,
      "d": 223.8804999999993,
      "v": 127
    },
    {
      "midi": 62,
      "hit": false,
      "t": 210671.5504999999,
      "d": 186.5670833333279,
      "v": 127
    },
    {
      "midi": 66,
      "hit": false,
      "t": 210895.4309999999,
      "d": 186.5670833333279,
      "v": 127
    },
    {
      "midi": 71,
      "hit": false,
      "t": 210895.4309999999,
      "d": 214.55214583332418,
      "v": 127
    },
    {
      "midi": 62,
      "hit": false,
      "t": 211119.3114999999,
      "d": 177.23872916665277,
      "v": 127
    },
    {
      "midi": 66,
      "hit": false,
      "t": 211343.1919999999,
      "d": 177.23872916665277,
      "v": 127
    },
    {
      "midi": 62,
      "hit": false,
      "t": 211343.1919999999,
      "d": 195.89543749997392,
      "v": 127
    },
    {
      "midi": 43,
      "hit": false,
      "t": 211343.1919999999,
      "d": 858.2085833333258,
      "v": 127
    },
    {
      "midi": 57,
      "hit": false,
      "t": 211567.07249999986,
      "d": 186.5670833333279,
      "v": 127
    },
    {
      "midi": 62,
      "hit": false,
      "t": 211790.95299999986,
      "d": 205.22379166667815,
      "v": 127
    },
    {
      "midi": 66,
      "hit": false,
      "t": 211790.95299999986,
      "d": 214.55214583335328,
      "v": 127
    },
    {
      "midi": 57,
      "hit": false,
      "t": 212014.8334999999,
      "d": 167.91037500000675,
      "v": 127
    },
    {
      "midi": 61,
      "hit": false,
      "t": 212238.7139999999,
      "d": 186.5670833333279,
      "v": 127
    },
    {
      "midi": 64,
      "hit": false,
      "t": 212238.7139999999,
      "d": 186.5670833333279,
      "v": 127
    },
    {
      "midi": 45,
      "hit": false,
      "t": 212238.7139999999,
      "d": 904.8503541666723,
      "v": 127
    },
    {
      "midi": 57,
      "hit": false,
      "t": 212462.5944999999,
      "d": 195.89543750000303,
      "v": 127
    },
    {
      "midi": 61,
      "hit": false,
      "t": 212686.4749999999,
      "d": 205.22379166667815,
      "v": 127
    },
    {
      "midi": 64,
      "hit": false,
      "t": 212686.4749999999,
      "d": 223.8804999999993,
      "v": 127
    },
    {
      "midi": 57,
      "hit": false,
      "t": 212910.3554999999,
      "d": 102.61189583333908,
      "v": 127
    },
    {
      "midi": 54,
      "hit": false,
      "t": 213134.2359999999,
      "d": 1716.4171666666807,
      "v": 127
    },
    {
      "midi": 57,
      "hit": false,
      "t": 213134.2359999999,
      "d": 1716.4171666666807,
      "v": 127
    },
    {
      "midi": 38,
      "hit": false,
      "t": 213134.2359999999,
      "d": 1725.7455208333558,
      "v": 127
    },
    {
      "midi": 50,
      "hit": false,
      "t": 213134.2359999999,
      "d": 1735.073875000031,
      "v": 127
    },
    {
      "midi": 62,
      "hit": false,
      "t": 213134.2359999999,
      "d": 1735.073875000031,
      "v": 127
    }
  ]
}