{
  "jsonPath": "Rock/Album Rock/Badfinger/baby-blue-live-album-version.json",
  "path": "Rock\\Album Rock\\Badfinger\\Baby Blue live (Album Version).mid",
  "name": "Baby Blue live (Album Version)",
  "difficulty": "Advanced",
  "bpm": 122.0000691333725,
  "notes": [
    {
      "midi": 59,
      "hit": false,
      "t": 0,
      "d": 686.1104250000001,
      "v": 100
    },
    {
      "midi": 59,
      "hit": false,
      "t": 999.999,
      "d": 394.44405000000006,
      "v": 100
    },
    {
      "midi": 37,
      "hit": false,
      "t": 1333.332,
      "d": 177.77760000000012,
      "v": 127
    },
    {
      "midi": 63,
      "hit": false,
      "t": 1333.332,
      "d": 1352.7764250000002,
      "v": 100
    },
    {
      "midi": 66,
      "hit": false,
      "t": 1333.332,
      "d": 1402.7763750000001,
      "v": 100
    },
    {
      "midi": 37,
      "hit": false,
      "t": 2666.664,
      "d": 177.7775999999999,
      "v": 127
    },
    {
      "midi": 59,
      "hit": false,
      "t": 2666.664,
      "d": 1030.5545250000005,
      "v": 100
    },
    {
      "midi": 63,
      "hit": false,
      "t": 3663.8852250000004,
      "d": 333.3330000000001,
      "v": 100
    },
    {
      "midi": 66,
      "hit": false,
      "t": 3666.6630000000005,
      "d": 333.3330000000001,
      "v": 100
    },
    {
      "midi": 64,
      "hit": false,
      "t": 3997.2182250000005,
      "d": 333.33299999999963,
      "v": 100
    },
    {
      "midi": 68,
      "hit": false,
      "t": 3997.2182250000005,
      "d": 333.33299999999963,
      "v": 100
    },
    {
      "midi": 37,
      "hit": false,
      "t": 3999.996,
      "d": 177.77760000000035,
      "v": 127
    },
    {
      "midi": 63,
      "hit": false,
      "t": 4330.551225,
      "d": 333.33299999999963,
      "v": 100
    },
    {
      "midi": 66,
      "hit": false,
      "t": 4330.551225,
      "d": 333.33299999999963,
      "v": 100
    },
    {
      "midi": 64,
      "hit": false,
      "t": 4663.884225,
      "d": 333.33299999999963,
      "v": 100
    },
    {
      "midi": 68,
      "hit": false,
      "t": 4663.884225,
      "d": 333.33299999999963,
      "v": 100
    },
    {
      "midi": 63,
      "hit": false,
      "t": 4997.217224999999,
      "d": 333.33299999999963,
      "v": 100
    },
    {
      "midi": 66,
      "hit": false,
      "t": 4997.217224999999,
      "d": 333.33299999999963,
      "v": 100
    },
    {
      "midi": 59,
      "hit": false,
      "t": 5330.550224999999,
      "d": 791.6658749999997,
      "v": 100
    },
    {
      "midi": 37,
      "hit": false,
      "t": 5333.328,
      "d": 177.77760000000035,
      "v": 127
    },
    {
      "midi": 59,
      "hit": false,
      "t": 6330.549224999999,
      "d": 330.55522500000006,
      "v": 100
    },
    {
      "midi": 66,
      "hit": false,
      "t": 6663.8822249999985,
      "d": 1352.776425,
      "v": 100
    },
    {
      "midi": 63,
      "hit": false,
      "t": 6663.8822249999985,
      "d": 1405.55415,
      "v": 100
    },
    {
      "midi": 37,
      "hit": false,
      "t": 6666.660000000001,
      "d": 177.77760000000035,
      "v": 127
    },
    {
      "midi": 59,
      "hit": false,
      "t": 7997.214224999999,
      "d": 333.33299999999963,
      "v": 100
    },
    {
      "midi": 37,
      "hit": false,
      "t": 7999.992000000001,
      "d": 161.11095000000023,
      "v": 127
    },
    {
      "midi": 61,
      "hit": false,
      "t": 8330.547224999998,
      "d": 333.33300000000054,
      "v": 100
    },
    {
      "midi": 63,
      "hit": false,
      "t": 8663.880224999999,
      "d": 333.33300000000054,
      "v": 100
    },
    {
      "midi": 66,
      "hit": false,
      "t": 8997.213225,
      "d": 333.33300000000054,
      "v": 100
    },
    {
      "midi": 64,
      "hit": false,
      "t": 9330.546225,
      "d": 333.33300000000054,
      "v": 100
    },
    {
      "midi": 37,
      "hit": false,
      "t": 9333.324,
      "d": 161.11095000000023,
      "v": 127
    },
    {
      "midi": 63,
      "hit": false,
      "t": 9663.879225,
      "d": 333.33300000000054,
      "v": 100
    },
    {
      "midi": 61,
      "hit": false,
      "t": 9997.212225000001,
      "d": 333.33300000000054,
      "v": 100
    },
    {
      "midi": 59,
      "hit": false,
      "t": 10330.545225000002,
      "d": 333.33300000000054,
      "v": 100
    },
    {
      "midi": 54,
      "hit": false,
      "t": 10666.656000000003,
      "d": 708.3326249999991,
      "v": 100
    },
    {
      "midi": 61,
      "hit": false,
      "t": 10666.656000000003,
      "d": 788.8880999999983,
      "v": 100
    },
    {
      "midi": 66,
      "hit": false,
      "t": 10666.656000000003,
      "d": 797.2214249999979,
      "v": 100
    },
    {
      "midi": 70,
      "hit": false,
      "t": 10666.656000000003,
      "d": 797.2214249999979,
      "v": 100
    },
    {
      "midi": 66,
      "hit": false,
      "t": 11663.877225,
      "d": 202.77757500000007,
      "v": 100
    },
    {
      "midi": 54,
      "hit": false,
      "t": 11663.877225,
      "d": 216.66645000000062,
      "v": 100
    },
    {
      "midi": 70,
      "hit": false,
      "t": 11663.877225,
      "d": 216.66645000000062,
      "v": 100
    },
    {
      "midi": 61,
      "hit": false,
      "t": 11663.877225,
      "d": 233.33309999999983,
      "v": 100
    },
    {
      "midi": 54,
      "hit": false,
      "t": 11997.210225,
      "d": 944.4434999999994,
      "v": 100
    },
    {
      "midi": 66,
      "hit": false,
      "t": 11997.210225,
      "d": 955.5545999999995,
      "v": 100
    },
    {
      "midi": 61,
      "hit": false,
      "t": 11997.210225,
      "d": 994.4434499999988,
      "v": 100
    },
    {
      "midi": 70,
      "hit": false,
      "t": 11997.210225,
      "d": 994.4434499999988,
      "v": 100
    },
    {
      "midi": 66,
      "hit": false,
      "t": 13333.32,
      "d": 755.5547999999999,
      "v": 100
    },
    {
      "midi": 70,
      "hit": false,
      "t": 13333.32,
      "d": 755.5547999999999,
      "v": 100
    },
    {
      "midi": 54,
      "hit": false,
      "t": 13333.32,
      "d": 788.8881000000001,
      "v": 100
    },
    {
      "midi": 61,
      "hit": false,
      "t": 13333.32,
      "d": 813.8880750000008,
      "v": 100
    },
    {
      "midi": 70,
      "hit": false,
      "t": 14330.541225,
      "d": 230.55532499999936,
      "v": 100
    },
    {
      "midi": 61,
      "hit": false,
      "t": 14330.541225,
      "d": 244.4441999999999,
      "v": 100
    },
    {
      "midi": 66,
      "hit": false,
      "t": 14330.541225,
      "d": 244.4441999999999,
      "v": 100
    },
    {
      "midi": 54,
      "hit": false,
      "t": 14330.541225,
      "d": 291.6663750000007,
      "v": 100
    },
    {
      "midi": 61,
      "hit": false,
      "t": 14666.652000000002,
      "d": 941.6657250000007,
      "v": 100
    },
    {
      "midi": 66,
      "hit": false,
      "t": 14666.652000000002,
      "d": 983.3323500000006,
      "v": 100
    },
    {
      "midi": 54,
      "hit": false,
      "t": 14666.652000000002,
      "d": 1013.8878750000003,
      "v": 100
    },
    {
      "midi": 70,
      "hit": false,
      "t": 14666.652000000002,
      "d": 1013.8878750000003,
      "v": 100
    },
    {
      "midi": 64,
      "hit": false,
      "t": 15997.206225000002,
      "d": 797.2214249999997,
      "v": 100
    },
    {
      "midi": 52,
      "hit": false,
      "t": 15999.984000000002,
      "d": 772.2214499999991,
      "v": 100
    },
    {
      "midi": 68,
      "hit": false,
      "t": 15999.984000000002,
      "d": 780.5547749999987,
      "v": 100
    },
    {
      "midi": 59,
      "hit": false,
      "t": 15999.984000000002,
      "d": 838.8880499999996,
      "v": 100
    },
    {
      "midi": 64,
      "hit": false,
      "t": 16997.205225,
      "d": 230.55532499999754,
      "v": 100
    },
    {
      "midi": 68,
      "hit": false,
      "t": 16997.205225,
      "d": 236.1108749999985,
      "v": 100
    },
    {
      "midi": 52,
      "hit": false,
      "t": 16997.205225,
      "d": 266.66639999999825,
      "v": 100
    },
    {
      "midi": 59,
      "hit": false,
      "t": 16999.983,
      "d": 263.8886249999996,
      "v": 100
    },
    {
      "midi": 59,
      "hit": false,
      "t": 17333.316,
      "d": 949.9990499999985,
      "v": 100
    },
    {
      "midi": 52,
      "hit": false,
      "t": 17333.316,
      "d": 999.9989999999998,
      "v": 100
    },
    {
      "midi": 64,
      "hit": false,
      "t": 17336.093774999998,
      "d": 852.7769249999983,
      "v": 100
    },
    {
      "midi": 68,
      "hit": false,
      "t": 17336.093774999998,
      "d": 894.44355,
      "v": 100
    },
    {
      "midi": 61,
      "hit": false,
      "t": 18666.647999999997,
      "d": 713.888175,
      "v": 100
    },
    {
      "midi": 64,
      "hit": false,
      "t": 18666.647999999997,
      "d": 761.110349999999,
      "v": 100
    },
    {
      "midi": 61,
      "hit": false,
      "t": 19666.646999999997,
      "d": 333.3329999999987,
      "v": 100
    },
    {
      "midi": 64,
      "hit": false,
      "t": 19666.646999999997,
      "d": 333.3329999999987,
      "v": 100
    },
    {
      "midi": 59,
      "hit": false,
      "t": 19999.979999999996,
      "d": 833.3325000000004,
      "v": 100
    },
    {
      "midi": 63,
      "hit": false,
      "t": 19999.979999999996,
      "d": 833.3325000000004,
      "v": 100
    },
    {
      "midi": 61,
      "hit": false,
      "t": 21330.534224999996,
      "d": 794.4436499999974,
      "v": 100
    },
    {
      "midi": 64,
      "hit": false,
      "t": 21333.311999999994,
      "d": 780.5547750000005,
      "v": 100
    },
    {
      "midi": 57,
      "hit": false,
      "t": 21333.311999999994,
      "d": 813.8880749999989,
      "v": 100
    },
    {
      "midi": 61,
      "hit": false,
      "t": 22333.310999999994,
      "d": 233.33309999999983,
      "v": 100
    },
    {
      "midi": 57,
      "hit": false,
      "t": 22333.310999999994,
      "d": 247.22197500000038,
      "v": 100
    },
    {
      "midi": 64,
      "hit": false,
      "t": 22333.310999999994,
      "d": 288.88860000000204,
      "v": 100
    },
    {
      "midi": 61,
      "hit": false,
      "t": 22669.421774999995,
      "d": 822.2213999999985,
      "v": 100
    },
    {
      "midi": 64,
      "hit": false,
      "t": 22669.421774999995,
      "d": 833.3324999999968,
      "v": 100
    },
    {
      "midi": 57,
      "hit": false,
      "t": 22669.421774999995,
      "d": 919.4435249999951,
      "v": 100
    },
    {
      "midi": 59,
      "hit": false,
      "t": 23999.97599999999,
      "d": 666.6660000000011,
      "v": 100
    },
    {
      "midi": 64,
      "hit": false,
      "t": 23999.97599999999,
      "d": 694.4437500000022,
      "v": 100
    },
    {
      "midi": 68,
      "hit": false,
      "t": 23999.97599999999,
      "d": 711.1104000000014,
      "v": 100
    },
    {
      "midi": 64,
      "hit": false,
      "t": 24999.97499999999,
      "d": 205.55534999999873,
      "v": 100
    },
    {
      "midi": 59,
      "hit": false,
      "t": 24999.97499999999,
      "d": 236.1108749999985,
      "v": 100
    },
    {
      "midi": 68,
      "hit": false,
      "t": 24999.97499999999,
      "d": 236.1108749999985,
      "v": 100
    },
    {
      "midi": 64,
      "hit": false,
      "t": 25333.30799999999,
      "d": 1122.2210999999988,
      "v": 100
    },
    {
      "midi": 59,
      "hit": false,
      "t": 25333.30799999999,
      "d": 1180.5543749999997,
      "v": 100
    },
    {
      "midi": 68,
      "hit": false,
      "t": 25336.08577499999,
      "d": 1108.332225000002,
      "v": 100
    },
    {
      "midi": 63,
      "hit": false,
      "t": 26666.63999999999,
      "d": 852.7769249999983,
      "v": 100
    },
    {
      "midi": 66,
      "hit": false,
      "t": 26666.63999999999,
      "d": 852.7769249999983,
      "v": 100
    },
    {
      "midi": 59,
      "hit": false,
      "t": 26666.63999999999,
      "d": 886.1102249999967,
      "v": 100
    },
    {
      "midi": 66,
      "hit": false,
      "t": 27663.861224999986,
      "d": 244.44420000000173,
      "v": 100
    },
    {
      "midi": 63,
      "hit": false,
      "t": 27666.638999999985,
      "d": 222.22200000000157,
      "v": 100
    },
    {
      "midi": 59,
      "hit": false,
      "t": 27666.638999999985,
      "d": 236.11087500000212,
      "v": 100
    },
    {
      "midi": 66,
      "hit": false,
      "t": 27999.971999999987,
      "d": 1044.4434,
      "v": 100
    },
    {
      "midi": 63,
      "hit": false,
      "t": 27999.971999999987,
      "d": 1141.6655250000003,
      "v": 100
    },
    {
      "midi": 59,
      "hit": false,
      "t": 27999.971999999987,
      "d": 1158.3321749999996,
      "v": 100
    },
    {
      "midi": 59,
      "hit": false,
      "t": 29333.303999999986,
      "d": 333.3329999999987,
      "v": 100
    },
    {
      "midi": 61,
      "hit": false,
      "t": 29666.636999999984,
      "d": 333.3329999999987,
      "v": 100
    },
    {
      "midi": 63,
      "hit": false,
      "t": 29999.969999999983,
      "d": 333.3329999999987,
      "v": 100
    },
    {
      "midi": 66,
      "hit": false,
      "t": 30333.30299999998,
      "d": 333.3329999999987,
      "v": 100
    },
    {
      "midi": 64,
      "hit": false,
      "t": 30666.63599999998,
      "d": 333.3329999999987,
      "v": 100
    },
    {
      "midi": 63,
      "hit": false,
      "t": 30997.19122499998,
      "d": 333.3329999999987,
      "v": 100
    },
    {
      "midi": 61,
      "hit": false,
      "t": 31330.52422499998,
      "d": 333.3329999999987,
      "v": 100
    },
    {
      "midi": 59,
      "hit": false,
      "t": 31663.857224999978,
      "d": 333.3329999999987,
      "v": 100
    },
    {
      "midi": 61,
      "hit": false,
      "t": 31997.190224999977,
      "d": 808.332524999998,
      "v": 100
    },
    {
      "midi": 66,
      "hit": false,
      "t": 31997.190224999977,
      "d": 813.8880749999953,
      "v": 100
    },
    {
      "midi": 70,
      "hit": false,
      "t": 31997.190224999977,
      "d": 824.9991749999972,
      "v": 100
    },
    {
      "midi": 54,
      "hit": false,
      "t": 31997.190224999977,
      "d": 866.6657999999952,
      "v": 100
    },
    {
      "midi": 70,
      "hit": false,
      "t": 32997.18922499997,
      "d": 188.88870000000315,
      "v": 100
    },
    {
      "midi": 61,
      "hit": false,
      "t": 32997.18922499997,
      "d": 199.99980000000505,
      "v": 100
    },
    {
      "midi": 66,
      "hit": false,
      "t": 32997.18922499997,
      "d": 224.99977500000386,
      "v": 100
    },
    {
      "midi": 54,
      "hit": false,
      "t": 32997.18922499997,
      "d": 241.66642500000307,
      "v": 100
    },
    {
      "midi": 54,
      "hit": false,
      "t": 33330.52222499998,
      "d": 869.4435749999975,
      "v": 100
    },
    {
      "midi": 61,
      "hit": false,
      "t": 33330.52222499998,
      "d": 894.4435499999963,
      "v": 100
    },
    {
      "midi": 66,
      "hit": false,
      "t": 33330.52222499998,
      "d": 908.3324249999932,
      "v": 100
    },
    {
      "midi": 70,
      "hit": false,
      "t": 33330.52222499998,
      "d": 941.6657249999917,
      "v": 100
    },
    {
      "midi": 54,
      "hit": false,
      "t": 34663.854224999974,
      "d": 766.6659,
      "v": 100
    },
    {
      "midi": 66,
      "hit": false,
      "t": 34663.854224999974,
      "d": 766.6659,
      "v": 100
    },
    {
      "midi": 61,
      "hit": false,
      "t": 34663.854224999974,
      "d": 780.5547749999969,
      "v": 100
    },
    {
      "midi": 70,
      "hit": false,
      "t": 34666.631999999976,
      "d": 749.9992500000008,
      "v": 100
    },
    {
      "midi": 61,
      "hit": false,
      "t": 35663.85322499997,
      "d": 186.11092500000086,
      "v": 100
    },
    {
      "midi": 70,
      "hit": false,
      "t": 35663.85322499997,
      "d": 194.44425000000047,
      "v": 100
    },
    {
      "midi": 66,
      "hit": false,
      "t": 35663.85322499997,
      "d": 233.33310000000347,
      "v": 100
    },
    {
      "midi": 54,
      "hit": false,
      "t": 35663.85322499997,
      "d": 269.4441750000042,
      "v": 100
    },
    {
      "midi": 66,
      "hit": false,
      "t": 35997.186224999976,
      "d": 799.9992000000057,
      "v": 100
    },
    {
      "midi": 61,
      "hit": false,
      "t": 35997.186224999976,
      "d": 841.6658250000037,
      "v": 100
    },
    {
      "midi": 70,
      "hit": false,
      "t": 35999.96399999998,
      "d": 797.2214250000034,
      "v": 100
    },
    {
      "midi": 54,
      "hit": false,
      "t": 35999.96399999998,
      "d": 883.3324500000017,
      "v": 100
    },
    {
      "midi": 52,
      "hit": false,
      "t": 37330.51822499998,
      "d": 799.9991999999984,
      "v": 100
    },
    {
      "midi": 64,
      "hit": false,
      "t": 37333.29599999998,
      "d": 736.1103749999966,
      "v": 100
    },
    {
      "midi": 59,
      "hit": false,
      "t": 37333.29599999998,
      "d": 752.7770249999958,
      "v": 100
    },
    {
      "midi": 68,
      "hit": false,
      "t": 37333.29599999998,
      "d": 752.7770249999958,
      "v": 100
    },
    {
      "midi": 59,
      "hit": false,
      "t": 38330.517224999974,
      "d": 202.77757500000007,
      "v": 100
    },
    {
      "midi": 64,
      "hit": false,
      "t": 38330.517224999974,
      "d": 230.55532500000118,
      "v": 100
    },
    {
      "midi": 68,
      "hit": false,
      "t": 38330.517224999974,
      "d": 233.33310000000347,
      "v": 100
    },
    {
      "midi": 52,
      "hit": false,
      "t": 38330.517224999974,
      "d": 261.1108500000046,
      "v": 100
    },
    {
      "midi": 59,
      "hit": false,
      "t": 38663.85022499998,
      "d": 1013.8878750000003,
      "v": 100
    },
    {
      "midi": 64,
      "hit": false,
      "t": 38663.85022499998,
      "d": 1055.5544999999984,
      "v": 100
    },
    {
      "midi": 68,
      "hit": false,
      "t": 38663.85022499998,
      "d": 1086.1100250000018,
      "v": 100
    },
    {
      "midi": 52,
      "hit": false,
      "t": 38663.85022499998,
      "d": 1102.776675000001,
      "v": 100
    },
    {
      "midi": 61,
      "hit": false,
      "t": 39999.959999999985,
      "d": 811.1103000000003,
      "v": 100
    },
    {
      "midi": 64,
      "hit": false,
      "t": 39999.959999999985,
      "d": 833.3324999999968,
      "v": 100
    },
    {
      "midi": 61,
      "hit": false,
      "t": 40999.95899999998,
      "d": 236.1108749999985,
      "v": 100
    },
    {
      "midi": 64,
      "hit": false,
      "t": 40999.95899999998,
      "d": 236.1108749999985,
      "v": 100
    },
    {
      "midi": 63,
      "hit": false,
      "t": 41333.29199999998,
      "d": 1041.6656250000015,
      "v": 100
    },
    {
      "midi": 59,
      "hit": false,
      "t": 41333.29199999998,
      "d": 1097.2211250000037,
      "v": 100
    },
    {
      "midi": 61,
      "hit": false,
      "t": 42663.84622499999,
      "d": 844.4435999999987,
      "v": 100
    },
    {
      "midi": 57,
      "hit": false,
      "t": 42663.84622499999,
      "d": 883.3324500000017,
      "v": 100
    },
    {
      "midi": 61,
      "hit": false,
      "t": 43663.84522499999,
      "d": 258.3330750000023,
      "v": 100
    },
    {
      "midi": 57,
      "hit": false,
      "t": 43663.84522499999,
      "d": 274.9997250000015,
      "v": 100
    },
    {
      "midi": 61,
      "hit": false,
      "t": 43999.95599999999,
      "d": 913.8879749999978,
      "v": 100
    },
    {
      "midi": 57,
      "hit": false,
      "t": 43999.95599999999,
      "d": 997.2212250000011,
      "v": 100
    },
    {
      "midi": 68,
      "hit": false,
      "t": 45333.28799999999,
      "d": 677.7770999999993,
      "v": 100
    },
    {
      "midi": 64,
      "hit": false,
      "t": 45336.065774999995,
      "d": 733.3325999999943,
      "v": 100
    },
    {
      "midi": 68,
      "hit": false,
      "t": 46333.28699999999,
      "d": 241.66642500000307,
      "v": 100
    },
    {
      "midi": 64,
      "hit": false,
      "t": 46333.28699999999,
      "d": 261.1108500000046,
      "v": 100
    },
    {
      "midi": 68,
      "hit": false,
      "t": 46669.39777499999,
      "d": 983.332349999997,
      "v": 100
    },
    {
      "midi": 64,
      "hit": false,
      "t": 46669.39777499999,
      "d": 1041.6656249999942,
      "v": 100
    },
    {
      "midi": 63,
      "hit": false,
      "t": 47999.95199999998,
      "d": 694.4437499999985,
      "v": 100
    },
    {
      "midi": 66,
      "hit": false,
      "t": 47999.95199999998,
      "d": 694.4437499999985,
      "v": 100
    },
    {
      "midi": 59,
      "hit": false,
      "t": 47999.95199999998,
      "d": 752.7770249999958,
      "v": 100
    },
    {
      "midi": 63,
      "hit": false,
      "t": 48997.17322499998,
      "d": 202.77757500000007,
      "v": 100
    },
    {
      "midi": 66,
      "hit": false,
      "t": 48997.17322499998,
      "d": 202.77757500000007,
      "v": 100
    },
    {
      "midi": 59,
      "hit": false,
      "t": 48997.17322499998,
      "d": 249.99975000000268,
      "v": 100
    },
    {
      "midi": 66,
      "hit": false,
      "t": 49330.50622499998,
      "d": 733.3326000000015,
      "v": 100
    },
    {
      "midi": 63,
      "hit": false,
      "t": 49330.50622499998,
      "d": 755.5547999999981,
      "v": 100
    },
    {
      "midi": 59,
      "hit": false,
      "t": 49330.50622499998,
      "d": 802.7769750000007,
      "v": 100
    },
    {
      "midi": 63,
      "hit": false,
      "t": 50666.61599999998,
      "d": 694.4437499999985,
      "v": 100
    },
    {
      "midi": 66,
      "hit": false,
      "t": 50666.61599999998,
      "d": 694.4437499999985,
      "v": 100
    },
    {
      "midi": 59,
      "hit": false,
      "t": 50666.61599999998,
      "d": 752.7770249999958,
      "v": 100
    },
    {
      "midi": 63,
      "hit": false,
      "t": 51663.837224999974,
      "d": 202.77757500000007,
      "v": 100
    },
    {
      "midi": 66,
      "hit": false,
      "t": 51663.837224999974,
      "d": 202.77757500000007,
      "v": 100
    },
    {
      "midi": 59,
      "hit": false,
      "t": 51663.837224999974,
      "d": 249.99975000000268,
      "v": 100
    },
    {
      "midi": 66,
      "hit": false,
      "t": 51997.17022499998,
      "d": 733.3326000000015,
      "v": 100
    },
    {
      "midi": 63,
      "hit": false,
      "t": 51997.17022499998,
      "d": 755.5547999999981,
      "v": 100
    },
    {
      "midi": 59,
      "hit": false,
      "t": 51997.17022499998,
      "d": 802.7769750000007,
      "v": 100
    },
    {
      "midi": 66,
      "hit": false,
      "t": 53333.27999999998,
      "d": 666.6659999999974,
      "v": 100
    },
    {
      "midi": 61,
      "hit": false,
      "t": 53333.27999999998,
      "d": 724.9992749999947,
      "v": 100
    },
    {
      "midi": 70,
      "hit": false,
      "t": 53333.27999999998,
      "d": 755.5547999999981,
      "v": 100
    },
    {
      "midi": 58,
      "hit": false,
      "t": 53333.27999999998,
      "d": 780.5547749999969,
      "v": 100
    },
    {
      "midi": 54,
      "hit": false,
      "t": 53333.27999999998,
      "d": 838.8880499999941,
      "v": 100
    },
    {
      "midi": 58,
      "hit": false,
      "t": 54330.50122499997,
      "d": 241.6664249999958,
      "v": 100
    },
    {
      "midi": 70,
      "hit": false,
      "t": 54333.27899999997,
      "d": 172.22204999999667,
      "v": 100
    },
    {
      "midi": 61,
      "hit": false,
      "t": 54333.27899999997,
      "d": 197.22202499999548,
      "v": 100
    },
    {
      "midi": 66,
      "hit": false,
      "t": 54333.27899999997,
      "d": 208.33312499999738,
      "v": 100
    },
    {
      "midi": 54,
      "hit": false,
      "t": 54333.27899999997,
      "d": 233.3330999999962,
      "v": 100
    },
    {
      "midi": 58,
      "hit": false,
      "t": 54666.611999999965,
      "d": 824.9991750000045,
      "v": 100
    },
    {
      "midi": 61,
      "hit": false,
      "t": 54669.38977499997,
      "d": 752.777025000003,
      "v": 100
    },
    {
      "midi": 66,
      "hit": false,
      "t": 54669.38977499997,
      "d": 752.777025000003,
      "v": 100
    },
    {
      "midi": 54,
      "hit": false,
      "t": 54669.38977499997,
      "d": 808.3325250000053,
      "v": 100
    },
    {
      "midi": 70,
      "hit": false,
      "t": 54669.38977499997,
      "d": 808.3325250000053,
      "v": 100
    },
    {
      "midi": 61,
      "hit": false,
      "t": 55997.16622499997,
      "d": 744.4437000000034,
      "v": 100
    },
    {
      "midi": 66,
      "hit": false,
      "t": 55997.16622499997,
      "d": 761.1103500000027,
      "v": 100
    },
    {
      "midi": 70,
      "hit": false,
      "t": 55997.16622499997,
      "d": 780.5547750000042,
      "v": 100
    },
    {
      "midi": 58,
      "hit": false,
      "t": 55997.16622499997,
      "d": 797.2214250000034,
      "v": 100
    },
    {
      "midi": 54,
      "hit": false,
      "t": 55997.16622499997,
      "d": 863.8880250000002,
      "v": 100
    },
    {
      "midi": 58,
      "hit": false,
      "t": 56997.165224999975,
      "d": 244.44420000000537,
      "v": 100
    },
    {
      "midi": 54,
      "hit": false,
      "t": 56997.165224999975,
      "d": 274.99972500000877,
      "v": 100
    },
    {
      "midi": 61,
      "hit": false,
      "t": 56999.94299999998,
      "d": 144.44430000000284,
      "v": 100
    },
    {
      "midi": 70,
      "hit": false,
      "t": 56999.94299999998,
      "d": 149.99985000000015,
      "v": 100
    },
    {
      "midi": 66,
      "hit": false,
      "t": 56999.94299999998,
      "d": 161.11095000000205,
      "v": 100
    },
    {
      "midi": 58,
      "hit": false,
      "t": 57330.49822499998,
      "d": 955.5545999999958,
      "v": 100
    },
    {
      "midi": 61,
      "hit": false,
      "t": 57333.27599999998,
      "d": 886.1102249999967,
      "v": 100
    },
    {
      "midi": 66,
      "hit": false,
      "t": 57333.27599999998,
      "d": 913.8879749999978,
      "v": 100
    },
    {
      "midi": 54,
      "hit": false,
      "t": 57333.27599999998,
      "d": 927.7768499999947,
      "v": 100
    },
    {
      "midi": 70,
      "hit": false,
      "t": 57333.27599999998,
      "d": 972.221249999995,
      "v": 100
    },
    {
      "midi": 64,
      "hit": false,
      "t": 58666.60799999998,
      "d": 666.6659999999974,
      "v": 100
    },
    {
      "midi": 61,
      "hit": false,
      "t": 58666.60799999998,
      "d": 688.888199999994,
      "v": 100
    },
    {
      "midi": 61,
      "hit": false,
      "t": 59663.82922499997,
      "d": 277.7774999999965,
      "v": 100
    },
    {
      "midi": 64,
      "hit": false,
      "t": 59663.82922499997,
      "d": 288.8885999999984,
      "v": 100
    },
    {
      "midi": 61,
      "hit": false,
      "t": 59999.93999999997,
      "d": 1061.110050000003,
      "v": 100
    },
    {
      "midi": 64,
      "hit": false,
      "t": 60002.717774999976,
      "d": 1038.8878499999992,
      "v": 100
    },
    {
      "midi": 64,
      "hit": false,
      "t": 61330.49422499997,
      "d": 833.3325000000041,
      "v": 100
    },
    {
      "midi": 61,
      "hit": false,
      "t": 61333.271999999975,
      "d": 836.1102749999991,
      "v": 100
    },
    {
      "midi": 61,
      "hit": false,
      "t": 62330.49322499998,
      "d": 249.99975000000268,
      "v": 100
    },
    {
      "midi": 64,
      "hit": false,
      "t": 62333.27099999998,
      "d": 202.77757500000007,
      "v": 100
    },
    {
      "midi": 59,
      "hit": false,
      "t": 62666.60399999998,
      "d": 1083.3322499999995,
      "v": 100
    },
    {
      "midi": 63,
      "hit": false,
      "t": 62666.60399999998,
      "d": 1141.6655249999967,
      "v": 100
    },
    {
      "midi": 59,
      "hit": false,
      "t": 63999.93599999997,
      "d": 4694.439750000005,
      "v": 100
    },
    {
      "midi": 64,
      "hit": false,
      "t": 63999.93599999997,
      "d": 4752.773025000002,
      "v": 100
    },
    {
      "midi": 63,
      "hit": false,
      "t": 69330.48622499997,
      "d": 752.777025000003,
      "v": 100
    },
    {
      "midi": 66,
      "hit": false,
      "t": 69330.48622499997,
      "d": 794.4436500000011,
      "v": 100
    },
    {
      "midi": 59,
      "hit": false,
      "t": 69330.48622499997,
      "d": 808.3325250000053,
      "v": 100
    },
    {
      "midi": 59,
      "hit": false,
      "t": 70330.48522499998,
      "d": 227.77754999999888,
      "v": 100
    },
    {
      "midi": 63,
      "hit": false,
      "t": 70330.48522499998,
      "d": 255.5552999999927,
      "v": 100
    },
    {
      "midi": 66,
      "hit": false,
      "t": 70330.48522499998,
      "d": 255.5552999999927,
      "v": 100
    },
    {
      "midi": 59,
      "hit": false,
      "t": 70663.81822499998,
      "d": 1094.4433500000014,
      "v": 100
    },
    {
      "midi": 63,
      "hit": false,
      "t": 70663.81822499998,
      "d": 1169.4432749999978,
      "v": 100
    },
    {
      "midi": 66,
      "hit": false,
      "t": 70663.81822499998,
      "d": 1216.6654500000004,
      "v": 100
    },
    {
      "midi": 59,
      "hit": false,
      "t": 71999.92799999999,
      "d": 1086.1100250000018,
      "v": 100
    },
    {
      "midi": 63,
      "hit": false,
      "t": 72997.14922499999,
      "d": 333.3329999999987,
      "v": 100
    },
    {
      "midi": 66,
      "hit": false,
      "t": 72999.92699999998,
      "d": 333.3329999999987,
      "v": 100
    },
    {
      "midi": 64,
      "hit": false,
      "t": 73330.48222499999,
      "d": 333.3329999999987,
      "v": 100
    },
    {
      "midi": 68,
      "hit": false,
      "t": 73330.48222499999,
      "d": 333.3329999999987,
      "v": 100
    },
    {
      "midi": 63,
      "hit": false,
      "t": 73663.81522499998,
      "d": 333.3329999999987,
      "v": 100
    },
    {
      "midi": 66,
      "hit": false,
      "t": 73663.81522499998,
      "d": 333.3329999999987,
      "v": 100
    },
    {
      "midi": 64,
      "hit": false,
      "t": 73997.14822499998,
      "d": 333.3329999999987,
      "v": 100
    },
    {
      "midi": 68,
      "hit": false,
      "t": 73997.14822499998,
      "d": 333.3329999999987,
      "v": 100
    },
    {
      "midi": 63,
      "hit": false,
      "t": 74330.48122499998,
      "d": 333.3329999999987,
      "v": 100
    },
    {
      "midi": 66,
      "hit": false,
      "t": 74330.48122499998,
      "d": 333.3329999999987,
      "v": 100
    },
    {
      "midi": 59,
      "hit": false,
      "t": 74666.59199999998,
      "d": 713.888175,
      "v": 100
    },
    {
      "midi": 59,
      "hit": false,
      "t": 75661.03544999998,
      "d": 433.33289999999397,
      "v": 100
    },
    {
      "midi": 66,
      "hit": false,
      "t": 75997.14622499997,
      "d": 1422.22080000001,
      "v": 100
    },
    {
      "midi": 63,
      "hit": false,
      "t": 75997.14622499997,
      "d": 1469.4429750000127,
      "v": 100
    },
    {
      "midi": 59,
      "hit": false,
      "t": 77333.25599999998,
      "d": 433.3329000000085,
      "v": 100
    },
    {
      "midi": 61,
      "hit": false,
      "t": 77666.58899999999,
      "d": 386.11072499999136,
      "v": 100
    },
    {
      "midi": 63,
      "hit": false,
      "t": 77997.14422499998,
      "d": 377.7774000000063,
      "v": 100
    },
    {
      "midi": 66,
      "hit": false,
      "t": 78333.25499999999,
      "d": 436.11067500000354,
      "v": 100
    },
    {
      "midi": 64,
      "hit": false,
      "t": 78663.810225,
      "d": 311.1107999999949,
      "v": 100
    },
    {
      "midi": 63,
      "hit": false,
      "t": 78997.14322499999,
      "d": 408.33292499999516,
      "v": 100
    },
    {
      "midi": 61,
      "hit": false,
      "t": 79330.47622499999,
      "d": 344.44409999999334,
      "v": 100
    },
    {
      "midi": 59,
      "hit": false,
      "t": 79663.80922499999,
      "d": 263.8886249999923,
      "v": 100
    },
    {
      "midi": 66,
      "hit": false,
      "t": 79997.14222499999,
      "d": 819.4436249999999,
      "v": 100
    },
    {
      "midi": 70,
      "hit": false,
      "t": 79997.14222499999,
      "d": 861.1102499999979,
      "v": 100
    },
    {
      "midi": 61,
      "hit": false,
      "t": 79997.14222499999,
      "d": 863.8880249999929,
      "v": 100
    },
    {
      "midi": 54,
      "hit": false,
      "t": 79999.91999999998,
      "d": 783.3325500000064,
      "v": 100
    },
    {
      "midi": 54,
      "hit": false,
      "t": 80997.14122499998,
      "d": 227.77754999999888,
      "v": 100
    },
    {
      "midi": 66,
      "hit": false,
      "t": 80997.14122499998,
      "d": 233.33310000000347,
      "v": 100
    },
    {
      "midi": 61,
      "hit": false,
      "t": 80997.14122499998,
      "d": 272.2219500000065,
      "v": 100
    },
    {
      "midi": 70,
      "hit": false,
      "t": 80999.91899999998,
      "d": 230.55532500000845,
      "v": 100
    },
    {
      "midi": 61,
      "hit": false,
      "t": 81330.474225,
      "d": 827.7769499999849,
      "v": 100
    },
    {
      "midi": 54,
      "hit": false,
      "t": 81330.474225,
      "d": 849.9991499999887,
      "v": 100
    },
    {
      "midi": 66,
      "hit": false,
      "t": 81333.252,
      "d": 813.8880749999953,
      "v": 100
    },
    {
      "midi": 70,
      "hit": false,
      "t": 81333.252,
      "d": 883.3324499999871,
      "v": 100
    },
    {
      "midi": 58,
      "hit": false,
      "t": 81333.25200000001,
      "d": 327.77744999999413,
      "v": 110
    },
    {
      "midi": 59,
      "hit": false,
      "t": 81666.585,
      "d": 499.99950000000536,
      "v": 110
    },
    {
      "midi": 61,
      "hit": false,
      "t": 82333.25100000002,
      "d": 983.332349999997,
      "v": 110
    },
    {
      "midi": 54,
      "hit": false,
      "t": 82666.58399999997,
      "d": 752.777025000003,
      "v": 100
    },
    {
      "midi": 61,
      "hit": false,
      "t": 82666.58399999997,
      "d": 783.3325500000064,
      "v": 100
    },
    {
      "midi": 66,
      "hit": false,
      "t": 82666.58399999997,
      "d": 783.3325500000064,
      "v": 100
    },
    {
      "midi": 70,
      "hit": false,
      "t": 82666.58399999997,
      "d": 841.6658250000037,
      "v": 100
    },
    {
      "midi": 70,
      "hit": false,
      "t": 83666.58299999998,
      "d": 230.5553249999939,
      "v": 100
    },
    {
      "midi": 61,
      "hit": false,
      "t": 83666.58299999998,
      "d": 244.4441999999981,
      "v": 100
    },
    {
      "midi": 54,
      "hit": false,
      "t": 83666.58299999998,
      "d": 261.1108499999973,
      "v": 100
    },
    {
      "midi": 66,
      "hit": false,
      "t": 83666.58299999998,
      "d": 272.2219499999919,
      "v": 100
    },
    {
      "midi": 61,
      "hit": false,
      "t": 83666.58300000001,
      "d": 327.77744999999413,
      "v": 110
    },
    {
      "midi": 61,
      "hit": false,
      "t": 83999.91599999998,
      "d": 813.8880749999953,
      "v": 100
    },
    {
      "midi": 63,
      "hit": false,
      "t": 83999.91600000001,
      "d": 327.77744999999413,
      "v": 110
    },
    {
      "midi": 54,
      "hit": false,
      "t": 84002.69377499998,
      "d": 869.4435749999975,
      "v": 100
    },
    {
      "midi": 66,
      "hit": false,
      "t": 84002.69377499998,
      "d": 922.2213000000047,
      "v": 100
    },
    {
      "midi": 70,
      "hit": false,
      "t": 84002.69377499998,
      "d": 922.2213000000047,
      "v": 100
    },
    {
      "midi": 64,
      "hit": false,
      "t": 84333.24900000001,
      "d": 549.999450000003,
      "v": 110
    },
    {
      "midi": 68,
      "hit": false,
      "t": 84999.91500000001,
      "d": 1111.1100000000006,
      "v": 110
    },
    {
      "midi": 68,
      "hit": false,
      "t": 85333.24799999998,
      "d": 783.3325500000064,
      "v": 100
    },
    {
      "midi": 59,
      "hit": false,
      "t": 85333.24799999998,
      "d": 791.665875000006,
      "v": 100
    },
    {
      "midi": 64,
      "hit": false,
      "t": 85333.24799999998,
      "d": 813.8880750000098,
      "v": 100
    },
    {
      "midi": 52,
      "hit": false,
      "t": 85333.24799999998,
      "d": 833.3325000000041,
      "v": 100
    },
    {
      "midi": 64,
      "hit": false,
      "t": 86330.46922499998,
      "d": 280.5552749999915,
      "v": 100
    },
    {
      "midi": 68,
      "hit": false,
      "t": 86330.46922499998,
      "d": 311.1107999999949,
      "v": 100
    },
    {
      "midi": 52,
      "hit": false,
      "t": 86333.24699999997,
      "d": 244.4441999999981,
      "v": 100
    },
    {
      "midi": 59,
      "hit": false,
      "t": 86333.24699999997,
      "d": 263.8886249999923,
      "v": 100
    },
    {
      "midi": 52,
      "hit": false,
      "t": 86663.80222499998,
      "d": 1069.443374999988,
      "v": 100
    },
    {
      "midi": 68,
      "hit": false,
      "t": 86666.57999999997,
      "d": 1022.2212,
      "v": 100
    },
    {
      "midi": 64,
      "hit": false,
      "t": 86666.57999999997,
      "d": 1091.6655749999918,
      "v": 100
    },
    {
      "midi": 59,
      "hit": false,
      "t": 86666.57999999997,
      "d": 1097.2211249999964,
      "v": 100
    },
    {
      "midi": 64,
      "hit": false,
      "t": 87999.91199999997,
      "d": 724.9992749999947,
      "v": 100
    },
    {
      "midi": 61,
      "hit": false,
      "t": 87999.91199999997,
      "d": 791.6658749999915,
      "v": 100
    },
    {
      "midi": 64,
      "hit": false,
      "t": 88997.13322499995,
      "d": 249.99975000000268,
      "v": 100
    },
    {
      "midi": 61,
      "hit": false,
      "t": 88997.13322499995,
      "d": 372.22184999998717,
      "v": 100
    },
    {
      "midi": 59,
      "hit": false,
      "t": 89330.46622499995,
      "d": 1211.1098999999813,
      "v": 100
    },
    {
      "midi": 63,
      "hit": false,
      "t": 89333.24399999995,
      "d": 1094.4433499999868,
      "v": 100
    },
    {
      "midi": 57,
      "hit": false,
      "t": 90663.79822499993,
      "d": 838.8880499999941,
      "v": 100
    },
    {
      "midi": 61,
      "hit": false,
      "t": 90663.79822499993,
      "d": 880.5546749999921,
      "v": 100
    },
    {
      "midi": 52,
      "hit": false,
      "t": 90663.79822499993,
      "d": 897.2213249999913,
      "v": 100
    },
    {
      "midi": 57,
      "hit": false,
      "t": 91663.79722499993,
      "d": 230.5553249999939,
      "v": 100
    },
    {
      "midi": 61,
      "hit": false,
      "t": 91666.57499999992,
      "d": 233.33310000000347,
      "v": 100
    },
    {
      "midi": 52,
      "hit": false,
      "t": 91666.57499999992,
      "d": 261.1108499999973,
      "v": 100
    },
    {
      "midi": 61,
      "hit": false,
      "t": 91997.13022499993,
      "d": 988.8879000000015,
      "v": 100
    },
    {
      "midi": 52,
      "hit": false,
      "t": 91997.13022499993,
      "d": 1094.4433500000014,
      "v": 100
    },
    {
      "midi": 57,
      "hit": false,
      "t": 91999.90799999992,
      "d": 986.1101250000065,
      "v": 100
    },
    {
      "midi": 64,
      "hit": false,
      "t": 91999.90800000001,
      "d": 327.77744999999413,
      "v": 110
    },
    {
      "midi": 66,
      "hit": false,
      "t": 92333.24100000001,
      "d": 649.9993499999982,
      "v": 110
    },
    {
      "midi": 68,
      "hit": false,
      "t": 92972.12925000001,
      "d": 1161.1099499999982,
      "v": 110
    },
    {
      "midi": 68,
      "hit": false,
      "t": 93330.46222499992,
      "d": 705.5548499999859,
      "v": 100
    },
    {
      "midi": 64,
      "hit": false,
      "t": 93333.23999999992,
      "d": 608.3327250000002,
      "v": 100
    },
    {
      "midi": 59,
      "hit": false,
      "t": 93333.23999999992,
      "d": 666.6659999999974,
      "v": 100
    },
    {
      "midi": 64,
      "hit": false,
      "t": 94330.4612249999,
      "d": 230.5553249999939,
      "v": 100
    },
    {
      "midi": 68,
      "hit": false,
      "t": 94330.4612249999,
      "d": 261.1108499999973,
      "v": 100
    },
    {
      "midi": 59,
      "hit": false,
      "t": 94333.2389999999,
      "d": 236.1108749999985,
      "v": 100
    },
    {
      "midi": 66,
      "hit": false,
      "t": 94333.23900000002,
      "d": 661.1104499999929,
      "v": 110
    },
    {
      "midi": 64,
      "hit": false,
      "t": 94666.5719999999,
      "d": 822.2213999999949,
      "v": 100
    },
    {
      "midi": 68,
      "hit": false,
      "t": 94666.5719999999,
      "d": 897.2213249999913,
      "v": 100
    },
    {
      "midi": 59,
      "hit": false,
      "t": 94669.3497749999,
      "d": 858.3324750000029,
      "v": 100
    },
    {
      "midi": 63,
      "hit": false,
      "t": 95611.01550000001,
      "d": 1977.775800000003,
      "v": 110
    },
    {
      "midi": 66,
      "hit": false,
      "t": 95999.9039999999,
      "d": 666.6659999999974,
      "v": 100
    },
    {
      "midi": 63,
      "hit": false,
      "t": 96002.68177499989,
      "d": 549.999450000003,
      "v": 100
    },
    {
      "midi": 59,
      "hit": false,
      "t": 96002.68177499989,
      "d": 694.4437500000058,
      "v": 100
    },
    {
      "midi": 63,
      "hit": false,
      "t": 96997.1252249999,
      "d": 219.44422499999928,
      "v": 100
    },
    {
      "midi": 66,
      "hit": false,
      "t": 96997.1252249999,
      "d": 247.2219749999931,
      "v": 100
    },
    {
      "midi": 59,
      "hit": false,
      "t": 96997.1252249999,
      "d": 263.8886249999923,
      "v": 100
    },
    {
      "midi": 59,
      "hit": false,
      "t": 97330.4582249999,
      "d": 1202.7765749999962,
      "v": 100
    },
    {
      "midi": 66,
      "hit": false,
      "t": 97330.4582249999,
      "d": 1263.887625000003,
      "v": 100
    },
    {
      "midi": 63,
      "hit": false,
      "t": 97330.4582249999,
      "d": 1305.554250000001,
      "v": 100
    },
    {
      "midi": 59,
      "hit": false,
      "t": 98666.5679999999,
      "d": 333.3329999999987,
      "v": 100
    },
    {
      "midi": 61,
      "hit": false,
      "t": 98999.9009999999,
      "d": 333.3329999999987,
      "v": 100
    },
    {
      "midi": 63,
      "hit": false,
      "t": 99336.01177499989,
      "d": 333.3329999999987,
      "v": 100
    },
    {
      "midi": 66,
      "hit": false,
      "t": 99669.34477499989,
      "d": 333.3329999999987,
      "v": 100
    },
    {
      "midi": 64,
      "hit": false,
      "t": 99999.89999999989,
      "d": 333.3329999999987,
      "v": 100
    },
    {
      "midi": 63,
      "hit": false,
      "t": 100333.23299999989,
      "d": 333.3329999999987,
      "v": 100
    },
    {
      "midi": 61,
      "hit": false,
      "t": 100669.34377499988,
      "d": 333.3329999999987,
      "v": 100
    },
    {
      "midi": 59,
      "hit": false,
      "t": 100999.89899999989,
      "d": 333.33299999998417,
      "v": 100
    },
    {
      "midi": 61,
      "hit": false,
      "t": 101330.45422499988,
      "d": 755.5547999999981,
      "v": 100
    },
    {
      "midi": 66,
      "hit": false,
      "t": 101333.23199999987,
      "d": 727.7770500000042,
      "v": 100
    },
    {
      "midi": 70,
      "hit": false,
      "t": 101333.23199999987,
      "d": 749.999250000008,
      "v": 100
    },
    {
      "midi": 54,
      "hit": false,
      "t": 102330.45322499987,
      "d": 233.33309999998892,
      "v": 100
    },
    {
      "midi": 61,
      "hit": false,
      "t": 102330.45322499987,
      "d": 249.99974999998813,
      "v": 100
    },
    {
      "midi": 66,
      "hit": false,
      "t": 102330.45322499987,
      "d": 255.5552999999927,
      "v": 100
    },
    {
      "midi": 70,
      "hit": false,
      "t": 102333.23099999987,
      "d": 197.22202499999548,
      "v": 100
    },
    {
      "midi": 66,
      "hit": false,
      "t": 102663.78622499987,
      "d": 1027.7767500000045,
      "v": 100
    },
    {
      "midi": 54,
      "hit": false,
      "t": 102663.78622499987,
      "d": 1033.3323000000091,
      "v": 100
    },
    {
      "midi": 61,
      "hit": false,
      "t": 102663.78622499987,
      "d": 1058.332275000008,
      "v": 100
    },
    {
      "midi": 70,
      "hit": false,
      "t": 102663.78622499987,
      "d": 1072.2211500000121,
      "v": 100
    },
    {
      "midi": 58,
      "hit": false,
      "t": 102666.56400000001,
      "d": 327.77744999999413,
      "v": 110
    },
    {
      "midi": 59,
      "hit": false,
      "t": 102999.89700000001,
      "d": 499.99950000000536,
      "v": 110
    },
    {
      "midi": 61,
      "hit": false,
      "t": 103666.56300000002,
      "d": 1649.9983499999944,
      "v": 110
    },
    {
      "midi": 54,
      "hit": false,
      "t": 103997.11822499988,
      "d": 736.1103749999893,
      "v": 100
    },
    {
      "midi": 61,
      "hit": false,
      "t": 103997.11822499988,
      "d": 774.9992249999923,
      "v": 100
    },
    {
      "midi": 66,
      "hit": false,
      "t": 103997.11822499988,
      "d": 813.8880749999953,
      "v": 100
    },
    {
      "midi": 70,
      "hit": false,
      "t": 103999.89599999988,
      "d": 794.4436500000011,
      "v": 100
    },
    {
      "midi": 70,
      "hit": false,
      "t": 104997.11722499988,
      "d": 230.5553249999939,
      "v": 100
    },
    {
      "midi": 54,
      "hit": false,
      "t": 104997.11722499988,
      "d": 261.1108499999973,
      "v": 100
    },
    {
      "midi": 61,
      "hit": false,
      "t": 104997.11722499988,
      "d": 272.2219499999919,
      "v": 100
    },
    {
      "midi": 66,
      "hit": false,
      "t": 104997.11722499988,
      "d": 274.99972499998694,
      "v": 100
    },
    {
      "midi": 66,
      "hit": false,
      "t": 105330.45022499986,
      "d": 874.9991249999875,
      "v": 100
    },
    {
      "midi": 61,
      "hit": false,
      "t": 105333.22799999986,
      "d": 799.9992000000057,
      "v": 100
    },
    {
      "midi": 54,
      "hit": false,
      "t": 105333.22799999986,
      "d": 827.7769499999995,
      "v": 100
    },
    {
      "midi": 70,
      "hit": false,
      "t": 105333.22799999986,
      "d": 894.4435499999963,
      "v": 100
    },
    {
      "midi": 63,
      "hit": false,
      "t": 105333.22800000002,
      "d": 327.77744999999413,
      "v": 110
    },
    {
      "midi": 64,
      "hit": false,
      "t": 105666.56100000002,
      "d": 549.999450000003,
      "v": 110
    },
    {
      "midi": 68,
      "hit": false,
      "t": 106333.22700000001,
      "d": 1111.1100000000006,
      "v": 110
    },
    {
      "midi": 59,
      "hit": false,
      "t": 106663.78222499986,
      "d": 855.5546999999933,
      "v": 100
    },
    {
      "midi": 64,
      "hit": false,
      "t": 106666.55999999985,
      "d": 827.7769499999995,
      "v": 100
    },
    {
      "midi": 68,
      "hit": false,
      "t": 106666.55999999985,
      "d": 841.6658250000037,
      "v": 100
    },
    {
      "midi": 64,
      "hit": false,
      "t": 107666.55899999985,
      "d": 227.77754999999888,
      "v": 100
    },
    {
      "midi": 68,
      "hit": false,
      "t": 107666.55899999985,
      "d": 230.5553249999939,
      "v": 100
    },
    {
      "midi": 59,
      "hit": false,
      "t": 107666.55899999985,
      "d": 261.1108499999973,
      "v": 100
    },
    {
      "midi": 68,
      "hit": false,
      "t": 107999.89199999985,
      "d": 849.9991499999887,
      "v": 100
    },
    {
      "midi": 64,
      "hit": false,
      "t": 107999.89199999985,
      "d": 891.6657749999868,
      "v": 100
    },
    {
      "midi": 59,
      "hit": false,
      "t": 108002.66977499984,
      "d": 997.2212249999866,
      "v": 100
    },
    {
      "midi": 61,
      "hit": false,
      "t": 109333.22399999983,
      "d": 802.7769750000007,
      "v": 100
    },
    {
      "midi": 64,
      "hit": false,
      "t": 109336.00177499982,
      "d": 786.1103250000015,
      "v": 100
    },
    {
      "midi": 61,
      "hit": false,
      "t": 110330.44522499983,
      "d": 288.8886000000057,
      "v": 100
    },
    {
      "midi": 64,
      "hit": false,
      "t": 110330.44522499983,
      "d": 316.6663499999995,
      "v": 100
    },
    {
      "midi": 63,
      "hit": false,
      "t": 110663.77822499983,
      "d": 1138.8877499999944,
      "v": 100
    },
    {
      "midi": 59,
      "hit": false,
      "t": 110666.55599999982,
      "d": 1094.4433500000014,
      "v": 100
    },
    {
      "midi": 61,
      "hit": false,
      "t": 111999.88799999982,
      "d": 847.2213749999937,
      "v": 100
    },
    {
      "midi": 57,
      "hit": false,
      "t": 111999.88799999982,
      "d": 866.6657999999879,
      "v": 100
    },
    {
      "midi": 57,
      "hit": false,
      "t": 112997.1092249998,
      "d": 261.1108499999973,
      "v": 100
    },
    {
      "midi": 61,
      "hit": false,
      "t": 112997.1092249998,
      "d": 269.4441749999969,
      "v": 100
    },
    {
      "midi": 57,
      "hit": false,
      "t": 113330.4422249998,
      "d": 922.2213000000047,
      "v": 100
    },
    {
      "midi": 61,
      "hit": false,
      "t": 113330.4422249998,
      "d": 994.4434500000061,
      "v": 100
    },
    {
      "midi": 64,
      "hit": false,
      "t": 113333.22000000002,
      "d": 327.77744999999413,
      "v": 110
    },
    {
      "midi": 66,
      "hit": false,
      "t": 113666.55300000001,
      "d": 649.9993499999982,
      "v": 110
    },
    {
      "midi": 68,
      "hit": false,
      "t": 114322.10790000002,
      "d": 1311.1098000000056,
      "v": 110
    },
    {
      "midi": 64,
      "hit": false,
      "t": 114610.9964999998,
      "d": 824.9991750000045,
      "v": 100
    },
    {
      "midi": 68,
      "hit": false,
      "t": 114624.88537499981,
      "d": 894.4435499999963,
      "v": 100
    },
    {
      "midi": 66,
      "hit": false,
      "t": 115638.77325000003,
      "d": 538.8883500000084,
      "v": 110
    },
    {
      "midi": 68,
      "hit": false,
      "t": 115641.5510249998,
      "d": 238.8886499999935,
      "v": 100
    },
    {
      "midi": 64,
      "hit": false,
      "t": 115652.6621249998,
      "d": 188.88869999999588,
      "v": 100
    },
    {
      "midi": 68,
      "hit": false,
      "t": 115980.4395749998,
      "d": 1041.6656249999942,
      "v": 100
    },
    {
      "midi": 64,
      "hit": false,
      "t": 115997.10622499979,
      "d": 1008.3323249999958,
      "v": 100
    },
    {
      "midi": 64,
      "hit": false,
      "t": 116155.43940000003,
      "d": 627.777150000009,
      "v": 110
    },
    {
      "midi": 59,
      "hit": false,
      "t": 117302.6604749998,
      "d": 822.2213999999949,
      "v": 100
    },
    {
      "midi": 63,
      "hit": false,
      "t": 117313.77157499979,
      "d": 894.4435499999963,
      "v": 100
    },
    {
      "midi": 68,
      "hit": false,
      "t": 117344.32710000004,
      "d": 594.443849999996,
      "v": 110
    },
    {
      "midi": 63,
      "hit": false,
      "t": 118330.43722499978,
      "d": 241.66642500000307,
      "v": 100
    },
    {
      "midi": 59,
      "hit": false,
      "t": 118344.32609999979,
      "d": 188.88869999999588,
      "v": 100
    },
    {
      "midi": 66,
      "hit": false,
      "t": 118360.99275000003,
      "d": 1188.8877000000066,
      "v": 110
    },
    {
      "midi": 63,
      "hit": false,
      "t": 118672.10354999978,
      "d": 1041.6656250000087,
      "v": 100
    },
    {
      "midi": 59,
      "hit": false,
      "t": 118685.99242499979,
      "d": 1011.1101000000053,
      "v": 100
    },
    {
      "midi": 59,
      "hit": false,
      "t": 119997.10222499979,
      "d": 333.3329999999987,
      "v": 100
    },
    {
      "midi": 61,
      "hit": false,
      "t": 120344.3240999998,
      "d": 333.3329999999987,
      "v": 100
    },
    {
      "midi": 63,
      "hit": false,
      "t": 120652.6571249998,
      "d": 333.3329999999987,
      "v": 100
    },
    {
      "midi": 66,
      "hit": false,
      "t": 120980.43457499979,
      "d": 333.3329999999987,
      "v": 100
    },
    {
      "midi": 64,
      "hit": false,
      "t": 121327.65644999979,
      "d": 333.3329999999987,
      "v": 100
    },
    {
      "midi": 63,
      "hit": false,
      "t": 121644.32279999979,
      "d": 333.3329999999987,
      "v": 100
    },
    {
      "midi": 61,
      "hit": false,
      "t": 121974.8780249998,
      "d": 333.3329999999987,
      "v": 100
    },
    {
      "midi": 59,
      "hit": false,
      "t": 122333.21099999979,
      "d": 333.33299999998417,
      "v": 100
    },
    {
      "midi": 54,
      "hit": false,
      "t": 122627.65514999979,
      "d": 822.2213999999949,
      "v": 100
    },
    {
      "midi": 61,
      "hit": false,
      "t": 122647.09957499978,
      "d": 802.7769750000007,
      "v": 100
    },
    {
      "midi": 66,
      "hit": false,
      "t": 122649.87735000004,
      "d": 616.6660499999998,
      "v": 110
    },
    {
      "midi": 66,
      "hit": false,
      "t": 122655.43289999978,
      "d": 813.8880749999953,
      "v": 100
    },
    {
      "midi": 70,
      "hit": false,
      "t": 122655.43289999978,
      "d": 813.8880749999953,
      "v": 100
    },
    {
      "midi": 64,
      "hit": false,
      "t": 123338.76555000004,
      "d": 1994.4424500000023,
      "v": 110
    },
    {
      "midi": 61,
      "hit": false,
      "t": 123638.76524999978,
      "d": 258.3330750000023,
      "v": 100
    },
    {
      "midi": 66,
      "hit": false,
      "t": 123655.43189999978,
      "d": 258.3330750000023,
      "v": 100
    },
    {
      "midi": 70,
      "hit": false,
      "t": 123666.54299999977,
      "d": 216.66645000000426,
      "v": 100
    },
    {
      "midi": 54,
      "hit": false,
      "t": 123666.54299999977,
      "d": 274.9997250000015,
      "v": 100
    },
    {
      "midi": 61,
      "hit": false,
      "t": 123999.87599999977,
      "d": 1052.7767250000034,
      "v": 100
    },
    {
      "midi": 54,
      "hit": false,
      "t": 123999.87599999977,
      "d": 1066.6656000000075,
      "v": 100
    },
    {
      "midi": 66,
      "hit": false,
      "t": 124005.43154999978,
      "d": 1061.110050000003,
      "v": 100
    },
    {
      "midi": 70,
      "hit": false,
      "t": 124005.43154999978,
      "d": 1061.110050000003,
      "v": 100
    },
    {
      "midi": 66,
      "hit": false,
      "t": 125333.20799999978,
      "d": 333.3329999999987,
      "v": 100
    },
    {
      "midi": 68,
      "hit": false,
      "t": 125666.54099999978,
      "d": 333.3329999999987,
      "v": 100
    },
    {
      "midi": 70,
      "hit": false,
      "t": 125999.87399999978,
      "d": 333.3329999999987,
      "v": 100
    },
    {
      "midi": 73,
      "hit": false,
      "t": 126333.20699999978,
      "d": 333.3329999999987,
      "v": 100
    },
    {
      "midi": 71,
      "hit": false,
      "t": 126666.53999999978,
      "d": 333.3329999999987,
      "v": 100
    },
    {
      "midi": 70,
      "hit": false,
      "t": 126999.87299999977,
      "d": 333.3329999999987,
      "v": 100
    },
    {
      "midi": 68,
      "hit": false,
      "t": 127333.20599999977,
      "d": 333.3329999999987,
      "v": 100
    },
    {
      "midi": 66,
      "hit": false,
      "t": 127666.53899999977,
      "d": 333.3329999999987,
      "v": 100
    },
    {
      "midi": 64,
      "hit": false,
      "t": 128016.53864999977,
      "d": 780.5547749999969,
      "v": 100
    },
    {
      "midi": 61,
      "hit": false,
      "t": 128016.53864999977,
      "d": 808.3325249999907,
      "v": 100
    },
    {
      "midi": 61,
      "hit": false,
      "t": 128952.64882499976,
      "d": 280.5552750000061,
      "v": 100
    },
    {
      "midi": 64,
      "hit": false,
      "t": 128952.64882499976,
      "d": 308.3330249999999,
      "v": 100
    },
    {
      "midi": 64,
      "hit": false,
      "t": 129005.42655000005,
      "d": 661.1104499999929,
      "v": 110
    },
    {
      "midi": 61,
      "hit": false,
      "t": 129344.31509999976,
      "d": 1088.8877999999968,
      "v": 100
    },
    {
      "midi": 64,
      "hit": false,
      "t": 129344.31509999976,
      "d": 1088.8877999999968,
      "v": 100
    },
    {
      "midi": 66,
      "hit": false,
      "t": 129694.31475000003,
      "d": 472.221749999997,
      "v": 110
    },
    {
      "midi": 64,
      "hit": false,
      "t": 130366.53630000004,
      "d": 327.77744999999413,
      "v": 110
    },
    {
      "midi": 61,
      "hit": false,
      "t": 130660.98044999976,
      "d": 819.4436249999999,
      "v": 100
    },
    {
      "midi": 63,
      "hit": false,
      "t": 130666.53600000004,
      "d": 655.5549000000028,
      "v": 110
    },
    {
      "midi": 64,
      "hit": false,
      "t": 130672.09154999975,
      "d": 824.9991750000045,
      "v": 100
    },
    {
      "midi": 61,
      "hit": false,
      "t": 131630.42392499975,
      "d": 238.88865000000806,
      "v": 100
    },
    {
      "midi": 64,
      "hit": false,
      "t": 131641.53502499976,
      "d": 308.3330249999999,
      "v": 100
    },
    {
      "midi": 63,
      "hit": false,
      "t": 131666.53500000003,
      "d": 244.4441999999981,
      "v": 110
    },
    {
      "midi": 63,
      "hit": false,
      "t": 131985.97912499975,
      "d": 1105.554449999996,
      "v": 100
    },
    {
      "midi": 59,
      "hit": false,
      "t": 131997.09022499976,
      "d": 1102.776675000001,
      "v": 100
    },
    {
      "midi": 61,
      "hit": false,
      "t": 131999.86800000002,
      "d": 288.8886000000057,
      "v": 110
    },
    {
      "midi": 63,
      "hit": false,
      "t": 132322.08990000002,
      "d": 599.9994000000006,
      "v": 110
    },
    {
      "midi": 64,
      "hit": false,
      "t": 132994.31145,
      "d": 1255.5542999999889,
      "v": 110
    },
    {
      "midi": 59,
      "hit": false,
      "t": 133319.31112499977,
      "d": 4647.217574999988,
      "v": 100
    },
    {
      "midi": 64,
      "hit": false,
      "t": 133319.31112499977,
      "d": 4661.106449999992,
      "v": 100
    },
    {
      "midi": 63,
      "hit": false,
      "t": 137010.9741,
      "d": 177.77760000000126,
      "v": 110
    },
    {
      "midi": 64,
      "hit": false,
      "t": 137333.196,
      "d": 266.66639999998733,
      "v": 110
    },
    {
      "midi": 66,
      "hit": false,
      "t": 137677.6401,
      "d": 2088.8868000000075,
      "v": 110
    },
    {
      "midi": 59,
      "hit": false,
      "t": 138660.97244999977,
      "d": 736.1103749999893,
      "v": 100
    },
    {
      "midi": 63,
      "hit": false,
      "t": 138691.52797499977,
      "d": 763.8881249999977,
      "v": 100
    },
    {
      "midi": 66,
      "hit": false,
      "t": 138691.52797499977,
      "d": 763.8881249999977,
      "v": 100
    },
    {
      "midi": 59,
      "hit": false,
      "t": 139641.52702499976,
      "d": 274.9997250000015,
      "v": 100
    },
    {
      "midi": 63,
      "hit": false,
      "t": 139641.52702499976,
      "d": 288.8886000000057,
      "v": 100
    },
    {
      "midi": 66,
      "hit": false,
      "t": 139641.52702499976,
      "d": 288.8886000000057,
      "v": 100
    },
    {
      "midi": 59,
      "hit": false,
      "t": 139999.85999999975,
      "d": 944.443500000023,
      "v": 100
    },
    {
      "midi": 66,
      "hit": false,
      "t": 140002.63777499975,
      "d": 1358.3319750000373,
      "v": 100
    },
    {
      "midi": 63,
      "hit": false,
      "t": 140010.97109999976,
      "d": 1319.4431250000198,
      "v": 100
    },
    {
      "midi": 59,
      "hit": false,
      "t": 141319.30312499977,
      "d": 1055.5545000000275,
      "v": 100
    },
    {
      "midi": 63,
      "hit": false,
      "t": 142305.41324999978,
      "d": 355.5552000000316,
      "v": 100
    },
    {
      "midi": 66,
      "hit": false,
      "t": 142316.5243499998,
      "d": 433.3329000000085,
      "v": 100
    },
    {
      "midi": 64,
      "hit": false,
      "t": 142644.3017999998,
      "d": 411.1107000000193,
      "v": 100
    },
    {
      "midi": 68,
      "hit": false,
      "t": 142660.9684499998,
      "d": 427.7773500000185,
      "v": 100
    },
    {
      "midi": 63,
      "hit": false,
      "t": 142969.3014749998,
      "d": 397.2218250000442,
      "v": 100
    },
    {
      "midi": 66,
      "hit": false,
      "t": 142994.30144999982,
      "d": 430.5551250000426,
      "v": 100
    },
    {
      "midi": 68,
      "hit": false,
      "t": 143324.85667499984,
      "d": 391.66627500002505,
      "v": 100
    },
    {
      "midi": 64,
      "hit": false,
      "t": 143352.63442499985,
      "d": 380.5551750000159,
      "v": 100
    },
    {
      "midi": 66,
      "hit": false,
      "t": 143613.74527499988,
      "d": 405.55514999997104,
      "v": 100
    },
    {
      "midi": 63,
      "hit": false,
      "t": 143644.30079999988,
      "d": 374.99962499996764,
      "v": 100
    },
    {
      "midi": 59,
      "hit": false,
      "t": 143999.85599999985,
      "d": 694.4437500000058,
      "v": 100
    },
    {
      "midi": 59,
      "hit": false,
      "t": 144994.29944999985,
      "d": 474.9995250000211,
      "v": 100
    },
    {
      "midi": 66,
      "hit": false,
      "t": 145330.41022499985,
      "d": 1280.5542750000022,
      "v": 100
    },
    {
      "midi": 63,
      "hit": false,
      "t": 145330.41022499985,
      "d": 1327.7764500000048,
      "v": 100
    },
    {
      "midi": 59,
      "hit": false,
      "t": 146663.74222499985,
      "d": 424.99957500002347,
      "v": 100
    },
    {
      "midi": 61,
      "hit": false,
      "t": 146997.07522499986,
      "d": 411.1107000000193,
      "v": 100
    },
    {
      "midi": 63,
      "hit": false,
      "t": 147330.40822499988,
      "d": 347.22187500001746,
      "v": 100
    },
    {
      "midi": 66,
      "hit": false,
      "t": 147663.7412249999,
      "d": 433.3329000000085,
      "v": 100
    },
    {
      "midi": 64,
      "hit": false,
      "t": 147997.0742249999,
      "d": 358.33297499999753,
      "v": 100
    },
    {
      "midi": 63,
      "hit": false,
      "t": 148333.1849999999,
      "d": 374.99962499999674,
      "v": 100
    },
    {
      "midi": 61,
      "hit": false,
      "t": 148666.5179999999,
      "d": 363.88852500001667,
      "v": 100
    },
    {
      "midi": 59,
      "hit": false,
      "t": 148999.8509999999,
      "d": 333.33300000001327,
      "v": 100
    },
    {
      "midi": 63,
      "hit": false,
      "t": 149333.18399999992,
      "d": 138.8887500000128,
      "v": 100
    },
    {
      "midi": 66,
      "hit": false,
      "t": 149333.18399999992,
      "d": 138.8887500000128,
      "v": 100
    },
    {
      "midi": 70,
      "hit": false,
      "t": 149333.18399999992,
      "d": 333.33300000001327,
      "v": 100
    },
    {
      "midi": 51,
      "hit": false,
      "t": 149333.184,
      "d": 288.8886000000057,
      "v": 80
    },
    {
      "midi": 63,
      "hit": false,
      "t": 149985.96112499994,
      "d": 155.555400000012,
      "v": 100
    },
    {
      "midi": 66,
      "hit": false,
      "t": 149985.96112499994,
      "d": 174.99982500000624,
      "v": 100
    },
    {
      "midi": 70,
      "hit": false,
      "t": 149985.96112499994,
      "d": 358.33297499999753,
      "v": 100
    },
    {
      "midi": 51,
      "hit": false,
      "t": 149999.85,
      "d": 322.2219000000041,
      "v": 86
    },
    {
      "midi": 63,
      "hit": false,
      "t": 150666.51599999995,
      "d": 216.6664499999897,
      "v": 100
    },
    {
      "midi": 66,
      "hit": false,
      "t": 150666.51599999995,
      "d": 241.66642500000307,
      "v": 100
    },
    {
      "midi": 70,
      "hit": false,
      "t": 150666.51599999995,
      "d": 333.33300000001327,
      "v": 100
    },
    {
      "midi": 51,
      "hit": false,
      "t": 150666.516,
      "d": 288.8886000000057,
      "v": 80
    },
    {
      "midi": 70,
      "hit": false,
      "t": 151327.62644999995,
      "d": 269.44417500001146,
      "v": 100
    },
    {
      "midi": 63,
      "hit": false,
      "t": 151330.40422499995,
      "d": 252.77752500001225,
      "v": 100
    },
    {
      "midi": 66,
      "hit": false,
      "t": 151330.40422499995,
      "d": 252.77752500001225,
      "v": 100
    },
    {
      "midi": 51,
      "hit": false,
      "t": 151333.182,
      "d": 255.55530000000726,
      "v": 80
    },
    {
      "midi": 68,
      "hit": false,
      "t": 151997.07022499997,
      "d": 299.99970000001485,
      "v": 100
    },
    {
      "midi": 71,
      "hit": false,
      "t": 151997.07022499997,
      "d": 322.2219000000041,
      "v": 100
    },
    {
      "midi": 63,
      "hit": false,
      "t": 151999.84799999997,
      "d": 288.8886000000057,
      "v": 100
    },
    {
      "midi": 56,
      "hit": false,
      "t": 151999.848,
      "d": 327.77744999999413,
      "v": 73
    },
    {
      "midi": 63,
      "hit": false,
      "t": 152633.18069999997,
      "d": 316.66635000001406,
      "v": 100
    },
    {
      "midi": 71,
      "hit": false,
      "t": 152633.18069999997,
      "d": 341.6663250000274,
      "v": 100
    },
    {
      "midi": 68,
      "hit": false,
      "t": 152641.51402499998,
      "d": 308.3330249999999,
      "v": 100
    },
    {
      "midi": 56,
      "hit": false,
      "t": 152666.514,
      "d": 288.8886000000057,
      "v": 88
    },
    {
      "midi": 71,
      "hit": false,
      "t": 153319.291125,
      "d": 286.11082500001066,
      "v": 100
    },
    {
      "midi": 68,
      "hit": false,
      "t": 153330.402225,
      "d": 255.55530000000726,
      "v": 100
    },
    {
      "midi": 63,
      "hit": false,
      "t": 153330.402225,
      "d": 274.9997250000015,
      "v": 100
    },
    {
      "midi": 56,
      "hit": false,
      "t": 153333.18,
      "d": 299.99969999998575,
      "v": 88
    },
    {
      "midi": 63,
      "hit": false,
      "t": 153983.17935,
      "d": 305.5552500000049,
      "v": 100
    },
    {
      "midi": 71,
      "hit": false,
      "t": 153983.17935,
      "d": 313.88857500001905,
      "v": 100
    },
    {
      "midi": 68,
      "hit": false,
      "t": 153994.29045,
      "d": 255.55530000000726,
      "v": 100
    },
    {
      "midi": 56,
      "hit": false,
      "t": 153999.846,
      "d": 322.2219000000041,
      "v": 88
    },
    {
      "midi": 63,
      "hit": false,
      "t": 154663.73422500002,
      "d": 244.4441999999981,
      "v": 100
    },
    {
      "midi": 67,
      "hit": false,
      "t": 154663.73422500002,
      "d": 244.4441999999981,
      "v": 100
    },
    {
      "midi": 71,
      "hit": false,
      "t": 154663.73422500002,
      "d": 244.4441999999981,
      "v": 100
    },
    {
      "midi": 55,
      "hit": false,
      "t": 154666.512,
      "d": 349.9996500000125,
      "v": 67
    },
    {
      "midi": 55,
      "hit": false,
      "t": 155333.178,
      "d": 333.33300000001327,
      "v": 79
    },
    {
      "midi": 63,
      "hit": false,
      "t": 155333.178,
      "d": 305.5552500000049,
      "v": 100
    },
    {
      "midi": 67,
      "hit": false,
      "t": 155333.178,
      "d": 305.5552500000049,
      "v": 100
    },
    {
      "midi": 71,
      "hit": false,
      "t": 155333.178,
      "d": 305.5552500000049,
      "v": 100
    },
    {
      "midi": 63,
      "hit": false,
      "t": 155999.84399999998,
      "d": 322.2219000000041,
      "v": 110
    },
    {
      "midi": 63,
      "hit": false,
      "t": 155999.844,
      "d": 333.33300000001327,
      "v": 100
    },
    {
      "midi": 67,
      "hit": false,
      "t": 155999.844,
      "d": 333.33300000001327,
      "v": 100
    },
    {
      "midi": 71,
      "hit": false,
      "t": 155999.844,
      "d": 333.33300000001327,
      "v": 100
    },
    {
      "midi": 55,
      "hit": false,
      "t": 155999.84400000004,
      "d": 283.33304999998654,
      "v": 87
    },
    {
      "midi": 64,
      "hit": false,
      "t": 156327.62144999998,
      "d": 661.1104500000074,
      "v": 110
    },
    {
      "midi": 66,
      "hit": false,
      "t": 156649.84334999998,
      "d": 327.77744999999413,
      "v": 110
    },
    {
      "midi": 55,
      "hit": false,
      "t": 156666.51000000004,
      "d": 316.66635000001406,
      "v": 82
    },
    {
      "midi": 63,
      "hit": false,
      "t": 156666.51000000004,
      "d": 358.33297499999753,
      "v": 100
    },
    {
      "midi": 67,
      "hit": false,
      "t": 156666.51000000004,
      "d": 358.33297499999753,
      "v": 100
    },
    {
      "midi": 71,
      "hit": false,
      "t": 156666.51000000004,
      "d": 358.33297499999753,
      "v": 100
    },
    {
      "midi": 66,
      "hit": false,
      "t": 156994.28744999997,
      "d": 661.1104500000074,
      "v": 110
    },
    {
      "midi": 61,
      "hit": false,
      "t": 157308.17602500002,
      "d": 263.8886249999923,
      "v": 100
    },
    {
      "midi": 68,
      "hit": false,
      "t": 157319.28712500003,
      "d": 233.33309999998892,
      "v": 100
    },
    {
      "midi": 64,
      "hit": false,
      "t": 157319.28712500003,
      "d": 274.9997249999724,
      "v": 100
    },
    {
      "midi": 61,
      "hit": false,
      "t": 157333.17600000006,
      "d": 322.2219000000041,
      "v": 73
    },
    {
      "midi": 64,
      "hit": false,
      "t": 157655.39789999998,
      "d": 2788.8861000000034,
      "v": 110
    },
    {
      "midi": 61,
      "hit": false,
      "t": 157988.7309,
      "d": 297.22192500001984,
      "v": 100
    },
    {
      "midi": 64,
      "hit": false,
      "t": 157988.7309,
      "d": 308.333025000029,
      "v": 100
    },
    {
      "midi": 68,
      "hit": false,
      "t": 157997.064225,
      "d": 311.110800000024,
      "v": 100
    },
    {
      "midi": 61,
      "hit": false,
      "t": 157999.84200000006,
      "d": 322.2219000000041,
      "v": 97
    },
    {
      "midi": 61,
      "hit": false,
      "t": 158630.39692500004,
      "d": 333.33300000001327,
      "v": 100
    },
    {
      "midi": 68,
      "hit": false,
      "t": 158641.50802500005,
      "d": 322.2219000000041,
      "v": 100
    },
    {
      "midi": 64,
      "hit": false,
      "t": 158641.50802500005,
      "d": 333.33300000001327,
      "v": 100
    },
    {
      "midi": 61,
      "hit": false,
      "t": 158666.50800000006,
      "d": 261.1108499999973,
      "v": 98
    },
    {
      "midi": 61,
      "hit": false,
      "t": 159333.17400000006,
      "d": 305.5552500000049,
      "v": 90
    },
    {
      "midi": 64,
      "hit": false,
      "t": 159333.17400000006,
      "d": 261.1108499999973,
      "v": 100
    },
    {
      "midi": 61,
      "hit": false,
      "t": 159349.84065000006,
      "d": 272.2219500000065,
      "v": 100
    },
    {
      "midi": 68,
      "hit": false,
      "t": 159349.84065000006,
      "d": 272.2219500000065,
      "v": 100
    },
    {
      "midi": 63,
      "hit": false,
      "t": 159972.06225000008,
      "d": 344.44409999999334,
      "v": 100
    },
    {
      "midi": 59,
      "hit": false,
      "t": 159985.95112500008,
      "d": 352.7774249999784,
      "v": 100
    },
    {
      "midi": 68,
      "hit": false,
      "t": 159985.95112500008,
      "d": 358.3329749999684,
      "v": 100
    },
    {
      "midi": 59,
      "hit": false,
      "t": 159999.84000000005,
      "d": 333.33300000001327,
      "v": 85
    },
    {
      "midi": 63,
      "hit": false,
      "t": 160644.28380000003,
      "d": 341.6663249999983,
      "v": 100
    },
    {
      "midi": 59,
      "hit": false,
      "t": 160644.28380000003,
      "d": 374.99962499999674,
      "v": 100
    },
    {
      "midi": 68,
      "hit": false,
      "t": 160649.83935000002,
      "d": 358.33297499999753,
      "v": 100
    },
    {
      "midi": 59,
      "hit": false,
      "t": 160666.50600000008,
      "d": 372.2218500000017,
      "v": 91
    },
    {
      "midi": 63,
      "hit": false,
      "t": 161319.28312500002,
      "d": 299.99970000001485,
      "v": 100
    },
    {
      "midi": 59,
      "hit": false,
      "t": 161319.28312500002,
      "d": 333.33300000001327,
      "v": 100
    },
    {
      "midi": 68,
      "hit": false,
      "t": 161327.61645000003,
      "d": 324.9996749999991,
      "v": 100
    },
    {
      "midi": 59,
      "hit": false,
      "t": 161333.17200000008,
      "d": 383.3329500000109,
      "v": 88
    },
    {
      "midi": 63,
      "hit": false,
      "t": 161972.06025000004,
      "d": 313.88857499998994,
      "v": 100
    },
    {
      "midi": 68,
      "hit": false,
      "t": 161972.06025000004,
      "d": 358.33297499999753,
      "v": 100
    },
    {
      "midi": 59,
      "hit": false,
      "t": 161985.94912500004,
      "d": 336.1107749999792,
      "v": 100
    },
    {
      "midi": 59,
      "hit": false,
      "t": 161999.83800000008,
      "d": 311.1107999999949,
      "v": 83
    },
    {
      "midi": 57,
      "hit": false,
      "t": 162627.61515000003,
      "d": 883.3324500000163,
      "v": 100
    },
    {
      "midi": 64,
      "hit": false,
      "t": 162641.50402500003,
      "d": 880.5546750000212,
      "v": 100
    },
    {
      "midi": 69,
      "hit": false,
      "t": 162641.50402500003,
      "d": 880.5546750000212,
      "v": 100
    },
    {
      "midi": 61,
      "hit": false,
      "t": 162641.50402500003,
      "d": 905.5546500000346,
      "v": 100
    },
    {
      "midi": 57,
      "hit": false,
      "t": 163666.50300000006,
      "d": 499.99950000000536,
      "v": 100
    },
    {
      "midi": 61,
      "hit": false,
      "t": 163666.50300000006,
      "d": 499.99950000000536,
      "v": 100
    },
    {
      "midi": 64,
      "hit": false,
      "t": 163666.50300000006,
      "d": 499.99950000000536,
      "v": 100
    },
    {
      "midi": 69,
      "hit": false,
      "t": 163666.50300000006,
      "d": 499.99950000000536,
      "v": 100
    },
    {
      "midi": 78,
      "hit": false,
      "t": 164013.724875,
      "d": 227.77754999999888,
      "v": 110
    },
    {
      "midi": 78,
      "hit": false,
      "t": 164333.16900000002,
      "d": 433.3329000000085,
      "v": 110
    },
    {
      "midi": 78,
      "hit": false,
      "t": 164999.83500000002,
      "d": 694.4437499999767,
      "v": 110
    },
    {
      "midi": 64,
      "hit": false,
      "t": 165305.39025000005,
      "d": 883.3324500000163,
      "v": 100
    },
    {
      "midi": 59,
      "hit": false,
      "t": 165319.27912500006,
      "d": 858.3324750000029,
      "v": 100
    },
    {
      "midi": 68,
      "hit": false,
      "t": 165319.27912500006,
      "d": 858.3324750000029,
      "v": 100
    },
    {
      "midi": 76,
      "hit": false,
      "t": 165672.05655,
      "d": 888.8879999999772,
      "v": 110
    },
    {
      "midi": 59,
      "hit": false,
      "t": 166333.16700000007,
      "d": 499.99950000000536,
      "v": 100
    },
    {
      "midi": 64,
      "hit": false,
      "t": 166333.16700000007,
      "d": 499.99950000000536,
      "v": 100
    },
    {
      "midi": 68,
      "hit": false,
      "t": 166333.16700000007,
      "d": 499.99950000000536,
      "v": 100
    },
    {
      "midi": 76,
      "hit": false,
      "t": 166680.38887499998,
      "d": 283.33304999998654,
      "v": 110
    },
    {
      "midi": 76,
      "hit": false,
      "t": 167077.61069999996,
      "d": 444.4439999999886,
      "v": 110
    },
    {
      "midi": 76,
      "hit": false,
      "t": 167697.05452499996,
      "d": 674.9993250000116,
      "v": 110
    },
    {
      "midi": 63,
      "hit": false,
      "t": 167997.0542250001,
      "d": 858.3324750000029,
      "v": 100
    },
    {
      "midi": 59,
      "hit": false,
      "t": 168005.3875500001,
      "d": 833.3324999999895,
      "v": 100
    },
    {
      "midi": 75,
      "hit": false,
      "t": 168308.16502499997,
      "d": 2358.33097499999,
      "v": 110
    },
    {
      "midi": 59,
      "hit": false,
      "t": 168999.8310000001,
      "d": 499.99950000000536,
      "v": 100
    },
    {
      "midi": 63,
      "hit": false,
      "t": 168999.8310000001,
      "d": 499.99950000000536,
      "v": 100
    },
    {
      "midi": 59,
      "hit": false,
      "t": 170663.7182250001,
      "d": 333.33299999998417,
      "v": 100
    },
    {
      "midi": 61,
      "hit": false,
      "t": 170974.8290250001,
      "d": 333.33299999998417,
      "v": 100
    },
    {
      "midi": 63,
      "hit": false,
      "t": 171330.38422500007,
      "d": 333.33300000001327,
      "v": 100
    },
    {
      "midi": 66,
      "hit": false,
      "t": 171622.05060000008,
      "d": 333.33300000001327,
      "v": 100
    },
    {
      "midi": 64,
      "hit": false,
      "t": 171966.4947000001,
      "d": 333.33300000001327,
      "v": 100
    },
    {
      "midi": 63,
      "hit": false,
      "t": 172305.3832500001,
      "d": 333.33300000001327,
      "v": 100
    },
    {
      "midi": 61,
      "hit": false,
      "t": 172663.71622500013,
      "d": 333.33300000001327,
      "v": 100
    },
    {
      "midi": 59,
      "hit": false,
      "t": 172997.04922500014,
      "d": 333.33300000001327,
      "v": 100
    },
    {
      "midi": 66,
      "hit": false,
      "t": 173316.49335000015,
      "d": 261.1108500000264,
      "v": 100
    },
    {
      "midi": 70,
      "hit": false,
      "t": 173330.38222500015,
      "d": 266.66640000001644,
      "v": 100
    },
    {
      "midi": 51,
      "hit": false,
      "t": 173333.16000000006,
      "d": 288.8886000000057,
      "v": 80
    },
    {
      "midi": 63,
      "hit": false,
      "t": 173355.38220000017,
      "d": 238.88865000000806,
      "v": 100
    },
    {
      "midi": 63,
      "hit": false,
      "t": 173983.15935000018,
      "d": 227.77754999999888,
      "v": 100
    },
    {
      "midi": 66,
      "hit": false,
      "t": 173983.15935000018,
      "d": 227.77754999999888,
      "v": 100
    },
    {
      "midi": 70,
      "hit": false,
      "t": 173983.15935000018,
      "d": 258.3330750000023,
      "v": 100
    },
    {
      "midi": 51,
      "hit": false,
      "t": 173999.82600000006,
      "d": 322.2219000000041,
      "v": 86
    },
    {
      "midi": 51,
      "hit": false,
      "t": 174666.49200000006,
      "d": 288.8886000000057,
      "v": 80
    },
    {
      "midi": 66,
      "hit": false,
      "t": 174697.04752500018,
      "d": 199.9998000000196,
      "v": 100
    },
    {
      "midi": 70,
      "hit": false,
      "t": 174697.04752500018,
      "d": 233.33310000001802,
      "v": 100
    },
    {
      "midi": 63,
      "hit": false,
      "t": 174705.3808500002,
      "d": 183.3331499999913,
      "v": 100
    },
    {
      "midi": 51,
      "hit": false,
      "t": 175333.15800000005,
      "d": 255.55530000000726,
      "v": 80
    },
    {
      "midi": 66,
      "hit": false,
      "t": 175333.1580000002,
      "d": 238.88864999997895,
      "v": 100
    },
    {
      "midi": 70,
      "hit": false,
      "t": 175333.1580000002,
      "d": 263.8886249999923,
      "v": 100
    },
    {
      "midi": 63,
      "hit": false,
      "t": 175355.3802000002,
      "d": 183.3331499999913,
      "v": 100
    },
    {
      "midi": 68,
      "hit": false,
      "t": 175994.26845000018,
      "d": 244.4441999999981,
      "v": 100
    },
    {
      "midi": 63,
      "hit": false,
      "t": 175994.26845000018,
      "d": 277.7774999999965,
      "v": 100
    },
    {
      "midi": 56,
      "hit": false,
      "t": 175999.82400000005,
      "d": 327.77744999999413,
      "v": 73
    },
    {
      "midi": 71,
      "hit": false,
      "t": 176022.0462000002,
      "d": 233.33309999998892,
      "v": 100
    },
    {
      "midi": 68,
      "hit": false,
      "t": 176663.71222500017,
      "d": 266.66640000001644,
      "v": 100
    },
    {
      "midi": 71,
      "hit": false,
      "t": 176663.71222500017,
      "d": 299.99970000001485,
      "v": 100
    },
    {
      "midi": 56,
      "hit": false,
      "t": 176666.49000000005,
      "d": 288.8886000000057,
      "v": 88
    },
    {
      "midi": 63,
      "hit": false,
      "t": 176672.04555000018,
      "d": 247.2219749999931,
      "v": 100
    },
    {
      "midi": 68,
      "hit": false,
      "t": 177330.3782250002,
      "d": 244.4441999999981,
      "v": 100
    },
    {
      "midi": 71,
      "hit": false,
      "t": 177330.3782250002,
      "d": 344.44409999999334,
      "v": 100
    },
    {
      "midi": 63,
      "hit": false,
      "t": 177330.3782250002,
      "d": 366.6662999999826,
      "v": 100
    },
    {
      "midi": 56,
      "hit": false,
      "t": 177333.15600000005,
      "d": 299.99969999998575,
      "v": 88
    },
    {
      "midi": 56,
      "hit": false,
      "t": 177999.82200000004,
      "d": 322.2219000000041,
      "v": 88
    },
    {
      "midi": 68,
      "hit": false,
      "t": 177999.8220000002,
      "d": 261.1108499999973,
      "v": 100
    },
    {
      "midi": 71,
      "hit": false,
      "t": 177999.8220000002,
      "d": 283.33304999998654,
      "v": 100
    },
    {
      "midi": 63,
      "hit": false,
      "t": 177999.8220000002,
      "d": 352.7774249999784,
      "v": 100
    },
    {
      "midi": 63,
      "hit": false,
      "t": 178663.71022500016,
      "d": 244.4441999999981,
      "v": 100
    },
    {
      "midi": 67,
      "hit": false,
      "t": 178663.71022500016,
      "d": 244.4441999999981,
      "v": 100
    },
    {
      "midi": 71,
      "hit": false,
      "t": 178663.71022500016,
      "d": 244.4441999999981,
      "v": 100
    },
    {
      "midi": 55,
      "hit": false,
      "t": 178666.48800000004,
      "d": 349.9996500000125,
      "v": 67
    },
    {
      "midi": 55,
      "hit": false,
      "t": 179333.15400000007,
      "d": 333.33300000001327,
      "v": 79
    },
    {
      "midi": 63,
      "hit": false,
      "t": 179333.15400000016,
      "d": 305.5552500000049,
      "v": 100
    },
    {
      "midi": 67,
      "hit": false,
      "t": 179333.15400000016,
      "d": 305.5552500000049,
      "v": 100
    },
    {
      "midi": 71,
      "hit": false,
      "t": 179333.15400000016,
      "d": 305.5552500000049,
      "v": 100
    },
    {
      "midi": 55,
      "hit": false,
      "t": 179999.8200000001,
      "d": 283.33304999998654,
      "v": 87
    },
    {
      "midi": 63,
      "hit": false,
      "t": 179999.82000000015,
      "d": 333.33300000001327,
      "v": 100
    },
    {
      "midi": 67,
      "hit": false,
      "t": 179999.82000000015,
      "d": 333.33300000001327,
      "v": 100
    },
    {
      "midi": 71,
      "hit": false,
      "t": 179999.82000000015,
      "d": 333.33300000001327,
      "v": 100
    },
    {
      "midi": 64,
      "hit": false,
      "t": 180327.59745,
      "d": 661.1104500000074,
      "v": 110
    },
    {
      "midi": 66,
      "hit": false,
      "t": 180649.81935,
      "d": 327.77744999999413,
      "v": 110
    },
    {
      "midi": 55,
      "hit": false,
      "t": 180666.4860000001,
      "d": 316.66635000001406,
      "v": 82
    },
    {
      "midi": 63,
      "hit": false,
      "t": 180666.48600000018,
      "d": 358.33297499999753,
      "v": 100
    },
    {
      "midi": 67,
      "hit": false,
      "t": 180666.48600000018,
      "d": 358.33297499999753,
      "v": 100
    },
    {
      "midi": 71,
      "hit": false,
      "t": 180666.48600000018,
      "d": 358.33297499999753,
      "v": 100
    },
    {
      "midi": 66,
      "hit": false,
      "t": 180994.26345,
      "d": 661.1104500000074,
      "v": 110
    },
    {
      "midi": 61,
      "hit": false,
      "t": 181308.15202500016,
      "d": 263.8886249999923,
      "v": 100
    },
    {
      "midi": 68,
      "hit": false,
      "t": 181319.26312500017,
      "d": 233.33309999998892,
      "v": 100
    },
    {
      "midi": 64,
      "hit": false,
      "t": 181319.26312500017,
      "d": 274.9997249999724,
      "v": 100
    },
    {
      "midi": 61,
      "hit": false,
      "t": 181333.15200000012,
      "d": 322.2219000000041,
      "v": 73
    },
    {
      "midi": 64,
      "hit": false,
      "t": 181655.3739,
      "d": 2788.8861000000034,
      "v": 110
    },
    {
      "midi": 61,
      "hit": false,
      "t": 181988.70690000014,
      "d": 297.22192500001984,
      "v": 100
    },
    {
      "midi": 64,
      "hit": false,
      "t": 181988.70690000014,
      "d": 308.333025000029,
      "v": 100
    },
    {
      "midi": 68,
      "hit": false,
      "t": 181997.04022500015,
      "d": 311.110800000024,
      "v": 100
    },
    {
      "midi": 61,
      "hit": false,
      "t": 181999.81800000012,
      "d": 322.2219000000041,
      "v": 97
    },
    {
      "midi": 61,
      "hit": false,
      "t": 182630.37292500018,
      "d": 333.33300000001327,
      "v": 100
    },
    {
      "midi": 68,
      "hit": false,
      "t": 182641.4840250002,
      "d": 322.2219000000041,
      "v": 100
    },
    {
      "midi": 64,
      "hit": false,
      "t": 182641.4840250002,
      "d": 333.33300000001327,
      "v": 100
    },
    {
      "midi": 61,
      "hit": false,
      "t": 182666.4840000001,
      "d": 261.1108499999973,
      "v": 98
    },
    {
      "midi": 61,
      "hit": false,
      "t": 183333.1500000001,
      "d": 305.5552500000049,
      "v": 90
    },
    {
      "midi": 64,
      "hit": false,
      "t": 183333.1500000002,
      "d": 261.1108499999973,
      "v": 100
    },
    {
      "midi": 61,
      "hit": false,
      "t": 183349.8166500002,
      "d": 272.2219500000065,
      "v": 100
    },
    {
      "midi": 68,
      "hit": false,
      "t": 183349.8166500002,
      "d": 272.2219500000065,
      "v": 100
    },
    {
      "midi": 63,
      "hit": false,
      "t": 183972.03825000022,
      "d": 344.44409999999334,
      "v": 100
    },
    {
      "midi": 59,
      "hit": false,
      "t": 183985.92712500022,
      "d": 352.7774249999784,
      "v": 100
    },
    {
      "midi": 68,
      "hit": false,
      "t": 183985.92712500022,
      "d": 358.3329749999684,
      "v": 100
    },
    {
      "midi": 59,
      "hit": false,
      "t": 183999.8160000001,
      "d": 333.33300000001327,
      "v": 85
    },
    {
      "midi": 63,
      "hit": false,
      "t": 184644.25980000017,
      "d": 341.6663249999983,
      "v": 100
    },
    {
      "midi": 59,
      "hit": false,
      "t": 184644.25980000017,
      "d": 374.99962499999674,
      "v": 100
    },
    {
      "midi": 68,
      "hit": false,
      "t": 184649.81535000016,
      "d": 358.33297499999753,
      "v": 100
    },
    {
      "midi": 59,
      "hit": false,
      "t": 184666.48200000013,
      "d": 372.2218500000017,
      "v": 91
    },
    {
      "midi": 63,
      "hit": false,
      "t": 185319.25912500016,
      "d": 299.99970000001485,
      "v": 100
    },
    {
      "midi": 59,
      "hit": false,
      "t": 185319.25912500016,
      "d": 333.33300000001327,
      "v": 100
    },
    {
      "midi": 68,
      "hit": false,
      "t": 185327.59245000017,
      "d": 324.9996749999991,
      "v": 100
    },
    {
      "midi": 59,
      "hit": false,
      "t": 185333.14800000013,
      "d": 383.3329500000109,
      "v": 88
    },
    {
      "midi": 63,
      "hit": false,
      "t": 185972.03625000018,
      "d": 313.88857499998994,
      "v": 100
    },
    {
      "midi": 68,
      "hit": false,
      "t": 185972.03625000018,
      "d": 358.33297499999753,
      "v": 100
    },
    {
      "midi": 59,
      "hit": false,
      "t": 185985.92512500018,
      "d": 336.1107749999792,
      "v": 100
    },
    {
      "midi": 59,
      "hit": false,
      "t": 185999.81400000013,
      "d": 311.1107999999949,
      "v": 83
    },
    {
      "midi": 57,
      "hit": false,
      "t": 186627.59115000017,
      "d": 883.3324500000163,
      "v": 100
    },
    {
      "midi": 64,
      "hit": false,
      "t": 186641.48002500017,
      "d": 880.5546750000212,
      "v": 100
    },
    {
      "midi": 69,
      "hit": false,
      "t": 186641.48002500017,
      "d": 880.5546750000212,
      "v": 100
    },
    {
      "midi": 61,
      "hit": false,
      "t": 186641.48002500017,
      "d": 905.5546500000346,
      "v": 100
    },
    {
      "midi": 57,
      "hit": false,
      "t": 187666.4790000002,
      "d": 499.99950000000536,
      "v": 100
    },
    {
      "midi": 61,
      "hit": false,
      "t": 187666.4790000002,
      "d": 499.99950000000536,
      "v": 100
    },
    {
      "midi": 64,
      "hit": false,
      "t": 187666.4790000002,
      "d": 499.99950000000536,
      "v": 100
    },
    {
      "midi": 69,
      "hit": false,
      "t": 187666.4790000002,
      "d": 499.99950000000536,
      "v": 100
    },
    {
      "midi": 78,
      "hit": false,
      "t": 187938.70095,
      "d": 249.99974999998813,
      "v": 110
    },
    {
      "midi": 78,
      "hit": false,
      "t": 188349.81165,
      "d": 477.777299999987,
      "v": 110
    },
    {
      "midi": 78,
      "hit": false,
      "t": 188960.92214999997,
      "d": 708.3326249999809,
      "v": 110
    },
    {
      "midi": 64,
      "hit": false,
      "t": 189305.3662500002,
      "d": 883.3324500000163,
      "v": 100
    },
    {
      "midi": 59,
      "hit": false,
      "t": 189319.2551250002,
      "d": 858.3324750000029,
      "v": 100
    },
    {
      "midi": 68,
      "hit": false,
      "t": 189319.2551250002,
      "d": 858.3324750000029,
      "v": 100
    },
    {
      "midi": 76,
      "hit": false,
      "t": 189633.14369999996,
      "d": 899.9990999999864,
      "v": 110
    },
    {
      "midi": 59,
      "hit": false,
      "t": 190333.14300000021,
      "d": 499.99950000000536,
      "v": 100
    },
    {
      "midi": 64,
      "hit": false,
      "t": 190333.14300000021,
      "d": 499.99950000000536,
      "v": 100
    },
    {
      "midi": 68,
      "hit": false,
      "t": 190333.14300000021,
      "d": 499.99950000000536,
      "v": 100
    },
    {
      "midi": 76,
      "hit": false,
      "t": 190658.14267499995,
      "d": 241.66642500000307,
      "v": 110
    },
    {
      "midi": 76,
      "hit": false,
      "t": 191069.25337499994,
      "d": 411.1106999999902,
      "v": 110
    },
    {
      "midi": 76,
      "hit": false,
      "t": 191644.25279999993,
      "d": 669.4437749999925,
      "v": 110
    },
    {
      "midi": 66,
      "hit": false,
      "t": 191997.030225,
      "d": 513.8883750000095,
      "v": 127
    },
    {
      "midi": 62,
      "hit": false,
      "t": 191999.80800000022,
      "d": 430.5551249999844,
      "v": 100
    },
    {
      "midi": 66,
      "hit": false,
      "t": 191999.80800000022,
      "d": 505.5550499999954,
      "v": 100
    },
    {
      "midi": 69,
      "hit": false,
      "t": 191999.80800000022,
      "d": 508.3328249999904,
      "v": 100
    },
    {
      "midi": 50,
      "hit": false,
      "t": 191999.80800000022,
      "d": 2249.9977500000095,
      "v": 100
    },
    {
      "midi": 57,
      "hit": false,
      "t": 192330.3632250002,
      "d": 466.66620000000694,
      "v": 100
    },
    {
      "midi": 74,
      "hit": false,
      "t": 192333.14099999992,
      "d": 2422.2197999999917,
      "v": 110
    },
    {
      "midi": 62,
      "hit": false,
      "t": 192663.69622500023,
      "d": 838.8880500000087,
      "v": 100
    },
    {
      "midi": 66,
      "hit": false,
      "t": 192672.02955,
      "d": 474.999524999992,
      "v": 127
    },
    {
      "midi": 66,
      "hit": false,
      "t": 192997.0292250002,
      "d": 797.2214250000252,
      "v": 100
    },
    {
      "midi": 69,
      "hit": false,
      "t": 192997.0292250002,
      "d": 797.2214250000252,
      "v": 100
    },
    {
      "midi": 57,
      "hit": false,
      "t": 193330.36222500022,
      "d": 452.77732500000275,
      "v": 100
    },
    {
      "midi": 66,
      "hit": false,
      "t": 193344.2511,
      "d": 391.66627499999595,
      "v": 127
    },
    {
      "midi": 64,
      "hit": false,
      "t": 193655.3619,
      "d": 333.33300000001327,
      "v": 127
    },
    {
      "midi": 62,
      "hit": false,
      "t": 193663.69522500024,
      "d": 430.5551249999844,
      "v": 100
    },
    {
      "midi": 62,
      "hit": false,
      "t": 193977.5838,
      "d": 361.11075000002165,
      "v": 127
    },
    {
      "midi": 66,
      "hit": false,
      "t": 193997.02822500022,
      "d": 349.9996500000125,
      "v": 100
    },
    {
      "midi": 69,
      "hit": false,
      "t": 193997.02822500022,
      "d": 361.11075000002165,
      "v": 100
    },
    {
      "midi": 57,
      "hit": false,
      "t": 193999.80600000022,
      "d": 224.99977500000386,
      "v": 100
    },
    {
      "midi": 61,
      "hit": false,
      "t": 194330.361225,
      "d": 708.33262500001,
      "v": 127
    },
    {
      "midi": 64,
      "hit": false,
      "t": 194663.69422500025,
      "d": 788.888100000011,
      "v": 100
    },
    {
      "midi": 69,
      "hit": false,
      "t": 194663.69422500025,
      "d": 794.4436500000011,
      "v": 100
    },
    {
      "midi": 61,
      "hit": false,
      "t": 194663.69422500025,
      "d": 797.2214249999961,
      "v": 100
    },
    {
      "midi": 45,
      "hit": false,
      "t": 194663.69422500025,
      "d": 2077.7756999999983,
      "v": 100
    },
    {
      "midi": 52,
      "hit": false,
      "t": 194999.80500000025,
      "d": 1363.8875249999983,
      "v": 100
    },
    {
      "midi": 69,
      "hit": false,
      "t": 195010.9161,
      "d": 1419.443025000015,
      "v": 127
    },
    {
      "midi": 57,
      "hit": false,
      "t": 195330.36022500024,
      "d": 574.9994249999872,
      "v": 100
    },
    {
      "midi": 61,
      "hit": false,
      "t": 195663.69322500023,
      "d": 533.3328000000038,
      "v": 100
    },
    {
      "midi": 64,
      "hit": false,
      "t": 195663.69322500023,
      "d": 561.1105500000122,
      "v": 100
    },
    {
      "midi": 69,
      "hit": false,
      "t": 195663.69322500023,
      "d": 586.1105250000255,
      "v": 100
    },
    {
      "midi": 57,
      "hit": false,
      "t": 195997.02622500024,
      "d": 1038.8878499999992,
      "v": 100
    },
    {
      "midi": 61,
      "hit": false,
      "t": 196330.35922500025,
      "d": 466.66619999997783,
      "v": 100
    },
    {
      "midi": 66,
      "hit": false,
      "t": 196347.02587500002,
      "d": 316.66635000001406,
      "v": 127
    },
    {
      "midi": 64,
      "hit": false,
      "t": 196638.69225000002,
      "d": 719.4437250000192,
      "v": 127
    },
    {
      "midi": 52,
      "hit": false,
      "t": 196663.69222500024,
      "d": 197.22202499999548,
      "v": 100
    },
    {
      "midi": 64,
      "hit": false,
      "t": 196663.69222500024,
      "d": 324.9996749999991,
      "v": 100
    },
    {
      "midi": 69,
      "hit": false,
      "t": 196663.69222500024,
      "d": 347.22187499998836,
      "v": 100
    },
    {
      "midi": 68,
      "hit": false,
      "t": 197330.35822500024,
      "d": 741.6659250000375,
      "v": 100
    },
    {
      "midi": 71,
      "hit": false,
      "t": 197330.35822500024,
      "d": 758.3325750000367,
      "v": 100
    },
    {
      "midi": 52,
      "hit": false,
      "t": 197330.35822500024,
      "d": 2333.3310000000347,
      "v": 100
    },
    {
      "midi": 68,
      "hit": false,
      "t": 197333.13600000003,
      "d": 499.99950000000536,
      "v": 127
    },
    {
      "midi": 59,
      "hit": false,
      "t": 197663.69122500025,
      "d": 1108.3322250000492,
      "v": 100
    },
    {
      "midi": 68,
      "hit": false,
      "t": 197985.91312500002,
      "d": 472.221749999997,
      "v": 127
    },
    {
      "midi": 64,
      "hit": false,
      "t": 197997.02422500026,
      "d": 8.333325000014156,
      "v": 100
    },
    {
      "midi": 71,
      "hit": false,
      "t": 198330.35722500028,
      "d": 799.9992000000202,
      "v": 100
    },
    {
      "midi": 68,
      "hit": false,
      "t": 198330.35722500028,
      "d": 855.5547000000079,
      "v": 100
    },
    {
      "midi": 68,
      "hit": false,
      "t": 198638.69025,
      "d": 361.11074999999255,
      "v": 127
    },
    {
      "midi": 64,
      "hit": false,
      "t": 198663.6902250003,
      "d": 449.99955000000773,
      "v": 100
    },
    {
      "midi": 66,
      "hit": false,
      "t": 198966.4677,
      "d": 377.77739999999176,
      "v": 127
    },
    {
      "midi": 59,
      "hit": false,
      "t": 198997.0232250003,
      "d": 480.555074999982,
      "v": 100
    },
    {
      "midi": 64,
      "hit": false,
      "t": 199283.13405,
      "d": 344.44410000002244,
      "v": 127
    },
    {
      "midi": 64,
      "hit": false,
      "t": 199330.3562250003,
      "d": 216.6664499999897,
      "v": 100
    },
    {
      "midi": 71,
      "hit": false,
      "t": 199330.3562250003,
      "d": 352.7774249999784,
      "v": 100
    },
    {
      "midi": 68,
      "hit": false,
      "t": 199330.3562250003,
      "d": 380.5551749999868,
      "v": 100
    },
    {
      "midi": 62,
      "hit": false,
      "t": 199616.46705,
      "d": 786.110325000016,
      "v": 127
    },
    {
      "midi": 66,
      "hit": false,
      "t": 199999.80000000028,
      "d": 594.4438499999815,
      "v": 100
    },
    {
      "midi": 47,
      "hit": false,
      "t": 199999.80000000028,
      "d": 2133.331199999928,
      "v": 100
    },
    {
      "midi": 71,
      "hit": false,
      "t": 200002.57777500027,
      "d": 547.2216749999789,
      "v": 100
    },
    {
      "midi": 63,
      "hit": false,
      "t": 200319.24412500003,
      "d": 2038.8868500000099,
      "v": 127
    },
    {
      "midi": 54,
      "hit": false,
      "t": 200333.13300000026,
      "d": 1211.1098999999522,
      "v": 100
    },
    {
      "midi": 59,
      "hit": false,
      "t": 200666.46600000025,
      "d": 530.5550249999797,
      "v": 100
    },
    {
      "midi": 66,
      "hit": false,
      "t": 200997.02122500024,
      "d": 708.3326249999809,
      "v": 100
    },
    {
      "midi": 63,
      "hit": false,
      "t": 200999.79900000023,
      "d": 563.8883249999781,
      "v": 100
    },
    {
      "midi": 71,
      "hit": false,
      "t": 200999.79900000023,
      "d": 1294.4431499999773,
      "v": 100
    },
    {
      "midi": 59,
      "hit": false,
      "t": 201333.13200000022,
      "d": 1266.665399999969,
      "v": 100
    },
    {
      "midi": 63,
      "hit": false,
      "t": 201663.6872250002,
      "d": 719.4437249999901,
      "v": 100
    },
    {
      "midi": 54,
      "hit": false,
      "t": 201997.02022500022,
      "d": 336.1107749999792,
      "v": 100
    },
    {
      "midi": 66,
      "hit": false,
      "t": 201997.02022500022,
      "d": 355.5551999999734,
      "v": 100
    },
    {
      "midi": 69,
      "hit": false,
      "t": 202655.35290000003,
      "d": 533.3328000000038,
      "v": 127
    },
    {
      "midi": 62,
      "hit": false,
      "t": 202663.6862250002,
      "d": 613.8882750000048,
      "v": 100
    },
    {
      "midi": 69,
      "hit": false,
      "t": 202663.6862250002,
      "d": 697.2215250000008,
      "v": 100
    },
    {
      "midi": 66,
      "hit": false,
      "t": 202663.6862250002,
      "d": 738.8881500000134,
      "v": 100
    },
    {
      "midi": 50,
      "hit": false,
      "t": 202663.6862250002,
      "d": 2266.6644000000088,
      "v": 100
    },
    {
      "midi": 57,
      "hit": false,
      "t": 202997.0192250002,
      "d": 1174.9988249999878,
      "v": 100
    },
    {
      "midi": 62,
      "hit": false,
      "t": 203330.35222500018,
      "d": 613.8882750000048,
      "v": 100
    },
    {
      "midi": 69,
      "hit": false,
      "t": 203347.01887500004,
      "d": 499.99950000000536,
      "v": 127
    },
    {
      "midi": 69,
      "hit": false,
      "t": 203663.6852250002,
      "d": 849.9991499999887,
      "v": 100
    },
    {
      "midi": 66,
      "hit": false,
      "t": 203663.6852250002,
      "d": 863.8880249999929,
      "v": 100
    },
    {
      "midi": 62,
      "hit": false,
      "t": 203997.01822500018,
      "d": 452.77732500000275,
      "v": 100
    },
    {
      "midi": 69,
      "hit": false,
      "t": 204038.68485000005,
      "d": 308.3330249999999,
      "v": 127
    },
    {
      "midi": 57,
      "hit": false,
      "t": 204330.3512250002,
      "d": 511.1105999999854,
      "v": 100
    },
    {
      "midi": 68,
      "hit": false,
      "t": 204333.12900000004,
      "d": 377.77740000002086,
      "v": 127
    },
    {
      "midi": 62,
      "hit": false,
      "t": 204663.68422500018,
      "d": 202.77757500001462,
      "v": 100
    },
    {
      "midi": 69,
      "hit": false,
      "t": 204663.68422500018,
      "d": 283.33305000001565,
      "v": 100
    },
    {
      "midi": 66,
      "hit": false,
      "t": 204663.68422500018,
      "d": 308.333025000029,
      "v": 100
    },
    {
      "midi": 66,
      "hit": false,
      "t": 204666.46200000006,
      "d": 347.22187499998836,
      "v": 127
    },
    {
      "midi": 64,
      "hit": false,
      "t": 204994.23945000005,
      "d": 755.5547999999835,
      "v": 127
    },
    {
      "midi": 64,
      "hit": false,
      "t": 205330.3502250002,
      "d": 736.1103750000184,
      "v": 100
    },
    {
      "midi": 69,
      "hit": false,
      "t": 205330.3502250002,
      "d": 747.2214750000276,
      "v": 100
    },
    {
      "midi": 61,
      "hit": false,
      "t": 205330.3502250002,
      "d": 761.1103500000318,
      "v": 100
    },
    {
      "midi": 45,
      "hit": false,
      "t": 205330.3502250002,
      "d": 2102.7756750000117,
      "v": 100
    },
    {
      "midi": 69,
      "hit": false,
      "t": 205663.68322500004,
      "d": 727.7770500000042,
      "v": 127
    },
    {
      "midi": 52,
      "hit": false,
      "t": 205663.68322500022,
      "d": 1811.109300000011,
      "v": 100
    },
    {
      "midi": 57,
      "hit": false,
      "t": 205997.01622500023,
      "d": 519.4439249999996,
      "v": 100
    },
    {
      "midi": 69,
      "hit": false,
      "t": 206330.34922500025,
      "d": 574.9994249999872,
      "v": 100
    },
    {
      "midi": 73,
      "hit": false,
      "t": 206333.12700000004,
      "d": 666.6659999999974,
      "v": 127
    },
    {
      "midi": 61,
      "hit": false,
      "t": 206333.12700000024,
      "d": 511.1105999999854,
      "v": 100
    },
    {
      "midi": 64,
      "hit": false,
      "t": 206333.12700000024,
      "d": 613.8882750000048,
      "v": 100
    },
    {
      "midi": 57,
      "hit": false,
      "t": 206663.68222500023,
      "d": 455.55509999999776,
      "v": 100
    },
    {
      "midi": 76,
      "hit": false,
      "t": 206999.79300000003,
      "d": 597.2216250000056,
      "v": 127
    },
    {
      "midi": 61,
      "hit": false,
      "t": 206999.79300000024,
      "d": 524.9994749999896,
      "v": 100
    },
    {
      "midi": 64,
      "hit": false,
      "t": 207330.34822500023,
      "d": 308.3330249999999,
      "v": 100
    },
    {
      "midi": 69,
      "hit": false,
      "t": 207330.34822500023,
      "d": 327.77744999999413,
      "v": 100
    },
    {
      "midi": 57,
      "hit": false,
      "t": 207330.34822500023,
      "d": 388.88850000000093,
      "v": 100
    },
    {
      "midi": 80,
      "hit": false,
      "t": 207610.90350000004,
      "d": 827.7769499999995,
      "v": 127
    },
    {
      "midi": 64,
      "hit": false,
      "t": 207997.01422500022,
      "d": 627.777150000009,
      "v": 100
    },
    {
      "midi": 68,
      "hit": false,
      "t": 207997.01422500022,
      "d": 749.9992500000226,
      "v": 100
    },
    {
      "midi": 52,
      "hit": false,
      "t": 207997.01422500022,
      "d": 2174.9978249999986,
      "v": 100
    },
    {
      "midi": 71,
      "hit": false,
      "t": 207999.79200000022,
      "d": 711.1104000000341,
      "v": 100
    },
    {
      "midi": 59,
      "hit": false,
      "t": 208333.12500000023,
      "d": 644.4438000000082,
      "v": 100
    },
    {
      "midi": 80,
      "hit": false,
      "t": 208644.23580000005,
      "d": 474.999524999992,
      "v": 127
    },
    {
      "midi": 64,
      "hit": false,
      "t": 208666.45800000025,
      "d": 733.3325999999652,
      "v": 100
    },
    {
      "midi": 71,
      "hit": false,
      "t": 208999.79100000023,
      "d": 705.5548499999859,
      "v": 100
    },
    {
      "midi": 68,
      "hit": false,
      "t": 208999.79100000023,
      "d": 730.5548249999993,
      "v": 100
    },
    {
      "midi": 80,
      "hit": false,
      "t": 209330.34622500004,
      "d": 399.999599999981,
      "v": 127
    },
    {
      "midi": 59,
      "hit": false,
      "t": 209330.34622500022,
      "d": 466.66620000000694,
      "v": 100
    },
    {
      "midi": 78,
      "hit": false,
      "t": 209641.45702500004,
      "d": 355.5552000000025,
      "v": 127
    },
    {
      "midi": 64,
      "hit": false,
      "t": 209663.6792250002,
      "d": 430.5551250000135,
      "v": 100
    },
    {
      "midi": 76,
      "hit": false,
      "t": 209988.67890000003,
      "d": 358.33297500002664,
      "v": 127
    },
    {
      "midi": 59,
      "hit": false,
      "t": 209997.01222500022,
      "d": 188.88870000001043,
      "v": 100
    },
    {
      "midi": 71,
      "hit": false,
      "t": 209997.01222500022,
      "d": 280.55527500002063,
      "v": 100
    },
    {
      "midi": 68,
      "hit": false,
      "t": 209997.01222500022,
      "d": 294.4441500000248,
      "v": 100
    },
    {
      "midi": 83,
      "hit": false,
      "t": 210333.12300000005,
      "d": 3027.7747500000114,
      "v": 127
    },
    {
      "midi": 47,
      "hit": false,
      "t": 210583.12275000024,
      "d": 4747.217475000012,
      "v": 100
    },
    {
      "midi": 54,
      "hit": false,
      "t": 210624.78937500025,
      "d": 4705.55085,
      "v": 100
    },
    {
      "midi": 59,
      "hit": false,
      "t": 210677.56710000025,
      "d": 4652.773125000007,
      "v": 100
    },
    {
      "midi": 63,
      "hit": false,
      "t": 210677.56710000025,
      "d": 4652.773125000007,
      "v": 100
    },
    {
      "midi": 66,
      "hit": false,
      "t": 210691.45597500025,
      "d": 4638.884250000003,
      "v": 100
    },
    {
      "midi": 71,
      "hit": false,
      "t": 210691.45597500025,
      "d": 4638.884250000003,
      "v": 100
    },
    {
      "midi": 54,
      "hit": false,
      "t": 216013.67287500025,
      "d": 708.33262500001,
      "v": 100
    },
    {
      "midi": 61,
      "hit": false,
      "t": 216013.67287500025,
      "d": 788.888100000011,
      "v": 100
    },
    {
      "midi": 66,
      "hit": false,
      "t": 216013.67287500025,
      "d": 797.2214250000252,
      "v": 100
    },
    {
      "midi": 70,
      "hit": false,
      "t": 216013.67287500025,
      "d": 797.2214250000252,
      "v": 100
    },
    {
      "midi": 61,
      "hit": false,
      "t": 216966.4497000003,
      "d": 233.33309999998892,
      "v": 100
    },
    {
      "midi": 66,
      "hit": false,
      "t": 216983.1163500003,
      "d": 202.77757499998552,
      "v": 100
    },
    {
      "midi": 54,
      "hit": false,
      "t": 216983.1163500003,
      "d": 216.6664499999897,
      "v": 100
    },
    {
      "midi": 70,
      "hit": false,
      "t": 216983.1163500003,
      "d": 216.6664499999897,
      "v": 100
    },
    {
      "midi": 54,
      "hit": false,
      "t": 217316.44935000027,
      "d": 944.443499999994,
      "v": 100
    },
    {
      "midi": 66,
      "hit": false,
      "t": 217330.33822500028,
      "d": 955.5546000000031,
      "v": 100
    },
    {
      "midi": 61,
      "hit": false,
      "t": 217330.33822500028,
      "d": 994.4434499999916,
      "v": 100
    },
    {
      "midi": 70,
      "hit": false,
      "t": 217330.33822500028,
      "d": 994.4434499999916,
      "v": 100
    },
    {
      "midi": 58,
      "hit": false,
      "t": 217333.116,
      "d": 327.77744999999413,
      "v": 110
    },
    {
      "midi": 59,
      "hit": false,
      "t": 217666.449,
      "d": 499.99950000000536,
      "v": 110
    },
    {
      "midi": 61,
      "hit": false,
      "t": 218333.115,
      "d": 983.3323500000115,
      "v": 110
    },
    {
      "midi": 61,
      "hit": false,
      "t": 218685.89242500026,
      "d": 813.8880750000244,
      "v": 100
    },
    {
      "midi": 66,
      "hit": false,
      "t": 218699.78130000026,
      "d": 755.5548000000126,
      "v": 100
    },
    {
      "midi": 70,
      "hit": false,
      "t": 218699.78130000026,
      "d": 755.5548000000126,
      "v": 100
    },
    {
      "midi": 54,
      "hit": false,
      "t": 218699.78130000026,
      "d": 788.888100000011,
      "v": 100
    },
    {
      "midi": 61,
      "hit": false,
      "t": 219641.4470250003,
      "d": 244.4441999999981,
      "v": 100
    },
    {
      "midi": 66,
      "hit": false,
      "t": 219641.4470250003,
      "d": 244.4441999999981,
      "v": 100
    },
    {
      "midi": 70,
      "hit": false,
      "t": 219655.3359000003,
      "d": 230.5553249999939,
      "v": 100
    },
    {
      "midi": 54,
      "hit": false,
      "t": 219655.3359000003,
      "d": 291.6663750000007,
      "v": 100
    },
    {
      "midi": 61,
      "hit": false,
      "t": 219666.44700000001,
      "d": 327.77744999999413,
      "v": 110
    },
    {
      "midi": 63,
      "hit": false,
      "t": 219999.78,
      "d": 327.77744999999413,
      "v": 110
    },
    {
      "midi": 54,
      "hit": false,
      "t": 220016.4466500003,
      "d": 1011.1101000000199,
      "v": 100
    },
    {
      "midi": 70,
      "hit": false,
      "t": 220016.4466500003,
      "d": 1011.1101000000199,
      "v": 100
    },
    {
      "midi": 61,
      "hit": false,
      "t": 220030.3355250003,
      "d": 941.6657249999989,
      "v": 100
    },
    {
      "midi": 66,
      "hit": false,
      "t": 220030.3355250003,
      "d": 983.3323500000115,
      "v": 100
    },
    {
      "midi": 66,
      "hit": false,
      "t": 220333.11299999998,
      "d": 549.999450000003,
      "v": 110
    },
    {
      "midi": 68,
      "hit": false,
      "t": 220999.77899999998,
      "d": 1111.109999999986,
      "v": 110
    },
    {
      "midi": 64,
      "hit": false,
      "t": 221330.33422500032,
      "d": 797.2214250000252,
      "v": 100
    },
    {
      "midi": 52,
      "hit": false,
      "t": 221347.00087500032,
      "d": 772.2214500000118,
      "v": 100
    },
    {
      "midi": 68,
      "hit": false,
      "t": 221347.00087500032,
      "d": 780.554775000026,
      "v": 100
    },
    {
      "midi": 59,
      "hit": false,
      "t": 221358.11197500033,
      "d": 838.8880500000087,
      "v": 100
    },
    {
      "midi": 64,
      "hit": false,
      "t": 222316.44435000033,
      "d": 227.777550000028,
      "v": 100
    },
    {
      "midi": 68,
      "hit": false,
      "t": 222327.55545000033,
      "d": 236.11087500001304,
      "v": 100
    },
    {
      "midi": 52,
      "hit": false,
      "t": 222327.55545000033,
      "d": 266.66640000001644,
      "v": 100
    },
    {
      "midi": 59,
      "hit": false,
      "t": 222338.66655000034,
      "d": 261.1108499999973,
      "v": 100
    },
    {
      "midi": 52,
      "hit": false,
      "t": 222677.55510000035,
      "d": 997.2212250000448,
      "v": 100
    },
    {
      "midi": 59,
      "hit": false,
      "t": 222694.22175000035,
      "d": 947.2212750000472,
      "v": 100
    },
    {
      "midi": 64,
      "hit": false,
      "t": 222702.55507500036,
      "d": 852.7769250000129,
      "v": 100
    },
    {
      "midi": 68,
      "hit": false,
      "t": 222702.55507500036,
      "d": 897.2213250000204,
      "v": 100
    },
    {
      "midi": 61,
      "hit": false,
      "t": 224033.1093000004,
      "d": 713.888175,
      "v": 100
    },
    {
      "midi": 64,
      "hit": false,
      "t": 224033.1093000004,
      "d": 761.1103500000027,
      "v": 100
    },
    {
      "midi": 61,
      "hit": false,
      "t": 225021.9972000004,
      "d": 333.33299999998417,
      "v": 100
    },
    {
      "midi": 64,
      "hit": false,
      "t": 225021.9972000004,
      "d": 333.33299999998417,
      "v": 100
    },
    {
      "midi": 59,
      "hit": false,
      "t": 225333.1080000004,
      "d": 833.3324999999895,
      "v": 100
    },
    {
      "midi": 63,
      "hit": false,
      "t": 225333.1080000004,
      "d": 833.3324999999895,
      "v": 100
    },
    {
      "midi": 61,
      "hit": false,
      "t": 226660.88445000036,
      "d": 794.4436500000011,
      "v": 100
    },
    {
      "midi": 64,
      "hit": false,
      "t": 226688.66220000037,
      "d": 780.5547749999969,
      "v": 100
    },
    {
      "midi": 57,
      "hit": false,
      "t": 226688.66220000037,
      "d": 811.1103000000003,
      "v": 100
    },
    {
      "midi": 64,
      "hit": false,
      "t": 227616.43904999996,
      "d": 755.5547999999835,
      "v": 110
    },
    {
      "midi": 61,
      "hit": false,
      "t": 227671.99455000038,
      "d": 233.33310000001802,
      "v": 100
    },
    {
      "midi": 64,
      "hit": false,
      "t": 227671.99455000038,
      "d": 288.8886000000348,
      "v": 100
    },
    {
      "midi": 57,
      "hit": false,
      "t": 227685.8834250004,
      "d": 247.2219750000222,
      "v": 100
    },
    {
      "midi": 57,
      "hit": false,
      "t": 228038.66085000042,
      "d": 919.4435250000388,
      "v": 100
    },
    {
      "midi": 61,
      "hit": false,
      "t": 228049.77195000043,
      "d": 822.2214000000095,
      "v": 100
    },
    {
      "midi": 64,
      "hit": false,
      "t": 228049.77195000043,
      "d": 833.3325000000186,
      "v": 100
    },
    {
      "midi": 66,
      "hit": false,
      "t": 228321.99389999994,
      "d": 533.3328000000038,
      "v": 110
    },
    {
      "midi": 68,
      "hit": false,
      "t": 228983.10434999995,
      "d": 691.6659750000108,
      "v": 110
    },
    {
      "midi": 59,
      "hit": false,
      "t": 229333.10400000046,
      "d": 666.6659999999974,
      "v": 100
    },
    {
      "midi": 64,
      "hit": false,
      "t": 229346.99287500046,
      "d": 694.4437500000058,
      "v": 100
    },
    {
      "midi": 68,
      "hit": false,
      "t": 229346.99287500046,
      "d": 711.110400000005,
      "v": 100
    },
    {
      "midi": 68,
      "hit": false,
      "t": 229666.43699999998,
      "d": 666.6659999999974,
      "v": 110
    },
    {
      "midi": 66,
      "hit": false,
      "t": 230333.10299999997,
      "d": 533.3328000000038,
      "v": 110
    },
    {
      "midi": 64,
      "hit": false,
      "t": 230344.21410000048,
      "d": 205.55535000000964,
      "v": 100
    },
    {
      "midi": 59,
      "hit": false,
      "t": 230344.21410000048,
      "d": 233.33310000001802,
      "v": 100
    },
    {
      "midi": 68,
      "hit": false,
      "t": 230352.5474250005,
      "d": 236.11087500001304,
      "v": 100
    },
    {
      "midi": 64,
      "hit": false,
      "t": 230666.436,
      "d": 999.9989999999816,
      "v": 110
    },
    {
      "midi": 64,
      "hit": false,
      "t": 230696.9915250005,
      "d": 1119.4433250000002,
      "v": 100
    },
    {
      "midi": 59,
      "hit": false,
      "t": 230696.9915250005,
      "d": 1180.554375000007,
      "v": 100
    },
    {
      "midi": 68,
      "hit": false,
      "t": 230708.10262500052,
      "d": 1108.332224999991,
      "v": 100
    },
    {
      "midi": 63,
      "hit": false,
      "t": 231999.76799999998,
      "d": 666.6659999999974,
      "v": 110
    },
    {
      "midi": 63,
      "hit": false,
      "t": 232005.32355000052,
      "d": 852.7769250000129,
      "v": 100
    },
    {
      "midi": 66,
      "hit": false,
      "t": 232005.32355000052,
      "d": 852.7769250000129,
      "v": 100
    },
    {
      "midi": 59,
      "hit": false,
      "t": 232005.32355000052,
      "d": 883.3324500000163,
      "v": 100
    },
    {
      "midi": 59,
      "hit": false,
      "t": 232666.43399999998,
      "d": 333.33300000001327,
      "v": 110
    },
    {
      "midi": 66,
      "hit": false,
      "t": 232988.65590000054,
      "d": 244.444199999969,
      "v": 100
    },
    {
      "midi": 59,
      "hit": false,
      "t": 232999.76699999996,
      "d": 1666.6650000000081,
      "v": 110
    },
    {
      "midi": 63,
      "hit": false,
      "t": 233005.32255000054,
      "d": 222.22199999997974,
      "v": 100
    },
    {
      "midi": 59,
      "hit": false,
      "t": 233010.87810000053,
      "d": 236.11087499998393,
      "v": 100
    },
    {
      "midi": 66,
      "hit": false,
      "t": 233363.6555250005,
      "d": 1044.4433999999892,
      "v": 100
    },
    {
      "midi": 63,
      "hit": false,
      "t": 233363.6555250005,
      "d": 1141.6655249999894,
      "v": 100
    },
    {
      "midi": 59,
      "hit": false,
      "t": 233363.6555250005,
      "d": 1158.3321749999886,
      "v": 100
    },
    {
      "midi": 59,
      "hit": false,
      "t": 234669.2097750005,
      "d": 333.33300000001327,
      "v": 100
    },
    {
      "midi": 61,
      "hit": false,
      "t": 235002.5427750005,
      "d": 333.33299999998417,
      "v": 100
    },
    {
      "midi": 63,
      "hit": false,
      "t": 235333.0980000005,
      "d": 333.33299999998417,
      "v": 100
    },
    {
      "midi": 66,
      "hit": false,
      "t": 235666.43100000048,
      "d": 333.33300000001327,
      "v": 100
    },
    {
      "midi": 64,
      "hit": false,
      "t": 235999.7640000005,
      "d": 333.33299999998417,
      "v": 100
    },
    {
      "midi": 63,
      "hit": false,
      "t": 236330.31922500048,
      "d": 333.33299999998417,
      "v": 100
    },
    {
      "midi": 61,
      "hit": false,
      "t": 236663.65222500046,
      "d": 333.33300000001327,
      "v": 100
    },
    {
      "midi": 59,
      "hit": false,
      "t": 236996.98522500048,
      "d": 333.33300000001327,
      "v": 100
    },
    {
      "midi": 54,
      "hit": false,
      "t": 237294.20715000047,
      "d": 866.665800000017,
      "v": 100
    },
    {
      "midi": 61,
      "hit": false,
      "t": 237308.09602500047,
      "d": 808.3325250000053,
      "v": 100
    },
    {
      "midi": 66,
      "hit": false,
      "t": 237321.98490000048,
      "d": 813.8880749999953,
      "v": 100
    },
    {
      "midi": 70,
      "hit": false,
      "t": 237321.98490000048,
      "d": 824.9991750000045,
      "v": 100
    },
    {
      "midi": 54,
      "hit": false,
      "t": 238274.76172500048,
      "d": 244.4441999999981,
      "v": 100
    },
    {
      "midi": 61,
      "hit": false,
      "t": 238291.42837500048,
      "d": 199.9997999999905,
      "v": 100
    },
    {
      "midi": 66,
      "hit": false,
      "t": 238291.42837500048,
      "d": 227.77754999999888,
      "v": 100
    },
    {
      "midi": 70,
      "hit": false,
      "t": 238305.3172500005,
      "d": 186.1109249999863,
      "v": 100
    },
    {
      "midi": 54,
      "hit": false,
      "t": 238613.6502750005,
      "d": 869.443574999983,
      "v": 100
    },
    {
      "midi": 61,
      "hit": false,
      "t": 238619.20582500048,
      "d": 897.2213249999913,
      "v": 100
    },
    {
      "midi": 66,
      "hit": false,
      "t": 238619.20582500048,
      "d": 911.1101999999955,
      "v": 100
    },
    {
      "midi": 70,
      "hit": false,
      "t": 238619.20582500048,
      "d": 941.6657249999989,
      "v": 100
    },
    {
      "midi": 58,
      "hit": false,
      "t": 238666.42799999999,
      "d": 327.77744999999413,
      "v": 110
    },
    {
      "midi": 59,
      "hit": false,
      "t": 238999.76099999997,
      "d": 499.99950000000536,
      "v": 110
    },
    {
      "midi": 61,
      "hit": false,
      "t": 239666.42699999997,
      "d": 983.3323500000115,
      "v": 110
    },
    {
      "midi": 54,
      "hit": false,
      "t": 239977.5378000005,
      "d": 766.6658999999927,
      "v": 100
    },
    {
      "midi": 66,
      "hit": false,
      "t": 239977.5378000005,
      "d": 766.6658999999927,
      "v": 100
    },
    {
      "midi": 61,
      "hit": false,
      "t": 239977.5378000005,
      "d": 780.5547749999969,
      "v": 100
    },
    {
      "midi": 70,
      "hit": false,
      "t": 240008.0933250005,
      "d": 749.9992499999935,
      "v": 100
    },
    {
      "midi": 61,
      "hit": false,
      "t": 240960.87015000047,
      "d": 188.88870000001043,
      "v": 100
    },
    {
      "midi": 66,
      "hit": false,
      "t": 240974.75902500047,
      "d": 230.5553249999939,
      "v": 100
    },
    {
      "midi": 54,
      "hit": false,
      "t": 240974.75902500047,
      "d": 266.66639999998733,
      "v": 100
    },
    {
      "midi": 70,
      "hit": false,
      "t": 240988.64790000048,
      "d": 194.44425000000047,
      "v": 100
    },
    {
      "midi": 66,
      "hit": false,
      "t": 241330.31422500045,
      "d": 799.9991999999911,
      "v": 100
    },
    {
      "midi": 61,
      "hit": false,
      "t": 241330.31422500045,
      "d": 841.6658250000037,
      "v": 100
    },
    {
      "midi": 63,
      "hit": false,
      "t": 241333.09199999998,
      "d": 327.77744999999413,
      "v": 110
    },
    {
      "midi": 70,
      "hit": false,
      "t": 241333.09200000044,
      "d": 797.2214249999961,
      "v": 100
    },
    {
      "midi": 54,
      "hit": false,
      "t": 241333.09200000044,
      "d": 883.3324500000163,
      "v": 100
    },
    {
      "midi": 64,
      "hit": false,
      "t": 241666.42499999996,
      "d": 549.999450000003,
      "v": 110
    },
    {
      "midi": 68,
      "hit": false,
      "t": 242333.09099999996,
      "d": 1111.109999999986,
      "v": 110
    },
    {
      "midi": 52,
      "hit": false,
      "t": 242649.75735000047,
      "d": 799.9992000000202,
      "v": 100
    },
    {
      "midi": 64,
      "hit": false,
      "t": 242666.42400000046,
      "d": 736.1103750000184,
      "v": 100
    },
    {
      "midi": 59,
      "hit": false,
      "t": 242677.53510000047,
      "d": 752.7770250000176,
      "v": 100
    },
    {
      "midi": 68,
      "hit": false,
      "t": 242677.53510000047,
      "d": 752.7770250000176,
      "v": 100
    },
    {
      "midi": 64,
      "hit": false,
      "t": 243608.0897250005,
      "d": 230.5553249999939,
      "v": 100
    },
    {
      "midi": 59,
      "hit": false,
      "t": 243616.4230500005,
      "d": 202.77757499998552,
      "v": 100
    },
    {
      "midi": 68,
      "hit": false,
      "t": 243616.4230500005,
      "d": 233.33309999998892,
      "v": 100
    },
    {
      "midi": 52,
      "hit": false,
      "t": 243616.4230500005,
      "d": 261.1108499999973,
      "v": 100
    },
    {
      "midi": 52,
      "hit": false,
      "t": 243977.5338000005,
      "d": 1102.7766749999719,
      "v": 100
    },
    {
      "midi": 59,
      "hit": false,
      "t": 243994.2004500005,
      "d": 1013.8878749999858,
      "v": 100
    },
    {
      "midi": 64,
      "hit": false,
      "t": 243994.2004500005,
      "d": 1052.7767249999742,
      "v": 100
    },
    {
      "midi": 68,
      "hit": false,
      "t": 243994.2004500005,
      "d": 1086.1100249999727,
      "v": 100
    },
    {
      "midi": 64,
      "hit": false,
      "t": 245349.75465000048,
      "d": 833.3324999999895,
      "v": 100
    },
    {
      "midi": 61,
      "hit": false,
      "t": 245366.42130000048,
      "d": 811.1103000000003,
      "v": 100
    },
    {
      "midi": 61,
      "hit": false,
      "t": 246333.08700000047,
      "d": 236.11087500001304,
      "v": 100
    },
    {
      "midi": 64,
      "hit": false,
      "t": 246333.08700000047,
      "d": 236.11087500001304,
      "v": 100
    },
    {
      "midi": 63,
      "hit": false,
      "t": 246666.42000000048,
      "d": 1041.6656249999942,
      "v": 100
    },
    {
      "midi": 59,
      "hit": false,
      "t": 246696.97552500048,
      "d": 1097.2211249999818,
      "v": 100
    },
    {
      "midi": 57,
      "hit": false,
      "t": 247985.86312500047,
      "d": 883.3324500000163,
      "v": 100
    },
    {
      "midi": 61,
      "hit": false,
      "t": 247996.97422500048,
      "d": 841.6658250000037,
      "v": 100
    },
    {
      "midi": 57,
      "hit": false,
      "t": 248977.5288000005,
      "d": 274.9997250000015,
      "v": 100
    },
    {
      "midi": 61,
      "hit": false,
      "t": 248994.1954500005,
      "d": 258.3330750000023,
      "v": 100
    },
    {
      "midi": 64,
      "hit": false,
      "t": 249333.08399999994,
      "d": 327.77744999999413,
      "v": 110
    },
    {
      "midi": 57,
      "hit": false,
      "t": 249341.41732500048,
      "d": 994.4434499999916,
      "v": 100
    },
    {
      "midi": 61,
      "hit": false,
      "t": 249352.5284250005,
      "d": 913.8879749999905,
      "v": 100
    },
    {
      "midi": 66,
      "hit": false,
      "t": 249666.41699999993,
      "d": 649.9993499999982,
      "v": 110
    },
    {
      "midi": 68,
      "hit": false,
      "t": 250321.97189999992,
      "d": 1311.1098000000056,
      "v": 110
    },
    {
      "midi": 68,
      "hit": false,
      "t": 250699.74930000046,
      "d": 677.7771000000066,
      "v": 100
    },
    {
      "midi": 64,
      "hit": false,
      "t": 250710.86040000047,
      "d": 736.1103749999893,
      "v": 100
    },
    {
      "midi": 68,
      "hit": false,
      "t": 251666.41499999998,
      "d": 333.33300000001327,
      "v": 110
    },
    {
      "midi": 68,
      "hit": false,
      "t": 251683.08165000047,
      "d": 238.88865000000806,
      "v": 100
    },
    {
      "midi": 64,
      "hit": false,
      "t": 251683.08165000047,
      "d": 258.3330750000023,
      "v": 100
    },
    {
      "midi": 66,
      "hit": false,
      "t": 251999.74799999993,
      "d": 538.8883499999938,
      "v": 110
    },
    {
      "midi": 68,
      "hit": false,
      "t": 252038.63685000048,
      "d": 986.1101250000065,
      "v": 100
    },
    {
      "midi": 64,
      "hit": false,
      "t": 252038.63685000048,
      "d": 1041.6656249999942,
      "v": 100
    },
    {
      "midi": 64,
      "hit": false,
      "t": 252666.41399999993,
      "d": 627.777150000009,
      "v": 110
    },
    {
      "midi": 66,
      "hit": false,
      "t": 253327.52445000046,
      "d": 766.6658999999927,
      "v": 100
    },
    {
      "midi": 59,
      "hit": false,
      "t": 253327.52445000046,
      "d": 827.7769499999995,
      "v": 100
    },
    {
      "midi": 68,
      "hit": false,
      "t": 253333.07999999993,
      "d": 594.4438500000106,
      "v": 110
    },
    {
      "midi": 63,
      "hit": false,
      "t": 253333.08000000045,
      "d": 833.3325000000186,
      "v": 100
    },
    {
      "midi": 66,
      "hit": false,
      "t": 254333.07899999994,
      "d": 1188.887699999992,
      "v": 110
    },
    {
      "midi": 63,
      "hit": false,
      "t": 254352.52342500046,
      "d": 199.9998000000196,
      "v": 100
    },
    {
      "midi": 66,
      "hit": false,
      "t": 254352.52342500046,
      "d": 219.44422500001383,
      "v": 100
    },
    {
      "midi": 59,
      "hit": false,
      "t": 254363.63452500047,
      "d": 216.6664500000188,
      "v": 100
    },
    {
      "midi": 59,
      "hit": false,
      "t": 254699.74530000048,
      "d": 641.6660250000132,
      "v": 100
    },
    {
      "midi": 63,
      "hit": false,
      "t": 254699.74530000048,
      "d": 641.6660250000132,
      "v": 100
    },
    {
      "midi": 66,
      "hit": false,
      "t": 254710.85640000048,
      "d": 644.4438000000082,
      "v": 100
    },
    {
      "midi": 63,
      "hit": false,
      "t": 256027.52175000048,
      "d": 691.6659750000108,
      "v": 100
    },
    {
      "midi": 66,
      "hit": false,
      "t": 256027.52175000048,
      "d": 691.6659750000108,
      "v": 100
    },
    {
      "midi": 59,
      "hit": false,
      "t": 256027.52175000048,
      "d": 752.7770250000176,
      "v": 100
    },
    {
      "midi": 59,
      "hit": false,
      "t": 256980.2985750005,
      "d": 249.99974999998813,
      "v": 100
    },
    {
      "midi": 63,
      "hit": false,
      "t": 256994.1874500005,
      "d": 202.77757499998552,
      "v": 100
    },
    {
      "midi": 66,
      "hit": false,
      "t": 256994.1874500005,
      "d": 202.77757499998552,
      "v": 100
    },
    {
      "midi": 59,
      "hit": false,
      "t": 257319.18712500046,
      "d": 802.7769749999861,
      "v": 100
    },
    {
      "midi": 66,
      "hit": false,
      "t": 257330.29822500047,
      "d": 733.3325999999943,
      "v": 100
    },
    {
      "midi": 63,
      "hit": false,
      "t": 257330.29822500047,
      "d": 752.7770249999885,
      "v": 100
    },
    {
      "midi": 66,
      "hit": false,
      "t": 258627.51914999992,
      "d": 616.6660499999998,
      "v": 110
    },
    {
      "midi": 66,
      "hit": false,
      "t": 258666.40800000046,
      "d": 666.6659999999974,
      "v": 100
    },
    {
      "midi": 54,
      "hit": false,
      "t": 258666.40800000046,
      "d": 838.8880500000087,
      "v": 100
    },
    {
      "midi": 42,
      "hit": false,
      "t": 258669.18577500046,
      "d": 752.7770250000176,
      "v": 100
    },
    {
      "midi": 61,
      "hit": false,
      "t": 258688.63020000045,
      "d": 724.9992750000092,
      "v": 100
    },
    {
      "midi": 70,
      "hit": false,
      "t": 258688.63020000045,
      "d": 752.7770250000176,
      "v": 100
    },
    {
      "midi": 58,
      "hit": false,
      "t": 258699.74130000046,
      "d": 780.5547749999969,
      "v": 100
    },
    {
      "midi": 64,
      "hit": false,
      "t": 259316.4073499999,
      "d": 1994.4424500000023,
      "v": 110
    },
    {
      "midi": 58,
      "hit": false,
      "t": 259658.07367500046,
      "d": 238.88865000000806,
      "v": 100
    },
    {
      "midi": 61,
      "hit": false,
      "t": 259669.18477500047,
      "d": 197.22202499999548,
      "v": 100
    },
    {
      "midi": 66,
      "hit": false,
      "t": 259680.29587500048,
      "d": 205.55534999998054,
      "v": 100
    },
    {
      "midi": 42,
      "hit": false,
      "t": 259680.29587500048,
      "d": 247.2219749999931,
      "v": 100
    },
    {
      "midi": 70,
      "hit": false,
      "t": 259696.96252500048,
      "d": 169.4442749999871,
      "v": 100
    },
    {
      "midi": 54,
      "hit": false,
      "t": 259696.96252500048,
      "d": 230.5553249999939,
      "v": 100
    },
    {
      "midi": 42,
      "hit": false,
      "t": 260027.51775000046,
      "d": 780.5547749999969,
      "v": 100
    },
    {
      "midi": 58,
      "hit": false,
      "t": 260027.51775000046,
      "d": 822.2214000000095,
      "v": 100
    },
    {
      "midi": 61,
      "hit": false,
      "t": 260041.40662500047,
      "d": 752.7770249999885,
      "v": 100
    },
    {
      "midi": 66,
      "hit": false,
      "t": 260041.40662500047,
      "d": 752.7770249999885,
      "v": 100
    },
    {
      "midi": 54,
      "hit": false,
      "t": 260041.40662500047,
      "d": 808.3325250000053,
      "v": 100
    },
    {
      "midi": 70,
      "hit": false,
      "t": 260041.40662500047,
      "d": 808.3325250000053,
      "v": 100
    },
    {
      "midi": 54,
      "hit": false,
      "t": 261316.40535000048,
      "d": 861.110250000027,
      "v": 100
    },
    {
      "midi": 61,
      "hit": false,
      "t": 261327.5164500005,
      "d": 741.6659250000084,
      "v": 100
    },
    {
      "midi": 70,
      "hit": false,
      "t": 261327.5164500005,
      "d": 780.5547749999969,
      "v": 100
    },
    {
      "midi": 58,
      "hit": false,
      "t": 261327.5164500005,
      "d": 797.2214249999961,
      "v": 100
    },
    {
      "midi": 66,
      "hit": false,
      "t": 261330.29422500049,
      "d": 761.1103500000027,
      "v": 100
    },
    {
      "midi": 58,
      "hit": false,
      "t": 262324.7376750005,
      "d": 244.4442000000272,
      "v": 100
    },
    {
      "midi": 54,
      "hit": false,
      "t": 262324.7376750005,
      "d": 274.9997250000015,
      "v": 100
    },
    {
      "midi": 61,
      "hit": false,
      "t": 262352.5154250005,
      "d": 144.44430000003194,
      "v": 100
    },
    {
      "midi": 70,
      "hit": false,
      "t": 262366.4043000005,
      "d": 149.99985000002198,
      "v": 100
    },
    {
      "midi": 66,
      "hit": false,
      "t": 262366.4043000005,
      "d": 161.11095000000205,
      "v": 100
    },
    {
      "midi": 58,
      "hit": false,
      "t": 262655.2929000005,
      "d": 955.5546000000322,
      "v": 100
    },
    {
      "midi": 61,
      "hit": false,
      "t": 262683.07065000053,
      "d": 886.1102250000113,
      "v": 100
    },
    {
      "midi": 66,
      "hit": false,
      "t": 262683.07065000053,
      "d": 913.8879750000197,
      "v": 100
    },
    {
      "midi": 54,
      "hit": false,
      "t": 262683.07065000053,
      "d": 927.7768500000238,
      "v": 100
    },
    {
      "midi": 70,
      "hit": false,
      "t": 262683.07065000053,
      "d": 972.2212500000023,
      "v": 100
    },
    {
      "midi": 64,
      "hit": false,
      "t": 263999.73600000056,
      "d": 666.6660000000265,
      "v": 100
    },
    {
      "midi": 61,
      "hit": false,
      "t": 263999.73600000056,
      "d": 688.8882000000449,
      "v": 100
    },
    {
      "midi": 61,
      "hit": false,
      "t": 264994.1794500006,
      "d": 277.7775000000256,
      "v": 100
    },
    {
      "midi": 64,
      "hit": false,
      "t": 264994.1794500006,
      "d": 288.8886000000057,
      "v": 100
    },
    {
      "midi": 64,
      "hit": false,
      "t": 265005.2905499999,
      "d": 827.7769499999704,
      "v": 110
    },
    {
      "midi": 61,
      "hit": false,
      "t": 265366.4013000006,
      "d": 1061.1100500000175,
      "v": 100
    },
    {
      "midi": 64,
      "hit": false,
      "t": 265371.9568500006,
      "d": 1038.8878499999992,
      "v": 100
    },
    {
      "midi": 66,
      "hit": false,
      "t": 265733.0675999999,
      "d": 494.4439499999862,
      "v": 110
    },
    {
      "midi": 64,
      "hit": false,
      "t": 266663.62222500064,
      "d": 833.3325000000186,
      "v": 100
    },
    {
      "midi": 64,
      "hit": false,
      "t": 266666.3999999999,
      "d": 11.11109999998007,
      "v": 110
    },
    {
      "midi": 61,
      "hit": false,
      "t": 266691.39997500065,
      "d": 833.3325000000186,
      "v": 100
    },
    {
      "midi": 61,
      "hit": false,
      "t": 267655.2879000007,
      "d": 247.2219749999931,
      "v": 100
    },
    {
      "midi": 63,
      "hit": false,
      "t": 267666.39899999986,
      "d": 244.4442000000272,
      "v": 110
    },
    {
      "midi": 64,
      "hit": false,
      "t": 267666.3990000007,
      "d": 202.77757500001462,
      "v": 100
    },
    {
      "midi": 61,
      "hit": false,
      "t": 267999.7319999999,
      "d": 288.8886000000057,
      "v": 110
    },
    {
      "midi": 59,
      "hit": false,
      "t": 268019.1764250007,
      "d": 1083.3322499999776,
      "v": 100
    },
    {
      "midi": 63,
      "hit": false,
      "t": 268019.1764250007,
      "d": 1138.8877499999944,
      "v": 100
    },
    {
      "midi": 63,
      "hit": false,
      "t": 268321.9538999999,
      "d": 661.1104499999783,
      "v": 110
    },
    {
      "midi": 64,
      "hit": false,
      "t": 268994.17544999986,
      "d": 2858.3304750000243,
      "v": 110
    },
    {
      "midi": 59,
      "hit": false,
      "t": 269358.0639750007,
      "d": 4694.43975000002,
      "v": 100
    },
    {
      "midi": 64,
      "hit": false,
      "t": 269358.0639750007,
      "d": 4752.773025000002,
      "v": 100
    },
    {
      "midi": 63,
      "hit": false,
      "t": 273010.8380999999,
      "d": 216.6664500000188,
      "v": 110
    },
    {
      "midi": 64,
      "hit": false,
      "t": 273327.5044499999,
      "d": 327.77744999999413,
      "v": 110
    },
    {
      "midi": 66,
      "hit": false,
      "t": 273677.5040999999,
      "d": 569.4438749999972,
      "v": 110
    },
    {
      "midi": 66,
      "hit": false,
      "t": 274344.1700999999,
      "d": 2999.996999999974,
      "v": 110
    },
    {
      "midi": 47,
      "hit": false,
      "t": 274666.3920000007,
      "d": 399.999599999981,
      "v": 100
    },
    {
      "midi": 54,
      "hit": false,
      "t": 274999.7250000007,
      "d": 366.6662999999826,
      "v": 100
    },
    {
      "midi": 59,
      "hit": false,
      "t": 275333.05800000066,
      "d": 436.11067500000354,
      "v": 100
    },
    {
      "midi": 63,
      "hit": false,
      "t": 275666.39100000064,
      "d": 744.4437000000034,
      "v": 100
    },
    {
      "midi": 59,
      "hit": false,
      "t": 276333.05700000067,
      "d": 458.3328749999637,
      "v": 100
    },
    {
      "midi": 54,
      "hit": false,
      "t": 276666.39000000065,
      "d": 377.77739999996265,
      "v": 100
    },
    {
      "midi": 59,
      "hit": false,
      "t": 276999.72300000064,
      "d": 388.88850000000093,
      "v": 100
    },
    {
      "midi": 47,
      "hit": false,
      "t": 277333.0560000006,
      "d": 358.33297500002664,
      "v": 100
    },
    {
      "midi": 54,
      "hit": false,
      "t": 277663.61122500064,
      "d": 383.3329500000109,
      "v": 100
    },
    {
      "midi": 59,
      "hit": false,
      "t": 277996.9442250006,
      "d": 427.7773500000476,
      "v": 100
    },
    {
      "midi": 63,
      "hit": false,
      "t": 278330.27722500067,
      "d": 747.2214750000276,
      "v": 100
    },
    {
      "midi": 59,
      "hit": false,
      "t": 278996.9432250007,
      "d": 427.7773499999894,
      "v": 100
    },
    {
      "midi": 54,
      "hit": false,
      "t": 279330.2762250007,
      "d": 347.22187499998836,
      "v": 100
    },
    {
      "midi": 59,
      "hit": false,
      "t": 279663.60922500066,
      "d": 377.77739999996265,
      "v": 100
    },
    {
      "midi": 49,
      "hit": false,
      "t": 279996.94222500065,
      "d": 616.6660499999998,
      "v": 100
    },
    {
      "midi": 56,
      "hit": false,
      "t": 280330.27522500063,
      "d": 483.33285000006435,
      "v": 100
    },
    {
      "midi": 61,
      "hit": false,
      "t": 280663.6082250007,
      "d": 413.8884749999852,
      "v": 100
    },
    {
      "midi": 64,
      "hit": false,
      "t": 280999.7190000007,
      "d": 713.8881750000292,
      "v": 100
    },
    {
      "midi": 61,
      "hit": false,
      "t": 281663.6072250007,
      "d": 452.77732500003185,
      "v": 100
    },
    {
      "midi": 56,
      "hit": false,
      "t": 282002.4957750007,
      "d": 352.7774250000366,
      "v": 100
    },
    {
      "midi": 61,
      "hit": false,
      "t": 282333.05100000073,
      "d": 366.6663000000408,
      "v": 100
    },
    {
      "midi": 49,
      "hit": false,
      "t": 282666.3840000008,
      "d": 388.88850000000093,
      "v": 100
    },
    {
      "midi": 56,
      "hit": false,
      "t": 282996.9392250008,
      "d": 411.11069999996107,
      "v": 100
    },
    {
      "midi": 61,
      "hit": false,
      "t": 283330.2722250008,
      "d": 411.11069999996107,
      "v": 100
    },
    {
      "midi": 56,
      "hit": false,
      "t": 283666.38300000073,
      "d": 333.3330000000424,
      "v": 100
    },
    {
      "midi": 47,
      "hit": false,
      "t": 283996.93822500075,
      "d": 380.555175000045,
      "v": 100
    },
    {
      "midi": 54,
      "hit": false,
      "t": 284330.2712250008,
      "d": 438.88844999996945,
      "v": 100
    },
    {
      "midi": 59,
      "hit": false,
      "t": 284663.6042250008,
      "d": 299.99969999998575,
      "v": 100
    },
    {
      "midi": 54,
      "hit": false,
      "t": 284999.7150000008,
      "d": 333.3330000000424,
      "v": 100
    },
    {
      "midi": 45,
      "hit": false,
      "t": 285330.2702250008,
      "d": 388.88850000005914,
      "v": 100
    },
    {
      "midi": 59,
      "hit": false,
      "t": 285394.15905,
      "d": 952.7768250000081,
      "v": 115
    },
    {
      "midi": 52,
      "hit": false,
      "t": 285663.60322500084,
      "d": 474.999524999992,
      "v": 100
    },
    {
      "midi": 57,
      "hit": false,
      "t": 285999.71400000085,
      "d": 419.4440249999752,
      "v": 100
    },
    {
      "midi": 61,
      "hit": false,
      "t": 286333.047,
      "d": 666.6660000000265,
      "v": 115
    },
    {
      "midi": 61,
      "hit": false,
      "t": 286333.04700000084,
      "d": 699.999300000025,
      "v": 100
    },
    {
      "midi": 59,
      "hit": false,
      "t": 286977.4908,
      "d": 358.33297500002664,
      "v": 115
    },
    {
      "midi": 57,
      "hit": false,
      "t": 286996.93522500084,
      "d": 397.2218250000151,
      "v": 100
    },
    {
      "midi": 52,
      "hit": false,
      "t": 287330.2682250009,
      "d": 347.22187499993015,
      "v": 100
    },
    {
      "midi": 66,
      "hit": false,
      "t": 287333.04600000003,
      "d": 666.6660000000265,
      "v": 115
    },
    {
      "midi": 57,
      "hit": false,
      "t": 287666.37900000083,
      "d": 266.66639999998733,
      "v": 100
    },
    {
      "midi": 52,
      "hit": false,
      "t": 287996.9342250008,
      "d": 858.3324750000611,
      "v": 100
    },
    {
      "midi": 64,
      "hit": false,
      "t": 288049.7119500001,
      "d": 952.7768250000081,
      "v": 115
    },
    {
      "midi": 59,
      "hit": false,
      "t": 288333.0450000008,
      "d": 499.99950000003446,
      "v": 100
    },
    {
      "midi": 64,
      "hit": false,
      "t": 288669.1557750008,
      "d": 397.2218250000151,
      "v": 100
    },
    {
      "midi": 68,
      "hit": false,
      "t": 288999.7110000008,
      "d": 680.5548749999725,
      "v": 100
    },
    {
      "midi": 68,
      "hit": false,
      "t": 289033.04430000007,
      "d": 499.99950000009267,
      "v": 115
    },
    {
      "midi": 66,
      "hit": false,
      "t": 289655.2659000002,
      "d": 358.33297500002664,
      "v": 115
    },
    {
      "midi": 64,
      "hit": false,
      "t": 289666.3770000008,
      "d": 411.1107000000193,
      "v": 100
    },
    {
      "midi": 71,
      "hit": false,
      "t": 289999.7100000002,
      "d": 666.6659999999683,
      "v": 115
    },
    {
      "midi": 59,
      "hit": false,
      "t": 290002.4877750008,
      "d": 299.99969999998575,
      "v": 100
    },
    {
      "midi": 47,
      "hit": false,
      "t": 290688.59820000076,
      "d": 5419.439025000029,
      "v": 100
    },
    {
      "midi": 75,
      "hit": false,
      "t": 290699.70930000016,
      "d": 5308.328025000228,
      "v": 115
    },
    {
      "midi": 54,
      "hit": false,
      "t": 290735.82037500077,
      "d": 5355.550199999998,
      "v": 100
    },
    {
      "midi": 59,
      "hit": false,
      "t": 290758.0425750008,
      "d": 5349.994650000008,
      "v": 100
    },
    {
      "midi": 63,
      "hit": false,
      "t": 290858.0424750008,
      "d": 5233.328099999984,
      "v": 100
    }
  ]
}