{
  "jsonPath": "Pop/Dance Pop/Madonna/whos-that-girl-soundtrack-album-version.json",
  "path": "Pop\\Dance Pop\\Madonna\\Whos That Girl (Soundtrack Album Version).mid",
  "name": "Whos That Girl (Soundtrack Album Version)",
  "difficulty": "Intermediate",
  "bpm": 101.00959086065222,
  "notes": [
    {
      "midi": 74,
      "hit": false,
      "t": 7128.035999999999,
      "d": 589.3623515624995,
      "v": 1
    },
    {
      "midi": 79,
      "hit": false,
      "t": 7128.035999999999,
      "d": 589.3623515624995,
      "v": 1
    },
    {
      "midi": 74,
      "hit": false,
      "t": 7722.038999999999,
      "d": 589.3623515625004,
      "v": 1
    },
    {
      "midi": 79,
      "hit": false,
      "t": 7722.038999999999,
      "d": 589.3623515625004,
      "v": 1
    },
    {
      "midi": 83,
      "hit": false,
      "t": 7722.038999999999,
      "d": 589.3623515625004,
      "v": 1
    },
    {
      "midi": 74,
      "hit": false,
      "t": 8316.042,
      "d": 1183.3653515624992,
      "v": 1
    },
    {
      "midi": 79,
      "hit": false,
      "t": 8316.042,
      "d": 1183.3653515624992,
      "v": 1
    },
    {
      "midi": 74,
      "hit": false,
      "t": 11880.059999999998,
      "d": 589.3623515625004,
      "v": 1
    },
    {
      "midi": 79,
      "hit": false,
      "t": 11880.059999999998,
      "d": 589.3623515625004,
      "v": 1
    },
    {
      "midi": 74,
      "hit": false,
      "t": 12474.062999999998,
      "d": 589.3623515625004,
      "v": 1
    },
    {
      "midi": 79,
      "hit": false,
      "t": 12474.062999999998,
      "d": 589.3623515625004,
      "v": 1
    },
    {
      "midi": 83,
      "hit": false,
      "t": 12474.062999999998,
      "d": 589.3623515625004,
      "v": 1
    },
    {
      "midi": 74,
      "hit": false,
      "t": 13068.065999999999,
      "d": 1183.3653515624992,
      "v": 1
    },
    {
      "midi": 79,
      "hit": false,
      "t": 13068.065999999999,
      "d": 1183.3653515624992,
      "v": 1
    },
    {
      "midi": 74,
      "hit": false,
      "t": 16632.084,
      "d": 589.3623515625004,
      "v": 1
    },
    {
      "midi": 79,
      "hit": false,
      "t": 16632.084,
      "d": 589.3623515625004,
      "v": 1
    },
    {
      "midi": 74,
      "hit": false,
      "t": 17226.087,
      "d": 589.3623515625004,
      "v": 1
    },
    {
      "midi": 79,
      "hit": false,
      "t": 17226.087,
      "d": 589.3623515625004,
      "v": 1
    },
    {
      "midi": 83,
      "hit": false,
      "t": 17226.087,
      "d": 589.3623515625004,
      "v": 1
    },
    {
      "midi": 74,
      "hit": false,
      "t": 17820.09,
      "d": 1183.365351562501,
      "v": 1
    },
    {
      "midi": 79,
      "hit": false,
      "t": 17820.09,
      "d": 1183.365351562501,
      "v": 1
    },
    {
      "midi": 74,
      "hit": false,
      "t": 21384.108,
      "d": 589.3623515625004,
      "v": 1
    },
    {
      "midi": 79,
      "hit": false,
      "t": 21384.108,
      "d": 589.3623515625004,
      "v": 1
    },
    {
      "midi": 74,
      "hit": false,
      "t": 21978.111,
      "d": 589.3623515625004,
      "v": 1
    },
    {
      "midi": 79,
      "hit": false,
      "t": 21978.111,
      "d": 589.3623515625004,
      "v": 1
    },
    {
      "midi": 83,
      "hit": false,
      "t": 21978.111,
      "d": 589.3623515625004,
      "v": 1
    },
    {
      "midi": 74,
      "hit": false,
      "t": 22572.114,
      "d": 1183.365351562501,
      "v": 1
    },
    {
      "midi": 79,
      "hit": false,
      "t": 22572.114,
      "d": 1183.365351562501,
      "v": 1
    },
    {
      "midi": 71,
      "hit": false,
      "t": 43065.2175,
      "d": 292.3608515625019,
      "v": 1
    },
    {
      "midi": 69,
      "hit": false,
      "t": 43362.219,
      "d": 143.86010156250268,
      "v": 1
    },
    {
      "midi": 71,
      "hit": false,
      "t": 43510.71975,
      "d": 737.8631015624997,
      "v": 1
    },
    {
      "midi": 69,
      "hit": false,
      "t": 44253.22349999999,
      "d": 143.86010156250268,
      "v": 1
    },
    {
      "midi": 71,
      "hit": false,
      "t": 44401.72424999999,
      "d": 292.3608515625019,
      "v": 1
    },
    {
      "midi": 69,
      "hit": false,
      "t": 44698.72574999999,
      "d": 440.86160156250116,
      "v": 1
    },
    {
      "midi": 74,
      "hit": false,
      "t": 45144.22799999999,
      "d": 589.3623515625004,
      "v": 1
    },
    {
      "midi": 79,
      "hit": false,
      "t": 45144.22799999999,
      "d": 589.3623515625004,
      "v": 1
    },
    {
      "midi": 74,
      "hit": false,
      "t": 45738.230999999985,
      "d": 589.3623515625004,
      "v": 1
    },
    {
      "midi": 79,
      "hit": false,
      "t": 45738.230999999985,
      "d": 589.3623515625004,
      "v": 1
    },
    {
      "midi": 83,
      "hit": false,
      "t": 45738.230999999985,
      "d": 589.3623515625004,
      "v": 1
    },
    {
      "midi": 74,
      "hit": false,
      "t": 46332.23399999998,
      "d": 1183.3653515624974,
      "v": 1
    },
    {
      "midi": 79,
      "hit": false,
      "t": 46332.23399999998,
      "d": 1183.3653515624974,
      "v": 1
    },
    {
      "midi": 71,
      "hit": false,
      "t": 47817.24149999998,
      "d": 292.3608515625019,
      "v": 1
    },
    {
      "midi": 69,
      "hit": false,
      "t": 48114.24299999998,
      "d": 143.86010156250268,
      "v": 1
    },
    {
      "midi": 71,
      "hit": false,
      "t": 48262.74374999998,
      "d": 292.3608515625019,
      "v": 1
    },
    {
      "midi": 69,
      "hit": false,
      "t": 48559.74524999998,
      "d": 440.86160156250116,
      "v": 1
    },
    {
      "midi": 71,
      "hit": false,
      "t": 49005.247499999976,
      "d": 589.3623515625004,
      "v": 1
    },
    {
      "midi": 69,
      "hit": false,
      "t": 49599.25049999997,
      "d": 292.3608515625019,
      "v": 1
    },
    {
      "midi": 74,
      "hit": false,
      "t": 49896.25199999997,
      "d": 589.3623515625004,
      "v": 1
    },
    {
      "midi": 79,
      "hit": false,
      "t": 49896.25199999997,
      "d": 589.3623515625004,
      "v": 1
    },
    {
      "midi": 74,
      "hit": false,
      "t": 50490.25499999997,
      "d": 589.3623515625004,
      "v": 1
    },
    {
      "midi": 79,
      "hit": false,
      "t": 50490.25499999997,
      "d": 589.3623515625004,
      "v": 1
    },
    {
      "midi": 83,
      "hit": false,
      "t": 50490.25499999997,
      "d": 589.3623515625004,
      "v": 1
    },
    {
      "midi": 74,
      "hit": false,
      "t": 51084.257999999965,
      "d": 1183.3653515624974,
      "v": 1
    },
    {
      "midi": 79,
      "hit": false,
      "t": 51084.257999999965,
      "d": 1183.3653515624974,
      "v": 1
    },
    {
      "midi": 71,
      "hit": false,
      "t": 52569.265499999965,
      "d": 292.3608515625019,
      "v": 1
    },
    {
      "midi": 69,
      "hit": false,
      "t": 52866.26699999996,
      "d": 143.86010156250268,
      "v": 1
    },
    {
      "midi": 71,
      "hit": false,
      "t": 53014.76774999996,
      "d": 737.8631015624997,
      "v": 1
    },
    {
      "midi": 69,
      "hit": false,
      "t": 53757.27149999996,
      "d": 143.86010156250268,
      "v": 1
    },
    {
      "midi": 71,
      "hit": false,
      "t": 53905.77224999996,
      "d": 292.3608515625019,
      "v": 1
    },
    {
      "midi": 69,
      "hit": false,
      "t": 54202.77374999996,
      "d": 440.86160156250116,
      "v": 1
    },
    {
      "midi": 74,
      "hit": false,
      "t": 54648.275999999954,
      "d": 589.3623515625004,
      "v": 1
    },
    {
      "midi": 79,
      "hit": false,
      "t": 54648.275999999954,
      "d": 589.3623515625004,
      "v": 1
    },
    {
      "midi": 74,
      "hit": false,
      "t": 55242.27899999995,
      "d": 589.3623515625004,
      "v": 1
    },
    {
      "midi": 79,
      "hit": false,
      "t": 55242.27899999995,
      "d": 589.3623515625004,
      "v": 1
    },
    {
      "midi": 83,
      "hit": false,
      "t": 55242.27899999995,
      "d": 589.3623515625004,
      "v": 1
    },
    {
      "midi": 74,
      "hit": false,
      "t": 55836.28199999995,
      "d": 1183.3653515624974,
      "v": 1
    },
    {
      "midi": 79,
      "hit": false,
      "t": 55836.28199999995,
      "d": 1183.3653515624974,
      "v": 1
    },
    {
      "midi": 71,
      "hit": false,
      "t": 57321.28949999995,
      "d": 292.3608515625019,
      "v": 1
    },
    {
      "midi": 69,
      "hit": false,
      "t": 57618.29099999995,
      "d": 143.86010156250268,
      "v": 1
    },
    {
      "midi": 71,
      "hit": false,
      "t": 57766.791749999946,
      "d": 292.3608515625019,
      "v": 1
    },
    {
      "midi": 69,
      "hit": false,
      "t": 58063.793249999944,
      "d": 440.86160156250116,
      "v": 1
    },
    {
      "midi": 71,
      "hit": false,
      "t": 58509.29549999994,
      "d": 589.3623515625004,
      "v": 1
    },
    {
      "midi": 69,
      "hit": false,
      "t": 59103.29849999994,
      "d": 589.3623515625004,
      "v": 1
    },
    {
      "midi": 74,
      "hit": false,
      "t": 59400.29999999994,
      "d": 589.3623515625004,
      "v": 1
    },
    {
      "midi": 79,
      "hit": false,
      "t": 59400.29999999994,
      "d": 589.3623515625004,
      "v": 1
    },
    {
      "midi": 74,
      "hit": false,
      "t": 59994.302999999934,
      "d": 589.3623515625004,
      "v": 1
    },
    {
      "midi": 79,
      "hit": false,
      "t": 59994.302999999934,
      "d": 589.3623515625004,
      "v": 1
    },
    {
      "midi": 83,
      "hit": false,
      "t": 59994.302999999934,
      "d": 589.3623515625004,
      "v": 1
    },
    {
      "midi": 74,
      "hit": false,
      "t": 60588.30599999993,
      "d": 1183.3653515624974,
      "v": 1
    },
    {
      "midi": 79,
      "hit": false,
      "t": 60588.30599999993,
      "d": 1183.3653515624974,
      "v": 1
    },
    {
      "midi": 72,
      "hit": false,
      "t": 68013.34349999993,
      "d": 886.3638515625062,
      "v": 1
    },
    {
      "midi": 71,
      "hit": false,
      "t": 68904.34799999994,
      "d": 292.36085156249464,
      "v": 1
    },
    {
      "midi": 67,
      "hit": false,
      "t": 69201.34949999994,
      "d": 440.86160156250116,
      "v": 1
    },
    {
      "midi": 71,
      "hit": false,
      "t": 69646.85174999994,
      "d": 1628.867601562495,
      "v": 1
    },
    {
      "midi": 72,
      "hit": false,
      "t": 73656.37199999994,
      "d": 143.86010156250268,
      "v": 1
    },
    {
      "midi": 69,
      "hit": false,
      "t": 73804.87274999995,
      "d": 589.3623515624931,
      "v": 1
    },
    {
      "midi": 72,
      "hit": false,
      "t": 74398.87574999995,
      "d": 292.36085156249464,
      "v": 1
    },
    {
      "midi": 71,
      "hit": false,
      "t": 74695.87724999995,
      "d": 292.36085156249464,
      "v": 1
    },
    {
      "midi": 67,
      "hit": false,
      "t": 74992.87874999995,
      "d": 1034.8646015624981,
      "v": 1
    },
    {
      "midi": 71,
      "hit": false,
      "t": 81081.40949999995,
      "d": 292.36085156249464,
      "v": 1
    },
    {
      "midi": 69,
      "hit": false,
      "t": 81378.41099999995,
      "d": 143.86010156250268,
      "v": 1
    },
    {
      "midi": 71,
      "hit": false,
      "t": 81526.91174999996,
      "d": 737.8631015624997,
      "v": 1
    },
    {
      "midi": 69,
      "hit": false,
      "t": 82269.41549999996,
      "d": 143.86010156250268,
      "v": 1
    },
    {
      "midi": 71,
      "hit": false,
      "t": 82417.91624999997,
      "d": 292.36085156249464,
      "v": 1
    },
    {
      "midi": 69,
      "hit": false,
      "t": 82714.91774999996,
      "d": 440.86160156250116,
      "v": 1
    },
    {
      "midi": 74,
      "hit": false,
      "t": 83160.41999999997,
      "d": 589.3623515624931,
      "v": 1
    },
    {
      "midi": 79,
      "hit": false,
      "t": 83160.41999999997,
      "d": 589.3623515624931,
      "v": 1
    },
    {
      "midi": 74,
      "hit": false,
      "t": 83754.42299999997,
      "d": 589.3623515624931,
      "v": 1
    },
    {
      "midi": 79,
      "hit": false,
      "t": 83754.42299999997,
      "d": 589.3623515624931,
      "v": 1
    },
    {
      "midi": 83,
      "hit": false,
      "t": 83754.42299999997,
      "d": 589.3623515624931,
      "v": 1
    },
    {
      "midi": 74,
      "hit": false,
      "t": 84348.42599999996,
      "d": 1183.3653515625047,
      "v": 1
    },
    {
      "midi": 79,
      "hit": false,
      "t": 84348.42599999996,
      "d": 1183.3653515625047,
      "v": 1
    },
    {
      "midi": 71,
      "hit": false,
      "t": 85833.43349999997,
      "d": 292.36085156249464,
      "v": 1
    },
    {
      "midi": 69,
      "hit": false,
      "t": 86130.43499999997,
      "d": 143.86010156250268,
      "v": 1
    },
    {
      "midi": 71,
      "hit": false,
      "t": 86278.93574999998,
      "d": 292.36085156249464,
      "v": 1
    },
    {
      "midi": 69,
      "hit": false,
      "t": 86575.93724999997,
      "d": 440.86160156250116,
      "v": 1
    },
    {
      "midi": 71,
      "hit": false,
      "t": 87021.43949999998,
      "d": 589.3623515624931,
      "v": 1
    },
    {
      "midi": 69,
      "hit": false,
      "t": 87615.44249999998,
      "d": 292.36085156249464,
      "v": 1
    },
    {
      "midi": 74,
      "hit": false,
      "t": 87912.44399999997,
      "d": 589.3623515624931,
      "v": 1
    },
    {
      "midi": 79,
      "hit": false,
      "t": 87912.44399999997,
      "d": 589.3623515624931,
      "v": 1
    },
    {
      "midi": 74,
      "hit": false,
      "t": 88506.44699999997,
      "d": 589.3623515624931,
      "v": 1
    },
    {
      "midi": 79,
      "hit": false,
      "t": 88506.44699999997,
      "d": 589.3623515624931,
      "v": 1
    },
    {
      "midi": 83,
      "hit": false,
      "t": 88506.44699999997,
      "d": 589.3623515624931,
      "v": 1
    },
    {
      "midi": 74,
      "hit": false,
      "t": 89100.44999999997,
      "d": 1183.3653515625047,
      "v": 1
    },
    {
      "midi": 79,
      "hit": false,
      "t": 89100.44999999997,
      "d": 1183.3653515625047,
      "v": 1
    },
    {
      "midi": 71,
      "hit": false,
      "t": 90585.45749999997,
      "d": 292.36085156249464,
      "v": 1
    },
    {
      "midi": 69,
      "hit": false,
      "t": 90882.45899999997,
      "d": 143.86010156250268,
      "v": 1
    },
    {
      "midi": 71,
      "hit": false,
      "t": 91030.95974999998,
      "d": 737.8631015624997,
      "v": 1
    },
    {
      "midi": 69,
      "hit": false,
      "t": 91773.46349999998,
      "d": 143.86010156250268,
      "v": 1
    },
    {
      "midi": 71,
      "hit": false,
      "t": 91921.96424999999,
      "d": 292.36085156249464,
      "v": 1
    },
    {
      "midi": 69,
      "hit": false,
      "t": 92218.96574999999,
      "d": 440.86160156250116,
      "v": 1
    },
    {
      "midi": 74,
      "hit": false,
      "t": 92664.468,
      "d": 589.3623515624931,
      "v": 1
    },
    {
      "midi": 79,
      "hit": false,
      "t": 92664.468,
      "d": 589.3623515624931,
      "v": 1
    },
    {
      "midi": 74,
      "hit": false,
      "t": 93258.47099999999,
      "d": 589.3623515624931,
      "v": 1
    },
    {
      "midi": 79,
      "hit": false,
      "t": 93258.47099999999,
      "d": 589.3623515624931,
      "v": 1
    },
    {
      "midi": 83,
      "hit": false,
      "t": 93258.47099999999,
      "d": 589.3623515624931,
      "v": 1
    },
    {
      "midi": 74,
      "hit": false,
      "t": 93852.47399999999,
      "d": 737.8631015624997,
      "v": 1
    },
    {
      "midi": 79,
      "hit": false,
      "t": 93852.47399999999,
      "d": 1183.3653515625047,
      "v": 1
    },
    {
      "midi": 71,
      "hit": false,
      "t": 95337.4815,
      "d": 143.86010156250268,
      "v": 1
    },
    {
      "midi": 69,
      "hit": false,
      "t": 95634.483,
      "d": 143.86010156250268,
      "v": 1
    },
    {
      "midi": 71,
      "hit": false,
      "t": 95782.98375,
      "d": 292.36085156249464,
      "v": 1
    },
    {
      "midi": 69,
      "hit": false,
      "t": 96079.98525,
      "d": 440.86160156250116,
      "v": 1
    },
    {
      "midi": 71,
      "hit": false,
      "t": 96525.4875,
      "d": 589.3623515624931,
      "v": 1
    },
    {
      "midi": 69,
      "hit": false,
      "t": 97119.4905,
      "d": 292.36085156249464,
      "v": 1
    },
    {
      "midi": 74,
      "hit": false,
      "t": 97416.492,
      "d": 589.3623515624931,
      "v": 1
    },
    {
      "midi": 79,
      "hit": false,
      "t": 97416.492,
      "d": 589.3623515624931,
      "v": 1
    },
    {
      "midi": 74,
      "hit": false,
      "t": 98010.495,
      "d": 589.3623515624931,
      "v": 1
    },
    {
      "midi": 79,
      "hit": false,
      "t": 98010.495,
      "d": 589.3623515624931,
      "v": 1
    },
    {
      "midi": 83,
      "hit": false,
      "t": 98010.495,
      "d": 589.3623515624931,
      "v": 1
    },
    {
      "midi": 74,
      "hit": false,
      "t": 98604.49799999999,
      "d": 1183.3653515625047,
      "v": 1
    },
    {
      "midi": 79,
      "hit": false,
      "t": 98604.49799999999,
      "d": 1183.3653515625047,
      "v": 1
    },
    {
      "midi": 74,
      "hit": false,
      "t": 140184.70799999998,
      "d": 589.3623515625077,
      "v": 1
    },
    {
      "midi": 79,
      "hit": false,
      "t": 140184.70799999998,
      "d": 589.3623515625077,
      "v": 1
    },
    {
      "midi": 74,
      "hit": false,
      "t": 140778.71099999998,
      "d": 589.3623515625077,
      "v": 1
    },
    {
      "midi": 79,
      "hit": false,
      "t": 140778.71099999998,
      "d": 589.3623515625077,
      "v": 1
    },
    {
      "midi": 83,
      "hit": false,
      "t": 140778.71099999998,
      "d": 589.3623515625077,
      "v": 1
    },
    {
      "midi": 74,
      "hit": false,
      "t": 141372.71399999998,
      "d": 1034.8646015624981,
      "v": 1
    },
    {
      "midi": 79,
      "hit": false,
      "t": 141372.71399999998,
      "d": 1034.8646015624981,
      "v": 1
    },
    {
      "midi": 74,
      "hit": false,
      "t": 144936.732,
      "d": 589.3623515625077,
      "v": 1
    },
    {
      "midi": 79,
      "hit": false,
      "t": 144936.732,
      "d": 589.3623515625077,
      "v": 1
    },
    {
      "midi": 74,
      "hit": false,
      "t": 145530.735,
      "d": 589.3623515625077,
      "v": 1
    },
    {
      "midi": 79,
      "hit": false,
      "t": 145530.735,
      "d": 589.3623515625077,
      "v": 1
    },
    {
      "midi": 83,
      "hit": false,
      "t": 145530.735,
      "d": 589.3623515625077,
      "v": 1
    },
    {
      "midi": 74,
      "hit": false,
      "t": 146124.73799999998,
      "d": 1034.8646015624981,
      "v": 1
    },
    {
      "midi": 79,
      "hit": false,
      "t": 146124.73799999998,
      "d": 1034.8646015624981,
      "v": 1
    },
    {
      "midi": 74,
      "hit": false,
      "t": 149688.756,
      "d": 589.3623515625077,
      "v": 1
    },
    {
      "midi": 79,
      "hit": false,
      "t": 149688.756,
      "d": 589.3623515625077,
      "v": 1
    },
    {
      "midi": 74,
      "hit": false,
      "t": 150282.759,
      "d": 589.3623515625077,
      "v": 1
    },
    {
      "midi": 79,
      "hit": false,
      "t": 150282.759,
      "d": 589.3623515625077,
      "v": 1
    },
    {
      "midi": 83,
      "hit": false,
      "t": 150282.759,
      "d": 589.3623515625077,
      "v": 1
    },
    {
      "midi": 74,
      "hit": false,
      "t": 150876.762,
      "d": 737.8631015625142,
      "v": 1
    },
    {
      "midi": 79,
      "hit": false,
      "t": 150876.762,
      "d": 1183.3653515625047,
      "v": 1
    },
    {
      "midi": 74,
      "hit": false,
      "t": 154440.78,
      "d": 589.3623515625077,
      "v": 1
    },
    {
      "midi": 79,
      "hit": false,
      "t": 154440.78,
      "d": 589.3623515625077,
      "v": 1
    },
    {
      "midi": 74,
      "hit": false,
      "t": 155034.783,
      "d": 589.3623515625077,
      "v": 1
    },
    {
      "midi": 79,
      "hit": false,
      "t": 155034.783,
      "d": 589.3623515625077,
      "v": 1
    },
    {
      "midi": 83,
      "hit": false,
      "t": 155034.783,
      "d": 589.3623515625077,
      "v": 1
    },
    {
      "midi": 74,
      "hit": false,
      "t": 155628.786,
      "d": 1034.8646015624981,
      "v": 1
    },
    {
      "midi": 79,
      "hit": false,
      "t": 155628.786,
      "d": 1034.8646015624981,
      "v": 1
    },
    {
      "midi": 74,
      "hit": false,
      "t": 197208.99599999998,
      "d": 589.3623515625077,
      "v": 1
    },
    {
      "midi": 79,
      "hit": false,
      "t": 197208.99599999998,
      "d": 589.3623515625077,
      "v": 1
    },
    {
      "midi": 74,
      "hit": false,
      "t": 197802.99899999998,
      "d": 589.3623515625077,
      "v": 1
    },
    {
      "midi": 79,
      "hit": false,
      "t": 197802.99899999998,
      "d": 589.3623515625077,
      "v": 1
    },
    {
      "midi": 83,
      "hit": false,
      "t": 197802.99899999998,
      "d": 589.3623515625077,
      "v": 1
    },
    {
      "midi": 74,
      "hit": false,
      "t": 198397.00199999998,
      "d": 737.8631015625142,
      "v": 1
    },
    {
      "midi": 79,
      "hit": false,
      "t": 198397.00199999998,
      "d": 1183.3653515625047,
      "v": 1
    },
    {
      "midi": 67,
      "hit": false,
      "t": 201961.02,
      "d": 589.3623515625077,
      "v": 1
    },
    {
      "midi": 74,
      "hit": false,
      "t": 201961.02,
      "d": 589.3623515625077,
      "v": 1
    },
    {
      "midi": 79,
      "hit": false,
      "t": 201961.02,
      "d": 589.3623515625077,
      "v": 1
    },
    {
      "midi": 67,
      "hit": false,
      "t": 202555.023,
      "d": 589.3623515625077,
      "v": 1
    },
    {
      "midi": 74,
      "hit": false,
      "t": 202555.023,
      "d": 589.3623515625077,
      "v": 1
    },
    {
      "midi": 79,
      "hit": false,
      "t": 202555.023,
      "d": 589.3623515625077,
      "v": 1
    },
    {
      "midi": 83,
      "hit": false,
      "t": 202555.023,
      "d": 589.3623515625077,
      "v": 1
    },
    {
      "midi": 67,
      "hit": false,
      "t": 203149.02599999998,
      "d": 886.3638515624916,
      "v": 1
    },
    {
      "midi": 74,
      "hit": false,
      "t": 203149.02599999998,
      "d": 886.3638515624916,
      "v": 1
    },
    {
      "midi": 79,
      "hit": false,
      "t": 203149.02599999998,
      "d": 886.3638515624916,
      "v": 1
    },
    {
      "midi": 74,
      "hit": false,
      "t": 206713.04399999997,
      "d": 589.3623515625077,
      "v": 1
    },
    {
      "midi": 79,
      "hit": false,
      "t": 206713.04399999997,
      "d": 589.3623515625077,
      "v": 1
    },
    {
      "midi": 74,
      "hit": false,
      "t": 207307.04699999996,
      "d": 589.3623515625077,
      "v": 1
    },
    {
      "midi": 79,
      "hit": false,
      "t": 207307.04699999996,
      "d": 589.3623515625077,
      "v": 1
    },
    {
      "midi": 83,
      "hit": false,
      "t": 207307.04699999996,
      "d": 589.3623515625077,
      "v": 1
    },
    {
      "midi": 74,
      "hit": false,
      "t": 207901.04999999996,
      "d": 737.8631015625142,
      "v": 1
    },
    {
      "midi": 79,
      "hit": false,
      "t": 207901.04999999996,
      "d": 1183.3653515625047,
      "v": 1
    },
    {
      "midi": 67,
      "hit": false,
      "t": 211465.06799999997,
      "d": 589.3623515625077,
      "v": 1
    },
    {
      "midi": 74,
      "hit": false,
      "t": 211465.06799999997,
      "d": 589.3623515625077,
      "v": 1
    },
    {
      "midi": 79,
      "hit": false,
      "t": 211465.06799999997,
      "d": 589.3623515625077,
      "v": 1
    },
    {
      "midi": 67,
      "hit": false,
      "t": 212059.07099999997,
      "d": 589.3623515625077,
      "v": 1
    },
    {
      "midi": 74,
      "hit": false,
      "t": 212059.07099999997,
      "d": 589.3623515625077,
      "v": 1
    },
    {
      "midi": 79,
      "hit": false,
      "t": 212059.07099999997,
      "d": 589.3623515625077,
      "v": 1
    },
    {
      "midi": 83,
      "hit": false,
      "t": 212059.07099999997,
      "d": 589.3623515625077,
      "v": 1
    },
    {
      "midi": 67,
      "hit": false,
      "t": 212653.07399999996,
      "d": 886.3638515624916,
      "v": 1
    },
    {
      "midi": 74,
      "hit": false,
      "t": 212653.07399999996,
      "d": 886.3638515624916,
      "v": 1
    },
    {
      "midi": 79,
      "hit": false,
      "t": 212653.07399999996,
      "d": 886.3638515624916,
      "v": 1
    },
    {
      "midi": 74,
      "hit": false,
      "t": 216217.09199999995,
      "d": 589.3623515625077,
      "v": 1
    },
    {
      "midi": 79,
      "hit": false,
      "t": 216217.09199999995,
      "d": 589.3623515625077,
      "v": 1
    },
    {
      "midi": 74,
      "hit": false,
      "t": 216811.09499999994,
      "d": 589.3623515625077,
      "v": 1
    },
    {
      "midi": 79,
      "hit": false,
      "t": 216811.09499999994,
      "d": 589.3623515625077,
      "v": 1
    },
    {
      "midi": 83,
      "hit": false,
      "t": 216811.09499999994,
      "d": 589.3623515625077,
      "v": 1
    },
    {
      "midi": 74,
      "hit": false,
      "t": 217405.09799999994,
      "d": 737.8631015625142,
      "v": 1
    },
    {
      "midi": 79,
      "hit": false,
      "t": 217405.09799999994,
      "d": 1183.3653515625047,
      "v": 1
    },
    {
      "midi": 67,
      "hit": false,
      "t": 220969.11599999995,
      "d": 589.3623515625077,
      "v": 1
    },
    {
      "midi": 74,
      "hit": false,
      "t": 220969.11599999995,
      "d": 589.3623515625077,
      "v": 1
    },
    {
      "midi": 79,
      "hit": false,
      "t": 220969.11599999995,
      "d": 589.3623515625077,
      "v": 1
    },
    {
      "midi": 67,
      "hit": false,
      "t": 221563.11899999995,
      "d": 589.3623515625077,
      "v": 1
    },
    {
      "midi": 74,
      "hit": false,
      "t": 221563.11899999995,
      "d": 589.3623515625077,
      "v": 1
    },
    {
      "midi": 79,
      "hit": false,
      "t": 221563.11899999995,
      "d": 589.3623515625077,
      "v": 1
    },
    {
      "midi": 83,
      "hit": false,
      "t": 221563.11899999995,
      "d": 589.3623515625077,
      "v": 1
    },
    {
      "midi": 67,
      "hit": false,
      "t": 222157.12199999994,
      "d": 886.3638515624916,
      "v": 1
    },
    {
      "midi": 74,
      "hit": false,
      "t": 222157.12199999994,
      "d": 886.3638515624916,
      "v": 1
    },
    {
      "midi": 79,
      "hit": false,
      "t": 222157.12199999994,
      "d": 886.3638515624916,
      "v": 1
    },
    {
      "midi": 74,
      "hit": false,
      "t": 225721.13999999993,
      "d": 589.3623515625077,
      "v": 1
    },
    {
      "midi": 79,
      "hit": false,
      "t": 225721.13999999993,
      "d": 589.3623515625077,
      "v": 1
    },
    {
      "midi": 74,
      "hit": false,
      "t": 226315.14299999992,
      "d": 589.3623515625077,
      "v": 1
    },
    {
      "midi": 79,
      "hit": false,
      "t": 226315.14299999992,
      "d": 589.3623515625077,
      "v": 1
    },
    {
      "midi": 83,
      "hit": false,
      "t": 226315.14299999992,
      "d": 589.3623515625077,
      "v": 1
    },
    {
      "midi": 74,
      "hit": false,
      "t": 226909.14599999992,
      "d": 737.8631015625142,
      "v": 1
    },
    {
      "midi": 79,
      "hit": false,
      "t": 226909.14599999992,
      "d": 1183.3653515625047,
      "v": 1
    },
    {
      "midi": 67,
      "hit": false,
      "t": 230473.16399999993,
      "d": 589.3623515625077,
      "v": 1
    },
    {
      "midi": 74,
      "hit": false,
      "t": 230473.16399999993,
      "d": 589.3623515625077,
      "v": 1
    },
    {
      "midi": 79,
      "hit": false,
      "t": 230473.16399999993,
      "d": 589.3623515625077,
      "v": 1
    },
    {
      "midi": 67,
      "hit": false,
      "t": 231067.16699999993,
      "d": 589.3623515625077,
      "v": 1
    },
    {
      "midi": 74,
      "hit": false,
      "t": 231067.16699999993,
      "d": 589.3623515625077,
      "v": 1
    },
    {
      "midi": 79,
      "hit": false,
      "t": 231067.16699999993,
      "d": 589.3623515625077,
      "v": 1
    },
    {
      "midi": 83,
      "hit": false,
      "t": 231067.16699999993,
      "d": 589.3623515625077,
      "v": 1
    },
    {
      "midi": 67,
      "hit": false,
      "t": 231661.16999999993,
      "d": 886.3638515624916,
      "v": 1
    },
    {
      "midi": 74,
      "hit": false,
      "t": 231661.16999999993,
      "d": 886.3638515624916,
      "v": 1
    },
    {
      "midi": 79,
      "hit": false,
      "t": 231661.16999999993,
      "d": 886.3638515624916,
      "v": 1
    },
    {
      "midi": 74,
      "hit": false,
      "t": 235225.1879999999,
      "d": 589.3623515625077,
      "v": 1
    },
    {
      "midi": 79,
      "hit": false,
      "t": 235225.1879999999,
      "d": 589.3623515625077,
      "v": 1
    },
    {
      "midi": 74,
      "hit": false,
      "t": 235819.1909999999,
      "d": 589.3623515625077,
      "v": 1
    },
    {
      "midi": 79,
      "hit": false,
      "t": 235819.1909999999,
      "d": 589.3623515625077,
      "v": 1
    },
    {
      "midi": 83,
      "hit": false,
      "t": 235819.1909999999,
      "d": 589.3623515625077,
      "v": 1
    },
    {
      "midi": 74,
      "hit": false,
      "t": 236413.1939999999,
      "d": 737.8631015625142,
      "v": 1
    },
    {
      "midi": 79,
      "hit": false,
      "t": 236413.1939999999,
      "d": 1183.3653515625047,
      "v": 1
    },
    {
      "midi": 67,
      "hit": false,
      "t": 239977.2119999999,
      "d": 589.3623515625077,
      "v": 1
    },
    {
      "midi": 74,
      "hit": false,
      "t": 239977.2119999999,
      "d": 589.3623515625077,
      "v": 1
    },
    {
      "midi": 79,
      "hit": false,
      "t": 239977.2119999999,
      "d": 589.3623515625077,
      "v": 1
    },
    {
      "midi": 67,
      "hit": false,
      "t": 240571.2149999999,
      "d": 589.3623515625077,
      "v": 1
    },
    {
      "midi": 74,
      "hit": false,
      "t": 240571.2149999999,
      "d": 589.3623515625077,
      "v": 1
    },
    {
      "midi": 79,
      "hit": false,
      "t": 240571.2149999999,
      "d": 589.3623515625077,
      "v": 1
    },
    {
      "midi": 83,
      "hit": false,
      "t": 240571.2149999999,
      "d": 589.3623515625077,
      "v": 1
    },
    {
      "midi": 67,
      "hit": false,
      "t": 241165.2179999999,
      "d": 886.3638515624916,
      "v": 1
    },
    {
      "midi": 74,
      "hit": false,
      "t": 241165.2179999999,
      "d": 886.3638515624916,
      "v": 1
    },
    {
      "midi": 79,
      "hit": false,
      "t": 241165.2179999999,
      "d": 886.3638515624916,
      "v": 1
    },
    {
      "midi": 74,
      "hit": false,
      "t": 244729.2359999999,
      "d": 589.3623515625077,
      "v": 1
    },
    {
      "midi": 79,
      "hit": false,
      "t": 244729.2359999999,
      "d": 589.3623515625077,
      "v": 1
    },
    {
      "midi": 74,
      "hit": false,
      "t": 245323.23899999988,
      "d": 589.3623515625077,
      "v": 1
    },
    {
      "midi": 79,
      "hit": false,
      "t": 245323.23899999988,
      "d": 589.3623515625077,
      "v": 1
    },
    {
      "midi": 83,
      "hit": false,
      "t": 245323.23899999988,
      "d": 589.3623515625077,
      "v": 1
    },
    {
      "midi": 74,
      "hit": false,
      "t": 245917.24199999988,
      "d": 737.8631015625142,
      "v": 1
    },
    {
      "midi": 79,
      "hit": false,
      "t": 245917.24199999988,
      "d": 1183.3653515625047,
      "v": 1
    },
    {
      "midi": 74,
      "hit": false,
      "t": 249481.2599999999,
      "d": 589.3623515625077,
      "v": 1
    },
    {
      "midi": 79,
      "hit": false,
      "t": 249481.2599999999,
      "d": 589.3623515625077,
      "v": 1
    },
    {
      "midi": 74,
      "hit": false,
      "t": 250075.2629999999,
      "d": 589.3623515625077,
      "v": 1
    },
    {
      "midi": 79,
      "hit": false,
      "t": 250075.2629999999,
      "d": 589.3623515625077,
      "v": 1
    },
    {
      "midi": 83,
      "hit": false,
      "t": 250075.2629999999,
      "d": 589.3623515625077,
      "v": 1
    },
    {
      "midi": 74,
      "hit": false,
      "t": 250669.2659999999,
      "d": 1183.3653515625047,
      "v": 1
    },
    {
      "midi": 79,
      "hit": false,
      "t": 250669.2659999999,
      "d": 1183.3653515625047,
      "v": 1
    }
  ]
}