{
  "jsonPath": "Rock/Country Rock/Tracy Lawrence/froze-over-lp-version.json",
  "path": "Rock\\Country Rock\\Tracy Lawrence\\Froze Over  (LP Version).mid",
  "name": "Froze Over  (LP Version)",
  "difficulty": "Advanced",
  "bpm": 95.00014250021376,
  "notes": [
    {
      "midi": 53,
      "hit": false,
      "t": 11368.404,
      "d": 763.1567500000001,
      "v": 98
    },
    {
      "midi": 57,
      "hit": false,
      "t": 11368.404,
      "d": 901.3144374999993,
      "v": 98
    },
    {
      "midi": 60,
      "hit": false,
      "t": 11368.404,
      "d": 927.630187499999,
      "v": 98
    },
    {
      "midi": 41,
      "hit": false,
      "t": 11374.9829375,
      "d": 3388.152812499997,
      "v": 109
    },
    {
      "midi": 48,
      "hit": false,
      "t": 12664.4546875,
      "d": 243.42068749999999,
      "v": 89
    },
    {
      "midi": 48,
      "hit": false,
      "t": 13039.454125,
      "d": 888.1565624999985,
      "v": 93
    },
    {
      "midi": 60,
      "hit": false,
      "t": 13151.2960625,
      "d": 1401.3136874999982,
      "v": 93
    },
    {
      "midi": 65,
      "hit": false,
      "t": 13236.82225,
      "d": 1355.261124999999,
      "v": 84
    },
    {
      "midi": 69,
      "hit": false,
      "t": 13302.611625,
      "d": 1184.2087499999998,
      "v": 70
    },
    {
      "midi": 48,
      "hit": false,
      "t": 14506.557187499999,
      "d": 256.57856249999895,
      "v": 89
    },
    {
      "midi": 69,
      "hit": false,
      "t": 14736.819999999998,
      "d": 46.05256249999911,
      "v": 74
    },
    {
      "midi": 60,
      "hit": false,
      "t": 14743.398937499998,
      "d": 72.36831249999886,
      "v": 78
    },
    {
      "midi": 48,
      "hit": false,
      "t": 14947.345999999998,
      "d": 190.78918750000048,
      "v": 96
    },
    {
      "midi": 41,
      "hit": false,
      "t": 15144.714124999999,
      "d": 1407.8926250000004,
      "v": 109
    },
    {
      "midi": 53,
      "hit": false,
      "t": 15157.872,
      "d": 1026.3142499999994,
      "v": 89
    },
    {
      "midi": 57,
      "hit": false,
      "t": 15157.872,
      "d": 1190.7876875000002,
      "v": 84
    },
    {
      "midi": 60,
      "hit": false,
      "t": 15164.4509375,
      "d": 1210.5244999999995,
      "v": 98
    },
    {
      "midi": 53,
      "hit": false,
      "t": 16388.1333125,
      "d": 32.894687500000146,
      "v": 78
    },
    {
      "midi": 41,
      "hit": false,
      "t": 16822.3431875,
      "d": 776.3146249999991,
      "v": 89
    },
    {
      "midi": 53,
      "hit": false,
      "t": 17039.448125,
      "d": 421.0519999999997,
      "v": 123
    },
    {
      "midi": 57,
      "hit": false,
      "t": 17039.448125,
      "d": 671.0516249999964,
      "v": 127
    },
    {
      "midi": 43,
      "hit": false,
      "t": 17677.6050625,
      "d": 677.630562499995,
      "v": 93
    },
    {
      "midi": 55,
      "hit": false,
      "t": 17684.183999999997,
      "d": 717.1041874999974,
      "v": 89
    },
    {
      "midi": 58,
      "hit": false,
      "t": 17690.762937499996,
      "d": 624.9990624999991,
      "v": 102
    },
    {
      "midi": 57,
      "hit": false,
      "t": 18322.340937499994,
      "d": 539.4728750000031,
      "v": 86
    },
    {
      "midi": 60,
      "hit": false,
      "t": 18328.919874999992,
      "d": 236.84175000000323,
      "v": 102
    },
    {
      "midi": 45,
      "hit": false,
      "t": 18342.077749999993,
      "d": 598.6833125000012,
      "v": 76
    },
    {
      "midi": 62,
      "hit": false,
      "t": 18927.603187499997,
      "d": 559.2096874999988,
      "v": 81
    },
    {
      "midi": 58,
      "hit": false,
      "t": 18934.182124999996,
      "d": 506.57818749999933,
      "v": 81
    },
    {
      "midi": 53,
      "hit": false,
      "t": 18940.761062499994,
      "d": 467.1045625000006,
      "v": 78
    },
    {
      "midi": 46,
      "hit": false,
      "t": 18973.655749999994,
      "d": 842.104000000003,
      "v": 84
    },
    {
      "midi": 46,
      "hit": false,
      "t": 19927.6016875,
      "d": 6690.779437499994,
      "v": 89
    },
    {
      "midi": 60,
      "hit": false,
      "t": 20164.4434375,
      "d": 105.26299999999901,
      "v": 96
    },
    {
      "midi": 65,
      "hit": false,
      "t": 20171.022374999997,
      "d": 85.52618749999965,
      "v": 86
    },
    {
      "midi": 60,
      "hit": false,
      "t": 20618.390124999998,
      "d": 46.05256250000093,
      "v": 86
    },
    {
      "midi": 60,
      "hit": false,
      "t": 20828.916125,
      "d": 342.10475000000224,
      "v": 113
    },
    {
      "midi": 65,
      "hit": false,
      "t": 20828.916125,
      "d": 1407.8926249999968,
      "v": 104
    },
    {
      "midi": 62,
      "hit": false,
      "t": 21243.3891875,
      "d": 999.9984999999942,
      "v": 76
    },
    {
      "midi": 60,
      "hit": false,
      "t": 21315.7575,
      "d": 118.4208749999998,
      "v": 81
    },
    {
      "midi": 58,
      "hit": false,
      "t": 21453.9151875,
      "d": 881.5776249999944,
      "v": 98
    },
    {
      "midi": 58,
      "hit": false,
      "t": 22624.966062499992,
      "d": 1164.4719374999986,
      "v": 98
    },
    {
      "midi": 62,
      "hit": false,
      "t": 22697.33437499999,
      "d": 1282.892812500002,
      "v": 76
    },
    {
      "midi": 70,
      "hit": false,
      "t": 22730.22906249999,
      "d": 1118.4193750000013,
      "v": 109
    },
    {
      "midi": 62,
      "hit": false,
      "t": 24631.541999999994,
      "d": 164.47343750000073,
      "v": 114
    },
    {
      "midi": 58,
      "hit": false,
      "t": 24894.699499999995,
      "d": 177.63131249999788,
      "v": 81
    },
    {
      "midi": 62,
      "hit": false,
      "t": 25052.593999999994,
      "d": 118.4208749999998,
      "v": 96
    },
    {
      "midi": 64,
      "hit": false,
      "t": 25282.856812499995,
      "d": 157.89449999999852,
      "v": 113
    },
    {
      "midi": 60,
      "hit": false,
      "t": 25473.645999999993,
      "d": 223.68387500000244,
      "v": 86
    },
    {
      "midi": 64,
      "hit": false,
      "t": 25651.277312499995,
      "d": 144.73662500000137,
      "v": 86
    },
    {
      "midi": 65,
      "hit": false,
      "t": 25888.119062499994,
      "d": 203.94706249999945,
      "v": 102
    },
    {
      "midi": 62,
      "hit": false,
      "t": 26111.802937499993,
      "d": 144.73662499999773,
      "v": 70
    },
    {
      "midi": 65,
      "hit": false,
      "t": 26296.01318749999,
      "d": 177.6313125000015,
      "v": 81
    },
    {
      "midi": 64,
      "hit": false,
      "t": 26519.697062499992,
      "d": 723.6831249999959,
      "v": 89
    },
    {
      "midi": 60,
      "hit": false,
      "t": 26526.27599999999,
      "d": 677.6305624999986,
      "v": 86
    },
    {
      "midi": 48,
      "hit": false,
      "t": 26526.27599999999,
      "d": 2111.838937499997,
      "v": 89
    },
    {
      "midi": 74,
      "hit": false,
      "t": 27822.32668749999,
      "d": 355.2626249999994,
      "v": 84
    },
    {
      "midi": 79,
      "hit": false,
      "t": 27822.32668749999,
      "d": 796.0514375000021,
      "v": 86
    },
    {
      "midi": 76,
      "hit": false,
      "t": 28223.64187499999,
      "d": 401.3151875000003,
      "v": 74
    },
    {
      "midi": 74,
      "hit": false,
      "t": 28282.852312499992,
      "d": 85.52618749999965,
      "v": 70
    },
    {
      "midi": 72,
      "hit": false,
      "t": 28401.27318749999,
      "d": 230.26281249999738,
      "v": 98
    },
    {
      "midi": 63,
      "hit": false,
      "t": 30315.743999999988,
      "d": 26.31575000000157,
      "v": 93
    },
    {
      "midi": 64,
      "hit": false,
      "t": 30315.743999999988,
      "d": 1348.6821875000023,
      "v": 96
    },
    {
      "midi": 67,
      "hit": false,
      "t": 30315.743999999988,
      "d": 1368.4190000000017,
      "v": 98
    },
    {
      "midi": 48,
      "hit": false,
      "t": 30315.743999999988,
      "d": 3427.626437499999,
      "v": 96
    },
    {
      "midi": 62,
      "hit": false,
      "t": 31980.215187499987,
      "d": 111.84193750000122,
      "v": 69
    },
    {
      "midi": 67,
      "hit": false,
      "t": 32039.42562499999,
      "d": 1690.786937500001,
      "v": 74
    },
    {
      "midi": 64,
      "hit": false,
      "t": 32098.636062499987,
      "d": 1644.734375,
      "v": 86
    },
    {
      "midi": 62,
      "hit": false,
      "t": 32138.109687499986,
      "d": 72.36831249999886,
      "v": 69
    },
    {
      "midi": 60,
      "hit": false,
      "t": 32263.109499999984,
      "d": 1493.4188125,
      "v": 81
    },
    {
      "midi": 48,
      "hit": false,
      "t": 33927.58068749998,
      "d": 46.05256250000093,
      "v": 74
    },
    {
      "midi": 48,
      "hit": false,
      "t": 34105.211999999985,
      "d": 1309.2085625000036,
      "v": 113
    },
    {
      "midi": 55,
      "hit": false,
      "t": 34736.789999999986,
      "d": 1230.261312499999,
      "v": 78
    },
    {
      "midi": 60,
      "hit": false,
      "t": 34736.789999999986,
      "d": 1256.5770625000005,
      "v": 86
    },
    {
      "midi": 64,
      "hit": false,
      "t": 34736.789999999986,
      "d": 1256.5770625000005,
      "v": 84
    },
    {
      "midi": 40,
      "hit": false,
      "t": 35795.998937499986,
      "d": 177.6313125000015,
      "v": 78
    },
    {
      "midi": 36,
      "hit": false,
      "t": 36006.52493749999,
      "d": 703.9463124999966,
      "v": 98
    },
    {
      "midi": 38,
      "hit": false,
      "t": 36651.26081249999,
      "d": 657.8937499999956,
      "v": 93
    },
    {
      "midi": 40,
      "hit": false,
      "t": 37309.154562499985,
      "d": 565.788625000001,
      "v": 84
    },
    {
      "midi": 60,
      "hit": false,
      "t": 37894.679999999986,
      "d": 1302.6296249999941,
      "v": 93
    },
    {
      "midi": 41,
      "hit": false,
      "t": 37894.679999999986,
      "d": 1335.5243124999906,
      "v": 93
    },
    {
      "midi": 57,
      "hit": false,
      "t": 37894.679999999986,
      "d": 1342.1032499999928,
      "v": 81
    },
    {
      "midi": 53,
      "hit": false,
      "t": 37894.679999999986,
      "d": 1355.26112499999,
      "v": 93
    },
    {
      "midi": 52,
      "hit": false,
      "t": 39802.57187499998,
      "d": 598.6833124999976,
      "v": 111
    },
    {
      "midi": 48,
      "hit": false,
      "t": 39815.72974999998,
      "d": 565.788625000001,
      "v": 107
    },
    {
      "midi": 36,
      "hit": false,
      "t": 39815.72974999998,
      "d": 631.5779999999941,
      "v": 102
    },
    {
      "midi": 53,
      "hit": false,
      "t": 40434.149874999974,
      "d": 572.3675625000033,
      "v": 109
    },
    {
      "midi": 50,
      "hit": false,
      "t": 40434.149874999974,
      "d": 611.8411875000093,
      "v": 102
    },
    {
      "midi": 38,
      "hit": false,
      "t": 40447.30774999997,
      "d": 592.1043750000099,
      "v": 102
    },
    {
      "midi": 55,
      "hit": false,
      "t": 41019.675312499974,
      "d": 276.31537500001286,
      "v": 104
    },
    {
      "midi": 40,
      "hit": false,
      "t": 41026.254249999976,
      "d": 664.4726875000124,
      "v": 109
    },
    {
      "midi": 52,
      "hit": false,
      "t": 41032.83318749998,
      "d": 355.2626250000103,
      "v": 109
    },
    {
      "midi": 57,
      "hit": false,
      "t": 41703.884812499986,
      "d": 499.99925000000076,
      "v": 86
    },
    {
      "midi": 48,
      "hit": false,
      "t": 41710.46374999999,
      "d": 434.20987500000047,
      "v": 89
    },
    {
      "midi": 53,
      "hit": false,
      "t": 41710.46374999999,
      "d": 453.9466874999998,
      "v": 102
    },
    {
      "midi": 41,
      "hit": false,
      "t": 41717.04268749999,
      "d": 5309.20256250001,
      "v": 98
    },
    {
      "midi": 57,
      "hit": false,
      "t": 42980.198687499986,
      "d": 118.42087500000343,
      "v": 76
    },
    {
      "midi": 60,
      "hit": false,
      "t": 43170.98787499999,
      "d": 190.78918749999866,
      "v": 98
    },
    {
      "midi": 65,
      "hit": false,
      "t": 43355.19812499999,
      "d": 282.8943125000078,
      "v": 114
    },
    {
      "midi": 64,
      "hit": false,
      "t": 43585.46093749999,
      "d": 1065.787875000009,
      "v": 111
    },
    {
      "midi": 57,
      "hit": false,
      "t": 44842.038,
      "d": 151.31556249999994,
      "v": 76
    },
    {
      "midi": 60,
      "hit": false,
      "t": 45052.564,
      "d": 144.73662499999773,
      "v": 89
    },
    {
      "midi": 64,
      "hit": false,
      "t": 45263.09,
      "d": 230.26281249999738,
      "v": 86
    },
    {
      "midi": 62,
      "hit": false,
      "t": 45473.615999999995,
      "d": 1309.2085625000036,
      "v": 116
    },
    {
      "midi": 41,
      "hit": false,
      "t": 47170.981875,
      "d": 131.57875000000058,
      "v": 89
    },
    {
      "midi": 41,
      "hit": false,
      "t": 47342.03425,
      "d": 1276.313875000007,
      "v": 84
    },
    {
      "midi": 64,
      "hit": false,
      "t": 47355.192124999994,
      "d": 598.6833125000048,
      "v": 116
    },
    {
      "midi": 60,
      "hit": false,
      "t": 47361.771062499996,
      "d": 611.841187500002,
      "v": 107
    },
    {
      "midi": 62,
      "hit": false,
      "t": 47960.454375,
      "d": 651.3148125000007,
      "v": 96
    },
    {
      "midi": 65,
      "hit": false,
      "t": 47973.61225,
      "d": 690.7884375000067,
      "v": 98
    },
    {
      "midi": 60,
      "hit": false,
      "t": 48631.506,
      "d": 394.73625000000175,
      "v": 93
    },
    {
      "midi": 64,
      "hit": false,
      "t": 48631.506,
      "d": 598.6833124999976,
      "v": 96
    },
    {
      "midi": 45,
      "hit": false,
      "t": 48638.0849375,
      "d": 578.9464999999982,
      "v": 74
    },
    {
      "midi": 46,
      "hit": false,
      "t": 49263.083999999995,
      "d": 5414.465562500001,
      "v": 86
    },
    {
      "midi": 62,
      "hit": false,
      "t": 49269.6629375,
      "d": 717.104187500001,
      "v": 78
    },
    {
      "midi": 58,
      "hit": false,
      "t": 49276.241875,
      "d": 822.3671875,
      "v": 78
    },
    {
      "midi": 65,
      "hit": false,
      "t": 49282.8208125,
      "d": 671.0516250000001,
      "v": 86
    },
    {
      "midi": 77,
      "hit": false,
      "t": 50907.818375,
      "d": 1171.0508749999935,
      "v": 78
    },
    {
      "midi": 74,
      "hit": false,
      "t": 50993.3445625,
      "d": 1111.8404374999955,
      "v": 84
    },
    {
      "midi": 72,
      "hit": false,
      "t": 51072.2918125,
      "d": 78.94724999999744,
      "v": 93
    },
    {
      "midi": 70,
      "hit": false,
      "t": 51164.396937499994,
      "d": 967.103812500005,
      "v": 111
    },
    {
      "midi": 60,
      "hit": false,
      "t": 52802.552375,
      "d": 39.47362499999872,
      "v": 70
    },
    {
      "midi": 65,
      "hit": false,
      "t": 52822.2891875,
      "d": 1717.1026874999952,
      "v": 74
    },
    {
      "midi": 62,
      "hit": false,
      "t": 52881.499625,
      "d": 1855.260374999998,
      "v": 98
    },
    {
      "midi": 60,
      "hit": false,
      "t": 52940.710062499995,
      "d": 111.84193750000122,
      "v": 74
    },
    {
      "midi": 58,
      "hit": false,
      "t": 53092.025624999995,
      "d": 1585.523937500002,
      "v": 86
    },
    {
      "midi": 63,
      "hit": false,
      "t": 54947.28599999999,
      "d": 26.31575000000157,
      "v": 116
    },
    {
      "midi": 67,
      "hit": false,
      "t": 54947.28599999999,
      "d": 1276.3138749999998,
      "v": 113
    },
    {
      "midi": 48,
      "hit": false,
      "t": 54947.28599999999,
      "d": 3427.626437500003,
      "v": 104
    },
    {
      "midi": 64,
      "hit": false,
      "t": 54953.864937499995,
      "d": 1296.0506874999992,
      "v": 127
    },
    {
      "midi": 62,
      "hit": false,
      "t": 56670.967625,
      "d": 72.3683125000025,
      "v": 69
    },
    {
      "midi": 65,
      "hit": false,
      "t": 56670.967625,
      "d": 105.26299999999901,
      "v": 78
    },
    {
      "midi": 64,
      "hit": false,
      "t": 56848.5989375,
      "d": 1223.6823749999967,
      "v": 72
    },
    {
      "midi": 60,
      "hit": false,
      "t": 56881.493624999996,
      "d": 1230.261312499999,
      "v": 70
    },
    {
      "midi": 55,
      "hit": false,
      "t": 58545.964812499995,
      "d": 151.31556249999994,
      "v": 84
    },
    {
      "midi": 55,
      "hit": false,
      "t": 58749.911875,
      "d": 1039.4721250000075,
      "v": 74
    },
    {
      "midi": 60,
      "hit": false,
      "t": 58769.6486875,
      "d": 1203.9455625000046,
      "v": 81
    },
    {
      "midi": 48,
      "hit": false,
      "t": 58769.6486875,
      "d": 1236.840250000001,
      "v": 81
    },
    {
      "midi": 64,
      "hit": false,
      "t": 58789.3855,
      "d": 1085.5246875000084,
      "v": 74
    },
    {
      "midi": 55,
      "hit": false,
      "t": 60039.383624999995,
      "d": 52.63150000000314,
      "v": 70
    },
    {
      "midi": 43,
      "hit": false,
      "t": 60526.225,
      "d": 78.94724999999744,
      "v": 70
    },
    {
      "midi": 58,
      "hit": false,
      "t": 60638.06693749999,
      "d": 552.6307500000039,
      "v": 89
    },
    {
      "midi": 52,
      "hit": false,
      "t": 60644.645874999995,
      "d": 592.1043749999953,
      "v": 69
    },
    {
      "midi": 55,
      "hit": false,
      "t": 60657.80374999999,
      "d": 565.788625000001,
      "v": 89
    },
    {
      "midi": 36,
      "hit": false,
      "t": 60703.85631249999,
      "d": 723.6831249999959,
      "v": 70
    },
    {
      "midi": 36,
      "hit": false,
      "t": 61631.48649999999,
      "d": 157.89450000000215,
      "v": 93
    },
    {
      "midi": 36,
      "hit": false,
      "t": 61901.222937499995,
      "d": 605.2622499999998,
      "v": 78
    },
    {
      "midi": 52,
      "hit": false,
      "t": 62124.9068125,
      "d": 164.4734374999971,
      "v": 74
    },
    {
      "midi": 55,
      "hit": false,
      "t": 62138.064687499995,
      "d": 105.26299999999901,
      "v": 74
    },
    {
      "midi": 48,
      "hit": false,
      "t": 62348.59068749999,
      "d": 131.57875000000058,
      "v": 78
    },
    {
      "midi": 48,
      "hit": false,
      "t": 62565.69562499999,
      "d": 986.8406250000044,
      "v": 74
    },
    {
      "midi": 57,
      "hit": false,
      "t": 62578.85349999999,
      "d": 1085.5246875000084,
      "v": 84
    },
    {
      "midi": 53,
      "hit": false,
      "t": 62585.43243749999,
      "d": 993.4195625000066,
      "v": 89
    },
    {
      "midi": 41,
      "hit": false,
      "t": 62585.43243749999,
      "d": 3236.837250000004,
      "v": 78
    },
    {
      "midi": 55,
      "hit": false,
      "t": 64197.272124999996,
      "d": 118.42087500000343,
      "v": 81
    },
    {
      "midi": 60,
      "hit": false,
      "t": 64223.587875,
      "d": 1230.2613125000062,
      "v": 70
    },
    {
      "midi": 57,
      "hit": false,
      "t": 64295.9561875,
      "d": 1322.3664375000008,
      "v": 93
    },
    {
      "midi": 55,
      "hit": false,
      "t": 64394.64025,
      "d": 52.63150000000314,
      "v": 81
    },
    {
      "midi": 53,
      "hit": false,
      "t": 64453.8506875,
      "d": 1006.5774375000037,
      "v": 96
    },
    {
      "midi": 56,
      "hit": false,
      "t": 65973.58525,
      "d": 118.42087499999616,
      "v": 93
    },
    {
      "midi": 57,
      "hit": false,
      "t": 66131.47975,
      "d": 1039.4721250000002,
      "v": 81
    },
    {
      "midi": 65,
      "hit": false,
      "t": 66342.00575,
      "d": 881.5776250000054,
      "v": 102
    },
    {
      "midi": 41,
      "hit": false,
      "t": 66361.7425625,
      "d": 2763.1537499999977,
      "v": 81
    },
    {
      "midi": 48,
      "hit": false,
      "t": 66368.3215,
      "d": 3111.8374374999985,
      "v": 89
    },
    {
      "midi": 57,
      "hit": false,
      "t": 67782.7930625,
      "d": 177.6313125000015,
      "v": 96
    },
    {
      "midi": 65,
      "hit": false,
      "t": 67973.58225,
      "d": 256.57856249999895,
      "v": 98
    },
    {
      "midi": 64,
      "hit": false,
      "t": 68184.10825,
      "d": 986.8406249999971,
      "v": 127
    },
    {
      "midi": 57,
      "hit": false,
      "t": 68184.10825,
      "d": 1335.524312499998,
      "v": 86
    },
    {
      "midi": 41,
      "hit": false,
      "t": 69506.4746875,
      "d": 1552.6292500000127,
      "v": 74
    },
    {
      "midi": 57,
      "hit": false,
      "t": 69684.106,
      "d": 263.15750000000116,
      "v": 89
    },
    {
      "midi": 48,
      "hit": false,
      "t": 69756.4743125,
      "d": 1374.9979375000112,
      "v": 74
    },
    {
      "midi": 64,
      "hit": false,
      "t": 69848.5794375,
      "d": 144.736625000005,
      "v": 86
    },
    {
      "midi": 57,
      "hit": false,
      "t": 70072.2633125,
      "d": 1269.734937500005,
      "v": 76
    },
    {
      "midi": 62,
      "hit": false,
      "t": 70085.4211875,
      "d": 1269.734937500005,
      "v": 104
    },
    {
      "midi": 41,
      "hit": false,
      "t": 71374.89293750002,
      "d": 592.1043750000099,
      "v": 81
    },
    {
      "midi": 64,
      "hit": false,
      "t": 71953.83943750002,
      "d": 690.7884374999994,
      "v": 104
    },
    {
      "midi": 60,
      "hit": false,
      "t": 71960.41837500002,
      "d": 1776.3131250000006,
      "v": 109
    },
    {
      "midi": 57,
      "hit": false,
      "t": 71973.57625000003,
      "d": 1756.576312499994,
      "v": 81
    },
    {
      "midi": 45,
      "hit": false,
      "t": 71973.57625000003,
      "d": 1861.8393125000002,
      "v": 81
    },
    {
      "midi": 65,
      "hit": false,
      "t": 72644.62787500002,
      "d": 874.9986875000031,
      "v": 107
    },
    {
      "midi": 64,
      "hit": false,
      "t": 73657.78425000003,
      "d": 171.0523749999993,
      "v": 76
    },
    {
      "midi": 62,
      "hit": false,
      "t": 73894.62600000003,
      "d": 1032.8931875000126,
      "v": 93
    },
    {
      "midi": 46,
      "hit": false,
      "t": 73901.20493750004,
      "d": 5197.360625000001,
      "v": 89
    },
    {
      "midi": 58,
      "hit": false,
      "t": 73907.78387500004,
      "d": 921.0512500000041,
      "v": 86
    },
    {
      "midi": 72,
      "hit": false,
      "t": 75519.62356250004,
      "d": 151.31556249999267,
      "v": 86
    },
    {
      "midi": 77,
      "hit": false,
      "t": 75545.93931250004,
      "d": 953.9459375000006,
      "v": 74
    },
    {
      "midi": 74,
      "hit": false,
      "t": 75638.04443750004,
      "d": 881.5776250000054,
      "v": 89
    },
    {
      "midi": 70,
      "hit": false,
      "t": 75795.93893750003,
      "d": 749.9988750000048,
      "v": 86
    },
    {
      "midi": 65,
      "hit": false,
      "t": 77532.77843750003,
      "d": 1473.6820000000007,
      "v": 74
    },
    {
      "midi": 62,
      "hit": false,
      "t": 77591.98887500004,
      "d": 1401.313687499991,
      "v": 84
    },
    {
      "midi": 60,
      "hit": false,
      "t": 77638.04143750004,
      "d": 85.52618749999965,
      "v": 89
    },
    {
      "midi": 58,
      "hit": false,
      "t": 77749.88337500003,
      "d": 1230.2613124999916,
      "v": 98
    },
    {
      "midi": 46,
      "hit": false,
      "t": 79361.72306250004,
      "d": 2111.8389375000406,
      "v": 102
    },
    {
      "midi": 36,
      "hit": false,
      "t": 79578.82800000004,
      "d": 690.788437500014,
      "v": 81
    },
    {
      "midi": 55,
      "hit": false,
      "t": 79578.82800000004,
      "d": 967.1038125000196,
      "v": 96
    },
    {
      "midi": 60,
      "hit": false,
      "t": 79591.98587500004,
      "d": 960.5248750000173,
      "v": 81
    },
    {
      "midi": 64,
      "hit": false,
      "t": 79644.61737500005,
      "d": 960.5248750000173,
      "v": 69
    },
    {
      "midi": 55,
      "hit": false,
      "t": 80861.72081250006,
      "d": 342.1047499999986,
      "v": 93
    },
    {
      "midi": 64,
      "hit": false,
      "t": 80868.29975000006,
      "d": 335.5258124999964,
      "v": 102
    },
    {
      "midi": 62,
      "hit": false,
      "t": 81223.56237500007,
      "d": 59.210437500005355,
      "v": 84
    },
    {
      "midi": 55,
      "hit": false,
      "t": 81302.50962500008,
      "d": 157.89449999999488,
      "v": 93
    },
    {
      "midi": 64,
      "hit": false,
      "t": 81315.66750000008,
      "d": 118.42087499999616,
      "v": 84
    },
    {
      "midi": 62,
      "hit": false,
      "t": 81401.19368750008,
      "d": 1776.3131250000006,
      "v": 107
    },
    {
      "midi": 53,
      "hit": false,
      "t": 81434.08837500008,
      "d": 1743.418437500004,
      "v": 107
    },
    {
      "midi": 64,
      "hit": false,
      "t": 83164.34893750008,
      "d": 151.31556250000722,
      "v": 84
    },
    {
      "midi": 55,
      "hit": false,
      "t": 83184.08575000009,
      "d": 144.736625000005,
      "v": 84
    },
    {
      "midi": 62,
      "hit": false,
      "t": 83269.61193750009,
      "d": 131.57875000001513,
      "v": 86
    },
    {
      "midi": 53,
      "hit": false,
      "t": 83295.92768750008,
      "d": 144.73662500001956,
      "v": 102
    },
    {
      "midi": 60,
      "hit": false,
      "t": 83407.7696250001,
      "d": 2309.207062500005,
      "v": 86
    },
    {
      "midi": 52,
      "hit": false,
      "t": 83414.3485625001,
      "d": 1381.5768749999988,
      "v": 86
    },
    {
      "midi": 64,
      "hit": false,
      "t": 86506.44918750011,
      "d": 124.99981249999837,
      "v": 86
    },
    {
      "midi": 60,
      "hit": false,
      "t": 86716.97518750011,
      "d": 138.1576875000028,
      "v": 93
    },
    {
      "midi": 58,
      "hit": false,
      "t": 86901.18543750011,
      "d": 217.10493750000023,
      "v": 70
    },
    {
      "midi": 57,
      "hit": false,
      "t": 87151.18506250011,
      "d": 967.1038124999905,
      "v": 76
    },
    {
      "midi": 53,
      "hit": false,
      "t": 87216.9744375001,
      "d": 1138.1561875000043,
      "v": 70
    },
    {
      "midi": 60,
      "hit": false,
      "t": 88848.55093750011,
      "d": 1453.945187499994,
      "v": 84
    },
    {
      "midi": 55,
      "hit": false,
      "t": 88855.12987500012,
      "d": 85.52618749999965,
      "v": 86
    },
    {
      "midi": 57,
      "hit": false,
      "t": 88934.07712500011,
      "d": 1388.155812500001,
      "v": 78
    },
    {
      "midi": 55,
      "hit": false,
      "t": 88993.2875625001,
      "d": 118.42087499999616,
      "v": 78
    },
    {
      "midi": 53,
      "hit": false,
      "t": 89105.1295000001,
      "d": 980.2616875000094,
      "v": 98
    },
    {
      "midi": 48,
      "hit": false,
      "t": 90947.2320000001,
      "d": 78.94724999999744,
      "v": 86
    },
    {
      "midi": 53,
      "hit": false,
      "t": 90947.2320000001,
      "d": 1065.7878749999945,
      "v": 102
    },
    {
      "midi": 57,
      "hit": false,
      "t": 90947.2320000001,
      "d": 1138.1561874999898,
      "v": 93
    },
    {
      "midi": 60,
      "hit": false,
      "t": 90973.5477500001,
      "d": 1131.577250000002,
      "v": 109
    },
    {
      "midi": 41,
      "hit": false,
      "t": 90993.2845625001,
      "d": 1664.471187499992,
      "v": 102
    },
    {
      "midi": 65,
      "hit": false,
      "t": 91032.7581875001,
      "d": 947.3669999999984,
      "v": 86
    },
    {
      "midi": 65,
      "hit": false,
      "t": 92236.7037500001,
      "d": 223.68387500000244,
      "v": 109
    },
    {
      "midi": 60,
      "hit": false,
      "t": 92447.2297500001,
      "d": 289.47324999999546,
      "v": 93
    },
    {
      "midi": 57,
      "hit": false,
      "t": 92618.2821250001,
      "d": 124.99981249999837,
      "v": 93
    },
    {
      "midi": 57,
      "hit": false,
      "t": 92841.9660000001,
      "d": 1342.1032500000147,
      "v": 81
    },
    {
      "midi": 60,
      "hit": false,
      "t": 92841.9660000001,
      "d": 1368.419000000009,
      "v": 86
    },
    {
      "midi": 64,
      "hit": false,
      "t": 92841.9660000001,
      "d": 1368.419000000009,
      "v": 84
    },
    {
      "midi": 41,
      "hit": false,
      "t": 92848.5449375001,
      "d": 960.5248750000173,
      "v": 81
    },
    {
      "midi": 48,
      "hit": false,
      "t": 92861.70281250011,
      "d": 1078.9457500000135,
      "v": 81
    },
    {
      "midi": 41,
      "hit": false,
      "t": 94118.27987500012,
      "d": 328.9468749999796,
      "v": 89
    },
    {
      "midi": 64,
      "hit": false,
      "t": 94328.80587500011,
      "d": 78.94724999999744,
      "v": 74
    },
    {
      "midi": 60,
      "hit": false,
      "t": 94335.38481250011,
      "d": 342.1047499999986,
      "v": 86
    },
    {
      "midi": 57,
      "hit": false,
      "t": 94341.96375000011,
      "d": 118.42087499999616,
      "v": 72
    },
    {
      "midi": 57,
      "hit": false,
      "t": 94539.3318750001,
      "d": 52.63150000000314,
      "v": 69
    },
    {
      "midi": 41,
      "hit": false,
      "t": 94545.91081250011,
      "d": 3631.5735000000277,
      "v": 86
    },
    {
      "midi": 62,
      "hit": false,
      "t": 94743.2789375001,
      "d": 1717.1026875000098,
      "v": 102
    },
    {
      "midi": 57,
      "hit": false,
      "t": 94749.8578750001,
      "d": 1684.2080000000133,
      "v": 86
    },
    {
      "midi": 48,
      "hit": false,
      "t": 96434.06587500012,
      "d": 782.8935625000013,
      "v": 78
    },
    {
      "midi": 60,
      "hit": false,
      "t": 96638.01293750011,
      "d": 1499.997750000024,
      "v": 96
    },
    {
      "midi": 48,
      "hit": false,
      "t": 97940.64256250013,
      "d": 243.42068750000908,
      "v": 81
    },
    {
      "midi": 57,
      "hit": false,
      "t": 98131.43175000013,
      "d": 164.4734374999971,
      "v": 84
    },
    {
      "midi": 48,
      "hit": false,
      "t": 98322.22093750013,
      "d": 197.36812500000815,
      "v": 89
    },
    {
      "midi": 57,
      "hit": false,
      "t": 98532.74693750014,
      "d": 1697.3658750000031,
      "v": 86
    },
    {
      "midi": 41,
      "hit": false,
      "t": 98539.32587500014,
      "d": 1407.8926250000077,
      "v": 81
    },
    {
      "midi": 53,
      "hit": false,
      "t": 98545.90481250014,
      "d": 1598.681812499999,
      "v": 98
    },
    {
      "midi": 53,
      "hit": false,
      "t": 100414.32306250015,
      "d": 697.3673750000016,
      "v": 123
    },
    {
      "midi": 41,
      "hit": false,
      "t": 100427.48093750015,
      "d": 638.1569374999963,
      "v": 93
    },
    {
      "midi": 57,
      "hit": false,
      "t": 101032.74318750015,
      "d": 710.525250000006,
      "v": 93
    },
    {
      "midi": 45,
      "hit": false,
      "t": 101059.05893750014,
      "d": 638.1569375000108,
      "v": 74
    },
    {
      "midi": 46,
      "hit": false,
      "t": 101684.05800000015,
      "d": 624.9990625000064,
      "v": 86
    },
    {
      "midi": 58,
      "hit": false,
      "t": 101697.21587500015,
      "d": 171.0523749999993,
      "v": 96
    },
    {
      "midi": 55,
      "hit": false,
      "t": 102322.21493750016,
      "d": 677.6305625000095,
      "v": 74
    },
    {
      "midi": 60,
      "hit": false,
      "t": 102335.37281250017,
      "d": 703.9463125000038,
      "v": 74
    },
    {
      "midi": 64,
      "hit": false,
      "t": 102348.53068750017,
      "d": 723.6831249999959,
      "v": 70
    },
    {
      "midi": 48,
      "hit": false,
      "t": 102355.10962500017,
      "d": 980.2616874999949,
      "v": 74
    },
    {
      "midi": 48,
      "hit": false,
      "t": 103618.26562500016,
      "d": 1513.1556249999994,
      "v": 84
    },
    {
      "midi": 62,
      "hit": false,
      "t": 103907.73887500016,
      "d": 72.36831249999523,
      "v": 69
    },
    {
      "midi": 67,
      "hit": false,
      "t": 103947.21250000015,
      "d": 1394.7347500000033,
      "v": 74
    },
    {
      "midi": 64,
      "hit": false,
      "t": 103999.84400000016,
      "d": 1407.8926249999931,
      "v": 89
    },
    {
      "midi": 62,
      "hit": false,
      "t": 104078.79125000015,
      "d": 105.26299999999173,
      "v": 89
    },
    {
      "midi": 60,
      "hit": false,
      "t": 104203.79106250015,
      "d": 1164.4719374999986,
      "v": 86
    },
    {
      "midi": 50,
      "hit": false,
      "t": 105887.99906250015,
      "d": 203.9470624999958,
      "v": 89
    },
    {
      "midi": 55,
      "hit": false,
      "t": 106098.52506250015,
      "d": 1032.8931875000126,
      "v": 86
    },
    {
      "midi": 62,
      "hit": false,
      "t": 106111.68293750015,
      "d": 1190.787687499993,
      "v": 72
    },
    {
      "midi": 58,
      "hit": false,
      "t": 106118.26187500016,
      "d": 1151.3140624999942,
      "v": 93
    },
    {
      "midi": 43,
      "hit": false,
      "t": 106124.84081250016,
      "d": 730.2620624999981,
      "v": 96
    },
    {
      "midi": 67,
      "hit": false,
      "t": 106124.84081250016,
      "d": 953.9459375000006,
      "v": 86
    },
    {
      "midi": 43,
      "hit": false,
      "t": 107157.73400000016,
      "d": 611.841187500002,
      "v": 93
    },
    {
      "midi": 67,
      "hit": false,
      "t": 107401.15468750015,
      "d": 217.10493750000023,
      "v": 109
    },
    {
      "midi": 62,
      "hit": false,
      "t": 107591.94387500016,
      "d": 243.42068750000908,
      "v": 93
    },
    {
      "midi": 58,
      "hit": false,
      "t": 107776.15412500016,
      "d": 1440.7873125000187,
      "v": 89
    },
    {
      "midi": 62,
      "hit": false,
      "t": 107980.10118750017,
      "d": 1230.2613125000062,
      "v": 86
    },
    {
      "midi": 66,
      "hit": false,
      "t": 107993.25906250018,
      "d": 1059.2089375000069,
      "v": 81
    },
    {
      "midi": 43,
      "hit": false,
      "t": 108006.41693750018,
      "d": 993.4195624999993,
      "v": 81
    },
    {
      "midi": 66,
      "hit": false,
      "t": 109262.99400000018,
      "d": 236.84175000000687,
      "v": 96
    },
    {
      "midi": 43,
      "hit": false,
      "t": 109276.15187500019,
      "d": 447.3677500000049,
      "v": 81
    },
    {
      "midi": 62,
      "hit": false,
      "t": 109460.36212500019,
      "d": 296.0521874999977,
      "v": 86
    },
    {
      "midi": 58,
      "hit": false,
      "t": 109677.46706250019,
      "d": 131.57875000000058,
      "v": 89
    },
    {
      "midi": 43,
      "hit": false,
      "t": 109894.57200000019,
      "d": 907.8933749999997,
      "v": 86
    },
    {
      "midi": 62,
      "hit": false,
      "t": 109894.57200000019,
      "d": 1315.7874999999913,
      "v": 76
    },
    {
      "midi": 65,
      "hit": false,
      "t": 109901.15093750019,
      "d": 1282.8928124999948,
      "v": 84
    },
    {
      "midi": 58,
      "hit": false,
      "t": 109907.7298750002,
      "d": 1309.208562499989,
      "v": 78
    },
    {
      "midi": 43,
      "hit": false,
      "t": 111177.46481250018,
      "d": 585.5254375000077,
      "v": 93
    },
    {
      "midi": 65,
      "hit": false,
      "t": 111341.93825000018,
      "d": 105.26300000000629,
      "v": 84
    },
    {
      "midi": 62,
      "hit": false,
      "t": 111341.93825000018,
      "d": 124.99981250001292,
      "v": 84
    },
    {
      "midi": 58,
      "hit": false,
      "t": 111348.51718750018,
      "d": 249.9996250000113,
      "v": 86
    },
    {
      "midi": 64,
      "hit": false,
      "t": 111809.04281250019,
      "d": 1105.2615000000078,
      "v": 81
    },
    {
      "midi": 52,
      "hit": false,
      "t": 111809.04281250019,
      "d": 1690.7869375000155,
      "v": 69
    },
    {
      "midi": 60,
      "hit": false,
      "t": 111815.6217500002,
      "d": 1138.1561875000043,
      "v": 89
    },
    {
      "midi": 55,
      "hit": false,
      "t": 111822.2006875002,
      "d": 1092.1036250000034,
      "v": 78
    },
    {
      "midi": 64,
      "hit": false,
      "t": 113026.1462500002,
      "d": 230.26281250000466,
      "v": 114
    },
    {
      "midi": 60,
      "hit": false,
      "t": 113039.3041250002,
      "d": 315.7890000000043,
      "v": 93
    },
    {
      "midi": 55,
      "hit": false,
      "t": 113052.4620000002,
      "d": 243.42068749999453,
      "v": 98
    },
    {
      "midi": 62,
      "hit": false,
      "t": 113440.6193125002,
      "d": 124.99981249999837,
      "v": 84
    },
    {
      "midi": 50,
      "hit": false,
      "t": 113486.6718750002,
      "d": 184.21025000000373,
      "v": 89
    },
    {
      "midi": 60,
      "hit": false,
      "t": 113684.04000000021,
      "d": 1236.8402499999938,
      "v": 93
    },
    {
      "midi": 55,
      "hit": false,
      "t": 113703.77681250022,
      "d": 1019.7353124999936,
      "v": 84
    },
    {
      "midi": 48,
      "hit": false,
      "t": 113710.35575000022,
      "d": 1473.6819999999861,
      "v": 86
    },
    {
      "midi": 55,
      "hit": false,
      "t": 114947.1960000002,
      "d": 98.68406250000407,
      "v": 89
    },
    {
      "midi": 48,
      "hit": false,
      "t": 115361.66906250021,
      "d": 730.2620625000127,
      "v": 93
    },
    {
      "midi": 60,
      "hit": false,
      "t": 115585.35293750021,
      "d": 1499.9977500000095,
      "v": 93
    },
    {
      "midi": 55,
      "hit": false,
      "t": 115605.08975000022,
      "d": 1421.0504999999976,
      "v": 102
    },
    {
      "midi": 52,
      "hit": false,
      "t": 115605.08975000022,
      "d": 1434.208375000002,
      "v": 72
    },
    {
      "midi": 48,
      "hit": false,
      "t": 117256.40306250022,
      "d": 72.36831249999523,
      "v": 78
    },
    {
      "midi": 46,
      "hit": false,
      "t": 117348.50818750022,
      "d": 92.10512500000186,
      "v": 81
    },
    {
      "midi": 45,
      "hit": false,
      "t": 117460.35012500023,
      "d": 1894.7340000000113,
      "v": 78
    },
    {
      "midi": 53,
      "hit": false,
      "t": 117512.98162500023,
      "d": 1138.1561875000043,
      "v": 89
    },
    {
      "midi": 57,
      "hit": false,
      "t": 117512.98162500023,
      "d": 1342.1032500000001,
      "v": 104
    },
    {
      "midi": 55,
      "hit": false,
      "t": 119157.71600000023,
      "d": 72.36831250000978,
      "v": 78
    },
    {
      "midi": 60,
      "hit": false,
      "t": 119170.87387500024,
      "d": 1289.471749999997,
      "v": 78
    },
    {
      "midi": 57,
      "hit": false,
      "t": 119230.08431250024,
      "d": 1263.1559999999881,
      "v": 89
    },
    {
      "midi": 55,
      "hit": false,
      "t": 119269.55793750024,
      "d": 105.26300000000629,
      "v": 81
    },
    {
      "midi": 41,
      "hit": false,
      "t": 119368.24200000025,
      "d": 1309.208562499989,
      "v": 78
    },
    {
      "midi": 53,
      "hit": false,
      "t": 119401.13668750024,
      "d": 999.9985000000015,
      "v": 93
    },
    {
      "midi": 41,
      "hit": false,
      "t": 121032.71318750024,
      "d": 138.1576875000028,
      "v": 78
    },
    {
      "midi": 48,
      "hit": false,
      "t": 121262.97600000024,
      "d": 78.94725000001199,
      "v": 86
    },
    {
      "midi": 53,
      "hit": false,
      "t": 121262.97600000024,
      "d": 578.94650000002,
      "v": 102
    },
    {
      "midi": 57,
      "hit": false,
      "t": 121269.55493750024,
      "d": 598.6833125000121,
      "v": 96
    },
    {
      "midi": 60,
      "hit": false,
      "t": 121315.60750000025,
      "d": 552.6307500000112,
      "v": 93
    },
    {
      "midi": 41,
      "hit": false,
      "t": 121335.34431250025,
      "d": 1671.0501249999943,
      "v": 93
    },
    {
      "midi": 65,
      "hit": false,
      "t": 121374.81793750025,
      "d": 532.8939375000045,
      "v": 89
    },
    {
      "midi": 48,
      "hit": false,
      "t": 122322.18493750025,
      "d": 749.9988749999902,
      "v": 104
    },
    {
      "midi": 69,
      "hit": false,
      "t": 122539.28987500025,
      "d": 151.31556250000722,
      "v": 93
    },
    {
      "midi": 65,
      "hit": false,
      "t": 122762.97375000025,
      "d": 118.42087499999616,
      "v": 81
    },
    {
      "midi": 60,
      "hit": false,
      "t": 122934.02612500025,
      "d": 98.68406249998952,
      "v": 84
    },
    {
      "midi": 69,
      "hit": false,
      "t": 123144.55212500023,
      "d": 1085.5246875000012,
      "v": 89
    },
    {
      "midi": 41,
      "hit": false,
      "t": 123164.28893750024,
      "d": 3381.5738749999873,
      "v": 89
    },
    {
      "midi": 72,
      "hit": false,
      "t": 123190.60468750024,
      "d": 993.4195624999993,
      "v": 78
    },
    {
      "midi": 48,
      "hit": false,
      "t": 124453.76068750024,
      "d": 124.99981249999837,
      "v": 93
    },
    {
      "midi": 69,
      "hit": false,
      "t": 124651.12881250023,
      "d": 157.89449999999488,
      "v": 93
    },
    {
      "midi": 72,
      "hit": false,
      "t": 124657.70775000023,
      "d": 78.94724999999744,
      "v": 86
    },
    {
      "midi": 70,
      "hit": false,
      "t": 124841.91800000022,
      "d": 230.26281250000466,
      "v": 89
    },
    {
      "midi": 67,
      "hit": false,
      "t": 124881.39162500022,
      "d": 138.1576875000028,
      "v": 70
    },
    {
      "midi": 65,
      "hit": false,
      "t": 125065.60187500023,
      "d": 1072.3668124999967,
      "v": 81
    },
    {
      "midi": 69,
      "hit": false,
      "t": 125072.18081250023,
      "d": 1203.9455624999973,
      "v": 86
    },
    {
      "midi": 48,
      "hit": false,
      "t": 126723.49412500023,
      "d": 197.36812500000815,
      "v": 89
    },
    {
      "midi": 60,
      "hit": false,
      "t": 126940.59906250025,
      "d": 611.841187500002,
      "v": 109
    },
    {
      "midi": 53,
      "hit": false,
      "t": 126947.17800000025,
      "d": 473.6834999999992,
      "v": 102
    },
    {
      "midi": 57,
      "hit": false,
      "t": 126947.17800000025,
      "d": 611.841187500002,
      "v": 98
    },
    {
      "midi": 41,
      "hit": false,
      "t": 126953.75693750025,
      "d": 552.6307499999966,
      "v": 89
    },
    {
      "midi": 58,
      "hit": false,
      "t": 127578.75600000026,
      "d": 631.5780000000086,
      "v": 102
    },
    {
      "midi": 55,
      "hit": false,
      "t": 127585.33493750026,
      "d": 776.3146249999991,
      "v": 98
    },
    {
      "midi": 43,
      "hit": false,
      "t": 127591.91387500026,
      "d": 651.3148125000007,
      "v": 111
    },
    {
      "midi": 60,
      "hit": false,
      "t": 128197.17612500026,
      "d": 217.10493750000023,
      "v": 104
    },
    {
      "midi": 57,
      "hit": false,
      "t": 128203.75506250026,
      "d": 578.9464999999909,
      "v": 93
    },
    {
      "midi": 45,
      "hit": false,
      "t": 128210.33400000026,
      "d": 651.3148125000007,
      "v": 107
    },
    {
      "midi": 62,
      "hit": false,
      "t": 128795.85943750026,
      "d": 717.1041875000083,
      "v": 84
    },
    {
      "midi": 58,
      "hit": false,
      "t": 128815.59625000026,
      "d": 651.3148125000007,
      "v": 78
    },
    {
      "midi": 46,
      "hit": false,
      "t": 128848.49093750026,
      "d": 5197.360625000059,
      "v": 96
    },
    {
      "midi": 53,
      "hit": false,
      "t": 128855.06987500026,
      "d": 519.7360625000001,
      "v": 89
    },
    {
      "midi": 72,
      "hit": false,
      "t": 130506.38318750027,
      "d": 78.94725000001199,
      "v": 81
    },
    {
      "midi": 77,
      "hit": false,
      "t": 130526.12000000027,
      "d": 151.31556250000722,
      "v": 78
    },
    {
      "midi": 74,
      "hit": false,
      "t": 130598.48831250028,
      "d": 999.9985000000015,
      "v": 107
    },
    {
      "midi": 72,
      "hit": false,
      "t": 130690.59343750028,
      "d": 78.94724999999744,
      "v": 96
    },
    {
      "midi": 77,
      "hit": false,
      "t": 130743.22493750029,
      "d": 809.2093124999956,
      "v": 78
    },
    {
      "midi": 70,
      "hit": false,
      "t": 130782.69856250029,
      "d": 796.0514375000057,
      "v": 114
    },
    {
      "midi": 60,
      "hit": false,
      "t": 132355.0646250003,
      "d": 85.5261875000142,
      "v": 78
    },
    {
      "midi": 65,
      "hit": false,
      "t": 132394.5382500003,
      "d": 1585.5239375000237,
      "v": 74
    },
    {
      "midi": 62,
      "hit": false,
      "t": 132466.9065625003,
      "d": 1526.3135000000184,
      "v": 93
    },
    {
      "midi": 60,
      "hit": false,
      "t": 132506.38018750033,
      "d": 98.68406249998952,
      "v": 86
    },
    {
      "midi": 58,
      "hit": false,
      "t": 132644.53787500033,
      "d": 1506.5766874999972,
      "v": 84
    },
    {
      "midi": 46,
      "hit": false,
      "t": 134348.48268750033,
      "d": 85.5261875000142,
      "v": 104
    },
    {
      "midi": 46,
      "hit": false,
      "t": 134532.69293750034,
      "d": 1440.7873124999169,
      "v": 102
    },
    {
      "midi": 62,
      "hit": false,
      "t": 134539.27187500033,
      "d": 572.3675624999742,
      "v": 127
    },
    {
      "midi": 58,
      "hit": false,
      "t": 134545.8508125003,
      "d": 651.3148124999716,
      "v": 98
    },
    {
      "midi": 64,
      "hit": false,
      "t": 135144.5341250003,
      "d": 565.7886249999865,
      "v": 93
    },
    {
      "midi": 60,
      "hit": false,
      "t": 135151.11306250028,
      "d": 651.3148124999716,
      "v": 116
    },
    {
      "midi": 65,
      "hit": false,
      "t": 135776.11212500028,
      "d": 171.0523749999702,
      "v": 89
    },
    {
      "midi": 62,
      "hit": false,
      "t": 135782.69106250026,
      "d": 230.26281250000466,
      "v": 96
    },
    {
      "midi": 48,
      "hit": false,
      "t": 136394.53225000025,
      "d": 407.8941249999916,
      "v": 81
    },
    {
      "midi": 64,
      "hit": false,
      "t": 136394.53225000025,
      "d": 789.4725000000035,
      "v": 78
    },
    {
      "midi": 60,
      "hit": false,
      "t": 136401.11118750024,
      "d": 776.3146250000282,
      "v": 86
    },
    {
      "midi": 55,
      "hit": false,
      "t": 136414.26906250024,
      "d": 723.6831250000105,
      "v": 81
    },
    {
      "midi": 63,
      "hit": false,
      "t": 137914.26681250025,
      "d": 59.21043749997625,
      "v": 81
    },
    {
      "midi": 67,
      "hit": false,
      "t": 137920.84575000024,
      "d": 46.05256250000093,
      "v": 81
    },
    {
      "midi": 64,
      "hit": false,
      "t": 137927.42468750023,
      "d": 39.47362500001327,
      "v": 70
    },
    {
      "midi": 62,
      "hit": false,
      "t": 138111.63493750023,
      "d": 111.84193749999395,
      "v": 72
    },
    {
      "midi": 65,
      "hit": false,
      "t": 138111.63493750023,
      "d": 138.1576875000028,
      "v": 86
    },
    {
      "midi": 64,
      "hit": false,
      "t": 138322.16093750024,
      "d": 1006.5774375000037,
      "v": 96
    },
    {
      "midi": 60,
      "hit": false,
      "t": 138335.31881250025,
      "d": 993.4195624999993,
      "v": 89
    },
    {
      "midi": 64,
      "hit": false,
      "t": 139828.73762500024,
      "d": 171.0523749999993,
      "v": 93
    },
    {
      "midi": 55,
      "hit": false,
      "t": 139841.89550000025,
      "d": 190.78918749999139,
      "v": 96
    },
    {
      "midi": 62,
      "hit": false,
      "t": 140032.68468750024,
      "d": 171.0523749999702,
      "v": 70
    },
    {
      "midi": 53,
      "hit": false,
      "t": 140039.26362500023,
      "d": 249.99962499999674,
      "v": 98
    },
    {
      "midi": 60,
      "hit": false,
      "t": 140243.21068750022,
      "d": 1368.4189999999944,
      "v": 86
    },
    {
      "midi": 52,
      "hit": false,
      "t": 140262.9475000002,
      "d": 3203.942562499986,
      "v": 76
    },
    {
      "midi": 72,
      "hit": false,
      "t": 141697.15587500023,
      "d": 171.0523749999993,
      "v": 96
    },
    {
      "midi": 67,
      "hit": false,
      "t": 141901.10293750023,
      "d": 177.63131249998696,
      "v": 98
    },
    {
      "midi": 64,
      "hit": false,
      "t": 142111.6289375002,
      "d": 592.1043749999953,
      "v": 81
    },
    {
      "midi": 60,
      "hit": false,
      "t": 142710.3122500002,
      "d": 1072.3668124999967,
      "v": 86
    },
    {
      "midi": 58,
      "hit": false,
      "t": 143815.57375000019,
      "d": 217.10493750000023,
      "v": 93
    },
    {
      "midi": 55,
      "hit": false,
      "t": 143999.7840000002,
      "d": 1671.0501250000088,
      "v": 96
    },
    {
      "midi": 64,
      "hit": false,
      "t": 143999.7840000002,
      "d": 1684.2080000000133,
      "v": 89
    },
    {
      "midi": 60,
      "hit": false,
      "t": 143999.7840000002,
      "d": 1736.8395000000019,
      "v": 93
    },
    {
      "midi": 48,
      "hit": false,
      "t": 143999.7840000002,
      "d": 3223.679375000007,
      "v": 98
    },
    {
      "midi": 60,
      "hit": false,
      "t": 145907.6758750002,
      "d": 1177.629812500003,
      "v": 93
    },
    {
      "midi": 58,
      "hit": false,
      "t": 147585.3049375002,
      "d": 210.52599999998347,
      "v": 98
    },
    {
      "midi": 57,
      "hit": false,
      "t": 147789.25200000018,
      "d": 1138.1561874999898,
      "v": 89
    },
    {
      "midi": 41,
      "hit": false,
      "t": 147808.98881250017,
      "d": 1223.682375000004,
      "v": 81
    },
    {
      "midi": 52,
      "hit": false,
      "t": 149730.03856250018,
      "d": 190.7891875000205,
      "v": 102
    },
    {
      "midi": 36,
      "hit": false,
      "t": 149743.19643750018,
      "d": 592.1043750000244,
      "v": 96
    },
    {
      "midi": 48,
      "hit": false,
      "t": 149953.7224375002,
      "d": 243.42068750000908,
      "v": 93
    },
    {
      "midi": 52,
      "hit": false,
      "t": 150137.9326875002,
      "d": 118.42087500001071,
      "v": 96
    },
    {
      "midi": 53,
      "hit": false,
      "t": 150328.72187500022,
      "d": 223.6838749999879,
      "v": 109
    },
    {
      "midi": 38,
      "hit": false,
      "t": 150341.8797500002,
      "d": 671.0516250000219,
      "v": 104
    },
    {
      "midi": 50,
      "hit": false,
      "t": 150552.4057500002,
      "d": 230.26281250000466,
      "v": 102
    },
    {
      "midi": 53,
      "hit": false,
      "t": 150736.6160000002,
      "d": 105.26300000000629,
      "v": 107
    },
    {
      "midi": 55,
      "hit": false,
      "t": 150953.7209375002,
      "d": 223.6838749999588,
      "v": 102
    },
    {
      "midi": 40,
      "hit": false,
      "t": 150980.03668750022,
      "d": 565.7886249999865,
      "v": 102
    },
    {
      "midi": 52,
      "hit": false,
      "t": 151170.82587500018,
      "d": 309.2100625000021,
      "v": 93
    },
    {
      "midi": 55,
      "hit": false,
      "t": 151335.29931250017,
      "d": 118.42087500001071,
      "v": 89
    },
    {
      "midi": 41,
      "hit": false,
      "t": 151565.5621250002,
      "d": 5638.14943749996,
      "v": 93
    },
    {
      "midi": 57,
      "hit": false,
      "t": 151585.2989375002,
      "d": 460.5256249999802,
      "v": 89
    },
    {
      "midi": 53,
      "hit": false,
      "t": 151591.87787500018,
      "d": 460.5256249999802,
      "v": 96
    },
    {
      "midi": 53,
      "hit": false,
      "t": 152835.29706250015,
      "d": 118.42087500001071,
      "v": 109
    },
    {
      "midi": 57,
      "hit": false,
      "t": 152966.87581250016,
      "d": 131.57874999998603,
      "v": 89
    },
    {
      "midi": 60,
      "hit": false,
      "t": 153078.71775000016,
      "d": 138.1576875000028,
      "v": 89
    },
    {
      "midi": 65,
      "hit": false,
      "t": 153236.61225000015,
      "d": 230.26281250000466,
      "v": 78
    },
    {
      "midi": 64,
      "hit": false,
      "t": 153407.66462500015,
      "d": 1177.6298125000321,
      "v": 98
    },
    {
      "midi": 48,
      "hit": false,
      "t": 153453.71718750015,
      "d": 1453.9451875000377,
      "v": 93
    },
    {
      "midi": 53,
      "hit": false,
      "t": 154736.6100000002,
      "d": 98.68406249998952,
      "v": 93
    },
    {
      "midi": 57,
      "hit": false,
      "t": 154881.34662500018,
      "d": 197.36812500000815,
      "v": 86
    },
    {
      "midi": 60,
      "hit": false,
      "t": 155019.50431250018,
      "d": 124.99981249999837,
      "v": 74
    },
    {
      "midi": 64,
      "hit": false,
      "t": 155124.7673125002,
      "d": 210.52599999998347,
      "v": 78
    },
    {
      "midi": 62,
      "hit": false,
      "t": 155295.8196875002,
      "d": 1223.6823749999749,
      "v": 89
    },
    {
      "midi": 48,
      "hit": false,
      "t": 156657.65975000017,
      "d": 532.89393749999,
      "v": 89
    },
    {
      "midi": 53,
      "hit": false,
      "t": 156861.60681250016,
      "d": 111.84193749999395,
      "v": 86
    },
    {
      "midi": 57,
      "hit": false,
      "t": 157012.92237500017,
      "d": 144.73662499999045,
      "v": 78
    },
    {
      "midi": 64,
      "hit": false,
      "t": 157223.44837500015,
      "d": 605.2622499999998,
      "v": 127
    },
    {
      "midi": 57,
      "hit": false,
      "t": 157223.44837500015,
      "d": 1302.6296250000305,
      "v": 102
    },
    {
      "midi": 45,
      "hit": false,
      "t": 157230.02731250014,
      "d": 1881.5761250000214,
      "v": 93
    },
    {
      "midi": 65,
      "hit": false,
      "t": 157887.92106250016,
      "d": 578.94650000002,
      "v": 86
    },
    {
      "midi": 64,
      "hit": false,
      "t": 158532.65693750017,
      "d": 592.1043749999953,
      "v": 86
    },
    {
      "midi": 62,
      "hit": false,
      "t": 159144.49812500016,
      "d": 1453.9451874999795,
      "v": 84
    },
    {
      "midi": 46,
      "hit": false,
      "t": 159151.07706250015,
      "d": 2940.7850624999846,
      "v": 93
    },
    {
      "midi": 58,
      "hit": false,
      "t": 159177.39281250015,
      "d": 1026.3142499999958,
      "v": 81
    },
    {
      "midi": 60,
      "hit": false,
      "t": 160808.96931250015,
      "d": 39.47362500001327,
      "v": 81
    },
    {
      "midi": 62,
      "hit": false,
      "t": 160855.02187500015,
      "d": 124.99981249999837,
      "v": 78
    },
    {
      "midi": 60,
      "hit": false,
      "t": 160947.12700000015,
      "d": 157.89449999999488,
      "v": 96
    },
    {
      "midi": 58,
      "hit": false,
      "t": 161078.70575000014,
      "d": 1309.208562499989,
      "v": 93
    },
    {
      "midi": 46,
      "hit": false,
      "t": 162289.23025000014,
      "d": 2118.4178749999846,
      "v": 89
    },
    {
      "midi": 58,
      "hit": false,
      "t": 162539.22987500014,
      "d": 46.05256250000093,
      "v": 74
    },
    {
      "midi": 62,
      "hit": false,
      "t": 162953.70293750011,
      "d": 184.21025000000373,
      "v": 124
    },
    {
      "midi": 58,
      "hit": false,
      "t": 163164.22893750013,
      "d": 197.36812499997905,
      "v": 96
    },
    {
      "midi": 62,
      "hit": false,
      "t": 163341.8602500001,
      "d": 118.4208749999816,
      "v": 114
    },
    {
      "midi": 64,
      "hit": false,
      "t": 163565.5441250001,
      "d": 171.0523749999993,
      "v": 127
    },
    {
      "midi": 60,
      "hit": false,
      "t": 163789.2280000001,
      "d": 157.89449999999488,
      "v": 98
    },
    {
      "midi": 64,
      "hit": false,
      "t": 163986.5961250001,
      "d": 151.31556250000722,
      "v": 107
    },
    {
      "midi": 65,
      "hit": false,
      "t": 164203.7010625001,
      "d": 210.52600000001257,
      "v": 109
    },
    {
      "midi": 62,
      "hit": false,
      "t": 164420.8060000001,
      "d": 184.21025000000373,
      "v": 89
    },
    {
      "midi": 65,
      "hit": false,
      "t": 164605.0162500001,
      "d": 171.0523749999993,
      "v": 98
    },
    {
      "midi": 55,
      "hit": false,
      "t": 164841.85800000007,
      "d": 717.1041874999937,
      "v": 89
    },
    {
      "midi": 60,
      "hit": false,
      "t": 164841.85800000007,
      "d": 743.4199374999735,
      "v": 93
    },
    {
      "midi": 64,
      "hit": false,
      "t": 164841.85800000007,
      "d": 782.8935624999867,
      "v": 84
    },
    {
      "midi": 48,
      "hit": false,
      "t": 164841.85800000007,
      "d": 2710.52224999998,
      "v": 93
    },
    {
      "midi": 64,
      "hit": false,
      "t": 166322.11893750005,
      "d": 85.5261874999851,
      "v": 104
    },
    {
      "midi": 67,
      "hit": false,
      "t": 166328.69787500004,
      "d": 59.210437500005355,
      "v": 84
    },
    {
      "midi": 62,
      "hit": false,
      "t": 166493.17131250005,
      "d": 157.89449999999488,
      "v": 81
    },
    {
      "midi": 65,
      "hit": false,
      "t": 166519.48706250006,
      "d": 144.73662499999045,
      "v": 78
    },
    {
      "midi": 64,
      "hit": false,
      "t": 166736.59200000006,
      "d": 881.5776250000054,
      "v": 81
    },
    {
      "midi": 60,
      "hit": false,
      "t": 166743.17093750005,
      "d": 848.6829375000088,
      "v": 86
    },
    {
      "midi": 52,
      "hit": false,
      "t": 168137.90568750005,
      "d": 85.5261875000142,
      "v": 84
    },
    {
      "midi": 54,
      "hit": false,
      "t": 168210.27400000006,
      "d": 65.78937499999302,
      "v": 96
    },
    {
      "midi": 64,
      "hit": false,
      "t": 168269.48443750007,
      "d": 184.21024999997462,
      "v": 93
    },
    {
      "midi": 55,
      "hit": false,
      "t": 168289.22125000006,
      "d": 177.63131249998696,
      "v": 102
    },
    {
      "midi": 62,
      "hit": false,
      "t": 168440.53681250004,
      "d": 249.99962499999674,
      "v": 81
    },
    {
      "midi": 53,
      "hit": false,
      "t": 168480.01043750005,
      "d": 217.10493749997113,
      "v": 98
    },
    {
      "midi": 52,
      "hit": false,
      "t": 168670.79962500004,
      "d": 3026.3112499999697,
      "v": 86
    },
    {
      "midi": 60,
      "hit": false,
      "t": 168683.95750000005,
      "d": 1309.208562499989,
      "v": 81
    },
    {
      "midi": 72,
      "hit": false,
      "t": 170144.48162500004,
      "d": 171.0523749999993,
      "v": 98
    },
    {
      "midi": 67,
      "hit": false,
      "t": 170341.84975000005,
      "d": 190.78918749999139,
      "v": 109
    },
    {
      "midi": 64,
      "hit": false,
      "t": 170552.37575000004,
      "d": 605.2622499999998,
      "v": 98
    },
    {
      "midi": 60,
      "hit": false,
      "t": 171164.21693750002,
      "d": 236.84174999999232,
      "v": 98
    },
    {
      "midi": 60,
      "hit": false,
      "t": 172230.0048125,
      "d": 157.89449999999488,
      "v": 93
    },
    {
      "midi": 48,
      "hit": false,
      "t": 172308.9520625,
      "d": 92.10512500000186,
      "v": 81
    },
    {
      "midi": 58,
      "hit": false,
      "t": 172322.1099375,
      "d": 98.68406249996042,
      "v": 86
    },
    {
      "midi": 41,
      "hit": false,
      "t": 172407.636125,
      "d": 1999.9969999999448,
      "v": 84
    },
    {
      "midi": 57,
      "hit": false,
      "t": 172414.21506249998,
      "d": 1467.103062499984,
      "v": 84
    },
    {
      "midi": 60,
      "hit": false,
      "t": 174085.26518749996,
      "d": 138.1576875000028,
      "v": 74
    },
    {
      "midi": 57,
      "hit": false,
      "t": 174164.21243749995,
      "d": 138.1576875000028,
      "v": 74
    },
    {
      "midi": 55,
      "hit": false,
      "t": 174243.15968749995,
      "d": 78.94724999999744,
      "v": 74
    },
    {
      "midi": 53,
      "hit": false,
      "t": 174328.68587499994,
      "d": 526.3150000000314,
      "v": 102
    },
    {
      "midi": 36,
      "hit": false,
      "t": 174749.73787499996,
      "d": 243.42068750000908,
      "v": 111
    },
    {
      "midi": 38,
      "hit": false,
      "t": 174933.94812499997,
      "d": 657.8937499999884,
      "v": 93
    },
    {
      "midi": 40,
      "hit": false,
      "t": 175572.10506249996,
      "d": 644.7358749999548,
      "v": 86
    },
    {
      "midi": 48,
      "hit": false,
      "t": 176203.68306249994,
      "d": 480.2624374999723,
      "v": 78
    },
    {
      "midi": 57,
      "hit": false,
      "t": 176203.68306249994,
      "d": 532.8939374999609,
      "v": 74
    },
    {
      "midi": 41,
      "hit": false,
      "t": 176203.68306249994,
      "d": 4907.887374999933,
      "v": 78
    },
    {
      "midi": 53,
      "hit": false,
      "t": 176210.26199999993,
      "d": 493.4203124999767,
      "v": 86
    },
    {
      "midi": 53,
      "hit": false,
      "t": 177453.68118749993,
      "d": 124.99981249999837,
      "v": 102
    },
    {
      "midi": 57,
      "hit": false,
      "t": 177664.20718749994,
      "d": 1414.4715624999662,
      "v": 93
    },
    {
      "midi": 65,
      "hit": false,
      "t": 177887.89106249993,
      "d": 131.57874999998603,
      "v": 89
    },
    {
      "midi": 64,
      "hit": false,
      "t": 178085.2591874999,
      "d": 809.2093124999956,
      "v": 107
    },
    {
      "midi": 57,
      "hit": false,
      "t": 179368.1519999999,
      "d": 217.10493750000023,
      "v": 107
    },
    {
      "midi": 60,
      "hit": false,
      "t": 179598.41481249992,
      "d": 157.89449999999488,
      "v": 96
    },
    {
      "midi": 64,
      "hit": false,
      "t": 179769.46718749992,
      "d": 276.3153749999765,
      "v": 81
    },
    {
      "midi": 62,
      "hit": false,
      "t": 180006.3089374999,
      "d": 1348.6821874999732,
      "v": 93
    },
    {
      "midi": 64,
      "hit": false,
      "t": 181901.04293749988,
      "d": 624.9990624999627,
      "v": 127
    },
    {
      "midi": 45,
      "hit": false,
      "t": 181907.62187499987,
      "d": 1861.8393124999711,
      "v": 96
    },
    {
      "midi": 60,
      "hit": false,
      "t": 181914.20081249985,
      "d": 638.1569374999963,
      "v": 113
    },
    {
      "midi": 62,
      "hit": false,
      "t": 182512.88412499987,
      "d": 585.5254374999786,
      "v": 96
    },
    {
      "midi": 65,
      "hit": false,
      "t": 182519.46306249985,
      "d": 644.7358749999839,
      "v": 96
    },
    {
      "midi": 60,
      "hit": false,
      "t": 183124.72531249985,
      "d": 453.94668749999255,
      "v": 81
    },
    {
      "midi": 64,
      "hit": false,
      "t": 183137.88318749986,
      "d": 611.8411874999874,
      "v": 81
    },
    {
      "midi": 46,
      "hit": false,
      "t": 183802.35587499983,
      "d": 4822.36118749989,
      "v": 89
    },
    {
      "midi": 62,
      "hit": false,
      "t": 183808.93481249982,
      "d": 999.9984999999579,
      "v": 74
    },
    {
      "midi": 58,
      "hit": false,
      "t": 183822.0926874998,
      "d": 1019.735312499979,
      "v": 81
    },
    {
      "midi": 64,
      "hit": false,
      "t": 185453.66918749976,
      "d": 72.36831249998068,
      "v": 93
    },
    {
      "midi": 60,
      "hit": false,
      "t": 185486.56387499976,
      "d": 32.89468749999651,
      "v": 70
    },
    {
      "midi": 62,
      "hit": false,
      "t": 185657.61624999976,
      "d": 723.6831249999814,
      "v": 76
    },
    {
      "midi": 58,
      "hit": false,
      "t": 185664.19518749975,
      "d": 743.4199375000026,
      "v": 74
    },
    {
      "midi": 53,
      "hit": false,
      "t": 187354.98212499975,
      "d": 1078.9457499999844,
      "v": 86
    },
    {
      "midi": 58,
      "hit": false,
      "t": 187473.40299999976,
      "d": 993.4195624999702,
      "v": 81
    },
    {
      "midi": 62,
      "hit": false,
      "t": 187618.13962499975,
      "d": 657.8937499999884,
      "v": 96
    },
    {
      "midi": 70,
      "hit": false,
      "t": 187808.92881249974,
      "d": 401.31518750000396,
      "v": 107
    },
    {
      "midi": 72,
      "hit": false,
      "t": 188243.13868749974,
      "d": 624.9990624999919,
      "v": 107
    },
    {
      "midi": 64,
      "hit": false,
      "t": 188256.29656249975,
      "d": 611.8411874999874,
      "v": 104
    },
    {
      "midi": 74,
      "hit": false,
      "t": 188841.82199999972,
      "d": 651.3148125000007,
      "v": 98
    },
    {
      "midi": 65,
      "hit": false,
      "t": 188874.71668749972,
      "d": 611.8411875000165,
      "v": 93
    },
    {
      "midi": 64,
      "hit": false,
      "t": 189473.39999999973,
      "d": 1203.9455624999828,
      "v": 111
    },
    {
      "midi": 72,
      "hit": false,
      "t": 189473.39999999973,
      "d": 1256.5770624999714,
      "v": 107
    },
    {
      "midi": 76,
      "hit": false,
      "t": 191223.3973749997,
      "d": 1138.1561874999898,
      "v": 96
    },
    {
      "midi": 72,
      "hit": false,
      "t": 191341.81824999972,
      "d": 1052.6299999999756,
      "v": 89
    },
    {
      "midi": 67,
      "hit": false,
      "t": 191420.76549999972,
      "d": 993.4195624999702,
      "v": 81
    },
    {
      "midi": 62,
      "hit": false,
      "t": 193039.18412499968,
      "d": 138.1576875000028,
      "v": 84
    },
    {
      "midi": 67,
      "hit": false,
      "t": 193052.34199999968,
      "d": 1874.9971875000047,
      "v": 78
    },
    {
      "midi": 64,
      "hit": false,
      "t": 193164.18393749968,
      "d": 1763.1552500000107,
      "v": 89
    },
    {
      "midi": 62,
      "hit": false,
      "t": 193210.23649999968,
      "d": 124.99981249999837,
      "v": 69
    },
    {
      "midi": 60,
      "hit": false,
      "t": 193335.23631249968,
      "d": 1598.681812499999,
      "v": 93
    },
    {
      "midi": 60,
      "hit": false,
      "t": 195157.60199999966,
      "d": 1342.1032499999856,
      "v": 84
    },
    {
      "midi": 55,
      "hit": false,
      "t": 195157.60199999966,
      "d": 1374.997937499982,
      "v": 102
    },
    {
      "midi": 36,
      "hit": false,
      "t": 195157.60199999966,
      "d": 1730.260562499985,
      "v": 86
    },
    {
      "midi": 52,
      "hit": false,
      "t": 195164.18093749965,
      "d": 1342.1032499999856,
      "v": 70
    },
    {
      "midi": 57,
      "hit": false,
      "t": 197091.80962499965,
      "d": 1046.051062499988,
      "v": 81
    },
    {
      "midi": 53,
      "hit": false,
      "t": 197098.38856249963,
      "d": 1013.1563749999914,
      "v": 81
    },
    {
      "midi": 41,
      "hit": false,
      "t": 197137.86218749965,
      "d": 921.0512499999895,
      "v": 78
    },
    {
      "midi": 52,
      "hit": false,
      "t": 198973.38574999964,
      "d": 624.9990624999919,
      "v": 109
    },
    {
      "midi": 60,
      "hit": false,
      "t": 198979.96468749963,
      "d": 723.6831249999814,
      "v": 127
    },
    {
      "midi": 53,
      "hit": false,
      "t": 199604.96374999962,
      "d": 585.5254374999786,
      "v": 114
    },
    {
      "midi": 62,
      "hit": false,
      "t": 199604.96374999962,
      "d": 638.1569374999963,
      "v": 127
    },
    {
      "midi": 55,
      "hit": false,
      "t": 200203.6470624996,
      "d": 697.3673750000307,
      "v": 109
    },
    {
      "midi": 64,
      "hit": false,
      "t": 200203.6470624996,
      "d": 703.9463125000184,
      "v": 116
    },
    {
      "midi": 65,
      "hit": false,
      "t": 200841.80399999963,
      "d": 1151.3140624999942,
      "v": 107
    },
    {
      "midi": 57,
      "hit": false,
      "t": 200841.80399999963,
      "d": 1947.3654999999853,
      "v": 93
    },
    {
      "midi": 72,
      "hit": false,
      "t": 202144.43362499963,
      "d": 171.0523749999993,
      "v": 98
    },
    {
      "midi": 69,
      "hit": false,
      "t": 202335.22281249962,
      "d": 164.47343750001164,
      "v": 111
    },
    {
      "midi": 65,
      "hit": false,
      "t": 202519.43306249962,
      "d": 282.89431249999325,
      "v": 86
    },
    {
      "midi": 55,
      "hit": false,
      "t": 202736.53799999962,
      "d": 1934.2076249999518,
      "v": 102
    },
    {
      "midi": 64,
      "hit": false,
      "t": 202749.69587499963,
      "d": 1210.5244999999704,
      "v": 111
    },
    {
      "midi": 72,
      "hit": false,
      "t": 204012.8518749996,
      "d": 243.42068750000908,
      "v": 93
    },
    {
      "midi": 69,
      "hit": false,
      "t": 204216.79893749958,
      "d": 184.21025000000373,
      "v": 70
    },
    {
      "midi": 64,
      "hit": false,
      "t": 204394.4302499996,
      "d": 236.84174999999232,
      "v": 86
    },
    {
      "midi": 53,
      "hit": false,
      "t": 204651.00881249958,
      "d": 1381.5768749999988,
      "v": 98
    },
    {
      "midi": 62,
      "hit": false,
      "t": 204664.1666874996,
      "d": 1328.9453749999811,
      "v": 93
    },
    {
      "midi": 64,
      "hit": false,
      "t": 206526.0059999996,
      "d": 703.9463124999602,
      "v": 114
    },
    {
      "midi": 60,
      "hit": false,
      "t": 206545.74281249958,
      "d": 631.5779999999795,
      "v": 89
    },
    {
      "midi": 57,
      "hit": false,
      "t": 206545.74281249958,
      "d": 1796.049937499949,
      "v": 84
    },
    {
      "midi": 65,
      "hit": false,
      "t": 207157.58399999957,
      "d": 664.472687499976,
      "v": 96
    },
    {
      "midi": 62,
      "hit": false,
      "t": 207164.16293749955,
      "d": 638.1569374999963,
      "v": 89
    },
    {
      "midi": 60,
      "hit": false,
      "t": 207822.05668749954,
      "d": 368.42049999997835,
      "v": 98
    },
    {
      "midi": 64,
      "hit": false,
      "t": 207822.05668749954,
      "d": 565.7886249999865,
      "v": 86
    },
    {
      "midi": 62,
      "hit": false,
      "t": 208387.84531249953,
      "d": 999.9985000000161,
      "v": 84
    },
    {
      "midi": 58,
      "hit": false,
      "t": 208401.00318749953,
      "d": 980.261687500024,
      "v": 89
    },
    {
      "midi": 65,
      "hit": false,
      "t": 210052.31649999955,
      "d": 1585.5239374999655,
      "v": 78
    },
    {
      "midi": 60,
      "hit": false,
      "t": 210072.05331249954,
      "d": 65.78937499999302,
      "v": 74
    },
    {
      "midi": 62,
      "hit": false,
      "t": 210144.42162499952,
      "d": 1493.4188124999928,
      "v": 86
    },
    {
      "midi": 60,
      "hit": false,
      "t": 210223.36887499952,
      "d": 85.5261875000142,
      "v": 78
    },
    {
      "midi": 58,
      "hit": false,
      "t": 210315.47399999952,
      "d": 1328.9453749999811,
      "v": 107
    },
    {
      "midi": 67,
      "hit": false,
      "t": 212243.10268749952,
      "d": 901.3144375000265,
      "v": 98
    },
    {
      "midi": 60,
      "hit": false,
      "t": 212243.10268749952,
      "d": 1006.5774375000328,
      "v": 84
    },
    {
      "midi": 64,
      "hit": false,
      "t": 212243.10268749952,
      "d": 1013.1563750000205,
      "v": 86
    },
    {
      "midi": 62,
      "hit": false,
      "t": 213887.83706249954,
      "d": 177.63131250001607,
      "v": 89
    },
    {
      "midi": 65,
      "hit": false,
      "t": 213900.99493749955,
      "d": 177.63131250001607,
      "v": 93
    },
    {
      "midi": 64,
      "hit": false,
      "t": 214111.52093749956,
      "d": 1723.6816249999683,
      "v": 86
    },
    {
      "midi": 60,
      "hit": false,
      "t": 214118.09987499955,
      "d": 1684.2079999999842,
      "v": 84
    },
    {
      "midi": 62,
      "hit": false,
      "t": 215802.30787499953,
      "d": 190.78918749999139,
      "v": 98
    },
    {
      "midi": 53,
      "hit": false,
      "t": 215808.88681249952,
      "d": 217.10493750000023,
      "v": 98
    },
    {
      "midi": 52,
      "hit": false,
      "t": 215993.09706249952,
      "d": 2256.5755624999874,
      "v": 96
    },
    {
      "midi": 60,
      "hit": false,
      "t": 216006.25493749953,
      "d": 1407.8926250000077,
      "v": 93
    },
    {
      "midi": 55,
      "hit": false,
      "t": 217683.88399999953,
      "d": 296.0521874999977,
      "v": 93
    },
    {
      "midi": 57,
      "hit": false,
      "t": 217900.98893749953,
      "d": 671.0516249999928,
      "v": 102
    },
    {
      "midi": 58,
      "hit": false,
      "t": 218578.6194999995,
      "d": 980.2616874999949,
      "v": 89
    },
    {
      "midi": 57,
      "hit": false,
      "t": 219545.7233124995,
      "d": 98.68406250001863,
      "v": 81
    },
    {
      "midi": 55,
      "hit": false,
      "t": 219657.56524999952,
      "d": 197.36812500000815,
      "v": 86
    },
    {
      "midi": 53,
      "hit": false,
      "t": 219822.03868749953,
      "d": 1677.6290624999965,
      "v": 98
    },
    {
      "midi": 37,
      "hit": false,
      "t": 221710.1937499995,
      "d": 72.36831250000978,
      "v": 86
    },
    {
      "midi": 36,
      "hit": false,
      "t": 221723.35162499952,
      "d": 59.210437500005355,
      "v": 70
    },
    {
      "midi": 38,
      "hit": false,
      "t": 222335.19281249953,
      "d": 105.26300000000629,
      "v": 96
    },
    {
      "midi": 40,
      "hit": false,
      "t": 222933.87612499954,
      "d": 118.42087500001071,
      "v": 96
    },
    {
      "midi": 53,
      "hit": false,
      "t": 223420.71749999956,
      "d": 855.2618749999965,
      "v": 89
    },
    {
      "midi": 57,
      "hit": false,
      "t": 223479.92793749957,
      "d": 842.1039999999921,
      "v": 107
    },
    {
      "midi": 60,
      "hit": false,
      "t": 223532.55943749956,
      "d": 782.8935625000158,
      "v": 86
    },
    {
      "midi": 65,
      "hit": false,
      "t": 223572.03306249957,
      "d": 763.1567499999946,
      "v": 98
    },
    {
      "midi": 41,
      "hit": false,
      "t": 224822.03118749955,
      "d": 190.78918749999139,
      "v": 93
    },
    {
      "midi": 65,
      "hit": false,
      "t": 225045.71506249954,
      "d": 171.0523749999993,
      "v": 93
    },
    {
      "midi": 57,
      "hit": false,
      "t": 225058.87293749955,
      "d": 138.1576875000028,
      "v": 76
    },
    {
      "midi": 60,
      "hit": false,
      "t": 225058.87293749955,
      "d": 144.73662499999045,
      "v": 102
    },
    {
      "midi": 41,
      "hit": false,
      "t": 225256.24106249955,
      "d": 1105.2614999999641,
      "v": 89
    },
    {
      "midi": 57,
      "hit": false,
      "t": 225460.18812499955,
      "d": 1328.945374999952,
      "v": 72
    },
    {
      "midi": 64,
      "hit": false,
      "t": 225466.76706249954,
      "d": 1302.6296249999723,
      "v": 86
    },
    {
      "midi": 60,
      "hit": false,
      "t": 225473.34599999952,
      "d": 1315.7874999999767,
      "v": 93
    },
    {
      "midi": 41,
      "hit": false,
      "t": 226756.2388124995,
      "d": 118.42087500001071,
      "v": 93
    },
    {
      "midi": 57,
      "hit": false,
      "t": 226947.02799999953,
      "d": 105.26299999997718,
      "v": 69
    },
    {
      "midi": 64,
      "hit": false,
      "t": 226947.02799999953,
      "d": 138.1576874999737,
      "v": 81
    },
    {
      "midi": 60,
      "hit": false,
      "t": 226953.6069374995,
      "d": 138.1576874999737,
      "v": 93
    },
    {
      "midi": 41,
      "hit": false,
      "t": 227183.8697499995,
      "d": 98.68406249998952,
      "v": 84
    },
    {
      "midi": 57,
      "hit": false,
      "t": 227374.65893749948,
      "d": 1105.2614999999641,
      "v": 84
    },
    {
      "midi": 62,
      "hit": false,
      "t": 227387.81681249948,
      "d": 1236.8402499999502,
      "v": 104
    },
    {
      "midi": 41,
      "hit": false,
      "t": 227394.39574999947,
      "d": 1322.3664374999644,
      "v": 93
    },
    {
      "midi": 57,
      "hit": false,
      "t": 228637.81493749944,
      "d": 164.47343750001164,
      "v": 70
    },
    {
      "midi": 41,
      "hit": false,
      "t": 229039.13012499944,
      "d": 171.0523749999993,
      "v": 93
    },
    {
      "midi": 64,
      "hit": false,
      "t": 229262.81399999943,
      "d": 690.7884374999558,
      "v": 96
    },
    {
      "midi": 57,
      "hit": false,
      "t": 229269.39293749942,
      "d": 1723.6816249999683,
      "v": 102
    },
    {
      "midi": 45,
      "hit": false,
      "t": 229275.9718749994,
      "d": 1835.5235624999914,
      "v": 96
    },
    {
      "midi": 65,
      "hit": false,
      "t": 229887.8130624994,
      "d": 638.1569374999963,
      "v": 102
    },
    {
      "midi": 64,
      "hit": false,
      "t": 230539.1278749994,
      "d": 638.1569374999963,
      "v": 98
    },
    {
      "midi": 62,
      "hit": false,
      "t": 231137.8111874994,
      "d": 756.577812500007,
      "v": 89
    },
    {
      "midi": 46,
      "hit": false,
      "t": 231137.8111874994,
      "d": 3552.626249999943,
      "v": 86
    },
    {
      "midi": 58,
      "hit": false,
      "t": 231157.5479999994,
      "d": 677.6305625000095,
      "v": 81
    },
    {
      "midi": 72,
      "hit": false,
      "t": 232782.5455624994,
      "d": 72.36831249998068,
      "v": 93
    },
    {
      "midi": 77,
      "hit": false,
      "t": 232789.1244999994,
      "d": 1309.20856249996,
      "v": 98
    },
    {
      "midi": 74,
      "hit": false,
      "t": 232887.80856249938,
      "d": 1230.2613124999625,
      "v": 93
    },
    {
      "midi": 72,
      "hit": false,
      "t": 232940.44006249937,
      "d": 92.10512500000186,
      "v": 98
    },
    {
      "midi": 70,
      "hit": false,
      "t": 233039.12412499936,
      "d": 1105.2614999999932,
      "v": 104
    },
    {
      "midi": 60,
      "hit": false,
      "t": 234703.59531249935,
      "d": 197.36812499997905,
      "v": 93
    },
    {
      "midi": 65,
      "hit": false,
      "t": 234723.33212499935,
      "d": 1894.7339999999385,
      "v": 78
    },
    {
      "midi": 55,
      "hit": false,
      "t": 234947.01599999933,
      "d": 690.7884374999849,
      "v": 96
    },
    {
      "midi": 60,
      "hit": false,
      "t": 234947.01599999933,
      "d": 723.6831249999814,
      "v": 86
    },
    {
      "midi": 64,
      "hit": false,
      "t": 234947.01599999933,
      "d": 743.4199374999735,
      "v": 98
    },
    {
      "midi": 48,
      "hit": false,
      "t": 234953.59493749932,
      "d": 1578.9449999999779,
      "v": 98
    },
    {
      "midi": 62,
      "hit": false,
      "t": 236598.3293124993,
      "d": 19.736812499992084,
      "v": 86
    },
    {
      "midi": 67,
      "hit": false,
      "t": 236624.64506249927,
      "d": 1032.8931875000126,
      "v": 81
    },
    {
      "midi": 48,
      "hit": false,
      "t": 236637.80293749928,
      "d": 894.7355000000098,
      "v": 98
    },
    {
      "midi": 64,
      "hit": false,
      "t": 236677.2765624993,
      "d": 1032.8931874999835,
      "v": 98
    },
    {
      "midi": 60,
      "hit": false,
      "t": 236835.17106249928,
      "d": 881.5776249999763,
      "v": 111
    },
    {
      "midi": 62,
      "hit": false,
      "t": 238111.48493749925,
      "d": 78.94724999999744,
      "v": 98
    },
    {
      "midi": 55,
      "hit": false,
      "t": 238137.80068749926,
      "d": 374.9994374999951,
      "v": 93
    },
    {
      "midi": 64,
      "hit": false,
      "t": 238183.85324999926,
      "d": 335.52581249998184,
      "v": 89
    },
    {
      "midi": 62,
      "hit": false,
      "t": 238512.80012499925,
      "d": 177.63131249998696,
      "v": 84
    },
    {
      "midi": 53,
      "hit": false,
      "t": 238519.37906249924,
      "d": 203.9470624999958,
      "v": 96
    },
    {
      "midi": 60,
      "hit": false,
      "t": 238710.16824999923,
      "d": 1644.734375,
      "v": 86
    },
    {
      "midi": 52,
      "hit": false,
      "t": 238710.16824999923,
      "d": 3092.100624999992,
      "v": 96
    },
    {
      "midi": 60,
      "hit": false,
      "t": 240414.11306249924,
      "d": 184.21025000000373,
      "v": 93
    },
    {
      "midi": 60,
      "hit": false,
      "t": 241282.53281249924,
      "d": 960.5248749999737,
      "v": 102
    },
    {
      "midi": 58,
      "hit": false,
      "t": 242302.26812499922,
      "d": 210.52600000001257,
      "v": 70
    },
    {
      "midi": 41,
      "hit": false,
      "t": 242525.95199999923,
      "d": 993.4195624999993,
      "v": 107
    },
    {
      "midi": 57,
      "hit": false,
      "t": 242525.95199999923,
      "d": 1019.7353125000081,
      "v": 127
    },
    {
      "midi": 53,
      "hit": false,
      "t": 242525.95199999923,
      "d": 1039.4721250000002,
      "v": 102
    },
    {
      "midi": 53,
      "hit": false,
      "t": 243782.52906249923,
      "d": 111.84193749999395,
      "v": 102
    },
    {
      "midi": 57,
      "hit": false,
      "t": 243782.52906249923,
      "d": 124.99981249999837,
      "v": 102
    },
    {
      "midi": 41,
      "hit": false,
      "t": 243795.68693749924,
      "d": 236.84174999999232,
      "v": 104
    },
    {
      "midi": 55,
      "hit": false,
      "t": 243979.89718749924,
      "d": 105.26300000000629,
      "v": 93
    },
    {
      "midi": 58,
      "hit": false,
      "t": 243986.47612499923,
      "d": 105.26300000000629,
      "v": 89
    },
    {
      "midi": 43,
      "hit": false,
      "t": 243993.05506249922,
      "d": 223.683875000017,
      "v": 102
    },
    {
      "midi": 60,
      "hit": false,
      "t": 244177.26531249925,
      "d": 85.5261874999851,
      "v": 93
    },
    {
      "midi": 57,
      "hit": false,
      "t": 244183.84424999924,
      "d": 111.84193749999395,
      "v": 111
    },
    {
      "midi": 45,
      "hit": false,
      "t": 244190.42318749923,
      "d": 210.52600000001257,
      "v": 93
    },
    {
      "midi": 62,
      "hit": false,
      "t": 244387.79131249923,
      "d": 1118.4193750000268,
      "v": 113
    },
    {
      "midi": 58,
      "hit": false,
      "t": 244400.94918749924,
      "d": 1092.103625000018,
      "v": 107
    },
    {
      "midi": 46,
      "hit": false,
      "t": 244420.68599999923,
      "d": 1032.8931875000126,
      "v": 93
    },
    {
      "midi": 58,
      "hit": false,
      "t": 245703.57881249927,
      "d": 144.73662500001956,
      "v": 102
    },
    {
      "midi": 46,
      "hit": false,
      "t": 245716.73668749927,
      "d": 171.0523750000284,
      "v": 102
    },
    {
      "midi": 57,
      "hit": false,
      "t": 245894.3679999993,
      "d": 111.84193749999395,
      "v": 96
    },
    {
      "midi": 60,
      "hit": false,
      "t": 245907.5258749993,
      "d": 85.5261874999851,
      "v": 84
    },
    {
      "midi": 45,
      "hit": false,
      "t": 245914.10481249928,
      "d": 164.47343750001164,
      "v": 98
    },
    {
      "midi": 55,
      "hit": false,
      "t": 246078.5782499993,
      "d": 92.10512500000186,
      "v": 86
    },
    {
      "midi": 58,
      "hit": false,
      "t": 246078.5782499993,
      "d": 197.36812500000815,
      "v": 98
    },
    {
      "midi": 43,
      "hit": false,
      "t": 246091.7361249993,
      "d": 217.10493750000023,
      "v": 96
    },
    {
      "midi": 57,
      "hit": false,
      "t": 246295.6831874993,
      "d": 697.3673750000016,
      "v": 78
    },
    {
      "midi": 53,
      "hit": false,
      "t": 246308.8410624993,
      "d": 723.6831249999814,
      "v": 96
    },
    {
      "midi": 41,
      "hit": false,
      "t": 246321.9989374993,
      "d": 736.8409999999858,
      "v": 96
    },
    {
      "midi": 64,
      "hit": false,
      "t": 247578.57599999927,
      "d": 197.36812499997905,
      "v": 93
    },
    {
      "midi": 60,
      "hit": false,
      "t": 247591.73387499928,
      "d": 184.21024999997462,
      "v": 86
    },
    {
      "midi": 36,
      "hit": false,
      "t": 247604.89174999928,
      "d": 131.57874999998603,
      "v": 89
    },
    {
      "midi": 55,
      "hit": false,
      "t": 247611.47068749927,
      "d": 131.57874999998603,
      "v": 78
    },
    {
      "midi": 65,
      "hit": false,
      "t": 248216.73293749924,
      "d": 1638.1554374999832,
      "v": 78
    },
    {
      "midi": 60,
      "hit": false,
      "t": 248223.31187499923,
      "d": 1690.7869374999718,
      "v": 86
    },
    {
      "midi": 57,
      "hit": false,
      "t": 248229.89081249922,
      "d": 1677.6290624999965,
      "v": 69
    },
    {
      "midi": 41,
      "hit": false,
      "t": 248236.4697499992,
      "d": 1763.1552500000107,
      "v": 86
    }
  ]
}