{
  "jsonPath": "Rock/Country Rock/Tracy Lawrence/renegades-rebels-and-rogues-lp-version.json",
  "path": "Rock\\Country Rock\\Tracy Lawrence\\Renegades_ Rebels and Rogues (LP Version).mid",
  "name": "Renegades_ Rebels and Rogues (LP Version)",
  "difficulty": "Advanced",
  "bpm": 154.000154000154,
  "notes": [
    {
      "midi": 43,
      "hit": false,
      "t": 3120.9384375,
      "d": 556.0059375000001,
      "v": 116
    },
    {
      "midi": 43,
      "hit": false,
      "t": 3705.3534375,
      "d": 556.0059375000001,
      "v": 114
    },
    {
      "midi": 43,
      "hit": false,
      "t": 4289.7684375,
      "d": 539.7721874999997,
      "v": 117
    },
    {
      "midi": 48,
      "hit": false,
      "t": 4874.1834375,
      "d": 231.3309374999999,
      "v": 127
    },
    {
      "midi": 47,
      "hit": false,
      "t": 5068.9884375,
      "d": 158.27906249999978,
      "v": 82
    },
    {
      "midi": 45,
      "hit": false,
      "t": 5263.7934374999995,
      "d": 198.86343750000015,
      "v": 110
    },
    {
      "midi": 47,
      "hit": false,
      "t": 5458.5984375,
      "d": 198.86343750000015,
      "v": 127
    },
    {
      "midi": 45,
      "hit": false,
      "t": 5653.4034375,
      "d": 133.92843749999975,
      "v": 116
    },
    {
      "midi": 41,
      "hit": false,
      "t": 5840.0915625,
      "d": 409.90218749999894,
      "v": 120
    },
    {
      "midi": 38,
      "hit": false,
      "t": 6229.7015624999985,
      "d": 190.74656250000044,
      "v": 105
    },
    {
      "midi": 45,
      "hit": false,
      "t": 6424.506562499999,
      "d": 77.11031249999996,
      "v": 105
    },
    {
      "midi": 47,
      "hit": false,
      "t": 6627.428437499999,
      "d": 190.74656250000044,
      "v": 118
    },
    {
      "midi": 45,
      "hit": false,
      "t": 6818.174999999999,
      "d": 32.467499999999745,
      "v": 80
    },
    {
      "midi": 48,
      "hit": false,
      "t": 7017.038437499999,
      "d": 178.57124999999996,
      "v": 116
    },
    {
      "midi": 45,
      "hit": false,
      "t": 7207.784999999999,
      "d": 36.5259374999996,
      "v": 76
    },
    {
      "midi": 47,
      "hit": false,
      "t": 7398.5315624999985,
      "d": 190.74656250000044,
      "v": 118
    },
    {
      "midi": 45,
      "hit": false,
      "t": 7593.336562499999,
      "d": 36.5259374999996,
      "v": 71
    },
    {
      "midi": 48,
      "hit": false,
      "t": 7792.199999999998,
      "d": 182.62968749999982,
      "v": 114
    },
    {
      "midi": 45,
      "hit": false,
      "t": 7982.9465624999975,
      "d": 36.5259374999996,
      "v": 79
    },
    {
      "midi": 47,
      "hit": false,
      "t": 8177.751562499997,
      "d": 215.09718749999865,
      "v": 114
    },
    {
      "midi": 45,
      "hit": false,
      "t": 8376.614999999996,
      "d": 36.52593749999869,
      "v": 76
    },
    {
      "midi": 48,
      "hit": false,
      "t": 8567.361562499995,
      "d": 190.74656250000044,
      "v": 102
    },
    {
      "midi": 45,
      "hit": false,
      "t": 8770.283437499995,
      "d": 85.22718750000058,
      "v": 127
    },
    {
      "midi": 41,
      "hit": false,
      "t": 8961.029999999995,
      "d": 275.9737499999974,
      "v": 127
    },
    {
      "midi": 45,
      "hit": false,
      "t": 9549.503437499992,
      "d": 44.64281250000022,
      "v": 107
    },
    {
      "midi": 47,
      "hit": false,
      "t": 9744.308437499993,
      "d": 215.09718749999956,
      "v": 122
    },
    {
      "midi": 45,
      "hit": false,
      "t": 9939.113437499993,
      "d": 44.6428124999984,
      "v": 93
    },
    {
      "midi": 48,
      "hit": false,
      "t": 10133.918437499991,
      "d": 215.09718749999956,
      "v": 116
    },
    {
      "midi": 45,
      "hit": false,
      "t": 10328.723437499992,
      "d": 44.6428124999984,
      "v": 94
    },
    {
      "midi": 47,
      "hit": false,
      "t": 10523.52843749999,
      "d": 215.09718749999956,
      "v": 116
    },
    {
      "midi": 45,
      "hit": false,
      "t": 10718.33343749999,
      "d": 44.6428124999984,
      "v": 104
    },
    {
      "midi": 36,
      "hit": false,
      "t": 10909.079999999989,
      "d": 190.74656250000044,
      "v": 112
    },
    {
      "midi": 48,
      "hit": false,
      "t": 10913.138437499989,
      "d": 190.74656250000044,
      "v": 112
    },
    {
      "midi": 37,
      "hit": false,
      "t": 11103.88499999999,
      "d": 190.74656250000044,
      "v": 112
    },
    {
      "midi": 49,
      "hit": false,
      "t": 11107.94343749999,
      "d": 190.74656250000044,
      "v": 105
    },
    {
      "midi": 50,
      "hit": false,
      "t": 11298.68999999999,
      "d": 361.2009374999998,
      "v": 110
    },
    {
      "midi": 38,
      "hit": false,
      "t": 11298.68999999999,
      "d": 385.5515624999989,
      "v": 112
    },
    {
      "midi": 48,
      "hit": false,
      "t": 11688.299999999988,
      "d": 129.8700000000008,
      "v": 112
    },
    {
      "midi": 47,
      "hit": false,
      "t": 11818.16999999999,
      "d": 129.8700000000008,
      "v": 104
    },
    {
      "midi": 45,
      "hit": false,
      "t": 11948.03999999999,
      "d": 129.8700000000008,
      "v": 96
    },
    {
      "midi": 41,
      "hit": false,
      "t": 12077.90999999999,
      "d": 385.55156249999345,
      "v": 93
    },
    {
      "midi": 45,
      "hit": false,
      "t": 12666.383437499984,
      "d": 85.22718750000058,
      "v": 96
    },
    {
      "midi": 47,
      "hit": false,
      "t": 12861.188437499985,
      "d": 190.74656250000044,
      "v": 107
    },
    {
      "midi": 48,
      "hit": false,
      "t": 13250.798437499985,
      "d": 215.09718749999956,
      "v": 122
    },
    {
      "midi": 45,
      "hit": false,
      "t": 13441.544999999986,
      "d": 52.75968749999993,
      "v": 68
    },
    {
      "midi": 47,
      "hit": false,
      "t": 13640.408437499986,
      "d": 231.3309375000008,
      "v": 107
    },
    {
      "midi": 45,
      "hit": false,
      "t": 13835.213437499986,
      "d": 73.05187500000102,
      "v": 87
    },
    {
      "midi": 45,
      "hit": false,
      "t": 14224.823437499987,
      "d": 89.28562500000044,
      "v": 86
    },
    {
      "midi": 47,
      "hit": false,
      "t": 14419.628437499987,
      "d": 142.04531250000036,
      "v": 110
    },
    {
      "midi": 48,
      "hit": false,
      "t": 14801.121562499988,
      "d": 247.56468750000022,
      "v": 116
    },
    {
      "midi": 45,
      "hit": false,
      "t": 14999.984999999988,
      "d": 52.75968749999993,
      "v": 67
    },
    {
      "midi": 47,
      "hit": false,
      "t": 15190.731562499988,
      "d": 211.0387499999997,
      "v": 118
    },
    {
      "midi": 45,
      "hit": false,
      "t": 15393.653437499988,
      "d": 97.40250000000015,
      "v": 90
    },
    {
      "midi": 45,
      "hit": false,
      "t": 15783.263437499989,
      "d": 89.28562500000044,
      "v": 86
    },
    {
      "midi": 47,
      "hit": false,
      "t": 15978.06843749999,
      "d": 142.04531250000036,
      "v": 110
    },
    {
      "midi": 48,
      "hit": false,
      "t": 16359.56156249999,
      "d": 206.98031249999804,
      "v": 116
    },
    {
      "midi": 45,
      "hit": false,
      "t": 16558.42499999999,
      "d": 52.75968749999811,
      "v": 68
    },
    {
      "midi": 47,
      "hit": false,
      "t": 16749.171562499985,
      "d": 211.0387499999997,
      "v": 118
    },
    {
      "midi": 45,
      "hit": false,
      "t": 16952.093437499985,
      "d": 97.40250000000015,
      "v": 90
    },
    {
      "midi": 52,
      "hit": false,
      "t": 17146.898437499985,
      "d": 324.674999999992,
      "v": 113
    },
    {
      "midi": 50,
      "hit": false,
      "t": 17532.449999999975,
      "d": 267.8568750000013,
      "v": 118
    },
    {
      "midi": 48,
      "hit": false,
      "t": 17926.118437499976,
      "d": 125.81156249999913,
      "v": 117
    },
    {
      "midi": 47,
      "hit": false,
      "t": 18055.988437499975,
      "d": 129.86999999999898,
      "v": 96
    },
    {
      "midi": 45,
      "hit": false,
      "t": 18177.741562499974,
      "d": 129.86999999999898,
      "v": 78
    },
    {
      "midi": 41,
      "hit": false,
      "t": 18311.669999999973,
      "d": 377.43468749999374,
      "v": 112
    },
    {
      "midi": 45,
      "hit": false,
      "t": 18900.143437499966,
      "d": 85.22718750000058,
      "v": 96
    },
    {
      "midi": 47,
      "hit": false,
      "t": 19094.948437499967,
      "d": 190.74656250000044,
      "v": 107
    },
    {
      "midi": 48,
      "hit": false,
      "t": 19484.558437499967,
      "d": 206.98031249999985,
      "v": 122
    },
    {
      "midi": 45,
      "hit": false,
      "t": 19675.304999999968,
      "d": 52.75968749999811,
      "v": 68
    },
    {
      "midi": 47,
      "hit": false,
      "t": 19874.168437499964,
      "d": 198.86343750000015,
      "v": 107
    },
    {
      "midi": 45,
      "hit": false,
      "t": 20068.973437499964,
      "d": 73.05187500000102,
      "v": 87
    },
    {
      "midi": 45,
      "hit": false,
      "t": 20458.583437499965,
      "d": 89.28562500000044,
      "v": 86
    },
    {
      "midi": 47,
      "hit": false,
      "t": 20653.388437499965,
      "d": 142.04531249999854,
      "v": 110
    },
    {
      "midi": 48,
      "hit": false,
      "t": 21034.881562499962,
      "d": 206.98031249999985,
      "v": 116
    },
    {
      "midi": 45,
      "hit": false,
      "t": 21233.744999999963,
      "d": 52.75968749999811,
      "v": 67
    },
    {
      "midi": 47,
      "hit": false,
      "t": 21424.49156249996,
      "d": 211.0387499999997,
      "v": 118
    },
    {
      "midi": 45,
      "hit": false,
      "t": 21627.41343749996,
      "d": 97.40250000000015,
      "v": 90
    },
    {
      "midi": 45,
      "hit": false,
      "t": 22017.02343749996,
      "d": 89.28562500000044,
      "v": 86
    },
    {
      "midi": 47,
      "hit": false,
      "t": 22211.82843749996,
      "d": 142.04531249999854,
      "v": 110
    },
    {
      "midi": 48,
      "hit": false,
      "t": 22593.321562499958,
      "d": 215.09718749999956,
      "v": 116
    },
    {
      "midi": 45,
      "hit": false,
      "t": 22792.184999999958,
      "d": 52.75968749999811,
      "v": 68
    },
    {
      "midi": 47,
      "hit": false,
      "t": 22982.931562499954,
      "d": 211.0387499999997,
      "v": 118
    },
    {
      "midi": 45,
      "hit": false,
      "t": 23185.853437499954,
      "d": 97.40250000000015,
      "v": 90
    },
    {
      "midi": 49,
      "hit": false,
      "t": 23766.209999999955,
      "d": 93.34406250000029,
      "v": 82
    },
    {
      "midi": 45,
      "hit": false,
      "t": 23766.209999999955,
      "d": 113.63624999999956,
      "v": 88
    },
    {
      "midi": 57,
      "hit": false,
      "t": 23766.209999999955,
      "d": 137.9868749999987,
      "v": 97
    },
    {
      "midi": 52,
      "hit": false,
      "t": 23766.209999999955,
      "d": 182.6296874999971,
      "v": 90
    },
    {
      "midi": 54,
      "hit": false,
      "t": 24155.819999999952,
      "d": 146.1037499999984,
      "v": 111
    },
    {
      "midi": 59,
      "hit": false,
      "t": 24159.878437499952,
      "d": 146.1037499999984,
      "v": 108
    },
    {
      "midi": 45,
      "hit": false,
      "t": 24159.878437499952,
      "d": 162.33749999999782,
      "v": 94
    },
    {
      "midi": 50,
      "hit": false,
      "t": 24167.995312499952,
      "d": 125.81156249999913,
      "v": 83
    },
    {
      "midi": 52,
      "hit": false,
      "t": 24354.68343749995,
      "d": 385.5515625000007,
      "v": 86
    },
    {
      "midi": 57,
      "hit": false,
      "t": 24354.68343749995,
      "d": 385.5515625000007,
      "v": 98
    },
    {
      "midi": 45,
      "hit": false,
      "t": 24358.74187499995,
      "d": 385.5515625000007,
      "v": 66
    },
    {
      "midi": 49,
      "hit": false,
      "t": 24370.91718749995,
      "d": 385.5515625000007,
      "v": 64
    },
    {
      "midi": 45,
      "hit": false,
      "t": 25133.90343749995,
      "d": 85.22718750000058,
      "v": 96
    },
    {
      "midi": 47,
      "hit": false,
      "t": 25328.70843749995,
      "d": 206.98031249999985,
      "v": 107
    },
    {
      "midi": 45,
      "hit": false,
      "t": 25519.45499999995,
      "d": 85.22718750000058,
      "v": 72
    },
    {
      "midi": 48,
      "hit": false,
      "t": 25718.31843749995,
      "d": 215.09718749999956,
      "v": 122
    },
    {
      "midi": 45,
      "hit": false,
      "t": 25909.06499999995,
      "d": 52.75968749999811,
      "v": 68
    },
    {
      "midi": 47,
      "hit": false,
      "t": 26107.928437499948,
      "d": 162.33750000000146,
      "v": 107
    },
    {
      "midi": 45,
      "hit": false,
      "t": 26302.73343749995,
      "d": 73.05187500000102,
      "v": 87
    },
    {
      "midi": 50,
      "hit": false,
      "t": 26684.22656249995,
      "d": 85.22718750000058,
      "v": 105
    },
    {
      "midi": 55,
      "hit": false,
      "t": 26684.22656249995,
      "d": 109.57781249999971,
      "v": 110
    },
    {
      "midi": 50,
      "hit": false,
      "t": 27268.64156249995,
      "d": 754.8693749999984,
      "v": 98
    },
    {
      "midi": 55,
      "hit": false,
      "t": 27268.64156249995,
      "d": 783.2784374999974,
      "v": 101
    },
    {
      "midi": 45,
      "hit": false,
      "t": 28250.783437499947,
      "d": 85.22718750000058,
      "v": 96
    },
    {
      "midi": 47,
      "hit": false,
      "t": 28445.588437499948,
      "d": 190.74656250000044,
      "v": 107
    },
    {
      "midi": 48,
      "hit": false,
      "t": 28835.19843749995,
      "d": 215.09718749999956,
      "v": 122
    },
    {
      "midi": 45,
      "hit": false,
      "t": 29025.94499999995,
      "d": 52.75968749999811,
      "v": 68
    },
    {
      "midi": 47,
      "hit": false,
      "t": 29224.808437499945,
      "d": 215.09718749999956,
      "v": 107
    },
    {
      "midi": 45,
      "hit": false,
      "t": 29419.613437499946,
      "d": 73.05187500000102,
      "v": 87
    },
    {
      "midi": 50,
      "hit": false,
      "t": 29809.223437499946,
      "d": 77.11031250000087,
      "v": 96
    },
    {
      "midi": 54,
      "hit": false,
      "t": 29809.223437499946,
      "d": 77.11031250000087,
      "v": 101
    },
    {
      "midi": 59,
      "hit": false,
      "t": 29809.223437499946,
      "d": 89.28562500000044,
      "v": 101
    },
    {
      "midi": 50,
      "hit": false,
      "t": 30389.579999999947,
      "d": 385.5515625000007,
      "v": 94
    },
    {
      "midi": 54,
      "hit": false,
      "t": 30393.638437499947,
      "d": 775.1615624999977,
      "v": 103
    },
    {
      "midi": 59,
      "hit": false,
      "t": 30393.638437499947,
      "d": 775.1615624999977,
      "v": 101
    },
    {
      "midi": 45,
      "hit": false,
      "t": 31367.663437499945,
      "d": 85.22718750000058,
      "v": 96
    },
    {
      "midi": 47,
      "hit": false,
      "t": 31562.468437499945,
      "d": 190.74656250000044,
      "v": 107
    },
    {
      "midi": 48,
      "hit": false,
      "t": 31952.078437499946,
      "d": 206.98031249999985,
      "v": 122
    },
    {
      "midi": 45,
      "hit": false,
      "t": 32142.824999999946,
      "d": 52.75968749999811,
      "v": 68
    },
    {
      "midi": 47,
      "hit": false,
      "t": 32341.688437499943,
      "d": 215.09718749999956,
      "v": 107
    },
    {
      "midi": 45,
      "hit": false,
      "t": 32536.493437499943,
      "d": 73.05187500000102,
      "v": 87
    },
    {
      "midi": 45,
      "hit": false,
      "t": 32926.10343749994,
      "d": 85.22718750000058,
      "v": 96
    },
    {
      "midi": 47,
      "hit": false,
      "t": 33120.908437499944,
      "d": 190.7465624999968,
      "v": 107
    },
    {
      "midi": 48,
      "hit": false,
      "t": 33510.51843749994,
      "d": 206.98031249999622,
      "v": 122
    },
    {
      "midi": 45,
      "hit": false,
      "t": 33701.264999999934,
      "d": 52.759687500001746,
      "v": 68
    },
    {
      "midi": 47,
      "hit": false,
      "t": 33900.12843749994,
      "d": 239.44781250000233,
      "v": 107
    },
    {
      "midi": 45,
      "hit": false,
      "t": 34094.93343749994,
      "d": 73.05187500000466,
      "v": 87
    },
    {
      "midi": 52,
      "hit": false,
      "t": 34484.543437499946,
      "d": 101.4609375,
      "v": 112
    },
    {
      "midi": 57,
      "hit": false,
      "t": 34484.543437499946,
      "d": 101.4609375,
      "v": 118
    },
    {
      "midi": 52,
      "hit": false,
      "t": 35064.89999999994,
      "d": 718.3434374999997,
      "v": 112
    },
    {
      "midi": 57,
      "hit": false,
      "t": 35064.89999999994,
      "d": 767.044687499998,
      "v": 114
    },
    {
      "midi": 45,
      "hit": false,
      "t": 36042.98343749994,
      "d": 44.64281250000204,
      "v": 107
    },
    {
      "midi": 47,
      "hit": false,
      "t": 36237.78843749994,
      "d": 206.9803125000035,
      "v": 122
    },
    {
      "midi": 45,
      "hit": false,
      "t": 36432.59343749994,
      "d": 44.64281250000204,
      "v": 93
    },
    {
      "midi": 48,
      "hit": false,
      "t": 36627.39843749994,
      "d": 206.9803125000035,
      "v": 116
    },
    {
      "midi": 45,
      "hit": false,
      "t": 36822.20343749994,
      "d": 44.64281250000204,
      "v": 94
    },
    {
      "midi": 47,
      "hit": false,
      "t": 37017.00843749994,
      "d": 206.9803125000035,
      "v": 116
    },
    {
      "midi": 45,
      "hit": false,
      "t": 37211.81343749994,
      "d": 44.64281250000204,
      "v": 104
    },
    {
      "midi": 36,
      "hit": false,
      "t": 37402.55999999995,
      "d": 190.74656250000407,
      "v": 112
    },
    {
      "midi": 48,
      "hit": false,
      "t": 37406.61843749995,
      "d": 190.74656250000407,
      "v": 112
    },
    {
      "midi": 37,
      "hit": false,
      "t": 37597.364999999954,
      "d": 190.74656250000407,
      "v": 112
    },
    {
      "midi": 49,
      "hit": false,
      "t": 37601.42343749996,
      "d": 190.74656250000407,
      "v": 105
    },
    {
      "midi": 50,
      "hit": false,
      "t": 37792.16999999996,
      "d": 361.20093749999796,
      "v": 110
    },
    {
      "midi": 38,
      "hit": false,
      "t": 37792.16999999996,
      "d": 385.5515624999971,
      "v": 112
    },
    {
      "midi": 48,
      "hit": false,
      "t": 38181.77999999996,
      "d": 129.87000000000262,
      "v": 112
    },
    {
      "midi": 47,
      "hit": false,
      "t": 38311.649999999965,
      "d": 129.87000000000262,
      "v": 104
    },
    {
      "midi": 45,
      "hit": false,
      "t": 38441.51999999997,
      "d": 129.87000000000262,
      "v": 96
    },
    {
      "midi": 41,
      "hit": false,
      "t": 38571.38999999997,
      "d": 385.5515624999971,
      "v": 93
    },
    {
      "midi": 62,
      "hit": false,
      "t": 38965.05843749997,
      "d": 361.20093749999796,
      "v": 114
    },
    {
      "midi": 55,
      "hit": false,
      "t": 38965.05843749997,
      "d": 381.4931250000009,
      "v": 114
    },
    {
      "midi": 59,
      "hit": false,
      "t": 38965.05843749997,
      "d": 385.55156250000437,
      "v": 105
    },
    {
      "midi": 55,
      "hit": false,
      "t": 39350.60999999997,
      "d": 957.7912499999948,
      "v": 104
    },
    {
      "midi": 62,
      "hit": false,
      "t": 39358.72687499997,
      "d": 917.2068749999962,
      "v": 104
    },
    {
      "midi": 59,
      "hit": false,
      "t": 39366.84374999997,
      "d": 925.3237499999959,
      "v": 104
    },
    {
      "midi": 55,
      "hit": false,
      "t": 40324.634999999966,
      "d": 560.0643750000017,
      "v": 107
    },
    {
      "midi": 62,
      "hit": false,
      "t": 40324.634999999966,
      "d": 560.0643750000017,
      "v": 103
    },
    {
      "midi": 60,
      "hit": false,
      "t": 40324.634999999966,
      "d": 568.1812500000015,
      "v": 105
    },
    {
      "midi": 64,
      "hit": false,
      "t": 40324.634999999966,
      "d": 568.1812500000015,
      "v": 108
    },
    {
      "midi": 60,
      "hit": false,
      "t": 40917.166874999966,
      "d": 365.25937500000146,
      "v": 107
    },
    {
      "midi": 64,
      "hit": false,
      "t": 40917.166874999966,
      "d": 365.25937500000146,
      "v": 107
    },
    {
      "midi": 55,
      "hit": false,
      "t": 40925.283749999966,
      "d": 324.6750000000029,
      "v": 107
    },
    {
      "midi": 59,
      "hit": false,
      "t": 41294.60156249997,
      "d": 397.72687500000757,
      "v": 90
    },
    {
      "midi": 62,
      "hit": false,
      "t": 41298.659999999974,
      "d": 357.14250000000175,
      "v": 102
    },
    {
      "midi": 55,
      "hit": false,
      "t": 41298.659999999974,
      "d": 365.25937500000146,
      "v": 90
    },
    {
      "midi": 55,
      "hit": false,
      "t": 41688.269999999975,
      "d": 365.25937500000873,
      "v": 90
    },
    {
      "midi": 59,
      "hit": false,
      "t": 41696.38687499998,
      "d": 365.25937500000146,
      "v": 90
    },
    {
      "midi": 62,
      "hit": false,
      "t": 41696.38687499998,
      "d": 365.25937500000146,
      "v": 90
    },
    {
      "midi": 57,
      "hit": false,
      "t": 42077.87999999998,
      "d": 389.6100000000006,
      "v": 102
    },
    {
      "midi": 50,
      "hit": false,
      "t": 42085.99687499998,
      "d": 340.9087500000023,
      "v": 102
    },
    {
      "midi": 54,
      "hit": false,
      "t": 42085.99687499998,
      "d": 357.14250000000175,
      "v": 102
    },
    {
      "midi": 54,
      "hit": false,
      "t": 42467.48999999998,
      "d": 1026.7846875000032,
      "v": 101
    },
    {
      "midi": 62,
      "hit": false,
      "t": 42467.48999999998,
      "d": 1026.7846875000032,
      "v": 116
    },
    {
      "midi": 57,
      "hit": false,
      "t": 42471.54843749999,
      "d": 1043.0184375000026,
      "v": 104
    },
    {
      "midi": 59,
      "hit": false,
      "t": 43603.852499999986,
      "d": 803.5706250000076,
      "v": 91
    },
    {
      "midi": 55,
      "hit": false,
      "t": 43806.774374999986,
      "d": 194.8050000000003,
      "v": 62
    },
    {
      "midi": 62,
      "hit": false,
      "t": 44029.98843749999,
      "d": 438.3112500000061,
      "v": 105
    },
    {
      "midi": 55,
      "hit": false,
      "t": 44034.04687499999,
      "d": 438.3112500000061,
      "v": 105
    },
    {
      "midi": 57,
      "hit": false,
      "t": 44419.5984375,
      "d": 324.6750000000029,
      "v": 90
    },
    {
      "midi": 54,
      "hit": false,
      "t": 44614.4034375,
      "d": 564.122812499998,
      "v": 84
    },
    {
      "midi": 57,
      "hit": false,
      "t": 44792.9746875,
      "d": 389.6100000000006,
      "v": 97
    },
    {
      "midi": 62,
      "hit": false,
      "t": 44801.0915625,
      "d": 369.3178124999977,
      "v": 122
    },
    {
      "midi": 55,
      "hit": false,
      "t": 45215.0521875,
      "d": 1245.9403125000026,
      "v": 97
    },
    {
      "midi": 59,
      "hit": false,
      "t": 45215.0521875,
      "d": 1254.0571875000023,
      "v": 104
    },
    {
      "midi": 62,
      "hit": false,
      "t": 45215.0521875,
      "d": 1258.1156250000058,
      "v": 110
    },
    {
      "midi": 62,
      "hit": false,
      "t": 46562.4534375,
      "d": 913.1484375,
      "v": 108
    },
    {
      "midi": 55,
      "hit": false,
      "t": 46562.4534375,
      "d": 921.2653124999997,
      "v": 95
    },
    {
      "midi": 60,
      "hit": false,
      "t": 46574.62875,
      "d": 900.9731249999968,
      "v": 102
    },
    {
      "midi": 64,
      "hit": false,
      "t": 46574.62875,
      "d": 917.2068749999962,
      "v": 98
    },
    {
      "midi": 59,
      "hit": false,
      "t": 47520.2446875,
      "d": 353.08406249999825,
      "v": 96
    },
    {
      "midi": 62,
      "hit": false,
      "t": 47520.2446875,
      "d": 361.20093749999796,
      "v": 104
    },
    {
      "midi": 55,
      "hit": false,
      "t": 47520.2446875,
      "d": 373.37625000000116,
      "v": 96
    },
    {
      "midi": 62,
      "hit": false,
      "t": 47897.67937500001,
      "d": 113.6362500000032,
      "v": 104
    },
    {
      "midi": 55,
      "hit": false,
      "t": 47897.67937500001,
      "d": 137.98687500000233,
      "v": 96
    },
    {
      "midi": 59,
      "hit": false,
      "t": 47897.67937500001,
      "d": 137.98687500000233,
      "v": 107
    },
    {
      "midi": 45,
      "hit": false,
      "t": 48340.04906250001,
      "d": 328.73343750002823,
      "v": 127
    },
    {
      "midi": 45,
      "hit": false,
      "t": 48713.42531250004,
      "d": 137.98687500000233,
      "v": 118
    },
    {
      "midi": 45,
      "hit": false,
      "t": 48916.34718750005,
      "d": 361.20093750003434,
      "v": 118
    },
    {
      "midi": 45,
      "hit": false,
      "t": 49310.01562500008,
      "d": 129.87000000000262,
      "v": 105
    },
    {
      "midi": 45,
      "hit": false,
      "t": 49484.52843750009,
      "d": 353.0840625000201,
      "v": 118
    },
    {
      "midi": 45,
      "hit": false,
      "t": 49886.31375000011,
      "d": 137.98687500000233,
      "v": 116
    },
    {
      "midi": 45,
      "hit": false,
      "t": 50077.060312500114,
      "d": 344.9671875000204,
      "v": 120
    },
    {
      "midi": 45,
      "hit": false,
      "t": 50466.67031250014,
      "d": 125.81156249999913,
      "v": 112
    },
    {
      "midi": 45,
      "hit": false,
      "t": 50657.41687500014,
      "d": 316.5581250000105,
      "v": 112
    },
    {
      "midi": 45,
      "hit": false,
      "t": 51030.79312500015,
      "d": 202.921875,
      "v": 116
    },
    {
      "midi": 57,
      "hit": false,
      "t": 51278.35781250015,
      "d": 85.22718750000058,
      "v": 115
    },
    {
      "midi": 62,
      "hit": false,
      "t": 51294.59156250015,
      "d": 52.759687500001746,
      "v": 115
    },
    {
      "midi": 66,
      "hit": false,
      "t": 51323.00062500015,
      "d": 97.40250000000378,
      "v": 38
    },
    {
      "midi": 62,
      "hit": false,
      "t": 51355.46812500015,
      "d": 77.11031250000815,
      "v": 118
    },
    {
      "midi": 57,
      "hit": false,
      "t": 51371.70187500015,
      "d": 48.70125000000553,
      "v": 117
    },
    {
      "midi": 50,
      "hit": false,
      "t": 51416.344687500154,
      "d": 1400.160937500019,
      "v": 110
    },
    {
      "midi": 57,
      "hit": false,
      "t": 51432.57843750016,
      "d": 1197.2390625000116,
      "v": 118
    },
    {
      "midi": 66,
      "hit": false,
      "t": 51436.636875000164,
      "d": 1176.9468750000015,
      "v": 127
    },
    {
      "midi": 62,
      "hit": false,
      "t": 51465.04593750017,
      "d": 1160.713125000002,
      "v": 112
    },
    {
      "midi": 55,
      "hit": false,
      "t": 52816.50562500017,
      "d": 101.46093750001455,
      "v": 26
    },
    {
      "midi": 59,
      "hit": false,
      "t": 52824.62250000017,
      "d": 93.34406250001484,
      "v": 109
    },
    {
      "midi": 62,
      "hit": false,
      "t": 52836.797812500175,
      "d": 73.05187500001193,
      "v": 117
    },
    {
      "midi": 67,
      "hit": false,
      "t": 52848.97312500018,
      "d": 36.52593750000233,
      "v": 121
    },
    {
      "midi": 67,
      "hit": false,
      "t": 52905.791250000184,
      "d": 81.16875000001164,
      "v": 119
    },
    {
      "midi": 62,
      "hit": false,
      "t": 52917.96656250019,
      "d": 64.93500000000495,
      "v": 117
    },
    {
      "midi": 59,
      "hit": false,
      "t": 52930.14187500019,
      "d": 48.701249999998254,
      "v": 118
    },
    {
      "midi": 59,
      "hit": false,
      "t": 52982.90156250019,
      "d": 1160.7131250000093,
      "v": 118
    },
    {
      "midi": 67,
      "hit": false,
      "t": 52991.0184375002,
      "d": 1152.5962500000023,
      "v": 123
    },
    {
      "midi": 62,
      "hit": false,
      "t": 52991.0184375002,
      "d": 1160.713125000002,
      "v": 117
    },
    {
      "midi": 57,
      "hit": false,
      "t": 54366.828750000204,
      "d": 93.34406250000757,
      "v": 115
    },
    {
      "midi": 62,
      "hit": false,
      "t": 54374.945625000204,
      "d": 68.99343750000116,
      "v": 113
    },
    {
      "midi": 66,
      "hit": false,
      "t": 54383.062500000204,
      "d": 48.701249999998254,
      "v": 121
    },
    {
      "midi": 50,
      "hit": false,
      "t": 54423.6468750002,
      "d": 1724.835937500029,
      "v": 53
    },
    {
      "midi": 66,
      "hit": false,
      "t": 54439.8806250002,
      "d": 81.16875000001892,
      "v": 116
    },
    {
      "midi": 62,
      "hit": false,
      "t": 54447.99750000021,
      "d": 68.99343750000844,
      "v": 118
    },
    {
      "midi": 57,
      "hit": false,
      "t": 54464.231250000215,
      "d": 36.52593750000233,
      "v": 118
    },
    {
      "midi": 62,
      "hit": false,
      "t": 54521.04937500022,
      "d": 1582.7906250000087,
      "v": 115
    },
    {
      "midi": 66,
      "hit": false,
      "t": 54525.107812500224,
      "d": 1594.9659375000047,
      "v": 123
    },
    {
      "midi": 57,
      "hit": false,
      "t": 54553.51687500023,
      "d": 1550.3231250000026,
      "v": 120
    },
    {
      "midi": 59,
      "hit": false,
      "t": 56310.82031250023,
      "d": 101.4609375,
      "v": 120
    },
    {
      "midi": 54,
      "hit": false,
      "t": 56322.995625000236,
      "d": 97.40249999999651,
      "v": 109
    },
    {
      "midi": 59,
      "hit": false,
      "t": 56874.94312500023,
      "d": 641.2331249999988,
      "v": 112
    },
    {
      "midi": 54,
      "hit": false,
      "t": 56874.94312500023,
      "d": 649.3499999999985,
      "v": 111
    },
    {
      "midi": 45,
      "hit": false,
      "t": 57690.68906250023,
      "d": 405.84375,
      "v": 116
    },
    {
      "midi": 50,
      "hit": false,
      "t": 57690.68906250023,
      "d": 405.84375,
      "v": 116
    },
    {
      "midi": 45,
      "hit": false,
      "t": 60779.16000000023,
      "d": 369.3178124999977,
      "v": 114
    },
    {
      "midi": 52,
      "hit": false,
      "t": 60779.16000000023,
      "d": 389.6100000000006,
      "v": 118
    },
    {
      "midi": 55,
      "hit": false,
      "t": 62317.30781250023,
      "d": 1696.4268750000047,
      "v": 104
    },
    {
      "midi": 59,
      "hit": false,
      "t": 62329.48312500023,
      "d": 1704.5437500000044,
      "v": 107
    },
    {
      "midi": 62,
      "hit": false,
      "t": 62349.775312500235,
      "d": 1708.6021875000006,
      "v": 105
    },
    {
      "midi": 48,
      "hit": false,
      "t": 64094.90343750024,
      "d": 223.2140625000029,
      "v": 120
    },
    {
      "midi": 47,
      "hit": false,
      "t": 64289.70843750024,
      "d": 174.51281250000466,
      "v": 82
    },
    {
      "midi": 45,
      "hit": false,
      "t": 64484.513437500245,
      "d": 174.51281249999738,
      "v": 110
    },
    {
      "midi": 47,
      "hit": false,
      "t": 64679.318437500246,
      "d": 211.0387499999997,
      "v": 127
    },
    {
      "midi": 45,
      "hit": false,
      "t": 64874.123437500246,
      "d": 150.16218749999825,
      "v": 116
    },
    {
      "midi": 41,
      "hit": false,
      "t": 65060.81156250025,
      "d": 409.90218750001077,
      "v": 120
    },
    {
      "midi": 38,
      "hit": false,
      "t": 65450.421562500254,
      "d": 190.74656250000407,
      "v": 105
    },
    {
      "midi": 45,
      "hit": false,
      "t": 65653.34343750025,
      "d": 44.64281249999476,
      "v": 107
    },
    {
      "midi": 47,
      "hit": false,
      "t": 65848.14843750025,
      "d": 182.6296874999971,
      "v": 122
    },
    {
      "midi": 45,
      "hit": false,
      "t": 66042.95343750024,
      "d": 44.64281249999476,
      "v": 93
    },
    {
      "midi": 48,
      "hit": false,
      "t": 66237.75843750023,
      "d": 206.98031249998894,
      "v": 116
    },
    {
      "midi": 45,
      "hit": false,
      "t": 66432.56343750023,
      "d": 44.64281249999476,
      "v": 94
    },
    {
      "midi": 47,
      "hit": false,
      "t": 66627.36843750022,
      "d": 215.09718749999593,
      "v": 116
    },
    {
      "midi": 45,
      "hit": false,
      "t": 66822.17343750021,
      "d": 44.64281250000931,
      "v": 104
    },
    {
      "midi": 36,
      "hit": false,
      "t": 67012.92000000022,
      "d": 190.74656250000407,
      "v": 112
    },
    {
      "midi": 48,
      "hit": false,
      "t": 67016.97843750022,
      "d": 190.74656250000407,
      "v": 112
    },
    {
      "midi": 37,
      "hit": false,
      "t": 67207.72500000022,
      "d": 190.74656250000407,
      "v": 112
    },
    {
      "midi": 49,
      "hit": false,
      "t": 67211.78343750023,
      "d": 190.74656250000407,
      "v": 105
    },
    {
      "midi": 50,
      "hit": false,
      "t": 67402.53000000023,
      "d": 361.20093750000524,
      "v": 110
    },
    {
      "midi": 38,
      "hit": false,
      "t": 67402.53000000023,
      "d": 385.55156250001164,
      "v": 112
    },
    {
      "midi": 48,
      "hit": false,
      "t": 67792.14000000025,
      "d": 129.86999999999534,
      "v": 112
    },
    {
      "midi": 47,
      "hit": false,
      "t": 67922.01000000024,
      "d": 129.86999999999534,
      "v": 104
    },
    {
      "midi": 45,
      "hit": false,
      "t": 68051.88000000024,
      "d": 129.86999999999534,
      "v": 96
    },
    {
      "midi": 41,
      "hit": false,
      "t": 68181.75000000023,
      "d": 385.55156249998254,
      "v": 93
    },
    {
      "midi": 45,
      "hit": false,
      "t": 68770.22343750022,
      "d": 85.22718750000058,
      "v": 96
    },
    {
      "midi": 47,
      "hit": false,
      "t": 68965.02843750022,
      "d": 190.74656250000407,
      "v": 107
    },
    {
      "midi": 48,
      "hit": false,
      "t": 69354.63843750022,
      "d": 223.2140625000029,
      "v": 122
    },
    {
      "midi": 45,
      "hit": false,
      "t": 69545.38500000023,
      "d": 52.759687500001746,
      "v": 68
    },
    {
      "midi": 47,
      "hit": false,
      "t": 69744.24843750022,
      "d": 190.74656250000407,
      "v": 107
    },
    {
      "midi": 45,
      "hit": false,
      "t": 69939.05343750023,
      "d": 73.05187500000466,
      "v": 87
    },
    {
      "midi": 45,
      "hit": false,
      "t": 70328.66343750023,
      "d": 89.28562500000407,
      "v": 86
    },
    {
      "midi": 47,
      "hit": false,
      "t": 70523.46843750024,
      "d": 142.04531250000582,
      "v": 110
    },
    {
      "midi": 48,
      "hit": false,
      "t": 70904.96156250025,
      "d": 198.8634374999965,
      "v": 116
    },
    {
      "midi": 45,
      "hit": false,
      "t": 71103.82500000024,
      "d": 52.759687500001746,
      "v": 67
    },
    {
      "midi": 47,
      "hit": false,
      "t": 71294.57156250025,
      "d": 211.03875000000698,
      "v": 118
    },
    {
      "midi": 45,
      "hit": false,
      "t": 71497.49343750025,
      "d": 97.40250000001106,
      "v": 90
    },
    {
      "midi": 45,
      "hit": false,
      "t": 71887.10343750026,
      "d": 89.28562500000407,
      "v": 86
    },
    {
      "midi": 47,
      "hit": false,
      "t": 72081.90843750027,
      "d": 142.04531250000582,
      "v": 110
    },
    {
      "midi": 48,
      "hit": false,
      "t": 72463.40156250028,
      "d": 182.6296874999971,
      "v": 116
    },
    {
      "midi": 45,
      "hit": false,
      "t": 72662.26500000028,
      "d": 52.759687500001746,
      "v": 68
    },
    {
      "midi": 47,
      "hit": false,
      "t": 72853.01156250028,
      "d": 211.03875000000698,
      "v": 118
    },
    {
      "midi": 45,
      "hit": false,
      "t": 73055.93343750028,
      "d": 97.40250000001106,
      "v": 90
    },
    {
      "midi": 79,
      "hit": false,
      "t": 73137.1021875,
      "d": 52.759687500001746,
      "v": 84
    },
    {
      "midi": 80,
      "hit": false,
      "t": 73189.861875,
      "d": 16.233749999999418,
      "v": 109
    },
    {
      "midi": 81,
      "hit": false,
      "t": 73206.095625,
      "d": 40.58437500000582,
      "v": 97
    },
    {
      "midi": 84,
      "hit": false,
      "t": 73242.6215625,
      "d": 20.29218750000291,
      "v": 78
    },
    {
      "midi": 81,
      "hit": false,
      "t": 73266.97218750001,
      "d": 36.52593750000233,
      "v": 57
    },
    {
      "midi": 84,
      "hit": false,
      "t": 73295.38125,
      "d": 186.68812500000058,
      "v": 100
    },
    {
      "midi": 81,
      "hit": false,
      "t": 73352.19937500001,
      "d": 48.701249999998254,
      "v": 94
    },
    {
      "midi": 45,
      "hit": false,
      "t": 73445.5434375003,
      "d": 89.28562500000407,
      "v": 86
    },
    {
      "midi": 81,
      "hit": false,
      "t": 73449.60187500001,
      "d": 133.92843749999884,
      "v": 95
    },
    {
      "midi": 77,
      "hit": false,
      "t": 73624.11468750001,
      "d": 174.5128124999901,
      "v": 109
    },
    {
      "midi": 84,
      "hit": false,
      "t": 73636.29000000001,
      "d": 190.74656250000407,
      "v": 114
    },
    {
      "midi": 47,
      "hit": false,
      "t": 73640.3484375003,
      "d": 142.04531250000582,
      "v": 110
    },
    {
      "midi": 78,
      "hit": false,
      "t": 73818.9196875,
      "d": 178.57125000000815,
      "v": 105
    },
    {
      "midi": 74,
      "hit": false,
      "t": 74017.78312500002,
      "d": 154.22062500000175,
      "v": 114
    },
    {
      "midi": 48,
      "hit": false,
      "t": 74021.84156250031,
      "d": 215.09718749999593,
      "v": 116
    },
    {
      "midi": 45,
      "hit": false,
      "t": 74220.70500000031,
      "d": 52.759687500001746,
      "v": 68
    },
    {
      "midi": 47,
      "hit": false,
      "t": 74411.45156250031,
      "d": 211.03875000000698,
      "v": 118
    },
    {
      "midi": 71,
      "hit": false,
      "t": 74427.68531250002,
      "d": 146.10374999999476,
      "v": 114
    },
    {
      "midi": 69,
      "hit": false,
      "t": 74614.37343750002,
      "d": 142.04531250000582,
      "v": 73
    },
    {
      "midi": 45,
      "hit": false,
      "t": 74614.37343750031,
      "d": 97.40250000001106,
      "v": 90
    },
    {
      "midi": 45,
      "hit": false,
      "t": 75003.98343750033,
      "d": 85.22718750000058,
      "v": 96
    },
    {
      "midi": 47,
      "hit": false,
      "t": 75198.78843750033,
      "d": 190.74656250000407,
      "v": 107
    },
    {
      "midi": 48,
      "hit": false,
      "t": 75588.39843750033,
      "d": 206.9803125000035,
      "v": 122
    },
    {
      "midi": 45,
      "hit": false,
      "t": 75779.14500000034,
      "d": 52.759687500001746,
      "v": 68
    },
    {
      "midi": 47,
      "hit": false,
      "t": 75978.00843750034,
      "d": 206.98031249998894,
      "v": 107
    },
    {
      "midi": 45,
      "hit": false,
      "t": 76172.81343750033,
      "d": 73.0518749999901,
      "v": 87
    },
    {
      "midi": 45,
      "hit": false,
      "t": 76562.42343750031,
      "d": 89.28562500000407,
      "v": 86
    },
    {
      "midi": 47,
      "hit": false,
      "t": 76757.22843750032,
      "d": 142.04531250000582,
      "v": 110
    },
    {
      "midi": 48,
      "hit": false,
      "t": 77138.72156250033,
      "d": 223.2140625000029,
      "v": 116
    },
    {
      "midi": 45,
      "hit": false,
      "t": 77337.58500000033,
      "d": 52.759687500001746,
      "v": 67
    },
    {
      "midi": 47,
      "hit": false,
      "t": 77528.33156250033,
      "d": 211.03875000000698,
      "v": 118
    },
    {
      "midi": 45,
      "hit": false,
      "t": 77731.25343750033,
      "d": 97.40250000001106,
      "v": 90
    },
    {
      "midi": 45,
      "hit": false,
      "t": 78120.86343750035,
      "d": 89.28562500000407,
      "v": 86
    },
    {
      "midi": 47,
      "hit": false,
      "t": 78315.66843750035,
      "d": 142.04531250000582,
      "v": 110
    },
    {
      "midi": 48,
      "hit": false,
      "t": 78697.16156250036,
      "d": 190.74656250000407,
      "v": 116
    },
    {
      "midi": 45,
      "hit": false,
      "t": 78896.02500000037,
      "d": 52.759687500001746,
      "v": 68
    },
    {
      "midi": 47,
      "hit": false,
      "t": 79086.77156250038,
      "d": 211.03875000000698,
      "v": 118
    },
    {
      "midi": 45,
      "hit": false,
      "t": 79289.69343750038,
      "d": 97.40250000001106,
      "v": 90
    },
    {
      "midi": 87,
      "hit": false,
      "t": 79480.44000000003,
      "d": 178.5712499999936,
      "v": 127
    },
    {
      "midi": 91,
      "hit": false,
      "t": 79480.44000000003,
      "d": 336.85031249999884,
      "v": 109
    },
    {
      "midi": 88,
      "hit": false,
      "t": 79663.06968750003,
      "d": 154.22062500000175,
      "v": 109
    },
    {
      "midi": 52,
      "hit": false,
      "t": 79679.30343750039,
      "d": 89.28562500000407,
      "v": 86
    },
    {
      "midi": 54,
      "hit": false,
      "t": 79874.1084375004,
      "d": 142.04531250000582,
      "v": 110
    },
    {
      "midi": 88,
      "hit": false,
      "t": 79890.34218750003,
      "d": 101.4609375,
      "v": 108
    },
    {
      "midi": 91,
      "hit": false,
      "t": 79890.34218750003,
      "d": 137.98687500000233,
      "v": 111
    },
    {
      "midi": 91,
      "hit": false,
      "t": 80068.91343750004,
      "d": 129.86999999999534,
      "v": 94
    },
    {
      "midi": 87,
      "hit": false,
      "t": 80081.08875000004,
      "d": 117.69468749999942,
      "v": 111
    },
    {
      "midi": 55,
      "hit": false,
      "t": 80255.60156250041,
      "d": 190.74656250000407,
      "v": 116
    },
    {
      "midi": 91,
      "hit": false,
      "t": 80275.89375000003,
      "d": 174.51281250000466,
      "v": 114
    },
    {
      "midi": 86,
      "hit": false,
      "t": 80288.06906250003,
      "d": 137.98687500000233,
      "v": 116
    },
    {
      "midi": 52,
      "hit": false,
      "t": 80454.46500000042,
      "d": 52.759687500001746,
      "v": 68
    },
    {
      "midi": 84,
      "hit": false,
      "t": 80474.75718750004,
      "d": 125.8115625000064,
      "v": 106
    },
    {
      "midi": 54,
      "hit": false,
      "t": 80645.21156250042,
      "d": 211.03875000000698,
      "v": 118
    },
    {
      "midi": 85,
      "hit": false,
      "t": 80653.32843750005,
      "d": 182.6296874999971,
      "v": 111
    },
    {
      "midi": 52,
      "hit": false,
      "t": 80848.13343750042,
      "d": 97.40250000001106,
      "v": 90
    },
    {
      "midi": 45,
      "hit": false,
      "t": 81237.74343750044,
      "d": 85.22718750000058,
      "v": 96
    },
    {
      "midi": 47,
      "hit": false,
      "t": 81432.54843750045,
      "d": 190.74656250000407,
      "v": 107
    },
    {
      "midi": 45,
      "hit": false,
      "t": 81623.29500000045,
      "d": 85.22718750000058,
      "v": 72
    },
    {
      "midi": 48,
      "hit": false,
      "t": 81822.15843750045,
      "d": 231.3309375000099,
      "v": 122
    },
    {
      "midi": 45,
      "hit": false,
      "t": 82012.90500000045,
      "d": 52.759687500001746,
      "v": 68
    },
    {
      "midi": 47,
      "hit": false,
      "t": 82211.76843750045,
      "d": 198.8634374999965,
      "v": 107
    },
    {
      "midi": 45,
      "hit": false,
      "t": 82406.57343750044,
      "d": 73.05187500000466,
      "v": 87
    },
    {
      "midi": 50,
      "hit": false,
      "t": 82788.06656250045,
      "d": 85.22718750000058,
      "v": 105
    },
    {
      "midi": 55,
      "hit": false,
      "t": 82788.06656250045,
      "d": 109.57781250000698,
      "v": 110
    },
    {
      "midi": 50,
      "hit": false,
      "t": 83372.48156250046,
      "d": 754.8693749999948,
      "v": 98
    },
    {
      "midi": 55,
      "hit": false,
      "t": 83372.48156250046,
      "d": 783.2784374999901,
      "v": 101
    },
    {
      "midi": 45,
      "hit": false,
      "t": 84354.62343750044,
      "d": 85.22718750000058,
      "v": 96
    },
    {
      "midi": 47,
      "hit": false,
      "t": 84549.42843750045,
      "d": 190.74656250000407,
      "v": 107
    },
    {
      "midi": 48,
      "hit": false,
      "t": 84939.03843750045,
      "d": 182.6296874999971,
      "v": 122
    },
    {
      "midi": 45,
      "hit": false,
      "t": 85129.78500000045,
      "d": 52.759687500001746,
      "v": 68
    },
    {
      "midi": 47,
      "hit": false,
      "t": 85328.64843750045,
      "d": 206.98031249998894,
      "v": 107
    },
    {
      "midi": 45,
      "hit": false,
      "t": 85523.45343750044,
      "d": 73.0518749999901,
      "v": 87
    },
    {
      "midi": 50,
      "hit": false,
      "t": 85913.06343750043,
      "d": 77.1103124999936,
      "v": 96
    },
    {
      "midi": 54,
      "hit": false,
      "t": 85913.06343750043,
      "d": 77.1103124999936,
      "v": 101
    },
    {
      "midi": 59,
      "hit": false,
      "t": 85913.06343750043,
      "d": 89.28562499998952,
      "v": 101
    },
    {
      "midi": 50,
      "hit": false,
      "t": 86493.42000000042,
      "d": 385.5515624999971,
      "v": 94
    },
    {
      "midi": 54,
      "hit": false,
      "t": 86497.47843750042,
      "d": 775.1615624999831,
      "v": 103
    },
    {
      "midi": 59,
      "hit": false,
      "t": 86497.47843750042,
      "d": 775.1615624999831,
      "v": 101
    },
    {
      "midi": 45,
      "hit": false,
      "t": 87471.5034375004,
      "d": 85.22718750000058,
      "v": 96
    },
    {
      "midi": 47,
      "hit": false,
      "t": 87666.30843750041,
      "d": 190.74656250000407,
      "v": 107
    },
    {
      "midi": 48,
      "hit": false,
      "t": 88055.91843750041,
      "d": 215.09718750001048,
      "v": 122
    },
    {
      "midi": 45,
      "hit": false,
      "t": 88246.66500000042,
      "d": 52.759687500001746,
      "v": 68
    },
    {
      "midi": 47,
      "hit": false,
      "t": 88445.52843750041,
      "d": 198.8634374999965,
      "v": 107
    },
    {
      "midi": 45,
      "hit": false,
      "t": 88640.3334375004,
      "d": 73.05187500000466,
      "v": 87
    },
    {
      "midi": 45,
      "hit": false,
      "t": 89029.9434375004,
      "d": 85.22718750000058,
      "v": 96
    },
    {
      "midi": 47,
      "hit": false,
      "t": 89224.74843750041,
      "d": 190.74656250000407,
      "v": 107
    },
    {
      "midi": 48,
      "hit": false,
      "t": 89614.35843750041,
      "d": 190.74656250000407,
      "v": 122
    },
    {
      "midi": 45,
      "hit": false,
      "t": 89805.10500000042,
      "d": 52.759687500001746,
      "v": 68
    },
    {
      "midi": 47,
      "hit": false,
      "t": 90003.96843750041,
      "d": 182.6296874999971,
      "v": 107
    },
    {
      "midi": 45,
      "hit": false,
      "t": 90198.77343750041,
      "d": 73.05187500000466,
      "v": 87
    },
    {
      "midi": 52,
      "hit": false,
      "t": 90588.38343750041,
      "d": 101.4609375,
      "v": 112
    },
    {
      "midi": 57,
      "hit": false,
      "t": 90588.38343750041,
      "d": 101.4609375,
      "v": 118
    },
    {
      "midi": 52,
      "hit": false,
      "t": 91168.74000000041,
      "d": 718.343437500007,
      "v": 112
    },
    {
      "midi": 57,
      "hit": false,
      "t": 91168.74000000041,
      "d": 767.0446875000052,
      "v": 114
    },
    {
      "midi": 81,
      "hit": false,
      "t": 92146.82343750005,
      "d": 44.64281249999476,
      "v": 88
    },
    {
      "midi": 86,
      "hit": false,
      "t": 92146.82343750005,
      "d": 44.64281249999476,
      "v": 106
    },
    {
      "midi": 45,
      "hit": false,
      "t": 92146.82343750042,
      "d": 44.64281249999476,
      "v": 107
    },
    {
      "midi": 81,
      "hit": false,
      "t": 92236.10906250004,
      "d": 267.8568750000122,
      "v": 92
    },
    {
      "midi": 86,
      "hit": false,
      "t": 92244.22593750004,
      "d": 259.74000000000524,
      "v": 81
    },
    {
      "midi": 47,
      "hit": false,
      "t": 92341.62843750042,
      "d": 190.74656250000407,
      "v": 122
    },
    {
      "midi": 81,
      "hit": false,
      "t": 92536.43343750005,
      "d": 182.62968750001164,
      "v": 102
    },
    {
      "midi": 45,
      "hit": false,
      "t": 92536.43343750043,
      "d": 44.64281249999476,
      "v": 93
    },
    {
      "midi": 86,
      "hit": false,
      "t": 92544.55031250005,
      "d": 150.16218749999825,
      "v": 93
    },
    {
      "midi": 86,
      "hit": false,
      "t": 92727.18000000007,
      "d": 154.22062500000175,
      "v": 122
    },
    {
      "midi": 81,
      "hit": false,
      "t": 92727.18000000007,
      "d": 158.27906250000524,
      "v": 89
    },
    {
      "midi": 48,
      "hit": false,
      "t": 92731.23843750042,
      "d": 190.74656250000407,
      "v": 116
    },
    {
      "midi": 80,
      "hit": false,
      "t": 92913.86812500007,
      "d": 150.16218749999825,
      "v": 111
    },
    {
      "midi": 86,
      "hit": false,
      "t": 92913.86812500007,
      "d": 150.16218749999825,
      "v": 79
    },
    {
      "midi": 45,
      "hit": false,
      "t": 92926.04343750043,
      "d": 44.64281249999476,
      "v": 94
    },
    {
      "midi": 79,
      "hit": false,
      "t": 93092.43937500006,
      "d": 158.27906250000524,
      "v": 97
    },
    {
      "midi": 86,
      "hit": false,
      "t": 93116.79000000007,
      "d": 133.92843749999884,
      "v": 122
    },
    {
      "midi": 47,
      "hit": false,
      "t": 93120.84843750042,
      "d": 223.21406249998836,
      "v": 116
    },
    {
      "midi": 86,
      "hit": false,
      "t": 93283.18593750006,
      "d": 215.09718749999593,
      "v": 60
    },
    {
      "midi": 45,
      "hit": false,
      "t": 93315.65343750041,
      "d": 44.64281249999476,
      "v": 104
    },
    {
      "midi": 77,
      "hit": false,
      "t": 93331.88718750006,
      "d": 190.74656250000407,
      "v": 124
    },
    {
      "midi": 78,
      "hit": false,
      "t": 93502.34156250006,
      "d": 182.6296874999971,
      "v": 121
    },
    {
      "midi": 36,
      "hit": false,
      "t": 93506.4000000004,
      "d": 190.74656250000407,
      "v": 112
    },
    {
      "midi": 48,
      "hit": false,
      "t": 93510.4584375004,
      "d": 190.74656250000407,
      "v": 112
    },
    {
      "midi": 86,
      "hit": false,
      "t": 93522.63375000007,
      "d": 162.33749999999418,
      "v": 105
    },
    {
      "midi": 79,
      "hit": false,
      "t": 93697.14656250006,
      "d": 166.39593749999767,
      "v": 105
    },
    {
      "midi": 37,
      "hit": false,
      "t": 93701.20500000041,
      "d": 190.74656250000407,
      "v": 112
    },
    {
      "midi": 49,
      "hit": false,
      "t": 93705.26343750041,
      "d": 190.74656250000407,
      "v": 105
    },
    {
      "midi": 86,
      "hit": false,
      "t": 93713.38031250006,
      "d": 158.27906250000524,
      "v": 114
    },
    {
      "midi": 80,
      "hit": false,
      "t": 93887.89312500006,
      "d": 178.57125000000815,
      "v": 121
    },
    {
      "midi": 86,
      "hit": false,
      "t": 93896.01000000007,
      "d": 182.6296874999971,
      "v": 124
    },
    {
      "midi": 50,
      "hit": false,
      "t": 93896.01000000042,
      "d": 361.20093750000524,
      "v": 110
    },
    {
      "midi": 38,
      "hit": false,
      "t": 93896.01000000042,
      "d": 385.55156250001164,
      "v": 112
    },
    {
      "midi": 81,
      "hit": false,
      "t": 94078.63968750006,
      "d": 93.34406250000757,
      "v": 111
    },
    {
      "midi": 86,
      "hit": false,
      "t": 94098.93187500007,
      "d": 105.51937500000349,
      "v": 114
    },
    {
      "midi": 48,
      "hit": false,
      "t": 94285.62000000043,
      "d": 129.86999999999534,
      "v": 112
    },
    {
      "midi": 77,
      "hit": false,
      "t": 94301.85375000007,
      "d": 190.74656250000407,
      "v": 127
    },
    {
      "midi": 47,
      "hit": false,
      "t": 94415.49000000043,
      "d": 129.86999999999534,
      "v": 104
    },
    {
      "midi": 78,
      "hit": false,
      "t": 94492.60031250007,
      "d": 154.22062500000175,
      "v": 111
    },
    {
      "midi": 45,
      "hit": false,
      "t": 94545.36000000042,
      "d": 129.86999999999534,
      "v": 96
    },
    {
      "midi": 74,
      "hit": false,
      "t": 94675.23000000007,
      "d": 194.80499999999302,
      "v": 122
    },
    {
      "midi": 41,
      "hit": false,
      "t": 94675.23000000042,
      "d": 243.50625000000582,
      "v": 93
    },
    {
      "midi": 43,
      "hit": false,
      "t": 94870.03500000041,
      "d": 146.1037500000093,
      "v": 127
    },
    {
      "midi": 50,
      "hit": false,
      "t": 94878.15187500042,
      "d": 48.701250000012806,
      "v": 123
    },
    {
      "midi": 50,
      "hit": false,
      "t": 94939.02843750043,
      "d": 81.16874999999709,
      "v": 126
    },
    {
      "midi": 43,
      "hit": false,
      "t": 95032.37250000042,
      "d": 401.7853124999965,
      "v": 127
    },
    {
      "midi": 55,
      "hit": false,
      "t": 95048.60625000042,
      "d": 393.6684375000041,
      "v": 117
    },
    {
      "midi": 50,
      "hit": false,
      "t": 95060.78156250042,
      "d": 377.43468750000466,
      "v": 119
    },
    {
      "midi": 50,
      "hit": false,
      "t": 95450.39156250043,
      "d": 775.1615625000268,
      "v": 120
    },
    {
      "midi": 55,
      "hit": false,
      "t": 95450.39156250043,
      "d": 795.4537500000297,
      "v": 121
    },
    {
      "midi": 43,
      "hit": false,
      "t": 95458.50843750044,
      "d": 762.9862500000163,
      "v": 127
    },
    {
      "midi": 62,
      "hit": false,
      "t": 95458.50843750044,
      "d": 771.1031250000233,
      "v": 121
    },
    {
      "midi": 67,
      "hit": false,
      "t": 95462.56687500044,
      "d": 734.5771875000064,
      "v": 57
    },
    {
      "midi": 59,
      "hit": false,
      "t": 95466.62531250044,
      "d": 775.1615625000122,
      "v": 125
    },
    {
      "midi": 48,
      "hit": false,
      "t": 96420.35812500046,
      "d": 401.7853124999965,
      "v": 115
    },
    {
      "midi": 55,
      "hit": false,
      "t": 96424.41656250047,
      "d": 401.7853124999965,
      "v": 117
    },
    {
      "midi": 60,
      "hit": false,
      "t": 96436.59187500046,
      "d": 539.7721875000134,
      "v": 118
    },
    {
      "midi": 48,
      "hit": false,
      "t": 96826.20187500046,
      "d": 182.62968750001164,
      "v": 111
    },
    {
      "midi": 55,
      "hit": false,
      "t": 96830.26031250047,
      "d": 142.04531250000582,
      "v": 95
    },
    {
      "midi": 48,
      "hit": false,
      "t": 97025.06531250048,
      "d": 247.56468749999476,
      "v": 119
    },
    {
      "midi": 60,
      "hit": false,
      "t": 97025.06531250048,
      "d": 320.6165624999994,
      "v": 119
    },
    {
      "midi": 55,
      "hit": false,
      "t": 97025.06531250048,
      "d": 332.79187499999534,
      "v": 119
    },
    {
      "midi": 43,
      "hit": false,
      "t": 97418.73375000047,
      "d": 361.20093750000524,
      "v": 127
    },
    {
      "midi": 50,
      "hit": false,
      "t": 97418.73375000047,
      "d": 361.20093750000524,
      "v": 123
    },
    {
      "midi": 55,
      "hit": false,
      "t": 97426.85062500047,
      "d": 361.20093750000524,
      "v": 104
    },
    {
      "midi": 50,
      "hit": false,
      "t": 97800.22687500047,
      "d": 357.14250000000175,
      "v": 125
    },
    {
      "midi": 55,
      "hit": false,
      "t": 97800.22687500047,
      "d": 389.6100000000006,
      "v": 119
    },
    {
      "midi": 43,
      "hit": false,
      "t": 97804.28531250048,
      "d": 340.9087500000023,
      "v": 124
    },
    {
      "midi": 50,
      "hit": false,
      "t": 98177.66156250048,
      "d": 381.4931249999936,
      "v": 119
    },
    {
      "midi": 57,
      "hit": false,
      "t": 98189.83687500047,
      "d": 373.37625000000116,
      "v": 118
    },
    {
      "midi": 62,
      "hit": false,
      "t": 98202.01218750047,
      "d": 357.14250000000175,
      "v": 69
    },
    {
      "midi": 50,
      "hit": false,
      "t": 98567.27156250048,
      "d": 1128.2456250000105,
      "v": 127
    },
    {
      "midi": 62,
      "hit": false,
      "t": 98575.38843750049,
      "d": 1128.2456250000105,
      "v": 119
    },
    {
      "midi": 57,
      "hit": false,
      "t": 98575.38843750049,
      "d": 1132.304062500014,
      "v": 126
    },
    {
      "midi": 50,
      "hit": false,
      "t": 99736.1015625005,
      "d": 539.7721875000134,
      "v": 90
    },
    {
      "midi": 55,
      "hit": false,
      "t": 99939.0234375005,
      "d": 328.7334375000064,
      "v": 66
    },
    {
      "midi": 59,
      "hit": false,
      "t": 100129.7700000005,
      "d": 170.45437500001572,
      "v": 111
    },
    {
      "midi": 62,
      "hit": false,
      "t": 100141.9453125005,
      "d": 190.74656250001863,
      "v": 111
    },
    {
      "midi": 50,
      "hit": false,
      "t": 100519.38000000051,
      "d": 568.1812500000087,
      "v": 87
    },
    {
      "midi": 54,
      "hit": false,
      "t": 100535.61375000051,
      "d": 182.6296874999971,
      "v": 57
    },
    {
      "midi": 54,
      "hit": false,
      "t": 100730.4187500005,
      "d": 357.1425000000163,
      "v": 90
    },
    {
      "midi": 57,
      "hit": false,
      "t": 100917.1068750005,
      "d": 162.33750000000873,
      "v": 110
    },
    {
      "midi": 62,
      "hit": false,
      "t": 100925.22375000051,
      "d": 178.57125000000815,
      "v": 110
    },
    {
      "midi": 50,
      "hit": false,
      "t": 101156.55468750052,
      "d": 40.58437500000582,
      "v": 127
    },
    {
      "midi": 43,
      "hit": false,
      "t": 101156.55468750052,
      "d": 137.98687500001688,
      "v": 127
    },
    {
      "midi": 50,
      "hit": false,
      "t": 101221.48968750054,
      "d": 81.16875000001164,
      "v": 125
    },
    {
      "midi": 55,
      "hit": false,
      "t": 101306.71687500055,
      "d": 353.08406250002736,
      "v": 117
    },
    {
      "midi": 43,
      "hit": false,
      "t": 101310.77531250055,
      "d": 340.9087500000169,
      "v": 127
    },
    {
      "midi": 50,
      "hit": false,
      "t": 101318.89218750056,
      "d": 332.7918750000099,
      "v": 125
    },
    {
      "midi": 59,
      "hit": false,
      "t": 101322.95062500057,
      "d": 340.9087500000169,
      "v": 103
    },
    {
      "midi": 43,
      "hit": false,
      "t": 101663.85937500058,
      "d": 840.0965625000099,
      "v": 127
    },
    {
      "midi": 55,
      "hit": false,
      "t": 101671.97625000059,
      "d": 831.9796875000029,
      "v": 123
    },
    {
      "midi": 59,
      "hit": false,
      "t": 101671.97625000059,
      "d": 844.1549999999988,
      "v": 125
    },
    {
      "midi": 50,
      "hit": false,
      "t": 101676.03468750059,
      "d": 811.6875,
      "v": 127
    },
    {
      "midi": 67,
      "hit": false,
      "t": 101688.21000000059,
      "d": 860.3887499999983,
      "v": 73
    },
    {
      "midi": 62,
      "hit": false,
      "t": 101688.21000000059,
      "d": 917.2068750000035,
      "v": 124
    },
    {
      "midi": 48,
      "hit": false,
      "t": 102633.82593750059,
      "d": 819.804375000007,
      "v": 108
    },
    {
      "midi": 55,
      "hit": false,
      "t": 102650.05968750059,
      "d": 864.4471875000017,
      "v": 124
    },
    {
      "midi": 64,
      "hit": false,
      "t": 102666.29343750059,
      "d": 905.0315625000076,
      "v": 119
    },
    {
      "midi": 60,
      "hit": false,
      "t": 102670.35187500059,
      "d": 868.5056250000052,
      "v": 118
    },
    {
      "midi": 43,
      "hit": false,
      "t": 103640.3184375006,
      "d": 702.1096875000076,
      "v": 124
    },
    {
      "midi": 50,
      "hit": false,
      "t": 103640.3184375006,
      "d": 702.1096875000076,
      "v": 121
    },
    {
      "midi": 59,
      "hit": false,
      "t": 103644.3768750006,
      "d": 665.5837500000052,
      "v": 97
    },
    {
      "midi": 55,
      "hit": false,
      "t": 103644.3768750006,
      "d": 746.7525000000023,
      "v": 119
    },
    {
      "midi": 45,
      "hit": false,
      "t": 104443.8890625006,
      "d": 328.7334375000064,
      "v": 127
    },
    {
      "midi": 45,
      "hit": false,
      "t": 104817.2653125006,
      "d": 137.98687500000233,
      "v": 118
    },
    {
      "midi": 45,
      "hit": false,
      "t": 105020.18718750062,
      "d": 361.2009374999907,
      "v": 118
    },
    {
      "midi": 45,
      "hit": false,
      "t": 105413.85562500061,
      "d": 129.8700000000099,
      "v": 105
    },
    {
      "midi": 45,
      "hit": false,
      "t": 105588.36843750061,
      "d": 353.0840624999837,
      "v": 118
    },
    {
      "midi": 45,
      "hit": false,
      "t": 105990.1537500006,
      "d": 137.98687500000233,
      "v": 116
    },
    {
      "midi": 45,
      "hit": false,
      "t": 106180.90031250061,
      "d": 344.9671875000204,
      "v": 120
    },
    {
      "midi": 45,
      "hit": false,
      "t": 106570.51031250063,
      "d": 125.8115625000064,
      "v": 112
    },
    {
      "midi": 45,
      "hit": false,
      "t": 106761.25687500065,
      "d": 316.5581250000105,
      "v": 112
    },
    {
      "midi": 45,
      "hit": false,
      "t": 107134.63312500066,
      "d": 202.921875,
      "v": 116
    },
    {
      "midi": 57,
      "hit": false,
      "t": 107532.36000000066,
      "d": 1489.4465625000012,
      "v": 104
    },
    {
      "midi": 62,
      "hit": false,
      "t": 107536.41843750066,
      "d": 1473.2128125000017,
      "v": 114
    },
    {
      "midi": 66,
      "hit": false,
      "t": 107536.41843750066,
      "d": 1505.6803125000006,
      "v": 105
    },
    {
      "midi": 50,
      "hit": false,
      "t": 109285.60500000067,
      "d": 93.34406249999302,
      "v": 118
    },
    {
      "midi": 55,
      "hit": false,
      "t": 109285.60500000067,
      "d": 93.34406249999302,
      "v": 118
    },
    {
      "midi": 50,
      "hit": false,
      "t": 109870.02000000066,
      "d": 580.3565625000047,
      "v": 118
    },
    {
      "midi": 55,
      "hit": false,
      "t": 109870.02000000066,
      "d": 580.3565625000047,
      "v": 118
    },
    {
      "midi": 57,
      "hit": false,
      "t": 110458.49343750067,
      "d": 109.57781250000698,
      "v": 118
    },
    {
      "midi": 62,
      "hit": false,
      "t": 110470.66875000067,
      "d": 85.22718750000058,
      "v": 118
    },
    {
      "midi": 66,
      "hit": false,
      "t": 110482.84406250066,
      "d": 60.87656249999418,
      "v": 122
    },
    {
      "midi": 50,
      "hit": false,
      "t": 110495.01937500066,
      "d": 89.28562500003318,
      "v": 88
    },
    {
      "midi": 66,
      "hit": false,
      "t": 110551.83750000066,
      "d": 85.22718750004424,
      "v": 125
    },
    {
      "midi": 62,
      "hit": false,
      "t": 110559.95437500067,
      "d": 77.11031250003725,
      "v": 121
    },
    {
      "midi": 57,
      "hit": false,
      "t": 110576.18812500068,
      "d": 52.7596875000163,
      "v": 118
    },
    {
      "midi": 50,
      "hit": false,
      "t": 110592.4218750007,
      "d": 28.409062499995343,
      "v": 98
    },
    {
      "midi": 50,
      "hit": false,
      "t": 110628.9478125007,
      "d": 1643.667187500032,
      "v": 115
    },
    {
      "midi": 57,
      "hit": false,
      "t": 110633.0062500007,
      "d": 1554.3815625000134,
      "v": 123
    },
    {
      "midi": 62,
      "hit": false,
      "t": 110645.18156250071,
      "d": 1570.6153125000128,
      "v": 115
    },
    {
      "midi": 66,
      "hit": false,
      "t": 110649.24000000072,
      "d": 1558.4400000000023,
      "v": 124
    },
    {
      "midi": 54,
      "hit": false,
      "t": 112402.48500000073,
      "d": 93.34406249999302,
      "v": 109
    },
    {
      "midi": 59,
      "hit": false,
      "t": 112402.48500000073,
      "d": 93.34406249999302,
      "v": 120
    },
    {
      "midi": 54,
      "hit": false,
      "t": 112978.78312500071,
      "d": 580.3565625000047,
      "v": 111
    },
    {
      "midi": 59,
      "hit": false,
      "t": 112978.78312500071,
      "d": 580.3565625000047,
      "v": 112
    },
    {
      "midi": 45,
      "hit": false,
      "t": 113794.52906250072,
      "d": 405.84375,
      "v": 116
    },
    {
      "midi": 50,
      "hit": false,
      "t": 113794.52906250072,
      "d": 405.84375,
      "v": 116
    },
    {
      "midi": 45,
      "hit": false,
      "t": 116883.00000000071,
      "d": 369.3178124999977,
      "v": 114
    },
    {
      "midi": 52,
      "hit": false,
      "t": 116883.00000000071,
      "d": 389.6100000000006,
      "v": 118
    },
    {
      "midi": 45,
      "hit": false,
      "t": 118664.65406250072,
      "d": 373.37625000000116,
      "v": 118
    },
    {
      "midi": 38,
      "hit": false,
      "t": 119025.85500000072,
      "d": 373.3762499999866,
      "v": 102
    },
    {
      "midi": 47,
      "hit": false,
      "t": 119232.83531250071,
      "d": 470.7787499999977,
      "v": 116
    },
    {
      "midi": 38,
      "hit": false,
      "t": 119638.67906250071,
      "d": 446.42812499999127,
      "v": 107
    },
    {
      "midi": 48,
      "hit": false,
      "t": 119849.7178125007,
      "d": 580.3565625000047,
      "v": 107
    },
    {
      "midi": 50,
      "hit": false,
      "t": 120405.7237500007,
      "d": 324.6750000000029,
      "v": 112
    },
    {
      "midi": 103,
      "hit": false,
      "t": 120681.69750000007,
      "d": 93.34406250000757,
      "v": 127
    },
    {
      "midi": 101,
      "hit": false,
      "t": 120766.92468750007,
      "d": 81.16874999999709,
      "v": 52
    },
    {
      "midi": 48,
      "hit": false,
      "t": 120766.92468750071,
      "d": 117.69468749999942,
      "v": 104
    },
    {
      "midi": 100,
      "hit": false,
      "t": 120807.50906250007,
      "d": 77.1103124999936,
      "v": 84
    },
    {
      "midi": 98,
      "hit": false,
      "t": 120835.91812500007,
      "d": 73.05187500000466,
      "v": 81
    },
    {
      "midi": 96,
      "hit": false,
      "t": 120864.32718750006,
      "d": 68.99343750001572,
      "v": 87
    },
    {
      "midi": 47,
      "hit": false,
      "t": 120872.44406250071,
      "d": 113.63624999999593,
      "v": 80
    },
    {
      "midi": 95,
      "hit": false,
      "t": 120884.61937500007,
      "d": 64.93500000001222,
      "v": 94
    },
    {
      "midi": 93,
      "hit": false,
      "t": 120908.97000000007,
      "d": 68.99343750000116,
      "v": 95
    },
    {
      "midi": 91,
      "hit": false,
      "t": 120937.37906250008,
      "d": 44.64281249999476,
      "v": 95
    },
    {
      "midi": 89,
      "hit": false,
      "t": 120949.55437500008,
      "d": 44.64281249999476,
      "v": 95
    },
    {
      "midi": 45,
      "hit": false,
      "t": 120949.5543750007,
      "d": 206.9803125000035,
      "v": 97
    },
    {
      "midi": 88,
      "hit": false,
      "t": 120977.96343750008,
      "d": 60.87656249999418,
      "v": 89
    },
    {
      "midi": 86,
      "hit": false,
      "t": 121022.60625000007,
      "d": 93.34406250000757,
      "v": 91
    },
    {
      "midi": 84,
      "hit": false,
      "t": 121063.19062500008,
      "d": 93.34406250000757,
      "v": 75
    },
    {
      "midi": 83,
      "hit": false,
      "t": 121087.54125000008,
      "d": 93.34406250000757,
      "v": 90
    },
    {
      "midi": 81,
      "hit": false,
      "t": 121132.18406250008,
      "d": 93.34406250002212,
      "v": 80
    },
    {
      "midi": 41,
      "hit": false,
      "t": 121156.53468750071,
      "d": 215.09718749999593,
      "v": 108
    },
    {
      "midi": 79,
      "hit": false,
      "t": 121172.76843750008,
      "d": 93.34406250000757,
      "v": 82
    },
    {
      "midi": 77,
      "hit": false,
      "t": 121217.41125000009,
      "d": 93.34406250000757,
      "v": 88
    },
    {
      "midi": 76,
      "hit": false,
      "t": 121237.7034375001,
      "d": 93.34406250000757,
      "v": 94
    },
    {
      "midi": 74,
      "hit": false,
      "t": 121286.4046875001,
      "d": 93.34406250000757,
      "v": 100
    },
    {
      "midi": 72,
      "hit": false,
      "t": 121322.9306250001,
      "d": 93.34406250000757,
      "v": 108
    },
    {
      "midi": 71,
      "hit": false,
      "t": 121351.3396875001,
      "d": 93.34406250000757,
      "v": 105
    },
    {
      "midi": 42,
      "hit": false,
      "t": 121359.45656250071,
      "d": 190.74656249998952,
      "v": 99
    },
    {
      "midi": 69,
      "hit": false,
      "t": 121391.9240625001,
      "d": 77.11031250000815,
      "v": 104
    },
    {
      "midi": 67,
      "hit": false,
      "t": 121424.39156250011,
      "d": 64.93499999999767,
      "v": 102
    },
    {
      "midi": 65,
      "hit": false,
      "t": 121456.85906250011,
      "d": 32.467499999998836,
      "v": 68
    },
    {
      "midi": 64,
      "hit": false,
      "t": 121477.15125000011,
      "d": 16.233749999999418,
      "v": 99
    },
    {
      "midi": 62,
      "hit": false,
      "t": 121493.38500000011,
      "d": 24.350625000006403,
      "v": 99
    },
    {
      "midi": 55,
      "hit": false,
      "t": 121558.32,
      "d": 714.2850000000035,
      "v": 127
    },
    {
      "midi": 43,
      "hit": false,
      "t": 121562.3784375007,
      "d": 633.1162500000064,
      "v": 112
    },
    {
      "midi": 55,
      "hit": false,
      "t": 122337.54000000001,
      "d": 190.74656250000407,
      "v": 112
    },
    {
      "midi": 43,
      "hit": false,
      "t": 122341.5984375007,
      "d": 182.6296874999971,
      "v": 110
    },
    {
      "midi": 57,
      "hit": false,
      "t": 122528.28656250001,
      "d": 231.33093749999534,
      "v": 112
    },
    {
      "midi": 45,
      "hit": false,
      "t": 122536.40343750069,
      "d": 146.10374999999476,
      "v": 104
    },
    {
      "midi": 59,
      "hit": false,
      "t": 122710.91625000001,
      "d": 166.39593749999767,
      "v": 112
    },
    {
      "midi": 47,
      "hit": false,
      "t": 122727.15000000068,
      "d": 133.92843749999884,
      "v": 100
    },
    {
      "midi": 60,
      "hit": false,
      "t": 122909.7796875,
      "d": 539.7721874999988,
      "v": 122
    },
    {
      "midi": 48,
      "hit": false,
      "t": 122926.01343750067,
      "d": 385.5515624999971,
      "v": 112
    },
    {
      "midi": 55,
      "hit": false,
      "t": 123311.56500000067,
      "d": 146.10374999999476,
      "v": 122
    },
    {
      "midi": 60,
      "hit": false,
      "t": 123506.37000000001,
      "d": 365.2593749999942,
      "v": 110
    },
    {
      "midi": 48,
      "hit": false,
      "t": 123510.42843750067,
      "d": 385.5515624999971,
      "v": 112
    },
    {
      "midi": 59,
      "hit": false,
      "t": 123891.9215625,
      "d": 239.44781249998778,
      "v": 97
    },
    {
      "midi": 43,
      "hit": false,
      "t": 123895.98000000067,
      "d": 381.4931249999936,
      "v": 112
    },
    {
      "midi": 57,
      "hit": false,
      "t": 124086.7265625,
      "d": 186.68812500000058,
      "v": 102
    },
    {
      "midi": 55,
      "hit": false,
      "t": 124277.473125,
      "d": 373.37625000000116,
      "v": 110
    },
    {
      "midi": 43,
      "hit": false,
      "t": 124281.53156250066,
      "d": 385.5515624999971,
      "v": 116
    },
    {
      "midi": 38,
      "hit": false,
      "t": 124671.14156250066,
      "d": 1554.3815624999988,
      "v": 114
    },
    {
      "midi": 57,
      "hit": false,
      "t": 124675.20000000001,
      "d": 1972.4006249999948,
      "v": 110
    },
    {
      "midi": 43,
      "hit": false,
      "t": 126233.64000000067,
      "d": 385.5515624999971,
      "v": 114
    },
    {
      "midi": 55,
      "hit": false,
      "t": 126623.25000000067,
      "d": 385.5515624999971,
      "v": 114
    },
    {
      "midi": 38,
      "hit": false,
      "t": 127012.86000000067,
      "d": 385.5515624999971,
      "v": 114
    },
    {
      "midi": 38,
      "hit": false,
      "t": 127402.47000000067,
      "d": 182.6296874999971,
      "v": 105
    },
    {
      "midi": 50,
      "hit": false,
      "t": 127402.47000000067,
      "d": 385.5515624999971,
      "v": 114
    },
    {
      "midi": 48,
      "hit": false,
      "t": 127438.9959375,
      "d": 32.467499999998836,
      "v": 97
    },
    {
      "midi": 50,
      "hit": false,
      "t": 127438.9959375,
      "d": 198.8634374999965,
      "v": 104
    },
    {
      "midi": 40,
      "hit": false,
      "t": 127597.27500000066,
      "d": 150.16218749999825,
      "v": 120
    },
    {
      "midi": 52,
      "hit": false,
      "t": 127609.4503125,
      "d": 223.2140625000029,
      "v": 112
    },
    {
      "midi": 55,
      "hit": false,
      "t": 127792.08,
      "d": 693.9928125000006,
      "v": 112
    },
    {
      "midi": 43,
      "hit": false,
      "t": 127792.08000000067,
      "d": 698.0512500000041,
      "v": 105
    },
    {
      "midi": 55,
      "hit": false,
      "t": 128563.183125,
      "d": 198.8634374999965,
      "v": 97
    },
    {
      "midi": 43,
      "hit": false,
      "t": 128575.35843750068,
      "d": 170.45437500000116,
      "v": 114
    },
    {
      "midi": 57,
      "hit": false,
      "t": 128749.87125,
      "d": 235.38937499999884,
      "v": 102
    },
    {
      "midi": 45,
      "hit": false,
      "t": 128770.16343750068,
      "d": 117.69468749999942,
      "v": 107
    },
    {
      "midi": 59,
      "hit": false,
      "t": 128944.67624999999,
      "d": 170.45437500000116,
      "v": 108
    },
    {
      "midi": 47,
      "hit": false,
      "t": 128964.96843750068,
      "d": 117.69468749999942,
      "v": 102
    },
    {
      "midi": 60,
      "hit": false,
      "t": 129143.53968749999,
      "d": 539.7721874999988,
      "v": 114
    },
    {
      "midi": 48,
      "hit": false,
      "t": 129159.77343750067,
      "d": 385.5515624999971,
      "v": 112
    },
    {
      "midi": 55,
      "hit": false,
      "t": 129545.32500000067,
      "d": 174.51281250000466,
      "v": 126
    },
    {
      "midi": 60,
      "hit": false,
      "t": 129732.01312499998,
      "d": 474.83718750000116,
      "v": 106
    },
    {
      "midi": 48,
      "hit": false,
      "t": 129744.18843750068,
      "d": 385.5515624999971,
      "v": 101
    },
    {
      "midi": 43,
      "hit": false,
      "t": 130125.68156250067,
      "d": 385.5515624999971,
      "v": 110
    },
    {
      "midi": 59,
      "hit": false,
      "t": 130162.20749999999,
      "d": 198.8634374999965,
      "v": 110
    },
    {
      "midi": 57,
      "hit": false,
      "t": 130328.60343749999,
      "d": 182.6296874999971,
      "v": 86
    },
    {
      "midi": 55,
      "hit": false,
      "t": 130507.17468749998,
      "d": 365.25937500000873,
      "v": 106
    },
    {
      "midi": 43,
      "hit": false,
      "t": 130515.29156250067,
      "d": 385.5515624999971,
      "v": 114
    },
    {
      "midi": 57,
      "hit": false,
      "t": 130884.60937499999,
      "d": 2479.7053124999948,
      "v": 98
    },
    {
      "midi": 45,
      "hit": false,
      "t": 130904.90156250067,
      "d": 1164.7715624999983,
      "v": 110
    },
    {
      "midi": 45,
      "hit": false,
      "t": 132077.79000000068,
      "d": 556.0059375000128,
      "v": 107
    },
    {
      "midi": 52,
      "hit": false,
      "t": 132077.79000000068,
      "d": 657.4668750000128,
      "v": 102
    },
    {
      "midi": 45,
      "hit": false,
      "t": 132662.2050000007,
      "d": 190.74656250001863,
      "v": 103
    },
    {
      "midi": 45,
      "hit": false,
      "t": 132857.0100000007,
      "d": 190.74656249998952,
      "v": 103
    },
    {
      "midi": 45,
      "hit": false,
      "t": 133051.8150000007,
      "d": 182.62968750001164,
      "v": 103
    },
    {
      "midi": 45,
      "hit": false,
      "t": 133238.50312500072,
      "d": 190.74656249998952,
      "v": 98
    },
    {
      "midi": 45,
      "hit": false,
      "t": 133437.3665625007,
      "d": 186.68812499998603,
      "v": 86
    },
    {
      "midi": 45,
      "hit": false,
      "t": 133648.4053125007,
      "d": 178.57125000000815,
      "v": 120
    },
    {
      "midi": 45,
      "hit": false,
      "t": 133831.0350000007,
      "d": 190.74656249998952,
      "v": 120
    },
    {
      "midi": 45,
      "hit": false,
      "t": 134029.8984375007,
      "d": 1668.0178125000093,
      "v": 110
    },
    {
      "midi": 38,
      "hit": false,
      "t": 134029.8984375007,
      "d": 1680.1931250000198,
      "v": 105
    },
    {
      "midi": 55,
      "hit": false,
      "t": 135762.8512500007,
      "d": 93.34406249999302,
      "v": 108
    },
    {
      "midi": 50,
      "hit": false,
      "t": 135766.9096875007,
      "d": 113.63624999998137,
      "v": 107
    },
    {
      "midi": 55,
      "hit": false,
      "t": 136375.67531250068,
      "d": 730.5187500000175,
      "v": 110
    },
    {
      "midi": 50,
      "hit": false,
      "t": 136379.73375000068,
      "d": 722.4018750000105,
      "v": 100
    },
    {
      "midi": 45,
      "hit": false,
      "t": 137167.0706250007,
      "d": 1582.7906249999942,
      "v": 105
    },
    {
      "midi": 38,
      "hit": false,
      "t": 137167.0706250007,
      "d": 1607.141249999986,
      "v": 104
    },
    {
      "midi": 54,
      "hit": false,
      "t": 138928.43250000066,
      "d": 73.05187500000466,
      "v": 109
    },
    {
      "midi": 59,
      "hit": false,
      "t": 138932.49093750067,
      "d": 81.16875000001164,
      "v": 116
    },
    {
      "midi": 59,
      "hit": false,
      "t": 139480.38000000067,
      "d": 629.0578125000175,
      "v": 102
    },
    {
      "midi": 54,
      "hit": false,
      "t": 139484.43843750068,
      "d": 608.765625,
      "v": 105
    },
    {
      "midi": 38,
      "hit": false,
      "t": 140259.6000000007,
      "d": 523.538437500014,
      "v": 110
    },
    {
      "midi": 45,
      "hit": false,
      "t": 140263.6584375007,
      "d": 551.9475000000093,
      "v": 116
    },
    {
      "midi": 45,
      "hit": false,
      "t": 143376.4800000007,
      "d": 413.960625000007,
      "v": 104
    },
    {
      "midi": 52,
      "hit": false,
      "t": 143380.5384375007,
      "d": 438.31124999999884,
      "v": 89
    },
    {
      "midi": 43,
      "hit": false,
      "t": 144947.09531250072,
      "d": 556.0059375000128,
      "v": 127
    },
    {
      "midi": 50,
      "hit": false,
      "t": 144947.09531250072,
      "d": 556.0059375000128,
      "v": 127
    },
    {
      "midi": 55,
      "hit": false,
      "t": 144955.21218750073,
      "d": 560.0643750000163,
      "v": 101
    },
    {
      "midi": 50,
      "hit": false,
      "t": 145519.33500000075,
      "d": 535.7137499999953,
      "v": 127
    },
    {
      "midi": 43,
      "hit": false,
      "t": 145519.33500000075,
      "d": 543.8306250000023,
      "v": 127
    },
    {
      "midi": 55,
      "hit": false,
      "t": 145519.33500000075,
      "d": 969.9665625000198,
      "v": 115
    },
    {
      "midi": 50,
      "hit": false,
      "t": 146067.22406250075,
      "d": 482.95406250000815,
      "v": 119
    },
    {
      "midi": 43,
      "hit": false,
      "t": 146075.34093750076,
      "d": 564.1228124999907,
      "v": 127
    },
    {
      "midi": 48,
      "hit": false,
      "t": 146692.22343750074,
      "d": 243.50625000000582,
      "v": 120
    },
    {
      "midi": 47,
      "hit": false,
      "t": 146887.02843750073,
      "d": 190.74656250001863,
      "v": 82
    },
    {
      "midi": 45,
      "hit": false,
      "t": 147081.83343750075,
      "d": 154.2206249999872,
      "v": 110
    },
    {
      "midi": 47,
      "hit": false,
      "t": 147276.63843750075,
      "d": 211.03875000000698,
      "v": 127
    },
    {
      "midi": 45,
      "hit": false,
      "t": 147471.44343750074,
      "d": 150.1621875000128,
      "v": 116
    },
    {
      "midi": 41,
      "hit": false,
      "t": 147658.13156250076,
      "d": 385.55156250004075,
      "v": 120
    },
    {
      "midi": 38,
      "hit": false,
      "t": 148047.7415625008,
      "d": 4671.2615625000035,
      "v": 126
    },
    {
      "midi": 45,
      "hit": false,
      "t": 148051.8000000008,
      "d": 4671.2615625000035,
      "v": 110
    }
  ]
}