{
  "jsonPath": "Rock/Country Rock/Tracy Lawrence/while-you-sleep-lp-version.json",
  "path": "Rock\\Country Rock\\Tracy Lawrence\\While You Sleep (LP Version).mid",
  "name": "While You Sleep (LP Version)",
  "difficulty": "Advanced",
  "bpm": 132.000132000132,
  "notes": [
    {
      "midi": 64,
      "hit": false,
      "t": 1818.18,
      "d": 1368.36984375,
      "v": 68
    },
    {
      "midi": 67,
      "hit": false,
      "t": 1818.18,
      "d": 1384.9417968750001,
      "v": 66
    },
    {
      "midi": 55,
      "hit": false,
      "t": 1818.18,
      "d": 1387.3092187500004,
      "v": 96
    },
    {
      "midi": 60,
      "hit": false,
      "t": 1818.18,
      "d": 1394.4114843750006,
      "v": 74
    },
    {
      "midi": 48,
      "hit": false,
      "t": 1818.18,
      "d": 1396.7789062500008,
      "v": 96
    },
    {
      "midi": 55,
      "hit": false,
      "t": 3636.360000000001,
      "d": 1354.1653124999998,
      "v": 92
    },
    {
      "midi": 62,
      "hit": false,
      "t": 3636.360000000001,
      "d": 1363.6349999999998,
      "v": 62
    },
    {
      "midi": 59,
      "hit": false,
      "t": 3636.360000000001,
      "d": 1384.941796875,
      "v": 70
    },
    {
      "midi": 67,
      "hit": false,
      "t": 3636.360000000001,
      "d": 1384.941796875,
      "v": 70
    },
    {
      "midi": 47,
      "hit": false,
      "t": 3636.360000000001,
      "d": 1403.8811718749998,
      "v": 84
    },
    {
      "midi": 57,
      "hit": false,
      "t": 5454.540000000001,
      "d": 1214.487421875,
      "v": 62
    },
    {
      "midi": 52,
      "hit": false,
      "t": 5454.540000000001,
      "d": 1233.426796875,
      "v": 88
    },
    {
      "midi": 45,
      "hit": false,
      "t": 5454.540000000001,
      "d": 1240.5290624999998,
      "v": 92
    },
    {
      "midi": 60,
      "hit": false,
      "t": 5454.540000000001,
      "d": 1240.5290624999998,
      "v": 68
    },
    {
      "midi": 64,
      "hit": false,
      "t": 5454.540000000001,
      "d": 1245.2639062500002,
      "v": 78
    },
    {
      "midi": 55,
      "hit": false,
      "t": 7272.720000000001,
      "d": 1081.9117968749997,
      "v": 88
    },
    {
      "midi": 60,
      "hit": false,
      "t": 7272.720000000001,
      "d": 1103.2185937499999,
      "v": 80
    },
    {
      "midi": 64,
      "hit": false,
      "t": 7272.720000000001,
      "d": 1117.4231249999993,
      "v": 70
    },
    {
      "midi": 52,
      "hit": false,
      "t": 7272.720000000001,
      "d": 1119.7905468749996,
      "v": 88
    },
    {
      "midi": 43,
      "hit": false,
      "t": 7272.720000000001,
      "d": 1167.1389843750003,
      "v": 100
    },
    {
      "midi": 69,
      "hit": false,
      "t": 9090.900000000001,
      "d": 1354.1653124999993,
      "v": 80
    },
    {
      "midi": 53,
      "hit": false,
      "t": 9090.900000000001,
      "d": 1370.737265624999,
      "v": 96
    },
    {
      "midi": 65,
      "hit": false,
      "t": 9090.900000000001,
      "d": 1382.5743749999983,
      "v": 78
    },
    {
      "midi": 60,
      "hit": false,
      "t": 9090.900000000001,
      "d": 1384.9417968749985,
      "v": 80
    },
    {
      "midi": 41,
      "hit": false,
      "t": 9090.900000000001,
      "d": 1410.9834374999991,
      "v": 96
    },
    {
      "midi": 64,
      "hit": false,
      "t": 10909.08,
      "d": 1022.7262499999997,
      "v": 74
    },
    {
      "midi": 59,
      "hit": false,
      "t": 10909.08,
      "d": 1025.093671875,
      "v": 74
    },
    {
      "midi": 67,
      "hit": false,
      "t": 10909.08,
      "d": 1055.8701562499991,
      "v": 74
    },
    {
      "midi": 40,
      "hit": false,
      "t": 10909.08,
      "d": 1065.33984375,
      "v": 88
    },
    {
      "midi": 52,
      "hit": false,
      "t": 10909.08,
      "d": 1070.0746875000004,
      "v": 88
    },
    {
      "midi": 69,
      "hit": false,
      "t": 12727.26,
      "d": 563.4464062499992,
      "v": 100
    },
    {
      "midi": 72,
      "hit": false,
      "t": 12727.26,
      "d": 563.4464062499992,
      "v": 110
    },
    {
      "midi": 45,
      "hit": false,
      "t": 12727.26,
      "d": 3629.257734375,
      "v": 100
    },
    {
      "midi": 57,
      "hit": false,
      "t": 13181.805,
      "d": 3181.8150000000005,
      "v": 80
    },
    {
      "midi": 69,
      "hit": false,
      "t": 13409.0775,
      "d": 435.60562500000015,
      "v": 96
    },
    {
      "midi": 72,
      "hit": false,
      "t": 13409.0775,
      "d": 480.58664062500065,
      "v": 88
    },
    {
      "midi": 67,
      "hit": false,
      "t": 14090.895,
      "d": 300.66257812500044,
      "v": 100
    },
    {
      "midi": 71,
      "hit": false,
      "t": 14090.895,
      "d": 364.5829687500009,
      "v": 106
    },
    {
      "midi": 64,
      "hit": false,
      "t": 14545.44,
      "d": 1815.812578125,
      "v": 110
    },
    {
      "midi": 69,
      "hit": false,
      "t": 14545.44,
      "d": 1851.3239062500015,
      "v": 88
    },
    {
      "midi": 64,
      "hit": false,
      "t": 15442.692890625,
      "d": 262.78382812499876,
      "v": 50
    },
    {
      "midi": 67,
      "hit": false,
      "t": 15651.026015624999,
      "d": 291.19289062499956,
      "v": 29
    },
    {
      "midi": 69,
      "hit": false,
      "t": 15901.972734374998,
      "d": 669.9803906249981,
      "v": 34
    },
    {
      "midi": 64,
      "hit": false,
      "t": 16363.62,
      "d": 1325.7562500000004,
      "v": 78
    },
    {
      "midi": 55,
      "hit": false,
      "t": 16363.62,
      "d": 1342.328203125,
      "v": 96
    },
    {
      "midi": 60,
      "hit": false,
      "t": 16363.62,
      "d": 1347.0630468750005,
      "v": 74
    },
    {
      "midi": 67,
      "hit": false,
      "t": 16363.62,
      "d": 1349.430468749999,
      "v": 78
    },
    {
      "midi": 48,
      "hit": false,
      "t": 16363.62,
      "d": 1361.2675781249982,
      "v": 96
    },
    {
      "midi": 67,
      "hit": false,
      "t": 16548.278906249998,
      "d": 703.1242968749975,
      "v": 14
    },
    {
      "midi": 64,
      "hit": false,
      "t": 17251.403203124995,
      "d": 260.41640624999854,
      "v": 48
    },
    {
      "midi": 67,
      "hit": false,
      "t": 17462.103749999995,
      "d": 234.37476562499796,
      "v": 42
    },
    {
      "midi": 69,
      "hit": false,
      "t": 17708.315624999992,
      "d": 800.188593750001,
      "v": 30
    },
    {
      "midi": 55,
      "hit": false,
      "t": 18181.8,
      "d": 1349.4304687500007,
      "v": 92
    },
    {
      "midi": 62,
      "hit": false,
      "t": 18181.8,
      "d": 1368.3698437500025,
      "v": 74
    },
    {
      "midi": 67,
      "hit": false,
      "t": 18181.8,
      "d": 1377.8395312500033,
      "v": 68
    },
    {
      "midi": 59,
      "hit": false,
      "t": 18181.8,
      "d": 1389.6766406250026,
      "v": 74
    },
    {
      "midi": 47,
      "hit": false,
      "t": 18181.8,
      "d": 1396.7789062500015,
      "v": 84
    },
    {
      "midi": 64,
      "hit": false,
      "t": 19301.59054687499,
      "d": 274.62093749999985,
      "v": 39
    },
    {
      "midi": 67,
      "hit": false,
      "t": 19521.760781249992,
      "d": 227.27249999999913,
      "v": 33
    },
    {
      "midi": 69,
      "hit": false,
      "t": 19760.87039062499,
      "d": 651.041015625,
      "v": 53
    },
    {
      "midi": 52,
      "hit": false,
      "t": 19999.98,
      "d": 1245.263906250002,
      "v": 92
    },
    {
      "midi": 64,
      "hit": false,
      "t": 19999.98,
      "d": 1266.5707031250022,
      "v": 80
    },
    {
      "midi": 60,
      "hit": false,
      "t": 19999.98,
      "d": 1280.7752343750035,
      "v": 68
    },
    {
      "midi": 57,
      "hit": false,
      "t": 19999.98,
      "d": 1285.510078125004,
      "v": 78
    },
    {
      "midi": 45,
      "hit": false,
      "t": 19999.98,
      "d": 1294.9797656250048,
      "v": 100
    },
    {
      "midi": 71,
      "hit": false,
      "t": 20416.64624999999,
      "d": 317.23453125000015,
      "v": 40
    },
    {
      "midi": 69,
      "hit": false,
      "t": 20653.38843749999,
      "d": 487.6889062500013,
      "v": 39
    },
    {
      "midi": 67,
      "hit": false,
      "t": 21084.25921874999,
      "d": 272.25351562500146,
      "v": 50
    },
    {
      "midi": 64,
      "hit": false,
      "t": 21332.838515624993,
      "d": 857.006718749999,
      "v": 55
    },
    {
      "midi": 55,
      "hit": false,
      "t": 21818.160000000003,
      "d": 1001.4194531249996,
      "v": 80
    },
    {
      "midi": 60,
      "hit": false,
      "t": 21818.160000000003,
      "d": 1020.3588281250013,
      "v": 80
    },
    {
      "midi": 64,
      "hit": false,
      "t": 21818.160000000003,
      "d": 1039.298203125003,
      "v": 70
    },
    {
      "midi": 52,
      "hit": false,
      "t": 21818.160000000003,
      "d": 1048.767890625004,
      "v": 74
    },
    {
      "midi": 43,
      "hit": false,
      "t": 21818.160000000003,
      "d": 1098.483750000003,
      "v": 92
    },
    {
      "midi": 69,
      "hit": false,
      "t": 23624.502890624994,
      "d": 1017.9914062499993,
      "v": 58
    },
    {
      "midi": 53,
      "hit": false,
      "t": 23636.340000000007,
      "d": 1335.2259374999994,
      "v": 96
    },
    {
      "midi": 60,
      "hit": false,
      "t": 23636.340000000007,
      "d": 1342.3282031249983,
      "v": 78
    },
    {
      "midi": 65,
      "hit": false,
      "t": 23636.340000000007,
      "d": 1351.7978906249991,
      "v": 78
    },
    {
      "midi": 69,
      "hit": false,
      "t": 23636.340000000007,
      "d": 1351.7978906249991,
      "v": 74
    },
    {
      "midi": 41,
      "hit": false,
      "t": 23636.340000000007,
      "d": 1408.6160156250007,
      "v": 70
    },
    {
      "midi": 69,
      "hit": false,
      "t": 24995.240156249994,
      "d": 137.31046875000175,
      "v": 46
    },
    {
      "midi": 69,
      "hit": false,
      "t": 25210.675546874998,
      "d": 187.02632812500087,
      "v": 42
    },
    {
      "midi": 67,
      "hit": false,
      "t": 25428.478359375,
      "d": 485.3214843749993,
      "v": 42
    },
    {
      "midi": 64,
      "hit": false,
      "t": 25454.52000000001,
      "d": 1287.8775000000023,
      "v": 78
    },
    {
      "midi": 67,
      "hit": false,
      "t": 25454.52000000001,
      "d": 1290.2449218750007,
      "v": 84
    },
    {
      "midi": 40,
      "hit": false,
      "t": 25454.52000000001,
      "d": 1309.1842968750025,
      "v": 92
    },
    {
      "midi": 59,
      "hit": false,
      "t": 25454.52000000001,
      "d": 1309.1842968750025,
      "v": 78
    },
    {
      "midi": 52,
      "hit": false,
      "t": 25454.52000000001,
      "d": 1323.3888281250038,
      "v": 88
    },
    {
      "midi": 64,
      "hit": false,
      "t": 25887.758203125,
      "d": 272.25351562500146,
      "v": 47
    },
    {
      "midi": 67,
      "hit": false,
      "t": 26112.66328125,
      "d": 490.05632812500335,
      "v": 58
    },
    {
      "midi": 64,
      "hit": false,
      "t": 26550.636328125,
      "d": 284.0906250000007,
      "v": 48
    },
    {
      "midi": 69,
      "hit": false,
      "t": 26782.643671875,
      "d": 598.9577343750025,
      "v": 50
    },
    {
      "midi": 57,
      "hit": false,
      "t": 27272.700000000015,
      "d": 3051.6067968749994,
      "v": 68
    },
    {
      "midi": 60,
      "hit": false,
      "t": 27272.700000000015,
      "d": 3070.546171875001,
      "v": 78
    },
    {
      "midi": 64,
      "hit": false,
      "t": 27272.700000000015,
      "d": 3080.015859375002,
      "v": 92
    },
    {
      "midi": 45,
      "hit": false,
      "t": 27272.700000000015,
      "d": 3143.9362500000025,
      "v": 96
    },
    {
      "midi": 52,
      "hit": false,
      "t": 27272.700000000015,
      "d": 3148.671093750003,
      "v": 92
    },
    {
      "midi": 69,
      "hit": false,
      "t": 27497.605078125005,
      "d": 520.8328125000007,
      "v": 50
    },
    {
      "midi": 64,
      "hit": false,
      "t": 29976.295781250006,
      "d": 258.04898437500015,
      "v": 55
    },
    {
      "midi": 67,
      "hit": false,
      "t": 30179.894062500007,
      "d": 224.90507812500073,
      "v": 48
    },
    {
      "midi": 69,
      "hit": false,
      "t": 30416.636250000007,
      "d": 717.3288281249988,
      "v": 48
    },
    {
      "midi": 48,
      "hit": false,
      "t": 30909.06000000002,
      "d": 1339.9607812499962,
      "v": 96
    },
    {
      "midi": 55,
      "hit": false,
      "t": 30909.06000000002,
      "d": 1342.3282031249946,
      "v": 100
    },
    {
      "midi": 60,
      "hit": false,
      "t": 30909.06000000002,
      "d": 1347.063046874995,
      "v": 78
    },
    {
      "midi": 64,
      "hit": false,
      "t": 30909.06000000002,
      "d": 1349.4304687499935,
      "v": 74
    },
    {
      "midi": 67,
      "hit": false,
      "t": 30909.06000000002,
      "d": 1358.9001562499943,
      "v": 70
    },
    {
      "midi": 67,
      "hit": false,
      "t": 31096.086328125006,
      "d": 553.9767187500001,
      "v": 41
    },
    {
      "midi": 64,
      "hit": false,
      "t": 31815.782578125007,
      "d": 260.4164062500022,
      "v": 50
    },
    {
      "midi": 67,
      "hit": false,
      "t": 32024.115703125008,
      "d": 255.68156250000175,
      "v": 40
    },
    {
      "midi": 69,
      "hit": false,
      "t": 32270.32757812501,
      "d": 823.8628124999996,
      "v": 56
    },
    {
      "midi": 59,
      "hit": false,
      "t": 32727.240000000013,
      "d": 1294.9797656250012,
      "v": 78
    },
    {
      "midi": 67,
      "hit": false,
      "t": 32727.240000000013,
      "d": 1297.3471875000032,
      "v": 78
    },
    {
      "midi": 62,
      "hit": false,
      "t": 32727.240000000013,
      "d": 1299.7146093750052,
      "v": 80
    },
    {
      "midi": 55,
      "hit": false,
      "t": 32727.240000000013,
      "d": 1302.0820312500073,
      "v": 96
    },
    {
      "midi": 47,
      "hit": false,
      "t": 32727.240000000013,
      "d": 1337.5933593750087,
      "v": 84
    },
    {
      "midi": 64,
      "hit": false,
      "t": 33830.45859375001,
      "d": 248.57929687499563,
      "v": 58
    },
    {
      "midi": 67,
      "hit": false,
      "t": 34038.791718750006,
      "d": 236.7421875,
      "v": 50
    },
    {
      "midi": 69,
      "hit": false,
      "t": 34287.37101562501,
      "d": 696.0220312500023,
      "v": 55
    },
    {
      "midi": 45,
      "hit": false,
      "t": 34545.42000000002,
      "d": 1266.5707031249985,
      "v": 106
    },
    {
      "midi": 52,
      "hit": false,
      "t": 34545.42000000002,
      "d": 1280.7752343749962,
      "v": 96
    },
    {
      "midi": 64,
      "hit": false,
      "t": 34545.42000000002,
      "d": 1283.1426562499983,
      "v": 88
    },
    {
      "midi": 57,
      "hit": false,
      "t": 34545.42000000002,
      "d": 1285.5100781250003,
      "v": 70
    },
    {
      "midi": 60,
      "hit": false,
      "t": 34545.42000000002,
      "d": 1290.244921874997,
      "v": 84
    },
    {
      "midi": 71,
      "hit": false,
      "t": 34971.55593750001,
      "d": 312.499687500007,
      "v": 48
    },
    {
      "midi": 69,
      "hit": false,
      "t": 35205.930703125014,
      "d": 487.68890625000495,
      "v": 52
    },
    {
      "midi": 67,
      "hit": false,
      "t": 35634.43406250002,
      "d": 265.15124999999534,
      "v": 58
    },
    {
      "midi": 64,
      "hit": false,
      "t": 35875.911093750015,
      "d": 651.041015625,
      "v": 58
    },
    {
      "midi": 55,
      "hit": false,
      "t": 36363.60000000002,
      "d": 1110.3208593750023,
      "v": 80
    },
    {
      "midi": 60,
      "hit": false,
      "t": 36363.60000000002,
      "d": 1115.0557031249991,
      "v": 84
    },
    {
      "midi": 64,
      "hit": false,
      "t": 36363.60000000002,
      "d": 1141.0973437499997,
      "v": 78
    },
    {
      "midi": 52,
      "hit": false,
      "t": 36363.60000000002,
      "d": 1150.5670312500006,
      "v": 80
    },
    {
      "midi": 43,
      "hit": false,
      "t": 36363.60000000002,
      "d": 1193.1806250000009,
      "v": 100
    },
    {
      "midi": 60,
      "hit": false,
      "t": 37916.62875000002,
      "d": 288.8254687499939,
      "v": 52
    },
    {
      "midi": 69,
      "hit": false,
      "t": 38158.105781250015,
      "d": 1183.7109375,
      "v": 63
    },
    {
      "midi": 69,
      "hit": false,
      "t": 38181.78000000002,
      "d": 1406.2485937500023,
      "v": 74
    },
    {
      "midi": 65,
      "hit": false,
      "t": 38181.78000000002,
      "d": 1415.7182812500032,
      "v": 84
    },
    {
      "midi": 53,
      "hit": false,
      "t": 38181.78000000002,
      "d": 1425.187968750004,
      "v": 100
    },
    {
      "midi": 60,
      "hit": false,
      "t": 38181.78000000002,
      "d": 1437.025078125007,
      "v": 80
    },
    {
      "midi": 41,
      "hit": false,
      "t": 38181.78000000002,
      "d": 1451.2296093750047,
      "v": 78
    },
    {
      "midi": 69,
      "hit": false,
      "t": 39786.89203125001,
      "d": 276.98835937499825,
      "v": 55
    },
    {
      "midi": 64,
      "hit": false,
      "t": 39999.96000000003,
      "d": 1235.794218749994,
      "v": 74
    },
    {
      "midi": 67,
      "hit": false,
      "t": 39999.96000000003,
      "d": 1245.2639062499948,
      "v": 80
    },
    {
      "midi": 59,
      "hit": false,
      "t": 39999.96000000003,
      "d": 1247.6313281249968,
      "v": 84
    },
    {
      "midi": 40,
      "hit": false,
      "t": 39999.96000000003,
      "d": 1259.4684374999997,
      "v": 100
    },
    {
      "midi": 52,
      "hit": false,
      "t": 39999.96000000003,
      "d": 1264.2032812499965,
      "v": 78
    },
    {
      "midi": 67,
      "hit": false,
      "t": 40016.53195312501,
      "d": 475.85179687499476,
      "v": 63
    },
    {
      "midi": 64,
      "hit": false,
      "t": 40471.07695312501,
      "d": 262.7838281249933,
      "v": 56
    },
    {
      "midi": 67,
      "hit": false,
      "t": 40691.247187500005,
      "d": 501.8934375000026,
      "v": 52
    },
    {
      "midi": 64,
      "hit": false,
      "t": 41131.587656250005,
      "d": 265.1512500000026,
      "v": 55
    },
    {
      "midi": 69,
      "hit": false,
      "t": 41370.69726562501,
      "d": 596.5903125000041,
      "v": 61
    },
    {
      "midi": 57,
      "hit": false,
      "t": 41818.14000000003,
      "d": 1254.7335937499956,
      "v": 80
    },
    {
      "midi": 60,
      "hit": false,
      "t": 41818.14000000003,
      "d": 1254.7335937499956,
      "v": 80
    },
    {
      "midi": 52,
      "hit": false,
      "t": 41818.14000000003,
      "d": 1273.6729687499974,
      "v": 84
    },
    {
      "midi": 64,
      "hit": false,
      "t": 41818.14000000003,
      "d": 1276.0403906249994,
      "v": 84
    },
    {
      "midi": 45,
      "hit": false,
      "t": 41818.14000000003,
      "d": 1302.08203125,
      "v": 106
    },
    {
      "midi": 69,
      "hit": false,
      "t": 42069.08671875001,
      "d": 620.2645312500026,
      "v": 61
    },
    {
      "midi": 57,
      "hit": false,
      "t": 43636.32000000003,
      "d": 1167.1389843750003,
      "v": 92
    },
    {
      "midi": 66,
      "hit": false,
      "t": 43636.32000000003,
      "d": 1181.343515624998,
      "v": 78
    },
    {
      "midi": 62,
      "hit": false,
      "t": 43636.32000000003,
      "d": 1200.2828906249997,
      "v": 78
    },
    {
      "midi": 38,
      "hit": false,
      "t": 43636.32000000003,
      "d": 1223.9571093749983,
      "v": 96
    },
    {
      "midi": 50,
      "hit": false,
      "t": 43636.32000000003,
      "d": 1226.3245312500003,
      "v": 110
    },
    {
      "midi": 60,
      "hit": false,
      "t": 45454.50000000003,
      "d": 1091.3814843750006,
      "v": 92
    },
    {
      "midi": 65,
      "hit": false,
      "t": 45454.50000000003,
      "d": 1098.4837499999994,
      "v": 80
    },
    {
      "midi": 53,
      "hit": false,
      "t": 45454.50000000003,
      "d": 1143.4647656250017,
      "v": 100
    },
    {
      "midi": 69,
      "hit": false,
      "t": 45454.50000000003,
      "d": 1145.8321875000038,
      "v": 78
    },
    {
      "midi": 41,
      "hit": false,
      "t": 45454.50000000003,
      "d": 1190.813203125006,
      "v": 96
    },
    {
      "midi": 69,
      "hit": false,
      "t": 46597.964765625016,
      "d": 118.37109375,
      "v": 56
    },
    {
      "midi": 69,
      "hit": false,
      "t": 46803.93046875002,
      "d": 182.2914843749968,
      "v": 48
    },
    {
      "midi": 71,
      "hit": false,
      "t": 47026.468125000014,
      "d": 568.1812500000015,
      "v": 56
    },
    {
      "midi": 67,
      "hit": false,
      "t": 47272.68000000004,
      "d": 1254.733593750003,
      "v": 74
    },
    {
      "midi": 71,
      "hit": false,
      "t": 47272.68000000004,
      "d": 1261.8358593750017,
      "v": 84
    },
    {
      "midi": 62,
      "hit": false,
      "t": 47272.68000000004,
      "d": 1271.3055468750026,
      "v": 78
    },
    {
      "midi": 55,
      "hit": false,
      "t": 47272.68000000004,
      "d": 1297.3471875000032,
      "v": 100
    },
    {
      "midi": 43,
      "hit": false,
      "t": 47272.68000000004,
      "d": 1302.08203125,
      "v": 96
    },
    {
      "midi": 71,
      "hit": false,
      "t": 47722.490156250016,
      "d": 267.51867187500466,
      "v": 42
    },
    {
      "midi": 69,
      "hit": false,
      "t": 47945.02781250002,
      "d": 452.1775781250035,
      "v": 55
    },
    {
      "midi": 67,
      "hit": false,
      "t": 48359.32664062502,
      "d": 279.35578125000757,
      "v": 64
    },
    {
      "midi": 72,
      "hit": false,
      "t": 48577.129453125024,
      "d": 298.29515625000204,
      "v": 42
    },
    {
      "midi": 69,
      "hit": false,
      "t": 48813.871640625024,
      "d": 788.3514843750017,
      "v": 56
    },
    {
      "midi": 64,
      "hit": false,
      "t": 49090.86000000004,
      "d": 3191.284687500003,
      "v": 84
    },
    {
      "midi": 60,
      "hit": false,
      "t": 49090.86000000004,
      "d": 3207.856640625003,
      "v": 84
    },
    {
      "midi": 69,
      "hit": false,
      "t": 49090.86000000004,
      "d": 3210.224062500005,
      "v": 92
    },
    {
      "midi": 57,
      "hit": false,
      "t": 49090.86000000004,
      "d": 3224.4285937500026,
      "v": 88
    },
    {
      "midi": 45,
      "hit": false,
      "t": 49090.86000000004,
      "d": 3271.7770312499997,
      "v": 96
    },
    {
      "midi": 60,
      "hit": false,
      "t": 52727.22000000003,
      "d": 1072.4421093749988,
      "v": 74
    },
    {
      "midi": 65,
      "hit": false,
      "t": 52727.22000000003,
      "d": 1089.0140624999985,
      "v": 80
    },
    {
      "midi": 69,
      "hit": false,
      "t": 52727.22000000003,
      "d": 1131.6276562499988,
      "v": 74
    },
    {
      "midi": 41,
      "hit": false,
      "t": 52727.22000000003,
      "d": 1150.5670312500006,
      "v": 88
    },
    {
      "midi": 53,
      "hit": false,
      "t": 52727.22000000003,
      "d": 1152.9344531250026,
      "v": 92
    },
    {
      "midi": 69,
      "hit": false,
      "t": 53842.27570312502,
      "d": 132.57562499999767,
      "v": 64
    },
    {
      "midi": 69,
      "hit": false,
      "t": 54064.81335937502,
      "d": 168.08695312499913,
      "v": 50
    },
    {
      "midi": 71,
      "hit": false,
      "t": 54284.98359375002,
      "d": 582.3857812499991,
      "v": 48
    },
    {
      "midi": 67,
      "hit": false,
      "t": 54545.40000000003,
      "d": 1280.7752343749962,
      "v": 74
    },
    {
      "midi": 71,
      "hit": false,
      "t": 54545.40000000003,
      "d": 1283.1426562499983,
      "v": 80
    },
    {
      "midi": 62,
      "hit": false,
      "t": 54545.40000000003,
      "d": 1287.877499999995,
      "v": 78
    },
    {
      "midi": 55,
      "hit": false,
      "t": 54545.40000000003,
      "d": 1313.9191406249956,
      "v": 96
    },
    {
      "midi": 43,
      "hit": false,
      "t": 54545.40000000003,
      "d": 1330.4910937499953,
      "v": 100
    },
    {
      "midi": 71,
      "hit": false,
      "t": 54978.63820312502,
      "d": 172.8217968750032,
      "v": 55
    },
    {
      "midi": 69,
      "hit": false,
      "t": 55201.17585937502,
      "d": 471.11695312499796,
      "v": 58
    },
    {
      "midi": 67,
      "hit": false,
      "t": 55655.72085937502,
      "d": 255.68156250000175,
      "v": 50
    },
    {
      "midi": 72,
      "hit": false,
      "t": 55878.25851562502,
      "d": 279.3557812500003,
      "v": 30
    },
    {
      "midi": 69,
      "hit": false,
      "t": 56117.36812500002,
      "d": 783.6166406249977,
      "v": 58
    },
    {
      "midi": 64,
      "hit": false,
      "t": 56363.58000000003,
      "d": 3169.9778906249994,
      "v": 88
    },
    {
      "midi": 60,
      "hit": false,
      "t": 56363.58000000003,
      "d": 3172.3453125000015,
      "v": 84
    },
    {
      "midi": 69,
      "hit": false,
      "t": 56363.58000000003,
      "d": 3188.917265625001,
      "v": 84
    },
    {
      "midi": 57,
      "hit": false,
      "t": 56363.58000000003,
      "d": 3210.2240624999977,
      "v": 92
    },
    {
      "midi": 45,
      "hit": false,
      "t": 56363.58000000003,
      "d": 3226.7960156249974,
      "v": 96
    },
    {
      "midi": 64,
      "hit": false,
      "t": 59067.17578125002,
      "d": 250.94671875000495,
      "v": 63
    },
    {
      "midi": 67,
      "hit": false,
      "t": 59280.24375000002,
      "d": 236.7421875,
      "v": 63
    },
    {
      "midi": 69,
      "hit": false,
      "t": 59519.353359375025,
      "d": 686.5523437499942,
      "v": 68
    },
    {
      "midi": 64,
      "hit": false,
      "t": 59999.94000000003,
      "d": 1278.4078125000015,
      "v": 84
    },
    {
      "midi": 67,
      "hit": false,
      "t": 59999.94000000003,
      "d": 1285.5100781250003,
      "v": 92
    },
    {
      "midi": 60,
      "hit": false,
      "t": 59999.94000000003,
      "d": 1294.9797656250012,
      "v": 84
    },
    {
      "midi": 55,
      "hit": false,
      "t": 59999.94000000003,
      "d": 1306.816875000004,
      "v": 106
    },
    {
      "midi": 48,
      "hit": false,
      "t": 59999.94000000003,
      "d": 1321.0214062500017,
      "v": 92
    },
    {
      "midi": 67,
      "hit": false,
      "t": 60158.55726562502,
      "d": 693.6546093750003,
      "v": 53
    },
    {
      "midi": 64,
      "hit": false,
      "t": 60868.78382812502,
      "d": 288.82546875000116,
      "v": 55
    },
    {
      "midi": 67,
      "hit": false,
      "t": 61091.321484375025,
      "d": 229.63992187500116,
      "v": 52
    },
    {
      "midi": 69,
      "hit": false,
      "t": 61325.69625000002,
      "d": 731.5333593749965,
      "v": 64
    },
    {
      "midi": 67,
      "hit": false,
      "t": 61818.12000000003,
      "d": 1271.3055468749953,
      "v": 80
    },
    {
      "midi": 62,
      "hit": false,
      "t": 61818.12000000003,
      "d": 1273.6729687499974,
      "v": 70
    },
    {
      "midi": 55,
      "hit": false,
      "t": 61818.12000000003,
      "d": 1294.979765624994,
      "v": 88
    },
    {
      "midi": 59,
      "hit": false,
      "t": 61818.12000000003,
      "d": 1302.0820312499927,
      "v": 80
    },
    {
      "midi": 47,
      "hit": false,
      "t": 61818.12000000003,
      "d": 1337.5933593749942,
      "v": 80
    },
    {
      "midi": 64,
      "hit": false,
      "t": 62937.91054687502,
      "d": 272.25351562500146,
      "v": 56
    },
    {
      "midi": 67,
      "hit": false,
      "t": 63153.345937500024,
      "d": 227.27249999999913,
      "v": 52
    },
    {
      "midi": 69,
      "hit": false,
      "t": 63390.088125000024,
      "d": 627.3667968750015,
      "v": 58
    },
    {
      "midi": 52,
      "hit": false,
      "t": 63636.300000000025,
      "d": 1309.1842968749988,
      "v": 84
    },
    {
      "midi": 60,
      "hit": false,
      "t": 63636.300000000025,
      "d": 1328.1236718750006,
      "v": 68
    },
    {
      "midi": 64,
      "hit": false,
      "t": 63636.300000000025,
      "d": 1330.4910937500026,
      "v": 88
    },
    {
      "midi": 45,
      "hit": false,
      "t": 63636.300000000025,
      "d": 1332.8585156250047,
      "v": 100
    },
    {
      "midi": 57,
      "hit": false,
      "t": 63636.300000000025,
      "d": 1342.3282031250055,
      "v": 74
    },
    {
      "midi": 71,
      "hit": false,
      "t": 64019.82234375003,
      "d": 329.0716406249994,
      "v": 50
    },
    {
      "midi": 69,
      "hit": false,
      "t": 64263.666796875026,
      "d": 511.3631250000035,
      "v": 48
    },
    {
      "midi": 67,
      "hit": false,
      "t": 64739.51859375003,
      "d": 272.25351562500146,
      "v": 66
    },
    {
      "midi": 64,
      "hit": false,
      "t": 64971.52593750003,
      "d": 175.18921874999796,
      "v": 55
    },
    {
      "midi": 64,
      "hit": false,
      "t": 65208.26812500003,
      "d": 492.42375000000175,
      "v": 48
    },
    {
      "midi": 55,
      "hit": false,
      "t": 65454.48000000003,
      "d": 1276.0403906249921,
      "v": 78
    },
    {
      "midi": 60,
      "hit": false,
      "t": 65454.48000000003,
      "d": 1299.714609374998,
      "v": 74
    },
    {
      "midi": 64,
      "hit": false,
      "t": 65454.48000000003,
      "d": 1316.286562500005,
      "v": 74
    },
    {
      "midi": 52,
      "hit": false,
      "t": 65454.48000000003,
      "d": 1351.7978906249991,
      "v": 88
    },
    {
      "midi": 43,
      "hit": false,
      "t": 65454.48000000003,
      "d": 1399.1463281249962,
      "v": 96
    },
    {
      "midi": 60,
      "hit": false,
      "t": 66993.30421875004,
      "d": 248.5792968750029,
      "v": 56
    },
    {
      "midi": 69,
      "hit": false,
      "t": 67218.20929687504,
      "d": 1470.1689843750064,
      "v": 72
    },
    {
      "midi": 60,
      "hit": false,
      "t": 67272.66000000002,
      "d": 1351.7978906250064,
      "v": 88
    },
    {
      "midi": 69,
      "hit": false,
      "t": 67272.66000000002,
      "d": 1377.839531250007,
      "v": 92
    },
    {
      "midi": 53,
      "hit": false,
      "t": 67272.66000000002,
      "d": 1382.574375000011,
      "v": 92
    },
    {
      "midi": 65,
      "hit": false,
      "t": 67272.66000000002,
      "d": 1387.3092187500151,
      "v": 88
    },
    {
      "midi": 41,
      "hit": false,
      "t": 67272.66000000002,
      "d": 1418.0857031250198,
      "v": 88
    },
    {
      "midi": 67,
      "hit": false,
      "t": 69083.73773437504,
      "d": 456.91242187500757,
      "v": 66
    },
    {
      "midi": 59,
      "hit": false,
      "t": 69090.84000000004,
      "d": 1280.7752343750035,
      "v": 74
    },
    {
      "midi": 64,
      "hit": false,
      "t": 69090.84000000004,
      "d": 1280.7752343750035,
      "v": 70
    },
    {
      "midi": 40,
      "hit": false,
      "t": 69090.84000000004,
      "d": 1309.1842968749988,
      "v": 88
    },
    {
      "midi": 67,
      "hit": false,
      "t": 69090.84000000004,
      "d": 1313.919140625003,
      "v": 78
    },
    {
      "midi": 52,
      "hit": false,
      "t": 69090.84000000004,
      "d": 1316.2865624999977,
      "v": 88
    },
    {
      "midi": 64,
      "hit": false,
      "t": 69514.60851562505,
      "d": 258.0489843749965,
      "v": 42
    },
    {
      "midi": 67,
      "hit": false,
      "t": 69739.51359375005,
      "d": 461.6472656249971,
      "v": 56
    },
    {
      "midi": 64,
      "hit": false,
      "t": 70212.99796875005,
      "d": 376.4200781249965,
      "v": 63
    },
    {
      "midi": 69,
      "hit": false,
      "t": 70669.91039062504,
      "d": 1100.8511718749942,
      "v": 70
    },
    {
      "midi": 60,
      "hit": false,
      "t": 70909.02000000003,
      "d": 3196.01953125,
      "v": 78
    },
    {
      "midi": 64,
      "hit": false,
      "t": 70909.02000000003,
      "d": 3196.01953125,
      "v": 80
    },
    {
      "midi": 45,
      "hit": false,
      "t": 70909.02000000003,
      "d": 3203.121796874999,
      "v": 88
    },
    {
      "midi": 52,
      "hit": false,
      "t": 70909.02000000003,
      "d": 3203.121796874999,
      "v": 78
    },
    {
      "midi": 57,
      "hit": false,
      "t": 70909.02000000003,
      "d": 3203.121796874999,
      "v": 84
    },
    {
      "midi": 69,
      "hit": false,
      "t": 70909.02000000003,
      "d": 3229.1634374999994,
      "v": 84
    },
    {
      "midi": 64,
      "hit": false,
      "t": 73617.35062500004,
      "d": 232.00734374999593,
      "v": 58
    },
    {
      "midi": 67,
      "hit": false,
      "t": 73809.11179687503,
      "d": 227.27249999999185,
      "v": 64
    },
    {
      "midi": 69,
      "hit": false,
      "t": 74041.11914062503,
      "d": 710.2265625,
      "v": 66
    },
    {
      "midi": 64,
      "hit": false,
      "t": 74545.38000000003,
      "d": 1271.3055468749953,
      "v": 78
    },
    {
      "midi": 67,
      "hit": false,
      "t": 74545.38000000003,
      "d": 1287.8775000000023,
      "v": 74
    },
    {
      "midi": 60,
      "hit": false,
      "t": 74545.38000000003,
      "d": 1297.347187499996,
      "v": 78
    },
    {
      "midi": 48,
      "hit": false,
      "t": 74545.38000000003,
      "d": 1306.8168749999895,
      "v": 106
    },
    {
      "midi": 55,
      "hit": false,
      "t": 74545.38000000003,
      "d": 1309.1842968749843,
      "v": 106
    },
    {
      "midi": 67,
      "hit": false,
      "t": 74701.62984375002,
      "d": 672.3478125000111,
      "v": 70
    },
    {
      "midi": 64,
      "hit": false,
      "t": 75395.28445312503,
      "d": 269.8860937499994,
      "v": 58
    },
    {
      "midi": 67,
      "hit": false,
      "t": 75624.92437500003,
      "d": 232.00734374999593,
      "v": 52
    },
    {
      "midi": 69,
      "hit": false,
      "t": 75873.50367187503,
      "d": 864.1089843749942,
      "v": 55
    },
    {
      "midi": 59,
      "hit": false,
      "t": 76363.56000000001,
      "d": 1294.9797656250012,
      "v": 74
    },
    {
      "midi": 62,
      "hit": false,
      "t": 76363.56000000001,
      "d": 1294.9797656250012,
      "v": 80
    },
    {
      "midi": 67,
      "hit": false,
      "t": 76363.56000000001,
      "d": 1309.1842968749988,
      "v": 78
    },
    {
      "midi": 55,
      "hit": false,
      "t": 76363.56000000001,
      "d": 1323.3888281249965,
      "v": 96
    },
    {
      "midi": 47,
      "hit": false,
      "t": 76363.56000000001,
      "d": 1361.267578125,
      "v": 80
    },
    {
      "midi": 64,
      "hit": false,
      "t": 77492.82023437503,
      "d": 281.7232031250023,
      "v": 64
    },
    {
      "midi": 67,
      "hit": false,
      "t": 77710.62304687503,
      "d": 269.8860937499994,
      "v": 52
    },
    {
      "midi": 69,
      "hit": false,
      "t": 77940.26296875003,
      "d": 662.8781250000029,
      "v": 66
    },
    {
      "midi": 57,
      "hit": false,
      "t": 78181.74,
      "d": 1261.8358593750017,
      "v": 74
    },
    {
      "midi": 64,
      "hit": false,
      "t": 78181.74,
      "d": 1261.8358593750017,
      "v": 80
    },
    {
      "midi": 60,
      "hit": false,
      "t": 78181.74,
      "d": 1264.2032812499965,
      "v": 88
    },
    {
      "midi": 45,
      "hit": false,
      "t": 78181.74,
      "d": 1268.9381250000006,
      "v": 106
    },
    {
      "midi": 52,
      "hit": false,
      "t": 78181.74,
      "d": 1268.9381250000006,
      "v": 100
    },
    {
      "midi": 71,
      "hit": false,
      "t": 78605.50851562503,
      "d": 258.04898437501106,
      "v": 50
    },
    {
      "midi": 69,
      "hit": false,
      "t": 78832.78101562503,
      "d": 454.54499999999825,
      "v": 53
    },
    {
      "midi": 71,
      "hit": false,
      "t": 79292.06085937504,
      "d": 286.45804687499185,
      "v": 56
    },
    {
      "midi": 64,
      "hit": false,
      "t": 79531.17046875003,
      "d": 156.2498437500035,
      "v": 58
    },
    {
      "midi": 64,
      "hit": false,
      "t": 79758.44296875004,
      "d": 527.9350781249959,
      "v": 64
    },
    {
      "midi": 55,
      "hit": false,
      "t": 79999.92,
      "d": 1006.154296875,
      "v": 80
    },
    {
      "midi": 60,
      "hit": false,
      "t": 79999.92,
      "d": 1008.5217187499948,
      "v": 88
    },
    {
      "midi": 52,
      "hit": false,
      "t": 79999.92,
      "d": 1010.8891406249895,
      "v": 70
    },
    {
      "midi": 64,
      "hit": false,
      "t": 79999.92,
      "d": 1017.9914062499884,
      "v": 70
    },
    {
      "midi": 43,
      "hit": false,
      "t": 79999.92,
      "d": 1051.1353124999878,
      "v": 106
    },
    {
      "midi": 60,
      "hit": false,
      "t": 81569.52070312503,
      "d": 234.37476562500524,
      "v": 64
    },
    {
      "midi": 69,
      "hit": false,
      "t": 81799.16062500003,
      "d": 1297.3471875000105,
      "v": 81
    },
    {
      "midi": 65,
      "hit": false,
      "t": 81818.09999999998,
      "d": 1344.695624999993,
      "v": 80
    },
    {
      "midi": 53,
      "hit": false,
      "t": 81818.09999999998,
      "d": 1361.267578125,
      "v": 106
    },
    {
      "midi": 69,
      "hit": false,
      "t": 81818.09999999998,
      "d": 1373.104687500003,
      "v": 80
    },
    {
      "midi": 60,
      "hit": false,
      "t": 81818.09999999998,
      "d": 1380.2069531250017,
      "v": 84
    },
    {
      "midi": 41,
      "hit": false,
      "t": 81818.09999999998,
      "d": 1389.6766406249953,
      "v": 96
    },
    {
      "midi": 67,
      "hit": false,
      "t": 83160.42820312505,
      "d": 1432.290234375003,
      "v": 68
    },
    {
      "midi": 67,
      "hit": false,
      "t": 83636.27999999998,
      "d": 1280.7752343750035,
      "v": 80
    },
    {
      "midi": 64,
      "hit": false,
      "t": 83636.27999999998,
      "d": 1285.5100781250076,
      "v": 68
    },
    {
      "midi": 52,
      "hit": false,
      "t": 83636.27999999998,
      "d": 1297.3471875000105,
      "v": 78
    },
    {
      "midi": 40,
      "hit": false,
      "t": 83636.27999999998,
      "d": 1302.0820312500146,
      "v": 96
    },
    {
      "midi": 59,
      "hit": false,
      "t": 83636.27999999998,
      "d": 1313.9191406250175,
      "v": 78
    },
    {
      "midi": 64,
      "hit": false,
      "t": 84992.81273437505,
      "d": 250.94671874999767,
      "v": 58
    },
    {
      "midi": 69,
      "hit": false,
      "t": 85217.71781250005,
      "d": 305.3974218749936,
      "v": 76
    },
    {
      "midi": 52,
      "hit": false,
      "t": 85454.46,
      "d": 1086.6466406249965,
      "v": 74
    },
    {
      "midi": 57,
      "hit": false,
      "t": 85454.46,
      "d": 1093.7489062499953,
      "v": 70
    },
    {
      "midi": 60,
      "hit": false,
      "t": 85454.46,
      "d": 1100.8511718749942,
      "v": 74
    },
    {
      "midi": 64,
      "hit": false,
      "t": 85454.46,
      "d": 1115.0557031249919,
      "v": 84
    },
    {
      "midi": 45,
      "hit": false,
      "t": 85454.46,
      "d": 1145.8321874999965,
      "v": 96
    },
    {
      "midi": 69,
      "hit": false,
      "t": 85665.16054687505,
      "d": 307.7648437500029,
      "v": 55
    },
    {
      "midi": 64,
      "hit": false,
      "t": 86093.66390625005,
      "d": 414.298828125,
      "v": 70
    },
    {
      "midi": 57,
      "hit": false,
      "t": 87272.64000000001,
      "d": 1122.1579687500052,
      "v": 80
    },
    {
      "midi": 62,
      "hit": false,
      "t": 87272.64000000001,
      "d": 1152.93445312501,
      "v": 74
    },
    {
      "midi": 66,
      "hit": false,
      "t": 87272.64000000001,
      "d": 1164.7715625000128,
      "v": 52
    },
    {
      "midi": 50,
      "hit": false,
      "t": 87272.64000000001,
      "d": 1178.9760937500105,
      "v": 106
    },
    {
      "midi": 38,
      "hit": false,
      "t": 87272.64000000001,
      "d": 1221.5896875000035,
      "v": 96
    },
    {
      "midi": 60,
      "hit": false,
      "t": 89090.82000000002,
      "d": 1046.4004687499983,
      "v": 84
    },
    {
      "midi": 65,
      "hit": false,
      "t": 89090.82000000002,
      "d": 1098.4837499999994,
      "v": 78
    },
    {
      "midi": 69,
      "hit": false,
      "t": 89090.82000000002,
      "d": 1119.790546874996,
      "v": 84
    },
    {
      "midi": 53,
      "hit": false,
      "t": 89090.82000000002,
      "d": 1200.2828906249924,
      "v": 100
    },
    {
      "midi": 41,
      "hit": false,
      "t": 89090.82000000002,
      "d": 1276.0403906249994,
      "v": 80
    },
    {
      "midi": 69,
      "hit": false,
      "t": 90229.54992187505,
      "d": 127.8407812499936,
      "v": 53
    },
    {
      "midi": 69,
      "hit": false,
      "t": 90447.35273437505,
      "d": 163.35210937500233,
      "v": 29
    },
    {
      "midi": 71,
      "hit": false,
      "t": 90665.15554687504,
      "d": 589.4880468750052,
      "v": 81
    },
    {
      "midi": 71,
      "hit": false,
      "t": 90909.00000000003,
      "d": 1264.203281250011,
      "v": 74
    },
    {
      "midi": 67,
      "hit": false,
      "t": 90909.00000000003,
      "d": 1273.6729687500047,
      "v": 70
    },
    {
      "midi": 43,
      "hit": false,
      "t": 90909.00000000003,
      "d": 1283.1426562499983,
      "v": 100
    },
    {
      "midi": 55,
      "hit": false,
      "t": 90909.00000000003,
      "d": 1297.347187499996,
      "v": 100
    },
    {
      "midi": 62,
      "hit": false,
      "t": 90909.00000000003,
      "d": 1297.347187499996,
      "v": 70
    },
    {
      "midi": 71,
      "hit": false,
      "t": 91335.13593750005,
      "d": 163.35210937500233,
      "v": 66
    },
    {
      "midi": 69,
      "hit": false,
      "t": 91569.51070312505,
      "d": 464.01468749999185,
      "v": 56
    },
    {
      "midi": 67,
      "hit": false,
      "t": 92026.42312500004,
      "d": 217.80281249999825,
      "v": 70
    },
    {
      "midi": 72,
      "hit": false,
      "t": 92239.49109375004,
      "d": 260.4164062500058,
      "v": 66
    },
    {
      "midi": 69,
      "hit": false,
      "t": 92476.23328125004,
      "d": 954.0710156249988,
      "v": 72
    },
    {
      "midi": 64,
      "hit": false,
      "t": 92727.18000000002,
      "d": 1242.896484375,
      "v": 74
    },
    {
      "midi": 57,
      "hit": false,
      "t": 92727.18000000002,
      "d": 1247.631328125004,
      "v": 88
    },
    {
      "midi": 60,
      "hit": false,
      "t": 92727.18000000002,
      "d": 1278.4078125000087,
      "v": 70
    },
    {
      "midi": 69,
      "hit": false,
      "t": 92727.18000000002,
      "d": 1280.7752343750035,
      "v": 84
    },
    {
      "midi": 45,
      "hit": false,
      "t": 92727.18000000002,
      "d": 1323.3888281249965,
      "v": 100
    },
    {
      "midi": 57,
      "hit": false,
      "t": 94545.36000000002,
      "d": 1065.33984375,
      "v": 78
    },
    {
      "midi": 62,
      "hit": false,
      "t": 94545.36000000002,
      "d": 1079.5443749999977,
      "v": 78
    },
    {
      "midi": 66,
      "hit": false,
      "t": 94545.36000000002,
      "d": 1098.4837499999994,
      "v": 48
    },
    {
      "midi": 50,
      "hit": false,
      "t": 94545.36000000002,
      "d": 1129.260234375004,
      "v": 84
    },
    {
      "midi": 38,
      "hit": false,
      "t": 94545.36000000002,
      "d": 1148.1996093750058,
      "v": 92
    },
    {
      "midi": 60,
      "hit": false,
      "t": 96363.54000000002,
      "d": 1257.1010156249977,
      "v": 78
    },
    {
      "midi": 65,
      "hit": false,
      "t": 96363.54000000002,
      "d": 1268.9381250000006,
      "v": 78
    },
    {
      "midi": 53,
      "hit": false,
      "t": 96363.54000000002,
      "d": 1294.9797656250012,
      "v": 96
    },
    {
      "midi": 41,
      "hit": false,
      "t": 96363.54000000002,
      "d": 1304.4494531249948,
      "v": 74
    },
    {
      "midi": 69,
      "hit": false,
      "t": 96363.54000000002,
      "d": 1304.4494531249948,
      "v": 74
    },
    {
      "midi": 69,
      "hit": false,
      "t": 97478.59570312504,
      "d": 142.04531250000582,
      "v": 56
    },
    {
      "midi": 69,
      "hit": false,
      "t": 97710.60304687505,
      "d": 149.14757812500466,
      "v": 55
    },
    {
      "midi": 71,
      "hit": false,
      "t": 97928.40585937505,
      "d": 596.5903125000041,
      "v": 66
    },
    {
      "midi": 62,
      "hit": false,
      "t": 98181.72000000002,
      "d": 1190.8132031249988,
      "v": 88
    },
    {
      "midi": 67,
      "hit": false,
      "t": 98181.72000000002,
      "d": 1190.8132031249988,
      "v": 78
    },
    {
      "midi": 71,
      "hit": false,
      "t": 98181.72000000002,
      "d": 1197.9154687499977,
      "v": 80
    },
    {
      "midi": 43,
      "hit": false,
      "t": 98181.72000000002,
      "d": 1257.1010156249977,
      "v": 92
    },
    {
      "midi": 55,
      "hit": false,
      "t": 98181.72000000002,
      "d": 1257.1010156249977,
      "v": 100
    },
    {
      "midi": 71,
      "hit": false,
      "t": 98617.32562500006,
      "d": 175.18921875000524,
      "v": 68
    },
    {
      "midi": 69,
      "hit": false,
      "t": 98863.53750000006,
      "d": 388.2571874999994,
      "v": 48
    },
    {
      "midi": 67,
      "hit": false,
      "t": 99296.77570312507,
      "d": 215.4353906250035,
      "v": 64
    },
    {
      "midi": 72,
      "hit": false,
      "t": 99505.10882812507,
      "d": 229.63992187500116,
      "v": 68
    },
    {
      "midi": 69,
      "hit": false,
      "t": 99744.21843750007,
      "d": 838.0673437499936,
      "v": 55
    },
    {
      "midi": 60,
      "hit": false,
      "t": 99999.90000000001,
      "d": 1126.8928125000093,
      "v": 84
    },
    {
      "midi": 64,
      "hit": false,
      "t": 99999.90000000001,
      "d": 1152.93445312501,
      "v": 84
    },
    {
      "midi": 69,
      "hit": false,
      "t": 99999.90000000001,
      "d": 1186.0783593750093,
      "v": 88
    },
    {
      "midi": 57,
      "hit": false,
      "t": 99999.90000000001,
      "d": 1249.9987500000134,
      "v": 88
    },
    {
      "midi": 45,
      "hit": false,
      "t": 99999.90000000001,
      "d": 1266.5707031250204,
      "v": 106
    },
    {
      "midi": 61,
      "hit": false,
      "t": 101818.08000000003,
      "d": 1595.6423437500052,
      "v": 38
    },
    {
      "midi": 64,
      "hit": false,
      "t": 101818.08000000003,
      "d": 1614.581718750007,
      "v": 88
    },
    {
      "midi": 57,
      "hit": false,
      "t": 101818.08000000003,
      "d": 1631.153671875014,
      "v": 96
    },
    {
      "midi": 69,
      "hit": false,
      "t": 101818.08000000003,
      "d": 1631.153671875014,
      "v": 84
    },
    {
      "midi": 45,
      "hit": false,
      "t": 101818.08000000003,
      "d": 1659.5627343750093,
      "v": 100
    },
    {
      "midi": 66,
      "hit": false,
      "t": 102694.02609375006,
      "d": 220.17023437499302,
      "v": 48
    },
    {
      "midi": 69,
      "hit": false,
      "t": 102914.19632812505,
      "d": 201.23085937500582,
      "v": 70
    },
    {
      "midi": 71,
      "hit": false,
      "t": 103153.30593750006,
      "d": 691.2871874999983,
      "v": 64
    },
    {
      "midi": 66,
      "hit": false,
      "t": 103636.26000000004,
      "d": 1287.8775000000023,
      "v": 98
    },
    {
      "midi": 57,
      "hit": false,
      "t": 103636.26000000004,
      "d": 1302.08203125,
      "v": 92
    },
    {
      "midi": 62,
      "hit": false,
      "t": 103636.26000000004,
      "d": 1323.3888281249965,
      "v": 100
    },
    {
      "midi": 50,
      "hit": false,
      "t": 103636.26000000004,
      "d": 1330.4910937499953,
      "v": 106
    },
    {
      "midi": 69,
      "hit": false,
      "t": 103809.08179687506,
      "d": 606.0599999999977,
      "v": 58
    },
    {
      "midi": 66,
      "hit": false,
      "t": 104481.42960937506,
      "d": 187.0263281249936,
      "v": 48
    },
    {
      "midi": 69,
      "hit": false,
      "t": 104711.06953125005,
      "d": 198.8634374999965,
      "v": 61
    },
    {
      "midi": 71,
      "hit": false,
      "t": 104957.28140625004,
      "d": 632.1016406249983,
      "v": 52
    },
    {
      "midi": 57,
      "hit": false,
      "t": 105454.44000000003,
      "d": 937.4990625000064,
      "v": 88
    },
    {
      "midi": 49,
      "hit": false,
      "t": 105454.44000000003,
      "d": 956.4384375000081,
      "v": 90
    },
    {
      "midi": 61,
      "hit": false,
      "t": 105454.44000000003,
      "d": 963.540703125007,
      "v": 42
    },
    {
      "midi": 64,
      "hit": false,
      "t": 105454.44000000003,
      "d": 999.0520312500012,
      "v": 96
    },
    {
      "midi": 69,
      "hit": false,
      "t": 105620.15953125004,
      "d": 741.0030468750047,
      "v": 61
    },
    {
      "midi": 66,
      "hit": false,
      "t": 106560.02601562504,
      "d": 123.10593750000407,
      "v": 58
    },
    {
      "midi": 66,
      "hit": false,
      "t": 106780.19625000005,
      "d": 142.04531250000582,
      "v": 34
    },
    {
      "midi": 69,
      "hit": false,
      "t": 106988.52937500006,
      "d": 160.98468749999302,
      "v": 70
    },
    {
      "midi": 71,
      "hit": false,
      "t": 107230.00640625005,
      "d": 149.14757812500466,
      "v": 50
    },
    {
      "midi": 54,
      "hit": false,
      "t": 107272.62000000004,
      "d": 1233.4267968750064,
      "v": 106
    },
    {
      "midi": 62,
      "hit": false,
      "t": 107272.62000000004,
      "d": 1238.1616406250105,
      "v": 84
    },
    {
      "midi": 66,
      "hit": false,
      "t": 107272.62000000004,
      "d": 1242.8964843750146,
      "v": 66
    },
    {
      "midi": 59,
      "hit": false,
      "t": 107272.62000000004,
      "d": 1247.6313281250186,
      "v": 96
    },
    {
      "midi": 47,
      "hit": false,
      "t": 107272.62000000004,
      "d": 1261.8358593750163,
      "v": 96
    },
    {
      "midi": 71,
      "hit": false,
      "t": 107471.48343750005,
      "d": 137.31046875000175,
      "v": 46
    },
    {
      "midi": 71,
      "hit": false,
      "t": 107682.18398437505,
      "d": 203.59828125000058,
      "v": 29
    },
    {
      "midi": 73,
      "hit": false,
      "t": 107918.92617187505,
      "d": 213.06796874999418,
      "v": 51
    },
    {
      "midi": 71,
      "hit": false,
      "t": 108143.83125000005,
      "d": 243.84445312499884,
      "v": 61
    },
    {
      "midi": 69,
      "hit": false,
      "t": 108378.20601562505,
      "d": 229.6399218749866,
      "v": 41
    },
    {
      "midi": 66,
      "hit": false,
      "t": 108617.31562500003,
      "d": 677.0826562500006,
      "v": 80
    },
    {
      "midi": 57,
      "hit": false,
      "t": 109090.80000000005,
      "d": 461.64726562501164,
      "v": 92
    },
    {
      "midi": 62,
      "hit": false,
      "t": 109090.80000000005,
      "d": 475.8517968750093,
      "v": 78
    },
    {
      "midi": 66,
      "hit": false,
      "t": 109090.80000000005,
      "d": 497.1585937500058,
      "v": 52
    },
    {
      "midi": 54,
      "hit": false,
      "t": 109090.80000000005,
      "d": 1205.017734375011,
      "v": 78
    },
    {
      "midi": 45,
      "hit": false,
      "t": 109090.80000000005,
      "d": 1235.7942187500157,
      "v": 100
    },
    {
      "midi": 64,
      "hit": false,
      "t": 109772.61750000005,
      "d": 326.70421875000466,
      "v": 106
    },
    {
      "midi": 71,
      "hit": false,
      "t": 110887.67320312503,
      "d": 1010.8891406250041,
      "v": 70
    },
    {
      "midi": 55,
      "hit": false,
      "t": 110908.98000000007,
      "d": 1053.502734374997,
      "v": 106
    },
    {
      "midi": 62,
      "hit": false,
      "t": 110908.98000000007,
      "d": 1055.8701562499919,
      "v": 74
    },
    {
      "midi": 59,
      "hit": false,
      "t": 110908.98000000007,
      "d": 1084.2792187499872,
      "v": 96
    },
    {
      "midi": 43,
      "hit": false,
      "t": 110908.98000000007,
      "d": 1100.8511718749942,
      "v": 100
    },
    {
      "midi": 67,
      "hit": false,
      "t": 110908.98000000007,
      "d": 1105.5860156249983,
      "v": 100
    },
    {
      "midi": 69,
      "hit": false,
      "t": 112265.51273437504,
      "d": 849.9044531249965,
      "v": 72
    },
    {
      "midi": 61,
      "hit": false,
      "t": 112727.16000000006,
      "d": 1167.1389843750076,
      "v": 20
    },
    {
      "midi": 57,
      "hit": false,
      "t": 112727.16000000006,
      "d": 1171.8738281250116,
      "v": 88
    },
    {
      "midi": 42,
      "hit": false,
      "t": 112727.16000000006,
      "d": 1188.4457812500186,
      "v": 98
    },
    {
      "midi": 66,
      "hit": false,
      "t": 112727.16000000006,
      "d": 1188.4457812500186,
      "v": 48
    },
    {
      "midi": 54,
      "hit": false,
      "t": 112727.16000000006,
      "d": 1197.9154687500122,
      "v": 90
    },
    {
      "midi": 66,
      "hit": false,
      "t": 113648.08710937503,
      "d": 234.37476562500524,
      "v": 58
    },
    {
      "midi": 71,
      "hit": false,
      "t": 114048.18140625003,
      "d": 646.3061718749959,
      "v": 64
    },
    {
      "midi": 54,
      "hit": false,
      "t": 114545.34000000007,
      "d": 3193.6521093750052,
      "v": 90
    },
    {
      "midi": 62,
      "hit": false,
      "t": 114545.34000000007,
      "d": 3196.01953125,
      "v": 80
    },
    {
      "midi": 66,
      "hit": false,
      "t": 114545.34000000007,
      "d": 3214.9589062500017,
      "v": 56
    },
    {
      "midi": 47,
      "hit": false,
      "t": 114545.34000000007,
      "d": 3222.0611718750006,
      "v": 88
    },
    {
      "midi": 59,
      "hit": false,
      "t": 114545.34000000007,
      "d": 3224.4285937499953,
      "v": 100
    },
    {
      "midi": 71,
      "hit": false,
      "t": 114789.18445312502,
      "d": 530.3025000000052,
      "v": 52
    },
    {
      "midi": 66,
      "hit": false,
      "t": 117263.14031250004,
      "d": 260.41640624999127,
      "v": 38
    },
    {
      "midi": 69,
      "hit": false,
      "t": 117483.31054687503,
      "d": 215.4353906250035,
      "v": 63
    },
    {
      "midi": 71,
      "hit": false,
      "t": 117705.84820312503,
      "d": 684.1849218749994,
      "v": 68
    },
    {
      "midi": 66,
      "hit": false,
      "t": 118181.70000000007,
      "d": 1335.2259374999994,
      "v": 72
    },
    {
      "midi": 62,
      "hit": false,
      "t": 118181.70000000007,
      "d": 1347.0630468750023,
      "v": 74
    },
    {
      "midi": 50,
      "hit": false,
      "t": 118181.70000000007,
      "d": 1363.6350000000093,
      "v": 96
    },
    {
      "midi": 57,
      "hit": false,
      "t": 118181.70000000007,
      "d": 1368.3698437500134,
      "v": 84
    },
    {
      "midi": 69,
      "hit": false,
      "t": 118337.94984375003,
      "d": 601.3251562500081,
      "v": 61
    },
    {
      "midi": 66,
      "hit": false,
      "t": 119067.11578125003,
      "d": 156.2498437500035,
      "v": 48
    },
    {
      "midi": 69,
      "hit": false,
      "t": 119289.65343750003,
      "d": 187.0263281249936,
      "v": 70
    },
    {
      "midi": 71,
      "hit": false,
      "t": 119528.76304687503,
      "d": 648.6735937500052,
      "v": 58
    },
    {
      "midi": 49,
      "hit": false,
      "t": 119999.88000000008,
      "d": 1181.3435156250052,
      "v": 42
    },
    {
      "midi": 57,
      "hit": false,
      "t": 119999.88000000008,
      "d": 1193.1806250000081,
      "v": 92
    },
    {
      "midi": 61,
      "hit": false,
      "t": 119999.88000000008,
      "d": 1193.1806250000081,
      "v": 18
    },
    {
      "midi": 64,
      "hit": false,
      "t": 119999.88000000008,
      "d": 1219.2222656250087,
      "v": 100
    },
    {
      "midi": 69,
      "hit": false,
      "t": 120208.21312500004,
      "d": 752.840156249993,
      "v": 63
    },
    {
      "midi": 66,
      "hit": false,
      "t": 121138.60992187503,
      "d": 217.80281249999825,
      "v": 54
    },
    {
      "midi": 69,
      "hit": false,
      "t": 121346.94304687504,
      "d": 187.0263281249936,
      "v": 76
    },
    {
      "midi": 71,
      "hit": false,
      "t": 121562.37843750003,
      "d": 390.6246093749942,
      "v": 61
    },
    {
      "midi": 47,
      "hit": false,
      "t": 121818.06000000008,
      "d": 1299.7146093750052,
      "v": 84
    },
    {
      "midi": 54,
      "hit": false,
      "t": 121818.06000000008,
      "d": 1321.0214062500017,
      "v": 84
    },
    {
      "midi": 57,
      "hit": false,
      "t": 121818.06000000008,
      "d": 1325.7562500000058,
      "v": 106
    },
    {
      "midi": 66,
      "hit": false,
      "t": 121818.06000000008,
      "d": 1339.9607812500035,
      "v": 84
    },
    {
      "midi": 62,
      "hit": false,
      "t": 121818.06000000008,
      "d": 1344.6956250000076,
      "v": 84
    },
    {
      "midi": 71,
      "hit": false,
      "t": 122052.43476562502,
      "d": 125.47335937499884,
      "v": 61
    },
    {
      "midi": 71,
      "hit": false,
      "t": 122265.50273437501,
      "d": 187.0263281249936,
      "v": 66
    },
    {
      "midi": 73,
      "hit": false,
      "t": 122480.938125,
      "d": 210.70054687499942,
      "v": 40
    },
    {
      "midi": 71,
      "hit": false,
      "t": 122712.94546875,
      "d": 281.7232031250023,
      "v": 56
    },
    {
      "midi": 69,
      "hit": false,
      "t": 122947.320234375,
      "d": 229.63992187500116,
      "v": 52
    },
    {
      "midi": 66,
      "hit": false,
      "t": 123191.1646875,
      "d": 667.612968750007,
      "v": 69
    },
    {
      "midi": 57,
      "hit": false,
      "t": 123636.24000000009,
      "d": 371.685234375007,
      "v": 84
    },
    {
      "midi": 62,
      "hit": false,
      "t": 123636.24000000009,
      "d": 381.1549218750006,
      "v": 80
    },
    {
      "midi": 66,
      "hit": false,
      "t": 123636.24000000009,
      "d": 407.19656250000116,
      "v": 78
    },
    {
      "midi": 45,
      "hit": false,
      "t": 123636.24000000009,
      "d": 1399.1463281250035,
      "v": 100
    },
    {
      "midi": 54,
      "hit": false,
      "t": 123636.24000000009,
      "d": 1415.7182812500105,
      "v": 84
    },
    {
      "midi": 64,
      "hit": false,
      "t": 124318.0575000001,
      "d": 177.556640625,
      "v": 106
    },
    {
      "midi": 57,
      "hit": false,
      "t": 124772.6025000001,
      "d": 198.8634374999965,
      "v": 60
    },
    {
      "midi": 55,
      "hit": false,
      "t": 125454.4200000001,
      "d": 1055.8701562499919,
      "v": 100
    },
    {
      "midi": 59,
      "hit": false,
      "t": 125454.4200000001,
      "d": 1058.2375781249866,
      "v": 84
    },
    {
      "midi": 67,
      "hit": false,
      "t": 125454.4200000001,
      "d": 1058.2375781249866,
      "v": 84
    },
    {
      "midi": 62,
      "hit": false,
      "t": 125454.4200000001,
      "d": 1067.7072656249802,
      "v": 74
    },
    {
      "midi": 43,
      "hit": false,
      "t": 125454.4200000001,
      "d": 1112.6882812499825,
      "v": 100
    },
    {
      "midi": 71,
      "hit": false,
      "t": 125459.15484375,
      "d": 1261.8358593750017,
      "v": 61
    },
    {
      "midi": 69,
      "hit": false,
      "t": 126794.38078125,
      "d": 1001.4194531249959,
      "v": 70
    },
    {
      "midi": 57,
      "hit": false,
      "t": 127272.60000000008,
      "d": 1290.2449218750116,
      "v": 88
    },
    {
      "midi": 42,
      "hit": false,
      "t": 127272.60000000008,
      "d": 1292.6123437500064,
      "v": 106
    },
    {
      "midi": 61,
      "hit": false,
      "t": 127272.60000000008,
      "d": 1294.9797656250012,
      "v": 44
    },
    {
      "midi": 54,
      "hit": false,
      "t": 127272.60000000008,
      "d": 1304.4494531249948,
      "v": 90
    },
    {
      "midi": 66,
      "hit": false,
      "t": 127272.60000000008,
      "d": 1316.2865624999977,
      "v": 78
    },
    {
      "midi": 69,
      "hit": false,
      "t": 127885.762265625,
      "d": 433.23820312500175,
      "v": 66
    },
    {
      "midi": 66,
      "hit": false,
      "t": 128330.837578125,
      "d": 198.8634374999965,
      "v": 38
    },
    {
      "midi": 71,
      "hit": false,
      "t": 128591.253984375,
      "d": 653.4084374999948,
      "v": 70
    },
    {
      "midi": 54,
      "hit": false,
      "t": 129090.78000000009,
      "d": 722.0636718750029,
      "v": 84
    },
    {
      "midi": 62,
      "hit": false,
      "t": 129090.78000000009,
      "d": 745.7378906250087,
      "v": 88
    },
    {
      "midi": 59,
      "hit": false,
      "t": 129090.78000000009,
      "d": 759.9424218750064,
      "v": 92
    },
    {
      "midi": 66,
      "hit": false,
      "t": 129090.78000000009,
      "d": 764.6772656250105,
      "v": 52
    },
    {
      "midi": 47,
      "hit": false,
      "t": 129090.78000000009,
      "d": 771.7795312500093,
      "v": 100
    },
    {
      "midi": 71,
      "hit": false,
      "t": 129325.15476562499,
      "d": 466.38210937500116,
      "v": 66
    },
    {
      "midi": 68,
      "hit": false,
      "t": 130908.9600000001,
      "d": 1226.3245312500076,
      "v": 72
    },
    {
      "midi": 64,
      "hit": false,
      "t": 130908.9600000001,
      "d": 1238.161640624996,
      "v": 100
    },
    {
      "midi": 59,
      "hit": false,
      "t": 130908.9600000001,
      "d": 1242.8964843749854,
      "v": 110
    },
    {
      "midi": 52,
      "hit": false,
      "t": 130908.9600000001,
      "d": 1273.67296874999,
      "v": 116
    },
    {
      "midi": 59,
      "hit": false,
      "t": 132727.1400000001,
      "d": 982.4800781249942,
      "v": 80
    },
    {
      "midi": 62,
      "hit": false,
      "t": 132727.1400000001,
      "d": 996.6846093749919,
      "v": 70
    },
    {
      "midi": 67,
      "hit": false,
      "t": 132727.1400000001,
      "d": 1017.9914062499884,
      "v": 78
    },
    {
      "midi": 55,
      "hit": false,
      "t": 132727.1400000001,
      "d": 1034.5633593749953,
      "v": 100
    },
    {
      "midi": 43,
      "hit": false,
      "t": 132727.1400000001,
      "d": 1051.1353125000023,
      "v": 100
    },
    {
      "midi": 71,
      "hit": false,
      "t": 133854.0328125,
      "d": 146.78015624999534,
      "v": 64
    },
    {
      "midi": 71,
      "hit": false,
      "t": 134083.672734375,
      "d": 156.2498437500035,
      "v": 33
    },
    {
      "midi": 73,
      "hit": false,
      "t": 134292.005859375,
      "d": 591.85546875,
      "v": 54
    },
    {
      "midi": 64,
      "hit": false,
      "t": 134545.3200000001,
      "d": 956.4384375000081,
      "v": 88
    },
    {
      "midi": 61,
      "hit": false,
      "t": 134545.3200000001,
      "d": 958.8058593750175,
      "v": 56
    },
    {
      "midi": 69,
      "hit": false,
      "t": 134545.3200000001,
      "d": 1001.4194531250105,
      "v": 88
    },
    {
      "midi": 45,
      "hit": false,
      "t": 134545.3200000001,
      "d": 1010.8891406250186,
      "v": 100
    },
    {
      "midi": 57,
      "hit": false,
      "t": 134545.3200000001,
      "d": 1020.3588281250268,
      "v": 88
    },
    {
      "midi": 73,
      "hit": false,
      "t": 134980.925625,
      "d": 274.6209375000035,
      "v": 37
    },
    {
      "midi": 71,
      "hit": false,
      "t": 135208.198125,
      "d": 485.32148437501746,
      "v": 64
    },
    {
      "midi": 69,
      "hit": false,
      "t": 135658.00828125002,
      "d": 224.90507812498254,
      "v": 53
    },
    {
      "midi": 74,
      "hit": false,
      "t": 135875.81109375,
      "d": 246.21187499997905,
      "v": 52
    },
    {
      "midi": 71,
      "hit": false,
      "t": 136110.185859375,
      "d": 1044.0330468749744,
      "v": 64
    },
    {
      "midi": 59,
      "hit": false,
      "t": 136363.50000000015,
      "d": 1152.9344531249953,
      "v": 100
    },
    {
      "midi": 71,
      "hit": false,
      "t": 136363.50000000015,
      "d": 1155.3018750000047,
      "v": 88
    },
    {
      "midi": 66,
      "hit": false,
      "t": 136363.50000000015,
      "d": 1157.669296875014,
      "v": 66
    },
    {
      "midi": 62,
      "hit": false,
      "t": 136363.50000000015,
      "d": 1174.241250000021,
      "v": 84
    },
    {
      "midi": 54,
      "hit": false,
      "t": 136363.50000000015,
      "d": 1186.0783593750093,
      "v": 78
    },
    {
      "midi": 47,
      "hit": false,
      "t": 136363.50000000015,
      "d": 1214.4874218750047,
      "v": 88
    },
    {
      "midi": 52,
      "hit": false,
      "t": 138181.68000000017,
      "d": 878.3135156249919,
      "v": 92
    },
    {
      "midi": 64,
      "hit": false,
      "t": 138181.68000000017,
      "d": 1129.2602343749895,
      "v": 96
    },
    {
      "midi": 68,
      "hit": false,
      "t": 138181.68000000017,
      "d": 1148.1996093749767,
      "v": 66
    },
    {
      "midi": 59,
      "hit": false,
      "t": 138181.68000000017,
      "d": 1155.3018749999756,
      "v": 96
    },
    {
      "midi": 40,
      "hit": false,
      "t": 138181.68000000017,
      "d": 1389.6766406249662,
      "v": 100
    },
    {
      "midi": 52,
      "hit": false,
      "t": 139318.04250000016,
      "d": 260.4164062499767,
      "v": 70
    },
    {
      "midi": 64,
      "hit": false,
      "t": 139545.31500000015,
      "d": 87.59460937499534,
      "v": 92
    },
    {
      "midi": 59,
      "hit": false,
      "t": 139999.86000000013,
      "d": 1062.9724218749907,
      "v": 92
    },
    {
      "midi": 62,
      "hit": false,
      "t": 139999.86000000013,
      "d": 1084.2792187499872,
      "v": 80
    },
    {
      "midi": 67,
      "hit": false,
      "t": 139999.86000000013,
      "d": 1091.381484374986,
      "v": 84
    },
    {
      "midi": 43,
      "hit": false,
      "t": 139999.86000000013,
      "d": 1169.5064062499732,
      "v": 110
    },
    {
      "midi": 71,
      "hit": false,
      "t": 141124.38539062496,
      "d": 137.3104687499872,
      "v": 61
    },
    {
      "midi": 71,
      "hit": false,
      "t": 141344.55562499995,
      "d": 146.78015624999534,
      "v": 50
    },
    {
      "midi": 73,
      "hit": false,
      "t": 141571.82812499994,
      "d": 563.4464062500047,
      "v": 46
    },
    {
      "midi": 64,
      "hit": false,
      "t": 141818.04000000012,
      "d": 1089.0140625000058,
      "v": 84
    },
    {
      "midi": 61,
      "hit": false,
      "t": 141818.04000000012,
      "d": 1093.7489062499953,
      "v": 32
    },
    {
      "midi": 69,
      "hit": false,
      "t": 141818.04000000012,
      "d": 1129.2602343749895,
      "v": 96
    },
    {
      "midi": 45,
      "hit": false,
      "t": 141818.04000000012,
      "d": 1143.4647656249872,
      "v": 100
    },
    {
      "midi": 57,
      "hit": false,
      "t": 141818.04000000012,
      "d": 1155.3018749999756,
      "v": 92
    },
    {
      "midi": 73,
      "hit": false,
      "t": 142256.01304687496,
      "d": 227.27249999999185,
      "v": 44
    },
    {
      "midi": 71,
      "hit": false,
      "t": 142497.49007812495,
      "d": 357.4807031250093,
      "v": 58
    },
    {
      "midi": 69,
      "hit": false,
      "t": 142940.19796874994,
      "d": 229.63992187500116,
      "v": 55
    },
    {
      "midi": 74,
      "hit": false,
      "t": 143148.53109374995,
      "d": 243.84445312499884,
      "v": 64
    },
    {
      "midi": 71,
      "hit": false,
      "t": 143382.90585937494,
      "d": 594.2228906250093,
      "v": 58
    },
    {
      "midi": 71,
      "hit": false,
      "t": 143636.2200000001,
      "d": 1148.1996093750058,
      "v": 92
    },
    {
      "midi": 66,
      "hit": false,
      "t": 143636.2200000001,
      "d": 1152.9344531249953,
      "v": 84
    },
    {
      "midi": 62,
      "hit": false,
      "t": 143636.2200000001,
      "d": 1178.9760937499814,
      "v": 80
    },
    {
      "midi": 54,
      "hit": false,
      "t": 143636.2200000001,
      "d": 1252.366171874979,
      "v": 90
    },
    {
      "midi": 47,
      "hit": false,
      "t": 143636.2200000001,
      "d": 1290.2449218749825,
      "v": 92
    },
    {
      "midi": 59,
      "hit": false,
      "t": 145454.40000000008,
      "d": 1384.9417968750058,
      "v": 106
    },
    {
      "midi": 63,
      "hit": false,
      "t": 145454.40000000008,
      "d": 1392.0440625000047,
      "v": 90
    },
    {
      "midi": 66,
      "hit": false,
      "t": 145454.40000000008,
      "d": 1410.9834374999919,
      "v": 90
    },
    {
      "midi": 47,
      "hit": false,
      "t": 145454.40000000008,
      "d": 1418.0857031249907,
      "v": 100
    },
    {
      "midi": 54,
      "hit": false,
      "t": 145454.40000000008,
      "d": 1418.0857031249907,
      "v": 84
    },
    {
      "midi": 68,
      "hit": false,
      "t": 146337.44835937495,
      "d": 262.78382812501513,
      "v": 54
    },
    {
      "midi": 71,
      "hit": false,
      "t": 146569.45570312496,
      "d": 272.2535156249942,
      "v": 52
    },
    {
      "midi": 73,
      "hit": false,
      "t": 146803.83046874995,
      "d": 677.0826562500151,
      "v": 46
    },
    {
      "midi": 68,
      "hit": false,
      "t": 147272.58000000007,
      "d": 1287.8775000000023,
      "v": 98
    },
    {
      "midi": 59,
      "hit": false,
      "t": 147272.58000000007,
      "d": 1302.08203125,
      "v": 92
    },
    {
      "midi": 64,
      "hit": false,
      "t": 147272.58000000007,
      "d": 1323.3888281249965,
      "v": 100
    },
    {
      "midi": 52,
      "hit": false,
      "t": 147272.58000000007,
      "d": 1330.4910937499953,
      "v": 106
    },
    {
      "midi": 71,
      "hit": false,
      "t": 147433.56468749995,
      "d": 598.9577343749988,
      "v": 58
    },
    {
      "midi": 68,
      "hit": false,
      "t": 148131.95414062496,
      "d": 276.9883593749837,
      "v": 34
    },
    {
      "midi": 71,
      "hit": false,
      "t": 148352.12437499996,
      "d": 248.57929687498836,
      "v": 63
    },
    {
      "midi": 73,
      "hit": false,
      "t": 148584.13171874994,
      "d": 748.1053125000035,
      "v": 44
    },
    {
      "midi": 59,
      "hit": false,
      "t": 149090.76000000007,
      "d": 937.4990624999919,
      "v": 88
    },
    {
      "midi": 51,
      "hit": false,
      "t": 149090.76000000007,
      "d": 956.438437499979,
      "v": 90
    },
    {
      "midi": 63,
      "hit": false,
      "t": 149090.76000000007,
      "d": 963.5407031249779,
      "v": 42
    },
    {
      "midi": 66,
      "hit": false,
      "t": 149090.76000000007,
      "d": 999.0520312499721,
      "v": 96
    },
    {
      "midi": 71,
      "hit": false,
      "t": 149280.15374999994,
      "d": 778.8817968750081,
      "v": 61
    },
    {
      "midi": 68,
      "hit": false,
      "t": 150234.22476562494,
      "d": 258.0489843749965,
      "v": 51
    },
    {
      "midi": 71,
      "hit": false,
      "t": 150456.76242187494,
      "d": 246.21187499997905,
      "v": 56
    },
    {
      "midi": 73,
      "hit": false,
      "t": 150660.36070312493,
      "d": 705.4917187500105,
      "v": 51
    },
    {
      "midi": 56,
      "hit": false,
      "t": 150908.94000000003,
      "d": 1233.4267968749919,
      "v": 106
    },
    {
      "midi": 64,
      "hit": false,
      "t": 150908.94000000003,
      "d": 1238.1616406249814,
      "v": 84
    },
    {
      "midi": 68,
      "hit": false,
      "t": 150908.94000000003,
      "d": 1242.896484374971,
      "v": 66
    },
    {
      "midi": 61,
      "hit": false,
      "t": 150908.94000000003,
      "d": 1247.6313281249604,
      "v": 96
    },
    {
      "midi": 49,
      "hit": false,
      "t": 150908.94000000003,
      "d": 1261.835859374958,
      "v": 96
    },
    {
      "midi": 75,
      "hit": false,
      "t": 151332.70851562492,
      "d": 265.15124999999534,
      "v": 54
    },
    {
      "midi": 73,
      "hit": false,
      "t": 151562.34843749992,
      "d": 499.52601562498603,
      "v": 46
    },
    {
      "midi": 75,
      "hit": false,
      "t": 152019.26085937492,
      "d": 459.2798437499732,
      "v": 48
    },
    {
      "midi": 68,
      "hit": false,
      "t": 152435.9271093749,
      "d": 404.82914062499185,
      "v": 23
    },
    {
      "midi": 59,
      "hit": false,
      "t": 152727.12,
      "d": 461.64726562498254,
      "v": 92
    },
    {
      "midi": 64,
      "hit": false,
      "t": 152727.12,
      "d": 475.8517968749802,
      "v": 78
    },
    {
      "midi": 68,
      "hit": false,
      "t": 152727.12,
      "d": 497.1585937499767,
      "v": 52
    },
    {
      "midi": 56,
      "hit": false,
      "t": 152727.12,
      "d": 1205.0177343749674,
      "v": 78
    },
    {
      "midi": 47,
      "hit": false,
      "t": 152727.12,
      "d": 1235.794218749972,
      "v": 100
    },
    {
      "midi": 68,
      "hit": false,
      "t": 152937.8205468749,
      "d": 556.3441406250058,
      "v": 51
    },
    {
      "midi": 66,
      "hit": false,
      "t": 153408.93749999997,
      "d": 326.70421875000466,
      "v": 106
    },
    {
      "midi": 73,
      "hit": false,
      "t": 154528.7280468749,
      "d": 973.010390624986,
      "v": 60
    },
    {
      "midi": 57,
      "hit": false,
      "t": 154545.29999999996,
      "d": 1053.5027343749825,
      "v": 106
    },
    {
      "midi": 64,
      "hit": false,
      "t": 154545.29999999996,
      "d": 1055.8701562499919,
      "v": 74
    },
    {
      "midi": 61,
      "hit": false,
      "t": 154545.29999999996,
      "d": 1084.2792187499872,
      "v": 96
    },
    {
      "midi": 45,
      "hit": false,
      "t": 154545.29999999996,
      "d": 1100.8511718749942,
      "v": 100
    },
    {
      "midi": 69,
      "hit": false,
      "t": 154545.29999999996,
      "d": 1105.5860156249837,
      "v": 100
    },
    {
      "midi": 71,
      "hit": false,
      "t": 155887.62820312488,
      "d": 906.7225781249872,
      "v": 74
    },
    {
      "midi": 63,
      "hit": false,
      "t": 156363.47999999992,
      "d": 1167.138984374993,
      "v": 20
    },
    {
      "midi": 59,
      "hit": false,
      "t": 156363.47999999992,
      "d": 1171.8738281249825,
      "v": 88
    },
    {
      "midi": 44,
      "hit": false,
      "t": 156363.47999999992,
      "d": 1188.4457812499895,
      "v": 98
    },
    {
      "midi": 68,
      "hit": false,
      "t": 156363.47999999992,
      "d": 1188.4457812499895,
      "v": 48
    },
    {
      "midi": 56,
      "hit": false,
      "t": 156363.47999999992,
      "d": 1197.9154687499977,
      "v": 90
    },
    {
      "midi": 68,
      "hit": false,
      "t": 157263.10031249988,
      "d": 338.541328124993,
      "v": 51
    },
    {
      "midi": 73,
      "hit": false,
      "t": 157691.60367187488,
      "d": 535.0373437500093,
      "v": 51
    },
    {
      "midi": 56,
      "hit": false,
      "t": 158181.65999999992,
      "d": 3193.6521093749907,
      "v": 90
    },
    {
      "midi": 64,
      "hit": false,
      "t": 158181.65999999992,
      "d": 3196.01953125,
      "v": 80
    },
    {
      "midi": 68,
      "hit": false,
      "t": 158181.65999999992,
      "d": 3214.958906249987,
      "v": 56
    },
    {
      "midi": 49,
      "hit": false,
      "t": 158181.65999999992,
      "d": 3222.061171874986,
      "v": 88
    },
    {
      "midi": 61,
      "hit": false,
      "t": 158181.65999999992,
      "d": 3224.4285937499953,
      "v": 100
    },
    {
      "midi": 73,
      "hit": false,
      "t": 158349.74695312488,
      "d": 499.52601562498603,
      "v": 51
    },
    {
      "midi": 68,
      "hit": false,
      "t": 160892.35804687487,
      "d": 274.6209375000035,
      "v": 48
    },
    {
      "midi": 71,
      "hit": false,
      "t": 161114.89570312487,
      "d": 250.94671874999767,
      "v": 33
    },
    {
      "midi": 73,
      "hit": false,
      "t": 161339.80078124988,
      "d": 613.1622656249965,
      "v": 64
    },
    {
      "midi": 68,
      "hit": false,
      "t": 161818.0199999999,
      "d": 1335.225937500014,
      "v": 72
    },
    {
      "midi": 64,
      "hit": false,
      "t": 161818.0199999999,
      "d": 1347.0630468750023,
      "v": 74
    },
    {
      "midi": 52,
      "hit": false,
      "t": 161818.0199999999,
      "d": 1363.6350000000093,
      "v": 96
    },
    {
      "midi": 59,
      "hit": false,
      "t": 161818.0199999999,
      "d": 1368.3698437499988,
      "v": 84
    },
    {
      "midi": 68,
      "hit": false,
      "t": 162454.85648437488,
      "d": 163.35210937500233,
      "v": 51
    },
    {
      "midi": 68,
      "hit": false,
      "t": 162689.23124999987,
      "d": 179.9240625000093,
      "v": 51
    },
    {
      "midi": 71,
      "hit": false,
      "t": 162904.66664062487,
      "d": 215.4353906250035,
      "v": 48
    },
    {
      "midi": 73,
      "hit": false,
      "t": 163153.2459374999,
      "d": 613.1622656249965,
      "v": 69
    },
    {
      "midi": 51,
      "hit": false,
      "t": 163636.1999999999,
      "d": 1181.3435156249907,
      "v": 42
    },
    {
      "midi": 59,
      "hit": false,
      "t": 163636.1999999999,
      "d": 1193.180624999979,
      "v": 92
    },
    {
      "midi": 63,
      "hit": false,
      "t": 163636.1999999999,
      "d": 1193.180624999979,
      "v": 18
    },
    {
      "midi": 66,
      "hit": false,
      "t": 163636.1999999999,
      "d": 1219.222265624965,
      "v": 100
    },
    {
      "midi": 71,
      "hit": false,
      "t": 163799.5521093749,
      "d": 672.3478124999965,
      "v": 68
    },
    {
      "midi": 68,
      "hit": false,
      "t": 164746.5208593749,
      "d": 260.4164062499767,
      "v": 40
    },
    {
      "midi": 71,
      "hit": false,
      "t": 164980.8956249999,
      "d": 222.53765624997322,
      "v": 63
    },
    {
      "midi": 73,
      "hit": false,
      "t": 165217.63781249986,
      "d": 681.8175000000047,
      "v": 67
    },
    {
      "midi": 49,
      "hit": false,
      "t": 165454.37999999986,
      "d": 1299.7146093749907,
      "v": 84
    },
    {
      "midi": 56,
      "hit": false,
      "t": 165454.37999999986,
      "d": 1321.0214062499872,
      "v": 84
    },
    {
      "midi": 59,
      "hit": false,
      "t": 165454.37999999986,
      "d": 1325.7562499999767,
      "v": 106
    },
    {
      "midi": 68,
      "hit": false,
      "t": 165454.37999999986,
      "d": 1339.9607812499744,
      "v": 84
    },
    {
      "midi": 64,
      "hit": false,
      "t": 165454.37999999986,
      "d": 1344.695624999964,
      "v": 84
    },
    {
      "midi": 75,
      "hit": false,
      "t": 165911.29242187485,
      "d": 258.0489843749965,
      "v": 56
    },
    {
      "midi": 73,
      "hit": false,
      "t": 166131.46265624985,
      "d": 525.5676562500012,
      "v": 60
    },
    {
      "midi": 71,
      "hit": false,
      "t": 166574.17054687484,
      "d": 265.15124999999534,
      "v": 66
    },
    {
      "midi": 68,
      "hit": false,
      "t": 166848.79148437484,
      "d": 366.95039062498836,
      "v": 75
    },
    {
      "midi": 59,
      "hit": false,
      "t": 167272.55999999982,
      "d": 371.6852343749779,
      "v": 84
    },
    {
      "midi": 64,
      "hit": false,
      "t": 167272.55999999982,
      "d": 381.15492187498603,
      "v": 80
    },
    {
      "midi": 68,
      "hit": false,
      "t": 167272.55999999982,
      "d": 407.19656249997206,
      "v": 78
    },
    {
      "midi": 47,
      "hit": false,
      "t": 167272.55999999982,
      "d": 1399.1463281249744,
      "v": 100
    },
    {
      "midi": 56,
      "hit": false,
      "t": 167272.55999999982,
      "d": 1415.7182812499814,
      "v": 84
    },
    {
      "midi": 68,
      "hit": false,
      "t": 167279.66226562482,
      "d": 696.0220312500023,
      "v": 60
    },
    {
      "midi": 66,
      "hit": false,
      "t": 167954.3774999998,
      "d": 177.556640625,
      "v": 106
    },
    {
      "midi": 59,
      "hit": false,
      "t": 168408.9224999998,
      "d": 198.8634374999965,
      "v": 60
    },
    {
      "midi": 57,
      "hit": false,
      "t": 169090.73999999982,
      "d": 1055.8701562499919,
      "v": 100
    },
    {
      "midi": 61,
      "hit": false,
      "t": 169090.73999999982,
      "d": 1058.2375781250012,
      "v": 84
    },
    {
      "midi": 69,
      "hit": false,
      "t": 169090.73999999982,
      "d": 1058.2375781250012,
      "v": 84
    },
    {
      "midi": 64,
      "hit": false,
      "t": 169090.73999999982,
      "d": 1067.7072656250093,
      "v": 74
    },
    {
      "midi": 45,
      "hit": false,
      "t": 169090.73999999982,
      "d": 1112.6882812500116,
      "v": 100
    },
    {
      "midi": 73,
      "hit": false,
      "t": 169095.47484374983,
      "d": 802.556015625014,
      "v": 69
    },
    {
      "midi": 73,
      "hit": false,
      "t": 170004.56484374986,
      "d": 473.484375,
      "v": 64
    },
    {
      "midi": 71,
      "hit": false,
      "t": 170440.17046874986,
      "d": 1238.1616406250105,
      "v": 58
    },
    {
      "midi": 59,
      "hit": false,
      "t": 170908.91999999984,
      "d": 1290.2449218749825,
      "v": 88
    },
    {
      "midi": 44,
      "hit": false,
      "t": 170908.91999999984,
      "d": 1292.6123437499919,
      "v": 106
    },
    {
      "midi": 63,
      "hit": false,
      "t": 170908.91999999984,
      "d": 1294.9797656250012,
      "v": 44
    },
    {
      "midi": 56,
      "hit": false,
      "t": 170908.91999999984,
      "d": 1304.4494531250093,
      "v": 90
    },
    {
      "midi": 68,
      "hit": false,
      "t": 170908.91999999984,
      "d": 1316.2865624999977,
      "v": 78
    },
    {
      "midi": 68,
      "hit": false,
      "t": 171780.13124999986,
      "d": 464.01468749999185,
      "v": 67
    },
    {
      "midi": 73,
      "hit": false,
      "t": 172263.08531249984,
      "d": 558.711562499986,
      "v": 69
    },
    {
      "midi": 56,
      "hit": false,
      "t": 172727.09999999983,
      "d": 722.0636718749884,
      "v": 84
    },
    {
      "midi": 64,
      "hit": false,
      "t": 172727.09999999983,
      "d": 745.7378906249942,
      "v": 88
    },
    {
      "midi": 61,
      "hit": false,
      "t": 172727.09999999983,
      "d": 759.9424218749919,
      "v": 92
    },
    {
      "midi": 68,
      "hit": false,
      "t": 172727.09999999983,
      "d": 764.6772656249814,
      "v": 52
    },
    {
      "midi": 49,
      "hit": false,
      "t": 172727.09999999983,
      "d": 771.7795312499802,
      "v": 100
    },
    {
      "midi": 73,
      "hit": false,
      "t": 172925.96343749983,
      "d": 532.669921875,
      "v": 48
    },
    {
      "midi": 70,
      "hit": false,
      "t": 174545.27999999982,
      "d": 1226.324531249993,
      "v": 72
    },
    {
      "midi": 66,
      "hit": false,
      "t": 174545.27999999982,
      "d": 1238.1616406249814,
      "v": 100
    },
    {
      "midi": 61,
      "hit": false,
      "t": 174545.27999999982,
      "d": 1242.896484374971,
      "v": 110
    },
    {
      "midi": 54,
      "hit": false,
      "t": 174545.27999999982,
      "d": 1273.6729687499756,
      "v": 116
    },
    {
      "midi": 61,
      "hit": false,
      "t": 176363.45999999982,
      "d": 982.4800781249942,
      "v": 80
    },
    {
      "midi": 64,
      "hit": false,
      "t": 176363.45999999982,
      "d": 996.6846093749919,
      "v": 70
    },
    {
      "midi": 69,
      "hit": false,
      "t": 176363.45999999982,
      "d": 1017.9914062499884,
      "v": 78
    },
    {
      "midi": 57,
      "hit": false,
      "t": 176363.45999999982,
      "d": 1034.5633593749953,
      "v": 100
    },
    {
      "midi": 45,
      "hit": false,
      "t": 176363.45999999982,
      "d": 1051.1353125000023,
      "v": 100
    },
    {
      "midi": 73,
      "hit": false,
      "t": 177478.51570312484,
      "d": 125.47335937499884,
      "v": 54
    },
    {
      "midi": 73,
      "hit": false,
      "t": 177698.68593749983,
      "d": 187.02632812500815,
      "v": 54
    },
    {
      "midi": 75,
      "hit": false,
      "t": 177923.59101562484,
      "d": 589.4880468749907,
      "v": 56
    },
    {
      "midi": 66,
      "hit": false,
      "t": 178181.6399999998,
      "d": 956.4384375000081,
      "v": 88
    },
    {
      "midi": 63,
      "hit": false,
      "t": 178181.6399999998,
      "d": 958.8058593750175,
      "v": 56
    },
    {
      "midi": 71,
      "hit": false,
      "t": 178181.6399999998,
      "d": 1001.4194531250105,
      "v": 88
    },
    {
      "midi": 47,
      "hit": false,
      "t": 178181.6399999998,
      "d": 1010.8891406250186,
      "v": 100
    },
    {
      "midi": 59,
      "hit": false,
      "t": 178181.6399999998,
      "d": 1020.3588281250268,
      "v": 88
    },
    {
      "midi": 75,
      "hit": false,
      "t": 178619.61304687485,
      "d": 267.51867187500466,
      "v": 60
    },
    {
      "midi": 73,
      "hit": false,
      "t": 178863.45749999984,
      "d": 430.870781250007,
      "v": 67
    },
    {
      "midi": 71,
      "hit": false,
      "t": 179291.96085937484,
      "d": 276.9883593750128,
      "v": 63
    },
    {
      "midi": 76,
      "hit": false,
      "t": 179526.33562499986,
      "d": 243.84445312499884,
      "v": 50
    },
    {
      "midi": 73,
      "hit": false,
      "t": 179734.66874999987,
      "d": 1001.4194531249814,
      "v": 72
    },
    {
      "midi": 61,
      "hit": false,
      "t": 179999.81999999986,
      "d": 1152.9344531249953,
      "v": 100
    },
    {
      "midi": 73,
      "hit": false,
      "t": 179999.81999999986,
      "d": 1155.3018750000047,
      "v": 88
    },
    {
      "midi": 68,
      "hit": false,
      "t": 179999.81999999986,
      "d": 1157.669296875014,
      "v": 66
    },
    {
      "midi": 64,
      "hit": false,
      "t": 179999.81999999986,
      "d": 1174.241250000021,
      "v": 84
    },
    {
      "midi": 56,
      "hit": false,
      "t": 179999.81999999986,
      "d": 1186.0783593750093,
      "v": 78
    },
    {
      "midi": 49,
      "hit": false,
      "t": 179999.81999999986,
      "d": 1214.4874218750047,
      "v": 88
    },
    {
      "midi": 54,
      "hit": false,
      "t": 181817.99999999988,
      "d": 878.3135156249919,
      "v": 92
    },
    {
      "midi": 66,
      "hit": false,
      "t": 181817.99999999988,
      "d": 1129.2602343749895,
      "v": 96
    },
    {
      "midi": 70,
      "hit": false,
      "t": 181817.99999999988,
      "d": 1148.1996093749767,
      "v": 66
    },
    {
      "midi": 61,
      "hit": false,
      "t": 181817.99999999988,
      "d": 1155.3018749999756,
      "v": 96
    },
    {
      "midi": 42,
      "hit": false,
      "t": 181817.99999999988,
      "d": 1389.6766406249662,
      "v": 100
    },
    {
      "midi": 54,
      "hit": false,
      "t": 182954.36249999987,
      "d": 260.4164062499767,
      "v": 70
    },
    {
      "midi": 66,
      "hit": false,
      "t": 183181.63499999986,
      "d": 87.59460937499534,
      "v": 92
    },
    {
      "midi": 61,
      "hit": false,
      "t": 183636.17999999985,
      "d": 1062.9724218749907,
      "v": 92
    },
    {
      "midi": 64,
      "hit": false,
      "t": 183636.17999999985,
      "d": 1084.2792187499872,
      "v": 80
    },
    {
      "midi": 69,
      "hit": false,
      "t": 183636.17999999985,
      "d": 1091.381484374986,
      "v": 84
    },
    {
      "midi": 45,
      "hit": false,
      "t": 183636.17999999985,
      "d": 1169.5064062499732,
      "v": 110
    },
    {
      "midi": 73,
      "hit": false,
      "t": 184772.54249999984,
      "d": 130.20820312498836,
      "v": 67
    },
    {
      "midi": 73,
      "hit": false,
      "t": 184983.24304687482,
      "d": 184.65890624999884,
      "v": 43
    },
    {
      "midi": 75,
      "hit": false,
      "t": 185210.5155468748,
      "d": 553.9767187499965,
      "v": 60
    },
    {
      "midi": 66,
      "hit": false,
      "t": 185454.35999999984,
      "d": 1089.0140625000058,
      "v": 84
    },
    {
      "midi": 63,
      "hit": false,
      "t": 185454.35999999984,
      "d": 1093.7489062499953,
      "v": 32
    },
    {
      "midi": 71,
      "hit": false,
      "t": 185454.35999999984,
      "d": 1129.2602343749895,
      "v": 96
    },
    {
      "midi": 47,
      "hit": false,
      "t": 185454.35999999984,
      "d": 1143.4647656249872,
      "v": 100
    },
    {
      "midi": 59,
      "hit": false,
      "t": 185454.35999999984,
      "d": 1155.3018749999756,
      "v": 92
    },
    {
      "midi": 75,
      "hit": false,
      "t": 185894.7004687498,
      "d": 198.8634374999965,
      "v": 67
    },
    {
      "midi": 73,
      "hit": false,
      "t": 186129.0752343748,
      "d": 478.2192187499895,
      "v": 69
    },
    {
      "midi": 71,
      "hit": false,
      "t": 186609.6618749998,
      "d": 281.7232031250023,
      "v": 70
    },
    {
      "midi": 76,
      "hit": false,
      "t": 186846.4040624998,
      "d": 250.94671875002678,
      "v": 42
    },
    {
      "midi": 73,
      "hit": false,
      "t": 187064.2068749998,
      "d": 1633.5210937500233,
      "v": 40
    },
    {
      "midi": 73,
      "hit": false,
      "t": 187272.5399999998,
      "d": 1148.1996093750058,
      "v": 92
    },
    {
      "midi": 68,
      "hit": false,
      "t": 187272.5399999998,
      "d": 1152.9344531249953,
      "v": 84
    },
    {
      "midi": 64,
      "hit": false,
      "t": 187272.5399999998,
      "d": 1178.9760937499814,
      "v": 80
    },
    {
      "midi": 56,
      "hit": false,
      "t": 187272.5399999998,
      "d": 1252.366171874979,
      "v": 90
    },
    {
      "midi": 49,
      "hit": false,
      "t": 187272.5399999998,
      "d": 1290.2449218749825,
      "v": 92
    },
    {
      "midi": 61,
      "hit": false,
      "t": 189090.7199999998,
      "d": 1384.9417968750058,
      "v": 106
    },
    {
      "midi": 65,
      "hit": false,
      "t": 189090.7199999998,
      "d": 1392.0440625000047,
      "v": 90
    },
    {
      "midi": 68,
      "hit": false,
      "t": 189090.7199999998,
      "d": 1410.9834374999919,
      "v": 90
    },
    {
      "midi": 49,
      "hit": false,
      "t": 189090.7199999998,
      "d": 1418.0857031249907,
      "v": 100
    },
    {
      "midi": 56,
      "hit": false,
      "t": 189090.7199999998,
      "d": 1418.0857031249907,
      "v": 84
    },
    {
      "midi": 70,
      "hit": false,
      "t": 189990.34031249981,
      "d": 246.21187500000815,
      "v": 56
    },
    {
      "midi": 73,
      "hit": false,
      "t": 190198.67343749982,
      "d": 253.31414062497788,
      "v": 48
    },
    {
      "midi": 75,
      "hit": false,
      "t": 190440.1504687498,
      "d": 660.510703124979,
      "v": 67
    },
    {
      "midi": 66,
      "hit": false,
      "t": 190908.8999999998,
      "d": 1259.468437500007,
      "v": 84
    },
    {
      "midi": 61,
      "hit": false,
      "t": 190908.8999999998,
      "d": 1290.2449218750116,
      "v": 66
    },
    {
      "midi": 70,
      "hit": false,
      "t": 190908.8999999998,
      "d": 1299.7146093750198,
      "v": 90
    },
    {
      "midi": 54,
      "hit": false,
      "t": 190908.8999999998,
      "d": 1325.7562500000058,
      "v": 98
    },
    {
      "midi": 42,
      "hit": false,
      "t": 190908.8999999998,
      "d": 1330.4910937499953,
      "v": 90
    },
    {
      "midi": 70,
      "hit": false,
      "t": 191801.41804687478,
      "d": 232.00734375001048,
      "v": 67
    },
    {
      "midi": 73,
      "hit": false,
      "t": 192016.85343749978,
      "d": 241.47703125001863,
      "v": 56
    },
    {
      "midi": 75,
      "hit": false,
      "t": 192263.0653124998,
      "d": 651.041015625,
      "v": 64
    },
    {
      "midi": 65,
      "hit": false,
      "t": 192727.07999999978,
      "d": 1221.5896875000035,
      "v": 100
    },
    {
      "midi": 68,
      "hit": false,
      "t": 192727.07999999978,
      "d": 1231.0593750000116,
      "v": 84
    },
    {
      "midi": 61,
      "hit": false,
      "t": 192727.07999999978,
      "d": 1235.7942187500012,
      "v": 84
    },
    {
      "midi": 53,
      "hit": false,
      "t": 192727.07999999978,
      "d": 1242.896484375,
      "v": 110
    },
    {
      "midi": 41,
      "hit": false,
      "t": 192727.07999999978,
      "d": 1294.9797656250012,
      "v": 84
    },
    {
      "midi": 73,
      "hit": false,
      "t": 192904.63664062478,
      "d": 762.3098437500012,
      "v": 58
    },
    {
      "midi": 70,
      "hit": false,
      "t": 193823.1963281248,
      "d": 274.6209375000035,
      "v": 40
    },
    {
      "midi": 73,
      "hit": false,
      "t": 194055.2036718748,
      "d": 239.1096093749802,
      "v": 51
    },
    {
      "midi": 75,
      "hit": false,
      "t": 194294.31328124978,
      "d": 714.9614062499895,
      "v": 67
    },
    {
      "midi": 58,
      "hit": false,
      "t": 194545.25999999978,
      "d": 989.582343749993,
      "v": 66
    },
    {
      "midi": 63,
      "hit": false,
      "t": 194545.25999999978,
      "d": 1001.4194531249814,
      "v": 90
    },
    {
      "midi": 66,
      "hit": false,
      "t": 194545.25999999978,
      "d": 1010.8891406249895,
      "v": 78
    },
    {
      "midi": 39,
      "hit": false,
      "t": 194545.25999999978,
      "d": 1017.9914062499884,
      "v": 90
    },
    {
      "midi": 51,
      "hit": false,
      "t": 194545.25999999978,
      "d": 1051.1353125000023,
      "v": 98
    },
    {
      "midi": 77,
      "hit": false,
      "t": 194973.76335937477,
      "d": 272.2535156249942,
      "v": 63
    },
    {
      "midi": 75,
      "hit": false,
      "t": 195201.03585937477,
      "d": 376.4200781249965,
      "v": 69
    },
    {
      "midi": 73,
      "hit": false,
      "t": 195631.90664062477,
      "d": 236.7421875,
      "v": 56
    },
    {
      "midi": 70,
      "hit": false,
      "t": 195863.91398437478,
      "d": 684.1849218749849,
      "v": 58
    },
    {
      "midi": 66,
      "hit": false,
      "t": 196363.43999999977,
      "d": 345.64359374999185,
      "v": 78
    },
    {
      "midi": 61,
      "hit": false,
      "t": 196363.43999999977,
      "d": 352.7458593749907,
      "v": 90
    },
    {
      "midi": 70,
      "hit": false,
      "t": 196363.43999999977,
      "d": 390.6246093749942,
      "v": 66
    },
    {
      "midi": 58,
      "hit": false,
      "t": 196363.43999999977,
      "d": 1392.0440625000047,
      "v": 84
    },
    {
      "midi": 49,
      "hit": false,
      "t": 196363.43999999977,
      "d": 1396.7789062499942,
      "v": 84
    },
    {
      "midi": 68,
      "hit": false,
      "t": 197045.25749999977,
      "d": 94.69687499999418,
      "v": 84
    },
    {
      "midi": 66,
      "hit": false,
      "t": 197499.80249999976,
      "d": 75.75750000000698,
      "v": 66
    },
    {
      "midi": 75,
      "hit": false,
      "t": 198174.51773437476,
      "d": 771.7795312500093,
      "v": 75
    },
    {
      "midi": 66,
      "hit": false,
      "t": 198181.61999999976,
      "d": 913.8248437500151,
      "v": 56
    },
    {
      "midi": 59,
      "hit": false,
      "t": 198181.61999999976,
      "d": 923.2945312500233,
      "v": 100
    },
    {
      "midi": 63,
      "hit": false,
      "t": 198181.61999999976,
      "d": 935.1316406250116,
      "v": 90
    },
    {
      "midi": 54,
      "hit": false,
      "t": 198181.61999999976,
      "d": 951.7035937500186,
      "v": 66
    },
    {
      "midi": 47,
      "hit": false,
      "t": 198181.61999999976,
      "d": 970.6429687500058,
      "v": 84
    },
    {
      "midi": 75,
      "hit": false,
      "t": 199076.50546874976,
      "d": 388.25718750001397,
      "v": 69
    },
    {
      "midi": 73,
      "hit": false,
      "t": 199538.15273437477,
      "d": 1081.911796875007,
      "v": 60
    },
    {
      "midi": 61,
      "hit": false,
      "t": 199999.79999999976,
      "d": 1098.483750000014,
      "v": 42
    },
    {
      "midi": 58,
      "hit": false,
      "t": 199999.79999999976,
      "d": 1105.5860156250128,
      "v": 60
    },
    {
      "midi": 65,
      "hit": false,
      "t": 199999.79999999976,
      "d": 1119.7905468750105,
      "v": 80
    },
    {
      "midi": 53,
      "hit": false,
      "t": 199999.79999999976,
      "d": 1145.8321874999965,
      "v": 84
    },
    {
      "midi": 46,
      "hit": false,
      "t": 199999.79999999976,
      "d": 1152.9344531249953,
      "v": 84
    },
    {
      "midi": 70,
      "hit": false,
      "t": 200887.58320312478,
      "d": 426.13593749998836,
      "v": 60
    },
    {
      "midi": 75,
      "hit": false,
      "t": 201344.49562499978,
      "d": 589.4880468749907,
      "v": 75
    },
    {
      "midi": 51,
      "hit": false,
      "t": 201817.97999999975,
      "d": 2275.092421874986,
      "v": 90
    },
    {
      "midi": 39,
      "hit": false,
      "t": 201817.97999999975,
      "d": 2301.134062499972,
      "v": 84
    },
    {
      "midi": 66,
      "hit": false,
      "t": 201817.97999999975,
      "d": 2421.8725781249814,
      "v": 66
    },
    {
      "midi": 70,
      "hit": false,
      "t": 201817.97999999975,
      "d": 2424.2399999999907,
      "v": 84
    },
    {
      "midi": 63,
      "hit": false,
      "t": 201817.97999999975,
      "d": 2428.97484374998,
      "v": 66
    },
    {
      "midi": 39,
      "hit": false,
      "t": 204317.97749999972,
      "d": 61.55296875000931,
      "v": 12
    },
    {
      "midi": 51,
      "hit": false,
      "t": 204317.97749999972,
      "d": 284.09062500004075,
      "v": 66
    },
    {
      "midi": 70,
      "hit": false,
      "t": 204538.14773437477,
      "d": 236.7421875,
      "v": 72
    },
    {
      "midi": 66,
      "hit": false,
      "t": 204545.24999999974,
      "d": 47.34843750001164,
      "v": 84
    },
    {
      "midi": 63,
      "hit": false,
      "t": 204545.24999999974,
      "d": 68.65523437500815,
      "v": 90
    },
    {
      "midi": 70,
      "hit": false,
      "t": 204545.24999999974,
      "d": 89.96203125000466,
      "v": 90
    },
    {
      "midi": 73,
      "hit": false,
      "t": 204744.11343749976,
      "d": 213.06796874999418,
      "v": 60
    },
    {
      "midi": 75,
      "hit": false,
      "t": 204985.59046874975,
      "d": 674.7152343750058,
      "v": 80
    },
    {
      "midi": 66,
      "hit": false,
      "t": 205454.33999999973,
      "d": 1382.5743749999965,
      "v": 48
    },
    {
      "midi": 42,
      "hit": false,
      "t": 205454.33999999973,
      "d": 1410.9834374999919,
      "v": 78
    },
    {
      "midi": 54,
      "hit": false,
      "t": 205454.33999999973,
      "d": 1413.3508593750012,
      "v": 98
    },
    {
      "midi": 61,
      "hit": false,
      "t": 205454.33999999973,
      "d": 1425.1879687499895,
      "v": 78
    },
    {
      "midi": 70,
      "hit": false,
      "t": 205454.33999999973,
      "d": 1425.1879687499895,
      "v": 106
    },
    {
      "midi": 70,
      "hit": false,
      "t": 206100.64617187475,
      "d": 130.20820312498836,
      "v": 67
    },
    {
      "midi": 70,
      "hit": false,
      "t": 206330.28609374975,
      "d": 179.9240625000093,
      "v": 72
    },
    {
      "midi": 73,
      "hit": false,
      "t": 206548.08890624976,
      "d": 182.29148437498952,
      "v": 60
    },
    {
      "midi": 75,
      "hit": false,
      "t": 206777.72882812476,
      "d": 575.283515624993,
      "v": 77
    },
    {
      "midi": 65,
      "hit": false,
      "t": 207272.51999999973,
      "d": 1129.2602343749895,
      "v": 88
    },
    {
      "midi": 68,
      "hit": false,
      "t": 207272.51999999973,
      "d": 1141.0973437499779,
      "v": 72
    },
    {
      "midi": 61,
      "hit": false,
      "t": 207272.51999999973,
      "d": 1157.6692968749849,
      "v": 66
    },
    {
      "midi": 53,
      "hit": false,
      "t": 207272.51999999973,
      "d": 1259.4684374999779,
      "v": 88
    },
    {
      "midi": 41,
      "hit": false,
      "t": 207272.51999999973,
      "d": 1278.407812499965,
      "v": 70
    },
    {
      "midi": 73,
      "hit": false,
      "t": 207464.28117187475,
      "d": 624.999375000014,
      "v": 67
    },
    {
      "midi": 70,
      "hit": false,
      "t": 208392.31054687477,
      "d": 281.7232031250023,
      "v": 72
    },
    {
      "midi": 73,
      "hit": false,
      "t": 208624.31789062478,
      "d": 196.4960156249872,
      "v": 69
    },
    {
      "midi": 75,
      "hit": false,
      "t": 208853.95781249978,
      "d": 395.3594531250128,
      "v": 77
    },
    {
      "midi": 58,
      "hit": false,
      "t": 209090.6999999997,
      "d": 691.2871874999837,
      "v": 84
    },
    {
      "midi": 63,
      "hit": false,
      "t": 209090.6999999997,
      "d": 691.2871874999837,
      "v": 90
    },
    {
      "midi": 66,
      "hit": false,
      "t": 209090.6999999997,
      "d": 731.5333593749965,
      "v": 72
    },
    {
      "midi": 39,
      "hit": false,
      "t": 209090.6999999997,
      "d": 750.4727343749837,
      "v": 78
    },
    {
      "midi": 51,
      "hit": false,
      "t": 209090.6999999997,
      "d": 790.7189062499965,
      "v": 90
    },
    {
      "midi": 75,
      "hit": false,
      "t": 209341.6467187498,
      "d": 127.84078125000815,
      "v": 60
    },
    {
      "midi": 75,
      "hit": false,
      "t": 209566.55179687482,
      "d": 179.9240625000093,
      "v": 56
    },
    {
      "midi": 77,
      "hit": false,
      "t": 209798.55914062483,
      "d": 222.53765624997322,
      "v": 74
    },
    {
      "midi": 75,
      "hit": false,
      "t": 210002.1574218748,
      "d": 267.51867187497555,
      "v": 75
    },
    {
      "midi": 73,
      "hit": false,
      "t": 210250.7367187498,
      "d": 220.1702343749639,
      "v": 60
    },
    {
      "midi": 70,
      "hit": false,
      "t": 210459.06984374978,
      "d": 596.5903124999895,
      "v": 80
    },
    {
      "midi": 66,
      "hit": false,
      "t": 210908.87999999968,
      "d": 331.4390625000233,
      "v": 84
    },
    {
      "midi": 61,
      "hit": false,
      "t": 210908.87999999968,
      "d": 336.1739062500128,
      "v": 56
    },
    {
      "midi": 70,
      "hit": false,
      "t": 210908.87999999968,
      "d": 374.0526562500163,
      "v": 90
    },
    {
      "midi": 58,
      "hit": false,
      "t": 210908.87999999968,
      "d": 1309.1842968749988,
      "v": 98
    },
    {
      "midi": 49,
      "hit": false,
      "t": 210908.87999999968,
      "d": 1323.3888281249965,
      "v": 78
    },
    {
      "midi": 68,
      "hit": false,
      "t": 211590.6974999997,
      "d": 101.79914062499302,
      "v": 84
    },
    {
      "midi": 66,
      "hit": false,
      "t": 212045.24249999967,
      "d": 61.55296875000931,
      "v": 90
    },
    {
      "midi": 75,
      "hit": false,
      "t": 212708.12062499978,
      "d": 759.9424218749919,
      "v": 83
    },
    {
      "midi": 59,
      "hit": false,
      "t": 212727.05999999968,
      "d": 989.582343749993,
      "v": 100
    },
    {
      "midi": 66,
      "hit": false,
      "t": 212727.05999999968,
      "d": 989.582343749993,
      "v": 66
    },
    {
      "midi": 63,
      "hit": false,
      "t": 212727.05999999968,
      "d": 1003.7868749999907,
      "v": 72
    },
    {
      "midi": 54,
      "hit": false,
      "t": 212727.05999999968,
      "d": 1025.0936718749872,
      "v": 90
    },
    {
      "midi": 47,
      "hit": false,
      "t": 212727.05999999968,
      "d": 1032.195937499986,
      "v": 78
    },
    {
      "midi": 75,
      "hit": false,
      "t": 213664.55906249976,
      "d": 350.3784375000105,
      "v": 77
    },
    {
      "midi": 73,
      "hit": false,
      "t": 214095.42984374976,
      "d": 714.9614062499895,
      "v": 77
    },
    {
      "midi": 61,
      "hit": false,
      "t": 214545.23999999964,
      "d": 991.9497656250023,
      "v": 56
    },
    {
      "midi": 58,
      "hit": false,
      "t": 214545.23999999964,
      "d": 994.3171875000116,
      "v": 84
    },
    {
      "midi": 65,
      "hit": false,
      "t": 214545.23999999964,
      "d": 1006.154296875,
      "v": 92
    },
    {
      "midi": 46,
      "hit": false,
      "t": 214545.23999999964,
      "d": 1058.2375781250012,
      "v": 84
    },
    {
      "midi": 53,
      "hit": false,
      "t": 214545.23999999964,
      "d": 1070.0746874999895,
      "v": 92
    },
    {
      "midi": 70,
      "hit": false,
      "t": 215918.34468749975,
      "d": 248.57929687498836,
      "v": 44
    },
    {
      "midi": 75,
      "hit": false,
      "t": 216138.51492187474,
      "d": 300.6625781249895,
      "v": 77
    },
    {
      "midi": 66,
      "hit": false,
      "t": 216363.4199999996,
      "d": 1077.1769531250175,
      "v": 72
    },
    {
      "midi": 70,
      "hit": false,
      "t": 216363.4199999996,
      "d": 1086.6466406250256,
      "v": 98
    },
    {
      "midi": 63,
      "hit": false,
      "t": 216363.4199999996,
      "d": 1098.483750000014,
      "v": 90
    },
    {
      "midi": 58,
      "hit": false,
      "t": 216363.4199999996,
      "d": 1100.8511718750233,
      "v": 84
    },
    {
      "midi": 51,
      "hit": false,
      "t": 216363.4199999996,
      "d": 1126.8928125000093,
      "v": 116
    },
    {
      "midi": 75,
      "hit": false,
      "t": 216562.28343749972,
      "d": 343.27617187501164,
      "v": 83
    },
    {
      "midi": 70,
      "hit": false,
      "t": 217038.13523437473,
      "d": 478.2192187499895,
      "v": 86
    },
    {
      "midi": 63,
      "hit": false,
      "t": 218181.5999999996,
      "d": 511.3631249999744,
      "v": 84
    },
    {
      "midi": 60,
      "hit": false,
      "t": 218181.5999999996,
      "d": 518.4653906249732,
      "v": 80
    },
    {
      "midi": 68,
      "hit": false,
      "t": 218181.5999999996,
      "d": 535.0373437499802,
      "v": 56
    },
    {
      "midi": 44,
      "hit": false,
      "t": 218181.5999999996,
      "d": 1351.7978906249919,
      "v": 84
    },
    {
      "midi": 51,
      "hit": false,
      "t": 218636.14499999958,
      "d": 899.6203125000175,
      "v": 60
    },
    {
      "midi": 56,
      "hit": false,
      "t": 218863.41749999957,
      "d": 655.7758593750186,
      "v": 84
    },
    {
      "midi": 60,
      "hit": false,
      "t": 219317.9624999996,
      "d": 108.90140624999185,
      "v": 80
    },
    {
      "midi": 63,
      "hit": false,
      "t": 219545.2349999996,
      "d": 68.65523437500815,
      "v": 78
    },
    {
      "midi": 59,
      "hit": false,
      "t": 219999.77999999962,
      "d": 1143.4647656250163,
      "v": 100
    },
    {
      "midi": 63,
      "hit": false,
      "t": 219999.77999999962,
      "d": 1164.7715625000128,
      "v": 90
    },
    {
      "midi": 66,
      "hit": false,
      "t": 219999.77999999962,
      "d": 1178.9760937500105,
      "v": 90
    },
    {
      "midi": 54,
      "hit": false,
      "t": 219999.77999999962,
      "d": 1221.5896875000035,
      "v": 72
    },
    {
      "midi": 47,
      "hit": false,
      "t": 219999.77999999962,
      "d": 1240.5290624999907,
      "v": 100
    },
    {
      "midi": 75,
      "hit": false,
      "t": 221169.2864062497,
      "d": 94.69687499999418,
      "v": 54
    },
    {
      "midi": 75,
      "hit": false,
      "t": 221389.4566406247,
      "d": 120.73851562500931,
      "v": 40
    },
    {
      "midi": 77,
      "hit": false,
      "t": 221607.25945312472,
      "d": 542.1396093750081,
      "v": 72
    },
    {
      "midi": 61,
      "hit": false,
      "t": 221817.95999999958,
      "d": 999.0520312500012,
      "v": 78
    },
    {
      "midi": 65,
      "hit": false,
      "t": 221817.95999999958,
      "d": 1006.154296875,
      "v": 100
    },
    {
      "midi": 68,
      "hit": false,
      "t": 221817.95999999958,
      "d": 1029.8285156250058,
      "v": 90
    },
    {
      "midi": 56,
      "hit": false,
      "t": 221817.95999999958,
      "d": 1046.4004687500128,
      "v": 72
    },
    {
      "midi": 49,
      "hit": false,
      "t": 221817.95999999958,
      "d": 1065.33984375,
      "v": 84
    },
    {
      "midi": 77,
      "hit": false,
      "t": 222267.77015624972,
      "d": 168.08695312499185,
      "v": 66
    },
    {
      "midi": 75,
      "hit": false,
      "t": 222487.94039062472,
      "d": 478.2192187500186,
      "v": 77
    },
    {
      "midi": 73,
      "hit": false,
      "t": 222918.81117187472,
      "d": 201.23085937500582,
      "v": 37
    },
    {
      "midi": 78,
      "hit": false,
      "t": 223134.24656249973,
      "d": 265.15124999999534,
      "v": 60
    },
    {
      "midi": 75,
      "hit": false,
      "t": 223363.88648437473,
      "d": 587.1206249999814,
      "v": 72
    },
    {
      "midi": 63,
      "hit": false,
      "t": 223636.13999999958,
      "d": 1074.809531249979,
      "v": 98
    },
    {
      "midi": 66,
      "hit": false,
      "t": 223636.13999999958,
      "d": 1096.1163281249756,
      "v": 78
    },
    {
      "midi": 70,
      "hit": false,
      "t": 223636.13999999958,
      "d": 1117.423124999972,
      "v": 98
    },
    {
      "midi": 39,
      "hit": false,
      "t": 223636.13999999958,
      "d": 1240.5290624999616,
      "v": 90
    },
    {
      "midi": 51,
      "hit": false,
      "t": 224772.50249999954,
      "d": 213.06796874999418,
      "v": 60
    },
    {
      "midi": 63,
      "hit": false,
      "t": 224999.77499999953,
      "d": 40.246171875012806,
      "v": 78
    },
    {
      "midi": 51,
      "hit": false,
      "t": 225454.31999999954,
      "d": 1188.4457812499895,
      "v": 72
    },
    {
      "midi": 63,
      "hit": false,
      "t": 225454.31999999954,
      "d": 1195.5480468749884,
      "v": 98
    },
    {
      "midi": 60,
      "hit": false,
      "t": 225454.31999999954,
      "d": 1205.0177343749965,
      "v": 84
    },
    {
      "midi": 56,
      "hit": false,
      "t": 225454.31999999954,
      "d": 1209.752578124986,
      "v": 84
    },
    {
      "midi": 44,
      "hit": false,
      "t": 225454.31999999954,
      "d": 1219.2222656249942,
      "v": 52
    },
    {
      "midi": 68,
      "hit": false,
      "t": 226136.13749999952,
      "d": 468.7495312500105,
      "v": 84
    },
    {
      "midi": 59,
      "hit": false,
      "t": 227272.49999999953,
      "d": 1072.4421093749697,
      "v": 100
    },
    {
      "midi": 63,
      "hit": false,
      "t": 227272.49999999953,
      "d": 1086.6466406249674,
      "v": 84
    },
    {
      "midi": 66,
      "hit": false,
      "t": 227272.49999999953,
      "d": 1119.7905468749814,
      "v": 78
    },
    {
      "midi": 47,
      "hit": false,
      "t": 227272.49999999953,
      "d": 1197.9154687499686,
      "v": 96
    },
    {
      "midi": 54,
      "hit": false,
      "t": 227272.49999999953,
      "d": 1214.4874218749756,
      "v": 84
    },
    {
      "midi": 75,
      "hit": false,
      "t": 228394.6579687497,
      "d": 111.26882812500116,
      "v": 69
    },
    {
      "midi": 75,
      "hit": false,
      "t": 228600.6236718747,
      "d": 158.6172656250128,
      "v": 56
    },
    {
      "midi": 77,
      "hit": false,
      "t": 228834.99843749971,
      "d": 544.5070312499884,
      "v": 56
    },
    {
      "midi": 61,
      "hit": false,
      "t": 229090.6799999995,
      "d": 965.9081250000163,
      "v": 78
    },
    {
      "midi": 65,
      "hit": false,
      "t": 229090.6799999995,
      "d": 977.7452343750047,
      "v": 106
    },
    {
      "midi": 68,
      "hit": false,
      "t": 229090.6799999995,
      "d": 999.0520312500012,
      "v": 98
    },
    {
      "midi": 56,
      "hit": false,
      "t": 229090.6799999995,
      "d": 1041.6656249999942,
      "v": 66
    },
    {
      "midi": 49,
      "hit": false,
      "t": 229090.6799999995,
      "d": 1048.767890624993,
      "v": 84
    },
    {
      "midi": 77,
      "hit": false,
      "t": 229531.02046874972,
      "d": 213.06796874999418,
      "v": 66
    },
    {
      "midi": 75,
      "hit": false,
      "t": 229751.1907031247,
      "d": 485.32148437501746,
      "v": 58
    },
    {
      "midi": 73,
      "hit": false,
      "t": 230205.73570312472,
      "d": 198.8634374999965,
      "v": 37
    },
    {
      "midi": 78,
      "hit": false,
      "t": 230416.4362499997,
      "d": 276.9883593749837,
      "v": 54
    },
    {
      "midi": 75,
      "hit": false,
      "t": 230650.8110156247,
      "d": 558.711562499986,
      "v": 72
    },
    {
      "midi": 63,
      "hit": false,
      "t": 230908.8599999995,
      "d": 1053.5027343749825,
      "v": 84
    },
    {
      "midi": 66,
      "hit": false,
      "t": 230908.8599999995,
      "d": 1053.5027343749825,
      "v": 60
    },
    {
      "midi": 70,
      "hit": false,
      "t": 230908.8599999995,
      "d": 1065.339843749971,
      "v": 90
    },
    {
      "midi": 39,
      "hit": false,
      "t": 230908.8599999995,
      "d": 1202.650312499958,
      "v": 90
    },
    {
      "midi": 51,
      "hit": false,
      "t": 232045.22249999945,
      "d": 177.556640625,
      "v": 66
    },
    {
      "midi": 70,
      "hit": false,
      "t": 232272.49499999944,
      "d": 26.04164062498603,
      "v": 22
    },
    {
      "midi": 63,
      "hit": false,
      "t": 232272.49499999944,
      "d": 44.981015624973224,
      "v": 42
    },
    {
      "midi": 66,
      "hit": false,
      "t": 232272.49499999944,
      "d": 56.81812499996158,
      "v": 52
    },
    {
      "midi": 60,
      "hit": false,
      "t": 232727.0399999994,
      "d": 1458.3318749999744,
      "v": 84
    },
    {
      "midi": 62,
      "hit": false,
      "t": 232727.0399999994,
      "d": 1460.6992968749837,
      "v": 68
    },
    {
      "midi": 66,
      "hit": false,
      "t": 232727.0399999994,
      "d": 1460.6992968749837,
      "v": 60
    },
    {
      "midi": 69,
      "hit": false,
      "t": 232727.0399999994,
      "d": 1498.5780468749872,
      "v": 84
    },
    {
      "midi": 50,
      "hit": false,
      "t": 232727.0399999994,
      "d": 1500.9454687499965,
      "v": 100
    },
    {
      "midi": 38,
      "hit": false,
      "t": 232727.0399999994,
      "d": 1503.3128906250058,
      "v": 92
    },
    {
      "midi": 71,
      "hit": false,
      "t": 233643.23226562468,
      "d": 241.47703125001863,
      "v": 56
    },
    {
      "midi": 74,
      "hit": false,
      "t": 233851.5653906247,
      "d": 253.31414062500698,
      "v": 61
    },
    {
      "midi": 76,
      "hit": false,
      "t": 234078.8378906247,
      "d": 797.8211718749953,
      "v": 64
    },
    {
      "midi": 59,
      "hit": false,
      "t": 234545.21999999942,
      "d": 1254.7335937500175,
      "v": 100
    },
    {
      "midi": 62,
      "hit": false,
      "t": 234545.21999999942,
      "d": 1254.7335937500175,
      "v": 78
    },
    {
      "midi": 43,
      "hit": false,
      "t": 234545.21999999942,
      "d": 1261.8358593750163,
      "v": 116
    },
    {
      "midi": 67,
      "hit": false,
      "t": 234545.21999999942,
      "d": 1268.9381250000151,
      "v": 96
    },
    {
      "midi": 50,
      "hit": false,
      "t": 234545.21999999942,
      "d": 1271.3055468750244,
      "v": 106
    },
    {
      "midi": 71,
      "hit": false,
      "t": 235409.3289843747,
      "d": 295.927734375,
      "v": 58
    },
    {
      "midi": 74,
      "hit": false,
      "t": 235641.33632812471,
      "d": 250.94671874999767,
      "v": 26
    },
    {
      "midi": 76,
      "hit": false,
      "t": 235885.1807812497,
      "d": 712.5939843750093,
      "v": 68
    },
    {
      "midi": 66,
      "hit": false,
      "t": 236363.39999999944,
      "d": 1072.4421093749988,
      "v": 84
    },
    {
      "midi": 42,
      "hit": false,
      "t": 236363.39999999944,
      "d": 1086.6466406249965,
      "v": 98
    },
    {
      "midi": 57,
      "hit": false,
      "t": 236363.39999999944,
      "d": 1086.6466406249965,
      "v": 88
    },
    {
      "midi": 62,
      "hit": false,
      "t": 236363.39999999944,
      "d": 1103.2185937500035,
      "v": 88
    },
    {
      "midi": 50,
      "hit": false,
      "t": 236363.39999999944,
      "d": 1112.6882812500116,
      "v": 100
    },
    {
      "midi": 74,
      "hit": false,
      "t": 236557.5285937497,
      "d": 688.9197656250035,
      "v": 58
    },
    {
      "midi": 71,
      "hit": false,
      "t": 237497.3950781247,
      "d": 286.45804687502095,
      "v": 52
    },
    {
      "midi": 74,
      "hit": false,
      "t": 237708.09562499973,
      "d": 229.63992187500116,
      "v": 52
    },
    {
      "midi": 76,
      "hit": false,
      "t": 237940.10296874974,
      "d": 447.44273437501397,
      "v": 76
    },
    {
      "midi": 59,
      "hit": false,
      "t": 238181.57999999946,
      "d": 1458.3318749999744,
      "v": 88
    },
    {
      "midi": 64,
      "hit": false,
      "t": 238181.57999999946,
      "d": 1458.3318749999744,
      "v": 100
    },
    {
      "midi": 40,
      "hit": false,
      "t": 238181.57999999946,
      "d": 1467.8015624999825,
      "v": 116
    },
    {
      "midi": 67,
      "hit": false,
      "t": 238181.57999999946,
      "d": 1486.7409374999697,
      "v": 84
    },
    {
      "midi": 78,
      "hit": false,
      "t": 238598.24624999976,
      "d": 222.53765625000233,
      "v": 64
    },
    {
      "midi": 76,
      "hit": false,
      "t": 238839.72328124975,
      "d": 464.01468749999185,
      "v": 63
    },
    {
      "midi": 74,
      "hit": false,
      "t": 239265.85921874974,
      "d": 276.9883593750128,
      "v": 72
    },
    {
      "midi": 71,
      "hit": false,
      "t": 239502.60140624974,
      "d": 653.4084375000093,
      "v": 64
    },
    {
      "midi": 59,
      "hit": false,
      "t": 239999.75999999943,
      "d": 497.1585937499767,
      "v": 96
    },
    {
      "midi": 69,
      "hit": false,
      "t": 239999.75999999943,
      "d": 504.26085937497555,
      "v": 100
    },
    {
      "midi": 62,
      "hit": false,
      "t": 239999.75999999943,
      "d": 518.4653906249732,
      "v": 106
    },
    {
      "midi": 38,
      "hit": false,
      "t": 239999.75999999943,
      "d": 1316.2865624999395,
      "v": 110
    },
    {
      "midi": 50,
      "hit": false,
      "t": 240454.3049999994,
      "d": 312.4996874999779,
      "v": 38
    },
    {
      "midi": 67,
      "hit": false,
      "t": 240681.5774999994,
      "d": 326.70421874997555,
      "v": 96
    },
    {
      "midi": 62,
      "hit": false,
      "t": 241136.1224999994,
      "d": 78.1249218749872,
      "v": 74
    },
    {
      "midi": 50,
      "hit": false,
      "t": 241363.39499999938,
      "d": 61.55296875000931,
      "v": 78
    },
    {
      "midi": 67,
      "hit": false,
      "t": 241817.9399999994,
      "d": 1268.938124999986,
      "v": 100
    },
    {
      "midi": 64,
      "hit": false,
      "t": 241817.9399999994,
      "d": 1273.6729687499756,
      "v": 92
    },
    {
      "midi": 55,
      "hit": false,
      "t": 241817.9399999994,
      "d": 1278.407812499965,
      "v": 96
    },
    {
      "midi": 48,
      "hit": false,
      "t": 241817.9399999994,
      "d": 1297.3471874999523,
      "v": 110
    },
    {
      "midi": 60,
      "hit": false,
      "t": 241817.9399999994,
      "d": 1309.1842968749406,
      "v": 100
    },
    {
      "midi": 76,
      "hit": false,
      "t": 241822.67484374976,
      "d": 1316.2865624999977,
      "v": 85
    },
    {
      "midi": 74,
      "hit": false,
      "t": 243183.94242187476,
      "d": 1330.4910937499953,
      "v": 68
    },
    {
      "midi": 54,
      "hit": false,
      "t": 243636.11999999933,
      "d": 1276.040390625014,
      "v": 90
    },
    {
      "midi": 66,
      "hit": false,
      "t": 243636.11999999933,
      "d": 1278.4078125000233,
      "v": 56
    },
    {
      "midi": 59,
      "hit": false,
      "t": 243636.11999999933,
      "d": 1290.2449218750116,
      "v": 106
    },
    {
      "midi": 62,
      "hit": false,
      "t": 243636.11999999933,
      "d": 1309.1842968749988,
      "v": 96
    },
    {
      "midi": 47,
      "hit": false,
      "t": 243636.11999999933,
      "d": 1316.2865624999977,
      "v": 88
    },
    {
      "midi": 71,
      "hit": false,
      "t": 244519.16835937474,
      "d": 459.2798437500023,
      "v": 76
    },
    {
      "midi": 76,
      "hit": false,
      "t": 244971.34593749975,
      "d": 589.4880468749907,
      "v": 85
    },
    {
      "midi": 59,
      "hit": false,
      "t": 245454.29999999932,
      "d": 2414.7703125000116,
      "v": 96
    },
    {
      "midi": 67,
      "hit": false,
      "t": 245454.29999999932,
      "d": 2445.5467968750163,
      "v": 88
    },
    {
      "midi": 64,
      "hit": false,
      "t": 245454.29999999932,
      "d": 2450.281640625006,
      "v": 92
    },
    {
      "midi": 40,
      "hit": false,
      "t": 245454.29999999932,
      "d": 3127.364296874992,
      "v": 116
    },
    {
      "midi": 76,
      "hit": false,
      "t": 245629.48921874975,
      "d": 419.0336718749895,
      "v": 68
    },
    {
      "midi": 52,
      "hit": false,
      "t": 247954.29749999932,
      "d": 340.9087500000023,
      "v": 92
    },
    {
      "midi": 67,
      "hit": false,
      "t": 248181.5699999993,
      "d": 156.2498437500035,
      "v": 78
    },
    {
      "midi": 64,
      "hit": false,
      "t": 248181.5699999993,
      "d": 227.27249999999185,
      "v": 92
    },
    {
      "midi": 71,
      "hit": false,
      "t": 248186.30484374973,
      "d": 239.1096093750093,
      "v": 66
    },
    {
      "midi": 74,
      "hit": false,
      "t": 248378.06601562473,
      "d": 291.1928906250105,
      "v": 68
    },
    {
      "midi": 59,
      "hit": false,
      "t": 248408.8424999993,
      "d": 80.49234374999651,
      "v": 84
    },
    {
      "midi": 76,
      "hit": false,
      "t": 248619.54304687475,
      "d": 665.2455468749977,
      "v": 83
    },
    {
      "midi": 52,
      "hit": false,
      "t": 248636.11499999932,
      "d": 87.59460937499534,
      "v": 88
    },
    {
      "midi": 43,
      "hit": false,
      "t": 249090.65999999933,
      "d": 1363.6350000000093,
      "v": 116
    },
    {
      "midi": 59,
      "hit": false,
      "t": 249090.65999999933,
      "d": 1366.0024218750186,
      "v": 100
    },
    {
      "midi": 62,
      "hit": false,
      "t": 249090.65999999933,
      "d": 1375.4721093750268,
      "v": 88
    },
    {
      "midi": 67,
      "hit": false,
      "t": 249090.65999999933,
      "d": 1396.7789062500233,
      "v": 92
    },
    {
      "midi": 74,
      "hit": false,
      "t": 249287.15601562476,
      "d": 698.3894531249825,
      "v": 66
    },
    {
      "midi": 71,
      "hit": false,
      "t": 249980.81062499975,
      "d": 291.1928906249814,
      "v": 70
    },
    {
      "midi": 74,
      "hit": false,
      "t": 250215.18539062474,
      "d": 260.4164062500058,
      "v": 58
    },
    {
      "midi": 76,
      "hit": false,
      "t": 250459.02984374974,
      "d": 648.6735937500198,
      "v": 81
    },
    {
      "midi": 57,
      "hit": false,
      "t": 250908.83999999936,
      "d": 1292.612343750021,
      "v": 100
    },
    {
      "midi": 50,
      "hit": false,
      "t": 250908.83999999936,
      "d": 1316.2865625000268,
      "v": 74
    },
    {
      "midi": 42,
      "hit": false,
      "t": 250908.83999999936,
      "d": 1323.3888281250256,
      "v": 106
    },
    {
      "midi": 62,
      "hit": false,
      "t": 250908.83999999936,
      "d": 1330.4910937500244,
      "v": 78
    },
    {
      "midi": 66,
      "hit": false,
      "t": 250908.83999999936,
      "d": 1342.3282031250128,
      "v": 84
    },
    {
      "midi": 74,
      "hit": false,
      "t": 251143.21476562475,
      "d": 1115.0557031249919,
      "v": 66
    },
    {
      "midi": 71,
      "hit": false,
      "t": 252277.20984374973,
      "d": 258.0489843749965,
      "v": 74
    },
    {
      "midi": 74,
      "hit": false,
      "t": 252483.17554687473,
      "d": 213.06796874999418,
      "v": 55
    },
    {
      "midi": 76,
      "hit": false,
      "t": 252712.81546874973,
      "d": 352.7458593749907,
      "v": 76
    },
    {
      "midi": 59,
      "hit": false,
      "t": 252727.01999999938,
      "d": 1321.0214062500163,
      "v": 100
    },
    {
      "midi": 40,
      "hit": false,
      "t": 252727.01999999938,
      "d": 1356.5327343750105,
      "v": 110
    },
    {
      "midi": 67,
      "hit": false,
      "t": 252727.01999999938,
      "d": 1356.5327343750105,
      "v": 92
    },
    {
      "midi": 64,
      "hit": false,
      "t": 252727.01999999938,
      "d": 1370.7372656250081,
      "v": 96
    },
    {
      "midi": 75,
      "hit": false,
      "t": 252909.31148437472,
      "d": 59.185546875,
      "v": 29
    },
    {
      "midi": 78,
      "hit": false,
      "t": 253200.50437499973,
      "d": 236.7421875,
      "v": 77
    },
    {
      "midi": 76,
      "hit": false,
      "t": 253415.93976562473,
      "d": 426.13593749998836,
      "v": 61
    },
    {
      "midi": 74,
      "hit": false,
      "t": 253849.17796874972,
      "d": 250.94671874999767,
      "v": 70
    },
    {
      "midi": 71,
      "hit": false,
      "t": 254064.61335937472,
      "d": 632.1016406249837,
      "v": 83
    },
    {
      "midi": 52,
      "hit": false,
      "t": 254090.6549999994,
      "d": 160.98468749999302,
      "v": 96
    },
    {
      "midi": 59,
      "hit": false,
      "t": 254545.19999999937,
      "d": 449.8101562499942,
      "v": 92
    },
    {
      "midi": 62,
      "hit": false,
      "t": 254545.19999999937,
      "d": 492.4237499999872,
      "v": 92
    },
    {
      "midi": 69,
      "hit": false,
      "t": 254545.19999999937,
      "d": 494.7911718749965,
      "v": 96
    },
    {
      "midi": 38,
      "hit": false,
      "t": 254545.19999999937,
      "d": 1375.4721093749977,
      "v": 100
    },
    {
      "midi": 50,
      "hit": false,
      "t": 254999.74499999936,
      "d": 293.5603125000198,
      "v": 42
    },
    {
      "midi": 67,
      "hit": false,
      "t": 255227.01749999938,
      "d": 378.7875000000058,
      "v": 100
    },
    {
      "midi": 62,
      "hit": false,
      "t": 255681.5624999994,
      "d": 85.22718749998603,
      "v": 74
    },
    {
      "midi": 50,
      "hit": false,
      "t": 255908.83499999938,
      "d": 75.75749999997788,
      "v": 78
    },
    {
      "midi": 67,
      "hit": false,
      "t": 256363.37999999936,
      "d": 1290.2449218750116,
      "v": 100
    },
    {
      "midi": 64,
      "hit": false,
      "t": 256363.37999999936,
      "d": 1299.7146093750198,
      "v": 96
    },
    {
      "midi": 55,
      "hit": false,
      "t": 256363.37999999936,
      "d": 1313.9191406250175,
      "v": 106
    },
    {
      "midi": 60,
      "hit": false,
      "t": 256363.37999999936,
      "d": 1313.9191406250175,
      "v": 106
    },
    {
      "midi": 48,
      "hit": false,
      "t": 256363.37999999936,
      "d": 1323.3888281250256,
      "v": 110
    },
    {
      "midi": 76,
      "hit": false,
      "t": 256368.1148437497,
      "d": 1096.1163281250047,
      "v": 68
    },
    {
      "midi": 74,
      "hit": false,
      "t": 257705.7082031247,
      "d": 677.082656249986,
      "v": 85
    },
    {
      "midi": 54,
      "hit": false,
      "t": 258181.5599999994,
      "d": 1195.5480468749884,
      "v": 90
    },
    {
      "midi": 66,
      "hit": false,
      "t": 258181.5599999994,
      "d": 1219.2222656249942,
      "v": 56
    },
    {
      "midi": 59,
      "hit": false,
      "t": 258181.5599999994,
      "d": 1221.5896875000035,
      "v": 100
    },
    {
      "midi": 47,
      "hit": false,
      "t": 258181.5599999994,
      "d": 1242.896484375,
      "v": 96
    },
    {
      "midi": 62,
      "hit": false,
      "t": 258181.5599999994,
      "d": 1242.896484375,
      "v": 88
    },
    {
      "midi": 74,
      "hit": false,
      "t": 259358.16867187468,
      "d": 376.4200781249965,
      "v": 70
    },
    {
      "midi": 71,
      "hit": false,
      "t": 259668.30093749968,
      "d": 255.6815624999872,
      "v": 66
    },
    {
      "midi": 76,
      "hit": false,
      "t": 259947.65671874967,
      "d": 196.4960156249872,
      "v": 72
    },
    {
      "midi": 67,
      "hit": false,
      "t": 259999.73999999938,
      "d": 1167.1389843750221,
      "v": 96
    },
    {
      "midi": 59,
      "hit": false,
      "t": 259999.73999999938,
      "d": 1186.0783593750093,
      "v": 88
    },
    {
      "midi": 40,
      "hit": false,
      "t": 259999.73999999938,
      "d": 1205.0177343749965,
      "v": 100
    },
    {
      "midi": 64,
      "hit": false,
      "t": 259999.73999999938,
      "d": 1205.0177343749965,
      "v": 80
    },
    {
      "midi": 52,
      "hit": false,
      "t": 259999.73999999938,
      "d": 1264.2032812499965,
      "v": 106
    },
    {
      "midi": 76,
      "hit": false,
      "t": 260238.84960937465,
      "d": 236.7421875,
      "v": 76
    },
    {
      "midi": 76,
      "hit": false,
      "t": 260570.28867187464,
      "d": 104.16656250000233,
      "v": 72
    },
    {
      "midi": 76,
      "hit": false,
      "t": 260740.74304687465,
      "d": 170.45437500000116,
      "v": 41
    },
    {
      "midi": 71,
      "hit": false,
      "t": 260920.66710937466,
      "d": 205.96570312499534,
      "v": 64
    },
    {
      "midi": 69,
      "hit": false,
      "t": 261129.00023437466,
      "d": 236.7421875,
      "v": 64
    },
    {
      "midi": 61,
      "hit": false,
      "t": 261817.91999999937,
      "d": 298.2951562499802,
      "v": 72
    },
    {
      "midi": 57,
      "hit": false,
      "t": 261817.91999999937,
      "d": 303.02999999996973,
      "v": 78
    },
    {
      "midi": 64,
      "hit": false,
      "t": 261817.91999999937,
      "d": 324.33679687496624,
      "v": 88
    },
    {
      "midi": 45,
      "hit": false,
      "t": 261817.91999999937,
      "d": 1354.1653125000012,
      "v": 106
    },
    {
      "midi": 52,
      "hit": false,
      "t": 262272.4649999993,
      "d": 333.8064843750326,
      "v": 60
    },
    {
      "midi": 69,
      "hit": false,
      "t": 262499.73749999935,
      "d": 123.10593750001863,
      "v": 100
    },
    {
      "midi": 64,
      "hit": false,
      "t": 262954.2824999994,
      "d": 75.75750000000698,
      "v": 84
    },
    {
      "midi": 52,
      "hit": false,
      "t": 263181.55499999935,
      "d": 87.59460937499534,
      "v": 84
    },
    {
      "midi": 60,
      "hit": false,
      "t": 263636.09999999934,
      "d": 1337.593359374965,
      "v": 100
    },
    {
      "midi": 64,
      "hit": false,
      "t": 263636.09999999934,
      "d": 1351.7978906249627,
      "v": 96
    },
    {
      "midi": 48,
      "hit": false,
      "t": 263636.09999999934,
      "d": 1363.634999999951,
      "v": 96
    },
    {
      "midi": 55,
      "hit": false,
      "t": 263636.09999999934,
      "d": 1363.634999999951,
      "v": 106
    },
    {
      "midi": 67,
      "hit": false,
      "t": 263636.09999999934,
      "d": 1363.634999999951,
      "v": 88
    },
    {
      "midi": 76,
      "hit": false,
      "t": 264758.2579687497,
      "d": 116.00367187499069,
      "v": 76
    },
    {
      "midi": 76,
      "hit": false,
      "t": 264980.7956249997,
      "d": 177.556640625,
      "v": 53
    },
    {
      "midi": 78,
      "hit": false,
      "t": 265203.3332812497,
      "d": 577.6509375000023,
      "v": 80
    },
    {
      "midi": 57,
      "hit": false,
      "t": 265454.2799999993,
      "d": 1271.3055468749953,
      "v": 92
    },
    {
      "midi": 66,
      "hit": false,
      "t": 265454.2799999993,
      "d": 1276.040390625014,
      "v": 72
    },
    {
      "midi": 62,
      "hit": false,
      "t": 265454.2799999993,
      "d": 1283.142656250042,
      "v": 106
    },
    {
      "midi": 50,
      "hit": false,
      "t": 265454.2799999993,
      "d": 1304.4494531250675,
      "v": 106
    },
    {
      "midi": 69,
      "hit": false,
      "t": 265454.2799999993,
      "d": 1304.4494531250675,
      "v": 96
    },
    {
      "midi": 78,
      "hit": false,
      "t": 265901.7227343747,
      "d": 182.29148437501863,
      "v": 72
    },
    {
      "midi": 76,
      "hit": false,
      "t": 266145.5671874997,
      "d": 371.685234375007,
      "v": 74
    },
    {
      "midi": 74,
      "hit": false,
      "t": 266602.4796093747,
      "d": 177.556640625,
      "v": 70
    },
    {
      "midi": 79,
      "hit": false,
      "t": 266822.6498437497,
      "d": 236.7421875,
      "v": 64
    },
    {
      "midi": 76,
      "hit": false,
      "t": 267047.5549218747,
      "d": 551.6092968750163,
      "v": 72
    },
    {
      "midi": 64,
      "hit": false,
      "t": 267272.4599999993,
      "d": 1036.9307812500047,
      "v": 88
    },
    {
      "midi": 67,
      "hit": false,
      "t": 267272.4599999993,
      "d": 1065.33984375,
      "v": 96
    },
    {
      "midi": 71,
      "hit": false,
      "t": 267272.4599999993,
      "d": 1086.6466406250256,
      "v": 88
    },
    {
      "midi": 40,
      "hit": false,
      "t": 267272.4599999993,
      "d": 1325.756250000035,
      "v": 110
    },
    {
      "midi": 52,
      "hit": false,
      "t": 268408.82249999937,
      "d": 279.3557812499348,
      "v": 74
    },
    {
      "midi": 64,
      "hit": false,
      "t": 268636.09499999933,
      "d": 68.65523437497905,
      "v": 70
    },
    {
      "midi": 67,
      "hit": false,
      "t": 268636.09499999933,
      "d": 68.65523437497905,
      "v": 88
    },
    {
      "midi": 52,
      "hit": false,
      "t": 269090.6399999993,
      "d": 963.540703125007,
      "v": 100
    },
    {
      "midi": 57,
      "hit": false,
      "t": 269090.6399999993,
      "d": 1112.6882812500116,
      "v": 88
    },
    {
      "midi": 61,
      "hit": false,
      "t": 269090.6399999993,
      "d": 1143.4647656250163,
      "v": 60
    },
    {
      "midi": 64,
      "hit": false,
      "t": 269090.6399999993,
      "d": 1157.669296875014,
      "v": 106
    },
    {
      "midi": 45,
      "hit": false,
      "t": 269090.6399999993,
      "d": 1394.411484375014,
      "v": 100
    },
    {
      "midi": 52,
      "hit": false,
      "t": 270227.0024999993,
      "d": 239.1096093750093,
      "v": 78
    },
    {
      "midi": 57,
      "hit": false,
      "t": 270454.2749999993,
      "d": 73.39007812499767,
      "v": 92
    },
    {
      "midi": 60,
      "hit": false,
      "t": 270908.8199999993,
      "d": 1254.7335937499302,
      "v": 96
    },
    {
      "midi": 64,
      "hit": false,
      "t": 270908.8199999993,
      "d": 1273.6729687499464,
      "v": 92
    },
    {
      "midi": 48,
      "hit": false,
      "t": 270908.8199999993,
      "d": 1280.7752343749744,
      "v": 106
    },
    {
      "midi": 55,
      "hit": false,
      "t": 270908.8199999993,
      "d": 1283.1426562499837,
      "v": 106
    },
    {
      "midi": 67,
      "hit": false,
      "t": 270908.8199999993,
      "d": 1287.8775000000023,
      "v": 92
    },
    {
      "midi": 76,
      "hit": false,
      "t": 272042.81507812475,
      "d": 142.04531249997672,
      "v": 81
    },
    {
      "midi": 76,
      "hit": false,
      "t": 272277.18984374974,
      "d": 201.23085937497672,
      "v": 63
    },
    {
      "midi": 78,
      "hit": false,
      "t": 272499.72749999975,
      "d": 497.1585937499767,
      "v": 72
    },
    {
      "midi": 62,
      "hit": false,
      "t": 272726.9999999993,
      "d": 1309.1842968749697,
      "v": 80
    },
    {
      "midi": 57,
      "hit": false,
      "t": 272726.9999999993,
      "d": 1323.3888281249674,
      "v": 84
    },
    {
      "midi": 66,
      "hit": false,
      "t": 272726.9999999993,
      "d": 1323.3888281249674,
      "v": 72
    },
    {
      "midi": 69,
      "hit": false,
      "t": 272726.9999999993,
      "d": 1347.0630468749441,
      "v": 92
    },
    {
      "midi": 50,
      "hit": false,
      "t": 272726.9999999993,
      "d": 1361.2675781249418,
      "v": 80
    },
    {
      "midi": 78,
      "hit": false,
      "t": 273186.2798437497,
      "d": 198.8634375000256,
      "v": 72
    },
    {
      "midi": 76,
      "hit": false,
      "t": 273437.2265624997,
      "d": 274.6209374999744,
      "v": 85
    },
    {
      "midi": 74,
      "hit": false,
      "t": 273860.9950781247,
      "d": 350.3784374999814,
      "v": 72
    },
    {
      "midi": 71,
      "hit": false,
      "t": 274308.43781249964,
      "d": 558.711562499986,
      "v": 70
    },
    {
      "midi": 40,
      "hit": false,
      "t": 274545.17999999924,
      "d": 2713.065468750079,
      "v": 106
    },
    {
      "midi": 64,
      "hit": false,
      "t": 274545.17999999924,
      "d": 2734.372265625105,
      "v": 84
    },
    {
      "midi": 67,
      "hit": false,
      "t": 274545.17999999924,
      "d": 2748.5767968751024,
      "v": 88
    },
    {
      "midi": 71,
      "hit": false,
      "t": 274545.17999999924,
      "d": 2748.5767968751024,
      "v": 78
    },
    {
      "midi": 52,
      "hit": false,
      "t": 277272.4499999993,
      "d": 97.0642968750326,
      "v": 78
    },
    {
      "midi": 38,
      "hit": false,
      "t": 277499.72249999933,
      "d": 258.0489843750256,
      "v": 100
    },
    {
      "midi": 62,
      "hit": false,
      "t": 277499.72249999933,
      "d": 267.51867187500466,
      "v": 106
    },
    {
      "midi": 50,
      "hit": false,
      "t": 277499.72249999933,
      "d": 274.6209375000326,
      "v": 92
    },
    {
      "midi": 67,
      "hit": false,
      "t": 277499.72249999933,
      "d": 286.45804687502095,
      "v": 100
    },
    {
      "midi": 71,
      "hit": false,
      "t": 277499.72249999933,
      "d": 298.2951562500093,
      "v": 96
    },
    {
      "midi": 64,
      "hit": false,
      "t": 278181.53999999934,
      "d": 1195.5480468749884,
      "v": 100
    },
    {
      "midi": 60,
      "hit": false,
      "t": 278181.53999999934,
      "d": 1197.9154687499977,
      "v": 100
    },
    {
      "midi": 55,
      "hit": false,
      "t": 278181.53999999934,
      "d": 1214.4874218750047,
      "v": 106
    },
    {
      "midi": 67,
      "hit": false,
      "t": 278181.53999999934,
      "d": 1221.5896875000326,
      "v": 92
    },
    {
      "midi": 48,
      "hit": false,
      "t": 278181.53999999934,
      "d": 1228.6919531250605,
      "v": 116
    },
    {
      "midi": 76,
      "hit": false,
      "t": 279301.3305468746,
      "d": 127.84078124997905,
      "v": 76
    },
    {
      "midi": 76,
      "hit": false,
      "t": 279538.0727343746,
      "d": 177.556640625,
      "v": 72
    },
    {
      "midi": 78,
      "hit": false,
      "t": 279760.6103906246,
      "d": 530.3024999999907,
      "v": 75
    },
    {
      "midi": 62,
      "hit": false,
      "t": 279999.7199999994,
      "d": 1273.6729687500047,
      "v": 100
    },
    {
      "midi": 66,
      "hit": false,
      "t": 279999.7199999994,
      "d": 1273.6729687500047,
      "v": 78
    },
    {
      "midi": 57,
      "hit": false,
      "t": 279999.7199999994,
      "d": 1280.7752343750326,
      "v": 92
    },
    {
      "midi": 69,
      "hit": false,
      "t": 279999.7199999994,
      "d": 1316.2865625000559,
      "v": 100
    },
    {
      "midi": 50,
      "hit": false,
      "t": 279999.7199999994,
      "d": 1321.0214062500745,
      "v": 110
    },
    {
      "midi": 78,
      "hit": false,
      "t": 280440.0604687496,
      "d": 179.9240625000093,
      "v": 72
    },
    {
      "midi": 76,
      "hit": false,
      "t": 280695.7420312496,
      "d": 345.64359375002095,
      "v": 81
    },
    {
      "midi": 74,
      "hit": false,
      "t": 281143.18476562464,
      "d": 168.08695312502095,
      "v": 76
    },
    {
      "midi": 79,
      "hit": false,
      "t": 281365.72242187464,
      "d": 222.53765625000233,
      "v": 66
    },
    {
      "midi": 76,
      "hit": false,
      "t": 281597.7297656246,
      "d": 520.8328125000116,
      "v": 70
    },
    {
      "midi": 64,
      "hit": false,
      "t": 281817.89999999944,
      "d": 1122.1579687499907,
      "v": 96
    },
    {
      "midi": 67,
      "hit": false,
      "t": 281817.89999999944,
      "d": 1143.4647656250163,
      "v": 88
    },
    {
      "midi": 71,
      "hit": false,
      "t": 281817.89999999944,
      "d": 1178.9760937500396,
      "v": 84
    },
    {
      "midi": 40,
      "hit": false,
      "t": 281817.89999999944,
      "d": 1413.3508593750303,
      "v": 110
    },
    {
      "midi": 52,
      "hit": false,
      "t": 282954.26249999943,
      "d": 236.7421875000582,
      "v": 70
    },
    {
      "midi": 64,
      "hit": false,
      "t": 283181.5349999995,
      "d": 75.75749999994878,
      "v": 78
    },
    {
      "midi": 67,
      "hit": false,
      "t": 283181.5349999995,
      "d": 80.4923437499674,
      "v": 92
    },
    {
      "midi": 52,
      "hit": false,
      "t": 283636.0799999995,
      "d": 965.9081250000163,
      "v": 100
    },
    {
      "midi": 57,
      "hit": false,
      "t": 283636.0799999995,
      "d": 1077.1769531249884,
      "v": 88
    },
    {
      "midi": 61,
      "hit": false,
      "t": 283636.0799999995,
      "d": 1079.5443749999977,
      "v": 72
    },
    {
      "midi": 64,
      "hit": false,
      "t": 283636.0799999995,
      "d": 1098.483750000014,
      "v": 106
    },
    {
      "midi": 45,
      "hit": false,
      "t": 283636.0799999995,
      "d": 1363.6350000000093,
      "v": 100
    },
    {
      "midi": 52,
      "hit": false,
      "t": 284772.4424999995,
      "d": 236.7421875,
      "v": 70
    },
    {
      "midi": 57,
      "hit": false,
      "t": 284999.7149999995,
      "d": 61.552968749951106,
      "v": 88
    },
    {
      "midi": 67,
      "hit": false,
      "t": 285454.2599999994,
      "d": 1036.9307812500047,
      "v": 88
    },
    {
      "midi": 64,
      "hit": false,
      "t": 285454.2599999994,
      "d": 1046.4004687499837,
      "v": 92
    },
    {
      "midi": 55,
      "hit": false,
      "t": 285454.2599999994,
      "d": 1062.9724218749907,
      "v": 106
    },
    {
      "midi": 60,
      "hit": false,
      "t": 285454.2599999994,
      "d": 1065.33984375,
      "v": 96
    },
    {
      "midi": 48,
      "hit": false,
      "t": 285454.2599999994,
      "d": 1077.1769531249884,
      "v": 110
    },
    {
      "midi": 76,
      "hit": false,
      "t": 286711.36101562466,
      "d": 222.53765625000233,
      "v": 74
    },
    {
      "midi": 76,
      "hit": false,
      "t": 287019.12585937465,
      "d": 217.8028124999837,
      "v": 81
    },
    {
      "midi": 57,
      "hit": false,
      "t": 287272.4399999994,
      "d": 442.70789062499534,
      "v": 88
    },
    {
      "midi": 62,
      "hit": false,
      "t": 287272.4399999994,
      "d": 456.912421874993,
      "v": 92
    },
    {
      "midi": 66,
      "hit": false,
      "t": 287272.4399999994,
      "d": 466.38210937497206,
      "v": 84
    },
    {
      "midi": 50,
      "hit": false,
      "t": 287272.4399999994,
      "d": 468.7495312499814,
      "v": 116
    },
    {
      "midi": 38,
      "hit": false,
      "t": 287272.4399999994,
      "d": 490.056328125007,
      "v": 92
    },
    {
      "midi": 78,
      "hit": false,
      "t": 287298.48164062464,
      "d": 272.2535156250233,
      "v": 60
    },
    {
      "midi": 78,
      "hit": false,
      "t": 287658.32976562466,
      "d": 376.4200781250256,
      "v": 69
    },
    {
      "midi": 76,
      "hit": false,
      "t": 288134.18156249967,
      "d": 662.8781249999884,
      "v": 53
    },
    {
      "midi": 74,
      "hit": false,
      "t": 289029.06703124964,
      "d": 480.58664062502794,
      "v": 64
    },
    {
      "midi": 59,
      "hit": false,
      "t": 289090.6199999994,
      "d": 2549.713359375077,
      "v": 96
    },
    {
      "midi": 67,
      "hit": false,
      "t": 289090.6199999994,
      "d": 2554.4482031250955,
      "v": 96
    },
    {
      "midi": 64,
      "hit": false,
      "t": 289090.6199999994,
      "d": 2566.285312500084,
      "v": 88
    },
    {
      "midi": 52,
      "hit": false,
      "t": 289090.6199999994,
      "d": 3167.610468750063,
      "v": 100
    },
    {
      "midi": 40,
      "hit": false,
      "t": 289090.6199999994,
      "d": 3304.920937500079,
      "v": 96
    },
    {
      "midi": 76,
      "hit": false,
      "t": 289573.5740624997,
      "d": 2045.452500000014,
      "v": 31
    },
    {
      "midi": 52,
      "hit": false,
      "t": 292499.7074999995,
      "d": 142.04531249997672,
      "v": 56
    },
    {
      "midi": 64,
      "hit": false,
      "t": 292726.97999999946,
      "d": 374.0526562499581,
      "v": 100
    },
    {
      "midi": 59,
      "hit": false,
      "t": 292726.97999999946,
      "d": 400.0942968749441,
      "v": 92
    },
    {
      "midi": 67,
      "hit": false,
      "t": 292726.97999999946,
      "d": 407.19656249997206,
      "v": 84
    },
    {
      "midi": 40,
      "hit": false,
      "t": 292726.97999999946,
      "d": 852.2718749999185,
      "v": 110
    },
    {
      "midi": 52,
      "hit": false,
      "t": 293181.52499999944,
      "d": 144.41273437498603,
      "v": 66
    },
    {
      "midi": 64,
      "hit": false,
      "t": 293408.7974999994,
      "d": 82.85976562497672,
      "v": 96
    },
    {
      "midi": 67,
      "hit": false,
      "t": 293408.7974999994,
      "d": 94.69687499996508,
      "v": 80
    },
    {
      "midi": 66,
      "hit": false,
      "t": 294090.61499999935,
      "d": 108.90140625002095,
      "v": 98
    },
    {
      "midi": 64,
      "hit": false,
      "t": 294545.1599999994,
      "d": 82.85976562497672,
      "v": 96
    }
  ]
}