{
  "jsonPath": "Rock/Blues Rock/Eric Burdon/house-of-the-rising-sun.json",
  "path": "Rock\\Blues Rock\\Eric Burdon\\House of the Rising Sun.mid",
  "name": "House of the Rising Sun",
  "difficulty": "Advanced",
  "bpm": 75,
  "notes": [
    {
      "midi": 57,
      "hit": false,
      "t": 500,
      "d": 645.8333333333333,
      "v": 125
    },
    {
      "midi": 33,
      "hit": false,
      "t": 500,
      "d": 3312.5,
      "v": 125
    },
    {
      "midi": 60,
      "hit": false,
      "t": 666.6666666666666,
      "d": 645.8333333333334,
      "v": 125
    },
    {
      "midi": 64,
      "hit": false,
      "t": 1333.3333333333333,
      "d": 645.8333333333333,
      "v": 125
    },
    {
      "midi": 69,
      "hit": false,
      "t": 1999.9999999999998,
      "d": 645.8333333333333,
      "v": 125
    },
    {
      "midi": 64,
      "hit": false,
      "t": 2666.6666666666665,
      "d": 645.8333333333335,
      "v": 125
    },
    {
      "midi": 35,
      "hit": false,
      "t": 3333.3333333333335,
      "d": 645.833333333333,
      "v": 125
    },
    {
      "midi": 60,
      "hit": false,
      "t": 3333.3333333333335,
      "d": 645.833333333333,
      "v": 125
    },
    {
      "midi": 60,
      "hit": false,
      "t": 4000,
      "d": 645.833333333333,
      "v": 125
    },
    {
      "midi": 36,
      "hit": false,
      "t": 4000,
      "d": 3312.4999999999973,
      "v": 125
    },
    {
      "midi": 64,
      "hit": false,
      "t": 4666.666666666666,
      "d": 645.833333333333,
      "v": 125
    },
    {
      "midi": 67,
      "hit": false,
      "t": 5333.333333333332,
      "d": 645.833333333333,
      "v": 125
    },
    {
      "midi": 72,
      "hit": false,
      "t": 5999.999999999998,
      "d": 645.833333333333,
      "v": 125
    },
    {
      "midi": 67,
      "hit": false,
      "t": 6666.666666666664,
      "d": 645.833333333333,
      "v": 125
    },
    {
      "midi": 37,
      "hit": false,
      "t": 7333.33333333333,
      "d": 645.833333333333,
      "v": 125
    },
    {
      "midi": 64,
      "hit": false,
      "t": 7333.33333333333,
      "d": 645.833333333333,
      "v": 125
    },
    {
      "midi": 62,
      "hit": false,
      "t": 7999.999999999996,
      "d": 645.8333333333339,
      "v": 125
    },
    {
      "midi": 38,
      "hit": false,
      "t": 7999.999999999996,
      "d": 3312.5000000000055,
      "v": 125
    },
    {
      "midi": 66,
      "hit": false,
      "t": 8666.666666666664,
      "d": 645.8333333333339,
      "v": 125
    },
    {
      "midi": 69,
      "hit": false,
      "t": 9333.333333333332,
      "d": 645.8333333333339,
      "v": 125
    },
    {
      "midi": 74,
      "hit": false,
      "t": 10000,
      "d": 645.8333333333339,
      "v": 125
    },
    {
      "midi": 69,
      "hit": false,
      "t": 10666.666666666668,
      "d": 645.8333333333339,
      "v": 125
    },
    {
      "midi": 40,
      "hit": false,
      "t": 11333.333333333336,
      "d": 645.8333333333339,
      "v": 125
    },
    {
      "midi": 66,
      "hit": false,
      "t": 11333.333333333336,
      "d": 645.8333333333339,
      "v": 125
    },
    {
      "midi": 65,
      "hit": false,
      "t": 12000.000000000004,
      "d": 645.8333333333339,
      "v": 125
    },
    {
      "midi": 41,
      "hit": false,
      "t": 12000.000000000004,
      "d": 2645.8333333333376,
      "v": 125
    },
    {
      "midi": 69,
      "hit": false,
      "t": 12666.666666666672,
      "d": 645.8333333333339,
      "v": 125
    },
    {
      "midi": 72,
      "hit": false,
      "t": 13333.33333333334,
      "d": 645.8333333333339,
      "v": 125
    },
    {
      "midi": 77,
      "hit": false,
      "t": 14000.000000000007,
      "d": 645.8333333333339,
      "v": 125
    },
    {
      "midi": 31,
      "hit": false,
      "t": 14666.666666666675,
      "d": 645.8333333333339,
      "v": 125
    },
    {
      "midi": 72,
      "hit": false,
      "t": 14666.666666666675,
      "d": 645.8333333333339,
      "v": 125
    },
    {
      "midi": 32,
      "hit": false,
      "t": 15333.333333333343,
      "d": 645.8333333333339,
      "v": 125
    },
    {
      "midi": 69,
      "hit": false,
      "t": 15333.333333333343,
      "d": 645.8333333333339,
      "v": 125
    },
    {
      "midi": 57,
      "hit": false,
      "t": 16000.000000000011,
      "d": 645.8333333333321,
      "v": 125
    },
    {
      "midi": 33,
      "hit": false,
      "t": 16000.000000000011,
      "d": 3979.1666666666533,
      "v": 125
    },
    {
      "midi": 60,
      "hit": false,
      "t": 16666.666666666675,
      "d": 645.8333333333321,
      "v": 125
    },
    {
      "midi": 64,
      "hit": false,
      "t": 17333.33333333334,
      "d": 645.8333333333321,
      "v": 125
    },
    {
      "midi": 69,
      "hit": false,
      "t": 18000.000000000004,
      "d": 645.8333333333321,
      "v": 125
    },
    {
      "midi": 64,
      "hit": false,
      "t": 18666.666666666668,
      "d": 645.8333333333321,
      "v": 125
    },
    {
      "midi": 60,
      "hit": false,
      "t": 19333.333333333332,
      "d": 645.8333333333321,
      "v": 125
    },
    {
      "midi": 52,
      "hit": false,
      "t": 19999.999999999996,
      "d": 645.8333333333321,
      "v": 125
    },
    {
      "midi": 28,
      "hit": false,
      "t": 19999.999999999996,
      "d": 3979.1666666666533,
      "v": 125
    },
    {
      "midi": 56,
      "hit": false,
      "t": 20666.66666666666,
      "d": 645.8333333333321,
      "v": 125
    },
    {
      "midi": 59,
      "hit": false,
      "t": 21333.333333333325,
      "d": 645.8333333333321,
      "v": 125
    },
    {
      "midi": 64,
      "hit": false,
      "t": 21999.99999999999,
      "d": 645.8333333333321,
      "v": 125
    },
    {
      "midi": 59,
      "hit": false,
      "t": 22666.666666666653,
      "d": 645.8333333333321,
      "v": 125
    },
    {
      "midi": 56,
      "hit": false,
      "t": 23333.333333333318,
      "d": 645.8333333333321,
      "v": 125
    },
    {
      "midi": 57,
      "hit": false,
      "t": 23999.99999999998,
      "d": 645.8333333333321,
      "v": 125
    },
    {
      "midi": 33,
      "hit": false,
      "t": 23999.99999999998,
      "d": 3312.499999999989,
      "v": 125
    },
    {
      "midi": 60,
      "hit": false,
      "t": 24666.666666666646,
      "d": 645.8333333333321,
      "v": 125
    },
    {
      "midi": 64,
      "hit": false,
      "t": 25333.33333333331,
      "d": 645.8333333333321,
      "v": 125
    },
    {
      "midi": 69,
      "hit": false,
      "t": 25999.999999999975,
      "d": 645.8333333333321,
      "v": 125
    },
    {
      "midi": 64,
      "hit": false,
      "t": 26666.66666666664,
      "d": 645.8333333333321,
      "v": 125
    },
    {
      "midi": 33,
      "hit": false,
      "t": 27333.333333333303,
      "d": 645.8333333333321,
      "v": 125
    },
    {
      "midi": 60,
      "hit": false,
      "t": 27333.333333333303,
      "d": 645.8333333333321,
      "v": 125
    },
    {
      "midi": 52,
      "hit": false,
      "t": 27999.999999999967,
      "d": 645.8333333333321,
      "v": 125
    },
    {
      "midi": 40,
      "hit": false,
      "t": 27999.999999999967,
      "d": 1979.1666666666606,
      "v": 125
    },
    {
      "midi": 56,
      "hit": false,
      "t": 28666.66666666663,
      "d": 645.8333333333321,
      "v": 125
    },
    {
      "midi": 59,
      "hit": false,
      "t": 29333.333333333296,
      "d": 645.8333333333321,
      "v": 125
    },
    {
      "midi": 28,
      "hit": false,
      "t": 29999.99999999996,
      "d": 645.8333333333321,
      "v": 125
    },
    {
      "midi": 64,
      "hit": false,
      "t": 29999.99999999996,
      "d": 645.8333333333321,
      "v": 125
    },
    {
      "midi": 31,
      "hit": false,
      "t": 30666.666666666624,
      "d": 645.8333333333321,
      "v": 125
    },
    {
      "midi": 59,
      "hit": false,
      "t": 30666.666666666624,
      "d": 645.8333333333321,
      "v": 125
    },
    {
      "midi": 32,
      "hit": false,
      "t": 31333.33333333329,
      "d": 645.8333333333321,
      "v": 125
    },
    {
      "midi": 56,
      "hit": false,
      "t": 31333.33333333329,
      "d": 645.8333333333321,
      "v": 125
    },
    {
      "midi": 57,
      "hit": false,
      "t": 31999.999999999953,
      "d": 645.8333333333321,
      "v": 125
    },
    {
      "midi": 33,
      "hit": false,
      "t": 31999.999999999953,
      "d": 3312.500000000011,
      "v": 125
    },
    {
      "midi": 60,
      "hit": false,
      "t": 32666.666666666617,
      "d": 645.8333333333321,
      "v": 125
    },
    {
      "midi": 64,
      "hit": false,
      "t": 33333.333333333285,
      "d": 645.8333333333358,
      "v": 125
    },
    {
      "midi": 69,
      "hit": false,
      "t": 33999.999999999956,
      "d": 645.8333333333358,
      "v": 125
    },
    {
      "midi": 64,
      "hit": false,
      "t": 34666.66666666663,
      "d": 645.8333333333358,
      "v": 125
    },
    {
      "midi": 35,
      "hit": false,
      "t": 35333.3333333333,
      "d": 645.8333333333358,
      "v": 125
    },
    {
      "midi": 60,
      "hit": false,
      "t": 35333.3333333333,
      "d": 645.8333333333358,
      "v": 125
    },
    {
      "midi": 60,
      "hit": false,
      "t": 35999.99999999997,
      "d": 645.8333333333358,
      "v": 125
    },
    {
      "midi": 36,
      "hit": false,
      "t": 35999.99999999997,
      "d": 3312.500000000022,
      "v": 125
    },
    {
      "midi": 64,
      "hit": false,
      "t": 36666.66666666664,
      "d": 645.8333333333358,
      "v": 125
    },
    {
      "midi": 67,
      "hit": false,
      "t": 37333.333333333314,
      "d": 645.8333333333358,
      "v": 125
    },
    {
      "midi": 72,
      "hit": false,
      "t": 37999.999999999985,
      "d": 645.8333333333358,
      "v": 125
    },
    {
      "midi": 67,
      "hit": false,
      "t": 38666.66666666666,
      "d": 645.8333333333358,
      "v": 125
    },
    {
      "midi": 37,
      "hit": false,
      "t": 39333.33333333333,
      "d": 645.8333333333358,
      "v": 125
    },
    {
      "midi": 64,
      "hit": false,
      "t": 39333.33333333333,
      "d": 645.8333333333358,
      "v": 125
    },
    {
      "midi": 62,
      "hit": false,
      "t": 40000,
      "d": 645.8333333333358,
      "v": 125
    },
    {
      "midi": 38,
      "hit": false,
      "t": 40000,
      "d": 3312.500000000022,
      "v": 125
    },
    {
      "midi": 66,
      "hit": false,
      "t": 40666.66666666667,
      "d": 645.8333333333358,
      "v": 125
    },
    {
      "midi": 69,
      "hit": false,
      "t": 41333.33333333334,
      "d": 645.8333333333358,
      "v": 125
    },
    {
      "midi": 74,
      "hit": false,
      "t": 42000.000000000015,
      "d": 645.8333333333358,
      "v": 125
    },
    {
      "midi": 69,
      "hit": false,
      "t": 42666.666666666686,
      "d": 645.8333333333358,
      "v": 125
    },
    {
      "midi": 40,
      "hit": false,
      "t": 43333.33333333336,
      "d": 645.8333333333358,
      "v": 125
    },
    {
      "midi": 66,
      "hit": false,
      "t": 43333.33333333336,
      "d": 645.8333333333358,
      "v": 125
    },
    {
      "midi": 65,
      "hit": false,
      "t": 44000.00000000003,
      "d": 645.8333333333358,
      "v": 125
    },
    {
      "midi": 41,
      "hit": false,
      "t": 44000.00000000003,
      "d": 2645.8333333333503,
      "v": 125
    },
    {
      "midi": 69,
      "hit": false,
      "t": 44666.6666666667,
      "d": 645.8333333333358,
      "v": 125
    },
    {
      "midi": 72,
      "hit": false,
      "t": 45333.33333333337,
      "d": 645.8333333333358,
      "v": 125
    },
    {
      "midi": 77,
      "hit": false,
      "t": 46000.000000000044,
      "d": 645.8333333333358,
      "v": 125
    },
    {
      "midi": 31,
      "hit": false,
      "t": 46666.666666666715,
      "d": 645.8333333333358,
      "v": 125
    },
    {
      "midi": 72,
      "hit": false,
      "t": 46666.666666666715,
      "d": 645.8333333333358,
      "v": 125
    },
    {
      "midi": 32,
      "hit": false,
      "t": 47333.33333333339,
      "d": 645.8333333333358,
      "v": 125
    },
    {
      "midi": 69,
      "hit": false,
      "t": 47333.33333333339,
      "d": 645.8333333333358,
      "v": 125
    },
    {
      "midi": 57,
      "hit": false,
      "t": 48000.00000000006,
      "d": 645.8333333333358,
      "v": 125
    },
    {
      "midi": 33,
      "hit": false,
      "t": 48000.00000000006,
      "d": 3312.500000000022,
      "v": 125
    },
    {
      "midi": 60,
      "hit": false,
      "t": 48666.66666666673,
      "d": 645.8333333333358,
      "v": 125
    },
    {
      "midi": 64,
      "hit": false,
      "t": 49333.3333333334,
      "d": 645.8333333333358,
      "v": 125
    },
    {
      "midi": 69,
      "hit": false,
      "t": 50000.00000000007,
      "d": 645.8333333333358,
      "v": 125
    },
    {
      "midi": 64,
      "hit": false,
      "t": 50666.666666666744,
      "d": 645.8333333333358,
      "v": 125
    },
    {
      "midi": 35,
      "hit": false,
      "t": 51333.333333333416,
      "d": 645.8333333333358,
      "v": 125
    },
    {
      "midi": 60,
      "hit": false,
      "t": 51333.333333333416,
      "d": 645.8333333333358,
      "v": 125
    },
    {
      "midi": 60,
      "hit": false,
      "t": 52000.00000000009,
      "d": 645.8333333333358,
      "v": 125
    },
    {
      "midi": 36,
      "hit": false,
      "t": 52000.00000000009,
      "d": 2645.8333333333503,
      "v": 125
    },
    {
      "midi": 64,
      "hit": false,
      "t": 52666.66666666676,
      "d": 645.8333333333358,
      "v": 125
    },
    {
      "midi": 67,
      "hit": false,
      "t": 53333.33333333343,
      "d": 645.8333333333358,
      "v": 125
    },
    {
      "midi": 72,
      "hit": false,
      "t": 54000.0000000001,
      "d": 645.8333333333358,
      "v": 125
    },
    {
      "midi": 38,
      "hit": false,
      "t": 54666.66666666677,
      "d": 645.8333333333358,
      "v": 125
    },
    {
      "midi": 67,
      "hit": false,
      "t": 54666.66666666677,
      "d": 645.8333333333358,
      "v": 125
    },
    {
      "midi": 39,
      "hit": false,
      "t": 55333.333333333445,
      "d": 645.8333333333358,
      "v": 125
    },
    {
      "midi": 64,
      "hit": false,
      "t": 55333.333333333445,
      "d": 645.8333333333358,
      "v": 125
    },
    {
      "midi": 64,
      "hit": false,
      "t": 56000.00000000012,
      "d": 645.8333333333358,
      "v": 125
    },
    {
      "midi": 40,
      "hit": false,
      "t": 56000.00000000012,
      "d": 3312.500000000022,
      "v": 125
    },
    {
      "midi": 68,
      "hit": false,
      "t": 56666.66666666679,
      "d": 645.8333333333358,
      "v": 125
    },
    {
      "midi": 71,
      "hit": false,
      "t": 57333.33333333346,
      "d": 645.8333333333358,
      "v": 125
    },
    {
      "midi": 76,
      "hit": false,
      "t": 58000.00000000013,
      "d": 645.8333333333358,
      "v": 125
    },
    {
      "midi": 71,
      "hit": false,
      "t": 58666.6666666668,
      "d": 645.8333333333358,
      "v": 125
    },
    {
      "midi": 35,
      "hit": false,
      "t": 59333.333333333474,
      "d": 645.8333333333358,
      "v": 125
    },
    {
      "midi": 68,
      "hit": false,
      "t": 59333.333333333474,
      "d": 645.8333333333358,
      "v": 125
    },
    {
      "midi": 64,
      "hit": false,
      "t": 60000.000000000146,
      "d": 645.8333333333358,
      "v": 125
    },
    {
      "midi": 28,
      "hit": false,
      "t": 60000.000000000146,
      "d": 2645.8333333333503,
      "v": 125
    },
    {
      "midi": 68,
      "hit": false,
      "t": 60666.66666666682,
      "d": 645.8333333333358,
      "v": 125
    },
    {
      "midi": 71,
      "hit": false,
      "t": 61333.33333333349,
      "d": 645.8333333333358,
      "v": 125
    },
    {
      "midi": 76,
      "hit": false,
      "t": 62000.00000000016,
      "d": 645.8333333333358,
      "v": 125
    },
    {
      "midi": 31,
      "hit": false,
      "t": 62666.66666666683,
      "d": 645.8333333333358,
      "v": 125
    },
    {
      "midi": 71,
      "hit": false,
      "t": 62666.66666666683,
      "d": 645.8333333333358,
      "v": 125
    },
    {
      "midi": 32,
      "hit": false,
      "t": 63333.3333333335,
      "d": 645.8333333333358,
      "v": 125
    },
    {
      "midi": 68,
      "hit": false,
      "t": 63333.3333333335,
      "d": 645.8333333333358,
      "v": 125
    },
    {
      "midi": 57,
      "hit": false,
      "t": 64000.000000000175,
      "d": 645.8333333333358,
      "v": 125
    },
    {
      "midi": 33,
      "hit": false,
      "t": 64000.000000000175,
      "d": 3312.4999999999854,
      "v": 125
    },
    {
      "midi": 60,
      "hit": false,
      "t": 64666.666666666846,
      "d": 645.8333333333358,
      "v": 125
    },
    {
      "midi": 64,
      "hit": false,
      "t": 65333.33333333352,
      "d": 645.8333333333285,
      "v": 125
    },
    {
      "midi": 69,
      "hit": false,
      "t": 66000.00000000017,
      "d": 645.8333333333285,
      "v": 125
    },
    {
      "midi": 64,
      "hit": false,
      "t": 66666.66666666683,
      "d": 645.8333333333285,
      "v": 125
    },
    {
      "midi": 35,
      "hit": false,
      "t": 67333.33333333349,
      "d": 645.8333333333285,
      "v": 125
    },
    {
      "midi": 60,
      "hit": false,
      "t": 67333.33333333349,
      "d": 645.8333333333285,
      "v": 125
    },
    {
      "midi": 60,
      "hit": false,
      "t": 68000.00000000015,
      "d": 645.8333333333285,
      "v": 125
    },
    {
      "midi": 36,
      "hit": false,
      "t": 68000.00000000015,
      "d": 2645.8333333332994,
      "v": 125
    },
    {
      "midi": 64,
      "hit": false,
      "t": 68666.6666666668,
      "d": 645.8333333333285,
      "v": 125
    },
    {
      "midi": 67,
      "hit": false,
      "t": 69333.33333333346,
      "d": 645.8333333333285,
      "v": 125
    },
    {
      "midi": 72,
      "hit": false,
      "t": 70000.00000000012,
      "d": 645.8333333333285,
      "v": 125
    },
    {
      "midi": 67,
      "hit": false,
      "t": 70666.66666666677,
      "d": 645.8333333333285,
      "v": 125
    },
    {
      "midi": 37,
      "hit": false,
      "t": 71333.33333333343,
      "d": 645.8333333333285,
      "v": 125
    },
    {
      "midi": 64,
      "hit": false,
      "t": 71333.33333333343,
      "d": 645.8333333333285,
      "v": 125
    },
    {
      "midi": 62,
      "hit": false,
      "t": 72000.00000000009,
      "d": 645.8333333333285,
      "v": 125
    },
    {
      "midi": 38,
      "hit": false,
      "t": 72000.00000000009,
      "d": 2531.249999999971,
      "v": 125
    },
    {
      "midi": 66,
      "hit": false,
      "t": 72666.66666666674,
      "d": 645.8333333333285,
      "v": 125
    },
    {
      "midi": 69,
      "hit": false,
      "t": 73333.3333333334,
      "d": 645.8333333333285,
      "v": 125
    },
    {
      "midi": 74,
      "hit": false,
      "t": 74000.00000000006,
      "d": 645.8333333333285,
      "v": 125
    },
    {
      "midi": 38,
      "hit": false,
      "t": 74666.66666666672,
      "d": 375,
      "v": 125
    },
    {
      "midi": 69,
      "hit": false,
      "t": 74666.66666666672,
      "d": 645.8333333333285,
      "v": 125
    },
    {
      "midi": 40,
      "hit": false,
      "t": 75333.33333333337,
      "d": 562.5,
      "v": 125
    },
    {
      "midi": 66,
      "hit": false,
      "t": 75333.33333333337,
      "d": 645.8333333333285,
      "v": 125
    },
    {
      "midi": 65,
      "hit": false,
      "t": 76000.00000000003,
      "d": 645.8333333333285,
      "v": 125
    },
    {
      "midi": 41,
      "hit": false,
      "t": 76000.00000000003,
      "d": 2114.5833333332994,
      "v": 125
    },
    {
      "midi": 69,
      "hit": false,
      "t": 76666.66666666669,
      "d": 645.8333333333285,
      "v": 125
    },
    {
      "midi": 72,
      "hit": false,
      "t": 77333.33333333334,
      "d": 645.8333333333285,
      "v": 125
    },
    {
      "midi": 77,
      "hit": false,
      "t": 78000,
      "d": 645.8333333333285,
      "v": 125
    },
    {
      "midi": 31,
      "hit": false,
      "t": 78666.66666666666,
      "d": 541.6666666666715,
      "v": 125
    },
    {
      "midi": 72,
      "hit": false,
      "t": 78666.66666666666,
      "d": 645.833333333343,
      "v": 125
    },
    {
      "midi": 32,
      "hit": false,
      "t": 79333.33333333333,
      "d": 531.25,
      "v": 125
    },
    {
      "midi": 69,
      "hit": false,
      "t": 79333.33333333333,
      "d": 645.8333333333285,
      "v": 125
    },
    {
      "midi": 57,
      "hit": false,
      "t": 79999.99999999999,
      "d": 645.8333333333285,
      "v": 125
    },
    {
      "midi": 33,
      "hit": false,
      "t": 79999.99999999999,
      "d": 3312.4999999999563,
      "v": 125
    },
    {
      "midi": 60,
      "hit": false,
      "t": 80666.66666666664,
      "d": 645.8333333333285,
      "v": 125
    },
    {
      "midi": 64,
      "hit": false,
      "t": 81333.3333333333,
      "d": 645.8333333333285,
      "v": 125
    },
    {
      "midi": 69,
      "hit": false,
      "t": 81999.99999999996,
      "d": 645.8333333333285,
      "v": 125
    },
    {
      "midi": 64,
      "hit": false,
      "t": 82666.66666666661,
      "d": 645.8333333333285,
      "v": 125
    },
    {
      "midi": 33,
      "hit": false,
      "t": 83333.33333333327,
      "d": 645.8333333333285,
      "v": 125
    },
    {
      "midi": 60,
      "hit": false,
      "t": 83333.33333333327,
      "d": 645.8333333333285,
      "v": 125
    },
    {
      "midi": 52,
      "hit": false,
      "t": 83999.99999999993,
      "d": 645.8333333333285,
      "v": 125
    },
    {
      "midi": 28,
      "hit": false,
      "t": 83999.99999999993,
      "d": 3312.4999999999563,
      "v": 125
    },
    {
      "midi": 56,
      "hit": false,
      "t": 84666.66666666658,
      "d": 645.8333333333285,
      "v": 125
    },
    {
      "midi": 59,
      "hit": false,
      "t": 85333.33333333324,
      "d": 645.8333333333285,
      "v": 125
    },
    {
      "midi": 64,
      "hit": false,
      "t": 85999.9999999999,
      "d": 645.8333333333285,
      "v": 125
    },
    {
      "midi": 59,
      "hit": false,
      "t": 86666.66666666656,
      "d": 645.8333333333285,
      "v": 125
    },
    {
      "midi": 28,
      "hit": false,
      "t": 87333.33333333321,
      "d": 645.8333333333285,
      "v": 125
    },
    {
      "midi": 56,
      "hit": false,
      "t": 87333.33333333321,
      "d": 645.8333333333285,
      "v": 125
    },
    {
      "midi": 57,
      "hit": false,
      "t": 87999.99999999987,
      "d": 645.8333333333285,
      "v": 125
    },
    {
      "midi": 33,
      "hit": false,
      "t": 87999.99999999987,
      "d": 2645.8333333332994,
      "v": 125
    },
    {
      "midi": 60,
      "hit": false,
      "t": 88666.66666666653,
      "d": 645.8333333333285,
      "v": 125
    },
    {
      "midi": 64,
      "hit": false,
      "t": 89333.33333333318,
      "d": 645.8333333333285,
      "v": 125
    },
    {
      "midi": 69,
      "hit": false,
      "t": 89999.99999999984,
      "d": 645.8333333333285,
      "v": 125
    },
    {
      "midi": 38,
      "hit": false,
      "t": 90666.6666666665,
      "d": 645.8333333333285,
      "v": 125
    },
    {
      "midi": 64,
      "hit": false,
      "t": 90666.6666666665,
      "d": 645.8333333333285,
      "v": 125
    },
    {
      "midi": 39,
      "hit": false,
      "t": 91333.33333333315,
      "d": 645.8333333333285,
      "v": 125
    },
    {
      "midi": 60,
      "hit": false,
      "t": 91333.33333333315,
      "d": 645.8333333333285,
      "v": 125
    },
    {
      "midi": 40,
      "hit": false,
      "t": 91999.99999999981,
      "d": 645.8333333333285,
      "v": 125
    },
    {
      "midi": 52,
      "hit": false,
      "t": 91999.99999999981,
      "d": 645.8333333333285,
      "v": 125
    },
    {
      "midi": 35,
      "hit": false,
      "t": 92666.66666666647,
      "d": 645.8333333333285,
      "v": 125
    },
    {
      "midi": 56,
      "hit": false,
      "t": 92666.66666666647,
      "d": 645.8333333333285,
      "v": 125
    },
    {
      "midi": 32,
      "hit": false,
      "t": 93333.33333333312,
      "d": 645.8333333333285,
      "v": 125
    },
    {
      "midi": 59,
      "hit": false,
      "t": 93333.33333333312,
      "d": 645.8333333333285,
      "v": 125
    },
    {
      "midi": 64,
      "hit": false,
      "t": 93999.99999999978,
      "d": 645.8333333333285,
      "v": 125
    },
    {
      "midi": 28,
      "hit": false,
      "t": 93999.99999999978,
      "d": 1979.1666666666424,
      "v": 125
    },
    {
      "midi": 59,
      "hit": false,
      "t": 94666.66666666644,
      "d": 645.8333333333285,
      "v": 125
    },
    {
      "midi": 56,
      "hit": false,
      "t": 95333.3333333331,
      "d": 645.8333333333285,
      "v": 125
    },
    {
      "midi": 57,
      "hit": false,
      "t": 95999.99999999975,
      "d": 645.8333333333285,
      "v": 125
    },
    {
      "midi": 33,
      "hit": false,
      "t": 95999.99999999975,
      "d": 3312.4999999999563,
      "v": 125
    },
    {
      "midi": 60,
      "hit": false,
      "t": 96666.66666666641,
      "d": 645.8333333333285,
      "v": 125
    },
    {
      "midi": 64,
      "hit": false,
      "t": 97333.33333333307,
      "d": 645.8333333333285,
      "v": 125
    },
    {
      "midi": 69,
      "hit": false,
      "t": 97999.99999999972,
      "d": 645.8333333333285,
      "v": 125
    },
    {
      "midi": 64,
      "hit": false,
      "t": 98666.66666666638,
      "d": 645.8333333333285,
      "v": 125
    },
    {
      "midi": 35,
      "hit": false,
      "t": 99333.33333333304,
      "d": 645.8333333333285,
      "v": 125
    },
    {
      "midi": 60,
      "hit": false,
      "t": 99333.33333333304,
      "d": 645.8333333333285,
      "v": 125
    },
    {
      "midi": 60,
      "hit": false,
      "t": 99999.9999999997,
      "d": 645.8333333333285,
      "v": 125
    },
    {
      "midi": 36,
      "hit": false,
      "t": 99999.9999999997,
      "d": 3312.4999999999563,
      "v": 125
    },
    {
      "midi": 64,
      "hit": false,
      "t": 100666.66666666635,
      "d": 645.8333333333285,
      "v": 125
    },
    {
      "midi": 67,
      "hit": false,
      "t": 101333.33333333301,
      "d": 645.8333333333285,
      "v": 125
    },
    {
      "midi": 72,
      "hit": false,
      "t": 101999.99999999967,
      "d": 645.8333333333285,
      "v": 125
    },
    {
      "midi": 67,
      "hit": false,
      "t": 102666.66666666632,
      "d": 645.8333333333285,
      "v": 125
    },
    {
      "midi": 37,
      "hit": false,
      "t": 103333.33333333298,
      "d": 645.8333333333285,
      "v": 125
    },
    {
      "midi": 64,
      "hit": false,
      "t": 103333.33333333298,
      "d": 645.8333333333285,
      "v": 125
    },
    {
      "midi": 62,
      "hit": false,
      "t": 103999.99999999964,
      "d": 645.8333333333285,
      "v": 125
    },
    {
      "midi": 38,
      "hit": false,
      "t": 103999.99999999964,
      "d": 3312.4999999999563,
      "v": 125
    },
    {
      "midi": 66,
      "hit": false,
      "t": 104666.6666666663,
      "d": 645.8333333333285,
      "v": 125
    },
    {
      "midi": 69,
      "hit": false,
      "t": 105333.33333333295,
      "d": 645.8333333333285,
      "v": 125
    },
    {
      "midi": 74,
      "hit": false,
      "t": 105999.9999999996,
      "d": 645.8333333333285,
      "v": 125
    },
    {
      "midi": 69,
      "hit": false,
      "t": 106666.66666666626,
      "d": 645.8333333333285,
      "v": 125
    },
    {
      "midi": 40,
      "hit": false,
      "t": 107333.33333333292,
      "d": 645.8333333333285,
      "v": 125
    },
    {
      "midi": 66,
      "hit": false,
      "t": 107333.33333333292,
      "d": 645.8333333333285,
      "v": 125
    },
    {
      "midi": 65,
      "hit": false,
      "t": 107999.99999999958,
      "d": 645.8333333333285,
      "v": 125
    },
    {
      "midi": 41,
      "hit": false,
      "t": 107999.99999999958,
      "d": 2645.8333333332994,
      "v": 125
    },
    {
      "midi": 69,
      "hit": false,
      "t": 108666.66666666623,
      "d": 645.8333333333285,
      "v": 125
    },
    {
      "midi": 72,
      "hit": false,
      "t": 109333.33333333289,
      "d": 645.8333333333285,
      "v": 125
    },
    {
      "midi": 77,
      "hit": false,
      "t": 109999.99999999955,
      "d": 645.8333333333285,
      "v": 125
    },
    {
      "midi": 31,
      "hit": false,
      "t": 110666.6666666662,
      "d": 645.8333333333285,
      "v": 125
    },
    {
      "midi": 72,
      "hit": false,
      "t": 110666.6666666662,
      "d": 645.8333333333285,
      "v": 125
    },
    {
      "midi": 32,
      "hit": false,
      "t": 111333.33333333286,
      "d": 645.8333333333285,
      "v": 125
    },
    {
      "midi": 69,
      "hit": false,
      "t": 111333.33333333286,
      "d": 645.8333333333285,
      "v": 125
    },
    {
      "midi": 57,
      "hit": false,
      "t": 111999.99999999952,
      "d": 645.8333333333285,
      "v": 125
    },
    {
      "midi": 33,
      "hit": false,
      "t": 111999.99999999952,
      "d": 3312.4999999999563,
      "v": 125
    },
    {
      "midi": 60,
      "hit": false,
      "t": 112666.66666666618,
      "d": 645.8333333333285,
      "v": 125
    },
    {
      "midi": 64,
      "hit": false,
      "t": 113333.33333333283,
      "d": 645.8333333333285,
      "v": 125
    },
    {
      "midi": 69,
      "hit": false,
      "t": 113999.99999999949,
      "d": 645.8333333333285,
      "v": 125
    },
    {
      "midi": 64,
      "hit": false,
      "t": 114666.66666666615,
      "d": 645.8333333333285,
      "v": 125
    },
    {
      "midi": 35,
      "hit": false,
      "t": 115333.3333333328,
      "d": 645.8333333333285,
      "v": 125
    },
    {
      "midi": 60,
      "hit": false,
      "t": 115333.3333333328,
      "d": 645.8333333333285,
      "v": 125
    },
    {
      "midi": 60,
      "hit": false,
      "t": 115999.99999999946,
      "d": 645.8333333333285,
      "v": 125
    },
    {
      "midi": 36,
      "hit": false,
      "t": 115999.99999999946,
      "d": 2645.8333333332994,
      "v": 125
    },
    {
      "midi": 64,
      "hit": false,
      "t": 116666.66666666612,
      "d": 645.8333333333285,
      "v": 125
    },
    {
      "midi": 67,
      "hit": false,
      "t": 117333.33333333278,
      "d": 645.8333333333285,
      "v": 125
    },
    {
      "midi": 72,
      "hit": false,
      "t": 117999.99999999943,
      "d": 645.8333333333285,
      "v": 125
    },
    {
      "midi": 38,
      "hit": false,
      "t": 118666.66666666609,
      "d": 645.8333333333285,
      "v": 125
    },
    {
      "midi": 67,
      "hit": false,
      "t": 118666.66666666609,
      "d": 645.8333333333285,
      "v": 125
    },
    {
      "midi": 39,
      "hit": false,
      "t": 119333.33333333275,
      "d": 645.8333333333285,
      "v": 125
    },
    {
      "midi": 64,
      "hit": false,
      "t": 119333.33333333275,
      "d": 645.8333333333285,
      "v": 125
    },
    {
      "midi": 64,
      "hit": false,
      "t": 119999.9999999994,
      "d": 645.8333333333285,
      "v": 125
    },
    {
      "midi": 40,
      "hit": false,
      "t": 119999.9999999994,
      "d": 3312.4999999999563,
      "v": 125
    },
    {
      "midi": 68,
      "hit": false,
      "t": 120666.66666666606,
      "d": 645.8333333333285,
      "v": 125
    },
    {
      "midi": 71,
      "hit": false,
      "t": 121333.33333333272,
      "d": 645.8333333333285,
      "v": 125
    },
    {
      "midi": 76,
      "hit": false,
      "t": 121999.99999999937,
      "d": 645.8333333333285,
      "v": 125
    },
    {
      "midi": 71,
      "hit": false,
      "t": 122666.66666666603,
      "d": 645.8333333333285,
      "v": 125
    },
    {
      "midi": 35,
      "hit": false,
      "t": 123333.33333333269,
      "d": 645.8333333333285,
      "v": 125
    },
    {
      "midi": 68,
      "hit": false,
      "t": 123333.33333333269,
      "d": 645.8333333333285,
      "v": 125
    },
    {
      "midi": 64,
      "hit": false,
      "t": 123999.99999999935,
      "d": 645.8333333333285,
      "v": 125
    },
    {
      "midi": 28,
      "hit": false,
      "t": 123999.99999999935,
      "d": 2645.8333333332994,
      "v": 125
    },
    {
      "midi": 68,
      "hit": false,
      "t": 124666.666666666,
      "d": 645.8333333333285,
      "v": 125
    },
    {
      "midi": 71,
      "hit": false,
      "t": 125333.33333333266,
      "d": 645.8333333333285,
      "v": 125
    },
    {
      "midi": 76,
      "hit": false,
      "t": 125999.99999999932,
      "d": 645.8333333333285,
      "v": 125
    },
    {
      "midi": 31,
      "hit": false,
      "t": 126666.66666666597,
      "d": 645.8333333333285,
      "v": 125
    },
    {
      "midi": 71,
      "hit": false,
      "t": 126666.66666666597,
      "d": 645.8333333333285,
      "v": 125
    },
    {
      "midi": 32,
      "hit": false,
      "t": 127333.33333333263,
      "d": 645.8333333333285,
      "v": 125
    },
    {
      "midi": 68,
      "hit": false,
      "t": 127333.33333333263,
      "d": 645.8333333333285,
      "v": 125
    },
    {
      "midi": 57,
      "hit": false,
      "t": 127999.99999999929,
      "d": 645.8333333333285,
      "v": 125
    },
    {
      "midi": 33,
      "hit": false,
      "t": 127999.99999999929,
      "d": 3312.4999999999563,
      "v": 125
    },
    {
      "midi": 60,
      "hit": false,
      "t": 128666.66666666594,
      "d": 645.8333333333285,
      "v": 125
    },
    {
      "midi": 64,
      "hit": false,
      "t": 129333.3333333326,
      "d": 645.8333333333285,
      "v": 125
    },
    {
      "midi": 69,
      "hit": false,
      "t": 129999.99999999926,
      "d": 645.8333333333285,
      "v": 125
    },
    {
      "midi": 64,
      "hit": false,
      "t": 130666.66666666591,
      "d": 645.8333333333285,
      "v": 125
    },
    {
      "midi": 35,
      "hit": false,
      "t": 131333.3333333326,
      "d": 645.833333333343,
      "v": 125
    },
    {
      "midi": 60,
      "hit": false,
      "t": 131333.3333333326,
      "d": 645.833333333343,
      "v": 125
    },
    {
      "midi": 60,
      "hit": false,
      "t": 131999.99999999927,
      "d": 645.833333333343,
      "v": 125
    },
    {
      "midi": 36,
      "hit": false,
      "t": 131999.99999999927,
      "d": 2645.8333333334012,
      "v": 125
    },
    {
      "midi": 64,
      "hit": false,
      "t": 132666.66666666596,
      "d": 645.833333333343,
      "v": 125
    },
    {
      "midi": 67,
      "hit": false,
      "t": 133333.33333333264,
      "d": 645.833333333343,
      "v": 125
    },
    {
      "midi": 72,
      "hit": false,
      "t": 133999.99999999933,
      "d": 645.833333333343,
      "v": 125
    },
    {
      "midi": 67,
      "hit": false,
      "t": 134666.66666666602,
      "d": 645.833333333343,
      "v": 125
    },
    {
      "midi": 37,
      "hit": false,
      "t": 135333.3333333327,
      "d": 645.833333333343,
      "v": 125
    },
    {
      "midi": 64,
      "hit": false,
      "t": 135333.3333333327,
      "d": 645.833333333343,
      "v": 125
    },
    {
      "midi": 62,
      "hit": false,
      "t": 135999.9999999994,
      "d": 645.833333333343,
      "v": 125
    },
    {
      "midi": 38,
      "hit": false,
      "t": 135999.9999999994,
      "d": 2531.250000000058,
      "v": 125
    },
    {
      "midi": 66,
      "hit": false,
      "t": 136666.66666666607,
      "d": 645.833333333343,
      "v": 125
    },
    {
      "midi": 69,
      "hit": false,
      "t": 137333.33333333276,
      "d": 645.833333333343,
      "v": 125
    },
    {
      "midi": 74,
      "hit": false,
      "t": 137999.99999999945,
      "d": 645.833333333343,
      "v": 125
    },
    {
      "midi": 38,
      "hit": false,
      "t": 138666.66666666613,
      "d": 375,
      "v": 125
    },
    {
      "midi": 69,
      "hit": false,
      "t": 138666.66666666613,
      "d": 645.833333333343,
      "v": 125
    },
    {
      "midi": 40,
      "hit": false,
      "t": 139333.33333333282,
      "d": 562.5,
      "v": 125
    },
    {
      "midi": 66,
      "hit": false,
      "t": 139333.33333333282,
      "d": 645.833333333343,
      "v": 125
    },
    {
      "midi": 65,
      "hit": false,
      "t": 139999.9999999995,
      "d": 645.833333333343,
      "v": 125
    },
    {
      "midi": 41,
      "hit": false,
      "t": 139999.9999999995,
      "d": 2114.5833333334012,
      "v": 125
    },
    {
      "midi": 69,
      "hit": false,
      "t": 140666.6666666662,
      "d": 645.833333333343,
      "v": 125
    },
    {
      "midi": 72,
      "hit": false,
      "t": 141333.33333333288,
      "d": 645.833333333343,
      "v": 125
    },
    {
      "midi": 77,
      "hit": false,
      "t": 141999.99999999956,
      "d": 645.833333333343,
      "v": 125
    },
    {
      "midi": 31,
      "hit": false,
      "t": 142666.66666666625,
      "d": 541.666666666657,
      "v": 125
    },
    {
      "midi": 72,
      "hit": false,
      "t": 142666.66666666625,
      "d": 645.8333333333139,
      "v": 125
    },
    {
      "midi": 32,
      "hit": false,
      "t": 143333.3333333329,
      "d": 531.25,
      "v": 125
    },
    {
      "midi": 69,
      "hit": false,
      "t": 143333.3333333329,
      "d": 645.833333333343,
      "v": 125
    },
    {
      "midi": 57,
      "hit": false,
      "t": 143999.9999999996,
      "d": 645.833333333343,
      "v": 125
    },
    {
      "midi": 33,
      "hit": false,
      "t": 143999.9999999996,
      "d": 3312.5000000000873,
      "v": 125
    },
    {
      "midi": 60,
      "hit": false,
      "t": 144666.66666666628,
      "d": 645.833333333343,
      "v": 125
    },
    {
      "midi": 64,
      "hit": false,
      "t": 145333.33333333296,
      "d": 645.833333333343,
      "v": 125
    },
    {
      "midi": 69,
      "hit": false,
      "t": 145999.99999999965,
      "d": 645.833333333343,
      "v": 125
    },
    {
      "midi": 64,
      "hit": false,
      "t": 146666.66666666634,
      "d": 645.833333333343,
      "v": 125
    },
    {
      "midi": 33,
      "hit": false,
      "t": 147333.33333333302,
      "d": 645.833333333343,
      "v": 125
    },
    {
      "midi": 60,
      "hit": false,
      "t": 147333.33333333302,
      "d": 645.833333333343,
      "v": 125
    },
    {
      "midi": 52,
      "hit": false,
      "t": 147999.9999999997,
      "d": 645.833333333343,
      "v": 125
    },
    {
      "midi": 28,
      "hit": false,
      "t": 147999.9999999997,
      "d": 3312.5000000000873,
      "v": 125
    },
    {
      "midi": 56,
      "hit": false,
      "t": 148666.6666666664,
      "d": 645.833333333343,
      "v": 125
    },
    {
      "midi": 59,
      "hit": false,
      "t": 149333.33333333308,
      "d": 645.833333333343,
      "v": 125
    },
    {
      "midi": 64,
      "hit": false,
      "t": 149999.99999999977,
      "d": 645.833333333343,
      "v": 125
    },
    {
      "midi": 59,
      "hit": false,
      "t": 150666.66666666645,
      "d": 645.833333333343,
      "v": 125
    },
    {
      "midi": 28,
      "hit": false,
      "t": 151333.33333333314,
      "d": 645.833333333343,
      "v": 125
    },
    {
      "midi": 56,
      "hit": false,
      "t": 151333.33333333314,
      "d": 645.833333333343,
      "v": 125
    },
    {
      "midi": 57,
      "hit": false,
      "t": 151999.99999999983,
      "d": 645.833333333343,
      "v": 125
    },
    {
      "midi": 33,
      "hit": false,
      "t": 151999.99999999983,
      "d": 2645.8333333334012,
      "v": 125
    },
    {
      "midi": 60,
      "hit": false,
      "t": 152666.6666666665,
      "d": 645.833333333343,
      "v": 125
    },
    {
      "midi": 64,
      "hit": false,
      "t": 153333.3333333332,
      "d": 645.833333333343,
      "v": 125
    },
    {
      "midi": 69,
      "hit": false,
      "t": 153999.99999999988,
      "d": 645.833333333343,
      "v": 125
    },
    {
      "midi": 38,
      "hit": false,
      "t": 154666.66666666657,
      "d": 645.833333333343,
      "v": 125
    },
    {
      "midi": 64,
      "hit": false,
      "t": 154666.66666666657,
      "d": 645.833333333343,
      "v": 125
    },
    {
      "midi": 39,
      "hit": false,
      "t": 155333.33333333326,
      "d": 645.833333333343,
      "v": 125
    },
    {
      "midi": 60,
      "hit": false,
      "t": 155333.33333333326,
      "d": 645.833333333343,
      "v": 125
    },
    {
      "midi": 40,
      "hit": false,
      "t": 155999.99999999994,
      "d": 645.833333333343,
      "v": 125
    },
    {
      "midi": 52,
      "hit": false,
      "t": 155999.99999999994,
      "d": 645.833333333343,
      "v": 125
    },
    {
      "midi": 35,
      "hit": false,
      "t": 156666.66666666663,
      "d": 645.833333333343,
      "v": 125
    },
    {
      "midi": 56,
      "hit": false,
      "t": 156666.66666666663,
      "d": 645.833333333343,
      "v": 125
    },
    {
      "midi": 32,
      "hit": false,
      "t": 157333.3333333333,
      "d": 645.833333333343,
      "v": 125
    },
    {
      "midi": 59,
      "hit": false,
      "t": 157333.3333333333,
      "d": 645.833333333343,
      "v": 125
    },
    {
      "midi": 64,
      "hit": false,
      "t": 158000,
      "d": 645.833333333343,
      "v": 125
    },
    {
      "midi": 28,
      "hit": false,
      "t": 158000,
      "d": 1979.1666666667152,
      "v": 125
    },
    {
      "midi": 59,
      "hit": false,
      "t": 158666.6666666667,
      "d": 645.833333333343,
      "v": 125
    },
    {
      "midi": 56,
      "hit": false,
      "t": 159333.33333333337,
      "d": 645.833333333343,
      "v": 125
    },
    {
      "midi": 57,
      "hit": false,
      "t": 160000.00000000006,
      "d": 645.833333333343,
      "v": 125
    },
    {
      "midi": 33,
      "hit": false,
      "t": 160000.00000000006,
      "d": 3312.5000000000873,
      "v": 125
    },
    {
      "midi": 60,
      "hit": false,
      "t": 160666.66666666674,
      "d": 645.833333333343,
      "v": 125
    },
    {
      "midi": 64,
      "hit": false,
      "t": 161333.33333333343,
      "d": 645.833333333343,
      "v": 125
    },
    {
      "midi": 69,
      "hit": false,
      "t": 162000.00000000012,
      "d": 645.833333333343,
      "v": 125
    },
    {
      "midi": 64,
      "hit": false,
      "t": 162666.6666666668,
      "d": 645.833333333343,
      "v": 125
    },
    {
      "midi": 35,
      "hit": false,
      "t": 163333.3333333335,
      "d": 645.833333333343,
      "v": 125
    },
    {
      "midi": 60,
      "hit": false,
      "t": 163333.3333333335,
      "d": 645.833333333343,
      "v": 125
    },
    {
      "midi": 60,
      "hit": false,
      "t": 164000.00000000017,
      "d": 645.833333333343,
      "v": 125
    },
    {
      "midi": 36,
      "hit": false,
      "t": 164000.00000000017,
      "d": 3312.5000000000873,
      "v": 125
    },
    {
      "midi": 64,
      "hit": false,
      "t": 164666.66666666686,
      "d": 645.833333333343,
      "v": 125
    },
    {
      "midi": 67,
      "hit": false,
      "t": 165333.33333333355,
      "d": 645.833333333343,
      "v": 125
    },
    {
      "midi": 72,
      "hit": false,
      "t": 166000.00000000023,
      "d": 645.833333333343,
      "v": 125
    },
    {
      "midi": 67,
      "hit": false,
      "t": 166666.66666666692,
      "d": 645.833333333343,
      "v": 125
    },
    {
      "midi": 37,
      "hit": false,
      "t": 167333.3333333336,
      "d": 645.833333333343,
      "v": 125
    },
    {
      "midi": 64,
      "hit": false,
      "t": 167333.3333333336,
      "d": 645.833333333343,
      "v": 125
    },
    {
      "midi": 62,
      "hit": false,
      "t": 168000.0000000003,
      "d": 645.833333333343,
      "v": 125
    },
    {
      "midi": 38,
      "hit": false,
      "t": 168000.0000000003,
      "d": 3312.5000000000873,
      "v": 125
    },
    {
      "midi": 66,
      "hit": false,
      "t": 168666.66666666698,
      "d": 645.833333333343,
      "v": 125
    },
    {
      "midi": 69,
      "hit": false,
      "t": 169333.33333333366,
      "d": 645.833333333343,
      "v": 125
    },
    {
      "midi": 74,
      "hit": false,
      "t": 170000.00000000035,
      "d": 645.833333333343,
      "v": 125
    },
    {
      "midi": 69,
      "hit": false,
      "t": 170666.66666666704,
      "d": 645.833333333343,
      "v": 125
    },
    {
      "midi": 40,
      "hit": false,
      "t": 171333.33333333372,
      "d": 645.833333333343,
      "v": 125
    },
    {
      "midi": 66,
      "hit": false,
      "t": 171333.33333333372,
      "d": 645.833333333343,
      "v": 125
    },
    {
      "midi": 65,
      "hit": false,
      "t": 172000.0000000004,
      "d": 645.833333333343,
      "v": 125
    },
    {
      "midi": 41,
      "hit": false,
      "t": 172000.0000000004,
      "d": 2645.8333333334012,
      "v": 125
    },
    {
      "midi": 69,
      "hit": false,
      "t": 172666.6666666671,
      "d": 645.833333333343,
      "v": 125
    },
    {
      "midi": 72,
      "hit": false,
      "t": 173333.33333333378,
      "d": 645.833333333343,
      "v": 125
    },
    {
      "midi": 77,
      "hit": false,
      "t": 174000.00000000047,
      "d": 645.833333333343,
      "v": 125
    },
    {
      "midi": 31,
      "hit": false,
      "t": 174666.66666666715,
      "d": 645.833333333343,
      "v": 125
    },
    {
      "midi": 72,
      "hit": false,
      "t": 174666.66666666715,
      "d": 645.833333333343,
      "v": 125
    },
    {
      "midi": 32,
      "hit": false,
      "t": 175333.33333333384,
      "d": 645.833333333343,
      "v": 125
    },
    {
      "midi": 69,
      "hit": false,
      "t": 175333.33333333384,
      "d": 645.833333333343,
      "v": 125
    },
    {
      "midi": 57,
      "hit": false,
      "t": 176000.00000000052,
      "d": 645.833333333343,
      "v": 125
    },
    {
      "midi": 33,
      "hit": false,
      "t": 176000.00000000052,
      "d": 3312.5000000000873,
      "v": 125
    },
    {
      "midi": 60,
      "hit": false,
      "t": 176666.6666666672,
      "d": 645.833333333343,
      "v": 125
    },
    {
      "midi": 64,
      "hit": false,
      "t": 177333.3333333339,
      "d": 645.833333333343,
      "v": 125
    },
    {
      "midi": 69,
      "hit": false,
      "t": 178000.00000000058,
      "d": 645.833333333343,
      "v": 125
    },
    {
      "midi": 64,
      "hit": false,
      "t": 178666.66666666727,
      "d": 645.833333333343,
      "v": 125
    },
    {
      "midi": 35,
      "hit": false,
      "t": 179333.33333333395,
      "d": 645.833333333343,
      "v": 125
    },
    {
      "midi": 60,
      "hit": false,
      "t": 179333.33333333395,
      "d": 645.833333333343,
      "v": 125
    },
    {
      "midi": 60,
      "hit": false,
      "t": 180000.00000000064,
      "d": 645.833333333343,
      "v": 125
    },
    {
      "midi": 36,
      "hit": false,
      "t": 180000.00000000064,
      "d": 2645.8333333334012,
      "v": 125
    },
    {
      "midi": 64,
      "hit": false,
      "t": 180666.66666666733,
      "d": 645.833333333343,
      "v": 125
    },
    {
      "midi": 67,
      "hit": false,
      "t": 181333.333333334,
      "d": 645.833333333343,
      "v": 125
    },
    {
      "midi": 72,
      "hit": false,
      "t": 182000.0000000007,
      "d": 645.833333333343,
      "v": 125
    },
    {
      "midi": 38,
      "hit": false,
      "t": 182666.66666666738,
      "d": 645.833333333343,
      "v": 125
    },
    {
      "midi": 67,
      "hit": false,
      "t": 182666.66666666738,
      "d": 645.833333333343,
      "v": 125
    },
    {
      "midi": 39,
      "hit": false,
      "t": 183333.33333333407,
      "d": 645.833333333343,
      "v": 125
    },
    {
      "midi": 64,
      "hit": false,
      "t": 183333.33333333407,
      "d": 645.833333333343,
      "v": 125
    },
    {
      "midi": 64,
      "hit": false,
      "t": 184000.00000000076,
      "d": 645.833333333343,
      "v": 125
    },
    {
      "midi": 40,
      "hit": false,
      "t": 184000.00000000076,
      "d": 3312.5000000000873,
      "v": 125
    },
    {
      "midi": 68,
      "hit": false,
      "t": 184666.66666666744,
      "d": 645.833333333343,
      "v": 125
    },
    {
      "midi": 71,
      "hit": false,
      "t": 185333.33333333413,
      "d": 645.833333333343,
      "v": 125
    },
    {
      "midi": 76,
      "hit": false,
      "t": 186000.00000000081,
      "d": 645.833333333343,
      "v": 125
    },
    {
      "midi": 71,
      "hit": false,
      "t": 186666.6666666675,
      "d": 645.833333333343,
      "v": 125
    },
    {
      "midi": 35,
      "hit": false,
      "t": 187333.3333333342,
      "d": 645.833333333343,
      "v": 125
    },
    {
      "midi": 68,
      "hit": false,
      "t": 187333.3333333342,
      "d": 645.833333333343,
      "v": 125
    },
    {
      "midi": 64,
      "hit": false,
      "t": 188000.00000000087,
      "d": 645.833333333343,
      "v": 125
    },
    {
      "midi": 28,
      "hit": false,
      "t": 188000.00000000087,
      "d": 2645.8333333334012,
      "v": 125
    },
    {
      "midi": 68,
      "hit": false,
      "t": 188666.66666666756,
      "d": 645.833333333343,
      "v": 125
    },
    {
      "midi": 71,
      "hit": false,
      "t": 189333.33333333425,
      "d": 645.833333333343,
      "v": 125
    },
    {
      "midi": 76,
      "hit": false,
      "t": 190000.00000000093,
      "d": 645.833333333343,
      "v": 125
    },
    {
      "midi": 31,
      "hit": false,
      "t": 190666.66666666762,
      "d": 645.833333333343,
      "v": 125
    },
    {
      "midi": 71,
      "hit": false,
      "t": 190666.66666666762,
      "d": 645.833333333343,
      "v": 125
    },
    {
      "midi": 32,
      "hit": false,
      "t": 191333.3333333343,
      "d": 645.833333333343,
      "v": 125
    },
    {
      "midi": 68,
      "hit": false,
      "t": 191333.3333333343,
      "d": 645.833333333343,
      "v": 125
    },
    {
      "midi": 57,
      "hit": false,
      "t": 192000.000000001,
      "d": 645.833333333343,
      "v": 125
    },
    {
      "midi": 33,
      "hit": false,
      "t": 192000.000000001,
      "d": 3312.5000000000873,
      "v": 125
    },
    {
      "midi": 60,
      "hit": false,
      "t": 192666.66666666768,
      "d": 645.833333333343,
      "v": 125
    },
    {
      "midi": 64,
      "hit": false,
      "t": 193333.33333333436,
      "d": 645.833333333343,
      "v": 125
    },
    {
      "midi": 69,
      "hit": false,
      "t": 194000.00000000105,
      "d": 645.833333333343,
      "v": 125
    },
    {
      "midi": 64,
      "hit": false,
      "t": 194666.66666666773,
      "d": 645.833333333343,
      "v": 125
    },
    {
      "midi": 35,
      "hit": false,
      "t": 195333.33333333442,
      "d": 645.833333333343,
      "v": 125
    },
    {
      "midi": 60,
      "hit": false,
      "t": 195333.33333333442,
      "d": 645.833333333343,
      "v": 125
    },
    {
      "midi": 60,
      "hit": false,
      "t": 196000.0000000011,
      "d": 645.833333333343,
      "v": 125
    },
    {
      "midi": 36,
      "hit": false,
      "t": 196000.0000000011,
      "d": 2645.8333333334012,
      "v": 125
    },
    {
      "midi": 64,
      "hit": false,
      "t": 196666.6666666678,
      "d": 645.833333333343,
      "v": 125
    },
    {
      "midi": 67,
      "hit": false,
      "t": 197333.33333333448,
      "d": 645.833333333343,
      "v": 125
    },
    {
      "midi": 72,
      "hit": false,
      "t": 198000.00000000116,
      "d": 645.833333333343,
      "v": 125
    },
    {
      "midi": 67,
      "hit": false,
      "t": 198666.66666666785,
      "d": 645.833333333343,
      "v": 125
    },
    {
      "midi": 37,
      "hit": false,
      "t": 199333.33333333454,
      "d": 645.833333333343,
      "v": 125
    },
    {
      "midi": 64,
      "hit": false,
      "t": 199333.33333333454,
      "d": 645.833333333343,
      "v": 125
    },
    {
      "midi": 62,
      "hit": false,
      "t": 200000.00000000122,
      "d": 645.833333333343,
      "v": 125
    },
    {
      "midi": 38,
      "hit": false,
      "t": 200000.00000000122,
      "d": 2531.250000000058,
      "v": 125
    },
    {
      "midi": 66,
      "hit": false,
      "t": 200666.6666666679,
      "d": 645.833333333343,
      "v": 125
    },
    {
      "midi": 69,
      "hit": false,
      "t": 201333.3333333346,
      "d": 645.833333333343,
      "v": 125
    },
    {
      "midi": 74,
      "hit": false,
      "t": 202000.00000000128,
      "d": 645.833333333343,
      "v": 125
    },
    {
      "midi": 38,
      "hit": false,
      "t": 202666.66666666797,
      "d": 375,
      "v": 125
    },
    {
      "midi": 69,
      "hit": false,
      "t": 202666.66666666797,
      "d": 645.833333333343,
      "v": 125
    },
    {
      "midi": 40,
      "hit": false,
      "t": 203333.33333333465,
      "d": 562.5,
      "v": 125
    },
    {
      "midi": 66,
      "hit": false,
      "t": 203333.33333333465,
      "d": 645.833333333343,
      "v": 125
    },
    {
      "midi": 65,
      "hit": false,
      "t": 204000.00000000134,
      "d": 645.833333333343,
      "v": 125
    },
    {
      "midi": 41,
      "hit": false,
      "t": 204000.00000000134,
      "d": 2114.5833333334012,
      "v": 125
    },
    {
      "midi": 69,
      "hit": false,
      "t": 204666.66666666802,
      "d": 645.833333333343,
      "v": 125
    },
    {
      "midi": 72,
      "hit": false,
      "t": 205333.3333333347,
      "d": 645.833333333343,
      "v": 125
    },
    {
      "midi": 77,
      "hit": false,
      "t": 206000.0000000014,
      "d": 645.833333333343,
      "v": 125
    },
    {
      "midi": 31,
      "hit": false,
      "t": 206666.66666666808,
      "d": 541.666666666657,
      "v": 125
    },
    {
      "midi": 72,
      "hit": false,
      "t": 206666.66666666808,
      "d": 645.8333333333139,
      "v": 125
    },
    {
      "midi": 32,
      "hit": false,
      "t": 207333.33333333474,
      "d": 531.25,
      "v": 125
    },
    {
      "midi": 69,
      "hit": false,
      "t": 207333.33333333474,
      "d": 645.833333333343,
      "v": 125
    },
    {
      "midi": 57,
      "hit": false,
      "t": 208000.00000000143,
      "d": 645.833333333343,
      "v": 125
    },
    {
      "midi": 33,
      "hit": false,
      "t": 208000.00000000143,
      "d": 3312.5000000000873,
      "v": 125
    },
    {
      "midi": 60,
      "hit": false,
      "t": 208666.6666666681,
      "d": 645.833333333343,
      "v": 125
    },
    {
      "midi": 64,
      "hit": false,
      "t": 209333.3333333348,
      "d": 645.833333333343,
      "v": 125
    },
    {
      "midi": 69,
      "hit": false,
      "t": 210000.00000000148,
      "d": 645.833333333343,
      "v": 125
    },
    {
      "midi": 64,
      "hit": false,
      "t": 210666.66666666817,
      "d": 645.833333333343,
      "v": 125
    },
    {
      "midi": 33,
      "hit": false,
      "t": 211333.33333333486,
      "d": 645.833333333343,
      "v": 125
    },
    {
      "midi": 60,
      "hit": false,
      "t": 211333.33333333486,
      "d": 645.833333333343,
      "v": 125
    },
    {
      "midi": 52,
      "hit": false,
      "t": 212000.00000000154,
      "d": 645.833333333343,
      "v": 125
    },
    {
      "midi": 28,
      "hit": false,
      "t": 212000.00000000154,
      "d": 3312.5000000000873,
      "v": 125
    },
    {
      "midi": 56,
      "hit": false,
      "t": 212666.66666666823,
      "d": 645.833333333343,
      "v": 125
    },
    {
      "midi": 59,
      "hit": false,
      "t": 213333.33333333491,
      "d": 645.833333333343,
      "v": 125
    },
    {
      "midi": 64,
      "hit": false,
      "t": 214000.0000000016,
      "d": 645.833333333343,
      "v": 125
    },
    {
      "midi": 59,
      "hit": false,
      "t": 214666.6666666683,
      "d": 645.833333333343,
      "v": 125
    },
    {
      "midi": 28,
      "hit": false,
      "t": 215333.33333333497,
      "d": 645.833333333343,
      "v": 125
    },
    {
      "midi": 56,
      "hit": false,
      "t": 215333.33333333497,
      "d": 645.833333333343,
      "v": 125
    },
    {
      "midi": 57,
      "hit": false,
      "t": 216000.00000000166,
      "d": 645.833333333343,
      "v": 125
    },
    {
      "midi": 33,
      "hit": false,
      "t": 216000.00000000166,
      "d": 2645.8333333334012,
      "v": 125
    },
    {
      "midi": 60,
      "hit": false,
      "t": 216666.66666666834,
      "d": 645.833333333343,
      "v": 125
    },
    {
      "midi": 64,
      "hit": false,
      "t": 217333.33333333503,
      "d": 645.833333333343,
      "v": 125
    },
    {
      "midi": 69,
      "hit": false,
      "t": 218000.00000000172,
      "d": 645.833333333343,
      "v": 125
    },
    {
      "midi": 38,
      "hit": false,
      "t": 218666.6666666684,
      "d": 645.833333333343,
      "v": 125
    },
    {
      "midi": 64,
      "hit": false,
      "t": 218666.6666666684,
      "d": 645.833333333343,
      "v": 125
    },
    {
      "midi": 39,
      "hit": false,
      "t": 219333.3333333351,
      "d": 645.833333333343,
      "v": 125
    },
    {
      "midi": 60,
      "hit": false,
      "t": 219333.3333333351,
      "d": 645.833333333343,
      "v": 125
    },
    {
      "midi": 40,
      "hit": false,
      "t": 220000.00000000178,
      "d": 645.833333333343,
      "v": 125
    },
    {
      "midi": 52,
      "hit": false,
      "t": 220000.00000000178,
      "d": 645.833333333343,
      "v": 125
    },
    {
      "midi": 35,
      "hit": false,
      "t": 220666.66666666846,
      "d": 645.833333333343,
      "v": 125
    },
    {
      "midi": 56,
      "hit": false,
      "t": 220666.66666666846,
      "d": 645.833333333343,
      "v": 125
    },
    {
      "midi": 32,
      "hit": false,
      "t": 221333.33333333515,
      "d": 645.833333333343,
      "v": 125
    },
    {
      "midi": 59,
      "hit": false,
      "t": 221333.33333333515,
      "d": 645.833333333343,
      "v": 125
    },
    {
      "midi": 64,
      "hit": false,
      "t": 222000.00000000183,
      "d": 645.833333333343,
      "v": 125
    },
    {
      "midi": 28,
      "hit": false,
      "t": 222000.00000000183,
      "d": 1979.1666666667152,
      "v": 125
    },
    {
      "midi": 59,
      "hit": false,
      "t": 222666.66666666852,
      "d": 645.833333333343,
      "v": 125
    },
    {
      "midi": 56,
      "hit": false,
      "t": 223333.3333333352,
      "d": 645.833333333343,
      "v": 125
    },
    {
      "midi": 57,
      "hit": false,
      "t": 224000.0000000019,
      "d": 645.833333333343,
      "v": 125
    },
    {
      "midi": 33,
      "hit": false,
      "t": 224000.0000000019,
      "d": 3312.5000000000873,
      "v": 125
    },
    {
      "midi": 60,
      "hit": false,
      "t": 224666.66666666858,
      "d": 645.833333333343,
      "v": 125
    },
    {
      "midi": 64,
      "hit": false,
      "t": 225333.33333333526,
      "d": 645.833333333343,
      "v": 125
    },
    {
      "midi": 69,
      "hit": false,
      "t": 226000.00000000195,
      "d": 645.833333333343,
      "v": 125
    },
    {
      "midi": 64,
      "hit": false,
      "t": 226666.66666666864,
      "d": 645.833333333343,
      "v": 125
    },
    {
      "midi": 35,
      "hit": false,
      "t": 227333.33333333532,
      "d": 645.833333333343,
      "v": 125
    },
    {
      "midi": 60,
      "hit": false,
      "t": 227333.33333333532,
      "d": 645.833333333343,
      "v": 125
    },
    {
      "midi": 60,
      "hit": false,
      "t": 228000.000000002,
      "d": 645.833333333343,
      "v": 125
    },
    {
      "midi": 36,
      "hit": false,
      "t": 228000.000000002,
      "d": 3312.5000000000873,
      "v": 125
    },
    {
      "midi": 64,
      "hit": false,
      "t": 228666.6666666687,
      "d": 645.833333333343,
      "v": 125
    },
    {
      "midi": 67,
      "hit": false,
      "t": 229333.33333333538,
      "d": 645.833333333343,
      "v": 125
    },
    {
      "midi": 72,
      "hit": false,
      "t": 230000.00000000207,
      "d": 645.833333333343,
      "v": 125
    },
    {
      "midi": 67,
      "hit": false,
      "t": 230666.66666666875,
      "d": 645.833333333343,
      "v": 125
    },
    {
      "midi": 37,
      "hit": false,
      "t": 231333.33333333544,
      "d": 645.833333333343,
      "v": 125
    },
    {
      "midi": 64,
      "hit": false,
      "t": 231333.33333333544,
      "d": 645.833333333343,
      "v": 125
    },
    {
      "midi": 62,
      "hit": false,
      "t": 232000.00000000212,
      "d": 645.833333333343,
      "v": 125
    },
    {
      "midi": 38,
      "hit": false,
      "t": 232000.00000000212,
      "d": 3312.5000000000873,
      "v": 125
    },
    {
      "midi": 66,
      "hit": false,
      "t": 232666.6666666688,
      "d": 645.833333333343,
      "v": 125
    },
    {
      "midi": 69,
      "hit": false,
      "t": 233333.3333333355,
      "d": 645.833333333343,
      "v": 125
    },
    {
      "midi": 74,
      "hit": false,
      "t": 234000.00000000218,
      "d": 645.833333333343,
      "v": 125
    },
    {
      "midi": 69,
      "hit": false,
      "t": 234666.66666666887,
      "d": 645.833333333343,
      "v": 125
    },
    {
      "midi": 40,
      "hit": false,
      "t": 235333.33333333555,
      "d": 645.833333333343,
      "v": 125
    },
    {
      "midi": 66,
      "hit": false,
      "t": 235333.33333333555,
      "d": 645.833333333343,
      "v": 125
    },
    {
      "midi": 65,
      "hit": false,
      "t": 236000.00000000224,
      "d": 645.833333333343,
      "v": 125
    },
    {
      "midi": 41,
      "hit": false,
      "t": 236000.00000000224,
      "d": 2645.8333333334012,
      "v": 125
    },
    {
      "midi": 69,
      "hit": false,
      "t": 236666.66666666893,
      "d": 645.833333333343,
      "v": 125
    },
    {
      "midi": 72,
      "hit": false,
      "t": 237333.3333333356,
      "d": 645.833333333343,
      "v": 125
    },
    {
      "midi": 77,
      "hit": false,
      "t": 238000.0000000023,
      "d": 645.833333333343,
      "v": 125
    },
    {
      "midi": 31,
      "hit": false,
      "t": 238666.66666666899,
      "d": 645.833333333343,
      "v": 125
    },
    {
      "midi": 72,
      "hit": false,
      "t": 238666.66666666899,
      "d": 645.833333333343,
      "v": 125
    },
    {
      "midi": 32,
      "hit": false,
      "t": 239333.33333333567,
      "d": 645.833333333343,
      "v": 125
    },
    {
      "midi": 69,
      "hit": false,
      "t": 239333.33333333567,
      "d": 645.833333333343,
      "v": 125
    },
    {
      "midi": 57,
      "hit": false,
      "t": 240000.00000000236,
      "d": 645.833333333343,
      "v": 125
    },
    {
      "midi": 33,
      "hit": false,
      "t": 240000.00000000236,
      "d": 3312.5000000000873,
      "v": 125
    },
    {
      "midi": 60,
      "hit": false,
      "t": 240666.66666666904,
      "d": 645.833333333343,
      "v": 125
    },
    {
      "midi": 64,
      "hit": false,
      "t": 241333.33333333573,
      "d": 645.833333333343,
      "v": 125
    },
    {
      "midi": 69,
      "hit": false,
      "t": 242000.00000000242,
      "d": 645.833333333343,
      "v": 125
    },
    {
      "midi": 64,
      "hit": false,
      "t": 242666.6666666691,
      "d": 645.833333333343,
      "v": 125
    },
    {
      "midi": 35,
      "hit": false,
      "t": 243333.3333333358,
      "d": 645.833333333343,
      "v": 125
    },
    {
      "midi": 60,
      "hit": false,
      "t": 243333.3333333358,
      "d": 645.833333333343,
      "v": 125
    },
    {
      "midi": 60,
      "hit": false,
      "t": 244000.00000000247,
      "d": 645.833333333343,
      "v": 125
    },
    {
      "midi": 36,
      "hit": false,
      "t": 244000.00000000247,
      "d": 2645.8333333334012,
      "v": 125
    },
    {
      "midi": 64,
      "hit": false,
      "t": 244666.66666666916,
      "d": 645.833333333343,
      "v": 125
    },
    {
      "midi": 67,
      "hit": false,
      "t": 245333.33333333585,
      "d": 645.833333333343,
      "v": 125
    },
    {
      "midi": 72,
      "hit": false,
      "t": 246000.00000000253,
      "d": 645.833333333343,
      "v": 125
    },
    {
      "midi": 38,
      "hit": false,
      "t": 246666.66666666922,
      "d": 645.833333333343,
      "v": 125
    },
    {
      "midi": 67,
      "hit": false,
      "t": 246666.66666666922,
      "d": 645.833333333343,
      "v": 125
    },
    {
      "midi": 39,
      "hit": false,
      "t": 247333.3333333359,
      "d": 645.833333333343,
      "v": 125
    },
    {
      "midi": 64,
      "hit": false,
      "t": 247333.3333333359,
      "d": 645.833333333343,
      "v": 125
    },
    {
      "midi": 64,
      "hit": false,
      "t": 248000.0000000026,
      "d": 645.833333333343,
      "v": 125
    },
    {
      "midi": 40,
      "hit": false,
      "t": 248000.0000000026,
      "d": 3312.5000000000873,
      "v": 125
    },
    {
      "midi": 68,
      "hit": false,
      "t": 248666.66666666928,
      "d": 645.833333333343,
      "v": 125
    },
    {
      "midi": 71,
      "hit": false,
      "t": 249333.33333333596,
      "d": 645.833333333343,
      "v": 125
    },
    {
      "midi": 76,
      "hit": false,
      "t": 250000.00000000265,
      "d": 645.833333333343,
      "v": 125
    },
    {
      "midi": 71,
      "hit": false,
      "t": 250666.66666666933,
      "d": 645.833333333343,
      "v": 125
    },
    {
      "midi": 35,
      "hit": false,
      "t": 251333.33333333602,
      "d": 645.833333333343,
      "v": 125
    },
    {
      "midi": 68,
      "hit": false,
      "t": 251333.33333333602,
      "d": 645.833333333343,
      "v": 125
    },
    {
      "midi": 64,
      "hit": false,
      "t": 252000.0000000027,
      "d": 645.833333333343,
      "v": 125
    },
    {
      "midi": 28,
      "hit": false,
      "t": 252000.0000000027,
      "d": 2645.8333333334012,
      "v": 125
    },
    {
      "midi": 68,
      "hit": false,
      "t": 252666.6666666694,
      "d": 645.833333333343,
      "v": 125
    },
    {
      "midi": 71,
      "hit": false,
      "t": 253333.33333333608,
      "d": 645.833333333343,
      "v": 125
    },
    {
      "midi": 76,
      "hit": false,
      "t": 254000.00000000276,
      "d": 645.833333333343,
      "v": 125
    },
    {
      "midi": 31,
      "hit": false,
      "t": 254666.66666666945,
      "d": 645.833333333343,
      "v": 125
    },
    {
      "midi": 71,
      "hit": false,
      "t": 254666.66666666945,
      "d": 645.833333333343,
      "v": 125
    },
    {
      "midi": 32,
      "hit": false,
      "t": 255333.33333333614,
      "d": 645.833333333343,
      "v": 125
    },
    {
      "midi": 68,
      "hit": false,
      "t": 255333.33333333614,
      "d": 645.833333333343,
      "v": 125
    },
    {
      "midi": 57,
      "hit": false,
      "t": 256000.00000000282,
      "d": 645.833333333343,
      "v": 125
    },
    {
      "midi": 33,
      "hit": false,
      "t": 256000.00000000282,
      "d": 3312.5000000000873,
      "v": 125
    },
    {
      "midi": 60,
      "hit": false,
      "t": 256666.6666666695,
      "d": 645.833333333343,
      "v": 125
    },
    {
      "midi": 64,
      "hit": false,
      "t": 257333.3333333362,
      "d": 645.833333333343,
      "v": 125
    },
    {
      "midi": 69,
      "hit": false,
      "t": 258000.00000000288,
      "d": 645.833333333343,
      "v": 125
    },
    {
      "midi": 64,
      "hit": false,
      "t": 258666.66666666957,
      "d": 645.833333333343,
      "v": 125
    },
    {
      "midi": 35,
      "hit": false,
      "t": 259333.33333333625,
      "d": 645.833333333343,
      "v": 125
    },
    {
      "midi": 60,
      "hit": false,
      "t": 259333.33333333625,
      "d": 645.833333333343,
      "v": 125
    },
    {
      "midi": 60,
      "hit": false,
      "t": 260000.00000000294,
      "d": 645.833333333343,
      "v": 125
    },
    {
      "midi": 36,
      "hit": false,
      "t": 260000.00000000294,
      "d": 2645.8333333334012,
      "v": 125
    },
    {
      "midi": 64,
      "hit": false,
      "t": 260666.66666666963,
      "d": 645.833333333343,
      "v": 125
    },
    {
      "midi": 67,
      "hit": false,
      "t": 261333.3333333363,
      "d": 645.833333333343,
      "v": 125
    },
    {
      "midi": 72,
      "hit": false,
      "t": 262000.000000003,
      "d": 645.833333333343,
      "v": 125
    },
    {
      "midi": 67,
      "hit": false,
      "t": 262666.66666666965,
      "d": 645.8333333333139,
      "v": 125
    },
    {
      "midi": 37,
      "hit": false,
      "t": 263333.3333333363,
      "d": 645.8333333333139,
      "v": 125
    },
    {
      "midi": 64,
      "hit": false,
      "t": 263333.3333333363,
      "d": 645.8333333333139,
      "v": 125
    },
    {
      "midi": 62,
      "hit": false,
      "t": 264000.0000000029,
      "d": 645.8333333333139,
      "v": 125
    },
    {
      "midi": 38,
      "hit": false,
      "t": 264000.0000000029,
      "d": 2531.2499999998836,
      "v": 125
    },
    {
      "midi": 66,
      "hit": false,
      "t": 264666.66666666954,
      "d": 645.8333333333139,
      "v": 125
    },
    {
      "midi": 69,
      "hit": false,
      "t": 265333.33333333617,
      "d": 645.8333333333139,
      "v": 125
    },
    {
      "midi": 74,
      "hit": false,
      "t": 266000.0000000028,
      "d": 645.8333333333139,
      "v": 125
    },
    {
      "midi": 38,
      "hit": false,
      "t": 266666.6666666694,
      "d": 375,
      "v": 125
    },
    {
      "midi": 69,
      "hit": false,
      "t": 266666.6666666694,
      "d": 645.8333333333139,
      "v": 125
    },
    {
      "midi": 40,
      "hit": false,
      "t": 267333.33333333605,
      "d": 562.5,
      "v": 125
    },
    {
      "midi": 66,
      "hit": false,
      "t": 267333.33333333605,
      "d": 645.8333333333139,
      "v": 125
    },
    {
      "midi": 65,
      "hit": false,
      "t": 268000.0000000027,
      "d": 645.8333333333139,
      "v": 125
    },
    {
      "midi": 41,
      "hit": false,
      "t": 268000.0000000027,
      "d": 2114.5833333331975,
      "v": 125
    },
    {
      "midi": 69,
      "hit": false,
      "t": 268666.6666666693,
      "d": 645.8333333333139,
      "v": 125
    },
    {
      "midi": 72,
      "hit": false,
      "t": 269333.33333333593,
      "d": 645.8333333333139,
      "v": 125
    },
    {
      "midi": 77,
      "hit": false,
      "t": 270000.00000000256,
      "d": 645.8333333333139,
      "v": 125
    },
    {
      "midi": 31,
      "hit": false,
      "t": 270666.6666666692,
      "d": 541.6666666666861,
      "v": 125
    },
    {
      "midi": 72,
      "hit": false,
      "t": 270666.6666666692,
      "d": 645.8333333333721,
      "v": 125
    },
    {
      "midi": 32,
      "hit": false,
      "t": 271333.3333333359,
      "d": 531.25,
      "v": 125
    },
    {
      "midi": 69,
      "hit": false,
      "t": 271333.3333333359,
      "d": 645.8333333333139,
      "v": 125
    },
    {
      "midi": 57,
      "hit": false,
      "t": 272000.0000000025,
      "d": 645.8333333333139,
      "v": 125
    },
    {
      "midi": 33,
      "hit": false,
      "t": 272000.0000000025,
      "d": 3312.4999999998254,
      "v": 125
    },
    {
      "midi": 60,
      "hit": false,
      "t": 272666.66666666913,
      "d": 645.8333333333139,
      "v": 125
    },
    {
      "midi": 64,
      "hit": false,
      "t": 273333.33333333576,
      "d": 645.8333333333139,
      "v": 125
    },
    {
      "midi": 69,
      "hit": false,
      "t": 274000.0000000024,
      "d": 645.8333333333139,
      "v": 125
    },
    {
      "midi": 64,
      "hit": false,
      "t": 274666.666666669,
      "d": 645.8333333333139,
      "v": 125
    },
    {
      "midi": 33,
      "hit": false,
      "t": 275333.33333333564,
      "d": 645.8333333333139,
      "v": 125
    },
    {
      "midi": 60,
      "hit": false,
      "t": 275333.33333333564,
      "d": 645.8333333333139,
      "v": 125
    },
    {
      "midi": 52,
      "hit": false,
      "t": 276000.00000000227,
      "d": 645.8333333333139,
      "v": 125
    },
    {
      "midi": 28,
      "hit": false,
      "t": 276000.00000000227,
      "d": 3312.4999999998254,
      "v": 125
    },
    {
      "midi": 56,
      "hit": false,
      "t": 276666.6666666689,
      "d": 645.8333333333139,
      "v": 125
    },
    {
      "midi": 59,
      "hit": false,
      "t": 277333.3333333355,
      "d": 645.8333333333139,
      "v": 125
    },
    {
      "midi": 64,
      "hit": false,
      "t": 278000.00000000215,
      "d": 645.8333333333139,
      "v": 125
    },
    {
      "midi": 59,
      "hit": false,
      "t": 278666.6666666688,
      "d": 645.8333333333139,
      "v": 125
    },
    {
      "midi": 28,
      "hit": false,
      "t": 279333.3333333354,
      "d": 645.8333333333139,
      "v": 125
    },
    {
      "midi": 56,
      "hit": false,
      "t": 279333.3333333354,
      "d": 645.8333333333139,
      "v": 125
    },
    {
      "midi": 57,
      "hit": false,
      "t": 280000.00000000204,
      "d": 645.8333333333139,
      "v": 125
    },
    {
      "midi": 33,
      "hit": false,
      "t": 280000.00000000204,
      "d": 2645.8333333331975,
      "v": 125
    },
    {
      "midi": 60,
      "hit": false,
      "t": 280666.66666666867,
      "d": 645.8333333333139,
      "v": 125
    },
    {
      "midi": 64,
      "hit": false,
      "t": 281333.3333333353,
      "d": 645.8333333333139,
      "v": 125
    },
    {
      "midi": 69,
      "hit": false,
      "t": 282000.0000000019,
      "d": 645.8333333333139,
      "v": 125
    },
    {
      "midi": 38,
      "hit": false,
      "t": 282666.66666666855,
      "d": 645.8333333333139,
      "v": 125
    },
    {
      "midi": 64,
      "hit": false,
      "t": 282666.66666666855,
      "d": 645.8333333333139,
      "v": 125
    },
    {
      "midi": 39,
      "hit": false,
      "t": 283333.3333333352,
      "d": 645.8333333333139,
      "v": 125
    },
    {
      "midi": 60,
      "hit": false,
      "t": 283333.3333333352,
      "d": 645.8333333333139,
      "v": 125
    },
    {
      "midi": 40,
      "hit": false,
      "t": 284000.0000000018,
      "d": 645.8333333333139,
      "v": 125
    },
    {
      "midi": 52,
      "hit": false,
      "t": 284000.0000000018,
      "d": 645.8333333333139,
      "v": 125
    },
    {
      "midi": 35,
      "hit": false,
      "t": 284666.66666666843,
      "d": 645.8333333333139,
      "v": 125
    },
    {
      "midi": 56,
      "hit": false,
      "t": 284666.66666666843,
      "d": 645.8333333333139,
      "v": 125
    },
    {
      "midi": 32,
      "hit": false,
      "t": 285333.33333333506,
      "d": 645.8333333333139,
      "v": 125
    },
    {
      "midi": 59,
      "hit": false,
      "t": 285333.33333333506,
      "d": 645.8333333333139,
      "v": 125
    },
    {
      "midi": 64,
      "hit": false,
      "t": 286000.0000000017,
      "d": 645.8333333333139,
      "v": 125
    },
    {
      "midi": 28,
      "hit": false,
      "t": 286000.0000000017,
      "d": 1979.1666666665697,
      "v": 125
    },
    {
      "midi": 59,
      "hit": false,
      "t": 286666.6666666683,
      "d": 645.8333333333139,
      "v": 125
    },
    {
      "midi": 56,
      "hit": false,
      "t": 287333.33333333494,
      "d": 645.8333333333139,
      "v": 125
    },
    {
      "midi": 57,
      "hit": false,
      "t": 288000.0000000016,
      "d": 645.8333333333139,
      "v": 126
    },
    {
      "midi": 33,
      "hit": false,
      "t": 288000.0000000016,
      "d": 3312.4999999998254,
      "v": 126
    },
    {
      "midi": 60,
      "hit": false,
      "t": 288666.6666666682,
      "d": 645.8333333333139,
      "v": 126
    },
    {
      "midi": 64,
      "hit": false,
      "t": 289333.3333333348,
      "d": 645.8333333333139,
      "v": 126
    },
    {
      "midi": 69,
      "hit": false,
      "t": 290000.00000000146,
      "d": 645.8333333333139,
      "v": 126
    },
    {
      "midi": 64,
      "hit": false,
      "t": 290666.6666666681,
      "d": 645.8333333333139,
      "v": 126
    },
    {
      "midi": 35,
      "hit": false,
      "t": 291333.3333333347,
      "d": 645.8333333333139,
      "v": 126
    },
    {
      "midi": 60,
      "hit": false,
      "t": 291333.3333333347,
      "d": 645.8333333333139,
      "v": 126
    },
    {
      "midi": 60,
      "hit": false,
      "t": 292000.00000000134,
      "d": 645.8333333333139,
      "v": 126
    },
    {
      "midi": 36,
      "hit": false,
      "t": 292000.00000000134,
      "d": 3312.4999999998254,
      "v": 126
    },
    {
      "midi": 64,
      "hit": false,
      "t": 292666.66666666797,
      "d": 645.8333333333139,
      "v": 126
    },
    {
      "midi": 67,
      "hit": false,
      "t": 293333.3333333346,
      "d": 645.8333333333139,
      "v": 126
    },
    {
      "midi": 72,
      "hit": false,
      "t": 294000.0000000012,
      "d": 645.8333333333139,
      "v": 126
    },
    {
      "midi": 67,
      "hit": false,
      "t": 294666.66666666785,
      "d": 645.8333333333139,
      "v": 126
    },
    {
      "midi": 37,
      "hit": false,
      "t": 295333.3333333345,
      "d": 645.8333333333139,
      "v": 126
    },
    {
      "midi": 64,
      "hit": false,
      "t": 295333.3333333345,
      "d": 645.8333333333139,
      "v": 126
    },
    {
      "midi": 62,
      "hit": false,
      "t": 296000.0000000011,
      "d": 645.8333333333139,
      "v": 126
    },
    {
      "midi": 38,
      "hit": false,
      "t": 296000.0000000011,
      "d": 3312.4999999998254,
      "v": 126
    },
    {
      "midi": 66,
      "hit": false,
      "t": 296666.66666666773,
      "d": 645.8333333333139,
      "v": 126
    },
    {
      "midi": 69,
      "hit": false,
      "t": 297333.33333333436,
      "d": 645.8333333333139,
      "v": 126
    },
    {
      "midi": 74,
      "hit": false,
      "t": 298000.000000001,
      "d": 645.8333333333139,
      "v": 126
    },
    {
      "midi": 69,
      "hit": false,
      "t": 298666.6666666676,
      "d": 645.8333333333139,
      "v": 126
    },
    {
      "midi": 40,
      "hit": false,
      "t": 299333.33333333425,
      "d": 645.8333333333139,
      "v": 126
    },
    {
      "midi": 66,
      "hit": false,
      "t": 299333.33333333425,
      "d": 645.8333333333139,
      "v": 126
    },
    {
      "midi": 65,
      "hit": false,
      "t": 300000.0000000009,
      "d": 645.8333333333139,
      "v": 126
    },
    {
      "midi": 41,
      "hit": false,
      "t": 300000.0000000009,
      "d": 2645.8333333331975,
      "v": 126
    },
    {
      "midi": 69,
      "hit": false,
      "t": 300666.6666666675,
      "d": 645.8333333333139,
      "v": 126
    },
    {
      "midi": 72,
      "hit": false,
      "t": 301333.3333333341,
      "d": 645.8333333333139,
      "v": 126
    },
    {
      "midi": 77,
      "hit": false,
      "t": 302000.00000000076,
      "d": 645.8333333333139,
      "v": 126
    },
    {
      "midi": 31,
      "hit": false,
      "t": 302666.6666666674,
      "d": 645.8333333333139,
      "v": 126
    },
    {
      "midi": 72,
      "hit": false,
      "t": 302666.6666666674,
      "d": 645.8333333333139,
      "v": 126
    },
    {
      "midi": 32,
      "hit": false,
      "t": 303333.333333334,
      "d": 645.8333333333139,
      "v": 126
    },
    {
      "midi": 69,
      "hit": false,
      "t": 303333.333333334,
      "d": 645.8333333333139,
      "v": 126
    },
    {
      "midi": 57,
      "hit": false,
      "t": 304000.00000000064,
      "d": 645.8333333333139,
      "v": 126
    },
    {
      "midi": 33,
      "hit": false,
      "t": 304000.00000000064,
      "d": 3312.4999999998254,
      "v": 126
    },
    {
      "midi": 60,
      "hit": false,
      "t": 304666.66666666727,
      "d": 645.8333333333139,
      "v": 126
    },
    {
      "midi": 64,
      "hit": false,
      "t": 305333.3333333339,
      "d": 645.8333333333139,
      "v": 126
    },
    {
      "midi": 69,
      "hit": false,
      "t": 306000.0000000005,
      "d": 645.8333333333139,
      "v": 126
    },
    {
      "midi": 64,
      "hit": false,
      "t": 306666.66666666715,
      "d": 645.8333333333139,
      "v": 126
    },
    {
      "midi": 35,
      "hit": false,
      "t": 307333.3333333338,
      "d": 645.8333333333139,
      "v": 126
    },
    {
      "midi": 60,
      "hit": false,
      "t": 307333.3333333338,
      "d": 645.8333333333139,
      "v": 126
    },
    {
      "midi": 60,
      "hit": false,
      "t": 308000.0000000004,
      "d": 645.8333333333139,
      "v": 126
    },
    {
      "midi": 36,
      "hit": false,
      "t": 308000.0000000004,
      "d": 2645.8333333331975,
      "v": 126
    },
    {
      "midi": 64,
      "hit": false,
      "t": 308666.66666666704,
      "d": 645.8333333333139,
      "v": 126
    },
    {
      "midi": 67,
      "hit": false,
      "t": 309333.33333333366,
      "d": 645.8333333333139,
      "v": 126
    },
    {
      "midi": 72,
      "hit": false,
      "t": 310000.0000000003,
      "d": 645.8333333333139,
      "v": 126
    },
    {
      "midi": 38,
      "hit": false,
      "t": 310666.6666666669,
      "d": 645.8333333333139,
      "v": 126
    },
    {
      "midi": 67,
      "hit": false,
      "t": 310666.6666666669,
      "d": 645.8333333333139,
      "v": 126
    },
    {
      "midi": 39,
      "hit": false,
      "t": 311333.33333333355,
      "d": 645.8333333333139,
      "v": 126
    },
    {
      "midi": 64,
      "hit": false,
      "t": 311333.33333333355,
      "d": 645.8333333333139,
      "v": 126
    },
    {
      "midi": 64,
      "hit": false,
      "t": 312000.0000000002,
      "d": 645.8333333333139,
      "v": 126
    },
    {
      "midi": 40,
      "hit": false,
      "t": 312000.0000000002,
      "d": 3312.4999999998254,
      "v": 126
    },
    {
      "midi": 68,
      "hit": false,
      "t": 312666.6666666668,
      "d": 645.8333333333139,
      "v": 126
    },
    {
      "midi": 71,
      "hit": false,
      "t": 313333.33333333343,
      "d": 645.8333333333139,
      "v": 126
    },
    {
      "midi": 76,
      "hit": false,
      "t": 314000.00000000006,
      "d": 645.8333333333139,
      "v": 126
    },
    {
      "midi": 71,
      "hit": false,
      "t": 314666.6666666667,
      "d": 645.8333333333139,
      "v": 126
    },
    {
      "midi": 35,
      "hit": false,
      "t": 315333.3333333333,
      "d": 645.8333333333139,
      "v": 126
    },
    {
      "midi": 68,
      "hit": false,
      "t": 315333.3333333333,
      "d": 645.8333333333139,
      "v": 126
    },
    {
      "midi": 64,
      "hit": false,
      "t": 315999.99999999994,
      "d": 645.8333333333139,
      "v": 126
    },
    {
      "midi": 28,
      "hit": false,
      "t": 315999.99999999994,
      "d": 2645.8333333331975,
      "v": 126
    },
    {
      "midi": 68,
      "hit": false,
      "t": 316666.66666666657,
      "d": 645.8333333333139,
      "v": 126
    },
    {
      "midi": 71,
      "hit": false,
      "t": 317333.3333333332,
      "d": 645.8333333333139,
      "v": 126
    },
    {
      "midi": 76,
      "hit": false,
      "t": 317999.9999999998,
      "d": 645.8333333333139,
      "v": 126
    },
    {
      "midi": 31,
      "hit": false,
      "t": 318666.66666666645,
      "d": 645.8333333333139,
      "v": 126
    },
    {
      "midi": 71,
      "hit": false,
      "t": 318666.66666666645,
      "d": 645.8333333333139,
      "v": 126
    },
    {
      "midi": 32,
      "hit": false,
      "t": 319333.3333333331,
      "d": 645.8333333333139,
      "v": 126
    },
    {
      "midi": 68,
      "hit": false,
      "t": 319333.3333333331,
      "d": 645.8333333333139,
      "v": 126
    },
    {
      "midi": 57,
      "hit": false,
      "t": 319999.9999999997,
      "d": 645.8333333333139,
      "v": 126
    },
    {
      "midi": 33,
      "hit": false,
      "t": 319999.9999999997,
      "d": 3312.4999999998254,
      "v": 126
    },
    {
      "midi": 60,
      "hit": false,
      "t": 320666.66666666634,
      "d": 645.8333333333139,
      "v": 126
    },
    {
      "midi": 64,
      "hit": false,
      "t": 321333.33333333296,
      "d": 645.8333333333139,
      "v": 126
    },
    {
      "midi": 69,
      "hit": false,
      "t": 321999.9999999996,
      "d": 645.8333333333139,
      "v": 126
    },
    {
      "midi": 64,
      "hit": false,
      "t": 322666.6666666662,
      "d": 645.8333333333139,
      "v": 126
    },
    {
      "midi": 35,
      "hit": false,
      "t": 323333.33333333285,
      "d": 645.8333333333139,
      "v": 126
    },
    {
      "midi": 60,
      "hit": false,
      "t": 323333.33333333285,
      "d": 645.8333333333139,
      "v": 126
    },
    {
      "midi": 60,
      "hit": false,
      "t": 323999.9999999995,
      "d": 645.8333333333139,
      "v": 126
    },
    {
      "midi": 36,
      "hit": false,
      "t": 323999.9999999995,
      "d": 2645.8333333331975,
      "v": 126
    },
    {
      "midi": 64,
      "hit": false,
      "t": 324666.6666666661,
      "d": 645.8333333333139,
      "v": 126
    },
    {
      "midi": 67,
      "hit": false,
      "t": 325333.33333333273,
      "d": 645.8333333333139,
      "v": 126
    },
    {
      "midi": 72,
      "hit": false,
      "t": 325999.99999999936,
      "d": 645.8333333333139,
      "v": 126
    },
    {
      "midi": 67,
      "hit": false,
      "t": 326666.666666666,
      "d": 645.8333333333139,
      "v": 126
    },
    {
      "midi": 37,
      "hit": false,
      "t": 327333.3333333326,
      "d": 645.8333333333139,
      "v": 126
    },
    {
      "midi": 64,
      "hit": false,
      "t": 327333.3333333326,
      "d": 645.8333333333139,
      "v": 126
    },
    {
      "midi": 62,
      "hit": false,
      "t": 327999.99999999924,
      "d": 645.8333333333139,
      "v": 126
    },
    {
      "midi": 38,
      "hit": false,
      "t": 327999.99999999924,
      "d": 2531.2499999998836,
      "v": 126
    },
    {
      "midi": 66,
      "hit": false,
      "t": 328666.6666666659,
      "d": 645.8333333333139,
      "v": 126
    },
    {
      "midi": 69,
      "hit": false,
      "t": 329333.3333333325,
      "d": 645.8333333333139,
      "v": 126
    },
    {
      "midi": 74,
      "hit": false,
      "t": 329999.9999999991,
      "d": 645.8333333333139,
      "v": 126
    },
    {
      "midi": 38,
      "hit": false,
      "t": 330666.66666666575,
      "d": 375,
      "v": 126
    },
    {
      "midi": 69,
      "hit": false,
      "t": 330666.66666666575,
      "d": 645.8333333333139,
      "v": 126
    },
    {
      "midi": 40,
      "hit": false,
      "t": 331333.3333333324,
      "d": 562.5,
      "v": 126
    },
    {
      "midi": 66,
      "hit": false,
      "t": 331333.3333333324,
      "d": 645.8333333333139,
      "v": 126
    },
    {
      "midi": 65,
      "hit": false,
      "t": 331999.999999999,
      "d": 645.8333333333139,
      "v": 126
    },
    {
      "midi": 41,
      "hit": false,
      "t": 331999.999999999,
      "d": 2114.5833333331975,
      "v": 126
    },
    {
      "midi": 69,
      "hit": false,
      "t": 332666.66666666564,
      "d": 645.8333333333139,
      "v": 126
    },
    {
      "midi": 72,
      "hit": false,
      "t": 333333.33333333227,
      "d": 645.8333333333139,
      "v": 126
    },
    {
      "midi": 77,
      "hit": false,
      "t": 333999.9999999989,
      "d": 645.8333333333139,
      "v": 126
    },
    {
      "midi": 31,
      "hit": false,
      "t": 334666.6666666655,
      "d": 541.6666666666861,
      "v": 126
    },
    {
      "midi": 72,
      "hit": false,
      "t": 334666.6666666655,
      "d": 645.8333333333721,
      "v": 126
    },
    {
      "midi": 32,
      "hit": false,
      "t": 335333.3333333322,
      "d": 531.25,
      "v": 126
    },
    {
      "midi": 69,
      "hit": false,
      "t": 335333.3333333322,
      "d": 645.8333333333139,
      "v": 126
    },
    {
      "midi": 57,
      "hit": false,
      "t": 335999.99999999884,
      "d": 645.8333333333139,
      "v": 126
    },
    {
      "midi": 33,
      "hit": false,
      "t": 335999.99999999884,
      "d": 3312.4999999998254,
      "v": 126
    },
    {
      "midi": 60,
      "hit": false,
      "t": 336666.66666666546,
      "d": 645.8333333333139,
      "v": 126
    },
    {
      "midi": 64,
      "hit": false,
      "t": 337333.3333333321,
      "d": 645.8333333333139,
      "v": 126
    },
    {
      "midi": 69,
      "hit": false,
      "t": 337999.9999999987,
      "d": 645.8333333333139,
      "v": 126
    },
    {
      "midi": 64,
      "hit": false,
      "t": 338666.66666666535,
      "d": 645.8333333333139,
      "v": 126
    },
    {
      "midi": 33,
      "hit": false,
      "t": 339333.333333332,
      "d": 645.8333333333139,
      "v": 126
    },
    {
      "midi": 60,
      "hit": false,
      "t": 339333.333333332,
      "d": 645.8333333333139,
      "v": 126
    },
    {
      "midi": 52,
      "hit": false,
      "t": 339999.9999999986,
      "d": 645.8333333333139,
      "v": 126
    },
    {
      "midi": 28,
      "hit": false,
      "t": 339999.9999999986,
      "d": 3312.4999999998254,
      "v": 126
    },
    {
      "midi": 56,
      "hit": false,
      "t": 340666.66666666523,
      "d": 645.8333333333139,
      "v": 126
    },
    {
      "midi": 59,
      "hit": false,
      "t": 341333.33333333186,
      "d": 645.8333333333139,
      "v": 126
    },
    {
      "midi": 64,
      "hit": false,
      "t": 341999.9999999985,
      "d": 645.8333333333139,
      "v": 126
    },
    {
      "midi": 59,
      "hit": false,
      "t": 342666.6666666651,
      "d": 645.8333333333139,
      "v": 126
    },
    {
      "midi": 28,
      "hit": false,
      "t": 343333.33333333174,
      "d": 645.8333333333139,
      "v": 126
    },
    {
      "midi": 56,
      "hit": false,
      "t": 343333.33333333174,
      "d": 645.8333333333139,
      "v": 126
    },
    {
      "midi": 57,
      "hit": false,
      "t": 343999.99999999837,
      "d": 645.8333333333139,
      "v": 126
    },
    {
      "midi": 33,
      "hit": false,
      "t": 343999.99999999837,
      "d": 2645.8333333331975,
      "v": 126
    },
    {
      "midi": 60,
      "hit": false,
      "t": 344666.666666665,
      "d": 645.8333333333139,
      "v": 126
    },
    {
      "midi": 64,
      "hit": false,
      "t": 345333.3333333316,
      "d": 645.8333333333139,
      "v": 126
    },
    {
      "midi": 69,
      "hit": false,
      "t": 345999.99999999825,
      "d": 645.8333333333139,
      "v": 126
    },
    {
      "midi": 38,
      "hit": false,
      "t": 346666.6666666649,
      "d": 645.8333333333139,
      "v": 126
    },
    {
      "midi": 64,
      "hit": false,
      "t": 346666.6666666649,
      "d": 645.8333333333139,
      "v": 126
    },
    {
      "midi": 39,
      "hit": false,
      "t": 347333.3333333315,
      "d": 645.8333333333139,
      "v": 126
    },
    {
      "midi": 60,
      "hit": false,
      "t": 347333.3333333315,
      "d": 645.8333333333139,
      "v": 126
    },
    {
      "midi": 40,
      "hit": false,
      "t": 347999.99999999814,
      "d": 645.8333333333139,
      "v": 126
    },
    {
      "midi": 52,
      "hit": false,
      "t": 347999.99999999814,
      "d": 645.8333333333139,
      "v": 126
    },
    {
      "midi": 35,
      "hit": false,
      "t": 348666.66666666477,
      "d": 645.8333333333139,
      "v": 126
    },
    {
      "midi": 56,
      "hit": false,
      "t": 348666.66666666477,
      "d": 645.8333333333139,
      "v": 126
    },
    {
      "midi": 32,
      "hit": false,
      "t": 349333.3333333314,
      "d": 645.8333333333139,
      "v": 126
    },
    {
      "midi": 59,
      "hit": false,
      "t": 349333.3333333314,
      "d": 645.8333333333139,
      "v": 126
    },
    {
      "midi": 64,
      "hit": false,
      "t": 349999.999999998,
      "d": 645.8333333333139,
      "v": 126
    },
    {
      "midi": 28,
      "hit": false,
      "t": 349999.999999998,
      "d": 1979.1666666665697,
      "v": 126
    },
    {
      "midi": 59,
      "hit": false,
      "t": 350666.66666666465,
      "d": 645.8333333333139,
      "v": 126
    },
    {
      "midi": 56,
      "hit": false,
      "t": 351333.3333333313,
      "d": 645.8333333333139,
      "v": 126
    },
    {
      "midi": 57,
      "hit": false,
      "t": 351999.9999999979,
      "d": 645.8333333333139,
      "v": 126
    },
    {
      "midi": 33,
      "hit": false,
      "t": 351999.9999999979,
      "d": 3312.4999999998254,
      "v": 126
    },
    {
      "midi": 60,
      "hit": false,
      "t": 352666.66666666453,
      "d": 645.8333333333139,
      "v": 126
    },
    {
      "midi": 64,
      "hit": false,
      "t": 353333.33333333116,
      "d": 645.8333333333139,
      "v": 126
    },
    {
      "midi": 69,
      "hit": false,
      "t": 353999.9999999978,
      "d": 645.8333333333139,
      "v": 126
    },
    {
      "midi": 64,
      "hit": false,
      "t": 354666.6666666644,
      "d": 645.8333333333139,
      "v": 126
    },
    {
      "midi": 35,
      "hit": false,
      "t": 355333.33333333104,
      "d": 645.8333333333139,
      "v": 126
    },
    {
      "midi": 60,
      "hit": false,
      "t": 355333.33333333104,
      "d": 645.8333333333139,
      "v": 126
    },
    {
      "midi": 60,
      "hit": false,
      "t": 355999.9999999977,
      "d": 645.8333333333139,
      "v": 126
    },
    {
      "midi": 36,
      "hit": false,
      "t": 355999.9999999977,
      "d": 3312.4999999998254,
      "v": 126
    },
    {
      "midi": 64,
      "hit": false,
      "t": 356666.6666666643,
      "d": 645.8333333333139,
      "v": 126
    },
    {
      "midi": 67,
      "hit": false,
      "t": 357333.3333333309,
      "d": 645.8333333333139,
      "v": 126
    },
    {
      "midi": 72,
      "hit": false,
      "t": 357999.99999999756,
      "d": 645.8333333333139,
      "v": 126
    },
    {
      "midi": 67,
      "hit": false,
      "t": 358666.6666666642,
      "d": 645.8333333333139,
      "v": 126
    },
    {
      "midi": 37,
      "hit": false,
      "t": 359333.3333333308,
      "d": 645.8333333333139,
      "v": 126
    },
    {
      "midi": 64,
      "hit": false,
      "t": 359333.3333333308,
      "d": 645.8333333333139,
      "v": 126
    },
    {
      "midi": 62,
      "hit": false,
      "t": 359999.99999999744,
      "d": 645.8333333333139,
      "v": 126
    },
    {
      "midi": 38,
      "hit": false,
      "t": 359999.99999999744,
      "d": 3312.4999999998254,
      "v": 126
    },
    {
      "midi": 66,
      "hit": false,
      "t": 360666.66666666407,
      "d": 645.8333333333139,
      "v": 126
    },
    {
      "midi": 69,
      "hit": false,
      "t": 361333.3333333307,
      "d": 645.8333333333139,
      "v": 126
    },
    {
      "midi": 74,
      "hit": false,
      "t": 361999.9999999973,
      "d": 645.8333333333139,
      "v": 126
    },
    {
      "midi": 69,
      "hit": false,
      "t": 362666.66666666395,
      "d": 645.8333333333139,
      "v": 126
    },
    {
      "midi": 40,
      "hit": false,
      "t": 363333.3333333306,
      "d": 645.8333333333139,
      "v": 126
    },
    {
      "midi": 66,
      "hit": false,
      "t": 363333.3333333306,
      "d": 645.8333333333139,
      "v": 126
    },
    {
      "midi": 65,
      "hit": false,
      "t": 363999.9999999972,
      "d": 645.8333333333139,
      "v": 126
    },
    {
      "midi": 41,
      "hit": false,
      "t": 363999.9999999972,
      "d": 2645.8333333331975,
      "v": 126
    },
    {
      "midi": 69,
      "hit": false,
      "t": 364666.66666666383,
      "d": 645.8333333333139,
      "v": 126
    },
    {
      "midi": 72,
      "hit": false,
      "t": 365333.33333333046,
      "d": 645.8333333333139,
      "v": 126
    },
    {
      "midi": 77,
      "hit": false,
      "t": 365999.9999999971,
      "d": 645.8333333333139,
      "v": 126
    },
    {
      "midi": 31,
      "hit": false,
      "t": 366666.6666666637,
      "d": 645.8333333333139,
      "v": 126
    },
    {
      "midi": 72,
      "hit": false,
      "t": 366666.6666666637,
      "d": 645.8333333333139,
      "v": 126
    },
    {
      "midi": 32,
      "hit": false,
      "t": 367333.33333333035,
      "d": 645.8333333333139,
      "v": 126
    },
    {
      "midi": 69,
      "hit": false,
      "t": 367333.33333333035,
      "d": 645.8333333333139,
      "v": 126
    },
    {
      "midi": 57,
      "hit": false,
      "t": 367999.999999997,
      "d": 645.8333333333139,
      "v": 126
    },
    {
      "midi": 33,
      "hit": false,
      "t": 367999.999999997,
      "d": 3312.4999999998254,
      "v": 126
    },
    {
      "midi": 60,
      "hit": false,
      "t": 368666.6666666636,
      "d": 645.8333333333139,
      "v": 126
    },
    {
      "midi": 64,
      "hit": false,
      "t": 369333.3333333302,
      "d": 645.8333333333139,
      "v": 126
    },
    {
      "midi": 69,
      "hit": false,
      "t": 369999.99999999686,
      "d": 645.8333333333139,
      "v": 126
    },
    {
      "midi": 64,
      "hit": false,
      "t": 370666.6666666635,
      "d": 645.8333333333139,
      "v": 126
    },
    {
      "midi": 35,
      "hit": false,
      "t": 371333.3333333301,
      "d": 645.8333333333139,
      "v": 126
    },
    {
      "midi": 60,
      "hit": false,
      "t": 371333.3333333301,
      "d": 645.8333333333139,
      "v": 126
    },
    {
      "midi": 60,
      "hit": false,
      "t": 371999.99999999674,
      "d": 645.8333333333139,
      "v": 126
    },
    {
      "midi": 36,
      "hit": false,
      "t": 371999.99999999674,
      "d": 2645.8333333331975,
      "v": 126
    },
    {
      "midi": 64,
      "hit": false,
      "t": 372666.66666666337,
      "d": 645.8333333333139,
      "v": 126
    },
    {
      "midi": 67,
      "hit": false,
      "t": 373333.33333333,
      "d": 645.8333333333139,
      "v": 126
    },
    {
      "midi": 72,
      "hit": false,
      "t": 373999.9999999966,
      "d": 645.8333333333139,
      "v": 126
    },
    {
      "midi": 38,
      "hit": false,
      "t": 374666.66666666325,
      "d": 645.8333333333139,
      "v": 126
    },
    {
      "midi": 67,
      "hit": false,
      "t": 374666.66666666325,
      "d": 645.8333333333139,
      "v": 126
    },
    {
      "midi": 39,
      "hit": false,
      "t": 375333.3333333299,
      "d": 645.8333333333139,
      "v": 126
    },
    {
      "midi": 64,
      "hit": false,
      "t": 375333.3333333299,
      "d": 645.8333333333139,
      "v": 126
    },
    {
      "midi": 64,
      "hit": false,
      "t": 375999.9999999965,
      "d": 645.8333333333139,
      "v": 126
    },
    {
      "midi": 40,
      "hit": false,
      "t": 375999.9999999965,
      "d": 3312.4999999998254,
      "v": 126
    },
    {
      "midi": 68,
      "hit": false,
      "t": 376666.66666666314,
      "d": 645.8333333333139,
      "v": 126
    },
    {
      "midi": 71,
      "hit": false,
      "t": 377333.33333332976,
      "d": 645.8333333333139,
      "v": 126
    },
    {
      "midi": 76,
      "hit": false,
      "t": 377999.9999999964,
      "d": 645.8333333333139,
      "v": 126
    },
    {
      "midi": 71,
      "hit": false,
      "t": 378666.666666663,
      "d": 645.8333333333139,
      "v": 126
    },
    {
      "midi": 35,
      "hit": false,
      "t": 379333.33333332965,
      "d": 645.8333333333139,
      "v": 126
    },
    {
      "midi": 68,
      "hit": false,
      "t": 379333.33333332965,
      "d": 645.8333333333139,
      "v": 126
    },
    {
      "midi": 64,
      "hit": false,
      "t": 379999.9999999963,
      "d": 645.8333333333139,
      "v": 126
    },
    {
      "midi": 28,
      "hit": false,
      "t": 379999.9999999963,
      "d": 2645.8333333331975,
      "v": 126
    },
    {
      "midi": 68,
      "hit": false,
      "t": 380666.6666666629,
      "d": 645.8333333333139,
      "v": 126
    },
    {
      "midi": 71,
      "hit": false,
      "t": 381333.33333332953,
      "d": 645.8333333333139,
      "v": 126
    },
    {
      "midi": 76,
      "hit": false,
      "t": 381999.99999999616,
      "d": 645.8333333333139,
      "v": 126
    },
    {
      "midi": 31,
      "hit": false,
      "t": 382666.6666666628,
      "d": 645.8333333333139,
      "v": 126
    },
    {
      "midi": 71,
      "hit": false,
      "t": 382666.6666666628,
      "d": 645.8333333333139,
      "v": 126
    },
    {
      "midi": 32,
      "hit": false,
      "t": 383333.3333333294,
      "d": 645.8333333333139,
      "v": 126
    },
    {
      "midi": 68,
      "hit": false,
      "t": 383333.3333333294,
      "d": 645.8333333333139,
      "v": 126
    },
    {
      "midi": 57,
      "hit": false,
      "t": 383999.99999999604,
      "d": 645.8333333333139,
      "v": 126
    },
    {
      "midi": 33,
      "hit": false,
      "t": 383999.99999999604,
      "d": 3312.4999999998254,
      "v": 126
    },
    {
      "midi": 60,
      "hit": false,
      "t": 384666.66666666267,
      "d": 645.8333333333139,
      "v": 126
    },
    {
      "midi": 64,
      "hit": false,
      "t": 385333.3333333293,
      "d": 645.8333333333139,
      "v": 126
    },
    {
      "midi": 69,
      "hit": false,
      "t": 385999.9999999959,
      "d": 645.8333333333139,
      "v": 126
    },
    {
      "midi": 64,
      "hit": false,
      "t": 386666.66666666255,
      "d": 645.8333333333139,
      "v": 126
    },
    {
      "midi": 35,
      "hit": false,
      "t": 387333.3333333292,
      "d": 645.8333333333139,
      "v": 126
    },
    {
      "midi": 60,
      "hit": false,
      "t": 387333.3333333292,
      "d": 645.8333333333139,
      "v": 126
    },
    {
      "midi": 60,
      "hit": false,
      "t": 387999.9999999958,
      "d": 645.8333333333139,
      "v": 126
    },
    {
      "midi": 36,
      "hit": false,
      "t": 387999.9999999958,
      "d": 2645.8333333331975,
      "v": 126
    },
    {
      "midi": 64,
      "hit": false,
      "t": 388666.66666666244,
      "d": 645.8333333333139,
      "v": 126
    },
    {
      "midi": 67,
      "hit": false,
      "t": 389333.33333332906,
      "d": 645.8333333333139,
      "v": 126
    },
    {
      "midi": 72,
      "hit": false,
      "t": 389999.9999999957,
      "d": 645.8333333333139,
      "v": 126
    },
    {
      "midi": 67,
      "hit": false,
      "t": 390666.6666666623,
      "d": 645.8333333333139,
      "v": 126
    },
    {
      "midi": 37,
      "hit": false,
      "t": 391333.33333332895,
      "d": 645.8333333333139,
      "v": 126
    },
    {
      "midi": 64,
      "hit": false,
      "t": 391333.33333332895,
      "d": 645.8333333333139,
      "v": 126
    },
    {
      "midi": 62,
      "hit": false,
      "t": 391999.9999999956,
      "d": 645.8333333333139,
      "v": 126
    },
    {
      "midi": 38,
      "hit": false,
      "t": 391999.9999999956,
      "d": 2531.2499999998836,
      "v": 126
    },
    {
      "midi": 66,
      "hit": false,
      "t": 392666.6666666622,
      "d": 645.8333333333139,
      "v": 126
    },
    {
      "midi": 69,
      "hit": false,
      "t": 393333.33333332883,
      "d": 645.8333333333139,
      "v": 126
    },
    {
      "midi": 74,
      "hit": false,
      "t": 393999.99999999546,
      "d": 645.8333333333139,
      "v": 126
    },
    {
      "midi": 38,
      "hit": false,
      "t": 394666.6666666621,
      "d": 375,
      "v": 126
    },
    {
      "midi": 69,
      "hit": false,
      "t": 394666.6666666621,
      "d": 645.8333333333139,
      "v": 126
    },
    {
      "midi": 40,
      "hit": false,
      "t": 395333.3333333287,
      "d": 562.5,
      "v": 126
    },
    {
      "midi": 66,
      "hit": false,
      "t": 395333.3333333287,
      "d": 645.8333333333139,
      "v": 126
    },
    {
      "midi": 65,
      "hit": false,
      "t": 395999.99999999534,
      "d": 645.8333333333139,
      "v": 126
    },
    {
      "midi": 41,
      "hit": false,
      "t": 395999.99999999534,
      "d": 2114.5833333331975,
      "v": 126
    },
    {
      "midi": 69,
      "hit": false,
      "t": 396666.666666662,
      "d": 645.8333333333139,
      "v": 126
    },
    {
      "midi": 72,
      "hit": false,
      "t": 397333.3333333286,
      "d": 645.8333333333139,
      "v": 126
    },
    {
      "midi": 77,
      "hit": false,
      "t": 397999.9999999952,
      "d": 645.8333333333139,
      "v": 126
    },
    {
      "midi": 31,
      "hit": false,
      "t": 398666.66666666185,
      "d": 541.6666666666861,
      "v": 126
    },
    {
      "midi": 72,
      "hit": false,
      "t": 398666.66666666185,
      "d": 645.8333333333721,
      "v": 126
    },
    {
      "midi": 32,
      "hit": false,
      "t": 399333.33333332854,
      "d": 531.25,
      "v": 126
    },
    {
      "midi": 69,
      "hit": false,
      "t": 399333.33333332854,
      "d": 645.8333333333139,
      "v": 126
    },
    {
      "midi": 57,
      "hit": false,
      "t": 399999.99999999517,
      "d": 645.8333333333139,
      "v": 126
    },
    {
      "midi": 33,
      "hit": false,
      "t": 399999.99999999517,
      "d": 3312.4999999998254,
      "v": 126
    },
    {
      "midi": 60,
      "hit": false,
      "t": 400666.6666666618,
      "d": 645.8333333333139,
      "v": 126
    },
    {
      "midi": 64,
      "hit": false,
      "t": 401333.3333333284,
      "d": 645.8333333333139,
      "v": 126
    },
    {
      "midi": 69,
      "hit": false,
      "t": 401999.99999999505,
      "d": 645.8333333333139,
      "v": 126
    },
    {
      "midi": 64,
      "hit": false,
      "t": 402666.6666666617,
      "d": 645.8333333333139,
      "v": 126
    },
    {
      "midi": 33,
      "hit": false,
      "t": 403333.3333333283,
      "d": 645.8333333333139,
      "v": 126
    },
    {
      "midi": 60,
      "hit": false,
      "t": 403333.3333333283,
      "d": 645.8333333333139,
      "v": 126
    },
    {
      "midi": 52,
      "hit": false,
      "t": 403999.99999999494,
      "d": 645.8333333333139,
      "v": 126
    },
    {
      "midi": 28,
      "hit": false,
      "t": 403999.99999999494,
      "d": 3312.4999999998254,
      "v": 126
    },
    {
      "midi": 56,
      "hit": false,
      "t": 404666.66666666156,
      "d": 645.8333333333139,
      "v": 126
    },
    {
      "midi": 59,
      "hit": false,
      "t": 405333.3333333282,
      "d": 645.8333333333139,
      "v": 126
    },
    {
      "midi": 64,
      "hit": false,
      "t": 405999.9999999948,
      "d": 645.8333333333139,
      "v": 126
    },
    {
      "midi": 59,
      "hit": false,
      "t": 406666.66666666145,
      "d": 645.8333333333139,
      "v": 126
    },
    {
      "midi": 28,
      "hit": false,
      "t": 407333.3333333281,
      "d": 645.8333333333139,
      "v": 126
    },
    {
      "midi": 56,
      "hit": false,
      "t": 407333.3333333281,
      "d": 645.8333333333139,
      "v": 126
    },
    {
      "midi": 57,
      "hit": false,
      "t": 407999.9999999947,
      "d": 645.8333333333139,
      "v": 126
    },
    {
      "midi": 33,
      "hit": false,
      "t": 407999.9999999947,
      "d": 2645.8333333331975,
      "v": 126
    },
    {
      "midi": 60,
      "hit": false,
      "t": 408666.66666666133,
      "d": 645.8333333333139,
      "v": 126
    },
    {
      "midi": 64,
      "hit": false,
      "t": 409333.33333332796,
      "d": 645.8333333333139,
      "v": 126
    },
    {
      "midi": 69,
      "hit": false,
      "t": 409999.9999999946,
      "d": 645.8333333333139,
      "v": 126
    },
    {
      "midi": 38,
      "hit": false,
      "t": 410666.6666666612,
      "d": 645.8333333333139,
      "v": 126
    },
    {
      "midi": 64,
      "hit": false,
      "t": 410666.6666666612,
      "d": 645.8333333333139,
      "v": 126
    },
    {
      "midi": 39,
      "hit": false,
      "t": 411333.33333332784,
      "d": 645.8333333333139,
      "v": 126
    },
    {
      "midi": 60,
      "hit": false,
      "t": 411333.33333332784,
      "d": 645.8333333333139,
      "v": 126
    },
    {
      "midi": 40,
      "hit": false,
      "t": 411999.99999999447,
      "d": 645.8333333333139,
      "v": 126
    },
    {
      "midi": 52,
      "hit": false,
      "t": 411999.99999999447,
      "d": 645.8333333333139,
      "v": 126
    },
    {
      "midi": 35,
      "hit": false,
      "t": 412666.6666666611,
      "d": 645.8333333333139,
      "v": 126
    },
    {
      "midi": 56,
      "hit": false,
      "t": 412666.6666666611,
      "d": 645.8333333333139,
      "v": 126
    },
    {
      "midi": 32,
      "hit": false,
      "t": 413333.3333333277,
      "d": 645.8333333333139,
      "v": 126
    },
    {
      "midi": 59,
      "hit": false,
      "t": 413333.3333333277,
      "d": 645.8333333333139,
      "v": 126
    },
    {
      "midi": 64,
      "hit": false,
      "t": 413999.99999999435,
      "d": 645.8333333333139,
      "v": 126
    },
    {
      "midi": 28,
      "hit": false,
      "t": 413999.99999999435,
      "d": 1979.1666666665697,
      "v": 126
    },
    {
      "midi": 59,
      "hit": false,
      "t": 414666.666666661,
      "d": 645.8333333333139,
      "v": 126
    },
    {
      "midi": 56,
      "hit": false,
      "t": 415333.3333333276,
      "d": 645.8333333333139,
      "v": 126
    },
    {
      "midi": 33,
      "hit": false,
      "t": 415999.99999999424,
      "d": 3979.166666666686,
      "v": 126
    },
    {
      "midi": 57,
      "hit": false,
      "t": 415999.99999999424,
      "d": 3979.166666666686,
      "v": 126
    },
    {
      "midi": 72,
      "hit": false,
      "t": 415999.99999999424,
      "d": 3979.166666666686,
      "v": 105
    },
    {
      "midi": 76,
      "hit": false,
      "t": 415999.99999999424,
      "d": 3979.166666666686,
      "v": 110
    },
    {
      "midi": 81,
      "hit": false,
      "t": 415999.99999999424,
      "d": 3979.166666666686,
      "v": 94
    },
    {
      "midi": 28,
      "hit": false,
      "t": 419999.99999999424,
      "d": 3979.166666666686,
      "v": 126
    },
    {
      "midi": 52,
      "hit": false,
      "t": 419999.99999999424,
      "d": 3979.166666666686,
      "v": 126
    },
    {
      "midi": 71,
      "hit": false,
      "t": 419999.99999999424,
      "d": 3979.166666666686,
      "v": 110
    },
    {
      "midi": 76,
      "hit": false,
      "t": 419999.99999999424,
      "d": 3979.166666666686,
      "v": 117
    },
    {
      "midi": 80,
      "hit": false,
      "t": 419999.99999999424,
      "d": 3979.166666666686,
      "v": 99
    },
    {
      "midi": 45,
      "hit": false,
      "t": 423999.99999999424,
      "d": 3979.166666666686,
      "v": 84
    },
    {
      "midi": 57,
      "hit": false,
      "t": 423999.99999999424,
      "d": 3979.166666666686,
      "v": 89
    },
    {
      "midi": 72,
      "hit": false,
      "t": 423999.99999999424,
      "d": 3979.166666666686,
      "v": 112
    },
    {
      "midi": 76,
      "hit": false,
      "t": 423999.99999999424,
      "d": 3979.166666666686,
      "v": 110
    },
    {
      "midi": 81,
      "hit": false,
      "t": 423999.99999999424,
      "d": 3979.166666666686,
      "v": 84
    }
  ]
}