{
  "jsonPath": "World/Canzone Napoletana/Gigi DAlessio/domani.json",
  "path": "World\\Canzone Napoletana\\Gigi DAlessio\\Domani.mid",
  "name": "Domani",
  "difficulty": "Advanced",
  "bpm": 69.99998833333528,
  "notes": [
    {
      "midi": 57,
      "hit": false,
      "t": 3984.375,
      "d": 244.140625,
      "v": 84
    },
    {
      "midi": 53,
      "hit": false,
      "t": 4218.75,
      "d": 273.4375,
      "v": 57
    },
    {
      "midi": 50,
      "hit": false,
      "t": 4453.125,
      "d": 205.078125,
      "v": 70
    },
    {
      "midi": 45,
      "hit": false,
      "t": 4687.5,
      "d": 87.890625,
      "v": 68
    },
    {
      "midi": 57,
      "hit": false,
      "t": 5156.25,
      "d": 73.2421875,
      "v": 76
    },
    {
      "midi": 57,
      "hit": false,
      "t": 5625,
      "d": 688.4765625,
      "v": 75
    },
    {
      "midi": 55,
      "hit": false,
      "t": 6328.125,
      "d": 346.6796875,
      "v": 62
    },
    {
      "midi": 55,
      "hit": false,
      "t": 7734.375,
      "d": 292.96875,
      "v": 82
    },
    {
      "midi": 52,
      "hit": false,
      "t": 7968.75,
      "d": 268.5546875,
      "v": 62
    },
    {
      "midi": 49,
      "hit": false,
      "t": 8203.125,
      "d": 214.84375,
      "v": 82
    },
    {
      "midi": 45,
      "hit": false,
      "t": 8437.5,
      "d": 102.5390625,
      "v": 64
    },
    {
      "midi": 55,
      "hit": false,
      "t": 8906.25,
      "d": 78.125,
      "v": 70
    },
    {
      "midi": 55,
      "hit": false,
      "t": 9375,
      "d": 722.65625,
      "v": 70
    },
    {
      "midi": 53,
      "hit": false,
      "t": 10078.125,
      "d": 234.375,
      "v": 68
    },
    {
      "midi": 55,
      "hit": false,
      "t": 11484.375,
      "d": 307.6171875,
      "v": 73
    },
    {
      "midi": 53,
      "hit": false,
      "t": 11718.75,
      "d": 239.2578125,
      "v": 56
    },
    {
      "midi": 50,
      "hit": false,
      "t": 11953.125,
      "d": 214.84375,
      "v": 65
    },
    {
      "midi": 45,
      "hit": false,
      "t": 12187.5,
      "d": 112.3046875,
      "v": 69
    },
    {
      "midi": 53,
      "hit": false,
      "t": 12656.25,
      "d": 78.125,
      "v": 72
    },
    {
      "midi": 53,
      "hit": false,
      "t": 13125,
      "d": 708.0078125,
      "v": 72
    },
    {
      "midi": 52,
      "hit": false,
      "t": 13828.125,
      "d": 249.0234375,
      "v": 62
    },
    {
      "midi": 53,
      "hit": false,
      "t": 15234.375,
      "d": 253.90625,
      "v": 78
    },
    {
      "midi": 52,
      "hit": false,
      "t": 15468.75,
      "d": 244.140625,
      "v": 47
    },
    {
      "midi": 49,
      "hit": false,
      "t": 15703.125,
      "d": 185.546875,
      "v": 72
    },
    {
      "midi": 45,
      "hit": false,
      "t": 15937.5,
      "d": 107.421875,
      "v": 67
    },
    {
      "midi": 46,
      "hit": false,
      "t": 17578.125,
      "d": 717.7734375,
      "v": 72
    },
    {
      "midi": 45,
      "hit": false,
      "t": 18281.25,
      "d": 190.4296875,
      "v": 89
    },
    {
      "midi": 46,
      "hit": false,
      "t": 32578.125,
      "d": 717.7734375,
      "v": 72
    },
    {
      "midi": 45,
      "hit": false,
      "t": 33281.25,
      "d": 190.4296875,
      "v": 89
    },
    {
      "midi": 46,
      "hit": false,
      "t": 47578.125,
      "d": 717.7734375,
      "v": 72
    },
    {
      "midi": 45,
      "hit": false,
      "t": 48281.25,
      "d": 190.4296875,
      "v": 89
    },
    {
      "midi": 57,
      "hit": false,
      "t": 80625,
      "d": 839.84375,
      "v": 66
    },
    {
      "midi": 50,
      "hit": false,
      "t": 80625,
      "d": 1245.1171875,
      "v": 76
    },
    {
      "midi": 62,
      "hit": false,
      "t": 80625,
      "d": 2202.1484375,
      "v": 84
    },
    {
      "midi": 66,
      "hit": false,
      "t": 80625,
      "d": 2421.875,
      "v": 72
    },
    {
      "midi": 57,
      "hit": false,
      "t": 81562.5,
      "d": 590.8203125,
      "v": 39
    },
    {
      "midi": 50,
      "hit": false,
      "t": 82031.25,
      "d": 351.5625,
      "v": 40
    },
    {
      "midi": 57,
      "hit": false,
      "t": 82265.625,
      "d": 317.3828125,
      "v": 36
    },
    {
      "midi": 50,
      "hit": false,
      "t": 82500,
      "d": 1225.5859375,
      "v": 48
    },
    {
      "midi": 57,
      "hit": false,
      "t": 82734.375,
      "d": 1010.7421875,
      "v": 42
    },
    {
      "midi": 64,
      "hit": false,
      "t": 82968.75,
      "d": 107.421875,
      "v": 35
    },
    {
      "midi": 62,
      "hit": false,
      "t": 82968.75,
      "d": 366.2109375,
      "v": 40
    },
    {
      "midi": 66,
      "hit": false,
      "t": 83203.125,
      "d": 117.1875,
      "v": 36
    },
    {
      "midi": 66,
      "hit": false,
      "t": 83437.5,
      "d": 761.71875,
      "v": 54
    },
    {
      "midi": 62,
      "hit": false,
      "t": 83437.5,
      "d": 815.4296875,
      "v": 59
    },
    {
      "midi": 50,
      "hit": false,
      "t": 83906.25,
      "d": 351.5625,
      "v": 45
    },
    {
      "midi": 57,
      "hit": false,
      "t": 83906.25,
      "d": 351.5625,
      "v": 50
    },
    {
      "midi": 47,
      "hit": false,
      "t": 84375,
      "d": 1206.0546875,
      "v": 67
    },
    {
      "midi": 57,
      "hit": false,
      "t": 84375,
      "d": 1220.703125,
      "v": 72
    },
    {
      "midi": 64,
      "hit": false,
      "t": 84375,
      "d": 1718.75,
      "v": 78
    },
    {
      "midi": 61,
      "hit": false,
      "t": 84375,
      "d": 1791.9921875,
      "v": 84
    },
    {
      "midi": 69,
      "hit": false,
      "t": 85312.5,
      "d": 898.4375,
      "v": 74
    },
    {
      "midi": 57,
      "hit": false,
      "t": 85781.25,
      "d": 434.5703125,
      "v": 50
    },
    {
      "midi": 47,
      "hit": false,
      "t": 85781.25,
      "d": 1748.046875,
      "v": 41
    },
    {
      "midi": 57,
      "hit": false,
      "t": 86250,
      "d": 1704.1015625,
      "v": 67
    },
    {
      "midi": 66,
      "hit": false,
      "t": 86250,
      "d": 1733.3984375,
      "v": 84
    },
    {
      "midi": 62,
      "hit": false,
      "t": 86250,
      "d": 1752.9296875,
      "v": 89
    },
    {
      "midi": 69,
      "hit": false,
      "t": 87187.5,
      "d": 761.71875,
      "v": 68
    },
    {
      "midi": 47,
      "hit": false,
      "t": 87656.25,
      "d": 361.328125,
      "v": 51
    },
    {
      "midi": 59,
      "hit": false,
      "t": 88125,
      "d": 1284.1796875,
      "v": 74
    },
    {
      "midi": 52,
      "hit": false,
      "t": 88125,
      "d": 2402.34375,
      "v": 67
    },
    {
      "midi": 62,
      "hit": false,
      "t": 88125,
      "d": 2651.3671875,
      "v": 89
    },
    {
      "midi": 67,
      "hit": false,
      "t": 88125,
      "d": 3671.875,
      "v": 73
    },
    {
      "midi": 59,
      "hit": false,
      "t": 89531.25,
      "d": 834.9609375,
      "v": 40
    },
    {
      "midi": 71,
      "hit": false,
      "t": 90000,
      "d": 1035.15625,
      "v": 79
    },
    {
      "midi": 59,
      "hit": false,
      "t": 90468.75,
      "d": 825.1953125,
      "v": 38
    },
    {
      "midi": 52,
      "hit": false,
      "t": 90703.125,
      "d": 1103.515625,
      "v": 51
    },
    {
      "midi": 62,
      "hit": false,
      "t": 90937.5,
      "d": 834.9609375,
      "v": 91
    },
    {
      "midi": 59,
      "hit": false,
      "t": 91406.25,
      "d": 385.7421875,
      "v": 42
    },
    {
      "midi": 62,
      "hit": false,
      "t": 91875,
      "d": 1787.109375,
      "v": 73
    },
    {
      "midi": 64,
      "hit": false,
      "t": 91875,
      "d": 1821.2890625,
      "v": 59
    },
    {
      "midi": 45,
      "hit": false,
      "t": 91875,
      "d": 3007.8125,
      "v": 58
    },
    {
      "midi": 57,
      "hit": false,
      "t": 92343.75,
      "d": 678.7109375,
      "v": 40
    },
    {
      "midi": 69,
      "hit": false,
      "t": 92812.5,
      "d": 1650.390625,
      "v": 79
    },
    {
      "midi": 57,
      "hit": false,
      "t": 93281.25,
      "d": 668.9453125,
      "v": 63
    },
    {
      "midi": 64,
      "hit": false,
      "t": 93750,
      "d": 854.4921875,
      "v": 55
    },
    {
      "midi": 61,
      "hit": false,
      "t": 93750,
      "d": 864.2578125,
      "v": 82
    },
    {
      "midi": 57,
      "hit": false,
      "t": 94453.125,
      "d": 629.8828125,
      "v": 68
    },
    {
      "midi": 61,
      "hit": false,
      "t": 94687.5,
      "d": 590.8203125,
      "v": 49
    },
    {
      "midi": 69,
      "hit": false,
      "t": 94687.5,
      "d": 854.4921875,
      "v": 81
    },
    {
      "midi": 45,
      "hit": false,
      "t": 95156.25,
      "d": 444.3359375,
      "v": 55
    },
    {
      "midi": 54,
      "hit": false,
      "t": 95625,
      "d": 1103.515625,
      "v": 77
    },
    {
      "midi": 57,
      "hit": false,
      "t": 95625,
      "d": 1152.34375,
      "v": 68
    },
    {
      "midi": 60,
      "hit": false,
      "t": 95625,
      "d": 1459.9609375,
      "v": 70
    },
    {
      "midi": 64,
      "hit": false,
      "t": 95625,
      "d": 1523.4375,
      "v": 70
    },
    {
      "midi": 54,
      "hit": false,
      "t": 96796.875,
      "d": 659.1796875,
      "v": 41
    },
    {
      "midi": 57,
      "hit": false,
      "t": 97031.25,
      "d": 869.140625,
      "v": 42
    },
    {
      "midi": 64,
      "hit": false,
      "t": 97265.625,
      "d": 131.8359375,
      "v": 45
    },
    {
      "midi": 63,
      "hit": false,
      "t": 97500,
      "d": 839.84375,
      "v": 79
    },
    {
      "midi": 59,
      "hit": false,
      "t": 97500,
      "d": 859.375,
      "v": 68
    },
    {
      "midi": 47,
      "hit": false,
      "t": 97500,
      "d": 1284.1796875,
      "v": 54
    },
    {
      "midi": 57,
      "hit": false,
      "t": 97968.75,
      "d": 766.6015625,
      "v": 44
    },
    {
      "midi": 66,
      "hit": false,
      "t": 98437.5,
      "d": 834.9609375,
      "v": 86
    },
    {
      "midi": 63,
      "hit": false,
      "t": 98437.5,
      "d": 844.7265625,
      "v": 86
    },
    {
      "midi": 57,
      "hit": false,
      "t": 98906.25,
      "d": 351.5625,
      "v": 46
    },
    {
      "midi": 47,
      "hit": false,
      "t": 98906.25,
      "d": 400.390625,
      "v": 39
    },
    {
      "midi": 59,
      "hit": false,
      "t": 99375,
      "d": 874.0234375,
      "v": 74
    },
    {
      "midi": 64,
      "hit": false,
      "t": 99375,
      "d": 1269.53125,
      "v": 81
    },
    {
      "midi": 52,
      "hit": false,
      "t": 99375,
      "d": 1445.3125,
      "v": 55
    },
    {
      "midi": 69,
      "hit": false,
      "t": 99375,
      "d": 1796.875,
      "v": 76
    },
    {
      "midi": 59,
      "hit": false,
      "t": 100312.5,
      "d": 708.0078125,
      "v": 42
    },
    {
      "midi": 64,
      "hit": false,
      "t": 100781.25,
      "d": 390.625,
      "v": 39
    },
    {
      "midi": 52,
      "hit": false,
      "t": 101015.625,
      "d": 1323.2421875,
      "v": 44
    },
    {
      "midi": 59,
      "hit": false,
      "t": 101250,
      "d": 1494.140625,
      "v": 61
    },
    {
      "midi": 64,
      "hit": false,
      "t": 101250,
      "d": 1567.3828125,
      "v": 51
    },
    {
      "midi": 67,
      "hit": false,
      "t": 101250,
      "d": 1757.8125,
      "v": 49
    },
    {
      "midi": 52,
      "hit": false,
      "t": 102656.25,
      "d": 463.8671875,
      "v": 42
    },
    {
      "midi": 55,
      "hit": false,
      "t": 103125,
      "d": 917.96875,
      "v": 47
    },
    {
      "midi": 58,
      "hit": false,
      "t": 103125,
      "d": 1269.53125,
      "v": 53
    },
    {
      "midi": 62,
      "hit": false,
      "t": 103125,
      "d": 1455.078125,
      "v": 57
    },
    {
      "midi": 67,
      "hit": false,
      "t": 103125,
      "d": 2617.1875,
      "v": 49
    },
    {
      "midi": 58,
      "hit": false,
      "t": 104531.25,
      "d": 908.203125,
      "v": 41
    },
    {
      "midi": 62,
      "hit": false,
      "t": 104765.625,
      "d": 898.4375,
      "v": 49
    },
    {
      "midi": 58,
      "hit": false,
      "t": 105468.75,
      "d": 117.1875,
      "v": 45
    },
    {
      "midi": 58,
      "hit": false,
      "t": 105937.5,
      "d": 346.6796875,
      "v": 84
    },
    {
      "midi": 67,
      "hit": false,
      "t": 105937.5,
      "d": 771.484375,
      "v": 71
    },
    {
      "midi": 62,
      "hit": false,
      "t": 105937.5,
      "d": 786.1328125,
      "v": 71
    },
    {
      "midi": 58,
      "hit": false,
      "t": 106406.25,
      "d": 234.375,
      "v": 46
    },
    {
      "midi": 57,
      "hit": false,
      "t": 106875,
      "d": 952.1484375,
      "v": 55
    },
    {
      "midi": 62,
      "hit": false,
      "t": 106875,
      "d": 1245.1171875,
      "v": 67
    },
    {
      "midi": 66,
      "hit": false,
      "t": 106875,
      "d": 1474.609375,
      "v": 71
    },
    {
      "midi": 50,
      "hit": false,
      "t": 106875,
      "d": 1801.7578125,
      "v": 61
    },
    {
      "midi": 57,
      "hit": false,
      "t": 108046.875,
      "d": 600.5859375,
      "v": 32
    },
    {
      "midi": 62,
      "hit": false,
      "t": 108281.25,
      "d": 297.8515625,
      "v": 46
    },
    {
      "midi": 66,
      "hit": false,
      "t": 108515.625,
      "d": 190.4296875,
      "v": 44
    },
    {
      "midi": 57,
      "hit": false,
      "t": 108750,
      "d": 371.09375,
      "v": 71
    },
    {
      "midi": 61,
      "hit": false,
      "t": 108750,
      "d": 893.5546875,
      "v": 86
    },
    {
      "midi": 64,
      "hit": false,
      "t": 108750,
      "d": 893.5546875,
      "v": 73
    },
    {
      "midi": 47,
      "hit": false,
      "t": 108750,
      "d": 1318.359375,
      "v": 57
    },
    {
      "midi": 57,
      "hit": false,
      "t": 109218.75,
      "d": 375.9765625,
      "v": 43
    },
    {
      "midi": 57,
      "hit": false,
      "t": 109687.5,
      "d": 756.8359375,
      "v": 65
    },
    {
      "midi": 66,
      "hit": false,
      "t": 109687.5,
      "d": 810.546875,
      "v": 80
    },
    {
      "midi": 62,
      "hit": false,
      "t": 109687.5,
      "d": 864.2578125,
      "v": 76
    },
    {
      "midi": 47,
      "hit": false,
      "t": 110156.25,
      "d": 375.9765625,
      "v": 43
    },
    {
      "midi": 59,
      "hit": false,
      "t": 110625,
      "d": 1279.296875,
      "v": 74
    },
    {
      "midi": 52,
      "hit": false,
      "t": 110625,
      "d": 1464.84375,
      "v": 59
    },
    {
      "midi": 64,
      "hit": false,
      "t": 110625,
      "d": 1860.3515625,
      "v": 67
    },
    {
      "midi": 68,
      "hit": false,
      "t": 111562.5,
      "d": 830.078125,
      "v": 58
    },
    {
      "midi": 59,
      "hit": false,
      "t": 112031.25,
      "d": 395.5078125,
      "v": 49
    },
    {
      "midi": 52,
      "hit": false,
      "t": 112265.625,
      "d": 161.1328125,
      "v": 35
    },
    {
      "midi": 59,
      "hit": false,
      "t": 112500,
      "d": 361.328125,
      "v": 62
    },
    {
      "midi": 52,
      "hit": false,
      "t": 112500,
      "d": 595.703125,
      "v": 56
    },
    {
      "midi": 62,
      "hit": false,
      "t": 112500,
      "d": 820.3125,
      "v": 64
    },
    {
      "midi": 68,
      "hit": false,
      "t": 112500,
      "d": 834.9609375,
      "v": 57
    },
    {
      "midi": 59,
      "hit": false,
      "t": 112968.75,
      "d": 332.03125,
      "v": 40
    },
    {
      "midi": 52,
      "hit": false,
      "t": 113203.125,
      "d": 478.515625,
      "v": 46
    },
    {
      "midi": 59,
      "hit": false,
      "t": 113437.5,
      "d": 839.84375,
      "v": 82
    },
    {
      "midi": 68,
      "hit": false,
      "t": 113437.5,
      "d": 854.4921875,
      "v": 74
    },
    {
      "midi": 62,
      "hit": false,
      "t": 113437.5,
      "d": 874.0234375,
      "v": 84
    },
    {
      "midi": 52,
      "hit": false,
      "t": 113906.25,
      "d": 424.8046875,
      "v": 50
    },
    {
      "midi": 69,
      "hit": false,
      "t": 114375,
      "d": 878.90625,
      "v": 58
    },
    {
      "midi": 62,
      "hit": false,
      "t": 114375,
      "d": 898.4375,
      "v": 71
    },
    {
      "midi": 64,
      "hit": false,
      "t": 114375,
      "d": 898.4375,
      "v": 63
    },
    {
      "midi": 45,
      "hit": false,
      "t": 114375,
      "d": 1069.3359375,
      "v": 57
    },
    {
      "midi": 57,
      "hit": false,
      "t": 114843.75,
      "d": 844.7265625,
      "v": 40
    },
    {
      "midi": 62,
      "hit": false,
      "t": 115312.5,
      "d": 781.25,
      "v": 61
    },
    {
      "midi": 69,
      "hit": false,
      "t": 115312.5,
      "d": 795.8984375,
      "v": 60
    },
    {
      "midi": 64,
      "hit": false,
      "t": 115312.5,
      "d": 825.1953125,
      "v": 62
    },
    {
      "midi": 57,
      "hit": false,
      "t": 115781.25,
      "d": 366.2109375,
      "v": 47
    },
    {
      "midi": 45,
      "hit": false,
      "t": 116015.625,
      "d": 791.015625,
      "v": 63
    },
    {
      "midi": 57,
      "hit": false,
      "t": 116250,
      "d": 297.8515625,
      "v": 71
    },
    {
      "midi": 61,
      "hit": false,
      "t": 116250,
      "d": 791.015625,
      "v": 82
    },
    {
      "midi": 64,
      "hit": false,
      "t": 116250,
      "d": 795.8984375,
      "v": 69
    },
    {
      "midi": 69,
      "hit": false,
      "t": 116250,
      "d": 795.8984375,
      "v": 63
    },
    {
      "midi": 57,
      "hit": false,
      "t": 116718.75,
      "d": 332.03125,
      "v": 57
    },
    {
      "midi": 45,
      "hit": false,
      "t": 116953.125,
      "d": 419.921875,
      "v": 76
    },
    {
      "midi": 57,
      "hit": false,
      "t": 117187.5,
      "d": 634.765625,
      "v": 79
    },
    {
      "midi": 64,
      "hit": false,
      "t": 117187.5,
      "d": 654.296875,
      "v": 87
    },
    {
      "midi": 69,
      "hit": false,
      "t": 117187.5,
      "d": 781.25,
      "v": 74
    },
    {
      "midi": 45,
      "hit": false,
      "t": 117656.25,
      "d": 400.390625,
      "v": 75
    },
    {
      "midi": 57,
      "hit": false,
      "t": 118125,
      "d": 839.84375,
      "v": 71
    },
    {
      "midi": 50,
      "hit": false,
      "t": 118125,
      "d": 1259.765625,
      "v": 69
    },
    {
      "midi": 62,
      "hit": false,
      "t": 118125,
      "d": 2211.9140625,
      "v": 82
    },
    {
      "midi": 66,
      "hit": false,
      "t": 118125,
      "d": 2656.25,
      "v": 80
    },
    {
      "midi": 57,
      "hit": false,
      "t": 119062.5,
      "d": 478.515625,
      "v": 40
    },
    {
      "midi": 50,
      "hit": false,
      "t": 119531.25,
      "d": 297.8515625,
      "v": 38
    },
    {
      "midi": 57,
      "hit": false,
      "t": 119765.625,
      "d": 351.5625,
      "v": 34
    },
    {
      "midi": 50,
      "hit": false,
      "t": 120000,
      "d": 639.6484375,
      "v": 40
    },
    {
      "midi": 57,
      "hit": false,
      "t": 120234.375,
      "d": 361.328125,
      "v": 37
    },
    {
      "midi": 62,
      "hit": false,
      "t": 120468.75,
      "d": 312.5,
      "v": 45
    },
    {
      "midi": 50,
      "hit": false,
      "t": 120703.125,
      "d": 444.3359375,
      "v": 52
    },
    {
      "midi": 57,
      "hit": false,
      "t": 120937.5,
      "d": 380.859375,
      "v": 75
    },
    {
      "midi": 66,
      "hit": false,
      "t": 120937.5,
      "d": 747.0703125,
      "v": 100
    },
    {
      "midi": 57,
      "hit": false,
      "t": 121406.25,
      "d": 180.6640625,
      "v": 20
    },
    {
      "midi": 50,
      "hit": false,
      "t": 121406.25,
      "d": 332.03125,
      "v": 53
    },
    {
      "midi": 57,
      "hit": false,
      "t": 121875,
      "d": 791.015625,
      "v": 70
    },
    {
      "midi": 61,
      "hit": false,
      "t": 121875,
      "d": 1210.9375,
      "v": 84
    },
    {
      "midi": 47,
      "hit": false,
      "t": 121875,
      "d": 1264.6484375,
      "v": 66
    },
    {
      "midi": 64,
      "hit": false,
      "t": 121875,
      "d": 1816.40625,
      "v": 78
    },
    {
      "midi": 57,
      "hit": false,
      "t": 122812.5,
      "d": 791.015625,
      "v": 60
    },
    {
      "midi": 47,
      "hit": false,
      "t": 123281.25,
      "d": 356.4453125,
      "v": 39
    },
    {
      "midi": 61,
      "hit": false,
      "t": 123281.25,
      "d": 385.7421875,
      "v": 35
    },
    {
      "midi": 57,
      "hit": false,
      "t": 123750,
      "d": 322.265625,
      "v": 55
    },
    {
      "midi": 47,
      "hit": false,
      "t": 123750,
      "d": 1093.75,
      "v": 46
    },
    {
      "midi": 62,
      "hit": false,
      "t": 123750,
      "d": 1718.75,
      "v": 67
    },
    {
      "midi": 66,
      "hit": false,
      "t": 123750,
      "d": 1718.75,
      "v": 68
    },
    {
      "midi": 57,
      "hit": false,
      "t": 124218.75,
      "d": 747.0703125,
      "v": 37
    },
    {
      "midi": 69,
      "hit": false,
      "t": 124687.5,
      "d": 727.5390625,
      "v": 67
    },
    {
      "midi": 57,
      "hit": false,
      "t": 125156.25,
      "d": 307.6171875,
      "v": 42
    },
    {
      "midi": 47,
      "hit": false,
      "t": 125156.25,
      "d": 312.5,
      "v": 41
    },
    {
      "midi": 67,
      "hit": false,
      "t": 125625,
      "d": 869.140625,
      "v": 63
    },
    {
      "midi": 62,
      "hit": false,
      "t": 125625,
      "d": 913.0859375,
      "v": 74
    },
    {
      "midi": 59,
      "hit": false,
      "t": 125625,
      "d": 1245.1171875,
      "v": 67
    },
    {
      "midi": 52,
      "hit": false,
      "t": 125625,
      "d": 1816.40625,
      "v": 52
    },
    {
      "midi": 62,
      "hit": false,
      "t": 126562.5,
      "d": 834.9609375,
      "v": 59
    },
    {
      "midi": 67,
      "hit": false,
      "t": 126562.5,
      "d": 1767.578125,
      "v": 57
    },
    {
      "midi": 59,
      "hit": false,
      "t": 127031.25,
      "d": 805.6640625,
      "v": 37
    },
    {
      "midi": 62,
      "hit": false,
      "t": 127500,
      "d": 839.84375,
      "v": 74
    },
    {
      "midi": 50,
      "hit": false,
      "t": 127500,
      "d": 1762.6953125,
      "v": 58
    },
    {
      "midi": 59,
      "hit": false,
      "t": 127968.75,
      "d": 825.1953125,
      "v": 36
    },
    {
      "midi": 67,
      "hit": false,
      "t": 128437.5,
      "d": 795.8984375,
      "v": 72
    },
    {
      "midi": 62,
      "hit": false,
      "t": 128437.5,
      "d": 820.3125,
      "v": 91
    },
    {
      "midi": 59,
      "hit": false,
      "t": 128906.25,
      "d": 380.859375,
      "v": 40
    },
    {
      "midi": 62,
      "hit": false,
      "t": 129375,
      "d": 844.7265625,
      "v": 81
    },
    {
      "midi": 69,
      "hit": false,
      "t": 129375,
      "d": 1254.8828125,
      "v": 68
    },
    {
      "midi": 45,
      "hit": false,
      "t": 129375,
      "d": 1538.0859375,
      "v": 55
    },
    {
      "midi": 64,
      "hit": false,
      "t": 129375,
      "d": 1777.34375,
      "v": 68
    },
    {
      "midi": 57,
      "hit": false,
      "t": 129843.75,
      "d": 1704.1015625,
      "v": 44
    },
    {
      "midi": 62,
      "hit": false,
      "t": 130312.5,
      "d": 761.71875,
      "v": 73
    },
    {
      "midi": 69,
      "hit": false,
      "t": 130781.25,
      "d": 527.34375,
      "v": 54
    },
    {
      "midi": 45,
      "hit": false,
      "t": 131250,
      "d": 551.7578125,
      "v": 53
    },
    {
      "midi": 61,
      "hit": false,
      "t": 131250,
      "d": 800.78125,
      "v": 77
    },
    {
      "midi": 64,
      "hit": false,
      "t": 131250,
      "d": 825.1953125,
      "v": 54
    },
    {
      "midi": 57,
      "hit": false,
      "t": 131718.75,
      "d": 332.03125,
      "v": 42
    },
    {
      "midi": 45,
      "hit": false,
      "t": 131953.125,
      "d": 546.875,
      "v": 63
    },
    {
      "midi": 57,
      "hit": false,
      "t": 132187.5,
      "d": 766.6015625,
      "v": 75
    },
    {
      "midi": 61,
      "hit": false,
      "t": 132187.5,
      "d": 786.1328125,
      "v": 93
    },
    {
      "midi": 64,
      "hit": false,
      "t": 132187.5,
      "d": 834.9609375,
      "v": 79
    },
    {
      "midi": 45,
      "hit": false,
      "t": 132656.25,
      "d": 380.859375,
      "v": 66
    },
    {
      "midi": 57,
      "hit": false,
      "t": 133125,
      "d": 869.140625,
      "v": 67
    },
    {
      "midi": 60,
      "hit": false,
      "t": 133125,
      "d": 898.4375,
      "v": 64
    },
    {
      "midi": 64,
      "hit": false,
      "t": 133125,
      "d": 898.4375,
      "v": 55
    },
    {
      "midi": 54,
      "hit": false,
      "t": 133125,
      "d": 1777.34375,
      "v": 72
    },
    {
      "midi": 57,
      "hit": false,
      "t": 134062.5,
      "d": 776.3671875,
      "v": 57
    },
    {
      "midi": 64,
      "hit": false,
      "t": 134062.5,
      "d": 800.78125,
      "v": 51
    },
    {
      "midi": 60,
      "hit": false,
      "t": 134062.5,
      "d": 805.6640625,
      "v": 44
    },
    {
      "midi": 57,
      "hit": false,
      "t": 135000,
      "d": 346.6796875,
      "v": 40
    },
    {
      "midi": 47,
      "hit": false,
      "t": 135000,
      "d": 541.9921875,
      "v": 42
    },
    {
      "midi": 59,
      "hit": false,
      "t": 135000,
      "d": 644.53125,
      "v": 49
    },
    {
      "midi": 63,
      "hit": false,
      "t": 135000,
      "d": 771.484375,
      "v": 42
    },
    {
      "midi": 57,
      "hit": false,
      "t": 135468.75,
      "d": 297.8515625,
      "v": 41
    },
    {
      "midi": 47,
      "hit": false,
      "t": 135703.125,
      "d": 473.6328125,
      "v": 56
    },
    {
      "midi": 57,
      "hit": false,
      "t": 135937.5,
      "d": 854.4921875,
      "v": 59
    },
    {
      "midi": 63,
      "hit": false,
      "t": 135937.5,
      "d": 864.2578125,
      "v": 100
    },
    {
      "midi": 66,
      "hit": false,
      "t": 135937.5,
      "d": 864.2578125,
      "v": 77
    },
    {
      "midi": 47,
      "hit": false,
      "t": 136406.25,
      "d": 395.5078125,
      "v": 45
    },
    {
      "midi": 67,
      "hit": false,
      "t": 136875,
      "d": 864.2578125,
      "v": 56
    },
    {
      "midi": 62,
      "hit": false,
      "t": 136875,
      "d": 883.7890625,
      "v": 58
    },
    {
      "midi": 52,
      "hit": false,
      "t": 136875,
      "d": 1157.2265625,
      "v": 49
    },
    {
      "midi": 62,
      "hit": false,
      "t": 137812.5,
      "d": 1669.921875,
      "v": 52
    },
    {
      "midi": 67,
      "hit": false,
      "t": 137812.5,
      "d": 1684.5703125,
      "v": 48
    },
    {
      "midi": 52,
      "hit": false,
      "t": 138281.25,
      "d": 1049.8046875,
      "v": 38
    },
    {
      "midi": 59,
      "hit": false,
      "t": 138750,
      "d": 307.6171875,
      "v": 17
    },
    {
      "midi": 59,
      "hit": false,
      "t": 139218.75,
      "d": 258.7890625,
      "v": 38
    },
    {
      "midi": 52,
      "hit": false,
      "t": 139453.125,
      "d": 454.1015625,
      "v": 57
    },
    {
      "midi": 59,
      "hit": false,
      "t": 139687.5,
      "d": 561.5234375,
      "v": 69
    },
    {
      "midi": 67,
      "hit": false,
      "t": 139687.5,
      "d": 668.9453125,
      "v": 63
    },
    {
      "midi": 62,
      "hit": false,
      "t": 139687.5,
      "d": 688.4765625,
      "v": 76
    },
    {
      "midi": 52,
      "hit": false,
      "t": 140156.25,
      "d": 356.4453125,
      "v": 43
    },
    {
      "midi": 58,
      "hit": false,
      "t": 140625,
      "d": 830.078125,
      "v": 53
    },
    {
      "midi": 62,
      "hit": false,
      "t": 140625,
      "d": 874.0234375,
      "v": 55
    },
    {
      "midi": 67,
      "hit": false,
      "t": 140625,
      "d": 888.671875,
      "v": 50
    },
    {
      "midi": 43,
      "hit": false,
      "t": 140625,
      "d": 1528.3203125,
      "v": 55
    },
    {
      "midi": 58,
      "hit": false,
      "t": 141562.5,
      "d": 351.5625,
      "v": 56
    },
    {
      "midi": 62,
      "hit": false,
      "t": 141562.5,
      "d": 1552.734375,
      "v": 53
    },
    {
      "midi": 67,
      "hit": false,
      "t": 141562.5,
      "d": 1552.734375,
      "v": 50
    },
    {
      "midi": 58,
      "hit": false,
      "t": 142031.25,
      "d": 683.59375,
      "v": 36
    },
    {
      "midi": 55,
      "hit": false,
      "t": 142500,
      "d": 561.5234375,
      "v": 53
    },
    {
      "midi": 58,
      "hit": false,
      "t": 142968.75,
      "d": 268.5546875,
      "v": 36
    },
    {
      "midi": 55,
      "hit": false,
      "t": 143203.125,
      "d": 405.2734375,
      "v": 50
    },
    {
      "midi": 58,
      "hit": false,
      "t": 143437.5,
      "d": 522.4609375,
      "v": 64
    },
    {
      "midi": 62,
      "hit": false,
      "t": 143437.5,
      "d": 585.9375,
      "v": 64
    },
    {
      "midi": 67,
      "hit": false,
      "t": 143437.5,
      "d": 585.9375,
      "v": 55
    },
    {
      "midi": 55,
      "hit": false,
      "t": 143906.25,
      "d": 288.0859375,
      "v": 49
    },
    {
      "midi": 57,
      "hit": false,
      "t": 144375,
      "d": 380.859375,
      "v": 60
    },
    {
      "midi": 62,
      "hit": false,
      "t": 144375,
      "d": 1225.5859375,
      "v": 69
    },
    {
      "midi": 66,
      "hit": false,
      "t": 144375,
      "d": 1455.078125,
      "v": 64
    },
    {
      "midi": 50,
      "hit": false,
      "t": 144375,
      "d": 1772.4609375,
      "v": 60
    },
    {
      "midi": 57,
      "hit": false,
      "t": 144843.75,
      "d": 541.9921875,
      "v": 28
    },
    {
      "midi": 57,
      "hit": false,
      "t": 145546.875,
      "d": 629.8828125,
      "v": 42
    },
    {
      "midi": 62,
      "hit": false,
      "t": 145781.25,
      "d": 332.03125,
      "v": 43
    },
    {
      "midi": 66,
      "hit": false,
      "t": 146015.625,
      "d": 200.1953125,
      "v": 39
    },
    {
      "midi": 57,
      "hit": false,
      "t": 146250,
      "d": 302.734375,
      "v": 61
    },
    {
      "midi": 47,
      "hit": false,
      "t": 146250,
      "d": 507.8125,
      "v": 62
    },
    {
      "midi": 61,
      "hit": false,
      "t": 146250,
      "d": 791.015625,
      "v": 84
    },
    {
      "midi": 64,
      "hit": false,
      "t": 146250,
      "d": 830.078125,
      "v": 67
    },
    {
      "midi": 57,
      "hit": false,
      "t": 146718.75,
      "d": 322.265625,
      "v": 39
    },
    {
      "midi": 47,
      "hit": false,
      "t": 146953.125,
      "d": 532.2265625,
      "v": 55
    },
    {
      "midi": 57,
      "hit": false,
      "t": 147187.5,
      "d": 737.3046875,
      "v": 66
    },
    {
      "midi": 66,
      "hit": false,
      "t": 147187.5,
      "d": 776.3671875,
      "v": 77
    },
    {
      "midi": 62,
      "hit": false,
      "t": 147187.5,
      "d": 830.078125,
      "v": 71
    },
    {
      "midi": 47,
      "hit": false,
      "t": 147656.25,
      "d": 336.9140625,
      "v": 46
    },
    {
      "midi": 65,
      "hit": false,
      "t": 148125,
      "d": 63.4765625,
      "v": 55
    },
    {
      "midi": 59,
      "hit": false,
      "t": 148125,
      "d": 864.2578125,
      "v": 59
    },
    {
      "midi": 67,
      "hit": false,
      "t": 148125,
      "d": 874.0234375,
      "v": 49
    },
    {
      "midi": 64,
      "hit": false,
      "t": 148125,
      "d": 878.90625,
      "v": 48
    },
    {
      "midi": 62,
      "hit": false,
      "t": 148125,
      "d": 888.671875,
      "v": 71
    },
    {
      "midi": 52,
      "hit": false,
      "t": 148125,
      "d": 1127.9296875,
      "v": 50
    },
    {
      "midi": 59,
      "hit": false,
      "t": 149062.5,
      "d": 751.953125,
      "v": 40
    },
    {
      "midi": 67,
      "hit": false,
      "t": 149062.5,
      "d": 800.78125,
      "v": 42
    },
    {
      "midi": 64,
      "hit": false,
      "t": 149062.5,
      "d": 825.1953125,
      "v": 43
    },
    {
      "midi": 62,
      "hit": false,
      "t": 149062.5,
      "d": 844.7265625,
      "v": 43
    },
    {
      "midi": 52,
      "hit": false,
      "t": 149531.25,
      "d": 361.328125,
      "v": 43
    },
    {
      "midi": 64,
      "hit": false,
      "t": 150000,
      "d": 717.7734375,
      "v": 54
    },
    {
      "midi": 62,
      "hit": false,
      "t": 150000,
      "d": 722.65625,
      "v": 57
    },
    {
      "midi": 69,
      "hit": false,
      "t": 150000,
      "d": 766.6015625,
      "v": 52
    },
    {
      "midi": 45,
      "hit": false,
      "t": 150000,
      "d": 1171.875,
      "v": 51
    },
    {
      "midi": 57,
      "hit": false,
      "t": 150703.125,
      "d": 595.703125,
      "v": 59
    },
    {
      "midi": 64,
      "hit": false,
      "t": 150937.5,
      "d": 625,
      "v": 69
    },
    {
      "midi": 69,
      "hit": false,
      "t": 150937.5,
      "d": 776.3671875,
      "v": 64
    },
    {
      "midi": 45,
      "hit": false,
      "t": 151406.25,
      "d": 346.6796875,
      "v": 52
    },
    {
      "midi": 50,
      "hit": false,
      "t": 151875,
      "d": 859.375,
      "v": 62
    },
    {
      "midi": 57,
      "hit": false,
      "t": 151875,
      "d": 1010.7421875,
      "v": 64
    },
    {
      "midi": 62,
      "hit": false,
      "t": 151875,
      "d": 1259.765625,
      "v": 74
    },
    {
      "midi": 66,
      "hit": false,
      "t": 151875,
      "d": 1503.90625,
      "v": 72
    },
    {
      "midi": 50,
      "hit": false,
      "t": 152812.5,
      "d": 761.71875,
      "v": 38
    },
    {
      "midi": 57,
      "hit": false,
      "t": 153046.875,
      "d": 986.328125,
      "v": 33
    },
    {
      "midi": 62,
      "hit": false,
      "t": 153281.25,
      "d": 405.2734375,
      "v": 48
    },
    {
      "midi": 66,
      "hit": false,
      "t": 153515.625,
      "d": 214.84375,
      "v": 45
    },
    {
      "midi": 50,
      "hit": false,
      "t": 153750,
      "d": 541.9921875,
      "v": 56
    },
    {
      "midi": 60,
      "hit": false,
      "t": 153750,
      "d": 766.6015625,
      "v": 56
    },
    {
      "midi": 66,
      "hit": false,
      "t": 153750,
      "d": 810.546875,
      "v": 56
    },
    {
      "midi": 57,
      "hit": false,
      "t": 154218.75,
      "d": 1098.6328125,
      "v": 43
    },
    {
      "midi": 50,
      "hit": false,
      "t": 154453.125,
      "d": 532.2265625,
      "v": 58
    },
    {
      "midi": 60,
      "hit": false,
      "t": 154687.5,
      "d": 673.828125,
      "v": 67
    },
    {
      "midi": 69,
      "hit": false,
      "t": 154687.5,
      "d": 678.7109375,
      "v": 70
    },
    {
      "midi": 66,
      "hit": false,
      "t": 154687.5,
      "d": 683.59375,
      "v": 77
    },
    {
      "midi": 50,
      "hit": false,
      "t": 155156.25,
      "d": 205.078125,
      "v": 49
    },
    {
      "midi": 59,
      "hit": false,
      "t": 155625,
      "d": 908.203125,
      "v": 64
    },
    {
      "midi": 43,
      "hit": false,
      "t": 155625,
      "d": 1484.375,
      "v": 54
    },
    {
      "midi": 62,
      "hit": false,
      "t": 155625,
      "d": 1689.453125,
      "v": 62
    },
    {
      "midi": 67,
      "hit": false,
      "t": 155625,
      "d": 1767.578125,
      "v": 54
    },
    {
      "midi": 55,
      "hit": false,
      "t": 156562.5,
      "d": 1484.375,
      "v": 53
    },
    {
      "midi": 59,
      "hit": false,
      "t": 157031.25,
      "d": 288.0859375,
      "v": 49
    },
    {
      "midi": 43,
      "hit": false,
      "t": 157265.625,
      "d": 1513.671875,
      "v": 56
    },
    {
      "midi": 57,
      "hit": false,
      "t": 157500,
      "d": 341.796875,
      "v": 66
    },
    {
      "midi": 61,
      "hit": false,
      "t": 157500,
      "d": 1821.2890625,
      "v": 77
    },
    {
      "midi": 64,
      "hit": false,
      "t": 157500,
      "d": 1831.0546875,
      "v": 60
    },
    {
      "midi": 57,
      "hit": false,
      "t": 157968.75,
      "d": 820.3125,
      "v": 41
    },
    {
      "midi": 55,
      "hit": false,
      "t": 158203.125,
      "d": 810.546875,
      "v": 48
    },
    {
      "midi": 69,
      "hit": false,
      "t": 158437.5,
      "d": 810.546875,
      "v": 68
    },
    {
      "midi": 57,
      "hit": false,
      "t": 158906.25,
      "d": 410.15625,
      "v": 42
    },
    {
      "midi": 57,
      "hit": false,
      "t": 159375,
      "d": 1000.9765625,
      "v": 64
    },
    {
      "midi": 42,
      "hit": false,
      "t": 159375,
      "d": 1459.9609375,
      "v": 59
    },
    {
      "midi": 61,
      "hit": false,
      "t": 159375,
      "d": 1674.8046875,
      "v": 57
    },
    {
      "midi": 64,
      "hit": false,
      "t": 159375,
      "d": 1865.234375,
      "v": 47
    },
    {
      "midi": 54,
      "hit": false,
      "t": 160312.5,
      "d": 703.125,
      "v": 49
    },
    {
      "midi": 57,
      "hit": false,
      "t": 160781.25,
      "d": 434.5703125,
      "v": 42
    },
    {
      "midi": 42,
      "hit": false,
      "t": 161015.625,
      "d": 273.4375,
      "v": 39
    },
    {
      "midi": 57,
      "hit": false,
      "t": 161250,
      "d": 351.5625,
      "v": 39
    },
    {
      "midi": 59,
      "hit": false,
      "t": 161250,
      "d": 864.2578125,
      "v": 55
    },
    {
      "midi": 62,
      "hit": false,
      "t": 161250,
      "d": 883.7890625,
      "v": 53
    },
    {
      "midi": 47,
      "hit": false,
      "t": 161250,
      "d": 1142.578125,
      "v": 44
    },
    {
      "midi": 57,
      "hit": false,
      "t": 161718.75,
      "d": 429.6875,
      "v": 34
    },
    {
      "midi": 57,
      "hit": false,
      "t": 162187.5,
      "d": 288.0859375,
      "v": 54
    },
    {
      "midi": 66,
      "hit": false,
      "t": 162187.5,
      "d": 805.6640625,
      "v": 70
    },
    {
      "midi": 62,
      "hit": false,
      "t": 162187.5,
      "d": 820.3125,
      "v": 67
    },
    {
      "midi": 57,
      "hit": false,
      "t": 162656.25,
      "d": 336.9140625,
      "v": 37
    },
    {
      "midi": 47,
      "hit": false,
      "t": 162890.625,
      "d": 224.609375,
      "v": 40
    },
    {
      "midi": 62,
      "hit": false,
      "t": 163125,
      "d": 874.0234375,
      "v": 57
    },
    {
      "midi": 52,
      "hit": false,
      "t": 163125,
      "d": 1142.578125,
      "v": 45
    },
    {
      "midi": 59,
      "hit": false,
      "t": 163125,
      "d": 1279.296875,
      "v": 52
    },
    {
      "midi": 67,
      "hit": false,
      "t": 163125,
      "d": 1879.8828125,
      "v": 52
    },
    {
      "midi": 62,
      "hit": false,
      "t": 164062.5,
      "d": 776.3671875,
      "v": 50
    },
    {
      "midi": 59,
      "hit": false,
      "t": 164531.25,
      "d": 283.203125,
      "v": 44
    },
    {
      "midi": 52,
      "hit": false,
      "t": 164531.25,
      "d": 405.2734375,
      "v": 40
    },
    {
      "midi": 57,
      "hit": false,
      "t": 165000,
      "d": 361.328125,
      "v": 51
    },
    {
      "midi": 45,
      "hit": false,
      "t": 165000,
      "d": 561.5234375,
      "v": 51
    },
    {
      "midi": 64,
      "hit": false,
      "t": 165000,
      "d": 859.375,
      "v": 44
    },
    {
      "midi": 62,
      "hit": false,
      "t": 165000,
      "d": 874.0234375,
      "v": 55
    },
    {
      "midi": 57,
      "hit": false,
      "t": 165468.75,
      "d": 332.03125,
      "v": 36
    },
    {
      "midi": 45,
      "hit": false,
      "t": 165703.125,
      "d": 961.9140625,
      "v": 51
    },
    {
      "midi": 57,
      "hit": false,
      "t": 165937.5,
      "d": 683.59375,
      "v": 55
    },
    {
      "midi": 64,
      "hit": false,
      "t": 165937.5,
      "d": 756.8359375,
      "v": 48
    },
    {
      "midi": 46,
      "hit": false,
      "t": 180703.125,
      "d": 717.7734375,
      "v": 72
    },
    {
      "midi": 45,
      "hit": false,
      "t": 181406.25,
      "d": 190.4296875,
      "v": 89
    },
    {
      "midi": 57,
      "hit": false,
      "t": 198750,
      "d": 839.84375,
      "v": 66
    },
    {
      "midi": 50,
      "hit": false,
      "t": 198750,
      "d": 1245.1171875,
      "v": 76
    },
    {
      "midi": 62,
      "hit": false,
      "t": 198750,
      "d": 2202.1484375,
      "v": 84
    },
    {
      "midi": 66,
      "hit": false,
      "t": 198750,
      "d": 2421.875,
      "v": 72
    },
    {
      "midi": 57,
      "hit": false,
      "t": 199687.5,
      "d": 590.8203125,
      "v": 39
    },
    {
      "midi": 50,
      "hit": false,
      "t": 200156.25,
      "d": 351.5625,
      "v": 40
    },
    {
      "midi": 57,
      "hit": false,
      "t": 200390.625,
      "d": 317.3828125,
      "v": 36
    },
    {
      "midi": 50,
      "hit": false,
      "t": 200625,
      "d": 1225.5859375,
      "v": 48
    },
    {
      "midi": 57,
      "hit": false,
      "t": 200859.375,
      "d": 1010.7421875,
      "v": 42
    },
    {
      "midi": 64,
      "hit": false,
      "t": 201093.75,
      "d": 107.421875,
      "v": 35
    },
    {
      "midi": 62,
      "hit": false,
      "t": 201093.75,
      "d": 366.2109375,
      "v": 40
    },
    {
      "midi": 66,
      "hit": false,
      "t": 201328.125,
      "d": 117.1875,
      "v": 36
    },
    {
      "midi": 66,
      "hit": false,
      "t": 201562.5,
      "d": 761.71875,
      "v": 54
    },
    {
      "midi": 62,
      "hit": false,
      "t": 201562.5,
      "d": 815.4296875,
      "v": 59
    },
    {
      "midi": 50,
      "hit": false,
      "t": 202031.25,
      "d": 351.5625,
      "v": 45
    },
    {
      "midi": 57,
      "hit": false,
      "t": 202031.25,
      "d": 351.5625,
      "v": 50
    },
    {
      "midi": 47,
      "hit": false,
      "t": 202500,
      "d": 1206.0546875,
      "v": 67
    },
    {
      "midi": 57,
      "hit": false,
      "t": 202500,
      "d": 1220.703125,
      "v": 72
    },
    {
      "midi": 64,
      "hit": false,
      "t": 202500,
      "d": 1718.75,
      "v": 78
    },
    {
      "midi": 61,
      "hit": false,
      "t": 202500,
      "d": 1791.9921875,
      "v": 84
    },
    {
      "midi": 69,
      "hit": false,
      "t": 203437.5,
      "d": 898.4375,
      "v": 74
    },
    {
      "midi": 57,
      "hit": false,
      "t": 203906.25,
      "d": 434.5703125,
      "v": 50
    },
    {
      "midi": 47,
      "hit": false,
      "t": 203906.25,
      "d": 1748.046875,
      "v": 41
    },
    {
      "midi": 57,
      "hit": false,
      "t": 204375,
      "d": 1704.1015625,
      "v": 67
    },
    {
      "midi": 66,
      "hit": false,
      "t": 204375,
      "d": 1733.3984375,
      "v": 84
    },
    {
      "midi": 62,
      "hit": false,
      "t": 204375,
      "d": 1752.9296875,
      "v": 89
    },
    {
      "midi": 69,
      "hit": false,
      "t": 205312.5,
      "d": 761.71875,
      "v": 68
    },
    {
      "midi": 47,
      "hit": false,
      "t": 205781.25,
      "d": 361.328125,
      "v": 51
    },
    {
      "midi": 59,
      "hit": false,
      "t": 206250,
      "d": 1284.1796875,
      "v": 74
    },
    {
      "midi": 52,
      "hit": false,
      "t": 206250,
      "d": 2402.34375,
      "v": 67
    },
    {
      "midi": 62,
      "hit": false,
      "t": 206250,
      "d": 2651.3671875,
      "v": 89
    },
    {
      "midi": 67,
      "hit": false,
      "t": 206250,
      "d": 3671.875,
      "v": 73
    },
    {
      "midi": 59,
      "hit": false,
      "t": 207656.25,
      "d": 834.9609375,
      "v": 40
    },
    {
      "midi": 71,
      "hit": false,
      "t": 208125,
      "d": 1035.15625,
      "v": 79
    },
    {
      "midi": 59,
      "hit": false,
      "t": 208593.75,
      "d": 825.1953125,
      "v": 38
    },
    {
      "midi": 52,
      "hit": false,
      "t": 208828.125,
      "d": 1103.515625,
      "v": 51
    },
    {
      "midi": 62,
      "hit": false,
      "t": 209062.5,
      "d": 834.9609375,
      "v": 91
    },
    {
      "midi": 59,
      "hit": false,
      "t": 209531.25,
      "d": 385.7421875,
      "v": 42
    },
    {
      "midi": 62,
      "hit": false,
      "t": 210000,
      "d": 1787.109375,
      "v": 73
    },
    {
      "midi": 64,
      "hit": false,
      "t": 210000,
      "d": 1821.2890625,
      "v": 59
    },
    {
      "midi": 45,
      "hit": false,
      "t": 210000,
      "d": 3007.8125,
      "v": 58
    },
    {
      "midi": 57,
      "hit": false,
      "t": 210468.75,
      "d": 678.7109375,
      "v": 40
    },
    {
      "midi": 69,
      "hit": false,
      "t": 210937.5,
      "d": 1650.390625,
      "v": 79
    },
    {
      "midi": 57,
      "hit": false,
      "t": 211406.25,
      "d": 668.9453125,
      "v": 63
    },
    {
      "midi": 64,
      "hit": false,
      "t": 211875,
      "d": 854.4921875,
      "v": 55
    },
    {
      "midi": 61,
      "hit": false,
      "t": 211875,
      "d": 864.2578125,
      "v": 82
    },
    {
      "midi": 57,
      "hit": false,
      "t": 212578.125,
      "d": 629.8828125,
      "v": 68
    },
    {
      "midi": 61,
      "hit": false,
      "t": 212812.5,
      "d": 590.8203125,
      "v": 49
    },
    {
      "midi": 69,
      "hit": false,
      "t": 212812.5,
      "d": 854.4921875,
      "v": 81
    },
    {
      "midi": 45,
      "hit": false,
      "t": 213281.25,
      "d": 444.3359375,
      "v": 55
    },
    {
      "midi": 54,
      "hit": false,
      "t": 213750,
      "d": 1103.515625,
      "v": 77
    },
    {
      "midi": 57,
      "hit": false,
      "t": 213750,
      "d": 1152.34375,
      "v": 68
    },
    {
      "midi": 60,
      "hit": false,
      "t": 213750,
      "d": 1459.9609375,
      "v": 70
    },
    {
      "midi": 64,
      "hit": false,
      "t": 213750,
      "d": 1523.4375,
      "v": 70
    },
    {
      "midi": 54,
      "hit": false,
      "t": 214921.875,
      "d": 659.1796875,
      "v": 41
    },
    {
      "midi": 57,
      "hit": false,
      "t": 215156.25,
      "d": 869.140625,
      "v": 42
    },
    {
      "midi": 64,
      "hit": false,
      "t": 215390.625,
      "d": 131.8359375,
      "v": 45
    },
    {
      "midi": 63,
      "hit": false,
      "t": 215625,
      "d": 839.84375,
      "v": 79
    },
    {
      "midi": 59,
      "hit": false,
      "t": 215625,
      "d": 859.375,
      "v": 68
    },
    {
      "midi": 47,
      "hit": false,
      "t": 215625,
      "d": 1284.1796875,
      "v": 54
    },
    {
      "midi": 57,
      "hit": false,
      "t": 216093.75,
      "d": 766.6015625,
      "v": 44
    },
    {
      "midi": 66,
      "hit": false,
      "t": 216562.5,
      "d": 834.9609375,
      "v": 86
    },
    {
      "midi": 63,
      "hit": false,
      "t": 216562.5,
      "d": 844.7265625,
      "v": 86
    },
    {
      "midi": 57,
      "hit": false,
      "t": 217031.25,
      "d": 351.5625,
      "v": 46
    },
    {
      "midi": 47,
      "hit": false,
      "t": 217031.25,
      "d": 400.390625,
      "v": 39
    },
    {
      "midi": 59,
      "hit": false,
      "t": 217500,
      "d": 874.0234375,
      "v": 74
    },
    {
      "midi": 64,
      "hit": false,
      "t": 217500,
      "d": 1269.53125,
      "v": 81
    },
    {
      "midi": 52,
      "hit": false,
      "t": 217500,
      "d": 1445.3125,
      "v": 55
    },
    {
      "midi": 69,
      "hit": false,
      "t": 217500,
      "d": 1796.875,
      "v": 76
    },
    {
      "midi": 59,
      "hit": false,
      "t": 218437.5,
      "d": 708.0078125,
      "v": 42
    },
    {
      "midi": 64,
      "hit": false,
      "t": 218906.25,
      "d": 390.625,
      "v": 39
    },
    {
      "midi": 52,
      "hit": false,
      "t": 219140.625,
      "d": 1323.2421875,
      "v": 44
    },
    {
      "midi": 59,
      "hit": false,
      "t": 219375,
      "d": 1494.140625,
      "v": 61
    },
    {
      "midi": 64,
      "hit": false,
      "t": 219375,
      "d": 1567.3828125,
      "v": 51
    },
    {
      "midi": 67,
      "hit": false,
      "t": 219375,
      "d": 1757.8125,
      "v": 49
    },
    {
      "midi": 52,
      "hit": false,
      "t": 220781.25,
      "d": 463.8671875,
      "v": 42
    },
    {
      "midi": 55,
      "hit": false,
      "t": 221250,
      "d": 917.96875,
      "v": 47
    },
    {
      "midi": 58,
      "hit": false,
      "t": 221250,
      "d": 1269.53125,
      "v": 53
    },
    {
      "midi": 62,
      "hit": false,
      "t": 221250,
      "d": 1455.078125,
      "v": 57
    },
    {
      "midi": 67,
      "hit": false,
      "t": 221250,
      "d": 2617.1875,
      "v": 49
    },
    {
      "midi": 58,
      "hit": false,
      "t": 222656.25,
      "d": 908.203125,
      "v": 41
    },
    {
      "midi": 62,
      "hit": false,
      "t": 222890.625,
      "d": 898.4375,
      "v": 49
    },
    {
      "midi": 58,
      "hit": false,
      "t": 223593.75,
      "d": 117.1875,
      "v": 45
    },
    {
      "midi": 58,
      "hit": false,
      "t": 224062.5,
      "d": 346.6796875,
      "v": 84
    },
    {
      "midi": 67,
      "hit": false,
      "t": 224062.5,
      "d": 771.484375,
      "v": 71
    },
    {
      "midi": 62,
      "hit": false,
      "t": 224062.5,
      "d": 786.1328125,
      "v": 71
    },
    {
      "midi": 58,
      "hit": false,
      "t": 224531.25,
      "d": 234.375,
      "v": 46
    },
    {
      "midi": 57,
      "hit": false,
      "t": 225000,
      "d": 952.1484375,
      "v": 55
    },
    {
      "midi": 62,
      "hit": false,
      "t": 225000,
      "d": 1245.1171875,
      "v": 67
    },
    {
      "midi": 66,
      "hit": false,
      "t": 225000,
      "d": 1474.609375,
      "v": 71
    },
    {
      "midi": 50,
      "hit": false,
      "t": 225000,
      "d": 1801.7578125,
      "v": 61
    },
    {
      "midi": 57,
      "hit": false,
      "t": 226171.875,
      "d": 600.5859375,
      "v": 32
    },
    {
      "midi": 62,
      "hit": false,
      "t": 226406.25,
      "d": 297.8515625,
      "v": 46
    },
    {
      "midi": 66,
      "hit": false,
      "t": 226640.625,
      "d": 190.4296875,
      "v": 44
    },
    {
      "midi": 57,
      "hit": false,
      "t": 226875,
      "d": 371.09375,
      "v": 71
    },
    {
      "midi": 61,
      "hit": false,
      "t": 226875,
      "d": 893.5546875,
      "v": 86
    },
    {
      "midi": 64,
      "hit": false,
      "t": 226875,
      "d": 893.5546875,
      "v": 73
    },
    {
      "midi": 47,
      "hit": false,
      "t": 226875,
      "d": 1318.359375,
      "v": 57
    },
    {
      "midi": 57,
      "hit": false,
      "t": 227343.75,
      "d": 375.9765625,
      "v": 43
    },
    {
      "midi": 57,
      "hit": false,
      "t": 227812.5,
      "d": 756.8359375,
      "v": 65
    },
    {
      "midi": 66,
      "hit": false,
      "t": 227812.5,
      "d": 810.546875,
      "v": 80
    },
    {
      "midi": 62,
      "hit": false,
      "t": 227812.5,
      "d": 864.2578125,
      "v": 76
    },
    {
      "midi": 47,
      "hit": false,
      "t": 228281.25,
      "d": 375.9765625,
      "v": 43
    },
    {
      "midi": 59,
      "hit": false,
      "t": 228750,
      "d": 1279.296875,
      "v": 74
    },
    {
      "midi": 52,
      "hit": false,
      "t": 228750,
      "d": 1464.84375,
      "v": 59
    },
    {
      "midi": 64,
      "hit": false,
      "t": 228750,
      "d": 1860.3515625,
      "v": 67
    },
    {
      "midi": 68,
      "hit": false,
      "t": 229687.5,
      "d": 830.078125,
      "v": 58
    },
    {
      "midi": 59,
      "hit": false,
      "t": 230156.25,
      "d": 395.5078125,
      "v": 49
    },
    {
      "midi": 52,
      "hit": false,
      "t": 230390.625,
      "d": 161.1328125,
      "v": 35
    },
    {
      "midi": 59,
      "hit": false,
      "t": 230625,
      "d": 361.328125,
      "v": 62
    },
    {
      "midi": 52,
      "hit": false,
      "t": 230625,
      "d": 595.703125,
      "v": 56
    },
    {
      "midi": 62,
      "hit": false,
      "t": 230625,
      "d": 820.3125,
      "v": 64
    },
    {
      "midi": 68,
      "hit": false,
      "t": 230625,
      "d": 834.9609375,
      "v": 57
    },
    {
      "midi": 59,
      "hit": false,
      "t": 231093.75,
      "d": 332.03125,
      "v": 40
    },
    {
      "midi": 52,
      "hit": false,
      "t": 231328.125,
      "d": 478.515625,
      "v": 46
    },
    {
      "midi": 59,
      "hit": false,
      "t": 231562.5,
      "d": 839.84375,
      "v": 82
    },
    {
      "midi": 68,
      "hit": false,
      "t": 231562.5,
      "d": 854.4921875,
      "v": 74
    },
    {
      "midi": 62,
      "hit": false,
      "t": 231562.5,
      "d": 874.0234375,
      "v": 84
    },
    {
      "midi": 52,
      "hit": false,
      "t": 232031.25,
      "d": 424.8046875,
      "v": 50
    },
    {
      "midi": 69,
      "hit": false,
      "t": 232500,
      "d": 878.90625,
      "v": 58
    },
    {
      "midi": 62,
      "hit": false,
      "t": 232500,
      "d": 898.4375,
      "v": 71
    },
    {
      "midi": 64,
      "hit": false,
      "t": 232500,
      "d": 898.4375,
      "v": 63
    },
    {
      "midi": 45,
      "hit": false,
      "t": 232500,
      "d": 1069.3359375,
      "v": 57
    },
    {
      "midi": 57,
      "hit": false,
      "t": 232968.75,
      "d": 844.7265625,
      "v": 40
    },
    {
      "midi": 62,
      "hit": false,
      "t": 233437.5,
      "d": 781.25,
      "v": 61
    },
    {
      "midi": 69,
      "hit": false,
      "t": 233437.5,
      "d": 795.8984375,
      "v": 60
    },
    {
      "midi": 64,
      "hit": false,
      "t": 233437.5,
      "d": 825.1953125,
      "v": 62
    },
    {
      "midi": 57,
      "hit": false,
      "t": 233906.25,
      "d": 366.2109375,
      "v": 47
    },
    {
      "midi": 45,
      "hit": false,
      "t": 234140.625,
      "d": 791.015625,
      "v": 63
    },
    {
      "midi": 57,
      "hit": false,
      "t": 234375,
      "d": 297.8515625,
      "v": 71
    },
    {
      "midi": 61,
      "hit": false,
      "t": 234375,
      "d": 791.015625,
      "v": 82
    },
    {
      "midi": 64,
      "hit": false,
      "t": 234375,
      "d": 795.8984375,
      "v": 69
    },
    {
      "midi": 69,
      "hit": false,
      "t": 234375,
      "d": 795.8984375,
      "v": 63
    },
    {
      "midi": 57,
      "hit": false,
      "t": 234843.75,
      "d": 332.03125,
      "v": 57
    },
    {
      "midi": 45,
      "hit": false,
      "t": 235078.125,
      "d": 419.921875,
      "v": 76
    },
    {
      "midi": 57,
      "hit": false,
      "t": 235312.5,
      "d": 634.765625,
      "v": 79
    },
    {
      "midi": 64,
      "hit": false,
      "t": 235312.5,
      "d": 654.296875,
      "v": 87
    },
    {
      "midi": 69,
      "hit": false,
      "t": 235312.5,
      "d": 781.25,
      "v": 74
    },
    {
      "midi": 45,
      "hit": false,
      "t": 235781.25,
      "d": 400.390625,
      "v": 75
    },
    {
      "midi": 57,
      "hit": false,
      "t": 236250,
      "d": 839.84375,
      "v": 71
    },
    {
      "midi": 50,
      "hit": false,
      "t": 236250,
      "d": 1259.765625,
      "v": 69
    },
    {
      "midi": 62,
      "hit": false,
      "t": 236250,
      "d": 2211.9140625,
      "v": 82
    },
    {
      "midi": 66,
      "hit": false,
      "t": 236250,
      "d": 2656.25,
      "v": 80
    },
    {
      "midi": 57,
      "hit": false,
      "t": 237187.5,
      "d": 478.515625,
      "v": 40
    },
    {
      "midi": 50,
      "hit": false,
      "t": 237656.25,
      "d": 297.8515625,
      "v": 38
    },
    {
      "midi": 57,
      "hit": false,
      "t": 237890.625,
      "d": 351.5625,
      "v": 34
    },
    {
      "midi": 50,
      "hit": false,
      "t": 238125,
      "d": 639.6484375,
      "v": 40
    },
    {
      "midi": 57,
      "hit": false,
      "t": 238359.375,
      "d": 361.328125,
      "v": 37
    },
    {
      "midi": 62,
      "hit": false,
      "t": 238593.75,
      "d": 312.5,
      "v": 45
    },
    {
      "midi": 50,
      "hit": false,
      "t": 238828.125,
      "d": 444.3359375,
      "v": 52
    },
    {
      "midi": 57,
      "hit": false,
      "t": 239062.5,
      "d": 380.859375,
      "v": 75
    },
    {
      "midi": 66,
      "hit": false,
      "t": 239062.5,
      "d": 747.0703125,
      "v": 100
    },
    {
      "midi": 57,
      "hit": false,
      "t": 239531.25,
      "d": 180.6640625,
      "v": 20
    },
    {
      "midi": 50,
      "hit": false,
      "t": 239531.25,
      "d": 332.03125,
      "v": 53
    },
    {
      "midi": 57,
      "hit": false,
      "t": 240000,
      "d": 791.015625,
      "v": 70
    },
    {
      "midi": 61,
      "hit": false,
      "t": 240000,
      "d": 1210.9375,
      "v": 84
    },
    {
      "midi": 47,
      "hit": false,
      "t": 240000,
      "d": 1264.6484375,
      "v": 66
    },
    {
      "midi": 64,
      "hit": false,
      "t": 240000,
      "d": 1816.40625,
      "v": 78
    },
    {
      "midi": 57,
      "hit": false,
      "t": 240937.5,
      "d": 791.015625,
      "v": 60
    },
    {
      "midi": 47,
      "hit": false,
      "t": 241406.25,
      "d": 356.4453125,
      "v": 39
    },
    {
      "midi": 61,
      "hit": false,
      "t": 241406.25,
      "d": 385.7421875,
      "v": 35
    },
    {
      "midi": 57,
      "hit": false,
      "t": 241875,
      "d": 322.265625,
      "v": 55
    },
    {
      "midi": 47,
      "hit": false,
      "t": 241875,
      "d": 1093.75,
      "v": 46
    },
    {
      "midi": 62,
      "hit": false,
      "t": 241875,
      "d": 1718.75,
      "v": 67
    },
    {
      "midi": 66,
      "hit": false,
      "t": 241875,
      "d": 1718.75,
      "v": 68
    },
    {
      "midi": 57,
      "hit": false,
      "t": 242343.75,
      "d": 747.0703125,
      "v": 37
    },
    {
      "midi": 69,
      "hit": false,
      "t": 242812.5,
      "d": 727.5390625,
      "v": 67
    },
    {
      "midi": 57,
      "hit": false,
      "t": 243281.25,
      "d": 307.6171875,
      "v": 42
    },
    {
      "midi": 47,
      "hit": false,
      "t": 243281.25,
      "d": 312.5,
      "v": 41
    },
    {
      "midi": 67,
      "hit": false,
      "t": 243750,
      "d": 869.140625,
      "v": 63
    },
    {
      "midi": 62,
      "hit": false,
      "t": 243750,
      "d": 913.0859375,
      "v": 74
    },
    {
      "midi": 59,
      "hit": false,
      "t": 243750,
      "d": 1245.1171875,
      "v": 67
    },
    {
      "midi": 52,
      "hit": false,
      "t": 243750,
      "d": 1816.40625,
      "v": 52
    },
    {
      "midi": 62,
      "hit": false,
      "t": 244687.5,
      "d": 834.9609375,
      "v": 59
    },
    {
      "midi": 67,
      "hit": false,
      "t": 244687.5,
      "d": 1767.578125,
      "v": 57
    },
    {
      "midi": 59,
      "hit": false,
      "t": 245156.25,
      "d": 805.6640625,
      "v": 37
    },
    {
      "midi": 62,
      "hit": false,
      "t": 245625,
      "d": 839.84375,
      "v": 74
    },
    {
      "midi": 50,
      "hit": false,
      "t": 245625,
      "d": 1762.6953125,
      "v": 58
    },
    {
      "midi": 59,
      "hit": false,
      "t": 246093.75,
      "d": 825.1953125,
      "v": 36
    },
    {
      "midi": 67,
      "hit": false,
      "t": 246562.5,
      "d": 795.8984375,
      "v": 72
    },
    {
      "midi": 62,
      "hit": false,
      "t": 246562.5,
      "d": 820.3125,
      "v": 91
    },
    {
      "midi": 59,
      "hit": false,
      "t": 247031.25,
      "d": 380.859375,
      "v": 40
    },
    {
      "midi": 62,
      "hit": false,
      "t": 247500,
      "d": 844.7265625,
      "v": 81
    },
    {
      "midi": 69,
      "hit": false,
      "t": 247500,
      "d": 1254.8828125,
      "v": 68
    },
    {
      "midi": 45,
      "hit": false,
      "t": 247500,
      "d": 1538.0859375,
      "v": 55
    },
    {
      "midi": 64,
      "hit": false,
      "t": 247500,
      "d": 1777.34375,
      "v": 68
    },
    {
      "midi": 57,
      "hit": false,
      "t": 247968.75,
      "d": 1704.1015625,
      "v": 44
    },
    {
      "midi": 62,
      "hit": false,
      "t": 248437.5,
      "d": 761.71875,
      "v": 73
    },
    {
      "midi": 69,
      "hit": false,
      "t": 248906.25,
      "d": 527.34375,
      "v": 54
    },
    {
      "midi": 45,
      "hit": false,
      "t": 249375,
      "d": 551.7578125,
      "v": 53
    },
    {
      "midi": 61,
      "hit": false,
      "t": 249375,
      "d": 800.78125,
      "v": 77
    },
    {
      "midi": 64,
      "hit": false,
      "t": 249375,
      "d": 825.1953125,
      "v": 54
    },
    {
      "midi": 57,
      "hit": false,
      "t": 249843.75,
      "d": 332.03125,
      "v": 42
    },
    {
      "midi": 45,
      "hit": false,
      "t": 250078.125,
      "d": 546.875,
      "v": 63
    },
    {
      "midi": 57,
      "hit": false,
      "t": 250312.5,
      "d": 766.6015625,
      "v": 75
    },
    {
      "midi": 61,
      "hit": false,
      "t": 250312.5,
      "d": 786.1328125,
      "v": 93
    },
    {
      "midi": 64,
      "hit": false,
      "t": 250312.5,
      "d": 834.9609375,
      "v": 79
    },
    {
      "midi": 45,
      "hit": false,
      "t": 250781.25,
      "d": 380.859375,
      "v": 66
    },
    {
      "midi": 57,
      "hit": false,
      "t": 251250,
      "d": 869.140625,
      "v": 67
    },
    {
      "midi": 60,
      "hit": false,
      "t": 251250,
      "d": 898.4375,
      "v": 64
    },
    {
      "midi": 64,
      "hit": false,
      "t": 251250,
      "d": 898.4375,
      "v": 55
    },
    {
      "midi": 54,
      "hit": false,
      "t": 251250,
      "d": 1777.34375,
      "v": 72
    },
    {
      "midi": 57,
      "hit": false,
      "t": 252187.5,
      "d": 776.3671875,
      "v": 57
    },
    {
      "midi": 64,
      "hit": false,
      "t": 252187.5,
      "d": 800.78125,
      "v": 51
    },
    {
      "midi": 60,
      "hit": false,
      "t": 252187.5,
      "d": 805.6640625,
      "v": 44
    },
    {
      "midi": 57,
      "hit": false,
      "t": 253125,
      "d": 346.6796875,
      "v": 40
    },
    {
      "midi": 47,
      "hit": false,
      "t": 253125,
      "d": 541.9921875,
      "v": 42
    },
    {
      "midi": 59,
      "hit": false,
      "t": 253125,
      "d": 644.53125,
      "v": 49
    },
    {
      "midi": 63,
      "hit": false,
      "t": 253125,
      "d": 771.484375,
      "v": 42
    },
    {
      "midi": 57,
      "hit": false,
      "t": 253593.75,
      "d": 297.8515625,
      "v": 41
    },
    {
      "midi": 47,
      "hit": false,
      "t": 253828.125,
      "d": 473.6328125,
      "v": 56
    },
    {
      "midi": 57,
      "hit": false,
      "t": 254062.5,
      "d": 854.4921875,
      "v": 59
    },
    {
      "midi": 63,
      "hit": false,
      "t": 254062.5,
      "d": 864.2578125,
      "v": 100
    },
    {
      "midi": 66,
      "hit": false,
      "t": 254062.5,
      "d": 864.2578125,
      "v": 77
    },
    {
      "midi": 47,
      "hit": false,
      "t": 254531.25,
      "d": 395.5078125,
      "v": 45
    },
    {
      "midi": 67,
      "hit": false,
      "t": 255000,
      "d": 864.2578125,
      "v": 56
    },
    {
      "midi": 62,
      "hit": false,
      "t": 255000,
      "d": 883.7890625,
      "v": 58
    },
    {
      "midi": 52,
      "hit": false,
      "t": 255000,
      "d": 1157.2265625,
      "v": 49
    },
    {
      "midi": 62,
      "hit": false,
      "t": 255937.5,
      "d": 1669.921875,
      "v": 52
    },
    {
      "midi": 67,
      "hit": false,
      "t": 255937.5,
      "d": 1684.5703125,
      "v": 48
    },
    {
      "midi": 52,
      "hit": false,
      "t": 256406.25,
      "d": 1049.8046875,
      "v": 38
    },
    {
      "midi": 59,
      "hit": false,
      "t": 256875,
      "d": 307.6171875,
      "v": 17
    },
    {
      "midi": 59,
      "hit": false,
      "t": 257343.75,
      "d": 258.7890625,
      "v": 38
    },
    {
      "midi": 52,
      "hit": false,
      "t": 257578.125,
      "d": 454.1015625,
      "v": 57
    },
    {
      "midi": 59,
      "hit": false,
      "t": 257812.5,
      "d": 561.5234375,
      "v": 69
    },
    {
      "midi": 67,
      "hit": false,
      "t": 257812.5,
      "d": 668.9453125,
      "v": 63
    },
    {
      "midi": 62,
      "hit": false,
      "t": 257812.5,
      "d": 688.4765625,
      "v": 76
    },
    {
      "midi": 52,
      "hit": false,
      "t": 258281.25,
      "d": 356.4453125,
      "v": 43
    },
    {
      "midi": 58,
      "hit": false,
      "t": 258750,
      "d": 830.078125,
      "v": 53
    },
    {
      "midi": 62,
      "hit": false,
      "t": 258750,
      "d": 874.0234375,
      "v": 55
    },
    {
      "midi": 67,
      "hit": false,
      "t": 258750,
      "d": 888.671875,
      "v": 50
    },
    {
      "midi": 43,
      "hit": false,
      "t": 258750,
      "d": 1528.3203125,
      "v": 55
    },
    {
      "midi": 58,
      "hit": false,
      "t": 259687.5,
      "d": 351.5625,
      "v": 56
    },
    {
      "midi": 62,
      "hit": false,
      "t": 259687.5,
      "d": 1552.734375,
      "v": 53
    },
    {
      "midi": 67,
      "hit": false,
      "t": 259687.5,
      "d": 1552.734375,
      "v": 50
    },
    {
      "midi": 58,
      "hit": false,
      "t": 260156.25,
      "d": 683.59375,
      "v": 36
    },
    {
      "midi": 55,
      "hit": false,
      "t": 260625,
      "d": 561.5234375,
      "v": 53
    },
    {
      "midi": 58,
      "hit": false,
      "t": 261093.75,
      "d": 268.5546875,
      "v": 36
    },
    {
      "midi": 55,
      "hit": false,
      "t": 261328.125,
      "d": 405.2734375,
      "v": 50
    },
    {
      "midi": 58,
      "hit": false,
      "t": 261562.5,
      "d": 522.4609375,
      "v": 64
    },
    {
      "midi": 62,
      "hit": false,
      "t": 261562.5,
      "d": 585.9375,
      "v": 64
    },
    {
      "midi": 67,
      "hit": false,
      "t": 261562.5,
      "d": 585.9375,
      "v": 55
    },
    {
      "midi": 55,
      "hit": false,
      "t": 262031.25,
      "d": 288.0859375,
      "v": 49
    },
    {
      "midi": 57,
      "hit": false,
      "t": 262500,
      "d": 380.859375,
      "v": 60
    },
    {
      "midi": 62,
      "hit": false,
      "t": 262500,
      "d": 1225.5859375,
      "v": 69
    },
    {
      "midi": 66,
      "hit": false,
      "t": 262500,
      "d": 1455.078125,
      "v": 64
    },
    {
      "midi": 50,
      "hit": false,
      "t": 262500,
      "d": 1772.4609375,
      "v": 60
    },
    {
      "midi": 57,
      "hit": false,
      "t": 262968.75,
      "d": 541.9921875,
      "v": 28
    },
    {
      "midi": 57,
      "hit": false,
      "t": 263671.875,
      "d": 629.8828125,
      "v": 42
    },
    {
      "midi": 62,
      "hit": false,
      "t": 263906.25,
      "d": 332.03125,
      "v": 43
    },
    {
      "midi": 66,
      "hit": false,
      "t": 264140.625,
      "d": 200.1953125,
      "v": 39
    },
    {
      "midi": 57,
      "hit": false,
      "t": 264375,
      "d": 302.734375,
      "v": 61
    },
    {
      "midi": 47,
      "hit": false,
      "t": 264375,
      "d": 507.8125,
      "v": 62
    },
    {
      "midi": 61,
      "hit": false,
      "t": 264375,
      "d": 791.015625,
      "v": 84
    },
    {
      "midi": 64,
      "hit": false,
      "t": 264375,
      "d": 830.078125,
      "v": 67
    },
    {
      "midi": 57,
      "hit": false,
      "t": 264843.75,
      "d": 322.265625,
      "v": 39
    },
    {
      "midi": 47,
      "hit": false,
      "t": 265078.125,
      "d": 532.2265625,
      "v": 55
    },
    {
      "midi": 57,
      "hit": false,
      "t": 265312.5,
      "d": 737.3046875,
      "v": 66
    },
    {
      "midi": 66,
      "hit": false,
      "t": 265312.5,
      "d": 776.3671875,
      "v": 77
    },
    {
      "midi": 62,
      "hit": false,
      "t": 265312.5,
      "d": 830.078125,
      "v": 71
    },
    {
      "midi": 47,
      "hit": false,
      "t": 265781.25,
      "d": 336.9140625,
      "v": 46
    },
    {
      "midi": 65,
      "hit": false,
      "t": 266250,
      "d": 63.4765625,
      "v": 55
    },
    {
      "midi": 59,
      "hit": false,
      "t": 266250,
      "d": 864.2578125,
      "v": 59
    },
    {
      "midi": 67,
      "hit": false,
      "t": 266250,
      "d": 874.0234375,
      "v": 49
    },
    {
      "midi": 64,
      "hit": false,
      "t": 266250,
      "d": 878.90625,
      "v": 48
    },
    {
      "midi": 62,
      "hit": false,
      "t": 266250,
      "d": 888.671875,
      "v": 71
    },
    {
      "midi": 52,
      "hit": false,
      "t": 266250,
      "d": 1127.9296875,
      "v": 50
    },
    {
      "midi": 59,
      "hit": false,
      "t": 267187.5,
      "d": 751.953125,
      "v": 40
    },
    {
      "midi": 67,
      "hit": false,
      "t": 267187.5,
      "d": 800.78125,
      "v": 42
    },
    {
      "midi": 64,
      "hit": false,
      "t": 267187.5,
      "d": 825.1953125,
      "v": 43
    },
    {
      "midi": 62,
      "hit": false,
      "t": 267187.5,
      "d": 844.7265625,
      "v": 43
    },
    {
      "midi": 52,
      "hit": false,
      "t": 267656.25,
      "d": 361.328125,
      "v": 43
    },
    {
      "midi": 64,
      "hit": false,
      "t": 268125,
      "d": 717.7734375,
      "v": 54
    },
    {
      "midi": 62,
      "hit": false,
      "t": 268125,
      "d": 722.65625,
      "v": 57
    },
    {
      "midi": 69,
      "hit": false,
      "t": 268125,
      "d": 766.6015625,
      "v": 52
    },
    {
      "midi": 45,
      "hit": false,
      "t": 268125,
      "d": 1171.875,
      "v": 51
    },
    {
      "midi": 57,
      "hit": false,
      "t": 268828.125,
      "d": 595.703125,
      "v": 59
    },
    {
      "midi": 64,
      "hit": false,
      "t": 269062.5,
      "d": 625,
      "v": 69
    },
    {
      "midi": 69,
      "hit": false,
      "t": 269062.5,
      "d": 776.3671875,
      "v": 64
    },
    {
      "midi": 45,
      "hit": false,
      "t": 269531.25,
      "d": 346.6796875,
      "v": 52
    },
    {
      "midi": 50,
      "hit": false,
      "t": 270000,
      "d": 859.375,
      "v": 62
    },
    {
      "midi": 57,
      "hit": false,
      "t": 270000,
      "d": 1010.7421875,
      "v": 64
    },
    {
      "midi": 62,
      "hit": false,
      "t": 270000,
      "d": 1259.765625,
      "v": 74
    },
    {
      "midi": 66,
      "hit": false,
      "t": 270000,
      "d": 1503.90625,
      "v": 72
    },
    {
      "midi": 50,
      "hit": false,
      "t": 270937.5,
      "d": 761.71875,
      "v": 38
    },
    {
      "midi": 57,
      "hit": false,
      "t": 271171.875,
      "d": 986.328125,
      "v": 33
    },
    {
      "midi": 62,
      "hit": false,
      "t": 271406.25,
      "d": 405.2734375,
      "v": 48
    },
    {
      "midi": 66,
      "hit": false,
      "t": 271640.625,
      "d": 214.84375,
      "v": 45
    },
    {
      "midi": 50,
      "hit": false,
      "t": 271875,
      "d": 541.9921875,
      "v": 56
    },
    {
      "midi": 60,
      "hit": false,
      "t": 271875,
      "d": 766.6015625,
      "v": 56
    },
    {
      "midi": 66,
      "hit": false,
      "t": 271875,
      "d": 810.546875,
      "v": 56
    },
    {
      "midi": 57,
      "hit": false,
      "t": 272343.75,
      "d": 1098.6328125,
      "v": 43
    },
    {
      "midi": 50,
      "hit": false,
      "t": 272578.125,
      "d": 532.2265625,
      "v": 58
    },
    {
      "midi": 60,
      "hit": false,
      "t": 272812.5,
      "d": 673.828125,
      "v": 67
    },
    {
      "midi": 69,
      "hit": false,
      "t": 272812.5,
      "d": 678.7109375,
      "v": 70
    },
    {
      "midi": 66,
      "hit": false,
      "t": 272812.5,
      "d": 683.59375,
      "v": 77
    },
    {
      "midi": 50,
      "hit": false,
      "t": 273281.25,
      "d": 205.078125,
      "v": 49
    },
    {
      "midi": 65,
      "hit": false,
      "t": 273750,
      "d": 141.6015625,
      "v": 57
    },
    {
      "midi": 59,
      "hit": false,
      "t": 273750,
      "d": 400.390625,
      "v": 67
    },
    {
      "midi": 55,
      "hit": false,
      "t": 273750,
      "d": 610.3515625,
      "v": 59
    },
    {
      "midi": 67,
      "hit": false,
      "t": 273750,
      "d": 859.375,
      "v": 50
    },
    {
      "midi": 62,
      "hit": false,
      "t": 273750,
      "d": 874.0234375,
      "v": 75
    },
    {
      "midi": 59,
      "hit": false,
      "t": 274218.75,
      "d": 341.796875,
      "v": 41
    },
    {
      "midi": 55,
      "hit": false,
      "t": 274453.125,
      "d": 585.9375,
      "v": 56
    },
    {
      "midi": 59,
      "hit": false,
      "t": 274687.5,
      "d": 346.6796875,
      "v": 87
    },
    {
      "midi": 62,
      "hit": false,
      "t": 274687.5,
      "d": 1240.234375,
      "v": 98
    },
    {
      "midi": 67,
      "hit": false,
      "t": 274687.5,
      "d": 1660.15625,
      "v": 74
    },
    {
      "midi": 55,
      "hit": false,
      "t": 275156.25,
      "d": 327.1484375,
      "v": 41
    },
    {
      "midi": 59,
      "hit": false,
      "t": 275156.25,
      "d": 590.8203125,
      "v": 47
    },
    {
      "midi": 55,
      "hit": false,
      "t": 275625,
      "d": 488.28125,
      "v": 42
    },
    {
      "midi": 59,
      "hit": false,
      "t": 275859.375,
      "d": 522.4609375,
      "v": 47
    },
    {
      "midi": 62,
      "hit": false,
      "t": 276093.75,
      "d": 307.6171875,
      "v": 44
    },
    {
      "midi": 55,
      "hit": false,
      "t": 276328.125,
      "d": 444.3359375,
      "v": 69
    },
    {
      "midi": 59,
      "hit": false,
      "t": 276562.5,
      "d": 424.8046875,
      "v": 92
    },
    {
      "midi": 62,
      "hit": false,
      "t": 276562.5,
      "d": 830.078125,
      "v": 98
    },
    {
      "midi": 67,
      "hit": false,
      "t": 276562.5,
      "d": 854.4921875,
      "v": 72
    },
    {
      "midi": 59,
      "hit": false,
      "t": 277031.25,
      "d": 288.0859375,
      "v": 38
    },
    {
      "midi": 55,
      "hit": false,
      "t": 277031.25,
      "d": 366.2109375,
      "v": 73
    },
    {
      "midi": 57,
      "hit": false,
      "t": 277500,
      "d": 341.796875,
      "v": 76
    },
    {
      "midi": 62,
      "hit": false,
      "t": 277500,
      "d": 649.4140625,
      "v": 76
    },
    {
      "midi": 66,
      "hit": false,
      "t": 277500,
      "d": 659.1796875,
      "v": 82
    },
    {
      "midi": 52,
      "hit": false,
      "t": 277500,
      "d": 1201.171875,
      "v": 75
    },
    {
      "midi": 57,
      "hit": false,
      "t": 277968.75,
      "d": 175.78125,
      "v": 41
    },
    {
      "midi": 57,
      "hit": false,
      "t": 278203.125,
      "d": 336.9140625,
      "v": 62
    },
    {
      "midi": 69,
      "hit": false,
      "t": 278203.125,
      "d": 966.796875,
      "v": 71
    },
    {
      "midi": 66,
      "hit": false,
      "t": 278203.125,
      "d": 1132.8125,
      "v": 63
    },
    {
      "midi": 62,
      "hit": false,
      "t": 278203.125,
      "d": 1997.0703125,
      "v": 60
    },
    {
      "midi": 57,
      "hit": false,
      "t": 278671.875,
      "d": 332.03125,
      "v": 56
    },
    {
      "midi": 52,
      "hit": false,
      "t": 278906.25,
      "d": 1044.921875,
      "v": 71
    },
    {
      "midi": 57,
      "hit": false,
      "t": 279140.625,
      "d": 126.953125,
      "v": 43
    },
    {
      "midi": 59,
      "hit": false,
      "t": 279375,
      "d": 351.5625,
      "v": 49
    },
    {
      "midi": 67,
      "hit": false,
      "t": 279375,
      "d": 844.7265625,
      "v": 45
    },
    {
      "midi": 59,
      "hit": false,
      "t": 279843.75,
      "d": 361.328125,
      "v": 41
    },
    {
      "midi": 52,
      "hit": false,
      "t": 280078.125,
      "d": 478.515625,
      "v": 46
    },
    {
      "midi": 59,
      "hit": false,
      "t": 280312.5,
      "d": 371.09375,
      "v": 63
    },
    {
      "midi": 71,
      "hit": false,
      "t": 280312.5,
      "d": 771.484375,
      "v": 76
    },
    {
      "midi": 67,
      "hit": false,
      "t": 280312.5,
      "d": 854.4921875,
      "v": 48
    },
    {
      "midi": 62,
      "hit": false,
      "t": 280312.5,
      "d": 883.7890625,
      "v": 74
    },
    {
      "midi": 59,
      "hit": false,
      "t": 280781.25,
      "d": 292.96875,
      "v": 40
    },
    {
      "midi": 52,
      "hit": false,
      "t": 280781.25,
      "d": 429.6875,
      "v": 60
    },
    {
      "midi": 60,
      "hit": false,
      "t": 281250,
      "d": 371.09375,
      "v": 54
    },
    {
      "midi": 57,
      "hit": false,
      "t": 281250,
      "d": 844.7265625,
      "v": 58
    },
    {
      "midi": 64,
      "hit": false,
      "t": 281250,
      "d": 1000.9765625,
      "v": 62
    },
    {
      "midi": 69,
      "hit": false,
      "t": 281250,
      "d": 1240.234375,
      "v": 59
    },
    {
      "midi": 60,
      "hit": false,
      "t": 281718.75,
      "d": 478.515625,
      "v": 34
    },
    {
      "midi": 57,
      "hit": false,
      "t": 282187.5,
      "d": 815.4296875,
      "v": 54
    },
    {
      "midi": 64,
      "hit": false,
      "t": 282421.875,
      "d": 629.8828125,
      "v": 39
    },
    {
      "midi": 69,
      "hit": false,
      "t": 282656.25,
      "d": 166.015625,
      "v": 31
    },
    {
      "midi": 69,
      "hit": false,
      "t": 282890.625,
      "d": 131.8359375,
      "v": 41
    },
    {
      "midi": 72,
      "hit": false,
      "t": 282890.625,
      "d": 195.3125,
      "v": 67
    },
    {
      "midi": 64,
      "hit": false,
      "t": 283125,
      "d": 361.328125,
      "v": 68
    },
    {
      "midi": 55,
      "hit": false,
      "t": 283125,
      "d": 585.9375,
      "v": 54
    },
    {
      "midi": 72,
      "hit": false,
      "t": 283125,
      "d": 805.6640625,
      "v": 73
    },
    {
      "midi": 67,
      "hit": false,
      "t": 283125,
      "d": 834.9609375,
      "v": 72
    },
    {
      "midi": 64,
      "hit": false,
      "t": 283593.75,
      "d": 375.9765625,
      "v": 42
    },
    {
      "midi": 55,
      "hit": false,
      "t": 283828.125,
      "d": 522.4609375,
      "v": 23
    },
    {
      "midi": 64,
      "hit": false,
      "t": 284062.5,
      "d": 747.0703125,
      "v": 73
    },
    {
      "midi": 72,
      "hit": false,
      "t": 284062.5,
      "d": 805.6640625,
      "v": 81
    },
    {
      "midi": 67,
      "hit": false,
      "t": 284062.5,
      "d": 825.1953125,
      "v": 79
    },
    {
      "midi": 55,
      "hit": false,
      "t": 284531.25,
      "d": 371.09375,
      "v": 67
    },
    {
      "midi": 62,
      "hit": false,
      "t": 285000,
      "d": 346.6796875,
      "v": 68
    },
    {
      "midi": 67,
      "hit": false,
      "t": 285000,
      "d": 854.4921875,
      "v": 59
    },
    {
      "midi": 69,
      "hit": false,
      "t": 285000,
      "d": 854.4921875,
      "v": 59
    },
    {
      "midi": 50,
      "hit": false,
      "t": 285000,
      "d": 1401.3671875,
      "v": 61
    },
    {
      "midi": 62,
      "hit": false,
      "t": 285468.75,
      "d": 385.7421875,
      "v": 44
    },
    {
      "midi": 62,
      "hit": false,
      "t": 285937.5,
      "d": 312.5,
      "v": 68
    },
    {
      "midi": 67,
      "hit": false,
      "t": 285937.5,
      "d": 849.609375,
      "v": 69
    },
    {
      "midi": 69,
      "hit": false,
      "t": 285937.5,
      "d": 1772.4609375,
      "v": 70
    },
    {
      "midi": 62,
      "hit": false,
      "t": 286406.25,
      "d": 390.625,
      "v": 49
    },
    {
      "midi": 50,
      "hit": false,
      "t": 286640.625,
      "d": 166.015625,
      "v": 59
    },
    {
      "midi": 62,
      "hit": false,
      "t": 286875,
      "d": 327.1484375,
      "v": 50
    },
    {
      "midi": 50,
      "hit": false,
      "t": 286875,
      "d": 532.2265625,
      "v": 59
    },
    {
      "midi": 66,
      "hit": false,
      "t": 286875,
      "d": 786.1328125,
      "v": 67
    },
    {
      "midi": 62,
      "hit": false,
      "t": 287343.75,
      "d": 317.3828125,
      "v": 47
    },
    {
      "midi": 50,
      "hit": false,
      "t": 287578.125,
      "d": 468.75,
      "v": 62
    },
    {
      "midi": 69,
      "hit": false,
      "t": 287812.5,
      "d": 791.015625,
      "v": 74
    },
    {
      "midi": 62,
      "hit": false,
      "t": 287812.5,
      "d": 795.8984375,
      "v": 82
    },
    {
      "midi": 66,
      "hit": false,
      "t": 287812.5,
      "d": 795.8984375,
      "v": 90
    },
    {
      "midi": 50,
      "hit": false,
      "t": 288281.25,
      "d": 361.328125,
      "v": 62
    },
    {
      "midi": 59,
      "hit": false,
      "t": 288750,
      "d": 385.7421875,
      "v": 62
    },
    {
      "midi": 47,
      "hit": false,
      "t": 288750,
      "d": 722.65625,
      "v": 57
    },
    {
      "midi": 62,
      "hit": false,
      "t": 288750,
      "d": 1181.640625,
      "v": 73
    },
    {
      "midi": 66,
      "hit": false,
      "t": 288750,
      "d": 1225.5859375,
      "v": 66
    },
    {
      "midi": 59,
      "hit": false,
      "t": 289218.75,
      "d": 507.8125,
      "v": 24
    },
    {
      "midi": 47,
      "hit": false,
      "t": 289687.5,
      "d": 522.4609375,
      "v": 55
    },
    {
      "midi": 59,
      "hit": false,
      "t": 289921.875,
      "d": 351.5625,
      "v": 48
    },
    {
      "midi": 62,
      "hit": false,
      "t": 290156.25,
      "d": 166.015625,
      "v": 46
    },
    {
      "midi": 59,
      "hit": false,
      "t": 290390.625,
      "d": 473.6328125,
      "v": 67
    },
    {
      "midi": 47,
      "hit": false,
      "t": 290390.625,
      "d": 786.1328125,
      "v": 70
    },
    {
      "midi": 63,
      "hit": false,
      "t": 290390.625,
      "d": 815.4296875,
      "v": 90
    },
    {
      "midi": 66,
      "hit": false,
      "t": 290390.625,
      "d": 849.609375,
      "v": 75
    },
    {
      "midi": 59,
      "hit": false,
      "t": 291093.75,
      "d": 366.2109375,
      "v": 43
    },
    {
      "midi": 47,
      "hit": false,
      "t": 291328.125,
      "d": 537.109375,
      "v": 53
    },
    {
      "midi": 59,
      "hit": false,
      "t": 291562.5,
      "d": 385.7421875,
      "v": 70
    },
    {
      "midi": 63,
      "hit": false,
      "t": 291562.5,
      "d": 815.4296875,
      "v": 73
    },
    {
      "midi": 66,
      "hit": false,
      "t": 291562.5,
      "d": 830.078125,
      "v": 82
    },
    {
      "midi": 71,
      "hit": false,
      "t": 291562.5,
      "d": 830.078125,
      "v": 72
    },
    {
      "midi": 59,
      "hit": false,
      "t": 292031.25,
      "d": 92.7734375,
      "v": 27
    },
    {
      "midi": 47,
      "hit": false,
      "t": 292031.25,
      "d": 410.15625,
      "v": 54
    },
    {
      "midi": 59,
      "hit": false,
      "t": 292500,
      "d": 322.265625,
      "v": 65
    },
    {
      "midi": 64,
      "hit": false,
      "t": 292500,
      "d": 1259.765625,
      "v": 64
    },
    {
      "midi": 67,
      "hit": false,
      "t": 292500,
      "d": 1264.6484375,
      "v": 58
    },
    {
      "midi": 52,
      "hit": false,
      "t": 292500,
      "d": 1284.1796875,
      "v": 64
    },
    {
      "midi": 59,
      "hit": false,
      "t": 292968.75,
      "d": 703.125,
      "v": 41
    },
    {
      "midi": 48,
      "hit": false,
      "t": 293906.25,
      "d": 1967.7734375,
      "v": 70
    },
    {
      "midi": 60,
      "hit": false,
      "t": 293906.25,
      "d": 2363.28125,
      "v": 62
    },
    {
      "midi": 64,
      "hit": false,
      "t": 293906.25,
      "d": 2363.28125,
      "v": 59
    },
    {
      "midi": 67,
      "hit": false,
      "t": 293906.25,
      "d": 2749.0234375,
      "v": 63
    },
    {
      "midi": 55,
      "hit": false,
      "t": 296250,
      "d": 1230.46875,
      "v": 41
    },
    {
      "midi": 57,
      "hit": false,
      "t": 296484.375,
      "d": 805.6640625,
      "v": 39
    },
    {
      "midi": 62,
      "hit": false,
      "t": 296718.75,
      "d": 1738.28125,
      "v": 39
    },
    {
      "midi": 67,
      "hit": false,
      "t": 296953.125,
      "d": 1381.8359375,
      "v": 42
    },
    {
      "midi": 57,
      "hit": false,
      "t": 297421.875,
      "d": 312.5,
      "v": 30
    },
    {
      "midi": 55,
      "hit": false,
      "t": 297656.25,
      "d": 278.3203125,
      "v": 31
    },
    {
      "midi": 57,
      "hit": false,
      "t": 297890.625,
      "d": 336.9140625,
      "v": 27
    },
    {
      "midi": 50,
      "hit": false,
      "t": 298125,
      "d": 1259.765625,
      "v": 40
    },
    {
      "midi": 57,
      "hit": false,
      "t": 298359.375,
      "d": 825.1953125,
      "v": 38
    },
    {
      "midi": 62,
      "hit": false,
      "t": 298593.75,
      "d": 1313.4765625,
      "v": 32
    },
    {
      "midi": 66,
      "hit": false,
      "t": 298828.125,
      "d": 957.03125,
      "v": 50
    },
    {
      "midi": 57,
      "hit": false,
      "t": 299296.875,
      "d": 673.828125,
      "v": 35
    },
    {
      "midi": 50,
      "hit": false,
      "t": 299531.25,
      "d": 444.3359375,
      "v": 39
    },
    {
      "midi": 48,
      "hit": false,
      "t": 300000,
      "d": 1367.1875,
      "v": 52
    },
    {
      "midi": 62,
      "hit": false,
      "t": 300000,
      "d": 2504.8828125,
      "v": 49
    },
    {
      "midi": 60,
      "hit": false,
      "t": 300000,
      "d": 3886.71875,
      "v": 40
    },
    {
      "midi": 55,
      "hit": false,
      "t": 300468.75,
      "d": 576.171875,
      "v": 31
    },
    {
      "midi": 67,
      "hit": false,
      "t": 300703.125,
      "d": 1826.171875,
      "v": 41
    },
    {
      "midi": 55,
      "hit": false,
      "t": 301171.875,
      "d": 390.625,
      "v": 27
    },
    {
      "midi": 48,
      "hit": false,
      "t": 301406.25,
      "d": 1801.7578125,
      "v": 18
    },
    {
      "midi": 55,
      "hit": false,
      "t": 301640.625,
      "d": 2124.0234375,
      "v": 40
    },
    {
      "midi": 67,
      "hit": false,
      "t": 302578.125,
      "d": 2275.390625,
      "v": 55
    },
    {
      "midi": 62,
      "hit": false,
      "t": 303046.875,
      "d": 917.96875,
      "v": 44
    },
    {
      "midi": 43,
      "hit": false,
      "t": 303750,
      "d": 4912.109375,
      "v": 45
    },
    {
      "midi": 50,
      "hit": false,
      "t": 303984.375,
      "d": 4555.6640625,
      "v": 38
    },
    {
      "midi": 55,
      "hit": false,
      "t": 304218.75,
      "d": 4165.0390625,
      "v": 41
    },
    {
      "midi": 57,
      "hit": false,
      "t": 304453.125,
      "d": 3183.59375,
      "v": 40
    },
    {
      "midi": 62,
      "hit": false,
      "t": 304687.5,
      "d": 3247.0703125,
      "v": 45
    },
    {
      "midi": 67,
      "hit": false,
      "t": 305156.25,
      "d": 3120.1171875,
      "v": 41
    }
  ]
}