{
  "jsonPath": "Rock/German Rock/Heinz Rudolf Kunze/dein-ist-mein-ganzes-herz-demo.json",
  "path": "Rock\\German Rock\\Heinz Rudolf Kunze\\Dein ist mein ganzes Herz (Demo).mid",
  "name": "Dein ist mein ganzes Herz (Demo)",
  "difficulty": "Advanced",
  "bpm": 148.00489402849587,
  "notes": [
    {
      "midi": 55,
      "hit": false,
      "t": 1621.5680000000002,
      "d": 2901.0865000000003,
      "v": 64
    },
    {
      "midi": 58,
      "hit": false,
      "t": 1621.5680000000002,
      "d": 2901.0865000000003,
      "v": 67
    },
    {
      "midi": 62,
      "hit": false,
      "t": 1621.5680000000002,
      "d": 2901.0865000000003,
      "v": 66
    },
    {
      "midi": 65,
      "hit": false,
      "t": 1621.5680000000002,
      "d": 2909.532166666667,
      "v": 65
    },
    {
      "midi": 67,
      "hit": false,
      "t": 1824.2640000000001,
      "d": 2706.836166666667,
      "v": 94
    },
    {
      "midi": 74,
      "hit": false,
      "t": 2026.96,
      "d": 2516.808666666667,
      "v": 101
    },
    {
      "midi": 77,
      "hit": false,
      "t": 2229.656,
      "d": 2297.221333333334,
      "v": 103
    },
    {
      "midi": 62,
      "hit": false,
      "t": 4864.704,
      "d": 2529.4771666666666,
      "v": 68
    },
    {
      "midi": 58,
      "hit": false,
      "t": 4864.704,
      "d": 2537.922833333333,
      "v": 68
    },
    {
      "midi": 55,
      "hit": false,
      "t": 4864.704,
      "d": 2550.591333333333,
      "v": 66
    },
    {
      "midi": 65,
      "hit": false,
      "t": 4864.704,
      "d": 2554.814166666666,
      "v": 66
    },
    {
      "midi": 67,
      "hit": false,
      "t": 5067.4,
      "d": 2276.1071666666667,
      "v": 94
    },
    {
      "midi": 74,
      "hit": false,
      "t": 5270.096,
      "d": 2115.6395,
      "v": 98
    },
    {
      "midi": 77,
      "hit": false,
      "t": 5472.7919999999995,
      "d": 1921.3891666666668,
      "v": 103
    },
    {
      "midi": 63,
      "hit": false,
      "t": 8107.839999999999,
      "d": 1477.9916666666659,
      "v": 88
    },
    {
      "midi": 51,
      "hit": false,
      "t": 8107.839999999999,
      "d": 1511.774333333332,
      "v": 85
    },
    {
      "midi": 67,
      "hit": false,
      "t": 8107.839999999999,
      "d": 1511.774333333332,
      "v": 85
    },
    {
      "midi": 70,
      "hit": false,
      "t": 8107.839999999999,
      "d": 1511.774333333332,
      "v": 85
    },
    {
      "midi": 53,
      "hit": false,
      "t": 9733.63083333333,
      "d": 1414.6491666666661,
      "v": 89
    },
    {
      "midi": 65,
      "hit": false,
      "t": 9733.63083333333,
      "d": 1414.6491666666661,
      "v": 89
    },
    {
      "midi": 69,
      "hit": false,
      "t": 9733.63083333333,
      "d": 1427.317666666666,
      "v": 88
    },
    {
      "midi": 72,
      "hit": false,
      "t": 9737.853666666664,
      "d": 1423.0948333333326,
      "v": 89
    },
    {
      "midi": 55,
      "hit": false,
      "t": 11350.975999999997,
      "d": 3108.0053333333326,
      "v": 89
    },
    {
      "midi": 70,
      "hit": false,
      "t": 11350.975999999997,
      "d": 3108.0053333333326,
      "v": 89
    },
    {
      "midi": 74,
      "hit": false,
      "t": 11355.19883333333,
      "d": 3074.2226666666666,
      "v": 87
    },
    {
      "midi": 65,
      "hit": false,
      "t": 11363.644499999997,
      "d": 1444.2090000000007,
      "v": 79
    },
    {
      "midi": 69,
      "hit": false,
      "t": 12980.989666666665,
      "d": 819.2296666666662,
      "v": 119
    },
    {
      "midi": 67,
      "hit": false,
      "t": 13804.442166666664,
      "d": 667.2076666666653,
      "v": 91
    },
    {
      "midi": 63,
      "hit": false,
      "t": 14594.111999999996,
      "d": 1486.4373333333333,
      "v": 88
    },
    {
      "midi": 51,
      "hit": false,
      "t": 14594.111999999996,
      "d": 1520.2199999999993,
      "v": 85
    },
    {
      "midi": 67,
      "hit": false,
      "t": 14594.111999999996,
      "d": 1520.2199999999993,
      "v": 85
    },
    {
      "midi": 70,
      "hit": false,
      "t": 14594.111999999996,
      "d": 1520.2199999999993,
      "v": 85
    },
    {
      "midi": 69,
      "hit": false,
      "t": 16219.902833333328,
      "d": 1524.4428333333326,
      "v": 88
    },
    {
      "midi": 53,
      "hit": false,
      "t": 16219.902833333328,
      "d": 1532.888499999999,
      "v": 89
    },
    {
      "midi": 65,
      "hit": false,
      "t": 16219.902833333328,
      "d": 1532.888499999999,
      "v": 89
    },
    {
      "midi": 72,
      "hit": false,
      "t": 16224.125666666661,
      "d": 1520.2199999999993,
      "v": 89
    },
    {
      "midi": 55,
      "hit": false,
      "t": 17845.69366666666,
      "d": 2301.444166666668,
      "v": 87
    },
    {
      "midi": 70,
      "hit": false,
      "t": 17845.69366666666,
      "d": 2301.444166666668,
      "v": 87
    },
    {
      "midi": 74,
      "hit": false,
      "t": 17849.916499999992,
      "d": 2301.444166666668,
      "v": 86
    },
    {
      "midi": 67,
      "hit": false,
      "t": 17849.916499999992,
      "d": 2314.112666666668,
      "v": 82
    },
    {
      "midi": 53,
      "hit": false,
      "t": 20269.599999999995,
      "d": 743.2186666666676,
      "v": 89
    },
    {
      "midi": 77,
      "hit": false,
      "t": 20269.599999999995,
      "d": 743.2186666666676,
      "v": 96
    },
    {
      "midi": 69,
      "hit": false,
      "t": 20273.822833333328,
      "d": 743.2186666666676,
      "v": 82
    },
    {
      "midi": 72,
      "hit": false,
      "t": 20273.822833333328,
      "d": 743.2186666666676,
      "v": 82
    },
    {
      "midi": 77,
      "hit": false,
      "t": 21088.82966666666,
      "d": 1119.0508333333346,
      "v": 80
    },
    {
      "midi": 65,
      "hit": false,
      "t": 21088.82966666666,
      "d": 1477.9916666666686,
      "v": 90
    },
    {
      "midi": 70,
      "hit": false,
      "t": 21088.82966666666,
      "d": 1477.9916666666686,
      "v": 90
    },
    {
      "midi": 46,
      "hit": false,
      "t": 21088.82966666666,
      "d": 1511.7743333333347,
      "v": 87
    },
    {
      "midi": 74,
      "hit": false,
      "t": 21088.82966666666,
      "d": 1511.7743333333347,
      "v": 87
    },
    {
      "midi": 77,
      "hit": false,
      "t": 22309.228499999997,
      "d": 371.60933333333014,
      "v": 90
    },
    {
      "midi": 75,
      "hit": false,
      "t": 22714.620499999994,
      "d": 1110.605166666668,
      "v": 94
    },
    {
      "midi": 48,
      "hit": false,
      "t": 22714.620499999994,
      "d": 1410.4263333333365,
      "v": 91
    },
    {
      "midi": 63,
      "hit": false,
      "t": 22714.620499999994,
      "d": 1423.0948333333363,
      "v": 90
    },
    {
      "midi": 67,
      "hit": false,
      "t": 22714.620499999994,
      "d": 1423.0948333333363,
      "v": 90
    },
    {
      "midi": 70,
      "hit": false,
      "t": 22718.843333333327,
      "d": 1418.872000000003,
      "v": 91
    },
    {
      "midi": 75,
      "hit": false,
      "t": 23935.01933333333,
      "d": 371.6093333333338,
      "v": 94
    },
    {
      "midi": 50,
      "hit": false,
      "t": 24331.965666666663,
      "d": 1520.2199999999975,
      "v": 91
    },
    {
      "midi": 65,
      "hit": false,
      "t": 24331.965666666663,
      "d": 1520.2199999999975,
      "v": 91
    },
    {
      "midi": 70,
      "hit": false,
      "t": 24331.965666666663,
      "d": 1520.2199999999975,
      "v": 91
    },
    {
      "midi": 74,
      "hit": false,
      "t": 24336.188499999997,
      "d": 1486.4373333333315,
      "v": 89
    },
    {
      "midi": 77,
      "hit": false,
      "t": 24344.634166666663,
      "d": 1439.9861666666657,
      "v": 79
    },
    {
      "midi": 51,
      "hit": false,
      "t": 25953.533666666663,
      "d": 1511.774333333331,
      "v": 91
    },
    {
      "midi": 67,
      "hit": false,
      "t": 25953.533666666663,
      "d": 1511.774333333331,
      "v": 91
    },
    {
      "midi": 70,
      "hit": false,
      "t": 25953.533666666663,
      "d": 1511.774333333331,
      "v": 91
    },
    {
      "midi": 75,
      "hit": false,
      "t": 25957.756499999996,
      "d": 1477.991666666665,
      "v": 89
    },
    {
      "midi": 79,
      "hit": false,
      "t": 25961.97933333333,
      "d": 819.2296666666662,
      "v": 101
    },
    {
      "midi": 77,
      "hit": false,
      "t": 26785.43183333333,
      "d": 667.2076666666653,
      "v": 86
    },
    {
      "midi": 74,
      "hit": false,
      "t": 27575.101666666662,
      "d": 722.1045000000013,
      "v": 87
    },
    {
      "midi": 65,
      "hit": false,
      "t": 27575.101666666662,
      "d": 1490.6601666666647,
      "v": 90
    },
    {
      "midi": 70,
      "hit": false,
      "t": 27575.101666666662,
      "d": 1490.6601666666647,
      "v": 90
    },
    {
      "midi": 46,
      "hit": false,
      "t": 27575.101666666662,
      "d": 1524.4428333333308,
      "v": 87
    },
    {
      "midi": 74,
      "hit": false,
      "t": 28394.331333333328,
      "d": 367.3865000000005,
      "v": 95
    },
    {
      "midi": 69,
      "hit": false,
      "t": 28799.723333333328,
      "d": 367.3864999999969,
      "v": 102
    },
    {
      "midi": 62,
      "hit": false,
      "t": 29200.89249999999,
      "d": 1524.4428333333344,
      "v": 90
    },
    {
      "midi": 43,
      "hit": false,
      "t": 29200.89249999999,
      "d": 1532.888500000001,
      "v": 91
    },
    {
      "midi": 58,
      "hit": false,
      "t": 29200.89249999999,
      "d": 1532.888500000001,
      "v": 91
    },
    {
      "midi": 67,
      "hit": false,
      "t": 29205.115333333324,
      "d": 1123.2736666666679,
      "v": 91
    },
    {
      "midi": 74,
      "hit": false,
      "t": 30421.291333333324,
      "d": 371.6093333333338,
      "v": 91
    },
    {
      "midi": 48,
      "hit": false,
      "t": 30818.237666666657,
      "d": 1515.9971666666643,
      "v": 91
    },
    {
      "midi": 60,
      "hit": false,
      "t": 30818.237666666657,
      "d": 1515.9971666666643,
      "v": 91
    },
    {
      "midi": 64,
      "hit": false,
      "t": 30818.237666666657,
      "d": 1515.9971666666643,
      "v": 91
    },
    {
      "midi": 67,
      "hit": false,
      "t": 30822.46049999999,
      "d": 1089.4909999999982,
      "v": 89
    },
    {
      "midi": 72,
      "hit": false,
      "t": 32042.859333333323,
      "d": 367.3864999999969,
      "v": 91
    },
    {
      "midi": 41,
      "hit": false,
      "t": 32439.805666666653,
      "d": 1511.7743333333347,
      "v": 91
    },
    {
      "midi": 57,
      "hit": false,
      "t": 32439.805666666653,
      "d": 1511.7743333333347,
      "v": 91
    },
    {
      "midi": 60,
      "hit": false,
      "t": 32439.805666666653,
      "d": 1511.7743333333347,
      "v": 91
    },
    {
      "midi": 65,
      "hit": false,
      "t": 32444.028499999986,
      "d": 1477.9916666666686,
      "v": 89
    },
    {
      "midi": 69,
      "hit": false,
      "t": 33457.50849999999,
      "d": 278.70700000000215,
      "v": 100
    },
    {
      "midi": 72,
      "hit": false,
      "t": 33664.427333333326,
      "d": 232.25583333332906,
      "v": 92
    },
    {
      "midi": 77,
      "hit": false,
      "t": 33871.346166666655,
      "d": 164.69049999999697,
      "v": 102
    },
    {
      "midi": 67,
      "hit": false,
      "t": 34061.37366666665,
      "d": 1486.4373333333351,
      "v": 94
    },
    {
      "midi": 70,
      "hit": false,
      "t": 34061.37366666665,
      "d": 1486.4373333333351,
      "v": 94
    },
    {
      "midi": 43,
      "hit": false,
      "t": 34061.37366666665,
      "d": 1520.2200000000012,
      "v": 91
    },
    {
      "midi": 74,
      "hit": false,
      "t": 34061.37366666665,
      "d": 1520.2200000000012,
      "v": 91
    },
    {
      "midi": 79,
      "hit": false,
      "t": 34061.37366666665,
      "d": 1520.2200000000012,
      "v": 84
    },
    {
      "midi": 65,
      "hit": false,
      "t": 35687.164499999984,
      "d": 1423.094833333329,
      "v": 94
    },
    {
      "midi": 69,
      "hit": false,
      "t": 35687.164499999984,
      "d": 1423.094833333329,
      "v": 94
    },
    {
      "midi": 45,
      "hit": false,
      "t": 35687.164499999984,
      "d": 1507.5514999999941,
      "v": 95
    },
    {
      "midi": 77,
      "hit": false,
      "t": 35687.164499999984,
      "d": 1507.5514999999941,
      "v": 98
    },
    {
      "midi": 72,
      "hit": false,
      "t": 35691.38733333332,
      "d": 1119.0508333333346,
      "v": 95
    },
    {
      "midi": 72,
      "hit": false,
      "t": 36907.56333333332,
      "d": 173.13616666666348,
      "v": 98
    },
    {
      "midi": 74,
      "hit": false,
      "t": 37110.25933333331,
      "d": 173.13616666666348,
      "v": 98
    },
    {
      "midi": 48,
      "hit": false,
      "t": 37304.50966666664,
      "d": 1524.4428333333271,
      "v": 95
    },
    {
      "midi": 63,
      "hit": false,
      "t": 37304.50966666664,
      "d": 1524.4428333333271,
      "v": 95
    },
    {
      "midi": 67,
      "hit": false,
      "t": 37304.50966666664,
      "d": 1524.4428333333271,
      "v": 95
    },
    {
      "midi": 72,
      "hit": false,
      "t": 37308.73249999998,
      "d": 1490.660166666661,
      "v": 93
    },
    {
      "midi": 75,
      "hit": false,
      "t": 37317.17816666664,
      "d": 945.9146666666638,
      "v": 83
    },
    {
      "midi": 75,
      "hit": false,
      "t": 38317.98966666664,
      "d": 320.9353333333347,
      "v": 97
    },
    {
      "midi": 75,
      "hit": false,
      "t": 38723.38166666664,
      "d": 316.7124999999942,
      "v": 99
    },
    {
      "midi": 46,
      "hit": false,
      "t": 38926.077666666635,
      "d": 1515.9971666666606,
      "v": 95
    },
    {
      "midi": 65,
      "hit": false,
      "t": 38926.077666666635,
      "d": 1515.9971666666606,
      "v": 95
    },
    {
      "midi": 70,
      "hit": false,
      "t": 38926.077666666635,
      "d": 1515.9971666666606,
      "v": 95
    },
    {
      "midi": 74,
      "hit": false,
      "t": 39128.77366666663,
      "d": 316.71250000000146,
      "v": 97
    },
    {
      "midi": 77,
      "hit": false,
      "t": 39534.16566666663,
      "d": 874.1264999999985,
      "v": 99
    },
    {
      "midi": 75,
      "hit": false,
      "t": 40547.64566666663,
      "d": 1123.2736666666679,
      "v": 91
    },
    {
      "midi": 67,
      "hit": false,
      "t": 40547.64566666663,
      "d": 1486.4373333333351,
      "v": 94
    },
    {
      "midi": 70,
      "hit": false,
      "t": 40547.64566666663,
      "d": 1486.4373333333351,
      "v": 94
    },
    {
      "midi": 51,
      "hit": false,
      "t": 40547.64566666663,
      "d": 1520.2200000000012,
      "v": 91
    },
    {
      "midi": 79,
      "hit": false,
      "t": 41772.26733333329,
      "d": 371.6093333333338,
      "v": 92
    },
    {
      "midi": 67,
      "hit": false,
      "t": 42173.43649999996,
      "d": 1524.4428333333344,
      "v": 94
    },
    {
      "midi": 48,
      "hit": false,
      "t": 42173.43649999996,
      "d": 1532.888500000001,
      "v": 95
    },
    {
      "midi": 63,
      "hit": false,
      "t": 42173.43649999996,
      "d": 1532.888500000001,
      "v": 95
    },
    {
      "midi": 72,
      "hit": false,
      "t": 42177.65933333329,
      "d": 1123.2736666666679,
      "v": 95
    },
    {
      "midi": 74,
      "hit": false,
      "t": 43393.83533333329,
      "d": 371.6093333333338,
      "v": 95
    },
    {
      "midi": 41,
      "hit": false,
      "t": 43790.781666666626,
      "d": 1511.7743333333347,
      "v": 95
    },
    {
      "midi": 57,
      "hit": false,
      "t": 43790.781666666626,
      "d": 1511.7743333333347,
      "v": 95
    },
    {
      "midi": 65,
      "hit": false,
      "t": 43790.781666666626,
      "d": 1511.7743333333347,
      "v": 95
    },
    {
      "midi": 72,
      "hit": false,
      "t": 43795.00449999996,
      "d": 1503.3286666666681,
      "v": 93
    },
    {
      "midi": 41,
      "hit": false,
      "t": 45412.349666666625,
      "d": 1444.2090000000026,
      "v": 95
    },
    {
      "midi": 57,
      "hit": false,
      "t": 45412.349666666625,
      "d": 1444.2090000000026,
      "v": 95
    },
    {
      "midi": 60,
      "hit": false,
      "t": 45412.349666666625,
      "d": 1444.2090000000026,
      "v": 95
    },
    {
      "midi": 65,
      "hit": false,
      "t": 45416.57249999996,
      "d": 1465.3231666666688,
      "v": 93
    },
    {
      "midi": 41,
      "hit": false,
      "t": 47033.917666666624,
      "d": 1439.9861666666693,
      "v": 95
    },
    {
      "midi": 57,
      "hit": false,
      "t": 47033.917666666624,
      "d": 1439.9861666666693,
      "v": 95
    },
    {
      "midi": 60,
      "hit": false,
      "t": 47033.917666666624,
      "d": 1439.9861666666693,
      "v": 95
    },
    {
      "midi": 65,
      "hit": false,
      "t": 47038.14049999996,
      "d": 1461.1003333333356,
      "v": 93
    },
    {
      "midi": 63,
      "hit": false,
      "t": 48647.03999999996,
      "d": 1448.4318333333358,
      "v": 90
    },
    {
      "midi": 51,
      "hit": false,
      "t": 48647.03999999996,
      "d": 1482.2145000000019,
      "v": 87
    },
    {
      "midi": 67,
      "hit": false,
      "t": 48647.03999999996,
      "d": 1482.2145000000019,
      "v": 87
    },
    {
      "midi": 70,
      "hit": false,
      "t": 48647.03999999996,
      "d": 1482.2145000000019,
      "v": 87
    },
    {
      "midi": 53,
      "hit": false,
      "t": 50272.83083333329,
      "d": 1414.6491666666698,
      "v": 91
    },
    {
      "midi": 65,
      "hit": false,
      "t": 50272.83083333329,
      "d": 1414.6491666666698,
      "v": 91
    },
    {
      "midi": 69,
      "hit": false,
      "t": 50272.83083333329,
      "d": 1427.3176666666695,
      "v": 90
    },
    {
      "midi": 72,
      "hit": false,
      "t": 50277.05366666662,
      "d": 1423.0948333333363,
      "v": 91
    },
    {
      "midi": 77,
      "hit": false,
      "t": 51087.83766666662,
      "d": 1410.4263333333292,
      "v": 105
    },
    {
      "midi": 55,
      "hit": false,
      "t": 51890.175999999956,
      "d": 3103.782499999994,
      "v": 91
    },
    {
      "midi": 70,
      "hit": false,
      "t": 51890.175999999956,
      "d": 3103.782499999994,
      "v": 91
    },
    {
      "midi": 74,
      "hit": false,
      "t": 51894.39883333329,
      "d": 3069.999833333328,
      "v": 89
    },
    {
      "midi": 65,
      "hit": false,
      "t": 51902.844499999956,
      "d": 1439.986166666662,
      "v": 81
    },
    {
      "midi": 69,
      "hit": false,
      "t": 53520.189666666614,
      "d": 819.2296666666662,
      "v": 119
    },
    {
      "midi": 67,
      "hit": false,
      "t": 54343.642166666614,
      "d": 667.207666666669,
      "v": 97
    },
    {
      "midi": 63,
      "hit": false,
      "t": 55133.31199999995,
      "d": 1486.4373333333351,
      "v": 90
    },
    {
      "midi": 51,
      "hit": false,
      "t": 55133.31199999995,
      "d": 1520.2200000000012,
      "v": 87
    },
    {
      "midi": 67,
      "hit": false,
      "t": 55133.31199999995,
      "d": 1520.2200000000012,
      "v": 87
    },
    {
      "midi": 70,
      "hit": false,
      "t": 55133.31199999995,
      "d": 1520.2200000000012,
      "v": 87
    },
    {
      "midi": 69,
      "hit": false,
      "t": 56759.10283333328,
      "d": 1524.4428333333344,
      "v": 90
    },
    {
      "midi": 53,
      "hit": false,
      "t": 56759.10283333328,
      "d": 1532.888500000001,
      "v": 91
    },
    {
      "midi": 65,
      "hit": false,
      "t": 56759.10283333328,
      "d": 1532.888500000001,
      "v": 91
    },
    {
      "midi": 72,
      "hit": false,
      "t": 56763.32566666661,
      "d": 1520.2200000000012,
      "v": 91
    },
    {
      "midi": 77,
      "hit": false,
      "t": 57574.10966666661,
      "d": 1406.2035000000033,
      "v": 105
    },
    {
      "midi": 55,
      "hit": false,
      "t": 58384.89366666661,
      "d": 2297.2213333333348,
      "v": 89
    },
    {
      "midi": 70,
      "hit": false,
      "t": 58384.89366666661,
      "d": 2297.2213333333348,
      "v": 89
    },
    {
      "midi": 74,
      "hit": false,
      "t": 58389.116499999946,
      "d": 2297.2213333333348,
      "v": 88
    },
    {
      "midi": 67,
      "hit": false,
      "t": 58389.116499999946,
      "d": 2309.8898333333345,
      "v": 84
    },
    {
      "midi": 53,
      "hit": false,
      "t": 60808.799999999945,
      "d": 743.2186666666676,
      "v": 91
    },
    {
      "midi": 77,
      "hit": false,
      "t": 60808.799999999945,
      "d": 743.2186666666676,
      "v": 98
    },
    {
      "midi": 69,
      "hit": false,
      "t": 60813.02283333328,
      "d": 743.2186666666676,
      "v": 84
    },
    {
      "midi": 72,
      "hit": false,
      "t": 60813.02283333328,
      "d": 743.2186666666676,
      "v": 84
    },
    {
      "midi": 77,
      "hit": false,
      "t": 61628.02966666661,
      "d": 1123.2736666666679,
      "v": 82
    },
    {
      "midi": 65,
      "hit": false,
      "t": 61628.02966666661,
      "d": 1477.9916666666686,
      "v": 92
    },
    {
      "midi": 70,
      "hit": false,
      "t": 61628.02966666661,
      "d": 1477.9916666666686,
      "v": 92
    },
    {
      "midi": 46,
      "hit": false,
      "t": 61628.02966666661,
      "d": 1511.7743333333347,
      "v": 89
    },
    {
      "midi": 74,
      "hit": false,
      "t": 61628.02966666661,
      "d": 1511.7743333333347,
      "v": 89
    },
    {
      "midi": 77,
      "hit": false,
      "t": 62848.42849999994,
      "d": 367.3865000000005,
      "v": 92
    },
    {
      "midi": 75,
      "hit": false,
      "t": 63253.82049999994,
      "d": 1110.605166666668,
      "v": 96
    },
    {
      "midi": 48,
      "hit": false,
      "t": 63253.82049999994,
      "d": 1410.4263333333292,
      "v": 93
    },
    {
      "midi": 63,
      "hit": false,
      "t": 63253.82049999994,
      "d": 1423.094833333329,
      "v": 92
    },
    {
      "midi": 67,
      "hit": false,
      "t": 63253.82049999994,
      "d": 1423.094833333329,
      "v": 92
    },
    {
      "midi": 70,
      "hit": false,
      "t": 63258.04333333328,
      "d": 1418.8719999999958,
      "v": 93
    },
    {
      "midi": 75,
      "hit": false,
      "t": 64474.219333333276,
      "d": 371.6093333333265,
      "v": 96
    },
    {
      "midi": 50,
      "hit": false,
      "t": 64871.1656666666,
      "d": 1520.219999999994,
      "v": 93
    },
    {
      "midi": 65,
      "hit": false,
      "t": 64871.1656666666,
      "d": 1520.219999999994,
      "v": 93
    },
    {
      "midi": 70,
      "hit": false,
      "t": 64871.1656666666,
      "d": 1520.219999999994,
      "v": 93
    },
    {
      "midi": 74,
      "hit": false,
      "t": 64875.388499999935,
      "d": 1486.4373333333278,
      "v": 91
    },
    {
      "midi": 77,
      "hit": false,
      "t": 64883.8341666666,
      "d": 1439.986166666662,
      "v": 81
    },
    {
      "midi": 51,
      "hit": false,
      "t": 66492.7336666666,
      "d": 1511.7743333333347,
      "v": 93
    },
    {
      "midi": 67,
      "hit": false,
      "t": 66492.7336666666,
      "d": 1511.7743333333347,
      "v": 93
    },
    {
      "midi": 70,
      "hit": false,
      "t": 66492.7336666666,
      "d": 1511.7743333333347,
      "v": 93
    },
    {
      "midi": 75,
      "hit": false,
      "t": 66496.95649999993,
      "d": 1477.9916666666686,
      "v": 91
    },
    {
      "midi": 79,
      "hit": false,
      "t": 66501.17933333326,
      "d": 819.2296666666662,
      "v": 103
    },
    {
      "midi": 77,
      "hit": false,
      "t": 67324.63183333326,
      "d": 667.207666666669,
      "v": 88
    },
    {
      "midi": 74,
      "hit": false,
      "t": 68114.3016666666,
      "d": 722.1045000000013,
      "v": 89
    },
    {
      "midi": 65,
      "hit": false,
      "t": 68114.3016666666,
      "d": 1486.4373333333206,
      "v": 92
    },
    {
      "midi": 70,
      "hit": false,
      "t": 68114.3016666666,
      "d": 1486.4373333333206,
      "v": 92
    },
    {
      "midi": 46,
      "hit": false,
      "t": 68114.3016666666,
      "d": 1520.2199999999866,
      "v": 89
    },
    {
      "midi": 74,
      "hit": false,
      "t": 68933.53133333326,
      "d": 367.38649999999325,
      "v": 97
    },
    {
      "midi": 69,
      "hit": false,
      "t": 69338.92333333325,
      "d": 371.6093333333265,
      "v": 104
    },
    {
      "midi": 62,
      "hit": false,
      "t": 69740.09249999991,
      "d": 1528.6656666666531,
      "v": 92
    },
    {
      "midi": 43,
      "hit": false,
      "t": 69740.09249999991,
      "d": 1537.1113333333196,
      "v": 93
    },
    {
      "midi": 58,
      "hit": false,
      "t": 69740.09249999991,
      "d": 1537.1113333333196,
      "v": 93
    },
    {
      "midi": 67,
      "hit": false,
      "t": 69744.31533333324,
      "d": 1127.4964999999938,
      "v": 93
    },
    {
      "midi": 74,
      "hit": false,
      "t": 70960.49133333324,
      "d": 371.6093333333265,
      "v": 93
    },
    {
      "midi": 48,
      "hit": false,
      "t": 71357.43766666656,
      "d": 1515.9971666666534,
      "v": 93
    },
    {
      "midi": 60,
      "hit": false,
      "t": 71357.43766666656,
      "d": 1515.9971666666534,
      "v": 93
    },
    {
      "midi": 64,
      "hit": false,
      "t": 71357.43766666656,
      "d": 1515.9971666666534,
      "v": 93
    },
    {
      "midi": 67,
      "hit": false,
      "t": 71361.6604999999,
      "d": 1089.4909999999945,
      "v": 91
    },
    {
      "midi": 72,
      "hit": false,
      "t": 72582.05933333322,
      "d": 367.38649999999325,
      "v": 93
    },
    {
      "midi": 41,
      "hit": false,
      "t": 72979.00566666655,
      "d": 1511.77433333332,
      "v": 93
    },
    {
      "midi": 57,
      "hit": false,
      "t": 72979.00566666655,
      "d": 1511.77433333332,
      "v": 93
    },
    {
      "midi": 60,
      "hit": false,
      "t": 72979.00566666655,
      "d": 1511.77433333332,
      "v": 93
    },
    {
      "midi": 65,
      "hit": false,
      "t": 72983.22849999988,
      "d": 1477.991666666654,
      "v": 91
    },
    {
      "midi": 69,
      "hit": false,
      "t": 73996.70849999988,
      "d": 472.95733333332464,
      "v": 107
    },
    {
      "midi": 72,
      "hit": false,
      "t": 74203.6273333332,
      "d": 232.25583333332906,
      "v": 103
    },
    {
      "midi": 77,
      "hit": false,
      "t": 74410.54616666654,
      "d": 164.69049999999697,
      "v": 97
    },
    {
      "midi": 79,
      "hit": false,
      "t": 74592.12799999987,
      "d": 570.0825000000041,
      "v": 105
    },
    {
      "midi": 74,
      "hit": false,
      "t": 74600.57366666653,
      "d": 544.7455000000045,
      "v": 98
    },
    {
      "midi": 67,
      "hit": false,
      "t": 74600.57366666653,
      "d": 1486.4373333333206,
      "v": 101
    },
    {
      "midi": 70,
      "hit": false,
      "t": 74600.57366666653,
      "d": 1486.4373333333206,
      "v": 101
    },
    {
      "midi": 46,
      "hit": false,
      "t": 74600.57366666653,
      "d": 1520.2199999999866,
      "v": 98
    },
    {
      "midi": 74,
      "hit": false,
      "t": 75200.21599999987,
      "d": 194.25033333332976,
      "v": 91
    },
    {
      "midi": 74,
      "hit": false,
      "t": 75605.60799999986,
      "d": 236.47866666666232,
      "v": 105
    },
    {
      "midi": 79,
      "hit": false,
      "t": 75605.60799999986,
      "d": 236.47866666666232,
      "v": 105
    },
    {
      "midi": 72,
      "hit": false,
      "t": 76010.99999999985,
      "d": 228.0329999999958,
      "v": 106
    },
    {
      "midi": 79,
      "hit": false,
      "t": 76010.99999999985,
      "d": 228.0329999999958,
      "v": 106
    },
    {
      "midi": 65,
      "hit": false,
      "t": 76226.36449999985,
      "d": 1423.0948333333217,
      "v": 101
    },
    {
      "midi": 69,
      "hit": false,
      "t": 76226.36449999985,
      "d": 1423.0948333333217,
      "v": 101
    },
    {
      "midi": 45,
      "hit": false,
      "t": 76226.36449999985,
      "d": 1507.5514999999868,
      "v": 102
    },
    {
      "midi": 72,
      "hit": false,
      "t": 76416.39199999985,
      "d": 232.25583333332906,
      "v": 104
    },
    {
      "midi": 77,
      "hit": false,
      "t": 76416.39199999985,
      "d": 232.25583333332906,
      "v": 104
    },
    {
      "midi": 72,
      "hit": false,
      "t": 76821.78399999984,
      "d": 578.5281666666706,
      "v": 104
    },
    {
      "midi": 72,
      "hit": false,
      "t": 77446.76333333318,
      "d": 173.13616666666348,
      "v": 105
    },
    {
      "midi": 74,
      "hit": false,
      "t": 77649.45933333317,
      "d": 173.13616666666348,
      "v": 105
    },
    {
      "midi": 48,
      "hit": false,
      "t": 77843.7096666665,
      "d": 1520.2199999999866,
      "v": 102
    },
    {
      "midi": 63,
      "hit": false,
      "t": 77843.7096666665,
      "d": 1520.2199999999866,
      "v": 102
    },
    {
      "midi": 67,
      "hit": false,
      "t": 77843.7096666665,
      "d": 1520.2199999999866,
      "v": 102
    },
    {
      "midi": 72,
      "hit": false,
      "t": 77847.93249999984,
      "d": 1486.4373333333206,
      "v": 100
    },
    {
      "midi": 75,
      "hit": false,
      "t": 77856.3781666665,
      "d": 941.6918333333306,
      "v": 90
    },
    {
      "midi": 75,
      "hit": false,
      "t": 78857.1896666665,
      "d": 320.93533333332743,
      "v": 104
    },
    {
      "midi": 75,
      "hit": false,
      "t": 79262.58166666649,
      "d": 316.7124999999942,
      "v": 106
    },
    {
      "midi": 46,
      "hit": false,
      "t": 79465.27766666649,
      "d": 1515.9971666666534,
      "v": 102
    },
    {
      "midi": 65,
      "hit": false,
      "t": 79465.27766666649,
      "d": 1515.9971666666534,
      "v": 102
    },
    {
      "midi": 70,
      "hit": false,
      "t": 79465.27766666649,
      "d": 1515.9971666666534,
      "v": 102
    },
    {
      "midi": 74,
      "hit": false,
      "t": 79667.97366666648,
      "d": 316.7124999999942,
      "v": 104
    },
    {
      "midi": 77,
      "hit": false,
      "t": 80073.36566666648,
      "d": 874.1264999999985,
      "v": 106
    },
    {
      "midi": 75,
      "hit": false,
      "t": 81086.84566666647,
      "d": 1123.2736666666606,
      "v": 98
    },
    {
      "midi": 67,
      "hit": false,
      "t": 81086.84566666647,
      "d": 1486.4373333333206,
      "v": 101
    },
    {
      "midi": 70,
      "hit": false,
      "t": 81086.84566666647,
      "d": 1486.4373333333206,
      "v": 101
    },
    {
      "midi": 51,
      "hit": false,
      "t": 81086.84566666647,
      "d": 1520.2199999999866,
      "v": 98
    },
    {
      "midi": 79,
      "hit": false,
      "t": 82311.46733333313,
      "d": 371.6093333333265,
      "v": 99
    },
    {
      "midi": 67,
      "hit": false,
      "t": 82712.63649999979,
      "d": 1524.4428333333199,
      "v": 101
    },
    {
      "midi": 48,
      "hit": false,
      "t": 82712.63649999979,
      "d": 1532.8884999999864,
      "v": 102
    },
    {
      "midi": 63,
      "hit": false,
      "t": 82712.63649999979,
      "d": 1532.8884999999864,
      "v": 102
    },
    {
      "midi": 72,
      "hit": false,
      "t": 82716.85933333312,
      "d": 1123.2736666666606,
      "v": 102
    },
    {
      "midi": 74,
      "hit": false,
      "t": 83933.03533333311,
      "d": 371.6093333333265,
      "v": 102
    },
    {
      "midi": 41,
      "hit": false,
      "t": 84329.98166666644,
      "d": 1511.7743333333347,
      "v": 102
    },
    {
      "midi": 57,
      "hit": false,
      "t": 84329.98166666644,
      "d": 1511.7743333333347,
      "v": 102
    },
    {
      "midi": 65,
      "hit": false,
      "t": 84329.98166666644,
      "d": 1511.7743333333347,
      "v": 102
    },
    {
      "midi": 72,
      "hit": false,
      "t": 84334.20449999977,
      "d": 1503.3286666666681,
      "v": 100
    },
    {
      "midi": 41,
      "hit": false,
      "t": 85951.54966666644,
      "d": 1507.5514999999868,
      "v": 102
    },
    {
      "midi": 57,
      "hit": false,
      "t": 85951.54966666644,
      "d": 1507.5514999999868,
      "v": 102
    },
    {
      "midi": 60,
      "hit": false,
      "t": 85951.54966666644,
      "d": 1507.5514999999868,
      "v": 102
    },
    {
      "midi": 65,
      "hit": false,
      "t": 85955.77249999977,
      "d": 1473.7688333333208,
      "v": 100
    },
    {
      "midi": 69,
      "hit": false,
      "t": 86969.25249999977,
      "d": 472.95733333332464,
      "v": 116
    },
    {
      "midi": 72,
      "hit": false,
      "t": 87176.1713333331,
      "d": 232.25583333332906,
      "v": 112
    },
    {
      "midi": 77,
      "hit": false,
      "t": 87383.09016666643,
      "d": 168.91333333333023,
      "v": 106
    },
    {
      "midi": 79,
      "hit": false,
      "t": 87564.67199999976,
      "d": 570.0825000000041,
      "v": 106
    },
    {
      "midi": 74,
      "hit": false,
      "t": 87573.11766666643,
      "d": 544.7455000000045,
      "v": 99
    },
    {
      "midi": 67,
      "hit": false,
      "t": 87573.11766666643,
      "d": 1486.4373333333206,
      "v": 102
    },
    {
      "midi": 70,
      "hit": false,
      "t": 87573.11766666643,
      "d": 1486.4373333333206,
      "v": 102
    },
    {
      "midi": 43,
      "hit": false,
      "t": 87573.11766666643,
      "d": 1520.2199999999866,
      "v": 99
    },
    {
      "midi": 74,
      "hit": false,
      "t": 88172.75999999976,
      "d": 194.25033333332976,
      "v": 92
    },
    {
      "midi": 74,
      "hit": false,
      "t": 88578.15199999975,
      "d": 236.47866666666232,
      "v": 106
    },
    {
      "midi": 79,
      "hit": false,
      "t": 88578.15199999975,
      "d": 236.47866666666232,
      "v": 106
    },
    {
      "midi": 72,
      "hit": false,
      "t": 88983.54399999975,
      "d": 228.0329999999958,
      "v": 107
    },
    {
      "midi": 79,
      "hit": false,
      "t": 88983.54399999975,
      "d": 228.0329999999958,
      "v": 107
    },
    {
      "midi": 65,
      "hit": false,
      "t": 89198.90849999974,
      "d": 1423.0948333333217,
      "v": 102
    },
    {
      "midi": 69,
      "hit": false,
      "t": 89198.90849999974,
      "d": 1423.0948333333217,
      "v": 102
    },
    {
      "midi": 45,
      "hit": false,
      "t": 89198.90849999974,
      "d": 1507.5514999999868,
      "v": 103
    },
    {
      "midi": 72,
      "hit": false,
      "t": 89388.93599999974,
      "d": 232.25583333332906,
      "v": 105
    },
    {
      "midi": 77,
      "hit": false,
      "t": 89388.93599999974,
      "d": 232.25583333332906,
      "v": 105
    },
    {
      "midi": 72,
      "hit": false,
      "t": 89794.32799999973,
      "d": 578.5281666666706,
      "v": 105
    },
    {
      "midi": 72,
      "hit": false,
      "t": 90419.30733333307,
      "d": 173.13616666666348,
      "v": 106
    },
    {
      "midi": 74,
      "hit": false,
      "t": 90622.00333333306,
      "d": 173.13616666666348,
      "v": 106
    },
    {
      "midi": 48,
      "hit": false,
      "t": 90816.2536666664,
      "d": 1520.2199999999866,
      "v": 103
    },
    {
      "midi": 63,
      "hit": false,
      "t": 90816.2536666664,
      "d": 1520.2199999999866,
      "v": 103
    },
    {
      "midi": 67,
      "hit": false,
      "t": 90816.2536666664,
      "d": 1520.2199999999866,
      "v": 103
    },
    {
      "midi": 72,
      "hit": false,
      "t": 90820.47649999973,
      "d": 1486.4373333333206,
      "v": 101
    },
    {
      "midi": 75,
      "hit": false,
      "t": 90828.9221666664,
      "d": 941.6918333333306,
      "v": 91
    },
    {
      "midi": 75,
      "hit": false,
      "t": 91829.73366666639,
      "d": 320.93533333332743,
      "v": 105
    },
    {
      "midi": 75,
      "hit": false,
      "t": 92235.12566666638,
      "d": 316.7124999999942,
      "v": 107
    },
    {
      "midi": 46,
      "hit": false,
      "t": 92437.82166666638,
      "d": 1515.9971666666534,
      "v": 103
    },
    {
      "midi": 65,
      "hit": false,
      "t": 92437.82166666638,
      "d": 1515.9971666666534,
      "v": 103
    },
    {
      "midi": 70,
      "hit": false,
      "t": 92437.82166666638,
      "d": 1515.9971666666534,
      "v": 103
    },
    {
      "midi": 74,
      "hit": false,
      "t": 92640.51766666638,
      "d": 316.7124999999942,
      "v": 105
    },
    {
      "midi": 77,
      "hit": false,
      "t": 93045.90966666637,
      "d": 874.1264999999985,
      "v": 107
    },
    {
      "midi": 75,
      "hit": false,
      "t": 94059.38966666636,
      "d": 1123.2736666666606,
      "v": 99
    },
    {
      "midi": 67,
      "hit": false,
      "t": 94059.38966666636,
      "d": 1486.4373333333206,
      "v": 102
    },
    {
      "midi": 70,
      "hit": false,
      "t": 94059.38966666636,
      "d": 1486.4373333333206,
      "v": 102
    },
    {
      "midi": 51,
      "hit": false,
      "t": 94059.38966666636,
      "d": 1520.2199999999866,
      "v": 99
    },
    {
      "midi": 79,
      "hit": false,
      "t": 95284.01133333302,
      "d": 371.6093333333265,
      "v": 100
    },
    {
      "midi": 67,
      "hit": false,
      "t": 95685.18049999968,
      "d": 1524.4428333333199,
      "v": 102
    },
    {
      "midi": 48,
      "hit": false,
      "t": 95685.18049999968,
      "d": 1532.8884999999864,
      "v": 103
    },
    {
      "midi": 63,
      "hit": false,
      "t": 95685.18049999968,
      "d": 1532.8884999999864,
      "v": 103
    },
    {
      "midi": 72,
      "hit": false,
      "t": 95689.40333333302,
      "d": 1123.2736666666606,
      "v": 103
    },
    {
      "midi": 74,
      "hit": false,
      "t": 96905.57933333301,
      "d": 371.6093333333265,
      "v": 103
    },
    {
      "midi": 41,
      "hit": false,
      "t": 97302.52566666633,
      "d": 1511.7743333333347,
      "v": 103
    },
    {
      "midi": 57,
      "hit": false,
      "t": 97302.52566666633,
      "d": 1511.7743333333347,
      "v": 103
    },
    {
      "midi": 65,
      "hit": false,
      "t": 97302.52566666633,
      "d": 1511.7743333333347,
      "v": 103
    },
    {
      "midi": 72,
      "hit": false,
      "t": 97306.74849999967,
      "d": 1503.3286666666681,
      "v": 101
    },
    {
      "midi": 41,
      "hit": false,
      "t": 98924.09366666633,
      "d": 1507.5515000000014,
      "v": 103
    },
    {
      "midi": 57,
      "hit": false,
      "t": 98924.09366666633,
      "d": 1507.5515000000014,
      "v": 103
    },
    {
      "midi": 60,
      "hit": false,
      "t": 98924.09366666633,
      "d": 1507.5515000000014,
      "v": 103
    },
    {
      "midi": 65,
      "hit": false,
      "t": 98928.31649999967,
      "d": 1473.7688333333354,
      "v": 101
    },
    {
      "midi": 58,
      "hit": false,
      "t": 100537.21599999967,
      "d": 2132.5308333333232,
      "v": 110
    },
    {
      "midi": 62,
      "hit": false,
      "t": 100537.21599999967,
      "d": 2445.020499999984,
      "v": 107
    },
    {
      "midi": 43,
      "hit": false,
      "t": 100537.21599999967,
      "d": 3027.7714999999735,
      "v": 107
    },
    {
      "midi": 67,
      "hit": false,
      "t": 100537.21599999967,
      "d": 3027.7714999999735,
      "v": 107
    },
    {
      "midi": 55,
      "hit": false,
      "t": 102150.338333333,
      "d": 333.6038333333272,
      "v": 120
    },
    {
      "midi": 57,
      "hit": false,
      "t": 102496.61066666633,
      "d": 240.70149999999558,
      "v": 116
    },
    {
      "midi": 58,
      "hit": false,
      "t": 102775.31766666632,
      "d": 232.25583333332906,
      "v": 117
    },
    {
      "midi": 60,
      "hit": false,
      "t": 103037.13333333298,
      "d": 367.38649999999325,
      "v": 115
    },
    {
      "midi": 62,
      "hit": false,
      "t": 103425.63399999964,
      "d": 342.0494999999937,
      "v": 121
    },
    {
      "midi": 41,
      "hit": false,
      "t": 103776.1291666663,
      "d": 3010.880166666655,
      "v": 111
    },
    {
      "midi": 65,
      "hit": false,
      "t": 103784.57483333297,
      "d": 2981.320333333322,
      "v": 109
    },
    {
      "midi": 57,
      "hit": false,
      "t": 103788.7976666663,
      "d": 1418.872000000003,
      "v": 101
    },
    {
      "midi": 60,
      "hit": false,
      "t": 103831.02599999963,
      "d": 1511.7743333333347,
      "v": 113
    },
    {
      "midi": 57,
      "hit": false,
      "t": 105397.6971666663,
      "d": 316.7124999999942,
      "v": 120
    },
    {
      "midi": 58,
      "hit": false,
      "t": 105739.7466666663,
      "d": 261.81566666666185,
      "v": 116
    },
    {
      "midi": 60,
      "hit": false,
      "t": 106031.12216666629,
      "d": 498.2943333333387,
      "v": 117
    },
    {
      "midi": 58,
      "hit": false,
      "t": 106592.75899999963,
      "d": 219.5873333333293,
      "v": 113
    },
    {
      "midi": 57,
      "hit": false,
      "t": 106833.46049999962,
      "d": 228.0329999999958,
      "v": 111
    },
    {
      "midi": 55,
      "hit": false,
      "t": 107019.26516666629,
      "d": 1448.4318333333358,
      "v": 110
    },
    {
      "midi": 51,
      "hit": false,
      "t": 107019.26516666629,
      "d": 3053.1084999999875,
      "v": 107
    },
    {
      "midi": 63,
      "hit": false,
      "t": 107023.48799999962,
      "d": 3053.1084999999875,
      "v": 107
    },
    {
      "midi": 58,
      "hit": false,
      "t": 107078.38483333295,
      "d": 1486.4373333333351,
      "v": 114
    },
    {
      "midi": 55,
      "hit": false,
      "t": 108636.61033333295,
      "d": 329.38099999999395,
      "v": 120
    },
    {
      "midi": 57,
      "hit": false,
      "t": 108978.65983333295,
      "d": 274.4841666666616,
      "v": 116
    },
    {
      "midi": 58,
      "hit": false,
      "t": 109270.03533333294,
      "d": 515.1856666666718,
      "v": 117
    },
    {
      "midi": 60,
      "hit": false,
      "t": 109835.89499999961,
      "d": 228.0329999999958,
      "v": 113
    },
    {
      "midi": 58,
      "hit": false,
      "t": 110072.37366666627,
      "d": 185.80466666666325,
      "v": 111
    },
    {
      "midi": 58,
      "hit": false,
      "t": 110275.06966666627,
      "d": 29.55983333333279,
      "v": 109
    },
    {
      "midi": 41,
      "hit": false,
      "t": 110275.06966666627,
      "d": 899.463499999998,
      "v": 114
    },
    {
      "midi": 53,
      "hit": false,
      "t": 110275.06966666627,
      "d": 899.463499999998,
      "v": 114
    },
    {
      "midi": 65,
      "hit": false,
      "t": 110279.2924999996,
      "d": 891.0178333333315,
      "v": 113
    },
    {
      "midi": 62,
      "hit": false,
      "t": 110317.2979999996,
      "d": 895.2406666666648,
      "v": 124
    },
    {
      "midi": 41,
      "hit": false,
      "t": 111280.1039999996,
      "d": 185.80466666666325,
      "v": 116
    },
    {
      "midi": 53,
      "hit": false,
      "t": 111280.1039999996,
      "d": 185.80466666666325,
      "v": 116
    },
    {
      "midi": 65,
      "hit": false,
      "t": 111280.1039999996,
      "d": 185.80466666666325,
      "v": 116
    },
    {
      "midi": 58,
      "hit": false,
      "t": 111284.32683333293,
      "d": 185.80466666666325,
      "v": 116
    },
    {
      "midi": 62,
      "hit": false,
      "t": 111284.32683333293,
      "d": 185.80466666666325,
      "v": 116
    },
    {
      "midi": 65,
      "hit": false,
      "t": 111681.27316666626,
      "d": 1672.2419999999984,
      "v": 118
    },
    {
      "midi": 41,
      "hit": false,
      "t": 111689.71883333292,
      "d": 1672.2419999999984,
      "v": 116
    },
    {
      "midi": 53,
      "hit": false,
      "t": 111689.71883333292,
      "d": 1672.2419999999984,
      "v": 116
    },
    {
      "midi": 60,
      "hit": false,
      "t": 111689.71883333292,
      "d": 1672.2419999999984,
      "v": 109
    },
    {
      "midi": 57,
      "hit": false,
      "t": 111693.94166666626,
      "d": 1672.2419999999984,
      "v": 109
    },
    {
      "midi": 67,
      "hit": false,
      "t": 113509.76,
      "d": 270.26133333332837,
      "v": 74
    },
    {
      "midi": 79,
      "hit": false,
      "t": 113509.76,
      "d": 270.26133333332837,
      "v": 78
    },
    {
      "midi": 82,
      "hit": false,
      "t": 113712.45599999999,
      "d": 308.26683333332767,
      "v": 83
    },
    {
      "midi": 70,
      "hit": false,
      "t": 113716.67883333332,
      "d": 304.0439999999944,
      "v": 79
    },
    {
      "midi": 86,
      "hit": false,
      "t": 114122.07083333332,
      "d": 337.82666666666046,
      "v": 83
    },
    {
      "midi": 74,
      "hit": false,
      "t": 114126.29366666665,
      "d": 337.82666666666046,
      "v": 79
    },
    {
      "midi": 91,
      "hit": false,
      "t": 114527.46283333331,
      "d": 316.7124999999942,
      "v": 80
    },
    {
      "midi": 79,
      "hit": false,
      "t": 114535.90849999998,
      "d": 316.7124999999942,
      "v": 76
    },
    {
      "midi": 79,
      "hit": false,
      "t": 114932.8548333333,
      "d": 320.93533333332743,
      "v": 82
    },
    {
      "midi": 91,
      "hit": false,
      "t": 114937.07766666664,
      "d": 325.1581666666607,
      "v": 86
    },
    {
      "midi": 77,
      "hit": false,
      "t": 115342.46966666663,
      "d": 320.93533333332743,
      "v": 74
    },
    {
      "midi": 89,
      "hit": false,
      "t": 115342.46966666663,
      "d": 320.93533333332743,
      "v": 78
    },
    {
      "midi": 72,
      "hit": false,
      "t": 115739.41599999995,
      "d": 358.94083333332674,
      "v": 72
    },
    {
      "midi": 84,
      "hit": false,
      "t": 115743.63883333329,
      "d": 358.94083333332674,
      "v": 76
    },
    {
      "midi": 69,
      "hit": false,
      "t": 116144.80799999995,
      "d": 380.054999999993,
      "v": 77
    },
    {
      "midi": 81,
      "hit": false,
      "t": 116153.25366666661,
      "d": 380.054999999993,
      "v": 81
    },
    {
      "midi": 75,
      "hit": false,
      "t": 116748.6731666666,
      "d": 270.26133333332837,
      "v": 81
    },
    {
      "midi": 63,
      "hit": false,
      "t": 116752.89599999994,
      "d": 270.26133333332837,
      "v": 78
    },
    {
      "midi": 67,
      "hit": false,
      "t": 116951.3691666666,
      "d": 308.26683333332767,
      "v": 83
    },
    {
      "midi": 79,
      "hit": false,
      "t": 116959.81483333326,
      "d": 308.26683333332767,
      "v": 87
    },
    {
      "midi": 72,
      "hit": false,
      "t": 117360.98399999992,
      "d": 342.0494999999937,
      "v": 83
    },
    {
      "midi": 84,
      "hit": false,
      "t": 117360.98399999992,
      "d": 342.0494999999937,
      "v": 87
    },
    {
      "midi": 75,
      "hit": false,
      "t": 117770.59883333325,
      "d": 312.4896666666609,
      "v": 80
    },
    {
      "midi": 87,
      "hit": false,
      "t": 117770.59883333325,
      "d": 312.4896666666609,
      "v": 84
    },
    {
      "midi": 75,
      "hit": false,
      "t": 118180.21366666658,
      "d": 325.1581666666607,
      "v": 86
    },
    {
      "midi": 87,
      "hit": false,
      "t": 118184.43649999991,
      "d": 325.1581666666607,
      "v": 90
    },
    {
      "midi": 74,
      "hit": false,
      "t": 118581.38283333323,
      "d": 316.7124999999942,
      "v": 78
    },
    {
      "midi": 86,
      "hit": false,
      "t": 118589.8284999999,
      "d": 320.93533333332743,
      "v": 82
    },
    {
      "midi": 70,
      "hit": false,
      "t": 118978.32916666656,
      "d": 358.94083333332674,
      "v": 76
    },
    {
      "midi": 82,
      "hit": false,
      "t": 118990.99766666656,
      "d": 358.94083333332674,
      "v": 80
    },
    {
      "midi": 77,
      "hit": false,
      "t": 119387.94399999989,
      "d": 375.83216666665976,
      "v": 85
    },
    {
      "midi": 65,
      "hit": false,
      "t": 119392.16683333322,
      "d": 375.83216666665976,
      "v": 81
    },
    {
      "midi": 75,
      "hit": false,
      "t": 119801.78166666625,
      "d": 1325.9696666666714,
      "v": 92
    },
    {
      "midi": 67,
      "hit": false,
      "t": 119801.78166666625,
      "d": 1689.1333333333314,
      "v": 95
    },
    {
      "midi": 70,
      "hit": false,
      "t": 119801.78166666625,
      "d": 1689.1333333333314,
      "v": 95
    },
    {
      "midi": 51,
      "hit": false,
      "t": 119801.78166666625,
      "d": 1722.9159999999974,
      "v": 92
    },
    {
      "midi": 79,
      "hit": false,
      "t": 121229.09933333292,
      "d": 367.38649999999325,
      "v": 94
    },
    {
      "midi": 67,
      "hit": false,
      "t": 121630.26849999958,
      "d": 1524.4428333333199,
      "v": 96
    },
    {
      "midi": 48,
      "hit": false,
      "t": 121630.26849999958,
      "d": 1532.8884999999864,
      "v": 97
    },
    {
      "midi": 63,
      "hit": false,
      "t": 121630.26849999958,
      "d": 1532.8884999999864,
      "v": 97
    },
    {
      "midi": 72,
      "hit": false,
      "t": 121634.49133333292,
      "d": 1123.2736666666606,
      "v": 97
    },
    {
      "midi": 74,
      "hit": false,
      "t": 122850.66733333291,
      "d": 371.6093333333265,
      "v": 97
    },
    {
      "midi": 41,
      "hit": false,
      "t": 123247.61366666624,
      "d": 1511.7743333333347,
      "v": 97
    },
    {
      "midi": 57,
      "hit": false,
      "t": 123247.61366666624,
      "d": 1511.7743333333347,
      "v": 97
    },
    {
      "midi": 65,
      "hit": false,
      "t": 123247.61366666624,
      "d": 1511.7743333333347,
      "v": 97
    },
    {
      "midi": 72,
      "hit": false,
      "t": 123251.83649999957,
      "d": 1503.3286666666681,
      "v": 95
    },
    {
      "midi": 41,
      "hit": false,
      "t": 124869.18166666623,
      "d": 1511.77433333332,
      "v": 97
    },
    {
      "midi": 57,
      "hit": false,
      "t": 124869.18166666623,
      "d": 1511.77433333332,
      "v": 97
    },
    {
      "midi": 60,
      "hit": false,
      "t": 124869.18166666623,
      "d": 1511.77433333332,
      "v": 97
    },
    {
      "midi": 65,
      "hit": false,
      "t": 124873.40449999957,
      "d": 1477.991666666654,
      "v": 95
    },
    {
      "midi": 69,
      "hit": false,
      "t": 125886.88449999956,
      "d": 477.1801666666579,
      "v": 111
    },
    {
      "midi": 72,
      "hit": false,
      "t": 126093.8033333329,
      "d": 236.47866666666232,
      "v": 109
    },
    {
      "midi": 77,
      "hit": false,
      "t": 126300.72216666622,
      "d": 173.13616666666348,
      "v": 108
    },
    {
      "midi": 79,
      "hit": false,
      "t": 126482.30399999989,
      "d": 270.26133333332837,
      "v": 72
    },
    {
      "midi": 43,
      "hit": false,
      "t": 126490.74966666622,
      "d": 1473.7688333333354,
      "v": 94
    },
    {
      "midi": 62,
      "hit": false,
      "t": 126490.74966666622,
      "d": 1473.7688333333354,
      "v": 97
    },
    {
      "midi": 70,
      "hit": false,
      "t": 126490.74966666622,
      "d": 1473.7688333333354,
      "v": 97
    },
    {
      "midi": 74,
      "hit": false,
      "t": 126490.74966666622,
      "d": 1473.7688333333354,
      "v": 94
    },
    {
      "midi": 79,
      "hit": false,
      "t": 126490.74966666622,
      "d": 1473.7688333333354,
      "v": 94
    },
    {
      "midi": 82,
      "hit": false,
      "t": 126684.99999999988,
      "d": 308.26683333332767,
      "v": 77
    },
    {
      "midi": 86,
      "hit": false,
      "t": 127094.61483333321,
      "d": 337.82666666666046,
      "v": 77
    },
    {
      "midi": 91,
      "hit": false,
      "t": 127500.0068333332,
      "d": 316.7124999999942,
      "v": 73
    },
    {
      "midi": 91,
      "hit": false,
      "t": 127909.62166666653,
      "d": 312.4896666666609,
      "v": 79
    },
    {
      "midi": 60,
      "hit": false,
      "t": 128116.54049999955,
      "d": 1410.4263333333365,
      "v": 97
    },
    {
      "midi": 69,
      "hit": false,
      "t": 128116.54049999955,
      "d": 1410.4263333333365,
      "v": 97
    },
    {
      "midi": 72,
      "hit": false,
      "t": 128116.54049999955,
      "d": 1410.4263333333365,
      "v": 97
    },
    {
      "midi": 77,
      "hit": false,
      "t": 128116.54049999955,
      "d": 1410.4263333333365,
      "v": 97
    },
    {
      "midi": 45,
      "hit": false,
      "t": 128116.54049999955,
      "d": 1494.8830000000016,
      "v": 98
    },
    {
      "midi": 89,
      "hit": false,
      "t": 128315.01366666652,
      "d": 316.7124999999942,
      "v": 70
    },
    {
      "midi": 84,
      "hit": false,
      "t": 128716.18283333318,
      "d": 358.94083333332674,
      "v": 68
    },
    {
      "midi": 81,
      "hit": false,
      "t": 129125.7976666665,
      "d": 380.054999999993,
      "v": 72
    },
    {
      "midi": 84,
      "hit": false,
      "t": 129526.96683333316,
      "d": 177.35899999999674,
      "v": 55
    },
    {
      "midi": 87,
      "hit": false,
      "t": 129721.2171666665,
      "d": 565.8596666666708,
      "v": 73
    },
    {
      "midi": 48,
      "hit": false,
      "t": 129733.88566666622,
      "d": 1520.2199999999866,
      "v": 98
    },
    {
      "midi": 60,
      "hit": false,
      "t": 129733.88566666622,
      "d": 1520.2199999999866,
      "v": 98
    },
    {
      "midi": 67,
      "hit": false,
      "t": 129733.88566666622,
      "d": 1520.2199999999866,
      "v": 98
    },
    {
      "midi": 72,
      "hit": false,
      "t": 129738.10849999955,
      "d": 1486.4373333333206,
      "v": 96
    },
    {
      "midi": 75,
      "hit": false,
      "t": 129746.55416666622,
      "d": 1439.9861666666548,
      "v": 86
    },
    {
      "midi": 84,
      "hit": false,
      "t": 130333.52799999983,
      "d": 333.6038333333272,
      "v": 77
    },
    {
      "midi": 87,
      "hit": false,
      "t": 130743.14283333316,
      "d": 312.4896666666609,
      "v": 73
    },
    {
      "midi": 87,
      "hit": false,
      "t": 131156.98049999983,
      "d": 320.93533333332743,
      "v": 79
    },
    {
      "midi": 46,
      "hit": false,
      "t": 131355.4536666662,
      "d": 1515.997166666668,
      "v": 98
    },
    {
      "midi": 65,
      "hit": false,
      "t": 131355.4536666662,
      "d": 1515.997166666668,
      "v": 98
    },
    {
      "midi": 70,
      "hit": false,
      "t": 131355.4536666662,
      "d": 1515.997166666668,
      "v": 98
    },
    {
      "midi": 74,
      "hit": false,
      "t": 131355.4536666662,
      "d": 1515.997166666668,
      "v": 98
    },
    {
      "midi": 86,
      "hit": false,
      "t": 131562.37249999982,
      "d": 316.7124999999942,
      "v": 70
    },
    {
      "midi": 82,
      "hit": false,
      "t": 131963.54166666648,
      "d": 857.23516666668,
      "v": 68
    },
    {
      "midi": 75,
      "hit": false,
      "t": 132977.0216666662,
      "d": 1123.2736666666751,
      "v": 94
    },
    {
      "midi": 67,
      "hit": false,
      "t": 132977.0216666662,
      "d": 1486.4373333333351,
      "v": 97
    },
    {
      "midi": 70,
      "hit": false,
      "t": 132977.0216666662,
      "d": 1486.4373333333351,
      "v": 97
    },
    {
      "midi": 51,
      "hit": false,
      "t": 132977.0216666662,
      "d": 1520.2200000000012,
      "v": 94
    },
    {
      "midi": 79,
      "hit": false,
      "t": 134201.64333333288,
      "d": 371.6093333333265,
      "v": 95
    },
    {
      "midi": 67,
      "hit": false,
      "t": 134602.81249999953,
      "d": 1524.4428333333344,
      "v": 97
    },
    {
      "midi": 48,
      "hit": false,
      "t": 134602.81249999953,
      "d": 1532.888500000001,
      "v": 98
    },
    {
      "midi": 63,
      "hit": false,
      "t": 134602.81249999953,
      "d": 1532.888500000001,
      "v": 98
    },
    {
      "midi": 72,
      "hit": false,
      "t": 134607.03533333287,
      "d": 1123.2736666666751,
      "v": 98
    },
    {
      "midi": 74,
      "hit": false,
      "t": 135823.21133333287,
      "d": 371.6093333333265,
      "v": 98
    },
    {
      "midi": 41,
      "hit": false,
      "t": 136220.1576666662,
      "d": 1511.7743333333347,
      "v": 98
    },
    {
      "midi": 57,
      "hit": false,
      "t": 136220.1576666662,
      "d": 1511.7743333333347,
      "v": 98
    },
    {
      "midi": 65,
      "hit": false,
      "t": 136220.1576666662,
      "d": 1511.7743333333347,
      "v": 98
    },
    {
      "midi": 72,
      "hit": false,
      "t": 136224.38049999953,
      "d": 1503.3286666666681,
      "v": 96
    },
    {
      "midi": 41,
      "hit": false,
      "t": 137841.7256666662,
      "d": 1507.5515000000014,
      "v": 98
    },
    {
      "midi": 57,
      "hit": false,
      "t": 137841.7256666662,
      "d": 1507.5515000000014,
      "v": 98
    },
    {
      "midi": 60,
      "hit": false,
      "t": 137841.7256666662,
      "d": 1507.5515000000014,
      "v": 98
    },
    {
      "midi": 65,
      "hit": false,
      "t": 137845.94849999953,
      "d": 1473.7688333333354,
      "v": 96
    },
    {
      "midi": 69,
      "hit": false,
      "t": 138859.42849999954,
      "d": 472.95733333332464,
      "v": 112
    },
    {
      "midi": 72,
      "hit": false,
      "t": 139066.34733333287,
      "d": 232.25583333332906,
      "v": 108
    },
    {
      "midi": 77,
      "hit": false,
      "t": 139273.2661666662,
      "d": 168.91333333333023,
      "v": 102
    },
    {
      "midi": 67,
      "hit": false,
      "t": 139454.84799999982,
      "d": 266.0384999999951,
      "v": 84
    },
    {
      "midi": 79,
      "hit": false,
      "t": 139454.84799999982,
      "d": 266.0384999999951,
      "v": 88
    },
    {
      "midi": 43,
      "hit": false,
      "t": 139463.2936666662,
      "d": 1461.1003333333356,
      "v": 94
    },
    {
      "midi": 62,
      "hit": false,
      "t": 139463.2936666662,
      "d": 1461.1003333333356,
      "v": 97
    },
    {
      "midi": 70,
      "hit": false,
      "t": 139463.2936666662,
      "d": 1461.1003333333356,
      "v": 97
    },
    {
      "midi": 74,
      "hit": false,
      "t": 139463.2936666662,
      "d": 1461.1003333333356,
      "v": 94
    },
    {
      "midi": 79,
      "hit": false,
      "t": 139463.2936666662,
      "d": 1461.1003333333356,
      "v": 94
    },
    {
      "midi": 82,
      "hit": false,
      "t": 139657.54399999982,
      "d": 304.0439999999944,
      "v": 93
    },
    {
      "midi": 70,
      "hit": false,
      "t": 139661.76683333315,
      "d": 304.0439999999944,
      "v": 89
    },
    {
      "midi": 86,
      "hit": false,
      "t": 140067.15883333315,
      "d": 337.82666666666046,
      "v": 93
    },
    {
      "midi": 74,
      "hit": false,
      "t": 140071.38166666648,
      "d": 337.82666666666046,
      "v": 89
    },
    {
      "midi": 91,
      "hit": false,
      "t": 140472.55083333314,
      "d": 316.7124999999942,
      "v": 89
    },
    {
      "midi": 79,
      "hit": false,
      "t": 140480.9964999998,
      "d": 316.7124999999942,
      "v": 85
    },
    {
      "midi": 79,
      "hit": false,
      "t": 140877.94283333313,
      "d": 308.26683333332767,
      "v": 91
    },
    {
      "midi": 91,
      "hit": false,
      "t": 140882.16566666646,
      "d": 312.4896666666609,
      "v": 95
    },
    {
      "midi": 60,
      "hit": false,
      "t": 141089.08449999953,
      "d": 1414.6491666666698,
      "v": 97
    },
    {
      "midi": 69,
      "hit": false,
      "t": 141089.08449999953,
      "d": 1414.6491666666698,
      "v": 97
    },
    {
      "midi": 72,
      "hit": false,
      "t": 141089.08449999953,
      "d": 1414.6491666666698,
      "v": 97
    },
    {
      "midi": 77,
      "hit": false,
      "t": 141089.08449999953,
      "d": 1414.6491666666698,
      "v": 97
    },
    {
      "midi": 45,
      "hit": false,
      "t": 141089.08449999953,
      "d": 1499.1058333333349,
      "v": 98
    },
    {
      "midi": 77,
      "hit": false,
      "t": 141287.55766666646,
      "d": 320.93533333332743,
      "v": 82
    },
    {
      "midi": 89,
      "hit": false,
      "t": 141287.55766666646,
      "d": 320.93533333332743,
      "v": 86
    },
    {
      "midi": 72,
      "hit": false,
      "t": 141684.50399999978,
      "d": 358.94083333332674,
      "v": 80
    },
    {
      "midi": 84,
      "hit": false,
      "t": 141688.72683333312,
      "d": 358.94083333332674,
      "v": 84
    },
    {
      "midi": 69,
      "hit": false,
      "t": 142089.89599999978,
      "d": 380.054999999993,
      "v": 84
    },
    {
      "midi": 81,
      "hit": false,
      "t": 142098.34166666644,
      "d": 380.054999999993,
      "v": 88
    },
    {
      "midi": 87,
      "hit": false,
      "t": 142693.76116666643,
      "d": 544.74549999999,
      "v": 88
    },
    {
      "midi": 75,
      "hit": false,
      "t": 142697.98399999976,
      "d": 544.74549999999,
      "v": 84
    },
    {
      "midi": 48,
      "hit": false,
      "t": 142706.4296666662,
      "d": 1520.2200000000012,
      "v": 98
    },
    {
      "midi": 60,
      "hit": false,
      "t": 142706.4296666662,
      "d": 1520.2200000000012,
      "v": 98
    },
    {
      "midi": 67,
      "hit": false,
      "t": 142706.4296666662,
      "d": 1520.2200000000012,
      "v": 98
    },
    {
      "midi": 72,
      "hit": false,
      "t": 142710.65249999953,
      "d": 1486.4373333333351,
      "v": 96
    },
    {
      "midi": 75,
      "hit": false,
      "t": 142719.0981666662,
      "d": 1439.9861666666693,
      "v": 86
    },
    {
      "midi": 72,
      "hit": false,
      "t": 143306.07199999975,
      "d": 337.82666666666046,
      "v": 89
    },
    {
      "midi": 84,
      "hit": false,
      "t": 143306.07199999975,
      "d": 337.82666666666046,
      "v": 93
    },
    {
      "midi": 75,
      "hit": false,
      "t": 143715.68683333308,
      "d": 312.4896666666609,
      "v": 85
    },
    {
      "midi": 87,
      "hit": false,
      "t": 143715.68683333308,
      "d": 312.4896666666609,
      "v": 89
    },
    {
      "midi": 75,
      "hit": false,
      "t": 144125.3016666664,
      "d": 320.93533333332743,
      "v": 91
    },
    {
      "midi": 87,
      "hit": false,
      "t": 144129.52449999974,
      "d": 320.93533333332743,
      "v": 95
    },
    {
      "midi": 46,
      "hit": false,
      "t": 144327.9976666662,
      "d": 1503.3286666666681,
      "v": 98
    },
    {
      "midi": 65,
      "hit": false,
      "t": 144327.9976666662,
      "d": 1503.3286666666681,
      "v": 98
    },
    {
      "midi": 70,
      "hit": false,
      "t": 144327.9976666662,
      "d": 1503.3286666666681,
      "v": 98
    },
    {
      "midi": 74,
      "hit": false,
      "t": 144327.9976666662,
      "d": 1503.3286666666681,
      "v": 98
    },
    {
      "midi": 74,
      "hit": false,
      "t": 144526.47083333306,
      "d": 316.7124999999942,
      "v": 82
    },
    {
      "midi": 86,
      "hit": false,
      "t": 144534.91649999973,
      "d": 320.93533333332743,
      "v": 86
    },
    {
      "midi": 70,
      "hit": false,
      "t": 144923.4171666664,
      "d": 354.7179999999935,
      "v": 80
    },
    {
      "midi": 82,
      "hit": false,
      "t": 144936.0856666664,
      "d": 354.7179999999935,
      "v": 84
    },
    {
      "midi": 77,
      "hit": false,
      "t": 145333.03199999972,
      "d": 375.83216666665976,
      "v": 88
    },
    {
      "midi": 65,
      "hit": false,
      "t": 145337.25483333305,
      "d": 375.83216666665976,
      "v": 84
    },
    {
      "midi": 75,
      "hit": false,
      "t": 145949.5656666662,
      "d": 1123.2736666666751,
      "v": 94
    },
    {
      "midi": 67,
      "hit": false,
      "t": 145949.5656666662,
      "d": 1486.4373333333351,
      "v": 97
    },
    {
      "midi": 70,
      "hit": false,
      "t": 145949.5656666662,
      "d": 1486.4373333333351,
      "v": 97
    },
    {
      "midi": 51,
      "hit": false,
      "t": 145949.5656666662,
      "d": 1520.2200000000012,
      "v": 94
    },
    {
      "midi": 79,
      "hit": false,
      "t": 147174.18733333287,
      "d": 371.6093333333265,
      "v": 95
    },
    {
      "midi": 67,
      "hit": false,
      "t": 147575.35649999953,
      "d": 1524.4428333333344,
      "v": 97
    },
    {
      "midi": 48,
      "hit": false,
      "t": 147575.35649999953,
      "d": 1532.888500000001,
      "v": 98
    },
    {
      "midi": 63,
      "hit": false,
      "t": 147575.35649999953,
      "d": 1532.888500000001,
      "v": 98
    },
    {
      "midi": 72,
      "hit": false,
      "t": 147579.57933333286,
      "d": 1123.2736666666751,
      "v": 98
    },
    {
      "midi": 74,
      "hit": false,
      "t": 148795.75533333287,
      "d": 371.6093333333265,
      "v": 98
    },
    {
      "midi": 41,
      "hit": false,
      "t": 149192.7016666662,
      "d": 1511.7743333333347,
      "v": 98
    },
    {
      "midi": 57,
      "hit": false,
      "t": 149192.7016666662,
      "d": 1511.7743333333347,
      "v": 98
    },
    {
      "midi": 65,
      "hit": false,
      "t": 149192.7016666662,
      "d": 1511.7743333333347,
      "v": 98
    },
    {
      "midi": 72,
      "hit": false,
      "t": 149196.92449999953,
      "d": 1503.3286666666681,
      "v": 96
    },
    {
      "midi": 41,
      "hit": false,
      "t": 150814.2696666662,
      "d": 1507.5515000000014,
      "v": 98
    },
    {
      "midi": 57,
      "hit": false,
      "t": 150814.2696666662,
      "d": 1507.5515000000014,
      "v": 98
    },
    {
      "midi": 60,
      "hit": false,
      "t": 150814.2696666662,
      "d": 1507.5515000000014,
      "v": 98
    },
    {
      "midi": 65,
      "hit": false,
      "t": 150818.49249999953,
      "d": 1473.7688333333354,
      "v": 96
    },
    {
      "midi": 69,
      "hit": false,
      "t": 151831.97249999954,
      "d": 472.95733333332464,
      "v": 115
    },
    {
      "midi": 72,
      "hit": false,
      "t": 152038.89133333287,
      "d": 232.25583333332906,
      "v": 116
    },
    {
      "midi": 77,
      "hit": false,
      "t": 152245.8101666662,
      "d": 168.91333333333023,
      "v": 111
    },
    {
      "midi": 79,
      "hit": false,
      "t": 152427.3919999997,
      "d": 270.26133333332837,
      "v": 72
    },
    {
      "midi": 43,
      "hit": false,
      "t": 152435.8376666662,
      "d": 1473.7688333333354,
      "v": 94
    },
    {
      "midi": 62,
      "hit": false,
      "t": 152435.8376666662,
      "d": 1473.7688333333354,
      "v": 97
    },
    {
      "midi": 70,
      "hit": false,
      "t": 152435.8376666662,
      "d": 1473.7688333333354,
      "v": 97
    },
    {
      "midi": 74,
      "hit": false,
      "t": 152435.8376666662,
      "d": 1473.7688333333354,
      "v": 94
    },
    {
      "midi": 79,
      "hit": false,
      "t": 152435.8376666662,
      "d": 1473.7688333333354,
      "v": 94
    },
    {
      "midi": 82,
      "hit": false,
      "t": 152630.0879999997,
      "d": 308.26683333332767,
      "v": 77
    },
    {
      "midi": 86,
      "hit": false,
      "t": 153039.70283333302,
      "d": 337.82666666666046,
      "v": 77
    },
    {
      "midi": 91,
      "hit": false,
      "t": 153445.09483333302,
      "d": 316.7124999999942,
      "v": 73
    },
    {
      "midi": 91,
      "hit": false,
      "t": 153854.70966666634,
      "d": 312.4896666666609,
      "v": 79
    },
    {
      "midi": 60,
      "hit": false,
      "t": 154061.62849999953,
      "d": 1410.4263333333365,
      "v": 97
    },
    {
      "midi": 69,
      "hit": false,
      "t": 154061.62849999953,
      "d": 1410.4263333333365,
      "v": 97
    },
    {
      "midi": 72,
      "hit": false,
      "t": 154061.62849999953,
      "d": 1410.4263333333365,
      "v": 97
    },
    {
      "midi": 77,
      "hit": false,
      "t": 154061.62849999953,
      "d": 1410.4263333333365,
      "v": 97
    },
    {
      "midi": 45,
      "hit": false,
      "t": 154061.62849999953,
      "d": 1494.8830000000016,
      "v": 98
    },
    {
      "midi": 89,
      "hit": false,
      "t": 154260.10166666633,
      "d": 316.7124999999942,
      "v": 70
    },
    {
      "midi": 84,
      "hit": false,
      "t": 154661.270833333,
      "d": 358.94083333332674,
      "v": 68
    },
    {
      "midi": 81,
      "hit": false,
      "t": 155070.88566666632,
      "d": 380.054999999993,
      "v": 72
    },
    {
      "midi": 84,
      "hit": false,
      "t": 155472.05483333298,
      "d": 177.35899999999674,
      "v": 55
    },
    {
      "midi": 87,
      "hit": false,
      "t": 155666.3051666663,
      "d": 565.8596666666563,
      "v": 73
    },
    {
      "midi": 48,
      "hit": false,
      "t": 155678.9736666662,
      "d": 1520.2200000000012,
      "v": 98
    },
    {
      "midi": 60,
      "hit": false,
      "t": 155678.9736666662,
      "d": 1520.2200000000012,
      "v": 98
    },
    {
      "midi": 67,
      "hit": false,
      "t": 155678.9736666662,
      "d": 1520.2200000000012,
      "v": 98
    },
    {
      "midi": 72,
      "hit": false,
      "t": 155683.19649999953,
      "d": 1486.4373333333351,
      "v": 96
    },
    {
      "midi": 75,
      "hit": false,
      "t": 155691.6421666662,
      "d": 1439.9861666666693,
      "v": 86
    },
    {
      "midi": 84,
      "hit": false,
      "t": 156278.61599999963,
      "d": 333.6038333333272,
      "v": 77
    },
    {
      "midi": 87,
      "hit": false,
      "t": 156688.23083333296,
      "d": 312.4896666666609,
      "v": 73
    },
    {
      "midi": 87,
      "hit": false,
      "t": 157102.06849999962,
      "d": 320.93533333332743,
      "v": 79
    },
    {
      "midi": 46,
      "hit": false,
      "t": 157300.5416666662,
      "d": 1515.997166666668,
      "v": 98
    },
    {
      "midi": 65,
      "hit": false,
      "t": 157300.5416666662,
      "d": 1515.997166666668,
      "v": 98
    },
    {
      "midi": 70,
      "hit": false,
      "t": 157300.5416666662,
      "d": 1515.997166666668,
      "v": 98
    },
    {
      "midi": 74,
      "hit": false,
      "t": 157300.5416666662,
      "d": 1515.997166666668,
      "v": 98
    },
    {
      "midi": 86,
      "hit": false,
      "t": 157507.4604999996,
      "d": 316.7124999999942,
      "v": 70
    },
    {
      "midi": 82,
      "hit": false,
      "t": 157908.62966666627,
      "d": 857.23516666668,
      "v": 68
    },
    {
      "midi": 75,
      "hit": false,
      "t": 158922.1096666662,
      "d": 1123.2736666666751,
      "v": 94
    },
    {
      "midi": 67,
      "hit": false,
      "t": 158922.1096666662,
      "d": 1486.4373333333351,
      "v": 97
    },
    {
      "midi": 70,
      "hit": false,
      "t": 158922.1096666662,
      "d": 1486.4373333333351,
      "v": 97
    },
    {
      "midi": 51,
      "hit": false,
      "t": 158922.1096666662,
      "d": 1520.2200000000012,
      "v": 94
    },
    {
      "midi": 79,
      "hit": false,
      "t": 160146.73133333286,
      "d": 371.6093333333265,
      "v": 95
    },
    {
      "midi": 67,
      "hit": false,
      "t": 160547.90049999952,
      "d": 1524.4428333333344,
      "v": 97
    },
    {
      "midi": 48,
      "hit": false,
      "t": 160547.90049999952,
      "d": 1532.888500000001,
      "v": 98
    },
    {
      "midi": 63,
      "hit": false,
      "t": 160547.90049999952,
      "d": 1532.888500000001,
      "v": 98
    },
    {
      "midi": 72,
      "hit": false,
      "t": 160552.12333333286,
      "d": 1123.2736666666751,
      "v": 98
    },
    {
      "midi": 74,
      "hit": false,
      "t": 161768.29933333286,
      "d": 371.6093333333265,
      "v": 98
    },
    {
      "midi": 41,
      "hit": false,
      "t": 162165.2456666662,
      "d": 1511.7743333333347,
      "v": 98
    },
    {
      "midi": 57,
      "hit": false,
      "t": 162165.2456666662,
      "d": 1511.7743333333347,
      "v": 98
    },
    {
      "midi": 65,
      "hit": false,
      "t": 162165.2456666662,
      "d": 1511.7743333333347,
      "v": 98
    },
    {
      "midi": 72,
      "hit": false,
      "t": 162169.46849999952,
      "d": 1503.3286666666681,
      "v": 96
    },
    {
      "midi": 41,
      "hit": false,
      "t": 163786.8136666662,
      "d": 1507.5515000000014,
      "v": 98
    },
    {
      "midi": 57,
      "hit": false,
      "t": 163786.8136666662,
      "d": 1507.5515000000014,
      "v": 98
    },
    {
      "midi": 60,
      "hit": false,
      "t": 163786.8136666662,
      "d": 1507.5515000000014,
      "v": 98
    },
    {
      "midi": 65,
      "hit": false,
      "t": 163791.03649999952,
      "d": 1473.7688333333354,
      "v": 96
    },
    {
      "midi": 69,
      "hit": false,
      "t": 164804.51649999953,
      "d": 472.95733333332464,
      "v": 112
    },
    {
      "midi": 72,
      "hit": false,
      "t": 165011.43533333286,
      "d": 232.25583333332906,
      "v": 108
    },
    {
      "midi": 77,
      "hit": false,
      "t": 165218.3541666662,
      "d": 168.91333333333023,
      "v": 102
    },
    {
      "midi": 79,
      "hit": false,
      "t": 165399.9359999996,
      "d": 270.26133333332837,
      "v": 73
    },
    {
      "midi": 43,
      "hit": false,
      "t": 165408.3816666662,
      "d": 1473.7688333333354,
      "v": 95
    },
    {
      "midi": 62,
      "hit": false,
      "t": 165408.3816666662,
      "d": 1473.7688333333354,
      "v": 98
    },
    {
      "midi": 70,
      "hit": false,
      "t": 165408.3816666662,
      "d": 1473.7688333333354,
      "v": 98
    },
    {
      "midi": 74,
      "hit": false,
      "t": 165408.3816666662,
      "d": 1473.7688333333354,
      "v": 95
    },
    {
      "midi": 79,
      "hit": false,
      "t": 165408.3816666662,
      "d": 1473.7688333333354,
      "v": 95
    },
    {
      "midi": 82,
      "hit": false,
      "t": 165602.6319999996,
      "d": 308.26683333332767,
      "v": 78
    },
    {
      "midi": 86,
      "hit": false,
      "t": 166012.24683333293,
      "d": 337.82666666666046,
      "v": 78
    },
    {
      "midi": 91,
      "hit": false,
      "t": 166417.63883333292,
      "d": 316.7124999999942,
      "v": 74
    },
    {
      "midi": 91,
      "hit": false,
      "t": 166827.25366666625,
      "d": 312.4896666666609,
      "v": 80
    },
    {
      "midi": 60,
      "hit": false,
      "t": 167034.17249999952,
      "d": 1410.4263333333365,
      "v": 98
    },
    {
      "midi": 69,
      "hit": false,
      "t": 167034.17249999952,
      "d": 1410.4263333333365,
      "v": 98
    },
    {
      "midi": 72,
      "hit": false,
      "t": 167034.17249999952,
      "d": 1410.4263333333365,
      "v": 98
    },
    {
      "midi": 77,
      "hit": false,
      "t": 167034.17249999952,
      "d": 1410.4263333333365,
      "v": 98
    },
    {
      "midi": 45,
      "hit": false,
      "t": 167034.17249999952,
      "d": 1494.8830000000016,
      "v": 99
    },
    {
      "midi": 89,
      "hit": false,
      "t": 167232.64566666624,
      "d": 316.7124999999942,
      "v": 71
    },
    {
      "midi": 84,
      "hit": false,
      "t": 167633.8148333329,
      "d": 358.94083333332674,
      "v": 69
    },
    {
      "midi": 81,
      "hit": false,
      "t": 168043.42966666623,
      "d": 380.054999999993,
      "v": 73
    },
    {
      "midi": 84,
      "hit": false,
      "t": 168444.5988333329,
      "d": 177.35899999999674,
      "v": 56
    },
    {
      "midi": 87,
      "hit": false,
      "t": 168638.84916666622,
      "d": 565.8596666666563,
      "v": 74
    },
    {
      "midi": 48,
      "hit": false,
      "t": 168651.5176666662,
      "d": 1520.2200000000012,
      "v": 99
    },
    {
      "midi": 60,
      "hit": false,
      "t": 168651.5176666662,
      "d": 1520.2200000000012,
      "v": 99
    },
    {
      "midi": 67,
      "hit": false,
      "t": 168651.5176666662,
      "d": 1520.2200000000012,
      "v": 99
    },
    {
      "midi": 72,
      "hit": false,
      "t": 168655.74049999952,
      "d": 1486.4373333333351,
      "v": 97
    },
    {
      "midi": 75,
      "hit": false,
      "t": 168664.1861666662,
      "d": 1439.9861666666693,
      "v": 87
    },
    {
      "midi": 84,
      "hit": false,
      "t": 169251.15999999954,
      "d": 333.6038333333272,
      "v": 78
    },
    {
      "midi": 87,
      "hit": false,
      "t": 169660.77483333286,
      "d": 312.4896666666609,
      "v": 74
    },
    {
      "midi": 87,
      "hit": false,
      "t": 170074.61249999952,
      "d": 320.93533333332743,
      "v": 80
    },
    {
      "midi": 46,
      "hit": false,
      "t": 170273.0856666662,
      "d": 1515.997166666668,
      "v": 99
    },
    {
      "midi": 65,
      "hit": false,
      "t": 170273.0856666662,
      "d": 1515.997166666668,
      "v": 99
    },
    {
      "midi": 70,
      "hit": false,
      "t": 170273.0856666662,
      "d": 1515.997166666668,
      "v": 99
    },
    {
      "midi": 74,
      "hit": false,
      "t": 170273.0856666662,
      "d": 1515.997166666668,
      "v": 99
    },
    {
      "midi": 75,
      "hit": false,
      "t": 171894.65366666619,
      "d": 1123.2736666666751,
      "v": 95
    },
    {
      "midi": 67,
      "hit": false,
      "t": 171894.65366666619,
      "d": 1486.4373333333351,
      "v": 98
    },
    {
      "midi": 70,
      "hit": false,
      "t": 171894.65366666619,
      "d": 1486.4373333333351,
      "v": 98
    },
    {
      "midi": 51,
      "hit": false,
      "t": 171894.65366666619,
      "d": 1520.2200000000012,
      "v": 95
    },
    {
      "midi": 79,
      "hit": false,
      "t": 173119.27533333286,
      "d": 371.6093333333265,
      "v": 96
    },
    {
      "midi": 67,
      "hit": false,
      "t": 173520.44449999952,
      "d": 1524.4428333333344,
      "v": 98
    },
    {
      "midi": 48,
      "hit": false,
      "t": 173520.44449999952,
      "d": 1532.888500000001,
      "v": 99
    },
    {
      "midi": 63,
      "hit": false,
      "t": 173520.44449999952,
      "d": 1532.888500000001,
      "v": 99
    },
    {
      "midi": 72,
      "hit": false,
      "t": 173524.66733333285,
      "d": 1123.2736666666751,
      "v": 99
    },
    {
      "midi": 74,
      "hit": false,
      "t": 174740.84333333286,
      "d": 371.6093333333265,
      "v": 99
    },
    {
      "midi": 41,
      "hit": false,
      "t": 175137.78966666618,
      "d": 1511.7743333333347,
      "v": 99
    },
    {
      "midi": 57,
      "hit": false,
      "t": 175137.78966666618,
      "d": 1511.7743333333347,
      "v": 99
    },
    {
      "midi": 65,
      "hit": false,
      "t": 175137.78966666618,
      "d": 1511.7743333333347,
      "v": 99
    },
    {
      "midi": 72,
      "hit": false,
      "t": 175142.01249999952,
      "d": 1503.3286666666681,
      "v": 97
    },
    {
      "midi": 41,
      "hit": false,
      "t": 176759.35766666618,
      "d": 1507.5515000000014,
      "v": 99
    },
    {
      "midi": 57,
      "hit": false,
      "t": 176759.35766666618,
      "d": 1507.5515000000014,
      "v": 99
    },
    {
      "midi": 60,
      "hit": false,
      "t": 176759.35766666618,
      "d": 1507.5515000000014,
      "v": 99
    },
    {
      "midi": 65,
      "hit": false,
      "t": 176763.58049999952,
      "d": 1473.7688333333354,
      "v": 97
    },
    {
      "midi": 69,
      "hit": false,
      "t": 177777.06049999953,
      "d": 472.95733333332464,
      "v": 113
    },
    {
      "midi": 72,
      "hit": false,
      "t": 177983.97933333286,
      "d": 232.25583333332906,
      "v": 109
    },
    {
      "midi": 77,
      "hit": false,
      "t": 178190.8981666662,
      "d": 168.91333333333023,
      "v": 103
    },
    {
      "midi": 43,
      "hit": false,
      "t": 178380.92566666618,
      "d": 1465.3231666666688,
      "v": 96
    },
    {
      "midi": 62,
      "hit": false,
      "t": 178380.92566666618,
      "d": 1465.3231666666688,
      "v": 99
    },
    {
      "midi": 70,
      "hit": false,
      "t": 178380.92566666618,
      "d": 1465.3231666666688,
      "v": 99
    },
    {
      "midi": 74,
      "hit": false,
      "t": 178380.92566666618,
      "d": 1465.3231666666688,
      "v": 96
    },
    {
      "midi": 79,
      "hit": false,
      "t": 178380.92566666618,
      "d": 1465.3231666666688,
      "v": 96
    },
    {
      "midi": 67,
      "hit": false,
      "t": 178385.14849999952,
      "d": 270.26133333332837,
      "v": 88
    },
    {
      "midi": 79,
      "hit": false,
      "t": 178385.14849999952,
      "d": 270.26133333332837,
      "v": 92
    },
    {
      "midi": 82,
      "hit": false,
      "t": 178587.8444999995,
      "d": 304.0439999999944,
      "v": 97
    },
    {
      "midi": 70,
      "hit": false,
      "t": 178592.06733333285,
      "d": 304.0439999999944,
      "v": 93
    },
    {
      "midi": 86,
      "hit": false,
      "t": 178997.45933333284,
      "d": 337.82666666666046,
      "v": 97
    },
    {
      "midi": 74,
      "hit": false,
      "t": 179001.68216666617,
      "d": 337.82666666666046,
      "v": 93
    },
    {
      "midi": 91,
      "hit": false,
      "t": 179402.85133333283,
      "d": 316.7124999999942,
      "v": 93
    },
    {
      "midi": 79,
      "hit": false,
      "t": 179411.2969999995,
      "d": 316.7124999999942,
      "v": 89
    },
    {
      "midi": 79,
      "hit": false,
      "t": 179808.24333333282,
      "d": 312.4896666666609,
      "v": 95
    },
    {
      "midi": 91,
      "hit": false,
      "t": 179812.46616666616,
      "d": 312.4896666666609,
      "v": 99
    },
    {
      "midi": 60,
      "hit": false,
      "t": 180006.71649999951,
      "d": 1414.6491666666698,
      "v": 99
    },
    {
      "midi": 69,
      "hit": false,
      "t": 180006.71649999951,
      "d": 1414.6491666666698,
      "v": 99
    },
    {
      "midi": 72,
      "hit": false,
      "t": 180006.71649999951,
      "d": 1414.6491666666698,
      "v": 99
    },
    {
      "midi": 77,
      "hit": false,
      "t": 180006.71649999951,
      "d": 1414.6491666666698,
      "v": 99
    },
    {
      "midi": 45,
      "hit": false,
      "t": 180006.71649999951,
      "d": 1499.1058333333349,
      "v": 100
    },
    {
      "midi": 77,
      "hit": false,
      "t": 180217.85816666615,
      "d": 320.93533333332743,
      "v": 86
    },
    {
      "midi": 89,
      "hit": false,
      "t": 180217.85816666615,
      "d": 320.93533333332743,
      "v": 90
    },
    {
      "midi": 72,
      "hit": false,
      "t": 180614.80449999947,
      "d": 358.94083333332674,
      "v": 84
    },
    {
      "midi": 84,
      "hit": false,
      "t": 180619.0273333328,
      "d": 358.94083333332674,
      "v": 88
    },
    {
      "midi": 69,
      "hit": false,
      "t": 181020.19649999947,
      "d": 380.054999999993,
      "v": 88
    },
    {
      "midi": 81,
      "hit": false,
      "t": 181028.64216666613,
      "d": 380.054999999993,
      "v": 92
    },
    {
      "midi": 87,
      "hit": false,
      "t": 181624.06166666612,
      "d": 548.9683333333232,
      "v": 92
    },
    {
      "midi": 48,
      "hit": false,
      "t": 181624.06166666618,
      "d": 1520.2200000000012,
      "v": 100
    },
    {
      "midi": 60,
      "hit": false,
      "t": 181624.06166666618,
      "d": 1520.2200000000012,
      "v": 100
    },
    {
      "midi": 67,
      "hit": false,
      "t": 181624.06166666618,
      "d": 1520.2200000000012,
      "v": 100
    },
    {
      "midi": 75,
      "hit": false,
      "t": 181628.28449999946,
      "d": 548.9683333333232,
      "v": 88
    },
    {
      "midi": 72,
      "hit": false,
      "t": 181628.2844999995,
      "d": 1486.4373333333351,
      "v": 98
    },
    {
      "midi": 75,
      "hit": false,
      "t": 181636.73016666618,
      "d": 1439.9861666666693,
      "v": 88
    },
    {
      "midi": 72,
      "hit": false,
      "t": 182236.37249999944,
      "d": 337.82666666666046,
      "v": 93
    },
    {
      "midi": 84,
      "hit": false,
      "t": 182236.37249999944,
      "d": 337.82666666666046,
      "v": 97
    },
    {
      "midi": 75,
      "hit": false,
      "t": 182645.98733333277,
      "d": 312.4896666666609,
      "v": 89
    },
    {
      "midi": 87,
      "hit": false,
      "t": 182645.98733333277,
      "d": 312.4896666666609,
      "v": 93
    },
    {
      "midi": 75,
      "hit": false,
      "t": 183055.6021666661,
      "d": 320.93533333332743,
      "v": 95
    },
    {
      "midi": 87,
      "hit": false,
      "t": 183059.82499999943,
      "d": 320.93533333332743,
      "v": 99
    },
    {
      "midi": 46,
      "hit": false,
      "t": 183245.62966666618,
      "d": 1511.7743333333347,
      "v": 100
    },
    {
      "midi": 65,
      "hit": false,
      "t": 183245.62966666618,
      "d": 1511.7743333333347,
      "v": 100
    },
    {
      "midi": 70,
      "hit": false,
      "t": 183245.62966666618,
      "d": 1511.7743333333347,
      "v": 100
    },
    {
      "midi": 74,
      "hit": false,
      "t": 183245.62966666618,
      "d": 1511.7743333333347,
      "v": 100
    },
    {
      "midi": 74,
      "hit": false,
      "t": 183456.77133333276,
      "d": 320.93533333332743,
      "v": 86
    },
    {
      "midi": 86,
      "hit": false,
      "t": 183465.21699999942,
      "d": 320.93533333332743,
      "v": 90
    },
    {
      "midi": 70,
      "hit": false,
      "t": 183853.71766666608,
      "d": 354.7179999999935,
      "v": 84
    },
    {
      "midi": 82,
      "hit": false,
      "t": 183866.38616666608,
      "d": 354.7179999999935,
      "v": 88
    },
    {
      "midi": 77,
      "hit": false,
      "t": 184263.3324999994,
      "d": 380.054999999993,
      "v": 92
    },
    {
      "midi": 65,
      "hit": false,
      "t": 184267.55533333274,
      "d": 380.054999999993,
      "v": 88
    },
    {
      "midi": 75,
      "hit": false,
      "t": 184867.19766666618,
      "d": 1127.4965000000084,
      "v": 96
    },
    {
      "midi": 67,
      "hit": false,
      "t": 184867.19766666618,
      "d": 1490.6601666666684,
      "v": 99
    },
    {
      "midi": 70,
      "hit": false,
      "t": 184867.19766666618,
      "d": 1490.6601666666684,
      "v": 99
    },
    {
      "midi": 51,
      "hit": false,
      "t": 184867.19766666618,
      "d": 1524.4428333333344,
      "v": 96
    },
    {
      "midi": 79,
      "hit": false,
      "t": 186091.81933333285,
      "d": 371.6093333333265,
      "v": 97
    },
    {
      "midi": 67,
      "hit": false,
      "t": 186492.9884999995,
      "d": 1528.6656666666677,
      "v": 99
    },
    {
      "midi": 48,
      "hit": false,
      "t": 186492.9884999995,
      "d": 1537.1113333333342,
      "v": 100
    },
    {
      "midi": 63,
      "hit": false,
      "t": 186492.9884999995,
      "d": 1537.1113333333342,
      "v": 100
    },
    {
      "midi": 72,
      "hit": false,
      "t": 186497.21133333285,
      "d": 1127.4965000000084,
      "v": 100
    },
    {
      "midi": 74,
      "hit": false,
      "t": 187713.38733333285,
      "d": 371.6093333333265,
      "v": 100
    },
    {
      "midi": 41,
      "hit": false,
      "t": 188110.33366666618,
      "d": 1520.2200000000012,
      "v": 100
    },
    {
      "midi": 57,
      "hit": false,
      "t": 188110.33366666618,
      "d": 1520.2200000000012,
      "v": 100
    },
    {
      "midi": 65,
      "hit": false,
      "t": 188110.33366666618,
      "d": 1520.2200000000012,
      "v": 100
    },
    {
      "midi": 72,
      "hit": false,
      "t": 188114.5564999995,
      "d": 1511.7743333333347,
      "v": 98
    },
    {
      "midi": 41,
      "hit": false,
      "t": 189731.90166666618,
      "d": 1507.5515000000014,
      "v": 100
    },
    {
      "midi": 57,
      "hit": false,
      "t": 189731.90166666618,
      "d": 1507.5515000000014,
      "v": 100
    },
    {
      "midi": 60,
      "hit": false,
      "t": 189731.90166666618,
      "d": 1507.5515000000014,
      "v": 100
    },
    {
      "midi": 65,
      "hit": false,
      "t": 189736.1244999995,
      "d": 1477.9916666666686,
      "v": 98
    },
    {
      "midi": 69,
      "hit": false,
      "t": 190749.60449999952,
      "d": 477.1801666666579,
      "v": 117
    },
    {
      "midi": 72,
      "hit": false,
      "t": 190956.52333333285,
      "d": 232.25583333332906,
      "v": 118
    },
    {
      "midi": 77,
      "hit": false,
      "t": 191163.44216666618,
      "d": 164.69049999999697,
      "v": 113
    },
    {
      "midi": 43,
      "hit": false,
      "t": 191345.0239999995,
      "d": 3120.673833333334,
      "v": 96
    },
    {
      "midi": 62,
      "hit": false,
      "t": 191345.0239999995,
      "d": 3120.673833333334,
      "v": 99
    },
    {
      "midi": 70,
      "hit": false,
      "t": 191345.0239999995,
      "d": 3120.673833333334,
      "v": 99
    },
    {
      "midi": 74,
      "hit": false,
      "t": 191345.0239999995,
      "d": 3120.673833333334,
      "v": 96
    },
    {
      "midi": 79,
      "hit": false,
      "t": 191345.0239999995,
      "d": 3120.673833333334,
      "v": 96
    }
  ]
}