{
  "jsonPath": "Religious/Pinoy Praise/Keith Martin/i-cant-bear.json",
  "path": "Religious\\Pinoy Praise\\Keith Martin\\I Cant Bear.mid",
  "name": "I Cant Bear",
  "difficulty": "Advanced",
  "bpm": 75.99996960001216,
  "notes": [
    {
      "midi": 62,
      "hit": false,
      "t": 6000,
      "d": 2137.5,
      "v": 66
    },
    {
      "midi": 67,
      "hit": false,
      "t": 6000,
      "d": 2162.5,
      "v": 74
    },
    {
      "midi": 71,
      "hit": false,
      "t": 6000,
      "d": 2200,
      "v": 66
    },
    {
      "midi": 43,
      "hit": false,
      "t": 6000,
      "d": 2981.25,
      "v": 78
    },
    {
      "midi": 67,
      "hit": false,
      "t": 8250,
      "d": 693.75,
      "v": 86
    },
    {
      "midi": 71,
      "hit": false,
      "t": 8625,
      "d": 325,
      "v": 80
    },
    {
      "midi": 67,
      "hit": false,
      "t": 9000,
      "d": 1037.5,
      "v": 72
    },
    {
      "midi": 74,
      "hit": false,
      "t": 9000,
      "d": 1037.5,
      "v": 95
    },
    {
      "midi": 43,
      "hit": false,
      "t": 9000,
      "d": 2700,
      "v": 98
    },
    {
      "midi": 67,
      "hit": false,
      "t": 10125,
      "d": 1575,
      "v": 108
    },
    {
      "midi": 71,
      "hit": false,
      "t": 10125,
      "d": 1600,
      "v": 82
    },
    {
      "midi": 74,
      "hit": false,
      "t": 12000,
      "d": 568.75,
      "v": 108
    },
    {
      "midi": 52,
      "hit": false,
      "t": 12000,
      "d": 1093.75,
      "v": 90
    },
    {
      "midi": 66,
      "hit": false,
      "t": 12187.5,
      "d": 937.5,
      "v": 88
    },
    {
      "midi": 67,
      "hit": false,
      "t": 12375,
      "d": 531.25,
      "v": 102
    },
    {
      "midi": 74,
      "hit": false,
      "t": 12568.75,
      "d": 725,
      "v": 108
    },
    {
      "midi": 67,
      "hit": false,
      "t": 12937.5,
      "d": 1325,
      "v": 95
    },
    {
      "midi": 64,
      "hit": false,
      "t": 13125,
      "d": 37.5,
      "v": 60
    },
    {
      "midi": 66,
      "hit": false,
      "t": 13125,
      "d": 1843.75,
      "v": 90
    },
    {
      "midi": 52,
      "hit": false,
      "t": 13162.5,
      "d": 456.25,
      "v": 61
    },
    {
      "midi": 74,
      "hit": false,
      "t": 13312.5,
      "d": 1656.25,
      "v": 108
    },
    {
      "midi": 64,
      "hit": false,
      "t": 13687.5,
      "d": 181.25,
      "v": 57
    },
    {
      "midi": 52,
      "hit": false,
      "t": 13875,
      "d": 387.5,
      "v": 56
    },
    {
      "midi": 64,
      "hit": false,
      "t": 14262.5,
      "d": 237.5,
      "v": 53
    },
    {
      "midi": 67,
      "hit": false,
      "t": 14262.5,
      "d": 618.75,
      "v": 105
    },
    {
      "midi": 52,
      "hit": false,
      "t": 14500,
      "d": 381.25,
      "v": 51
    },
    {
      "midi": 64,
      "hit": false,
      "t": 14881.25,
      "d": 87.5,
      "v": 50
    },
    {
      "midi": 52,
      "hit": false,
      "t": 15000,
      "d": 818.75,
      "v": 93
    },
    {
      "midi": 67,
      "hit": false,
      "t": 15000,
      "d": 1125,
      "v": 89
    },
    {
      "midi": 74,
      "hit": false,
      "t": 15000,
      "d": 2462.5,
      "v": 109
    },
    {
      "midi": 66,
      "hit": false,
      "t": 15562.5,
      "d": 1900,
      "v": 104
    },
    {
      "midi": 64,
      "hit": false,
      "t": 15937.5,
      "d": 125,
      "v": 66
    },
    {
      "midi": 52,
      "hit": false,
      "t": 16125,
      "d": 462.5,
      "v": 67
    },
    {
      "midi": 67,
      "hit": false,
      "t": 16125,
      "d": 462.5,
      "v": 109
    },
    {
      "midi": 64,
      "hit": false,
      "t": 16587.5,
      "d": 168.75,
      "v": 60
    },
    {
      "midi": 67,
      "hit": false,
      "t": 16587.5,
      "d": 787.5,
      "v": 93
    },
    {
      "midi": 52,
      "hit": false,
      "t": 16756.25,
      "d": 431.25,
      "v": 62
    },
    {
      "midi": 64,
      "hit": false,
      "t": 17187.5,
      "d": 187.5,
      "v": 58
    },
    {
      "midi": 52,
      "hit": false,
      "t": 17375,
      "d": 87.5,
      "v": 57
    },
    {
      "midi": 55,
      "hit": false,
      "t": 18000,
      "d": 1462.5,
      "v": 83
    },
    {
      "midi": 38,
      "hit": false,
      "t": 18000,
      "d": 2737.5,
      "v": 74
    },
    {
      "midi": 50,
      "hit": false,
      "t": 18562.5,
      "d": 2162.5,
      "v": 82
    },
    {
      "midi": 52,
      "hit": false,
      "t": 19125,
      "d": 1600,
      "v": 82
    },
    {
      "midi": 59,
      "hit": false,
      "t": 19500,
      "d": 1225,
      "v": 81
    },
    {
      "midi": 57,
      "hit": false,
      "t": 21000,
      "d": 1462.5,
      "v": 83
    },
    {
      "midi": 49,
      "hit": false,
      "t": 21000,
      "d": 2725,
      "v": 74
    },
    {
      "midi": 52,
      "hit": false,
      "t": 22125,
      "d": 1600,
      "v": 82
    },
    {
      "midi": 61,
      "hit": false,
      "t": 22500,
      "d": 1225,
      "v": 81
    },
    {
      "midi": 71,
      "hit": false,
      "t": 24000,
      "d": 1862.5,
      "v": 98
    },
    {
      "midi": 67,
      "hit": false,
      "t": 24000,
      "d": 2725,
      "v": 87
    },
    {
      "midi": 52,
      "hit": false,
      "t": 24000,
      "d": 3000,
      "v": 73
    },
    {
      "midi": 57,
      "hit": false,
      "t": 24000,
      "d": 3000,
      "v": 69
    },
    {
      "midi": 62,
      "hit": false,
      "t": 24000,
      "d": 3000,
      "v": 76
    },
    {
      "midi": 72,
      "hit": false,
      "t": 27000,
      "d": 568.75,
      "v": 108
    },
    {
      "midi": 50,
      "hit": false,
      "t": 27000,
      "d": 1093.75,
      "v": 90
    },
    {
      "midi": 66,
      "hit": false,
      "t": 27187.5,
      "d": 937.5,
      "v": 88
    },
    {
      "midi": 69,
      "hit": false,
      "t": 27375,
      "d": 531.25,
      "v": 102
    },
    {
      "midi": 72,
      "hit": false,
      "t": 27568.75,
      "d": 725,
      "v": 108
    },
    {
      "midi": 69,
      "hit": false,
      "t": 27937.5,
      "d": 1325,
      "v": 95
    },
    {
      "midi": 62,
      "hit": false,
      "t": 28125,
      "d": 37.5,
      "v": 60
    },
    {
      "midi": 66,
      "hit": false,
      "t": 28125,
      "d": 1756.25,
      "v": 90
    },
    {
      "midi": 50,
      "hit": false,
      "t": 28162.5,
      "d": 456.25,
      "v": 61
    },
    {
      "midi": 72,
      "hit": false,
      "t": 28312.5,
      "d": 1656.25,
      "v": 108
    },
    {
      "midi": 62,
      "hit": false,
      "t": 28687.5,
      "d": 181.25,
      "v": 57
    },
    {
      "midi": 50,
      "hit": false,
      "t": 28875,
      "d": 387.5,
      "v": 56
    },
    {
      "midi": 62,
      "hit": false,
      "t": 29262.5,
      "d": 237.5,
      "v": 53
    },
    {
      "midi": 50,
      "hit": false,
      "t": 29500,
      "d": 381.25,
      "v": 51
    },
    {
      "midi": 62,
      "hit": false,
      "t": 29881.25,
      "d": 87.5,
      "v": 50
    },
    {
      "midi": 62,
      "hit": false,
      "t": 30000,
      "d": 1462.5,
      "v": 83
    },
    {
      "midi": 43,
      "hit": false,
      "t": 30000,
      "d": 2737.5,
      "v": 74
    },
    {
      "midi": 55,
      "hit": false,
      "t": 30562.5,
      "d": 2162.5,
      "v": 82
    },
    {
      "midi": 59,
      "hit": false,
      "t": 31125,
      "d": 1600,
      "v": 82
    },
    {
      "midi": 67,
      "hit": false,
      "t": 31500,
      "d": 1225,
      "v": 81
    },
    {
      "midi": 61,
      "hit": false,
      "t": 33000,
      "d": 1362.5,
      "v": 64
    },
    {
      "midi": 66,
      "hit": false,
      "t": 33000,
      "d": 1381.25,
      "v": 108
    },
    {
      "midi": 54,
      "hit": false,
      "t": 33000,
      "d": 1500,
      "v": 72
    },
    {
      "midi": 57,
      "hit": false,
      "t": 34125,
      "d": 375,
      "v": 98
    },
    {
      "midi": 51,
      "hit": false,
      "t": 34500,
      "d": 1500,
      "v": 88
    },
    {
      "midi": 57,
      "hit": false,
      "t": 34687.5,
      "d": 1312.5,
      "v": 77
    },
    {
      "midi": 61,
      "hit": false,
      "t": 34875,
      "d": 1125,
      "v": 88
    },
    {
      "midi": 63,
      "hit": false,
      "t": 35062.5,
      "d": 937.5,
      "v": 109
    },
    {
      "midi": 71,
      "hit": false,
      "t": 36000,
      "d": 568.75,
      "v": 108
    },
    {
      "midi": 40,
      "hit": false,
      "t": 36000,
      "d": 1093.75,
      "v": 90
    },
    {
      "midi": 64,
      "hit": false,
      "t": 36187.5,
      "d": 937.5,
      "v": 88
    },
    {
      "midi": 67,
      "hit": false,
      "t": 36375,
      "d": 531.25,
      "v": 102
    },
    {
      "midi": 71,
      "hit": false,
      "t": 36568.75,
      "d": 725,
      "v": 108
    },
    {
      "midi": 67,
      "hit": false,
      "t": 36937.5,
      "d": 1325,
      "v": 95
    },
    {
      "midi": 64,
      "hit": false,
      "t": 37125,
      "d": 37.5,
      "v": 60
    },
    {
      "midi": 40,
      "hit": false,
      "t": 37162.5,
      "d": 456.25,
      "v": 61
    },
    {
      "midi": 71,
      "hit": false,
      "t": 37312.5,
      "d": 1656.25,
      "v": 108
    },
    {
      "midi": 64,
      "hit": false,
      "t": 37687.5,
      "d": 181.25,
      "v": 57
    },
    {
      "midi": 40,
      "hit": false,
      "t": 37875,
      "d": 387.5,
      "v": 56
    },
    {
      "midi": 64,
      "hit": false,
      "t": 38262.5,
      "d": 237.5,
      "v": 53
    },
    {
      "midi": 40,
      "hit": false,
      "t": 38500,
      "d": 381.25,
      "v": 51
    },
    {
      "midi": 64,
      "hit": false,
      "t": 38881.25,
      "d": 87.5,
      "v": 50
    },
    {
      "midi": 74,
      "hit": false,
      "t": 39000,
      "d": 568.75,
      "v": 108
    },
    {
      "midi": 52,
      "hit": false,
      "t": 39000,
      "d": 1093.75,
      "v": 90
    },
    {
      "midi": 66,
      "hit": false,
      "t": 39187.5,
      "d": 937.5,
      "v": 88
    },
    {
      "midi": 67,
      "hit": false,
      "t": 39375,
      "d": 531.25,
      "v": 102
    },
    {
      "midi": 74,
      "hit": false,
      "t": 39568.75,
      "d": 725,
      "v": 108
    },
    {
      "midi": 67,
      "hit": false,
      "t": 39937.5,
      "d": 1325,
      "v": 95
    },
    {
      "midi": 64,
      "hit": false,
      "t": 40125,
      "d": 37.5,
      "v": 60
    },
    {
      "midi": 66,
      "hit": false,
      "t": 40125,
      "d": 1843.75,
      "v": 90
    },
    {
      "midi": 52,
      "hit": false,
      "t": 40162.5,
      "d": 456.25,
      "v": 61
    },
    {
      "midi": 74,
      "hit": false,
      "t": 40312.5,
      "d": 1656.25,
      "v": 108
    },
    {
      "midi": 64,
      "hit": false,
      "t": 40687.5,
      "d": 181.25,
      "v": 57
    },
    {
      "midi": 52,
      "hit": false,
      "t": 40875,
      "d": 387.5,
      "v": 56
    },
    {
      "midi": 64,
      "hit": false,
      "t": 41262.5,
      "d": 237.5,
      "v": 53
    },
    {
      "midi": 67,
      "hit": false,
      "t": 41262.5,
      "d": 618.75,
      "v": 105
    },
    {
      "midi": 52,
      "hit": false,
      "t": 41500,
      "d": 381.25,
      "v": 51
    },
    {
      "midi": 64,
      "hit": false,
      "t": 41881.25,
      "d": 87.5,
      "v": 50
    },
    {
      "midi": 52,
      "hit": false,
      "t": 42000,
      "d": 818.75,
      "v": 93
    },
    {
      "midi": 67,
      "hit": false,
      "t": 42000,
      "d": 1125,
      "v": 89
    },
    {
      "midi": 74,
      "hit": false,
      "t": 42000,
      "d": 2462.5,
      "v": 109
    },
    {
      "midi": 66,
      "hit": false,
      "t": 42562.5,
      "d": 1900,
      "v": 104
    },
    {
      "midi": 64,
      "hit": false,
      "t": 42937.5,
      "d": 125,
      "v": 66
    },
    {
      "midi": 52,
      "hit": false,
      "t": 43125,
      "d": 462.5,
      "v": 67
    },
    {
      "midi": 67,
      "hit": false,
      "t": 43125,
      "d": 462.5,
      "v": 109
    },
    {
      "midi": 64,
      "hit": false,
      "t": 43587.5,
      "d": 168.75,
      "v": 60
    },
    {
      "midi": 67,
      "hit": false,
      "t": 43587.5,
      "d": 787.5,
      "v": 93
    },
    {
      "midi": 52,
      "hit": false,
      "t": 43756.25,
      "d": 431.25,
      "v": 62
    },
    {
      "midi": 64,
      "hit": false,
      "t": 44187.5,
      "d": 187.5,
      "v": 58
    },
    {
      "midi": 52,
      "hit": false,
      "t": 44375,
      "d": 87.5,
      "v": 57
    },
    {
      "midi": 64,
      "hit": false,
      "t": 45000,
      "d": 556.25,
      "v": 86
    },
    {
      "midi": 68,
      "hit": false,
      "t": 45000,
      "d": 556.25,
      "v": 95
    },
    {
      "midi": 59,
      "hit": false,
      "t": 45000,
      "d": 1125,
      "v": 85
    },
    {
      "midi": 57,
      "hit": false,
      "t": 45000,
      "d": 1487.5,
      "v": 82
    },
    {
      "midi": 49,
      "hit": false,
      "t": 45000,
      "d": 2968.75,
      "v": 76
    },
    {
      "midi": 64,
      "hit": false,
      "t": 45562.5,
      "d": 1500,
      "v": 91
    },
    {
      "midi": 59,
      "hit": false,
      "t": 46125,
      "d": 868.75,
      "v": 87
    },
    {
      "midi": 57,
      "hit": false,
      "t": 46500,
      "d": 1475,
      "v": 97
    },
    {
      "midi": 59,
      "hit": false,
      "t": 47062.5,
      "d": 893.75,
      "v": 101
    },
    {
      "midi": 64,
      "hit": false,
      "t": 47625,
      "d": 350,
      "v": 86
    },
    {
      "midi": 71,
      "hit": false,
      "t": 48000,
      "d": 1862.5,
      "v": 98
    },
    {
      "midi": 67,
      "hit": false,
      "t": 48000,
      "d": 2725,
      "v": 87
    },
    {
      "midi": 52,
      "hit": false,
      "t": 48000,
      "d": 3000,
      "v": 73
    },
    {
      "midi": 57,
      "hit": false,
      "t": 48000,
      "d": 3000,
      "v": 69
    },
    {
      "midi": 62,
      "hit": false,
      "t": 48000,
      "d": 3000,
      "v": 76
    },
    {
      "midi": 60,
      "hit": false,
      "t": 51000,
      "d": 1462.5,
      "v": 83
    },
    {
      "midi": 50,
      "hit": false,
      "t": 51000,
      "d": 2737.5,
      "v": 74
    },
    {
      "midi": 54,
      "hit": false,
      "t": 51562.5,
      "d": 2162.5,
      "v": 82
    },
    {
      "midi": 57,
      "hit": false,
      "t": 52125,
      "d": 1600,
      "v": 82
    },
    {
      "midi": 62,
      "hit": false,
      "t": 52500,
      "d": 1225,
      "v": 81
    },
    {
      "midi": 62,
      "hit": false,
      "t": 54000,
      "d": 556.25,
      "v": 86
    },
    {
      "midi": 66,
      "hit": false,
      "t": 54000,
      "d": 556.25,
      "v": 95
    },
    {
      "midi": 57,
      "hit": false,
      "t": 54000,
      "d": 1125,
      "v": 85
    },
    {
      "midi": 55,
      "hit": false,
      "t": 54000,
      "d": 1487.5,
      "v": 82
    },
    {
      "midi": 47,
      "hit": false,
      "t": 54000,
      "d": 2968.75,
      "v": 76
    },
    {
      "midi": 62,
      "hit": false,
      "t": 54562.5,
      "d": 1500,
      "v": 91
    },
    {
      "midi": 57,
      "hit": false,
      "t": 55125,
      "d": 868.75,
      "v": 87
    },
    {
      "midi": 55,
      "hit": false,
      "t": 55500,
      "d": 1475,
      "v": 97
    },
    {
      "midi": 57,
      "hit": false,
      "t": 56062.5,
      "d": 893.75,
      "v": 101
    },
    {
      "midi": 62,
      "hit": false,
      "t": 56625,
      "d": 350,
      "v": 86
    },
    {
      "midi": 68,
      "hit": false,
      "t": 57000,
      "d": 568.75,
      "v": 108
    },
    {
      "midi": 40,
      "hit": false,
      "t": 57000,
      "d": 1093.75,
      "v": 90
    },
    {
      "midi": 62,
      "hit": false,
      "t": 57187.5,
      "d": 937.5,
      "v": 88
    },
    {
      "midi": 64,
      "hit": false,
      "t": 57375,
      "d": 531.25,
      "v": 102
    },
    {
      "midi": 68,
      "hit": false,
      "t": 57568.75,
      "d": 725,
      "v": 108
    },
    {
      "midi": 64,
      "hit": false,
      "t": 57937.5,
      "d": 1325,
      "v": 95
    },
    {
      "midi": 59,
      "hit": false,
      "t": 58125,
      "d": 37.5,
      "v": 60
    },
    {
      "midi": 62,
      "hit": false,
      "t": 58125,
      "d": 1756.25,
      "v": 90
    },
    {
      "midi": 40,
      "hit": false,
      "t": 58162.5,
      "d": 456.25,
      "v": 61
    },
    {
      "midi": 68,
      "hit": false,
      "t": 58312.5,
      "d": 1656.25,
      "v": 108
    },
    {
      "midi": 59,
      "hit": false,
      "t": 58687.5,
      "d": 181.25,
      "v": 57
    },
    {
      "midi": 40,
      "hit": false,
      "t": 58875,
      "d": 387.5,
      "v": 56
    },
    {
      "midi": 59,
      "hit": false,
      "t": 59262.5,
      "d": 237.5,
      "v": 53
    },
    {
      "midi": 40,
      "hit": false,
      "t": 59500,
      "d": 381.25,
      "v": 51
    },
    {
      "midi": 59,
      "hit": false,
      "t": 59881.25,
      "d": 87.5,
      "v": 50
    },
    {
      "midi": 64,
      "hit": false,
      "t": 60000,
      "d": 2793.75,
      "v": 92
    },
    {
      "midi": 55,
      "hit": false,
      "t": 60000,
      "d": 2812.5,
      "v": 65
    },
    {
      "midi": 60,
      "hit": false,
      "t": 60000,
      "d": 2812.5,
      "v": 85
    },
    {
      "midi": 60,
      "hit": false,
      "t": 63000,
      "d": 1481.25,
      "v": 108
    },
    {
      "midi": 52,
      "hit": false,
      "t": 63000,
      "d": 1500,
      "v": 73
    },
    {
      "midi": 55,
      "hit": false,
      "t": 63006.25,
      "d": 1481.25,
      "v": 96
    },
    {
      "midi": 66,
      "hit": false,
      "t": 64500,
      "d": 1481.25,
      "v": 108
    },
    {
      "midi": 57,
      "hit": false,
      "t": 64500,
      "d": 1500,
      "v": 73
    },
    {
      "midi": 60,
      "hit": false,
      "t": 64506.25,
      "d": 1481.25,
      "v": 96
    },
    {
      "midi": 59,
      "hit": false,
      "t": 66000,
      "d": 2137.5,
      "v": 66
    },
    {
      "midi": 62,
      "hit": false,
      "t": 66000,
      "d": 2162.5,
      "v": 74
    },
    {
      "midi": 66,
      "hit": false,
      "t": 66000,
      "d": 2200,
      "v": 66
    },
    {
      "midi": 35,
      "hit": false,
      "t": 66000,
      "d": 2981.25,
      "v": 78
    },
    {
      "midi": 62,
      "hit": false,
      "t": 68250,
      "d": 693.75,
      "v": 86
    },
    {
      "midi": 66,
      "hit": false,
      "t": 68625,
      "d": 325,
      "v": 80
    },
    {
      "midi": 56,
      "hit": false,
      "t": 69000,
      "d": 2137.5,
      "v": 66
    },
    {
      "midi": 59,
      "hit": false,
      "t": 69000,
      "d": 2162.5,
      "v": 74
    },
    {
      "midi": 62,
      "hit": false,
      "t": 69000,
      "d": 2193.75,
      "v": 71
    },
    {
      "midi": 64,
      "hit": false,
      "t": 69000,
      "d": 2200,
      "v": 79
    },
    {
      "midi": 40,
      "hit": false,
      "t": 69000,
      "d": 2981.25,
      "v": 78
    },
    {
      "midi": 68,
      "hit": false,
      "t": 71250,
      "d": 731.25,
      "v": 86
    },
    {
      "midi": 64,
      "hit": false,
      "t": 71437.5,
      "d": 506.25,
      "v": 80
    },
    {
      "midi": 62,
      "hit": false,
      "t": 71625,
      "d": 306.25,
      "v": 80
    },
    {
      "midi": 56,
      "hit": false,
      "t": 71806.25,
      "d": 193.75,
      "v": 92
    },
    {
      "midi": 57,
      "hit": false,
      "t": 72000,
      "d": 2137.5,
      "v": 66
    },
    {
      "midi": 60,
      "hit": false,
      "t": 72000,
      "d": 2162.5,
      "v": 74
    },
    {
      "midi": 64,
      "hit": false,
      "t": 72000,
      "d": 2200,
      "v": 66
    },
    {
      "midi": 45,
      "hit": false,
      "t": 72000,
      "d": 2981.25,
      "v": 78
    },
    {
      "midi": 60,
      "hit": false,
      "t": 74250,
      "d": 693.75,
      "v": 86
    },
    {
      "midi": 64,
      "hit": false,
      "t": 74625,
      "d": 325,
      "v": 80
    },
    {
      "midi": 66,
      "hit": false,
      "t": 75000,
      "d": 2793.75,
      "v": 92
    },
    {
      "midi": 57,
      "hit": false,
      "t": 75000,
      "d": 2812.5,
      "v": 65
    },
    {
      "midi": 60,
      "hit": false,
      "t": 75000,
      "d": 2812.5,
      "v": 85
    },
    {
      "midi": 59,
      "hit": false,
      "t": 78000,
      "d": 2137.5,
      "v": 66
    },
    {
      "midi": 62,
      "hit": false,
      "t": 78000,
      "d": 2162.5,
      "v": 74
    },
    {
      "midi": 66,
      "hit": false,
      "t": 78000,
      "d": 2200,
      "v": 66
    },
    {
      "midi": 35,
      "hit": false,
      "t": 78000,
      "d": 2981.25,
      "v": 78
    },
    {
      "midi": 62,
      "hit": false,
      "t": 80250,
      "d": 693.75,
      "v": 86
    },
    {
      "midi": 66,
      "hit": false,
      "t": 80625,
      "d": 325,
      "v": 80
    },
    {
      "midi": 56,
      "hit": false,
      "t": 81000,
      "d": 2137.5,
      "v": 66
    },
    {
      "midi": 59,
      "hit": false,
      "t": 81000,
      "d": 2162.5,
      "v": 74
    },
    {
      "midi": 62,
      "hit": false,
      "t": 81000,
      "d": 2193.75,
      "v": 71
    },
    {
      "midi": 64,
      "hit": false,
      "t": 81000,
      "d": 2200,
      "v": 79
    },
    {
      "midi": 40,
      "hit": false,
      "t": 81000,
      "d": 2981.25,
      "v": 78
    },
    {
      "midi": 68,
      "hit": false,
      "t": 83250,
      "d": 731.25,
      "v": 86
    },
    {
      "midi": 64,
      "hit": false,
      "t": 83437.5,
      "d": 506.25,
      "v": 80
    },
    {
      "midi": 62,
      "hit": false,
      "t": 83625,
      "d": 306.25,
      "v": 80
    },
    {
      "midi": 56,
      "hit": false,
      "t": 83806.25,
      "d": 193.75,
      "v": 92
    },
    {
      "midi": 60,
      "hit": false,
      "t": 84000,
      "d": 1325,
      "v": 91
    },
    {
      "midi": 64,
      "hit": false,
      "t": 84000,
      "d": 1850,
      "v": 105
    },
    {
      "midi": 55,
      "hit": false,
      "t": 84000,
      "d": 3000,
      "v": 88
    },
    {
      "midi": 60,
      "hit": false,
      "t": 85325,
      "d": 550,
      "v": 65
    },
    {
      "midi": 65,
      "hit": false,
      "t": 85875,
      "d": 568.75,
      "v": 42
    },
    {
      "midi": 60,
      "hit": false,
      "t": 85875,
      "d": 1118.75,
      "v": 88
    },
    {
      "midi": 64,
      "hit": false,
      "t": 86443.75,
      "d": 550,
      "v": 87
    },
    {
      "midi": 55,
      "hit": false,
      "t": 87000,
      "d": 525,
      "v": 68
    },
    {
      "midi": 60,
      "hit": false,
      "t": 87000,
      "d": 1075,
      "v": 83
    },
    {
      "midi": 52,
      "hit": false,
      "t": 87000,
      "d": 1500,
      "v": 78
    },
    {
      "midi": 57,
      "hit": false,
      "t": 87550,
      "d": 950,
      "v": 91
    },
    {
      "midi": 60,
      "hit": false,
      "t": 88112.5,
      "d": 350,
      "v": 87
    },
    {
      "midi": 66,
      "hit": false,
      "t": 88500,
      "d": 956.25,
      "v": 88
    },
    {
      "midi": 62,
      "hit": false,
      "t": 88512.5,
      "d": 918.75,
      "v": 78
    },
    {
      "midi": 57,
      "hit": false,
      "t": 88512.5,
      "d": 1487.5,
      "v": 85
    },
    {
      "midi": 62,
      "hit": false,
      "t": 89437.5,
      "d": 562.5,
      "v": 81
    },
    {
      "midi": 67,
      "hit": false,
      "t": 89625,
      "d": 125,
      "v": 105
    },
    {
      "midi": 66,
      "hit": false,
      "t": 89781.25,
      "d": 200,
      "v": 70
    },
    {
      "midi": 62,
      "hit": false,
      "t": 90000,
      "d": 2793.75,
      "v": 92
    },
    {
      "midi": 54,
      "hit": false,
      "t": 90000,
      "d": 2812.5,
      "v": 65
    },
    {
      "midi": 59,
      "hit": false,
      "t": 90000,
      "d": 2812.5,
      "v": 85
    },
    {
      "midi": 62,
      "hit": false,
      "t": 93000,
      "d": 2793.75,
      "v": 92
    },
    {
      "midi": 52,
      "hit": false,
      "t": 93000,
      "d": 2812.5,
      "v": 65
    },
    {
      "midi": 56,
      "hit": false,
      "t": 93000,
      "d": 2812.5,
      "v": 85
    },
    {
      "midi": 57,
      "hit": false,
      "t": 96000,
      "d": 2137.5,
      "v": 66
    },
    {
      "midi": 60,
      "hit": false,
      "t": 96000,
      "d": 2162.5,
      "v": 74
    },
    {
      "midi": 64,
      "hit": false,
      "t": 96000,
      "d": 2200,
      "v": 79
    },
    {
      "midi": 45,
      "hit": false,
      "t": 96000,
      "d": 2981.25,
      "v": 78
    },
    {
      "midi": 69,
      "hit": false,
      "t": 98250,
      "d": 731.25,
      "v": 86
    },
    {
      "midi": 64,
      "hit": false,
      "t": 98437.5,
      "d": 506.25,
      "v": 80
    },
    {
      "midi": 60,
      "hit": false,
      "t": 98625,
      "d": 306.25,
      "v": 80
    },
    {
      "midi": 57,
      "hit": false,
      "t": 98806.25,
      "d": 193.75,
      "v": 92
    },
    {
      "midi": 62,
      "hit": false,
      "t": 99000,
      "d": 531.25,
      "v": 86
    },
    {
      "midi": 66,
      "hit": false,
      "t": 99000,
      "d": 1062.5,
      "v": 107
    },
    {
      "midi": 57,
      "hit": false,
      "t": 99000,
      "d": 2568.75,
      "v": 77
    },
    {
      "midi": 62,
      "hit": false,
      "t": 99562.5,
      "d": 1437.5,
      "v": 81
    },
    {
      "midi": 67,
      "hit": false,
      "t": 100125,
      "d": 331.25,
      "v": 92
    },
    {
      "midi": 69,
      "hit": false,
      "t": 100500,
      "d": 18.75,
      "v": 50
    },
    {
      "midi": 69,
      "hit": false,
      "t": 100518.75,
      "d": 1462.5,
      "v": 80
    },
    {
      "midi": 62,
      "hit": false,
      "t": 101062.5,
      "d": 937.5,
      "v": 74
    },
    {
      "midi": 57,
      "hit": false,
      "t": 101625,
      "d": 375,
      "v": 74
    },
    {
      "midi": 64,
      "hit": false,
      "t": 102000,
      "d": 2793.75,
      "v": 92
    },
    {
      "midi": 54,
      "hit": false,
      "t": 102000,
      "d": 2812.5,
      "v": 65
    },
    {
      "midi": 57,
      "hit": false,
      "t": 102000,
      "d": 2812.5,
      "v": 85
    },
    {
      "midi": 63,
      "hit": false,
      "t": 105000,
      "d": 1481.25,
      "v": 108
    },
    {
      "midi": 54,
      "hit": false,
      "t": 105000,
      "d": 1500,
      "v": 73
    },
    {
      "midi": 57,
      "hit": false,
      "t": 105006.25,
      "d": 1481.25,
      "v": 96
    },
    {
      "midi": 57,
      "hit": false,
      "t": 106500,
      "d": 525,
      "v": 68
    },
    {
      "midi": 63,
      "hit": false,
      "t": 106500,
      "d": 1075,
      "v": 83
    },
    {
      "midi": 54,
      "hit": false,
      "t": 106500,
      "d": 1500,
      "v": 78
    },
    {
      "midi": 60,
      "hit": false,
      "t": 107050,
      "d": 950,
      "v": 91
    },
    {
      "midi": 63,
      "hit": false,
      "t": 107612.5,
      "d": 350,
      "v": 87
    },
    {
      "midi": 78,
      "hit": false,
      "t": 108000,
      "d": 1862.5,
      "v": 98
    },
    {
      "midi": 74,
      "hit": false,
      "t": 108000,
      "d": 2725,
      "v": 87
    },
    {
      "midi": 59,
      "hit": false,
      "t": 108000,
      "d": 3000,
      "v": 73
    },
    {
      "midi": 64,
      "hit": false,
      "t": 108000,
      "d": 3000,
      "v": 69
    },
    {
      "midi": 69,
      "hit": false,
      "t": 108000,
      "d": 3000,
      "v": 76
    },
    {
      "midi": 74,
      "hit": false,
      "t": 111000,
      "d": 568.75,
      "v": 108
    },
    {
      "midi": 52,
      "hit": false,
      "t": 111000,
      "d": 1093.75,
      "v": 90
    },
    {
      "midi": 66,
      "hit": false,
      "t": 111187.5,
      "d": 937.5,
      "v": 88
    },
    {
      "midi": 67,
      "hit": false,
      "t": 111375,
      "d": 531.25,
      "v": 102
    },
    {
      "midi": 74,
      "hit": false,
      "t": 111568.75,
      "d": 725,
      "v": 108
    },
    {
      "midi": 67,
      "hit": false,
      "t": 111937.5,
      "d": 1325,
      "v": 95
    },
    {
      "midi": 64,
      "hit": false,
      "t": 112125,
      "d": 37.5,
      "v": 60
    },
    {
      "midi": 66,
      "hit": false,
      "t": 112125,
      "d": 1843.75,
      "v": 90
    },
    {
      "midi": 52,
      "hit": false,
      "t": 112162.5,
      "d": 456.25,
      "v": 61
    },
    {
      "midi": 74,
      "hit": false,
      "t": 112312.5,
      "d": 1656.25,
      "v": 108
    },
    {
      "midi": 64,
      "hit": false,
      "t": 112687.5,
      "d": 181.25,
      "v": 57
    },
    {
      "midi": 52,
      "hit": false,
      "t": 112875,
      "d": 387.5,
      "v": 56
    },
    {
      "midi": 64,
      "hit": false,
      "t": 113262.5,
      "d": 237.5,
      "v": 53
    },
    {
      "midi": 67,
      "hit": false,
      "t": 113262.5,
      "d": 618.75,
      "v": 105
    },
    {
      "midi": 52,
      "hit": false,
      "t": 113500,
      "d": 381.25,
      "v": 51
    },
    {
      "midi": 64,
      "hit": false,
      "t": 113881.25,
      "d": 87.5,
      "v": 50
    },
    {
      "midi": 74,
      "hit": false,
      "t": 114000,
      "d": 568.75,
      "v": 108
    },
    {
      "midi": 52,
      "hit": false,
      "t": 114000,
      "d": 1093.75,
      "v": 90
    },
    {
      "midi": 66,
      "hit": false,
      "t": 114187.5,
      "d": 937.5,
      "v": 88
    },
    {
      "midi": 67,
      "hit": false,
      "t": 114375,
      "d": 531.25,
      "v": 102
    },
    {
      "midi": 74,
      "hit": false,
      "t": 114568.75,
      "d": 725,
      "v": 108
    },
    {
      "midi": 67,
      "hit": false,
      "t": 114937.5,
      "d": 1325,
      "v": 95
    },
    {
      "midi": 64,
      "hit": false,
      "t": 115125,
      "d": 37.5,
      "v": 60
    },
    {
      "midi": 66,
      "hit": false,
      "t": 115125,
      "d": 1843.75,
      "v": 90
    },
    {
      "midi": 52,
      "hit": false,
      "t": 115162.5,
      "d": 456.25,
      "v": 61
    },
    {
      "midi": 74,
      "hit": false,
      "t": 115312.5,
      "d": 1656.25,
      "v": 108
    },
    {
      "midi": 64,
      "hit": false,
      "t": 115687.5,
      "d": 181.25,
      "v": 57
    },
    {
      "midi": 52,
      "hit": false,
      "t": 115875,
      "d": 387.5,
      "v": 56
    },
    {
      "midi": 64,
      "hit": false,
      "t": 116262.5,
      "d": 237.5,
      "v": 53
    },
    {
      "midi": 67,
      "hit": false,
      "t": 116262.5,
      "d": 618.75,
      "v": 105
    },
    {
      "midi": 52,
      "hit": false,
      "t": 116500,
      "d": 381.25,
      "v": 51
    },
    {
      "midi": 64,
      "hit": false,
      "t": 116881.25,
      "d": 87.5,
      "v": 50
    },
    {
      "midi": 57,
      "hit": false,
      "t": 117000,
      "d": 1462.5,
      "v": 83
    },
    {
      "midi": 49,
      "hit": false,
      "t": 117000,
      "d": 2725,
      "v": 74
    },
    {
      "midi": 52,
      "hit": false,
      "t": 118125,
      "d": 1600,
      "v": 82
    },
    {
      "midi": 61,
      "hit": false,
      "t": 118500,
      "d": 1225,
      "v": 81
    },
    {
      "midi": 67,
      "hit": false,
      "t": 120000,
      "d": 568.75,
      "v": 108
    },
    {
      "midi": 45,
      "hit": false,
      "t": 120000,
      "d": 1093.75,
      "v": 90
    },
    {
      "midi": 59,
      "hit": false,
      "t": 120187.5,
      "d": 937.5,
      "v": 88
    },
    {
      "midi": 60,
      "hit": false,
      "t": 120375,
      "d": 531.25,
      "v": 102
    },
    {
      "midi": 67,
      "hit": false,
      "t": 120568.75,
      "d": 725,
      "v": 108
    },
    {
      "midi": 60,
      "hit": false,
      "t": 120937.5,
      "d": 1325,
      "v": 95
    },
    {
      "midi": 57,
      "hit": false,
      "t": 121125,
      "d": 37.5,
      "v": 60
    },
    {
      "midi": 59,
      "hit": false,
      "t": 121125,
      "d": 1843.75,
      "v": 90
    },
    {
      "midi": 45,
      "hit": false,
      "t": 121162.5,
      "d": 456.25,
      "v": 61
    },
    {
      "midi": 67,
      "hit": false,
      "t": 121312.5,
      "d": 1656.25,
      "v": 108
    },
    {
      "midi": 57,
      "hit": false,
      "t": 121687.5,
      "d": 181.25,
      "v": 57
    },
    {
      "midi": 45,
      "hit": false,
      "t": 121875,
      "d": 387.5,
      "v": 56
    },
    {
      "midi": 57,
      "hit": false,
      "t": 122262.5,
      "d": 237.5,
      "v": 53
    },
    {
      "midi": 60,
      "hit": false,
      "t": 122262.5,
      "d": 618.75,
      "v": 105
    },
    {
      "midi": 45,
      "hit": false,
      "t": 122500,
      "d": 381.25,
      "v": 51
    },
    {
      "midi": 57,
      "hit": false,
      "t": 122881.25,
      "d": 87.5,
      "v": 50
    },
    {
      "midi": 72,
      "hit": false,
      "t": 123000,
      "d": 568.75,
      "v": 108
    },
    {
      "midi": 50,
      "hit": false,
      "t": 123000,
      "d": 1093.75,
      "v": 90
    },
    {
      "midi": 66,
      "hit": false,
      "t": 123187.5,
      "d": 937.5,
      "v": 88
    },
    {
      "midi": 69,
      "hit": false,
      "t": 123375,
      "d": 531.25,
      "v": 102
    },
    {
      "midi": 72,
      "hit": false,
      "t": 123568.75,
      "d": 725,
      "v": 108
    },
    {
      "midi": 69,
      "hit": false,
      "t": 123937.5,
      "d": 1325,
      "v": 95
    },
    {
      "midi": 62,
      "hit": false,
      "t": 124125,
      "d": 37.5,
      "v": 60
    },
    {
      "midi": 66,
      "hit": false,
      "t": 124125,
      "d": 1756.25,
      "v": 90
    },
    {
      "midi": 50,
      "hit": false,
      "t": 124162.5,
      "d": 456.25,
      "v": 61
    },
    {
      "midi": 72,
      "hit": false,
      "t": 124312.5,
      "d": 1656.25,
      "v": 108
    },
    {
      "midi": 62,
      "hit": false,
      "t": 124687.5,
      "d": 181.25,
      "v": 57
    },
    {
      "midi": 50,
      "hit": false,
      "t": 124875,
      "d": 387.5,
      "v": 56
    },
    {
      "midi": 62,
      "hit": false,
      "t": 125262.5,
      "d": 237.5,
      "v": 53
    },
    {
      "midi": 50,
      "hit": false,
      "t": 125500,
      "d": 381.25,
      "v": 51
    },
    {
      "midi": 62,
      "hit": false,
      "t": 125881.25,
      "d": 87.5,
      "v": 50
    },
    {
      "midi": 74,
      "hit": false,
      "t": 126000,
      "d": 568.75,
      "v": 108
    },
    {
      "midi": 43,
      "hit": false,
      "t": 126000,
      "d": 1093.75,
      "v": 90
    },
    {
      "midi": 67,
      "hit": false,
      "t": 126187.5,
      "d": 937.5,
      "v": 88
    },
    {
      "midi": 71,
      "hit": false,
      "t": 126375,
      "d": 531.25,
      "v": 102
    },
    {
      "midi": 74,
      "hit": false,
      "t": 126568.75,
      "d": 725,
      "v": 108
    },
    {
      "midi": 71,
      "hit": false,
      "t": 126937.5,
      "d": 1325,
      "v": 95
    },
    {
      "midi": 67,
      "hit": false,
      "t": 127125,
      "d": 37.5,
      "v": 60
    },
    {
      "midi": 43,
      "hit": false,
      "t": 127162.5,
      "d": 456.25,
      "v": 61
    },
    {
      "midi": 74,
      "hit": false,
      "t": 127312.5,
      "d": 1656.25,
      "v": 108
    },
    {
      "midi": 67,
      "hit": false,
      "t": 127687.5,
      "d": 181.25,
      "v": 57
    },
    {
      "midi": 43,
      "hit": false,
      "t": 127875,
      "d": 387.5,
      "v": 56
    },
    {
      "midi": 67,
      "hit": false,
      "t": 128262.5,
      "d": 237.5,
      "v": 53
    },
    {
      "midi": 43,
      "hit": false,
      "t": 128500,
      "d": 381.25,
      "v": 51
    },
    {
      "midi": 67,
      "hit": false,
      "t": 128881.25,
      "d": 87.5,
      "v": 50
    },
    {
      "midi": 56,
      "hit": false,
      "t": 129000,
      "d": 1362.5,
      "v": 64
    },
    {
      "midi": 60,
      "hit": false,
      "t": 129000,
      "d": 1381.25,
      "v": 108
    },
    {
      "midi": 50,
      "hit": false,
      "t": 129000,
      "d": 1500,
      "v": 72
    },
    {
      "midi": 52,
      "hit": false,
      "t": 130125,
      "d": 375,
      "v": 98
    },
    {
      "midi": 56,
      "hit": false,
      "t": 130500,
      "d": 1500,
      "v": 88
    },
    {
      "midi": 62,
      "hit": false,
      "t": 130687.5,
      "d": 1312.5,
      "v": 77
    },
    {
      "midi": 66,
      "hit": false,
      "t": 130875,
      "d": 1125,
      "v": 88
    },
    {
      "midi": 68,
      "hit": false,
      "t": 131062.5,
      "d": 937.5,
      "v": 109
    },
    {
      "midi": 60,
      "hit": false,
      "t": 132000,
      "d": 531.25,
      "v": 86
    },
    {
      "midi": 64,
      "hit": false,
      "t": 132000,
      "d": 1062.5,
      "v": 107
    },
    {
      "midi": 55,
      "hit": false,
      "t": 132000,
      "d": 2568.75,
      "v": 77
    },
    {
      "midi": 60,
      "hit": false,
      "t": 132562.5,
      "d": 1437.5,
      "v": 81
    },
    {
      "midi": 65,
      "hit": false,
      "t": 133125,
      "d": 331.25,
      "v": 92
    },
    {
      "midi": 67,
      "hit": false,
      "t": 133500,
      "d": 18.75,
      "v": 50
    },
    {
      "midi": 67,
      "hit": false,
      "t": 133518.75,
      "d": 1462.5,
      "v": 80
    },
    {
      "midi": 60,
      "hit": false,
      "t": 134062.5,
      "d": 937.5,
      "v": 74
    },
    {
      "midi": 55,
      "hit": false,
      "t": 134625,
      "d": 375,
      "v": 74
    },
    {
      "midi": 55,
      "hit": false,
      "t": 135000,
      "d": 525,
      "v": 68
    },
    {
      "midi": 60,
      "hit": false,
      "t": 135000,
      "d": 1075,
      "v": 83
    },
    {
      "midi": 52,
      "hit": false,
      "t": 135000,
      "d": 1500,
      "v": 78
    },
    {
      "midi": 57,
      "hit": false,
      "t": 135550,
      "d": 950,
      "v": 91
    },
    {
      "midi": 60,
      "hit": false,
      "t": 136112.5,
      "d": 350,
      "v": 87
    },
    {
      "midi": 66,
      "hit": false,
      "t": 136500,
      "d": 1481.25,
      "v": 108
    },
    {
      "midi": 57,
      "hit": false,
      "t": 136500,
      "d": 1500,
      "v": 73
    },
    {
      "midi": 60,
      "hit": false,
      "t": 136506.25,
      "d": 1481.25,
      "v": 96
    },
    {
      "midi": 59,
      "hit": false,
      "t": 138000,
      "d": 2137.5,
      "v": 66
    },
    {
      "midi": 62,
      "hit": false,
      "t": 138000,
      "d": 2162.5,
      "v": 74
    },
    {
      "midi": 66,
      "hit": false,
      "t": 138000,
      "d": 2200,
      "v": 66
    },
    {
      "midi": 35,
      "hit": false,
      "t": 138000,
      "d": 2981.25,
      "v": 78
    },
    {
      "midi": 62,
      "hit": false,
      "t": 140250,
      "d": 693.75,
      "v": 86
    },
    {
      "midi": 66,
      "hit": false,
      "t": 140625,
      "d": 325,
      "v": 80
    },
    {
      "midi": 62,
      "hit": false,
      "t": 141000,
      "d": 2793.75,
      "v": 92
    },
    {
      "midi": 52,
      "hit": false,
      "t": 141000,
      "d": 2812.5,
      "v": 65
    },
    {
      "midi": 56,
      "hit": false,
      "t": 141000,
      "d": 2812.5,
      "v": 85
    },
    {
      "midi": 57,
      "hit": false,
      "t": 144000,
      "d": 2137.5,
      "v": 66
    },
    {
      "midi": 60,
      "hit": false,
      "t": 144000,
      "d": 2162.5,
      "v": 74
    },
    {
      "midi": 64,
      "hit": false,
      "t": 144000,
      "d": 2200,
      "v": 66
    },
    {
      "midi": 45,
      "hit": false,
      "t": 144000,
      "d": 2981.25,
      "v": 78
    },
    {
      "midi": 60,
      "hit": false,
      "t": 146250,
      "d": 693.75,
      "v": 86
    },
    {
      "midi": 64,
      "hit": false,
      "t": 146625,
      "d": 325,
      "v": 80
    },
    {
      "midi": 66,
      "hit": false,
      "t": 147000,
      "d": 2793.75,
      "v": 92
    },
    {
      "midi": 57,
      "hit": false,
      "t": 147000,
      "d": 2812.5,
      "v": 65
    },
    {
      "midi": 60,
      "hit": false,
      "t": 147000,
      "d": 2812.5,
      "v": 85
    },
    {
      "midi": 57,
      "hit": false,
      "t": 150000,
      "d": 2137.5,
      "v": 66
    },
    {
      "midi": 61,
      "hit": false,
      "t": 150000,
      "d": 2162.5,
      "v": 74
    },
    {
      "midi": 64,
      "hit": false,
      "t": 150000,
      "d": 2193.75,
      "v": 71
    },
    {
      "midi": 66,
      "hit": false,
      "t": 150000,
      "d": 2200,
      "v": 66
    },
    {
      "midi": 42,
      "hit": false,
      "t": 150000,
      "d": 2981.25,
      "v": 78
    },
    {
      "midi": 61,
      "hit": false,
      "t": 152250,
      "d": 731.25,
      "v": 86
    },
    {
      "midi": 64,
      "hit": false,
      "t": 152437.5,
      "d": 506.25,
      "v": 80
    },
    {
      "midi": 66,
      "hit": false,
      "t": 152625,
      "d": 325,
      "v": 80
    },
    {
      "midi": 57,
      "hit": false,
      "t": 153000,
      "d": 525,
      "v": 68
    },
    {
      "midi": 63,
      "hit": false,
      "t": 153000,
      "d": 1075,
      "v": 83
    },
    {
      "midi": 54,
      "hit": false,
      "t": 153000,
      "d": 1500,
      "v": 78
    },
    {
      "midi": 59,
      "hit": false,
      "t": 153550,
      "d": 950,
      "v": 91
    },
    {
      "midi": 63,
      "hit": false,
      "t": 154112.5,
      "d": 350,
      "v": 87
    },
    {
      "midi": 63,
      "hit": false,
      "t": 154500,
      "d": 1481.25,
      "v": 108
    },
    {
      "midi": 54,
      "hit": false,
      "t": 154500,
      "d": 1500,
      "v": 73
    },
    {
      "midi": 57,
      "hit": false,
      "t": 154506.25,
      "d": 1481.25,
      "v": 96
    },
    {
      "midi": 52,
      "hit": false,
      "t": 156000,
      "d": 818.75,
      "v": 93
    },
    {
      "midi": 67,
      "hit": false,
      "t": 156000,
      "d": 1125,
      "v": 89
    },
    {
      "midi": 74,
      "hit": false,
      "t": 156000,
      "d": 2462.5,
      "v": 109
    },
    {
      "midi": 66,
      "hit": false,
      "t": 156562.5,
      "d": 1900,
      "v": 104
    },
    {
      "midi": 64,
      "hit": false,
      "t": 156937.5,
      "d": 125,
      "v": 66
    },
    {
      "midi": 52,
      "hit": false,
      "t": 157125,
      "d": 462.5,
      "v": 67
    },
    {
      "midi": 67,
      "hit": false,
      "t": 157125,
      "d": 462.5,
      "v": 109
    },
    {
      "midi": 64,
      "hit": false,
      "t": 157587.5,
      "d": 168.75,
      "v": 60
    },
    {
      "midi": 67,
      "hit": false,
      "t": 157587.5,
      "d": 787.5,
      "v": 93
    },
    {
      "midi": 52,
      "hit": false,
      "t": 157756.25,
      "d": 431.25,
      "v": 62
    },
    {
      "midi": 64,
      "hit": false,
      "t": 158187.5,
      "d": 187.5,
      "v": 58
    },
    {
      "midi": 52,
      "hit": false,
      "t": 158375,
      "d": 87.5,
      "v": 57
    },
    {
      "midi": 59,
      "hit": false,
      "t": 159000,
      "d": 1462.5,
      "v": 83
    },
    {
      "midi": 39,
      "hit": false,
      "t": 159000,
      "d": 2737.5,
      "v": 74
    },
    {
      "midi": 52,
      "hit": false,
      "t": 159562.5,
      "d": 2162.5,
      "v": 82
    },
    {
      "midi": 55,
      "hit": false,
      "t": 160125,
      "d": 1600,
      "v": 82
    },
    {
      "midi": 64,
      "hit": false,
      "t": 160500,
      "d": 1225,
      "v": 81
    },
    {
      "midi": 78,
      "hit": false,
      "t": 162000,
      "d": 1862.5,
      "v": 98
    },
    {
      "midi": 74,
      "hit": false,
      "t": 162000,
      "d": 2725,
      "v": 87
    },
    {
      "midi": 59,
      "hit": false,
      "t": 162000,
      "d": 3000,
      "v": 73
    },
    {
      "midi": 64,
      "hit": false,
      "t": 162000,
      "d": 3000,
      "v": 69
    },
    {
      "midi": 69,
      "hit": false,
      "t": 162000,
      "d": 3000,
      "v": 76
    },
    {
      "midi": 57,
      "hit": false,
      "t": 165000,
      "d": 1462.5,
      "v": 83
    },
    {
      "midi": 49,
      "hit": false,
      "t": 165000,
      "d": 2725,
      "v": 74
    },
    {
      "midi": 52,
      "hit": false,
      "t": 166125,
      "d": 1600,
      "v": 82
    },
    {
      "midi": 61,
      "hit": false,
      "t": 166500,
      "d": 1225,
      "v": 81
    },
    {
      "midi": 69,
      "hit": false,
      "t": 168000,
      "d": 568.75,
      "v": 108
    },
    {
      "midi": 45,
      "hit": false,
      "t": 168000,
      "d": 1093.75,
      "v": 90
    },
    {
      "midi": 60,
      "hit": false,
      "t": 168187.5,
      "d": 937.5,
      "v": 88
    },
    {
      "midi": 64,
      "hit": false,
      "t": 168375,
      "d": 531.25,
      "v": 102
    },
    {
      "midi": 69,
      "hit": false,
      "t": 168568.75,
      "d": 725,
      "v": 108
    },
    {
      "midi": 64,
      "hit": false,
      "t": 168937.5,
      "d": 1325,
      "v": 95
    },
    {
      "midi": 60,
      "hit": false,
      "t": 169125,
      "d": 37.5,
      "v": 60
    },
    {
      "midi": 45,
      "hit": false,
      "t": 169162.5,
      "d": 456.25,
      "v": 61
    },
    {
      "midi": 69,
      "hit": false,
      "t": 169312.5,
      "d": 1656.25,
      "v": 108
    },
    {
      "midi": 60,
      "hit": false,
      "t": 169687.5,
      "d": 181.25,
      "v": 57
    },
    {
      "midi": 45,
      "hit": false,
      "t": 169875,
      "d": 387.5,
      "v": 56
    },
    {
      "midi": 60,
      "hit": false,
      "t": 170262.5,
      "d": 237.5,
      "v": 53
    },
    {
      "midi": 45,
      "hit": false,
      "t": 170500,
      "d": 381.25,
      "v": 51
    },
    {
      "midi": 60,
      "hit": false,
      "t": 170881.25,
      "d": 87.5,
      "v": 50
    },
    {
      "midi": 60,
      "hit": false,
      "t": 171000,
      "d": 1462.5,
      "v": 83
    },
    {
      "midi": 50,
      "hit": false,
      "t": 171000,
      "d": 2737.5,
      "v": 74
    },
    {
      "midi": 54,
      "hit": false,
      "t": 171562.5,
      "d": 2162.5,
      "v": 82
    },
    {
      "midi": 57,
      "hit": false,
      "t": 172125,
      "d": 1600,
      "v": 82
    },
    {
      "midi": 62,
      "hit": false,
      "t": 172500,
      "d": 1225,
      "v": 81
    },
    {
      "midi": 74,
      "hit": false,
      "t": 174000,
      "d": 568.75,
      "v": 108
    },
    {
      "midi": 43,
      "hit": false,
      "t": 174000,
      "d": 1093.75,
      "v": 90
    },
    {
      "midi": 67,
      "hit": false,
      "t": 174187.5,
      "d": 937.5,
      "v": 88
    },
    {
      "midi": 71,
      "hit": false,
      "t": 174375,
      "d": 531.25,
      "v": 102
    },
    {
      "midi": 74,
      "hit": false,
      "t": 174568.75,
      "d": 725,
      "v": 108
    },
    {
      "midi": 71,
      "hit": false,
      "t": 174937.5,
      "d": 1325,
      "v": 95
    },
    {
      "midi": 67,
      "hit": false,
      "t": 175125,
      "d": 37.5,
      "v": 60
    },
    {
      "midi": 43,
      "hit": false,
      "t": 175162.5,
      "d": 456.25,
      "v": 61
    },
    {
      "midi": 74,
      "hit": false,
      "t": 175312.5,
      "d": 1656.25,
      "v": 108
    },
    {
      "midi": 67,
      "hit": false,
      "t": 175687.5,
      "d": 181.25,
      "v": 57
    },
    {
      "midi": 43,
      "hit": false,
      "t": 175875,
      "d": 387.5,
      "v": 56
    },
    {
      "midi": 67,
      "hit": false,
      "t": 176262.5,
      "d": 237.5,
      "v": 53
    },
    {
      "midi": 43,
      "hit": false,
      "t": 176500,
      "d": 381.25,
      "v": 51
    },
    {
      "midi": 67,
      "hit": false,
      "t": 176881.25,
      "d": 87.5,
      "v": 50
    },
    {
      "midi": 56,
      "hit": false,
      "t": 177000,
      "d": 1500,
      "v": 88
    },
    {
      "midi": 62,
      "hit": false,
      "t": 177187.5,
      "d": 1312.5,
      "v": 77
    },
    {
      "midi": 66,
      "hit": false,
      "t": 177375,
      "d": 1125,
      "v": 88
    },
    {
      "midi": 68,
      "hit": false,
      "t": 177562.5,
      "d": 937.5,
      "v": 109
    },
    {
      "midi": 56,
      "hit": false,
      "t": 178500,
      "d": 1500,
      "v": 88
    },
    {
      "midi": 62,
      "hit": false,
      "t": 178687.5,
      "d": 1312.5,
      "v": 77
    },
    {
      "midi": 66,
      "hit": false,
      "t": 178875,
      "d": 1125,
      "v": 88
    },
    {
      "midi": 68,
      "hit": false,
      "t": 179062.5,
      "d": 937.5,
      "v": 109
    },
    {
      "midi": 72,
      "hit": false,
      "t": 180000,
      "d": 568.75,
      "v": 108
    },
    {
      "midi": 48,
      "hit": false,
      "t": 180000,
      "d": 1093.75,
      "v": 90
    },
    {
      "midi": 64,
      "hit": false,
      "t": 180187.5,
      "d": 937.5,
      "v": 88
    },
    {
      "midi": 67,
      "hit": false,
      "t": 180375,
      "d": 531.25,
      "v": 102
    },
    {
      "midi": 72,
      "hit": false,
      "t": 180568.75,
      "d": 725,
      "v": 108
    },
    {
      "midi": 67,
      "hit": false,
      "t": 180937.5,
      "d": 1325,
      "v": 95
    },
    {
      "midi": 64,
      "hit": false,
      "t": 181125,
      "d": 37.5,
      "v": 60
    },
    {
      "midi": 48,
      "hit": false,
      "t": 181162.5,
      "d": 456.25,
      "v": 61
    },
    {
      "midi": 72,
      "hit": false,
      "t": 181312.5,
      "d": 1656.25,
      "v": 108
    },
    {
      "midi": 64,
      "hit": false,
      "t": 181687.5,
      "d": 181.25,
      "v": 57
    },
    {
      "midi": 48,
      "hit": false,
      "t": 181875,
      "d": 387.5,
      "v": 56
    },
    {
      "midi": 64,
      "hit": false,
      "t": 182262.5,
      "d": 237.5,
      "v": 53
    },
    {
      "midi": 48,
      "hit": false,
      "t": 182500,
      "d": 381.25,
      "v": 51
    },
    {
      "midi": 64,
      "hit": false,
      "t": 182881.25,
      "d": 87.5,
      "v": 50
    },
    {
      "midi": 57,
      "hit": false,
      "t": 183000,
      "d": 1362.5,
      "v": 64
    },
    {
      "midi": 60,
      "hit": false,
      "t": 183000,
      "d": 1381.25,
      "v": 108
    },
    {
      "midi": 48,
      "hit": false,
      "t": 183000,
      "d": 1500,
      "v": 72
    },
    {
      "midi": 52,
      "hit": false,
      "t": 184125,
      "d": 375,
      "v": 98
    },
    {
      "midi": 60,
      "hit": false,
      "t": 184500,
      "d": 1362.5,
      "v": 64
    },
    {
      "midi": 62,
      "hit": false,
      "t": 184500,
      "d": 1381.25,
      "v": 108
    },
    {
      "midi": 54,
      "hit": false,
      "t": 184500,
      "d": 1500,
      "v": 72
    },
    {
      "midi": 57,
      "hit": false,
      "t": 185625,
      "d": 375,
      "v": 98
    },
    {
      "midi": 59,
      "hit": false,
      "t": 186000,
      "d": 1462.5,
      "v": 83
    },
    {
      "midi": 47,
      "hit": false,
      "t": 186000,
      "d": 2737.5,
      "v": 74
    },
    {
      "midi": 50,
      "hit": false,
      "t": 186562.5,
      "d": 2162.5,
      "v": 82
    },
    {
      "midi": 54,
      "hit": false,
      "t": 187125,
      "d": 1600,
      "v": 82
    },
    {
      "midi": 62,
      "hit": false,
      "t": 187500,
      "d": 1225,
      "v": 81
    },
    {
      "midi": 56,
      "hit": false,
      "t": 189000,
      "d": 1462.5,
      "v": 83
    },
    {
      "midi": 40,
      "hit": false,
      "t": 189000,
      "d": 2737.5,
      "v": 74
    },
    {
      "midi": 50,
      "hit": false,
      "t": 189562.5,
      "d": 2162.5,
      "v": 82
    },
    {
      "midi": 52,
      "hit": false,
      "t": 190125,
      "d": 1600,
      "v": 82
    },
    {
      "midi": 59,
      "hit": false,
      "t": 190500,
      "d": 1225,
      "v": 81
    },
    {
      "midi": 71,
      "hit": false,
      "t": 192000,
      "d": 1862.5,
      "v": 98
    },
    {
      "midi": 67,
      "hit": false,
      "t": 192000,
      "d": 2725,
      "v": 87
    },
    {
      "midi": 52,
      "hit": false,
      "t": 192000,
      "d": 3000,
      "v": 73
    },
    {
      "midi": 57,
      "hit": false,
      "t": 192000,
      "d": 3000,
      "v": 69
    },
    {
      "midi": 62,
      "hit": false,
      "t": 192000,
      "d": 3000,
      "v": 76
    },
    {
      "midi": 60,
      "hit": false,
      "t": 195000,
      "d": 1462.5,
      "v": 83
    },
    {
      "midi": 50,
      "hit": false,
      "t": 195000,
      "d": 2737.5,
      "v": 74
    },
    {
      "midi": 54,
      "hit": false,
      "t": 195562.5,
      "d": 2162.5,
      "v": 82
    },
    {
      "midi": 57,
      "hit": false,
      "t": 196125,
      "d": 1600,
      "v": 82
    },
    {
      "midi": 62,
      "hit": false,
      "t": 196500,
      "d": 1225,
      "v": 81
    },
    {
      "midi": 73,
      "hit": false,
      "t": 198000,
      "d": 1862.5,
      "v": 98
    },
    {
      "midi": 69,
      "hit": false,
      "t": 198000,
      "d": 2725,
      "v": 87
    },
    {
      "midi": 54,
      "hit": false,
      "t": 198000,
      "d": 3000,
      "v": 73
    },
    {
      "midi": 59,
      "hit": false,
      "t": 198000,
      "d": 3000,
      "v": 69
    },
    {
      "midi": 64,
      "hit": false,
      "t": 198000,
      "d": 3000,
      "v": 76
    },
    {
      "midi": 68,
      "hit": false,
      "t": 201000,
      "d": 568.75,
      "v": 108
    },
    {
      "midi": 40,
      "hit": false,
      "t": 201000,
      "d": 1093.75,
      "v": 90
    },
    {
      "midi": 62,
      "hit": false,
      "t": 201187.5,
      "d": 937.5,
      "v": 88
    },
    {
      "midi": 64,
      "hit": false,
      "t": 201375,
      "d": 531.25,
      "v": 102
    },
    {
      "midi": 68,
      "hit": false,
      "t": 201568.75,
      "d": 725,
      "v": 108
    },
    {
      "midi": 64,
      "hit": false,
      "t": 201937.5,
      "d": 1325,
      "v": 95
    },
    {
      "midi": 59,
      "hit": false,
      "t": 202125,
      "d": 37.5,
      "v": 60
    },
    {
      "midi": 62,
      "hit": false,
      "t": 202125,
      "d": 1756.25,
      "v": 90
    },
    {
      "midi": 40,
      "hit": false,
      "t": 202162.5,
      "d": 456.25,
      "v": 61
    },
    {
      "midi": 68,
      "hit": false,
      "t": 202312.5,
      "d": 1656.25,
      "v": 108
    },
    {
      "midi": 59,
      "hit": false,
      "t": 202687.5,
      "d": 181.25,
      "v": 57
    },
    {
      "midi": 40,
      "hit": false,
      "t": 202875,
      "d": 387.5,
      "v": 56
    },
    {
      "midi": 59,
      "hit": false,
      "t": 203262.5,
      "d": 237.5,
      "v": 53
    },
    {
      "midi": 40,
      "hit": false,
      "t": 203500,
      "d": 381.25,
      "v": 51
    },
    {
      "midi": 59,
      "hit": false,
      "t": 203881.25,
      "d": 87.5,
      "v": 50
    },
    {
      "midi": 67,
      "hit": false,
      "t": 204000,
      "d": 556.25,
      "v": 86
    },
    {
      "midi": 71,
      "hit": false,
      "t": 204000,
      "d": 556.25,
      "v": 95
    },
    {
      "midi": 62,
      "hit": false,
      "t": 204000,
      "d": 1125,
      "v": 85
    },
    {
      "midi": 60,
      "hit": false,
      "t": 204000,
      "d": 1487.5,
      "v": 82
    },
    {
      "midi": 52,
      "hit": false,
      "t": 204000,
      "d": 2968.75,
      "v": 76
    },
    {
      "midi": 67,
      "hit": false,
      "t": 204562.5,
      "d": 1500,
      "v": 91
    },
    {
      "midi": 62,
      "hit": false,
      "t": 205125,
      "d": 868.75,
      "v": 87
    },
    {
      "midi": 60,
      "hit": false,
      "t": 205500,
      "d": 1475,
      "v": 97
    },
    {
      "midi": 62,
      "hit": false,
      "t": 206062.5,
      "d": 893.75,
      "v": 101
    },
    {
      "midi": 67,
      "hit": false,
      "t": 206625,
      "d": 350,
      "v": 86
    },
    {
      "midi": 57,
      "hit": false,
      "t": 207000,
      "d": 1362.5,
      "v": 64
    },
    {
      "midi": 60,
      "hit": false,
      "t": 207000,
      "d": 1381.25,
      "v": 108
    },
    {
      "midi": 48,
      "hit": false,
      "t": 207000,
      "d": 1500,
      "v": 72
    },
    {
      "midi": 52,
      "hit": false,
      "t": 208125,
      "d": 375,
      "v": 98
    },
    {
      "midi": 62,
      "hit": false,
      "t": 208500,
      "d": 537.5,
      "v": 64
    },
    {
      "midi": 64,
      "hit": false,
      "t": 208500,
      "d": 1081.25,
      "v": 108
    },
    {
      "midi": 54,
      "hit": false,
      "t": 208500,
      "d": 1500,
      "v": 72
    },
    {
      "midi": 62,
      "hit": false,
      "t": 209062.5,
      "d": 937.5,
      "v": 93
    },
    {
      "midi": 64,
      "hit": false,
      "t": 209625,
      "d": 375,
      "v": 98
    },
    {
      "midi": 71,
      "hit": false,
      "t": 210000,
      "d": 568.75,
      "v": 108
    },
    {
      "midi": 47,
      "hit": false,
      "t": 210000,
      "d": 1093.75,
      "v": 90
    },
    {
      "midi": 62,
      "hit": false,
      "t": 210187.5,
      "d": 937.5,
      "v": 88
    },
    {
      "midi": 66,
      "hit": false,
      "t": 210375,
      "d": 531.25,
      "v": 102
    },
    {
      "midi": 71,
      "hit": false,
      "t": 210568.75,
      "d": 725,
      "v": 108
    },
    {
      "midi": 66,
      "hit": false,
      "t": 210937.5,
      "d": 1325,
      "v": 95
    },
    {
      "midi": 62,
      "hit": false,
      "t": 211125,
      "d": 37.5,
      "v": 60
    },
    {
      "midi": 47,
      "hit": false,
      "t": 211162.5,
      "d": 456.25,
      "v": 61
    },
    {
      "midi": 71,
      "hit": false,
      "t": 211312.5,
      "d": 1656.25,
      "v": 108
    },
    {
      "midi": 62,
      "hit": false,
      "t": 211687.5,
      "d": 181.25,
      "v": 57
    },
    {
      "midi": 47,
      "hit": false,
      "t": 211875,
      "d": 387.5,
      "v": 56
    },
    {
      "midi": 62,
      "hit": false,
      "t": 212262.5,
      "d": 237.5,
      "v": 53
    },
    {
      "midi": 47,
      "hit": false,
      "t": 212500,
      "d": 381.25,
      "v": 51
    },
    {
      "midi": 62,
      "hit": false,
      "t": 212881.25,
      "d": 87.5,
      "v": 50
    },
    {
      "midi": 56,
      "hit": false,
      "t": 213000,
      "d": 1462.5,
      "v": 83
    },
    {
      "midi": 40,
      "hit": false,
      "t": 213000,
      "d": 2737.5,
      "v": 74
    },
    {
      "midi": 50,
      "hit": false,
      "t": 213562.5,
      "d": 2162.5,
      "v": 82
    },
    {
      "midi": 52,
      "hit": false,
      "t": 214125,
      "d": 1600,
      "v": 82
    },
    {
      "midi": 59,
      "hit": false,
      "t": 214500,
      "d": 1225,
      "v": 81
    },
    {
      "midi": 69,
      "hit": false,
      "t": 216000,
      "d": 568.75,
      "v": 108
    },
    {
      "midi": 45,
      "hit": false,
      "t": 216000,
      "d": 1093.75,
      "v": 90
    },
    {
      "midi": 60,
      "hit": false,
      "t": 216187.5,
      "d": 937.5,
      "v": 88
    },
    {
      "midi": 64,
      "hit": false,
      "t": 216375,
      "d": 531.25,
      "v": 102
    },
    {
      "midi": 69,
      "hit": false,
      "t": 216568.75,
      "d": 725,
      "v": 108
    },
    {
      "midi": 64,
      "hit": false,
      "t": 216937.5,
      "d": 1325,
      "v": 95
    },
    {
      "midi": 60,
      "hit": false,
      "t": 217125,
      "d": 37.5,
      "v": 60
    },
    {
      "midi": 45,
      "hit": false,
      "t": 217162.5,
      "d": 456.25,
      "v": 61
    },
    {
      "midi": 69,
      "hit": false,
      "t": 217312.5,
      "d": 1656.25,
      "v": 108
    },
    {
      "midi": 60,
      "hit": false,
      "t": 217687.5,
      "d": 181.25,
      "v": 57
    },
    {
      "midi": 45,
      "hit": false,
      "t": 217875,
      "d": 387.5,
      "v": 56
    },
    {
      "midi": 60,
      "hit": false,
      "t": 218262.5,
      "d": 237.5,
      "v": 53
    },
    {
      "midi": 45,
      "hit": false,
      "t": 218500,
      "d": 381.25,
      "v": 51
    },
    {
      "midi": 60,
      "hit": false,
      "t": 218881.25,
      "d": 87.5,
      "v": 50
    },
    {
      "midi": 72,
      "hit": false,
      "t": 219000,
      "d": 568.75,
      "v": 108
    },
    {
      "midi": 50,
      "hit": false,
      "t": 219000,
      "d": 1093.75,
      "v": 90
    },
    {
      "midi": 66,
      "hit": false,
      "t": 219187.5,
      "d": 937.5,
      "v": 88
    },
    {
      "midi": 69,
      "hit": false,
      "t": 219375,
      "d": 531.25,
      "v": 102
    },
    {
      "midi": 72,
      "hit": false,
      "t": 219568.75,
      "d": 725,
      "v": 108
    },
    {
      "midi": 69,
      "hit": false,
      "t": 219937.5,
      "d": 1325,
      "v": 95
    },
    {
      "midi": 62,
      "hit": false,
      "t": 220125,
      "d": 37.5,
      "v": 60
    },
    {
      "midi": 66,
      "hit": false,
      "t": 220125,
      "d": 1756.25,
      "v": 90
    },
    {
      "midi": 50,
      "hit": false,
      "t": 220162.5,
      "d": 456.25,
      "v": 61
    },
    {
      "midi": 72,
      "hit": false,
      "t": 220312.5,
      "d": 1656.25,
      "v": 108
    },
    {
      "midi": 62,
      "hit": false,
      "t": 220687.5,
      "d": 181.25,
      "v": 57
    },
    {
      "midi": 50,
      "hit": false,
      "t": 220875,
      "d": 387.5,
      "v": 56
    },
    {
      "midi": 62,
      "hit": false,
      "t": 221262.5,
      "d": 237.5,
      "v": 53
    },
    {
      "midi": 50,
      "hit": false,
      "t": 221500,
      "d": 381.25,
      "v": 51
    },
    {
      "midi": 62,
      "hit": false,
      "t": 221881.25,
      "d": 87.5,
      "v": 50
    },
    {
      "midi": 69,
      "hit": false,
      "t": 222000,
      "d": 568.75,
      "v": 108
    },
    {
      "midi": 47,
      "hit": false,
      "t": 222000,
      "d": 1093.75,
      "v": 90
    },
    {
      "midi": 61,
      "hit": false,
      "t": 222187.5,
      "d": 937.5,
      "v": 88
    },
    {
      "midi": 62,
      "hit": false,
      "t": 222375,
      "d": 531.25,
      "v": 102
    },
    {
      "midi": 69,
      "hit": false,
      "t": 222568.75,
      "d": 725,
      "v": 108
    },
    {
      "midi": 62,
      "hit": false,
      "t": 222937.5,
      "d": 1325,
      "v": 95
    },
    {
      "midi": 59,
      "hit": false,
      "t": 223125,
      "d": 37.5,
      "v": 60
    },
    {
      "midi": 61,
      "hit": false,
      "t": 223125,
      "d": 1843.75,
      "v": 90
    },
    {
      "midi": 47,
      "hit": false,
      "t": 223162.5,
      "d": 456.25,
      "v": 61
    },
    {
      "midi": 69,
      "hit": false,
      "t": 223312.5,
      "d": 1656.25,
      "v": 108
    },
    {
      "midi": 59,
      "hit": false,
      "t": 223687.5,
      "d": 181.25,
      "v": 57
    },
    {
      "midi": 47,
      "hit": false,
      "t": 223875,
      "d": 387.5,
      "v": 56
    },
    {
      "midi": 59,
      "hit": false,
      "t": 224262.5,
      "d": 237.5,
      "v": 53
    },
    {
      "midi": 62,
      "hit": false,
      "t": 224262.5,
      "d": 618.75,
      "v": 105
    },
    {
      "midi": 47,
      "hit": false,
      "t": 224500,
      "d": 381.25,
      "v": 51
    },
    {
      "midi": 59,
      "hit": false,
      "t": 224881.25,
      "d": 87.5,
      "v": 50
    },
    {
      "midi": 68,
      "hit": false,
      "t": 225000,
      "d": 568.75,
      "v": 108
    },
    {
      "midi": 40,
      "hit": false,
      "t": 225000,
      "d": 1093.75,
      "v": 90
    },
    {
      "midi": 62,
      "hit": false,
      "t": 225187.5,
      "d": 937.5,
      "v": 88
    },
    {
      "midi": 64,
      "hit": false,
      "t": 225375,
      "d": 531.25,
      "v": 102
    },
    {
      "midi": 68,
      "hit": false,
      "t": 225568.75,
      "d": 725,
      "v": 108
    },
    {
      "midi": 64,
      "hit": false,
      "t": 225937.5,
      "d": 1325,
      "v": 95
    },
    {
      "midi": 59,
      "hit": false,
      "t": 226125,
      "d": 37.5,
      "v": 60
    },
    {
      "midi": 62,
      "hit": false,
      "t": 226125,
      "d": 1756.25,
      "v": 90
    },
    {
      "midi": 40,
      "hit": false,
      "t": 226162.5,
      "d": 456.25,
      "v": 61
    },
    {
      "midi": 68,
      "hit": false,
      "t": 226312.5,
      "d": 1656.25,
      "v": 108
    },
    {
      "midi": 59,
      "hit": false,
      "t": 226687.5,
      "d": 181.25,
      "v": 57
    },
    {
      "midi": 40,
      "hit": false,
      "t": 226875,
      "d": 387.5,
      "v": 56
    },
    {
      "midi": 59,
      "hit": false,
      "t": 227262.5,
      "d": 237.5,
      "v": 53
    },
    {
      "midi": 40,
      "hit": false,
      "t": 227500,
      "d": 381.25,
      "v": 51
    },
    {
      "midi": 59,
      "hit": false,
      "t": 227881.25,
      "d": 87.5,
      "v": 50
    },
    {
      "midi": 68,
      "hit": false,
      "t": 228062.5,
      "d": 443.75,
      "v": 61
    },
    {
      "midi": 71,
      "hit": false,
      "t": 228075,
      "d": 1068.75,
      "v": 91
    },
    {
      "midi": 56,
      "hit": false,
      "t": 228093.75,
      "d": 2550,
      "v": 81
    },
    {
      "midi": 64,
      "hit": false,
      "t": 228618.75,
      "d": 2043.75,
      "v": 87
    },
    {
      "midi": 68,
      "hit": false,
      "t": 229131.25,
      "d": 1481.25,
      "v": 94
    },
    {
      "midi": 71,
      "hit": false,
      "t": 229150,
      "d": 1400,
      "v": 60
    },
    {
      "midi": 68,
      "hit": false,
      "t": 231012.5,
      "d": 537.5,
      "v": 107
    },
    {
      "midi": 64,
      "hit": false,
      "t": 231018.75,
      "d": 1106.25,
      "v": 96
    },
    {
      "midi": 59,
      "hit": false,
      "t": 231025,
      "d": 1043.75,
      "v": 79
    },
    {
      "midi": 71,
      "hit": false,
      "t": 231568.75,
      "d": 506.25,
      "v": 83
    },
    {
      "midi": 68,
      "hit": false,
      "t": 232075,
      "d": 81.25,
      "v": 58
    },
    {
      "midi": 59,
      "hit": false,
      "t": 232106.25,
      "d": 1893.75,
      "v": 80
    },
    {
      "midi": 64,
      "hit": false,
      "t": 232137.5,
      "d": 1862.5,
      "v": 85
    },
    {
      "midi": 68,
      "hit": false,
      "t": 232181.25,
      "d": 1818.75,
      "v": 65
    }
  ]
}