{
  "jsonPath": "Animes/Escaflowne MIDI Collection/yakusoku-wa-iranai-tv-opening.json",
  "path": "Animes\\Escaflowne MIDI Collection\\Yakusoku wa Iranai (TV Opening).mid",
  "name": "Yakusoku wa Iranai (TV Opening)",
  "difficulty": "Advanced",
  "bpm": 160,
  "notes": [
    {
      "midi": 50,
      "hit": false,
      "t": 0,
      "d": 62.5,
      "v": 100
    },
    {
      "midi": 26,
      "hit": false,
      "t": 0,
      "d": 187.5,
      "v": 100
    },
    {
      "midi": 38,
      "hit": false,
      "t": 0,
      "d": 187.5,
      "v": 100
    },
    {
      "midi": 51,
      "hit": false,
      "t": 62.5,
      "d": 62.5,
      "v": 100
    },
    {
      "midi": 52,
      "hit": false,
      "t": 125,
      "d": 62.5,
      "v": 100
    },
    {
      "midi": 53,
      "hit": false,
      "t": 187.5,
      "d": 62.5,
      "v": 100
    },
    {
      "midi": 38,
      "hit": false,
      "t": 187.5,
      "d": 187.5,
      "v": 100
    },
    {
      "midi": 26,
      "hit": false,
      "t": 187.5,
      "d": 187.5,
      "v": 100
    },
    {
      "midi": 54,
      "hit": false,
      "t": 250,
      "d": 62.5,
      "v": 100
    },
    {
      "midi": 55,
      "hit": false,
      "t": 312.5,
      "d": 62.5,
      "v": 100
    },
    {
      "midi": 56,
      "hit": false,
      "t": 375,
      "d": 62.5,
      "v": 100
    },
    {
      "midi": 26,
      "hit": false,
      "t": 375,
      "d": 187.5,
      "v": 100
    },
    {
      "midi": 38,
      "hit": false,
      "t": 375,
      "d": 187.5,
      "v": 100
    },
    {
      "midi": 57,
      "hit": false,
      "t": 437.5,
      "d": 62.5,
      "v": 100
    },
    {
      "midi": 50,
      "hit": false,
      "t": 468.75,
      "d": 62.5,
      "v": 100
    },
    {
      "midi": 58,
      "hit": false,
      "t": 500,
      "d": 62.5,
      "v": 100
    },
    {
      "midi": 51,
      "hit": false,
      "t": 531.25,
      "d": 62.5,
      "v": 100
    },
    {
      "midi": 59,
      "hit": false,
      "t": 562.5,
      "d": 62.5,
      "v": 100
    },
    {
      "midi": 26,
      "hit": false,
      "t": 562.5,
      "d": 187.5,
      "v": 100
    },
    {
      "midi": 38,
      "hit": false,
      "t": 562.5,
      "d": 187.5,
      "v": 100
    },
    {
      "midi": 52,
      "hit": false,
      "t": 593.75,
      "d": 62.5,
      "v": 100
    },
    {
      "midi": 60,
      "hit": false,
      "t": 625,
      "d": 62.5,
      "v": 100
    },
    {
      "midi": 53,
      "hit": false,
      "t": 656.25,
      "d": 62.5,
      "v": 100
    },
    {
      "midi": 61,
      "hit": false,
      "t": 687.5,
      "d": 62.5,
      "v": 100
    },
    {
      "midi": 54,
      "hit": false,
      "t": 718.75,
      "d": 62.5,
      "v": 100
    },
    {
      "midi": 62,
      "hit": false,
      "t": 750,
      "d": 62.5,
      "v": 100
    },
    {
      "midi": 26,
      "hit": false,
      "t": 750,
      "d": 187.5,
      "v": 100
    },
    {
      "midi": 38,
      "hit": false,
      "t": 750,
      "d": 187.5,
      "v": 100
    },
    {
      "midi": 55,
      "hit": false,
      "t": 781.25,
      "d": 62.5,
      "v": 100
    },
    {
      "midi": 63,
      "hit": false,
      "t": 812.5,
      "d": 62.5,
      "v": 100
    },
    {
      "midi": 56,
      "hit": false,
      "t": 843.75,
      "d": 62.5,
      "v": 100
    },
    {
      "midi": 64,
      "hit": false,
      "t": 875,
      "d": 62.5,
      "v": 100
    },
    {
      "midi": 57,
      "hit": false,
      "t": 906.25,
      "d": 62.5,
      "v": 100
    },
    {
      "midi": 65,
      "hit": false,
      "t": 937.5,
      "d": 62.5,
      "v": 100
    },
    {
      "midi": 26,
      "hit": false,
      "t": 937.5,
      "d": 187.5,
      "v": 100
    },
    {
      "midi": 38,
      "hit": false,
      "t": 937.5,
      "d": 187.5,
      "v": 100
    },
    {
      "midi": 58,
      "hit": false,
      "t": 968.75,
      "d": 62.5,
      "v": 100
    },
    {
      "midi": 66,
      "hit": false,
      "t": 1000,
      "d": 62.5,
      "v": 100
    },
    {
      "midi": 59,
      "hit": false,
      "t": 1031.25,
      "d": 62.5,
      "v": 100
    },
    {
      "midi": 67,
      "hit": false,
      "t": 1062.5,
      "d": 62.5,
      "v": 100
    },
    {
      "midi": 60,
      "hit": false,
      "t": 1093.75,
      "d": 62.5,
      "v": 100
    },
    {
      "midi": 68,
      "hit": false,
      "t": 1125,
      "d": 62.5,
      "v": 100
    },
    {
      "midi": 26,
      "hit": false,
      "t": 1125,
      "d": 187.5,
      "v": 100
    },
    {
      "midi": 38,
      "hit": false,
      "t": 1125,
      "d": 187.5,
      "v": 100
    },
    {
      "midi": 61,
      "hit": false,
      "t": 1156.25,
      "d": 62.5,
      "v": 100
    },
    {
      "midi": 69,
      "hit": false,
      "t": 1187.5,
      "d": 62.5,
      "v": 100
    },
    {
      "midi": 62,
      "hit": false,
      "t": 1218.75,
      "d": 62.5,
      "v": 100
    },
    {
      "midi": 70,
      "hit": false,
      "t": 1250,
      "d": 62.5,
      "v": 100
    },
    {
      "midi": 63,
      "hit": false,
      "t": 1281.25,
      "d": 62.5,
      "v": 100
    },
    {
      "midi": 71,
      "hit": false,
      "t": 1312.5,
      "d": 62.5,
      "v": 100
    },
    {
      "midi": 26,
      "hit": false,
      "t": 1312.5,
      "d": 187.5,
      "v": 100
    },
    {
      "midi": 38,
      "hit": false,
      "t": 1312.5,
      "d": 187.5,
      "v": 100
    },
    {
      "midi": 64,
      "hit": false,
      "t": 1343.75,
      "d": 62.5,
      "v": 100
    },
    {
      "midi": 72,
      "hit": false,
      "t": 1375,
      "d": 62.5,
      "v": 100
    },
    {
      "midi": 65,
      "hit": false,
      "t": 1406.25,
      "d": 62.5,
      "v": 100
    },
    {
      "midi": 73,
      "hit": false,
      "t": 1437.5,
      "d": 62.5,
      "v": 100
    },
    {
      "midi": 66,
      "hit": false,
      "t": 1468.75,
      "d": 62.5,
      "v": 100
    },
    {
      "midi": 74,
      "hit": false,
      "t": 1500,
      "d": 62.5,
      "v": 100
    },
    {
      "midi": 26,
      "hit": false,
      "t": 1500,
      "d": 187.5,
      "v": 100
    },
    {
      "midi": 38,
      "hit": false,
      "t": 1500,
      "d": 187.5,
      "v": 100
    },
    {
      "midi": 67,
      "hit": false,
      "t": 1531.25,
      "d": 62.5,
      "v": 100
    },
    {
      "midi": 75,
      "hit": false,
      "t": 1562.5,
      "d": 62.5,
      "v": 100
    },
    {
      "midi": 68,
      "hit": false,
      "t": 1593.75,
      "d": 62.5,
      "v": 100
    },
    {
      "midi": 76,
      "hit": false,
      "t": 1625,
      "d": 62.5,
      "v": 100
    },
    {
      "midi": 69,
      "hit": false,
      "t": 1656.25,
      "d": 62.5,
      "v": 100
    },
    {
      "midi": 77,
      "hit": false,
      "t": 1687.5,
      "d": 62.5,
      "v": 100
    },
    {
      "midi": 26,
      "hit": false,
      "t": 1687.5,
      "d": 187.5,
      "v": 100
    },
    {
      "midi": 38,
      "hit": false,
      "t": 1687.5,
      "d": 187.5,
      "v": 100
    },
    {
      "midi": 70,
      "hit": false,
      "t": 1718.75,
      "d": 62.5,
      "v": 100
    },
    {
      "midi": 78,
      "hit": false,
      "t": 1781.25,
      "d": 62.5,
      "v": 100
    },
    {
      "midi": 71,
      "hit": false,
      "t": 1781.25,
      "d": 62.5,
      "v": 100
    },
    {
      "midi": 79,
      "hit": false,
      "t": 1843.75,
      "d": 62.5,
      "v": 100
    },
    {
      "midi": 72,
      "hit": false,
      "t": 1843.75,
      "d": 62.5,
      "v": 100
    },
    {
      "midi": 38,
      "hit": false,
      "t": 1875,
      "d": 187.5,
      "v": 100
    },
    {
      "midi": 26,
      "hit": false,
      "t": 1875,
      "d": 187.5,
      "v": 100
    },
    {
      "midi": 79,
      "hit": false,
      "t": 1906.25,
      "d": 62.5,
      "v": 100
    },
    {
      "midi": 73,
      "hit": false,
      "t": 1906.25,
      "d": 62.5,
      "v": 100
    },
    {
      "midi": 81,
      "hit": false,
      "t": 1968.75,
      "d": 62.5,
      "v": 100
    },
    {
      "midi": 74,
      "hit": false,
      "t": 1968.75,
      "d": 62.5,
      "v": 100
    },
    {
      "midi": 83,
      "hit": false,
      "t": 2031.25,
      "d": 62.5,
      "v": 100
    },
    {
      "midi": 75,
      "hit": false,
      "t": 2031.25,
      "d": 62.5,
      "v": 100
    },
    {
      "midi": 38,
      "hit": false,
      "t": 2062.5,
      "d": 187.5,
      "v": 100
    },
    {
      "midi": 26,
      "hit": false,
      "t": 2062.5,
      "d": 187.5,
      "v": 100
    },
    {
      "midi": 83,
      "hit": false,
      "t": 2093.75,
      "d": 62.5,
      "v": 100
    },
    {
      "midi": 76,
      "hit": false,
      "t": 2093.75,
      "d": 62.5,
      "v": 100
    },
    {
      "midi": 85,
      "hit": false,
      "t": 2156.25,
      "d": 62.5,
      "v": 100
    },
    {
      "midi": 77,
      "hit": false,
      "t": 2156.25,
      "d": 62.5,
      "v": 100
    },
    {
      "midi": 78,
      "hit": false,
      "t": 2250,
      "d": 375,
      "v": 100
    },
    {
      "midi": 66,
      "hit": false,
      "t": 2250,
      "d": 375,
      "v": 100
    },
    {
      "midi": 62,
      "hit": false,
      "t": 2250,
      "d": 375,
      "v": 100
    },
    {
      "midi": 26,
      "hit": false,
      "t": 2250,
      "d": 187.5,
      "v": 100
    },
    {
      "midi": 38,
      "hit": false,
      "t": 2250,
      "d": 187.5,
      "v": 100
    },
    {
      "midi": 62,
      "hit": false,
      "t": 2250,
      "d": 187.5,
      "v": 100
    },
    {
      "midi": 74,
      "hit": false,
      "t": 2250,
      "d": 1125,
      "v": 100
    },
    {
      "midi": 50,
      "hit": false,
      "t": 2250,
      "d": 1125,
      "v": 100
    },
    {
      "midi": 69,
      "hit": false,
      "t": 2250,
      "d": 375,
      "v": 100
    },
    {
      "midi": 57,
      "hit": false,
      "t": 2250,
      "d": 375,
      "v": 100
    },
    {
      "midi": 61,
      "hit": false,
      "t": 2250,
      "d": 375,
      "v": 100
    },
    {
      "midi": 86,
      "hit": false,
      "t": 2250,
      "d": 750,
      "v": 100
    },
    {
      "midi": 74,
      "hit": false,
      "t": 2250,
      "d": 750,
      "v": 100
    },
    {
      "midi": 78,
      "hit": false,
      "t": 2250,
      "d": 750,
      "v": 100
    },
    {
      "midi": 62,
      "hit": false,
      "t": 2250,
      "d": 187.5,
      "v": 100
    },
    {
      "midi": 66,
      "hit": false,
      "t": 2250,
      "d": 375,
      "v": 100
    },
    {
      "midi": 57,
      "hit": false,
      "t": 2250,
      "d": 375,
      "v": 100
    },
    {
      "midi": 38,
      "hit": false,
      "t": 2437.5,
      "d": 187.5,
      "v": 100
    },
    {
      "midi": 26,
      "hit": false,
      "t": 2437.5,
      "d": 187.5,
      "v": 100
    },
    {
      "midi": 57,
      "hit": false,
      "t": 2625,
      "d": 187.5,
      "v": 100
    },
    {
      "midi": 26,
      "hit": false,
      "t": 2625,
      "d": 187.5,
      "v": 100
    },
    {
      "midi": 38,
      "hit": false,
      "t": 2625,
      "d": 187.5,
      "v": 100
    },
    {
      "midi": 26,
      "hit": false,
      "t": 2812.5,
      "d": 187.5,
      "v": 100
    },
    {
      "midi": 38,
      "hit": false,
      "t": 2812.5,
      "d": 187.5,
      "v": 100
    },
    {
      "midi": 62,
      "hit": false,
      "t": 2812.5,
      "d": 187.5,
      "v": 100
    },
    {
      "midi": 66,
      "hit": false,
      "t": 2812.5,
      "d": 187.5,
      "v": 100
    },
    {
      "midi": 57,
      "hit": false,
      "t": 2812.5,
      "d": 187.5,
      "v": 100
    },
    {
      "midi": 64,
      "hit": false,
      "t": 3000,
      "d": 187.5,
      "v": 100
    },
    {
      "midi": 30,
      "hit": false,
      "t": 3000,
      "d": 187.5,
      "v": 100
    },
    {
      "midi": 42,
      "hit": false,
      "t": 3000,
      "d": 187.5,
      "v": 100
    },
    {
      "midi": 62,
      "hit": false,
      "t": 3000,
      "d": 187.5,
      "v": 100
    },
    {
      "midi": 66,
      "hit": false,
      "t": 3000,
      "d": 187.5,
      "v": 100
    },
    {
      "midi": 57,
      "hit": false,
      "t": 3000,
      "d": 187.5,
      "v": 100
    },
    {
      "midi": 30,
      "hit": false,
      "t": 3187.5,
      "d": 187.5,
      "v": 100
    },
    {
      "midi": 42,
      "hit": false,
      "t": 3187.5,
      "d": 187.5,
      "v": 100
    },
    {
      "midi": 62,
      "hit": false,
      "t": 3187.5,
      "d": 187.5,
      "v": 100
    },
    {
      "midi": 66,
      "hit": false,
      "t": 3187.5,
      "d": 187.5,
      "v": 100
    },
    {
      "midi": 57,
      "hit": false,
      "t": 3187.5,
      "d": 187.5,
      "v": 100
    },
    {
      "midi": 66,
      "hit": false,
      "t": 3375,
      "d": 375,
      "v": 100
    },
    {
      "midi": 78,
      "hit": false,
      "t": 3375,
      "d": 375,
      "v": 100
    },
    {
      "midi": 62,
      "hit": false,
      "t": 3375,
      "d": 375,
      "v": 100
    },
    {
      "midi": 35,
      "hit": false,
      "t": 3375,
      "d": 187.5,
      "v": 100
    },
    {
      "midi": 47,
      "hit": false,
      "t": 3375,
      "d": 187.5,
      "v": 100
    },
    {
      "midi": 62,
      "hit": false,
      "t": 3375,
      "d": 187.5,
      "v": 100
    },
    {
      "midi": 66,
      "hit": false,
      "t": 3375,
      "d": 375,
      "v": 100
    },
    {
      "midi": 57,
      "hit": false,
      "t": 3375,
      "d": 375,
      "v": 100
    },
    {
      "midi": 35,
      "hit": false,
      "t": 3562.5,
      "d": 187.5,
      "v": 100
    },
    {
      "midi": 47,
      "hit": false,
      "t": 3562.5,
      "d": 187.5,
      "v": 100
    },
    {
      "midi": 67,
      "hit": false,
      "t": 3750,
      "d": 375,
      "v": 100
    },
    {
      "midi": 79,
      "hit": false,
      "t": 3750,
      "d": 375,
      "v": 100
    },
    {
      "midi": 57,
      "hit": false,
      "t": 3750,
      "d": 187.5,
      "v": 100
    },
    {
      "midi": 35,
      "hit": false,
      "t": 3750,
      "d": 187.5,
      "v": 100
    },
    {
      "midi": 47,
      "hit": false,
      "t": 3750,
      "d": 187.5,
      "v": 100
    },
    {
      "midi": 62,
      "hit": false,
      "t": 3750,
      "d": 187.5,
      "v": 100
    },
    {
      "midi": 66,
      "hit": false,
      "t": 3750,
      "d": 187.5,
      "v": 100
    },
    {
      "midi": 57,
      "hit": false,
      "t": 3750,
      "d": 187.5,
      "v": 100
    },
    {
      "midi": 35,
      "hit": false,
      "t": 3937.5,
      "d": 187.5,
      "v": 100
    },
    {
      "midi": 47,
      "hit": false,
      "t": 3937.5,
      "d": 187.5,
      "v": 100
    },
    {
      "midi": 62,
      "hit": false,
      "t": 3937.5,
      "d": 187.5,
      "v": 100
    },
    {
      "midi": 66,
      "hit": false,
      "t": 3937.5,
      "d": 187.5,
      "v": 100
    },
    {
      "midi": 57,
      "hit": false,
      "t": 3937.5,
      "d": 187.5,
      "v": 100
    },
    {
      "midi": 69,
      "hit": false,
      "t": 4125,
      "d": 187.5,
      "v": 100
    },
    {
      "midi": 81,
      "hit": false,
      "t": 4125,
      "d": 187.5,
      "v": 100
    },
    {
      "midi": 64,
      "hit": false,
      "t": 4125,
      "d": 187.5,
      "v": 100
    },
    {
      "midi": 45,
      "hit": false,
      "t": 4125,
      "d": 187.5,
      "v": 100
    },
    {
      "midi": 33,
      "hit": false,
      "t": 4125,
      "d": 187.5,
      "v": 100
    },
    {
      "midi": 62,
      "hit": false,
      "t": 4125,
      "d": 187.5,
      "v": 100
    },
    {
      "midi": 66,
      "hit": false,
      "t": 4125,
      "d": 187.5,
      "v": 100
    },
    {
      "midi": 57,
      "hit": false,
      "t": 4125,
      "d": 187.5,
      "v": 100
    },
    {
      "midi": 45,
      "hit": false,
      "t": 4312.5,
      "d": 187.5,
      "v": 100
    },
    {
      "midi": 33,
      "hit": false,
      "t": 4312.5,
      "d": 187.5,
      "v": 100
    },
    {
      "midi": 69,
      "hit": false,
      "t": 4500,
      "d": 375,
      "v": 100
    },
    {
      "midi": 81,
      "hit": false,
      "t": 4500,
      "d": 375,
      "v": 100
    },
    {
      "midi": 62,
      "hit": false,
      "t": 4500,
      "d": 375,
      "v": 100
    },
    {
      "midi": 43,
      "hit": false,
      "t": 4500,
      "d": 187.5,
      "v": 100
    },
    {
      "midi": 31,
      "hit": false,
      "t": 4500,
      "d": 187.5,
      "v": 100
    },
    {
      "midi": 62,
      "hit": false,
      "t": 4500,
      "d": 187.5,
      "v": 100
    },
    {
      "midi": 66,
      "hit": false,
      "t": 4500,
      "d": 187.5,
      "v": 100
    },
    {
      "midi": 59,
      "hit": false,
      "t": 4500,
      "d": 187.5,
      "v": 100
    },
    {
      "midi": 43,
      "hit": false,
      "t": 4687.5,
      "d": 187.5,
      "v": 100
    },
    {
      "midi": 31,
      "hit": false,
      "t": 4687.5,
      "d": 187.5,
      "v": 100
    },
    {
      "midi": 62,
      "hit": false,
      "t": 4687.5,
      "d": 187.5,
      "v": 100
    },
    {
      "midi": 66,
      "hit": false,
      "t": 4687.5,
      "d": 187.5,
      "v": 100
    },
    {
      "midi": 59,
      "hit": false,
      "t": 4687.5,
      "d": 187.5,
      "v": 100
    },
    {
      "midi": 62,
      "hit": false,
      "t": 4875,
      "d": 750,
      "v": 100
    },
    {
      "midi": 74,
      "hit": false,
      "t": 4875,
      "d": 750,
      "v": 100
    },
    {
      "midi": 57,
      "hit": false,
      "t": 4875,
      "d": 187.5,
      "v": 100
    },
    {
      "midi": 43,
      "hit": false,
      "t": 4875,
      "d": 187.5,
      "v": 100
    },
    {
      "midi": 31,
      "hit": false,
      "t": 4875,
      "d": 187.5,
      "v": 100
    },
    {
      "midi": 43,
      "hit": false,
      "t": 5062.5,
      "d": 187.5,
      "v": 100
    },
    {
      "midi": 31,
      "hit": false,
      "t": 5062.5,
      "d": 187.5,
      "v": 100
    },
    {
      "midi": 62,
      "hit": false,
      "t": 5062.5,
      "d": 187.5,
      "v": 100
    },
    {
      "midi": 66,
      "hit": false,
      "t": 5062.5,
      "d": 187.5,
      "v": 100
    },
    {
      "midi": 59,
      "hit": false,
      "t": 5062.5,
      "d": 187.5,
      "v": 100
    },
    {
      "midi": 64,
      "hit": false,
      "t": 5250,
      "d": 187.5,
      "v": 100
    },
    {
      "midi": 42,
      "hit": false,
      "t": 5250,
      "d": 187.5,
      "v": 100
    },
    {
      "midi": 30,
      "hit": false,
      "t": 5250,
      "d": 187.5,
      "v": 100
    },
    {
      "midi": 62,
      "hit": false,
      "t": 5250,
      "d": 187.5,
      "v": 100
    },
    {
      "midi": 57,
      "hit": false,
      "t": 5250,
      "d": 187.5,
      "v": 100
    },
    {
      "midi": 66,
      "hit": false,
      "t": 5250,
      "d": 187.5,
      "v": 100
    },
    {
      "midi": 42,
      "hit": false,
      "t": 5437.5,
      "d": 187.5,
      "v": 100
    },
    {
      "midi": 30,
      "hit": false,
      "t": 5437.5,
      "d": 187.5,
      "v": 100
    },
    {
      "midi": 69,
      "hit": false,
      "t": 5625,
      "d": 562.5,
      "v": 100
    },
    {
      "midi": 81,
      "hit": false,
      "t": 5625,
      "d": 562.5,
      "v": 100
    },
    {
      "midi": 62,
      "hit": false,
      "t": 5625,
      "d": 375,
      "v": 100
    },
    {
      "midi": 29,
      "hit": false,
      "t": 5625,
      "d": 187.5,
      "v": 100
    },
    {
      "midi": 41,
      "hit": false,
      "t": 5625,
      "d": 187.5,
      "v": 100
    },
    {
      "midi": 58,
      "hit": false,
      "t": 5625,
      "d": 187.5,
      "v": 100
    },
    {
      "midi": 62,
      "hit": false,
      "t": 5625,
      "d": 375,
      "v": 100
    },
    {
      "midi": 53,
      "hit": false,
      "t": 5625,
      "d": 375,
      "v": 100
    },
    {
      "midi": 29,
      "hit": false,
      "t": 5812.5,
      "d": 187.5,
      "v": 100
    },
    {
      "midi": 41,
      "hit": false,
      "t": 5812.5,
      "d": 187.5,
      "v": 100
    },
    {
      "midi": 57,
      "hit": false,
      "t": 6000,
      "d": 187.5,
      "v": 100
    },
    {
      "midi": 29,
      "hit": false,
      "t": 6000,
      "d": 187.5,
      "v": 100
    },
    {
      "midi": 41,
      "hit": false,
      "t": 6000,
      "d": 187.5,
      "v": 100
    },
    {
      "midi": 62,
      "hit": false,
      "t": 6000,
      "d": 187.5,
      "v": 100
    },
    {
      "midi": 58,
      "hit": false,
      "t": 6000,
      "d": 187.5,
      "v": 100
    },
    {
      "midi": 53,
      "hit": false,
      "t": 6000,
      "d": 187.5,
      "v": 100
    },
    {
      "midi": 67,
      "hit": false,
      "t": 6187.5,
      "d": 187.5,
      "v": 100
    },
    {
      "midi": 79,
      "hit": false,
      "t": 6187.5,
      "d": 187.5,
      "v": 100
    },
    {
      "midi": 29,
      "hit": false,
      "t": 6187.5,
      "d": 187.5,
      "v": 100
    },
    {
      "midi": 41,
      "hit": false,
      "t": 6187.5,
      "d": 187.5,
      "v": 100
    },
    {
      "midi": 62,
      "hit": false,
      "t": 6187.5,
      "d": 187.5,
      "v": 100
    },
    {
      "midi": 58,
      "hit": false,
      "t": 6187.5,
      "d": 187.5,
      "v": 100
    },
    {
      "midi": 53,
      "hit": false,
      "t": 6187.5,
      "d": 187.5,
      "v": 100
    },
    {
      "midi": 65,
      "hit": false,
      "t": 6375,
      "d": 375,
      "v": 100
    },
    {
      "midi": 77,
      "hit": false,
      "t": 6375,
      "d": 375,
      "v": 100
    },
    {
      "midi": 65,
      "hit": false,
      "t": 6375,
      "d": 187.5,
      "v": 100
    },
    {
      "midi": 29,
      "hit": false,
      "t": 6375,
      "d": 187.5,
      "v": 100
    },
    {
      "midi": 41,
      "hit": false,
      "t": 6375,
      "d": 187.5,
      "v": 100
    },
    {
      "midi": 62,
      "hit": false,
      "t": 6375,
      "d": 187.5,
      "v": 100
    },
    {
      "midi": 58,
      "hit": false,
      "t": 6375,
      "d": 375,
      "v": 100
    },
    {
      "midi": 53,
      "hit": false,
      "t": 6375,
      "d": 375,
      "v": 100
    },
    {
      "midi": 29,
      "hit": false,
      "t": 6562.5,
      "d": 187.5,
      "v": 100
    },
    {
      "midi": 41,
      "hit": false,
      "t": 6562.5,
      "d": 187.5,
      "v": 100
    },
    {
      "midi": 64,
      "hit": false,
      "t": 6750,
      "d": 562.5,
      "v": 100
    },
    {
      "midi": 76,
      "hit": false,
      "t": 6750,
      "d": 562.5,
      "v": 100
    },
    {
      "midi": 57,
      "hit": false,
      "t": 6750,
      "d": 187.5,
      "v": 100
    },
    {
      "midi": 64,
      "hit": false,
      "t": 6750,
      "d": 375,
      "v": 100
    },
    {
      "midi": 29,
      "hit": false,
      "t": 6750,
      "d": 187.5,
      "v": 100
    },
    {
      "midi": 41,
      "hit": false,
      "t": 6750,
      "d": 187.5,
      "v": 100
    },
    {
      "midi": 62,
      "hit": false,
      "t": 6750,
      "d": 187.5,
      "v": 100
    },
    {
      "midi": 58,
      "hit": false,
      "t": 6750,
      "d": 375,
      "v": 100
    },
    {
      "midi": 53,
      "hit": false,
      "t": 6750,
      "d": 375,
      "v": 100
    },
    {
      "midi": 29,
      "hit": false,
      "t": 6937.5,
      "d": 187.5,
      "v": 100
    },
    {
      "midi": 41,
      "hit": false,
      "t": 6937.5,
      "d": 187.5,
      "v": 100
    },
    {
      "midi": 29,
      "hit": false,
      "t": 7125,
      "d": 187.5,
      "v": 100
    },
    {
      "midi": 41,
      "hit": false,
      "t": 7125,
      "d": 187.5,
      "v": 100
    },
    {
      "midi": 65,
      "hit": false,
      "t": 7312.5,
      "d": 187.5,
      "v": 100
    },
    {
      "midi": 77,
      "hit": false,
      "t": 7312.5,
      "d": 187.5,
      "v": 100
    },
    {
      "midi": 29,
      "hit": false,
      "t": 7312.5,
      "d": 187.5,
      "v": 100
    },
    {
      "midi": 41,
      "hit": false,
      "t": 7312.5,
      "d": 187.5,
      "v": 100
    },
    {
      "midi": 62,
      "hit": false,
      "t": 7312.5,
      "d": 187.5,
      "v": 100
    },
    {
      "midi": 58,
      "hit": false,
      "t": 7312.5,
      "d": 187.5,
      "v": 100
    },
    {
      "midi": 53,
      "hit": false,
      "t": 7312.5,
      "d": 187.5,
      "v": 100
    },
    {
      "midi": 67,
      "hit": false,
      "t": 7500,
      "d": 375,
      "v": 100
    },
    {
      "midi": 79,
      "hit": false,
      "t": 7500,
      "d": 375,
      "v": 100
    },
    {
      "midi": 60,
      "hit": false,
      "t": 7500,
      "d": 187.5,
      "v": 100
    },
    {
      "midi": 29,
      "hit": false,
      "t": 7500,
      "d": 187.5,
      "v": 100
    },
    {
      "midi": 41,
      "hit": false,
      "t": 7500,
      "d": 187.5,
      "v": 100
    },
    {
      "midi": 62,
      "hit": false,
      "t": 7500,
      "d": 187.5,
      "v": 100
    },
    {
      "midi": 58,
      "hit": false,
      "t": 7500,
      "d": 187.5,
      "v": 100
    },
    {
      "midi": 53,
      "hit": false,
      "t": 7500,
      "d": 187.5,
      "v": 100
    },
    {
      "midi": 29,
      "hit": false,
      "t": 7687.5,
      "d": 187.5,
      "v": 100
    },
    {
      "midi": 41,
      "hit": false,
      "t": 7687.5,
      "d": 187.5,
      "v": 100
    },
    {
      "midi": 62,
      "hit": false,
      "t": 7687.5,
      "d": 187.5,
      "v": 100
    },
    {
      "midi": 58,
      "hit": false,
      "t": 7687.5,
      "d": 187.5,
      "v": 100
    },
    {
      "midi": 53,
      "hit": false,
      "t": 7687.5,
      "d": 187.5,
      "v": 100
    },
    {
      "midi": 62,
      "hit": false,
      "t": 7875,
      "d": 375,
      "v": 100
    },
    {
      "midi": 74,
      "hit": false,
      "t": 7875,
      "d": 375,
      "v": 100
    },
    {
      "midi": 62,
      "hit": false,
      "t": 7875,
      "d": 375,
      "v": 100
    },
    {
      "midi": 40,
      "hit": false,
      "t": 7875,
      "d": 187.5,
      "v": 100
    },
    {
      "midi": 28,
      "hit": false,
      "t": 7875,
      "d": 187.5,
      "v": 100
    },
    {
      "midi": 62,
      "hit": false,
      "t": 7875,
      "d": 187.5,
      "v": 100
    },
    {
      "midi": 52,
      "hit": false,
      "t": 7875,
      "d": 375,
      "v": 100
    },
    {
      "midi": 57,
      "hit": false,
      "t": 7875,
      "d": 375,
      "v": 100
    },
    {
      "midi": 40,
      "hit": false,
      "t": 8062.5,
      "d": 187.5,
      "v": 100
    },
    {
      "midi": 28,
      "hit": false,
      "t": 8062.5,
      "d": 187.5,
      "v": 100
    },
    {
      "midi": 55,
      "hit": false,
      "t": 8250,
      "d": 187.5,
      "v": 100
    },
    {
      "midi": 40,
      "hit": false,
      "t": 8250,
      "d": 187.5,
      "v": 100
    },
    {
      "midi": 28,
      "hit": false,
      "t": 8250,
      "d": 187.5,
      "v": 100
    },
    {
      "midi": 62,
      "hit": false,
      "t": 8250,
      "d": 187.5,
      "v": 100
    },
    {
      "midi": 55,
      "hit": false,
      "t": 8250,
      "d": 187.5,
      "v": 100
    },
    {
      "midi": 52,
      "hit": false,
      "t": 8250,
      "d": 187.5,
      "v": 100
    },
    {
      "midi": 40,
      "hit": false,
      "t": 8437.5,
      "d": 187.5,
      "v": 100
    },
    {
      "midi": 28,
      "hit": false,
      "t": 8437.5,
      "d": 187.5,
      "v": 100
    },
    {
      "midi": 62,
      "hit": false,
      "t": 8437.5,
      "d": 187.5,
      "v": 100
    },
    {
      "midi": 55,
      "hit": false,
      "t": 8437.5,
      "d": 187.5,
      "v": 100
    },
    {
      "midi": 52,
      "hit": false,
      "t": 8437.5,
      "d": 187.5,
      "v": 100
    },
    {
      "midi": 62,
      "hit": false,
      "t": 8625,
      "d": 187.5,
      "v": 100
    },
    {
      "midi": 74,
      "hit": false,
      "t": 8625,
      "d": 187.5,
      "v": 100
    },
    {
      "midi": 59,
      "hit": false,
      "t": 8625,
      "d": 187.5,
      "v": 100
    },
    {
      "midi": 42,
      "hit": false,
      "t": 8625,
      "d": 187.5,
      "v": 100
    },
    {
      "midi": 30,
      "hit": false,
      "t": 8625,
      "d": 187.5,
      "v": 100
    },
    {
      "midi": 62,
      "hit": false,
      "t": 8625,
      "d": 187.5,
      "v": 100
    },
    {
      "midi": 55,
      "hit": false,
      "t": 8625,
      "d": 187.5,
      "v": 100
    },
    {
      "midi": 52,
      "hit": false,
      "t": 8625,
      "d": 187.5,
      "v": 100
    },
    {
      "midi": 61,
      "hit": false,
      "t": 8812.5,
      "d": 187.5,
      "v": 100
    },
    {
      "midi": 42,
      "hit": false,
      "t": 8812.5,
      "d": 187.5,
      "v": 100
    },
    {
      "midi": 30,
      "hit": false,
      "t": 8812.5,
      "d": 187.5,
      "v": 100
    },
    {
      "midi": 62,
      "hit": false,
      "t": 8812.5,
      "d": 187.5,
      "v": 100
    },
    {
      "midi": 55,
      "hit": false,
      "t": 8812.5,
      "d": 187.5,
      "v": 100
    },
    {
      "midi": 52,
      "hit": false,
      "t": 8812.5,
      "d": 187.5,
      "v": 100
    },
    {
      "midi": 62,
      "hit": false,
      "t": 9000,
      "d": 562.5,
      "v": 100
    },
    {
      "midi": 74,
      "hit": false,
      "t": 9000,
      "d": 562.5,
      "v": 100
    },
    {
      "midi": 62,
      "hit": false,
      "t": 9000,
      "d": 375,
      "v": 100
    },
    {
      "midi": 31,
      "hit": false,
      "t": 9000,
      "d": 187.5,
      "v": 100
    },
    {
      "midi": 43,
      "hit": false,
      "t": 9000,
      "d": 187.5,
      "v": 100
    },
    {
      "midi": 62,
      "hit": false,
      "t": 9000,
      "d": 187.5,
      "v": 100
    },
    {
      "midi": 55,
      "hit": false,
      "t": 9000,
      "d": 375,
      "v": 100
    },
    {
      "midi": 52,
      "hit": false,
      "t": 9000,
      "d": 375,
      "v": 100
    },
    {
      "midi": 31,
      "hit": false,
      "t": 9187.5,
      "d": 187.5,
      "v": 100
    },
    {
      "midi": 43,
      "hit": false,
      "t": 9187.5,
      "d": 187.5,
      "v": 100
    },
    {
      "midi": 55,
      "hit": false,
      "t": 9375,
      "d": 187.5,
      "v": 100
    },
    {
      "midi": 31,
      "hit": false,
      "t": 9375,
      "d": 187.5,
      "v": 100
    },
    {
      "midi": 43,
      "hit": false,
      "t": 9375,
      "d": 187.5,
      "v": 100
    },
    {
      "midi": 62,
      "hit": false,
      "t": 9375,
      "d": 187.5,
      "v": 100
    },
    {
      "midi": 55,
      "hit": false,
      "t": 9375,
      "d": 187.5,
      "v": 100
    },
    {
      "midi": 52,
      "hit": false,
      "t": 9375,
      "d": 187.5,
      "v": 100
    },
    {
      "midi": 64,
      "hit": false,
      "t": 9562.5,
      "d": 187.5,
      "v": 100
    },
    {
      "midi": 76,
      "hit": false,
      "t": 9562.5,
      "d": 187.5,
      "v": 100
    },
    {
      "midi": 31,
      "hit": false,
      "t": 9562.5,
      "d": 187.5,
      "v": 100
    },
    {
      "midi": 43,
      "hit": false,
      "t": 9562.5,
      "d": 187.5,
      "v": 100
    },
    {
      "midi": 62,
      "hit": false,
      "t": 9562.5,
      "d": 187.5,
      "v": 100
    },
    {
      "midi": 55,
      "hit": false,
      "t": 9562.5,
      "d": 187.5,
      "v": 100
    },
    {
      "midi": 52,
      "hit": false,
      "t": 9562.5,
      "d": 187.5,
      "v": 100
    },
    {
      "midi": 66,
      "hit": false,
      "t": 9750,
      "d": 187.5,
      "v": 100
    },
    {
      "midi": 78,
      "hit": false,
      "t": 9750,
      "d": 187.5,
      "v": 100
    },
    {
      "midi": 64,
      "hit": false,
      "t": 9750,
      "d": 187.5,
      "v": 100
    },
    {
      "midi": 31,
      "hit": false,
      "t": 9750,
      "d": 187.5,
      "v": 100
    },
    {
      "midi": 43,
      "hit": false,
      "t": 9750,
      "d": 187.5,
      "v": 100
    },
    {
      "midi": 62,
      "hit": false,
      "t": 9750,
      "d": 187.5,
      "v": 100
    },
    {
      "midi": 55,
      "hit": false,
      "t": 9750,
      "d": 187.5,
      "v": 100
    },
    {
      "midi": 52,
      "hit": false,
      "t": 9750,
      "d": 187.5,
      "v": 100
    },
    {
      "midi": 67,
      "hit": false,
      "t": 9937.5,
      "d": 187.5,
      "v": 100
    },
    {
      "midi": 79,
      "hit": false,
      "t": 9937.5,
      "d": 187.5,
      "v": 100
    },
    {
      "midi": 31,
      "hit": false,
      "t": 9937.5,
      "d": 187.5,
      "v": 100
    },
    {
      "midi": 43,
      "hit": false,
      "t": 9937.5,
      "d": 187.5,
      "v": 100
    },
    {
      "midi": 62,
      "hit": false,
      "t": 9937.5,
      "d": 187.5,
      "v": 100
    },
    {
      "midi": 55,
      "hit": false,
      "t": 9937.5,
      "d": 187.5,
      "v": 100
    },
    {
      "midi": 52,
      "hit": false,
      "t": 9937.5,
      "d": 187.5,
      "v": 100
    },
    {
      "midi": 66,
      "hit": false,
      "t": 10125,
      "d": 187.5,
      "v": 100
    },
    {
      "midi": 78,
      "hit": false,
      "t": 10125,
      "d": 187.5,
      "v": 100
    },
    {
      "midi": 62,
      "hit": false,
      "t": 10125,
      "d": 375,
      "v": 100
    },
    {
      "midi": 45,
      "hit": false,
      "t": 10125,
      "d": 187.5,
      "v": 100
    },
    {
      "midi": 33,
      "hit": false,
      "t": 10125,
      "d": 187.5,
      "v": 100
    },
    {
      "midi": 62,
      "hit": false,
      "t": 10125,
      "d": 187.5,
      "v": 100
    },
    {
      "midi": 55,
      "hit": false,
      "t": 10125,
      "d": 187.5,
      "v": 100
    },
    {
      "midi": 52,
      "hit": false,
      "t": 10125,
      "d": 187.5,
      "v": 100
    },
    {
      "midi": 62,
      "hit": false,
      "t": 10312.5,
      "d": 187.5,
      "v": 100
    },
    {
      "midi": 74,
      "hit": false,
      "t": 10312.5,
      "d": 187.5,
      "v": 100
    },
    {
      "midi": 45,
      "hit": false,
      "t": 10312.5,
      "d": 187.5,
      "v": 100
    },
    {
      "midi": 33,
      "hit": false,
      "t": 10312.5,
      "d": 187.5,
      "v": 100
    },
    {
      "midi": 62,
      "hit": false,
      "t": 10312.5,
      "d": 187.5,
      "v": 100
    },
    {
      "midi": 55,
      "hit": false,
      "t": 10312.5,
      "d": 187.5,
      "v": 100
    },
    {
      "midi": 52,
      "hit": false,
      "t": 10312.5,
      "d": 187.5,
      "v": 100
    },
    {
      "midi": 64,
      "hit": false,
      "t": 10500,
      "d": 562.5,
      "v": 100
    },
    {
      "midi": 76,
      "hit": false,
      "t": 10500,
      "d": 562.5,
      "v": 100
    },
    {
      "midi": 69,
      "hit": false,
      "t": 10500,
      "d": 187.5,
      "v": 100
    },
    {
      "midi": 55,
      "hit": false,
      "t": 10500,
      "d": 187.5,
      "v": 100
    },
    {
      "midi": 45,
      "hit": false,
      "t": 10500,
      "d": 187.5,
      "v": 100
    },
    {
      "midi": 33,
      "hit": false,
      "t": 10500,
      "d": 187.5,
      "v": 100
    },
    {
      "midi": 62,
      "hit": false,
      "t": 10500,
      "d": 187.5,
      "v": 100
    },
    {
      "midi": 57,
      "hit": false,
      "t": 10500,
      "d": 187.5,
      "v": 100
    },
    {
      "midi": 52,
      "hit": false,
      "t": 10500,
      "d": 187.5,
      "v": 100
    },
    {
      "midi": 74,
      "hit": false,
      "t": 10687.5,
      "d": 187.5,
      "v": 100
    },
    {
      "midi": 45,
      "hit": false,
      "t": 10687.5,
      "d": 187.5,
      "v": 100
    },
    {
      "midi": 33,
      "hit": false,
      "t": 10687.5,
      "d": 187.5,
      "v": 100
    },
    {
      "midi": 62,
      "hit": false,
      "t": 10687.5,
      "d": 187.5,
      "v": 100
    },
    {
      "midi": 57,
      "hit": false,
      "t": 10687.5,
      "d": 187.5,
      "v": 100
    },
    {
      "midi": 52,
      "hit": false,
      "t": 10687.5,
      "d": 187.5,
      "v": 100
    },
    {
      "midi": 76,
      "hit": false,
      "t": 10875,
      "d": 187.5,
      "v": 100
    },
    {
      "midi": 64,
      "hit": false,
      "t": 10875,
      "d": 187.5,
      "v": 100
    },
    {
      "midi": 45,
      "hit": false,
      "t": 10875,
      "d": 187.5,
      "v": 100
    },
    {
      "midi": 33,
      "hit": false,
      "t": 10875,
      "d": 187.5,
      "v": 100
    },
    {
      "midi": 62,
      "hit": false,
      "t": 10875,
      "d": 187.5,
      "v": 100
    },
    {
      "midi": 57,
      "hit": false,
      "t": 10875,
      "d": 187.5,
      "v": 100
    },
    {
      "midi": 55,
      "hit": false,
      "t": 10875,
      "d": 187.5,
      "v": 100
    },
    {
      "midi": 81,
      "hit": false,
      "t": 11062.5,
      "d": 187.5,
      "v": 100
    },
    {
      "midi": 45,
      "hit": false,
      "t": 11062.5,
      "d": 187.5,
      "v": 100
    },
    {
      "midi": 33,
      "hit": false,
      "t": 11062.5,
      "d": 187.5,
      "v": 100
    },
    {
      "midi": 62,
      "hit": false,
      "t": 11062.5,
      "d": 187.5,
      "v": 100
    },
    {
      "midi": 55,
      "hit": false,
      "t": 11062.5,
      "d": 187.5,
      "v": 100
    },
    {
      "midi": 57,
      "hit": false,
      "t": 11062.5,
      "d": 187.5,
      "v": 100
    },
    {
      "midi": 66,
      "hit": false,
      "t": 11250,
      "d": 375,
      "v": 100
    },
    {
      "midi": 78,
      "hit": false,
      "t": 11250,
      "d": 375,
      "v": 100
    },
    {
      "midi": 62,
      "hit": false,
      "t": 11250,
      "d": 375,
      "v": 100
    },
    {
      "midi": 26,
      "hit": false,
      "t": 11250,
      "d": 187.5,
      "v": 100
    },
    {
      "midi": 38,
      "hit": false,
      "t": 11250,
      "d": 187.5,
      "v": 100
    },
    {
      "midi": 62,
      "hit": false,
      "t": 11250,
      "d": 187.5,
      "v": 100
    },
    {
      "midi": 74,
      "hit": false,
      "t": 11250,
      "d": 1125,
      "v": 100
    },
    {
      "midi": 50,
      "hit": false,
      "t": 11250,
      "d": 1125,
      "v": 100
    },
    {
      "midi": 62,
      "hit": false,
      "t": 11250,
      "d": 187.5,
      "v": 100
    },
    {
      "midi": 66,
      "hit": false,
      "t": 11250,
      "d": 375,
      "v": 100
    },
    {
      "midi": 57,
      "hit": false,
      "t": 11250,
      "d": 375,
      "v": 100
    },
    {
      "midi": 38,
      "hit": false,
      "t": 11437.5,
      "d": 187.5,
      "v": 100
    },
    {
      "midi": 26,
      "hit": false,
      "t": 11437.5,
      "d": 187.5,
      "v": 100
    },
    {
      "midi": 57,
      "hit": false,
      "t": 11625,
      "d": 187.5,
      "v": 100
    },
    {
      "midi": 26,
      "hit": false,
      "t": 11625,
      "d": 187.5,
      "v": 100
    },
    {
      "midi": 38,
      "hit": false,
      "t": 11625,
      "d": 187.5,
      "v": 100
    },
    {
      "midi": 26,
      "hit": false,
      "t": 11812.5,
      "d": 187.5,
      "v": 100
    },
    {
      "midi": 38,
      "hit": false,
      "t": 11812.5,
      "d": 187.5,
      "v": 100
    },
    {
      "midi": 62,
      "hit": false,
      "t": 11812.5,
      "d": 187.5,
      "v": 100
    },
    {
      "midi": 66,
      "hit": false,
      "t": 11812.5,
      "d": 187.5,
      "v": 100
    },
    {
      "midi": 57,
      "hit": false,
      "t": 11812.5,
      "d": 187.5,
      "v": 100
    },
    {
      "midi": 66,
      "hit": false,
      "t": 12000,
      "d": 93.75,
      "v": 100
    },
    {
      "midi": 78,
      "hit": false,
      "t": 12000,
      "d": 93.75,
      "v": 100
    },
    {
      "midi": 64,
      "hit": false,
      "t": 12000,
      "d": 187.5,
      "v": 100
    },
    {
      "midi": 30,
      "hit": false,
      "t": 12000,
      "d": 187.5,
      "v": 100
    },
    {
      "midi": 42,
      "hit": false,
      "t": 12000,
      "d": 187.5,
      "v": 100
    },
    {
      "midi": 62,
      "hit": false,
      "t": 12000,
      "d": 187.5,
      "v": 100
    },
    {
      "midi": 66,
      "hit": false,
      "t": 12000,
      "d": 187.5,
      "v": 100
    },
    {
      "midi": 57,
      "hit": false,
      "t": 12000,
      "d": 187.5,
      "v": 100
    },
    {
      "midi": 66,
      "hit": false,
      "t": 12187.5,
      "d": 93.75,
      "v": 100
    },
    {
      "midi": 78,
      "hit": false,
      "t": 12187.5,
      "d": 93.75,
      "v": 100
    },
    {
      "midi": 30,
      "hit": false,
      "t": 12187.5,
      "d": 187.5,
      "v": 100
    },
    {
      "midi": 42,
      "hit": false,
      "t": 12187.5,
      "d": 187.5,
      "v": 100
    },
    {
      "midi": 62,
      "hit": false,
      "t": 12187.5,
      "d": 187.5,
      "v": 100
    },
    {
      "midi": 66,
      "hit": false,
      "t": 12187.5,
      "d": 187.5,
      "v": 100
    },
    {
      "midi": 57,
      "hit": false,
      "t": 12187.5,
      "d": 187.5,
      "v": 100
    },
    {
      "midi": 66,
      "hit": false,
      "t": 12375,
      "d": 375,
      "v": 100
    },
    {
      "midi": 78,
      "hit": false,
      "t": 12375,
      "d": 375,
      "v": 100
    },
    {
      "midi": 62,
      "hit": false,
      "t": 12375,
      "d": 375,
      "v": 100
    },
    {
      "midi": 35,
      "hit": false,
      "t": 12375,
      "d": 187.5,
      "v": 100
    },
    {
      "midi": 47,
      "hit": false,
      "t": 12375,
      "d": 187.5,
      "v": 100
    },
    {
      "midi": 62,
      "hit": false,
      "t": 12375,
      "d": 187.5,
      "v": 100
    },
    {
      "midi": 66,
      "hit": false,
      "t": 12375,
      "d": 375,
      "v": 100
    },
    {
      "midi": 57,
      "hit": false,
      "t": 12375,
      "d": 375,
      "v": 100
    },
    {
      "midi": 35,
      "hit": false,
      "t": 12562.5,
      "d": 187.5,
      "v": 100
    },
    {
      "midi": 47,
      "hit": false,
      "t": 12562.5,
      "d": 187.5,
      "v": 100
    },
    {
      "midi": 67,
      "hit": false,
      "t": 12750,
      "d": 375,
      "v": 100
    },
    {
      "midi": 79,
      "hit": false,
      "t": 12750,
      "d": 375,
      "v": 100
    },
    {
      "midi": 57,
      "hit": false,
      "t": 12750,
      "d": 187.5,
      "v": 100
    },
    {
      "midi": 35,
      "hit": false,
      "t": 12750,
      "d": 187.5,
      "v": 100
    },
    {
      "midi": 47,
      "hit": false,
      "t": 12750,
      "d": 187.5,
      "v": 100
    },
    {
      "midi": 62,
      "hit": false,
      "t": 12750,
      "d": 187.5,
      "v": 100
    },
    {
      "midi": 66,
      "hit": false,
      "t": 12750,
      "d": 187.5,
      "v": 100
    },
    {
      "midi": 57,
      "hit": false,
      "t": 12750,
      "d": 187.5,
      "v": 100
    },
    {
      "midi": 35,
      "hit": false,
      "t": 12937.5,
      "d": 187.5,
      "v": 100
    },
    {
      "midi": 47,
      "hit": false,
      "t": 12937.5,
      "d": 187.5,
      "v": 100
    },
    {
      "midi": 62,
      "hit": false,
      "t": 12937.5,
      "d": 187.5,
      "v": 100
    },
    {
      "midi": 66,
      "hit": false,
      "t": 12937.5,
      "d": 187.5,
      "v": 100
    },
    {
      "midi": 57,
      "hit": false,
      "t": 12937.5,
      "d": 187.5,
      "v": 100
    },
    {
      "midi": 69,
      "hit": false,
      "t": 13125,
      "d": 187.5,
      "v": 100
    },
    {
      "midi": 81,
      "hit": false,
      "t": 13125,
      "d": 187.5,
      "v": 100
    },
    {
      "midi": 64,
      "hit": false,
      "t": 13125,
      "d": 187.5,
      "v": 100
    },
    {
      "midi": 45,
      "hit": false,
      "t": 13125,
      "d": 187.5,
      "v": 100
    },
    {
      "midi": 33,
      "hit": false,
      "t": 13125,
      "d": 187.5,
      "v": 100
    },
    {
      "midi": 62,
      "hit": false,
      "t": 13125,
      "d": 187.5,
      "v": 100
    },
    {
      "midi": 66,
      "hit": false,
      "t": 13125,
      "d": 187.5,
      "v": 100
    },
    {
      "midi": 57,
      "hit": false,
      "t": 13125,
      "d": 187.5,
      "v": 100
    },
    {
      "midi": 45,
      "hit": false,
      "t": 13312.5,
      "d": 187.5,
      "v": 100
    },
    {
      "midi": 33,
      "hit": false,
      "t": 13312.5,
      "d": 187.5,
      "v": 100
    },
    {
      "midi": 69,
      "hit": false,
      "t": 13500,
      "d": 375,
      "v": 100
    },
    {
      "midi": 81,
      "hit": false,
      "t": 13500,
      "d": 375,
      "v": 100
    },
    {
      "midi": 62,
      "hit": false,
      "t": 13500,
      "d": 375,
      "v": 100
    },
    {
      "midi": 43,
      "hit": false,
      "t": 13500,
      "d": 187.5,
      "v": 100
    },
    {
      "midi": 31,
      "hit": false,
      "t": 13500,
      "d": 187.5,
      "v": 100
    },
    {
      "midi": 62,
      "hit": false,
      "t": 13500,
      "d": 187.5,
      "v": 100
    },
    {
      "midi": 66,
      "hit": false,
      "t": 13500,
      "d": 187.5,
      "v": 100
    },
    {
      "midi": 59,
      "hit": false,
      "t": 13500,
      "d": 187.5,
      "v": 100
    },
    {
      "midi": 43,
      "hit": false,
      "t": 13687.5,
      "d": 187.5,
      "v": 100
    },
    {
      "midi": 31,
      "hit": false,
      "t": 13687.5,
      "d": 187.5,
      "v": 100
    },
    {
      "midi": 62,
      "hit": false,
      "t": 13687.5,
      "d": 187.5,
      "v": 100
    },
    {
      "midi": 66,
      "hit": false,
      "t": 13687.5,
      "d": 187.5,
      "v": 100
    },
    {
      "midi": 59,
      "hit": false,
      "t": 13687.5,
      "d": 187.5,
      "v": 100
    },
    {
      "midi": 62,
      "hit": false,
      "t": 13875,
      "d": 750,
      "v": 100
    },
    {
      "midi": 74,
      "hit": false,
      "t": 13875,
      "d": 750,
      "v": 100
    },
    {
      "midi": 57,
      "hit": false,
      "t": 13875,
      "d": 187.5,
      "v": 100
    },
    {
      "midi": 43,
      "hit": false,
      "t": 13875,
      "d": 187.5,
      "v": 100
    },
    {
      "midi": 31,
      "hit": false,
      "t": 13875,
      "d": 187.5,
      "v": 100
    },
    {
      "midi": 43,
      "hit": false,
      "t": 14062.5,
      "d": 187.5,
      "v": 100
    },
    {
      "midi": 31,
      "hit": false,
      "t": 14062.5,
      "d": 187.5,
      "v": 100
    },
    {
      "midi": 62,
      "hit": false,
      "t": 14062.5,
      "d": 187.5,
      "v": 100
    },
    {
      "midi": 66,
      "hit": false,
      "t": 14062.5,
      "d": 187.5,
      "v": 100
    },
    {
      "midi": 59,
      "hit": false,
      "t": 14062.5,
      "d": 187.5,
      "v": 100
    },
    {
      "midi": 64,
      "hit": false,
      "t": 14250,
      "d": 187.5,
      "v": 100
    },
    {
      "midi": 42,
      "hit": false,
      "t": 14250,
      "d": 187.5,
      "v": 100
    },
    {
      "midi": 30,
      "hit": false,
      "t": 14250,
      "d": 187.5,
      "v": 100
    },
    {
      "midi": 62,
      "hit": false,
      "t": 14250,
      "d": 187.5,
      "v": 100
    },
    {
      "midi": 57,
      "hit": false,
      "t": 14250,
      "d": 187.5,
      "v": 100
    },
    {
      "midi": 66,
      "hit": false,
      "t": 14250,
      "d": 187.5,
      "v": 100
    },
    {
      "midi": 42,
      "hit": false,
      "t": 14437.5,
      "d": 187.5,
      "v": 100
    },
    {
      "midi": 30,
      "hit": false,
      "t": 14437.5,
      "d": 187.5,
      "v": 100
    },
    {
      "midi": 69,
      "hit": false,
      "t": 14625,
      "d": 562.5,
      "v": 100
    },
    {
      "midi": 81,
      "hit": false,
      "t": 14625,
      "d": 562.5,
      "v": 100
    },
    {
      "midi": 62,
      "hit": false,
      "t": 14625,
      "d": 375,
      "v": 100
    },
    {
      "midi": 29,
      "hit": false,
      "t": 14625,
      "d": 187.5,
      "v": 100
    },
    {
      "midi": 41,
      "hit": false,
      "t": 14625,
      "d": 187.5,
      "v": 100
    },
    {
      "midi": 58,
      "hit": false,
      "t": 14625,
      "d": 187.5,
      "v": 100
    },
    {
      "midi": 62,
      "hit": false,
      "t": 14625,
      "d": 375,
      "v": 100
    },
    {
      "midi": 53,
      "hit": false,
      "t": 14625,
      "d": 375,
      "v": 100
    },
    {
      "midi": 29,
      "hit": false,
      "t": 14812.5,
      "d": 187.5,
      "v": 100
    },
    {
      "midi": 41,
      "hit": false,
      "t": 14812.5,
      "d": 187.5,
      "v": 100
    },
    {
      "midi": 58,
      "hit": false,
      "t": 15000,
      "d": 187.5,
      "v": 100
    },
    {
      "midi": 29,
      "hit": false,
      "t": 15000,
      "d": 187.5,
      "v": 100
    },
    {
      "midi": 41,
      "hit": false,
      "t": 15000,
      "d": 187.5,
      "v": 100
    },
    {
      "midi": 62,
      "hit": false,
      "t": 15000,
      "d": 187.5,
      "v": 100
    },
    {
      "midi": 58,
      "hit": false,
      "t": 15000,
      "d": 187.5,
      "v": 100
    },
    {
      "midi": 53,
      "hit": false,
      "t": 15000,
      "d": 187.5,
      "v": 100
    },
    {
      "midi": 67,
      "hit": false,
      "t": 15187.5,
      "d": 187.5,
      "v": 100
    },
    {
      "midi": 79,
      "hit": false,
      "t": 15187.5,
      "d": 187.5,
      "v": 100
    },
    {
      "midi": 29,
      "hit": false,
      "t": 15187.5,
      "d": 187.5,
      "v": 100
    },
    {
      "midi": 41,
      "hit": false,
      "t": 15187.5,
      "d": 187.5,
      "v": 100
    },
    {
      "midi": 62,
      "hit": false,
      "t": 15187.5,
      "d": 187.5,
      "v": 100
    },
    {
      "midi": 58,
      "hit": false,
      "t": 15187.5,
      "d": 187.5,
      "v": 100
    },
    {
      "midi": 53,
      "hit": false,
      "t": 15187.5,
      "d": 187.5,
      "v": 100
    },
    {
      "midi": 65,
      "hit": false,
      "t": 15375,
      "d": 375,
      "v": 100
    },
    {
      "midi": 77,
      "hit": false,
      "t": 15375,
      "d": 375,
      "v": 100
    },
    {
      "midi": 65,
      "hit": false,
      "t": 15375,
      "d": 187.5,
      "v": 100
    },
    {
      "midi": 29,
      "hit": false,
      "t": 15375,
      "d": 187.5,
      "v": 100
    },
    {
      "midi": 41,
      "hit": false,
      "t": 15375,
      "d": 187.5,
      "v": 100
    },
    {
      "midi": 62,
      "hit": false,
      "t": 15375,
      "d": 187.5,
      "v": 100
    },
    {
      "midi": 58,
      "hit": false,
      "t": 15375,
      "d": 375,
      "v": 100
    },
    {
      "midi": 53,
      "hit": false,
      "t": 15375,
      "d": 375,
      "v": 100
    },
    {
      "midi": 29,
      "hit": false,
      "t": 15562.5,
      "d": 187.5,
      "v": 100
    },
    {
      "midi": 41,
      "hit": false,
      "t": 15562.5,
      "d": 187.5,
      "v": 100
    },
    {
      "midi": 64,
      "hit": false,
      "t": 15750,
      "d": 562.5,
      "v": 100
    },
    {
      "midi": 76,
      "hit": false,
      "t": 15750,
      "d": 562.5,
      "v": 100
    },
    {
      "midi": 55,
      "hit": false,
      "t": 15750,
      "d": 187.5,
      "v": 100
    },
    {
      "midi": 64,
      "hit": false,
      "t": 15750,
      "d": 375,
      "v": 100
    },
    {
      "midi": 29,
      "hit": false,
      "t": 15750,
      "d": 187.5,
      "v": 100
    },
    {
      "midi": 41,
      "hit": false,
      "t": 15750,
      "d": 187.5,
      "v": 100
    },
    {
      "midi": 62,
      "hit": false,
      "t": 15750,
      "d": 187.5,
      "v": 100
    },
    {
      "midi": 58,
      "hit": false,
      "t": 15750,
      "d": 375,
      "v": 100
    },
    {
      "midi": 53,
      "hit": false,
      "t": 15750,
      "d": 375,
      "v": 100
    },
    {
      "midi": 29,
      "hit": false,
      "t": 15937.5,
      "d": 187.5,
      "v": 100
    },
    {
      "midi": 41,
      "hit": false,
      "t": 15937.5,
      "d": 187.5,
      "v": 100
    },
    {
      "midi": 57,
      "hit": false,
      "t": 16125,
      "d": 187.5,
      "v": 100
    },
    {
      "midi": 29,
      "hit": false,
      "t": 16125,
      "d": 187.5,
      "v": 100
    },
    {
      "midi": 41,
      "hit": false,
      "t": 16125,
      "d": 187.5,
      "v": 100
    },
    {
      "midi": 65,
      "hit": false,
      "t": 16312.5,
      "d": 187.5,
      "v": 100
    },
    {
      "midi": 77,
      "hit": false,
      "t": 16312.5,
      "d": 187.5,
      "v": 100
    },
    {
      "midi": 29,
      "hit": false,
      "t": 16312.5,
      "d": 187.5,
      "v": 100
    },
    {
      "midi": 41,
      "hit": false,
      "t": 16312.5,
      "d": 187.5,
      "v": 100
    },
    {
      "midi": 62,
      "hit": false,
      "t": 16312.5,
      "d": 187.5,
      "v": 100
    },
    {
      "midi": 58,
      "hit": false,
      "t": 16312.5,
      "d": 187.5,
      "v": 100
    },
    {
      "midi": 53,
      "hit": false,
      "t": 16312.5,
      "d": 187.5,
      "v": 100
    },
    {
      "midi": 67,
      "hit": false,
      "t": 16500,
      "d": 375,
      "v": 100
    },
    {
      "midi": 79,
      "hit": false,
      "t": 16500,
      "d": 375,
      "v": 100
    },
    {
      "midi": 64,
      "hit": false,
      "t": 16500,
      "d": 187.5,
      "v": 100
    },
    {
      "midi": 29,
      "hit": false,
      "t": 16500,
      "d": 187.5,
      "v": 100
    },
    {
      "midi": 41,
      "hit": false,
      "t": 16500,
      "d": 187.5,
      "v": 100
    },
    {
      "midi": 62,
      "hit": false,
      "t": 16500,
      "d": 187.5,
      "v": 100
    },
    {
      "midi": 58,
      "hit": false,
      "t": 16500,
      "d": 187.5,
      "v": 100
    },
    {
      "midi": 53,
      "hit": false,
      "t": 16500,
      "d": 187.5,
      "v": 100
    },
    {
      "midi": 29,
      "hit": false,
      "t": 16687.5,
      "d": 187.5,
      "v": 100
    },
    {
      "midi": 41,
      "hit": false,
      "t": 16687.5,
      "d": 187.5,
      "v": 100
    },
    {
      "midi": 62,
      "hit": false,
      "t": 16687.5,
      "d": 187.5,
      "v": 100
    },
    {
      "midi": 58,
      "hit": false,
      "t": 16687.5,
      "d": 187.5,
      "v": 100
    },
    {
      "midi": 53,
      "hit": false,
      "t": 16687.5,
      "d": 187.5,
      "v": 100
    },
    {
      "midi": 62,
      "hit": false,
      "t": 16875,
      "d": 375,
      "v": 100
    },
    {
      "midi": 74,
      "hit": false,
      "t": 16875,
      "d": 375,
      "v": 100
    },
    {
      "midi": 62,
      "hit": false,
      "t": 16875,
      "d": 375,
      "v": 100
    },
    {
      "midi": 40,
      "hit": false,
      "t": 16875,
      "d": 187.5,
      "v": 100
    },
    {
      "midi": 28,
      "hit": false,
      "t": 16875,
      "d": 187.5,
      "v": 100
    },
    {
      "midi": 62,
      "hit": false,
      "t": 16875,
      "d": 187.5,
      "v": 100
    },
    {
      "midi": 52,
      "hit": false,
      "t": 16875,
      "d": 375,
      "v": 100
    },
    {
      "midi": 57,
      "hit": false,
      "t": 16875,
      "d": 375,
      "v": 100
    },
    {
      "midi": 40,
      "hit": false,
      "t": 17062.5,
      "d": 187.5,
      "v": 100
    },
    {
      "midi": 28,
      "hit": false,
      "t": 17062.5,
      "d": 187.5,
      "v": 100
    },
    {
      "midi": 55,
      "hit": false,
      "t": 17250,
      "d": 187.5,
      "v": 100
    },
    {
      "midi": 40,
      "hit": false,
      "t": 17250,
      "d": 187.5,
      "v": 100
    },
    {
      "midi": 28,
      "hit": false,
      "t": 17250,
      "d": 187.5,
      "v": 100
    },
    {
      "midi": 62,
      "hit": false,
      "t": 17250,
      "d": 187.5,
      "v": 100
    },
    {
      "midi": 55,
      "hit": false,
      "t": 17250,
      "d": 187.5,
      "v": 100
    },
    {
      "midi": 52,
      "hit": false,
      "t": 17250,
      "d": 187.5,
      "v": 100
    },
    {
      "midi": 40,
      "hit": false,
      "t": 17437.5,
      "d": 187.5,
      "v": 100
    },
    {
      "midi": 28,
      "hit": false,
      "t": 17437.5,
      "d": 187.5,
      "v": 100
    },
    {
      "midi": 62,
      "hit": false,
      "t": 17437.5,
      "d": 187.5,
      "v": 100
    },
    {
      "midi": 55,
      "hit": false,
      "t": 17437.5,
      "d": 187.5,
      "v": 100
    },
    {
      "midi": 52,
      "hit": false,
      "t": 17437.5,
      "d": 187.5,
      "v": 100
    },
    {
      "midi": 62,
      "hit": false,
      "t": 17625,
      "d": 187.5,
      "v": 100
    },
    {
      "midi": 74,
      "hit": false,
      "t": 17625,
      "d": 187.5,
      "v": 100
    },
    {
      "midi": 59,
      "hit": false,
      "t": 17625,
      "d": 187.5,
      "v": 100
    },
    {
      "midi": 42,
      "hit": false,
      "t": 17625,
      "d": 187.5,
      "v": 100
    },
    {
      "midi": 30,
      "hit": false,
      "t": 17625,
      "d": 187.5,
      "v": 100
    },
    {
      "midi": 62,
      "hit": false,
      "t": 17625,
      "d": 187.5,
      "v": 100
    },
    {
      "midi": 55,
      "hit": false,
      "t": 17625,
      "d": 187.5,
      "v": 100
    },
    {
      "midi": 52,
      "hit": false,
      "t": 17625,
      "d": 187.5,
      "v": 100
    },
    {
      "midi": 61,
      "hit": false,
      "t": 17812.5,
      "d": 187.5,
      "v": 100
    },
    {
      "midi": 42,
      "hit": false,
      "t": 17812.5,
      "d": 187.5,
      "v": 100
    },
    {
      "midi": 30,
      "hit": false,
      "t": 17812.5,
      "d": 187.5,
      "v": 100
    },
    {
      "midi": 62,
      "hit": false,
      "t": 17812.5,
      "d": 187.5,
      "v": 100
    },
    {
      "midi": 55,
      "hit": false,
      "t": 17812.5,
      "d": 187.5,
      "v": 100
    },
    {
      "midi": 52,
      "hit": false,
      "t": 17812.5,
      "d": 187.5,
      "v": 100
    },
    {
      "midi": 62,
      "hit": false,
      "t": 18000,
      "d": 562.5,
      "v": 100
    },
    {
      "midi": 74,
      "hit": false,
      "t": 18000,
      "d": 562.5,
      "v": 100
    },
    {
      "midi": 62,
      "hit": false,
      "t": 18000,
      "d": 375,
      "v": 100
    },
    {
      "midi": 31,
      "hit": false,
      "t": 18000,
      "d": 187.5,
      "v": 100
    },
    {
      "midi": 43,
      "hit": false,
      "t": 18000,
      "d": 187.5,
      "v": 100
    },
    {
      "midi": 62,
      "hit": false,
      "t": 18000,
      "d": 187.5,
      "v": 100
    },
    {
      "midi": 58,
      "hit": false,
      "t": 18000,
      "d": 375,
      "v": 100
    },
    {
      "midi": 55,
      "hit": false,
      "t": 18000,
      "d": 375,
      "v": 100
    },
    {
      "midi": 31,
      "hit": false,
      "t": 18187.5,
      "d": 187.5,
      "v": 100
    },
    {
      "midi": 43,
      "hit": false,
      "t": 18187.5,
      "d": 187.5,
      "v": 100
    },
    {
      "midi": 55,
      "hit": false,
      "t": 18375,
      "d": 187.5,
      "v": 100
    },
    {
      "midi": 31,
      "hit": false,
      "t": 18375,
      "d": 187.5,
      "v": 100
    },
    {
      "midi": 43,
      "hit": false,
      "t": 18375,
      "d": 187.5,
      "v": 100
    },
    {
      "midi": 62,
      "hit": false,
      "t": 18375,
      "d": 187.5,
      "v": 100
    },
    {
      "midi": 58,
      "hit": false,
      "t": 18375,
      "d": 187.5,
      "v": 100
    },
    {
      "midi": 55,
      "hit": false,
      "t": 18375,
      "d": 187.5,
      "v": 100
    },
    {
      "midi": 64,
      "hit": false,
      "t": 18562.5,
      "d": 187.5,
      "v": 100
    },
    {
      "midi": 76,
      "hit": false,
      "t": 18562.5,
      "d": 187.5,
      "v": 100
    },
    {
      "midi": 31,
      "hit": false,
      "t": 18562.5,
      "d": 187.5,
      "v": 100
    },
    {
      "midi": 43,
      "hit": false,
      "t": 18562.5,
      "d": 187.5,
      "v": 100
    },
    {
      "midi": 62,
      "hit": false,
      "t": 18562.5,
      "d": 187.5,
      "v": 100
    },
    {
      "midi": 58,
      "hit": false,
      "t": 18562.5,
      "d": 187.5,
      "v": 100
    },
    {
      "midi": 55,
      "hit": false,
      "t": 18562.5,
      "d": 187.5,
      "v": 100
    },
    {
      "midi": 65,
      "hit": false,
      "t": 18750,
      "d": 187.5,
      "v": 100
    },
    {
      "midi": 77,
      "hit": false,
      "t": 18750,
      "d": 187.5,
      "v": 100
    },
    {
      "midi": 58,
      "hit": false,
      "t": 18750,
      "d": 187.5,
      "v": 100
    },
    {
      "midi": 31,
      "hit": false,
      "t": 18750,
      "d": 187.5,
      "v": 100
    },
    {
      "midi": 43,
      "hit": false,
      "t": 18750,
      "d": 187.5,
      "v": 100
    },
    {
      "midi": 58,
      "hit": false,
      "t": 18750,
      "d": 187.5,
      "v": 100
    },
    {
      "midi": 55,
      "hit": false,
      "t": 18750,
      "d": 187.5,
      "v": 100
    },
    {
      "midi": 62,
      "hit": false,
      "t": 18750,
      "d": 187.5,
      "v": 100
    },
    {
      "midi": 31,
      "hit": false,
      "t": 18937.5,
      "d": 187.5,
      "v": 100
    },
    {
      "midi": 43,
      "hit": false,
      "t": 18937.5,
      "d": 187.5,
      "v": 100
    },
    {
      "midi": 62,
      "hit": false,
      "t": 18937.5,
      "d": 187.5,
      "v": 100
    },
    {
      "midi": 58,
      "hit": false,
      "t": 18937.5,
      "d": 187.5,
      "v": 100
    },
    {
      "midi": 55,
      "hit": false,
      "t": 18937.5,
      "d": 187.5,
      "v": 100
    },
    {
      "midi": 64,
      "hit": false,
      "t": 19125,
      "d": 375,
      "v": 100
    },
    {
      "midi": 76,
      "hit": false,
      "t": 19125,
      "d": 375,
      "v": 100
    },
    {
      "midi": 60,
      "hit": false,
      "t": 19125,
      "d": 375,
      "v": 100
    },
    {
      "midi": 45,
      "hit": false,
      "t": 19125,
      "d": 187.5,
      "v": 100
    },
    {
      "midi": 33,
      "hit": false,
      "t": 19125,
      "d": 187.5,
      "v": 100
    },
    {
      "midi": 62,
      "hit": false,
      "t": 19125,
      "d": 187.5,
      "v": 100
    },
    {
      "midi": 55,
      "hit": false,
      "t": 19125,
      "d": 187.5,
      "v": 100
    },
    {
      "midi": 52,
      "hit": false,
      "t": 19125,
      "d": 187.5,
      "v": 100
    },
    {
      "midi": 45,
      "hit": false,
      "t": 19312.5,
      "d": 187.5,
      "v": 100
    },
    {
      "midi": 33,
      "hit": false,
      "t": 19312.5,
      "d": 187.5,
      "v": 100
    },
    {
      "midi": 62,
      "hit": false,
      "t": 19312.5,
      "d": 187.5,
      "v": 100
    },
    {
      "midi": 55,
      "hit": false,
      "t": 19312.5,
      "d": 187.5,
      "v": 100
    },
    {
      "midi": 52,
      "hit": false,
      "t": 19312.5,
      "d": 187.5,
      "v": 100
    },
    {
      "midi": 65,
      "hit": false,
      "t": 19500,
      "d": 187.5,
      "v": 100
    },
    {
      "midi": 77,
      "hit": false,
      "t": 19500,
      "d": 187.5,
      "v": 100
    },
    {
      "midi": 57,
      "hit": false,
      "t": 19500,
      "d": 187.5,
      "v": 100
    },
    {
      "midi": 45,
      "hit": false,
      "t": 19500,
      "d": 187.5,
      "v": 100
    },
    {
      "midi": 33,
      "hit": false,
      "t": 19500,
      "d": 187.5,
      "v": 100
    },
    {
      "midi": 62,
      "hit": false,
      "t": 19500,
      "d": 187.5,
      "v": 100
    },
    {
      "midi": 57,
      "hit": false,
      "t": 19500,
      "d": 187.5,
      "v": 100
    },
    {
      "midi": 52,
      "hit": false,
      "t": 19500,
      "d": 187.5,
      "v": 100
    },
    {
      "midi": 45,
      "hit": false,
      "t": 19687.5,
      "d": 187.5,
      "v": 100
    },
    {
      "midi": 33,
      "hit": false,
      "t": 19687.5,
      "d": 187.5,
      "v": 100
    },
    {
      "midi": 52,
      "hit": false,
      "t": 19687.5,
      "d": 187.5,
      "v": 100
    },
    {
      "midi": 62,
      "hit": false,
      "t": 19687.5,
      "d": 187.5,
      "v": 100
    },
    {
      "midi": 57,
      "hit": false,
      "t": 19687.5,
      "d": 187.5,
      "v": 100
    },
    {
      "midi": 67,
      "hit": false,
      "t": 19875,
      "d": 187.5,
      "v": 100
    },
    {
      "midi": 79,
      "hit": false,
      "t": 19875,
      "d": 187.5,
      "v": 100
    },
    {
      "midi": 64,
      "hit": false,
      "t": 19875,
      "d": 187.5,
      "v": 100
    },
    {
      "midi": 45,
      "hit": false,
      "t": 19875,
      "d": 187.5,
      "v": 100
    },
    {
      "midi": 33,
      "hit": false,
      "t": 19875,
      "d": 187.5,
      "v": 100
    },
    {
      "midi": 55,
      "hit": false,
      "t": 19875,
      "d": 187.5,
      "v": 100
    },
    {
      "midi": 62,
      "hit": false,
      "t": 19875,
      "d": 187.5,
      "v": 100
    },
    {
      "midi": 57,
      "hit": false,
      "t": 19875,
      "d": 187.5,
      "v": 100
    },
    {
      "midi": 45,
      "hit": false,
      "t": 20062.5,
      "d": 187.5,
      "v": 100
    },
    {
      "midi": 33,
      "hit": false,
      "t": 20062.5,
      "d": 187.5,
      "v": 100
    },
    {
      "midi": 57,
      "hit": false,
      "t": 20062.5,
      "d": 187.5,
      "v": 100
    },
    {
      "midi": 62,
      "hit": false,
      "t": 20062.5,
      "d": 187.5,
      "v": 100
    },
    {
      "midi": 55,
      "hit": false,
      "t": 20062.5,
      "d": 187.5,
      "v": 100
    },
    {
      "midi": 62,
      "hit": false,
      "t": 20250,
      "d": 375,
      "v": 100
    },
    {
      "midi": 74,
      "hit": false,
      "t": 20250,
      "d": 375,
      "v": 100
    },
    {
      "midi": 62,
      "hit": false,
      "t": 20250,
      "d": 375,
      "v": 100
    },
    {
      "midi": 38,
      "hit": false,
      "t": 20250,
      "d": 187.5,
      "v": 100
    },
    {
      "midi": 31,
      "hit": false,
      "t": 20250,
      "d": 187.5,
      "v": 100
    },
    {
      "midi": 46,
      "hit": false,
      "t": 20250,
      "d": 187.5,
      "v": 100
    },
    {
      "midi": 62,
      "hit": false,
      "t": 20250,
      "d": 187.5,
      "v": 100
    },
    {
      "midi": 74,
      "hit": false,
      "t": 20250,
      "d": 1125,
      "v": 100
    },
    {
      "midi": 50,
      "hit": false,
      "t": 20250,
      "d": 1125,
      "v": 100
    },
    {
      "midi": 65,
      "hit": false,
      "t": 20250,
      "d": 187.5,
      "v": 100
    },
    {
      "midi": 62,
      "hit": false,
      "t": 20250,
      "d": 187.5,
      "v": 100
    },
    {
      "midi": 58,
      "hit": false,
      "t": 20250,
      "d": 187.5,
      "v": 100
    },
    {
      "midi": 38,
      "hit": false,
      "t": 20437.5,
      "d": 187.5,
      "v": 100
    },
    {
      "midi": 31,
      "hit": false,
      "t": 20437.5,
      "d": 187.5,
      "v": 100
    },
    {
      "midi": 46,
      "hit": false,
      "t": 20437.5,
      "d": 187.5,
      "v": 100
    },
    {
      "midi": 65,
      "hit": false,
      "t": 20437.5,
      "d": 187.5,
      "v": 100
    },
    {
      "midi": 62,
      "hit": false,
      "t": 20437.5,
      "d": 187.5,
      "v": 100
    },
    {
      "midi": 58,
      "hit": false,
      "t": 20437.5,
      "d": 187.5,
      "v": 100
    },
    {
      "midi": 69,
      "hit": false,
      "t": 20625,
      "d": 187.5,
      "v": 100
    },
    {
      "midi": 81,
      "hit": false,
      "t": 20625,
      "d": 187.5,
      "v": 100
    },
    {
      "midi": 81,
      "hit": false,
      "t": 20625,
      "d": 187.5,
      "v": 100
    },
    {
      "midi": 57,
      "hit": false,
      "t": 20625,
      "d": 187.5,
      "v": 100
    },
    {
      "midi": 38,
      "hit": false,
      "t": 20625,
      "d": 187.5,
      "v": 100
    },
    {
      "midi": 31,
      "hit": false,
      "t": 20625,
      "d": 187.5,
      "v": 100
    },
    {
      "midi": 46,
      "hit": false,
      "t": 20625,
      "d": 187.5,
      "v": 100
    },
    {
      "midi": 65,
      "hit": false,
      "t": 20625,
      "d": 187.5,
      "v": 100
    },
    {
      "midi": 62,
      "hit": false,
      "t": 20625,
      "d": 187.5,
      "v": 100
    },
    {
      "midi": 58,
      "hit": false,
      "t": 20625,
      "d": 187.5,
      "v": 100
    },
    {
      "midi": 67,
      "hit": false,
      "t": 20812.5,
      "d": 187.5,
      "v": 100
    },
    {
      "midi": 79,
      "hit": false,
      "t": 20812.5,
      "d": 187.5,
      "v": 100
    },
    {
      "midi": 79,
      "hit": false,
      "t": 20812.5,
      "d": 187.5,
      "v": 100
    },
    {
      "midi": 31,
      "hit": false,
      "t": 20812.5,
      "d": 187.5,
      "v": 100
    },
    {
      "midi": 38,
      "hit": false,
      "t": 20812.5,
      "d": 187.5,
      "v": 100
    },
    {
      "midi": 46,
      "hit": false,
      "t": 20812.5,
      "d": 187.5,
      "v": 100
    },
    {
      "midi": 65,
      "hit": false,
      "t": 20812.5,
      "d": 187.5,
      "v": 100
    },
    {
      "midi": 62,
      "hit": false,
      "t": 20812.5,
      "d": 187.5,
      "v": 100
    },
    {
      "midi": 58,
      "hit": false,
      "t": 20812.5,
      "d": 187.5,
      "v": 100
    },
    {
      "midi": 69,
      "hit": false,
      "t": 21000,
      "d": 187.5,
      "v": 100
    },
    {
      "midi": 81,
      "hit": false,
      "t": 21000,
      "d": 187.5,
      "v": 100
    },
    {
      "midi": 81,
      "hit": false,
      "t": 21000,
      "d": 187.5,
      "v": 100
    },
    {
      "midi": 65,
      "hit": false,
      "t": 21000,
      "d": 187.5,
      "v": 100
    },
    {
      "midi": 38,
      "hit": false,
      "t": 21000,
      "d": 187.5,
      "v": 100
    },
    {
      "midi": 31,
      "hit": false,
      "t": 21000,
      "d": 187.5,
      "v": 100
    },
    {
      "midi": 46,
      "hit": false,
      "t": 21000,
      "d": 187.5,
      "v": 100
    },
    {
      "midi": 65,
      "hit": false,
      "t": 21000,
      "d": 187.5,
      "v": 100
    },
    {
      "midi": 62,
      "hit": false,
      "t": 21000,
      "d": 187.5,
      "v": 100
    },
    {
      "midi": 58,
      "hit": false,
      "t": 21000,
      "d": 187.5,
      "v": 100
    },
    {
      "midi": 38,
      "hit": false,
      "t": 21187.5,
      "d": 187.5,
      "v": 100
    },
    {
      "midi": 31,
      "hit": false,
      "t": 21187.5,
      "d": 187.5,
      "v": 100
    },
    {
      "midi": 46,
      "hit": false,
      "t": 21187.5,
      "d": 187.5,
      "v": 100
    },
    {
      "midi": 65,
      "hit": false,
      "t": 21187.5,
      "d": 187.5,
      "v": 100
    },
    {
      "midi": 62,
      "hit": false,
      "t": 21187.5,
      "d": 187.5,
      "v": 100
    },
    {
      "midi": 58,
      "hit": false,
      "t": 21187.5,
      "d": 187.5,
      "v": 100
    },
    {
      "midi": 62,
      "hit": false,
      "t": 21375,
      "d": 375,
      "v": 100
    },
    {
      "midi": 38,
      "hit": false,
      "t": 21375,
      "d": 187.5,
      "v": 100
    },
    {
      "midi": 31,
      "hit": false,
      "t": 21375,
      "d": 187.5,
      "v": 100
    },
    {
      "midi": 46,
      "hit": false,
      "t": 21375,
      "d": 187.5,
      "v": 100
    },
    {
      "midi": 65,
      "hit": false,
      "t": 21375,
      "d": 187.5,
      "v": 100
    },
    {
      "midi": 62,
      "hit": false,
      "t": 21375,
      "d": 187.5,
      "v": 100
    },
    {
      "midi": 58,
      "hit": false,
      "t": 21375,
      "d": 187.5,
      "v": 100
    },
    {
      "midi": 38,
      "hit": false,
      "t": 21562.5,
      "d": 187.5,
      "v": 100
    },
    {
      "midi": 31,
      "hit": false,
      "t": 21562.5,
      "d": 187.5,
      "v": 100
    },
    {
      "midi": 46,
      "hit": false,
      "t": 21562.5,
      "d": 187.5,
      "v": 100
    },
    {
      "midi": 65,
      "hit": false,
      "t": 21562.5,
      "d": 187.5,
      "v": 100
    },
    {
      "midi": 62,
      "hit": false,
      "t": 21562.5,
      "d": 187.5,
      "v": 100
    },
    {
      "midi": 58,
      "hit": false,
      "t": 21562.5,
      "d": 187.5,
      "v": 100
    },
    {
      "midi": 69,
      "hit": false,
      "t": 21750,
      "d": 375,
      "v": 100
    },
    {
      "midi": 81,
      "hit": false,
      "t": 21750,
      "d": 375,
      "v": 100
    },
    {
      "midi": 57,
      "hit": false,
      "t": 21750,
      "d": 187.5,
      "v": 100
    },
    {
      "midi": 38,
      "hit": false,
      "t": 21750,
      "d": 187.5,
      "v": 100
    },
    {
      "midi": 31,
      "hit": false,
      "t": 21750,
      "d": 187.5,
      "v": 100
    },
    {
      "midi": 46,
      "hit": false,
      "t": 21750,
      "d": 187.5,
      "v": 100
    },
    {
      "midi": 65,
      "hit": false,
      "t": 21750,
      "d": 187.5,
      "v": 100
    },
    {
      "midi": 62,
      "hit": false,
      "t": 21750,
      "d": 187.5,
      "v": 100
    },
    {
      "midi": 58,
      "hit": false,
      "t": 21750,
      "d": 187.5,
      "v": 100
    },
    {
      "midi": 31,
      "hit": false,
      "t": 21937.5,
      "d": 187.5,
      "v": 100
    },
    {
      "midi": 38,
      "hit": false,
      "t": 21937.5,
      "d": 187.5,
      "v": 100
    },
    {
      "midi": 46,
      "hit": false,
      "t": 21937.5,
      "d": 187.5,
      "v": 100
    },
    {
      "midi": 65,
      "hit": false,
      "t": 21937.5,
      "d": 187.5,
      "v": 100
    },
    {
      "midi": 62,
      "hit": false,
      "t": 21937.5,
      "d": 187.5,
      "v": 100
    },
    {
      "midi": 58,
      "hit": false,
      "t": 21937.5,
      "d": 187.5,
      "v": 100
    },
    {
      "midi": 72,
      "hit": false,
      "t": 22125,
      "d": 375,
      "v": 100
    },
    {
      "midi": 84,
      "hit": false,
      "t": 22125,
      "d": 375,
      "v": 100
    },
    {
      "midi": 65,
      "hit": false,
      "t": 22125,
      "d": 187.5,
      "v": 100
    },
    {
      "midi": 38,
      "hit": false,
      "t": 22125,
      "d": 187.5,
      "v": 100
    },
    {
      "midi": 31,
      "hit": false,
      "t": 22125,
      "d": 187.5,
      "v": 100
    },
    {
      "midi": 46,
      "hit": false,
      "t": 22125,
      "d": 187.5,
      "v": 100
    },
    {
      "midi": 65,
      "hit": false,
      "t": 22125,
      "d": 187.5,
      "v": 100
    },
    {
      "midi": 62,
      "hit": false,
      "t": 22125,
      "d": 187.5,
      "v": 100
    },
    {
      "midi": 58,
      "hit": false,
      "t": 22125,
      "d": 187.5,
      "v": 100
    },
    {
      "midi": 38,
      "hit": false,
      "t": 22312.5,
      "d": 187.5,
      "v": 100
    },
    {
      "midi": 31,
      "hit": false,
      "t": 22312.5,
      "d": 187.5,
      "v": 100
    },
    {
      "midi": 46,
      "hit": false,
      "t": 22312.5,
      "d": 187.5,
      "v": 100
    },
    {
      "midi": 65,
      "hit": false,
      "t": 22312.5,
      "d": 187.5,
      "v": 100
    },
    {
      "midi": 62,
      "hit": false,
      "t": 22312.5,
      "d": 187.5,
      "v": 100
    },
    {
      "midi": 58,
      "hit": false,
      "t": 22312.5,
      "d": 187.5,
      "v": 100
    },
    {
      "midi": 71,
      "hit": false,
      "t": 22500,
      "d": 562.5,
      "v": 100
    },
    {
      "midi": 83,
      "hit": false,
      "t": 22500,
      "d": 562.5,
      "v": 100
    },
    {
      "midi": 64,
      "hit": false,
      "t": 22500,
      "d": 375,
      "v": 100
    },
    {
      "midi": 45,
      "hit": false,
      "t": 22500,
      "d": 187.5,
      "v": 100
    },
    {
      "midi": 52,
      "hit": false,
      "t": 22500,
      "d": 187.5,
      "v": 100
    },
    {
      "midi": 67,
      "hit": false,
      "t": 22500,
      "d": 187.5,
      "v": 100
    },
    {
      "midi": 64,
      "hit": false,
      "t": 22500,
      "d": 187.5,
      "v": 100
    },
    {
      "midi": 60,
      "hit": false,
      "t": 22500,
      "d": 187.5,
      "v": 100
    },
    {
      "midi": 52,
      "hit": false,
      "t": 22687.5,
      "d": 187.5,
      "v": 100
    },
    {
      "midi": 45,
      "hit": false,
      "t": 22687.5,
      "d": 187.5,
      "v": 100
    },
    {
      "midi": 67,
      "hit": false,
      "t": 22687.5,
      "d": 187.5,
      "v": 100
    },
    {
      "midi": 64,
      "hit": false,
      "t": 22687.5,
      "d": 187.5,
      "v": 100
    },
    {
      "midi": 60,
      "hit": false,
      "t": 22687.5,
      "d": 187.5,
      "v": 100
    },
    {
      "midi": 57,
      "hit": false,
      "t": 22875,
      "d": 187.5,
      "v": 100
    },
    {
      "midi": 52,
      "hit": false,
      "t": 22875,
      "d": 187.5,
      "v": 100
    },
    {
      "midi": 45,
      "hit": false,
      "t": 22875,
      "d": 187.5,
      "v": 100
    },
    {
      "midi": 67,
      "hit": false,
      "t": 22875,
      "d": 187.5,
      "v": 100
    },
    {
      "midi": 64,
      "hit": false,
      "t": 22875,
      "d": 187.5,
      "v": 100
    },
    {
      "midi": 60,
      "hit": false,
      "t": 22875,
      "d": 187.5,
      "v": 100
    },
    {
      "midi": 69,
      "hit": false,
      "t": 23062.5,
      "d": 187.5,
      "v": 100
    },
    {
      "midi": 81,
      "hit": false,
      "t": 23062.5,
      "d": 187.5,
      "v": 100
    },
    {
      "midi": 52,
      "hit": false,
      "t": 23062.5,
      "d": 187.5,
      "v": 100
    },
    {
      "midi": 45,
      "hit": false,
      "t": 23062.5,
      "d": 187.5,
      "v": 100
    },
    {
      "midi": 67,
      "hit": false,
      "t": 23062.5,
      "d": 187.5,
      "v": 100
    },
    {
      "midi": 64,
      "hit": false,
      "t": 23062.5,
      "d": 187.5,
      "v": 100
    },
    {
      "midi": 60,
      "hit": false,
      "t": 23062.5,
      "d": 187.5,
      "v": 100
    },
    {
      "midi": 67,
      "hit": false,
      "t": 23250,
      "d": 187.5,
      "v": 100
    },
    {
      "midi": 79,
      "hit": false,
      "t": 23250,
      "d": 187.5,
      "v": 100
    },
    {
      "midi": 67,
      "hit": false,
      "t": 23250,
      "d": 187.5,
      "v": 100
    },
    {
      "midi": 52,
      "hit": false,
      "t": 23250,
      "d": 187.5,
      "v": 100
    },
    {
      "midi": 45,
      "hit": false,
      "t": 23250,
      "d": 187.5,
      "v": 100
    },
    {
      "midi": 67,
      "hit": false,
      "t": 23250,
      "d": 187.5,
      "v": 100
    },
    {
      "midi": 64,
      "hit": false,
      "t": 23250,
      "d": 187.5,
      "v": 100
    },
    {
      "midi": 60,
      "hit": false,
      "t": 23250,
      "d": 187.5,
      "v": 100
    },
    {
      "midi": 52,
      "hit": false,
      "t": 23437.5,
      "d": 187.5,
      "v": 100
    },
    {
      "midi": 45,
      "hit": false,
      "t": 23437.5,
      "d": 187.5,
      "v": 100
    },
    {
      "midi": 67,
      "hit": false,
      "t": 23437.5,
      "d": 187.5,
      "v": 100
    },
    {
      "midi": 64,
      "hit": false,
      "t": 23437.5,
      "d": 187.5,
      "v": 100
    },
    {
      "midi": 60,
      "hit": false,
      "t": 23437.5,
      "d": 187.5,
      "v": 100
    },
    {
      "midi": 69,
      "hit": false,
      "t": 23625,
      "d": 1125,
      "v": 100
    },
    {
      "midi": 81,
      "hit": false,
      "t": 23625,
      "d": 1125,
      "v": 100
    },
    {
      "midi": 64,
      "hit": false,
      "t": 23625,
      "d": 375,
      "v": 100
    },
    {
      "midi": 52,
      "hit": false,
      "t": 23625,
      "d": 187.5,
      "v": 100
    },
    {
      "midi": 45,
      "hit": false,
      "t": 23625,
      "d": 187.5,
      "v": 100
    },
    {
      "midi": 67,
      "hit": false,
      "t": 23625,
      "d": 187.5,
      "v": 100
    },
    {
      "midi": 64,
      "hit": false,
      "t": 23625,
      "d": 187.5,
      "v": 100
    },
    {
      "midi": 60,
      "hit": false,
      "t": 23625,
      "d": 187.5,
      "v": 100
    },
    {
      "midi": 52,
      "hit": false,
      "t": 23812.5,
      "d": 187.5,
      "v": 100
    },
    {
      "midi": 45,
      "hit": false,
      "t": 23812.5,
      "d": 187.5,
      "v": 100
    },
    {
      "midi": 67,
      "hit": false,
      "t": 23812.5,
      "d": 187.5,
      "v": 100
    },
    {
      "midi": 64,
      "hit": false,
      "t": 23812.5,
      "d": 187.5,
      "v": 100
    },
    {
      "midi": 60,
      "hit": false,
      "t": 23812.5,
      "d": 187.5,
      "v": 100
    },
    {
      "midi": 79,
      "hit": false,
      "t": 24000,
      "d": 187.5,
      "v": 100
    },
    {
      "midi": 57,
      "hit": false,
      "t": 24000,
      "d": 187.5,
      "v": 100
    },
    {
      "midi": 40,
      "hit": false,
      "t": 24000,
      "d": 187.5,
      "v": 100
    },
    {
      "midi": 52,
      "hit": false,
      "t": 24000,
      "d": 187.5,
      "v": 100
    },
    {
      "midi": 67,
      "hit": false,
      "t": 24000,
      "d": 187.5,
      "v": 100
    },
    {
      "midi": 64,
      "hit": false,
      "t": 24000,
      "d": 187.5,
      "v": 100
    },
    {
      "midi": 60,
      "hit": false,
      "t": 24000,
      "d": 187.5,
      "v": 100
    },
    {
      "midi": 74,
      "hit": false,
      "t": 24187.5,
      "d": 187.5,
      "v": 100
    },
    {
      "midi": 40,
      "hit": false,
      "t": 24187.5,
      "d": 187.5,
      "v": 100
    },
    {
      "midi": 52,
      "hit": false,
      "t": 24187.5,
      "d": 187.5,
      "v": 100
    },
    {
      "midi": 67,
      "hit": false,
      "t": 24187.5,
      "d": 187.5,
      "v": 100
    },
    {
      "midi": 64,
      "hit": false,
      "t": 24187.5,
      "d": 187.5,
      "v": 100
    },
    {
      "midi": 60,
      "hit": false,
      "t": 24187.5,
      "d": 187.5,
      "v": 100
    },
    {
      "midi": 79,
      "hit": false,
      "t": 24375,
      "d": 187.5,
      "v": 100
    },
    {
      "midi": 67,
      "hit": false,
      "t": 24375,
      "d": 187.5,
      "v": 100
    },
    {
      "midi": 33,
      "hit": false,
      "t": 24375,
      "d": 187.5,
      "v": 100
    },
    {
      "midi": 45,
      "hit": false,
      "t": 24375,
      "d": 187.5,
      "v": 100
    },
    {
      "midi": 67,
      "hit": false,
      "t": 24375,
      "d": 187.5,
      "v": 100
    },
    {
      "midi": 64,
      "hit": false,
      "t": 24375,
      "d": 187.5,
      "v": 100
    },
    {
      "midi": 60,
      "hit": false,
      "t": 24375,
      "d": 187.5,
      "v": 100
    },
    {
      "midi": 33,
      "hit": false,
      "t": 24562.5,
      "d": 187.5,
      "v": 100
    },
    {
      "midi": 45,
      "hit": false,
      "t": 24562.5,
      "d": 187.5,
      "v": 100
    },
    {
      "midi": 67,
      "hit": false,
      "t": 24562.5,
      "d": 187.5,
      "v": 100
    },
    {
      "midi": 64,
      "hit": false,
      "t": 24562.5,
      "d": 187.5,
      "v": 100
    },
    {
      "midi": 60,
      "hit": false,
      "t": 24562.5,
      "d": 187.5,
      "v": 100
    },
    {
      "midi": 65,
      "hit": false,
      "t": 24750,
      "d": 375,
      "v": 100
    },
    {
      "midi": 31,
      "hit": false,
      "t": 24750,
      "d": 187.5,
      "v": 100
    },
    {
      "midi": 43,
      "hit": false,
      "t": 24750,
      "d": 187.5,
      "v": 100
    },
    {
      "midi": 62,
      "hit": false,
      "t": 24750,
      "d": 187.5,
      "v": 100
    },
    {
      "midi": 58,
      "hit": false,
      "t": 24750,
      "d": 187.5,
      "v": 100
    },
    {
      "midi": 55,
      "hit": false,
      "t": 24750,
      "d": 187.5,
      "v": 100
    },
    {
      "midi": 43,
      "hit": false,
      "t": 24937.5,
      "d": 187.5,
      "v": 100
    },
    {
      "midi": 31,
      "hit": false,
      "t": 24937.5,
      "d": 187.5,
      "v": 100
    },
    {
      "midi": 62,
      "hit": false,
      "t": 24937.5,
      "d": 187.5,
      "v": 100
    },
    {
      "midi": 58,
      "hit": false,
      "t": 24937.5,
      "d": 187.5,
      "v": 100
    },
    {
      "midi": 55,
      "hit": false,
      "t": 24937.5,
      "d": 187.5,
      "v": 100
    },
    {
      "midi": 74,
      "hit": false,
      "t": 25125,
      "d": 375,
      "v": 100
    },
    {
      "midi": 86,
      "hit": false,
      "t": 25125,
      "d": 375,
      "v": 100
    },
    {
      "midi": 58,
      "hit": false,
      "t": 25125,
      "d": 187.5,
      "v": 100
    },
    {
      "midi": 43,
      "hit": false,
      "t": 25125,
      "d": 187.5,
      "v": 100
    },
    {
      "midi": 31,
      "hit": false,
      "t": 25125,
      "d": 187.5,
      "v": 100
    },
    {
      "midi": 62,
      "hit": false,
      "t": 25125,
      "d": 187.5,
      "v": 100
    },
    {
      "midi": 58,
      "hit": false,
      "t": 25125,
      "d": 187.5,
      "v": 100
    },
    {
      "midi": 55,
      "hit": false,
      "t": 25125,
      "d": 187.5,
      "v": 100
    },
    {
      "midi": 43,
      "hit": false,
      "t": 25312.5,
      "d": 187.5,
      "v": 100
    },
    {
      "midi": 31,
      "hit": false,
      "t": 25312.5,
      "d": 187.5,
      "v": 100
    },
    {
      "midi": 62,
      "hit": false,
      "t": 25312.5,
      "d": 187.5,
      "v": 100
    },
    {
      "midi": 58,
      "hit": false,
      "t": 25312.5,
      "d": 187.5,
      "v": 100
    },
    {
      "midi": 55,
      "hit": false,
      "t": 25312.5,
      "d": 187.5,
      "v": 100
    },
    {
      "midi": 72,
      "hit": false,
      "t": 25500,
      "d": 375,
      "v": 100
    },
    {
      "midi": 84,
      "hit": false,
      "t": 25500,
      "d": 375,
      "v": 100
    },
    {
      "midi": 62,
      "hit": false,
      "t": 25500,
      "d": 187.5,
      "v": 100
    },
    {
      "midi": 43,
      "hit": false,
      "t": 25500,
      "d": 187.5,
      "v": 100
    },
    {
      "midi": 31,
      "hit": false,
      "t": 25500,
      "d": 187.5,
      "v": 100
    },
    {
      "midi": 62,
      "hit": false,
      "t": 25500,
      "d": 187.5,
      "v": 100
    },
    {
      "midi": 58,
      "hit": false,
      "t": 25500,
      "d": 187.5,
      "v": 100
    },
    {
      "midi": 55,
      "hit": false,
      "t": 25500,
      "d": 187.5,
      "v": 100
    },
    {
      "midi": 43,
      "hit": false,
      "t": 25687.5,
      "d": 187.5,
      "v": 100
    },
    {
      "midi": 31,
      "hit": false,
      "t": 25687.5,
      "d": 187.5,
      "v": 100
    },
    {
      "midi": 62,
      "hit": false,
      "t": 25687.5,
      "d": 187.5,
      "v": 100
    },
    {
      "midi": 58,
      "hit": false,
      "t": 25687.5,
      "d": 187.5,
      "v": 100
    },
    {
      "midi": 55,
      "hit": false,
      "t": 25687.5,
      "d": 187.5,
      "v": 100
    },
    {
      "midi": 69,
      "hit": false,
      "t": 25875,
      "d": 375,
      "v": 100
    },
    {
      "midi": 81,
      "hit": false,
      "t": 25875,
      "d": 375,
      "v": 100
    },
    {
      "midi": 60,
      "hit": false,
      "t": 25875,
      "d": 375,
      "v": 100
    },
    {
      "midi": 48,
      "hit": false,
      "t": 25875,
      "d": 187.5,
      "v": 100
    },
    {
      "midi": 36,
      "hit": false,
      "t": 25875,
      "d": 187.5,
      "v": 100
    },
    {
      "midi": 67,
      "hit": false,
      "t": 25875,
      "d": 187.5,
      "v": 100
    },
    {
      "midi": 64,
      "hit": false,
      "t": 25875,
      "d": 187.5,
      "v": 100
    },
    {
      "midi": 60,
      "hit": false,
      "t": 25875,
      "d": 187.5,
      "v": 100
    },
    {
      "midi": 48,
      "hit": false,
      "t": 26062.5,
      "d": 187.5,
      "v": 100
    },
    {
      "midi": 36,
      "hit": false,
      "t": 26062.5,
      "d": 187.5,
      "v": 100
    },
    {
      "midi": 67,
      "hit": false,
      "t": 26062.5,
      "d": 187.5,
      "v": 100
    },
    {
      "midi": 64,
      "hit": false,
      "t": 26062.5,
      "d": 187.5,
      "v": 100
    },
    {
      "midi": 60,
      "hit": false,
      "t": 26062.5,
      "d": 187.5,
      "v": 100
    },
    {
      "midi": 65,
      "hit": false,
      "t": 26250,
      "d": 375,
      "v": 100
    },
    {
      "midi": 77,
      "hit": false,
      "t": 26250,
      "d": 375,
      "v": 100
    },
    {
      "midi": 64,
      "hit": false,
      "t": 26250,
      "d": 187.5,
      "v": 100
    },
    {
      "midi": 48,
      "hit": false,
      "t": 26250,
      "d": 187.5,
      "v": 100
    },
    {
      "midi": 36,
      "hit": false,
      "t": 26250,
      "d": 187.5,
      "v": 100
    },
    {
      "midi": 67,
      "hit": false,
      "t": 26250,
      "d": 187.5,
      "v": 100
    },
    {
      "midi": 64,
      "hit": false,
      "t": 26250,
      "d": 187.5,
      "v": 100
    },
    {
      "midi": 60,
      "hit": false,
      "t": 26250,
      "d": 187.5,
      "v": 100
    },
    {
      "midi": 48,
      "hit": false,
      "t": 26437.5,
      "d": 187.5,
      "v": 100
    },
    {
      "midi": 36,
      "hit": false,
      "t": 26437.5,
      "d": 187.5,
      "v": 100
    },
    {
      "midi": 67,
      "hit": false,
      "t": 26437.5,
      "d": 187.5,
      "v": 100
    },
    {
      "midi": 64,
      "hit": false,
      "t": 26437.5,
      "d": 187.5,
      "v": 100
    },
    {
      "midi": 60,
      "hit": false,
      "t": 26437.5,
      "d": 187.5,
      "v": 100
    },
    {
      "midi": 67,
      "hit": false,
      "t": 26625,
      "d": 375,
      "v": 100
    },
    {
      "midi": 79,
      "hit": false,
      "t": 26625,
      "d": 375,
      "v": 100
    },
    {
      "midi": 64,
      "hit": false,
      "t": 26625,
      "d": 187.5,
      "v": 100
    },
    {
      "midi": 48,
      "hit": false,
      "t": 26625,
      "d": 187.5,
      "v": 100
    },
    {
      "midi": 36,
      "hit": false,
      "t": 26625,
      "d": 187.5,
      "v": 100
    },
    {
      "midi": 67,
      "hit": false,
      "t": 26625,
      "d": 187.5,
      "v": 100
    },
    {
      "midi": 64,
      "hit": false,
      "t": 26625,
      "d": 187.5,
      "v": 100
    },
    {
      "midi": 60,
      "hit": false,
      "t": 26625,
      "d": 187.5,
      "v": 100
    },
    {
      "midi": 48,
      "hit": false,
      "t": 26812.5,
      "d": 187.5,
      "v": 100
    },
    {
      "midi": 36,
      "hit": false,
      "t": 26812.5,
      "d": 187.5,
      "v": 100
    },
    {
      "midi": 67,
      "hit": false,
      "t": 26812.5,
      "d": 187.5,
      "v": 100
    },
    {
      "midi": 64,
      "hit": false,
      "t": 26812.5,
      "d": 187.5,
      "v": 100
    },
    {
      "midi": 60,
      "hit": false,
      "t": 26812.5,
      "d": 187.5,
      "v": 100
    },
    {
      "midi": 69,
      "hit": false,
      "t": 27000,
      "d": 750,
      "v": 100
    },
    {
      "midi": 81,
      "hit": false,
      "t": 27000,
      "d": 750,
      "v": 100
    },
    {
      "midi": 62,
      "hit": false,
      "t": 27000,
      "d": 375,
      "v": 100
    },
    {
      "midi": 40,
      "hit": false,
      "t": 27000,
      "d": 187.5,
      "v": 100
    },
    {
      "midi": 28,
      "hit": false,
      "t": 27000,
      "d": 187.5,
      "v": 100
    },
    {
      "midi": 64,
      "hit": false,
      "t": 27000,
      "d": 187.5,
      "v": 100
    },
    {
      "midi": 62,
      "hit": false,
      "t": 27000,
      "d": 187.5,
      "v": 100
    },
    {
      "midi": 57,
      "hit": false,
      "t": 27000,
      "d": 187.5,
      "v": 100
    },
    {
      "midi": 40,
      "hit": false,
      "t": 27187.5,
      "d": 187.5,
      "v": 100
    },
    {
      "midi": 28,
      "hit": false,
      "t": 27187.5,
      "d": 187.5,
      "v": 100
    },
    {
      "midi": 64,
      "hit": false,
      "t": 27187.5,
      "d": 187.5,
      "v": 100
    },
    {
      "midi": 62,
      "hit": false,
      "t": 27187.5,
      "d": 187.5,
      "v": 100
    },
    {
      "midi": 57,
      "hit": false,
      "t": 27187.5,
      "d": 187.5,
      "v": 100
    },
    {
      "midi": 66,
      "hit": false,
      "t": 27375,
      "d": 187.5,
      "v": 100
    },
    {
      "midi": 40,
      "hit": false,
      "t": 27375,
      "d": 187.5,
      "v": 100
    },
    {
      "midi": 28,
      "hit": false,
      "t": 27375,
      "d": 187.5,
      "v": 100
    },
    {
      "midi": 64,
      "hit": false,
      "t": 27375,
      "d": 187.5,
      "v": 100
    },
    {
      "midi": 62,
      "hit": false,
      "t": 27375,
      "d": 187.5,
      "v": 100
    },
    {
      "midi": 57,
      "hit": false,
      "t": 27375,
      "d": 187.5,
      "v": 100
    },
    {
      "midi": 40,
      "hit": false,
      "t": 27562.5,
      "d": 187.5,
      "v": 100
    },
    {
      "midi": 28,
      "hit": false,
      "t": 27562.5,
      "d": 187.5,
      "v": 100
    },
    {
      "midi": 64,
      "hit": false,
      "t": 27562.5,
      "d": 187.5,
      "v": 100
    },
    {
      "midi": 62,
      "hit": false,
      "t": 27562.5,
      "d": 187.5,
      "v": 100
    },
    {
      "midi": 57,
      "hit": false,
      "t": 27562.5,
      "d": 187.5,
      "v": 100
    },
    {
      "midi": 66,
      "hit": false,
      "t": 27750,
      "d": 187.5,
      "v": 100
    },
    {
      "midi": 42,
      "hit": false,
      "t": 27750,
      "d": 187.5,
      "v": 100
    },
    {
      "midi": 30,
      "hit": false,
      "t": 27750,
      "d": 187.5,
      "v": 100
    },
    {
      "midi": 64,
      "hit": false,
      "t": 27750,
      "d": 187.5,
      "v": 100
    },
    {
      "midi": 62,
      "hit": false,
      "t": 27750,
      "d": 187.5,
      "v": 100
    },
    {
      "midi": 57,
      "hit": false,
      "t": 27750,
      "d": 187.5,
      "v": 100
    },
    {
      "midi": 42,
      "hit": false,
      "t": 27937.5,
      "d": 187.5,
      "v": 100
    },
    {
      "midi": 30,
      "hit": false,
      "t": 27937.5,
      "d": 187.5,
      "v": 100
    },
    {
      "midi": 64,
      "hit": false,
      "t": 27937.5,
      "d": 187.5,
      "v": 100
    },
    {
      "midi": 62,
      "hit": false,
      "t": 27937.5,
      "d": 187.5,
      "v": 100
    },
    {
      "midi": 57,
      "hit": false,
      "t": 27937.5,
      "d": 187.5,
      "v": 100
    },
    {
      "midi": 62,
      "hit": false,
      "t": 28125,
      "d": 375,
      "v": 100
    },
    {
      "midi": 43,
      "hit": false,
      "t": 28125,
      "d": 187.5,
      "v": 100
    },
    {
      "midi": 31,
      "hit": false,
      "t": 28125,
      "d": 187.5,
      "v": 100
    },
    {
      "midi": 64,
      "hit": false,
      "t": 28125,
      "d": 187.5,
      "v": 100
    },
    {
      "midi": 62,
      "hit": false,
      "t": 28125,
      "d": 187.5,
      "v": 100
    },
    {
      "midi": 57,
      "hit": false,
      "t": 28125,
      "d": 187.5,
      "v": 100
    },
    {
      "midi": 43,
      "hit": false,
      "t": 28312.5,
      "d": 187.5,
      "v": 100
    },
    {
      "midi": 31,
      "hit": false,
      "t": 28312.5,
      "d": 187.5,
      "v": 100
    },
    {
      "midi": 64,
      "hit": false,
      "t": 28312.5,
      "d": 187.5,
      "v": 100
    },
    {
      "midi": 62,
      "hit": false,
      "t": 28312.5,
      "d": 187.5,
      "v": 100
    },
    {
      "midi": 57,
      "hit": false,
      "t": 28312.5,
      "d": 187.5,
      "v": 100
    },
    {
      "midi": 74,
      "hit": false,
      "t": 28500,
      "d": 375,
      "v": 100
    },
    {
      "midi": 86,
      "hit": false,
      "t": 28500,
      "d": 375,
      "v": 100
    },
    {
      "midi": 66,
      "hit": false,
      "t": 28500,
      "d": 187.5,
      "v": 100
    },
    {
      "midi": 43,
      "hit": false,
      "t": 28500,
      "d": 187.5,
      "v": 100
    },
    {
      "midi": 31,
      "hit": false,
      "t": 28500,
      "d": 187.5,
      "v": 100
    },
    {
      "midi": 64,
      "hit": false,
      "t": 28500,
      "d": 187.5,
      "v": 100
    },
    {
      "midi": 62,
      "hit": false,
      "t": 28500,
      "d": 187.5,
      "v": 100
    },
    {
      "midi": 57,
      "hit": false,
      "t": 28500,
      "d": 187.5,
      "v": 100
    },
    {
      "midi": 43,
      "hit": false,
      "t": 28687.5,
      "d": 187.5,
      "v": 100
    },
    {
      "midi": 31,
      "hit": false,
      "t": 28687.5,
      "d": 187.5,
      "v": 100
    },
    {
      "midi": 64,
      "hit": false,
      "t": 28687.5,
      "d": 187.5,
      "v": 100
    },
    {
      "midi": 62,
      "hit": false,
      "t": 28687.5,
      "d": 187.5,
      "v": 100
    },
    {
      "midi": 57,
      "hit": false,
      "t": 28687.5,
      "d": 187.5,
      "v": 100
    },
    {
      "midi": 73,
      "hit": false,
      "t": 28875,
      "d": 750,
      "v": 100
    },
    {
      "midi": 85,
      "hit": false,
      "t": 28875,
      "d": 750,
      "v": 100
    },
    {
      "midi": 66,
      "hit": false,
      "t": 28875,
      "d": 187.5,
      "v": 100
    },
    {
      "midi": 43,
      "hit": false,
      "t": 28875,
      "d": 187.5,
      "v": 100
    },
    {
      "midi": 31,
      "hit": false,
      "t": 28875,
      "d": 187.5,
      "v": 100
    },
    {
      "midi": 64,
      "hit": false,
      "t": 28875,
      "d": 187.5,
      "v": 100
    },
    {
      "midi": 62,
      "hit": false,
      "t": 28875,
      "d": 187.5,
      "v": 100
    },
    {
      "midi": 57,
      "hit": false,
      "t": 28875,
      "d": 187.5,
      "v": 100
    },
    {
      "midi": 43,
      "hit": false,
      "t": 29062.5,
      "d": 187.5,
      "v": 100
    },
    {
      "midi": 31,
      "hit": false,
      "t": 29062.5,
      "d": 187.5,
      "v": 100
    },
    {
      "midi": 64,
      "hit": false,
      "t": 29062.5,
      "d": 187.5,
      "v": 100
    },
    {
      "midi": 62,
      "hit": false,
      "t": 29062.5,
      "d": 187.5,
      "v": 100
    },
    {
      "midi": 57,
      "hit": false,
      "t": 29062.5,
      "d": 187.5,
      "v": 100
    },
    {
      "midi": 74,
      "hit": false,
      "t": 29250,
      "d": 375,
      "v": 100
    },
    {
      "midi": 62,
      "hit": false,
      "t": 29250,
      "d": 375,
      "v": 100
    },
    {
      "midi": 45,
      "hit": false,
      "t": 29250,
      "d": 187.5,
      "v": 100
    },
    {
      "midi": 33,
      "hit": false,
      "t": 29250,
      "d": 187.5,
      "v": 100
    },
    {
      "midi": 62,
      "hit": false,
      "t": 29250,
      "d": 187.5,
      "v": 100
    },
    {
      "midi": 74,
      "hit": false,
      "t": 29250,
      "d": 1125,
      "v": 100
    },
    {
      "midi": 50,
      "hit": false,
      "t": 29250,
      "d": 1125,
      "v": 100
    },
    {
      "midi": 64,
      "hit": false,
      "t": 29250,
      "d": 375,
      "v": 100
    },
    {
      "midi": 62,
      "hit": false,
      "t": 29250,
      "d": 375,
      "v": 100
    },
    {
      "midi": 55,
      "hit": false,
      "t": 29250,
      "d": 375,
      "v": 100
    },
    {
      "midi": 45,
      "hit": false,
      "t": 29437.5,
      "d": 187.5,
      "v": 100
    },
    {
      "midi": 33,
      "hit": false,
      "t": 29437.5,
      "d": 187.5,
      "v": 100
    },
    {
      "midi": 69,
      "hit": false,
      "t": 29625,
      "d": 3750,
      "v": 100
    },
    {
      "midi": 81,
      "hit": false,
      "t": 29625,
      "d": 3750,
      "v": 100
    },
    {
      "midi": 74,
      "hit": false,
      "t": 29625,
      "d": 187.5,
      "v": 100
    },
    {
      "midi": 64,
      "hit": false,
      "t": 29625,
      "d": 187.5,
      "v": 100
    },
    {
      "midi": 45,
      "hit": false,
      "t": 29625,
      "d": 187.5,
      "v": 100
    },
    {
      "midi": 33,
      "hit": false,
      "t": 29625,
      "d": 187.5,
      "v": 100
    },
    {
      "midi": 54,
      "hit": false,
      "t": 29625,
      "d": 375,
      "v": 100
    },
    {
      "midi": 45,
      "hit": false,
      "t": 29812.5,
      "d": 187.5,
      "v": 100
    },
    {
      "midi": 33,
      "hit": false,
      "t": 29812.5,
      "d": 187.5,
      "v": 100
    },
    {
      "midi": 62,
      "hit": false,
      "t": 29812.5,
      "d": 187.5,
      "v": 100
    },
    {
      "midi": 64,
      "hit": false,
      "t": 29812.5,
      "d": 187.5,
      "v": 100
    },
    {
      "midi": 55,
      "hit": false,
      "t": 29812.5,
      "d": 187.5,
      "v": 100
    },
    {
      "midi": 76,
      "hit": false,
      "t": 30000,
      "d": 187.5,
      "v": 100
    },
    {
      "midi": 64,
      "hit": false,
      "t": 30000,
      "d": 187.5,
      "v": 100
    },
    {
      "midi": 45,
      "hit": false,
      "t": 30000,
      "d": 187.5,
      "v": 100
    },
    {
      "midi": 33,
      "hit": false,
      "t": 30000,
      "d": 187.5,
      "v": 100
    },
    {
      "midi": 62,
      "hit": false,
      "t": 30000,
      "d": 187.5,
      "v": 100
    },
    {
      "midi": 64,
      "hit": false,
      "t": 30000,
      "d": 187.5,
      "v": 100
    },
    {
      "midi": 55,
      "hit": false,
      "t": 30000,
      "d": 187.5,
      "v": 100
    },
    {
      "midi": 45,
      "hit": false,
      "t": 30187.5,
      "d": 187.5,
      "v": 100
    },
    {
      "midi": 33,
      "hit": false,
      "t": 30187.5,
      "d": 187.5,
      "v": 100
    },
    {
      "midi": 62,
      "hit": false,
      "t": 30187.5,
      "d": 187.5,
      "v": 100
    },
    {
      "midi": 64,
      "hit": false,
      "t": 30187.5,
      "d": 187.5,
      "v": 100
    },
    {
      "midi": 55,
      "hit": false,
      "t": 30187.5,
      "d": 187.5,
      "v": 100
    },
    {
      "midi": 78,
      "hit": false,
      "t": 30375,
      "d": 375,
      "v": 100
    },
    {
      "midi": 66,
      "hit": false,
      "t": 30375,
      "d": 375,
      "v": 100
    },
    {
      "midi": 45,
      "hit": false,
      "t": 30375,
      "d": 187.5,
      "v": 100
    },
    {
      "midi": 33,
      "hit": false,
      "t": 30375,
      "d": 187.5,
      "v": 100
    },
    {
      "midi": 64,
      "hit": false,
      "t": 30375,
      "d": 375,
      "v": 100
    },
    {
      "midi": 62,
      "hit": false,
      "t": 30375,
      "d": 375,
      "v": 100
    },
    {
      "midi": 55,
      "hit": false,
      "t": 30375,
      "d": 375,
      "v": 100
    },
    {
      "midi": 45,
      "hit": false,
      "t": 30562.5,
      "d": 187.5,
      "v": 100
    },
    {
      "midi": 33,
      "hit": false,
      "t": 30562.5,
      "d": 187.5,
      "v": 100
    },
    {
      "midi": 79,
      "hit": false,
      "t": 30750,
      "d": 187.5,
      "v": 100
    },
    {
      "midi": 67,
      "hit": false,
      "t": 30750,
      "d": 187.5,
      "v": 100
    },
    {
      "midi": 45,
      "hit": false,
      "t": 30750,
      "d": 187.5,
      "v": 100
    },
    {
      "midi": 33,
      "hit": false,
      "t": 30750,
      "d": 187.5,
      "v": 100
    },
    {
      "midi": 54,
      "hit": false,
      "t": 30750,
      "d": 375,
      "v": 100
    },
    {
      "midi": 64,
      "hit": false,
      "t": 30750,
      "d": 187.5,
      "v": 100
    },
    {
      "midi": 55,
      "hit": false,
      "t": 30750,
      "d": 187.5,
      "v": 100
    },
    {
      "midi": 62,
      "hit": false,
      "t": 30750,
      "d": 187.5,
      "v": 100
    },
    {
      "midi": 45,
      "hit": false,
      "t": 30937.5,
      "d": 187.5,
      "v": 100
    },
    {
      "midi": 33,
      "hit": false,
      "t": 30937.5,
      "d": 187.5,
      "v": 100
    },
    {
      "midi": 64,
      "hit": false,
      "t": 30937.5,
      "d": 187.5,
      "v": 100
    },
    {
      "midi": 55,
      "hit": false,
      "t": 30937.5,
      "d": 187.5,
      "v": 100
    },
    {
      "midi": 62,
      "hit": false,
      "t": 30937.5,
      "d": 187.5,
      "v": 100
    },
    {
      "midi": 76,
      "hit": false,
      "t": 31125,
      "d": 187.5,
      "v": 100
    },
    {
      "midi": 64,
      "hit": false,
      "t": 31125,
      "d": 187.5,
      "v": 100
    },
    {
      "midi": 40,
      "hit": false,
      "t": 31125,
      "d": 187.5,
      "v": 100
    },
    {
      "midi": 28,
      "hit": false,
      "t": 31125,
      "d": 187.5,
      "v": 100
    },
    {
      "midi": 54,
      "hit": false,
      "t": 31125,
      "d": 375,
      "v": 100
    },
    {
      "midi": 64,
      "hit": false,
      "t": 31125,
      "d": 375,
      "v": 100
    },
    {
      "midi": 62,
      "hit": false,
      "t": 31125,
      "d": 375,
      "v": 100
    },
    {
      "midi": 55,
      "hit": false,
      "t": 31125,
      "d": 375,
      "v": 100
    },
    {
      "midi": 40,
      "hit": false,
      "t": 31312.5,
      "d": 187.5,
      "v": 100
    },
    {
      "midi": 28,
      "hit": false,
      "t": 31312.5,
      "d": 187.5,
      "v": 100
    },
    {
      "midi": 74,
      "hit": false,
      "t": 31500,
      "d": 375,
      "v": 100
    },
    {
      "midi": 86,
      "hit": false,
      "t": 31500,
      "d": 375,
      "v": 100
    },
    {
      "midi": 62,
      "hit": false,
      "t": 31500,
      "d": 375,
      "v": 100
    },
    {
      "midi": 45,
      "hit": false,
      "t": 31500,
      "d": 187.5,
      "v": 100
    },
    {
      "midi": 33,
      "hit": false,
      "t": 31500,
      "d": 187.5,
      "v": 100
    },
    {
      "midi": 64,
      "hit": false,
      "t": 31500,
      "d": 187.5,
      "v": 100
    },
    {
      "midi": 57,
      "hit": false,
      "t": 31500,
      "d": 187.5,
      "v": 100
    },
    {
      "midi": 62,
      "hit": false,
      "t": 31500,
      "d": 187.5,
      "v": 100
    },
    {
      "midi": 45,
      "hit": false,
      "t": 31687.5,
      "d": 187.5,
      "v": 100
    },
    {
      "midi": 33,
      "hit": false,
      "t": 31687.5,
      "d": 187.5,
      "v": 100
    },
    {
      "midi": 64,
      "hit": false,
      "t": 31687.5,
      "d": 187.5,
      "v": 100
    },
    {
      "midi": 57,
      "hit": false,
      "t": 31687.5,
      "d": 187.5,
      "v": 100
    },
    {
      "midi": 62,
      "hit": false,
      "t": 31687.5,
      "d": 187.5,
      "v": 100
    },
    {
      "midi": 76,
      "hit": false,
      "t": 31875,
      "d": 187.5,
      "v": 100
    },
    {
      "midi": 88,
      "hit": false,
      "t": 31875,
      "d": 187.5,
      "v": 100
    },
    {
      "midi": 64,
      "hit": false,
      "t": 31875,
      "d": 187.5,
      "v": 100
    },
    {
      "midi": 45,
      "hit": false,
      "t": 31875,
      "d": 187.5,
      "v": 100
    },
    {
      "midi": 33,
      "hit": false,
      "t": 31875,
      "d": 187.5,
      "v": 100
    },
    {
      "midi": 54,
      "hit": false,
      "t": 31875,
      "d": 375,
      "v": 100
    },
    {
      "midi": 45,
      "hit": false,
      "t": 32062.5,
      "d": 187.5,
      "v": 100
    },
    {
      "midi": 33,
      "hit": false,
      "t": 32062.5,
      "d": 187.5,
      "v": 100
    },
    {
      "midi": 64,
      "hit": false,
      "t": 32062.5,
      "d": 187.5,
      "v": 100
    },
    {
      "midi": 62,
      "hit": false,
      "t": 32062.5,
      "d": 187.5,
      "v": 100
    },
    {
      "midi": 57,
      "hit": false,
      "t": 32062.5,
      "d": 187.5,
      "v": 100
    },
    {
      "midi": 76,
      "hit": false,
      "t": 32250,
      "d": 187.5,
      "v": 100
    },
    {
      "midi": 88,
      "hit": false,
      "t": 32250,
      "d": 187.5,
      "v": 100
    },
    {
      "midi": 64,
      "hit": false,
      "t": 32250,
      "d": 187.5,
      "v": 100
    },
    {
      "midi": 45,
      "hit": false,
      "t": 32250,
      "d": 187.5,
      "v": 100
    },
    {
      "midi": 33,
      "hit": false,
      "t": 32250,
      "d": 187.5,
      "v": 100
    },
    {
      "midi": 64,
      "hit": false,
      "t": 32250,
      "d": 187.5,
      "v": 100
    },
    {
      "midi": 62,
      "hit": false,
      "t": 32250,
      "d": 187.5,
      "v": 100
    },
    {
      "midi": 57,
      "hit": false,
      "t": 32250,
      "d": 187.5,
      "v": 100
    },
    {
      "midi": 45,
      "hit": false,
      "t": 32437.5,
      "d": 187.5,
      "v": 100
    },
    {
      "midi": 33,
      "hit": false,
      "t": 32437.5,
      "d": 187.5,
      "v": 100
    },
    {
      "midi": 64,
      "hit": false,
      "t": 32437.5,
      "d": 187.5,
      "v": 100
    },
    {
      "midi": 62,
      "hit": false,
      "t": 32437.5,
      "d": 187.5,
      "v": 100
    },
    {
      "midi": 57,
      "hit": false,
      "t": 32437.5,
      "d": 187.5,
      "v": 100
    },
    {
      "midi": 78,
      "hit": false,
      "t": 32625,
      "d": 375,
      "v": 100
    },
    {
      "midi": 90,
      "hit": false,
      "t": 32625,
      "d": 375,
      "v": 100
    },
    {
      "midi": 66,
      "hit": false,
      "t": 32625,
      "d": 375,
      "v": 100
    },
    {
      "midi": 45,
      "hit": false,
      "t": 32625,
      "d": 187.5,
      "v": 100
    },
    {
      "midi": 33,
      "hit": false,
      "t": 32625,
      "d": 187.5,
      "v": 100
    },
    {
      "midi": 64,
      "hit": false,
      "t": 32625,
      "d": 375,
      "v": 100
    },
    {
      "midi": 62,
      "hit": false,
      "t": 32625,
      "d": 375,
      "v": 100
    },
    {
      "midi": 57,
      "hit": false,
      "t": 32625,
      "d": 375,
      "v": 100
    },
    {
      "midi": 45,
      "hit": false,
      "t": 32812.5,
      "d": 187.5,
      "v": 100
    },
    {
      "midi": 33,
      "hit": false,
      "t": 32812.5,
      "d": 187.5,
      "v": 100
    },
    {
      "midi": 79,
      "hit": false,
      "t": 33000,
      "d": 187.5,
      "v": 100
    },
    {
      "midi": 91,
      "hit": false,
      "t": 33000,
      "d": 187.5,
      "v": 100
    },
    {
      "midi": 67,
      "hit": false,
      "t": 33000,
      "d": 187.5,
      "v": 100
    },
    {
      "midi": 45,
      "hit": false,
      "t": 33000,
      "d": 187.5,
      "v": 100
    },
    {
      "midi": 33,
      "hit": false,
      "t": 33000,
      "d": 187.5,
      "v": 100
    },
    {
      "midi": 54,
      "hit": false,
      "t": 33000,
      "d": 375,
      "v": 100
    },
    {
      "midi": 64,
      "hit": false,
      "t": 33000,
      "d": 187.5,
      "v": 100
    },
    {
      "midi": 57,
      "hit": false,
      "t": 33000,
      "d": 187.5,
      "v": 100
    },
    {
      "midi": 62,
      "hit": false,
      "t": 33000,
      "d": 187.5,
      "v": 100
    },
    {
      "midi": 45,
      "hit": false,
      "t": 33187.5,
      "d": 187.5,
      "v": 100
    },
    {
      "midi": 33,
      "hit": false,
      "t": 33187.5,
      "d": 187.5,
      "v": 100
    },
    {
      "midi": 64,
      "hit": false,
      "t": 33187.5,
      "d": 187.5,
      "v": 100
    },
    {
      "midi": 57,
      "hit": false,
      "t": 33187.5,
      "d": 187.5,
      "v": 100
    },
    {
      "midi": 62,
      "hit": false,
      "t": 33187.5,
      "d": 187.5,
      "v": 100
    },
    {
      "midi": 76,
      "hit": false,
      "t": 33375,
      "d": 187.5,
      "v": 100
    },
    {
      "midi": 88,
      "hit": false,
      "t": 33375,
      "d": 187.5,
      "v": 100
    },
    {
      "midi": 64,
      "hit": false,
      "t": 33375,
      "d": 187.5,
      "v": 100
    },
    {
      "midi": 45,
      "hit": false,
      "t": 33375,
      "d": 187.5,
      "v": 100
    },
    {
      "midi": 33,
      "hit": false,
      "t": 33375,
      "d": 187.5,
      "v": 100
    },
    {
      "midi": 54,
      "hit": false,
      "t": 33375,
      "d": 375,
      "v": 100
    },
    {
      "midi": 64,
      "hit": false,
      "t": 33375,
      "d": 187.5,
      "v": 100
    },
    {
      "midi": 57,
      "hit": false,
      "t": 33375,
      "d": 187.5,
      "v": 100
    },
    {
      "midi": 62,
      "hit": false,
      "t": 33375,
      "d": 187.5,
      "v": 100
    },
    {
      "midi": 45,
      "hit": false,
      "t": 33562.5,
      "d": 187.5,
      "v": 100
    },
    {
      "midi": 33,
      "hit": false,
      "t": 33562.5,
      "d": 187.5,
      "v": 100
    },
    {
      "midi": 64,
      "hit": false,
      "t": 33562.5,
      "d": 187.5,
      "v": 100
    },
    {
      "midi": 57,
      "hit": false,
      "t": 33562.5,
      "d": 187.5,
      "v": 100
    },
    {
      "midi": 62,
      "hit": false,
      "t": 33562.5,
      "d": 187.5,
      "v": 100
    },
    {
      "midi": 69,
      "hit": false,
      "t": 33750,
      "d": 187.5,
      "v": 100
    },
    {
      "midi": 66,
      "hit": false,
      "t": 33750,
      "d": 187.5,
      "v": 100
    },
    {
      "midi": 81,
      "hit": false,
      "t": 33750,
      "d": 187.5,
      "v": 100
    },
    {
      "midi": 62,
      "hit": false,
      "t": 33750,
      "d": 375,
      "v": 100
    },
    {
      "midi": 38,
      "hit": false,
      "t": 33750,
      "d": 187.5,
      "v": 100
    },
    {
      "midi": 26,
      "hit": false,
      "t": 33750,
      "d": 187.5,
      "v": 100
    },
    {
      "midi": 62,
      "hit": false,
      "t": 33750,
      "d": 187.5,
      "v": 100
    },
    {
      "midi": 74,
      "hit": false,
      "t": 33750,
      "d": 1125,
      "v": 100
    },
    {
      "midi": 50,
      "hit": false,
      "t": 33750,
      "d": 1125,
      "v": 100
    },
    {
      "midi": 66,
      "hit": false,
      "t": 33750,
      "d": 3375,
      "v": 100
    },
    {
      "midi": 62,
      "hit": false,
      "t": 33750,
      "d": 4125,
      "v": 100
    },
    {
      "midi": 66,
      "hit": false,
      "t": 33750,
      "d": 375,
      "v": 100
    },
    {
      "midi": 62,
      "hit": false,
      "t": 33750,
      "d": 375,
      "v": 100
    },
    {
      "midi": 57,
      "hit": false,
      "t": 33750,
      "d": 375,
      "v": 100
    },
    {
      "midi": 38,
      "hit": false,
      "t": 33937.5,
      "d": 187.5,
      "v": 100
    },
    {
      "midi": 26,
      "hit": false,
      "t": 33937.5,
      "d": 187.5,
      "v": 100
    },
    {
      "midi": 69,
      "hit": false,
      "t": 34125,
      "d": 187.5,
      "v": 100
    },
    {
      "midi": 66,
      "hit": false,
      "t": 34125,
      "d": 187.5,
      "v": 100
    },
    {
      "midi": 81,
      "hit": false,
      "t": 34125,
      "d": 187.5,
      "v": 100
    },
    {
      "midi": 78,
      "hit": false,
      "t": 34125,
      "d": 187.5,
      "v": 100
    },
    {
      "midi": 57,
      "hit": false,
      "t": 34125,
      "d": 187.5,
      "v": 100
    },
    {
      "midi": 38,
      "hit": false,
      "t": 34125,
      "d": 187.5,
      "v": 100
    },
    {
      "midi": 26,
      "hit": false,
      "t": 34125,
      "d": 187.5,
      "v": 100
    },
    {
      "midi": 54,
      "hit": false,
      "t": 34125,
      "d": 375,
      "v": 100
    },
    {
      "midi": 66,
      "hit": false,
      "t": 34125,
      "d": 187.5,
      "v": 100
    },
    {
      "midi": 62,
      "hit": false,
      "t": 34125,
      "d": 187.5,
      "v": 100
    },
    {
      "midi": 57,
      "hit": false,
      "t": 34125,
      "d": 187.5,
      "v": 100
    },
    {
      "midi": 79,
      "hit": false,
      "t": 34312.5,
      "d": 187.5,
      "v": 100
    },
    {
      "midi": 38,
      "hit": false,
      "t": 34312.5,
      "d": 187.5,
      "v": 100
    },
    {
      "midi": 26,
      "hit": false,
      "t": 34312.5,
      "d": 187.5,
      "v": 100
    },
    {
      "midi": 66,
      "hit": false,
      "t": 34312.5,
      "d": 187.5,
      "v": 100
    },
    {
      "midi": 62,
      "hit": false,
      "t": 34312.5,
      "d": 187.5,
      "v": 100
    },
    {
      "midi": 57,
      "hit": false,
      "t": 34312.5,
      "d": 187.5,
      "v": 100
    },
    {
      "midi": 69,
      "hit": false,
      "t": 34500,
      "d": 187.5,
      "v": 100
    },
    {
      "midi": 66,
      "hit": false,
      "t": 34500,
      "d": 187.5,
      "v": 100
    },
    {
      "midi": 81,
      "hit": false,
      "t": 34500,
      "d": 187.5,
      "v": 100
    },
    {
      "midi": 81,
      "hit": false,
      "t": 34500,
      "d": 187.5,
      "v": 100
    },
    {
      "midi": 64,
      "hit": false,
      "t": 34500,
      "d": 187.5,
      "v": 100
    },
    {
      "midi": 42,
      "hit": false,
      "t": 34500,
      "d": 187.5,
      "v": 100
    },
    {
      "midi": 30,
      "hit": false,
      "t": 34500,
      "d": 187.5,
      "v": 100
    },
    {
      "midi": 66,
      "hit": false,
      "t": 34500,
      "d": 187.5,
      "v": 100
    },
    {
      "midi": 62,
      "hit": false,
      "t": 34500,
      "d": 187.5,
      "v": 100
    },
    {
      "midi": 57,
      "hit": false,
      "t": 34500,
      "d": 187.5,
      "v": 100
    },
    {
      "midi": 42,
      "hit": false,
      "t": 34687.5,
      "d": 187.5,
      "v": 100
    },
    {
      "midi": 30,
      "hit": false,
      "t": 34687.5,
      "d": 187.5,
      "v": 100
    },
    {
      "midi": 66,
      "hit": false,
      "t": 34687.5,
      "d": 187.5,
      "v": 100
    },
    {
      "midi": 62,
      "hit": false,
      "t": 34687.5,
      "d": 187.5,
      "v": 100
    },
    {
      "midi": 57,
      "hit": false,
      "t": 34687.5,
      "d": 187.5,
      "v": 100
    },
    {
      "midi": 69,
      "hit": false,
      "t": 34875,
      "d": 187.5,
      "v": 100
    },
    {
      "midi": 66,
      "hit": false,
      "t": 34875,
      "d": 187.5,
      "v": 100
    },
    {
      "midi": 81,
      "hit": false,
      "t": 34875,
      "d": 187.5,
      "v": 100
    },
    {
      "midi": 62,
      "hit": false,
      "t": 34875,
      "d": 375,
      "v": 100
    },
    {
      "midi": 47,
      "hit": false,
      "t": 34875,
      "d": 187.5,
      "v": 100
    },
    {
      "midi": 35,
      "hit": false,
      "t": 34875,
      "d": 187.5,
      "v": 100
    },
    {
      "midi": 66,
      "hit": false,
      "t": 34875,
      "d": 375,
      "v": 100
    },
    {
      "midi": 62,
      "hit": false,
      "t": 34875,
      "d": 375,
      "v": 100
    },
    {
      "midi": 57,
      "hit": false,
      "t": 34875,
      "d": 375,
      "v": 100
    },
    {
      "midi": 47,
      "hit": false,
      "t": 35062.5,
      "d": 187.5,
      "v": 100
    },
    {
      "midi": 35,
      "hit": false,
      "t": 35062.5,
      "d": 187.5,
      "v": 100
    },
    {
      "midi": 69,
      "hit": false,
      "t": 35250,
      "d": 187.5,
      "v": 100
    },
    {
      "midi": 66,
      "hit": false,
      "t": 35250,
      "d": 187.5,
      "v": 100
    },
    {
      "midi": 81,
      "hit": false,
      "t": 35250,
      "d": 187.5,
      "v": 100
    },
    {
      "midi": 57,
      "hit": false,
      "t": 35250,
      "d": 187.5,
      "v": 100
    },
    {
      "midi": 47,
      "hit": false,
      "t": 35250,
      "d": 187.5,
      "v": 100
    },
    {
      "midi": 35,
      "hit": false,
      "t": 35250,
      "d": 187.5,
      "v": 100
    },
    {
      "midi": 54,
      "hit": false,
      "t": 35250,
      "d": 375,
      "v": 100
    },
    {
      "midi": 66,
      "hit": false,
      "t": 35250,
      "d": 187.5,
      "v": 100
    },
    {
      "midi": 62,
      "hit": false,
      "t": 35250,
      "d": 187.5,
      "v": 100
    },
    {
      "midi": 57,
      "hit": false,
      "t": 35250,
      "d": 187.5,
      "v": 100
    },
    {
      "midi": 47,
      "hit": false,
      "t": 35437.5,
      "d": 187.5,
      "v": 100
    },
    {
      "midi": 35,
      "hit": false,
      "t": 35437.5,
      "d": 187.5,
      "v": 100
    },
    {
      "midi": 66,
      "hit": false,
      "t": 35437.5,
      "d": 187.5,
      "v": 100
    },
    {
      "midi": 62,
      "hit": false,
      "t": 35437.5,
      "d": 187.5,
      "v": 100
    },
    {
      "midi": 57,
      "hit": false,
      "t": 35437.5,
      "d": 187.5,
      "v": 100
    },
    {
      "midi": 69,
      "hit": false,
      "t": 35625,
      "d": 187.5,
      "v": 100
    },
    {
      "midi": 66,
      "hit": false,
      "t": 35625,
      "d": 187.5,
      "v": 100
    },
    {
      "midi": 81,
      "hit": false,
      "t": 35625,
      "d": 187.5,
      "v": 100
    },
    {
      "midi": 64,
      "hit": false,
      "t": 35625,
      "d": 187.5,
      "v": 100
    },
    {
      "midi": 45,
      "hit": false,
      "t": 35625,
      "d": 187.5,
      "v": 100
    },
    {
      "midi": 33,
      "hit": false,
      "t": 35625,
      "d": 187.5,
      "v": 100
    },
    {
      "midi": 54,
      "hit": false,
      "t": 35625,
      "d": 375,
      "v": 100
    },
    {
      "midi": 66,
      "hit": false,
      "t": 35625,
      "d": 187.5,
      "v": 100
    },
    {
      "midi": 62,
      "hit": false,
      "t": 35625,
      "d": 187.5,
      "v": 100
    },
    {
      "midi": 57,
      "hit": false,
      "t": 35625,
      "d": 187.5,
      "v": 100
    },
    {
      "midi": 45,
      "hit": false,
      "t": 35812.5,
      "d": 187.5,
      "v": 100
    },
    {
      "midi": 33,
      "hit": false,
      "t": 35812.5,
      "d": 187.5,
      "v": 100
    },
    {
      "midi": 66,
      "hit": false,
      "t": 35812.5,
      "d": 187.5,
      "v": 100
    },
    {
      "midi": 62,
      "hit": false,
      "t": 35812.5,
      "d": 187.5,
      "v": 100
    },
    {
      "midi": 57,
      "hit": false,
      "t": 35812.5,
      "d": 187.5,
      "v": 100
    },
    {
      "midi": 69,
      "hit": false,
      "t": 36000,
      "d": 750,
      "v": 100
    },
    {
      "midi": 66,
      "hit": false,
      "t": 36000,
      "d": 750,
      "v": 100
    },
    {
      "midi": 81,
      "hit": false,
      "t": 36000,
      "d": 750,
      "v": 100
    },
    {
      "midi": 62,
      "hit": false,
      "t": 36000,
      "d": 375,
      "v": 100
    },
    {
      "midi": 43,
      "hit": false,
      "t": 36000,
      "d": 187.5,
      "v": 100
    },
    {
      "midi": 31,
      "hit": false,
      "t": 36000,
      "d": 187.5,
      "v": 100
    },
    {
      "midi": 59,
      "hit": false,
      "t": 36000,
      "d": 375,
      "v": 100
    },
    {
      "midi": 66,
      "hit": false,
      "t": 36000,
      "d": 375,
      "v": 100
    },
    {
      "midi": 62,
      "hit": false,
      "t": 36000,
      "d": 375,
      "v": 100
    },
    {
      "midi": 43,
      "hit": false,
      "t": 36187.5,
      "d": 187.5,
      "v": 100
    },
    {
      "midi": 31,
      "hit": false,
      "t": 36187.5,
      "d": 187.5,
      "v": 100
    },
    {
      "midi": 59,
      "hit": false,
      "t": 36375,
      "d": 187.5,
      "v": 100
    },
    {
      "midi": 43,
      "hit": false,
      "t": 36375,
      "d": 187.5,
      "v": 100
    },
    {
      "midi": 31,
      "hit": false,
      "t": 36375,
      "d": 187.5,
      "v": 100
    },
    {
      "midi": 54,
      "hit": false,
      "t": 36375,
      "d": 375,
      "v": 100
    },
    {
      "midi": 66,
      "hit": false,
      "t": 36375,
      "d": 187.5,
      "v": 100
    },
    {
      "midi": 59,
      "hit": false,
      "t": 36375,
      "d": 187.5,
      "v": 100
    },
    {
      "midi": 62,
      "hit": false,
      "t": 36375,
      "d": 187.5,
      "v": 100
    },
    {
      "midi": 43,
      "hit": false,
      "t": 36562.5,
      "d": 187.5,
      "v": 100
    },
    {
      "midi": 31,
      "hit": false,
      "t": 36562.5,
      "d": 187.5,
      "v": 100
    },
    {
      "midi": 62,
      "hit": false,
      "t": 36562.5,
      "d": 187.5,
      "v": 100
    },
    {
      "midi": 59,
      "hit": false,
      "t": 36562.5,
      "d": 187.5,
      "v": 100
    },
    {
      "midi": 66,
      "hit": false,
      "t": 36562.5,
      "d": 187.5,
      "v": 100
    },
    {
      "midi": 67,
      "hit": false,
      "t": 36750,
      "d": 93.75,
      "v": 100
    },
    {
      "midi": 79,
      "hit": false,
      "t": 36750,
      "d": 93.75,
      "v": 100
    },
    {
      "midi": 64,
      "hit": false,
      "t": 36750,
      "d": 187.5,
      "v": 100
    },
    {
      "midi": 42,
      "hit": false,
      "t": 36750,
      "d": 187.5,
      "v": 100
    },
    {
      "midi": 30,
      "hit": false,
      "t": 36750,
      "d": 187.5,
      "v": 100
    },
    {
      "midi": 59,
      "hit": false,
      "t": 36750,
      "d": 187.5,
      "v": 100
    },
    {
      "midi": 66,
      "hit": false,
      "t": 36750,
      "d": 187.5,
      "v": 100
    },
    {
      "midi": 62,
      "hit": false,
      "t": 36750,
      "d": 187.5,
      "v": 100
    },
    {
      "midi": 66,
      "hit": false,
      "t": 36937.5,
      "d": 93.75,
      "v": 100
    },
    {
      "midi": 78,
      "hit": false,
      "t": 36937.5,
      "d": 93.75,
      "v": 100
    },
    {
      "midi": 42,
      "hit": false,
      "t": 36937.5,
      "d": 187.5,
      "v": 100
    },
    {
      "midi": 30,
      "hit": false,
      "t": 36937.5,
      "d": 187.5,
      "v": 100
    },
    {
      "midi": 59,
      "hit": false,
      "t": 36937.5,
      "d": 187.5,
      "v": 100
    },
    {
      "midi": 66,
      "hit": false,
      "t": 36937.5,
      "d": 187.5,
      "v": 100
    },
    {
      "midi": 62,
      "hit": false,
      "t": 36937.5,
      "d": 187.5,
      "v": 100
    },
    {
      "midi": 62,
      "hit": false,
      "t": 37125,
      "d": 375,
      "v": 100
    },
    {
      "midi": 74,
      "hit": false,
      "t": 37125,
      "d": 375,
      "v": 100
    },
    {
      "midi": 66,
      "hit": false,
      "t": 37125,
      "d": 375,
      "v": 100
    },
    {
      "midi": 40,
      "hit": false,
      "t": 37125,
      "d": 187.5,
      "v": 100
    },
    {
      "midi": 28,
      "hit": false,
      "t": 37125,
      "d": 187.5,
      "v": 100
    },
    {
      "midi": 64,
      "hit": false,
      "t": 37125,
      "d": 750,
      "v": 100
    },
    {
      "midi": 62,
      "hit": false,
      "t": 37125,
      "d": 187.5,
      "v": 100
    },
    {
      "midi": 59,
      "hit": false,
      "t": 37125,
      "d": 187.5,
      "v": 100
    },
    {
      "midi": 67,
      "hit": false,
      "t": 37125,
      "d": 187.5,
      "v": 100
    },
    {
      "midi": 40,
      "hit": false,
      "t": 37312.5,
      "d": 187.5,
      "v": 100
    },
    {
      "midi": 28,
      "hit": false,
      "t": 37312.5,
      "d": 187.5,
      "v": 100
    },
    {
      "midi": 59,
      "hit": false,
      "t": 37312.5,
      "d": 187.5,
      "v": 100
    },
    {
      "midi": 67,
      "hit": false,
      "t": 37312.5,
      "d": 187.5,
      "v": 100
    },
    {
      "midi": 62,
      "hit": false,
      "t": 37312.5,
      "d": 187.5,
      "v": 100
    },
    {
      "midi": 64,
      "hit": false,
      "t": 37500,
      "d": 750,
      "v": 100
    },
    {
      "midi": 76,
      "hit": false,
      "t": 37500,
      "d": 750,
      "v": 100
    },
    {
      "midi": 78,
      "hit": false,
      "t": 37500,
      "d": 187.5,
      "v": 100
    },
    {
      "midi": 67,
      "hit": false,
      "t": 37500,
      "d": 187.5,
      "v": 100
    },
    {
      "midi": 40,
      "hit": false,
      "t": 37500,
      "d": 187.5,
      "v": 100
    },
    {
      "midi": 28,
      "hit": false,
      "t": 37500,
      "d": 187.5,
      "v": 100
    },
    {
      "midi": 54,
      "hit": false,
      "t": 37500,
      "d": 375,
      "v": 100
    },
    {
      "midi": 79,
      "hit": false,
      "t": 37687.5,
      "d": 187.5,
      "v": 100
    },
    {
      "midi": 40,
      "hit": false,
      "t": 37687.5,
      "d": 187.5,
      "v": 100
    },
    {
      "midi": 28,
      "hit": false,
      "t": 37687.5,
      "d": 187.5,
      "v": 100
    },
    {
      "midi": 64,
      "hit": false,
      "t": 37687.5,
      "d": 187.5,
      "v": 100
    },
    {
      "midi": 61,
      "hit": false,
      "t": 37687.5,
      "d": 187.5,
      "v": 100
    },
    {
      "midi": 57,
      "hit": false,
      "t": 37687.5,
      "d": 187.5,
      "v": 100
    },
    {
      "midi": 81,
      "hit": false,
      "t": 37875,
      "d": 187.5,
      "v": 100
    },
    {
      "midi": 64,
      "hit": false,
      "t": 37875,
      "d": 187.5,
      "v": 100
    },
    {
      "midi": 45,
      "hit": false,
      "t": 37875,
      "d": 187.5,
      "v": 100
    },
    {
      "midi": 33,
      "hit": false,
      "t": 37875,
      "d": 187.5,
      "v": 100
    },
    {
      "midi": 54,
      "hit": false,
      "t": 37875,
      "d": 375,
      "v": 100
    },
    {
      "midi": 64,
      "hit": false,
      "t": 37875,
      "d": 187.5,
      "v": 100
    },
    {
      "midi": 61,
      "hit": false,
      "t": 37875,
      "d": 187.5,
      "v": 100
    },
    {
      "midi": 57,
      "hit": false,
      "t": 37875,
      "d": 187.5,
      "v": 100
    },
    {
      "midi": 45,
      "hit": false,
      "t": 38062.5,
      "d": 187.5,
      "v": 100
    },
    {
      "midi": 33,
      "hit": false,
      "t": 38062.5,
      "d": 187.5,
      "v": 100
    },
    {
      "midi": 64,
      "hit": false,
      "t": 38062.5,
      "d": 187.5,
      "v": 100
    },
    {
      "midi": 61,
      "hit": false,
      "t": 38062.5,
      "d": 187.5,
      "v": 100
    },
    {
      "midi": 57,
      "hit": false,
      "t": 38062.5,
      "d": 187.5,
      "v": 100
    },
    {
      "midi": 66,
      "hit": false,
      "t": 38250,
      "d": 187.5,
      "v": 100
    },
    {
      "midi": 62,
      "hit": false,
      "t": 38250,
      "d": 187.5,
      "v": 100
    },
    {
      "midi": 78,
      "hit": false,
      "t": 38250,
      "d": 187.5,
      "v": 100
    },
    {
      "midi": 78,
      "hit": false,
      "t": 38250,
      "d": 187.5,
      "v": 100
    },
    {
      "midi": 62,
      "hit": false,
      "t": 38250,
      "d": 375,
      "v": 100
    },
    {
      "midi": 47,
      "hit": false,
      "t": 38250,
      "d": 187.5,
      "v": 100
    },
    {
      "midi": 35,
      "hit": false,
      "t": 38250,
      "d": 187.5,
      "v": 100
    },
    {
      "midi": 62,
      "hit": false,
      "t": 38250,
      "d": 187.5,
      "v": 100
    },
    {
      "midi": 74,
      "hit": false,
      "t": 38250,
      "d": 1125,
      "v": 100
    },
    {
      "midi": 50,
      "hit": false,
      "t": 38250,
      "d": 1125,
      "v": 100
    },
    {
      "midi": 66,
      "hit": false,
      "t": 38250,
      "d": 3375,
      "v": 100
    },
    {
      "midi": 62,
      "hit": false,
      "t": 38250,
      "d": 4125,
      "v": 100
    },
    {
      "midi": 59,
      "hit": false,
      "t": 38250,
      "d": 375,
      "v": 100
    },
    {
      "midi": 66,
      "hit": false,
      "t": 38250,
      "d": 375,
      "v": 100
    },
    {
      "midi": 62,
      "hit": false,
      "t": 38250,
      "d": 375,
      "v": 100
    },
    {
      "midi": 79,
      "hit": false,
      "t": 38437.5,
      "d": 187.5,
      "v": 100
    },
    {
      "midi": 47,
      "hit": false,
      "t": 38437.5,
      "d": 187.5,
      "v": 100
    },
    {
      "midi": 35,
      "hit": false,
      "t": 38437.5,
      "d": 187.5,
      "v": 100
    },
    {
      "midi": 66,
      "hit": false,
      "t": 38625,
      "d": 187.5,
      "v": 100
    },
    {
      "midi": 62,
      "hit": false,
      "t": 38625,
      "d": 187.5,
      "v": 100
    },
    {
      "midi": 78,
      "hit": false,
      "t": 38625,
      "d": 187.5,
      "v": 100
    },
    {
      "midi": 81,
      "hit": false,
      "t": 38625,
      "d": 187.5,
      "v": 100
    },
    {
      "midi": 57,
      "hit": false,
      "t": 38625,
      "d": 187.5,
      "v": 100
    },
    {
      "midi": 47,
      "hit": false,
      "t": 38625,
      "d": 187.5,
      "v": 100
    },
    {
      "midi": 35,
      "hit": false,
      "t": 38625,
      "d": 187.5,
      "v": 100
    },
    {
      "midi": 54,
      "hit": false,
      "t": 38625,
      "d": 375,
      "v": 100
    },
    {
      "midi": 66,
      "hit": false,
      "t": 38625,
      "d": 187.5,
      "v": 100
    },
    {
      "midi": 59,
      "hit": false,
      "t": 38625,
      "d": 187.5,
      "v": 100
    },
    {
      "midi": 62,
      "hit": false,
      "t": 38625,
      "d": 187.5,
      "v": 100
    },
    {
      "midi": 47,
      "hit": false,
      "t": 38812.5,
      "d": 187.5,
      "v": 100
    },
    {
      "midi": 35,
      "hit": false,
      "t": 38812.5,
      "d": 187.5,
      "v": 100
    },
    {
      "midi": 62,
      "hit": false,
      "t": 38812.5,
      "d": 187.5,
      "v": 100
    },
    {
      "midi": 59,
      "hit": false,
      "t": 38812.5,
      "d": 187.5,
      "v": 100
    },
    {
      "midi": 66,
      "hit": false,
      "t": 38812.5,
      "d": 187.5,
      "v": 100
    },
    {
      "midi": 66,
      "hit": false,
      "t": 39000,
      "d": 187.5,
      "v": 100
    },
    {
      "midi": 62,
      "hit": false,
      "t": 39000,
      "d": 187.5,
      "v": 100
    },
    {
      "midi": 78,
      "hit": false,
      "t": 39000,
      "d": 187.5,
      "v": 100
    },
    {
      "midi": 64,
      "hit": false,
      "t": 39000,
      "d": 187.5,
      "v": 100
    },
    {
      "midi": 47,
      "hit": false,
      "t": 39000,
      "d": 187.5,
      "v": 100
    },
    {
      "midi": 35,
      "hit": false,
      "t": 39000,
      "d": 187.5,
      "v": 100
    },
    {
      "midi": 59,
      "hit": false,
      "t": 39000,
      "d": 187.5,
      "v": 100
    },
    {
      "midi": 66,
      "hit": false,
      "t": 39000,
      "d": 187.5,
      "v": 100
    },
    {
      "midi": 62,
      "hit": false,
      "t": 39000,
      "d": 187.5,
      "v": 100
    },
    {
      "midi": 47,
      "hit": false,
      "t": 39187.5,
      "d": 187.5,
      "v": 100
    },
    {
      "midi": 35,
      "hit": false,
      "t": 39187.5,
      "d": 187.5,
      "v": 100
    },
    {
      "midi": 59,
      "hit": false,
      "t": 39187.5,
      "d": 187.5,
      "v": 100
    },
    {
      "midi": 66,
      "hit": false,
      "t": 39187.5,
      "d": 187.5,
      "v": 100
    },
    {
      "midi": 62,
      "hit": false,
      "t": 39187.5,
      "d": 187.5,
      "v": 100
    },
    {
      "midi": 66,
      "hit": false,
      "t": 39375,
      "d": 562.5,
      "v": 100
    },
    {
      "midi": 62,
      "hit": false,
      "t": 39375,
      "d": 562.5,
      "v": 100
    },
    {
      "midi": 78,
      "hit": false,
      "t": 39375,
      "d": 562.5,
      "v": 100
    },
    {
      "midi": 62,
      "hit": false,
      "t": 39375,
      "d": 375,
      "v": 100
    },
    {
      "midi": 42,
      "hit": false,
      "t": 39375,
      "d": 187.5,
      "v": 100
    },
    {
      "midi": 30,
      "hit": false,
      "t": 39375,
      "d": 187.5,
      "v": 100
    },
    {
      "midi": 59,
      "hit": false,
      "t": 39375,
      "d": 375,
      "v": 100
    },
    {
      "midi": 66,
      "hit": false,
      "t": 39375,
      "d": 375,
      "v": 100
    },
    {
      "midi": 62,
      "hit": false,
      "t": 39375,
      "d": 375,
      "v": 100
    },
    {
      "midi": 42,
      "hit": false,
      "t": 39562.5,
      "d": 187.5,
      "v": 100
    },
    {
      "midi": 30,
      "hit": false,
      "t": 39562.5,
      "d": 187.5,
      "v": 100
    },
    {
      "midi": 57,
      "hit": false,
      "t": 39750,
      "d": 187.5,
      "v": 100
    },
    {
      "midi": 42,
      "hit": false,
      "t": 39750,
      "d": 187.5,
      "v": 100
    },
    {
      "midi": 30,
      "hit": false,
      "t": 39750,
      "d": 187.5,
      "v": 100
    },
    {
      "midi": 54,
      "hit": false,
      "t": 39750,
      "d": 375,
      "v": 100
    },
    {
      "midi": 66,
      "hit": false,
      "t": 39750,
      "d": 187.5,
      "v": 100
    },
    {
      "midi": 59,
      "hit": false,
      "t": 39750,
      "d": 187.5,
      "v": 100
    },
    {
      "midi": 62,
      "hit": false,
      "t": 39750,
      "d": 187.5,
      "v": 100
    },
    {
      "midi": 42,
      "hit": false,
      "t": 39937.5,
      "d": 187.5,
      "v": 100
    },
    {
      "midi": 30,
      "hit": false,
      "t": 39937.5,
      "d": 187.5,
      "v": 100
    },
    {
      "midi": 62,
      "hit": false,
      "t": 39937.5,
      "d": 187.5,
      "v": 100
    },
    {
      "midi": 59,
      "hit": false,
      "t": 39937.5,
      "d": 187.5,
      "v": 100
    },
    {
      "midi": 66,
      "hit": false,
      "t": 39937.5,
      "d": 187.5,
      "v": 100
    },
    {
      "midi": 66,
      "hit": false,
      "t": 40125,
      "d": 93.75,
      "v": 100
    },
    {
      "midi": 78,
      "hit": false,
      "t": 40125,
      "d": 93.75,
      "v": 100
    },
    {
      "midi": 64,
      "hit": false,
      "t": 40125,
      "d": 187.5,
      "v": 100
    },
    {
      "midi": 42,
      "hit": false,
      "t": 40125,
      "d": 187.5,
      "v": 100
    },
    {
      "midi": 30,
      "hit": false,
      "t": 40125,
      "d": 187.5,
      "v": 100
    },
    {
      "midi": 54,
      "hit": false,
      "t": 40125,
      "d": 375,
      "v": 100
    },
    {
      "midi": 59,
      "hit": false,
      "t": 40125,
      "d": 187.5,
      "v": 100
    },
    {
      "midi": 66,
      "hit": false,
      "t": 40125,
      "d": 187.5,
      "v": 100
    },
    {
      "midi": 62,
      "hit": false,
      "t": 40125,
      "d": 187.5,
      "v": 100
    },
    {
      "midi": 66,
      "hit": false,
      "t": 40312.5,
      "d": 93.75,
      "v": 100
    },
    {
      "midi": 78,
      "hit": false,
      "t": 40312.5,
      "d": 93.75,
      "v": 100
    },
    {
      "midi": 42,
      "hit": false,
      "t": 40312.5,
      "d": 187.5,
      "v": 100
    },
    {
      "midi": 30,
      "hit": false,
      "t": 40312.5,
      "d": 187.5,
      "v": 100
    },
    {
      "midi": 59,
      "hit": false,
      "t": 40312.5,
      "d": 187.5,
      "v": 100
    },
    {
      "midi": 66,
      "hit": false,
      "t": 40312.5,
      "d": 187.5,
      "v": 100
    },
    {
      "midi": 62,
      "hit": false,
      "t": 40312.5,
      "d": 187.5,
      "v": 100
    },
    {
      "midi": 66,
      "hit": false,
      "t": 40500,
      "d": 375,
      "v": 100
    },
    {
      "midi": 78,
      "hit": false,
      "t": 40500,
      "d": 375,
      "v": 100
    },
    {
      "midi": 62,
      "hit": false,
      "t": 40500,
      "d": 375,
      "v": 100
    },
    {
      "midi": 43,
      "hit": false,
      "t": 40500,
      "d": 187.5,
      "v": 100
    },
    {
      "midi": 31,
      "hit": false,
      "t": 40500,
      "d": 187.5,
      "v": 100
    },
    {
      "midi": 66,
      "hit": false,
      "t": 40500,
      "d": 375,
      "v": 100
    },
    {
      "midi": 59,
      "hit": false,
      "t": 40500,
      "d": 375,
      "v": 100
    },
    {
      "midi": 62,
      "hit": false,
      "t": 40500,
      "d": 375,
      "v": 100
    },
    {
      "midi": 43,
      "hit": false,
      "t": 40687.5,
      "d": 187.5,
      "v": 100
    },
    {
      "midi": 31,
      "hit": false,
      "t": 40687.5,
      "d": 187.5,
      "v": 100
    },
    {
      "midi": 67,
      "hit": false,
      "t": 40875,
      "d": 375,
      "v": 100
    },
    {
      "midi": 79,
      "hit": false,
      "t": 40875,
      "d": 375,
      "v": 100
    },
    {
      "midi": 57,
      "hit": false,
      "t": 40875,
      "d": 187.5,
      "v": 100
    },
    {
      "midi": 43,
      "hit": false,
      "t": 40875,
      "d": 187.5,
      "v": 100
    },
    {
      "midi": 31,
      "hit": false,
      "t": 40875,
      "d": 187.5,
      "v": 100
    },
    {
      "midi": 54,
      "hit": false,
      "t": 40875,
      "d": 375,
      "v": 100
    },
    {
      "midi": 59,
      "hit": false,
      "t": 40875,
      "d": 187.5,
      "v": 100
    },
    {
      "midi": 67,
      "hit": false,
      "t": 40875,
      "d": 187.5,
      "v": 100
    },
    {
      "midi": 62,
      "hit": false,
      "t": 40875,
      "d": 187.5,
      "v": 100
    },
    {
      "midi": 43,
      "hit": false,
      "t": 41062.5,
      "d": 187.5,
      "v": 100
    },
    {
      "midi": 31,
      "hit": false,
      "t": 41062.5,
      "d": 187.5,
      "v": 100
    },
    {
      "midi": 59,
      "hit": false,
      "t": 41062.5,
      "d": 187.5,
      "v": 100
    },
    {
      "midi": 67,
      "hit": false,
      "t": 41062.5,
      "d": 187.5,
      "v": 100
    },
    {
      "midi": 62,
      "hit": false,
      "t": 41062.5,
      "d": 187.5,
      "v": 100
    },
    {
      "midi": 69,
      "hit": false,
      "t": 41250,
      "d": 375,
      "v": 100
    },
    {
      "midi": 81,
      "hit": false,
      "t": 41250,
      "d": 375,
      "v": 100
    },
    {
      "midi": 64,
      "hit": false,
      "t": 41250,
      "d": 187.5,
      "v": 100
    },
    {
      "midi": 43,
      "hit": false,
      "t": 41250,
      "d": 187.5,
      "v": 100
    },
    {
      "midi": 31,
      "hit": false,
      "t": 41250,
      "d": 187.5,
      "v": 100
    },
    {
      "midi": 67,
      "hit": false,
      "t": 41250,
      "d": 187.5,
      "v": 100
    },
    {
      "midi": 59,
      "hit": false,
      "t": 41250,
      "d": 187.5,
      "v": 100
    },
    {
      "midi": 62,
      "hit": false,
      "t": 41250,
      "d": 187.5,
      "v": 100
    },
    {
      "midi": 43,
      "hit": false,
      "t": 41437.5,
      "d": 187.5,
      "v": 100
    },
    {
      "midi": 31,
      "hit": false,
      "t": 41437.5,
      "d": 187.5,
      "v": 100
    },
    {
      "midi": 67,
      "hit": false,
      "t": 41437.5,
      "d": 187.5,
      "v": 100
    },
    {
      "midi": 59,
      "hit": false,
      "t": 41437.5,
      "d": 187.5,
      "v": 100
    },
    {
      "midi": 62,
      "hit": false,
      "t": 41437.5,
      "d": 187.5,
      "v": 100
    },
    {
      "midi": 64,
      "hit": false,
      "t": 41625,
      "d": 937.5,
      "v": 100
    },
    {
      "midi": 76,
      "hit": false,
      "t": 41625,
      "d": 937.5,
      "v": 100
    },
    {
      "midi": 78,
      "hit": false,
      "t": 41625,
      "d": 187.5,
      "v": 100
    },
    {
      "midi": 66,
      "hit": false,
      "t": 41625,
      "d": 375,
      "v": 100
    },
    {
      "midi": 45,
      "hit": false,
      "t": 41625,
      "d": 187.5,
      "v": 100
    },
    {
      "midi": 33,
      "hit": false,
      "t": 41625,
      "d": 187.5,
      "v": 100
    },
    {
      "midi": 64,
      "hit": false,
      "t": 41625,
      "d": 750,
      "v": 100
    },
    {
      "midi": 64,
      "hit": false,
      "t": 41625,
      "d": 187.5,
      "v": 100
    },
    {
      "midi": 62,
      "hit": false,
      "t": 41625,
      "d": 187.5,
      "v": 100
    },
    {
      "midi": 57,
      "hit": false,
      "t": 41625,
      "d": 187.5,
      "v": 100
    },
    {
      "midi": 79,
      "hit": false,
      "t": 41812.5,
      "d": 187.5,
      "v": 100
    },
    {
      "midi": 45,
      "hit": false,
      "t": 41812.5,
      "d": 187.5,
      "v": 100
    },
    {
      "midi": 33,
      "hit": false,
      "t": 41812.5,
      "d": 187.5,
      "v": 100
    },
    {
      "midi": 64,
      "hit": false,
      "t": 41812.5,
      "d": 187.5,
      "v": 100
    },
    {
      "midi": 62,
      "hit": false,
      "t": 41812.5,
      "d": 187.5,
      "v": 100
    },
    {
      "midi": 57,
      "hit": false,
      "t": 41812.5,
      "d": 187.5,
      "v": 100
    },
    {
      "midi": 81,
      "hit": false,
      "t": 42000,
      "d": 187.5,
      "v": 100
    },
    {
      "midi": 67,
      "hit": false,
      "t": 42000,
      "d": 187.5,
      "v": 100
    },
    {
      "midi": 45,
      "hit": false,
      "t": 42000,
      "d": 187.5,
      "v": 100
    },
    {
      "midi": 33,
      "hit": false,
      "t": 42000,
      "d": 187.5,
      "v": 100
    },
    {
      "midi": 54,
      "hit": false,
      "t": 42000,
      "d": 375,
      "v": 100
    },
    {
      "midi": 45,
      "hit": false,
      "t": 42187.5,
      "d": 187.5,
      "v": 100
    },
    {
      "midi": 33,
      "hit": false,
      "t": 42187.5,
      "d": 187.5,
      "v": 100
    },
    {
      "midi": 64,
      "hit": false,
      "t": 42187.5,
      "d": 187.5,
      "v": 100
    },
    {
      "midi": 62,
      "hit": false,
      "t": 42187.5,
      "d": 187.5,
      "v": 100
    },
    {
      "midi": 57,
      "hit": false,
      "t": 42187.5,
      "d": 187.5,
      "v": 100
    },
    {
      "midi": 86,
      "hit": false,
      "t": 42375,
      "d": 187.5,
      "v": 100
    },
    {
      "midi": 64,
      "hit": false,
      "t": 42375,
      "d": 187.5,
      "v": 100
    },
    {
      "midi": 45,
      "hit": false,
      "t": 42375,
      "d": 187.5,
      "v": 100
    },
    {
      "midi": 33,
      "hit": false,
      "t": 42375,
      "d": 187.5,
      "v": 100
    },
    {
      "midi": 62,
      "hit": false,
      "t": 42375,
      "d": 2625,
      "v": 100
    },
    {
      "midi": 54,
      "hit": false,
      "t": 42375,
      "d": 375,
      "v": 100
    },
    {
      "midi": 61,
      "hit": false,
      "t": 42375,
      "d": 187.5,
      "v": 100
    },
    {
      "midi": 57,
      "hit": false,
      "t": 42375,
      "d": 187.5,
      "v": 100
    },
    {
      "midi": 64,
      "hit": false,
      "t": 42375,
      "d": 187.5,
      "v": 100
    },
    {
      "midi": 45,
      "hit": false,
      "t": 42562.5,
      "d": 187.5,
      "v": 100
    },
    {
      "midi": 33,
      "hit": false,
      "t": 42562.5,
      "d": 187.5,
      "v": 100
    },
    {
      "midi": 61,
      "hit": false,
      "t": 42562.5,
      "d": 187.5,
      "v": 100
    },
    {
      "midi": 57,
      "hit": false,
      "t": 42562.5,
      "d": 187.5,
      "v": 100
    },
    {
      "midi": 64,
      "hit": false,
      "t": 42562.5,
      "d": 187.5,
      "v": 100
    },
    {
      "midi": 69,
      "hit": false,
      "t": 42750,
      "d": 187.5,
      "v": 100
    },
    {
      "midi": 66,
      "hit": false,
      "t": 42750,
      "d": 187.5,
      "v": 100
    },
    {
      "midi": 81,
      "hit": false,
      "t": 42750,
      "d": 187.5,
      "v": 100
    },
    {
      "midi": 62,
      "hit": false,
      "t": 42750,
      "d": 375,
      "v": 100
    },
    {
      "midi": 38,
      "hit": false,
      "t": 42750,
      "d": 187.5,
      "v": 100
    },
    {
      "midi": 26,
      "hit": false,
      "t": 42750,
      "d": 187.5,
      "v": 100
    },
    {
      "midi": 62,
      "hit": false,
      "t": 42750,
      "d": 187.5,
      "v": 100
    },
    {
      "midi": 74,
      "hit": false,
      "t": 42750,
      "d": 1125,
      "v": 100
    },
    {
      "midi": 50,
      "hit": false,
      "t": 42750,
      "d": 1125,
      "v": 100
    },
    {
      "midi": 66,
      "hit": false,
      "t": 42750,
      "d": 2250,
      "v": 100
    },
    {
      "midi": 66,
      "hit": false,
      "t": 42750,
      "d": 375,
      "v": 100
    },
    {
      "midi": 62,
      "hit": false,
      "t": 42750,
      "d": 375,
      "v": 100
    },
    {
      "midi": 57,
      "hit": false,
      "t": 42750,
      "d": 375,
      "v": 100
    },
    {
      "midi": 38,
      "hit": false,
      "t": 42937.5,
      "d": 187.5,
      "v": 100
    },
    {
      "midi": 26,
      "hit": false,
      "t": 42937.5,
      "d": 187.5,
      "v": 100
    },
    {
      "midi": 69,
      "hit": false,
      "t": 43125,
      "d": 187.5,
      "v": 100
    },
    {
      "midi": 66,
      "hit": false,
      "t": 43125,
      "d": 187.5,
      "v": 100
    },
    {
      "midi": 81,
      "hit": false,
      "t": 43125,
      "d": 187.5,
      "v": 100
    },
    {
      "midi": 57,
      "hit": false,
      "t": 43125,
      "d": 187.5,
      "v": 100
    },
    {
      "midi": 38,
      "hit": false,
      "t": 43125,
      "d": 187.5,
      "v": 100
    },
    {
      "midi": 26,
      "hit": false,
      "t": 43125,
      "d": 187.5,
      "v": 100
    },
    {
      "midi": 54,
      "hit": false,
      "t": 43125,
      "d": 375,
      "v": 100
    },
    {
      "midi": 66,
      "hit": false,
      "t": 43125,
      "d": 187.5,
      "v": 100
    },
    {
      "midi": 62,
      "hit": false,
      "t": 43125,
      "d": 187.5,
      "v": 100
    },
    {
      "midi": 57,
      "hit": false,
      "t": 43125,
      "d": 187.5,
      "v": 100
    },
    {
      "midi": 38,
      "hit": false,
      "t": 43312.5,
      "d": 187.5,
      "v": 100
    },
    {
      "midi": 26,
      "hit": false,
      "t": 43312.5,
      "d": 187.5,
      "v": 100
    },
    {
      "midi": 66,
      "hit": false,
      "t": 43312.5,
      "d": 187.5,
      "v": 100
    },
    {
      "midi": 62,
      "hit": false,
      "t": 43312.5,
      "d": 187.5,
      "v": 100
    },
    {
      "midi": 57,
      "hit": false,
      "t": 43312.5,
      "d": 187.5,
      "v": 100
    },
    {
      "midi": 69,
      "hit": false,
      "t": 43500,
      "d": 187.5,
      "v": 100
    },
    {
      "midi": 66,
      "hit": false,
      "t": 43500,
      "d": 187.5,
      "v": 100
    },
    {
      "midi": 81,
      "hit": false,
      "t": 43500,
      "d": 187.5,
      "v": 100
    },
    {
      "midi": 64,
      "hit": false,
      "t": 43500,
      "d": 187.5,
      "v": 100
    },
    {
      "midi": 42,
      "hit": false,
      "t": 43500,
      "d": 187.5,
      "v": 100
    },
    {
      "midi": 30,
      "hit": false,
      "t": 43500,
      "d": 187.5,
      "v": 100
    },
    {
      "midi": 66,
      "hit": false,
      "t": 43500,
      "d": 187.5,
      "v": 100
    },
    {
      "midi": 62,
      "hit": false,
      "t": 43500,
      "d": 187.5,
      "v": 100
    },
    {
      "midi": 57,
      "hit": false,
      "t": 43500,
      "d": 187.5,
      "v": 100
    },
    {
      "midi": 42,
      "hit": false,
      "t": 43687.5,
      "d": 187.5,
      "v": 100
    },
    {
      "midi": 30,
      "hit": false,
      "t": 43687.5,
      "d": 187.5,
      "v": 100
    },
    {
      "midi": 66,
      "hit": false,
      "t": 43687.5,
      "d": 187.5,
      "v": 100
    },
    {
      "midi": 62,
      "hit": false,
      "t": 43687.5,
      "d": 187.5,
      "v": 100
    },
    {
      "midi": 57,
      "hit": false,
      "t": 43687.5,
      "d": 187.5,
      "v": 100
    },
    {
      "midi": 69,
      "hit": false,
      "t": 43875,
      "d": 187.5,
      "v": 100
    },
    {
      "midi": 66,
      "hit": false,
      "t": 43875,
      "d": 187.5,
      "v": 100
    },
    {
      "midi": 81,
      "hit": false,
      "t": 43875,
      "d": 187.5,
      "v": 100
    },
    {
      "midi": 62,
      "hit": false,
      "t": 43875,
      "d": 375,
      "v": 100
    },
    {
      "midi": 47,
      "hit": false,
      "t": 43875,
      "d": 187.5,
      "v": 100
    },
    {
      "midi": 35,
      "hit": false,
      "t": 43875,
      "d": 187.5,
      "v": 100
    },
    {
      "midi": 66,
      "hit": false,
      "t": 43875,
      "d": 375,
      "v": 100
    },
    {
      "midi": 62,
      "hit": false,
      "t": 43875,
      "d": 375,
      "v": 100
    },
    {
      "midi": 57,
      "hit": false,
      "t": 43875,
      "d": 375,
      "v": 100
    },
    {
      "midi": 47,
      "hit": false,
      "t": 44062.5,
      "d": 187.5,
      "v": 100
    },
    {
      "midi": 35,
      "hit": false,
      "t": 44062.5,
      "d": 187.5,
      "v": 100
    },
    {
      "midi": 69,
      "hit": false,
      "t": 44250,
      "d": 187.5,
      "v": 100
    },
    {
      "midi": 66,
      "hit": false,
      "t": 44250,
      "d": 187.5,
      "v": 100
    },
    {
      "midi": 81,
      "hit": false,
      "t": 44250,
      "d": 187.5,
      "v": 100
    },
    {
      "midi": 57,
      "hit": false,
      "t": 44250,
      "d": 187.5,
      "v": 100
    },
    {
      "midi": 47,
      "hit": false,
      "t": 44250,
      "d": 187.5,
      "v": 100
    },
    {
      "midi": 35,
      "hit": false,
      "t": 44250,
      "d": 187.5,
      "v": 100
    },
    {
      "midi": 54,
      "hit": false,
      "t": 44250,
      "d": 375,
      "v": 100
    },
    {
      "midi": 66,
      "hit": false,
      "t": 44250,
      "d": 187.5,
      "v": 100
    },
    {
      "midi": 62,
      "hit": false,
      "t": 44250,
      "d": 187.5,
      "v": 100
    },
    {
      "midi": 57,
      "hit": false,
      "t": 44250,
      "d": 187.5,
      "v": 100
    },
    {
      "midi": 47,
      "hit": false,
      "t": 44437.5,
      "d": 187.5,
      "v": 100
    },
    {
      "midi": 35,
      "hit": false,
      "t": 44437.5,
      "d": 187.5,
      "v": 100
    },
    {
      "midi": 66,
      "hit": false,
      "t": 44437.5,
      "d": 187.5,
      "v": 100
    },
    {
      "midi": 62,
      "hit": false,
      "t": 44437.5,
      "d": 187.5,
      "v": 100
    },
    {
      "midi": 57,
      "hit": false,
      "t": 44437.5,
      "d": 187.5,
      "v": 100
    },
    {
      "midi": 69,
      "hit": false,
      "t": 44625,
      "d": 187.5,
      "v": 100
    },
    {
      "midi": 66,
      "hit": false,
      "t": 44625,
      "d": 187.5,
      "v": 100
    },
    {
      "midi": 81,
      "hit": false,
      "t": 44625,
      "d": 187.5,
      "v": 100
    },
    {
      "midi": 64,
      "hit": false,
      "t": 44625,
      "d": 187.5,
      "v": 100
    },
    {
      "midi": 45,
      "hit": false,
      "t": 44625,
      "d": 187.5,
      "v": 100
    },
    {
      "midi": 33,
      "hit": false,
      "t": 44625,
      "d": 187.5,
      "v": 100
    },
    {
      "midi": 54,
      "hit": false,
      "t": 44625,
      "d": 375,
      "v": 100
    },
    {
      "midi": 66,
      "hit": false,
      "t": 44625,
      "d": 187.5,
      "v": 100
    },
    {
      "midi": 62,
      "hit": false,
      "t": 44625,
      "d": 187.5,
      "v": 100
    },
    {
      "midi": 57,
      "hit": false,
      "t": 44625,
      "d": 187.5,
      "v": 100
    },
    {
      "midi": 45,
      "hit": false,
      "t": 44812.5,
      "d": 187.5,
      "v": 100
    },
    {
      "midi": 33,
      "hit": false,
      "t": 44812.5,
      "d": 187.5,
      "v": 100
    },
    {
      "midi": 66,
      "hit": false,
      "t": 44812.5,
      "d": 187.5,
      "v": 100
    },
    {
      "midi": 62,
      "hit": false,
      "t": 44812.5,
      "d": 187.5,
      "v": 100
    },
    {
      "midi": 57,
      "hit": false,
      "t": 44812.5,
      "d": 187.5,
      "v": 100
    },
    {
      "midi": 72,
      "hit": false,
      "t": 45000,
      "d": 750,
      "v": 100
    },
    {
      "midi": 84,
      "hit": false,
      "t": 45000,
      "d": 750,
      "v": 100
    },
    {
      "midi": 65,
      "hit": false,
      "t": 45000,
      "d": 375,
      "v": 100
    },
    {
      "midi": 43,
      "hit": false,
      "t": 45000,
      "d": 187.5,
      "v": 100
    },
    {
      "midi": 31,
      "hit": false,
      "t": 45000,
      "d": 187.5,
      "v": 100
    },
    {
      "midi": 72,
      "hit": false,
      "t": 45000,
      "d": 1125,
      "v": 100
    },
    {
      "midi": 65,
      "hit": false,
      "t": 45000,
      "d": 2250,
      "v": 100
    },
    {
      "midi": 58,
      "hit": false,
      "t": 45000,
      "d": 375,
      "v": 100
    },
    {
      "midi": 65,
      "hit": false,
      "t": 45000,
      "d": 375,
      "v": 100
    },
    {
      "midi": 62,
      "hit": false,
      "t": 45000,
      "d": 375,
      "v": 100
    },
    {
      "midi": 43,
      "hit": false,
      "t": 45187.5,
      "d": 187.5,
      "v": 100
    },
    {
      "midi": 31,
      "hit": false,
      "t": 45187.5,
      "d": 187.5,
      "v": 100
    },
    {
      "midi": 58,
      "hit": false,
      "t": 45375,
      "d": 187.5,
      "v": 100
    },
    {
      "midi": 43,
      "hit": false,
      "t": 45375,
      "d": 187.5,
      "v": 100
    },
    {
      "midi": 31,
      "hit": false,
      "t": 45375,
      "d": 187.5,
      "v": 100
    },
    {
      "midi": 54,
      "hit": false,
      "t": 45375,
      "d": 375,
      "v": 100
    },
    {
      "midi": 65,
      "hit": false,
      "t": 45375,
      "d": 187.5,
      "v": 100
    },
    {
      "midi": 58,
      "hit": false,
      "t": 45375,
      "d": 187.5,
      "v": 100
    },
    {
      "midi": 62,
      "hit": false,
      "t": 45375,
      "d": 187.5,
      "v": 100
    },
    {
      "midi": 43,
      "hit": false,
      "t": 45562.5,
      "d": 187.5,
      "v": 100
    },
    {
      "midi": 31,
      "hit": false,
      "t": 45562.5,
      "d": 187.5,
      "v": 100
    },
    {
      "midi": 65,
      "hit": false,
      "t": 45562.5,
      "d": 187.5,
      "v": 100
    },
    {
      "midi": 58,
      "hit": false,
      "t": 45562.5,
      "d": 187.5,
      "v": 100
    },
    {
      "midi": 62,
      "hit": false,
      "t": 45562.5,
      "d": 187.5,
      "v": 100
    },
    {
      "midi": 70,
      "hit": false,
      "t": 45750,
      "d": 93.75,
      "v": 100
    },
    {
      "midi": 82,
      "hit": false,
      "t": 45750,
      "d": 93.75,
      "v": 100
    },
    {
      "midi": 62,
      "hit": false,
      "t": 45750,
      "d": 187.5,
      "v": 100
    },
    {
      "midi": 43,
      "hit": false,
      "t": 45750,
      "d": 187.5,
      "v": 100
    },
    {
      "midi": 31,
      "hit": false,
      "t": 45750,
      "d": 187.5,
      "v": 100
    },
    {
      "midi": 65,
      "hit": false,
      "t": 45750,
      "d": 187.5,
      "v": 100
    },
    {
      "midi": 58,
      "hit": false,
      "t": 45750,
      "d": 187.5,
      "v": 100
    },
    {
      "midi": 62,
      "hit": false,
      "t": 45750,
      "d": 187.5,
      "v": 100
    },
    {
      "midi": 69,
      "hit": false,
      "t": 45937.5,
      "d": 93.75,
      "v": 100
    },
    {
      "midi": 81,
      "hit": false,
      "t": 45937.5,
      "d": 93.75,
      "v": 100
    },
    {
      "midi": 43,
      "hit": false,
      "t": 45937.5,
      "d": 187.5,
      "v": 100
    },
    {
      "midi": 31,
      "hit": false,
      "t": 45937.5,
      "d": 187.5,
      "v": 100
    },
    {
      "midi": 58,
      "hit": false,
      "t": 45937.5,
      "d": 187.5,
      "v": 100
    },
    {
      "midi": 62,
      "hit": false,
      "t": 45937.5,
      "d": 187.5,
      "v": 100
    },
    {
      "midi": 65,
      "hit": false,
      "t": 45937.5,
      "d": 187.5,
      "v": 100
    },
    {
      "midi": 65,
      "hit": false,
      "t": 46125,
      "d": 375,
      "v": 100
    },
    {
      "midi": 77,
      "hit": false,
      "t": 46125,
      "d": 375,
      "v": 100
    },
    {
      "midi": 62,
      "hit": false,
      "t": 46125,
      "d": 375,
      "v": 100
    },
    {
      "midi": 48,
      "hit": false,
      "t": 46125,
      "d": 187.5,
      "v": 100
    },
    {
      "midi": 36,
      "hit": false,
      "t": 46125,
      "d": 187.5,
      "v": 100
    },
    {
      "midi": 69,
      "hit": false,
      "t": 46125,
      "d": 750,
      "v": 100
    },
    {
      "midi": 65,
      "hit": false,
      "t": 46125,
      "d": 375,
      "v": 100
    },
    {
      "midi": 62,
      "hit": false,
      "t": 46125,
      "d": 375,
      "v": 100
    },
    {
      "midi": 58,
      "hit": false,
      "t": 46125,
      "d": 375,
      "v": 100
    },
    {
      "midi": 48,
      "hit": false,
      "t": 46312.5,
      "d": 187.5,
      "v": 100
    },
    {
      "midi": 36,
      "hit": false,
      "t": 46312.5,
      "d": 187.5,
      "v": 100
    },
    {
      "midi": 67,
      "hit": false,
      "t": 46500,
      "d": 750,
      "v": 100
    },
    {
      "midi": 79,
      "hit": false,
      "t": 46500,
      "d": 750,
      "v": 100
    },
    {
      "midi": 55,
      "hit": false,
      "t": 46500,
      "d": 187.5,
      "v": 100
    },
    {
      "midi": 48,
      "hit": false,
      "t": 46500,
      "d": 187.5,
      "v": 100
    },
    {
      "midi": 36,
      "hit": false,
      "t": 46500,
      "d": 187.5,
      "v": 100
    },
    {
      "midi": 54,
      "hit": false,
      "t": 46500,
      "d": 375,
      "v": 100
    },
    {
      "midi": 65,
      "hit": false,
      "t": 46500,
      "d": 187.5,
      "v": 100
    },
    {
      "midi": 62,
      "hit": false,
      "t": 46500,
      "d": 187.5,
      "v": 100
    },
    {
      "midi": 58,
      "hit": false,
      "t": 46500,
      "d": 187.5,
      "v": 100
    },
    {
      "midi": 48,
      "hit": false,
      "t": 46687.5,
      "d": 187.5,
      "v": 100
    },
    {
      "midi": 36,
      "hit": false,
      "t": 46687.5,
      "d": 187.5,
      "v": 100
    },
    {
      "midi": 65,
      "hit": false,
      "t": 46687.5,
      "d": 187.5,
      "v": 100
    },
    {
      "midi": 62,
      "hit": false,
      "t": 46687.5,
      "d": 187.5,
      "v": 100
    },
    {
      "midi": 58,
      "hit": false,
      "t": 46687.5,
      "d": 187.5,
      "v": 100
    },
    {
      "midi": 62,
      "hit": false,
      "t": 46875,
      "d": 187.5,
      "v": 100
    },
    {
      "midi": 38,
      "hit": false,
      "t": 46875,
      "d": 187.5,
      "v": 100
    },
    {
      "midi": 26,
      "hit": false,
      "t": 46875,
      "d": 187.5,
      "v": 100
    },
    {
      "midi": 70,
      "hit": false,
      "t": 46875,
      "d": 375,
      "v": 100
    },
    {
      "midi": 54,
      "hit": false,
      "t": 46875,
      "d": 375,
      "v": 100
    },
    {
      "midi": 60,
      "hit": false,
      "t": 46875,
      "d": 187.5,
      "v": 100
    },
    {
      "midi": 67,
      "hit": false,
      "t": 46875,
      "d": 187.5,
      "v": 100
    },
    {
      "midi": 64,
      "hit": false,
      "t": 46875,
      "d": 187.5,
      "v": 100
    },
    {
      "midi": 38,
      "hit": false,
      "t": 47062.5,
      "d": 187.5,
      "v": 100
    },
    {
      "midi": 26,
      "hit": false,
      "t": 47062.5,
      "d": 187.5,
      "v": 100
    },
    {
      "midi": 60,
      "hit": false,
      "t": 47062.5,
      "d": 187.5,
      "v": 100
    },
    {
      "midi": 64,
      "hit": false,
      "t": 47062.5,
      "d": 187.5,
      "v": 100
    },
    {
      "midi": 67,
      "hit": false,
      "t": 47062.5,
      "d": 187.5,
      "v": 100
    },
    {
      "midi": 57,
      "hit": false,
      "t": 47234.375,
      "d": 375,
      "v": 100
    },
    {
      "midi": 62,
      "hit": false,
      "t": 47234.375,
      "d": 375,
      "v": 100
    },
    {
      "midi": 66,
      "hit": false,
      "t": 47234.375,
      "d": 375,
      "v": 100
    },
    {
      "midi": 66,
      "hit": false,
      "t": 47250,
      "d": 375,
      "v": 100
    },
    {
      "midi": 69,
      "hit": false,
      "t": 47250,
      "d": 375,
      "v": 100
    },
    {
      "midi": 78,
      "hit": false,
      "t": 47250,
      "d": 375,
      "v": 100
    },
    {
      "midi": 78,
      "hit": false,
      "t": 47250,
      "d": 187.5,
      "v": 100
    },
    {
      "midi": 62,
      "hit": false,
      "t": 47250,
      "d": 375,
      "v": 100
    },
    {
      "midi": 40,
      "hit": false,
      "t": 47250,
      "d": 187.5,
      "v": 100
    },
    {
      "midi": 28,
      "hit": false,
      "t": 47250,
      "d": 187.5,
      "v": 100
    },
    {
      "midi": 62,
      "hit": false,
      "t": 47250,
      "d": 187.5,
      "v": 100
    },
    {
      "midi": 74,
      "hit": false,
      "t": 47250,
      "d": 1125,
      "v": 100
    },
    {
      "midi": 50,
      "hit": false,
      "t": 47250,
      "d": 1125,
      "v": 100
    },
    {
      "midi": 66,
      "hit": false,
      "t": 47250,
      "d": 4500,
      "v": 100
    },
    {
      "midi": 79,
      "hit": false,
      "t": 47437.5,
      "d": 187.5,
      "v": 100
    },
    {
      "midi": 40,
      "hit": false,
      "t": 47437.5,
      "d": 187.5,
      "v": 100
    },
    {
      "midi": 28,
      "hit": false,
      "t": 47437.5,
      "d": 187.5,
      "v": 100
    },
    {
      "midi": 66,
      "hit": false,
      "t": 47609.375,
      "d": 187.5,
      "v": 100
    },
    {
      "midi": 62,
      "hit": false,
      "t": 47609.375,
      "d": 187.5,
      "v": 100
    },
    {
      "midi": 57,
      "hit": false,
      "t": 47609.375,
      "d": 187.5,
      "v": 100
    },
    {
      "midi": 62,
      "hit": false,
      "t": 47625,
      "d": 375,
      "v": 100
    },
    {
      "midi": 66,
      "hit": false,
      "t": 47625,
      "d": 375,
      "v": 100
    },
    {
      "midi": 74,
      "hit": false,
      "t": 47625,
      "d": 375,
      "v": 100
    },
    {
      "midi": 81,
      "hit": false,
      "t": 47625,
      "d": 187.5,
      "v": 100
    },
    {
      "midi": 57,
      "hit": false,
      "t": 47625,
      "d": 187.5,
      "v": 100
    },
    {
      "midi": 40,
      "hit": false,
      "t": 47625,
      "d": 187.5,
      "v": 100
    },
    {
      "midi": 28,
      "hit": false,
      "t": 47625,
      "d": 187.5,
      "v": 100
    },
    {
      "midi": 54,
      "hit": false,
      "t": 47625,
      "d": 375,
      "v": 100
    },
    {
      "midi": 66,
      "hit": false,
      "t": 47796.875,
      "d": 187.5,
      "v": 100
    },
    {
      "midi": 62,
      "hit": false,
      "t": 47796.875,
      "d": 187.5,
      "v": 100
    },
    {
      "midi": 57,
      "hit": false,
      "t": 47796.875,
      "d": 187.5,
      "v": 100
    },
    {
      "midi": 40,
      "hit": false,
      "t": 47812.5,
      "d": 187.5,
      "v": 100
    },
    {
      "midi": 28,
      "hit": false,
      "t": 47812.5,
      "d": 187.5,
      "v": 100
    },
    {
      "midi": 66,
      "hit": false,
      "t": 47984.375,
      "d": 187.5,
      "v": 100
    },
    {
      "midi": 62,
      "hit": false,
      "t": 47984.375,
      "d": 187.5,
      "v": 100
    },
    {
      "midi": 57,
      "hit": false,
      "t": 47984.375,
      "d": 187.5,
      "v": 100
    },
    {
      "midi": 67,
      "hit": false,
      "t": 48000,
      "d": 375,
      "v": 100
    },
    {
      "midi": 79,
      "hit": false,
      "t": 48000,
      "d": 375,
      "v": 100
    },
    {
      "midi": 81,
      "hit": false,
      "t": 48000,
      "d": 187.5,
      "v": 100
    },
    {
      "midi": 64,
      "hit": false,
      "t": 48000,
      "d": 187.5,
      "v": 100
    },
    {
      "midi": 28,
      "hit": false,
      "t": 48000,
      "d": 187.5,
      "v": 100
    },
    {
      "midi": 40,
      "hit": false,
      "t": 48000,
      "d": 187.5,
      "v": 100
    },
    {
      "midi": 66,
      "hit": false,
      "t": 48171.875,
      "d": 187.5,
      "v": 100
    },
    {
      "midi": 62,
      "hit": false,
      "t": 48171.875,
      "d": 187.5,
      "v": 100
    },
    {
      "midi": 57,
      "hit": false,
      "t": 48171.875,
      "d": 187.5,
      "v": 100
    },
    {
      "midi": 28,
      "hit": false,
      "t": 48187.5,
      "d": 187.5,
      "v": 100
    },
    {
      "midi": 40,
      "hit": false,
      "t": 48187.5,
      "d": 187.5,
      "v": 100
    },
    {
      "midi": 67,
      "hit": false,
      "t": 48359.375,
      "d": 375,
      "v": 100
    },
    {
      "midi": 57,
      "hit": false,
      "t": 48359.375,
      "d": 375,
      "v": 100
    },
    {
      "midi": 64,
      "hit": false,
      "t": 48359.375,
      "d": 375,
      "v": 100
    },
    {
      "midi": 66,
      "hit": false,
      "t": 48375,
      "d": 375,
      "v": 100
    },
    {
      "midi": 69,
      "hit": false,
      "t": 48375,
      "d": 375,
      "v": 100
    },
    {
      "midi": 78,
      "hit": false,
      "t": 48375,
      "d": 375,
      "v": 100
    },
    {
      "midi": 78,
      "hit": false,
      "t": 48375,
      "d": 187.5,
      "v": 100
    },
    {
      "midi": 62,
      "hit": false,
      "t": 48375,
      "d": 375,
      "v": 100
    },
    {
      "midi": 45,
      "hit": false,
      "t": 48375,
      "d": 187.5,
      "v": 100
    },
    {
      "midi": 33,
      "hit": false,
      "t": 48375,
      "d": 187.5,
      "v": 100
    },
    {
      "midi": 67,
      "hit": false,
      "t": 48375,
      "d": 1125,
      "v": 100
    },
    {
      "midi": 62,
      "hit": false,
      "t": 48375,
      "d": 375,
      "v": 100
    },
    {
      "midi": 79,
      "hit": false,
      "t": 48562.5,
      "d": 187.5,
      "v": 100
    },
    {
      "midi": 45,
      "hit": false,
      "t": 48562.5,
      "d": 187.5,
      "v": 100
    },
    {
      "midi": 33,
      "hit": false,
      "t": 48562.5,
      "d": 187.5,
      "v": 100
    },
    {
      "midi": 57,
      "hit": false,
      "t": 48734.375,
      "d": 187.5,
      "v": 100
    },
    {
      "midi": 67,
      "hit": false,
      "t": 48734.375,
      "d": 187.5,
      "v": 100
    },
    {
      "midi": 64,
      "hit": false,
      "t": 48734.375,
      "d": 187.5,
      "v": 100
    },
    {
      "midi": 62,
      "hit": false,
      "t": 48750,
      "d": 187.5,
      "v": 100
    },
    {
      "midi": 66,
      "hit": false,
      "t": 48750,
      "d": 187.5,
      "v": 100
    },
    {
      "midi": 74,
      "hit": false,
      "t": 48750,
      "d": 187.5,
      "v": 100
    },
    {
      "midi": 81,
      "hit": false,
      "t": 48750,
      "d": 187.5,
      "v": 100
    },
    {
      "midi": 57,
      "hit": false,
      "t": 48750,
      "d": 187.5,
      "v": 100
    },
    {
      "midi": 45,
      "hit": false,
      "t": 48750,
      "d": 187.5,
      "v": 100
    },
    {
      "midi": 33,
      "hit": false,
      "t": 48750,
      "d": 187.5,
      "v": 100
    },
    {
      "midi": 54,
      "hit": false,
      "t": 48750,
      "d": 375,
      "v": 100
    },
    {
      "midi": 62,
      "hit": false,
      "t": 48750,
      "d": 187.5,
      "v": 100
    },
    {
      "midi": 67,
      "hit": false,
      "t": 48921.875,
      "d": 187.5,
      "v": 100
    },
    {
      "midi": 64,
      "hit": false,
      "t": 48921.875,
      "d": 187.5,
      "v": 100
    },
    {
      "midi": 57,
      "hit": false,
      "t": 48921.875,
      "d": 187.5,
      "v": 100
    },
    {
      "midi": 45,
      "hit": false,
      "t": 48937.5,
      "d": 187.5,
      "v": 100
    },
    {
      "midi": 33,
      "hit": false,
      "t": 48937.5,
      "d": 187.5,
      "v": 100
    },
    {
      "midi": 62,
      "hit": false,
      "t": 48937.5,
      "d": 187.5,
      "v": 100
    },
    {
      "midi": 67,
      "hit": false,
      "t": 49109.375,
      "d": 187.5,
      "v": 100
    },
    {
      "midi": 57,
      "hit": false,
      "t": 49109.375,
      "d": 187.5,
      "v": 100
    },
    {
      "midi": 62,
      "hit": false,
      "t": 49125,
      "d": 2625,
      "v": 100
    },
    {
      "midi": 66,
      "hit": false,
      "t": 49125,
      "d": 2625,
      "v": 100
    },
    {
      "midi": 74,
      "hit": false,
      "t": 49125,
      "d": 2625,
      "v": 100
    },
    {
      "midi": 81,
      "hit": false,
      "t": 49125,
      "d": 187.5,
      "v": 100
    },
    {
      "midi": 64,
      "hit": false,
      "t": 49125,
      "d": 187.5,
      "v": 100
    },
    {
      "midi": 33,
      "hit": false,
      "t": 49125,
      "d": 187.5,
      "v": 100
    },
    {
      "midi": 45,
      "hit": false,
      "t": 49125,
      "d": 187.5,
      "v": 100
    },
    {
      "midi": 54,
      "hit": false,
      "t": 49125,
      "d": 375,
      "v": 100
    },
    {
      "midi": 61,
      "hit": false,
      "t": 49125,
      "d": 187.5,
      "v": 100
    },
    {
      "midi": 67,
      "hit": false,
      "t": 49296.875,
      "d": 187.5,
      "v": 100
    },
    {
      "midi": 57,
      "hit": false,
      "t": 49296.875,
      "d": 187.5,
      "v": 100
    },
    {
      "midi": 33,
      "hit": false,
      "t": 49312.5,
      "d": 187.5,
      "v": 100
    },
    {
      "midi": 45,
      "hit": false,
      "t": 49312.5,
      "d": 187.5,
      "v": 100
    },
    {
      "midi": 61,
      "hit": false,
      "t": 49312.5,
      "d": 187.5,
      "v": 100
    },
    {
      "midi": 74,
      "hit": false,
      "t": 49500,
      "d": 375,
      "v": 100
    },
    {
      "midi": 62,
      "hit": false,
      "t": 49500,
      "d": 375,
      "v": 100
    },
    {
      "midi": 26,
      "hit": false,
      "t": 49500,
      "d": 187.5,
      "v": 100
    },
    {
      "midi": 38,
      "hit": false,
      "t": 49500,
      "d": 187.5,
      "v": 100
    },
    {
      "midi": 62,
      "hit": false,
      "t": 49500,
      "d": 2250,
      "v": 100
    },
    {
      "midi": 64,
      "hit": false,
      "t": 49500,
      "d": 2250,
      "v": 100
    },
    {
      "midi": 64,
      "hit": false,
      "t": 49500,
      "d": 2250,
      "v": 100
    },
    {
      "midi": 62,
      "hit": false,
      "t": 49500,
      "d": 2250,
      "v": 100
    },
    {
      "midi": 66,
      "hit": false,
      "t": 49500,
      "d": 2250,
      "v": 100
    },
    {
      "midi": 66,
      "hit": false,
      "t": 49500,
      "d": 187.5,
      "v": 100
    },
    {
      "midi": 62,
      "hit": false,
      "t": 49500,
      "d": 187.5,
      "v": 100
    },
    {
      "midi": 57,
      "hit": false,
      "t": 49500,
      "d": 187.5,
      "v": 100
    },
    {
      "midi": 26,
      "hit": false,
      "t": 49687.5,
      "d": 187.5,
      "v": 100
    },
    {
      "midi": 38,
      "hit": false,
      "t": 49687.5,
      "d": 187.5,
      "v": 100
    },
    {
      "midi": 66,
      "hit": false,
      "t": 49687.5,
      "d": 187.5,
      "v": 100
    },
    {
      "midi": 62,
      "hit": false,
      "t": 49687.5,
      "d": 187.5,
      "v": 100
    },
    {
      "midi": 57,
      "hit": false,
      "t": 49687.5,
      "d": 187.5,
      "v": 100
    },
    {
      "midi": 64,
      "hit": false,
      "t": 49875,
      "d": 187.5,
      "v": 100
    },
    {
      "midi": 26,
      "hit": false,
      "t": 49875,
      "d": 187.5,
      "v": 100
    },
    {
      "midi": 38,
      "hit": false,
      "t": 49875,
      "d": 187.5,
      "v": 100
    },
    {
      "midi": 54,
      "hit": false,
      "t": 49875,
      "d": 375,
      "v": 100
    },
    {
      "midi": 66,
      "hit": false,
      "t": 49875,
      "d": 187.5,
      "v": 100
    },
    {
      "midi": 62,
      "hit": false,
      "t": 49875,
      "d": 187.5,
      "v": 100
    },
    {
      "midi": 57,
      "hit": false,
      "t": 49875,
      "d": 187.5,
      "v": 100
    },
    {
      "midi": 26,
      "hit": false,
      "t": 50062.5,
      "d": 187.5,
      "v": 100
    },
    {
      "midi": 38,
      "hit": false,
      "t": 50062.5,
      "d": 187.5,
      "v": 100
    },
    {
      "midi": 66,
      "hit": false,
      "t": 50062.5,
      "d": 187.5,
      "v": 100
    },
    {
      "midi": 62,
      "hit": false,
      "t": 50062.5,
      "d": 187.5,
      "v": 100
    },
    {
      "midi": 57,
      "hit": false,
      "t": 50062.5,
      "d": 187.5,
      "v": 100
    },
    {
      "midi": 64,
      "hit": false,
      "t": 50250,
      "d": 187.5,
      "v": 100
    },
    {
      "midi": 26,
      "hit": false,
      "t": 50250,
      "d": 187.5,
      "v": 100
    },
    {
      "midi": 38,
      "hit": false,
      "t": 50250,
      "d": 187.5,
      "v": 100
    },
    {
      "midi": 66,
      "hit": false,
      "t": 50250,
      "d": 187.5,
      "v": 100
    },
    {
      "midi": 62,
      "hit": false,
      "t": 50250,
      "d": 187.5,
      "v": 100
    },
    {
      "midi": 57,
      "hit": false,
      "t": 50250,
      "d": 187.5,
      "v": 100
    },
    {
      "midi": 26,
      "hit": false,
      "t": 50437.5,
      "d": 187.5,
      "v": 100
    },
    {
      "midi": 38,
      "hit": false,
      "t": 50437.5,
      "d": 187.5,
      "v": 100
    },
    {
      "midi": 66,
      "hit": false,
      "t": 50437.5,
      "d": 187.5,
      "v": 100
    },
    {
      "midi": 62,
      "hit": false,
      "t": 50437.5,
      "d": 187.5,
      "v": 100
    },
    {
      "midi": 57,
      "hit": false,
      "t": 50437.5,
      "d": 187.5,
      "v": 100
    },
    {
      "midi": 93,
      "hit": false,
      "t": 50625,
      "d": 187.5,
      "v": 100
    },
    {
      "midi": 66,
      "hit": false,
      "t": 50625,
      "d": 375,
      "v": 100
    },
    {
      "midi": 26,
      "hit": false,
      "t": 50625,
      "d": 187.5,
      "v": 100
    },
    {
      "midi": 38,
      "hit": false,
      "t": 50625,
      "d": 187.5,
      "v": 100
    },
    {
      "midi": 66,
      "hit": false,
      "t": 50625,
      "d": 187.5,
      "v": 100
    },
    {
      "midi": 62,
      "hit": false,
      "t": 50625,
      "d": 187.5,
      "v": 100
    },
    {
      "midi": 57,
      "hit": false,
      "t": 50625,
      "d": 187.5,
      "v": 100
    },
    {
      "midi": 88,
      "hit": false,
      "t": 50812.5,
      "d": 187.5,
      "v": 100
    },
    {
      "midi": 26,
      "hit": false,
      "t": 50812.5,
      "d": 187.5,
      "v": 100
    },
    {
      "midi": 38,
      "hit": false,
      "t": 50812.5,
      "d": 187.5,
      "v": 100
    },
    {
      "midi": 66,
      "hit": false,
      "t": 50812.5,
      "d": 187.5,
      "v": 100
    },
    {
      "midi": 62,
      "hit": false,
      "t": 50812.5,
      "d": 187.5,
      "v": 100
    },
    {
      "midi": 57,
      "hit": false,
      "t": 50812.5,
      "d": 187.5,
      "v": 100
    },
    {
      "midi": 86,
      "hit": false,
      "t": 51000,
      "d": 187.5,
      "v": 100
    },
    {
      "midi": 67,
      "hit": false,
      "t": 51000,
      "d": 187.5,
      "v": 100
    },
    {
      "midi": 26,
      "hit": false,
      "t": 51000,
      "d": 187.5,
      "v": 100
    },
    {
      "midi": 38,
      "hit": false,
      "t": 51000,
      "d": 187.5,
      "v": 100
    },
    {
      "midi": 54,
      "hit": false,
      "t": 51000,
      "d": 375,
      "v": 100
    },
    {
      "midi": 66,
      "hit": false,
      "t": 51000,
      "d": 187.5,
      "v": 100
    },
    {
      "midi": 62,
      "hit": false,
      "t": 51000,
      "d": 187.5,
      "v": 100
    },
    {
      "midi": 57,
      "hit": false,
      "t": 51000,
      "d": 187.5,
      "v": 100
    },
    {
      "midi": 81,
      "hit": false,
      "t": 51187.5,
      "d": 187.5,
      "v": 100
    },
    {
      "midi": 26,
      "hit": false,
      "t": 51187.5,
      "d": 187.5,
      "v": 100
    },
    {
      "midi": 38,
      "hit": false,
      "t": 51187.5,
      "d": 187.5,
      "v": 100
    },
    {
      "midi": 66,
      "hit": false,
      "t": 51187.5,
      "d": 187.5,
      "v": 100
    },
    {
      "midi": 62,
      "hit": false,
      "t": 51187.5,
      "d": 187.5,
      "v": 100
    },
    {
      "midi": 57,
      "hit": false,
      "t": 51187.5,
      "d": 187.5,
      "v": 100
    },
    {
      "midi": 74,
      "hit": false,
      "t": 51375,
      "d": 187.5,
      "v": 100
    },
    {
      "midi": 64,
      "hit": false,
      "t": 51375,
      "d": 187.5,
      "v": 100
    },
    {
      "midi": 26,
      "hit": false,
      "t": 51375,
      "d": 187.5,
      "v": 100
    },
    {
      "midi": 38,
      "hit": false,
      "t": 51375,
      "d": 187.5,
      "v": 100
    },
    {
      "midi": 54,
      "hit": false,
      "t": 51375,
      "d": 375,
      "v": 100
    },
    {
      "midi": 66,
      "hit": false,
      "t": 51375,
      "d": 187.5,
      "v": 100
    },
    {
      "midi": 62,
      "hit": false,
      "t": 51375,
      "d": 187.5,
      "v": 100
    },
    {
      "midi": 57,
      "hit": false,
      "t": 51375,
      "d": 187.5,
      "v": 100
    },
    {
      "midi": 69,
      "hit": false,
      "t": 51562.5,
      "d": 187.5,
      "v": 100
    },
    {
      "midi": 26,
      "hit": false,
      "t": 51562.5,
      "d": 187.5,
      "v": 100
    },
    {
      "midi": 38,
      "hit": false,
      "t": 51562.5,
      "d": 187.5,
      "v": 100
    },
    {
      "midi": 66,
      "hit": false,
      "t": 51562.5,
      "d": 187.5,
      "v": 100
    },
    {
      "midi": 62,
      "hit": false,
      "t": 51562.5,
      "d": 187.5,
      "v": 100
    },
    {
      "midi": 57,
      "hit": false,
      "t": 51562.5,
      "d": 187.5,
      "v": 100
    },
    {
      "midi": 62,
      "hit": false,
      "t": 51750,
      "d": 375,
      "v": 100
    },
    {
      "midi": 24,
      "hit": false,
      "t": 51750,
      "d": 187.5,
      "v": 100
    },
    {
      "midi": 36,
      "hit": false,
      "t": 51750,
      "d": 187.5,
      "v": 100
    },
    {
      "midi": 60,
      "hit": false,
      "t": 51750,
      "d": 187.5,
      "v": 100
    },
    {
      "midi": 72,
      "hit": false,
      "t": 51750,
      "d": 1125,
      "v": 100
    },
    {
      "midi": 48,
      "hit": false,
      "t": 51750,
      "d": 1125,
      "v": 100
    },
    {
      "midi": 60,
      "hit": false,
      "t": 51750,
      "d": 4500,
      "v": 100
    },
    {
      "midi": 50,
      "hit": false,
      "t": 51750,
      "d": 9000,
      "v": 100
    },
    {
      "midi": 64,
      "hit": false,
      "t": 51750,
      "d": 187.5,
      "v": 100
    },
    {
      "midi": 57,
      "hit": false,
      "t": 51750,
      "d": 187.5,
      "v": 100
    },
    {
      "midi": 50,
      "hit": false,
      "t": 51750,
      "d": 187.5,
      "v": 100
    },
    {
      "midi": 55,
      "hit": false,
      "t": 51750,
      "d": 187.5,
      "v": 100
    },
    {
      "midi": 60,
      "hit": false,
      "t": 51750,
      "d": 187.5,
      "v": 100
    },
    {
      "midi": 24,
      "hit": false,
      "t": 51937.5,
      "d": 187.5,
      "v": 100
    },
    {
      "midi": 36,
      "hit": false,
      "t": 51937.5,
      "d": 187.5,
      "v": 100
    },
    {
      "midi": 64,
      "hit": false,
      "t": 52125,
      "d": 187.5,
      "v": 100
    },
    {
      "midi": 24,
      "hit": false,
      "t": 52125,
      "d": 187.5,
      "v": 100
    },
    {
      "midi": 36,
      "hit": false,
      "t": 52125,
      "d": 187.5,
      "v": 100
    },
    {
      "midi": 54,
      "hit": false,
      "t": 52125,
      "d": 375,
      "v": 100
    },
    {
      "midi": 64,
      "hit": false,
      "t": 52125,
      "d": 187.5,
      "v": 100
    },
    {
      "midi": 57,
      "hit": false,
      "t": 52125,
      "d": 187.5,
      "v": 100
    },
    {
      "midi": 50,
      "hit": false,
      "t": 52125,
      "d": 187.5,
      "v": 100
    },
    {
      "midi": 55,
      "hit": false,
      "t": 52125,
      "d": 187.5,
      "v": 100
    },
    {
      "midi": 60,
      "hit": false,
      "t": 52125,
      "d": 187.5,
      "v": 100
    },
    {
      "midi": 24,
      "hit": false,
      "t": 52312.5,
      "d": 187.5,
      "v": 100
    },
    {
      "midi": 36,
      "hit": false,
      "t": 52312.5,
      "d": 187.5,
      "v": 100
    },
    {
      "midi": 64,
      "hit": false,
      "t": 52312.5,
      "d": 187.5,
      "v": 100
    },
    {
      "midi": 57,
      "hit": false,
      "t": 52312.5,
      "d": 187.5,
      "v": 100
    },
    {
      "midi": 50,
      "hit": false,
      "t": 52312.5,
      "d": 187.5,
      "v": 100
    },
    {
      "midi": 55,
      "hit": false,
      "t": 52312.5,
      "d": 187.5,
      "v": 100
    },
    {
      "midi": 60,
      "hit": false,
      "t": 52312.5,
      "d": 187.5,
      "v": 100
    },
    {
      "midi": 57,
      "hit": false,
      "t": 52500,
      "d": 187.5,
      "v": 100
    },
    {
      "midi": 65,
      "hit": false,
      "t": 52500,
      "d": 375,
      "v": 100
    },
    {
      "midi": 24,
      "hit": false,
      "t": 52500,
      "d": 187.5,
      "v": 100
    },
    {
      "midi": 36,
      "hit": false,
      "t": 52500,
      "d": 187.5,
      "v": 100
    },
    {
      "midi": 64,
      "hit": false,
      "t": 52500,
      "d": 187.5,
      "v": 100
    },
    {
      "midi": 57,
      "hit": false,
      "t": 52500,
      "d": 187.5,
      "v": 100
    },
    {
      "midi": 50,
      "hit": false,
      "t": 52500,
      "d": 187.5,
      "v": 100
    },
    {
      "midi": 55,
      "hit": false,
      "t": 52500,
      "d": 187.5,
      "v": 100
    },
    {
      "midi": 60,
      "hit": false,
      "t": 52500,
      "d": 187.5,
      "v": 100
    },
    {
      "midi": 24,
      "hit": false,
      "t": 52687.5,
      "d": 187.5,
      "v": 100
    },
    {
      "midi": 36,
      "hit": false,
      "t": 52687.5,
      "d": 187.5,
      "v": 100
    },
    {
      "midi": 64,
      "hit": false,
      "t": 52687.5,
      "d": 187.5,
      "v": 100
    },
    {
      "midi": 57,
      "hit": false,
      "t": 52687.5,
      "d": 187.5,
      "v": 100
    },
    {
      "midi": 50,
      "hit": false,
      "t": 52687.5,
      "d": 187.5,
      "v": 100
    },
    {
      "midi": 55,
      "hit": false,
      "t": 52687.5,
      "d": 187.5,
      "v": 100
    },
    {
      "midi": 60,
      "hit": false,
      "t": 52687.5,
      "d": 187.5,
      "v": 100
    },
    {
      "midi": 62,
      "hit": false,
      "t": 52875,
      "d": 375,
      "v": 100
    },
    {
      "midi": 24,
      "hit": false,
      "t": 52875,
      "d": 187.5,
      "v": 100
    },
    {
      "midi": 36,
      "hit": false,
      "t": 52875,
      "d": 187.5,
      "v": 100
    },
    {
      "midi": 69,
      "hit": false,
      "t": 52875,
      "d": 7875,
      "v": 100
    },
    {
      "midi": 64,
      "hit": false,
      "t": 52875,
      "d": 187.5,
      "v": 100
    },
    {
      "midi": 57,
      "hit": false,
      "t": 52875,
      "d": 187.5,
      "v": 100
    },
    {
      "midi": 50,
      "hit": false,
      "t": 52875,
      "d": 187.5,
      "v": 100
    },
    {
      "midi": 55,
      "hit": false,
      "t": 52875,
      "d": 187.5,
      "v": 100
    },
    {
      "midi": 60,
      "hit": false,
      "t": 52875,
      "d": 187.5,
      "v": 100
    },
    {
      "midi": 24,
      "hit": false,
      "t": 53062.5,
      "d": 187.5,
      "v": 100
    },
    {
      "midi": 36,
      "hit": false,
      "t": 53062.5,
      "d": 187.5,
      "v": 100
    },
    {
      "midi": 64,
      "hit": false,
      "t": 53250,
      "d": 187.5,
      "v": 100
    },
    {
      "midi": 24,
      "hit": false,
      "t": 53250,
      "d": 187.5,
      "v": 100
    },
    {
      "midi": 36,
      "hit": false,
      "t": 53250,
      "d": 187.5,
      "v": 100
    },
    {
      "midi": 54,
      "hit": false,
      "t": 53250,
      "d": 375,
      "v": 100
    },
    {
      "midi": 64,
      "hit": false,
      "t": 53250,
      "d": 187.5,
      "v": 100
    },
    {
      "midi": 57,
      "hit": false,
      "t": 53250,
      "d": 187.5,
      "v": 100
    },
    {
      "midi": 50,
      "hit": false,
      "t": 53250,
      "d": 187.5,
      "v": 100
    },
    {
      "midi": 55,
      "hit": false,
      "t": 53250,
      "d": 187.5,
      "v": 100
    },
    {
      "midi": 60,
      "hit": false,
      "t": 53250,
      "d": 187.5,
      "v": 100
    },
    {
      "midi": 24,
      "hit": false,
      "t": 53437.5,
      "d": 187.5,
      "v": 100
    },
    {
      "midi": 36,
      "hit": false,
      "t": 53437.5,
      "d": 187.5,
      "v": 100
    },
    {
      "midi": 64,
      "hit": false,
      "t": 53437.5,
      "d": 187.5,
      "v": 100
    },
    {
      "midi": 57,
      "hit": false,
      "t": 53437.5,
      "d": 187.5,
      "v": 100
    },
    {
      "midi": 50,
      "hit": false,
      "t": 53437.5,
      "d": 187.5,
      "v": 100
    },
    {
      "midi": 55,
      "hit": false,
      "t": 53437.5,
      "d": 187.5,
      "v": 100
    },
    {
      "midi": 60,
      "hit": false,
      "t": 53437.5,
      "d": 187.5,
      "v": 100
    },
    {
      "midi": 57,
      "hit": false,
      "t": 53625,
      "d": 187.5,
      "v": 100
    },
    {
      "midi": 65,
      "hit": false,
      "t": 53625,
      "d": 375,
      "v": 100
    },
    {
      "midi": 19,
      "hit": false,
      "t": 53625,
      "d": 187.5,
      "v": 100
    },
    {
      "midi": 31,
      "hit": false,
      "t": 53625,
      "d": 187.5,
      "v": 100
    },
    {
      "midi": 43,
      "hit": false,
      "t": 53625,
      "d": 187.5,
      "v": 100
    },
    {
      "midi": 54,
      "hit": false,
      "t": 53625,
      "d": 375,
      "v": 100
    },
    {
      "midi": 64,
      "hit": false,
      "t": 53625,
      "d": 187.5,
      "v": 100
    },
    {
      "midi": 57,
      "hit": false,
      "t": 53625,
      "d": 187.5,
      "v": 100
    },
    {
      "midi": 50,
      "hit": false,
      "t": 53625,
      "d": 187.5,
      "v": 100
    },
    {
      "midi": 55,
      "hit": false,
      "t": 53625,
      "d": 187.5,
      "v": 100
    },
    {
      "midi": 60,
      "hit": false,
      "t": 53625,
      "d": 187.5,
      "v": 100
    },
    {
      "midi": 19,
      "hit": false,
      "t": 53812.5,
      "d": 187.5,
      "v": 100
    },
    {
      "midi": 31,
      "hit": false,
      "t": 53812.5,
      "d": 187.5,
      "v": 100
    },
    {
      "midi": 43,
      "hit": false,
      "t": 53812.5,
      "d": 187.5,
      "v": 100
    },
    {
      "midi": 64,
      "hit": false,
      "t": 53812.5,
      "d": 187.5,
      "v": 100
    },
    {
      "midi": 57,
      "hit": false,
      "t": 53812.5,
      "d": 187.5,
      "v": 100
    },
    {
      "midi": 50,
      "hit": false,
      "t": 53812.5,
      "d": 187.5,
      "v": 100
    },
    {
      "midi": 55,
      "hit": false,
      "t": 53812.5,
      "d": 187.5,
      "v": 100
    },
    {
      "midi": 60,
      "hit": false,
      "t": 53812.5,
      "d": 187.5,
      "v": 100
    },
    {
      "midi": 62,
      "hit": false,
      "t": 54000,
      "d": 375,
      "v": 100
    },
    {
      "midi": 24,
      "hit": false,
      "t": 54000,
      "d": 187.5,
      "v": 100
    },
    {
      "midi": 36,
      "hit": false,
      "t": 54000,
      "d": 187.5,
      "v": 100
    },
    {
      "midi": 72,
      "hit": false,
      "t": 54000,
      "d": 2250,
      "v": 100
    },
    {
      "midi": 74,
      "hit": false,
      "t": 54000,
      "d": 6750,
      "v": 100
    },
    {
      "midi": 64,
      "hit": false,
      "t": 54000,
      "d": 187.5,
      "v": 100
    },
    {
      "midi": 57,
      "hit": false,
      "t": 54000,
      "d": 187.5,
      "v": 100
    },
    {
      "midi": 50,
      "hit": false,
      "t": 54000,
      "d": 187.5,
      "v": 100
    },
    {
      "midi": 55,
      "hit": false,
      "t": 54000,
      "d": 187.5,
      "v": 100
    },
    {
      "midi": 60,
      "hit": false,
      "t": 54000,
      "d": 187.5,
      "v": 100
    },
    {
      "midi": 79,
      "hit": false,
      "t": 54000,
      "d": 2250,
      "v": 100
    },
    {
      "midi": 51,
      "hit": false,
      "t": 54000,
      "d": 31.25,
      "v": 100
    },
    {
      "midi": 51,
      "hit": false,
      "t": 54031.25,
      "d": 31.25,
      "v": 100
    },
    {
      "midi": 51,
      "hit": false,
      "t": 54062.5,
      "d": 31.25,
      "v": 100
    },
    {
      "midi": 51,
      "hit": false,
      "t": 54093.75,
      "d": 31.25,
      "v": 100
    },
    {
      "midi": 51,
      "hit": false,
      "t": 54125,
      "d": 31.25,
      "v": 100
    },
    {
      "midi": 51,
      "hit": false,
      "t": 54156.25,
      "d": 31.25,
      "v": 100
    },
    {
      "midi": 24,
      "hit": false,
      "t": 54187.5,
      "d": 187.5,
      "v": 100
    },
    {
      "midi": 36,
      "hit": false,
      "t": 54187.5,
      "d": 187.5,
      "v": 100
    },
    {
      "midi": 51,
      "hit": false,
      "t": 54187.5,
      "d": 31.25,
      "v": 100
    },
    {
      "midi": 51,
      "hit": false,
      "t": 54218.75,
      "d": 31.25,
      "v": 100
    },
    {
      "midi": 51,
      "hit": false,
      "t": 54250,
      "d": 31.25,
      "v": 100
    },
    {
      "midi": 51,
      "hit": false,
      "t": 54281.25,
      "d": 31.25,
      "v": 100
    },
    {
      "midi": 51,
      "hit": false,
      "t": 54312.5,
      "d": 31.25,
      "v": 100
    },
    {
      "midi": 51,
      "hit": false,
      "t": 54343.75,
      "d": 31.25,
      "v": 100
    },
    {
      "midi": 64,
      "hit": false,
      "t": 54375,
      "d": 187.5,
      "v": 100
    },
    {
      "midi": 24,
      "hit": false,
      "t": 54375,
      "d": 187.5,
      "v": 100
    },
    {
      "midi": 36,
      "hit": false,
      "t": 54375,
      "d": 187.5,
      "v": 100
    },
    {
      "midi": 54,
      "hit": false,
      "t": 54375,
      "d": 375,
      "v": 100
    },
    {
      "midi": 64,
      "hit": false,
      "t": 54375,
      "d": 187.5,
      "v": 100
    },
    {
      "midi": 57,
      "hit": false,
      "t": 54375,
      "d": 187.5,
      "v": 100
    },
    {
      "midi": 50,
      "hit": false,
      "t": 54375,
      "d": 187.5,
      "v": 100
    },
    {
      "midi": 55,
      "hit": false,
      "t": 54375,
      "d": 187.5,
      "v": 100
    },
    {
      "midi": 60,
      "hit": false,
      "t": 54375,
      "d": 187.5,
      "v": 100
    },
    {
      "midi": 51,
      "hit": false,
      "t": 54375,
      "d": 31.25,
      "v": 100
    },
    {
      "midi": 51,
      "hit": false,
      "t": 54406.25,
      "d": 31.25,
      "v": 100
    },
    {
      "midi": 51,
      "hit": false,
      "t": 54437.5,
      "d": 31.25,
      "v": 100
    },
    {
      "midi": 51,
      "hit": false,
      "t": 54468.75,
      "d": 31.25,
      "v": 100
    },
    {
      "midi": 51,
      "hit": false,
      "t": 54500,
      "d": 31.25,
      "v": 100
    },
    {
      "midi": 51,
      "hit": false,
      "t": 54531.25,
      "d": 31.25,
      "v": 100
    },
    {
      "midi": 24,
      "hit": false,
      "t": 54562.5,
      "d": 187.5,
      "v": 100
    },
    {
      "midi": 36,
      "hit": false,
      "t": 54562.5,
      "d": 187.5,
      "v": 100
    },
    {
      "midi": 64,
      "hit": false,
      "t": 54562.5,
      "d": 187.5,
      "v": 100
    },
    {
      "midi": 57,
      "hit": false,
      "t": 54562.5,
      "d": 187.5,
      "v": 100
    },
    {
      "midi": 50,
      "hit": false,
      "t": 54562.5,
      "d": 187.5,
      "v": 100
    },
    {
      "midi": 55,
      "hit": false,
      "t": 54562.5,
      "d": 187.5,
      "v": 100
    },
    {
      "midi": 60,
      "hit": false,
      "t": 54562.5,
      "d": 187.5,
      "v": 100
    },
    {
      "midi": 51,
      "hit": false,
      "t": 54562.5,
      "d": 31.25,
      "v": 100
    },
    {
      "midi": 51,
      "hit": false,
      "t": 54593.75,
      "d": 31.25,
      "v": 100
    },
    {
      "midi": 51,
      "hit": false,
      "t": 54625,
      "d": 31.25,
      "v": 100
    },
    {
      "midi": 51,
      "hit": false,
      "t": 54656.25,
      "d": 31.25,
      "v": 100
    },
    {
      "midi": 51,
      "hit": false,
      "t": 54687.5,
      "d": 31.25,
      "v": 100
    },
    {
      "midi": 51,
      "hit": false,
      "t": 54718.75,
      "d": 31.25,
      "v": 100
    },
    {
      "midi": 57,
      "hit": false,
      "t": 54750,
      "d": 187.5,
      "v": 100
    },
    {
      "midi": 65,
      "hit": false,
      "t": 54750,
      "d": 375,
      "v": 100
    },
    {
      "midi": 24,
      "hit": false,
      "t": 54750,
      "d": 187.5,
      "v": 100
    },
    {
      "midi": 36,
      "hit": false,
      "t": 54750,
      "d": 187.5,
      "v": 100
    },
    {
      "midi": 64,
      "hit": false,
      "t": 54750,
      "d": 187.5,
      "v": 100
    },
    {
      "midi": 57,
      "hit": false,
      "t": 54750,
      "d": 187.5,
      "v": 100
    },
    {
      "midi": 50,
      "hit": false,
      "t": 54750,
      "d": 187.5,
      "v": 100
    },
    {
      "midi": 55,
      "hit": false,
      "t": 54750,
      "d": 187.5,
      "v": 100
    },
    {
      "midi": 60,
      "hit": false,
      "t": 54750,
      "d": 187.5,
      "v": 100
    },
    {
      "midi": 51,
      "hit": false,
      "t": 54750,
      "d": 31.25,
      "v": 100
    },
    {
      "midi": 51,
      "hit": false,
      "t": 54781.25,
      "d": 31.25,
      "v": 100
    },
    {
      "midi": 51,
      "hit": false,
      "t": 54812.5,
      "d": 31.25,
      "v": 100
    },
    {
      "midi": 51,
      "hit": false,
      "t": 54843.75,
      "d": 31.25,
      "v": 100
    },
    {
      "midi": 51,
      "hit": false,
      "t": 54875,
      "d": 31.25,
      "v": 100
    },
    {
      "midi": 51,
      "hit": false,
      "t": 54906.25,
      "d": 31.25,
      "v": 100
    },
    {
      "midi": 24,
      "hit": false,
      "t": 54937.5,
      "d": 187.5,
      "v": 100
    },
    {
      "midi": 36,
      "hit": false,
      "t": 54937.5,
      "d": 187.5,
      "v": 100
    },
    {
      "midi": 64,
      "hit": false,
      "t": 54937.5,
      "d": 187.5,
      "v": 100
    },
    {
      "midi": 57,
      "hit": false,
      "t": 54937.5,
      "d": 187.5,
      "v": 100
    },
    {
      "midi": 50,
      "hit": false,
      "t": 54937.5,
      "d": 187.5,
      "v": 100
    },
    {
      "midi": 55,
      "hit": false,
      "t": 54937.5,
      "d": 187.5,
      "v": 100
    },
    {
      "midi": 60,
      "hit": false,
      "t": 54937.5,
      "d": 187.5,
      "v": 100
    },
    {
      "midi": 51,
      "hit": false,
      "t": 54937.5,
      "d": 31.25,
      "v": 100
    },
    {
      "midi": 51,
      "hit": false,
      "t": 54968.75,
      "d": 31.25,
      "v": 100
    },
    {
      "midi": 51,
      "hit": false,
      "t": 55000,
      "d": 31.25,
      "v": 100
    },
    {
      "midi": 51,
      "hit": false,
      "t": 55031.25,
      "d": 31.25,
      "v": 100
    },
    {
      "midi": 51,
      "hit": false,
      "t": 55062.5,
      "d": 31.25,
      "v": 100
    },
    {
      "midi": 51,
      "hit": false,
      "t": 55093.75,
      "d": 31.25,
      "v": 100
    },
    {
      "midi": 62,
      "hit": false,
      "t": 55125,
      "d": 375,
      "v": 100
    },
    {
      "midi": 24,
      "hit": false,
      "t": 55125,
      "d": 187.5,
      "v": 100
    },
    {
      "midi": 36,
      "hit": false,
      "t": 55125,
      "d": 187.5,
      "v": 100
    },
    {
      "midi": 64,
      "hit": false,
      "t": 55125,
      "d": 187.5,
      "v": 100
    },
    {
      "midi": 57,
      "hit": false,
      "t": 55125,
      "d": 187.5,
      "v": 100
    },
    {
      "midi": 50,
      "hit": false,
      "t": 55125,
      "d": 187.5,
      "v": 100
    },
    {
      "midi": 55,
      "hit": false,
      "t": 55125,
      "d": 187.5,
      "v": 100
    },
    {
      "midi": 60,
      "hit": false,
      "t": 55125,
      "d": 187.5,
      "v": 100
    },
    {
      "midi": 51,
      "hit": false,
      "t": 55125,
      "d": 31.25,
      "v": 100
    },
    {
      "midi": 51,
      "hit": false,
      "t": 55156.25,
      "d": 31.25,
      "v": 100
    },
    {
      "midi": 51,
      "hit": false,
      "t": 55187.5,
      "d": 31.25,
      "v": 100
    },
    {
      "midi": 51,
      "hit": false,
      "t": 55218.75,
      "d": 31.25,
      "v": 100
    },
    {
      "midi": 51,
      "hit": false,
      "t": 55250,
      "d": 31.25,
      "v": 100
    },
    {
      "midi": 51,
      "hit": false,
      "t": 55281.25,
      "d": 31.25,
      "v": 100
    },
    {
      "midi": 24,
      "hit": false,
      "t": 55312.5,
      "d": 187.5,
      "v": 100
    },
    {
      "midi": 36,
      "hit": false,
      "t": 55312.5,
      "d": 187.5,
      "v": 100
    },
    {
      "midi": 50,
      "hit": false,
      "t": 55312.5,
      "d": 187.5,
      "v": 100
    },
    {
      "midi": 60,
      "hit": false,
      "t": 55312.5,
      "d": 187.5,
      "v": 100
    },
    {
      "midi": 55,
      "hit": false,
      "t": 55312.5,
      "d": 187.5,
      "v": 100
    },
    {
      "midi": 57,
      "hit": false,
      "t": 55312.5,
      "d": 187.5,
      "v": 100
    },
    {
      "midi": 64,
      "hit": false,
      "t": 55312.5,
      "d": 187.5,
      "v": 100
    },
    {
      "midi": 51,
      "hit": false,
      "t": 55312.5,
      "d": 31.25,
      "v": 100
    },
    {
      "midi": 51,
      "hit": false,
      "t": 55343.75,
      "d": 31.25,
      "v": 100
    },
    {
      "midi": 51,
      "hit": false,
      "t": 55375,
      "d": 31.25,
      "v": 100
    },
    {
      "midi": 51,
      "hit": false,
      "t": 55406.25,
      "d": 31.25,
      "v": 100
    },
    {
      "midi": 51,
      "hit": false,
      "t": 55437.5,
      "d": 31.25,
      "v": 100
    },
    {
      "midi": 51,
      "hit": false,
      "t": 55468.75,
      "d": 31.25,
      "v": 100
    },
    {
      "midi": 64,
      "hit": false,
      "t": 55500,
      "d": 187.5,
      "v": 100
    },
    {
      "midi": 19,
      "hit": false,
      "t": 55500,
      "d": 187.5,
      "v": 100
    },
    {
      "midi": 43,
      "hit": false,
      "t": 55500,
      "d": 187.5,
      "v": 100
    },
    {
      "midi": 31,
      "hit": false,
      "t": 55500,
      "d": 187.5,
      "v": 100
    },
    {
      "midi": 54,
      "hit": false,
      "t": 55500,
      "d": 375,
      "v": 100
    },
    {
      "midi": 51,
      "hit": false,
      "t": 55500,
      "d": 31.25,
      "v": 100
    },
    {
      "midi": 51,
      "hit": false,
      "t": 55531.25,
      "d": 31.25,
      "v": 100
    },
    {
      "midi": 51,
      "hit": false,
      "t": 55562.5,
      "d": 31.25,
      "v": 100
    },
    {
      "midi": 51,
      "hit": false,
      "t": 55593.75,
      "d": 31.25,
      "v": 100
    },
    {
      "midi": 51,
      "hit": false,
      "t": 55625,
      "d": 31.25,
      "v": 100
    },
    {
      "midi": 51,
      "hit": false,
      "t": 55656.25,
      "d": 31.25,
      "v": 100
    },
    {
      "midi": 19,
      "hit": false,
      "t": 55687.5,
      "d": 187.5,
      "v": 100
    },
    {
      "midi": 43,
      "hit": false,
      "t": 55687.5,
      "d": 187.5,
      "v": 100
    },
    {
      "midi": 31,
      "hit": false,
      "t": 55687.5,
      "d": 187.5,
      "v": 100
    },
    {
      "midi": 64,
      "hit": false,
      "t": 55687.5,
      "d": 187.5,
      "v": 100
    },
    {
      "midi": 57,
      "hit": false,
      "t": 55687.5,
      "d": 187.5,
      "v": 100
    },
    {
      "midi": 50,
      "hit": false,
      "t": 55687.5,
      "d": 187.5,
      "v": 100
    },
    {
      "midi": 55,
      "hit": false,
      "t": 55687.5,
      "d": 187.5,
      "v": 100
    },
    {
      "midi": 60,
      "hit": false,
      "t": 55687.5,
      "d": 187.5,
      "v": 100
    },
    {
      "midi": 51,
      "hit": false,
      "t": 55687.5,
      "d": 31.25,
      "v": 100
    },
    {
      "midi": 51,
      "hit": false,
      "t": 55718.75,
      "d": 31.25,
      "v": 100
    },
    {
      "midi": 51,
      "hit": false,
      "t": 55750,
      "d": 31.25,
      "v": 100
    },
    {
      "midi": 51,
      "hit": false,
      "t": 55781.25,
      "d": 31.25,
      "v": 100
    },
    {
      "midi": 51,
      "hit": false,
      "t": 55812.5,
      "d": 31.25,
      "v": 100
    },
    {
      "midi": 51,
      "hit": false,
      "t": 55843.75,
      "d": 31.25,
      "v": 100
    },
    {
      "midi": 57,
      "hit": false,
      "t": 55875,
      "d": 187.5,
      "v": 100
    },
    {
      "midi": 65,
      "hit": false,
      "t": 55875,
      "d": 375,
      "v": 100
    },
    {
      "midi": 24,
      "hit": false,
      "t": 55875,
      "d": 187.5,
      "v": 100
    },
    {
      "midi": 36,
      "hit": false,
      "t": 55875,
      "d": 187.5,
      "v": 100
    },
    {
      "midi": 54,
      "hit": false,
      "t": 55875,
      "d": 375,
      "v": 100
    },
    {
      "midi": 60,
      "hit": false,
      "t": 55875,
      "d": 187.5,
      "v": 100
    },
    {
      "midi": 55,
      "hit": false,
      "t": 55875,
      "d": 187.5,
      "v": 100
    },
    {
      "midi": 64,
      "hit": false,
      "t": 55875,
      "d": 187.5,
      "v": 100
    },
    {
      "midi": 50,
      "hit": false,
      "t": 55875,
      "d": 187.5,
      "v": 100
    },
    {
      "midi": 57,
      "hit": false,
      "t": 55875,
      "d": 187.5,
      "v": 100
    },
    {
      "midi": 51,
      "hit": false,
      "t": 55875,
      "d": 31.25,
      "v": 100
    },
    {
      "midi": 51,
      "hit": false,
      "t": 55906.25,
      "d": 31.25,
      "v": 100
    },
    {
      "midi": 51,
      "hit": false,
      "t": 55937.5,
      "d": 31.25,
      "v": 100
    },
    {
      "midi": 51,
      "hit": false,
      "t": 55968.75,
      "d": 31.25,
      "v": 100
    },
    {
      "midi": 51,
      "hit": false,
      "t": 56000,
      "d": 31.25,
      "v": 100
    },
    {
      "midi": 51,
      "hit": false,
      "t": 56031.25,
      "d": 31.25,
      "v": 100
    },
    {
      "midi": 24,
      "hit": false,
      "t": 56062.5,
      "d": 187.5,
      "v": 100
    },
    {
      "midi": 36,
      "hit": false,
      "t": 56062.5,
      "d": 187.5,
      "v": 100
    },
    {
      "midi": 64,
      "hit": false,
      "t": 56062.5,
      "d": 187.5,
      "v": 100
    },
    {
      "midi": 57,
      "hit": false,
      "t": 56062.5,
      "d": 187.5,
      "v": 100
    },
    {
      "midi": 50,
      "hit": false,
      "t": 56062.5,
      "d": 187.5,
      "v": 100
    },
    {
      "midi": 55,
      "hit": false,
      "t": 56062.5,
      "d": 187.5,
      "v": 100
    },
    {
      "midi": 60,
      "hit": false,
      "t": 56062.5,
      "d": 187.5,
      "v": 100
    },
    {
      "midi": 51,
      "hit": false,
      "t": 56062.5,
      "d": 31.25,
      "v": 100
    },
    {
      "midi": 51,
      "hit": false,
      "t": 56093.75,
      "d": 31.25,
      "v": 100
    },
    {
      "midi": 51,
      "hit": false,
      "t": 56125,
      "d": 31.25,
      "v": 100
    },
    {
      "midi": 51,
      "hit": false,
      "t": 56156.25,
      "d": 31.25,
      "v": 100
    },
    {
      "midi": 51,
      "hit": false,
      "t": 56187.5,
      "d": 31.25,
      "v": 100
    },
    {
      "midi": 51,
      "hit": false,
      "t": 56218.75,
      "d": 31.25,
      "v": 100
    },
    {
      "midi": 62,
      "hit": false,
      "t": 56250,
      "d": 375,
      "v": 100
    },
    {
      "midi": 26,
      "hit": false,
      "t": 56250,
      "d": 187.5,
      "v": 100
    },
    {
      "midi": 40,
      "hit": false,
      "t": 56250,
      "d": 187.5,
      "v": 100
    },
    {
      "midi": 33,
      "hit": false,
      "t": 56250,
      "d": 187.5,
      "v": 100
    },
    {
      "midi": 38,
      "hit": false,
      "t": 56250,
      "d": 187.5,
      "v": 100
    },
    {
      "midi": 62,
      "hit": false,
      "t": 56250,
      "d": 187.5,
      "v": 100
    },
    {
      "midi": 74,
      "hit": false,
      "t": 56250,
      "d": 1125,
      "v": 100
    },
    {
      "midi": 50,
      "hit": false,
      "t": 56250,
      "d": 1125,
      "v": 100
    },
    {
      "midi": 71,
      "hit": false,
      "t": 56250,
      "d": 4500,
      "v": 100
    },
    {
      "midi": 69,
      "hit": false,
      "t": 56250,
      "d": 375,
      "v": 100
    },
    {
      "midi": 65,
      "hit": false,
      "t": 56250,
      "d": 187.5,
      "v": 100
    },
    {
      "midi": 57,
      "hit": false,
      "t": 56250,
      "d": 187.5,
      "v": 100
    },
    {
      "midi": 53,
      "hit": false,
      "t": 56250,
      "d": 187.5,
      "v": 100
    },
    {
      "midi": 64,
      "hit": false,
      "t": 56250,
      "d": 187.5,
      "v": 100
    },
    {
      "midi": 62,
      "hit": false,
      "t": 56250,
      "d": 187.5,
      "v": 100
    },
    {
      "midi": 72,
      "hit": false,
      "t": 56250,
      "d": 187.5,
      "v": 100
    },
    {
      "midi": 55,
      "hit": false,
      "t": 56250,
      "d": 1125,
      "v": 100
    },
    {
      "midi": 26,
      "hit": false,
      "t": 56437.5,
      "d": 187.5,
      "v": 100
    },
    {
      "midi": 40,
      "hit": false,
      "t": 56437.5,
      "d": 187.5,
      "v": 100
    },
    {
      "midi": 33,
      "hit": false,
      "t": 56437.5,
      "d": 187.5,
      "v": 100
    },
    {
      "midi": 38,
      "hit": false,
      "t": 56437.5,
      "d": 187.5,
      "v": 100
    },
    {
      "midi": 71,
      "hit": false,
      "t": 56437.5,
      "d": 187.5,
      "v": 100
    },
    {
      "midi": 69,
      "hit": false,
      "t": 56625,
      "d": 187.5,
      "v": 100
    },
    {
      "midi": 26,
      "hit": false,
      "t": 56625,
      "d": 187.5,
      "v": 100
    },
    {
      "midi": 40,
      "hit": false,
      "t": 56625,
      "d": 187.5,
      "v": 100
    },
    {
      "midi": 33,
      "hit": false,
      "t": 56625,
      "d": 187.5,
      "v": 100
    },
    {
      "midi": 38,
      "hit": false,
      "t": 56625,
      "d": 187.5,
      "v": 100
    },
    {
      "midi": 54,
      "hit": false,
      "t": 56625,
      "d": 375,
      "v": 100
    },
    {
      "midi": 65,
      "hit": false,
      "t": 56625,
      "d": 187.5,
      "v": 100
    },
    {
      "midi": 57,
      "hit": false,
      "t": 56625,
      "d": 187.5,
      "v": 100
    },
    {
      "midi": 53,
      "hit": false,
      "t": 56625,
      "d": 187.5,
      "v": 100
    },
    {
      "midi": 64,
      "hit": false,
      "t": 56625,
      "d": 187.5,
      "v": 100
    },
    {
      "midi": 62,
      "hit": false,
      "t": 56625,
      "d": 187.5,
      "v": 100
    },
    {
      "midi": 72,
      "hit": false,
      "t": 56625,
      "d": 187.5,
      "v": 100
    },
    {
      "midi": 26,
      "hit": false,
      "t": 56812.5,
      "d": 187.5,
      "v": 100
    },
    {
      "midi": 38,
      "hit": false,
      "t": 56812.5,
      "d": 187.5,
      "v": 100
    },
    {
      "midi": 33,
      "hit": false,
      "t": 56812.5,
      "d": 187.5,
      "v": 100
    },
    {
      "midi": 40,
      "hit": false,
      "t": 56812.5,
      "d": 187.5,
      "v": 100
    },
    {
      "midi": 65,
      "hit": false,
      "t": 56812.5,
      "d": 187.5,
      "v": 100
    },
    {
      "midi": 57,
      "hit": false,
      "t": 56812.5,
      "d": 187.5,
      "v": 100
    },
    {
      "midi": 53,
      "hit": false,
      "t": 56812.5,
      "d": 187.5,
      "v": 100
    },
    {
      "midi": 64,
      "hit": false,
      "t": 56812.5,
      "d": 187.5,
      "v": 100
    },
    {
      "midi": 62,
      "hit": false,
      "t": 56812.5,
      "d": 187.5,
      "v": 100
    },
    {
      "midi": 74,
      "hit": false,
      "t": 56812.5,
      "d": 187.5,
      "v": 100
    },
    {
      "midi": 65,
      "hit": false,
      "t": 57000,
      "d": 187.5,
      "v": 100
    },
    {
      "midi": 26,
      "hit": false,
      "t": 57000,
      "d": 187.5,
      "v": 100
    },
    {
      "midi": 40,
      "hit": false,
      "t": 57000,
      "d": 187.5,
      "v": 100
    },
    {
      "midi": 33,
      "hit": false,
      "t": 57000,
      "d": 187.5,
      "v": 100
    },
    {
      "midi": 38,
      "hit": false,
      "t": 57000,
      "d": 187.5,
      "v": 100
    },
    {
      "midi": 65,
      "hit": false,
      "t": 57000,
      "d": 187.5,
      "v": 100
    },
    {
      "midi": 57,
      "hit": false,
      "t": 57000,
      "d": 187.5,
      "v": 100
    },
    {
      "midi": 53,
      "hit": false,
      "t": 57000,
      "d": 187.5,
      "v": 100
    },
    {
      "midi": 64,
      "hit": false,
      "t": 57000,
      "d": 187.5,
      "v": 100
    },
    {
      "midi": 62,
      "hit": false,
      "t": 57000,
      "d": 187.5,
      "v": 100
    },
    {
      "midi": 69,
      "hit": false,
      "t": 57000,
      "d": 375,
      "v": 100
    },
    {
      "midi": 26,
      "hit": false,
      "t": 57187.5,
      "d": 187.5,
      "v": 100
    },
    {
      "midi": 40,
      "hit": false,
      "t": 57187.5,
      "d": 187.5,
      "v": 100
    },
    {
      "midi": 33,
      "hit": false,
      "t": 57187.5,
      "d": 187.5,
      "v": 100
    },
    {
      "midi": 38,
      "hit": false,
      "t": 57187.5,
      "d": 187.5,
      "v": 100
    },
    {
      "midi": 65,
      "hit": false,
      "t": 57187.5,
      "d": 187.5,
      "v": 100
    },
    {
      "midi": 57,
      "hit": false,
      "t": 57187.5,
      "d": 187.5,
      "v": 100
    },
    {
      "midi": 53,
      "hit": false,
      "t": 57187.5,
      "d": 187.5,
      "v": 100
    },
    {
      "midi": 64,
      "hit": false,
      "t": 57187.5,
      "d": 187.5,
      "v": 100
    },
    {
      "midi": 62,
      "hit": false,
      "t": 57187.5,
      "d": 187.5,
      "v": 100
    },
    {
      "midi": 62,
      "hit": false,
      "t": 57375,
      "d": 375,
      "v": 100
    },
    {
      "midi": 26,
      "hit": false,
      "t": 57375,
      "d": 187.5,
      "v": 100
    },
    {
      "midi": 40,
      "hit": false,
      "t": 57375,
      "d": 187.5,
      "v": 100
    },
    {
      "midi": 33,
      "hit": false,
      "t": 57375,
      "d": 187.5,
      "v": 100
    },
    {
      "midi": 38,
      "hit": false,
      "t": 57375,
      "d": 187.5,
      "v": 100
    },
    {
      "midi": 65,
      "hit": false,
      "t": 57375,
      "d": 187.5,
      "v": 100
    },
    {
      "midi": 57,
      "hit": false,
      "t": 57375,
      "d": 187.5,
      "v": 100
    },
    {
      "midi": 53,
      "hit": false,
      "t": 57375,
      "d": 187.5,
      "v": 100
    },
    {
      "midi": 64,
      "hit": false,
      "t": 57375,
      "d": 187.5,
      "v": 100
    },
    {
      "midi": 62,
      "hit": false,
      "t": 57375,
      "d": 187.5,
      "v": 100
    },
    {
      "midi": 26,
      "hit": false,
      "t": 57562.5,
      "d": 187.5,
      "v": 100
    },
    {
      "midi": 40,
      "hit": false,
      "t": 57562.5,
      "d": 187.5,
      "v": 100
    },
    {
      "midi": 33,
      "hit": false,
      "t": 57562.5,
      "d": 187.5,
      "v": 100
    },
    {
      "midi": 38,
      "hit": false,
      "t": 57562.5,
      "d": 187.5,
      "v": 100
    },
    {
      "midi": 69,
      "hit": false,
      "t": 57750,
      "d": 187.5,
      "v": 100
    },
    {
      "midi": 26,
      "hit": false,
      "t": 57750,
      "d": 187.5,
      "v": 100
    },
    {
      "midi": 40,
      "hit": false,
      "t": 57750,
      "d": 187.5,
      "v": 100
    },
    {
      "midi": 33,
      "hit": false,
      "t": 57750,
      "d": 187.5,
      "v": 100
    },
    {
      "midi": 38,
      "hit": false,
      "t": 57750,
      "d": 187.5,
      "v": 100
    },
    {
      "midi": 54,
      "hit": false,
      "t": 57750,
      "d": 375,
      "v": 100
    },
    {
      "midi": 65,
      "hit": false,
      "t": 57750,
      "d": 187.5,
      "v": 100
    },
    {
      "midi": 57,
      "hit": false,
      "t": 57750,
      "d": 187.5,
      "v": 100
    },
    {
      "midi": 53,
      "hit": false,
      "t": 57750,
      "d": 187.5,
      "v": 100
    },
    {
      "midi": 64,
      "hit": false,
      "t": 57750,
      "d": 187.5,
      "v": 100
    },
    {
      "midi": 62,
      "hit": false,
      "t": 57750,
      "d": 187.5,
      "v": 100
    },
    {
      "midi": 26,
      "hit": false,
      "t": 57937.5,
      "d": 187.5,
      "v": 100
    },
    {
      "midi": 38,
      "hit": false,
      "t": 57937.5,
      "d": 187.5,
      "v": 100
    },
    {
      "midi": 33,
      "hit": false,
      "t": 57937.5,
      "d": 187.5,
      "v": 100
    },
    {
      "midi": 40,
      "hit": false,
      "t": 57937.5,
      "d": 187.5,
      "v": 100
    },
    {
      "midi": 65,
      "hit": false,
      "t": 57937.5,
      "d": 187.5,
      "v": 100
    },
    {
      "midi": 57,
      "hit": false,
      "t": 57937.5,
      "d": 187.5,
      "v": 100
    },
    {
      "midi": 53,
      "hit": false,
      "t": 57937.5,
      "d": 187.5,
      "v": 100
    },
    {
      "midi": 64,
      "hit": false,
      "t": 57937.5,
      "d": 187.5,
      "v": 100
    },
    {
      "midi": 62,
      "hit": false,
      "t": 57937.5,
      "d": 187.5,
      "v": 100
    },
    {
      "midi": 65,
      "hit": false,
      "t": 58125,
      "d": 187.5,
      "v": 100
    },
    {
      "midi": 33,
      "hit": false,
      "t": 58125,
      "d": 187.5,
      "v": 100
    },
    {
      "midi": 21,
      "hit": false,
      "t": 58125,
      "d": 187.5,
      "v": 100
    },
    {
      "midi": 45,
      "hit": false,
      "t": 58125,
      "d": 187.5,
      "v": 100
    },
    {
      "midi": 54,
      "hit": false,
      "t": 58125,
      "d": 375,
      "v": 100
    },
    {
      "midi": 65,
      "hit": false,
      "t": 58125,
      "d": 187.5,
      "v": 100
    },
    {
      "midi": 57,
      "hit": false,
      "t": 58125,
      "d": 187.5,
      "v": 100
    },
    {
      "midi": 53,
      "hit": false,
      "t": 58125,
      "d": 187.5,
      "v": 100
    },
    {
      "midi": 64,
      "hit": false,
      "t": 58125,
      "d": 187.5,
      "v": 100
    },
    {
      "midi": 62,
      "hit": false,
      "t": 58125,
      "d": 187.5,
      "v": 100
    },
    {
      "midi": 69,
      "hit": false,
      "t": 58125,
      "d": 187.5,
      "v": 100
    },
    {
      "midi": 21,
      "hit": false,
      "t": 58312.5,
      "d": 187.5,
      "v": 100
    },
    {
      "midi": 33,
      "hit": false,
      "t": 58312.5,
      "d": 187.5,
      "v": 100
    },
    {
      "midi": 45,
      "hit": false,
      "t": 58312.5,
      "d": 187.5,
      "v": 100
    },
    {
      "midi": 65,
      "hit": false,
      "t": 58312.5,
      "d": 187.5,
      "v": 100
    },
    {
      "midi": 57,
      "hit": false,
      "t": 58312.5,
      "d": 187.5,
      "v": 100
    },
    {
      "midi": 53,
      "hit": false,
      "t": 58312.5,
      "d": 187.5,
      "v": 100
    },
    {
      "midi": 64,
      "hit": false,
      "t": 58312.5,
      "d": 187.5,
      "v": 100
    },
    {
      "midi": 62,
      "hit": false,
      "t": 58312.5,
      "d": 187.5,
      "v": 100
    },
    {
      "midi": 71,
      "hit": false,
      "t": 58312.5,
      "d": 187.5,
      "v": 100
    },
    {
      "midi": 62,
      "hit": false,
      "t": 58500,
      "d": 375,
      "v": 100
    },
    {
      "midi": 26,
      "hit": false,
      "t": 58500,
      "d": 187.5,
      "v": 100
    },
    {
      "midi": 40,
      "hit": false,
      "t": 58500,
      "d": 187.5,
      "v": 100
    },
    {
      "midi": 33,
      "hit": false,
      "t": 58500,
      "d": 187.5,
      "v": 100
    },
    {
      "midi": 38,
      "hit": false,
      "t": 58500,
      "d": 187.5,
      "v": 100
    },
    {
      "midi": 65,
      "hit": false,
      "t": 58500,
      "d": 187.5,
      "v": 100
    },
    {
      "midi": 57,
      "hit": false,
      "t": 58500,
      "d": 187.5,
      "v": 100
    },
    {
      "midi": 53,
      "hit": false,
      "t": 58500,
      "d": 187.5,
      "v": 100
    },
    {
      "midi": 64,
      "hit": false,
      "t": 58500,
      "d": 187.5,
      "v": 100
    },
    {
      "midi": 62,
      "hit": false,
      "t": 58500,
      "d": 187.5,
      "v": 100
    },
    {
      "midi": 72,
      "hit": false,
      "t": 58500,
      "d": 187.5,
      "v": 100
    },
    {
      "midi": 26,
      "hit": false,
      "t": 58687.5,
      "d": 187.5,
      "v": 100
    },
    {
      "midi": 40,
      "hit": false,
      "t": 58687.5,
      "d": 187.5,
      "v": 100
    },
    {
      "midi": 33,
      "hit": false,
      "t": 58687.5,
      "d": 187.5,
      "v": 100
    },
    {
      "midi": 38,
      "hit": false,
      "t": 58687.5,
      "d": 187.5,
      "v": 100
    },
    {
      "midi": 71,
      "hit": false,
      "t": 58687.5,
      "d": 187.5,
      "v": 100
    },
    {
      "midi": 69,
      "hit": false,
      "t": 58875,
      "d": 187.5,
      "v": 100
    },
    {
      "midi": 26,
      "hit": false,
      "t": 58875,
      "d": 187.5,
      "v": 100
    },
    {
      "midi": 40,
      "hit": false,
      "t": 58875,
      "d": 187.5,
      "v": 100
    },
    {
      "midi": 33,
      "hit": false,
      "t": 58875,
      "d": 187.5,
      "v": 100
    },
    {
      "midi": 38,
      "hit": false,
      "t": 58875,
      "d": 187.5,
      "v": 100
    },
    {
      "midi": 54,
      "hit": false,
      "t": 58875,
      "d": 375,
      "v": 100
    },
    {
      "midi": 65,
      "hit": false,
      "t": 58875,
      "d": 187.5,
      "v": 100
    },
    {
      "midi": 57,
      "hit": false,
      "t": 58875,
      "d": 187.5,
      "v": 100
    },
    {
      "midi": 53,
      "hit": false,
      "t": 58875,
      "d": 187.5,
      "v": 100
    },
    {
      "midi": 64,
      "hit": false,
      "t": 58875,
      "d": 187.5,
      "v": 100
    },
    {
      "midi": 62,
      "hit": false,
      "t": 58875,
      "d": 187.5,
      "v": 100
    },
    {
      "midi": 72,
      "hit": false,
      "t": 58875,
      "d": 187.5,
      "v": 100
    },
    {
      "midi": 26,
      "hit": false,
      "t": 59062.5,
      "d": 187.5,
      "v": 100
    },
    {
      "midi": 38,
      "hit": false,
      "t": 59062.5,
      "d": 187.5,
      "v": 100
    },
    {
      "midi": 33,
      "hit": false,
      "t": 59062.5,
      "d": 187.5,
      "v": 100
    },
    {
      "midi": 40,
      "hit": false,
      "t": 59062.5,
      "d": 187.5,
      "v": 100
    },
    {
      "midi": 65,
      "hit": false,
      "t": 59062.5,
      "d": 187.5,
      "v": 100
    },
    {
      "midi": 57,
      "hit": false,
      "t": 59062.5,
      "d": 187.5,
      "v": 100
    },
    {
      "midi": 53,
      "hit": false,
      "t": 59062.5,
      "d": 187.5,
      "v": 100
    },
    {
      "midi": 64,
      "hit": false,
      "t": 59062.5,
      "d": 187.5,
      "v": 100
    },
    {
      "midi": 62,
      "hit": false,
      "t": 59062.5,
      "d": 187.5,
      "v": 100
    },
    {
      "midi": 74,
      "hit": false,
      "t": 59062.5,
      "d": 187.5,
      "v": 100
    },
    {
      "midi": 65,
      "hit": false,
      "t": 59250,
      "d": 187.5,
      "v": 100
    },
    {
      "midi": 26,
      "hit": false,
      "t": 59250,
      "d": 187.5,
      "v": 100
    },
    {
      "midi": 40,
      "hit": false,
      "t": 59250,
      "d": 187.5,
      "v": 100
    },
    {
      "midi": 33,
      "hit": false,
      "t": 59250,
      "d": 187.5,
      "v": 100
    },
    {
      "midi": 38,
      "hit": false,
      "t": 59250,
      "d": 187.5,
      "v": 100
    },
    {
      "midi": 65,
      "hit": false,
      "t": 59250,
      "d": 187.5,
      "v": 100
    },
    {
      "midi": 57,
      "hit": false,
      "t": 59250,
      "d": 187.5,
      "v": 100
    },
    {
      "midi": 53,
      "hit": false,
      "t": 59250,
      "d": 187.5,
      "v": 100
    },
    {
      "midi": 64,
      "hit": false,
      "t": 59250,
      "d": 187.5,
      "v": 100
    },
    {
      "midi": 62,
      "hit": false,
      "t": 59250,
      "d": 187.5,
      "v": 100
    },
    {
      "midi": 69,
      "hit": false,
      "t": 59250,
      "d": 375,
      "v": 100
    },
    {
      "midi": 26,
      "hit": false,
      "t": 59437.5,
      "d": 187.5,
      "v": 100
    },
    {
      "midi": 40,
      "hit": false,
      "t": 59437.5,
      "d": 187.5,
      "v": 100
    },
    {
      "midi": 33,
      "hit": false,
      "t": 59437.5,
      "d": 187.5,
      "v": 100
    },
    {
      "midi": 38,
      "hit": false,
      "t": 59437.5,
      "d": 187.5,
      "v": 100
    },
    {
      "midi": 65,
      "hit": false,
      "t": 59437.5,
      "d": 187.5,
      "v": 100
    },
    {
      "midi": 57,
      "hit": false,
      "t": 59437.5,
      "d": 187.5,
      "v": 100
    },
    {
      "midi": 53,
      "hit": false,
      "t": 59437.5,
      "d": 187.5,
      "v": 100
    },
    {
      "midi": 64,
      "hit": false,
      "t": 59437.5,
      "d": 187.5,
      "v": 100
    },
    {
      "midi": 62,
      "hit": false,
      "t": 59437.5,
      "d": 187.5,
      "v": 100
    },
    {
      "midi": 69,
      "hit": false,
      "t": 59625,
      "d": 375,
      "v": 100
    },
    {
      "midi": 26,
      "hit": false,
      "t": 59625,
      "d": 187.5,
      "v": 100
    },
    {
      "midi": 40,
      "hit": false,
      "t": 59625,
      "d": 187.5,
      "v": 100
    },
    {
      "midi": 33,
      "hit": false,
      "t": 59625,
      "d": 187.5,
      "v": 100
    },
    {
      "midi": 38,
      "hit": false,
      "t": 59625,
      "d": 187.5,
      "v": 100
    },
    {
      "midi": 65,
      "hit": false,
      "t": 59625,
      "d": 187.5,
      "v": 100
    },
    {
      "midi": 57,
      "hit": false,
      "t": 59625,
      "d": 187.5,
      "v": 100
    },
    {
      "midi": 53,
      "hit": false,
      "t": 59625,
      "d": 187.5,
      "v": 100
    },
    {
      "midi": 64,
      "hit": false,
      "t": 59625,
      "d": 187.5,
      "v": 100
    },
    {
      "midi": 62,
      "hit": false,
      "t": 59625,
      "d": 187.5,
      "v": 100
    },
    {
      "midi": 26,
      "hit": false,
      "t": 59812.5,
      "d": 187.5,
      "v": 100
    },
    {
      "midi": 40,
      "hit": false,
      "t": 59812.5,
      "d": 187.5,
      "v": 100
    },
    {
      "midi": 33,
      "hit": false,
      "t": 59812.5,
      "d": 187.5,
      "v": 100
    },
    {
      "midi": 38,
      "hit": false,
      "t": 59812.5,
      "d": 187.5,
      "v": 100
    },
    {
      "midi": 65,
      "hit": false,
      "t": 60000,
      "d": 187.5,
      "v": 100
    },
    {
      "midi": 33,
      "hit": false,
      "t": 60000,
      "d": 187.5,
      "v": 100
    },
    {
      "midi": 45,
      "hit": false,
      "t": 60000,
      "d": 187.5,
      "v": 100
    },
    {
      "midi": 40,
      "hit": false,
      "t": 60000,
      "d": 187.5,
      "v": 100
    },
    {
      "midi": 54,
      "hit": false,
      "t": 60000,
      "d": 375,
      "v": 100
    },
    {
      "midi": 65,
      "hit": false,
      "t": 60000,
      "d": 187.5,
      "v": 100
    },
    {
      "midi": 57,
      "hit": false,
      "t": 60000,
      "d": 187.5,
      "v": 100
    },
    {
      "midi": 53,
      "hit": false,
      "t": 60000,
      "d": 187.5,
      "v": 100
    },
    {
      "midi": 64,
      "hit": false,
      "t": 60000,
      "d": 187.5,
      "v": 100
    },
    {
      "midi": 62,
      "hit": false,
      "t": 60000,
      "d": 187.5,
      "v": 100
    },
    {
      "midi": 33,
      "hit": false,
      "t": 60187.5,
      "d": 187.5,
      "v": 100
    },
    {
      "midi": 45,
      "hit": false,
      "t": 60187.5,
      "d": 187.5,
      "v": 100
    },
    {
      "midi": 40,
      "hit": false,
      "t": 60187.5,
      "d": 187.5,
      "v": 100
    },
    {
      "midi": 65,
      "hit": false,
      "t": 60187.5,
      "d": 187.5,
      "v": 100
    },
    {
      "midi": 57,
      "hit": false,
      "t": 60187.5,
      "d": 187.5,
      "v": 100
    },
    {
      "midi": 53,
      "hit": false,
      "t": 60187.5,
      "d": 187.5,
      "v": 100
    },
    {
      "midi": 64,
      "hit": false,
      "t": 60187.5,
      "d": 187.5,
      "v": 100
    },
    {
      "midi": 62,
      "hit": false,
      "t": 60187.5,
      "d": 187.5,
      "v": 100
    },
    {
      "midi": 62,
      "hit": false,
      "t": 60375,
      "d": 187.5,
      "v": 100
    },
    {
      "midi": 26,
      "hit": false,
      "t": 60375,
      "d": 187.5,
      "v": 100
    },
    {
      "midi": 40,
      "hit": false,
      "t": 60375,
      "d": 187.5,
      "v": 100
    },
    {
      "midi": 33,
      "hit": false,
      "t": 60375,
      "d": 187.5,
      "v": 100
    },
    {
      "midi": 38,
      "hit": false,
      "t": 60375,
      "d": 187.5,
      "v": 100
    },
    {
      "midi": 54,
      "hit": false,
      "t": 60375,
      "d": 375,
      "v": 100
    },
    {
      "midi": 65,
      "hit": false,
      "t": 60375,
      "d": 187.5,
      "v": 100
    },
    {
      "midi": 57,
      "hit": false,
      "t": 60375,
      "d": 187.5,
      "v": 100
    },
    {
      "midi": 53,
      "hit": false,
      "t": 60375,
      "d": 187.5,
      "v": 100
    },
    {
      "midi": 64,
      "hit": false,
      "t": 60375,
      "d": 187.5,
      "v": 100
    },
    {
      "midi": 62,
      "hit": false,
      "t": 60375,
      "d": 187.5,
      "v": 100
    },
    {
      "midi": 26,
      "hit": false,
      "t": 60562.5,
      "d": 187.5,
      "v": 100
    },
    {
      "midi": 40,
      "hit": false,
      "t": 60562.5,
      "d": 187.5,
      "v": 100
    },
    {
      "midi": 33,
      "hit": false,
      "t": 60562.5,
      "d": 187.5,
      "v": 100
    },
    {
      "midi": 38,
      "hit": false,
      "t": 60562.5,
      "d": 187.5,
      "v": 100
    },
    {
      "midi": 65,
      "hit": false,
      "t": 60562.5,
      "d": 187.5,
      "v": 100
    },
    {
      "midi": 57,
      "hit": false,
      "t": 60562.5,
      "d": 187.5,
      "v": 100
    },
    {
      "midi": 53,
      "hit": false,
      "t": 60562.5,
      "d": 187.5,
      "v": 100
    },
    {
      "midi": 64,
      "hit": false,
      "t": 60562.5,
      "d": 187.5,
      "v": 100
    },
    {
      "midi": 62,
      "hit": false,
      "t": 60562.5,
      "d": 187.5,
      "v": 100
    },
    {
      "midi": 62,
      "hit": false,
      "t": 60750,
      "d": 375,
      "v": 100
    },
    {
      "midi": 24,
      "hit": false,
      "t": 60750,
      "d": 187.5,
      "v": 100
    },
    {
      "midi": 36,
      "hit": false,
      "t": 60750,
      "d": 187.5,
      "v": 100
    },
    {
      "midi": 60,
      "hit": false,
      "t": 60750,
      "d": 187.5,
      "v": 100
    },
    {
      "midi": 72,
      "hit": false,
      "t": 60750,
      "d": 1125,
      "v": 100
    },
    {
      "midi": 48,
      "hit": false,
      "t": 60750,
      "d": 1125,
      "v": 100
    },
    {
      "midi": 60,
      "hit": false,
      "t": 60750,
      "d": 4500,
      "v": 100
    },
    {
      "midi": 50,
      "hit": false,
      "t": 60750,
      "d": 9000,
      "v": 100
    },
    {
      "midi": 64,
      "hit": false,
      "t": 60750,
      "d": 187.5,
      "v": 100
    },
    {
      "midi": 57,
      "hit": false,
      "t": 60750,
      "d": 187.5,
      "v": 100
    },
    {
      "midi": 50,
      "hit": false,
      "t": 60750,
      "d": 187.5,
      "v": 100
    },
    {
      "midi": 55,
      "hit": false,
      "t": 60750,
      "d": 187.5,
      "v": 100
    },
    {
      "midi": 60,
      "hit": false,
      "t": 60750,
      "d": 187.5,
      "v": 100
    },
    {
      "midi": 24,
      "hit": false,
      "t": 60937.5,
      "d": 187.5,
      "v": 100
    },
    {
      "midi": 36,
      "hit": false,
      "t": 60937.5,
      "d": 187.5,
      "v": 100
    },
    {
      "midi": 64,
      "hit": false,
      "t": 61125,
      "d": 187.5,
      "v": 100
    },
    {
      "midi": 24,
      "hit": false,
      "t": 61125,
      "d": 187.5,
      "v": 100
    },
    {
      "midi": 36,
      "hit": false,
      "t": 61125,
      "d": 187.5,
      "v": 100
    },
    {
      "midi": 54,
      "hit": false,
      "t": 61125,
      "d": 375,
      "v": 100
    },
    {
      "midi": 64,
      "hit": false,
      "t": 61125,
      "d": 187.5,
      "v": 100
    },
    {
      "midi": 57,
      "hit": false,
      "t": 61125,
      "d": 187.5,
      "v": 100
    },
    {
      "midi": 50,
      "hit": false,
      "t": 61125,
      "d": 187.5,
      "v": 100
    },
    {
      "midi": 55,
      "hit": false,
      "t": 61125,
      "d": 187.5,
      "v": 100
    },
    {
      "midi": 60,
      "hit": false,
      "t": 61125,
      "d": 187.5,
      "v": 100
    },
    {
      "midi": 24,
      "hit": false,
      "t": 61312.5,
      "d": 187.5,
      "v": 100
    },
    {
      "midi": 36,
      "hit": false,
      "t": 61312.5,
      "d": 187.5,
      "v": 100
    },
    {
      "midi": 64,
      "hit": false,
      "t": 61312.5,
      "d": 187.5,
      "v": 100
    },
    {
      "midi": 57,
      "hit": false,
      "t": 61312.5,
      "d": 187.5,
      "v": 100
    },
    {
      "midi": 50,
      "hit": false,
      "t": 61312.5,
      "d": 187.5,
      "v": 100
    },
    {
      "midi": 55,
      "hit": false,
      "t": 61312.5,
      "d": 187.5,
      "v": 100
    },
    {
      "midi": 60,
      "hit": false,
      "t": 61312.5,
      "d": 187.5,
      "v": 100
    },
    {
      "midi": 57,
      "hit": false,
      "t": 61500,
      "d": 187.5,
      "v": 100
    },
    {
      "midi": 65,
      "hit": false,
      "t": 61500,
      "d": 375,
      "v": 100
    },
    {
      "midi": 24,
      "hit": false,
      "t": 61500,
      "d": 187.5,
      "v": 100
    },
    {
      "midi": 36,
      "hit": false,
      "t": 61500,
      "d": 187.5,
      "v": 100
    },
    {
      "midi": 64,
      "hit": false,
      "t": 61500,
      "d": 187.5,
      "v": 100
    },
    {
      "midi": 57,
      "hit": false,
      "t": 61500,
      "d": 187.5,
      "v": 100
    },
    {
      "midi": 50,
      "hit": false,
      "t": 61500,
      "d": 187.5,
      "v": 100
    },
    {
      "midi": 55,
      "hit": false,
      "t": 61500,
      "d": 187.5,
      "v": 100
    },
    {
      "midi": 60,
      "hit": false,
      "t": 61500,
      "d": 187.5,
      "v": 100
    },
    {
      "midi": 24,
      "hit": false,
      "t": 61687.5,
      "d": 187.5,
      "v": 100
    },
    {
      "midi": 36,
      "hit": false,
      "t": 61687.5,
      "d": 187.5,
      "v": 100
    },
    {
      "midi": 64,
      "hit": false,
      "t": 61687.5,
      "d": 187.5,
      "v": 100
    },
    {
      "midi": 57,
      "hit": false,
      "t": 61687.5,
      "d": 187.5,
      "v": 100
    },
    {
      "midi": 50,
      "hit": false,
      "t": 61687.5,
      "d": 187.5,
      "v": 100
    },
    {
      "midi": 55,
      "hit": false,
      "t": 61687.5,
      "d": 187.5,
      "v": 100
    },
    {
      "midi": 60,
      "hit": false,
      "t": 61687.5,
      "d": 187.5,
      "v": 100
    },
    {
      "midi": 62,
      "hit": false,
      "t": 61875,
      "d": 375,
      "v": 100
    },
    {
      "midi": 24,
      "hit": false,
      "t": 61875,
      "d": 187.5,
      "v": 100
    },
    {
      "midi": 36,
      "hit": false,
      "t": 61875,
      "d": 187.5,
      "v": 100
    },
    {
      "midi": 69,
      "hit": false,
      "t": 61875,
      "d": 7875,
      "v": 100
    },
    {
      "midi": 64,
      "hit": false,
      "t": 61875,
      "d": 187.5,
      "v": 100
    },
    {
      "midi": 57,
      "hit": false,
      "t": 61875,
      "d": 187.5,
      "v": 100
    },
    {
      "midi": 50,
      "hit": false,
      "t": 61875,
      "d": 187.5,
      "v": 100
    },
    {
      "midi": 55,
      "hit": false,
      "t": 61875,
      "d": 187.5,
      "v": 100
    },
    {
      "midi": 60,
      "hit": false,
      "t": 61875,
      "d": 187.5,
      "v": 100
    },
    {
      "midi": 24,
      "hit": false,
      "t": 62062.5,
      "d": 187.5,
      "v": 100
    },
    {
      "midi": 36,
      "hit": false,
      "t": 62062.5,
      "d": 187.5,
      "v": 100
    },
    {
      "midi": 64,
      "hit": false,
      "t": 62250,
      "d": 187.5,
      "v": 100
    },
    {
      "midi": 24,
      "hit": false,
      "t": 62250,
      "d": 187.5,
      "v": 100
    },
    {
      "midi": 36,
      "hit": false,
      "t": 62250,
      "d": 187.5,
      "v": 100
    },
    {
      "midi": 54,
      "hit": false,
      "t": 62250,
      "d": 375,
      "v": 100
    },
    {
      "midi": 64,
      "hit": false,
      "t": 62250,
      "d": 187.5,
      "v": 100
    },
    {
      "midi": 57,
      "hit": false,
      "t": 62250,
      "d": 187.5,
      "v": 100
    },
    {
      "midi": 50,
      "hit": false,
      "t": 62250,
      "d": 187.5,
      "v": 100
    },
    {
      "midi": 55,
      "hit": false,
      "t": 62250,
      "d": 187.5,
      "v": 100
    },
    {
      "midi": 60,
      "hit": false,
      "t": 62250,
      "d": 187.5,
      "v": 100
    },
    {
      "midi": 24,
      "hit": false,
      "t": 62437.5,
      "d": 187.5,
      "v": 100
    },
    {
      "midi": 36,
      "hit": false,
      "t": 62437.5,
      "d": 187.5,
      "v": 100
    },
    {
      "midi": 64,
      "hit": false,
      "t": 62437.5,
      "d": 187.5,
      "v": 100
    },
    {
      "midi": 57,
      "hit": false,
      "t": 62437.5,
      "d": 187.5,
      "v": 100
    },
    {
      "midi": 50,
      "hit": false,
      "t": 62437.5,
      "d": 187.5,
      "v": 100
    },
    {
      "midi": 55,
      "hit": false,
      "t": 62437.5,
      "d": 187.5,
      "v": 100
    },
    {
      "midi": 60,
      "hit": false,
      "t": 62437.5,
      "d": 187.5,
      "v": 100
    },
    {
      "midi": 57,
      "hit": false,
      "t": 62625,
      "d": 187.5,
      "v": 100
    },
    {
      "midi": 65,
      "hit": false,
      "t": 62625,
      "d": 375,
      "v": 100
    },
    {
      "midi": 19,
      "hit": false,
      "t": 62625,
      "d": 187.5,
      "v": 100
    },
    {
      "midi": 31,
      "hit": false,
      "t": 62625,
      "d": 187.5,
      "v": 100
    },
    {
      "midi": 43,
      "hit": false,
      "t": 62625,
      "d": 187.5,
      "v": 100
    },
    {
      "midi": 54,
      "hit": false,
      "t": 62625,
      "d": 375,
      "v": 100
    },
    {
      "midi": 64,
      "hit": false,
      "t": 62625,
      "d": 187.5,
      "v": 100
    },
    {
      "midi": 57,
      "hit": false,
      "t": 62625,
      "d": 187.5,
      "v": 100
    },
    {
      "midi": 50,
      "hit": false,
      "t": 62625,
      "d": 187.5,
      "v": 100
    },
    {
      "midi": 55,
      "hit": false,
      "t": 62625,
      "d": 187.5,
      "v": 100
    },
    {
      "midi": 60,
      "hit": false,
      "t": 62625,
      "d": 187.5,
      "v": 100
    },
    {
      "midi": 19,
      "hit": false,
      "t": 62812.5,
      "d": 187.5,
      "v": 100
    },
    {
      "midi": 31,
      "hit": false,
      "t": 62812.5,
      "d": 187.5,
      "v": 100
    },
    {
      "midi": 43,
      "hit": false,
      "t": 62812.5,
      "d": 187.5,
      "v": 100
    },
    {
      "midi": 64,
      "hit": false,
      "t": 62812.5,
      "d": 187.5,
      "v": 100
    },
    {
      "midi": 57,
      "hit": false,
      "t": 62812.5,
      "d": 187.5,
      "v": 100
    },
    {
      "midi": 50,
      "hit": false,
      "t": 62812.5,
      "d": 187.5,
      "v": 100
    },
    {
      "midi": 55,
      "hit": false,
      "t": 62812.5,
      "d": 187.5,
      "v": 100
    },
    {
      "midi": 60,
      "hit": false,
      "t": 62812.5,
      "d": 187.5,
      "v": 100
    },
    {
      "midi": 62,
      "hit": false,
      "t": 63000,
      "d": 375,
      "v": 100
    },
    {
      "midi": 24,
      "hit": false,
      "t": 63000,
      "d": 187.5,
      "v": 100
    },
    {
      "midi": 36,
      "hit": false,
      "t": 63000,
      "d": 187.5,
      "v": 100
    },
    {
      "midi": 72,
      "hit": false,
      "t": 63000,
      "d": 2250,
      "v": 100
    },
    {
      "midi": 74,
      "hit": false,
      "t": 63000,
      "d": 2250,
      "v": 100
    },
    {
      "midi": 64,
      "hit": false,
      "t": 63000,
      "d": 187.5,
      "v": 100
    },
    {
      "midi": 57,
      "hit": false,
      "t": 63000,
      "d": 187.5,
      "v": 100
    },
    {
      "midi": 50,
      "hit": false,
      "t": 63000,
      "d": 187.5,
      "v": 100
    },
    {
      "midi": 55,
      "hit": false,
      "t": 63000,
      "d": 187.5,
      "v": 100
    },
    {
      "midi": 60,
      "hit": false,
      "t": 63000,
      "d": 187.5,
      "v": 100
    },
    {
      "midi": 79,
      "hit": false,
      "t": 63000,
      "d": 2250,
      "v": 100
    },
    {
      "midi": 51,
      "hit": false,
      "t": 63000,
      "d": 31.25,
      "v": 100
    },
    {
      "midi": 51,
      "hit": false,
      "t": 63031.25,
      "d": 31.25,
      "v": 100
    },
    {
      "midi": 51,
      "hit": false,
      "t": 63062.5,
      "d": 31.25,
      "v": 100
    },
    {
      "midi": 51,
      "hit": false,
      "t": 63093.75,
      "d": 31.25,
      "v": 100
    },
    {
      "midi": 51,
      "hit": false,
      "t": 63125,
      "d": 31.25,
      "v": 100
    },
    {
      "midi": 51,
      "hit": false,
      "t": 63156.25,
      "d": 31.25,
      "v": 100
    },
    {
      "midi": 24,
      "hit": false,
      "t": 63187.5,
      "d": 187.5,
      "v": 100
    },
    {
      "midi": 36,
      "hit": false,
      "t": 63187.5,
      "d": 187.5,
      "v": 100
    },
    {
      "midi": 51,
      "hit": false,
      "t": 63187.5,
      "d": 31.25,
      "v": 100
    },
    {
      "midi": 51,
      "hit": false,
      "t": 63218.75,
      "d": 31.25,
      "v": 100
    },
    {
      "midi": 51,
      "hit": false,
      "t": 63250,
      "d": 31.25,
      "v": 100
    },
    {
      "midi": 51,
      "hit": false,
      "t": 63281.25,
      "d": 31.25,
      "v": 100
    },
    {
      "midi": 51,
      "hit": false,
      "t": 63312.5,
      "d": 31.25,
      "v": 100
    },
    {
      "midi": 51,
      "hit": false,
      "t": 63343.75,
      "d": 31.25,
      "v": 100
    },
    {
      "midi": 64,
      "hit": false,
      "t": 63375,
      "d": 187.5,
      "v": 100
    },
    {
      "midi": 24,
      "hit": false,
      "t": 63375,
      "d": 187.5,
      "v": 100
    },
    {
      "midi": 36,
      "hit": false,
      "t": 63375,
      "d": 187.5,
      "v": 100
    },
    {
      "midi": 54,
      "hit": false,
      "t": 63375,
      "d": 375,
      "v": 100
    },
    {
      "midi": 64,
      "hit": false,
      "t": 63375,
      "d": 187.5,
      "v": 100
    },
    {
      "midi": 57,
      "hit": false,
      "t": 63375,
      "d": 187.5,
      "v": 100
    },
    {
      "midi": 50,
      "hit": false,
      "t": 63375,
      "d": 187.5,
      "v": 100
    },
    {
      "midi": 55,
      "hit": false,
      "t": 63375,
      "d": 187.5,
      "v": 100
    },
    {
      "midi": 60,
      "hit": false,
      "t": 63375,
      "d": 187.5,
      "v": 100
    },
    {
      "midi": 51,
      "hit": false,
      "t": 63375,
      "d": 31.25,
      "v": 100
    },
    {
      "midi": 51,
      "hit": false,
      "t": 63406.25,
      "d": 31.25,
      "v": 100
    },
    {
      "midi": 51,
      "hit": false,
      "t": 63437.5,
      "d": 31.25,
      "v": 100
    },
    {
      "midi": 51,
      "hit": false,
      "t": 63468.75,
      "d": 31.25,
      "v": 100
    },
    {
      "midi": 51,
      "hit": false,
      "t": 63500,
      "d": 31.25,
      "v": 100
    },
    {
      "midi": 51,
      "hit": false,
      "t": 63531.25,
      "d": 31.25,
      "v": 100
    },
    {
      "midi": 24,
      "hit": false,
      "t": 63562.5,
      "d": 187.5,
      "v": 100
    },
    {
      "midi": 36,
      "hit": false,
      "t": 63562.5,
      "d": 187.5,
      "v": 100
    },
    {
      "midi": 64,
      "hit": false,
      "t": 63562.5,
      "d": 187.5,
      "v": 100
    },
    {
      "midi": 57,
      "hit": false,
      "t": 63562.5,
      "d": 187.5,
      "v": 100
    },
    {
      "midi": 50,
      "hit": false,
      "t": 63562.5,
      "d": 187.5,
      "v": 100
    },
    {
      "midi": 55,
      "hit": false,
      "t": 63562.5,
      "d": 187.5,
      "v": 100
    },
    {
      "midi": 60,
      "hit": false,
      "t": 63562.5,
      "d": 187.5,
      "v": 100
    },
    {
      "midi": 51,
      "hit": false,
      "t": 63562.5,
      "d": 31.25,
      "v": 100
    },
    {
      "midi": 51,
      "hit": false,
      "t": 63593.75,
      "d": 31.25,
      "v": 100
    },
    {
      "midi": 51,
      "hit": false,
      "t": 63625,
      "d": 31.25,
      "v": 100
    },
    {
      "midi": 51,
      "hit": false,
      "t": 63656.25,
      "d": 31.25,
      "v": 100
    },
    {
      "midi": 51,
      "hit": false,
      "t": 63687.5,
      "d": 31.25,
      "v": 100
    },
    {
      "midi": 51,
      "hit": false,
      "t": 63718.75,
      "d": 31.25,
      "v": 100
    },
    {
      "midi": 57,
      "hit": false,
      "t": 63750,
      "d": 187.5,
      "v": 100
    },
    {
      "midi": 65,
      "hit": false,
      "t": 63750,
      "d": 375,
      "v": 100
    },
    {
      "midi": 24,
      "hit": false,
      "t": 63750,
      "d": 187.5,
      "v": 100
    },
    {
      "midi": 36,
      "hit": false,
      "t": 63750,
      "d": 187.5,
      "v": 100
    },
    {
      "midi": 64,
      "hit": false,
      "t": 63750,
      "d": 187.5,
      "v": 100
    },
    {
      "midi": 57,
      "hit": false,
      "t": 63750,
      "d": 187.5,
      "v": 100
    },
    {
      "midi": 50,
      "hit": false,
      "t": 63750,
      "d": 187.5,
      "v": 100
    },
    {
      "midi": 55,
      "hit": false,
      "t": 63750,
      "d": 187.5,
      "v": 100
    },
    {
      "midi": 60,
      "hit": false,
      "t": 63750,
      "d": 187.5,
      "v": 100
    },
    {
      "midi": 51,
      "hit": false,
      "t": 63750,
      "d": 31.25,
      "v": 100
    },
    {
      "midi": 51,
      "hit": false,
      "t": 63781.25,
      "d": 31.25,
      "v": 100
    },
    {
      "midi": 51,
      "hit": false,
      "t": 63812.5,
      "d": 31.25,
      "v": 100
    },
    {
      "midi": 51,
      "hit": false,
      "t": 63843.75,
      "d": 31.25,
      "v": 100
    },
    {
      "midi": 51,
      "hit": false,
      "t": 63875,
      "d": 31.25,
      "v": 100
    },
    {
      "midi": 51,
      "hit": false,
      "t": 63906.25,
      "d": 31.25,
      "v": 100
    },
    {
      "midi": 24,
      "hit": false,
      "t": 63937.5,
      "d": 187.5,
      "v": 100
    },
    {
      "midi": 36,
      "hit": false,
      "t": 63937.5,
      "d": 187.5,
      "v": 100
    },
    {
      "midi": 64,
      "hit": false,
      "t": 63937.5,
      "d": 187.5,
      "v": 100
    },
    {
      "midi": 57,
      "hit": false,
      "t": 63937.5,
      "d": 187.5,
      "v": 100
    },
    {
      "midi": 50,
      "hit": false,
      "t": 63937.5,
      "d": 187.5,
      "v": 100
    },
    {
      "midi": 55,
      "hit": false,
      "t": 63937.5,
      "d": 187.5,
      "v": 100
    },
    {
      "midi": 60,
      "hit": false,
      "t": 63937.5,
      "d": 187.5,
      "v": 100
    },
    {
      "midi": 51,
      "hit": false,
      "t": 63937.5,
      "d": 31.25,
      "v": 100
    },
    {
      "midi": 51,
      "hit": false,
      "t": 63968.75,
      "d": 31.25,
      "v": 100
    },
    {
      "midi": 51,
      "hit": false,
      "t": 64000,
      "d": 31.25,
      "v": 100
    },
    {
      "midi": 51,
      "hit": false,
      "t": 64031.25,
      "d": 31.25,
      "v": 100
    },
    {
      "midi": 51,
      "hit": false,
      "t": 64062.5,
      "d": 31.25,
      "v": 100
    },
    {
      "midi": 51,
      "hit": false,
      "t": 64093.75,
      "d": 31.25,
      "v": 100
    },
    {
      "midi": 62,
      "hit": false,
      "t": 64125,
      "d": 375,
      "v": 100
    },
    {
      "midi": 24,
      "hit": false,
      "t": 64125,
      "d": 187.5,
      "v": 100
    },
    {
      "midi": 36,
      "hit": false,
      "t": 64125,
      "d": 187.5,
      "v": 100
    },
    {
      "midi": 64,
      "hit": false,
      "t": 64125,
      "d": 187.5,
      "v": 100
    },
    {
      "midi": 57,
      "hit": false,
      "t": 64125,
      "d": 187.5,
      "v": 100
    },
    {
      "midi": 50,
      "hit": false,
      "t": 64125,
      "d": 187.5,
      "v": 100
    },
    {
      "midi": 55,
      "hit": false,
      "t": 64125,
      "d": 187.5,
      "v": 100
    },
    {
      "midi": 60,
      "hit": false,
      "t": 64125,
      "d": 187.5,
      "v": 100
    },
    {
      "midi": 51,
      "hit": false,
      "t": 64125,
      "d": 31.25,
      "v": 100
    },
    {
      "midi": 51,
      "hit": false,
      "t": 64156.25,
      "d": 31.25,
      "v": 100
    },
    {
      "midi": 51,
      "hit": false,
      "t": 64187.5,
      "d": 31.25,
      "v": 100
    },
    {
      "midi": 51,
      "hit": false,
      "t": 64218.75,
      "d": 31.25,
      "v": 100
    },
    {
      "midi": 51,
      "hit": false,
      "t": 64250,
      "d": 31.25,
      "v": 100
    },
    {
      "midi": 51,
      "hit": false,
      "t": 64281.25,
      "d": 31.25,
      "v": 100
    },
    {
      "midi": 24,
      "hit": false,
      "t": 64312.5,
      "d": 187.5,
      "v": 100
    },
    {
      "midi": 36,
      "hit": false,
      "t": 64312.5,
      "d": 187.5,
      "v": 100
    },
    {
      "midi": 50,
      "hit": false,
      "t": 64312.5,
      "d": 187.5,
      "v": 100
    },
    {
      "midi": 60,
      "hit": false,
      "t": 64312.5,
      "d": 187.5,
      "v": 100
    },
    {
      "midi": 55,
      "hit": false,
      "t": 64312.5,
      "d": 187.5,
      "v": 100
    },
    {
      "midi": 57,
      "hit": false,
      "t": 64312.5,
      "d": 187.5,
      "v": 100
    },
    {
      "midi": 64,
      "hit": false,
      "t": 64312.5,
      "d": 187.5,
      "v": 100
    },
    {
      "midi": 51,
      "hit": false,
      "t": 64312.5,
      "d": 31.25,
      "v": 100
    },
    {
      "midi": 51,
      "hit": false,
      "t": 64343.75,
      "d": 31.25,
      "v": 100
    },
    {
      "midi": 51,
      "hit": false,
      "t": 64375,
      "d": 31.25,
      "v": 100
    },
    {
      "midi": 51,
      "hit": false,
      "t": 64406.25,
      "d": 31.25,
      "v": 100
    },
    {
      "midi": 51,
      "hit": false,
      "t": 64437.5,
      "d": 31.25,
      "v": 100
    },
    {
      "midi": 51,
      "hit": false,
      "t": 64468.75,
      "d": 31.25,
      "v": 100
    },
    {
      "midi": 64,
      "hit": false,
      "t": 64500,
      "d": 187.5,
      "v": 100
    },
    {
      "midi": 19,
      "hit": false,
      "t": 64500,
      "d": 187.5,
      "v": 100
    },
    {
      "midi": 43,
      "hit": false,
      "t": 64500,
      "d": 187.5,
      "v": 100
    },
    {
      "midi": 31,
      "hit": false,
      "t": 64500,
      "d": 187.5,
      "v": 100
    },
    {
      "midi": 54,
      "hit": false,
      "t": 64500,
      "d": 375,
      "v": 100
    },
    {
      "midi": 51,
      "hit": false,
      "t": 64500,
      "d": 31.25,
      "v": 100
    },
    {
      "midi": 51,
      "hit": false,
      "t": 64531.25,
      "d": 31.25,
      "v": 100
    },
    {
      "midi": 51,
      "hit": false,
      "t": 64562.5,
      "d": 31.25,
      "v": 100
    },
    {
      "midi": 51,
      "hit": false,
      "t": 64593.75,
      "d": 31.25,
      "v": 100
    },
    {
      "midi": 51,
      "hit": false,
      "t": 64625,
      "d": 31.25,
      "v": 100
    },
    {
      "midi": 51,
      "hit": false,
      "t": 64656.25,
      "d": 31.25,
      "v": 100
    },
    {
      "midi": 19,
      "hit": false,
      "t": 64687.5,
      "d": 187.5,
      "v": 100
    },
    {
      "midi": 43,
      "hit": false,
      "t": 64687.5,
      "d": 187.5,
      "v": 100
    },
    {
      "midi": 31,
      "hit": false,
      "t": 64687.5,
      "d": 187.5,
      "v": 100
    },
    {
      "midi": 64,
      "hit": false,
      "t": 64687.5,
      "d": 187.5,
      "v": 100
    },
    {
      "midi": 57,
      "hit": false,
      "t": 64687.5,
      "d": 187.5,
      "v": 100
    },
    {
      "midi": 50,
      "hit": false,
      "t": 64687.5,
      "d": 187.5,
      "v": 100
    },
    {
      "midi": 55,
      "hit": false,
      "t": 64687.5,
      "d": 187.5,
      "v": 100
    },
    {
      "midi": 60,
      "hit": false,
      "t": 64687.5,
      "d": 187.5,
      "v": 100
    },
    {
      "midi": 51,
      "hit": false,
      "t": 64687.5,
      "d": 31.25,
      "v": 100
    },
    {
      "midi": 51,
      "hit": false,
      "t": 64718.75,
      "d": 31.25,
      "v": 100
    },
    {
      "midi": 51,
      "hit": false,
      "t": 64750,
      "d": 31.25,
      "v": 100
    },
    {
      "midi": 51,
      "hit": false,
      "t": 64781.25,
      "d": 31.25,
      "v": 100
    },
    {
      "midi": 51,
      "hit": false,
      "t": 64812.5,
      "d": 31.25,
      "v": 100
    },
    {
      "midi": 51,
      "hit": false,
      "t": 64843.75,
      "d": 31.25,
      "v": 100
    },
    {
      "midi": 57,
      "hit": false,
      "t": 64875,
      "d": 187.5,
      "v": 100
    },
    {
      "midi": 65,
      "hit": false,
      "t": 64875,
      "d": 375,
      "v": 100
    },
    {
      "midi": 24,
      "hit": false,
      "t": 64875,
      "d": 187.5,
      "v": 100
    },
    {
      "midi": 36,
      "hit": false,
      "t": 64875,
      "d": 187.5,
      "v": 100
    },
    {
      "midi": 54,
      "hit": false,
      "t": 64875,
      "d": 375,
      "v": 100
    },
    {
      "midi": 60,
      "hit": false,
      "t": 64875,
      "d": 187.5,
      "v": 100
    },
    {
      "midi": 55,
      "hit": false,
      "t": 64875,
      "d": 187.5,
      "v": 100
    },
    {
      "midi": 64,
      "hit": false,
      "t": 64875,
      "d": 187.5,
      "v": 100
    },
    {
      "midi": 50,
      "hit": false,
      "t": 64875,
      "d": 187.5,
      "v": 100
    },
    {
      "midi": 57,
      "hit": false,
      "t": 64875,
      "d": 187.5,
      "v": 100
    },
    {
      "midi": 51,
      "hit": false,
      "t": 64875,
      "d": 31.25,
      "v": 100
    },
    {
      "midi": 51,
      "hit": false,
      "t": 64906.25,
      "d": 31.25,
      "v": 100
    },
    {
      "midi": 51,
      "hit": false,
      "t": 64937.5,
      "d": 31.25,
      "v": 100
    },
    {
      "midi": 51,
      "hit": false,
      "t": 64968.75,
      "d": 31.25,
      "v": 100
    },
    {
      "midi": 51,
      "hit": false,
      "t": 65000,
      "d": 31.25,
      "v": 100
    },
    {
      "midi": 51,
      "hit": false,
      "t": 65031.25,
      "d": 31.25,
      "v": 100
    },
    {
      "midi": 24,
      "hit": false,
      "t": 65062.5,
      "d": 187.5,
      "v": 100
    },
    {
      "midi": 36,
      "hit": false,
      "t": 65062.5,
      "d": 187.5,
      "v": 100
    },
    {
      "midi": 64,
      "hit": false,
      "t": 65062.5,
      "d": 187.5,
      "v": 100
    },
    {
      "midi": 57,
      "hit": false,
      "t": 65062.5,
      "d": 187.5,
      "v": 100
    },
    {
      "midi": 50,
      "hit": false,
      "t": 65062.5,
      "d": 187.5,
      "v": 100
    },
    {
      "midi": 55,
      "hit": false,
      "t": 65062.5,
      "d": 187.5,
      "v": 100
    },
    {
      "midi": 60,
      "hit": false,
      "t": 65062.5,
      "d": 187.5,
      "v": 100
    },
    {
      "midi": 51,
      "hit": false,
      "t": 65062.5,
      "d": 31.25,
      "v": 100
    },
    {
      "midi": 51,
      "hit": false,
      "t": 65093.75,
      "d": 31.25,
      "v": 100
    },
    {
      "midi": 51,
      "hit": false,
      "t": 65125,
      "d": 31.25,
      "v": 100
    },
    {
      "midi": 51,
      "hit": false,
      "t": 65156.25,
      "d": 31.25,
      "v": 100
    },
    {
      "midi": 51,
      "hit": false,
      "t": 65187.5,
      "d": 31.25,
      "v": 100
    },
    {
      "midi": 51,
      "hit": false,
      "t": 65218.75,
      "d": 31.25,
      "v": 100
    },
    {
      "midi": 62,
      "hit": false,
      "t": 65250,
      "d": 375,
      "v": 100
    },
    {
      "midi": 28,
      "hit": false,
      "t": 65250,
      "d": 187.5,
      "v": 100
    },
    {
      "midi": 40,
      "hit": false,
      "t": 65250,
      "d": 187.5,
      "v": 100
    },
    {
      "midi": 62,
      "hit": false,
      "t": 65250,
      "d": 187.5,
      "v": 100
    },
    {
      "midi": 74,
      "hit": false,
      "t": 65250,
      "d": 1125,
      "v": 100
    },
    {
      "midi": 50,
      "hit": false,
      "t": 65250,
      "d": 1125,
      "v": 100
    },
    {
      "midi": 66,
      "hit": false,
      "t": 65250,
      "d": 4500,
      "v": 100
    },
    {
      "midi": 52,
      "hit": false,
      "t": 65250,
      "d": 4500,
      "v": 100
    },
    {
      "midi": 64,
      "hit": false,
      "t": 65250,
      "d": 4500,
      "v": 100
    },
    {
      "midi": 57,
      "hit": false,
      "t": 65250,
      "d": 375,
      "v": 100
    },
    {
      "midi": 52,
      "hit": false,
      "t": 65250,
      "d": 375,
      "v": 100
    },
    {
      "midi": 62,
      "hit": false,
      "t": 65250,
      "d": 375,
      "v": 100
    },
    {
      "midi": 64,
      "hit": false,
      "t": 65250,
      "d": 375,
      "v": 100
    },
    {
      "midi": 55,
      "hit": false,
      "t": 65250,
      "d": 1125,
      "v": 100
    },
    {
      "midi": 28,
      "hit": false,
      "t": 65437.5,
      "d": 187.5,
      "v": 100
    },
    {
      "midi": 40,
      "hit": false,
      "t": 65437.5,
      "d": 187.5,
      "v": 100
    },
    {
      "midi": 69,
      "hit": false,
      "t": 65625,
      "d": 187.5,
      "v": 100
    },
    {
      "midi": 28,
      "hit": false,
      "t": 65625,
      "d": 187.5,
      "v": 100
    },
    {
      "midi": 40,
      "hit": false,
      "t": 65625,
      "d": 187.5,
      "v": 100
    },
    {
      "midi": 54,
      "hit": false,
      "t": 65625,
      "d": 375,
      "v": 100
    },
    {
      "midi": 64,
      "hit": false,
      "t": 65625,
      "d": 187.5,
      "v": 100
    },
    {
      "midi": 52,
      "hit": false,
      "t": 65625,
      "d": 187.5,
      "v": 100
    },
    {
      "midi": 57,
      "hit": false,
      "t": 65625,
      "d": 187.5,
      "v": 100
    },
    {
      "midi": 62,
      "hit": false,
      "t": 65625,
      "d": 187.5,
      "v": 100
    },
    {
      "midi": 28,
      "hit": false,
      "t": 65812.5,
      "d": 187.5,
      "v": 100
    },
    {
      "midi": 40,
      "hit": false,
      "t": 65812.5,
      "d": 187.5,
      "v": 100
    },
    {
      "midi": 64,
      "hit": false,
      "t": 65812.5,
      "d": 187.5,
      "v": 100
    },
    {
      "midi": 52,
      "hit": false,
      "t": 65812.5,
      "d": 187.5,
      "v": 100
    },
    {
      "midi": 57,
      "hit": false,
      "t": 65812.5,
      "d": 187.5,
      "v": 100
    },
    {
      "midi": 62,
      "hit": false,
      "t": 65812.5,
      "d": 187.5,
      "v": 100
    },
    {
      "midi": 66,
      "hit": false,
      "t": 66000,
      "d": 187.5,
      "v": 100
    },
    {
      "midi": 28,
      "hit": false,
      "t": 66000,
      "d": 187.5,
      "v": 100
    },
    {
      "midi": 40,
      "hit": false,
      "t": 66000,
      "d": 187.5,
      "v": 100
    },
    {
      "midi": 64,
      "hit": false,
      "t": 66000,
      "d": 187.5,
      "v": 100
    },
    {
      "midi": 52,
      "hit": false,
      "t": 66000,
      "d": 187.5,
      "v": 100
    },
    {
      "midi": 57,
      "hit": false,
      "t": 66000,
      "d": 187.5,
      "v": 100
    },
    {
      "midi": 62,
      "hit": false,
      "t": 66000,
      "d": 187.5,
      "v": 100
    },
    {
      "midi": 28,
      "hit": false,
      "t": 66187.5,
      "d": 187.5,
      "v": 100
    },
    {
      "midi": 40,
      "hit": false,
      "t": 66187.5,
      "d": 187.5,
      "v": 100
    },
    {
      "midi": 64,
      "hit": false,
      "t": 66187.5,
      "d": 187.5,
      "v": 100
    },
    {
      "midi": 52,
      "hit": false,
      "t": 66187.5,
      "d": 187.5,
      "v": 100
    },
    {
      "midi": 57,
      "hit": false,
      "t": 66187.5,
      "d": 187.5,
      "v": 100
    },
    {
      "midi": 62,
      "hit": false,
      "t": 66187.5,
      "d": 187.5,
      "v": 100
    },
    {
      "midi": 62,
      "hit": false,
      "t": 66375,
      "d": 375,
      "v": 100
    },
    {
      "midi": 28,
      "hit": false,
      "t": 66375,
      "d": 187.5,
      "v": 100
    },
    {
      "midi": 40,
      "hit": false,
      "t": 66375,
      "d": 187.5,
      "v": 100
    },
    {
      "midi": 64,
      "hit": false,
      "t": 66375,
      "d": 187.5,
      "v": 100
    },
    {
      "midi": 52,
      "hit": false,
      "t": 66375,
      "d": 187.5,
      "v": 100
    },
    {
      "midi": 57,
      "hit": false,
      "t": 66375,
      "d": 187.5,
      "v": 100
    },
    {
      "midi": 62,
      "hit": false,
      "t": 66375,
      "d": 187.5,
      "v": 100
    },
    {
      "midi": 66,
      "hit": false,
      "t": 66375,
      "d": 375,
      "v": 100
    },
    {
      "midi": 28,
      "hit": false,
      "t": 66562.5,
      "d": 187.5,
      "v": 100
    },
    {
      "midi": 40,
      "hit": false,
      "t": 66562.5,
      "d": 187.5,
      "v": 100
    },
    {
      "midi": 64,
      "hit": false,
      "t": 66562.5,
      "d": 187.5,
      "v": 100
    },
    {
      "midi": 52,
      "hit": false,
      "t": 66562.5,
      "d": 187.5,
      "v": 100
    },
    {
      "midi": 57,
      "hit": false,
      "t": 66562.5,
      "d": 187.5,
      "v": 100
    },
    {
      "midi": 62,
      "hit": false,
      "t": 66562.5,
      "d": 187.5,
      "v": 100
    },
    {
      "midi": 69,
      "hit": false,
      "t": 66750,
      "d": 187.5,
      "v": 100
    },
    {
      "midi": 28,
      "hit": false,
      "t": 66750,
      "d": 187.5,
      "v": 100
    },
    {
      "midi": 40,
      "hit": false,
      "t": 66750,
      "d": 187.5,
      "v": 100
    },
    {
      "midi": 54,
      "hit": false,
      "t": 66750,
      "d": 375,
      "v": 100
    },
    {
      "midi": 64,
      "hit": false,
      "t": 66750,
      "d": 187.5,
      "v": 100
    },
    {
      "midi": 52,
      "hit": false,
      "t": 66750,
      "d": 187.5,
      "v": 100
    },
    {
      "midi": 57,
      "hit": false,
      "t": 66750,
      "d": 187.5,
      "v": 100
    },
    {
      "midi": 62,
      "hit": false,
      "t": 66750,
      "d": 187.5,
      "v": 100
    },
    {
      "midi": 67,
      "hit": false,
      "t": 66750,
      "d": 187.5,
      "v": 100
    },
    {
      "midi": 28,
      "hit": false,
      "t": 66937.5,
      "d": 187.5,
      "v": 100
    },
    {
      "midi": 40,
      "hit": false,
      "t": 66937.5,
      "d": 187.5,
      "v": 100
    },
    {
      "midi": 64,
      "hit": false,
      "t": 66937.5,
      "d": 187.5,
      "v": 100
    },
    {
      "midi": 52,
      "hit": false,
      "t": 66937.5,
      "d": 187.5,
      "v": 100
    },
    {
      "midi": 57,
      "hit": false,
      "t": 66937.5,
      "d": 187.5,
      "v": 100
    },
    {
      "midi": 62,
      "hit": false,
      "t": 66937.5,
      "d": 187.5,
      "v": 100
    },
    {
      "midi": 66,
      "hit": false,
      "t": 67125,
      "d": 187.5,
      "v": 100
    },
    {
      "midi": 28,
      "hit": false,
      "t": 67125,
      "d": 187.5,
      "v": 100
    },
    {
      "midi": 40,
      "hit": false,
      "t": 67125,
      "d": 187.5,
      "v": 100
    },
    {
      "midi": 54,
      "hit": false,
      "t": 67125,
      "d": 375,
      "v": 100
    },
    {
      "midi": 64,
      "hit": false,
      "t": 67125,
      "d": 187.5,
      "v": 100
    },
    {
      "midi": 52,
      "hit": false,
      "t": 67125,
      "d": 187.5,
      "v": 100
    },
    {
      "midi": 57,
      "hit": false,
      "t": 67125,
      "d": 187.5,
      "v": 100
    },
    {
      "midi": 62,
      "hit": false,
      "t": 67125,
      "d": 187.5,
      "v": 100
    },
    {
      "midi": 28,
      "hit": false,
      "t": 67312.5,
      "d": 187.5,
      "v": 100
    },
    {
      "midi": 40,
      "hit": false,
      "t": 67312.5,
      "d": 187.5,
      "v": 100
    },
    {
      "midi": 64,
      "hit": false,
      "t": 67312.5,
      "d": 187.5,
      "v": 100
    },
    {
      "midi": 52,
      "hit": false,
      "t": 67312.5,
      "d": 187.5,
      "v": 100
    },
    {
      "midi": 57,
      "hit": false,
      "t": 67312.5,
      "d": 187.5,
      "v": 100
    },
    {
      "midi": 62,
      "hit": false,
      "t": 67312.5,
      "d": 187.5,
      "v": 100
    },
    {
      "midi": 62,
      "hit": false,
      "t": 67500,
      "d": 375,
      "v": 100
    },
    {
      "midi": 33,
      "hit": false,
      "t": 67500,
      "d": 187.5,
      "v": 100
    },
    {
      "midi": 45,
      "hit": false,
      "t": 67500,
      "d": 187.5,
      "v": 100
    },
    {
      "midi": 57,
      "hit": false,
      "t": 67500,
      "d": 187.5,
      "v": 100
    },
    {
      "midi": 73,
      "hit": false,
      "t": 67500,
      "d": 187.5,
      "v": 100
    },
    {
      "midi": 61,
      "hit": false,
      "t": 67500,
      "d": 187.5,
      "v": 100
    },
    {
      "midi": 64,
      "hit": false,
      "t": 67500,
      "d": 187.5,
      "v": 100
    },
    {
      "midi": 33,
      "hit": false,
      "t": 67687.5,
      "d": 187.5,
      "v": 100
    },
    {
      "midi": 45,
      "hit": false,
      "t": 67687.5,
      "d": 187.5,
      "v": 100
    },
    {
      "midi": 73,
      "hit": false,
      "t": 67687.5,
      "d": 187.5,
      "v": 100
    },
    {
      "midi": 57,
      "hit": false,
      "t": 67687.5,
      "d": 187.5,
      "v": 100
    },
    {
      "midi": 61,
      "hit": false,
      "t": 67687.5,
      "d": 187.5,
      "v": 100
    },
    {
      "midi": 64,
      "hit": false,
      "t": 67687.5,
      "d": 187.5,
      "v": 100
    },
    {
      "midi": 69,
      "hit": false,
      "t": 67875,
      "d": 187.5,
      "v": 100
    },
    {
      "midi": 33,
      "hit": false,
      "t": 67875,
      "d": 187.5,
      "v": 100
    },
    {
      "midi": 45,
      "hit": false,
      "t": 67875,
      "d": 187.5,
      "v": 100
    },
    {
      "midi": 54,
      "hit": false,
      "t": 67875,
      "d": 375,
      "v": 100
    },
    {
      "midi": 73,
      "hit": false,
      "t": 67875,
      "d": 187.5,
      "v": 100
    },
    {
      "midi": 57,
      "hit": false,
      "t": 67875,
      "d": 187.5,
      "v": 100
    },
    {
      "midi": 61,
      "hit": false,
      "t": 67875,
      "d": 187.5,
      "v": 100
    },
    {
      "midi": 64,
      "hit": false,
      "t": 67875,
      "d": 187.5,
      "v": 100
    },
    {
      "midi": 69,
      "hit": false,
      "t": 67875,
      "d": 1875,
      "v": 100
    },
    {
      "midi": 33,
      "hit": false,
      "t": 68062.5,
      "d": 187.5,
      "v": 100
    },
    {
      "midi": 45,
      "hit": false,
      "t": 68062.5,
      "d": 187.5,
      "v": 100
    },
    {
      "midi": 73,
      "hit": false,
      "t": 68062.5,
      "d": 187.5,
      "v": 100
    },
    {
      "midi": 57,
      "hit": false,
      "t": 68062.5,
      "d": 187.5,
      "v": 100
    },
    {
      "midi": 61,
      "hit": false,
      "t": 68062.5,
      "d": 187.5,
      "v": 100
    },
    {
      "midi": 64,
      "hit": false,
      "t": 68062.5,
      "d": 187.5,
      "v": 100
    },
    {
      "midi": 66,
      "hit": false,
      "t": 68250,
      "d": 187.5,
      "v": 100
    },
    {
      "midi": 33,
      "hit": false,
      "t": 68250,
      "d": 187.5,
      "v": 100
    },
    {
      "midi": 45,
      "hit": false,
      "t": 68250,
      "d": 187.5,
      "v": 100
    },
    {
      "midi": 73,
      "hit": false,
      "t": 68250,
      "d": 187.5,
      "v": 100
    },
    {
      "midi": 57,
      "hit": false,
      "t": 68250,
      "d": 187.5,
      "v": 100
    },
    {
      "midi": 61,
      "hit": false,
      "t": 68250,
      "d": 187.5,
      "v": 100
    },
    {
      "midi": 64,
      "hit": false,
      "t": 68250,
      "d": 187.5,
      "v": 100
    },
    {
      "midi": 33,
      "hit": false,
      "t": 68437.5,
      "d": 187.5,
      "v": 100
    },
    {
      "midi": 45,
      "hit": false,
      "t": 68437.5,
      "d": 187.5,
      "v": 100
    },
    {
      "midi": 73,
      "hit": false,
      "t": 68437.5,
      "d": 187.5,
      "v": 100
    },
    {
      "midi": 57,
      "hit": false,
      "t": 68437.5,
      "d": 187.5,
      "v": 100
    },
    {
      "midi": 61,
      "hit": false,
      "t": 68437.5,
      "d": 187.5,
      "v": 100
    },
    {
      "midi": 64,
      "hit": false,
      "t": 68437.5,
      "d": 187.5,
      "v": 100
    },
    {
      "midi": 62,
      "hit": false,
      "t": 68625,
      "d": 375,
      "v": 100
    },
    {
      "midi": 33,
      "hit": false,
      "t": 68625,
      "d": 187.5,
      "v": 100
    },
    {
      "midi": 45,
      "hit": false,
      "t": 68625,
      "d": 187.5,
      "v": 100
    },
    {
      "midi": 57,
      "hit": false,
      "t": 68625,
      "d": 187.5,
      "v": 100
    },
    {
      "midi": 73,
      "hit": false,
      "t": 68625,
      "d": 187.5,
      "v": 100
    },
    {
      "midi": 61,
      "hit": false,
      "t": 68625,
      "d": 187.5,
      "v": 100
    },
    {
      "midi": 64,
      "hit": false,
      "t": 68625,
      "d": 187.5,
      "v": 100
    },
    {
      "midi": 33,
      "hit": false,
      "t": 68812.5,
      "d": 187.5,
      "v": 100
    },
    {
      "midi": 45,
      "hit": false,
      "t": 68812.5,
      "d": 187.5,
      "v": 100
    },
    {
      "midi": 73,
      "hit": false,
      "t": 68812.5,
      "d": 187.5,
      "v": 100
    },
    {
      "midi": 57,
      "hit": false,
      "t": 68812.5,
      "d": 187.5,
      "v": 100
    },
    {
      "midi": 61,
      "hit": false,
      "t": 68812.5,
      "d": 187.5,
      "v": 100
    },
    {
      "midi": 64,
      "hit": false,
      "t": 68812.5,
      "d": 187.5,
      "v": 100
    },
    {
      "midi": 69,
      "hit": false,
      "t": 69000,
      "d": 187.5,
      "v": 100
    },
    {
      "midi": 33,
      "hit": false,
      "t": 69000,
      "d": 187.5,
      "v": 100
    },
    {
      "midi": 45,
      "hit": false,
      "t": 69000,
      "d": 187.5,
      "v": 100
    },
    {
      "midi": 28,
      "hit": false,
      "t": 69000,
      "d": 187.5,
      "v": 100
    },
    {
      "midi": 54,
      "hit": false,
      "t": 69000,
      "d": 375,
      "v": 100
    },
    {
      "midi": 73,
      "hit": false,
      "t": 69000,
      "d": 187.5,
      "v": 100
    },
    {
      "midi": 57,
      "hit": false,
      "t": 69000,
      "d": 187.5,
      "v": 100
    },
    {
      "midi": 61,
      "hit": false,
      "t": 69000,
      "d": 187.5,
      "v": 100
    },
    {
      "midi": 64,
      "hit": false,
      "t": 69000,
      "d": 187.5,
      "v": 100
    },
    {
      "midi": 33,
      "hit": false,
      "t": 69187.5,
      "d": 187.5,
      "v": 100
    },
    {
      "midi": 45,
      "hit": false,
      "t": 69187.5,
      "d": 187.5,
      "v": 100
    },
    {
      "midi": 28,
      "hit": false,
      "t": 69187.5,
      "d": 187.5,
      "v": 100
    },
    {
      "midi": 73,
      "hit": false,
      "t": 69187.5,
      "d": 187.5,
      "v": 100
    },
    {
      "midi": 57,
      "hit": false,
      "t": 69187.5,
      "d": 187.5,
      "v": 100
    },
    {
      "midi": 61,
      "hit": false,
      "t": 69187.5,
      "d": 187.5,
      "v": 100
    },
    {
      "midi": 64,
      "hit": false,
      "t": 69187.5,
      "d": 187.5,
      "v": 100
    },
    {
      "midi": 66,
      "hit": false,
      "t": 69375,
      "d": 187.5,
      "v": 100
    },
    {
      "midi": 33,
      "hit": false,
      "t": 69375,
      "d": 187.5,
      "v": 100
    },
    {
      "midi": 45,
      "hit": false,
      "t": 69375,
      "d": 187.5,
      "v": 100
    },
    {
      "midi": 21,
      "hit": false,
      "t": 69375,
      "d": 187.5,
      "v": 100
    },
    {
      "midi": 54,
      "hit": false,
      "t": 69375,
      "d": 375,
      "v": 100
    },
    {
      "midi": 73,
      "hit": false,
      "t": 69375,
      "d": 187.5,
      "v": 100
    },
    {
      "midi": 57,
      "hit": false,
      "t": 69375,
      "d": 187.5,
      "v": 100
    },
    {
      "midi": 61,
      "hit": false,
      "t": 69375,
      "d": 187.5,
      "v": 100
    },
    {
      "midi": 64,
      "hit": false,
      "t": 69375,
      "d": 187.5,
      "v": 100
    },
    {
      "midi": 33,
      "hit": false,
      "t": 69562.5,
      "d": 187.5,
      "v": 100
    },
    {
      "midi": 45,
      "hit": false,
      "t": 69562.5,
      "d": 187.5,
      "v": 100
    },
    {
      "midi": 21,
      "hit": false,
      "t": 69562.5,
      "d": 187.5,
      "v": 100
    },
    {
      "midi": 73,
      "hit": false,
      "t": 69562.5,
      "d": 187.5,
      "v": 100
    },
    {
      "midi": 57,
      "hit": false,
      "t": 69562.5,
      "d": 187.5,
      "v": 100
    },
    {
      "midi": 61,
      "hit": false,
      "t": 69562.5,
      "d": 187.5,
      "v": 100
    },
    {
      "midi": 64,
      "hit": false,
      "t": 69562.5,
      "d": 187.5,
      "v": 100
    },
    {
      "midi": 69,
      "hit": false,
      "t": 69750,
      "d": 187.5,
      "v": 100
    },
    {
      "midi": 66,
      "hit": false,
      "t": 69750,
      "d": 187.5,
      "v": 100
    },
    {
      "midi": 81,
      "hit": false,
      "t": 69750,
      "d": 187.5,
      "v": 100
    },
    {
      "midi": 86,
      "hit": false,
      "t": 69750,
      "d": 375,
      "v": 100
    },
    {
      "midi": 62,
      "hit": false,
      "t": 69750,
      "d": 375,
      "v": 100
    },
    {
      "midi": 38,
      "hit": false,
      "t": 69750,
      "d": 187.5,
      "v": 100
    },
    {
      "midi": 26,
      "hit": false,
      "t": 69750,
      "d": 187.5,
      "v": 100
    },
    {
      "midi": 62,
      "hit": false,
      "t": 69750,
      "d": 187.5,
      "v": 100
    },
    {
      "midi": 74,
      "hit": false,
      "t": 69750,
      "d": 1125,
      "v": 100
    },
    {
      "midi": 50,
      "hit": false,
      "t": 69750,
      "d": 1125,
      "v": 100
    },
    {
      "midi": 66,
      "hit": false,
      "t": 69750,
      "d": 3375,
      "v": 100
    },
    {
      "midi": 62,
      "hit": false,
      "t": 69750,
      "d": 4125,
      "v": 100
    },
    {
      "midi": 66,
      "hit": false,
      "t": 69750,
      "d": 375,
      "v": 100
    },
    {
      "midi": 62,
      "hit": false,
      "t": 69750,
      "d": 375,
      "v": 100
    },
    {
      "midi": 57,
      "hit": false,
      "t": 69750,
      "d": 375,
      "v": 100
    },
    {
      "midi": 38,
      "hit": false,
      "t": 69937.5,
      "d": 187.5,
      "v": 100
    },
    {
      "midi": 26,
      "hit": false,
      "t": 69937.5,
      "d": 187.5,
      "v": 100
    },
    {
      "midi": 69,
      "hit": false,
      "t": 70125,
      "d": 187.5,
      "v": 100
    },
    {
      "midi": 66,
      "hit": false,
      "t": 70125,
      "d": 187.5,
      "v": 100
    },
    {
      "midi": 81,
      "hit": false,
      "t": 70125,
      "d": 187.5,
      "v": 100
    },
    {
      "midi": 78,
      "hit": false,
      "t": 70125,
      "d": 187.5,
      "v": 100
    },
    {
      "midi": 81,
      "hit": false,
      "t": 70125,
      "d": 187.5,
      "v": 100
    },
    {
      "midi": 57,
      "hit": false,
      "t": 70125,
      "d": 187.5,
      "v": 100
    },
    {
      "midi": 38,
      "hit": false,
      "t": 70125,
      "d": 187.5,
      "v": 100
    },
    {
      "midi": 26,
      "hit": false,
      "t": 70125,
      "d": 187.5,
      "v": 100
    },
    {
      "midi": 54,
      "hit": false,
      "t": 70125,
      "d": 375,
      "v": 100
    },
    {
      "midi": 66,
      "hit": false,
      "t": 70125,
      "d": 187.5,
      "v": 100
    },
    {
      "midi": 62,
      "hit": false,
      "t": 70125,
      "d": 187.5,
      "v": 100
    },
    {
      "midi": 57,
      "hit": false,
      "t": 70125,
      "d": 187.5,
      "v": 100
    },
    {
      "midi": 79,
      "hit": false,
      "t": 70312.5,
      "d": 187.5,
      "v": 100
    },
    {
      "midi": 38,
      "hit": false,
      "t": 70312.5,
      "d": 187.5,
      "v": 100
    },
    {
      "midi": 26,
      "hit": false,
      "t": 70312.5,
      "d": 187.5,
      "v": 100
    },
    {
      "midi": 66,
      "hit": false,
      "t": 70312.5,
      "d": 187.5,
      "v": 100
    },
    {
      "midi": 62,
      "hit": false,
      "t": 70312.5,
      "d": 187.5,
      "v": 100
    },
    {
      "midi": 57,
      "hit": false,
      "t": 70312.5,
      "d": 187.5,
      "v": 100
    },
    {
      "midi": 69,
      "hit": false,
      "t": 70500,
      "d": 187.5,
      "v": 100
    },
    {
      "midi": 66,
      "hit": false,
      "t": 70500,
      "d": 187.5,
      "v": 100
    },
    {
      "midi": 81,
      "hit": false,
      "t": 70500,
      "d": 187.5,
      "v": 100
    },
    {
      "midi": 81,
      "hit": false,
      "t": 70500,
      "d": 187.5,
      "v": 100
    },
    {
      "midi": 88,
      "hit": false,
      "t": 70500,
      "d": 187.5,
      "v": 100
    },
    {
      "midi": 64,
      "hit": false,
      "t": 70500,
      "d": 187.5,
      "v": 100
    },
    {
      "midi": 42,
      "hit": false,
      "t": 70500,
      "d": 187.5,
      "v": 100
    },
    {
      "midi": 30,
      "hit": false,
      "t": 70500,
      "d": 187.5,
      "v": 100
    },
    {
      "midi": 66,
      "hit": false,
      "t": 70500,
      "d": 187.5,
      "v": 100
    },
    {
      "midi": 62,
      "hit": false,
      "t": 70500,
      "d": 187.5,
      "v": 100
    },
    {
      "midi": 57,
      "hit": false,
      "t": 70500,
      "d": 187.5,
      "v": 100
    },
    {
      "midi": 42,
      "hit": false,
      "t": 70687.5,
      "d": 187.5,
      "v": 100
    },
    {
      "midi": 30,
      "hit": false,
      "t": 70687.5,
      "d": 187.5,
      "v": 100
    },
    {
      "midi": 66,
      "hit": false,
      "t": 70687.5,
      "d": 187.5,
      "v": 100
    },
    {
      "midi": 62,
      "hit": false,
      "t": 70687.5,
      "d": 187.5,
      "v": 100
    },
    {
      "midi": 57,
      "hit": false,
      "t": 70687.5,
      "d": 187.5,
      "v": 100
    },
    {
      "midi": 69,
      "hit": false,
      "t": 70875,
      "d": 187.5,
      "v": 100
    },
    {
      "midi": 66,
      "hit": false,
      "t": 70875,
      "d": 187.5,
      "v": 100
    },
    {
      "midi": 81,
      "hit": false,
      "t": 70875,
      "d": 187.5,
      "v": 100
    },
    {
      "midi": 86,
      "hit": false,
      "t": 70875,
      "d": 375,
      "v": 100
    },
    {
      "midi": 62,
      "hit": false,
      "t": 70875,
      "d": 375,
      "v": 100
    },
    {
      "midi": 47,
      "hit": false,
      "t": 70875,
      "d": 187.5,
      "v": 100
    },
    {
      "midi": 35,
      "hit": false,
      "t": 70875,
      "d": 187.5,
      "v": 100
    },
    {
      "midi": 66,
      "hit": false,
      "t": 70875,
      "d": 375,
      "v": 100
    },
    {
      "midi": 62,
      "hit": false,
      "t": 70875,
      "d": 375,
      "v": 100
    },
    {
      "midi": 57,
      "hit": false,
      "t": 70875,
      "d": 375,
      "v": 100
    },
    {
      "midi": 47,
      "hit": false,
      "t": 71062.5,
      "d": 187.5,
      "v": 100
    },
    {
      "midi": 35,
      "hit": false,
      "t": 71062.5,
      "d": 187.5,
      "v": 100
    },
    {
      "midi": 69,
      "hit": false,
      "t": 71250,
      "d": 187.5,
      "v": 100
    },
    {
      "midi": 66,
      "hit": false,
      "t": 71250,
      "d": 187.5,
      "v": 100
    },
    {
      "midi": 81,
      "hit": false,
      "t": 71250,
      "d": 187.5,
      "v": 100
    },
    {
      "midi": 81,
      "hit": false,
      "t": 71250,
      "d": 187.5,
      "v": 100
    },
    {
      "midi": 57,
      "hit": false,
      "t": 71250,
      "d": 187.5,
      "v": 100
    },
    {
      "midi": 47,
      "hit": false,
      "t": 71250,
      "d": 187.5,
      "v": 100
    },
    {
      "midi": 35,
      "hit": false,
      "t": 71250,
      "d": 187.5,
      "v": 100
    },
    {
      "midi": 54,
      "hit": false,
      "t": 71250,
      "d": 375,
      "v": 100
    },
    {
      "midi": 66,
      "hit": false,
      "t": 71250,
      "d": 187.5,
      "v": 100
    },
    {
      "midi": 62,
      "hit": false,
      "t": 71250,
      "d": 187.5,
      "v": 100
    },
    {
      "midi": 57,
      "hit": false,
      "t": 71250,
      "d": 187.5,
      "v": 100
    },
    {
      "midi": 47,
      "hit": false,
      "t": 71437.5,
      "d": 187.5,
      "v": 100
    },
    {
      "midi": 35,
      "hit": false,
      "t": 71437.5,
      "d": 187.5,
      "v": 100
    },
    {
      "midi": 66,
      "hit": false,
      "t": 71437.5,
      "d": 187.5,
      "v": 100
    },
    {
      "midi": 62,
      "hit": false,
      "t": 71437.5,
      "d": 187.5,
      "v": 100
    },
    {
      "midi": 57,
      "hit": false,
      "t": 71437.5,
      "d": 187.5,
      "v": 100
    },
    {
      "midi": 69,
      "hit": false,
      "t": 71625,
      "d": 187.5,
      "v": 100
    },
    {
      "midi": 66,
      "hit": false,
      "t": 71625,
      "d": 187.5,
      "v": 100
    },
    {
      "midi": 81,
      "hit": false,
      "t": 71625,
      "d": 187.5,
      "v": 100
    },
    {
      "midi": 88,
      "hit": false,
      "t": 71625,
      "d": 187.5,
      "v": 100
    },
    {
      "midi": 64,
      "hit": false,
      "t": 71625,
      "d": 187.5,
      "v": 100
    },
    {
      "midi": 45,
      "hit": false,
      "t": 71625,
      "d": 187.5,
      "v": 100
    },
    {
      "midi": 33,
      "hit": false,
      "t": 71625,
      "d": 187.5,
      "v": 100
    },
    {
      "midi": 54,
      "hit": false,
      "t": 71625,
      "d": 375,
      "v": 100
    },
    {
      "midi": 66,
      "hit": false,
      "t": 71625,
      "d": 187.5,
      "v": 100
    },
    {
      "midi": 62,
      "hit": false,
      "t": 71625,
      "d": 187.5,
      "v": 100
    },
    {
      "midi": 57,
      "hit": false,
      "t": 71625,
      "d": 187.5,
      "v": 100
    },
    {
      "midi": 45,
      "hit": false,
      "t": 71812.5,
      "d": 187.5,
      "v": 100
    },
    {
      "midi": 33,
      "hit": false,
      "t": 71812.5,
      "d": 187.5,
      "v": 100
    },
    {
      "midi": 66,
      "hit": false,
      "t": 71812.5,
      "d": 187.5,
      "v": 100
    },
    {
      "midi": 62,
      "hit": false,
      "t": 71812.5,
      "d": 187.5,
      "v": 100
    },
    {
      "midi": 57,
      "hit": false,
      "t": 71812.5,
      "d": 187.5,
      "v": 100
    },
    {
      "midi": 69,
      "hit": false,
      "t": 72000,
      "d": 750,
      "v": 100
    },
    {
      "midi": 66,
      "hit": false,
      "t": 72000,
      "d": 750,
      "v": 100
    },
    {
      "midi": 81,
      "hit": false,
      "t": 72000,
      "d": 750,
      "v": 100
    },
    {
      "midi": 86,
      "hit": false,
      "t": 72000,
      "d": 375,
      "v": 100
    },
    {
      "midi": 62,
      "hit": false,
      "t": 72000,
      "d": 375,
      "v": 100
    },
    {
      "midi": 43,
      "hit": false,
      "t": 72000,
      "d": 187.5,
      "v": 100
    },
    {
      "midi": 31,
      "hit": false,
      "t": 72000,
      "d": 187.5,
      "v": 100
    },
    {
      "midi": 59,
      "hit": false,
      "t": 72000,
      "d": 375,
      "v": 100
    },
    {
      "midi": 66,
      "hit": false,
      "t": 72000,
      "d": 375,
      "v": 100
    },
    {
      "midi": 62,
      "hit": false,
      "t": 72000,
      "d": 375,
      "v": 100
    },
    {
      "midi": 43,
      "hit": false,
      "t": 72187.5,
      "d": 187.5,
      "v": 100
    },
    {
      "midi": 31,
      "hit": false,
      "t": 72187.5,
      "d": 187.5,
      "v": 100
    },
    {
      "midi": 81,
      "hit": false,
      "t": 72375,
      "d": 187.5,
      "v": 100
    },
    {
      "midi": 59,
      "hit": false,
      "t": 72375,
      "d": 187.5,
      "v": 100
    },
    {
      "midi": 43,
      "hit": false,
      "t": 72375,
      "d": 187.5,
      "v": 100
    },
    {
      "midi": 31,
      "hit": false,
      "t": 72375,
      "d": 187.5,
      "v": 100
    },
    {
      "midi": 54,
      "hit": false,
      "t": 72375,
      "d": 375,
      "v": 100
    },
    {
      "midi": 66,
      "hit": false,
      "t": 72375,
      "d": 187.5,
      "v": 100
    },
    {
      "midi": 59,
      "hit": false,
      "t": 72375,
      "d": 187.5,
      "v": 100
    },
    {
      "midi": 62,
      "hit": false,
      "t": 72375,
      "d": 187.5,
      "v": 100
    },
    {
      "midi": 43,
      "hit": false,
      "t": 72562.5,
      "d": 187.5,
      "v": 100
    },
    {
      "midi": 31,
      "hit": false,
      "t": 72562.5,
      "d": 187.5,
      "v": 100
    },
    {
      "midi": 62,
      "hit": false,
      "t": 72562.5,
      "d": 187.5,
      "v": 100
    },
    {
      "midi": 59,
      "hit": false,
      "t": 72562.5,
      "d": 187.5,
      "v": 100
    },
    {
      "midi": 66,
      "hit": false,
      "t": 72562.5,
      "d": 187.5,
      "v": 100
    },
    {
      "midi": 67,
      "hit": false,
      "t": 72750,
      "d": 93.75,
      "v": 100
    },
    {
      "midi": 79,
      "hit": false,
      "t": 72750,
      "d": 93.75,
      "v": 100
    },
    {
      "midi": 88,
      "hit": false,
      "t": 72750,
      "d": 187.5,
      "v": 100
    },
    {
      "midi": 64,
      "hit": false,
      "t": 72750,
      "d": 187.5,
      "v": 100
    },
    {
      "midi": 42,
      "hit": false,
      "t": 72750,
      "d": 187.5,
      "v": 100
    },
    {
      "midi": 30,
      "hit": false,
      "t": 72750,
      "d": 187.5,
      "v": 100
    },
    {
      "midi": 59,
      "hit": false,
      "t": 72750,
      "d": 187.5,
      "v": 100
    },
    {
      "midi": 66,
      "hit": false,
      "t": 72750,
      "d": 187.5,
      "v": 100
    },
    {
      "midi": 62,
      "hit": false,
      "t": 72750,
      "d": 187.5,
      "v": 100
    },
    {
      "midi": 66,
      "hit": false,
      "t": 72937.5,
      "d": 93.75,
      "v": 100
    },
    {
      "midi": 78,
      "hit": false,
      "t": 72937.5,
      "d": 93.75,
      "v": 100
    },
    {
      "midi": 42,
      "hit": false,
      "t": 72937.5,
      "d": 187.5,
      "v": 100
    },
    {
      "midi": 30,
      "hit": false,
      "t": 72937.5,
      "d": 187.5,
      "v": 100
    },
    {
      "midi": 59,
      "hit": false,
      "t": 72937.5,
      "d": 187.5,
      "v": 100
    },
    {
      "midi": 66,
      "hit": false,
      "t": 72937.5,
      "d": 187.5,
      "v": 100
    },
    {
      "midi": 62,
      "hit": false,
      "t": 72937.5,
      "d": 187.5,
      "v": 100
    },
    {
      "midi": 62,
      "hit": false,
      "t": 73125,
      "d": 375,
      "v": 100
    },
    {
      "midi": 74,
      "hit": false,
      "t": 73125,
      "d": 375,
      "v": 100
    },
    {
      "midi": 90,
      "hit": false,
      "t": 73125,
      "d": 375,
      "v": 100
    },
    {
      "midi": 66,
      "hit": false,
      "t": 73125,
      "d": 375,
      "v": 100
    },
    {
      "midi": 40,
      "hit": false,
      "t": 73125,
      "d": 187.5,
      "v": 100
    },
    {
      "midi": 28,
      "hit": false,
      "t": 73125,
      "d": 187.5,
      "v": 100
    },
    {
      "midi": 64,
      "hit": false,
      "t": 73125,
      "d": 750,
      "v": 100
    },
    {
      "midi": 62,
      "hit": false,
      "t": 73125,
      "d": 187.5,
      "v": 100
    },
    {
      "midi": 59,
      "hit": false,
      "t": 73125,
      "d": 187.5,
      "v": 100
    },
    {
      "midi": 67,
      "hit": false,
      "t": 73125,
      "d": 187.5,
      "v": 100
    },
    {
      "midi": 40,
      "hit": false,
      "t": 73312.5,
      "d": 187.5,
      "v": 100
    },
    {
      "midi": 28,
      "hit": false,
      "t": 73312.5,
      "d": 187.5,
      "v": 100
    },
    {
      "midi": 59,
      "hit": false,
      "t": 73312.5,
      "d": 187.5,
      "v": 100
    },
    {
      "midi": 67,
      "hit": false,
      "t": 73312.5,
      "d": 187.5,
      "v": 100
    },
    {
      "midi": 62,
      "hit": false,
      "t": 73312.5,
      "d": 187.5,
      "v": 100
    },
    {
      "midi": 64,
      "hit": false,
      "t": 73500,
      "d": 750,
      "v": 100
    },
    {
      "midi": 76,
      "hit": false,
      "t": 73500,
      "d": 750,
      "v": 100
    },
    {
      "midi": 78,
      "hit": false,
      "t": 73500,
      "d": 187.5,
      "v": 100
    },
    {
      "midi": 91,
      "hit": false,
      "t": 73500,
      "d": 187.5,
      "v": 100
    },
    {
      "midi": 67,
      "hit": false,
      "t": 73500,
      "d": 187.5,
      "v": 100
    },
    {
      "midi": 40,
      "hit": false,
      "t": 73500,
      "d": 187.5,
      "v": 100
    },
    {
      "midi": 28,
      "hit": false,
      "t": 73500,
      "d": 187.5,
      "v": 100
    },
    {
      "midi": 54,
      "hit": false,
      "t": 73500,
      "d": 375,
      "v": 100
    },
    {
      "midi": 79,
      "hit": false,
      "t": 73687.5,
      "d": 187.5,
      "v": 100
    },
    {
      "midi": 40,
      "hit": false,
      "t": 73687.5,
      "d": 187.5,
      "v": 100
    },
    {
      "midi": 28,
      "hit": false,
      "t": 73687.5,
      "d": 187.5,
      "v": 100
    },
    {
      "midi": 64,
      "hit": false,
      "t": 73687.5,
      "d": 187.5,
      "v": 100
    },
    {
      "midi": 61,
      "hit": false,
      "t": 73687.5,
      "d": 187.5,
      "v": 100
    },
    {
      "midi": 57,
      "hit": false,
      "t": 73687.5,
      "d": 187.5,
      "v": 100
    },
    {
      "midi": 81,
      "hit": false,
      "t": 73875,
      "d": 187.5,
      "v": 100
    },
    {
      "midi": 88,
      "hit": false,
      "t": 73875,
      "d": 187.5,
      "v": 100
    },
    {
      "midi": 64,
      "hit": false,
      "t": 73875,
      "d": 187.5,
      "v": 100
    },
    {
      "midi": 45,
      "hit": false,
      "t": 73875,
      "d": 187.5,
      "v": 100
    },
    {
      "midi": 33,
      "hit": false,
      "t": 73875,
      "d": 187.5,
      "v": 100
    },
    {
      "midi": 54,
      "hit": false,
      "t": 73875,
      "d": 375,
      "v": 100
    },
    {
      "midi": 64,
      "hit": false,
      "t": 73875,
      "d": 187.5,
      "v": 100
    },
    {
      "midi": 61,
      "hit": false,
      "t": 73875,
      "d": 187.5,
      "v": 100
    },
    {
      "midi": 57,
      "hit": false,
      "t": 73875,
      "d": 187.5,
      "v": 100
    },
    {
      "midi": 45,
      "hit": false,
      "t": 74062.5,
      "d": 187.5,
      "v": 100
    },
    {
      "midi": 33,
      "hit": false,
      "t": 74062.5,
      "d": 187.5,
      "v": 100
    },
    {
      "midi": 64,
      "hit": false,
      "t": 74062.5,
      "d": 187.5,
      "v": 100
    },
    {
      "midi": 61,
      "hit": false,
      "t": 74062.5,
      "d": 187.5,
      "v": 100
    },
    {
      "midi": 57,
      "hit": false,
      "t": 74062.5,
      "d": 187.5,
      "v": 100
    },
    {
      "midi": 66,
      "hit": false,
      "t": 74250,
      "d": 187.5,
      "v": 100
    },
    {
      "midi": 62,
      "hit": false,
      "t": 74250,
      "d": 187.5,
      "v": 100
    },
    {
      "midi": 78,
      "hit": false,
      "t": 74250,
      "d": 187.5,
      "v": 100
    },
    {
      "midi": 78,
      "hit": false,
      "t": 74250,
      "d": 187.5,
      "v": 100
    },
    {
      "midi": 93,
      "hit": false,
      "t": 74250,
      "d": 375,
      "v": 100
    },
    {
      "midi": 62,
      "hit": false,
      "t": 74250,
      "d": 375,
      "v": 100
    },
    {
      "midi": 47,
      "hit": false,
      "t": 74250,
      "d": 187.5,
      "v": 100
    },
    {
      "midi": 35,
      "hit": false,
      "t": 74250,
      "d": 187.5,
      "v": 100
    },
    {
      "midi": 62,
      "hit": false,
      "t": 74250,
      "d": 187.5,
      "v": 100
    },
    {
      "midi": 74,
      "hit": false,
      "t": 74250,
      "d": 1125,
      "v": 100
    },
    {
      "midi": 50,
      "hit": false,
      "t": 74250,
      "d": 1125,
      "v": 100
    },
    {
      "midi": 66,
      "hit": false,
      "t": 74250,
      "d": 3375,
      "v": 100
    },
    {
      "midi": 62,
      "hit": false,
      "t": 74250,
      "d": 4125,
      "v": 100
    },
    {
      "midi": 59,
      "hit": false,
      "t": 74250,
      "d": 375,
      "v": 100
    },
    {
      "midi": 66,
      "hit": false,
      "t": 74250,
      "d": 375,
      "v": 100
    },
    {
      "midi": 62,
      "hit": false,
      "t": 74250,
      "d": 375,
      "v": 100
    },
    {
      "midi": 79,
      "hit": false,
      "t": 74437.5,
      "d": 187.5,
      "v": 100
    },
    {
      "midi": 47,
      "hit": false,
      "t": 74437.5,
      "d": 187.5,
      "v": 100
    },
    {
      "midi": 35,
      "hit": false,
      "t": 74437.5,
      "d": 187.5,
      "v": 100
    },
    {
      "midi": 66,
      "hit": false,
      "t": 74625,
      "d": 187.5,
      "v": 100
    },
    {
      "midi": 62,
      "hit": false,
      "t": 74625,
      "d": 187.5,
      "v": 100
    },
    {
      "midi": 78,
      "hit": false,
      "t": 74625,
      "d": 187.5,
      "v": 100
    },
    {
      "midi": 81,
      "hit": false,
      "t": 74625,
      "d": 187.5,
      "v": 100
    },
    {
      "midi": 90,
      "hit": false,
      "t": 74625,
      "d": 187.5,
      "v": 100
    },
    {
      "midi": 57,
      "hit": false,
      "t": 74625,
      "d": 187.5,
      "v": 100
    },
    {
      "midi": 47,
      "hit": false,
      "t": 74625,
      "d": 187.5,
      "v": 100
    },
    {
      "midi": 35,
      "hit": false,
      "t": 74625,
      "d": 187.5,
      "v": 100
    },
    {
      "midi": 54,
      "hit": false,
      "t": 74625,
      "d": 375,
      "v": 100
    },
    {
      "midi": 66,
      "hit": false,
      "t": 74625,
      "d": 187.5,
      "v": 100
    },
    {
      "midi": 59,
      "hit": false,
      "t": 74625,
      "d": 187.5,
      "v": 100
    },
    {
      "midi": 62,
      "hit": false,
      "t": 74625,
      "d": 187.5,
      "v": 100
    },
    {
      "midi": 91,
      "hit": false,
      "t": 74812.5,
      "d": 187.5,
      "v": 100
    },
    {
      "midi": 47,
      "hit": false,
      "t": 74812.5,
      "d": 187.5,
      "v": 100
    },
    {
      "midi": 35,
      "hit": false,
      "t": 74812.5,
      "d": 187.5,
      "v": 100
    },
    {
      "midi": 62,
      "hit": false,
      "t": 74812.5,
      "d": 187.5,
      "v": 100
    },
    {
      "midi": 59,
      "hit": false,
      "t": 74812.5,
      "d": 187.5,
      "v": 100
    },
    {
      "midi": 66,
      "hit": false,
      "t": 74812.5,
      "d": 187.5,
      "v": 100
    },
    {
      "midi": 66,
      "hit": false,
      "t": 75000,
      "d": 187.5,
      "v": 100
    },
    {
      "midi": 62,
      "hit": false,
      "t": 75000,
      "d": 187.5,
      "v": 100
    },
    {
      "midi": 78,
      "hit": false,
      "t": 75000,
      "d": 187.5,
      "v": 100
    },
    {
      "midi": 93,
      "hit": false,
      "t": 75000,
      "d": 375,
      "v": 100
    },
    {
      "midi": 64,
      "hit": false,
      "t": 75000,
      "d": 187.5,
      "v": 100
    },
    {
      "midi": 47,
      "hit": false,
      "t": 75000,
      "d": 187.5,
      "v": 100
    },
    {
      "midi": 35,
      "hit": false,
      "t": 75000,
      "d": 187.5,
      "v": 100
    },
    {
      "midi": 59,
      "hit": false,
      "t": 75000,
      "d": 187.5,
      "v": 100
    },
    {
      "midi": 66,
      "hit": false,
      "t": 75000,
      "d": 187.5,
      "v": 100
    },
    {
      "midi": 62,
      "hit": false,
      "t": 75000,
      "d": 187.5,
      "v": 100
    },
    {
      "midi": 47,
      "hit": false,
      "t": 75187.5,
      "d": 187.5,
      "v": 100
    },
    {
      "midi": 35,
      "hit": false,
      "t": 75187.5,
      "d": 187.5,
      "v": 100
    },
    {
      "midi": 59,
      "hit": false,
      "t": 75187.5,
      "d": 187.5,
      "v": 100
    },
    {
      "midi": 66,
      "hit": false,
      "t": 75187.5,
      "d": 187.5,
      "v": 100
    },
    {
      "midi": 62,
      "hit": false,
      "t": 75187.5,
      "d": 187.5,
      "v": 100
    },
    {
      "midi": 66,
      "hit": false,
      "t": 75375,
      "d": 562.5,
      "v": 100
    },
    {
      "midi": 62,
      "hit": false,
      "t": 75375,
      "d": 562.5,
      "v": 100
    },
    {
      "midi": 78,
      "hit": false,
      "t": 75375,
      "d": 562.5,
      "v": 100
    },
    {
      "midi": 78,
      "hit": false,
      "t": 75375,
      "d": 187.5,
      "v": 100
    },
    {
      "midi": 62,
      "hit": false,
      "t": 75375,
      "d": 375,
      "v": 100
    },
    {
      "midi": 42,
      "hit": false,
      "t": 75375,
      "d": 187.5,
      "v": 100
    },
    {
      "midi": 30,
      "hit": false,
      "t": 75375,
      "d": 187.5,
      "v": 100
    },
    {
      "midi": 59,
      "hit": false,
      "t": 75375,
      "d": 375,
      "v": 100
    },
    {
      "midi": 66,
      "hit": false,
      "t": 75375,
      "d": 375,
      "v": 100
    },
    {
      "midi": 62,
      "hit": false,
      "t": 75375,
      "d": 375,
      "v": 100
    },
    {
      "midi": 79,
      "hit": false,
      "t": 75562.5,
      "d": 187.5,
      "v": 100
    },
    {
      "midi": 42,
      "hit": false,
      "t": 75562.5,
      "d": 187.5,
      "v": 100
    },
    {
      "midi": 30,
      "hit": false,
      "t": 75562.5,
      "d": 187.5,
      "v": 100
    },
    {
      "midi": 81,
      "hit": false,
      "t": 75750,
      "d": 375,
      "v": 100
    },
    {
      "midi": 57,
      "hit": false,
      "t": 75750,
      "d": 187.5,
      "v": 100
    },
    {
      "midi": 42,
      "hit": false,
      "t": 75750,
      "d": 187.5,
      "v": 100
    },
    {
      "midi": 30,
      "hit": false,
      "t": 75750,
      "d": 187.5,
      "v": 100
    },
    {
      "midi": 54,
      "hit": false,
      "t": 75750,
      "d": 375,
      "v": 100
    },
    {
      "midi": 66,
      "hit": false,
      "t": 75750,
      "d": 187.5,
      "v": 100
    },
    {
      "midi": 59,
      "hit": false,
      "t": 75750,
      "d": 187.5,
      "v": 100
    },
    {
      "midi": 62,
      "hit": false,
      "t": 75750,
      "d": 187.5,
      "v": 100
    },
    {
      "midi": 42,
      "hit": false,
      "t": 75937.5,
      "d": 187.5,
      "v": 100
    },
    {
      "midi": 30,
      "hit": false,
      "t": 75937.5,
      "d": 187.5,
      "v": 100
    },
    {
      "midi": 62,
      "hit": false,
      "t": 75937.5,
      "d": 187.5,
      "v": 100
    },
    {
      "midi": 59,
      "hit": false,
      "t": 75937.5,
      "d": 187.5,
      "v": 100
    },
    {
      "midi": 66,
      "hit": false,
      "t": 75937.5,
      "d": 187.5,
      "v": 100
    },
    {
      "midi": 66,
      "hit": false,
      "t": 76125,
      "d": 93.75,
      "v": 100
    },
    {
      "midi": 78,
      "hit": false,
      "t": 76125,
      "d": 93.75,
      "v": 100
    },
    {
      "midi": 64,
      "hit": false,
      "t": 76125,
      "d": 187.5,
      "v": 100
    },
    {
      "midi": 42,
      "hit": false,
      "t": 76125,
      "d": 187.5,
      "v": 100
    },
    {
      "midi": 30,
      "hit": false,
      "t": 76125,
      "d": 187.5,
      "v": 100
    },
    {
      "midi": 54,
      "hit": false,
      "t": 76125,
      "d": 375,
      "v": 100
    },
    {
      "midi": 59,
      "hit": false,
      "t": 76125,
      "d": 187.5,
      "v": 100
    },
    {
      "midi": 66,
      "hit": false,
      "t": 76125,
      "d": 187.5,
      "v": 100
    },
    {
      "midi": 62,
      "hit": false,
      "t": 76125,
      "d": 187.5,
      "v": 100
    },
    {
      "midi": 66,
      "hit": false,
      "t": 76312.5,
      "d": 93.75,
      "v": 100
    },
    {
      "midi": 78,
      "hit": false,
      "t": 76312.5,
      "d": 93.75,
      "v": 100
    },
    {
      "midi": 42,
      "hit": false,
      "t": 76312.5,
      "d": 187.5,
      "v": 100
    },
    {
      "midi": 30,
      "hit": false,
      "t": 76312.5,
      "d": 187.5,
      "v": 100
    },
    {
      "midi": 59,
      "hit": false,
      "t": 76312.5,
      "d": 187.5,
      "v": 100
    },
    {
      "midi": 66,
      "hit": false,
      "t": 76312.5,
      "d": 187.5,
      "v": 100
    },
    {
      "midi": 62,
      "hit": false,
      "t": 76312.5,
      "d": 187.5,
      "v": 100
    },
    {
      "midi": 66,
      "hit": false,
      "t": 76500,
      "d": 375,
      "v": 100
    },
    {
      "midi": 78,
      "hit": false,
      "t": 76500,
      "d": 375,
      "v": 100
    },
    {
      "midi": 62,
      "hit": false,
      "t": 76500,
      "d": 375,
      "v": 100
    },
    {
      "midi": 43,
      "hit": false,
      "t": 76500,
      "d": 187.5,
      "v": 100
    },
    {
      "midi": 31,
      "hit": false,
      "t": 76500,
      "d": 187.5,
      "v": 100
    },
    {
      "midi": 66,
      "hit": false,
      "t": 76500,
      "d": 375,
      "v": 100
    },
    {
      "midi": 59,
      "hit": false,
      "t": 76500,
      "d": 375,
      "v": 100
    },
    {
      "midi": 62,
      "hit": false,
      "t": 76500,
      "d": 375,
      "v": 100
    },
    {
      "midi": 43,
      "hit": false,
      "t": 76687.5,
      "d": 187.5,
      "v": 100
    },
    {
      "midi": 31,
      "hit": false,
      "t": 76687.5,
      "d": 187.5,
      "v": 100
    },
    {
      "midi": 67,
      "hit": false,
      "t": 76875,
      "d": 375,
      "v": 100
    },
    {
      "midi": 79,
      "hit": false,
      "t": 76875,
      "d": 375,
      "v": 100
    },
    {
      "midi": 57,
      "hit": false,
      "t": 76875,
      "d": 187.5,
      "v": 100
    },
    {
      "midi": 43,
      "hit": false,
      "t": 76875,
      "d": 187.5,
      "v": 100
    },
    {
      "midi": 31,
      "hit": false,
      "t": 76875,
      "d": 187.5,
      "v": 100
    },
    {
      "midi": 54,
      "hit": false,
      "t": 76875,
      "d": 375,
      "v": 100
    },
    {
      "midi": 59,
      "hit": false,
      "t": 76875,
      "d": 187.5,
      "v": 100
    },
    {
      "midi": 67,
      "hit": false,
      "t": 76875,
      "d": 187.5,
      "v": 100
    },
    {
      "midi": 62,
      "hit": false,
      "t": 76875,
      "d": 187.5,
      "v": 100
    },
    {
      "midi": 43,
      "hit": false,
      "t": 77062.5,
      "d": 187.5,
      "v": 100
    },
    {
      "midi": 31,
      "hit": false,
      "t": 77062.5,
      "d": 187.5,
      "v": 100
    },
    {
      "midi": 59,
      "hit": false,
      "t": 77062.5,
      "d": 187.5,
      "v": 100
    },
    {
      "midi": 67,
      "hit": false,
      "t": 77062.5,
      "d": 187.5,
      "v": 100
    },
    {
      "midi": 62,
      "hit": false,
      "t": 77062.5,
      "d": 187.5,
      "v": 100
    },
    {
      "midi": 69,
      "hit": false,
      "t": 77250,
      "d": 375,
      "v": 100
    },
    {
      "midi": 81,
      "hit": false,
      "t": 77250,
      "d": 375,
      "v": 100
    },
    {
      "midi": 64,
      "hit": false,
      "t": 77250,
      "d": 187.5,
      "v": 100
    },
    {
      "midi": 43,
      "hit": false,
      "t": 77250,
      "d": 187.5,
      "v": 100
    },
    {
      "midi": 31,
      "hit": false,
      "t": 77250,
      "d": 187.5,
      "v": 100
    },
    {
      "midi": 67,
      "hit": false,
      "t": 77250,
      "d": 187.5,
      "v": 100
    },
    {
      "midi": 59,
      "hit": false,
      "t": 77250,
      "d": 187.5,
      "v": 100
    },
    {
      "midi": 62,
      "hit": false,
      "t": 77250,
      "d": 187.5,
      "v": 100
    },
    {
      "midi": 43,
      "hit": false,
      "t": 77437.5,
      "d": 187.5,
      "v": 100
    },
    {
      "midi": 31,
      "hit": false,
      "t": 77437.5,
      "d": 187.5,
      "v": 100
    },
    {
      "midi": 67,
      "hit": false,
      "t": 77437.5,
      "d": 187.5,
      "v": 100
    },
    {
      "midi": 59,
      "hit": false,
      "t": 77437.5,
      "d": 187.5,
      "v": 100
    },
    {
      "midi": 62,
      "hit": false,
      "t": 77437.5,
      "d": 187.5,
      "v": 100
    },
    {
      "midi": 64,
      "hit": false,
      "t": 77625,
      "d": 937.5,
      "v": 100
    },
    {
      "midi": 76,
      "hit": false,
      "t": 77625,
      "d": 937.5,
      "v": 100
    },
    {
      "midi": 78,
      "hit": false,
      "t": 77625,
      "d": 187.5,
      "v": 100
    },
    {
      "midi": 66,
      "hit": false,
      "t": 77625,
      "d": 375,
      "v": 100
    },
    {
      "midi": 45,
      "hit": false,
      "t": 77625,
      "d": 187.5,
      "v": 100
    },
    {
      "midi": 33,
      "hit": false,
      "t": 77625,
      "d": 187.5,
      "v": 100
    },
    {
      "midi": 64,
      "hit": false,
      "t": 77625,
      "d": 750,
      "v": 100
    },
    {
      "midi": 64,
      "hit": false,
      "t": 77625,
      "d": 187.5,
      "v": 100
    },
    {
      "midi": 62,
      "hit": false,
      "t": 77625,
      "d": 187.5,
      "v": 100
    },
    {
      "midi": 57,
      "hit": false,
      "t": 77625,
      "d": 187.5,
      "v": 100
    },
    {
      "midi": 79,
      "hit": false,
      "t": 77812.5,
      "d": 187.5,
      "v": 100
    },
    {
      "midi": 45,
      "hit": false,
      "t": 77812.5,
      "d": 187.5,
      "v": 100
    },
    {
      "midi": 33,
      "hit": false,
      "t": 77812.5,
      "d": 187.5,
      "v": 100
    },
    {
      "midi": 64,
      "hit": false,
      "t": 77812.5,
      "d": 187.5,
      "v": 100
    },
    {
      "midi": 62,
      "hit": false,
      "t": 77812.5,
      "d": 187.5,
      "v": 100
    },
    {
      "midi": 57,
      "hit": false,
      "t": 77812.5,
      "d": 187.5,
      "v": 100
    },
    {
      "midi": 81,
      "hit": false,
      "t": 78000,
      "d": 187.5,
      "v": 100
    },
    {
      "midi": 67,
      "hit": false,
      "t": 78000,
      "d": 187.5,
      "v": 100
    },
    {
      "midi": 45,
      "hit": false,
      "t": 78000,
      "d": 187.5,
      "v": 100
    },
    {
      "midi": 33,
      "hit": false,
      "t": 78000,
      "d": 187.5,
      "v": 100
    },
    {
      "midi": 54,
      "hit": false,
      "t": 78000,
      "d": 375,
      "v": 100
    },
    {
      "midi": 45,
      "hit": false,
      "t": 78187.5,
      "d": 187.5,
      "v": 100
    },
    {
      "midi": 33,
      "hit": false,
      "t": 78187.5,
      "d": 187.5,
      "v": 100
    },
    {
      "midi": 64,
      "hit": false,
      "t": 78187.5,
      "d": 187.5,
      "v": 100
    },
    {
      "midi": 62,
      "hit": false,
      "t": 78187.5,
      "d": 187.5,
      "v": 100
    },
    {
      "midi": 57,
      "hit": false,
      "t": 78187.5,
      "d": 187.5,
      "v": 100
    },
    {
      "midi": 86,
      "hit": false,
      "t": 78375,
      "d": 187.5,
      "v": 100
    },
    {
      "midi": 64,
      "hit": false,
      "t": 78375,
      "d": 187.5,
      "v": 100
    },
    {
      "midi": 45,
      "hit": false,
      "t": 78375,
      "d": 187.5,
      "v": 100
    },
    {
      "midi": 33,
      "hit": false,
      "t": 78375,
      "d": 187.5,
      "v": 100
    },
    {
      "midi": 62,
      "hit": false,
      "t": 78375,
      "d": 2625,
      "v": 100
    },
    {
      "midi": 54,
      "hit": false,
      "t": 78375,
      "d": 375,
      "v": 100
    },
    {
      "midi": 61,
      "hit": false,
      "t": 78375,
      "d": 187.5,
      "v": 100
    },
    {
      "midi": 57,
      "hit": false,
      "t": 78375,
      "d": 187.5,
      "v": 100
    },
    {
      "midi": 64,
      "hit": false,
      "t": 78375,
      "d": 187.5,
      "v": 100
    },
    {
      "midi": 45,
      "hit": false,
      "t": 78562.5,
      "d": 187.5,
      "v": 100
    },
    {
      "midi": 33,
      "hit": false,
      "t": 78562.5,
      "d": 187.5,
      "v": 100
    },
    {
      "midi": 61,
      "hit": false,
      "t": 78562.5,
      "d": 187.5,
      "v": 100
    },
    {
      "midi": 57,
      "hit": false,
      "t": 78562.5,
      "d": 187.5,
      "v": 100
    },
    {
      "midi": 64,
      "hit": false,
      "t": 78562.5,
      "d": 187.5,
      "v": 100
    },
    {
      "midi": 69,
      "hit": false,
      "t": 78750,
      "d": 187.5,
      "v": 100
    },
    {
      "midi": 66,
      "hit": false,
      "t": 78750,
      "d": 187.5,
      "v": 100
    },
    {
      "midi": 81,
      "hit": false,
      "t": 78750,
      "d": 187.5,
      "v": 100
    },
    {
      "midi": 81,
      "hit": false,
      "t": 78750,
      "d": 3375,
      "v": 100
    },
    {
      "midi": 62,
      "hit": false,
      "t": 78750,
      "d": 375,
      "v": 100
    },
    {
      "midi": 38,
      "hit": false,
      "t": 78750,
      "d": 187.5,
      "v": 100
    },
    {
      "midi": 26,
      "hit": false,
      "t": 78750,
      "d": 187.5,
      "v": 100
    },
    {
      "midi": 62,
      "hit": false,
      "t": 78750,
      "d": 187.5,
      "v": 100
    },
    {
      "midi": 74,
      "hit": false,
      "t": 78750,
      "d": 1125,
      "v": 100
    },
    {
      "midi": 50,
      "hit": false,
      "t": 78750,
      "d": 1125,
      "v": 100
    },
    {
      "midi": 66,
      "hit": false,
      "t": 78750,
      "d": 2250,
      "v": 100
    },
    {
      "midi": 66,
      "hit": false,
      "t": 78750,
      "d": 375,
      "v": 100
    },
    {
      "midi": 62,
      "hit": false,
      "t": 78750,
      "d": 375,
      "v": 100
    },
    {
      "midi": 57,
      "hit": false,
      "t": 78750,
      "d": 375,
      "v": 100
    },
    {
      "midi": 38,
      "hit": false,
      "t": 78937.5,
      "d": 187.5,
      "v": 100
    },
    {
      "midi": 26,
      "hit": false,
      "t": 78937.5,
      "d": 187.5,
      "v": 100
    },
    {
      "midi": 69,
      "hit": false,
      "t": 79125,
      "d": 187.5,
      "v": 100
    },
    {
      "midi": 66,
      "hit": false,
      "t": 79125,
      "d": 187.5,
      "v": 100
    },
    {
      "midi": 81,
      "hit": false,
      "t": 79125,
      "d": 187.5,
      "v": 100
    },
    {
      "midi": 57,
      "hit": false,
      "t": 79125,
      "d": 187.5,
      "v": 100
    },
    {
      "midi": 38,
      "hit": false,
      "t": 79125,
      "d": 187.5,
      "v": 100
    },
    {
      "midi": 26,
      "hit": false,
      "t": 79125,
      "d": 187.5,
      "v": 100
    },
    {
      "midi": 54,
      "hit": false,
      "t": 79125,
      "d": 375,
      "v": 100
    },
    {
      "midi": 66,
      "hit": false,
      "t": 79125,
      "d": 187.5,
      "v": 100
    },
    {
      "midi": 62,
      "hit": false,
      "t": 79125,
      "d": 187.5,
      "v": 100
    },
    {
      "midi": 57,
      "hit": false,
      "t": 79125,
      "d": 187.5,
      "v": 100
    },
    {
      "midi": 38,
      "hit": false,
      "t": 79312.5,
      "d": 187.5,
      "v": 100
    },
    {
      "midi": 26,
      "hit": false,
      "t": 79312.5,
      "d": 187.5,
      "v": 100
    },
    {
      "midi": 66,
      "hit": false,
      "t": 79312.5,
      "d": 187.5,
      "v": 100
    },
    {
      "midi": 62,
      "hit": false,
      "t": 79312.5,
      "d": 187.5,
      "v": 100
    },
    {
      "midi": 57,
      "hit": false,
      "t": 79312.5,
      "d": 187.5,
      "v": 100
    },
    {
      "midi": 69,
      "hit": false,
      "t": 79500,
      "d": 187.5,
      "v": 100
    },
    {
      "midi": 66,
      "hit": false,
      "t": 79500,
      "d": 187.5,
      "v": 100
    },
    {
      "midi": 81,
      "hit": false,
      "t": 79500,
      "d": 187.5,
      "v": 100
    },
    {
      "midi": 64,
      "hit": false,
      "t": 79500,
      "d": 187.5,
      "v": 100
    },
    {
      "midi": 42,
      "hit": false,
      "t": 79500,
      "d": 187.5,
      "v": 100
    },
    {
      "midi": 30,
      "hit": false,
      "t": 79500,
      "d": 187.5,
      "v": 100
    },
    {
      "midi": 66,
      "hit": false,
      "t": 79500,
      "d": 187.5,
      "v": 100
    },
    {
      "midi": 62,
      "hit": false,
      "t": 79500,
      "d": 187.5,
      "v": 100
    },
    {
      "midi": 57,
      "hit": false,
      "t": 79500,
      "d": 187.5,
      "v": 100
    },
    {
      "midi": 42,
      "hit": false,
      "t": 79687.5,
      "d": 187.5,
      "v": 100
    },
    {
      "midi": 30,
      "hit": false,
      "t": 79687.5,
      "d": 187.5,
      "v": 100
    },
    {
      "midi": 66,
      "hit": false,
      "t": 79687.5,
      "d": 187.5,
      "v": 100
    },
    {
      "midi": 62,
      "hit": false,
      "t": 79687.5,
      "d": 187.5,
      "v": 100
    },
    {
      "midi": 57,
      "hit": false,
      "t": 79687.5,
      "d": 187.5,
      "v": 100
    },
    {
      "midi": 69,
      "hit": false,
      "t": 79875,
      "d": 187.5,
      "v": 100
    },
    {
      "midi": 66,
      "hit": false,
      "t": 79875,
      "d": 187.5,
      "v": 100
    },
    {
      "midi": 81,
      "hit": false,
      "t": 79875,
      "d": 187.5,
      "v": 100
    },
    {
      "midi": 62,
      "hit": false,
      "t": 79875,
      "d": 375,
      "v": 100
    },
    {
      "midi": 47,
      "hit": false,
      "t": 79875,
      "d": 187.5,
      "v": 100
    },
    {
      "midi": 35,
      "hit": false,
      "t": 79875,
      "d": 187.5,
      "v": 100
    },
    {
      "midi": 66,
      "hit": false,
      "t": 79875,
      "d": 375,
      "v": 100
    },
    {
      "midi": 62,
      "hit": false,
      "t": 79875,
      "d": 375,
      "v": 100
    },
    {
      "midi": 57,
      "hit": false,
      "t": 79875,
      "d": 375,
      "v": 100
    },
    {
      "midi": 47,
      "hit": false,
      "t": 80062.5,
      "d": 187.5,
      "v": 100
    },
    {
      "midi": 35,
      "hit": false,
      "t": 80062.5,
      "d": 187.5,
      "v": 100
    },
    {
      "midi": 69,
      "hit": false,
      "t": 80250,
      "d": 187.5,
      "v": 100
    },
    {
      "midi": 66,
      "hit": false,
      "t": 80250,
      "d": 187.5,
      "v": 100
    },
    {
      "midi": 81,
      "hit": false,
      "t": 80250,
      "d": 187.5,
      "v": 100
    },
    {
      "midi": 57,
      "hit": false,
      "t": 80250,
      "d": 187.5,
      "v": 100
    },
    {
      "midi": 47,
      "hit": false,
      "t": 80250,
      "d": 187.5,
      "v": 100
    },
    {
      "midi": 35,
      "hit": false,
      "t": 80250,
      "d": 187.5,
      "v": 100
    },
    {
      "midi": 54,
      "hit": false,
      "t": 80250,
      "d": 375,
      "v": 100
    },
    {
      "midi": 66,
      "hit": false,
      "t": 80250,
      "d": 187.5,
      "v": 100
    },
    {
      "midi": 62,
      "hit": false,
      "t": 80250,
      "d": 187.5,
      "v": 100
    },
    {
      "midi": 57,
      "hit": false,
      "t": 80250,
      "d": 187.5,
      "v": 100
    },
    {
      "midi": 47,
      "hit": false,
      "t": 80437.5,
      "d": 187.5,
      "v": 100
    },
    {
      "midi": 35,
      "hit": false,
      "t": 80437.5,
      "d": 187.5,
      "v": 100
    },
    {
      "midi": 66,
      "hit": false,
      "t": 80437.5,
      "d": 187.5,
      "v": 100
    },
    {
      "midi": 62,
      "hit": false,
      "t": 80437.5,
      "d": 187.5,
      "v": 100
    },
    {
      "midi": 57,
      "hit": false,
      "t": 80437.5,
      "d": 187.5,
      "v": 100
    },
    {
      "midi": 69,
      "hit": false,
      "t": 80625,
      "d": 187.5,
      "v": 100
    },
    {
      "midi": 66,
      "hit": false,
      "t": 80625,
      "d": 187.5,
      "v": 100
    },
    {
      "midi": 81,
      "hit": false,
      "t": 80625,
      "d": 187.5,
      "v": 100
    },
    {
      "midi": 64,
      "hit": false,
      "t": 80625,
      "d": 187.5,
      "v": 100
    },
    {
      "midi": 45,
      "hit": false,
      "t": 80625,
      "d": 187.5,
      "v": 100
    },
    {
      "midi": 33,
      "hit": false,
      "t": 80625,
      "d": 187.5,
      "v": 100
    },
    {
      "midi": 54,
      "hit": false,
      "t": 80625,
      "d": 375,
      "v": 100
    },
    {
      "midi": 66,
      "hit": false,
      "t": 80625,
      "d": 187.5,
      "v": 100
    },
    {
      "midi": 62,
      "hit": false,
      "t": 80625,
      "d": 187.5,
      "v": 100
    },
    {
      "midi": 57,
      "hit": false,
      "t": 80625,
      "d": 187.5,
      "v": 100
    },
    {
      "midi": 45,
      "hit": false,
      "t": 80812.5,
      "d": 187.5,
      "v": 100
    },
    {
      "midi": 33,
      "hit": false,
      "t": 80812.5,
      "d": 187.5,
      "v": 100
    },
    {
      "midi": 66,
      "hit": false,
      "t": 80812.5,
      "d": 187.5,
      "v": 100
    },
    {
      "midi": 62,
      "hit": false,
      "t": 80812.5,
      "d": 187.5,
      "v": 100
    },
    {
      "midi": 57,
      "hit": false,
      "t": 80812.5,
      "d": 187.5,
      "v": 100
    },
    {
      "midi": 72,
      "hit": false,
      "t": 81000,
      "d": 750,
      "v": 100
    },
    {
      "midi": 84,
      "hit": false,
      "t": 81000,
      "d": 750,
      "v": 100
    },
    {
      "midi": 65,
      "hit": false,
      "t": 81000,
      "d": 375,
      "v": 100
    },
    {
      "midi": 43,
      "hit": false,
      "t": 81000,
      "d": 187.5,
      "v": 100
    },
    {
      "midi": 31,
      "hit": false,
      "t": 81000,
      "d": 187.5,
      "v": 100
    },
    {
      "midi": 72,
      "hit": false,
      "t": 81000,
      "d": 1125,
      "v": 100
    },
    {
      "midi": 65,
      "hit": false,
      "t": 81000,
      "d": 2250,
      "v": 100
    },
    {
      "midi": 58,
      "hit": false,
      "t": 81000,
      "d": 375,
      "v": 100
    },
    {
      "midi": 65,
      "hit": false,
      "t": 81000,
      "d": 375,
      "v": 100
    },
    {
      "midi": 62,
      "hit": false,
      "t": 81000,
      "d": 375,
      "v": 100
    },
    {
      "midi": 43,
      "hit": false,
      "t": 81187.5,
      "d": 187.5,
      "v": 100
    },
    {
      "midi": 31,
      "hit": false,
      "t": 81187.5,
      "d": 187.5,
      "v": 100
    },
    {
      "midi": 58,
      "hit": false,
      "t": 81375,
      "d": 187.5,
      "v": 100
    },
    {
      "midi": 43,
      "hit": false,
      "t": 81375,
      "d": 187.5,
      "v": 100
    },
    {
      "midi": 31,
      "hit": false,
      "t": 81375,
      "d": 187.5,
      "v": 100
    },
    {
      "midi": 54,
      "hit": false,
      "t": 81375,
      "d": 375,
      "v": 100
    },
    {
      "midi": 65,
      "hit": false,
      "t": 81375,
      "d": 187.5,
      "v": 100
    },
    {
      "midi": 58,
      "hit": false,
      "t": 81375,
      "d": 187.5,
      "v": 100
    },
    {
      "midi": 62,
      "hit": false,
      "t": 81375,
      "d": 187.5,
      "v": 100
    },
    {
      "midi": 43,
      "hit": false,
      "t": 81562.5,
      "d": 187.5,
      "v": 100
    },
    {
      "midi": 31,
      "hit": false,
      "t": 81562.5,
      "d": 187.5,
      "v": 100
    },
    {
      "midi": 65,
      "hit": false,
      "t": 81562.5,
      "d": 187.5,
      "v": 100
    },
    {
      "midi": 58,
      "hit": false,
      "t": 81562.5,
      "d": 187.5,
      "v": 100
    },
    {
      "midi": 62,
      "hit": false,
      "t": 81562.5,
      "d": 187.5,
      "v": 100
    },
    {
      "midi": 70,
      "hit": false,
      "t": 81750,
      "d": 93.75,
      "v": 100
    },
    {
      "midi": 82,
      "hit": false,
      "t": 81750,
      "d": 93.75,
      "v": 100
    },
    {
      "midi": 62,
      "hit": false,
      "t": 81750,
      "d": 187.5,
      "v": 100
    },
    {
      "midi": 43,
      "hit": false,
      "t": 81750,
      "d": 187.5,
      "v": 100
    },
    {
      "midi": 31,
      "hit": false,
      "t": 81750,
      "d": 187.5,
      "v": 100
    },
    {
      "midi": 65,
      "hit": false,
      "t": 81750,
      "d": 187.5,
      "v": 100
    },
    {
      "midi": 58,
      "hit": false,
      "t": 81750,
      "d": 187.5,
      "v": 100
    },
    {
      "midi": 62,
      "hit": false,
      "t": 81750,
      "d": 187.5,
      "v": 100
    },
    {
      "midi": 69,
      "hit": false,
      "t": 81937.5,
      "d": 93.75,
      "v": 100
    },
    {
      "midi": 81,
      "hit": false,
      "t": 81937.5,
      "d": 93.75,
      "v": 100
    },
    {
      "midi": 43,
      "hit": false,
      "t": 81937.5,
      "d": 187.5,
      "v": 100
    },
    {
      "midi": 31,
      "hit": false,
      "t": 81937.5,
      "d": 187.5,
      "v": 100
    },
    {
      "midi": 58,
      "hit": false,
      "t": 81937.5,
      "d": 187.5,
      "v": 100
    },
    {
      "midi": 62,
      "hit": false,
      "t": 81937.5,
      "d": 187.5,
      "v": 100
    },
    {
      "midi": 65,
      "hit": false,
      "t": 81937.5,
      "d": 187.5,
      "v": 100
    },
    {
      "midi": 65,
      "hit": false,
      "t": 82125,
      "d": 375,
      "v": 100
    },
    {
      "midi": 77,
      "hit": false,
      "t": 82125,
      "d": 375,
      "v": 100
    },
    {
      "midi": 77,
      "hit": false,
      "t": 82125,
      "d": 375,
      "v": 100
    },
    {
      "midi": 62,
      "hit": false,
      "t": 82125,
      "d": 375,
      "v": 100
    },
    {
      "midi": 48,
      "hit": false,
      "t": 82125,
      "d": 187.5,
      "v": 100
    },
    {
      "midi": 36,
      "hit": false,
      "t": 82125,
      "d": 187.5,
      "v": 100
    },
    {
      "midi": 69,
      "hit": false,
      "t": 82125,
      "d": 750,
      "v": 100
    },
    {
      "midi": 65,
      "hit": false,
      "t": 82125,
      "d": 375,
      "v": 100
    },
    {
      "midi": 62,
      "hit": false,
      "t": 82125,
      "d": 375,
      "v": 100
    },
    {
      "midi": 58,
      "hit": false,
      "t": 82125,
      "d": 375,
      "v": 100
    },
    {
      "midi": 48,
      "hit": false,
      "t": 82312.5,
      "d": 187.5,
      "v": 100
    },
    {
      "midi": 36,
      "hit": false,
      "t": 82312.5,
      "d": 187.5,
      "v": 100
    },
    {
      "midi": 67,
      "hit": false,
      "t": 82500,
      "d": 750,
      "v": 100
    },
    {
      "midi": 79,
      "hit": false,
      "t": 82500,
      "d": 750,
      "v": 100
    },
    {
      "midi": 79,
      "hit": false,
      "t": 82500,
      "d": 750,
      "v": 100
    },
    {
      "midi": 55,
      "hit": false,
      "t": 82500,
      "d": 187.5,
      "v": 100
    },
    {
      "midi": 48,
      "hit": false,
      "t": 82500,
      "d": 187.5,
      "v": 100
    },
    {
      "midi": 36,
      "hit": false,
      "t": 82500,
      "d": 187.5,
      "v": 100
    },
    {
      "midi": 54,
      "hit": false,
      "t": 82500,
      "d": 375,
      "v": 100
    },
    {
      "midi": 65,
      "hit": false,
      "t": 82500,
      "d": 187.5,
      "v": 100
    },
    {
      "midi": 62,
      "hit": false,
      "t": 82500,
      "d": 187.5,
      "v": 100
    },
    {
      "midi": 58,
      "hit": false,
      "t": 82500,
      "d": 187.5,
      "v": 100
    },
    {
      "midi": 48,
      "hit": false,
      "t": 82687.5,
      "d": 187.5,
      "v": 100
    },
    {
      "midi": 36,
      "hit": false,
      "t": 82687.5,
      "d": 187.5,
      "v": 100
    },
    {
      "midi": 65,
      "hit": false,
      "t": 82687.5,
      "d": 187.5,
      "v": 100
    },
    {
      "midi": 62,
      "hit": false,
      "t": 82687.5,
      "d": 187.5,
      "v": 100
    },
    {
      "midi": 58,
      "hit": false,
      "t": 82687.5,
      "d": 187.5,
      "v": 100
    },
    {
      "midi": 62,
      "hit": false,
      "t": 82875,
      "d": 187.5,
      "v": 100
    },
    {
      "midi": 38,
      "hit": false,
      "t": 82875,
      "d": 187.5,
      "v": 100
    },
    {
      "midi": 26,
      "hit": false,
      "t": 82875,
      "d": 187.5,
      "v": 100
    },
    {
      "midi": 70,
      "hit": false,
      "t": 82875,
      "d": 375,
      "v": 100
    },
    {
      "midi": 54,
      "hit": false,
      "t": 82875,
      "d": 375,
      "v": 100
    },
    {
      "midi": 60,
      "hit": false,
      "t": 82875,
      "d": 187.5,
      "v": 100
    },
    {
      "midi": 67,
      "hit": false,
      "t": 82875,
      "d": 187.5,
      "v": 100
    },
    {
      "midi": 64,
      "hit": false,
      "t": 82875,
      "d": 187.5,
      "v": 100
    },
    {
      "midi": 38,
      "hit": false,
      "t": 83062.5,
      "d": 187.5,
      "v": 100
    },
    {
      "midi": 26,
      "hit": false,
      "t": 83062.5,
      "d": 187.5,
      "v": 100
    },
    {
      "midi": 60,
      "hit": false,
      "t": 83062.5,
      "d": 187.5,
      "v": 100
    },
    {
      "midi": 64,
      "hit": false,
      "t": 83062.5,
      "d": 187.5,
      "v": 100
    },
    {
      "midi": 67,
      "hit": false,
      "t": 83062.5,
      "d": 187.5,
      "v": 100
    },
    {
      "midi": 57,
      "hit": false,
      "t": 83234.375,
      "d": 375,
      "v": 100
    },
    {
      "midi": 62,
      "hit": false,
      "t": 83234.375,
      "d": 375,
      "v": 100
    },
    {
      "midi": 66,
      "hit": false,
      "t": 83234.375,
      "d": 375,
      "v": 100
    },
    {
      "midi": 66,
      "hit": false,
      "t": 83250,
      "d": 375,
      "v": 100
    },
    {
      "midi": 69,
      "hit": false,
      "t": 83250,
      "d": 375,
      "v": 100
    },
    {
      "midi": 78,
      "hit": false,
      "t": 83250,
      "d": 375,
      "v": 100
    },
    {
      "midi": 78,
      "hit": false,
      "t": 83250,
      "d": 187.5,
      "v": 100
    },
    {
      "midi": 62,
      "hit": false,
      "t": 83250,
      "d": 375,
      "v": 100
    },
    {
      "midi": 40,
      "hit": false,
      "t": 83250,
      "d": 187.5,
      "v": 100
    },
    {
      "midi": 28,
      "hit": false,
      "t": 83250,
      "d": 187.5,
      "v": 100
    },
    {
      "midi": 62,
      "hit": false,
      "t": 83250,
      "d": 187.5,
      "v": 100
    },
    {
      "midi": 74,
      "hit": false,
      "t": 83250,
      "d": 1125,
      "v": 100
    },
    {
      "midi": 50,
      "hit": false,
      "t": 83250,
      "d": 1125,
      "v": 100
    },
    {
      "midi": 66,
      "hit": false,
      "t": 83250,
      "d": 4500,
      "v": 100
    },
    {
      "midi": 79,
      "hit": false,
      "t": 83437.5,
      "d": 187.5,
      "v": 100
    },
    {
      "midi": 40,
      "hit": false,
      "t": 83437.5,
      "d": 187.5,
      "v": 100
    },
    {
      "midi": 28,
      "hit": false,
      "t": 83437.5,
      "d": 187.5,
      "v": 100
    },
    {
      "midi": 66,
      "hit": false,
      "t": 83609.375,
      "d": 187.5,
      "v": 100
    },
    {
      "midi": 62,
      "hit": false,
      "t": 83609.375,
      "d": 187.5,
      "v": 100
    },
    {
      "midi": 57,
      "hit": false,
      "t": 83609.375,
      "d": 187.5,
      "v": 100
    },
    {
      "midi": 62,
      "hit": false,
      "t": 83625,
      "d": 375,
      "v": 100
    },
    {
      "midi": 66,
      "hit": false,
      "t": 83625,
      "d": 375,
      "v": 100
    },
    {
      "midi": 74,
      "hit": false,
      "t": 83625,
      "d": 375,
      "v": 100
    },
    {
      "midi": 81,
      "hit": false,
      "t": 83625,
      "d": 187.5,
      "v": 100
    },
    {
      "midi": 57,
      "hit": false,
      "t": 83625,
      "d": 187.5,
      "v": 100
    },
    {
      "midi": 40,
      "hit": false,
      "t": 83625,
      "d": 187.5,
      "v": 100
    },
    {
      "midi": 28,
      "hit": false,
      "t": 83625,
      "d": 187.5,
      "v": 100
    },
    {
      "midi": 54,
      "hit": false,
      "t": 83625,
      "d": 375,
      "v": 100
    },
    {
      "midi": 66,
      "hit": false,
      "t": 83796.875,
      "d": 187.5,
      "v": 100
    },
    {
      "midi": 62,
      "hit": false,
      "t": 83796.875,
      "d": 187.5,
      "v": 100
    },
    {
      "midi": 57,
      "hit": false,
      "t": 83796.875,
      "d": 187.5,
      "v": 100
    },
    {
      "midi": 40,
      "hit": false,
      "t": 83812.5,
      "d": 187.5,
      "v": 100
    },
    {
      "midi": 28,
      "hit": false,
      "t": 83812.5,
      "d": 187.5,
      "v": 100
    },
    {
      "midi": 66,
      "hit": false,
      "t": 83984.375,
      "d": 187.5,
      "v": 100
    },
    {
      "midi": 62,
      "hit": false,
      "t": 83984.375,
      "d": 187.5,
      "v": 100
    },
    {
      "midi": 57,
      "hit": false,
      "t": 83984.375,
      "d": 187.5,
      "v": 100
    },
    {
      "midi": 67,
      "hit": false,
      "t": 84000,
      "d": 375,
      "v": 100
    },
    {
      "midi": 79,
      "hit": false,
      "t": 84000,
      "d": 375,
      "v": 100
    },
    {
      "midi": 81,
      "hit": false,
      "t": 84000,
      "d": 187.5,
      "v": 100
    },
    {
      "midi": 64,
      "hit": false,
      "t": 84000,
      "d": 187.5,
      "v": 100
    },
    {
      "midi": 28,
      "hit": false,
      "t": 84000,
      "d": 187.5,
      "v": 100
    },
    {
      "midi": 40,
      "hit": false,
      "t": 84000,
      "d": 187.5,
      "v": 100
    },
    {
      "midi": 66,
      "hit": false,
      "t": 84171.875,
      "d": 187.5,
      "v": 100
    },
    {
      "midi": 62,
      "hit": false,
      "t": 84171.875,
      "d": 187.5,
      "v": 100
    },
    {
      "midi": 57,
      "hit": false,
      "t": 84171.875,
      "d": 187.5,
      "v": 100
    },
    {
      "midi": 28,
      "hit": false,
      "t": 84187.5,
      "d": 187.5,
      "v": 100
    },
    {
      "midi": 40,
      "hit": false,
      "t": 84187.5,
      "d": 187.5,
      "v": 100
    },
    {
      "midi": 67,
      "hit": false,
      "t": 84359.375,
      "d": 375,
      "v": 100
    },
    {
      "midi": 57,
      "hit": false,
      "t": 84359.375,
      "d": 375,
      "v": 100
    },
    {
      "midi": 64,
      "hit": false,
      "t": 84359.375,
      "d": 375,
      "v": 100
    },
    {
      "midi": 66,
      "hit": false,
      "t": 84375,
      "d": 375,
      "v": 100
    },
    {
      "midi": 69,
      "hit": false,
      "t": 84375,
      "d": 375,
      "v": 100
    },
    {
      "midi": 78,
      "hit": false,
      "t": 84375,
      "d": 375,
      "v": 100
    },
    {
      "midi": 78,
      "hit": false,
      "t": 84375,
      "d": 187.5,
      "v": 100
    },
    {
      "midi": 62,
      "hit": false,
      "t": 84375,
      "d": 375,
      "v": 100
    },
    {
      "midi": 45,
      "hit": false,
      "t": 84375,
      "d": 187.5,
      "v": 100
    },
    {
      "midi": 33,
      "hit": false,
      "t": 84375,
      "d": 187.5,
      "v": 100
    },
    {
      "midi": 67,
      "hit": false,
      "t": 84375,
      "d": 1125,
      "v": 100
    },
    {
      "midi": 62,
      "hit": false,
      "t": 84375,
      "d": 375,
      "v": 100
    },
    {
      "midi": 79,
      "hit": false,
      "t": 84562.5,
      "d": 187.5,
      "v": 100
    },
    {
      "midi": 45,
      "hit": false,
      "t": 84562.5,
      "d": 187.5,
      "v": 100
    },
    {
      "midi": 33,
      "hit": false,
      "t": 84562.5,
      "d": 187.5,
      "v": 100
    },
    {
      "midi": 57,
      "hit": false,
      "t": 84734.375,
      "d": 187.5,
      "v": 100
    },
    {
      "midi": 67,
      "hit": false,
      "t": 84734.375,
      "d": 187.5,
      "v": 100
    },
    {
      "midi": 64,
      "hit": false,
      "t": 84734.375,
      "d": 187.5,
      "v": 100
    },
    {
      "midi": 62,
      "hit": false,
      "t": 84750,
      "d": 187.5,
      "v": 100
    },
    {
      "midi": 66,
      "hit": false,
      "t": 84750,
      "d": 187.5,
      "v": 100
    },
    {
      "midi": 74,
      "hit": false,
      "t": 84750,
      "d": 187.5,
      "v": 100
    },
    {
      "midi": 81,
      "hit": false,
      "t": 84750,
      "d": 187.5,
      "v": 100
    },
    {
      "midi": 57,
      "hit": false,
      "t": 84750,
      "d": 187.5,
      "v": 100
    },
    {
      "midi": 45,
      "hit": false,
      "t": 84750,
      "d": 187.5,
      "v": 100
    },
    {
      "midi": 33,
      "hit": false,
      "t": 84750,
      "d": 187.5,
      "v": 100
    },
    {
      "midi": 54,
      "hit": false,
      "t": 84750,
      "d": 375,
      "v": 100
    },
    {
      "midi": 62,
      "hit": false,
      "t": 84750,
      "d": 187.5,
      "v": 100
    },
    {
      "midi": 67,
      "hit": false,
      "t": 84921.875,
      "d": 187.5,
      "v": 100
    },
    {
      "midi": 64,
      "hit": false,
      "t": 84921.875,
      "d": 187.5,
      "v": 100
    },
    {
      "midi": 57,
      "hit": false,
      "t": 84921.875,
      "d": 187.5,
      "v": 100
    },
    {
      "midi": 45,
      "hit": false,
      "t": 84937.5,
      "d": 187.5,
      "v": 100
    },
    {
      "midi": 33,
      "hit": false,
      "t": 84937.5,
      "d": 187.5,
      "v": 100
    },
    {
      "midi": 62,
      "hit": false,
      "t": 84937.5,
      "d": 187.5,
      "v": 100
    },
    {
      "midi": 67,
      "hit": false,
      "t": 85109.375,
      "d": 187.5,
      "v": 100
    },
    {
      "midi": 57,
      "hit": false,
      "t": 85109.375,
      "d": 187.5,
      "v": 100
    },
    {
      "midi": 62,
      "hit": false,
      "t": 85125,
      "d": 2625,
      "v": 100
    },
    {
      "midi": 66,
      "hit": false,
      "t": 85125,
      "d": 2625,
      "v": 100
    },
    {
      "midi": 74,
      "hit": false,
      "t": 85125,
      "d": 2625,
      "v": 100
    },
    {
      "midi": 81,
      "hit": false,
      "t": 85125,
      "d": 187.5,
      "v": 100
    },
    {
      "midi": 64,
      "hit": false,
      "t": 85125,
      "d": 187.5,
      "v": 100
    },
    {
      "midi": 33,
      "hit": false,
      "t": 85125,
      "d": 187.5,
      "v": 100
    },
    {
      "midi": 45,
      "hit": false,
      "t": 85125,
      "d": 187.5,
      "v": 100
    },
    {
      "midi": 54,
      "hit": false,
      "t": 85125,
      "d": 375,
      "v": 100
    },
    {
      "midi": 61,
      "hit": false,
      "t": 85125,
      "d": 187.5,
      "v": 100
    },
    {
      "midi": 67,
      "hit": false,
      "t": 85296.875,
      "d": 187.5,
      "v": 100
    },
    {
      "midi": 57,
      "hit": false,
      "t": 85296.875,
      "d": 187.5,
      "v": 100
    },
    {
      "midi": 33,
      "hit": false,
      "t": 85312.5,
      "d": 187.5,
      "v": 100
    },
    {
      "midi": 45,
      "hit": false,
      "t": 85312.5,
      "d": 187.5,
      "v": 100
    },
    {
      "midi": 61,
      "hit": false,
      "t": 85312.5,
      "d": 187.5,
      "v": 100
    },
    {
      "midi": 74,
      "hit": false,
      "t": 85500,
      "d": 2250,
      "v": 100
    },
    {
      "midi": 62,
      "hit": false,
      "t": 85500,
      "d": 2250,
      "v": 100
    },
    {
      "midi": 38,
      "hit": false,
      "t": 85500,
      "d": 2250,
      "v": 100
    },
    {
      "midi": 62,
      "hit": false,
      "t": 85500,
      "d": 2250,
      "v": 100
    },
    {
      "midi": 64,
      "hit": false,
      "t": 85500,
      "d": 2250,
      "v": 100
    },
    {
      "midi": 64,
      "hit": false,
      "t": 85500,
      "d": 2250,
      "v": 100
    },
    {
      "midi": 62,
      "hit": false,
      "t": 85500,
      "d": 2250,
      "v": 100
    },
    {
      "midi": 66,
      "hit": false,
      "t": 85500,
      "d": 2250,
      "v": 100
    },
    {
      "midi": 57,
      "hit": false,
      "t": 85500,
      "d": 1125,
      "v": 100
    },
    {
      "midi": 66,
      "hit": false,
      "t": 85500,
      "d": 187.5,
      "v": 100
    },
    {
      "midi": 62,
      "hit": false,
      "t": 85500,
      "d": 187.5,
      "v": 100
    },
    {
      "midi": 57,
      "hit": false,
      "t": 85500,
      "d": 187.5,
      "v": 100
    },
    {
      "midi": 45,
      "hit": false,
      "t": 85500,
      "d": 93.75,
      "v": 100
    },
    {
      "midi": 50,
      "hit": false,
      "t": 85593.75,
      "d": 93.75,
      "v": 100
    },
    {
      "midi": 52,
      "hit": false,
      "t": 85687.5,
      "d": 93.75,
      "v": 100
    },
    {
      "midi": 57,
      "hit": false,
      "t": 85781.25,
      "d": 93.75,
      "v": 100
    },
    {
      "midi": 50,
      "hit": false,
      "t": 85875,
      "d": 93.75,
      "v": 100
    },
    {
      "midi": 52,
      "hit": false,
      "t": 85968.75,
      "d": 93.75,
      "v": 100
    },
    {
      "midi": 57,
      "hit": false,
      "t": 86062.5,
      "d": 93.75,
      "v": 100
    },
    {
      "midi": 62,
      "hit": false,
      "t": 86156.25,
      "d": 93.75,
      "v": 100
    },
    {
      "midi": 52,
      "hit": false,
      "t": 86250,
      "d": 93.75,
      "v": 100
    },
    {
      "midi": 57,
      "hit": false,
      "t": 86343.75,
      "d": 93.75,
      "v": 100
    },
    {
      "midi": 62,
      "hit": false,
      "t": 86437.5,
      "d": 93.75,
      "v": 100
    },
    {
      "midi": 64,
      "hit": false,
      "t": 86531.25,
      "d": 93.75,
      "v": 100
    },
    {
      "midi": 57,
      "hit": false,
      "t": 86625,
      "d": 93.75,
      "v": 100
    },
    {
      "midi": 62,
      "hit": false,
      "t": 86718.75,
      "d": 93.75,
      "v": 100
    },
    {
      "midi": 64,
      "hit": false,
      "t": 86812.5,
      "d": 93.75,
      "v": 100
    },
    {
      "midi": 69,
      "hit": false,
      "t": 86906.25,
      "d": 93.75,
      "v": 100
    },
    {
      "midi": 62,
      "hit": false,
      "t": 87000,
      "d": 93.75,
      "v": 100
    },
    {
      "midi": 64,
      "hit": false,
      "t": 87093.75,
      "d": 93.75,
      "v": 100
    },
    {
      "midi": 69,
      "hit": false,
      "t": 87187.5,
      "d": 93.75,
      "v": 100
    },
    {
      "midi": 74,
      "hit": false,
      "t": 87281.25,
      "d": 93.75,
      "v": 100
    },
    {
      "midi": 64,
      "hit": false,
      "t": 87375,
      "d": 93.75,
      "v": 100
    },
    {
      "midi": 69,
      "hit": false,
      "t": 87468.75,
      "d": 93.75,
      "v": 100
    },
    {
      "midi": 74,
      "hit": false,
      "t": 87562.5,
      "d": 93.75,
      "v": 100
    },
    {
      "midi": 76,
      "hit": false,
      "t": 87656.25,
      "d": 93.75,
      "v": 100
    },
    {
      "midi": 69,
      "hit": false,
      "t": 87750,
      "d": 93.75,
      "v": 100
    },
    {
      "midi": 74,
      "hit": false,
      "t": 87843.75,
      "d": 93.75,
      "v": 100
    },
    {
      "midi": 76,
      "hit": false,
      "t": 87937.5,
      "d": 93.75,
      "v": 100
    },
    {
      "midi": 81,
      "hit": false,
      "t": 88031.25,
      "d": 93.75,
      "v": 100
    },
    {
      "midi": 86,
      "hit": false,
      "t": 88125,
      "d": 93.75,
      "v": 100
    }
  ]
}