{
  "jsonPath": "Animes/Darkstalkers MIDI Collection/morrigan-theme.json",
  "path": "Animes\\Darkstalkers MIDI Collection\\Morrigan Theme.mid",
  "name": "Morrigan Theme",
  "difficulty": "Advanced",
  "bpm": 120,
  "notes": [
    {
      "midi": 44,
      "hit": false,
      "t": 1777.776,
      "d": 69.44437500000004,
      "v": 100
    },
    {
      "midi": 44,
      "hit": false,
      "t": 1888.8870000000002,
      "d": 69.44437500000004,
      "v": 100
    },
    {
      "midi": 44,
      "hit": false,
      "t": 1999.9980000000003,
      "d": 69.44437499999981,
      "v": 100
    },
    {
      "midi": 39,
      "hit": false,
      "t": 2111.109,
      "d": 69.44437500000004,
      "v": 100
    },
    {
      "midi": 44,
      "hit": false,
      "t": 2111.109,
      "d": 69.44437500000004,
      "v": 100
    },
    {
      "midi": 44,
      "hit": false,
      "t": 2222.22,
      "d": 69.44437500000004,
      "v": 100
    },
    {
      "midi": 44,
      "hit": false,
      "t": 2333.3309999999997,
      "d": 69.44437500000004,
      "v": 100
    },
    {
      "midi": 44,
      "hit": false,
      "t": 2444.4419999999996,
      "d": 69.44437500000004,
      "v": 100
    },
    {
      "midi": 27,
      "hit": false,
      "t": 2444.442,
      "d": 138.88875000000007,
      "v": 100
    },
    {
      "midi": 44,
      "hit": false,
      "t": 2555.5529999999994,
      "d": 69.44437500000004,
      "v": 100
    },
    {
      "midi": 44,
      "hit": false,
      "t": 2666.6639999999993,
      "d": 69.44437500000004,
      "v": 100
    },
    {
      "midi": 44,
      "hit": false,
      "t": 2777.774999999999,
      "d": 69.44437500000004,
      "v": 100
    },
    {
      "midi": 27,
      "hit": false,
      "t": 2777.775,
      "d": 212.96275000000014,
      "v": 100
    },
    {
      "midi": 44,
      "hit": false,
      "t": 2888.885999999999,
      "d": 69.44437500000004,
      "v": 100
    },
    {
      "midi": 36,
      "hit": false,
      "t": 2888.886,
      "d": 138.88875000000007,
      "v": 127
    },
    {
      "midi": 44,
      "hit": false,
      "t": 2999.996999999999,
      "d": 69.44437500000004,
      "v": 100
    },
    {
      "midi": 44,
      "hit": false,
      "t": 3111.107999999999,
      "d": 69.44437500000004,
      "v": 100
    },
    {
      "midi": 27,
      "hit": false,
      "t": 3111.108,
      "d": 282.4071250000002,
      "v": 100
    },
    {
      "midi": 44,
      "hit": false,
      "t": 3222.2189999999987,
      "d": 69.44437500000004,
      "v": 100
    },
    {
      "midi": 38,
      "hit": false,
      "t": 3222.2189999999987,
      "d": 69.44437500000004,
      "v": 100
    },
    {
      "midi": 40,
      "hit": false,
      "t": 3222.219,
      "d": 546.2957500000002,
      "v": 100
    },
    {
      "midi": 44,
      "hit": false,
      "t": 3333.3299999999986,
      "d": 69.44437500000004,
      "v": 100
    },
    {
      "midi": 38,
      "hit": false,
      "t": 3333.3299999999986,
      "d": 69.44437500000004,
      "v": 100
    },
    {
      "midi": 38,
      "hit": false,
      "t": 3444.4409999999984,
      "d": 69.44437500000004,
      "v": 100
    },
    {
      "midi": 44,
      "hit": false,
      "t": 3555.5519999999983,
      "d": 69.44437500000004,
      "v": 100
    },
    {
      "midi": 75,
      "hit": false,
      "t": 3555.552,
      "d": 212.96275000000014,
      "v": 100
    },
    {
      "midi": 36,
      "hit": false,
      "t": 3555.552,
      "d": 282.4071250000002,
      "v": 127
    },
    {
      "midi": 44,
      "hit": false,
      "t": 3666.662999999998,
      "d": 69.44437500000004,
      "v": 100
    },
    {
      "midi": 76,
      "hit": false,
      "t": 3666.663,
      "d": 69.44437500000004,
      "v": 100
    },
    {
      "midi": 44,
      "hit": false,
      "t": 3777.773999999998,
      "d": 138.88875000000007,
      "v": 100
    },
    {
      "midi": 83,
      "hit": false,
      "t": 3777.774,
      "d": 69.44437500000004,
      "v": 100
    },
    {
      "midi": 79,
      "hit": false,
      "t": 3888.8849999999998,
      "d": 69.44437500000004,
      "v": 100
    },
    {
      "midi": 40,
      "hit": false,
      "t": 3888.885,
      "d": 69.44437500000004,
      "v": 100
    },
    {
      "midi": 75,
      "hit": false,
      "t": 3888.885,
      "d": 69.44437500000004,
      "v": 100
    },
    {
      "midi": 44,
      "hit": false,
      "t": 3999.9959999999983,
      "d": 69.44437500000004,
      "v": 100
    },
    {
      "midi": 81,
      "hit": false,
      "t": 3999.9959999999996,
      "d": 69.44437500000004,
      "v": 100
    },
    {
      "midi": 36,
      "hit": false,
      "t": 3999.996,
      "d": 282.4071249999997,
      "v": 127
    },
    {
      "midi": 44,
      "hit": false,
      "t": 4111.106999999998,
      "d": 69.44437500000004,
      "v": 100
    },
    {
      "midi": 86,
      "hit": false,
      "t": 4111.107,
      "d": 69.44437500000004,
      "v": 100
    },
    {
      "midi": 75,
      "hit": false,
      "t": 4111.107,
      "d": 212.9627499999997,
      "v": 100
    },
    {
      "midi": 44,
      "hit": false,
      "t": 4222.217999999998,
      "d": 138.88875000000007,
      "v": 100
    },
    {
      "midi": 84,
      "hit": false,
      "t": 4222.218,
      "d": 69.44437500000004,
      "v": 100
    },
    {
      "midi": 50,
      "hit": false,
      "t": 4222.218,
      "d": 69.44437500000004,
      "v": 100
    },
    {
      "midi": 83,
      "hit": false,
      "t": 4333.329,
      "d": 2134.257125,
      "v": 100
    },
    {
      "midi": 52,
      "hit": false,
      "t": 4333.329,
      "d": 69.44437500000004,
      "v": 100
    },
    {
      "midi": 27,
      "hit": false,
      "t": 4333.329000000001,
      "d": 69.44437500000004,
      "v": 100
    },
    {
      "midi": 44,
      "hit": false,
      "t": 4444.439999999998,
      "d": 69.44437500000004,
      "v": 100
    },
    {
      "midi": 43,
      "hit": false,
      "t": 4444.44,
      "d": 138.88875000000007,
      "v": 100
    },
    {
      "midi": 36,
      "hit": false,
      "t": 4444.44,
      "d": 282.4071249999997,
      "v": 127
    },
    {
      "midi": 27,
      "hit": false,
      "t": 4444.4400000000005,
      "d": 212.9627499999997,
      "v": 100
    },
    {
      "midi": 44,
      "hit": false,
      "t": 4555.550999999998,
      "d": 69.44437500000004,
      "v": 100
    },
    {
      "midi": 75,
      "hit": false,
      "t": 4555.5509999999995,
      "d": 212.9627499999997,
      "v": 100
    },
    {
      "midi": 44,
      "hit": false,
      "t": 4666.6619999999975,
      "d": 138.88875000000007,
      "v": 100
    },
    {
      "midi": 43,
      "hit": false,
      "t": 4666.661999999999,
      "d": 138.88875000000007,
      "v": 100
    },
    {
      "midi": 27,
      "hit": false,
      "t": 4777.773,
      "d": 69.44437500000004,
      "v": 100
    },
    {
      "midi": 44,
      "hit": false,
      "t": 4888.883999999997,
      "d": 69.44437500000004,
      "v": 100
    },
    {
      "midi": 43,
      "hit": false,
      "t": 4888.883999999999,
      "d": 282.4071249999997,
      "v": 100
    },
    {
      "midi": 36,
      "hit": false,
      "t": 4888.883999999999,
      "d": 282.4071249999997,
      "v": 127
    },
    {
      "midi": 39,
      "hit": false,
      "t": 4888.884,
      "d": 282.4071249999997,
      "v": 100
    },
    {
      "midi": 44,
      "hit": false,
      "t": 4999.994999999997,
      "d": 69.44437500000004,
      "v": 100
    },
    {
      "midi": 44,
      "hit": false,
      "t": 5111.105999999997,
      "d": 138.88875000000007,
      "v": 100
    },
    {
      "midi": 44,
      "hit": false,
      "t": 5333.327999999997,
      "d": 69.44437500000004,
      "v": 100
    },
    {
      "midi": 40,
      "hit": false,
      "t": 5333.327999999999,
      "d": 212.9627499999997,
      "v": 100
    },
    {
      "midi": 36,
      "hit": false,
      "t": 5333.327999999999,
      "d": 282.4071249999997,
      "v": 127
    },
    {
      "midi": 75,
      "hit": false,
      "t": 5333.3279999999995,
      "d": 212.9627499999997,
      "v": 100
    },
    {
      "midi": 44,
      "hit": false,
      "t": 5444.438999999997,
      "d": 69.44437500000004,
      "v": 100
    },
    {
      "midi": 44,
      "hit": false,
      "t": 5555.5499999999965,
      "d": 138.88875000000007,
      "v": 100
    },
    {
      "midi": 40,
      "hit": false,
      "t": 5666.660999999998,
      "d": 69.44437500000004,
      "v": 100
    },
    {
      "midi": 75,
      "hit": false,
      "t": 5666.660999999999,
      "d": 69.44437500000004,
      "v": 100
    },
    {
      "midi": 44,
      "hit": false,
      "t": 5777.771999999996,
      "d": 69.44437500000004,
      "v": 100
    },
    {
      "midi": 36,
      "hit": false,
      "t": 5777.771999999998,
      "d": 282.4071249999997,
      "v": 127
    },
    {
      "midi": 44,
      "hit": false,
      "t": 5888.882999999996,
      "d": 69.44437500000004,
      "v": 100
    },
    {
      "midi": 75,
      "hit": false,
      "t": 5888.882999999999,
      "d": 212.9627499999997,
      "v": 100
    },
    {
      "midi": 44,
      "hit": false,
      "t": 5999.993999999996,
      "d": 138.88875000000007,
      "v": 100
    },
    {
      "midi": 40,
      "hit": false,
      "t": 5999.993999999998,
      "d": 69.44437500000004,
      "v": 100
    },
    {
      "midi": 43,
      "hit": false,
      "t": 6111.104999999998,
      "d": 69.44437500000004,
      "v": 100
    },
    {
      "midi": 27,
      "hit": false,
      "t": 6111.105,
      "d": 69.44437500000004,
      "v": 100
    },
    {
      "midi": 44,
      "hit": false,
      "t": 6222.215999999996,
      "d": 69.44437500000004,
      "v": 100
    },
    {
      "midi": 47,
      "hit": false,
      "t": 6222.215999999998,
      "d": 138.88875000000007,
      "v": 100
    },
    {
      "midi": 36,
      "hit": false,
      "t": 6222.215999999998,
      "d": 282.4071249999997,
      "v": 127
    },
    {
      "midi": 27,
      "hit": false,
      "t": 6222.215999999999,
      "d": 212.9627499999997,
      "v": 100
    },
    {
      "midi": 44,
      "hit": false,
      "t": 6333.326999999996,
      "d": 69.44437500000004,
      "v": 100
    },
    {
      "midi": 75,
      "hit": false,
      "t": 6333.326999999998,
      "d": 212.9627499999997,
      "v": 100
    },
    {
      "midi": 44,
      "hit": false,
      "t": 6444.437999999996,
      "d": 138.88875000000007,
      "v": 100
    },
    {
      "midi": 46,
      "hit": false,
      "t": 6444.437999999997,
      "d": 138.88875000000007,
      "v": 100
    },
    {
      "midi": 27,
      "hit": false,
      "t": 6555.548999999999,
      "d": 69.44437500000004,
      "v": 100
    },
    {
      "midi": 44,
      "hit": false,
      "t": 6666.659999999995,
      "d": 69.44437500000004,
      "v": 100
    },
    {
      "midi": 45,
      "hit": false,
      "t": 6666.659999999997,
      "d": 282.4071249999997,
      "v": 100
    },
    {
      "midi": 36,
      "hit": false,
      "t": 6666.659999999997,
      "d": 282.4071249999997,
      "v": 127
    },
    {
      "midi": 39,
      "hit": false,
      "t": 6666.659999999999,
      "d": 282.4071249999997,
      "v": 100
    },
    {
      "midi": 44,
      "hit": false,
      "t": 6777.770999999995,
      "d": 69.44437500000004,
      "v": 100
    },
    {
      "midi": 44,
      "hit": false,
      "t": 6888.881999999995,
      "d": 138.88875000000007,
      "v": 100
    },
    {
      "midi": 44,
      "hit": false,
      "t": 7111.103999999995,
      "d": 69.44437500000004,
      "v": 100
    },
    {
      "midi": 40,
      "hit": false,
      "t": 7111.103999999997,
      "d": 212.9627499999997,
      "v": 100
    },
    {
      "midi": 36,
      "hit": false,
      "t": 7111.103999999997,
      "d": 282.4071249999997,
      "v": 127
    },
    {
      "midi": 75,
      "hit": false,
      "t": 7111.103999999998,
      "d": 212.9627499999997,
      "v": 100
    },
    {
      "midi": 44,
      "hit": false,
      "t": 7222.214999999995,
      "d": 69.44437500000004,
      "v": 100
    },
    {
      "midi": 76,
      "hit": false,
      "t": 7222.215,
      "d": 69.44437500000004,
      "v": 100
    },
    {
      "midi": 44,
      "hit": false,
      "t": 7333.325999999995,
      "d": 138.88875000000007,
      "v": 100
    },
    {
      "midi": 83,
      "hit": false,
      "t": 7333.326,
      "d": 69.44437500000004,
      "v": 100
    },
    {
      "midi": 40,
      "hit": false,
      "t": 7444.436999999996,
      "d": 69.44437500000004,
      "v": 100
    },
    {
      "midi": 75,
      "hit": false,
      "t": 7444.436999999998,
      "d": 69.44437500000004,
      "v": 100
    },
    {
      "midi": 79,
      "hit": false,
      "t": 7444.437,
      "d": 69.44437500000004,
      "v": 100
    },
    {
      "midi": 44,
      "hit": false,
      "t": 7555.547999999994,
      "d": 69.44437500000004,
      "v": 100
    },
    {
      "midi": 36,
      "hit": false,
      "t": 7555.547999999996,
      "d": 282.4071249999997,
      "v": 127
    },
    {
      "midi": 81,
      "hit": false,
      "t": 7555.548,
      "d": 69.44437500000004,
      "v": 100
    },
    {
      "midi": 44,
      "hit": false,
      "t": 7666.658999999994,
      "d": 69.44437500000004,
      "v": 100
    },
    {
      "midi": 75,
      "hit": false,
      "t": 7666.658999999998,
      "d": 212.9627499999997,
      "v": 100
    },
    {
      "midi": 86,
      "hit": false,
      "t": 7666.659,
      "d": 69.44437500000004,
      "v": 100
    },
    {
      "midi": 44,
      "hit": false,
      "t": 7777.769999999994,
      "d": 138.88875000000007,
      "v": 100
    },
    {
      "midi": 50,
      "hit": false,
      "t": 7777.769999999996,
      "d": 69.44437500000004,
      "v": 100
    },
    {
      "midi": 84,
      "hit": false,
      "t": 7777.7699999999995,
      "d": 69.44437500000004,
      "v": 100
    },
    {
      "midi": 52,
      "hit": false,
      "t": 7888.880999999996,
      "d": 69.44437500000004,
      "v": 100
    },
    {
      "midi": 27,
      "hit": false,
      "t": 7888.8809999999985,
      "d": 69.44437500000004,
      "v": 100
    },
    {
      "midi": 83,
      "hit": false,
      "t": 7888.880999999999,
      "d": 1564.8132499999992,
      "v": 100
    },
    {
      "midi": 44,
      "hit": false,
      "t": 7999.991999999994,
      "d": 69.44437500000004,
      "v": 100
    },
    {
      "midi": 43,
      "hit": false,
      "t": 7999.991999999996,
      "d": 138.88875000000007,
      "v": 100
    },
    {
      "midi": 36,
      "hit": false,
      "t": 7999.991999999996,
      "d": 282.40712500000063,
      "v": 127
    },
    {
      "midi": 27,
      "hit": false,
      "t": 7999.991999999998,
      "d": 212.9627500000006,
      "v": 100
    },
    {
      "midi": 44,
      "hit": false,
      "t": 8111.102999999994,
      "d": 69.44437500000004,
      "v": 100
    },
    {
      "midi": 75,
      "hit": false,
      "t": 8111.102999999997,
      "d": 212.9627500000006,
      "v": 100
    },
    {
      "midi": 44,
      "hit": false,
      "t": 8222.213999999994,
      "d": 138.88875000000007,
      "v": 100
    },
    {
      "midi": 43,
      "hit": false,
      "t": 8222.213999999996,
      "d": 138.88875000000007,
      "v": 100
    },
    {
      "midi": 27,
      "hit": false,
      "t": 8333.324999999999,
      "d": 69.44437499999913,
      "v": 100
    },
    {
      "midi": 44,
      "hit": false,
      "t": 8444.435999999994,
      "d": 69.44437499999913,
      "v": 100
    },
    {
      "midi": 43,
      "hit": false,
      "t": 8444.435999999996,
      "d": 282.4071249999997,
      "v": 100
    },
    {
      "midi": 36,
      "hit": false,
      "t": 8444.435999999996,
      "d": 282.4071249999997,
      "v": 127
    },
    {
      "midi": 39,
      "hit": false,
      "t": 8444.435999999998,
      "d": 282.4071249999997,
      "v": 100
    },
    {
      "midi": 44,
      "hit": false,
      "t": 8555.546999999993,
      "d": 69.44437499999913,
      "v": 100
    },
    {
      "midi": 44,
      "hit": false,
      "t": 8666.657999999992,
      "d": 138.88875000000007,
      "v": 100
    },
    {
      "midi": 88,
      "hit": false,
      "t": 8666.658,
      "d": 111.11100000000079,
      "v": 127
    },
    {
      "midi": 79,
      "hit": false,
      "t": 8666.658,
      "d": 111.11100000000079,
      "v": 127
    },
    {
      "midi": 88,
      "hit": false,
      "t": 8777.769,
      "d": 111.11100000000079,
      "v": 127
    },
    {
      "midi": 79,
      "hit": false,
      "t": 8777.769,
      "d": 111.11100000000079,
      "v": 127
    },
    {
      "midi": 44,
      "hit": false,
      "t": 8888.879999999992,
      "d": 69.44437499999913,
      "v": 100
    },
    {
      "midi": 40,
      "hit": false,
      "t": 8888.879999999996,
      "d": 212.9627500000006,
      "v": 100
    },
    {
      "midi": 36,
      "hit": false,
      "t": 8888.879999999996,
      "d": 282.4071249999997,
      "v": 127
    },
    {
      "midi": 75,
      "hit": false,
      "t": 8888.879999999997,
      "d": 212.9627500000006,
      "v": 100
    },
    {
      "midi": 44,
      "hit": false,
      "t": 8999.99099999999,
      "d": 69.44437499999913,
      "v": 100
    },
    {
      "midi": 44,
      "hit": false,
      "t": 9111.10199999999,
      "d": 138.88875000000007,
      "v": 100
    },
    {
      "midi": 40,
      "hit": false,
      "t": 9222.212999999996,
      "d": 69.44437499999913,
      "v": 100
    },
    {
      "midi": 75,
      "hit": false,
      "t": 9222.212999999998,
      "d": 69.44437499999913,
      "v": 100
    },
    {
      "midi": 44,
      "hit": false,
      "t": 9333.32399999999,
      "d": 69.44437499999913,
      "v": 100
    },
    {
      "midi": 36,
      "hit": false,
      "t": 9333.323999999995,
      "d": 282.4071249999997,
      "v": 127
    },
    {
      "midi": 44,
      "hit": false,
      "t": 9444.434999999989,
      "d": 69.44437499999913,
      "v": 100
    },
    {
      "midi": 75,
      "hit": false,
      "t": 9444.434999999998,
      "d": 212.9627500000006,
      "v": 100
    },
    {
      "midi": 44,
      "hit": false,
      "t": 9555.545999999988,
      "d": 138.88875000000007,
      "v": 100
    },
    {
      "midi": 40,
      "hit": false,
      "t": 9555.545999999995,
      "d": 69.44437499999913,
      "v": 100
    },
    {
      "midi": 43,
      "hit": false,
      "t": 9666.656999999994,
      "d": 69.44437499999913,
      "v": 100
    },
    {
      "midi": 27,
      "hit": false,
      "t": 9666.656999999997,
      "d": 69.44437499999913,
      "v": 100
    },
    {
      "midi": 44,
      "hit": false,
      "t": 9777.767999999987,
      "d": 69.44437499999913,
      "v": 100
    },
    {
      "midi": 47,
      "hit": false,
      "t": 9777.767999999993,
      "d": 138.88875000000007,
      "v": 100
    },
    {
      "midi": 36,
      "hit": false,
      "t": 9777.767999999995,
      "d": 282.4071249999997,
      "v": 127
    },
    {
      "midi": 27,
      "hit": false,
      "t": 9777.767999999996,
      "d": 212.9627500000006,
      "v": 100
    },
    {
      "midi": 88,
      "hit": false,
      "t": 9777.767999999998,
      "d": 46.29624999999942,
      "v": 100
    },
    {
      "midi": 86,
      "hit": false,
      "t": 9851.841999999997,
      "d": 46.29624999999942,
      "v": 100
    },
    {
      "midi": 44,
      "hit": false,
      "t": 9888.878999999986,
      "d": 69.44437499999913,
      "v": 100
    },
    {
      "midi": 75,
      "hit": false,
      "t": 9888.878999999999,
      "d": 212.9627500000006,
      "v": 100
    },
    {
      "midi": 84,
      "hit": false,
      "t": 9925.915999999996,
      "d": 46.29624999999942,
      "v": 100
    },
    {
      "midi": 44,
      "hit": false,
      "t": 9999.989999999985,
      "d": 138.88875000000007,
      "v": 100
    },
    {
      "midi": 46,
      "hit": false,
      "t": 9999.989999999993,
      "d": 138.88875000000007,
      "v": 100
    },
    {
      "midi": 83,
      "hit": false,
      "t": 9999.989999999994,
      "d": 46.29624999999942,
      "v": 100
    },
    {
      "midi": 81,
      "hit": false,
      "t": 10074.063999999993,
      "d": 46.29624999999942,
      "v": 100
    },
    {
      "midi": 27,
      "hit": false,
      "t": 10111.100999999997,
      "d": 69.44437499999913,
      "v": 100
    },
    {
      "midi": 79,
      "hit": false,
      "t": 10148.137999999992,
      "d": 46.29624999999942,
      "v": 100
    },
    {
      "midi": 44,
      "hit": false,
      "t": 10222.211999999985,
      "d": 69.44437499999913,
      "v": 100
    },
    {
      "midi": 78,
      "hit": false,
      "t": 10222.21199999999,
      "d": 46.29624999999942,
      "v": 100
    },
    {
      "midi": 36,
      "hit": false,
      "t": 10222.211999999994,
      "d": 282.4071249999997,
      "v": 127
    },
    {
      "midi": 76,
      "hit": false,
      "t": 10296.28599999999,
      "d": 46.29624999999942,
      "v": 100
    },
    {
      "midi": 44,
      "hit": false,
      "t": 10333.322999999984,
      "d": 69.44437499999913,
      "v": 100
    },
    {
      "midi": 38,
      "hit": false,
      "t": 10333.322999999984,
      "d": 69.44437499999913,
      "v": 100
    },
    {
      "midi": 43,
      "hit": false,
      "t": 10333.322999999993,
      "d": 212.9627500000006,
      "v": 100
    },
    {
      "midi": 74,
      "hit": false,
      "t": 10370.359999999988,
      "d": 46.29624999999942,
      "v": 100
    },
    {
      "midi": 44,
      "hit": false,
      "t": 10444.433999999983,
      "d": 69.44437499999913,
      "v": 100
    },
    {
      "midi": 38,
      "hit": false,
      "t": 10444.433999999983,
      "d": 69.44437499999913,
      "v": 100
    },
    {
      "midi": 72,
      "hit": false,
      "t": 10444.433999999987,
      "d": 46.29624999999942,
      "v": 100
    },
    {
      "midi": 71,
      "hit": false,
      "t": 10518.507999999985,
      "d": 46.29624999999942,
      "v": 100
    },
    {
      "midi": 38,
      "hit": false,
      "t": 10555.544999999982,
      "d": 69.44437499999913,
      "v": 100
    },
    {
      "midi": 67,
      "hit": false,
      "t": 10592.581999999984,
      "d": 1990.7387500000004,
      "v": 100
    },
    {
      "midi": 49,
      "hit": false,
      "t": 10666.65599999998,
      "d": 69.44437499999913,
      "v": 100
    },
    {
      "midi": 44,
      "hit": false,
      "t": 10666.65599999998,
      "d": 69.44437499999913,
      "v": 100
    },
    {
      "midi": 40,
      "hit": false,
      "t": 10666.655999999994,
      "d": 212.9627500000006,
      "v": 100
    },
    {
      "midi": 36,
      "hit": false,
      "t": 10666.655999999994,
      "d": 138.88875000000007,
      "v": 127
    },
    {
      "midi": 74,
      "hit": false,
      "t": 10666.656,
      "d": 3555.5519999999997,
      "v": 100
    },
    {
      "midi": 71,
      "hit": false,
      "t": 10666.656,
      "d": 3555.5519999999997,
      "v": 100
    },
    {
      "midi": 44,
      "hit": false,
      "t": 10777.76699999998,
      "d": 69.44437499999913,
      "v": 100
    },
    {
      "midi": 44,
      "hit": false,
      "t": 10888.877999999979,
      "d": 138.88875000000007,
      "v": 100
    },
    {
      "midi": 36,
      "hit": false,
      "t": 10888.877999999993,
      "d": 69.44437499999913,
      "v": 127
    },
    {
      "midi": 64,
      "hit": false,
      "t": 10888.877999999999,
      "d": 291.6663750000007,
      "v": 100
    },
    {
      "midi": 36,
      "hit": false,
      "t": 10999.988999999992,
      "d": 69.44437499999913,
      "v": 127
    },
    {
      "midi": 40,
      "hit": false,
      "t": 10999.988999999994,
      "d": 69.44437499999913,
      "v": 100
    },
    {
      "midi": 44,
      "hit": false,
      "t": 11111.099999999979,
      "d": 69.44437499999913,
      "v": 100
    },
    {
      "midi": 38,
      "hit": false,
      "t": 11111.099999999979,
      "d": 69.44437499999913,
      "v": 100
    },
    {
      "midi": 43,
      "hit": false,
      "t": 11111.099999999993,
      "d": 138.88875000000007,
      "v": 100
    },
    {
      "midi": 44,
      "hit": false,
      "t": 11222.210999999978,
      "d": 69.44437499999913,
      "v": 100
    },
    {
      "midi": 27,
      "hit": false,
      "t": 11222.210999999996,
      "d": 212.9627500000006,
      "v": 127
    },
    {
      "midi": 67,
      "hit": false,
      "t": 11222.211,
      "d": 212.9627500000006,
      "v": 100
    },
    {
      "midi": 44,
      "hit": false,
      "t": 11333.321999999976,
      "d": 69.44437499999913,
      "v": 100
    },
    {
      "midi": 36,
      "hit": false,
      "t": 11333.321999999991,
      "d": 69.44437499999913,
      "v": 127
    },
    {
      "midi": 43,
      "hit": false,
      "t": 11333.321999999993,
      "d": 138.88875000000007,
      "v": 100
    },
    {
      "midi": 44,
      "hit": false,
      "t": 11444.432999999975,
      "d": 69.44437499999913,
      "v": 100
    },
    {
      "midi": 38,
      "hit": false,
      "t": 11444.432999999975,
      "d": 69.44437499999913,
      "v": 100
    },
    {
      "midi": 36,
      "hit": false,
      "t": 11444.43299999999,
      "d": 69.44437499999913,
      "v": 127
    },
    {
      "midi": 44,
      "hit": false,
      "t": 11555.543999999974,
      "d": 69.44437499999913,
      "v": 100
    },
    {
      "midi": 36,
      "hit": false,
      "t": 11555.543999999989,
      "d": 212.9627500000006,
      "v": 127
    },
    {
      "midi": 45,
      "hit": false,
      "t": 11555.543999999993,
      "d": 138.88875000000007,
      "v": 100
    },
    {
      "midi": 74,
      "hit": false,
      "t": 11555.544,
      "d": 1314.8135000000002,
      "v": 100
    },
    {
      "midi": 44,
      "hit": false,
      "t": 11666.654999999973,
      "d": 69.44437499999913,
      "v": 100
    },
    {
      "midi": 38,
      "hit": false,
      "t": 11666.654999999973,
      "d": 69.44437499999913,
      "v": 100
    },
    {
      "midi": 44,
      "hit": false,
      "t": 11777.765999999972,
      "d": 138.88875000000007,
      "v": 100
    },
    {
      "midi": 45,
      "hit": false,
      "t": 11777.765999999992,
      "d": 138.88875000000007,
      "v": 100
    },
    {
      "midi": 36,
      "hit": false,
      "t": 11888.87699999999,
      "d": 69.44437499999913,
      "v": 127
    },
    {
      "midi": 44,
      "hit": false,
      "t": 11999.987999999972,
      "d": 69.44437499999913,
      "v": 100
    },
    {
      "midi": 38,
      "hit": false,
      "t": 11999.987999999972,
      "d": 69.44437499999913,
      "v": 100
    },
    {
      "midi": 46,
      "hit": false,
      "t": 11999.987999999992,
      "d": 138.88875000000007,
      "v": 100
    },
    {
      "midi": 39,
      "hit": false,
      "t": 11999.987999999996,
      "d": 282.4071249999997,
      "v": 127
    },
    {
      "midi": 44,
      "hit": false,
      "t": 12111.098999999971,
      "d": 69.44437499999913,
      "v": 100
    },
    {
      "midi": 44,
      "hit": false,
      "t": 12222.20999999997,
      "d": 69.44437499999913,
      "v": 100
    },
    {
      "midi": 36,
      "hit": false,
      "t": 12222.209999999988,
      "d": 69.44437499999913,
      "v": 127
    },
    {
      "midi": 45,
      "hit": false,
      "t": 12222.209999999992,
      "d": 138.88875000000007,
      "v": 100
    },
    {
      "midi": 44,
      "hit": false,
      "t": 12333.320999999969,
      "d": 69.44437499999913,
      "v": 100
    },
    {
      "midi": 36,
      "hit": false,
      "t": 12333.320999999987,
      "d": 69.44437499999913,
      "v": 127
    },
    {
      "midi": 44,
      "hit": false,
      "t": 12444.431999999968,
      "d": 69.44437499999913,
      "v": 100
    },
    {
      "midi": 36,
      "hit": false,
      "t": 12444.431999999986,
      "d": 138.88875000000007,
      "v": 127
    },
    {
      "midi": 44,
      "hit": false,
      "t": 12555.542999999967,
      "d": 69.44437499999913,
      "v": 100
    },
    {
      "midi": 38,
      "hit": false,
      "t": 12555.542999999967,
      "d": 69.44437499999913,
      "v": 100
    },
    {
      "midi": 40,
      "hit": false,
      "t": 12555.542999999992,
      "d": 212.9627500000006,
      "v": 100
    },
    {
      "midi": 44,
      "hit": false,
      "t": 12666.653999999966,
      "d": 138.88875000000007,
      "v": 100
    },
    {
      "midi": 64,
      "hit": false,
      "t": 12666.653999999984,
      "d": 291.6663750000007,
      "v": 100
    },
    {
      "midi": 36,
      "hit": false,
      "t": 12666.653999999986,
      "d": 69.44437499999913,
      "v": 127
    },
    {
      "midi": 36,
      "hit": false,
      "t": 12777.764999999985,
      "d": 69.44437499999913,
      "v": 127
    },
    {
      "midi": 44,
      "hit": false,
      "t": 12888.875999999966,
      "d": 69.44437499999913,
      "v": 100
    },
    {
      "midi": 38,
      "hit": false,
      "t": 12888.875999999966,
      "d": 69.44437499999913,
      "v": 100
    },
    {
      "midi": 43,
      "hit": false,
      "t": 12888.875999999993,
      "d": 138.88875000000007,
      "v": 100
    },
    {
      "midi": 44,
      "hit": false,
      "t": 12999.986999999965,
      "d": 69.44437499999913,
      "v": 100
    },
    {
      "midi": 67,
      "hit": false,
      "t": 12999.986999999985,
      "d": 212.9627500000006,
      "v": 100
    },
    {
      "midi": 27,
      "hit": false,
      "t": 12999.986999999996,
      "d": 212.9627500000006,
      "v": 127
    },
    {
      "midi": 44,
      "hit": false,
      "t": 13111.097999999964,
      "d": 69.44437499999913,
      "v": 100
    },
    {
      "midi": 36,
      "hit": false,
      "t": 13111.097999999984,
      "d": 69.44437499999913,
      "v": 127
    },
    {
      "midi": 43,
      "hit": false,
      "t": 13111.097999999993,
      "d": 138.88875000000007,
      "v": 100
    },
    {
      "midi": 74,
      "hit": false,
      "t": 13111.098,
      "d": 69.44437499999913,
      "v": 100
    },
    {
      "midi": 44,
      "hit": false,
      "t": 13222.208999999963,
      "d": 69.44437499999913,
      "v": 100
    },
    {
      "midi": 38,
      "hit": false,
      "t": 13222.208999999963,
      "d": 69.44437499999913,
      "v": 100
    },
    {
      "midi": 36,
      "hit": false,
      "t": 13222.208999999983,
      "d": 69.44437499999913,
      "v": 127
    },
    {
      "midi": 75,
      "hit": false,
      "t": 13222.208999999999,
      "d": 69.44437499999913,
      "v": 100
    },
    {
      "midi": 44,
      "hit": false,
      "t": 13333.319999999962,
      "d": 69.44437499999913,
      "v": 100
    },
    {
      "midi": 36,
      "hit": false,
      "t": 13333.319999999982,
      "d": 212.9627500000006,
      "v": 127
    },
    {
      "midi": 74,
      "hit": false,
      "t": 13333.319999999985,
      "d": 3231.47825,
      "v": 100
    },
    {
      "midi": 45,
      "hit": false,
      "t": 13333.319999999992,
      "d": 138.88875000000007,
      "v": 100
    },
    {
      "midi": 75,
      "hit": false,
      "t": 13333.319999999998,
      "d": 32.407375000000684,
      "v": 80
    },
    {
      "midi": 76,
      "hit": false,
      "t": 13388.875499999998,
      "d": 32.407375000000684,
      "v": 100
    },
    {
      "midi": 44,
      "hit": false,
      "t": 13444.43099999996,
      "d": 69.44437499999913,
      "v": 100
    },
    {
      "midi": 38,
      "hit": false,
      "t": 13444.43099999996,
      "d": 69.44437499999913,
      "v": 100
    },
    {
      "midi": 74,
      "hit": false,
      "t": 13444.430999999999,
      "d": 69.44437499999913,
      "v": 100
    },
    {
      "midi": 44,
      "hit": false,
      "t": 13555.54199999996,
      "d": 138.88875000000007,
      "v": 100
    },
    {
      "midi": 45,
      "hit": false,
      "t": 13555.541999999992,
      "d": 138.88875000000007,
      "v": 100
    },
    {
      "midi": 73,
      "hit": false,
      "t": 13555.541999999998,
      "d": 69.44437499999913,
      "v": 100
    },
    {
      "midi": 36,
      "hit": false,
      "t": 13666.652999999982,
      "d": 69.44437499999913,
      "v": 127
    },
    {
      "midi": 71,
      "hit": false,
      "t": 13666.652999999997,
      "d": 69.44437499999913,
      "v": 100
    },
    {
      "midi": 44,
      "hit": false,
      "t": 13777.76399999996,
      "d": 69.44437499999913,
      "v": 100
    },
    {
      "midi": 38,
      "hit": false,
      "t": 13777.76399999996,
      "d": 69.44437499999913,
      "v": 100
    },
    {
      "midi": 50,
      "hit": false,
      "t": 13777.763999999992,
      "d": 69.44437499999913,
      "v": 100
    },
    {
      "midi": 69,
      "hit": false,
      "t": 13777.763999999996,
      "d": 69.44437499999913,
      "v": 100
    },
    {
      "midi": 44,
      "hit": false,
      "t": 13888.874999999958,
      "d": 69.44437499999913,
      "v": 100
    },
    {
      "midi": 38,
      "hit": false,
      "t": 13888.874999999958,
      "d": 69.44437499999913,
      "v": 100
    },
    {
      "midi": 52,
      "hit": false,
      "t": 13888.87499999999,
      "d": 69.44437499999913,
      "v": 100
    },
    {
      "midi": 67,
      "hit": false,
      "t": 13888.874999999995,
      "d": 1467.5911250000008,
      "v": 100
    },
    {
      "midi": 44,
      "hit": false,
      "t": 13999.985999999957,
      "d": 69.44437499999913,
      "v": 100
    },
    {
      "midi": 36,
      "hit": false,
      "t": 13999.98599999998,
      "d": 138.88875000000007,
      "v": 127
    },
    {
      "midi": 45,
      "hit": false,
      "t": 13999.98599999999,
      "d": 69.44437499999913,
      "v": 100
    },
    {
      "midi": 38,
      "hit": false,
      "t": 14111.096999999956,
      "d": 69.44437499999913,
      "v": 100
    },
    {
      "midi": 47,
      "hit": false,
      "t": 14111.096999999989,
      "d": 69.44437499999913,
      "v": 100
    },
    {
      "midi": 49,
      "hit": false,
      "t": 14222.207999999955,
      "d": 69.44437499999913,
      "v": 100
    },
    {
      "midi": 44,
      "hit": false,
      "t": 14222.207999999955,
      "d": 69.44437499999913,
      "v": 100
    },
    {
      "midi": 36,
      "hit": false,
      "t": 14222.20799999998,
      "d": 138.88875000000007,
      "v": 127
    },
    {
      "midi": 40,
      "hit": false,
      "t": 14222.207999999988,
      "d": 212.9627500000006,
      "v": 100
    },
    {
      "midi": 73,
      "hit": false,
      "t": 14222.208,
      "d": 3555.5520000000015,
      "v": 100
    },
    {
      "midi": 71,
      "hit": false,
      "t": 14222.208,
      "d": 3555.5520000000015,
      "v": 100
    },
    {
      "midi": 44,
      "hit": false,
      "t": 14333.318999999954,
      "d": 69.44437499999913,
      "v": 100
    },
    {
      "midi": 44,
      "hit": false,
      "t": 14444.429999999953,
      "d": 138.88875000000007,
      "v": 100
    },
    {
      "midi": 36,
      "hit": false,
      "t": 14444.42999999998,
      "d": 69.44437499999913,
      "v": 127
    },
    {
      "midi": 36,
      "hit": false,
      "t": 14555.54099999998,
      "d": 69.44437499999913,
      "v": 127
    },
    {
      "midi": 40,
      "hit": false,
      "t": 14555.540999999988,
      "d": 69.44437499999913,
      "v": 100
    },
    {
      "midi": 44,
      "hit": false,
      "t": 14666.651999999953,
      "d": 69.44437499999913,
      "v": 100
    },
    {
      "midi": 38,
      "hit": false,
      "t": 14666.651999999953,
      "d": 69.44437499999913,
      "v": 100
    },
    {
      "midi": 43,
      "hit": false,
      "t": 14666.651999999987,
      "d": 138.88875000000007,
      "v": 100
    },
    {
      "midi": 44,
      "hit": false,
      "t": 14777.762999999952,
      "d": 69.44437499999913,
      "v": 100
    },
    {
      "midi": 44,
      "hit": false,
      "t": 14888.87399999995,
      "d": 69.44437499999913,
      "v": 100
    },
    {
      "midi": 36,
      "hit": false,
      "t": 14888.873999999978,
      "d": 69.44437499999913,
      "v": 127
    },
    {
      "midi": 43,
      "hit": false,
      "t": 14888.873999999987,
      "d": 138.88875000000007,
      "v": 100
    },
    {
      "midi": 44,
      "hit": false,
      "t": 14999.98499999995,
      "d": 69.44437499999913,
      "v": 100
    },
    {
      "midi": 38,
      "hit": false,
      "t": 14999.98499999995,
      "d": 69.44437499999913,
      "v": 100
    },
    {
      "midi": 36,
      "hit": false,
      "t": 14999.984999999977,
      "d": 69.44437499999913,
      "v": 127
    },
    {
      "midi": 44,
      "hit": false,
      "t": 15111.095999999949,
      "d": 69.44437499999913,
      "v": 100
    },
    {
      "midi": 36,
      "hit": false,
      "t": 15111.095999999976,
      "d": 212.9627500000006,
      "v": 127
    },
    {
      "midi": 45,
      "hit": false,
      "t": 15111.095999999987,
      "d": 138.88875000000007,
      "v": 100
    },
    {
      "midi": 44,
      "hit": false,
      "t": 15222.206999999948,
      "d": 69.44437499999913,
      "v": 100
    },
    {
      "midi": 38,
      "hit": false,
      "t": 15222.206999999948,
      "d": 69.44437499999913,
      "v": 100
    },
    {
      "midi": 44,
      "hit": false,
      "t": 15333.317999999947,
      "d": 138.88875000000007,
      "v": 100
    },
    {
      "midi": 45,
      "hit": false,
      "t": 15333.317999999987,
      "d": 138.88875000000007,
      "v": 100
    },
    {
      "midi": 36,
      "hit": false,
      "t": 15444.428999999976,
      "d": 69.44437499999913,
      "v": 127
    },
    {
      "midi": 44,
      "hit": false,
      "t": 15555.539999999946,
      "d": 69.44437499999913,
      "v": 100
    },
    {
      "midi": 38,
      "hit": false,
      "t": 15555.539999999946,
      "d": 69.44437499999913,
      "v": 100
    },
    {
      "midi": 46,
      "hit": false,
      "t": 15555.539999999986,
      "d": 138.88875000000007,
      "v": 100
    },
    {
      "midi": 44,
      "hit": false,
      "t": 15666.650999999945,
      "d": 69.44437499999913,
      "v": 100
    },
    {
      "midi": 27,
      "hit": false,
      "t": 15666.650999999996,
      "d": 212.9627500000006,
      "v": 127
    },
    {
      "midi": 44,
      "hit": false,
      "t": 15777.761999999944,
      "d": 69.44437499999913,
      "v": 100
    },
    {
      "midi": 36,
      "hit": false,
      "t": 15777.761999999975,
      "d": 69.44437499999913,
      "v": 127
    },
    {
      "midi": 45,
      "hit": false,
      "t": 15777.761999999986,
      "d": 138.88875000000007,
      "v": 100
    },
    {
      "midi": 44,
      "hit": false,
      "t": 15888.872999999943,
      "d": 69.44437499999913,
      "v": 100
    },
    {
      "midi": 36,
      "hit": false,
      "t": 15888.872999999974,
      "d": 69.44437499999913,
      "v": 127
    },
    {
      "midi": 44,
      "hit": false,
      "t": 15999.983999999942,
      "d": 69.44437499999913,
      "v": 100
    },
    {
      "midi": 36,
      "hit": false,
      "t": 15999.983999999973,
      "d": 138.88875000000007,
      "v": 127
    },
    {
      "midi": 64,
      "hit": false,
      "t": 15999.983999999995,
      "d": 1134.2581249999985,
      "v": 100
    },
    {
      "midi": 44,
      "hit": false,
      "t": 16111.094999999941,
      "d": 69.44437499999913,
      "v": 100
    },
    {
      "midi": 38,
      "hit": false,
      "t": 16111.094999999941,
      "d": 69.44437499999913,
      "v": 100
    },
    {
      "midi": 40,
      "hit": false,
      "t": 16111.094999999987,
      "d": 212.9627500000006,
      "v": 100
    },
    {
      "midi": 44,
      "hit": false,
      "t": 16222.20599999994,
      "d": 138.88875000000007,
      "v": 100
    },
    {
      "midi": 36,
      "hit": false,
      "t": 16222.205999999973,
      "d": 69.44437499999913,
      "v": 127
    },
    {
      "midi": 36,
      "hit": false,
      "t": 16333.316999999972,
      "d": 69.44437500000095,
      "v": 127
    },
    {
      "midi": 44,
      "hit": false,
      "t": 16444.42799999994,
      "d": 69.44437499999913,
      "v": 100
    },
    {
      "midi": 38,
      "hit": false,
      "t": 16444.42799999994,
      "d": 69.44437499999913,
      "v": 100
    },
    {
      "midi": 43,
      "hit": false,
      "t": 16444.42799999999,
      "d": 138.88874999999825,
      "v": 100
    },
    {
      "midi": 39,
      "hit": false,
      "t": 16444.427999999996,
      "d": 282.40712500000154,
      "v": 127
    },
    {
      "midi": 44,
      "hit": false,
      "t": 16555.538999999942,
      "d": 69.44437499999913,
      "v": 100
    },
    {
      "midi": 44,
      "hit": false,
      "t": 16666.649999999943,
      "d": 69.44437499999913,
      "v": 100
    },
    {
      "midi": 36,
      "hit": false,
      "t": 16666.649999999972,
      "d": 69.44437499999913,
      "v": 127
    },
    {
      "midi": 43,
      "hit": false,
      "t": 16666.649999999987,
      "d": 138.88874999999825,
      "v": 100
    },
    {
      "midi": 44,
      "hit": false,
      "t": 16777.760999999944,
      "d": 69.44437499999913,
      "v": 100
    },
    {
      "midi": 38,
      "hit": false,
      "t": 16777.760999999944,
      "d": 69.44437499999913,
      "v": 100
    },
    {
      "midi": 36,
      "hit": false,
      "t": 16777.760999999973,
      "d": 69.44437499999913,
      "v": 127
    },
    {
      "midi": 44,
      "hit": false,
      "t": 16888.871999999945,
      "d": 69.44437499999913,
      "v": 100
    },
    {
      "midi": 36,
      "hit": false,
      "t": 16888.871999999974,
      "d": 212.96274999999878,
      "v": 127
    },
    {
      "midi": 76,
      "hit": false,
      "t": 16888.871999999985,
      "d": 69.44437499999913,
      "v": 100
    },
    {
      "midi": 45,
      "hit": false,
      "t": 16888.871999999985,
      "d": 138.88874999999825,
      "v": 100
    },
    {
      "midi": 44,
      "hit": false,
      "t": 16999.982999999946,
      "d": 69.44437499999913,
      "v": 100
    },
    {
      "midi": 38,
      "hit": false,
      "t": 16999.982999999946,
      "d": 69.44437499999913,
      "v": 100
    },
    {
      "midi": 83,
      "hit": false,
      "t": 16999.982999999986,
      "d": 69.44437499999913,
      "v": 100
    },
    {
      "midi": 44,
      "hit": false,
      "t": 17111.093999999946,
      "d": 138.88874999999825,
      "v": 100
    },
    {
      "midi": 45,
      "hit": false,
      "t": 17111.093999999983,
      "d": 138.88874999999825,
      "v": 100
    },
    {
      "midi": 78,
      "hit": false,
      "t": 17111.093999999986,
      "d": 69.44437499999913,
      "v": 100
    },
    {
      "midi": 36,
      "hit": false,
      "t": 17222.204999999973,
      "d": 69.44437499999913,
      "v": 127
    },
    {
      "midi": 79,
      "hit": false,
      "t": 17222.204999999987,
      "d": 69.44437499999913,
      "v": 100
    },
    {
      "midi": 44,
      "hit": false,
      "t": 17333.315999999944,
      "d": 69.44437499999913,
      "v": 100
    },
    {
      "midi": 38,
      "hit": false,
      "t": 17333.315999999944,
      "d": 69.44437499999913,
      "v": 100
    },
    {
      "midi": 50,
      "hit": false,
      "t": 17333.31599999998,
      "d": 69.44437499999913,
      "v": 100
    },
    {
      "midi": 81,
      "hit": false,
      "t": 17333.315999999988,
      "d": 69.44437499999913,
      "v": 100
    },
    {
      "midi": 44,
      "hit": false,
      "t": 17444.426999999945,
      "d": 69.44437499999913,
      "v": 100
    },
    {
      "midi": 38,
      "hit": false,
      "t": 17444.426999999945,
      "d": 69.44437499999913,
      "v": 100
    },
    {
      "midi": 52,
      "hit": false,
      "t": 17444.42699999998,
      "d": 69.44437499999913,
      "v": 100
    },
    {
      "midi": 79,
      "hit": false,
      "t": 17444.42699999999,
      "d": 69.44437499999913,
      "v": 100
    },
    {
      "midi": 27,
      "hit": false,
      "t": 17444.426999999996,
      "d": 212.96274999999878,
      "v": 127
    },
    {
      "midi": 44,
      "hit": false,
      "t": 17555.537999999946,
      "d": 69.44437499999913,
      "v": 100
    },
    {
      "midi": 36,
      "hit": false,
      "t": 17555.53799999997,
      "d": 138.88874999999825,
      "v": 127
    },
    {
      "midi": 45,
      "hit": false,
      "t": 17555.537999999982,
      "d": 69.44437499999913,
      "v": 100
    },
    {
      "midi": 78,
      "hit": false,
      "t": 17555.53799999999,
      "d": 69.44437499999913,
      "v": 100
    },
    {
      "midi": 38,
      "hit": false,
      "t": 17666.648999999947,
      "d": 69.44437499999913,
      "v": 100
    },
    {
      "midi": 47,
      "hit": false,
      "t": 17666.648999999983,
      "d": 69.44437499999913,
      "v": 100
    },
    {
      "midi": 76,
      "hit": false,
      "t": 17666.64899999999,
      "d": 2027.7757500000007,
      "v": 100
    },
    {
      "midi": 49,
      "hit": false,
      "t": 17777.759999999947,
      "d": 69.44437499999913,
      "v": 100
    },
    {
      "midi": 44,
      "hit": false,
      "t": 17777.759999999947,
      "d": 69.44437499999913,
      "v": 100
    },
    {
      "midi": 36,
      "hit": false,
      "t": 17777.75999999997,
      "d": 138.88874999999825,
      "v": 127
    },
    {
      "midi": 40,
      "hit": false,
      "t": 17777.759999999984,
      "d": 212.96274999999878,
      "v": 100
    },
    {
      "midi": 74,
      "hit": false,
      "t": 17777.760000000002,
      "d": 3555.5519999999997,
      "v": 100
    },
    {
      "midi": 71,
      "hit": false,
      "t": 17777.760000000002,
      "d": 3555.5519999999997,
      "v": 100
    },
    {
      "midi": 44,
      "hit": false,
      "t": 17888.87099999995,
      "d": 69.44437499999913,
      "v": 100
    },
    {
      "midi": 44,
      "hit": false,
      "t": 17999.98199999995,
      "d": 138.88874999999825,
      "v": 100
    },
    {
      "midi": 36,
      "hit": false,
      "t": 17999.981999999967,
      "d": 69.44437499999913,
      "v": 127
    },
    {
      "midi": 64,
      "hit": false,
      "t": 17999.981999999993,
      "d": 291.6663750000007,
      "v": 100
    },
    {
      "midi": 36,
      "hit": false,
      "t": 18111.092999999968,
      "d": 69.44437499999913,
      "v": 127
    },
    {
      "midi": 40,
      "hit": false,
      "t": 18111.092999999983,
      "d": 69.44437499999913,
      "v": 100
    },
    {
      "midi": 44,
      "hit": false,
      "t": 18222.203999999947,
      "d": 69.44437499999913,
      "v": 100
    },
    {
      "midi": 38,
      "hit": false,
      "t": 18222.203999999947,
      "d": 69.44437499999913,
      "v": 100
    },
    {
      "midi": 43,
      "hit": false,
      "t": 18222.203999999983,
      "d": 138.88874999999825,
      "v": 100
    },
    {
      "midi": 44,
      "hit": false,
      "t": 18333.314999999948,
      "d": 69.44437499999913,
      "v": 100
    },
    {
      "midi": 67,
      "hit": false,
      "t": 18333.314999999995,
      "d": 212.96274999999878,
      "v": 100
    },
    {
      "midi": 44,
      "hit": false,
      "t": 18444.42599999995,
      "d": 69.44437499999913,
      "v": 100
    },
    {
      "midi": 36,
      "hit": false,
      "t": 18444.425999999967,
      "d": 69.44437499999913,
      "v": 127
    },
    {
      "midi": 43,
      "hit": false,
      "t": 18444.42599999998,
      "d": 138.88874999999825,
      "v": 100
    },
    {
      "midi": 44,
      "hit": false,
      "t": 18555.53699999995,
      "d": 69.44437499999913,
      "v": 100
    },
    {
      "midi": 38,
      "hit": false,
      "t": 18555.53699999995,
      "d": 69.44437499999913,
      "v": 100
    },
    {
      "midi": 36,
      "hit": false,
      "t": 18555.536999999968,
      "d": 69.44437499999913,
      "v": 127
    },
    {
      "midi": 44,
      "hit": false,
      "t": 18666.64799999995,
      "d": 69.44437499999913,
      "v": 100
    },
    {
      "midi": 36,
      "hit": false,
      "t": 18666.64799999997,
      "d": 212.96274999999878,
      "v": 127
    },
    {
      "midi": 45,
      "hit": false,
      "t": 18666.64799999998,
      "d": 138.88874999999825,
      "v": 100
    },
    {
      "midi": 74,
      "hit": false,
      "t": 18666.647999999994,
      "d": 564.8142499999994,
      "v": 100
    },
    {
      "midi": 44,
      "hit": false,
      "t": 18777.75899999995,
      "d": 69.44437499999913,
      "v": 100
    },
    {
      "midi": 38,
      "hit": false,
      "t": 18777.75899999995,
      "d": 69.44437499999913,
      "v": 100
    },
    {
      "midi": 44,
      "hit": false,
      "t": 18888.86999999995,
      "d": 138.88874999999825,
      "v": 100
    },
    {
      "midi": 45,
      "hit": false,
      "t": 18888.869999999977,
      "d": 138.88874999999825,
      "v": 100
    },
    {
      "midi": 36,
      "hit": false,
      "t": 18999.980999999967,
      "d": 69.44437499999913,
      "v": 127
    },
    {
      "midi": 44,
      "hit": false,
      "t": 19111.09199999995,
      "d": 69.44437499999913,
      "v": 100
    },
    {
      "midi": 38,
      "hit": false,
      "t": 19111.09199999995,
      "d": 69.44437499999913,
      "v": 100
    },
    {
      "midi": 46,
      "hit": false,
      "t": 19111.091999999975,
      "d": 138.88874999999825,
      "v": 100
    },
    {
      "midi": 44,
      "hit": false,
      "t": 19222.20299999995,
      "d": 69.44437499999913,
      "v": 100
    },
    {
      "midi": 44,
      "hit": false,
      "t": 19333.31399999995,
      "d": 69.44437499999913,
      "v": 100
    },
    {
      "midi": 36,
      "hit": false,
      "t": 19333.313999999966,
      "d": 69.44437499999913,
      "v": 127
    },
    {
      "midi": 45,
      "hit": false,
      "t": 19333.313999999973,
      "d": 138.88874999999825,
      "v": 100
    },
    {
      "midi": 44,
      "hit": false,
      "t": 19444.424999999952,
      "d": 69.44437499999913,
      "v": 100
    },
    {
      "midi": 36,
      "hit": false,
      "t": 19444.424999999967,
      "d": 69.44437499999913,
      "v": 127
    },
    {
      "midi": 44,
      "hit": false,
      "t": 19555.535999999953,
      "d": 69.44437499999913,
      "v": 100
    },
    {
      "midi": 36,
      "hit": false,
      "t": 19555.535999999967,
      "d": 138.88874999999825,
      "v": 127
    },
    {
      "midi": 44,
      "hit": false,
      "t": 19666.646999999954,
      "d": 69.44437499999913,
      "v": 100
    },
    {
      "midi": 38,
      "hit": false,
      "t": 19666.646999999954,
      "d": 69.44437499999913,
      "v": 100
    },
    {
      "midi": 40,
      "hit": false,
      "t": 19666.64699999997,
      "d": 212.96274999999878,
      "v": 100
    },
    {
      "midi": 44,
      "hit": false,
      "t": 19777.757999999954,
      "d": 138.88874999999825,
      "v": 100
    },
    {
      "midi": 36,
      "hit": false,
      "t": 19777.757999999965,
      "d": 69.44437499999913,
      "v": 127
    },
    {
      "midi": 64,
      "hit": false,
      "t": 19777.75799999999,
      "d": 291.6663750000007,
      "v": 100
    },
    {
      "midi": 36,
      "hit": false,
      "t": 19888.868999999966,
      "d": 69.44437499999913,
      "v": 127
    },
    {
      "midi": 44,
      "hit": false,
      "t": 19999.979999999952,
      "d": 69.44437499999913,
      "v": 100
    },
    {
      "midi": 38,
      "hit": false,
      "t": 19999.979999999952,
      "d": 69.44437499999913,
      "v": 100
    },
    {
      "midi": 43,
      "hit": false,
      "t": 19999.97999999997,
      "d": 138.88874999999825,
      "v": 100
    },
    {
      "midi": 44,
      "hit": false,
      "t": 20111.090999999953,
      "d": 69.44437499999913,
      "v": 100
    },
    {
      "midi": 67,
      "hit": false,
      "t": 20111.090999999993,
      "d": 212.96274999999878,
      "v": 100
    },
    {
      "midi": 27,
      "hit": false,
      "t": 20111.090999999993,
      "d": 212.96274999999878,
      "v": 127
    },
    {
      "midi": 44,
      "hit": false,
      "t": 20222.201999999954,
      "d": 69.44437499999913,
      "v": 100
    },
    {
      "midi": 36,
      "hit": false,
      "t": 20222.201999999965,
      "d": 69.44437499999913,
      "v": 127
    },
    {
      "midi": 43,
      "hit": false,
      "t": 20222.20199999997,
      "d": 138.88874999999825,
      "v": 100
    },
    {
      "midi": 74,
      "hit": false,
      "t": 20222.201999999994,
      "d": 69.44437499999913,
      "v": 100
    },
    {
      "midi": 44,
      "hit": false,
      "t": 20333.312999999955,
      "d": 69.44437499999913,
      "v": 100
    },
    {
      "midi": 38,
      "hit": false,
      "t": 20333.312999999955,
      "d": 69.44437499999913,
      "v": 100
    },
    {
      "midi": 36,
      "hit": false,
      "t": 20333.312999999966,
      "d": 69.44437499999913,
      "v": 127
    },
    {
      "midi": 75,
      "hit": false,
      "t": 20333.312999999995,
      "d": 69.44437499999913,
      "v": 100
    },
    {
      "midi": 44,
      "hit": false,
      "t": 20444.423999999955,
      "d": 69.44437499999913,
      "v": 100
    },
    {
      "midi": 45,
      "hit": false,
      "t": 20444.423999999966,
      "d": 138.88874999999825,
      "v": 100
    },
    {
      "midi": 36,
      "hit": false,
      "t": 20444.423999999966,
      "d": 212.96274999999878,
      "v": 127
    },
    {
      "midi": 74,
      "hit": false,
      "t": 20444.42399999999,
      "d": 3981.477500000001,
      "v": 100
    },
    {
      "midi": 75,
      "hit": false,
      "t": 20444.423999999995,
      "d": 32.407374999998865,
      "v": 80
    },
    {
      "midi": 76,
      "hit": false,
      "t": 20499.979499999994,
      "d": 32.407374999998865,
      "v": 100
    },
    {
      "midi": 44,
      "hit": false,
      "t": 20555.534999999956,
      "d": 69.44437499999913,
      "v": 100
    },
    {
      "midi": 38,
      "hit": false,
      "t": 20555.534999999956,
      "d": 69.44437499999913,
      "v": 100
    },
    {
      "midi": 74,
      "hit": false,
      "t": 20555.534999999993,
      "d": 69.44437499999913,
      "v": 100
    },
    {
      "midi": 44,
      "hit": false,
      "t": 20666.645999999957,
      "d": 138.88874999999825,
      "v": 100
    },
    {
      "midi": 45,
      "hit": false,
      "t": 20666.645999999964,
      "d": 138.88874999999825,
      "v": 100
    },
    {
      "midi": 73,
      "hit": false,
      "t": 20666.645999999993,
      "d": 69.44437499999913,
      "v": 100
    },
    {
      "midi": 36,
      "hit": false,
      "t": 20777.756999999965,
      "d": 69.44437499999913,
      "v": 127
    },
    {
      "midi": 74,
      "hit": false,
      "t": 20777.756999999994,
      "d": 69.44437499999913,
      "v": 100
    },
    {
      "midi": 44,
      "hit": false,
      "t": 20888.867999999955,
      "d": 69.44437499999913,
      "v": 100
    },
    {
      "midi": 38,
      "hit": false,
      "t": 20888.867999999955,
      "d": 69.44437499999913,
      "v": 100
    },
    {
      "midi": 50,
      "hit": false,
      "t": 20888.867999999962,
      "d": 69.44437499999913,
      "v": 100
    },
    {
      "midi": 39,
      "hit": false,
      "t": 20888.86799999999,
      "d": 282.40712500000154,
      "v": 127
    },
    {
      "midi": 78,
      "hit": false,
      "t": 20888.867999999995,
      "d": 69.44437499999913,
      "v": 100
    },
    {
      "midi": 44,
      "hit": false,
      "t": 20999.978999999956,
      "d": 69.44437499999913,
      "v": 100
    },
    {
      "midi": 38,
      "hit": false,
      "t": 20999.978999999956,
      "d": 69.44437499999913,
      "v": 100
    },
    {
      "midi": 52,
      "hit": false,
      "t": 20999.978999999963,
      "d": 69.44437499999913,
      "v": 100
    },
    {
      "midi": 76,
      "hit": false,
      "t": 20999.978999999996,
      "d": 69.44437499999913,
      "v": 100
    },
    {
      "midi": 44,
      "hit": false,
      "t": 21111.089999999956,
      "d": 69.44437499999913,
      "v": 100
    },
    {
      "midi": 45,
      "hit": false,
      "t": 21111.089999999964,
      "d": 69.44437499999913,
      "v": 100
    },
    {
      "midi": 36,
      "hit": false,
      "t": 21111.089999999964,
      "d": 138.88874999999825,
      "v": 127
    },
    {
      "midi": 78,
      "hit": false,
      "t": 21111.089999999997,
      "d": 69.44437499999913,
      "v": 100
    },
    {
      "midi": 38,
      "hit": false,
      "t": 21222.200999999957,
      "d": 69.44437499999913,
      "v": 100
    },
    {
      "midi": 47,
      "hit": false,
      "t": 21222.200999999965,
      "d": 69.44437499999913,
      "v": 100
    },
    {
      "midi": 79,
      "hit": false,
      "t": 21222.200999999997,
      "d": 1245.369125000001,
      "v": 100
    },
    {
      "midi": 49,
      "hit": false,
      "t": 21333.311999999958,
      "d": 69.44437499999913,
      "v": 100
    },
    {
      "midi": 44,
      "hit": false,
      "t": 21333.311999999958,
      "d": 69.44437499999913,
      "v": 100
    },
    {
      "midi": 36,
      "hit": false,
      "t": 21333.31199999996,
      "d": 138.88874999999825,
      "v": 127
    },
    {
      "midi": 40,
      "hit": false,
      "t": 21333.311999999965,
      "d": 212.96274999999878,
      "v": 100
    },
    {
      "midi": 73,
      "hit": false,
      "t": 21333.312,
      "d": 3555.5519999999997,
      "v": 100
    },
    {
      "midi": 71,
      "hit": false,
      "t": 21333.312,
      "d": 3555.5519999999997,
      "v": 100
    },
    {
      "midi": 44,
      "hit": false,
      "t": 21444.42299999996,
      "d": 69.44437499999913,
      "v": 100
    },
    {
      "midi": 36,
      "hit": false,
      "t": 21555.53399999996,
      "d": 69.44437499999913,
      "v": 127
    },
    {
      "midi": 44,
      "hit": false,
      "t": 21555.53399999996,
      "d": 138.88874999999825,
      "v": 100
    },
    {
      "midi": 36,
      "hit": false,
      "t": 21666.64499999996,
      "d": 69.44437499999913,
      "v": 127
    },
    {
      "midi": 40,
      "hit": false,
      "t": 21666.644999999964,
      "d": 69.44437499999913,
      "v": 100
    },
    {
      "midi": 44,
      "hit": false,
      "t": 21777.755999999958,
      "d": 69.44437499999913,
      "v": 100
    },
    {
      "midi": 38,
      "hit": false,
      "t": 21777.755999999958,
      "d": 69.44437499999913,
      "v": 100
    },
    {
      "midi": 43,
      "hit": false,
      "t": 21777.755999999965,
      "d": 138.88874999999825,
      "v": 100
    },
    {
      "midi": 44,
      "hit": false,
      "t": 21888.86699999996,
      "d": 69.44437499999913,
      "v": 100
    },
    {
      "midi": 27,
      "hit": false,
      "t": 21888.86699999999,
      "d": 212.96274999999878,
      "v": 127
    },
    {
      "midi": 36,
      "hit": false,
      "t": 21999.97799999996,
      "d": 69.44437499999913,
      "v": 127
    },
    {
      "midi": 44,
      "hit": false,
      "t": 21999.97799999996,
      "d": 69.44437499999913,
      "v": 100
    },
    {
      "midi": 43,
      "hit": false,
      "t": 21999.977999999963,
      "d": 138.88874999999825,
      "v": 100
    },
    {
      "midi": 36,
      "hit": false,
      "t": 22111.08899999996,
      "d": 69.44437499999913,
      "v": 127
    },
    {
      "midi": 44,
      "hit": false,
      "t": 22111.08899999996,
      "d": 69.44437499999913,
      "v": 100
    },
    {
      "midi": 38,
      "hit": false,
      "t": 22111.08899999996,
      "d": 69.44437499999913,
      "v": 100
    },
    {
      "midi": 45,
      "hit": false,
      "t": 22222.19999999996,
      "d": 138.88874999999825,
      "v": 100
    },
    {
      "midi": 36,
      "hit": false,
      "t": 22222.19999999996,
      "d": 212.96274999999878,
      "v": 127
    },
    {
      "midi": 44,
      "hit": false,
      "t": 22222.19999999996,
      "d": 69.44437499999913,
      "v": 100
    },
    {
      "midi": 44,
      "hit": false,
      "t": 22333.31099999996,
      "d": 69.44437499999913,
      "v": 100
    },
    {
      "midi": 38,
      "hit": false,
      "t": 22333.31099999996,
      "d": 69.44437499999913,
      "v": 100
    },
    {
      "midi": 45,
      "hit": false,
      "t": 22444.42199999996,
      "d": 138.88874999999825,
      "v": 100
    },
    {
      "midi": 44,
      "hit": false,
      "t": 22444.421999999962,
      "d": 138.88874999999825,
      "v": 100
    },
    {
      "midi": 36,
      "hit": false,
      "t": 22555.53299999996,
      "d": 69.44437499999913,
      "v": 127
    },
    {
      "midi": 46,
      "hit": false,
      "t": 22666.643999999957,
      "d": 138.88874999999825,
      "v": 100
    },
    {
      "midi": 44,
      "hit": false,
      "t": 22666.64399999996,
      "d": 69.44437499999913,
      "v": 100
    },
    {
      "midi": 38,
      "hit": false,
      "t": 22666.64399999996,
      "d": 69.44437499999913,
      "v": 100
    },
    {
      "midi": 44,
      "hit": false,
      "t": 22777.75499999996,
      "d": 69.44437499999913,
      "v": 100
    },
    {
      "midi": 45,
      "hit": false,
      "t": 22888.865999999955,
      "d": 138.88874999999825,
      "v": 100
    },
    {
      "midi": 36,
      "hit": false,
      "t": 22888.865999999958,
      "d": 69.44437499999913,
      "v": 127
    },
    {
      "midi": 44,
      "hit": false,
      "t": 22888.86599999996,
      "d": 69.44437499999913,
      "v": 100
    },
    {
      "midi": 36,
      "hit": false,
      "t": 22999.97699999996,
      "d": 69.44437499999913,
      "v": 127
    },
    {
      "midi": 44,
      "hit": false,
      "t": 22999.976999999963,
      "d": 69.44437499999913,
      "v": 100
    },
    {
      "midi": 36,
      "hit": false,
      "t": 23111.08799999996,
      "d": 138.88874999999825,
      "v": 127
    },
    {
      "midi": 44,
      "hit": false,
      "t": 23111.087999999963,
      "d": 69.44437499999913,
      "v": 100
    },
    {
      "midi": 78,
      "hit": false,
      "t": 23111.088,
      "d": 185.1850000000013,
      "v": 100
    },
    {
      "midi": 76,
      "hit": false,
      "t": 23111.088,
      "d": 185.1850000000013,
      "v": 80
    },
    {
      "midi": 40,
      "hit": false,
      "t": 23222.198999999953,
      "d": 212.96274999999878,
      "v": 100
    },
    {
      "midi": 44,
      "hit": false,
      "t": 23222.198999999964,
      "d": 69.44437499999913,
      "v": 100
    },
    {
      "midi": 38,
      "hit": false,
      "t": 23222.198999999964,
      "d": 69.44437499999913,
      "v": 100
    },
    {
      "midi": 36,
      "hit": false,
      "t": 23333.309999999958,
      "d": 69.44437499999913,
      "v": 127
    },
    {
      "midi": 44,
      "hit": false,
      "t": 23333.309999999965,
      "d": 138.88874999999825,
      "v": 100
    },
    {
      "midi": 78,
      "hit": false,
      "t": 23407.384000000002,
      "d": 185.1850000000013,
      "v": 100
    },
    {
      "midi": 36,
      "hit": false,
      "t": 23444.42099999996,
      "d": 69.44437499999913,
      "v": 127
    },
    {
      "midi": 43,
      "hit": false,
      "t": 23555.531999999952,
      "d": 138.88874999999825,
      "v": 100
    },
    {
      "midi": 44,
      "hit": false,
      "t": 23555.531999999963,
      "d": 69.44437499999913,
      "v": 100
    },
    {
      "midi": 38,
      "hit": false,
      "t": 23555.531999999963,
      "d": 69.44437499999913,
      "v": 100
    },
    {
      "midi": 44,
      "hit": false,
      "t": 23666.642999999964,
      "d": 69.44437499999913,
      "v": 100
    },
    {
      "midi": 78,
      "hit": false,
      "t": 23703.680000000004,
      "d": 185.1850000000013,
      "v": 100
    },
    {
      "midi": 43,
      "hit": false,
      "t": 23777.75399999995,
      "d": 138.88874999999825,
      "v": 100
    },
    {
      "midi": 36,
      "hit": false,
      "t": 23777.753999999957,
      "d": 69.44437499999913,
      "v": 127
    },
    {
      "midi": 44,
      "hit": false,
      "t": 23777.753999999964,
      "d": 69.44437499999913,
      "v": 100
    },
    {
      "midi": 36,
      "hit": false,
      "t": 23888.864999999958,
      "d": 69.44437499999913,
      "v": 127
    },
    {
      "midi": 44,
      "hit": false,
      "t": 23888.864999999965,
      "d": 69.44437499999913,
      "v": 100
    },
    {
      "midi": 38,
      "hit": false,
      "t": 23888.864999999965,
      "d": 69.44437499999913,
      "v": 100
    },
    {
      "midi": 45,
      "hit": false,
      "t": 23999.975999999948,
      "d": 138.88874999999825,
      "v": 100
    },
    {
      "midi": 36,
      "hit": false,
      "t": 23999.97599999996,
      "d": 212.96274999999878,
      "v": 127
    },
    {
      "midi": 44,
      "hit": false,
      "t": 23999.975999999966,
      "d": 69.44437499999913,
      "v": 100
    },
    {
      "midi": 78,
      "hit": false,
      "t": 23999.976000000006,
      "d": 185.1850000000013,
      "v": 100
    },
    {
      "midi": 44,
      "hit": false,
      "t": 24111.086999999967,
      "d": 69.44437499999913,
      "v": 100
    },
    {
      "midi": 38,
      "hit": false,
      "t": 24111.086999999967,
      "d": 69.44437499999913,
      "v": 100
    },
    {
      "midi": 45,
      "hit": false,
      "t": 24222.197999999946,
      "d": 138.88874999999825,
      "v": 100
    },
    {
      "midi": 44,
      "hit": false,
      "t": 24222.197999999968,
      "d": 138.88874999999825,
      "v": 100
    },
    {
      "midi": 76,
      "hit": false,
      "t": 24296.272000000008,
      "d": 185.1850000000013,
      "v": 100
    },
    {
      "midi": 36,
      "hit": false,
      "t": 24333.308999999957,
      "d": 69.44437499999913,
      "v": 127
    },
    {
      "midi": 50,
      "hit": false,
      "t": 24444.419999999944,
      "d": 69.44437499999913,
      "v": 100
    },
    {
      "midi": 44,
      "hit": false,
      "t": 24444.419999999966,
      "d": 69.44437499999913,
      "v": 100
    },
    {
      "midi": 38,
      "hit": false,
      "t": 24444.419999999966,
      "d": 69.44437499999913,
      "v": 100
    },
    {
      "midi": 52,
      "hit": false,
      "t": 24555.530999999944,
      "d": 69.44437499999913,
      "v": 100
    },
    {
      "midi": 44,
      "hit": false,
      "t": 24555.530999999966,
      "d": 69.44437499999913,
      "v": 100
    },
    {
      "midi": 38,
      "hit": false,
      "t": 24555.530999999966,
      "d": 69.44437499999913,
      "v": 100
    },
    {
      "midi": 27,
      "hit": false,
      "t": 24555.530999999988,
      "d": 212.96274999999878,
      "v": 127
    },
    {
      "midi": 74,
      "hit": false,
      "t": 24592.56800000001,
      "d": 185.1850000000013,
      "v": 100
    },
    {
      "midi": 45,
      "hit": false,
      "t": 24666.641999999945,
      "d": 69.44437499999913,
      "v": 100
    },
    {
      "midi": 36,
      "hit": false,
      "t": 24666.641999999956,
      "d": 138.88874999999825,
      "v": 127
    },
    {
      "midi": 44,
      "hit": false,
      "t": 24666.641999999967,
      "d": 69.44437499999913,
      "v": 100
    },
    {
      "midi": 76,
      "hit": false,
      "t": 24666.641999999993,
      "d": 32.407374999998865,
      "v": 100
    },
    {
      "midi": 78,
      "hit": false,
      "t": 24722.19749999999,
      "d": 32.407374999998865,
      "v": 100
    },
    {
      "midi": 47,
      "hit": false,
      "t": 24777.752999999946,
      "d": 69.44437499999913,
      "v": 100
    },
    {
      "midi": 38,
      "hit": false,
      "t": 24777.752999999968,
      "d": 69.44437499999913,
      "v": 100
    },
    {
      "midi": 79,
      "hit": false,
      "t": 24777.75299999999,
      "d": 32.407374999998865,
      "v": 100
    },
    {
      "midi": 81,
      "hit": false,
      "t": 24833.30849999999,
      "d": 32.407374999998865,
      "v": 100
    },
    {
      "midi": 40,
      "hit": false,
      "t": 24888.863999999947,
      "d": 212.96274999999878,
      "v": 100
    },
    {
      "midi": 36,
      "hit": false,
      "t": 24888.863999999954,
      "d": 138.88874999999825,
      "v": 127
    },
    {
      "midi": 49,
      "hit": false,
      "t": 24888.86399999997,
      "d": 69.44437499999913,
      "v": 100
    },
    {
      "midi": 44,
      "hit": false,
      "t": 24888.86399999997,
      "d": 69.44437499999913,
      "v": 100
    },
    {
      "midi": 83,
      "hit": false,
      "t": 24888.863999999987,
      "d": 69.44437499999913,
      "v": 100
    },
    {
      "midi": 86,
      "hit": false,
      "t": 24888.864,
      "d": 111.11100000000079,
      "v": 127
    },
    {
      "midi": 79,
      "hit": false,
      "t": 24888.864,
      "d": 111.11100000000079,
      "v": 127
    },
    {
      "midi": 76,
      "hit": false,
      "t": 24888.864000000012,
      "d": 1134.2581250000003,
      "v": 100
    },
    {
      "midi": 44,
      "hit": false,
      "t": 24999.97499999997,
      "d": 69.44437499999913,
      "v": 100
    },
    {
      "midi": 79,
      "hit": false,
      "t": 24999.974999999988,
      "d": 69.44437499999913,
      "v": 100
    },
    {
      "midi": 86,
      "hit": false,
      "t": 24999.975000000002,
      "d": 111.11100000000079,
      "v": 127
    },
    {
      "midi": 79,
      "hit": false,
      "t": 24999.975000000002,
      "d": 111.11100000000079,
      "v": 127
    },
    {
      "midi": 36,
      "hit": false,
      "t": 25111.085999999952,
      "d": 69.44437499999913,
      "v": 127
    },
    {
      "midi": 44,
      "hit": false,
      "t": 25111.08599999997,
      "d": 138.88874999999825,
      "v": 100
    },
    {
      "midi": 81,
      "hit": false,
      "t": 25111.08599999999,
      "d": 69.44437499999913,
      "v": 100
    },
    {
      "midi": 40,
      "hit": false,
      "t": 25222.196999999946,
      "d": 69.44437499999913,
      "v": 100
    },
    {
      "midi": 36,
      "hit": false,
      "t": 25222.196999999953,
      "d": 69.44437499999913,
      "v": 127
    },
    {
      "midi": 78,
      "hit": false,
      "t": 25222.19699999999,
      "d": 69.44437499999913,
      "v": 100
    },
    {
      "midi": 85,
      "hit": false,
      "t": 25222.197000000004,
      "d": 111.11100000000079,
      "v": 127
    },
    {
      "midi": 79,
      "hit": false,
      "t": 25222.197000000004,
      "d": 111.11100000000079,
      "v": 127
    },
    {
      "midi": 43,
      "hit": false,
      "t": 25333.307999999946,
      "d": 138.88874999999825,
      "v": 100
    },
    {
      "midi": 44,
      "hit": false,
      "t": 25333.307999999968,
      "d": 69.44437499999913,
      "v": 100
    },
    {
      "midi": 38,
      "hit": false,
      "t": 25333.307999999968,
      "d": 69.44437499999913,
      "v": 100
    },
    {
      "midi": 39,
      "hit": false,
      "t": 25333.307999999986,
      "d": 282.40712500000154,
      "v": 127
    },
    {
      "midi": 79,
      "hit": false,
      "t": 25333.30799999999,
      "d": 69.44437499999913,
      "v": 100
    },
    {
      "midi": 85,
      "hit": false,
      "t": 25333.308000000005,
      "d": 111.11100000000079,
      "v": 127
    },
    {
      "midi": 79,
      "hit": false,
      "t": 25333.308000000005,
      "d": 111.11100000000079,
      "v": 127
    },
    {
      "midi": 44,
      "hit": false,
      "t": 25444.41899999997,
      "d": 69.44437499999913,
      "v": 100
    },
    {
      "midi": 81,
      "hit": false,
      "t": 25444.41899999999,
      "d": 69.44437499999913,
      "v": 100
    },
    {
      "midi": 43,
      "hit": false,
      "t": 25555.529999999944,
      "d": 138.88874999999825,
      "v": 100
    },
    {
      "midi": 36,
      "hit": false,
      "t": 25555.52999999995,
      "d": 69.44437499999913,
      "v": 127
    },
    {
      "midi": 44,
      "hit": false,
      "t": 25555.52999999997,
      "d": 69.44437499999913,
      "v": 100
    },
    {
      "midi": 79,
      "hit": false,
      "t": 25555.52999999999,
      "d": 69.44437499999913,
      "v": 100
    },
    {
      "midi": 75,
      "hit": false,
      "t": 25555.53,
      "d": 138.88874999999825,
      "v": 100
    },
    {
      "midi": 84,
      "hit": false,
      "t": 25555.530000000006,
      "d": 111.11100000000079,
      "v": 127
    },
    {
      "midi": 79,
      "hit": false,
      "t": 25555.530000000006,
      "d": 111.11100000000079,
      "v": 127
    },
    {
      "midi": 36,
      "hit": false,
      "t": 25666.640999999952,
      "d": 69.44437499999913,
      "v": 127
    },
    {
      "midi": 38,
      "hit": false,
      "t": 25666.64099999997,
      "d": 69.44437499999913,
      "v": 100
    },
    {
      "midi": 78,
      "hit": false,
      "t": 25666.640999999992,
      "d": 69.44437499999913,
      "v": 100
    },
    {
      "midi": 84,
      "hit": false,
      "t": 25666.641000000007,
      "d": 111.11100000000079,
      "v": 127
    },
    {
      "midi": 79,
      "hit": false,
      "t": 25666.641000000007,
      "d": 111.11100000000079,
      "v": 127
    },
    {
      "midi": 45,
      "hit": false,
      "t": 25777.751999999942,
      "d": 138.88874999999825,
      "v": 100
    },
    {
      "midi": 36,
      "hit": false,
      "t": 25777.751999999953,
      "d": 212.96274999999878,
      "v": 127
    },
    {
      "midi": 44,
      "hit": false,
      "t": 25777.75199999997,
      "d": 69.44437499999913,
      "v": 100
    },
    {
      "midi": 76,
      "hit": false,
      "t": 25777.751999999993,
      "d": 69.44437499999913,
      "v": 100
    },
    {
      "midi": 44,
      "hit": false,
      "t": 25888.862999999972,
      "d": 69.44437499999913,
      "v": 100
    },
    {
      "midi": 38,
      "hit": false,
      "t": 25888.862999999972,
      "d": 69.44437499999913,
      "v": 100
    },
    {
      "midi": 79,
      "hit": false,
      "t": 25888.862999999994,
      "d": 69.44437499999913,
      "v": 100
    },
    {
      "midi": 75,
      "hit": false,
      "t": 25888.862999999998,
      "d": 212.96274999999878,
      "v": 100
    },
    {
      "midi": 83,
      "hit": false,
      "t": 25888.86300000001,
      "d": 111.11100000000079,
      "v": 127
    },
    {
      "midi": 79,
      "hit": false,
      "t": 25888.86300000001,
      "d": 111.11100000000079,
      "v": 127
    },
    {
      "midi": 45,
      "hit": false,
      "t": 25999.97399999994,
      "d": 69.44437499999913,
      "v": 100
    },
    {
      "midi": 44,
      "hit": false,
      "t": 25999.973999999973,
      "d": 138.88874999999825,
      "v": 100
    },
    {
      "midi": 78,
      "hit": false,
      "t": 25999.973999999995,
      "d": 69.44437499999913,
      "v": 100
    },
    {
      "midi": 83,
      "hit": false,
      "t": 25999.97400000001,
      "d": 111.11100000000079,
      "v": 127
    },
    {
      "midi": 79,
      "hit": false,
      "t": 25999.97400000001,
      "d": 111.11100000000079,
      "v": 127
    },
    {
      "midi": 43,
      "hit": false,
      "t": 26111.08499999994,
      "d": 69.44437499999913,
      "v": 100
    },
    {
      "midi": 36,
      "hit": false,
      "t": 26111.084999999952,
      "d": 69.44437499999913,
      "v": 127
    },
    {
      "midi": 76,
      "hit": false,
      "t": 26111.084999999995,
      "d": 69.44437499999913,
      "v": 100
    },
    {
      "midi": 45,
      "hit": false,
      "t": 26222.19599999994,
      "d": 69.44437499999913,
      "v": 100
    },
    {
      "midi": 44,
      "hit": false,
      "t": 26222.19599999997,
      "d": 69.44437499999913,
      "v": 100
    },
    {
      "midi": 38,
      "hit": false,
      "t": 26222.19599999997,
      "d": 69.44437499999913,
      "v": 100
    },
    {
      "midi": 78,
      "hit": false,
      "t": 26222.195999999996,
      "d": 69.44437499999913,
      "v": 100
    },
    {
      "midi": 46,
      "hit": false,
      "t": 26333.306999999942,
      "d": 69.44437499999913,
      "v": 100
    },
    {
      "midi": 44,
      "hit": false,
      "t": 26333.30699999997,
      "d": 69.44437499999913,
      "v": 100
    },
    {
      "midi": 27,
      "hit": false,
      "t": 26333.306999999986,
      "d": 212.96274999999878,
      "v": 127
    },
    {
      "midi": 79,
      "hit": false,
      "t": 26333.306999999997,
      "d": 69.44437499999913,
      "v": 100
    },
    {
      "midi": 45,
      "hit": false,
      "t": 26444.417999999943,
      "d": 69.44437499999913,
      "v": 100
    },
    {
      "midi": 36,
      "hit": false,
      "t": 26444.41799999995,
      "d": 69.44437499999913,
      "v": 127
    },
    {
      "midi": 44,
      "hit": false,
      "t": 26444.417999999972,
      "d": 138.88874999999825,
      "v": 100
    },
    {
      "midi": 81,
      "hit": false,
      "t": 26444.417999999998,
      "d": 69.44437499999913,
      "v": 100
    },
    {
      "midi": 43,
      "hit": false,
      "t": 26555.528999999944,
      "d": 69.44437499999913,
      "v": 100
    },
    {
      "midi": 36,
      "hit": false,
      "t": 26555.52899999995,
      "d": 69.44437499999913,
      "v": 127
    },
    {
      "midi": 79,
      "hit": false,
      "t": 26555.529,
      "d": 69.44437499999913,
      "v": 100
    },
    {
      "midi": 36,
      "hit": false,
      "t": 26666.639999999952,
      "d": 138.88874999999825,
      "v": 127
    },
    {
      "midi": 44,
      "hit": false,
      "t": 26666.63999999997,
      "d": 69.44437499999913,
      "v": 100
    },
    {
      "midi": 83,
      "hit": false,
      "t": 26666.64,
      "d": 69.44437499999913,
      "v": 100
    },
    {
      "midi": 83,
      "hit": false,
      "t": 26666.64000000001,
      "d": 111.11100000000079,
      "v": 127
    },
    {
      "midi": 79,
      "hit": false,
      "t": 26666.64000000001,
      "d": 111.11100000000079,
      "v": 127
    },
    {
      "midi": 76,
      "hit": false,
      "t": 26666.640000000014,
      "d": 1134.2581250000003,
      "v": 100
    },
    {
      "midi": 40,
      "hit": false,
      "t": 26777.750999999942,
      "d": 212.96274999999878,
      "v": 100
    },
    {
      "midi": 44,
      "hit": false,
      "t": 26777.75099999997,
      "d": 69.44437499999913,
      "v": 100
    },
    {
      "midi": 38,
      "hit": false,
      "t": 26777.75099999997,
      "d": 69.44437499999913,
      "v": 100
    },
    {
      "midi": 79,
      "hit": false,
      "t": 26777.751,
      "d": 69.44437499999913,
      "v": 100
    },
    {
      "midi": 83,
      "hit": false,
      "t": 26777.75100000001,
      "d": 111.11100000000079,
      "v": 127
    },
    {
      "midi": 79,
      "hit": false,
      "t": 26777.75100000001,
      "d": 111.11100000000079,
      "v": 127
    },
    {
      "midi": 36,
      "hit": false,
      "t": 26888.86199999995,
      "d": 69.44437499999913,
      "v": 127
    },
    {
      "midi": 44,
      "hit": false,
      "t": 26888.861999999972,
      "d": 138.88874999999825,
      "v": 100
    },
    {
      "midi": 81,
      "hit": false,
      "t": 26888.862,
      "d": 69.44437499999913,
      "v": 100
    },
    {
      "midi": 36,
      "hit": false,
      "t": 26999.97299999995,
      "d": 69.44437499999913,
      "v": 127
    },
    {
      "midi": 78,
      "hit": false,
      "t": 26999.973,
      "d": 69.44437499999913,
      "v": 100
    },
    {
      "midi": 81,
      "hit": false,
      "t": 26999.973000000013,
      "d": 111.11100000000079,
      "v": 127
    },
    {
      "midi": 78,
      "hit": false,
      "t": 26999.973000000013,
      "d": 111.11100000000079,
      "v": 127
    },
    {
      "midi": 43,
      "hit": false,
      "t": 27111.08399999994,
      "d": 138.88874999999825,
      "v": 100
    },
    {
      "midi": 44,
      "hit": false,
      "t": 27111.08399999997,
      "d": 69.44437499999913,
      "v": 100
    },
    {
      "midi": 38,
      "hit": false,
      "t": 27111.08399999997,
      "d": 69.44437499999913,
      "v": 100
    },
    {
      "midi": 39,
      "hit": false,
      "t": 27111.083999999984,
      "d": 69.44437499999913,
      "v": 127
    },
    {
      "midi": 79,
      "hit": false,
      "t": 27111.084000000003,
      "d": 69.44437499999913,
      "v": 100
    },
    {
      "midi": 81,
      "hit": false,
      "t": 27111.084000000013,
      "d": 111.11100000000079,
      "v": 127
    },
    {
      "midi": 78,
      "hit": false,
      "t": 27111.084000000013,
      "d": 111.11100000000079,
      "v": 127
    },
    {
      "midi": 44,
      "hit": false,
      "t": 27222.19499999997,
      "d": 69.44437499999913,
      "v": 100
    },
    {
      "midi": 39,
      "hit": false,
      "t": 27222.194999999985,
      "d": 138.88874999999825,
      "v": 127
    },
    {
      "midi": 81,
      "hit": false,
      "t": 27222.195000000003,
      "d": 69.44437499999913,
      "v": 100
    },
    {
      "midi": 43,
      "hit": false,
      "t": 27333.30599999994,
      "d": 138.88874999999825,
      "v": 100
    },
    {
      "midi": 36,
      "hit": false,
      "t": 27333.30599999995,
      "d": 69.44437499999913,
      "v": 127
    },
    {
      "midi": 44,
      "hit": false,
      "t": 27333.30599999997,
      "d": 69.44437499999913,
      "v": 100
    },
    {
      "midi": 75,
      "hit": false,
      "t": 27333.305999999997,
      "d": 138.88874999999825,
      "v": 100
    },
    {
      "midi": 79,
      "hit": false,
      "t": 27333.306000000004,
      "d": 69.44437499999913,
      "v": 100
    },
    {
      "midi": 79,
      "hit": false,
      "t": 27333.306000000015,
      "d": 111.11100000000079,
      "v": 127
    },
    {
      "midi": 76,
      "hit": false,
      "t": 27333.306000000015,
      "d": 111.11100000000079,
      "v": 127
    },
    {
      "midi": 36,
      "hit": false,
      "t": 27444.41699999995,
      "d": 69.44437499999913,
      "v": 127
    },
    {
      "midi": 38,
      "hit": false,
      "t": 27444.416999999972,
      "d": 69.44437499999913,
      "v": 100
    },
    {
      "midi": 39,
      "hit": false,
      "t": 27444.416999999983,
      "d": 69.44437499999913,
      "v": 127
    },
    {
      "midi": 78,
      "hit": false,
      "t": 27444.417000000005,
      "d": 69.44437499999913,
      "v": 100
    },
    {
      "midi": 79,
      "hit": false,
      "t": 27444.417000000016,
      "d": 111.11100000000079,
      "v": 127
    },
    {
      "midi": 76,
      "hit": false,
      "t": 27444.417000000016,
      "d": 111.11100000000079,
      "v": 127
    },
    {
      "midi": 45,
      "hit": false,
      "t": 27555.527999999937,
      "d": 138.88874999999825,
      "v": 100
    },
    {
      "midi": 36,
      "hit": false,
      "t": 27555.52799999995,
      "d": 212.96274999999878,
      "v": 127
    },
    {
      "midi": 44,
      "hit": false,
      "t": 27555.527999999973,
      "d": 69.44437499999913,
      "v": 100
    },
    {
      "midi": 76,
      "hit": false,
      "t": 27555.528000000006,
      "d": 69.44437499999913,
      "v": 100
    },
    {
      "midi": 44,
      "hit": false,
      "t": 27666.638999999974,
      "d": 69.44437499999913,
      "v": 100
    },
    {
      "midi": 38,
      "hit": false,
      "t": 27666.638999999974,
      "d": 69.44437499999913,
      "v": 100
    },
    {
      "midi": 75,
      "hit": false,
      "t": 27666.638999999996,
      "d": 212.96274999999878,
      "v": 100
    },
    {
      "midi": 79,
      "hit": false,
      "t": 27666.639000000006,
      "d": 69.44437499999913,
      "v": 100
    },
    {
      "midi": 78,
      "hit": false,
      "t": 27666.639000000017,
      "d": 111.11100000000079,
      "v": 127
    },
    {
      "midi": 74,
      "hit": false,
      "t": 27666.639000000017,
      "d": 111.11100000000079,
      "v": 127
    },
    {
      "midi": 50,
      "hit": false,
      "t": 27777.749999999935,
      "d": 55.555499999998574,
      "v": 100
    },
    {
      "midi": 44,
      "hit": false,
      "t": 27777.749999999975,
      "d": 138.88874999999825,
      "v": 100
    },
    {
      "midi": 38,
      "hit": false,
      "t": 27777.749999999975,
      "d": 138.88874999999825,
      "v": 100
    },
    {
      "midi": 78,
      "hit": false,
      "t": 27777.750000000007,
      "d": 69.44437499999913,
      "v": 100
    },
    {
      "midi": 78,
      "hit": false,
      "t": 27777.75000000002,
      "d": 111.11100000000079,
      "v": 127
    },
    {
      "midi": 74,
      "hit": false,
      "t": 27777.75000000002,
      "d": 111.11100000000079,
      "v": 127
    },
    {
      "midi": 52,
      "hit": false,
      "t": 27833.305499999933,
      "d": 55.555499999998574,
      "v": 100
    },
    {
      "midi": 47,
      "hit": false,
      "t": 27888.86099999993,
      "d": 111.11100000000079,
      "v": 100
    },
    {
      "midi": 36,
      "hit": false,
      "t": 27888.86099999995,
      "d": 69.44437499999913,
      "v": 127
    },
    {
      "midi": 76,
      "hit": false,
      "t": 27888.861000000008,
      "d": 69.44437499999913,
      "v": 100
    },
    {
      "midi": 46,
      "hit": false,
      "t": 27999.971999999932,
      "d": 111.11100000000079,
      "v": 100
    },
    {
      "midi": 44,
      "hit": false,
      "t": 27999.971999999972,
      "d": 69.44437499999913,
      "v": 100
    },
    {
      "midi": 38,
      "hit": false,
      "t": 27999.971999999972,
      "d": 69.44437499999913,
      "v": 100
    },
    {
      "midi": 78,
      "hit": false,
      "t": 27999.97200000001,
      "d": 69.44437499999913,
      "v": 100
    },
    {
      "midi": 45,
      "hit": false,
      "t": 28111.082999999933,
      "d": 111.11100000000079,
      "v": 100
    },
    {
      "midi": 44,
      "hit": false,
      "t": 28111.082999999973,
      "d": 69.44437499999913,
      "v": 100
    },
    {
      "midi": 38,
      "hit": false,
      "t": 28111.082999999973,
      "d": 69.44437499999913,
      "v": 100
    },
    {
      "midi": 27,
      "hit": false,
      "t": 28111.08299999998,
      "d": 212.96274999999878,
      "v": 127
    },
    {
      "midi": 79,
      "hit": false,
      "t": 28111.08300000001,
      "d": 69.44437499999913,
      "v": 100
    },
    {
      "midi": 43,
      "hit": false,
      "t": 28222.193999999934,
      "d": 111.11100000000079,
      "v": 100
    },
    {
      "midi": 36,
      "hit": false,
      "t": 28222.19399999995,
      "d": 138.88874999999825,
      "v": 127
    },
    {
      "midi": 44,
      "hit": false,
      "t": 28222.193999999974,
      "d": 69.44437499999913,
      "v": 100
    },
    {
      "midi": 38,
      "hit": false,
      "t": 28222.193999999974,
      "d": 69.44437499999913,
      "v": 100
    },
    {
      "midi": 81,
      "hit": false,
      "t": 28222.19400000001,
      "d": 69.44437499999913,
      "v": 100
    },
    {
      "midi": 38,
      "hit": false,
      "t": 28333.304999999935,
      "d": 111.11100000000079,
      "v": 100
    },
    {
      "midi": 38,
      "hit": false,
      "t": 28333.304999999975,
      "d": 69.44437499999913,
      "v": 100
    },
    {
      "midi": 79,
      "hit": false,
      "t": 28333.30500000001,
      "d": 1245.369125000001,
      "v": 100
    },
    {
      "midi": 40,
      "hit": false,
      "t": 28444.415999999936,
      "d": 212.96274999999878,
      "v": 100
    },
    {
      "midi": 36,
      "hit": false,
      "t": 28444.415999999947,
      "d": 138.88874999999825,
      "v": 127
    },
    {
      "midi": 49,
      "hit": false,
      "t": 28444.415999999976,
      "d": 69.44437499999913,
      "v": 100
    },
    {
      "midi": 44,
      "hit": false,
      "t": 28444.415999999976,
      "d": 69.44437499999913,
      "v": 100
    },
    {
      "midi": 74,
      "hit": false,
      "t": 28444.41600000002,
      "d": 3555.5519999999997,
      "v": 100
    },
    {
      "midi": 71,
      "hit": false,
      "t": 28444.41600000002,
      "d": 3555.5519999999997,
      "v": 100
    },
    {
      "midi": 44,
      "hit": false,
      "t": 28555.526999999976,
      "d": 69.44437499999913,
      "v": 100
    },
    {
      "midi": 36,
      "hit": false,
      "t": 28666.637999999944,
      "d": 69.44437499999913,
      "v": 127
    },
    {
      "midi": 44,
      "hit": false,
      "t": 28666.637999999977,
      "d": 138.88874999999825,
      "v": 100
    },
    {
      "midi": 40,
      "hit": false,
      "t": 28777.748999999934,
      "d": 69.44437499999913,
      "v": 100
    },
    {
      "midi": 36,
      "hit": false,
      "t": 28777.748999999945,
      "d": 69.44437499999913,
      "v": 127
    },
    {
      "midi": 43,
      "hit": false,
      "t": 28888.859999999935,
      "d": 138.88874999999825,
      "v": 100
    },
    {
      "midi": 44,
      "hit": false,
      "t": 28888.859999999975,
      "d": 69.44437499999913,
      "v": 100
    },
    {
      "midi": 38,
      "hit": false,
      "t": 28888.859999999975,
      "d": 69.44437499999913,
      "v": 100
    },
    {
      "midi": 39,
      "hit": false,
      "t": 28888.85999999998,
      "d": 282.40712500000154,
      "v": 127
    },
    {
      "midi": 44,
      "hit": false,
      "t": 28999.970999999976,
      "d": 69.44437499999913,
      "v": 100
    },
    {
      "midi": 71,
      "hit": false,
      "t": 28999.971000000016,
      "d": 69.44437499999913,
      "v": 100
    },
    {
      "midi": 43,
      "hit": false,
      "t": 29111.081999999933,
      "d": 138.88874999999825,
      "v": 100
    },
    {
      "midi": 36,
      "hit": false,
      "t": 29111.081999999944,
      "d": 69.44437499999913,
      "v": 127
    },
    {
      "midi": 44,
      "hit": false,
      "t": 29111.081999999977,
      "d": 69.44437499999913,
      "v": 100
    },
    {
      "midi": 76,
      "hit": false,
      "t": 29111.082000000017,
      "d": 69.44437499999913,
      "v": 100
    },
    {
      "midi": 36,
      "hit": false,
      "t": 29222.192999999945,
      "d": 69.44437499999913,
      "v": 127
    },
    {
      "midi": 44,
      "hit": false,
      "t": 29222.192999999977,
      "d": 69.44437499999913,
      "v": 100
    },
    {
      "midi": 38,
      "hit": false,
      "t": 29222.192999999977,
      "d": 69.44437499999913,
      "v": 100
    },
    {
      "midi": 79,
      "hit": false,
      "t": 29222.193000000017,
      "d": 69.44437499999913,
      "v": 100
    },
    {
      "midi": 45,
      "hit": false,
      "t": 29333.30399999993,
      "d": 138.88874999999825,
      "v": 100
    },
    {
      "midi": 36,
      "hit": false,
      "t": 29333.303999999946,
      "d": 212.96274999999878,
      "v": 127
    },
    {
      "midi": 44,
      "hit": false,
      "t": 29333.30399999998,
      "d": 69.44437499999913,
      "v": 100
    },
    {
      "midi": 79,
      "hit": false,
      "t": 29333.30400000002,
      "d": 69.44437499999913,
      "v": 100
    },
    {
      "midi": 44,
      "hit": false,
      "t": 29444.41499999998,
      "d": 69.44437499999913,
      "v": 100
    },
    {
      "midi": 38,
      "hit": false,
      "t": 29444.41499999998,
      "d": 69.44437499999913,
      "v": 100
    },
    {
      "midi": 81,
      "hit": false,
      "t": 29444.41500000002,
      "d": 69.44437499999913,
      "v": 100
    },
    {
      "midi": 45,
      "hit": false,
      "t": 29555.52599999993,
      "d": 138.88874999999825,
      "v": 100
    },
    {
      "midi": 44,
      "hit": false,
      "t": 29555.52599999998,
      "d": 138.88874999999825,
      "v": 100
    },
    {
      "midi": 79,
      "hit": false,
      "t": 29555.52600000002,
      "d": 69.44437499999913,
      "v": 100
    },
    {
      "midi": 36,
      "hit": false,
      "t": 29666.636999999944,
      "d": 69.44437499999913,
      "v": 127
    },
    {
      "midi": 78,
      "hit": false,
      "t": 29666.63700000002,
      "d": 69.44437499999913,
      "v": 100
    },
    {
      "midi": 46,
      "hit": false,
      "t": 29777.747999999927,
      "d": 138.88874999999825,
      "v": 100
    },
    {
      "midi": 44,
      "hit": false,
      "t": 29777.747999999978,
      "d": 69.44437499999913,
      "v": 100
    },
    {
      "midi": 38,
      "hit": false,
      "t": 29777.747999999978,
      "d": 69.44437499999913,
      "v": 100
    },
    {
      "midi": 79,
      "hit": false,
      "t": 29777.74800000002,
      "d": 69.44437499999913,
      "v": 100
    },
    {
      "midi": 27,
      "hit": false,
      "t": 29888.85899999998,
      "d": 212.96274999999878,
      "v": 127
    },
    {
      "midi": 44,
      "hit": false,
      "t": 29888.85899999998,
      "d": 69.44437499999913,
      "v": 100
    },
    {
      "midi": 78,
      "hit": false,
      "t": 29888.859000000022,
      "d": 69.44437499999913,
      "v": 100
    },
    {
      "midi": 45,
      "hit": false,
      "t": 29999.969999999925,
      "d": 138.88874999999825,
      "v": 100
    },
    {
      "midi": 36,
      "hit": false,
      "t": 29999.969999999943,
      "d": 69.44437499999913,
      "v": 127
    },
    {
      "midi": 44,
      "hit": false,
      "t": 29999.96999999998,
      "d": 69.44437499999913,
      "v": 100
    },
    {
      "midi": 76,
      "hit": false,
      "t": 29999.970000000023,
      "d": 69.44437499999913,
      "v": 100
    },
    {
      "midi": 36,
      "hit": false,
      "t": 30111.080999999944,
      "d": 69.44437499999913,
      "v": 127
    },
    {
      "midi": 44,
      "hit": false,
      "t": 30111.08099999998,
      "d": 69.44437499999913,
      "v": 100
    },
    {
      "midi": 71,
      "hit": false,
      "t": 30111.081000000024,
      "d": 675.9252500000002,
      "v": 100
    },
    {
      "midi": 36,
      "hit": false,
      "t": 30222.191999999945,
      "d": 138.88874999999825,
      "v": 127
    },
    {
      "midi": 44,
      "hit": false,
      "t": 30222.19199999998,
      "d": 69.44437499999913,
      "v": 100
    },
    {
      "midi": 40,
      "hit": false,
      "t": 30333.302999999923,
      "d": 212.96274999999878,
      "v": 100
    },
    {
      "midi": 44,
      "hit": false,
      "t": 30333.30299999998,
      "d": 69.44437499999913,
      "v": 100
    },
    {
      "midi": 38,
      "hit": false,
      "t": 30333.30299999998,
      "d": 69.44437499999913,
      "v": 100
    },
    {
      "midi": 36,
      "hit": false,
      "t": 30444.413999999942,
      "d": 69.44437499999913,
      "v": 127
    },
    {
      "midi": 44,
      "hit": false,
      "t": 30444.413999999982,
      "d": 138.88874999999825,
      "v": 100
    },
    {
      "midi": 64,
      "hit": false,
      "t": 30444.41400000001,
      "d": 291.6663750000007,
      "v": 100
    },
    {
      "midi": 36,
      "hit": false,
      "t": 30555.524999999943,
      "d": 69.44437499999913,
      "v": 127
    },
    {
      "midi": 43,
      "hit": false,
      "t": 30666.635999999922,
      "d": 138.88874999999825,
      "v": 100
    },
    {
      "midi": 44,
      "hit": false,
      "t": 30666.63599999998,
      "d": 69.44437499999913,
      "v": 100
    },
    {
      "midi": 38,
      "hit": false,
      "t": 30666.63599999998,
      "d": 69.44437499999913,
      "v": 100
    },
    {
      "midi": 44,
      "hit": false,
      "t": 30777.74699999998,
      "d": 69.44437499999913,
      "v": 100
    },
    {
      "midi": 67,
      "hit": false,
      "t": 30777.747000000014,
      "d": 212.96274999999878,
      "v": 100
    },
    {
      "midi": 43,
      "hit": false,
      "t": 30888.85799999992,
      "d": 138.88874999999825,
      "v": 100
    },
    {
      "midi": 36,
      "hit": false,
      "t": 30888.857999999942,
      "d": 69.44437499999913,
      "v": 127
    },
    {
      "midi": 44,
      "hit": false,
      "t": 30888.857999999982,
      "d": 69.44437499999913,
      "v": 100
    },
    {
      "midi": 36,
      "hit": false,
      "t": 30999.968999999943,
      "d": 69.44437499999913,
      "v": 127
    },
    {
      "midi": 44,
      "hit": false,
      "t": 30999.968999999983,
      "d": 69.44437499999913,
      "v": 100
    },
    {
      "midi": 38,
      "hit": false,
      "t": 30999.968999999983,
      "d": 69.44437499999913,
      "v": 100
    },
    {
      "midi": 45,
      "hit": false,
      "t": 31111.079999999918,
      "d": 138.88874999999825,
      "v": 100
    },
    {
      "midi": 36,
      "hit": false,
      "t": 31111.079999999944,
      "d": 212.96274999999878,
      "v": 127
    },
    {
      "midi": 44,
      "hit": false,
      "t": 31111.079999999984,
      "d": 69.44437499999913,
      "v": 100
    },
    {
      "midi": 74,
      "hit": false,
      "t": 31111.080000000013,
      "d": 3231.4782500000038,
      "v": 100
    },
    {
      "midi": 69,
      "hit": false,
      "t": 31111.080000000024,
      "d": 212.96274999999878,
      "v": 100
    },
    {
      "midi": 44,
      "hit": false,
      "t": 31222.190999999984,
      "d": 69.44437499999913,
      "v": 100
    },
    {
      "midi": 38,
      "hit": false,
      "t": 31222.190999999984,
      "d": 69.44437499999913,
      "v": 100
    },
    {
      "midi": 45,
      "hit": false,
      "t": 31333.301999999916,
      "d": 138.88874999999825,
      "v": 100
    },
    {
      "midi": 44,
      "hit": false,
      "t": 31333.301999999985,
      "d": 138.88874999999825,
      "v": 100
    },
    {
      "midi": 36,
      "hit": false,
      "t": 31444.412999999942,
      "d": 69.44437499999913,
      "v": 127
    },
    {
      "midi": 67,
      "hit": false,
      "t": 31444.413000000022,
      "d": 249.99974999999904,
      "v": 100
    },
    {
      "midi": 50,
      "hit": false,
      "t": 31555.523999999914,
      "d": 69.44437499999913,
      "v": 100
    },
    {
      "midi": 44,
      "hit": false,
      "t": 31555.523999999983,
      "d": 69.44437499999913,
      "v": 100
    },
    {
      "midi": 38,
      "hit": false,
      "t": 31555.523999999983,
      "d": 69.44437499999913,
      "v": 100
    },
    {
      "midi": 52,
      "hit": false,
      "t": 31666.634999999915,
      "d": 69.44437499999913,
      "v": 100
    },
    {
      "midi": 44,
      "hit": false,
      "t": 31666.634999999984,
      "d": 69.44437499999913,
      "v": 100
    },
    {
      "midi": 38,
      "hit": false,
      "t": 31666.634999999984,
      "d": 69.44437499999913,
      "v": 100
    },
    {
      "midi": 45,
      "hit": false,
      "t": 31777.745999999916,
      "d": 69.44437499999913,
      "v": 100
    },
    {
      "midi": 36,
      "hit": false,
      "t": 31777.74599999994,
      "d": 138.88874999999825,
      "v": 127
    },
    {
      "midi": 44,
      "hit": false,
      "t": 31777.745999999985,
      "d": 69.44437499999913,
      "v": 100
    },
    {
      "midi": 74,
      "hit": false,
      "t": 31777.74600000002,
      "d": 138.88874999999825,
      "v": 100
    },
    {
      "midi": 47,
      "hit": false,
      "t": 31888.856999999916,
      "d": 69.44437499999913,
      "v": 100
    },
    {
      "midi": 38,
      "hit": false,
      "t": 31888.856999999985,
      "d": 69.44437499999913,
      "v": 100
    },
    {
      "midi": 40,
      "hit": false,
      "t": 31999.967999999917,
      "d": 212.96274999999878,
      "v": 100
    },
    {
      "midi": 36,
      "hit": false,
      "t": 31999.96799999994,
      "d": 138.88874999999825,
      "v": 127
    },
    {
      "midi": 49,
      "hit": false,
      "t": 31999.967999999986,
      "d": 69.44437499999913,
      "v": 100
    },
    {
      "midi": 44,
      "hit": false,
      "t": 31999.967999999986,
      "d": 69.44437499999913,
      "v": 100
    },
    {
      "midi": 73,
      "hit": false,
      "t": 31999.96800000002,
      "d": 1314.8135000000002,
      "v": 100
    },
    {
      "midi": 73,
      "hit": false,
      "t": 31999.96800000002,
      "d": 3555.5519999999997,
      "v": 100
    },
    {
      "midi": 71,
      "hit": false,
      "t": 31999.96800000002,
      "d": 3555.5519999999997,
      "v": 100
    },
    {
      "midi": 44,
      "hit": false,
      "t": 32111.078999999987,
      "d": 69.44437499999913,
      "v": 100
    },
    {
      "midi": 36,
      "hit": false,
      "t": 32222.189999999937,
      "d": 69.44437499999913,
      "v": 127
    },
    {
      "midi": 44,
      "hit": false,
      "t": 32222.189999999988,
      "d": 138.88874999999825,
      "v": 100
    },
    {
      "midi": 40,
      "hit": false,
      "t": 32333.300999999916,
      "d": 69.44437499999913,
      "v": 100
    },
    {
      "midi": 36,
      "hit": false,
      "t": 32333.300999999938,
      "d": 69.44437499999913,
      "v": 127
    },
    {
      "midi": 43,
      "hit": false,
      "t": 32444.411999999917,
      "d": 138.88874999999825,
      "v": 100
    },
    {
      "midi": 44,
      "hit": false,
      "t": 32444.411999999986,
      "d": 69.44437499999913,
      "v": 100
    },
    {
      "midi": 38,
      "hit": false,
      "t": 32444.411999999986,
      "d": 69.44437499999913,
      "v": 100
    },
    {
      "midi": 27,
      "hit": false,
      "t": 32555.52299999998,
      "d": 212.96274999999878,
      "v": 127
    },
    {
      "midi": 44,
      "hit": false,
      "t": 32555.522999999986,
      "d": 69.44437499999913,
      "v": 100
    },
    {
      "midi": 43,
      "hit": false,
      "t": 32666.633999999915,
      "d": 138.8887500000019,
      "v": 100
    },
    {
      "midi": 36,
      "hit": false,
      "t": 32666.633999999936,
      "d": 69.44437499999913,
      "v": 127
    },
    {
      "midi": 44,
      "hit": false,
      "t": 32666.633999999987,
      "d": 69.44437499999913,
      "v": 100
    },
    {
      "midi": 36,
      "hit": false,
      "t": 32777.74499999994,
      "d": 69.44437499999913,
      "v": 127
    },
    {
      "midi": 44,
      "hit": false,
      "t": 32777.74499999999,
      "d": 69.44437499999913,
      "v": 100
    },
    {
      "midi": 38,
      "hit": false,
      "t": 32777.74499999999,
      "d": 69.44437499999913,
      "v": 100
    },
    {
      "midi": 45,
      "hit": false,
      "t": 32888.85599999992,
      "d": 138.88874999999825,
      "v": 100
    },
    {
      "midi": 36,
      "hit": false,
      "t": 32888.855999999934,
      "d": 212.96274999999878,
      "v": 127
    },
    {
      "midi": 44,
      "hit": false,
      "t": 32888.855999999985,
      "d": 69.44437499999913,
      "v": 100
    },
    {
      "midi": 44,
      "hit": false,
      "t": 32999.96699999998,
      "d": 69.44437499999913,
      "v": 100
    },
    {
      "midi": 38,
      "hit": false,
      "t": 32999.96699999998,
      "d": 69.44437499999913,
      "v": 100
    },
    {
      "midi": 45,
      "hit": false,
      "t": 33111.07799999992,
      "d": 138.88874999999825,
      "v": 100
    },
    {
      "midi": 44,
      "hit": false,
      "t": 33111.07799999998,
      "d": 138.88874999999825,
      "v": 100
    },
    {
      "midi": 36,
      "hit": false,
      "t": 33222.18899999993,
      "d": 69.44437499999913,
      "v": 127
    },
    {
      "midi": 46,
      "hit": false,
      "t": 33333.29999999992,
      "d": 138.88874999999825,
      "v": 100
    },
    {
      "midi": 39,
      "hit": false,
      "t": 33333.29999999998,
      "d": 282.4071249999979,
      "v": 127
    },
    {
      "midi": 44,
      "hit": false,
      "t": 33333.29999999998,
      "d": 69.44437499999913,
      "v": 100
    },
    {
      "midi": 38,
      "hit": false,
      "t": 33333.29999999998,
      "d": 69.44437499999913,
      "v": 100
    },
    {
      "midi": 44,
      "hit": false,
      "t": 33444.41099999998,
      "d": 69.44437499999913,
      "v": 100
    },
    {
      "midi": 45,
      "hit": false,
      "t": 33555.521999999924,
      "d": 138.88874999999825,
      "v": 100
    },
    {
      "midi": 36,
      "hit": false,
      "t": 33555.52199999993,
      "d": 69.44437499999913,
      "v": 127
    },
    {
      "midi": 44,
      "hit": false,
      "t": 33555.521999999975,
      "d": 69.44437499999913,
      "v": 100
    },
    {
      "midi": 73,
      "hit": false,
      "t": 33555.52200000002,
      "d": 69.44437499999913,
      "v": 100
    },
    {
      "midi": 36,
      "hit": false,
      "t": 33666.63299999993,
      "d": 69.44437499999913,
      "v": 127
    },
    {
      "midi": 44,
      "hit": false,
      "t": 33666.63299999997,
      "d": 69.44437499999913,
      "v": 100
    },
    {
      "midi": 74,
      "hit": false,
      "t": 33666.633000000016,
      "d": 69.44437499999913,
      "v": 100
    },
    {
      "midi": 36,
      "hit": false,
      "t": 33777.743999999926,
      "d": 138.88874999999825,
      "v": 127
    },
    {
      "midi": 44,
      "hit": false,
      "t": 33777.74399999997,
      "d": 69.44437499999913,
      "v": 100
    },
    {
      "midi": 76,
      "hit": false,
      "t": 33777.74400000001,
      "d": 1134.2581250000003,
      "v": 100
    },
    {
      "midi": 40,
      "hit": false,
      "t": 33888.85499999992,
      "d": 212.96274999999878,
      "v": 100
    },
    {
      "midi": 44,
      "hit": false,
      "t": 33888.85499999997,
      "d": 69.44437499999913,
      "v": 100
    },
    {
      "midi": 38,
      "hit": false,
      "t": 33888.85499999997,
      "d": 69.44437499999913,
      "v": 100
    },
    {
      "midi": 36,
      "hit": false,
      "t": 33999.96599999993,
      "d": 69.44437499999913,
      "v": 127
    },
    {
      "midi": 44,
      "hit": false,
      "t": 33999.965999999964,
      "d": 138.88874999999825,
      "v": 100
    },
    {
      "midi": 36,
      "hit": false,
      "t": 34111.076999999925,
      "d": 69.44437499999913,
      "v": 127
    },
    {
      "midi": 43,
      "hit": false,
      "t": 34222.18799999992,
      "d": 138.88874999999825,
      "v": 100
    },
    {
      "midi": 44,
      "hit": false,
      "t": 34222.187999999966,
      "d": 69.44437499999913,
      "v": 100
    },
    {
      "midi": 38,
      "hit": false,
      "t": 34222.187999999966,
      "d": 69.44437499999913,
      "v": 100
    },
    {
      "midi": 44,
      "hit": false,
      "t": 34333.29899999996,
      "d": 69.44437499999913,
      "v": 100
    },
    {
      "midi": 27,
      "hit": false,
      "t": 34333.29899999998,
      "d": 212.96274999999878,
      "v": 127
    },
    {
      "midi": 43,
      "hit": false,
      "t": 34444.40999999992,
      "d": 138.88874999999825,
      "v": 100
    },
    {
      "midi": 36,
      "hit": false,
      "t": 34444.40999999992,
      "d": 69.44437499999913,
      "v": 127
    },
    {
      "midi": 44,
      "hit": false,
      "t": 34444.40999999996,
      "d": 69.44437499999913,
      "v": 100
    },
    {
      "midi": 36,
      "hit": false,
      "t": 34555.52099999992,
      "d": 69.44437499999913,
      "v": 127
    },
    {
      "midi": 44,
      "hit": false,
      "t": 34555.52099999996,
      "d": 69.44437499999913,
      "v": 100
    },
    {
      "midi": 38,
      "hit": false,
      "t": 34555.52099999996,
      "d": 69.44437499999913,
      "v": 100
    },
    {
      "midi": 36,
      "hit": false,
      "t": 34666.63199999992,
      "d": 212.96274999999878,
      "v": 127
    },
    {
      "midi": 45,
      "hit": false,
      "t": 34666.631999999925,
      "d": 138.88874999999825,
      "v": 100
    },
    {
      "midi": 44,
      "hit": false,
      "t": 34666.631999999954,
      "d": 69.44437499999913,
      "v": 100
    },
    {
      "midi": 76,
      "hit": false,
      "t": 34666.63200000002,
      "d": 69.44437499999913,
      "v": 100
    },
    {
      "midi": 44,
      "hit": false,
      "t": 34777.74299999995,
      "d": 69.44437499999913,
      "v": 100
    },
    {
      "midi": 38,
      "hit": false,
      "t": 34777.74299999995,
      "d": 69.44437499999913,
      "v": 100
    },
    {
      "midi": 83,
      "hit": false,
      "t": 34777.74300000002,
      "d": 69.44437499999913,
      "v": 100
    },
    {
      "midi": 45,
      "hit": false,
      "t": 34888.85399999993,
      "d": 138.88874999999825,
      "v": 100
    },
    {
      "midi": 44,
      "hit": false,
      "t": 34888.85399999995,
      "d": 138.88874999999825,
      "v": 100
    },
    {
      "midi": 78,
      "hit": false,
      "t": 34888.854000000014,
      "d": 69.44437499999913,
      "v": 100
    },
    {
      "midi": 36,
      "hit": false,
      "t": 34999.96499999992,
      "d": 69.44437499999913,
      "v": 127
    },
    {
      "midi": 79,
      "hit": false,
      "t": 34999.96500000001,
      "d": 69.44437499999913,
      "v": 100
    },
    {
      "midi": 50,
      "hit": false,
      "t": 35111.07599999993,
      "d": 69.44437499999913,
      "v": 100
    },
    {
      "midi": 44,
      "hit": false,
      "t": 35111.07599999995,
      "d": 69.44437499999913,
      "v": 100
    },
    {
      "midi": 38,
      "hit": false,
      "t": 35111.07599999995,
      "d": 69.44437499999913,
      "v": 100
    },
    {
      "midi": 81,
      "hit": false,
      "t": 35111.07600000001,
      "d": 69.44437499999913,
      "v": 100
    },
    {
      "midi": 52,
      "hit": false,
      "t": 35222.186999999925,
      "d": 69.44437499999913,
      "v": 100
    },
    {
      "midi": 44,
      "hit": false,
      "t": 35222.18699999995,
      "d": 69.44437499999913,
      "v": 100
    },
    {
      "midi": 38,
      "hit": false,
      "t": 35222.18699999995,
      "d": 69.44437499999913,
      "v": 100
    },
    {
      "midi": 79,
      "hit": false,
      "t": 35222.187000000005,
      "d": 69.44437499999913,
      "v": 100
    },
    {
      "midi": 36,
      "hit": false,
      "t": 35333.297999999915,
      "d": 138.88874999999825,
      "v": 127
    },
    {
      "midi": 45,
      "hit": false,
      "t": 35333.29799999992,
      "d": 69.44437499999913,
      "v": 100
    },
    {
      "midi": 44,
      "hit": false,
      "t": 35333.297999999944,
      "d": 69.44437499999913,
      "v": 100
    },
    {
      "midi": 78,
      "hit": false,
      "t": 35333.298,
      "d": 69.44437499999913,
      "v": 100
    },
    {
      "midi": 47,
      "hit": false,
      "t": 35444.40899999992,
      "d": 69.44437499999913,
      "v": 100
    },
    {
      "midi": 38,
      "hit": false,
      "t": 35444.40899999994,
      "d": 69.44437499999913,
      "v": 100
    },
    {
      "midi": 76,
      "hit": false,
      "t": 35444.409,
      "d": 2027.7757500000007,
      "v": 100
    },
    {
      "midi": 40,
      "hit": false,
      "t": 35555.51999999992,
      "d": 212.96274999999878,
      "v": 100
    },
    {
      "midi": 36,
      "hit": false,
      "t": 35555.51999999992,
      "d": 138.88874999999825,
      "v": 127
    },
    {
      "midi": 49,
      "hit": false,
      "t": 35555.51999999994,
      "d": 69.44437499999913,
      "v": 100
    },
    {
      "midi": 44,
      "hit": false,
      "t": 35555.51999999994,
      "d": 69.44437499999913,
      "v": 100
    },
    {
      "midi": 74,
      "hit": false,
      "t": 35555.52000000002,
      "d": 3555.5520000000033,
      "v": 100
    },
    {
      "midi": 71,
      "hit": false,
      "t": 35555.52000000002,
      "d": 3555.5520000000033,
      "v": 100
    },
    {
      "midi": 44,
      "hit": false,
      "t": 35666.630999999936,
      "d": 69.44437499999913,
      "v": 100
    },
    {
      "midi": 36,
      "hit": false,
      "t": 35777.74199999992,
      "d": 69.44437499999913,
      "v": 127
    },
    {
      "midi": 44,
      "hit": false,
      "t": 35777.74199999993,
      "d": 138.88874999999825,
      "v": 100
    },
    {
      "midi": 40,
      "hit": false,
      "t": 35888.852999999915,
      "d": 69.44437499999913,
      "v": 100
    },
    {
      "midi": 36,
      "hit": false,
      "t": 35888.852999999915,
      "d": 69.44437499999913,
      "v": 127
    },
    {
      "midi": 43,
      "hit": false,
      "t": 35999.96399999991,
      "d": 138.88874999999825,
      "v": 100
    },
    {
      "midi": 44,
      "hit": false,
      "t": 35999.963999999934,
      "d": 69.44437499999913,
      "v": 100
    },
    {
      "midi": 38,
      "hit": false,
      "t": 35999.963999999934,
      "d": 69.44437499999913,
      "v": 100
    },
    {
      "midi": 79,
      "hit": false,
      "t": 35999.964000000014,
      "d": 69.44437499999913,
      "v": 100
    },
    {
      "midi": 44,
      "hit": false,
      "t": 36111.07499999993,
      "d": 69.44437499999913,
      "v": 100
    },
    {
      "midi": 78,
      "hit": false,
      "t": 36111.07500000001,
      "d": 69.44437499999913,
      "v": 100
    },
    {
      "midi": 43,
      "hit": false,
      "t": 36222.185999999914,
      "d": 138.88874999999825,
      "v": 100
    },
    {
      "midi": 36,
      "hit": false,
      "t": 36222.185999999914,
      "d": 69.44437499999913,
      "v": 127
    },
    {
      "midi": 44,
      "hit": false,
      "t": 36222.18599999993,
      "d": 69.44437499999913,
      "v": 100
    },
    {
      "midi": 74,
      "hit": false,
      "t": 36222.18600000001,
      "d": 69.44437499999913,
      "v": 100
    },
    {
      "midi": 36,
      "hit": false,
      "t": 36333.29699999991,
      "d": 69.44437499999913,
      "v": 127
    },
    {
      "midi": 44,
      "hit": false,
      "t": 36333.296999999926,
      "d": 69.44437499999913,
      "v": 100
    },
    {
      "midi": 38,
      "hit": false,
      "t": 36333.296999999926,
      "d": 69.44437499999913,
      "v": 100
    },
    {
      "midi": 71,
      "hit": false,
      "t": 36333.297000000006,
      "d": 1564.8132499999992,
      "v": 100
    },
    {
      "midi": 36,
      "hit": false,
      "t": 36444.40799999991,
      "d": 212.96274999999878,
      "v": 127
    },
    {
      "midi": 45,
      "hit": false,
      "t": 36444.407999999916,
      "d": 138.88874999999825,
      "v": 100
    },
    {
      "midi": 44,
      "hit": false,
      "t": 36444.40799999992,
      "d": 69.44437499999913,
      "v": 100
    },
    {
      "midi": 44,
      "hit": false,
      "t": 36555.51899999992,
      "d": 69.44437499999913,
      "v": 100
    },
    {
      "midi": 38,
      "hit": false,
      "t": 36555.51899999992,
      "d": 69.44437499999913,
      "v": 100
    },
    {
      "midi": 45,
      "hit": false,
      "t": 36666.62999999992,
      "d": 138.88874999999825,
      "v": 100
    },
    {
      "midi": 44,
      "hit": false,
      "t": 36666.62999999992,
      "d": 138.88874999999825,
      "v": 100
    },
    {
      "midi": 36,
      "hit": false,
      "t": 36777.74099999991,
      "d": 69.44437499999913,
      "v": 127
    },
    {
      "midi": 46,
      "hit": false,
      "t": 36888.85199999992,
      "d": 138.88874999999825,
      "v": 100
    },
    {
      "midi": 44,
      "hit": false,
      "t": 36888.85199999992,
      "d": 69.44437499999913,
      "v": 100
    },
    {
      "midi": 38,
      "hit": false,
      "t": 36888.85199999992,
      "d": 69.44437499999913,
      "v": 100
    },
    {
      "midi": 44,
      "hit": false,
      "t": 36999.962999999916,
      "d": 69.44437499999913,
      "v": 100
    },
    {
      "midi": 27,
      "hit": false,
      "t": 36999.962999999974,
      "d": 212.96274999999878,
      "v": 127
    },
    {
      "midi": 36,
      "hit": false,
      "t": 37111.073999999906,
      "d": 69.44437499999913,
      "v": 127
    },
    {
      "midi": 44,
      "hit": false,
      "t": 37111.07399999991,
      "d": 69.44437499999913,
      "v": 100
    },
    {
      "midi": 45,
      "hit": false,
      "t": 37111.07399999992,
      "d": 138.88874999999825,
      "v": 100
    },
    {
      "midi": 36,
      "hit": false,
      "t": 37222.1849999999,
      "d": 69.44437499999913,
      "v": 127
    },
    {
      "midi": 44,
      "hit": false,
      "t": 37222.18499999991,
      "d": 69.44437499999913,
      "v": 100
    },
    {
      "midi": 36,
      "hit": false,
      "t": 37333.2959999999,
      "d": 138.88874999999825,
      "v": 127
    },
    {
      "midi": 44,
      "hit": false,
      "t": 37333.29599999991,
      "d": 69.44437499999913,
      "v": 100
    },
    {
      "midi": 44,
      "hit": false,
      "t": 37444.406999999905,
      "d": 69.44437499999913,
      "v": 100
    },
    {
      "midi": 38,
      "hit": false,
      "t": 37444.406999999905,
      "d": 69.44437499999913,
      "v": 100
    },
    {
      "midi": 40,
      "hit": false,
      "t": 37444.40699999992,
      "d": 212.96274999999878,
      "v": 100
    },
    {
      "midi": 36,
      "hit": false,
      "t": 37555.5179999999,
      "d": 69.44437499999913,
      "v": 127
    },
    {
      "midi": 44,
      "hit": false,
      "t": 37555.5179999999,
      "d": 138.88874999999825,
      "v": 100
    },
    {
      "midi": 64,
      "hit": false,
      "t": 37555.518000000004,
      "d": 291.6663750000007,
      "v": 100
    },
    {
      "midi": 36,
      "hit": false,
      "t": 37666.6289999999,
      "d": 69.44437499999913,
      "v": 127
    },
    {
      "midi": 44,
      "hit": false,
      "t": 37777.7399999999,
      "d": 69.44437499999913,
      "v": 100
    },
    {
      "midi": 38,
      "hit": false,
      "t": 37777.7399999999,
      "d": 69.44437499999913,
      "v": 100
    },
    {
      "midi": 43,
      "hit": false,
      "t": 37777.73999999992,
      "d": 138.88874999999825,
      "v": 100
    },
    {
      "midi": 39,
      "hit": false,
      "t": 37777.739999999976,
      "d": 282.4071249999979,
      "v": 127
    },
    {
      "midi": 44,
      "hit": false,
      "t": 37888.8509999999,
      "d": 69.44437499999913,
      "v": 100
    },
    {
      "midi": 67,
      "hit": false,
      "t": 37888.851,
      "d": 212.96274999999878,
      "v": 100
    },
    {
      "midi": 36,
      "hit": false,
      "t": 37999.9619999999,
      "d": 69.44437499999913,
      "v": 127
    },
    {
      "midi": 44,
      "hit": false,
      "t": 37999.9619999999,
      "d": 69.44437499999913,
      "v": 100
    },
    {
      "midi": 43,
      "hit": false,
      "t": 37999.96199999992,
      "d": 138.88874999999825,
      "v": 100
    },
    {
      "midi": 36,
      "hit": false,
      "t": 38111.072999999895,
      "d": 69.44437499999913,
      "v": 127
    },
    {
      "midi": 44,
      "hit": false,
      "t": 38111.072999999895,
      "d": 69.44437499999913,
      "v": 100
    },
    {
      "midi": 38,
      "hit": false,
      "t": 38111.072999999895,
      "d": 69.44437499999913,
      "v": 100
    },
    {
      "midi": 36,
      "hit": false,
      "t": 38222.18399999989,
      "d": 212.96274999999878,
      "v": 127
    },
    {
      "midi": 44,
      "hit": false,
      "t": 38222.18399999989,
      "d": 69.44437499999913,
      "v": 100
    },
    {
      "midi": 45,
      "hit": false,
      "t": 38222.18399999992,
      "d": 138.88874999999825,
      "v": 100
    },
    {
      "midi": 74,
      "hit": false,
      "t": 38222.184,
      "d": 3800.9221249999973,
      "v": 100
    },
    {
      "midi": 75,
      "hit": false,
      "t": 38222.18400000001,
      "d": 32.4073750000025,
      "v": 80
    },
    {
      "midi": 76,
      "hit": false,
      "t": 38277.73950000001,
      "d": 194.44425000000047,
      "v": 100
    },
    {
      "midi": 44,
      "hit": false,
      "t": 38333.29499999989,
      "d": 69.44437499999913,
      "v": 100
    },
    {
      "midi": 38,
      "hit": false,
      "t": 38333.29499999989,
      "d": 69.44437499999913,
      "v": 100
    },
    {
      "midi": 44,
      "hit": false,
      "t": 38444.405999999886,
      "d": 138.88874999999825,
      "v": 100
    },
    {
      "midi": 45,
      "hit": false,
      "t": 38444.40599999992,
      "d": 138.88874999999825,
      "v": 100
    },
    {
      "midi": 36,
      "hit": false,
      "t": 38555.51699999989,
      "d": 69.44437499999913,
      "v": 127
    },
    {
      "midi": 78,
      "hit": false,
      "t": 38555.517000000014,
      "d": 249.99975000000268,
      "v": 100
    },
    {
      "midi": 44,
      "hit": false,
      "t": 38666.62799999989,
      "d": 69.44437499999913,
      "v": 100
    },
    {
      "midi": 38,
      "hit": false,
      "t": 38666.62799999989,
      "d": 69.44437499999913,
      "v": 100
    },
    {
      "midi": 50,
      "hit": false,
      "t": 38666.627999999924,
      "d": 69.44437499999913,
      "v": 100
    },
    {
      "midi": 44,
      "hit": false,
      "t": 38777.738999999885,
      "d": 69.44437499999913,
      "v": 100
    },
    {
      "midi": 38,
      "hit": false,
      "t": 38777.738999999885,
      "d": 69.44437499999913,
      "v": 100
    },
    {
      "midi": 52,
      "hit": false,
      "t": 38777.73899999992,
      "d": 69.44437499999913,
      "v": 100
    },
    {
      "midi": 27,
      "hit": false,
      "t": 38777.73899999997,
      "d": 212.96274999999878,
      "v": 127
    },
    {
      "midi": 44,
      "hit": false,
      "t": 38888.84999999988,
      "d": 69.44437499999913,
      "v": 100
    },
    {
      "midi": 36,
      "hit": false,
      "t": 38888.84999999989,
      "d": 138.88874999999825,
      "v": 127
    },
    {
      "midi": 45,
      "hit": false,
      "t": 38888.84999999992,
      "d": 69.44437499999913,
      "v": 100
    },
    {
      "midi": 79,
      "hit": false,
      "t": 38888.85000000002,
      "d": 138.88874999999825,
      "v": 100
    },
    {
      "midi": 38,
      "hit": false,
      "t": 38999.96099999988,
      "d": 69.44437499999913,
      "v": 100
    },
    {
      "midi": 47,
      "hit": false,
      "t": 38999.960999999916,
      "d": 69.44437499999913,
      "v": 100
    },
    {
      "midi": 49,
      "hit": false,
      "t": 39111.07199999988,
      "d": 69.44437499999913,
      "v": 100
    },
    {
      "midi": 44,
      "hit": false,
      "t": 39111.07199999988,
      "d": 69.44437499999913,
      "v": 100
    },
    {
      "midi": 36,
      "hit": false,
      "t": 39111.07199999989,
      "d": 138.88874999999825,
      "v": 127
    },
    {
      "midi": 40,
      "hit": false,
      "t": 39111.07199999991,
      "d": 212.96274999999878,
      "v": 100
    },
    {
      "midi": 81,
      "hit": false,
      "t": 39111.07200000002,
      "d": 851.8510000000024,
      "v": 100
    },
    {
      "midi": 73,
      "hit": false,
      "t": 39111.07200000002,
      "d": 3555.5520000000033,
      "v": 100
    },
    {
      "midi": 71,
      "hit": false,
      "t": 39111.07200000002,
      "d": 3555.5520000000033,
      "v": 100
    },
    {
      "midi": 44,
      "hit": false,
      "t": 39222.18299999987,
      "d": 69.44437499999913,
      "v": 100
    },
    {
      "midi": 44,
      "hit": false,
      "t": 39333.29399999987,
      "d": 138.88874999999825,
      "v": 100
    },
    {
      "midi": 36,
      "hit": false,
      "t": 39333.29399999989,
      "d": 69.44437499999913,
      "v": 127
    },
    {
      "midi": 36,
      "hit": false,
      "t": 39444.40499999989,
      "d": 69.44437499999913,
      "v": 127
    },
    {
      "midi": 40,
      "hit": false,
      "t": 39444.40499999991,
      "d": 69.44437499999913,
      "v": 100
    },
    {
      "midi": 44,
      "hit": false,
      "t": 39555.51599999987,
      "d": 69.44437499999913,
      "v": 100
    },
    {
      "midi": 38,
      "hit": false,
      "t": 39555.51599999987,
      "d": 69.44437499999913,
      "v": 100
    },
    {
      "midi": 43,
      "hit": false,
      "t": 39555.51599999991,
      "d": 138.88874999999825,
      "v": 100
    },
    {
      "midi": 44,
      "hit": false,
      "t": 39666.62699999987,
      "d": 69.44437499999913,
      "v": 100
    },
    {
      "midi": 44,
      "hit": false,
      "t": 39777.73799999987,
      "d": 69.44437499999913,
      "v": 100
    },
    {
      "midi": 36,
      "hit": false,
      "t": 39777.73799999989,
      "d": 69.44437499999913,
      "v": 127
    },
    {
      "midi": 43,
      "hit": false,
      "t": 39777.73799999991,
      "d": 138.88874999999825,
      "v": 100
    },
    {
      "midi": 44,
      "hit": false,
      "t": 39888.848999999864,
      "d": 69.44437499999913,
      "v": 100
    },
    {
      "midi": 38,
      "hit": false,
      "t": 39888.848999999864,
      "d": 69.44437499999913,
      "v": 100
    },
    {
      "midi": 36,
      "hit": false,
      "t": 39888.848999999886,
      "d": 69.44437499999913,
      "v": 127
    },
    {
      "midi": 44,
      "hit": false,
      "t": 39999.95999999986,
      "d": 69.44437499999913,
      "v": 100
    },
    {
      "midi": 36,
      "hit": false,
      "t": 39999.95999999988,
      "d": 212.96274999999878,
      "v": 127
    },
    {
      "midi": 45,
      "hit": false,
      "t": 39999.95999999991,
      "d": 138.88874999999825,
      "v": 100
    },
    {
      "midi": 44,
      "hit": false,
      "t": 40111.07099999986,
      "d": 69.44437499999913,
      "v": 100
    },
    {
      "midi": 38,
      "hit": false,
      "t": 40111.07099999986,
      "d": 69.44437499999913,
      "v": 100
    },
    {
      "midi": 44,
      "hit": false,
      "t": 40222.181999999855,
      "d": 138.88874999999825,
      "v": 100
    },
    {
      "midi": 45,
      "hit": false,
      "t": 40222.18199999991,
      "d": 138.88874999999825,
      "v": 100
    },
    {
      "midi": 36,
      "hit": false,
      "t": 40333.29299999988,
      "d": 69.44437499999913,
      "v": 127
    },
    {
      "midi": 44,
      "hit": false,
      "t": 40444.40399999986,
      "d": 69.44437499999913,
      "v": 100
    },
    {
      "midi": 38,
      "hit": false,
      "t": 40444.40399999986,
      "d": 69.44437499999913,
      "v": 100
    },
    {
      "midi": 46,
      "hit": false,
      "t": 40444.403999999915,
      "d": 138.88874999999825,
      "v": 100
    },
    {
      "midi": 80,
      "hit": false,
      "t": 40444.404000000024,
      "d": 32.4073750000025,
      "v": 80
    },
    {
      "midi": 81,
      "hit": false,
      "t": 40499.959500000026,
      "d": 32.4073750000025,
      "v": 100
    },
    {
      "midi": 44,
      "hit": false,
      "t": 40555.514999999854,
      "d": 69.44437499999913,
      "v": 100
    },
    {
      "midi": 83,
      "hit": false,
      "t": 40555.51500000003,
      "d": 69.44437499999913,
      "v": 100
    },
    {
      "midi": 44,
      "hit": false,
      "t": 40666.62599999985,
      "d": 69.44437499999913,
      "v": 100
    },
    {
      "midi": 36,
      "hit": false,
      "t": 40666.62599999988,
      "d": 69.44437499999913,
      "v": 127
    },
    {
      "midi": 45,
      "hit": false,
      "t": 40666.62599999992,
      "d": 138.88874999999825,
      "v": 100
    },
    {
      "midi": 79,
      "hit": false,
      "t": 40666.626000000026,
      "d": 69.44437499999913,
      "v": 100
    },
    {
      "midi": 44,
      "hit": false,
      "t": 40777.73699999985,
      "d": 69.44437499999913,
      "v": 100
    },
    {
      "midi": 36,
      "hit": false,
      "t": 40777.73699999988,
      "d": 69.44437499999913,
      "v": 127
    },
    {
      "midi": 81,
      "hit": false,
      "t": 40777.73700000002,
      "d": 675.9252500000002,
      "v": 100
    },
    {
      "midi": 44,
      "hit": false,
      "t": 40888.847999999845,
      "d": 69.44437499999913,
      "v": 100
    },
    {
      "midi": 36,
      "hit": false,
      "t": 40888.847999999874,
      "d": 138.88874999999825,
      "v": 127
    },
    {
      "midi": 44,
      "hit": false,
      "t": 40999.95899999984,
      "d": 69.44437499999913,
      "v": 100
    },
    {
      "midi": 38,
      "hit": false,
      "t": 40999.95899999984,
      "d": 69.44437499999913,
      "v": 100
    },
    {
      "midi": 40,
      "hit": false,
      "t": 40999.958999999915,
      "d": 212.96274999999878,
      "v": 100
    },
    {
      "midi": 44,
      "hit": false,
      "t": 41111.06999999984,
      "d": 138.88874999999825,
      "v": 100
    },
    {
      "midi": 36,
      "hit": false,
      "t": 41111.069999999876,
      "d": 69.44437499999913,
      "v": 127
    },
    {
      "midi": 36,
      "hit": false,
      "t": 41222.18099999987,
      "d": 69.44437499999913,
      "v": 127
    },
    {
      "midi": 44,
      "hit": false,
      "t": 41333.29199999984,
      "d": 69.44437499999913,
      "v": 100
    },
    {
      "midi": 38,
      "hit": false,
      "t": 41333.29199999984,
      "d": 69.44437499999913,
      "v": 100
    },
    {
      "midi": 43,
      "hit": false,
      "t": 41333.291999999914,
      "d": 138.88874999999825,
      "v": 100
    },
    {
      "midi": 44,
      "hit": false,
      "t": 41444.40299999984,
      "d": 69.44437499999913,
      "v": 100
    },
    {
      "midi": 27,
      "hit": false,
      "t": 41444.40299999997,
      "d": 212.96274999999878,
      "v": 127
    },
    {
      "midi": 44,
      "hit": false,
      "t": 41555.513999999836,
      "d": 69.44437499999913,
      "v": 100
    },
    {
      "midi": 36,
      "hit": false,
      "t": 41555.51399999987,
      "d": 69.44437499999913,
      "v": 127
    },
    {
      "midi": 43,
      "hit": false,
      "t": 41555.513999999916,
      "d": 138.88874999999825,
      "v": 100
    },
    {
      "midi": 44,
      "hit": false,
      "t": 41666.62499999983,
      "d": 69.44437499999913,
      "v": 100
    },
    {
      "midi": 38,
      "hit": false,
      "t": 41666.62499999983,
      "d": 69.44437499999913,
      "v": 100
    },
    {
      "midi": 36,
      "hit": false,
      "t": 41666.62499999987,
      "d": 69.44437499999913,
      "v": 127
    },
    {
      "midi": 44,
      "hit": false,
      "t": 41777.73599999983,
      "d": 69.44437499999913,
      "v": 100
    },
    {
      "midi": 36,
      "hit": false,
      "t": 41777.735999999866,
      "d": 212.96274999999878,
      "v": 127
    },
    {
      "midi": 45,
      "hit": false,
      "t": 41777.73599999992,
      "d": 138.88874999999825,
      "v": 100
    },
    {
      "midi": 79,
      "hit": false,
      "t": 41777.736000000026,
      "d": 69.44437499999913,
      "v": 100
    },
    {
      "midi": 44,
      "hit": false,
      "t": 41888.84699999983,
      "d": 69.44437499999913,
      "v": 100
    },
    {
      "midi": 38,
      "hit": false,
      "t": 41888.84699999983,
      "d": 69.44437499999913,
      "v": 100
    },
    {
      "midi": 78,
      "hit": false,
      "t": 41888.84700000002,
      "d": 69.44437499999913,
      "v": 100
    },
    {
      "midi": 44,
      "hit": false,
      "t": 41999.957999999824,
      "d": 138.88874999999825,
      "v": 100
    },
    {
      "midi": 45,
      "hit": false,
      "t": 41999.95799999992,
      "d": 138.88874999999825,
      "v": 100
    },
    {
      "midi": 76,
      "hit": false,
      "t": 41999.95800000002,
      "d": 69.44437499999913,
      "v": 100
    },
    {
      "midi": 36,
      "hit": false,
      "t": 42111.068999999865,
      "d": 69.44437499999913,
      "v": 127
    },
    {
      "midi": 74,
      "hit": false,
      "t": 42111.06900000002,
      "d": 69.44437499999913,
      "v": 100
    },
    {
      "midi": 44,
      "hit": false,
      "t": 42222.179999999826,
      "d": 69.44437499999913,
      "v": 100
    },
    {
      "midi": 38,
      "hit": false,
      "t": 42222.179999999826,
      "d": 69.44437499999913,
      "v": 100
    },
    {
      "midi": 50,
      "hit": false,
      "t": 42222.17999999992,
      "d": 69.44437499999913,
      "v": 100
    },
    {
      "midi": 39,
      "hit": false,
      "t": 42222.17999999997,
      "d": 282.4071249999979,
      "v": 127
    },
    {
      "midi": 73,
      "hit": false,
      "t": 42222.180000000015,
      "d": 69.44437499999913,
      "v": 100
    },
    {
      "midi": 44,
      "hit": false,
      "t": 42333.29099999982,
      "d": 69.44437499999913,
      "v": 100
    },
    {
      "midi": 38,
      "hit": false,
      "t": 42333.29099999982,
      "d": 69.44437499999913,
      "v": 100
    },
    {
      "midi": 52,
      "hit": false,
      "t": 42333.29099999992,
      "d": 69.44437499999913,
      "v": 100
    },
    {
      "midi": 72,
      "hit": false,
      "t": 42333.29100000001,
      "d": 69.44437499999913,
      "v": 100
    },
    {
      "midi": 44,
      "hit": false,
      "t": 42444.40199999982,
      "d": 69.44437499999913,
      "v": 100
    },
    {
      "midi": 38,
      "hit": false,
      "t": 42444.40199999982,
      "d": 69.44437499999913,
      "v": 100
    },
    {
      "midi": 36,
      "hit": false,
      "t": 42444.40199999986,
      "d": 138.88874999999825,
      "v": 127
    },
    {
      "midi": 45,
      "hit": false,
      "t": 42444.401999999915,
      "d": 69.44437499999913,
      "v": 100
    },
    {
      "midi": 71,
      "hit": false,
      "t": 42444.40200000001,
      "d": 69.44437499999913,
      "v": 100
    },
    {
      "midi": 38,
      "hit": false,
      "t": 42555.51299999982,
      "d": 69.44437499999913,
      "v": 100
    },
    {
      "midi": 47,
      "hit": false,
      "t": 42555.51299999991,
      "d": 69.44437499999913,
      "v": 100
    },
    {
      "midi": 69,
      "hit": false,
      "t": 42555.513000000006,
      "d": 69.44437499999913,
      "v": 100
    },
    {
      "midi": 49,
      "hit": false,
      "t": 42666.623999999814,
      "d": 69.44437499999913,
      "v": 100
    },
    {
      "midi": 44,
      "hit": false,
      "t": 42666.623999999814,
      "d": 69.44437499999913,
      "v": 100
    },
    {
      "midi": 36,
      "hit": false,
      "t": 42666.623999999865,
      "d": 69.44437499999913,
      "v": 127
    },
    {
      "midi": 40,
      "hit": false,
      "t": 42666.62399999991,
      "d": 69.44437499999913,
      "v": 100
    },
    {
      "midi": 88,
      "hit": false,
      "t": 42666.623999999996,
      "d": 69.44437499999913,
      "v": 100
    },
    {
      "midi": 71,
      "hit": false,
      "t": 42666.624,
      "d": 212.96274999999878,
      "v": 100
    },
    {
      "midi": 44,
      "hit": false,
      "t": 42777.73499999981,
      "d": 69.44437499999913,
      "v": 100
    },
    {
      "midi": 38,
      "hit": false,
      "t": 42777.73499999981,
      "d": 69.44437499999913,
      "v": 100
    },
    {
      "midi": 36,
      "hit": false,
      "t": 42777.73499999986,
      "d": 69.44437499999913,
      "v": 127
    },
    {
      "midi": 40,
      "hit": false,
      "t": 42777.734999999906,
      "d": 138.88874999999825,
      "v": 100
    },
    {
      "midi": 88,
      "hit": false,
      "t": 42777.73499999999,
      "d": 138.88874999999825,
      "v": 100
    },
    {
      "midi": 44,
      "hit": false,
      "t": 42888.84599999981,
      "d": 138.88874999999825,
      "v": 100
    },
    {
      "midi": 36,
      "hit": false,
      "t": 42888.84599999986,
      "d": 69.44437499999913,
      "v": 127
    },
    {
      "midi": 36,
      "hit": false,
      "t": 42999.95699999986,
      "d": 69.44437499999913,
      "v": 127
    },
    {
      "midi": 40,
      "hit": false,
      "t": 42999.95699999991,
      "d": 69.44437499999913,
      "v": 100
    },
    {
      "midi": 88,
      "hit": false,
      "t": 42999.956999999995,
      "d": 69.44437499999913,
      "v": 100
    },
    {
      "midi": 67,
      "hit": false,
      "t": 42999.957,
      "d": 2578.7011249999996,
      "v": 100
    },
    {
      "midi": 44,
      "hit": false,
      "t": 43111.06799999981,
      "d": 69.44437499999913,
      "v": 100
    },
    {
      "midi": 38,
      "hit": false,
      "t": 43111.06799999981,
      "d": 69.44437499999913,
      "v": 100
    },
    {
      "midi": 43,
      "hit": false,
      "t": 43111.067999999905,
      "d": 138.88874999999825,
      "v": 100
    },
    {
      "midi": 88,
      "hit": false,
      "t": 43111.06799999999,
      "d": 138.88874999999825,
      "v": 100
    },
    {
      "midi": 44,
      "hit": false,
      "t": 43222.17899999981,
      "d": 69.44437499999913,
      "v": 100
    },
    {
      "midi": 27,
      "hit": false,
      "t": 43222.17899999997,
      "d": 212.96274999999878,
      "v": 127
    },
    {
      "midi": 44,
      "hit": false,
      "t": 43333.289999999804,
      "d": 69.44437499999913,
      "v": 100
    },
    {
      "midi": 36,
      "hit": false,
      "t": 43333.289999999855,
      "d": 69.44437499999913,
      "v": 127
    },
    {
      "midi": 43,
      "hit": false,
      "t": 43333.289999999906,
      "d": 138.88874999999825,
      "v": 100
    },
    {
      "midi": 88,
      "hit": false,
      "t": 43333.28999999999,
      "d": 69.44437499999913,
      "v": 100
    },
    {
      "midi": 75,
      "hit": false,
      "t": 43333.28999999999,
      "d": 138.88874999999825,
      "v": 100
    },
    {
      "midi": 38,
      "hit": false,
      "t": 43444.4009999998,
      "d": 69.44437499999913,
      "v": 100
    },
    {
      "midi": 36,
      "hit": false,
      "t": 43444.40099999985,
      "d": 69.44437499999913,
      "v": 127
    },
    {
      "midi": 88,
      "hit": false,
      "t": 43444.40099999999,
      "d": 69.44437499999913,
      "v": 100
    },
    {
      "midi": 44,
      "hit": false,
      "t": 43555.5119999998,
      "d": 69.44437499999913,
      "v": 100
    },
    {
      "midi": 36,
      "hit": false,
      "t": 43555.51199999985,
      "d": 212.96274999999878,
      "v": 127
    },
    {
      "midi": 45,
      "hit": false,
      "t": 43555.51199999991,
      "d": 138.88874999999825,
      "v": 100
    },
    {
      "midi": 44,
      "hit": false,
      "t": 43666.622999999796,
      "d": 69.44437499999913,
      "v": 100
    },
    {
      "midi": 38,
      "hit": false,
      "t": 43666.622999999796,
      "d": 69.44437499999913,
      "v": 100
    },
    {
      "midi": 88,
      "hit": false,
      "t": 43666.62299999999,
      "d": 69.44437499999913,
      "v": 100
    },
    {
      "midi": 75,
      "hit": false,
      "t": 43666.62299999999,
      "d": 212.96274999999878,
      "v": 100
    },
    {
      "midi": 44,
      "hit": false,
      "t": 43777.73399999979,
      "d": 138.88874999999825,
      "v": 100
    },
    {
      "midi": 45,
      "hit": false,
      "t": 43777.73399999991,
      "d": 69.44437499999913,
      "v": 100
    },
    {
      "midi": 88,
      "hit": false,
      "t": 43777.73399999999,
      "d": 138.88874999999825,
      "v": 100
    },
    {
      "midi": 36,
      "hit": false,
      "t": 43888.84499999985,
      "d": 69.44437499999913,
      "v": 127
    },
    {
      "midi": 43,
      "hit": false,
      "t": 43888.84499999991,
      "d": 69.44437499999913,
      "v": 100
    },
    {
      "midi": 44,
      "hit": false,
      "t": 43999.955999999795,
      "d": 69.44437499999913,
      "v": 100
    },
    {
      "midi": 38,
      "hit": false,
      "t": 43999.955999999795,
      "d": 69.44437499999913,
      "v": 100
    },
    {
      "midi": 47,
      "hit": false,
      "t": 43999.955999999904,
      "d": 69.44437499999913,
      "v": 100
    },
    {
      "midi": 39,
      "hit": false,
      "t": 43999.95599999997,
      "d": 282.4071249999979,
      "v": 127
    },
    {
      "midi": 44,
      "hit": false,
      "t": 44111.06699999979,
      "d": 69.44437499999913,
      "v": 100
    },
    {
      "midi": 45,
      "hit": false,
      "t": 44111.0669999999,
      "d": 69.44437499999913,
      "v": 100
    },
    {
      "midi": 44,
      "hit": false,
      "t": 44222.17799999979,
      "d": 138.88874999999825,
      "v": 100
    },
    {
      "midi": 36,
      "hit": false,
      "t": 44222.17799999985,
      "d": 69.44437499999913,
      "v": 127
    },
    {
      "midi": 48,
      "hit": false,
      "t": 44222.1779999999,
      "d": 69.44437499999913,
      "v": 100
    },
    {
      "midi": 88,
      "hit": false,
      "t": 44222.177999999985,
      "d": 69.44437499999913,
      "v": 100
    },
    {
      "midi": 36,
      "hit": false,
      "t": 44333.288999999844,
      "d": 69.44437499999913,
      "v": 127
    },
    {
      "midi": 47,
      "hit": false,
      "t": 44333.288999999895,
      "d": 69.44437499999913,
      "v": 100
    },
    {
      "midi": 88,
      "hit": false,
      "t": 44333.28899999998,
      "d": 69.44437499999913,
      "v": 100
    },
    {
      "midi": 44,
      "hit": false,
      "t": 44444.39999999979,
      "d": 69.44437499999913,
      "v": 100
    },
    {
      "midi": 36,
      "hit": false,
      "t": 44444.39999999984,
      "d": 138.88874999999825,
      "v": 127
    },
    {
      "midi": 88,
      "hit": false,
      "t": 44444.39999999998,
      "d": 69.44437499999913,
      "v": 100
    },
    {
      "midi": 44,
      "hit": false,
      "t": 44555.51099999979,
      "d": 69.44437499999913,
      "v": 100
    },
    {
      "midi": 38,
      "hit": false,
      "t": 44555.51099999979,
      "d": 69.44437499999913,
      "v": 100
    },
    {
      "midi": 40,
      "hit": false,
      "t": 44555.5109999999,
      "d": 212.96274999999878,
      "v": 100
    },
    {
      "midi": 88,
      "hit": false,
      "t": 44555.51099999998,
      "d": 138.88874999999825,
      "v": 100
    },
    {
      "midi": 44,
      "hit": false,
      "t": 44666.621999999785,
      "d": 138.88874999999825,
      "v": 100
    },
    {
      "midi": 36,
      "hit": false,
      "t": 44666.62199999984,
      "d": 69.44437499999913,
      "v": 127
    },
    {
      "midi": 36,
      "hit": false,
      "t": 44777.73299999984,
      "d": 69.44437499999913,
      "v": 127
    },
    {
      "midi": 88,
      "hit": false,
      "t": 44777.73299999998,
      "d": 69.44437499999913,
      "v": 100
    },
    {
      "midi": 44,
      "hit": false,
      "t": 44888.843999999786,
      "d": 69.44437499999913,
      "v": 100
    },
    {
      "midi": 38,
      "hit": false,
      "t": 44888.843999999786,
      "d": 69.44437499999913,
      "v": 100
    },
    {
      "midi": 43,
      "hit": false,
      "t": 44888.843999999895,
      "d": 138.88874999999825,
      "v": 100
    },
    {
      "midi": 88,
      "hit": false,
      "t": 44888.843999999975,
      "d": 138.88874999999825,
      "v": 100
    },
    {
      "midi": 44,
      "hit": false,
      "t": 44999.95499999978,
      "d": 69.44437499999913,
      "v": 100
    },
    {
      "midi": 27,
      "hit": false,
      "t": 44999.954999999965,
      "d": 212.96274999999878,
      "v": 127
    },
    {
      "midi": 44,
      "hit": false,
      "t": 45111.06599999978,
      "d": 69.44437499999913,
      "v": 100
    },
    {
      "midi": 36,
      "hit": false,
      "t": 45111.06599999984,
      "d": 69.44437499999913,
      "v": 127
    },
    {
      "midi": 43,
      "hit": false,
      "t": 45111.0659999999,
      "d": 138.88874999999825,
      "v": 100
    },
    {
      "midi": 88,
      "hit": false,
      "t": 45111.06599999998,
      "d": 69.44437499999913,
      "v": 100
    },
    {
      "midi": 75,
      "hit": false,
      "t": 45111.06599999999,
      "d": 138.88874999999825,
      "v": 100
    },
    {
      "midi": 44,
      "hit": false,
      "t": 45222.17699999978,
      "d": 69.44437499999913,
      "v": 100
    },
    {
      "midi": 38,
      "hit": false,
      "t": 45222.17699999978,
      "d": 69.44437499999913,
      "v": 100
    },
    {
      "midi": 36,
      "hit": false,
      "t": 45222.176999999836,
      "d": 69.44437499999913,
      "v": 127
    },
    {
      "midi": 88,
      "hit": false,
      "t": 45222.176999999974,
      "d": 69.44437499999913,
      "v": 100
    },
    {
      "midi": 44,
      "hit": false,
      "t": 45333.287999999775,
      "d": 69.44437499999913,
      "v": 100
    },
    {
      "midi": 36,
      "hit": false,
      "t": 45333.28799999983,
      "d": 212.96274999999878,
      "v": 127
    },
    {
      "midi": 45,
      "hit": false,
      "t": 45333.2879999999,
      "d": 138.88874999999825,
      "v": 100
    },
    {
      "midi": 44,
      "hit": false,
      "t": 45444.39899999977,
      "d": 69.44437499999913,
      "v": 100
    },
    {
      "midi": 38,
      "hit": false,
      "t": 45444.39899999977,
      "d": 69.44437499999913,
      "v": 100
    },
    {
      "midi": 88,
      "hit": false,
      "t": 45444.398999999976,
      "d": 69.44437499999913,
      "v": 100
    },
    {
      "midi": 75,
      "hit": false,
      "t": 45444.39899999999,
      "d": 212.96274999999878,
      "v": 100
    },
    {
      "midi": 44,
      "hit": false,
      "t": 45555.50999999977,
      "d": 138.88874999999825,
      "v": 100
    },
    {
      "midi": 38,
      "hit": false,
      "t": 45555.50999999977,
      "d": 138.88874999999825,
      "v": 100
    },
    {
      "midi": 50,
      "hit": false,
      "t": 45555.5099999999,
      "d": 55.55550000000221,
      "v": 100
    },
    {
      "midi": 88,
      "hit": false,
      "t": 45555.50999999997,
      "d": 138.88874999999825,
      "v": 100
    },
    {
      "midi": 52,
      "hit": false,
      "t": 45611.0654999999,
      "d": 55.55550000000221,
      "v": 100
    },
    {
      "midi": 36,
      "hit": false,
      "t": 45666.62099999983,
      "d": 69.44437499999913,
      "v": 127
    },
    {
      "midi": 47,
      "hit": false,
      "t": 45666.620999999905,
      "d": 111.11099999999715,
      "v": 100
    },
    {
      "midi": 44,
      "hit": false,
      "t": 45777.73199999977,
      "d": 69.44437499999913,
      "v": 100
    },
    {
      "midi": 38,
      "hit": false,
      "t": 45777.73199999977,
      "d": 69.44437499999913,
      "v": 100
    },
    {
      "midi": 46,
      "hit": false,
      "t": 45777.7319999999,
      "d": 111.11099999999715,
      "v": 100
    },
    {
      "midi": 39,
      "hit": false,
      "t": 45777.73199999997,
      "d": 69.44437499999913,
      "v": 127
    },
    {
      "midi": 44,
      "hit": false,
      "t": 45888.84299999977,
      "d": 69.44437499999913,
      "v": 100
    },
    {
      "midi": 38,
      "hit": false,
      "t": 45888.84299999977,
      "d": 69.44437499999913,
      "v": 100
    },
    {
      "midi": 45,
      "hit": false,
      "t": 45888.8429999999,
      "d": 111.11099999999715,
      "v": 100
    },
    {
      "midi": 39,
      "hit": false,
      "t": 45888.842999999964,
      "d": 69.44437499999913,
      "v": 127
    },
    {
      "midi": 88,
      "hit": false,
      "t": 45888.84300000002,
      "d": 111.11099999999715,
      "v": 127
    },
    {
      "midi": 83,
      "hit": false,
      "t": 45888.84300000002,
      "d": 111.11099999999715,
      "v": 127
    },
    {
      "midi": 44,
      "hit": false,
      "t": 45999.953999999765,
      "d": 69.44437499999913,
      "v": 100
    },
    {
      "midi": 38,
      "hit": false,
      "t": 45999.953999999765,
      "d": 69.44437499999913,
      "v": 100
    },
    {
      "midi": 36,
      "hit": false,
      "t": 45999.95399999983,
      "d": 138.88874999999825,
      "v": 127
    },
    {
      "midi": 50,
      "hit": false,
      "t": 45999.953999999896,
      "d": 111.11099999999715,
      "v": 100
    },
    {
      "midi": 39,
      "hit": false,
      "t": 45999.95399999996,
      "d": 69.44437499999913,
      "v": 127
    },
    {
      "midi": 88,
      "hit": false,
      "t": 45999.95399999997,
      "d": 69.44437499999913,
      "v": 100
    },
    {
      "midi": 88,
      "hit": false,
      "t": 45999.95400000002,
      "d": 111.11099999999715,
      "v": 127
    },
    {
      "midi": 83,
      "hit": false,
      "t": 45999.95400000002,
      "d": 111.11099999999715,
      "v": 127
    },
    {
      "midi": 38,
      "hit": false,
      "t": 46111.06499999976,
      "d": 69.44437499999913,
      "v": 100
    },
    {
      "midi": 52,
      "hit": false,
      "t": 46111.06499999989,
      "d": 111.11099999999715,
      "v": 100
    },
    {
      "midi": 39,
      "hit": false,
      "t": 46111.06499999996,
      "d": 69.44437499999913,
      "v": 127
    },
    {
      "midi": 88,
      "hit": false,
      "t": 46111.064999999966,
      "d": 69.44437499999913,
      "v": 100
    },
    {
      "midi": 88,
      "hit": false,
      "t": 46111.06500000002,
      "d": 111.11099999999715,
      "v": 127
    },
    {
      "midi": 83,
      "hit": false,
      "t": 46111.06500000002,
      "d": 111.11099999999715,
      "v": 127
    },
    {
      "midi": 49,
      "hit": false,
      "t": 46222.17599999976,
      "d": 69.44437499999913,
      "v": 100
    },
    {
      "midi": 44,
      "hit": false,
      "t": 46222.17599999976,
      "d": 69.44437499999913,
      "v": 100
    },
    {
      "midi": 36,
      "hit": false,
      "t": 46222.17599999983,
      "d": 138.88874999999825,
      "v": 127
    },
    {
      "midi": 40,
      "hit": false,
      "t": 46222.17599999989,
      "d": 212.96274999999878,
      "v": 100
    },
    {
      "midi": 67,
      "hit": false,
      "t": 46222.17599999996,
      "d": 1134.2581250000003,
      "v": 100
    },
    {
      "midi": 74,
      "hit": false,
      "t": 46222.176000000014,
      "d": 3555.5520000000033,
      "v": 100
    },
    {
      "midi": 71,
      "hit": false,
      "t": 46222.176000000014,
      "d": 3555.5520000000033,
      "v": 100
    },
    {
      "midi": 44,
      "hit": false,
      "t": 46333.28699999976,
      "d": 69.44437499999913,
      "v": 100
    },
    {
      "midi": 44,
      "hit": false,
      "t": 46444.397999999754,
      "d": 138.88874999999825,
      "v": 100
    },
    {
      "midi": 36,
      "hit": false,
      "t": 46444.397999999834,
      "d": 69.44437499999913,
      "v": 127
    },
    {
      "midi": 64,
      "hit": false,
      "t": 46444.398,
      "d": 291.6663750000007,
      "v": 100
    },
    {
      "midi": 36,
      "hit": false,
      "t": 46555.50899999983,
      "d": 69.44437499999913,
      "v": 127
    },
    {
      "midi": 40,
      "hit": false,
      "t": 46555.50899999989,
      "d": 69.44437499999913,
      "v": 100
    },
    {
      "midi": 44,
      "hit": false,
      "t": 46666.619999999755,
      "d": 69.44437499999913,
      "v": 100
    },
    {
      "midi": 38,
      "hit": false,
      "t": 46666.619999999755,
      "d": 69.44437499999913,
      "v": 100
    },
    {
      "midi": 43,
      "hit": false,
      "t": 46666.619999999886,
      "d": 138.88874999999825,
      "v": 100
    },
    {
      "midi": 44,
      "hit": false,
      "t": 46777.73099999975,
      "d": 69.44437499999913,
      "v": 100
    },
    {
      "midi": 27,
      "hit": false,
      "t": 46777.730999999956,
      "d": 212.96274999999878,
      "v": 127
    },
    {
      "midi": 67,
      "hit": false,
      "t": 46777.731,
      "d": 212.96274999999878,
      "v": 100
    },
    {
      "midi": 44,
      "hit": false,
      "t": 46888.84199999975,
      "d": 69.44437499999913,
      "v": 100
    },
    {
      "midi": 36,
      "hit": false,
      "t": 46888.84199999983,
      "d": 69.44437499999913,
      "v": 127
    },
    {
      "midi": 43,
      "hit": false,
      "t": 46888.84199999989,
      "d": 138.88874999999825,
      "v": 100
    },
    {
      "midi": 44,
      "hit": false,
      "t": 46999.95299999975,
      "d": 69.44437499999913,
      "v": 100
    },
    {
      "midi": 38,
      "hit": false,
      "t": 46999.95299999975,
      "d": 69.44437499999913,
      "v": 100
    },
    {
      "midi": 36,
      "hit": false,
      "t": 46999.95299999983,
      "d": 69.44437499999913,
      "v": 127
    },
    {
      "midi": 44,
      "hit": false,
      "t": 47111.063999999744,
      "d": 69.44437499999913,
      "v": 100
    },
    {
      "midi": 36,
      "hit": false,
      "t": 47111.063999999824,
      "d": 212.96274999999878,
      "v": 127
    },
    {
      "midi": 45,
      "hit": false,
      "t": 47111.06399999989,
      "d": 138.88874999999825,
      "v": 100
    },
    {
      "midi": 74,
      "hit": false,
      "t": 47111.064,
      "d": 1314.8134999999966,
      "v": 100
    },
    {
      "midi": 44,
      "hit": false,
      "t": 47222.17499999974,
      "d": 69.44437499999913,
      "v": 100
    },
    {
      "midi": 38,
      "hit": false,
      "t": 47222.17499999974,
      "d": 69.44437499999913,
      "v": 100
    },
    {
      "midi": 44,
      "hit": false,
      "t": 47333.28599999974,
      "d": 138.88874999999825,
      "v": 100
    },
    {
      "midi": 45,
      "hit": false,
      "t": 47333.28599999989,
      "d": 138.88874999999825,
      "v": 100
    },
    {
      "midi": 36,
      "hit": false,
      "t": 47444.39699999982,
      "d": 69.44437499999913,
      "v": 127
    },
    {
      "midi": 44,
      "hit": false,
      "t": 47555.50799999974,
      "d": 69.44437499999913,
      "v": 100
    },
    {
      "midi": 38,
      "hit": false,
      "t": 47555.50799999974,
      "d": 69.44437499999913,
      "v": 100
    },
    {
      "midi": 46,
      "hit": false,
      "t": 47555.50799999989,
      "d": 138.88874999999825,
      "v": 100
    },
    {
      "midi": 39,
      "hit": false,
      "t": 47555.50799999996,
      "d": 282.4071249999979,
      "v": 127
    },
    {
      "midi": 44,
      "hit": false,
      "t": 47666.61899999974,
      "d": 69.44437499999913,
      "v": 100
    },
    {
      "midi": 44,
      "hit": false,
      "t": 47777.729999999734,
      "d": 69.44437499999913,
      "v": 100
    },
    {
      "midi": 36,
      "hit": false,
      "t": 47777.72999999982,
      "d": 69.44437499999913,
      "v": 127
    },
    {
      "midi": 45,
      "hit": false,
      "t": 47777.729999999894,
      "d": 138.88874999999825,
      "v": 100
    },
    {
      "midi": 44,
      "hit": false,
      "t": 47888.84099999973,
      "d": 69.44437499999913,
      "v": 100
    },
    {
      "midi": 36,
      "hit": false,
      "t": 47888.84099999982,
      "d": 69.44437499999913,
      "v": 127
    },
    {
      "midi": 44,
      "hit": false,
      "t": 47999.95199999973,
      "d": 69.44437499999913,
      "v": 100
    },
    {
      "midi": 36,
      "hit": false,
      "t": 47999.951999999816,
      "d": 138.88874999999825,
      "v": 127
    },
    {
      "midi": 67,
      "hit": false,
      "t": 47999.95199999996,
      "d": 138.88874999999825,
      "v": 100
    },
    {
      "midi": 44,
      "hit": false,
      "t": 48111.062999999725,
      "d": 69.44437499999913,
      "v": 100
    },
    {
      "midi": 38,
      "hit": false,
      "t": 48111.062999999725,
      "d": 69.44437499999913,
      "v": 100
    },
    {
      "midi": 40,
      "hit": false,
      "t": 48111.06299999989,
      "d": 212.96274999999878,
      "v": 100
    },
    {
      "midi": 44,
      "hit": false,
      "t": 48222.17399999972,
      "d": 138.88874999999825,
      "v": 100
    },
    {
      "midi": 36,
      "hit": false,
      "t": 48222.17399999982,
      "d": 69.44437499999913,
      "v": 127
    },
    {
      "midi": 64,
      "hit": false,
      "t": 48222.17399999996,
      "d": 291.6663750000007,
      "v": 100
    },
    {
      "midi": 36,
      "hit": false,
      "t": 48333.284999999814,
      "d": 69.44437499999913,
      "v": 127
    },
    {
      "midi": 44,
      "hit": false,
      "t": 48444.395999999724,
      "d": 69.44437499999913,
      "v": 100
    },
    {
      "midi": 38,
      "hit": false,
      "t": 48444.395999999724,
      "d": 69.44437499999913,
      "v": 100
    },
    {
      "midi": 43,
      "hit": false,
      "t": 48444.39599999989,
      "d": 138.88874999999825,
      "v": 100
    },
    {
      "midi": 44,
      "hit": false,
      "t": 48555.50699999972,
      "d": 69.44437499999913,
      "v": 100
    },
    {
      "midi": 27,
      "hit": false,
      "t": 48555.506999999954,
      "d": 212.96274999999878,
      "v": 127
    },
    {
      "midi": 67,
      "hit": false,
      "t": 48555.50699999996,
      "d": 212.96274999999878,
      "v": 100
    },
    {
      "midi": 44,
      "hit": false,
      "t": 48666.61799999972,
      "d": 69.44437499999913,
      "v": 100
    },
    {
      "midi": 36,
      "hit": false,
      "t": 48666.61799999981,
      "d": 69.44437499999913,
      "v": 127
    },
    {
      "midi": 43,
      "hit": false,
      "t": 48666.61799999989,
      "d": 138.88874999999825,
      "v": 100
    },
    {
      "midi": 74,
      "hit": false,
      "t": 48666.617999999995,
      "d": 69.44437499999913,
      "v": 100
    },
    {
      "midi": 44,
      "hit": false,
      "t": 48777.728999999716,
      "d": 69.44437499999913,
      "v": 100
    },
    {
      "midi": 38,
      "hit": false,
      "t": 48777.728999999716,
      "d": 69.44437499999913,
      "v": 100
    },
    {
      "midi": 36,
      "hit": false,
      "t": 48777.72899999981,
      "d": 69.44437499999913,
      "v": 127
    },
    {
      "midi": 75,
      "hit": false,
      "t": 48777.72899999999,
      "d": 69.44437499999913,
      "v": 100
    },
    {
      "midi": 44,
      "hit": false,
      "t": 48888.83999999971,
      "d": 69.44437499999913,
      "v": 100
    },
    {
      "midi": 36,
      "hit": false,
      "t": 48888.83999999981,
      "d": 212.96274999999878,
      "v": 127
    },
    {
      "midi": 45,
      "hit": false,
      "t": 48888.839999999895,
      "d": 138.88874999999825,
      "v": 100
    },
    {
      "midi": 74,
      "hit": false,
      "t": 48888.83999999996,
      "d": 3231.47825,
      "v": 100
    },
    {
      "midi": 75,
      "hit": false,
      "t": 48888.83999999999,
      "d": 32.4073750000025,
      "v": 80
    },
    {
      "midi": 76,
      "hit": false,
      "t": 48944.39549999999,
      "d": 32.4073750000025,
      "v": 100
    },
    {
      "midi": 44,
      "hit": false,
      "t": 48999.95099999971,
      "d": 69.44437499999913,
      "v": 100
    },
    {
      "midi": 38,
      "hit": false,
      "t": 48999.95099999971,
      "d": 69.44437499999913,
      "v": 100
    },
    {
      "midi": 74,
      "hit": false,
      "t": 48999.950999999994,
      "d": 69.44437499999913,
      "v": 100
    },
    {
      "midi": 44,
      "hit": false,
      "t": 49111.06199999971,
      "d": 138.88874999999825,
      "v": 100
    },
    {
      "midi": 45,
      "hit": false,
      "t": 49111.061999999896,
      "d": 138.88874999999825,
      "v": 100
    },
    {
      "midi": 73,
      "hit": false,
      "t": 49111.06199999999,
      "d": 69.44437499999913,
      "v": 100
    },
    {
      "midi": 36,
      "hit": false,
      "t": 49222.172999999806,
      "d": 69.44437499999913,
      "v": 127
    },
    {
      "midi": 71,
      "hit": false,
      "t": 49222.17299999999,
      "d": 69.44437499999913,
      "v": 100
    },
    {
      "midi": 44,
      "hit": false,
      "t": 49333.28399999971,
      "d": 69.44437499999913,
      "v": 100
    },
    {
      "midi": 38,
      "hit": false,
      "t": 49333.28399999971,
      "d": 69.44437499999913,
      "v": 100
    },
    {
      "midi": 50,
      "hit": false,
      "t": 49333.2839999999,
      "d": 69.44437499999913,
      "v": 100
    },
    {
      "midi": 69,
      "hit": false,
      "t": 49333.283999999985,
      "d": 69.44437499999913,
      "v": 100
    },
    {
      "midi": 44,
      "hit": false,
      "t": 49444.394999999706,
      "d": 69.44437499999913,
      "v": 100
    },
    {
      "midi": 38,
      "hit": false,
      "t": 49444.394999999706,
      "d": 69.44437499999913,
      "v": 100
    },
    {
      "midi": 52,
      "hit": false,
      "t": 49444.394999999895,
      "d": 69.44437499999913,
      "v": 100
    },
    {
      "midi": 67,
      "hit": false,
      "t": 49444.39499999998,
      "d": 1467.591124999999,
      "v": 100
    },
    {
      "midi": 44,
      "hit": false,
      "t": 49555.5059999997,
      "d": 69.44437499999913,
      "v": 100
    },
    {
      "midi": 36,
      "hit": false,
      "t": 49555.505999999805,
      "d": 138.88874999999825,
      "v": 127
    },
    {
      "midi": 45,
      "hit": false,
      "t": 49555.50599999989,
      "d": 69.44437499999913,
      "v": 100
    },
    {
      "midi": 38,
      "hit": false,
      "t": 49666.6169999997,
      "d": 69.44437499999913,
      "v": 100
    },
    {
      "midi": 47,
      "hit": false,
      "t": 49666.61699999989,
      "d": 69.44437499999913,
      "v": 100
    },
    {
      "midi": 49,
      "hit": false,
      "t": 49777.7279999997,
      "d": 69.44437499999913,
      "v": 100
    },
    {
      "midi": 44,
      "hit": false,
      "t": 49777.7279999997,
      "d": 69.44437499999913,
      "v": 100
    },
    {
      "midi": 36,
      "hit": false,
      "t": 49777.727999999806,
      "d": 138.88874999999825,
      "v": 127
    },
    {
      "midi": 40,
      "hit": false,
      "t": 49777.72799999989,
      "d": 212.96274999999878,
      "v": 100
    },
    {
      "midi": 73,
      "hit": false,
      "t": 49777.72800000002,
      "d": 3555.5520000000033,
      "v": 100
    },
    {
      "midi": 71,
      "hit": false,
      "t": 49777.72800000002,
      "d": 3555.5520000000033,
      "v": 100
    },
    {
      "midi": 44,
      "hit": false,
      "t": 49888.838999999694,
      "d": 69.44437499999913,
      "v": 100
    },
    {
      "midi": 44,
      "hit": false,
      "t": 49999.94999999969,
      "d": 138.88874999999825,
      "v": 100
    },
    {
      "midi": 36,
      "hit": false,
      "t": 49999.94999999981,
      "d": 69.44437499999913,
      "v": 127
    },
    {
      "midi": 36,
      "hit": false,
      "t": 50111.060999999805,
      "d": 69.44437499999913,
      "v": 127
    },
    {
      "midi": 40,
      "hit": false,
      "t": 50111.060999999885,
      "d": 69.44437499999913,
      "v": 100
    },
    {
      "midi": 44,
      "hit": false,
      "t": 50222.17199999969,
      "d": 69.44437499999913,
      "v": 100
    },
    {
      "midi": 38,
      "hit": false,
      "t": 50222.17199999969,
      "d": 69.44437499999913,
      "v": 100
    },
    {
      "midi": 43,
      "hit": false,
      "t": 50222.17199999988,
      "d": 138.88874999999825,
      "v": 100
    },
    {
      "midi": 44,
      "hit": false,
      "t": 50333.28299999969,
      "d": 69.44437499999913,
      "v": 100
    },
    {
      "midi": 44,
      "hit": false,
      "t": 50444.39399999969,
      "d": 69.44437499999913,
      "v": 100
    },
    {
      "midi": 36,
      "hit": false,
      "t": 50444.393999999804,
      "d": 69.44437499999913,
      "v": 127
    },
    {
      "midi": 43,
      "hit": false,
      "t": 50444.393999999884,
      "d": 138.88874999999825,
      "v": 100
    },
    {
      "midi": 44,
      "hit": false,
      "t": 50555.504999999685,
      "d": 69.44437499999913,
      "v": 100
    },
    {
      "midi": 38,
      "hit": false,
      "t": 50555.504999999685,
      "d": 69.44437499999913,
      "v": 100
    },
    {
      "midi": 36,
      "hit": false,
      "t": 50555.5049999998,
      "d": 69.44437499999913,
      "v": 127
    },
    {
      "midi": 44,
      "hit": false,
      "t": 50666.61599999968,
      "d": 69.44437499999913,
      "v": 100
    },
    {
      "midi": 36,
      "hit": false,
      "t": 50666.6159999998,
      "d": 212.96274999999878,
      "v": 127
    },
    {
      "midi": 45,
      "hit": false,
      "t": 50666.615999999885,
      "d": 138.88874999999825,
      "v": 100
    },
    {
      "midi": 44,
      "hit": false,
      "t": 50777.72699999968,
      "d": 69.44437499999913,
      "v": 100
    },
    {
      "midi": 38,
      "hit": false,
      "t": 50777.72699999968,
      "d": 69.44437499999913,
      "v": 100
    },
    {
      "midi": 44,
      "hit": false,
      "t": 50888.837999999676,
      "d": 138.88874999999825,
      "v": 100
    },
    {
      "midi": 45,
      "hit": false,
      "t": 50888.83799999989,
      "d": 138.88874999999825,
      "v": 100
    },
    {
      "midi": 36,
      "hit": false,
      "t": 50999.9489999998,
      "d": 69.44437499999913,
      "v": 127
    },
    {
      "midi": 44,
      "hit": false,
      "t": 51111.05999999968,
      "d": 69.44437499999913,
      "v": 100
    },
    {
      "midi": 38,
      "hit": false,
      "t": 51111.05999999968,
      "d": 69.44437499999913,
      "v": 100
    },
    {
      "midi": 46,
      "hit": false,
      "t": 51111.05999999989,
      "d": 138.88874999999825,
      "v": 100
    },
    {
      "midi": 44,
      "hit": false,
      "t": 51222.170999999675,
      "d": 69.44437499999913,
      "v": 100
    },
    {
      "midi": 27,
      "hit": false,
      "t": 51222.17099999995,
      "d": 212.96274999999878,
      "v": 127
    },
    {
      "midi": 44,
      "hit": false,
      "t": 51333.28199999967,
      "d": 69.44437499999913,
      "v": 100
    },
    {
      "midi": 36,
      "hit": false,
      "t": 51333.281999999796,
      "d": 69.44437499999913,
      "v": 127
    },
    {
      "midi": 45,
      "hit": false,
      "t": 51333.28199999989,
      "d": 138.88874999999825,
      "v": 100
    },
    {
      "midi": 44,
      "hit": false,
      "t": 51444.39299999967,
      "d": 69.44437499999913,
      "v": 100
    },
    {
      "midi": 36,
      "hit": false,
      "t": 51444.39299999979,
      "d": 69.44437499999913,
      "v": 127
    },
    {
      "midi": 44,
      "hit": false,
      "t": 51555.503999999666,
      "d": 69.44437499999913,
      "v": 100
    },
    {
      "midi": 36,
      "hit": false,
      "t": 51555.50399999979,
      "d": 138.88874999999825,
      "v": 127
    },
    {
      "midi": 64,
      "hit": false,
      "t": 51555.50399999998,
      "d": 1134.2581250000003,
      "v": 100
    },
    {
      "midi": 44,
      "hit": false,
      "t": 51666.61499999966,
      "d": 69.44437499999913,
      "v": 100
    },
    {
      "midi": 38,
      "hit": false,
      "t": 51666.61499999966,
      "d": 69.44437499999913,
      "v": 100
    },
    {
      "midi": 40,
      "hit": false,
      "t": 51666.61499999989,
      "d": 212.96274999999878,
      "v": 100
    },
    {
      "midi": 44,
      "hit": false,
      "t": 51777.72599999966,
      "d": 138.88874999999825,
      "v": 100
    },
    {
      "midi": 36,
      "hit": false,
      "t": 51777.72599999979,
      "d": 69.44437499999913,
      "v": 127
    },
    {
      "midi": 36,
      "hit": false,
      "t": 51888.83699999979,
      "d": 69.44437499999913,
      "v": 127
    },
    {
      "midi": 44,
      "hit": false,
      "t": 51999.94799999966,
      "d": 69.44437499999913,
      "v": 100
    },
    {
      "midi": 38,
      "hit": false,
      "t": 51999.94799999966,
      "d": 69.44437499999913,
      "v": 100
    },
    {
      "midi": 43,
      "hit": false,
      "t": 51999.94799999989,
      "d": 138.88874999999825,
      "v": 100
    },
    {
      "midi": 39,
      "hit": false,
      "t": 51999.94799999995,
      "d": 282.4071249999979,
      "v": 127
    },
    {
      "midi": 44,
      "hit": false,
      "t": 52111.05899999966,
      "d": 69.44437499999913,
      "v": 100
    },
    {
      "midi": 44,
      "hit": false,
      "t": 52222.169999999656,
      "d": 69.44437499999913,
      "v": 100
    },
    {
      "midi": 36,
      "hit": false,
      "t": 52222.16999999979,
      "d": 69.44437499999913,
      "v": 127
    },
    {
      "midi": 43,
      "hit": false,
      "t": 52222.16999999989,
      "d": 138.88874999999825,
      "v": 100
    },
    {
      "midi": 44,
      "hit": false,
      "t": 52333.28099999965,
      "d": 69.44437499999913,
      "v": 100
    },
    {
      "midi": 38,
      "hit": false,
      "t": 52333.28099999965,
      "d": 69.44437499999913,
      "v": 100
    },
    {
      "midi": 36,
      "hit": false,
      "t": 52333.280999999784,
      "d": 69.44437499999913,
      "v": 127
    },
    {
      "midi": 44,
      "hit": false,
      "t": 52444.39199999965,
      "d": 69.44437499999913,
      "v": 100
    },
    {
      "midi": 36,
      "hit": false,
      "t": 52444.39199999978,
      "d": 212.96274999999878,
      "v": 127
    },
    {
      "midi": 45,
      "hit": false,
      "t": 52444.39199999989,
      "d": 138.88874999999825,
      "v": 100
    },
    {
      "midi": 76,
      "hit": false,
      "t": 52444.39199999996,
      "d": 69.44437499999913,
      "v": 100
    },
    {
      "midi": 44,
      "hit": false,
      "t": 52555.50299999965,
      "d": 69.44437499999913,
      "v": 100
    },
    {
      "midi": 38,
      "hit": false,
      "t": 52555.50299999965,
      "d": 69.44437499999913,
      "v": 100
    },
    {
      "midi": 83,
      "hit": false,
      "t": 52555.50299999996,
      "d": 69.44437499999913,
      "v": 100
    },
    {
      "midi": 44,
      "hit": false,
      "t": 52666.613999999645,
      "d": 138.88874999999825,
      "v": 100
    },
    {
      "midi": 45,
      "hit": false,
      "t": 52666.61399999989,
      "d": 138.88874999999825,
      "v": 100
    },
    {
      "midi": 78,
      "hit": false,
      "t": 52666.61399999996,
      "d": 69.44437499999913,
      "v": 100
    },
    {
      "midi": 36,
      "hit": false,
      "t": 52777.72499999978,
      "d": 69.44437499999913,
      "v": 127
    },
    {
      "midi": 79,
      "hit": false,
      "t": 52777.724999999955,
      "d": 69.44437499999913,
      "v": 100
    },
    {
      "midi": 44,
      "hit": false,
      "t": 52888.83599999965,
      "d": 69.44437499999913,
      "v": 100
    },
    {
      "midi": 38,
      "hit": false,
      "t": 52888.83599999965,
      "d": 69.44437499999913,
      "v": 100
    },
    {
      "midi": 50,
      "hit": false,
      "t": 52888.835999999894,
      "d": 69.44437499999913,
      "v": 100
    },
    {
      "midi": 81,
      "hit": false,
      "t": 52888.83599999995,
      "d": 69.44437499999913,
      "v": 100
    },
    {
      "midi": 44,
      "hit": false,
      "t": 52999.94699999964,
      "d": 69.44437499999913,
      "v": 100
    },
    {
      "midi": 38,
      "hit": false,
      "t": 52999.94699999964,
      "d": 69.44437499999913,
      "v": 100
    },
    {
      "midi": 52,
      "hit": false,
      "t": 52999.94699999989,
      "d": 69.44437499999913,
      "v": 100
    },
    {
      "midi": 79,
      "hit": false,
      "t": 52999.94699999995,
      "d": 69.44437499999913,
      "v": 100
    },
    {
      "midi": 27,
      "hit": false,
      "t": 52999.94699999995,
      "d": 212.96274999999878,
      "v": 127
    },
    {
      "midi": 44,
      "hit": false,
      "t": 53111.05799999964,
      "d": 69.44437499999913,
      "v": 100
    },
    {
      "midi": 36,
      "hit": false,
      "t": 53111.05799999978,
      "d": 138.88874999999825,
      "v": 127
    },
    {
      "midi": 45,
      "hit": false,
      "t": 53111.05799999989,
      "d": 69.44437499999913,
      "v": 100
    },
    {
      "midi": 78,
      "hit": false,
      "t": 53111.057999999946,
      "d": 69.44437499999913,
      "v": 100
    },
    {
      "midi": 38,
      "hit": false,
      "t": 53222.16899999964,
      "d": 69.44437499999913,
      "v": 100
    },
    {
      "midi": 47,
      "hit": false,
      "t": 53222.168999999885,
      "d": 69.44437499999913,
      "v": 100
    },
    {
      "midi": 76,
      "hit": false,
      "t": 53222.16899999994,
      "d": 2027.7757500000007,
      "v": 100
    },
    {
      "midi": 49,
      "hit": false,
      "t": 53333.279999999635,
      "d": 69.44437499999913,
      "v": 100
    },
    {
      "midi": 44,
      "hit": false,
      "t": 53333.279999999635,
      "d": 69.44437499999913,
      "v": 100
    },
    {
      "midi": 36,
      "hit": false,
      "t": 53333.27999999978,
      "d": 138.88874999999825,
      "v": 127
    },
    {
      "midi": 40,
      "hit": false,
      "t": 53333.27999999988,
      "d": 212.96274999999878,
      "v": 100
    },
    {
      "midi": 74,
      "hit": false,
      "t": 53333.28000000002,
      "d": 3555.5520000000033,
      "v": 100
    },
    {
      "midi": 71,
      "hit": false,
      "t": 53333.28000000002,
      "d": 3555.5520000000033,
      "v": 100
    },
    {
      "midi": 44,
      "hit": false,
      "t": 53444.39099999963,
      "d": 69.44437499999913,
      "v": 100
    },
    {
      "midi": 44,
      "hit": false,
      "t": 53555.50199999963,
      "d": 138.88874999999825,
      "v": 100
    },
    {
      "midi": 36,
      "hit": false,
      "t": 53555.50199999978,
      "d": 69.44437499999913,
      "v": 127
    },
    {
      "midi": 64,
      "hit": false,
      "t": 53555.50199999998,
      "d": 291.6663750000007,
      "v": 100
    },
    {
      "midi": 36,
      "hit": false,
      "t": 53666.61299999978,
      "d": 69.44437499999913,
      "v": 127
    },
    {
      "midi": 40,
      "hit": false,
      "t": 53666.61299999988,
      "d": 69.44437499999913,
      "v": 100
    },
    {
      "midi": 44,
      "hit": false,
      "t": 53777.72399999963,
      "d": 69.44437499999913,
      "v": 100
    },
    {
      "midi": 38,
      "hit": false,
      "t": 53777.72399999963,
      "d": 69.44437499999913,
      "v": 100
    },
    {
      "midi": 43,
      "hit": false,
      "t": 53777.72399999988,
      "d": 138.88874999999825,
      "v": 100
    },
    {
      "midi": 44,
      "hit": false,
      "t": 53888.83499999963,
      "d": 69.44437499999913,
      "v": 100
    },
    {
      "midi": 67,
      "hit": false,
      "t": 53888.83499999998,
      "d": 212.96274999999878,
      "v": 100
    },
    {
      "midi": 44,
      "hit": false,
      "t": 53999.945999999625,
      "d": 69.44437499999913,
      "v": 100
    },
    {
      "midi": 36,
      "hit": false,
      "t": 53999.94599999978,
      "d": 69.44437499999913,
      "v": 127
    },
    {
      "midi": 43,
      "hit": false,
      "t": 53999.94599999988,
      "d": 138.88874999999825,
      "v": 100
    },
    {
      "midi": 44,
      "hit": false,
      "t": 54111.05699999962,
      "d": 69.44437499999913,
      "v": 100
    },
    {
      "midi": 38,
      "hit": false,
      "t": 54111.05699999962,
      "d": 69.44437499999913,
      "v": 100
    },
    {
      "midi": 36,
      "hit": false,
      "t": 54111.056999999775,
      "d": 69.44437499999913,
      "v": 127
    },
    {
      "midi": 44,
      "hit": false,
      "t": 54222.16799999962,
      "d": 69.44437499999913,
      "v": 100
    },
    {
      "midi": 36,
      "hit": false,
      "t": 54222.16799999977,
      "d": 212.96274999999878,
      "v": 127
    },
    {
      "midi": 45,
      "hit": false,
      "t": 54222.16799999988,
      "d": 138.88874999999825,
      "v": 100
    },
    {
      "midi": 74,
      "hit": false,
      "t": 54222.167999999976,
      "d": 564.8142500000031,
      "v": 100
    },
    {
      "midi": 44,
      "hit": false,
      "t": 54333.27899999962,
      "d": 69.44437499999913,
      "v": 100
    },
    {
      "midi": 38,
      "hit": false,
      "t": 54333.27899999962,
      "d": 69.44437499999913,
      "v": 100
    },
    {
      "midi": 44,
      "hit": false,
      "t": 54444.389999999614,
      "d": 138.88874999999825,
      "v": 100
    },
    {
      "midi": 45,
      "hit": false,
      "t": 54444.38999999988,
      "d": 138.88874999999825,
      "v": 100
    },
    {
      "midi": 36,
      "hit": false,
      "t": 54555.50099999977,
      "d": 69.44437499999913,
      "v": 127
    },
    {
      "midi": 44,
      "hit": false,
      "t": 54666.611999999615,
      "d": 69.44437499999913,
      "v": 100
    },
    {
      "midi": 38,
      "hit": false,
      "t": 54666.611999999615,
      "d": 69.44437499999913,
      "v": 100
    },
    {
      "midi": 46,
      "hit": false,
      "t": 54666.611999999885,
      "d": 138.88874999999825,
      "v": 100
    },
    {
      "midi": 44,
      "hit": false,
      "t": 54777.72299999961,
      "d": 69.44437499999913,
      "v": 100
    },
    {
      "midi": 44,
      "hit": false,
      "t": 54888.83399999961,
      "d": 69.44437499999913,
      "v": 100
    },
    {
      "midi": 36,
      "hit": false,
      "t": 54888.83399999977,
      "d": 69.44437499999913,
      "v": 127
    },
    {
      "midi": 45,
      "hit": false,
      "t": 54888.833999999886,
      "d": 138.88874999999825,
      "v": 100
    },
    {
      "midi": 44,
      "hit": false,
      "t": 54999.94499999961,
      "d": 69.44437499999913,
      "v": 100
    },
    {
      "midi": 36,
      "hit": false,
      "t": 54999.94499999977,
      "d": 69.44437499999913,
      "v": 127
    },
    {
      "midi": 44,
      "hit": false,
      "t": 55111.055999999604,
      "d": 69.44437499999913,
      "v": 100
    },
    {
      "midi": 36,
      "hit": false,
      "t": 55111.055999999764,
      "d": 138.88874999999825,
      "v": 127
    },
    {
      "midi": 44,
      "hit": false,
      "t": 55222.1669999996,
      "d": 69.44437499999913,
      "v": 100
    },
    {
      "midi": 38,
      "hit": false,
      "t": 55222.1669999996,
      "d": 69.44437499999913,
      "v": 100
    },
    {
      "midi": 40,
      "hit": false,
      "t": 55222.166999999885,
      "d": 212.96274999999878,
      "v": 100
    },
    {
      "midi": 44,
      "hit": false,
      "t": 55333.2779999996,
      "d": 138.88874999999825,
      "v": 100
    },
    {
      "midi": 36,
      "hit": false,
      "t": 55333.277999999766,
      "d": 69.44437499999913,
      "v": 127
    },
    {
      "midi": 64,
      "hit": false,
      "t": 55333.27799999995,
      "d": 291.6663750000007,
      "v": 100
    },
    {
      "midi": 36,
      "hit": false,
      "t": 55444.38899999976,
      "d": 69.44437499999913,
      "v": 127
    },
    {
      "midi": 44,
      "hit": false,
      "t": 55555.4999999996,
      "d": 69.44437499999913,
      "v": 100
    },
    {
      "midi": 38,
      "hit": false,
      "t": 55555.4999999996,
      "d": 69.44437499999913,
      "v": 100
    },
    {
      "midi": 43,
      "hit": false,
      "t": 55555.49999999988,
      "d": 138.88874999999825,
      "v": 100
    },
    {
      "midi": 44,
      "hit": false,
      "t": 55666.6109999996,
      "d": 69.44437499999913,
      "v": 100
    },
    {
      "midi": 67,
      "hit": false,
      "t": 55666.610999999946,
      "d": 212.96274999999878,
      "v": 100
    },
    {
      "midi": 27,
      "hit": false,
      "t": 55666.610999999946,
      "d": 212.96274999999878,
      "v": 127
    },
    {
      "midi": 44,
      "hit": false,
      "t": 55777.721999999594,
      "d": 69.44437499999913,
      "v": 100
    },
    {
      "midi": 36,
      "hit": false,
      "t": 55777.72199999976,
      "d": 69.44437499999913,
      "v": 127
    },
    {
      "midi": 43,
      "hit": false,
      "t": 55777.721999999885,
      "d": 138.88874999999825,
      "v": 100
    },
    {
      "midi": 74,
      "hit": false,
      "t": 55777.72199999998,
      "d": 69.44437499999913,
      "v": 100
    },
    {
      "midi": 44,
      "hit": false,
      "t": 55888.83299999959,
      "d": 69.44437499999913,
      "v": 100
    },
    {
      "midi": 38,
      "hit": false,
      "t": 55888.83299999959,
      "d": 69.44437499999913,
      "v": 100
    },
    {
      "midi": 36,
      "hit": false,
      "t": 55888.83299999976,
      "d": 69.44437499999913,
      "v": 127
    },
    {
      "midi": 75,
      "hit": false,
      "t": 55888.83299999998,
      "d": 69.44437499999913,
      "v": 100
    },
    {
      "midi": 44,
      "hit": false,
      "t": 55999.94399999959,
      "d": 69.44437499999913,
      "v": 100
    },
    {
      "midi": 36,
      "hit": false,
      "t": 55999.943999999756,
      "d": 212.96274999999878,
      "v": 127
    },
    {
      "midi": 45,
      "hit": false,
      "t": 55999.94399999989,
      "d": 138.88874999999825,
      "v": 100
    },
    {
      "midi": 74,
      "hit": false,
      "t": 55999.943999999945,
      "d": 3981.477500000001,
      "v": 100
    },
    {
      "midi": 75,
      "hit": false,
      "t": 55999.943999999974,
      "d": 32.4073750000025,
      "v": 80
    },
    {
      "midi": 76,
      "hit": false,
      "t": 56055.499499999976,
      "d": 32.4073750000025,
      "v": 100
    },
    {
      "midi": 44,
      "hit": false,
      "t": 56111.054999999586,
      "d": 69.44437499999913,
      "v": 100
    },
    {
      "midi": 38,
      "hit": false,
      "t": 56111.054999999586,
      "d": 69.44437499999913,
      "v": 100
    },
    {
      "midi": 74,
      "hit": false,
      "t": 56111.05499999998,
      "d": 69.44437499999913,
      "v": 100
    },
    {
      "midi": 44,
      "hit": false,
      "t": 56222.16599999958,
      "d": 138.88874999999825,
      "v": 100
    },
    {
      "midi": 45,
      "hit": false,
      "t": 56222.16599999989,
      "d": 138.88874999999825,
      "v": 100
    },
    {
      "midi": 73,
      "hit": false,
      "t": 56222.165999999976,
      "d": 69.44437499999913,
      "v": 100
    },
    {
      "midi": 36,
      "hit": false,
      "t": 56333.276999999754,
      "d": 69.44437499999913,
      "v": 127
    },
    {
      "midi": 74,
      "hit": false,
      "t": 56333.27699999997,
      "d": 69.44437499999913,
      "v": 100
    },
    {
      "midi": 44,
      "hit": false,
      "t": 56444.387999999584,
      "d": 69.44437499999913,
      "v": 100
    },
    {
      "midi": 38,
      "hit": false,
      "t": 56444.387999999584,
      "d": 69.44437499999913,
      "v": 100
    },
    {
      "midi": 50,
      "hit": false,
      "t": 56444.38799999989,
      "d": 69.44437499999913,
      "v": 100
    },
    {
      "midi": 39,
      "hit": false,
      "t": 56444.38799999995,
      "d": 282.4071249999979,
      "v": 127
    },
    {
      "midi": 78,
      "hit": false,
      "t": 56444.38799999997,
      "d": 69.44437499999913,
      "v": 100
    },
    {
      "midi": 44,
      "hit": false,
      "t": 56555.49899999958,
      "d": 69.44437499999913,
      "v": 100
    },
    {
      "midi": 38,
      "hit": false,
      "t": 56555.49899999958,
      "d": 69.44437499999913,
      "v": 100
    },
    {
      "midi": 52,
      "hit": false,
      "t": 56555.49899999989,
      "d": 69.44437499999913,
      "v": 100
    },
    {
      "midi": 76,
      "hit": false,
      "t": 56555.49899999997,
      "d": 69.44437499999913,
      "v": 100
    },
    {
      "midi": 44,
      "hit": false,
      "t": 56666.60999999958,
      "d": 69.44437499999913,
      "v": 100
    },
    {
      "midi": 36,
      "hit": false,
      "t": 56666.60999999975,
      "d": 138.88874999999825,
      "v": 127
    },
    {
      "midi": 45,
      "hit": false,
      "t": 56666.609999999884,
      "d": 69.44437499999913,
      "v": 100
    },
    {
      "midi": 78,
      "hit": false,
      "t": 56666.609999999964,
      "d": 69.44437499999913,
      "v": 100
    },
    {
      "midi": 38,
      "hit": false,
      "t": 56777.720999999576,
      "d": 69.44437499999913,
      "v": 100
    },
    {
      "midi": 47,
      "hit": false,
      "t": 56777.72099999988,
      "d": 69.44437499999913,
      "v": 100
    },
    {
      "midi": 79,
      "hit": false,
      "t": 56777.72099999996,
      "d": 1245.3691249999974,
      "v": 100
    },
    {
      "midi": 49,
      "hit": false,
      "t": 56888.83199999957,
      "d": 69.44437499999913,
      "v": 100
    },
    {
      "midi": 44,
      "hit": false,
      "t": 56888.83199999957,
      "d": 69.44437499999913,
      "v": 100
    },
    {
      "midi": 36,
      "hit": false,
      "t": 56888.831999999755,
      "d": 138.88874999999825,
      "v": 127
    },
    {
      "midi": 40,
      "hit": false,
      "t": 56888.83199999988,
      "d": 212.96274999999878,
      "v": 100
    },
    {
      "midi": 73,
      "hit": false,
      "t": 56888.832000000024,
      "d": 3555.5520000000033,
      "v": 100
    },
    {
      "midi": 71,
      "hit": false,
      "t": 56888.832000000024,
      "d": 3555.5520000000033,
      "v": 100
    },
    {
      "midi": 44,
      "hit": false,
      "t": 56999.94299999957,
      "d": 69.44437499999913,
      "v": 100
    },
    {
      "midi": 44,
      "hit": false,
      "t": 57111.05399999957,
      "d": 138.88874999999825,
      "v": 100
    },
    {
      "midi": 36,
      "hit": false,
      "t": 57111.053999999756,
      "d": 69.44437499999913,
      "v": 127
    },
    {
      "midi": 36,
      "hit": false,
      "t": 57222.16499999975,
      "d": 69.44437499999913,
      "v": 127
    },
    {
      "midi": 40,
      "hit": false,
      "t": 57222.16499999988,
      "d": 69.44437499999913,
      "v": 100
    },
    {
      "midi": 44,
      "hit": false,
      "t": 57333.27599999957,
      "d": 69.44437499999913,
      "v": 100
    },
    {
      "midi": 38,
      "hit": false,
      "t": 57333.27599999957,
      "d": 69.44437499999913,
      "v": 100
    },
    {
      "midi": 43,
      "hit": false,
      "t": 57333.275999999874,
      "d": 138.88874999999825,
      "v": 100
    },
    {
      "midi": 44,
      "hit": false,
      "t": 57444.386999999566,
      "d": 69.44437499999913,
      "v": 100
    },
    {
      "midi": 27,
      "hit": false,
      "t": 57444.386999999944,
      "d": 212.96274999999878,
      "v": 127
    },
    {
      "midi": 44,
      "hit": false,
      "t": 57555.49799999956,
      "d": 69.44437499999913,
      "v": 100
    },
    {
      "midi": 36,
      "hit": false,
      "t": 57555.49799999975,
      "d": 69.44437499999913,
      "v": 127
    },
    {
      "midi": 43,
      "hit": false,
      "t": 57555.497999999876,
      "d": 138.88874999999825,
      "v": 100
    },
    {
      "midi": 44,
      "hit": false,
      "t": 57666.60899999956,
      "d": 69.44437499999913,
      "v": 100
    },
    {
      "midi": 38,
      "hit": false,
      "t": 57666.60899999956,
      "d": 69.44437499999913,
      "v": 100
    },
    {
      "midi": 36,
      "hit": false,
      "t": 57666.60899999975,
      "d": 69.44437499999913,
      "v": 127
    },
    {
      "midi": 44,
      "hit": false,
      "t": 57777.71999999956,
      "d": 69.44437499999913,
      "v": 100
    },
    {
      "midi": 36,
      "hit": false,
      "t": 57777.71999999975,
      "d": 212.96274999999878,
      "v": 127
    },
    {
      "midi": 45,
      "hit": false,
      "t": 57777.71999999988,
      "d": 138.88874999999825,
      "v": 100
    },
    {
      "midi": 44,
      "hit": false,
      "t": 57888.830999999554,
      "d": 69.44437499999913,
      "v": 100
    },
    {
      "midi": 38,
      "hit": false,
      "t": 57888.830999999554,
      "d": 69.44437499999913,
      "v": 100
    },
    {
      "midi": 44,
      "hit": false,
      "t": 57999.94199999955,
      "d": 138.88874999999825,
      "v": 100
    },
    {
      "midi": 45,
      "hit": false,
      "t": 57999.94199999988,
      "d": 138.88874999999825,
      "v": 100
    },
    {
      "midi": 36,
      "hit": false,
      "t": 58111.052999999745,
      "d": 69.44437499999913,
      "v": 127
    },
    {
      "midi": 44,
      "hit": false,
      "t": 58222.16399999955,
      "d": 69.44437499999913,
      "v": 100
    },
    {
      "midi": 38,
      "hit": false,
      "t": 58222.16399999955,
      "d": 69.44437499999913,
      "v": 100
    },
    {
      "midi": 46,
      "hit": false,
      "t": 58222.16399999988,
      "d": 138.88874999999825,
      "v": 100
    },
    {
      "midi": 44,
      "hit": false,
      "t": 58333.27499999955,
      "d": 69.44437499999913,
      "v": 100
    },
    {
      "midi": 44,
      "hit": false,
      "t": 58444.38599999955,
      "d": 69.44437499999913,
      "v": 100
    },
    {
      "midi": 36,
      "hit": false,
      "t": 58444.385999999744,
      "d": 69.44437499999913,
      "v": 127
    },
    {
      "midi": 45,
      "hit": false,
      "t": 58444.38599999988,
      "d": 138.88874999999825,
      "v": 100
    },
    {
      "midi": 44,
      "hit": false,
      "t": 58555.496999999545,
      "d": 69.44437499999913,
      "v": 100
    },
    {
      "midi": 36,
      "hit": false,
      "t": 58555.49699999974,
      "d": 69.44437499999913,
      "v": 127
    },
    {
      "midi": 44,
      "hit": false,
      "t": 58666.60799999954,
      "d": 69.44437499999913,
      "v": 100
    },
    {
      "midi": 36,
      "hit": false,
      "t": 58666.60799999974,
      "d": 138.88874999999825,
      "v": 127
    },
    {
      "midi": 78,
      "hit": false,
      "t": 58666.60799999996,
      "d": 185.18499999999767,
      "v": 100
    },
    {
      "midi": 76,
      "hit": false,
      "t": 58666.60799999996,
      "d": 185.18499999999767,
      "v": 80
    },
    {
      "midi": 44,
      "hit": false,
      "t": 58777.71899999954,
      "d": 69.44437499999913,
      "v": 100
    },
    {
      "midi": 38,
      "hit": false,
      "t": 58777.71899999954,
      "d": 69.44437499999913,
      "v": 100
    },
    {
      "midi": 40,
      "hit": false,
      "t": 58777.71899999988,
      "d": 212.96274999999878,
      "v": 100
    },
    {
      "midi": 44,
      "hit": false,
      "t": 58888.829999999536,
      "d": 138.88874999999825,
      "v": 100
    },
    {
      "midi": 36,
      "hit": false,
      "t": 58888.82999999974,
      "d": 69.44437499999913,
      "v": 127
    },
    {
      "midi": 78,
      "hit": false,
      "t": 58962.90399999995,
      "d": 185.18499999999767,
      "v": 100
    },
    {
      "midi": 36,
      "hit": false,
      "t": 58999.94099999974,
      "d": 69.44437499999913,
      "v": 127
    },
    {
      "midi": 44,
      "hit": false,
      "t": 59111.05199999954,
      "d": 69.44437499999913,
      "v": 100
    },
    {
      "midi": 38,
      "hit": false,
      "t": 59111.05199999954,
      "d": 69.44437499999913,
      "v": 100
    },
    {
      "midi": 43,
      "hit": false,
      "t": 59111.05199999988,
      "d": 138.88874999999825,
      "v": 100
    },
    {
      "midi": 44,
      "hit": false,
      "t": 59222.162999999535,
      "d": 69.44437499999913,
      "v": 100
    },
    {
      "midi": 78,
      "hit": false,
      "t": 59259.199999999946,
      "d": 185.18499999999767,
      "v": 100
    },
    {
      "midi": 44,
      "hit": false,
      "t": 59333.27399999953,
      "d": 69.44437499999913,
      "v": 100
    },
    {
      "midi": 36,
      "hit": false,
      "t": 59333.273999999736,
      "d": 69.44437499999913,
      "v": 127
    },
    {
      "midi": 43,
      "hit": false,
      "t": 59333.27399999988,
      "d": 138.88874999999825,
      "v": 100
    },
    {
      "midi": 44,
      "hit": false,
      "t": 59444.38499999953,
      "d": 69.44437499999913,
      "v": 100
    },
    {
      "midi": 38,
      "hit": false,
      "t": 59444.38499999953,
      "d": 69.44437499999913,
      "v": 100
    },
    {
      "midi": 36,
      "hit": false,
      "t": 59444.38499999973,
      "d": 69.44437499999913,
      "v": 127
    },
    {
      "midi": 44,
      "hit": false,
      "t": 59555.495999999526,
      "d": 69.44437499999913,
      "v": 100
    },
    {
      "midi": 36,
      "hit": false,
      "t": 59555.49599999973,
      "d": 212.96274999999878,
      "v": 127
    },
    {
      "midi": 45,
      "hit": false,
      "t": 59555.49599999988,
      "d": 138.88874999999825,
      "v": 100
    },
    {
      "midi": 78,
      "hit": false,
      "t": 59555.49599999994,
      "d": 185.18499999999767,
      "v": 100
    },
    {
      "midi": 44,
      "hit": false,
      "t": 59666.60699999952,
      "d": 69.44437499999913,
      "v": 100
    },
    {
      "midi": 38,
      "hit": false,
      "t": 59666.60699999952,
      "d": 69.44437499999913,
      "v": 100
    },
    {
      "midi": 44,
      "hit": false,
      "t": 59777.71799999952,
      "d": 138.88874999999825,
      "v": 100
    },
    {
      "midi": 45,
      "hit": false,
      "t": 59777.717999999884,
      "d": 138.88874999999825,
      "v": 100
    },
    {
      "midi": 76,
      "hit": false,
      "t": 59851.791999999936,
      "d": 185.18499999999767,
      "v": 100
    },
    {
      "midi": 36,
      "hit": false,
      "t": 59888.82899999973,
      "d": 69.44437499999913,
      "v": 127
    },
    {
      "midi": 44,
      "hit": false,
      "t": 59999.93999999952,
      "d": 69.44437499999913,
      "v": 100
    },
    {
      "midi": 38,
      "hit": false,
      "t": 59999.93999999952,
      "d": 69.44437499999913,
      "v": 100
    },
    {
      "midi": 50,
      "hit": false,
      "t": 59999.939999999886,
      "d": 69.44437499999913,
      "v": 100
    },
    {
      "midi": 44,
      "hit": false,
      "t": 60111.05099999952,
      "d": 69.44437499999913,
      "v": 100
    },
    {
      "midi": 38,
      "hit": false,
      "t": 60111.05099999952,
      "d": 69.44437499999913,
      "v": 100
    },
    {
      "midi": 52,
      "hit": false,
      "t": 60111.05099999988,
      "d": 69.44437499999913,
      "v": 100
    },
    {
      "midi": 27,
      "hit": false,
      "t": 60111.05099999994,
      "d": 212.96274999999878,
      "v": 127
    },
    {
      "midi": 74,
      "hit": false,
      "t": 60148.08799999993,
      "d": 185.18499999999767,
      "v": 100
    },
    {
      "midi": 44,
      "hit": false,
      "t": 60222.16199999952,
      "d": 69.44437499999913,
      "v": 100
    },
    {
      "midi": 36,
      "hit": false,
      "t": 60222.16199999973,
      "d": 138.88874999999825,
      "v": 127
    },
    {
      "midi": 45,
      "hit": false,
      "t": 60222.16199999988,
      "d": 69.44437499999913,
      "v": 100
    },
    {
      "midi": 76,
      "hit": false,
      "t": 60222.161999999946,
      "d": 32.4073750000025,
      "v": 100
    },
    {
      "midi": 78,
      "hit": false,
      "t": 60277.71749999995,
      "d": 32.4073750000025,
      "v": 100
    },
    {
      "midi": 38,
      "hit": false,
      "t": 60333.27299999951,
      "d": 69.44437499999913,
      "v": 100
    },
    {
      "midi": 47,
      "hit": false,
      "t": 60333.27299999988,
      "d": 69.44437499999913,
      "v": 100
    },
    {
      "midi": 79,
      "hit": false,
      "t": 60333.27299999995,
      "d": 32.4073750000025,
      "v": 100
    },
    {
      "midi": 81,
      "hit": false,
      "t": 60388.82849999995,
      "d": 32.4073750000025,
      "v": 100
    },
    {
      "midi": 49,
      "hit": false,
      "t": 60444.38399999951,
      "d": 69.44437499999913,
      "v": 100
    },
    {
      "midi": 44,
      "hit": false,
      "t": 60444.38399999951,
      "d": 69.44437499999913,
      "v": 100
    },
    {
      "midi": 36,
      "hit": false,
      "t": 60444.38399999973,
      "d": 138.88874999999825,
      "v": 127
    },
    {
      "midi": 40,
      "hit": false,
      "t": 60444.383999999875,
      "d": 212.96274999999878,
      "v": 100
    },
    {
      "midi": 76,
      "hit": false,
      "t": 60444.383999999925,
      "d": 1134.2581250000003,
      "v": 100
    },
    {
      "midi": 83,
      "hit": false,
      "t": 60444.383999999955,
      "d": 69.44437499999913,
      "v": 100
    },
    {
      "midi": 86,
      "hit": false,
      "t": 60444.38400000003,
      "d": 111.11099999999715,
      "v": 127
    },
    {
      "midi": 79,
      "hit": false,
      "t": 60444.38400000003,
      "d": 111.11099999999715,
      "v": 127
    },
    {
      "midi": 44,
      "hit": false,
      "t": 60555.49499999951,
      "d": 69.44437499999913,
      "v": 100
    },
    {
      "midi": 79,
      "hit": false,
      "t": 60555.49499999995,
      "d": 69.44437499999913,
      "v": 100
    },
    {
      "midi": 86,
      "hit": false,
      "t": 60555.495000000024,
      "d": 111.11099999999715,
      "v": 127
    },
    {
      "midi": 79,
      "hit": false,
      "t": 60555.495000000024,
      "d": 111.11099999999715,
      "v": 127
    },
    {
      "midi": 44,
      "hit": false,
      "t": 60666.605999999505,
      "d": 138.88874999999825,
      "v": 100
    },
    {
      "midi": 36,
      "hit": false,
      "t": 60666.60599999973,
      "d": 69.44437499999913,
      "v": 127
    },
    {
      "midi": 81,
      "hit": false,
      "t": 60666.60599999995,
      "d": 69.44437499999913,
      "v": 100
    },
    {
      "midi": 36,
      "hit": false,
      "t": 60777.71699999973,
      "d": 69.44437499999913,
      "v": 127
    },
    {
      "midi": 40,
      "hit": false,
      "t": 60777.71699999987,
      "d": 69.44437499999913,
      "v": 100
    },
    {
      "midi": 78,
      "hit": false,
      "t": 60777.716999999946,
      "d": 69.44437499999913,
      "v": 100
    },
    {
      "midi": 85,
      "hit": false,
      "t": 60777.71700000002,
      "d": 111.11099999999715,
      "v": 127
    },
    {
      "midi": 79,
      "hit": false,
      "t": 60777.71700000002,
      "d": 111.11099999999715,
      "v": 127
    },
    {
      "midi": 44,
      "hit": false,
      "t": 60888.82799999951,
      "d": 69.44437499999913,
      "v": 100
    },
    {
      "midi": 38,
      "hit": false,
      "t": 60888.82799999951,
      "d": 69.44437499999913,
      "v": 100
    },
    {
      "midi": 43,
      "hit": false,
      "t": 60888.82799999987,
      "d": 138.88874999999825,
      "v": 100
    },
    {
      "midi": 79,
      "hit": false,
      "t": 60888.82799999994,
      "d": 69.44437499999913,
      "v": 100
    },
    {
      "midi": 39,
      "hit": false,
      "t": 60888.82799999994,
      "d": 282.4071249999979,
      "v": 127
    },
    {
      "midi": 85,
      "hit": false,
      "t": 60888.828000000016,
      "d": 111.11099999999715,
      "v": 127
    },
    {
      "midi": 79,
      "hit": false,
      "t": 60888.828000000016,
      "d": 111.11099999999715,
      "v": 127
    },
    {
      "midi": 44,
      "hit": false,
      "t": 60999.938999999504,
      "d": 69.44437499999913,
      "v": 100
    },
    {
      "midi": 81,
      "hit": false,
      "t": 60999.93899999994,
      "d": 69.44437499999913,
      "v": 100
    },
    {
      "midi": 44,
      "hit": false,
      "t": 61111.0499999995,
      "d": 69.44437499999913,
      "v": 100
    },
    {
      "midi": 36,
      "hit": false,
      "t": 61111.04999999973,
      "d": 69.44437499999913,
      "v": 127
    },
    {
      "midi": 43,
      "hit": false,
      "t": 61111.04999999987,
      "d": 138.88874999999825,
      "v": 100
    },
    {
      "midi": 79,
      "hit": false,
      "t": 61111.04999999994,
      "d": 69.44437499999913,
      "v": 100
    },
    {
      "midi": 75,
      "hit": false,
      "t": 61111.04999999999,
      "d": 138.88874999999825,
      "v": 100
    },
    {
      "midi": 84,
      "hit": false,
      "t": 61111.05000000001,
      "d": 111.11099999999715,
      "v": 127
    },
    {
      "midi": 79,
      "hit": false,
      "t": 61111.05000000001,
      "d": 111.11099999999715,
      "v": 127
    },
    {
      "midi": 38,
      "hit": false,
      "t": 61222.1609999995,
      "d": 69.44437499999913,
      "v": 100
    },
    {
      "midi": 36,
      "hit": false,
      "t": 61222.16099999972,
      "d": 69.44437499999913,
      "v": 127
    },
    {
      "midi": 78,
      "hit": false,
      "t": 61222.160999999935,
      "d": 69.44437499999913,
      "v": 100
    },
    {
      "midi": 84,
      "hit": false,
      "t": 61222.16100000001,
      "d": 111.11099999999715,
      "v": 127
    },
    {
      "midi": 79,
      "hit": false,
      "t": 61222.16100000001,
      "d": 111.11099999999715,
      "v": 127
    },
    {
      "midi": 44,
      "hit": false,
      "t": 61333.271999999495,
      "d": 69.44437499999913,
      "v": 100
    },
    {
      "midi": 36,
      "hit": false,
      "t": 61333.27199999972,
      "d": 212.96274999999878,
      "v": 127
    },
    {
      "midi": 45,
      "hit": false,
      "t": 61333.27199999987,
      "d": 138.88874999999825,
      "v": 100
    },
    {
      "midi": 76,
      "hit": false,
      "t": 61333.27199999993,
      "d": 69.44437499999913,
      "v": 100
    },
    {
      "midi": 44,
      "hit": false,
      "t": 61444.38299999949,
      "d": 69.44437499999913,
      "v": 100
    },
    {
      "midi": 38,
      "hit": false,
      "t": 61444.38299999949,
      "d": 69.44437499999913,
      "v": 100
    },
    {
      "midi": 79,
      "hit": false,
      "t": 61444.38299999993,
      "d": 69.44437499999913,
      "v": 100
    },
    {
      "midi": 75,
      "hit": false,
      "t": 61444.38299999999,
      "d": 212.96274999999878,
      "v": 100
    },
    {
      "midi": 83,
      "hit": false,
      "t": 61444.383,
      "d": 111.11099999999715,
      "v": 127
    },
    {
      "midi": 79,
      "hit": false,
      "t": 61444.383,
      "d": 111.11099999999715,
      "v": 127
    },
    {
      "midi": 44,
      "hit": false,
      "t": 61555.49399999949,
      "d": 138.88874999999825,
      "v": 100
    },
    {
      "midi": 45,
      "hit": false,
      "t": 61555.493999999875,
      "d": 69.44437499999913,
      "v": 100
    },
    {
      "midi": 78,
      "hit": false,
      "t": 61555.493999999926,
      "d": 69.44437499999913,
      "v": 100
    },
    {
      "midi": 83,
      "hit": false,
      "t": 61555.494,
      "d": 111.11099999999715,
      "v": 127
    },
    {
      "midi": 79,
      "hit": false,
      "t": 61555.494,
      "d": 111.11099999999715,
      "v": 127
    },
    {
      "midi": 36,
      "hit": false,
      "t": 61666.60499999972,
      "d": 69.44437499999913,
      "v": 127
    },
    {
      "midi": 43,
      "hit": false,
      "t": 61666.60499999987,
      "d": 69.44437499999913,
      "v": 100
    },
    {
      "midi": 76,
      "hit": false,
      "t": 61666.60499999992,
      "d": 69.44437499999913,
      "v": 100
    },
    {
      "midi": 44,
      "hit": false,
      "t": 61777.71599999949,
      "d": 69.44437499999913,
      "v": 100
    },
    {
      "midi": 38,
      "hit": false,
      "t": 61777.71599999949,
      "d": 69.44437499999913,
      "v": 100
    },
    {
      "midi": 45,
      "hit": false,
      "t": 61777.71599999987,
      "d": 69.44437499999913,
      "v": 100
    },
    {
      "midi": 78,
      "hit": false,
      "t": 61777.71599999992,
      "d": 69.44437499999913,
      "v": 100
    },
    {
      "midi": 44,
      "hit": false,
      "t": 61888.82699999949,
      "d": 69.44437499999913,
      "v": 100
    },
    {
      "midi": 46,
      "hit": false,
      "t": 61888.82699999987,
      "d": 69.44437499999913,
      "v": 100
    },
    {
      "midi": 79,
      "hit": false,
      "t": 61888.82699999992,
      "d": 69.44437499999913,
      "v": 100
    },
    {
      "midi": 27,
      "hit": false,
      "t": 61888.82699999994,
      "d": 212.96274999999878,
      "v": 127
    },
    {
      "midi": 44,
      "hit": false,
      "t": 61999.937999999485,
      "d": 138.88874999999825,
      "v": 100
    },
    {
      "midi": 36,
      "hit": false,
      "t": 61999.93799999972,
      "d": 69.44437499999913,
      "v": 127
    },
    {
      "midi": 45,
      "hit": false,
      "t": 61999.937999999864,
      "d": 69.44437499999913,
      "v": 100
    },
    {
      "midi": 81,
      "hit": false,
      "t": 61999.937999999915,
      "d": 69.44437499999913,
      "v": 100
    },
    {
      "midi": 36,
      "hit": false,
      "t": 62111.048999999715,
      "d": 69.44437499999913,
      "v": 127
    },
    {
      "midi": 43,
      "hit": false,
      "t": 62111.04899999986,
      "d": 69.44437499999913,
      "v": 100
    },
    {
      "midi": 79,
      "hit": false,
      "t": 62111.04899999991,
      "d": 69.44437499999913,
      "v": 100
    },
    {
      "midi": 44,
      "hit": false,
      "t": 62222.15999999949,
      "d": 69.44437499999913,
      "v": 100
    },
    {
      "midi": 36,
      "hit": false,
      "t": 62222.15999999971,
      "d": 138.88874999999825,
      "v": 127
    },
    {
      "midi": 83,
      "hit": false,
      "t": 62222.15999999991,
      "d": 69.44437499999913,
      "v": 100
    },
    {
      "midi": 76,
      "hit": false,
      "t": 62222.15999999992,
      "d": 1134.2581250000003,
      "v": 100
    },
    {
      "midi": 83,
      "hit": false,
      "t": 62222.159999999996,
      "d": 111.11099999999715,
      "v": 127
    },
    {
      "midi": 79,
      "hit": false,
      "t": 62222.159999999996,
      "d": 111.11099999999715,
      "v": 127
    },
    {
      "midi": 44,
      "hit": false,
      "t": 62333.270999999484,
      "d": 69.44437499999913,
      "v": 100
    },
    {
      "midi": 38,
      "hit": false,
      "t": 62333.270999999484,
      "d": 69.44437499999913,
      "v": 100
    },
    {
      "midi": 40,
      "hit": false,
      "t": 62333.27099999986,
      "d": 212.96274999999878,
      "v": 100
    },
    {
      "midi": 79,
      "hit": false,
      "t": 62333.270999999906,
      "d": 69.44437499999913,
      "v": 100
    },
    {
      "midi": 83,
      "hit": false,
      "t": 62333.27099999999,
      "d": 111.11099999999715,
      "v": 127
    },
    {
      "midi": 79,
      "hit": false,
      "t": 62333.27099999999,
      "d": 111.11099999999715,
      "v": 127
    },
    {
      "midi": 44,
      "hit": false,
      "t": 62444.38199999948,
      "d": 138.88874999999825,
      "v": 100
    },
    {
      "midi": 36,
      "hit": false,
      "t": 62444.381999999714,
      "d": 69.44437499999913,
      "v": 127
    },
    {
      "midi": 81,
      "hit": false,
      "t": 62444.3819999999,
      "d": 69.44437499999913,
      "v": 100
    },
    {
      "midi": 36,
      "hit": false,
      "t": 62555.49299999971,
      "d": 69.44437499999913,
      "v": 127
    },
    {
      "midi": 78,
      "hit": false,
      "t": 62555.4929999999,
      "d": 69.44437499999913,
      "v": 100
    },
    {
      "midi": 81,
      "hit": false,
      "t": 62555.49299999999,
      "d": 111.11099999999715,
      "v": 127
    },
    {
      "midi": 78,
      "hit": false,
      "t": 62555.49299999999,
      "d": 111.11099999999715,
      "v": 127
    },
    {
      "midi": 44,
      "hit": false,
      "t": 62666.60399999948,
      "d": 69.44437499999913,
      "v": 100
    },
    {
      "midi": 38,
      "hit": false,
      "t": 62666.60399999948,
      "d": 69.44437499999913,
      "v": 100
    },
    {
      "midi": 43,
      "hit": false,
      "t": 62666.60399999986,
      "d": 138.88874999999825,
      "v": 100
    },
    {
      "midi": 79,
      "hit": false,
      "t": 62666.6039999999,
      "d": 69.44437499999913,
      "v": 100
    },
    {
      "midi": 39,
      "hit": false,
      "t": 62666.60399999994,
      "d": 69.44437499999913,
      "v": 127
    },
    {
      "midi": 81,
      "hit": false,
      "t": 62666.603999999985,
      "d": 111.11099999999715,
      "v": 127
    },
    {
      "midi": 78,
      "hit": false,
      "t": 62666.603999999985,
      "d": 111.11099999999715,
      "v": 127
    },
    {
      "midi": 44,
      "hit": false,
      "t": 62777.71499999948,
      "d": 69.44437499999913,
      "v": 100
    },
    {
      "midi": 81,
      "hit": false,
      "t": 62777.714999999895,
      "d": 69.44437499999913,
      "v": 100
    },
    {
      "midi": 39,
      "hit": false,
      "t": 62777.71499999994,
      "d": 138.88874999999825,
      "v": 127
    },
    {
      "midi": 44,
      "hit": false,
      "t": 62888.82599999948,
      "d": 69.44437499999913,
      "v": 100
    },
    {
      "midi": 36,
      "hit": false,
      "t": 62888.82599999971,
      "d": 69.44437499999913,
      "v": 127
    },
    {
      "midi": 43,
      "hit": false,
      "t": 62888.82599999986,
      "d": 138.88874999999825,
      "v": 100
    },
    {
      "midi": 79,
      "hit": false,
      "t": 62888.82599999989,
      "d": 69.44437499999913,
      "v": 100
    },
    {
      "midi": 79,
      "hit": false,
      "t": 62888.82599999998,
      "d": 111.11099999999715,
      "v": 127
    },
    {
      "midi": 76,
      "hit": false,
      "t": 62888.82599999998,
      "d": 111.11099999999715,
      "v": 127
    },
    {
      "midi": 75,
      "hit": false,
      "t": 62888.82599999999,
      "d": 138.88874999999825,
      "v": 100
    },
    {
      "midi": 38,
      "hit": false,
      "t": 62999.936999999474,
      "d": 69.44437499999913,
      "v": 100
    },
    {
      "midi": 36,
      "hit": false,
      "t": 62999.93699999971,
      "d": 69.44437499999913,
      "v": 127
    },
    {
      "midi": 78,
      "hit": false,
      "t": 62999.93699999989,
      "d": 69.44437499999913,
      "v": 100
    },
    {
      "midi": 39,
      "hit": false,
      "t": 62999.93699999994,
      "d": 69.44437499999913,
      "v": 127
    },
    {
      "midi": 79,
      "hit": false,
      "t": 62999.936999999976,
      "d": 111.11099999999715,
      "v": 127
    },
    {
      "midi": 76,
      "hit": false,
      "t": 62999.936999999976,
      "d": 111.11099999999715,
      "v": 127
    },
    {
      "midi": 44,
      "hit": false,
      "t": 63111.04799999947,
      "d": 69.44437499999913,
      "v": 100
    },
    {
      "midi": 36,
      "hit": false,
      "t": 63111.047999999704,
      "d": 212.96274999999878,
      "v": 127
    },
    {
      "midi": 45,
      "hit": false,
      "t": 63111.047999999864,
      "d": 138.88874999999825,
      "v": 100
    },
    {
      "midi": 76,
      "hit": false,
      "t": 63111.047999999886,
      "d": 69.44437499999913,
      "v": 100
    },
    {
      "midi": 44,
      "hit": false,
      "t": 63222.15899999947,
      "d": 69.44437499999913,
      "v": 100
    },
    {
      "midi": 38,
      "hit": false,
      "t": 63222.15899999947,
      "d": 69.44437499999913,
      "v": 100
    },
    {
      "midi": 79,
      "hit": false,
      "t": 63222.15899999988,
      "d": 69.44437499999913,
      "v": 100
    },
    {
      "midi": 78,
      "hit": false,
      "t": 63222.15899999997,
      "d": 111.11099999999715,
      "v": 127
    },
    {
      "midi": 74,
      "hit": false,
      "t": 63222.15899999997,
      "d": 111.11099999999715,
      "v": 127
    },
    {
      "midi": 75,
      "hit": false,
      "t": 63222.158999999985,
      "d": 212.96274999999878,
      "v": 100
    },
    {
      "midi": 44,
      "hit": false,
      "t": 63333.269999999466,
      "d": 138.88874999999825,
      "v": 100
    },
    {
      "midi": 38,
      "hit": false,
      "t": 63333.269999999466,
      "d": 138.88874999999825,
      "v": 100
    },
    {
      "midi": 50,
      "hit": false,
      "t": 63333.269999999866,
      "d": 55.55550000000221,
      "v": 100
    },
    {
      "midi": 78,
      "hit": false,
      "t": 63333.26999999988,
      "d": 69.44437499999913,
      "v": 100
    },
    {
      "midi": 78,
      "hit": false,
      "t": 63333.26999999997,
      "d": 111.11099999999715,
      "v": 127
    },
    {
      "midi": 74,
      "hit": false,
      "t": 63333.26999999997,
      "d": 111.11099999999715,
      "v": 127
    },
    {
      "midi": 52,
      "hit": false,
      "t": 63388.82549999987,
      "d": 55.55550000000221,
      "v": 100
    },
    {
      "midi": 36,
      "hit": false,
      "t": 63444.3809999997,
      "d": 69.44437499999913,
      "v": 127
    },
    {
      "midi": 47,
      "hit": false,
      "t": 63444.38099999987,
      "d": 111.11099999999715,
      "v": 100
    },
    {
      "midi": 76,
      "hit": false,
      "t": 63444.38099999988,
      "d": 69.44437499999913,
      "v": 100
    },
    {
      "midi": 44,
      "hit": false,
      "t": 63555.49199999947,
      "d": 69.44437499999913,
      "v": 100
    },
    {
      "midi": 38,
      "hit": false,
      "t": 63555.49199999947,
      "d": 69.44437499999913,
      "v": 100
    },
    {
      "midi": 46,
      "hit": false,
      "t": 63555.49199999987,
      "d": 111.11099999999715,
      "v": 100
    },
    {
      "midi": 78,
      "hit": false,
      "t": 63555.491999999875,
      "d": 69.44437499999913,
      "v": 100
    },
    {
      "midi": 44,
      "hit": false,
      "t": 63666.602999999464,
      "d": 69.44437499999913,
      "v": 100
    },
    {
      "midi": 38,
      "hit": false,
      "t": 63666.602999999464,
      "d": 69.44437499999913,
      "v": 100
    },
    {
      "midi": 45,
      "hit": false,
      "t": 63666.602999999865,
      "d": 111.11099999999715,
      "v": 100
    },
    {
      "midi": 79,
      "hit": false,
      "t": 63666.60299999987,
      "d": 69.44437499999913,
      "v": 100
    },
    {
      "midi": 27,
      "hit": false,
      "t": 63666.60299999994,
      "d": 212.96274999999878,
      "v": 127
    },
    {
      "midi": 44,
      "hit": false,
      "t": 63777.71399999946,
      "d": 69.44437499999913,
      "v": 100
    },
    {
      "midi": 38,
      "hit": false,
      "t": 63777.71399999946,
      "d": 69.44437499999913,
      "v": 100
    },
    {
      "midi": 36,
      "hit": false,
      "t": 63777.7139999997,
      "d": 138.88874999999825,
      "v": 127
    },
    {
      "midi": 43,
      "hit": false,
      "t": 63777.71399999986,
      "d": 111.11099999999715,
      "v": 100
    },
    {
      "midi": 81,
      "hit": false,
      "t": 63777.71399999987,
      "d": 69.44437499999913,
      "v": 100
    },
    {
      "midi": 38,
      "hit": false,
      "t": 63888.82499999946,
      "d": 69.44437499999913,
      "v": 100
    },
    {
      "midi": 38,
      "hit": false,
      "t": 63888.82499999986,
      "d": 111.11099999999715,
      "v": 100
    },
    {
      "midi": 79,
      "hit": false,
      "t": 63888.824999999866,
      "d": 1245.3691249999974,
      "v": 100
    },
    {
      "midi": 49,
      "hit": false,
      "t": 63999.935999999456,
      "d": 69.44437499999913,
      "v": 100
    },
    {
      "midi": 44,
      "hit": false,
      "t": 63999.935999999456,
      "d": 69.44437499999913,
      "v": 100
    },
    {
      "midi": 36,
      "hit": false,
      "t": 63999.9359999997,
      "d": 138.88874999999825,
      "v": 127
    },
    {
      "midi": 40,
      "hit": false,
      "t": 63999.935999999856,
      "d": 212.96274999999878,
      "v": 100
    },
    {
      "midi": 74,
      "hit": false,
      "t": 63999.935999999965,
      "d": 3555.5520000000033,
      "v": 100
    },
    {
      "midi": 71,
      "hit": false,
      "t": 63999.935999999965,
      "d": 3555.5520000000033,
      "v": 100
    },
    {
      "midi": 44,
      "hit": false,
      "t": 64111.04699999945,
      "d": 69.44437499999913,
      "v": 100
    },
    {
      "midi": 44,
      "hit": false,
      "t": 64222.15799999945,
      "d": 138.88874999999825,
      "v": 100
    },
    {
      "midi": 36,
      "hit": false,
      "t": 64222.157999999705,
      "d": 69.44437499999913,
      "v": 127
    },
    {
      "midi": 36,
      "hit": false,
      "t": 64333.2689999997,
      "d": 69.44437499999913,
      "v": 127
    },
    {
      "midi": 40,
      "hit": false,
      "t": 64333.268999999855,
      "d": 69.44437499999913,
      "v": 100
    },
    {
      "midi": 44,
      "hit": false,
      "t": 64444.37999999945,
      "d": 69.44437499999913,
      "v": 100
    },
    {
      "midi": 38,
      "hit": false,
      "t": 64444.37999999945,
      "d": 69.44437499999913,
      "v": 100
    },
    {
      "midi": 43,
      "hit": false,
      "t": 64444.37999999985,
      "d": 138.88874999999825,
      "v": 100
    },
    {
      "midi": 39,
      "hit": false,
      "t": 64444.37999999994,
      "d": 282.4071249999979,
      "v": 127
    },
    {
      "midi": 44,
      "hit": false,
      "t": 64555.49099999945,
      "d": 69.44437499999913,
      "v": 100
    },
    {
      "midi": 71,
      "hit": false,
      "t": 64555.49099999992,
      "d": 69.44437499999913,
      "v": 100
    },
    {
      "midi": 44,
      "hit": false,
      "t": 64666.601999999446,
      "d": 69.44437499999913,
      "v": 100
    },
    {
      "midi": 36,
      "hit": false,
      "t": 64666.6019999997,
      "d": 69.44437499999913,
      "v": 127
    },
    {
      "midi": 43,
      "hit": false,
      "t": 64666.60199999985,
      "d": 138.88874999999825,
      "v": 100
    },
    {
      "midi": 76,
      "hit": false,
      "t": 64666.60199999992,
      "d": 69.44437499999913,
      "v": 100
    },
    {
      "midi": 44,
      "hit": false,
      "t": 64777.71299999944,
      "d": 69.44437499999913,
      "v": 100
    },
    {
      "midi": 38,
      "hit": false,
      "t": 64777.71299999944,
      "d": 69.44437499999913,
      "v": 100
    },
    {
      "midi": 36,
      "hit": false,
      "t": 64777.7129999997,
      "d": 69.44437499999913,
      "v": 127
    },
    {
      "midi": 79,
      "hit": false,
      "t": 64777.712999999916,
      "d": 69.44437499999913,
      "v": 100
    },
    {
      "midi": 44,
      "hit": false,
      "t": 64888.82399999944,
      "d": 69.44437499999913,
      "v": 100
    },
    {
      "midi": 36,
      "hit": false,
      "t": 64888.823999999695,
      "d": 212.96274999999878,
      "v": 127
    },
    {
      "midi": 45,
      "hit": false,
      "t": 64888.823999999855,
      "d": 138.88874999999825,
      "v": 100
    },
    {
      "midi": 79,
      "hit": false,
      "t": 64888.82399999991,
      "d": 69.44437499999913,
      "v": 100
    },
    {
      "midi": 44,
      "hit": false,
      "t": 64999.93499999944,
      "d": 69.44437499999913,
      "v": 100
    },
    {
      "midi": 38,
      "hit": false,
      "t": 64999.93499999944,
      "d": 69.44437499999913,
      "v": 100
    },
    {
      "midi": 81,
      "hit": false,
      "t": 64999.93499999991,
      "d": 69.44437499999913,
      "v": 100
    },
    {
      "midi": 44,
      "hit": false,
      "t": 65111.045999999435,
      "d": 138.88874999999825,
      "v": 100
    },
    {
      "midi": 45,
      "hit": false,
      "t": 65111.04599999986,
      "d": 138.88874999999825,
      "v": 100
    },
    {
      "midi": 79,
      "hit": false,
      "t": 65111.04599999991,
      "d": 69.44437499999913,
      "v": 100
    },
    {
      "midi": 36,
      "hit": false,
      "t": 65222.156999999694,
      "d": 69.44437499999913,
      "v": 127
    },
    {
      "midi": 78,
      "hit": false,
      "t": 65222.156999999905,
      "d": 69.44437499999913,
      "v": 100
    },
    {
      "midi": 44,
      "hit": false,
      "t": 65333.267999999436,
      "d": 69.44437499999913,
      "v": 100
    },
    {
      "midi": 38,
      "hit": false,
      "t": 65333.267999999436,
      "d": 69.44437499999913,
      "v": 100
    },
    {
      "midi": 46,
      "hit": false,
      "t": 65333.26799999986,
      "d": 138.88874999999825,
      "v": 100
    },
    {
      "midi": 79,
      "hit": false,
      "t": 65333.2679999999,
      "d": 69.44437499999913,
      "v": 100
    },
    {
      "midi": 44,
      "hit": false,
      "t": 65444.37899999943,
      "d": 69.44437499999913,
      "v": 100
    },
    {
      "midi": 78,
      "hit": false,
      "t": 65444.3789999999,
      "d": 69.44437499999913,
      "v": 100
    },
    {
      "midi": 27,
      "hit": false,
      "t": 65444.378999999935,
      "d": 212.96274999999878,
      "v": 127
    },
    {
      "midi": 44,
      "hit": false,
      "t": 65555.48999999944,
      "d": 69.4443750000064,
      "v": 100
    },
    {
      "midi": 36,
      "hit": false,
      "t": 65555.4899999997,
      "d": 69.4443750000064,
      "v": 127
    },
    {
      "midi": 45,
      "hit": false,
      "t": 65555.48999999986,
      "d": 138.88874999999825,
      "v": 100
    },
    {
      "midi": 76,
      "hit": false,
      "t": 65555.4899999999,
      "d": 69.4443750000064,
      "v": 100
    },
    {
      "midi": 44,
      "hit": false,
      "t": 65666.60099999944,
      "d": 69.4443750000064,
      "v": 100
    },
    {
      "midi": 36,
      "hit": false,
      "t": 65666.6009999997,
      "d": 69.4443750000064,
      "v": 127
    },
    {
      "midi": 71,
      "hit": false,
      "t": 65666.60099999991,
      "d": 675.9252500000002,
      "v": 100
    },
    {
      "midi": 44,
      "hit": false,
      "t": 65777.71199999945,
      "d": 69.4443750000064,
      "v": 100
    },
    {
      "midi": 36,
      "hit": false,
      "t": 65777.71199999971,
      "d": 138.88874999999825,
      "v": 127
    },
    {
      "midi": 44,
      "hit": false,
      "t": 65888.82299999945,
      "d": 69.4443750000064,
      "v": 100
    },
    {
      "midi": 38,
      "hit": false,
      "t": 65888.82299999945,
      "d": 69.4443750000064,
      "v": 100
    },
    {
      "midi": 40,
      "hit": false,
      "t": 65888.82299999986,
      "d": 212.96275000000605,
      "v": 100
    },
    {
      "midi": 44,
      "hit": false,
      "t": 65999.93399999946,
      "d": 138.88874999999825,
      "v": 100
    },
    {
      "midi": 36,
      "hit": false,
      "t": 65999.9339999997,
      "d": 69.4443750000064,
      "v": 127
    },
    {
      "midi": 64,
      "hit": false,
      "t": 65999.93399999986,
      "d": 291.6663750000007,
      "v": 100
    },
    {
      "midi": 36,
      "hit": false,
      "t": 66111.0449999997,
      "d": 69.4443750000064,
      "v": 127
    },
    {
      "midi": 44,
      "hit": false,
      "t": 66222.15599999945,
      "d": 69.4443750000064,
      "v": 100
    },
    {
      "midi": 38,
      "hit": false,
      "t": 66222.15599999945,
      "d": 69.4443750000064,
      "v": 100
    },
    {
      "midi": 43,
      "hit": false,
      "t": 66222.15599999987,
      "d": 138.88874999999825,
      "v": 100
    },
    {
      "midi": 44,
      "hit": false,
      "t": 66333.26699999945,
      "d": 69.4443750000064,
      "v": 100
    },
    {
      "midi": 67,
      "hit": false,
      "t": 66333.26699999986,
      "d": 212.96275000000605,
      "v": 100
    },
    {
      "midi": 44,
      "hit": false,
      "t": 66444.37799999946,
      "d": 69.4443750000064,
      "v": 100
    },
    {
      "midi": 36,
      "hit": false,
      "t": 66444.37799999972,
      "d": 69.4443750000064,
      "v": 127
    },
    {
      "midi": 43,
      "hit": false,
      "t": 66444.37799999987,
      "d": 138.88874999999825,
      "v": 100
    },
    {
      "midi": 44,
      "hit": false,
      "t": 66555.48899999946,
      "d": 69.4443750000064,
      "v": 100
    },
    {
      "midi": 38,
      "hit": false,
      "t": 66555.48899999946,
      "d": 69.4443750000064,
      "v": 100
    },
    {
      "midi": 36,
      "hit": false,
      "t": 66555.48899999972,
      "d": 69.4443750000064,
      "v": 127
    },
    {
      "midi": 44,
      "hit": false,
      "t": 66666.59999999947,
      "d": 69.4443750000064,
      "v": 100
    },
    {
      "midi": 36,
      "hit": false,
      "t": 66666.59999999973,
      "d": 212.96275000000605,
      "v": 127
    },
    {
      "midi": 45,
      "hit": false,
      "t": 66666.59999999986,
      "d": 138.88874999999825,
      "v": 100
    },
    {
      "midi": 74,
      "hit": false,
      "t": 66666.59999999987,
      "d": 3231.47825,
      "v": 100
    },
    {
      "midi": 69,
      "hit": false,
      "t": 66666.5999999999,
      "d": 212.96275000000605,
      "v": 100
    },
    {
      "midi": 44,
      "hit": false,
      "t": 66777.71099999947,
      "d": 69.4443750000064,
      "v": 100
    },
    {
      "midi": 38,
      "hit": false,
      "t": 66777.71099999947,
      "d": 69.4443750000064,
      "v": 100
    },
    {
      "midi": 44,
      "hit": false,
      "t": 66888.82199999948,
      "d": 138.88874999999825,
      "v": 100
    },
    {
      "midi": 45,
      "hit": false,
      "t": 66888.82199999985,
      "d": 138.88874999999825,
      "v": 100
    },
    {
      "midi": 36,
      "hit": false,
      "t": 66999.93299999974,
      "d": 69.4443750000064,
      "v": 127
    },
    {
      "midi": 67,
      "hit": false,
      "t": 66999.93299999992,
      "d": 249.99975000000268,
      "v": 100
    },
    {
      "midi": 44,
      "hit": false,
      "t": 67111.04399999947,
      "d": 69.4443750000064,
      "v": 100
    },
    {
      "midi": 38,
      "hit": false,
      "t": 67111.04399999947,
      "d": 69.4443750000064,
      "v": 100
    },
    {
      "midi": 50,
      "hit": false,
      "t": 67111.04399999985,
      "d": 69.4443750000064,
      "v": 100
    },
    {
      "midi": 44,
      "hit": false,
      "t": 67222.15499999947,
      "d": 69.4443750000064,
      "v": 100
    },
    {
      "midi": 38,
      "hit": false,
      "t": 67222.15499999947,
      "d": 69.4443750000064,
      "v": 100
    },
    {
      "midi": 52,
      "hit": false,
      "t": 67222.15499999985,
      "d": 69.4443750000064,
      "v": 100
    },
    {
      "midi": 44,
      "hit": false,
      "t": 67333.26599999948,
      "d": 69.4443750000064,
      "v": 100
    },
    {
      "midi": 36,
      "hit": false,
      "t": 67333.26599999976,
      "d": 138.88874999999825,
      "v": 127
    },
    {
      "midi": 45,
      "hit": false,
      "t": 67333.26599999986,
      "d": 69.4443750000064,
      "v": 100
    },
    {
      "midi": 74,
      "hit": false,
      "t": 67333.26599999992,
      "d": 138.88874999999825,
      "v": 100
    },
    {
      "midi": 38,
      "hit": false,
      "t": 67444.37699999948,
      "d": 69.4443750000064,
      "v": 100
    },
    {
      "midi": 47,
      "hit": false,
      "t": 67444.37699999986,
      "d": 69.4443750000064,
      "v": 100
    },
    {
      "midi": 49,
      "hit": false,
      "t": 67555.48799999949,
      "d": 69.4443750000064,
      "v": 100
    },
    {
      "midi": 44,
      "hit": false,
      "t": 67555.48799999949,
      "d": 69.4443750000064,
      "v": 100
    },
    {
      "midi": 36,
      "hit": false,
      "t": 67555.48799999975,
      "d": 138.88874999999825,
      "v": 127
    },
    {
      "midi": 40,
      "hit": false,
      "t": 67555.48799999987,
      "d": 212.96275000000605,
      "v": 100
    },
    {
      "midi": 73,
      "hit": false,
      "t": 67555.48799999991,
      "d": 1314.8135000000038,
      "v": 100
    },
    {
      "midi": 73,
      "hit": false,
      "t": 67555.48799999997,
      "d": 3555.551999999996,
      "v": 100
    },
    {
      "midi": 71,
      "hit": false,
      "t": 67555.48799999997,
      "d": 3555.551999999996,
      "v": 100
    },
    {
      "midi": 44,
      "hit": false,
      "t": 67666.59899999949,
      "d": 69.4443750000064,
      "v": 100
    },
    {
      "midi": 44,
      "hit": false,
      "t": 67777.7099999995,
      "d": 138.88874999999825,
      "v": 100
    },
    {
      "midi": 36,
      "hit": false,
      "t": 67777.70999999974,
      "d": 69.4443750000064,
      "v": 127
    },
    {
      "midi": 36,
      "hit": false,
      "t": 67888.82099999975,
      "d": 69.4443750000064,
      "v": 127
    },
    {
      "midi": 40,
      "hit": false,
      "t": 67888.82099999988,
      "d": 69.4443750000064,
      "v": 100
    },
    {
      "midi": 44,
      "hit": false,
      "t": 67999.93199999949,
      "d": 69.4443750000064,
      "v": 100
    },
    {
      "midi": 38,
      "hit": false,
      "t": 67999.93199999949,
      "d": 69.4443750000064,
      "v": 100
    },
    {
      "midi": 43,
      "hit": false,
      "t": 67999.93199999988,
      "d": 138.88874999999825,
      "v": 100
    },
    {
      "midi": 44,
      "hit": false,
      "t": 68111.0429999995,
      "d": 69.4443750000064,
      "v": 100
    },
    {
      "midi": 27,
      "hit": false,
      "t": 68111.04299999993,
      "d": 212.96275000000605,
      "v": 127
    },
    {
      "midi": 44,
      "hit": false,
      "t": 68222.1539999995,
      "d": 69.4443750000064,
      "v": 100
    },
    {
      "midi": 36,
      "hit": false,
      "t": 68222.15399999976,
      "d": 69.4443750000064,
      "v": 127
    },
    {
      "midi": 43,
      "hit": false,
      "t": 68222.15399999988,
      "d": 138.88874999999825,
      "v": 100
    },
    {
      "midi": 44,
      "hit": false,
      "t": 68333.2649999995,
      "d": 69.4443750000064,
      "v": 100
    },
    {
      "midi": 38,
      "hit": false,
      "t": 68333.2649999995,
      "d": 69.4443750000064,
      "v": 100
    },
    {
      "midi": 36,
      "hit": false,
      "t": 68333.26499999977,
      "d": 69.4443750000064,
      "v": 127
    },
    {
      "midi": 44,
      "hit": false,
      "t": 68444.37599999951,
      "d": 69.4443750000064,
      "v": 100
    },
    {
      "midi": 36,
      "hit": false,
      "t": 68444.37599999977,
      "d": 212.96275000000605,
      "v": 127
    },
    {
      "midi": 45,
      "hit": false,
      "t": 68444.37599999987,
      "d": 138.88874999999825,
      "v": 100
    },
    {
      "midi": 44,
      "hit": false,
      "t": 68555.48699999951,
      "d": 69.4443750000064,
      "v": 100
    },
    {
      "midi": 38,
      "hit": false,
      "t": 68555.48699999951,
      "d": 69.4443750000064,
      "v": 100
    },
    {
      "midi": 44,
      "hit": false,
      "t": 68666.59799999952,
      "d": 138.88874999999825,
      "v": 100
    },
    {
      "midi": 45,
      "hit": false,
      "t": 68666.59799999987,
      "d": 138.88874999999825,
      "v": 100
    },
    {
      "midi": 36,
      "hit": false,
      "t": 68777.70899999978,
      "d": 69.4443750000064,
      "v": 127
    },
    {
      "midi": 44,
      "hit": false,
      "t": 68888.81999999951,
      "d": 69.4443750000064,
      "v": 100
    },
    {
      "midi": 38,
      "hit": false,
      "t": 68888.81999999951,
      "d": 69.4443750000064,
      "v": 100
    },
    {
      "midi": 46,
      "hit": false,
      "t": 68888.81999999986,
      "d": 138.88874999999825,
      "v": 100
    },
    {
      "midi": 39,
      "hit": false,
      "t": 68888.81999999993,
      "d": 282.4071249999979,
      "v": 127
    },
    {
      "midi": 44,
      "hit": false,
      "t": 68999.93099999952,
      "d": 69.4443750000064,
      "v": 100
    },
    {
      "midi": 44,
      "hit": false,
      "t": 69111.04199999952,
      "d": 69.4443750000064,
      "v": 100
    },
    {
      "midi": 36,
      "hit": false,
      "t": 69111.0419999998,
      "d": 69.4443750000064,
      "v": 127
    },
    {
      "midi": 45,
      "hit": false,
      "t": 69111.04199999986,
      "d": 138.88874999999825,
      "v": 100
    },
    {
      "midi": 73,
      "hit": false,
      "t": 69111.04199999991,
      "d": 69.4443750000064,
      "v": 100
    },
    {
      "midi": 44,
      "hit": false,
      "t": 69222.15299999953,
      "d": 69.4443750000064,
      "v": 100
    },
    {
      "midi": 36,
      "hit": false,
      "t": 69222.1529999998,
      "d": 69.4443750000064,
      "v": 127
    },
    {
      "midi": 74,
      "hit": false,
      "t": 69222.15299999992,
      "d": 69.4443750000064,
      "v": 100
    },
    {
      "midi": 44,
      "hit": false,
      "t": 69333.26399999953,
      "d": 69.4443750000064,
      "v": 100
    },
    {
      "midi": 36,
      "hit": false,
      "t": 69333.2639999998,
      "d": 138.88874999999825,
      "v": 127
    },
    {
      "midi": 76,
      "hit": false,
      "t": 69333.26399999992,
      "d": 1134.258124999993,
      "v": 100
    },
    {
      "midi": 44,
      "hit": false,
      "t": 69444.37499999953,
      "d": 69.4443750000064,
      "v": 100
    },
    {
      "midi": 38,
      "hit": false,
      "t": 69444.37499999953,
      "d": 69.4443750000064,
      "v": 100
    },
    {
      "midi": 40,
      "hit": false,
      "t": 69444.37499999985,
      "d": 212.96275000000605,
      "v": 100
    },
    {
      "midi": 44,
      "hit": false,
      "t": 69555.48599999954,
      "d": 138.88874999999825,
      "v": 100
    },
    {
      "midi": 36,
      "hit": false,
      "t": 69555.4859999998,
      "d": 69.4443750000064,
      "v": 127
    },
    {
      "midi": 36,
      "hit": false,
      "t": 69666.5969999998,
      "d": 69.4443750000064,
      "v": 127
    },
    {
      "midi": 44,
      "hit": false,
      "t": 69777.70799999953,
      "d": 69.4443750000064,
      "v": 100
    },
    {
      "midi": 38,
      "hit": false,
      "t": 69777.70799999953,
      "d": 69.4443750000064,
      "v": 100
    },
    {
      "midi": 43,
      "hit": false,
      "t": 69777.70799999987,
      "d": 138.88874999999825,
      "v": 100
    },
    {
      "midi": 44,
      "hit": false,
      "t": 69888.81899999954,
      "d": 69.4443750000064,
      "v": 100
    },
    {
      "midi": 27,
      "hit": false,
      "t": 69888.81899999993,
      "d": 212.96275000000605,
      "v": 127
    },
    {
      "midi": 44,
      "hit": false,
      "t": 69999.92999999954,
      "d": 69.4443750000064,
      "v": 100
    },
    {
      "midi": 36,
      "hit": false,
      "t": 69999.92999999982,
      "d": 69.4443750000064,
      "v": 127
    },
    {
      "midi": 43,
      "hit": false,
      "t": 69999.92999999986,
      "d": 138.88874999999825,
      "v": 100
    },
    {
      "midi": 44,
      "hit": false,
      "t": 70111.04099999955,
      "d": 69.4443750000064,
      "v": 100
    },
    {
      "midi": 38,
      "hit": false,
      "t": 70111.04099999955,
      "d": 69.4443750000064,
      "v": 100
    },
    {
      "midi": 36,
      "hit": false,
      "t": 70111.04099999982,
      "d": 69.4443750000064,
      "v": 127
    },
    {
      "midi": 44,
      "hit": false,
      "t": 70222.15199999955,
      "d": 69.4443750000064,
      "v": 100
    },
    {
      "midi": 36,
      "hit": false,
      "t": 70222.15199999983,
      "d": 212.96275000000605,
      "v": 127
    },
    {
      "midi": 45,
      "hit": false,
      "t": 70222.15199999986,
      "d": 138.88874999999825,
      "v": 100
    },
    {
      "midi": 76,
      "hit": false,
      "t": 70222.15199999987,
      "d": 69.4443750000064,
      "v": 100
    },
    {
      "midi": 44,
      "hit": false,
      "t": 70333.26299999956,
      "d": 69.4443750000064,
      "v": 100
    },
    {
      "midi": 38,
      "hit": false,
      "t": 70333.26299999956,
      "d": 69.4443750000064,
      "v": 100
    },
    {
      "midi": 83,
      "hit": false,
      "t": 70333.26299999988,
      "d": 69.4443750000064,
      "v": 100
    },
    {
      "midi": 44,
      "hit": false,
      "t": 70444.37399999956,
      "d": 138.88874999999825,
      "v": 100
    },
    {
      "midi": 45,
      "hit": false,
      "t": 70444.37399999985,
      "d": 138.88874999999825,
      "v": 100
    },
    {
      "midi": 78,
      "hit": false,
      "t": 70444.37399999988,
      "d": 69.4443750000064,
      "v": 100
    },
    {
      "midi": 36,
      "hit": false,
      "t": 70555.48499999984,
      "d": 69.4443750000064,
      "v": 127
    },
    {
      "midi": 79,
      "hit": false,
      "t": 70555.48499999988,
      "d": 69.4443750000064,
      "v": 100
    },
    {
      "midi": 44,
      "hit": false,
      "t": 70666.59599999955,
      "d": 69.4443750000064,
      "v": 100
    },
    {
      "midi": 38,
      "hit": false,
      "t": 70666.59599999955,
      "d": 69.4443750000064,
      "v": 100
    },
    {
      "midi": 50,
      "hit": false,
      "t": 70666.59599999984,
      "d": 69.4443750000064,
      "v": 100
    },
    {
      "midi": 81,
      "hit": false,
      "t": 70666.59599999989,
      "d": 69.4443750000064,
      "v": 100
    },
    {
      "midi": 44,
      "hit": false,
      "t": 70777.70699999956,
      "d": 69.4443750000064,
      "v": 100
    },
    {
      "midi": 38,
      "hit": false,
      "t": 70777.70699999956,
      "d": 69.4443750000064,
      "v": 100
    },
    {
      "midi": 52,
      "hit": false,
      "t": 70777.70699999985,
      "d": 69.4443750000064,
      "v": 100
    },
    {
      "midi": 79,
      "hit": false,
      "t": 70777.7069999999,
      "d": 69.4443750000064,
      "v": 100
    },
    {
      "midi": 44,
      "hit": false,
      "t": 70888.81799999956,
      "d": 69.4443750000064,
      "v": 100
    },
    {
      "midi": 45,
      "hit": false,
      "t": 70888.81799999985,
      "d": 69.4443750000064,
      "v": 100
    },
    {
      "midi": 36,
      "hit": false,
      "t": 70888.81799999985,
      "d": 138.88874999999825,
      "v": 127
    },
    {
      "midi": 78,
      "hit": false,
      "t": 70888.8179999999,
      "d": 69.4443750000064,
      "v": 100
    },
    {
      "midi": 38,
      "hit": false,
      "t": 70999.92899999957,
      "d": 69.4443750000064,
      "v": 100
    },
    {
      "midi": 47,
      "hit": false,
      "t": 70999.92899999986,
      "d": 69.4443750000064,
      "v": 100
    },
    {
      "midi": 76,
      "hit": false,
      "t": 70999.9289999999,
      "d": 2027.7757500000007,
      "v": 100
    },
    {
      "midi": 49,
      "hit": false,
      "t": 71111.03999999957,
      "d": 69.4443750000064,
      "v": 100
    },
    {
      "midi": 44,
      "hit": false,
      "t": 71111.03999999957,
      "d": 69.4443750000064,
      "v": 100
    },
    {
      "midi": 36,
      "hit": false,
      "t": 71111.03999999985,
      "d": 138.88874999999825,
      "v": 127
    },
    {
      "midi": 40,
      "hit": false,
      "t": 71111.03999999986,
      "d": 212.96275000000605,
      "v": 100
    },
    {
      "midi": 74,
      "hit": false,
      "t": 71111.03999999996,
      "d": 3555.551999999996,
      "v": 100
    },
    {
      "midi": 71,
      "hit": false,
      "t": 71111.03999999996,
      "d": 3555.551999999996,
      "v": 100
    },
    {
      "midi": 44,
      "hit": false,
      "t": 71222.15099999958,
      "d": 69.4443750000064,
      "v": 100
    },
    {
      "midi": 44,
      "hit": false,
      "t": 71333.26199999958,
      "d": 138.88874999999825,
      "v": 100
    },
    {
      "midi": 36,
      "hit": false,
      "t": 71333.26199999984,
      "d": 69.4443750000064,
      "v": 127
    },
    {
      "midi": 36,
      "hit": false,
      "t": 71444.37299999985,
      "d": 69.4443750000064,
      "v": 127
    },
    {
      "midi": 40,
      "hit": false,
      "t": 71444.37299999988,
      "d": 69.4443750000064,
      "v": 100
    },
    {
      "midi": 44,
      "hit": false,
      "t": 71555.48399999957,
      "d": 69.4443750000064,
      "v": 100
    },
    {
      "midi": 38,
      "hit": false,
      "t": 71555.48399999957,
      "d": 69.4443750000064,
      "v": 100
    },
    {
      "midi": 43,
      "hit": false,
      "t": 71555.48399999988,
      "d": 138.88874999999825,
      "v": 100
    },
    {
      "midi": 79,
      "hit": false,
      "t": 71555.48399999991,
      "d": 69.4443750000064,
      "v": 100
    },
    {
      "midi": 44,
      "hit": false,
      "t": 71666.59499999958,
      "d": 69.4443750000064,
      "v": 100
    },
    {
      "midi": 78,
      "hit": false,
      "t": 71666.59499999991,
      "d": 69.4443750000064,
      "v": 100
    },
    {
      "midi": 44,
      "hit": false,
      "t": 71777.70599999958,
      "d": 69.4443750000064,
      "v": 100
    },
    {
      "midi": 36,
      "hit": false,
      "t": 71777.70599999986,
      "d": 69.4443750000064,
      "v": 127
    },
    {
      "midi": 43,
      "hit": false,
      "t": 71777.70599999987,
      "d": 138.88874999999825,
      "v": 100
    },
    {
      "midi": 74,
      "hit": false,
      "t": 71777.70599999992,
      "d": 69.4443750000064,
      "v": 100
    },
    {
      "midi": 44,
      "hit": false,
      "t": 71888.81699999959,
      "d": 69.4443750000064,
      "v": 100
    },
    {
      "midi": 38,
      "hit": false,
      "t": 71888.81699999959,
      "d": 69.4443750000064,
      "v": 100
    },
    {
      "midi": 36,
      "hit": false,
      "t": 71888.81699999986,
      "d": 69.4443750000064,
      "v": 127
    },
    {
      "midi": 71,
      "hit": false,
      "t": 71888.81699999992,
      "d": 1564.8132500000065,
      "v": 100
    },
    {
      "midi": 44,
      "hit": false,
      "t": 71999.92799999959,
      "d": 69.4443750000064,
      "v": 100
    },
    {
      "midi": 45,
      "hit": false,
      "t": 71999.92799999987,
      "d": 138.88874999999825,
      "v": 100
    },
    {
      "midi": 36,
      "hit": false,
      "t": 71999.92799999987,
      "d": 212.96275000000605,
      "v": 127
    },
    {
      "midi": 44,
      "hit": false,
      "t": 72111.0389999996,
      "d": 69.4443750000064,
      "v": 100
    },
    {
      "midi": 38,
      "hit": false,
      "t": 72111.0389999996,
      "d": 69.4443750000064,
      "v": 100
    },
    {
      "midi": 44,
      "hit": false,
      "t": 72222.1499999996,
      "d": 138.88874999999825,
      "v": 100
    },
    {
      "midi": 45,
      "hit": false,
      "t": 72222.14999999986,
      "d": 138.88874999999825,
      "v": 100
    },
    {
      "midi": 36,
      "hit": false,
      "t": 72333.26099999988,
      "d": 69.4443750000064,
      "v": 127
    },
    {
      "midi": 44,
      "hit": false,
      "t": 72444.3719999996,
      "d": 69.4443750000064,
      "v": 100
    },
    {
      "midi": 38,
      "hit": false,
      "t": 72444.3719999996,
      "d": 69.4443750000064,
      "v": 100
    },
    {
      "midi": 46,
      "hit": false,
      "t": 72444.37199999986,
      "d": 138.88874999999825,
      "v": 100
    },
    {
      "midi": 44,
      "hit": false,
      "t": 72555.4829999996,
      "d": 69.4443750000064,
      "v": 100
    },
    {
      "midi": 27,
      "hit": false,
      "t": 72555.48299999993,
      "d": 212.96275000000605,
      "v": 127
    },
    {
      "midi": 44,
      "hit": false,
      "t": 72666.5939999996,
      "d": 69.4443750000064,
      "v": 100
    },
    {
      "midi": 45,
      "hit": false,
      "t": 72666.59399999985,
      "d": 138.88874999999825,
      "v": 100
    },
    {
      "midi": 36,
      "hit": false,
      "t": 72666.5939999999,
      "d": 69.4443750000064,
      "v": 127
    },
    {
      "midi": 44,
      "hit": false,
      "t": 72777.70499999961,
      "d": 69.4443750000064,
      "v": 100
    },
    {
      "midi": 36,
      "hit": false,
      "t": 72777.7049999999,
      "d": 69.4443750000064,
      "v": 127
    },
    {
      "midi": 44,
      "hit": false,
      "t": 72888.81599999961,
      "d": 69.4443750000064,
      "v": 100
    },
    {
      "midi": 36,
      "hit": false,
      "t": 72888.8159999999,
      "d": 138.88874999999825,
      "v": 127
    },
    {
      "midi": 44,
      "hit": false,
      "t": 72999.92699999962,
      "d": 69.4443750000064,
      "v": 100
    },
    {
      "midi": 38,
      "hit": false,
      "t": 72999.92699999962,
      "d": 69.4443750000064,
      "v": 100
    },
    {
      "midi": 40,
      "hit": false,
      "t": 72999.92699999985,
      "d": 212.96275000000605,
      "v": 100
    },
    {
      "midi": 44,
      "hit": false,
      "t": 73111.03799999962,
      "d": 138.88874999999825,
      "v": 100
    },
    {
      "midi": 64,
      "hit": false,
      "t": 73111.0379999999,
      "d": 291.6663750000007,
      "v": 100
    },
    {
      "midi": 36,
      "hit": false,
      "t": 73111.0379999999,
      "d": 69.4443750000064,
      "v": 127
    },
    {
      "midi": 36,
      "hit": false,
      "t": 73222.1489999999,
      "d": 69.4443750000064,
      "v": 127
    },
    {
      "midi": 44,
      "hit": false,
      "t": 73333.25999999962,
      "d": 69.4443750000064,
      "v": 100
    },
    {
      "midi": 38,
      "hit": false,
      "t": 73333.25999999962,
      "d": 69.4443750000064,
      "v": 100
    },
    {
      "midi": 43,
      "hit": false,
      "t": 73333.25999999986,
      "d": 138.88874999999825,
      "v": 100
    },
    {
      "midi": 39,
      "hit": false,
      "t": 73333.25999999994,
      "d": 282.4071249999979,
      "v": 127
    },
    {
      "midi": 44,
      "hit": false,
      "t": 73444.37099999962,
      "d": 69.4443750000064,
      "v": 100
    },
    {
      "midi": 67,
      "hit": false,
      "t": 73444.3709999999,
      "d": 212.96275000000605,
      "v": 100
    },
    {
      "midi": 44,
      "hit": false,
      "t": 73555.48199999963,
      "d": 69.4443750000064,
      "v": 100
    },
    {
      "midi": 43,
      "hit": false,
      "t": 73555.48199999986,
      "d": 138.88874999999825,
      "v": 100
    },
    {
      "midi": 36,
      "hit": false,
      "t": 73555.48199999992,
      "d": 69.4443750000064,
      "v": 127
    },
    {
      "midi": 44,
      "hit": false,
      "t": 73666.59299999963,
      "d": 69.4443750000064,
      "v": 100
    },
    {
      "midi": 38,
      "hit": false,
      "t": 73666.59299999963,
      "d": 69.4443750000064,
      "v": 100
    },
    {
      "midi": 36,
      "hit": false,
      "t": 73666.59299999992,
      "d": 69.4443750000064,
      "v": 127
    },
    {
      "midi": 44,
      "hit": false,
      "t": 73777.70399999963,
      "d": 69.4443750000064,
      "v": 100
    },
    {
      "midi": 45,
      "hit": false,
      "t": 73777.70399999985,
      "d": 138.88874999999825,
      "v": 100
    },
    {
      "midi": 74,
      "hit": false,
      "t": 73777.70399999991,
      "d": 3800.9221249999973,
      "v": 100
    },
    {
      "midi": 75,
      "hit": false,
      "t": 73777.70399999993,
      "d": 32.40737499999523,
      "v": 80
    },
    {
      "midi": 36,
      "hit": false,
      "t": 73777.70399999993,
      "d": 212.96275000000605,
      "v": 127
    },
    {
      "midi": 76,
      "hit": false,
      "t": 73833.25949999993,
      "d": 194.44425000000047,
      "v": 100
    },
    {
      "midi": 44,
      "hit": false,
      "t": 73888.81499999964,
      "d": 69.4443750000064,
      "v": 100
    },
    {
      "midi": 38,
      "hit": false,
      "t": 73888.81499999964,
      "d": 69.4443750000064,
      "v": 100
    },
    {
      "midi": 44,
      "hit": false,
      "t": 73999.92599999964,
      "d": 138.88874999999825,
      "v": 100
    },
    {
      "midi": 45,
      "hit": false,
      "t": 73999.92599999985,
      "d": 138.88874999999825,
      "v": 100
    },
    {
      "midi": 78,
      "hit": false,
      "t": 74111.03699999992,
      "d": 249.99975000000268,
      "v": 100
    },
    {
      "midi": 36,
      "hit": false,
      "t": 74111.03699999994,
      "d": 69.4443750000064,
      "v": 127
    },
    {
      "midi": 44,
      "hit": false,
      "t": 74222.14799999964,
      "d": 69.4443750000064,
      "v": 100
    },
    {
      "midi": 38,
      "hit": false,
      "t": 74222.14799999964,
      "d": 69.4443750000064,
      "v": 100
    },
    {
      "midi": 50,
      "hit": false,
      "t": 74222.14799999984,
      "d": 69.4443750000064,
      "v": 100
    },
    {
      "midi": 44,
      "hit": false,
      "t": 74333.25899999964,
      "d": 69.4443750000064,
      "v": 100
    },
    {
      "midi": 38,
      "hit": false,
      "t": 74333.25899999964,
      "d": 69.4443750000064,
      "v": 100
    },
    {
      "midi": 52,
      "hit": false,
      "t": 74333.25899999985,
      "d": 69.4443750000064,
      "v": 100
    },
    {
      "midi": 27,
      "hit": false,
      "t": 74333.25899999993,
      "d": 212.96275000000605,
      "v": 127
    },
    {
      "midi": 44,
      "hit": false,
      "t": 74444.36999999965,
      "d": 69.4443750000064,
      "v": 100
    },
    {
      "midi": 45,
      "hit": false,
      "t": 74444.36999999985,
      "d": 69.4443750000064,
      "v": 100
    },
    {
      "midi": 79,
      "hit": false,
      "t": 74444.36999999992,
      "d": 138.88874999999825,
      "v": 100
    },
    {
      "midi": 36,
      "hit": false,
      "t": 74444.36999999995,
      "d": 138.88874999999825,
      "v": 127
    },
    {
      "midi": 38,
      "hit": false,
      "t": 74555.48099999965,
      "d": 69.4443750000064,
      "v": 100
    },
    {
      "midi": 47,
      "hit": false,
      "t": 74555.48099999985,
      "d": 69.4443750000064,
      "v": 100
    },
    {
      "midi": 49,
      "hit": false,
      "t": 74666.59199999965,
      "d": 69.4443750000064,
      "v": 100
    },
    {
      "midi": 44,
      "hit": false,
      "t": 74666.59199999965,
      "d": 69.4443750000064,
      "v": 100
    },
    {
      "midi": 40,
      "hit": false,
      "t": 74666.59199999986,
      "d": 212.96275000000605,
      "v": 100
    },
    {
      "midi": 81,
      "hit": false,
      "t": 74666.59199999992,
      "d": 851.8509999999951,
      "v": 100
    },
    {
      "midi": 36,
      "hit": false,
      "t": 74666.59199999995,
      "d": 138.88874999999825,
      "v": 127
    },
    {
      "midi": 73,
      "hit": false,
      "t": 74666.59199999996,
      "d": 3555.551999999996,
      "v": 100
    },
    {
      "midi": 71,
      "hit": false,
      "t": 74666.59199999996,
      "d": 3555.551999999996,
      "v": 100
    },
    {
      "midi": 44,
      "hit": false,
      "t": 74777.70299999966,
      "d": 69.4443750000064,
      "v": 100
    },
    {
      "midi": 44,
      "hit": false,
      "t": 74888.81399999966,
      "d": 138.88874999999825,
      "v": 100
    },
    {
      "midi": 36,
      "hit": false,
      "t": 74888.81399999994,
      "d": 69.4443750000064,
      "v": 127
    },
    {
      "midi": 40,
      "hit": false,
      "t": 74999.92499999987,
      "d": 69.4443750000064,
      "v": 100
    },
    {
      "midi": 36,
      "hit": false,
      "t": 74999.92499999994,
      "d": 69.4443750000064,
      "v": 127
    },
    {
      "midi": 44,
      "hit": false,
      "t": 75111.03599999966,
      "d": 69.4443750000064,
      "v": 100
    },
    {
      "midi": 38,
      "hit": false,
      "t": 75111.03599999966,
      "d": 69.4443750000064,
      "v": 100
    },
    {
      "midi": 43,
      "hit": false,
      "t": 75111.03599999988,
      "d": 138.88874999999825,
      "v": 100
    },
    {
      "midi": 44,
      "hit": false,
      "t": 75222.14699999966,
      "d": 69.4443750000064,
      "v": 100
    },
    {
      "midi": 44,
      "hit": false,
      "t": 75333.25799999967,
      "d": 69.4443750000064,
      "v": 100
    },
    {
      "midi": 43,
      "hit": false,
      "t": 75333.25799999987,
      "d": 138.88874999999825,
      "v": 100
    },
    {
      "midi": 36,
      "hit": false,
      "t": 75333.25799999996,
      "d": 69.4443750000064,
      "v": 127
    },
    {
      "midi": 44,
      "hit": false,
      "t": 75444.36899999967,
      "d": 69.4443750000064,
      "v": 100
    },
    {
      "midi": 38,
      "hit": false,
      "t": 75444.36899999967,
      "d": 69.4443750000064,
      "v": 100
    },
    {
      "midi": 36,
      "hit": false,
      "t": 75444.36899999996,
      "d": 69.4443750000064,
      "v": 127
    },
    {
      "midi": 44,
      "hit": false,
      "t": 75555.47999999968,
      "d": 69.4443750000064,
      "v": 100
    },
    {
      "midi": 45,
      "hit": false,
      "t": 75555.47999999986,
      "d": 138.88874999999825,
      "v": 100
    },
    {
      "midi": 36,
      "hit": false,
      "t": 75555.47999999997,
      "d": 212.96275000000605,
      "v": 127
    },
    {
      "midi": 44,
      "hit": false,
      "t": 75666.59099999968,
      "d": 69.4443750000064,
      "v": 100
    },
    {
      "midi": 38,
      "hit": false,
      "t": 75666.59099999968,
      "d": 69.4443750000064,
      "v": 100
    },
    {
      "midi": 44,
      "hit": false,
      "t": 75777.70199999968,
      "d": 138.88874999999825,
      "v": 100
    },
    {
      "midi": 45,
      "hit": false,
      "t": 75777.70199999986,
      "d": 138.88874999999825,
      "v": 100
    },
    {
      "midi": 36,
      "hit": false,
      "t": 75888.81299999998,
      "d": 69.4443750000064,
      "v": 127
    },
    {
      "midi": 44,
      "hit": false,
      "t": 75999.92399999968,
      "d": 69.4443750000064,
      "v": 100
    },
    {
      "midi": 38,
      "hit": false,
      "t": 75999.92399999968,
      "d": 69.4443750000064,
      "v": 100
    },
    {
      "midi": 46,
      "hit": false,
      "t": 75999.92399999985,
      "d": 138.88874999999825,
      "v": 100
    },
    {
      "midi": 80,
      "hit": false,
      "t": 75999.92399999991,
      "d": 32.40737499999523,
      "v": 80
    },
    {
      "midi": 81,
      "hit": false,
      "t": 76055.47949999991,
      "d": 32.40737499999523,
      "v": 100
    },
    {
      "midi": 44,
      "hit": false,
      "t": 76111.03499999968,
      "d": 69.4443750000064,
      "v": 100
    },
    {
      "midi": 83,
      "hit": false,
      "t": 76111.03499999992,
      "d": 69.4443750000064,
      "v": 100
    },
    {
      "midi": 44,
      "hit": false,
      "t": 76222.14599999969,
      "d": 69.4443750000064,
      "v": 100
    },
    {
      "midi": 45,
      "hit": false,
      "t": 76222.14599999985,
      "d": 138.88874999999825,
      "v": 100
    },
    {
      "midi": 79,
      "hit": false,
      "t": 76222.14599999992,
      "d": 69.4443750000064,
      "v": 100
    },
    {
      "midi": 36,
      "hit": false,
      "t": 76222.146,
      "d": 69.4443750000064,
      "v": 127
    },
    {
      "midi": 44,
      "hit": false,
      "t": 76333.25699999969,
      "d": 69.4443750000064,
      "v": 100
    },
    {
      "midi": 81,
      "hit": false,
      "t": 76333.25699999993,
      "d": 675.9252500000002,
      "v": 100
    },
    {
      "midi": 36,
      "hit": false,
      "t": 76333.257,
      "d": 69.4443750000064,
      "v": 127
    },
    {
      "midi": 44,
      "hit": false,
      "t": 76444.3679999997,
      "d": 69.4443750000064,
      "v": 100
    },
    {
      "midi": 36,
      "hit": false,
      "t": 76444.368,
      "d": 138.88874999999825,
      "v": 127
    },
    {
      "midi": 44,
      "hit": false,
      "t": 76555.4789999997,
      "d": 69.4443750000064,
      "v": 100
    },
    {
      "midi": 38,
      "hit": false,
      "t": 76555.4789999997,
      "d": 69.4443750000064,
      "v": 100
    },
    {
      "midi": 40,
      "hit": false,
      "t": 76555.47899999985,
      "d": 212.96275000000605,
      "v": 100
    },
    {
      "midi": 44,
      "hit": false,
      "t": 76666.5899999997,
      "d": 138.88874999999825,
      "v": 100
    },
    {
      "midi": 36,
      "hit": false,
      "t": 76666.59,
      "d": 69.4443750000064,
      "v": 127
    },
    {
      "midi": 36,
      "hit": false,
      "t": 76777.701,
      "d": 69.4443750000064,
      "v": 127
    },
    {
      "midi": 44,
      "hit": false,
      "t": 76888.8119999997,
      "d": 69.4443750000064,
      "v": 100
    },
    {
      "midi": 38,
      "hit": false,
      "t": 76888.8119999997,
      "d": 69.4443750000064,
      "v": 100
    },
    {
      "midi": 43,
      "hit": false,
      "t": 76888.81199999986,
      "d": 138.88874999999825,
      "v": 100
    },
    {
      "midi": 44,
      "hit": false,
      "t": 76999.9229999997,
      "d": 69.4443750000064,
      "v": 100
    },
    {
      "midi": 27,
      "hit": false,
      "t": 76999.92299999994,
      "d": 212.96275000000605,
      "v": 127
    },
    {
      "midi": 44,
      "hit": false,
      "t": 77111.03399999971,
      "d": 69.4443750000064,
      "v": 100
    },
    {
      "midi": 43,
      "hit": false,
      "t": 77111.03399999985,
      "d": 138.88874999999825,
      "v": 100
    },
    {
      "midi": 36,
      "hit": false,
      "t": 77111.03400000001,
      "d": 69.4443750000064,
      "v": 127
    },
    {
      "midi": 44,
      "hit": false,
      "t": 77222.14499999971,
      "d": 69.4443750000064,
      "v": 100
    },
    {
      "midi": 38,
      "hit": false,
      "t": 77222.14499999971,
      "d": 69.4443750000064,
      "v": 100
    },
    {
      "midi": 36,
      "hit": false,
      "t": 77222.14500000002,
      "d": 69.4443750000064,
      "v": 127
    },
    {
      "midi": 44,
      "hit": false,
      "t": 77333.25599999972,
      "d": 69.4443750000064,
      "v": 100
    },
    {
      "midi": 45,
      "hit": false,
      "t": 77333.25599999985,
      "d": 138.88874999999825,
      "v": 100
    },
    {
      "midi": 79,
      "hit": false,
      "t": 77333.25599999992,
      "d": 69.4443750000064,
      "v": 100
    },
    {
      "midi": 36,
      "hit": false,
      "t": 77333.25600000002,
      "d": 212.96275000000605,
      "v": 127
    },
    {
      "midi": 44,
      "hit": false,
      "t": 77444.36699999972,
      "d": 69.4443750000064,
      "v": 100
    },
    {
      "midi": 38,
      "hit": false,
      "t": 77444.36699999972,
      "d": 69.4443750000064,
      "v": 100
    },
    {
      "midi": 78,
      "hit": false,
      "t": 77444.36699999993,
      "d": 69.4443750000064,
      "v": 100
    },
    {
      "midi": 44,
      "hit": false,
      "t": 77555.47799999973,
      "d": 138.88874999999825,
      "v": 100
    },
    {
      "midi": 45,
      "hit": false,
      "t": 77555.47799999984,
      "d": 138.88874999999825,
      "v": 100
    },
    {
      "midi": 76,
      "hit": false,
      "t": 77555.47799999993,
      "d": 69.4443750000064,
      "v": 100
    },
    {
      "midi": 74,
      "hit": false,
      "t": 77666.58899999993,
      "d": 69.4443750000064,
      "v": 100
    },
    {
      "midi": 36,
      "hit": false,
      "t": 77666.58900000004,
      "d": 69.4443750000064,
      "v": 127
    },
    {
      "midi": 44,
      "hit": false,
      "t": 77777.69999999972,
      "d": 69.4443750000064,
      "v": 100
    },
    {
      "midi": 38,
      "hit": false,
      "t": 77777.69999999972,
      "d": 69.4443750000064,
      "v": 100
    },
    {
      "midi": 50,
      "hit": false,
      "t": 77777.69999999984,
      "d": 69.4443750000064,
      "v": 100
    },
    {
      "midi": 73,
      "hit": false,
      "t": 77777.69999999994,
      "d": 69.4443750000064,
      "v": 100
    },
    {
      "midi": 39,
      "hit": false,
      "t": 77777.69999999994,
      "d": 282.4071249999979,
      "v": 127
    },
    {
      "midi": 44,
      "hit": false,
      "t": 77888.81099999973,
      "d": 69.4443750000064,
      "v": 100
    },
    {
      "midi": 38,
      "hit": false,
      "t": 77888.81099999973,
      "d": 69.4443750000064,
      "v": 100
    },
    {
      "midi": 52,
      "hit": false,
      "t": 77888.81099999984,
      "d": 69.4443750000064,
      "v": 100
    },
    {
      "midi": 72,
      "hit": false,
      "t": 77888.81099999994,
      "d": 69.4443750000064,
      "v": 100
    },
    {
      "midi": 44,
      "hit": false,
      "t": 77999.92199999973,
      "d": 69.4443750000064,
      "v": 100
    },
    {
      "midi": 38,
      "hit": false,
      "t": 77999.92199999973,
      "d": 69.4443750000064,
      "v": 100
    },
    {
      "midi": 45,
      "hit": false,
      "t": 77999.92199999985,
      "d": 69.4443750000064,
      "v": 100
    },
    {
      "midi": 71,
      "hit": false,
      "t": 77999.92199999995,
      "d": 69.4443750000064,
      "v": 100
    },
    {
      "midi": 36,
      "hit": false,
      "t": 77999.92200000005,
      "d": 138.88874999999825,
      "v": 127
    },
    {
      "midi": 38,
      "hit": false,
      "t": 78111.03299999973,
      "d": 69.4443750000064,
      "v": 100
    },
    {
      "midi": 47,
      "hit": false,
      "t": 78111.03299999985,
      "d": 69.4443750000064,
      "v": 100
    },
    {
      "midi": 69,
      "hit": false,
      "t": 78111.03299999995,
      "d": 69.4443750000064,
      "v": 100
    },
    {
      "midi": 49,
      "hit": false,
      "t": 78222.14399999974,
      "d": 69.4443750000064,
      "v": 100
    },
    {
      "midi": 44,
      "hit": false,
      "t": 78222.14399999974,
      "d": 69.4443750000064,
      "v": 100
    },
    {
      "midi": 40,
      "hit": false,
      "t": 78222.14399999985,
      "d": 69.4443750000064,
      "v": 100
    },
    {
      "midi": 88,
      "hit": false,
      "t": 78222.14399999991,
      "d": 69.4443750000064,
      "v": 100
    },
    {
      "midi": 71,
      "hit": false,
      "t": 78222.14399999996,
      "d": 212.96275000000605,
      "v": 100
    },
    {
      "midi": 36,
      "hit": false,
      "t": 78222.14400000004,
      "d": 69.4443750000064,
      "v": 127
    },
    {
      "midi": 44,
      "hit": false,
      "t": 78333.25499999974,
      "d": 69.4443750000064,
      "v": 100
    },
    {
      "midi": 38,
      "hit": false,
      "t": 78333.25499999974,
      "d": 69.4443750000064,
      "v": 100
    },
    {
      "midi": 40,
      "hit": false,
      "t": 78333.25499999986,
      "d": 138.88874999999825,
      "v": 100
    },
    {
      "midi": 88,
      "hit": false,
      "t": 78333.25499999992,
      "d": 138.88874999999825,
      "v": 100
    },
    {
      "midi": 36,
      "hit": false,
      "t": 78333.25500000005,
      "d": 69.4443750000064,
      "v": 127
    },
    {
      "midi": 44,
      "hit": false,
      "t": 78444.36599999975,
      "d": 138.88874999999825,
      "v": 100
    },
    {
      "midi": 36,
      "hit": false,
      "t": 78444.36600000005,
      "d": 69.4443750000064,
      "v": 127
    },
    {
      "midi": 40,
      "hit": false,
      "t": 78555.47699999985,
      "d": 69.4443750000064,
      "v": 100
    },
    {
      "midi": 88,
      "hit": false,
      "t": 78555.47699999991,
      "d": 69.4443750000064,
      "v": 100
    },
    {
      "midi": 67,
      "hit": false,
      "t": 78555.47699999997,
      "d": 2578.701125000007,
      "v": 100
    },
    {
      "midi": 36,
      "hit": false,
      "t": 78555.47700000006,
      "d": 69.4443750000064,
      "v": 127
    },
    {
      "midi": 44,
      "hit": false,
      "t": 78666.58799999974,
      "d": 69.4443750000064,
      "v": 100
    },
    {
      "midi": 38,
      "hit": false,
      "t": 78666.58799999974,
      "d": 69.4443750000064,
      "v": 100
    },
    {
      "midi": 43,
      "hit": false,
      "t": 78666.58799999986,
      "d": 138.88874999999825,
      "v": 100
    },
    {
      "midi": 88,
      "hit": false,
      "t": 78666.58799999992,
      "d": 138.88874999999825,
      "v": 100
    },
    {
      "midi": 44,
      "hit": false,
      "t": 78777.69899999975,
      "d": 69.4443750000064,
      "v": 100
    },
    {
      "midi": 27,
      "hit": false,
      "t": 78777.69899999994,
      "d": 212.96275000000605,
      "v": 127
    },
    {
      "midi": 44,
      "hit": false,
      "t": 78888.80999999975,
      "d": 69.4443750000064,
      "v": 100
    },
    {
      "midi": 43,
      "hit": false,
      "t": 78888.80999999985,
      "d": 138.88874999999825,
      "v": 100
    },
    {
      "midi": 88,
      "hit": false,
      "t": 78888.80999999991,
      "d": 69.4443750000064,
      "v": 100
    },
    {
      "midi": 75,
      "hit": false,
      "t": 78888.80999999998,
      "d": 138.88874999999825,
      "v": 100
    },
    {
      "midi": 36,
      "hit": false,
      "t": 78888.81000000007,
      "d": 69.4443750000064,
      "v": 127
    },
    {
      "midi": 38,
      "hit": false,
      "t": 78999.92099999975,
      "d": 69.4443750000064,
      "v": 100
    },
    {
      "midi": 88,
      "hit": false,
      "t": 78999.92099999991,
      "d": 69.4443750000064,
      "v": 100
    },
    {
      "midi": 36,
      "hit": false,
      "t": 78999.92100000007,
      "d": 69.4443750000064,
      "v": 127
    },
    {
      "midi": 44,
      "hit": false,
      "t": 79111.03199999976,
      "d": 69.4443750000064,
      "v": 100
    },
    {
      "midi": 45,
      "hit": false,
      "t": 79111.03199999985,
      "d": 138.88874999999825,
      "v": 100
    },
    {
      "midi": 36,
      "hit": false,
      "t": 79111.03200000008,
      "d": 212.96275000000605,
      "v": 127
    },
    {
      "midi": 44,
      "hit": false,
      "t": 79222.14299999976,
      "d": 69.4443750000064,
      "v": 100
    },
    {
      "midi": 38,
      "hit": false,
      "t": 79222.14299999976,
      "d": 69.4443750000064,
      "v": 100
    },
    {
      "midi": 88,
      "hit": false,
      "t": 79222.14299999992,
      "d": 69.4443750000064,
      "v": 100
    },
    {
      "midi": 75,
      "hit": false,
      "t": 79222.14299999998,
      "d": 212.96275000000605,
      "v": 100
    },
    {
      "midi": 44,
      "hit": false,
      "t": 79333.25399999977,
      "d": 138.88874999999825,
      "v": 100
    },
    {
      "midi": 45,
      "hit": false,
      "t": 79333.25399999984,
      "d": 69.4443750000064,
      "v": 100
    },
    {
      "midi": 88,
      "hit": false,
      "t": 79333.25399999993,
      "d": 138.88874999999825,
      "v": 100
    },
    {
      "midi": 43,
      "hit": false,
      "t": 79444.36499999985,
      "d": 69.4443750000064,
      "v": 100
    },
    {
      "midi": 36,
      "hit": false,
      "t": 79444.36500000009,
      "d": 69.4443750000064,
      "v": 127
    },
    {
      "midi": 44,
      "hit": false,
      "t": 79555.47599999976,
      "d": 69.4443750000064,
      "v": 100
    },
    {
      "midi": 38,
      "hit": false,
      "t": 79555.47599999976,
      "d": 69.4443750000064,
      "v": 100
    },
    {
      "midi": 47,
      "hit": false,
      "t": 79555.47599999985,
      "d": 69.4443750000064,
      "v": 100
    },
    {
      "midi": 39,
      "hit": false,
      "t": 79555.47599999994,
      "d": 282.4071249999979,
      "v": 127
    },
    {
      "midi": 44,
      "hit": false,
      "t": 79666.58699999977,
      "d": 69.4443750000064,
      "v": 100
    },
    {
      "midi": 45,
      "hit": false,
      "t": 79666.58699999985,
      "d": 69.4443750000064,
      "v": 100
    },
    {
      "midi": 44,
      "hit": false,
      "t": 79777.69799999977,
      "d": 138.88874999999825,
      "v": 100
    },
    {
      "midi": 48,
      "hit": false,
      "t": 79777.69799999986,
      "d": 69.4443750000064,
      "v": 100
    },
    {
      "midi": 88,
      "hit": false,
      "t": 79777.69799999993,
      "d": 69.4443750000064,
      "v": 100
    },
    {
      "midi": 36,
      "hit": false,
      "t": 79777.6980000001,
      "d": 69.4443750000064,
      "v": 127
    },
    {
      "midi": 47,
      "hit": false,
      "t": 79888.80899999986,
      "d": 69.4443750000064,
      "v": 100
    },
    {
      "midi": 88,
      "hit": false,
      "t": 79888.80899999994,
      "d": 69.4443750000064,
      "v": 100
    },
    {
      "midi": 36,
      "hit": false,
      "t": 79888.80900000011,
      "d": 69.4443750000064,
      "v": 127
    },
    {
      "midi": 44,
      "hit": false,
      "t": 79999.91999999977,
      "d": 69.4443750000064,
      "v": 100
    },
    {
      "midi": 88,
      "hit": false,
      "t": 79999.91999999994,
      "d": 69.4443750000064,
      "v": 100
    },
    {
      "midi": 36,
      "hit": false,
      "t": 79999.92000000011,
      "d": 138.88874999999825,
      "v": 127
    },
    {
      "midi": 44,
      "hit": false,
      "t": 80111.03099999977,
      "d": 69.4443750000064,
      "v": 100
    },
    {
      "midi": 38,
      "hit": false,
      "t": 80111.03099999977,
      "d": 69.4443750000064,
      "v": 100
    },
    {
      "midi": 40,
      "hit": false,
      "t": 80111.03099999987,
      "d": 212.96275000000605,
      "v": 100
    },
    {
      "midi": 88,
      "hit": false,
      "t": 80111.03099999994,
      "d": 138.88874999999825,
      "v": 100
    },
    {
      "midi": 44,
      "hit": false,
      "t": 80222.14199999977,
      "d": 138.88874999999825,
      "v": 100
    },
    {
      "midi": 36,
      "hit": false,
      "t": 80222.14200000011,
      "d": 69.4443750000064,
      "v": 127
    },
    {
      "midi": 88,
      "hit": false,
      "t": 80333.25299999994,
      "d": 69.4443750000064,
      "v": 100
    },
    {
      "midi": 36,
      "hit": false,
      "t": 80333.25300000011,
      "d": 69.4443750000064,
      "v": 127
    },
    {
      "midi": 44,
      "hit": false,
      "t": 80444.36399999977,
      "d": 69.4443750000064,
      "v": 100
    },
    {
      "midi": 38,
      "hit": false,
      "t": 80444.36399999977,
      "d": 69.4443750000064,
      "v": 100
    },
    {
      "midi": 43,
      "hit": false,
      "t": 80444.36399999988,
      "d": 138.88874999999825,
      "v": 100
    },
    {
      "midi": 88,
      "hit": false,
      "t": 80444.36399999994,
      "d": 138.88874999999825,
      "v": 100
    },
    {
      "midi": 44,
      "hit": false,
      "t": 80555.47499999977,
      "d": 69.4443750000064,
      "v": 100
    },
    {
      "midi": 27,
      "hit": false,
      "t": 80555.47499999993,
      "d": 212.96275000000605,
      "v": 127
    },
    {
      "midi": 44,
      "hit": false,
      "t": 80666.58599999978,
      "d": 69.4443750000064,
      "v": 100
    },
    {
      "midi": 43,
      "hit": false,
      "t": 80666.58599999988,
      "d": 138.88874999999825,
      "v": 100
    },
    {
      "midi": 88,
      "hit": false,
      "t": 80666.58599999994,
      "d": 69.4443750000064,
      "v": 100
    },
    {
      "midi": 75,
      "hit": false,
      "t": 80666.58599999998,
      "d": 138.88874999999825,
      "v": 100
    },
    {
      "midi": 36,
      "hit": false,
      "t": 80666.58600000013,
      "d": 69.4443750000064,
      "v": 127
    },
    {
      "midi": 44,
      "hit": false,
      "t": 80777.69699999978,
      "d": 69.4443750000064,
      "v": 100
    },
    {
      "midi": 38,
      "hit": false,
      "t": 80777.69699999978,
      "d": 69.4443750000064,
      "v": 100
    },
    {
      "midi": 88,
      "hit": false,
      "t": 80777.69699999994,
      "d": 69.4443750000064,
      "v": 100
    },
    {
      "midi": 36,
      "hit": false,
      "t": 80777.69700000013,
      "d": 69.4443750000064,
      "v": 127
    },
    {
      "midi": 44,
      "hit": false,
      "t": 80888.80799999979,
      "d": 69.4443750000064,
      "v": 100
    },
    {
      "midi": 45,
      "hit": false,
      "t": 80888.80799999987,
      "d": 138.88874999999825,
      "v": 100
    },
    {
      "midi": 36,
      "hit": false,
      "t": 80888.80800000014,
      "d": 212.96275000000605,
      "v": 127
    },
    {
      "midi": 44,
      "hit": false,
      "t": 80999.91899999979,
      "d": 69.4443750000064,
      "v": 100
    },
    {
      "midi": 38,
      "hit": false,
      "t": 80999.91899999979,
      "d": 69.4443750000064,
      "v": 100
    },
    {
      "midi": 88,
      "hit": false,
      "t": 80999.91899999995,
      "d": 69.4443750000064,
      "v": 100
    },
    {
      "midi": 75,
      "hit": false,
      "t": 80999.91899999998,
      "d": 212.96275000000605,
      "v": 100
    },
    {
      "midi": 44,
      "hit": false,
      "t": 81111.0299999998,
      "d": 138.88874999999825,
      "v": 100
    },
    {
      "midi": 38,
      "hit": false,
      "t": 81111.0299999998,
      "d": 138.88874999999825,
      "v": 100
    },
    {
      "midi": 50,
      "hit": false,
      "t": 81111.02999999987,
      "d": 55.55550000000221,
      "v": 100
    },
    {
      "midi": 88,
      "hit": false,
      "t": 81111.02999999996,
      "d": 138.88874999999825,
      "v": 100
    },
    {
      "midi": 52,
      "hit": false,
      "t": 81166.58549999987,
      "d": 55.55550000000221,
      "v": 100
    },
    {
      "midi": 47,
      "hit": false,
      "t": 81222.14099999987,
      "d": 111.11100000000442,
      "v": 100
    },
    {
      "midi": 36,
      "hit": false,
      "t": 81222.14100000015,
      "d": 69.4443750000064,
      "v": 127
    },
    {
      "midi": 44,
      "hit": false,
      "t": 81333.25199999979,
      "d": 69.4443750000064,
      "v": 100
    },
    {
      "midi": 38,
      "hit": false,
      "t": 81333.25199999979,
      "d": 69.4443750000064,
      "v": 100
    },
    {
      "midi": 46,
      "hit": false,
      "t": 81333.25199999988,
      "d": 111.11100000000442,
      "v": 100
    },
    {
      "midi": 39,
      "hit": false,
      "t": 81333.25199999993,
      "d": 69.4443750000064,
      "v": 127
    },
    {
      "midi": 44,
      "hit": false,
      "t": 81444.3629999998,
      "d": 69.4443750000064,
      "v": 100
    },
    {
      "midi": 38,
      "hit": false,
      "t": 81444.3629999998,
      "d": 69.4443750000064,
      "v": 100
    },
    {
      "midi": 45,
      "hit": false,
      "t": 81444.36299999988,
      "d": 111.11100000000442,
      "v": 100
    },
    {
      "midi": 39,
      "hit": false,
      "t": 81444.36299999994,
      "d": 69.4443750000064,
      "v": 127
    },
    {
      "midi": 88,
      "hit": false,
      "t": 81444.36299999995,
      "d": 111.11100000000442,
      "v": 127
    },
    {
      "midi": 83,
      "hit": false,
      "t": 81444.36299999995,
      "d": 111.11100000000442,
      "v": 127
    },
    {
      "midi": 44,
      "hit": false,
      "t": 81555.4739999998,
      "d": 69.4443750000064,
      "v": 100
    },
    {
      "midi": 38,
      "hit": false,
      "t": 81555.4739999998,
      "d": 69.4443750000064,
      "v": 100
    },
    {
      "midi": 50,
      "hit": false,
      "t": 81555.47399999989,
      "d": 111.11100000000442,
      "v": 100
    },
    {
      "midi": 39,
      "hit": false,
      "t": 81555.47399999994,
      "d": 69.4443750000064,
      "v": 127
    },
    {
      "midi": 88,
      "hit": false,
      "t": 81555.47399999996,
      "d": 69.4443750000064,
      "v": 100
    },
    {
      "midi": 88,
      "hit": false,
      "t": 81555.47399999996,
      "d": 111.11100000000442,
      "v": 127
    },
    {
      "midi": 83,
      "hit": false,
      "t": 81555.47399999996,
      "d": 111.11100000000442,
      "v": 127
    },
    {
      "midi": 36,
      "hit": false,
      "t": 81555.47400000016,
      "d": 138.88874999999825,
      "v": 127
    },
    {
      "midi": 38,
      "hit": false,
      "t": 81666.5849999998,
      "d": 69.4443750000064,
      "v": 100
    },
    {
      "midi": 52,
      "hit": false,
      "t": 81666.58499999989,
      "d": 111.11100000000442,
      "v": 100
    },
    {
      "midi": 39,
      "hit": false,
      "t": 81666.58499999995,
      "d": 69.4443750000064,
      "v": 127
    },
    {
      "midi": 88,
      "hit": false,
      "t": 81666.58499999996,
      "d": 69.4443750000064,
      "v": 100
    },
    {
      "midi": 88,
      "hit": false,
      "t": 81666.58499999996,
      "d": 111.11100000000442,
      "v": 127
    },
    {
      "midi": 83,
      "hit": false,
      "t": 81666.58499999996,
      "d": 111.11100000000442,
      "v": 127
    }
  ]
}