{
  "jsonPath": "Classical/Late Romantic Era/Stephen Heller/barcarolle.json",
  "path": "Classical\\Late Romantic Era\\Stephen Heller\\Barcarolle.mid",
  "name": "Barcarolle",
  "difficulty": "Advanced",
  "bpm": 100,
  "notes": [
    {
      "midi": 66,
      "hit": false,
      "t": 0,
      "d": 225,
      "v": 71
    },
    {
      "midi": 47,
      "hit": false,
      "t": 0,
      "d": 300,
      "v": 70
    },
    {
      "midi": 74,
      "hit": false,
      "t": 225,
      "d": 150,
      "v": 92
    },
    {
      "midi": 54,
      "hit": false,
      "t": 300,
      "d": 600,
      "v": 91
    },
    {
      "midi": 59,
      "hit": false,
      "t": 300,
      "d": 600,
      "v": 91
    },
    {
      "midi": 62,
      "hit": false,
      "t": 300,
      "d": 600,
      "v": 91
    },
    {
      "midi": 74,
      "hit": false,
      "t": 375,
      "d": 450,
      "v": 77
    },
    {
      "midi": 74,
      "hit": false,
      "t": 900,
      "d": 75,
      "v": 77
    },
    {
      "midi": 47,
      "hit": false,
      "t": 900,
      "d": 300,
      "v": 73
    },
    {
      "midi": 65,
      "hit": false,
      "t": 975,
      "d": 225,
      "v": 61
    },
    {
      "midi": 73,
      "hit": false,
      "t": 1200,
      "d": 150,
      "v": 86
    },
    {
      "midi": 56,
      "hit": false,
      "t": 1200,
      "d": 600,
      "v": 97
    },
    {
      "midi": 59,
      "hit": false,
      "t": 1200,
      "d": 600,
      "v": 97
    },
    {
      "midi": 61,
      "hit": false,
      "t": 1200,
      "d": 600,
      "v": 97
    },
    {
      "midi": 64,
      "hit": false,
      "t": 1800,
      "d": 150,
      "v": 68
    },
    {
      "midi": 47,
      "hit": false,
      "t": 1800,
      "d": 300,
      "v": 69
    },
    {
      "midi": 73,
      "hit": false,
      "t": 1950,
      "d": 150,
      "v": 88
    },
    {
      "midi": 73,
      "hit": false,
      "t": 2100,
      "d": 450,
      "v": 80
    },
    {
      "midi": 54,
      "hit": false,
      "t": 2100,
      "d": 600,
      "v": 97
    },
    {
      "midi": 58,
      "hit": false,
      "t": 2100,
      "d": 600,
      "v": 97
    },
    {
      "midi": 61,
      "hit": false,
      "t": 2100,
      "d": 600,
      "v": 97
    },
    {
      "midi": 64,
      "hit": false,
      "t": 2550,
      "d": 150,
      "v": 55
    },
    {
      "midi": 62,
      "hit": false,
      "t": 2700,
      "d": 150,
      "v": 69
    },
    {
      "midi": 47,
      "hit": false,
      "t": 2700,
      "d": 300,
      "v": 69
    },
    {
      "midi": 64,
      "hit": false,
      "t": 2850,
      "d": 150,
      "v": 80
    },
    {
      "midi": 66,
      "hit": false,
      "t": 3000,
      "d": 150,
      "v": 79
    },
    {
      "midi": 54,
      "hit": false,
      "t": 3000,
      "d": 600,
      "v": 97
    },
    {
      "midi": 59,
      "hit": false,
      "t": 3000,
      "d": 600,
      "v": 97
    },
    {
      "midi": 62,
      "hit": false,
      "t": 3000,
      "d": 600,
      "v": 97
    },
    {
      "midi": 67,
      "hit": false,
      "t": 3150,
      "d": 150,
      "v": 81
    },
    {
      "midi": 66,
      "hit": false,
      "t": 3300,
      "d": 300,
      "v": 74
    },
    {
      "midi": 47,
      "hit": false,
      "t": 3600,
      "d": 300,
      "v": 69
    },
    {
      "midi": 54,
      "hit": false,
      "t": 3900,
      "d": 600,
      "v": 93
    },
    {
      "midi": 59,
      "hit": false,
      "t": 3900,
      "d": 600,
      "v": 93
    },
    {
      "midi": 62,
      "hit": false,
      "t": 3900,
      "d": 600,
      "v": 93
    },
    {
      "midi": 62,
      "hit": false,
      "t": 4500,
      "d": 150,
      "v": 67
    },
    {
      "midi": 47,
      "hit": false,
      "t": 4500,
      "d": 300,
      "v": 67
    },
    {
      "midi": 64,
      "hit": false,
      "t": 4650,
      "d": 150,
      "v": 78
    },
    {
      "midi": 66,
      "hit": false,
      "t": 4800,
      "d": 150,
      "v": 81
    },
    {
      "midi": 54,
      "hit": false,
      "t": 4800,
      "d": 600,
      "v": 93
    },
    {
      "midi": 59,
      "hit": false,
      "t": 4800,
      "d": 600,
      "v": 93
    },
    {
      "midi": 62,
      "hit": false,
      "t": 4800,
      "d": 600,
      "v": 93
    },
    {
      "midi": 67,
      "hit": false,
      "t": 4950,
      "d": 150,
      "v": 77
    },
    {
      "midi": 66,
      "hit": false,
      "t": 5100,
      "d": 300,
      "v": 71
    },
    {
      "midi": 66,
      "hit": false,
      "t": 5400,
      "d": 150,
      "v": 76
    },
    {
      "midi": 50,
      "hit": false,
      "t": 5400,
      "d": 300,
      "v": 71
    },
    {
      "midi": 67,
      "hit": false,
      "t": 5550,
      "d": 150,
      "v": 82
    },
    {
      "midi": 71,
      "hit": false,
      "t": 5700,
      "d": 150,
      "v": 82
    },
    {
      "midi": 57,
      "hit": false,
      "t": 5700,
      "d": 600,
      "v": 98
    },
    {
      "midi": 62,
      "hit": false,
      "t": 5700,
      "d": 600,
      "v": 98
    },
    {
      "midi": 66,
      "hit": false,
      "t": 5700,
      "d": 600,
      "v": 98
    },
    {
      "midi": 69,
      "hit": false,
      "t": 5850,
      "d": 150,
      "v": 69
    },
    {
      "midi": 71,
      "hit": false,
      "t": 6000,
      "d": 150,
      "v": 82
    },
    {
      "midi": 69,
      "hit": false,
      "t": 6150,
      "d": 150,
      "v": 74
    },
    {
      "midi": 71,
      "hit": false,
      "t": 6300,
      "d": 150,
      "v": 79
    },
    {
      "midi": 50,
      "hit": false,
      "t": 6300,
      "d": 300,
      "v": 71
    },
    {
      "midi": 72,
      "hit": false,
      "t": 6450,
      "d": 150,
      "v": 77
    },
    {
      "midi": 74,
      "hit": false,
      "t": 6600,
      "d": 150,
      "v": 82
    },
    {
      "midi": 57,
      "hit": false,
      "t": 6600,
      "d": 600,
      "v": 93
    },
    {
      "midi": 62,
      "hit": false,
      "t": 6600,
      "d": 600,
      "v": 93
    },
    {
      "midi": 66,
      "hit": false,
      "t": 6600,
      "d": 600,
      "v": 93
    },
    {
      "midi": 72,
      "hit": false,
      "t": 6750,
      "d": 150,
      "v": 73
    },
    {
      "midi": 74,
      "hit": false,
      "t": 6900,
      "d": 150,
      "v": 80
    },
    {
      "midi": 71,
      "hit": false,
      "t": 7200,
      "d": 600,
      "v": 69
    },
    {
      "midi": 55,
      "hit": false,
      "t": 7200,
      "d": 300,
      "v": 70
    },
    {
      "midi": 62,
      "hit": false,
      "t": 7500,
      "d": 600,
      "v": 98
    },
    {
      "midi": 67,
      "hit": false,
      "t": 7500,
      "d": 600,
      "v": 98
    },
    {
      "midi": 71,
      "hit": false,
      "t": 7500,
      "d": 600,
      "v": 98
    },
    {
      "midi": 55,
      "hit": false,
      "t": 8100,
      "d": 300,
      "v": 71
    },
    {
      "midi": 62,
      "hit": false,
      "t": 8400,
      "d": 600,
      "v": 98
    },
    {
      "midi": 67,
      "hit": false,
      "t": 8400,
      "d": 600,
      "v": 98
    },
    {
      "midi": 71,
      "hit": false,
      "t": 8400,
      "d": 600,
      "v": 98
    },
    {
      "midi": 74,
      "hit": false,
      "t": 9000,
      "d": 225,
      "v": 66
    },
    {
      "midi": 55,
      "hit": false,
      "t": 9000,
      "d": 300,
      "v": 69
    },
    {
      "midi": 83,
      "hit": false,
      "t": 9225,
      "d": 150,
      "v": 92
    },
    {
      "midi": 62,
      "hit": false,
      "t": 9300,
      "d": 600,
      "v": 92
    },
    {
      "midi": 67,
      "hit": false,
      "t": 9300,
      "d": 600,
      "v": 92
    },
    {
      "midi": 71,
      "hit": false,
      "t": 9300,
      "d": 600,
      "v": 92
    },
    {
      "midi": 83,
      "hit": false,
      "t": 9375,
      "d": 450,
      "v": 80
    },
    {
      "midi": 83,
      "hit": false,
      "t": 9900,
      "d": 75,
      "v": 80
    },
    {
      "midi": 55,
      "hit": false,
      "t": 9900,
      "d": 300,
      "v": 71
    },
    {
      "midi": 73,
      "hit": false,
      "t": 9975,
      "d": 450,
      "v": 56
    },
    {
      "midi": 61,
      "hit": false,
      "t": 10200,
      "d": 600,
      "v": 97
    },
    {
      "midi": 64,
      "hit": false,
      "t": 10200,
      "d": 600,
      "v": 97
    },
    {
      "midi": 69,
      "hit": false,
      "t": 10200,
      "d": 600,
      "v": 97
    },
    {
      "midi": 81,
      "hit": false,
      "t": 10425,
      "d": 150,
      "v": 90
    },
    {
      "midi": 72,
      "hit": false,
      "t": 10800,
      "d": 150,
      "v": 69
    },
    {
      "midi": 55,
      "hit": false,
      "t": 10800,
      "d": 300,
      "v": 68
    },
    {
      "midi": 72,
      "hit": false,
      "t": 10950,
      "d": 600,
      "v": 68
    },
    {
      "midi": 62,
      "hit": false,
      "t": 11100,
      "d": 600,
      "v": 101
    },
    {
      "midi": 66,
      "hit": false,
      "t": 11100,
      "d": 600,
      "v": 101
    },
    {
      "midi": 69,
      "hit": false,
      "t": 11100,
      "d": 600,
      "v": 101
    },
    {
      "midi": 81,
      "hit": false,
      "t": 11400,
      "d": 150,
      "v": 67
    },
    {
      "midi": 81,
      "hit": false,
      "t": 11550,
      "d": 450,
      "v": 76
    },
    {
      "midi": 55,
      "hit": false,
      "t": 11700,
      "d": 300,
      "v": 76
    },
    {
      "midi": 72,
      "hit": false,
      "t": 12000,
      "d": 150,
      "v": 58
    },
    {
      "midi": 62,
      "hit": false,
      "t": 12000,
      "d": 600,
      "v": 95
    },
    {
      "midi": 67,
      "hit": false,
      "t": 12000,
      "d": 600,
      "v": 95
    },
    {
      "midi": 71,
      "hit": false,
      "t": 12000,
      "d": 600,
      "v": 95
    },
    {
      "midi": 71,
      "hit": false,
      "t": 12150,
      "d": 150,
      "v": 70
    },
    {
      "midi": 72,
      "hit": false,
      "t": 12300,
      "d": 150,
      "v": 79
    },
    {
      "midi": 74,
      "hit": false,
      "t": 12450,
      "d": 150,
      "v": 76
    },
    {
      "midi": 74,
      "hit": false,
      "t": 12600,
      "d": 900,
      "v": 78
    },
    {
      "midi": 55,
      "hit": false,
      "t": 12600,
      "d": 300,
      "v": 70
    },
    {
      "midi": 62,
      "hit": false,
      "t": 12900,
      "d": 600,
      "v": 95
    },
    {
      "midi": 67,
      "hit": false,
      "t": 12900,
      "d": 600,
      "v": 95
    },
    {
      "midi": 71,
      "hit": false,
      "t": 12900,
      "d": 600,
      "v": 95
    },
    {
      "midi": 71,
      "hit": false,
      "t": 13500,
      "d": 150,
      "v": 72
    },
    {
      "midi": 55,
      "hit": false,
      "t": 13500,
      "d": 300,
      "v": 67
    },
    {
      "midi": 72,
      "hit": false,
      "t": 13650,
      "d": 150,
      "v": 76
    },
    {
      "midi": 74,
      "hit": false,
      "t": 13800,
      "d": 150,
      "v": 78
    },
    {
      "midi": 62,
      "hit": false,
      "t": 13800,
      "d": 600,
      "v": 96
    },
    {
      "midi": 67,
      "hit": false,
      "t": 13800,
      "d": 600,
      "v": 96
    },
    {
      "midi": 71,
      "hit": false,
      "t": 13800,
      "d": 600,
      "v": 96
    },
    {
      "midi": 76,
      "hit": false,
      "t": 13950,
      "d": 150,
      "v": 82
    },
    {
      "midi": 74,
      "hit": false,
      "t": 14100,
      "d": 300,
      "v": 73
    },
    {
      "midi": 74,
      "hit": false,
      "t": 14400,
      "d": 150,
      "v": 71
    },
    {
      "midi": 54,
      "hit": false,
      "t": 14400,
      "d": 300,
      "v": 67
    },
    {
      "midi": 76,
      "hit": false,
      "t": 14550,
      "d": 150,
      "v": 87
    },
    {
      "midi": 78,
      "hit": false,
      "t": 14700,
      "d": 150,
      "v": 85
    },
    {
      "midi": 62,
      "hit": false,
      "t": 14700,
      "d": 600,
      "v": 92
    },
    {
      "midi": 66,
      "hit": false,
      "t": 14700,
      "d": 600,
      "v": 92
    },
    {
      "midi": 71,
      "hit": false,
      "t": 14700,
      "d": 600,
      "v": 92
    },
    {
      "midi": 79,
      "hit": false,
      "t": 14850,
      "d": 150,
      "v": 74
    },
    {
      "midi": 78,
      "hit": false,
      "t": 15000,
      "d": 150,
      "v": 71
    },
    {
      "midi": 80,
      "hit": false,
      "t": 15150,
      "d": 150,
      "v": 85
    },
    {
      "midi": 82,
      "hit": false,
      "t": 15300,
      "d": 150,
      "v": 83
    },
    {
      "midi": 54,
      "hit": false,
      "t": 15300,
      "d": 300,
      "v": 68
    },
    {
      "midi": 83,
      "hit": false,
      "t": 15450,
      "d": 150,
      "v": 79
    },
    {
      "midi": 85,
      "hit": false,
      "t": 15600,
      "d": 150,
      "v": 82
    },
    {
      "midi": 66,
      "hit": false,
      "t": 15600,
      "d": 600,
      "v": 94
    },
    {
      "midi": 70,
      "hit": false,
      "t": 15600,
      "d": 600,
      "v": 94
    },
    {
      "midi": 76,
      "hit": false,
      "t": 15600,
      "d": 600,
      "v": 94
    },
    {
      "midi": 86,
      "hit": false,
      "t": 15750,
      "d": 150,
      "v": 80
    },
    {
      "midi": 85,
      "hit": false,
      "t": 15900,
      "d": 150,
      "v": 73
    },
    {
      "midi": 86,
      "hit": false,
      "t": 16050,
      "d": 150,
      "v": 79
    },
    {
      "midi": 83,
      "hit": false,
      "t": 16200,
      "d": 1800,
      "v": 71
    },
    {
      "midi": 59,
      "hit": false,
      "t": 16200,
      "d": 300,
      "v": 68
    },
    {
      "midi": 66,
      "hit": false,
      "t": 16500,
      "d": 600,
      "v": 99
    },
    {
      "midi": 71,
      "hit": false,
      "t": 16500,
      "d": 600,
      "v": 99
    },
    {
      "midi": 74,
      "hit": false,
      "t": 16500,
      "d": 600,
      "v": 99
    },
    {
      "midi": 59,
      "hit": false,
      "t": 17100,
      "d": 300,
      "v": 69
    },
    {
      "midi": 66,
      "hit": false,
      "t": 17400,
      "d": 600,
      "v": 98
    },
    {
      "midi": 71,
      "hit": false,
      "t": 17400,
      "d": 600,
      "v": 98
    },
    {
      "midi": 74,
      "hit": false,
      "t": 17400,
      "d": 600,
      "v": 98
    },
    {
      "midi": 66,
      "hit": false,
      "t": 18000,
      "d": 225,
      "v": 72
    },
    {
      "midi": 47,
      "hit": false,
      "t": 18000,
      "d": 300,
      "v": 72
    },
    {
      "midi": 74,
      "hit": false,
      "t": 18225,
      "d": 150,
      "v": 88
    },
    {
      "midi": 54,
      "hit": false,
      "t": 18300,
      "d": 600,
      "v": 96
    },
    {
      "midi": 59,
      "hit": false,
      "t": 18300,
      "d": 600,
      "v": 96
    },
    {
      "midi": 62,
      "hit": false,
      "t": 18300,
      "d": 600,
      "v": 96
    },
    {
      "midi": 74,
      "hit": false,
      "t": 18375,
      "d": 450,
      "v": 79
    },
    {
      "midi": 74,
      "hit": false,
      "t": 18900,
      "d": 75,
      "v": 79
    },
    {
      "midi": 47,
      "hit": false,
      "t": 18900,
      "d": 300,
      "v": 68
    },
    {
      "midi": 68,
      "hit": false,
      "t": 18975,
      "d": 150,
      "v": 62
    },
    {
      "midi": 74,
      "hit": false,
      "t": 19125,
      "d": 300,
      "v": 86
    },
    {
      "midi": 52,
      "hit": false,
      "t": 19200,
      "d": 600,
      "v": 94
    },
    {
      "midi": 59,
      "hit": false,
      "t": 19200,
      "d": 600,
      "v": 94
    },
    {
      "midi": 62,
      "hit": false,
      "t": 19200,
      "d": 600,
      "v": 94
    },
    {
      "midi": 73,
      "hit": false,
      "t": 19425,
      "d": 150,
      "v": 73
    },
    {
      "midi": 74,
      "hit": false,
      "t": 19575,
      "d": 150,
      "v": 83
    },
    {
      "midi": 78,
      "hit": false,
      "t": 19800,
      "d": 150,
      "v": 70
    },
    {
      "midi": 45,
      "hit": false,
      "t": 19800,
      "d": 300,
      "v": 72
    },
    {
      "midi": 78,
      "hit": false,
      "t": 19950,
      "d": 600,
      "v": 63
    },
    {
      "midi": 57,
      "hit": false,
      "t": 20100,
      "d": 600,
      "v": 95
    },
    {
      "midi": 61,
      "hit": false,
      "t": 20100,
      "d": 600,
      "v": 95
    },
    {
      "midi": 67,
      "hit": false,
      "t": 20400,
      "d": 150,
      "v": 68
    },
    {
      "midi": 67,
      "hit": false,
      "t": 20550,
      "d": 150,
      "v": 76
    },
    {
      "midi": 76,
      "hit": false,
      "t": 20700,
      "d": 150,
      "v": 71
    },
    {
      "midi": 50,
      "hit": false,
      "t": 20700,
      "d": 300,
      "v": 74
    },
    {
      "midi": 74,
      "hit": false,
      "t": 20850,
      "d": 150,
      "v": 70
    },
    {
      "midi": 76,
      "hit": false,
      "t": 21000,
      "d": 150,
      "v": 78
    },
    {
      "midi": 57,
      "hit": false,
      "t": 21000,
      "d": 600,
      "v": 98
    },
    {
      "midi": 62,
      "hit": false,
      "t": 21000,
      "d": 600,
      "v": 98
    },
    {
      "midi": 66,
      "hit": false,
      "t": 21000,
      "d": 600,
      "v": 98
    },
    {
      "midi": 78,
      "hit": false,
      "t": 21150,
      "d": 150,
      "v": 86
    },
    {
      "midi": 79,
      "hit": false,
      "t": 21300,
      "d": 150,
      "v": 80
    },
    {
      "midi": 78,
      "hit": false,
      "t": 21600,
      "d": 900,
      "v": 68
    },
    {
      "midi": 50,
      "hit": false,
      "t": 21600,
      "d": 300,
      "v": 70
    },
    {
      "midi": 57,
      "hit": false,
      "t": 21900,
      "d": 600,
      "v": 99
    },
    {
      "midi": 62,
      "hit": false,
      "t": 21900,
      "d": 600,
      "v": 99
    },
    {
      "midi": 66,
      "hit": false,
      "t": 21900,
      "d": 600,
      "v": 99
    },
    {
      "midi": 71,
      "hit": false,
      "t": 22500,
      "d": 150,
      "v": 63
    },
    {
      "midi": 47,
      "hit": false,
      "t": 22500,
      "d": 300,
      "v": 74
    },
    {
      "midi": 73,
      "hit": false,
      "t": 22650,
      "d": 150,
      "v": 81
    },
    {
      "midi": 74,
      "hit": false,
      "t": 22800,
      "d": 150,
      "v": 82
    },
    {
      "midi": 54,
      "hit": false,
      "t": 22800,
      "d": 600,
      "v": 94
    },
    {
      "midi": 59,
      "hit": false,
      "t": 22800,
      "d": 600,
      "v": 94
    },
    {
      "midi": 62,
      "hit": false,
      "t": 22800,
      "d": 600,
      "v": 94
    },
    {
      "midi": 76,
      "hit": false,
      "t": 22950,
      "d": 150,
      "v": 84
    },
    {
      "midi": 74,
      "hit": false,
      "t": 23100,
      "d": 300,
      "v": 73
    },
    {
      "midi": 74,
      "hit": false,
      "t": 23400,
      "d": 150,
      "v": 73
    },
    {
      "midi": 54,
      "hit": false,
      "t": 23400,
      "d": 300,
      "v": 75
    },
    {
      "midi": 76,
      "hit": false,
      "t": 23550,
      "d": 150,
      "v": 87
    },
    {
      "midi": 78,
      "hit": false,
      "t": 23700,
      "d": 150,
      "v": 84
    },
    {
      "midi": 62,
      "hit": false,
      "t": 23700,
      "d": 600,
      "v": 100
    },
    {
      "midi": 66,
      "hit": false,
      "t": 23700,
      "d": 600,
      "v": 100
    },
    {
      "midi": 71,
      "hit": false,
      "t": 23700,
      "d": 600,
      "v": 100
    },
    {
      "midi": 79,
      "hit": false,
      "t": 23850,
      "d": 150,
      "v": 79
    },
    {
      "midi": 78,
      "hit": false,
      "t": 24000,
      "d": 150,
      "v": 76
    },
    {
      "midi": 80,
      "hit": false,
      "t": 24150,
      "d": 150,
      "v": 84
    },
    {
      "midi": 82,
      "hit": false,
      "t": 24300,
      "d": 150,
      "v": 79
    },
    {
      "midi": 54,
      "hit": false,
      "t": 24300,
      "d": 300,
      "v": 69
    },
    {
      "midi": 83,
      "hit": false,
      "t": 24450,
      "d": 150,
      "v": 79
    },
    {
      "midi": 85,
      "hit": false,
      "t": 24600,
      "d": 150,
      "v": 85
    },
    {
      "midi": 66,
      "hit": false,
      "t": 24600,
      "d": 600,
      "v": 92
    },
    {
      "midi": 70,
      "hit": false,
      "t": 24600,
      "d": 600,
      "v": 92
    },
    {
      "midi": 76,
      "hit": false,
      "t": 24600,
      "d": 600,
      "v": 92
    },
    {
      "midi": 86,
      "hit": false,
      "t": 24750,
      "d": 150,
      "v": 83
    },
    {
      "midi": 85,
      "hit": false,
      "t": 24900,
      "d": 150,
      "v": 73
    },
    {
      "midi": 86,
      "hit": false,
      "t": 25050,
      "d": 150,
      "v": 78
    },
    {
      "midi": 83,
      "hit": false,
      "t": 25200,
      "d": 1800,
      "v": 69
    },
    {
      "midi": 59,
      "hit": false,
      "t": 25200,
      "d": 300,
      "v": 71
    },
    {
      "midi": 66,
      "hit": false,
      "t": 25500,
      "d": 600,
      "v": 101
    },
    {
      "midi": 71,
      "hit": false,
      "t": 25500,
      "d": 600,
      "v": 101
    },
    {
      "midi": 74,
      "hit": false,
      "t": 25500,
      "d": 600,
      "v": 101
    },
    {
      "midi": 59,
      "hit": false,
      "t": 26100,
      "d": 300,
      "v": 74
    },
    {
      "midi": 66,
      "hit": false,
      "t": 26400,
      "d": 600,
      "v": 98
    },
    {
      "midi": 71,
      "hit": false,
      "t": 26400,
      "d": 600,
      "v": 98
    },
    {
      "midi": 74,
      "hit": false,
      "t": 26400,
      "d": 600,
      "v": 98
    },
    {
      "midi": 66,
      "hit": false,
      "t": 27000,
      "d": 150,
      "v": 72
    },
    {
      "midi": 47,
      "hit": false,
      "t": 27000,
      "d": 300,
      "v": 70
    },
    {
      "midi": 74,
      "hit": false,
      "t": 27150,
      "d": 150,
      "v": 96
    },
    {
      "midi": 74,
      "hit": false,
      "t": 27300,
      "d": 450,
      "v": 76
    },
    {
      "midi": 54,
      "hit": false,
      "t": 27300,
      "d": 600,
      "v": 94
    },
    {
      "midi": 59,
      "hit": false,
      "t": 27300,
      "d": 600,
      "v": 94
    },
    {
      "midi": 62,
      "hit": false,
      "t": 27300,
      "d": 600,
      "v": 94
    },
    {
      "midi": 66,
      "hit": false,
      "t": 27750,
      "d": 150,
      "v": 63
    },
    {
      "midi": 68,
      "hit": false,
      "t": 27900,
      "d": 150,
      "v": 79
    },
    {
      "midi": 40,
      "hit": false,
      "t": 27900,
      "d": 300,
      "v": 68
    },
    {
      "midi": 74,
      "hit": false,
      "t": 28050,
      "d": 150,
      "v": 86
    },
    {
      "midi": 68,
      "hit": false,
      "t": 28200,
      "d": 300,
      "v": 63
    },
    {
      "midi": 74,
      "hit": false,
      "t": 28200,
      "d": 300,
      "v": 68
    },
    {
      "midi": 52,
      "hit": false,
      "t": 28200,
      "d": 600,
      "v": 98
    },
    {
      "midi": 59,
      "hit": false,
      "t": 28200,
      "d": 600,
      "v": 98
    },
    {
      "midi": 62,
      "hit": false,
      "t": 28200,
      "d": 600,
      "v": 98
    },
    {
      "midi": 73,
      "hit": false,
      "t": 28500,
      "d": 150,
      "v": 74
    },
    {
      "midi": 74,
      "hit": false,
      "t": 28650,
      "d": 150,
      "v": 79
    },
    {
      "midi": 78,
      "hit": false,
      "t": 28800,
      "d": 225,
      "v": 93
    },
    {
      "midi": 45,
      "hit": false,
      "t": 28800,
      "d": 300,
      "v": 70
    },
    {
      "midi": 67,
      "hit": false,
      "t": 29025,
      "d": 150,
      "v": 62
    },
    {
      "midi": 57,
      "hit": false,
      "t": 29100,
      "d": 600,
      "v": 94
    },
    {
      "midi": 61,
      "hit": false,
      "t": 29100,
      "d": 600,
      "v": 94
    },
    {
      "midi": 67,
      "hit": false,
      "t": 29175,
      "d": 450,
      "v": 75
    },
    {
      "midi": 67,
      "hit": false,
      "t": 29700,
      "d": 75,
      "v": 75
    },
    {
      "midi": 78,
      "hit": false,
      "t": 29700,
      "d": 150,
      "v": 74
    },
    {
      "midi": 50,
      "hit": false,
      "t": 29700,
      "d": 300,
      "v": 68
    },
    {
      "midi": 76,
      "hit": false,
      "t": 29850,
      "d": 150,
      "v": 73
    },
    {
      "midi": 74,
      "hit": false,
      "t": 30000,
      "d": 150,
      "v": 68
    },
    {
      "midi": 57,
      "hit": false,
      "t": 30000,
      "d": 600,
      "v": 96
    },
    {
      "midi": 61,
      "hit": false,
      "t": 30000,
      "d": 600,
      "v": 96
    },
    {
      "midi": 66,
      "hit": false,
      "t": 30000,
      "d": 600,
      "v": 96
    },
    {
      "midi": 76,
      "hit": false,
      "t": 30150,
      "d": 150,
      "v": 78
    },
    {
      "midi": 78,
      "hit": false,
      "t": 30300,
      "d": 150,
      "v": 85
    },
    {
      "midi": 79,
      "hit": false,
      "t": 30450,
      "d": 150,
      "v": 77
    },
    {
      "midi": 78,
      "hit": false,
      "t": 30600,
      "d": 900,
      "v": 69
    },
    {
      "midi": 50,
      "hit": false,
      "t": 30600,
      "d": 300,
      "v": 73
    },
    {
      "midi": 57,
      "hit": false,
      "t": 30900,
      "d": 600,
      "v": 98
    },
    {
      "midi": 62,
      "hit": false,
      "t": 30900,
      "d": 600,
      "v": 98
    },
    {
      "midi": 66,
      "hit": false,
      "t": 30900,
      "d": 600,
      "v": 98
    },
    {
      "midi": 71,
      "hit": false,
      "t": 31500,
      "d": 150,
      "v": 62
    },
    {
      "midi": 47,
      "hit": false,
      "t": 31500,
      "d": 300,
      "v": 68
    },
    {
      "midi": 73,
      "hit": false,
      "t": 31650,
      "d": 150,
      "v": 76
    },
    {
      "midi": 74,
      "hit": false,
      "t": 31800,
      "d": 150,
      "v": 83
    },
    {
      "midi": 54,
      "hit": false,
      "t": 31800,
      "d": 600,
      "v": 92
    },
    {
      "midi": 59,
      "hit": false,
      "t": 31800,
      "d": 600,
      "v": 92
    },
    {
      "midi": 62,
      "hit": false,
      "t": 31800,
      "d": 600,
      "v": 92
    },
    {
      "midi": 76,
      "hit": false,
      "t": 31950,
      "d": 150,
      "v": 83
    },
    {
      "midi": 74,
      "hit": false,
      "t": 32100,
      "d": 300,
      "v": 73
    },
    {
      "midi": 74,
      "hit": false,
      "t": 32400,
      "d": 150,
      "v": 76
    },
    {
      "midi": 54,
      "hit": false,
      "t": 32400,
      "d": 300,
      "v": 73
    },
    {
      "midi": 76,
      "hit": false,
      "t": 32550,
      "d": 150,
      "v": 79
    },
    {
      "midi": 78,
      "hit": false,
      "t": 32700,
      "d": 150,
      "v": 81
    },
    {
      "midi": 62,
      "hit": false,
      "t": 32700,
      "d": 600,
      "v": 96
    },
    {
      "midi": 66,
      "hit": false,
      "t": 32700,
      "d": 600,
      "v": 96
    },
    {
      "midi": 71,
      "hit": false,
      "t": 32700,
      "d": 600,
      "v": 96
    },
    {
      "midi": 79,
      "hit": false,
      "t": 32850,
      "d": 150,
      "v": 82
    },
    {
      "midi": 78,
      "hit": false,
      "t": 33000,
      "d": 150,
      "v": 73
    },
    {
      "midi": 80,
      "hit": false,
      "t": 33150,
      "d": 150,
      "v": 80
    },
    {
      "midi": 82,
      "hit": false,
      "t": 33300,
      "d": 150,
      "v": 84
    },
    {
      "midi": 54,
      "hit": false,
      "t": 33300,
      "d": 300,
      "v": 72
    },
    {
      "midi": 83,
      "hit": false,
      "t": 33450,
      "d": 150,
      "v": 78
    },
    {
      "midi": 85,
      "hit": false,
      "t": 33600,
      "d": 150,
      "v": 77
    },
    {
      "midi": 66,
      "hit": false,
      "t": 33600,
      "d": 600,
      "v": 94
    },
    {
      "midi": 70,
      "hit": false,
      "t": 33600,
      "d": 600,
      "v": 94
    },
    {
      "midi": 76,
      "hit": false,
      "t": 33600,
      "d": 600,
      "v": 94
    },
    {
      "midi": 86,
      "hit": false,
      "t": 33750,
      "d": 150,
      "v": 74
    },
    {
      "midi": 85,
      "hit": false,
      "t": 33900,
      "d": 150,
      "v": 69
    },
    {
      "midi": 86,
      "hit": false,
      "t": 34050,
      "d": 150,
      "v": 85
    },
    {
      "midi": 83,
      "hit": false,
      "t": 34200,
      "d": 900,
      "v": 90
    },
    {
      "midi": 59,
      "hit": false,
      "t": 34200,
      "d": 300,
      "v": 71
    },
    {
      "midi": 66,
      "hit": false,
      "t": 34500,
      "d": 600,
      "v": 97
    },
    {
      "midi": 71,
      "hit": false,
      "t": 34500,
      "d": 600,
      "v": 97
    },
    {
      "midi": 74,
      "hit": false,
      "t": 34500,
      "d": 600,
      "v": 97
    },
    {
      "midi": 72,
      "hit": false,
      "t": 35100,
      "d": 225,
      "v": 56
    },
    {
      "midi": 51,
      "hit": false,
      "t": 35100,
      "d": 300,
      "v": 68
    },
    {
      "midi": 81,
      "hit": false,
      "t": 35325,
      "d": 150,
      "v": 85
    },
    {
      "midi": 60,
      "hit": false,
      "t": 35400,
      "d": 600,
      "v": 98
    },
    {
      "midi": 66,
      "hit": false,
      "t": 35400,
      "d": 600,
      "v": 98
    },
    {
      "midi": 69,
      "hit": false,
      "t": 35400,
      "d": 600,
      "v": 98
    },
    {
      "midi": 71,
      "hit": false,
      "t": 36000,
      "d": 150,
      "v": 69
    },
    {
      "midi": 52,
      "hit": false,
      "t": 36000,
      "d": 300,
      "v": 71
    },
    {
      "midi": 79,
      "hit": false,
      "t": 36150,
      "d": 150,
      "v": 90
    },
    {
      "midi": 79,
      "hit": false,
      "t": 36300,
      "d": 450,
      "v": 80
    },
    {
      "midi": 59,
      "hit": false,
      "t": 36300,
      "d": 600,
      "v": 98
    },
    {
      "midi": 64,
      "hit": false,
      "t": 36300,
      "d": 600,
      "v": 98
    },
    {
      "midi": 67,
      "hit": false,
      "t": 36300,
      "d": 600,
      "v": 98
    },
    {
      "midi": 71,
      "hit": false,
      "t": 36750,
      "d": 150,
      "v": 62
    },
    {
      "midi": 70,
      "hit": false,
      "t": 36900,
      "d": 150,
      "v": 69
    },
    {
      "midi": 42,
      "hit": false,
      "t": 36900,
      "d": 300,
      "v": 71
    },
    {
      "midi": 71,
      "hit": false,
      "t": 37050,
      "d": 150,
      "v": 79
    },
    {
      "midi": 73,
      "hit": false,
      "t": 37200,
      "d": 150,
      "v": 80
    },
    {
      "midi": 54,
      "hit": false,
      "t": 37200,
      "d": 600,
      "v": 97
    },
    {
      "midi": 58,
      "hit": false,
      "t": 37200,
      "d": 600,
      "v": 97
    },
    {
      "midi": 64,
      "hit": false,
      "t": 37200,
      "d": 600,
      "v": 97
    },
    {
      "midi": 74,
      "hit": false,
      "t": 37350,
      "d": 150,
      "v": 79
    },
    {
      "midi": 73,
      "hit": false,
      "t": 37500,
      "d": 150,
      "v": 77
    },
    {
      "midi": 74,
      "hit": false,
      "t": 37650,
      "d": 150,
      "v": 78
    },
    {
      "midi": 71,
      "hit": false,
      "t": 37800,
      "d": 150,
      "v": 64
    },
    {
      "midi": 47,
      "hit": false,
      "t": 37800,
      "d": 300,
      "v": 70
    },
    {
      "midi": 73,
      "hit": false,
      "t": 37950,
      "d": 150,
      "v": 80
    },
    {
      "midi": 74,
      "hit": false,
      "t": 38100,
      "d": 150,
      "v": 79
    },
    {
      "midi": 54,
      "hit": false,
      "t": 38100,
      "d": 600,
      "v": 91
    },
    {
      "midi": 59,
      "hit": false,
      "t": 38100,
      "d": 600,
      "v": 91
    },
    {
      "midi": 62,
      "hit": false,
      "t": 38100,
      "d": 600,
      "v": 91
    },
    {
      "midi": 76,
      "hit": false,
      "t": 38250,
      "d": 150,
      "v": 81
    },
    {
      "midi": 74,
      "hit": false,
      "t": 38400,
      "d": 300,
      "v": 69
    },
    {
      "midi": 72,
      "hit": false,
      "t": 38700,
      "d": 150,
      "v": 76
    },
    {
      "midi": 51,
      "hit": false,
      "t": 38700,
      "d": 300,
      "v": 68
    },
    {
      "midi": 81,
      "hit": false,
      "t": 38850,
      "d": 150,
      "v": 92
    },
    {
      "midi": 81,
      "hit": false,
      "t": 39000,
      "d": 450,
      "v": 81
    },
    {
      "midi": 60,
      "hit": false,
      "t": 39000,
      "d": 600,
      "v": 99
    },
    {
      "midi": 66,
      "hit": false,
      "t": 39000,
      "d": 600,
      "v": 99
    },
    {
      "midi": 69,
      "hit": false,
      "t": 39000,
      "d": 600,
      "v": 99
    },
    {
      "midi": 72,
      "hit": false,
      "t": 39450,
      "d": 150,
      "v": 64
    },
    {
      "midi": 71,
      "hit": false,
      "t": 39600,
      "d": 150,
      "v": 75
    },
    {
      "midi": 52,
      "hit": false,
      "t": 39600,
      "d": 300,
      "v": 69
    },
    {
      "midi": 79,
      "hit": false,
      "t": 39750,
      "d": 150,
      "v": 90
    },
    {
      "midi": 79,
      "hit": false,
      "t": 39900,
      "d": 450,
      "v": 80
    },
    {
      "midi": 59,
      "hit": false,
      "t": 39900,
      "d": 600,
      "v": 93
    },
    {
      "midi": 64,
      "hit": false,
      "t": 39900,
      "d": 600,
      "v": 93
    },
    {
      "midi": 67,
      "hit": false,
      "t": 39900,
      "d": 600,
      "v": 93
    },
    {
      "midi": 71,
      "hit": false,
      "t": 40350,
      "d": 150,
      "v": 63
    },
    {
      "midi": 70,
      "hit": false,
      "t": 40500,
      "d": 150,
      "v": 69
    },
    {
      "midi": 42,
      "hit": false,
      "t": 40500,
      "d": 300,
      "v": 68
    },
    {
      "midi": 71,
      "hit": false,
      "t": 40650,
      "d": 150,
      "v": 77
    },
    {
      "midi": 73,
      "hit": false,
      "t": 40800,
      "d": 150,
      "v": 84
    },
    {
      "midi": 54,
      "hit": false,
      "t": 40800,
      "d": 600,
      "v": 99
    },
    {
      "midi": 58,
      "hit": false,
      "t": 40800,
      "d": 600,
      "v": 99
    },
    {
      "midi": 64,
      "hit": false,
      "t": 40800,
      "d": 600,
      "v": 99
    },
    {
      "midi": 74,
      "hit": false,
      "t": 40950,
      "d": 150,
      "v": 80
    },
    {
      "midi": 73,
      "hit": false,
      "t": 41100,
      "d": 150,
      "v": 69
    },
    {
      "midi": 74,
      "hit": false,
      "t": 41250,
      "d": 150,
      "v": 78
    },
    {
      "midi": 71,
      "hit": false,
      "t": 41400,
      "d": 150,
      "v": 71
    },
    {
      "midi": 47,
      "hit": false,
      "t": 41400,
      "d": 300,
      "v": 70
    },
    {
      "midi": 73,
      "hit": false,
      "t": 41550,
      "d": 150,
      "v": 83
    },
    {
      "midi": 74,
      "hit": false,
      "t": 41700,
      "d": 150,
      "v": 77
    },
    {
      "midi": 54,
      "hit": false,
      "t": 41700,
      "d": 600,
      "v": 96
    },
    {
      "midi": 59,
      "hit": false,
      "t": 41700,
      "d": 600,
      "v": 96
    },
    {
      "midi": 62,
      "hit": false,
      "t": 41700,
      "d": 600,
      "v": 96
    },
    {
      "midi": 76,
      "hit": false,
      "t": 41850,
      "d": 150,
      "v": 82
    },
    {
      "midi": 78,
      "hit": false,
      "t": 42000,
      "d": 150,
      "v": 79
    },
    {
      "midi": 79,
      "hit": false,
      "t": 42150,
      "d": 150,
      "v": 84
    },
    {
      "midi": 78,
      "hit": false,
      "t": 42300,
      "d": 150,
      "v": 73
    },
    {
      "midi": 79,
      "hit": false,
      "t": 42450,
      "d": 150,
      "v": 80
    },
    {
      "midi": 78,
      "hit": false,
      "t": 42600,
      "d": 150,
      "v": 74
    },
    {
      "midi": 76,
      "hit": false,
      "t": 42750,
      "d": 150,
      "v": 74
    },
    {
      "midi": 74,
      "hit": false,
      "t": 42900,
      "d": 150,
      "v": 72
    },
    {
      "midi": 73,
      "hit": false,
      "t": 43050,
      "d": 150,
      "v": 70
    },
    {
      "midi": 71,
      "hit": false,
      "t": 43200,
      "d": 150,
      "v": 70
    },
    {
      "midi": 47,
      "hit": false,
      "t": 43200,
      "d": 300,
      "v": 73
    },
    {
      "midi": 73,
      "hit": false,
      "t": 43350,
      "d": 150,
      "v": 80
    },
    {
      "midi": 74,
      "hit": false,
      "t": 43500,
      "d": 150,
      "v": 81
    },
    {
      "midi": 54,
      "hit": false,
      "t": 43500,
      "d": 600,
      "v": 97
    },
    {
      "midi": 59,
      "hit": false,
      "t": 43500,
      "d": 600,
      "v": 97
    },
    {
      "midi": 62,
      "hit": false,
      "t": 43500,
      "d": 600,
      "v": 97
    },
    {
      "midi": 76,
      "hit": false,
      "t": 43650,
      "d": 150,
      "v": 86
    },
    {
      "midi": 78,
      "hit": false,
      "t": 43800,
      "d": 150,
      "v": 81
    },
    {
      "midi": 79,
      "hit": false,
      "t": 43950,
      "d": 150,
      "v": 81
    },
    {
      "midi": 78,
      "hit": false,
      "t": 44100,
      "d": 150,
      "v": 71
    },
    {
      "midi": 79,
      "hit": false,
      "t": 44250,
      "d": 150,
      "v": 81
    },
    {
      "midi": 78,
      "hit": false,
      "t": 44400,
      "d": 150,
      "v": 76
    },
    {
      "midi": 76,
      "hit": false,
      "t": 44550,
      "d": 150,
      "v": 70
    },
    {
      "midi": 74,
      "hit": false,
      "t": 44700,
      "d": 150,
      "v": 67
    },
    {
      "midi": 73,
      "hit": false,
      "t": 44850,
      "d": 150,
      "v": 74
    },
    {
      "midi": 71,
      "hit": false,
      "t": 45000,
      "d": 600,
      "v": 73
    },
    {
      "midi": 47,
      "hit": false,
      "t": 45000,
      "d": 300,
      "v": 69
    },
    {
      "midi": 54,
      "hit": false,
      "t": 45300,
      "d": 600,
      "v": 101
    },
    {
      "midi": 59,
      "hit": false,
      "t": 45300,
      "d": 600,
      "v": 101
    },
    {
      "midi": 62,
      "hit": false,
      "t": 45300,
      "d": 600,
      "v": 101
    },
    {
      "midi": 74,
      "hit": false,
      "t": 45600,
      "d": 300,
      "v": 79
    },
    {
      "midi": 71,
      "hit": false,
      "t": 45900,
      "d": 600,
      "v": 71
    },
    {
      "midi": 66,
      "hit": false,
      "t": 46500,
      "d": 300,
      "v": 64
    },
    {
      "midi": 59,
      "hit": false,
      "t": 46800,
      "d": 1800,
      "v": 65
    }
  ]
}