{
  "jsonPath": "Classical/Classical Era/Johann Christian Bach/risoluto.json",
  "path": "Classical\\Classical Era\\Johann Christian Bach\\Risoluto.mid",
  "name": "Risoluto",
  "difficulty": "Advanced",
  "bpm": 100,
  "notes": [
    {
      "midi": 65,
      "hit": false,
      "t": 900,
      "d": 300,
      "v": 69
    },
    {
      "midi": 53,
      "hit": false,
      "t": 900,
      "d": 300,
      "v": 67
    },
    {
      "midi": 70,
      "hit": false,
      "t": 1200,
      "d": 300,
      "v": 127
    },
    {
      "midi": 58,
      "hit": false,
      "t": 1200,
      "d": 300,
      "v": 127
    },
    {
      "midi": 74,
      "hit": false,
      "t": 1500,
      "d": 150,
      "v": 86
    },
    {
      "midi": 62,
      "hit": false,
      "t": 1500,
      "d": 150,
      "v": 87
    },
    {
      "midi": 72,
      "hit": false,
      "t": 1650,
      "d": 150,
      "v": 72
    },
    {
      "midi": 60,
      "hit": false,
      "t": 1650,
      "d": 150,
      "v": 73
    },
    {
      "midi": 70,
      "hit": false,
      "t": 1800,
      "d": 300,
      "v": 68
    },
    {
      "midi": 58,
      "hit": false,
      "t": 1800,
      "d": 300,
      "v": 72
    },
    {
      "midi": 66,
      "hit": false,
      "t": 2100,
      "d": 300,
      "v": 64
    },
    {
      "midi": 54,
      "hit": false,
      "t": 2100,
      "d": 300,
      "v": 74
    },
    {
      "midi": 67,
      "hit": false,
      "t": 2400,
      "d": 600,
      "v": 127
    },
    {
      "midi": 55,
      "hit": false,
      "t": 2400,
      "d": 600,
      "v": 127
    },
    {
      "midi": 62,
      "hit": false,
      "t": 3300,
      "d": 300,
      "v": 71
    },
    {
      "midi": 50,
      "hit": false,
      "t": 3300,
      "d": 300,
      "v": 74
    },
    {
      "midi": 67,
      "hit": false,
      "t": 3600,
      "d": 300,
      "v": 127
    },
    {
      "midi": 55,
      "hit": false,
      "t": 3600,
      "d": 300,
      "v": 127
    },
    {
      "midi": 70,
      "hit": false,
      "t": 3900,
      "d": 150,
      "v": 85
    },
    {
      "midi": 58,
      "hit": false,
      "t": 3900,
      "d": 150,
      "v": 79
    },
    {
      "midi": 69,
      "hit": false,
      "t": 4050,
      "d": 150,
      "v": 78
    },
    {
      "midi": 57,
      "hit": false,
      "t": 4050,
      "d": 150,
      "v": 75
    },
    {
      "midi": 67,
      "hit": false,
      "t": 4200,
      "d": 300,
      "v": 74
    },
    {
      "midi": 55,
      "hit": false,
      "t": 4200,
      "d": 300,
      "v": 76
    },
    {
      "midi": 62,
      "hit": false,
      "t": 4500,
      "d": 300,
      "v": 68
    },
    {
      "midi": 50,
      "hit": false,
      "t": 4500,
      "d": 300,
      "v": 69
    },
    {
      "midi": 63,
      "hit": false,
      "t": 4800,
      "d": 600,
      "v": 127
    },
    {
      "midi": 51,
      "hit": false,
      "t": 4800,
      "d": 600,
      "v": 127
    },
    {
      "midi": 58,
      "hit": false,
      "t": 5700,
      "d": 300,
      "v": 68
    },
    {
      "midi": 46,
      "hit": false,
      "t": 5700,
      "d": 300,
      "v": 69
    },
    {
      "midi": 63,
      "hit": false,
      "t": 6000,
      "d": 300,
      "v": 127
    },
    {
      "midi": 51,
      "hit": false,
      "t": 6000,
      "d": 300,
      "v": 127
    },
    {
      "midi": 67,
      "hit": false,
      "t": 6300,
      "d": 150,
      "v": 82
    },
    {
      "midi": 55,
      "hit": false,
      "t": 6300,
      "d": 150,
      "v": 81
    },
    {
      "midi": 65,
      "hit": false,
      "t": 6450,
      "d": 150,
      "v": 75
    },
    {
      "midi": 53,
      "hit": false,
      "t": 6450,
      "d": 150,
      "v": 75
    },
    {
      "midi": 63,
      "hit": false,
      "t": 6600,
      "d": 300,
      "v": 70
    },
    {
      "midi": 51,
      "hit": false,
      "t": 6600,
      "d": 300,
      "v": 76
    },
    {
      "midi": 60,
      "hit": false,
      "t": 6900,
      "d": 300,
      "v": 67
    },
    {
      "midi": 48,
      "hit": false,
      "t": 6900,
      "d": 300,
      "v": 76
    },
    {
      "midi": 57,
      "hit": false,
      "t": 7200,
      "d": 600,
      "v": 127
    },
    {
      "midi": 45,
      "hit": false,
      "t": 7200,
      "d": 600,
      "v": 127
    },
    {
      "midi": 58,
      "hit": false,
      "t": 7800,
      "d": 600,
      "v": 127
    },
    {
      "midi": 46,
      "hit": false,
      "t": 7800,
      "d": 600,
      "v": 127
    },
    {
      "midi": 63,
      "hit": false,
      "t": 8400,
      "d": 300,
      "v": 88
    },
    {
      "midi": 51,
      "hit": false,
      "t": 8400,
      "d": 300,
      "v": 80
    },
    {
      "midi": 60,
      "hit": false,
      "t": 8700,
      "d": 300,
      "v": 74
    },
    {
      "midi": 48,
      "hit": false,
      "t": 8700,
      "d": 300,
      "v": 79
    },
    {
      "midi": 65,
      "hit": false,
      "t": 9000,
      "d": 300,
      "v": 83
    },
    {
      "midi": 53,
      "hit": false,
      "t": 9000,
      "d": 300,
      "v": 82
    },
    {
      "midi": 53,
      "hit": false,
      "t": 9300,
      "d": 300,
      "v": 68
    },
    {
      "midi": 41,
      "hit": false,
      "t": 9300,
      "d": 300,
      "v": 66
    },
    {
      "midi": 46,
      "hit": false,
      "t": 9600,
      "d": 300,
      "v": 78
    },
    {
      "midi": 77,
      "hit": false,
      "t": 9900,
      "d": 300,
      "v": 66
    },
    {
      "midi": 77,
      "hit": false,
      "t": 10200,
      "d": 300,
      "v": 74
    },
    {
      "midi": 77,
      "hit": false,
      "t": 10500,
      "d": 300,
      "v": 77
    },
    {
      "midi": 77,
      "hit": false,
      "t": 10800,
      "d": 300,
      "v": 75
    },
    {
      "midi": 77,
      "hit": false,
      "t": 11100,
      "d": 300,
      "v": 72
    },
    {
      "midi": 77,
      "hit": false,
      "t": 11400,
      "d": 300,
      "v": 76
    },
    {
      "midi": 77,
      "hit": false,
      "t": 11700,
      "d": 300,
      "v": 78
    },
    {
      "midi": 77,
      "hit": false,
      "t": 12000,
      "d": 150,
      "v": 80
    },
    {
      "midi": 53,
      "hit": false,
      "t": 12000,
      "d": 600,
      "v": 64
    },
    {
      "midi": 75,
      "hit": false,
      "t": 12150,
      "d": 150,
      "v": 72
    },
    {
      "midi": 72,
      "hit": false,
      "t": 12300,
      "d": 150,
      "v": 74
    },
    {
      "midi": 69,
      "hit": false,
      "t": 12450,
      "d": 150,
      "v": 69
    },
    {
      "midi": 77,
      "hit": false,
      "t": 12600,
      "d": 150,
      "v": 90
    },
    {
      "midi": 57,
      "hit": false,
      "t": 12600,
      "d": 600,
      "v": 75
    },
    {
      "midi": 75,
      "hit": false,
      "t": 12750,
      "d": 150,
      "v": 76
    },
    {
      "midi": 72,
      "hit": false,
      "t": 12900,
      "d": 150,
      "v": 73
    },
    {
      "midi": 69,
      "hit": false,
      "t": 13050,
      "d": 150,
      "v": 68
    },
    {
      "midi": 77,
      "hit": false,
      "t": 13200,
      "d": 150,
      "v": 90
    },
    {
      "midi": 60,
      "hit": false,
      "t": 13200,
      "d": 600,
      "v": 83
    },
    {
      "midi": 75,
      "hit": false,
      "t": 13350,
      "d": 150,
      "v": 73
    },
    {
      "midi": 72,
      "hit": false,
      "t": 13500,
      "d": 150,
      "v": 71
    },
    {
      "midi": 69,
      "hit": false,
      "t": 13650,
      "d": 150,
      "v": 68
    },
    {
      "midi": 77,
      "hit": false,
      "t": 13800,
      "d": 150,
      "v": 86
    },
    {
      "midi": 63,
      "hit": false,
      "t": 13800,
      "d": 600,
      "v": 81
    },
    {
      "midi": 75,
      "hit": false,
      "t": 13950,
      "d": 150,
      "v": 76
    },
    {
      "midi": 72,
      "hit": false,
      "t": 14100,
      "d": 150,
      "v": 72
    },
    {
      "midi": 69,
      "hit": false,
      "t": 14250,
      "d": 150,
      "v": 69
    },
    {
      "midi": 70,
      "hit": false,
      "t": 14400,
      "d": 300,
      "v": 77
    },
    {
      "midi": 62,
      "hit": false,
      "t": 14400,
      "d": 600,
      "v": 70
    },
    {
      "midi": 77,
      "hit": false,
      "t": 14700,
      "d": 300,
      "v": 93
    },
    {
      "midi": 77,
      "hit": false,
      "t": 15000,
      "d": 300,
      "v": 79
    },
    {
      "midi": 77,
      "hit": false,
      "t": 15300,
      "d": 300,
      "v": 75
    },
    {
      "midi": 77,
      "hit": false,
      "t": 15600,
      "d": 300,
      "v": 75
    },
    {
      "midi": 77,
      "hit": false,
      "t": 15900,
      "d": 300,
      "v": 77
    },
    {
      "midi": 77,
      "hit": false,
      "t": 16200,
      "d": 300,
      "v": 78
    },
    {
      "midi": 77,
      "hit": false,
      "t": 16500,
      "d": 300,
      "v": 76
    },
    {
      "midi": 77,
      "hit": false,
      "t": 16800,
      "d": 150,
      "v": 74
    },
    {
      "midi": 53,
      "hit": false,
      "t": 16800,
      "d": 600,
      "v": 70
    },
    {
      "midi": 75,
      "hit": false,
      "t": 16950,
      "d": 150,
      "v": 72
    },
    {
      "midi": 72,
      "hit": false,
      "t": 17100,
      "d": 150,
      "v": 72
    },
    {
      "midi": 69,
      "hit": false,
      "t": 17250,
      "d": 150,
      "v": 73
    },
    {
      "midi": 77,
      "hit": false,
      "t": 17400,
      "d": 150,
      "v": 93
    },
    {
      "midi": 57,
      "hit": false,
      "t": 17400,
      "d": 600,
      "v": 76
    },
    {
      "midi": 75,
      "hit": false,
      "t": 17550,
      "d": 150,
      "v": 77
    },
    {
      "midi": 72,
      "hit": false,
      "t": 17700,
      "d": 150,
      "v": 70
    },
    {
      "midi": 69,
      "hit": false,
      "t": 17850,
      "d": 150,
      "v": 69
    },
    {
      "midi": 77,
      "hit": false,
      "t": 18000,
      "d": 150,
      "v": 87
    },
    {
      "midi": 60,
      "hit": false,
      "t": 18000,
      "d": 600,
      "v": 82
    },
    {
      "midi": 75,
      "hit": false,
      "t": 18150,
      "d": 150,
      "v": 75
    },
    {
      "midi": 72,
      "hit": false,
      "t": 18300,
      "d": 150,
      "v": 68
    },
    {
      "midi": 69,
      "hit": false,
      "t": 18450,
      "d": 150,
      "v": 68
    },
    {
      "midi": 77,
      "hit": false,
      "t": 18600,
      "d": 150,
      "v": 89
    },
    {
      "midi": 63,
      "hit": false,
      "t": 18600,
      "d": 600,
      "v": 85
    },
    {
      "midi": 75,
      "hit": false,
      "t": 18750,
      "d": 150,
      "v": 70
    },
    {
      "midi": 72,
      "hit": false,
      "t": 18900,
      "d": 150,
      "v": 71
    },
    {
      "midi": 69,
      "hit": false,
      "t": 19050,
      "d": 150,
      "v": 66
    },
    {
      "midi": 74,
      "hit": false,
      "t": 19200,
      "d": 600,
      "v": 87
    },
    {
      "midi": 58,
      "hit": false,
      "t": 19200,
      "d": 600,
      "v": 72
    },
    {
      "midi": 69,
      "hit": false,
      "t": 19800,
      "d": 150,
      "v": 63
    },
    {
      "midi": 70,
      "hit": false,
      "t": 19950,
      "d": 150,
      "v": 75
    },
    {
      "midi": 72,
      "hit": false,
      "t": 20100,
      "d": 150,
      "v": 75
    },
    {
      "midi": 74,
      "hit": false,
      "t": 20250,
      "d": 150,
      "v": 81
    },
    {
      "midi": 75,
      "hit": false,
      "t": 20400,
      "d": 600,
      "v": 80
    },
    {
      "midi": 60,
      "hit": false,
      "t": 20400,
      "d": 600,
      "v": 74
    },
    {
      "midi": 71,
      "hit": false,
      "t": 21000,
      "d": 150,
      "v": 72
    },
    {
      "midi": 72,
      "hit": false,
      "t": 21150,
      "d": 150,
      "v": 78
    },
    {
      "midi": 74,
      "hit": false,
      "t": 21300,
      "d": 150,
      "v": 76
    },
    {
      "midi": 75,
      "hit": false,
      "t": 21450,
      "d": 150,
      "v": 78
    },
    {
      "midi": 77,
      "hit": false,
      "t": 21600,
      "d": 600,
      "v": 82
    },
    {
      "midi": 62,
      "hit": false,
      "t": 21600,
      "d": 600,
      "v": 69
    },
    {
      "midi": 72,
      "hit": false,
      "t": 22200,
      "d": 150,
      "v": 68
    },
    {
      "midi": 74,
      "hit": false,
      "t": 22350,
      "d": 150,
      "v": 77
    },
    {
      "midi": 75,
      "hit": false,
      "t": 22500,
      "d": 150,
      "v": 81
    },
    {
      "midi": 77,
      "hit": false,
      "t": 22650,
      "d": 150,
      "v": 80
    },
    {
      "midi": 79,
      "hit": false,
      "t": 22800,
      "d": 150,
      "v": 80
    },
    {
      "midi": 63,
      "hit": false,
      "t": 22800,
      "d": 600,
      "v": 65
    },
    {
      "midi": 77,
      "hit": false,
      "t": 22950,
      "d": 150,
      "v": 73
    },
    {
      "midi": 75,
      "hit": false,
      "t": 23100,
      "d": 150,
      "v": 71
    },
    {
      "midi": 74,
      "hit": false,
      "t": 23250,
      "d": 150,
      "v": 73
    },
    {
      "midi": 72,
      "hit": false,
      "t": 23400,
      "d": 150,
      "v": 73
    },
    {
      "midi": 64,
      "hit": false,
      "t": 23400,
      "d": 600,
      "v": 78
    },
    {
      "midi": 70,
      "hit": false,
      "t": 23550,
      "d": 150,
      "v": 73
    },
    {
      "midi": 69,
      "hit": false,
      "t": 23700,
      "d": 150,
      "v": 67
    },
    {
      "midi": 70,
      "hit": false,
      "t": 23850,
      "d": 150,
      "v": 78
    },
    {
      "midi": 70,
      "hit": false,
      "t": 24000,
      "d": 300,
      "v": 78
    },
    {
      "midi": 65,
      "hit": false,
      "t": 24000,
      "d": 600,
      "v": 76
    },
    {
      "midi": 69,
      "hit": false,
      "t": 24300,
      "d": 300,
      "v": 71
    },
    {
      "midi": 65,
      "hit": false,
      "t": 24900,
      "d": 300,
      "v": 77
    },
    {
      "midi": 53,
      "hit": false,
      "t": 24900,
      "d": 300,
      "v": 68
    },
    {
      "midi": 70,
      "hit": false,
      "t": 25200,
      "d": 300,
      "v": 127
    },
    {
      "midi": 58,
      "hit": false,
      "t": 25200,
      "d": 300,
      "v": 127
    },
    {
      "midi": 74,
      "hit": false,
      "t": 25500,
      "d": 150,
      "v": 89
    },
    {
      "midi": 62,
      "hit": false,
      "t": 25500,
      "d": 150,
      "v": 82
    },
    {
      "midi": 72,
      "hit": false,
      "t": 25650,
      "d": 150,
      "v": 74
    },
    {
      "midi": 60,
      "hit": false,
      "t": 25650,
      "d": 150,
      "v": 74
    },
    {
      "midi": 70,
      "hit": false,
      "t": 25800,
      "d": 300,
      "v": 68
    },
    {
      "midi": 58,
      "hit": false,
      "t": 25800,
      "d": 300,
      "v": 74
    },
    {
      "midi": 66,
      "hit": false,
      "t": 26100,
      "d": 300,
      "v": 62
    },
    {
      "midi": 54,
      "hit": false,
      "t": 26100,
      "d": 300,
      "v": 71
    },
    {
      "midi": 67,
      "hit": false,
      "t": 26400,
      "d": 600,
      "v": 127
    },
    {
      "midi": 55,
      "hit": false,
      "t": 26400,
      "d": 600,
      "v": 127
    },
    {
      "midi": 62,
      "hit": false,
      "t": 27300,
      "d": 300,
      "v": 65
    },
    {
      "midi": 50,
      "hit": false,
      "t": 27300,
      "d": 300,
      "v": 72
    },
    {
      "midi": 67,
      "hit": false,
      "t": 27600,
      "d": 300,
      "v": 127
    },
    {
      "midi": 55,
      "hit": false,
      "t": 27600,
      "d": 300,
      "v": 127
    },
    {
      "midi": 70,
      "hit": false,
      "t": 27900,
      "d": 150,
      "v": 88
    },
    {
      "midi": 58,
      "hit": false,
      "t": 27900,
      "d": 150,
      "v": 79
    },
    {
      "midi": 69,
      "hit": false,
      "t": 28050,
      "d": 150,
      "v": 75
    },
    {
      "midi": 57,
      "hit": false,
      "t": 28050,
      "d": 150,
      "v": 78
    },
    {
      "midi": 67,
      "hit": false,
      "t": 28200,
      "d": 300,
      "v": 75
    },
    {
      "midi": 55,
      "hit": false,
      "t": 28200,
      "d": 300,
      "v": 74
    },
    {
      "midi": 62,
      "hit": false,
      "t": 28500,
      "d": 300,
      "v": 66
    },
    {
      "midi": 50,
      "hit": false,
      "t": 28500,
      "d": 300,
      "v": 71
    },
    {
      "midi": 63,
      "hit": false,
      "t": 28800,
      "d": 600,
      "v": 127
    },
    {
      "midi": 51,
      "hit": false,
      "t": 28800,
      "d": 600,
      "v": 127
    },
    {
      "midi": 58,
      "hit": false,
      "t": 29700,
      "d": 300,
      "v": 68
    },
    {
      "midi": 46,
      "hit": false,
      "t": 29700,
      "d": 300,
      "v": 69
    },
    {
      "midi": 63,
      "hit": false,
      "t": 30000,
      "d": 300,
      "v": 127
    },
    {
      "midi": 51,
      "hit": false,
      "t": 30000,
      "d": 300,
      "v": 127
    },
    {
      "midi": 67,
      "hit": false,
      "t": 30300,
      "d": 150,
      "v": 85
    },
    {
      "midi": 55,
      "hit": false,
      "t": 30300,
      "d": 150,
      "v": 80
    },
    {
      "midi": 65,
      "hit": false,
      "t": 30450,
      "d": 150,
      "v": 72
    },
    {
      "midi": 53,
      "hit": false,
      "t": 30450,
      "d": 150,
      "v": 72
    },
    {
      "midi": 63,
      "hit": false,
      "t": 30600,
      "d": 300,
      "v": 77
    },
    {
      "midi": 51,
      "hit": false,
      "t": 30600,
      "d": 300,
      "v": 71
    },
    {
      "midi": 60,
      "hit": false,
      "t": 30900,
      "d": 300,
      "v": 70
    },
    {
      "midi": 48,
      "hit": false,
      "t": 30900,
      "d": 300,
      "v": 72
    },
    {
      "midi": 57,
      "hit": false,
      "t": 31200,
      "d": 600,
      "v": 127
    },
    {
      "midi": 45,
      "hit": false,
      "t": 31200,
      "d": 600,
      "v": 127
    },
    {
      "midi": 58,
      "hit": false,
      "t": 31800,
      "d": 600,
      "v": 127
    },
    {
      "midi": 46,
      "hit": false,
      "t": 31800,
      "d": 600,
      "v": 127
    },
    {
      "midi": 63,
      "hit": false,
      "t": 32400,
      "d": 300,
      "v": 88
    },
    {
      "midi": 51,
      "hit": false,
      "t": 32400,
      "d": 300,
      "v": 82
    },
    {
      "midi": 60,
      "hit": false,
      "t": 32700,
      "d": 300,
      "v": 72
    },
    {
      "midi": 48,
      "hit": false,
      "t": 32700,
      "d": 300,
      "v": 71
    },
    {
      "midi": 65,
      "hit": false,
      "t": 33000,
      "d": 300,
      "v": 91
    },
    {
      "midi": 53,
      "hit": false,
      "t": 33000,
      "d": 300,
      "v": 83
    },
    {
      "midi": 53,
      "hit": false,
      "t": 33300,
      "d": 300,
      "v": 69
    },
    {
      "midi": 41,
      "hit": false,
      "t": 33300,
      "d": 300,
      "v": 64
    },
    {
      "midi": 58,
      "hit": false,
      "t": 33600,
      "d": 600,
      "v": 127
    },
    {
      "midi": 46,
      "hit": false,
      "t": 33600,
      "d": 600,
      "v": 127
    },
    {
      "midi": 60,
      "hit": false,
      "t": 34200,
      "d": 600,
      "v": 127
    },
    {
      "midi": 63,
      "hit": false,
      "t": 34200,
      "d": 600,
      "v": 127
    },
    {
      "midi": 65,
      "hit": false,
      "t": 34200,
      "d": 600,
      "v": 127
    },
    {
      "midi": 69,
      "hit": false,
      "t": 34200,
      "d": 600,
      "v": 127
    },
    {
      "midi": 41,
      "hit": false,
      "t": 34200,
      "d": 600,
      "v": 127
    },
    {
      "midi": 53,
      "hit": false,
      "t": 34200,
      "d": 600,
      "v": 127
    },
    {
      "midi": 62,
      "hit": false,
      "t": 34800,
      "d": 600,
      "v": 127
    },
    {
      "midi": 65,
      "hit": false,
      "t": 34800,
      "d": 600,
      "v": 127
    },
    {
      "midi": 70,
      "hit": false,
      "t": 34800,
      "d": 600,
      "v": 127
    },
    {
      "midi": 46,
      "hit": false,
      "t": 34800,
      "d": 600,
      "v": 127
    },
    {
      "midi": 60,
      "hit": false,
      "t": 35400,
      "d": 600,
      "v": 127
    },
    {
      "midi": 63,
      "hit": false,
      "t": 35400,
      "d": 600,
      "v": 127
    },
    {
      "midi": 65,
      "hit": false,
      "t": 35400,
      "d": 600,
      "v": 127
    },
    {
      "midi": 69,
      "hit": false,
      "t": 35400,
      "d": 600,
      "v": 127
    },
    {
      "midi": 41,
      "hit": false,
      "t": 35400,
      "d": 600,
      "v": 127
    },
    {
      "midi": 53,
      "hit": false,
      "t": 35400,
      "d": 600,
      "v": 127
    },
    {
      "midi": 62,
      "hit": false,
      "t": 36000,
      "d": 600,
      "v": 127
    },
    {
      "midi": 65,
      "hit": false,
      "t": 36000,
      "d": 600,
      "v": 127
    },
    {
      "midi": 70,
      "hit": false,
      "t": 36000,
      "d": 600,
      "v": 127
    },
    {
      "midi": 46,
      "hit": false,
      "t": 36000,
      "d": 600,
      "v": 127
    }
  ]
}