{
  "jsonPath": "Animes/Kare Kono MIDI Collection/shoutarou-s-march.json",
  "path": "Animes\\Kare Kono MIDI Collection\\Shoutarou's March.mid",
  "name": "Shoutarou's March",
  "difficulty": "Advanced",
  "bpm": 134.00005806669182,
  "notes": [
    {
      "midi": 38,
      "hit": false,
      "t": 4033.615999999999,
      "d": 126.05050000000028,
      "v": 84
    },
    {
      "midi": 69,
      "hit": false,
      "t": 4033.616,
      "d": 84.03366666666716,
      "v": 117
    },
    {
      "midi": 40,
      "hit": false,
      "t": 4033.6160000000004,
      "d": 126.05049999999983,
      "v": 111
    },
    {
      "midi": 72,
      "hit": false,
      "t": 4046.22105,
      "d": 84.03366666666716,
      "v": 117
    },
    {
      "midi": 69,
      "hit": false,
      "t": 4281.515316666667,
      "d": 100.84040000000005,
      "v": 106
    },
    {
      "midi": 72,
      "hit": false,
      "t": 4294.120366666667,
      "d": 100.84040000000005,
      "v": 106
    },
    {
      "midi": 38,
      "hit": false,
      "t": 4394.960766666666,
      "d": 16.806733333332886,
      "v": 74
    },
    {
      "midi": 40,
      "hit": false,
      "t": 4394.960766666667,
      "d": 16.806733333332886,
      "v": 95
    },
    {
      "midi": 69,
      "hit": false,
      "t": 4399.162450000001,
      "d": 79.83198333333348,
      "v": 115
    },
    {
      "midi": 72,
      "hit": false,
      "t": 4411.767500000001,
      "d": 79.83198333333348,
      "v": 115
    },
    {
      "midi": 69,
      "hit": false,
      "t": 4504.204533333334,
      "d": 58.82356666666692,
      "v": 111
    },
    {
      "midi": 38,
      "hit": false,
      "t": 4521.0112666666655,
      "d": 126.05050000000028,
      "v": 82
    },
    {
      "midi": 40,
      "hit": false,
      "t": 4521.011266666666,
      "d": 126.05050000000028,
      "v": 100
    },
    {
      "midi": 72,
      "hit": false,
      "t": 4525.212950000001,
      "d": 71.42861666666704,
      "v": 111
    },
    {
      "midi": 65,
      "hit": false,
      "t": 4777.313950000002,
      "d": 79.83198333333348,
      "v": 109
    },
    {
      "midi": 38,
      "hit": false,
      "t": 4789.918999999999,
      "d": 126.05050000000028,
      "v": 74
    },
    {
      "midi": 40,
      "hit": false,
      "t": 4789.919,
      "d": 126.05050000000028,
      "v": 94
    },
    {
      "midi": 69,
      "hit": false,
      "t": 4789.919000000002,
      "d": 79.83198333333348,
      "v": 109
    },
    {
      "midi": 38,
      "hit": false,
      "t": 5042.0199999999995,
      "d": 126.05050000000028,
      "v": 88
    },
    {
      "midi": 40,
      "hit": false,
      "t": 5042.02,
      "d": 126.05050000000028,
      "v": 103
    },
    {
      "midi": 62,
      "hit": false,
      "t": 5042.020000000002,
      "d": 58.82356666666692,
      "v": 118
    },
    {
      "midi": 65,
      "hit": false,
      "t": 5054.625050000002,
      "d": 84.03366666666716,
      "v": 118
    },
    {
      "midi": 38,
      "hit": false,
      "t": 5294.121,
      "d": 126.05050000000028,
      "v": 72
    },
    {
      "midi": 40,
      "hit": false,
      "t": 5294.121000000001,
      "d": 126.05050000000028,
      "v": 92
    },
    {
      "midi": 65,
      "hit": false,
      "t": 5294.121000000003,
      "d": 79.83198333333348,
      "v": 107
    },
    {
      "midi": 69,
      "hit": false,
      "t": 5306.726050000003,
      "d": 79.83198333333348,
      "v": 107
    },
    {
      "midi": 38,
      "hit": false,
      "t": 5546.222000000001,
      "d": 126.05050000000028,
      "v": 85
    },
    {
      "midi": 40,
      "hit": false,
      "t": 5546.222000000002,
      "d": 126.05050000000028,
      "v": 108
    },
    {
      "midi": 69,
      "hit": false,
      "t": 5546.222000000003,
      "d": 84.03366666666716,
      "v": 118
    },
    {
      "midi": 72,
      "hit": false,
      "t": 5558.8270500000035,
      "d": 84.03366666666716,
      "v": 118
    },
    {
      "midi": 38,
      "hit": false,
      "t": 5798.323000000001,
      "d": 126.05050000000028,
      "v": 73
    },
    {
      "midi": 40,
      "hit": false,
      "t": 5798.323000000002,
      "d": 126.05050000000028,
      "v": 95
    },
    {
      "midi": 72,
      "hit": false,
      "t": 5798.323000000004,
      "d": 79.83198333333348,
      "v": 107
    },
    {
      "midi": 75,
      "hit": false,
      "t": 5810.928050000004,
      "d": 54.621883333333244,
      "v": 107
    },
    {
      "midi": 49,
      "hit": false,
      "t": 6050.424,
      "d": 1071.4292500000001,
      "v": 127
    },
    {
      "midi": 35,
      "hit": false,
      "t": 6050.424000000002,
      "d": 63.02524999999969,
      "v": 93
    },
    {
      "midi": 40,
      "hit": false,
      "t": 6050.424000000002,
      "d": 126.05049999999937,
      "v": 93
    },
    {
      "midi": 40,
      "hit": false,
      "t": 6050.424000000003,
      "d": 63.02524999999969,
      "v": 112
    },
    {
      "midi": 72,
      "hit": false,
      "t": 6050.4240000000045,
      "d": 1100.841033333335,
      "v": 118
    },
    {
      "midi": 75,
      "hit": false,
      "t": 6063.029050000005,
      "d": 1113.446083333335,
      "v": 118
    },
    {
      "midi": 40,
      "hit": false,
      "t": 7563.030000000001,
      "d": 126.05050000000028,
      "v": 122
    },
    {
      "midi": 35,
      "hit": false,
      "t": 7563.030000000001,
      "d": 126.05050000000028,
      "v": 122
    },
    {
      "midi": 40,
      "hit": false,
      "t": 7563.0300000000025,
      "d": 63.02524999999969,
      "v": 123
    },
    {
      "midi": 70,
      "hit": false,
      "t": 7563.030000000006,
      "d": 92.4370333333336,
      "v": 119
    },
    {
      "midi": 73,
      "hit": false,
      "t": 7575.635050000006,
      "d": 92.4370333333336,
      "v": 119
    },
    {
      "midi": 72,
      "hit": false,
      "t": 7941.181500000006,
      "d": 100.84040000000005,
      "v": 105
    },
    {
      "midi": 75,
      "hit": false,
      "t": 7953.786550000006,
      "d": 100.84040000000005,
      "v": 105
    },
    {
      "midi": 41,
      "hit": false,
      "t": 8067.231999999999,
      "d": 331.93298333333314,
      "v": 116
    },
    {
      "midi": 53,
      "hit": false,
      "t": 8067.232,
      "d": 235.29426666666586,
      "v": 118
    },
    {
      "midi": 40,
      "hit": false,
      "t": 8067.232000000002,
      "d": 126.05049999999937,
      "v": 108
    },
    {
      "midi": 69,
      "hit": false,
      "t": 8067.232000000006,
      "d": 2781.5143666666854,
      "v": 121
    },
    {
      "midi": 72,
      "hit": false,
      "t": 8079.8370500000065,
      "d": 2773.111000000018,
      "v": 121
    },
    {
      "midi": 60,
      "hit": false,
      "t": 8319.333,
      "d": 79.83198333333348,
      "v": 81
    },
    {
      "midi": 65,
      "hit": false,
      "t": 8319.333,
      "d": 79.83198333333348,
      "v": 81
    },
    {
      "midi": 40,
      "hit": false,
      "t": 8319.333,
      "d": 126.05049999999937,
      "v": 108
    },
    {
      "midi": 42,
      "hit": false,
      "t": 8319.333,
      "d": 126.05049999999937,
      "v": 113
    },
    {
      "midi": 52,
      "hit": false,
      "t": 8571.434,
      "d": 235.29426666666586,
      "v": 118
    },
    {
      "midi": 40,
      "hit": false,
      "t": 8571.434,
      "d": 126.05049999999937,
      "v": 100
    },
    {
      "midi": 40,
      "hit": false,
      "t": 8571.434,
      "d": 331.93298333333405,
      "v": 111
    },
    {
      "midi": 40,
      "hit": false,
      "t": 8697.484499999999,
      "d": 126.05049999999937,
      "v": 93
    },
    {
      "midi": 40,
      "hit": false,
      "t": 8823.534999999998,
      "d": 126.05049999999937,
      "v": 102
    },
    {
      "midi": 65,
      "hit": false,
      "t": 8823.535,
      "d": 79.83198333333348,
      "v": 90
    },
    {
      "midi": 60,
      "hit": false,
      "t": 8823.535,
      "d": 79.83198333333348,
      "v": 90
    },
    {
      "midi": 42,
      "hit": false,
      "t": 8823.535,
      "d": 126.05049999999937,
      "v": 104
    },
    {
      "midi": 40,
      "hit": false,
      "t": 8949.585499999997,
      "d": 126.05049999999937,
      "v": 94
    },
    {
      "midi": 40,
      "hit": false,
      "t": 9075.635999999997,
      "d": 126.05049999999937,
      "v": 109
    },
    {
      "midi": 50,
      "hit": false,
      "t": 9075.635999999999,
      "d": 235.29426666666586,
      "v": 115
    },
    {
      "midi": 38,
      "hit": false,
      "t": 9075.636,
      "d": 331.93298333333405,
      "v": 106
    },
    {
      "midi": 49,
      "hit": false,
      "t": 9201.6865,
      "d": 4.201683333332767,
      "v": 11
    },
    {
      "midi": 49,
      "hit": false,
      "t": 9252.106699999998,
      "d": 12.60505000000012,
      "v": 12
    },
    {
      "midi": 40,
      "hit": false,
      "t": 9327.736999999996,
      "d": 126.05049999999937,
      "v": 109
    },
    {
      "midi": 65,
      "hit": false,
      "t": 9327.737,
      "d": 79.83198333333348,
      "v": 95
    },
    {
      "midi": 60,
      "hit": false,
      "t": 9327.737,
      "d": 79.83198333333348,
      "v": 95
    },
    {
      "midi": 42,
      "hit": false,
      "t": 9327.737,
      "d": 126.05049999999937,
      "v": 114
    },
    {
      "midi": 49,
      "hit": false,
      "t": 9365.552149999998,
      "d": 16.806733333332886,
      "v": 15
    },
    {
      "midi": 49,
      "hit": false,
      "t": 9424.375716666664,
      "d": 4.201683333332767,
      "v": 17
    },
    {
      "midi": 49,
      "hit": false,
      "t": 9470.59423333333,
      "d": 16.806733333332886,
      "v": 18
    },
    {
      "midi": 49,
      "hit": false,
      "t": 9521.014433333328,
      "d": 12.60505000000012,
      "v": 19
    },
    {
      "midi": 40,
      "hit": false,
      "t": 9579.837999999994,
      "d": 126.05049999999937,
      "v": 100
    },
    {
      "midi": 49,
      "hit": false,
      "t": 9579.837999999994,
      "d": 4.201683333332767,
      "v": 21
    },
    {
      "midi": 48,
      "hit": false,
      "t": 9579.837999999998,
      "d": 235.29426666666586,
      "v": 115
    },
    {
      "midi": 36,
      "hit": false,
      "t": 9579.838000000002,
      "d": 331.93298333333405,
      "v": 105
    },
    {
      "midi": 40,
      "hit": false,
      "t": 9705.888499999994,
      "d": 126.05049999999937,
      "v": 95
    },
    {
      "midi": 49,
      "hit": false,
      "t": 9705.888499999994,
      "d": 4.201683333332767,
      "v": 24
    },
    {
      "midi": 49,
      "hit": false,
      "t": 9756.308699999992,
      "d": 12.60505000000012,
      "v": 25
    },
    {
      "midi": 40,
      "hit": false,
      "t": 9831.938999999993,
      "d": 126.05049999999937,
      "v": 101
    },
    {
      "midi": 65,
      "hit": false,
      "t": 9831.938999999998,
      "d": 79.83198333333348,
      "v": 103
    },
    {
      "midi": 60,
      "hit": false,
      "t": 9831.938999999998,
      "d": 79.83198333333348,
      "v": 103
    },
    {
      "midi": 42,
      "hit": false,
      "t": 9831.938999999998,
      "d": 126.05049999999937,
      "v": 106
    },
    {
      "midi": 49,
      "hit": false,
      "t": 9869.754149999992,
      "d": 16.806733333332886,
      "v": 28
    },
    {
      "midi": 49,
      "hit": false,
      "t": 9928.577716666658,
      "d": 4.201683333332767,
      "v": 29
    },
    {
      "midi": 40,
      "hit": false,
      "t": 9957.989499999992,
      "d": 126.05049999999937,
      "v": 95
    },
    {
      "midi": 49,
      "hit": false,
      "t": 9974.796233333323,
      "d": 16.806733333332886,
      "v": 31
    },
    {
      "midi": 49,
      "hit": false,
      "t": 10025.216433333322,
      "d": 12.60505000000012,
      "v": 32
    },
    {
      "midi": 49,
      "hit": false,
      "t": 10084.039999999988,
      "d": 4.201683333332767,
      "v": 33
    },
    {
      "midi": 40,
      "hit": false,
      "t": 10084.039999999992,
      "d": 126.05049999999937,
      "v": 108
    },
    {
      "midi": 53,
      "hit": false,
      "t": 10084.039999999997,
      "d": 235.29426666666586,
      "v": 117
    },
    {
      "midi": 41,
      "hit": false,
      "t": 10084.040000000003,
      "d": 331.93298333333405,
      "v": 119
    },
    {
      "midi": 49,
      "hit": false,
      "t": 10210.090499999988,
      "d": 4.201683333332767,
      "v": 36
    },
    {
      "midi": 49,
      "hit": false,
      "t": 10260.510699999986,
      "d": 12.60505000000012,
      "v": 38
    },
    {
      "midi": 40,
      "hit": false,
      "t": 10336.14099999999,
      "d": 126.05049999999937,
      "v": 108
    },
    {
      "midi": 65,
      "hit": false,
      "t": 10336.140999999998,
      "d": 79.83198333333348,
      "v": 104
    },
    {
      "midi": 60,
      "hit": false,
      "t": 10336.140999999998,
      "d": 79.83198333333348,
      "v": 104
    },
    {
      "midi": 42,
      "hit": false,
      "t": 10336.140999999998,
      "d": 126.05049999999937,
      "v": 115
    },
    {
      "midi": 49,
      "hit": false,
      "t": 10373.956149999985,
      "d": 16.806733333332886,
      "v": 40
    },
    {
      "midi": 49,
      "hit": false,
      "t": 10432.779716666651,
      "d": 4.201683333332767,
      "v": 42
    },
    {
      "midi": 49,
      "hit": false,
      "t": 10478.998233333317,
      "d": 16.806733333332886,
      "v": 43
    },
    {
      "midi": 49,
      "hit": false,
      "t": 10529.418433333316,
      "d": 12.60505000000012,
      "v": 44
    },
    {
      "midi": 40,
      "hit": false,
      "t": 10588.24199999999,
      "d": 126.05049999999937,
      "v": 100
    },
    {
      "midi": 52,
      "hit": false,
      "t": 10588.241999999997,
      "d": 235.29426666666586,
      "v": 117
    },
    {
      "midi": 40,
      "hit": false,
      "t": 10588.242000000004,
      "d": 331.93298333333405,
      "v": 115
    },
    {
      "midi": 49,
      "hit": false,
      "t": 10710.090816666649,
      "d": 4.201683333332767,
      "v": 49
    },
    {
      "midi": 40,
      "hit": false,
      "t": 10714.292499999989,
      "d": 126.05049999999937,
      "v": 93
    },
    {
      "midi": 49,
      "hit": false,
      "t": 10827.73794999998,
      "d": 8.403366666667353,
      "v": 52
    },
    {
      "midi": 40,
      "hit": false,
      "t": 10840.342999999988,
      "d": 126.05049999999937,
      "v": 102
    },
    {
      "midi": 65,
      "hit": false,
      "t": 10840.342999999997,
      "d": 79.83198333333348,
      "v": 106
    },
    {
      "midi": 60,
      "hit": false,
      "t": 10840.342999999997,
      "d": 79.83198333333348,
      "v": 106
    },
    {
      "midi": 42,
      "hit": false,
      "t": 10840.342999999997,
      "d": 126.05049999999937,
      "v": 104
    },
    {
      "midi": 49,
      "hit": false,
      "t": 10886.561516666648,
      "d": 4.201683333332767,
      "v": 53
    },
    {
      "midi": 49,
      "hit": false,
      "t": 10945.385083333314,
      "d": 4.201683333332767,
      "v": 55
    },
    {
      "midi": 40,
      "hit": false,
      "t": 10966.393499999987,
      "d": 126.05049999999937,
      "v": 94
    },
    {
      "midi": 49,
      "hit": false,
      "t": 10991.60359999998,
      "d": 16.806733333332886,
      "v": 56
    },
    {
      "midi": 49,
      "hit": false,
      "t": 11042.023799999979,
      "d": 12.60505000000012,
      "v": 57
    },
    {
      "midi": 40,
      "hit": false,
      "t": 11092.443999999987,
      "d": 126.05049999999937,
      "v": 109
    },
    {
      "midi": 50,
      "hit": false,
      "t": 11092.443999999996,
      "d": 235.29426666666586,
      "v": 117
    },
    {
      "midi": 38,
      "hit": false,
      "t": 11092.444000000005,
      "d": 331.93298333333405,
      "v": 108
    },
    {
      "midi": 40,
      "hit": false,
      "t": 11344.544999999986,
      "d": 126.05049999999937,
      "v": 109
    },
    {
      "midi": 65,
      "hit": false,
      "t": 11344.544999999996,
      "d": 79.83198333333348,
      "v": 107
    },
    {
      "midi": 60,
      "hit": false,
      "t": 11344.544999999996,
      "d": 79.83198333333348,
      "v": 107
    },
    {
      "midi": 42,
      "hit": false,
      "t": 11344.544999999996,
      "d": 126.05049999999937,
      "v": 115
    },
    {
      "midi": 40,
      "hit": false,
      "t": 11596.645999999984,
      "d": 126.05049999999937,
      "v": 100
    },
    {
      "midi": 48,
      "hit": false,
      "t": 11596.645999999995,
      "d": 235.29426666666586,
      "v": 118
    },
    {
      "midi": 36,
      "hit": false,
      "t": 11596.646000000006,
      "d": 331.93298333333405,
      "v": 107
    },
    {
      "midi": 40,
      "hit": false,
      "t": 11722.696499999984,
      "d": 126.05049999999937,
      "v": 95
    },
    {
      "midi": 40,
      "hit": false,
      "t": 11848.746999999983,
      "d": 126.05049999999937,
      "v": 101
    },
    {
      "midi": 65,
      "hit": false,
      "t": 11848.746999999996,
      "d": 79.83198333333348,
      "v": 111
    },
    {
      "midi": 60,
      "hit": false,
      "t": 11848.746999999996,
      "d": 79.83198333333348,
      "v": 111
    },
    {
      "midi": 42,
      "hit": false,
      "t": 11848.746999999996,
      "d": 126.05049999999937,
      "v": 104
    },
    {
      "midi": 40,
      "hit": false,
      "t": 11974.797499999982,
      "d": 126.05049999999937,
      "v": 95
    },
    {
      "midi": 40,
      "hit": false,
      "t": 12100.847999999982,
      "d": 126.05049999999937,
      "v": 108
    },
    {
      "midi": 62,
      "hit": false,
      "t": 12100.848,
      "d": 92.4370333333336,
      "v": 110
    },
    {
      "midi": 41,
      "hit": false,
      "t": 12100.848000000007,
      "d": 331.93298333333405,
      "v": 114
    },
    {
      "midi": 40,
      "hit": false,
      "t": 12352.94899999998,
      "d": 126.05049999999937,
      "v": 108
    },
    {
      "midi": 42,
      "hit": false,
      "t": 12352.948999999995,
      "d": 126.05049999999937,
      "v": 115
    },
    {
      "midi": 60,
      "hit": false,
      "t": 12352.949,
      "d": 67.22693333333336,
      "v": 102
    },
    {
      "midi": 40,
      "hit": false,
      "t": 12605.04999999998,
      "d": 126.05049999999937,
      "v": 100
    },
    {
      "midi": 65,
      "hit": false,
      "t": 12605.050000000001,
      "d": 378.15149999999994,
      "v": 112
    },
    {
      "midi": 36,
      "hit": false,
      "t": 12605.050000000008,
      "d": 331.93298333333405,
      "v": 103
    },
    {
      "midi": 40,
      "hit": false,
      "t": 12731.100499999979,
      "d": 126.05049999999937,
      "v": 93
    },
    {
      "midi": 40,
      "hit": false,
      "t": 12857.150999999978,
      "d": 126.05049999999937,
      "v": 102
    },
    {
      "midi": 42,
      "hit": false,
      "t": 12857.150999999994,
      "d": 126.05049999999937,
      "v": 103
    },
    {
      "midi": 40,
      "hit": false,
      "t": 12983.201499999977,
      "d": 126.05049999999937,
      "v": 94
    },
    {
      "midi": 40,
      "hit": false,
      "t": 13109.251999999977,
      "d": 126.05049999999937,
      "v": 109
    },
    {
      "midi": 62,
      "hit": false,
      "t": 13109.252,
      "d": 92.4370333333336,
      "v": 110
    },
    {
      "midi": 41,
      "hit": false,
      "t": 13109.25200000001,
      "d": 331.93298333333405,
      "v": 115
    },
    {
      "midi": 40,
      "hit": false,
      "t": 13361.352999999976,
      "d": 126.05049999999937,
      "v": 109
    },
    {
      "midi": 42,
      "hit": false,
      "t": 13361.352999999994,
      "d": 126.05049999999937,
      "v": 115
    },
    {
      "midi": 60,
      "hit": false,
      "t": 13361.353000000001,
      "d": 79.83198333333348,
      "v": 100
    },
    {
      "midi": 40,
      "hit": false,
      "t": 13613.453999999974,
      "d": 126.05049999999937,
      "v": 100
    },
    {
      "midi": 65,
      "hit": false,
      "t": 13613.454000000002,
      "d": 378.15149999999994,
      "v": 110
    },
    {
      "midi": 36,
      "hit": false,
      "t": 13613.45400000001,
      "d": 331.93298333333405,
      "v": 103
    },
    {
      "midi": 40,
      "hit": false,
      "t": 13739.504499999974,
      "d": 126.05049999999937,
      "v": 95
    },
    {
      "midi": 40,
      "hit": false,
      "t": 13865.554999999973,
      "d": 126.05049999999937,
      "v": 101
    },
    {
      "midi": 42,
      "hit": false,
      "t": 13865.554999999993,
      "d": 126.05049999999937,
      "v": 104
    },
    {
      "midi": 40,
      "hit": false,
      "t": 13991.605499999972,
      "d": 126.05049999999937,
      "v": 95
    },
    {
      "midi": 40,
      "hit": false,
      "t": 14117.655999999972,
      "d": 126.05049999999937,
      "v": 108
    },
    {
      "midi": 62,
      "hit": false,
      "t": 14117.656,
      "d": 92.4370333333336,
      "v": 114
    },
    {
      "midi": 41,
      "hit": false,
      "t": 14117.656000000012,
      "d": 331.93298333333405,
      "v": 113
    },
    {
      "midi": 40,
      "hit": false,
      "t": 14369.75699999997,
      "d": 126.05049999999937,
      "v": 108
    },
    {
      "midi": 42,
      "hit": false,
      "t": 14369.756999999992,
      "d": 126.05049999999937,
      "v": 117
    },
    {
      "midi": 60,
      "hit": false,
      "t": 14369.757000000001,
      "d": 84.03366666666625,
      "v": 102
    },
    {
      "midi": 40,
      "hit": false,
      "t": 14621.85799999997,
      "d": 126.05049999999937,
      "v": 100
    },
    {
      "midi": 65,
      "hit": false,
      "t": 14621.858,
      "d": 84.03366666666625,
      "v": 99
    },
    {
      "midi": 36,
      "hit": false,
      "t": 14621.858000000013,
      "d": 331.93298333333405,
      "v": 104
    },
    {
      "midi": 40,
      "hit": false,
      "t": 14747.908499999969,
      "d": 126.05049999999937,
      "v": 93
    },
    {
      "midi": 40,
      "hit": false,
      "t": 14873.958999999968,
      "d": 126.05049999999937,
      "v": 102
    },
    {
      "midi": 42,
      "hit": false,
      "t": 14873.958999999992,
      "d": 126.05049999999937,
      "v": 104
    },
    {
      "midi": 67,
      "hit": false,
      "t": 14873.958999999999,
      "d": 84.03366666666625,
      "v": 106
    },
    {
      "midi": 40,
      "hit": false,
      "t": 15000.009499999967,
      "d": 126.05049999999937,
      "v": 94
    },
    {
      "midi": 40,
      "hit": false,
      "t": 15126.059999999967,
      "d": 126.05049999999937,
      "v": 109
    },
    {
      "midi": 69,
      "hit": false,
      "t": 15126.059999999998,
      "d": 756.3029999999999,
      "v": 116
    },
    {
      "midi": 41,
      "hit": false,
      "t": 15126.060000000014,
      "d": 331.93298333333405,
      "v": 114
    },
    {
      "midi": 40,
      "hit": false,
      "t": 15378.160999999965,
      "d": 126.05049999999937,
      "v": 109
    },
    {
      "midi": 42,
      "hit": false,
      "t": 15378.160999999991,
      "d": 126.05049999999937,
      "v": 115
    },
    {
      "midi": 69,
      "hit": false,
      "t": 15390.76605,
      "d": 100.84039999999914,
      "v": 64
    },
    {
      "midi": 72,
      "hit": false,
      "t": 15390.76605,
      "d": 100.84039999999914,
      "v": 64
    },
    {
      "midi": 69,
      "hit": false,
      "t": 15390.766050000024,
      "d": 71.42861666666613,
      "v": 75
    },
    {
      "midi": 72,
      "hit": false,
      "t": 15390.766050000024,
      "d": 71.42861666666613,
      "v": 75
    },
    {
      "midi": 69,
      "hit": false,
      "t": 15516.81655,
      "d": 12.60505000000012,
      "v": 82
    },
    {
      "midi": 72,
      "hit": false,
      "t": 15516.81655,
      "d": 37.81515000000036,
      "v": 82
    },
    {
      "midi": 69,
      "hit": false,
      "t": 15516.816550000023,
      "d": 12.60505000000012,
      "v": 90
    },
    {
      "midi": 72,
      "hit": false,
      "t": 15516.816550000023,
      "d": 37.81515000000036,
      "v": 90
    },
    {
      "midi": 40,
      "hit": false,
      "t": 15630.261999999964,
      "d": 126.05049999999937,
      "v": 100
    },
    {
      "midi": 69,
      "hit": false,
      "t": 15630.262,
      "d": 71.42861666666613,
      "v": 108
    },
    {
      "midi": 72,
      "hit": false,
      "t": 15630.262,
      "d": 71.42861666666613,
      "v": 108
    },
    {
      "midi": 36,
      "hit": false,
      "t": 15630.262000000015,
      "d": 331.93298333333405,
      "v": 106
    },
    {
      "midi": 69,
      "hit": false,
      "t": 15630.262000000024,
      "d": 71.42861666666613,
      "v": 108
    },
    {
      "midi": 72,
      "hit": false,
      "t": 15630.262000000024,
      "d": 71.42861666666613,
      "v": 108
    },
    {
      "midi": 40,
      "hit": false,
      "t": 15756.312499999964,
      "d": 126.05049999999937,
      "v": 95
    },
    {
      "midi": 40,
      "hit": false,
      "t": 15882.362999999963,
      "d": 126.05049999999937,
      "v": 101
    },
    {
      "midi": 42,
      "hit": false,
      "t": 15882.36299999999,
      "d": 126.05049999999937,
      "v": 105
    },
    {
      "midi": 69,
      "hit": false,
      "t": 15882.363,
      "d": 58.82356666666601,
      "v": 125
    },
    {
      "midi": 72,
      "hit": false,
      "t": 15882.363,
      "d": 71.42861666666613,
      "v": 125
    },
    {
      "midi": 69,
      "hit": false,
      "t": 15882.363000000023,
      "d": 58.82356666666601,
      "v": 125
    },
    {
      "midi": 72,
      "hit": false,
      "t": 15882.363000000023,
      "d": 71.42861666666613,
      "v": 125
    },
    {
      "midi": 40,
      "hit": false,
      "t": 16008.413499999962,
      "d": 126.05049999999937,
      "v": 95
    },
    {
      "midi": 40,
      "hit": false,
      "t": 16134.463999999962,
      "d": 126.05049999999937,
      "v": 108
    },
    {
      "midi": 67,
      "hit": false,
      "t": 16134.463999999998,
      "d": 92.4370333333336,
      "v": 114
    },
    {
      "midi": 43,
      "hit": false,
      "t": 16134.464000000016,
      "d": 331.93298333333405,
      "v": 112
    },
    {
      "midi": 40,
      "hit": false,
      "t": 16386.564999999962,
      "d": 126.0505000000012,
      "v": 108
    },
    {
      "midi": 42,
      "hit": false,
      "t": 16386.56499999999,
      "d": 126.0505000000012,
      "v": 114
    },
    {
      "midi": 62,
      "hit": false,
      "t": 16386.565,
      "d": 71.42861666666795,
      "v": 103
    },
    {
      "midi": 40,
      "hit": false,
      "t": 16638.665999999965,
      "d": 126.0505000000012,
      "v": 100
    },
    {
      "midi": 62,
      "hit": false,
      "t": 16638.666,
      "d": 378.15149999999994,
      "v": 112
    },
    {
      "midi": 38,
      "hit": false,
      "t": 16638.666000000016,
      "d": 331.93298333333223,
      "v": 102
    },
    {
      "midi": 40,
      "hit": false,
      "t": 16764.716499999966,
      "d": 126.0505000000012,
      "v": 93
    },
    {
      "midi": 40,
      "hit": false,
      "t": 16890.766999999967,
      "d": 126.0505000000012,
      "v": 102
    },
    {
      "midi": 42,
      "hit": false,
      "t": 16890.766999999993,
      "d": 126.0505000000012,
      "v": 104
    },
    {
      "midi": 40,
      "hit": false,
      "t": 17016.81749999997,
      "d": 126.0505000000012,
      "v": 94
    },
    {
      "midi": 40,
      "hit": false,
      "t": 17142.86799999997,
      "d": 126.0505000000012,
      "v": 109
    },
    {
      "midi": 67,
      "hit": false,
      "t": 17142.868000000002,
      "d": 92.43703333333178,
      "v": 117
    },
    {
      "midi": 43,
      "hit": false,
      "t": 17142.868000000013,
      "d": 331.93298333333223,
      "v": 112
    },
    {
      "midi": 40,
      "hit": false,
      "t": 17394.968999999972,
      "d": 126.0505000000012,
      "v": 109
    },
    {
      "midi": 42,
      "hit": false,
      "t": 17394.968999999994,
      "d": 126.0505000000012,
      "v": 113
    },
    {
      "midi": 62,
      "hit": false,
      "t": 17394.969,
      "d": 71.42861666666795,
      "v": 101
    },
    {
      "midi": 40,
      "hit": false,
      "t": 17647.069999999974,
      "d": 126.0505000000012,
      "v": 100
    },
    {
      "midi": 62,
      "hit": false,
      "t": 17647.070000000003,
      "d": 378.15149999999994,
      "v": 112
    },
    {
      "midi": 38,
      "hit": false,
      "t": 17647.07000000001,
      "d": 331.93298333333223,
      "v": 103
    },
    {
      "midi": 40,
      "hit": false,
      "t": 17773.120499999975,
      "d": 126.0505000000012,
      "v": 95
    },
    {
      "midi": 40,
      "hit": false,
      "t": 17899.170999999977,
      "d": 126.0505000000012,
      "v": 101
    },
    {
      "midi": 42,
      "hit": false,
      "t": 17899.170999999995,
      "d": 126.0505000000012,
      "v": 104
    },
    {
      "midi": 40,
      "hit": false,
      "t": 18025.221499999978,
      "d": 126.0505000000012,
      "v": 95
    },
    {
      "midi": 40,
      "hit": false,
      "t": 18151.27199999998,
      "d": 126.0505000000012,
      "v": 108
    },
    {
      "midi": 67,
      "hit": false,
      "t": 18151.272000000004,
      "d": 84.03366666666625,
      "v": 112
    },
    {
      "midi": 43,
      "hit": false,
      "t": 18151.272000000008,
      "d": 331.93298333333223,
      "v": 110
    },
    {
      "midi": 40,
      "hit": false,
      "t": 18403.37299999998,
      "d": 126.0505000000012,
      "v": 108
    },
    {
      "midi": 42,
      "hit": false,
      "t": 18403.372999999996,
      "d": 126.0505000000012,
      "v": 113
    },
    {
      "midi": 62,
      "hit": false,
      "t": 18403.373000000003,
      "d": 84.03366666666625,
      "v": 105
    },
    {
      "midi": 40,
      "hit": false,
      "t": 18655.473999999984,
      "d": 126.0505000000012,
      "v": 100
    },
    {
      "midi": 70,
      "hit": false,
      "t": 18655.474000000002,
      "d": 84.03366666666625,
      "v": 117
    },
    {
      "midi": 38,
      "hit": false,
      "t": 18655.474000000006,
      "d": 331.93298333333223,
      "v": 101
    },
    {
      "midi": 40,
      "hit": false,
      "t": 18781.524499999985,
      "d": 126.0505000000012,
      "v": 93
    },
    {
      "midi": 40,
      "hit": false,
      "t": 18907.574999999986,
      "d": 126.0505000000012,
      "v": 102
    },
    {
      "midi": 42,
      "hit": false,
      "t": 18907.574999999997,
      "d": 126.0505000000012,
      "v": 103
    },
    {
      "midi": 69,
      "hit": false,
      "t": 18907.575,
      "d": 92.43703333333178,
      "v": 112
    },
    {
      "midi": 40,
      "hit": false,
      "t": 19033.625499999987,
      "d": 126.0505000000012,
      "v": 94
    },
    {
      "midi": 40,
      "hit": false,
      "t": 19159.67599999999,
      "d": 126.0505000000012,
      "v": 109
    },
    {
      "midi": 67,
      "hit": false,
      "t": 19159.676,
      "d": 756.3029999999999,
      "v": 110
    },
    {
      "midi": 43,
      "hit": false,
      "t": 19159.676000000003,
      "d": 331.93298333333223,
      "v": 113
    },
    {
      "midi": 40,
      "hit": false,
      "t": 19411.77699999999,
      "d": 126.0505000000012,
      "v": 109
    },
    {
      "midi": 69,
      "hit": false,
      "t": 19411.777,
      "d": 71.42861666666431,
      "v": 127
    },
    {
      "midi": 42,
      "hit": false,
      "t": 19411.777,
      "d": 126.0505000000012,
      "v": 113
    },
    {
      "midi": 72,
      "hit": false,
      "t": 19411.777000000002,
      "d": 504.20200000000114,
      "v": 104
    },
    {
      "midi": 69,
      "hit": false,
      "t": 19411.777000000024,
      "d": 71.42861666666431,
      "v": 127
    },
    {
      "midi": 72,
      "hit": false,
      "t": 19424.382049999997,
      "d": 79.83198333333348,
      "v": 127
    },
    {
      "midi": 72,
      "hit": false,
      "t": 19424.382050000022,
      "d": 79.83198333333348,
      "v": 127
    },
    {
      "midi": 40,
      "hit": false,
      "t": 19663.877999999993,
      "d": 126.0505000000012,
      "v": 100
    },
    {
      "midi": 36,
      "hit": false,
      "t": 19663.878,
      "d": 331.93298333333223,
      "v": 103
    },
    {
      "midi": 40,
      "hit": false,
      "t": 19789.928499999995,
      "d": 126.0505000000012,
      "v": 95
    },
    {
      "midi": 40,
      "hit": false,
      "t": 19915.978999999996,
      "d": 126.0505000000012,
      "v": 101
    },
    {
      "midi": 42,
      "hit": false,
      "t": 19915.979,
      "d": 126.0505000000012,
      "v": 103
    },
    {
      "midi": 70,
      "hit": false,
      "t": 19915.979000000003,
      "d": 252.10099999999875,
      "v": 101
    },
    {
      "midi": 40,
      "hit": false,
      "t": 20042.029499999997,
      "d": 126.0505000000012,
      "v": 95
    },
    {
      "midi": 40,
      "hit": false,
      "t": 20168.079999999998,
      "d": 126.0505000000012,
      "v": 108
    },
    {
      "midi": 41,
      "hit": false,
      "t": 20168.079999999998,
      "d": 331.93298333333223,
      "v": 114
    },
    {
      "midi": 69,
      "hit": false,
      "t": 20168.08,
      "d": 2016.808000000001,
      "v": 97
    },
    {
      "midi": 57,
      "hit": false,
      "t": 20420.180999999997,
      "d": 323.5296166666667,
      "v": 123
    },
    {
      "midi": 40,
      "hit": false,
      "t": 20420.181,
      "d": 126.0505000000012,
      "v": 108
    },
    {
      "midi": 42,
      "hit": false,
      "t": 20420.181,
      "d": 126.0505000000012,
      "v": 114
    },
    {
      "midi": 36,
      "hit": false,
      "t": 20672.281999999996,
      "d": 331.93298333333223,
      "v": 104
    },
    {
      "midi": 40,
      "hit": false,
      "t": 20672.282000000003,
      "d": 126.0505000000012,
      "v": 100
    },
    {
      "midi": 40,
      "hit": false,
      "t": 20798.332500000004,
      "d": 126.0505000000012,
      "v": 93
    },
    {
      "midi": 58,
      "hit": false,
      "t": 20924.382999999998,
      "d": 71.42861666666795,
      "v": 109
    },
    {
      "midi": 42,
      "hit": false,
      "t": 20924.383,
      "d": 126.0505000000012,
      "v": 101
    },
    {
      "midi": 40,
      "hit": false,
      "t": 20924.383000000005,
      "d": 126.0505000000012,
      "v": 102
    },
    {
      "midi": 40,
      "hit": false,
      "t": 21050.433500000006,
      "d": 126.0505000000012,
      "v": 94
    },
    {
      "midi": 41,
      "hit": false,
      "t": 21176.483999999993,
      "d": 331.93298333333223,
      "v": 116
    },
    {
      "midi": 60,
      "hit": false,
      "t": 21176.484,
      "d": 323.5296166666667,
      "v": 123
    },
    {
      "midi": 40,
      "hit": false,
      "t": 21176.484000000008,
      "d": 126.0505000000012,
      "v": 109
    },
    {
      "midi": 42,
      "hit": false,
      "t": 21428.585000000003,
      "d": 126.0505000000012,
      "v": 113
    },
    {
      "midi": 40,
      "hit": false,
      "t": 21428.58500000001,
      "d": 126.0505000000012,
      "v": 109
    },
    {
      "midi": 36,
      "hit": false,
      "t": 21680.68599999999,
      "d": 331.93298333333223,
      "v": 103
    },
    {
      "midi": 57,
      "hit": false,
      "t": 21680.686,
      "d": 323.5296166666667,
      "v": 115
    },
    {
      "midi": 40,
      "hit": false,
      "t": 21680.686000000012,
      "d": 126.0505000000012,
      "v": 100
    },
    {
      "midi": 40,
      "hit": false,
      "t": 21806.736500000014,
      "d": 126.0505000000012,
      "v": 95
    },
    {
      "midi": 42,
      "hit": false,
      "t": 21932.787000000004,
      "d": 126.0505000000012,
      "v": 102
    },
    {
      "midi": 40,
      "hit": false,
      "t": 21932.787000000015,
      "d": 126.0505000000012,
      "v": 101
    },
    {
      "midi": 40,
      "hit": false,
      "t": 22058.837500000016,
      "d": 126.0505000000012,
      "v": 95
    },
    {
      "midi": 41,
      "hit": false,
      "t": 22184.887999999988,
      "d": 331.93298333333223,
      "v": 115
    },
    {
      "midi": 53,
      "hit": false,
      "t": 22184.888000000003,
      "d": 323.5296166666667,
      "v": 112
    },
    {
      "midi": 70,
      "hit": false,
      "t": 22184.888000000003,
      "d": 1008.4039999999986,
      "v": 90
    },
    {
      "midi": 40,
      "hit": false,
      "t": 22184.888000000017,
      "d": 126.0505000000012,
      "v": 108
    },
    {
      "midi": 42,
      "hit": false,
      "t": 22436.989000000005,
      "d": 126.0505000000012,
      "v": 113
    },
    {
      "midi": 40,
      "hit": false,
      "t": 22436.98900000002,
      "d": 126.0505000000012,
      "v": 108
    },
    {
      "midi": 34,
      "hit": false,
      "t": 22689.089999999986,
      "d": 331.93298333333223,
      "v": 103
    },
    {
      "midi": 62,
      "hit": false,
      "t": 22689.090000000004,
      "d": 323.5296166666667,
      "v": 122
    },
    {
      "midi": 40,
      "hit": false,
      "t": 22689.090000000022,
      "d": 126.0505000000012,
      "v": 100
    },
    {
      "midi": 40,
      "hit": false,
      "t": 22815.140500000023,
      "d": 126.0505000000012,
      "v": 93
    },
    {
      "midi": 42,
      "hit": false,
      "t": 22941.191000000006,
      "d": 126.0505000000012,
      "v": 103
    },
    {
      "midi": 40,
      "hit": false,
      "t": 22941.191000000024,
      "d": 126.0505000000012,
      "v": 102
    },
    {
      "midi": 40,
      "hit": false,
      "t": 23067.241500000026,
      "d": 126.0505000000012,
      "v": 94
    },
    {
      "midi": 41,
      "hit": false,
      "t": 23193.291999999983,
      "d": 331.93298333333223,
      "v": 114
    },
    {
      "midi": 72,
      "hit": false,
      "t": 23193.292,
      "d": 1008.4039999999986,
      "v": 101
    },
    {
      "midi": 60,
      "hit": false,
      "t": 23193.292000000005,
      "d": 823.5299333333351,
      "v": 113
    },
    {
      "midi": 40,
      "hit": false,
      "t": 23193.292000000027,
      "d": 126.0505000000012,
      "v": 109
    },
    {
      "midi": 48,
      "hit": false,
      "t": 23445.393000000004,
      "d": 126.0505000000012,
      "v": 93
    },
    {
      "midi": 42,
      "hit": false,
      "t": 23445.393000000007,
      "d": 126.0505000000012,
      "v": 114
    },
    {
      "midi": 40,
      "hit": false,
      "t": 23445.39300000003,
      "d": 126.0505000000012,
      "v": 109
    },
    {
      "midi": 36,
      "hit": false,
      "t": 23697.49399999998,
      "d": 331.93298333333223,
      "v": 101
    },
    {
      "midi": 47,
      "hit": false,
      "t": 23697.494000000006,
      "d": 126.0505000000012,
      "v": 88
    },
    {
      "midi": 40,
      "hit": false,
      "t": 23697.49400000003,
      "d": 126.0505000000012,
      "v": 100
    },
    {
      "midi": 40,
      "hit": false,
      "t": 23823.544500000033,
      "d": 126.0505000000012,
      "v": 95
    },
    {
      "midi": 46,
      "hit": false,
      "t": 23949.59500000001,
      "d": 126.05049999999756,
      "v": 82
    },
    {
      "midi": 42,
      "hit": false,
      "t": 23949.59500000001,
      "d": 126.0505000000012,
      "v": 102
    },
    {
      "midi": 40,
      "hit": false,
      "t": 23949.595000000034,
      "d": 126.0505000000012,
      "v": 101
    },
    {
      "midi": 40,
      "hit": false,
      "t": 24075.645500000035,
      "d": 126.0505000000012,
      "v": 95
    },
    {
      "midi": 38,
      "hit": false,
      "t": 24201.695999999978,
      "d": 331.93298333333223,
      "v": 113
    },
    {
      "midi": 74,
      "hit": false,
      "t": 24201.696,
      "d": 1932.7743333333347,
      "v": 105
    },
    {
      "midi": 45,
      "hit": false,
      "t": 24201.696000000007,
      "d": 966.38716666666,
      "v": 71
    },
    {
      "midi": 40,
      "hit": false,
      "t": 24201.696000000036,
      "d": 126.0505000000012,
      "v": 108
    },
    {
      "midi": 53,
      "hit": false,
      "t": 24453.797000000006,
      "d": 386.5548666666655,
      "v": 113
    },
    {
      "midi": 57,
      "hit": false,
      "t": 24453.797000000006,
      "d": 399.1599166666638,
      "v": 113
    },
    {
      "midi": 62,
      "hit": false,
      "t": 24453.797000000006,
      "d": 411.7649666666621,
      "v": 109
    },
    {
      "midi": 42,
      "hit": false,
      "t": 24453.79700000001,
      "d": 126.0505000000012,
      "v": 114
    },
    {
      "midi": 40,
      "hit": false,
      "t": 24453.79700000004,
      "d": 126.0505000000012,
      "v": 109
    },
    {
      "midi": 33,
      "hit": false,
      "t": 24705.897999999976,
      "d": 331.93298333333223,
      "v": 105
    },
    {
      "midi": 52,
      "hit": false,
      "t": 24957.999,
      "d": 79.83198333333348,
      "v": 97
    },
    {
      "midi": 61,
      "hit": false,
      "t": 24957.999,
      "d": 88.23534999999902,
      "v": 105
    },
    {
      "midi": 55,
      "hit": false,
      "t": 24957.999,
      "d": 88.23534999999902,
      "v": 91
    },
    {
      "midi": 42,
      "hit": false,
      "t": 24957.99900000001,
      "d": 126.0505000000012,
      "v": 101
    },
    {
      "midi": 40,
      "hit": false,
      "t": 24957.99900000004,
      "d": 126.0505000000012,
      "v": 108
    },
    {
      "midi": 38,
      "hit": false,
      "t": 25210.099999999973,
      "d": 331.93298333333223,
      "v": 113
    },
    {
      "midi": 62,
      "hit": false,
      "t": 25210.100000000002,
      "d": 96.63871666666819,
      "v": 111
    },
    {
      "midi": 53,
      "hit": false,
      "t": 25210.100000000002,
      "d": 96.63871666666819,
      "v": 115
    },
    {
      "midi": 57,
      "hit": false,
      "t": 25210.100000000002,
      "d": 96.63871666666819,
      "v": 115
    },
    {
      "midi": 40,
      "hit": false,
      "t": 25210.100000000042,
      "d": 126.0505000000012,
      "v": 109
    },
    {
      "midi": 61,
      "hit": false,
      "t": 25462.201000000005,
      "d": 79.83198333333348,
      "v": 104
    },
    {
      "midi": 52,
      "hit": false,
      "t": 25462.201000000005,
      "d": 79.83198333333348,
      "v": 104
    },
    {
      "midi": 55,
      "hit": false,
      "t": 25462.201000000005,
      "d": 88.23534999999902,
      "v": 108
    },
    {
      "midi": 42,
      "hit": false,
      "t": 25462.201000000012,
      "d": 126.0505000000012,
      "v": 112
    },
    {
      "midi": 40,
      "hit": false,
      "t": 25462.201000000045,
      "d": 126.0505000000012,
      "v": 109
    },
    {
      "midi": 33,
      "hit": false,
      "t": 25714.30199999997,
      "d": 331.93298333333223,
      "v": 105
    },
    {
      "midi": 62,
      "hit": false,
      "t": 25714.302000000003,
      "d": 96.63871666666819,
      "v": 111
    },
    {
      "midi": 50,
      "hit": false,
      "t": 25714.302000000003,
      "d": 96.63871666666819,
      "v": 114
    },
    {
      "midi": 53,
      "hit": false,
      "t": 25714.302000000003,
      "d": 96.63871666666819,
      "v": 114
    },
    {
      "midi": 40,
      "hit": false,
      "t": 25714.302000000047,
      "d": 126.0505000000012,
      "v": 101
    },
    {
      "midi": 40,
      "hit": false,
      "t": 25840.352500000048,
      "d": 126.0505000000012,
      "v": 94
    },
    {
      "midi": 62,
      "hit": false,
      "t": 25966.403000000006,
      "d": 79.83198333333348,
      "v": 106
    },
    {
      "midi": 52,
      "hit": false,
      "t": 25966.403000000006,
      "d": 79.83198333333348,
      "v": 104
    },
    {
      "midi": 55,
      "hit": false,
      "t": 25966.403000000006,
      "d": 88.23534999999902,
      "v": 104
    },
    {
      "midi": 42,
      "hit": false,
      "t": 25966.403000000013,
      "d": 126.0505000000012,
      "v": 101
    },
    {
      "midi": 40,
      "hit": false,
      "t": 25966.40300000005,
      "d": 126.0505000000012,
      "v": 100
    },
    {
      "midi": 40,
      "hit": false,
      "t": 26092.45350000005,
      "d": 126.0505000000012,
      "v": 94
    },
    {
      "midi": 40,
      "hit": false,
      "t": 26218.503999999968,
      "d": 331.93298333333223,
      "v": 112
    },
    {
      "midi": 73,
      "hit": false,
      "t": 26218.504,
      "d": 168.06733333333614,
      "v": 116
    },
    {
      "midi": 52,
      "hit": false,
      "t": 26218.504000000004,
      "d": 1252.1016333333318,
      "v": 125
    },
    {
      "midi": 61,
      "hit": false,
      "t": 26218.504000000004,
      "d": 1260.5049999999974,
      "v": 106
    },
    {
      "midi": 40,
      "hit": false,
      "t": 26218.50400000005,
      "d": 126.0505000000012,
      "v": 109
    },
    {
      "midi": 74,
      "hit": false,
      "t": 26344.554500000002,
      "d": 168.06733333333614,
      "v": 92
    },
    {
      "midi": 76,
      "hit": false,
      "t": 26470.605000000003,
      "d": 168.06733333333614,
      "v": 117
    },
    {
      "midi": 42,
      "hit": false,
      "t": 26470.605000000014,
      "d": 126.0505000000012,
      "v": 113
    },
    {
      "midi": 40,
      "hit": false,
      "t": 26470.605000000054,
      "d": 126.0505000000012,
      "v": 110
    },
    {
      "midi": 77,
      "hit": false,
      "t": 26596.655500000004,
      "d": 168.06733333333614,
      "v": 97
    },
    {
      "midi": 33,
      "hit": false,
      "t": 26722.705999999966,
      "d": 331.93298333333223,
      "v": 104
    },
    {
      "midi": 79,
      "hit": false,
      "t": 26722.706000000006,
      "d": 168.06733333333614,
      "v": 119
    },
    {
      "midi": 40,
      "hit": false,
      "t": 26722.706000000057,
      "d": 126.0505000000012,
      "v": 103
    },
    {
      "midi": 78,
      "hit": false,
      "t": 26848.756500000007,
      "d": 168.06733333333614,
      "v": 101
    },
    {
      "midi": 40,
      "hit": false,
      "t": 26848.756500000058,
      "d": 126.0505000000012,
      "v": 97
    },
    {
      "midi": 79,
      "hit": false,
      "t": 26974.807000000008,
      "d": 168.06733333333614,
      "v": 120
    },
    {
      "midi": 42,
      "hit": false,
      "t": 26974.807000000015,
      "d": 126.0505000000012,
      "v": 101
    },
    {
      "midi": 40,
      "hit": false,
      "t": 26974.80700000006,
      "d": 126.0505000000012,
      "v": 103
    },
    {
      "midi": 80,
      "hit": false,
      "t": 27100.85750000001,
      "d": 168.06733333333614,
      "v": 104
    },
    {
      "midi": 40,
      "hit": false,
      "t": 27100.85750000006,
      "d": 126.0505000000012,
      "v": 100
    },
    {
      "midi": 40,
      "hit": false,
      "t": 27226.907999999963,
      "d": 168.0673333333325,
      "v": 112
    },
    {
      "midi": 81,
      "hit": false,
      "t": 27226.90800000001,
      "d": 105.04208333333372,
      "v": 127
    },
    {
      "midi": 40,
      "hit": false,
      "t": 27226.90800000006,
      "d": 126.0505000000012,
      "v": 112
    },
    {
      "midi": 42,
      "hit": false,
      "t": 27479.009000000016,
      "d": 126.0505000000012,
      "v": 113
    },
    {
      "midi": 33,
      "hit": false,
      "t": 27731.10999999996,
      "d": 378.15149999999994,
      "v": 113
    },
    {
      "midi": 49,
      "hit": false,
      "t": 27731.10999999998,
      "d": 630.2524999999987,
      "v": 127
    },
    {
      "midi": 33,
      "hit": false,
      "t": 27731.109999999997,
      "d": 453.78180000000066,
      "v": 96
    },
    {
      "midi": 57,
      "hit": false,
      "t": 27731.11,
      "d": 390.75654999999824,
      "v": 121
    },
    {
      "midi": 53,
      "hit": false,
      "t": 27731.11,
      "d": 394.958233333331,
      "v": 121
    },
    {
      "midi": 35,
      "hit": false,
      "t": 27731.11,
      "d": 63.02524999999878,
      "v": 127
    },
    {
      "midi": 38,
      "hit": false,
      "t": 27731.11,
      "d": 126.05049999999756,
      "v": 127
    },
    {
      "midi": 81,
      "hit": false,
      "t": 27731.11,
      "d": 126.0505000000012,
      "v": 113
    },
    {
      "midi": 69,
      "hit": false,
      "t": 27731.11000000001,
      "d": 260.5043666666679,
      "v": 108
    },
    {
      "midi": 81,
      "hit": false,
      "t": 27857.1605,
      "d": 126.05049999999756,
      "v": 106
    },
    {
      "midi": 82,
      "hit": false,
      "t": 27920.18575,
      "d": 8.403366666665534,
      "v": 99
    },
    {
      "midi": 81,
      "hit": false,
      "t": 27983.211,
      "d": 126.05049999999756,
      "v": 110
    },
    {
      "midi": 82,
      "hit": false,
      "t": 28037.832883333333,
      "d": 8.403366666665534,
      "v": 100
    },
    {
      "midi": 81,
      "hit": false,
      "t": 28109.261499999997,
      "d": 126.0505000000012,
      "v": 112
    },
    {
      "midi": 82,
      "hit": false,
      "t": 28159.681699999997,
      "d": 4.201683333332767,
      "v": 101
    },
    {
      "midi": 38,
      "hit": false,
      "t": 28235.31199999996,
      "d": 126.0505000000012,
      "v": 116
    },
    {
      "midi": 62,
      "hit": false,
      "t": 28235.311999999998,
      "d": 67.22693333333154,
      "v": 110
    },
    {
      "midi": 74,
      "hit": false,
      "t": 28235.311999999998,
      "d": 67.22693333333154,
      "v": 110
    },
    {
      "midi": 50,
      "hit": false,
      "t": 28235.311999999998,
      "d": 92.43703333333178,
      "v": 119
    },
    {
      "midi": 62,
      "hit": false,
      "t": 28235.311999999998,
      "d": 92.43703333333178,
      "v": 119
    },
    {
      "midi": 38,
      "hit": false,
      "t": 28235.311999999998,
      "d": 126.0505000000012,
      "v": 100
    },
    {
      "midi": 86,
      "hit": false,
      "t": 28235.311999999998,
      "d": 126.05049999999756,
      "v": 114
    },
    {
      "midi": 38,
      "hit": false,
      "t": 28235.311999999998,
      "d": 126.0505000000012,
      "v": 96
    },
    {
      "midi": 74,
      "hit": false,
      "t": 28235.312000000013,
      "d": 109.24376666666649,
      "v": 112
    },
    {
      "midi": 62,
      "hit": false,
      "t": 28235.31200000002,
      "d": 67.22693333333154,
      "v": 110
    },
    {
      "midi": 74,
      "hit": false,
      "t": 28235.31200000002,
      "d": 67.22693333333154,
      "v": 110
    },
    {
      "midi": 40,
      "hit": false,
      "t": 28235.312000000064,
      "d": 126.0505000000012,
      "v": 114
    },
    {
      "midi": 36,
      "hit": false,
      "t": 28487.412999999964,
      "d": 126.0505000000012,
      "v": 108
    },
    {
      "midi": 57,
      "hit": false,
      "t": 28487.412999999997,
      "d": 46.21851666666771,
      "v": 107
    },
    {
      "midi": 69,
      "hit": false,
      "t": 28487.412999999997,
      "d": 46.21851666666771,
      "v": 107
    },
    {
      "midi": 48,
      "hit": false,
      "t": 28487.412999999997,
      "d": 92.43703333333178,
      "v": 117
    },
    {
      "midi": 60,
      "hit": false,
      "t": 28487.412999999997,
      "d": 92.43703333333178,
      "v": 117
    },
    {
      "midi": 84,
      "hit": false,
      "t": 28487.412999999997,
      "d": 126.0505000000012,
      "v": 109
    },
    {
      "midi": 38,
      "hit": false,
      "t": 28487.413,
      "d": 126.0505000000012,
      "v": 100
    },
    {
      "midi": 36,
      "hit": false,
      "t": 28487.413,
      "d": 126.0505000000012,
      "v": 88
    },
    {
      "midi": 72,
      "hit": false,
      "t": 28487.41300000001,
      "d": 109.24376666666649,
      "v": 104
    },
    {
      "midi": 57,
      "hit": false,
      "t": 28487.41300000002,
      "d": 46.21851666666771,
      "v": 107
    },
    {
      "midi": 69,
      "hit": false,
      "t": 28487.41300000002,
      "d": 46.21851666666771,
      "v": 107
    },
    {
      "midi": 42,
      "hit": false,
      "t": 28487.41300000002,
      "d": 126.0505000000012,
      "v": 113
    },
    {
      "midi": 40,
      "hit": false,
      "t": 28487.413000000066,
      "d": 126.0505000000012,
      "v": 114
    },
    {
      "midi": 38,
      "hit": false,
      "t": 28739.513999999966,
      "d": 378.15149999999994,
      "v": 116
    },
    {
      "midi": 57,
      "hit": false,
      "t": 28739.513999999996,
      "d": 394.95823333333465,
      "v": 112
    },
    {
      "midi": 45,
      "hit": false,
      "t": 28739.513999999996,
      "d": 407.56328333333295,
      "v": 112
    },
    {
      "midi": 69,
      "hit": false,
      "t": 28739.514,
      "d": 378.15149999999994,
      "v": 105
    },
    {
      "midi": 57,
      "hit": false,
      "t": 28739.514,
      "d": 378.15149999999994,
      "v": 105
    },
    {
      "midi": 81,
      "hit": false,
      "t": 28739.514,
      "d": 252.10099999999875,
      "v": 105
    },
    {
      "midi": 38,
      "hit": false,
      "t": 28739.514000000003,
      "d": 126.0505000000012,
      "v": 100
    },
    {
      "midi": 38,
      "hit": false,
      "t": 28739.514000000003,
      "d": 239.49595000000045,
      "v": 97
    },
    {
      "midi": 69,
      "hit": false,
      "t": 28739.51400000001,
      "d": 214.2858500000002,
      "v": 99
    },
    {
      "midi": 69,
      "hit": false,
      "t": 28739.51400000002,
      "d": 378.15149999999994,
      "v": 105
    },
    {
      "midi": 57,
      "hit": false,
      "t": 28739.51400000002,
      "d": 378.15149999999994,
      "v": 105
    },
    {
      "midi": 40,
      "hit": false,
      "t": 28739.51400000007,
      "d": 126.0505000000012,
      "v": 114
    },
    {
      "midi": 38,
      "hit": false,
      "t": 29243.715999999968,
      "d": 126.0505000000012,
      "v": 118
    },
    {
      "midi": 50,
      "hit": false,
      "t": 29243.715999999997,
      "d": 92.43703333333178,
      "v": 121
    },
    {
      "midi": 62,
      "hit": false,
      "t": 29243.715999999997,
      "d": 92.43703333333178,
      "v": 121
    },
    {
      "midi": 86,
      "hit": false,
      "t": 29243.715999999997,
      "d": 126.0505000000012,
      "v": 115
    },
    {
      "midi": 74,
      "hit": false,
      "t": 29243.716,
      "d": 33.61346666666577,
      "v": 110
    },
    {
      "midi": 62,
      "hit": false,
      "t": 29243.716,
      "d": 33.61346666666577,
      "v": 110
    },
    {
      "midi": 38,
      "hit": false,
      "t": 29243.716000000004,
      "d": 126.0505000000012,
      "v": 100
    },
    {
      "midi": 38,
      "hit": false,
      "t": 29243.716000000004,
      "d": 126.0505000000012,
      "v": 97
    },
    {
      "midi": 74,
      "hit": false,
      "t": 29243.71600000001,
      "d": 109.24376666666649,
      "v": 112
    },
    {
      "midi": 74,
      "hit": false,
      "t": 29243.716000000022,
      "d": 33.61346666666577,
      "v": 110
    },
    {
      "midi": 62,
      "hit": false,
      "t": 29243.716000000022,
      "d": 33.61346666666577,
      "v": 110
    },
    {
      "midi": 40,
      "hit": false,
      "t": 29243.71600000007,
      "d": 126.0505000000012,
      "v": 114
    },
    {
      "midi": 36,
      "hit": false,
      "t": 29495.81699999997,
      "d": 126.0505000000012,
      "v": 110
    },
    {
      "midi": 48,
      "hit": false,
      "t": 29495.816999999995,
      "d": 92.43703333333178,
      "v": 114
    },
    {
      "midi": 60,
      "hit": false,
      "t": 29495.816999999995,
      "d": 92.43703333333178,
      "v": 114
    },
    {
      "midi": 69,
      "hit": false,
      "t": 29495.817,
      "d": 33.61346666666577,
      "v": 108
    },
    {
      "midi": 57,
      "hit": false,
      "t": 29495.817,
      "d": 33.61346666666577,
      "v": 108
    },
    {
      "midi": 84,
      "hit": false,
      "t": 29495.817,
      "d": 126.0505000000012,
      "v": 109
    },
    {
      "midi": 38,
      "hit": false,
      "t": 29495.817000000006,
      "d": 126.0505000000012,
      "v": 100
    },
    {
      "midi": 36,
      "hit": false,
      "t": 29495.817000000006,
      "d": 126.0505000000012,
      "v": 89
    },
    {
      "midi": 72,
      "hit": false,
      "t": 29495.81700000001,
      "d": 109.24376666666649,
      "v": 105
    },
    {
      "midi": 69,
      "hit": false,
      "t": 29495.81700000002,
      "d": 33.61346666666577,
      "v": 108
    },
    {
      "midi": 57,
      "hit": false,
      "t": 29495.81700000002,
      "d": 33.61346666666577,
      "v": 108
    },
    {
      "midi": 42,
      "hit": false,
      "t": 29495.81700000002,
      "d": 126.0505000000012,
      "v": 116
    },
    {
      "midi": 40,
      "hit": false,
      "t": 29495.817000000072,
      "d": 126.0505000000012,
      "v": 115
    },
    {
      "midi": 38,
      "hit": false,
      "t": 29747.917999999972,
      "d": 378.15149999999994,
      "v": 117
    },
    {
      "midi": 49,
      "hit": false,
      "t": 29747.917999999976,
      "d": 504.20200000000114,
      "v": 104
    },
    {
      "midi": 45,
      "hit": false,
      "t": 29747.917999999994,
      "d": 420.1683333333349,
      "v": 112
    },
    {
      "midi": 57,
      "hit": false,
      "t": 29747.917999999994,
      "d": 420.1683333333349,
      "v": 112
    },
    {
      "midi": 69,
      "hit": false,
      "t": 29747.917999999998,
      "d": 378.15149999999994,
      "v": 105
    },
    {
      "midi": 57,
      "hit": false,
      "t": 29747.917999999998,
      "d": 378.15149999999994,
      "v": 105
    },
    {
      "midi": 81,
      "hit": false,
      "t": 29747.918,
      "d": 252.10099999999875,
      "v": 103
    },
    {
      "midi": 69,
      "hit": false,
      "t": 29747.91800000001,
      "d": 214.2858500000002,
      "v": 97
    },
    {
      "midi": 38,
      "hit": false,
      "t": 29747.91800000001,
      "d": 126.0505000000012,
      "v": 100
    },
    {
      "midi": 38,
      "hit": false,
      "t": 29747.91800000001,
      "d": 273.1094166666662,
      "v": 98
    },
    {
      "midi": 69,
      "hit": false,
      "t": 29747.91800000002,
      "d": 378.15149999999994,
      "v": 105
    },
    {
      "midi": 57,
      "hit": false,
      "t": 29747.91800000002,
      "d": 378.15149999999994,
      "v": 105
    },
    {
      "midi": 40,
      "hit": false,
      "t": 29747.918000000074,
      "d": 126.0505000000012,
      "v": 115
    },
    {
      "midi": 38,
      "hit": false,
      "t": 30252.119999999974,
      "d": 126.0505000000012,
      "v": 118
    },
    {
      "midi": 50,
      "hit": false,
      "t": 30252.119999999995,
      "d": 92.43703333333178,
      "v": 119
    },
    {
      "midi": 62,
      "hit": false,
      "t": 30252.119999999995,
      "d": 92.43703333333178,
      "v": 119
    },
    {
      "midi": 62,
      "hit": false,
      "t": 30252.12,
      "d": 46.21851666666771,
      "v": 110
    },
    {
      "midi": 74,
      "hit": false,
      "t": 30252.12,
      "d": 46.21851666666771,
      "v": 110
    },
    {
      "midi": 86,
      "hit": false,
      "t": 30252.12,
      "d": 126.0505000000012,
      "v": 115
    },
    {
      "midi": 74,
      "hit": false,
      "t": 30252.12000000001,
      "d": 109.24376666666649,
      "v": 109
    },
    {
      "midi": 38,
      "hit": false,
      "t": 30252.12000000001,
      "d": 126.0505000000012,
      "v": 99
    },
    {
      "midi": 62,
      "hit": false,
      "t": 30252.12000000002,
      "d": 46.21851666666771,
      "v": 110
    },
    {
      "midi": 74,
      "hit": false,
      "t": 30252.12000000002,
      "d": 46.21851666666771,
      "v": 110
    },
    {
      "midi": 40,
      "hit": false,
      "t": 30252.120000000075,
      "d": 126.0505000000012,
      "v": 117
    },
    {
      "midi": 36,
      "hit": false,
      "t": 30504.220999999976,
      "d": 126.0505000000012,
      "v": 110
    },
    {
      "midi": 48,
      "hit": false,
      "t": 30504.220999999994,
      "d": 92.43703333333178,
      "v": 111
    },
    {
      "midi": 60,
      "hit": false,
      "t": 30504.220999999994,
      "d": 92.43703333333178,
      "v": 111
    },
    {
      "midi": 72,
      "hit": false,
      "t": 30504.221,
      "d": 46.21851666666771,
      "v": 106
    },
    {
      "midi": 60,
      "hit": false,
      "t": 30504.221,
      "d": 46.21851666666771,
      "v": 106
    },
    {
      "midi": 84,
      "hit": false,
      "t": 30504.221,
      "d": 126.0505000000012,
      "v": 109
    },
    {
      "midi": 72,
      "hit": false,
      "t": 30504.22100000001,
      "d": 109.24376666666649,
      "v": 100
    },
    {
      "midi": 36,
      "hit": false,
      "t": 30504.221000000012,
      "d": 126.0505000000012,
      "v": 88
    },
    {
      "midi": 72,
      "hit": false,
      "t": 30504.221000000023,
      "d": 46.21851666666771,
      "v": 106
    },
    {
      "midi": 60,
      "hit": false,
      "t": 30504.221000000023,
      "d": 46.21851666666771,
      "v": 106
    },
    {
      "midi": 42,
      "hit": false,
      "t": 30504.221000000023,
      "d": 126.0505000000012,
      "v": 114
    },
    {
      "midi": 40,
      "hit": false,
      "t": 30504.221000000078,
      "d": 126.0505000000012,
      "v": 117
    },
    {
      "midi": 38,
      "hit": false,
      "t": 30756.32199999998,
      "d": 126.0505000000012,
      "v": 115
    },
    {
      "midi": 50,
      "hit": false,
      "t": 30756.321999999993,
      "d": 92.43703333333178,
      "v": 121
    },
    {
      "midi": 62,
      "hit": false,
      "t": 30756.321999999993,
      "d": 92.43703333333178,
      "v": 121
    },
    {
      "midi": 74,
      "hit": false,
      "t": 30756.322000000004,
      "d": 46.21851666666771,
      "v": 113
    },
    {
      "midi": 62,
      "hit": false,
      "t": 30756.322000000004,
      "d": 46.21851666666771,
      "v": 113
    },
    {
      "midi": 86,
      "hit": false,
      "t": 30756.322000000004,
      "d": 126.0505000000012,
      "v": 116
    },
    {
      "midi": 74,
      "hit": false,
      "t": 30756.322000000007,
      "d": 109.24376666666649,
      "v": 111
    },
    {
      "midi": 38,
      "hit": false,
      "t": 30756.322000000015,
      "d": 126.0505000000012,
      "v": 99
    },
    {
      "midi": 74,
      "hit": false,
      "t": 30756.322000000026,
      "d": 46.21851666666771,
      "v": 113
    },
    {
      "midi": 62,
      "hit": false,
      "t": 30756.322000000026,
      "d": 46.21851666666771,
      "v": 113
    },
    {
      "midi": 40,
      "hit": false,
      "t": 30756.32200000008,
      "d": 126.0505000000012,
      "v": 109
    },
    {
      "midi": 40,
      "hit": false,
      "t": 30882.37250000008,
      "d": 126.0505000000012,
      "v": 101
    },
    {
      "midi": 36,
      "hit": false,
      "t": 31008.42299999998,
      "d": 126.0505000000012,
      "v": 110
    },
    {
      "midi": 48,
      "hit": false,
      "t": 31008.42299999999,
      "d": 92.43703333333178,
      "v": 119
    },
    {
      "midi": 60,
      "hit": false,
      "t": 31008.42299999999,
      "d": 92.43703333333178,
      "v": 119
    },
    {
      "midi": 72,
      "hit": false,
      "t": 31008.423000000006,
      "d": 58.82356666666601,
      "v": 109
    },
    {
      "midi": 60,
      "hit": false,
      "t": 31008.423000000006,
      "d": 58.82356666666601,
      "v": 109
    },
    {
      "midi": 72,
      "hit": false,
      "t": 31008.423000000006,
      "d": 109.24376666666649,
      "v": 105
    },
    {
      "midi": 84,
      "hit": false,
      "t": 31008.423000000006,
      "d": 126.0505000000012,
      "v": 111
    },
    {
      "midi": 36,
      "hit": false,
      "t": 31008.423000000017,
      "d": 126.0505000000012,
      "v": 88
    },
    {
      "midi": 42,
      "hit": false,
      "t": 31008.423000000024,
      "d": 126.0505000000012,
      "v": 100
    },
    {
      "midi": 72,
      "hit": false,
      "t": 31008.423000000028,
      "d": 58.82356666666601,
      "v": 109
    },
    {
      "midi": 60,
      "hit": false,
      "t": 31008.423000000028,
      "d": 58.82356666666601,
      "v": 109
    },
    {
      "midi": 40,
      "hit": false,
      "t": 31008.423000000083,
      "d": 126.0505000000012,
      "v": 111
    },
    {
      "midi": 40,
      "hit": false,
      "t": 31134.473500000084,
      "d": 126.0505000000012,
      "v": 102
    },
    {
      "midi": 38,
      "hit": false,
      "t": 31260.523999999983,
      "d": 126.0505000000012,
      "v": 117
    },
    {
      "midi": 45,
      "hit": false,
      "t": 31260.52399999999,
      "d": 92.43703333333178,
      "v": 114
    },
    {
      "midi": 57,
      "hit": false,
      "t": 31260.52399999999,
      "d": 92.43703333333178,
      "v": 114
    },
    {
      "midi": 69,
      "hit": false,
      "t": 31260.524000000005,
      "d": 71.42861666666795,
      "v": 108
    },
    {
      "midi": 57,
      "hit": false,
      "t": 31260.524000000005,
      "d": 71.42861666666795,
      "v": 108
    },
    {
      "midi": 69,
      "hit": false,
      "t": 31260.524000000005,
      "d": 109.24376666666649,
      "v": 100
    },
    {
      "midi": 81,
      "hit": false,
      "t": 31260.52400000001,
      "d": 126.0505000000012,
      "v": 104
    },
    {
      "midi": 38,
      "hit": false,
      "t": 31260.52400000002,
      "d": 126.0505000000012,
      "v": 100
    },
    {
      "midi": 69,
      "hit": false,
      "t": 31260.524000000027,
      "d": 71.42861666666795,
      "v": 108
    },
    {
      "midi": 57,
      "hit": false,
      "t": 31260.524000000027,
      "d": 71.42861666666795,
      "v": 108
    },
    {
      "midi": 42,
      "hit": false,
      "t": 31260.524000000027,
      "d": 126.0505000000012,
      "v": 114
    },
    {
      "midi": 40,
      "hit": false,
      "t": 31260.524000000085,
      "d": 126.0505000000012,
      "v": 118
    },
    {
      "midi": 49,
      "hit": false,
      "t": 31764.725999999977,
      "d": 756.3029999999999,
      "v": 126
    },
    {
      "midi": 38,
      "hit": false,
      "t": 31764.725999999984,
      "d": 172.26901666666527,
      "v": 118
    },
    {
      "midi": 35,
      "hit": false,
      "t": 31764.72600000001,
      "d": 63.02524999999878,
      "v": 127
    },
    {
      "midi": 38,
      "hit": false,
      "t": 31764.72600000001,
      "d": 126.05049999999756,
      "v": 127
    },
    {
      "midi": 69,
      "hit": false,
      "t": 32142.8775,
      "d": 4.201683333332767,
      "v": 101
    },
    {
      "midi": 34,
      "hit": false,
      "t": 32268.92799999998,
      "d": 331.93298333333223,
      "v": 111
    },
    {
      "midi": 77,
      "hit": false,
      "t": 32268.928,
      "d": 504.2019999999975,
      "v": 119
    },
    {
      "midi": 40,
      "hit": false,
      "t": 32268.928000000087,
      "d": 126.0505000000012,
      "v": 108
    },
    {
      "midi": 42,
      "hit": false,
      "t": 32521.029000000028,
      "d": 126.0505000000012,
      "v": 113
    },
    {
      "midi": 40,
      "hit": false,
      "t": 32521.02900000009,
      "d": 126.0505000000012,
      "v": 108
    },
    {
      "midi": 38,
      "hit": false,
      "t": 32773.12999999998,
      "d": 331.93298333333223,
      "v": 104
    },
    {
      "midi": 76,
      "hit": false,
      "t": 32773.13,
      "d": 504.2019999999975,
      "v": 111
    },
    {
      "midi": 40,
      "hit": false,
      "t": 32773.13000000009,
      "d": 126.05049999999756,
      "v": 100
    },
    {
      "midi": 40,
      "hit": false,
      "t": 32899.18050000009,
      "d": 126.05049999999756,
      "v": 93
    },
    {
      "midi": 42,
      "hit": false,
      "t": 33025.23100000003,
      "d": 126.05049999999756,
      "v": 103
    },
    {
      "midi": 40,
      "hit": false,
      "t": 33025.23100000009,
      "d": 126.05049999999756,
      "v": 102
    },
    {
      "midi": 40,
      "hit": false,
      "t": 33151.281500000085,
      "d": 126.05049999999756,
      "v": 94
    },
    {
      "midi": 41,
      "hit": false,
      "t": 33277.33199999998,
      "d": 331.93298333333223,
      "v": 118
    },
    {
      "midi": 74,
      "hit": false,
      "t": 33277.331999999995,
      "d": 504.2019999999975,
      "v": 116
    },
    {
      "midi": 40,
      "hit": false,
      "t": 33277.33200000008,
      "d": 126.05049999999756,
      "v": 109
    },
    {
      "midi": 42,
      "hit": false,
      "t": 33529.43300000003,
      "d": 126.05049999999756,
      "v": 112
    },
    {
      "midi": 40,
      "hit": false,
      "t": 33529.43300000008,
      "d": 126.05049999999756,
      "v": 109
    },
    {
      "midi": 34,
      "hit": false,
      "t": 33781.53399999998,
      "d": 331.93298333333223,
      "v": 103
    },
    {
      "midi": 72,
      "hit": false,
      "t": 33781.53399999999,
      "d": 378.15149999999994,
      "v": 110
    },
    {
      "midi": 40,
      "hit": false,
      "t": 33781.53400000007,
      "d": 126.05049999999756,
      "v": 100
    },
    {
      "midi": 40,
      "hit": false,
      "t": 33907.58450000007,
      "d": 126.05049999999756,
      "v": 95
    },
    {
      "midi": 42,
      "hit": false,
      "t": 34033.635000000024,
      "d": 126.05049999999756,
      "v": 105
    },
    {
      "midi": 40,
      "hit": false,
      "t": 34033.63500000007,
      "d": 126.05049999999756,
      "v": 101
    },
    {
      "midi": 74,
      "hit": false,
      "t": 34159.68549999999,
      "d": 126.05049999999756,
      "v": 83
    },
    {
      "midi": 40,
      "hit": false,
      "t": 34159.685500000065,
      "d": 126.05049999999756,
      "v": 95
    },
    {
      "midi": 36,
      "hit": false,
      "t": 34285.735999999975,
      "d": 331.93298333333223,
      "v": 117
    },
    {
      "midi": 72,
      "hit": false,
      "t": 34285.73599999999,
      "d": 491.5969499999992,
      "v": 108
    },
    {
      "midi": 40,
      "hit": false,
      "t": 34285.73600000006,
      "d": 126.05049999999756,
      "v": 108
    },
    {
      "midi": 42,
      "hit": false,
      "t": 34537.83700000002,
      "d": 126.05049999999756,
      "v": 114
    },
    {
      "midi": 40,
      "hit": false,
      "t": 34537.83700000006,
      "d": 126.05049999999756,
      "v": 108
    },
    {
      "midi": 36,
      "hit": false,
      "t": 34789.93799999997,
      "d": 331.93298333333223,
      "v": 102
    },
    {
      "midi": 70,
      "hit": false,
      "t": 34789.93799999999,
      "d": 491.5969499999992,
      "v": 106
    },
    {
      "midi": 40,
      "hit": false,
      "t": 34789.93800000005,
      "d": 126.05049999999756,
      "v": 100
    },
    {
      "midi": 40,
      "hit": false,
      "t": 34915.98850000005,
      "d": 126.05049999999756,
      "v": 93
    },
    {
      "midi": 42,
      "hit": false,
      "t": 35042.03900000002,
      "d": 126.05049999999756,
      "v": 104
    },
    {
      "midi": 40,
      "hit": false,
      "t": 35042.03900000005,
      "d": 126.05049999999756,
      "v": 102
    },
    {
      "midi": 40,
      "hit": false,
      "t": 35168.089500000046,
      "d": 126.05049999999756,
      "v": 94
    },
    {
      "midi": 41,
      "hit": false,
      "t": 35294.13999999997,
      "d": 331.93298333333223,
      "v": 115
    },
    {
      "midi": 69,
      "hit": false,
      "t": 35294.139999999985,
      "d": 882.3534999999974,
      "v": 104
    },
    {
      "midi": 40,
      "hit": false,
      "t": 35294.14000000004,
      "d": 126.05049999999756,
      "v": 109
    },
    {
      "midi": 77,
      "hit": false,
      "t": 35546.24100000001,
      "d": 147.0589166666614,
      "v": 94
    },
    {
      "midi": 42,
      "hit": false,
      "t": 35546.241000000016,
      "d": 126.05049999999756,
      "v": 116
    },
    {
      "midi": 40,
      "hit": false,
      "t": 35546.24100000004,
      "d": 126.05049999999756,
      "v": 109
    },
    {
      "midi": 78,
      "hit": false,
      "t": 35672.29150000001,
      "d": 147.0589166666614,
      "v": 73
    },
    {
      "midi": 36,
      "hit": false,
      "t": 35798.34199999997,
      "d": 331.93298333333223,
      "v": 106
    },
    {
      "midi": 79,
      "hit": false,
      "t": 35798.342000000004,
      "d": 147.0589166666614,
      "v": 99
    },
    {
      "midi": 40,
      "hit": false,
      "t": 35798.34200000003,
      "d": 126.05049999999756,
      "v": 100
    },
    {
      "midi": 81,
      "hit": false,
      "t": 35924.3925,
      "d": 147.0589166666614,
      "v": 73
    },
    {
      "midi": 40,
      "hit": false,
      "t": 35924.39250000003,
      "d": 126.05049999999756,
      "v": 95
    },
    {
      "midi": 82,
      "hit": false,
      "t": 36050.443,
      "d": 147.0589166666614,
      "v": 101
    },
    {
      "midi": 42,
      "hit": false,
      "t": 36050.443000000014,
      "d": 126.05049999999756,
      "v": 103
    },
    {
      "midi": 40,
      "hit": false,
      "t": 36050.44300000003,
      "d": 126.05049999999756,
      "v": 101
    },
    {
      "midi": 83,
      "hit": false,
      "t": 36176.4935,
      "d": 147.0589166666614,
      "v": 86
    },
    {
      "midi": 40,
      "hit": false,
      "t": 36176.493500000026,
      "d": 126.05049999999756,
      "v": 95
    },
    {
      "midi": 43,
      "hit": false,
      "t": 36302.543999999965,
      "d": 394.958233333331,
      "v": 114
    },
    {
      "midi": 84,
      "hit": false,
      "t": 36302.543999999994,
      "d": 126.05049999999756,
      "v": 90
    },
    {
      "midi": 69,
      "hit": false,
      "t": 36302.54400000001,
      "d": 71.42861666666431,
      "v": 127
    },
    {
      "midi": 40,
      "hit": false,
      "t": 36302.54400000002,
      "d": 126.05049999999756,
      "v": 108
    },
    {
      "midi": 69,
      "hit": false,
      "t": 36302.54400000003,
      "d": 71.42861666666431,
      "v": 127
    },
    {
      "midi": 72,
      "hit": false,
      "t": 36315.14905000001,
      "d": 71.42861666666431,
      "v": 127
    },
    {
      "midi": 72,
      "hit": false,
      "t": 36315.14905000003,
      "d": 71.42861666666431,
      "v": 127
    },
    {
      "midi": 86,
      "hit": false,
      "t": 36399.182716666655,
      "d": 126.05050000000483,
      "v": 79
    },
    {
      "midi": 84,
      "hit": false,
      "t": 36428.59449999999,
      "d": 126.05050000000483,
      "v": 96
    },
    {
      "midi": 86,
      "hit": false,
      "t": 36525.23321666666,
      "d": 126.05050000000483,
      "v": 80
    },
    {
      "midi": 72,
      "hit": false,
      "t": 36554.64499999998,
      "d": 504.2019999999975,
      "v": 112
    },
    {
      "midi": 84,
      "hit": false,
      "t": 36554.645,
      "d": 126.05050000000483,
      "v": 96
    },
    {
      "midi": 60,
      "hit": false,
      "t": 36554.645000000004,
      "d": 1331.9336166666326,
      "v": 105
    },
    {
      "midi": 42,
      "hit": false,
      "t": 36554.64500000001,
      "d": 126.05049999999756,
      "v": 115
    },
    {
      "midi": 40,
      "hit": false,
      "t": 36554.64500000002,
      "d": 126.05049999999756,
      "v": 108
    },
    {
      "midi": 86,
      "hit": false,
      "t": 36651.283716666665,
      "d": 126.05050000000483,
      "v": 84
    },
    {
      "midi": 84,
      "hit": false,
      "t": 36680.6955,
      "d": 126.05050000000483,
      "v": 101
    },
    {
      "midi": 86,
      "hit": false,
      "t": 36777.33421666667,
      "d": 126.05050000000483,
      "v": 82
    },
    {
      "midi": 38,
      "hit": false,
      "t": 36806.74599999996,
      "d": 344.53803333333053,
      "v": 103
    },
    {
      "midi": 84,
      "hit": false,
      "t": 36806.74600000001,
      "d": 126.05050000000483,
      "v": 95
    },
    {
      "midi": 40,
      "hit": false,
      "t": 36806.746000000014,
      "d": 126.05049999999756,
      "v": 100
    },
    {
      "midi": 86,
      "hit": false,
      "t": 36903.384716666675,
      "d": 126.05050000000483,
      "v": 80
    },
    {
      "midi": 40,
      "hit": false,
      "t": 36932.79650000001,
      "d": 126.05049999999756,
      "v": 93
    },
    {
      "midi": 84,
      "hit": false,
      "t": 36932.79650000001,
      "d": 126.05050000000483,
      "v": 99
    },
    {
      "midi": 86,
      "hit": false,
      "t": 37029.43521666668,
      "d": 126.05050000000483,
      "v": 85
    },
    {
      "midi": 70,
      "hit": false,
      "t": 37058.84699999998,
      "d": 273.1094166666662,
      "v": 97
    },
    {
      "midi": 40,
      "hit": false,
      "t": 37058.84700000001,
      "d": 126.05049999999756,
      "v": 102
    },
    {
      "midi": 42,
      "hit": false,
      "t": 37058.84700000001,
      "d": 126.05049999999756,
      "v": 104
    },
    {
      "midi": 84,
      "hit": false,
      "t": 37058.847000000016,
      "d": 126.05050000000483,
      "v": 98
    },
    {
      "midi": 86,
      "hit": false,
      "t": 37155.485716666684,
      "d": 126.05050000000483,
      "v": 83
    },
    {
      "midi": 40,
      "hit": false,
      "t": 37184.89750000001,
      "d": 126.05049999999756,
      "v": 94
    },
    {
      "midi": 84,
      "hit": false,
      "t": 37184.89750000002,
      "d": 126.05050000000483,
      "v": 93
    },
    {
      "midi": 86,
      "hit": false,
      "t": 37281.53621666669,
      "d": 126.05050000000483,
      "v": 81
    },
    {
      "midi": 43,
      "hit": false,
      "t": 37310.94799999996,
      "d": 394.958233333331,
      "v": 115
    },
    {
      "midi": 69,
      "hit": false,
      "t": 37310.94799999998,
      "d": 504.2019999999975,
      "v": 113
    },
    {
      "midi": 40,
      "hit": false,
      "t": 37310.948000000004,
      "d": 126.05049999999756,
      "v": 109
    },
    {
      "midi": 84,
      "hit": false,
      "t": 37310.948000000026,
      "d": 126.05050000000483,
      "v": 97
    },
    {
      "midi": 86,
      "hit": false,
      "t": 37407.586716666694,
      "d": 126.05050000000483,
      "v": 87
    },
    {
      "midi": 84,
      "hit": false,
      "t": 37436.99850000003,
      "d": 126.05050000000483,
      "v": 99
    },
    {
      "midi": 86,
      "hit": false,
      "t": 37533.6372166667,
      "d": 126.05050000000483,
      "v": 84
    },
    {
      "midi": 40,
      "hit": false,
      "t": 37563.049,
      "d": 126.05049999999756,
      "v": 109
    },
    {
      "midi": 42,
      "hit": false,
      "t": 37563.049000000006,
      "d": 126.05049999999756,
      "v": 115
    },
    {
      "midi": 84,
      "hit": false,
      "t": 37563.049000000035,
      "d": 126.05050000000483,
      "v": 99
    },
    {
      "midi": 86,
      "hit": false,
      "t": 37659.6877166667,
      "d": 126.05050000000483,
      "v": 86
    },
    {
      "midi": 84,
      "hit": false,
      "t": 37689.09950000004,
      "d": 126.05050000000483,
      "v": 99
    },
    {
      "midi": 86,
      "hit": false,
      "t": 37785.73821666671,
      "d": 126.05050000000483,
      "v": 86
    },
    {
      "midi": 36,
      "hit": false,
      "t": 37815.14999999996,
      "d": 336.134666666665,
      "v": 103
    },
    {
      "midi": 58,
      "hit": false,
      "t": 37815.14999999997,
      "d": 504.2019999999975,
      "v": 99
    },
    {
      "midi": 67,
      "hit": false,
      "t": 37815.14999999998,
      "d": 478.9919000000009,
      "v": 101
    },
    {
      "midi": 40,
      "hit": false,
      "t": 37815.149999999994,
      "d": 126.05049999999756,
      "v": 100
    },
    {
      "midi": 84,
      "hit": false,
      "t": 37815.150000000045,
      "d": 126.05050000000483,
      "v": 98
    },
    {
      "midi": 86,
      "hit": false,
      "t": 37911.78871666671,
      "d": 126.05050000000483,
      "v": 84
    },
    {
      "midi": 40,
      "hit": false,
      "t": 37941.20049999999,
      "d": 126.05049999999756,
      "v": 95
    },
    {
      "midi": 84,
      "hit": false,
      "t": 37941.20050000005,
      "d": 126.05050000000483,
      "v": 97
    },
    {
      "midi": 86,
      "hit": false,
      "t": 38037.83921666672,
      "d": 126.05050000000483,
      "v": 86
    },
    {
      "midi": 40,
      "hit": false,
      "t": 38067.25099999999,
      "d": 126.05049999999756,
      "v": 101
    },
    {
      "midi": 42,
      "hit": false,
      "t": 38067.251000000004,
      "d": 126.05049999999756,
      "v": 104
    },
    {
      "midi": 84,
      "hit": false,
      "t": 38067.251000000055,
      "d": 126.05050000000483,
      "v": 99
    },
    {
      "midi": 86,
      "hit": false,
      "t": 38163.88971666672,
      "d": 126.05050000000483,
      "v": 84
    },
    {
      "midi": 40,
      "hit": false,
      "t": 38193.30149999999,
      "d": 126.05049999999756,
      "v": 95
    },
    {
      "midi": 84,
      "hit": false,
      "t": 38193.30150000006,
      "d": 126.05050000000483,
      "v": 96
    },
    {
      "midi": 41,
      "hit": false,
      "t": 38319.351999999955,
      "d": 394.958233333331,
      "v": 114
    },
    {
      "midi": 57,
      "hit": false,
      "t": 38319.35199999997,
      "d": 478.9919000000009,
      "v": 93
    },
    {
      "midi": 69,
      "hit": false,
      "t": 38319.35199999998,
      "d": 71.42861666666431,
      "v": 119
    },
    {
      "midi": 40,
      "hit": false,
      "t": 38319.351999999984,
      "d": 126.05049999999756,
      "v": 110
    },
    {
      "midi": 65,
      "hit": false,
      "t": 38571.45299999997,
      "d": 1260.5049999999974,
      "v": 108
    },
    {
      "midi": 40,
      "hit": false,
      "t": 38571.45299999998,
      "d": 126.05049999999756,
      "v": 111
    },
    {
      "midi": 42,
      "hit": false,
      "t": 38571.453,
      "d": 126.05049999999756,
      "v": 114
    },
    {
      "midi": 36,
      "hit": false,
      "t": 38823.55399999995,
      "d": 369.7481333333344,
      "v": 102
    },
    {
      "midi": 72,
      "hit": false,
      "t": 38823.55399999997,
      "d": 176.47069999999803,
      "v": 118
    },
    {
      "midi": 40,
      "hit": false,
      "t": 38823.553999999975,
      "d": 126.05049999999756,
      "v": 102
    },
    {
      "midi": 74,
      "hit": false,
      "t": 38949.604499999965,
      "d": 197.47911666666187,
      "v": 91
    },
    {
      "midi": 40,
      "hit": false,
      "t": 38949.60449999997,
      "d": 126.05049999999756,
      "v": 96
    },
    {
      "midi": 75,
      "hit": false,
      "t": 39075.65499999996,
      "d": 168.0673333333325,
      "v": 120
    },
    {
      "midi": 40,
      "hit": false,
      "t": 39075.65499999997,
      "d": 126.05049999999756,
      "v": 103
    },
    {
      "midi": 42,
      "hit": false,
      "t": 39075.655,
      "d": 126.05049999999756,
      "v": 104
    },
    {
      "midi": 76,
      "hit": false,
      "t": 39201.70549999996,
      "d": 184.87406666667084,
      "v": 105
    },
    {
      "midi": 40,
      "hit": false,
      "t": 39201.70549999997,
      "d": 126.05049999999756,
      "v": 97
    },
    {
      "midi": 41,
      "hit": false,
      "t": 39327.75599999995,
      "d": 201.6808000000019,
      "v": 111
    },
    {
      "midi": 77,
      "hit": false,
      "t": 39327.755999999965,
      "d": 96.63871666666819,
      "v": 127
    },
    {
      "midi": 40,
      "hit": false,
      "t": 39327.755999999965,
      "d": 126.05049999999756,
      "v": 112
    },
    {
      "midi": 41,
      "hit": false,
      "t": 39831.957999999955,
      "d": 420.1683333333349,
      "v": 110
    },
    {
      "midi": 49,
      "hit": false,
      "t": 39831.95799999998,
      "d": 436.97506666666595,
      "v": 127
    },
    {
      "midi": 72,
      "hit": false,
      "t": 39831.958000000006,
      "d": 71.42861666666431,
      "v": 127
    },
    {
      "midi": 35,
      "hit": false,
      "t": 39831.958000000006,
      "d": 63.02524999999878,
      "v": 127
    },
    {
      "midi": 38,
      "hit": false,
      "t": 39831.958000000006,
      "d": 126.05049999999756,
      "v": 127
    },
    {
      "midi": 72,
      "hit": false,
      "t": 39831.95800000003,
      "d": 71.42861666666431,
      "v": 127
    },
    {
      "midi": 77,
      "hit": false,
      "t": 39840.361366666635,
      "d": 382.3531833333327,
      "v": 127
    },
    {
      "midi": 77,
      "hit": false,
      "t": 39844.563050000004,
      "d": 71.42861666666431,
      "v": 127
    },
    {
      "midi": 77,
      "hit": false,
      "t": 39844.563050000026,
      "d": 71.42861666666431,
      "v": 127
    },
    {
      "midi": 40,
      "hit": false,
      "t": 40336.15999999996,
      "d": 126.05049999999756,
      "v": 108
    },
    {
      "midi": 41,
      "hit": false,
      "t": 40336.15999999996,
      "d": 331.93298333333223,
      "v": 114
    },
    {
      "midi": 74,
      "hit": false,
      "t": 40336.159999999996,
      "d": 226.89089999999123,
      "v": 113
    },
    {
      "midi": 40,
      "hit": false,
      "t": 40588.260999999955,
      "d": 126.05049999999756,
      "v": 108
    },
    {
      "midi": 60,
      "hit": false,
      "t": 40588.26099999997,
      "d": 147.05891666666867,
      "v": 96
    },
    {
      "midi": 57,
      "hit": false,
      "t": 40588.26099999997,
      "d": 147.05891666666867,
      "v": 96
    },
    {
      "midi": 72,
      "hit": false,
      "t": 40588.260999999984,
      "d": 84.03366666666989,
      "v": 102
    },
    {
      "midi": 42,
      "hit": false,
      "t": 40588.261,
      "d": 126.05049999999756,
      "v": 112
    },
    {
      "midi": 40,
      "hit": false,
      "t": 40840.36199999995,
      "d": 126.05049999999756,
      "v": 100
    },
    {
      "midi": 36,
      "hit": false,
      "t": 40840.36199999996,
      "d": 331.93298333333223,
      "v": 101
    },
    {
      "midi": 77,
      "hit": false,
      "t": 40840.36199999999,
      "d": 378.15149999999994,
      "v": 122
    },
    {
      "midi": 40,
      "hit": false,
      "t": 40966.41249999995,
      "d": 126.05049999999756,
      "v": 93
    },
    {
      "midi": 40,
      "hit": false,
      "t": 41092.462999999945,
      "d": 126.05049999999756,
      "v": 102
    },
    {
      "midi": 57,
      "hit": false,
      "t": 41092.462999999974,
      "d": 147.05891666666867,
      "v": 96
    },
    {
      "midi": 60,
      "hit": false,
      "t": 41092.462999999974,
      "d": 147.05891666666867,
      "v": 96
    },
    {
      "midi": 42,
      "hit": false,
      "t": 41092.462999999996,
      "d": 126.05049999999756,
      "v": 103
    },
    {
      "midi": 40,
      "hit": false,
      "t": 41218.51349999994,
      "d": 126.05049999999756,
      "v": 94
    },
    {
      "midi": 40,
      "hit": false,
      "t": 41344.56399999994,
      "d": 126.05049999999756,
      "v": 109
    },
    {
      "midi": 41,
      "hit": false,
      "t": 41344.563999999955,
      "d": 331.93298333333223,
      "v": 112
    },
    {
      "midi": 74,
      "hit": false,
      "t": 41344.563999999984,
      "d": 239.49594999998953,
      "v": 116
    },
    {
      "midi": 40,
      "hit": false,
      "t": 41596.664999999935,
      "d": 126.05049999999756,
      "v": 109
    },
    {
      "midi": 72,
      "hit": false,
      "t": 41596.66499999997,
      "d": 84.03366666666989,
      "v": 102
    },
    {
      "midi": 57,
      "hit": false,
      "t": 41596.66499999998,
      "d": 147.05891666666867,
      "v": 96
    },
    {
      "midi": 60,
      "hit": false,
      "t": 41596.66499999998,
      "d": 147.05891666666867,
      "v": 96
    },
    {
      "midi": 42,
      "hit": false,
      "t": 41596.66499999999,
      "d": 126.05049999999756,
      "v": 114
    },
    {
      "midi": 40,
      "hit": false,
      "t": 41848.76599999993,
      "d": 126.05049999999756,
      "v": 100
    },
    {
      "midi": 36,
      "hit": false,
      "t": 41848.76599999995,
      "d": 331.93298333333223,
      "v": 102
    },
    {
      "midi": 77,
      "hit": false,
      "t": 41848.765999999974,
      "d": 378.15149999999994,
      "v": 122
    },
    {
      "midi": 40,
      "hit": false,
      "t": 41974.81649999993,
      "d": 126.05049999999756,
      "v": 95
    },
    {
      "midi": 40,
      "hit": false,
      "t": 42100.866999999926,
      "d": 126.05049999999756,
      "v": 101
    },
    {
      "midi": 57,
      "hit": false,
      "t": 42100.866999999984,
      "d": 147.05891666666867,
      "v": 96
    },
    {
      "midi": 60,
      "hit": false,
      "t": 42100.866999999984,
      "d": 147.05891666666867,
      "v": 96
    },
    {
      "midi": 42,
      "hit": false,
      "t": 42100.86699999999,
      "d": 126.05049999999756,
      "v": 103
    },
    {
      "midi": 40,
      "hit": false,
      "t": 42226.91749999992,
      "d": 126.05049999999756,
      "v": 95
    },
    {
      "midi": 40,
      "hit": false,
      "t": 42352.96799999992,
      "d": 126.05049999999756,
      "v": 108
    },
    {
      "midi": 41,
      "hit": false,
      "t": 42352.96799999995,
      "d": 331.93298333333223,
      "v": 113
    },
    {
      "midi": 74,
      "hit": false,
      "t": 42352.96799999997,
      "d": 214.28584999998566,
      "v": 117
    },
    {
      "midi": 40,
      "hit": false,
      "t": 42605.068999999916,
      "d": 126.05049999999756,
      "v": 108
    },
    {
      "midi": 72,
      "hit": false,
      "t": 42605.06899999996,
      "d": 79.83198333332984,
      "v": 101
    },
    {
      "midi": 57,
      "hit": false,
      "t": 42605.06899999999,
      "d": 147.05891666666867,
      "v": 96
    },
    {
      "midi": 60,
      "hit": false,
      "t": 42605.06899999999,
      "d": 147.05891666666867,
      "v": 96
    },
    {
      "midi": 42,
      "hit": false,
      "t": 42605.06899999999,
      "d": 126.05049999999756,
      "v": 116
    },
    {
      "midi": 40,
      "hit": false,
      "t": 42857.16999999991,
      "d": 126.05049999999756,
      "v": 100
    },
    {
      "midi": 36,
      "hit": false,
      "t": 42857.16999999995,
      "d": 331.93298333333223,
      "v": 102
    },
    {
      "midi": 77,
      "hit": false,
      "t": 42857.169999999955,
      "d": 92.43703333333542,
      "v": 122
    },
    {
      "midi": 40,
      "hit": false,
      "t": 42983.22049999991,
      "d": 126.05049999999756,
      "v": 93
    },
    {
      "midi": 40,
      "hit": false,
      "t": 43109.270999999906,
      "d": 126.05049999999756,
      "v": 102
    },
    {
      "midi": 79,
      "hit": false,
      "t": 43109.27099999996,
      "d": 92.43703333333542,
      "v": 115
    },
    {
      "midi": 42,
      "hit": false,
      "t": 43109.270999999986,
      "d": 126.05049999999756,
      "v": 104
    },
    {
      "midi": 57,
      "hit": false,
      "t": 43109.27099999999,
      "d": 147.05891666666867,
      "v": 96
    },
    {
      "midi": 60,
      "hit": false,
      "t": 43109.27099999999,
      "d": 147.05891666666867,
      "v": 96
    },
    {
      "midi": 40,
      "hit": false,
      "t": 43235.3214999999,
      "d": 126.05049999999756,
      "v": 94
    },
    {
      "midi": 40,
      "hit": false,
      "t": 43361.3719999999,
      "d": 126.05049999999756,
      "v": 109
    },
    {
      "midi": 41,
      "hit": false,
      "t": 43361.371999999945,
      "d": 331.93298333333223,
      "v": 113
    },
    {
      "midi": 81,
      "hit": false,
      "t": 43361.37199999996,
      "d": 882.3534999999974,
      "v": 127
    },
    {
      "midi": 40,
      "hit": false,
      "t": 43613.472999999896,
      "d": 126.05049999999756,
      "v": 109
    },
    {
      "midi": 42,
      "hit": false,
      "t": 43613.47299999998,
      "d": 126.05049999999756,
      "v": 113
    },
    {
      "midi": 65,
      "hit": false,
      "t": 43613.473,
      "d": 84.03366666666261,
      "v": 83
    },
    {
      "midi": 60,
      "hit": false,
      "t": 43613.473,
      "d": 147.05891666666867,
      "v": 96
    },
    {
      "midi": 57,
      "hit": false,
      "t": 43613.473,
      "d": 147.05891666666867,
      "v": 96
    },
    {
      "midi": 65,
      "hit": false,
      "t": 43613.47300000003,
      "d": 84.03366666666261,
      "v": 83
    },
    {
      "midi": 69,
      "hit": false,
      "t": 43626.07805,
      "d": 84.03366666666261,
      "v": 84
    },
    {
      "midi": 69,
      "hit": false,
      "t": 43626.078050000026,
      "d": 84.03366666666261,
      "v": 84
    },
    {
      "midi": 65,
      "hit": false,
      "t": 43739.523499999996,
      "d": 84.03366666666261,
      "v": 79
    },
    {
      "midi": 65,
      "hit": false,
      "t": 43739.523500000025,
      "d": 84.03366666666261,
      "v": 79
    },
    {
      "midi": 69,
      "hit": false,
      "t": 43752.128549999994,
      "d": 84.03366666666261,
      "v": 80
    },
    {
      "midi": 69,
      "hit": false,
      "t": 43752.12855000002,
      "d": 84.03366666666261,
      "v": 80
    },
    {
      "midi": 40,
      "hit": false,
      "t": 43865.57399999989,
      "d": 126.05049999999756,
      "v": 100
    },
    {
      "midi": 36,
      "hit": false,
      "t": 43865.57399999994,
      "d": 331.93298333333223,
      "v": 102
    },
    {
      "midi": 65,
      "hit": false,
      "t": 43865.57399999999,
      "d": 84.03366666666261,
      "v": 108
    },
    {
      "midi": 65,
      "hit": false,
      "t": 43865.57400000002,
      "d": 84.03366666666261,
      "v": 108
    },
    {
      "midi": 69,
      "hit": false,
      "t": 43878.17904999999,
      "d": 84.03366666666261,
      "v": 108
    },
    {
      "midi": 69,
      "hit": false,
      "t": 43878.17905000002,
      "d": 84.03366666666261,
      "v": 108
    },
    {
      "midi": 40,
      "hit": false,
      "t": 43991.62449999989,
      "d": 126.05049999999756,
      "v": 95
    },
    {
      "midi": 65,
      "hit": false,
      "t": 43991.62449999999,
      "d": 84.03366666666261,
      "v": 97
    },
    {
      "midi": 65,
      "hit": false,
      "t": 43991.62450000002,
      "d": 84.03366666666261,
      "v": 97
    },
    {
      "midi": 69,
      "hit": false,
      "t": 44004.22954999999,
      "d": 84.03366666666261,
      "v": 97
    },
    {
      "midi": 69,
      "hit": false,
      "t": 44004.22955000002,
      "d": 84.03366666666261,
      "v": 97
    },
    {
      "midi": 40,
      "hit": false,
      "t": 44117.67499999989,
      "d": 126.05049999999756,
      "v": 101
    },
    {
      "midi": 42,
      "hit": false,
      "t": 44117.67499999998,
      "d": 126.05049999999756,
      "v": 103
    },
    {
      "midi": 65,
      "hit": false,
      "t": 44117.67499999999,
      "d": 84.03366666666261,
      "v": 113
    },
    {
      "midi": 60,
      "hit": false,
      "t": 44117.675,
      "d": 147.05891666666867,
      "v": 96
    },
    {
      "midi": 57,
      "hit": false,
      "t": 44117.675,
      "d": 147.05891666666867,
      "v": 96
    },
    {
      "midi": 65,
      "hit": false,
      "t": 44117.67500000002,
      "d": 84.03366666666261,
      "v": 113
    },
    {
      "midi": 69,
      "hit": false,
      "t": 44130.28004999999,
      "d": 84.03366666666261,
      "v": 113
    },
    {
      "midi": 69,
      "hit": false,
      "t": 44130.280050000016,
      "d": 84.03366666666261,
      "v": 113
    },
    {
      "midi": 40,
      "hit": false,
      "t": 44243.725499999884,
      "d": 126.05049999999756,
      "v": 95
    },
    {
      "midi": 65,
      "hit": false,
      "t": 44243.725499999986,
      "d": 84.03366666666261,
      "v": 118
    },
    {
      "midi": 65,
      "hit": false,
      "t": 44243.725500000015,
      "d": 84.03366666666261,
      "v": 118
    },
    {
      "midi": 69,
      "hit": false,
      "t": 44256.330549999984,
      "d": 84.03366666666261,
      "v": 118
    },
    {
      "midi": 69,
      "hit": false,
      "t": 44256.33055000001,
      "d": 84.03366666666261,
      "v": 118
    },
    {
      "midi": 40,
      "hit": false,
      "t": 44369.77599999988,
      "d": 126.05049999999756,
      "v": 108
    },
    {
      "midi": 43,
      "hit": false,
      "t": 44369.77599999994,
      "d": 331.93298333333223,
      "v": 114
    },
    {
      "midi": 79,
      "hit": false,
      "t": 44369.775999999954,
      "d": 252.10099999998783,
      "v": 122
    },
    {
      "midi": 40,
      "hit": false,
      "t": 44621.87699999988,
      "d": 126.05049999999756,
      "v": 108
    },
    {
      "midi": 74,
      "hit": false,
      "t": 44621.87699999994,
      "d": 79.83198333332984,
      "v": 101
    },
    {
      "midi": 42,
      "hit": false,
      "t": 44621.87699999998,
      "d": 126.05049999999756,
      "v": 113
    },
    {
      "midi": 62,
      "hit": false,
      "t": 44621.87700000001,
      "d": 147.05891666666867,
      "v": 96
    },
    {
      "midi": 55,
      "hit": false,
      "t": 44621.87700000001,
      "d": 147.05891666666867,
      "v": 96
    },
    {
      "midi": 40,
      "hit": false,
      "t": 44873.97799999987,
      "d": 126.05049999999756,
      "v": 100
    },
    {
      "midi": 74,
      "hit": false,
      "t": 44873.97799999994,
      "d": 378.15149999999994,
      "v": 113
    },
    {
      "midi": 38,
      "hit": false,
      "t": 44873.97799999994,
      "d": 331.93298333333223,
      "v": 101
    },
    {
      "midi": 40,
      "hit": false,
      "t": 45000.02849999987,
      "d": 126.05049999999756,
      "v": 93
    },
    {
      "midi": 40,
      "hit": false,
      "t": 45126.07899999987,
      "d": 126.05049999999756,
      "v": 102
    },
    {
      "midi": 42,
      "hit": false,
      "t": 45126.078999999976,
      "d": 126.05049999999756,
      "v": 104
    },
    {
      "midi": 62,
      "hit": false,
      "t": 45126.07900000001,
      "d": 147.05891666666867,
      "v": 96
    },
    {
      "midi": 55,
      "hit": false,
      "t": 45126.07900000001,
      "d": 147.05891666666867,
      "v": 96
    },
    {
      "midi": 40,
      "hit": false,
      "t": 45252.129499999864,
      "d": 126.05049999999756,
      "v": 94
    },
    {
      "midi": 40,
      "hit": false,
      "t": 45378.17999999986,
      "d": 126.05049999999756,
      "v": 109
    },
    {
      "midi": 79,
      "hit": false,
      "t": 45378.179999999935,
      "d": 252.10099999998783,
      "v": 121
    },
    {
      "midi": 43,
      "hit": false,
      "t": 45378.179999999935,
      "d": 331.93298333333223,
      "v": 112
    },
    {
      "midi": 40,
      "hit": false,
      "t": 45630.28099999986,
      "d": 126.05049999999756,
      "v": 109
    },
    {
      "midi": 74,
      "hit": false,
      "t": 45630.28099999992,
      "d": 92.43703333333542,
      "v": 100
    },
    {
      "midi": 42,
      "hit": false,
      "t": 45630.28099999997,
      "d": 126.05049999999756,
      "v": 113
    },
    {
      "midi": 62,
      "hit": false,
      "t": 45630.28100000002,
      "d": 147.05891666666867,
      "v": 96
    },
    {
      "midi": 55,
      "hit": false,
      "t": 45630.28100000002,
      "d": 147.05891666666867,
      "v": 96
    },
    {
      "midi": 40,
      "hit": false,
      "t": 45882.38199999985,
      "d": 126.05049999999756,
      "v": 100
    },
    {
      "midi": 74,
      "hit": false,
      "t": 45882.381999999925,
      "d": 378.15149999999994,
      "v": 111
    },
    {
      "midi": 38,
      "hit": false,
      "t": 45882.38199999993,
      "d": 331.93298333333223,
      "v": 102
    },
    {
      "midi": 40,
      "hit": false,
      "t": 46008.43249999985,
      "d": 126.05049999999756,
      "v": 95
    },
    {
      "midi": 40,
      "hit": false,
      "t": 46134.48299999985,
      "d": 126.05049999999756,
      "v": 101
    },
    {
      "midi": 42,
      "hit": false,
      "t": 46134.48299999997,
      "d": 126.05049999999756,
      "v": 101
    },
    {
      "midi": 62,
      "hit": false,
      "t": 46134.48300000002,
      "d": 147.05891666666867,
      "v": 96
    },
    {
      "midi": 55,
      "hit": false,
      "t": 46134.48300000002,
      "d": 147.05891666666867,
      "v": 96
    },
    {
      "midi": 40,
      "hit": false,
      "t": 46260.533499999845,
      "d": 126.05049999999756,
      "v": 95
    },
    {
      "midi": 40,
      "hit": false,
      "t": 46386.58399999984,
      "d": 126.05049999999756,
      "v": 108
    },
    {
      "midi": 79,
      "hit": false,
      "t": 46386.58399999992,
      "d": 252.10099999998783,
      "v": 121
    },
    {
      "midi": 43,
      "hit": false,
      "t": 46386.58399999993,
      "d": 331.93298333333223,
      "v": 111
    },
    {
      "midi": 40,
      "hit": false,
      "t": 46638.68499999984,
      "d": 126.05049999999756,
      "v": 108
    },
    {
      "midi": 74,
      "hit": false,
      "t": 46638.68499999991,
      "d": 92.43703333333542,
      "v": 101
    },
    {
      "midi": 42,
      "hit": false,
      "t": 46638.68499999997,
      "d": 126.05049999999756,
      "v": 115
    },
    {
      "midi": 55,
      "hit": false,
      "t": 46638.68500000003,
      "d": 147.05891666666867,
      "v": 96
    },
    {
      "midi": 62,
      "hit": false,
      "t": 46638.68500000003,
      "d": 147.05891666666867,
      "v": 96
    },
    {
      "midi": 40,
      "hit": false,
      "t": 46890.78599999983,
      "d": 126.05049999999756,
      "v": 100
    },
    {
      "midi": 82,
      "hit": false,
      "t": 46890.78599999991,
      "d": 84.03366666666989,
      "v": 122
    },
    {
      "midi": 38,
      "hit": false,
      "t": 46890.78599999993,
      "d": 331.93298333333223,
      "v": 101
    },
    {
      "midi": 40,
      "hit": false,
      "t": 47016.83649999983,
      "d": 126.05049999999756,
      "v": 93
    },
    {
      "midi": 40,
      "hit": false,
      "t": 47142.88699999983,
      "d": 126.05049999999756,
      "v": 102
    },
    {
      "midi": 81,
      "hit": false,
      "t": 47142.886999999915,
      "d": 92.43703333333542,
      "v": 108
    },
    {
      "midi": 42,
      "hit": false,
      "t": 47142.886999999966,
      "d": 126.05049999999756,
      "v": 103
    },
    {
      "midi": 55,
      "hit": false,
      "t": 47142.88700000003,
      "d": 147.05891666666867,
      "v": 96
    },
    {
      "midi": 62,
      "hit": false,
      "t": 47142.88700000003,
      "d": 147.05891666666867,
      "v": 96
    },
    {
      "midi": 40,
      "hit": false,
      "t": 47268.937499999825,
      "d": 126.05049999999756,
      "v": 94
    },
    {
      "midi": 40,
      "hit": false,
      "t": 47394.98799999982,
      "d": 126.05049999999756,
      "v": 109
    },
    {
      "midi": 79,
      "hit": false,
      "t": 47394.98799999992,
      "d": 1008.4040000000023,
      "v": 117
    },
    {
      "midi": 43,
      "hit": false,
      "t": 47394.987999999925,
      "d": 331.93298333333223,
      "v": 112
    },
    {
      "midi": 40,
      "hit": false,
      "t": 47647.08899999982,
      "d": 126.05049999999756,
      "v": 109
    },
    {
      "midi": 42,
      "hit": false,
      "t": 47647.08899999996,
      "d": 126.05049999999756,
      "v": 111
    },
    {
      "midi": 69,
      "hit": false,
      "t": 47647.08899999998,
      "d": 84.03366666666261,
      "v": 118
    },
    {
      "midi": 69,
      "hit": false,
      "t": 47647.08900000001,
      "d": 84.03366666666261,
      "v": 118
    },
    {
      "midi": 55,
      "hit": false,
      "t": 47647.089000000036,
      "d": 147.05891666666867,
      "v": 96
    },
    {
      "midi": 62,
      "hit": false,
      "t": 47647.089000000036,
      "d": 147.05891666666867,
      "v": 96
    },
    {
      "midi": 72,
      "hit": false,
      "t": 47659.69404999998,
      "d": 79.83198333332984,
      "v": 118
    },
    {
      "midi": 72,
      "hit": false,
      "t": 47659.694050000006,
      "d": 79.83198333332984,
      "v": 118
    },
    {
      "midi": 40,
      "hit": false,
      "t": 47899.18999999981,
      "d": 126.05049999999756,
      "v": 100
    },
    {
      "midi": 36,
      "hit": false,
      "t": 47899.18999999992,
      "d": 331.93298333333223,
      "v": 103
    },
    {
      "midi": 40,
      "hit": false,
      "t": 48025.24049999981,
      "d": 126.05049999999756,
      "v": 95
    },
    {
      "midi": 40,
      "hit": false,
      "t": 48151.29099999981,
      "d": 126.05049999999756,
      "v": 101
    },
    {
      "midi": 42,
      "hit": false,
      "t": 48151.29099999996,
      "d": 126.05049999999756,
      "v": 102
    },
    {
      "midi": 69,
      "hit": false,
      "t": 48151.290999999976,
      "d": 214.2858500000002,
      "v": 108
    },
    {
      "midi": 69,
      "hit": false,
      "t": 48151.291000000005,
      "d": 214.2858500000002,
      "v": 108
    },
    {
      "midi": 62,
      "hit": false,
      "t": 48151.29100000004,
      "d": 147.05891666666867,
      "v": 96
    },
    {
      "midi": 55,
      "hit": false,
      "t": 48151.29100000004,
      "d": 147.05891666666867,
      "v": 96
    },
    {
      "midi": 72,
      "hit": false,
      "t": 48163.896049999974,
      "d": 214.2858500000002,
      "v": 108
    },
    {
      "midi": 72,
      "hit": false,
      "t": 48163.89605,
      "d": 214.2858500000002,
      "v": 108
    },
    {
      "midi": 40,
      "hit": false,
      "t": 48277.341499999806,
      "d": 126.05049999999756,
      "v": 95
    },
    {
      "midi": 40,
      "hit": false,
      "t": 48403.3919999998,
      "d": 126.05049999999756,
      "v": 108
    },
    {
      "midi": 41,
      "hit": false,
      "t": 48403.39199999992,
      "d": 331.93298333333223,
      "v": 114
    },
    {
      "midi": 69,
      "hit": false,
      "t": 48403.39199999997,
      "d": 71.42861666666431,
      "v": 118
    },
    {
      "midi": 69,
      "hit": false,
      "t": 48403.392,
      "d": 71.42861666666431,
      "v": 118
    },
    {
      "midi": 72,
      "hit": false,
      "t": 48415.99704999997,
      "d": 71.42861666666431,
      "v": 119
    },
    {
      "midi": 72,
      "hit": false,
      "t": 48415.99705,
      "d": 71.42861666666431,
      "v": 119
    },
    {
      "midi": 40,
      "hit": false,
      "t": 48655.4929999998,
      "d": 126.05049999999756,
      "v": 108
    },
    {
      "midi": 81,
      "hit": false,
      "t": 48655.49299999992,
      "d": 563.025566666649,
      "v": 117
    },
    {
      "midi": 42,
      "hit": false,
      "t": 48655.49299999996,
      "d": 126.05049999999756,
      "v": 112
    },
    {
      "midi": 60,
      "hit": false,
      "t": 48655.493000000046,
      "d": 147.05891666666867,
      "v": 96
    },
    {
      "midi": 57,
      "hit": false,
      "t": 48655.493000000046,
      "d": 147.05891666666867,
      "v": 96
    },
    {
      "midi": 40,
      "hit": false,
      "t": 48907.59399999979,
      "d": 126.05049999999756,
      "v": 100
    },
    {
      "midi": 36,
      "hit": false,
      "t": 48907.59399999992,
      "d": 331.93298333333223,
      "v": 101
    },
    {
      "midi": 40,
      "hit": false,
      "t": 49033.64449999979,
      "d": 126.05049999999756,
      "v": 93
    },
    {
      "midi": 40,
      "hit": false,
      "t": 49159.69499999979,
      "d": 126.05049999999756,
      "v": 102
    },
    {
      "midi": 82,
      "hit": false,
      "t": 49159.694999999905,
      "d": 252.1010000000024,
      "v": 101
    },
    {
      "midi": 42,
      "hit": false,
      "t": 49159.694999999956,
      "d": 126.05049999999756,
      "v": 103
    },
    {
      "midi": 57,
      "hit": false,
      "t": 49159.69500000005,
      "d": 147.05891666666867,
      "v": 96
    },
    {
      "midi": 60,
      "hit": false,
      "t": 49159.69500000005,
      "d": 147.05891666666867,
      "v": 96
    },
    {
      "midi": 40,
      "hit": false,
      "t": 49285.745499999786,
      "d": 126.05049999999756,
      "v": 94
    },
    {
      "midi": 40,
      "hit": false,
      "t": 49411.795999999784,
      "d": 126.05049999999756,
      "v": 109
    },
    {
      "midi": 84,
      "hit": false,
      "t": 49411.79599999991,
      "d": 504.2019999999975,
      "v": 119
    },
    {
      "midi": 41,
      "hit": false,
      "t": 49411.795999999915,
      "d": 331.93298333333223,
      "v": 113
    },
    {
      "midi": 40,
      "hit": false,
      "t": 49663.89699999978,
      "d": 126.05049999999756,
      "v": 109
    },
    {
      "midi": 42,
      "hit": false,
      "t": 49663.89699999995,
      "d": 126.05049999999756,
      "v": 111
    },
    {
      "midi": 57,
      "hit": false,
      "t": 49663.897000000055,
      "d": 147.05891666666867,
      "v": 96
    },
    {
      "midi": 60,
      "hit": false,
      "t": 49663.897000000055,
      "d": 147.05891666666867,
      "v": 96
    },
    {
      "midi": 40,
      "hit": false,
      "t": 49915.997999999774,
      "d": 126.05049999999756,
      "v": 100
    },
    {
      "midi": 81,
      "hit": false,
      "t": 49915.997999999905,
      "d": 563.0255666666635,
      "v": 104
    },
    {
      "midi": 36,
      "hit": false,
      "t": 49915.99799999991,
      "d": 331.93298333333223,
      "v": 102
    },
    {
      "midi": 40,
      "hit": false,
      "t": 50042.04849999977,
      "d": 126.05049999999756,
      "v": 95
    },
    {
      "midi": 40,
      "hit": false,
      "t": 50168.09899999977,
      "d": 126.05049999999756,
      "v": 101
    },
    {
      "midi": 42,
      "hit": false,
      "t": 50168.09899999995,
      "d": 126.05049999999756,
      "v": 103
    },
    {
      "midi": 57,
      "hit": false,
      "t": 50168.09900000006,
      "d": 147.05891666666867,
      "v": 96
    },
    {
      "midi": 60,
      "hit": false,
      "t": 50168.09900000006,
      "d": 147.05891666666867,
      "v": 96
    },
    {
      "midi": 40,
      "hit": false,
      "t": 50294.14949999977,
      "d": 126.05049999999756,
      "v": 95
    },
    {
      "midi": 40,
      "hit": false,
      "t": 50420.199999999764,
      "d": 126.05049999999756,
      "v": 108
    },
    {
      "midi": 77,
      "hit": false,
      "t": 50420.1999999999,
      "d": 504.2019999999975,
      "v": 115
    },
    {
      "midi": 41,
      "hit": false,
      "t": 50420.19999999991,
      "d": 331.93298333333223,
      "v": 112
    },
    {
      "midi": 40,
      "hit": false,
      "t": 50672.30099999976,
      "d": 126.05049999999756,
      "v": 108
    },
    {
      "midi": 42,
      "hit": false,
      "t": 50672.30099999995,
      "d": 126.05049999999756,
      "v": 114
    },
    {
      "midi": 62,
      "hit": false,
      "t": 50672.301000000065,
      "d": 147.05891666666867,
      "v": 96
    },
    {
      "midi": 57,
      "hit": false,
      "t": 50672.301000000065,
      "d": 147.05891666666867,
      "v": 96
    },
    {
      "midi": 40,
      "hit": false,
      "t": 50924.401999999754,
      "d": 126.05049999999756,
      "v": 100
    },
    {
      "midi": 86,
      "hit": false,
      "t": 50924.4019999999,
      "d": 504.2019999999684,
      "v": 117
    },
    {
      "midi": 34,
      "hit": false,
      "t": 50924.40199999991,
      "d": 331.93298333333223,
      "v": 101
    },
    {
      "midi": 40,
      "hit": false,
      "t": 51050.45249999975,
      "d": 126.05049999999756,
      "v": 93
    },
    {
      "midi": 40,
      "hit": false,
      "t": 51176.50299999975,
      "d": 126.05049999999756,
      "v": 102
    },
    {
      "midi": 42,
      "hit": false,
      "t": 51176.502999999946,
      "d": 126.05049999999756,
      "v": 102
    },
    {
      "midi": 57,
      "hit": false,
      "t": 51176.50300000007,
      "d": 147.05891666666867,
      "v": 96
    },
    {
      "midi": 62,
      "hit": false,
      "t": 51176.50300000007,
      "d": 147.05891666666867,
      "v": 96
    },
    {
      "midi": 40,
      "hit": false,
      "t": 51302.55349999975,
      "d": 126.05049999999756,
      "v": 94
    },
    {
      "midi": 40,
      "hit": false,
      "t": 51428.603999999745,
      "d": 126.05049999999756,
      "v": 109
    },
    {
      "midi": 84,
      "hit": false,
      "t": 51428.60399999987,
      "d": 882.3534999999683,
      "v": 118
    },
    {
      "midi": 41,
      "hit": false,
      "t": 51428.603999999905,
      "d": 331.93298333333223,
      "v": 111
    },
    {
      "midi": 40,
      "hit": false,
      "t": 51680.70499999974,
      "d": 126.05049999999756,
      "v": 109
    },
    {
      "midi": 42,
      "hit": false,
      "t": 51680.70499999994,
      "d": 126.05049999999756,
      "v": 113
    },
    {
      "midi": 69,
      "hit": false,
      "t": 51680.704999999965,
      "d": 100.84040000000095,
      "v": 74
    },
    {
      "midi": 69,
      "hit": false,
      "t": 51680.704999999994,
      "d": 100.84040000000095,
      "v": 74
    },
    {
      "midi": 60,
      "hit": false,
      "t": 51680.705000000075,
      "d": 147.05891666666867,
      "v": 96
    },
    {
      "midi": 57,
      "hit": false,
      "t": 51680.705000000075,
      "d": 147.05891666666867,
      "v": 96
    },
    {
      "midi": 72,
      "hit": false,
      "t": 51693.310049999964,
      "d": 100.84040000000095,
      "v": 74
    },
    {
      "midi": 72,
      "hit": false,
      "t": 51693.31004999999,
      "d": 100.84040000000095,
      "v": 74
    },
    {
      "midi": 69,
      "hit": false,
      "t": 51806.75549999996,
      "d": 75.63029999999708,
      "v": 84
    },
    {
      "midi": 69,
      "hit": false,
      "t": 51806.75549999999,
      "d": 75.63029999999708,
      "v": 84
    },
    {
      "midi": 72,
      "hit": false,
      "t": 51819.36054999996,
      "d": 75.63029999999708,
      "v": 86
    },
    {
      "midi": 72,
      "hit": false,
      "t": 51819.36054999999,
      "d": 75.63029999999708,
      "v": 86
    },
    {
      "midi": 40,
      "hit": false,
      "t": 51932.805999999735,
      "d": 126.05049999999756,
      "v": 100
    },
    {
      "midi": 36,
      "hit": false,
      "t": 51932.8059999999,
      "d": 331.93298333333223,
      "v": 100
    },
    {
      "midi": 69,
      "hit": false,
      "t": 51932.80599999996,
      "d": 58.82356666666601,
      "v": 103
    },
    {
      "midi": 69,
      "hit": false,
      "t": 51932.80599999999,
      "d": 58.82356666666601,
      "v": 103
    },
    {
      "midi": 72,
      "hit": false,
      "t": 51945.41104999996,
      "d": 71.42861666666431,
      "v": 103
    },
    {
      "midi": 72,
      "hit": false,
      "t": 51945.41104999999,
      "d": 71.42861666666431,
      "v": 103
    },
    {
      "midi": 40,
      "hit": false,
      "t": 52058.85649999973,
      "d": 126.05049999999756,
      "v": 95
    },
    {
      "midi": 40,
      "hit": false,
      "t": 52184.90699999973,
      "d": 126.05049999999756,
      "v": 101
    },
    {
      "midi": 42,
      "hit": false,
      "t": 52184.90699999994,
      "d": 126.05049999999756,
      "v": 101
    },
    {
      "midi": 69,
      "hit": false,
      "t": 52184.906999999956,
      "d": 71.42861666666431,
      "v": 117
    },
    {
      "midi": 69,
      "hit": false,
      "t": 52184.906999999985,
      "d": 71.42861666666431,
      "v": 117
    },
    {
      "midi": 60,
      "hit": false,
      "t": 52184.90700000008,
      "d": 147.05891666666867,
      "v": 96
    },
    {
      "midi": 57,
      "hit": false,
      "t": 52184.90700000008,
      "d": 147.05891666666867,
      "v": 96
    },
    {
      "midi": 72,
      "hit": false,
      "t": 52197.512049999954,
      "d": 58.82356666666601,
      "v": 117
    },
    {
      "midi": 72,
      "hit": false,
      "t": 52197.51204999998,
      "d": 58.82356666666601,
      "v": 117
    },
    {
      "midi": 40,
      "hit": false,
      "t": 52310.95749999973,
      "d": 126.05049999999756,
      "v": 95
    },
    {
      "midi": 40,
      "hit": false,
      "t": 52437.007999999725,
      "d": 126.05049999999756,
      "v": 108
    },
    {
      "midi": 38,
      "hit": false,
      "t": 52437.0079999999,
      "d": 331.93298333333223,
      "v": 113
    },
    {
      "midi": 40,
      "hit": false,
      "t": 52689.10899999972,
      "d": 126.05049999999756,
      "v": 108
    },
    {
      "midi": 81,
      "hit": false,
      "t": 52689.10899999984,
      "d": 504.2019999999902,
      "v": 122
    },
    {
      "midi": 42,
      "hit": false,
      "t": 52689.10899999994,
      "d": 126.05049999999756,
      "v": 115
    },
    {
      "midi": 62,
      "hit": false,
      "t": 52689.109000000084,
      "d": 126.05049999999756,
      "v": 97
    },
    {
      "midi": 57,
      "hit": false,
      "t": 52689.109000000084,
      "d": 126.05049999999756,
      "v": 97
    },
    {
      "midi": 40,
      "hit": false,
      "t": 52941.209999999715,
      "d": 126.05049999999756,
      "v": 100
    },
    {
      "midi": 33,
      "hit": false,
      "t": 52941.2099999999,
      "d": 331.93298333333223,
      "v": 101
    },
    {
      "midi": 40,
      "hit": false,
      "t": 53067.26049999971,
      "d": 126.05049999999756,
      "v": 93
    },
    {
      "midi": 40,
      "hit": false,
      "t": 53193.31099999971,
      "d": 126.05049999999756,
      "v": 102
    },
    {
      "midi": 79,
      "hit": false,
      "t": 53193.31099999983,
      "d": 176.47069999999803,
      "v": 104
    },
    {
      "midi": 42,
      "hit": false,
      "t": 53193.310999999936,
      "d": 126.05049999999756,
      "v": 103
    },
    {
      "midi": 62,
      "hit": false,
      "t": 53193.31100000008,
      "d": 126.05049999999756,
      "v": 96
    },
    {
      "midi": 57,
      "hit": false,
      "t": 53193.31100000008,
      "d": 126.05049999999756,
      "v": 96
    },
    {
      "midi": 40,
      "hit": false,
      "t": 53319.36149999971,
      "d": 126.05049999999756,
      "v": 94
    },
    {
      "midi": 40,
      "hit": false,
      "t": 53445.411999999706,
      "d": 126.05049999999756,
      "v": 109
    },
    {
      "midi": 81,
      "hit": false,
      "t": 53445.41199999982,
      "d": 252.10099999998783,
      "v": 121
    },
    {
      "midi": 38,
      "hit": false,
      "t": 53445.411999999895,
      "d": 331.93298333333223,
      "v": 111
    },
    {
      "midi": 40,
      "hit": false,
      "t": 53697.5129999997,
      "d": 126.05049999999756,
      "v": 109
    },
    {
      "midi": 79,
      "hit": false,
      "t": 53697.51299999981,
      "d": 79.83198333332984,
      "v": 113
    },
    {
      "midi": 42,
      "hit": false,
      "t": 53697.51299999993,
      "d": 126.05049999999756,
      "v": 113
    },
    {
      "midi": 62,
      "hit": false,
      "t": 53697.51300000008,
      "d": 126.05049999999756,
      "v": 94
    },
    {
      "midi": 57,
      "hit": false,
      "t": 53697.51300000008,
      "d": 126.05049999999756,
      "v": 94
    },
    {
      "midi": 40,
      "hit": false,
      "t": 53949.613999999696,
      "d": 126.05049999999756,
      "v": 100
    },
    {
      "midi": 77,
      "hit": false,
      "t": 53949.613999999805,
      "d": 84.03366666666989,
      "v": 104
    },
    {
      "midi": 33,
      "hit": false,
      "t": 53949.61399999989,
      "d": 331.93298333333223,
      "v": 102
    },
    {
      "midi": 40,
      "hit": false,
      "t": 54075.66449999969,
      "d": 126.05049999999756,
      "v": 95
    },
    {
      "midi": 40,
      "hit": false,
      "t": 54201.71499999969,
      "d": 126.05049999999756,
      "v": 101
    },
    {
      "midi": 79,
      "hit": false,
      "t": 54201.71499999981,
      "d": 79.83198333332984,
      "v": 122
    },
    {
      "midi": 42,
      "hit": false,
      "t": 54201.71499999993,
      "d": 126.05049999999756,
      "v": 103
    },
    {
      "midi": 62,
      "hit": false,
      "t": 54201.71500000008,
      "d": 126.05049999999756,
      "v": 94
    },
    {
      "midi": 57,
      "hit": false,
      "t": 54201.71500000008,
      "d": 126.05049999999756,
      "v": 94
    },
    {
      "midi": 40,
      "hit": false,
      "t": 54327.76549999969,
      "d": 126.05049999999756,
      "v": 95
    },
    {
      "midi": 40,
      "hit": false,
      "t": 54453.815999999686,
      "d": 126.05049999999756,
      "v": 111
    },
    {
      "midi": 81,
      "hit": false,
      "t": 54453.8159999998,
      "d": 1386.5555000000022,
      "v": 127
    },
    {
      "midi": 40,
      "hit": false,
      "t": 54453.81599999989,
      "d": 331.93298333333223,
      "v": 111
    },
    {
      "midi": 40,
      "hit": false,
      "t": 54705.91699999968,
      "d": 126.05049999999756,
      "v": 111
    },
    {
      "midi": 42,
      "hit": false,
      "t": 54705.91699999993,
      "d": 126.05049999999756,
      "v": 112
    },
    {
      "midi": 57,
      "hit": false,
      "t": 54705.917,
      "d": 79.83198333332984,
      "v": 127
    },
    {
      "midi": 53,
      "hit": false,
      "t": 54705.917,
      "d": 79.83198333332984,
      "v": 127
    },
    {
      "midi": 57,
      "hit": false,
      "t": 54705.917000000074,
      "d": 126.05049999999756,
      "v": 88
    },
    {
      "midi": 61,
      "hit": false,
      "t": 54705.917000000074,
      "d": 126.05049999999756,
      "v": 88
    },
    {
      "midi": 40,
      "hit": false,
      "t": 54958.017999999676,
      "d": 126.05049999999756,
      "v": 103
    },
    {
      "midi": 33,
      "hit": false,
      "t": 54958.01799999989,
      "d": 331.93298333333223,
      "v": 101
    },
    {
      "midi": 55,
      "hit": false,
      "t": 54958.018,
      "d": 79.83198333332984,
      "v": 127
    },
    {
      "midi": 52,
      "hit": false,
      "t": 54958.018,
      "d": 79.83198333332984,
      "v": 127
    },
    {
      "midi": 40,
      "hit": false,
      "t": 55084.068499999674,
      "d": 126.05049999999756,
      "v": 96
    },
    {
      "midi": 40,
      "hit": false,
      "t": 55210.11899999967,
      "d": 126.05049999999756,
      "v": 104
    },
    {
      "midi": 42,
      "hit": false,
      "t": 55210.118999999926,
      "d": 126.05049999999756,
      "v": 102
    },
    {
      "midi": 50,
      "hit": false,
      "t": 55210.11899999999,
      "d": 79.83198333332984,
      "v": 127
    },
    {
      "midi": 53,
      "hit": false,
      "t": 55210.11899999999,
      "d": 79.83198333332984,
      "v": 127
    },
    {
      "midi": 40,
      "hit": false,
      "t": 55336.16949999967,
      "d": 126.05049999999756,
      "v": 96
    },
    {
      "midi": 40,
      "hit": false,
      "t": 55462.21999999967,
      "d": 126.05049999999756,
      "v": 113
    },
    {
      "midi": 40,
      "hit": false,
      "t": 55462.219999999885,
      "d": 168.0673333333325,
      "v": 112
    },
    {
      "midi": 52,
      "hit": false,
      "t": 55462.21999999999,
      "d": 79.83198333332984,
      "v": 123
    },
    {
      "midi": 48,
      "hit": false,
      "t": 55462.21999999999,
      "d": 79.83198333332984,
      "v": 123
    },
    {
      "midi": 33,
      "hit": false,
      "t": 55966.42199999988,
      "d": 378.15149999999994,
      "v": 113
    },
    {
      "midi": 49,
      "hit": false,
      "t": 55966.42199999998,
      "d": 378.15149999999994,
      "v": 127
    },
    {
      "midi": 35,
      "hit": false,
      "t": 55966.422000000006,
      "d": 63.02524999999878,
      "v": 127
    },
    {
      "midi": 38,
      "hit": false,
      "t": 55966.422000000006,
      "d": 126.05049999999756,
      "v": 127
    },
    {
      "midi": 33,
      "hit": false,
      "t": 55966.42200000002,
      "d": 428.5717000000004,
      "v": 97
    },
    {
      "midi": 81,
      "hit": false,
      "t": 55966.422000000064,
      "d": 126.05049999999756,
      "v": 91
    },
    {
      "midi": 69,
      "hit": false,
      "t": 55966.42200000007,
      "d": 436.97506666666595,
      "v": 107
    },
    {
      "midi": 81,
      "hit": false,
      "t": 56092.47250000006,
      "d": 126.05049999999756,
      "v": 94
    },
    {
      "midi": 82,
      "hit": false,
      "t": 56155.49775000006,
      "d": 8.403366666665534,
      "v": 91
    },
    {
      "midi": 81,
      "hit": false,
      "t": 56218.52300000006,
      "d": 126.05049999999756,
      "v": 97
    },
    {
      "midi": 82,
      "hit": false,
      "t": 56273.14488333339,
      "d": 8.403366666665534,
      "v": 97
    },
    {
      "midi": 81,
      "hit": false,
      "t": 56344.57350000006,
      "d": 126.05049999999756,
      "v": 99
    },
    {
      "midi": 82,
      "hit": false,
      "t": 56394.99370000006,
      "d": 4.201683333332767,
      "v": 95
    },
    {
      "midi": 40,
      "hit": false,
      "t": 56470.62399999966,
      "d": 126.05049999999756,
      "v": 120
    },
    {
      "midi": 38,
      "hit": false,
      "t": 56470.62399999988,
      "d": 126.05049999999756,
      "v": 119
    },
    {
      "midi": 74,
      "hit": false,
      "t": 56470.62399999995,
      "d": 71.42861666666431,
      "v": 115
    },
    {
      "midi": 62,
      "hit": false,
      "t": 56470.62399999995,
      "d": 71.42861666666431,
      "v": 115
    },
    {
      "midi": 49,
      "hit": false,
      "t": 56470.623999999974,
      "d": 756.3029999999999,
      "v": 127
    },
    {
      "midi": 74,
      "hit": false,
      "t": 56470.62399999998,
      "d": 71.42861666666431,
      "v": 115
    },
    {
      "midi": 62,
      "hit": false,
      "t": 56470.62399999998,
      "d": 71.42861666666431,
      "v": 115
    },
    {
      "midi": 50,
      "hit": false,
      "t": 56470.62399999999,
      "d": 92.43703333333542,
      "v": 108
    },
    {
      "midi": 62,
      "hit": false,
      "t": 56470.62399999999,
      "d": 92.43703333333542,
      "v": 108
    },
    {
      "midi": 38,
      "hit": false,
      "t": 56470.624,
      "d": 126.05049999999756,
      "v": 100
    },
    {
      "midi": 38,
      "hit": false,
      "t": 56470.62400000002,
      "d": 126.05049999999756,
      "v": 97
    },
    {
      "midi": 86,
      "hit": false,
      "t": 56470.624000000054,
      "d": 126.05050000000483,
      "v": 111
    },
    {
      "midi": 74,
      "hit": false,
      "t": 56470.62400000007,
      "d": 126.05049999999756,
      "v": 111
    },
    {
      "midi": 40,
      "hit": false,
      "t": 56722.72499999966,
      "d": 126.05049999999756,
      "v": 120
    },
    {
      "midi": 36,
      "hit": false,
      "t": 56722.724999999875,
      "d": 126.05049999999756,
      "v": 110
    },
    {
      "midi": 72,
      "hit": false,
      "t": 56722.72499999995,
      "d": 71.42861666666431,
      "v": 111
    },
    {
      "midi": 60,
      "hit": false,
      "t": 56722.72499999995,
      "d": 71.42861666666431,
      "v": 111
    },
    {
      "midi": 72,
      "hit": false,
      "t": 56722.72499999998,
      "d": 71.42861666666431,
      "v": 111
    },
    {
      "midi": 60,
      "hit": false,
      "t": 56722.72499999998,
      "d": 71.42861666666431,
      "v": 111
    },
    {
      "midi": 48,
      "hit": false,
      "t": 56722.72499999999,
      "d": 92.43703333333542,
      "v": 122
    },
    {
      "midi": 60,
      "hit": false,
      "t": 56722.72499999999,
      "d": 92.43703333333542,
      "v": 122
    },
    {
      "midi": 38,
      "hit": false,
      "t": 56722.725,
      "d": 126.05049999999756,
      "v": 100
    },
    {
      "midi": 36,
      "hit": false,
      "t": 56722.72500000001,
      "d": 126.05049999999756,
      "v": 87
    },
    {
      "midi": 84,
      "hit": false,
      "t": 56722.72500000006,
      "d": 126.05049999999756,
      "v": 104
    },
    {
      "midi": 72,
      "hit": false,
      "t": 56722.725000000064,
      "d": 126.05049999999756,
      "v": 105
    },
    {
      "midi": 40,
      "hit": false,
      "t": 56974.82599999965,
      "d": 126.05049999999756,
      "v": 121
    },
    {
      "midi": 38,
      "hit": false,
      "t": 56974.82599999987,
      "d": 378.15149999999994,
      "v": 119
    },
    {
      "midi": 57,
      "hit": false,
      "t": 56974.82599999994,
      "d": 420.1683333333349,
      "v": 108
    },
    {
      "midi": 69,
      "hit": false,
      "t": 56974.82599999994,
      "d": 420.1683333333349,
      "v": 108
    },
    {
      "midi": 57,
      "hit": false,
      "t": 56974.82599999997,
      "d": 420.1683333333349,
      "v": 108
    },
    {
      "midi": 69,
      "hit": false,
      "t": 56974.82599999997,
      "d": 420.1683333333349,
      "v": 108
    },
    {
      "midi": 45,
      "hit": false,
      "t": 56974.825999999994,
      "d": 323.5296166666667,
      "v": 127
    },
    {
      "midi": 57,
      "hit": false,
      "t": 56974.825999999994,
      "d": 336.134666666665,
      "v": 127
    },
    {
      "midi": 38,
      "hit": false,
      "t": 56974.825999999994,
      "d": 126.05049999999756,
      "v": 100
    },
    {
      "midi": 38,
      "hit": false,
      "t": 56974.82600000001,
      "d": 252.1010000000024,
      "v": 98
    },
    {
      "midi": 81,
      "hit": false,
      "t": 56974.82600000005,
      "d": 252.1010000000024,
      "v": 99
    },
    {
      "midi": 69,
      "hit": false,
      "t": 56974.82600000006,
      "d": 247.89931666666962,
      "v": 100
    },
    {
      "midi": 40,
      "hit": false,
      "t": 57479.02799999965,
      "d": 126.05049999999756,
      "v": 121
    },
    {
      "midi": 38,
      "hit": false,
      "t": 57479.02799999987,
      "d": 126.05049999999756,
      "v": 119
    },
    {
      "midi": 62,
      "hit": false,
      "t": 57479.02799999995,
      "d": 58.82356666666601,
      "v": 118
    },
    {
      "midi": 74,
      "hit": false,
      "t": 57479.02799999995,
      "d": 58.82356666666601,
      "v": 118
    },
    {
      "midi": 62,
      "hit": false,
      "t": 57479.02799999998,
      "d": 58.82356666666601,
      "v": 118
    },
    {
      "midi": 74,
      "hit": false,
      "t": 57479.02799999998,
      "d": 58.82356666666601,
      "v": 118
    },
    {
      "midi": 49,
      "hit": false,
      "t": 57479.02799999998,
      "d": 1134.4544999999998,
      "v": 116
    },
    {
      "midi": 50,
      "hit": false,
      "t": 57479.02799999999,
      "d": 92.43703333333542,
      "v": 122
    },
    {
      "midi": 62,
      "hit": false,
      "t": 57479.02799999999,
      "d": 92.43703333333542,
      "v": 122
    },
    {
      "midi": 38,
      "hit": false,
      "t": 57479.02799999999,
      "d": 126.05049999999756,
      "v": 100
    },
    {
      "midi": 38,
      "hit": false,
      "t": 57479.02800000001,
      "d": 126.05049999999756,
      "v": 98
    },
    {
      "midi": 86,
      "hit": false,
      "t": 57479.02800000006,
      "d": 126.05049999999756,
      "v": 110
    },
    {
      "midi": 74,
      "hit": false,
      "t": 57479.028000000064,
      "d": 126.05049999999756,
      "v": 111
    },
    {
      "midi": 40,
      "hit": false,
      "t": 57731.128999999644,
      "d": 126.05049999999756,
      "v": 121
    },
    {
      "midi": 36,
      "hit": false,
      "t": 57731.12899999986,
      "d": 126.05049999999756,
      "v": 109
    },
    {
      "midi": 72,
      "hit": false,
      "t": 57731.12899999995,
      "d": 33.61346666666941,
      "v": 112
    },
    {
      "midi": 60,
      "hit": false,
      "t": 57731.12899999995,
      "d": 33.61346666666941,
      "v": 112
    },
    {
      "midi": 72,
      "hit": false,
      "t": 57731.12899999998,
      "d": 33.61346666666941,
      "v": 112
    },
    {
      "midi": 60,
      "hit": false,
      "t": 57731.12899999998,
      "d": 33.61346666666941,
      "v": 112
    },
    {
      "midi": 38,
      "hit": false,
      "t": 57731.128999999986,
      "d": 126.05049999999756,
      "v": 100
    },
    {
      "midi": 48,
      "hit": false,
      "t": 57731.12899999999,
      "d": 92.43703333333542,
      "v": 127
    },
    {
      "midi": 60,
      "hit": false,
      "t": 57731.12899999999,
      "d": 92.43703333333542,
      "v": 127
    },
    {
      "midi": 36,
      "hit": false,
      "t": 57731.12900000001,
      "d": 126.05049999999756,
      "v": 89
    },
    {
      "midi": 84,
      "hit": false,
      "t": 57731.12900000005,
      "d": 126.05049999999756,
      "v": 107
    },
    {
      "midi": 72,
      "hit": false,
      "t": 57731.12900000006,
      "d": 126.05049999999756,
      "v": 106
    },
    {
      "midi": 40,
      "hit": false,
      "t": 57983.22999999964,
      "d": 126.05049999999756,
      "v": 120
    },
    {
      "midi": 38,
      "hit": false,
      "t": 57983.22999999986,
      "d": 378.15149999999994,
      "v": 119
    },
    {
      "midi": 57,
      "hit": false,
      "t": 57983.22999999995,
      "d": 441.1767499999987,
      "v": 108
    },
    {
      "midi": 69,
      "hit": false,
      "t": 57983.22999999995,
      "d": 441.1767499999987,
      "v": 108
    },
    {
      "midi": 57,
      "hit": false,
      "t": 57983.22999999998,
      "d": 441.1767499999987,
      "v": 108
    },
    {
      "midi": 69,
      "hit": false,
      "t": 57983.22999999998,
      "d": 441.1767499999987,
      "v": 108
    },
    {
      "midi": 38,
      "hit": false,
      "t": 57983.22999999998,
      "d": 126.05049999999756,
      "v": 100
    },
    {
      "midi": 57,
      "hit": false,
      "t": 57983.229999999996,
      "d": 336.134666666665,
      "v": 127
    },
    {
      "midi": 45,
      "hit": false,
      "t": 57983.229999999996,
      "d": 344.53803333333053,
      "v": 127
    },
    {
      "midi": 38,
      "hit": false,
      "t": 57983.23,
      "d": 252.1010000000024,
      "v": 98
    },
    {
      "midi": 81,
      "hit": false,
      "t": 57983.23000000005,
      "d": 252.1010000000024,
      "v": 98
    },
    {
      "midi": 69,
      "hit": false,
      "t": 57983.230000000054,
      "d": 369.7481333333344,
      "v": 102
    },
    {
      "midi": 40,
      "hit": false,
      "t": 58487.43199999964,
      "d": 126.05049999999756,
      "v": 115
    },
    {
      "midi": 38,
      "hit": false,
      "t": 58487.431999999855,
      "d": 126.05049999999756,
      "v": 117
    },
    {
      "midi": 74,
      "hit": false,
      "t": 58487.43199999995,
      "d": 33.61346666666941,
      "v": 118
    },
    {
      "midi": 62,
      "hit": false,
      "t": 58487.43199999995,
      "d": 33.61346666666941,
      "v": 118
    },
    {
      "midi": 74,
      "hit": false,
      "t": 58487.43199999998,
      "d": 33.61346666666941,
      "v": 118
    },
    {
      "midi": 62,
      "hit": false,
      "t": 58487.43199999998,
      "d": 33.61346666666941,
      "v": 118
    },
    {
      "midi": 50,
      "hit": false,
      "t": 58487.43199999999,
      "d": 92.43703333333542,
      "v": 122
    },
    {
      "midi": 62,
      "hit": false,
      "t": 58487.43199999999,
      "d": 92.43703333333542,
      "v": 122
    },
    {
      "midi": 38,
      "hit": false,
      "t": 58487.43200000001,
      "d": 126.05049999999756,
      "v": 99
    },
    {
      "midi": 74,
      "hit": false,
      "t": 58487.43200000005,
      "d": 126.05049999999756,
      "v": 111
    },
    {
      "midi": 86,
      "hit": false,
      "t": 58487.43200000005,
      "d": 126.05049999999756,
      "v": 107
    },
    {
      "midi": 40,
      "hit": false,
      "t": 58739.53299999963,
      "d": 126.05049999999756,
      "v": 116
    },
    {
      "midi": 36,
      "hit": false,
      "t": 58739.53299999985,
      "d": 126.05049999999756,
      "v": 110
    },
    {
      "midi": 42,
      "hit": false,
      "t": 58739.53299999992,
      "d": 126.05049999999756,
      "v": 119
    },
    {
      "midi": 72,
      "hit": false,
      "t": 58739.53299999995,
      "d": 46.21851666666771,
      "v": 108
    },
    {
      "midi": 60,
      "hit": false,
      "t": 58739.53299999995,
      "d": 46.21851666666771,
      "v": 108
    },
    {
      "midi": 72,
      "hit": false,
      "t": 58739.53299999998,
      "d": 46.21851666666771,
      "v": 108
    },
    {
      "midi": 60,
      "hit": false,
      "t": 58739.53299999998,
      "d": 46.21851666666771,
      "v": 108
    },
    {
      "midi": 48,
      "hit": false,
      "t": 58739.532999999996,
      "d": 92.43703333333542,
      "v": 127
    },
    {
      "midi": 60,
      "hit": false,
      "t": 58739.532999999996,
      "d": 92.43703333333542,
      "v": 127
    },
    {
      "midi": 36,
      "hit": false,
      "t": 58739.533,
      "d": 126.05049999999756,
      "v": 88
    },
    {
      "midi": 72,
      "hit": false,
      "t": 58739.53300000005,
      "d": 126.05049999999756,
      "v": 100
    },
    {
      "midi": 84,
      "hit": false,
      "t": 58739.53300000005,
      "d": 126.05049999999756,
      "v": 100
    },
    {
      "midi": 40,
      "hit": false,
      "t": 58991.63399999963,
      "d": 126.05049999999756,
      "v": 107
    },
    {
      "midi": 38,
      "hit": false,
      "t": 58991.633999999845,
      "d": 126.05049999999756,
      "v": 120
    },
    {
      "midi": 62,
      "hit": false,
      "t": 58991.633999999955,
      "d": 58.82356666666601,
      "v": 122
    },
    {
      "midi": 74,
      "hit": false,
      "t": 58991.633999999955,
      "d": 58.82356666666601,
      "v": 122
    },
    {
      "midi": 62,
      "hit": false,
      "t": 58991.633999999984,
      "d": 58.82356666666601,
      "v": 122
    },
    {
      "midi": 74,
      "hit": false,
      "t": 58991.633999999984,
      "d": 58.82356666666601,
      "v": 122
    },
    {
      "midi": 50,
      "hit": false,
      "t": 58991.634,
      "d": 92.43703333333542,
      "v": 122
    },
    {
      "midi": 62,
      "hit": false,
      "t": 58991.634,
      "d": 92.43703333333542,
      "v": 122
    },
    {
      "midi": 38,
      "hit": false,
      "t": 58991.634,
      "d": 126.05049999999756,
      "v": 101
    },
    {
      "midi": 74,
      "hit": false,
      "t": 58991.63400000004,
      "d": 126.05049999999756,
      "v": 110
    },
    {
      "midi": 86,
      "hit": false,
      "t": 58991.63400000004,
      "d": 126.05049999999756,
      "v": 110
    },
    {
      "midi": 40,
      "hit": false,
      "t": 59117.684499999625,
      "d": 126.05049999999756,
      "v": 102
    },
    {
      "midi": 40,
      "hit": false,
      "t": 59243.73499999962,
      "d": 126.05049999999756,
      "v": 109
    },
    {
      "midi": 36,
      "hit": false,
      "t": 59243.73499999984,
      "d": 126.05049999999756,
      "v": 110
    },
    {
      "midi": 42,
      "hit": false,
      "t": 59243.73499999992,
      "d": 126.05049999999756,
      "v": 102
    },
    {
      "midi": 72,
      "hit": false,
      "t": 59243.73499999996,
      "d": 58.82356666666601,
      "v": 116
    },
    {
      "midi": 60,
      "hit": false,
      "t": 59243.73499999996,
      "d": 58.82356666666601,
      "v": 116
    },
    {
      "midi": 72,
      "hit": false,
      "t": 59243.734999999986,
      "d": 58.82356666666601,
      "v": 116
    },
    {
      "midi": 60,
      "hit": false,
      "t": 59243.734999999986,
      "d": 58.82356666666601,
      "v": 116
    },
    {
      "midi": 36,
      "hit": false,
      "t": 59243.73499999999,
      "d": 126.05049999999756,
      "v": 90
    },
    {
      "midi": 48,
      "hit": false,
      "t": 59243.735,
      "d": 92.43703333333542,
      "v": 127
    },
    {
      "midi": 60,
      "hit": false,
      "t": 59243.735,
      "d": 92.43703333333542,
      "v": 127
    },
    {
      "midi": 72,
      "hit": false,
      "t": 59243.73500000004,
      "d": 126.05049999999756,
      "v": 103
    },
    {
      "midi": 84,
      "hit": false,
      "t": 59243.73500000004,
      "d": 126.05049999999756,
      "v": 104
    },
    {
      "midi": 40,
      "hit": false,
      "t": 59369.78549999962,
      "d": 126.05049999999756,
      "v": 103
    },
    {
      "midi": 40,
      "hit": false,
      "t": 59495.83599999962,
      "d": 126.05049999999756,
      "v": 117
    },
    {
      "midi": 38,
      "hit": false,
      "t": 59495.835999999836,
      "d": 126.05049999999756,
      "v": 118
    },
    {
      "midi": 42,
      "hit": false,
      "t": 59495.835999999916,
      "d": 126.05049999999756,
      "v": 121
    },
    {
      "midi": 69,
      "hit": false,
      "t": 59495.83599999996,
      "d": 92.43703333333542,
      "v": 118
    },
    {
      "midi": 57,
      "hit": false,
      "t": 59495.83599999996,
      "d": 92.43703333333542,
      "v": 118
    },
    {
      "midi": 69,
      "hit": false,
      "t": 59495.83599999999,
      "d": 92.43703333333542,
      "v": 118
    },
    {
      "midi": 57,
      "hit": false,
      "t": 59495.83599999999,
      "d": 92.43703333333542,
      "v": 118
    },
    {
      "midi": 38,
      "hit": false,
      "t": 59495.83599999999,
      "d": 155.4622833333342,
      "v": 103
    },
    {
      "midi": 45,
      "hit": false,
      "t": 59495.836,
      "d": 92.43703333333542,
      "v": 127
    },
    {
      "midi": 57,
      "hit": false,
      "t": 59495.836,
      "d": 92.43703333333542,
      "v": 127
    },
    {
      "midi": 69,
      "hit": false,
      "t": 59495.83600000003,
      "d": 126.05049999999756,
      "v": 99
    },
    {
      "midi": 81,
      "hit": false,
      "t": 59495.83600000003,
      "d": 126.05049999999756,
      "v": 98
    },
    {
      "midi": 38,
      "hit": false,
      "t": 60000.03799999983,
      "d": 172.26901666666527,
      "v": 121
    },
    {
      "midi": 35,
      "hit": false,
      "t": 60000.03799999998,
      "d": 63.02524999999878,
      "v": 127
    },
    {
      "midi": 38,
      "hit": false,
      "t": 60000.03799999998,
      "d": 126.05049999999756,
      "v": 127
    },
    {
      "midi": 49,
      "hit": false,
      "t": 60000.03799999998,
      "d": 756.3029999999999,
      "v": 127
    },
    {
      "midi": 69,
      "hit": false,
      "t": 60378.18949999997,
      "d": 8.403366666665534,
      "v": 107
    },
    {
      "midi": 40,
      "hit": false,
      "t": 60504.23999999961,
      "d": 126.05049999999756,
      "v": 108
    },
    {
      "midi": 34,
      "hit": false,
      "t": 60504.23999999983,
      "d": 331.93298333333223,
      "v": 113
    },
    {
      "midi": 77,
      "hit": false,
      "t": 60504.23999999997,
      "d": 554.622199999998,
      "v": 118
    },
    {
      "midi": 40,
      "hit": false,
      "t": 60756.34099999961,
      "d": 126.05049999999756,
      "v": 108
    },
    {
      "midi": 42,
      "hit": false,
      "t": 60756.34099999991,
      "d": 126.05049999999756,
      "v": 114
    },
    {
      "midi": 40,
      "hit": false,
      "t": 61008.4419999996,
      "d": 126.05049999999756,
      "v": 100
    },
    {
      "midi": 38,
      "hit": false,
      "t": 61008.44199999983,
      "d": 331.93298333333223,
      "v": 102
    },
    {
      "midi": 76,
      "hit": false,
      "t": 61008.441999999966,
      "d": 554.622199999998,
      "v": 109
    },
    {
      "midi": 40,
      "hit": false,
      "t": 61134.4924999996,
      "d": 126.05049999999756,
      "v": 93
    },
    {
      "midi": 40,
      "hit": false,
      "t": 61260.5429999996,
      "d": 126.05049999999756,
      "v": 102
    },
    {
      "midi": 42,
      "hit": false,
      "t": 61260.54299999991,
      "d": 126.05049999999756,
      "v": 103
    },
    {
      "midi": 40,
      "hit": false,
      "t": 61386.593499999595,
      "d": 126.05049999999756,
      "v": 94
    },
    {
      "midi": 40,
      "hit": false,
      "t": 61512.64399999959,
      "d": 126.05049999999756,
      "v": 109
    },
    {
      "midi": 41,
      "hit": false,
      "t": 61512.643999999826,
      "d": 331.93298333333223,
      "v": 116
    },
    {
      "midi": 74,
      "hit": false,
      "t": 61512.643999999964,
      "d": 542.0171499999997,
      "v": 117
    },
    {
      "midi": 40,
      "hit": false,
      "t": 61764.74499999959,
      "d": 126.05049999999756,
      "v": 109
    },
    {
      "midi": 42,
      "hit": false,
      "t": 61764.74499999991,
      "d": 126.05049999999756,
      "v": 115
    },
    {
      "midi": 40,
      "hit": false,
      "t": 62016.84599999958,
      "d": 126.05049999999756,
      "v": 100
    },
    {
      "midi": 34,
      "hit": false,
      "t": 62016.84599999982,
      "d": 331.93298333333223,
      "v": 103
    },
    {
      "midi": 72,
      "hit": false,
      "t": 62016.84599999996,
      "d": 411.76496666666935,
      "v": 113
    },
    {
      "midi": 40,
      "hit": false,
      "t": 62142.89649999958,
      "d": 126.05049999999756,
      "v": 95
    },
    {
      "midi": 40,
      "hit": false,
      "t": 62268.94699999958,
      "d": 126.05049999999756,
      "v": 101
    },
    {
      "midi": 42,
      "hit": false,
      "t": 62268.946999999906,
      "d": 126.05049999999756,
      "v": 104
    },
    {
      "midi": 40,
      "hit": false,
      "t": 62394.997499999576,
      "d": 126.05049999999756,
      "v": 95
    },
    {
      "midi": 74,
      "hit": false,
      "t": 62394.99749999996,
      "d": 126.05050000000483,
      "v": 103
    },
    {
      "midi": 40,
      "hit": false,
      "t": 62521.04799999957,
      "d": 126.05049999999756,
      "v": 108
    },
    {
      "midi": 36,
      "hit": false,
      "t": 62521.04799999982,
      "d": 331.93298333333223,
      "v": 117
    },
    {
      "midi": 72,
      "hit": false,
      "t": 62521.047999999966,
      "d": 542.0171499999997,
      "v": 112
    },
    {
      "midi": 40,
      "hit": false,
      "t": 62773.14899999957,
      "d": 126.05049999999756,
      "v": 108
    },
    {
      "midi": 42,
      "hit": false,
      "t": 62773.1489999999,
      "d": 126.05049999999756,
      "v": 116
    },
    {
      "midi": 40,
      "hit": false,
      "t": 63025.24999999956,
      "d": 126.05049999999756,
      "v": 100
    },
    {
      "midi": 36,
      "hit": false,
      "t": 63025.24999999982,
      "d": 331.93298333333223,
      "v": 101
    },
    {
      "midi": 70,
      "hit": false,
      "t": 63025.24999999996,
      "d": 554.6222000000053,
      "v": 104
    },
    {
      "midi": 40,
      "hit": false,
      "t": 63151.30049999956,
      "d": 126.05049999999756,
      "v": 93
    },
    {
      "midi": 40,
      "hit": false,
      "t": 63277.35099999956,
      "d": 126.05049999999756,
      "v": 102
    },
    {
      "midi": 42,
      "hit": false,
      "t": 63277.3509999999,
      "d": 126.05049999999756,
      "v": 103
    },
    {
      "midi": 40,
      "hit": false,
      "t": 63403.401499999556,
      "d": 126.05049999999756,
      "v": 94
    },
    {
      "midi": 40,
      "hit": false,
      "t": 63529.451999999554,
      "d": 126.05049999999756,
      "v": 109
    },
    {
      "midi": 41,
      "hit": false,
      "t": 63529.451999999816,
      "d": 331.93298333333223,
      "v": 118
    },
    {
      "midi": 69,
      "hit": false,
      "t": 63529.45199999997,
      "d": 970.5888500000001,
      "v": 113
    },
    {
      "midi": 40,
      "hit": false,
      "t": 63781.55299999955,
      "d": 126.05049999999756,
      "v": 109
    },
    {
      "midi": 42,
      "hit": false,
      "t": 63781.5529999999,
      "d": 126.05049999999756,
      "v": 115
    },
    {
      "midi": 77,
      "hit": false,
      "t": 63781.55300000003,
      "d": 147.0589166666614,
      "v": 87
    },
    {
      "midi": 78,
      "hit": false,
      "t": 63907.60350000003,
      "d": 147.0589166666614,
      "v": 78
    },
    {
      "midi": 40,
      "hit": false,
      "t": 64033.653999999544,
      "d": 126.05049999999756,
      "v": 100
    },
    {
      "midi": 36,
      "hit": false,
      "t": 64033.65399999981,
      "d": 331.93298333333223,
      "v": 107
    },
    {
      "midi": 79,
      "hit": false,
      "t": 64033.654000000024,
      "d": 147.0589166666614,
      "v": 91
    },
    {
      "midi": 40,
      "hit": false,
      "t": 64159.70449999954,
      "d": 126.05049999999756,
      "v": 95
    },
    {
      "midi": 81,
      "hit": false,
      "t": 64159.70450000002,
      "d": 147.0589166666614,
      "v": 73
    },
    {
      "midi": 40,
      "hit": false,
      "t": 64285.75499999954,
      "d": 126.05049999999756,
      "v": 101
    },
    {
      "midi": 42,
      "hit": false,
      "t": 64285.754999999896,
      "d": 126.05049999999756,
      "v": 105
    },
    {
      "midi": 82,
      "hit": false,
      "t": 64285.75500000002,
      "d": 147.0589166666614,
      "v": 95
    },
    {
      "midi": 40,
      "hit": false,
      "t": 64411.80549999954,
      "d": 126.05049999999756,
      "v": 95
    },
    {
      "midi": 83,
      "hit": false,
      "t": 64411.80550000002,
      "d": 147.0589166666614,
      "v": 86
    },
    {
      "midi": 40,
      "hit": false,
      "t": 64537.855999999534,
      "d": 126.05049999999756,
      "v": 108
    },
    {
      "midi": 43,
      "hit": false,
      "t": 64537.85599999981,
      "d": 394.958233333331,
      "v": 112
    },
    {
      "midi": 69,
      "hit": false,
      "t": 64537.85599999996,
      "d": 84.03366666666261,
      "v": 127
    },
    {
      "midi": 69,
      "hit": false,
      "t": 64537.85599999999,
      "d": 84.03366666666261,
      "v": 127
    },
    {
      "midi": 84,
      "hit": false,
      "t": 64537.856000000014,
      "d": 126.05049999999756,
      "v": 86
    },
    {
      "midi": 72,
      "hit": false,
      "t": 64550.46104999996,
      "d": 79.83198333332984,
      "v": 127
    },
    {
      "midi": 72,
      "hit": false,
      "t": 64550.46104999999,
      "d": 79.83198333332984,
      "v": 127
    },
    {
      "midi": 86,
      "hit": false,
      "t": 64634.494716666675,
      "d": 126.05050000000483,
      "v": 85
    },
    {
      "midi": 84,
      "hit": false,
      "t": 64663.90650000001,
      "d": 126.05050000000483,
      "v": 83
    },
    {
      "midi": 86,
      "hit": false,
      "t": 64760.54521666668,
      "d": 126.05050000000483,
      "v": 85
    },
    {
      "midi": 40,
      "hit": false,
      "t": 64789.95699999953,
      "d": 126.05049999999756,
      "v": 108
    },
    {
      "midi": 42,
      "hit": false,
      "t": 64789.95699999989,
      "d": 126.05049999999756,
      "v": 116
    },
    {
      "midi": 72,
      "hit": false,
      "t": 64789.956999999966,
      "d": 529.4120999999941,
      "v": 114
    },
    {
      "midi": 84,
      "hit": false,
      "t": 64789.95700000002,
      "d": 126.05050000000483,
      "v": 87
    },
    {
      "midi": 60,
      "hit": false,
      "t": 64789.95700000003,
      "d": 1310.9251999999615,
      "v": 105
    },
    {
      "midi": 86,
      "hit": false,
      "t": 64886.595716666685,
      "d": 126.05050000000483,
      "v": 86
    },
    {
      "midi": 84,
      "hit": false,
      "t": 64916.00750000002,
      "d": 126.05050000000483,
      "v": 86
    },
    {
      "midi": 86,
      "hit": false,
      "t": 65012.64621666669,
      "d": 126.05050000000483,
      "v": 84
    },
    {
      "midi": 40,
      "hit": false,
      "t": 65042.057999999524,
      "d": 126.05049999999756,
      "v": 100
    },
    {
      "midi": 38,
      "hit": false,
      "t": 65042.05799999981,
      "d": 394.958233333331,
      "v": 101
    },
    {
      "midi": 84,
      "hit": false,
      "t": 65042.05800000003,
      "d": 126.05050000000483,
      "v": 86
    },
    {
      "midi": 86,
      "hit": false,
      "t": 65138.696716666695,
      "d": 126.05050000000483,
      "v": 88
    },
    {
      "midi": 40,
      "hit": false,
      "t": 65168.10849999952,
      "d": 126.05049999999756,
      "v": 93
    },
    {
      "midi": 84,
      "hit": false,
      "t": 65168.10850000003,
      "d": 126.05050000000483,
      "v": 88
    },
    {
      "midi": 86,
      "hit": false,
      "t": 65264.7472166667,
      "d": 126.05050000000483,
      "v": 86
    },
    {
      "midi": 40,
      "hit": false,
      "t": 65294.15899999952,
      "d": 126.05049999999756,
      "v": 102
    },
    {
      "midi": 42,
      "hit": false,
      "t": 65294.15899999989,
      "d": 126.05049999999756,
      "v": 103
    },
    {
      "midi": 70,
      "hit": false,
      "t": 65294.15899999996,
      "d": 289.9161499999973,
      "v": 104
    },
    {
      "midi": 84,
      "hit": false,
      "t": 65294.159000000036,
      "d": 126.05050000000483,
      "v": 84
    },
    {
      "midi": 86,
      "hit": false,
      "t": 65390.797716666704,
      "d": 126.05050000000483,
      "v": 84
    },
    {
      "midi": 40,
      "hit": false,
      "t": 65420.20949999952,
      "d": 126.05049999999756,
      "v": 94
    },
    {
      "midi": 84,
      "hit": false,
      "t": 65420.20950000004,
      "d": 126.05049999999756,
      "v": 84
    },
    {
      "midi": 86,
      "hit": false,
      "t": 65516.84821666671,
      "d": 126.05049999999756,
      "v": 93
    },
    {
      "midi": 40,
      "hit": false,
      "t": 65546.25999999951,
      "d": 126.05049999999756,
      "v": 109
    },
    {
      "midi": 43,
      "hit": false,
      "t": 65546.2599999998,
      "d": 394.9582333333383,
      "v": 113
    },
    {
      "midi": 69,
      "hit": false,
      "t": 65546.25999999997,
      "d": 504.2019999999902,
      "v": 111
    },
    {
      "midi": 84,
      "hit": false,
      "t": 65546.26000000004,
      "d": 126.05049999999756,
      "v": 93
    },
    {
      "midi": 86,
      "hit": false,
      "t": 65642.8987166667,
      "d": 126.05049999999756,
      "v": 81
    },
    {
      "midi": 84,
      "hit": false,
      "t": 65672.31050000004,
      "d": 126.05049999999756,
      "v": 80
    },
    {
      "midi": 86,
      "hit": false,
      "t": 65768.9492166667,
      "d": 126.05049999999756,
      "v": 84
    },
    {
      "midi": 40,
      "hit": false,
      "t": 65798.36099999951,
      "d": 126.05049999999756,
      "v": 109
    },
    {
      "midi": 42,
      "hit": false,
      "t": 65798.36099999989,
      "d": 126.05049999999756,
      "v": 112
    },
    {
      "midi": 84,
      "hit": false,
      "t": 65798.36100000003,
      "d": 126.05049999999756,
      "v": 86
    },
    {
      "midi": 86,
      "hit": false,
      "t": 65894.9997166667,
      "d": 126.05049999999756,
      "v": 81
    },
    {
      "midi": 84,
      "hit": false,
      "t": 65924.41150000003,
      "d": 126.05049999999756,
      "v": 81
    },
    {
      "midi": 86,
      "hit": false,
      "t": 66021.0502166667,
      "d": 126.05049999999756,
      "v": 87
    },
    {
      "midi": 40,
      "hit": false,
      "t": 66050.4619999995,
      "d": 126.05049999999756,
      "v": 100
    },
    {
      "midi": 36,
      "hit": false,
      "t": 66050.46199999981,
      "d": 336.134666666665,
      "v": 103
    },
    {
      "midi": 67,
      "hit": false,
      "t": 66050.46199999996,
      "d": 478.9918999999936,
      "v": 100
    },
    {
      "midi": 58,
      "hit": false,
      "t": 66050.462,
      "d": 504.2019999999902,
      "v": 87
    },
    {
      "midi": 84,
      "hit": false,
      "t": 66050.46200000003,
      "d": 126.05049999999756,
      "v": 87
    },
    {
      "midi": 86,
      "hit": false,
      "t": 66147.1007166667,
      "d": 126.05049999999756,
      "v": 84
    },
    {
      "midi": 40,
      "hit": false,
      "t": 66176.5124999995,
      "d": 126.05049999999756,
      "v": 95
    },
    {
      "midi": 84,
      "hit": false,
      "t": 66176.51250000003,
      "d": 126.05049999999756,
      "v": 83
    },
    {
      "midi": 86,
      "hit": false,
      "t": 66273.1512166667,
      "d": 126.05049999999756,
      "v": 85
    },
    {
      "midi": 40,
      "hit": false,
      "t": 66302.5629999995,
      "d": 126.05049999999756,
      "v": 101
    },
    {
      "midi": 42,
      "hit": false,
      "t": 66302.5629999999,
      "d": 126.05049999999756,
      "v": 104
    },
    {
      "midi": 84,
      "hit": false,
      "t": 66302.56300000002,
      "d": 126.05049999999756,
      "v": 85
    },
    {
      "midi": 86,
      "hit": false,
      "t": 66399.20171666669,
      "d": 126.05049999999756,
      "v": 92
    },
    {
      "midi": 40,
      "hit": false,
      "t": 66428.6134999995,
      "d": 126.05049999999756,
      "v": 95
    },
    {
      "midi": 84,
      "hit": false,
      "t": 66428.61350000002,
      "d": 126.05049999999756,
      "v": 92
    },
    {
      "midi": 40,
      "hit": false,
      "t": 66554.6639999995,
      "d": 126.05049999999756,
      "v": 111
    },
    {
      "midi": 41,
      "hit": false,
      "t": 66554.66399999982,
      "d": 394.9582333333383,
      "v": 117
    },
    {
      "midi": 69,
      "hit": false,
      "t": 66554.66399999995,
      "d": 84.03366666666989,
      "v": 117
    },
    {
      "midi": 57,
      "hit": false,
      "t": 66554.66399999999,
      "d": 457.9834833333298,
      "v": 95
    },
    {
      "midi": 40,
      "hit": false,
      "t": 66806.76499999949,
      "d": 126.05049999999756,
      "v": 111
    },
    {
      "midi": 42,
      "hit": false,
      "t": 66806.7649999999,
      "d": 126.05049999999756,
      "v": 115
    },
    {
      "midi": 65,
      "hit": false,
      "t": 66806.76499999996,
      "d": 1134.454500000007,
      "v": 104
    },
    {
      "midi": 40,
      "hit": false,
      "t": 67058.86599999949,
      "d": 126.05049999999756,
      "v": 103
    },
    {
      "midi": 36,
      "hit": false,
      "t": 67058.86599999982,
      "d": 369.74813333332713,
      "v": 104
    },
    {
      "midi": 72,
      "hit": false,
      "t": 67058.86599999998,
      "d": 176.47069999999076,
      "v": 118
    },
    {
      "midi": 40,
      "hit": false,
      "t": 67184.91649999948,
      "d": 126.05049999999756,
      "v": 96
    },
    {
      "midi": 74,
      "hit": false,
      "t": 67184.91649999998,
      "d": 197.47911666666914,
      "v": 81
    },
    {
      "midi": 40,
      "hit": false,
      "t": 67310.96699999948,
      "d": 126.05049999999756,
      "v": 104
    },
    {
      "midi": 42,
      "hit": false,
      "t": 67310.9669999999,
      "d": 126.05049999999756,
      "v": 103
    },
    {
      "midi": 75,
      "hit": false,
      "t": 67310.96699999998,
      "d": 168.06733333333977,
      "v": 115
    },
    {
      "midi": 40,
      "hit": false,
      "t": 67437.01749999948,
      "d": 126.05049999999756,
      "v": 96
    },
    {
      "midi": 76,
      "hit": false,
      "t": 67437.01749999999,
      "d": 184.87406666667084,
      "v": 105
    },
    {
      "midi": 40,
      "hit": false,
      "t": 67563.06799999948,
      "d": 126.05049999999756,
      "v": 113
    },
    {
      "midi": 41,
      "hit": false,
      "t": 67563.06799999981,
      "d": 201.6808000000019,
      "v": 111
    },
    {
      "midi": 77,
      "hit": false,
      "t": 67563.06799999998,
      "d": 105.04208333333372,
      "v": 127
    },
    {
      "midi": 42,
      "hit": false,
      "t": 67815.1689999999,
      "d": 126.05049999999756,
      "v": 114
    },
    {
      "midi": 53,
      "hit": false,
      "t": 67827.77404999996,
      "d": 71.42861666665704,
      "v": 114
    },
    {
      "midi": 53,
      "hit": false,
      "t": 67827.77404999998,
      "d": 71.42861666665704,
      "v": 114
    },
    {
      "midi": 53,
      "hit": false,
      "t": 67827.77404999999,
      "d": 71.42861666665704,
      "v": 114
    },
    {
      "midi": 65,
      "hit": false,
      "t": 67848.78246666663,
      "d": 71.42861666665704,
      "v": 115
    },
    {
      "midi": 65,
      "hit": false,
      "t": 67848.78246666664,
      "d": 71.42861666665704,
      "v": 115
    },
    {
      "midi": 65,
      "hit": false,
      "t": 67848.78246666666,
      "d": 71.42861666665704,
      "v": 115
    },
    {
      "midi": 53,
      "hit": false,
      "t": 67953.82454999995,
      "d": 50.4201999999932,
      "v": 70
    },
    {
      "midi": 53,
      "hit": false,
      "t": 67953.82454999996,
      "d": 50.4201999999932,
      "v": 70
    },
    {
      "midi": 53,
      "hit": false,
      "t": 67953.82454999998,
      "d": 50.4201999999932,
      "v": 70
    },
    {
      "midi": 65,
      "hit": false,
      "t": 67974.83296666661,
      "d": 54.62188333332597,
      "v": 72
    },
    {
      "midi": 65,
      "hit": false,
      "t": 67974.83296666662,
      "d": 54.62188333332597,
      "v": 72
    },
    {
      "midi": 65,
      "hit": false,
      "t": 67974.83296666664,
      "d": 54.62188333332597,
      "v": 72
    },
    {
      "midi": 57,
      "hit": false,
      "t": 68067.26999999993,
      "d": 71.42861666665704,
      "v": 103
    },
    {
      "midi": 57,
      "hit": false,
      "t": 68067.26999999995,
      "d": 71.42861666665704,
      "v": 103
    },
    {
      "midi": 57,
      "hit": false,
      "t": 68067.26999999996,
      "d": 71.42861666665704,
      "v": 103
    },
    {
      "midi": 69,
      "hit": false,
      "t": 68088.2784166666,
      "d": 50.4201999999932,
      "v": 103
    },
    {
      "midi": 69,
      "hit": false,
      "t": 68088.27841666661,
      "d": 50.4201999999932,
      "v": 103
    },
    {
      "midi": 69,
      "hit": false,
      "t": 68088.27841666662,
      "d": 50.4201999999932,
      "v": 103
    },
    {
      "midi": 42,
      "hit": false,
      "t": 68319.37099999991,
      "d": 126.05049999999756,
      "v": 105
    },
    {
      "midi": 60,
      "hit": false,
      "t": 68319.37099999993,
      "d": 71.42861666665704,
      "v": 117
    },
    {
      "midi": 60,
      "hit": false,
      "t": 68319.37099999994,
      "d": 71.42861666665704,
      "v": 117
    },
    {
      "midi": 60,
      "hit": false,
      "t": 68319.37099999996,
      "d": 71.42861666665704,
      "v": 117
    },
    {
      "midi": 72,
      "hit": false,
      "t": 68340.37941666659,
      "d": 50.4201999999932,
      "v": 117
    },
    {
      "midi": 72,
      "hit": false,
      "t": 68340.3794166666,
      "d": 50.4201999999932,
      "v": 117
    },
    {
      "midi": 72,
      "hit": false,
      "t": 68340.37941666662,
      "d": 50.4201999999932,
      "v": 117
    },
    {
      "midi": 40,
      "hit": false,
      "t": 68571.47199999947,
      "d": 126.05049999999756,
      "v": 117
    },
    {
      "midi": 34,
      "hit": false,
      "t": 68571.4719999998,
      "d": 336.134666666665,
      "v": 116
    },
    {
      "midi": 62,
      "hit": false,
      "t": 68571.47199999992,
      "d": 58.823566666658735,
      "v": 122
    },
    {
      "midi": 62,
      "hit": false,
      "t": 68571.47199999994,
      "d": 58.823566666658735,
      "v": 122
    },
    {
      "midi": 62,
      "hit": false,
      "t": 68571.47199999995,
      "d": 58.823566666658735,
      "v": 122
    },
    {
      "midi": 35,
      "hit": false,
      "t": 68571.47199999998,
      "d": 126.05049999999756,
      "v": 100
    },
    {
      "midi": 38,
      "hit": false,
      "t": 68571.47199999998,
      "d": 126.05049999999756,
      "v": 107
    },
    {
      "midi": 74,
      "hit": false,
      "t": 68592.48041666659,
      "d": 50.4201999999932,
      "v": 122
    },
    {
      "midi": 74,
      "hit": false,
      "t": 68592.4804166666,
      "d": 50.4201999999932,
      "v": 122
    },
    {
      "midi": 74,
      "hit": false,
      "t": 68592.48041666661,
      "d": 50.4201999999932,
      "v": 122
    },
    {
      "midi": 40,
      "hit": false,
      "t": 68823.57299999947,
      "d": 126.05049999999756,
      "v": 118
    },
    {
      "midi": 58,
      "hit": false,
      "t": 68823.57299999992,
      "d": 46.218516666660435,
      "v": 112
    },
    {
      "midi": 42,
      "hit": false,
      "t": 68823.57299999992,
      "d": 126.05049999999756,
      "v": 116
    },
    {
      "midi": 58,
      "hit": false,
      "t": 68823.57299999993,
      "d": 46.218516666660435,
      "v": 112
    },
    {
      "midi": 58,
      "hit": false,
      "t": 68823.57299999995,
      "d": 46.218516666660435,
      "v": 112
    },
    {
      "midi": 38,
      "hit": false,
      "t": 68823.57299999997,
      "d": 126.05049999999756,
      "v": 107
    },
    {
      "midi": 70,
      "hit": false,
      "t": 68844.58141666658,
      "d": 37.8151499999949,
      "v": 112
    },
    {
      "midi": 70,
      "hit": false,
      "t": 68844.5814166666,
      "d": 37.8151499999949,
      "v": 112
    },
    {
      "midi": 70,
      "hit": false,
      "t": 68844.58141666661,
      "d": 37.8151499999949,
      "v": 112
    },
    {
      "midi": 40,
      "hit": false,
      "t": 69075.67399999946,
      "d": 126.05049999999756,
      "v": 118
    },
    {
      "midi": 25,
      "hit": false,
      "t": 69075.67399999946,
      "d": 495.7986333333247,
      "v": 118
    },
    {
      "midi": 38,
      "hit": false,
      "t": 69075.67399999981,
      "d": 344.53803333333053,
      "v": 105
    },
    {
      "midi": 53,
      "hit": false,
      "t": 69075.67399999991,
      "d": 180.67238333332352,
      "v": 108
    },
    {
      "midi": 53,
      "hit": false,
      "t": 69075.67399999993,
      "d": 243.69763333332958,
      "v": 108
    },
    {
      "midi": 53,
      "hit": false,
      "t": 69075.67399999994,
      "d": 180.67238333332352,
      "v": 108
    },
    {
      "midi": 38,
      "hit": false,
      "t": 69075.67399999997,
      "d": 126.05049999999756,
      "v": 107
    },
    {
      "midi": 35,
      "hit": false,
      "t": 69075.67399999997,
      "d": 126.05049999999756,
      "v": 100
    },
    {
      "midi": 65,
      "hit": false,
      "t": 69096.68241666658,
      "d": 172.269016666658,
      "v": 108
    },
    {
      "midi": 65,
      "hit": false,
      "t": 69096.68241666659,
      "d": 222.68921666666574,
      "v": 108
    },
    {
      "midi": 65,
      "hit": false,
      "t": 69096.6824166666,
      "d": 172.269016666658,
      "v": 108
    },
    {
      "midi": 42,
      "hit": false,
      "t": 69327.77499999992,
      "d": 126.05049999999756,
      "v": 104
    },
    {
      "midi": 62,
      "hit": false,
      "t": 69453.8254999999,
      "d": 50.4201999999932,
      "v": 122
    },
    {
      "midi": 62,
      "hit": false,
      "t": 69453.82549999992,
      "d": 50.4201999999932,
      "v": 122
    },
    {
      "midi": 62,
      "hit": false,
      "t": 69453.82549999993,
      "d": 50.4201999999932,
      "v": 122
    },
    {
      "midi": 74,
      "hit": false,
      "t": 69474.83391666657,
      "d": 54.62188333332597,
      "v": 122
    },
    {
      "midi": 74,
      "hit": false,
      "t": 69474.83391666658,
      "d": 54.62188333332597,
      "v": 122
    },
    {
      "midi": 74,
      "hit": false,
      "t": 69474.8339166666,
      "d": 54.62188333332597,
      "v": 122
    },
    {
      "midi": 40,
      "hit": false,
      "t": 69579.87599999945,
      "d": 126.05049999999756,
      "v": 118
    },
    {
      "midi": 41,
      "hit": false,
      "t": 69579.8759999998,
      "d": 323.5296166666667,
      "v": 116
    },
    {
      "midi": 60,
      "hit": false,
      "t": 69579.87599999989,
      "d": 46.218516666660435,
      "v": 112
    },
    {
      "midi": 60,
      "hit": false,
      "t": 69579.8759999999,
      "d": 46.218516666660435,
      "v": 112
    },
    {
      "midi": 60,
      "hit": false,
      "t": 69579.87599999992,
      "d": 46.218516666660435,
      "v": 112
    },
    {
      "midi": 38,
      "hit": false,
      "t": 69579.87599999997,
      "d": 126.05049999999756,
      "v": 109
    },
    {
      "midi": 35,
      "hit": false,
      "t": 69579.87599999997,
      "d": 126.05049999999756,
      "v": 100
    },
    {
      "midi": 72,
      "hit": false,
      "t": 69600.88441666655,
      "d": 50.4201999999932,
      "v": 112
    },
    {
      "midi": 72,
      "hit": false,
      "t": 69600.88441666657,
      "d": 50.4201999999932,
      "v": 112
    },
    {
      "midi": 72,
      "hit": false,
      "t": 69600.88441666658,
      "d": 50.4201999999932,
      "v": 112
    },
    {
      "midi": 40,
      "hit": false,
      "t": 69831.97699999945,
      "d": 126.05049999999756,
      "v": 117
    },
    {
      "midi": 57,
      "hit": false,
      "t": 69831.97699999988,
      "d": 58.823566666658735,
      "v": 105
    },
    {
      "midi": 57,
      "hit": false,
      "t": 69831.9769999999,
      "d": 58.823566666658735,
      "v": 105
    },
    {
      "midi": 57,
      "hit": false,
      "t": 69831.97699999991,
      "d": 58.823566666658735,
      "v": 105
    },
    {
      "midi": 42,
      "hit": false,
      "t": 69831.97699999993,
      "d": 126.05049999999756,
      "v": 114
    },
    {
      "midi": 38,
      "hit": false,
      "t": 69831.97699999997,
      "d": 126.05049999999756,
      "v": 109
    },
    {
      "midi": 69,
      "hit": false,
      "t": 69852.98541666655,
      "d": 50.4201999999932,
      "v": 105
    },
    {
      "midi": 69,
      "hit": false,
      "t": 69852.98541666656,
      "d": 50.4201999999932,
      "v": 105
    },
    {
      "midi": 69,
      "hit": false,
      "t": 69852.98541666658,
      "d": 50.4201999999932,
      "v": 105
    },
    {
      "midi": 40,
      "hit": false,
      "t": 70084.07799999944,
      "d": 126.05049999999756,
      "v": 119
    },
    {
      "midi": 25,
      "hit": false,
      "t": 70084.07799999944,
      "d": 483.1935833333264,
      "v": 119
    },
    {
      "midi": 36,
      "hit": false,
      "t": 70084.0779999998,
      "d": 252.1009999999951,
      "v": 103
    },
    {
      "midi": 53,
      "hit": false,
      "t": 70084.07799999988,
      "d": 231.09258333333128,
      "v": 117
    },
    {
      "midi": 53,
      "hit": false,
      "t": 70084.07799999989,
      "d": 243.69763333332958,
      "v": 117
    },
    {
      "midi": 53,
      "hit": false,
      "t": 70084.0779999999,
      "d": 231.09258333333128,
      "v": 117
    },
    {
      "midi": 35,
      "hit": false,
      "t": 70084.07799999996,
      "d": 126.05049999999756,
      "v": 100
    },
    {
      "midi": 38,
      "hit": false,
      "t": 70084.07799999996,
      "d": 126.05049999999756,
      "v": 109
    },
    {
      "midi": 65,
      "hit": false,
      "t": 70105.08641666654,
      "d": 222.68921666666574,
      "v": 117
    },
    {
      "midi": 65,
      "hit": false,
      "t": 70105.08641666656,
      "d": 235.29426666666404,
      "v": 117
    },
    {
      "midi": 65,
      "hit": false,
      "t": 70105.08641666657,
      "d": 222.68921666666574,
      "v": 117
    },
    {
      "midi": 42,
      "hit": false,
      "t": 70336.17899999993,
      "d": 126.05049999999756,
      "v": 102
    },
    {
      "midi": 53,
      "hit": false,
      "t": 70462.22949999987,
      "d": 92.43703333333542,
      "v": 90
    },
    {
      "midi": 53,
      "hit": false,
      "t": 70462.22949999988,
      "d": 92.43703333333542,
      "v": 90
    },
    {
      "midi": 53,
      "hit": false,
      "t": 70462.2294999999,
      "d": 92.43703333333542,
      "v": 90
    },
    {
      "midi": 65,
      "hit": false,
      "t": 70483.23791666653,
      "d": 92.43703333333542,
      "v": 90
    },
    {
      "midi": 65,
      "hit": false,
      "t": 70483.23791666655,
      "d": 92.43703333333542,
      "v": 90
    },
    {
      "midi": 65,
      "hit": false,
      "t": 70483.23791666656,
      "d": 92.43703333333542,
      "v": 90
    },
    {
      "midi": 40,
      "hit": false,
      "t": 70588.27999999943,
      "d": 126.05049999999756,
      "v": 117
    },
    {
      "midi": 43,
      "hit": false,
      "t": 70588.2799999998,
      "d": 344.53803333333053,
      "v": 114
    },
    {
      "midi": 55,
      "hit": false,
      "t": 70588.27999999987,
      "d": 71.42861666665704,
      "v": 113
    },
    {
      "midi": 55,
      "hit": false,
      "t": 70588.27999999988,
      "d": 71.42861666665704,
      "v": 113
    },
    {
      "midi": 55,
      "hit": false,
      "t": 70588.2799999999,
      "d": 71.42861666665704,
      "v": 113
    },
    {
      "midi": 35,
      "hit": false,
      "t": 70588.27999999997,
      "d": 126.05049999999756,
      "v": 100
    },
    {
      "midi": 67,
      "hit": false,
      "t": 70609.28841666653,
      "d": 50.4201999999932,
      "v": 113
    },
    {
      "midi": 67,
      "hit": false,
      "t": 70609.28841666655,
      "d": 50.4201999999932,
      "v": 113
    },
    {
      "midi": 67,
      "hit": false,
      "t": 70609.28841666656,
      "d": 50.4201999999932,
      "v": 113
    },
    {
      "midi": 40,
      "hit": false,
      "t": 70840.38099999943,
      "d": 126.05049999999756,
      "v": 117
    },
    {
      "midi": 55,
      "hit": false,
      "t": 70840.38099999986,
      "d": 71.42861666665704,
      "v": 99
    },
    {
      "midi": 55,
      "hit": false,
      "t": 70840.38099999988,
      "d": 71.42861666665704,
      "v": 99
    },
    {
      "midi": 55,
      "hit": false,
      "t": 70840.38099999989,
      "d": 71.42861666665704,
      "v": 99
    },
    {
      "midi": 42,
      "hit": false,
      "t": 70840.38099999994,
      "d": 126.05049999999756,
      "v": 113
    },
    {
      "midi": 67,
      "hit": false,
      "t": 70861.38941666653,
      "d": 50.4201999999932,
      "v": 99
    },
    {
      "midi": 67,
      "hit": false,
      "t": 70861.38941666654,
      "d": 50.4201999999932,
      "v": 99
    },
    {
      "midi": 67,
      "hit": false,
      "t": 70861.38941666656,
      "d": 50.4201999999932,
      "v": 99
    },
    {
      "midi": 40,
      "hit": false,
      "t": 71092.48199999942,
      "d": 126.05049999999756,
      "v": 105
    },
    {
      "midi": 38,
      "hit": false,
      "t": 71092.48199999979,
      "d": 336.134666666665,
      "v": 101
    },
    {
      "midi": 58,
      "hit": false,
      "t": 71092.48199999986,
      "d": 58.823566666658735,
      "v": 114
    },
    {
      "midi": 58,
      "hit": false,
      "t": 71092.48199999987,
      "d": 58.823566666658735,
      "v": 114
    },
    {
      "midi": 58,
      "hit": false,
      "t": 71092.48199999989,
      "d": 58.823566666658735,
      "v": 114
    },
    {
      "midi": 35,
      "hit": false,
      "t": 71092.48199999997,
      "d": 126.05049999999756,
      "v": 100
    },
    {
      "midi": 70,
      "hit": false,
      "t": 71113.49041666652,
      "d": 50.4201999999932,
      "v": 114
    },
    {
      "midi": 70,
      "hit": false,
      "t": 71113.49041666654,
      "d": 50.4201999999932,
      "v": 114
    },
    {
      "midi": 70,
      "hit": false,
      "t": 71113.49041666655,
      "d": 50.4201999999932,
      "v": 114
    },
    {
      "midi": 40,
      "hit": false,
      "t": 71218.53249999942,
      "d": 126.05049999999756,
      "v": 99
    },
    {
      "midi": 40,
      "hit": false,
      "t": 71344.58299999942,
      "d": 126.05049999999756,
      "v": 105
    },
    {
      "midi": 60,
      "hit": false,
      "t": 71344.58299999985,
      "d": 71.42861666665704,
      "v": 108
    },
    {
      "midi": 60,
      "hit": false,
      "t": 71344.58299999987,
      "d": 71.42861666665704,
      "v": 108
    },
    {
      "midi": 60,
      "hit": false,
      "t": 71344.58299999988,
      "d": 71.42861666665704,
      "v": 108
    },
    {
      "midi": 42,
      "hit": false,
      "t": 71344.58299999994,
      "d": 126.05049999999756,
      "v": 103
    },
    {
      "midi": 72,
      "hit": false,
      "t": 71365.59141666652,
      "d": 63.0252499999915,
      "v": 108
    },
    {
      "midi": 72,
      "hit": false,
      "t": 71365.59141666653,
      "d": 63.0252499999915,
      "v": 108
    },
    {
      "midi": 72,
      "hit": false,
      "t": 71365.59141666655,
      "d": 63.0252499999915,
      "v": 108
    },
    {
      "midi": 40,
      "hit": false,
      "t": 71470.63349999941,
      "d": 126.05049999999756,
      "v": 100
    },
    {
      "midi": 40,
      "hit": false,
      "t": 71596.68399999941,
      "d": 126.05049999999756,
      "v": 119
    },
    {
      "midi": 43,
      "hit": false,
      "t": 71596.68399999979,
      "d": 168.06733333333977,
      "v": 113
    },
    {
      "midi": 62,
      "hit": false,
      "t": 71596.68399999985,
      "d": 58.823566666658735,
      "v": 122
    },
    {
      "midi": 62,
      "hit": false,
      "t": 71596.68399999986,
      "d": 58.823566666658735,
      "v": 122
    },
    {
      "midi": 62,
      "hit": false,
      "t": 71596.68399999988,
      "d": 58.823566666658735,
      "v": 122
    },
    {
      "midi": 35,
      "hit": false,
      "t": 71596.68399999998,
      "d": 126.05049999999756,
      "v": 100
    },
    {
      "midi": 74,
      "hit": false,
      "t": 71617.69241666651,
      "d": 50.4201999999932,
      "v": 122
    },
    {
      "midi": 74,
      "hit": false,
      "t": 71617.69241666653,
      "d": 50.4201999999932,
      "v": 122
    },
    {
      "midi": 74,
      "hit": false,
      "t": 71617.69241666654,
      "d": 50.4201999999932,
      "v": 122
    },
    {
      "midi": 42,
      "hit": false,
      "t": 71848.78499999995,
      "d": 126.05049999999756,
      "v": 111
    },
    {
      "midi": 36,
      "hit": false,
      "t": 72100.8859999998,
      "d": 176.4707000000053,
      "v": 113
    },
    {
      "midi": 64,
      "hit": false,
      "t": 72100.88599999984,
      "d": 92.43703333333542,
      "v": 120
    },
    {
      "midi": 64,
      "hit": false,
      "t": 72100.88599999985,
      "d": 92.43703333333542,
      "v": 120
    },
    {
      "midi": 64,
      "hit": false,
      "t": 72100.88599999987,
      "d": 92.43703333333542,
      "v": 120
    },
    {
      "midi": 35,
      "hit": false,
      "t": 72100.88599999998,
      "d": 63.025250000006054,
      "v": 121
    },
    {
      "midi": 38,
      "hit": false,
      "t": 72100.88599999998,
      "d": 126.05050000001211,
      "v": 121
    },
    {
      "midi": 36,
      "hit": false,
      "t": 72100.88599999998,
      "d": 126.05049999999756,
      "v": 83
    },
    {
      "midi": 76,
      "hit": false,
      "t": 72121.8944166665,
      "d": 84.03366666666989,
      "v": 120
    },
    {
      "midi": 76,
      "hit": false,
      "t": 72121.89441666652,
      "d": 84.03366666666989,
      "v": 120
    },
    {
      "midi": 76,
      "hit": false,
      "t": 72121.89441666653,
      "d": 84.03366666666989,
      "v": 120
    },
    {
      "midi": 36,
      "hit": false,
      "t": 72479.0374999998,
      "d": 100.84040000000095,
      "v": 98
    },
    {
      "midi": 64,
      "hit": false,
      "t": 72479.03749999985,
      "d": 92.43703333333542,
      "v": 102
    },
    {
      "midi": 64,
      "hit": false,
      "t": 72479.03749999986,
      "d": 92.43703333333542,
      "v": 102
    },
    {
      "midi": 64,
      "hit": false,
      "t": 72479.03749999987,
      "d": 92.43703333333542,
      "v": 102
    },
    {
      "midi": 36,
      "hit": false,
      "t": 72479.03749999998,
      "d": 84.03366666666989,
      "v": 74
    },
    {
      "midi": 76,
      "hit": false,
      "t": 72500.04591666651,
      "d": 92.43703333333542,
      "v": 102
    },
    {
      "midi": 76,
      "hit": false,
      "t": 72500.04591666652,
      "d": 92.43703333333542,
      "v": 102
    },
    {
      "midi": 76,
      "hit": false,
      "t": 72500.04591666654,
      "d": 92.43703333333542,
      "v": 102
    },
    {
      "midi": 40,
      "hit": false,
      "t": 72605.0879999994,
      "d": 126.05049999999756,
      "v": 113
    },
    {
      "midi": 41,
      "hit": false,
      "t": 72605.0879999998,
      "d": 252.1009999999951,
      "v": 113
    },
    {
      "midi": 65,
      "hit": false,
      "t": 72605.08799999984,
      "d": 2100.8416666664707,
      "v": 127
    },
    {
      "midi": 65,
      "hit": false,
      "t": 72605.08799999986,
      "d": 2100.8416666664707,
      "v": 127
    },
    {
      "midi": 65,
      "hit": false,
      "t": 72605.08799999987,
      "d": 2100.8416666664707,
      "v": 127
    },
    {
      "midi": 46,
      "hit": false,
      "t": 72605.08799999995,
      "d": 420.16833333332033,
      "v": 121
    },
    {
      "midi": 40,
      "hit": false,
      "t": 72605.08799999997,
      "d": 126.05049999999756,
      "v": 86
    },
    {
      "midi": 41,
      "hit": false,
      "t": 72605.08799999997,
      "d": 252.1009999999951,
      "v": 86
    },
    {
      "midi": 65,
      "hit": false,
      "t": 72605.08799999999,
      "d": 168.06733333332522,
      "v": 37
    },
    {
      "midi": 77,
      "hit": false,
      "t": 72605.08799999999,
      "d": 168.06733333332522,
      "v": 37
    },
    {
      "midi": 65,
      "hit": false,
      "t": 72605.08799999999,
      "d": 168.06733333332522,
      "v": 33
    },
    {
      "midi": 77,
      "hit": false,
      "t": 72605.08799999999,
      "d": 168.06733333332522,
      "v": 33
    },
    {
      "midi": 77,
      "hit": false,
      "t": 72605.08800000002,
      "d": 168.06733333332522,
      "v": 66
    },
    {
      "midi": 77,
      "hit": false,
      "t": 72626.0964166665,
      "d": 2121.8500833331345,
      "v": 127
    },
    {
      "midi": 77,
      "hit": false,
      "t": 72626.09641666652,
      "d": 2121.8500833331345,
      "v": 127
    },
    {
      "midi": 77,
      "hit": false,
      "t": 72626.09641666654,
      "d": 2121.8500833331345,
      "v": 127
    },
    {
      "midi": 64,
      "hit": false,
      "t": 72731.13849999999,
      "d": 172.269016666658,
      "v": 29
    },
    {
      "midi": 76,
      "hit": false,
      "t": 72731.13849999999,
      "d": 172.269016666658,
      "v": 29
    },
    {
      "midi": 64,
      "hit": false,
      "t": 72731.13849999999,
      "d": 172.269016666658,
      "v": 43
    },
    {
      "midi": 76,
      "hit": false,
      "t": 72731.13849999999,
      "d": 172.269016666658,
      "v": 43
    },
    {
      "midi": 76,
      "hit": false,
      "t": 72731.13850000002,
      "d": 172.269016666658,
      "v": 56
    },
    {
      "midi": 40,
      "hit": false,
      "t": 72857.1889999994,
      "d": 126.05049999999756,
      "v": 113
    },
    {
      "midi": 42,
      "hit": false,
      "t": 72857.18899999994,
      "d": 126.05049999999756,
      "v": 100
    },
    {
      "midi": 40,
      "hit": false,
      "t": 72857.18899999997,
      "d": 84.03366666665534,
      "v": 7
    },
    {
      "midi": 77,
      "hit": false,
      "t": 72857.18899999998,
      "d": 155.46228333332692,
      "v": 71
    },
    {
      "midi": 65,
      "hit": false,
      "t": 72857.18899999998,
      "d": 155.46228333332692,
      "v": 71
    },
    {
      "midi": 65,
      "hit": false,
      "t": 72857.18899999998,
      "d": 155.46228333332692,
      "v": 64
    },
    {
      "midi": 77,
      "hit": false,
      "t": 72857.18899999998,
      "d": 155.46228333332692,
      "v": 64
    },
    {
      "midi": 77,
      "hit": false,
      "t": 72857.18900000001,
      "d": 155.46228333332692,
      "v": 69
    },
    {
      "midi": 41,
      "hit": false,
      "t": 72903.40751666663,
      "d": 84.03366666665534,
      "v": 8
    },
    {
      "midi": 79,
      "hit": false,
      "t": 72983.23949999998,
      "d": 172.269016666658,
      "v": 44
    },
    {
      "midi": 67,
      "hit": false,
      "t": 72983.23949999998,
      "d": 172.269016666658,
      "v": 44
    },
    {
      "midi": 67,
      "hit": false,
      "t": 72983.23949999998,
      "d": 172.269016666658,
      "v": 40
    },
    {
      "midi": 79,
      "hit": false,
      "t": 72983.23949999998,
      "d": 172.269016666658,
      "v": 40
    },
    {
      "midi": 79,
      "hit": false,
      "t": 72983.23950000001,
      "d": 172.269016666658,
      "v": 60
    },
    {
      "midi": 40,
      "hit": false,
      "t": 73025.25633333328,
      "d": 4.201683333332767,
      "v": 12
    },
    {
      "midi": 41,
      "hit": false,
      "t": 73071.47484999994,
      "d": 4.201683333332767,
      "v": 13
    },
    {
      "midi": 40,
      "hit": false,
      "t": 73109.2899999994,
      "d": 126.05049999999756,
      "v": 105
    },
    {
      "midi": 36,
      "hit": false,
      "t": 73109.28999999979,
      "d": 252.1009999999951,
      "v": 100
    },
    {
      "midi": 81,
      "hit": false,
      "t": 73109.28999999998,
      "d": 155.46228333332692,
      "v": 86
    },
    {
      "midi": 69,
      "hit": false,
      "t": 73109.28999999998,
      "d": 155.46228333332692,
      "v": 86
    },
    {
      "midi": 69,
      "hit": false,
      "t": 73109.28999999998,
      "d": 155.46228333332692,
      "v": 79
    },
    {
      "midi": 81,
      "hit": false,
      "t": 73109.28999999998,
      "d": 155.46228333332692,
      "v": 79
    },
    {
      "midi": 81,
      "hit": false,
      "t": 73109.29000000001,
      "d": 155.46228333332692,
      "v": 72
    },
    {
      "midi": 40,
      "hit": false,
      "t": 73193.32366666659,
      "d": 4.201683333332767,
      "v": 17
    },
    {
      "midi": 40,
      "hit": false,
      "t": 73235.3404999994,
      "d": 126.05049999999756,
      "v": 101
    },
    {
      "midi": 80,
      "hit": false,
      "t": 73235.34049999998,
      "d": 159.6639666666597,
      "v": 55
    },
    {
      "midi": 68,
      "hit": false,
      "t": 73235.34049999998,
      "d": 159.6639666666597,
      "v": 55
    },
    {
      "midi": 68,
      "hit": false,
      "t": 73235.34049999998,
      "d": 159.6639666666597,
      "v": 46
    },
    {
      "midi": 80,
      "hit": false,
      "t": 73235.34049999998,
      "d": 159.6639666666597,
      "v": 46
    },
    {
      "midi": 80,
      "hit": false,
      "t": 73235.3405,
      "d": 159.6639666666597,
      "v": 64
    },
    {
      "midi": 41,
      "hit": false,
      "t": 73239.54218333325,
      "d": 4.201683333332767,
      "v": 18
    },
    {
      "midi": 40,
      "hit": false,
      "t": 73361.39099999939,
      "d": 126.05049999999756,
      "v": 107
    },
    {
      "midi": 40,
      "hit": false,
      "t": 73361.3909999999,
      "d": 4.201683333332767,
      "v": 22
    },
    {
      "midi": 42,
      "hit": false,
      "t": 73361.39099999993,
      "d": 126.05049999999756,
      "v": 114
    },
    {
      "midi": 69,
      "hit": false,
      "t": 73361.39099999997,
      "d": 155.46228333332692,
      "v": 97
    },
    {
      "midi": 81,
      "hit": false,
      "t": 73361.39099999997,
      "d": 155.46228333332692,
      "v": 97
    },
    {
      "midi": 69,
      "hit": false,
      "t": 73361.39099999997,
      "d": 155.46228333332692,
      "v": 90
    },
    {
      "midi": 81,
      "hit": false,
      "t": 73361.39099999997,
      "d": 155.46228333332692,
      "v": 90
    },
    {
      "midi": 81,
      "hit": false,
      "t": 73361.391,
      "d": 155.46228333332692,
      "v": 77
    },
    {
      "midi": 41,
      "hit": false,
      "t": 73407.60951666656,
      "d": 4.201683333332767,
      "v": 23
    },
    {
      "midi": 40,
      "hit": false,
      "t": 73487.44149999939,
      "d": 126.05049999999756,
      "v": 101
    },
    {
      "midi": 82,
      "hit": false,
      "t": 73487.44149999997,
      "d": 172.269016666658,
      "v": 65
    },
    {
      "midi": 70,
      "hit": false,
      "t": 73487.44149999997,
      "d": 172.269016666658,
      "v": 65
    },
    {
      "midi": 70,
      "hit": false,
      "t": 73487.44149999997,
      "d": 172.269016666658,
      "v": 51
    },
    {
      "midi": 82,
      "hit": false,
      "t": 73487.44149999997,
      "d": 172.269016666658,
      "v": 51
    },
    {
      "midi": 82,
      "hit": false,
      "t": 73487.4415,
      "d": 172.269016666658,
      "v": 67
    },
    {
      "midi": 40,
      "hit": false,
      "t": 73529.45833333321,
      "d": 4.201683333332767,
      "v": 27
    },
    {
      "midi": 41,
      "hit": false,
      "t": 73575.67684999987,
      "d": 4.201683333332767,
      "v": 28
    },
    {
      "midi": 40,
      "hit": false,
      "t": 73613.49199999939,
      "d": 126.05049999999756,
      "v": 112
    },
    {
      "midi": 41,
      "hit": false,
      "t": 73613.49199999978,
      "d": 252.1009999999951,
      "v": 113
    },
    {
      "midi": 72,
      "hit": false,
      "t": 73613.49199999997,
      "d": 155.46228333332692,
      "v": 104
    },
    {
      "midi": 84,
      "hit": false,
      "t": 73613.49199999997,
      "d": 155.46228333332692,
      "v": 104
    },
    {
      "midi": 72,
      "hit": false,
      "t": 73613.49199999997,
      "d": 155.46228333332692,
      "v": 101
    },
    {
      "midi": 84,
      "hit": false,
      "t": 73613.49199999997,
      "d": 155.46228333332692,
      "v": 101
    },
    {
      "midi": 84,
      "hit": false,
      "t": 73613.492,
      "d": 155.46228333332692,
      "v": 82
    },
    {
      "midi": 40,
      "hit": false,
      "t": 73697.52566666652,
      "d": 4.201683333332767,
      "v": 32
    },
    {
      "midi": 71,
      "hit": false,
      "t": 73739.54249999997,
      "d": 159.6639666666597,
      "v": 70
    },
    {
      "midi": 83,
      "hit": false,
      "t": 73739.54249999997,
      "d": 159.6639666666597,
      "v": 70
    },
    {
      "midi": 71,
      "hit": false,
      "t": 73739.54249999997,
      "d": 159.6639666666597,
      "v": 61
    },
    {
      "midi": 83,
      "hit": false,
      "t": 73739.54249999997,
      "d": 159.6639666666597,
      "v": 61
    },
    {
      "midi": 83,
      "hit": false,
      "t": 73739.5425,
      "d": 159.6639666666597,
      "v": 72
    },
    {
      "midi": 41,
      "hit": false,
      "t": 73743.74418333318,
      "d": 4.201683333332767,
      "v": 33
    },
    {
      "midi": 40,
      "hit": false,
      "t": 73777.35764999985,
      "d": 4.201683333332767,
      "v": 34
    },
    {
      "midi": 41,
      "hit": false,
      "t": 73823.5761666665,
      "d": 4.201683333332767,
      "v": 36
    },
    {
      "midi": 40,
      "hit": false,
      "t": 73857.18963333317,
      "d": 4.201683333332767,
      "v": 37
    },
    {
      "midi": 40,
      "hit": false,
      "t": 73865.59299999938,
      "d": 126.05049999999756,
      "v": 114
    },
    {
      "midi": 42,
      "hit": false,
      "t": 73865.59299999994,
      "d": 126.05049999999756,
      "v": 102
    },
    {
      "midi": 72,
      "hit": false,
      "t": 73865.59299999996,
      "d": 168.06733333332522,
      "v": 109
    },
    {
      "midi": 84,
      "hit": false,
      "t": 73865.59299999996,
      "d": 168.06733333332522,
      "v": 109
    },
    {
      "midi": 72,
      "hit": false,
      "t": 73865.59299999996,
      "d": 168.06733333332522,
      "v": 108
    },
    {
      "midi": 84,
      "hit": false,
      "t": 73865.59299999996,
      "d": 168.06733333332522,
      "v": 108
    },
    {
      "midi": 84,
      "hit": false,
      "t": 73865.593,
      "d": 168.06733333332522,
      "v": 86
    },
    {
      "midi": 41,
      "hit": false,
      "t": 73903.40814999983,
      "d": 4.201683333332767,
      "v": 38
    },
    {
      "midi": 73,
      "hit": false,
      "t": 73991.64349999996,
      "d": 184.87406666667084,
      "v": 79
    },
    {
      "midi": 85,
      "hit": false,
      "t": 73991.64349999996,
      "d": 184.87406666667084,
      "v": 79
    },
    {
      "midi": 73,
      "hit": false,
      "t": 73991.64349999996,
      "d": 184.87406666667084,
      "v": 69
    },
    {
      "midi": 85,
      "hit": false,
      "t": 73991.64349999996,
      "d": 184.87406666667084,
      "v": 69
    },
    {
      "midi": 85,
      "hit": false,
      "t": 73991.64349999999,
      "d": 184.87406666667084,
      "v": 74
    },
    {
      "midi": 40,
      "hit": false,
      "t": 74021.05528333315,
      "d": 8.403366666665534,
      "v": 42
    },
    {
      "midi": 41,
      "hit": false,
      "t": 74067.2737999998,
      "d": 8.403366666665534,
      "v": 43
    },
    {
      "midi": 40,
      "hit": false,
      "t": 74096.68558333314,
      "d": 8.403366666665534,
      "v": 44
    },
    {
      "midi": 40,
      "hit": false,
      "t": 74117.69399999938,
      "d": 126.05049999999756,
      "v": 104
    },
    {
      "midi": 36,
      "hit": false,
      "t": 74117.69399999977,
      "d": 252.1009999999951,
      "v": 100
    },
    {
      "midi": 86,
      "hit": false,
      "t": 74117.69399999996,
      "d": 168.06733333333977,
      "v": 114
    },
    {
      "midi": 74,
      "hit": false,
      "t": 74117.69399999996,
      "d": 168.06733333333977,
      "v": 114
    },
    {
      "midi": 74,
      "hit": false,
      "t": 74117.69399999996,
      "d": 168.06733333333977,
      "v": 114
    },
    {
      "midi": 86,
      "hit": false,
      "t": 74117.69399999996,
      "d": 168.06733333333977,
      "v": 114
    },
    {
      "midi": 86,
      "hit": false,
      "t": 74117.69399999999,
      "d": 168.06733333333977,
      "v": 91
    },
    {
      "midi": 41,
      "hit": false,
      "t": 74142.9040999998,
      "d": 8.403366666665534,
      "v": 46
    },
    {
      "midi": 40,
      "hit": false,
      "t": 74243.74449999937,
      "d": 126.05049999999756,
      "v": 99
    },
    {
      "midi": 85,
      "hit": false,
      "t": 74243.74449999997,
      "d": 147.0589166666614,
      "v": 81
    },
    {
      "midi": 73,
      "hit": false,
      "t": 74243.74449999997,
      "d": 147.0589166666614,
      "v": 81
    },
    {
      "midi": 73,
      "hit": false,
      "t": 74243.74449999997,
      "d": 147.0589166666614,
      "v": 73
    },
    {
      "midi": 85,
      "hit": false,
      "t": 74243.74449999997,
      "d": 147.0589166666614,
      "v": 73
    },
    {
      "midi": 85,
      "hit": false,
      "t": 74243.7445,
      "d": 147.0589166666614,
      "v": 76
    },
    {
      "midi": 40,
      "hit": false,
      "t": 74264.75291666645,
      "d": 8.403366666665534,
      "v": 49
    },
    {
      "midi": 41,
      "hit": false,
      "t": 74310.9714333331,
      "d": 8.403366666665534,
      "v": 51
    },
    {
      "midi": 40,
      "hit": false,
      "t": 74369.79499999937,
      "d": 126.05049999999756,
      "v": 106
    },
    {
      "midi": 42,
      "hit": false,
      "t": 74369.79499999994,
      "d": 126.05049999999756,
      "v": 114
    },
    {
      "midi": 87,
      "hit": false,
      "t": 74369.79499999997,
      "d": 147.0589166666614,
      "v": 118
    },
    {
      "midi": 75,
      "hit": false,
      "t": 74369.79499999997,
      "d": 147.0589166666614,
      "v": 118
    },
    {
      "midi": 75,
      "hit": false,
      "t": 74369.79499999997,
      "d": 147.0589166666614,
      "v": 118
    },
    {
      "midi": 87,
      "hit": false,
      "t": 74369.79499999997,
      "d": 147.0589166666614,
      "v": 118
    },
    {
      "midi": 87,
      "hit": false,
      "t": 74369.795,
      "d": 147.0589166666614,
      "v": 93
    },
    {
      "midi": 40,
      "hit": false,
      "t": 74437.02193333309,
      "d": 4.201683333332767,
      "v": 55
    },
    {
      "midi": 41,
      "hit": false,
      "t": 74483.24044999975,
      "d": 4.201683333332767,
      "v": 56
    },
    {
      "midi": 40,
      "hit": false,
      "t": 74495.84549999937,
      "d": 126.05049999999756,
      "v": 99
    },
    {
      "midi": 76,
      "hit": false,
      "t": 74495.84549999997,
      "d": 147.0589166666614,
      "v": 83
    },
    {
      "midi": 88,
      "hit": false,
      "t": 74495.84549999997,
      "d": 147.0589166666614,
      "v": 83
    },
    {
      "midi": 76,
      "hit": false,
      "t": 74495.84549999997,
      "d": 147.0589166666614,
      "v": 122
    },
    {
      "midi": 88,
      "hit": false,
      "t": 74495.84549999997,
      "d": 147.0589166666614,
      "v": 122
    },
    {
      "midi": 88,
      "hit": false,
      "t": 74495.8455,
      "d": 147.0589166666614,
      "v": 78
    },
    {
      "midi": 40,
      "hit": false,
      "t": 74525.25728333308,
      "d": 84.03366666665534,
      "v": 57
    },
    {
      "midi": 41,
      "hit": false,
      "t": 74571.47579999974,
      "d": 84.03366666665534,
      "v": 59
    },
    {
      "midi": 40,
      "hit": false,
      "t": 74621.89599999937,
      "d": 126.05049999999756,
      "v": 116
    },
    {
      "midi": 41,
      "hit": false,
      "t": 74621.89599999976,
      "d": 126.05049999999756,
      "v": 111
    },
    {
      "midi": 89,
      "hit": false,
      "t": 74621.89599999996,
      "d": 117.64713333333202,
      "v": 122
    },
    {
      "midi": 77,
      "hit": false,
      "t": 74621.89599999996,
      "d": 117.64713333333202,
      "v": 122
    },
    {
      "midi": 77,
      "hit": false,
      "t": 74621.89599999996,
      "d": 117.64713333333202,
      "v": 124
    },
    {
      "midi": 89,
      "hit": false,
      "t": 74621.89599999996,
      "d": 117.64713333333202,
      "v": 124
    },
    {
      "midi": 89,
      "hit": false,
      "t": 74621.896,
      "d": 117.64713333333202,
      "v": 97
    },
    {
      "midi": 36,
      "hit": false,
      "t": 75126.09799999972,
      "d": 109.24376666666649,
      "v": 127
    },
    {
      "midi": 60,
      "hit": false,
      "t": 75630.29999999964,
      "d": 46.218516666660435,
      "v": 127
    },
    {
      "midi": 53,
      "hit": false,
      "t": 75630.29999999965,
      "d": 92.43703333333542,
      "v": 126
    },
    {
      "midi": 60,
      "hit": false,
      "t": 75630.29999999967,
      "d": 46.218516666660435,
      "v": 127
    },
    {
      "midi": 41,
      "hit": false,
      "t": 75630.29999999976,
      "d": 126.05049999999756,
      "v": 119
    },
    {
      "midi": 46,
      "hit": false,
      "t": 75630.29999999994,
      "d": 252.1009999999951,
      "v": 119
    },
    {
      "midi": 35,
      "hit": false,
      "t": 75630.3,
      "d": 63.025250000006054,
      "v": 100
    },
    {
      "midi": 38,
      "hit": false,
      "t": 75630.3,
      "d": 126.05050000001211,
      "v": 127
    },
    {
      "midi": 65,
      "hit": false,
      "t": 75642.90504999964,
      "d": 58.823566666658735,
      "v": 127
    },
    {
      "midi": 60,
      "hit": false,
      "t": 75642.90504999965,
      "d": 92.43703333333542,
      "v": 127
    },
    {
      "midi": 65,
      "hit": false,
      "t": 75642.90504999967,
      "d": 58.823566666658735,
      "v": 127
    },
    {
      "midi": 65,
      "hit": false,
      "t": 75655.51009999965,
      "d": 92.43703333333542,
      "v": 127
    },
    {
      "midi": 40,
      "hit": false,
      "t": 76638.70399999937,
      "d": 126.05049999999756,
      "v": 115
    },
    {
      "midi": 60,
      "hit": false,
      "t": 76638.70399999963,
      "d": 71.42861666667159,
      "v": 116
    },
    {
      "midi": 60,
      "hit": false,
      "t": 76638.70399999966,
      "d": 71.42861666667159,
      "v": 116
    },
    {
      "midi": 41,
      "hit": false,
      "t": 76638.70399999972,
      "d": 126.05049999999756,
      "v": 65
    },
    {
      "midi": 41,
      "hit": false,
      "t": 76638.70399999975,
      "d": 252.1009999999951,
      "v": 115
    },
    {
      "midi": 69,
      "hit": false,
      "t": 76638.70399999995,
      "d": 3046.2204166664887,
      "v": 127
    },
    {
      "midi": 72,
      "hit": false,
      "t": 76651.30904999963,
      "d": 71.42861666667159,
      "v": 116
    },
    {
      "midi": 72,
      "hit": false,
      "t": 76651.30904999966,
      "d": 71.42861666667159,
      "v": 116
    },
    {
      "midi": 40,
      "hit": false,
      "t": 76890.80499999937,
      "d": 126.05049999999756,
      "v": 116
    },
    {
      "midi": 60,
      "hit": false,
      "t": 76890.80499999964,
      "d": 71.42861666667159,
      "v": 101
    },
    {
      "midi": 60,
      "hit": false,
      "t": 76890.80499999967,
      "d": 71.42861666667159,
      "v": 101
    },
    {
      "midi": 42,
      "hit": false,
      "t": 76890.80499999993,
      "d": 126.05049999999756,
      "v": 114
    },
    {
      "midi": 72,
      "hit": false,
      "t": 76903.41004999964,
      "d": 71.42861666667159,
      "v": 102
    },
    {
      "midi": 72,
      "hit": false,
      "t": 76903.41004999967,
      "d": 71.42861666667159,
      "v": 102
    },
    {
      "midi": 40,
      "hit": false,
      "t": 77016.85549999936,
      "d": 126.05049999999756,
      "v": 116
    },
    {
      "midi": 60,
      "hit": false,
      "t": 77016.85549999964,
      "d": 71.42861666667159,
      "v": 79
    },
    {
      "midi": 60,
      "hit": false,
      "t": 77016.85549999967,
      "d": 71.42861666667159,
      "v": 79
    },
    {
      "midi": 72,
      "hit": false,
      "t": 77029.46054999964,
      "d": 71.42861666667159,
      "v": 81
    },
    {
      "midi": 72,
      "hit": false,
      "t": 77029.46054999967,
      "d": 71.42861666667159,
      "v": 81
    },
    {
      "midi": 40,
      "hit": false,
      "t": 77142.90599999936,
      "d": 126.05049999999756,
      "v": 116
    },
    {
      "midi": 25,
      "hit": false,
      "t": 77142.90599999936,
      "d": 630.2525000000023,
      "v": 116
    },
    {
      "midi": 61,
      "hit": false,
      "t": 77142.90599999964,
      "d": 294.11783333333733,
      "v": 103
    },
    {
      "midi": 61,
      "hit": false,
      "t": 77142.90599999967,
      "d": 294.11783333333733,
      "v": 103
    },
    {
      "midi": 36,
      "hit": false,
      "t": 77142.90599999973,
      "d": 126.05049999999756,
      "v": 55
    },
    {
      "midi": 36,
      "hit": false,
      "t": 77142.90599999974,
      "d": 252.1009999999951,
      "v": 103
    },
    {
      "midi": 73,
      "hit": false,
      "t": 77155.51104999964,
      "d": 294.11783333333733,
      "v": 103
    },
    {
      "midi": 73,
      "hit": false,
      "t": 77155.51104999967,
      "d": 294.11783333333733,
      "v": 103
    },
    {
      "midi": 42,
      "hit": false,
      "t": 77395.00699999994,
      "d": 126.05049999999756,
      "v": 104
    },
    {
      "midi": 40,
      "hit": false,
      "t": 77647.10799999937,
      "d": 126.05049999999756,
      "v": 117
    },
    {
      "midi": 62,
      "hit": false,
      "t": 77647.10799999964,
      "d": 71.42861666667159,
      "v": 120
    },
    {
      "midi": 62,
      "hit": false,
      "t": 77647.10799999967,
      "d": 71.42861666667159,
      "v": 120
    },
    {
      "midi": 41,
      "hit": false,
      "t": 77647.10799999973,
      "d": 273.1094166666735,
      "v": 115
    },
    {
      "midi": 41,
      "hit": false,
      "t": 77647.10799999973,
      "d": 126.05049999999756,
      "v": 62
    },
    {
      "midi": 74,
      "hit": false,
      "t": 77659.71304999964,
      "d": 71.42861666667159,
      "v": 120
    },
    {
      "midi": 74,
      "hit": false,
      "t": 77659.71304999967,
      "d": 71.42861666667159,
      "v": 120
    },
    {
      "midi": 40,
      "hit": false,
      "t": 77899.20899999936,
      "d": 126.05049999999756,
      "v": 117
    },
    {
      "midi": 62,
      "hit": false,
      "t": 77899.20899999965,
      "d": 71.42861666667159,
      "v": 83
    },
    {
      "midi": 62,
      "hit": false,
      "t": 77899.20899999968,
      "d": 71.42861666667159,
      "v": 83
    },
    {
      "midi": 42,
      "hit": false,
      "t": 77899.20899999994,
      "d": 126.05049999999756,
      "v": 115
    },
    {
      "midi": 74,
      "hit": false,
      "t": 77911.81404999965,
      "d": 71.42861666667159,
      "v": 84
    },
    {
      "midi": 74,
      "hit": false,
      "t": 77911.81404999968,
      "d": 71.42861666667159,
      "v": 84
    },
    {
      "midi": 40,
      "hit": false,
      "t": 78025.25949999936,
      "d": 126.05049999999756,
      "v": 118
    },
    {
      "midi": 62,
      "hit": false,
      "t": 78025.25949999965,
      "d": 71.42861666667159,
      "v": 92
    },
    {
      "midi": 62,
      "hit": false,
      "t": 78025.25949999968,
      "d": 71.42861666667159,
      "v": 92
    },
    {
      "midi": 74,
      "hit": false,
      "t": 78037.86454999965,
      "d": 71.42861666667159,
      "v": 93
    },
    {
      "midi": 74,
      "hit": false,
      "t": 78037.86454999968,
      "d": 71.42861666667159,
      "v": 93
    },
    {
      "midi": 40,
      "hit": false,
      "t": 78151.30999999936,
      "d": 126.05049999999756,
      "v": 118
    },
    {
      "midi": 25,
      "hit": false,
      "t": 78151.30999999936,
      "d": 504.2020000000048,
      "v": 118
    },
    {
      "midi": 61,
      "hit": false,
      "t": 78151.30999999965,
      "d": 243.69763333332958,
      "v": 104
    },
    {
      "midi": 61,
      "hit": false,
      "t": 78151.30999999968,
      "d": 243.69763333332958,
      "v": 104
    },
    {
      "midi": 36,
      "hit": false,
      "t": 78151.30999999974,
      "d": 252.1009999999951,
      "v": 103
    },
    {
      "midi": 36,
      "hit": false,
      "t": 78151.30999999974,
      "d": 126.05049999999756,
      "v": 55
    },
    {
      "midi": 73,
      "hit": false,
      "t": 78163.91504999965,
      "d": 243.69763333332958,
      "v": 105
    },
    {
      "midi": 73,
      "hit": false,
      "t": 78163.91504999968,
      "d": 243.69763333332958,
      "v": 105
    },
    {
      "midi": 42,
      "hit": false,
      "t": 78403.41099999995,
      "d": 126.05049999999756,
      "v": 102
    },
    {
      "midi": 40,
      "hit": false,
      "t": 78655.51199999936,
      "d": 126.05049999999756,
      "v": 116
    },
    {
      "midi": 60,
      "hit": false,
      "t": 78655.51199999964,
      "d": 71.42861666667159,
      "v": 116
    },
    {
      "midi": 60,
      "hit": false,
      "t": 78655.51199999967,
      "d": 71.42861666667159,
      "v": 116
    },
    {
      "midi": 41,
      "hit": false,
      "t": 78655.51199999973,
      "d": 226.8908999999985,
      "v": 114
    },
    {
      "midi": 41,
      "hit": false,
      "t": 78655.51199999974,
      "d": 126.05049999999756,
      "v": 65
    },
    {
      "midi": 72,
      "hit": false,
      "t": 78668.11704999964,
      "d": 71.42861666667159,
      "v": 116
    },
    {
      "midi": 72,
      "hit": false,
      "t": 78668.11704999967,
      "d": 71.42861666667159,
      "v": 116
    },
    {
      "midi": 40,
      "hit": false,
      "t": 78907.61299999936,
      "d": 126.05049999999756,
      "v": 107
    },
    {
      "midi": 60,
      "hit": false,
      "t": 78907.61299999965,
      "d": 71.42861666667159,
      "v": 91
    },
    {
      "midi": 60,
      "hit": false,
      "t": 78907.61299999968,
      "d": 71.42861666667159,
      "v": 91
    },
    {
      "midi": 42,
      "hit": false,
      "t": 78907.61299999995,
      "d": 126.05049999999756,
      "v": 116
    },
    {
      "midi": 72,
      "hit": false,
      "t": 78920.21804999965,
      "d": 71.42861666667159,
      "v": 91
    },
    {
      "midi": 72,
      "hit": false,
      "t": 78920.21804999968,
      "d": 71.42861666667159,
      "v": 91
    },
    {
      "midi": 40,
      "hit": false,
      "t": 79033.66349999935,
      "d": 126.05049999999756,
      "v": 102
    },
    {
      "midi": 60,
      "hit": false,
      "t": 79033.66349999965,
      "d": 71.42861666667159,
      "v": 95
    },
    {
      "midi": 60,
      "hit": false,
      "t": 79033.66349999967,
      "d": 71.42861666667159,
      "v": 95
    },
    {
      "midi": 72,
      "hit": false,
      "t": 79046.26854999964,
      "d": 71.42861666667159,
      "v": 96
    },
    {
      "midi": 72,
      "hit": false,
      "t": 79046.26854999967,
      "d": 71.42861666667159,
      "v": 96
    },
    {
      "midi": 40,
      "hit": false,
      "t": 79159.71399999935,
      "d": 126.05049999999756,
      "v": 116
    },
    {
      "midi": 61,
      "hit": false,
      "t": 79159.71399999964,
      "d": 71.42861666667159,
      "v": 110
    },
    {
      "midi": 61,
      "hit": false,
      "t": 79159.71399999967,
      "d": 71.42861666667159,
      "v": 110
    },
    {
      "midi": 36,
      "hit": false,
      "t": 79159.71399999973,
      "d": 226.8908999999985,
      "v": 102
    },
    {
      "midi": 36,
      "hit": false,
      "t": 79159.71399999975,
      "d": 126.05049999999756,
      "v": 56
    },
    {
      "midi": 73,
      "hit": false,
      "t": 79172.31904999964,
      "d": 71.42861666667159,
      "v": 110
    },
    {
      "midi": 73,
      "hit": false,
      "t": 79172.31904999967,
      "d": 71.42861666667159,
      "v": 110
    },
    {
      "midi": 40,
      "hit": false,
      "t": 79411.81499999935,
      "d": 126.05049999999756,
      "v": 111
    },
    {
      "midi": 61,
      "hit": false,
      "t": 79411.81499999965,
      "d": 71.42861666667159,
      "v": 100
    },
    {
      "midi": 61,
      "hit": false,
      "t": 79411.81499999968,
      "d": 71.42861666667159,
      "v": 100
    },
    {
      "midi": 42,
      "hit": false,
      "t": 79411.81499999996,
      "d": 126.05049999999756,
      "v": 103
    },
    {
      "midi": 73,
      "hit": false,
      "t": 79424.42004999965,
      "d": 71.42861666667159,
      "v": 100
    },
    {
      "midi": 73,
      "hit": false,
      "t": 79424.42004999968,
      "d": 71.42861666667159,
      "v": 100
    },
    {
      "midi": 40,
      "hit": false,
      "t": 79663.91599999934,
      "d": 126.05049999999756,
      "v": 118
    },
    {
      "midi": 62,
      "hit": false,
      "t": 79663.91599999966,
      "d": 71.42861666667159,
      "v": 118
    },
    {
      "midi": 62,
      "hit": false,
      "t": 79663.91599999969,
      "d": 71.42861666667159,
      "v": 118
    },
    {
      "midi": 41,
      "hit": false,
      "t": 79663.91599999974,
      "d": 126.05049999999756,
      "v": 112
    },
    {
      "midi": 41,
      "hit": false,
      "t": 79663.91599999975,
      "d": 126.05049999999756,
      "v": 63
    },
    {
      "midi": 42,
      "hit": false,
      "t": 79663.91599999995,
      "d": 126.05049999999756,
      "v": 115
    },
    {
      "midi": 74,
      "hit": false,
      "t": 79676.52104999966,
      "d": 71.42861666667159,
      "v": 118
    },
    {
      "midi": 74,
      "hit": false,
      "t": 79676.52104999969,
      "d": 71.42861666667159,
      "v": 118
    },
    {
      "midi": 53,
      "hit": false,
      "t": 80168.11799999965,
      "d": 378.1515000000072,
      "v": 80
    },
    {
      "midi": 57,
      "hit": false,
      "t": 80168.11799999965,
      "d": 394.9582333333383,
      "v": 80
    },
    {
      "midi": 53,
      "hit": false,
      "t": 80168.11799999967,
      "d": 378.15149999999267,
      "v": 85
    },
    {
      "midi": 53,
      "hit": false,
      "t": 80168.1179999997,
      "d": 378.15149999999267,
      "v": 90
    },
    {
      "midi": 33,
      "hit": false,
      "t": 80168.11799999974,
      "d": 378.1515000000072,
      "v": 110
    },
    {
      "midi": 69,
      "hit": false,
      "t": 80168.11799999977,
      "d": 168.06733333332522,
      "v": 110
    },
    {
      "midi": 81,
      "hit": false,
      "t": 80168.11799999999,
      "d": 180.67238333333808,
      "v": 98
    },
    {
      "midi": 57,
      "hit": false,
      "t": 80180.72304999967,
      "d": 378.15149999999267,
      "v": 85
    },
    {
      "midi": 57,
      "hit": false,
      "t": 80180.7230499997,
      "d": 378.15149999999267,
      "v": 92
    },
    {
      "midi": 67,
      "hit": false,
      "t": 80294.16849999977,
      "d": 147.0589166666614,
      "v": 92
    },
    {
      "midi": 79,
      "hit": false,
      "t": 80294.16849999999,
      "d": 184.8740666666854,
      "v": 73
    },
    {
      "midi": 65,
      "hit": false,
      "t": 80420.21899999976,
      "d": 168.06733333332522,
      "v": 107
    },
    {
      "midi": 77,
      "hit": false,
      "t": 80420.219,
      "d": 147.05891666667594,
      "v": 94
    },
    {
      "midi": 64,
      "hit": false,
      "t": 80546.26949999976,
      "d": 172.269016666658,
      "v": 95
    },
    {
      "midi": 76,
      "hit": false,
      "t": 80546.26950000001,
      "d": 147.0589166666614,
      "v": 75
    },
    {
      "midi": 40,
      "hit": false,
      "t": 80672.31999999934,
      "d": 126.05049999999756,
      "v": 87
    },
    {
      "midi": 38,
      "hit": false,
      "t": 80672.31999999975,
      "d": 252.1009999999951,
      "v": 114
    },
    {
      "midi": 62,
      "hit": false,
      "t": 80672.31999999976,
      "d": 105.04208333333372,
      "v": 104
    },
    {
      "midi": 74,
      "hit": false,
      "t": 80672.31999999996,
      "d": 96.63871666666819,
      "v": 105
    },
    {
      "midi": 77,
      "hit": false,
      "t": 80672.31999999996,
      "d": 96.63871666666819,
      "v": 105
    },
    {
      "midi": 74,
      "hit": false,
      "t": 80672.32,
      "d": 147.0589166666614,
      "v": 91
    },
    {
      "midi": 77,
      "hit": false,
      "t": 80672.32,
      "d": 147.0589166666614,
      "v": 89
    },
    {
      "midi": 40,
      "hit": false,
      "t": 80924.42099999933,
      "d": 126.05049999999756,
      "v": 78
    },
    {
      "midi": 65,
      "hit": false,
      "t": 80924.42099999965,
      "d": 92.43703333333542,
      "v": 67
    },
    {
      "midi": 62,
      "hit": false,
      "t": 80924.42099999965,
      "d": 92.43703333333542,
      "v": 67
    },
    {
      "midi": 77,
      "hit": false,
      "t": 80924.42099999996,
      "d": 96.63871666666819,
      "v": 70
    },
    {
      "midi": 74,
      "hit": false,
      "t": 80924.42099999996,
      "d": 96.63871666666819,
      "v": 86
    },
    {
      "midi": 42,
      "hit": false,
      "t": 80924.42099999996,
      "d": 126.05049999999756,
      "v": 112
    },
    {
      "midi": 77,
      "hit": false,
      "t": 80924.421,
      "d": 100.84040000000095,
      "v": 69
    },
    {
      "midi": 40,
      "hit": false,
      "t": 81050.47149999933,
      "d": 126.05049999999756,
      "v": 70
    },
    {
      "midi": 77,
      "hit": false,
      "t": 81050.47149999996,
      "d": 96.63871666666819,
      "v": 97
    },
    {
      "midi": 74,
      "hit": false,
      "t": 81050.47149999996,
      "d": 96.63871666666819,
      "v": 88
    },
    {
      "midi": 77,
      "hit": false,
      "t": 81050.4715,
      "d": 88.23535000000265,
      "v": 73
    },
    {
      "midi": 40,
      "hit": false,
      "t": 81176.52199999933,
      "d": 126.05049999999756,
      "v": 88
    },
    {
      "midi": 33,
      "hit": false,
      "t": 81176.52199999974,
      "d": 252.1009999999951,
      "v": 100
    },
    {
      "midi": 77,
      "hit": false,
      "t": 81176.52199999995,
      "d": 96.63871666666819,
      "v": 108
    },
    {
      "midi": 74,
      "hit": false,
      "t": 81176.52199999995,
      "d": 96.63871666666819,
      "v": 91
    },
    {
      "midi": 77,
      "hit": false,
      "t": 81176.522,
      "d": 147.0589166666614,
      "v": 88
    },
    {
      "midi": 40,
      "hit": false,
      "t": 81428.62299999932,
      "d": 126.05049999999756,
      "v": 80
    },
    {
      "midi": 65,
      "hit": false,
      "t": 81428.62299999966,
      "d": 92.43703333333542,
      "v": 67
    },
    {
      "midi": 62,
      "hit": false,
      "t": 81428.62299999966,
      "d": 92.43703333333542,
      "v": 67
    },
    {
      "midi": 77,
      "hit": false,
      "t": 81428.62299999995,
      "d": 96.63871666666819,
      "v": 86
    },
    {
      "midi": 74,
      "hit": false,
      "t": 81428.62299999995,
      "d": 96.63871666666819,
      "v": 75
    },
    {
      "midi": 42,
      "hit": false,
      "t": 81428.62299999996,
      "d": 126.05049999999756,
      "v": 101
    },
    {
      "midi": 77,
      "hit": false,
      "t": 81428.62299999999,
      "d": 100.84040000000095,
      "v": 70
    },
    {
      "midi": 40,
      "hit": false,
      "t": 81554.67349999932,
      "d": 126.05049999999756,
      "v": 72
    },
    {
      "midi": 74,
      "hit": false,
      "t": 81554.67349999995,
      "d": 96.63871666666819,
      "v": 94
    },
    {
      "midi": 77,
      "hit": false,
      "t": 81554.67349999995,
      "d": 96.63871666666819,
      "v": 104
    },
    {
      "midi": 77,
      "hit": false,
      "t": 81554.67349999999,
      "d": 88.23535000000265,
      "v": 76
    },
    {
      "midi": 40,
      "hit": false,
      "t": 81680.72399999932,
      "d": 126.05049999999756,
      "v": 88
    },
    {
      "midi": 38,
      "hit": false,
      "t": 81680.72399999973,
      "d": 252.1009999999951,
      "v": 114
    },
    {
      "midi": 77,
      "hit": false,
      "t": 81680.72399999994,
      "d": 96.63871666666819,
      "v": 110
    },
    {
      "midi": 74,
      "hit": false,
      "t": 81680.72399999994,
      "d": 96.63871666666819,
      "v": 110
    },
    {
      "midi": 77,
      "hit": false,
      "t": 81680.72399999999,
      "d": 147.0589166666614,
      "v": 92
    },
    {
      "midi": 40,
      "hit": false,
      "t": 81932.82499999931,
      "d": 126.05049999999756,
      "v": 78
    },
    {
      "midi": 65,
      "hit": false,
      "t": 81932.82499999966,
      "d": 92.43703333333542,
      "v": 67
    },
    {
      "midi": 62,
      "hit": false,
      "t": 81932.82499999966,
      "d": 92.43703333333542,
      "v": 67
    },
    {
      "midi": 77,
      "hit": false,
      "t": 81932.82499999994,
      "d": 96.63871666666819,
      "v": 83
    },
    {
      "midi": 74,
      "hit": false,
      "t": 81932.82499999994,
      "d": 96.63871666666819,
      "v": 77
    },
    {
      "midi": 42,
      "hit": false,
      "t": 81932.82499999997,
      "d": 126.05049999999756,
      "v": 112
    },
    {
      "midi": 77,
      "hit": false,
      "t": 81932.82499999998,
      "d": 100.84040000000095,
      "v": 72
    },
    {
      "midi": 40,
      "hit": false,
      "t": 82058.87549999931,
      "d": 126.05049999999756,
      "v": 73
    },
    {
      "midi": 77,
      "hit": false,
      "t": 82058.87549999994,
      "d": 96.63871666666819,
      "v": 106
    },
    {
      "midi": 74,
      "hit": false,
      "t": 82058.87549999994,
      "d": 96.63871666666819,
      "v": 106
    },
    {
      "midi": 77,
      "hit": false,
      "t": 82058.87549999998,
      "d": 88.23535000000265,
      "v": 79
    },
    {
      "midi": 40,
      "hit": false,
      "t": 82184.92599999931,
      "d": 126.05049999999756,
      "v": 88
    },
    {
      "midi": 33,
      "hit": false,
      "t": 82184.92599999972,
      "d": 252.1009999999951,
      "v": 102
    },
    {
      "midi": 77,
      "hit": false,
      "t": 82184.92599999993,
      "d": 96.63871666666819,
      "v": 112
    },
    {
      "midi": 74,
      "hit": false,
      "t": 82184.92599999993,
      "d": 96.63871666666819,
      "v": 112
    },
    {
      "midi": 77,
      "hit": false,
      "t": 82184.92599999998,
      "d": 147.0589166666614,
      "v": 95
    },
    {
      "midi": 40,
      "hit": false,
      "t": 82437.0269999993,
      "d": 126.05049999999756,
      "v": 77
    },
    {
      "midi": 62,
      "hit": false,
      "t": 82437.02699999967,
      "d": 92.43703333333542,
      "v": 67
    },
    {
      "midi": 65,
      "hit": false,
      "t": 82437.02699999967,
      "d": 92.43703333333542,
      "v": 67
    },
    {
      "midi": 74,
      "hit": false,
      "t": 82437.02699999993,
      "d": 96.63871666666819,
      "v": 79
    },
    {
      "midi": 77,
      "hit": false,
      "t": 82437.02699999993,
      "d": 96.63871666666819,
      "v": 81
    },
    {
      "midi": 42,
      "hit": false,
      "t": 82437.02699999997,
      "d": 126.05049999999756,
      "v": 102
    },
    {
      "midi": 77,
      "hit": false,
      "t": 82437.02699999997,
      "d": 100.84040000000095,
      "v": 74
    },
    {
      "midi": 40,
      "hit": false,
      "t": 82563.0774999993,
      "d": 126.05049999999756,
      "v": 71
    },
    {
      "midi": 77,
      "hit": false,
      "t": 82563.07749999993,
      "d": 96.63871666666819,
      "v": 102
    },
    {
      "midi": 74,
      "hit": false,
      "t": 82563.07749999993,
      "d": 96.63871666666819,
      "v": 102
    },
    {
      "midi": 77,
      "hit": false,
      "t": 82563.07749999997,
      "d": 100.84040000000095,
      "v": 81
    },
    {
      "midi": 40,
      "hit": false,
      "t": 82689.1279999993,
      "d": 126.05049999999756,
      "v": 87
    },
    {
      "midi": 38,
      "hit": false,
      "t": 82689.1279999997,
      "d": 252.1009999999951,
      "v": 116
    },
    {
      "midi": 77,
      "hit": false,
      "t": 82689.12799999992,
      "d": 96.63871666666819,
      "v": 111
    },
    {
      "midi": 74,
      "hit": false,
      "t": 82689.12799999992,
      "d": 96.63871666666819,
      "v": 111
    },
    {
      "midi": 77,
      "hit": false,
      "t": 82689.12799999997,
      "d": 147.0589166666614,
      "v": 96
    },
    {
      "midi": 40,
      "hit": false,
      "t": 82941.2289999993,
      "d": 126.05049999999756,
      "v": 78
    },
    {
      "midi": 65,
      "hit": false,
      "t": 82941.22899999967,
      "d": 92.43703333333542,
      "v": 67
    },
    {
      "midi": 62,
      "hit": false,
      "t": 82941.22899999967,
      "d": 92.43703333333542,
      "v": 67
    },
    {
      "midi": 74,
      "hit": false,
      "t": 82941.22899999992,
      "d": 96.63871666666819,
      "v": 87
    },
    {
      "midi": 77,
      "hit": false,
      "t": 82941.22899999992,
      "d": 96.63871666666819,
      "v": 87
    },
    {
      "midi": 77,
      "hit": false,
      "t": 82941.22899999996,
      "d": 100.84040000000095,
      "v": 78
    },
    {
      "midi": 42,
      "hit": false,
      "t": 82941.22899999998,
      "d": 126.05049999999756,
      "v": 112
    },
    {
      "midi": 40,
      "hit": false,
      "t": 83067.27949999929,
      "d": 126.05049999999756,
      "v": 70
    },
    {
      "midi": 74,
      "hit": false,
      "t": 83067.27949999992,
      "d": 96.63871666666819,
      "v": 97
    },
    {
      "midi": 77,
      "hit": false,
      "t": 83067.27949999992,
      "d": 96.63871666666819,
      "v": 104
    },
    {
      "midi": 77,
      "hit": false,
      "t": 83067.27949999996,
      "d": 88.23535000000265,
      "v": 84
    },
    {
      "midi": 40,
      "hit": false,
      "t": 83193.32999999929,
      "d": 126.05049999999756,
      "v": 88
    },
    {
      "midi": 33,
      "hit": false,
      "t": 83193.3299999997,
      "d": 252.1009999999951,
      "v": 101
    },
    {
      "midi": 77,
      "hit": false,
      "t": 83193.32999999991,
      "d": 96.63871666666819,
      "v": 110
    },
    {
      "midi": 74,
      "hit": false,
      "t": 83193.32999999991,
      "d": 96.63871666666819,
      "v": 110
    },
    {
      "midi": 77,
      "hit": false,
      "t": 83193.32999999996,
      "d": 147.0589166666614,
      "v": 97
    },
    {
      "midi": 40,
      "hit": false,
      "t": 83445.43099999928,
      "d": 126.05049999999756,
      "v": 80
    },
    {
      "midi": 62,
      "hit": false,
      "t": 83445.43099999968,
      "d": 92.43703333333542,
      "v": 67
    },
    {
      "midi": 65,
      "hit": false,
      "t": 83445.43099999968,
      "d": 92.43703333333542,
      "v": 67
    },
    {
      "midi": 77,
      "hit": false,
      "t": 83445.43099999991,
      "d": 96.63871666666819,
      "v": 86
    },
    {
      "midi": 74,
      "hit": false,
      "t": 83445.43099999991,
      "d": 96.63871666666819,
      "v": 88
    },
    {
      "midi": 77,
      "hit": false,
      "t": 83445.43099999995,
      "d": 100.84040000000095,
      "v": 75
    },
    {
      "midi": 42,
      "hit": false,
      "t": 83445.43099999998,
      "d": 126.05049999999756,
      "v": 101
    },
    {
      "midi": 40,
      "hit": false,
      "t": 83571.48149999928,
      "d": 126.05049999999756,
      "v": 72
    },
    {
      "midi": 77,
      "hit": false,
      "t": 83571.4814999999,
      "d": 96.63871666666819,
      "v": 105
    },
    {
      "midi": 74,
      "hit": false,
      "t": 83571.4814999999,
      "d": 96.63871666666819,
      "v": 105
    },
    {
      "midi": 77,
      "hit": false,
      "t": 83571.48149999995,
      "d": 88.23535000000265,
      "v": 81
    },
    {
      "midi": 40,
      "hit": false,
      "t": 83697.53199999928,
      "d": 126.05049999999756,
      "v": 88
    },
    {
      "midi": 38,
      "hit": false,
      "t": 83697.53199999969,
      "d": 252.1009999999951,
      "v": 115
    },
    {
      "midi": 74,
      "hit": false,
      "t": 83697.5319999999,
      "d": 96.63871666666819,
      "v": 110
    },
    {
      "midi": 77,
      "hit": false,
      "t": 83697.5319999999,
      "d": 96.63871666666819,
      "v": 110
    },
    {
      "midi": 77,
      "hit": false,
      "t": 83697.53199999995,
      "d": 147.0589166666614,
      "v": 99
    },
    {
      "midi": 40,
      "hit": false,
      "t": 83949.63299999927,
      "d": 126.05049999999756,
      "v": 78
    },
    {
      "midi": 65,
      "hit": false,
      "t": 83949.63299999968,
      "d": 92.43703333333542,
      "v": 67
    },
    {
      "midi": 62,
      "hit": false,
      "t": 83949.63299999968,
      "d": 92.43703333333542,
      "v": 67
    },
    {
      "midi": 74,
      "hit": false,
      "t": 83949.6329999999,
      "d": 96.63871666666819,
      "v": 91
    },
    {
      "midi": 77,
      "hit": false,
      "t": 83949.6329999999,
      "d": 96.63871666666819,
      "v": 88
    },
    {
      "midi": 77,
      "hit": false,
      "t": 83949.63299999994,
      "d": 100.84040000000095,
      "v": 78
    },
    {
      "midi": 42,
      "hit": false,
      "t": 83949.63299999999,
      "d": 126.05049999999756,
      "v": 113
    },
    {
      "midi": 40,
      "hit": false,
      "t": 84075.68349999927,
      "d": 126.05049999999756,
      "v": 73
    },
    {
      "midi": 74,
      "hit": false,
      "t": 84075.6834999999,
      "d": 96.63871666666819,
      "v": 101
    },
    {
      "midi": 77,
      "hit": false,
      "t": 84075.6834999999,
      "d": 96.63871666666819,
      "v": 101
    },
    {
      "midi": 77,
      "hit": false,
      "t": 84075.68349999994,
      "d": 88.23535000000265,
      "v": 86
    },
    {
      "midi": 40,
      "hit": false,
      "t": 84201.73399999927,
      "d": 126.05049999999756,
      "v": 88
    },
    {
      "midi": 33,
      "hit": false,
      "t": 84201.73399999968,
      "d": 252.1009999999951,
      "v": 101
    },
    {
      "midi": 74,
      "hit": false,
      "t": 84201.7339999999,
      "d": 96.63871666666819,
      "v": 109
    },
    {
      "midi": 77,
      "hit": false,
      "t": 84201.7339999999,
      "d": 96.63871666666819,
      "v": 109
    },
    {
      "midi": 77,
      "hit": false,
      "t": 84201.73399999994,
      "d": 147.0589166666614,
      "v": 98
    },
    {
      "midi": 40,
      "hit": false,
      "t": 84453.83499999926,
      "d": 126.05049999999756,
      "v": 77
    },
    {
      "midi": 62,
      "hit": false,
      "t": 84453.83499999969,
      "d": 92.43703333333542,
      "v": 67
    },
    {
      "midi": 65,
      "hit": false,
      "t": 84453.83499999969,
      "d": 92.43703333333542,
      "v": 67
    },
    {
      "midi": 74,
      "hit": false,
      "t": 84453.83499999989,
      "d": 96.63871666666819,
      "v": 94
    },
    {
      "midi": 77,
      "hit": false,
      "t": 84453.83499999989,
      "d": 96.63871666666819,
      "v": 91
    },
    {
      "midi": 77,
      "hit": false,
      "t": 84453.83499999993,
      "d": 100.84040000000095,
      "v": 76
    },
    {
      "midi": 42,
      "hit": false,
      "t": 84453.83499999999,
      "d": 126.05049999999756,
      "v": 104
    },
    {
      "midi": 40,
      "hit": false,
      "t": 84579.88549999926,
      "d": 126.05049999999756,
      "v": 71
    },
    {
      "midi": 74,
      "hit": false,
      "t": 84579.88549999989,
      "d": 96.63871666666819,
      "v": 104
    },
    {
      "midi": 77,
      "hit": false,
      "t": 84579.88549999989,
      "d": 96.63871666666819,
      "v": 104
    },
    {
      "midi": 77,
      "hit": false,
      "t": 84579.88549999993,
      "d": 100.84040000000095,
      "v": 86
    },
    {
      "midi": 40,
      "hit": false,
      "t": 84705.93599999926,
      "d": 126.05049999999756,
      "v": 87
    },
    {
      "midi": 38,
      "hit": false,
      "t": 84705.93599999967,
      "d": 273.1094166666735,
      "v": 111
    },
    {
      "midi": 77,
      "hit": false,
      "t": 84705.93599999989,
      "d": 96.63871666666819,
      "v": 111
    },
    {
      "midi": 74,
      "hit": false,
      "t": 84705.93599999989,
      "d": 96.63871666666819,
      "v": 111
    },
    {
      "midi": 77,
      "hit": false,
      "t": 84705.93599999993,
      "d": 147.0589166666614,
      "v": 105
    },
    {
      "midi": 68,
      "hit": false,
      "t": 84705.93599999996,
      "d": 105.04208333333372,
      "v": 114
    },
    {
      "midi": 40,
      "hit": false,
      "t": 84958.03699999925,
      "d": 126.05049999999756,
      "v": 78
    },
    {
      "midi": 62,
      "hit": false,
      "t": 84958.03699999969,
      "d": 92.43703333333542,
      "v": 67
    },
    {
      "midi": 65,
      "hit": false,
      "t": 84958.03699999969,
      "d": 92.43703333333542,
      "v": 67
    },
    {
      "midi": 74,
      "hit": false,
      "t": 84958.03699999988,
      "d": 96.63871666666819,
      "v": 91
    },
    {
      "midi": 77,
      "hit": false,
      "t": 84958.03699999988,
      "d": 96.63871666666819,
      "v": 94
    },
    {
      "midi": 77,
      "hit": false,
      "t": 84958.03699999992,
      "d": 100.84040000000095,
      "v": 82
    },
    {
      "midi": 42,
      "hit": false,
      "t": 84958.037,
      "d": 126.05049999999756,
      "v": 113
    },
    {
      "midi": 40,
      "hit": false,
      "t": 85084.08749999925,
      "d": 126.05049999999756,
      "v": 70
    },
    {
      "midi": 74,
      "hit": false,
      "t": 85084.08749999988,
      "d": 96.63871666666819,
      "v": 103
    },
    {
      "midi": 77,
      "hit": false,
      "t": 85084.08749999988,
      "d": 96.63871666666819,
      "v": 103
    },
    {
      "midi": 77,
      "hit": false,
      "t": 85084.08749999992,
      "d": 88.23535000000265,
      "v": 88
    },
    {
      "midi": 69,
      "hit": false,
      "t": 85084.08749999997,
      "d": 126.05049999999756,
      "v": 90
    },
    {
      "midi": 40,
      "hit": false,
      "t": 85210.13799999925,
      "d": 126.05049999999756,
      "v": 88
    },
    {
      "midi": 33,
      "hit": false,
      "t": 85210.13799999967,
      "d": 252.1009999999951,
      "v": 101
    },
    {
      "midi": 77,
      "hit": false,
      "t": 85210.13799999988,
      "d": 96.63871666666819,
      "v": 109
    },
    {
      "midi": 74,
      "hit": false,
      "t": 85210.13799999988,
      "d": 96.63871666666819,
      "v": 109
    },
    {
      "midi": 77,
      "hit": false,
      "t": 85210.13799999992,
      "d": 147.0589166666614,
      "v": 107
    },
    {
      "midi": 70,
      "hit": false,
      "t": 85210.13799999996,
      "d": 378.1515000000072,
      "v": 111
    },
    {
      "midi": 40,
      "hit": false,
      "t": 85462.23899999924,
      "d": 126.05049999999756,
      "v": 80
    },
    {
      "midi": 65,
      "hit": false,
      "t": 85462.2389999997,
      "d": 92.43703333333542,
      "v": 66
    },
    {
      "midi": 62,
      "hit": false,
      "t": 85462.2389999997,
      "d": 92.43703333333542,
      "v": 66
    },
    {
      "midi": 74,
      "hit": false,
      "t": 85462.23899999987,
      "d": 96.63871666666819,
      "v": 86
    },
    {
      "midi": 77,
      "hit": false,
      "t": 85462.23899999987,
      "d": 96.63871666666819,
      "v": 83
    },
    {
      "midi": 77,
      "hit": false,
      "t": 85462.23899999991,
      "d": 100.84040000000095,
      "v": 81
    },
    {
      "midi": 42,
      "hit": false,
      "t": 85462.239,
      "d": 126.05049999999756,
      "v": 102
    },
    {
      "midi": 40,
      "hit": false,
      "t": 85588.28949999924,
      "d": 126.05049999999756,
      "v": 72
    },
    {
      "midi": 77,
      "hit": false,
      "t": 85588.28949999987,
      "d": 96.63871666666819,
      "v": 100
    },
    {
      "midi": 74,
      "hit": false,
      "t": 85588.28949999987,
      "d": 96.63871666666819,
      "v": 100
    },
    {
      "midi": 77,
      "hit": false,
      "t": 85588.28949999991,
      "d": 88.23535000000265,
      "v": 88
    },
    {
      "midi": 69,
      "hit": false,
      "t": 85588.28949999997,
      "d": 126.05049999999756,
      "v": 97
    },
    {
      "midi": 40,
      "hit": false,
      "t": 85714.33999999924,
      "d": 126.05049999999756,
      "v": 88
    },
    {
      "midi": 38,
      "hit": false,
      "t": 85714.33999999966,
      "d": 252.1009999999951,
      "v": 112
    },
    {
      "midi": 74,
      "hit": false,
      "t": 85714.33999999987,
      "d": 96.63871666666819,
      "v": 109
    },
    {
      "midi": 77,
      "hit": false,
      "t": 85714.33999999987,
      "d": 96.63871666666819,
      "v": 109
    },
    {
      "midi": 77,
      "hit": false,
      "t": 85714.33999999991,
      "d": 147.0589166666614,
      "v": 106
    },
    {
      "midi": 68,
      "hit": false,
      "t": 85714.33999999997,
      "d": 105.04208333333372,
      "v": 112
    },
    {
      "midi": 40,
      "hit": false,
      "t": 85966.44099999923,
      "d": 126.05049999999756,
      "v": 78
    },
    {
      "midi": 62,
      "hit": false,
      "t": 85966.4409999997,
      "d": 92.43703333333542,
      "v": 66
    },
    {
      "midi": 65,
      "hit": false,
      "t": 85966.4409999997,
      "d": 92.43703333333542,
      "v": 66
    },
    {
      "midi": 74,
      "hit": false,
      "t": 85966.44099999986,
      "d": 96.63871666666819,
      "v": 91
    },
    {
      "midi": 77,
      "hit": false,
      "t": 85966.44099999986,
      "d": 96.63871666666819,
      "v": 91
    },
    {
      "midi": 77,
      "hit": false,
      "t": 85966.4409999999,
      "d": 100.84040000000095,
      "v": 82
    },
    {
      "midi": 42,
      "hit": false,
      "t": 85966.441,
      "d": 126.05049999999756,
      "v": 112
    },
    {
      "midi": 40,
      "hit": false,
      "t": 86092.49149999923,
      "d": 126.05049999999756,
      "v": 73
    },
    {
      "midi": 77,
      "hit": false,
      "t": 86092.49149999986,
      "d": 96.63871666666819,
      "v": 100
    },
    {
      "midi": 74,
      "hit": false,
      "t": 86092.49149999986,
      "d": 96.63871666666819,
      "v": 100
    },
    {
      "midi": 77,
      "hit": false,
      "t": 86092.4914999999,
      "d": 88.23535000000265,
      "v": 87
    },
    {
      "midi": 69,
      "hit": false,
      "t": 86092.49149999997,
      "d": 126.05049999999756,
      "v": 91
    },
    {
      "midi": 40,
      "hit": false,
      "t": 86218.54199999923,
      "d": 126.05049999999756,
      "v": 88
    },
    {
      "midi": 33,
      "hit": false,
      "t": 86218.54199999965,
      "d": 252.1009999999951,
      "v": 102
    },
    {
      "midi": 77,
      "hit": false,
      "t": 86218.54199999986,
      "d": 96.63871666666819,
      "v": 111
    },
    {
      "midi": 74,
      "hit": false,
      "t": 86218.54199999986,
      "d": 96.63871666666819,
      "v": 111
    },
    {
      "midi": 77,
      "hit": false,
      "t": 86218.5419999999,
      "d": 147.0589166666614,
      "v": 108
    },
    {
      "midi": 70,
      "hit": false,
      "t": 86218.54199999997,
      "d": 378.1515000000072,
      "v": 112
    },
    {
      "midi": 40,
      "hit": false,
      "t": 86470.64299999923,
      "d": 126.05049999999756,
      "v": 77
    },
    {
      "midi": 62,
      "hit": false,
      "t": 86470.6429999997,
      "d": 92.43703333333542,
      "v": 66
    },
    {
      "midi": 65,
      "hit": false,
      "t": 86470.6429999997,
      "d": 92.43703333333542,
      "v": 66
    },
    {
      "midi": 74,
      "hit": false,
      "t": 86470.64299999985,
      "d": 96.63871666666819,
      "v": 88
    },
    {
      "midi": 77,
      "hit": false,
      "t": 86470.64299999985,
      "d": 96.63871666666819,
      "v": 88
    },
    {
      "midi": 77,
      "hit": false,
      "t": 86470.6429999999,
      "d": 100.84040000000095,
      "v": 81
    },
    {
      "midi": 42,
      "hit": false,
      "t": 86470.64300000001,
      "d": 126.05049999999756,
      "v": 102
    },
    {
      "midi": 40,
      "hit": false,
      "t": 86596.69349999922,
      "d": 126.05049999999756,
      "v": 71
    },
    {
      "midi": 77,
      "hit": false,
      "t": 86596.69349999985,
      "d": 96.63871666666819,
      "v": 99
    },
    {
      "midi": 74,
      "hit": false,
      "t": 86596.69349999985,
      "d": 96.63871666666819,
      "v": 99
    },
    {
      "midi": 77,
      "hit": false,
      "t": 86596.69349999989,
      "d": 100.84040000000095,
      "v": 89
    },
    {
      "midi": 69,
      "hit": false,
      "t": 86596.69349999998,
      "d": 126.05049999999756,
      "v": 95
    },
    {
      "midi": 40,
      "hit": false,
      "t": 86722.74399999922,
      "d": 126.05049999999756,
      "v": 87
    },
    {
      "midi": 38,
      "hit": false,
      "t": 86722.74399999964,
      "d": 252.1009999999951,
      "v": 112
    },
    {
      "midi": 74,
      "hit": false,
      "t": 86722.74399999985,
      "d": 96.63871666666819,
      "v": 109
    },
    {
      "midi": 77,
      "hit": false,
      "t": 86722.74399999985,
      "d": 96.63871666666819,
      "v": 109
    },
    {
      "midi": 77,
      "hit": false,
      "t": 86722.74399999989,
      "d": 147.0589166666614,
      "v": 105
    },
    {
      "midi": 68,
      "hit": false,
      "t": 86722.74399999998,
      "d": 105.04208333333372,
      "v": 111
    },
    {
      "midi": 40,
      "hit": false,
      "t": 86974.84499999922,
      "d": 126.05049999999756,
      "v": 78
    },
    {
      "midi": 62,
      "hit": false,
      "t": 86974.84499999971,
      "d": 92.43703333333542,
      "v": 66
    },
    {
      "midi": 65,
      "hit": false,
      "t": 86974.84499999971,
      "d": 92.43703333333542,
      "v": 66
    },
    {
      "midi": 77,
      "hit": false,
      "t": 86974.84499999984,
      "d": 96.63871666666819,
      "v": 87
    },
    {
      "midi": 74,
      "hit": false,
      "t": 86974.84499999984,
      "d": 96.63871666666819,
      "v": 87
    },
    {
      "midi": 77,
      "hit": false,
      "t": 86974.84499999988,
      "d": 100.84040000000095,
      "v": 82
    },
    {
      "midi": 69,
      "hit": false,
      "t": 86974.84499999997,
      "d": 105.04208333333372,
      "v": 104
    },
    {
      "midi": 42,
      "hit": false,
      "t": 86974.84500000002,
      "d": 126.05049999999756,
      "v": 113
    },
    {
      "midi": 40,
      "hit": false,
      "t": 87100.89549999921,
      "d": 126.05049999999756,
      "v": 70
    },
    {
      "midi": 74,
      "hit": false,
      "t": 87100.89549999984,
      "d": 96.63871666666819,
      "v": 101
    },
    {
      "midi": 77,
      "hit": false,
      "t": 87100.89549999984,
      "d": 96.63871666666819,
      "v": 101
    },
    {
      "midi": 77,
      "hit": false,
      "t": 87100.89549999988,
      "d": 88.23535000000265,
      "v": 88
    },
    {
      "midi": 40,
      "hit": false,
      "t": 87226.94599999921,
      "d": 126.05049999999756,
      "v": 88
    },
    {
      "midi": 33,
      "hit": false,
      "t": 87226.94599999963,
      "d": 285.7144666666718,
      "v": 100
    },
    {
      "midi": 74,
      "hit": false,
      "t": 87226.94599999984,
      "d": 96.63871666666819,
      "v": 108
    },
    {
      "midi": 77,
      "hit": false,
      "t": 87226.94599999984,
      "d": 96.63871666666819,
      "v": 108
    },
    {
      "midi": 77,
      "hit": false,
      "t": 87226.94599999988,
      "d": 147.0589166666614,
      "v": 107
    },
    {
      "midi": 77,
      "hit": false,
      "t": 87226.94599999997,
      "d": 378.1515000000072,
      "v": 118
    },
    {
      "midi": 40,
      "hit": false,
      "t": 87479.0469999992,
      "d": 126.05049999999756,
      "v": 80
    },
    {
      "midi": 62,
      "hit": false,
      "t": 87479.04699999971,
      "d": 92.43703333333542,
      "v": 66
    },
    {
      "midi": 65,
      "hit": false,
      "t": 87479.04699999971,
      "d": 92.43703333333542,
      "v": 66
    },
    {
      "midi": 74,
      "hit": false,
      "t": 87479.04699999983,
      "d": 96.63871666666819,
      "v": 92
    },
    {
      "midi": 77,
      "hit": false,
      "t": 87479.04699999983,
      "d": 96.63871666666819,
      "v": 92
    },
    {
      "midi": 77,
      "hit": false,
      "t": 87479.04699999987,
      "d": 100.84040000000095,
      "v": 81
    },
    {
      "midi": 42,
      "hit": false,
      "t": 87479.04700000002,
      "d": 126.05049999999756,
      "v": 101
    },
    {
      "midi": 40,
      "hit": false,
      "t": 87605.0974999992,
      "d": 126.05049999999756,
      "v": 72
    },
    {
      "midi": 74,
      "hit": false,
      "t": 87605.09749999983,
      "d": 96.63871666666819,
      "v": 103
    },
    {
      "midi": 77,
      "hit": false,
      "t": 87605.09749999983,
      "d": 96.63871666666819,
      "v": 103
    },
    {
      "midi": 77,
      "hit": false,
      "t": 87605.09749999987,
      "d": 88.23535000000265,
      "v": 88
    },
    {
      "midi": 76,
      "hit": false,
      "t": 87605.09749999997,
      "d": 126.05049999999756,
      "v": 111
    },
    {
      "midi": 40,
      "hit": false,
      "t": 87731.1479999992,
      "d": 126.05049999999756,
      "v": 88
    },
    {
      "midi": 38,
      "hit": false,
      "t": 87731.14799999964,
      "d": 273.1094166666735,
      "v": 113
    },
    {
      "midi": 74,
      "hit": false,
      "t": 87731.14799999983,
      "d": 96.63871666666819,
      "v": 107
    },
    {
      "midi": 77,
      "hit": false,
      "t": 87731.14799999983,
      "d": 96.63871666666819,
      "v": 107
    },
    {
      "midi": 77,
      "hit": false,
      "t": 87731.14799999987,
      "d": 147.0589166666614,
      "v": 106
    },
    {
      "midi": 74,
      "hit": false,
      "t": 87731.14799999997,
      "d": 441.1767499999987,
      "v": 101
    },
    {
      "midi": 40,
      "hit": false,
      "t": 87983.2489999992,
      "d": 126.05049999999756,
      "v": 78
    },
    {
      "midi": 69,
      "hit": false,
      "t": 87983.24899999966,
      "d": 466.38684999998077,
      "v": 120
    },
    {
      "midi": 69,
      "hit": false,
      "t": 87983.24899999969,
      "d": 466.38684999998077,
      "v": 120
    },
    {
      "midi": 62,
      "hit": false,
      "t": 87983.24899999972,
      "d": 92.43703333333542,
      "v": 66
    },
    {
      "midi": 65,
      "hit": false,
      "t": 87983.24899999972,
      "d": 92.43703333333542,
      "v": 66
    },
    {
      "midi": 74,
      "hit": false,
      "t": 87983.24899999982,
      "d": 96.63871666666819,
      "v": 87
    },
    {
      "midi": 77,
      "hit": false,
      "t": 87983.24899999982,
      "d": 96.63871666666819,
      "v": 87
    },
    {
      "midi": 77,
      "hit": false,
      "t": 87983.24899999987,
      "d": 100.84040000000095,
      "v": 82
    },
    {
      "midi": 42,
      "hit": false,
      "t": 87983.24900000003,
      "d": 126.05049999999756,
      "v": 112
    },
    {
      "midi": 74,
      "hit": false,
      "t": 87995.85404999966,
      "d": 453.78179999998247,
      "v": 120
    },
    {
      "midi": 74,
      "hit": false,
      "t": 87995.85404999969,
      "d": 453.78179999998247,
      "v": 120
    },
    {
      "midi": 40,
      "hit": false,
      "t": 88109.2994999992,
      "d": 126.05049999999756,
      "v": 73
    },
    {
      "midi": 74,
      "hit": false,
      "t": 88109.29949999982,
      "d": 96.63871666666819,
      "v": 101
    },
    {
      "midi": 77,
      "hit": false,
      "t": 88109.29949999982,
      "d": 96.63871666666819,
      "v": 101
    },
    {
      "midi": 77,
      "hit": false,
      "t": 88109.29949999986,
      "d": 88.23535000000265,
      "v": 87
    },
    {
      "midi": 40,
      "hit": false,
      "t": 88235.34999999919,
      "d": 126.05049999999756,
      "v": 88
    },
    {
      "midi": 33,
      "hit": false,
      "t": 88235.34999999964,
      "d": 285.7144666666718,
      "v": 101
    },
    {
      "midi": 77,
      "hit": false,
      "t": 88235.34999999982,
      "d": 96.63871666666819,
      "v": 109
    },
    {
      "midi": 74,
      "hit": false,
      "t": 88235.34999999982,
      "d": 96.63871666666819,
      "v": 109
    },
    {
      "midi": 77,
      "hit": false,
      "t": 88235.34999999986,
      "d": 147.0589166666614,
      "v": 108
    },
    {
      "midi": 40,
      "hit": false,
      "t": 88487.45099999919,
      "d": 126.05049999999756,
      "v": 77
    },
    {
      "midi": 62,
      "hit": false,
      "t": 88487.45099999972,
      "d": 92.43703333333542,
      "v": 66
    },
    {
      "midi": 65,
      "hit": false,
      "t": 88487.45099999972,
      "d": 92.43703333333542,
      "v": 66
    },
    {
      "midi": 74,
      "hit": false,
      "t": 88487.45099999981,
      "d": 96.63871666666819,
      "v": 88
    },
    {
      "midi": 77,
      "hit": false,
      "t": 88487.45099999981,
      "d": 96.63871666666819,
      "v": 88
    },
    {
      "midi": 77,
      "hit": false,
      "t": 88487.45099999986,
      "d": 100.84040000000095,
      "v": 81
    },
    {
      "midi": 73,
      "hit": false,
      "t": 88487.45099999997,
      "d": 176.47069999999076,
      "v": 111
    },
    {
      "midi": 42,
      "hit": false,
      "t": 88487.45100000003,
      "d": 126.05049999999756,
      "v": 102
    },
    {
      "midi": 40,
      "hit": false,
      "t": 88613.50149999918,
      "d": 126.05049999999756,
      "v": 71
    },
    {
      "midi": 74,
      "hit": false,
      "t": 88613.50149999981,
      "d": 96.63871666666819,
      "v": 100
    },
    {
      "midi": 77,
      "hit": false,
      "t": 88613.50149999981,
      "d": 96.63871666666819,
      "v": 100
    },
    {
      "midi": 77,
      "hit": false,
      "t": 88613.50149999985,
      "d": 100.84040000000095,
      "v": 89
    },
    {
      "midi": 74,
      "hit": false,
      "t": 88613.50149999997,
      "d": 126.05049999999756,
      "v": 102
    },
    {
      "midi": 40,
      "hit": false,
      "t": 88739.55199999918,
      "d": 126.05049999999756,
      "v": 87
    },
    {
      "midi": 40,
      "hit": false,
      "t": 88739.55199999965,
      "d": 252.1009999999951,
      "v": 113
    },
    {
      "midi": 73,
      "hit": false,
      "t": 88739.5519999998,
      "d": 96.63871666666819,
      "v": 107
    },
    {
      "midi": 76,
      "hit": false,
      "t": 88739.5519999998,
      "d": 96.63871666666819,
      "v": 107
    },
    {
      "midi": 76,
      "hit": false,
      "t": 88739.55199999985,
      "d": 109.24376666666649,
      "v": 106
    },
    {
      "midi": 76,
      "hit": false,
      "t": 88739.55199999997,
      "d": 92.43703333333542,
      "v": 113
    },
    {
      "midi": 40,
      "hit": false,
      "t": 88991.65299999918,
      "d": 126.05049999999756,
      "v": 78
    },
    {
      "midi": 64,
      "hit": false,
      "t": 88991.65299999973,
      "d": 92.43703333333542,
      "v": 66
    },
    {
      "midi": 61,
      "hit": false,
      "t": 88991.65299999973,
      "d": 92.43703333333542,
      "v": 66
    },
    {
      "midi": 76,
      "hit": false,
      "t": 88991.6529999998,
      "d": 96.63871666666819,
      "v": 89
    },
    {
      "midi": 73,
      "hit": false,
      "t": 88991.6529999998,
      "d": 96.63871666666819,
      "v": 89
    },
    {
      "midi": 76,
      "hit": false,
      "t": 88991.65299999985,
      "d": 109.24376666666649,
      "v": 78
    },
    {
      "midi": 69,
      "hit": false,
      "t": 88991.65299999996,
      "d": 84.03366666666989,
      "v": 101
    },
    {
      "midi": 42,
      "hit": false,
      "t": 88991.65300000003,
      "d": 126.05049999999756,
      "v": 113
    },
    {
      "midi": 40,
      "hit": false,
      "t": 89117.70349999917,
      "d": 126.05049999999756,
      "v": 70
    },
    {
      "midi": 76,
      "hit": false,
      "t": 89117.7034999998,
      "d": 96.63871666666819,
      "v": 99
    },
    {
      "midi": 73,
      "hit": false,
      "t": 89117.7034999998,
      "d": 96.63871666666819,
      "v": 99
    },
    {
      "midi": 76,
      "hit": false,
      "t": 89117.70349999984,
      "d": 109.24376666666649,
      "v": 84
    },
    {
      "midi": 40,
      "hit": false,
      "t": 89243.75399999917,
      "d": 126.05049999999756,
      "v": 88
    },
    {
      "midi": 33,
      "hit": false,
      "t": 89243.75399999964,
      "d": 273.1094166666735,
      "v": 100
    },
    {
      "midi": 76,
      "hit": false,
      "t": 89243.7539999998,
      "d": 96.63871666666819,
      "v": 108
    },
    {
      "midi": 73,
      "hit": false,
      "t": 89243.7539999998,
      "d": 96.63871666666819,
      "v": 108
    },
    {
      "midi": 76,
      "hit": false,
      "t": 89243.75399999984,
      "d": 109.24376666666649,
      "v": 106
    },
    {
      "midi": 68,
      "hit": false,
      "t": 89243.75399999997,
      "d": 378.1515000000072,
      "v": 109
    },
    {
      "midi": 40,
      "hit": false,
      "t": 89495.85499999917,
      "d": 126.05049999999756,
      "v": 80
    },
    {
      "midi": 61,
      "hit": false,
      "t": 89495.85499999973,
      "d": 92.43703333333542,
      "v": 66
    },
    {
      "midi": 64,
      "hit": false,
      "t": 89495.85499999973,
      "d": 92.43703333333542,
      "v": 66
    },
    {
      "midi": 73,
      "hit": false,
      "t": 89495.85499999979,
      "d": 96.63871666666819,
      "v": 92
    },
    {
      "midi": 76,
      "hit": false,
      "t": 89495.85499999979,
      "d": 96.63871666666819,
      "v": 92
    },
    {
      "midi": 76,
      "hit": false,
      "t": 89495.85499999984,
      "d": 109.24376666666649,
      "v": 78
    },
    {
      "midi": 42,
      "hit": false,
      "t": 89495.85500000004,
      "d": 126.05049999999756,
      "v": 102
    },
    {
      "midi": 40,
      "hit": false,
      "t": 89621.90549999916,
      "d": 126.05049999999756,
      "v": 72
    },
    {
      "midi": 73,
      "hit": false,
      "t": 89621.90549999979,
      "d": 96.63871666666819,
      "v": 102
    },
    {
      "midi": 76,
      "hit": false,
      "t": 89621.90549999979,
      "d": 96.63871666666819,
      "v": 102
    },
    {
      "midi": 76,
      "hit": false,
      "t": 89621.90549999983,
      "d": 109.24376666666649,
      "v": 86
    },
    {
      "midi": 69,
      "hit": false,
      "t": 89621.90549999998,
      "d": 88.23535000000265,
      "v": 111
    },
    {
      "midi": 40,
      "hit": false,
      "t": 89747.95599999916,
      "d": 126.05049999999756,
      "v": 88
    },
    {
      "midi": 40,
      "hit": false,
      "t": 89747.95599999964,
      "d": 298.3195166666701,
      "v": 113
    },
    {
      "midi": 76,
      "hit": false,
      "t": 89747.95599999979,
      "d": 96.63871666666819,
      "v": 107
    },
    {
      "midi": 73,
      "hit": false,
      "t": 89747.95599999979,
      "d": 96.63871666666819,
      "v": 107
    },
    {
      "midi": 76,
      "hit": false,
      "t": 89747.95599999983,
      "d": 109.24376666666649,
      "v": 105
    },
    {
      "midi": 76,
      "hit": false,
      "t": 89747.95599999998,
      "d": 92.43703333333542,
      "v": 109
    },
    {
      "midi": 40,
      "hit": false,
      "t": 90000.05699999916,
      "d": 126.05049999999756,
      "v": 78
    },
    {
      "midi": 64,
      "hit": false,
      "t": 90000.05699999974,
      "d": 92.43703333333542,
      "v": 67
    },
    {
      "midi": 61,
      "hit": false,
      "t": 90000.05699999974,
      "d": 92.43703333333542,
      "v": 67
    },
    {
      "midi": 76,
      "hit": false,
      "t": 90000.05699999978,
      "d": 96.63871666666819,
      "v": 91
    },
    {
      "midi": 73,
      "hit": false,
      "t": 90000.05699999978,
      "d": 96.63871666666819,
      "v": 91
    },
    {
      "midi": 76,
      "hit": false,
      "t": 90000.05699999983,
      "d": 109.24376666666649,
      "v": 78
    },
    {
      "midi": 69,
      "hit": false,
      "t": 90000.05699999997,
      "d": 92.43703333333542,
      "v": 107
    },
    {
      "midi": 42,
      "hit": false,
      "t": 90000.05700000004,
      "d": 126.05049999999756,
      "v": 113
    },
    {
      "midi": 40,
      "hit": false,
      "t": 90126.10749999915,
      "d": 126.05049999999756,
      "v": 73
    },
    {
      "midi": 76,
      "hit": false,
      "t": 90126.10749999978,
      "d": 96.63871666666819,
      "v": 101
    },
    {
      "midi": 73,
      "hit": false,
      "t": 90126.10749999978,
      "d": 96.63871666666819,
      "v": 101
    },
    {
      "midi": 76,
      "hit": false,
      "t": 90126.10749999982,
      "d": 109.24376666666649,
      "v": 85
    },
    {
      "midi": 40,
      "hit": false,
      "t": 90252.15799999915,
      "d": 126.05049999999756,
      "v": 88
    },
    {
      "midi": 33,
      "hit": false,
      "t": 90252.15799999965,
      "d": 285.7144666666718,
      "v": 102
    },
    {
      "midi": 76,
      "hit": false,
      "t": 90252.15799999978,
      "d": 96.63871666666819,
      "v": 108
    },
    {
      "midi": 73,
      "hit": false,
      "t": 90252.15799999978,
      "d": 96.63871666666819,
      "v": 108
    },
    {
      "midi": 76,
      "hit": false,
      "t": 90252.15799999982,
      "d": 109.24376666666649,
      "v": 105
    },
    {
      "midi": 68,
      "hit": false,
      "t": 90252.15799999997,
      "d": 378.1515000000072,
      "v": 102
    },
    {
      "midi": 40,
      "hit": false,
      "t": 90504.25899999915,
      "d": 126.05049999999756,
      "v": 77
    },
    {
      "midi": 61,
      "hit": false,
      "t": 90504.25899999974,
      "d": 92.43703333333542,
      "v": 67
    },
    {
      "midi": 64,
      "hit": false,
      "t": 90504.25899999974,
      "d": 92.43703333333542,
      "v": 67
    },
    {
      "midi": 73,
      "hit": false,
      "t": 90504.25899999977,
      "d": 96.63871666666819,
      "v": 92
    },
    {
      "midi": 76,
      "hit": false,
      "t": 90504.25899999977,
      "d": 96.63871666666819,
      "v": 92
    },
    {
      "midi": 76,
      "hit": false,
      "t": 90504.25899999982,
      "d": 109.24376666666649,
      "v": 80
    },
    {
      "midi": 42,
      "hit": false,
      "t": 90504.25900000005,
      "d": 126.05049999999756,
      "v": 104
    },
    {
      "midi": 40,
      "hit": false,
      "t": 90630.30949999914,
      "d": 126.05049999999756,
      "v": 71
    },
    {
      "midi": 73,
      "hit": false,
      "t": 90630.30949999977,
      "d": 96.63871666666819,
      "v": 102
    },
    {
      "midi": 76,
      "hit": false,
      "t": 90630.30949999977,
      "d": 96.63871666666819,
      "v": 102
    },
    {
      "midi": 76,
      "hit": false,
      "t": 90630.30949999981,
      "d": 109.24376666666649,
      "v": 91
    },
    {
      "midi": 69,
      "hit": false,
      "t": 90630.30949999997,
      "d": 88.23535000000265,
      "v": 92
    },
    {
      "midi": 40,
      "hit": false,
      "t": 90756.35999999914,
      "d": 126.05049999999756,
      "v": 89
    },
    {
      "midi": 40,
      "hit": false,
      "t": 90756.35999999965,
      "d": 273.1094166666735,
      "v": 114
    },
    {
      "midi": 76,
      "hit": false,
      "t": 90756.35999999977,
      "d": 96.63871666666819,
      "v": 108
    },
    {
      "midi": 73,
      "hit": false,
      "t": 90756.35999999977,
      "d": 96.63871666666819,
      "v": 108
    },
    {
      "midi": 76,
      "hit": false,
      "t": 90756.35999999981,
      "d": 109.24376666666649,
      "v": 105
    },
    {
      "midi": 76,
      "hit": false,
      "t": 90756.35999999997,
      "d": 92.43703333333542,
      "v": 109
    },
    {
      "midi": 40,
      "hit": false,
      "t": 91008.46099999914,
      "d": 126.05049999999756,
      "v": 78
    },
    {
      "midi": 61,
      "hit": false,
      "t": 91008.46099999975,
      "d": 92.43703333333542,
      "v": 67
    },
    {
      "midi": 64,
      "hit": false,
      "t": 91008.46099999975,
      "d": 92.43703333333542,
      "v": 67
    },
    {
      "midi": 73,
      "hit": false,
      "t": 91008.46099999976,
      "d": 96.63871666666819,
      "v": 87
    },
    {
      "midi": 76,
      "hit": false,
      "t": 91008.46099999976,
      "d": 96.63871666666819,
      "v": 87
    },
    {
      "midi": 76,
      "hit": false,
      "t": 91008.4609999998,
      "d": 109.24376666666649,
      "v": 79
    },
    {
      "midi": 69,
      "hit": false,
      "t": 91008.46099999997,
      "d": 92.43703333333542,
      "v": 95
    },
    {
      "midi": 42,
      "hit": false,
      "t": 91008.46100000005,
      "d": 126.05049999999756,
      "v": 113
    },
    {
      "midi": 40,
      "hit": false,
      "t": 91134.51149999913,
      "d": 126.05049999999756,
      "v": 72
    },
    {
      "midi": 76,
      "hit": false,
      "t": 91134.51149999976,
      "d": 96.63871666666819,
      "v": 97
    },
    {
      "midi": 73,
      "hit": false,
      "t": 91134.51149999976,
      "d": 96.63871666666819,
      "v": 97
    },
    {
      "midi": 76,
      "hit": false,
      "t": 91134.5114999998,
      "d": 109.24376666666649,
      "v": 88
    },
    {
      "midi": 40,
      "hit": false,
      "t": 91260.56199999913,
      "d": 126.05049999999756,
      "v": 88
    },
    {
      "midi": 33,
      "hit": false,
      "t": 91260.56199999966,
      "d": 252.1009999999951,
      "v": 102
    },
    {
      "midi": 76,
      "hit": false,
      "t": 91260.56199999976,
      "d": 96.63871666666819,
      "v": 104
    },
    {
      "midi": 73,
      "hit": false,
      "t": 91260.56199999976,
      "d": 96.63871666666819,
      "v": 104
    },
    {
      "midi": 76,
      "hit": false,
      "t": 91260.5619999998,
      "d": 109.24376666666649,
      "v": 107
    },
    {
      "midi": 77,
      "hit": false,
      "t": 91260.56199999996,
      "d": 378.1515000000072,
      "v": 115
    },
    {
      "midi": 40,
      "hit": false,
      "t": 91512.66299999913,
      "d": 126.05049999999756,
      "v": 76
    },
    {
      "midi": 64,
      "hit": false,
      "t": 91512.66299999975,
      "d": 92.43703333333542,
      "v": 67
    },
    {
      "midi": 61,
      "hit": false,
      "t": 91512.66299999975,
      "d": 92.43703333333542,
      "v": 67
    },
    {
      "midi": 73,
      "hit": false,
      "t": 91512.66299999975,
      "d": 96.63871666666819,
      "v": 92
    },
    {
      "midi": 76,
      "hit": false,
      "t": 91512.66299999975,
      "d": 96.63871666666819,
      "v": 92
    },
    {
      "midi": 76,
      "hit": false,
      "t": 91512.6629999998,
      "d": 109.24376666666649,
      "v": 80
    },
    {
      "midi": 42,
      "hit": false,
      "t": 91512.66300000006,
      "d": 126.05049999999756,
      "v": 101
    },
    {
      "midi": 40,
      "hit": false,
      "t": 91638.71349999912,
      "d": 126.05049999999756,
      "v": 70
    },
    {
      "midi": 76,
      "hit": false,
      "t": 91638.71349999975,
      "d": 96.63871666666819,
      "v": 102
    },
    {
      "midi": 73,
      "hit": false,
      "t": 91638.71349999975,
      "d": 96.63871666666819,
      "v": 102
    },
    {
      "midi": 76,
      "hit": false,
      "t": 91638.7134999998,
      "d": 109.24376666666649,
      "v": 89
    },
    {
      "midi": 76,
      "hit": false,
      "t": 91638.71349999997,
      "d": 126.05049999999756,
      "v": 107
    },
    {
      "midi": 40,
      "hit": false,
      "t": 91764.76399999912,
      "d": 126.05049999999756,
      "v": 91
    },
    {
      "midi": 38,
      "hit": false,
      "t": 91764.76399999965,
      "d": 176.4707000000053,
      "v": 114
    },
    {
      "midi": 76,
      "hit": false,
      "t": 91764.76399999975,
      "d": 96.63871666666819,
      "v": 108
    },
    {
      "midi": 73,
      "hit": false,
      "t": 91764.76399999975,
      "d": 96.63871666666819,
      "v": 108
    },
    {
      "midi": 76,
      "hit": false,
      "t": 91764.76399999979,
      "d": 109.24376666666649,
      "v": 107
    },
    {
      "midi": 74,
      "hit": false,
      "t": 91764.76399999997,
      "d": 441.1767499999987,
      "v": 104
    },
    {
      "midi": 42,
      "hit": false,
      "t": 92016.86500000006,
      "d": 126.05049999999756,
      "v": 114
    },
    {
      "midi": 36,
      "hit": false,
      "t": 92268.96599999965,
      "d": 378.1515000000072,
      "v": 102
    },
    {
      "midi": 48,
      "hit": false,
      "t": 92268.966,
      "d": 491.5969499999628,
      "v": 126
    },
    {
      "midi": 35,
      "hit": false,
      "t": 92268.96600000001,
      "d": 63.025250000006054,
      "v": 123
    },
    {
      "midi": 38,
      "hit": false,
      "t": 92268.96600000001,
      "d": 483.19358333334094,
      "v": 123
    },
    {
      "midi": 41,
      "hit": false,
      "t": 92773.16799999966,
      "d": 310.9245666666684,
      "v": 111
    },
    {
      "midi": 53,
      "hit": false,
      "t": 92773.16799999996,
      "d": 369.74813333332713,
      "v": 93
    },
    {
      "midi": 65,
      "hit": false,
      "t": 93025.26900000001,
      "d": 113.44544999999925,
      "v": 109
    },
    {
      "midi": 62,
      "hit": false,
      "t": 93025.26900000001,
      "d": 113.44544999999925,
      "v": 109
    },
    {
      "midi": 42,
      "hit": false,
      "t": 93025.26900000006,
      "d": 126.05049999999756,
      "v": 112
    },
    {
      "midi": 36,
      "hit": false,
      "t": 93277.36999999966,
      "d": 344.53803333333053,
      "v": 100
    },
    {
      "midi": 55,
      "hit": false,
      "t": 93277.36999999995,
      "d": 310.9245666666684,
      "v": 111
    },
    {
      "midi": 65,
      "hit": false,
      "t": 93529.47100000002,
      "d": 113.44544999999925,
      "v": 96
    },
    {
      "midi": 62,
      "hit": false,
      "t": 93529.47100000002,
      "d": 113.44544999999925,
      "v": 96
    },
    {
      "midi": 42,
      "hit": false,
      "t": 93529.47100000006,
      "d": 126.05049999999756,
      "v": 102
    },
    {
      "midi": 40,
      "hit": false,
      "t": 93781.57199999965,
      "d": 357.14308333332883,
      "v": 113
    },
    {
      "midi": 69,
      "hit": false,
      "t": 93781.57199999975,
      "d": 789.9164666665747,
      "v": 100
    },
    {
      "midi": 57,
      "hit": false,
      "t": 93781.57199999996,
      "d": 478.9918999999936,
      "v": 123
    },
    {
      "midi": 65,
      "hit": false,
      "t": 94033.67300000002,
      "d": 113.44544999999925,
      "v": 111
    },
    {
      "midi": 60,
      "hit": false,
      "t": 94033.67300000002,
      "d": 113.44544999999925,
      "v": 111
    },
    {
      "midi": 42,
      "hit": false,
      "t": 94033.67300000007,
      "d": 126.05049999999756,
      "v": 111
    },
    {
      "midi": 33,
      "hit": false,
      "t": 94285.77399999964,
      "d": 357.14308333332883,
      "v": 104
    },
    {
      "midi": 72,
      "hit": false,
      "t": 94537.87499999967,
      "d": 310.9245666666684,
      "v": 100
    },
    {
      "midi": 48,
      "hit": false,
      "t": 94537.87499999996,
      "d": 92.43703333333542,
      "v": 108
    },
    {
      "midi": 65,
      "hit": false,
      "t": 94537.87500000003,
      "d": 113.44544999999925,
      "v": 99
    },
    {
      "midi": 60,
      "hit": false,
      "t": 94537.87500000003,
      "d": 113.44544999999925,
      "v": 99
    },
    {
      "midi": 42,
      "hit": false,
      "t": 94537.87500000007,
      "d": 126.05049999999756,
      "v": 102
    },
    {
      "midi": 34,
      "hit": false,
      "t": 94789.97599999963,
      "d": 289.91615000000456,
      "v": 115
    },
    {
      "midi": 70,
      "hit": false,
      "t": 94789.97599999966,
      "d": 1260.5050000000047,
      "v": 84
    },
    {
      "midi": 50,
      "hit": false,
      "t": 94789.97599999995,
      "d": 252.1009999999951,
      "v": 117
    },
    {
      "midi": 67,
      "hit": false,
      "t": 95042.07700000003,
      "d": 113.44544999999925,
      "v": 110
    },
    {
      "midi": 62,
      "hit": false,
      "t": 95042.07700000003,
      "d": 113.44544999999925,
      "v": 110
    },
    {
      "midi": 42,
      "hit": false,
      "t": 95042.07700000008,
      "d": 126.05049999999756,
      "v": 113
    },
    {
      "midi": 38,
      "hit": false,
      "t": 95294.17799999964,
      "d": 289.91615000000456,
      "v": 103
    },
    {
      "midi": 55,
      "hit": false,
      "t": 95294.17799999994,
      "d": 310.9245666666684,
      "v": 122
    },
    {
      "midi": 67,
      "hit": false,
      "t": 95546.27900000004,
      "d": 113.44544999999925,
      "v": 100
    },
    {
      "midi": 62,
      "hit": false,
      "t": 95546.27900000004,
      "d": 113.44544999999925,
      "v": 100
    },
    {
      "midi": 42,
      "hit": false,
      "t": 95546.27900000008,
      "d": 126.05049999999756,
      "v": 102
    },
    {
      "midi": 57,
      "hit": false,
      "t": 95672.32949999995,
      "d": 75.63030000000435,
      "v": 113
    },
    {
      "midi": 43,
      "hit": false,
      "t": 95798.37999999964,
      "d": 289.91615000000456,
      "v": 114
    },
    {
      "midi": 58,
      "hit": false,
      "t": 95798.37999999995,
      "d": 378.1515000000072,
      "v": 120
    },
    {
      "midi": 67,
      "hit": false,
      "t": 96050.48099999967,
      "d": 214.2858500000002,
      "v": 104
    },
    {
      "midi": 67,
      "hit": false,
      "t": 96050.48100000004,
      "d": 113.44544999999925,
      "v": 112
    },
    {
      "midi": 62,
      "hit": false,
      "t": 96050.48100000004,
      "d": 113.44544999999925,
      "v": 112
    },
    {
      "midi": 42,
      "hit": false,
      "t": 96050.48100000009,
      "d": 126.05049999999756,
      "v": 113
    },
    {
      "midi": 38,
      "hit": false,
      "t": 96302.58199999965,
      "d": 289.91615000000456,
      "v": 101
    },
    {
      "midi": 62,
      "hit": false,
      "t": 96302.58199999966,
      "d": 252.1009999999951,
      "v": 88
    },
    {
      "midi": 62,
      "hit": false,
      "t": 96302.58199999995,
      "d": 336.134666666665,
      "v": 123
    },
    {
      "midi": 63,
      "hit": false,
      "t": 96554.68299999966,
      "d": 252.1009999999951,
      "v": 103
    },
    {
      "midi": 67,
      "hit": false,
      "t": 96554.68300000005,
      "d": 113.44544999999925,
      "v": 101
    },
    {
      "midi": 62,
      "hit": false,
      "t": 96554.68300000005,
      "d": 113.44544999999925,
      "v": 101
    },
    {
      "midi": 42,
      "hit": false,
      "t": 96554.68300000009,
      "d": 126.05049999999756,
      "v": 102
    },
    {
      "midi": 64,
      "hit": false,
      "t": 96806.78399999965,
      "d": 1008.403999999995,
      "v": 93
    },
    {
      "midi": 43,
      "hit": false,
      "t": 96806.78399999965,
      "d": 289.91615000000456,
      "v": 112
    },
    {
      "midi": 60,
      "hit": false,
      "t": 96806.78399999996,
      "d": 109.24376666666649,
      "v": 116
    },
    {
      "midi": 58,
      "hit": false,
      "t": 97058.88499999995,
      "d": 109.24376666666649,
      "v": 108
    },
    {
      "midi": 65,
      "hit": false,
      "t": 97058.88500000005,
      "d": 113.44544999999925,
      "v": 110
    },
    {
      "midi": 62,
      "hit": false,
      "t": 97058.88500000005,
      "d": 113.44544999999925,
      "v": 110
    },
    {
      "midi": 42,
      "hit": false,
      "t": 97058.8850000001,
      "d": 126.05049999999756,
      "v": 112
    },
    {
      "midi": 36,
      "hit": false,
      "t": 97310.98599999966,
      "d": 289.91615000000456,
      "v": 101
    },
    {
      "midi": 57,
      "hit": false,
      "t": 97310.98599999995,
      "d": 109.24376666666649,
      "v": 114
    },
    {
      "midi": 55,
      "hit": false,
      "t": 97563.08699999994,
      "d": 109.24376666666649,
      "v": 117
    },
    {
      "midi": 65,
      "hit": false,
      "t": 97563.08700000006,
      "d": 113.44544999999925,
      "v": 100
    },
    {
      "midi": 62,
      "hit": false,
      "t": 97563.08700000006,
      "d": 113.44544999999925,
      "v": 100
    },
    {
      "midi": 42,
      "hit": false,
      "t": 97563.0870000001,
      "d": 126.05049999999756,
      "v": 102
    },
    {
      "midi": 65,
      "hit": false,
      "t": 97815.18799999965,
      "d": 504.2020000000048,
      "v": 98
    },
    {
      "midi": 41,
      "hit": false,
      "t": 97815.18799999966,
      "d": 289.91615000000456,
      "v": 113
    },
    {
      "midi": 53,
      "hit": false,
      "t": 97815.18799999994,
      "d": 252.1009999999951,
      "v": 119
    },
    {
      "midi": 64,
      "hit": false,
      "t": 98067.28900000006,
      "d": 113.44544999999925,
      "v": 112
    },
    {
      "midi": 60,
      "hit": false,
      "t": 98067.28900000006,
      "d": 113.44544999999925,
      "v": 112
    },
    {
      "midi": 42,
      "hit": false,
      "t": 98067.2890000001,
      "d": 126.05049999999756,
      "v": 112
    },
    {
      "midi": 67,
      "hit": false,
      "t": 98319.38999999965,
      "d": 504.2020000000048,
      "v": 88
    },
    {
      "midi": 36,
      "hit": false,
      "t": 98319.38999999966,
      "d": 289.91615000000456,
      "v": 102
    },
    {
      "midi": 55,
      "hit": false,
      "t": 98319.38999999993,
      "d": 252.1009999999951,
      "v": 110
    },
    {
      "midi": 64,
      "hit": false,
      "t": 98571.49100000007,
      "d": 113.44544999999925,
      "v": 100
    },
    {
      "midi": 60,
      "hit": false,
      "t": 98571.49100000007,
      "d": 113.44544999999925,
      "v": 100
    },
    {
      "midi": 42,
      "hit": false,
      "t": 98571.49100000011,
      "d": 126.05049999999756,
      "v": 102
    },
    {
      "midi": 69,
      "hit": false,
      "t": 98823.59199999965,
      "d": 1890.7574999999197,
      "v": 97
    },
    {
      "midi": 40,
      "hit": false,
      "t": 98823.59199999967,
      "d": 289.91615000000456,
      "v": 113
    },
    {
      "midi": 57,
      "hit": false,
      "t": 98823.59199999992,
      "d": 1512.6059999999998,
      "v": 121
    },
    {
      "midi": 69,
      "hit": false,
      "t": 99075.69299999965,
      "d": 84.03366666666989,
      "v": 87
    },
    {
      "midi": 69,
      "hit": false,
      "t": 99075.69299999968,
      "d": 84.03366666666989,
      "v": 87
    },
    {
      "midi": 81,
      "hit": false,
      "t": 99075.693,
      "d": 126.05049999999756,
      "v": 103
    },
    {
      "midi": 69,
      "hit": false,
      "t": 99075.69300000007,
      "d": 113.44544999999925,
      "v": 111
    },
    {
      "midi": 64,
      "hit": false,
      "t": 99075.69300000007,
      "d": 113.44544999999925,
      "v": 111
    },
    {
      "midi": 42,
      "hit": false,
      "t": 99075.69300000012,
      "d": 126.05049999999756,
      "v": 113
    },
    {
      "midi": 69,
      "hit": false,
      "t": 99201.74349999965,
      "d": 67.22693333333882,
      "v": 66
    },
    {
      "midi": 69,
      "hit": false,
      "t": 99201.74349999968,
      "d": 67.22693333333882,
      "v": 66
    },
    {
      "midi": 82,
      "hit": false,
      "t": 99201.7435,
      "d": 126.05049999999756,
      "v": 78
    },
    {
      "midi": 69,
      "hit": false,
      "t": 99327.79399999966,
      "d": 67.22693333333882,
      "v": 76
    },
    {
      "midi": 33,
      "hit": false,
      "t": 99327.79399999967,
      "d": 289.91615000000456,
      "v": 101
    },
    {
      "midi": 69,
      "hit": false,
      "t": 99327.79399999969,
      "d": 67.22693333333882,
      "v": 76
    },
    {
      "midi": 81,
      "hit": false,
      "t": 99327.794,
      "d": 100.84040000000095,
      "v": 103
    },
    {
      "midi": 82,
      "hit": false,
      "t": 99424.43271666666,
      "d": 100.84040000000095,
      "v": 76
    },
    {
      "midi": 81,
      "hit": false,
      "t": 99453.84449999999,
      "d": 100.84040000000095,
      "v": 76
    },
    {
      "midi": 82,
      "hit": false,
      "t": 99550.48321666666,
      "d": 100.84040000000095,
      "v": 70
    },
    {
      "midi": 69,
      "hit": false,
      "t": 99579.89499999967,
      "d": 67.22693333333882,
      "v": 86
    },
    {
      "midi": 69,
      "hit": false,
      "t": 99579.8949999997,
      "d": 67.22693333333882,
      "v": 86
    },
    {
      "midi": 81,
      "hit": false,
      "t": 99579.89499999999,
      "d": 100.84040000000095,
      "v": 69
    },
    {
      "midi": 69,
      "hit": false,
      "t": 99579.89500000008,
      "d": 113.44544999999925,
      "v": 99
    },
    {
      "midi": 64,
      "hit": false,
      "t": 99579.89500000008,
      "d": 113.44544999999925,
      "v": 99
    },
    {
      "midi": 42,
      "hit": false,
      "t": 99579.89500000012,
      "d": 126.05049999999756,
      "v": 101
    },
    {
      "midi": 82,
      "hit": false,
      "t": 99676.53371666666,
      "d": 100.84040000000095,
      "v": 69
    },
    {
      "midi": 81,
      "hit": false,
      "t": 99705.94549999999,
      "d": 100.84040000000095,
      "v": 69
    },
    {
      "midi": 82,
      "hit": false,
      "t": 99802.58421666666,
      "d": 100.84040000000095,
      "v": 72
    },
    {
      "midi": 69,
      "hit": false,
      "t": 99831.99599999968,
      "d": 67.22693333333882,
      "v": 115
    },
    {
      "midi": 40,
      "hit": false,
      "t": 99831.99599999968,
      "d": 289.91615000000456,
      "v": 112
    },
    {
      "midi": 69,
      "hit": false,
      "t": 99831.99599999971,
      "d": 67.22693333333882,
      "v": 115
    },
    {
      "midi": 81,
      "hit": false,
      "t": 99831.99599999998,
      "d": 100.84040000000095,
      "v": 72
    },
    {
      "midi": 82,
      "hit": false,
      "t": 99928.63471666665,
      "d": 100.84040000000095,
      "v": 76
    },
    {
      "midi": 81,
      "hit": false,
      "t": 99958.04649999998,
      "d": 100.84040000000095,
      "v": 77
    },
    {
      "midi": 82,
      "hit": false,
      "t": 100054.68521666665,
      "d": 100.84040000000095,
      "v": 80
    },
    {
      "midi": 69,
      "hit": false,
      "t": 100084.09699999969,
      "d": 67.22693333333882,
      "v": 107
    },
    {
      "midi": 69,
      "hit": false,
      "t": 100084.09699999972,
      "d": 67.22693333333882,
      "v": 107
    },
    {
      "midi": 81,
      "hit": false,
      "t": 100084.09699999998,
      "d": 100.84040000000095,
      "v": 81
    },
    {
      "midi": 69,
      "hit": false,
      "t": 100084.09700000008,
      "d": 113.44544999999925,
      "v": 112
    },
    {
      "midi": 64,
      "hit": false,
      "t": 100084.09700000008,
      "d": 113.44544999999925,
      "v": 112
    },
    {
      "midi": 42,
      "hit": false,
      "t": 100084.09700000013,
      "d": 126.05049999999756,
      "v": 113
    },
    {
      "midi": 82,
      "hit": false,
      "t": 100180.73571666665,
      "d": 100.84040000000095,
      "v": 85
    },
    {
      "midi": 81,
      "hit": false,
      "t": 100210.14749999998,
      "d": 100.84040000000095,
      "v": 86
    },
    {
      "midi": 82,
      "hit": false,
      "t": 100306.78621666665,
      "d": 100.84040000000095,
      "v": 91
    },
    {
      "midi": 33,
      "hit": false,
      "t": 100336.19799999968,
      "d": 289.91615000000456,
      "v": 103
    },
    {
      "midi": 69,
      "hit": false,
      "t": 100336.1979999997,
      "d": 67.22693333333882,
      "v": 122
    },
    {
      "midi": 69,
      "hit": false,
      "t": 100336.19799999973,
      "d": 67.22693333333882,
      "v": 122
    },
    {
      "midi": 81,
      "hit": false,
      "t": 100336.19799999997,
      "d": 100.84040000000095,
      "v": 93
    },
    {
      "midi": 82,
      "hit": false,
      "t": 100432.83671666664,
      "d": 100.84040000000095,
      "v": 97
    },
    {
      "midi": 81,
      "hit": false,
      "t": 100462.24849999997,
      "d": 100.84040000000095,
      "v": 98
    },
    {
      "midi": 82,
      "hit": false,
      "t": 100558.88721666664,
      "d": 100.84040000000095,
      "v": 102
    },
    {
      "midi": 69,
      "hit": false,
      "t": 100588.29899999971,
      "d": 67.22693333333882,
      "v": 115
    },
    {
      "midi": 69,
      "hit": false,
      "t": 100588.29899999974,
      "d": 67.22693333333882,
      "v": 115
    },
    {
      "midi": 81,
      "hit": false,
      "t": 100588.29899999997,
      "d": 100.84040000000095,
      "v": 104
    },
    {
      "midi": 69,
      "hit": false,
      "t": 100588.29900000009,
      "d": 113.44544999999925,
      "v": 98
    },
    {
      "midi": 64,
      "hit": false,
      "t": 100588.29900000009,
      "d": 113.44544999999925,
      "v": 98
    },
    {
      "midi": 42,
      "hit": false,
      "t": 100588.29900000013,
      "d": 126.05049999999756,
      "v": 103
    },
    {
      "midi": 82,
      "hit": false,
      "t": 100684.93771666664,
      "d": 100.84040000000095,
      "v": 106
    },
    {
      "midi": 81,
      "hit": false,
      "t": 100714.34949999997,
      "d": 100.84040000000095,
      "v": 107
    },
    {
      "midi": 38,
      "hit": false,
      "t": 100840.39999999969,
      "d": 117.64713333333202,
      "v": 117
    },
    {
      "midi": 69,
      "hit": false,
      "t": 100840.39999999972,
      "d": 67.22693333333882,
      "v": 124
    },
    {
      "midi": 69,
      "hit": false,
      "t": 100840.39999999975,
      "d": 67.22693333333882,
      "v": 124
    },
    {
      "midi": 86,
      "hit": false,
      "t": 100840.39999999997,
      "d": 126.05049999999756,
      "v": 120
    },
    {
      "midi": 35,
      "hit": false,
      "t": 100840.40000000002,
      "d": 126.05049999999756,
      "v": 127
    },
    {
      "midi": 38,
      "hit": false,
      "t": 100840.40000000002,
      "d": 126.05049999999756,
      "v": 127
    },
    {
      "midi": 46,
      "hit": false,
      "t": 100840.40000000013,
      "d": 126.05049999999756,
      "v": 117
    },
    {
      "midi": 74,
      "hit": false,
      "t": 100853.00504999972,
      "d": 67.22693333333882,
      "v": 124
    },
    {
      "midi": 74,
      "hit": false,
      "t": 100853.00504999975,
      "d": 67.22693333333882,
      "v": 124
    },
    {
      "midi": 38,
      "hit": false,
      "t": 101092.50099999968,
      "d": 117.64713333333202,
      "v": 108
    },
    {
      "midi": 69,
      "hit": false,
      "t": 101092.50099999973,
      "d": 67.22693333333882,
      "v": 119
    },
    {
      "midi": 69,
      "hit": false,
      "t": 101092.50099999976,
      "d": 67.22693333333882,
      "v": 119
    },
    {
      "midi": 86,
      "hit": false,
      "t": 101092.50099999996,
      "d": 126.05049999999756,
      "v": 112
    },
    {
      "midi": 35,
      "hit": false,
      "t": 101092.50100000002,
      "d": 126.05049999999756,
      "v": 124
    },
    {
      "midi": 38,
      "hit": false,
      "t": 101092.50100000002,
      "d": 126.05049999999756,
      "v": 124
    },
    {
      "midi": 46,
      "hit": false,
      "t": 101092.50100000012,
      "d": 126.05049999999756,
      "v": 101
    },
    {
      "midi": 74,
      "hit": false,
      "t": 101105.10604999973,
      "d": 67.22693333333882,
      "v": 119
    },
    {
      "midi": 74,
      "hit": false,
      "t": 101105.10604999975,
      "d": 67.22693333333882,
      "v": 119
    },
    {
      "midi": 38,
      "hit": false,
      "t": 101344.60199999968,
      "d": 239.4959499999968,
      "v": 121
    },
    {
      "midi": 69,
      "hit": false,
      "t": 101344.60199999974,
      "d": 420.16833333332033,
      "v": 124
    },
    {
      "midi": 69,
      "hit": false,
      "t": 101344.60199999977,
      "d": 420.16833333332033,
      "v": 124
    },
    {
      "midi": 86,
      "hit": false,
      "t": 101344.60199999996,
      "d": 310.9245666666684,
      "v": 124
    },
    {
      "midi": 35,
      "hit": false,
      "t": 101344.60200000001,
      "d": 126.05049999999756,
      "v": 127
    },
    {
      "midi": 38,
      "hit": false,
      "t": 101344.60200000001,
      "d": 126.05049999999756,
      "v": 127
    },
    {
      "midi": 46,
      "hit": false,
      "t": 101344.60200000012,
      "d": 504.2020000000048,
      "v": 117
    },
    {
      "midi": 74,
      "hit": false,
      "t": 101357.20704999974,
      "d": 428.57169999998587,
      "v": 124
    },
    {
      "midi": 74,
      "hit": false,
      "t": 101357.20704999976,
      "d": 428.57169999998587,
      "v": 124
    },
    {
      "midi": 84,
      "hit": false,
      "t": 101642.92151666663,
      "d": 75.6302999999898,
      "v": 95
    },
    {
      "midi": 83,
      "hit": false,
      "t": 101701.74508333328,
      "d": 67.22693333332427,
      "v": 109
    },
    {
      "midi": 81,
      "hit": false,
      "t": 101752.16528333328,
      "d": 75.6302999999898,
      "v": 113
    },
    {
      "midi": 79,
      "hit": false,
      "t": 101806.7871666666,
      "d": 71.42861666665704,
      "v": 96
    },
    {
      "midi": 38,
      "hit": false,
      "t": 101848.80399999967,
      "d": 323.5296166666667,
      "v": 115
    },
    {
      "midi": 68,
      "hit": false,
      "t": 102100.90499999958,
      "d": 147.0589166666614,
      "v": 115
    },
    {
      "midi": 80,
      "hit": false,
      "t": 102100.90499999958,
      "d": 147.0589166666614,
      "v": 115
    },
    {
      "midi": 42,
      "hit": false,
      "t": 102100.90500000012,
      "d": 126.05049999999756,
      "v": 110
    },
    {
      "midi": 69,
      "hit": false,
      "t": 102226.95549999957,
      "d": 147.0589166666614,
      "v": 89
    },
    {
      "midi": 81,
      "hit": false,
      "t": 102226.95549999957,
      "d": 147.0589166666614,
      "v": 89
    },
    {
      "midi": 82,
      "hit": false,
      "t": 102353.00599999957,
      "d": 147.0589166666614,
      "v": 116
    },
    {
      "midi": 70,
      "hit": false,
      "t": 102353.00599999957,
      "d": 147.0589166666614,
      "v": 116
    },
    {
      "midi": 33,
      "hit": false,
      "t": 102353.00599999967,
      "d": 336.134666666665,
      "v": 101
    },
    {
      "midi": 69,
      "hit": false,
      "t": 102479.05649999957,
      "d": 147.0589166666614,
      "v": 93
    },
    {
      "midi": 81,
      "hit": false,
      "t": 102479.05649999957,
      "d": 147.0589166666614,
      "v": 93
    },
    {
      "midi": 80,
      "hit": false,
      "t": 102605.10699999957,
      "d": 147.0589166666614,
      "v": 119
    },
    {
      "midi": 68,
      "hit": false,
      "t": 102605.10699999957,
      "d": 147.0589166666614,
      "v": 119
    },
    {
      "midi": 42,
      "hit": false,
      "t": 102605.10700000012,
      "d": 126.05049999999756,
      "v": 102
    },
    {
      "midi": 69,
      "hit": false,
      "t": 102731.15749999956,
      "d": 147.0589166666614,
      "v": 97
    },
    {
      "midi": 81,
      "hit": false,
      "t": 102731.15749999956,
      "d": 147.0589166666614,
      "v": 97
    },
    {
      "midi": 40,
      "hit": false,
      "t": 102857.20799999968,
      "d": 130.25218333333032,
      "v": 116
    },
    {
      "midi": 69,
      "hit": false,
      "t": 102857.20799999972,
      "d": 79.83198333333712,
      "v": 122
    },
    {
      "midi": 69,
      "hit": false,
      "t": 102857.20799999975,
      "d": 79.83198333333712,
      "v": 122
    },
    {
      "midi": 88,
      "hit": false,
      "t": 102857.20799999993,
      "d": 126.05049999999756,
      "v": 122
    },
    {
      "midi": 35,
      "hit": false,
      "t": 102857.20800000001,
      "d": 126.05049999999756,
      "v": 127
    },
    {
      "midi": 38,
      "hit": false,
      "t": 102857.20800000001,
      "d": 126.05049999999756,
      "v": 127
    },
    {
      "midi": 46,
      "hit": false,
      "t": 102857.20800000012,
      "d": 126.05049999999756,
      "v": 117
    },
    {
      "midi": 76,
      "hit": false,
      "t": 102869.81304999972,
      "d": 71.42861666667159,
      "v": 127
    },
    {
      "midi": 76,
      "hit": false,
      "t": 102869.81304999975,
      "d": 71.42861666667159,
      "v": 127
    },
    {
      "midi": 40,
      "hit": false,
      "t": 103109.30899999967,
      "d": 130.25218333333032,
      "v": 107
    },
    {
      "midi": 69,
      "hit": false,
      "t": 103109.30899999973,
      "d": 71.42861666665704,
      "v": 127
    },
    {
      "midi": 69,
      "hit": false,
      "t": 103109.30899999976,
      "d": 71.42861666665704,
      "v": 127
    },
    {
      "midi": 88,
      "hit": false,
      "t": 103109.30899999992,
      "d": 126.05049999999756,
      "v": 111
    },
    {
      "midi": 38,
      "hit": false,
      "t": 103109.30900000001,
      "d": 126.05049999999756,
      "v": 123
    },
    {
      "midi": 35,
      "hit": false,
      "t": 103109.30900000001,
      "d": 126.05049999999756,
      "v": 123
    },
    {
      "midi": 46,
      "hit": false,
      "t": 103109.30900000011,
      "d": 126.05049999999756,
      "v": 101
    },
    {
      "midi": 76,
      "hit": false,
      "t": 103121.91404999973,
      "d": 33.613466666662134,
      "v": 127
    },
    {
      "midi": 76,
      "hit": false,
      "t": 103121.91404999976,
      "d": 33.613466666662134,
      "v": 127
    },
    {
      "midi": 40,
      "hit": false,
      "t": 103361.40999999967,
      "d": 252.1009999999951,
      "v": 117
    },
    {
      "midi": 69,
      "hit": false,
      "t": 103361.40999999973,
      "d": 441.17674999998417,
      "v": 122
    },
    {
      "midi": 69,
      "hit": false,
      "t": 103361.40999999976,
      "d": 441.17674999998417,
      "v": 122
    },
    {
      "midi": 88,
      "hit": false,
      "t": 103361.40999999992,
      "d": 298.3195166666701,
      "v": 122
    },
    {
      "midi": 35,
      "hit": false,
      "t": 103361.41,
      "d": 126.05049999999756,
      "v": 127
    },
    {
      "midi": 38,
      "hit": false,
      "t": 103361.41,
      "d": 126.05049999999756,
      "v": 127
    },
    {
      "midi": 46,
      "hit": false,
      "t": 103361.4100000001,
      "d": 378.1515000000072,
      "v": 118
    },
    {
      "midi": 76,
      "hit": false,
      "t": 103374.01504999973,
      "d": 428.57169999998587,
      "v": 127
    },
    {
      "midi": 76,
      "hit": false,
      "t": 103374.01504999975,
      "d": 428.57169999998587,
      "v": 127
    },
    {
      "midi": 86,
      "hit": false,
      "t": 103647.12446666659,
      "d": 58.823566666658735,
      "v": 102
    },
    {
      "midi": 84,
      "hit": false,
      "t": 103693.34298333325,
      "d": 58.823566666658735,
      "v": 107
    },
    {
      "midi": 83,
      "hit": false,
      "t": 103735.35981666658,
      "d": 63.0252499999915,
      "v": 111
    },
    {
      "midi": 81,
      "hit": false,
      "t": 103777.3766499999,
      "d": 46.218516666660435,
      "v": 103
    },
    {
      "midi": 80,
      "hit": false,
      "t": 103815.1917999999,
      "d": 46.218516666660435,
      "v": 95
    },
    {
      "midi": 40,
      "hit": false,
      "t": 103865.61199999966,
      "d": 310.9245666666684,
      "v": 113
    },
    {
      "midi": 68,
      "hit": false,
      "t": 104117.71299999955,
      "d": 180.67238333333808,
      "v": 116
    },
    {
      "midi": 80,
      "hit": false,
      "t": 104117.71299999955,
      "d": 180.67238333333808,
      "v": 116
    },
    {
      "midi": 42,
      "hit": false,
      "t": 104117.71300000012,
      "d": 126.05049999999756,
      "v": 114
    },
    {
      "midi": 69,
      "hit": false,
      "t": 104243.76349999955,
      "d": 147.05891666667594,
      "v": 89
    },
    {
      "midi": 81,
      "hit": false,
      "t": 104243.76349999955,
      "d": 147.05891666667594,
      "v": 89
    },
    {
      "midi": 82,
      "hit": false,
      "t": 104369.81399999956,
      "d": 147.0589166666614,
      "v": 118
    },
    {
      "midi": 70,
      "hit": false,
      "t": 104369.81399999956,
      "d": 147.0589166666614,
      "v": 118
    },
    {
      "midi": 33,
      "hit": false,
      "t": 104369.81399999966,
      "d": 323.5296166666667,
      "v": 102
    },
    {
      "midi": 81,
      "hit": false,
      "t": 104495.86449999956,
      "d": 147.0589166666614,
      "v": 95
    },
    {
      "midi": 69,
      "hit": false,
      "t": 104495.86449999956,
      "d": 147.0589166666614,
      "v": 95
    },
    {
      "midi": 80,
      "hit": false,
      "t": 104621.91499999956,
      "d": 172.269016666658,
      "v": 120
    },
    {
      "midi": 68,
      "hit": false,
      "t": 104621.91499999956,
      "d": 172.269016666658,
      "v": 120
    },
    {
      "midi": 42,
      "hit": false,
      "t": 104621.91500000012,
      "d": 126.05049999999756,
      "v": 102
    },
    {
      "midi": 69,
      "hit": false,
      "t": 104747.96549999955,
      "d": 147.0589166666614,
      "v": 100
    },
    {
      "midi": 81,
      "hit": false,
      "t": 104747.96549999955,
      "d": 147.0589166666614,
      "v": 100
    },
    {
      "midi": 77,
      "hit": false,
      "t": 104874.01599999955,
      "d": 1260.5049999998882,
      "v": 115
    },
    {
      "midi": 34,
      "hit": false,
      "t": 104874.01599999967,
      "d": 344.53803333333053,
      "v": 113
    },
    {
      "midi": 77,
      "hit": false,
      "t": 105126.1169999999,
      "d": 378.1515000000072,
      "v": 98
    },
    {
      "midi": 65,
      "hit": false,
      "t": 105126.11699999991,
      "d": 336.134666666665,
      "v": 95
    },
    {
      "midi": 42,
      "hit": false,
      "t": 105126.11700000013,
      "d": 126.05049999999756,
      "v": 113
    },
    {
      "midi": 38,
      "hit": false,
      "t": 105378.21799999966,
      "d": 336.134666666665,
      "v": 101
    },
    {
      "midi": 77,
      "hit": false,
      "t": 105630.3189999999,
      "d": 252.1009999999951,
      "v": 85
    },
    {
      "midi": 65,
      "hit": false,
      "t": 105630.31899999992,
      "d": 105.04208333333372,
      "v": 104
    },
    {
      "midi": 42,
      "hit": false,
      "t": 105630.31900000013,
      "d": 126.05049999999756,
      "v": 102
    },
    {
      "midi": 43,
      "hit": false,
      "t": 105882.41999999966,
      "d": 323.5296166666667,
      "v": 114
    },
    {
      "midi": 79,
      "hit": false,
      "t": 105882.4199999999,
      "d": 504.2020000000048,
      "v": 105
    },
    {
      "midi": 67,
      "hit": false,
      "t": 105882.41999999991,
      "d": 378.1515000000072,
      "v": 116
    },
    {
      "midi": 74,
      "hit": false,
      "t": 106134.52099999944,
      "d": 252.1009999999951,
      "v": 91
    },
    {
      "midi": 42,
      "hit": false,
      "t": 106134.52100000014,
      "d": 126.05049999999756,
      "v": 114
    },
    {
      "midi": 76,
      "hit": false,
      "t": 106386.62199999944,
      "d": 504.2020000000048,
      "v": 99
    },
    {
      "midi": 38,
      "hit": false,
      "t": 106386.62199999967,
      "d": 344.53803333333053,
      "v": 101
    },
    {
      "midi": 76,
      "hit": false,
      "t": 106386.6219999999,
      "d": 478.9918999999936,
      "v": 85
    },
    {
      "midi": 64,
      "hit": false,
      "t": 106386.62199999992,
      "d": 378.1515000000072,
      "v": 113
    },
    {
      "midi": 42,
      "hit": false,
      "t": 106638.72300000014,
      "d": 126.05049999999756,
      "v": 102
    },
    {
      "midi": 69,
      "hit": false,
      "t": 106890.82399999944,
      "d": 1764.7069999999949,
      "v": 108
    },
    {
      "midi": 33,
      "hit": false,
      "t": 106890.82399999966,
      "d": 323.5296166666667,
      "v": 113
    },
    {
      "midi": 81,
      "hit": false,
      "t": 106890.82399999989,
      "d": 756.3029999999999,
      "v": 100
    },
    {
      "midi": 57,
      "hit": false,
      "t": 106890.82399999992,
      "d": 1054.6225166666554,
      "v": 109
    },
    {
      "midi": 40,
      "hit": false,
      "t": 107130.31994999912,
      "d": 63.025250000006054,
      "v": 68
    },
    {
      "midi": 38,
      "hit": false,
      "t": 107130.31995,
      "d": 63.025250000006054,
      "v": 45
    },
    {
      "midi": 69,
      "hit": false,
      "t": 107142.92499999971,
      "d": 79.83198333333712,
      "v": 72
    },
    {
      "midi": 65,
      "hit": false,
      "t": 107142.92499999971,
      "d": 79.83198333333712,
      "v": 72
    },
    {
      "midi": 69,
      "hit": false,
      "t": 107142.92499999974,
      "d": 79.83198333333712,
      "v": 72
    },
    {
      "midi": 65,
      "hit": false,
      "t": 107142.92499999974,
      "d": 79.83198333333712,
      "v": 72
    },
    {
      "midi": 42,
      "hit": false,
      "t": 107142.92500000015,
      "d": 126.05049999999756,
      "v": 114
    },
    {
      "midi": 69,
      "hit": false,
      "t": 107268.97549999971,
      "d": 79.83198333333712,
      "v": 59
    },
    {
      "midi": 65,
      "hit": false,
      "t": 107268.97549999971,
      "d": 79.83198333333712,
      "v": 59
    },
    {
      "midi": 69,
      "hit": false,
      "t": 107268.97549999974,
      "d": 79.83198333333712,
      "v": 59
    },
    {
      "midi": 65,
      "hit": false,
      "t": 107268.97549999974,
      "d": 79.83198333333712,
      "v": 59
    },
    {
      "midi": 40,
      "hit": false,
      "t": 107281.58054999913,
      "d": 63.025250000006054,
      "v": 82
    },
    {
      "midi": 38,
      "hit": false,
      "t": 107281.58055000001,
      "d": 63.025250000006054,
      "v": 55
    },
    {
      "midi": 33,
      "hit": false,
      "t": 107395.02599999966,
      "d": 310.9245666666684,
      "v": 101
    },
    {
      "midi": 65,
      "hit": false,
      "t": 107395.0259999997,
      "d": 92.43703333333542,
      "v": 72
    },
    {
      "midi": 69,
      "hit": false,
      "t": 107395.0259999997,
      "d": 105.04208333333372,
      "v": 72
    },
    {
      "midi": 65,
      "hit": false,
      "t": 107395.02599999974,
      "d": 92.43703333333542,
      "v": 72
    },
    {
      "midi": 69,
      "hit": false,
      "t": 107395.02599999974,
      "d": 105.04208333333372,
      "v": 72
    },
    {
      "midi": 40,
      "hit": false,
      "t": 107428.6394666658,
      "d": 71.42861666667159,
      "v": 97
    },
    {
      "midi": 38,
      "hit": false,
      "t": 107428.63946666669,
      "d": 71.42861666667159,
      "v": 75
    },
    {
      "midi": 67,
      "hit": false,
      "t": 107521.0764999997,
      "d": 88.23535000000265,
      "v": 91
    },
    {
      "midi": 70,
      "hit": false,
      "t": 107521.0764999997,
      "d": 88.23535000000265,
      "v": 91
    },
    {
      "midi": 67,
      "hit": false,
      "t": 107521.07649999973,
      "d": 88.23535000000265,
      "v": 91
    },
    {
      "midi": 70,
      "hit": false,
      "t": 107521.07649999973,
      "d": 88.23535000000265,
      "v": 91
    },
    {
      "midi": 40,
      "hit": false,
      "t": 107567.29501666581,
      "d": 63.025250000006054,
      "v": 91
    },
    {
      "midi": 38,
      "hit": false,
      "t": 107567.2950166667,
      "d": 63.025250000006054,
      "v": 59
    },
    {
      "midi": 82,
      "hit": false,
      "t": 107647.12699999989,
      "d": 126.05049999999756,
      "v": 86
    },
    {
      "midi": 42,
      "hit": false,
      "t": 107647.12700000015,
      "d": 126.05049999999756,
      "v": 102
    },
    {
      "midi": 67,
      "hit": false,
      "t": 107710.15224999971,
      "d": 92.43703333333542,
      "v": 105
    },
    {
      "midi": 71,
      "hit": false,
      "t": 107710.15224999971,
      "d": 105.04208333333372,
      "v": 105
    },
    {
      "midi": 67,
      "hit": false,
      "t": 107710.15224999974,
      "d": 92.43703333333542,
      "v": 105
    },
    {
      "midi": 71,
      "hit": false,
      "t": 107710.15224999974,
      "d": 105.04208333333372,
      "v": 105
    },
    {
      "midi": 40,
      "hit": false,
      "t": 107722.75729999915,
      "d": 79.83198333333712,
      "v": 100
    },
    {
      "midi": 38,
      "hit": false,
      "t": 107722.75730000004,
      "d": 79.83198333333712,
      "v": 74
    },
    {
      "midi": 81,
      "hit": false,
      "t": 107743.76571666656,
      "d": 126.05049999999756,
      "v": 88
    },
    {
      "midi": 82,
      "hit": false,
      "t": 107773.17749999989,
      "d": 126.05049999999756,
      "v": 88
    },
    {
      "midi": 81,
      "hit": false,
      "t": 107869.81621666656,
      "d": 126.05049999999756,
      "v": 89
    },
    {
      "midi": 40,
      "hit": false,
      "t": 107899.22799999916,
      "d": 621.8491333332495,
      "v": 127
    },
    {
      "midi": 25,
      "hit": false,
      "t": 107899.22799999916,
      "d": 831.9332999999024,
      "v": 127
    },
    {
      "midi": 36,
      "hit": false,
      "t": 107899.22799999967,
      "d": 323.5296166666667,
      "v": 115
    },
    {
      "midi": 69,
      "hit": false,
      "t": 107899.22799999971,
      "d": 1008.4039999999222,
      "v": 118
    },
    {
      "midi": 72,
      "hit": false,
      "t": 107899.22799999971,
      "d": 1008.4039999999222,
      "v": 118
    },
    {
      "midi": 69,
      "hit": false,
      "t": 107899.22799999974,
      "d": 1008.4039999999222,
      "v": 118
    },
    {
      "midi": 72,
      "hit": false,
      "t": 107899.22799999974,
      "d": 1008.4039999999222,
      "v": 118
    },
    {
      "midi": 82,
      "hit": false,
      "t": 107899.22799999989,
      "d": 126.05049999999756,
      "v": 89
    },
    {
      "midi": 60,
      "hit": false,
      "t": 107899.22799999992,
      "d": 983.1938999999402,
      "v": 111
    },
    {
      "midi": 38,
      "hit": false,
      "t": 107899.22800000005,
      "d": 621.8491333333368,
      "v": 70
    },
    {
      "midi": 81,
      "hit": false,
      "t": 107995.86671666655,
      "d": 126.05049999999756,
      "v": 91
    },
    {
      "midi": 82,
      "hit": false,
      "t": 108025.27849999988,
      "d": 126.05049999999756,
      "v": 91
    },
    {
      "midi": 81,
      "hit": false,
      "t": 108121.91721666655,
      "d": 126.05049999999756,
      "v": 92
    },
    {
      "midi": 82,
      "hit": false,
      "t": 108151.32899999988,
      "d": 126.05049999999756,
      "v": 93
    },
    {
      "midi": 42,
      "hit": false,
      "t": 108151.32900000016,
      "d": 126.05049999999756,
      "v": 114
    },
    {
      "midi": 81,
      "hit": false,
      "t": 108247.96771666655,
      "d": 126.05049999999756,
      "v": 94
    },
    {
      "midi": 82,
      "hit": false,
      "t": 108277.37949999988,
      "d": 126.05049999999756,
      "v": 95
    },
    {
      "midi": 81,
      "hit": false,
      "t": 108374.01821666655,
      "d": 126.05049999999756,
      "v": 96
    },
    {
      "midi": 36,
      "hit": false,
      "t": 108403.42999999967,
      "d": 298.3195166666701,
      "v": 101
    },
    {
      "midi": 82,
      "hit": false,
      "t": 108403.42999999988,
      "d": 126.05049999999756,
      "v": 97
    },
    {
      "midi": 81,
      "hit": false,
      "t": 108500.06871666654,
      "d": 126.05049999999756,
      "v": 98
    },
    {
      "midi": 82,
      "hit": false,
      "t": 108529.48049999987,
      "d": 126.05049999999756,
      "v": 98
    },
    {
      "midi": 81,
      "hit": false,
      "t": 108626.11921666654,
      "d": 126.05049999999756,
      "v": 102
    },
    {
      "midi": 82,
      "hit": false,
      "t": 108655.53099999987,
      "d": 126.05049999999756,
      "v": 102
    },
    {
      "midi": 42,
      "hit": false,
      "t": 108655.53100000016,
      "d": 126.05049999999756,
      "v": 101
    },
    {
      "midi": 81,
      "hit": false,
      "t": 108752.16971666654,
      "d": 126.05049999999756,
      "v": 107
    },
    {
      "midi": 82,
      "hit": false,
      "t": 108781.58149999987,
      "d": 126.05049999999756,
      "v": 109
    },
    {
      "midi": 40,
      "hit": false,
      "t": 108907.63199999907,
      "d": 126.05049999999756,
      "v": 108
    },
    {
      "midi": 41,
      "hit": false,
      "t": 108907.63199999968,
      "d": 331.93298333333223,
      "v": 114
    },
    {
      "midi": 62,
      "hit": false,
      "t": 108907.63199999997,
      "d": 92.43703333333542,
      "v": 110
    },
    {
      "midi": 40,
      "hit": false,
      "t": 109159.73299999906,
      "d": 126.05049999999756,
      "v": 108
    },
    {
      "midi": 60,
      "hit": false,
      "t": 109159.73299999996,
      "d": 84.03366666666989,
      "v": 102
    },
    {
      "midi": 42,
      "hit": false,
      "t": 109159.73300000017,
      "d": 126.05049999999756,
      "v": 115
    },
    {
      "midi": 40,
      "hit": false,
      "t": 109411.83399999906,
      "d": 126.05049999999756,
      "v": 100
    },
    {
      "midi": 36,
      "hit": false,
      "t": 109411.83399999968,
      "d": 331.93298333333223,
      "v": 103
    },
    {
      "midi": 65,
      "hit": false,
      "t": 109411.83399999997,
      "d": 378.1515000000072,
      "v": 112
    },
    {
      "midi": 40,
      "hit": false,
      "t": 109537.88449999905,
      "d": 126.05049999999756,
      "v": 93
    },
    {
      "midi": 40,
      "hit": false,
      "t": 109663.93499999905,
      "d": 126.05049999999756,
      "v": 102
    },
    {
      "midi": 42,
      "hit": false,
      "t": 109663.93500000017,
      "d": 126.05049999999756,
      "v": 103
    },
    {
      "midi": 40,
      "hit": false,
      "t": 109789.98549999905,
      "d": 126.05049999999756,
      "v": 94
    },
    {
      "midi": 40,
      "hit": false,
      "t": 109916.03599999905,
      "d": 126.05049999999756,
      "v": 109
    },
    {
      "midi": 41,
      "hit": false,
      "t": 109916.03599999969,
      "d": 331.93298333333223,
      "v": 115
    },
    {
      "midi": 62,
      "hit": false,
      "t": 109916.03599999998,
      "d": 92.43703333333542,
      "v": 110
    },
    {
      "midi": 40,
      "hit": false,
      "t": 110168.13699999904,
      "d": 126.05049999999756,
      "v": 109
    },
    {
      "midi": 60,
      "hit": false,
      "t": 110168.13699999997,
      "d": 84.03366666666989,
      "v": 100
    },
    {
      "midi": 42,
      "hit": false,
      "t": 110168.13700000018,
      "d": 126.05049999999756,
      "v": 115
    },
    {
      "midi": 40,
      "hit": false,
      "t": 110420.23799999904,
      "d": 126.05049999999756,
      "v": 100
    },
    {
      "midi": 36,
      "hit": false,
      "t": 110420.23799999969,
      "d": 331.93298333333223,
      "v": 103
    },
    {
      "midi": 65,
      "hit": false,
      "t": 110420.23799999998,
      "d": 378.1515000000072,
      "v": 110
    },
    {
      "midi": 40,
      "hit": false,
      "t": 110546.28849999903,
      "d": 126.05049999999756,
      "v": 95
    },
    {
      "midi": 40,
      "hit": false,
      "t": 110672.33899999903,
      "d": 126.05049999999756,
      "v": 101
    },
    {
      "midi": 42,
      "hit": false,
      "t": 110672.33900000018,
      "d": 126.05049999999756,
      "v": 104
    },
    {
      "midi": 40,
      "hit": false,
      "t": 110798.38949999903,
      "d": 126.05049999999756,
      "v": 95
    },
    {
      "midi": 40,
      "hit": false,
      "t": 110924.43999999903,
      "d": 126.05049999999756,
      "v": 108
    },
    {
      "midi": 41,
      "hit": false,
      "t": 110924.4399999997,
      "d": 331.93298333333223,
      "v": 113
    },
    {
      "midi": 62,
      "hit": false,
      "t": 110924.43999999999,
      "d": 92.43703333333542,
      "v": 114
    },
    {
      "midi": 40,
      "hit": false,
      "t": 111176.54099999902,
      "d": 126.05049999999756,
      "v": 108
    },
    {
      "midi": 60,
      "hit": false,
      "t": 111176.54099999998,
      "d": 84.03366666666989,
      "v": 102
    },
    {
      "midi": 42,
      "hit": false,
      "t": 111176.54100000019,
      "d": 126.05049999999756,
      "v": 117
    },
    {
      "midi": 40,
      "hit": false,
      "t": 111428.64199999902,
      "d": 126.05049999999756,
      "v": 100
    },
    {
      "midi": 36,
      "hit": false,
      "t": 111428.6419999997,
      "d": 331.93298333333223,
      "v": 104
    },
    {
      "midi": 65,
      "hit": false,
      "t": 111428.64199999999,
      "d": 84.03366666666989,
      "v": 99
    },
    {
      "midi": 40,
      "hit": false,
      "t": 111554.69249999902,
      "d": 126.05049999999756,
      "v": 93
    },
    {
      "midi": 40,
      "hit": false,
      "t": 111680.74299999901,
      "d": 126.05049999999756,
      "v": 102
    },
    {
      "midi": 67,
      "hit": false,
      "t": 111680.743,
      "d": 84.03366666666989,
      "v": 106
    },
    {
      "midi": 42,
      "hit": false,
      "t": 111680.74300000019,
      "d": 126.05049999999756,
      "v": 104
    },
    {
      "midi": 40,
      "hit": false,
      "t": 111806.79349999901,
      "d": 126.05049999999756,
      "v": 94
    },
    {
      "midi": 40,
      "hit": false,
      "t": 111932.84399999901,
      "d": 126.05049999999756,
      "v": 109
    },
    {
      "midi": 41,
      "hit": false,
      "t": 111932.8439999997,
      "d": 331.93298333333223,
      "v": 114
    },
    {
      "midi": 69,
      "hit": false,
      "t": 111932.84400000001,
      "d": 756.3029999999999,
      "v": 116
    },
    {
      "midi": 40,
      "hit": false,
      "t": 112184.944999999,
      "d": 126.05049999999756,
      "v": 109
    },
    {
      "midi": 42,
      "hit": false,
      "t": 112184.9450000002,
      "d": 126.05049999999756,
      "v": 115
    },
    {
      "midi": 69,
      "hit": false,
      "t": 112197.55004999964,
      "d": 79.83198333333712,
      "v": 69
    },
    {
      "midi": 72,
      "hit": false,
      "t": 112197.55004999964,
      "d": 79.83198333333712,
      "v": 69
    },
    {
      "midi": 69,
      "hit": false,
      "t": 112197.55004999967,
      "d": 79.83198333333712,
      "v": 60
    },
    {
      "midi": 72,
      "hit": false,
      "t": 112197.55004999967,
      "d": 79.83198333333712,
      "v": 60
    },
    {
      "midi": 69,
      "hit": false,
      "t": 112323.60054999964,
      "d": 12.6050499999983,
      "v": 82
    },
    {
      "midi": 72,
      "hit": false,
      "t": 112323.60054999964,
      "d": 37.8151499999949,
      "v": 82
    },
    {
      "midi": 69,
      "hit": false,
      "t": 112323.60054999967,
      "d": 12.6050499999983,
      "v": 82
    },
    {
      "midi": 72,
      "hit": false,
      "t": 112323.60054999967,
      "d": 37.8151499999949,
      "v": 82
    },
    {
      "midi": 40,
      "hit": false,
      "t": 112437.045999999,
      "d": 126.05049999999756,
      "v": 100
    },
    {
      "midi": 69,
      "hit": false,
      "t": 112437.04599999964,
      "d": 71.42861666667159,
      "v": 108
    },
    {
      "midi": 72,
      "hit": false,
      "t": 112437.04599999964,
      "d": 71.42861666667159,
      "v": 108
    },
    {
      "midi": 69,
      "hit": false,
      "t": 112437.04599999967,
      "d": 71.42861666667159,
      "v": 108
    },
    {
      "midi": 72,
      "hit": false,
      "t": 112437.04599999967,
      "d": 71.42861666667159,
      "v": 108
    },
    {
      "midi": 36,
      "hit": false,
      "t": 112437.04599999971,
      "d": 331.93298333333223,
      "v": 106
    },
    {
      "midi": 40,
      "hit": false,
      "t": 112563.096499999,
      "d": 126.05049999999756,
      "v": 95
    },
    {
      "midi": 40,
      "hit": false,
      "t": 112689.146999999,
      "d": 126.05049999999756,
      "v": 101
    },
    {
      "midi": 69,
      "hit": false,
      "t": 112689.14699999965,
      "d": 58.82356666667329,
      "v": 125
    },
    {
      "midi": 72,
      "hit": false,
      "t": 112689.14699999965,
      "d": 71.42861666667159,
      "v": 125
    },
    {
      "midi": 69,
      "hit": false,
      "t": 112689.14699999968,
      "d": 58.82356666667329,
      "v": 125
    },
    {
      "midi": 72,
      "hit": false,
      "t": 112689.14699999968,
      "d": 71.42861666667159,
      "v": 125
    },
    {
      "midi": 42,
      "hit": false,
      "t": 112689.1470000002,
      "d": 126.05049999999756,
      "v": 105
    },
    {
      "midi": 40,
      "hit": false,
      "t": 112815.19749999899,
      "d": 126.05049999999756,
      "v": 95
    },
    {
      "midi": 40,
      "hit": false,
      "t": 112941.24799999899,
      "d": 126.05049999999756,
      "v": 108
    },
    {
      "midi": 43,
      "hit": false,
      "t": 112941.24799999972,
      "d": 331.93298333333223,
      "v": 112
    },
    {
      "midi": 67,
      "hit": false,
      "t": 112941.248,
      "d": 92.43703333333542,
      "v": 114
    },
    {
      "midi": 40,
      "hit": false,
      "t": 113193.34899999898,
      "d": 126.05049999999756,
      "v": 108
    },
    {
      "midi": 62,
      "hit": false,
      "t": 113193.349,
      "d": 71.42861666667159,
      "v": 103
    },
    {
      "midi": 42,
      "hit": false,
      "t": 113193.3490000002,
      "d": 126.05049999999756,
      "v": 114
    },
    {
      "midi": 40,
      "hit": false,
      "t": 113445.44999999898,
      "d": 126.05049999999756,
      "v": 100
    },
    {
      "midi": 38,
      "hit": false,
      "t": 113445.44999999972,
      "d": 331.93298333333223,
      "v": 102
    },
    {
      "midi": 62,
      "hit": false,
      "t": 113445.45000000001,
      "d": 378.1515000000072,
      "v": 112
    },
    {
      "midi": 40,
      "hit": false,
      "t": 113571.50049999898,
      "d": 126.05049999999756,
      "v": 93
    },
    {
      "midi": 40,
      "hit": false,
      "t": 113697.55099999897,
      "d": 126.05049999999756,
      "v": 102
    },
    {
      "midi": 42,
      "hit": false,
      "t": 113697.55100000021,
      "d": 126.05049999999756,
      "v": 104
    },
    {
      "midi": 40,
      "hit": false,
      "t": 113823.60149999897,
      "d": 126.05049999999756,
      "v": 94
    },
    {
      "midi": 40,
      "hit": false,
      "t": 113949.65199999897,
      "d": 126.05049999999756,
      "v": 109
    },
    {
      "midi": 43,
      "hit": false,
      "t": 113949.65199999973,
      "d": 331.93298333333223,
      "v": 112
    },
    {
      "midi": 67,
      "hit": false,
      "t": 113949.65200000002,
      "d": 92.43703333333542,
      "v": 117
    },
    {
      "midi": 40,
      "hit": false,
      "t": 114201.75299999896,
      "d": 126.05049999999756,
      "v": 109
    },
    {
      "midi": 62,
      "hit": false,
      "t": 114201.75300000001,
      "d": 71.42861666667159,
      "v": 101
    },
    {
      "midi": 42,
      "hit": false,
      "t": 114201.75300000022,
      "d": 126.05049999999756,
      "v": 113
    },
    {
      "midi": 40,
      "hit": false,
      "t": 114453.85399999896,
      "d": 126.05049999999756,
      "v": 100
    },
    {
      "midi": 38,
      "hit": false,
      "t": 114453.85399999973,
      "d": 331.93298333333223,
      "v": 103
    },
    {
      "midi": 62,
      "hit": false,
      "t": 114453.85400000002,
      "d": 378.1515000000072,
      "v": 112
    },
    {
      "midi": 40,
      "hit": false,
      "t": 114579.90449999896,
      "d": 126.05049999999756,
      "v": 95
    },
    {
      "midi": 40,
      "hit": false,
      "t": 114705.95499999895,
      "d": 126.05049999999756,
      "v": 101
    },
    {
      "midi": 42,
      "hit": false,
      "t": 114705.95500000022,
      "d": 126.05049999999756,
      "v": 104
    },
    {
      "midi": 40,
      "hit": false,
      "t": 114832.00549999895,
      "d": 126.05049999999756,
      "v": 95
    },
    {
      "midi": 40,
      "hit": false,
      "t": 114958.05599999895,
      "d": 126.05049999999756,
      "v": 108
    },
    {
      "midi": 43,
      "hit": false,
      "t": 114958.05599999973,
      "d": 331.93298333333223,
      "v": 110
    },
    {
      "midi": 67,
      "hit": false,
      "t": 114958.05600000003,
      "d": 84.03366666666989,
      "v": 112
    },
    {
      "midi": 40,
      "hit": false,
      "t": 115210.15699999894,
      "d": 126.05049999999756,
      "v": 108
    },
    {
      "midi": 62,
      "hit": false,
      "t": 115210.15700000004,
      "d": 84.03366666666989,
      "v": 105
    },
    {
      "midi": 42,
      "hit": false,
      "t": 115210.15700000022,
      "d": 126.05049999999756,
      "v": 113
    },
    {
      "midi": 40,
      "hit": false,
      "t": 115462.25799999894,
      "d": 126.05049999999756,
      "v": 100
    },
    {
      "midi": 38,
      "hit": false,
      "t": 115462.25799999974,
      "d": 331.93298333333223,
      "v": 101
    },
    {
      "midi": 70,
      "hit": false,
      "t": 115462.25800000005,
      "d": 84.03366666666989,
      "v": 117
    },
    {
      "midi": 40,
      "hit": false,
      "t": 115588.30849999894,
      "d": 126.05049999999756,
      "v": 93
    },
    {
      "midi": 40,
      "hit": false,
      "t": 115714.35899999893,
      "d": 126.05049999999756,
      "v": 102
    },
    {
      "midi": 69,
      "hit": false,
      "t": 115714.35900000005,
      "d": 92.43703333333542,
      "v": 112
    },
    {
      "midi": 42,
      "hit": false,
      "t": 115714.35900000023,
      "d": 126.05049999999756,
      "v": 103
    },
    {
      "midi": 40,
      "hit": false,
      "t": 115840.40949999893,
      "d": 126.05049999999756,
      "v": 94
    },
    {
      "midi": 40,
      "hit": false,
      "t": 115966.45999999893,
      "d": 126.05049999999756,
      "v": 109
    },
    {
      "midi": 43,
      "hit": false,
      "t": 115966.45999999974,
      "d": 331.93298333333223,
      "v": 113
    },
    {
      "midi": 67,
      "hit": false,
      "t": 115966.46000000005,
      "d": 756.3029999999999,
      "v": 110
    },
    {
      "midi": 40,
      "hit": false,
      "t": 116218.56099999892,
      "d": 126.05049999999756,
      "v": 109
    },
    {
      "midi": 72,
      "hit": false,
      "t": 116218.56099999943,
      "d": 504.2020000000048,
      "v": 104
    },
    {
      "midi": 69,
      "hit": false,
      "t": 116218.56099999965,
      "d": 71.42861666667159,
      "v": 127
    },
    {
      "midi": 69,
      "hit": false,
      "t": 116218.56099999968,
      "d": 71.42861666667159,
      "v": 127
    },
    {
      "midi": 42,
      "hit": false,
      "t": 116218.56100000023,
      "d": 126.05049999999756,
      "v": 113
    },
    {
      "midi": 72,
      "hit": false,
      "t": 116231.16604999965,
      "d": 79.83198333333712,
      "v": 127
    },
    {
      "midi": 72,
      "hit": false,
      "t": 116231.16604999968,
      "d": 79.83198333333712,
      "v": 127
    },
    {
      "midi": 40,
      "hit": false,
      "t": 116470.66199999892,
      "d": 126.05049999999756,
      "v": 100
    },
    {
      "midi": 36,
      "hit": false,
      "t": 116470.66199999975,
      "d": 331.93298333333223,
      "v": 103
    },
    {
      "midi": 40,
      "hit": false,
      "t": 116596.71249999892,
      "d": 126.05049999999756,
      "v": 95
    },
    {
      "midi": 40,
      "hit": false,
      "t": 116722.76299999891,
      "d": 126.05049999999756,
      "v": 101
    },
    {
      "midi": 70,
      "hit": false,
      "t": 116722.76299999944,
      "d": 252.1009999999951,
      "v": 101
    },
    {
      "midi": 42,
      "hit": false,
      "t": 116722.76300000024,
      "d": 126.05049999999756,
      "v": 103
    },
    {
      "midi": 40,
      "hit": false,
      "t": 116848.81349999891,
      "d": 126.05049999999756,
      "v": 95
    },
    {
      "midi": 40,
      "hit": false,
      "t": 116974.86399999891,
      "d": 126.05049999999756,
      "v": 108
    },
    {
      "midi": 69,
      "hit": false,
      "t": 116974.86399999943,
      "d": 2016.8080000000045,
      "v": 97
    },
    {
      "midi": 41,
      "hit": false,
      "t": 116974.86399999975,
      "d": 331.93298333333223,
      "v": 114
    },
    {
      "midi": 40,
      "hit": false,
      "t": 117226.9649999989,
      "d": 126.05049999999756,
      "v": 108
    },
    {
      "midi": 57,
      "hit": false,
      "t": 117226.96499999985,
      "d": 323.5296166666667,
      "v": 123
    },
    {
      "midi": 42,
      "hit": false,
      "t": 117226.96500000024,
      "d": 126.05049999999756,
      "v": 114
    },
    {
      "midi": 40,
      "hit": false,
      "t": 117479.0659999989,
      "d": 126.05049999999756,
      "v": 100
    },
    {
      "midi": 36,
      "hit": false,
      "t": 117479.06599999976,
      "d": 331.93298333333223,
      "v": 104
    },
    {
      "midi": 40,
      "hit": false,
      "t": 117605.1164999989,
      "d": 126.05049999999756,
      "v": 93
    },
    {
      "midi": 40,
      "hit": false,
      "t": 117731.1669999989,
      "d": 126.05049999999756,
      "v": 102
    },
    {
      "midi": 58,
      "hit": false,
      "t": 117731.16699999986,
      "d": 71.42861666667159,
      "v": 109
    },
    {
      "midi": 42,
      "hit": false,
      "t": 117731.16700000025,
      "d": 126.05049999999756,
      "v": 101
    },
    {
      "midi": 40,
      "hit": false,
      "t": 117857.2174999989,
      "d": 126.05049999999756,
      "v": 94
    },
    {
      "midi": 40,
      "hit": false,
      "t": 117983.26799999889,
      "d": 126.05049999999756,
      "v": 109
    },
    {
      "midi": 41,
      "hit": false,
      "t": 117983.26799999976,
      "d": 331.93298333333223,
      "v": 116
    },
    {
      "midi": 60,
      "hit": false,
      "t": 117983.26799999987,
      "d": 323.5296166666667,
      "v": 123
    },
    {
      "midi": 40,
      "hit": false,
      "t": 118235.36899999889,
      "d": 126.05049999999756,
      "v": 109
    },
    {
      "midi": 42,
      "hit": false,
      "t": 118235.36900000025,
      "d": 126.05049999999756,
      "v": 113
    },
    {
      "midi": 40,
      "hit": false,
      "t": 118487.46999999888,
      "d": 126.05049999999756,
      "v": 100
    },
    {
      "midi": 36,
      "hit": false,
      "t": 118487.46999999977,
      "d": 331.93298333333223,
      "v": 103
    },
    {
      "midi": 57,
      "hit": false,
      "t": 118487.46999999987,
      "d": 323.5296166666667,
      "v": 115
    },
    {
      "midi": 40,
      "hit": false,
      "t": 118613.52049999888,
      "d": 126.05049999999756,
      "v": 95
    },
    {
      "midi": 40,
      "hit": false,
      "t": 118739.57099999888,
      "d": 126.05049999999756,
      "v": 101
    },
    {
      "midi": 42,
      "hit": false,
      "t": 118739.57100000026,
      "d": 126.05049999999756,
      "v": 102
    },
    {
      "midi": 40,
      "hit": false,
      "t": 118865.62149999887,
      "d": 126.05049999999756,
      "v": 95
    },
    {
      "midi": 40,
      "hit": false,
      "t": 118991.67199999887,
      "d": 126.05049999999756,
      "v": 108
    },
    {
      "midi": 70,
      "hit": false,
      "t": 118991.67199999944,
      "d": 1008.403999999995,
      "v": 90
    },
    {
      "midi": 41,
      "hit": false,
      "t": 118991.67199999977,
      "d": 331.93298333333223,
      "v": 115
    },
    {
      "midi": 53,
      "hit": false,
      "t": 118991.67199999987,
      "d": 323.5296166666667,
      "v": 112
    },
    {
      "midi": 40,
      "hit": false,
      "t": 119243.77299999887,
      "d": 126.05049999999756,
      "v": 108
    },
    {
      "midi": 42,
      "hit": false,
      "t": 119243.77300000026,
      "d": 126.05049999999756,
      "v": 113
    },
    {
      "midi": 40,
      "hit": false,
      "t": 119495.87399999886,
      "d": 126.05049999999756,
      "v": 100
    },
    {
      "midi": 34,
      "hit": false,
      "t": 119495.87399999978,
      "d": 331.93298333333223,
      "v": 103
    },
    {
      "midi": 62,
      "hit": false,
      "t": 119495.87399999988,
      "d": 323.5296166666667,
      "v": 122
    },
    {
      "midi": 40,
      "hit": false,
      "t": 119621.92449999886,
      "d": 126.05049999999756,
      "v": 93
    },
    {
      "midi": 40,
      "hit": false,
      "t": 119747.97499999886,
      "d": 126.05049999999756,
      "v": 102
    },
    {
      "midi": 42,
      "hit": false,
      "t": 119747.97500000027,
      "d": 126.05049999999756,
      "v": 103
    },
    {
      "midi": 40,
      "hit": false,
      "t": 119874.02549999885,
      "d": 126.05049999999756,
      "v": 94
    },
    {
      "midi": 40,
      "hit": false,
      "t": 120000.07599999885,
      "d": 126.05049999999756,
      "v": 109
    },
    {
      "midi": 72,
      "hit": false,
      "t": 120000.07599999943,
      "d": 1008.403999999995,
      "v": 101
    },
    {
      "midi": 41,
      "hit": false,
      "t": 120000.07599999978,
      "d": 331.93298333333223,
      "v": 114
    },
    {
      "midi": 60,
      "hit": false,
      "t": 120000.07599999988,
      "d": 823.5299333333387,
      "v": 113
    },
    {
      "midi": 48,
      "hit": false,
      "t": 120210.16016666655,
      "d": 126.05049999999756,
      "v": 92
    },
    {
      "midi": 40,
      "hit": false,
      "t": 120252.17699999885,
      "d": 126.05049999999756,
      "v": 109
    },
    {
      "midi": 42,
      "hit": false,
      "t": 120252.17700000027,
      "d": 126.05049999999756,
      "v": 114
    },
    {
      "midi": 40,
      "hit": false,
      "t": 120504.27799999884,
      "d": 126.05049999999756,
      "v": 100
    },
    {
      "midi": 36,
      "hit": false,
      "t": 120504.27799999979,
      "d": 331.93298333333223,
      "v": 101
    },
    {
      "midi": 47,
      "hit": false,
      "t": 120504.27799999989,
      "d": 126.05049999999756,
      "v": 86
    },
    {
      "midi": 40,
      "hit": false,
      "t": 120630.32849999884,
      "d": 126.05049999999756,
      "v": 95
    },
    {
      "midi": 40,
      "hit": false,
      "t": 120756.37899999884,
      "d": 126.05049999999756,
      "v": 101
    },
    {
      "midi": 46,
      "hit": false,
      "t": 120756.37899999988,
      "d": 126.05050000001211,
      "v": 79
    },
    {
      "midi": 42,
      "hit": false,
      "t": 120756.37900000028,
      "d": 126.05049999999756,
      "v": 102
    },
    {
      "midi": 40,
      "hit": false,
      "t": 120882.42949999883,
      "d": 126.05049999999756,
      "v": 95
    },
    {
      "midi": 40,
      "hit": false,
      "t": 121008.47999999883,
      "d": 126.05049999999756,
      "v": 108
    },
    {
      "midi": 74,
      "hit": false,
      "t": 121008.47999999943,
      "d": 1932.7743333333347,
      "v": 105
    },
    {
      "midi": 38,
      "hit": false,
      "t": 121008.47999999979,
      "d": 331.93298333333223,
      "v": 113
    },
    {
      "midi": 45,
      "hit": false,
      "t": 121008.4799999999,
      "d": 798.319833333313,
      "v": 72
    },
    {
      "midi": 40,
      "hit": false,
      "t": 121260.58099999883,
      "d": 126.05049999999756,
      "v": 109
    },
    {
      "midi": 53,
      "hit": false,
      "t": 121260.58099999989,
      "d": 348.7397166666633,
      "v": 113
    },
    {
      "midi": 57,
      "hit": false,
      "t": 121260.58099999989,
      "d": 361.3447666666616,
      "v": 113
    },
    {
      "midi": 62,
      "hit": false,
      "t": 121260.58099999989,
      "d": 378.15149999999267,
      "v": 113
    },
    {
      "midi": 42,
      "hit": false,
      "t": 121260.58100000028,
      "d": 126.05049999999756,
      "v": 114
    },
    {
      "midi": 33,
      "hit": false,
      "t": 121512.6819999998,
      "d": 331.93298333333223,
      "v": 105
    },
    {
      "midi": 40,
      "hit": false,
      "t": 121764.78299999883,
      "d": 126.05049999999756,
      "v": 108
    },
    {
      "midi": 52,
      "hit": false,
      "t": 121764.78299999988,
      "d": 79.83198333332257,
      "v": 97
    },
    {
      "midi": 55,
      "hit": false,
      "t": 121764.78299999988,
      "d": 88.2353499999881,
      "v": 91
    },
    {
      "midi": 61,
      "hit": false,
      "t": 121764.78299999988,
      "d": 88.2353499999881,
      "v": 105
    },
    {
      "midi": 42,
      "hit": false,
      "t": 121764.78300000029,
      "d": 126.05049999999756,
      "v": 101
    },
    {
      "midi": 40,
      "hit": false,
      "t": 122016.88399999883,
      "d": 126.05049999999756,
      "v": 109
    },
    {
      "midi": 38,
      "hit": false,
      "t": 122016.8839999998,
      "d": 331.93298333333223,
      "v": 113
    },
    {
      "midi": 62,
      "hit": false,
      "t": 122016.88399999987,
      "d": 96.63871666666819,
      "v": 113
    },
    {
      "midi": 53,
      "hit": false,
      "t": 122016.88399999987,
      "d": 96.63871666666819,
      "v": 115
    },
    {
      "midi": 57,
      "hit": false,
      "t": 122016.88399999987,
      "d": 96.63871666666819,
      "v": 115
    },
    {
      "midi": 40,
      "hit": false,
      "t": 122268.98499999882,
      "d": 126.05049999999756,
      "v": 109
    },
    {
      "midi": 61,
      "hit": false,
      "t": 122268.98499999987,
      "d": 79.83198333333712,
      "v": 105
    },
    {
      "midi": 52,
      "hit": false,
      "t": 122268.98499999987,
      "d": 79.83198333333712,
      "v": 104
    },
    {
      "midi": 55,
      "hit": false,
      "t": 122268.98499999987,
      "d": 88.23535000000265,
      "v": 108
    },
    {
      "midi": 42,
      "hit": false,
      "t": 122268.98500000029,
      "d": 126.05049999999756,
      "v": 112
    },
    {
      "midi": 40,
      "hit": false,
      "t": 122521.08599999882,
      "d": 126.05049999999756,
      "v": 101
    },
    {
      "midi": 33,
      "hit": false,
      "t": 122521.0859999998,
      "d": 331.93298333333223,
      "v": 105
    },
    {
      "midi": 62,
      "hit": false,
      "t": 122521.08599999988,
      "d": 96.63871666666819,
      "v": 111
    },
    {
      "midi": 50,
      "hit": false,
      "t": 122521.08599999988,
      "d": 96.63871666666819,
      "v": 114
    },
    {
      "midi": 53,
      "hit": false,
      "t": 122521.08599999988,
      "d": 96.63871666666819,
      "v": 114
    },
    {
      "midi": 40,
      "hit": false,
      "t": 122647.13649999881,
      "d": 126.05049999999756,
      "v": 94
    },
    {
      "midi": 40,
      "hit": false,
      "t": 122773.18699999881,
      "d": 126.05049999999756,
      "v": 100
    },
    {
      "midi": 62,
      "hit": false,
      "t": 122773.18699999987,
      "d": 79.83198333333712,
      "v": 113
    },
    {
      "midi": 52,
      "hit": false,
      "t": 122773.18699999987,
      "d": 79.83198333333712,
      "v": 104
    },
    {
      "midi": 55,
      "hit": false,
      "t": 122773.18699999987,
      "d": 88.23535000000265,
      "v": 104
    },
    {
      "midi": 42,
      "hit": false,
      "t": 122773.1870000003,
      "d": 126.05049999999756,
      "v": 101
    },
    {
      "midi": 40,
      "hit": false,
      "t": 122899.23749999881,
      "d": 126.05049999999756,
      "v": 94
    },
    {
      "midi": 40,
      "hit": false,
      "t": 123025.2879999988,
      "d": 126.05049999999756,
      "v": 109
    },
    {
      "midi": 73,
      "hit": false,
      "t": 123025.28799999943,
      "d": 168.06733333332522,
      "v": 116
    },
    {
      "midi": 40,
      "hit": false,
      "t": 123025.28799999981,
      "d": 331.93298333333223,
      "v": 112
    },
    {
      "midi": 52,
      "hit": false,
      "t": 123025.28799999988,
      "d": 1252.1016333333391,
      "v": 125
    },
    {
      "midi": 61,
      "hit": false,
      "t": 123025.28799999988,
      "d": 1260.5050000000047,
      "v": 110
    },
    {
      "midi": 74,
      "hit": false,
      "t": 123151.33849999943,
      "d": 168.06733333332522,
      "v": 92
    },
    {
      "midi": 40,
      "hit": false,
      "t": 123277.3889999988,
      "d": 126.05049999999756,
      "v": 110
    },
    {
      "midi": 76,
      "hit": false,
      "t": 123277.38899999943,
      "d": 168.06733333332522,
      "v": 117
    },
    {
      "midi": 42,
      "hit": false,
      "t": 123277.3890000003,
      "d": 126.05049999999756,
      "v": 113
    },
    {
      "midi": 77,
      "hit": false,
      "t": 123403.43949999943,
      "d": 168.06733333332522,
      "v": 97
    },
    {
      "midi": 40,
      "hit": false,
      "t": 123529.4899999988,
      "d": 126.05049999999756,
      "v": 103
    },
    {
      "midi": 79,
      "hit": false,
      "t": 123529.48999999942,
      "d": 168.06733333332522,
      "v": 119
    },
    {
      "midi": 33,
      "hit": false,
      "t": 123529.48999999982,
      "d": 331.93298333333223,
      "v": 104
    },
    {
      "midi": 40,
      "hit": false,
      "t": 123655.5404999988,
      "d": 126.05049999999756,
      "v": 97
    },
    {
      "midi": 78,
      "hit": false,
      "t": 123655.54049999942,
      "d": 168.06733333332522,
      "v": 101
    },
    {
      "midi": 40,
      "hit": false,
      "t": 123781.59099999879,
      "d": 126.05049999999756,
      "v": 103
    },
    {
      "midi": 79,
      "hit": false,
      "t": 123781.59099999942,
      "d": 168.06733333332522,
      "v": 120
    },
    {
      "midi": 42,
      "hit": false,
      "t": 123781.5910000003,
      "d": 126.05049999999756,
      "v": 101
    },
    {
      "midi": 40,
      "hit": false,
      "t": 123907.64149999879,
      "d": 126.05049999999756,
      "v": 100
    },
    {
      "midi": 80,
      "hit": false,
      "t": 123907.64149999942,
      "d": 168.06733333332522,
      "v": 104
    },
    {
      "midi": 40,
      "hit": false,
      "t": 124033.69199999879,
      "d": 126.05049999999756,
      "v": 112
    },
    {
      "midi": 81,
      "hit": false,
      "t": 124033.69199999941,
      "d": 105.04208333333372,
      "v": 127
    },
    {
      "midi": 40,
      "hit": false,
      "t": 124033.69199999982,
      "d": 168.06733333333977,
      "v": 112
    },
    {
      "midi": 42,
      "hit": false,
      "t": 124285.79300000031,
      "d": 126.05049999999756,
      "v": 113
    },
    {
      "midi": 69,
      "hit": false,
      "t": 124537.89399999942,
      "d": 260.50436666666064,
      "v": 108
    },
    {
      "midi": 33,
      "hit": false,
      "t": 124537.89399999974,
      "d": 453.781799999997,
      "v": 96
    },
    {
      "midi": 33,
      "hit": false,
      "t": 124537.89399999983,
      "d": 378.1515000000072,
      "v": 113
    },
    {
      "midi": 81,
      "hit": false,
      "t": 124537.89399999987,
      "d": 126.05050000001211,
      "v": 113
    },
    {
      "midi": 57,
      "hit": false,
      "t": 124537.89399999988,
      "d": 390.7565500000055,
      "v": 121
    },
    {
      "midi": 53,
      "hit": false,
      "t": 124537.89399999988,
      "d": 394.9582333333383,
      "v": 121
    },
    {
      "midi": 49,
      "hit": false,
      "t": 124537.89399999997,
      "d": 630.2525000000023,
      "v": 127
    },
    {
      "midi": 35,
      "hit": false,
      "t": 124537.89400000004,
      "d": 63.025250000006054,
      "v": 127
    },
    {
      "midi": 38,
      "hit": false,
      "t": 124537.89400000004,
      "d": 126.05050000001211,
      "v": 127
    },
    {
      "midi": 81,
      "hit": false,
      "t": 124663.94449999988,
      "d": 126.05050000001211,
      "v": 106
    },
    {
      "midi": 82,
      "hit": false,
      "t": 124726.96974999989,
      "d": 8.403366666665534,
      "v": 99
    },
    {
      "midi": 81,
      "hit": false,
      "t": 124789.9949999999,
      "d": 126.05050000001211,
      "v": 110
    },
    {
      "midi": 82,
      "hit": false,
      "t": 124844.61688333323,
      "d": 8.403366666665534,
      "v": 100
    },
    {
      "midi": 81,
      "hit": false,
      "t": 124916.0454999999,
      "d": 126.05049999999756,
      "v": 112
    },
    {
      "midi": 82,
      "hit": false,
      "t": 124966.4656999999,
      "d": 4.201683333332767,
      "v": 101
    },
    {
      "midi": 40,
      "hit": false,
      "t": 125042.09599999878,
      "d": 126.05049999999756,
      "v": 114
    },
    {
      "midi": 74,
      "hit": false,
      "t": 125042.09599999941,
      "d": 109.24376666666649,
      "v": 112
    },
    {
      "midi": 62,
      "hit": false,
      "t": 125042.09599999966,
      "d": 67.22693333333882,
      "v": 110
    },
    {
      "midi": 74,
      "hit": false,
      "t": 125042.09599999966,
      "d": 67.22693333333882,
      "v": 110
    },
    {
      "midi": 62,
      "hit": false,
      "t": 125042.09599999968,
      "d": 67.22693333333882,
      "v": 110
    },
    {
      "midi": 74,
      "hit": false,
      "t": 125042.09599999968,
      "d": 67.22693333333882,
      "v": 110
    },
    {
      "midi": 38,
      "hit": false,
      "t": 125042.09599999973,
      "d": 126.05049999999756,
      "v": 96
    },
    {
      "midi": 38,
      "hit": false,
      "t": 125042.09599999983,
      "d": 126.05049999999756,
      "v": 116
    },
    {
      "midi": 50,
      "hit": false,
      "t": 125042.09599999989,
      "d": 92.43703333333542,
      "v": 119
    },
    {
      "midi": 62,
      "hit": false,
      "t": 125042.09599999989,
      "d": 92.43703333333542,
      "v": 119
    },
    {
      "midi": 86,
      "hit": false,
      "t": 125042.0959999999,
      "d": 126.05049999999756,
      "v": 114
    },
    {
      "midi": 38,
      "hit": false,
      "t": 125042.09600000006,
      "d": 126.05049999999756,
      "v": 100
    },
    {
      "midi": 40,
      "hit": false,
      "t": 125294.19699999878,
      "d": 126.05049999999756,
      "v": 114
    },
    {
      "midi": 72,
      "hit": false,
      "t": 125294.1969999994,
      "d": 109.24376666666649,
      "v": 104
    },
    {
      "midi": 57,
      "hit": false,
      "t": 125294.19699999967,
      "d": 46.218516666660435,
      "v": 107
    },
    {
      "midi": 69,
      "hit": false,
      "t": 125294.19699999967,
      "d": 46.218516666660435,
      "v": 107
    },
    {
      "midi": 57,
      "hit": false,
      "t": 125294.1969999997,
      "d": 46.218516666660435,
      "v": 107
    },
    {
      "midi": 69,
      "hit": false,
      "t": 125294.1969999997,
      "d": 46.218516666660435,
      "v": 107
    },
    {
      "midi": 36,
      "hit": false,
      "t": 125294.19699999972,
      "d": 126.05049999999756,
      "v": 88
    },
    {
      "midi": 36,
      "hit": false,
      "t": 125294.19699999983,
      "d": 126.05049999999756,
      "v": 108
    },
    {
      "midi": 48,
      "hit": false,
      "t": 125294.19699999988,
      "d": 92.43703333333542,
      "v": 117
    },
    {
      "midi": 60,
      "hit": false,
      "t": 125294.19699999988,
      "d": 92.43703333333542,
      "v": 117
    },
    {
      "midi": 84,
      "hit": false,
      "t": 125294.1969999999,
      "d": 126.05049999999756,
      "v": 109
    },
    {
      "midi": 38,
      "hit": false,
      "t": 125294.19700000006,
      "d": 126.05049999999756,
      "v": 100
    },
    {
      "midi": 42,
      "hit": false,
      "t": 125294.1970000003,
      "d": 126.05049999999756,
      "v": 113
    },
    {
      "midi": 40,
      "hit": false,
      "t": 125546.29799999877,
      "d": 126.05049999999756,
      "v": 114
    },
    {
      "midi": 69,
      "hit": false,
      "t": 125546.2979999994,
      "d": 214.2858500000002,
      "v": 99
    },
    {
      "midi": 69,
      "hit": false,
      "t": 125546.29799999966,
      "d": 378.1515000000072,
      "v": 105
    },
    {
      "midi": 57,
      "hit": false,
      "t": 125546.29799999966,
      "d": 378.1515000000072,
      "v": 105
    },
    {
      "midi": 69,
      "hit": false,
      "t": 125546.29799999969,
      "d": 378.1515000000072,
      "v": 105
    },
    {
      "midi": 57,
      "hit": false,
      "t": 125546.29799999969,
      "d": 378.1515000000072,
      "v": 105
    },
    {
      "midi": 38,
      "hit": false,
      "t": 125546.29799999972,
      "d": 239.4959499999968,
      "v": 97
    },
    {
      "midi": 38,
      "hit": false,
      "t": 125546.29799999982,
      "d": 378.1515000000072,
      "v": 116
    },
    {
      "midi": 57,
      "hit": false,
      "t": 125546.29799999988,
      "d": 394.9582333333383,
      "v": 112
    },
    {
      "midi": 45,
      "hit": false,
      "t": 125546.29799999988,
      "d": 407.5632833333366,
      "v": 112
    },
    {
      "midi": 81,
      "hit": false,
      "t": 125546.2979999999,
      "d": 252.1009999999951,
      "v": 105
    },
    {
      "midi": 38,
      "hit": false,
      "t": 125546.29800000005,
      "d": 126.05049999999756,
      "v": 100
    },
    {
      "midi": 40,
      "hit": false,
      "t": 126050.49999999878,
      "d": 126.05049999999756,
      "v": 114
    },
    {
      "midi": 74,
      "hit": false,
      "t": 126050.4999999994,
      "d": 109.24376666666649,
      "v": 112
    },
    {
      "midi": 74,
      "hit": false,
      "t": 126050.49999999967,
      "d": 33.613466666662134,
      "v": 110
    },
    {
      "midi": 62,
      "hit": false,
      "t": 126050.49999999967,
      "d": 33.613466666662134,
      "v": 110
    },
    {
      "midi": 74,
      "hit": false,
      "t": 126050.4999999997,
      "d": 33.613466666662134,
      "v": 110
    },
    {
      "midi": 62,
      "hit": false,
      "t": 126050.4999999997,
      "d": 33.613466666662134,
      "v": 110
    },
    {
      "midi": 38,
      "hit": false,
      "t": 126050.49999999971,
      "d": 126.05049999999756,
      "v": 97
    },
    {
      "midi": 38,
      "hit": false,
      "t": 126050.49999999983,
      "d": 126.05049999999756,
      "v": 118
    },
    {
      "midi": 50,
      "hit": false,
      "t": 126050.49999999988,
      "d": 92.43703333333542,
      "v": 121
    },
    {
      "midi": 62,
      "hit": false,
      "t": 126050.49999999988,
      "d": 92.43703333333542,
      "v": 121
    },
    {
      "midi": 86,
      "hit": false,
      "t": 126050.49999999988,
      "d": 126.05049999999756,
      "v": 115
    },
    {
      "midi": 38,
      "hit": false,
      "t": 126050.50000000006,
      "d": 126.05049999999756,
      "v": 100
    },
    {
      "midi": 40,
      "hit": false,
      "t": 126302.60099999877,
      "d": 126.05049999999756,
      "v": 115
    },
    {
      "midi": 72,
      "hit": false,
      "t": 126302.6009999994,
      "d": 109.24376666666649,
      "v": 105
    },
    {
      "midi": 69,
      "hit": false,
      "t": 126302.60099999966,
      "d": 33.613466666662134,
      "v": 108
    },
    {
      "midi": 57,
      "hit": false,
      "t": 126302.60099999966,
      "d": 33.613466666662134,
      "v": 108
    },
    {
      "midi": 69,
      "hit": false,
      "t": 126302.60099999969,
      "d": 33.613466666662134,
      "v": 108
    },
    {
      "midi": 57,
      "hit": false,
      "t": 126302.60099999969,
      "d": 33.613466666662134,
      "v": 108
    },
    {
      "midi": 36,
      "hit": false,
      "t": 126302.6009999997,
      "d": 126.05049999999756,
      "v": 89
    },
    {
      "midi": 36,
      "hit": false,
      "t": 126302.60099999982,
      "d": 126.05049999999756,
      "v": 110
    },
    {
      "midi": 48,
      "hit": false,
      "t": 126302.60099999988,
      "d": 92.43703333333542,
      "v": 114
    },
    {
      "midi": 60,
      "hit": false,
      "t": 126302.60099999988,
      "d": 92.43703333333542,
      "v": 114
    },
    {
      "midi": 84,
      "hit": false,
      "t": 126302.60099999988,
      "d": 126.05049999999756,
      "v": 109
    },
    {
      "midi": 38,
      "hit": false,
      "t": 126302.60100000005,
      "d": 126.05049999999756,
      "v": 100
    },
    {
      "midi": 42,
      "hit": false,
      "t": 126302.6010000003,
      "d": 126.05049999999756,
      "v": 116
    },
    {
      "midi": 40,
      "hit": false,
      "t": 126554.70199999877,
      "d": 126.05049999999756,
      "v": 115
    },
    {
      "midi": 69,
      "hit": false,
      "t": 126554.7019999994,
      "d": 214.2858500000002,
      "v": 97
    },
    {
      "midi": 69,
      "hit": false,
      "t": 126554.70199999966,
      "d": 378.1515000000072,
      "v": 105
    },
    {
      "midi": 57,
      "hit": false,
      "t": 126554.70199999966,
      "d": 378.1515000000072,
      "v": 105
    },
    {
      "midi": 69,
      "hit": false,
      "t": 126554.70199999968,
      "d": 378.1515000000072,
      "v": 105
    },
    {
      "midi": 57,
      "hit": false,
      "t": 126554.70199999968,
      "d": 378.1515000000072,
      "v": 105
    },
    {
      "midi": 38,
      "hit": false,
      "t": 126554.7019999997,
      "d": 273.1094166666735,
      "v": 98
    },
    {
      "midi": 38,
      "hit": false,
      "t": 126554.70199999982,
      "d": 378.1515000000072,
      "v": 117
    },
    {
      "midi": 45,
      "hit": false,
      "t": 126554.70199999987,
      "d": 420.1683333333349,
      "v": 112
    },
    {
      "midi": 57,
      "hit": false,
      "t": 126554.70199999987,
      "d": 420.1683333333349,
      "v": 112
    },
    {
      "midi": 81,
      "hit": false,
      "t": 126554.70199999987,
      "d": 252.1009999999951,
      "v": 103
    },
    {
      "midi": 49,
      "hit": false,
      "t": 126554.70199999998,
      "d": 504.2020000000048,
      "v": 104
    },
    {
      "midi": 38,
      "hit": false,
      "t": 126554.70200000005,
      "d": 126.05049999999756,
      "v": 100
    },
    {
      "midi": 40,
      "hit": false,
      "t": 127058.90399999877,
      "d": 126.05049999999756,
      "v": 117
    },
    {
      "midi": 74,
      "hit": false,
      "t": 127058.9039999994,
      "d": 109.24376666666649,
      "v": 109
    },
    {
      "midi": 62,
      "hit": false,
      "t": 127058.90399999966,
      "d": 46.218516666660435,
      "v": 110
    },
    {
      "midi": 74,
      "hit": false,
      "t": 127058.90399999966,
      "d": 46.218516666660435,
      "v": 110
    },
    {
      "midi": 62,
      "hit": false,
      "t": 127058.90399999969,
      "d": 46.218516666660435,
      "v": 110
    },
    {
      "midi": 74,
      "hit": false,
      "t": 127058.90399999969,
      "d": 46.218516666660435,
      "v": 110
    },
    {
      "midi": 38,
      "hit": false,
      "t": 127058.9039999997,
      "d": 126.05049999999756,
      "v": 99
    },
    {
      "midi": 38,
      "hit": false,
      "t": 127058.90399999982,
      "d": 126.05049999999756,
      "v": 118
    },
    {
      "midi": 86,
      "hit": false,
      "t": 127058.90399999986,
      "d": 126.05049999999756,
      "v": 115
    },
    {
      "midi": 50,
      "hit": false,
      "t": 127058.90399999988,
      "d": 92.43703333333542,
      "v": 119
    },
    {
      "midi": 62,
      "hit": false,
      "t": 127058.90399999988,
      "d": 92.43703333333542,
      "v": 119
    },
    {
      "midi": 40,
      "hit": false,
      "t": 127311.00499999877,
      "d": 126.05049999999756,
      "v": 117
    },
    {
      "midi": 72,
      "hit": false,
      "t": 127311.0049999994,
      "d": 109.24376666666649,
      "v": 100
    },
    {
      "midi": 72,
      "hit": false,
      "t": 127311.00499999966,
      "d": 46.218516666660435,
      "v": 106
    },
    {
      "midi": 60,
      "hit": false,
      "t": 127311.00499999966,
      "d": 46.218516666660435,
      "v": 106
    },
    {
      "midi": 72,
      "hit": false,
      "t": 127311.00499999968,
      "d": 46.218516666660435,
      "v": 106
    },
    {
      "midi": 60,
      "hit": false,
      "t": 127311.00499999968,
      "d": 46.218516666660435,
      "v": 106
    },
    {
      "midi": 36,
      "hit": false,
      "t": 127311.0049999997,
      "d": 126.05049999999756,
      "v": 88
    },
    {
      "midi": 36,
      "hit": false,
      "t": 127311.00499999982,
      "d": 126.05049999999756,
      "v": 110
    },
    {
      "midi": 84,
      "hit": false,
      "t": 127311.00499999986,
      "d": 126.05049999999756,
      "v": 109
    },
    {
      "midi": 48,
      "hit": false,
      "t": 127311.00499999987,
      "d": 92.43703333333542,
      "v": 111
    },
    {
      "midi": 60,
      "hit": false,
      "t": 127311.00499999987,
      "d": 92.43703333333542,
      "v": 111
    },
    {
      "midi": 42,
      "hit": false,
      "t": 127311.0050000003,
      "d": 126.05049999999756,
      "v": 114
    },
    {
      "midi": 40,
      "hit": false,
      "t": 127563.10599999876,
      "d": 126.05049999999756,
      "v": 109
    },
    {
      "midi": 74,
      "hit": false,
      "t": 127563.10599999939,
      "d": 109.24376666666649,
      "v": 111
    },
    {
      "midi": 74,
      "hit": false,
      "t": 127563.10599999965,
      "d": 46.218516666660435,
      "v": 113
    },
    {
      "midi": 62,
      "hit": false,
      "t": 127563.10599999965,
      "d": 46.218516666660435,
      "v": 113
    },
    {
      "midi": 74,
      "hit": false,
      "t": 127563.10599999968,
      "d": 46.218516666660435,
      "v": 113
    },
    {
      "midi": 62,
      "hit": false,
      "t": 127563.10599999968,
      "d": 46.218516666660435,
      "v": 113
    },
    {
      "midi": 38,
      "hit": false,
      "t": 127563.1059999997,
      "d": 126.05049999999756,
      "v": 99
    },
    {
      "midi": 38,
      "hit": false,
      "t": 127563.10599999981,
      "d": 126.05049999999756,
      "v": 115
    },
    {
      "midi": 86,
      "hit": false,
      "t": 127563.10599999985,
      "d": 126.05049999999756,
      "v": 116
    },
    {
      "midi": 50,
      "hit": false,
      "t": 127563.10599999987,
      "d": 92.43703333333542,
      "v": 121
    },
    {
      "midi": 62,
      "hit": false,
      "t": 127563.10599999987,
      "d": 92.43703333333542,
      "v": 121
    },
    {
      "midi": 40,
      "hit": false,
      "t": 127689.15649999876,
      "d": 126.05049999999756,
      "v": 101
    },
    {
      "midi": 40,
      "hit": false,
      "t": 127815.20699999876,
      "d": 126.05049999999756,
      "v": 111
    },
    {
      "midi": 72,
      "hit": false,
      "t": 127815.20699999938,
      "d": 109.24376666666649,
      "v": 105
    },
    {
      "midi": 72,
      "hit": false,
      "t": 127815.20699999965,
      "d": 58.82356666667329,
      "v": 109
    },
    {
      "midi": 60,
      "hit": false,
      "t": 127815.20699999965,
      "d": 58.82356666667329,
      "v": 109
    },
    {
      "midi": 72,
      "hit": false,
      "t": 127815.20699999967,
      "d": 58.82356666667329,
      "v": 109
    },
    {
      "midi": 60,
      "hit": false,
      "t": 127815.20699999967,
      "d": 58.82356666667329,
      "v": 109
    },
    {
      "midi": 36,
      "hit": false,
      "t": 127815.20699999969,
      "d": 126.05049999999756,
      "v": 88
    },
    {
      "midi": 36,
      "hit": false,
      "t": 127815.2069999998,
      "d": 126.05049999999756,
      "v": 110
    },
    {
      "midi": 84,
      "hit": false,
      "t": 127815.20699999985,
      "d": 126.05049999999756,
      "v": 111
    },
    {
      "midi": 48,
      "hit": false,
      "t": 127815.20699999986,
      "d": 92.43703333333542,
      "v": 119
    },
    {
      "midi": 60,
      "hit": false,
      "t": 127815.20699999986,
      "d": 92.43703333333542,
      "v": 119
    },
    {
      "midi": 42,
      "hit": false,
      "t": 127815.2070000003,
      "d": 126.05049999999756,
      "v": 100
    },
    {
      "midi": 40,
      "hit": false,
      "t": 127941.25749999876,
      "d": 126.05049999999756,
      "v": 102
    },
    {
      "midi": 40,
      "hit": false,
      "t": 128067.30799999875,
      "d": 126.05049999999756,
      "v": 118
    },
    {
      "midi": 69,
      "hit": false,
      "t": 128067.30799999938,
      "d": 109.24376666666649,
      "v": 100
    },
    {
      "midi": 69,
      "hit": false,
      "t": 128067.30799999966,
      "d": 71.42861666667159,
      "v": 108
    },
    {
      "midi": 57,
      "hit": false,
      "t": 128067.30799999966,
      "d": 71.42861666667159,
      "v": 108
    },
    {
      "midi": 69,
      "hit": false,
      "t": 128067.30799999968,
      "d": 71.42861666667159,
      "v": 108
    },
    {
      "midi": 57,
      "hit": false,
      "t": 128067.30799999968,
      "d": 71.42861666667159,
      "v": 108
    },
    {
      "midi": 38,
      "hit": false,
      "t": 128067.30799999968,
      "d": 126.05049999999756,
      "v": 100
    },
    {
      "midi": 38,
      "hit": false,
      "t": 128067.3079999998,
      "d": 126.05049999999756,
      "v": 117
    },
    {
      "midi": 81,
      "hit": false,
      "t": 128067.30799999984,
      "d": 126.05049999999756,
      "v": 104
    },
    {
      "midi": 45,
      "hit": false,
      "t": 128067.30799999986,
      "d": 92.43703333333542,
      "v": 114
    },
    {
      "midi": 57,
      "hit": false,
      "t": 128067.30799999986,
      "d": 92.43703333333542,
      "v": 114
    },
    {
      "midi": 42,
      "hit": false,
      "t": 128067.3080000003,
      "d": 126.05049999999756,
      "v": 114
    },
    {
      "midi": 38,
      "hit": false,
      "t": 128571.5099999998,
      "d": 172.26901666667254,
      "v": 118
    },
    {
      "midi": 49,
      "hit": false,
      "t": 128571.50999999998,
      "d": 756.3029999999999,
      "v": 126
    },
    {
      "midi": 35,
      "hit": false,
      "t": 128571.51000000005,
      "d": 63.025250000006054,
      "v": 127
    },
    {
      "midi": 38,
      "hit": false,
      "t": 128571.51000000005,
      "d": 126.05050000001211,
      "v": 127
    },
    {
      "midi": 69,
      "hit": false,
      "t": 128949.66150000006,
      "d": 4.201683333332767,
      "v": 101
    },
    {
      "midi": 40,
      "hit": false,
      "t": 129075.71199999875,
      "d": 126.05049999999756,
      "v": 108
    },
    {
      "midi": 34,
      "hit": false,
      "t": 129075.71199999981,
      "d": 331.93298333333223,
      "v": 111
    },
    {
      "midi": 77,
      "hit": false,
      "t": 129075.71200000006,
      "d": 504.2020000000048,
      "v": 119
    },
    {
      "midi": 40,
      "hit": false,
      "t": 129327.81299999874,
      "d": 126.05049999999756,
      "v": 108
    },
    {
      "midi": 42,
      "hit": false,
      "t": 129327.8130000003,
      "d": 126.05049999999756,
      "v": 113
    },
    {
      "midi": 40,
      "hit": false,
      "t": 129579.91399999874,
      "d": 126.05049999999756,
      "v": 100
    },
    {
      "midi": 38,
      "hit": false,
      "t": 129579.91399999982,
      "d": 331.93298333333223,
      "v": 104
    },
    {
      "midi": 76,
      "hit": false,
      "t": 129579.91400000006,
      "d": 504.2020000000048,
      "v": 111
    },
    {
      "midi": 40,
      "hit": false,
      "t": 129705.96449999874,
      "d": 126.05049999999756,
      "v": 93
    },
    {
      "midi": 40,
      "hit": false,
      "t": 129832.01499999873,
      "d": 126.05049999999756,
      "v": 102
    },
    {
      "midi": 42,
      "hit": false,
      "t": 129832.0150000003,
      "d": 126.05049999999756,
      "v": 103
    },
    {
      "midi": 40,
      "hit": false,
      "t": 129958.06549999873,
      "d": 126.05049999999756,
      "v": 94
    },
    {
      "midi": 40,
      "hit": false,
      "t": 130084.11599999873,
      "d": 126.05049999999756,
      "v": 109
    },
    {
      "midi": 41,
      "hit": false,
      "t": 130084.11599999982,
      "d": 331.93298333333223,
      "v": 118
    },
    {
      "midi": 74,
      "hit": false,
      "t": 130084.11600000007,
      "d": 504.2020000000048,
      "v": 116
    },
    {
      "midi": 40,
      "hit": false,
      "t": 130336.21699999872,
      "d": 126.05049999999756,
      "v": 109
    },
    {
      "midi": 42,
      "hit": false,
      "t": 130336.21700000031,
      "d": 126.05049999999756,
      "v": 112
    },
    {
      "midi": 40,
      "hit": false,
      "t": 130588.31799999872,
      "d": 126.05049999999756,
      "v": 100
    },
    {
      "midi": 34,
      "hit": false,
      "t": 130588.31799999982,
      "d": 331.93298333333223,
      "v": 103
    },
    {
      "midi": 72,
      "hit": false,
      "t": 130588.31800000007,
      "d": 378.1515000000072,
      "v": 110
    },
    {
      "midi": 40,
      "hit": false,
      "t": 130714.36849999872,
      "d": 126.05049999999756,
      "v": 95
    },
    {
      "midi": 40,
      "hit": false,
      "t": 130840.41899999871,
      "d": 126.05049999999756,
      "v": 101
    },
    {
      "midi": 42,
      "hit": false,
      "t": 130840.41900000031,
      "d": 126.05049999999756,
      "v": 105
    },
    {
      "midi": 40,
      "hit": false,
      "t": 130966.46949999871,
      "d": 126.05049999999756,
      "v": 95
    },
    {
      "midi": 74,
      "hit": false,
      "t": 130966.46950000008,
      "d": 126.05049999999756,
      "v": 83
    },
    {
      "midi": 40,
      "hit": false,
      "t": 131092.5199999987,
      "d": 126.05050000001211,
      "v": 108
    },
    {
      "midi": 36,
      "hit": false,
      "t": 131092.51999999981,
      "d": 331.93298333333223,
      "v": 117
    },
    {
      "midi": 72,
      "hit": false,
      "t": 131092.52000000008,
      "d": 491.5969500000065,
      "v": 108
    },
    {
      "midi": 40,
      "hit": false,
      "t": 131344.62099999873,
      "d": 126.05050000001211,
      "v": 108
    },
    {
      "midi": 42,
      "hit": false,
      "t": 131344.6210000003,
      "d": 126.05050000001211,
      "v": 114
    },
    {
      "midi": 40,
      "hit": false,
      "t": 131596.72199999876,
      "d": 126.05050000001211,
      "v": 100
    },
    {
      "midi": 36,
      "hit": false,
      "t": 131596.7219999998,
      "d": 331.93298333333223,
      "v": 102
    },
    {
      "midi": 70,
      "hit": false,
      "t": 131596.7220000001,
      "d": 491.5969500000065,
      "v": 106
    },
    {
      "midi": 40,
      "hit": false,
      "t": 131722.77249999877,
      "d": 126.05050000001211,
      "v": 93
    },
    {
      "midi": 40,
      "hit": false,
      "t": 131848.82299999878,
      "d": 126.05050000001211,
      "v": 102
    },
    {
      "midi": 42,
      "hit": false,
      "t": 131848.82300000032,
      "d": 126.05050000001211,
      "v": 104
    },
    {
      "midi": 40,
      "hit": false,
      "t": 131974.8734999988,
      "d": 126.05050000001211,
      "v": 94
    },
    {
      "midi": 40,
      "hit": false,
      "t": 132100.9239999988,
      "d": 126.05050000001211,
      "v": 109
    },
    {
      "midi": 41,
      "hit": false,
      "t": 132100.9239999998,
      "d": 331.93298333333223,
      "v": 115
    },
    {
      "midi": 69,
      "hit": false,
      "t": 132100.92400000012,
      "d": 882.3534999999974,
      "v": 104
    },
    {
      "midi": 40,
      "hit": false,
      "t": 132353.02499999883,
      "d": 126.05050000001211,
      "v": 109
    },
    {
      "midi": 77,
      "hit": false,
      "t": 132353.02499999985,
      "d": 147.0589166666905,
      "v": 94
    },
    {
      "midi": 42,
      "hit": false,
      "t": 132353.02500000034,
      "d": 126.05050000001211,
      "v": 116
    },
    {
      "midi": 78,
      "hit": false,
      "t": 132479.07549999986,
      "d": 147.0589166666905,
      "v": 73
    },
    {
      "midi": 40,
      "hit": false,
      "t": 132605.12599999885,
      "d": 126.05050000001211,
      "v": 100
    },
    {
      "midi": 36,
      "hit": false,
      "t": 132605.1259999998,
      "d": 331.93298333333223,
      "v": 106
    },
    {
      "midi": 79,
      "hit": false,
      "t": 132605.12599999987,
      "d": 147.0589166666905,
      "v": 99
    },
    {
      "midi": 40,
      "hit": false,
      "t": 132731.17649999887,
      "d": 126.05050000001211,
      "v": 95
    },
    {
      "midi": 81,
      "hit": false,
      "t": 132731.17649999988,
      "d": 147.0589166666905,
      "v": 73
    },
    {
      "midi": 40,
      "hit": false,
      "t": 132857.22699999888,
      "d": 126.05050000001211,
      "v": 101
    },
    {
      "midi": 82,
      "hit": false,
      "t": 132857.2269999999,
      "d": 147.0589166666905,
      "v": 101
    },
    {
      "midi": 42,
      "hit": false,
      "t": 132857.22700000036,
      "d": 126.05050000001211,
      "v": 103
    },
    {
      "midi": 40,
      "hit": false,
      "t": 132983.2774999989,
      "d": 126.05050000001211,
      "v": 95
    },
    {
      "midi": 83,
      "hit": false,
      "t": 132983.2774999999,
      "d": 147.0589166666905,
      "v": 86
    },
    {
      "midi": 40,
      "hit": false,
      "t": 133109.3279999989,
      "d": 126.05050000001211,
      "v": 108
    },
    {
      "midi": 69,
      "hit": false,
      "t": 133109.32799999966,
      "d": 71.42861666667159,
      "v": 127
    },
    {
      "midi": 69,
      "hit": false,
      "t": 133109.3279999997,
      "d": 71.42861666667159,
      "v": 127
    },
    {
      "midi": 43,
      "hit": false,
      "t": 133109.32799999978,
      "d": 394.9582333333383,
      "v": 114
    },
    {
      "midi": 84,
      "hit": false,
      "t": 133109.32799999992,
      "d": 126.05050000001211,
      "v": 90
    },
    {
      "midi": 72,
      "hit": false,
      "t": 133121.93304999967,
      "d": 71.42861666667159,
      "v": 127
    },
    {
      "midi": 72,
      "hit": false,
      "t": 133121.9330499997,
      "d": 71.42861666667159,
      "v": 127
    },
    {
      "midi": 86,
      "hit": false,
      "t": 133205.9667166666,
      "d": 126.05050000001211,
      "v": 79
    },
    {
      "midi": 84,
      "hit": false,
      "t": 133235.37849999993,
      "d": 126.05050000001211,
      "v": 96
    },
    {
      "midi": 86,
      "hit": false,
      "t": 133332.0172166666,
      "d": 126.05050000001211,
      "v": 80
    },
    {
      "midi": 40,
      "hit": false,
      "t": 133361.42899999893,
      "d": 126.05050000001211,
      "v": 108
    },
    {
      "midi": 60,
      "hit": false,
      "t": 133361.42899999936,
      "d": 1331.9336166668509,
      "v": 105
    },
    {
      "midi": 84,
      "hit": false,
      "t": 133361.42899999995,
      "d": 126.05050000001211,
      "v": 96
    },
    {
      "midi": 72,
      "hit": false,
      "t": 133361.42900000012,
      "d": 504.2019999999902,
      "v": 112
    },
    {
      "midi": 42,
      "hit": false,
      "t": 133361.42900000038,
      "d": 126.05050000001211,
      "v": 115
    },
    {
      "midi": 86,
      "hit": false,
      "t": 133458.0677166666,
      "d": 126.05050000001211,
      "v": 84
    },
    {
      "midi": 84,
      "hit": false,
      "t": 133487.47949999996,
      "d": 126.05050000001211,
      "v": 101
    },
    {
      "midi": 86,
      "hit": false,
      "t": 133584.11821666663,
      "d": 126.05050000001211,
      "v": 82
    },
    {
      "midi": 40,
      "hit": false,
      "t": 133613.52999999895,
      "d": 126.05050000001211,
      "v": 100
    },
    {
      "midi": 38,
      "hit": false,
      "t": 133613.5299999998,
      "d": 344.5380333333451,
      "v": 103
    },
    {
      "midi": 84,
      "hit": false,
      "t": 133613.52999999997,
      "d": 126.05050000001211,
      "v": 95
    },
    {
      "midi": 86,
      "hit": false,
      "t": 133710.16871666664,
      "d": 126.05050000001211,
      "v": 80
    },
    {
      "midi": 40,
      "hit": false,
      "t": 133739.58049999896,
      "d": 126.05050000001211,
      "v": 93
    },
    {
      "midi": 84,
      "hit": false,
      "t": 133739.58049999998,
      "d": 126.05050000001211,
      "v": 99
    },
    {
      "midi": 86,
      "hit": false,
      "t": 133836.21921666665,
      "d": 126.05050000001211,
      "v": 85
    },
    {
      "midi": 40,
      "hit": false,
      "t": 133865.63099999898,
      "d": 126.05050000001211,
      "v": 102
    },
    {
      "midi": 84,
      "hit": false,
      "t": 133865.631,
      "d": 126.05050000001211,
      "v": 98
    },
    {
      "midi": 70,
      "hit": false,
      "t": 133865.6310000001,
      "d": 273.1094166666735,
      "v": 97
    },
    {
      "midi": 42,
      "hit": false,
      "t": 133865.6310000004,
      "d": 126.05050000001211,
      "v": 104
    },
    {
      "midi": 86,
      "hit": false,
      "t": 133962.26971666666,
      "d": 126.05050000001211,
      "v": 83
    },
    {
      "midi": 40,
      "hit": false,
      "t": 133991.681499999,
      "d": 126.05050000001211,
      "v": 94
    },
    {
      "midi": 84,
      "hit": false,
      "t": 133991.6815,
      "d": 126.05050000001211,
      "v": 93
    },
    {
      "midi": 86,
      "hit": false,
      "t": 134088.32021666667,
      "d": 126.05050000001211,
      "v": 81
    },
    {
      "midi": 40,
      "hit": false,
      "t": 134117.731999999,
      "d": 126.05050000001211,
      "v": 109
    },
    {
      "midi": 43,
      "hit": false,
      "t": 134117.7319999998,
      "d": 394.9582333333383,
      "v": 115
    },
    {
      "midi": 84,
      "hit": false,
      "t": 134117.73200000002,
      "d": 126.05050000001211,
      "v": 97
    },
    {
      "midi": 69,
      "hit": false,
      "t": 134117.7320000001,
      "d": 504.2020000000193,
      "v": 113
    },
    {
      "midi": 86,
      "hit": false,
      "t": 134214.3707166667,
      "d": 126.05050000001211,
      "v": 87
    },
    {
      "midi": 84,
      "hit": false,
      "t": 134243.78250000003,
      "d": 126.05050000001211,
      "v": 99
    },
    {
      "midi": 86,
      "hit": false,
      "t": 134340.4212166667,
      "d": 126.05050000001211,
      "v": 84
    },
    {
      "midi": 40,
      "hit": false,
      "t": 134369.83299999902,
      "d": 126.05050000001211,
      "v": 109
    },
    {
      "midi": 84,
      "hit": false,
      "t": 134369.83300000004,
      "d": 126.05050000001211,
      "v": 99
    },
    {
      "midi": 42,
      "hit": false,
      "t": 134369.83300000042,
      "d": 126.05050000001211,
      "v": 115
    },
    {
      "midi": 86,
      "hit": false,
      "t": 134466.4717166667,
      "d": 126.05050000001211,
      "v": 86
    },
    {
      "midi": 84,
      "hit": false,
      "t": 134495.88350000005,
      "d": 126.05050000001211,
      "v": 99
    },
    {
      "midi": 86,
      "hit": false,
      "t": 134592.52221666672,
      "d": 126.05050000001211,
      "v": 86
    },
    {
      "midi": 40,
      "hit": false,
      "t": 134621.93399999905,
      "d": 126.05050000001211,
      "v": 100
    },
    {
      "midi": 58,
      "hit": false,
      "t": 134621.93399999954,
      "d": 504.2020000000193,
      "v": 99
    },
    {
      "midi": 36,
      "hit": false,
      "t": 134621.93399999983,
      "d": 336.13466666667955,
      "v": 103
    },
    {
      "midi": 84,
      "hit": false,
      "t": 134621.93400000007,
      "d": 126.05050000001211,
      "v": 98
    },
    {
      "midi": 67,
      "hit": false,
      "t": 134621.93400000012,
      "d": 478.9918999999936,
      "v": 101
    },
    {
      "midi": 86,
      "hit": false,
      "t": 134718.57271666673,
      "d": 126.05050000001211,
      "v": 84
    },
    {
      "midi": 40,
      "hit": false,
      "t": 134747.98449999906,
      "d": 126.05050000001211,
      "v": 95
    },
    {
      "midi": 84,
      "hit": false,
      "t": 134747.98450000008,
      "d": 126.05050000001211,
      "v": 97
    },
    {
      "midi": 86,
      "hit": false,
      "t": 134844.62321666675,
      "d": 126.05050000001211,
      "v": 86
    },
    {
      "midi": 40,
      "hit": false,
      "t": 134874.03499999907,
      "d": 126.05050000001211,
      "v": 101
    },
    {
      "midi": 84,
      "hit": false,
      "t": 134874.0350000001,
      "d": 126.05050000001211,
      "v": 99
    },
    {
      "midi": 42,
      "hit": false,
      "t": 134874.03500000044,
      "d": 126.05050000001211,
      "v": 104
    },
    {
      "midi": 86,
      "hit": false,
      "t": 134970.67371666676,
      "d": 126.05050000001211,
      "v": 84
    },
    {
      "midi": 40,
      "hit": false,
      "t": 135000.08549999908,
      "d": 126.05050000001211,
      "v": 95
    },
    {
      "midi": 84,
      "hit": false,
      "t": 135000.0855000001,
      "d": 126.05050000001211,
      "v": 96
    },
    {
      "midi": 40,
      "hit": false,
      "t": 135126.1359999991,
      "d": 126.05050000001211,
      "v": 110
    },
    {
      "midi": 57,
      "hit": false,
      "t": 135126.13599999956,
      "d": 478.9918999999936,
      "v": 93
    },
    {
      "midi": 41,
      "hit": false,
      "t": 135126.13599999985,
      "d": 394.9582333333383,
      "v": 114
    },
    {
      "midi": 69,
      "hit": false,
      "t": 135126.13600000012,
      "d": 71.42861666667159,
      "v": 119
    },
    {
      "midi": 40,
      "hit": false,
      "t": 135378.23699999912,
      "d": 126.05050000001211,
      "v": 111
    },
    {
      "midi": 65,
      "hit": false,
      "t": 135378.2370000001,
      "d": 1260.5050000000047,
      "v": 108
    },
    {
      "midi": 42,
      "hit": false,
      "t": 135378.23700000046,
      "d": 126.05050000001211,
      "v": 114
    },
    {
      "midi": 40,
      "hit": false,
      "t": 135630.33799999914,
      "d": 126.05050000001211,
      "v": 102
    },
    {
      "midi": 72,
      "hit": false,
      "t": 135630.33799999955,
      "d": 176.4707000000053,
      "v": 118
    },
    {
      "midi": 36,
      "hit": false,
      "t": 135630.33799999987,
      "d": 369.7481333333417,
      "v": 102
    },
    {
      "midi": 40,
      "hit": false,
      "t": 135756.38849999916,
      "d": 126.05050000001211,
      "v": 96
    },
    {
      "midi": 74,
      "hit": false,
      "t": 135756.38849999956,
      "d": 197.4791166666546,
      "v": 91
    },
    {
      "midi": 40,
      "hit": false,
      "t": 135882.43899999917,
      "d": 126.05050000001211,
      "v": 103
    },
    {
      "midi": 75,
      "hit": false,
      "t": 135882.43899999955,
      "d": 168.06733333333977,
      "v": 120
    },
    {
      "midi": 42,
      "hit": false,
      "t": 135882.43900000048,
      "d": 126.05050000001211,
      "v": 104
    },
    {
      "midi": 40,
      "hit": false,
      "t": 136008.48949999918,
      "d": 126.05050000001211,
      "v": 97
    },
    {
      "midi": 76,
      "hit": false,
      "t": 136008.48949999956,
      "d": 184.87406666664174,
      "v": 105
    },
    {
      "midi": 40,
      "hit": false,
      "t": 136134.5399999992,
      "d": 126.05050000001211,
      "v": 112
    },
    {
      "midi": 77,
      "hit": false,
      "t": 136134.53999999954,
      "d": 96.63871666666819,
      "v": 127
    },
    {
      "midi": 41,
      "hit": false,
      "t": 136134.5399999999,
      "d": 201.6808000000019,
      "v": 111
    },
    {
      "midi": 72,
      "hit": false,
      "t": 136638.74199999968,
      "d": 71.42861666667159,
      "v": 127
    },
    {
      "midi": 72,
      "hit": false,
      "t": 136638.7419999997,
      "d": 71.42861666667159,
      "v": 127
    },
    {
      "midi": 41,
      "hit": false,
      "t": 136638.74199999988,
      "d": 420.1683333333349,
      "v": 110
    },
    {
      "midi": 49,
      "hit": false,
      "t": 136638.74199999997,
      "d": 436.97506666666595,
      "v": 127
    },
    {
      "midi": 35,
      "hit": false,
      "t": 136638.74200000006,
      "d": 63.025250000006054,
      "v": 127
    },
    {
      "midi": 38,
      "hit": false,
      "t": 136638.74200000006,
      "d": 126.05050000001211,
      "v": 127
    },
    {
      "midi": 77,
      "hit": false,
      "t": 136647.1453666662,
      "d": 382.35318333332543,
      "v": 127
    },
    {
      "midi": 77,
      "hit": false,
      "t": 136651.3470499997,
      "d": 71.42861666667159,
      "v": 127
    },
    {
      "midi": 77,
      "hit": false,
      "t": 136651.34704999972,
      "d": 71.42861666667159,
      "v": 127
    },
    {
      "midi": 40,
      "hit": false,
      "t": 137142.9439999992,
      "d": 126.05050000001211,
      "v": 108
    },
    {
      "midi": 74,
      "hit": false,
      "t": 137142.94399999978,
      "d": 226.89090000008582,
      "v": 113
    },
    {
      "midi": 41,
      "hit": false,
      "t": 137142.94399999987,
      "d": 331.93298333333223,
      "v": 114
    },
    {
      "midi": 40,
      "hit": false,
      "t": 137395.04499999923,
      "d": 126.05050000001211,
      "v": 108
    },
    {
      "midi": 60,
      "hit": false,
      "t": 137395.04499999952,
      "d": 147.0589166666614,
      "v": 96
    },
    {
      "midi": 57,
      "hit": false,
      "t": 137395.04499999952,
      "d": 147.0589166666614,
      "v": 96
    },
    {
      "midi": 72,
      "hit": false,
      "t": 137395.04499999987,
      "d": 84.03366666665534,
      "v": 102
    },
    {
      "midi": 42,
      "hit": false,
      "t": 137395.04500000048,
      "d": 126.05050000001211,
      "v": 112
    },
    {
      "midi": 40,
      "hit": false,
      "t": 137647.14599999925,
      "d": 126.05050000001211,
      "v": 100
    },
    {
      "midi": 77,
      "hit": false,
      "t": 137647.14599999986,
      "d": 378.1515000000072,
      "v": 122
    },
    {
      "midi": 36,
      "hit": false,
      "t": 137647.14599999986,
      "d": 331.93298333333223,
      "v": 101
    },
    {
      "midi": 40,
      "hit": false,
      "t": 137773.19649999926,
      "d": 126.05050000001211,
      "v": 93
    },
    {
      "midi": 40,
      "hit": false,
      "t": 137899.24699999928,
      "d": 126.05050000001211,
      "v": 102
    },
    {
      "midi": 57,
      "hit": false,
      "t": 137899.2469999995,
      "d": 147.0589166666614,
      "v": 96
    },
    {
      "midi": 60,
      "hit": false,
      "t": 137899.2469999995,
      "d": 147.0589166666614,
      "v": 96
    },
    {
      "midi": 42,
      "hit": false,
      "t": 137899.2470000005,
      "d": 126.05050000001211,
      "v": 103
    },
    {
      "midi": 40,
      "hit": false,
      "t": 138025.2974999993,
      "d": 126.05050000001211,
      "v": 94
    },
    {
      "midi": 40,
      "hit": false,
      "t": 138151.3479999993,
      "d": 126.05050000001211,
      "v": 109
    },
    {
      "midi": 41,
      "hit": false,
      "t": 138151.34799999985,
      "d": 331.93298333333223,
      "v": 112
    },
    {
      "midi": 74,
      "hit": false,
      "t": 138151.34799999988,
      "d": 239.49595000006957,
      "v": 116
    },
    {
      "midi": 40,
      "hit": false,
      "t": 138403.44899999932,
      "d": 126.05050000001211,
      "v": 109
    },
    {
      "midi": 57,
      "hit": false,
      "t": 138403.4489999995,
      "d": 147.0589166666614,
      "v": 96
    },
    {
      "midi": 60,
      "hit": false,
      "t": 138403.4489999995,
      "d": 147.0589166666614,
      "v": 96
    },
    {
      "midi": 72,
      "hit": false,
      "t": 138403.44899999996,
      "d": 84.03366666665534,
      "v": 102
    },
    {
      "midi": 42,
      "hit": false,
      "t": 138403.44900000052,
      "d": 126.05050000001211,
      "v": 114
    },
    {
      "midi": 40,
      "hit": false,
      "t": 138655.54999999935,
      "d": 126.05050000001211,
      "v": 100
    },
    {
      "midi": 36,
      "hit": false,
      "t": 138655.54999999984,
      "d": 331.93298333333223,
      "v": 102
    },
    {
      "midi": 77,
      "hit": false,
      "t": 138655.54999999996,
      "d": 378.1515000000072,
      "v": 122
    },
    {
      "midi": 40,
      "hit": false,
      "t": 138781.60049999936,
      "d": 126.05050000001211,
      "v": 95
    },
    {
      "midi": 40,
      "hit": false,
      "t": 138907.65099999937,
      "d": 126.05050000001211,
      "v": 101
    },
    {
      "midi": 57,
      "hit": false,
      "t": 138907.6509999995,
      "d": 147.0589166666614,
      "v": 96
    },
    {
      "midi": 60,
      "hit": false,
      "t": 138907.6509999995,
      "d": 147.0589166666614,
      "v": 96
    },
    {
      "midi": 42,
      "hit": false,
      "t": 138907.65100000054,
      "d": 126.05050000001211,
      "v": 103
    },
    {
      "midi": 40,
      "hit": false,
      "t": 139033.70149999938,
      "d": 126.05050000001211,
      "v": 95
    },
    {
      "midi": 40,
      "hit": false,
      "t": 139159.7519999994,
      "d": 126.05050000001211,
      "v": 108
    },
    {
      "midi": 41,
      "hit": false,
      "t": 139159.75199999983,
      "d": 331.93298333333223,
      "v": 113
    },
    {
      "midi": 74,
      "hit": false,
      "t": 139159.75199999998,
      "d": 214.28585000007297,
      "v": 117
    },
    {
      "midi": 40,
      "hit": false,
      "t": 139411.85299999942,
      "d": 126.05050000001211,
      "v": 108
    },
    {
      "midi": 57,
      "hit": false,
      "t": 139411.85299999948,
      "d": 147.0589166666614,
      "v": 96
    },
    {
      "midi": 60,
      "hit": false,
      "t": 139411.85299999948,
      "d": 147.0589166666614,
      "v": 96
    },
    {
      "midi": 72,
      "hit": false,
      "t": 139411.85300000006,
      "d": 79.83198333333712,
      "v": 101
    },
    {
      "midi": 42,
      "hit": false,
      "t": 139411.85300000056,
      "d": 126.05050000001211,
      "v": 116
    },
    {
      "midi": 40,
      "hit": false,
      "t": 139663.95399999944,
      "d": 126.05050000001211,
      "v": 100
    },
    {
      "midi": 36,
      "hit": false,
      "t": 139663.95399999982,
      "d": 331.93298333333223,
      "v": 102
    },
    {
      "midi": 77,
      "hit": false,
      "t": 139663.95400000006,
      "d": 92.43703333332087,
      "v": 122
    },
    {
      "midi": 40,
      "hit": false,
      "t": 139790.00449999946,
      "d": 126.05050000001211,
      "v": 93
    },
    {
      "midi": 57,
      "hit": false,
      "t": 139916.05499999947,
      "d": 147.0589166666614,
      "v": 96
    },
    {
      "midi": 60,
      "hit": false,
      "t": 139916.05499999947,
      "d": 147.0589166666614,
      "v": 96
    },
    {
      "midi": 40,
      "hit": false,
      "t": 139916.05499999947,
      "d": 126.05050000001211,
      "v": 102
    },
    {
      "midi": 79,
      "hit": false,
      "t": 139916.05500000005,
      "d": 92.43703333332087,
      "v": 115
    },
    {
      "midi": 42,
      "hit": false,
      "t": 139916.05500000058,
      "d": 126.05050000001211,
      "v": 104
    },
    {
      "midi": 40,
      "hit": false,
      "t": 140042.10549999948,
      "d": 126.05050000001211,
      "v": 94
    },
    {
      "midi": 40,
      "hit": false,
      "t": 140168.1559999995,
      "d": 126.05050000001211,
      "v": 109
    },
    {
      "midi": 41,
      "hit": false,
      "t": 140168.1559999998,
      "d": 331.93298333333223,
      "v": 113
    },
    {
      "midi": 81,
      "hit": false,
      "t": 140168.15600000005,
      "d": 882.3534999999974,
      "v": 127
    },
    {
      "midi": 60,
      "hit": false,
      "t": 140420.25699999946,
      "d": 147.0589166666614,
      "v": 96
    },
    {
      "midi": 57,
      "hit": false,
      "t": 140420.25699999946,
      "d": 147.0589166666614,
      "v": 96
    },
    {
      "midi": 40,
      "hit": false,
      "t": 140420.25699999952,
      "d": 126.05050000001211,
      "v": 109
    },
    {
      "midi": 65,
      "hit": false,
      "t": 140420.2569999997,
      "d": 84.03366666668444,
      "v": 83
    },
    {
      "midi": 65,
      "hit": false,
      "t": 140420.25699999972,
      "d": 84.03366666668444,
      "v": 83
    },
    {
      "midi": 42,
      "hit": false,
      "t": 140420.2570000006,
      "d": 126.05050000001211,
      "v": 113
    },
    {
      "midi": 69,
      "hit": false,
      "t": 140432.8620499997,
      "d": 84.03366666668444,
      "v": 84
    },
    {
      "midi": 69,
      "hit": false,
      "t": 140432.86204999973,
      "d": 84.03366666668444,
      "v": 84
    },
    {
      "midi": 65,
      "hit": false,
      "t": 140546.30749999973,
      "d": 84.03366666668444,
      "v": 79
    },
    {
      "midi": 65,
      "hit": false,
      "t": 140546.30749999976,
      "d": 84.03366666668444,
      "v": 79
    },
    {
      "midi": 69,
      "hit": false,
      "t": 140558.91254999975,
      "d": 84.03366666668444,
      "v": 80
    },
    {
      "midi": 69,
      "hit": false,
      "t": 140558.91254999978,
      "d": 84.03366666668444,
      "v": 80
    },
    {
      "midi": 40,
      "hit": false,
      "t": 140672.35799999954,
      "d": 126.05050000001211,
      "v": 100
    },
    {
      "midi": 65,
      "hit": false,
      "t": 140672.35799999977,
      "d": 84.03366666668444,
      "v": 108
    },
    {
      "midi": 65,
      "hit": false,
      "t": 140672.3579999998,
      "d": 84.03366666668444,
      "v": 108
    },
    {
      "midi": 36,
      "hit": false,
      "t": 140672.3579999998,
      "d": 331.93298333333223,
      "v": 102
    },
    {
      "midi": 69,
      "hit": false,
      "t": 140684.9630499998,
      "d": 84.03366666668444,
      "v": 108
    },
    {
      "midi": 69,
      "hit": false,
      "t": 140684.96304999982,
      "d": 84.03366666668444,
      "v": 108
    },
    {
      "midi": 40,
      "hit": false,
      "t": 140798.40849999955,
      "d": 126.05050000001211,
      "v": 95
    },
    {
      "midi": 65,
      "hit": false,
      "t": 140798.40849999982,
      "d": 84.03366666668444,
      "v": 97
    },
    {
      "midi": 65,
      "hit": false,
      "t": 140798.40849999984,
      "d": 84.03366666668444,
      "v": 97
    },
    {
      "midi": 69,
      "hit": false,
      "t": 140811.01354999983,
      "d": 84.03366666668444,
      "v": 97
    },
    {
      "midi": 69,
      "hit": false,
      "t": 140811.01354999986,
      "d": 84.03366666668444,
      "v": 97
    },
    {
      "midi": 60,
      "hit": false,
      "t": 140924.45899999945,
      "d": 147.0589166666614,
      "v": 96
    },
    {
      "midi": 57,
      "hit": false,
      "t": 140924.45899999945,
      "d": 147.0589166666614,
      "v": 96
    },
    {
      "midi": 40,
      "hit": false,
      "t": 140924.45899999957,
      "d": 126.05050000001211,
      "v": 101
    },
    {
      "midi": 65,
      "hit": false,
      "t": 140924.45899999986,
      "d": 84.03366666668444,
      "v": 113
    },
    {
      "midi": 65,
      "hit": false,
      "t": 140924.4589999999,
      "d": 84.03366666668444,
      "v": 113
    },
    {
      "midi": 42,
      "hit": false,
      "t": 140924.4590000006,
      "d": 126.05050000001211,
      "v": 103
    },
    {
      "midi": 69,
      "hit": false,
      "t": 140937.06404999987,
      "d": 84.03366666668444,
      "v": 113
    },
    {
      "midi": 69,
      "hit": false,
      "t": 140937.0640499999,
      "d": 84.03366666668444,
      "v": 113
    },
    {
      "midi": 40,
      "hit": false,
      "t": 141050.50949999958,
      "d": 126.05050000001211,
      "v": 95
    },
    {
      "midi": 65,
      "hit": false,
      "t": 141050.5094999999,
      "d": 84.03366666668444,
      "v": 118
    },
    {
      "midi": 65,
      "hit": false,
      "t": 141050.50949999993,
      "d": 84.03366666668444,
      "v": 118
    },
    {
      "midi": 69,
      "hit": false,
      "t": 141063.1145499999,
      "d": 84.03366666668444,
      "v": 118
    },
    {
      "midi": 69,
      "hit": false,
      "t": 141063.11454999994,
      "d": 84.03366666668444,
      "v": 118
    },
    {
      "midi": 40,
      "hit": false,
      "t": 141176.5599999996,
      "d": 126.05050000001211,
      "v": 108
    },
    {
      "midi": 43,
      "hit": false,
      "t": 141176.5599999998,
      "d": 331.93298333333223,
      "v": 114
    },
    {
      "midi": 79,
      "hit": false,
      "t": 141176.56000000006,
      "d": 252.10100000008242,
      "v": 122
    },
    {
      "midi": 62,
      "hit": false,
      "t": 141428.66099999944,
      "d": 147.0589166666614,
      "v": 96
    },
    {
      "midi": 55,
      "hit": false,
      "t": 141428.66099999944,
      "d": 147.0589166666614,
      "v": 96
    },
    {
      "midi": 40,
      "hit": false,
      "t": 141428.6609999996,
      "d": 126.05050000001211,
      "v": 108
    },
    {
      "midi": 74,
      "hit": false,
      "t": 141428.66100000014,
      "d": 79.83198333333712,
      "v": 101
    },
    {
      "midi": 42,
      "hit": false,
      "t": 141428.66100000063,
      "d": 126.05050000001211,
      "v": 113
    },
    {
      "midi": 40,
      "hit": false,
      "t": 141680.76199999964,
      "d": 126.05050000001211,
      "v": 100
    },
    {
      "midi": 38,
      "hit": false,
      "t": 141680.76199999978,
      "d": 331.93298333333223,
      "v": 101
    },
    {
      "midi": 74,
      "hit": false,
      "t": 141680.76200000013,
      "d": 378.1515000000072,
      "v": 113
    },
    {
      "midi": 40,
      "hit": false,
      "t": 141806.81249999965,
      "d": 126.05050000001211,
      "v": 93
    },
    {
      "midi": 62,
      "hit": false,
      "t": 141932.86299999943,
      "d": 147.0589166666614,
      "v": 96
    },
    {
      "midi": 55,
      "hit": false,
      "t": 141932.86299999943,
      "d": 147.0589166666614,
      "v": 96
    },
    {
      "midi": 40,
      "hit": false,
      "t": 141932.86299999966,
      "d": 126.05050000001211,
      "v": 102
    },
    {
      "midi": 42,
      "hit": false,
      "t": 141932.86300000065,
      "d": 126.05050000001211,
      "v": 104
    },
    {
      "midi": 40,
      "hit": false,
      "t": 142058.91349999967,
      "d": 126.05050000001211,
      "v": 94
    },
    {
      "midi": 40,
      "hit": false,
      "t": 142184.9639999997,
      "d": 126.05050000001211,
      "v": 109
    },
    {
      "midi": 43,
      "hit": false,
      "t": 142184.96399999977,
      "d": 331.93298333333223,
      "v": 112
    },
    {
      "midi": 79,
      "hit": false,
      "t": 142184.96400000015,
      "d": 252.10100000008242,
      "v": 121
    },
    {
      "midi": 62,
      "hit": false,
      "t": 142437.06499999942,
      "d": 147.0589166666614,
      "v": 96
    },
    {
      "midi": 55,
      "hit": false,
      "t": 142437.06499999942,
      "d": 147.0589166666614,
      "v": 96
    },
    {
      "midi": 40,
      "hit": false,
      "t": 142437.0649999997,
      "d": 126.05050000001211,
      "v": 109
    },
    {
      "midi": 74,
      "hit": false,
      "t": 142437.06500000024,
      "d": 92.43703333332087,
      "v": 100
    },
    {
      "midi": 42,
      "hit": false,
      "t": 142437.06500000067,
      "d": 126.05050000001211,
      "v": 113
    },
    {
      "midi": 40,
      "hit": false,
      "t": 142689.16599999974,
      "d": 126.05050000001211,
      "v": 100
    },
    {
      "midi": 38,
      "hit": false,
      "t": 142689.16599999976,
      "d": 331.93298333333223,
      "v": 102
    },
    {
      "midi": 74,
      "hit": false,
      "t": 142689.16600000023,
      "d": 378.1515000000072,
      "v": 111
    },
    {
      "midi": 40,
      "hit": false,
      "t": 142815.21649999975,
      "d": 126.05050000001211,
      "v": 95
    },
    {
      "midi": 62,
      "hit": false,
      "t": 142941.2669999994,
      "d": 147.0589166666614,
      "v": 96
    },
    {
      "midi": 55,
      "hit": false,
      "t": 142941.2669999994,
      "d": 147.0589166666614,
      "v": 96
    },
    {
      "midi": 40,
      "hit": false,
      "t": 142941.26699999976,
      "d": 126.05050000001211,
      "v": 101
    },
    {
      "midi": 42,
      "hit": false,
      "t": 142941.2670000007,
      "d": 126.05050000001211,
      "v": 101
    },
    {
      "midi": 40,
      "hit": false,
      "t": 143067.31749999977,
      "d": 126.05050000001211,
      "v": 95
    },
    {
      "midi": 43,
      "hit": false,
      "t": 143193.36799999975,
      "d": 331.93298333333223,
      "v": 111
    },
    {
      "midi": 40,
      "hit": false,
      "t": 143193.36799999978,
      "d": 126.05050000001211,
      "v": 108
    },
    {
      "midi": 79,
      "hit": false,
      "t": 143193.36800000025,
      "d": 252.10100000008242,
      "v": 121
    },
    {
      "midi": 55,
      "hit": false,
      "t": 143445.4689999994,
      "d": 147.0589166666614,
      "v": 96
    },
    {
      "midi": 62,
      "hit": false,
      "t": 143445.4689999994,
      "d": 147.0589166666614,
      "v": 96
    },
    {
      "midi": 40,
      "hit": false,
      "t": 143445.4689999998,
      "d": 126.05050000001211,
      "v": 108
    },
    {
      "midi": 74,
      "hit": false,
      "t": 143445.46900000033,
      "d": 92.43703333332087,
      "v": 101
    },
    {
      "midi": 42,
      "hit": false,
      "t": 143445.4690000007,
      "d": 126.05050000001211,
      "v": 115
    },
    {
      "midi": 38,
      "hit": false,
      "t": 143697.56999999975,
      "d": 331.93298333333223,
      "v": 101
    },
    {
      "midi": 40,
      "hit": false,
      "t": 143697.56999999983,
      "d": 126.05050000001211,
      "v": 100
    },
    {
      "midi": 82,
      "hit": false,
      "t": 143697.57000000033,
      "d": 84.03366666665534,
      "v": 122
    },
    {
      "midi": 40,
      "hit": false,
      "t": 143823.62049999984,
      "d": 126.05050000001211,
      "v": 93
    },
    {
      "midi": 55,
      "hit": false,
      "t": 143949.6709999994,
      "d": 147.0589166666614,
      "v": 96
    },
    {
      "midi": 62,
      "hit": false,
      "t": 143949.6709999994,
      "d": 147.0589166666614,
      "v": 96
    },
    {
      "midi": 40,
      "hit": false,
      "t": 143949.67099999986,
      "d": 126.05050000001211,
      "v": 102
    },
    {
      "midi": 81,
      "hit": false,
      "t": 143949.67100000032,
      "d": 92.43703333332087,
      "v": 108
    },
    {
      "midi": 42,
      "hit": false,
      "t": 143949.67100000073,
      "d": 126.05050000001211,
      "v": 103
    },
    {
      "midi": 40,
      "hit": false,
      "t": 144075.72149999987,
      "d": 126.05050000001211,
      "v": 94
    },
    {
      "midi": 43,
      "hit": false,
      "t": 144201.77199999974,
      "d": 331.93298333333223,
      "v": 112
    },
    {
      "midi": 40,
      "hit": false,
      "t": 144201.77199999988,
      "d": 126.05050000001211,
      "v": 109
    },
    {
      "midi": 79,
      "hit": false,
      "t": 144201.77200000032,
      "d": 1008.4040000000095,
      "v": 117
    },
    {
      "midi": 55,
      "hit": false,
      "t": 144453.87299999938,
      "d": 147.0589166666614,
      "v": 96
    },
    {
      "midi": 62,
      "hit": false,
      "t": 144453.87299999938,
      "d": 147.0589166666614,
      "v": 96
    },
    {
      "midi": 40,
      "hit": false,
      "t": 144453.8729999999,
      "d": 126.05050000001211,
      "v": 109
    },
    {
      "midi": 69,
      "hit": false,
      "t": 144453.87299999993,
      "d": 84.03366666668444,
      "v": 118
    },
    {
      "midi": 69,
      "hit": false,
      "t": 144453.87299999996,
      "d": 84.03366666668444,
      "v": 118
    },
    {
      "midi": 42,
      "hit": false,
      "t": 144453.87300000075,
      "d": 126.05050000001211,
      "v": 111
    },
    {
      "midi": 72,
      "hit": false,
      "t": 144466.47804999995,
      "d": 79.83198333333712,
      "v": 118
    },
    {
      "midi": 72,
      "hit": false,
      "t": 144466.47804999998,
      "d": 79.83198333333712,
      "v": 118
    },
    {
      "midi": 36,
      "hit": false,
      "t": 144705.97399999973,
      "d": 331.93298333333223,
      "v": 103
    },
    {
      "midi": 40,
      "hit": false,
      "t": 144705.97399999993,
      "d": 126.05050000001211,
      "v": 100
    },
    {
      "midi": 40,
      "hit": false,
      "t": 144832.02449999994,
      "d": 126.05050000001211,
      "v": 95
    },
    {
      "midi": 62,
      "hit": false,
      "t": 144958.07499999937,
      "d": 147.0589166666614,
      "v": 96
    },
    {
      "midi": 55,
      "hit": false,
      "t": 144958.07499999937,
      "d": 147.0589166666614,
      "v": 96
    },
    {
      "midi": 69,
      "hit": false,
      "t": 144958.07499999995,
      "d": 214.28585000001476,
      "v": 108
    },
    {
      "midi": 40,
      "hit": false,
      "t": 144958.07499999995,
      "d": 126.05050000001211,
      "v": 101
    },
    {
      "midi": 69,
      "hit": false,
      "t": 144958.07499999998,
      "d": 214.28585000001476,
      "v": 108
    },
    {
      "midi": 42,
      "hit": false,
      "t": 144958.07500000077,
      "d": 126.05050000001211,
      "v": 102
    },
    {
      "midi": 72,
      "hit": false,
      "t": 144970.68004999997,
      "d": 214.28585000001476,
      "v": 108
    },
    {
      "midi": 72,
      "hit": false,
      "t": 144970.68005,
      "d": 214.28585000001476,
      "v": 108
    },
    {
      "midi": 40,
      "hit": false,
      "t": 145084.12549999997,
      "d": 126.05050000001211,
      "v": 95
    },
    {
      "midi": 41,
      "hit": false,
      "t": 145210.17599999972,
      "d": 331.93298333333223,
      "v": 114
    },
    {
      "midi": 69,
      "hit": false,
      "t": 145210.17599999998,
      "d": 71.42861666667159,
      "v": 118
    },
    {
      "midi": 40,
      "hit": false,
      "t": 145210.17599999998,
      "d": 126.05050000001211,
      "v": 108
    },
    {
      "midi": 69,
      "hit": false,
      "t": 145210.176,
      "d": 71.42861666667159,
      "v": 118
    },
    {
      "midi": 72,
      "hit": false,
      "t": 145222.78105,
      "d": 71.42861666667159,
      "v": 119
    },
    {
      "midi": 72,
      "hit": false,
      "t": 145222.78105000002,
      "d": 71.42861666667159,
      "v": 119
    },
    {
      "midi": 60,
      "hit": false,
      "t": 145462.27699999936,
      "d": 147.0589166666614,
      "v": 96
    },
    {
      "midi": 57,
      "hit": false,
      "t": 145462.27699999936,
      "d": 147.0589166666614,
      "v": 96
    },
    {
      "midi": 40,
      "hit": false,
      "t": 145462.277,
      "d": 126.05050000001211,
      "v": 108
    },
    {
      "midi": 81,
      "hit": false,
      "t": 145462.27700000032,
      "d": 563.0255666667654,
      "v": 117
    },
    {
      "midi": 42,
      "hit": false,
      "t": 145462.2770000008,
      "d": 126.05050000001211,
      "v": 112
    },
    {
      "midi": 36,
      "hit": false,
      "t": 145714.3779999997,
      "d": 331.93298333333223,
      "v": 101
    },
    {
      "midi": 40,
      "hit": false,
      "t": 145714.37800000003,
      "d": 126.05050000001211,
      "v": 100
    },
    {
      "midi": 40,
      "hit": false,
      "t": 145840.42850000004,
      "d": 126.05050000001211,
      "v": 93
    },
    {
      "midi": 57,
      "hit": false,
      "t": 145966.47899999935,
      "d": 147.0589166666614,
      "v": 96
    },
    {
      "midi": 60,
      "hit": false,
      "t": 145966.47899999935,
      "d": 147.0589166666614,
      "v": 96
    },
    {
      "midi": 40,
      "hit": false,
      "t": 145966.47900000005,
      "d": 126.05050000001211,
      "v": 102
    },
    {
      "midi": 82,
      "hit": false,
      "t": 145966.47900000043,
      "d": 252.1009999999951,
      "v": 101
    },
    {
      "midi": 42,
      "hit": false,
      "t": 145966.4790000008,
      "d": 126.05050000001211,
      "v": 103
    },
    {
      "midi": 40,
      "hit": false,
      "t": 146092.52950000006,
      "d": 126.05050000001211,
      "v": 94
    },
    {
      "midi": 41,
      "hit": false,
      "t": 146218.5799999997,
      "d": 331.93298333333223,
      "v": 113
    },
    {
      "midi": 40,
      "hit": false,
      "t": 146218.58000000007,
      "d": 126.05050000001211,
      "v": 109
    },
    {
      "midi": 84,
      "hit": false,
      "t": 146218.58000000042,
      "d": 504.2019999999902,
      "v": 119
    },
    {
      "midi": 57,
      "hit": false,
      "t": 146470.68099999934,
      "d": 147.0589166666614,
      "v": 96
    },
    {
      "midi": 60,
      "hit": false,
      "t": 146470.68099999934,
      "d": 147.0589166666614,
      "v": 96
    },
    {
      "midi": 40,
      "hit": false,
      "t": 146470.6810000001,
      "d": 126.05050000001211,
      "v": 109
    },
    {
      "midi": 42,
      "hit": false,
      "t": 146470.68100000083,
      "d": 126.05050000001211,
      "v": 111
    },
    {
      "midi": 36,
      "hit": false,
      "t": 146722.7819999997,
      "d": 331.93298333333223,
      "v": 102
    },
    {
      "midi": 40,
      "hit": false,
      "t": 146722.78200000012,
      "d": 126.05050000001211,
      "v": 100
    },
    {
      "midi": 81,
      "hit": false,
      "t": 146722.7820000004,
      "d": 563.025566666649,
      "v": 104
    },
    {
      "midi": 40,
      "hit": false,
      "t": 146848.83250000014,
      "d": 126.05050000001211,
      "v": 95
    },
    {
      "midi": 57,
      "hit": false,
      "t": 146974.88299999933,
      "d": 147.0589166666614,
      "v": 96
    },
    {
      "midi": 60,
      "hit": false,
      "t": 146974.88299999933,
      "d": 147.0589166666614,
      "v": 96
    },
    {
      "midi": 40,
      "hit": false,
      "t": 146974.88300000015,
      "d": 126.05050000001211,
      "v": 101
    },
    {
      "midi": 42,
      "hit": false,
      "t": 146974.88300000085,
      "d": 126.05050000001211,
      "v": 103
    },
    {
      "midi": 40,
      "hit": false,
      "t": 147100.93350000016,
      "d": 126.05050000001211,
      "v": 95
    },
    {
      "midi": 41,
      "hit": false,
      "t": 147226.98399999968,
      "d": 331.93298333333223,
      "v": 112
    },
    {
      "midi": 40,
      "hit": false,
      "t": 147226.98400000017,
      "d": 126.05050000001211,
      "v": 108
    },
    {
      "midi": 77,
      "hit": false,
      "t": 147226.9840000004,
      "d": 504.2019999999902,
      "v": 115
    },
    {
      "midi": 62,
      "hit": false,
      "t": 147479.08499999932,
      "d": 147.0589166666614,
      "v": 96
    },
    {
      "midi": 57,
      "hit": false,
      "t": 147479.08499999932,
      "d": 147.0589166666614,
      "v": 96
    },
    {
      "midi": 40,
      "hit": false,
      "t": 147479.0850000002,
      "d": 126.05050000001211,
      "v": 108
    },
    {
      "midi": 42,
      "hit": false,
      "t": 147479.08500000086,
      "d": 126.05050000001211,
      "v": 114
    },
    {
      "midi": 34,
      "hit": false,
      "t": 147731.18599999967,
      "d": 331.93298333333223,
      "v": 101
    },
    {
      "midi": 40,
      "hit": false,
      "t": 147731.18600000022,
      "d": 126.05050000001211,
      "v": 100
    },
    {
      "midi": 86,
      "hit": false,
      "t": 147731.1860000004,
      "d": 504.20200000013574,
      "v": 117
    },
    {
      "midi": 40,
      "hit": false,
      "t": 147857.23650000023,
      "d": 126.05050000001211,
      "v": 93
    },
    {
      "midi": 57,
      "hit": false,
      "t": 147983.2869999993,
      "d": 147.0589166666614,
      "v": 96
    },
    {
      "midi": 62,
      "hit": false,
      "t": 147983.2869999993,
      "d": 147.0589166666614,
      "v": 96
    },
    {
      "midi": 40,
      "hit": false,
      "t": 147983.28700000024,
      "d": 126.05050000001211,
      "v": 102
    },
    {
      "midi": 42,
      "hit": false,
      "t": 147983.28700000088,
      "d": 126.05050000001211,
      "v": 102
    },
    {
      "midi": 40,
      "hit": false,
      "t": 148109.33750000026,
      "d": 126.05050000001211,
      "v": 94
    },
    {
      "midi": 41,
      "hit": false,
      "t": 148235.38799999966,
      "d": 331.93298333333223,
      "v": 111
    },
    {
      "midi": 40,
      "hit": false,
      "t": 148235.38800000027,
      "d": 126.05050000001211,
      "v": 109
    },
    {
      "midi": 84,
      "hit": false,
      "t": 148235.38800000053,
      "d": 882.3535000000556,
      "v": 118
    },
    {
      "midi": 60,
      "hit": false,
      "t": 148487.4889999993,
      "d": 147.0589166666614,
      "v": 96
    },
    {
      "midi": 57,
      "hit": false,
      "t": 148487.4889999993,
      "d": 147.0589166666614,
      "v": 96
    },
    {
      "midi": 69,
      "hit": false,
      "t": 148487.489,
      "d": 100.8404000000155,
      "v": 74
    },
    {
      "midi": 69,
      "hit": false,
      "t": 148487.48900000003,
      "d": 100.8404000000155,
      "v": 74
    },
    {
      "midi": 40,
      "hit": false,
      "t": 148487.4890000003,
      "d": 126.05050000001211,
      "v": 109
    },
    {
      "midi": 42,
      "hit": false,
      "t": 148487.4890000009,
      "d": 126.05050000001211,
      "v": 113
    },
    {
      "midi": 72,
      "hit": false,
      "t": 148500.09405,
      "d": 100.8404000000155,
      "v": 74
    },
    {
      "midi": 72,
      "hit": false,
      "t": 148500.09405000004,
      "d": 100.8404000000155,
      "v": 74
    },
    {
      "midi": 69,
      "hit": false,
      "t": 148613.53950000004,
      "d": 75.6303000000189,
      "v": 84
    },
    {
      "midi": 69,
      "hit": false,
      "t": 148613.53950000007,
      "d": 75.6303000000189,
      "v": 84
    },
    {
      "midi": 72,
      "hit": false,
      "t": 148626.14455000006,
      "d": 75.6303000000189,
      "v": 86
    },
    {
      "midi": 72,
      "hit": false,
      "t": 148626.14455000008,
      "d": 75.6303000000189,
      "v": 86
    },
    {
      "midi": 36,
      "hit": false,
      "t": 148739.58999999965,
      "d": 331.93298333333223,
      "v": 100
    },
    {
      "midi": 69,
      "hit": false,
      "t": 148739.59000000008,
      "d": 58.82356666668784,
      "v": 103
    },
    {
      "midi": 69,
      "hit": false,
      "t": 148739.5900000001,
      "d": 58.82356666668784,
      "v": 103
    },
    {
      "midi": 40,
      "hit": false,
      "t": 148739.59000000032,
      "d": 126.05050000001211,
      "v": 100
    },
    {
      "midi": 72,
      "hit": false,
      "t": 148752.1950500001,
      "d": 71.42861666667159,
      "v": 103
    },
    {
      "midi": 72,
      "hit": false,
      "t": 148752.19505000013,
      "d": 71.42861666667159,
      "v": 103
    },
    {
      "midi": 40,
      "hit": false,
      "t": 148865.64050000033,
      "d": 126.05050000001211,
      "v": 95
    },
    {
      "midi": 60,
      "hit": false,
      "t": 148991.6909999993,
      "d": 147.0589166666614,
      "v": 96
    },
    {
      "midi": 57,
      "hit": false,
      "t": 148991.6909999993,
      "d": 147.0589166666614,
      "v": 96
    },
    {
      "midi": 69,
      "hit": false,
      "t": 148991.6910000001,
      "d": 71.42861666667159,
      "v": 117
    },
    {
      "midi": 69,
      "hit": false,
      "t": 148991.69100000014,
      "d": 71.42861666667159,
      "v": 117
    },
    {
      "midi": 40,
      "hit": false,
      "t": 148991.69100000034,
      "d": 126.05050000001211,
      "v": 101
    },
    {
      "midi": 42,
      "hit": false,
      "t": 148991.69100000092,
      "d": 126.05050000001211,
      "v": 101
    },
    {
      "midi": 72,
      "hit": false,
      "t": 149004.29605000012,
      "d": 58.823566666658735,
      "v": 117
    },
    {
      "midi": 72,
      "hit": false,
      "t": 149004.29605000015,
      "d": 58.823566666658735,
      "v": 117
    },
    {
      "midi": 40,
      "hit": false,
      "t": 149117.74150000035,
      "d": 126.05050000001211,
      "v": 95
    },
    {
      "midi": 38,
      "hit": false,
      "t": 149243.79199999964,
      "d": 331.93298333333223,
      "v": 113
    },
    {
      "midi": 40,
      "hit": false,
      "t": 149243.79200000037,
      "d": 126.05050000001211,
      "v": 108
    },
    {
      "midi": 62,
      "hit": false,
      "t": 149495.89299999928,
      "d": 126.05050000001211,
      "v": 97
    },
    {
      "midi": 57,
      "hit": false,
      "t": 149495.89299999928,
      "d": 126.05050000001211,
      "v": 97
    },
    {
      "midi": 40,
      "hit": false,
      "t": 149495.8930000004,
      "d": 126.05050000001211,
      "v": 108
    },
    {
      "midi": 81,
      "hit": false,
      "t": 149495.8930000006,
      "d": 504.20200000007753,
      "v": 122
    },
    {
      "midi": 42,
      "hit": false,
      "t": 149495.89300000094,
      "d": 126.05050000001211,
      "v": 115
    },
    {
      "midi": 33,
      "hit": false,
      "t": 149747.99399999963,
      "d": 331.93298333333223,
      "v": 101
    },
    {
      "midi": 40,
      "hit": false,
      "t": 149747.9940000004,
      "d": 126.05050000001211,
      "v": 100
    },
    {
      "midi": 40,
      "hit": false,
      "t": 149874.04450000043,
      "d": 126.05050000001211,
      "v": 93
    },
    {
      "midi": 62,
      "hit": false,
      "t": 150000.0949999993,
      "d": 126.05050000001211,
      "v": 96
    },
    {
      "midi": 57,
      "hit": false,
      "t": 150000.0949999993,
      "d": 126.05050000001211,
      "v": 96
    },
    {
      "midi": 40,
      "hit": false,
      "t": 150000.09500000044,
      "d": 126.05050000001211,
      "v": 102
    },
    {
      "midi": 79,
      "hit": false,
      "t": 150000.09500000067,
      "d": 176.4707000000053,
      "v": 104
    },
    {
      "midi": 42,
      "hit": false,
      "t": 150000.09500000096,
      "d": 126.05050000001211,
      "v": 103
    },
    {
      "midi": 40,
      "hit": false,
      "t": 150126.14550000045,
      "d": 126.05050000001211,
      "v": 94
    },
    {
      "midi": 38,
      "hit": false,
      "t": 150252.19599999962,
      "d": 331.93298333333223,
      "v": 111
    },
    {
      "midi": 40,
      "hit": false,
      "t": 150252.19600000046,
      "d": 126.05050000001211,
      "v": 109
    },
    {
      "midi": 81,
      "hit": false,
      "t": 150252.19600000067,
      "d": 252.10100000008242,
      "v": 121
    },
    {
      "midi": 62,
      "hit": false,
      "t": 150504.29699999932,
      "d": 126.05050000001211,
      "v": 94
    },
    {
      "midi": 57,
      "hit": false,
      "t": 150504.29699999932,
      "d": 126.05050000001211,
      "v": 94
    },
    {
      "midi": 40,
      "hit": false,
      "t": 150504.2970000005,
      "d": 126.05050000001211,
      "v": 109
    },
    {
      "midi": 79,
      "hit": false,
      "t": 150504.29700000075,
      "d": 79.83198333333712,
      "v": 113
    },
    {
      "midi": 42,
      "hit": false,
      "t": 150504.29700000098,
      "d": 126.05050000001211,
      "v": 113
    },
    {
      "midi": 33,
      "hit": false,
      "t": 150756.3979999996,
      "d": 331.93298333333223,
      "v": 102
    },
    {
      "midi": 40,
      "hit": false,
      "t": 150756.3980000005,
      "d": 126.05050000001211,
      "v": 100
    },
    {
      "midi": 77,
      "hit": false,
      "t": 150756.39800000074,
      "d": 84.03366666665534,
      "v": 104
    },
    {
      "midi": 40,
      "hit": false,
      "t": 150882.44850000052,
      "d": 126.05050000001211,
      "v": 95
    },
    {
      "midi": 62,
      "hit": false,
      "t": 151008.49899999934,
      "d": 126.05050000001211,
      "v": 94
    },
    {
      "midi": 57,
      "hit": false,
      "t": 151008.49899999934,
      "d": 126.05050000001211,
      "v": 94
    },
    {
      "midi": 40,
      "hit": false,
      "t": 151008.49900000053,
      "d": 126.05050000001211,
      "v": 101
    },
    {
      "midi": 79,
      "hit": false,
      "t": 151008.49900000074,
      "d": 79.83198333333712,
      "v": 122
    },
    {
      "midi": 42,
      "hit": false,
      "t": 151008.499000001,
      "d": 126.05050000001211,
      "v": 103
    },
    {
      "midi": 40,
      "hit": false,
      "t": 151134.54950000055,
      "d": 126.05050000001211,
      "v": 95
    },
    {
      "midi": 40,
      "hit": false,
      "t": 151260.5999999996,
      "d": 331.93298333333223,
      "v": 111
    },
    {
      "midi": 40,
      "hit": false,
      "t": 151260.60000000056,
      "d": 126.05050000001211,
      "v": 111
    },
    {
      "midi": 81,
      "hit": false,
      "t": 151260.60000000073,
      "d": 1386.5554999999877,
      "v": 127
    },
    {
      "midi": 57,
      "hit": false,
      "t": 151512.70099999936,
      "d": 126.05050000001211,
      "v": 96
    },
    {
      "midi": 61,
      "hit": false,
      "t": 151512.70099999936,
      "d": 126.05050000001211,
      "v": 96
    },
    {
      "midi": 57,
      "hit": false,
      "t": 151512.70099999977,
      "d": 79.83198333333712,
      "v": 127
    },
    {
      "midi": 53,
      "hit": false,
      "t": 151512.70099999977,
      "d": 79.83198333333712,
      "v": 127
    },
    {
      "midi": 40,
      "hit": false,
      "t": 151512.70100000058,
      "d": 126.05050000001211,
      "v": 111
    },
    {
      "midi": 42,
      "hit": false,
      "t": 151512.70100000102,
      "d": 126.05050000001211,
      "v": 112
    },
    {
      "midi": 33,
      "hit": false,
      "t": 151764.8019999996,
      "d": 331.93298333333223,
      "v": 101
    },
    {
      "midi": 55,
      "hit": false,
      "t": 151764.80199999976,
      "d": 79.83198333333712,
      "v": 127
    },
    {
      "midi": 52,
      "hit": false,
      "t": 151764.80199999976,
      "d": 79.83198333333712,
      "v": 127
    },
    {
      "midi": 40,
      "hit": false,
      "t": 151764.8020000006,
      "d": 126.05050000001211,
      "v": 103
    },
    {
      "midi": 40,
      "hit": false,
      "t": 151890.85250000062,
      "d": 126.05050000001211,
      "v": 96
    },
    {
      "midi": 50,
      "hit": false,
      "t": 152016.90299999976,
      "d": 79.83198333333712,
      "v": 127
    },
    {
      "midi": 53,
      "hit": false,
      "t": 152016.90299999976,
      "d": 79.83198333333712,
      "v": 127
    },
    {
      "midi": 40,
      "hit": false,
      "t": 152016.90300000063,
      "d": 126.05050000001211,
      "v": 104
    },
    {
      "midi": 42,
      "hit": false,
      "t": 152016.90300000104,
      "d": 126.05050000001211,
      "v": 102
    },
    {
      "midi": 40,
      "hit": false,
      "t": 152142.95350000064,
      "d": 126.05050000001211,
      "v": 96
    },
    {
      "midi": 40,
      "hit": false,
      "t": 152269.00399999958,
      "d": 168.06733333333977,
      "v": 112
    },
    {
      "midi": 52,
      "hit": false,
      "t": 152269.00399999975,
      "d": 79.83198333333712,
      "v": 123
    },
    {
      "midi": 48,
      "hit": false,
      "t": 152269.00399999975,
      "d": 79.83198333333712,
      "v": 123
    },
    {
      "midi": 40,
      "hit": false,
      "t": 152269.00400000066,
      "d": 126.05050000001211,
      "v": 113
    },
    {
      "midi": 69,
      "hit": false,
      "t": 152773.20599999937,
      "d": 436.97506666666595,
      "v": 107
    },
    {
      "midi": 33,
      "hit": false,
      "t": 152773.2059999996,
      "d": 378.1515000000072,
      "v": 113
    },
    {
      "midi": 33,
      "hit": false,
      "t": 152773.20599999969,
      "d": 428.5717000000004,
      "v": 97
    },
    {
      "midi": 49,
      "hit": false,
      "t": 152773.20599999998,
      "d": 378.1515000000072,
      "v": 127
    },
    {
      "midi": 35,
      "hit": false,
      "t": 152773.20600000006,
      "d": 63.025250000006054,
      "v": 127
    },
    {
      "midi": 38,
      "hit": false,
      "t": 152773.20600000006,
      "d": 126.05050000001211,
      "v": 127
    },
    {
      "midi": 81,
      "hit": false,
      "t": 152773.20600000012,
      "d": 126.05050000001211,
      "v": 91
    },
    {
      "midi": 81,
      "hit": false,
      "t": 152899.25650000013,
      "d": 126.05050000001211,
      "v": 94
    },
    {
      "midi": 82,
      "hit": false,
      "t": 152962.28175000014,
      "d": 8.403366666665534,
      "v": 91
    },
    {
      "midi": 81,
      "hit": false,
      "t": 153025.30700000015,
      "d": 126.05050000001211,
      "v": 97
    },
    {
      "midi": 82,
      "hit": false,
      "t": 153079.9288833335,
      "d": 8.403366666665534,
      "v": 97
    },
    {
      "midi": 81,
      "hit": false,
      "t": 153151.35750000016,
      "d": 126.05050000001211,
      "v": 99
    },
    {
      "midi": 82,
      "hit": false,
      "t": 153201.77770000015,
      "d": 4.201683333347319,
      "v": 95
    },
    {
      "midi": 74,
      "hit": false,
      "t": 153277.40799999936,
      "d": 126.05050000001211,
      "v": 111
    },
    {
      "midi": 38,
      "hit": false,
      "t": 153277.40799999962,
      "d": 126.05050000001211,
      "v": 119
    },
    {
      "midi": 38,
      "hit": false,
      "t": 153277.40799999968,
      "d": 126.05050000001211,
      "v": 97
    },
    {
      "midi": 50,
      "hit": false,
      "t": 153277.40799999985,
      "d": 92.43703333332087,
      "v": 108
    },
    {
      "midi": 62,
      "hit": false,
      "t": 153277.40799999985,
      "d": 92.43703333332087,
      "v": 108
    },
    {
      "midi": 49,
      "hit": false,
      "t": 153277.408,
      "d": 756.3030000000144,
      "v": 127
    },
    {
      "midi": 38,
      "hit": false,
      "t": 153277.40800000008,
      "d": 126.05050000001211,
      "v": 100
    },
    {
      "midi": 74,
      "hit": false,
      "t": 153277.4080000001,
      "d": 71.42861666667159,
      "v": 115
    },
    {
      "midi": 62,
      "hit": false,
      "t": 153277.4080000001,
      "d": 71.42861666667159,
      "v": 115
    },
    {
      "midi": 74,
      "hit": false,
      "t": 153277.40800000014,
      "d": 71.42861666667159,
      "v": 115
    },
    {
      "midi": 62,
      "hit": false,
      "t": 153277.40800000014,
      "d": 71.42861666667159,
      "v": 115
    },
    {
      "midi": 86,
      "hit": false,
      "t": 153277.40800000017,
      "d": 126.050499999983,
      "v": 111
    },
    {
      "midi": 40,
      "hit": false,
      "t": 153277.40800000067,
      "d": 126.05050000001211,
      "v": 120
    },
    {
      "midi": 72,
      "hit": false,
      "t": 153529.50899999938,
      "d": 126.05050000001211,
      "v": 105
    },
    {
      "midi": 36,
      "hit": false,
      "t": 153529.50899999964,
      "d": 126.05050000001211,
      "v": 110
    },
    {
      "midi": 36,
      "hit": false,
      "t": 153529.5089999997,
      "d": 126.05050000001211,
      "v": 87
    },
    {
      "midi": 48,
      "hit": false,
      "t": 153529.50899999985,
      "d": 92.43703333332087,
      "v": 122
    },
    {
      "midi": 60,
      "hit": false,
      "t": 153529.50899999985,
      "d": 92.43703333332087,
      "v": 122
    },
    {
      "midi": 72,
      "hit": false,
      "t": 153529.5090000001,
      "d": 71.42861666667159,
      "v": 111
    },
    {
      "midi": 60,
      "hit": false,
      "t": 153529.5090000001,
      "d": 71.42861666667159,
      "v": 111
    },
    {
      "midi": 38,
      "hit": false,
      "t": 153529.5090000001,
      "d": 126.05050000001211,
      "v": 100
    },
    {
      "midi": 72,
      "hit": false,
      "t": 153529.50900000014,
      "d": 71.42861666667159,
      "v": 111
    },
    {
      "midi": 60,
      "hit": false,
      "t": 153529.50900000014,
      "d": 71.42861666667159,
      "v": 111
    },
    {
      "midi": 84,
      "hit": false,
      "t": 153529.50900000017,
      "d": 126.05050000001211,
      "v": 104
    },
    {
      "midi": 40,
      "hit": false,
      "t": 153529.5090000007,
      "d": 126.05050000001211,
      "v": 120
    },
    {
      "midi": 69,
      "hit": false,
      "t": 153781.6099999994,
      "d": 247.8993166666769,
      "v": 100
    },
    {
      "midi": 38,
      "hit": false,
      "t": 153781.60999999967,
      "d": 378.1515000000072,
      "v": 119
    },
    {
      "midi": 38,
      "hit": false,
      "t": 153781.60999999972,
      "d": 252.1009999999951,
      "v": 98
    },
    {
      "midi": 45,
      "hit": false,
      "t": 153781.60999999984,
      "d": 323.5296166666667,
      "v": 127
    },
    {
      "midi": 57,
      "hit": false,
      "t": 153781.60999999984,
      "d": 336.13466666667955,
      "v": 127
    },
    {
      "midi": 57,
      "hit": false,
      "t": 153781.6100000001,
      "d": 420.1683333333349,
      "v": 108
    },
    {
      "midi": 69,
      "hit": false,
      "t": 153781.6100000001,
      "d": 420.1683333333349,
      "v": 108
    },
    {
      "midi": 57,
      "hit": false,
      "t": 153781.61000000013,
      "d": 420.1683333333349,
      "v": 108
    },
    {
      "midi": 69,
      "hit": false,
      "t": 153781.61000000013,
      "d": 420.1683333333349,
      "v": 108
    },
    {
      "midi": 38,
      "hit": false,
      "t": 153781.61000000013,
      "d": 126.05050000001211,
      "v": 100
    },
    {
      "midi": 81,
      "hit": false,
      "t": 153781.6100000002,
      "d": 252.1009999999951,
      "v": 99
    },
    {
      "midi": 40,
      "hit": false,
      "t": 153781.6100000007,
      "d": 126.05050000001211,
      "v": 121
    },
    {
      "midi": 74,
      "hit": false,
      "t": 154285.81199999942,
      "d": 126.05050000001211,
      "v": 111
    },
    {
      "midi": 38,
      "hit": false,
      "t": 154285.81199999969,
      "d": 126.05050000001211,
      "v": 119
    },
    {
      "midi": 38,
      "hit": false,
      "t": 154285.8119999997,
      "d": 126.05050000001211,
      "v": 98
    },
    {
      "midi": 50,
      "hit": false,
      "t": 154285.81199999986,
      "d": 92.43703333332087,
      "v": 122
    },
    {
      "midi": 62,
      "hit": false,
      "t": 154285.81199999986,
      "d": 92.43703333332087,
      "v": 122
    },
    {
      "midi": 49,
      "hit": false,
      "t": 154285.812,
      "d": 1134.4544999999925,
      "v": 116
    },
    {
      "midi": 62,
      "hit": false,
      "t": 154285.8120000001,
      "d": 58.823566666658735,
      "v": 118
    },
    {
      "midi": 74,
      "hit": false,
      "t": 154285.8120000001,
      "d": 58.823566666658735,
      "v": 118
    },
    {
      "midi": 62,
      "hit": false,
      "t": 154285.81200000012,
      "d": 58.823566666658735,
      "v": 118
    },
    {
      "midi": 74,
      "hit": false,
      "t": 154285.81200000012,
      "d": 58.823566666658735,
      "v": 118
    },
    {
      "midi": 38,
      "hit": false,
      "t": 154285.81200000015,
      "d": 126.05050000001211,
      "v": 100
    },
    {
      "midi": 86,
      "hit": false,
      "t": 154285.81200000018,
      "d": 126.05050000001211,
      "v": 110
    },
    {
      "midi": 40,
      "hit": false,
      "t": 154285.81200000073,
      "d": 126.05050000001211,
      "v": 121
    },
    {
      "midi": 72,
      "hit": false,
      "t": 154537.91299999945,
      "d": 126.05050000001211,
      "v": 106
    },
    {
      "midi": 36,
      "hit": false,
      "t": 154537.9129999997,
      "d": 126.05050000001211,
      "v": 109
    },
    {
      "midi": 36,
      "hit": false,
      "t": 154537.91299999974,
      "d": 126.05050000001211,
      "v": 89
    },
    {
      "midi": 48,
      "hit": false,
      "t": 154537.91299999985,
      "d": 92.43703333332087,
      "v": 127
    },
    {
      "midi": 60,
      "hit": false,
      "t": 154537.91299999985,
      "d": 92.43703333332087,
      "v": 127
    },
    {
      "midi": 72,
      "hit": false,
      "t": 154537.9130000001,
      "d": 33.613466666662134,
      "v": 112
    },
    {
      "midi": 60,
      "hit": false,
      "t": 154537.9130000001,
      "d": 33.613466666662134,
      "v": 112
    },
    {
      "midi": 72,
      "hit": false,
      "t": 154537.91300000012,
      "d": 33.613466666662134,
      "v": 112
    },
    {
      "midi": 60,
      "hit": false,
      "t": 154537.91300000012,
      "d": 33.613466666662134,
      "v": 112
    },
    {
      "midi": 38,
      "hit": false,
      "t": 154537.91300000018,
      "d": 126.05050000001211,
      "v": 100
    },
    {
      "midi": 84,
      "hit": false,
      "t": 154537.9130000002,
      "d": 126.05050000001211,
      "v": 107
    },
    {
      "midi": 40,
      "hit": false,
      "t": 154537.91300000076,
      "d": 126.05050000001211,
      "v": 121
    },
    {
      "midi": 69,
      "hit": false,
      "t": 154790.01399999947,
      "d": 369.7481333333417,
      "v": 102
    },
    {
      "midi": 38,
      "hit": false,
      "t": 154790.01399999973,
      "d": 378.1515000000072,
      "v": 119
    },
    {
      "midi": 38,
      "hit": false,
      "t": 154790.01399999976,
      "d": 252.1009999999951,
      "v": 98
    },
    {
      "midi": 57,
      "hit": false,
      "t": 154790.01399999985,
      "d": 336.13466666667955,
      "v": 127
    },
    {
      "midi": 45,
      "hit": false,
      "t": 154790.01399999985,
      "d": 344.5380333333451,
      "v": 127
    },
    {
      "midi": 57,
      "hit": false,
      "t": 154790.01400000008,
      "d": 441.17675000001327,
      "v": 108
    },
    {
      "midi": 69,
      "hit": false,
      "t": 154790.01400000008,
      "d": 441.17675000001327,
      "v": 108
    },
    {
      "midi": 57,
      "hit": false,
      "t": 154790.0140000001,
      "d": 441.17675000001327,
      "v": 108
    },
    {
      "midi": 69,
      "hit": false,
      "t": 154790.0140000001,
      "d": 441.17675000001327,
      "v": 108
    },
    {
      "midi": 38,
      "hit": false,
      "t": 154790.0140000002,
      "d": 126.05050000001211,
      "v": 100
    },
    {
      "midi": 81,
      "hit": false,
      "t": 154790.01400000023,
      "d": 252.1009999999951,
      "v": 98
    },
    {
      "midi": 40,
      "hit": false,
      "t": 154790.01400000078,
      "d": 126.05050000001211,
      "v": 120
    },
    {
      "midi": 74,
      "hit": false,
      "t": 155294.2159999995,
      "d": 126.05050000001211,
      "v": 111
    },
    {
      "midi": 38,
      "hit": false,
      "t": 155294.21599999975,
      "d": 126.05050000001211,
      "v": 117
    },
    {
      "midi": 38,
      "hit": false,
      "t": 155294.21599999975,
      "d": 126.05050000001211,
      "v": 99
    },
    {
      "midi": 50,
      "hit": false,
      "t": 155294.21599999987,
      "d": 92.43703333332087,
      "v": 122
    },
    {
      "midi": 62,
      "hit": false,
      "t": 155294.21599999987,
      "d": 92.43703333332087,
      "v": 122
    },
    {
      "midi": 74,
      "hit": false,
      "t": 155294.2160000001,
      "d": 33.613466666662134,
      "v": 118
    },
    {
      "midi": 62,
      "hit": false,
      "t": 155294.2160000001,
      "d": 33.613466666662134,
      "v": 118
    },
    {
      "midi": 74,
      "hit": false,
      "t": 155294.21600000013,
      "d": 33.613466666662134,
      "v": 118
    },
    {
      "midi": 62,
      "hit": false,
      "t": 155294.21600000013,
      "d": 33.613466666662134,
      "v": 118
    },
    {
      "midi": 86,
      "hit": false,
      "t": 155294.21600000022,
      "d": 126.05050000001211,
      "v": 107
    },
    {
      "midi": 40,
      "hit": false,
      "t": 155294.2160000008,
      "d": 126.05050000001211,
      "v": 115
    },
    {
      "midi": 72,
      "hit": false,
      "t": 155546.31699999952,
      "d": 126.05050000001211,
      "v": 100
    },
    {
      "midi": 36,
      "hit": false,
      "t": 155546.31699999978,
      "d": 126.05050000001211,
      "v": 110
    },
    {
      "midi": 36,
      "hit": false,
      "t": 155546.31699999978,
      "d": 126.05050000001211,
      "v": 88
    },
    {
      "midi": 48,
      "hit": false,
      "t": 155546.31699999986,
      "d": 92.43703333332087,
      "v": 127
    },
    {
      "midi": 60,
      "hit": false,
      "t": 155546.31699999986,
      "d": 92.43703333332087,
      "v": 127
    },
    {
      "midi": 72,
      "hit": false,
      "t": 155546.3170000001,
      "d": 46.21851666667499,
      "v": 108
    },
    {
      "midi": 60,
      "hit": false,
      "t": 155546.3170000001,
      "d": 46.21851666667499,
      "v": 108
    },
    {
      "midi": 72,
      "hit": false,
      "t": 155546.31700000013,
      "d": 46.21851666667499,
      "v": 108
    },
    {
      "midi": 60,
      "hit": false,
      "t": 155546.31700000013,
      "d": 46.21851666667499,
      "v": 108
    },
    {
      "midi": 84,
      "hit": false,
      "t": 155546.31700000024,
      "d": 126.05050000001211,
      "v": 100
    },
    {
      "midi": 40,
      "hit": false,
      "t": 155546.31700000082,
      "d": 126.05050000001211,
      "v": 116
    },
    {
      "midi": 42,
      "hit": false,
      "t": 155546.31700000106,
      "d": 126.05050000001211,
      "v": 119
    },
    {
      "midi": 74,
      "hit": false,
      "t": 155798.41799999954,
      "d": 126.05050000001211,
      "v": 110
    },
    {
      "midi": 38,
      "hit": false,
      "t": 155798.4179999998,
      "d": 126.05050000001211,
      "v": 120
    },
    {
      "midi": 38,
      "hit": false,
      "t": 155798.4179999998,
      "d": 126.05050000001211,
      "v": 101
    },
    {
      "midi": 50,
      "hit": false,
      "t": 155798.41799999986,
      "d": 92.43703333332087,
      "v": 122
    },
    {
      "midi": 62,
      "hit": false,
      "t": 155798.41799999986,
      "d": 92.43703333332087,
      "v": 122
    },
    {
      "midi": 62,
      "hit": false,
      "t": 155798.4180000001,
      "d": 58.823566666658735,
      "v": 122
    },
    {
      "midi": 74,
      "hit": false,
      "t": 155798.4180000001,
      "d": 58.823566666658735,
      "v": 122
    },
    {
      "midi": 62,
      "hit": false,
      "t": 155798.41800000012,
      "d": 58.823566666658735,
      "v": 122
    },
    {
      "midi": 74,
      "hit": false,
      "t": 155798.41800000012,
      "d": 58.823566666658735,
      "v": 122
    },
    {
      "midi": 86,
      "hit": false,
      "t": 155798.41800000027,
      "d": 126.05050000001211,
      "v": 110
    },
    {
      "midi": 40,
      "hit": false,
      "t": 155798.41800000085,
      "d": 126.05050000001211,
      "v": 107
    },
    {
      "midi": 40,
      "hit": false,
      "t": 155924.46850000086,
      "d": 126.05050000001211,
      "v": 102
    },
    {
      "midi": 72,
      "hit": false,
      "t": 156050.51899999956,
      "d": 126.05050000001211,
      "v": 103
    },
    {
      "midi": 36,
      "hit": false,
      "t": 156050.51899999983,
      "d": 126.05050000001211,
      "v": 110
    },
    {
      "midi": 36,
      "hit": false,
      "t": 156050.51899999983,
      "d": 126.05050000001211,
      "v": 90
    },
    {
      "midi": 48,
      "hit": false,
      "t": 156050.51899999985,
      "d": 92.43703333332087,
      "v": 127
    },
    {
      "midi": 60,
      "hit": false,
      "t": 156050.51899999985,
      "d": 92.43703333332087,
      "v": 127
    },
    {
      "midi": 72,
      "hit": false,
      "t": 156050.5190000001,
      "d": 58.823566666658735,
      "v": 116
    },
    {
      "midi": 60,
      "hit": false,
      "t": 156050.5190000001,
      "d": 58.823566666658735,
      "v": 116
    },
    {
      "midi": 72,
      "hit": false,
      "t": 156050.51900000012,
      "d": 58.823566666658735,
      "v": 116
    },
    {
      "midi": 60,
      "hit": false,
      "t": 156050.51900000012,
      "d": 58.823566666658735,
      "v": 116
    },
    {
      "midi": 84,
      "hit": false,
      "t": 156050.5190000003,
      "d": 126.05050000001211,
      "v": 104
    },
    {
      "midi": 40,
      "hit": false,
      "t": 156050.51900000087,
      "d": 126.05050000001211,
      "v": 109
    },
    {
      "midi": 42,
      "hit": false,
      "t": 156050.51900000108,
      "d": 126.05050000001211,
      "v": 102
    },
    {
      "midi": 40,
      "hit": false,
      "t": 156176.5695000009,
      "d": 126.05050000001211,
      "v": 103
    },
    {
      "midi": 69,
      "hit": false,
      "t": 156302.6199999996,
      "d": 126.05050000001211,
      "v": 99
    },
    {
      "midi": 45,
      "hit": false,
      "t": 156302.61999999985,
      "d": 92.43703333332087,
      "v": 127
    },
    {
      "midi": 57,
      "hit": false,
      "t": 156302.61999999985,
      "d": 92.43703333332087,
      "v": 127
    },
    {
      "midi": 38,
      "hit": false,
      "t": 156302.61999999985,
      "d": 126.05050000001211,
      "v": 118
    },
    {
      "midi": 38,
      "hit": false,
      "t": 156302.61999999985,
      "d": 155.46228333332692,
      "v": 103
    },
    {
      "midi": 69,
      "hit": false,
      "t": 156302.62000000008,
      "d": 92.43703333332087,
      "v": 118
    },
    {
      "midi": 57,
      "hit": false,
      "t": 156302.62000000008,
      "d": 92.43703333332087,
      "v": 118
    },
    {
      "midi": 69,
      "hit": false,
      "t": 156302.6200000001,
      "d": 92.43703333332087,
      "v": 118
    },
    {
      "midi": 57,
      "hit": false,
      "t": 156302.6200000001,
      "d": 92.43703333332087,
      "v": 118
    },
    {
      "midi": 81,
      "hit": false,
      "t": 156302.62000000032,
      "d": 126.05050000001211,
      "v": 98
    },
    {
      "midi": 40,
      "hit": false,
      "t": 156302.6200000009,
      "d": 126.05050000001211,
      "v": 117
    },
    {
      "midi": 42,
      "hit": false,
      "t": 156302.6200000011,
      "d": 126.05050000001211,
      "v": 121
    },
    {
      "midi": 38,
      "hit": false,
      "t": 156806.82199999987,
      "d": 172.269016666658,
      "v": 121
    },
    {
      "midi": 49,
      "hit": false,
      "t": 156806.822,
      "d": 756.3030000000144,
      "v": 127
    },
    {
      "midi": 35,
      "hit": false,
      "t": 156806.82200000022,
      "d": 63.025250000006054,
      "v": 127
    },
    {
      "midi": 38,
      "hit": false,
      "t": 156806.82200000022,
      "d": 126.05050000001211,
      "v": 127
    },
    {
      "midi": 69,
      "hit": false,
      "t": 157184.9735000001,
      "d": 8.403366666665534,
      "v": 107
    },
    {
      "midi": 34,
      "hit": false,
      "t": 157311.02399999986,
      "d": 331.93298333333223,
      "v": 113
    },
    {
      "midi": 77,
      "hit": false,
      "t": 157311.02400000012,
      "d": 554.6221999999834,
      "v": 118
    },
    {
      "midi": 40,
      "hit": false,
      "t": 157311.0240000009,
      "d": 126.05050000001211,
      "v": 108
    },
    {
      "midi": 40,
      "hit": false,
      "t": 157563.12500000093,
      "d": 126.05050000001211,
      "v": 108
    },
    {
      "midi": 42,
      "hit": false,
      "t": 157563.1250000011,
      "d": 126.05050000001211,
      "v": 114
    },
    {
      "midi": 38,
      "hit": false,
      "t": 157815.22599999985,
      "d": 331.93298333333223,
      "v": 102
    },
    {
      "midi": 76,
      "hit": false,
      "t": 157815.2260000001,
      "d": 554.6221999999834,
      "v": 109
    },
    {
      "midi": 40,
      "hit": false,
      "t": 157815.22600000096,
      "d": 126.05050000001211,
      "v": 100
    },
    {
      "midi": 40,
      "hit": false,
      "t": 157941.27650000097,
      "d": 126.05050000001211,
      "v": 93
    },
    {
      "midi": 40,
      "hit": false,
      "t": 158067.32700000098,
      "d": 126.05050000001211,
      "v": 102
    },
    {
      "midi": 42,
      "hit": false,
      "t": 158067.32700000113,
      "d": 126.05050000001211,
      "v": 103
    },
    {
      "midi": 40,
      "hit": false,
      "t": 158193.377500001,
      "d": 126.05050000001211,
      "v": 94
    },
    {
      "midi": 41,
      "hit": false,
      "t": 158319.42799999984,
      "d": 331.93298333333223,
      "v": 116
    },
    {
      "midi": 74,
      "hit": false,
      "t": 158319.4280000001,
      "d": 542.0171499999997,
      "v": 117
    },
    {
      "midi": 40,
      "hit": false,
      "t": 158319.428000001,
      "d": 126.05050000001211,
      "v": 109
    },
    {
      "midi": 40,
      "hit": false,
      "t": 158571.52900000103,
      "d": 126.05050000001211,
      "v": 109
    },
    {
      "midi": 42,
      "hit": false,
      "t": 158571.52900000114,
      "d": 126.05050000001211,
      "v": 115
    },
    {
      "midi": 34,
      "hit": false,
      "t": 158823.62999999983,
      "d": 331.93298333333223,
      "v": 103
    },
    {
      "midi": 72,
      "hit": false,
      "t": 158823.6300000001,
      "d": 411.76496666666935,
      "v": 113
    },
    {
      "midi": 40,
      "hit": false,
      "t": 158823.63000000105,
      "d": 126.05050000001211,
      "v": 100
    },
    {
      "midi": 40,
      "hit": false,
      "t": 158949.68050000106,
      "d": 126.05050000001211,
      "v": 95
    },
    {
      "midi": 40,
      "hit": false,
      "t": 159075.73100000108,
      "d": 126.05050000001211,
      "v": 101
    },
    {
      "midi": 42,
      "hit": false,
      "t": 159075.73100000116,
      "d": 126.05050000001211,
      "v": 104
    },
    {
      "midi": 74,
      "hit": false,
      "t": 159201.7815000001,
      "d": 126.050499999983,
      "v": 103
    },
    {
      "midi": 40,
      "hit": false,
      "t": 159201.7815000011,
      "d": 126.05050000001211,
      "v": 95
    },
    {
      "midi": 36,
      "hit": false,
      "t": 159327.83199999982,
      "d": 331.93298333333223,
      "v": 117
    },
    {
      "midi": 72,
      "hit": false,
      "t": 159327.83200000008,
      "d": 542.0171499999997,
      "v": 112
    },
    {
      "midi": 40,
      "hit": false,
      "t": 159327.8320000011,
      "d": 126.05050000001211,
      "v": 108
    },
    {
      "midi": 40,
      "hit": false,
      "t": 159579.93300000113,
      "d": 126.05050000001211,
      "v": 108
    },
    {
      "midi": 42,
      "hit": false,
      "t": 159579.93300000118,
      "d": 126.05050000001211,
      "v": 116
    },
    {
      "midi": 36,
      "hit": false,
      "t": 159832.0339999998,
      "d": 331.93298333333223,
      "v": 101
    },
    {
      "midi": 70,
      "hit": false,
      "t": 159832.03400000007,
      "d": 554.6222000000125,
      "v": 104
    },
    {
      "midi": 40,
      "hit": false,
      "t": 159832.03400000115,
      "d": 126.05050000001211,
      "v": 100
    },
    {
      "midi": 40,
      "hit": false,
      "t": 159958.08450000116,
      "d": 126.05050000001211,
      "v": 93
    },
    {
      "midi": 40,
      "hit": false,
      "t": 160084.13500000117,
      "d": 126.05050000001211,
      "v": 102
    },
    {
      "midi": 42,
      "hit": false,
      "t": 160084.1350000012,
      "d": 126.05050000001211,
      "v": 103
    },
    {
      "midi": 40,
      "hit": false,
      "t": 160210.1855000012,
      "d": 126.05050000001211,
      "v": 94
    },
    {
      "midi": 41,
      "hit": false,
      "t": 160336.2359999998,
      "d": 331.93298333333223,
      "v": 118
    },
    {
      "midi": 69,
      "hit": false,
      "t": 160336.2360000001,
      "d": 970.5888500000001,
      "v": 113
    },
    {
      "midi": 40,
      "hit": false,
      "t": 160336.2360000012,
      "d": 126.05050000001211,
      "v": 109
    },
    {
      "midi": 77,
      "hit": false,
      "t": 160588.33700000032,
      "d": 147.0589166666905,
      "v": 87
    },
    {
      "midi": 40,
      "hit": false,
      "t": 160588.33700000122,
      "d": 126.05050000001211,
      "v": 109
    },
    {
      "midi": 42,
      "hit": false,
      "t": 160588.33700000122,
      "d": 126.05050000001211,
      "v": 115
    },
    {
      "midi": 78,
      "hit": false,
      "t": 160714.38750000033,
      "d": 147.0589166666905,
      "v": 78
    },
    {
      "midi": 36,
      "hit": false,
      "t": 160840.4379999998,
      "d": 331.93298333333223,
      "v": 107
    },
    {
      "midi": 79,
      "hit": false,
      "t": 160840.43800000034,
      "d": 147.0589166666905,
      "v": 91
    },
    {
      "midi": 40,
      "hit": false,
      "t": 160840.43800000125,
      "d": 126.05050000001211,
      "v": 100
    },
    {
      "midi": 81,
      "hit": false,
      "t": 160966.48850000036,
      "d": 147.0589166666905,
      "v": 73
    },
    {
      "midi": 40,
      "hit": false,
      "t": 160966.48850000126,
      "d": 126.05050000001211,
      "v": 95
    },
    {
      "midi": 82,
      "hit": false,
      "t": 161092.53900000037,
      "d": 147.0589166666905,
      "v": 95
    },
    {
      "midi": 42,
      "hit": false,
      "t": 161092.53900000124,
      "d": 126.05050000001211,
      "v": 105
    },
    {
      "midi": 40,
      "hit": false,
      "t": 161092.53900000127,
      "d": 126.05050000001211,
      "v": 101
    },
    {
      "midi": 83,
      "hit": false,
      "t": 161218.58950000038,
      "d": 147.0589166666905,
      "v": 86
    },
    {
      "midi": 40,
      "hit": false,
      "t": 161218.58950000128,
      "d": 126.05050000001211,
      "v": 95
    },
    {
      "midi": 43,
      "hit": false,
      "t": 161344.63999999978,
      "d": 394.9582333333383,
      "v": 112
    },
    {
      "midi": 69,
      "hit": false,
      "t": 161344.64000000007,
      "d": 84.03366666668444,
      "v": 127
    },
    {
      "midi": 69,
      "hit": false,
      "t": 161344.6400000001,
      "d": 84.03366666668444,
      "v": 127
    },
    {
      "midi": 84,
      "hit": false,
      "t": 161344.6400000004,
      "d": 126.05050000001211,
      "v": 86
    },
    {
      "midi": 40,
      "hit": false,
      "t": 161344.6400000013,
      "d": 126.05050000001211,
      "v": 108
    },
    {
      "midi": 72,
      "hit": false,
      "t": 161357.24505000009,
      "d": 79.83198333333712,
      "v": 127
    },
    {
      "midi": 72,
      "hit": false,
      "t": 161357.2450500001,
      "d": 79.83198333333712,
      "v": 127
    },
    {
      "midi": 86,
      "hit": false,
      "t": 161441.27871666706,
      "d": 126.05050000001211,
      "v": 85
    },
    {
      "midi": 84,
      "hit": false,
      "t": 161470.6905000004,
      "d": 126.05050000001211,
      "v": 83
    },
    {
      "midi": 86,
      "hit": false,
      "t": 161567.32921666707,
      "d": 126.05050000001211,
      "v": 85
    },
    {
      "midi": 60,
      "hit": false,
      "t": 161596.7409999996,
      "d": 1310.9252000001143,
      "v": 105
    },
    {
      "midi": 72,
      "hit": false,
      "t": 161596.7410000001,
      "d": 529.4120999999868,
      "v": 114
    },
    {
      "midi": 84,
      "hit": false,
      "t": 161596.74100000042,
      "d": 126.05050000001211,
      "v": 87
    },
    {
      "midi": 42,
      "hit": false,
      "t": 161596.74100000126,
      "d": 126.05050000001211,
      "v": 116
    },
    {
      "midi": 40,
      "hit": false,
      "t": 161596.74100000132,
      "d": 126.05050000001211,
      "v": 108
    },
    {
      "midi": 86,
      "hit": false,
      "t": 161693.37971666708,
      "d": 126.05050000001211,
      "v": 86
    },
    {
      "midi": 84,
      "hit": false,
      "t": 161722.79150000043,
      "d": 126.05050000001211,
      "v": 86
    },
    {
      "midi": 86,
      "hit": false,
      "t": 161819.4302166671,
      "d": 126.05050000001211,
      "v": 84
    },
    {
      "midi": 38,
      "hit": false,
      "t": 161848.8419999998,
      "d": 394.9582333333383,
      "v": 101
    },
    {
      "midi": 84,
      "hit": false,
      "t": 161848.84200000044,
      "d": 126.05050000001211,
      "v": 86
    },
    {
      "midi": 40,
      "hit": false,
      "t": 161848.84200000134,
      "d": 126.05050000001211,
      "v": 100
    },
    {
      "midi": 86,
      "hit": false,
      "t": 161945.4807166671,
      "d": 126.05050000001211,
      "v": 88
    },
    {
      "midi": 84,
      "hit": false,
      "t": 161974.89250000045,
      "d": 126.05050000001211,
      "v": 88
    },
    {
      "midi": 40,
      "hit": false,
      "t": 161974.89250000136,
      "d": 126.05050000001211,
      "v": 93
    },
    {
      "midi": 86,
      "hit": false,
      "t": 162071.53121666712,
      "d": 126.05050000001211,
      "v": 86
    },
    {
      "midi": 70,
      "hit": false,
      "t": 162100.9430000001,
      "d": 289.91615000000456,
      "v": 104
    },
    {
      "midi": 84,
      "hit": false,
      "t": 162100.94300000046,
      "d": 126.05050000001211,
      "v": 84
    },
    {
      "midi": 42,
      "hit": false,
      "t": 162100.94300000128,
      "d": 126.05050000001211,
      "v": 103
    },
    {
      "midi": 40,
      "hit": false,
      "t": 162100.94300000137,
      "d": 126.05050000001211,
      "v": 102
    },
    {
      "midi": 86,
      "hit": false,
      "t": 162197.58171666713,
      "d": 126.05050000001211,
      "v": 84
    },
    {
      "midi": 84,
      "hit": false,
      "t": 162226.99350000048,
      "d": 126.05050000001211,
      "v": 84
    },
    {
      "midi": 40,
      "hit": false,
      "t": 162226.99350000138,
      "d": 126.05050000001211,
      "v": 94
    },
    {
      "midi": 86,
      "hit": false,
      "t": 162323.63221666715,
      "d": 126.05050000001211,
      "v": 93
    },
    {
      "midi": 43,
      "hit": false,
      "t": 162353.04399999982,
      "d": 394.9582333333383,
      "v": 113
    },
    {
      "midi": 69,
      "hit": false,
      "t": 162353.04400000008,
      "d": 504.2020000000193,
      "v": 111
    },
    {
      "midi": 84,
      "hit": false,
      "t": 162353.0440000005,
      "d": 126.05050000001211,
      "v": 93
    },
    {
      "midi": 40,
      "hit": false,
      "t": 162353.0440000014,
      "d": 126.05050000001211,
      "v": 109
    },
    {
      "midi": 86,
      "hit": false,
      "t": 162449.68271666716,
      "d": 126.05050000001211,
      "v": 81
    },
    {
      "midi": 84,
      "hit": false,
      "t": 162479.0945000005,
      "d": 126.05050000001211,
      "v": 80
    },
    {
      "midi": 86,
      "hit": false,
      "t": 162575.73321666717,
      "d": 126.05050000001211,
      "v": 84
    },
    {
      "midi": 84,
      "hit": false,
      "t": 162605.1450000005,
      "d": 126.05050000001211,
      "v": 86
    },
    {
      "midi": 42,
      "hit": false,
      "t": 162605.1450000013,
      "d": 126.05050000001211,
      "v": 112
    },
    {
      "midi": 40,
      "hit": false,
      "t": 162605.14500000142,
      "d": 126.05050000001211,
      "v": 109
    },
    {
      "midi": 86,
      "hit": false,
      "t": 162701.78371666718,
      "d": 126.05050000001211,
      "v": 81
    },
    {
      "midi": 84,
      "hit": false,
      "t": 162731.19550000053,
      "d": 126.05050000001211,
      "v": 81
    },
    {
      "midi": 86,
      "hit": false,
      "t": 162827.8342166672,
      "d": 126.05050000001211,
      "v": 87
    },
    {
      "midi": 58,
      "hit": false,
      "t": 162857.24599999972,
      "d": 504.2019999999902,
      "v": 87
    },
    {
      "midi": 36,
      "hit": false,
      "t": 162857.24599999984,
      "d": 336.13466666667955,
      "v": 103
    },
    {
      "midi": 67,
      "hit": false,
      "t": 162857.2460000001,
      "d": 478.9918999999936,
      "v": 100
    },
    {
      "midi": 84,
      "hit": false,
      "t": 162857.24600000054,
      "d": 126.05050000001211,
      "v": 87
    },
    {
      "midi": 40,
      "hit": false,
      "t": 162857.24600000144,
      "d": 126.05050000001211,
      "v": 100
    },
    {
      "midi": 86,
      "hit": false,
      "t": 162953.8847166672,
      "d": 126.05050000001211,
      "v": 84
    },
    {
      "midi": 84,
      "hit": false,
      "t": 162983.29650000055,
      "d": 126.05050000001211,
      "v": 83
    },
    {
      "midi": 40,
      "hit": false,
      "t": 162983.29650000145,
      "d": 126.05050000001211,
      "v": 95
    },
    {
      "midi": 86,
      "hit": false,
      "t": 163079.93521666722,
      "d": 126.05050000001211,
      "v": 85
    },
    {
      "midi": 84,
      "hit": false,
      "t": 163109.34700000056,
      "d": 126.05050000001211,
      "v": 85
    },
    {
      "midi": 42,
      "hit": false,
      "t": 163109.34700000132,
      "d": 126.05050000001211,
      "v": 104
    },
    {
      "midi": 40,
      "hit": false,
      "t": 163109.34700000146,
      "d": 126.05050000001211,
      "v": 101
    },
    {
      "midi": 86,
      "hit": false,
      "t": 163205.98571666723,
      "d": 126.05050000001211,
      "v": 92
    },
    {
      "midi": 84,
      "hit": false,
      "t": 163235.39750000057,
      "d": 126.05050000001211,
      "v": 92
    },
    {
      "midi": 40,
      "hit": false,
      "t": 163235.39750000148,
      "d": 126.05050000001211,
      "v": 95
    },
    {
      "midi": 41,
      "hit": false,
      "t": 163361.44799999986,
      "d": 394.9582333333383,
      "v": 117
    },
    {
      "midi": 69,
      "hit": false,
      "t": 163361.4480000001,
      "d": 84.03366666665534,
      "v": 117
    },
    {
      "midi": 40,
      "hit": false,
      "t": 163361.4480000015,
      "d": 126.05050000001211,
      "v": 111
    },
    {
      "midi": 65,
      "hit": false,
      "t": 163613.5490000001,
      "d": 1134.4544999999925,
      "v": 104
    },
    {
      "midi": 42,
      "hit": false,
      "t": 163613.54900000134,
      "d": 126.05050000001211,
      "v": 115
    },
    {
      "midi": 40,
      "hit": false,
      "t": 163613.5490000015,
      "d": 126.05050000001211,
      "v": 111
    },
    {
      "midi": 72,
      "hit": false,
      "t": 163865.6499999997,
      "d": 176.4707000000053,
      "v": 118
    },
    {
      "midi": 36,
      "hit": false,
      "t": 163865.64999999988,
      "d": 369.7481333333417,
      "v": 104
    },
    {
      "midi": 40,
      "hit": false,
      "t": 163865.65000000154,
      "d": 126.05050000001211,
      "v": 103
    },
    {
      "midi": 74,
      "hit": false,
      "t": 163991.70049999972,
      "d": 197.4791166666546,
      "v": 81
    },
    {
      "midi": 40,
      "hit": false,
      "t": 163991.70050000155,
      "d": 126.05050000001211,
      "v": 96
    },
    {
      "midi": 75,
      "hit": false,
      "t": 164117.7509999997,
      "d": 168.06733333333977,
      "v": 115
    },
    {
      "midi": 42,
      "hit": false,
      "t": 164117.75100000136,
      "d": 126.05050000001211,
      "v": 103
    },
    {
      "midi": 40,
      "hit": false,
      "t": 164117.75100000156,
      "d": 126.05050000001211,
      "v": 104
    },
    {
      "midi": 76,
      "hit": false,
      "t": 164243.8014999997,
      "d": 184.87406666664174,
      "v": 105
    },
    {
      "midi": 40,
      "hit": false,
      "t": 164243.80150000157,
      "d": 126.05050000001211,
      "v": 96
    },
    {
      "midi": 77,
      "hit": false,
      "t": 164369.8519999997,
      "d": 105.04208333333372,
      "v": 127
    },
    {
      "midi": 41,
      "hit": false,
      "t": 164369.8519999999,
      "d": 201.6808000000019,
      "v": 111
    },
    {
      "midi": 40,
      "hit": false,
      "t": 164369.85200000159,
      "d": 126.05050000001211,
      "v": 113
    },
    {
      "midi": 42,
      "hit": false,
      "t": 164621.95300000138,
      "d": 126.05050000001211,
      "v": 114
    },
    {
      "midi": 53,
      "hit": false,
      "t": 164634.55804999976,
      "d": 71.42861666667159,
      "v": 114
    },
    {
      "midi": 53,
      "hit": false,
      "t": 164634.55805000008,
      "d": 71.42861666667159,
      "v": 114
    },
    {
      "midi": 53,
      "hit": false,
      "t": 164634.5580500001,
      "d": 71.42861666667159,
      "v": 114
    },
    {
      "midi": 65,
      "hit": false,
      "t": 164655.56646666644,
      "d": 71.42861666667159,
      "v": 115
    },
    {
      "midi": 65,
      "hit": false,
      "t": 164655.56646666676,
      "d": 71.42861666667159,
      "v": 115
    },
    {
      "midi": 65,
      "hit": false,
      "t": 164655.5664666668,
      "d": 71.42861666667159,
      "v": 115
    },
    {
      "midi": 53,
      "hit": false,
      "t": 164760.60854999977,
      "d": 50.420200000022305,
      "v": 70
    },
    {
      "midi": 53,
      "hit": false,
      "t": 164760.6085500001,
      "d": 50.420200000022305,
      "v": 70
    },
    {
      "midi": 53,
      "hit": false,
      "t": 164760.60855000012,
      "d": 50.420200000022305,
      "v": 80
    },
    {
      "midi": 65,
      "hit": false,
      "t": 164781.61696666645,
      "d": 54.62188333334052,
      "v": 72
    },
    {
      "midi": 65,
      "hit": false,
      "t": 164781.61696666677,
      "d": 54.62188333334052,
      "v": 72
    },
    {
      "midi": 65,
      "hit": false,
      "t": 164781.6169666668,
      "d": 54.62188333334052,
      "v": 81
    },
    {
      "midi": 57,
      "hit": false,
      "t": 164874.0539999998,
      "d": 71.42861666667159,
      "v": 103
    },
    {
      "midi": 57,
      "hit": false,
      "t": 164874.05400000012,
      "d": 71.42861666667159,
      "v": 103
    },
    {
      "midi": 57,
      "hit": false,
      "t": 164874.05400000015,
      "d": 71.42861666667159,
      "v": 103
    },
    {
      "midi": 69,
      "hit": false,
      "t": 164895.06241666648,
      "d": 50.4201999999932,
      "v": 103
    },
    {
      "midi": 69,
      "hit": false,
      "t": 164895.0624166668,
      "d": 50.4201999999932,
      "v": 103
    },
    {
      "midi": 69,
      "hit": false,
      "t": 164895.06241666683,
      "d": 50.4201999999932,
      "v": 103
    },
    {
      "midi": 60,
      "hit": false,
      "t": 165126.1549999998,
      "d": 71.42861666667159,
      "v": 117
    },
    {
      "midi": 60,
      "hit": false,
      "t": 165126.15500000012,
      "d": 71.42861666667159,
      "v": 117
    },
    {
      "midi": 60,
      "hit": false,
      "t": 165126.15500000014,
      "d": 71.42861666667159,
      "v": 117
    },
    {
      "midi": 42,
      "hit": false,
      "t": 165126.1550000014,
      "d": 126.05050000001211,
      "v": 105
    },
    {
      "midi": 72,
      "hit": false,
      "t": 165147.16341666647,
      "d": 50.4201999999932,
      "v": 117
    },
    {
      "midi": 72,
      "hit": false,
      "t": 165147.1634166668,
      "d": 50.4201999999932,
      "v": 117
    },
    {
      "midi": 72,
      "hit": false,
      "t": 165147.16341666682,
      "d": 50.4201999999932,
      "v": 117
    },
    {
      "midi": 62,
      "hit": false,
      "t": 165378.2559999998,
      "d": 58.82356666668784,
      "v": 122
    },
    {
      "midi": 34,
      "hit": false,
      "t": 165378.2559999999,
      "d": 336.13466666667955,
      "v": 116
    },
    {
      "midi": 62,
      "hit": false,
      "t": 165378.2560000001,
      "d": 58.82356666668784,
      "v": 122
    },
    {
      "midi": 62,
      "hit": false,
      "t": 165378.25600000014,
      "d": 58.82356666668784,
      "v": 122
    },
    {
      "midi": 38,
      "hit": false,
      "t": 165378.25600000023,
      "d": 126.05050000001211,
      "v": 104
    },
    {
      "midi": 35,
      "hit": false,
      "t": 165378.25600000023,
      "d": 126.05050000001211,
      "v": 100
    },
    {
      "midi": 40,
      "hit": false,
      "t": 165378.2560000016,
      "d": 126.05050000001211,
      "v": 117
    },
    {
      "midi": 74,
      "hit": false,
      "t": 165399.26441666647,
      "d": 50.420200000022305,
      "v": 122
    },
    {
      "midi": 74,
      "hit": false,
      "t": 165399.2644166668,
      "d": 50.420200000022305,
      "v": 122
    },
    {
      "midi": 74,
      "hit": false,
      "t": 165399.26441666682,
      "d": 50.420200000022305,
      "v": 122
    },
    {
      "midi": 58,
      "hit": false,
      "t": 165630.3569999998,
      "d": 46.21851666667499,
      "v": 112
    },
    {
      "midi": 58,
      "hit": false,
      "t": 165630.35700000013,
      "d": 46.21851666667499,
      "v": 112
    },
    {
      "midi": 58,
      "hit": false,
      "t": 165630.35700000016,
      "d": 46.21851666667499,
      "v": 112
    },
    {
      "midi": 38,
      "hit": false,
      "t": 165630.35700000025,
      "d": 126.05050000001211,
      "v": 104
    },
    {
      "midi": 42,
      "hit": false,
      "t": 165630.35700000142,
      "d": 126.05050000001211,
      "v": 116
    },
    {
      "midi": 40,
      "hit": false,
      "t": 165630.35700000162,
      "d": 126.05050000001211,
      "v": 118
    },
    {
      "midi": 70,
      "hit": false,
      "t": 165651.3654166665,
      "d": 37.81515000000945,
      "v": 112
    },
    {
      "midi": 70,
      "hit": false,
      "t": 165651.3654166668,
      "d": 37.81515000000945,
      "v": 112
    },
    {
      "midi": 70,
      "hit": false,
      "t": 165651.36541666684,
      "d": 37.81515000000945,
      "v": 112
    },
    {
      "midi": 53,
      "hit": false,
      "t": 165882.45799999984,
      "d": 260.50436666668975,
      "v": 108
    },
    {
      "midi": 38,
      "hit": false,
      "t": 165882.45799999993,
      "d": 344.5380333333451,
      "v": 105
    },
    {
      "midi": 53,
      "hit": false,
      "t": 165882.45800000016,
      "d": 243.69763333335868,
      "v": 108
    },
    {
      "midi": 53,
      "hit": false,
      "t": 165882.4580000002,
      "d": 243.69763333335868,
      "v": 108
    },
    {
      "midi": 35,
      "hit": false,
      "t": 165882.45800000028,
      "d": 126.05050000001211,
      "v": 100
    },
    {
      "midi": 38,
      "hit": false,
      "t": 165882.45800000028,
      "d": 126.05050000001211,
      "v": 104
    },
    {
      "midi": 40,
      "hit": false,
      "t": 165882.45800000164,
      "d": 126.05050000001211,
      "v": 118
    },
    {
      "midi": 25,
      "hit": false,
      "t": 165882.45800000164,
      "d": 495.7986333333538,
      "v": 118
    },
    {
      "midi": 65,
      "hit": false,
      "t": 165903.46641666652,
      "d": 285.71446666668635,
      "v": 108
    },
    {
      "midi": 65,
      "hit": false,
      "t": 165903.46641666684,
      "d": 235.29426666669315,
      "v": 108
    },
    {
      "midi": 65,
      "hit": false,
      "t": 165903.46641666687,
      "d": 247.8993166666769,
      "v": 108
    },
    {
      "midi": 42,
      "hit": false,
      "t": 166134.55900000143,
      "d": 126.05050000001211,
      "v": 104
    },
    {
      "midi": 62,
      "hit": false,
      "t": 166260.60949999987,
      "d": 50.420200000022305,
      "v": 122
    },
    {
      "midi": 62,
      "hit": false,
      "t": 166260.6095000002,
      "d": 50.420200000022305,
      "v": 122
    },
    {
      "midi": 62,
      "hit": false,
      "t": 166260.60950000022,
      "d": 50.420200000022305,
      "v": 122
    },
    {
      "midi": 74,
      "hit": false,
      "t": 166281.61791666655,
      "d": 54.62188333334052,
      "v": 122
    },
    {
      "midi": 74,
      "hit": false,
      "t": 166281.61791666687,
      "d": 54.62188333334052,
      "v": 122
    },
    {
      "midi": 74,
      "hit": false,
      "t": 166281.6179166669,
      "d": 54.62188333334052,
      "v": 122
    },
    {
      "midi": 60,
      "hit": false,
      "t": 166386.6599999999,
      "d": 46.21851666667499,
      "v": 112
    },
    {
      "midi": 41,
      "hit": false,
      "t": 166386.65999999995,
      "d": 323.5296166666667,
      "v": 116
    },
    {
      "midi": 60,
      "hit": false,
      "t": 166386.6600000002,
      "d": 46.21851666667499,
      "v": 112
    },
    {
      "midi": 60,
      "hit": false,
      "t": 166386.66000000024,
      "d": 46.21851666667499,
      "v": 112
    },
    {
      "midi": 35,
      "hit": false,
      "t": 166386.6600000003,
      "d": 126.05050000001211,
      "v": 100
    },
    {
      "midi": 38,
      "hit": false,
      "t": 166386.6600000003,
      "d": 126.05050000001211,
      "v": 106
    },
    {
      "midi": 40,
      "hit": false,
      "t": 166386.66000000166,
      "d": 126.05050000001211,
      "v": 118
    },
    {
      "midi": 72,
      "hit": false,
      "t": 166407.66841666657,
      "d": 50.4201999999932,
      "v": 112
    },
    {
      "midi": 72,
      "hit": false,
      "t": 166407.6684166669,
      "d": 50.4201999999932,
      "v": 112
    },
    {
      "midi": 72,
      "hit": false,
      "t": 166407.66841666691,
      "d": 50.4201999999932,
      "v": 112
    },
    {
      "midi": 57,
      "hit": false,
      "t": 166638.76099999988,
      "d": 58.82356666668784,
      "v": 105
    },
    {
      "midi": 57,
      "hit": false,
      "t": 166638.7610000002,
      "d": 58.82356666668784,
      "v": 105
    },
    {
      "midi": 57,
      "hit": false,
      "t": 166638.76100000023,
      "d": 58.82356666668784,
      "v": 105
    },
    {
      "midi": 38,
      "hit": false,
      "t": 166638.76100000032,
      "d": 126.05050000001211,
      "v": 106
    },
    {
      "midi": 42,
      "hit": false,
      "t": 166638.76100000145,
      "d": 126.05050000001211,
      "v": 114
    },
    {
      "midi": 40,
      "hit": false,
      "t": 166638.7610000017,
      "d": 126.05050000001211,
      "v": 117
    },
    {
      "midi": 69,
      "hit": false,
      "t": 166659.76941666656,
      "d": 50.420200000022305,
      "v": 105
    },
    {
      "midi": 69,
      "hit": false,
      "t": 166659.76941666688,
      "d": 50.420200000022305,
      "v": 105
    },
    {
      "midi": 69,
      "hit": false,
      "t": 166659.7694166669,
      "d": 50.420200000022305,
      "v": 105
    },
    {
      "midi": 53,
      "hit": false,
      "t": 166890.8619999999,
      "d": 331.93298333333223,
      "v": 117
    },
    {
      "midi": 36,
      "hit": false,
      "t": 166890.86199999994,
      "d": 252.1009999999951,
      "v": 103
    },
    {
      "midi": 53,
      "hit": false,
      "t": 166890.86200000023,
      "d": 306.72288333333563,
      "v": 117
    },
    {
      "midi": 53,
      "hit": false,
      "t": 166890.86200000026,
      "d": 281.51278333333903,
      "v": 117
    },
    {
      "midi": 35,
      "hit": false,
      "t": 166890.86200000034,
      "d": 126.05050000001211,
      "v": 100
    },
    {
      "midi": 38,
      "hit": false,
      "t": 166890.86200000034,
      "d": 126.05050000001211,
      "v": 106
    },
    {
      "midi": 40,
      "hit": false,
      "t": 166890.8620000017,
      "d": 126.05050000001211,
      "v": 119
    },
    {
      "midi": 25,
      "hit": false,
      "t": 166890.8620000017,
      "d": 483.19358333334094,
      "v": 119
    },
    {
      "midi": 65,
      "hit": false,
      "t": 166911.87041666658,
      "d": 331.93298333333223,
      "v": 117
    },
    {
      "midi": 65,
      "hit": false,
      "t": 166911.8704166669,
      "d": 298.3195166666701,
      "v": 117
    },
    {
      "midi": 65,
      "hit": false,
      "t": 166911.87041666693,
      "d": 298.3195166666701,
      "v": 117
    },
    {
      "midi": 42,
      "hit": false,
      "t": 167142.96300000147,
      "d": 126.05050000001211,
      "v": 102
    },
    {
      "midi": 53,
      "hit": false,
      "t": 167269.0134999999,
      "d": 92.43703333334997,
      "v": 90
    },
    {
      "midi": 53,
      "hit": false,
      "t": 167269.01350000023,
      "d": 92.43703333334997,
      "v": 90
    },
    {
      "midi": 53,
      "hit": false,
      "t": 167269.01350000026,
      "d": 92.43703333334997,
      "v": 90
    },
    {
      "midi": 65,
      "hit": false,
      "t": 167290.0219166666,
      "d": 92.43703333334997,
      "v": 90
    },
    {
      "midi": 65,
      "hit": false,
      "t": 167290.0219166669,
      "d": 92.43703333334997,
      "v": 90
    },
    {
      "midi": 65,
      "hit": false,
      "t": 167290.02191666694,
      "d": 92.43703333334997,
      "v": 90
    },
    {
      "midi": 43,
      "hit": false,
      "t": 167395.06399999993,
      "d": 344.5380333333451,
      "v": 114
    },
    {
      "midi": 55,
      "hit": false,
      "t": 167395.06399999995,
      "d": 71.42861666667159,
      "v": 113
    },
    {
      "midi": 55,
      "hit": false,
      "t": 167395.06400000027,
      "d": 71.42861666667159,
      "v": 113
    },
    {
      "midi": 55,
      "hit": false,
      "t": 167395.0640000003,
      "d": 71.42861666667159,
      "v": 113
    },
    {
      "midi": 35,
      "hit": false,
      "t": 167395.06400000036,
      "d": 126.05050000001211,
      "v": 100
    },
    {
      "midi": 40,
      "hit": false,
      "t": 167395.06400000173,
      "d": 126.05050000001211,
      "v": 117
    },
    {
      "midi": 67,
      "hit": false,
      "t": 167416.07241666663,
      "d": 50.4201999999932,
      "v": 113
    },
    {
      "midi": 67,
      "hit": false,
      "t": 167416.07241666695,
      "d": 50.4201999999932,
      "v": 113
    },
    {
      "midi": 67,
      "hit": false,
      "t": 167416.07241666698,
      "d": 50.4201999999932,
      "v": 113
    },
    {
      "midi": 55,
      "hit": false,
      "t": 167647.16499999995,
      "d": 71.42861666667159,
      "v": 99
    },
    {
      "midi": 55,
      "hit": false,
      "t": 167647.16500000027,
      "d": 71.42861666667159,
      "v": 99
    },
    {
      "midi": 55,
      "hit": false,
      "t": 167647.1650000003,
      "d": 71.42861666667159,
      "v": 99
    },
    {
      "midi": 42,
      "hit": false,
      "t": 167647.1650000015,
      "d": 126.05050000001211,
      "v": 113
    },
    {
      "midi": 40,
      "hit": false,
      "t": 167647.16500000175,
      "d": 126.05050000001211,
      "v": 117
    },
    {
      "midi": 67,
      "hit": false,
      "t": 167668.17341666663,
      "d": 50.4201999999932,
      "v": 99
    },
    {
      "midi": 67,
      "hit": false,
      "t": 167668.17341666695,
      "d": 50.4201999999932,
      "v": 99
    },
    {
      "midi": 67,
      "hit": false,
      "t": 167668.17341666698,
      "d": 50.4201999999932,
      "v": 99
    },
    {
      "midi": 58,
      "hit": false,
      "t": 167899.26599999995,
      "d": 58.82356666668784,
      "v": 114
    },
    {
      "midi": 38,
      "hit": false,
      "t": 167899.26599999995,
      "d": 336.13466666667955,
      "v": 101
    },
    {
      "midi": 58,
      "hit": false,
      "t": 167899.26600000027,
      "d": 58.82356666668784,
      "v": 114
    },
    {
      "midi": 58,
      "hit": false,
      "t": 167899.2660000003,
      "d": 58.82356666668784,
      "v": 114
    },
    {
      "midi": 35,
      "hit": false,
      "t": 167899.26600000038,
      "d": 126.05050000001211,
      "v": 100
    },
    {
      "midi": 40,
      "hit": false,
      "t": 167899.26600000178,
      "d": 126.05050000001211,
      "v": 105
    },
    {
      "midi": 70,
      "hit": false,
      "t": 167920.27441666662,
      "d": 50.420200000022305,
      "v": 114
    },
    {
      "midi": 70,
      "hit": false,
      "t": 167920.27441666694,
      "d": 50.420200000022305,
      "v": 114
    },
    {
      "midi": 70,
      "hit": false,
      "t": 167920.27441666697,
      "d": 50.420200000022305,
      "v": 114
    },
    {
      "midi": 40,
      "hit": false,
      "t": 168025.3165000018,
      "d": 126.05050000001211,
      "v": 99
    },
    {
      "midi": 60,
      "hit": false,
      "t": 168151.36699999997,
      "d": 71.42861666667159,
      "v": 108
    },
    {
      "midi": 60,
      "hit": false,
      "t": 168151.3670000003,
      "d": 71.42861666667159,
      "v": 108
    },
    {
      "midi": 60,
      "hit": false,
      "t": 168151.36700000032,
      "d": 71.42861666667159,
      "v": 108
    },
    {
      "midi": 42,
      "hit": false,
      "t": 168151.3670000015,
      "d": 126.05050000001211,
      "v": 103
    },
    {
      "midi": 40,
      "hit": false,
      "t": 168151.3670000018,
      "d": 126.05050000001211,
      "v": 105
    },
    {
      "midi": 72,
      "hit": false,
      "t": 168172.37541666665,
      "d": 63.025250000006054,
      "v": 108
    },
    {
      "midi": 72,
      "hit": false,
      "t": 168172.37541666697,
      "d": 63.025250000006054,
      "v": 108
    },
    {
      "midi": 72,
      "hit": false,
      "t": 168172.375416667,
      "d": 63.025250000006054,
      "v": 108
    },
    {
      "midi": 40,
      "hit": false,
      "t": 168277.41750000181,
      "d": 126.05050000001211,
      "v": 100
    },
    {
      "midi": 43,
      "hit": false,
      "t": 168403.46799999996,
      "d": 168.06733333333977,
      "v": 113
    },
    {
      "midi": 62,
      "hit": false,
      "t": 168403.468,
      "d": 58.82356666668784,
      "v": 122
    },
    {
      "midi": 62,
      "hit": false,
      "t": 168403.4680000003,
      "d": 58.82356666668784,
      "v": 122
    },
    {
      "midi": 62,
      "hit": false,
      "t": 168403.46800000034,
      "d": 58.82356666668784,
      "v": 122
    },
    {
      "midi": 35,
      "hit": false,
      "t": 168403.4680000004,
      "d": 126.05050000001211,
      "v": 100
    },
    {
      "midi": 40,
      "hit": false,
      "t": 168403.46800000183,
      "d": 126.05050000001211,
      "v": 119
    },
    {
      "midi": 74,
      "hit": false,
      "t": 168424.47641666667,
      "d": 50.420200000022305,
      "v": 122
    },
    {
      "midi": 74,
      "hit": false,
      "t": 168424.476416667,
      "d": 50.420200000022305,
      "v": 122
    },
    {
      "midi": 74,
      "hit": false,
      "t": 168424.47641666702,
      "d": 50.420200000022305,
      "v": 122
    },
    {
      "midi": 42,
      "hit": false,
      "t": 168655.56900000153,
      "d": 126.05050000001211,
      "v": 111
    },
    {
      "midi": 36,
      "hit": false,
      "t": 168907.66999999984,
      "d": 126.05050000001211,
      "v": 96
    },
    {
      "midi": 36,
      "hit": false,
      "t": 168907.66999999998,
      "d": 176.4707000000053,
      "v": 113
    },
    {
      "midi": 64,
      "hit": false,
      "t": 168907.67000000004,
      "d": 92.43703333334997,
      "v": 120
    },
    {
      "midi": 64,
      "hit": false,
      "t": 168907.67000000036,
      "d": 92.43703333334997,
      "v": 120
    },
    {
      "midi": 64,
      "hit": false,
      "t": 168907.6700000004,
      "d": 92.43703333334997,
      "v": 120
    },
    {
      "midi": 35,
      "hit": false,
      "t": 168907.67000000042,
      "d": 63.025250000006054,
      "v": 126
    },
    {
      "midi": 38,
      "hit": false,
      "t": 168907.67000000042,
      "d": 126.05050000001211,
      "v": 126
    },
    {
      "midi": 76,
      "hit": false,
      "t": 168928.67841666672,
      "d": 84.03366666668444,
      "v": 120
    },
    {
      "midi": 76,
      "hit": false,
      "t": 168928.67841666704,
      "d": 84.03366666668444,
      "v": 120
    },
    {
      "midi": 76,
      "hit": false,
      "t": 168928.67841666707,
      "d": 84.03366666668444,
      "v": 120
    },
    {
      "midi": 36,
      "hit": false,
      "t": 169285.82149999985,
      "d": 84.03366666665534,
      "v": 87
    },
    {
      "midi": 36,
      "hit": false,
      "t": 169285.8215,
      "d": 100.8403999999864,
      "v": 98
    },
    {
      "midi": 64,
      "hit": false,
      "t": 169285.82150000008,
      "d": 92.43703333334997,
      "v": 102
    },
    {
      "midi": 64,
      "hit": false,
      "t": 169285.8215000004,
      "d": 92.43703333334997,
      "v": 102
    },
    {
      "midi": 64,
      "hit": false,
      "t": 169285.82150000043,
      "d": 92.43703333334997,
      "v": 102
    },
    {
      "midi": 76,
      "hit": false,
      "t": 169306.82991666676,
      "d": 92.43703333334997,
      "v": 102
    },
    {
      "midi": 76,
      "hit": false,
      "t": 169306.82991666708,
      "d": 92.43703333334997,
      "v": 102
    },
    {
      "midi": 76,
      "hit": false,
      "t": 169306.8299166671,
      "d": 92.43703333334997,
      "v": 102
    },
    {
      "midi": 77,
      "hit": false,
      "t": 169411.87199999968,
      "d": 168.06733333333977,
      "v": 36
    },
    {
      "midi": 65,
      "hit": false,
      "t": 169411.87199999968,
      "d": 168.06733333333977,
      "v": 36
    },
    {
      "midi": 65,
      "hit": false,
      "t": 169411.87199999974,
      "d": 168.06733333333977,
      "v": 51
    },
    {
      "midi": 77,
      "hit": false,
      "t": 169411.87199999974,
      "d": 168.06733333333977,
      "v": 51
    },
    {
      "midi": 40,
      "hit": false,
      "t": 169411.87199999983,
      "d": 126.05050000001211,
      "v": 105
    },
    {
      "midi": 41,
      "hit": false,
      "t": 169411.87199999983,
      "d": 252.10100000002421,
      "v": 105
    },
    {
      "midi": 41,
      "hit": false,
      "t": 169411.87199999997,
      "d": 147.0589166666614,
      "v": 119
    },
    {
      "midi": 65,
      "hit": false,
      "t": 169411.87200000012,
      "d": 2100.8416666672274,
      "v": 127
    },
    {
      "midi": 65,
      "hit": false,
      "t": 169411.87200000044,
      "d": 2100.8416666672274,
      "v": 127
    },
    {
      "midi": 35,
      "hit": false,
      "t": 169411.87200000044,
      "d": 126.05050000001211,
      "v": 100
    },
    {
      "midi": 65,
      "hit": false,
      "t": 169411.87200000047,
      "d": 2100.8416666672274,
      "v": 127
    },
    {
      "midi": 77,
      "hit": false,
      "t": 169411.87200000059,
      "d": 168.06733333333977,
      "v": 68
    },
    {
      "midi": 46,
      "hit": false,
      "t": 169411.87200000155,
      "d": 420.1683333333349,
      "v": 121
    },
    {
      "midi": 40,
      "hit": false,
      "t": 169411.87200000184,
      "d": 126.05050000001211,
      "v": 113
    },
    {
      "midi": 77,
      "hit": false,
      "t": 169432.8804166668,
      "d": 2121.8500833338767,
      "v": 127
    },
    {
      "midi": 77,
      "hit": false,
      "t": 169432.88041666712,
      "d": 2121.8500833338767,
      "v": 127
    },
    {
      "midi": 77,
      "hit": false,
      "t": 169432.88041666715,
      "d": 2121.8500833338767,
      "v": 127
    },
    {
      "midi": 76,
      "hit": false,
      "t": 169537.9224999997,
      "d": 172.269016666658,
      "v": 42
    },
    {
      "midi": 64,
      "hit": false,
      "t": 169537.9224999997,
      "d": 172.269016666658,
      "v": 42
    },
    {
      "midi": 64,
      "hit": false,
      "t": 169537.92249999975,
      "d": 172.269016666658,
      "v": 42
    },
    {
      "midi": 76,
      "hit": false,
      "t": 169537.92249999975,
      "d": 172.269016666658,
      "v": 42
    },
    {
      "midi": 76,
      "hit": false,
      "t": 169537.9225000006,
      "d": 172.269016666658,
      "v": 53
    },
    {
      "midi": 77,
      "hit": false,
      "t": 169663.97299999968,
      "d": 155.46228333335603,
      "v": 67
    },
    {
      "midi": 65,
      "hit": false,
      "t": 169663.97299999968,
      "d": 155.46228333335603,
      "v": 67
    },
    {
      "midi": 65,
      "hit": false,
      "t": 169663.97299999974,
      "d": 155.46228333335603,
      "v": 80
    },
    {
      "midi": 77,
      "hit": false,
      "t": 169663.97299999974,
      "d": 155.46228333335603,
      "v": 80
    },
    {
      "midi": 40,
      "hit": false,
      "t": 169663.97299999985,
      "d": 84.03366666668444,
      "v": 20
    },
    {
      "midi": 40,
      "hit": false,
      "t": 169663.97299999997,
      "d": 147.0589166666614,
      "v": 117
    },
    {
      "midi": 77,
      "hit": false,
      "t": 169663.97300000058,
      "d": 155.46228333335603,
      "v": 72
    },
    {
      "midi": 42,
      "hit": false,
      "t": 169663.97300000154,
      "d": 126.05050000001211,
      "v": 100
    },
    {
      "midi": 40,
      "hit": false,
      "t": 169663.97300000186,
      "d": 126.05050000001211,
      "v": 113
    },
    {
      "midi": 41,
      "hit": false,
      "t": 169710.19151666653,
      "d": 84.03366666668444,
      "v": 21
    },
    {
      "midi": 67,
      "hit": false,
      "t": 169790.0234999997,
      "d": 172.2690166666871,
      "v": 56
    },
    {
      "midi": 79,
      "hit": false,
      "t": 169790.0234999997,
      "d": 172.2690166666871,
      "v": 56
    },
    {
      "midi": 67,
      "hit": false,
      "t": 169790.02349999975,
      "d": 172.2690166666871,
      "v": 56
    },
    {
      "midi": 79,
      "hit": false,
      "t": 169790.02349999975,
      "d": 172.2690166666871,
      "v": 56
    },
    {
      "midi": 79,
      "hit": false,
      "t": 169790.0235000006,
      "d": 172.2690166666871,
      "v": 58
    },
    {
      "midi": 40,
      "hit": false,
      "t": 169832.04033333322,
      "d": 4.201683333347319,
      "v": 25
    },
    {
      "midi": 41,
      "hit": false,
      "t": 169878.2588499999,
      "d": 4.201683333347319,
      "v": 26
    },
    {
      "midi": 81,
      "hit": false,
      "t": 169916.0739999997,
      "d": 155.46228333335603,
      "v": 81
    },
    {
      "midi": 69,
      "hit": false,
      "t": 169916.0739999997,
      "d": 155.46228333335603,
      "v": 81
    },
    {
      "midi": 69,
      "hit": false,
      "t": 169916.07399999976,
      "d": 155.46228333335603,
      "v": 90
    },
    {
      "midi": 81,
      "hit": false,
      "t": 169916.07399999976,
      "d": 155.46228333335603,
      "v": 90
    },
    {
      "midi": 38,
      "hit": false,
      "t": 169916.07399999996,
      "d": 134.45386666667764,
      "v": 112
    },
    {
      "midi": 35,
      "hit": false,
      "t": 169916.07400000046,
      "d": 126.05050000001211,
      "v": 100
    },
    {
      "midi": 81,
      "hit": false,
      "t": 169916.0740000006,
      "d": 155.46228333335603,
      "v": 74
    },
    {
      "midi": 40,
      "hit": false,
      "t": 169916.07400000188,
      "d": 126.05050000001211,
      "v": 105
    },
    {
      "midi": 40,
      "hit": false,
      "t": 170000.1076666666,
      "d": 4.201683333347319,
      "v": 30
    },
    {
      "midi": 68,
      "hit": false,
      "t": 170042.1244999997,
      "d": 159.66396666667424,
      "v": 57
    },
    {
      "midi": 80,
      "hit": false,
      "t": 170042.1244999997,
      "d": 159.66396666667424,
      "v": 57
    },
    {
      "midi": 68,
      "hit": false,
      "t": 170042.12449999977,
      "d": 159.66396666667424,
      "v": 61
    },
    {
      "midi": 80,
      "hit": false,
      "t": 170042.12449999977,
      "d": 159.66396666667424,
      "v": 61
    },
    {
      "midi": 80,
      "hit": false,
      "t": 170042.12450000062,
      "d": 159.66396666667424,
      "v": 59
    },
    {
      "midi": 40,
      "hit": false,
      "t": 170042.1245000019,
      "d": 126.05050000001211,
      "v": 101
    },
    {
      "midi": 41,
      "hit": false,
      "t": 170046.32618333327,
      "d": 4.201683333347319,
      "v": 32
    },
    {
      "midi": 69,
      "hit": false,
      "t": 170168.17499999973,
      "d": 155.46228333332692,
      "v": 90
    },
    {
      "midi": 81,
      "hit": false,
      "t": 170168.17499999973,
      "d": 155.46228333332692,
      "v": 90
    },
    {
      "midi": 69,
      "hit": false,
      "t": 170168.17499999978,
      "d": 155.46228333332692,
      "v": 101
    },
    {
      "midi": 81,
      "hit": false,
      "t": 170168.17499999978,
      "d": 155.46228333332692,
      "v": 101
    },
    {
      "midi": 40,
      "hit": false,
      "t": 170168.17499999996,
      "d": 4.201683333347319,
      "v": 36
    },
    {
      "midi": 36,
      "hit": false,
      "t": 170168.175,
      "d": 134.45386666667764,
      "v": 110
    },
    {
      "midi": 81,
      "hit": false,
      "t": 170168.17500000063,
      "d": 155.46228333332692,
      "v": 77
    },
    {
      "midi": 42,
      "hit": false,
      "t": 170168.17500000156,
      "d": 126.05050000001211,
      "v": 114
    },
    {
      "midi": 40,
      "hit": false,
      "t": 170168.1750000019,
      "d": 126.05050000001211,
      "v": 107
    },
    {
      "midi": 41,
      "hit": false,
      "t": 170214.39351666663,
      "d": 4.201683333347319,
      "v": 37
    },
    {
      "midi": 70,
      "hit": false,
      "t": 170294.2254999997,
      "d": 172.2690166666871,
      "v": 61
    },
    {
      "midi": 82,
      "hit": false,
      "t": 170294.2254999997,
      "d": 172.2690166666871,
      "v": 61
    },
    {
      "midi": 70,
      "hit": false,
      "t": 170294.22549999977,
      "d": 172.2690166666871,
      "v": 71
    },
    {
      "midi": 82,
      "hit": false,
      "t": 170294.22549999977,
      "d": 172.2690166666871,
      "v": 71
    },
    {
      "midi": 82,
      "hit": false,
      "t": 170294.2255000006,
      "d": 172.2690166666871,
      "v": 63
    },
    {
      "midi": 40,
      "hit": false,
      "t": 170294.22550000192,
      "d": 126.05050000001211,
      "v": 101
    },
    {
      "midi": 40,
      "hit": false,
      "t": 170336.24233333333,
      "d": 4.201683333347319,
      "v": 41
    },
    {
      "midi": 41,
      "hit": false,
      "t": 170382.46085,
      "d": 4.201683333347319,
      "v": 42
    },
    {
      "midi": 72,
      "hit": false,
      "t": 170420.27599999972,
      "d": 155.46228333335603,
      "v": 100
    },
    {
      "midi": 84,
      "hit": false,
      "t": 170420.27599999972,
      "d": 155.46228333335603,
      "v": 100
    },
    {
      "midi": 72,
      "hit": false,
      "t": 170420.27599999978,
      "d": 155.46228333335603,
      "v": 104
    },
    {
      "midi": 84,
      "hit": false,
      "t": 170420.27599999978,
      "d": 155.46228333335603,
      "v": 104
    },
    {
      "midi": 41,
      "hit": false,
      "t": 170420.276,
      "d": 121.84881666666479,
      "v": 121
    },
    {
      "midi": 35,
      "hit": false,
      "t": 170420.27600000048,
      "d": 126.05050000001211,
      "v": 100
    },
    {
      "midi": 84,
      "hit": false,
      "t": 170420.27600000062,
      "d": 155.46228333335603,
      "v": 80
    },
    {
      "midi": 40,
      "hit": false,
      "t": 170420.27600000193,
      "d": 126.05050000001211,
      "v": 112
    },
    {
      "midi": 40,
      "hit": false,
      "t": 170504.3096666667,
      "d": 4.201683333347319,
      "v": 46
    },
    {
      "midi": 83,
      "hit": false,
      "t": 170546.32649999973,
      "d": 159.66396666667424,
      "v": 67
    },
    {
      "midi": 71,
      "hit": false,
      "t": 170546.32649999973,
      "d": 159.66396666667424,
      "v": 67
    },
    {
      "midi": 71,
      "hit": false,
      "t": 170546.3264999998,
      "d": 159.66396666667424,
      "v": 76
    },
    {
      "midi": 83,
      "hit": false,
      "t": 170546.3264999998,
      "d": 159.66396666667424,
      "v": 76
    },
    {
      "midi": 83,
      "hit": false,
      "t": 170546.32650000064,
      "d": 159.66396666667424,
      "v": 65
    },
    {
      "midi": 41,
      "hit": false,
      "t": 170550.52818333337,
      "d": 4.201683333347319,
      "v": 48
    },
    {
      "midi": 40,
      "hit": false,
      "t": 170584.14165000006,
      "d": 4.201683333347319,
      "v": 49
    },
    {
      "midi": 41,
      "hit": false,
      "t": 170630.36016666674,
      "d": 4.201683333347319,
      "v": 50
    },
    {
      "midi": 40,
      "hit": false,
      "t": 170663.97363333343,
      "d": 4.201683333347319,
      "v": 51
    },
    {
      "midi": 84,
      "hit": false,
      "t": 170672.37699999975,
      "d": 168.06733333331067,
      "v": 106
    },
    {
      "midi": 72,
      "hit": false,
      "t": 170672.37699999975,
      "d": 168.06733333331067,
      "v": 106
    },
    {
      "midi": 72,
      "hit": false,
      "t": 170672.3769999998,
      "d": 168.06733333331067,
      "v": 109
    },
    {
      "midi": 84,
      "hit": false,
      "t": 170672.3769999998,
      "d": 168.06733333331067,
      "v": 109
    },
    {
      "midi": 40,
      "hit": false,
      "t": 170672.377,
      "d": 121.84881666666479,
      "v": 117
    },
    {
      "midi": 84,
      "hit": false,
      "t": 170672.37700000065,
      "d": 168.06733333331067,
      "v": 83
    },
    {
      "midi": 42,
      "hit": false,
      "t": 170672.37700000158,
      "d": 126.05050000001211,
      "v": 102
    },
    {
      "midi": 40,
      "hit": false,
      "t": 170672.37700000196,
      "d": 126.05050000001211,
      "v": 114
    },
    {
      "midi": 41,
      "hit": false,
      "t": 170710.1921500001,
      "d": 4.201683333347319,
      "v": 53
    },
    {
      "midi": 85,
      "hit": false,
      "t": 170798.42749999973,
      "d": 184.87406666664174,
      "v": 74
    },
    {
      "midi": 73,
      "hit": false,
      "t": 170798.42749999973,
      "d": 184.87406666664174,
      "v": 74
    },
    {
      "midi": 73,
      "hit": false,
      "t": 170798.4274999998,
      "d": 184.87406666664174,
      "v": 80
    },
    {
      "midi": 85,
      "hit": false,
      "t": 170798.4274999998,
      "d": 184.87406666664174,
      "v": 80
    },
    {
      "midi": 85,
      "hit": false,
      "t": 170798.42750000063,
      "d": 184.87406666664174,
      "v": 68
    },
    {
      "midi": 40,
      "hit": false,
      "t": 170827.83928333348,
      "d": 8.403366666665534,
      "v": 57
    },
    {
      "midi": 41,
      "hit": false,
      "t": 170874.05780000016,
      "d": 8.403366666665534,
      "v": 58
    },
    {
      "midi": 40,
      "hit": false,
      "t": 170903.4695833335,
      "d": 8.403366666665534,
      "v": 59
    },
    {
      "midi": 74,
      "hit": false,
      "t": 170924.4779999997,
      "d": 168.06733333331067,
      "v": 111
    },
    {
      "midi": 86,
      "hit": false,
      "t": 170924.4779999997,
      "d": 168.06733333331067,
      "v": 111
    },
    {
      "midi": 74,
      "hit": false,
      "t": 170924.47799999977,
      "d": 168.06733333331067,
      "v": 117
    },
    {
      "midi": 86,
      "hit": false,
      "t": 170924.47799999977,
      "d": 168.06733333331067,
      "v": 117
    },
    {
      "midi": 38,
      "hit": false,
      "t": 170924.478,
      "d": 121.84881666666479,
      "v": 113
    },
    {
      "midi": 35,
      "hit": false,
      "t": 170924.4780000005,
      "d": 63.025250000006054,
      "v": 104
    },
    {
      "midi": 86,
      "hit": false,
      "t": 170924.4780000006,
      "d": 168.06733333331067,
      "v": 86
    },
    {
      "midi": 40,
      "hit": false,
      "t": 170924.47800000198,
      "d": 126.05050000001211,
      "v": 104
    },
    {
      "midi": 41,
      "hit": false,
      "t": 170949.68810000017,
      "d": 8.403366666665534,
      "v": 60
    },
    {
      "midi": 85,
      "hit": false,
      "t": 171050.5284999997,
      "d": 147.0589166666614,
      "v": 76
    },
    {
      "midi": 73,
      "hit": false,
      "t": 171050.5284999997,
      "d": 147.0589166666614,
      "v": 76
    },
    {
      "midi": 73,
      "hit": false,
      "t": 171050.52849999975,
      "d": 147.0589166666614,
      "v": 83
    },
    {
      "midi": 85,
      "hit": false,
      "t": 171050.52849999975,
      "d": 147.0589166666614,
      "v": 83
    },
    {
      "midi": 85,
      "hit": false,
      "t": 171050.5285000006,
      "d": 147.0589166666614,
      "v": 71
    },
    {
      "midi": 40,
      "hit": false,
      "t": 171050.528500002,
      "d": 126.05050000001211,
      "v": 99
    },
    {
      "midi": 40,
      "hit": false,
      "t": 171071.53691666687,
      "d": 8.403366666665534,
      "v": 64
    },
    {
      "midi": 41,
      "hit": false,
      "t": 171117.75543333354,
      "d": 8.403366666665534,
      "v": 65
    },
    {
      "midi": 75,
      "hit": false,
      "t": 171176.57899999968,
      "d": 147.0589166666905,
      "v": 115
    },
    {
      "midi": 87,
      "hit": false,
      "t": 171176.57899999968,
      "d": 147.0589166666905,
      "v": 115
    },
    {
      "midi": 75,
      "hit": false,
      "t": 171176.57899999974,
      "d": 147.0589166666905,
      "v": 120
    },
    {
      "midi": 87,
      "hit": false,
      "t": 171176.57899999974,
      "d": 147.0589166666905,
      "v": 120
    },
    {
      "midi": 36,
      "hit": false,
      "t": 171176.579,
      "d": 121.84881666666479,
      "v": 109
    },
    {
      "midi": 87,
      "hit": false,
      "t": 171176.57900000058,
      "d": 147.0589166666905,
      "v": 91
    },
    {
      "midi": 42,
      "hit": false,
      "t": 171176.5790000016,
      "d": 126.05050000001211,
      "v": 114
    },
    {
      "midi": 40,
      "hit": false,
      "t": 171176.579000002,
      "d": 126.05050000001211,
      "v": 106
    },
    {
      "midi": 40,
      "hit": false,
      "t": 171243.80593333356,
      "d": 4.201683333347319,
      "v": 69
    },
    {
      "midi": 41,
      "hit": false,
      "t": 171290.02445000023,
      "d": 4.201683333347319,
      "v": 71
    },
    {
      "midi": 76,
      "hit": false,
      "t": 171302.6294999997,
      "d": 147.0589166666905,
      "v": 84
    },
    {
      "midi": 88,
      "hit": false,
      "t": 171302.6294999997,
      "d": 147.0589166666905,
      "v": 84
    },
    {
      "midi": 76,
      "hit": false,
      "t": 171302.62949999975,
      "d": 147.0589166666905,
      "v": 123
    },
    {
      "midi": 88,
      "hit": false,
      "t": 171302.62949999975,
      "d": 147.0589166666905,
      "v": 123
    },
    {
      "midi": 88,
      "hit": false,
      "t": 171302.6295000006,
      "d": 147.0589166666905,
      "v": 71
    },
    {
      "midi": 40,
      "hit": false,
      "t": 171302.62950000202,
      "d": 126.05050000001211,
      "v": 99
    },
    {
      "midi": 40,
      "hit": false,
      "t": 171332.0412833336,
      "d": 84.03366666668444,
      "v": 72
    },
    {
      "midi": 77,
      "hit": false,
      "t": 171428.6799999997,
      "d": 117.64713333334657,
      "v": 122
    },
    {
      "midi": 89,
      "hit": false,
      "t": 171428.6799999997,
      "d": 117.64713333334657,
      "v": 122
    },
    {
      "midi": 77,
      "hit": false,
      "t": 171428.67999999976,
      "d": 117.64713333334657,
      "v": 124
    },
    {
      "midi": 89,
      "hit": false,
      "t": 171428.67999999976,
      "d": 117.64713333334657,
      "v": 124
    },
    {
      "midi": 41,
      "hit": false,
      "t": 171428.68,
      "d": 126.05050000001211,
      "v": 118
    },
    {
      "midi": 41,
      "hit": false,
      "t": 171428.68000000028,
      "d": 33.613466666662134,
      "v": 110
    },
    {
      "midi": 35,
      "hit": false,
      "t": 171428.68000000052,
      "d": 63.025250000006054,
      "v": 100
    },
    {
      "midi": 89,
      "hit": false,
      "t": 171428.6800000006,
      "d": 117.64713333334657,
      "v": 97
    },
    {
      "midi": 40,
      "hit": false,
      "t": 171428.68000000203,
      "d": 126.05050000001211,
      "v": 116
    },
    {
      "midi": 38,
      "hit": false,
      "t": 171932.88200000054,
      "d": 63.025250000006054,
      "v": 126
    },
    {
      "midi": 78,
      "hit": false,
      "t": 171932.88200000068,
      "d": 84.03366666665534,
      "v": 110
    },
    {
      "midi": 66,
      "hit": false,
      "t": 171932.88200000068,
      "d": 84.03366666665534,
      "v": 110
    },
    {
      "midi": 78,
      "hit": false,
      "t": 171932.882000001,
      "d": 84.03366666665534,
      "v": 110
    },
    {
      "midi": 66,
      "hit": false,
      "t": 171932.882000001,
      "d": 84.03366666665534,
      "v": 110
    },
    {
      "midi": 78,
      "hit": false,
      "t": 171932.88200000103,
      "d": 84.03366666665534,
      "v": 110
    },
    {
      "midi": 66,
      "hit": false,
      "t": 171932.88200000103,
      "d": 84.03366666665534,
      "v": 110
    },
    {
      "midi": 35,
      "hit": false,
      "t": 171941.2853666672,
      "d": 63.025250000006054,
      "v": 100
    },
    {
      "midi": 72,
      "hit": false,
      "t": 172437.0839999997,
      "d": 1474.7908500002231,
      "v": 120
    },
    {
      "midi": 60,
      "hit": false,
      "t": 172437.0839999997,
      "d": 1474.7908500002231,
      "v": 120
    },
    {
      "midi": 72,
      "hit": false,
      "t": 172437.08399999977,
      "d": 1474.7908500002231,
      "v": 116
    },
    {
      "midi": 60,
      "hit": false,
      "t": 172437.08399999977,
      "d": 1487.395900000236,
      "v": 116
    },
    {
      "midi": 49,
      "hit": false,
      "t": 172437.084,
      "d": 63.025250000006054,
      "v": 127
    },
    {
      "midi": 29,
      "hit": false,
      "t": 172437.084,
      "d": 1386.5554999999877,
      "v": 125
    },
    {
      "midi": 41,
      "hit": false,
      "t": 172437.08400000026,
      "d": 147.0589166666614,
      "v": 122
    },
    {
      "midi": 38,
      "hit": false,
      "t": 172437.08400000056,
      "d": 63.025250000006054,
      "v": 127
    },
    {
      "midi": 79,
      "hit": false,
      "t": 172437.08400000067,
      "d": 1533.614416667173,
      "v": 127
    },
    {
      "midi": 67,
      "hit": false,
      "t": 172437.08400000067,
      "d": 1533.614416667173,
      "v": 127
    },
    {
      "midi": 79,
      "hit": false,
      "t": 172437.084000001,
      "d": 1533.614416667173,
      "v": 127
    },
    {
      "midi": 67,
      "hit": false,
      "t": 172437.084000001,
      "d": 1533.614416667173,
      "v": 127
    },
    {
      "midi": 79,
      "hit": false,
      "t": 172437.08400000102,
      "d": 1533.614416667173,
      "v": 127
    },
    {
      "midi": 67,
      "hit": false,
      "t": 172437.08400000102,
      "d": 1533.614416667173,
      "v": 127
    },
    {
      "midi": 35,
      "hit": false,
      "t": 172445.48736666722,
      "d": 63.025250000006054,
      "v": 100
    },
    {
      "midi": 49,
      "hit": false,
      "t": 173210.19373333335,
      "d": 63.025250000006054,
      "v": 54
    },
    {
      "midi": 49,
      "hit": false,
      "t": 173332.04255,
      "d": 4.201683333347319,
      "v": 57
    },
    {
      "midi": 49,
      "hit": false,
      "t": 173453.89136666668,
      "d": 4.201683333347319,
      "v": 60
    },
    {
      "midi": 49,
      "hit": false,
      "t": 173516.91661666668,
      "d": 63.025250000006054,
      "v": 62
    },
    {
      "midi": 49,
      "hit": false,
      "t": 173626.16038333336,
      "d": 16.806733333331067,
      "v": 69
    },
    {
      "midi": 49,
      "hit": false,
      "t": 173676.58058333336,
      "d": 12.605050000012852,
      "v": 73
    },
    {
      "midi": 49,
      "hit": false,
      "t": 173727.00078333338,
      "d": 12.605050000012852,
      "v": 77
    },
    {
      "midi": 49,
      "hit": false,
      "t": 173777.4209833334,
      "d": 12.605050000012852,
      "v": 80
    },
    {
      "midi": 49,
      "hit": false,
      "t": 173836.2445500001,
      "d": 4.201683333347319,
      "v": 86
    },
    {
      "midi": 49,
      "hit": false,
      "t": 173899.2698000001,
      "d": 63.025250000006054,
      "v": 94
    },
    {
      "midi": 35,
      "hit": false,
      "t": 173949.69000000056,
      "d": 63.025250000006054,
      "v": 127
    }
  ]
}