{
  "jsonPath": "Animes/Fushigi Yuugi MIDI Collection/everything-for-you.json",
  "path": "Animes\\Fushigi Yuugi MIDI Collection\\Everything for You.mid",
  "name": "Everything for You",
  "difficulty": "Advanced",
  "bpm": 72.00002880001152,
  "notes": [
    {
      "midi": 76,
      "hit": false,
      "t": 416.66650000000004,
      "d": 199.65269791666674,
      "v": 110
    },
    {
      "midi": 77,
      "hit": false,
      "t": 624.9997500000001,
      "d": 199.65269791666663,
      "v": 110
    },
    {
      "midi": 79,
      "hit": false,
      "t": 833.333,
      "d": 1111.1106666666665,
      "v": 110
    },
    {
      "midi": 64,
      "hit": false,
      "t": 833.3330000000001,
      "d": 1458.33275,
      "v": 110
    },
    {
      "midi": 70,
      "hit": false,
      "t": 833.3330000000001,
      "d": 1458.33275,
      "v": 110
    },
    {
      "midi": 74,
      "hit": false,
      "t": 2083.3325,
      "d": 199.6526979166665,
      "v": 110
    },
    {
      "midi": 73,
      "hit": false,
      "t": 2291.6657499999997,
      "d": 1319.4439166666666,
      "v": 110
    },
    {
      "midi": 69,
      "hit": false,
      "t": 2499.9990000000003,
      "d": 1458.33275,
      "v": 110
    },
    {
      "midi": 74,
      "hit": false,
      "t": 3749.9984999999997,
      "d": 199.6526979166665,
      "v": 110
    },
    {
      "midi": 76,
      "hit": false,
      "t": 3958.3317499999994,
      "d": 199.6526979166665,
      "v": 110
    },
    {
      "midi": 77,
      "hit": false,
      "t": 4166.664999999999,
      "d": 1111.1106666666665,
      "v": 110
    },
    {
      "midi": 62,
      "hit": false,
      "t": 4166.665,
      "d": 1458.3327500000005,
      "v": 110
    },
    {
      "midi": 72,
      "hit": false,
      "t": 5416.664499999999,
      "d": 199.6526979166665,
      "v": 110
    },
    {
      "midi": 71,
      "hit": false,
      "t": 5624.997749999999,
      "d": 1319.443916666667,
      "v": 110
    },
    {
      "midi": 55,
      "hit": false,
      "t": 5833.331,
      "d": 1458.3327499999996,
      "v": 110
    },
    {
      "midi": 62,
      "hit": false,
      "t": 7083.330499999999,
      "d": 199.6526979166665,
      "v": 110
    },
    {
      "midi": 64,
      "hit": false,
      "t": 7291.663749999999,
      "d": 199.6526979166665,
      "v": 110
    },
    {
      "midi": 65,
      "hit": false,
      "t": 7499.9969999999985,
      "d": 407.9859479166671,
      "v": 110
    },
    {
      "midi": 58,
      "hit": false,
      "t": 7499.996999999999,
      "d": 1458.3327499999996,
      "v": 110
    },
    {
      "midi": 64,
      "hit": false,
      "t": 7916.663499999999,
      "d": 199.6526979166665,
      "v": 110
    },
    {
      "midi": 65,
      "hit": false,
      "t": 8124.996749999998,
      "d": 407.9859479166662,
      "v": 110
    },
    {
      "midi": 67,
      "hit": false,
      "t": 8541.663249999998,
      "d": 407.9859479166662,
      "v": 110
    },
    {
      "midi": 65,
      "hit": false,
      "t": 8958.329749999997,
      "d": 616.3191979166659,
      "v": 110
    },
    {
      "midi": 60,
      "hit": false,
      "t": 9166.662999999999,
      "d": 1458.3327499999996,
      "v": 110
    },
    {
      "midi": 64,
      "hit": false,
      "t": 9583.329499999996,
      "d": 407.9859479166662,
      "v": 110
    },
    {
      "midi": 62,
      "hit": false,
      "t": 9999.995999999996,
      "d": 407.9859479166662,
      "v": 110
    },
    {
      "midi": 64,
      "hit": false,
      "t": 10416.662499999995,
      "d": 407.9859479166662,
      "v": 110
    },
    {
      "midi": 65,
      "hit": false,
      "t": 10833.328999999994,
      "d": 3124.9987500000007,
      "v": 110
    },
    {
      "midi": 53,
      "hit": false,
      "t": 10833.328999999998,
      "d": 694.4441666666662,
      "v": 110
    },
    {
      "midi": 58,
      "hit": false,
      "t": 10833.328999999998,
      "d": 694.4441666666662,
      "v": 110
    },
    {
      "midi": 55,
      "hit": false,
      "t": 11666.661999999997,
      "d": 694.4441666666662,
      "v": 110
    },
    {
      "midi": 53,
      "hit": false,
      "t": 12499.994999999995,
      "d": 1458.3327499999996,
      "v": 110
    },
    {
      "midi": 57,
      "hit": false,
      "t": 12499.994999999995,
      "d": 1458.3327499999996,
      "v": 110
    },
    {
      "midi": 77,
      "hit": false,
      "t": 14166.660999999995,
      "d": 407.9859479166662,
      "v": 110
    },
    {
      "midi": 53,
      "hit": false,
      "t": 14166.660999999995,
      "d": 407.9859479166662,
      "v": 110
    },
    {
      "midi": 76,
      "hit": false,
      "t": 14583.327499999994,
      "d": 199.6526979166665,
      "v": 110
    },
    {
      "midi": 57,
      "hit": false,
      "t": 14583.327499999994,
      "d": 407.9859479166662,
      "v": 110
    },
    {
      "midi": 72,
      "hit": false,
      "t": 14791.660749999994,
      "d": 1666.6659999999993,
      "v": 110
    },
    {
      "midi": 60,
      "hit": false,
      "t": 14999.993999999993,
      "d": 1458.3327499999996,
      "v": 110
    },
    {
      "midi": 55,
      "hit": false,
      "t": 16666.659999999993,
      "d": 694.444166666668,
      "v": 110
    },
    {
      "midi": 53,
      "hit": false,
      "t": 17499.992999999995,
      "d": 407.9859479166662,
      "v": 110
    },
    {
      "midi": 69,
      "hit": false,
      "t": 17916.659499999994,
      "d": 407.9859479166662,
      "v": 110
    },
    {
      "midi": 57,
      "hit": false,
      "t": 17916.659499999994,
      "d": 407.9859479166662,
      "v": 110
    },
    {
      "midi": 69,
      "hit": false,
      "t": 18333.325999999994,
      "d": 407.9859479166662,
      "v": 110
    },
    {
      "midi": 60,
      "hit": false,
      "t": 18333.325999999994,
      "d": 2291.66575,
      "v": 110
    },
    {
      "midi": 72,
      "hit": false,
      "t": 18749.992499999993,
      "d": 407.9859479166662,
      "v": 110
    },
    {
      "midi": 72,
      "hit": false,
      "t": 19166.658999999992,
      "d": 407.9859479166662,
      "v": 110
    },
    {
      "midi": 77,
      "hit": false,
      "t": 19583.32549999999,
      "d": 407.9859479166662,
      "v": 110
    },
    {
      "midi": 77,
      "hit": false,
      "t": 19999.99199999999,
      "d": 407.9859479166662,
      "v": 110
    },
    {
      "midi": 79,
      "hit": false,
      "t": 20416.65849999999,
      "d": 407.9859479166662,
      "v": 110
    },
    {
      "midi": 76,
      "hit": false,
      "t": 20833.32499999999,
      "d": 407.9859479166662,
      "v": 110
    },
    {
      "midi": 57,
      "hit": false,
      "t": 20833.324999999993,
      "d": 407.9859479166662,
      "v": 110
    },
    {
      "midi": 74,
      "hit": false,
      "t": 21249.99149999999,
      "d": 199.6526979166665,
      "v": 110
    },
    {
      "midi": 60,
      "hit": false,
      "t": 21249.991499999993,
      "d": 407.9859479166662,
      "v": 110
    },
    {
      "midi": 72,
      "hit": false,
      "t": 21458.32474999999,
      "d": 1666.666000000001,
      "v": 110
    },
    {
      "midi": 64,
      "hit": false,
      "t": 21666.657999999992,
      "d": 1458.3327500000014,
      "v": 110
    },
    {
      "midi": 59,
      "hit": false,
      "t": 23333.323999999993,
      "d": 694.444166666668,
      "v": 110
    },
    {
      "midi": 57,
      "hit": false,
      "t": 24166.656999999996,
      "d": 407.9859479166662,
      "v": 110
    },
    {
      "midi": 60,
      "hit": false,
      "t": 24583.323499999995,
      "d": 407.9859479166662,
      "v": 110
    },
    {
      "midi": 64,
      "hit": false,
      "t": 24999.989999999994,
      "d": 1458.3327500000014,
      "v": 110
    },
    {
      "midi": 57,
      "hit": false,
      "t": 26666.655999999995,
      "d": 694.444166666668,
      "v": 110
    },
    {
      "midi": 74,
      "hit": false,
      "t": 27499.98899999999,
      "d": 407.9859479166662,
      "v": 110
    },
    {
      "midi": 58,
      "hit": false,
      "t": 27499.988999999998,
      "d": 407.9859479166662,
      "v": 110
    },
    {
      "midi": 72,
      "hit": false,
      "t": 27916.65549999999,
      "d": 199.6526979166665,
      "v": 110
    },
    {
      "midi": 62,
      "hit": false,
      "t": 27916.655499999997,
      "d": 407.9859479166662,
      "v": 110
    },
    {
      "midi": 70,
      "hit": false,
      "t": 28124.98874999999,
      "d": 1666.666000000001,
      "v": 110
    },
    {
      "midi": 65,
      "hit": false,
      "t": 28333.321999999996,
      "d": 1458.3327500000014,
      "v": 110
    },
    {
      "midi": 60,
      "hit": false,
      "t": 29999.987999999998,
      "d": 694.444166666668,
      "v": 110
    },
    {
      "midi": 58,
      "hit": false,
      "t": 30833.321,
      "d": 407.9859479166662,
      "v": 110
    },
    {
      "midi": 61,
      "hit": false,
      "t": 31249.9875,
      "d": 407.9859479166662,
      "v": 110
    },
    {
      "midi": 73,
      "hit": false,
      "t": 31666.65399999999,
      "d": 694.444166666668,
      "v": 110
    },
    {
      "midi": 65,
      "hit": false,
      "t": 31666.654,
      "d": 2291.6657499999965,
      "v": 110
    },
    {
      "midi": 77,
      "hit": false,
      "t": 32499.986999999994,
      "d": 616.3191979166659,
      "v": 110
    },
    {
      "midi": 79,
      "hit": false,
      "t": 33124.98675,
      "d": 616.3191979166659,
      "v": 110
    },
    {
      "midi": 77,
      "hit": false,
      "t": 33749.9865,
      "d": 824.6524479166692,
      "v": 110
    },
    {
      "midi": 53,
      "hit": false,
      "t": 34166.653,
      "d": 407.98594791666983,
      "v": 110
    },
    {
      "midi": 72,
      "hit": false,
      "t": 34583.319500000005,
      "d": 1111.1106666666674,
      "v": 110
    },
    {
      "midi": 57,
      "hit": false,
      "t": 34583.319500000005,
      "d": 407.98594791666983,
      "v": 110
    },
    {
      "midi": 60,
      "hit": false,
      "t": 34999.98600000001,
      "d": 2291.66575,
      "v": 110
    },
    {
      "midi": 69,
      "hit": false,
      "t": 36249.9855,
      "d": 407.98594791666983,
      "v": 110
    },
    {
      "midi": 70,
      "hit": false,
      "t": 36666.65200000001,
      "d": 407.98594791666983,
      "v": 110
    },
    {
      "midi": 67,
      "hit": false,
      "t": 37083.318500000016,
      "d": 407.98594791666983,
      "v": 110
    },
    {
      "midi": 53,
      "hit": false,
      "t": 37499.985000000015,
      "d": 407.98594791666983,
      "v": 110
    },
    {
      "midi": 69,
      "hit": false,
      "t": 37499.98500000002,
      "d": 1458.3327500000014,
      "v": 110
    },
    {
      "midi": 57,
      "hit": false,
      "t": 37916.65150000002,
      "d": 407.98594791666983,
      "v": 110
    },
    {
      "midi": 60,
      "hit": false,
      "t": 38333.31800000003,
      "d": 2291.66575,
      "v": 110
    },
    {
      "midi": 70,
      "hit": false,
      "t": 39166.65100000003,
      "d": 694.444166666668,
      "v": 110
    },
    {
      "midi": 72,
      "hit": false,
      "t": 39999.984000000026,
      "d": 694.444166666668,
      "v": 110
    },
    {
      "midi": 67,
      "hit": false,
      "t": 40833.317000000025,
      "d": 2291.66575,
      "v": 110
    },
    {
      "midi": 74,
      "hit": false,
      "t": 40833.317000000025,
      "d": 2291.66575,
      "v": 110
    },
    {
      "midi": 52,
      "hit": false,
      "t": 40833.31700000003,
      "d": 407.98594791666983,
      "v": 110
    },
    {
      "midi": 55,
      "hit": false,
      "t": 41249.98350000004,
      "d": 407.98594791666983,
      "v": 110
    },
    {
      "midi": 58,
      "hit": false,
      "t": 41666.650000000045,
      "d": 2291.66575,
      "v": 110
    },
    {
      "midi": 73,
      "hit": false,
      "t": 43333.31600000003,
      "d": 407.98594791666983,
      "v": 110
    },
    {
      "midi": 74,
      "hit": false,
      "t": 43749.982500000035,
      "d": 407.98594791666983,
      "v": 110
    },
    {
      "midi": 67,
      "hit": false,
      "t": 44166.64900000004,
      "d": 694.444166666668,
      "v": 110
    },
    {
      "midi": 76,
      "hit": false,
      "t": 44166.64900000004,
      "d": 694.444166666668,
      "v": 110
    },
    {
      "midi": 57,
      "hit": false,
      "t": 44166.64900000005,
      "d": 407.98594791666983,
      "v": 110
    },
    {
      "midi": 61,
      "hit": false,
      "t": 44583.315500000055,
      "d": 407.98594791666983,
      "v": 110
    },
    {
      "midi": 64,
      "hit": false,
      "t": 44999.98200000006,
      "d": 2291.66575,
      "v": 110
    },
    {
      "midi": 82,
      "hit": false,
      "t": 45416.64850000004,
      "d": 407.98594791666983,
      "v": 110
    },
    {
      "midi": 81,
      "hit": false,
      "t": 45833.315000000046,
      "d": 407.98594791666983,
      "v": 110
    },
    {
      "midi": 79,
      "hit": false,
      "t": 46249.98150000005,
      "d": 407.98594791666983,
      "v": 110
    },
    {
      "midi": 77,
      "hit": false,
      "t": 46666.64800000006,
      "d": 407.98594791666983,
      "v": 110
    },
    {
      "midi": 76,
      "hit": false,
      "t": 47083.314500000066,
      "d": 407.98594791666983,
      "v": 110
    },
    {
      "midi": 62,
      "hit": false,
      "t": 47499.981000000065,
      "d": 407.98594791666983,
      "v": 110
    },
    {
      "midi": 79,
      "hit": false,
      "t": 47499.98100000007,
      "d": 1111.1106666666674,
      "v": 110
    },
    {
      "midi": 65,
      "hit": false,
      "t": 47916.64750000007,
      "d": 407.98594791666983,
      "v": 110
    },
    {
      "midi": 69,
      "hit": false,
      "t": 48333.31400000008,
      "d": 694.444166666668,
      "v": 110
    },
    {
      "midi": 77,
      "hit": false,
      "t": 48749.98050000007,
      "d": 199.6526979166665,
      "v": 110
    },
    {
      "midi": 76,
      "hit": false,
      "t": 48958.313750000074,
      "d": 199.6526979166665,
      "v": 110
    },
    {
      "midi": 77,
      "hit": false,
      "t": 49166.64700000008,
      "d": 2361.1101666666655,
      "v": 110
    },
    {
      "midi": 60,
      "hit": false,
      "t": 49166.64700000008,
      "d": 407.98594791666983,
      "v": 110
    },
    {
      "midi": 65,
      "hit": false,
      "t": 49583.313500000084,
      "d": 407.98594791666983,
      "v": 110
    },
    {
      "midi": 69,
      "hit": false,
      "t": 49999.98000000009,
      "d": 694.444166666668,
      "v": 110
    },
    {
      "midi": 59,
      "hit": false,
      "t": 50833.31300000009,
      "d": 407.98594791666983,
      "v": 110
    },
    {
      "midi": 62,
      "hit": false,
      "t": 51249.979500000096,
      "d": 407.98594791666983,
      "v": 110
    },
    {
      "midi": 67,
      "hit": false,
      "t": 51666.6460000001,
      "d": 2291.66575,
      "v": 110
    },
    {
      "midi": 77,
      "hit": false,
      "t": 53749.97850000008,
      "d": 199.6526979166665,
      "v": 110
    },
    {
      "midi": 79,
      "hit": false,
      "t": 53958.31175000008,
      "d": 199.6526979166665,
      "v": 110
    },
    {
      "midi": 81,
      "hit": false,
      "t": 54166.645000000084,
      "d": 616.3191979166659,
      "v": 110
    },
    {
      "midi": 58,
      "hit": false,
      "t": 54166.645000000106,
      "d": 407.98594791666983,
      "v": 110
    },
    {
      "midi": 62,
      "hit": false,
      "t": 54583.31150000011,
      "d": 407.98594791666983,
      "v": 110
    },
    {
      "midi": 74,
      "hit": false,
      "t": 54791.64475000009,
      "d": 199.6526979166665,
      "v": 110
    },
    {
      "midi": 74,
      "hit": false,
      "t": 54999.97800000009,
      "d": 1458.3327500000014,
      "v": 110
    },
    {
      "midi": 65,
      "hit": false,
      "t": 54999.97800000012,
      "d": 1458.3327500000014,
      "v": 110
    },
    {
      "midi": 57,
      "hit": false,
      "t": 56666.644000000124,
      "d": 694.444166666668,
      "v": 110
    },
    {
      "midi": 77,
      "hit": false,
      "t": 57083.310500000094,
      "d": 199.6526979166665,
      "v": 110
    },
    {
      "midi": 79,
      "hit": false,
      "t": 57291.6437500001,
      "d": 199.6526979166665,
      "v": 110
    },
    {
      "midi": 81,
      "hit": false,
      "t": 57499.9770000001,
      "d": 616.3191979166659,
      "v": 110
    },
    {
      "midi": 55,
      "hit": false,
      "t": 57499.97700000012,
      "d": 407.98594791666983,
      "v": 110
    },
    {
      "midi": 62,
      "hit": false,
      "t": 57916.64350000013,
      "d": 407.98594791666983,
      "v": 110
    },
    {
      "midi": 74,
      "hit": false,
      "t": 58124.9767500001,
      "d": 199.6526979166665,
      "v": 110
    },
    {
      "midi": 74,
      "hit": false,
      "t": 58333.31000000011,
      "d": 1458.3327500000014,
      "v": 110
    },
    {
      "midi": 65,
      "hit": false,
      "t": 58333.310000000136,
      "d": 1458.3327500000014,
      "v": 110
    },
    {
      "midi": 55,
      "hit": false,
      "t": 59999.97600000014,
      "d": 694.444166666668,
      "v": 110
    },
    {
      "midi": 60,
      "hit": false,
      "t": 60833.30900000014,
      "d": 3124.998749999999,
      "v": 110
    },
    {
      "midi": 70,
      "hit": false,
      "t": 61666.64200000011,
      "d": 407.98594791666983,
      "v": 110
    },
    {
      "midi": 74,
      "hit": false,
      "t": 61666.64200000011,
      "d": 407.98594791666983,
      "v": 110
    },
    {
      "midi": 77,
      "hit": false,
      "t": 61666.64200000011,
      "d": 407.98594791666983,
      "v": 110
    },
    {
      "midi": 77,
      "hit": false,
      "t": 62083.308500000116,
      "d": 407.98594791666983,
      "v": 110
    },
    {
      "midi": 70,
      "hit": false,
      "t": 62499.97500000012,
      "d": 616.3191979166659,
      "v": 110
    },
    {
      "midi": 74,
      "hit": false,
      "t": 62499.97500000012,
      "d": 616.3191979166659,
      "v": 110
    },
    {
      "midi": 77,
      "hit": false,
      "t": 62499.97500000012,
      "d": 616.3191979166659,
      "v": 110
    },
    {
      "midi": 76,
      "hit": false,
      "t": 63124.974750000125,
      "d": 616.3191979166659,
      "v": 110
    },
    {
      "midi": 77,
      "hit": false,
      "t": 63749.97450000013,
      "d": 407.98594791666983,
      "v": 110
    },
    {
      "midi": 70,
      "hit": false,
      "t": 64166.641000000134,
      "d": 2291.66575,
      "v": 110
    },
    {
      "midi": 76,
      "hit": false,
      "t": 64166.641000000134,
      "d": 2291.66575,
      "v": 110
    },
    {
      "midi": 79,
      "hit": false,
      "t": 64166.641000000134,
      "d": 2291.66575,
      "v": 110
    },
    {
      "midi": 60,
      "hit": false,
      "t": 64166.64100000014,
      "d": 2291.665749999993,
      "v": 110
    },
    {
      "midi": 70,
      "hit": false,
      "t": 66666.64000000013,
      "d": 694.444166666668,
      "v": 110
    },
    {
      "midi": 76,
      "hit": false,
      "t": 66666.64000000013,
      "d": 694.444166666668,
      "v": 110
    },
    {
      "midi": 80,
      "hit": false,
      "t": 66666.64000000013,
      "d": 694.444166666668,
      "v": 110
    },
    {
      "midi": 54,
      "hit": false,
      "t": 66666.64000000013,
      "d": 694.444166666668,
      "v": 110
    },
    {
      "midi": 81,
      "hit": false,
      "t": 67499.97300000013,
      "d": 407.98594791666255,
      "v": 110
    },
    {
      "midi": 53,
      "hit": false,
      "t": 67499.97300000013,
      "d": 1458.3327500000014,
      "v": 110
    },
    {
      "midi": 60,
      "hit": false,
      "t": 67499.97300000013,
      "d": 1458.3327500000014,
      "v": 110
    },
    {
      "midi": 81,
      "hit": false,
      "t": 67916.63950000012,
      "d": 407.98594791666255,
      "v": 110
    },
    {
      "midi": 81,
      "hit": false,
      "t": 68333.30600000011,
      "d": 407.98594791666255,
      "v": 110
    },
    {
      "midi": 77,
      "hit": false,
      "t": 68749.9725000001,
      "d": 407.98594791666255,
      "v": 110
    },
    {
      "midi": 81,
      "hit": false,
      "t": 69166.6390000001,
      "d": 407.98594791666255,
      "v": 110
    },
    {
      "midi": 58,
      "hit": false,
      "t": 69166.63900000013,
      "d": 1458.3327500000014,
      "v": 110
    },
    {
      "midi": 62,
      "hit": false,
      "t": 69166.63900000013,
      "d": 1458.3327500000014,
      "v": 110
    },
    {
      "midi": 82,
      "hit": false,
      "t": 69583.30550000009,
      "d": 199.6526979166665,
      "v": 110
    },
    {
      "midi": 82,
      "hit": false,
      "t": 69791.63875000009,
      "d": 902.7774166666641,
      "v": 110
    },
    {
      "midi": 79,
      "hit": false,
      "t": 70833.30500000008,
      "d": 407.98594791666255,
      "v": 110
    },
    {
      "midi": 52,
      "hit": false,
      "t": 70833.30500000012,
      "d": 694.444166666668,
      "v": 110
    },
    {
      "midi": 58,
      "hit": false,
      "t": 70833.30500000012,
      "d": 694.444166666668,
      "v": 110
    },
    {
      "midi": 79,
      "hit": false,
      "t": 71249.97150000007,
      "d": 407.98594791666255,
      "v": 110
    },
    {
      "midi": 79,
      "hit": false,
      "t": 71666.63800000006,
      "d": 407.98594791666255,
      "v": 110
    },
    {
      "midi": 57,
      "hit": false,
      "t": 71666.63800000012,
      "d": 694.444166666668,
      "v": 110
    },
    {
      "midi": 61,
      "hit": false,
      "t": 71666.63800000012,
      "d": 694.444166666668,
      "v": 110
    },
    {
      "midi": 76,
      "hit": false,
      "t": 72083.30450000006,
      "d": 407.98594791666255,
      "v": 110
    },
    {
      "midi": 79,
      "hit": false,
      "t": 72499.97100000005,
      "d": 407.98594791666255,
      "v": 110
    },
    {
      "midi": 62,
      "hit": false,
      "t": 72499.97100000012,
      "d": 1458.3327500000014,
      "v": 110
    },
    {
      "midi": 81,
      "hit": false,
      "t": 72916.63750000004,
      "d": 199.6526979166665,
      "v": 110
    },
    {
      "midi": 81,
      "hit": false,
      "t": 73124.97075000004,
      "d": 902.7774166666641,
      "v": 110
    },
    {
      "midi": 77,
      "hit": false,
      "t": 74166.63700000003,
      "d": 407.98594791666255,
      "v": 110
    },
    {
      "midi": 61,
      "hit": false,
      "t": 74166.63700000012,
      "d": 1458.3327500000014,
      "v": 110
    },
    {
      "midi": 77,
      "hit": false,
      "t": 74583.30350000002,
      "d": 407.98594791666255,
      "v": 110
    },
    {
      "midi": 77,
      "hit": false,
      "t": 74999.97000000002,
      "d": 407.98594791666255,
      "v": 110
    },
    {
      "midi": 80,
      "hit": false,
      "t": 75416.63650000001,
      "d": 407.98594791666255,
      "v": 110
    },
    {
      "midi": 79,
      "hit": false,
      "t": 75833.303,
      "d": 407.98594791666255,
      "v": 110
    },
    {
      "midi": 60,
      "hit": false,
      "t": 75833.30300000012,
      "d": 1458.3327500000014,
      "v": 110
    },
    {
      "midi": 77,
      "hit": false,
      "t": 76249.96949999999,
      "d": 199.6526979166665,
      "v": 110
    },
    {
      "midi": 77,
      "hit": false,
      "t": 76458.30274999999,
      "d": 616.3191979166731,
      "v": 110
    },
    {
      "midi": 77,
      "hit": false,
      "t": 77083.30249999999,
      "d": 199.6526979166665,
      "v": 110
    },
    {
      "midi": 79,
      "hit": false,
      "t": 77291.63574999999,
      "d": 199.6526979166665,
      "v": 110
    },
    {
      "midi": 81,
      "hit": false,
      "t": 77499.96899999998,
      "d": 407.98594791666255,
      "v": 110
    },
    {
      "midi": 59,
      "hit": false,
      "t": 77499.96900000011,
      "d": 1458.3327500000014,
      "v": 110
    },
    {
      "midi": 65,
      "hit": false,
      "t": 77499.96900000011,
      "d": 1458.3327500000014,
      "v": 110
    },
    {
      "midi": 79,
      "hit": false,
      "t": 77916.63549999997,
      "d": 199.6526979166665,
      "v": 110
    },
    {
      "midi": 79,
      "hit": false,
      "t": 78124.96874999997,
      "d": 407.98594791666255,
      "v": 110
    },
    {
      "midi": 81,
      "hit": false,
      "t": 78541.63524999996,
      "d": 407.98594791666255,
      "v": 110
    },
    {
      "midi": 82,
      "hit": false,
      "t": 78958.30174999996,
      "d": 1666.6659999999974,
      "v": 110
    },
    {
      "midi": 58,
      "hit": false,
      "t": 79166.63500000011,
      "d": 694.444166666668,
      "v": 110
    },
    {
      "midi": 61,
      "hit": false,
      "t": 79166.63500000011,
      "d": 694.444166666668,
      "v": 110
    },
    {
      "midi": 65,
      "hit": false,
      "t": 79166.63500000011,
      "d": 694.444166666668,
      "v": 110
    },
    {
      "midi": 60,
      "hit": false,
      "t": 79999.96800000011,
      "d": 694.444166666668,
      "v": 110
    },
    {
      "midi": 64,
      "hit": false,
      "t": 79999.96800000011,
      "d": 694.444166666668,
      "v": 110
    },
    {
      "midi": 81,
      "hit": false,
      "t": 80833.30099999995,
      "d": 407.98594791666255,
      "v": 110
    },
    {
      "midi": 53,
      "hit": false,
      "t": 80833.30100000011,
      "d": 694.444166666668,
      "v": 110
    },
    {
      "midi": 81,
      "hit": false,
      "t": 81249.96749999994,
      "d": 407.98594791666255,
      "v": 110
    },
    {
      "midi": 81,
      "hit": false,
      "t": 81666.63399999993,
      "d": 407.98594791666255,
      "v": 110
    },
    {
      "midi": 65,
      "hit": false,
      "t": 81666.63400000011,
      "d": 407.98594791666255,
      "v": 110
    },
    {
      "midi": 77,
      "hit": false,
      "t": 82083.30049999992,
      "d": 407.98594791666255,
      "v": 110
    },
    {
      "midi": 64,
      "hit": false,
      "t": 82083.3005000001,
      "d": 407.98594791666255,
      "v": 110
    },
    {
      "midi": 81,
      "hit": false,
      "t": 82499.96699999992,
      "d": 407.98594791666255,
      "v": 110
    },
    {
      "midi": 62,
      "hit": false,
      "t": 82499.96700000009,
      "d": 1458.3327500000014,
      "v": 110
    },
    {
      "midi": 82,
      "hit": false,
      "t": 82916.63349999991,
      "d": 199.6526979166665,
      "v": 110
    },
    {
      "midi": 82,
      "hit": false,
      "t": 83124.9667499999,
      "d": 902.7774166666641,
      "v": 110
    },
    {
      "midi": 79,
      "hit": false,
      "t": 84166.6329999999,
      "d": 407.98594791666255,
      "v": 110
    },
    {
      "midi": 64,
      "hit": false,
      "t": 84166.63300000009,
      "d": 694.444166666668,
      "v": 110
    },
    {
      "midi": 79,
      "hit": false,
      "t": 84583.29949999989,
      "d": 407.98594791666255,
      "v": 110
    },
    {
      "midi": 79,
      "hit": false,
      "t": 84999.96599999988,
      "d": 407.98594791666255,
      "v": 110
    },
    {
      "midi": 61,
      "hit": false,
      "t": 84999.96600000009,
      "d": 694.444166666668,
      "v": 110
    },
    {
      "midi": 76,
      "hit": false,
      "t": 85416.63249999988,
      "d": 407.98594791666255,
      "v": 110
    },
    {
      "midi": 79,
      "hit": false,
      "t": 85833.29899999987,
      "d": 407.98594791666255,
      "v": 110
    },
    {
      "midi": 62,
      "hit": false,
      "t": 85833.29900000009,
      "d": 694.444166666668,
      "v": 110
    },
    {
      "midi": 65,
      "hit": false,
      "t": 85833.29900000009,
      "d": 694.444166666668,
      "v": 110
    },
    {
      "midi": 81,
      "hit": false,
      "t": 86249.96549999986,
      "d": 199.6526979166665,
      "v": 110
    },
    {
      "midi": 81,
      "hit": false,
      "t": 86458.29874999986,
      "d": 616.3191979166731,
      "v": 110
    },
    {
      "midi": 60,
      "hit": false,
      "t": 86666.63200000009,
      "d": 694.444166666668,
      "v": 110
    },
    {
      "midi": 64,
      "hit": false,
      "t": 86666.63200000009,
      "d": 694.444166666668,
      "v": 110
    },
    {
      "midi": 77,
      "hit": false,
      "t": 87083.29849999986,
      "d": 199.6526979166665,
      "v": 110
    },
    {
      "midi": 79,
      "hit": false,
      "t": 87291.63174999985,
      "d": 199.6526979166665,
      "v": 110
    },
    {
      "midi": 81,
      "hit": false,
      "t": 87499.96499999985,
      "d": 616.3191979166731,
      "v": 110
    },
    {
      "midi": 58,
      "hit": false,
      "t": 87499.96500000008,
      "d": 1458.3327500000014,
      "v": 110
    },
    {
      "midi": 62,
      "hit": false,
      "t": 87499.96500000008,
      "d": 1458.3327500000014,
      "v": 110
    },
    {
      "midi": 79,
      "hit": false,
      "t": 88124.96474999985,
      "d": 199.6526979166665,
      "v": 110
    },
    {
      "midi": 77,
      "hit": false,
      "t": 88333.29799999985,
      "d": 694.444166666668,
      "v": 110
    },
    {
      "midi": 62,
      "hit": false,
      "t": 89166.63099999985,
      "d": 407.98594791666255,
      "v": 110
    },
    {
      "midi": 69,
      "hit": false,
      "t": 89166.63099999985,
      "d": 407.98594791666255,
      "v": 110
    },
    {
      "midi": 46,
      "hit": false,
      "t": 89166.63100000008,
      "d": 407.98594791666255,
      "v": 110
    },
    {
      "midi": 60,
      "hit": false,
      "t": 89583.29749999984,
      "d": 407.98594791666255,
      "v": 110
    },
    {
      "midi": 67,
      "hit": false,
      "t": 89583.29749999984,
      "d": 407.98594791666255,
      "v": 110
    },
    {
      "midi": 45,
      "hit": false,
      "t": 89583.29750000007,
      "d": 407.98594791666255,
      "v": 110
    },
    {
      "midi": 58,
      "hit": false,
      "t": 90416.63049999984,
      "d": 1874.9992499999935,
      "v": 110
    },
    {
      "midi": 65,
      "hit": false,
      "t": 90416.63049999984,
      "d": 1874.9992499999935,
      "v": 110
    },
    {
      "midi": 43,
      "hit": false,
      "t": 90416.63050000007,
      "d": 1874.9992499999935,
      "v": 110
    },
    {
      "midi": 77,
      "hit": false,
      "t": 92499.96299999983,
      "d": 407.98594791666255,
      "v": 110
    },
    {
      "midi": 48,
      "hit": false,
      "t": 92499.96300000006,
      "d": 694.444166666668,
      "v": 110
    },
    {
      "midi": 79,
      "hit": false,
      "t": 92916.62949999982,
      "d": 407.98594791666255,
      "v": 110
    },
    {
      "midi": 74,
      "hit": false,
      "t": 93333.29599999981,
      "d": 407.98594791666255,
      "v": 110
    },
    {
      "midi": 48,
      "hit": false,
      "t": 93333.29600000006,
      "d": 694.444166666668,
      "v": 110
    },
    {
      "midi": 76,
      "hit": false,
      "t": 93749.9624999998,
      "d": 199.6526979166665,
      "v": 110
    },
    {
      "midi": 76,
      "hit": false,
      "t": 93958.2957499998,
      "d": 199.6526979166665,
      "v": 110
    },
    {
      "midi": 69,
      "hit": false,
      "t": 94166.6289999998,
      "d": 1111.11066666666,
      "v": 110
    },
    {
      "midi": 77,
      "hit": false,
      "t": 94166.6289999998,
      "d": 1111.11066666666,
      "v": 110
    },
    {
      "midi": 41,
      "hit": false,
      "t": 94166.62900000006,
      "d": 1111.11066666666,
      "v": 110
    },
    {
      "midi": 67,
      "hit": false,
      "t": 95416.62849999979,
      "d": 199.6526979166665,
      "v": 110
    },
    {
      "midi": 41,
      "hit": false,
      "t": 95416.62850000005,
      "d": 407.98594791666255,
      "v": 110
    },
    {
      "midi": 69,
      "hit": false,
      "t": 95624.96174999978,
      "d": 199.6526979166665,
      "v": 110
    },
    {
      "midi": 70,
      "hit": false,
      "t": 95833.29499999978,
      "d": 694.444166666668,
      "v": 110
    },
    {
      "midi": 43,
      "hit": false,
      "t": 95833.29500000004,
      "d": 1111.11066666666,
      "v": 110
    },
    {
      "midi": 74,
      "hit": false,
      "t": 96666.62799999978,
      "d": 694.444166666668,
      "v": 110
    },
    {
      "midi": 43,
      "hit": false,
      "t": 97083.29450000003,
      "d": 407.98594791666255,
      "v": 110
    },
    {
      "midi": 65,
      "hit": false,
      "t": 97499.96099999978,
      "d": 1111.11066666666,
      "v": 110
    },
    {
      "midi": 72,
      "hit": false,
      "t": 97499.96099999978,
      "d": 1111.11066666666,
      "v": 110
    },
    {
      "midi": 45,
      "hit": false,
      "t": 97499.96100000002,
      "d": 1111.11066666666,
      "v": 110
    },
    {
      "midi": 74,
      "hit": false,
      "t": 98749.96049999977,
      "d": 199.6526979166665,
      "v": 110
    },
    {
      "midi": 45,
      "hit": false,
      "t": 98749.96050000002,
      "d": 407.98594791666255,
      "v": 110
    },
    {
      "midi": 65,
      "hit": false,
      "t": 98958.29374999976,
      "d": 902.7774166666641,
      "v": 110
    },
    {
      "midi": 50,
      "hit": false,
      "t": 99166.62700000001,
      "d": 694.444166666668,
      "v": 110
    },
    {
      "midi": 64,
      "hit": false,
      "t": 99999.95999999976,
      "d": 694.444166666668,
      "v": 110
    },
    {
      "midi": 48,
      "hit": false,
      "t": 99999.96,
      "d": 694.444166666668,
      "v": 110
    },
    {
      "midi": 62,
      "hit": false,
      "t": 100833.29299999976,
      "d": 1111.11066666666,
      "v": 110
    },
    {
      "midi": 46,
      "hit": false,
      "t": 100833.293,
      "d": 1111.11066666666,
      "v": 110
    },
    {
      "midi": 62,
      "hit": false,
      "t": 102083.29249999975,
      "d": 199.6526979166665,
      "v": 110
    },
    {
      "midi": 46,
      "hit": false,
      "t": 102083.2925,
      "d": 407.98594791666255,
      "v": 110
    },
    {
      "midi": 64,
      "hit": false,
      "t": 102291.62574999974,
      "d": 199.6526979166665,
      "v": 110
    },
    {
      "midi": 65,
      "hit": false,
      "t": 102499.95899999974,
      "d": 407.98594791666255,
      "v": 110
    },
    {
      "midi": 45,
      "hit": false,
      "t": 102499.95899999999,
      "d": 1111.11066666666,
      "v": 110
    },
    {
      "midi": 60,
      "hit": false,
      "t": 102916.62549999973,
      "d": 407.98594791666255,
      "v": 110
    },
    {
      "midi": 65,
      "hit": false,
      "t": 103333.29199999972,
      "d": 407.98594791666255,
      "v": 110
    },
    {
      "midi": 69,
      "hit": false,
      "t": 103749.95849999972,
      "d": 407.98594791666255,
      "v": 110
    },
    {
      "midi": 45,
      "hit": false,
      "t": 103749.95849999998,
      "d": 407.98594791666255,
      "v": 110
    },
    {
      "midi": 70,
      "hit": false,
      "t": 104166.62499999971,
      "d": 616.3191979166731,
      "v": 110
    },
    {
      "midi": 43,
      "hit": false,
      "t": 104166.62499999997,
      "d": 1111.11066666666,
      "v": 110
    },
    {
      "midi": 69,
      "hit": false,
      "t": 104791.62474999971,
      "d": 616.3191979166731,
      "v": 110
    },
    {
      "midi": 65,
      "hit": false,
      "t": 105416.62449999971,
      "d": 407.98594791666255,
      "v": 110
    },
    {
      "midi": 43,
      "hit": false,
      "t": 105416.62449999996,
      "d": 407.98594791666255,
      "v": 110
    },
    {
      "midi": 64,
      "hit": false,
      "t": 105833.2909999997,
      "d": 1111.11066666666,
      "v": 110
    },
    {
      "midi": 67,
      "hit": false,
      "t": 105833.2909999997,
      "d": 1111.11066666666,
      "v": 110
    },
    {
      "midi": 48,
      "hit": false,
      "t": 105833.29099999995,
      "d": 1458.3327500000014,
      "v": 110
    },
    {
      "midi": 65,
      "hit": false,
      "t": 107083.2904999997,
      "d": 407.98594791666255,
      "v": 110
    },
    {
      "midi": 64,
      "hit": false,
      "t": 107499.95699999969,
      "d": 3124.998749999999,
      "v": 110
    },
    {
      "midi": 48,
      "hit": false,
      "t": 107499.95699999995,
      "d": 3124.998749999999,
      "v": 110
    },
    {
      "midi": 77,
      "hit": false,
      "t": 110833.28899999968,
      "d": 407.98594791666255,
      "v": 110
    },
    {
      "midi": 53,
      "hit": false,
      "t": 110833.28899999995,
      "d": 407.98594791666255,
      "v": 110
    },
    {
      "midi": 76,
      "hit": false,
      "t": 111249.95549999968,
      "d": 199.6526979166665,
      "v": 110
    },
    {
      "midi": 57,
      "hit": false,
      "t": 111249.95549999994,
      "d": 407.98594791666255,
      "v": 110
    },
    {
      "midi": 72,
      "hit": false,
      "t": 111458.28874999967,
      "d": 1666.6659999999974,
      "v": 110
    },
    {
      "midi": 60,
      "hit": false,
      "t": 111666.62199999993,
      "d": 1458.3327500000014,
      "v": 110
    },
    {
      "midi": 55,
      "hit": false,
      "t": 113333.28799999993,
      "d": 694.444166666668,
      "v": 110
    },
    {
      "midi": 53,
      "hit": false,
      "t": 114166.62099999993,
      "d": 407.98594791666255,
      "v": 110
    },
    {
      "midi": 69,
      "hit": false,
      "t": 114583.28749999967,
      "d": 407.98594791666255,
      "v": 110
    },
    {
      "midi": 57,
      "hit": false,
      "t": 114583.28749999992,
      "d": 407.98594791666255,
      "v": 110
    },
    {
      "midi": 69,
      "hit": false,
      "t": 114999.95399999966,
      "d": 407.98594791666255,
      "v": 110
    },
    {
      "midi": 60,
      "hit": false,
      "t": 114999.95399999991,
      "d": 2291.66575,
      "v": 110
    },
    {
      "midi": 72,
      "hit": false,
      "t": 115416.62049999966,
      "d": 407.98594791666255,
      "v": 110
    },
    {
      "midi": 72,
      "hit": false,
      "t": 115833.28699999965,
      "d": 407.98594791666255,
      "v": 110
    },
    {
      "midi": 77,
      "hit": false,
      "t": 116249.95349999964,
      "d": 407.98594791666255,
      "v": 110
    },
    {
      "midi": 77,
      "hit": false,
      "t": 116666.61999999963,
      "d": 407.98594791666255,
      "v": 110
    },
    {
      "midi": 79,
      "hit": false,
      "t": 117083.28649999962,
      "d": 407.98594791666255,
      "v": 110
    },
    {
      "midi": 76,
      "hit": false,
      "t": 117499.95299999962,
      "d": 407.98594791666255,
      "v": 110
    },
    {
      "midi": 57,
      "hit": false,
      "t": 117499.9529999999,
      "d": 407.98594791666255,
      "v": 110
    },
    {
      "midi": 74,
      "hit": false,
      "t": 117916.61949999961,
      "d": 199.6526979166665,
      "v": 110
    },
    {
      "midi": 60,
      "hit": false,
      "t": 117916.6194999999,
      "d": 407.98594791666255,
      "v": 110
    },
    {
      "midi": 72,
      "hit": false,
      "t": 118124.9527499996,
      "d": 1666.6659999999974,
      "v": 110
    },
    {
      "midi": 64,
      "hit": false,
      "t": 118333.28599999989,
      "d": 1458.3327500000014,
      "v": 110
    },
    {
      "midi": 59,
      "hit": false,
      "t": 119999.95199999989,
      "d": 694.444166666668,
      "v": 110
    },
    {
      "midi": 57,
      "hit": false,
      "t": 120833.28499999989,
      "d": 407.98594791666255,
      "v": 110
    },
    {
      "midi": 60,
      "hit": false,
      "t": 121249.95149999988,
      "d": 407.98594791666255,
      "v": 110
    },
    {
      "midi": 64,
      "hit": false,
      "t": 121666.61799999987,
      "d": 1458.3327500000014,
      "v": 110
    },
    {
      "midi": 57,
      "hit": false,
      "t": 123333.28399999987,
      "d": 694.444166666668,
      "v": 110
    },
    {
      "midi": 74,
      "hit": false,
      "t": 124166.6169999996,
      "d": 407.98594791666255,
      "v": 110
    },
    {
      "midi": 58,
      "hit": false,
      "t": 124166.61699999987,
      "d": 407.98594791666255,
      "v": 110
    },
    {
      "midi": 72,
      "hit": false,
      "t": 124583.2834999996,
      "d": 199.6526979166665,
      "v": 110
    },
    {
      "midi": 62,
      "hit": false,
      "t": 124583.28349999986,
      "d": 407.98594791666255,
      "v": 110
    },
    {
      "midi": 70,
      "hit": false,
      "t": 124791.6167499996,
      "d": 1666.6659999999974,
      "v": 110
    },
    {
      "midi": 65,
      "hit": false,
      "t": 124999.94999999985,
      "d": 1458.3327500000014,
      "v": 110
    },
    {
      "midi": 60,
      "hit": false,
      "t": 126666.61599999985,
      "d": 694.444166666668,
      "v": 110
    },
    {
      "midi": 58,
      "hit": false,
      "t": 127499.94899999985,
      "d": 407.98594791666255,
      "v": 110
    },
    {
      "midi": 61,
      "hit": false,
      "t": 127916.61549999984,
      "d": 407.98594791666255,
      "v": 110
    },
    {
      "midi": 73,
      "hit": false,
      "t": 128333.28199999958,
      "d": 694.444166666668,
      "v": 110
    },
    {
      "midi": 65,
      "hit": false,
      "t": 128333.28199999983,
      "d": 2291.66575,
      "v": 110
    },
    {
      "midi": 77,
      "hit": false,
      "t": 129166.61499999958,
      "d": 616.3191979166731,
      "v": 110
    },
    {
      "midi": 79,
      "hit": false,
      "t": 129791.61474999959,
      "d": 616.3191979166731,
      "v": 110
    },
    {
      "midi": 77,
      "hit": false,
      "t": 130416.61449999959,
      "d": 824.6524479166546,
      "v": 110
    },
    {
      "midi": 53,
      "hit": false,
      "t": 130833.28099999983,
      "d": 407.9859479166771,
      "v": 110
    },
    {
      "midi": 72,
      "hit": false,
      "t": 131249.94749999957,
      "d": 1111.1106666666747,
      "v": 110
    },
    {
      "midi": 57,
      "hit": false,
      "t": 131249.94749999983,
      "d": 407.98594791666255,
      "v": 110
    },
    {
      "midi": 60,
      "hit": false,
      "t": 131666.61399999983,
      "d": 2291.6657499999856,
      "v": 110
    },
    {
      "midi": 69,
      "hit": false,
      "t": 132916.61349999957,
      "d": 407.98594791666255,
      "v": 110
    },
    {
      "midi": 70,
      "hit": false,
      "t": 133333.27999999956,
      "d": 407.98594791666255,
      "v": 110
    },
    {
      "midi": 67,
      "hit": false,
      "t": 133749.94649999955,
      "d": 407.98594791666255,
      "v": 110
    },
    {
      "midi": 69,
      "hit": false,
      "t": 134166.61299999955,
      "d": 1458.3327500000014,
      "v": 110
    },
    {
      "midi": 53,
      "hit": false,
      "t": 134166.6129999998,
      "d": 407.98594791666255,
      "v": 110
    },
    {
      "midi": 57,
      "hit": false,
      "t": 134583.2794999998,
      "d": 407.98594791666255,
      "v": 110
    },
    {
      "midi": 60,
      "hit": false,
      "t": 134999.9459999998,
      "d": 2291.6657500000147,
      "v": 110
    },
    {
      "midi": 70,
      "hit": false,
      "t": 135833.27899999954,
      "d": 694.4441666666535,
      "v": 110
    },
    {
      "midi": 72,
      "hit": false,
      "t": 136666.61199999953,
      "d": 694.4441666666535,
      "v": 110
    },
    {
      "midi": 67,
      "hit": false,
      "t": 137499.9449999995,
      "d": 2291.6657500000147,
      "v": 110
    },
    {
      "midi": 74,
      "hit": false,
      "t": 137499.9449999995,
      "d": 2291.6657500000147,
      "v": 110
    },
    {
      "midi": 52,
      "hit": false,
      "t": 137499.9449999998,
      "d": 407.98594791666255,
      "v": 110
    },
    {
      "midi": 55,
      "hit": false,
      "t": 137916.6114999998,
      "d": 407.98594791666255,
      "v": 110
    },
    {
      "midi": 58,
      "hit": false,
      "t": 138333.2779999998,
      "d": 2291.6657500000147,
      "v": 110
    },
    {
      "midi": 73,
      "hit": false,
      "t": 139999.94399999952,
      "d": 407.98594791666255,
      "v": 110
    },
    {
      "midi": 74,
      "hit": false,
      "t": 140416.61049999952,
      "d": 407.98594791666255,
      "v": 110
    },
    {
      "midi": 67,
      "hit": false,
      "t": 140833.2769999995,
      "d": 694.4441666666535,
      "v": 110
    },
    {
      "midi": 76,
      "hit": false,
      "t": 140833.2769999995,
      "d": 694.4441666666535,
      "v": 110
    },
    {
      "midi": 57,
      "hit": false,
      "t": 140833.2769999998,
      "d": 407.98594791666255,
      "v": 110
    },
    {
      "midi": 61,
      "hit": false,
      "t": 141249.9434999998,
      "d": 407.98594791666255,
      "v": 110
    },
    {
      "midi": 64,
      "hit": false,
      "t": 141666.60999999978,
      "d": 2291.6657500000147,
      "v": 110
    },
    {
      "midi": 82,
      "hit": false,
      "t": 142083.27649999948,
      "d": 407.98594791666255,
      "v": 110
    },
    {
      "midi": 81,
      "hit": false,
      "t": 142499.94299999948,
      "d": 407.98594791666255,
      "v": 110
    },
    {
      "midi": 79,
      "hit": false,
      "t": 142916.60949999947,
      "d": 407.98594791666255,
      "v": 110
    },
    {
      "midi": 77,
      "hit": false,
      "t": 143333.27599999946,
      "d": 407.98594791666255,
      "v": 110
    },
    {
      "midi": 76,
      "hit": false,
      "t": 143749.94249999945,
      "d": 407.98594791666255,
      "v": 110
    },
    {
      "midi": 79,
      "hit": false,
      "t": 144166.60899999944,
      "d": 1111.1106666666747,
      "v": 110
    },
    {
      "midi": 62,
      "hit": false,
      "t": 144166.6089999998,
      "d": 407.98594791666255,
      "v": 110
    },
    {
      "midi": 65,
      "hit": false,
      "t": 144583.27549999979,
      "d": 407.98594791666255,
      "v": 110
    },
    {
      "midi": 69,
      "hit": false,
      "t": 144999.94199999978,
      "d": 694.4441666666535,
      "v": 110
    },
    {
      "midi": 77,
      "hit": false,
      "t": 145416.60849999945,
      "d": 199.6526979166665,
      "v": 110
    },
    {
      "midi": 76,
      "hit": false,
      "t": 145624.94174999945,
      "d": 199.6526979166665,
      "v": 110
    },
    {
      "midi": 77,
      "hit": false,
      "t": 145833.27499999944,
      "d": 2361.11016666668,
      "v": 110
    },
    {
      "midi": 60,
      "hit": false,
      "t": 145833.27499999976,
      "d": 407.98594791666255,
      "v": 110
    },
    {
      "midi": 65,
      "hit": false,
      "t": 146249.94149999975,
      "d": 407.98594791666255,
      "v": 110
    },
    {
      "midi": 69,
      "hit": false,
      "t": 146666.60799999975,
      "d": 694.4441666666535,
      "v": 110
    },
    {
      "midi": 59,
      "hit": false,
      "t": 147499.94099999973,
      "d": 407.98594791666255,
      "v": 110
    },
    {
      "midi": 62,
      "hit": false,
      "t": 147916.60749999972,
      "d": 407.98594791666255,
      "v": 110
    },
    {
      "midi": 67,
      "hit": false,
      "t": 148333.2739999997,
      "d": 2291.6657500000147,
      "v": 110
    },
    {
      "midi": 77,
      "hit": false,
      "t": 150416.60649999944,
      "d": 199.6526979166665,
      "v": 110
    },
    {
      "midi": 79,
      "hit": false,
      "t": 150624.93974999944,
      "d": 199.6526979166665,
      "v": 110
    },
    {
      "midi": 81,
      "hit": false,
      "t": 150833.27299999943,
      "d": 616.3191979166586,
      "v": 110
    },
    {
      "midi": 58,
      "hit": false,
      "t": 150833.27299999972,
      "d": 407.98594791666255,
      "v": 110
    },
    {
      "midi": 62,
      "hit": false,
      "t": 151249.93949999972,
      "d": 407.98594791666255,
      "v": 110
    },
    {
      "midi": 74,
      "hit": false,
      "t": 151458.27274999942,
      "d": 199.6526979166665,
      "v": 110
    },
    {
      "midi": 74,
      "hit": false,
      "t": 151666.60599999942,
      "d": 1458.3327500000014,
      "v": 110
    },
    {
      "midi": 65,
      "hit": false,
      "t": 151666.6059999997,
      "d": 1458.3327500000014,
      "v": 110
    },
    {
      "midi": 57,
      "hit": false,
      "t": 153333.2719999997,
      "d": 694.4441666666535,
      "v": 110
    },
    {
      "midi": 77,
      "hit": false,
      "t": 153749.9384999994,
      "d": 199.6526979166665,
      "v": 110
    },
    {
      "midi": 79,
      "hit": false,
      "t": 153958.2717499994,
      "d": 199.6526979166665,
      "v": 110
    },
    {
      "midi": 81,
      "hit": false,
      "t": 154166.6049999994,
      "d": 616.3191979166586,
      "v": 110
    },
    {
      "midi": 55,
      "hit": false,
      "t": 154166.6049999997,
      "d": 407.98594791666255,
      "v": 110
    },
    {
      "midi": 62,
      "hit": false,
      "t": 154583.27149999968,
      "d": 407.98594791666255,
      "v": 110
    },
    {
      "midi": 74,
      "hit": false,
      "t": 154791.6047499994,
      "d": 199.6526979166665,
      "v": 110
    },
    {
      "midi": 74,
      "hit": false,
      "t": 154999.93799999938,
      "d": 1458.3327500000014,
      "v": 110
    },
    {
      "midi": 65,
      "hit": false,
      "t": 154999.93799999967,
      "d": 1458.3327500000014,
      "v": 110
    },
    {
      "midi": 55,
      "hit": false,
      "t": 156666.60399999967,
      "d": 694.4441666666535,
      "v": 110
    },
    {
      "midi": 60,
      "hit": false,
      "t": 157499.93699999966,
      "d": 3124.998749999999,
      "v": 110
    },
    {
      "midi": 70,
      "hit": false,
      "t": 158333.26999999938,
      "d": 407.98594791666255,
      "v": 110
    },
    {
      "midi": 74,
      "hit": false,
      "t": 158333.26999999938,
      "d": 407.98594791666255,
      "v": 110
    },
    {
      "midi": 77,
      "hit": false,
      "t": 158333.26999999938,
      "d": 407.98594791666255,
      "v": 110
    },
    {
      "midi": 77,
      "hit": false,
      "t": 158749.93649999937,
      "d": 407.98594791666255,
      "v": 110
    },
    {
      "midi": 70,
      "hit": false,
      "t": 159166.60299999936,
      "d": 616.3191979166586,
      "v": 110
    },
    {
      "midi": 74,
      "hit": false,
      "t": 159166.60299999936,
      "d": 616.3191979166586,
      "v": 110
    },
    {
      "midi": 77,
      "hit": false,
      "t": 159166.60299999936,
      "d": 616.3191979166586,
      "v": 110
    },
    {
      "midi": 76,
      "hit": false,
      "t": 159791.60274999935,
      "d": 616.3191979166586,
      "v": 110
    },
    {
      "midi": 77,
      "hit": false,
      "t": 160416.60249999934,
      "d": 407.98594791666255,
      "v": 110
    },
    {
      "midi": 70,
      "hit": false,
      "t": 160833.26899999933,
      "d": 2291.6657499999856,
      "v": 110
    },
    {
      "midi": 76,
      "hit": false,
      "t": 160833.26899999933,
      "d": 2291.6657499999856,
      "v": 110
    },
    {
      "midi": 79,
      "hit": false,
      "t": 160833.26899999933,
      "d": 2291.6657499999856,
      "v": 110
    },
    {
      "midi": 60,
      "hit": false,
      "t": 160833.26899999965,
      "d": 2291.6657500000147,
      "v": 110
    },
    {
      "midi": 70,
      "hit": false,
      "t": 163333.2679999993,
      "d": 694.4441666666535,
      "v": 110
    },
    {
      "midi": 76,
      "hit": false,
      "t": 163333.2679999993,
      "d": 694.4441666666535,
      "v": 110
    },
    {
      "midi": 80,
      "hit": false,
      "t": 163333.2679999993,
      "d": 694.4441666666535,
      "v": 110
    },
    {
      "midi": 54,
      "hit": false,
      "t": 163333.26799999966,
      "d": 694.4441666666535,
      "v": 110
    },
    {
      "midi": 81,
      "hit": false,
      "t": 164166.6009999993,
      "d": 407.98594791666255,
      "v": 110
    },
    {
      "midi": 53,
      "hit": false,
      "t": 164166.60099999965,
      "d": 1458.3327500000014,
      "v": 110
    },
    {
      "midi": 60,
      "hit": false,
      "t": 164166.60099999965,
      "d": 1458.3327500000014,
      "v": 110
    },
    {
      "midi": 81,
      "hit": false,
      "t": 164583.2674999993,
      "d": 407.98594791666255,
      "v": 110
    },
    {
      "midi": 81,
      "hit": false,
      "t": 164999.93399999928,
      "d": 407.98594791666255,
      "v": 110
    },
    {
      "midi": 77,
      "hit": false,
      "t": 165416.60049999927,
      "d": 407.98594791666255,
      "v": 110
    },
    {
      "midi": 81,
      "hit": false,
      "t": 165833.26699999926,
      "d": 407.98594791666255,
      "v": 110
    },
    {
      "midi": 58,
      "hit": false,
      "t": 165833.26699999964,
      "d": 1458.3327500000014,
      "v": 110
    },
    {
      "midi": 62,
      "hit": false,
      "t": 165833.26699999964,
      "d": 1458.3327500000014,
      "v": 110
    },
    {
      "midi": 82,
      "hit": false,
      "t": 166249.93349999926,
      "d": 199.6526979166665,
      "v": 110
    },
    {
      "midi": 82,
      "hit": false,
      "t": 166458.26674999925,
      "d": 902.7774166666786,
      "v": 110
    },
    {
      "midi": 79,
      "hit": false,
      "t": 167499.93299999926,
      "d": 407.98594791666255,
      "v": 110
    },
    {
      "midi": 52,
      "hit": false,
      "t": 167499.93299999964,
      "d": 694.4441666666535,
      "v": 110
    },
    {
      "midi": 58,
      "hit": false,
      "t": 167499.93299999964,
      "d": 694.4441666666535,
      "v": 110
    },
    {
      "midi": 79,
      "hit": false,
      "t": 167916.59949999925,
      "d": 407.98594791666255,
      "v": 110
    },
    {
      "midi": 79,
      "hit": false,
      "t": 168333.26599999925,
      "d": 407.98594791666255,
      "v": 110
    },
    {
      "midi": 57,
      "hit": false,
      "t": 168333.26599999962,
      "d": 694.4441666666535,
      "v": 110
    },
    {
      "midi": 61,
      "hit": false,
      "t": 168333.26599999962,
      "d": 694.4441666666535,
      "v": 110
    },
    {
      "midi": 76,
      "hit": false,
      "t": 168749.93249999924,
      "d": 407.98594791666255,
      "v": 110
    },
    {
      "midi": 79,
      "hit": false,
      "t": 169166.59899999923,
      "d": 407.98594791666255,
      "v": 110
    },
    {
      "midi": 62,
      "hit": false,
      "t": 169166.5989999996,
      "d": 1458.3327500000014,
      "v": 110
    },
    {
      "midi": 81,
      "hit": false,
      "t": 169583.26549999922,
      "d": 199.6526979166665,
      "v": 110
    },
    {
      "midi": 81,
      "hit": false,
      "t": 169791.59874999922,
      "d": 902.7774166666786,
      "v": 110
    },
    {
      "midi": 77,
      "hit": false,
      "t": 170833.26499999923,
      "d": 407.98594791666255,
      "v": 110
    },
    {
      "midi": 61,
      "hit": false,
      "t": 170833.2649999996,
      "d": 1458.3327500000014,
      "v": 110
    },
    {
      "midi": 77,
      "hit": false,
      "t": 171249.93149999922,
      "d": 407.98594791666255,
      "v": 110
    },
    {
      "midi": 77,
      "hit": false,
      "t": 171666.5979999992,
      "d": 407.98594791666255,
      "v": 110
    },
    {
      "midi": 80,
      "hit": false,
      "t": 172083.2644999992,
      "d": 407.98594791666255,
      "v": 110
    },
    {
      "midi": 79,
      "hit": false,
      "t": 172499.9309999992,
      "d": 407.98594791666255,
      "v": 110
    },
    {
      "midi": 60,
      "hit": false,
      "t": 172499.9309999996,
      "d": 1458.3327500000014,
      "v": 110
    },
    {
      "midi": 77,
      "hit": false,
      "t": 172916.5974999992,
      "d": 199.6526979166665,
      "v": 110
    },
    {
      "midi": 77,
      "hit": false,
      "t": 173124.93074999918,
      "d": 616.3191979166586,
      "v": 110
    },
    {
      "midi": 77,
      "hit": false,
      "t": 173749.93049999917,
      "d": 199.6526979166665,
      "v": 110
    },
    {
      "midi": 79,
      "hit": false,
      "t": 173958.26374999917,
      "d": 199.6526979166665,
      "v": 110
    },
    {
      "midi": 81,
      "hit": false,
      "t": 174166.59699999916,
      "d": 407.98594791666255,
      "v": 110
    },
    {
      "midi": 59,
      "hit": false,
      "t": 174166.5969999996,
      "d": 1458.3327500000014,
      "v": 110
    },
    {
      "midi": 65,
      "hit": false,
      "t": 174166.5969999996,
      "d": 1458.3327500000014,
      "v": 110
    },
    {
      "midi": 79,
      "hit": false,
      "t": 174583.26349999916,
      "d": 199.6526979166665,
      "v": 110
    },
    {
      "midi": 79,
      "hit": false,
      "t": 174791.59674999915,
      "d": 407.98594791666255,
      "v": 110
    },
    {
      "midi": 81,
      "hit": false,
      "t": 175208.26324999915,
      "d": 407.98594791666255,
      "v": 110
    },
    {
      "midi": 82,
      "hit": false,
      "t": 175624.92974999914,
      "d": 1666.6659999999974,
      "v": 110
    },
    {
      "midi": 58,
      "hit": false,
      "t": 175833.2629999996,
      "d": 694.4441666666535,
      "v": 110
    },
    {
      "midi": 61,
      "hit": false,
      "t": 175833.2629999996,
      "d": 694.4441666666535,
      "v": 110
    },
    {
      "midi": 65,
      "hit": false,
      "t": 175833.2629999996,
      "d": 694.4441666666535,
      "v": 110
    },
    {
      "midi": 60,
      "hit": false,
      "t": 176666.59599999958,
      "d": 694.4441666666535,
      "v": 110
    },
    {
      "midi": 64,
      "hit": false,
      "t": 176666.59599999958,
      "d": 694.4441666666535,
      "v": 110
    },
    {
      "midi": 81,
      "hit": false,
      "t": 177499.92899999913,
      "d": 407.98594791666255,
      "v": 110
    },
    {
      "midi": 53,
      "hit": false,
      "t": 177499.92899999957,
      "d": 694.4441666666535,
      "v": 110
    },
    {
      "midi": 81,
      "hit": false,
      "t": 177916.59549999912,
      "d": 407.98594791666255,
      "v": 110
    },
    {
      "midi": 81,
      "hit": false,
      "t": 178333.26199999911,
      "d": 407.98594791666255,
      "v": 110
    },
    {
      "midi": 65,
      "hit": false,
      "t": 178333.26199999955,
      "d": 407.98594791666255,
      "v": 110
    },
    {
      "midi": 77,
      "hit": false,
      "t": 178749.9284999991,
      "d": 407.98594791666255,
      "v": 110
    },
    {
      "midi": 64,
      "hit": false,
      "t": 178749.92849999954,
      "d": 407.98594791666255,
      "v": 110
    },
    {
      "midi": 81,
      "hit": false,
      "t": 179166.5949999991,
      "d": 407.98594791666255,
      "v": 110
    },
    {
      "midi": 62,
      "hit": false,
      "t": 179166.59499999954,
      "d": 1458.3327500000014,
      "v": 110
    },
    {
      "midi": 82,
      "hit": false,
      "t": 179583.2614999991,
      "d": 199.6526979166665,
      "v": 110
    },
    {
      "midi": 82,
      "hit": false,
      "t": 179791.5947499991,
      "d": 902.7774166666786,
      "v": 110
    },
    {
      "midi": 79,
      "hit": false,
      "t": 180833.2609999991,
      "d": 407.98594791666255,
      "v": 110
    },
    {
      "midi": 64,
      "hit": false,
      "t": 180833.26099999953,
      "d": 694.4441666666535,
      "v": 110
    },
    {
      "midi": 79,
      "hit": false,
      "t": 181249.9274999991,
      "d": 407.98594791666255,
      "v": 110
    },
    {
      "midi": 79,
      "hit": false,
      "t": 181666.59399999908,
      "d": 407.98594791666255,
      "v": 110
    },
    {
      "midi": 61,
      "hit": false,
      "t": 181666.59399999952,
      "d": 694.4441666666535,
      "v": 110
    },
    {
      "midi": 76,
      "hit": false,
      "t": 182083.26049999907,
      "d": 407.98594791666255,
      "v": 110
    },
    {
      "midi": 79,
      "hit": false,
      "t": 182499.92699999906,
      "d": 407.98594791666255,
      "v": 110
    },
    {
      "midi": 62,
      "hit": false,
      "t": 182499.9269999995,
      "d": 694.4441666666535,
      "v": 110
    },
    {
      "midi": 65,
      "hit": false,
      "t": 182499.9269999995,
      "d": 694.4441666666535,
      "v": 110
    },
    {
      "midi": 81,
      "hit": false,
      "t": 182916.59349999906,
      "d": 199.6526979166665,
      "v": 110
    },
    {
      "midi": 81,
      "hit": false,
      "t": 183124.92674999905,
      "d": 616.3191979166586,
      "v": 110
    },
    {
      "midi": 60,
      "hit": false,
      "t": 183333.25999999949,
      "d": 694.4441666666535,
      "v": 110
    },
    {
      "midi": 64,
      "hit": false,
      "t": 183333.25999999949,
      "d": 694.4441666666535,
      "v": 110
    },
    {
      "midi": 77,
      "hit": false,
      "t": 183749.92649999904,
      "d": 199.6526979166665,
      "v": 110
    },
    {
      "midi": 79,
      "hit": false,
      "t": 183958.25974999904,
      "d": 199.6526979166665,
      "v": 110
    },
    {
      "midi": 81,
      "hit": false,
      "t": 184166.59299999903,
      "d": 616.3191979166586,
      "v": 110
    },
    {
      "midi": 58,
      "hit": false,
      "t": 184166.59299999947,
      "d": 1458.3327500000014,
      "v": 110
    },
    {
      "midi": 62,
      "hit": false,
      "t": 184166.59299999947,
      "d": 1458.3327500000014,
      "v": 110
    },
    {
      "midi": 79,
      "hit": false,
      "t": 184791.59274999902,
      "d": 199.6526979166665,
      "v": 110
    },
    {
      "midi": 77,
      "hit": false,
      "t": 184999.92599999902,
      "d": 694.4441666666535,
      "v": 110
    },
    {
      "midi": 62,
      "hit": false,
      "t": 185833.258999999,
      "d": 407.98594791666255,
      "v": 110
    },
    {
      "midi": 69,
      "hit": false,
      "t": 185833.258999999,
      "d": 407.98594791666255,
      "v": 110
    },
    {
      "midi": 46,
      "hit": false,
      "t": 185833.25899999947,
      "d": 407.98594791666255,
      "v": 110
    },
    {
      "midi": 60,
      "hit": false,
      "t": 186249.925499999,
      "d": 407.98594791666255,
      "v": 110
    },
    {
      "midi": 67,
      "hit": false,
      "t": 186249.925499999,
      "d": 407.98594791666255,
      "v": 110
    },
    {
      "midi": 45,
      "hit": false,
      "t": 186249.92549999946,
      "d": 407.98594791666255,
      "v": 110
    },
    {
      "midi": 58,
      "hit": false,
      "t": 187083.25849999898,
      "d": 1874.9992499999935,
      "v": 110
    },
    {
      "midi": 65,
      "hit": false,
      "t": 187083.25849999898,
      "d": 1874.9992499999935,
      "v": 110
    },
    {
      "midi": 43,
      "hit": false,
      "t": 187083.25849999944,
      "d": 1874.9992499999935,
      "v": 110
    },
    {
      "midi": 77,
      "hit": false,
      "t": 189166.59099999897,
      "d": 407.98594791666255,
      "v": 110
    },
    {
      "midi": 48,
      "hit": false,
      "t": 189166.59099999943,
      "d": 694.4441666666535,
      "v": 110
    },
    {
      "midi": 79,
      "hit": false,
      "t": 189583.25749999896,
      "d": 407.98594791666255,
      "v": 110
    },
    {
      "midi": 74,
      "hit": false,
      "t": 189999.92399999895,
      "d": 407.98594791666255,
      "v": 110
    },
    {
      "midi": 48,
      "hit": false,
      "t": 189999.92399999942,
      "d": 694.4441666666535,
      "v": 110
    },
    {
      "midi": 76,
      "hit": false,
      "t": 190416.59049999894,
      "d": 199.6526979166665,
      "v": 110
    },
    {
      "midi": 76,
      "hit": false,
      "t": 190624.92374999894,
      "d": 199.6526979166665,
      "v": 110
    },
    {
      "midi": 70,
      "hit": false,
      "t": 190833.25699999894,
      "d": 1458.3327500000014,
      "v": 110
    },
    {
      "midi": 77,
      "hit": false,
      "t": 190833.25699999894,
      "d": 1458.3327500000014,
      "v": 110
    },
    {
      "midi": 43,
      "hit": false,
      "t": 190833.2569999994,
      "d": 1111.1106666666747,
      "v": 110
    },
    {
      "midi": 43,
      "hit": false,
      "t": 192083.2564999994,
      "d": 407.98594791666255,
      "v": 110
    },
    {
      "midi": 55,
      "hit": false,
      "t": 192916.5894999994,
      "d": 407.98594791666255,
      "v": 110
    },
    {
      "midi": 53,
      "hit": false,
      "t": 193333.25599999938,
      "d": 407.98594791666255,
      "v": 110
    },
    {
      "midi": 69,
      "hit": false,
      "t": 193749.92249999894,
      "d": 1527.7771666666667,
      "v": 110
    },
    {
      "midi": 67,
      "hit": false,
      "t": 195416.58849999894,
      "d": 199.6526979166665,
      "v": 110
    },
    {
      "midi": 51,
      "hit": false,
      "t": 195416.58849999937,
      "d": 407.98594791666255,
      "v": 110
    },
    {
      "midi": 65,
      "hit": false,
      "t": 195624.92174999893,
      "d": 199.6526979166665,
      "v": 110
    },
    {
      "midi": 67,
      "hit": false,
      "t": 195833.25499999893,
      "d": 1458.3327500000014,
      "v": 110
    },
    {
      "midi": 51,
      "hit": false,
      "t": 196249.92149999936,
      "d": 407.98594791666255,
      "v": 110
    },
    {
      "midi": 50,
      "hit": false,
      "t": 196666.58799999935,
      "d": 407.98594791666255,
      "v": 110
    },
    {
      "midi": 48,
      "hit": false,
      "t": 197083.25449999934,
      "d": 1527.7771666666667,
      "v": 110
    },
    {
      "midi": 58,
      "hit": false,
      "t": 197499.92099999893,
      "d": 1458.3327500000014,
      "v": 110
    },
    {
      "midi": 62,
      "hit": false,
      "t": 197499.92099999893,
      "d": 1458.3327500000014,
      "v": 110
    },
    {
      "midi": 65,
      "hit": false,
      "t": 197499.92099999893,
      "d": 1458.3327500000014,
      "v": 110
    },
    {
      "midi": 48,
      "hit": false,
      "t": 198749.92049999934,
      "d": 407.98594791666255,
      "v": 110
    },
    {
      "midi": 74,
      "hit": false,
      "t": 199166.58699999892,
      "d": 616.3191979166586,
      "v": 110
    },
    {
      "midi": 48,
      "hit": false,
      "t": 199166.58699999933,
      "d": 1111.1106666666747,
      "v": 110
    },
    {
      "midi": 76,
      "hit": false,
      "t": 199791.5867499989,
      "d": 616.3191979166586,
      "v": 110
    },
    {
      "midi": 77,
      "hit": false,
      "t": 200416.5864999989,
      "d": 407.98594791666255,
      "v": 110
    },
    {
      "midi": 48,
      "hit": false,
      "t": 200416.58649999934,
      "d": 407.98594791666255,
      "v": 110
    },
    {
      "midi": 70,
      "hit": false,
      "t": 200833.2529999989,
      "d": 2291.6657500000147,
      "v": 110
    },
    {
      "midi": 76,
      "hit": false,
      "t": 200833.2529999989,
      "d": 2291.6657500000147,
      "v": 110
    },
    {
      "midi": 79,
      "hit": false,
      "t": 200833.2529999989,
      "d": 2291.6657500000147,
      "v": 110
    },
    {
      "midi": 48,
      "hit": false,
      "t": 200833.25299999933,
      "d": 2291.6657499999856,
      "v": 110
    },
    {
      "midi": 70,
      "hit": false,
      "t": 203333.2519999989,
      "d": 694.4441666666535,
      "v": 110
    },
    {
      "midi": 76,
      "hit": false,
      "t": 203333.2519999989,
      "d": 694.4441666666535,
      "v": 110
    },
    {
      "midi": 80,
      "hit": false,
      "t": 203333.2519999989,
      "d": 694.4441666666535,
      "v": 110
    },
    {
      "midi": 54,
      "hit": false,
      "t": 203333.2519999993,
      "d": 694.4441666666535,
      "v": 110
    },
    {
      "midi": 81,
      "hit": false,
      "t": 204166.5849999989,
      "d": 407.98594791666255,
      "v": 110
    },
    {
      "midi": 53,
      "hit": false,
      "t": 204166.5849999993,
      "d": 1111.1106666666747,
      "v": 110
    },
    {
      "midi": 60,
      "hit": false,
      "t": 204166.5849999993,
      "d": 1111.1106666666747,
      "v": 110
    },
    {
      "midi": 81,
      "hit": false,
      "t": 204583.25149999888,
      "d": 407.98594791666255,
      "v": 110
    },
    {
      "midi": 81,
      "hit": false,
      "t": 204999.91799999887,
      "d": 407.98594791666255,
      "v": 110
    },
    {
      "midi": 77,
      "hit": false,
      "t": 205416.58449999886,
      "d": 407.98594791666255,
      "v": 110
    },
    {
      "midi": 53,
      "hit": false,
      "t": 205416.5844999993,
      "d": 407.98594791666255,
      "v": 110
    },
    {
      "midi": 81,
      "hit": false,
      "t": 205833.25099999885,
      "d": 407.98594791666255,
      "v": 110
    },
    {
      "midi": 58,
      "hit": false,
      "t": 205833.2509999993,
      "d": 1111.1106666666747,
      "v": 110
    },
    {
      "midi": 62,
      "hit": false,
      "t": 205833.2509999993,
      "d": 1111.1106666666747,
      "v": 110
    },
    {
      "midi": 82,
      "hit": false,
      "t": 206249.91749999885,
      "d": 199.6526979166665,
      "v": 110
    },
    {
      "midi": 82,
      "hit": false,
      "t": 206458.25074999884,
      "d": 902.7774166666786,
      "v": 110
    },
    {
      "midi": 58,
      "hit": false,
      "t": 207083.2504999993,
      "d": 407.98594791666255,
      "v": 110
    },
    {
      "midi": 79,
      "hit": false,
      "t": 207499.91699999885,
      "d": 407.98594791666255,
      "v": 110
    },
    {
      "midi": 52,
      "hit": false,
      "t": 207499.9169999993,
      "d": 694.4441666666535,
      "v": 110
    },
    {
      "midi": 62,
      "hit": false,
      "t": 207499.9169999993,
      "d": 694.4441666666535,
      "v": 110
    },
    {
      "midi": 79,
      "hit": false,
      "t": 207916.58349999884,
      "d": 407.98594791666255,
      "v": 110
    },
    {
      "midi": 79,
      "hit": false,
      "t": 208333.24999999884,
      "d": 407.98594791666255,
      "v": 110
    },
    {
      "midi": 57,
      "hit": false,
      "t": 208333.24999999927,
      "d": 694.4441666666535,
      "v": 110
    },
    {
      "midi": 61,
      "hit": false,
      "t": 208333.24999999927,
      "d": 694.4441666666535,
      "v": 110
    },
    {
      "midi": 76,
      "hit": false,
      "t": 208749.91649999883,
      "d": 407.98594791666255,
      "v": 110
    },
    {
      "midi": 79,
      "hit": false,
      "t": 209166.58299999882,
      "d": 407.98594791666255,
      "v": 110
    },
    {
      "midi": 50,
      "hit": false,
      "t": 209166.58299999926,
      "d": 1111.1106666666747,
      "v": 110
    },
    {
      "midi": 62,
      "hit": false,
      "t": 209166.58299999926,
      "d": 1111.1106666666747,
      "v": 110
    },
    {
      "midi": 81,
      "hit": false,
      "t": 209583.2494999988,
      "d": 199.6526979166665,
      "v": 110
    },
    {
      "midi": 81,
      "hit": false,
      "t": 209791.5827499988,
      "d": 902.7774166666786,
      "v": 110
    },
    {
      "midi": 50,
      "hit": false,
      "t": 210416.58249999926,
      "d": 407.98594791666255,
      "v": 110
    },
    {
      "midi": 77,
      "hit": false,
      "t": 210833.24899999882,
      "d": 407.98594791666255,
      "v": 110
    },
    {
      "midi": 49,
      "hit": false,
      "t": 210833.24899999925,
      "d": 1111.1106666666747,
      "v": 110
    },
    {
      "midi": 77,
      "hit": false,
      "t": 211249.9154999988,
      "d": 407.98594791666255,
      "v": 110
    },
    {
      "midi": 77,
      "hit": false,
      "t": 211666.5819999988,
      "d": 407.98594791666255,
      "v": 110
    },
    {
      "midi": 80,
      "hit": false,
      "t": 212083.2484999988,
      "d": 407.98594791666255,
      "v": 110
    },
    {
      "midi": 49,
      "hit": false,
      "t": 212083.24849999926,
      "d": 407.98594791666255,
      "v": 110
    },
    {
      "midi": 79,
      "hit": false,
      "t": 212499.9149999988,
      "d": 407.98594791666255,
      "v": 110
    },
    {
      "midi": 48,
      "hit": false,
      "t": 212499.91499999925,
      "d": 1111.1106666666747,
      "v": 110
    },
    {
      "midi": 77,
      "hit": false,
      "t": 212916.58149999878,
      "d": 199.6526979166665,
      "v": 110
    },
    {
      "midi": 77,
      "hit": false,
      "t": 213124.91474999877,
      "d": 616.3191979166586,
      "v": 110
    },
    {
      "midi": 77,
      "hit": false,
      "t": 213749.91449999876,
      "d": 199.6526979166665,
      "v": 110
    },
    {
      "midi": 48,
      "hit": false,
      "t": 213749.91449999926,
      "d": 407.98594791666255,
      "v": 110
    },
    {
      "midi": 79,
      "hit": false,
      "t": 213958.24774999876,
      "d": 199.6526979166665,
      "v": 110
    },
    {
      "midi": 74,
      "hit": false,
      "t": 214166.58099999875,
      "d": 407.98594791666255,
      "v": 110
    },
    {
      "midi": 81,
      "hit": false,
      "t": 214166.58099999875,
      "d": 407.98594791666255,
      "v": 110
    },
    {
      "midi": 47,
      "hit": false,
      "t": 214166.58099999925,
      "d": 1111.1106666666747,
      "v": 110
    },
    {
      "midi": 79,
      "hit": false,
      "t": 214583.24749999875,
      "d": 199.6526979166665,
      "v": 110
    },
    {
      "midi": 79,
      "hit": false,
      "t": 214791.58074999874,
      "d": 407.98594791666255,
      "v": 110
    },
    {
      "midi": 81,
      "hit": false,
      "t": 215208.24724999873,
      "d": 407.98594791666255,
      "v": 110
    },
    {
      "midi": 47,
      "hit": false,
      "t": 215416.58049999925,
      "d": 407.98594791666255,
      "v": 110
    },
    {
      "midi": 82,
      "hit": false,
      "t": 215624.91374999873,
      "d": 1666.6659999999683,
      "v": 110
    },
    {
      "midi": 73,
      "hit": false,
      "t": 215833.24699999872,
      "d": 694.4441666666535,
      "v": 110
    },
    {
      "midi": 77,
      "hit": false,
      "t": 215833.24699999872,
      "d": 694.4441666666535,
      "v": 110
    },
    {
      "midi": 46,
      "hit": false,
      "t": 215833.24699999925,
      "d": 694.4441666666535,
      "v": 110
    },
    {
      "midi": 72,
      "hit": false,
      "t": 216666.5799999987,
      "d": 694.4441666666535,
      "v": 110
    },
    {
      "midi": 76,
      "hit": false,
      "t": 216666.5799999987,
      "d": 694.4441666666535,
      "v": 110
    },
    {
      "midi": 48,
      "hit": false,
      "t": 216666.57999999923,
      "d": 694.4441666666535,
      "v": 110
    },
    {
      "midi": 81,
      "hit": false,
      "t": 217499.9129999987,
      "d": 407.98594791666255,
      "v": 110
    },
    {
      "midi": 41,
      "hit": false,
      "t": 217499.91299999921,
      "d": 694.4441666666535,
      "v": 110
    },
    {
      "midi": 81,
      "hit": false,
      "t": 217916.57949999868,
      "d": 407.98594791666255,
      "v": 110
    },
    {
      "midi": 81,
      "hit": false,
      "t": 218333.24599999867,
      "d": 407.98594791666255,
      "v": 110
    },
    {
      "midi": 53,
      "hit": false,
      "t": 218333.2459999992,
      "d": 407.98594791666255,
      "v": 110
    },
    {
      "midi": 77,
      "hit": false,
      "t": 218749.91249999867,
      "d": 407.98594791666255,
      "v": 110
    },
    {
      "midi": 52,
      "hit": false,
      "t": 218749.9124999992,
      "d": 407.98594791666255,
      "v": 110
    },
    {
      "midi": 81,
      "hit": false,
      "t": 219166.57899999866,
      "d": 407.98594791666255,
      "v": 110
    },
    {
      "midi": 50,
      "hit": false,
      "t": 219166.57899999918,
      "d": 1111.1106666666747,
      "v": 110
    },
    {
      "midi": 82,
      "hit": false,
      "t": 219583.24549999865,
      "d": 199.6526979166665,
      "v": 110
    },
    {
      "midi": 82,
      "hit": false,
      "t": 219791.57874999865,
      "d": 902.7774166666786,
      "v": 110
    },
    {
      "midi": 50,
      "hit": false,
      "t": 220416.5784999992,
      "d": 407.98594791666255,
      "v": 110
    },
    {
      "midi": 79,
      "hit": false,
      "t": 220833.24499999866,
      "d": 407.98594791666255,
      "v": 110
    },
    {
      "midi": 52,
      "hit": false,
      "t": 220833.24499999918,
      "d": 694.4441666666535,
      "v": 110
    },
    {
      "midi": 79,
      "hit": false,
      "t": 221249.91149999865,
      "d": 407.98594791666255,
      "v": 110
    },
    {
      "midi": 79,
      "hit": false,
      "t": 221666.57799999864,
      "d": 407.98594791666255,
      "v": 110
    },
    {
      "midi": 49,
      "hit": false,
      "t": 221666.57799999916,
      "d": 694.4441666666535,
      "v": 110
    },
    {
      "midi": 76,
      "hit": false,
      "t": 222083.24449999863,
      "d": 407.98594791666255,
      "v": 110
    },
    {
      "midi": 79,
      "hit": false,
      "t": 222499.91099999862,
      "d": 407.98594791666255,
      "v": 110
    },
    {
      "midi": 50,
      "hit": false,
      "t": 222499.91099999915,
      "d": 694.4441666666535,
      "v": 110
    },
    {
      "midi": 81,
      "hit": false,
      "t": 222916.57749999862,
      "d": 199.6526979166665,
      "v": 110
    },
    {
      "midi": 81,
      "hit": false,
      "t": 223124.9107499986,
      "d": 616.3191979166586,
      "v": 110
    },
    {
      "midi": 48,
      "hit": false,
      "t": 223333.24399999913,
      "d": 694.4441666666535,
      "v": 110
    },
    {
      "midi": 77,
      "hit": false,
      "t": 223749.9104999986,
      "d": 199.6526979166665,
      "v": 110
    },
    {
      "midi": 79,
      "hit": false,
      "t": 223958.2437499986,
      "d": 199.6526979166665,
      "v": 110
    },
    {
      "midi": 74,
      "hit": false,
      "t": 224166.5769999986,
      "d": 616.3191979166586,
      "v": 110
    },
    {
      "midi": 81,
      "hit": false,
      "t": 224166.5769999986,
      "d": 616.3191979166586,
      "v": 110
    },
    {
      "midi": 46,
      "hit": false,
      "t": 224166.57699999912,
      "d": 1458.3327500000014,
      "v": 110
    },
    {
      "midi": 79,
      "hit": false,
      "t": 224791.57674999858,
      "d": 199.6526979166665,
      "v": 110
    },
    {
      "midi": 77,
      "hit": false,
      "t": 224999.90999999858,
      "d": 694.4441666666535,
      "v": 110
    },
    {
      "midi": 62,
      "hit": false,
      "t": 225833.24299999856,
      "d": 407.98594791666255,
      "v": 110
    },
    {
      "midi": 69,
      "hit": false,
      "t": 225833.24299999856,
      "d": 407.98594791666255,
      "v": 110
    },
    {
      "midi": 46,
      "hit": false,
      "t": 225833.2429999991,
      "d": 407.98594791666255,
      "v": 110
    },
    {
      "midi": 60,
      "hit": false,
      "t": 226249.90949999855,
      "d": 407.98594791666255,
      "v": 110
    },
    {
      "midi": 67,
      "hit": false,
      "t": 226249.90949999855,
      "d": 407.98594791666255,
      "v": 110
    },
    {
      "midi": 45,
      "hit": false,
      "t": 226249.9094999991,
      "d": 407.98594791666255,
      "v": 110
    },
    {
      "midi": 58,
      "hit": false,
      "t": 227083.24249999854,
      "d": 1874.9992499999935,
      "v": 110
    },
    {
      "midi": 65,
      "hit": false,
      "t": 227083.24249999854,
      "d": 1874.9992499999935,
      "v": 110
    },
    {
      "midi": 43,
      "hit": false,
      "t": 227083.2424999991,
      "d": 1874.9992499999935,
      "v": 110
    },
    {
      "midi": 77,
      "hit": false,
      "t": 229166.57499999853,
      "d": 407.98594791666255,
      "v": 110
    },
    {
      "midi": 48,
      "hit": false,
      "t": 229166.57499999908,
      "d": 694.4441666666535,
      "v": 110
    },
    {
      "midi": 79,
      "hit": false,
      "t": 229583.24149999852,
      "d": 407.98594791666255,
      "v": 110
    },
    {
      "midi": 74,
      "hit": false,
      "t": 229999.9079999985,
      "d": 407.98594791666255,
      "v": 110
    },
    {
      "midi": 48,
      "hit": false,
      "t": 229999.90799999906,
      "d": 694.4441666666535,
      "v": 110
    },
    {
      "midi": 76,
      "hit": false,
      "t": 230416.5744999985,
      "d": 199.6526979166665,
      "v": 110
    },
    {
      "midi": 76,
      "hit": false,
      "t": 230624.9077499985,
      "d": 199.6526979166665,
      "v": 110
    },
    {
      "midi": 69,
      "hit": false,
      "t": 230833.2409999985,
      "d": 1111.1106666666747,
      "v": 110
    },
    {
      "midi": 77,
      "hit": false,
      "t": 230833.2409999985,
      "d": 1111.1106666666747,
      "v": 110
    },
    {
      "midi": 41,
      "hit": false,
      "t": 230833.24099999905,
      "d": 1111.1106666666747,
      "v": 110
    },
    {
      "midi": 58,
      "hit": false,
      "t": 232083.2404999985,
      "d": 1527.7771666666667,
      "v": 110
    },
    {
      "midi": 62,
      "hit": false,
      "t": 232083.2404999985,
      "d": 1527.7771666666667,
      "v": 110
    },
    {
      "midi": 67,
      "hit": false,
      "t": 232083.2404999985,
      "d": 1527.7771666666667,
      "v": 110
    },
    {
      "midi": 41,
      "hit": false,
      "t": 232083.24049999905,
      "d": 1874.9992499999935,
      "v": 110
    },
    {
      "midi": 65,
      "hit": false,
      "t": 233749.9064999985,
      "d": 199.6526979166665,
      "v": 110
    },
    {
      "midi": 67,
      "hit": false,
      "t": 233958.2397499985,
      "d": 199.6526979166665,
      "v": 110
    },
    {
      "midi": 65,
      "hit": false,
      "t": 234166.5729999985,
      "d": 407.98594791666255,
      "v": 110
    },
    {
      "midi": 69,
      "hit": false,
      "t": 234166.5729999985,
      "d": 407.98594791666255,
      "v": 110
    },
    {
      "midi": 50,
      "hit": false,
      "t": 234166.57299999904,
      "d": 1111.1106666666747,
      "v": 110
    },
    {
      "midi": 70,
      "hit": false,
      "t": 234583.23949999848,
      "d": 407.98594791666255,
      "v": 110
    },
    {
      "midi": 69,
      "hit": false,
      "t": 234999.90599999847,
      "d": 407.98594791666255,
      "v": 110
    },
    {
      "midi": 64,
      "hit": false,
      "t": 235416.57249999847,
      "d": 1111.1106666666747,
      "v": 110
    },
    {
      "midi": 67,
      "hit": false,
      "t": 235416.57249999847,
      "d": 1111.1106666666747,
      "v": 110
    },
    {
      "midi": 48,
      "hit": false,
      "t": 235416.57249999905,
      "d": 1874.9992499999935,
      "v": 110
    },
    {
      "midi": 77,
      "hit": false,
      "t": 236874.90524999847,
      "d": 407.98594791666255,
      "v": 110
    },
    {
      "midi": 79,
      "hit": false,
      "t": 237291.57174999846,
      "d": 199.6526979166665,
      "v": 110
    },
    {
      "midi": 74,
      "hit": false,
      "t": 237499.90499999846,
      "d": 616.3191979166586,
      "v": 110
    },
    {
      "midi": 81,
      "hit": false,
      "t": 237499.90499999846,
      "d": 616.3191979166586,
      "v": 110
    },
    {
      "midi": 46,
      "hit": false,
      "t": 237499.90499999904,
      "d": 1458.3327500000014,
      "v": 110
    },
    {
      "midi": 79,
      "hit": false,
      "t": 238124.90474999844,
      "d": 199.6526979166665,
      "v": 110
    },
    {
      "midi": 77,
      "hit": false,
      "t": 238333.23799999844,
      "d": 694.4441666666535,
      "v": 110
    },
    {
      "midi": 62,
      "hit": false,
      "t": 239166.57099999842,
      "d": 407.98594791666255,
      "v": 110
    },
    {
      "midi": 65,
      "hit": false,
      "t": 239166.57099999842,
      "d": 407.98594791666255,
      "v": 110
    },
    {
      "midi": 46,
      "hit": false,
      "t": 239166.57099999904,
      "d": 407.98594791666255,
      "v": 110
    },
    {
      "midi": 60,
      "hit": false,
      "t": 239583.23749999842,
      "d": 407.98594791666255,
      "v": 110
    },
    {
      "midi": 64,
      "hit": false,
      "t": 239583.23749999842,
      "d": 407.98594791666255,
      "v": 110
    },
    {
      "midi": 45,
      "hit": false,
      "t": 239583.23749999903,
      "d": 407.98594791666255,
      "v": 110
    },
    {
      "midi": 58,
      "hit": false,
      "t": 240416.5704999984,
      "d": 1874.9992499999935,
      "v": 110
    },
    {
      "midi": 62,
      "hit": false,
      "t": 240416.5704999984,
      "d": 1874.9992499999935,
      "v": 110
    },
    {
      "midi": 43,
      "hit": false,
      "t": 240416.570499999,
      "d": 1874.9992499999935,
      "v": 110
    },
    {
      "midi": 77,
      "hit": false,
      "t": 242499.9029999984,
      "d": 407.98594791666255,
      "v": 110
    },
    {
      "midi": 48,
      "hit": false,
      "t": 242499.902999999,
      "d": 4791.664749999996,
      "v": 110
    },
    {
      "midi": 79,
      "hit": false,
      "t": 242916.56949999838,
      "d": 407.98594791666255,
      "v": 110
    },
    {
      "midi": 70,
      "hit": false,
      "t": 243333.23599999837,
      "d": 3124.998749999999,
      "v": 110
    },
    {
      "midi": 74,
      "hit": false,
      "t": 243333.23599999837,
      "d": 3124.998749999999,
      "v": 110
    },
    {
      "midi": 76,
      "hit": false,
      "t": 246666.56799999837,
      "d": 694.4441666666535,
      "v": 110
    },
    {
      "midi": 69,
      "hit": false,
      "t": 247499.90099999835,
      "d": 1111.1106666666747,
      "v": 110
    },
    {
      "midi": 77,
      "hit": false,
      "t": 247499.90099999835,
      "d": 1111.1106666666747,
      "v": 110
    },
    {
      "midi": 53,
      "hit": false,
      "t": 247499.900999999,
      "d": 1458.3327500000014,
      "v": 110
    },
    {
      "midi": 67,
      "hit": false,
      "t": 248749.90049999836,
      "d": 199.6526979166665,
      "v": 110
    },
    {
      "midi": 69,
      "hit": false,
      "t": 248958.23374999836,
      "d": 199.6526979166665,
      "v": 110
    },
    {
      "midi": 70,
      "hit": false,
      "t": 249166.56699999835,
      "d": 694.4441666666535,
      "v": 110
    },
    {
      "midi": 55,
      "hit": false,
      "t": 249166.566999999,
      "d": 1458.3327500000014,
      "v": 110
    },
    {
      "midi": 74,
      "hit": false,
      "t": 249999.89999999834,
      "d": 694.4441666666535,
      "v": 110
    },
    {
      "midi": 65,
      "hit": false,
      "t": 250833.23299999832,
      "d": 1111.1106666666747,
      "v": 110
    },
    {
      "midi": 72,
      "hit": false,
      "t": 250833.23299999832,
      "d": 1111.1106666666747,
      "v": 110
    },
    {
      "midi": 57,
      "hit": false,
      "t": 250833.232999999,
      "d": 1458.3327500000014,
      "v": 110
    },
    {
      "midi": 74,
      "hit": false,
      "t": 252083.23249999832,
      "d": 199.6526979166665,
      "v": 110
    },
    {
      "midi": 65,
      "hit": false,
      "t": 252291.56574999832,
      "d": 902.7774166666786,
      "v": 110
    },
    {
      "midi": 62,
      "hit": false,
      "t": 252499.898999999,
      "d": 694.4441666666535,
      "v": 110
    },
    {
      "midi": 64,
      "hit": false,
      "t": 253333.23199999833,
      "d": 694.4441666666535,
      "v": 110
    },
    {
      "midi": 60,
      "hit": false,
      "t": 253333.23199999897,
      "d": 694.4441666666535,
      "v": 110
    },
    {
      "midi": 62,
      "hit": false,
      "t": 254166.5649999983,
      "d": 1111.1106666666747,
      "v": 110
    },
    {
      "midi": 58,
      "hit": false,
      "t": 254166.56499999895,
      "d": 1458.3327500000014,
      "v": 110
    },
    {
      "midi": 62,
      "hit": false,
      "t": 255416.56449999832,
      "d": 199.6526979166665,
      "v": 110
    },
    {
      "midi": 64,
      "hit": false,
      "t": 255624.89774999832,
      "d": 199.6526979166665,
      "v": 110
    },
    {
      "midi": 65,
      "hit": false,
      "t": 255833.2309999983,
      "d": 407.98594791666255,
      "v": 110
    },
    {
      "midi": 57,
      "hit": false,
      "t": 255833.23099999895,
      "d": 1458.3327500000014,
      "v": 110
    },
    {
      "midi": 60,
      "hit": false,
      "t": 256249.8974999983,
      "d": 407.98594791666255,
      "v": 110
    },
    {
      "midi": 65,
      "hit": false,
      "t": 256666.5639999983,
      "d": 407.98594791666255,
      "v": 110
    },
    {
      "midi": 72,
      "hit": false,
      "t": 257083.2304999983,
      "d": 407.98594791666255,
      "v": 110
    },
    {
      "midi": 65,
      "hit": false,
      "t": 257499.89699999828,
      "d": 616.3191979166586,
      "v": 110
    },
    {
      "midi": 72,
      "hit": false,
      "t": 257499.89699999828,
      "d": 616.3191979166586,
      "v": 110
    },
    {
      "midi": 55,
      "hit": false,
      "t": 257499.89699999895,
      "d": 1111.1106666666747,
      "v": 110
    },
    {
      "midi": 70,
      "hit": false,
      "t": 258124.89674999827,
      "d": 616.3191979166586,
      "v": 110
    },
    {
      "midi": 58,
      "hit": false,
      "t": 258749.89649999826,
      "d": 1874.9992499999935,
      "v": 110
    },
    {
      "midi": 62,
      "hit": false,
      "t": 258749.89649999826,
      "d": 1874.9992499999935,
      "v": 110
    },
    {
      "midi": 55,
      "hit": false,
      "t": 258749.89649999895,
      "d": 1874.9992499999935,
      "v": 110
    },
    {
      "midi": 58,
      "hit": false,
      "t": 260833.22899999825,
      "d": 2291.6657499999856,
      "v": 110
    },
    {
      "midi": 62,
      "hit": false,
      "t": 260833.22899999825,
      "d": 2291.6657499999856,
      "v": 110
    },
    {
      "midi": 65,
      "hit": false,
      "t": 260833.22899999825,
      "d": 2291.6657499999856,
      "v": 110
    },
    {
      "midi": 48,
      "hit": false,
      "t": 260833.22899999894,
      "d": 3124.998750000028,
      "v": 110
    },
    {
      "midi": 67,
      "hit": false,
      "t": 263333.22799999826,
      "d": 694.4441666666535,
      "v": 110
    },
    {
      "midi": 65,
      "hit": false,
      "t": 264166.56099999824,
      "d": 3124.998750000028,
      "v": 110
    },
    {
      "midi": 41,
      "hit": false,
      "t": 264166.560999999,
      "d": 407.98594791669166,
      "v": 110
    },
    {
      "midi": 48,
      "hit": false,
      "t": 264583.22749999905,
      "d": 407.98594791669166,
      "v": 110
    },
    {
      "midi": 55,
      "hit": false,
      "t": 264999.8939999991,
      "d": 407.98594791669166,
      "v": 110
    },
    {
      "midi": 57,
      "hit": false,
      "t": 265416.56049999915,
      "d": 1111.1106666666456,
      "v": 110
    },
    {
      "midi": 58,
      "hit": false,
      "t": 266666.5599999991,
      "d": 694.4441666666535,
      "v": 110
    },
    {
      "midi": 57,
      "hit": false,
      "t": 267499.8929999983,
      "d": 3124.998750000028,
      "v": 110
    },
    {
      "midi": 60,
      "hit": false,
      "t": 267499.8929999983,
      "d": 3124.998750000028,
      "v": 110
    },
    {
      "midi": 65,
      "hit": false,
      "t": 267499.8929999983,
      "d": 3124.998750000028,
      "v": 110
    },
    {
      "midi": 41,
      "hit": false,
      "t": 267499.8929999991,
      "d": 3124.998750000028,
      "v": 110
    }
  ]
}