{
  "jsonPath": "Animes/Fushigi Yuugi MIDI Collection/star.json",
  "path": "Animes\\Fushigi Yuugi MIDI Collection\\Star.mid",
  "name": "Star",
  "difficulty": "Advanced",
  "bpm": 124.000248000496,
  "notes": [
    {
      "midi": 69,
      "hit": false,
      "t": 0,
      "d": 1814.5125,
      "v": 110
    },
    {
      "midi": 74,
      "hit": false,
      "t": 0,
      "d": 1814.5125,
      "v": 110
    },
    {
      "midi": 77,
      "hit": false,
      "t": 0,
      "d": 1814.5125,
      "v": 110
    },
    {
      "midi": 50,
      "hit": false,
      "t": 0,
      "d": 3749.9925000000003,
      "v": 110
    },
    {
      "midi": 57,
      "hit": false,
      "t": 0,
      "d": 3749.9925000000003,
      "v": 110
    },
    {
      "midi": 62,
      "hit": false,
      "t": 0,
      "d": 3749.9925000000003,
      "v": 110
    },
    {
      "midi": 65,
      "hit": false,
      "t": 1935.48,
      "d": 1814.5125000000003,
      "v": 110
    },
    {
      "midi": 69,
      "hit": false,
      "t": 1935.48,
      "d": 1814.5125000000003,
      "v": 110
    },
    {
      "midi": 74,
      "hit": false,
      "t": 1935.48,
      "d": 1814.5125000000003,
      "v": 110
    },
    {
      "midi": 64,
      "hit": false,
      "t": 3870.9600000000005,
      "d": 1814.5125000000003,
      "v": 110
    },
    {
      "midi": 67,
      "hit": false,
      "t": 3870.9600000000005,
      "d": 1814.5125000000003,
      "v": 110
    },
    {
      "midi": 72,
      "hit": false,
      "t": 3870.9600000000005,
      "d": 1814.5125000000003,
      "v": 110
    },
    {
      "midi": 50,
      "hit": false,
      "t": 3870.9600000000005,
      "d": 3749.9925000000007,
      "v": 110
    },
    {
      "midi": 55,
      "hit": false,
      "t": 3870.9600000000005,
      "d": 3749.9925000000007,
      "v": 110
    },
    {
      "midi": 60,
      "hit": false,
      "t": 3870.9600000000005,
      "d": 3749.9925000000007,
      "v": 110
    },
    {
      "midi": 72,
      "hit": false,
      "t": 5806.4400000000005,
      "d": 846.7725,
      "v": 110
    },
    {
      "midi": 76,
      "hit": false,
      "t": 5806.4400000000005,
      "d": 846.7725,
      "v": 110
    },
    {
      "midi": 79,
      "hit": false,
      "t": 5806.4400000000005,
      "d": 846.7725,
      "v": 110
    },
    {
      "midi": 76,
      "hit": false,
      "t": 6774.18,
      "d": 846.7725,
      "v": 110
    },
    {
      "midi": 79,
      "hit": false,
      "t": 6774.18,
      "d": 846.7725,
      "v": 110
    },
    {
      "midi": 84,
      "hit": false,
      "t": 6774.18,
      "d": 846.7725,
      "v": 110
    },
    {
      "midi": 77,
      "hit": false,
      "t": 7741.92,
      "d": 3749.9925000000003,
      "v": 110
    },
    {
      "midi": 82,
      "hit": false,
      "t": 7741.92,
      "d": 3749.9925000000003,
      "v": 110
    },
    {
      "midi": 86,
      "hit": false,
      "t": 7741.92,
      "d": 3749.9925000000003,
      "v": 110
    },
    {
      "midi": 50,
      "hit": false,
      "t": 7741.920000000001,
      "d": 3749.992500000001,
      "v": 110
    },
    {
      "midi": 58,
      "hit": false,
      "t": 7741.920000000001,
      "d": 3749.992500000001,
      "v": 110
    },
    {
      "midi": 62,
      "hit": false,
      "t": 7741.920000000001,
      "d": 3749.992500000001,
      "v": 110
    },
    {
      "midi": 81,
      "hit": false,
      "t": 11612.880000000001,
      "d": 1814.5125000000007,
      "v": 110
    },
    {
      "midi": 88,
      "hit": false,
      "t": 11612.880000000001,
      "d": 1814.5125000000007,
      "v": 110
    },
    {
      "midi": 49,
      "hit": false,
      "t": 11612.880000000003,
      "d": 1814.5125000000007,
      "v": 110
    },
    {
      "midi": 57,
      "hit": false,
      "t": 11612.880000000003,
      "d": 3749.992500000002,
      "v": 110
    },
    {
      "midi": 81,
      "hit": false,
      "t": 13548.360000000002,
      "d": 1814.5125000000007,
      "v": 110
    },
    {
      "midi": 93,
      "hit": false,
      "t": 13548.360000000002,
      "d": 1814.5125000000007,
      "v": 110
    },
    {
      "midi": 47,
      "hit": false,
      "t": 13548.360000000004,
      "d": 846.7724999999991,
      "v": 110
    },
    {
      "midi": 49,
      "hit": false,
      "t": 14516.100000000004,
      "d": 846.772500000001,
      "v": 110
    },
    {
      "midi": 77,
      "hit": false,
      "t": 15483.840000000004,
      "d": 3749.9925000000003,
      "v": 110
    },
    {
      "midi": 86,
      "hit": false,
      "t": 15483.840000000004,
      "d": 3749.9925000000003,
      "v": 110
    },
    {
      "midi": 50,
      "hit": false,
      "t": 15483.840000000006,
      "d": 403.22500000000036,
      "v": 110
    },
    {
      "midi": 50,
      "hit": false,
      "t": 15967.710000000006,
      "d": 403.22500000000036,
      "v": 110
    },
    {
      "midi": 50,
      "hit": false,
      "t": 16451.580000000005,
      "d": 403.22499999999854,
      "v": 110
    },
    {
      "midi": 50,
      "hit": false,
      "t": 16935.450000000004,
      "d": 403.22499999999854,
      "v": 110
    },
    {
      "midi": 50,
      "hit": false,
      "t": 17419.320000000003,
      "d": 403.22499999999854,
      "v": 110
    },
    {
      "midi": 50,
      "hit": false,
      "t": 17903.190000000002,
      "d": 403.22499999999854,
      "v": 110
    },
    {
      "midi": 50,
      "hit": false,
      "t": 18387.06,
      "d": 403.22499999999854,
      "v": 110
    },
    {
      "midi": 50,
      "hit": false,
      "t": 18870.93,
      "d": 403.22499999999854,
      "v": 110
    },
    {
      "midi": 45,
      "hit": false,
      "t": 19354.8,
      "d": 3749.992499999993,
      "v": 110
    },
    {
      "midi": 69,
      "hit": false,
      "t": 19354.800000000003,
      "d": 645.1599999999999,
      "v": 110
    },
    {
      "midi": 52,
      "hit": false,
      "t": 19838.67,
      "d": 403.22499999999854,
      "v": 110
    },
    {
      "midi": 55,
      "hit": false,
      "t": 19838.67,
      "d": 403.22499999999854,
      "v": 110
    },
    {
      "midi": 67,
      "hit": false,
      "t": 20080.605000000003,
      "d": 115.92718750000131,
      "v": 110
    },
    {
      "midi": 69,
      "hit": false,
      "t": 20201.572500000006,
      "d": 115.92718750000131,
      "v": 110
    },
    {
      "midi": 52,
      "hit": false,
      "t": 20322.539999999997,
      "d": 403.22499999999854,
      "v": 110
    },
    {
      "midi": 55,
      "hit": false,
      "t": 20322.539999999997,
      "d": 403.22499999999854,
      "v": 110
    },
    {
      "midi": 67,
      "hit": false,
      "t": 20322.540000000008,
      "d": 645.1599999999999,
      "v": 110
    },
    {
      "midi": 52,
      "hit": false,
      "t": 20806.409999999996,
      "d": 403.22499999999854,
      "v": 110
    },
    {
      "midi": 55,
      "hit": false,
      "t": 20806.409999999996,
      "d": 403.22499999999854,
      "v": 110
    },
    {
      "midi": 66,
      "hit": false,
      "t": 21048.34500000001,
      "d": 115.92718750000131,
      "v": 110
    },
    {
      "midi": 67,
      "hit": false,
      "t": 21169.31250000001,
      "d": 115.92718750000131,
      "v": 110
    },
    {
      "midi": 52,
      "hit": false,
      "t": 21290.279999999995,
      "d": 403.22499999999854,
      "v": 110
    },
    {
      "midi": 55,
      "hit": false,
      "t": 21290.279999999995,
      "d": 403.22499999999854,
      "v": 110
    },
    {
      "midi": 66,
      "hit": false,
      "t": 21290.280000000013,
      "d": 645.1599999999999,
      "v": 110
    },
    {
      "midi": 52,
      "hit": false,
      "t": 21774.149999999994,
      "d": 403.22499999999854,
      "v": 110
    },
    {
      "midi": 55,
      "hit": false,
      "t": 21774.149999999994,
      "d": 403.22499999999854,
      "v": 110
    },
    {
      "midi": 64,
      "hit": false,
      "t": 22016.085000000014,
      "d": 115.92718750000131,
      "v": 110
    },
    {
      "midi": 66,
      "hit": false,
      "t": 22137.052500000016,
      "d": 115.92718750000131,
      "v": 110
    },
    {
      "midi": 52,
      "hit": false,
      "t": 22258.019999999993,
      "d": 403.22499999999854,
      "v": 110
    },
    {
      "midi": 55,
      "hit": false,
      "t": 22258.019999999993,
      "d": 403.22499999999854,
      "v": 110
    },
    {
      "midi": 64,
      "hit": false,
      "t": 22258.02000000002,
      "d": 403.22499999999854,
      "v": 110
    },
    {
      "midi": 52,
      "hit": false,
      "t": 22741.889999999992,
      "d": 403.22499999999854,
      "v": 110
    },
    {
      "midi": 55,
      "hit": false,
      "t": 22741.889999999992,
      "d": 403.22499999999854,
      "v": 110
    },
    {
      "midi": 60,
      "hit": false,
      "t": 22741.890000000018,
      "d": 403.22499999999854,
      "v": 110
    },
    {
      "midi": 50,
      "hit": false,
      "t": 23225.75999999999,
      "d": 403.22499999999854,
      "v": 110
    },
    {
      "midi": 54,
      "hit": false,
      "t": 23225.75999999999,
      "d": 403.22499999999854,
      "v": 110
    },
    {
      "midi": 62,
      "hit": false,
      "t": 23225.760000000017,
      "d": 846.7724999999991,
      "v": 110
    },
    {
      "midi": 50,
      "hit": false,
      "t": 23709.62999999999,
      "d": 403.22499999999854,
      "v": 110
    },
    {
      "midi": 54,
      "hit": false,
      "t": 23709.62999999999,
      "d": 403.22499999999854,
      "v": 110
    },
    {
      "midi": 50,
      "hit": false,
      "t": 24193.49999999999,
      "d": 403.22499999999854,
      "v": 110
    },
    {
      "midi": 54,
      "hit": false,
      "t": 24193.49999999999,
      "d": 403.22499999999854,
      "v": 110
    },
    {
      "midi": 57,
      "hit": false,
      "t": 24193.500000000015,
      "d": 2782.2524999999987,
      "v": 110
    },
    {
      "midi": 50,
      "hit": false,
      "t": 24677.369999999988,
      "d": 403.22499999999854,
      "v": 110
    },
    {
      "midi": 54,
      "hit": false,
      "t": 24677.369999999988,
      "d": 403.22499999999854,
      "v": 110
    },
    {
      "midi": 50,
      "hit": false,
      "t": 25161.239999999987,
      "d": 403.22499999999854,
      "v": 110
    },
    {
      "midi": 54,
      "hit": false,
      "t": 25161.239999999987,
      "d": 403.22499999999854,
      "v": 110
    },
    {
      "midi": 50,
      "hit": false,
      "t": 25645.109999999986,
      "d": 403.22499999999854,
      "v": 110
    },
    {
      "midi": 54,
      "hit": false,
      "t": 25645.109999999986,
      "d": 403.22499999999854,
      "v": 110
    },
    {
      "midi": 50,
      "hit": false,
      "t": 26128.979999999985,
      "d": 403.22499999999854,
      "v": 110
    },
    {
      "midi": 54,
      "hit": false,
      "t": 26128.979999999985,
      "d": 403.22499999999854,
      "v": 110
    },
    {
      "midi": 50,
      "hit": false,
      "t": 26612.849999999984,
      "d": 403.22499999999854,
      "v": 110
    },
    {
      "midi": 54,
      "hit": false,
      "t": 26612.849999999984,
      "d": 403.22499999999854,
      "v": 110
    },
    {
      "midi": 45,
      "hit": false,
      "t": 27096.719999999983,
      "d": 3749.992499999993,
      "v": 110
    },
    {
      "midi": 69,
      "hit": false,
      "t": 27096.720000000012,
      "d": 645.1599999999999,
      "v": 110
    },
    {
      "midi": 52,
      "hit": false,
      "t": 27580.589999999982,
      "d": 403.22499999999854,
      "v": 110
    },
    {
      "midi": 55,
      "hit": false,
      "t": 27580.589999999982,
      "d": 403.22499999999854,
      "v": 110
    },
    {
      "midi": 67,
      "hit": false,
      "t": 27822.525000000012,
      "d": 115.92718750000131,
      "v": 110
    },
    {
      "midi": 69,
      "hit": false,
      "t": 27943.492500000015,
      "d": 115.92718750000131,
      "v": 110
    },
    {
      "midi": 52,
      "hit": false,
      "t": 28064.45999999998,
      "d": 403.22499999999854,
      "v": 110
    },
    {
      "midi": 55,
      "hit": false,
      "t": 28064.45999999998,
      "d": 403.22499999999854,
      "v": 110
    },
    {
      "midi": 67,
      "hit": false,
      "t": 28064.460000000017,
      "d": 645.1599999999999,
      "v": 110
    },
    {
      "midi": 52,
      "hit": false,
      "t": 28548.32999999998,
      "d": 403.22499999999854,
      "v": 110
    },
    {
      "midi": 55,
      "hit": false,
      "t": 28548.32999999998,
      "d": 403.22499999999854,
      "v": 110
    },
    {
      "midi": 66,
      "hit": false,
      "t": 28790.265000000018,
      "d": 115.92718750000131,
      "v": 110
    },
    {
      "midi": 67,
      "hit": false,
      "t": 28911.23250000002,
      "d": 115.92718750000131,
      "v": 110
    },
    {
      "midi": 52,
      "hit": false,
      "t": 29032.19999999998,
      "d": 403.22499999999854,
      "v": 110
    },
    {
      "midi": 55,
      "hit": false,
      "t": 29032.19999999998,
      "d": 403.22499999999854,
      "v": 110
    },
    {
      "midi": 66,
      "hit": false,
      "t": 29032.200000000023,
      "d": 645.1599999999999,
      "v": 110
    },
    {
      "midi": 52,
      "hit": false,
      "t": 29516.069999999978,
      "d": 403.22499999999854,
      "v": 110
    },
    {
      "midi": 55,
      "hit": false,
      "t": 29516.069999999978,
      "d": 403.22499999999854,
      "v": 110
    },
    {
      "midi": 64,
      "hit": false,
      "t": 29758.005000000023,
      "d": 115.92718750000131,
      "v": 110
    },
    {
      "midi": 66,
      "hit": false,
      "t": 29878.972500000025,
      "d": 115.92718750000131,
      "v": 110
    },
    {
      "midi": 52,
      "hit": false,
      "t": 29999.939999999977,
      "d": 403.22499999999854,
      "v": 110
    },
    {
      "midi": 55,
      "hit": false,
      "t": 29999.939999999977,
      "d": 403.22499999999854,
      "v": 110
    },
    {
      "midi": 64,
      "hit": false,
      "t": 29999.940000000028,
      "d": 403.22499999999854,
      "v": 110
    },
    {
      "midi": 52,
      "hit": false,
      "t": 30483.809999999976,
      "d": 403.22499999999854,
      "v": 110
    },
    {
      "midi": 55,
      "hit": false,
      "t": 30483.809999999976,
      "d": 403.22499999999854,
      "v": 110
    },
    {
      "midi": 60,
      "hit": false,
      "t": 30483.810000000027,
      "d": 403.22499999999854,
      "v": 110
    },
    {
      "midi": 50,
      "hit": false,
      "t": 30967.679999999975,
      "d": 403.22499999999854,
      "v": 110
    },
    {
      "midi": 54,
      "hit": false,
      "t": 30967.679999999975,
      "d": 403.22499999999854,
      "v": 110
    },
    {
      "midi": 62,
      "hit": false,
      "t": 30967.680000000026,
      "d": 846.7724999999991,
      "v": 110
    },
    {
      "midi": 50,
      "hit": false,
      "t": 31451.549999999974,
      "d": 403.22499999999854,
      "v": 110
    },
    {
      "midi": 54,
      "hit": false,
      "t": 31451.549999999974,
      "d": 403.22499999999854,
      "v": 110
    },
    {
      "midi": 50,
      "hit": false,
      "t": 31935.419999999973,
      "d": 403.22499999999854,
      "v": 110
    },
    {
      "midi": 54,
      "hit": false,
      "t": 31935.419999999973,
      "d": 403.22499999999854,
      "v": 110
    },
    {
      "midi": 57,
      "hit": false,
      "t": 31935.420000000024,
      "d": 1814.5125000000007,
      "v": 110
    },
    {
      "midi": 50,
      "hit": false,
      "t": 32419.28999999997,
      "d": 403.22499999999854,
      "v": 110
    },
    {
      "midi": 54,
      "hit": false,
      "t": 32419.28999999997,
      "d": 403.22499999999854,
      "v": 110
    },
    {
      "midi": 50,
      "hit": false,
      "t": 32903.15999999997,
      "d": 403.22499999999854,
      "v": 110
    },
    {
      "midi": 54,
      "hit": false,
      "t": 32903.15999999997,
      "d": 403.22499999999854,
      "v": 110
    },
    {
      "midi": 50,
      "hit": false,
      "t": 33387.02999999996,
      "d": 403.22499999999854,
      "v": 110
    },
    {
      "midi": 54,
      "hit": false,
      "t": 33387.02999999996,
      "d": 403.22499999999854,
      "v": 110
    },
    {
      "midi": 50,
      "hit": false,
      "t": 33870.89999999996,
      "d": 403.22499999999854,
      "v": 110
    },
    {
      "midi": 54,
      "hit": false,
      "t": 33870.89999999996,
      "d": 403.22499999999854,
      "v": 110
    },
    {
      "midi": 57,
      "hit": false,
      "t": 33870.90000000002,
      "d": 403.22499999999854,
      "v": 110
    },
    {
      "midi": 50,
      "hit": false,
      "t": 34354.76999999995,
      "d": 403.22499999999854,
      "v": 110
    },
    {
      "midi": 54,
      "hit": false,
      "t": 34354.76999999995,
      "d": 403.22499999999854,
      "v": 110
    },
    {
      "midi": 57,
      "hit": false,
      "t": 34354.77000000002,
      "d": 403.22499999999854,
      "v": 110
    },
    {
      "midi": 43,
      "hit": false,
      "t": 34838.63999999995,
      "d": 403.22499999999854,
      "v": 110
    },
    {
      "midi": 50,
      "hit": false,
      "t": 34838.63999999995,
      "d": 403.22499999999854,
      "v": 110
    },
    {
      "midi": 58,
      "hit": false,
      "t": 34838.640000000014,
      "d": 357.8621875000026,
      "v": 110
    },
    {
      "midi": 60,
      "hit": false,
      "t": 35201.54250000002,
      "d": 357.8621875000026,
      "v": 110
    },
    {
      "midi": 43,
      "hit": false,
      "t": 35322.509999999944,
      "d": 403.22499999999854,
      "v": 110
    },
    {
      "midi": 50,
      "hit": false,
      "t": 35322.509999999944,
      "d": 403.22499999999854,
      "v": 110
    },
    {
      "midi": 62,
      "hit": false,
      "t": 35564.44500000002,
      "d": 236.8946874999965,
      "v": 110
    },
    {
      "midi": 43,
      "hit": false,
      "t": 35806.37999999994,
      "d": 403.22499999999854,
      "v": 110
    },
    {
      "midi": 50,
      "hit": false,
      "t": 35806.37999999994,
      "d": 403.22499999999854,
      "v": 110
    },
    {
      "midi": 65,
      "hit": false,
      "t": 35806.38000000002,
      "d": 357.8621875000026,
      "v": 110
    },
    {
      "midi": 62,
      "hit": false,
      "t": 36169.28250000002,
      "d": 357.8621875000026,
      "v": 110
    },
    {
      "midi": 43,
      "hit": false,
      "t": 36290.249999999935,
      "d": 403.22499999999854,
      "v": 110
    },
    {
      "midi": 50,
      "hit": false,
      "t": 36290.249999999935,
      "d": 403.22499999999854,
      "v": 110
    },
    {
      "midi": 65,
      "hit": false,
      "t": 36532.18500000003,
      "d": 236.8946874999965,
      "v": 110
    },
    {
      "midi": 45,
      "hit": false,
      "t": 36774.11999999993,
      "d": 403.22499999999854,
      "v": 110
    },
    {
      "midi": 49,
      "hit": false,
      "t": 36774.11999999993,
      "d": 403.22499999999854,
      "v": 110
    },
    {
      "midi": 52,
      "hit": false,
      "t": 36774.11999999993,
      "d": 403.22499999999854,
      "v": 110
    },
    {
      "midi": 64,
      "hit": false,
      "t": 36774.120000000024,
      "d": 846.7724999999991,
      "v": 110
    },
    {
      "midi": 45,
      "hit": false,
      "t": 37257.989999999925,
      "d": 403.22499999999854,
      "v": 110
    },
    {
      "midi": 49,
      "hit": false,
      "t": 37257.989999999925,
      "d": 403.22499999999854,
      "v": 110
    },
    {
      "midi": 52,
      "hit": false,
      "t": 37257.989999999925,
      "d": 403.22499999999854,
      "v": 110
    },
    {
      "midi": 45,
      "hit": false,
      "t": 37741.85999999992,
      "d": 403.22499999999854,
      "v": 110
    },
    {
      "midi": 49,
      "hit": false,
      "t": 37741.85999999992,
      "d": 403.22499999999854,
      "v": 110
    },
    {
      "midi": 52,
      "hit": false,
      "t": 37741.85999999992,
      "d": 403.22499999999854,
      "v": 110
    },
    {
      "midi": 61,
      "hit": false,
      "t": 37741.86000000002,
      "d": 403.22499999999854,
      "v": 110
    },
    {
      "midi": 45,
      "hit": false,
      "t": 38225.729999999916,
      "d": 403.22499999999854,
      "v": 110
    },
    {
      "midi": 49,
      "hit": false,
      "t": 38225.729999999916,
      "d": 403.22499999999854,
      "v": 110
    },
    {
      "midi": 52,
      "hit": false,
      "t": 38225.729999999916,
      "d": 403.22499999999854,
      "v": 110
    },
    {
      "midi": 43,
      "hit": false,
      "t": 38709.59999999991,
      "d": 403.22499999999854,
      "v": 110
    },
    {
      "midi": 50,
      "hit": false,
      "t": 38709.59999999991,
      "d": 403.22499999999854,
      "v": 110
    },
    {
      "midi": 53,
      "hit": false,
      "t": 38709.59999999991,
      "d": 403.22499999999854,
      "v": 110
    },
    {
      "midi": 58,
      "hit": false,
      "t": 38709.60000000002,
      "d": 357.8621875000026,
      "v": 110
    },
    {
      "midi": 60,
      "hit": false,
      "t": 39072.502500000024,
      "d": 357.8621875000026,
      "v": 110
    },
    {
      "midi": 43,
      "hit": false,
      "t": 39193.46999999991,
      "d": 403.22499999999854,
      "v": 110
    },
    {
      "midi": 50,
      "hit": false,
      "t": 39193.46999999991,
      "d": 403.22499999999854,
      "v": 110
    },
    {
      "midi": 53,
      "hit": false,
      "t": 39193.46999999991,
      "d": 403.22499999999854,
      "v": 110
    },
    {
      "midi": 62,
      "hit": false,
      "t": 39435.40500000003,
      "d": 236.8946874999965,
      "v": 110
    },
    {
      "midi": 43,
      "hit": false,
      "t": 39677.3399999999,
      "d": 403.22499999999854,
      "v": 110
    },
    {
      "midi": 50,
      "hit": false,
      "t": 39677.3399999999,
      "d": 403.22499999999854,
      "v": 110
    },
    {
      "midi": 53,
      "hit": false,
      "t": 39677.3399999999,
      "d": 403.22499999999854,
      "v": 110
    },
    {
      "midi": 65,
      "hit": false,
      "t": 39677.340000000026,
      "d": 403.22499999999854,
      "v": 110
    },
    {
      "midi": 43,
      "hit": false,
      "t": 40161.2099999999,
      "d": 403.22499999999854,
      "v": 110
    },
    {
      "midi": 50,
      "hit": false,
      "t": 40161.2099999999,
      "d": 403.22499999999854,
      "v": 110
    },
    {
      "midi": 53,
      "hit": false,
      "t": 40161.2099999999,
      "d": 403.22499999999854,
      "v": 110
    },
    {
      "midi": 67,
      "hit": false,
      "t": 40161.21000000002,
      "d": 403.22499999999854,
      "v": 110
    },
    {
      "midi": 45,
      "hit": false,
      "t": 40645.07999999989,
      "d": 403.22499999999854,
      "v": 110
    },
    {
      "midi": 49,
      "hit": false,
      "t": 40645.07999999989,
      "d": 403.22499999999854,
      "v": 110
    },
    {
      "midi": 52,
      "hit": false,
      "t": 40645.07999999989,
      "d": 403.22499999999854,
      "v": 110
    },
    {
      "midi": 64,
      "hit": false,
      "t": 40645.080000000016,
      "d": 1330.6425000000017,
      "v": 110
    },
    {
      "midi": 45,
      "hit": false,
      "t": 41128.94999999989,
      "d": 403.22499999999854,
      "v": 110
    },
    {
      "midi": 49,
      "hit": false,
      "t": 41128.94999999989,
      "d": 403.22499999999854,
      "v": 110
    },
    {
      "midi": 52,
      "hit": false,
      "t": 41128.94999999989,
      "d": 403.22499999999854,
      "v": 110
    },
    {
      "midi": 45,
      "hit": false,
      "t": 41612.81999999988,
      "d": 403.22499999999854,
      "v": 110
    },
    {
      "midi": 49,
      "hit": false,
      "t": 41612.81999999988,
      "d": 403.22499999999854,
      "v": 110
    },
    {
      "midi": 52,
      "hit": false,
      "t": 41612.81999999988,
      "d": 403.22499999999854,
      "v": 110
    },
    {
      "midi": 45,
      "hit": false,
      "t": 42096.68999999988,
      "d": 403.22499999999854,
      "v": 110
    },
    {
      "midi": 49,
      "hit": false,
      "t": 42096.68999999988,
      "d": 403.22499999999854,
      "v": 110
    },
    {
      "midi": 52,
      "hit": false,
      "t": 42096.68999999988,
      "d": 403.22499999999854,
      "v": 110
    },
    {
      "midi": 46,
      "hit": false,
      "t": 42580.559999999874,
      "d": 403.22499999999854,
      "v": 110
    },
    {
      "midi": 50,
      "hit": false,
      "t": 42580.559999999874,
      "d": 403.22499999999854,
      "v": 110
    },
    {
      "midi": 53,
      "hit": false,
      "t": 42580.559999999874,
      "d": 403.22499999999854,
      "v": 110
    },
    {
      "midi": 62,
      "hit": false,
      "t": 42580.56000000002,
      "d": 357.8621875000026,
      "v": 110
    },
    {
      "midi": 64,
      "hit": false,
      "t": 42943.46250000002,
      "d": 357.8621875000026,
      "v": 110
    },
    {
      "midi": 46,
      "hit": false,
      "t": 43064.42999999987,
      "d": 403.22499999999854,
      "v": 110
    },
    {
      "midi": 50,
      "hit": false,
      "t": 43064.42999999987,
      "d": 403.22499999999854,
      "v": 110
    },
    {
      "midi": 53,
      "hit": false,
      "t": 43064.42999999987,
      "d": 403.22499999999854,
      "v": 110
    },
    {
      "midi": 65,
      "hit": false,
      "t": 43306.36500000003,
      "d": 236.8946874999965,
      "v": 110
    },
    {
      "midi": 46,
      "hit": false,
      "t": 43548.299999999865,
      "d": 403.22499999999854,
      "v": 110
    },
    {
      "midi": 50,
      "hit": false,
      "t": 43548.299999999865,
      "d": 403.22499999999854,
      "v": 110
    },
    {
      "midi": 53,
      "hit": false,
      "t": 43548.299999999865,
      "d": 403.22499999999854,
      "v": 110
    },
    {
      "midi": 69,
      "hit": false,
      "t": 43548.300000000025,
      "d": 357.8621875000026,
      "v": 110
    },
    {
      "midi": 65,
      "hit": false,
      "t": 43911.20250000003,
      "d": 357.8621875000026,
      "v": 110
    },
    {
      "midi": 46,
      "hit": false,
      "t": 44032.16999999986,
      "d": 403.22499999999854,
      "v": 110
    },
    {
      "midi": 50,
      "hit": false,
      "t": 44032.16999999986,
      "d": 403.22499999999854,
      "v": 110
    },
    {
      "midi": 53,
      "hit": false,
      "t": 44032.16999999986,
      "d": 403.22499999999854,
      "v": 110
    },
    {
      "midi": 69,
      "hit": false,
      "t": 44274.10500000003,
      "d": 236.8946874999965,
      "v": 110
    },
    {
      "midi": 48,
      "hit": false,
      "t": 44516.039999999855,
      "d": 403.22499999999854,
      "v": 110
    },
    {
      "midi": 52,
      "hit": false,
      "t": 44516.039999999855,
      "d": 403.22499999999854,
      "v": 110
    },
    {
      "midi": 55,
      "hit": false,
      "t": 44516.039999999855,
      "d": 403.22499999999854,
      "v": 110
    },
    {
      "midi": 67,
      "hit": false,
      "t": 44516.04000000003,
      "d": 403.22499999999854,
      "v": 110
    },
    {
      "midi": 48,
      "hit": false,
      "t": 44999.90999999985,
      "d": 403.22499999999854,
      "v": 110
    },
    {
      "midi": 52,
      "hit": false,
      "t": 44999.90999999985,
      "d": 403.22499999999854,
      "v": 110
    },
    {
      "midi": 55,
      "hit": false,
      "t": 44999.90999999985,
      "d": 403.22499999999854,
      "v": 110
    },
    {
      "midi": 48,
      "hit": false,
      "t": 45483.779999999846,
      "d": 403.22499999999854,
      "v": 110
    },
    {
      "midi": 52,
      "hit": false,
      "t": 45483.779999999846,
      "d": 403.22499999999854,
      "v": 110
    },
    {
      "midi": 55,
      "hit": false,
      "t": 45483.779999999846,
      "d": 403.22499999999854,
      "v": 110
    },
    {
      "midi": 64,
      "hit": false,
      "t": 45483.78000000003,
      "d": 403.22499999999854,
      "v": 110
    },
    {
      "midi": 48,
      "hit": false,
      "t": 45967.64999999984,
      "d": 403.22499999999854,
      "v": 110
    },
    {
      "midi": 52,
      "hit": false,
      "t": 45967.64999999984,
      "d": 403.22499999999854,
      "v": 110
    },
    {
      "midi": 55,
      "hit": false,
      "t": 45967.64999999984,
      "d": 403.22499999999854,
      "v": 110
    },
    {
      "midi": 72,
      "hit": false,
      "t": 45967.65000000002,
      "d": 403.22499999999854,
      "v": 110
    },
    {
      "midi": 49,
      "hit": false,
      "t": 46451.51999999984,
      "d": 403.22499999999854,
      "v": 110
    },
    {
      "midi": 53,
      "hit": false,
      "t": 46451.51999999984,
      "d": 403.22499999999854,
      "v": 110
    },
    {
      "midi": 56,
      "hit": false,
      "t": 46451.51999999984,
      "d": 403.22499999999854,
      "v": 110
    },
    {
      "midi": 72,
      "hit": false,
      "t": 46451.52000000002,
      "d": 115.92718749999767,
      "v": 110
    },
    {
      "midi": 70,
      "hit": false,
      "t": 46572.48750000002,
      "d": 236.8946874999965,
      "v": 110
    },
    {
      "midi": 70,
      "hit": false,
      "t": 46814.422500000015,
      "d": 357.8621875000026,
      "v": 110
    },
    {
      "midi": 49,
      "hit": false,
      "t": 46935.38999999983,
      "d": 403.22499999999854,
      "v": 110
    },
    {
      "midi": 53,
      "hit": false,
      "t": 46935.38999999983,
      "d": 403.22499999999854,
      "v": 110
    },
    {
      "midi": 56,
      "hit": false,
      "t": 46935.38999999983,
      "d": 403.22499999999854,
      "v": 110
    },
    {
      "midi": 70,
      "hit": false,
      "t": 47177.32500000002,
      "d": 236.8946874999965,
      "v": 110
    },
    {
      "midi": 49,
      "hit": false,
      "t": 47419.25999999983,
      "d": 403.22499999999854,
      "v": 110
    },
    {
      "midi": 53,
      "hit": false,
      "t": 47419.25999999983,
      "d": 403.22499999999854,
      "v": 110
    },
    {
      "midi": 56,
      "hit": false,
      "t": 47419.25999999983,
      "d": 403.22499999999854,
      "v": 110
    },
    {
      "midi": 70,
      "hit": false,
      "t": 47419.26000000002,
      "d": 115.92718749999767,
      "v": 110
    },
    {
      "midi": 68,
      "hit": false,
      "t": 47540.227500000015,
      "d": 236.8946874999965,
      "v": 110
    },
    {
      "midi": 68,
      "hit": false,
      "t": 47782.16250000001,
      "d": 357.8621875000026,
      "v": 110
    },
    {
      "midi": 49,
      "hit": false,
      "t": 47903.12999999982,
      "d": 403.22499999999854,
      "v": 110
    },
    {
      "midi": 53,
      "hit": false,
      "t": 47903.12999999982,
      "d": 403.22499999999854,
      "v": 110
    },
    {
      "midi": 56,
      "hit": false,
      "t": 47903.12999999982,
      "d": 403.22499999999854,
      "v": 110
    },
    {
      "midi": 68,
      "hit": false,
      "t": 48145.06500000002,
      "d": 236.8946874999965,
      "v": 110
    },
    {
      "midi": 49,
      "hit": false,
      "t": 48386.99999999982,
      "d": 403.22499999999854,
      "v": 110
    },
    {
      "midi": 53,
      "hit": false,
      "t": 48386.99999999982,
      "d": 403.22499999999854,
      "v": 110
    },
    {
      "midi": 56,
      "hit": false,
      "t": 48386.99999999982,
      "d": 403.22499999999854,
      "v": 110
    },
    {
      "midi": 68,
      "hit": false,
      "t": 48387.000000000015,
      "d": 115.92718749999767,
      "v": 110
    },
    {
      "midi": 67,
      "hit": false,
      "t": 48507.96750000001,
      "d": 236.8946874999965,
      "v": 110
    },
    {
      "midi": 67,
      "hit": false,
      "t": 48749.90250000001,
      "d": 357.8621875000026,
      "v": 110
    },
    {
      "midi": 49,
      "hit": false,
      "t": 48870.86999999981,
      "d": 403.22499999999854,
      "v": 110
    },
    {
      "midi": 53,
      "hit": false,
      "t": 48870.86999999981,
      "d": 403.22499999999854,
      "v": 110
    },
    {
      "midi": 56,
      "hit": false,
      "t": 48870.86999999981,
      "d": 403.22499999999854,
      "v": 110
    },
    {
      "midi": 67,
      "hit": false,
      "t": 49112.805000000015,
      "d": 236.8946874999965,
      "v": 110
    },
    {
      "midi": 49,
      "hit": false,
      "t": 49354.73999999981,
      "d": 403.22499999999854,
      "v": 110
    },
    {
      "midi": 53,
      "hit": false,
      "t": 49354.73999999981,
      "d": 403.22499999999854,
      "v": 110
    },
    {
      "midi": 56,
      "hit": false,
      "t": 49354.73999999981,
      "d": 403.22499999999854,
      "v": 110
    },
    {
      "midi": 67,
      "hit": false,
      "t": 49354.74000000001,
      "d": 115.92718749999767,
      "v": 110
    },
    {
      "midi": 65,
      "hit": false,
      "t": 49475.70750000001,
      "d": 236.8946874999965,
      "v": 110
    },
    {
      "midi": 65,
      "hit": false,
      "t": 49717.64250000001,
      "d": 357.8621875000026,
      "v": 110
    },
    {
      "midi": 49,
      "hit": false,
      "t": 49838.609999999804,
      "d": 403.22499999999854,
      "v": 110
    },
    {
      "midi": 53,
      "hit": false,
      "t": 49838.609999999804,
      "d": 403.22499999999854,
      "v": 110
    },
    {
      "midi": 56,
      "hit": false,
      "t": 49838.609999999804,
      "d": 403.22499999999854,
      "v": 110
    },
    {
      "midi": 65,
      "hit": false,
      "t": 50080.54500000001,
      "d": 236.8946874999965,
      "v": 110
    },
    {
      "midi": 51,
      "hit": false,
      "t": 50322.4799999998,
      "d": 403.22499999999854,
      "v": 110
    },
    {
      "midi": 55,
      "hit": false,
      "t": 50322.4799999998,
      "d": 403.22499999999854,
      "v": 110
    },
    {
      "midi": 58,
      "hit": false,
      "t": 50322.4799999998,
      "d": 403.22499999999854,
      "v": 110
    },
    {
      "midi": 67,
      "hit": false,
      "t": 50322.48000000001,
      "d": 1814.512499999997,
      "v": 110
    },
    {
      "midi": 51,
      "hit": false,
      "t": 50806.349999999795,
      "d": 403.22499999999854,
      "v": 110
    },
    {
      "midi": 55,
      "hit": false,
      "t": 50806.349999999795,
      "d": 403.22499999999854,
      "v": 110
    },
    {
      "midi": 58,
      "hit": false,
      "t": 50806.349999999795,
      "d": 403.22499999999854,
      "v": 110
    },
    {
      "midi": 51,
      "hit": false,
      "t": 51290.21999999979,
      "d": 403.22499999999854,
      "v": 110
    },
    {
      "midi": 55,
      "hit": false,
      "t": 51290.21999999979,
      "d": 403.22499999999854,
      "v": 110
    },
    {
      "midi": 58,
      "hit": false,
      "t": 51290.21999999979,
      "d": 403.22499999999854,
      "v": 110
    },
    {
      "midi": 51,
      "hit": false,
      "t": 51774.089999999786,
      "d": 403.22499999999854,
      "v": 110
    },
    {
      "midi": 55,
      "hit": false,
      "t": 51774.089999999786,
      "d": 403.22499999999854,
      "v": 110
    },
    {
      "midi": 58,
      "hit": false,
      "t": 51774.089999999786,
      "d": 403.22499999999854,
      "v": 110
    },
    {
      "midi": 48,
      "hit": false,
      "t": 52257.95999999978,
      "d": 403.22499999999854,
      "v": 110
    },
    {
      "midi": 53,
      "hit": false,
      "t": 52257.95999999978,
      "d": 403.22499999999854,
      "v": 110
    },
    {
      "midi": 55,
      "hit": false,
      "t": 52257.95999999978,
      "d": 403.22499999999854,
      "v": 110
    },
    {
      "midi": 72,
      "hit": false,
      "t": 52257.96000000001,
      "d": 1330.6425000000017,
      "v": 110
    },
    {
      "midi": 48,
      "hit": false,
      "t": 52741.829999999776,
      "d": 403.22499999999854,
      "v": 110
    },
    {
      "midi": 53,
      "hit": false,
      "t": 52741.829999999776,
      "d": 403.22499999999854,
      "v": 110
    },
    {
      "midi": 55,
      "hit": false,
      "t": 52741.829999999776,
      "d": 403.22499999999854,
      "v": 110
    },
    {
      "midi": 48,
      "hit": false,
      "t": 53225.69999999977,
      "d": 403.22499999999854,
      "v": 110
    },
    {
      "midi": 52,
      "hit": false,
      "t": 53225.69999999977,
      "d": 403.22499999999854,
      "v": 110
    },
    {
      "midi": 55,
      "hit": false,
      "t": 53225.69999999977,
      "d": 403.22499999999854,
      "v": 110
    },
    {
      "midi": 48,
      "hit": false,
      "t": 53709.56999999977,
      "d": 403.22499999999854,
      "v": 110
    },
    {
      "midi": 52,
      "hit": false,
      "t": 53709.56999999977,
      "d": 403.22499999999854,
      "v": 110
    },
    {
      "midi": 55,
      "hit": false,
      "t": 53709.56999999977,
      "d": 403.22499999999854,
      "v": 110
    },
    {
      "midi": 53,
      "hit": false,
      "t": 54193.43999999976,
      "d": 403.22499999999854,
      "v": 110
    },
    {
      "midi": 57,
      "hit": false,
      "t": 54193.43999999976,
      "d": 403.22499999999854,
      "v": 110
    },
    {
      "midi": 67,
      "hit": false,
      "t": 54193.44000000001,
      "d": 236.8946874999965,
      "v": 110
    },
    {
      "midi": 69,
      "hit": false,
      "t": 54435.37500000001,
      "d": 236.8946874999965,
      "v": 110
    },
    {
      "midi": 53,
      "hit": false,
      "t": 54677.30999999976,
      "d": 403.22499999999854,
      "v": 110
    },
    {
      "midi": 57,
      "hit": false,
      "t": 54677.30999999976,
      "d": 403.22499999999854,
      "v": 110
    },
    {
      "midi": 72,
      "hit": false,
      "t": 54677.310000000005,
      "d": 236.8946874999965,
      "v": 110
    },
    {
      "midi": 67,
      "hit": false,
      "t": 54919.245,
      "d": 115.92718749999767,
      "v": 110
    },
    {
      "midi": 67,
      "hit": false,
      "t": 55040.2125,
      "d": 115.92718749999767,
      "v": 110
    },
    {
      "midi": 53,
      "hit": false,
      "t": 55161.17999999975,
      "d": 403.22499999999854,
      "v": 110
    },
    {
      "midi": 57,
      "hit": false,
      "t": 55161.17999999975,
      "d": 403.22499999999854,
      "v": 110
    },
    {
      "midi": 67,
      "hit": false,
      "t": 55161.18,
      "d": 115.92718749999767,
      "v": 110
    },
    {
      "midi": 69,
      "hit": false,
      "t": 55282.1475,
      "d": 236.8946874999965,
      "v": 110
    },
    {
      "midi": 72,
      "hit": false,
      "t": 55524.0825,
      "d": 357.8621875000026,
      "v": 110
    },
    {
      "midi": 53,
      "hit": false,
      "t": 55645.04999999975,
      "d": 403.22499999999854,
      "v": 110
    },
    {
      "midi": 57,
      "hit": false,
      "t": 55645.04999999975,
      "d": 403.22499999999854,
      "v": 110
    },
    {
      "midi": 67,
      "hit": false,
      "t": 55886.985,
      "d": 115.92718749999767,
      "v": 110
    },
    {
      "midi": 67,
      "hit": false,
      "t": 56007.9525,
      "d": 115.92718749999767,
      "v": 110
    },
    {
      "midi": 48,
      "hit": false,
      "t": 56128.91999999974,
      "d": 403.22499999999854,
      "v": 110
    },
    {
      "midi": 51,
      "hit": false,
      "t": 56128.91999999974,
      "d": 403.22499999999854,
      "v": 110
    },
    {
      "midi": 55,
      "hit": false,
      "t": 56128.91999999974,
      "d": 403.22499999999854,
      "v": 110
    },
    {
      "midi": 67,
      "hit": false,
      "t": 56128.92,
      "d": 236.8946874999965,
      "v": 110
    },
    {
      "midi": 69,
      "hit": false,
      "t": 56370.854999999996,
      "d": 236.8946874999965,
      "v": 110
    },
    {
      "midi": 48,
      "hit": false,
      "t": 56612.78999999974,
      "d": 403.22499999999854,
      "v": 110
    },
    {
      "midi": 51,
      "hit": false,
      "t": 56612.78999999974,
      "d": 403.22499999999854,
      "v": 110
    },
    {
      "midi": 55,
      "hit": false,
      "t": 56612.78999999974,
      "d": 403.22499999999854,
      "v": 110
    },
    {
      "midi": 72,
      "hit": false,
      "t": 56612.78999999999,
      "d": 236.8946874999965,
      "v": 110
    },
    {
      "midi": 67,
      "hit": false,
      "t": 56854.72499999999,
      "d": 115.92718749999767,
      "v": 110
    },
    {
      "midi": 67,
      "hit": false,
      "t": 56975.69249999999,
      "d": 115.92718749999767,
      "v": 110
    },
    {
      "midi": 48,
      "hit": false,
      "t": 57096.659999999734,
      "d": 403.22499999999854,
      "v": 110
    },
    {
      "midi": 51,
      "hit": false,
      "t": 57096.659999999734,
      "d": 403.22499999999854,
      "v": 110
    },
    {
      "midi": 55,
      "hit": false,
      "t": 57096.659999999734,
      "d": 403.22499999999854,
      "v": 110
    },
    {
      "midi": 67,
      "hit": false,
      "t": 57096.65999999999,
      "d": 115.92718749999767,
      "v": 110
    },
    {
      "midi": 69,
      "hit": false,
      "t": 57217.62749999999,
      "d": 236.8946874999965,
      "v": 110
    },
    {
      "midi": 72,
      "hit": false,
      "t": 57459.562499999985,
      "d": 524.1924999999974,
      "v": 110
    },
    {
      "midi": 48,
      "hit": false,
      "t": 57580.52999999973,
      "d": 403.22499999999854,
      "v": 110
    },
    {
      "midi": 51,
      "hit": false,
      "t": 57580.52999999973,
      "d": 403.22499999999854,
      "v": 110
    },
    {
      "midi": 55,
      "hit": false,
      "t": 57580.52999999973,
      "d": 403.22499999999854,
      "v": 110
    },
    {
      "midi": 50,
      "hit": false,
      "t": 58064.399999999725,
      "d": 403.22499999999854,
      "v": 110
    },
    {
      "midi": 53,
      "hit": false,
      "t": 58064.399999999725,
      "d": 403.22499999999854,
      "v": 110
    },
    {
      "midi": 58,
      "hit": false,
      "t": 58064.399999999725,
      "d": 403.22499999999854,
      "v": 110
    },
    {
      "midi": 70,
      "hit": false,
      "t": 58064.39999999998,
      "d": 357.8621875000026,
      "v": 110
    },
    {
      "midi": 69,
      "hit": false,
      "t": 58427.30249999998,
      "d": 357.8621875000026,
      "v": 110
    },
    {
      "midi": 50,
      "hit": false,
      "t": 58548.26999999972,
      "d": 403.22499999999854,
      "v": 110
    },
    {
      "midi": 53,
      "hit": false,
      "t": 58548.26999999972,
      "d": 403.22499999999854,
      "v": 110
    },
    {
      "midi": 58,
      "hit": false,
      "t": 58548.26999999972,
      "d": 403.22499999999854,
      "v": 110
    },
    {
      "midi": 70,
      "hit": false,
      "t": 58790.20499999999,
      "d": 236.8946874999965,
      "v": 110
    },
    {
      "midi": 50,
      "hit": false,
      "t": 59032.139999999716,
      "d": 403.22499999999854,
      "v": 110
    },
    {
      "midi": 53,
      "hit": false,
      "t": 59032.139999999716,
      "d": 403.22499999999854,
      "v": 110
    },
    {
      "midi": 58,
      "hit": false,
      "t": 59032.139999999716,
      "d": 403.22499999999854,
      "v": 110
    },
    {
      "midi": 69,
      "hit": false,
      "t": 59032.139999999985,
      "d": 403.22499999999854,
      "v": 110
    },
    {
      "midi": 50,
      "hit": false,
      "t": 59516.00999999971,
      "d": 403.22499999999854,
      "v": 110
    },
    {
      "midi": 53,
      "hit": false,
      "t": 59516.00999999971,
      "d": 403.22499999999854,
      "v": 110
    },
    {
      "midi": 58,
      "hit": false,
      "t": 59516.00999999971,
      "d": 403.22499999999854,
      "v": 110
    },
    {
      "midi": 67,
      "hit": false,
      "t": 59516.00999999998,
      "d": 403.22499999999854,
      "v": 110
    },
    {
      "midi": 49,
      "hit": false,
      "t": 59999.879999999706,
      "d": 403.22499999999854,
      "v": 110
    },
    {
      "midi": 53,
      "hit": false,
      "t": 59999.879999999706,
      "d": 403.22499999999854,
      "v": 110
    },
    {
      "midi": 58,
      "hit": false,
      "t": 59999.879999999706,
      "d": 403.22499999999854,
      "v": 110
    },
    {
      "midi": 65,
      "hit": false,
      "t": 59999.879999999976,
      "d": 645.1600000000035,
      "v": 110
    },
    {
      "midi": 49,
      "hit": false,
      "t": 60483.7499999997,
      "d": 403.22499999999854,
      "v": 110
    },
    {
      "midi": 53,
      "hit": false,
      "t": 60483.7499999997,
      "d": 403.22499999999854,
      "v": 110
    },
    {
      "midi": 58,
      "hit": false,
      "t": 60483.7499999997,
      "d": 403.22499999999854,
      "v": 110
    },
    {
      "midi": 67,
      "hit": false,
      "t": 60725.684999999976,
      "d": 236.8946874999965,
      "v": 110
    },
    {
      "midi": 49,
      "hit": false,
      "t": 60967.6199999997,
      "d": 403.22499999999854,
      "v": 110
    },
    {
      "midi": 53,
      "hit": false,
      "t": 60967.6199999997,
      "d": 403.22499999999854,
      "v": 110
    },
    {
      "midi": 58,
      "hit": false,
      "t": 60967.6199999997,
      "d": 403.22499999999854,
      "v": 110
    },
    {
      "midi": 67,
      "hit": false,
      "t": 60967.61999999997,
      "d": 403.22499999999854,
      "v": 110
    },
    {
      "midi": 49,
      "hit": false,
      "t": 61451.48999999969,
      "d": 403.22499999999854,
      "v": 110
    },
    {
      "midi": 53,
      "hit": false,
      "t": 61451.48999999969,
      "d": 403.22499999999854,
      "v": 110
    },
    {
      "midi": 58,
      "hit": false,
      "t": 61451.48999999969,
      "d": 403.22499999999854,
      "v": 110
    },
    {
      "midi": 48,
      "hit": false,
      "t": 61935.35999999969,
      "d": 403.22499999999854,
      "v": 110
    },
    {
      "midi": 53,
      "hit": false,
      "t": 61935.35999999969,
      "d": 403.22499999999854,
      "v": 110
    },
    {
      "midi": 57,
      "hit": false,
      "t": 61935.35999999969,
      "d": 403.22499999999854,
      "v": 110
    },
    {
      "midi": 65,
      "hit": false,
      "t": 61935.35999999997,
      "d": 236.8946874999965,
      "v": 110
    },
    {
      "midi": 67,
      "hit": false,
      "t": 62177.29499999997,
      "d": 236.8946874999965,
      "v": 110
    },
    {
      "midi": 48,
      "hit": false,
      "t": 62419.22999999968,
      "d": 403.22499999999854,
      "v": 110
    },
    {
      "midi": 53,
      "hit": false,
      "t": 62419.22999999968,
      "d": 403.22499999999854,
      "v": 110
    },
    {
      "midi": 57,
      "hit": false,
      "t": 62419.22999999968,
      "d": 403.22499999999854,
      "v": 110
    },
    {
      "midi": 69,
      "hit": false,
      "t": 62419.22999999997,
      "d": 236.8946874999965,
      "v": 110
    },
    {
      "midi": 65,
      "hit": false,
      "t": 62661.164999999964,
      "d": 115.92718749999767,
      "v": 110
    },
    {
      "midi": 65,
      "hit": false,
      "t": 62782.13249999996,
      "d": 115.92718749999767,
      "v": 110
    },
    {
      "midi": 48,
      "hit": false,
      "t": 62903.09999999968,
      "d": 403.22499999999854,
      "v": 110
    },
    {
      "midi": 53,
      "hit": false,
      "t": 62903.09999999968,
      "d": 403.22499999999854,
      "v": 110
    },
    {
      "midi": 57,
      "hit": false,
      "t": 62903.09999999968,
      "d": 403.22499999999854,
      "v": 110
    },
    {
      "midi": 65,
      "hit": false,
      "t": 62903.09999999996,
      "d": 115.92718749999767,
      "v": 110
    },
    {
      "midi": 67,
      "hit": false,
      "t": 63024.06749999996,
      "d": 236.8946874999965,
      "v": 110
    },
    {
      "midi": 69,
      "hit": false,
      "t": 63266.00249999996,
      "d": 357.8621875000026,
      "v": 110
    },
    {
      "midi": 48,
      "hit": false,
      "t": 63386.969999999674,
      "d": 403.22499999999854,
      "v": 110
    },
    {
      "midi": 53,
      "hit": false,
      "t": 63386.969999999674,
      "d": 403.22499999999854,
      "v": 110
    },
    {
      "midi": 57,
      "hit": false,
      "t": 63386.969999999674,
      "d": 403.22499999999854,
      "v": 110
    },
    {
      "midi": 65,
      "hit": false,
      "t": 63628.90499999996,
      "d": 115.92718749999767,
      "v": 110
    },
    {
      "midi": 65,
      "hit": false,
      "t": 63749.87249999996,
      "d": 115.92718749999767,
      "v": 110
    },
    {
      "midi": 50,
      "hit": false,
      "t": 63870.83999999967,
      "d": 403.22499999999854,
      "v": 110
    },
    {
      "midi": 53,
      "hit": false,
      "t": 63870.83999999967,
      "d": 403.22499999999854,
      "v": 110
    },
    {
      "midi": 57,
      "hit": false,
      "t": 63870.83999999967,
      "d": 403.22499999999854,
      "v": 110
    },
    {
      "midi": 65,
      "hit": false,
      "t": 63870.83999999996,
      "d": 236.8946874999965,
      "v": 110
    },
    {
      "midi": 67,
      "hit": false,
      "t": 64112.77499999996,
      "d": 236.8946874999965,
      "v": 110
    },
    {
      "midi": 50,
      "hit": false,
      "t": 64354.709999999664,
      "d": 403.22499999999854,
      "v": 110
    },
    {
      "midi": 53,
      "hit": false,
      "t": 64354.709999999664,
      "d": 403.22499999999854,
      "v": 110
    },
    {
      "midi": 57,
      "hit": false,
      "t": 64354.709999999664,
      "d": 403.22499999999854,
      "v": 110
    },
    {
      "midi": 69,
      "hit": false,
      "t": 64354.709999999955,
      "d": 236.8946874999965,
      "v": 110
    },
    {
      "midi": 65,
      "hit": false,
      "t": 64596.64499999995,
      "d": 115.92718749999767,
      "v": 110
    },
    {
      "midi": 65,
      "hit": false,
      "t": 64717.61249999995,
      "d": 115.92718749999767,
      "v": 110
    },
    {
      "midi": 50,
      "hit": false,
      "t": 64838.57999999966,
      "d": 403.22499999999854,
      "v": 110
    },
    {
      "midi": 53,
      "hit": false,
      "t": 64838.57999999966,
      "d": 403.22499999999854,
      "v": 110
    },
    {
      "midi": 57,
      "hit": false,
      "t": 64838.57999999966,
      "d": 403.22499999999854,
      "v": 110
    },
    {
      "midi": 65,
      "hit": false,
      "t": 64838.57999999995,
      "d": 115.92718749999767,
      "v": 110
    },
    {
      "midi": 67,
      "hit": false,
      "t": 64959.54749999995,
      "d": 236.8946874999965,
      "v": 110
    },
    {
      "midi": 69,
      "hit": false,
      "t": 65201.48249999995,
      "d": 524.1924999999974,
      "v": 110
    },
    {
      "midi": 50,
      "hit": false,
      "t": 65322.449999999655,
      "d": 403.22499999999854,
      "v": 110
    },
    {
      "midi": 53,
      "hit": false,
      "t": 65322.449999999655,
      "d": 403.22499999999854,
      "v": 110
    },
    {
      "midi": 57,
      "hit": false,
      "t": 65322.449999999655,
      "d": 403.22499999999854,
      "v": 110
    },
    {
      "midi": 51,
      "hit": false,
      "t": 65806.31999999966,
      "d": 403.2250000000058,
      "v": 110
    },
    {
      "midi": 55,
      "hit": false,
      "t": 65806.31999999966,
      "d": 403.2250000000058,
      "v": 110
    },
    {
      "midi": 58,
      "hit": false,
      "t": 65806.31999999966,
      "d": 403.2250000000058,
      "v": 110
    },
    {
      "midi": 70,
      "hit": false,
      "t": 65806.31999999995,
      "d": 357.86218749999534,
      "v": 110
    },
    {
      "midi": 69,
      "hit": false,
      "t": 66169.22249999995,
      "d": 357.86218749999534,
      "v": 110
    },
    {
      "midi": 51,
      "hit": false,
      "t": 66290.18999999967,
      "d": 403.2250000000058,
      "v": 110
    },
    {
      "midi": 55,
      "hit": false,
      "t": 66290.18999999967,
      "d": 403.2250000000058,
      "v": 110
    },
    {
      "midi": 58,
      "hit": false,
      "t": 66290.18999999967,
      "d": 403.2250000000058,
      "v": 110
    },
    {
      "midi": 65,
      "hit": false,
      "t": 66532.12499999994,
      "d": 236.8946874999965,
      "v": 110
    },
    {
      "midi": 51,
      "hit": false,
      "t": 66774.05999999968,
      "d": 403.2250000000058,
      "v": 110
    },
    {
      "midi": 55,
      "hit": false,
      "t": 66774.05999999968,
      "d": 403.2250000000058,
      "v": 110
    },
    {
      "midi": 58,
      "hit": false,
      "t": 66774.05999999968,
      "d": 403.2250000000058,
      "v": 110
    },
    {
      "midi": 65,
      "hit": false,
      "t": 66774.05999999994,
      "d": 403.2250000000058,
      "v": 110
    },
    {
      "midi": 51,
      "hit": false,
      "t": 67257.92999999969,
      "d": 403.2250000000058,
      "v": 110
    },
    {
      "midi": 55,
      "hit": false,
      "t": 67257.92999999969,
      "d": 403.2250000000058,
      "v": 110
    },
    {
      "midi": 58,
      "hit": false,
      "t": 67257.92999999969,
      "d": 403.2250000000058,
      "v": 110
    },
    {
      "midi": 48,
      "hit": false,
      "t": 67741.7999999997,
      "d": 403.2250000000058,
      "v": 110
    },
    {
      "midi": 53,
      "hit": false,
      "t": 67741.7999999997,
      "d": 403.2250000000058,
      "v": 110
    },
    {
      "midi": 55,
      "hit": false,
      "t": 67741.7999999997,
      "d": 403.2250000000058,
      "v": 110
    },
    {
      "midi": 70,
      "hit": false,
      "t": 67741.79999999994,
      "d": 357.86218749999534,
      "v": 110
    },
    {
      "midi": 69,
      "hit": false,
      "t": 68104.70249999994,
      "d": 357.86218749999534,
      "v": 110
    },
    {
      "midi": 48,
      "hit": false,
      "t": 68225.6699999997,
      "d": 403.2250000000058,
      "v": 110
    },
    {
      "midi": 53,
      "hit": false,
      "t": 68225.6699999997,
      "d": 403.2250000000058,
      "v": 110
    },
    {
      "midi": 55,
      "hit": false,
      "t": 68225.6699999997,
      "d": 403.2250000000058,
      "v": 110
    },
    {
      "midi": 65,
      "hit": false,
      "t": 68467.60499999994,
      "d": 236.8946874999965,
      "v": 110
    },
    {
      "midi": 48,
      "hit": false,
      "t": 68709.53999999972,
      "d": 403.2250000000058,
      "v": 110
    },
    {
      "midi": 52,
      "hit": false,
      "t": 68709.53999999972,
      "d": 403.2250000000058,
      "v": 110
    },
    {
      "midi": 55,
      "hit": false,
      "t": 68709.53999999972,
      "d": 403.2250000000058,
      "v": 110
    },
    {
      "midi": 69,
      "hit": false,
      "t": 68709.53999999994,
      "d": 403.2250000000058,
      "v": 110
    },
    {
      "midi": 48,
      "hit": false,
      "t": 69193.40999999973,
      "d": 403.2250000000058,
      "v": 110
    },
    {
      "midi": 52,
      "hit": false,
      "t": 69193.40999999973,
      "d": 403.2250000000058,
      "v": 110
    },
    {
      "midi": 55,
      "hit": false,
      "t": 69193.40999999973,
      "d": 403.2250000000058,
      "v": 110
    },
    {
      "midi": 67,
      "hit": false,
      "t": 69193.40999999995,
      "d": 403.2250000000058,
      "v": 110
    },
    {
      "midi": 53,
      "hit": false,
      "t": 69677.27999999974,
      "d": 403.2250000000058,
      "v": 110
    },
    {
      "midi": 57,
      "hit": false,
      "t": 69677.27999999974,
      "d": 403.2250000000058,
      "v": 110
    },
    {
      "midi": 67,
      "hit": false,
      "t": 69677.27999999996,
      "d": 236.8946874999965,
      "v": 110
    },
    {
      "midi": 69,
      "hit": false,
      "t": 69919.21499999995,
      "d": 236.8946874999965,
      "v": 110
    },
    {
      "midi": 53,
      "hit": false,
      "t": 70161.14999999975,
      "d": 403.2250000000058,
      "v": 110
    },
    {
      "midi": 57,
      "hit": false,
      "t": 70161.14999999975,
      "d": 403.2250000000058,
      "v": 110
    },
    {
      "midi": 72,
      "hit": false,
      "t": 70161.14999999995,
      "d": 236.8946874999965,
      "v": 110
    },
    {
      "midi": 67,
      "hit": false,
      "t": 70403.08499999995,
      "d": 115.92718749999767,
      "v": 110
    },
    {
      "midi": 67,
      "hit": false,
      "t": 70524.05249999995,
      "d": 115.92718749999767,
      "v": 110
    },
    {
      "midi": 53,
      "hit": false,
      "t": 70645.01999999976,
      "d": 403.2250000000058,
      "v": 110
    },
    {
      "midi": 57,
      "hit": false,
      "t": 70645.01999999976,
      "d": 403.2250000000058,
      "v": 110
    },
    {
      "midi": 67,
      "hit": false,
      "t": 70645.01999999995,
      "d": 115.92718749999767,
      "v": 110
    },
    {
      "midi": 69,
      "hit": false,
      "t": 70765.98749999994,
      "d": 236.8946874999965,
      "v": 110
    },
    {
      "midi": 72,
      "hit": false,
      "t": 71007.92249999994,
      "d": 357.86218749999534,
      "v": 110
    },
    {
      "midi": 53,
      "hit": false,
      "t": 71128.88999999977,
      "d": 403.2250000000058,
      "v": 110
    },
    {
      "midi": 57,
      "hit": false,
      "t": 71128.88999999977,
      "d": 403.2250000000058,
      "v": 110
    },
    {
      "midi": 67,
      "hit": false,
      "t": 71370.82499999994,
      "d": 115.92718749999767,
      "v": 110
    },
    {
      "midi": 67,
      "hit": false,
      "t": 71491.79249999994,
      "d": 115.92718749999767,
      "v": 110
    },
    {
      "midi": 48,
      "hit": false,
      "t": 71612.75999999978,
      "d": 403.2250000000058,
      "v": 110
    },
    {
      "midi": 51,
      "hit": false,
      "t": 71612.75999999978,
      "d": 403.2250000000058,
      "v": 110
    },
    {
      "midi": 55,
      "hit": false,
      "t": 71612.75999999978,
      "d": 403.2250000000058,
      "v": 110
    },
    {
      "midi": 67,
      "hit": false,
      "t": 71612.75999999994,
      "d": 236.8946874999965,
      "v": 110
    },
    {
      "midi": 69,
      "hit": false,
      "t": 71854.69499999993,
      "d": 236.8946874999965,
      "v": 110
    },
    {
      "midi": 48,
      "hit": false,
      "t": 72096.62999999979,
      "d": 403.2250000000058,
      "v": 110
    },
    {
      "midi": 51,
      "hit": false,
      "t": 72096.62999999979,
      "d": 403.2250000000058,
      "v": 110
    },
    {
      "midi": 55,
      "hit": false,
      "t": 72096.62999999979,
      "d": 403.2250000000058,
      "v": 110
    },
    {
      "midi": 72,
      "hit": false,
      "t": 72096.62999999993,
      "d": 236.8946874999965,
      "v": 110
    },
    {
      "midi": 67,
      "hit": false,
      "t": 72338.56499999993,
      "d": 115.92718749999767,
      "v": 110
    },
    {
      "midi": 67,
      "hit": false,
      "t": 72459.53249999993,
      "d": 115.92718749999767,
      "v": 110
    },
    {
      "midi": 48,
      "hit": false,
      "t": 72580.4999999998,
      "d": 403.2250000000058,
      "v": 110
    },
    {
      "midi": 51,
      "hit": false,
      "t": 72580.4999999998,
      "d": 403.2250000000058,
      "v": 110
    },
    {
      "midi": 55,
      "hit": false,
      "t": 72580.4999999998,
      "d": 403.2250000000058,
      "v": 110
    },
    {
      "midi": 67,
      "hit": false,
      "t": 72580.49999999993,
      "d": 115.92718749999767,
      "v": 110
    },
    {
      "midi": 69,
      "hit": false,
      "t": 72701.46749999993,
      "d": 236.8946874999965,
      "v": 110
    },
    {
      "midi": 72,
      "hit": false,
      "t": 72943.40249999992,
      "d": 524.1925000000047,
      "v": 110
    },
    {
      "midi": 48,
      "hit": false,
      "t": 73064.3699999998,
      "d": 403.2250000000058,
      "v": 110
    },
    {
      "midi": 51,
      "hit": false,
      "t": 73064.3699999998,
      "d": 403.2250000000058,
      "v": 110
    },
    {
      "midi": 55,
      "hit": false,
      "t": 73064.3699999998,
      "d": 403.2250000000058,
      "v": 110
    },
    {
      "midi": 50,
      "hit": false,
      "t": 73548.23999999982,
      "d": 403.2250000000058,
      "v": 110
    },
    {
      "midi": 53,
      "hit": false,
      "t": 73548.23999999982,
      "d": 403.2250000000058,
      "v": 110
    },
    {
      "midi": 58,
      "hit": false,
      "t": 73548.23999999982,
      "d": 403.2250000000058,
      "v": 110
    },
    {
      "midi": 70,
      "hit": false,
      "t": 73548.23999999993,
      "d": 357.86218749999534,
      "v": 110
    },
    {
      "midi": 69,
      "hit": false,
      "t": 73911.14249999993,
      "d": 357.86218749999534,
      "v": 110
    },
    {
      "midi": 50,
      "hit": false,
      "t": 74032.10999999983,
      "d": 403.2250000000058,
      "v": 110
    },
    {
      "midi": 53,
      "hit": false,
      "t": 74032.10999999983,
      "d": 403.2250000000058,
      "v": 110
    },
    {
      "midi": 58,
      "hit": false,
      "t": 74032.10999999983,
      "d": 403.2250000000058,
      "v": 110
    },
    {
      "midi": 70,
      "hit": false,
      "t": 74274.04499999993,
      "d": 236.8946874999965,
      "v": 110
    },
    {
      "midi": 50,
      "hit": false,
      "t": 74515.97999999984,
      "d": 403.2250000000058,
      "v": 110
    },
    {
      "midi": 53,
      "hit": false,
      "t": 74515.97999999984,
      "d": 403.2250000000058,
      "v": 110
    },
    {
      "midi": 58,
      "hit": false,
      "t": 74515.97999999984,
      "d": 403.2250000000058,
      "v": 110
    },
    {
      "midi": 69,
      "hit": false,
      "t": 74515.97999999992,
      "d": 403.2250000000058,
      "v": 110
    },
    {
      "midi": 50,
      "hit": false,
      "t": 74999.84999999985,
      "d": 403.2250000000058,
      "v": 110
    },
    {
      "midi": 53,
      "hit": false,
      "t": 74999.84999999985,
      "d": 403.2250000000058,
      "v": 110
    },
    {
      "midi": 58,
      "hit": false,
      "t": 74999.84999999985,
      "d": 403.2250000000058,
      "v": 110
    },
    {
      "midi": 67,
      "hit": false,
      "t": 74999.84999999993,
      "d": 403.2250000000058,
      "v": 110
    },
    {
      "midi": 49,
      "hit": false,
      "t": 75483.71999999986,
      "d": 403.2250000000058,
      "v": 110
    },
    {
      "midi": 53,
      "hit": false,
      "t": 75483.71999999986,
      "d": 403.2250000000058,
      "v": 110
    },
    {
      "midi": 58,
      "hit": false,
      "t": 75483.71999999986,
      "d": 403.2250000000058,
      "v": 110
    },
    {
      "midi": 65,
      "hit": false,
      "t": 75483.71999999994,
      "d": 645.1600000000035,
      "v": 110
    },
    {
      "midi": 49,
      "hit": false,
      "t": 75967.58999999987,
      "d": 403.2250000000058,
      "v": 110
    },
    {
      "midi": 53,
      "hit": false,
      "t": 75967.58999999987,
      "d": 403.2250000000058,
      "v": 110
    },
    {
      "midi": 58,
      "hit": false,
      "t": 75967.58999999987,
      "d": 403.2250000000058,
      "v": 110
    },
    {
      "midi": 67,
      "hit": false,
      "t": 76209.52499999995,
      "d": 236.8946874999965,
      "v": 110
    },
    {
      "midi": 49,
      "hit": false,
      "t": 76451.45999999988,
      "d": 403.2250000000058,
      "v": 110
    },
    {
      "midi": 53,
      "hit": false,
      "t": 76451.45999999988,
      "d": 403.2250000000058,
      "v": 110
    },
    {
      "midi": 58,
      "hit": false,
      "t": 76451.45999999988,
      "d": 403.2250000000058,
      "v": 110
    },
    {
      "midi": 67,
      "hit": false,
      "t": 76451.45999999995,
      "d": 403.2250000000058,
      "v": 110
    },
    {
      "midi": 49,
      "hit": false,
      "t": 76935.32999999989,
      "d": 403.2250000000058,
      "v": 110
    },
    {
      "midi": 53,
      "hit": false,
      "t": 76935.32999999989,
      "d": 403.2250000000058,
      "v": 110
    },
    {
      "midi": 58,
      "hit": false,
      "t": 76935.32999999989,
      "d": 403.2250000000058,
      "v": 110
    },
    {
      "midi": 48,
      "hit": false,
      "t": 77419.1999999999,
      "d": 403.2250000000058,
      "v": 110
    },
    {
      "midi": 53,
      "hit": false,
      "t": 77419.1999999999,
      "d": 403.2250000000058,
      "v": 110
    },
    {
      "midi": 57,
      "hit": false,
      "t": 77419.1999999999,
      "d": 403.2250000000058,
      "v": 110
    },
    {
      "midi": 65,
      "hit": false,
      "t": 77419.19999999995,
      "d": 236.8946874999965,
      "v": 110
    },
    {
      "midi": 67,
      "hit": false,
      "t": 77661.13499999995,
      "d": 236.8946874999965,
      "v": 110
    },
    {
      "midi": 48,
      "hit": false,
      "t": 77903.0699999999,
      "d": 403.2250000000058,
      "v": 110
    },
    {
      "midi": 53,
      "hit": false,
      "t": 77903.0699999999,
      "d": 403.2250000000058,
      "v": 110
    },
    {
      "midi": 57,
      "hit": false,
      "t": 77903.0699999999,
      "d": 403.2250000000058,
      "v": 110
    },
    {
      "midi": 69,
      "hit": false,
      "t": 77903.06999999995,
      "d": 236.8946874999965,
      "v": 110
    },
    {
      "midi": 65,
      "hit": false,
      "t": 78145.00499999995,
      "d": 115.92718749999767,
      "v": 110
    },
    {
      "midi": 65,
      "hit": false,
      "t": 78265.97249999995,
      "d": 115.92718749999767,
      "v": 110
    },
    {
      "midi": 48,
      "hit": false,
      "t": 78386.93999999992,
      "d": 403.2250000000058,
      "v": 110
    },
    {
      "midi": 53,
      "hit": false,
      "t": 78386.93999999992,
      "d": 403.2250000000058,
      "v": 110
    },
    {
      "midi": 57,
      "hit": false,
      "t": 78386.93999999992,
      "d": 403.2250000000058,
      "v": 110
    },
    {
      "midi": 65,
      "hit": false,
      "t": 78386.93999999994,
      "d": 115.92718749999767,
      "v": 110
    },
    {
      "midi": 67,
      "hit": false,
      "t": 78507.90749999994,
      "d": 236.8946874999965,
      "v": 110
    },
    {
      "midi": 69,
      "hit": false,
      "t": 78749.84249999994,
      "d": 357.86218749999534,
      "v": 110
    },
    {
      "midi": 48,
      "hit": false,
      "t": 78870.80999999992,
      "d": 403.2250000000058,
      "v": 110
    },
    {
      "midi": 53,
      "hit": false,
      "t": 78870.80999999992,
      "d": 403.2250000000058,
      "v": 110
    },
    {
      "midi": 57,
      "hit": false,
      "t": 78870.80999999992,
      "d": 403.2250000000058,
      "v": 110
    },
    {
      "midi": 65,
      "hit": false,
      "t": 79112.74499999994,
      "d": 115.92718749999767,
      "v": 110
    },
    {
      "midi": 65,
      "hit": false,
      "t": 79233.71249999994,
      "d": 115.92718749999767,
      "v": 110
    },
    {
      "midi": 65,
      "hit": false,
      "t": 79354.67999999993,
      "d": 236.8946874999965,
      "v": 110
    },
    {
      "midi": 50,
      "hit": false,
      "t": 79354.67999999993,
      "d": 403.2250000000058,
      "v": 110
    },
    {
      "midi": 53,
      "hit": false,
      "t": 79354.67999999993,
      "d": 403.2250000000058,
      "v": 110
    },
    {
      "midi": 57,
      "hit": false,
      "t": 79354.67999999993,
      "d": 403.2250000000058,
      "v": 110
    },
    {
      "midi": 67,
      "hit": false,
      "t": 79596.61499999993,
      "d": 236.8946874999965,
      "v": 110
    },
    {
      "midi": 69,
      "hit": false,
      "t": 79838.54999999993,
      "d": 236.8946874999965,
      "v": 110
    },
    {
      "midi": 50,
      "hit": false,
      "t": 79838.54999999994,
      "d": 403.2250000000058,
      "v": 110
    },
    {
      "midi": 53,
      "hit": false,
      "t": 79838.54999999994,
      "d": 403.2250000000058,
      "v": 110
    },
    {
      "midi": 57,
      "hit": false,
      "t": 79838.54999999994,
      "d": 403.2250000000058,
      "v": 110
    },
    {
      "midi": 65,
      "hit": false,
      "t": 80080.48499999993,
      "d": 115.92718749999767,
      "v": 110
    },
    {
      "midi": 65,
      "hit": false,
      "t": 80201.45249999993,
      "d": 115.92718749999767,
      "v": 110
    },
    {
      "midi": 65,
      "hit": false,
      "t": 80322.41999999993,
      "d": 115.92718749999767,
      "v": 110
    },
    {
      "midi": 50,
      "hit": false,
      "t": 80322.41999999995,
      "d": 403.2250000000058,
      "v": 110
    },
    {
      "midi": 53,
      "hit": false,
      "t": 80322.41999999995,
      "d": 403.2250000000058,
      "v": 110
    },
    {
      "midi": 57,
      "hit": false,
      "t": 80322.41999999995,
      "d": 403.2250000000058,
      "v": 110
    },
    {
      "midi": 67,
      "hit": false,
      "t": 80443.38749999992,
      "d": 236.8946874999965,
      "v": 110
    },
    {
      "midi": 69,
      "hit": false,
      "t": 80685.32249999992,
      "d": 524.1925000000047,
      "v": 110
    },
    {
      "midi": 50,
      "hit": false,
      "t": 80806.28999999996,
      "d": 403.2250000000058,
      "v": 110
    },
    {
      "midi": 53,
      "hit": false,
      "t": 80806.28999999996,
      "d": 403.2250000000058,
      "v": 110
    },
    {
      "midi": 57,
      "hit": false,
      "t": 80806.28999999996,
      "d": 403.2250000000058,
      "v": 110
    },
    {
      "midi": 70,
      "hit": false,
      "t": 81290.15999999993,
      "d": 357.86218749999534,
      "v": 110
    },
    {
      "midi": 51,
      "hit": false,
      "t": 81290.15999999997,
      "d": 403.2250000000058,
      "v": 110
    },
    {
      "midi": 55,
      "hit": false,
      "t": 81290.15999999997,
      "d": 403.2250000000058,
      "v": 110
    },
    {
      "midi": 58,
      "hit": false,
      "t": 81290.15999999997,
      "d": 403.2250000000058,
      "v": 110
    },
    {
      "midi": 69,
      "hit": false,
      "t": 81653.06249999993,
      "d": 357.86218749999534,
      "v": 110
    },
    {
      "midi": 51,
      "hit": false,
      "t": 81774.02999999998,
      "d": 403.2250000000058,
      "v": 110
    },
    {
      "midi": 55,
      "hit": false,
      "t": 81774.02999999998,
      "d": 403.2250000000058,
      "v": 110
    },
    {
      "midi": 58,
      "hit": false,
      "t": 81774.02999999998,
      "d": 403.2250000000058,
      "v": 110
    },
    {
      "midi": 65,
      "hit": false,
      "t": 82015.96499999992,
      "d": 236.8946874999965,
      "v": 110
    },
    {
      "midi": 65,
      "hit": false,
      "t": 82257.89999999992,
      "d": 403.2250000000058,
      "v": 110
    },
    {
      "midi": 51,
      "hit": false,
      "t": 82257.9,
      "d": 403.2250000000058,
      "v": 110
    },
    {
      "midi": 55,
      "hit": false,
      "t": 82257.9,
      "d": 403.2250000000058,
      "v": 110
    },
    {
      "midi": 58,
      "hit": false,
      "t": 82257.9,
      "d": 403.2250000000058,
      "v": 110
    },
    {
      "midi": 51,
      "hit": false,
      "t": 82741.77,
      "d": 403.2250000000058,
      "v": 110
    },
    {
      "midi": 55,
      "hit": false,
      "t": 82741.77,
      "d": 403.2250000000058,
      "v": 110
    },
    {
      "midi": 58,
      "hit": false,
      "t": 82741.77,
      "d": 403.2250000000058,
      "v": 110
    },
    {
      "midi": 70,
      "hit": false,
      "t": 83225.63999999993,
      "d": 357.86218749999534,
      "v": 110
    },
    {
      "midi": 51,
      "hit": false,
      "t": 83225.64000000001,
      "d": 403.2250000000058,
      "v": 110
    },
    {
      "midi": 55,
      "hit": false,
      "t": 83225.64000000001,
      "d": 403.2250000000058,
      "v": 110
    },
    {
      "midi": 58,
      "hit": false,
      "t": 83225.64000000001,
      "d": 403.2250000000058,
      "v": 110
    },
    {
      "midi": 69,
      "hit": false,
      "t": 83588.54249999992,
      "d": 357.86218749999534,
      "v": 110
    },
    {
      "midi": 51,
      "hit": false,
      "t": 83709.51000000002,
      "d": 403.2250000000058,
      "v": 110
    },
    {
      "midi": 55,
      "hit": false,
      "t": 83709.51000000002,
      "d": 403.2250000000058,
      "v": 110
    },
    {
      "midi": 58,
      "hit": false,
      "t": 83709.51000000002,
      "d": 403.2250000000058,
      "v": 110
    },
    {
      "midi": 65,
      "hit": false,
      "t": 83951.44499999992,
      "d": 236.8946874999965,
      "v": 110
    },
    {
      "midi": 65,
      "hit": false,
      "t": 84193.37999999992,
      "d": 403.2250000000058,
      "v": 110
    },
    {
      "midi": 51,
      "hit": false,
      "t": 84193.38000000003,
      "d": 403.2250000000058,
      "v": 110
    },
    {
      "midi": 55,
      "hit": false,
      "t": 84193.38000000003,
      "d": 403.2250000000058,
      "v": 110
    },
    {
      "midi": 58,
      "hit": false,
      "t": 84193.38000000003,
      "d": 403.2250000000058,
      "v": 110
    },
    {
      "midi": 67,
      "hit": false,
      "t": 84677.24999999993,
      "d": 403.2250000000058,
      "v": 110
    },
    {
      "midi": 51,
      "hit": false,
      "t": 84677.25000000004,
      "d": 403.2250000000058,
      "v": 110
    },
    {
      "midi": 55,
      "hit": false,
      "t": 84677.25000000004,
      "d": 403.2250000000058,
      "v": 110
    },
    {
      "midi": 58,
      "hit": false,
      "t": 84677.25000000004,
      "d": 403.2250000000058,
      "v": 110
    },
    {
      "midi": 67,
      "hit": false,
      "t": 85161.11999999994,
      "d": 1814.512499999997,
      "v": 110
    },
    {
      "midi": 48,
      "hit": false,
      "t": 85161.12000000005,
      "d": 403.2250000000058,
      "v": 110
    },
    {
      "midi": 53,
      "hit": false,
      "t": 85161.12000000005,
      "d": 403.2250000000058,
      "v": 110
    },
    {
      "midi": 55,
      "hit": false,
      "t": 85161.12000000005,
      "d": 403.2250000000058,
      "v": 110
    },
    {
      "midi": 48,
      "hit": false,
      "t": 85644.99000000006,
      "d": 403.2250000000058,
      "v": 110
    },
    {
      "midi": 53,
      "hit": false,
      "t": 85644.99000000006,
      "d": 403.2250000000058,
      "v": 110
    },
    {
      "midi": 55,
      "hit": false,
      "t": 85644.99000000006,
      "d": 403.2250000000058,
      "v": 110
    },
    {
      "midi": 48,
      "hit": false,
      "t": 86128.86000000007,
      "d": 403.2250000000058,
      "v": 110
    },
    {
      "midi": 53,
      "hit": false,
      "t": 86128.86000000007,
      "d": 403.2250000000058,
      "v": 110
    },
    {
      "midi": 55,
      "hit": false,
      "t": 86128.86000000007,
      "d": 403.2250000000058,
      "v": 110
    },
    {
      "midi": 48,
      "hit": false,
      "t": 86612.73000000008,
      "d": 403.2250000000058,
      "v": 110
    },
    {
      "midi": 53,
      "hit": false,
      "t": 86612.73000000008,
      "d": 403.2250000000058,
      "v": 110
    },
    {
      "midi": 55,
      "hit": false,
      "t": 86612.73000000008,
      "d": 403.2250000000058,
      "v": 110
    },
    {
      "midi": 48,
      "hit": false,
      "t": 87096.6000000001,
      "d": 403.2250000000058,
      "v": 110
    },
    {
      "midi": 52,
      "hit": false,
      "t": 87096.6000000001,
      "d": 403.2250000000058,
      "v": 110
    },
    {
      "midi": 55,
      "hit": false,
      "t": 87096.6000000001,
      "d": 403.2250000000058,
      "v": 110
    },
    {
      "midi": 48,
      "hit": false,
      "t": 87580.4700000001,
      "d": 403.2250000000058,
      "v": 110
    },
    {
      "midi": 52,
      "hit": false,
      "t": 87580.4700000001,
      "d": 403.2250000000058,
      "v": 110
    },
    {
      "midi": 55,
      "hit": false,
      "t": 87580.4700000001,
      "d": 403.2250000000058,
      "v": 110
    },
    {
      "midi": 65,
      "hit": false,
      "t": 88064.33999999994,
      "d": 403.2250000000058,
      "v": 110
    },
    {
      "midi": 48,
      "hit": false,
      "t": 88064.34000000011,
      "d": 403.2250000000058,
      "v": 110
    },
    {
      "midi": 52,
      "hit": false,
      "t": 88064.34000000011,
      "d": 403.2250000000058,
      "v": 110
    },
    {
      "midi": 55,
      "hit": false,
      "t": 88064.34000000011,
      "d": 403.2250000000058,
      "v": 110
    },
    {
      "midi": 64,
      "hit": false,
      "t": 88548.20999999995,
      "d": 403.2250000000058,
      "v": 110
    },
    {
      "midi": 48,
      "hit": false,
      "t": 88548.21000000012,
      "d": 403.2250000000058,
      "v": 110
    },
    {
      "midi": 52,
      "hit": false,
      "t": 88548.21000000012,
      "d": 403.2250000000058,
      "v": 110
    },
    {
      "midi": 55,
      "hit": false,
      "t": 88548.21000000012,
      "d": 403.2250000000058,
      "v": 110
    },
    {
      "midi": 65,
      "hit": false,
      "t": 89032.07999999996,
      "d": 645.1600000000035,
      "v": 110
    },
    {
      "midi": 46,
      "hit": false,
      "t": 89032.08000000013,
      "d": 403.2250000000058,
      "v": 110
    },
    {
      "midi": 50,
      "hit": false,
      "t": 89032.08000000013,
      "d": 403.2250000000058,
      "v": 110
    },
    {
      "midi": 53,
      "hit": false,
      "t": 89032.08000000013,
      "d": 403.2250000000058,
      "v": 110
    },
    {
      "midi": 46,
      "hit": false,
      "t": 89515.95000000014,
      "d": 403.2250000000058,
      "v": 110
    },
    {
      "midi": 50,
      "hit": false,
      "t": 89515.95000000014,
      "d": 403.2250000000058,
      "v": 110
    },
    {
      "midi": 53,
      "hit": false,
      "t": 89515.95000000014,
      "d": 403.2250000000058,
      "v": 110
    },
    {
      "midi": 65,
      "hit": false,
      "t": 89757.88499999997,
      "d": 236.8946874999965,
      "v": 110
    },
    {
      "midi": 64,
      "hit": false,
      "t": 89999.81999999996,
      "d": 645.1600000000035,
      "v": 110
    },
    {
      "midi": 48,
      "hit": false,
      "t": 89999.82000000015,
      "d": 403.2250000000058,
      "v": 110
    },
    {
      "midi": 52,
      "hit": false,
      "t": 89999.82000000015,
      "d": 403.2250000000058,
      "v": 110
    },
    {
      "midi": 55,
      "hit": false,
      "t": 89999.82000000015,
      "d": 403.2250000000058,
      "v": 110
    },
    {
      "midi": 48,
      "hit": false,
      "t": 90483.69000000016,
      "d": 403.2250000000058,
      "v": 110
    },
    {
      "midi": 52,
      "hit": false,
      "t": 90483.69000000016,
      "d": 403.2250000000058,
      "v": 110
    },
    {
      "midi": 55,
      "hit": false,
      "t": 90483.69000000016,
      "d": 403.2250000000058,
      "v": 110
    },
    {
      "midi": 65,
      "hit": false,
      "t": 90725.62499999997,
      "d": 236.8946874999965,
      "v": 110
    },
    {
      "midi": 65,
      "hit": false,
      "t": 90967.55999999997,
      "d": 846.7725000000064,
      "v": 110
    },
    {
      "midi": 50,
      "hit": false,
      "t": 90967.56000000017,
      "d": 403.2250000000058,
      "v": 110
    },
    {
      "midi": 53,
      "hit": false,
      "t": 90967.56000000017,
      "d": 403.2250000000058,
      "v": 110
    },
    {
      "midi": 57,
      "hit": false,
      "t": 90967.56000000017,
      "d": 403.2250000000058,
      "v": 110
    },
    {
      "midi": 50,
      "hit": false,
      "t": 91451.43000000018,
      "d": 403.2250000000058,
      "v": 110
    },
    {
      "midi": 53,
      "hit": false,
      "t": 91451.43000000018,
      "d": 403.2250000000058,
      "v": 110
    },
    {
      "midi": 57,
      "hit": false,
      "t": 91451.43000000018,
      "d": 403.2250000000058,
      "v": 110
    },
    {
      "midi": 50,
      "hit": false,
      "t": 91935.30000000019,
      "d": 403.2250000000058,
      "v": 110
    },
    {
      "midi": 53,
      "hit": false,
      "t": 91935.30000000019,
      "d": 403.2250000000058,
      "v": 110
    },
    {
      "midi": 57,
      "hit": false,
      "t": 91935.30000000019,
      "d": 403.2250000000058,
      "v": 110
    },
    {
      "midi": 50,
      "hit": false,
      "t": 92419.1700000002,
      "d": 403.2250000000058,
      "v": 110
    },
    {
      "midi": 53,
      "hit": false,
      "t": 92419.1700000002,
      "d": 403.2250000000058,
      "v": 110
    },
    {
      "midi": 57,
      "hit": false,
      "t": 92419.1700000002,
      "d": 403.2250000000058,
      "v": 110
    },
    {
      "midi": 65,
      "hit": false,
      "t": 92903.03999999998,
      "d": 1814.512499999997,
      "v": 110
    },
    {
      "midi": 46,
      "hit": false,
      "t": 92903.04000000021,
      "d": 403.2250000000058,
      "v": 110
    },
    {
      "midi": 50,
      "hit": false,
      "t": 92903.04000000021,
      "d": 403.2250000000058,
      "v": 110
    },
    {
      "midi": 53,
      "hit": false,
      "t": 92903.04000000021,
      "d": 403.2250000000058,
      "v": 110
    },
    {
      "midi": 46,
      "hit": false,
      "t": 93386.91000000022,
      "d": 403.2250000000058,
      "v": 110
    },
    {
      "midi": 50,
      "hit": false,
      "t": 93386.91000000022,
      "d": 403.2250000000058,
      "v": 110
    },
    {
      "midi": 53,
      "hit": false,
      "t": 93386.91000000022,
      "d": 403.2250000000058,
      "v": 110
    },
    {
      "midi": 46,
      "hit": false,
      "t": 93870.78000000023,
      "d": 403.2250000000058,
      "v": 110
    },
    {
      "midi": 50,
      "hit": false,
      "t": 93870.78000000023,
      "d": 403.2250000000058,
      "v": 110
    },
    {
      "midi": 53,
      "hit": false,
      "t": 93870.78000000023,
      "d": 403.2250000000058,
      "v": 110
    },
    {
      "midi": 46,
      "hit": false,
      "t": 94354.65000000024,
      "d": 403.2250000000058,
      "v": 110
    },
    {
      "midi": 50,
      "hit": false,
      "t": 94354.65000000024,
      "d": 403.2250000000058,
      "v": 110
    },
    {
      "midi": 53,
      "hit": false,
      "t": 94354.65000000024,
      "d": 403.2250000000058,
      "v": 110
    },
    {
      "midi": 48,
      "hit": false,
      "t": 94838.52000000025,
      "d": 403.2250000000058,
      "v": 110
    },
    {
      "midi": 52,
      "hit": false,
      "t": 94838.52000000025,
      "d": 403.2250000000058,
      "v": 110
    },
    {
      "midi": 55,
      "hit": false,
      "t": 94838.52000000025,
      "d": 403.2250000000058,
      "v": 110
    },
    {
      "midi": 48,
      "hit": false,
      "t": 95322.39000000026,
      "d": 403.2250000000058,
      "v": 110
    },
    {
      "midi": 52,
      "hit": false,
      "t": 95322.39000000026,
      "d": 403.2250000000058,
      "v": 110
    },
    {
      "midi": 55,
      "hit": false,
      "t": 95322.39000000026,
      "d": 403.2250000000058,
      "v": 110
    },
    {
      "midi": 64,
      "hit": false,
      "t": 95806.25999999998,
      "d": 846.7725000000064,
      "v": 110
    },
    {
      "midi": 48,
      "hit": false,
      "t": 95806.26000000027,
      "d": 403.2250000000058,
      "v": 110
    },
    {
      "midi": 52,
      "hit": false,
      "t": 95806.26000000027,
      "d": 403.2250000000058,
      "v": 110
    },
    {
      "midi": 55,
      "hit": false,
      "t": 95806.26000000027,
      "d": 403.2250000000058,
      "v": 110
    },
    {
      "midi": 48,
      "hit": false,
      "t": 96290.13000000028,
      "d": 403.2250000000058,
      "v": 110
    },
    {
      "midi": 52,
      "hit": false,
      "t": 96290.13000000028,
      "d": 403.2250000000058,
      "v": 110
    },
    {
      "midi": 55,
      "hit": false,
      "t": 96290.13000000028,
      "d": 403.2250000000058,
      "v": 110
    },
    {
      "midi": 62,
      "hit": false,
      "t": 96773.99999999999,
      "d": 2782.2525000000023,
      "v": 110
    },
    {
      "midi": 50,
      "hit": false,
      "t": 96774.00000000029,
      "d": 403.2250000000058,
      "v": 110
    },
    {
      "midi": 54,
      "hit": false,
      "t": 96774.00000000029,
      "d": 403.2250000000058,
      "v": 110
    },
    {
      "midi": 57,
      "hit": false,
      "t": 96774.00000000029,
      "d": 403.2250000000058,
      "v": 110
    },
    {
      "midi": 50,
      "hit": false,
      "t": 97257.8700000003,
      "d": 403.2250000000058,
      "v": 110
    },
    {
      "midi": 54,
      "hit": false,
      "t": 97257.8700000003,
      "d": 403.2250000000058,
      "v": 110
    },
    {
      "midi": 57,
      "hit": false,
      "t": 97257.8700000003,
      "d": 403.2250000000058,
      "v": 110
    },
    {
      "midi": 50,
      "hit": false,
      "t": 97741.74000000031,
      "d": 403.2250000000058,
      "v": 110
    },
    {
      "midi": 54,
      "hit": false,
      "t": 97741.74000000031,
      "d": 403.2250000000058,
      "v": 110
    },
    {
      "midi": 57,
      "hit": false,
      "t": 97741.74000000031,
      "d": 403.2250000000058,
      "v": 110
    },
    {
      "midi": 50,
      "hit": false,
      "t": 98225.61000000032,
      "d": 403.2250000000058,
      "v": 110
    },
    {
      "midi": 54,
      "hit": false,
      "t": 98225.61000000032,
      "d": 403.2250000000058,
      "v": 110
    },
    {
      "midi": 57,
      "hit": false,
      "t": 98225.61000000032,
      "d": 403.2250000000058,
      "v": 110
    },
    {
      "midi": 50,
      "hit": false,
      "t": 98709.48000000033,
      "d": 403.2250000000058,
      "v": 110
    },
    {
      "midi": 54,
      "hit": false,
      "t": 98709.48000000033,
      "d": 403.2250000000058,
      "v": 110
    },
    {
      "midi": 57,
      "hit": false,
      "t": 98709.48000000033,
      "d": 403.2250000000058,
      "v": 110
    },
    {
      "midi": 50,
      "hit": false,
      "t": 99193.35000000034,
      "d": 403.2250000000058,
      "v": 110
    },
    {
      "midi": 54,
      "hit": false,
      "t": 99193.35000000034,
      "d": 403.2250000000058,
      "v": 110
    },
    {
      "midi": 57,
      "hit": false,
      "t": 99193.35000000034,
      "d": 403.2250000000058,
      "v": 110
    },
    {
      "midi": 50,
      "hit": false,
      "t": 99677.22000000035,
      "d": 403.2250000000058,
      "v": 110
    },
    {
      "midi": 54,
      "hit": false,
      "t": 99677.22000000035,
      "d": 403.2250000000058,
      "v": 110
    },
    {
      "midi": 57,
      "hit": false,
      "t": 99677.22000000035,
      "d": 403.2250000000058,
      "v": 110
    },
    {
      "midi": 50,
      "hit": false,
      "t": 100161.09000000036,
      "d": 403.2250000000058,
      "v": 110
    },
    {
      "midi": 54,
      "hit": false,
      "t": 100161.09000000036,
      "d": 403.2250000000058,
      "v": 110
    },
    {
      "midi": 57,
      "hit": false,
      "t": 100161.09000000036,
      "d": 403.2250000000058,
      "v": 110
    },
    {
      "midi": 59,
      "hit": false,
      "t": 100644.95999999999,
      "d": 846.7725000000064,
      "v": 110
    },
    {
      "midi": 43,
      "hit": false,
      "t": 100644.96000000037,
      "d": 403.2250000000058,
      "v": 110
    },
    {
      "midi": 50,
      "hit": false,
      "t": 100644.96000000037,
      "d": 403.2250000000058,
      "v": 110
    },
    {
      "midi": 43,
      "hit": false,
      "t": 101128.83000000038,
      "d": 403.2250000000058,
      "v": 110
    },
    {
      "midi": 50,
      "hit": false,
      "t": 101128.83000000038,
      "d": 403.2250000000058,
      "v": 110
    },
    {
      "midi": 61,
      "hit": false,
      "t": 101612.7,
      "d": 846.7725000000064,
      "v": 110
    },
    {
      "midi": 45,
      "hit": false,
      "t": 101612.70000000039,
      "d": 403.2250000000058,
      "v": 110
    },
    {
      "midi": 52,
      "hit": false,
      "t": 101612.70000000039,
      "d": 403.2250000000058,
      "v": 110
    },
    {
      "midi": 45,
      "hit": false,
      "t": 102096.5700000004,
      "d": 403.2250000000058,
      "v": 110
    },
    {
      "midi": 52,
      "hit": false,
      "t": 102096.5700000004,
      "d": 403.2250000000058,
      "v": 110
    },
    {
      "midi": 62,
      "hit": false,
      "t": 102580.44,
      "d": 1814.512499999997,
      "v": 110
    },
    {
      "midi": 47,
      "hit": false,
      "t": 102580.44000000041,
      "d": 403.2250000000058,
      "v": 110
    },
    {
      "midi": 54,
      "hit": false,
      "t": 102580.44000000041,
      "d": 403.2250000000058,
      "v": 110
    },
    {
      "midi": 47,
      "hit": false,
      "t": 103064.31000000042,
      "d": 403.2250000000058,
      "v": 110
    },
    {
      "midi": 54,
      "hit": false,
      "t": 103064.31000000042,
      "d": 403.2250000000058,
      "v": 110
    },
    {
      "midi": 47,
      "hit": false,
      "t": 103548.18000000043,
      "d": 403.2250000000058,
      "v": 110
    },
    {
      "midi": 54,
      "hit": false,
      "t": 103548.18000000043,
      "d": 403.2250000000058,
      "v": 110
    },
    {
      "midi": 47,
      "hit": false,
      "t": 104032.05000000044,
      "d": 403.2250000000058,
      "v": 110
    },
    {
      "midi": 54,
      "hit": false,
      "t": 104032.05000000044,
      "d": 403.2250000000058,
      "v": 110
    },
    {
      "midi": 59,
      "hit": false,
      "t": 104515.92,
      "d": 846.7725000000064,
      "v": 110
    },
    {
      "midi": 43,
      "hit": false,
      "t": 104515.92000000045,
      "d": 403.2250000000058,
      "v": 110
    },
    {
      "midi": 50,
      "hit": false,
      "t": 104515.92000000045,
      "d": 403.2250000000058,
      "v": 110
    },
    {
      "midi": 43,
      "hit": false,
      "t": 104999.79000000046,
      "d": 403.2250000000058,
      "v": 110
    },
    {
      "midi": 50,
      "hit": false,
      "t": 104999.79000000046,
      "d": 403.2250000000058,
      "v": 110
    },
    {
      "midi": 61,
      "hit": false,
      "t": 105483.66,
      "d": 846.7725000000064,
      "v": 110
    },
    {
      "midi": 45,
      "hit": false,
      "t": 105483.66000000047,
      "d": 403.2250000000058,
      "v": 110
    },
    {
      "midi": 52,
      "hit": false,
      "t": 105483.66000000047,
      "d": 403.2250000000058,
      "v": 110
    },
    {
      "midi": 45,
      "hit": false,
      "t": 105967.53000000048,
      "d": 403.2250000000058,
      "v": 110
    },
    {
      "midi": 52,
      "hit": false,
      "t": 105967.53000000048,
      "d": 403.2250000000058,
      "v": 110
    },
    {
      "midi": 62,
      "hit": false,
      "t": 106451.40000000001,
      "d": 1814.512499999997,
      "v": 110
    },
    {
      "midi": 50,
      "hit": false,
      "t": 106451.40000000049,
      "d": 403.2250000000058,
      "v": 110
    },
    {
      "midi": 54,
      "hit": false,
      "t": 106451.40000000049,
      "d": 403.2250000000058,
      "v": 110
    },
    {
      "midi": 50,
      "hit": false,
      "t": 106935.2700000005,
      "d": 403.2250000000058,
      "v": 110
    },
    {
      "midi": 54,
      "hit": false,
      "t": 106935.2700000005,
      "d": 403.2250000000058,
      "v": 110
    },
    {
      "midi": 50,
      "hit": false,
      "t": 107419.14000000051,
      "d": 403.2250000000058,
      "v": 110
    },
    {
      "midi": 54,
      "hit": false,
      "t": 107419.14000000051,
      "d": 403.2250000000058,
      "v": 110
    },
    {
      "midi": 50,
      "hit": false,
      "t": 107903.01000000052,
      "d": 403.2250000000058,
      "v": 110
    },
    {
      "midi": 54,
      "hit": false,
      "t": 107903.01000000052,
      "d": 403.2250000000058,
      "v": 110
    },
    {
      "midi": 67,
      "hit": false,
      "t": 108386.88,
      "d": 846.7725000000064,
      "v": 110
    },
    {
      "midi": 71,
      "hit": false,
      "t": 108386.88,
      "d": 846.7725000000064,
      "v": 110
    },
    {
      "midi": 43,
      "hit": false,
      "t": 108386.88000000053,
      "d": 403.2250000000058,
      "v": 110
    },
    {
      "midi": 50,
      "hit": false,
      "t": 108386.88000000053,
      "d": 403.2250000000058,
      "v": 110
    },
    {
      "midi": 43,
      "hit": false,
      "t": 108870.75000000054,
      "d": 403.2250000000058,
      "v": 110
    },
    {
      "midi": 50,
      "hit": false,
      "t": 108870.75000000054,
      "d": 403.2250000000058,
      "v": 110
    },
    {
      "midi": 69,
      "hit": false,
      "t": 109354.62000000001,
      "d": 846.7725000000064,
      "v": 110
    },
    {
      "midi": 73,
      "hit": false,
      "t": 109354.62000000001,
      "d": 846.7725000000064,
      "v": 110
    },
    {
      "midi": 45,
      "hit": false,
      "t": 109354.62000000055,
      "d": 403.2250000000058,
      "v": 110
    },
    {
      "midi": 52,
      "hit": false,
      "t": 109354.62000000055,
      "d": 403.2250000000058,
      "v": 110
    },
    {
      "midi": 45,
      "hit": false,
      "t": 109838.49000000056,
      "d": 403.2250000000058,
      "v": 110
    },
    {
      "midi": 52,
      "hit": false,
      "t": 109838.49000000056,
      "d": 403.2250000000058,
      "v": 110
    },
    {
      "midi": 71,
      "hit": false,
      "t": 110322.36000000002,
      "d": 1814.512499999997,
      "v": 110
    },
    {
      "midi": 74,
      "hit": false,
      "t": 110322.36000000002,
      "d": 1814.512499999997,
      "v": 110
    },
    {
      "midi": 47,
      "hit": false,
      "t": 110322.36000000057,
      "d": 403.2250000000058,
      "v": 110
    },
    {
      "midi": 54,
      "hit": false,
      "t": 110322.36000000057,
      "d": 403.2250000000058,
      "v": 110
    },
    {
      "midi": 47,
      "hit": false,
      "t": 110806.23000000058,
      "d": 403.2250000000058,
      "v": 110
    },
    {
      "midi": 54,
      "hit": false,
      "t": 110806.23000000058,
      "d": 403.2250000000058,
      "v": 110
    },
    {
      "midi": 47,
      "hit": false,
      "t": 111290.10000000059,
      "d": 403.2250000000058,
      "v": 110
    },
    {
      "midi": 54,
      "hit": false,
      "t": 111290.10000000059,
      "d": 403.2250000000058,
      "v": 110
    },
    {
      "midi": 47,
      "hit": false,
      "t": 111773.9700000006,
      "d": 403.2250000000058,
      "v": 110
    },
    {
      "midi": 54,
      "hit": false,
      "t": 111773.9700000006,
      "d": 403.2250000000058,
      "v": 110
    },
    {
      "midi": 67,
      "hit": false,
      "t": 112257.84000000001,
      "d": 846.7725000000064,
      "v": 110
    },
    {
      "midi": 71,
      "hit": false,
      "t": 112257.84000000001,
      "d": 846.7725000000064,
      "v": 110
    },
    {
      "midi": 43,
      "hit": false,
      "t": 112257.84000000061,
      "d": 403.2250000000058,
      "v": 110
    },
    {
      "midi": 50,
      "hit": false,
      "t": 112257.84000000061,
      "d": 403.2250000000058,
      "v": 110
    },
    {
      "midi": 43,
      "hit": false,
      "t": 112741.71000000062,
      "d": 403.2250000000058,
      "v": 110
    },
    {
      "midi": 50,
      "hit": false,
      "t": 112741.71000000062,
      "d": 403.2250000000058,
      "v": 110
    },
    {
      "midi": 69,
      "hit": false,
      "t": 113225.58000000002,
      "d": 846.7725000000064,
      "v": 110
    },
    {
      "midi": 73,
      "hit": false,
      "t": 113225.58000000002,
      "d": 846.7725000000064,
      "v": 110
    },
    {
      "midi": 45,
      "hit": false,
      "t": 113225.58000000063,
      "d": 403.2250000000058,
      "v": 110
    },
    {
      "midi": 52,
      "hit": false,
      "t": 113225.58000000063,
      "d": 403.2250000000058,
      "v": 110
    },
    {
      "midi": 45,
      "hit": false,
      "t": 113709.45000000064,
      "d": 403.2250000000058,
      "v": 110
    },
    {
      "midi": 52,
      "hit": false,
      "t": 113709.45000000064,
      "d": 403.2250000000058,
      "v": 110
    },
    {
      "midi": 71,
      "hit": false,
      "t": 114193.32000000002,
      "d": 846.7725000000064,
      "v": 110
    },
    {
      "midi": 74,
      "hit": false,
      "t": 114193.32000000002,
      "d": 846.7725000000064,
      "v": 110
    },
    {
      "midi": 47,
      "hit": false,
      "t": 114193.32000000065,
      "d": 403.2250000000058,
      "v": 110
    },
    {
      "midi": 54,
      "hit": false,
      "t": 114193.32000000065,
      "d": 403.2250000000058,
      "v": 110
    },
    {
      "midi": 47,
      "hit": false,
      "t": 114677.19000000066,
      "d": 403.2250000000058,
      "v": 110
    },
    {
      "midi": 54,
      "hit": false,
      "t": 114677.19000000066,
      "d": 403.2250000000058,
      "v": 110
    },
    {
      "midi": 71,
      "hit": false,
      "t": 115161.06000000003,
      "d": 403.2250000000058,
      "v": 110
    },
    {
      "midi": 74,
      "hit": false,
      "t": 115161.06000000003,
      "d": 403.2250000000058,
      "v": 110
    },
    {
      "midi": 47,
      "hit": false,
      "t": 115161.06000000067,
      "d": 403.2250000000058,
      "v": 110
    },
    {
      "midi": 54,
      "hit": false,
      "t": 115161.06000000067,
      "d": 403.2250000000058,
      "v": 110
    },
    {
      "midi": 73,
      "hit": false,
      "t": 115644.93000000004,
      "d": 403.2250000000058,
      "v": 110
    },
    {
      "midi": 76,
      "hit": false,
      "t": 115644.93000000004,
      "d": 403.2250000000058,
      "v": 110
    },
    {
      "midi": 49,
      "hit": false,
      "t": 115644.93000000068,
      "d": 403.2250000000058,
      "v": 110
    },
    {
      "midi": 57,
      "hit": false,
      "t": 115644.93000000068,
      "d": 403.2250000000058,
      "v": 110
    },
    {
      "midi": 74,
      "hit": false,
      "t": 116128.80000000005,
      "d": 3749.992499999993,
      "v": 110
    },
    {
      "midi": 77,
      "hit": false,
      "t": 116128.80000000005,
      "d": 3749.992499999993,
      "v": 110
    },
    {
      "midi": 50,
      "hit": false,
      "t": 116128.80000000069,
      "d": 403.2250000000058,
      "v": 110
    },
    {
      "midi": 57,
      "hit": false,
      "t": 116128.80000000069,
      "d": 403.2250000000058,
      "v": 110
    },
    {
      "midi": 50,
      "hit": false,
      "t": 116612.6700000007,
      "d": 403.2250000000058,
      "v": 110
    },
    {
      "midi": 57,
      "hit": false,
      "t": 116612.6700000007,
      "d": 403.2250000000058,
      "v": 110
    },
    {
      "midi": 50,
      "hit": false,
      "t": 117096.5400000007,
      "d": 403.2250000000058,
      "v": 110
    },
    {
      "midi": 57,
      "hit": false,
      "t": 117096.5400000007,
      "d": 403.2250000000058,
      "v": 110
    },
    {
      "midi": 50,
      "hit": false,
      "t": 117580.41000000072,
      "d": 403.2250000000058,
      "v": 110
    },
    {
      "midi": 57,
      "hit": false,
      "t": 117580.41000000072,
      "d": 403.2250000000058,
      "v": 110
    },
    {
      "midi": 50,
      "hit": false,
      "t": 118064.28000000073,
      "d": 403.2250000000058,
      "v": 110
    },
    {
      "midi": 57,
      "hit": false,
      "t": 118064.28000000073,
      "d": 403.2250000000058,
      "v": 110
    },
    {
      "midi": 50,
      "hit": false,
      "t": 118548.15000000074,
      "d": 403.2250000000058,
      "v": 110
    },
    {
      "midi": 57,
      "hit": false,
      "t": 118548.15000000074,
      "d": 403.2250000000058,
      "v": 110
    },
    {
      "midi": 50,
      "hit": false,
      "t": 119032.02000000075,
      "d": 403.2250000000058,
      "v": 110
    },
    {
      "midi": 57,
      "hit": false,
      "t": 119032.02000000075,
      "d": 403.2250000000058,
      "v": 110
    },
    {
      "midi": 50,
      "hit": false,
      "t": 119515.89000000076,
      "d": 403.2250000000058,
      "v": 110
    },
    {
      "midi": 57,
      "hit": false,
      "t": 119515.89000000076,
      "d": 403.2250000000058,
      "v": 110
    },
    {
      "midi": 69,
      "hit": false,
      "t": 119999.76000000004,
      "d": 645.1600000000035,
      "v": 110
    },
    {
      "midi": 45,
      "hit": false,
      "t": 119999.76000000077,
      "d": 3749.992500000051,
      "v": 110
    },
    {
      "midi": 52,
      "hit": false,
      "t": 120483.63000000076,
      "d": 403.2250000000058,
      "v": 110
    },
    {
      "midi": 55,
      "hit": false,
      "t": 120483.63000000076,
      "d": 403.2250000000058,
      "v": 110
    },
    {
      "midi": 67,
      "hit": false,
      "t": 120725.56500000005,
      "d": 115.92718749999767,
      "v": 110
    },
    {
      "midi": 69,
      "hit": false,
      "t": 120846.53250000004,
      "d": 115.92718749999767,
      "v": 110
    },
    {
      "midi": 67,
      "hit": false,
      "t": 120967.50000000004,
      "d": 645.1600000000035,
      "v": 110
    },
    {
      "midi": 52,
      "hit": false,
      "t": 120967.50000000077,
      "d": 403.2250000000058,
      "v": 110
    },
    {
      "midi": 55,
      "hit": false,
      "t": 120967.50000000077,
      "d": 403.2250000000058,
      "v": 110
    },
    {
      "midi": 52,
      "hit": false,
      "t": 121451.37000000078,
      "d": 403.2250000000058,
      "v": 110
    },
    {
      "midi": 55,
      "hit": false,
      "t": 121451.37000000078,
      "d": 403.2250000000058,
      "v": 110
    },
    {
      "midi": 66,
      "hit": false,
      "t": 121693.30500000005,
      "d": 115.92718749999767,
      "v": 110
    },
    {
      "midi": 67,
      "hit": false,
      "t": 121814.27250000005,
      "d": 115.92718749999767,
      "v": 110
    },
    {
      "midi": 66,
      "hit": false,
      "t": 121935.24000000005,
      "d": 645.1600000000035,
      "v": 110
    },
    {
      "midi": 52,
      "hit": false,
      "t": 121935.24000000079,
      "d": 403.2250000000058,
      "v": 110
    },
    {
      "midi": 55,
      "hit": false,
      "t": 121935.24000000079,
      "d": 403.2250000000058,
      "v": 110
    },
    {
      "midi": 52,
      "hit": false,
      "t": 122419.1100000008,
      "d": 403.2250000000058,
      "v": 110
    },
    {
      "midi": 55,
      "hit": false,
      "t": 122419.1100000008,
      "d": 403.2250000000058,
      "v": 110
    },
    {
      "midi": 64,
      "hit": false,
      "t": 122661.04500000006,
      "d": 115.92718749999767,
      "v": 110
    },
    {
      "midi": 66,
      "hit": false,
      "t": 122782.01250000006,
      "d": 115.92718749999767,
      "v": 110
    },
    {
      "midi": 64,
      "hit": false,
      "t": 122902.98000000005,
      "d": 403.2250000000058,
      "v": 110
    },
    {
      "midi": 52,
      "hit": false,
      "t": 122902.98000000081,
      "d": 403.2250000000058,
      "v": 110
    },
    {
      "midi": 55,
      "hit": false,
      "t": 122902.98000000081,
      "d": 403.2250000000058,
      "v": 110
    },
    {
      "midi": 60,
      "hit": false,
      "t": 123386.85000000006,
      "d": 403.2250000000058,
      "v": 110
    },
    {
      "midi": 52,
      "hit": false,
      "t": 123386.85000000082,
      "d": 403.22499999999127,
      "v": 110
    },
    {
      "midi": 55,
      "hit": false,
      "t": 123386.85000000082,
      "d": 403.22499999999127,
      "v": 110
    },
    {
      "midi": 62,
      "hit": false,
      "t": 123870.72000000007,
      "d": 846.7725000000064,
      "v": 110
    },
    {
      "midi": 50,
      "hit": false,
      "t": 123870.72000000082,
      "d": 403.2250000000058,
      "v": 110
    },
    {
      "midi": 54,
      "hit": false,
      "t": 123870.72000000082,
      "d": 403.2250000000058,
      "v": 110
    },
    {
      "midi": 50,
      "hit": false,
      "t": 124354.59000000083,
      "d": 403.2250000000058,
      "v": 110
    },
    {
      "midi": 54,
      "hit": false,
      "t": 124354.59000000083,
      "d": 403.2250000000058,
      "v": 110
    },
    {
      "midi": 57,
      "hit": false,
      "t": 124838.46000000008,
      "d": 2782.2525000000023,
      "v": 110
    },
    {
      "midi": 50,
      "hit": false,
      "t": 124838.46000000084,
      "d": 403.2250000000058,
      "v": 110
    },
    {
      "midi": 54,
      "hit": false,
      "t": 124838.46000000084,
      "d": 403.2250000000058,
      "v": 110
    },
    {
      "midi": 50,
      "hit": false,
      "t": 125322.33000000085,
      "d": 403.2250000000058,
      "v": 110
    },
    {
      "midi": 54,
      "hit": false,
      "t": 125322.33000000085,
      "d": 403.2250000000058,
      "v": 110
    },
    {
      "midi": 50,
      "hit": false,
      "t": 125806.20000000086,
      "d": 403.2250000000058,
      "v": 110
    },
    {
      "midi": 54,
      "hit": false,
      "t": 125806.20000000086,
      "d": 403.2250000000058,
      "v": 110
    },
    {
      "midi": 50,
      "hit": false,
      "t": 126290.07000000087,
      "d": 403.2250000000058,
      "v": 110
    },
    {
      "midi": 54,
      "hit": false,
      "t": 126290.07000000087,
      "d": 403.2250000000058,
      "v": 110
    },
    {
      "midi": 50,
      "hit": false,
      "t": 126773.94000000088,
      "d": 403.2250000000058,
      "v": 110
    },
    {
      "midi": 54,
      "hit": false,
      "t": 126773.94000000088,
      "d": 403.2250000000058,
      "v": 110
    },
    {
      "midi": 50,
      "hit": false,
      "t": 127257.81000000089,
      "d": 403.2250000000058,
      "v": 110
    },
    {
      "midi": 54,
      "hit": false,
      "t": 127257.81000000089,
      "d": 403.2250000000058,
      "v": 110
    },
    {
      "midi": 69,
      "hit": false,
      "t": 127741.68000000008,
      "d": 645.1600000000035,
      "v": 110
    },
    {
      "midi": 45,
      "hit": false,
      "t": 127741.6800000009,
      "d": 3749.992500000051,
      "v": 110
    },
    {
      "midi": 52,
      "hit": false,
      "t": 128225.55000000089,
      "d": 403.2250000000058,
      "v": 110
    },
    {
      "midi": 55,
      "hit": false,
      "t": 128225.55000000089,
      "d": 403.2250000000058,
      "v": 110
    },
    {
      "midi": 67,
      "hit": false,
      "t": 128467.48500000009,
      "d": 115.92718749999767,
      "v": 110
    },
    {
      "midi": 69,
      "hit": false,
      "t": 128588.45250000009,
      "d": 115.92718749999767,
      "v": 110
    },
    {
      "midi": 67,
      "hit": false,
      "t": 128709.42000000009,
      "d": 645.1600000000035,
      "v": 110
    },
    {
      "midi": 52,
      "hit": false,
      "t": 128709.4200000009,
      "d": 403.2250000000058,
      "v": 110
    },
    {
      "midi": 55,
      "hit": false,
      "t": 128709.4200000009,
      "d": 403.2250000000058,
      "v": 110
    },
    {
      "midi": 52,
      "hit": false,
      "t": 129193.29000000091,
      "d": 403.2250000000058,
      "v": 110
    },
    {
      "midi": 55,
      "hit": false,
      "t": 129193.29000000091,
      "d": 403.2250000000058,
      "v": 110
    },
    {
      "midi": 66,
      "hit": false,
      "t": 129435.2250000001,
      "d": 115.92718749999767,
      "v": 110
    },
    {
      "midi": 67,
      "hit": false,
      "t": 129556.19250000009,
      "d": 115.92718749999767,
      "v": 110
    },
    {
      "midi": 66,
      "hit": false,
      "t": 129677.16000000009,
      "d": 645.1600000000035,
      "v": 110
    },
    {
      "midi": 52,
      "hit": false,
      "t": 129677.16000000092,
      "d": 403.2250000000058,
      "v": 110
    },
    {
      "midi": 55,
      "hit": false,
      "t": 129677.16000000092,
      "d": 403.2250000000058,
      "v": 110
    },
    {
      "midi": 52,
      "hit": false,
      "t": 130161.03000000093,
      "d": 403.2250000000058,
      "v": 110
    },
    {
      "midi": 55,
      "hit": false,
      "t": 130161.03000000093,
      "d": 403.2250000000058,
      "v": 110
    },
    {
      "midi": 64,
      "hit": false,
      "t": 130402.9650000001,
      "d": 115.92718749999767,
      "v": 110
    },
    {
      "midi": 66,
      "hit": false,
      "t": 130523.9325000001,
      "d": 115.92718749999767,
      "v": 110
    },
    {
      "midi": 64,
      "hit": false,
      "t": 130644.9000000001,
      "d": 403.2250000000058,
      "v": 110
    },
    {
      "midi": 52,
      "hit": false,
      "t": 130644.90000000094,
      "d": 403.2250000000058,
      "v": 110
    },
    {
      "midi": 55,
      "hit": false,
      "t": 130644.90000000094,
      "d": 403.2250000000058,
      "v": 110
    },
    {
      "midi": 60,
      "hit": false,
      "t": 131128.7700000001,
      "d": 403.2250000000058,
      "v": 110
    },
    {
      "midi": 52,
      "hit": false,
      "t": 131128.77000000095,
      "d": 403.2250000000058,
      "v": 110
    },
    {
      "midi": 55,
      "hit": false,
      "t": 131128.77000000095,
      "d": 403.2250000000058,
      "v": 110
    },
    {
      "midi": 62,
      "hit": false,
      "t": 131612.6400000001,
      "d": 846.7724999999919,
      "v": 110
    },
    {
      "midi": 50,
      "hit": false,
      "t": 131612.64000000095,
      "d": 403.2250000000058,
      "v": 110
    },
    {
      "midi": 54,
      "hit": false,
      "t": 131612.64000000095,
      "d": 403.2250000000058,
      "v": 110
    },
    {
      "midi": 50,
      "hit": false,
      "t": 132096.51000000094,
      "d": 403.2250000000058,
      "v": 110
    },
    {
      "midi": 54,
      "hit": false,
      "t": 132096.51000000094,
      "d": 403.2250000000058,
      "v": 110
    },
    {
      "midi": 57,
      "hit": false,
      "t": 132580.3800000001,
      "d": 1814.5125000000116,
      "v": 110
    },
    {
      "midi": 50,
      "hit": false,
      "t": 132580.38000000094,
      "d": 403.2250000000058,
      "v": 110
    },
    {
      "midi": 54,
      "hit": false,
      "t": 132580.38000000094,
      "d": 403.2250000000058,
      "v": 110
    },
    {
      "midi": 50,
      "hit": false,
      "t": 133064.25000000093,
      "d": 403.2250000000058,
      "v": 110
    },
    {
      "midi": 54,
      "hit": false,
      "t": 133064.25000000093,
      "d": 403.2250000000058,
      "v": 110
    },
    {
      "midi": 50,
      "hit": false,
      "t": 133548.12000000093,
      "d": 403.2250000000058,
      "v": 110
    },
    {
      "midi": 54,
      "hit": false,
      "t": 133548.12000000093,
      "d": 403.2250000000058,
      "v": 110
    },
    {
      "midi": 50,
      "hit": false,
      "t": 134031.99000000092,
      "d": 403.2250000000058,
      "v": 110
    },
    {
      "midi": 54,
      "hit": false,
      "t": 134031.99000000092,
      "d": 403.2250000000058,
      "v": 110
    },
    {
      "midi": 57,
      "hit": false,
      "t": 134515.8600000001,
      "d": 403.2250000000058,
      "v": 110
    },
    {
      "midi": 50,
      "hit": false,
      "t": 134515.86000000092,
      "d": 403.2250000000058,
      "v": 110
    },
    {
      "midi": 54,
      "hit": false,
      "t": 134515.86000000092,
      "d": 403.2250000000058,
      "v": 110
    },
    {
      "midi": 57,
      "hit": false,
      "t": 134999.7300000001,
      "d": 403.2250000000058,
      "v": 110
    },
    {
      "midi": 50,
      "hit": false,
      "t": 134999.7300000009,
      "d": 403.2250000000058,
      "v": 110
    },
    {
      "midi": 54,
      "hit": false,
      "t": 134999.7300000009,
      "d": 403.2250000000058,
      "v": 110
    },
    {
      "midi": 58,
      "hit": false,
      "t": 135483.6000000001,
      "d": 357.86218749999534,
      "v": 110
    },
    {
      "midi": 43,
      "hit": false,
      "t": 135483.6000000009,
      "d": 403.2250000000058,
      "v": 110
    },
    {
      "midi": 50,
      "hit": false,
      "t": 135483.6000000009,
      "d": 403.2250000000058,
      "v": 110
    },
    {
      "midi": 60,
      "hit": false,
      "t": 135846.5025000001,
      "d": 357.86218749999534,
      "v": 110
    },
    {
      "midi": 43,
      "hit": false,
      "t": 135967.4700000009,
      "d": 403.2250000000058,
      "v": 110
    },
    {
      "midi": 50,
      "hit": false,
      "t": 135967.4700000009,
      "d": 403.2250000000058,
      "v": 110
    },
    {
      "midi": 62,
      "hit": false,
      "t": 136209.4050000001,
      "d": 236.8946874999965,
      "v": 110
    },
    {
      "midi": 65,
      "hit": false,
      "t": 136451.34000000008,
      "d": 357.86218749999534,
      "v": 110
    },
    {
      "midi": 43,
      "hit": false,
      "t": 136451.3400000009,
      "d": 403.2250000000058,
      "v": 110
    },
    {
      "midi": 50,
      "hit": false,
      "t": 136451.3400000009,
      "d": 403.2250000000058,
      "v": 110
    },
    {
      "midi": 62,
      "hit": false,
      "t": 136814.24250000008,
      "d": 357.86218749999534,
      "v": 110
    },
    {
      "midi": 43,
      "hit": false,
      "t": 136935.2100000009,
      "d": 403.2250000000058,
      "v": 110
    },
    {
      "midi": 50,
      "hit": false,
      "t": 136935.2100000009,
      "d": 403.2250000000058,
      "v": 110
    },
    {
      "midi": 65,
      "hit": false,
      "t": 137177.14500000008,
      "d": 236.8946874999965,
      "v": 110
    },
    {
      "midi": 64,
      "hit": false,
      "t": 137419.08000000007,
      "d": 846.7724999999919,
      "v": 110
    },
    {
      "midi": 45,
      "hit": false,
      "t": 137419.0800000009,
      "d": 403.2250000000058,
      "v": 110
    },
    {
      "midi": 49,
      "hit": false,
      "t": 137419.0800000009,
      "d": 403.2250000000058,
      "v": 110
    },
    {
      "midi": 52,
      "hit": false,
      "t": 137419.0800000009,
      "d": 403.2250000000058,
      "v": 110
    },
    {
      "midi": 45,
      "hit": false,
      "t": 137902.95000000088,
      "d": 403.2250000000058,
      "v": 110
    },
    {
      "midi": 49,
      "hit": false,
      "t": 137902.95000000088,
      "d": 403.2250000000058,
      "v": 110
    },
    {
      "midi": 52,
      "hit": false,
      "t": 137902.95000000088,
      "d": 403.2250000000058,
      "v": 110
    },
    {
      "midi": 61,
      "hit": false,
      "t": 138386.82000000007,
      "d": 403.2250000000058,
      "v": 110
    },
    {
      "midi": 45,
      "hit": false,
      "t": 138386.82000000088,
      "d": 403.2250000000058,
      "v": 110
    },
    {
      "midi": 49,
      "hit": false,
      "t": 138386.82000000088,
      "d": 403.2250000000058,
      "v": 110
    },
    {
      "midi": 52,
      "hit": false,
      "t": 138386.82000000088,
      "d": 403.2250000000058,
      "v": 110
    },
    {
      "midi": 45,
      "hit": false,
      "t": 138870.69000000088,
      "d": 403.2250000000058,
      "v": 110
    },
    {
      "midi": 49,
      "hit": false,
      "t": 138870.69000000088,
      "d": 403.2250000000058,
      "v": 110
    },
    {
      "midi": 52,
      "hit": false,
      "t": 138870.69000000088,
      "d": 403.2250000000058,
      "v": 110
    },
    {
      "midi": 58,
      "hit": false,
      "t": 139354.56000000008,
      "d": 357.86218749999534,
      "v": 110
    },
    {
      "midi": 43,
      "hit": false,
      "t": 139354.56000000087,
      "d": 403.2250000000058,
      "v": 110
    },
    {
      "midi": 50,
      "hit": false,
      "t": 139354.56000000087,
      "d": 403.2250000000058,
      "v": 110
    },
    {
      "midi": 53,
      "hit": false,
      "t": 139354.56000000087,
      "d": 403.2250000000058,
      "v": 110
    },
    {
      "midi": 60,
      "hit": false,
      "t": 139717.46250000008,
      "d": 357.86218749999534,
      "v": 110
    },
    {
      "midi": 43,
      "hit": false,
      "t": 139838.43000000087,
      "d": 403.2250000000058,
      "v": 110
    },
    {
      "midi": 50,
      "hit": false,
      "t": 139838.43000000087,
      "d": 403.2250000000058,
      "v": 110
    },
    {
      "midi": 53,
      "hit": false,
      "t": 139838.43000000087,
      "d": 403.2250000000058,
      "v": 110
    },
    {
      "midi": 62,
      "hit": false,
      "t": 140080.36500000008,
      "d": 236.8946874999965,
      "v": 110
    },
    {
      "midi": 65,
      "hit": false,
      "t": 140322.30000000008,
      "d": 403.2250000000058,
      "v": 110
    },
    {
      "midi": 43,
      "hit": false,
      "t": 140322.30000000086,
      "d": 403.2250000000058,
      "v": 110
    },
    {
      "midi": 50,
      "hit": false,
      "t": 140322.30000000086,
      "d": 403.2250000000058,
      "v": 110
    },
    {
      "midi": 53,
      "hit": false,
      "t": 140322.30000000086,
      "d": 403.2250000000058,
      "v": 110
    },
    {
      "midi": 67,
      "hit": false,
      "t": 140806.17000000007,
      "d": 403.2250000000058,
      "v": 110
    },
    {
      "midi": 43,
      "hit": false,
      "t": 140806.17000000086,
      "d": 403.2250000000058,
      "v": 110
    },
    {
      "midi": 50,
      "hit": false,
      "t": 140806.17000000086,
      "d": 403.2250000000058,
      "v": 110
    },
    {
      "midi": 53,
      "hit": false,
      "t": 140806.17000000086,
      "d": 403.2250000000058,
      "v": 110
    },
    {
      "midi": 64,
      "hit": false,
      "t": 141290.04000000007,
      "d": 1330.6424999999872,
      "v": 110
    },
    {
      "midi": 45,
      "hit": false,
      "t": 141290.04000000085,
      "d": 403.2250000000058,
      "v": 110
    },
    {
      "midi": 49,
      "hit": false,
      "t": 141290.04000000085,
      "d": 403.2250000000058,
      "v": 110
    },
    {
      "midi": 52,
      "hit": false,
      "t": 141290.04000000085,
      "d": 403.2250000000058,
      "v": 110
    },
    {
      "midi": 45,
      "hit": false,
      "t": 141773.91000000085,
      "d": 403.2250000000058,
      "v": 110
    },
    {
      "midi": 49,
      "hit": false,
      "t": 141773.91000000085,
      "d": 403.2250000000058,
      "v": 110
    },
    {
      "midi": 52,
      "hit": false,
      "t": 141773.91000000085,
      "d": 403.2250000000058,
      "v": 110
    },
    {
      "midi": 45,
      "hit": false,
      "t": 142257.78000000084,
      "d": 403.2250000000058,
      "v": 110
    },
    {
      "midi": 49,
      "hit": false,
      "t": 142257.78000000084,
      "d": 403.2250000000058,
      "v": 110
    },
    {
      "midi": 52,
      "hit": false,
      "t": 142257.78000000084,
      "d": 403.2250000000058,
      "v": 110
    },
    {
      "midi": 45,
      "hit": false,
      "t": 142741.65000000084,
      "d": 403.2250000000058,
      "v": 110
    },
    {
      "midi": 49,
      "hit": false,
      "t": 142741.65000000084,
      "d": 403.2250000000058,
      "v": 110
    },
    {
      "midi": 52,
      "hit": false,
      "t": 142741.65000000084,
      "d": 403.2250000000058,
      "v": 110
    },
    {
      "midi": 62,
      "hit": false,
      "t": 143225.52000000005,
      "d": 357.86218749999534,
      "v": 110
    },
    {
      "midi": 46,
      "hit": false,
      "t": 143225.52000000083,
      "d": 403.2250000000058,
      "v": 110
    },
    {
      "midi": 50,
      "hit": false,
      "t": 143225.52000000083,
      "d": 403.2250000000058,
      "v": 110
    },
    {
      "midi": 53,
      "hit": false,
      "t": 143225.52000000083,
      "d": 403.2250000000058,
      "v": 110
    },
    {
      "midi": 64,
      "hit": false,
      "t": 143588.42250000004,
      "d": 357.86218749999534,
      "v": 110
    },
    {
      "midi": 46,
      "hit": false,
      "t": 143709.39000000083,
      "d": 403.2250000000058,
      "v": 110
    },
    {
      "midi": 50,
      "hit": false,
      "t": 143709.39000000083,
      "d": 403.2250000000058,
      "v": 110
    },
    {
      "midi": 53,
      "hit": false,
      "t": 143709.39000000083,
      "d": 403.2250000000058,
      "v": 110
    },
    {
      "midi": 65,
      "hit": false,
      "t": 143951.32500000004,
      "d": 236.8946874999965,
      "v": 110
    },
    {
      "midi": 69,
      "hit": false,
      "t": 144193.26000000004,
      "d": 357.86218749999534,
      "v": 110
    },
    {
      "midi": 46,
      "hit": false,
      "t": 144193.26000000082,
      "d": 403.2250000000058,
      "v": 110
    },
    {
      "midi": 50,
      "hit": false,
      "t": 144193.26000000082,
      "d": 403.2250000000058,
      "v": 110
    },
    {
      "midi": 53,
      "hit": false,
      "t": 144193.26000000082,
      "d": 403.2250000000058,
      "v": 110
    },
    {
      "midi": 65,
      "hit": false,
      "t": 144556.16250000003,
      "d": 357.86218749999534,
      "v": 110
    },
    {
      "midi": 46,
      "hit": false,
      "t": 144677.13000000082,
      "d": 403.2250000000058,
      "v": 110
    },
    {
      "midi": 50,
      "hit": false,
      "t": 144677.13000000082,
      "d": 403.2250000000058,
      "v": 110
    },
    {
      "midi": 53,
      "hit": false,
      "t": 144677.13000000082,
      "d": 403.2250000000058,
      "v": 110
    },
    {
      "midi": 69,
      "hit": false,
      "t": 144919.06500000003,
      "d": 236.8946874999965,
      "v": 110
    },
    {
      "midi": 67,
      "hit": false,
      "t": 145161.00000000003,
      "d": 403.2250000000058,
      "v": 110
    },
    {
      "midi": 48,
      "hit": false,
      "t": 145161.00000000081,
      "d": 403.2250000000058,
      "v": 110
    },
    {
      "midi": 52,
      "hit": false,
      "t": 145161.00000000081,
      "d": 403.2250000000058,
      "v": 110
    },
    {
      "midi": 55,
      "hit": false,
      "t": 145161.00000000081,
      "d": 403.2250000000058,
      "v": 110
    },
    {
      "midi": 48,
      "hit": false,
      "t": 145644.8700000008,
      "d": 403.2250000000058,
      "v": 110
    },
    {
      "midi": 52,
      "hit": false,
      "t": 145644.8700000008,
      "d": 403.2250000000058,
      "v": 110
    },
    {
      "midi": 55,
      "hit": false,
      "t": 145644.8700000008,
      "d": 403.2250000000058,
      "v": 110
    },
    {
      "midi": 64,
      "hit": false,
      "t": 146128.74000000005,
      "d": 403.2250000000058,
      "v": 110
    },
    {
      "midi": 48,
      "hit": false,
      "t": 146128.7400000008,
      "d": 403.2250000000058,
      "v": 110
    },
    {
      "midi": 52,
      "hit": false,
      "t": 146128.7400000008,
      "d": 403.2250000000058,
      "v": 110
    },
    {
      "midi": 55,
      "hit": false,
      "t": 146128.7400000008,
      "d": 403.2250000000058,
      "v": 110
    },
    {
      "midi": 72,
      "hit": false,
      "t": 146612.61000000004,
      "d": 403.2250000000058,
      "v": 110
    },
    {
      "midi": 48,
      "hit": false,
      "t": 146612.6100000008,
      "d": 403.2250000000058,
      "v": 110
    },
    {
      "midi": 52,
      "hit": false,
      "t": 146612.6100000008,
      "d": 403.2250000000058,
      "v": 110
    },
    {
      "midi": 55,
      "hit": false,
      "t": 146612.6100000008,
      "d": 403.2250000000058,
      "v": 110
    },
    {
      "midi": 72,
      "hit": false,
      "t": 147096.48000000004,
      "d": 115.92718749999767,
      "v": 110
    },
    {
      "midi": 49,
      "hit": false,
      "t": 147096.4800000008,
      "d": 403.2250000000058,
      "v": 110
    },
    {
      "midi": 53,
      "hit": false,
      "t": 147096.4800000008,
      "d": 403.2250000000058,
      "v": 110
    },
    {
      "midi": 56,
      "hit": false,
      "t": 147096.4800000008,
      "d": 403.2250000000058,
      "v": 110
    },
    {
      "midi": 70,
      "hit": false,
      "t": 147217.44750000004,
      "d": 236.8946874999965,
      "v": 110
    },
    {
      "midi": 70,
      "hit": false,
      "t": 147459.38250000004,
      "d": 357.86218749999534,
      "v": 110
    },
    {
      "midi": 49,
      "hit": false,
      "t": 147580.3500000008,
      "d": 403.2250000000058,
      "v": 110
    },
    {
      "midi": 53,
      "hit": false,
      "t": 147580.3500000008,
      "d": 403.2250000000058,
      "v": 110
    },
    {
      "midi": 56,
      "hit": false,
      "t": 147580.3500000008,
      "d": 403.2250000000058,
      "v": 110
    },
    {
      "midi": 70,
      "hit": false,
      "t": 147822.28500000003,
      "d": 236.8946874999965,
      "v": 110
    },
    {
      "midi": 70,
      "hit": false,
      "t": 148064.22000000003,
      "d": 115.92718749999767,
      "v": 110
    },
    {
      "midi": 49,
      "hit": false,
      "t": 148064.2200000008,
      "d": 403.2250000000058,
      "v": 110
    },
    {
      "midi": 53,
      "hit": false,
      "t": 148064.2200000008,
      "d": 403.2250000000058,
      "v": 110
    },
    {
      "midi": 56,
      "hit": false,
      "t": 148064.2200000008,
      "d": 403.2250000000058,
      "v": 110
    },
    {
      "midi": 68,
      "hit": false,
      "t": 148185.18750000003,
      "d": 236.8946874999965,
      "v": 110
    },
    {
      "midi": 68,
      "hit": false,
      "t": 148427.12250000003,
      "d": 357.86218749999534,
      "v": 110
    },
    {
      "midi": 49,
      "hit": false,
      "t": 148548.09000000078,
      "d": 403.2250000000058,
      "v": 110
    },
    {
      "midi": 53,
      "hit": false,
      "t": 148548.09000000078,
      "d": 403.2250000000058,
      "v": 110
    },
    {
      "midi": 56,
      "hit": false,
      "t": 148548.09000000078,
      "d": 403.2250000000058,
      "v": 110
    },
    {
      "midi": 68,
      "hit": false,
      "t": 148790.02500000002,
      "d": 236.8946874999965,
      "v": 110
    },
    {
      "midi": 68,
      "hit": false,
      "t": 149031.96000000002,
      "d": 115.92718749999767,
      "v": 110
    },
    {
      "midi": 49,
      "hit": false,
      "t": 149031.96000000078,
      "d": 403.2250000000058,
      "v": 110
    },
    {
      "midi": 53,
      "hit": false,
      "t": 149031.96000000078,
      "d": 403.2250000000058,
      "v": 110
    },
    {
      "midi": 56,
      "hit": false,
      "t": 149031.96000000078,
      "d": 403.2250000000058,
      "v": 110
    },
    {
      "midi": 67,
      "hit": false,
      "t": 149152.92750000002,
      "d": 236.8946874999965,
      "v": 110
    },
    {
      "midi": 67,
      "hit": false,
      "t": 149394.86250000002,
      "d": 357.86218749999534,
      "v": 110
    },
    {
      "midi": 49,
      "hit": false,
      "t": 149515.83000000077,
      "d": 403.2250000000058,
      "v": 110
    },
    {
      "midi": 53,
      "hit": false,
      "t": 149515.83000000077,
      "d": 403.2250000000058,
      "v": 110
    },
    {
      "midi": 56,
      "hit": false,
      "t": 149515.83000000077,
      "d": 403.2250000000058,
      "v": 110
    },
    {
      "midi": 67,
      "hit": false,
      "t": 149757.765,
      "d": 236.8946874999965,
      "v": 110
    },
    {
      "midi": 67,
      "hit": false,
      "t": 149999.7,
      "d": 115.92718749999767,
      "v": 110
    },
    {
      "midi": 49,
      "hit": false,
      "t": 149999.70000000077,
      "d": 403.2250000000058,
      "v": 110
    },
    {
      "midi": 53,
      "hit": false,
      "t": 149999.70000000077,
      "d": 403.2250000000058,
      "v": 110
    },
    {
      "midi": 56,
      "hit": false,
      "t": 149999.70000000077,
      "d": 403.2250000000058,
      "v": 110
    },
    {
      "midi": 65,
      "hit": false,
      "t": 150120.6675,
      "d": 236.8946874999965,
      "v": 110
    },
    {
      "midi": 65,
      "hit": false,
      "t": 150362.6025,
      "d": 357.86218749999534,
      "v": 110
    },
    {
      "midi": 49,
      "hit": false,
      "t": 150483.57000000076,
      "d": 403.2250000000058,
      "v": 110
    },
    {
      "midi": 53,
      "hit": false,
      "t": 150483.57000000076,
      "d": 403.2250000000058,
      "v": 110
    },
    {
      "midi": 56,
      "hit": false,
      "t": 150483.57000000076,
      "d": 403.2250000000058,
      "v": 110
    },
    {
      "midi": 65,
      "hit": false,
      "t": 150725.505,
      "d": 236.8946874999965,
      "v": 110
    },
    {
      "midi": 67,
      "hit": false,
      "t": 150967.44,
      "d": 1814.5125000000116,
      "v": 110
    },
    {
      "midi": 51,
      "hit": false,
      "t": 150967.44000000076,
      "d": 403.2250000000058,
      "v": 110
    },
    {
      "midi": 55,
      "hit": false,
      "t": 150967.44000000076,
      "d": 403.2250000000058,
      "v": 110
    },
    {
      "midi": 58,
      "hit": false,
      "t": 150967.44000000076,
      "d": 403.2250000000058,
      "v": 110
    },
    {
      "midi": 51,
      "hit": false,
      "t": 151451.31000000075,
      "d": 403.2250000000058,
      "v": 110
    },
    {
      "midi": 55,
      "hit": false,
      "t": 151451.31000000075,
      "d": 403.2250000000058,
      "v": 110
    },
    {
      "midi": 58,
      "hit": false,
      "t": 151451.31000000075,
      "d": 403.2250000000058,
      "v": 110
    },
    {
      "midi": 51,
      "hit": false,
      "t": 151935.18000000075,
      "d": 403.2250000000058,
      "v": 110
    },
    {
      "midi": 55,
      "hit": false,
      "t": 151935.18000000075,
      "d": 403.2250000000058,
      "v": 110
    },
    {
      "midi": 58,
      "hit": false,
      "t": 151935.18000000075,
      "d": 403.2250000000058,
      "v": 110
    },
    {
      "midi": 51,
      "hit": false,
      "t": 152419.05000000075,
      "d": 403.2250000000058,
      "v": 110
    },
    {
      "midi": 55,
      "hit": false,
      "t": 152419.05000000075,
      "d": 403.2250000000058,
      "v": 110
    },
    {
      "midi": 58,
      "hit": false,
      "t": 152419.05000000075,
      "d": 403.2250000000058,
      "v": 110
    },
    {
      "midi": 72,
      "hit": false,
      "t": 152902.92,
      "d": 1330.6424999999872,
      "v": 110
    },
    {
      "midi": 48,
      "hit": false,
      "t": 152902.92000000074,
      "d": 403.2250000000058,
      "v": 110
    },
    {
      "midi": 53,
      "hit": false,
      "t": 152902.92000000074,
      "d": 403.2250000000058,
      "v": 110
    },
    {
      "midi": 55,
      "hit": false,
      "t": 152902.92000000074,
      "d": 403.2250000000058,
      "v": 110
    },
    {
      "midi": 48,
      "hit": false,
      "t": 153386.79000000074,
      "d": 403.2250000000058,
      "v": 110
    },
    {
      "midi": 53,
      "hit": false,
      "t": 153386.79000000074,
      "d": 403.2250000000058,
      "v": 110
    },
    {
      "midi": 55,
      "hit": false,
      "t": 153386.79000000074,
      "d": 403.2250000000058,
      "v": 110
    },
    {
      "midi": 48,
      "hit": false,
      "t": 153870.66000000073,
      "d": 403.2250000000058,
      "v": 110
    },
    {
      "midi": 52,
      "hit": false,
      "t": 153870.66000000073,
      "d": 403.2250000000058,
      "v": 110
    },
    {
      "midi": 55,
      "hit": false,
      "t": 153870.66000000073,
      "d": 403.2250000000058,
      "v": 110
    },
    {
      "midi": 48,
      "hit": false,
      "t": 154354.53000000073,
      "d": 403.2250000000058,
      "v": 110
    },
    {
      "midi": 52,
      "hit": false,
      "t": 154354.53000000073,
      "d": 403.2250000000058,
      "v": 110
    },
    {
      "midi": 55,
      "hit": false,
      "t": 154354.53000000073,
      "d": 403.2250000000058,
      "v": 110
    },
    {
      "midi": 67,
      "hit": false,
      "t": 154838.4,
      "d": 236.8946874999965,
      "v": 110
    },
    {
      "midi": 53,
      "hit": false,
      "t": 154838.40000000072,
      "d": 403.2250000000058,
      "v": 110
    },
    {
      "midi": 57,
      "hit": false,
      "t": 154838.40000000072,
      "d": 403.2250000000058,
      "v": 110
    },
    {
      "midi": 69,
      "hit": false,
      "t": 155080.335,
      "d": 236.8946874999965,
      "v": 110
    },
    {
      "midi": 72,
      "hit": false,
      "t": 155322.27,
      "d": 236.8946874999965,
      "v": 110
    },
    {
      "midi": 53,
      "hit": false,
      "t": 155322.27000000072,
      "d": 403.2250000000058,
      "v": 110
    },
    {
      "midi": 57,
      "hit": false,
      "t": 155322.27000000072,
      "d": 403.2250000000058,
      "v": 110
    },
    {
      "midi": 67,
      "hit": false,
      "t": 155564.205,
      "d": 115.92718749999767,
      "v": 110
    },
    {
      "midi": 67,
      "hit": false,
      "t": 155685.1725,
      "d": 115.92718749999767,
      "v": 110
    },
    {
      "midi": 67,
      "hit": false,
      "t": 155806.13999999998,
      "d": 115.92718749999767,
      "v": 110
    },
    {
      "midi": 53,
      "hit": false,
      "t": 155806.1400000007,
      "d": 403.2250000000058,
      "v": 110
    },
    {
      "midi": 57,
      "hit": false,
      "t": 155806.1400000007,
      "d": 403.2250000000058,
      "v": 110
    },
    {
      "midi": 69,
      "hit": false,
      "t": 155927.10749999998,
      "d": 236.8946874999965,
      "v": 110
    },
    {
      "midi": 72,
      "hit": false,
      "t": 156169.04249999998,
      "d": 357.86218749999534,
      "v": 110
    },
    {
      "midi": 53,
      "hit": false,
      "t": 156290.0100000007,
      "d": 403.2250000000058,
      "v": 110
    },
    {
      "midi": 57,
      "hit": false,
      "t": 156290.0100000007,
      "d": 403.2250000000058,
      "v": 110
    },
    {
      "midi": 67,
      "hit": false,
      "t": 156531.94499999998,
      "d": 115.92718749999767,
      "v": 110
    },
    {
      "midi": 67,
      "hit": false,
      "t": 156652.91249999998,
      "d": 115.92718749999767,
      "v": 110
    },
    {
      "midi": 67,
      "hit": false,
      "t": 156773.87999999998,
      "d": 236.8946874999965,
      "v": 110
    },
    {
      "midi": 48,
      "hit": false,
      "t": 156773.8800000007,
      "d": 403.2250000000058,
      "v": 110
    },
    {
      "midi": 51,
      "hit": false,
      "t": 156773.8800000007,
      "d": 403.2250000000058,
      "v": 110
    },
    {
      "midi": 55,
      "hit": false,
      "t": 156773.8800000007,
      "d": 403.2250000000058,
      "v": 110
    },
    {
      "midi": 69,
      "hit": false,
      "t": 157015.81499999997,
      "d": 236.8946874999965,
      "v": 110
    },
    {
      "midi": 72,
      "hit": false,
      "t": 157257.74999999997,
      "d": 236.8946874999965,
      "v": 110
    },
    {
      "midi": 48,
      "hit": false,
      "t": 157257.7500000007,
      "d": 403.2250000000058,
      "v": 110
    },
    {
      "midi": 51,
      "hit": false,
      "t": 157257.7500000007,
      "d": 403.2250000000058,
      "v": 110
    },
    {
      "midi": 55,
      "hit": false,
      "t": 157257.7500000007,
      "d": 403.2250000000058,
      "v": 110
    },
    {
      "midi": 67,
      "hit": false,
      "t": 157499.68499999997,
      "d": 115.92718749999767,
      "v": 110
    },
    {
      "midi": 67,
      "hit": false,
      "t": 157620.65249999997,
      "d": 115.92718749999767,
      "v": 110
    },
    {
      "midi": 67,
      "hit": false,
      "t": 157741.61999999997,
      "d": 115.92718749999767,
      "v": 110
    },
    {
      "midi": 48,
      "hit": false,
      "t": 157741.6200000007,
      "d": 403.2250000000058,
      "v": 110
    },
    {
      "midi": 51,
      "hit": false,
      "t": 157741.6200000007,
      "d": 403.2250000000058,
      "v": 110
    },
    {
      "midi": 55,
      "hit": false,
      "t": 157741.6200000007,
      "d": 403.2250000000058,
      "v": 110
    },
    {
      "midi": 69,
      "hit": false,
      "t": 157862.58749999997,
      "d": 236.8946874999965,
      "v": 110
    },
    {
      "midi": 72,
      "hit": false,
      "t": 158104.52249999996,
      "d": 524.1925000000047,
      "v": 110
    },
    {
      "midi": 48,
      "hit": false,
      "t": 158225.4900000007,
      "d": 403.2250000000058,
      "v": 110
    },
    {
      "midi": 51,
      "hit": false,
      "t": 158225.4900000007,
      "d": 403.2250000000058,
      "v": 110
    },
    {
      "midi": 55,
      "hit": false,
      "t": 158225.4900000007,
      "d": 403.2250000000058,
      "v": 110
    },
    {
      "midi": 70,
      "hit": false,
      "t": 158709.35999999996,
      "d": 357.86218749999534,
      "v": 110
    },
    {
      "midi": 50,
      "hit": false,
      "t": 158709.36000000068,
      "d": 403.2250000000058,
      "v": 110
    },
    {
      "midi": 53,
      "hit": false,
      "t": 158709.36000000068,
      "d": 403.2250000000058,
      "v": 110
    },
    {
      "midi": 58,
      "hit": false,
      "t": 158709.36000000068,
      "d": 403.2250000000058,
      "v": 110
    },
    {
      "midi": 69,
      "hit": false,
      "t": 159072.26249999995,
      "d": 357.86218749999534,
      "v": 110
    },
    {
      "midi": 50,
      "hit": false,
      "t": 159193.23000000068,
      "d": 403.2250000000058,
      "v": 110
    },
    {
      "midi": 53,
      "hit": false,
      "t": 159193.23000000068,
      "d": 403.2250000000058,
      "v": 110
    },
    {
      "midi": 58,
      "hit": false,
      "t": 159193.23000000068,
      "d": 403.2250000000058,
      "v": 110
    },
    {
      "midi": 70,
      "hit": false,
      "t": 159435.16499999995,
      "d": 236.8946874999965,
      "v": 110
    },
    {
      "midi": 69,
      "hit": false,
      "t": 159677.09999999995,
      "d": 403.2250000000058,
      "v": 110
    },
    {
      "midi": 50,
      "hit": false,
      "t": 159677.10000000068,
      "d": 403.2250000000058,
      "v": 110
    },
    {
      "midi": 53,
      "hit": false,
      "t": 159677.10000000068,
      "d": 403.2250000000058,
      "v": 110
    },
    {
      "midi": 58,
      "hit": false,
      "t": 159677.10000000068,
      "d": 403.2250000000058,
      "v": 110
    },
    {
      "midi": 67,
      "hit": false,
      "t": 160160.96999999994,
      "d": 403.2250000000058,
      "v": 110
    },
    {
      "midi": 50,
      "hit": false,
      "t": 160160.97000000067,
      "d": 403.2250000000058,
      "v": 110
    },
    {
      "midi": 53,
      "hit": false,
      "t": 160160.97000000067,
      "d": 403.2250000000058,
      "v": 110
    },
    {
      "midi": 58,
      "hit": false,
      "t": 160160.97000000067,
      "d": 403.2250000000058,
      "v": 110
    },
    {
      "midi": 65,
      "hit": false,
      "t": 160644.83999999994,
      "d": 645.1600000000035,
      "v": 110
    },
    {
      "midi": 49,
      "hit": false,
      "t": 160644.84000000067,
      "d": 403.2250000000058,
      "v": 110
    },
    {
      "midi": 53,
      "hit": false,
      "t": 160644.84000000067,
      "d": 403.2250000000058,
      "v": 110
    },
    {
      "midi": 58,
      "hit": false,
      "t": 160644.84000000067,
      "d": 403.2250000000058,
      "v": 110
    },
    {
      "midi": 49,
      "hit": false,
      "t": 161128.71000000066,
      "d": 403.2250000000058,
      "v": 110
    },
    {
      "midi": 53,
      "hit": false,
      "t": 161128.71000000066,
      "d": 403.2250000000058,
      "v": 110
    },
    {
      "midi": 58,
      "hit": false,
      "t": 161128.71000000066,
      "d": 403.2250000000058,
      "v": 110
    },
    {
      "midi": 67,
      "hit": false,
      "t": 161370.64499999993,
      "d": 236.8946874999965,
      "v": 110
    },
    {
      "midi": 67,
      "hit": false,
      "t": 161612.57999999993,
      "d": 403.2250000000058,
      "v": 110
    },
    {
      "midi": 49,
      "hit": false,
      "t": 161612.58000000066,
      "d": 403.2250000000058,
      "v": 110
    },
    {
      "midi": 53,
      "hit": false,
      "t": 161612.58000000066,
      "d": 403.2250000000058,
      "v": 110
    },
    {
      "midi": 58,
      "hit": false,
      "t": 161612.58000000066,
      "d": 403.2250000000058,
      "v": 110
    },
    {
      "midi": 49,
      "hit": false,
      "t": 162096.45000000065,
      "d": 403.2250000000058,
      "v": 110
    },
    {
      "midi": 53,
      "hit": false,
      "t": 162096.45000000065,
      "d": 403.2250000000058,
      "v": 110
    },
    {
      "midi": 58,
      "hit": false,
      "t": 162096.45000000065,
      "d": 403.2250000000058,
      "v": 110
    },
    {
      "midi": 65,
      "hit": false,
      "t": 162580.31999999995,
      "d": 236.8946874999965,
      "v": 110
    },
    {
      "midi": 48,
      "hit": false,
      "t": 162580.32000000065,
      "d": 403.2250000000058,
      "v": 110
    },
    {
      "midi": 53,
      "hit": false,
      "t": 162580.32000000065,
      "d": 403.2250000000058,
      "v": 110
    },
    {
      "midi": 57,
      "hit": false,
      "t": 162580.32000000065,
      "d": 403.2250000000058,
      "v": 110
    },
    {
      "midi": 67,
      "hit": false,
      "t": 162822.25499999995,
      "d": 236.8946874999965,
      "v": 110
    },
    {
      "midi": 69,
      "hit": false,
      "t": 163064.18999999994,
      "d": 236.8946874999965,
      "v": 110
    },
    {
      "midi": 48,
      "hit": false,
      "t": 163064.19000000064,
      "d": 403.2250000000058,
      "v": 110
    },
    {
      "midi": 53,
      "hit": false,
      "t": 163064.19000000064,
      "d": 403.2250000000058,
      "v": 110
    },
    {
      "midi": 57,
      "hit": false,
      "t": 163064.19000000064,
      "d": 403.2250000000058,
      "v": 110
    },
    {
      "midi": 65,
      "hit": false,
      "t": 163306.12499999994,
      "d": 115.92718749999767,
      "v": 110
    },
    {
      "midi": 65,
      "hit": false,
      "t": 163427.09249999994,
      "d": 115.92718749999767,
      "v": 110
    },
    {
      "midi": 65,
      "hit": false,
      "t": 163548.05999999994,
      "d": 115.92718749999767,
      "v": 110
    },
    {
      "midi": 48,
      "hit": false,
      "t": 163548.06000000064,
      "d": 403.2250000000058,
      "v": 110
    },
    {
      "midi": 53,
      "hit": false,
      "t": 163548.06000000064,
      "d": 403.2250000000058,
      "v": 110
    },
    {
      "midi": 57,
      "hit": false,
      "t": 163548.06000000064,
      "d": 403.2250000000058,
      "v": 110
    },
    {
      "midi": 67,
      "hit": false,
      "t": 163669.02749999994,
      "d": 236.8946874999965,
      "v": 110
    },
    {
      "midi": 69,
      "hit": false,
      "t": 163910.96249999994,
      "d": 357.86218749999534,
      "v": 110
    },
    {
      "midi": 48,
      "hit": false,
      "t": 164031.93000000063,
      "d": 403.2250000000058,
      "v": 110
    },
    {
      "midi": 53,
      "hit": false,
      "t": 164031.93000000063,
      "d": 403.2250000000058,
      "v": 110
    },
    {
      "midi": 57,
      "hit": false,
      "t": 164031.93000000063,
      "d": 403.2250000000058,
      "v": 110
    },
    {
      "midi": 65,
      "hit": false,
      "t": 164273.86499999993,
      "d": 115.92718749999767,
      "v": 110
    },
    {
      "midi": 65,
      "hit": false,
      "t": 164394.83249999993,
      "d": 115.92718749999767,
      "v": 110
    },
    {
      "midi": 65,
      "hit": false,
      "t": 164515.79999999993,
      "d": 236.8946874999965,
      "v": 110
    },
    {
      "midi": 50,
      "hit": false,
      "t": 164515.80000000063,
      "d": 403.2250000000058,
      "v": 110
    },
    {
      "midi": 53,
      "hit": false,
      "t": 164515.80000000063,
      "d": 403.2250000000058,
      "v": 110
    },
    {
      "midi": 57,
      "hit": false,
      "t": 164515.80000000063,
      "d": 403.2250000000058,
      "v": 110
    },
    {
      "midi": 67,
      "hit": false,
      "t": 164757.73499999993,
      "d": 236.8946874999965,
      "v": 110
    },
    {
      "midi": 69,
      "hit": false,
      "t": 164999.66999999993,
      "d": 236.8946874999965,
      "v": 110
    },
    {
      "midi": 50,
      "hit": false,
      "t": 164999.67000000062,
      "d": 403.2250000000058,
      "v": 110
    },
    {
      "midi": 53,
      "hit": false,
      "t": 164999.67000000062,
      "d": 403.2250000000058,
      "v": 110
    },
    {
      "midi": 57,
      "hit": false,
      "t": 164999.67000000062,
      "d": 403.2250000000058,
      "v": 110
    },
    {
      "midi": 65,
      "hit": false,
      "t": 165241.60499999992,
      "d": 115.92718749999767,
      "v": 110
    },
    {
      "midi": 65,
      "hit": false,
      "t": 165362.57249999992,
      "d": 115.92718749999767,
      "v": 110
    },
    {
      "midi": 65,
      "hit": false,
      "t": 165483.53999999992,
      "d": 115.92718749999767,
      "v": 110
    },
    {
      "midi": 50,
      "hit": false,
      "t": 165483.54000000062,
      "d": 403.2250000000058,
      "v": 110
    },
    {
      "midi": 53,
      "hit": false,
      "t": 165483.54000000062,
      "d": 403.2250000000058,
      "v": 110
    },
    {
      "midi": 57,
      "hit": false,
      "t": 165483.54000000062,
      "d": 403.2250000000058,
      "v": 110
    },
    {
      "midi": 67,
      "hit": false,
      "t": 165604.50749999992,
      "d": 236.8946874999965,
      "v": 110
    },
    {
      "midi": 69,
      "hit": false,
      "t": 165846.44249999992,
      "d": 524.1925000000047,
      "v": 110
    },
    {
      "midi": 50,
      "hit": false,
      "t": 165967.41000000061,
      "d": 403.2250000000058,
      "v": 110
    },
    {
      "midi": 53,
      "hit": false,
      "t": 165967.41000000061,
      "d": 403.2250000000058,
      "v": 110
    },
    {
      "midi": 57,
      "hit": false,
      "t": 165967.41000000061,
      "d": 403.2250000000058,
      "v": 110
    },
    {
      "midi": 70,
      "hit": false,
      "t": 166451.2799999999,
      "d": 357.86218749999534,
      "v": 110
    },
    {
      "midi": 51,
      "hit": false,
      "t": 166451.2800000006,
      "d": 403.2250000000058,
      "v": 110
    },
    {
      "midi": 55,
      "hit": false,
      "t": 166451.2800000006,
      "d": 403.2250000000058,
      "v": 110
    },
    {
      "midi": 58,
      "hit": false,
      "t": 166451.2800000006,
      "d": 403.2250000000058,
      "v": 110
    },
    {
      "midi": 69,
      "hit": false,
      "t": 166814.1824999999,
      "d": 357.86218749999534,
      "v": 110
    },
    {
      "midi": 51,
      "hit": false,
      "t": 166935.1500000006,
      "d": 403.2250000000058,
      "v": 110
    },
    {
      "midi": 55,
      "hit": false,
      "t": 166935.1500000006,
      "d": 403.2250000000058,
      "v": 110
    },
    {
      "midi": 58,
      "hit": false,
      "t": 166935.1500000006,
      "d": 403.2250000000058,
      "v": 110
    },
    {
      "midi": 65,
      "hit": false,
      "t": 167177.0849999999,
      "d": 236.8946874999965,
      "v": 110
    },
    {
      "midi": 65,
      "hit": false,
      "t": 167419.0199999999,
      "d": 403.2250000000058,
      "v": 110
    },
    {
      "midi": 51,
      "hit": false,
      "t": 167419.0200000006,
      "d": 403.2250000000058,
      "v": 110
    },
    {
      "midi": 55,
      "hit": false,
      "t": 167419.0200000006,
      "d": 403.2250000000058,
      "v": 110
    },
    {
      "midi": 58,
      "hit": false,
      "t": 167419.0200000006,
      "d": 403.2250000000058,
      "v": 110
    },
    {
      "midi": 51,
      "hit": false,
      "t": 167902.8900000006,
      "d": 403.2250000000058,
      "v": 110
    },
    {
      "midi": 55,
      "hit": false,
      "t": 167902.8900000006,
      "d": 403.2250000000058,
      "v": 110
    },
    {
      "midi": 58,
      "hit": false,
      "t": 167902.8900000006,
      "d": 403.2250000000058,
      "v": 110
    },
    {
      "midi": 70,
      "hit": false,
      "t": 168386.75999999992,
      "d": 357.86218749999534,
      "v": 110
    },
    {
      "midi": 48,
      "hit": false,
      "t": 168386.7600000006,
      "d": 403.2250000000058,
      "v": 110
    },
    {
      "midi": 53,
      "hit": false,
      "t": 168386.7600000006,
      "d": 403.2250000000058,
      "v": 110
    },
    {
      "midi": 55,
      "hit": false,
      "t": 168386.7600000006,
      "d": 403.2250000000058,
      "v": 110
    },
    {
      "midi": 69,
      "hit": false,
      "t": 168749.66249999992,
      "d": 357.86218749999534,
      "v": 110
    },
    {
      "midi": 48,
      "hit": false,
      "t": 168870.6300000006,
      "d": 403.2250000000058,
      "v": 110
    },
    {
      "midi": 53,
      "hit": false,
      "t": 168870.6300000006,
      "d": 403.2250000000058,
      "v": 110
    },
    {
      "midi": 55,
      "hit": false,
      "t": 168870.6300000006,
      "d": 403.2250000000058,
      "v": 110
    },
    {
      "midi": 65,
      "hit": false,
      "t": 169112.56499999992,
      "d": 236.8946874999965,
      "v": 110
    },
    {
      "midi": 69,
      "hit": false,
      "t": 169354.4999999999,
      "d": 403.2250000000058,
      "v": 110
    },
    {
      "midi": 48,
      "hit": false,
      "t": 169354.50000000058,
      "d": 403.2250000000058,
      "v": 110
    },
    {
      "midi": 52,
      "hit": false,
      "t": 169354.50000000058,
      "d": 403.2250000000058,
      "v": 110
    },
    {
      "midi": 55,
      "hit": false,
      "t": 169354.50000000058,
      "d": 403.2250000000058,
      "v": 110
    },
    {
      "midi": 67,
      "hit": false,
      "t": 169838.3699999999,
      "d": 403.2250000000058,
      "v": 110
    },
    {
      "midi": 48,
      "hit": false,
      "t": 169838.37000000058,
      "d": 403.2250000000058,
      "v": 110
    },
    {
      "midi": 52,
      "hit": false,
      "t": 169838.37000000058,
      "d": 403.2250000000058,
      "v": 110
    },
    {
      "midi": 55,
      "hit": false,
      "t": 169838.37000000058,
      "d": 403.2250000000058,
      "v": 110
    },
    {
      "midi": 67,
      "hit": false,
      "t": 170322.2399999999,
      "d": 236.8946874999965,
      "v": 110
    },
    {
      "midi": 53,
      "hit": false,
      "t": 170322.24000000057,
      "d": 403.2250000000058,
      "v": 110
    },
    {
      "midi": 57,
      "hit": false,
      "t": 170322.24000000057,
      "d": 403.2250000000058,
      "v": 110
    },
    {
      "midi": 69,
      "hit": false,
      "t": 170564.1749999999,
      "d": 236.8946874999965,
      "v": 110
    },
    {
      "midi": 72,
      "hit": false,
      "t": 170806.1099999999,
      "d": 236.8946874999965,
      "v": 110
    },
    {
      "midi": 53,
      "hit": false,
      "t": 170806.11000000057,
      "d": 403.2250000000058,
      "v": 110
    },
    {
      "midi": 57,
      "hit": false,
      "t": 170806.11000000057,
      "d": 403.2250000000058,
      "v": 110
    },
    {
      "midi": 67,
      "hit": false,
      "t": 171048.0449999999,
      "d": 115.92718749999767,
      "v": 110
    },
    {
      "midi": 67,
      "hit": false,
      "t": 171169.0124999999,
      "d": 115.92718749999767,
      "v": 110
    },
    {
      "midi": 67,
      "hit": false,
      "t": 171289.9799999999,
      "d": 115.92718749999767,
      "v": 110
    },
    {
      "midi": 53,
      "hit": false,
      "t": 171289.98000000056,
      "d": 403.2250000000058,
      "v": 110
    },
    {
      "midi": 57,
      "hit": false,
      "t": 171289.98000000056,
      "d": 403.2250000000058,
      "v": 110
    },
    {
      "midi": 69,
      "hit": false,
      "t": 171410.9474999999,
      "d": 236.8946874999965,
      "v": 110
    },
    {
      "midi": 72,
      "hit": false,
      "t": 171652.8824999999,
      "d": 357.86218749999534,
      "v": 110
    },
    {
      "midi": 53,
      "hit": false,
      "t": 171773.85000000056,
      "d": 403.2250000000058,
      "v": 110
    },
    {
      "midi": 57,
      "hit": false,
      "t": 171773.85000000056,
      "d": 403.2250000000058,
      "v": 110
    },
    {
      "midi": 67,
      "hit": false,
      "t": 172015.7849999999,
      "d": 115.92718749999767,
      "v": 110
    },
    {
      "midi": 67,
      "hit": false,
      "t": 172136.7524999999,
      "d": 115.92718749999767,
      "v": 110
    },
    {
      "midi": 67,
      "hit": false,
      "t": 172257.71999999988,
      "d": 236.8946874999965,
      "v": 110
    },
    {
      "midi": 48,
      "hit": false,
      "t": 172257.72000000055,
      "d": 403.2250000000058,
      "v": 110
    },
    {
      "midi": 51,
      "hit": false,
      "t": 172257.72000000055,
      "d": 403.2250000000058,
      "v": 110
    },
    {
      "midi": 55,
      "hit": false,
      "t": 172257.72000000055,
      "d": 403.2250000000058,
      "v": 110
    },
    {
      "midi": 69,
      "hit": false,
      "t": 172499.65499999988,
      "d": 236.8946874999965,
      "v": 110
    },
    {
      "midi": 72,
      "hit": false,
      "t": 172741.58999999988,
      "d": 236.8946874999965,
      "v": 110
    },
    {
      "midi": 48,
      "hit": false,
      "t": 172741.59000000055,
      "d": 403.2250000000058,
      "v": 110
    },
    {
      "midi": 51,
      "hit": false,
      "t": 172741.59000000055,
      "d": 403.2250000000058,
      "v": 110
    },
    {
      "midi": 55,
      "hit": false,
      "t": 172741.59000000055,
      "d": 403.2250000000058,
      "v": 110
    },
    {
      "midi": 67,
      "hit": false,
      "t": 172983.52499999988,
      "d": 115.92718749999767,
      "v": 110
    },
    {
      "midi": 67,
      "hit": false,
      "t": 173104.49249999988,
      "d": 115.92718749999767,
      "v": 110
    },
    {
      "midi": 67,
      "hit": false,
      "t": 173225.45999999988,
      "d": 115.92718749999767,
      "v": 110
    },
    {
      "midi": 48,
      "hit": false,
      "t": 173225.46000000054,
      "d": 403.2250000000058,
      "v": 110
    },
    {
      "midi": 51,
      "hit": false,
      "t": 173225.46000000054,
      "d": 403.2250000000058,
      "v": 110
    },
    {
      "midi": 55,
      "hit": false,
      "t": 173225.46000000054,
      "d": 403.2250000000058,
      "v": 110
    },
    {
      "midi": 69,
      "hit": false,
      "t": 173346.42749999987,
      "d": 236.8946874999965,
      "v": 110
    },
    {
      "midi": 72,
      "hit": false,
      "t": 173588.36249999987,
      "d": 524.1925000000047,
      "v": 110
    },
    {
      "midi": 48,
      "hit": false,
      "t": 173709.33000000054,
      "d": 403.2250000000058,
      "v": 110
    },
    {
      "midi": 51,
      "hit": false,
      "t": 173709.33000000054,
      "d": 403.2250000000058,
      "v": 110
    },
    {
      "midi": 55,
      "hit": false,
      "t": 173709.33000000054,
      "d": 403.2250000000058,
      "v": 110
    },
    {
      "midi": 70,
      "hit": false,
      "t": 174193.19999999987,
      "d": 357.86218749999534,
      "v": 110
    },
    {
      "midi": 50,
      "hit": false,
      "t": 174193.20000000054,
      "d": 403.2250000000058,
      "v": 110
    },
    {
      "midi": 53,
      "hit": false,
      "t": 174193.20000000054,
      "d": 403.2250000000058,
      "v": 110
    },
    {
      "midi": 58,
      "hit": false,
      "t": 174193.20000000054,
      "d": 403.2250000000058,
      "v": 110
    },
    {
      "midi": 69,
      "hit": false,
      "t": 174556.10249999986,
      "d": 357.86218749999534,
      "v": 110
    },
    {
      "midi": 50,
      "hit": false,
      "t": 174677.07000000053,
      "d": 403.2250000000058,
      "v": 110
    },
    {
      "midi": 53,
      "hit": false,
      "t": 174677.07000000053,
      "d": 403.2250000000058,
      "v": 110
    },
    {
      "midi": 58,
      "hit": false,
      "t": 174677.07000000053,
      "d": 403.2250000000058,
      "v": 110
    },
    {
      "midi": 70,
      "hit": false,
      "t": 174919.00499999986,
      "d": 236.8946874999965,
      "v": 110
    },
    {
      "midi": 69,
      "hit": false,
      "t": 175160.93999999986,
      "d": 403.2250000000058,
      "v": 110
    },
    {
      "midi": 50,
      "hit": false,
      "t": 175160.94000000053,
      "d": 403.2250000000058,
      "v": 110
    },
    {
      "midi": 53,
      "hit": false,
      "t": 175160.94000000053,
      "d": 403.2250000000058,
      "v": 110
    },
    {
      "midi": 58,
      "hit": false,
      "t": 175160.94000000053,
      "d": 403.2250000000058,
      "v": 110
    },
    {
      "midi": 67,
      "hit": false,
      "t": 175644.80999999985,
      "d": 403.2250000000058,
      "v": 110
    },
    {
      "midi": 50,
      "hit": false,
      "t": 175644.81000000052,
      "d": 403.2250000000058,
      "v": 110
    },
    {
      "midi": 53,
      "hit": false,
      "t": 175644.81000000052,
      "d": 403.2250000000058,
      "v": 110
    },
    {
      "midi": 58,
      "hit": false,
      "t": 175644.81000000052,
      "d": 403.2250000000058,
      "v": 110
    },
    {
      "midi": 65,
      "hit": false,
      "t": 176128.67999999985,
      "d": 645.1600000000035,
      "v": 110
    },
    {
      "midi": 49,
      "hit": false,
      "t": 176128.68000000052,
      "d": 403.2250000000058,
      "v": 110
    },
    {
      "midi": 53,
      "hit": false,
      "t": 176128.68000000052,
      "d": 403.2250000000058,
      "v": 110
    },
    {
      "midi": 58,
      "hit": false,
      "t": 176128.68000000052,
      "d": 403.2250000000058,
      "v": 110
    },
    {
      "midi": 49,
      "hit": false,
      "t": 176612.5500000005,
      "d": 403.2250000000058,
      "v": 110
    },
    {
      "midi": 53,
      "hit": false,
      "t": 176612.5500000005,
      "d": 403.2250000000058,
      "v": 110
    },
    {
      "midi": 58,
      "hit": false,
      "t": 176612.5500000005,
      "d": 403.2250000000058,
      "v": 110
    },
    {
      "midi": 67,
      "hit": false,
      "t": 176854.48499999984,
      "d": 236.8946874999965,
      "v": 110
    },
    {
      "midi": 67,
      "hit": false,
      "t": 177096.41999999984,
      "d": 403.2250000000058,
      "v": 110
    },
    {
      "midi": 49,
      "hit": false,
      "t": 177096.4200000005,
      "d": 403.2250000000058,
      "v": 110
    },
    {
      "midi": 53,
      "hit": false,
      "t": 177096.4200000005,
      "d": 403.2250000000058,
      "v": 110
    },
    {
      "midi": 58,
      "hit": false,
      "t": 177096.4200000005,
      "d": 403.2250000000058,
      "v": 110
    },
    {
      "midi": 49,
      "hit": false,
      "t": 177580.2900000005,
      "d": 403.2250000000058,
      "v": 110
    },
    {
      "midi": 53,
      "hit": false,
      "t": 177580.2900000005,
      "d": 403.2250000000058,
      "v": 110
    },
    {
      "midi": 58,
      "hit": false,
      "t": 177580.2900000005,
      "d": 403.2250000000058,
      "v": 110
    },
    {
      "midi": 65,
      "hit": false,
      "t": 178064.15999999986,
      "d": 236.8946874999965,
      "v": 110
    },
    {
      "midi": 48,
      "hit": false,
      "t": 178064.1600000005,
      "d": 403.2250000000058,
      "v": 110
    },
    {
      "midi": 53,
      "hit": false,
      "t": 178064.1600000005,
      "d": 403.2250000000058,
      "v": 110
    },
    {
      "midi": 57,
      "hit": false,
      "t": 178064.1600000005,
      "d": 403.2250000000058,
      "v": 110
    },
    {
      "midi": 67,
      "hit": false,
      "t": 178306.09499999986,
      "d": 236.8946874999965,
      "v": 110
    },
    {
      "midi": 69,
      "hit": false,
      "t": 178548.02999999985,
      "d": 236.8946874999965,
      "v": 110
    },
    {
      "midi": 48,
      "hit": false,
      "t": 178548.0300000005,
      "d": 403.2250000000058,
      "v": 110
    },
    {
      "midi": 53,
      "hit": false,
      "t": 178548.0300000005,
      "d": 403.2250000000058,
      "v": 110
    },
    {
      "midi": 57,
      "hit": false,
      "t": 178548.0300000005,
      "d": 403.2250000000058,
      "v": 110
    },
    {
      "midi": 65,
      "hit": false,
      "t": 178789.96499999985,
      "d": 115.92718749999767,
      "v": 110
    },
    {
      "midi": 65,
      "hit": false,
      "t": 178910.93249999985,
      "d": 115.92718749999767,
      "v": 110
    },
    {
      "midi": 65,
      "hit": false,
      "t": 179031.89999999985,
      "d": 115.92718749999767,
      "v": 110
    },
    {
      "midi": 48,
      "hit": false,
      "t": 179031.9000000005,
      "d": 403.2250000000058,
      "v": 110
    },
    {
      "midi": 53,
      "hit": false,
      "t": 179031.9000000005,
      "d": 403.2250000000058,
      "v": 110
    },
    {
      "midi": 57,
      "hit": false,
      "t": 179031.9000000005,
      "d": 403.2250000000058,
      "v": 110
    },
    {
      "midi": 67,
      "hit": false,
      "t": 179152.86749999985,
      "d": 236.8946874999965,
      "v": 110
    },
    {
      "midi": 69,
      "hit": false,
      "t": 179394.80249999985,
      "d": 357.86218749999534,
      "v": 110
    },
    {
      "midi": 48,
      "hit": false,
      "t": 179515.77000000048,
      "d": 403.2250000000058,
      "v": 110
    },
    {
      "midi": 53,
      "hit": false,
      "t": 179515.77000000048,
      "d": 403.2250000000058,
      "v": 110
    },
    {
      "midi": 57,
      "hit": false,
      "t": 179515.77000000048,
      "d": 403.2250000000058,
      "v": 110
    },
    {
      "midi": 65,
      "hit": false,
      "t": 179757.70499999984,
      "d": 115.92718749999767,
      "v": 110
    },
    {
      "midi": 65,
      "hit": false,
      "t": 179878.67249999984,
      "d": 115.92718749999767,
      "v": 110
    },
    {
      "midi": 65,
      "hit": false,
      "t": 179999.63999999984,
      "d": 236.8946874999965,
      "v": 110
    },
    {
      "midi": 50,
      "hit": false,
      "t": 179999.64000000048,
      "d": 403.2250000000058,
      "v": 110
    },
    {
      "midi": 53,
      "hit": false,
      "t": 179999.64000000048,
      "d": 403.2250000000058,
      "v": 110
    },
    {
      "midi": 57,
      "hit": false,
      "t": 179999.64000000048,
      "d": 403.2250000000058,
      "v": 110
    },
    {
      "midi": 67,
      "hit": false,
      "t": 180241.57499999984,
      "d": 236.8946874999965,
      "v": 110
    },
    {
      "midi": 69,
      "hit": false,
      "t": 180483.50999999983,
      "d": 236.8946874999965,
      "v": 110
    },
    {
      "midi": 50,
      "hit": false,
      "t": 180483.51000000047,
      "d": 403.2250000000058,
      "v": 110
    },
    {
      "midi": 53,
      "hit": false,
      "t": 180483.51000000047,
      "d": 403.2250000000058,
      "v": 110
    },
    {
      "midi": 57,
      "hit": false,
      "t": 180483.51000000047,
      "d": 403.2250000000058,
      "v": 110
    },
    {
      "midi": 65,
      "hit": false,
      "t": 180725.44499999983,
      "d": 115.92718749999767,
      "v": 110
    },
    {
      "midi": 65,
      "hit": false,
      "t": 180846.41249999983,
      "d": 115.92718749999767,
      "v": 110
    },
    {
      "midi": 65,
      "hit": false,
      "t": 180967.37999999983,
      "d": 115.92718749999767,
      "v": 110
    },
    {
      "midi": 50,
      "hit": false,
      "t": 180967.38000000047,
      "d": 403.2250000000058,
      "v": 110
    },
    {
      "midi": 53,
      "hit": false,
      "t": 180967.38000000047,
      "d": 403.2250000000058,
      "v": 110
    },
    {
      "midi": 57,
      "hit": false,
      "t": 180967.38000000047,
      "d": 403.2250000000058,
      "v": 110
    },
    {
      "midi": 67,
      "hit": false,
      "t": 181088.34749999983,
      "d": 236.8946874999965,
      "v": 110
    },
    {
      "midi": 69,
      "hit": false,
      "t": 181330.28249999983,
      "d": 524.1925000000047,
      "v": 110
    },
    {
      "midi": 50,
      "hit": false,
      "t": 181451.25000000047,
      "d": 403.2250000000058,
      "v": 110
    },
    {
      "midi": 53,
      "hit": false,
      "t": 181451.25000000047,
      "d": 403.2250000000058,
      "v": 110
    },
    {
      "midi": 57,
      "hit": false,
      "t": 181451.25000000047,
      "d": 403.2250000000058,
      "v": 110
    },
    {
      "midi": 70,
      "hit": false,
      "t": 181935.11999999982,
      "d": 357.86218749999534,
      "v": 110
    },
    {
      "midi": 51,
      "hit": false,
      "t": 181935.12000000046,
      "d": 403.2250000000058,
      "v": 110
    },
    {
      "midi": 55,
      "hit": false,
      "t": 181935.12000000046,
      "d": 403.2250000000058,
      "v": 110
    },
    {
      "midi": 58,
      "hit": false,
      "t": 181935.12000000046,
      "d": 403.2250000000058,
      "v": 110
    },
    {
      "midi": 69,
      "hit": false,
      "t": 182298.02249999982,
      "d": 357.86218749999534,
      "v": 110
    },
    {
      "midi": 51,
      "hit": false,
      "t": 182418.99000000046,
      "d": 403.2250000000058,
      "v": 110
    },
    {
      "midi": 55,
      "hit": false,
      "t": 182418.99000000046,
      "d": 403.2250000000058,
      "v": 110
    },
    {
      "midi": 58,
      "hit": false,
      "t": 182418.99000000046,
      "d": 403.2250000000058,
      "v": 110
    },
    {
      "midi": 65,
      "hit": false,
      "t": 182660.9249999998,
      "d": 236.8946874999965,
      "v": 110
    },
    {
      "midi": 65,
      "hit": false,
      "t": 182902.8599999998,
      "d": 403.2250000000058,
      "v": 110
    },
    {
      "midi": 51,
      "hit": false,
      "t": 182902.86000000045,
      "d": 403.2250000000058,
      "v": 110
    },
    {
      "midi": 55,
      "hit": false,
      "t": 182902.86000000045,
      "d": 403.2250000000058,
      "v": 110
    },
    {
      "midi": 58,
      "hit": false,
      "t": 182902.86000000045,
      "d": 403.2250000000058,
      "v": 110
    },
    {
      "midi": 51,
      "hit": false,
      "t": 183386.73000000045,
      "d": 403.2250000000058,
      "v": 110
    },
    {
      "midi": 55,
      "hit": false,
      "t": 183386.73000000045,
      "d": 403.2250000000058,
      "v": 110
    },
    {
      "midi": 58,
      "hit": false,
      "t": 183386.73000000045,
      "d": 403.2250000000058,
      "v": 110
    },
    {
      "midi": 70,
      "hit": false,
      "t": 183870.59999999983,
      "d": 357.86218749999534,
      "v": 110
    },
    {
      "midi": 51,
      "hit": false,
      "t": 183870.60000000044,
      "d": 403.2250000000058,
      "v": 110
    },
    {
      "midi": 55,
      "hit": false,
      "t": 183870.60000000044,
      "d": 403.2250000000058,
      "v": 110
    },
    {
      "midi": 58,
      "hit": false,
      "t": 183870.60000000044,
      "d": 403.2250000000058,
      "v": 110
    },
    {
      "midi": 69,
      "hit": false,
      "t": 184233.50249999983,
      "d": 357.86218749999534,
      "v": 110
    },
    {
      "midi": 51,
      "hit": false,
      "t": 184354.47000000044,
      "d": 403.2250000000058,
      "v": 110
    },
    {
      "midi": 55,
      "hit": false,
      "t": 184354.47000000044,
      "d": 403.2250000000058,
      "v": 110
    },
    {
      "midi": 58,
      "hit": false,
      "t": 184354.47000000044,
      "d": 403.2250000000058,
      "v": 110
    },
    {
      "midi": 65,
      "hit": false,
      "t": 184596.40499999982,
      "d": 236.8946874999965,
      "v": 110
    },
    {
      "midi": 65,
      "hit": false,
      "t": 184838.33999999982,
      "d": 403.2250000000058,
      "v": 110
    },
    {
      "midi": 51,
      "hit": false,
      "t": 184838.34000000043,
      "d": 403.2250000000058,
      "v": 110
    },
    {
      "midi": 55,
      "hit": false,
      "t": 184838.34000000043,
      "d": 403.2250000000058,
      "v": 110
    },
    {
      "midi": 58,
      "hit": false,
      "t": 184838.34000000043,
      "d": 403.2250000000058,
      "v": 110
    },
    {
      "midi": 67,
      "hit": false,
      "t": 185322.20999999982,
      "d": 403.2250000000058,
      "v": 110
    },
    {
      "midi": 51,
      "hit": false,
      "t": 185322.21000000043,
      "d": 403.2250000000058,
      "v": 110
    },
    {
      "midi": 55,
      "hit": false,
      "t": 185322.21000000043,
      "d": 403.2250000000058,
      "v": 110
    },
    {
      "midi": 58,
      "hit": false,
      "t": 185322.21000000043,
      "d": 403.2250000000058,
      "v": 110
    },
    {
      "midi": 67,
      "hit": false,
      "t": 185806.0799999998,
      "d": 1814.5125000000116,
      "v": 110
    },
    {
      "midi": 48,
      "hit": false,
      "t": 185806.08000000042,
      "d": 403.2250000000058,
      "v": 110
    },
    {
      "midi": 53,
      "hit": false,
      "t": 185806.08000000042,
      "d": 403.2250000000058,
      "v": 110
    },
    {
      "midi": 55,
      "hit": false,
      "t": 185806.08000000042,
      "d": 403.2250000000058,
      "v": 110
    },
    {
      "midi": 48,
      "hit": false,
      "t": 186289.95000000042,
      "d": 403.2250000000058,
      "v": 110
    },
    {
      "midi": 53,
      "hit": false,
      "t": 186289.95000000042,
      "d": 403.2250000000058,
      "v": 110
    },
    {
      "midi": 55,
      "hit": false,
      "t": 186289.95000000042,
      "d": 403.2250000000058,
      "v": 110
    },
    {
      "midi": 48,
      "hit": false,
      "t": 186773.8200000004,
      "d": 403.2250000000058,
      "v": 110
    },
    {
      "midi": 53,
      "hit": false,
      "t": 186773.8200000004,
      "d": 403.2250000000058,
      "v": 110
    },
    {
      "midi": 55,
      "hit": false,
      "t": 186773.8200000004,
      "d": 403.2250000000058,
      "v": 110
    },
    {
      "midi": 48,
      "hit": false,
      "t": 187257.6900000004,
      "d": 403.2250000000058,
      "v": 110
    },
    {
      "midi": 53,
      "hit": false,
      "t": 187257.6900000004,
      "d": 403.2250000000058,
      "v": 110
    },
    {
      "midi": 55,
      "hit": false,
      "t": 187257.6900000004,
      "d": 403.2250000000058,
      "v": 110
    },
    {
      "midi": 48,
      "hit": false,
      "t": 187741.5600000004,
      "d": 403.2250000000058,
      "v": 110
    },
    {
      "midi": 52,
      "hit": false,
      "t": 187741.5600000004,
      "d": 403.2250000000058,
      "v": 110
    },
    {
      "midi": 55,
      "hit": false,
      "t": 187741.5600000004,
      "d": 403.2250000000058,
      "v": 110
    },
    {
      "midi": 48,
      "hit": false,
      "t": 188225.4300000004,
      "d": 403.2250000000058,
      "v": 110
    },
    {
      "midi": 52,
      "hit": false,
      "t": 188225.4300000004,
      "d": 403.2250000000058,
      "v": 110
    },
    {
      "midi": 55,
      "hit": false,
      "t": 188225.4300000004,
      "d": 403.2250000000058,
      "v": 110
    },
    {
      "midi": 65,
      "hit": false,
      "t": 188709.2999999998,
      "d": 403.2250000000058,
      "v": 110
    },
    {
      "midi": 48,
      "hit": false,
      "t": 188709.3000000004,
      "d": 403.2250000000058,
      "v": 110
    },
    {
      "midi": 52,
      "hit": false,
      "t": 188709.3000000004,
      "d": 403.2250000000058,
      "v": 110
    },
    {
      "midi": 55,
      "hit": false,
      "t": 188709.3000000004,
      "d": 403.2250000000058,
      "v": 110
    },
    {
      "midi": 64,
      "hit": false,
      "t": 189193.1699999998,
      "d": 403.2250000000058,
      "v": 110
    },
    {
      "midi": 48,
      "hit": false,
      "t": 189193.1700000004,
      "d": 403.2250000000058,
      "v": 110
    },
    {
      "midi": 52,
      "hit": false,
      "t": 189193.1700000004,
      "d": 403.2250000000058,
      "v": 110
    },
    {
      "midi": 55,
      "hit": false,
      "t": 189193.1700000004,
      "d": 403.2250000000058,
      "v": 110
    },
    {
      "midi": 65,
      "hit": false,
      "t": 189677.0399999998,
      "d": 645.1600000000035,
      "v": 110
    },
    {
      "midi": 46,
      "hit": false,
      "t": 189677.0400000004,
      "d": 403.2250000000058,
      "v": 110
    },
    {
      "midi": 50,
      "hit": false,
      "t": 189677.0400000004,
      "d": 403.2250000000058,
      "v": 110
    },
    {
      "midi": 53,
      "hit": false,
      "t": 189677.0400000004,
      "d": 403.2250000000058,
      "v": 110
    },
    {
      "midi": 46,
      "hit": false,
      "t": 190160.91000000038,
      "d": 403.2250000000058,
      "v": 110
    },
    {
      "midi": 50,
      "hit": false,
      "t": 190160.91000000038,
      "d": 403.2250000000058,
      "v": 110
    },
    {
      "midi": 53,
      "hit": false,
      "t": 190160.91000000038,
      "d": 403.2250000000058,
      "v": 110
    },
    {
      "midi": 65,
      "hit": false,
      "t": 190402.8449999998,
      "d": 236.8946874999965,
      "v": 110
    },
    {
      "midi": 64,
      "hit": false,
      "t": 190644.7799999998,
      "d": 645.1600000000035,
      "v": 110
    },
    {
      "midi": 48,
      "hit": false,
      "t": 190644.78000000038,
      "d": 403.2250000000058,
      "v": 110
    },
    {
      "midi": 52,
      "hit": false,
      "t": 190644.78000000038,
      "d": 403.2250000000058,
      "v": 110
    },
    {
      "midi": 55,
      "hit": false,
      "t": 190644.78000000038,
      "d": 403.2250000000058,
      "v": 110
    },
    {
      "midi": 48,
      "hit": false,
      "t": 191128.65000000037,
      "d": 403.2250000000058,
      "v": 110
    },
    {
      "midi": 52,
      "hit": false,
      "t": 191128.65000000037,
      "d": 403.2250000000058,
      "v": 110
    },
    {
      "midi": 55,
      "hit": false,
      "t": 191128.65000000037,
      "d": 403.2250000000058,
      "v": 110
    },
    {
      "midi": 65,
      "hit": false,
      "t": 191370.5849999998,
      "d": 236.8946874999965,
      "v": 110
    },
    {
      "midi": 65,
      "hit": false,
      "t": 191612.5199999998,
      "d": 846.7724999999919,
      "v": 110
    },
    {
      "midi": 50,
      "hit": false,
      "t": 191612.52000000037,
      "d": 403.2250000000058,
      "v": 110
    },
    {
      "midi": 53,
      "hit": false,
      "t": 191612.52000000037,
      "d": 403.2250000000058,
      "v": 110
    },
    {
      "midi": 57,
      "hit": false,
      "t": 191612.52000000037,
      "d": 403.2250000000058,
      "v": 110
    },
    {
      "midi": 50,
      "hit": false,
      "t": 192096.39000000036,
      "d": 403.2250000000058,
      "v": 110
    },
    {
      "midi": 53,
      "hit": false,
      "t": 192096.39000000036,
      "d": 403.2250000000058,
      "v": 110
    },
    {
      "midi": 57,
      "hit": false,
      "t": 192096.39000000036,
      "d": 403.2250000000058,
      "v": 110
    },
    {
      "midi": 50,
      "hit": false,
      "t": 192580.26000000036,
      "d": 403.2250000000058,
      "v": 110
    },
    {
      "midi": 53,
      "hit": false,
      "t": 192580.26000000036,
      "d": 403.2250000000058,
      "v": 110
    },
    {
      "midi": 57,
      "hit": false,
      "t": 192580.26000000036,
      "d": 403.2250000000058,
      "v": 110
    },
    {
      "midi": 50,
      "hit": false,
      "t": 193064.13000000035,
      "d": 403.2250000000058,
      "v": 110
    },
    {
      "midi": 53,
      "hit": false,
      "t": 193064.13000000035,
      "d": 403.2250000000058,
      "v": 110
    },
    {
      "midi": 57,
      "hit": false,
      "t": 193064.13000000035,
      "d": 403.2250000000058,
      "v": 110
    },
    {
      "midi": 65,
      "hit": false,
      "t": 193547.99999999977,
      "d": 1814.5125000000116,
      "v": 110
    },
    {
      "midi": 46,
      "hit": false,
      "t": 193548.00000000035,
      "d": 403.2250000000058,
      "v": 110
    },
    {
      "midi": 50,
      "hit": false,
      "t": 193548.00000000035,
      "d": 403.2250000000058,
      "v": 110
    },
    {
      "midi": 53,
      "hit": false,
      "t": 193548.00000000035,
      "d": 403.2250000000058,
      "v": 110
    },
    {
      "midi": 46,
      "hit": false,
      "t": 194031.87000000034,
      "d": 403.2250000000058,
      "v": 110
    },
    {
      "midi": 50,
      "hit": false,
      "t": 194031.87000000034,
      "d": 403.2250000000058,
      "v": 110
    },
    {
      "midi": 53,
      "hit": false,
      "t": 194031.87000000034,
      "d": 403.2250000000058,
      "v": 110
    },
    {
      "midi": 46,
      "hit": false,
      "t": 194515.74000000034,
      "d": 403.2250000000058,
      "v": 110
    },
    {
      "midi": 50,
      "hit": false,
      "t": 194515.74000000034,
      "d": 403.2250000000058,
      "v": 110
    },
    {
      "midi": 53,
      "hit": false,
      "t": 194515.74000000034,
      "d": 403.2250000000058,
      "v": 110
    },
    {
      "midi": 46,
      "hit": false,
      "t": 194999.61000000034,
      "d": 403.2250000000058,
      "v": 110
    },
    {
      "midi": 50,
      "hit": false,
      "t": 194999.61000000034,
      "d": 403.2250000000058,
      "v": 110
    },
    {
      "midi": 53,
      "hit": false,
      "t": 194999.61000000034,
      "d": 403.2250000000058,
      "v": 110
    },
    {
      "midi": 48,
      "hit": false,
      "t": 195483.48000000033,
      "d": 403.2250000000058,
      "v": 110
    },
    {
      "midi": 52,
      "hit": false,
      "t": 195483.48000000033,
      "d": 403.2250000000058,
      "v": 110
    },
    {
      "midi": 55,
      "hit": false,
      "t": 195483.48000000033,
      "d": 403.2250000000058,
      "v": 110
    },
    {
      "midi": 48,
      "hit": false,
      "t": 195967.35000000033,
      "d": 403.2250000000058,
      "v": 110
    },
    {
      "midi": 52,
      "hit": false,
      "t": 195967.35000000033,
      "d": 403.2250000000058,
      "v": 110
    },
    {
      "midi": 55,
      "hit": false,
      "t": 195967.35000000033,
      "d": 403.2250000000058,
      "v": 110
    },
    {
      "midi": 64,
      "hit": false,
      "t": 196451.21999999977,
      "d": 846.7724999999919,
      "v": 110
    },
    {
      "midi": 48,
      "hit": false,
      "t": 196451.22000000032,
      "d": 403.2250000000058,
      "v": 110
    },
    {
      "midi": 52,
      "hit": false,
      "t": 196451.22000000032,
      "d": 403.2250000000058,
      "v": 110
    },
    {
      "midi": 55,
      "hit": false,
      "t": 196451.22000000032,
      "d": 403.2250000000058,
      "v": 110
    },
    {
      "midi": 48,
      "hit": false,
      "t": 196935.09000000032,
      "d": 403.2250000000058,
      "v": 110
    },
    {
      "midi": 52,
      "hit": false,
      "t": 196935.09000000032,
      "d": 403.2250000000058,
      "v": 110
    },
    {
      "midi": 55,
      "hit": false,
      "t": 196935.09000000032,
      "d": 403.2250000000058,
      "v": 110
    },
    {
      "midi": 62,
      "hit": false,
      "t": 197418.95999999976,
      "d": 2782.2525000000023,
      "v": 110
    },
    {
      "midi": 50,
      "hit": false,
      "t": 197418.9600000003,
      "d": 403.2250000000058,
      "v": 110
    },
    {
      "midi": 54,
      "hit": false,
      "t": 197418.9600000003,
      "d": 403.2250000000058,
      "v": 110
    },
    {
      "midi": 57,
      "hit": false,
      "t": 197418.9600000003,
      "d": 403.2250000000058,
      "v": 110
    },
    {
      "midi": 50,
      "hit": false,
      "t": 197902.8300000003,
      "d": 403.2250000000058,
      "v": 110
    },
    {
      "midi": 54,
      "hit": false,
      "t": 197902.8300000003,
      "d": 403.2250000000058,
      "v": 110
    },
    {
      "midi": 57,
      "hit": false,
      "t": 197902.8300000003,
      "d": 403.2250000000058,
      "v": 110
    },
    {
      "midi": 50,
      "hit": false,
      "t": 198386.7000000003,
      "d": 403.2250000000058,
      "v": 110
    },
    {
      "midi": 54,
      "hit": false,
      "t": 198386.7000000003,
      "d": 403.2250000000058,
      "v": 110
    },
    {
      "midi": 57,
      "hit": false,
      "t": 198386.7000000003,
      "d": 403.2250000000058,
      "v": 110
    },
    {
      "midi": 50,
      "hit": false,
      "t": 198870.5700000003,
      "d": 403.2250000000058,
      "v": 110
    },
    {
      "midi": 54,
      "hit": false,
      "t": 198870.5700000003,
      "d": 403.2250000000058,
      "v": 110
    },
    {
      "midi": 57,
      "hit": false,
      "t": 198870.5700000003,
      "d": 403.2250000000058,
      "v": 110
    },
    {
      "midi": 50,
      "hit": false,
      "t": 199354.4400000003,
      "d": 403.2250000000058,
      "v": 110
    },
    {
      "midi": 54,
      "hit": false,
      "t": 199354.4400000003,
      "d": 403.2250000000058,
      "v": 110
    },
    {
      "midi": 57,
      "hit": false,
      "t": 199354.4400000003,
      "d": 403.2250000000058,
      "v": 110
    },
    {
      "midi": 50,
      "hit": false,
      "t": 199838.3100000003,
      "d": 403.2250000000058,
      "v": 110
    },
    {
      "midi": 54,
      "hit": false,
      "t": 199838.3100000003,
      "d": 403.2250000000058,
      "v": 110
    },
    {
      "midi": 57,
      "hit": false,
      "t": 199838.3100000003,
      "d": 403.2250000000058,
      "v": 110
    },
    {
      "midi": 50,
      "hit": false,
      "t": 200322.18000000028,
      "d": 403.2250000000058,
      "v": 110
    },
    {
      "midi": 54,
      "hit": false,
      "t": 200322.18000000028,
      "d": 403.2250000000058,
      "v": 110
    },
    {
      "midi": 57,
      "hit": false,
      "t": 200322.18000000028,
      "d": 403.2250000000058,
      "v": 110
    },
    {
      "midi": 50,
      "hit": false,
      "t": 200806.05000000028,
      "d": 403.2250000000058,
      "v": 110
    },
    {
      "midi": 54,
      "hit": false,
      "t": 200806.05000000028,
      "d": 403.2250000000058,
      "v": 110
    },
    {
      "midi": 57,
      "hit": false,
      "t": 200806.05000000028,
      "d": 403.2250000000058,
      "v": 110
    },
    {
      "midi": 59,
      "hit": false,
      "t": 201289.91999999975,
      "d": 846.7724999999919,
      "v": 110
    },
    {
      "midi": 43,
      "hit": false,
      "t": 201289.92000000027,
      "d": 403.2250000000058,
      "v": 110
    },
    {
      "midi": 50,
      "hit": false,
      "t": 201289.92000000027,
      "d": 403.2250000000058,
      "v": 110
    },
    {
      "midi": 43,
      "hit": false,
      "t": 201773.79000000027,
      "d": 403.2250000000058,
      "v": 110
    },
    {
      "midi": 50,
      "hit": false,
      "t": 201773.79000000027,
      "d": 403.2250000000058,
      "v": 110
    },
    {
      "midi": 61,
      "hit": false,
      "t": 202257.65999999974,
      "d": 846.7724999999919,
      "v": 110
    },
    {
      "midi": 45,
      "hit": false,
      "t": 202257.66000000027,
      "d": 403.2250000000058,
      "v": 110
    },
    {
      "midi": 52,
      "hit": false,
      "t": 202257.66000000027,
      "d": 403.2250000000058,
      "v": 110
    },
    {
      "midi": 45,
      "hit": false,
      "t": 202741.53000000026,
      "d": 403.2250000000058,
      "v": 110
    },
    {
      "midi": 52,
      "hit": false,
      "t": 202741.53000000026,
      "d": 403.2250000000058,
      "v": 110
    },
    {
      "midi": 62,
      "hit": false,
      "t": 203225.39999999973,
      "d": 1814.5125000000116,
      "v": 110
    },
    {
      "midi": 47,
      "hit": false,
      "t": 203225.40000000026,
      "d": 403.2250000000058,
      "v": 110
    },
    {
      "midi": 54,
      "hit": false,
      "t": 203225.40000000026,
      "d": 403.2250000000058,
      "v": 110
    },
    {
      "midi": 47,
      "hit": false,
      "t": 203709.27000000025,
      "d": 403.2250000000058,
      "v": 110
    },
    {
      "midi": 54,
      "hit": false,
      "t": 203709.27000000025,
      "d": 403.2250000000058,
      "v": 110
    },
    {
      "midi": 47,
      "hit": false,
      "t": 204193.14000000025,
      "d": 403.2250000000058,
      "v": 110
    },
    {
      "midi": 54,
      "hit": false,
      "t": 204193.14000000025,
      "d": 403.2250000000058,
      "v": 110
    },
    {
      "midi": 47,
      "hit": false,
      "t": 204677.01000000024,
      "d": 403.2250000000058,
      "v": 110
    },
    {
      "midi": 54,
      "hit": false,
      "t": 204677.01000000024,
      "d": 403.2250000000058,
      "v": 110
    },
    {
      "midi": 59,
      "hit": false,
      "t": 205160.87999999974,
      "d": 846.7724999999919,
      "v": 110
    },
    {
      "midi": 43,
      "hit": false,
      "t": 205160.88000000024,
      "d": 403.2250000000058,
      "v": 110
    },
    {
      "midi": 50,
      "hit": false,
      "t": 205160.88000000024,
      "d": 403.2250000000058,
      "v": 110
    },
    {
      "midi": 43,
      "hit": false,
      "t": 205644.75000000023,
      "d": 403.2250000000058,
      "v": 110
    },
    {
      "midi": 50,
      "hit": false,
      "t": 205644.75000000023,
      "d": 403.2250000000058,
      "v": 110
    },
    {
      "midi": 61,
      "hit": false,
      "t": 206128.61999999973,
      "d": 846.7724999999919,
      "v": 110
    },
    {
      "midi": 45,
      "hit": false,
      "t": 206128.62000000023,
      "d": 403.2250000000058,
      "v": 110
    },
    {
      "midi": 52,
      "hit": false,
      "t": 206128.62000000023,
      "d": 403.2250000000058,
      "v": 110
    },
    {
      "midi": 45,
      "hit": false,
      "t": 206612.49000000022,
      "d": 403.2250000000058,
      "v": 110
    },
    {
      "midi": 52,
      "hit": false,
      "t": 206612.49000000022,
      "d": 403.2250000000058,
      "v": 110
    },
    {
      "midi": 62,
      "hit": false,
      "t": 207096.35999999972,
      "d": 1814.5125000000116,
      "v": 110
    },
    {
      "midi": 50,
      "hit": false,
      "t": 207096.36000000022,
      "d": 403.2250000000058,
      "v": 110
    },
    {
      "midi": 54,
      "hit": false,
      "t": 207096.36000000022,
      "d": 403.2250000000058,
      "v": 110
    },
    {
      "midi": 50,
      "hit": false,
      "t": 207580.2300000002,
      "d": 403.2250000000058,
      "v": 110
    },
    {
      "midi": 54,
      "hit": false,
      "t": 207580.2300000002,
      "d": 403.2250000000058,
      "v": 110
    },
    {
      "midi": 50,
      "hit": false,
      "t": 208064.1000000002,
      "d": 403.2250000000058,
      "v": 110
    },
    {
      "midi": 54,
      "hit": false,
      "t": 208064.1000000002,
      "d": 403.2250000000058,
      "v": 110
    },
    {
      "midi": 50,
      "hit": false,
      "t": 208547.9700000002,
      "d": 403.2250000000058,
      "v": 110
    },
    {
      "midi": 54,
      "hit": false,
      "t": 208547.9700000002,
      "d": 403.2250000000058,
      "v": 110
    },
    {
      "midi": 67,
      "hit": false,
      "t": 209031.83999999973,
      "d": 846.7724999999919,
      "v": 110
    },
    {
      "midi": 71,
      "hit": false,
      "t": 209031.83999999973,
      "d": 846.7724999999919,
      "v": 110
    },
    {
      "midi": 43,
      "hit": false,
      "t": 209031.8400000002,
      "d": 403.2250000000058,
      "v": 110
    },
    {
      "midi": 50,
      "hit": false,
      "t": 209031.8400000002,
      "d": 403.2250000000058,
      "v": 110
    },
    {
      "midi": 43,
      "hit": false,
      "t": 209515.7100000002,
      "d": 403.2250000000058,
      "v": 110
    },
    {
      "midi": 50,
      "hit": false,
      "t": 209515.7100000002,
      "d": 403.2250000000058,
      "v": 110
    },
    {
      "midi": 69,
      "hit": false,
      "t": 209999.57999999973,
      "d": 846.7724999999919,
      "v": 110
    },
    {
      "midi": 73,
      "hit": false,
      "t": 209999.57999999973,
      "d": 846.7724999999919,
      "v": 110
    },
    {
      "midi": 45,
      "hit": false,
      "t": 209999.5800000002,
      "d": 403.2250000000058,
      "v": 110
    },
    {
      "midi": 52,
      "hit": false,
      "t": 209999.5800000002,
      "d": 403.2250000000058,
      "v": 110
    },
    {
      "midi": 45,
      "hit": false,
      "t": 210483.4500000002,
      "d": 403.2250000000058,
      "v": 110
    },
    {
      "midi": 52,
      "hit": false,
      "t": 210483.4500000002,
      "d": 403.2250000000058,
      "v": 110
    },
    {
      "midi": 71,
      "hit": false,
      "t": 210967.31999999972,
      "d": 1814.5125000000116,
      "v": 110
    },
    {
      "midi": 74,
      "hit": false,
      "t": 210967.31999999972,
      "d": 1814.5125000000116,
      "v": 110
    },
    {
      "midi": 47,
      "hit": false,
      "t": 210967.32000000018,
      "d": 403.2250000000058,
      "v": 110
    },
    {
      "midi": 54,
      "hit": false,
      "t": 210967.32000000018,
      "d": 403.2250000000058,
      "v": 110
    },
    {
      "midi": 47,
      "hit": false,
      "t": 211451.19000000018,
      "d": 403.2250000000058,
      "v": 110
    },
    {
      "midi": 54,
      "hit": false,
      "t": 211451.19000000018,
      "d": 403.2250000000058,
      "v": 110
    },
    {
      "midi": 47,
      "hit": false,
      "t": 211935.06000000017,
      "d": 403.2250000000058,
      "v": 110
    },
    {
      "midi": 54,
      "hit": false,
      "t": 211935.06000000017,
      "d": 403.2250000000058,
      "v": 110
    },
    {
      "midi": 47,
      "hit": false,
      "t": 212418.93000000017,
      "d": 403.2250000000058,
      "v": 110
    },
    {
      "midi": 54,
      "hit": false,
      "t": 212418.93000000017,
      "d": 403.2250000000058,
      "v": 110
    },
    {
      "midi": 67,
      "hit": false,
      "t": 212902.79999999973,
      "d": 846.7724999999919,
      "v": 110
    },
    {
      "midi": 71,
      "hit": false,
      "t": 212902.79999999973,
      "d": 846.7724999999919,
      "v": 110
    },
    {
      "midi": 43,
      "hit": false,
      "t": 212902.80000000016,
      "d": 403.2250000000058,
      "v": 110
    },
    {
      "midi": 50,
      "hit": false,
      "t": 212902.80000000016,
      "d": 403.2250000000058,
      "v": 110
    },
    {
      "midi": 43,
      "hit": false,
      "t": 213386.67000000016,
      "d": 403.2250000000058,
      "v": 110
    },
    {
      "midi": 50,
      "hit": false,
      "t": 213386.67000000016,
      "d": 403.2250000000058,
      "v": 110
    },
    {
      "midi": 69,
      "hit": false,
      "t": 213870.53999999972,
      "d": 846.7724999999919,
      "v": 110
    },
    {
      "midi": 73,
      "hit": false,
      "t": 213870.53999999972,
      "d": 846.7724999999919,
      "v": 110
    },
    {
      "midi": 45,
      "hit": false,
      "t": 213870.54000000015,
      "d": 403.2250000000058,
      "v": 110
    },
    {
      "midi": 52,
      "hit": false,
      "t": 213870.54000000015,
      "d": 403.2250000000058,
      "v": 110
    },
    {
      "midi": 45,
      "hit": false,
      "t": 214354.41000000015,
      "d": 403.2250000000058,
      "v": 110
    },
    {
      "midi": 52,
      "hit": false,
      "t": 214354.41000000015,
      "d": 403.2250000000058,
      "v": 110
    },
    {
      "midi": 71,
      "hit": false,
      "t": 214838.2799999997,
      "d": 846.7724999999919,
      "v": 110
    },
    {
      "midi": 74,
      "hit": false,
      "t": 214838.2799999997,
      "d": 846.7724999999919,
      "v": 110
    },
    {
      "midi": 47,
      "hit": false,
      "t": 214838.28000000014,
      "d": 403.2250000000058,
      "v": 110
    },
    {
      "midi": 54,
      "hit": false,
      "t": 214838.28000000014,
      "d": 403.2250000000058,
      "v": 110
    },
    {
      "midi": 47,
      "hit": false,
      "t": 215322.15000000014,
      "d": 403.2250000000058,
      "v": 110
    },
    {
      "midi": 54,
      "hit": false,
      "t": 215322.15000000014,
      "d": 403.2250000000058,
      "v": 110
    },
    {
      "midi": 71,
      "hit": false,
      "t": 215806.0199999997,
      "d": 403.2250000000058,
      "v": 110
    },
    {
      "midi": 74,
      "hit": false,
      "t": 215806.0199999997,
      "d": 403.2250000000058,
      "v": 110
    },
    {
      "midi": 47,
      "hit": false,
      "t": 215806.02000000014,
      "d": 403.2250000000058,
      "v": 110
    },
    {
      "midi": 54,
      "hit": false,
      "t": 215806.02000000014,
      "d": 403.2250000000058,
      "v": 110
    },
    {
      "midi": 73,
      "hit": false,
      "t": 216289.8899999997,
      "d": 403.2250000000058,
      "v": 110
    },
    {
      "midi": 76,
      "hit": false,
      "t": 216289.8899999997,
      "d": 403.2250000000058,
      "v": 110
    },
    {
      "midi": 49,
      "hit": false,
      "t": 216289.89000000013,
      "d": 403.2250000000058,
      "v": 110
    },
    {
      "midi": 57,
      "hit": false,
      "t": 216289.89000000013,
      "d": 403.2250000000058,
      "v": 110
    },
    {
      "midi": 74,
      "hit": false,
      "t": 216773.7599999997,
      "d": 236.8946874999965,
      "v": 110
    },
    {
      "midi": 50,
      "hit": false,
      "t": 216773.76000000013,
      "d": 403.2250000000058,
      "v": 110
    },
    {
      "midi": 57,
      "hit": false,
      "t": 216773.76000000013,
      "d": 403.2250000000058,
      "v": 110
    },
    {
      "midi": 69,
      "hit": false,
      "t": 217015.6949999997,
      "d": 236.8946874999965,
      "v": 110
    },
    {
      "midi": 72,
      "hit": false,
      "t": 217257.62999999968,
      "d": 236.8946874999965,
      "v": 110
    },
    {
      "midi": 50,
      "hit": false,
      "t": 217257.63000000012,
      "d": 403.2250000000058,
      "v": 110
    },
    {
      "midi": 57,
      "hit": false,
      "t": 217257.63000000012,
      "d": 403.2250000000058,
      "v": 110
    },
    {
      "midi": 69,
      "hit": false,
      "t": 217499.56499999968,
      "d": 236.8946874999965,
      "v": 110
    },
    {
      "midi": 74,
      "hit": false,
      "t": 217741.49999999968,
      "d": 236.8946874999965,
      "v": 110
    },
    {
      "midi": 50,
      "hit": false,
      "t": 217741.50000000012,
      "d": 403.2250000000058,
      "v": 110
    },
    {
      "midi": 57,
      "hit": false,
      "t": 217741.50000000012,
      "d": 403.2250000000058,
      "v": 110
    },
    {
      "midi": 69,
      "hit": false,
      "t": 217983.43499999968,
      "d": 236.8946874999965,
      "v": 110
    },
    {
      "midi": 72,
      "hit": false,
      "t": 218225.36999999968,
      "d": 236.8946874999965,
      "v": 110
    },
    {
      "midi": 50,
      "hit": false,
      "t": 218225.3700000001,
      "d": 403.2250000000058,
      "v": 110
    },
    {
      "midi": 57,
      "hit": false,
      "t": 218225.3700000001,
      "d": 403.2250000000058,
      "v": 110
    },
    {
      "midi": 69,
      "hit": false,
      "t": 218467.30499999967,
      "d": 236.8946874999965,
      "v": 110
    },
    {
      "midi": 74,
      "hit": false,
      "t": 218709.23999999967,
      "d": 236.8946874999965,
      "v": 110
    },
    {
      "midi": 50,
      "hit": false,
      "t": 218709.2400000001,
      "d": 403.2250000000058,
      "v": 110
    },
    {
      "midi": 57,
      "hit": false,
      "t": 218709.2400000001,
      "d": 403.2250000000058,
      "v": 110
    },
    {
      "midi": 69,
      "hit": false,
      "t": 218951.17499999967,
      "d": 236.8946874999965,
      "v": 110
    },
    {
      "midi": 72,
      "hit": false,
      "t": 219193.10999999967,
      "d": 236.8946874999965,
      "v": 110
    },
    {
      "midi": 50,
      "hit": false,
      "t": 219193.1100000001,
      "d": 403.2250000000058,
      "v": 110
    },
    {
      "midi": 57,
      "hit": false,
      "t": 219193.1100000001,
      "d": 403.2250000000058,
      "v": 110
    },
    {
      "midi": 69,
      "hit": false,
      "t": 219435.04499999966,
      "d": 236.8946874999965,
      "v": 110
    },
    {
      "midi": 74,
      "hit": false,
      "t": 219676.97999999966,
      "d": 236.8946874999965,
      "v": 110
    },
    {
      "midi": 50,
      "hit": false,
      "t": 219676.9800000001,
      "d": 403.2250000000058,
      "v": 110
    },
    {
      "midi": 57,
      "hit": false,
      "t": 219676.9800000001,
      "d": 403.2250000000058,
      "v": 110
    },
    {
      "midi": 69,
      "hit": false,
      "t": 219918.91499999966,
      "d": 236.8946874999965,
      "v": 110
    },
    {
      "midi": 72,
      "hit": false,
      "t": 220160.84999999966,
      "d": 236.8946874999965,
      "v": 110
    },
    {
      "midi": 50,
      "hit": false,
      "t": 220160.8500000001,
      "d": 403.2250000000058,
      "v": 110
    },
    {
      "midi": 57,
      "hit": false,
      "t": 220160.8500000001,
      "d": 403.2250000000058,
      "v": 110
    },
    {
      "midi": 69,
      "hit": false,
      "t": 220402.78499999965,
      "d": 236.8946874999965,
      "v": 110
    },
    {
      "midi": 65,
      "hit": false,
      "t": 220644.71999999965,
      "d": 1814.5125000000116,
      "v": 110
    },
    {
      "midi": 69,
      "hit": false,
      "t": 220644.71999999965,
      "d": 1814.5125000000116,
      "v": 110
    },
    {
      "midi": 74,
      "hit": false,
      "t": 220644.71999999965,
      "d": 1814.5125000000116,
      "v": 110
    },
    {
      "midi": 50,
      "hit": false,
      "t": 220644.7200000001,
      "d": 1814.5125000000116,
      "v": 110
    },
    {
      "midi": 57,
      "hit": false,
      "t": 220644.7200000001,
      "d": 1814.5125000000116,
      "v": 110
    }
  ]
}