{
  "jsonPath": "Rock/Hardcore Hip Hop/Papoose/outro.json",
  "path": "Rock\\Hardcore Hip Hop\\Papoose\\Outro.mid",
  "name": "Outro",
  "difficulty": "Advanced",
  "bpm": 180.00018000018,
  "notes": [
    {
      "midi": 96,
      "hit": false,
      "t": 4115.371583333334,
      "d": 96.15354166666657,
      "v": 100
    },
    {
      "midi": 97,
      "hit": false,
      "t": 4153.8330000000005,
      "d": 149.037989583333,
      "v": 100
    },
    {
      "midi": 85,
      "hit": false,
      "t": 4629.79303125,
      "d": 105.76889583333377,
      "v": 100
    },
    {
      "midi": 93,
      "hit": false,
      "t": 4894.215270833334,
      "d": 105.76889583333377,
      "v": 110
    },
    {
      "midi": 94,
      "hit": false,
      "t": 4961.522750000001,
      "d": 168.2686979166674,
      "v": 99
    },
    {
      "midi": 92,
      "hit": false,
      "t": 5312.483177083335,
      "d": 245.19153125000048,
      "v": 91
    },
    {
      "midi": 89,
      "hit": false,
      "t": 7879.782739583336,
      "d": 144.23031249999985,
      "v": 107
    },
    {
      "midi": 92,
      "hit": false,
      "t": 8278.819937500002,
      "d": 124.99960416666727,
      "v": 99
    },
    {
      "midi": 93,
      "hit": false,
      "t": 8365.358125000002,
      "d": 76.92283333333216,
      "v": 96
    },
    {
      "midi": 94,
      "hit": false,
      "t": 8423.050250000002,
      "d": 153.84566666666615,
      "v": 89
    },
    {
      "midi": 92,
      "hit": false,
      "t": 8610.549656250001,
      "d": 153.84566666666615,
      "v": 87
    },
    {
      "midi": 90,
      "hit": false,
      "t": 9043.24059375,
      "d": 225.96082291666607,
      "v": 94
    },
    {
      "midi": 89,
      "hit": false,
      "t": 11802.847239583334,
      "d": 187.4994062500009,
      "v": 107
    },
    {
      "midi": 78,
      "hit": false,
      "t": 12038.423416666668,
      "d": 120.19192708333321,
      "v": 107
    },
    {
      "midi": 82,
      "hit": false,
      "t": 12254.768885416668,
      "d": 182.69172916666685,
      "v": 89
    },
    {
      "midi": 85,
      "hit": false,
      "t": 12495.152739583335,
      "d": 173.07637500000055,
      "v": 80
    },
    {
      "midi": 89,
      "hit": false,
      "t": 12730.728916666669,
      "d": 254.80688541666677,
      "v": 97
    },
    {
      "midi": 85,
      "hit": false,
      "t": 12966.305093750003,
      "d": 96.15354166666657,
      "v": 83
    },
    {
      "midi": 86,
      "hit": false,
      "t": 13038.420250000003,
      "d": 120.19192708333321,
      "v": 87
    },
    {
      "midi": 87,
      "hit": false,
      "t": 13158.612177083336,
      "d": 115.38424999999916,
      "v": 77
    },
    {
      "midi": 85,
      "hit": false,
      "t": 13389.380677083334,
      "d": 86.53818750000028,
      "v": 77
    },
    {
      "midi": 86,
      "hit": false,
      "t": 13437.457447916668,
      "d": 72.11515624999993,
      "v": 67
    },
    {
      "midi": 87,
      "hit": false,
      "t": 13495.149572916667,
      "d": 177.8840520833328,
      "v": 91
    },
    {
      "midi": 85,
      "hit": false,
      "t": 13841.302322916667,
      "d": 197.1147604166672,
      "v": 75
    },
    {
      "midi": 87,
      "hit": false,
      "t": 14139.378302083334,
      "d": 192.30708333333314,
      "v": 94
    },
    {
      "midi": 89,
      "hit": false,
      "t": 14514.377114583334,
      "d": 182.69172916666685,
      "v": 107
    },
    {
      "midi": 80,
      "hit": false,
      "t": 14908.606635416669,
      "d": 158.65334374999838,
      "v": 87
    },
    {
      "midi": 81,
      "hit": false,
      "t": 14999.952500000001,
      "d": 115.38424999999916,
      "v": 88
    },
    {
      "midi": 81,
      "hit": false,
      "t": 15298.028479166667,
      "d": 105.76889583333286,
      "v": 90
    },
    {
      "midi": 82,
      "hit": false,
      "t": 15403.797375,
      "d": 240.38385416666642,
      "v": 80
    },
    {
      "midi": 80,
      "hit": false,
      "t": 15692.258,
      "d": 418.2679062499992,
      "v": 58
    },
    {
      "midi": 54,
      "hit": false,
      "t": 18461.480000000003,
      "d": 48.076770833333285,
      "v": 92
    },
    {
      "midi": 66,
      "hit": false,
      "t": 18461.480000000003,
      "d": 48.076770833333285,
      "v": 92
    },
    {
      "midi": 78,
      "hit": false,
      "t": 18461.480000000003,
      "d": 105.76889583333468,
      "v": 100
    },
    {
      "midi": 71,
      "hit": false,
      "t": 18576.864250000006,
      "d": 33.653739583332936,
      "v": 74
    },
    {
      "midi": 47,
      "hit": false,
      "t": 18576.864250000006,
      "d": 72.11515624999811,
      "v": 85
    },
    {
      "midi": 75,
      "hit": false,
      "t": 18692.248500000005,
      "d": 43.26909375000105,
      "v": 96
    },
    {
      "midi": 51,
      "hit": false,
      "t": 18692.248500000005,
      "d": 57.6921250000014,
      "v": 86
    },
    {
      "midi": 54,
      "hit": false,
      "t": 18807.632750000008,
      "d": 153.84566666666797,
      "v": 115
    },
    {
      "midi": 78,
      "hit": false,
      "t": 18807.632750000008,
      "d": 163.46102083333608,
      "v": 115
    },
    {
      "midi": 66,
      "hit": false,
      "t": 18807.632750000008,
      "d": 173.0763750000042,
      "v": 96
    },
    {
      "midi": 75,
      "hit": false,
      "t": 19038.401250000014,
      "d": 120.19192708333503,
      "v": 100
    },
    {
      "midi": 51,
      "hit": false,
      "t": 19038.401250000014,
      "d": 144.2303125000035,
      "v": 110
    },
    {
      "midi": 77,
      "hit": false,
      "t": 19269.169750000015,
      "d": 124.99960416666727,
      "v": 105
    },
    {
      "midi": 65,
      "hit": false,
      "t": 19269.169750000015,
      "d": 129.8072812499995,
      "v": 100
    },
    {
      "midi": 53,
      "hit": false,
      "t": 19269.169750000015,
      "d": 134.61495833333174,
      "v": 110
    },
    {
      "midi": 71,
      "hit": false,
      "t": 19499.938250000014,
      "d": 105.76889583333468,
      "v": 71
    },
    {
      "midi": 73,
      "hit": false,
      "t": 19499.938250000014,
      "d": 105.76889583333468,
      "v": 105
    },
    {
      "midi": 49,
      "hit": false,
      "t": 19499.938250000014,
      "d": 110.57657291666692,
      "v": 86
    },
    {
      "midi": 77,
      "hit": false,
      "t": 19730.706750000016,
      "d": 19.230708333332586,
      "v": 86
    },
    {
      "midi": 65,
      "hit": false,
      "t": 19730.706750000016,
      "d": 28.8460625000007,
      "v": 86
    },
    {
      "midi": 53,
      "hit": false,
      "t": 19730.706750000016,
      "d": 33.653739583332936,
      "v": 96
    },
    {
      "midi": 53,
      "hit": false,
      "t": 19846.091000000015,
      "d": 149.0379895833321,
      "v": 105
    },
    {
      "midi": 77,
      "hit": false,
      "t": 19846.091000000015,
      "d": 153.84566666666433,
      "v": 105
    },
    {
      "midi": 65,
      "hit": false,
      "t": 19846.091000000015,
      "d": 173.07637499999691,
      "v": 96
    },
    {
      "midi": 71,
      "hit": false,
      "t": 20076.859500000013,
      "d": 105.76889583333468,
      "v": 74
    },
    {
      "midi": 73,
      "hit": false,
      "t": 20076.859500000013,
      "d": 144.23031249999985,
      "v": 105
    },
    {
      "midi": 49,
      "hit": false,
      "t": 20076.859500000013,
      "d": 158.6533437500002,
      "v": 92
    },
    {
      "midi": 54,
      "hit": false,
      "t": 20307.628000000015,
      "d": 48.076770833333285,
      "v": 92
    },
    {
      "midi": 66,
      "hit": false,
      "t": 20307.628000000015,
      "d": 48.076770833333285,
      "v": 92
    },
    {
      "midi": 78,
      "hit": false,
      "t": 20307.628000000015,
      "d": 105.76889583333468,
      "v": 100
    },
    {
      "midi": 71,
      "hit": false,
      "t": 20423.012250000018,
      "d": 33.653739583332936,
      "v": 74
    },
    {
      "midi": 47,
      "hit": false,
      "t": 20423.012250000018,
      "d": 72.11515624999811,
      "v": 85
    },
    {
      "midi": 75,
      "hit": false,
      "t": 20538.396500000017,
      "d": 43.26909375000105,
      "v": 96
    },
    {
      "midi": 51,
      "hit": false,
      "t": 20538.396500000017,
      "d": 57.6921250000014,
      "v": 86
    },
    {
      "midi": 54,
      "hit": false,
      "t": 20653.78075000002,
      "d": 153.84566666666797,
      "v": 115
    },
    {
      "midi": 78,
      "hit": false,
      "t": 20653.78075000002,
      "d": 163.46102083333608,
      "v": 115
    },
    {
      "midi": 66,
      "hit": false,
      "t": 20653.78075000002,
      "d": 173.0763750000042,
      "v": 96
    },
    {
      "midi": 75,
      "hit": false,
      "t": 20884.549250000025,
      "d": 120.19192708333503,
      "v": 100
    },
    {
      "midi": 51,
      "hit": false,
      "t": 20884.549250000025,
      "d": 144.2303125000035,
      "v": 110
    },
    {
      "midi": 77,
      "hit": false,
      "t": 21115.317750000027,
      "d": 124.99960416666727,
      "v": 105
    },
    {
      "midi": 65,
      "hit": false,
      "t": 21115.317750000027,
      "d": 129.8072812499995,
      "v": 100
    },
    {
      "midi": 53,
      "hit": false,
      "t": 21115.317750000027,
      "d": 134.61495833333174,
      "v": 110
    },
    {
      "midi": 71,
      "hit": false,
      "t": 21346.086250000026,
      "d": 62.499802083333634,
      "v": 71
    },
    {
      "midi": 73,
      "hit": false,
      "t": 21346.086250000026,
      "d": 105.76889583333468,
      "v": 105
    },
    {
      "midi": 49,
      "hit": false,
      "t": 21346.086250000026,
      "d": 110.57657291666692,
      "v": 86
    },
    {
      "midi": 77,
      "hit": false,
      "t": 21576.854750000028,
      "d": 19.230708333332586,
      "v": 86
    },
    {
      "midi": 65,
      "hit": false,
      "t": 21576.854750000028,
      "d": 28.8460625000007,
      "v": 86
    },
    {
      "midi": 53,
      "hit": false,
      "t": 21576.854750000028,
      "d": 33.653739583332936,
      "v": 96
    },
    {
      "midi": 53,
      "hit": false,
      "t": 21692.239000000027,
      "d": 149.0379895833321,
      "v": 105
    },
    {
      "midi": 77,
      "hit": false,
      "t": 21692.239000000027,
      "d": 153.84566666666433,
      "v": 105
    },
    {
      "midi": 65,
      "hit": false,
      "t": 21692.239000000027,
      "d": 173.07637499999691,
      "v": 96
    },
    {
      "midi": 71,
      "hit": false,
      "t": 21923.007500000025,
      "d": 105.76889583333468,
      "v": 74
    },
    {
      "midi": 73,
      "hit": false,
      "t": 21923.007500000025,
      "d": 144.23031249999985,
      "v": 105
    },
    {
      "midi": 49,
      "hit": false,
      "t": 21923.007500000025,
      "d": 158.6533437500002,
      "v": 92
    },
    {
      "midi": 54,
      "hit": false,
      "t": 22153.776000000027,
      "d": 48.076770833333285,
      "v": 92
    },
    {
      "midi": 66,
      "hit": false,
      "t": 22153.776000000027,
      "d": 48.076770833333285,
      "v": 92
    },
    {
      "midi": 78,
      "hit": false,
      "t": 22153.776000000027,
      "d": 105.76889583333468,
      "v": 100
    },
    {
      "midi": 71,
      "hit": false,
      "t": 22269.16025000003,
      "d": 33.653739583332936,
      "v": 74
    },
    {
      "midi": 47,
      "hit": false,
      "t": 22269.16025000003,
      "d": 72.11515624999811,
      "v": 85
    },
    {
      "midi": 75,
      "hit": false,
      "t": 22384.54450000003,
      "d": 43.26909375000105,
      "v": 96
    },
    {
      "midi": 51,
      "hit": false,
      "t": 22384.54450000003,
      "d": 57.6921250000014,
      "v": 86
    },
    {
      "midi": 54,
      "hit": false,
      "t": 22499.928750000032,
      "d": 153.84566666666797,
      "v": 115
    },
    {
      "midi": 78,
      "hit": false,
      "t": 22499.928750000032,
      "d": 163.46102083333608,
      "v": 115
    },
    {
      "midi": 66,
      "hit": false,
      "t": 22499.928750000032,
      "d": 173.0763750000042,
      "v": 96
    },
    {
      "midi": 75,
      "hit": false,
      "t": 22730.697250000037,
      "d": 120.19192708333503,
      "v": 100
    },
    {
      "midi": 51,
      "hit": false,
      "t": 22730.697250000037,
      "d": 144.2303125000035,
      "v": 110
    },
    {
      "midi": 77,
      "hit": false,
      "t": 22961.46575000004,
      "d": 124.99960416666727,
      "v": 105
    },
    {
      "midi": 65,
      "hit": false,
      "t": 22961.46575000004,
      "d": 129.8072812499995,
      "v": 100
    },
    {
      "midi": 53,
      "hit": false,
      "t": 22961.46575000004,
      "d": 134.61495833333174,
      "v": 110
    },
    {
      "midi": 71,
      "hit": false,
      "t": 23192.234250000038,
      "d": 105.76889583333468,
      "v": 71
    },
    {
      "midi": 73,
      "hit": false,
      "t": 23192.234250000038,
      "d": 105.76889583333468,
      "v": 105
    },
    {
      "midi": 49,
      "hit": false,
      "t": 23192.234250000038,
      "d": 110.57657291666692,
      "v": 86
    },
    {
      "midi": 77,
      "hit": false,
      "t": 23423.00275000004,
      "d": 19.230708333332586,
      "v": 86
    },
    {
      "midi": 65,
      "hit": false,
      "t": 23423.00275000004,
      "d": 28.8460625000007,
      "v": 86
    },
    {
      "midi": 53,
      "hit": false,
      "t": 23423.00275000004,
      "d": 33.653739583332936,
      "v": 96
    },
    {
      "midi": 53,
      "hit": false,
      "t": 23538.38700000004,
      "d": 149.0379895833321,
      "v": 105
    },
    {
      "midi": 77,
      "hit": false,
      "t": 23538.38700000004,
      "d": 153.84566666666433,
      "v": 105
    },
    {
      "midi": 65,
      "hit": false,
      "t": 23538.38700000004,
      "d": 173.07637499999691,
      "v": 96
    },
    {
      "midi": 71,
      "hit": false,
      "t": 23769.155500000037,
      "d": 105.76889583333468,
      "v": 74
    },
    {
      "midi": 73,
      "hit": false,
      "t": 23769.155500000037,
      "d": 144.23031249999985,
      "v": 105
    },
    {
      "midi": 49,
      "hit": false,
      "t": 23769.155500000037,
      "d": 158.6533437500002,
      "v": 92
    },
    {
      "midi": 54,
      "hit": false,
      "t": 23999.92400000004,
      "d": 48.076770833333285,
      "v": 92
    },
    {
      "midi": 66,
      "hit": false,
      "t": 23999.92400000004,
      "d": 48.076770833333285,
      "v": 92
    },
    {
      "midi": 78,
      "hit": false,
      "t": 23999.92400000004,
      "d": 105.76889583333468,
      "v": 100
    },
    {
      "midi": 71,
      "hit": false,
      "t": 24115.308250000042,
      "d": 33.653739583332936,
      "v": 74
    },
    {
      "midi": 47,
      "hit": false,
      "t": 24115.308250000042,
      "d": 72.11515624999811,
      "v": 85
    },
    {
      "midi": 75,
      "hit": false,
      "t": 24230.69250000004,
      "d": 43.26909375000105,
      "v": 96
    },
    {
      "midi": 51,
      "hit": false,
      "t": 24230.69250000004,
      "d": 57.6921250000014,
      "v": 86
    },
    {
      "midi": 54,
      "hit": false,
      "t": 24346.076750000044,
      "d": 153.84566666666797,
      "v": 115
    },
    {
      "midi": 78,
      "hit": false,
      "t": 24346.076750000044,
      "d": 163.46102083333608,
      "v": 115
    },
    {
      "midi": 66,
      "hit": false,
      "t": 24346.076750000044,
      "d": 173.0763750000042,
      "v": 96
    },
    {
      "midi": 75,
      "hit": false,
      "t": 24576.84525000005,
      "d": 120.19192708333503,
      "v": 100
    },
    {
      "midi": 51,
      "hit": false,
      "t": 24576.84525000005,
      "d": 144.2303125000035,
      "v": 110
    },
    {
      "midi": 77,
      "hit": false,
      "t": 24807.61375000005,
      "d": 124.99960416666727,
      "v": 105
    },
    {
      "midi": 65,
      "hit": false,
      "t": 24807.61375000005,
      "d": 129.8072812499995,
      "v": 100
    },
    {
      "midi": 53,
      "hit": false,
      "t": 24807.61375000005,
      "d": 134.61495833333174,
      "v": 110
    },
    {
      "midi": 71,
      "hit": false,
      "t": 25038.38225000005,
      "d": 62.499802083333634,
      "v": 71
    },
    {
      "midi": 73,
      "hit": false,
      "t": 25038.38225000005,
      "d": 105.76889583333468,
      "v": 105
    },
    {
      "midi": 49,
      "hit": false,
      "t": 25038.38225000005,
      "d": 110.57657291666692,
      "v": 86
    },
    {
      "midi": 77,
      "hit": false,
      "t": 25269.15075000005,
      "d": 19.230708333332586,
      "v": 86
    },
    {
      "midi": 65,
      "hit": false,
      "t": 25269.15075000005,
      "d": 28.8460625000007,
      "v": 86
    },
    {
      "midi": 53,
      "hit": false,
      "t": 25269.15075000005,
      "d": 33.653739583332936,
      "v": 96
    },
    {
      "midi": 53,
      "hit": false,
      "t": 25384.53500000005,
      "d": 149.0379895833321,
      "v": 105
    },
    {
      "midi": 77,
      "hit": false,
      "t": 25384.53500000005,
      "d": 153.84566666666433,
      "v": 105
    },
    {
      "midi": 65,
      "hit": false,
      "t": 25384.53500000005,
      "d": 173.07637499999691,
      "v": 96
    },
    {
      "midi": 71,
      "hit": false,
      "t": 25615.30350000005,
      "d": 105.76889583333468,
      "v": 74
    },
    {
      "midi": 73,
      "hit": false,
      "t": 25615.30350000005,
      "d": 144.23031249999985,
      "v": 105
    },
    {
      "midi": 49,
      "hit": false,
      "t": 25615.30350000005,
      "d": 158.6533437500002,
      "v": 92
    },
    {
      "midi": 53,
      "hit": false,
      "t": 25846.07200000005,
      "d": 91.34586458333433,
      "v": 109
    },
    {
      "midi": 77,
      "hit": false,
      "t": 25846.07200000005,
      "d": 105.76889583333468,
      "v": 109
    },
    {
      "midi": 44,
      "hit": false,
      "t": 25961.456250000054,
      "d": 96.15354166666657,
      "v": 99
    },
    {
      "midi": 68,
      "hit": false,
      "t": 25961.456250000054,
      "d": 100.9612187499988,
      "v": 95
    },
    {
      "midi": 73,
      "hit": false,
      "t": 26076.840500000053,
      "d": 96.15354166666657,
      "v": 94
    },
    {
      "midi": 49,
      "hit": false,
      "t": 26076.840500000053,
      "d": 105.76889583333468,
      "v": 98
    },
    {
      "midi": 75,
      "hit": false,
      "t": 26192.224750000056,
      "d": 187.4994062500009,
      "v": 113
    },
    {
      "midi": 78,
      "hit": false,
      "t": 26192.224750000056,
      "d": 187.4994062500009,
      "v": 113
    },
    {
      "midi": 54,
      "hit": false,
      "t": 26192.224750000056,
      "d": 192.30708333333314,
      "v": 114
    },
    {
      "midi": 46,
      "hit": false,
      "t": 26422.993250000054,
      "d": 197.11476041666538,
      "v": 105
    },
    {
      "midi": 70,
      "hit": false,
      "t": 26422.993250000054,
      "d": 211.53779166666573,
      "v": 99
    },
    {
      "midi": 56,
      "hit": false,
      "t": 26658.56942708339,
      "d": 187.4994062500009,
      "v": 109
    },
    {
      "midi": 80,
      "hit": false,
      "t": 26658.56942708339,
      "d": 187.4994062500009,
      "v": 113
    },
    {
      "midi": 44,
      "hit": false,
      "t": 26884.530250000054,
      "d": 86.53818749999846,
      "v": 105
    },
    {
      "midi": 68,
      "hit": false,
      "t": 26884.530250000054,
      "d": 91.3458645833307,
      "v": 97
    },
    {
      "midi": 75,
      "hit": false,
      "t": 26999.914500000054,
      "d": 86.53818749999846,
      "v": 97
    },
    {
      "midi": 51,
      "hit": false,
      "t": 26999.914500000054,
      "d": 100.9612187499988,
      "v": 101
    },
    {
      "midi": 54,
      "hit": false,
      "t": 27115.298750000053,
      "d": 177.8840520833328,
      "v": 115
    },
    {
      "midi": 78,
      "hit": false,
      "t": 27115.298750000053,
      "d": 182.69172916666503,
      "v": 114
    },
    {
      "midi": 48,
      "hit": false,
      "t": 27346.06725000005,
      "d": 211.53779166666573,
      "v": 114
    },
    {
      "midi": 72,
      "hit": false,
      "t": 27350.874927083383,
      "d": 197.11476041666538,
      "v": 100
    },
    {
      "midi": 78,
      "hit": false,
      "t": 27576.83575000005,
      "d": 72.11515625000175,
      "v": 95
    },
    {
      "midi": 54,
      "hit": false,
      "t": 27576.83575000005,
      "d": 91.34586458333433,
      "v": 98
    },
    {
      "midi": 53,
      "hit": false,
      "t": 27692.220000000052,
      "d": 91.34586458333433,
      "v": 109
    },
    {
      "midi": 77,
      "hit": false,
      "t": 27692.220000000052,
      "d": 105.76889583333468,
      "v": 109
    },
    {
      "midi": 44,
      "hit": false,
      "t": 27807.604250000055,
      "d": 96.15354166666657,
      "v": 99
    },
    {
      "midi": 68,
      "hit": false,
      "t": 27807.604250000055,
      "d": 100.9612187499988,
      "v": 95
    },
    {
      "midi": 73,
      "hit": false,
      "t": 27922.988500000054,
      "d": 96.15354166666657,
      "v": 94
    },
    {
      "midi": 49,
      "hit": false,
      "t": 27922.988500000054,
      "d": 105.76889583333468,
      "v": 98
    },
    {
      "midi": 78,
      "hit": false,
      "t": 28038.372750000057,
      "d": 187.4994062500009,
      "v": 113
    },
    {
      "midi": 54,
      "hit": false,
      "t": 28038.372750000057,
      "d": 192.30708333333314,
      "v": 114
    },
    {
      "midi": 49,
      "hit": false,
      "t": 28269.141250000055,
      "d": 197.11476041666538,
      "v": 105
    },
    {
      "midi": 73,
      "hit": false,
      "t": 28269.141250000055,
      "d": 211.53779166666573,
      "v": 99
    },
    {
      "midi": 56,
      "hit": false,
      "t": 28499.909750000053,
      "d": 187.49940624999726,
      "v": 109
    },
    {
      "midi": 80,
      "hit": false,
      "t": 28504.717427083386,
      "d": 187.49940624999726,
      "v": 113
    },
    {
      "midi": 44,
      "hit": false,
      "t": 28730.678250000048,
      "d": 86.53818749999846,
      "v": 105
    },
    {
      "midi": 68,
      "hit": false,
      "t": 28730.678250000048,
      "d": 91.3458645833307,
      "v": 97
    },
    {
      "midi": 75,
      "hit": false,
      "t": 28846.062500000047,
      "d": 86.53818749999846,
      "v": 97
    },
    {
      "midi": 51,
      "hit": false,
      "t": 28846.062500000047,
      "d": 100.9612187499988,
      "v": 101
    },
    {
      "midi": 54,
      "hit": false,
      "t": 28961.446750000046,
      "d": 177.8840520833328,
      "v": 115
    },
    {
      "midi": 78,
      "hit": false,
      "t": 28961.446750000046,
      "d": 182.69172916666503,
      "v": 114
    },
    {
      "midi": 48,
      "hit": false,
      "t": 29192.215250000045,
      "d": 211.53779166666573,
      "v": 114
    },
    {
      "midi": 72,
      "hit": false,
      "t": 29197.022927083377,
      "d": 197.11476041666538,
      "v": 100
    },
    {
      "midi": 78,
      "hit": false,
      "t": 29422.983750000043,
      "d": 72.11515625000175,
      "v": 95
    },
    {
      "midi": 54,
      "hit": false,
      "t": 29422.983750000043,
      "d": 91.34586458333433,
      "v": 98
    },
    {
      "midi": 49,
      "hit": false,
      "t": 29538.368000000046,
      "d": 91.34586458333433,
      "v": 109
    },
    {
      "midi": 73,
      "hit": false,
      "t": 29538.368000000046,
      "d": 105.76889583333468,
      "v": 109
    },
    {
      "midi": 40,
      "hit": false,
      "t": 29653.75225000005,
      "d": 96.15354166666657,
      "v": 99
    },
    {
      "midi": 64,
      "hit": false,
      "t": 29653.75225000005,
      "d": 100.9612187499988,
      "v": 95
    },
    {
      "midi": 69,
      "hit": false,
      "t": 29769.136500000048,
      "d": 96.15354166666657,
      "v": 94
    },
    {
      "midi": 45,
      "hit": false,
      "t": 29769.136500000048,
      "d": 105.76889583333468,
      "v": 98
    },
    {
      "midi": 71,
      "hit": false,
      "t": 29884.52075000005,
      "d": 187.4994062500009,
      "v": 113
    },
    {
      "midi": 74,
      "hit": false,
      "t": 29884.52075000005,
      "d": 187.4994062500009,
      "v": 113
    },
    {
      "midi": 50,
      "hit": false,
      "t": 29884.52075000005,
      "d": 192.30708333333314,
      "v": 114
    },
    {
      "midi": 42,
      "hit": false,
      "t": 30115.28925000005,
      "d": 197.11476041666538,
      "v": 105
    },
    {
      "midi": 66,
      "hit": false,
      "t": 30115.28925000005,
      "d": 211.53779166666573,
      "v": 99
    },
    {
      "midi": 52,
      "hit": false,
      "t": 30350.865427083383,
      "d": 187.4994062500009,
      "v": 109
    },
    {
      "midi": 76,
      "hit": false,
      "t": 30350.865427083383,
      "d": 187.4994062500009,
      "v": 113
    },
    {
      "midi": 40,
      "hit": false,
      "t": 30576.82625000005,
      "d": 86.53818749999846,
      "v": 105
    },
    {
      "midi": 64,
      "hit": false,
      "t": 30576.82625000005,
      "d": 91.3458645833307,
      "v": 97
    },
    {
      "midi": 71,
      "hit": false,
      "t": 30692.21050000005,
      "d": 86.53818749999846,
      "v": 97
    },
    {
      "midi": 47,
      "hit": false,
      "t": 30692.21050000005,
      "d": 100.9612187499988,
      "v": 101
    },
    {
      "midi": 50,
      "hit": false,
      "t": 30807.594750000047,
      "d": 177.8840520833328,
      "v": 115
    },
    {
      "midi": 74,
      "hit": false,
      "t": 30807.594750000047,
      "d": 182.69172916666503,
      "v": 114
    },
    {
      "midi": 44,
      "hit": false,
      "t": 31038.363250000046,
      "d": 211.53779166666573,
      "v": 114
    },
    {
      "midi": 68,
      "hit": false,
      "t": 31043.170927083378,
      "d": 197.11476041666538,
      "v": 100
    },
    {
      "midi": 74,
      "hit": false,
      "t": 31269.131750000044,
      "d": 72.11515625000175,
      "v": 95
    },
    {
      "midi": 50,
      "hit": false,
      "t": 31269.131750000044,
      "d": 91.34586458333433,
      "v": 98
    },
    {
      "midi": 54,
      "hit": false,
      "t": 31384.516000000047,
      "d": 48.076770833333285,
      "v": 92
    },
    {
      "midi": 66,
      "hit": false,
      "t": 31384.516000000047,
      "d": 48.076770833333285,
      "v": 92
    },
    {
      "midi": 78,
      "hit": false,
      "t": 31384.516000000047,
      "d": 105.76889583333468,
      "v": 100
    },
    {
      "midi": 71,
      "hit": false,
      "t": 31499.90025000005,
      "d": 33.653739583332936,
      "v": 74
    },
    {
      "midi": 47,
      "hit": false,
      "t": 31499.90025000005,
      "d": 72.11515624999811,
      "v": 85
    },
    {
      "midi": 75,
      "hit": false,
      "t": 31615.28450000005,
      "d": 43.26909375000105,
      "v": 96
    },
    {
      "midi": 51,
      "hit": false,
      "t": 31615.28450000005,
      "d": 57.6921250000014,
      "v": 86
    },
    {
      "midi": 54,
      "hit": false,
      "t": 31730.66875000005,
      "d": 153.84566666666797,
      "v": 115
    },
    {
      "midi": 78,
      "hit": false,
      "t": 31730.66875000005,
      "d": 163.46102083333608,
      "v": 115
    },
    {
      "midi": 66,
      "hit": false,
      "t": 31730.66875000005,
      "d": 173.0763750000042,
      "v": 96
    },
    {
      "midi": 75,
      "hit": false,
      "t": 31961.437250000057,
      "d": 120.19192708333503,
      "v": 100
    },
    {
      "midi": 51,
      "hit": false,
      "t": 31961.437250000057,
      "d": 144.2303125000035,
      "v": 110
    },
    {
      "midi": 77,
      "hit": false,
      "t": 32192.20575000006,
      "d": 124.99960416666727,
      "v": 105
    },
    {
      "midi": 65,
      "hit": false,
      "t": 32192.20575000006,
      "d": 129.8072812499995,
      "v": 100
    },
    {
      "midi": 53,
      "hit": false,
      "t": 32192.20575000006,
      "d": 134.61495833333174,
      "v": 110
    },
    {
      "midi": 71,
      "hit": false,
      "t": 32422.974250000058,
      "d": 105.76889583333468,
      "v": 71
    },
    {
      "midi": 73,
      "hit": false,
      "t": 32422.974250000058,
      "d": 105.76889583333468,
      "v": 105
    },
    {
      "midi": 49,
      "hit": false,
      "t": 32422.974250000058,
      "d": 110.57657291666692,
      "v": 86
    },
    {
      "midi": 77,
      "hit": false,
      "t": 32653.74275000006,
      "d": 19.230708333332586,
      "v": 86
    },
    {
      "midi": 65,
      "hit": false,
      "t": 32653.74275000006,
      "d": 28.8460625000007,
      "v": 86
    },
    {
      "midi": 53,
      "hit": false,
      "t": 32653.74275000006,
      "d": 33.653739583332936,
      "v": 96
    },
    {
      "midi": 53,
      "hit": false,
      "t": 32769.12700000006,
      "d": 149.0379895833321,
      "v": 105
    },
    {
      "midi": 77,
      "hit": false,
      "t": 32769.12700000006,
      "d": 153.84566666666797,
      "v": 105
    },
    {
      "midi": 65,
      "hit": false,
      "t": 32769.12700000006,
      "d": 173.0763750000042,
      "v": 96
    },
    {
      "midi": 71,
      "hit": false,
      "t": 32999.895500000064,
      "d": 105.76889583333104,
      "v": 74
    },
    {
      "midi": 73,
      "hit": false,
      "t": 32999.895500000064,
      "d": 144.23031249999622,
      "v": 105
    },
    {
      "midi": 49,
      "hit": false,
      "t": 32999.895500000064,
      "d": 158.65334374999657,
      "v": 92
    },
    {
      "midi": 53,
      "hit": false,
      "t": 33230.66400000006,
      "d": 91.3458645833307,
      "v": 109
    },
    {
      "midi": 77,
      "hit": false,
      "t": 33230.66400000006,
      "d": 105.76889583333104,
      "v": 109
    },
    {
      "midi": 44,
      "hit": false,
      "t": 33346.04825000006,
      "d": 96.15354166666657,
      "v": 99
    },
    {
      "midi": 68,
      "hit": false,
      "t": 33346.04825000006,
      "d": 100.96121875000244,
      "v": 95
    },
    {
      "midi": 73,
      "hit": false,
      "t": 33461.43250000006,
      "d": 96.15354166666657,
      "v": 94
    },
    {
      "midi": 49,
      "hit": false,
      "t": 33461.43250000006,
      "d": 105.76889583333104,
      "v": 98
    },
    {
      "midi": 75,
      "hit": false,
      "t": 33576.816750000056,
      "d": 187.49940624999726,
      "v": 113
    },
    {
      "midi": 78,
      "hit": false,
      "t": 33576.816750000056,
      "d": 187.49940624999726,
      "v": 113
    },
    {
      "midi": 54,
      "hit": false,
      "t": 33576.816750000056,
      "d": 192.30708333333314,
      "v": 114
    },
    {
      "midi": 46,
      "hit": false,
      "t": 33807.585250000055,
      "d": 197.11476041666901,
      "v": 105
    },
    {
      "midi": 70,
      "hit": false,
      "t": 33807.585250000055,
      "d": 211.53779166666936,
      "v": 99
    },
    {
      "midi": 56,
      "hit": false,
      "t": 34043.16142708339,
      "d": 187.49940624999726,
      "v": 109
    },
    {
      "midi": 80,
      "hit": false,
      "t": 34043.16142708339,
      "d": 187.49940624999726,
      "v": 113
    },
    {
      "midi": 44,
      "hit": false,
      "t": 34269.12225000005,
      "d": 86.5381875000021,
      "v": 105
    },
    {
      "midi": 68,
      "hit": false,
      "t": 34269.12225000005,
      "d": 91.34586458333797,
      "v": 97
    },
    {
      "midi": 75,
      "hit": false,
      "t": 34384.506500000054,
      "d": 86.5381875000021,
      "v": 97
    },
    {
      "midi": 51,
      "hit": false,
      "t": 34384.506500000054,
      "d": 100.96121875000244,
      "v": 101
    },
    {
      "midi": 54,
      "hit": false,
      "t": 34499.89075000006,
      "d": 177.8840520833328,
      "v": 115
    },
    {
      "midi": 78,
      "hit": false,
      "t": 34499.89075000006,
      "d": 182.69172916666867,
      "v": 114
    },
    {
      "midi": 48,
      "hit": false,
      "t": 34730.65925000006,
      "d": 211.53779166666936,
      "v": 114
    },
    {
      "midi": 72,
      "hit": false,
      "t": 34735.4669270834,
      "d": 197.11476041666901,
      "v": 100
    },
    {
      "midi": 78,
      "hit": false,
      "t": 34961.42775000007,
      "d": 72.11515625000175,
      "v": 95
    },
    {
      "midi": 54,
      "hit": false,
      "t": 34961.42775000007,
      "d": 91.34586458333797,
      "v": 98
    },
    {
      "midi": 53,
      "hit": false,
      "t": 35076.81200000007,
      "d": 91.3458645833307,
      "v": 109
    },
    {
      "midi": 77,
      "hit": false,
      "t": 35076.81200000007,
      "d": 105.76889583333104,
      "v": 109
    },
    {
      "midi": 44,
      "hit": false,
      "t": 35192.196250000066,
      "d": 96.15354166666657,
      "v": 99
    },
    {
      "midi": 68,
      "hit": false,
      "t": 35192.196250000066,
      "d": 100.96121875000244,
      "v": 95
    },
    {
      "midi": 73,
      "hit": false,
      "t": 35307.58050000007,
      "d": 96.15354166666657,
      "v": 94
    },
    {
      "midi": 49,
      "hit": false,
      "t": 35307.58050000007,
      "d": 105.76889583333104,
      "v": 98
    },
    {
      "midi": 78,
      "hit": false,
      "t": 35422.964750000065,
      "d": 187.49940624999726,
      "v": 113
    },
    {
      "midi": 54,
      "hit": false,
      "t": 35422.964750000065,
      "d": 192.30708333333314,
      "v": 114
    },
    {
      "midi": 49,
      "hit": false,
      "t": 35653.73325000006,
      "d": 197.11476041666901,
      "v": 105
    },
    {
      "midi": 73,
      "hit": false,
      "t": 35653.73325000006,
      "d": 211.53779166666936,
      "v": 99
    },
    {
      "midi": 56,
      "hit": false,
      "t": 35884.50175000007,
      "d": 187.49940625000454,
      "v": 109
    },
    {
      "midi": 80,
      "hit": false,
      "t": 35889.309427083404,
      "d": 187.49940625000454,
      "v": 113
    },
    {
      "midi": 44,
      "hit": false,
      "t": 36115.270250000074,
      "d": 86.5381875000021,
      "v": 105
    },
    {
      "midi": 68,
      "hit": false,
      "t": 36115.270250000074,
      "d": 91.34586458333797,
      "v": 97
    },
    {
      "midi": 75,
      "hit": false,
      "t": 36230.65450000008,
      "d": 86.5381875000021,
      "v": 97
    },
    {
      "midi": 51,
      "hit": false,
      "t": 36230.65450000008,
      "d": 100.96121875000244,
      "v": 101
    },
    {
      "midi": 54,
      "hit": false,
      "t": 36346.03875000008,
      "d": 177.8840520833328,
      "v": 115
    },
    {
      "midi": 78,
      "hit": false,
      "t": 36346.03875000008,
      "d": 182.69172916666867,
      "v": 114
    },
    {
      "midi": 48,
      "hit": false,
      "t": 36576.807250000085,
      "d": 211.53779166666936,
      "v": 114
    },
    {
      "midi": 72,
      "hit": false,
      "t": 36581.61492708342,
      "d": 197.11476041666901,
      "v": 100
    },
    {
      "midi": 78,
      "hit": false,
      "t": 36807.57575000009,
      "d": 72.11515625000175,
      "v": 95
    },
    {
      "midi": 54,
      "hit": false,
      "t": 36807.57575000009,
      "d": 91.34586458333797,
      "v": 98
    },
    {
      "midi": 49,
      "hit": false,
      "t": 36922.960000000094,
      "d": 91.3458645833307,
      "v": 109
    },
    {
      "midi": 73,
      "hit": false,
      "t": 36922.960000000094,
      "d": 105.76889583333104,
      "v": 109
    },
    {
      "midi": 40,
      "hit": false,
      "t": 37038.34425000009,
      "d": 96.15354166666657,
      "v": 99
    },
    {
      "midi": 64,
      "hit": false,
      "t": 37038.34425000009,
      "d": 100.96121875000244,
      "v": 95
    },
    {
      "midi": 69,
      "hit": false,
      "t": 37153.72850000009,
      "d": 96.15354166666657,
      "v": 94
    },
    {
      "midi": 45,
      "hit": false,
      "t": 37153.72850000009,
      "d": 105.76889583333104,
      "v": 98
    },
    {
      "midi": 71,
      "hit": false,
      "t": 37269.11275000009,
      "d": 187.49940624999726,
      "v": 113
    },
    {
      "midi": 74,
      "hit": false,
      "t": 37269.11275000009,
      "d": 187.49940624999726,
      "v": 113
    },
    {
      "midi": 50,
      "hit": false,
      "t": 37269.11275000009,
      "d": 192.30708333333314,
      "v": 114
    },
    {
      "midi": 42,
      "hit": false,
      "t": 37499.881250000086,
      "d": 197.11476041666901,
      "v": 105
    },
    {
      "midi": 66,
      "hit": false,
      "t": 37499.881250000086,
      "d": 211.53779166666936,
      "v": 99
    },
    {
      "midi": 52,
      "hit": false,
      "t": 37735.45742708342,
      "d": 187.49940624999726,
      "v": 109
    },
    {
      "midi": 76,
      "hit": false,
      "t": 37735.45742708342,
      "d": 187.49940624999726,
      "v": 113
    },
    {
      "midi": 40,
      "hit": false,
      "t": 37961.41825000008,
      "d": 86.5381875000021,
      "v": 105
    },
    {
      "midi": 64,
      "hit": false,
      "t": 37961.41825000008,
      "d": 91.34586458333797,
      "v": 97
    },
    {
      "midi": 71,
      "hit": false,
      "t": 38076.802500000085,
      "d": 86.5381875000021,
      "v": 97
    },
    {
      "midi": 47,
      "hit": false,
      "t": 38076.802500000085,
      "d": 100.96121875000244,
      "v": 101
    },
    {
      "midi": 50,
      "hit": false,
      "t": 38192.18675000009,
      "d": 177.8840520833328,
      "v": 115
    },
    {
      "midi": 74,
      "hit": false,
      "t": 38192.18675000009,
      "d": 182.69172916666867,
      "v": 114
    },
    {
      "midi": 44,
      "hit": false,
      "t": 38422.955250000094,
      "d": 211.53779166666936,
      "v": 114
    },
    {
      "midi": 68,
      "hit": false,
      "t": 38427.76292708343,
      "d": 197.11476041666901,
      "v": 100
    },
    {
      "midi": 74,
      "hit": false,
      "t": 38653.7237500001,
      "d": 72.11515625000175,
      "v": 95
    },
    {
      "midi": 50,
      "hit": false,
      "t": 38653.7237500001,
      "d": 91.34586458333797,
      "v": 98
    },
    {
      "midi": 58,
      "hit": false,
      "t": 38769.1080000001,
      "d": 86.5381875000021,
      "v": 89
    },
    {
      "midi": 59,
      "hit": false,
      "t": 38769.1080000001,
      "d": 86.5381875000021,
      "v": 116
    },
    {
      "midi": 63,
      "hit": false,
      "t": 38769.1080000001,
      "d": 86.5381875000021,
      "v": 105
    },
    {
      "midi": 66,
      "hit": false,
      "t": 38769.1080000001,
      "d": 86.5381875000021,
      "v": 100
    },
    {
      "midi": 85,
      "hit": false,
      "t": 38769.1080000001,
      "d": 86.5381875000021,
      "v": 100
    },
    {
      "midi": 97,
      "hit": false,
      "t": 38769.1080000001,
      "d": 86.5381875000021,
      "v": 92
    },
    {
      "midi": 58,
      "hit": false,
      "t": 38913.338312500106,
      "d": 86.5381875000021,
      "v": 89
    },
    {
      "midi": 59,
      "hit": false,
      "t": 38913.338312500106,
      "d": 86.5381875000021,
      "v": 116
    },
    {
      "midi": 63,
      "hit": false,
      "t": 38913.338312500106,
      "d": 86.5381875000021,
      "v": 105
    },
    {
      "midi": 66,
      "hit": false,
      "t": 38913.338312500106,
      "d": 86.5381875000021,
      "v": 100
    },
    {
      "midi": 85,
      "hit": false,
      "t": 38913.338312500106,
      "d": 86.5381875000021,
      "v": 100
    },
    {
      "midi": 97,
      "hit": false,
      "t": 38913.338312500106,
      "d": 86.5381875000021,
      "v": 92
    },
    {
      "midi": 58,
      "hit": false,
      "t": 39076.79933333344,
      "d": 86.5381875000021,
      "v": 89
    },
    {
      "midi": 59,
      "hit": false,
      "t": 39076.79933333344,
      "d": 86.5381875000021,
      "v": 116
    },
    {
      "midi": 63,
      "hit": false,
      "t": 39076.79933333344,
      "d": 86.5381875000021,
      "v": 105
    },
    {
      "midi": 66,
      "hit": false,
      "t": 39076.79933333344,
      "d": 86.5381875000021,
      "v": 100
    },
    {
      "midi": 85,
      "hit": false,
      "t": 39076.79933333344,
      "d": 86.5381875000021,
      "v": 100
    },
    {
      "midi": 97,
      "hit": false,
      "t": 39076.79933333344,
      "d": 86.5381875000021,
      "v": 92
    },
    {
      "midi": 58,
      "hit": false,
      "t": 39230.645000000106,
      "d": 124.99960416666727,
      "v": 89
    },
    {
      "midi": 59,
      "hit": false,
      "t": 39230.645000000106,
      "d": 124.99960416666727,
      "v": 116
    },
    {
      "midi": 63,
      "hit": false,
      "t": 39230.645000000106,
      "d": 124.99960416666727,
      "v": 105
    },
    {
      "midi": 66,
      "hit": false,
      "t": 39230.645000000106,
      "d": 124.99960416666727,
      "v": 100
    },
    {
      "midi": 85,
      "hit": false,
      "t": 39230.645000000106,
      "d": 124.99960416666727,
      "v": 100
    },
    {
      "midi": 97,
      "hit": false,
      "t": 39230.645000000106,
      "d": 124.99960416666727,
      "v": 92
    },
    {
      "midi": 59,
      "hit": false,
      "t": 40615.25600000001,
      "d": 1846.148000000001,
      "v": 120
    },
    {
      "midi": 61,
      "hit": false,
      "t": 40615.25600000001,
      "d": 1846.148000000001,
      "v": 120
    },
    {
      "midi": 63,
      "hit": false,
      "t": 40615.25600000001,
      "d": 1846.148000000001,
      "v": 120
    },
    {
      "midi": 66,
      "hit": false,
      "t": 40615.25600000001,
      "d": 1846.148000000001,
      "v": 120
    },
    {
      "midi": 57,
      "hit": false,
      "t": 42461.40400000001,
      "d": 1846.148000000001,
      "v": 120
    },
    {
      "midi": 61,
      "hit": false,
      "t": 42461.40400000001,
      "d": 1846.148000000001,
      "v": 120
    },
    {
      "midi": 62,
      "hit": false,
      "t": 42461.40400000001,
      "d": 1846.148000000001,
      "v": 120
    },
    {
      "midi": 66,
      "hit": false,
      "t": 42461.40400000001,
      "d": 1846.148000000001,
      "v": 120
    },
    {
      "midi": 56,
      "hit": false,
      "t": 44307.55200000001,
      "d": 1846.148000000001,
      "v": 120
    },
    {
      "midi": 61,
      "hit": false,
      "t": 44307.55200000001,
      "d": 1846.148000000001,
      "v": 120
    },
    {
      "midi": 65,
      "hit": false,
      "t": 44307.55200000001,
      "d": 1846.148000000001,
      "v": 120
    },
    {
      "midi": 68,
      "hit": false,
      "t": 44307.55200000001,
      "d": 1846.148000000001,
      "v": 120
    },
    {
      "midi": 54,
      "hit": false,
      "t": 46153.70000000001,
      "d": 1846.148000000001,
      "v": 120
    },
    {
      "midi": 60,
      "hit": false,
      "t": 46153.70000000001,
      "d": 1846.148000000001,
      "v": 120
    },
    {
      "midi": 62,
      "hit": false,
      "t": 46153.70000000001,
      "d": 1846.148000000001,
      "v": 120
    },
    {
      "midi": 65,
      "hit": false,
      "t": 46153.70000000001,
      "d": 1846.148000000001,
      "v": 120
    },
    {
      "midi": 59,
      "hit": false,
      "t": 47999.84800000001,
      "d": 1846.148000000001,
      "v": 120
    },
    {
      "midi": 63,
      "hit": false,
      "t": 47999.84800000001,
      "d": 1846.148000000001,
      "v": 120
    },
    {
      "midi": 66,
      "hit": false,
      "t": 47999.84800000001,
      "d": 1846.148000000001,
      "v": 120
    },
    {
      "midi": 70,
      "hit": false,
      "t": 47999.84800000001,
      "d": 1846.148000000001,
      "v": 120
    },
    {
      "midi": 59,
      "hit": false,
      "t": 49845.996000000014,
      "d": 923.0740000000005,
      "v": 120
    },
    {
      "midi": 63,
      "hit": false,
      "t": 49845.996000000014,
      "d": 923.0740000000005,
      "v": 120
    },
    {
      "midi": 67,
      "hit": false,
      "t": 49845.996000000014,
      "d": 923.0740000000005,
      "v": 120
    },
    {
      "midi": 70,
      "hit": false,
      "t": 49845.996000000014,
      "d": 923.0740000000005,
      "v": 120
    },
    {
      "midi": 59,
      "hit": false,
      "t": 50769.070000000014,
      "d": 923.0740000000005,
      "v": 120
    },
    {
      "midi": 62,
      "hit": false,
      "t": 50769.070000000014,
      "d": 923.0740000000005,
      "v": 120
    },
    {
      "midi": 65,
      "hit": false,
      "t": 50769.070000000014,
      "d": 923.0740000000005,
      "v": 120
    },
    {
      "midi": 68,
      "hit": false,
      "t": 50769.070000000014,
      "d": 923.0740000000005,
      "v": 120
    },
    {
      "midi": 58,
      "hit": false,
      "t": 51692.144000000015,
      "d": 1846.148000000001,
      "v": 120
    },
    {
      "midi": 61,
      "hit": false,
      "t": 51692.144000000015,
      "d": 1846.148000000001,
      "v": 120
    },
    {
      "midi": 65,
      "hit": false,
      "t": 51692.144000000015,
      "d": 1846.148000000001,
      "v": 120
    },
    {
      "midi": 68,
      "hit": false,
      "t": 51692.144000000015,
      "d": 1846.148000000001,
      "v": 120
    },
    {
      "midi": 58,
      "hit": false,
      "t": 53538.292000000016,
      "d": 1846.148000000001,
      "v": 120
    },
    {
      "midi": 62,
      "hit": false,
      "t": 53538.292000000016,
      "d": 1846.148000000001,
      "v": 120
    },
    {
      "midi": 64,
      "hit": false,
      "t": 53538.292000000016,
      "d": 1846.148000000001,
      "v": 120
    },
    {
      "midi": 68,
      "hit": false,
      "t": 53538.292000000016,
      "d": 1846.148000000001,
      "v": 120
    },
    {
      "midi": 59,
      "hit": false,
      "t": 55384.44000000002,
      "d": 1846.148000000001,
      "v": 120
    },
    {
      "midi": 61,
      "hit": false,
      "t": 55384.44000000002,
      "d": 1846.148000000001,
      "v": 120
    },
    {
      "midi": 63,
      "hit": false,
      "t": 55384.44000000002,
      "d": 1846.148000000001,
      "v": 120
    },
    {
      "midi": 66,
      "hit": false,
      "t": 55384.44000000002,
      "d": 1846.148000000001,
      "v": 120
    },
    {
      "midi": 57,
      "hit": false,
      "t": 57230.58800000002,
      "d": 1846.148000000001,
      "v": 120
    },
    {
      "midi": 61,
      "hit": false,
      "t": 57230.58800000002,
      "d": 1846.148000000001,
      "v": 120
    },
    {
      "midi": 62,
      "hit": false,
      "t": 57230.58800000002,
      "d": 1846.148000000001,
      "v": 120
    },
    {
      "midi": 66,
      "hit": false,
      "t": 57230.58800000002,
      "d": 1846.148000000001,
      "v": 120
    },
    {
      "midi": 56,
      "hit": false,
      "t": 59076.73600000002,
      "d": 1846.148000000001,
      "v": 120
    },
    {
      "midi": 61,
      "hit": false,
      "t": 59076.73600000002,
      "d": 1846.148000000001,
      "v": 120
    },
    {
      "midi": 65,
      "hit": false,
      "t": 59076.73600000002,
      "d": 1846.148000000001,
      "v": 120
    },
    {
      "midi": 68,
      "hit": false,
      "t": 59076.73600000002,
      "d": 1846.148000000001,
      "v": 120
    },
    {
      "midi": 54,
      "hit": false,
      "t": 60922.88400000002,
      "d": 1846.148000000001,
      "v": 120
    },
    {
      "midi": 60,
      "hit": false,
      "t": 60922.88400000002,
      "d": 1846.148000000001,
      "v": 120
    },
    {
      "midi": 62,
      "hit": false,
      "t": 60922.88400000002,
      "d": 1846.148000000001,
      "v": 120
    },
    {
      "midi": 65,
      "hit": false,
      "t": 60922.88400000002,
      "d": 1846.148000000001,
      "v": 120
    },
    {
      "midi": 59,
      "hit": false,
      "t": 62769.03200000002,
      "d": 1846.148000000001,
      "v": 120
    },
    {
      "midi": 63,
      "hit": false,
      "t": 62769.03200000002,
      "d": 1846.148000000001,
      "v": 120
    },
    {
      "midi": 66,
      "hit": false,
      "t": 62769.03200000002,
      "d": 1846.148000000001,
      "v": 120
    },
    {
      "midi": 70,
      "hit": false,
      "t": 62769.03200000002,
      "d": 1846.148000000001,
      "v": 120
    },
    {
      "midi": 59,
      "hit": false,
      "t": 64615.18000000002,
      "d": 1846.148000000001,
      "v": 120
    },
    {
      "midi": 62,
      "hit": false,
      "t": 64615.18000000002,
      "d": 1846.148000000001,
      "v": 120
    },
    {
      "midi": 65,
      "hit": false,
      "t": 64615.18000000002,
      "d": 1846.148000000001,
      "v": 120
    },
    {
      "midi": 67,
      "hit": false,
      "t": 64615.18000000002,
      "d": 1846.148000000001,
      "v": 120
    },
    {
      "midi": 101,
      "hit": false,
      "t": 73086.30702083334,
      "d": 19.23070833332895,
      "v": 89
    },
    {
      "midi": 99,
      "hit": false,
      "t": 73091.11469791667,
      "d": 38.4614166666579,
      "v": 120
    },
    {
      "midi": 97,
      "hit": false,
      "t": 73110.34540625,
      "d": 48.07677083332965,
      "v": 100
    },
    {
      "midi": 96,
      "hit": false,
      "t": 73129.57611458332,
      "d": 48.07677083332965,
      "v": 86
    },
    {
      "midi": 94,
      "hit": false,
      "t": 73158.42217708332,
      "d": 43.26909375000105,
      "v": 89
    },
    {
      "midi": 92,
      "hit": false,
      "t": 73177.65288541665,
      "d": 48.07677083332965,
      "v": 100
    },
    {
      "midi": 90,
      "hit": false,
      "t": 73206.49894791665,
      "d": 43.269093749986496,
      "v": 105
    },
    {
      "midi": 89,
      "hit": false,
      "t": 73230.53733333331,
      "d": 48.07677083332965,
      "v": 105
    },
    {
      "midi": 87,
      "hit": false,
      "t": 73254.57571874997,
      "d": 48.07677083332965,
      "v": 100
    },
    {
      "midi": 85,
      "hit": false,
      "t": 73283.42178124997,
      "d": 48.07677083332965,
      "v": 105
    },
    {
      "midi": 84,
      "hit": false,
      "t": 73312.26784374997,
      "d": 52.884447916658246,
      "v": 100
    },
    {
      "midi": 82,
      "hit": false,
      "t": 73345.9215833333,
      "d": 57.6921250000014,
      "v": 89
    },
    {
      "midi": 80,
      "hit": false,
      "t": 73379.57532291663,
      "d": 57.6921250000014,
      "v": 86
    },
    {
      "midi": 78,
      "hit": false,
      "t": 73418.0367395833,
      "d": 52.884447916658246,
      "v": 86
    },
    {
      "midi": 77,
      "hit": false,
      "t": 73456.49815624996,
      "d": 48.07677083332965,
      "v": 89
    },
    {
      "midi": 75,
      "hit": false,
      "t": 73490.15189583329,
      "d": 52.884447916658246,
      "v": 92
    },
    {
      "midi": 73,
      "hit": false,
      "t": 73523.80563541662,
      "d": 52.884447916658246,
      "v": 92
    },
    {
      "midi": 72,
      "hit": false,
      "t": 73557.45937499995,
      "d": 52.884447916658246,
      "v": 92
    },
    {
      "midi": 70,
      "hit": false,
      "t": 73595.9207916666,
      "d": 48.07677083332965,
      "v": 96
    },
    {
      "midi": 68,
      "hit": false,
      "t": 73629.57453124993,
      "d": 48.0767708333442,
      "v": 92
    },
    {
      "midi": 66,
      "hit": false,
      "t": 73668.0359479166,
      "d": 48.0767708333442,
      "v": 86
    },
    {
      "midi": 65,
      "hit": false,
      "t": 73701.68968749995,
      "d": 52.884447916658246,
      "v": 92
    },
    {
      "midi": 63,
      "hit": false,
      "t": 73735.34342708328,
      "d": 57.692124999986845,
      "v": 96
    },
    {
      "midi": 61,
      "hit": false,
      "t": 73773.80484374994,
      "d": 43.269093749986496,
      "v": 86
    },
    {
      "midi": 60,
      "hit": false,
      "t": 73812.2662604166,
      "d": 24.038385416657547,
      "v": 86
    },
    {
      "midi": 65,
      "hit": false,
      "t": 73845.91999999993,
      "d": 245.19153125000594,
      "v": 120
    },
    {
      "midi": 66,
      "hit": false,
      "t": 73961.30424999993,
      "d": 86.5381875000021,
      "v": 86
    },
    {
      "midi": 70,
      "hit": false,
      "t": 74076.68849999993,
      "d": 62.499802083329996,
      "v": 85
    },
    {
      "midi": 73,
      "hit": false,
      "t": 74076.68849999993,
      "d": 62.499802083329996,
      "v": 95
    },
    {
      "midi": 63,
      "hit": false,
      "t": 74192.07274999993,
      "d": 346.1527500000084,
      "v": 122
    },
    {
      "midi": 66,
      "hit": false,
      "t": 74422.84124999994,
      "d": 67.30747916667315,
      "v": 86
    },
    {
      "midi": 70,
      "hit": false,
      "t": 74538.22549999994,
      "d": 48.07677083332965,
      "v": 83
    },
    {
      "midi": 73,
      "hit": false,
      "t": 74538.22549999994,
      "d": 48.07677083332965,
      "v": 88
    },
    {
      "midi": 65,
      "hit": false,
      "t": 74653.60974999995,
      "d": 384.61416666668083,
      "v": 114
    },
    {
      "midi": 66,
      "hit": false,
      "t": 74884.37824999995,
      "d": 62.499802083329996,
      "v": 78
    },
    {
      "midi": 70,
      "hit": false,
      "t": 74999.76249999995,
      "d": 43.26909375000105,
      "v": 74
    },
    {
      "midi": 73,
      "hit": false,
      "t": 74999.76249999995,
      "d": 67.30747916667315,
      "v": 83
    },
    {
      "midi": 63,
      "hit": false,
      "t": 75115.14674999996,
      "d": 48.07677083332965,
      "v": 106
    },
    {
      "midi": 63,
      "hit": false,
      "t": 75230.53099999996,
      "d": 288.460625000007,
      "v": 100
    },
    {
      "midi": 66,
      "hit": false,
      "t": 75345.91524999996,
      "d": 67.30747916667315,
      "v": 70
    },
    {
      "midi": 70,
      "hit": false,
      "t": 75461.29949999996,
      "d": 52.8844479166728,
      "v": 80
    },
    {
      "midi": 73,
      "hit": false,
      "t": 75461.29949999996,
      "d": 62.499802083329996,
      "v": 90
    },
    {
      "midi": 66,
      "hit": false,
      "t": 75576.68374999997,
      "d": 67.30747916667315,
      "v": 71
    },
    {
      "midi": 65,
      "hit": false,
      "t": 75692.06799999997,
      "d": 245.19153125000594,
      "v": 106
    },
    {
      "midi": 66,
      "hit": false,
      "t": 75807.45224999997,
      "d": 86.5381875000021,
      "v": 75
    },
    {
      "midi": 70,
      "hit": false,
      "t": 75922.83649999998,
      "d": 62.499802083329996,
      "v": 75
    },
    {
      "midi": 73,
      "hit": false,
      "t": 75922.83649999998,
      "d": 62.499802083329996,
      "v": 84
    },
    {
      "midi": 63,
      "hit": false,
      "t": 76038.22074999998,
      "d": 346.1527500000084,
      "v": 107
    },
    {
      "midi": 66,
      "hit": false,
      "t": 76268.98924999998,
      "d": 67.30747916667315,
      "v": 75
    },
    {
      "midi": 70,
      "hit": false,
      "t": 76384.37349999999,
      "d": 48.07677083332965,
      "v": 71
    },
    {
      "midi": 73,
      "hit": false,
      "t": 76384.37349999999,
      "d": 48.07677083332965,
      "v": 76
    },
    {
      "midi": 65,
      "hit": false,
      "t": 76499.75774999999,
      "d": 384.61416666668083,
      "v": 100
    },
    {
      "midi": 66,
      "hit": false,
      "t": 76730.52625,
      "d": 62.499802083329996,
      "v": 67
    },
    {
      "midi": 70,
      "hit": false,
      "t": 76845.9105,
      "d": 43.26909375000105,
      "v": 64
    },
    {
      "midi": 73,
      "hit": false,
      "t": 76845.9105,
      "d": 67.30747916667315,
      "v": 71
    },
    {
      "midi": 63,
      "hit": false,
      "t": 76961.29475,
      "d": 48.07677083332965,
      "v": 92
    },
    {
      "midi": 63,
      "hit": false,
      "t": 77076.679,
      "d": 288.460625000007,
      "v": 87
    },
    {
      "midi": 66,
      "hit": false,
      "t": 77192.06325,
      "d": 67.30747916667315,
      "v": 61
    },
    {
      "midi": 70,
      "hit": false,
      "t": 77307.44750000001,
      "d": 52.8844479166728,
      "v": 69
    },
    {
      "midi": 73,
      "hit": false,
      "t": 77307.44750000001,
      "d": 62.499802083329996,
      "v": 77
    },
    {
      "midi": 66,
      "hit": false,
      "t": 77422.83175000001,
      "d": 67.30747916667315,
      "v": 62
    },
    {
      "midi": 65,
      "hit": false,
      "t": 77538.21600000001,
      "d": 245.19153125000594,
      "v": 91
    },
    {
      "midi": 66,
      "hit": false,
      "t": 77653.60025000002,
      "d": 86.5381875000021,
      "v": 65
    },
    {
      "midi": 70,
      "hit": false,
      "t": 77768.98450000002,
      "d": 62.499802083329996,
      "v": 64
    },
    {
      "midi": 73,
      "hit": false,
      "t": 77768.98450000002,
      "d": 62.499802083329996,
      "v": 71
    },
    {
      "midi": 63,
      "hit": false,
      "t": 77884.36875000002,
      "d": 346.1527500000084,
      "v": 91
    },
    {
      "midi": 66,
      "hit": false,
      "t": 78115.13725000003,
      "d": 67.30747916667315,
      "v": 64
    },
    {
      "midi": 70,
      "hit": false,
      "t": 78230.52150000003,
      "d": 48.07677083332965,
      "v": 61
    },
    {
      "midi": 73,
      "hit": false,
      "t": 78230.52150000003,
      "d": 48.07677083332965,
      "v": 65
    },
    {
      "midi": 65,
      "hit": false,
      "t": 78345.90575000003,
      "d": 384.61416666668083,
      "v": 84
    },
    {
      "midi": 66,
      "hit": false,
      "t": 78576.67425000004,
      "d": 62.499802083329996,
      "v": 57
    },
    {
      "midi": 70,
      "hit": false,
      "t": 78692.05850000004,
      "d": 43.26909375000105,
      "v": 54
    },
    {
      "midi": 73,
      "hit": false,
      "t": 78692.05850000004,
      "d": 67.30747916667315,
      "v": 61
    },
    {
      "midi": 63,
      "hit": false,
      "t": 78807.44275000005,
      "d": 48.07677083332965,
      "v": 77
    },
    {
      "midi": 63,
      "hit": false,
      "t": 78922.82700000005,
      "d": 288.460625000007,
      "v": 73
    },
    {
      "midi": 66,
      "hit": false,
      "t": 79038.21125000005,
      "d": 67.30747916667315,
      "v": 51
    },
    {
      "midi": 70,
      "hit": false,
      "t": 79153.59550000005,
      "d": 52.8844479166728,
      "v": 58
    },
    {
      "midi": 73,
      "hit": false,
      "t": 79153.59550000005,
      "d": 62.499802083329996,
      "v": 65
    },
    {
      "midi": 66,
      "hit": false,
      "t": 79268.97975000006,
      "d": 67.30747916667315,
      "v": 51
    },
    {
      "midi": 65,
      "hit": false,
      "t": 79384.36400000006,
      "d": 245.19153125000594,
      "v": 76
    },
    {
      "midi": 66,
      "hit": false,
      "t": 79499.74825000006,
      "d": 86.5381875000021,
      "v": 54
    },
    {
      "midi": 70,
      "hit": false,
      "t": 79615.13250000007,
      "d": 62.499802083329996,
      "v": 53
    },
    {
      "midi": 73,
      "hit": false,
      "t": 79615.13250000007,
      "d": 62.499802083329996,
      "v": 60
    },
    {
      "midi": 63,
      "hit": false,
      "t": 79730.51675000007,
      "d": 346.1527500000084,
      "v": 76
    },
    {
      "midi": 66,
      "hit": false,
      "t": 79961.28525000007,
      "d": 67.30747916667315,
      "v": 53
    },
    {
      "midi": 70,
      "hit": false,
      "t": 80076.66950000008,
      "d": 48.07677083332965,
      "v": 51
    },
    {
      "midi": 73,
      "hit": false,
      "t": 80076.66950000008,
      "d": 48.07677083332965,
      "v": 54
    },
    {
      "midi": 65,
      "hit": false,
      "t": 80192.05375000008,
      "d": 384.61416666668083,
      "v": 70
    },
    {
      "midi": 66,
      "hit": false,
      "t": 80422.82225000008,
      "d": 62.499802083329996,
      "v": 46
    },
    {
      "midi": 70,
      "hit": false,
      "t": 80538.20650000009,
      "d": 43.26909375000105,
      "v": 45
    },
    {
      "midi": 73,
      "hit": false,
      "t": 80538.20650000009,
      "d": 67.30747916667315,
      "v": 50
    },
    {
      "midi": 63,
      "hit": false,
      "t": 80653.59075000009,
      "d": 48.07677083332965,
      "v": 63
    },
    {
      "midi": 63,
      "hit": false,
      "t": 80768.9750000001,
      "d": 288.460625000007,
      "v": 59
    },
    {
      "midi": 66,
      "hit": false,
      "t": 80884.3592500001,
      "d": 67.30747916667315,
      "v": 41
    },
    {
      "midi": 70,
      "hit": false,
      "t": 80999.7435000001,
      "d": 52.8844479166728,
      "v": 47
    },
    {
      "midi": 73,
      "hit": false,
      "t": 80999.7435000001,
      "d": 62.499802083329996,
      "v": 53
    },
    {
      "midi": 66,
      "hit": false,
      "t": 81115.1277500001,
      "d": 67.30747916667315,
      "v": 42
    },
    {
      "midi": 65,
      "hit": false,
      "t": 81230.5120000001,
      "d": 245.19153125000594,
      "v": 61
    },
    {
      "midi": 66,
      "hit": false,
      "t": 81345.8962500001,
      "d": 86.5381875000021,
      "v": 43
    },
    {
      "midi": 70,
      "hit": false,
      "t": 81461.28050000011,
      "d": 62.499802083329996,
      "v": 42
    },
    {
      "midi": 73,
      "hit": false,
      "t": 81461.28050000011,
      "d": 62.499802083329996,
      "v": 47
    },
    {
      "midi": 63,
      "hit": false,
      "t": 81576.66475000011,
      "d": 346.1527500000084,
      "v": 61
    },
    {
      "midi": 66,
      "hit": false,
      "t": 81807.43325000012,
      "d": 67.30747916667315,
      "v": 42
    },
    {
      "midi": 70,
      "hit": false,
      "t": 81922.81750000012,
      "d": 48.07677083332965,
      "v": 40
    },
    {
      "midi": 73,
      "hit": false,
      "t": 81922.81750000012,
      "d": 48.07677083332965,
      "v": 42
    },
    {
      "midi": 65,
      "hit": false,
      "t": 82038.20175000012,
      "d": 384.61416666668083,
      "v": 55
    },
    {
      "midi": 66,
      "hit": false,
      "t": 82268.97025000013,
      "d": 62.499802083329996,
      "v": 37
    },
    {
      "midi": 70,
      "hit": false,
      "t": 82384.35450000013,
      "d": 43.26909375000105,
      "v": 34
    },
    {
      "midi": 73,
      "hit": false,
      "t": 82384.35450000013,
      "d": 67.30747916667315,
      "v": 38
    },
    {
      "midi": 63,
      "hit": false,
      "t": 82499.73875000014,
      "d": 48.07677083332965,
      "v": 48
    },
    {
      "midi": 63,
      "hit": false,
      "t": 82615.12300000014,
      "d": 288.460625000007,
      "v": 46
    },
    {
      "midi": 66,
      "hit": false,
      "t": 82730.50725000014,
      "d": 67.30747916667315,
      "v": 32
    },
    {
      "midi": 70,
      "hit": false,
      "t": 82845.89150000014,
      "d": 52.8844479166728,
      "v": 36
    },
    {
      "midi": 73,
      "hit": false,
      "t": 82845.89150000014,
      "d": 62.499802083329996,
      "v": 40
    },
    {
      "midi": 66,
      "hit": false,
      "t": 82961.27575000015,
      "d": 67.30747916667315,
      "v": 31
    },
    {
      "midi": 65,
      "hit": false,
      "t": 83076.66000000015,
      "d": 245.19153125000594,
      "v": 47
    },
    {
      "midi": 66,
      "hit": false,
      "t": 83192.04425000015,
      "d": 86.5381875000021,
      "v": 33
    },
    {
      "midi": 70,
      "hit": false,
      "t": 83307.42850000015,
      "d": 62.499802083329996,
      "v": 32
    },
    {
      "midi": 73,
      "hit": false,
      "t": 83307.42850000015,
      "d": 62.499802083329996,
      "v": 36
    },
    {
      "midi": 63,
      "hit": false,
      "t": 83422.81275000016,
      "d": 346.1527500000084,
      "v": 45
    },
    {
      "midi": 66,
      "hit": false,
      "t": 83653.58125000016,
      "d": 67.30747916667315,
      "v": 31
    },
    {
      "midi": 70,
      "hit": false,
      "t": 83768.96550000017,
      "d": 48.07677083332965,
      "v": 29
    },
    {
      "midi": 73,
      "hit": false,
      "t": 83768.96550000017,
      "d": 48.07677083332965,
      "v": 31
    },
    {
      "midi": 65,
      "hit": false,
      "t": 83884.34975000017,
      "d": 384.61416666668083,
      "v": 40
    },
    {
      "midi": 66,
      "hit": false,
      "t": 84115.11825000017,
      "d": 62.499802083329996,
      "v": 27
    },
    {
      "midi": 70,
      "hit": false,
      "t": 84230.50250000018,
      "d": 43.26909375000105,
      "v": 25
    },
    {
      "midi": 73,
      "hit": false,
      "t": 84230.50250000018,
      "d": 67.30747916667315,
      "v": 28
    },
    {
      "midi": 63,
      "hit": false,
      "t": 84345.88675000018,
      "d": 48.07677083332965,
      "v": 35
    },
    {
      "midi": 63,
      "hit": false,
      "t": 84461.27100000018,
      "d": 288.460625000007,
      "v": 32
    },
    {
      "midi": 66,
      "hit": false,
      "t": 84576.65525000019,
      "d": 67.30747916667315,
      "v": 23
    },
    {
      "midi": 70,
      "hit": false,
      "t": 84692.03950000019,
      "d": 52.8844479166728,
      "v": 25
    },
    {
      "midi": 73,
      "hit": false,
      "t": 84692.03950000019,
      "d": 62.499802083329996,
      "v": 28
    },
    {
      "midi": 66,
      "hit": false,
      "t": 84807.42375000019,
      "d": 67.30747916667315,
      "v": 22
    },
    {
      "midi": 65,
      "hit": false,
      "t": 84922.8080000002,
      "d": 245.19153125000594,
      "v": 31
    },
    {
      "midi": 66,
      "hit": false,
      "t": 85038.1922500002,
      "d": 86.5381875000021,
      "v": 22
    },
    {
      "midi": 70,
      "hit": false,
      "t": 85153.5765000002,
      "d": 62.499802083329996,
      "v": 22
    },
    {
      "midi": 73,
      "hit": false,
      "t": 85153.5765000002,
      "d": 62.499802083329996,
      "v": 24
    },
    {
      "midi": 63,
      "hit": false,
      "t": 85268.9607500002,
      "d": 346.1527500000084,
      "v": 30
    },
    {
      "midi": 66,
      "hit": false,
      "t": 85499.72925000021,
      "d": 67.30747916667315,
      "v": 20
    },
    {
      "midi": 70,
      "hit": false,
      "t": 85615.11350000021,
      "d": 48.07677083332965,
      "v": 19
    },
    {
      "midi": 73,
      "hit": false,
      "t": 85615.11350000021,
      "d": 48.07677083332965,
      "v": 20
    },
    {
      "midi": 65,
      "hit": false,
      "t": 85730.49775000021,
      "d": 384.61416666668083,
      "v": 25
    },
    {
      "midi": 66,
      "hit": false,
      "t": 85961.26625000022,
      "d": 62.499802083329996,
      "v": 16
    },
    {
      "midi": 70,
      "hit": false,
      "t": 86076.65050000022,
      "d": 43.26909375000105,
      "v": 15
    },
    {
      "midi": 73,
      "hit": false,
      "t": 86076.65050000022,
      "d": 67.30747916667315,
      "v": 17
    },
    {
      "midi": 63,
      "hit": false,
      "t": 86192.03475000022,
      "d": 48.07677083332965,
      "v": 21
    },
    {
      "midi": 63,
      "hit": false,
      "t": 86307.41900000023,
      "d": 288.460625000007,
      "v": 19
    },
    {
      "midi": 66,
      "hit": false,
      "t": 86422.80325000023,
      "d": 67.30747916667315,
      "v": 12
    },
    {
      "midi": 70,
      "hit": false,
      "t": 86538.18750000023,
      "d": 52.8844479166728,
      "v": 13
    },
    {
      "midi": 73,
      "hit": false,
      "t": 86538.18750000023,
      "d": 62.499802083329996,
      "v": 15
    },
    {
      "midi": 66,
      "hit": false,
      "t": 86653.57175000024,
      "d": 67.30747916667315,
      "v": 12
    },
    {
      "midi": 65,
      "hit": false,
      "t": 86768.95600000024,
      "d": 245.19153125000594,
      "v": 17
    },
    {
      "midi": 66,
      "hit": false,
      "t": 86884.34025000024,
      "d": 86.5381875000021,
      "v": 11
    },
    {
      "midi": 70,
      "hit": false,
      "t": 86999.72450000024,
      "d": 62.499802083329996,
      "v": 10
    },
    {
      "midi": 73,
      "hit": false,
      "t": 86999.72450000024,
      "d": 62.499802083329996,
      "v": 12
    },
    {
      "midi": 63,
      "hit": false,
      "t": 87115.10875000025,
      "d": 346.1527500000084,
      "v": 15
    },
    {
      "midi": 66,
      "hit": false,
      "t": 87345.87725000025,
      "d": 67.30747916667315,
      "v": 9
    },
    {
      "midi": 70,
      "hit": false,
      "t": 87461.26150000026,
      "d": 48.07677083332965,
      "v": 8
    },
    {
      "midi": 73,
      "hit": false,
      "t": 87461.26150000026,
      "d": 48.07677083332965,
      "v": 8
    },
    {
      "midi": 65,
      "hit": false,
      "t": 87576.64575000026,
      "d": 384.61416666668083,
      "v": 10
    },
    {
      "midi": 66,
      "hit": false,
      "t": 87807.41425000026,
      "d": 62.499802083329996,
      "v": 6
    },
    {
      "midi": 70,
      "hit": false,
      "t": 87922.79850000027,
      "d": 43.26909375000105,
      "v": 5
    },
    {
      "midi": 73,
      "hit": false,
      "t": 87922.79850000027,
      "d": 67.30747916667315,
      "v": 5
    },
    {
      "midi": 63,
      "hit": false,
      "t": 88038.18275000027,
      "d": 48.07677083332965,
      "v": 6
    },
    {
      "midi": 63,
      "hit": false,
      "t": 88153.56700000027,
      "d": 288.460625000007,
      "v": 6
    },
    {
      "midi": 66,
      "hit": false,
      "t": 88268.95125000027,
      "d": 67.30747916667315,
      "v": 3
    },
    {
      "midi": 70,
      "hit": false,
      "t": 88384.33550000028,
      "d": 52.8844479166728,
      "v": 3
    },
    {
      "midi": 73,
      "hit": false,
      "t": 88384.33550000028,
      "d": 62.499802083329996,
      "v": 3
    },
    {
      "midi": 66,
      "hit": false,
      "t": 88499.71975000028,
      "d": 67.30747916667315,
      "v": 2
    },
    {
      "midi": 65,
      "hit": false,
      "t": 88615.10400000028,
      "d": 245.19153125000594,
      "v": 31
    },
    {
      "midi": 66,
      "hit": false,
      "t": 88730.48825000029,
      "d": 86.5381875000021,
      "v": 22
    },
    {
      "midi": 70,
      "hit": false,
      "t": 88845.87250000029,
      "d": 62.499802083329996,
      "v": 22
    },
    {
      "midi": 73,
      "hit": false,
      "t": 88845.87250000029,
      "d": 62.499802083329996,
      "v": 24
    },
    {
      "midi": 63,
      "hit": false,
      "t": 88961.25675000029,
      "d": 346.1527500000084,
      "v": 30
    },
    {
      "midi": 66,
      "hit": false,
      "t": 89192.0252500003,
      "d": 67.30747916667315,
      "v": 20
    },
    {
      "midi": 70,
      "hit": false,
      "t": 89307.4095000003,
      "d": 48.07677083332965,
      "v": 19
    },
    {
      "midi": 73,
      "hit": false,
      "t": 89307.4095000003,
      "d": 48.07677083332965,
      "v": 20
    },
    {
      "midi": 65,
      "hit": false,
      "t": 89422.7937500003,
      "d": 384.61416666668083,
      "v": 25
    },
    {
      "midi": 66,
      "hit": false,
      "t": 89653.56225000031,
      "d": 62.499802083329996,
      "v": 16
    },
    {
      "midi": 70,
      "hit": false,
      "t": 89768.94650000031,
      "d": 43.26909375000105,
      "v": 15
    },
    {
      "midi": 73,
      "hit": false,
      "t": 89768.94650000031,
      "d": 67.30747916667315,
      "v": 17
    },
    {
      "midi": 63,
      "hit": false,
      "t": 89884.33075000031,
      "d": 48.07677083332965,
      "v": 21
    },
    {
      "midi": 63,
      "hit": false,
      "t": 89999.71500000032,
      "d": 288.460625000007,
      "v": 19
    },
    {
      "midi": 66,
      "hit": false,
      "t": 90115.09925000032,
      "d": 67.30747916667315,
      "v": 12
    },
    {
      "midi": 70,
      "hit": false,
      "t": 90230.48350000032,
      "d": 52.8844479166728,
      "v": 13
    },
    {
      "midi": 73,
      "hit": false,
      "t": 90230.48350000032,
      "d": 62.499802083329996,
      "v": 15
    },
    {
      "midi": 66,
      "hit": false,
      "t": 90345.86775000033,
      "d": 67.30747916667315,
      "v": 12
    },
    {
      "midi": 65,
      "hit": false,
      "t": 90461.25200000033,
      "d": 245.19153125000594,
      "v": 17
    },
    {
      "midi": 66,
      "hit": false,
      "t": 90576.63625000033,
      "d": 86.5381875000021,
      "v": 11
    },
    {
      "midi": 70,
      "hit": false,
      "t": 90692.02050000033,
      "d": 62.499802083329996,
      "v": 10
    },
    {
      "midi": 73,
      "hit": false,
      "t": 90692.02050000033,
      "d": 62.499802083329996,
      "v": 12
    },
    {
      "midi": 63,
      "hit": false,
      "t": 90807.40475000034,
      "d": 346.1527500000084,
      "v": 15
    },
    {
      "midi": 66,
      "hit": false,
      "t": 91038.17325000034,
      "d": 67.30747916667315,
      "v": 9
    },
    {
      "midi": 70,
      "hit": false,
      "t": 91153.55750000034,
      "d": 48.07677083332965,
      "v": 8
    },
    {
      "midi": 73,
      "hit": false,
      "t": 91153.55750000034,
      "d": 48.07677083332965,
      "v": 8
    },
    {
      "midi": 65,
      "hit": false,
      "t": 91268.94175000035,
      "d": 384.61416666668083,
      "v": 10
    },
    {
      "midi": 66,
      "hit": false,
      "t": 91499.71025000035,
      "d": 62.499802083329996,
      "v": 6
    },
    {
      "midi": 70,
      "hit": false,
      "t": 91615.09450000036,
      "d": 43.26909375000105,
      "v": 5
    },
    {
      "midi": 73,
      "hit": false,
      "t": 91615.09450000036,
      "d": 67.30747916667315,
      "v": 5
    },
    {
      "midi": 63,
      "hit": false,
      "t": 91730.47875000036,
      "d": 48.07677083332965,
      "v": 6
    },
    {
      "midi": 63,
      "hit": false,
      "t": 91845.86300000036,
      "d": 288.460625000007,
      "v": 6
    },
    {
      "midi": 66,
      "hit": false,
      "t": 91961.24725000036,
      "d": 67.30747916667315,
      "v": 3
    },
    {
      "midi": 70,
      "hit": false,
      "t": 92076.63150000037,
      "d": 52.8844479166728,
      "v": 3
    },
    {
      "midi": 73,
      "hit": false,
      "t": 92076.63150000037,
      "d": 62.499802083329996,
      "v": 3
    },
    {
      "midi": 66,
      "hit": false,
      "t": 92192.01575000037,
      "d": 67.30747916667315,
      "v": 2
    }
  ]
}