{
  "jsonPath": "Rock/Soft Rock/Air Supply/even-the-nights-are-better.json",
  "path": "Rock\\Soft Rock\\Air Supply\\Even The Nights Are Better.mid",
  "name": "Even The Nights Are Better",
  "difficulty": "Advanced",
  "bpm": 104.99992125005906,
  "notes": [
    {
      "midi": 67,
      "hit": false,
      "t": 4571.432,
      "d": 280.9525916666671,
      "v": 112
    },
    {
      "midi": 76,
      "hit": false,
      "t": 4571.432,
      "d": 414.28602500000034,
      "v": 112
    },
    {
      "midi": 48,
      "hit": false,
      "t": 4571.432,
      "d": 4514.289099999999,
      "v": 112
    },
    {
      "midi": 64,
      "hit": false,
      "t": 4576.193908333333,
      "d": 2280.9540916666674,
      "v": 55
    },
    {
      "midi": 76,
      "hit": false,
      "t": 4576.193908333333,
      "d": 2280.9540916666674,
      "v": 56
    },
    {
      "midi": 67,
      "hit": false,
      "t": 4585.7177249999995,
      "d": 2271.4302750000006,
      "v": 58
    },
    {
      "midi": 72,
      "hit": false,
      "t": 4585.7177249999995,
      "d": 2271.4302750000006,
      "v": 44
    },
    {
      "midi": 67,
      "hit": false,
      "t": 4857.1465,
      "d": 414.28602500000034,
      "v": 112
    },
    {
      "midi": 72,
      "hit": false,
      "t": 5142.861,
      "d": 380.952666666667,
      "v": 112
    },
    {
      "midi": 67,
      "hit": false,
      "t": 5428.5755,
      "d": 561.9051833333333,
      "v": 112
    },
    {
      "midi": 76,
      "hit": false,
      "t": 5428.5755,
      "d": 690.4767083333336,
      "v": 112
    },
    {
      "midi": 67,
      "hit": false,
      "t": 6000.0045,
      "d": 380.952666666667,
      "v": 112
    },
    {
      "midi": 72,
      "hit": false,
      "t": 6285.719,
      "d": 380.952666666667,
      "v": 112
    },
    {
      "midi": 76,
      "hit": false,
      "t": 6571.4335,
      "d": 442.8574749999998,
      "v": 112
    },
    {
      "midi": 77,
      "hit": false,
      "t": 6857.148,
      "d": 428.57175000000007,
      "v": 112
    },
    {
      "midi": 60,
      "hit": false,
      "t": 6857.148,
      "d": 2323.8112666666666,
      "v": 112
    },
    {
      "midi": 60,
      "hit": false,
      "t": 6885.7194500000005,
      "d": 2257.144549999999,
      "v": 74
    },
    {
      "midi": 65,
      "hit": false,
      "t": 6890.481358333333,
      "d": 2252.382641666666,
      "v": 69
    },
    {
      "midi": 68,
      "hit": false,
      "t": 6895.243266666666,
      "d": 2247.620733333333,
      "v": 56
    },
    {
      "midi": 68,
      "hit": false,
      "t": 7142.8625,
      "d": 400.0002999999997,
      "v": 112
    },
    {
      "midi": 72,
      "hit": false,
      "t": 7428.577,
      "d": 476.1908333333331,
      "v": 112
    },
    {
      "midi": 79,
      "hit": false,
      "t": 7714.2915,
      "d": 1009.524566666666,
      "v": 112
    },
    {
      "midi": 70,
      "hit": false,
      "t": 7714.2915,
      "d": 1023.8102916666658,
      "v": 112
    },
    {
      "midi": 68,
      "hit": false,
      "t": 8571.435,
      "d": 704.7624333333333,
      "v": 112
    },
    {
      "midi": 77,
      "hit": false,
      "t": 8571.435,
      "d": 719.048158333333,
      "v": 112
    },
    {
      "midi": 67,
      "hit": false,
      "t": 9142.864,
      "d": 280.9525916666662,
      "v": 112
    },
    {
      "midi": 76,
      "hit": false,
      "t": 9142.864,
      "d": 414.2860249999994,
      "v": 112
    },
    {
      "midi": 60,
      "hit": false,
      "t": 9171.435449999999,
      "d": 2257.144550000001,
      "v": 74
    },
    {
      "midi": 64,
      "hit": false,
      "t": 9176.197358333333,
      "d": 2252.382641666667,
      "v": 69
    },
    {
      "midi": 67,
      "hit": false,
      "t": 9180.959266666667,
      "d": 2247.620733333333,
      "v": 56
    },
    {
      "midi": 67,
      "hit": false,
      "t": 9428.5785,
      "d": 414.2860249999994,
      "v": 112
    },
    {
      "midi": 72,
      "hit": false,
      "t": 9714.293,
      "d": 400.0002999999997,
      "v": 112
    },
    {
      "midi": 67,
      "hit": false,
      "t": 10000.0075,
      "d": 561.9051833333324,
      "v": 112
    },
    {
      "midi": 76,
      "hit": false,
      "t": 10000.0075,
      "d": 704.7624333333315,
      "v": 112
    },
    {
      "midi": 67,
      "hit": false,
      "t": 10571.436499999998,
      "d": 457.14320000000043,
      "v": 112
    },
    {
      "midi": 72,
      "hit": false,
      "t": 10857.150999999998,
      "d": 352.38121666666666,
      "v": 112
    },
    {
      "midi": 76,
      "hit": false,
      "t": 11142.865499999998,
      "d": 457.14320000000043,
      "v": 112
    },
    {
      "midi": 77,
      "hit": false,
      "t": 11428.579999999998,
      "d": 366.6669416666664,
      "v": 112
    },
    {
      "midi": 60,
      "hit": false,
      "t": 11428.579999999998,
      "d": 2295.2398166666626,
      "v": 112
    },
    {
      "midi": 65,
      "hit": false,
      "t": 11433.341908333334,
      "d": 1257.1437999999998,
      "v": 56
    },
    {
      "midi": 72,
      "hit": false,
      "t": 11442.865725,
      "d": 1233.3342583333342,
      "v": 58
    },
    {
      "midi": 68,
      "hit": false,
      "t": 11714.294499999998,
      "d": 414.2860249999994,
      "v": 112
    },
    {
      "midi": 72,
      "hit": false,
      "t": 12000.008999999998,
      "d": 428.57174999999916,
      "v": 112
    },
    {
      "midi": 79,
      "hit": false,
      "t": 12285.723499999998,
      "d": 1057.1436499999982,
      "v": 112
    },
    {
      "midi": 70,
      "hit": false,
      "t": 12285.723499999998,
      "d": 1071.429374999998,
      "v": 112
    },
    {
      "midi": 68,
      "hit": false,
      "t": 13142.866999999997,
      "d": 561.9051833333324,
      "v": 112
    },
    {
      "midi": 77,
      "hit": false,
      "t": 13142.866999999997,
      "d": 561.9051833333324,
      "v": 112
    },
    {
      "midi": 65,
      "hit": false,
      "t": 13142.867,
      "d": 228.5715999999993,
      "v": 57
    },
    {
      "midi": 65,
      "hit": false,
      "t": 13428.5815,
      "d": 285.71450000000004,
      "v": 70
    },
    {
      "midi": 48,
      "hit": false,
      "t": 13714.295999999995,
      "d": 19.04763333333176,
      "v": 112
    },
    {
      "midi": 67,
      "hit": false,
      "t": 13714.295999999995,
      "d": 280.9525916666644,
      "v": 112
    },
    {
      "midi": 76,
      "hit": false,
      "t": 13714.295999999995,
      "d": 390.476483333332,
      "v": 112
    },
    {
      "midi": 64,
      "hit": false,
      "t": 13719.057908333334,
      "d": 2280.9540916666647,
      "v": 55
    },
    {
      "midi": 76,
      "hit": false,
      "t": 13719.057908333334,
      "d": 2280.9540916666647,
      "v": 56
    },
    {
      "midi": 67,
      "hit": false,
      "t": 13728.581725,
      "d": 2271.430274999999,
      "v": 58
    },
    {
      "midi": 72,
      "hit": false,
      "t": 13728.581725,
      "d": 2271.430274999999,
      "v": 44
    },
    {
      "midi": 67,
      "hit": false,
      "t": 14000.010499999993,
      "d": 380.9526666666661,
      "v": 112
    },
    {
      "midi": 72,
      "hit": false,
      "t": 14285.724999999993,
      "d": 366.6669416666664,
      "v": 112
    },
    {
      "midi": 79,
      "hit": false,
      "t": 14571.439499999993,
      "d": 942.8578500000003,
      "v": 112
    },
    {
      "midi": 76,
      "hit": false,
      "t": 14571.439499999993,
      "d": 952.3816666666662,
      "v": 112
    },
    {
      "midi": 72,
      "hit": false,
      "t": 15428.582999999993,
      "d": 380.9526666666661,
      "v": 112
    },
    {
      "midi": 76,
      "hit": false,
      "t": 15714.297499999993,
      "d": 280.9525916666662,
      "v": 112
    },
    {
      "midi": 67,
      "hit": false,
      "t": 16000.011999999993,
      "d": 280.9525916666662,
      "v": 112
    },
    {
      "midi": 75,
      "hit": false,
      "t": 16000.011999999993,
      "d": 280.9525916666662,
      "v": 112
    },
    {
      "midi": 51,
      "hit": false,
      "t": 16000.011999999993,
      "d": 747.6196083333289,
      "v": 112
    },
    {
      "midi": 55,
      "hit": false,
      "t": 16009.535816666665,
      "d": 228.5715999999993,
      "v": 59
    },
    {
      "midi": 58,
      "hit": false,
      "t": 16028.583449999998,
      "d": 209.52396666666573,
      "v": 40
    },
    {
      "midi": 63,
      "hit": false,
      "t": 16033.345358333332,
      "d": 204.76205833333188,
      "v": 36
    },
    {
      "midi": 67,
      "hit": false,
      "t": 16042.869174999998,
      "d": 195.238241666666,
      "v": 44
    },
    {
      "midi": 70,
      "hit": false,
      "t": 16285.726499999993,
      "d": 442.85747499999707,
      "v": 112
    },
    {
      "midi": 67,
      "hit": false,
      "t": 16571.44099999999,
      "d": 414.2860249999976,
      "v": 112
    },
    {
      "midi": 65,
      "hit": false,
      "t": 16857.15549999999,
      "d": 561.9051833333324,
      "v": 112
    },
    {
      "midi": 74,
      "hit": false,
      "t": 16857.15549999999,
      "d": 647.6195333333344,
      "v": 112
    },
    {
      "midi": 50,
      "hit": false,
      "t": 16857.15549999999,
      "d": 952.3816666666717,
      "v": 112
    },
    {
      "midi": 69,
      "hit": false,
      "t": 16876.20313333333,
      "d": 838.0958666666666,
      "v": 57
    },
    {
      "midi": 65,
      "hit": false,
      "t": 16900.012674999994,
      "d": 814.2863250000009,
      "v": 51
    },
    {
      "midi": 57,
      "hit": false,
      "t": 16909.536491666662,
      "d": 804.7625083333332,
      "v": 60
    },
    {
      "midi": 62,
      "hit": false,
      "t": 16909.536491666662,
      "d": 804.7625083333332,
      "v": 74
    },
    {
      "midi": 65,
      "hit": false,
      "t": 17428.58449999999,
      "d": 366.66694166667,
      "v": 112
    },
    {
      "midi": 70,
      "hit": false,
      "t": 17714.29899999999,
      "d": 390.47648333333564,
      "v": 112
    },
    {
      "midi": 46,
      "hit": false,
      "t": 17714.29899999999,
      "d": 414.28602500000125,
      "v": 112
    },
    {
      "midi": 58,
      "hit": false,
      "t": 17723.822816666663,
      "d": 561.9051833333324,
      "v": 74
    },
    {
      "midi": 62,
      "hit": false,
      "t": 17742.870449999995,
      "d": 542.8575500000006,
      "v": 55
    },
    {
      "midi": 67,
      "hit": false,
      "t": 17747.63235833333,
      "d": 538.0956416666668,
      "v": 51
    },
    {
      "midi": 70,
      "hit": false,
      "t": 17757.156174999996,
      "d": 528.5718249999991,
      "v": 59
    },
    {
      "midi": 43,
      "hit": false,
      "t": 18000.013499999994,
      "d": 428.57174999999916,
      "v": 112
    },
    {
      "midi": 74,
      "hit": false,
      "t": 18000.013499999994,
      "d": 476.190833333334,
      "v": 112
    },
    {
      "midi": 64,
      "hit": false,
      "t": 18285.727999999992,
      "d": 342.8574000000008,
      "v": 112
    },
    {
      "midi": 67,
      "hit": false,
      "t": 18285.727999999992,
      "d": 1271.4295249999996,
      "v": 112
    },
    {
      "midi": 64,
      "hit": false,
      "t": 18285.727999999996,
      "d": 2285.7160000000003,
      "v": 55
    },
    {
      "midi": 67,
      "hit": false,
      "t": 18319.06135833333,
      "d": 2252.382641666667,
      "v": 57
    },
    {
      "midi": 72,
      "hit": false,
      "t": 18357.156624999996,
      "d": 2214.287375,
      "v": 55
    },
    {
      "midi": 55,
      "hit": false,
      "t": 18571.442499999994,
      "d": 442.85747499999707,
      "v": 112
    },
    {
      "midi": 60,
      "hit": false,
      "t": 18857.156999999992,
      "d": 390.476483333332,
      "v": 112
    },
    {
      "midi": 64,
      "hit": false,
      "t": 19142.87149999999,
      "d": 671.429075,
      "v": 112
    },
    {
      "midi": 55,
      "hit": false,
      "t": 19714.30049999999,
      "d": 428.57174999999916,
      "v": 112
    },
    {
      "midi": 60,
      "hit": false,
      "t": 20000.01499999999,
      "d": 390.47648333333564,
      "v": 112
    },
    {
      "midi": 64,
      "hit": false,
      "t": 20285.72949999999,
      "d": 414.28602500000125,
      "v": 112
    },
    {
      "midi": 65,
      "hit": false,
      "t": 20571.443999999992,
      "d": 280.9525916666644,
      "v": 112
    },
    {
      "midi": 68,
      "hit": false,
      "t": 20571.443999999992,
      "d": 280.9525916666644,
      "v": 112
    },
    {
      "midi": 48,
      "hit": false,
      "t": 20571.443999999992,
      "d": 2323.811266666664,
      "v": 112
    },
    {
      "midi": 60,
      "hit": false,
      "t": 20571.443999999996,
      "d": 685.7148000000016,
      "v": 61
    },
    {
      "midi": 65,
      "hit": false,
      "t": 20571.443999999996,
      "d": 1528.572575000002,
      "v": 69
    },
    {
      "midi": 65,
      "hit": false,
      "t": 20857.15849999999,
      "d": 280.952591666668,
      "v": 112
    },
    {
      "midi": 68,
      "hit": false,
      "t": 20857.15849999999,
      "d": 280.952591666668,
      "v": 112
    },
    {
      "midi": 65,
      "hit": false,
      "t": 21142.872999999992,
      "d": 280.952591666668,
      "v": 112
    },
    {
      "midi": 68,
      "hit": false,
      "t": 21142.872999999992,
      "d": 280.952591666668,
      "v": 112
    },
    {
      "midi": 65,
      "hit": false,
      "t": 21428.587499999994,
      "d": 404.7622083333299,
      "v": 112
    },
    {
      "midi": 68,
      "hit": false,
      "t": 21428.587499999994,
      "d": 466.6670166666627,
      "v": 112
    },
    {
      "midi": 70,
      "hit": false,
      "t": 21714.301999999992,
      "d": 671.4290749999964,
      "v": 112
    },
    {
      "midi": 67,
      "hit": false,
      "t": 21714.301999999992,
      "d": 685.7147999999979,
      "v": 112
    },
    {
      "midi": 65,
      "hit": false,
      "t": 22285.73099999999,
      "d": 414.28602500000125,
      "v": 112
    },
    {
      "midi": 68,
      "hit": false,
      "t": 22285.73099999999,
      "d": 414.28602500000125,
      "v": 112
    },
    {
      "midi": 72,
      "hit": false,
      "t": 22328.588174999997,
      "d": 247.6192333333347,
      "v": 81
    },
    {
      "midi": 64,
      "hit": false,
      "t": 22571.44549999999,
      "d": 661.9052583333323,
      "v": 112
    },
    {
      "midi": 67,
      "hit": false,
      "t": 22571.44549999999,
      "d": 1566.6678416666618,
      "v": 112
    },
    {
      "midi": 36,
      "hit": false,
      "t": 22857.15999999999,
      "d": 28.57144999999946,
      "v": 112
    },
    {
      "midi": 60,
      "hit": false,
      "t": 22885.73145,
      "d": 2257.144550000001,
      "v": 74
    },
    {
      "midi": 64,
      "hit": false,
      "t": 22890.493358333333,
      "d": 2252.382641666667,
      "v": 69
    },
    {
      "midi": 67,
      "hit": false,
      "t": 22895.255266666667,
      "d": 2247.620733333333,
      "v": 56
    },
    {
      "midi": 55,
      "hit": false,
      "t": 23142.87449999999,
      "d": 414.2860249999976,
      "v": 112
    },
    {
      "midi": 60,
      "hit": false,
      "t": 23428.58899999999,
      "d": 442.85747499999707,
      "v": 112
    },
    {
      "midi": 64,
      "hit": false,
      "t": 23714.303499999987,
      "d": 647.6195333333344,
      "v": 112
    },
    {
      "midi": 55,
      "hit": false,
      "t": 24285.732499999987,
      "d": 404.76220833333355,
      "v": 112
    },
    {
      "midi": 60,
      "hit": false,
      "t": 24571.44699999999,
      "d": 452.38129166666477,
      "v": 112
    },
    {
      "midi": 64,
      "hit": false,
      "t": 24857.161499999987,
      "d": 404.7622083333299,
      "v": 112
    },
    {
      "midi": 65,
      "hit": false,
      "t": 25142.875999999986,
      "d": 280.9525916666644,
      "v": 112
    },
    {
      "midi": 68,
      "hit": false,
      "t": 25142.875999999986,
      "d": 280.9525916666644,
      "v": 112
    },
    {
      "midi": 48,
      "hit": false,
      "t": 25142.875999999986,
      "d": 2300.001725000002,
      "v": 112
    },
    {
      "midi": 65,
      "hit": false,
      "t": 25147.637908333334,
      "d": 1257.1438000000016,
      "v": 56
    },
    {
      "midi": 72,
      "hit": false,
      "t": 25157.161725,
      "d": 1233.3342583333324,
      "v": 58
    },
    {
      "midi": 65,
      "hit": false,
      "t": 25428.590499999984,
      "d": 280.952591666668,
      "v": 112
    },
    {
      "midi": 68,
      "hit": false,
      "t": 25428.590499999984,
      "d": 280.952591666668,
      "v": 112
    },
    {
      "midi": 65,
      "hit": false,
      "t": 25714.304999999986,
      "d": 280.952591666668,
      "v": 112
    },
    {
      "midi": 68,
      "hit": false,
      "t": 25714.304999999986,
      "d": 280.952591666668,
      "v": 112
    },
    {
      "midi": 68,
      "hit": false,
      "t": 26000.019499999988,
      "d": 561.9051833333324,
      "v": 112
    },
    {
      "midi": 72,
      "hit": false,
      "t": 26000.019499999988,
      "d": 561.9051833333324,
      "v": 112
    },
    {
      "midi": 65,
      "hit": false,
      "t": 26000.019499999988,
      "d": 695.2386166666656,
      "v": 112
    },
    {
      "midi": 72,
      "hit": false,
      "t": 26571.448499999988,
      "d": 561.9051833333324,
      "v": 112
    },
    {
      "midi": 76,
      "hit": false,
      "t": 26571.448499999988,
      "d": 561.9051833333324,
      "v": 112
    },
    {
      "midi": 68,
      "hit": false,
      "t": 26571.448499999988,
      "d": 723.8100666666651,
      "v": 112
    },
    {
      "midi": 65,
      "hit": false,
      "t": 26857.163000000004,
      "d": 228.5715999999993,
      "v": 57
    },
    {
      "midi": 72,
      "hit": false,
      "t": 27142.877499999988,
      "d": 647.6195333333344,
      "v": 112
    },
    {
      "midi": 76,
      "hit": false,
      "t": 27142.877499999988,
      "d": 647.6195333333344,
      "v": 112
    },
    {
      "midi": 67,
      "hit": false,
      "t": 27142.877499999988,
      "d": 671.429075,
      "v": 112
    },
    {
      "midi": 65,
      "hit": false,
      "t": 27142.877500000002,
      "d": 285.7144999999982,
      "v": 70
    },
    {
      "midi": 64,
      "hit": false,
      "t": 27714.306499999988,
      "d": 404.7622083333299,
      "v": 112
    },
    {
      "midi": 67,
      "hit": false,
      "t": 28000.020999999986,
      "d": 404.7622083333299,
      "v": 112
    },
    {
      "midi": 72,
      "hit": false,
      "t": 28285.735499999984,
      "d": 623.8099916666652,
      "v": 112
    },
    {
      "midi": 76,
      "hit": false,
      "t": 28590.497633333336,
      "d": 804.7625083333296,
      "v": 81
    },
    {
      "midi": 67,
      "hit": false,
      "t": 28857.164499999984,
      "d": 414.2860249999976,
      "v": 112
    },
    {
      "midi": 72,
      "hit": false,
      "t": 28866.688316666667,
      "d": 552.3813666666683,
      "v": 63
    },
    {
      "midi": 72,
      "hit": false,
      "t": 29142.878999999983,
      "d": 380.9526666666643,
      "v": 112
    },
    {
      "midi": 76,
      "hit": false,
      "t": 29142.878999999983,
      "d": 390.476483333332,
      "v": 112
    },
    {
      "midi": 64,
      "hit": false,
      "t": 29142.879,
      "d": 261.9049583333326,
      "v": 62
    },
    {
      "midi": 71,
      "hit": false,
      "t": 29428.59349999998,
      "d": 647.6195333333344,
      "v": 112
    },
    {
      "midi": 48,
      "hit": false,
      "t": 29714.307999999983,
      "d": 2290.477908333334,
      "v": 112
    },
    {
      "midi": 62,
      "hit": false,
      "t": 30000.02249999998,
      "d": 357.1431250000023,
      "v": 112
    },
    {
      "midi": 67,
      "hit": false,
      "t": 30285.736999999983,
      "d": 366.66694166667,
      "v": 112
    },
    {
      "midi": 74,
      "hit": false,
      "t": 30571.451499999985,
      "d": 352.3812166666685,
      "v": 112
    },
    {
      "midi": 71,
      "hit": false,
      "t": 30571.451499999985,
      "d": 661.9052583333323,
      "v": 112
    },
    {
      "midi": 79,
      "hit": false,
      "t": 30876.213633333333,
      "d": 804.7625083333296,
      "v": 81
    },
    {
      "midi": 67,
      "hit": false,
      "t": 31142.880499999985,
      "d": 380.9526666666643,
      "v": 112
    },
    {
      "midi": 74,
      "hit": false,
      "t": 31152.404316666663,
      "d": 552.3813666666683,
      "v": 63
    },
    {
      "midi": 72,
      "hit": false,
      "t": 31428.594999999983,
      "d": 280.9525916666644,
      "v": 112
    },
    {
      "midi": 76,
      "hit": false,
      "t": 31428.594999999983,
      "d": 428.57174999999916,
      "v": 112
    },
    {
      "midi": 67,
      "hit": false,
      "t": 31428.594999999998,
      "d": 261.9049583333326,
      "v": 62
    },
    {
      "midi": 69,
      "hit": false,
      "t": 31714.30949999998,
      "d": 685.7148000000016,
      "v": 112
    },
    {
      "midi": 72,
      "hit": false,
      "t": 31714.30949999998,
      "d": 1552.3821166666676,
      "v": 112
    },
    {
      "midi": 36,
      "hit": false,
      "t": 32000.023999999983,
      "d": 28.57144999999946,
      "v": 112
    },
    {
      "midi": 60,
      "hit": false,
      "t": 32285.73849999998,
      "d": 390.47648333333564,
      "v": 112
    },
    {
      "midi": 65,
      "hit": false,
      "t": 32571.452999999983,
      "d": 428.57174999999916,
      "v": 112
    },
    {
      "midi": 69,
      "hit": false,
      "t": 32857.16749999998,
      "d": 671.4290750000073,
      "v": 112
    },
    {
      "midi": 77,
      "hit": false,
      "t": 33161.929633333326,
      "d": 804.7625083333405,
      "v": 81
    },
    {
      "midi": 65,
      "hit": false,
      "t": 33428.596499999985,
      "d": 380.9526666666716,
      "v": 112
    },
    {
      "midi": 72,
      "hit": false,
      "t": 33438.12031666666,
      "d": 552.3813666666756,
      "v": 63
    },
    {
      "midi": 69,
      "hit": false,
      "t": 33714.31099999999,
      "d": 390.476483333332,
      "v": 112
    },
    {
      "midi": 65,
      "hit": false,
      "t": 33714.310999999994,
      "d": 261.9049583333399,
      "v": 62
    },
    {
      "midi": 72,
      "hit": false,
      "t": 34000.02549999999,
      "d": 357.14312499999505,
      "v": 112
    },
    {
      "midi": 67,
      "hit": false,
      "t": 34285.73999999998,
      "d": 390.476483333332,
      "v": 112
    },
    {
      "midi": 75,
      "hit": false,
      "t": 34285.73999999998,
      "d": 514.2860999999975,
      "v": 112
    },
    {
      "midi": 51,
      "hit": false,
      "t": 34285.73999999998,
      "d": 757.1434249999947,
      "v": 112
    },
    {
      "midi": 55,
      "hit": false,
      "t": 34295.26381666667,
      "d": 228.57160000000295,
      "v": 59
    },
    {
      "midi": 58,
      "hit": false,
      "t": 34314.31145000001,
      "d": 209.52396666666755,
      "v": 40
    },
    {
      "midi": 63,
      "hit": false,
      "t": 34319.07335833334,
      "d": 204.7620583333337,
      "v": 36
    },
    {
      "midi": 67,
      "hit": false,
      "t": 34328.59717500001,
      "d": 195.238241666666,
      "v": 44
    },
    {
      "midi": 70,
      "hit": false,
      "t": 34571.454499999985,
      "d": 404.76220833332627,
      "v": 112
    },
    {
      "midi": 67,
      "hit": false,
      "t": 34857.16899999998,
      "d": 414.28602500000125,
      "v": 112
    },
    {
      "midi": 75,
      "hit": false,
      "t": 34857.16899999998,
      "d": 442.85747500000434,
      "v": 112
    },
    {
      "midi": 65,
      "hit": false,
      "t": 35142.88349999998,
      "d": 928.572125000006,
      "v": 112
    },
    {
      "midi": 50,
      "hit": false,
      "t": 35142.88349999998,
      "d": 952.3816666666753,
      "v": 112
    },
    {
      "midi": 74,
      "hit": false,
      "t": 35142.88349999998,
      "d": 952.3816666666753,
      "v": 112
    },
    {
      "midi": 69,
      "hit": false,
      "t": 35161.931133333346,
      "d": 838.0958666666702,
      "v": 57
    },
    {
      "midi": 65,
      "hit": false,
      "t": 35185.740675000015,
      "d": 814.2863250000009,
      "v": 51
    },
    {
      "midi": 57,
      "hit": false,
      "t": 35195.26449166668,
      "d": 804.7625083333332,
      "v": 60
    },
    {
      "midi": 62,
      "hit": false,
      "t": 35195.26449166668,
      "d": 804.7625083333332,
      "v": 74
    },
    {
      "midi": 46,
      "hit": false,
      "t": 36000.02699999999,
      "d": 404.76220833333355,
      "v": 112
    },
    {
      "midi": 70,
      "hit": false,
      "t": 36000.02699999999,
      "d": 404.76220833333355,
      "v": 112
    },
    {
      "midi": 62,
      "hit": false,
      "t": 36000.02699999999,
      "d": 614.2861750000011,
      "v": 112
    },
    {
      "midi": 58,
      "hit": false,
      "t": 36009.550816666684,
      "d": 561.905183333336,
      "v": 74
    },
    {
      "midi": 62,
      "hit": false,
      "t": 36028.59845000002,
      "d": 542.8575500000006,
      "v": 55
    },
    {
      "midi": 67,
      "hit": false,
      "t": 36033.36035833335,
      "d": 538.0956416666668,
      "v": 51
    },
    {
      "midi": 70,
      "hit": false,
      "t": 36042.88417500002,
      "d": 528.5718249999991,
      "v": 59
    },
    {
      "midi": 67,
      "hit": false,
      "t": 36285.74149999999,
      "d": 280.952591666668,
      "v": 112
    },
    {
      "midi": 43,
      "hit": false,
      "t": 36285.74149999999,
      "d": 466.6670166666663,
      "v": 112
    },
    {
      "midi": 64,
      "hit": false,
      "t": 36571.45599999999,
      "d": 380.9526666666643,
      "v": 112
    },
    {
      "midi": 67,
      "hit": false,
      "t": 36571.45599999999,
      "d": 1238.0961666666626,
      "v": 112
    },
    {
      "midi": 36,
      "hit": false,
      "t": 36571.45599999999,
      "d": 4566.670091666681,
      "v": 112
    },
    {
      "midi": 64,
      "hit": false,
      "t": 36571.45600000002,
      "d": 2285.7160000000003,
      "v": 55
    },
    {
      "midi": 67,
      "hit": false,
      "t": 36604.78935833336,
      "d": 2252.3826416666634,
      "v": 57
    },
    {
      "midi": 72,
      "hit": false,
      "t": 36642.88462500002,
      "d": 2214.287375,
      "v": 55
    },
    {
      "midi": 55,
      "hit": false,
      "t": 36857.170499999986,
      "d": 404.76220833333355,
      "v": 112
    },
    {
      "midi": 60,
      "hit": false,
      "t": 37142.88499999999,
      "d": 414.28602500000125,
      "v": 112
    },
    {
      "midi": 64,
      "hit": false,
      "t": 37428.59949999999,
      "d": 647.6195333333308,
      "v": 112
    },
    {
      "midi": 55,
      "hit": false,
      "t": 38000.028499999986,
      "d": 280.952591666668,
      "v": 112
    },
    {
      "midi": 60,
      "hit": false,
      "t": 38285.74299999999,
      "d": 280.952591666668,
      "v": 112
    },
    {
      "midi": 64,
      "hit": false,
      "t": 38571.45749999999,
      "d": 357.1431250000023,
      "v": 112
    },
    {
      "midi": 65,
      "hit": false,
      "t": 38857.17199999999,
      "d": 280.952591666668,
      "v": 112
    },
    {
      "midi": 68,
      "hit": false,
      "t": 38857.17199999999,
      "d": 280.952591666668,
      "v": 112
    },
    {
      "midi": 48,
      "hit": false,
      "t": 38857.17199999999,
      "d": 2314.287450000018,
      "v": 112
    },
    {
      "midi": 65,
      "hit": false,
      "t": 39142.88649999999,
      "d": 280.952591666668,
      "v": 112
    },
    {
      "midi": 68,
      "hit": false,
      "t": 39142.88649999999,
      "d": 280.952591666668,
      "v": 112
    },
    {
      "midi": 65,
      "hit": false,
      "t": 39428.600999999995,
      "d": 280.952591666668,
      "v": 112
    },
    {
      "midi": 68,
      "hit": false,
      "t": 39428.600999999995,
      "d": 280.952591666668,
      "v": 112
    },
    {
      "midi": 68,
      "hit": false,
      "t": 39714.3155,
      "d": 280.952591666668,
      "v": 112
    },
    {
      "midi": 65,
      "hit": false,
      "t": 39714.3155,
      "d": 380.9526666666716,
      "v": 112
    },
    {
      "midi": 70,
      "hit": false,
      "t": 40000.03,
      "d": 647.619533333338,
      "v": 112
    },
    {
      "midi": 67,
      "hit": false,
      "t": 40000.03,
      "d": 695.2386166666693,
      "v": 112
    },
    {
      "midi": 77,
      "hit": false,
      "t": 40019.077633333356,
      "d": 804.7625083333405,
      "v": 81
    },
    {
      "midi": 72,
      "hit": false,
      "t": 40295.26831666669,
      "d": 552.3813666666756,
      "v": 63
    },
    {
      "midi": 68,
      "hit": false,
      "t": 40571.459,
      "d": 442.85747500000434,
      "v": 112
    },
    {
      "midi": 65,
      "hit": false,
      "t": 40571.459,
      "d": 452.38129166667204,
      "v": 112
    },
    {
      "midi": 65,
      "hit": false,
      "t": 40571.459000000024,
      "d": 261.9049583333399,
      "v": 62
    },
    {
      "midi": 64,
      "hit": false,
      "t": 40857.173500000004,
      "d": 661.9052583333396,
      "v": 112
    },
    {
      "midi": 67,
      "hit": false,
      "t": 40857.173500000004,
      "d": 1528.5725750000056,
      "v": 112
    },
    {
      "midi": 36,
      "hit": false,
      "t": 41142.888000000006,
      "d": 4528.574825000018,
      "v": 112
    },
    {
      "midi": 55,
      "hit": false,
      "t": 41428.60250000001,
      "d": 414.28602500000125,
      "v": 112
    },
    {
      "midi": 60,
      "hit": false,
      "t": 41714.31700000001,
      "d": 366.66694166667,
      "v": 112
    },
    {
      "midi": 64,
      "hit": false,
      "t": 42000.03150000001,
      "d": 695.238616666662,
      "v": 112
    },
    {
      "midi": 76,
      "hit": false,
      "t": 42304.79363333337,
      "d": 804.7625083333405,
      "v": 81
    },
    {
      "midi": 55,
      "hit": false,
      "t": 42571.46050000001,
      "d": 428.5717500000028,
      "v": 112
    },
    {
      "midi": 72,
      "hit": false,
      "t": 42580.984316666705,
      "d": 552.3813666666756,
      "v": 63
    },
    {
      "midi": 60,
      "hit": false,
      "t": 42857.17500000001,
      "d": 404.76220833333355,
      "v": 112
    },
    {
      "midi": 64,
      "hit": false,
      "t": 42857.17500000004,
      "d": 261.9049583333399,
      "v": 62
    },
    {
      "midi": 64,
      "hit": false,
      "t": 43142.88950000001,
      "d": 404.76220833333355,
      "v": 112
    },
    {
      "midi": 65,
      "hit": false,
      "t": 43428.604000000014,
      "d": 280.952591666668,
      "v": 112
    },
    {
      "midi": 68,
      "hit": false,
      "t": 43428.604000000014,
      "d": 280.952591666668,
      "v": 112
    },
    {
      "midi": 48,
      "hit": false,
      "t": 43428.604000000014,
      "d": 2314.2874500000107,
      "v": 112
    },
    {
      "midi": 65,
      "hit": false,
      "t": 43433.365908333384,
      "d": 2280.9540916666665,
      "v": 55
    },
    {
      "midi": 77,
      "hit": false,
      "t": 43433.365908333384,
      "d": 2280.9540916666665,
      "v": 56
    },
    {
      "midi": 68,
      "hit": false,
      "t": 43442.88972500005,
      "d": 2271.430274999999,
      "v": 58
    },
    {
      "midi": 72,
      "hit": false,
      "t": 43442.88972500005,
      "d": 2271.430274999999,
      "v": 44
    },
    {
      "midi": 65,
      "hit": false,
      "t": 43714.318500000016,
      "d": 280.952591666668,
      "v": 112
    },
    {
      "midi": 68,
      "hit": false,
      "t": 43714.318500000016,
      "d": 280.952591666668,
      "v": 112
    },
    {
      "midi": 65,
      "hit": false,
      "t": 44000.03300000002,
      "d": 280.952591666668,
      "v": 112
    },
    {
      "midi": 68,
      "hit": false,
      "t": 44000.03300000002,
      "d": 280.952591666668,
      "v": 112
    },
    {
      "midi": 65,
      "hit": false,
      "t": 44285.74750000002,
      "d": 280.952591666668,
      "v": 112
    },
    {
      "midi": 68,
      "hit": false,
      "t": 44285.74750000002,
      "d": 280.952591666668,
      "v": 112
    },
    {
      "midi": 68,
      "hit": false,
      "t": 44571.46200000002,
      "d": 280.952591666668,
      "v": 112
    },
    {
      "midi": 72,
      "hit": false,
      "t": 44571.46200000002,
      "d": 280.952591666668,
      "v": 112
    },
    {
      "midi": 65,
      "hit": false,
      "t": 44571.46200000002,
      "d": 390.476483333332,
      "v": 112
    },
    {
      "midi": 72,
      "hit": false,
      "t": 44857.17650000002,
      "d": 561.9051833333288,
      "v": 112
    },
    {
      "midi": 76,
      "hit": false,
      "t": 44857.17650000002,
      "d": 561.9051833333288,
      "v": 112
    },
    {
      "midi": 68,
      "hit": false,
      "t": 44857.17650000002,
      "d": 671.429075,
      "v": 112
    },
    {
      "midi": 67,
      "hit": false,
      "t": 45428.60550000002,
      "d": 661.9052583333396,
      "v": 112
    },
    {
      "midi": 72,
      "hit": false,
      "t": 45428.60550000002,
      "d": 661.9052583333396,
      "v": 112
    },
    {
      "midi": 76,
      "hit": false,
      "t": 45428.60550000002,
      "d": 709.5243416666708,
      "v": 112
    },
    {
      "midi": 64,
      "hit": false,
      "t": 46000.03450000002,
      "d": 357.1431250000023,
      "v": 112
    },
    {
      "midi": 64,
      "hit": false,
      "t": 46176.22510833338,
      "d": 1823.8108916666606,
      "v": 58
    },
    {
      "midi": 67,
      "hit": false,
      "t": 46285.749000000025,
      "d": 442.85747500000434,
      "v": 112
    },
    {
      "midi": 67,
      "hit": false,
      "t": 46319.082358333384,
      "d": 1680.9536416666597,
      "v": 62
    },
    {
      "midi": 72,
      "hit": false,
      "t": 46357.17762500005,
      "d": 1642.8583749999962,
      "v": 60
    },
    {
      "midi": 72,
      "hit": false,
      "t": 46571.46350000003,
      "d": 561.905183333336,
      "v": 112
    },
    {
      "midi": 72,
      "hit": false,
      "t": 47142.89250000003,
      "d": 390.476483333332,
      "v": 112
    },
    {
      "midi": 76,
      "hit": false,
      "t": 47142.89250000003,
      "d": 428.5717499999955,
      "v": 112
    },
    {
      "midi": 74,
      "hit": false,
      "t": 47428.60700000003,
      "d": 280.95259166666074,
      "v": 112
    },
    {
      "midi": 77,
      "hit": false,
      "t": 47428.60700000003,
      "d": 414.28602499999397,
      "v": 112
    },
    {
      "midi": 71,
      "hit": false,
      "t": 47714.32150000003,
      "d": 671.4290750000073,
      "v": 112
    },
    {
      "midi": 48,
      "hit": false,
      "t": 48000.03600000003,
      "d": 2314.287450000018,
      "v": 112
    },
    {
      "midi": 67,
      "hit": false,
      "t": 48004.79790833338,
      "d": 2280.9540916666665,
      "v": 55
    },
    {
      "midi": 79,
      "hit": false,
      "t": 48004.79790833338,
      "d": 2280.9540916666665,
      "v": 56
    },
    {
      "midi": 71,
      "hit": false,
      "t": 48014.321725000045,
      "d": 2271.430274999999,
      "v": 58
    },
    {
      "midi": 74,
      "hit": false,
      "t": 48014.321725000045,
      "d": 2271.430274999999,
      "v": 44
    },
    {
      "midi": 62,
      "hit": false,
      "t": 48285.75050000003,
      "d": 404.76220833333355,
      "v": 112
    },
    {
      "midi": 67,
      "hit": false,
      "t": 48571.46500000003,
      "d": 390.476483333332,
      "v": 112
    },
    {
      "midi": 74,
      "hit": false,
      "t": 48857.179500000035,
      "d": 400.0002999999997,
      "v": 112
    },
    {
      "midi": 71,
      "hit": false,
      "t": 48857.179500000035,
      "d": 561.905183333336,
      "v": 112
    },
    {
      "midi": 71,
      "hit": false,
      "t": 49428.60850000004,
      "d": 380.9526666666716,
      "v": 112
    },
    {
      "midi": 72,
      "hit": false,
      "t": 49714.32300000004,
      "d": 280.952591666668,
      "v": 112
    },
    {
      "midi": 76,
      "hit": false,
      "t": 49714.32300000004,
      "d": 428.5717500000028,
      "v": 112
    },
    {
      "midi": 72,
      "hit": false,
      "t": 50000.03750000004,
      "d": 661.9052583333396,
      "v": 112
    },
    {
      "midi": 69,
      "hit": false,
      "t": 50000.03750000004,
      "d": 685.7148000000088,
      "v": 112
    },
    {
      "midi": 36,
      "hit": false,
      "t": 50285.752000000044,
      "d": 28.571450000003097,
      "v": 112
    },
    {
      "midi": 60,
      "hit": false,
      "t": 50571.466500000046,
      "d": 414.28602500000125,
      "v": 112
    },
    {
      "midi": 65,
      "hit": false,
      "t": 50747.65710833338,
      "d": 1823.8108916666606,
      "v": 58
    },
    {
      "midi": 65,
      "hit": false,
      "t": 50857.18100000005,
      "d": 442.85747500000434,
      "v": 112
    },
    {
      "midi": 69,
      "hit": false,
      "t": 50890.51435833338,
      "d": 1680.9536416666597,
      "v": 62
    },
    {
      "midi": 72,
      "hit": false,
      "t": 50928.60962500004,
      "d": 1642.8583749999962,
      "v": 60
    },
    {
      "midi": 72,
      "hit": false,
      "t": 51142.89550000005,
      "d": 671.4290750000073,
      "v": 112
    },
    {
      "midi": 69,
      "hit": false,
      "t": 51142.89550000005,
      "d": 685.7148000000088,
      "v": 112
    },
    {
      "midi": 65,
      "hit": false,
      "t": 51714.32450000005,
      "d": 390.476483333332,
      "v": 112
    },
    {
      "midi": 69,
      "hit": false,
      "t": 52000.039000000055,
      "d": 366.66694166666275,
      "v": 112
    },
    {
      "midi": 72,
      "hit": false,
      "t": 52000.039000000055,
      "d": 404.76220833332627,
      "v": 112
    },
    {
      "midi": 71,
      "hit": false,
      "t": 52285.75350000005,
      "d": 390.476483333332,
      "v": 112
    },
    {
      "midi": 74,
      "hit": false,
      "t": 52285.75350000005,
      "d": 390.476483333332,
      "v": 112
    },
    {
      "midi": 75,
      "hit": false,
      "t": 52571.46800000005,
      "d": 280.95259166666074,
      "v": 112
    },
    {
      "midi": 51,
      "hit": false,
      "t": 52571.46800000005,
      "d": 723.8100666666651,
      "v": 112
    },
    {
      "midi": 67,
      "hit": false,
      "t": 52571.46800000005,
      "d": 795.2386916666655,
      "v": 112
    },
    {
      "midi": 55,
      "hit": false,
      "t": 52580.991816666705,
      "d": 228.57160000000295,
      "v": 59
    },
    {
      "midi": 58,
      "hit": false,
      "t": 52600.03945000004,
      "d": 209.52396666666755,
      "v": 40
    },
    {
      "midi": 63,
      "hit": false,
      "t": 52604.801358333374,
      "d": 204.7620583333337,
      "v": 36
    },
    {
      "midi": 67,
      "hit": false,
      "t": 52614.32517500004,
      "d": 195.238241666666,
      "v": 44
    },
    {
      "midi": 75,
      "hit": false,
      "t": 52857.182500000046,
      "d": 280.952591666668,
      "v": 112
    },
    {
      "midi": 57,
      "hit": false,
      "t": 52866.70631666671,
      "d": 514.2861000000048,
      "v": 74
    },
    {
      "midi": 62,
      "hit": false,
      "t": 52885.75395000004,
      "d": 495.2384666666694,
      "v": 55
    },
    {
      "midi": 65,
      "hit": false,
      "t": 52890.515858333376,
      "d": 490.47655833333556,
      "v": 51
    },
    {
      "midi": 69,
      "hit": false,
      "t": 52900.039675000044,
      "d": 480.95274166666786,
      "v": 59
    },
    {
      "midi": 75,
      "hit": false,
      "t": 53142.89700000005,
      "d": 366.66694166667,
      "v": 112
    },
    {
      "midi": 74,
      "hit": false,
      "t": 53428.61150000005,
      "d": 561.905183333336,
      "v": 112
    },
    {
      "midi": 64,
      "hit": false,
      "t": 53428.61150000005,
      "d": 695.2386166666693,
      "v": 112
    },
    {
      "midi": 50,
      "hit": false,
      "t": 53428.61150000005,
      "d": 990.4769333333388,
      "v": 112
    },
    {
      "midi": 58,
      "hit": false,
      "t": 53457.182950000046,
      "d": 1390.4772333333312,
      "v": 72
    },
    {
      "midi": 62,
      "hit": false,
      "t": 53457.182950000046,
      "d": 1390.4772333333312,
      "v": 59
    },
    {
      "midi": 53,
      "hit": false,
      "t": 53466.70676666671,
      "d": 1380.9534166666635,
      "v": 54
    },
    {
      "midi": 70,
      "hit": false,
      "t": 54000.040500000054,
      "d": 780.9529666666713,
      "v": 112
    },
    {
      "midi": 62,
      "hit": false,
      "t": 54000.040500000054,
      "d": 809.5244166666744,
      "v": 112
    },
    {
      "midi": 46,
      "hit": false,
      "t": 54285.755000000056,
      "d": 561.905183333336,
      "v": 112
    },
    {
      "midi": 39,
      "hit": false,
      "t": 54857.18400000006,
      "d": 757.143425000002,
      "v": 112
    },
    {
      "midi": 67,
      "hit": false,
      "t": 55142.89850000006,
      "d": 280.952591666668,
      "v": 112
    },
    {
      "midi": 70,
      "hit": false,
      "t": 55142.89850000006,
      "d": 280.952591666668,
      "v": 112
    },
    {
      "midi": 74,
      "hit": false,
      "t": 55142.89850000006,
      "d": 280.952591666668,
      "v": 112
    },
    {
      "midi": 79,
      "hit": false,
      "t": 55142.89850000006,
      "d": 280.952591666668,
      "v": 112
    },
    {
      "midi": 58,
      "hit": false,
      "t": 55319.08910833338,
      "d": 1823.8108916666606,
      "v": 58
    },
    {
      "midi": 62,
      "hit": false,
      "t": 55404.80345833338,
      "d": 1738.0965416666586,
      "v": 60
    },
    {
      "midi": 67,
      "hit": false,
      "t": 55428.61300000006,
      "d": 280.952591666668,
      "v": 112
    },
    {
      "midi": 70,
      "hit": false,
      "t": 55428.61300000006,
      "d": 280.952591666668,
      "v": 112
    },
    {
      "midi": 74,
      "hit": false,
      "t": 55428.61300000006,
      "d": 280.952591666668,
      "v": 112
    },
    {
      "midi": 79,
      "hit": false,
      "t": 55428.61300000006,
      "d": 280.952591666668,
      "v": 112
    },
    {
      "midi": 65,
      "hit": false,
      "t": 55461.94635833338,
      "d": 1680.9536416666597,
      "v": 62
    },
    {
      "midi": 67,
      "hit": false,
      "t": 55500.04162500004,
      "d": 1642.8583749999962,
      "v": 60
    },
    {
      "midi": 39,
      "hit": false,
      "t": 55714.327500000065,
      "d": 280.952591666668,
      "v": 112
    },
    {
      "midi": 67,
      "hit": false,
      "t": 55714.327500000065,
      "d": 280.952591666668,
      "v": 112
    },
    {
      "midi": 70,
      "hit": false,
      "t": 55714.327500000065,
      "d": 280.952591666668,
      "v": 112
    },
    {
      "midi": 74,
      "hit": false,
      "t": 55714.327500000065,
      "d": 280.952591666668,
      "v": 112
    },
    {
      "midi": 79,
      "hit": false,
      "t": 55714.327500000065,
      "d": 280.952591666668,
      "v": 112
    },
    {
      "midi": 67,
      "hit": false,
      "t": 56000.04200000007,
      "d": 561.905183333336,
      "v": 112
    },
    {
      "midi": 70,
      "hit": false,
      "t": 56000.04200000007,
      "d": 561.905183333336,
      "v": 112
    },
    {
      "midi": 74,
      "hit": false,
      "t": 56000.04200000007,
      "d": 561.905183333336,
      "v": 112
    },
    {
      "midi": 79,
      "hit": false,
      "t": 56000.04200000007,
      "d": 671.4290750000073,
      "v": 112
    },
    {
      "midi": 39,
      "hit": false,
      "t": 56000.04200000007,
      "d": 1238.0961666666772,
      "v": 112
    },
    {
      "midi": 77,
      "hit": false,
      "t": 56571.47100000007,
      "d": 428.5717500000028,
      "v": 112
    },
    {
      "midi": 67,
      "hit": false,
      "t": 56571.47100000007,
      "d": 638.0957166666703,
      "v": 112
    },
    {
      "midi": 70,
      "hit": false,
      "t": 56571.47100000007,
      "d": 685.7148000000088,
      "v": 112
    },
    {
      "midi": 75,
      "hit": false,
      "t": 56857.18550000007,
      "d": 280.952591666668,
      "v": 112
    },
    {
      "midi": 68,
      "hit": false,
      "t": 57142.900000000074,
      "d": 561.905183333336,
      "v": 112
    },
    {
      "midi": 72,
      "hit": false,
      "t": 57142.900000000074,
      "d": 561.905183333336,
      "v": 112
    },
    {
      "midi": 75,
      "hit": false,
      "t": 57142.900000000074,
      "d": 671.4290750000073,
      "v": 112
    },
    {
      "midi": 79,
      "hit": false,
      "t": 57142.900000000074,
      "d": 695.2386166666765,
      "v": 112
    },
    {
      "midi": 44,
      "hit": false,
      "t": 57142.900000000074,
      "d": 723.8100666666796,
      "v": 112
    },
    {
      "midi": 63,
      "hit": false,
      "t": 57604.80510833337,
      "d": 1823.8108916666606,
      "v": 58
    },
    {
      "midi": 67,
      "hit": false,
      "t": 57690.51945833337,
      "d": 1738.0965416666586,
      "v": 60
    },
    {
      "midi": 77,
      "hit": false,
      "t": 57714.32900000008,
      "d": 390.4764833333393,
      "v": 112
    },
    {
      "midi": 72,
      "hit": false,
      "t": 57714.32900000008,
      "d": 500.00037500000326,
      "v": 112
    },
    {
      "midi": 68,
      "hit": false,
      "t": 57714.32900000008,
      "d": 528.5718250000064,
      "v": 112
    },
    {
      "midi": 70,
      "hit": false,
      "t": 57747.66235833337,
      "d": 1680.9536416666597,
      "v": 62
    },
    {
      "midi": 72,
      "hit": false,
      "t": 57785.757625000035,
      "d": 1642.8583749999962,
      "v": 60
    },
    {
      "midi": 44,
      "hit": false,
      "t": 58000.04350000009,
      "d": 280.95259166666074,
      "v": 112
    },
    {
      "midi": 75,
      "hit": false,
      "t": 58000.04350000009,
      "d": 280.95259166666074,
      "v": 112
    },
    {
      "midi": 68,
      "hit": false,
      "t": 58285.75800000008,
      "d": 561.905183333336,
      "v": 112
    },
    {
      "midi": 72,
      "hit": false,
      "t": 58285.75800000008,
      "d": 561.905183333336,
      "v": 112
    },
    {
      "midi": 75,
      "hit": false,
      "t": 58285.75800000008,
      "d": 647.619533333338,
      "v": 112
    },
    {
      "midi": 79,
      "hit": false,
      "t": 58285.75800000008,
      "d": 647.619533333338,
      "v": 112
    },
    {
      "midi": 44,
      "hit": false,
      "t": 58285.75800000008,
      "d": 1076.1912833333408,
      "v": 112
    },
    {
      "midi": 77,
      "hit": false,
      "t": 58857.187000000085,
      "d": 414.28602500000125,
      "v": 112
    },
    {
      "midi": 72,
      "hit": false,
      "t": 58857.187000000085,
      "d": 576.1909083333376,
      "v": 112
    },
    {
      "midi": 68,
      "hit": false,
      "t": 58857.187000000085,
      "d": 623.8099916666688,
      "v": 112
    },
    {
      "midi": 75,
      "hit": false,
      "t": 59142.90150000009,
      "d": 280.952591666668,
      "v": 112
    },
    {
      "midi": 63,
      "hit": false,
      "t": 59428.61600000003,
      "d": 2285.7160000000003,
      "v": 55
    },
    {
      "midi": 43,
      "hit": false,
      "t": 59428.61600000009,
      "d": 723.8100666666724,
      "v": 112
    },
    {
      "midi": 67,
      "hit": false,
      "t": 59461.94935833337,
      "d": 2252.3826416666634,
      "v": 57
    },
    {
      "midi": 70,
      "hit": false,
      "t": 59500.04462500003,
      "d": 2214.287375,
      "v": 55
    },
    {
      "midi": 67,
      "hit": false,
      "t": 59714.33050000009,
      "d": 280.952591666668,
      "v": 112
    },
    {
      "midi": 70,
      "hit": false,
      "t": 59714.33050000009,
      "d": 280.952591666668,
      "v": 112
    },
    {
      "midi": 79,
      "hit": false,
      "t": 59714.33050000009,
      "d": 452.38129166667204,
      "v": 112
    },
    {
      "midi": 67,
      "hit": false,
      "t": 60000.04500000009,
      "d": 280.952591666668,
      "v": 112
    },
    {
      "midi": 70,
      "hit": false,
      "t": 60000.04500000009,
      "d": 280.952591666668,
      "v": 112
    },
    {
      "midi": 77,
      "hit": false,
      "t": 60000.04500000009,
      "d": 380.9526666666716,
      "v": 112
    },
    {
      "midi": 43,
      "hit": false,
      "t": 60285.759500000095,
      "d": 280.952591666668,
      "v": 112
    },
    {
      "midi": 67,
      "hit": false,
      "t": 60285.759500000095,
      "d": 280.952591666668,
      "v": 112
    },
    {
      "midi": 70,
      "hit": false,
      "t": 60285.759500000095,
      "d": 280.952591666668,
      "v": 112
    },
    {
      "midi": 75,
      "hit": false,
      "t": 60285.759500000095,
      "d": 357.1431250000023,
      "v": 112
    },
    {
      "midi": 67,
      "hit": false,
      "t": 60571.4740000001,
      "d": 561.905183333336,
      "v": 112
    },
    {
      "midi": 70,
      "hit": false,
      "t": 60571.4740000001,
      "d": 561.905183333336,
      "v": 112
    },
    {
      "midi": 79,
      "hit": false,
      "t": 60571.4740000001,
      "d": 685.7148000000016,
      "v": 112
    },
    {
      "midi": 43,
      "hit": false,
      "t": 60571.4740000001,
      "d": 1200.0009000000064,
      "v": 112
    },
    {
      "midi": 67,
      "hit": false,
      "t": 61142.9030000001,
      "d": 280.952591666668,
      "v": 112
    },
    {
      "midi": 77,
      "hit": false,
      "t": 61142.9030000001,
      "d": 380.9526666666716,
      "v": 112
    },
    {
      "midi": 70,
      "hit": false,
      "t": 61142.9030000001,
      "d": 514.2861000000048,
      "v": 112
    },
    {
      "midi": 74,
      "hit": false,
      "t": 61428.6175000001,
      "d": 280.952591666668,
      "v": 112
    },
    {
      "midi": 76,
      "hit": false,
      "t": 61714.332000000104,
      "d": 280.952591666668,
      "v": 112
    },
    {
      "midi": 70,
      "hit": false,
      "t": 61714.332000000104,
      "d": 733.33388333334,
      "v": 112
    },
    {
      "midi": 36,
      "hit": false,
      "t": 61714.332000000104,
      "d": 747.6196083333416,
      "v": 112
    },
    {
      "midi": 64,
      "hit": false,
      "t": 61714.332000000104,
      "d": 757.1434250000093,
      "v": 112
    },
    {
      "midi": 48,
      "hit": false,
      "t": 61714.332000000104,
      "d": 809.5244166666744,
      "v": 112
    },
    {
      "midi": 55,
      "hit": false,
      "t": 61723.8558166667,
      "d": 228.57160000000295,
      "v": 59
    },
    {
      "midi": 58,
      "hit": false,
      "t": 61742.903450000034,
      "d": 209.52396666666755,
      "v": 40
    },
    {
      "midi": 60,
      "hit": false,
      "t": 61747.66535833337,
      "d": 204.7620583333337,
      "v": 36
    },
    {
      "midi": 64,
      "hit": false,
      "t": 61757.189175000036,
      "d": 195.238241666666,
      "v": 44
    },
    {
      "midi": 76,
      "hit": false,
      "t": 62000.046500000106,
      "d": 280.952591666668,
      "v": 112
    },
    {
      "midi": 53,
      "hit": false,
      "t": 62009.5703166667,
      "d": 514.2861000000048,
      "v": 74
    },
    {
      "midi": 58,
      "hit": false,
      "t": 62028.617950000036,
      "d": 495.2384666666694,
      "v": 55
    },
    {
      "midi": 62,
      "hit": false,
      "t": 62033.37985833337,
      "d": 490.47655833333556,
      "v": 51
    },
    {
      "midi": 65,
      "hit": false,
      "t": 62042.90367500004,
      "d": 480.95274166666786,
      "v": 59
    },
    {
      "midi": 76,
      "hit": false,
      "t": 62285.76100000011,
      "d": 428.5717500000028,
      "v": 112
    },
    {
      "midi": 64,
      "hit": false,
      "t": 62571.47550000011,
      "d": 561.905183333336,
      "v": 112
    },
    {
      "midi": 70,
      "hit": false,
      "t": 62571.47550000011,
      "d": 561.905183333336,
      "v": 112
    },
    {
      "midi": 77,
      "hit": false,
      "t": 62571.47550000011,
      "d": 561.905183333336,
      "v": 112
    },
    {
      "midi": 38,
      "hit": false,
      "t": 62571.47550000011,
      "d": 685.7148000000016,
      "v": 112
    },
    {
      "midi": 50,
      "hit": false,
      "t": 62571.47550000011,
      "d": 709.5243416666708,
      "v": 112
    },
    {
      "midi": 64,
      "hit": false,
      "t": 63142.90450000011,
      "d": 809.5244166666671,
      "v": 112
    },
    {
      "midi": 70,
      "hit": false,
      "t": 63142.90450000011,
      "d": 819.0482333333348,
      "v": 112
    },
    {
      "midi": 79,
      "hit": false,
      "t": 63142.90450000011,
      "d": 819.0482333333348,
      "v": 112
    },
    {
      "midi": 64,
      "hit": false,
      "t": 63161.95213333337,
      "d": 838.0958666666702,
      "v": 66
    },
    {
      "midi": 40,
      "hit": false,
      "t": 63428.619000000115,
      "d": 647.6195333333308,
      "v": 112
    },
    {
      "midi": 52,
      "hit": false,
      "t": 63428.619000000115,
      "d": 709.5243416666635,
      "v": 112
    },
    {
      "midi": 60,
      "hit": false,
      "t": 63447.66663333337,
      "d": 552.3813666666683,
      "v": 50
    },
    {
      "midi": 58,
      "hit": false,
      "t": 63733.38113333337,
      "d": 266.66686666666646,
      "v": 66
    },
    {
      "midi": 68,
      "hit": false,
      "t": 64000.04800000011,
      "d": 280.952591666668,
      "v": 112
    },
    {
      "midi": 72,
      "hit": false,
      "t": 64000.04800000011,
      "d": 280.952591666668,
      "v": 112
    },
    {
      "midi": 75,
      "hit": false,
      "t": 64000.04800000011,
      "d": 280.952591666668,
      "v": 112
    },
    {
      "midi": 80,
      "hit": false,
      "t": 64000.04800000011,
      "d": 280.952591666668,
      "v": 112
    },
    {
      "midi": 41,
      "hit": false,
      "t": 64000.04800000011,
      "d": 723.8100666666724,
      "v": 112
    },
    {
      "midi": 53,
      "hit": false,
      "t": 64000.04800000011,
      "d": 819.0482333333421,
      "v": 112
    },
    {
      "midi": 56,
      "hit": false,
      "t": 64019.095633333374,
      "d": 495.2384666666694,
      "v": 77
    },
    {
      "midi": 53,
      "hit": false,
      "t": 64019.095633333374,
      "d": 504.7622833333371,
      "v": 68
    },
    {
      "midi": 60,
      "hit": false,
      "t": 64019.095633333374,
      "d": 519.0480083333387,
      "v": 59
    },
    {
      "midi": 63,
      "hit": false,
      "t": 64019.095633333374,
      "d": 533.3337333333402,
      "v": 71
    },
    {
      "midi": 68,
      "hit": false,
      "t": 64285.76250000011,
      "d": 280.952591666668,
      "v": 112
    },
    {
      "midi": 72,
      "hit": false,
      "t": 64285.76250000011,
      "d": 280.952591666668,
      "v": 112
    },
    {
      "midi": 75,
      "hit": false,
      "t": 64285.76250000011,
      "d": 280.952591666668,
      "v": 112
    },
    {
      "midi": 80,
      "hit": false,
      "t": 64285.76250000011,
      "d": 280.952591666668,
      "v": 112
    },
    {
      "midi": 68,
      "hit": false,
      "t": 64571.477000000115,
      "d": 280.9525916666753,
      "v": 112
    },
    {
      "midi": 72,
      "hit": false,
      "t": 64571.477000000115,
      "d": 280.9525916666753,
      "v": 112
    },
    {
      "midi": 75,
      "hit": false,
      "t": 64571.477000000115,
      "d": 280.9525916666753,
      "v": 112
    },
    {
      "midi": 80,
      "hit": false,
      "t": 64571.477000000115,
      "d": 280.9525916666753,
      "v": 112
    },
    {
      "midi": 41,
      "hit": false,
      "t": 64857.191500000125,
      "d": 280.952591666668,
      "v": 112
    },
    {
      "midi": 68,
      "hit": false,
      "t": 64857.191500000125,
      "d": 500.00037500000326,
      "v": 112
    },
    {
      "midi": 72,
      "hit": false,
      "t": 64857.191500000125,
      "d": 514.2861000000048,
      "v": 112
    },
    {
      "midi": 80,
      "hit": false,
      "t": 64857.191500000125,
      "d": 647.619533333338,
      "v": 112
    },
    {
      "midi": 75,
      "hit": false,
      "t": 64857.191500000125,
      "d": 685.7148000000088,
      "v": 112
    },
    {
      "midi": 41,
      "hit": false,
      "t": 65142.90600000013,
      "d": 709.5243416666708,
      "v": 112
    },
    {
      "midi": 63,
      "hit": false,
      "t": 65428.62050000013,
      "d": 514.2861000000048,
      "v": 112
    },
    {
      "midi": 68,
      "hit": false,
      "t": 65428.62050000013,
      "d": 528.5718249999991,
      "v": 112
    },
    {
      "midi": 72,
      "hit": false,
      "t": 65428.62050000013,
      "d": 528.5718249999991,
      "v": 112
    },
    {
      "midi": 53,
      "hit": false,
      "t": 65447.66813333338,
      "d": 690.4767083333427,
      "v": 62
    },
    {
      "midi": 48,
      "hit": false,
      "t": 65714.33500000014,
      "d": 695.2386166666547,
      "v": 112
    },
    {
      "midi": 56,
      "hit": false,
      "t": 65733.38263333339,
      "d": 200.00015000000712,
      "v": 79
    },
    {
      "midi": 63,
      "hit": false,
      "t": 65733.38263333339,
      "d": 200.00015000000712,
      "v": 71
    },
    {
      "midi": 68,
      "hit": false,
      "t": 66000.04950000012,
      "d": 647.6195333333308,
      "v": 112
    },
    {
      "midi": 63,
      "hit": false,
      "t": 66000.04950000012,
      "d": 661.905258333325,
      "v": 112
    },
    {
      "midi": 72,
      "hit": false,
      "t": 66000.04950000012,
      "d": 661.905258333325,
      "v": 112
    },
    {
      "midi": 46,
      "hit": false,
      "t": 66285.76400000013,
      "d": 747.6196083333198,
      "v": 112
    },
    {
      "midi": 58,
      "hit": false,
      "t": 66300.04972500005,
      "d": 571.4290000000037,
      "v": 63
    },
    {
      "midi": 62,
      "hit": false,
      "t": 66300.04972500005,
      "d": 590.4766333333391,
      "v": 69
    },
    {
      "midi": 65,
      "hit": false,
      "t": 66300.04972500005,
      "d": 600.0004500000068,
      "v": 62
    },
    {
      "midi": 50,
      "hit": false,
      "t": 66300.04972500005,
      "d": 623.8099916666688,
      "v": 53
    },
    {
      "midi": 70,
      "hit": false,
      "t": 66571.47850000013,
      "d": 280.95259166666074,
      "v": 112
    },
    {
      "midi": 74,
      "hit": false,
      "t": 66571.47850000013,
      "d": 280.95259166666074,
      "v": 112
    },
    {
      "midi": 65,
      "hit": false,
      "t": 66857.19300000012,
      "d": 795.2386916666437,
      "v": 112
    },
    {
      "midi": 74,
      "hit": false,
      "t": 66857.19300000012,
      "d": 795.2386916666437,
      "v": 112
    },
    {
      "midi": 68,
      "hit": false,
      "t": 66857.19300000012,
      "d": 833.3339583333145,
      "v": 112
    },
    {
      "midi": 70,
      "hit": false,
      "t": 66881.00254166678,
      "d": 757.1434249999875,
      "v": 112
    },
    {
      "midi": 46,
      "hit": false,
      "t": 67142.90750000012,
      "d": 280.95259166666074,
      "v": 112
    },
    {
      "midi": 62,
      "hit": false,
      "t": 67157.19322500005,
      "d": 161.90488333333633,
      "v": 65
    },
    {
      "midi": 50,
      "hit": false,
      "t": 67157.19322500005,
      "d": 166.6667916666629,
      "v": 56
    },
    {
      "midi": 68,
      "hit": false,
      "t": 67157.19322500005,
      "d": 180.95251666665717,
      "v": 61
    },
    {
      "midi": 58,
      "hit": false,
      "t": 67157.19322500005,
      "d": 204.76205833331915,
      "v": 69
    },
    {
      "midi": 46,
      "hit": false,
      "t": 67428.6220000001,
      "d": 671.4290749999927,
      "v": 112
    },
    {
      "midi": 41,
      "hit": false,
      "t": 68000.0510000001,
      "d": 561.905183333336,
      "v": 112
    },
    {
      "midi": 70,
      "hit": false,
      "t": 68571.4800000001,
      "d": 280.95259166666074,
      "v": 112
    },
    {
      "midi": 74,
      "hit": false,
      "t": 68571.4800000001,
      "d": 280.95259166666074,
      "v": 112
    },
    {
      "midi": 79,
      "hit": false,
      "t": 68571.4800000001,
      "d": 280.95259166666074,
      "v": 112
    },
    {
      "midi": 39,
      "hit": false,
      "t": 68571.4800000001,
      "d": 757.1434249999729,
      "v": 112
    },
    {
      "midi": 65,
      "hit": false,
      "t": 68590.52763333337,
      "d": 457.1432000000059,
      "v": 71
    },
    {
      "midi": 67,
      "hit": false,
      "t": 68590.52763333337,
      "d": 457.1432000000059,
      "v": 82
    },
    {
      "midi": 55,
      "hit": false,
      "t": 68590.52763333337,
      "d": 2266.668366666665,
      "v": 77
    },
    {
      "midi": 58,
      "hit": false,
      "t": 68590.52763333337,
      "d": 2266.668366666665,
      "v": 68
    },
    {
      "midi": 62,
      "hit": false,
      "t": 68590.52763333337,
      "d": 2266.668366666665,
      "v": 61
    },
    {
      "midi": 70,
      "hit": false,
      "t": 68857.19450000009,
      "d": 280.95259166666074,
      "v": 112
    },
    {
      "midi": 74,
      "hit": false,
      "t": 68857.19450000009,
      "d": 280.95259166666074,
      "v": 112
    },
    {
      "midi": 79,
      "hit": false,
      "t": 68857.19450000009,
      "d": 280.95259166666074,
      "v": 112
    },
    {
      "midi": 70,
      "hit": false,
      "t": 69142.90900000007,
      "d": 280.95259166666074,
      "v": 112
    },
    {
      "midi": 74,
      "hit": false,
      "t": 69142.90900000007,
      "d": 280.95259166666074,
      "v": 112
    },
    {
      "midi": 79,
      "hit": false,
      "t": 69142.90900000007,
      "d": 280.95259166666074,
      "v": 112
    },
    {
      "midi": 39,
      "hit": false,
      "t": 69428.62350000006,
      "d": 280.95259166666074,
      "v": 112
    },
    {
      "midi": 70,
      "hit": false,
      "t": 69428.62350000006,
      "d": 514.286099999983,
      "v": 112
    },
    {
      "midi": 74,
      "hit": false,
      "t": 69428.62350000006,
      "d": 614.2861749999865,
      "v": 112
    },
    {
      "midi": 79,
      "hit": false,
      "t": 69428.62350000006,
      "d": 638.0957166666485,
      "v": 112
    },
    {
      "midi": 39,
      "hit": false,
      "t": 69714.33800000005,
      "d": 709.524341666649,
      "v": 112
    },
    {
      "midi": 89,
      "hit": false,
      "t": 69733.38563333338,
      "d": 119.04770833333896,
      "v": 84
    },
    {
      "midi": 63,
      "hit": false,
      "t": 70000.05250000005,
      "d": 500.00037499997416,
      "v": 112
    },
    {
      "midi": 70,
      "hit": false,
      "t": 70000.05250000005,
      "d": 500.00037499997416,
      "v": 112
    },
    {
      "midi": 67,
      "hit": false,
      "t": 70000.05250000005,
      "d": 514.2860999999684,
      "v": 112
    },
    {
      "midi": 86,
      "hit": false,
      "t": 70019.10013333338,
      "d": 180.95251666667173,
      "v": 56
    },
    {
      "midi": 38,
      "hit": false,
      "t": 70285.76700000004,
      "d": 685.714799999987,
      "v": 112
    },
    {
      "midi": 86,
      "hit": false,
      "t": 70304.81463333339,
      "d": 138.0953416666598,
      "v": 55
    },
    {
      "midi": 67,
      "hit": false,
      "t": 70571.48150000002,
      "d": 661.9052583333396,
      "v": 112
    },
    {
      "midi": 63,
      "hit": false,
      "t": 70571.48150000002,
      "d": 671.4290750000073,
      "v": 112
    },
    {
      "midi": 70,
      "hit": false,
      "t": 70571.48150000002,
      "d": 685.7148000000016,
      "v": 112
    },
    {
      "midi": 79,
      "hit": false,
      "t": 70590.52913333337,
      "d": 85.71434999999474,
      "v": 74
    },
    {
      "midi": 36,
      "hit": false,
      "t": 70857.19600000003,
      "d": 514.2860999999975,
      "v": 112
    },
    {
      "midi": 58,
      "hit": false,
      "t": 70876.24363333338,
      "d": 561.905183333336,
      "v": 61
    },
    {
      "midi": 60,
      "hit": false,
      "t": 70876.24363333338,
      "d": 576.1909083333303,
      "v": 74
    },
    {
      "midi": 63,
      "hit": false,
      "t": 70876.24363333338,
      "d": 585.714724999998,
      "v": 75
    },
    {
      "midi": 51,
      "hit": false,
      "t": 70876.24363333338,
      "d": 652.3814416666719,
      "v": 30
    },
    {
      "midi": 72,
      "hit": false,
      "t": 71142.91050000003,
      "d": 280.95259166666074,
      "v": 112
    },
    {
      "midi": 36,
      "hit": false,
      "t": 71428.62500000001,
      "d": 404.7622083333408,
      "v": 112
    },
    {
      "midi": 72,
      "hit": false,
      "t": 71428.62500000001,
      "d": 771.4291500000108,
      "v": 112
    },
    {
      "midi": 67,
      "hit": false,
      "t": 71428.62500000001,
      "d": 795.2386916666728,
      "v": 112
    },
    {
      "midi": 63,
      "hit": false,
      "t": 71428.62500000001,
      "d": 809.5244166666671,
      "v": 112
    },
    {
      "midi": 38,
      "hit": false,
      "t": 71714.33950000002,
      "d": 366.66694166667,
      "v": 112
    },
    {
      "midi": 60,
      "hit": false,
      "t": 71733.38713333338,
      "d": 152.38106666666863,
      "v": 71
    },
    {
      "midi": 63,
      "hit": false,
      "t": 71733.38713333338,
      "d": 152.38106666666863,
      "v": 64
    },
    {
      "midi": 58,
      "hit": false,
      "t": 71733.38713333338,
      "d": 161.90488333333633,
      "v": 67
    },
    {
      "midi": 51,
      "hit": false,
      "t": 71733.38713333338,
      "d": 166.6667916666629,
      "v": 51
    },
    {
      "midi": 39,
      "hit": false,
      "t": 72000.05400000002,
      "d": 357.1431250000023,
      "v": 112
    },
    {
      "midi": 38,
      "hit": false,
      "t": 72285.76850000002,
      "d": 404.7622083333408,
      "v": 112
    },
    {
      "midi": 36,
      "hit": false,
      "t": 72571.48300000002,
      "d": 671.4290750000073,
      "v": 112
    },
    {
      "midi": 68,
      "hit": false,
      "t": 73142.91200000003,
      "d": 280.9525916666753,
      "v": 112
    },
    {
      "midi": 72,
      "hit": false,
      "t": 73142.91200000003,
      "d": 280.9525916666753,
      "v": 112
    },
    {
      "midi": 75,
      "hit": false,
      "t": 73142.91200000003,
      "d": 280.9525916666753,
      "v": 112
    },
    {
      "midi": 80,
      "hit": false,
      "t": 73142.91200000003,
      "d": 280.9525916666753,
      "v": 112
    },
    {
      "midi": 41,
      "hit": false,
      "t": 73142.91200000003,
      "d": 723.8100666666578,
      "v": 112
    },
    {
      "midi": 53,
      "hit": false,
      "t": 73152.43581666671,
      "d": 723.8100666666578,
      "v": 67
    },
    {
      "midi": 60,
      "hit": false,
      "t": 73166.7215416667,
      "d": 633.3338083333219,
      "v": 69
    },
    {
      "midi": 63,
      "hit": false,
      "t": 73166.7215416667,
      "d": 642.8576249999896,
      "v": 76
    },
    {
      "midi": 68,
      "hit": false,
      "t": 73171.48345000003,
      "d": 604.7623583333334,
      "v": 75
    },
    {
      "midi": 68,
      "hit": false,
      "t": 73428.62650000003,
      "d": 280.95259166666074,
      "v": 112
    },
    {
      "midi": 72,
      "hit": false,
      "t": 73428.62650000003,
      "d": 280.95259166666074,
      "v": 112
    },
    {
      "midi": 75,
      "hit": false,
      "t": 73428.62650000003,
      "d": 280.95259166666074,
      "v": 112
    },
    {
      "midi": 80,
      "hit": false,
      "t": 73428.62650000003,
      "d": 280.95259166666074,
      "v": 112
    },
    {
      "midi": 68,
      "hit": false,
      "t": 73714.34100000001,
      "d": 280.9525916666753,
      "v": 112
    },
    {
      "midi": 72,
      "hit": false,
      "t": 73714.34100000001,
      "d": 280.9525916666753,
      "v": 112
    },
    {
      "midi": 75,
      "hit": false,
      "t": 73714.34100000001,
      "d": 280.9525916666753,
      "v": 112
    },
    {
      "midi": 80,
      "hit": false,
      "t": 73714.34100000001,
      "d": 280.9525916666753,
      "v": 112
    },
    {
      "midi": 41,
      "hit": false,
      "t": 74000.05550000002,
      "d": 280.95259166666074,
      "v": 112
    },
    {
      "midi": 68,
      "hit": false,
      "t": 74000.05550000002,
      "d": 500.0003749999887,
      "v": 112
    },
    {
      "midi": 72,
      "hit": false,
      "t": 74000.05550000002,
      "d": 500.0003749999887,
      "v": 112
    },
    {
      "midi": 80,
      "hit": false,
      "t": 74000.05550000002,
      "d": 614.2861749999865,
      "v": 112
    },
    {
      "midi": 75,
      "hit": false,
      "t": 74000.05550000002,
      "d": 661.905258333325,
      "v": 112
    },
    {
      "midi": 56,
      "hit": false,
      "t": 74014.34122500004,
      "d": 628.5718999999808,
      "v": 62
    },
    {
      "midi": 60,
      "hit": false,
      "t": 74014.34122500004,
      "d": 709.524341666649,
      "v": 67
    },
    {
      "midi": 63,
      "hit": false,
      "t": 74014.34122500004,
      "d": 714.2862499999756,
      "v": 67
    },
    {
      "midi": 68,
      "hit": false,
      "t": 74019.10313333337,
      "d": 642.8576249999896,
      "v": 65
    },
    {
      "midi": 65,
      "hit": false,
      "t": 74023.8650416667,
      "d": 661.905258333325,
      "v": 68
    },
    {
      "midi": 41,
      "hit": false,
      "t": 74285.77,
      "d": 661.9052583333396,
      "v": 112
    },
    {
      "midi": 63,
      "hit": false,
      "t": 74571.4845,
      "d": 528.5718250000064,
      "v": 112
    },
    {
      "midi": 68,
      "hit": false,
      "t": 74571.4845,
      "d": 528.5718250000064,
      "v": 112
    },
    {
      "midi": 72,
      "hit": false,
      "t": 74571.4845,
      "d": 528.5718250000064,
      "v": 112
    },
    {
      "midi": 36,
      "hit": false,
      "t": 74857.19900000001,
      "d": 671.4290750000073,
      "v": 112
    },
    {
      "midi": 63,
      "hit": false,
      "t": 75142.91350000001,
      "d": 638.0957166666776,
      "v": 112
    },
    {
      "midi": 68,
      "hit": false,
      "t": 75142.91350000001,
      "d": 647.6195333333453,
      "v": 112
    },
    {
      "midi": 72,
      "hit": false,
      "t": 75142.91350000001,
      "d": 685.7148000000161,
      "v": 112
    },
    {
      "midi": 34,
      "hit": false,
      "t": 75428.62800000001,
      "d": 733.3338833333255,
      "v": 112
    },
    {
      "midi": 58,
      "hit": false,
      "t": 75447.67563333335,
      "d": 490.47655833333556,
      "v": 63
    },
    {
      "midi": 56,
      "hit": false,
      "t": 75447.67563333335,
      "d": 609.5242666666745,
      "v": 63
    },
    {
      "midi": 65,
      "hit": false,
      "t": 75447.67563333335,
      "d": 619.0480833333422,
      "v": 63
    },
    {
      "midi": 62,
      "hit": false,
      "t": 75447.67563333335,
      "d": 623.8099916666688,
      "v": 61
    },
    {
      "midi": 53,
      "hit": false,
      "t": 75447.67563333335,
      "d": 628.5718999999954,
      "v": 52
    },
    {
      "midi": 70,
      "hit": false,
      "t": 75714.34250000001,
      "d": 280.9525916666753,
      "v": 112
    },
    {
      "midi": 74,
      "hit": false,
      "t": 75714.34250000001,
      "d": 280.9525916666753,
      "v": 112
    },
    {
      "midi": 74,
      "hit": false,
      "t": 76000.05700000002,
      "d": 528.5718249999918,
      "v": 112
    },
    {
      "midi": 68,
      "hit": false,
      "t": 76000.05700000002,
      "d": 623.8099916666542,
      "v": 112
    },
    {
      "midi": 65,
      "hit": false,
      "t": 76000.05700000002,
      "d": 661.905258333325,
      "v": 112
    },
    {
      "midi": 70,
      "hit": false,
      "t": 76023.86654166668,
      "d": 638.0957166666631,
      "v": 112
    },
    {
      "midi": 34,
      "hit": false,
      "t": 76285.7715,
      "d": 280.9525916666753,
      "v": 112
    },
    {
      "midi": 58,
      "hit": false,
      "t": 76304.81913333334,
      "d": 171.42870000000403,
      "v": 71
    },
    {
      "midi": 62,
      "hit": false,
      "t": 76304.81913333334,
      "d": 180.95251666667173,
      "v": 68
    },
    {
      "midi": 65,
      "hit": false,
      "t": 76304.81913333334,
      "d": 185.7144249999983,
      "v": 67
    },
    {
      "midi": 56,
      "hit": false,
      "t": 76304.81913333334,
      "d": 195.238241666666,
      "v": 65
    },
    {
      "midi": 53,
      "hit": false,
      "t": 76304.81913333334,
      "d": 200.00014999999257,
      "v": 63
    },
    {
      "midi": 62,
      "hit": false,
      "t": 76571.486,
      "d": 419.0479333333351,
      "v": 112
    },
    {
      "midi": 74,
      "hit": false,
      "t": 76571.486,
      "d": 419.0479333333351,
      "v": 112
    },
    {
      "midi": 34,
      "hit": false,
      "t": 76571.486,
      "d": 661.9052583333396,
      "v": 112
    },
    {
      "midi": 75,
      "hit": false,
      "t": 76957.20057500001,
      "d": 342.85740000000806,
      "v": 112
    },
    {
      "midi": 63,
      "hit": false,
      "t": 76957.20057500001,
      "d": 490.4765583333501,
      "v": 112
    },
    {
      "midi": 41,
      "hit": false,
      "t": 77142.91500000001,
      "d": 600.0004500000214,
      "v": 112
    },
    {
      "midi": 77,
      "hit": false,
      "t": 77271.48652500001,
      "d": 133.33343333334778,
      "v": 112
    },
    {
      "midi": 67,
      "hit": false,
      "t": 77338.15324166669,
      "d": 614.2861750000011,
      "v": 112
    },
    {
      "midi": 79,
      "hit": false,
      "t": 77338.15324166669,
      "d": 614.2861750000011,
      "v": 112
    },
    {
      "midi": 36,
      "hit": false,
      "t": 77714.34400000003,
      "d": 733.33388333334,
      "v": 112
    },
    {
      "midi": 64,
      "hit": false,
      "t": 77733.39163333333,
      "d": 566.6670916666626,
      "v": 55
    },
    {
      "midi": 72,
      "hit": false,
      "t": 77733.39163333333,
      "d": 566.6670916666626,
      "v": 63
    },
    {
      "midi": 52,
      "hit": false,
      "t": 77733.39163333333,
      "d": 895.2387666666618,
      "v": 63
    },
    {
      "midi": 79,
      "hit": false,
      "t": 78000.05850000003,
      "d": 1861.9061583333241,
      "v": 112
    },
    {
      "midi": 72,
      "hit": false,
      "t": 78000.05850000003,
      "d": 1871.4299749999918,
      "v": 112
    },
    {
      "midi": 76,
      "hit": false,
      "t": 78000.05850000003,
      "d": 1895.2395166666538,
      "v": 112
    },
    {
      "midi": 67,
      "hit": false,
      "t": 78000.05850000003,
      "d": 1909.525241666648,
      "v": 112
    },
    {
      "midi": 36,
      "hit": false,
      "t": 78571.48750000003,
      "d": 280.95259166666074,
      "v": 112
    },
    {
      "midi": 48,
      "hit": false,
      "t": 78590.53513333332,
      "d": 157.14297500000976,
      "v": 63
    },
    {
      "midi": 64,
      "hit": false,
      "t": 78590.53513333332,
      "d": 161.90488333333633,
      "v": 59
    },
    {
      "midi": 67,
      "hit": false,
      "t": 78590.53513333332,
      "d": 161.90488333333633,
      "v": 63
    },
    {
      "midi": 36,
      "hit": false,
      "t": 78857.20200000002,
      "d": 709.5243416666635,
      "v": 112
    },
    {
      "midi": 43,
      "hit": false,
      "t": 79428.63100000002,
      "d": 661.905258333325,
      "v": 112
    },
    {
      "midi": 36,
      "hit": false,
      "t": 80000.06000000001,
      "d": 747.6196083333198,
      "v": 112
    },
    {
      "midi": 55,
      "hit": false,
      "t": 80019.10763333333,
      "d": 595.2385416666657,
      "v": 61
    },
    {
      "midi": 64,
      "hit": false,
      "t": 80019.10763333333,
      "d": 614.2861750000011,
      "v": 80
    },
    {
      "midi": 52,
      "hit": false,
      "t": 80019.10763333333,
      "d": 619.0480833333277,
      "v": 64
    },
    {
      "midi": 60,
      "hit": false,
      "t": 80019.10763333333,
      "d": 623.8099916666542,
      "v": 79
    },
    {
      "midi": 64,
      "hit": false,
      "t": 80285.77450000001,
      "d": 280.95259166666074,
      "v": 112
    },
    {
      "midi": 76,
      "hit": false,
      "t": 80285.77450000001,
      "d": 280.95259166666074,
      "v": 112
    },
    {
      "midi": 76,
      "hit": false,
      "t": 80571.489,
      "d": 404.7622083333408,
      "v": 112
    },
    {
      "midi": 64,
      "hit": false,
      "t": 80571.489,
      "d": 414.2860250000085,
      "v": 112
    },
    {
      "midi": 65,
      "hit": false,
      "t": 80857.2035,
      "d": 280.9525916666753,
      "v": 112
    },
    {
      "midi": 77,
      "hit": false,
      "t": 80857.2035,
      "d": 280.9525916666753,
      "v": 112
    },
    {
      "midi": 38,
      "hit": false,
      "t": 80857.2035,
      "d": 980.9531166666566,
      "v": 112
    },
    {
      "midi": 52,
      "hit": false,
      "t": 80876.25113333332,
      "d": 104.76198333333014,
      "v": 71
    },
    {
      "midi": 55,
      "hit": false,
      "t": 80876.25113333332,
      "d": 109.52389166665671,
      "v": 62
    },
    {
      "midi": 64,
      "hit": false,
      "t": 80876.25113333332,
      "d": 119.04770833332441,
      "v": 78
    },
    {
      "midi": 65,
      "hit": false,
      "t": 81142.918,
      "d": 366.66694166667,
      "v": 112
    },
    {
      "midi": 77,
      "hit": false,
      "t": 81142.918,
      "d": 390.476483333332,
      "v": 112
    },
    {
      "midi": 67,
      "hit": false,
      "t": 81428.6325,
      "d": 280.95259166666074,
      "v": 112
    },
    {
      "midi": 79,
      "hit": false,
      "t": 81428.6325,
      "d": 280.95259166666074,
      "v": 112
    },
    {
      "midi": 52,
      "hit": false,
      "t": 81447.68013333331,
      "d": 480.95274166666786,
      "v": 59
    },
    {
      "midi": 60,
      "hit": false,
      "t": 81447.68013333331,
      "d": 514.2860999999975,
      "v": 77
    },
    {
      "midi": 55,
      "hit": false,
      "t": 81447.68013333331,
      "d": 533.3337333333329,
      "v": 56
    },
    {
      "midi": 40,
      "hit": false,
      "t": 81714.347,
      "d": 561.905183333336,
      "v": 112
    },
    {
      "midi": 67,
      "hit": false,
      "t": 81714.347,
      "d": 671.4290750000073,
      "v": 112
    },
    {
      "midi": 79,
      "hit": false,
      "t": 81714.347,
      "d": 685.7148000000016,
      "v": 112
    },
    {
      "midi": 68,
      "hit": false,
      "t": 82285.776,
      "d": 280.95259166666074,
      "v": 112
    },
    {
      "midi": 72,
      "hit": false,
      "t": 82285.776,
      "d": 280.95259166666074,
      "v": 112
    },
    {
      "midi": 75,
      "hit": false,
      "t": 82285.776,
      "d": 280.95259166666074,
      "v": 112
    },
    {
      "midi": 80,
      "hit": false,
      "t": 82285.776,
      "d": 280.95259166666074,
      "v": 112
    },
    {
      "midi": 41,
      "hit": false,
      "t": 82285.776,
      "d": 757.1434249999729,
      "v": 112
    },
    {
      "midi": 60,
      "hit": false,
      "t": 82304.82363333332,
      "d": 490.47655833333556,
      "v": 63
    },
    {
      "midi": 56,
      "hit": false,
      "t": 82304.82363333332,
      "d": 609.5242666666745,
      "v": 63
    },
    {
      "midi": 65,
      "hit": false,
      "t": 82304.82363333332,
      "d": 619.0480833333422,
      "v": 63
    },
    {
      "midi": 63,
      "hit": false,
      "t": 82304.82363333332,
      "d": 623.8099916666688,
      "v": 61
    },
    {
      "midi": 53,
      "hit": false,
      "t": 82304.82363333332,
      "d": 628.5718999999954,
      "v": 52
    },
    {
      "midi": 68,
      "hit": false,
      "t": 82571.49049999999,
      "d": 280.95259166666074,
      "v": 112
    },
    {
      "midi": 72,
      "hit": false,
      "t": 82571.49049999999,
      "d": 280.95259166666074,
      "v": 112
    },
    {
      "midi": 75,
      "hit": false,
      "t": 82571.49049999999,
      "d": 280.95259166666074,
      "v": 112
    },
    {
      "midi": 80,
      "hit": false,
      "t": 82571.49049999999,
      "d": 280.95259166666074,
      "v": 112
    },
    {
      "midi": 68,
      "hit": false,
      "t": 82857.20499999997,
      "d": 280.95259166666074,
      "v": 112
    },
    {
      "midi": 72,
      "hit": false,
      "t": 82857.20499999997,
      "d": 280.95259166666074,
      "v": 112
    },
    {
      "midi": 75,
      "hit": false,
      "t": 82857.20499999997,
      "d": 280.95259166666074,
      "v": 112
    },
    {
      "midi": 80,
      "hit": false,
      "t": 82857.20499999997,
      "d": 280.95259166666074,
      "v": 112
    },
    {
      "midi": 41,
      "hit": false,
      "t": 83142.91949999996,
      "d": 280.95259166666074,
      "v": 112
    },
    {
      "midi": 68,
      "hit": false,
      "t": 83142.91949999996,
      "d": 528.5718249999918,
      "v": 112
    },
    {
      "midi": 72,
      "hit": false,
      "t": 83142.91949999996,
      "d": 528.5718249999918,
      "v": 112
    },
    {
      "midi": 75,
      "hit": false,
      "t": 83142.91949999996,
      "d": 661.905258333325,
      "v": 112
    },
    {
      "midi": 80,
      "hit": false,
      "t": 83142.91949999996,
      "d": 661.905258333325,
      "v": 112
    },
    {
      "midi": 60,
      "hit": false,
      "t": 83161.96713333331,
      "d": 171.42870000000403,
      "v": 71
    },
    {
      "midi": 63,
      "hit": false,
      "t": 83161.96713333331,
      "d": 180.95251666667173,
      "v": 68
    },
    {
      "midi": 65,
      "hit": false,
      "t": 83161.96713333331,
      "d": 185.7144249999983,
      "v": 67
    },
    {
      "midi": 56,
      "hit": false,
      "t": 83161.96713333331,
      "d": 195.238241666666,
      "v": 65
    },
    {
      "midi": 53,
      "hit": false,
      "t": 83161.96713333331,
      "d": 200.00014999999257,
      "v": 63
    },
    {
      "midi": 41,
      "hit": false,
      "t": 83428.63399999995,
      "d": 695.2386166666693,
      "v": 112
    },
    {
      "midi": 63,
      "hit": false,
      "t": 83714.34849999995,
      "d": 514.2860999999975,
      "v": 112
    },
    {
      "midi": 72,
      "hit": false,
      "t": 83714.34849999995,
      "d": 514.2860999999975,
      "v": 112
    },
    {
      "midi": 68,
      "hit": false,
      "t": 83714.34849999995,
      "d": 528.5718249999918,
      "v": 112
    },
    {
      "midi": 36,
      "hit": false,
      "t": 84000.06299999995,
      "d": 661.905258333325,
      "v": 112
    },
    {
      "midi": 68,
      "hit": false,
      "t": 84285.77749999994,
      "d": 623.8099916666688,
      "v": 112
    },
    {
      "midi": 63,
      "hit": false,
      "t": 84285.77749999994,
      "d": 661.9052583333396,
      "v": 112
    },
    {
      "midi": 72,
      "hit": false,
      "t": 84285.77749999994,
      "d": 695.2386166666693,
      "v": 112
    },
    {
      "midi": 34,
      "hit": false,
      "t": 84571.49199999994,
      "d": 723.8100666666578,
      "v": 112
    },
    {
      "midi": 56,
      "hit": false,
      "t": 84590.5396333333,
      "d": 566.6670916666626,
      "v": 59
    },
    {
      "midi": 62,
      "hit": false,
      "t": 84590.5396333333,
      "d": 595.2385416666657,
      "v": 64
    },
    {
      "midi": 65,
      "hit": false,
      "t": 84590.5396333333,
      "d": 595.2385416666657,
      "v": 54
    },
    {
      "midi": 50,
      "hit": false,
      "t": 84590.5396333333,
      "d": 676.1909833333339,
      "v": 53
    },
    {
      "midi": 70,
      "hit": false,
      "t": 84857.20649999994,
      "d": 280.95259166666074,
      "v": 112
    },
    {
      "midi": 74,
      "hit": false,
      "t": 84857.20649999994,
      "d": 280.95259166666074,
      "v": 112
    },
    {
      "midi": 65,
      "hit": false,
      "t": 85142.92099999993,
      "d": 780.9529666666494,
      "v": 112
    },
    {
      "midi": 68,
      "hit": false,
      "t": 85142.92099999993,
      "d": 780.9529666666494,
      "v": 112
    },
    {
      "midi": 74,
      "hit": false,
      "t": 85142.92099999993,
      "d": 795.2386916666437,
      "v": 112
    },
    {
      "midi": 70,
      "hit": false,
      "t": 85166.73054166659,
      "d": 771.4291499999817,
      "v": 112
    },
    {
      "midi": 34,
      "hit": false,
      "t": 85428.63549999993,
      "d": 280.95259166666074,
      "v": 112
    },
    {
      "midi": 62,
      "hit": false,
      "t": 85447.68313333331,
      "d": 147.6191583333275,
      "v": 73
    },
    {
      "midi": 50,
      "hit": false,
      "t": 85447.68313333331,
      "d": 152.38106666665408,
      "v": 57
    },
    {
      "midi": 56,
      "hit": false,
      "t": 85447.68313333331,
      "d": 152.38106666665408,
      "v": 74
    },
    {
      "midi": 65,
      "hit": false,
      "t": 85447.68313333331,
      "d": 180.95251666665717,
      "v": 68
    },
    {
      "midi": 34,
      "hit": false,
      "t": 85714.34999999992,
      "d": 671.4290749999927,
      "v": 112
    },
    {
      "midi": 41,
      "hit": false,
      "t": 86285.77899999991,
      "d": 552.3813666666683,
      "v": 112
    },
    {
      "midi": 70,
      "hit": false,
      "t": 86571.49349999991,
      "d": 280.95259166666074,
      "v": 112
    },
    {
      "midi": 67,
      "hit": false,
      "t": 86857.2079999999,
      "d": 280.95259166666074,
      "v": 112
    },
    {
      "midi": 70,
      "hit": false,
      "t": 86857.2079999999,
      "d": 280.95259166666074,
      "v": 112
    },
    {
      "midi": 74,
      "hit": false,
      "t": 86857.2079999999,
      "d": 280.95259166666074,
      "v": 112
    },
    {
      "midi": 79,
      "hit": false,
      "t": 86857.2079999999,
      "d": 280.95259166666074,
      "v": 112
    },
    {
      "midi": 39,
      "hit": false,
      "t": 86857.2079999999,
      "d": 733.333883333311,
      "v": 112
    },
    {
      "midi": 62,
      "hit": false,
      "t": 86876.2556333333,
      "d": 1828.5727999999945,
      "v": 68
    },
    {
      "midi": 67,
      "hit": false,
      "t": 86876.2556333333,
      "d": 2000.0014999999985,
      "v": 66
    },
    {
      "midi": 70,
      "hit": false,
      "t": 86876.2556333333,
      "d": 2000.0014999999985,
      "v": 55
    },
    {
      "midi": 55,
      "hit": false,
      "t": 86876.2556333333,
      "d": 2266.668366666665,
      "v": 64
    },
    {
      "midi": 58,
      "hit": false,
      "t": 86876.2556333333,
      "d": 2266.668366666665,
      "v": 59
    },
    {
      "midi": 67,
      "hit": false,
      "t": 87142.92249999988,
      "d": 280.95259166666074,
      "v": 112
    },
    {
      "midi": 70,
      "hit": false,
      "t": 87142.92249999988,
      "d": 280.95259166666074,
      "v": 112
    },
    {
      "midi": 74,
      "hit": false,
      "t": 87142.92249999988,
      "d": 280.95259166666074,
      "v": 112
    },
    {
      "midi": 79,
      "hit": false,
      "t": 87142.92249999988,
      "d": 280.95259166666074,
      "v": 112
    },
    {
      "midi": 67,
      "hit": false,
      "t": 87428.63699999987,
      "d": 280.9525916666753,
      "v": 112
    },
    {
      "midi": 70,
      "hit": false,
      "t": 87428.63699999987,
      "d": 280.9525916666753,
      "v": 112
    },
    {
      "midi": 74,
      "hit": false,
      "t": 87428.63699999987,
      "d": 280.9525916666753,
      "v": 112
    },
    {
      "midi": 79,
      "hit": false,
      "t": 87428.63699999987,
      "d": 280.9525916666753,
      "v": 112
    },
    {
      "midi": 39,
      "hit": false,
      "t": 87714.35149999987,
      "d": 280.95259166666074,
      "v": 112
    },
    {
      "midi": 70,
      "hit": false,
      "t": 87714.35149999987,
      "d": 514.286099999983,
      "v": 112
    },
    {
      "midi": 67,
      "hit": false,
      "t": 87714.35149999987,
      "d": 528.5718249999773,
      "v": 112
    },
    {
      "midi": 79,
      "hit": false,
      "t": 87714.35149999987,
      "d": 638.0957166666485,
      "v": 112
    },
    {
      "midi": 74,
      "hit": false,
      "t": 87714.35149999987,
      "d": 647.6195333333162,
      "v": 112
    },
    {
      "midi": 39,
      "hit": false,
      "t": 88000.06599999986,
      "d": 671.4290749999927,
      "v": 112
    },
    {
      "midi": 63,
      "hit": false,
      "t": 88285.78049999985,
      "d": 500.00037500000326,
      "v": 112
    },
    {
      "midi": 67,
      "hit": false,
      "t": 88285.78049999985,
      "d": 500.00037500000326,
      "v": 112
    },
    {
      "midi": 70,
      "hit": false,
      "t": 88285.78049999985,
      "d": 500.00037500000326,
      "v": 112
    },
    {
      "midi": 43,
      "hit": false,
      "t": 88571.49499999985,
      "d": 661.9052583333396,
      "v": 112
    },
    {
      "midi": 67,
      "hit": false,
      "t": 88857.20949999985,
      "d": 638.0957166666776,
      "v": 112
    },
    {
      "midi": 63,
      "hit": false,
      "t": 88857.20949999985,
      "d": 661.9052583333396,
      "v": 112
    },
    {
      "midi": 70,
      "hit": false,
      "t": 88857.20949999985,
      "d": 685.7148000000016,
      "v": 112
    },
    {
      "midi": 62,
      "hit": false,
      "t": 88876.2571333333,
      "d": 266.66686666666646,
      "v": 77
    },
    {
      "midi": 36,
      "hit": false,
      "t": 89142.92399999985,
      "d": 528.5718250000064,
      "v": 112
    },
    {
      "midi": 55,
      "hit": false,
      "t": 89152.44781666664,
      "d": 723.8100666666578,
      "v": 67
    },
    {
      "midi": 60,
      "hit": false,
      "t": 89166.73354166663,
      "d": 633.3338083333219,
      "v": 69
    },
    {
      "midi": 63,
      "hit": false,
      "t": 89166.73354166663,
      "d": 642.8576249999896,
      "v": 76
    },
    {
      "midi": 70,
      "hit": false,
      "t": 89171.49544999996,
      "d": 604.7623583333334,
      "v": 75
    },
    {
      "midi": 72,
      "hit": false,
      "t": 89428.63849999986,
      "d": 280.9525916666753,
      "v": 112
    },
    {
      "midi": 36,
      "hit": false,
      "t": 89714.35299999986,
      "d": 390.476483333332,
      "v": 112
    },
    {
      "midi": 72,
      "hit": false,
      "t": 89714.35299999986,
      "d": 809.5244166666671,
      "v": 112
    },
    {
      "midi": 63,
      "hit": false,
      "t": 89714.35299999986,
      "d": 833.3339583333291,
      "v": 112
    },
    {
      "midi": 67,
      "hit": false,
      "t": 89714.35299999986,
      "d": 833.3339583333291,
      "v": 112
    },
    {
      "midi": 38,
      "hit": false,
      "t": 90000.06749999986,
      "d": 390.476483333332,
      "v": 112
    },
    {
      "midi": 58,
      "hit": false,
      "t": 90014.35322499997,
      "d": 628.5718999999808,
      "v": 62
    },
    {
      "midi": 60,
      "hit": false,
      "t": 90014.35322499997,
      "d": 709.524341666649,
      "v": 67
    },
    {
      "midi": 63,
      "hit": false,
      "t": 90014.35322499997,
      "d": 714.2862499999756,
      "v": 67
    },
    {
      "midi": 70,
      "hit": false,
      "t": 90019.1151333333,
      "d": 642.8576249999896,
      "v": 65
    },
    {
      "midi": 67,
      "hit": false,
      "t": 90023.87704166662,
      "d": 661.905258333325,
      "v": 68
    },
    {
      "midi": 39,
      "hit": false,
      "t": 90285.78199999986,
      "d": 390.47648333331745,
      "v": 112
    },
    {
      "midi": 38,
      "hit": false,
      "t": 90571.49649999985,
      "d": 280.95259166666074,
      "v": 112
    },
    {
      "midi": 36,
      "hit": false,
      "t": 90857.21099999984,
      "d": 842.8577749999968,
      "v": 112
    },
    {
      "midi": 68,
      "hit": false,
      "t": 91428.63999999984,
      "d": 280.95259166666074,
      "v": 112
    },
    {
      "midi": 72,
      "hit": false,
      "t": 91428.63999999984,
      "d": 280.95259166666074,
      "v": 112
    },
    {
      "midi": 75,
      "hit": false,
      "t": 91428.63999999984,
      "d": 280.95259166666074,
      "v": 112
    },
    {
      "midi": 80,
      "hit": false,
      "t": 91428.63999999984,
      "d": 280.95259166666074,
      "v": 112
    },
    {
      "midi": 41,
      "hit": false,
      "t": 91428.63999999984,
      "d": 747.6196083333052,
      "v": 112
    },
    {
      "midi": 60,
      "hit": false,
      "t": 91447.68763333328,
      "d": 566.6670916666626,
      "v": 62
    },
    {
      "midi": 68,
      "hit": false,
      "t": 91447.68763333328,
      "d": 566.6670916666626,
      "v": 63
    },
    {
      "midi": 63,
      "hit": false,
      "t": 91447.68763333328,
      "d": 580.9528166666569,
      "v": 55
    },
    {
      "midi": 51,
      "hit": false,
      "t": 91447.68763333328,
      "d": 895.2387666666618,
      "v": 63
    },
    {
      "midi": 69,
      "hit": false,
      "t": 91714.35449999983,
      "d": 280.95259166666074,
      "v": 112
    },
    {
      "midi": 72,
      "hit": false,
      "t": 91714.35449999983,
      "d": 280.95259166666074,
      "v": 112
    },
    {
      "midi": 75,
      "hit": false,
      "t": 91714.35449999983,
      "d": 280.95259166666074,
      "v": 112
    },
    {
      "midi": 80,
      "hit": false,
      "t": 91714.35449999983,
      "d": 280.95259166666074,
      "v": 112
    },
    {
      "midi": 68,
      "hit": false,
      "t": 92000.06899999981,
      "d": 280.95259166666074,
      "v": 112
    },
    {
      "midi": 72,
      "hit": false,
      "t": 92000.06899999981,
      "d": 280.95259166666074,
      "v": 112
    },
    {
      "midi": 75,
      "hit": false,
      "t": 92000.06899999981,
      "d": 280.95259166666074,
      "v": 112
    },
    {
      "midi": 80,
      "hit": false,
      "t": 92000.06899999981,
      "d": 280.95259166666074,
      "v": 112
    },
    {
      "midi": 41,
      "hit": false,
      "t": 92285.7834999998,
      "d": 280.95259166666074,
      "v": 112
    },
    {
      "midi": 68,
      "hit": false,
      "t": 92285.7834999998,
      "d": 500.0003749999887,
      "v": 112
    },
    {
      "midi": 72,
      "hit": false,
      "t": 92285.7834999998,
      "d": 500.0003749999887,
      "v": 112
    },
    {
      "midi": 75,
      "hit": false,
      "t": 92285.7834999998,
      "d": 661.905258333325,
      "v": 112
    },
    {
      "midi": 80,
      "hit": false,
      "t": 92285.7834999998,
      "d": 661.905258333325,
      "v": 112
    },
    {
      "midi": 41,
      "hit": false,
      "t": 92304.83113333327,
      "d": 157.14297500000976,
      "v": 63
    },
    {
      "midi": 63,
      "hit": false,
      "t": 92304.83113333327,
      "d": 161.90488333333633,
      "v": 59
    },
    {
      "midi": 65,
      "hit": false,
      "t": 92304.83113333327,
      "d": 161.90488333333633,
      "v": 63
    },
    {
      "midi": 60,
      "hit": false,
      "t": 92304.83113333327,
      "d": 200.00015000000712,
      "v": 63
    },
    {
      "midi": 41,
      "hit": false,
      "t": 92571.49799999979,
      "d": 695.2386166666693,
      "v": 112
    },
    {
      "midi": 68,
      "hit": false,
      "t": 92857.21249999979,
      "d": 490.47655833333556,
      "v": 112
    },
    {
      "midi": 63,
      "hit": false,
      "t": 92857.21249999979,
      "d": 514.2860999999975,
      "v": 112
    },
    {
      "midi": 72,
      "hit": false,
      "t": 92857.21249999979,
      "d": 514.2860999999975,
      "v": 112
    },
    {
      "midi": 36,
      "hit": false,
      "t": 93142.92699999979,
      "d": 795.2386916666728,
      "v": 112
    },
    {
      "midi": 68,
      "hit": false,
      "t": 93428.6414999998,
      "d": 638.0957166666776,
      "v": 112
    },
    {
      "midi": 72,
      "hit": false,
      "t": 93428.6414999998,
      "d": 647.6195333333453,
      "v": 112
    },
    {
      "midi": 63,
      "hit": false,
      "t": 93428.6414999998,
      "d": 661.9052583333396,
      "v": 112
    },
    {
      "midi": 34,
      "hit": false,
      "t": 93714.3559999998,
      "d": 695.2386166666693,
      "v": 112
    },
    {
      "midi": 58,
      "hit": false,
      "t": 93728.64172499994,
      "d": 571.4290000000037,
      "v": 63
    },
    {
      "midi": 62,
      "hit": false,
      "t": 93728.64172499994,
      "d": 590.4766333333391,
      "v": 69
    },
    {
      "midi": 65,
      "hit": false,
      "t": 93728.64172499994,
      "d": 600.0004500000068,
      "v": 62
    },
    {
      "midi": 50,
      "hit": false,
      "t": 93728.64172499994,
      "d": 623.8099916666688,
      "v": 53
    },
    {
      "midi": 70,
      "hit": false,
      "t": 94000.0704999998,
      "d": 280.9525916666753,
      "v": 112
    },
    {
      "midi": 74,
      "hit": false,
      "t": 94000.0704999998,
      "d": 280.9525916666753,
      "v": 112
    },
    {
      "midi": 74,
      "hit": false,
      "t": 94285.7849999998,
      "d": 514.2860999999975,
      "v": 112
    },
    {
      "midi": 65,
      "hit": false,
      "t": 94285.7849999998,
      "d": 638.0957166666631,
      "v": 112
    },
    {
      "midi": 68,
      "hit": false,
      "t": 94285.7849999998,
      "d": 647.6195333333162,
      "v": 112
    },
    {
      "midi": 70,
      "hit": false,
      "t": 94314.3564499998,
      "d": 614.2861749999865,
      "v": 112
    },
    {
      "midi": 34,
      "hit": false,
      "t": 94571.4994999998,
      "d": 280.95259166666074,
      "v": 112
    },
    {
      "midi": 62,
      "hit": false,
      "t": 94585.78522499994,
      "d": 161.90488333333633,
      "v": 65
    },
    {
      "midi": 50,
      "hit": false,
      "t": 94585.78522499994,
      "d": 166.6667916666629,
      "v": 56
    },
    {
      "midi": 68,
      "hit": false,
      "t": 94585.78522499994,
      "d": 180.95251666665717,
      "v": 61
    },
    {
      "midi": 58,
      "hit": false,
      "t": 94585.78522499994,
      "d": 204.76205833331915,
      "v": 69
    },
    {
      "midi": 74,
      "hit": false,
      "t": 94857.21399999979,
      "d": 419.04793333332054,
      "v": 112
    },
    {
      "midi": 62,
      "hit": false,
      "t": 94857.21399999979,
      "d": 514.286099999983,
      "v": 112
    },
    {
      "midi": 34,
      "hit": false,
      "t": 94857.21399999979,
      "d": 723.8100666666578,
      "v": 112
    },
    {
      "midi": 75,
      "hit": false,
      "t": 95242.92857499978,
      "d": 428.5717500000028,
      "v": 112
    },
    {
      "midi": 63,
      "hit": false,
      "t": 95242.92857499978,
      "d": 528.5718250000064,
      "v": 112
    },
    {
      "midi": 32,
      "hit": false,
      "t": 95428.64299999978,
      "d": 600.0004500000068,
      "v": 112
    },
    {
      "midi": 77,
      "hit": false,
      "t": 95552.45261666644,
      "d": 190.47633333333943,
      "v": 112
    },
    {
      "midi": 67,
      "hit": false,
      "t": 95623.88124166644,
      "d": 600.0004500000068,
      "v": 112
    },
    {
      "midi": 79,
      "hit": false,
      "t": 95623.88124166644,
      "d": 614.2861750000011,
      "v": 112
    },
    {
      "midi": 31,
      "hit": false,
      "t": 96000.07199999978,
      "d": 4590.479633333336,
      "v": 112
    },
    {
      "midi": 74,
      "hit": false,
      "t": 96019.11963333326,
      "d": 571.4290000000037,
      "v": 78
    },
    {
      "midi": 71,
      "hit": false,
      "t": 96019.11963333326,
      "d": 652.3814416666719,
      "v": 68
    },
    {
      "midi": 67,
      "hit": false,
      "t": 96019.11963333326,
      "d": 1328.5724250000058,
      "v": 67
    },
    {
      "midi": 55,
      "hit": false,
      "t": 96019.11963333326,
      "d": 1457.1439500000124,
      "v": 60
    },
    {
      "midi": 62,
      "hit": false,
      "t": 96019.11963333326,
      "d": 1476.1915833333478,
      "v": 51
    },
    {
      "midi": 74,
      "hit": false,
      "t": 96285.78649999978,
      "d": 1847.6204333333299,
      "v": 112
    },
    {
      "midi": 71,
      "hit": false,
      "t": 96285.78649999978,
      "d": 1871.4299749999918,
      "v": 112
    },
    {
      "midi": 67,
      "hit": false,
      "t": 96285.78649999978,
      "d": 1885.715699999986,
      "v": 112
    },
    {
      "midi": 79,
      "hit": false,
      "t": 96285.78649999978,
      "d": 1885.715699999986,
      "v": 112
    },
    {
      "midi": 74,
      "hit": false,
      "t": 96590.54863333327,
      "d": 328.57167499999923,
      "v": 66
    },
    {
      "midi": 71,
      "hit": false,
      "t": 96876.26313333327,
      "d": 480.95274166666786,
      "v": 72
    },
    {
      "midi": 43,
      "hit": false,
      "t": 98285.78799999977,
      "d": 2400.0018000000127,
      "v": 112
    },
    {
      "midi": 72,
      "hit": false,
      "t": 98571.50249999977,
      "d": 366.66694166667,
      "v": 112
    },
    {
      "midi": 62,
      "hit": false,
      "t": 98590.55013333328,
      "d": 714.2862500000047,
      "v": 62
    },
    {
      "midi": 71,
      "hit": false,
      "t": 98857.21699999977,
      "d": 404.7622083333408,
      "v": 112
    },
    {
      "midi": 67,
      "hit": false,
      "t": 98876.26463333328,
      "d": 633.3338083333365,
      "v": 60
    },
    {
      "midi": 72,
      "hit": false,
      "t": 99142.93149999977,
      "d": 404.7622083333408,
      "v": 112
    },
    {
      "midi": 74,
      "hit": false,
      "t": 99161.97913333328,
      "d": 333.33358333334036,
      "v": 67
    },
    {
      "midi": 71,
      "hit": false,
      "t": 99428.64599999978,
      "d": 390.476483333332,
      "v": 112
    },
    {
      "midi": 67,
      "hit": false,
      "t": 99714.36049999978,
      "d": 404.7622083333408,
      "v": 112
    },
    {
      "midi": 62,
      "hit": false,
      "t": 100000.07499999978,
      "d": 671.4290750000073,
      "v": 112
    },
    {
      "midi": 64,
      "hit": false,
      "t": 100571.50399999978,
      "d": 342.85740000000806,
      "v": 112
    },
    {
      "midi": 67,
      "hit": false,
      "t": 100571.50399999978,
      "d": 1271.4295249999996,
      "v": 112
    },
    {
      "midi": 55,
      "hit": false,
      "t": 100857.21849999978,
      "d": 442.85747499999707,
      "v": 112
    },
    {
      "midi": 64,
      "hit": false,
      "t": 101033.40910833329,
      "d": 1823.8108916666679,
      "v": 58
    },
    {
      "midi": 60,
      "hit": false,
      "t": 101142.93299999979,
      "d": 390.476483333332,
      "v": 112
    },
    {
      "midi": 67,
      "hit": false,
      "t": 101176.26635833329,
      "d": 1680.953641666667,
      "v": 62
    },
    {
      "midi": 72,
      "hit": false,
      "t": 101214.36162499996,
      "d": 1642.8583749999962,
      "v": 60
    },
    {
      "midi": 64,
      "hit": false,
      "t": 101428.64749999979,
      "d": 671.4290749999927,
      "v": 112
    },
    {
      "midi": 55,
      "hit": false,
      "t": 102000.07649999978,
      "d": 428.5717500000028,
      "v": 112
    },
    {
      "midi": 60,
      "hit": false,
      "t": 102285.79099999978,
      "d": 390.476483333332,
      "v": 112
    },
    {
      "midi": 64,
      "hit": false,
      "t": 102571.50549999978,
      "d": 414.2860250000085,
      "v": 112
    },
    {
      "midi": 65,
      "hit": false,
      "t": 102857.21999999978,
      "d": 280.9525916666753,
      "v": 112
    },
    {
      "midi": 68,
      "hit": false,
      "t": 102857.21999999978,
      "d": 280.9525916666753,
      "v": 112
    },
    {
      "midi": 48,
      "hit": false,
      "t": 102857.21999999978,
      "d": 2323.8112666666566,
      "v": 112
    },
    {
      "midi": 65,
      "hit": false,
      "t": 102861.98190833328,
      "d": 2280.954091666674,
      "v": 55
    },
    {
      "midi": 77,
      "hit": false,
      "t": 102861.98190833328,
      "d": 2280.954091666674,
      "v": 56
    },
    {
      "midi": 68,
      "hit": false,
      "t": 102871.50572499995,
      "d": 2271.430275000006,
      "v": 58
    },
    {
      "midi": 72,
      "hit": false,
      "t": 102871.50572499995,
      "d": 2271.430275000006,
      "v": 44
    },
    {
      "midi": 65,
      "hit": false,
      "t": 103142.93449999978,
      "d": 280.95259166666074,
      "v": 112
    },
    {
      "midi": 68,
      "hit": false,
      "t": 103142.93449999978,
      "d": 280.95259166666074,
      "v": 112
    },
    {
      "midi": 65,
      "hit": false,
      "t": 103428.64899999977,
      "d": 280.95259166666074,
      "v": 112
    },
    {
      "midi": 68,
      "hit": false,
      "t": 103428.64899999977,
      "d": 280.95259166666074,
      "v": 112
    },
    {
      "midi": 65,
      "hit": false,
      "t": 103714.36349999976,
      "d": 404.7622083333408,
      "v": 112
    },
    {
      "midi": 68,
      "hit": false,
      "t": 103714.36349999976,
      "d": 466.6670166666736,
      "v": 112
    },
    {
      "midi": 70,
      "hit": false,
      "t": 104000.07799999976,
      "d": 671.4290750000073,
      "v": 112
    },
    {
      "midi": 67,
      "hit": false,
      "t": 104000.07799999976,
      "d": 685.7148000000016,
      "v": 112
    },
    {
      "midi": 65,
      "hit": false,
      "t": 104571.50699999976,
      "d": 414.2860250000085,
      "v": 112
    },
    {
      "midi": 68,
      "hit": false,
      "t": 104571.50699999976,
      "d": 414.2860250000085,
      "v": 112
    },
    {
      "midi": 64,
      "hit": false,
      "t": 104857.22149999977,
      "d": 661.9052583333396,
      "v": 112
    },
    {
      "midi": 67,
      "hit": false,
      "t": 104857.22149999977,
      "d": 1566.6678416666691,
      "v": 112
    },
    {
      "midi": 36,
      "hit": false,
      "t": 105142.93599999977,
      "d": 28.571450000003097,
      "v": 112
    },
    {
      "midi": 55,
      "hit": false,
      "t": 105428.65049999977,
      "d": 414.2860250000085,
      "v": 112
    },
    {
      "midi": 64,
      "hit": false,
      "t": 105604.84110833329,
      "d": 1823.8108916666679,
      "v": 58
    },
    {
      "midi": 60,
      "hit": false,
      "t": 105714.36499999977,
      "d": 442.85747499999707,
      "v": 112
    },
    {
      "midi": 67,
      "hit": false,
      "t": 105747.69835833329,
      "d": 1680.953641666667,
      "v": 62
    },
    {
      "midi": 72,
      "hit": false,
      "t": 105785.79362499996,
      "d": 1642.8583749999962,
      "v": 60
    },
    {
      "midi": 64,
      "hit": false,
      "t": 106000.07949999977,
      "d": 647.6195333333162,
      "v": 112
    },
    {
      "midi": 55,
      "hit": false,
      "t": 106571.50849999976,
      "d": 404.76220833332627,
      "v": 112
    },
    {
      "midi": 60,
      "hit": false,
      "t": 106857.22299999975,
      "d": 452.38129166666477,
      "v": 112
    },
    {
      "midi": 64,
      "hit": false,
      "t": 107142.93749999975,
      "d": 404.7622083333408,
      "v": 112
    },
    {
      "midi": 65,
      "hit": false,
      "t": 107428.65199999975,
      "d": 280.9525916666753,
      "v": 112
    },
    {
      "midi": 68,
      "hit": false,
      "t": 107428.65199999975,
      "d": 280.9525916666753,
      "v": 112
    },
    {
      "midi": 48,
      "hit": false,
      "t": 107428.65199999975,
      "d": 2300.00172499998,
      "v": 112
    },
    {
      "midi": 77,
      "hit": false,
      "t": 107438.17581666663,
      "d": 1947.620508333348,
      "v": 81
    },
    {
      "midi": 65,
      "hit": false,
      "t": 107714.36649999976,
      "d": 280.95259166666074,
      "v": 112
    },
    {
      "midi": 68,
      "hit": false,
      "t": 107714.36649999976,
      "d": 280.95259166666074,
      "v": 112
    },
    {
      "midi": 65,
      "hit": false,
      "t": 108000.08099999974,
      "d": 280.95259166666074,
      "v": 112
    },
    {
      "midi": 68,
      "hit": false,
      "t": 108000.08099999974,
      "d": 280.95259166666074,
      "v": 112
    },
    {
      "midi": 68,
      "hit": false,
      "t": 108285.79549999973,
      "d": 561.905183333336,
      "v": 112
    },
    {
      "midi": 72,
      "hit": false,
      "t": 108285.79549999973,
      "d": 561.905183333336,
      "v": 112
    },
    {
      "midi": 65,
      "hit": false,
      "t": 108285.79549999973,
      "d": 695.2386166666693,
      "v": 112
    },
    {
      "midi": 72,
      "hit": false,
      "t": 108285.79549999996,
      "d": 1428.5724999999948,
      "v": 65
    },
    {
      "midi": 72,
      "hit": false,
      "t": 108857.22449999973,
      "d": 561.905183333336,
      "v": 112
    },
    {
      "midi": 76,
      "hit": false,
      "t": 108857.22449999973,
      "d": 561.905183333336,
      "v": 112
    },
    {
      "midi": 68,
      "hit": false,
      "t": 108857.22449999973,
      "d": 723.8100666666724,
      "v": 112
    },
    {
      "midi": 68,
      "hit": false,
      "t": 108857.22449999997,
      "d": 795.2386916666583,
      "v": 51
    },
    {
      "midi": 65,
      "hit": false,
      "t": 109142.93899999997,
      "d": 504.76228333332983,
      "v": 64
    },
    {
      "midi": 72,
      "hit": false,
      "t": 109428.65349999974,
      "d": 647.6195333333162,
      "v": 112
    },
    {
      "midi": 76,
      "hit": false,
      "t": 109428.65349999974,
      "d": 647.6195333333162,
      "v": 112
    },
    {
      "midi": 67,
      "hit": false,
      "t": 109428.65349999974,
      "d": 671.4290749999782,
      "v": 112
    },
    {
      "midi": 64,
      "hit": false,
      "t": 109719.12990833329,
      "d": 2280.954091666674,
      "v": 55
    },
    {
      "midi": 76,
      "hit": false,
      "t": 109719.12990833329,
      "d": 2280.954091666674,
      "v": 56
    },
    {
      "midi": 67,
      "hit": false,
      "t": 109728.65372499995,
      "d": 2271.430275000006,
      "v": 58
    },
    {
      "midi": 72,
      "hit": false,
      "t": 109728.65372499995,
      "d": 2271.430275000006,
      "v": 44
    },
    {
      "midi": 64,
      "hit": false,
      "t": 110000.08249999973,
      "d": 404.76220833332627,
      "v": 112
    },
    {
      "midi": 67,
      "hit": false,
      "t": 110285.79699999971,
      "d": 404.7622083333408,
      "v": 112
    },
    {
      "midi": 72,
      "hit": false,
      "t": 110571.51149999972,
      "d": 623.8099916666688,
      "v": 112
    },
    {
      "midi": 67,
      "hit": false,
      "t": 111142.94049999972,
      "d": 414.2860250000085,
      "v": 112
    },
    {
      "midi": 72,
      "hit": false,
      "t": 111428.65499999972,
      "d": 380.9526666666643,
      "v": 112
    },
    {
      "midi": 76,
      "hit": false,
      "t": 111428.65499999972,
      "d": 390.476483333332,
      "v": 112
    },
    {
      "midi": 71,
      "hit": false,
      "t": 111714.36949999972,
      "d": 647.6195333333308,
      "v": 112
    },
    {
      "midi": 48,
      "hit": false,
      "t": 112000.08399999973,
      "d": 2290.477908333298,
      "v": 112
    },
    {
      "midi": 62,
      "hit": false,
      "t": 112028.65544999996,
      "d": 2257.1445499999827,
      "v": 74
    },
    {
      "midi": 67,
      "hit": false,
      "t": 112033.41735833329,
      "d": 2252.382641666656,
      "v": 69
    },
    {
      "midi": 71,
      "hit": false,
      "t": 112038.17926666662,
      "d": 2247.6207333333296,
      "v": 56
    },
    {
      "midi": 62,
      "hit": false,
      "t": 112285.79849999973,
      "d": 357.1431249999878,
      "v": 112
    },
    {
      "midi": 67,
      "hit": false,
      "t": 112571.51299999972,
      "d": 366.66694166667,
      "v": 112
    },
    {
      "midi": 74,
      "hit": false,
      "t": 112857.22749999972,
      "d": 352.3812166666612,
      "v": 112
    },
    {
      "midi": 71,
      "hit": false,
      "t": 112857.22749999972,
      "d": 661.905258333325,
      "v": 112
    },
    {
      "midi": 67,
      "hit": false,
      "t": 113428.6564999997,
      "d": 380.9526666666643,
      "v": 112
    },
    {
      "midi": 72,
      "hit": false,
      "t": 113714.37099999971,
      "d": 280.95259166666074,
      "v": 112
    },
    {
      "midi": 76,
      "hit": false,
      "t": 113714.37099999971,
      "d": 428.57174999998824,
      "v": 112
    },
    {
      "midi": 69,
      "hit": false,
      "t": 114000.0854999997,
      "d": 685.714799999987,
      "v": 112
    },
    {
      "midi": 72,
      "hit": false,
      "t": 114000.0854999997,
      "d": 1552.3821166666603,
      "v": 112
    },
    {
      "midi": 36,
      "hit": false,
      "t": 114285.7999999997,
      "d": 28.571449999988545,
      "v": 112
    },
    {
      "midi": 60,
      "hit": false,
      "t": 114571.51449999968,
      "d": 390.476483333332,
      "v": 112
    },
    {
      "midi": 65,
      "hit": false,
      "t": 114857.22899999969,
      "d": 428.5717500000028,
      "v": 112
    },
    {
      "midi": 69,
      "hit": false,
      "t": 115142.94349999969,
      "d": 671.4290750000073,
      "v": 112
    },
    {
      "midi": 77,
      "hit": false,
      "t": 115447.70563333327,
      "d": 804.7625083333405,
      "v": 81
    },
    {
      "midi": 65,
      "hit": false,
      "t": 115714.37249999969,
      "d": 380.9526666666643,
      "v": 112
    },
    {
      "midi": 72,
      "hit": false,
      "t": 115723.8963166666,
      "d": 552.3813666666683,
      "v": 63
    },
    {
      "midi": 69,
      "hit": false,
      "t": 116000.0869999997,
      "d": 390.476483333332,
      "v": 112
    },
    {
      "midi": 65,
      "hit": false,
      "t": 116000.08699999994,
      "d": 261.9049583333399,
      "v": 62
    },
    {
      "midi": 72,
      "hit": false,
      "t": 116285.8014999997,
      "d": 357.1431250000023,
      "v": 112
    },
    {
      "midi": 67,
      "hit": false,
      "t": 116571.5159999997,
      "d": 390.476483333332,
      "v": 112
    },
    {
      "midi": 75,
      "hit": false,
      "t": 116571.5159999997,
      "d": 514.2860999999975,
      "v": 112
    },
    {
      "midi": 51,
      "hit": false,
      "t": 116571.5159999997,
      "d": 757.1434250000166,
      "v": 112
    },
    {
      "midi": 70,
      "hit": false,
      "t": 116857.2304999997,
      "d": 404.7622083333408,
      "v": 112
    },
    {
      "midi": 67,
      "hit": false,
      "t": 117142.9449999997,
      "d": 414.2860250000231,
      "v": 112
    },
    {
      "midi": 75,
      "hit": false,
      "t": 117142.9449999997,
      "d": 442.85747500002617,
      "v": 112
    },
    {
      "midi": 65,
      "hit": false,
      "t": 117428.65949999972,
      "d": 928.572125000006,
      "v": 112
    },
    {
      "midi": 50,
      "hit": false,
      "t": 117428.65949999972,
      "d": 952.381666666668,
      "v": 112
    },
    {
      "midi": 74,
      "hit": false,
      "t": 117428.65949999972,
      "d": 952.381666666668,
      "v": 112
    },
    {
      "midi": 69,
      "hit": false,
      "t": 117447.70713333327,
      "d": 838.0958666666702,
      "v": 57
    },
    {
      "midi": 65,
      "hit": false,
      "t": 117471.51667499993,
      "d": 814.2863250000082,
      "v": 51
    },
    {
      "midi": 57,
      "hit": false,
      "t": 117481.0404916666,
      "d": 804.7625083333405,
      "v": 60
    },
    {
      "midi": 62,
      "hit": false,
      "t": 117481.0404916666,
      "d": 804.7625083333405,
      "v": 74
    },
    {
      "midi": 46,
      "hit": false,
      "t": 118285.80299999972,
      "d": 404.7622083333408,
      "v": 112
    },
    {
      "midi": 70,
      "hit": false,
      "t": 118285.80299999972,
      "d": 404.7622083333408,
      "v": 112
    },
    {
      "midi": 62,
      "hit": false,
      "t": 118285.80299999972,
      "d": 614.2861750000011,
      "v": 112
    },
    {
      "midi": 58,
      "hit": false,
      "t": 118295.32681666661,
      "d": 561.905183333336,
      "v": 74
    },
    {
      "midi": 62,
      "hit": false,
      "t": 118314.37444999994,
      "d": 542.8575500000006,
      "v": 55
    },
    {
      "midi": 67,
      "hit": false,
      "t": 118319.13635833327,
      "d": 538.095641666674,
      "v": 51
    },
    {
      "midi": 70,
      "hit": false,
      "t": 118328.66017499994,
      "d": 528.5718250000064,
      "v": 59
    },
    {
      "midi": 67,
      "hit": false,
      "t": 118571.51749999973,
      "d": 280.9525916666753,
      "v": 112
    },
    {
      "midi": 43,
      "hit": false,
      "t": 118571.51749999973,
      "d": 466.66701666665904,
      "v": 112
    },
    {
      "midi": 64,
      "hit": false,
      "t": 118857.23199999973,
      "d": 380.95266666664975,
      "v": 112
    },
    {
      "midi": 67,
      "hit": false,
      "t": 118857.23199999973,
      "d": 1238.09616666667,
      "v": 112
    },
    {
      "midi": 36,
      "hit": false,
      "t": 118857.23199999973,
      "d": 4566.670091666587,
      "v": 112
    },
    {
      "midi": 64,
      "hit": false,
      "t": 118857.23199999995,
      "d": 2285.7160000000003,
      "v": 55
    },
    {
      "midi": 67,
      "hit": false,
      "t": 118890.56535833328,
      "d": 2252.3826416666707,
      "v": 57
    },
    {
      "midi": 72,
      "hit": false,
      "t": 118928.66062499995,
      "d": 2214.287375,
      "v": 55
    },
    {
      "midi": 55,
      "hit": false,
      "t": 119142.94649999971,
      "d": 404.7622083333408,
      "v": 112
    },
    {
      "midi": 60,
      "hit": false,
      "t": 119428.66099999972,
      "d": 414.2860250000085,
      "v": 112
    },
    {
      "midi": 64,
      "hit": false,
      "t": 119714.37549999972,
      "d": 647.6195333333453,
      "v": 112
    },
    {
      "midi": 55,
      "hit": false,
      "t": 120285.80449999974,
      "d": 280.95259166666074,
      "v": 112
    },
    {
      "midi": 60,
      "hit": false,
      "t": 120571.51899999972,
      "d": 280.95259166666074,
      "v": 112
    },
    {
      "midi": 64,
      "hit": false,
      "t": 120857.23349999971,
      "d": 357.1431250000023,
      "v": 112
    },
    {
      "midi": 65,
      "hit": false,
      "t": 121142.94799999971,
      "d": 280.95259166666074,
      "v": 112
    },
    {
      "midi": 68,
      "hit": false,
      "t": 121142.94799999971,
      "d": 280.95259166666074,
      "v": 112
    },
    {
      "midi": 48,
      "hit": false,
      "t": 121142.94799999971,
      "d": 2314.2874499999307,
      "v": 112
    },
    {
      "midi": 65,
      "hit": false,
      "t": 121147.70990833327,
      "d": 2280.954091666674,
      "v": 55
    },
    {
      "midi": 77,
      "hit": false,
      "t": 121147.70990833327,
      "d": 2280.954091666674,
      "v": 56
    },
    {
      "midi": 68,
      "hit": false,
      "t": 121157.23372499994,
      "d": 2271.430275000006,
      "v": 58
    },
    {
      "midi": 72,
      "hit": false,
      "t": 121157.23372499994,
      "d": 2271.430275000006,
      "v": 44
    },
    {
      "midi": 65,
      "hit": false,
      "t": 121428.6624999997,
      "d": 280.95259166666074,
      "v": 112
    },
    {
      "midi": 68,
      "hit": false,
      "t": 121428.6624999997,
      "d": 280.95259166666074,
      "v": 112
    },
    {
      "midi": 65,
      "hit": false,
      "t": 121714.37699999969,
      "d": 280.95259166666074,
      "v": 112
    },
    {
      "midi": 68,
      "hit": false,
      "t": 121714.37699999969,
      "d": 280.95259166666074,
      "v": 112
    },
    {
      "midi": 68,
      "hit": false,
      "t": 122000.09149999967,
      "d": 280.95259166666074,
      "v": 112
    },
    {
      "midi": 65,
      "hit": false,
      "t": 122000.09149999967,
      "d": 380.95266666664975,
      "v": 112
    },
    {
      "midi": 70,
      "hit": false,
      "t": 122285.80599999966,
      "d": 647.6195333333162,
      "v": 112
    },
    {
      "midi": 67,
      "hit": false,
      "t": 122285.80599999966,
      "d": 695.2386166666547,
      "v": 112
    },
    {
      "midi": 68,
      "hit": false,
      "t": 122857.23499999965,
      "d": 442.85747499999707,
      "v": 112
    },
    {
      "midi": 65,
      "hit": false,
      "t": 122857.23499999965,
      "d": 452.38129166666477,
      "v": 112
    },
    {
      "midi": 64,
      "hit": false,
      "t": 123142.94949999965,
      "d": 661.905258333325,
      "v": 112
    },
    {
      "midi": 67,
      "hit": false,
      "t": 123142.94949999965,
      "d": 1528.5725749999983,
      "v": 112
    },
    {
      "midi": 36,
      "hit": false,
      "t": 123428.66399999964,
      "d": 4528.574824999974,
      "v": 112
    },
    {
      "midi": 60,
      "hit": false,
      "t": 123457.23544999995,
      "d": 2257.1445499999827,
      "v": 74
    },
    {
      "midi": 64,
      "hit": false,
      "t": 123461.99735833328,
      "d": 2252.382641666656,
      "v": 69
    },
    {
      "midi": 67,
      "hit": false,
      "t": 123466.7592666666,
      "d": 2247.6207333333296,
      "v": 56
    },
    {
      "midi": 55,
      "hit": false,
      "t": 123714.37849999964,
      "d": 414.2860250000085,
      "v": 112
    },
    {
      "midi": 60,
      "hit": false,
      "t": 124000.09299999964,
      "d": 366.66694166667,
      "v": 112
    },
    {
      "midi": 64,
      "hit": false,
      "t": 124285.80749999965,
      "d": 695.2386166666693,
      "v": 112
    },
    {
      "midi": 55,
      "hit": false,
      "t": 124857.23649999965,
      "d": 428.5717500000028,
      "v": 112
    },
    {
      "midi": 60,
      "hit": false,
      "t": 125142.95099999965,
      "d": 404.7622083333408,
      "v": 112
    },
    {
      "midi": 64,
      "hit": false,
      "t": 125428.66549999965,
      "d": 404.7622083333408,
      "v": 112
    },
    {
      "midi": 65,
      "hit": false,
      "t": 125714.37999999966,
      "d": 280.9525916666753,
      "v": 112
    },
    {
      "midi": 68,
      "hit": false,
      "t": 125714.37999999966,
      "d": 280.9525916666753,
      "v": 112
    },
    {
      "midi": 48,
      "hit": false,
      "t": 125714.37999999966,
      "d": 2314.28744999996,
      "v": 112
    },
    {
      "midi": 65,
      "hit": false,
      "t": 125728.66572499993,
      "d": 1466.667766666651,
      "v": 52
    },
    {
      "midi": 60,
      "hit": false,
      "t": 125728.66572499993,
      "d": 1880.953791666645,
      "v": 58
    },
    {
      "midi": 72,
      "hit": false,
      "t": 125733.42763333325,
      "d": 1852.3823416666564,
      "v": 72
    },
    {
      "midi": 65,
      "hit": false,
      "t": 126000.09449999966,
      "d": 280.95259166666074,
      "v": 112
    },
    {
      "midi": 68,
      "hit": false,
      "t": 126000.09449999966,
      "d": 280.95259166666074,
      "v": 112
    },
    {
      "midi": 65,
      "hit": false,
      "t": 126285.80899999964,
      "d": 280.95259166666074,
      "v": 112
    },
    {
      "midi": 68,
      "hit": false,
      "t": 126285.80899999964,
      "d": 280.95259166666074,
      "v": 112
    },
    {
      "midi": 68,
      "hit": false,
      "t": 126547.71395833325,
      "d": 704.762433333337,
      "v": 54
    },
    {
      "midi": 65,
      "hit": false,
      "t": 126571.52349999963,
      "d": 280.95259166666074,
      "v": 112
    },
    {
      "midi": 68,
      "hit": false,
      "t": 126571.52349999963,
      "d": 280.95259166666074,
      "v": 112
    },
    {
      "midi": 68,
      "hit": false,
      "t": 126857.23799999962,
      "d": 280.95259166666074,
      "v": 112
    },
    {
      "midi": 72,
      "hit": false,
      "t": 126857.23799999962,
      "d": 280.95259166666074,
      "v": 112
    },
    {
      "midi": 65,
      "hit": false,
      "t": 126857.23799999962,
      "d": 390.47648333331745,
      "v": 112
    },
    {
      "midi": 72,
      "hit": false,
      "t": 127142.9524999996,
      "d": 561.905183333336,
      "v": 112
    },
    {
      "midi": 76,
      "hit": false,
      "t": 127142.9524999996,
      "d": 561.905183333336,
      "v": 112
    },
    {
      "midi": 68,
      "hit": false,
      "t": 127142.9524999996,
      "d": 671.4290750000073,
      "v": 112
    },
    {
      "midi": 65,
      "hit": false,
      "t": 127428.66699999991,
      "d": 147.6191583333275,
      "v": 62
    },
    {
      "midi": 67,
      "hit": false,
      "t": 127714.38149999961,
      "d": 661.9052583333396,
      "v": 112
    },
    {
      "midi": 72,
      "hit": false,
      "t": 127714.38149999961,
      "d": 661.9052583333396,
      "v": 112
    },
    {
      "midi": 76,
      "hit": false,
      "t": 127714.38149999961,
      "d": 709.5243416666781,
      "v": 112
    },
    {
      "midi": 60,
      "hit": false,
      "t": 127714.3814999999,
      "d": 228.57159999999567,
      "v": 66
    },
    {
      "midi": 64,
      "hit": false,
      "t": 128285.81049999961,
      "d": 357.1431250000023,
      "v": 112
    },
    {
      "midi": 67,
      "hit": false,
      "t": 128571.52499999962,
      "d": 442.85747499999707,
      "v": 112
    },
    {
      "midi": 72,
      "hit": false,
      "t": 128857.23949999962,
      "d": 561.9051833333215,
      "v": 112
    },
    {
      "midi": 76,
      "hit": false,
      "t": 129162.00163333323,
      "d": 804.7625083333405,
      "v": 81
    },
    {
      "midi": 72,
      "hit": false,
      "t": 129428.6684999996,
      "d": 390.476483333332,
      "v": 112
    },
    {
      "midi": 76,
      "hit": false,
      "t": 129428.6684999996,
      "d": 428.5717500000028,
      "v": 112
    },
    {
      "midi": 72,
      "hit": false,
      "t": 129438.19231666657,
      "d": 552.3813666666683,
      "v": 63
    },
    {
      "midi": 74,
      "hit": false,
      "t": 129714.38299999961,
      "d": 280.95259166666074,
      "v": 112
    },
    {
      "midi": 77,
      "hit": false,
      "t": 129714.38299999961,
      "d": 414.28602499999397,
      "v": 112
    },
    {
      "midi": 64,
      "hit": false,
      "t": 129714.3829999999,
      "d": 261.9049583333399,
      "v": 62
    },
    {
      "midi": 71,
      "hit": false,
      "t": 130000.0974999996,
      "d": 671.4290750000073,
      "v": 112
    },
    {
      "midi": 48,
      "hit": false,
      "t": 130285.8119999996,
      "d": 2314.2874500000034,
      "v": 112
    },
    {
      "midi": 62,
      "hit": false,
      "t": 130571.5264999996,
      "d": 404.7622083333408,
      "v": 112
    },
    {
      "midi": 67,
      "hit": false,
      "t": 130747.71710833324,
      "d": 1823.810891666697,
      "v": 58
    },
    {
      "midi": 67,
      "hit": false,
      "t": 130857.2409999996,
      "d": 390.476483333332,
      "v": 112
    },
    {
      "midi": 71,
      "hit": false,
      "t": 130890.57435833324,
      "d": 1680.953641666696,
      "v": 62
    },
    {
      "midi": 74,
      "hit": false,
      "t": 130928.66962499991,
      "d": 1642.8583750000253,
      "v": 60
    },
    {
      "midi": 74,
      "hit": false,
      "t": 131142.9554999996,
      "d": 400.00029999998515,
      "v": 112
    },
    {
      "midi": 71,
      "hit": false,
      "t": 131142.9554999996,
      "d": 561.9051833333215,
      "v": 112
    },
    {
      "midi": 71,
      "hit": false,
      "t": 131714.38449999958,
      "d": 380.95266666667885,
      "v": 112
    },
    {
      "midi": 72,
      "hit": false,
      "t": 132000.09899999958,
      "d": 280.95259166668984,
      "v": 112
    },
    {
      "midi": 76,
      "hit": false,
      "t": 132000.09899999958,
      "d": 428.5717500000319,
      "v": 112
    },
    {
      "midi": 72,
      "hit": false,
      "t": 132285.8134999996,
      "d": 661.9052583333396,
      "v": 112
    },
    {
      "midi": 69,
      "hit": false,
      "t": 132285.8134999996,
      "d": 685.7148000000161,
      "v": 112
    },
    {
      "midi": 36,
      "hit": false,
      "t": 132571.5279999996,
      "d": 28.571449999988545,
      "v": 112
    },
    {
      "midi": 65,
      "hit": false,
      "t": 132576.28990833327,
      "d": 2280.9540916666447,
      "v": 55
    },
    {
      "midi": 77,
      "hit": false,
      "t": 132576.28990833327,
      "d": 2280.9540916666447,
      "v": 56
    },
    {
      "midi": 69,
      "hit": false,
      "t": 132585.81372499993,
      "d": 2271.4302749999915,
      "v": 58
    },
    {
      "midi": 72,
      "hit": false,
      "t": 132585.81372499993,
      "d": 2271.4302749999915,
      "v": 44
    },
    {
      "midi": 60,
      "hit": false,
      "t": 132857.24249999961,
      "d": 414.2860250000085,
      "v": 112
    },
    {
      "midi": 65,
      "hit": false,
      "t": 133142.95699999962,
      "d": 442.85747499999707,
      "v": 112
    },
    {
      "midi": 72,
      "hit": false,
      "t": 133428.67149999962,
      "d": 671.4290749999927,
      "v": 112
    },
    {
      "midi": 69,
      "hit": false,
      "t": 133428.67149999962,
      "d": 685.714799999987,
      "v": 112
    },
    {
      "midi": 65,
      "hit": false,
      "t": 134000.10049999962,
      "d": 390.4764833333029,
      "v": 112
    },
    {
      "midi": 69,
      "hit": false,
      "t": 134285.8149999996,
      "d": 366.6669416666555,
      "v": 112
    },
    {
      "midi": 72,
      "hit": false,
      "t": 134285.8149999996,
      "d": 404.76220833332627,
      "v": 112
    },
    {
      "midi": 71,
      "hit": false,
      "t": 134571.5294999996,
      "d": 390.476483333332,
      "v": 112
    },
    {
      "midi": 74,
      "hit": false,
      "t": 134571.5294999996,
      "d": 390.476483333332,
      "v": 112
    },
    {
      "midi": 75,
      "hit": false,
      "t": 134857.2439999996,
      "d": 280.95259166666074,
      "v": 112
    },
    {
      "midi": 51,
      "hit": false,
      "t": 134857.2439999996,
      "d": 723.8100666666578,
      "v": 112
    },
    {
      "midi": 67,
      "hit": false,
      "t": 134857.2439999996,
      "d": 795.2386916666583,
      "v": 112
    },
    {
      "midi": 55,
      "hit": false,
      "t": 134866.76781666657,
      "d": 228.57159999999567,
      "v": 59
    },
    {
      "midi": 58,
      "hit": false,
      "t": 134885.8154499999,
      "d": 209.52396666666027,
      "v": 40
    },
    {
      "midi": 63,
      "hit": false,
      "t": 134890.57735833325,
      "d": 204.76205833331915,
      "v": 36
    },
    {
      "midi": 67,
      "hit": false,
      "t": 134900.1011749999,
      "d": 195.238241666666,
      "v": 44
    },
    {
      "midi": 75,
      "hit": false,
      "t": 135142.9584999996,
      "d": 280.95259166666074,
      "v": 112
    },
    {
      "midi": 57,
      "hit": false,
      "t": 135152.48231666657,
      "d": 514.2860999999975,
      "v": 74
    },
    {
      "midi": 62,
      "hit": false,
      "t": 135171.5299499999,
      "d": 495.23846666666213,
      "v": 55
    },
    {
      "midi": 65,
      "hit": false,
      "t": 135176.29185833325,
      "d": 490.476558333321,
      "v": 51
    },
    {
      "midi": 69,
      "hit": false,
      "t": 135185.8156749999,
      "d": 480.95274166666786,
      "v": 59
    },
    {
      "midi": 75,
      "hit": false,
      "t": 135428.6729999996,
      "d": 366.6669416666555,
      "v": 112
    },
    {
      "midi": 74,
      "hit": false,
      "t": 135714.3874999996,
      "d": 561.9051833333215,
      "v": 112
    },
    {
      "midi": 64,
      "hit": false,
      "t": 135714.3874999996,
      "d": 695.2386166666402,
      "v": 112
    },
    {
      "midi": 50,
      "hit": false,
      "t": 135714.3874999996,
      "d": 990.4769333333243,
      "v": 112
    },
    {
      "midi": 58,
      "hit": false,
      "t": 135742.9589499999,
      "d": 1390.4772333333094,
      "v": 72
    },
    {
      "midi": 62,
      "hit": false,
      "t": 135742.9589499999,
      "d": 1390.4772333333094,
      "v": 59
    },
    {
      "midi": 53,
      "hit": false,
      "t": 135752.48276666657,
      "d": 1380.9534166666563,
      "v": 54
    },
    {
      "midi": 70,
      "hit": false,
      "t": 136285.81649999958,
      "d": 780.9529666666931,
      "v": 112
    },
    {
      "midi": 62,
      "hit": false,
      "t": 136285.81649999958,
      "d": 809.5244166666816,
      "v": 112
    },
    {
      "midi": 46,
      "hit": false,
      "t": 136571.53099999958,
      "d": 561.9051833333506,
      "v": 112
    },
    {
      "midi": 39,
      "hit": false,
      "t": 137142.95999999958,
      "d": 757.1434250000166,
      "v": 112
    },
    {
      "midi": 67,
      "hit": false,
      "t": 137428.6744999996,
      "d": 280.95259166666074,
      "v": 112
    },
    {
      "midi": 70,
      "hit": false,
      "t": 137428.6744999996,
      "d": 280.95259166666074,
      "v": 112
    },
    {
      "midi": 74,
      "hit": false,
      "t": 137428.6744999996,
      "d": 280.95259166666074,
      "v": 112
    },
    {
      "midi": 79,
      "hit": false,
      "t": 137428.6744999996,
      "d": 280.95259166666074,
      "v": 112
    },
    {
      "midi": 67,
      "hit": false,
      "t": 137714.3889999996,
      "d": 280.95259166668984,
      "v": 112
    },
    {
      "midi": 70,
      "hit": false,
      "t": 137714.3889999996,
      "d": 280.95259166668984,
      "v": 112
    },
    {
      "midi": 74,
      "hit": false,
      "t": 137714.3889999996,
      "d": 280.95259166668984,
      "v": 112
    },
    {
      "midi": 79,
      "hit": false,
      "t": 137714.3889999996,
      "d": 280.95259166668984,
      "v": 112
    },
    {
      "midi": 39,
      "hit": false,
      "t": 138000.10349999962,
      "d": 280.95259166666074,
      "v": 112
    },
    {
      "midi": 67,
      "hit": false,
      "t": 138000.10349999962,
      "d": 280.95259166666074,
      "v": 112
    },
    {
      "midi": 70,
      "hit": false,
      "t": 138000.10349999962,
      "d": 280.95259166666074,
      "v": 112
    },
    {
      "midi": 74,
      "hit": false,
      "t": 138000.10349999962,
      "d": 280.95259166666074,
      "v": 112
    },
    {
      "midi": 79,
      "hit": false,
      "t": 138000.10349999962,
      "d": 280.95259166666074,
      "v": 112
    },
    {
      "midi": 67,
      "hit": false,
      "t": 138285.81799999962,
      "d": 561.9051833333215,
      "v": 112
    },
    {
      "midi": 70,
      "hit": false,
      "t": 138285.81799999962,
      "d": 561.9051833333215,
      "v": 112
    },
    {
      "midi": 74,
      "hit": false,
      "t": 138285.81799999962,
      "d": 561.9051833333215,
      "v": 112
    },
    {
      "midi": 79,
      "hit": false,
      "t": 138285.81799999962,
      "d": 671.4290749999636,
      "v": 112
    },
    {
      "midi": 39,
      "hit": false,
      "t": 138285.81799999962,
      "d": 1238.0961666666262,
      "v": 112
    },
    {
      "midi": 70,
      "hit": false,
      "t": 138304.86563333322,
      "d": 804.7625083333114,
      "v": 81
    },
    {
      "midi": 67,
      "hit": false,
      "t": 138581.05631666657,
      "d": 552.3813666666101,
      "v": 63
    },
    {
      "midi": 77,
      "hit": false,
      "t": 138857.2469999996,
      "d": 428.5717500000028,
      "v": 112
    },
    {
      "midi": 67,
      "hit": false,
      "t": 138857.2469999996,
      "d": 638.0957166666631,
      "v": 112
    },
    {
      "midi": 70,
      "hit": false,
      "t": 138857.2469999996,
      "d": 685.714799999987,
      "v": 112
    },
    {
      "midi": 62,
      "hit": false,
      "t": 138857.2469999999,
      "d": 261.90495833329624,
      "v": 62
    },
    {
      "midi": 75,
      "hit": false,
      "t": 139142.9614999996,
      "d": 280.95259166666074,
      "v": 112
    },
    {
      "midi": 68,
      "hit": false,
      "t": 139428.6759999996,
      "d": 561.9051833333215,
      "v": 112
    },
    {
      "midi": 72,
      "hit": false,
      "t": 139428.6759999996,
      "d": 561.9051833333215,
      "v": 112
    },
    {
      "midi": 75,
      "hit": false,
      "t": 139428.6759999996,
      "d": 671.4290749999636,
      "v": 112
    },
    {
      "midi": 79,
      "hit": false,
      "t": 139428.6759999996,
      "d": 695.2386166666402,
      "v": 112
    },
    {
      "midi": 44,
      "hit": false,
      "t": 139428.6759999996,
      "d": 723.8100666666287,
      "v": 112
    },
    {
      "midi": 77,
      "hit": false,
      "t": 140000.10499999957,
      "d": 390.476483333332,
      "v": 112
    },
    {
      "midi": 72,
      "hit": false,
      "t": 140000.10499999957,
      "d": 500.00037500000326,
      "v": 112
    },
    {
      "midi": 68,
      "hit": false,
      "t": 140000.10499999957,
      "d": 528.5718249999918,
      "v": 112
    },
    {
      "midi": 44,
      "hit": false,
      "t": 140285.81949999958,
      "d": 280.95259166666074,
      "v": 112
    },
    {
      "midi": 75,
      "hit": false,
      "t": 140285.81949999958,
      "d": 280.95259166666074,
      "v": 112
    },
    {
      "midi": 68,
      "hit": false,
      "t": 140571.53399999958,
      "d": 561.9051833333215,
      "v": 112
    },
    {
      "midi": 72,
      "hit": false,
      "t": 140571.53399999958,
      "d": 561.9051833333215,
      "v": 112
    },
    {
      "midi": 75,
      "hit": false,
      "t": 140571.53399999958,
      "d": 647.6195333333162,
      "v": 112
    },
    {
      "midi": 79,
      "hit": false,
      "t": 140571.53399999958,
      "d": 647.6195333333162,
      "v": 112
    },
    {
      "midi": 44,
      "hit": false,
      "t": 140571.53399999958,
      "d": 1076.191283333319,
      "v": 112
    },
    {
      "midi": 75,
      "hit": false,
      "t": 140590.58163333317,
      "d": 804.7625083333114,
      "v": 81
    },
    {
      "midi": 72,
      "hit": false,
      "t": 140866.77231666652,
      "d": 552.3813666666101,
      "v": 63
    },
    {
      "midi": 77,
      "hit": false,
      "t": 141142.96299999955,
      "d": 414.2860250000085,
      "v": 112
    },
    {
      "midi": 72,
      "hit": false,
      "t": 141142.96299999955,
      "d": 576.190908333374,
      "v": 112
    },
    {
      "midi": 68,
      "hit": false,
      "t": 141142.96299999955,
      "d": 623.8099916666979,
      "v": 112
    },
    {
      "midi": 67,
      "hit": false,
      "t": 141142.96299999984,
      "d": 261.90495833329624,
      "v": 62
    },
    {
      "midi": 75,
      "hit": false,
      "t": 141428.67749999955,
      "d": 280.95259166668984,
      "v": 112
    },
    {
      "midi": 43,
      "hit": false,
      "t": 141714.39199999959,
      "d": 723.8100666666578,
      "v": 112
    },
    {
      "midi": 63,
      "hit": false,
      "t": 141719.15390833316,
      "d": 2280.9540916666447,
      "v": 55
    },
    {
      "midi": 75,
      "hit": false,
      "t": 141719.15390833316,
      "d": 2280.9540916666447,
      "v": 56
    },
    {
      "midi": 67,
      "hit": false,
      "t": 141728.6777249998,
      "d": 2271.4302749999915,
      "v": 58
    },
    {
      "midi": 70,
      "hit": false,
      "t": 141728.6777249998,
      "d": 2271.4302749999915,
      "v": 44
    },
    {
      "midi": 67,
      "hit": false,
      "t": 142000.1064999996,
      "d": 280.95259166666074,
      "v": 112
    },
    {
      "midi": 70,
      "hit": false,
      "t": 142000.1064999996,
      "d": 280.95259166666074,
      "v": 112
    },
    {
      "midi": 79,
      "hit": false,
      "t": 142000.1064999996,
      "d": 452.3812916666502,
      "v": 112
    },
    {
      "midi": 67,
      "hit": false,
      "t": 142285.8209999996,
      "d": 280.95259166666074,
      "v": 112
    },
    {
      "midi": 70,
      "hit": false,
      "t": 142285.8209999996,
      "d": 280.95259166666074,
      "v": 112
    },
    {
      "midi": 77,
      "hit": false,
      "t": 142285.8209999996,
      "d": 380.95266666667885,
      "v": 112
    },
    {
      "midi": 43,
      "hit": false,
      "t": 142571.5354999996,
      "d": 280.95259166668984,
      "v": 112
    },
    {
      "midi": 67,
      "hit": false,
      "t": 142571.5354999996,
      "d": 280.95259166668984,
      "v": 112
    },
    {
      "midi": 70,
      "hit": false,
      "t": 142571.5354999996,
      "d": 280.95259166668984,
      "v": 112
    },
    {
      "midi": 75,
      "hit": false,
      "t": 142571.5354999996,
      "d": 357.14312500003143,
      "v": 112
    },
    {
      "midi": 67,
      "hit": false,
      "t": 142857.24999999962,
      "d": 561.9051833333215,
      "v": 112
    },
    {
      "midi": 70,
      "hit": false,
      "t": 142857.24999999962,
      "d": 561.9051833333215,
      "v": 112
    },
    {
      "midi": 79,
      "hit": false,
      "t": 142857.24999999962,
      "d": 685.714799999987,
      "v": 112
    },
    {
      "midi": 43,
      "hit": false,
      "t": 142857.24999999962,
      "d": 1200.0009000000427,
      "v": 112
    },
    {
      "midi": 67,
      "hit": false,
      "t": 143428.6789999996,
      "d": 280.95259166668984,
      "v": 112
    },
    {
      "midi": 77,
      "hit": false,
      "t": 143428.6789999996,
      "d": 380.95266666670796,
      "v": 112
    },
    {
      "midi": 70,
      "hit": false,
      "t": 143428.6789999996,
      "d": 514.2861000000557,
      "v": 112
    },
    {
      "midi": 74,
      "hit": false,
      "t": 143714.39349999963,
      "d": 280.95259166668984,
      "v": 112
    },
    {
      "midi": 76,
      "hit": false,
      "t": 144000.10799999966,
      "d": 280.95259166666074,
      "v": 112
    },
    {
      "midi": 70,
      "hit": false,
      "t": 144000.10799999966,
      "d": 733.33388333334,
      "v": 112
    },
    {
      "midi": 36,
      "hit": false,
      "t": 144000.10799999966,
      "d": 747.6196083333343,
      "v": 112
    },
    {
      "midi": 64,
      "hit": false,
      "t": 144000.10799999966,
      "d": 757.1434249999875,
      "v": 112
    },
    {
      "midi": 48,
      "hit": false,
      "t": 144000.10799999966,
      "d": 809.5244166666525,
      "v": 112
    },
    {
      "midi": 76,
      "hit": false,
      "t": 144285.82249999966,
      "d": 280.95259166666074,
      "v": 112
    },
    {
      "midi": 53,
      "hit": false,
      "t": 144295.34631666646,
      "d": 514.2860999999975,
      "v": 74
    },
    {
      "midi": 58,
      "hit": false,
      "t": 144314.3939499998,
      "d": 495.23846666666213,
      "v": 55
    },
    {
      "midi": 62,
      "hit": false,
      "t": 144319.15585833314,
      "d": 490.476558333321,
      "v": 51
    },
    {
      "midi": 65,
      "hit": false,
      "t": 144328.6796749998,
      "d": 480.95274166666786,
      "v": 59
    },
    {
      "midi": 76,
      "hit": false,
      "t": 144571.53699999966,
      "d": 428.5717499999737,
      "v": 112
    },
    {
      "midi": 64,
      "hit": false,
      "t": 144857.25149999963,
      "d": 561.9051833333215,
      "v": 112
    },
    {
      "midi": 70,
      "hit": false,
      "t": 144857.25149999963,
      "d": 561.9051833333215,
      "v": 112
    },
    {
      "midi": 77,
      "hit": false,
      "t": 144857.25149999963,
      "d": 561.9051833333215,
      "v": 112
    },
    {
      "midi": 38,
      "hit": false,
      "t": 144857.25149999963,
      "d": 685.714799999987,
      "v": 112
    },
    {
      "midi": 50,
      "hit": false,
      "t": 144857.25149999963,
      "d": 709.5243416666635,
      "v": 112
    },
    {
      "midi": 58,
      "hit": false,
      "t": 144885.8229499998,
      "d": 1390.4772333333385,
      "v": 72
    },
    {
      "midi": 64,
      "hit": false,
      "t": 144885.8229499998,
      "d": 1390.4772333333385,
      "v": 59
    },
    {
      "midi": 60,
      "hit": false,
      "t": 144890.58485833314,
      "d": 1385.7153249999974,
      "v": 67
    },
    {
      "midi": 55,
      "hit": false,
      "t": 144895.34676666648,
      "d": 1380.9534166666563,
      "v": 54
    },
    {
      "midi": 64,
      "hit": false,
      "t": 145428.6804999996,
      "d": 809.5244166667107,
      "v": 112
    },
    {
      "midi": 70,
      "hit": false,
      "t": 145428.6804999996,
      "d": 819.0482333333639,
      "v": 112
    },
    {
      "midi": 79,
      "hit": false,
      "t": 145428.6804999996,
      "d": 819.0482333333639,
      "v": 112
    },
    {
      "midi": 40,
      "hit": false,
      "t": 145714.39499999964,
      "d": 647.6195333333453,
      "v": 112
    },
    {
      "midi": 52,
      "hit": false,
      "t": 145714.39499999964,
      "d": 709.5243416666926,
      "v": 112
    },
    {
      "midi": 68,
      "hit": false,
      "t": 146285.82399999964,
      "d": 280.95259166668984,
      "v": 112
    },
    {
      "midi": 72,
      "hit": false,
      "t": 146285.82399999964,
      "d": 280.95259166668984,
      "v": 112
    },
    {
      "midi": 75,
      "hit": false,
      "t": 146285.82399999964,
      "d": 280.95259166668984,
      "v": 112
    },
    {
      "midi": 80,
      "hit": false,
      "t": 146285.82399999964,
      "d": 280.95259166668984,
      "v": 112
    },
    {
      "midi": 41,
      "hit": false,
      "t": 146285.82399999964,
      "d": 723.8100666666869,
      "v": 112
    },
    {
      "midi": 53,
      "hit": false,
      "t": 146285.82399999964,
      "d": 819.0482333333639,
      "v": 112
    },
    {
      "midi": 60,
      "hit": false,
      "t": 146304.87163333312,
      "d": 566.6670916666626,
      "v": 62
    },
    {
      "midi": 68,
      "hit": false,
      "t": 146304.87163333312,
      "d": 566.6670916666626,
      "v": 63
    },
    {
      "midi": 63,
      "hit": false,
      "t": 146304.87163333312,
      "d": 580.9528166666569,
      "v": 55
    },
    {
      "midi": 51,
      "hit": false,
      "t": 146304.87163333312,
      "d": 895.2387666666473,
      "v": 63
    },
    {
      "midi": 68,
      "hit": false,
      "t": 146571.53849999967,
      "d": 280.95259166666074,
      "v": 112
    },
    {
      "midi": 72,
      "hit": false,
      "t": 146571.53849999967,
      "d": 280.95259166666074,
      "v": 112
    },
    {
      "midi": 75,
      "hit": false,
      "t": 146571.53849999967,
      "d": 280.95259166666074,
      "v": 112
    },
    {
      "midi": 80,
      "hit": false,
      "t": 146571.53849999967,
      "d": 280.95259166666074,
      "v": 112
    },
    {
      "midi": 68,
      "hit": false,
      "t": 146857.25299999968,
      "d": 280.95259166666074,
      "v": 112
    },
    {
      "midi": 72,
      "hit": false,
      "t": 146857.25299999968,
      "d": 280.95259166666074,
      "v": 112
    },
    {
      "midi": 75,
      "hit": false,
      "t": 146857.25299999968,
      "d": 280.95259166666074,
      "v": 112
    },
    {
      "midi": 80,
      "hit": false,
      "t": 146857.25299999968,
      "d": 280.95259166666074,
      "v": 112
    },
    {
      "midi": 41,
      "hit": false,
      "t": 147142.96749999968,
      "d": 280.95259166666074,
      "v": 112
    },
    {
      "midi": 68,
      "hit": false,
      "t": 147142.96749999968,
      "d": 500.00037500000326,
      "v": 112
    },
    {
      "midi": 72,
      "hit": false,
      "t": 147142.96749999968,
      "d": 514.2860999999975,
      "v": 112
    },
    {
      "midi": 80,
      "hit": false,
      "t": 147142.96749999968,
      "d": 647.6195333333453,
      "v": 112
    },
    {
      "midi": 75,
      "hit": false,
      "t": 147142.96749999968,
      "d": 685.7148000000161,
      "v": 112
    },
    {
      "midi": 41,
      "hit": false,
      "t": 147162.0151333331,
      "d": 157.1429749999952,
      "v": 63
    },
    {
      "midi": 63,
      "hit": false,
      "t": 147162.0151333331,
      "d": 161.90488333333633,
      "v": 59
    },
    {
      "midi": 65,
      "hit": false,
      "t": 147162.0151333331,
      "d": 161.90488333333633,
      "v": 63
    },
    {
      "midi": 60,
      "hit": false,
      "t": 147162.0151333331,
      "d": 200.00015000000712,
      "v": 63
    },
    {
      "midi": 41,
      "hit": false,
      "t": 147428.68199999968,
      "d": 709.5243416666635,
      "v": 112
    },
    {
      "midi": 63,
      "hit": false,
      "t": 147714.39649999968,
      "d": 514.2860999999975,
      "v": 112
    },
    {
      "midi": 68,
      "hit": false,
      "t": 147714.39649999968,
      "d": 528.5718249999918,
      "v": 112
    },
    {
      "midi": 72,
      "hit": false,
      "t": 147714.39649999968,
      "d": 528.5718249999918,
      "v": 112
    },
    {
      "midi": 48,
      "hit": false,
      "t": 148000.11099999968,
      "d": 695.2386166666693,
      "v": 112
    },
    {
      "midi": 68,
      "hit": false,
      "t": 148285.8254999997,
      "d": 647.6195333333453,
      "v": 112
    },
    {
      "midi": 63,
      "hit": false,
      "t": 148285.8254999997,
      "d": 661.9052583333396,
      "v": 112
    },
    {
      "midi": 72,
      "hit": false,
      "t": 148285.8254999997,
      "d": 661.9052583333396,
      "v": 112
    },
    {
      "midi": 46,
      "hit": false,
      "t": 148571.5399999997,
      "d": 747.6196083333343,
      "v": 112
    },
    {
      "midi": 56,
      "hit": false,
      "t": 148585.82572499977,
      "d": 495.23846666666213,
      "v": 60
    },
    {
      "midi": 50,
      "hit": false,
      "t": 148585.82572499977,
      "d": 528.5718249999918,
      "v": 48
    },
    {
      "midi": 62,
      "hit": false,
      "t": 148585.82572499977,
      "d": 552.3813666666683,
      "v": 63
    },
    {
      "midi": 70,
      "hit": false,
      "t": 148857.2544999997,
      "d": 280.95259166666074,
      "v": 112
    },
    {
      "midi": 74,
      "hit": false,
      "t": 148857.2544999997,
      "d": 280.95259166666074,
      "v": 112
    },
    {
      "midi": 65,
      "hit": false,
      "t": 149142.9689999997,
      "d": 795.2386916666583,
      "v": 112
    },
    {
      "midi": 74,
      "hit": false,
      "t": 149142.9689999997,
      "d": 795.2386916666583,
      "v": 112
    },
    {
      "midi": 68,
      "hit": false,
      "t": 149142.9689999997,
      "d": 833.3339583333291,
      "v": 112
    },
    {
      "midi": 70,
      "hit": false,
      "t": 149166.77854166637,
      "d": 757.1434249999875,
      "v": 112
    },
    {
      "midi": 46,
      "hit": false,
      "t": 149428.6834999997,
      "d": 280.95259166666074,
      "v": 112
    },
    {
      "midi": 62,
      "hit": false,
      "t": 149442.96922499978,
      "d": 128.57152500000666,
      "v": 68
    },
    {
      "midi": 65,
      "hit": false,
      "t": 149442.96922499978,
      "d": 152.38106666668318,
      "v": 67
    },
    {
      "midi": 50,
      "hit": false,
      "t": 149442.96922499978,
      "d": 157.1429750000243,
      "v": 57
    },
    {
      "midi": 56,
      "hit": false,
      "t": 149442.96922499978,
      "d": 161.90488333336543,
      "v": 64
    },
    {
      "midi": 46,
      "hit": false,
      "t": 149714.3979999997,
      "d": 671.4290749999927,
      "v": 112
    },
    {
      "midi": 41,
      "hit": false,
      "t": 150285.8269999997,
      "d": 561.9051833333215,
      "v": 112
    },
    {
      "midi": 70,
      "hit": false,
      "t": 150857.25599999967,
      "d": 280.95259166666074,
      "v": 112
    },
    {
      "midi": 74,
      "hit": false,
      "t": 150857.25599999967,
      "d": 280.95259166666074,
      "v": 112
    },
    {
      "midi": 79,
      "hit": false,
      "t": 150857.25599999967,
      "d": 280.95259166666074,
      "v": 112
    },
    {
      "midi": 39,
      "hit": false,
      "t": 150857.25599999967,
      "d": 757.1434250000166,
      "v": 112
    },
    {
      "midi": 74,
      "hit": false,
      "t": 150876.30363333315,
      "d": 1000.0007500000065,
      "v": 65
    },
    {
      "midi": 67,
      "hit": false,
      "t": 150876.30363333315,
      "d": 1095.2389166666544,
      "v": 58
    },
    {
      "midi": 55,
      "hit": false,
      "t": 150876.30363333315,
      "d": 2266.6683666666504,
      "v": 66
    },
    {
      "midi": 58,
      "hit": false,
      "t": 150876.30363333315,
      "d": 2266.6683666666504,
      "v": 52
    },
    {
      "midi": 70,
      "hit": false,
      "t": 151142.97049999968,
      "d": 280.95259166666074,
      "v": 112
    },
    {
      "midi": 74,
      "hit": false,
      "t": 151142.97049999968,
      "d": 280.95259166666074,
      "v": 112
    },
    {
      "midi": 79,
      "hit": false,
      "t": 151142.97049999968,
      "d": 280.95259166666074,
      "v": 112
    },
    {
      "midi": 70,
      "hit": false,
      "t": 151428.68499999968,
      "d": 280.95259166668984,
      "v": 112
    },
    {
      "midi": 74,
      "hit": false,
      "t": 151428.68499999968,
      "d": 280.95259166668984,
      "v": 112
    },
    {
      "midi": 79,
      "hit": false,
      "t": 151428.68499999968,
      "d": 280.95259166668984,
      "v": 112
    },
    {
      "midi": 70,
      "hit": false,
      "t": 151447.73263333316,
      "d": 442.85747499999707,
      "v": 58
    },
    {
      "midi": 39,
      "hit": false,
      "t": 151714.3994999997,
      "d": 280.95259166666074,
      "v": 112
    },
    {
      "midi": 70,
      "hit": false,
      "t": 151714.3994999997,
      "d": 514.2860999999975,
      "v": 112
    },
    {
      "midi": 74,
      "hit": false,
      "t": 151714.3994999997,
      "d": 614.2861750000156,
      "v": 112
    },
    {
      "midi": 79,
      "hit": false,
      "t": 151714.3994999997,
      "d": 638.0957166666922,
      "v": 112
    },
    {
      "midi": 39,
      "hit": false,
      "t": 152000.1139999997,
      "d": 709.5243416666926,
      "v": 112
    },
    {
      "midi": 63,
      "hit": false,
      "t": 152285.8284999997,
      "d": 500.00037500003236,
      "v": 112
    },
    {
      "midi": 70,
      "hit": false,
      "t": 152285.8284999997,
      "d": 500.00037500003236,
      "v": 112
    },
    {
      "midi": 67,
      "hit": false,
      "t": 152285.8284999997,
      "d": 514.2861000000266,
      "v": 112
    },
    {
      "midi": 38,
      "hit": false,
      "t": 152571.54299999974,
      "d": 685.7148000000161,
      "v": 112
    },
    {
      "midi": 67,
      "hit": false,
      "t": 152857.25749999975,
      "d": 661.9052583333396,
      "v": 112
    },
    {
      "midi": 63,
      "hit": false,
      "t": 152857.25749999975,
      "d": 671.4290749999927,
      "v": 112
    },
    {
      "midi": 70,
      "hit": false,
      "t": 152857.25749999975,
      "d": 685.714799999987,
      "v": 112
    },
    {
      "midi": 36,
      "hit": false,
      "t": 153142.97199999975,
      "d": 514.2860999999975,
      "v": 112
    },
    {
      "midi": 60,
      "hit": false,
      "t": 153157.2577249998,
      "d": 571.4290000000037,
      "v": 63
    },
    {
      "midi": 63,
      "hit": false,
      "t": 153157.2577249998,
      "d": 590.4766333333391,
      "v": 69
    },
    {
      "midi": 67,
      "hit": false,
      "t": 153157.2577249998,
      "d": 600.0004499999923,
      "v": 62
    },
    {
      "midi": 51,
      "hit": false,
      "t": 153157.2577249998,
      "d": 623.8099916666688,
      "v": 53
    },
    {
      "midi": 72,
      "hit": false,
      "t": 153428.68649999975,
      "d": 280.95259166666074,
      "v": 112
    },
    {
      "midi": 36,
      "hit": false,
      "t": 153714.40099999975,
      "d": 404.76220833332627,
      "v": 112
    },
    {
      "midi": 72,
      "hit": false,
      "t": 153714.40099999975,
      "d": 771.4291499999817,
      "v": 112
    },
    {
      "midi": 67,
      "hit": false,
      "t": 153714.40099999975,
      "d": 795.2386916666583,
      "v": 112
    },
    {
      "midi": 63,
      "hit": false,
      "t": 153714.40099999975,
      "d": 809.5244166666525,
      "v": 112
    },
    {
      "midi": 38,
      "hit": false,
      "t": 154000.11549999975,
      "d": 366.6669416666555,
      "v": 112
    },
    {
      "midi": 63,
      "hit": false,
      "t": 154014.4012249998,
      "d": 161.90488333333633,
      "v": 65
    },
    {
      "midi": 51,
      "hit": false,
      "t": 154014.4012249998,
      "d": 166.66679166667745,
      "v": 56
    },
    {
      "midi": 70,
      "hit": false,
      "t": 154014.4012249998,
      "d": 180.95251666667173,
      "v": 61
    },
    {
      "midi": 60,
      "hit": false,
      "t": 154014.4012249998,
      "d": 204.76205833334825,
      "v": 69
    },
    {
      "midi": 39,
      "hit": false,
      "t": 154285.82999999975,
      "d": 357.1431249999732,
      "v": 112
    },
    {
      "midi": 38,
      "hit": false,
      "t": 154571.54449999973,
      "d": 404.76220833332627,
      "v": 112
    },
    {
      "midi": 36,
      "hit": false,
      "t": 154857.25899999973,
      "d": 671.4290749999927,
      "v": 112
    },
    {
      "midi": 68,
      "hit": false,
      "t": 155428.68799999973,
      "d": 280.95259166666074,
      "v": 112
    },
    {
      "midi": 72,
      "hit": false,
      "t": 155428.68799999973,
      "d": 280.95259166666074,
      "v": 112
    },
    {
      "midi": 75,
      "hit": false,
      "t": 155428.68799999973,
      "d": 280.95259166666074,
      "v": 112
    },
    {
      "midi": 80,
      "hit": false,
      "t": 155428.68799999973,
      "d": 280.95259166666074,
      "v": 112
    },
    {
      "midi": 41,
      "hit": false,
      "t": 155428.68799999973,
      "d": 723.8100666666578,
      "v": 112
    },
    {
      "midi": 56,
      "hit": false,
      "t": 155447.73563333316,
      "d": 566.6670916666626,
      "v": 59
    },
    {
      "midi": 63,
      "hit": false,
      "t": 155447.73563333316,
      "d": 595.2385416666511,
      "v": 64
    },
    {
      "midi": 65,
      "hit": false,
      "t": 155447.73563333316,
      "d": 595.2385416666511,
      "v": 54
    },
    {
      "midi": 51,
      "hit": false,
      "t": 155447.73563333316,
      "d": 676.1909833333048,
      "v": 53
    },
    {
      "midi": 68,
      "hit": false,
      "t": 155714.40249999973,
      "d": 280.95259166666074,
      "v": 112
    },
    {
      "midi": 72,
      "hit": false,
      "t": 155714.40249999973,
      "d": 280.95259166666074,
      "v": 112
    },
    {
      "midi": 75,
      "hit": false,
      "t": 155714.40249999973,
      "d": 280.95259166666074,
      "v": 112
    },
    {
      "midi": 80,
      "hit": false,
      "t": 155714.40249999973,
      "d": 280.95259166666074,
      "v": 112
    },
    {
      "midi": 68,
      "hit": false,
      "t": 156000.11699999974,
      "d": 280.95259166666074,
      "v": 112
    },
    {
      "midi": 72,
      "hit": false,
      "t": 156000.11699999974,
      "d": 280.95259166666074,
      "v": 112
    },
    {
      "midi": 75,
      "hit": false,
      "t": 156000.11699999974,
      "d": 280.95259166666074,
      "v": 112
    },
    {
      "midi": 80,
      "hit": false,
      "t": 156000.11699999974,
      "d": 280.95259166666074,
      "v": 112
    },
    {
      "midi": 41,
      "hit": false,
      "t": 156285.83149999974,
      "d": 280.95259166666074,
      "v": 112
    },
    {
      "midi": 68,
      "hit": false,
      "t": 156285.83149999974,
      "d": 500.00037500000326,
      "v": 112
    },
    {
      "midi": 72,
      "hit": false,
      "t": 156285.83149999974,
      "d": 500.00037500000326,
      "v": 112
    },
    {
      "midi": 80,
      "hit": false,
      "t": 156285.83149999974,
      "d": 614.2861750000156,
      "v": 112
    },
    {
      "midi": 75,
      "hit": false,
      "t": 156285.83149999974,
      "d": 661.9052583333396,
      "v": 112
    },
    {
      "midi": 63,
      "hit": false,
      "t": 156304.87913333313,
      "d": 147.61915833334206,
      "v": 73
    },
    {
      "midi": 51,
      "hit": false,
      "t": 156304.87913333313,
      "d": 152.38106666668318,
      "v": 57
    },
    {
      "midi": 56,
      "hit": false,
      "t": 156304.87913333313,
      "d": 152.38106666668318,
      "v": 74
    },
    {
      "midi": 65,
      "hit": false,
      "t": 156304.87913333313,
      "d": 180.95251666667173,
      "v": 68
    },
    {
      "midi": 41,
      "hit": false,
      "t": 156571.54599999974,
      "d": 661.9052583333396,
      "v": 112
    },
    {
      "midi": 63,
      "hit": false,
      "t": 156857.26049999974,
      "d": 528.5718249999918,
      "v": 112
    },
    {
      "midi": 68,
      "hit": false,
      "t": 156857.26049999974,
      "d": 528.5718249999918,
      "v": 112
    },
    {
      "midi": 72,
      "hit": false,
      "t": 156857.26049999974,
      "d": 528.5718249999918,
      "v": 112
    },
    {
      "midi": 36,
      "hit": false,
      "t": 157142.97499999974,
      "d": 671.4290749999927,
      "v": 112
    },
    {
      "midi": 63,
      "hit": false,
      "t": 157428.68949999975,
      "d": 638.0957166666631,
      "v": 112
    },
    {
      "midi": 68,
      "hit": false,
      "t": 157428.68949999975,
      "d": 647.6195333333162,
      "v": 112
    },
    {
      "midi": 72,
      "hit": false,
      "t": 157428.68949999975,
      "d": 685.714799999987,
      "v": 112
    },
    {
      "midi": 34,
      "hit": false,
      "t": 157714.40399999975,
      "d": 733.33388333334,
      "v": 112
    },
    {
      "midi": 56,
      "hit": false,
      "t": 157733.45163333314,
      "d": 495.23846666666213,
      "v": 77
    },
    {
      "midi": 53,
      "hit": false,
      "t": 157733.45163333314,
      "d": 504.7622833333153,
      "v": 68
    },
    {
      "midi": 58,
      "hit": false,
      "t": 157733.45163333314,
      "d": 519.0480083333096,
      "v": 59
    },
    {
      "midi": 62,
      "hit": false,
      "t": 157733.45163333314,
      "d": 533.3337333333038,
      "v": 71
    },
    {
      "midi": 70,
      "hit": false,
      "t": 158000.11849999975,
      "d": 280.95259166666074,
      "v": 112
    },
    {
      "midi": 74,
      "hit": false,
      "t": 158000.11849999975,
      "d": 280.95259166666074,
      "v": 112
    },
    {
      "midi": 74,
      "hit": false,
      "t": 158285.83299999975,
      "d": 528.5718249999918,
      "v": 112
    },
    {
      "midi": 68,
      "hit": false,
      "t": 158285.83299999975,
      "d": 623.8099916666688,
      "v": 112
    },
    {
      "midi": 65,
      "hit": false,
      "t": 158285.83299999975,
      "d": 661.9052583333396,
      "v": 112
    },
    {
      "midi": 70,
      "hit": false,
      "t": 158309.64254166643,
      "d": 638.0957166666631,
      "v": 112
    },
    {
      "midi": 34,
      "hit": false,
      "t": 158571.54749999975,
      "d": 280.95259166666074,
      "v": 112
    },
    {
      "midi": 62,
      "hit": false,
      "t": 158857.26199999976,
      "d": 419.04793333332054,
      "v": 112
    },
    {
      "midi": 74,
      "hit": false,
      "t": 158857.26199999976,
      "d": 419.04793333332054,
      "v": 112
    },
    {
      "midi": 34,
      "hit": false,
      "t": 158857.26199999976,
      "d": 661.9052583333105,
      "v": 112
    },
    {
      "midi": 53,
      "hit": false,
      "t": 159162.02413333312,
      "d": 690.4767083333281,
      "v": 62
    },
    {
      "midi": 75,
      "hit": false,
      "t": 159242.97657499975,
      "d": 342.85739999997895,
      "v": 112
    },
    {
      "midi": 63,
      "hit": false,
      "t": 159242.97657499975,
      "d": 490.476558333321,
      "v": 112
    },
    {
      "midi": 41,
      "hit": false,
      "t": 159428.69099999973,
      "d": 600.0004499999923,
      "v": 112
    },
    {
      "midi": 56,
      "hit": false,
      "t": 159447.73863333312,
      "d": 200.00015000000712,
      "v": 79
    },
    {
      "midi": 62,
      "hit": false,
      "t": 159447.73863333312,
      "d": 200.00015000000712,
      "v": 71
    },
    {
      "midi": 77,
      "hit": false,
      "t": 159557.26252499974,
      "d": 133.33343333331868,
      "v": 112
    },
    {
      "midi": 67,
      "hit": false,
      "t": 159623.9292416664,
      "d": 614.2861749999865,
      "v": 112
    },
    {
      "midi": 79,
      "hit": false,
      "t": 159623.9292416664,
      "d": 614.2861749999865,
      "v": 112
    },
    {
      "midi": 36,
      "hit": false,
      "t": 160000.11999999973,
      "d": 733.333883333311,
      "v": 112
    },
    {
      "midi": 64,
      "hit": false,
      "t": 160014.4057249998,
      "d": 571.4290000000037,
      "v": 69
    },
    {
      "midi": 67,
      "hit": false,
      "t": 160014.4057249998,
      "d": 600.0004499999923,
      "v": 62
    },
    {
      "midi": 52,
      "hit": false,
      "t": 160014.4057249998,
      "d": 623.8099916666688,
      "v": 53
    },
    {
      "midi": 79,
      "hit": false,
      "t": 160285.8344999997,
      "d": 1861.9061583333241,
      "v": 112
    },
    {
      "midi": 72,
      "hit": false,
      "t": 160285.8344999997,
      "d": 1871.4299749999773,
      "v": 112
    },
    {
      "midi": 76,
      "hit": false,
      "t": 160285.8344999997,
      "d": 1895.2395166666538,
      "v": 112
    },
    {
      "midi": 67,
      "hit": false,
      "t": 160285.8344999997,
      "d": 1909.525241666648,
      "v": 112
    },
    {
      "midi": 36,
      "hit": false,
      "t": 160857.2634999997,
      "d": 280.95259166666074,
      "v": 112
    },
    {
      "midi": 64,
      "hit": false,
      "t": 160871.5492249998,
      "d": 161.90488333333633,
      "v": 69
    },
    {
      "midi": 52,
      "hit": false,
      "t": 160871.5492249998,
      "d": 166.66679166667745,
      "v": 56
    },
    {
      "midi": 72,
      "hit": false,
      "t": 160871.5492249998,
      "d": 180.95251666667173,
      "v": 61
    },
    {
      "midi": 36,
      "hit": false,
      "t": 161142.9779999997,
      "d": 709.5243416666635,
      "v": 112
    },
    {
      "midi": 43,
      "hit": false,
      "t": 161714.40699999972,
      "d": 661.9052583333105,
      "v": 112
    },
    {
      "midi": 36,
      "hit": false,
      "t": 162285.8359999997,
      "d": 747.6196083333343,
      "v": 112
    },
    {
      "midi": 60,
      "hit": false,
      "t": 162300.1217249998,
      "d": 576.1909083333449,
      "v": 63
    },
    {
      "midi": 64,
      "hit": false,
      "t": 162300.1217249998,
      "d": 576.1909083333449,
      "v": 61
    },
    {
      "midi": 52,
      "hit": false,
      "t": 162300.1217249998,
      "d": 600.0004500000214,
      "v": 55
    },
    {
      "midi": 64,
      "hit": false,
      "t": 162571.5504999997,
      "d": 280.95259166666074,
      "v": 112
    },
    {
      "midi": 76,
      "hit": false,
      "t": 162571.5504999997,
      "d": 280.95259166666074,
      "v": 112
    },
    {
      "midi": 76,
      "hit": false,
      "t": 162857.2649999997,
      "d": 404.76220833332627,
      "v": 112
    },
    {
      "midi": 64,
      "hit": false,
      "t": 162857.2649999997,
      "d": 414.2860249999794,
      "v": 112
    },
    {
      "midi": 65,
      "hit": false,
      "t": 163142.9794999997,
      "d": 280.95259166663163,
      "v": 112
    },
    {
      "midi": 77,
      "hit": false,
      "t": 163142.9794999997,
      "d": 280.95259166663163,
      "v": 112
    },
    {
      "midi": 38,
      "hit": false,
      "t": 163142.9794999997,
      "d": 980.953116666642,
      "v": 112
    },
    {
      "midi": 64,
      "hit": false,
      "t": 163157.26522499984,
      "d": 109.52389166667126,
      "v": 72
    },
    {
      "midi": 52,
      "hit": false,
      "t": 163157.26522499984,
      "d": 119.04770833332441,
      "v": 66
    },
    {
      "midi": 60,
      "hit": false,
      "t": 163157.26522499984,
      "d": 133.33343333331868,
      "v": 59
    },
    {
      "midi": 65,
      "hit": false,
      "t": 163428.69399999967,
      "d": 366.6669416666555,
      "v": 112
    },
    {
      "midi": 77,
      "hit": false,
      "t": 163428.69399999967,
      "d": 390.476483333332,
      "v": 112
    },
    {
      "midi": 67,
      "hit": false,
      "t": 163714.40849999967,
      "d": 280.95259166666074,
      "v": 112
    },
    {
      "midi": 79,
      "hit": false,
      "t": 163714.40849999967,
      "d": 280.95259166666074,
      "v": 112
    },
    {
      "midi": 60,
      "hit": false,
      "t": 163728.6942249998,
      "d": 676.1909833333339,
      "v": 73
    },
    {
      "midi": 64,
      "hit": false,
      "t": 163728.6942249998,
      "d": 690.4767083333281,
      "v": 87
    },
    {
      "midi": 52,
      "hit": false,
      "t": 163728.6942249998,
      "d": 828.5720499999879,
      "v": 64
    },
    {
      "midi": 40,
      "hit": false,
      "t": 164000.12299999967,
      "d": 561.9051833333215,
      "v": 112
    },
    {
      "midi": 67,
      "hit": false,
      "t": 164000.12299999967,
      "d": 671.4290749999636,
      "v": 112
    },
    {
      "midi": 79,
      "hit": false,
      "t": 164000.12299999967,
      "d": 685.7147999999579,
      "v": 112
    },
    {
      "midi": 68,
      "hit": false,
      "t": 164571.55199999965,
      "d": 280.95259166666074,
      "v": 112
    },
    {
      "midi": 72,
      "hit": false,
      "t": 164571.55199999965,
      "d": 280.95259166666074,
      "v": 112
    },
    {
      "midi": 75,
      "hit": false,
      "t": 164571.55199999965,
      "d": 280.95259166666074,
      "v": 112
    },
    {
      "midi": 80,
      "hit": false,
      "t": 164571.55199999965,
      "d": 280.95259166666074,
      "v": 112
    },
    {
      "midi": 41,
      "hit": false,
      "t": 164571.55199999965,
      "d": 757.1434250000166,
      "v": 112
    },
    {
      "midi": 60,
      "hit": false,
      "t": 164590.59963333313,
      "d": 490.476558333321,
      "v": 63
    },
    {
      "midi": 56,
      "hit": false,
      "t": 164590.59963333313,
      "d": 609.5242666666454,
      "v": 63
    },
    {
      "midi": 65,
      "hit": false,
      "t": 164590.59963333313,
      "d": 619.0480833332986,
      "v": 63
    },
    {
      "midi": 63,
      "hit": false,
      "t": 164590.59963333313,
      "d": 623.8099916666397,
      "v": 61
    },
    {
      "midi": 53,
      "hit": false,
      "t": 164590.59963333313,
      "d": 628.5718999999808,
      "v": 52
    },
    {
      "midi": 68,
      "hit": false,
      "t": 164857.26649999965,
      "d": 280.95259166666074,
      "v": 112
    },
    {
      "midi": 72,
      "hit": false,
      "t": 164857.26649999965,
      "d": 280.95259166666074,
      "v": 112
    },
    {
      "midi": 75,
      "hit": false,
      "t": 164857.26649999965,
      "d": 280.95259166666074,
      "v": 112
    },
    {
      "midi": 80,
      "hit": false,
      "t": 164857.26649999965,
      "d": 280.95259166666074,
      "v": 112
    },
    {
      "midi": 68,
      "hit": false,
      "t": 165142.98099999965,
      "d": 280.95259166668984,
      "v": 112
    },
    {
      "midi": 72,
      "hit": false,
      "t": 165142.98099999965,
      "d": 280.95259166668984,
      "v": 112
    },
    {
      "midi": 75,
      "hit": false,
      "t": 165142.98099999965,
      "d": 280.95259166668984,
      "v": 112
    },
    {
      "midi": 80,
      "hit": false,
      "t": 165142.98099999965,
      "d": 280.95259166668984,
      "v": 112
    },
    {
      "midi": 41,
      "hit": false,
      "t": 165428.69549999968,
      "d": 280.95259166666074,
      "v": 112
    },
    {
      "midi": 68,
      "hit": false,
      "t": 165428.69549999968,
      "d": 528.5718249999918,
      "v": 112
    },
    {
      "midi": 72,
      "hit": false,
      "t": 165428.69549999968,
      "d": 528.5718249999918,
      "v": 112
    },
    {
      "midi": 75,
      "hit": false,
      "t": 165428.69549999968,
      "d": 661.9052583333396,
      "v": 112
    },
    {
      "midi": 80,
      "hit": false,
      "t": 165428.69549999968,
      "d": 661.9052583333396,
      "v": 112
    },
    {
      "midi": 60,
      "hit": false,
      "t": 165447.7431333331,
      "d": 171.42869999998948,
      "v": 71
    },
    {
      "midi": 63,
      "hit": false,
      "t": 165447.7431333331,
      "d": 180.95251666664262,
      "v": 68
    },
    {
      "midi": 65,
      "hit": false,
      "t": 165447.7431333331,
      "d": 185.71442499998375,
      "v": 67
    },
    {
      "midi": 56,
      "hit": false,
      "t": 165447.7431333331,
      "d": 195.2382416666369,
      "v": 65
    },
    {
      "midi": 53,
      "hit": false,
      "t": 165447.7431333331,
      "d": 200.00014999997802,
      "v": 63
    },
    {
      "midi": 41,
      "hit": false,
      "t": 165714.40999999968,
      "d": 695.2386166666693,
      "v": 112
    },
    {
      "midi": 63,
      "hit": false,
      "t": 166000.12449999969,
      "d": 514.2860999999975,
      "v": 112
    },
    {
      "midi": 72,
      "hit": false,
      "t": 166000.12449999969,
      "d": 514.2860999999975,
      "v": 112
    },
    {
      "midi": 68,
      "hit": false,
      "t": 166000.12449999969,
      "d": 528.5718249999918,
      "v": 112
    },
    {
      "midi": 36,
      "hit": false,
      "t": 166285.8389999997,
      "d": 661.9052583333396,
      "v": 112
    },
    {
      "midi": 68,
      "hit": false,
      "t": 166571.5534999997,
      "d": 623.8099916666688,
      "v": 112
    },
    {
      "midi": 63,
      "hit": false,
      "t": 166571.5534999997,
      "d": 661.9052583333396,
      "v": 112
    },
    {
      "midi": 72,
      "hit": false,
      "t": 166571.5534999997,
      "d": 695.2386166666693,
      "v": 112
    },
    {
      "midi": 34,
      "hit": false,
      "t": 166857.2679999997,
      "d": 723.8100666666869,
      "v": 112
    },
    {
      "midi": 56,
      "hit": false,
      "t": 166876.31563333308,
      "d": 495.23846666666213,
      "v": 77
    },
    {
      "midi": 53,
      "hit": false,
      "t": 166876.31563333308,
      "d": 504.7622833333153,
      "v": 68
    },
    {
      "midi": 58,
      "hit": false,
      "t": 166876.31563333308,
      "d": 519.0480083333096,
      "v": 59
    },
    {
      "midi": 62,
      "hit": false,
      "t": 166876.31563333308,
      "d": 533.3337333333038,
      "v": 71
    },
    {
      "midi": 70,
      "hit": false,
      "t": 167142.9824999997,
      "d": 280.95259166666074,
      "v": 112
    },
    {
      "midi": 74,
      "hit": false,
      "t": 167142.9824999997,
      "d": 280.95259166666074,
      "v": 112
    },
    {
      "midi": 65,
      "hit": false,
      "t": 167428.6969999997,
      "d": 780.9529666666931,
      "v": 112
    },
    {
      "midi": 68,
      "hit": false,
      "t": 167428.6969999997,
      "d": 780.9529666666931,
      "v": 112
    },
    {
      "midi": 74,
      "hit": false,
      "t": 167428.6969999997,
      "d": 795.2386916666874,
      "v": 112
    },
    {
      "midi": 70,
      "hit": false,
      "t": 167452.50654166637,
      "d": 771.4291500000108,
      "v": 112
    },
    {
      "midi": 34,
      "hit": false,
      "t": 167714.41149999973,
      "d": 280.95259166666074,
      "v": 112
    },
    {
      "midi": 34,
      "hit": false,
      "t": 168000.12599999973,
      "d": 671.4290749999636,
      "v": 112
    },
    {
      "midi": 53,
      "hit": false,
      "t": 168304.88813333306,
      "d": 690.4767083333281,
      "v": 62
    },
    {
      "midi": 41,
      "hit": false,
      "t": 168571.5549999997,
      "d": 552.3813666666683,
      "v": 112
    },
    {
      "midi": 56,
      "hit": false,
      "t": 168590.60263333307,
      "d": 200.00015000000712,
      "v": 79
    },
    {
      "midi": 62,
      "hit": false,
      "t": 168590.60263333307,
      "d": 200.00015000000712,
      "v": 71
    },
    {
      "midi": 70,
      "hit": false,
      "t": 168857.2694999997,
      "d": 280.95259166666074,
      "v": 112
    },
    {
      "midi": 67,
      "hit": false,
      "t": 169142.9839999997,
      "d": 280.95259166666074,
      "v": 112
    },
    {
      "midi": 70,
      "hit": false,
      "t": 169142.9839999997,
      "d": 280.95259166666074,
      "v": 112
    },
    {
      "midi": 74,
      "hit": false,
      "t": 169142.9839999997,
      "d": 280.95259166666074,
      "v": 112
    },
    {
      "midi": 79,
      "hit": false,
      "t": 169142.9839999997,
      "d": 280.95259166666074,
      "v": 112
    },
    {
      "midi": 39,
      "hit": false,
      "t": 169142.9839999997,
      "d": 733.33388333334,
      "v": 112
    },
    {
      "midi": 74,
      "hit": false,
      "t": 169162.03163333307,
      "d": 1000.0007500000065,
      "v": 65
    },
    {
      "midi": 67,
      "hit": false,
      "t": 169162.03163333307,
      "d": 1095.2389166666544,
      "v": 58
    },
    {
      "midi": 55,
      "hit": false,
      "t": 169162.03163333307,
      "d": 2266.6683666666504,
      "v": 66
    },
    {
      "midi": 58,
      "hit": false,
      "t": 169162.03163333307,
      "d": 2266.6683666666504,
      "v": 52
    },
    {
      "midi": 67,
      "hit": false,
      "t": 169428.6984999997,
      "d": 280.95259166666074,
      "v": 112
    },
    {
      "midi": 70,
      "hit": false,
      "t": 169428.6984999997,
      "d": 280.95259166666074,
      "v": 112
    },
    {
      "midi": 74,
      "hit": false,
      "t": 169428.6984999997,
      "d": 280.95259166666074,
      "v": 112
    },
    {
      "midi": 79,
      "hit": false,
      "t": 169428.6984999997,
      "d": 280.95259166666074,
      "v": 112
    },
    {
      "midi": 67,
      "hit": false,
      "t": 169714.4129999997,
      "d": 280.95259166666074,
      "v": 112
    },
    {
      "midi": 70,
      "hit": false,
      "t": 169714.4129999997,
      "d": 280.95259166666074,
      "v": 112
    },
    {
      "midi": 74,
      "hit": false,
      "t": 169714.4129999997,
      "d": 280.95259166666074,
      "v": 112
    },
    {
      "midi": 79,
      "hit": false,
      "t": 169714.4129999997,
      "d": 280.95259166666074,
      "v": 112
    },
    {
      "midi": 70,
      "hit": false,
      "t": 169733.46063333307,
      "d": 442.85747499999707,
      "v": 58
    },
    {
      "midi": 39,
      "hit": false,
      "t": 170000.1274999997,
      "d": 280.95259166666074,
      "v": 112
    },
    {
      "midi": 70,
      "hit": false,
      "t": 170000.1274999997,
      "d": 514.2860999999975,
      "v": 112
    },
    {
      "midi": 67,
      "hit": false,
      "t": 170000.1274999997,
      "d": 528.5718249999918,
      "v": 112
    },
    {
      "midi": 79,
      "hit": false,
      "t": 170000.1274999997,
      "d": 638.0957166666631,
      "v": 112
    },
    {
      "midi": 74,
      "hit": false,
      "t": 170000.1274999997,
      "d": 647.6195333333162,
      "v": 112
    },
    {
      "midi": 39,
      "hit": false,
      "t": 170285.8419999997,
      "d": 671.4290749999636,
      "v": 112
    },
    {
      "midi": 63,
      "hit": false,
      "t": 170571.55649999972,
      "d": 500.00037499997416,
      "v": 112
    },
    {
      "midi": 67,
      "hit": false,
      "t": 170571.55649999972,
      "d": 500.00037499997416,
      "v": 112
    },
    {
      "midi": 70,
      "hit": false,
      "t": 170571.55649999972,
      "d": 500.00037499997416,
      "v": 112
    },
    {
      "midi": 43,
      "hit": false,
      "t": 170857.2709999997,
      "d": 661.9052583333396,
      "v": 112
    },
    {
      "midi": 67,
      "hit": false,
      "t": 171142.9854999997,
      "d": 638.0957166666631,
      "v": 112
    },
    {
      "midi": 63,
      "hit": false,
      "t": 171142.9854999997,
      "d": 661.9052583333396,
      "v": 112
    },
    {
      "midi": 70,
      "hit": false,
      "t": 171142.9854999997,
      "d": 685.7148000000161,
      "v": 112
    },
    {
      "midi": 36,
      "hit": false,
      "t": 171428.6999999997,
      "d": 528.5718250000209,
      "v": 112
    },
    {
      "midi": 55,
      "hit": false,
      "t": 171438.22381666637,
      "d": 723.8100666666578,
      "v": 67
    },
    {
      "midi": 60,
      "hit": false,
      "t": 171452.50954166637,
      "d": 633.333808333351,
      "v": 69
    },
    {
      "midi": 63,
      "hit": false,
      "t": 171452.50954166637,
      "d": 642.8576250000042,
      "v": 76
    },
    {
      "midi": 70,
      "hit": false,
      "t": 171457.2714499997,
      "d": 604.7623583333334,
      "v": 75
    },
    {
      "midi": 72,
      "hit": false,
      "t": 171714.4144999997,
      "d": 280.95259166668984,
      "v": 112
    },
    {
      "midi": 36,
      "hit": false,
      "t": 172000.12899999972,
      "d": 390.476483333332,
      "v": 112
    },
    {
      "midi": 72,
      "hit": false,
      "t": 172000.12899999972,
      "d": 809.5244166666816,
      "v": 112
    },
    {
      "midi": 63,
      "hit": false,
      "t": 172000.12899999972,
      "d": 833.3339583333582,
      "v": 112
    },
    {
      "midi": 67,
      "hit": false,
      "t": 172000.12899999972,
      "d": 833.3339583333582,
      "v": 112
    },
    {
      "midi": 38,
      "hit": false,
      "t": 172285.84349999973,
      "d": 390.476483333332,
      "v": 112
    },
    {
      "midi": 58,
      "hit": false,
      "t": 172300.1292249997,
      "d": 628.571900000039,
      "v": 62
    },
    {
      "midi": 60,
      "hit": false,
      "t": 172300.1292249997,
      "d": 709.5243416667217,
      "v": 67
    },
    {
      "midi": 63,
      "hit": false,
      "t": 172300.1292249997,
      "d": 714.2862500000629,
      "v": 67
    },
    {
      "midi": 70,
      "hit": false,
      "t": 172304.89113333303,
      "d": 642.8576250000333,
      "v": 65
    },
    {
      "midi": 67,
      "hit": false,
      "t": 172309.65304166637,
      "d": 661.9052583333687,
      "v": 68
    },
    {
      "midi": 39,
      "hit": false,
      "t": 172571.55799999973,
      "d": 390.4764833333611,
      "v": 112
    },
    {
      "midi": 38,
      "hit": false,
      "t": 172857.27249999976,
      "d": 280.95259166666074,
      "v": 112
    },
    {
      "midi": 36,
      "hit": false,
      "t": 173142.98699999976,
      "d": 842.8577750000113,
      "v": 112
    },
    {
      "midi": 68,
      "hit": false,
      "t": 173714.41599999976,
      "d": 280.95259166666074,
      "v": 112
    },
    {
      "midi": 72,
      "hit": false,
      "t": 173714.41599999976,
      "d": 280.95259166666074,
      "v": 112
    },
    {
      "midi": 75,
      "hit": false,
      "t": 173714.41599999976,
      "d": 280.95259166666074,
      "v": 112
    },
    {
      "midi": 80,
      "hit": false,
      "t": 173714.41599999976,
      "d": 280.95259166666074,
      "v": 112
    },
    {
      "midi": 41,
      "hit": false,
      "t": 173714.41599999976,
      "d": 747.6196083333343,
      "v": 112
    },
    {
      "midi": 60,
      "hit": false,
      "t": 173733.4636333331,
      "d": 490.476558333321,
      "v": 63
    },
    {
      "midi": 56,
      "hit": false,
      "t": 173733.4636333331,
      "d": 609.5242666666454,
      "v": 63
    },
    {
      "midi": 65,
      "hit": false,
      "t": 173733.4636333331,
      "d": 619.0480833332986,
      "v": 63
    },
    {
      "midi": 63,
      "hit": false,
      "t": 173733.4636333331,
      "d": 623.8099916666397,
      "v": 61
    },
    {
      "midi": 53,
      "hit": false,
      "t": 173733.4636333331,
      "d": 628.5718999999808,
      "v": 52
    },
    {
      "midi": 68,
      "hit": false,
      "t": 174000.13049999977,
      "d": 280.95259166666074,
      "v": 112
    },
    {
      "midi": 72,
      "hit": false,
      "t": 174000.13049999977,
      "d": 280.95259166666074,
      "v": 112
    },
    {
      "midi": 75,
      "hit": false,
      "t": 174000.13049999977,
      "d": 280.95259166666074,
      "v": 112
    },
    {
      "midi": 80,
      "hit": false,
      "t": 174000.13049999977,
      "d": 280.95259166666074,
      "v": 112
    },
    {
      "midi": 68,
      "hit": false,
      "t": 174285.84499999977,
      "d": 280.95259166666074,
      "v": 112
    },
    {
      "midi": 72,
      "hit": false,
      "t": 174285.84499999977,
      "d": 280.95259166666074,
      "v": 112
    },
    {
      "midi": 75,
      "hit": false,
      "t": 174285.84499999977,
      "d": 280.95259166666074,
      "v": 112
    },
    {
      "midi": 80,
      "hit": false,
      "t": 174285.84499999977,
      "d": 280.95259166666074,
      "v": 112
    },
    {
      "midi": 41,
      "hit": false,
      "t": 174571.55949999977,
      "d": 280.95259166666074,
      "v": 112
    },
    {
      "midi": 68,
      "hit": false,
      "t": 174571.55949999977,
      "d": 500.00037500000326,
      "v": 112
    },
    {
      "midi": 72,
      "hit": false,
      "t": 174571.55949999977,
      "d": 500.00037500000326,
      "v": 112
    },
    {
      "midi": 75,
      "hit": false,
      "t": 174571.55949999977,
      "d": 661.9052583333396,
      "v": 112
    },
    {
      "midi": 80,
      "hit": false,
      "t": 174571.55949999977,
      "d": 661.9052583333396,
      "v": 112
    },
    {
      "midi": 60,
      "hit": false,
      "t": 174590.60713333308,
      "d": 171.42869999998948,
      "v": 71
    },
    {
      "midi": 63,
      "hit": false,
      "t": 174590.60713333308,
      "d": 180.95251666664262,
      "v": 68
    },
    {
      "midi": 65,
      "hit": false,
      "t": 174590.60713333308,
      "d": 185.71442499998375,
      "v": 67
    },
    {
      "midi": 56,
      "hit": false,
      "t": 174590.60713333308,
      "d": 195.2382416666369,
      "v": 65
    },
    {
      "midi": 53,
      "hit": false,
      "t": 174590.60713333308,
      "d": 200.00014999997802,
      "v": 63
    },
    {
      "midi": 41,
      "hit": false,
      "t": 174857.27399999977,
      "d": 695.2386166666693,
      "v": 112
    },
    {
      "midi": 68,
      "hit": false,
      "t": 175142.98849999977,
      "d": 490.476558333321,
      "v": 112
    },
    {
      "midi": 63,
      "hit": false,
      "t": 175142.98849999977,
      "d": 514.2860999999975,
      "v": 112
    },
    {
      "midi": 72,
      "hit": false,
      "t": 175142.98849999977,
      "d": 514.2860999999975,
      "v": 112
    },
    {
      "midi": 36,
      "hit": false,
      "t": 175428.70299999978,
      "d": 795.2386916666583,
      "v": 112
    },
    {
      "midi": 68,
      "hit": false,
      "t": 175714.41749999978,
      "d": 638.0957166666631,
      "v": 112
    },
    {
      "midi": 72,
      "hit": false,
      "t": 175714.41749999978,
      "d": 647.6195333333162,
      "v": 112
    },
    {
      "midi": 63,
      "hit": false,
      "t": 175714.41749999978,
      "d": 661.9052583333105,
      "v": 112
    },
    {
      "midi": 34,
      "hit": false,
      "t": 176000.13199999978,
      "d": 695.2386166666402,
      "v": 112
    },
    {
      "midi": 74,
      "hit": false,
      "t": 176014.41772499972,
      "d": 409.5241166666674,
      "v": 62
    },
    {
      "midi": 65,
      "hit": false,
      "t": 176014.41772499972,
      "d": 419.04793333332054,
      "v": 57
    },
    {
      "midi": 68,
      "hit": false,
      "t": 176014.41772499972,
      "d": 419.04793333332054,
      "v": 77
    },
    {
      "midi": 58,
      "hit": false,
      "t": 176014.41772499972,
      "d": 438.09556666665594,
      "v": 78
    },
    {
      "midi": 70,
      "hit": false,
      "t": 176285.84649999978,
      "d": 280.95259166663163,
      "v": 112
    },
    {
      "midi": 74,
      "hit": false,
      "t": 176285.84649999978,
      "d": 280.95259166663163,
      "v": 112
    },
    {
      "midi": 74,
      "hit": false,
      "t": 176571.56099999975,
      "d": 514.2860999999975,
      "v": 112
    },
    {
      "midi": 65,
      "hit": false,
      "t": 176571.56099999975,
      "d": 638.0957166666631,
      "v": 112
    },
    {
      "midi": 68,
      "hit": false,
      "t": 176571.56099999975,
      "d": 647.6195333333453,
      "v": 112
    },
    {
      "midi": 70,
      "hit": false,
      "t": 176600.13244999974,
      "d": 614.2861750000156,
      "v": 112
    },
    {
      "midi": 34,
      "hit": false,
      "t": 176857.27549999976,
      "d": 280.95259166666074,
      "v": 112
    },
    {
      "midi": 58,
      "hit": false,
      "t": 176871.5612249997,
      "d": 157.1429749999952,
      "v": 58
    },
    {
      "midi": 68,
      "hit": false,
      "t": 176871.5612249997,
      "d": 157.1429749999952,
      "v": 61
    },
    {
      "midi": 65,
      "hit": false,
      "t": 176871.5612249997,
      "d": 171.42869999998948,
      "v": 62
    },
    {
      "midi": 74,
      "hit": false,
      "t": 177142.98999999976,
      "d": 419.04793333334965,
      "v": 112
    },
    {
      "midi": 62,
      "hit": false,
      "t": 177142.98999999976,
      "d": 514.2861000000266,
      "v": 112
    },
    {
      "midi": 34,
      "hit": false,
      "t": 177142.98999999976,
      "d": 723.8100666666869,
      "v": 112
    },
    {
      "midi": 75,
      "hit": false,
      "t": 177528.70457499978,
      "d": 428.5717500000028,
      "v": 112
    },
    {
      "midi": 63,
      "hit": false,
      "t": 177528.70457499978,
      "d": 528.5718249999918,
      "v": 112
    },
    {
      "midi": 32,
      "hit": false,
      "t": 177714.4189999998,
      "d": 709.5243416666344,
      "v": 112
    },
    {
      "midi": 77,
      "hit": false,
      "t": 177838.22861666646,
      "d": 190.47633333332487,
      "v": 112
    },
    {
      "midi": 79,
      "hit": false,
      "t": 177909.65724166646,
      "d": 600.0004499999632,
      "v": 112
    },
    {
      "midi": 67,
      "hit": false,
      "t": 177909.65724166646,
      "d": 614.2861749999574,
      "v": 112
    },
    {
      "midi": 36,
      "hit": false,
      "t": 178285.84799999977,
      "d": 733.333883333311,
      "v": 112
    },
    {
      "midi": 60,
      "hit": false,
      "t": 178300.13372499967,
      "d": 495.23846666666213,
      "v": 60
    },
    {
      "midi": 52,
      "hit": false,
      "t": 178300.13372499967,
      "d": 528.5718249999918,
      "v": 48
    },
    {
      "midi": 64,
      "hit": false,
      "t": 178300.13372499967,
      "d": 552.3813666666683,
      "v": 63
    },
    {
      "midi": 72,
      "hit": false,
      "t": 178571.56249999974,
      "d": 1809.5251666666882,
      "v": 112
    },
    {
      "midi": 67,
      "hit": false,
      "t": 178571.56249999974,
      "d": 1823.8108916666824,
      "v": 112
    },
    {
      "midi": 76,
      "hit": false,
      "t": 178571.56249999974,
      "d": 1823.8108916666824,
      "v": 112
    },
    {
      "midi": 79,
      "hit": false,
      "t": 178571.56249999974,
      "d": 1823.8108916666824,
      "v": 112
    },
    {
      "midi": 36,
      "hit": false,
      "t": 179142.99149999974,
      "d": 452.3812916666793,
      "v": 112
    },
    {
      "midi": 64,
      "hit": false,
      "t": 179157.27722499968,
      "d": 128.57152500000666,
      "v": 68
    },
    {
      "midi": 67,
      "hit": false,
      "t": 179157.27722499968,
      "d": 152.38106666668318,
      "v": 67
    },
    {
      "midi": 52,
      "hit": false,
      "t": 179157.27722499968,
      "d": 157.1429750000243,
      "v": 57
    },
    {
      "midi": 60,
      "hit": false,
      "t": 179157.27722499968,
      "d": 161.90488333336543,
      "v": 64
    },
    {
      "midi": 52,
      "hit": false,
      "t": 179428.70599999974,
      "d": 390.476483333332,
      "v": 112
    },
    {
      "midi": 43,
      "hit": false,
      "t": 179714.42049999975,
      "d": 414.2860250000085,
      "v": 112
    },
    {
      "midi": 36,
      "hit": false,
      "t": 180000.13499999975,
      "d": 380.95266666667885,
      "v": 112
    },
    {
      "midi": 64,
      "hit": false,
      "t": 181033.46910833305,
      "d": 1823.8108916666824,
      "v": 58
    },
    {
      "midi": 67,
      "hit": false,
      "t": 181176.32635833306,
      "d": 1680.9536416666815,
      "v": 62
    },
    {
      "midi": 72,
      "hit": false,
      "t": 181214.42162499973,
      "d": 1642.8583750000107,
      "v": 60
    },
    {
      "midi": 56,
      "hit": false,
      "t": 182885.85144999973,
      "d": 2257.1445500000264,
      "v": 74
    },
    {
      "midi": 60,
      "hit": false,
      "t": 182890.61335833307,
      "d": 2252.3826416666852,
      "v": 69
    },
    {
      "midi": 65,
      "hit": false,
      "t": 182895.3752666664,
      "d": 2247.620733333344,
      "v": 56
    },
    {
      "midi": 63,
      "hit": false,
      "t": 182900.13717499975,
      "d": 2242.858825000003,
      "v": 61
    },
    {
      "midi": 70,
      "hit": false,
      "t": 186304.90163333307,
      "d": 804.7625083333114,
      "v": 81
    },
    {
      "midi": 68,
      "hit": false,
      "t": 186581.0923166664,
      "d": 552.3813666666101,
      "v": 63
    },
    {
      "midi": 62,
      "hit": false,
      "t": 186857.28299999973,
      "d": 261.90495833329624,
      "v": 62
    },
    {
      "midi": 70,
      "hit": false,
      "t": 188590.61763333302,
      "d": 804.7625083333114,
      "v": 81
    },
    {
      "midi": 67,
      "hit": false,
      "t": 188866.80831666637,
      "d": 552.3813666666101,
      "v": 63
    },
    {
      "midi": 62,
      "hit": false,
      "t": 189142.9989999997,
      "d": 261.90495833329624,
      "v": 62
    },
    {
      "midi": 63,
      "hit": false,
      "t": 189714.42799999967,
      "d": 2285.716000000015,
      "v": 55
    },
    {
      "midi": 67,
      "hit": false,
      "t": 189747.761358333,
      "d": 2252.3826416666852,
      "v": 57
    },
    {
      "midi": 70,
      "hit": false,
      "t": 189785.85662499967,
      "d": 2214.2873750000144,
      "v": 55
    },
    {
      "midi": 72,
      "hit": false,
      "t": 193162.049633333,
      "d": 804.7625083333114,
      "v": 81
    },
    {
      "midi": 68,
      "hit": false,
      "t": 193438.24031666634,
      "d": 552.3813666666101,
      "v": 63
    },
    {
      "midi": 63,
      "hit": false,
      "t": 193714.43099999966,
      "d": 261.90495833329624,
      "v": 62
    },
    {
      "midi": 58,
      "hit": false,
      "t": 194747.76510833297,
      "d": 1823.8108916666824,
      "v": 58
    },
    {
      "midi": 62,
      "hit": false,
      "t": 194833.47945833296,
      "d": 1738.0965416666877,
      "v": 60
    },
    {
      "midi": 65,
      "hit": false,
      "t": 194890.62235833297,
      "d": 1680.9536416666815,
      "v": 62
    },
    {
      "midi": 68,
      "hit": false,
      "t": 194928.71762499964,
      "d": 1642.8583750000107,
      "v": 60
    },
    {
      "midi": 60,
      "hit": false,
      "t": 196600.14744999964,
      "d": 2257.1445500000264,
      "v": 74
    },
    {
      "midi": 64,
      "hit": false,
      "t": 196604.90935833298,
      "d": 2252.3826416666852,
      "v": 69
    },
    {
      "midi": 67,
      "hit": false,
      "t": 196609.67126666632,
      "d": 2247.620733333344,
      "v": 56
    },
    {
      "midi": 64,
      "hit": false,
      "t": 198857.29199999967,
      "d": 2285.716000000015,
      "v": 55
    },
    {
      "midi": 67,
      "hit": false,
      "t": 198890.625358333,
      "d": 2252.3826416666852,
      "v": 57
    },
    {
      "midi": 72,
      "hit": false,
      "t": 198928.72062499967,
      "d": 2214.2873750000144,
      "v": 55
    },
    {
      "midi": 79,
      "hit": false,
      "t": 200000.14999999976,
      "d": 1209.5247166666668,
      "v": 112
    },
    {
      "midi": 72,
      "hit": false,
      "t": 200000.14999999976,
      "d": 1223.810441666661,
      "v": 112
    },
    {
      "midi": 76,
      "hit": false,
      "t": 200000.14999999976,
      "d": 1223.810441666661,
      "v": 112
    },
    {
      "midi": 36,
      "hit": false,
      "t": 200857.29349999977,
      "d": 380.95266666664975,
      "v": 112
    },
    {
      "midi": 41,
      "hit": false,
      "t": 201143.00799999977,
      "d": 757.1434249999875,
      "v": 112
    },
    {
      "midi": 69,
      "hit": false,
      "t": 201428.72249999974,
      "d": 280.95259166666074,
      "v": 112
    },
    {
      "midi": 72,
      "hit": false,
      "t": 201428.72249999974,
      "d": 280.95259166666074,
      "v": 112
    },
    {
      "midi": 76,
      "hit": false,
      "t": 201428.72249999974,
      "d": 280.95259166666074,
      "v": 112
    },
    {
      "midi": 81,
      "hit": false,
      "t": 201428.72249999974,
      "d": 280.95259166666074,
      "v": 112
    },
    {
      "midi": 60,
      "hit": false,
      "t": 201604.913108333,
      "d": 1823.8108916666824,
      "v": 58
    },
    {
      "midi": 64,
      "hit": false,
      "t": 201690.627458333,
      "d": 1738.0965416666877,
      "v": 60
    },
    {
      "midi": 69,
      "hit": false,
      "t": 201714.43699999974,
      "d": 280.95259166668984,
      "v": 112
    },
    {
      "midi": 72,
      "hit": false,
      "t": 201714.43699999974,
      "d": 280.95259166668984,
      "v": 112
    },
    {
      "midi": 76,
      "hit": false,
      "t": 201714.43699999974,
      "d": 280.95259166668984,
      "v": 112
    },
    {
      "midi": 81,
      "hit": false,
      "t": 201714.43699999974,
      "d": 280.95259166668984,
      "v": 112
    },
    {
      "midi": 67,
      "hit": false,
      "t": 201747.77035833301,
      "d": 1680.9536416666815,
      "v": 62
    },
    {
      "midi": 69,
      "hit": false,
      "t": 201785.8656249997,
      "d": 1642.8583750000107,
      "v": 60
    },
    {
      "midi": 41,
      "hit": false,
      "t": 202000.15149999977,
      "d": 280.95259166666074,
      "v": 112
    },
    {
      "midi": 69,
      "hit": false,
      "t": 202000.15149999977,
      "d": 280.95259166666074,
      "v": 112
    },
    {
      "midi": 72,
      "hit": false,
      "t": 202000.15149999977,
      "d": 280.95259166666074,
      "v": 112
    },
    {
      "midi": 76,
      "hit": false,
      "t": 202000.15149999977,
      "d": 280.95259166666074,
      "v": 112
    },
    {
      "midi": 81,
      "hit": false,
      "t": 202000.15149999977,
      "d": 280.95259166666074,
      "v": 112
    },
    {
      "midi": 69,
      "hit": false,
      "t": 202285.86599999978,
      "d": 561.9051833333215,
      "v": 112
    },
    {
      "midi": 72,
      "hit": false,
      "t": 202285.86599999978,
      "d": 561.9051833333215,
      "v": 112
    },
    {
      "midi": 76,
      "hit": false,
      "t": 202285.86599999978,
      "d": 647.6195333333162,
      "v": 112
    },
    {
      "midi": 81,
      "hit": false,
      "t": 202285.86599999978,
      "d": 671.4290749999927,
      "v": 112
    },
    {
      "midi": 41,
      "hit": false,
      "t": 202285.86599999978,
      "d": 1185.7151750000194,
      "v": 112
    },
    {
      "midi": 79,
      "hit": false,
      "t": 202857.29499999975,
      "d": 404.7622083333554,
      "v": 112
    },
    {
      "midi": 69,
      "hit": false,
      "t": 202857.29499999975,
      "d": 661.9052583333687,
      "v": 112
    },
    {
      "midi": 72,
      "hit": false,
      "t": 202857.29499999975,
      "d": 661.9052583333687,
      "v": 112
    },
    {
      "midi": 77,
      "hit": false,
      "t": 203143.00949999978,
      "d": 280.95259166666074,
      "v": 112
    },
    {
      "midi": 62,
      "hit": false,
      "t": 203428.7239999997,
      "d": 2285.716000000015,
      "v": 55
    },
    {
      "midi": 70,
      "hit": false,
      "t": 203428.72399999978,
      "d": 561.9051833333215,
      "v": 112
    },
    {
      "midi": 74,
      "hit": false,
      "t": 203428.72399999978,
      "d": 561.9051833333215,
      "v": 112
    },
    {
      "midi": 77,
      "hit": false,
      "t": 203428.72399999978,
      "d": 561.9051833333215,
      "v": 112
    },
    {
      "midi": 81,
      "hit": false,
      "t": 203428.72399999978,
      "d": 709.5243416666344,
      "v": 112
    },
    {
      "midi": 46,
      "hit": false,
      "t": 203428.72399999978,
      "d": 747.6196083333052,
      "v": 112
    },
    {
      "midi": 65,
      "hit": false,
      "t": 203462.05735833303,
      "d": 2252.3826416666852,
      "v": 57
    },
    {
      "midi": 69,
      "hit": false,
      "t": 203500.1526249997,
      "d": 2214.2873750000144,
      "v": 55
    },
    {
      "midi": 79,
      "hit": false,
      "t": 204000.15299999976,
      "d": 380.95266666667885,
      "v": 112
    },
    {
      "midi": 70,
      "hit": false,
      "t": 204000.15299999976,
      "d": 500.00037500000326,
      "v": 112
    },
    {
      "midi": 74,
      "hit": false,
      "t": 204000.15299999976,
      "d": 514.2860999999975,
      "v": 112
    },
    {
      "midi": 46,
      "hit": false,
      "t": 204285.86749999976,
      "d": 280.95259166666074,
      "v": 112
    },
    {
      "midi": 77,
      "hit": false,
      "t": 204285.86749999976,
      "d": 280.95259166666074,
      "v": 112
    },
    {
      "midi": 70,
      "hit": false,
      "t": 204571.58199999976,
      "d": 561.9051833333215,
      "v": 112
    },
    {
      "midi": 74,
      "hit": false,
      "t": 204571.58199999976,
      "d": 561.9051833333215,
      "v": 112
    },
    {
      "midi": 77,
      "hit": false,
      "t": 204571.58199999976,
      "d": 561.9051833333215,
      "v": 112
    },
    {
      "midi": 81,
      "hit": false,
      "t": 204571.58199999976,
      "d": 695.2386166666402,
      "v": 112
    },
    {
      "midi": 46,
      "hit": false,
      "t": 204571.58199999976,
      "d": 1138.0960916666663,
      "v": 112
    },
    {
      "midi": 79,
      "hit": false,
      "t": 205143.01099999974,
      "d": 414.2860250000085,
      "v": 112
    },
    {
      "midi": 70,
      "hit": false,
      "t": 205143.01099999974,
      "d": 561.9051833333506,
      "v": 112
    },
    {
      "midi": 74,
      "hit": false,
      "t": 205143.01099999974,
      "d": 600.0004500000214,
      "v": 112
    },
    {
      "midi": 77,
      "hit": false,
      "t": 205428.72549999974,
      "d": 280.95259166668984,
      "v": 112
    },
    {
      "midi": 65,
      "hit": false,
      "t": 205714.4399999997,
      "d": 2285.716000000015,
      "v": 55
    },
    {
      "midi": 45,
      "hit": false,
      "t": 205714.43999999977,
      "d": 733.33388333334,
      "v": 112
    },
    {
      "midi": 69,
      "hit": false,
      "t": 205747.77335833304,
      "d": 2252.3826416666852,
      "v": 57
    },
    {
      "midi": 72,
      "hit": false,
      "t": 205785.8686249997,
      "d": 2214.2873750000144,
      "v": 55
    },
    {
      "midi": 69,
      "hit": false,
      "t": 206000.15449999977,
      "d": 280.95259166666074,
      "v": 112
    },
    {
      "midi": 72,
      "hit": false,
      "t": 206000.15449999977,
      "d": 280.95259166666074,
      "v": 112
    },
    {
      "midi": 81,
      "hit": false,
      "t": 206000.15449999977,
      "d": 414.2860250000085,
      "v": 112
    },
    {
      "midi": 69,
      "hit": false,
      "t": 206285.86899999977,
      "d": 280.95259166666074,
      "v": 112
    },
    {
      "midi": 72,
      "hit": false,
      "t": 206285.86899999977,
      "d": 280.95259166666074,
      "v": 112
    },
    {
      "midi": 79,
      "hit": false,
      "t": 206285.86899999977,
      "d": 390.476483333332,
      "v": 112
    },
    {
      "midi": 45,
      "hit": false,
      "t": 206571.58349999978,
      "d": 280.95259166666074,
      "v": 112
    },
    {
      "midi": 69,
      "hit": false,
      "t": 206571.58349999978,
      "d": 280.95259166666074,
      "v": 112
    },
    {
      "midi": 72,
      "hit": false,
      "t": 206571.58349999978,
      "d": 280.95259166666074,
      "v": 112
    },
    {
      "midi": 77,
      "hit": false,
      "t": 206571.58349999978,
      "d": 357.1431250000023,
      "v": 112
    },
    {
      "midi": 69,
      "hit": false,
      "t": 206857.29799999978,
      "d": 561.9051833333215,
      "v": 112
    },
    {
      "midi": 72,
      "hit": false,
      "t": 206857.29799999978,
      "d": 561.9051833333215,
      "v": 112
    },
    {
      "midi": 81,
      "hit": false,
      "t": 206857.29799999978,
      "d": 647.6195333333162,
      "v": 112
    },
    {
      "midi": 45,
      "hit": false,
      "t": 206857.29799999978,
      "d": 1209.5247166666086,
      "v": 112
    },
    {
      "midi": 72,
      "hit": false,
      "t": 207428.72699999975,
      "d": 366.6669416666555,
      "v": 112
    },
    {
      "midi": 79,
      "hit": false,
      "t": 207428.72699999975,
      "d": 380.95266666664975,
      "v": 112
    },
    {
      "midi": 69,
      "hit": false,
      "t": 207428.72699999975,
      "d": 390.4764833333029,
      "v": 112
    },
    {
      "midi": 76,
      "hit": false,
      "t": 207714.44149999975,
      "d": 357.1431249999732,
      "v": 112
    },
    {
      "midi": 66,
      "hit": false,
      "t": 208000.15599999973,
      "d": 280.95259166666074,
      "v": 112
    },
    {
      "midi": 72,
      "hit": false,
      "t": 208000.15599999973,
      "d": 280.95259166666074,
      "v": 112
    },
    {
      "midi": 78,
      "hit": false,
      "t": 208000.15599999973,
      "d": 280.95259166666074,
      "v": 112
    },
    {
      "midi": 38,
      "hit": false,
      "t": 208000.15599999973,
      "d": 747.6196083333343,
      "v": 112
    },
    {
      "midi": 66,
      "hit": false,
      "t": 208285.87049999973,
      "d": 280.95259166666074,
      "v": 112
    },
    {
      "midi": 72,
      "hit": false,
      "t": 208285.87049999973,
      "d": 280.95259166666074,
      "v": 112
    },
    {
      "midi": 78,
      "hit": false,
      "t": 208285.87049999973,
      "d": 280.95259166666074,
      "v": 112
    },
    {
      "midi": 55,
      "hit": false,
      "t": 208295.39431666638,
      "d": 514.2860999999975,
      "v": 74
    },
    {
      "midi": 60,
      "hit": false,
      "t": 208314.44194999972,
      "d": 495.23846666666213,
      "v": 55
    },
    {
      "midi": 64,
      "hit": false,
      "t": 208319.20385833306,
      "d": 490.476558333321,
      "v": 51
    },
    {
      "midi": 67,
      "hit": false,
      "t": 208328.7276749997,
      "d": 480.95274166666786,
      "v": 59
    },
    {
      "midi": 72,
      "hit": false,
      "t": 208571.58499999973,
      "d": 280.95259166666074,
      "v": 112
    },
    {
      "midi": 66,
      "hit": false,
      "t": 208571.58499999973,
      "d": 404.76220833332627,
      "v": 112
    },
    {
      "midi": 78,
      "hit": false,
      "t": 208571.58499999973,
      "d": 404.76220833332627,
      "v": 112
    },
    {
      "midi": 72,
      "hit": false,
      "t": 208857.29949999973,
      "d": 561.9051833333215,
      "v": 112
    },
    {
      "midi": 67,
      "hit": false,
      "t": 208857.29949999973,
      "d": 695.2386166666402,
      "v": 112
    },
    {
      "midi": 79,
      "hit": false,
      "t": 208857.29949999973,
      "d": 695.2386166666402,
      "v": 112
    },
    {
      "midi": 40,
      "hit": false,
      "t": 208857.29949999973,
      "d": 952.3816666666535,
      "v": 112
    },
    {
      "midi": 69,
      "hit": false,
      "t": 209428.7284999997,
      "d": 780.9529666666931,
      "v": 112
    },
    {
      "midi": 72,
      "hit": false,
      "t": 209428.7284999997,
      "d": 819.0482333333639,
      "v": 112
    },
    {
      "midi": 81,
      "hit": false,
      "t": 209428.7284999997,
      "d": 942.8578500000294,
      "v": 112
    },
    {
      "midi": 66,
      "hit": false,
      "t": 209447.77613333304,
      "d": 838.0958666666702,
      "v": 57
    },
    {
      "midi": 62,
      "hit": false,
      "t": 209471.58567499972,
      "d": 814.2863249999937,
      "v": 51
    },
    {
      "midi": 57,
      "hit": false,
      "t": 209481.10949166637,
      "d": 804.7625083333405,
      "v": 60
    },
    {
      "midi": 60,
      "hit": false,
      "t": 209481.10949166637,
      "d": 804.7625083333405,
      "v": 74
    },
    {
      "midi": 42,
      "hit": false,
      "t": 209714.4429999997,
      "d": 680.9528916667041,
      "v": 112
    },
    {
      "midi": 70,
      "hit": false,
      "t": 210285.87199999974,
      "d": 280.95259166666074,
      "v": 112
    },
    {
      "midi": 74,
      "hit": false,
      "t": 210285.87199999974,
      "d": 280.95259166666074,
      "v": 112
    },
    {
      "midi": 77,
      "hit": false,
      "t": 210285.87199999974,
      "d": 280.95259166666074,
      "v": 112
    },
    {
      "midi": 82,
      "hit": false,
      "t": 210285.87199999974,
      "d": 280.95259166666074,
      "v": 112
    },
    {
      "midi": 43,
      "hit": false,
      "t": 210285.87199999974,
      "d": 719.0481583333458,
      "v": 112
    },
    {
      "midi": 62,
      "hit": false,
      "t": 210304.91963333305,
      "d": 566.6670916666626,
      "v": 62
    },
    {
      "midi": 70,
      "hit": false,
      "t": 210304.91963333305,
      "d": 566.6670916666626,
      "v": 63
    },
    {
      "midi": 65,
      "hit": false,
      "t": 210304.91963333305,
      "d": 580.9528166666569,
      "v": 55
    },
    {
      "midi": 53,
      "hit": false,
      "t": 210304.91963333305,
      "d": 895.2387666666473,
      "v": 63
    },
    {
      "midi": 70,
      "hit": false,
      "t": 210571.58649999974,
      "d": 280.95259166666074,
      "v": 112
    },
    {
      "midi": 74,
      "hit": false,
      "t": 210571.58649999974,
      "d": 280.95259166666074,
      "v": 112
    },
    {
      "midi": 77,
      "hit": false,
      "t": 210571.58649999974,
      "d": 280.95259166666074,
      "v": 112
    },
    {
      "midi": 82,
      "hit": false,
      "t": 210571.58649999974,
      "d": 280.95259166666074,
      "v": 112
    },
    {
      "midi": 70,
      "hit": false,
      "t": 210857.30099999974,
      "d": 280.95259166668984,
      "v": 112
    },
    {
      "midi": 74,
      "hit": false,
      "t": 210857.30099999974,
      "d": 280.95259166668984,
      "v": 112
    },
    {
      "midi": 77,
      "hit": false,
      "t": 210857.30099999974,
      "d": 280.95259166668984,
      "v": 112
    },
    {
      "midi": 82,
      "hit": false,
      "t": 210857.30099999974,
      "d": 280.95259166668984,
      "v": 112
    },
    {
      "midi": 43,
      "hit": false,
      "t": 211143.01549999978,
      "d": 280.95259166666074,
      "v": 112
    },
    {
      "midi": 74,
      "hit": false,
      "t": 211143.01549999978,
      "d": 495.23846666666213,
      "v": 112
    },
    {
      "midi": 70,
      "hit": false,
      "t": 211143.01549999978,
      "d": 533.3337333333329,
      "v": 112
    },
    {
      "midi": 77,
      "hit": false,
      "t": 211143.01549999978,
      "d": 633.333808333351,
      "v": 112
    },
    {
      "midi": 82,
      "hit": false,
      "t": 211143.01549999978,
      "d": 671.4290750000218,
      "v": 112
    },
    {
      "midi": 43,
      "hit": false,
      "t": 211162.06313333302,
      "d": 157.1429749999952,
      "v": 63
    },
    {
      "midi": 65,
      "hit": false,
      "t": 211162.06313333302,
      "d": 161.90488333333633,
      "v": 59
    },
    {
      "midi": 67,
      "hit": false,
      "t": 211162.06313333302,
      "d": 161.90488333333633,
      "v": 63
    },
    {
      "midi": 62,
      "hit": false,
      "t": 211162.06313333302,
      "d": 200.00015000000712,
      "v": 63
    },
    {
      "midi": 43,
      "hit": false,
      "t": 211428.72999999978,
      "d": 657.1433500000276,
      "v": 112
    },
    {
      "midi": 70,
      "hit": false,
      "t": 211714.44449999978,
      "d": 509.5241916666855,
      "v": 112
    },
    {
      "midi": 65,
      "hit": false,
      "t": 211714.44449999978,
      "d": 523.8099166666798,
      "v": 112
    },
    {
      "midi": 74,
      "hit": false,
      "t": 211714.44449999978,
      "d": 523.8099166666798,
      "v": 112
    },
    {
      "midi": 38,
      "hit": false,
      "t": 212000.1589999998,
      "d": 709.5243416666344,
      "v": 112
    },
    {
      "midi": 65,
      "hit": false,
      "t": 212285.87349999978,
      "d": 647.6195333333453,
      "v": 112
    },
    {
      "midi": 70,
      "hit": false,
      "t": 212285.87349999978,
      "d": 647.6195333333453,
      "v": 112
    },
    {
      "midi": 74,
      "hit": false,
      "t": 212285.87349999978,
      "d": 671.4290750000218,
      "v": 112
    },
    {
      "midi": 36,
      "hit": false,
      "t": 212571.58799999979,
      "d": 757.1434250000457,
      "v": 112
    },
    {
      "midi": 60,
      "hit": false,
      "t": 212590.63563333303,
      "d": 566.6670916666626,
      "v": 62
    },
    {
      "midi": 70,
      "hit": false,
      "t": 212590.63563333303,
      "d": 566.6670916666626,
      "v": 63
    },
    {
      "midi": 64,
      "hit": false,
      "t": 212590.63563333303,
      "d": 580.9528166666569,
      "v": 55
    },
    {
      "midi": 52,
      "hit": false,
      "t": 212590.63563333303,
      "d": 895.2387666666473,
      "v": 63
    },
    {
      "midi": 72,
      "hit": false,
      "t": 212857.3024999998,
      "d": 280.95259166668984,
      "v": 112
    },
    {
      "midi": 76,
      "hit": false,
      "t": 212857.3024999998,
      "d": 280.95259166668984,
      "v": 112
    },
    {
      "midi": 70,
      "hit": false,
      "t": 213119.20745833314,
      "d": 819.0482333333348,
      "v": 112
    },
    {
      "midi": 76,
      "hit": false,
      "t": 213143.01699999982,
      "d": 819.0482333333348,
      "v": 112
    },
    {
      "midi": 72,
      "hit": false,
      "t": 213143.01699999982,
      "d": 833.3339583333291,
      "v": 112
    },
    {
      "midi": 67,
      "hit": false,
      "t": 213143.01699999982,
      "d": 871.4292249999999,
      "v": 112
    },
    {
      "midi": 36,
      "hit": false,
      "t": 213428.73149999982,
      "d": 280.95259166666074,
      "v": 112
    },
    {
      "midi": 48,
      "hit": false,
      "t": 213447.779133333,
      "d": 157.1429749999952,
      "v": 63
    },
    {
      "midi": 64,
      "hit": false,
      "t": 213447.779133333,
      "d": 161.90488333333633,
      "v": 59
    },
    {
      "midi": 67,
      "hit": false,
      "t": 213447.779133333,
      "d": 161.90488333333633,
      "v": 63
    },
    {
      "midi": 60,
      "hit": false,
      "t": 213447.779133333,
      "d": 200.00015000000712,
      "v": 63
    },
    {
      "midi": 36,
      "hit": false,
      "t": 213714.44599999982,
      "d": 719.0481583333458,
      "v": 112
    },
    {
      "midi": 43,
      "hit": false,
      "t": 214285.87499999983,
      "d": 561.9051833333506,
      "v": 112
    },
    {
      "midi": 69,
      "hit": false,
      "t": 214857.30399999983,
      "d": 280.95259166666074,
      "v": 112
    },
    {
      "midi": 72,
      "hit": false,
      "t": 214857.30399999983,
      "d": 280.95259166666074,
      "v": 112
    },
    {
      "midi": 76,
      "hit": false,
      "t": 214857.30399999983,
      "d": 280.95259166666074,
      "v": 112
    },
    {
      "midi": 81,
      "hit": false,
      "t": 214857.30399999983,
      "d": 280.95259166666074,
      "v": 112
    },
    {
      "midi": 41,
      "hit": false,
      "t": 214857.30399999983,
      "d": 747.6196083333343,
      "v": 112
    },
    {
      "midi": 69,
      "hit": false,
      "t": 214876.35163333302,
      "d": 523.8099166666798,
      "v": 73
    },
    {
      "midi": 67,
      "hit": false,
      "t": 214876.35163333302,
      "d": 542.8575500000152,
      "v": 60
    },
    {
      "midi": 76,
      "hit": false,
      "t": 214876.35163333302,
      "d": 585.7147250000271,
      "v": 48
    },
    {
      "midi": 57,
      "hit": false,
      "t": 214876.35163333302,
      "d": 600.0004500000214,
      "v": 68
    },
    {
      "midi": 60,
      "hit": false,
      "t": 214876.35163333302,
      "d": 600.0004500000214,
      "v": 60
    },
    {
      "midi": 69,
      "hit": false,
      "t": 215143.01849999983,
      "d": 280.95259166666074,
      "v": 112
    },
    {
      "midi": 72,
      "hit": false,
      "t": 215143.01849999983,
      "d": 280.95259166666074,
      "v": 112
    },
    {
      "midi": 76,
      "hit": false,
      "t": 215143.01849999983,
      "d": 280.95259166666074,
      "v": 112
    },
    {
      "midi": 81,
      "hit": false,
      "t": 215143.01849999983,
      "d": 280.95259166666074,
      "v": 112
    },
    {
      "midi": 69,
      "hit": false,
      "t": 215428.73299999983,
      "d": 280.95259166666074,
      "v": 112
    },
    {
      "midi": 72,
      "hit": false,
      "t": 215428.73299999983,
      "d": 280.95259166666074,
      "v": 112
    },
    {
      "midi": 76,
      "hit": false,
      "t": 215428.73299999983,
      "d": 280.95259166666074,
      "v": 112
    },
    {
      "midi": 81,
      "hit": false,
      "t": 215428.73299999983,
      "d": 280.95259166666074,
      "v": 112
    },
    {
      "midi": 41,
      "hit": false,
      "t": 215714.44749999983,
      "d": 280.95259166666074,
      "v": 112
    },
    {
      "midi": 72,
      "hit": false,
      "t": 215714.44749999983,
      "d": 509.5241916666564,
      "v": 112
    },
    {
      "midi": 69,
      "hit": false,
      "t": 215714.44749999983,
      "d": 533.3337333333329,
      "v": 112
    },
    {
      "midi": 76,
      "hit": false,
      "t": 215714.44749999983,
      "d": 619.0480833333277,
      "v": 112
    },
    {
      "midi": 81,
      "hit": false,
      "t": 215714.44749999983,
      "d": 680.952891666675,
      "v": 112
    },
    {
      "midi": 69,
      "hit": false,
      "t": 215733.49513333305,
      "d": 90.47625833333586,
      "v": 82
    },
    {
      "midi": 57,
      "hit": false,
      "t": 215733.49513333305,
      "d": 100.00007499998901,
      "v": 75
    },
    {
      "midi": 67,
      "hit": false,
      "t": 215733.49513333305,
      "d": 104.76198333333014,
      "v": 73
    },
    {
      "midi": 60,
      "hit": false,
      "t": 215733.49513333305,
      "d": 109.52389166667126,
      "v": 76
    },
    {
      "midi": 76,
      "hit": false,
      "t": 215733.49513333305,
      "d": 109.52389166667126,
      "v": 56
    },
    {
      "midi": 41,
      "hit": false,
      "t": 216000.16199999984,
      "d": 1290.4771583333495,
      "v": 112
    },
    {
      "midi": 65,
      "hit": false,
      "t": 216285.87649999984,
      "d": 561.9051833333506,
      "v": 112
    },
    {
      "midi": 69,
      "hit": false,
      "t": 216285.87649999984,
      "d": 561.9051833333506,
      "v": 112
    },
    {
      "midi": 72,
      "hit": false,
      "t": 216285.87649999984,
      "d": 561.9051833333506,
      "v": 112
    },
    {
      "midi": 65,
      "hit": false,
      "t": 216857.30549999984,
      "d": 657.1433499999985,
      "v": 112
    },
    {
      "midi": 69,
      "hit": false,
      "t": 216857.30549999984,
      "d": 657.1433499999985,
      "v": 112
    },
    {
      "midi": 72,
      "hit": false,
      "t": 216857.30549999984,
      "d": 680.952891666675,
      "v": 112
    },
    {
      "midi": 38,
      "hit": false,
      "t": 217143.01999999984,
      "d": 733.33388333334,
      "v": 112
    },
    {
      "midi": 60,
      "hit": false,
      "t": 217162.06763333306,
      "d": 495.23846666666213,
      "v": 77
    },
    {
      "midi": 57,
      "hit": false,
      "t": 217162.06763333306,
      "d": 504.7622833333153,
      "v": 68
    },
    {
      "midi": 62,
      "hit": false,
      "t": 217162.06763333306,
      "d": 519.0480083333096,
      "v": 59
    },
    {
      "midi": 65,
      "hit": false,
      "t": 217162.06763333306,
      "d": 533.3337333333038,
      "v": 71
    },
    {
      "midi": 74,
      "hit": false,
      "t": 217428.73449999985,
      "d": 280.95259166666074,
      "v": 112
    },
    {
      "midi": 69,
      "hit": false,
      "t": 217714.44899999985,
      "d": 833.3339583333582,
      "v": 112
    },
    {
      "midi": 74,
      "hit": false,
      "t": 217714.44899999985,
      "d": 833.3339583333582,
      "v": 112
    },
    {
      "midi": 65,
      "hit": false,
      "t": 217714.44899999985,
      "d": 842.8577750000113,
      "v": 112
    },
    {
      "midi": 40,
      "hit": false,
      "t": 218000.16349999985,
      "d": 361.90503333334345,
      "v": 112
    },
    {
      "midi": 41,
      "hit": false,
      "t": 218285.87799999985,
      "d": 409.5241166666674,
      "v": 112
    },
    {
      "midi": 40,
      "hit": false,
      "t": 218571.59249999985,
      "d": 371.4288499999966,
      "v": 112
    },
    {
      "midi": 57,
      "hit": false,
      "t": 218590.64013333304,
      "d": 690.4767083333281,
      "v": 62
    },
    {
      "midi": 38,
      "hit": false,
      "t": 218857.30699999986,
      "d": 733.33388333334,
      "v": 112
    },
    {
      "midi": 60,
      "hit": false,
      "t": 218876.35463333305,
      "d": 200.00015000000712,
      "v": 79
    },
    {
      "midi": 65,
      "hit": false,
      "t": 218876.35463333305,
      "d": 200.00015000000712,
      "v": 71
    },
    {
      "midi": 70,
      "hit": false,
      "t": 219428.73599999986,
      "d": 280.95259166666074,
      "v": 112
    },
    {
      "midi": 74,
      "hit": false,
      "t": 219428.73599999986,
      "d": 280.95259166666074,
      "v": 112
    },
    {
      "midi": 77,
      "hit": false,
      "t": 219428.73599999986,
      "d": 280.95259166666074,
      "v": 112
    },
    {
      "midi": 82,
      "hit": false,
      "t": 219428.73599999986,
      "d": 280.95259166666074,
      "v": 112
    },
    {
      "midi": 43,
      "hit": false,
      "t": 219428.73599999986,
      "d": 695.2386166666693,
      "v": 112
    },
    {
      "midi": 58,
      "hit": false,
      "t": 219447.78363333305,
      "d": 495.23846666666213,
      "v": 77
    },
    {
      "midi": 55,
      "hit": false,
      "t": 219447.78363333305,
      "d": 504.7622833333153,
      "v": 68
    },
    {
      "midi": 62,
      "hit": false,
      "t": 219447.78363333305,
      "d": 519.0480083333096,
      "v": 59
    },
    {
      "midi": 65,
      "hit": false,
      "t": 219447.78363333305,
      "d": 533.3337333333038,
      "v": 71
    },
    {
      "midi": 70,
      "hit": false,
      "t": 219714.45049999986,
      "d": 280.95259166666074,
      "v": 112
    },
    {
      "midi": 74,
      "hit": false,
      "t": 219714.45049999986,
      "d": 280.95259166666074,
      "v": 112
    },
    {
      "midi": 77,
      "hit": false,
      "t": 219714.45049999986,
      "d": 280.95259166666074,
      "v": 112
    },
    {
      "midi": 82,
      "hit": false,
      "t": 219714.45049999986,
      "d": 280.95259166666074,
      "v": 112
    },
    {
      "midi": 70,
      "hit": false,
      "t": 220000.16499999986,
      "d": 280.95259166666074,
      "v": 112
    },
    {
      "midi": 74,
      "hit": false,
      "t": 220000.16499999986,
      "d": 280.95259166666074,
      "v": 112
    },
    {
      "midi": 77,
      "hit": false,
      "t": 220000.16499999986,
      "d": 280.95259166666074,
      "v": 112
    },
    {
      "midi": 82,
      "hit": false,
      "t": 220000.16499999986,
      "d": 280.95259166666074,
      "v": 112
    },
    {
      "midi": 43,
      "hit": false,
      "t": 220285.87949999986,
      "d": 280.95259166666074,
      "v": 112
    },
    {
      "midi": 70,
      "hit": false,
      "t": 220285.87949999986,
      "d": 509.5241916666564,
      "v": 112
    },
    {
      "midi": 74,
      "hit": false,
      "t": 220285.87949999986,
      "d": 509.5241916666564,
      "v": 112
    },
    {
      "midi": 77,
      "hit": false,
      "t": 220285.87949999986,
      "d": 633.333808333351,
      "v": 112
    },
    {
      "midi": 82,
      "hit": false,
      "t": 220285.87949999986,
      "d": 709.5243416666926,
      "v": 112
    },
    {
      "midi": 43,
      "hit": false,
      "t": 220571.59399999987,
      "d": 680.9528916667041,
      "v": 112
    },
    {
      "midi": 70,
      "hit": false,
      "t": 220857.30849999987,
      "d": 509.5241916667146,
      "v": 112
    },
    {
      "midi": 65,
      "hit": false,
      "t": 220857.30849999987,
      "d": 523.8099166667089,
      "v": 112
    },
    {
      "midi": 74,
      "hit": false,
      "t": 220857.30849999987,
      "d": 523.8099166667089,
      "v": 112
    },
    {
      "midi": 55,
      "hit": false,
      "t": 220876.35613333303,
      "d": 690.4767083333281,
      "v": 62
    },
    {
      "midi": 38,
      "hit": false,
      "t": 221143.0229999999,
      "d": 657.1433499999985,
      "v": 112
    },
    {
      "midi": 58,
      "hit": false,
      "t": 221162.07063333303,
      "d": 200.00015000000712,
      "v": 79
    },
    {
      "midi": 65,
      "hit": false,
      "t": 221162.07063333303,
      "d": 200.00015000000712,
      "v": 71
    },
    {
      "midi": 74,
      "hit": false,
      "t": 221428.7374999999,
      "d": 657.1433499999985,
      "v": 112
    },
    {
      "midi": 70,
      "hit": false,
      "t": 221428.7374999999,
      "d": 671.4290749999927,
      "v": 112
    },
    {
      "midi": 65,
      "hit": false,
      "t": 221428.7374999999,
      "d": 680.9528916666459,
      "v": 112
    },
    {
      "midi": 36,
      "hit": false,
      "t": 221714.4519999999,
      "d": 733.333883333311,
      "v": 112
    },
    {
      "midi": 60,
      "hit": false,
      "t": 221733.49963333303,
      "d": 566.6670916666626,
      "v": 62
    },
    {
      "midi": 70,
      "hit": false,
      "t": 221733.49963333303,
      "d": 566.6670916666626,
      "v": 63
    },
    {
      "midi": 64,
      "hit": false,
      "t": 221733.49963333303,
      "d": 580.9528166666569,
      "v": 55
    },
    {
      "midi": 52,
      "hit": false,
      "t": 221733.49963333303,
      "d": 895.2387666666473,
      "v": 63
    },
    {
      "midi": 72,
      "hit": false,
      "t": 222000.1664999999,
      "d": 280.95259166663163,
      "v": 112
    },
    {
      "midi": 76,
      "hit": false,
      "t": 222000.1664999999,
      "d": 280.95259166663163,
      "v": 112
    },
    {
      "midi": 70,
      "hit": false,
      "t": 222262.0714583332,
      "d": 671.4290749999927,
      "v": 112
    },
    {
      "midi": 76,
      "hit": false,
      "t": 222285.88099999988,
      "d": 509.5241916666564,
      "v": 112
    },
    {
      "midi": 72,
      "hit": false,
      "t": 222285.88099999988,
      "d": 619.0480833333277,
      "v": 112
    },
    {
      "midi": 67,
      "hit": false,
      "t": 222285.88099999988,
      "d": 647.6195333333162,
      "v": 112
    },
    {
      "midi": 36,
      "hit": false,
      "t": 222571.59549999988,
      "d": 280.95259166666074,
      "v": 112
    },
    {
      "midi": 48,
      "hit": false,
      "t": 222590.643133333,
      "d": 157.1429749999952,
      "v": 63
    },
    {
      "midi": 64,
      "hit": false,
      "t": 222590.643133333,
      "d": 161.90488333333633,
      "v": 59
    },
    {
      "midi": 67,
      "hit": false,
      "t": 222590.643133333,
      "d": 161.90488333333633,
      "v": 63
    },
    {
      "midi": 60,
      "hit": false,
      "t": 222590.643133333,
      "d": 200.00015000000712,
      "v": 63
    },
    {
      "midi": 76,
      "hit": false,
      "t": 222857.30999999988,
      "d": 495.23846666666213,
      "v": 112
    },
    {
      "midi": 64,
      "hit": false,
      "t": 222857.30999999988,
      "d": 523.8099166666507,
      "v": 112
    },
    {
      "midi": 36,
      "hit": false,
      "t": 222857.30999999988,
      "d": 1142.8580000000075,
      "v": 112
    },
    {
      "midi": 77,
      "hit": false,
      "t": 223243.02457499987,
      "d": 461.90510833333246,
      "v": 112
    },
    {
      "midi": 65,
      "hit": false,
      "t": 223243.02457499987,
      "d": 485.714650000009,
      "v": 112
    },
    {
      "midi": 79,
      "hit": false,
      "t": 223562.0724333332,
      "d": 190.47633333335398,
      "v": 112
    },
    {
      "midi": 81,
      "hit": false,
      "t": 223623.97724166655,
      "d": 595.2385416666802,
      "v": 112
    },
    {
      "midi": 69,
      "hit": false,
      "t": 223623.97724166655,
      "d": 609.5242666666745,
      "v": 112
    },
    {
      "midi": 38,
      "hit": false,
      "t": 224000.1679999999,
      "d": 709.5243416666635,
      "v": 112
    },
    {
      "midi": 66,
      "hit": false,
      "t": 224019.21563333302,
      "d": 566.6670916666626,
      "v": 55
    },
    {
      "midi": 74,
      "hit": false,
      "t": 224019.21563333302,
      "d": 566.6670916666626,
      "v": 63
    },
    {
      "midi": 54,
      "hit": false,
      "t": 224019.21563333302,
      "d": 895.2387666666764,
      "v": 63
    },
    {
      "midi": 69,
      "hit": false,
      "t": 224285.8824999999,
      "d": 1823.8108916666533,
      "v": 112
    },
    {
      "midi": 74,
      "hit": false,
      "t": 224285.8824999999,
      "d": 1852.3823416666419,
      "v": 112
    },
    {
      "midi": 78,
      "hit": false,
      "t": 224285.8824999999,
      "d": 1885.7156999999715,
      "v": 112
    },
    {
      "midi": 81,
      "hit": false,
      "t": 224285.8824999999,
      "d": 1885.7156999999715,
      "v": 112
    },
    {
      "midi": 38,
      "hit": false,
      "t": 224857.3114999999,
      "d": 280.95259166666074,
      "v": 112
    },
    {
      "midi": 50,
      "hit": false,
      "t": 224876.35913333303,
      "d": 157.1429749999952,
      "v": 63
    },
    {
      "midi": 66,
      "hit": false,
      "t": 224876.35913333303,
      "d": 161.90488333333633,
      "v": 59
    },
    {
      "midi": 69,
      "hit": false,
      "t": 224876.35913333303,
      "d": 161.90488333333633,
      "v": 63
    },
    {
      "midi": 38,
      "hit": false,
      "t": 225143.0259999999,
      "d": 385.7145749999909,
      "v": 112
    },
    {
      "midi": 45,
      "hit": false,
      "t": 225428.7404999999,
      "d": 371.4288499999966,
      "v": 112
    },
    {
      "midi": 50,
      "hit": false,
      "t": 225714.4549999999,
      "d": 385.7145749999909,
      "v": 112
    },
    {
      "midi": 45,
      "hit": false,
      "t": 226000.1694999999,
      "d": 395.238391666644,
      "v": 112
    },
    {
      "midi": 38,
      "hit": false,
      "t": 226285.88399999987,
      "d": 757.1434250000166,
      "v": 112
    },
    {
      "midi": 57,
      "hit": false,
      "t": 226295.40781666635,
      "d": 228.57159999999567,
      "v": 79
    },
    {
      "midi": 60,
      "hit": false,
      "t": 226314.4554499997,
      "d": 209.52396666666027,
      "v": 60
    },
    {
      "midi": 62,
      "hit": false,
      "t": 226319.21735833303,
      "d": 204.76205833331915,
      "v": 56
    },
    {
      "midi": 66,
      "hit": false,
      "t": 226328.74117499968,
      "d": 195.238241666666,
      "v": 64
    },
    {
      "midi": 66,
      "hit": false,
      "t": 226571.59849999988,
      "d": 280.95259166666074,
      "v": 112
    },
    {
      "midi": 78,
      "hit": false,
      "t": 226571.59849999988,
      "d": 280.95259166666074,
      "v": 112
    },
    {
      "midi": 78,
      "hit": false,
      "t": 226857.31299999988,
      "d": 409.5241166666674,
      "v": 112
    },
    {
      "midi": 66,
      "hit": false,
      "t": 226857.31299999988,
      "d": 423.80984166666167,
      "v": 112
    },
    {
      "midi": 67,
      "hit": false,
      "t": 227143.02749999988,
      "d": 280.95259166666074,
      "v": 112
    },
    {
      "midi": 79,
      "hit": false,
      "t": 227143.02749999988,
      "d": 280.95259166666074,
      "v": 112
    },
    {
      "midi": 40,
      "hit": false,
      "t": 227143.02749999988,
      "d": 933.3340333333472,
      "v": 112
    },
    {
      "midi": 67,
      "hit": false,
      "t": 227162.075133333,
      "d": 838.0958666666702,
      "v": 62
    },
    {
      "midi": 64,
      "hit": false,
      "t": 227185.8846749997,
      "d": 814.2863249999937,
      "v": 56
    },
    {
      "midi": 55,
      "hit": false,
      "t": 227195.40849166634,
      "d": 804.7625083333405,
      "v": 65
    },
    {
      "midi": 60,
      "hit": false,
      "t": 227195.40849166634,
      "d": 804.7625083333405,
      "v": 79
    },
    {
      "midi": 67,
      "hit": false,
      "t": 227428.74199999988,
      "d": 395.2383916666731,
      "v": 112
    },
    {
      "midi": 79,
      "hit": false,
      "t": 227428.74199999988,
      "d": 447.6193833333382,
      "v": 112
    },
    {
      "midi": 69,
      "hit": false,
      "t": 227714.45649999988,
      "d": 280.95259166666074,
      "v": 112
    },
    {
      "midi": 81,
      "hit": false,
      "t": 227714.45649999988,
      "d": 280.95259166666074,
      "v": 112
    },
    {
      "midi": 42,
      "hit": false,
      "t": 228000.1709999999,
      "d": 557.1432750000095,
      "v": 112
    },
    {
      "midi": 81,
      "hit": false,
      "t": 228000.1709999999,
      "d": 633.333808333351,
      "v": 112
    },
    {
      "midi": 69,
      "hit": false,
      "t": 228000.1709999999,
      "d": 671.4290750000218,
      "v": 112
    },
    {
      "midi": 57,
      "hit": false,
      "t": 228009.69481666634,
      "d": 561.9051833333215,
      "v": 79
    },
    {
      "midi": 60,
      "hit": false,
      "t": 228028.74244999967,
      "d": 542.8575499999861,
      "v": 60
    },
    {
      "midi": 62,
      "hit": false,
      "t": 228033.504358333,
      "d": 538.095641666645,
      "v": 56
    },
    {
      "midi": 66,
      "hit": false,
      "t": 228043.02817499966,
      "d": 528.5718249999918,
      "v": 64
    },
    {
      "midi": 70,
      "hit": false,
      "t": 228571.5999999999,
      "d": 280.95259166668984,
      "v": 112
    },
    {
      "midi": 74,
      "hit": false,
      "t": 228571.5999999999,
      "d": 280.95259166668984,
      "v": 112
    },
    {
      "midi": 77,
      "hit": false,
      "t": 228571.5999999999,
      "d": 280.95259166668984,
      "v": 112
    },
    {
      "midi": 82,
      "hit": false,
      "t": 228571.5999999999,
      "d": 280.95259166668984,
      "v": 112
    },
    {
      "midi": 43,
      "hit": false,
      "t": 228571.5999999999,
      "d": 719.0481583333749,
      "v": 112
    },
    {
      "midi": 58,
      "hit": false,
      "t": 228585.88572499965,
      "d": 495.23846666666213,
      "v": 60
    },
    {
      "midi": 53,
      "hit": false,
      "t": 228585.88572499965,
      "d": 528.5718249999918,
      "v": 48
    },
    {
      "midi": 65,
      "hit": false,
      "t": 228585.88572499965,
      "d": 552.3813666666683,
      "v": 63
    },
    {
      "midi": 70,
      "hit": false,
      "t": 228857.31449999992,
      "d": 280.95259166666074,
      "v": 112
    },
    {
      "midi": 74,
      "hit": false,
      "t": 228857.31449999992,
      "d": 280.95259166666074,
      "v": 112
    },
    {
      "midi": 77,
      "hit": false,
      "t": 228857.31449999992,
      "d": 280.95259166666074,
      "v": 112
    },
    {
      "midi": 82,
      "hit": false,
      "t": 228857.31449999992,
      "d": 280.95259166666074,
      "v": 112
    },
    {
      "midi": 70,
      "hit": false,
      "t": 229143.02899999992,
      "d": 280.95259166668984,
      "v": 112
    },
    {
      "midi": 74,
      "hit": false,
      "t": 229143.02899999992,
      "d": 280.95259166668984,
      "v": 112
    },
    {
      "midi": 77,
      "hit": false,
      "t": 229143.02899999992,
      "d": 280.95259166668984,
      "v": 112
    },
    {
      "midi": 82,
      "hit": false,
      "t": 229143.02899999992,
      "d": 280.95259166668984,
      "v": 112
    },
    {
      "midi": 43,
      "hit": false,
      "t": 229428.74349999995,
      "d": 280.95259166666074,
      "v": 112
    },
    {
      "midi": 74,
      "hit": false,
      "t": 229428.74349999995,
      "d": 495.23846666666213,
      "v": 112
    },
    {
      "midi": 70,
      "hit": false,
      "t": 229428.74349999995,
      "d": 533.3337333333329,
      "v": 112
    },
    {
      "midi": 77,
      "hit": false,
      "t": 229428.74349999995,
      "d": 633.333808333351,
      "v": 112
    },
    {
      "midi": 82,
      "hit": false,
      "t": 229428.74349999995,
      "d": 671.4290750000218,
      "v": 112
    },
    {
      "midi": 65,
      "hit": false,
      "t": 229443.02922499966,
      "d": 128.57152500000666,
      "v": 68
    },
    {
      "midi": 67,
      "hit": false,
      "t": 229443.02922499966,
      "d": 152.38106666668318,
      "v": 67
    },
    {
      "midi": 53,
      "hit": false,
      "t": 229443.02922499966,
      "d": 157.1429750000243,
      "v": 57
    },
    {
      "midi": 58,
      "hit": false,
      "t": 229443.02922499966,
      "d": 161.90488333336543,
      "v": 64
    },
    {
      "midi": 43,
      "hit": false,
      "t": 229714.45799999996,
      "d": 657.1433500000276,
      "v": 112
    },
    {
      "midi": 70,
      "hit": false,
      "t": 230000.17249999996,
      "d": 509.5241916666855,
      "v": 112
    },
    {
      "midi": 65,
      "hit": false,
      "t": 230000.17249999996,
      "d": 523.8099166666798,
      "v": 112
    },
    {
      "midi": 74,
      "hit": false,
      "t": 230000.17249999996,
      "d": 523.8099166666798,
      "v": 112
    },
    {
      "midi": 38,
      "hit": false,
      "t": 230285.887,
      "d": 709.5243416666344,
      "v": 112
    },
    {
      "midi": 65,
      "hit": false,
      "t": 230571.60149999996,
      "d": 647.6195333333453,
      "v": 112
    },
    {
      "midi": 70,
      "hit": false,
      "t": 230571.60149999996,
      "d": 647.6195333333453,
      "v": 112
    },
    {
      "midi": 74,
      "hit": false,
      "t": 230571.60149999996,
      "d": 671.4290750000218,
      "v": 112
    },
    {
      "midi": 36,
      "hit": false,
      "t": 230857.31599999996,
      "d": 757.1434250000457,
      "v": 112
    },
    {
      "midi": 60,
      "hit": false,
      "t": 230871.6017249997,
      "d": 571.4290000000037,
      "v": 63
    },
    {
      "midi": 64,
      "hit": false,
      "t": 230871.6017249997,
      "d": 590.4766333333391,
      "v": 69
    },
    {
      "midi": 67,
      "hit": false,
      "t": 230871.6017249997,
      "d": 600.0004499999923,
      "v": 62
    },
    {
      "midi": 52,
      "hit": false,
      "t": 230871.6017249997,
      "d": 623.8099916666688,
      "v": 53
    },
    {
      "midi": 72,
      "hit": false,
      "t": 231143.03049999996,
      "d": 280.95259166668984,
      "v": 112
    },
    {
      "midi": 76,
      "hit": false,
      "t": 231143.03049999996,
      "d": 280.95259166668984,
      "v": 112
    },
    {
      "midi": 70,
      "hit": false,
      "t": 231404.93545833332,
      "d": 819.0482333333348,
      "v": 112
    },
    {
      "midi": 76,
      "hit": false,
      "t": 231428.745,
      "d": 819.0482333333348,
      "v": 112
    },
    {
      "midi": 72,
      "hit": false,
      "t": 231428.745,
      "d": 833.3339583333291,
      "v": 112
    },
    {
      "midi": 67,
      "hit": false,
      "t": 231428.745,
      "d": 871.4292249999999,
      "v": 112
    },
    {
      "midi": 36,
      "hit": false,
      "t": 231714.4595,
      "d": 280.95259166666074,
      "v": 112
    },
    {
      "midi": 64,
      "hit": false,
      "t": 231728.7452249997,
      "d": 161.90488333333633,
      "v": 65
    },
    {
      "midi": 52,
      "hit": false,
      "t": 231728.7452249997,
      "d": 166.66679166667745,
      "v": 56
    },
    {
      "midi": 70,
      "hit": false,
      "t": 231728.7452249997,
      "d": 180.95251666667173,
      "v": 61
    },
    {
      "midi": 60,
      "hit": false,
      "t": 231728.7452249997,
      "d": 204.76205833334825,
      "v": 69
    },
    {
      "midi": 36,
      "hit": false,
      "t": 232000.174,
      "d": 719.0481583333458,
      "v": 112
    },
    {
      "midi": 43,
      "hit": false,
      "t": 232571.603,
      "d": 561.9051833333506,
      "v": 112
    },
    {
      "midi": 69,
      "hit": false,
      "t": 233143.032,
      "d": 280.95259166666074,
      "v": 112
    },
    {
      "midi": 72,
      "hit": false,
      "t": 233143.032,
      "d": 280.95259166666074,
      "v": 112
    },
    {
      "midi": 76,
      "hit": false,
      "t": 233143.032,
      "d": 280.95259166666074,
      "v": 112
    },
    {
      "midi": 81,
      "hit": false,
      "t": 233143.032,
      "d": 280.95259166666074,
      "v": 112
    },
    {
      "midi": 41,
      "hit": false,
      "t": 233143.032,
      "d": 747.6196083333343,
      "v": 112
    },
    {
      "midi": 67,
      "hit": false,
      "t": 233162.07963333305,
      "d": 457.14319999999134,
      "v": 71
    },
    {
      "midi": 69,
      "hit": false,
      "t": 233162.07963333305,
      "d": 457.14319999999134,
      "v": 82
    },
    {
      "midi": 57,
      "hit": false,
      "t": 233162.07963333305,
      "d": 2266.6683666666504,
      "v": 77
    },
    {
      "midi": 60,
      "hit": false,
      "t": 233162.07963333305,
      "d": 2266.6683666666504,
      "v": 68
    },
    {
      "midi": 64,
      "hit": false,
      "t": 233162.07963333305,
      "d": 2266.6683666666504,
      "v": 61
    },
    {
      "midi": 69,
      "hit": false,
      "t": 233428.7465,
      "d": 280.95259166666074,
      "v": 112
    },
    {
      "midi": 72,
      "hit": false,
      "t": 233428.7465,
      "d": 280.95259166666074,
      "v": 112
    },
    {
      "midi": 76,
      "hit": false,
      "t": 233428.7465,
      "d": 280.95259166666074,
      "v": 112
    },
    {
      "midi": 81,
      "hit": false,
      "t": 233428.7465,
      "d": 280.95259166666074,
      "v": 112
    },
    {
      "midi": 69,
      "hit": false,
      "t": 233714.461,
      "d": 280.95259166666074,
      "v": 112
    },
    {
      "midi": 72,
      "hit": false,
      "t": 233714.461,
      "d": 280.95259166666074,
      "v": 112
    },
    {
      "midi": 76,
      "hit": false,
      "t": 233714.461,
      "d": 280.95259166666074,
      "v": 112
    },
    {
      "midi": 81,
      "hit": false,
      "t": 233714.461,
      "d": 280.95259166666074,
      "v": 112
    },
    {
      "midi": 41,
      "hit": false,
      "t": 234000.1755,
      "d": 280.95259166666074,
      "v": 112
    },
    {
      "midi": 72,
      "hit": false,
      "t": 234000.1755,
      "d": 509.5241916666564,
      "v": 112
    },
    {
      "midi": 69,
      "hit": false,
      "t": 234000.1755,
      "d": 533.3337333333329,
      "v": 112
    },
    {
      "midi": 76,
      "hit": false,
      "t": 234000.1755,
      "d": 619.0480833333277,
      "v": 112
    },
    {
      "midi": 81,
      "hit": false,
      "t": 234000.1755,
      "d": 680.952891666675,
      "v": 112
    },
    {
      "midi": 41,
      "hit": false,
      "t": 234285.89,
      "d": 1290.4771583333495,
      "v": 112
    },
    {
      "midi": 91,
      "hit": false,
      "t": 234304.93763333303,
      "d": 119.04770833332441,
      "v": 84
    },
    {
      "midi": 65,
      "hit": false,
      "t": 234571.60450000002,
      "d": 561.9051833333506,
      "v": 112
    },
    {
      "midi": 69,
      "hit": false,
      "t": 234571.60450000002,
      "d": 561.9051833333506,
      "v": 112
    },
    {
      "midi": 72,
      "hit": false,
      "t": 234571.60450000002,
      "d": 561.9051833333506,
      "v": 112
    },
    {
      "midi": 88,
      "hit": false,
      "t": 234590.65213333303,
      "d": 180.95251666667173,
      "v": 56
    },
    {
      "midi": 88,
      "hit": false,
      "t": 234876.36663333303,
      "d": 138.0953416666598,
      "v": 55
    },
    {
      "midi": 65,
      "hit": false,
      "t": 235143.03350000002,
      "d": 657.1433499999985,
      "v": 112
    },
    {
      "midi": 69,
      "hit": false,
      "t": 235143.03350000002,
      "d": 657.1433499999985,
      "v": 112
    },
    {
      "midi": 72,
      "hit": false,
      "t": 235143.03350000002,
      "d": 680.952891666675,
      "v": 112
    },
    {
      "midi": 81,
      "hit": false,
      "t": 235162.08113333303,
      "d": 85.71434999999474,
      "v": 74
    },
    {
      "midi": 38,
      "hit": false,
      "t": 235428.74800000002,
      "d": 733.33388333334,
      "v": 112
    },
    {
      "midi": 60,
      "hit": false,
      "t": 235443.0337249997,
      "d": 495.23846666666213,
      "v": 60
    },
    {
      "midi": 53,
      "hit": false,
      "t": 235443.0337249997,
      "d": 528.5718249999918,
      "v": 48
    },
    {
      "midi": 65,
      "hit": false,
      "t": 235443.0337249997,
      "d": 552.3813666666683,
      "v": 63
    },
    {
      "midi": 74,
      "hit": false,
      "t": 235714.46250000002,
      "d": 280.95259166666074,
      "v": 112
    },
    {
      "midi": 69,
      "hit": false,
      "t": 236000.17700000003,
      "d": 833.3339583333582,
      "v": 112
    },
    {
      "midi": 74,
      "hit": false,
      "t": 236000.17700000003,
      "d": 833.3339583333582,
      "v": 112
    },
    {
      "midi": 65,
      "hit": false,
      "t": 236000.17700000003,
      "d": 842.8577750000113,
      "v": 112
    },
    {
      "midi": 40,
      "hit": false,
      "t": 236285.89150000003,
      "d": 361.90503333334345,
      "v": 112
    },
    {
      "midi": 65,
      "hit": false,
      "t": 236300.1772249997,
      "d": 128.57152500000666,
      "v": 68
    },
    {
      "midi": 69,
      "hit": false,
      "t": 236300.1772249997,
      "d": 152.38106666668318,
      "v": 67
    },
    {
      "midi": 53,
      "hit": false,
      "t": 236300.1772249997,
      "d": 157.1429750000243,
      "v": 57
    },
    {
      "midi": 60,
      "hit": false,
      "t": 236300.1772249997,
      "d": 161.90488333336543,
      "v": 64
    },
    {
      "midi": 41,
      "hit": false,
      "t": 236571.60600000003,
      "d": 409.5241166666674,
      "v": 112
    },
    {
      "midi": 40,
      "hit": false,
      "t": 236857.32050000003,
      "d": 371.4288499999966,
      "v": 112
    },
    {
      "midi": 38,
      "hit": false,
      "t": 237143.03500000003,
      "d": 733.33388333334,
      "v": 112
    },
    {
      "midi": 70,
      "hit": false,
      "t": 237714.46400000004,
      "d": 280.95259166666074,
      "v": 112
    },
    {
      "midi": 74,
      "hit": false,
      "t": 237714.46400000004,
      "d": 280.95259166666074,
      "v": 112
    },
    {
      "midi": 77,
      "hit": false,
      "t": 237714.46400000004,
      "d": 280.95259166666074,
      "v": 112
    },
    {
      "midi": 82,
      "hit": false,
      "t": 237714.46400000004,
      "d": 280.95259166666074,
      "v": 112
    },
    {
      "midi": 43,
      "hit": false,
      "t": 237714.46400000004,
      "d": 695.2386166666693,
      "v": 112
    },
    {
      "midi": 58,
      "hit": false,
      "t": 237728.74972499974,
      "d": 495.23846666666213,
      "v": 60
    },
    {
      "midi": 53,
      "hit": false,
      "t": 237728.74972499974,
      "d": 528.5718249999918,
      "v": 48
    },
    {
      "midi": 65,
      "hit": false,
      "t": 237728.74972499974,
      "d": 552.3813666666683,
      "v": 63
    },
    {
      "midi": 70,
      "hit": false,
      "t": 238000.17850000004,
      "d": 280.95259166666074,
      "v": 112
    },
    {
      "midi": 74,
      "hit": false,
      "t": 238000.17850000004,
      "d": 280.95259166666074,
      "v": 112
    },
    {
      "midi": 77,
      "hit": false,
      "t": 238000.17850000004,
      "d": 280.95259166666074,
      "v": 112
    },
    {
      "midi": 82,
      "hit": false,
      "t": 238000.17850000004,
      "d": 280.95259166666074,
      "v": 112
    },
    {
      "midi": 70,
      "hit": false,
      "t": 238285.89300000004,
      "d": 280.95259166666074,
      "v": 112
    },
    {
      "midi": 74,
      "hit": false,
      "t": 238285.89300000004,
      "d": 280.95259166666074,
      "v": 112
    },
    {
      "midi": 77,
      "hit": false,
      "t": 238285.89300000004,
      "d": 280.95259166666074,
      "v": 112
    },
    {
      "midi": 82,
      "hit": false,
      "t": 238285.89300000004,
      "d": 280.95259166666074,
      "v": 112
    },
    {
      "midi": 43,
      "hit": false,
      "t": 238571.60750000004,
      "d": 280.95259166666074,
      "v": 112
    },
    {
      "midi": 70,
      "hit": false,
      "t": 238571.60750000004,
      "d": 509.5241916666564,
      "v": 112
    },
    {
      "midi": 74,
      "hit": false,
      "t": 238571.60750000004,
      "d": 509.5241916666564,
      "v": 112
    },
    {
      "midi": 77,
      "hit": false,
      "t": 238571.60750000004,
      "d": 633.333808333351,
      "v": 112
    },
    {
      "midi": 82,
      "hit": false,
      "t": 238571.60750000004,
      "d": 709.5243416666926,
      "v": 112
    },
    {
      "midi": 65,
      "hit": false,
      "t": 238585.89322499975,
      "d": 128.57152500000666,
      "v": 68
    },
    {
      "midi": 67,
      "hit": false,
      "t": 238585.89322499975,
      "d": 152.38106666668318,
      "v": 67
    },
    {
      "midi": 53,
      "hit": false,
      "t": 238585.89322499975,
      "d": 157.1429750000243,
      "v": 57
    },
    {
      "midi": 58,
      "hit": false,
      "t": 238585.89322499975,
      "d": 161.90488333336543,
      "v": 64
    },
    {
      "midi": 43,
      "hit": false,
      "t": 238857.32200000004,
      "d": 680.9528916667041,
      "v": 112
    },
    {
      "midi": 70,
      "hit": false,
      "t": 239143.03650000005,
      "d": 509.5241916667146,
      "v": 112
    },
    {
      "midi": 65,
      "hit": false,
      "t": 239143.03650000005,
      "d": 523.8099166667089,
      "v": 112
    },
    {
      "midi": 74,
      "hit": false,
      "t": 239143.03650000005,
      "d": 523.8099166667089,
      "v": 112
    },
    {
      "midi": 38,
      "hit": false,
      "t": 239428.75100000008,
      "d": 657.1433499999985,
      "v": 112
    },
    {
      "midi": 74,
      "hit": false,
      "t": 239714.46550000008,
      "d": 657.1433499999985,
      "v": 112
    },
    {
      "midi": 70,
      "hit": false,
      "t": 239714.46550000008,
      "d": 671.4290749999927,
      "v": 112
    },
    {
      "midi": 65,
      "hit": false,
      "t": 239714.46550000008,
      "d": 680.9528916666459,
      "v": 112
    },
    {
      "midi": 36,
      "hit": false,
      "t": 240000.18000000008,
      "d": 733.333883333311,
      "v": 112
    },
    {
      "midi": 60,
      "hit": false,
      "t": 240014.46572499978,
      "d": 571.4290000000037,
      "v": 63
    },
    {
      "midi": 64,
      "hit": false,
      "t": 240014.46572499978,
      "d": 590.4766333333391,
      "v": 69
    },
    {
      "midi": 67,
      "hit": false,
      "t": 240014.46572499978,
      "d": 600.0004499999923,
      "v": 62
    },
    {
      "midi": 52,
      "hit": false,
      "t": 240014.46572499978,
      "d": 623.8099916666688,
      "v": 53
    },
    {
      "midi": 72,
      "hit": false,
      "t": 240285.89450000008,
      "d": 280.95259166663163,
      "v": 112
    },
    {
      "midi": 76,
      "hit": false,
      "t": 240285.89450000008,
      "d": 280.95259166663163,
      "v": 112
    },
    {
      "midi": 70,
      "hit": false,
      "t": 240547.79945833338,
      "d": 671.4290749999927,
      "v": 110
    },
    {
      "midi": 76,
      "hit": false,
      "t": 240571.60900000005,
      "d": 509.5241916666564,
      "v": 110
    },
    {
      "midi": 72,
      "hit": false,
      "t": 240571.60900000005,
      "d": 619.0480833333277,
      "v": 110
    },
    {
      "midi": 67,
      "hit": false,
      "t": 240571.60900000005,
      "d": 647.6195333333162,
      "v": 110
    },
    {
      "midi": 36,
      "hit": false,
      "t": 240857.32350000006,
      "d": 280.95259166666074,
      "v": 112
    },
    {
      "midi": 64,
      "hit": false,
      "t": 240871.6092249998,
      "d": 161.90488333333633,
      "v": 65
    },
    {
      "midi": 52,
      "hit": false,
      "t": 240871.6092249998,
      "d": 166.66679166667745,
      "v": 56
    },
    {
      "midi": 70,
      "hit": false,
      "t": 240871.6092249998,
      "d": 180.95251666667173,
      "v": 61
    },
    {
      "midi": 60,
      "hit": false,
      "t": 240871.6092249998,
      "d": 204.76205833334825,
      "v": 69
    },
    {
      "midi": 76,
      "hit": false,
      "t": 241143.03800000006,
      "d": 495.23846666666213,
      "v": 108
    },
    {
      "midi": 64,
      "hit": false,
      "t": 241143.03800000006,
      "d": 523.8099166666507,
      "v": 108
    },
    {
      "midi": 36,
      "hit": false,
      "t": 241143.03800000006,
      "d": 1142.8580000000075,
      "v": 108
    },
    {
      "midi": 77,
      "hit": false,
      "t": 241528.75257500005,
      "d": 461.90510833333246,
      "v": 106
    },
    {
      "midi": 65,
      "hit": false,
      "t": 241528.75257500005,
      "d": 485.714650000009,
      "v": 106
    },
    {
      "midi": 79,
      "hit": false,
      "t": 241847.80043333338,
      "d": 190.47633333335398,
      "v": 104
    },
    {
      "midi": 81,
      "hit": false,
      "t": 241909.70524166673,
      "d": 595.2385416666802,
      "v": 104
    },
    {
      "midi": 69,
      "hit": false,
      "t": 241909.70524166673,
      "d": 609.5242666666745,
      "v": 104
    },
    {
      "midi": 38,
      "hit": false,
      "t": 242285.89600000007,
      "d": 709.5243416666635,
      "v": 102
    },
    {
      "midi": 69,
      "hit": false,
      "t": 242571.61050000007,
      "d": 1823.8108916666533,
      "v": 99
    },
    {
      "midi": 74,
      "hit": false,
      "t": 242571.61050000007,
      "d": 1852.3823416666419,
      "v": 99
    },
    {
      "midi": 78,
      "hit": false,
      "t": 242571.61050000007,
      "d": 1885.7156999999715,
      "v": 99
    },
    {
      "midi": 81,
      "hit": false,
      "t": 242571.61050000007,
      "d": 1885.7156999999715,
      "v": 99
    },
    {
      "midi": 78,
      "hit": false,
      "t": 242590.65813333314,
      "d": 319.04785833333153,
      "v": 71
    },
    {
      "midi": 62,
      "hit": false,
      "t": 242590.65813333314,
      "d": 752.3815166666755,
      "v": 59
    },
    {
      "midi": 66,
      "hit": false,
      "t": 242590.65813333314,
      "d": 923.8102166666649,
      "v": 57
    },
    {
      "midi": 74,
      "hit": false,
      "t": 242590.65813333314,
      "d": 1066.6674666666368,
      "v": 63
    },
    {
      "midi": 81,
      "hit": false,
      "t": 242876.37263333314,
      "d": 666.6671666666516,
      "v": 65
    },
    {
      "midi": 38,
      "hit": false,
      "t": 243143.03950000007,
      "d": 280.95259166666074,
      "v": 96
    },
    {
      "midi": 78,
      "hit": false,
      "t": 243162.08713333315,
      "d": 414.2860249999794,
      "v": 61
    },
    {
      "midi": 38,
      "hit": false,
      "t": 243428.75400000007,
      "d": 385.7145749999909,
      "v": 93
    },
    {
      "midi": 45,
      "hit": false,
      "t": 243714.46850000008,
      "d": 371.4288499999966,
      "v": 90
    },
    {
      "midi": 50,
      "hit": false,
      "t": 244000.18300000008,
      "d": 385.7145749999909,
      "v": 87
    },
    {
      "midi": 45,
      "hit": false,
      "t": 244285.89750000008,
      "d": 395.238391666644,
      "v": 84
    },
    {
      "midi": 38,
      "hit": false,
      "t": 244571.61200000005,
      "d": 757.1434250000166,
      "v": 81
    },
    {
      "midi": 66,
      "hit": false,
      "t": 244857.32650000005,
      "d": 280.95259166666074,
      "v": 78
    },
    {
      "midi": 78,
      "hit": false,
      "t": 244857.32650000005,
      "d": 280.95259166666074,
      "v": 78
    },
    {
      "midi": 78,
      "hit": false,
      "t": 245143.04100000006,
      "d": 409.5241166666674,
      "v": 75
    },
    {
      "midi": 66,
      "hit": false,
      "t": 245143.04100000006,
      "d": 423.80984166666167,
      "v": 75
    },
    {
      "midi": 67,
      "hit": false,
      "t": 245428.75550000006,
      "d": 280.95259166666074,
      "v": 72
    },
    {
      "midi": 79,
      "hit": false,
      "t": 245428.75550000006,
      "d": 280.95259166666074,
      "v": 72
    },
    {
      "midi": 40,
      "hit": false,
      "t": 245428.75550000006,
      "d": 933.3340333333472,
      "v": 72
    },
    {
      "midi": 67,
      "hit": false,
      "t": 245447.80313333313,
      "d": 838.0958666666702,
      "v": 62
    },
    {
      "midi": 64,
      "hit": false,
      "t": 245471.6126749998,
      "d": 814.2863249999937,
      "v": 56
    },
    {
      "midi": 55,
      "hit": false,
      "t": 245481.13649166646,
      "d": 804.7625083333405,
      "v": 65
    },
    {
      "midi": 60,
      "hit": false,
      "t": 245481.13649166646,
      "d": 804.7625083333405,
      "v": 79
    },
    {
      "midi": 67,
      "hit": false,
      "t": 245714.47000000006,
      "d": 395.2383916666731,
      "v": 69
    },
    {
      "midi": 79,
      "hit": false,
      "t": 245714.47000000006,
      "d": 447.6193833333382,
      "v": 69
    },
    {
      "midi": 69,
      "hit": false,
      "t": 246000.18450000006,
      "d": 280.95259166666074,
      "v": 66
    },
    {
      "midi": 81,
      "hit": false,
      "t": 246000.18450000006,
      "d": 280.95259166666074,
      "v": 66
    },
    {
      "midi": 42,
      "hit": false,
      "t": 246285.89900000006,
      "d": 680.952891666675,
      "v": 63
    },
    {
      "midi": 69,
      "hit": false,
      "t": 246285.89900000006,
      "d": 695.2386166666693,
      "v": 63
    },
    {
      "midi": 81,
      "hit": false,
      "t": 246285.89900000006,
      "d": 709.5243416666635,
      "v": 63
    },
    {
      "midi": 57,
      "hit": false,
      "t": 246295.42281666645,
      "d": 561.9051833333215,
      "v": 79
    },
    {
      "midi": 60,
      "hit": false,
      "t": 246314.4704499998,
      "d": 542.8575499999861,
      "v": 60
    },
    {
      "midi": 62,
      "hit": false,
      "t": 246319.23235833313,
      "d": 538.095641666645,
      "v": 56
    },
    {
      "midi": 66,
      "hit": false,
      "t": 246328.75617499978,
      "d": 528.5718249999918,
      "v": 64
    },
    {
      "midi": 66,
      "hit": false,
      "t": 246857.32799999978,
      "d": 90.47625833333586,
      "v": 75
    },
    {
      "midi": 62,
      "hit": false,
      "t": 246857.32799999978,
      "d": 1423.8105916666682,
      "v": 66
    },
    {
      "midi": 72,
      "hit": false,
      "t": 246857.32799999978,
      "d": 1466.66776666668,
      "v": 65
    },
    {
      "midi": 60,
      "hit": false,
      "t": 246871.61372499977,
      "d": 866.6673166666587,
      "v": 70
    },
    {
      "midi": 66,
      "hit": false,
      "t": 246962.0899833331,
      "d": 728.5719749999989,
      "v": 44
    },
    {
      "midi": 57,
      "hit": false,
      "t": 247690.6619583331,
      "d": 661.9052583333396,
      "v": 65
    },
    {
      "midi": 57,
      "hit": false,
      "t": 248947.8057583331,
      "d": 866.6673166666296,
      "v": 62
    },
    {
      "midi": 62,
      "hit": false,
      "t": 249071.61537499976,
      "d": 728.5719749999698,
      "v": 78
    },
    {
      "midi": 66,
      "hit": false,
      "t": 249100.18682499975,
      "d": 661.9052583333105,
      "v": 67
    },
    {
      "midi": 72,
      "hit": false,
      "t": 249152.56781666641,
      "d": 600.0004499999923,
      "v": 70
    },
    {
      "midi": 78,
      "hit": false,
      "t": 249266.85361666643,
      "d": 476.19083333332674,
      "v": 57
    }
  ]
}