{
  "jsonPath": "Soul/Funk/Regina Belle/a-whole-new-world-aladdins-theme.json",
  "path": "Soul\\Funk\\Regina Belle\\A Whole New World (Aladdins Theme).mid",
  "name": "A Whole New World (Aladdins Theme)",
  "difficulty": "Advanced",
  "bpm": 108.00108001080011,
  "notes": [
    {
      "midi": 46,
      "hit": false,
      "t": 4800,
      "d": 2281.25,
      "v": 83
    },
    {
      "midi": 53,
      "hit": false,
      "t": 5093.75,
      "d": 318.75,
      "v": 70
    },
    {
      "midi": 51,
      "hit": false,
      "t": 5387.5,
      "d": 287.5,
      "v": 74
    },
    {
      "midi": 60,
      "hit": false,
      "t": 5400,
      "d": 300,
      "v": 83
    },
    {
      "midi": 53,
      "hit": false,
      "t": 5681.25,
      "d": 1500,
      "v": 83
    },
    {
      "midi": 62,
      "hit": false,
      "t": 5693.75,
      "d": 1531.25,
      "v": 83
    },
    {
      "midi": 46,
      "hit": false,
      "t": 7187.5,
      "d": 262.5,
      "v": 85
    },
    {
      "midi": 46,
      "hit": false,
      "t": 7487.5,
      "d": 2075,
      "v": 74
    },
    {
      "midi": 62,
      "hit": false,
      "t": 7781.25,
      "d": 306.25,
      "v": 85
    },
    {
      "midi": 53,
      "hit": false,
      "t": 7787.5,
      "d": 300,
      "v": 74
    },
    {
      "midi": 63,
      "hit": false,
      "t": 8081.25,
      "d": 1568.75,
      "v": 92
    },
    {
      "midi": 55,
      "hit": false,
      "t": 8087.5,
      "d": 643.75,
      "v": 83
    },
    {
      "midi": 60,
      "hit": false,
      "t": 8693.75,
      "d": 893.75,
      "v": 83
    },
    {
      "midi": 51,
      "hit": false,
      "t": 8693.75,
      "d": 912.5,
      "v": 74
    },
    {
      "midi": 46,
      "hit": false,
      "t": 9600,
      "d": 2281.25,
      "v": 83
    },
    {
      "midi": 53,
      "hit": false,
      "t": 9893.75,
      "d": 318.75,
      "v": 70
    },
    {
      "midi": 51,
      "hit": false,
      "t": 10187.5,
      "d": 287.5,
      "v": 74
    },
    {
      "midi": 60,
      "hit": false,
      "t": 10200,
      "d": 300,
      "v": 83
    },
    {
      "midi": 53,
      "hit": false,
      "t": 10481.25,
      "d": 1500,
      "v": 83
    },
    {
      "midi": 62,
      "hit": false,
      "t": 10493.75,
      "d": 1531.25,
      "v": 83
    },
    {
      "midi": 46,
      "hit": false,
      "t": 11987.5,
      "d": 262.5,
      "v": 85
    },
    {
      "midi": 46,
      "hit": false,
      "t": 12287.5,
      "d": 2075,
      "v": 74
    },
    {
      "midi": 62,
      "hit": false,
      "t": 12581.25,
      "d": 306.25,
      "v": 85
    },
    {
      "midi": 53,
      "hit": false,
      "t": 12587.5,
      "d": 300,
      "v": 74
    },
    {
      "midi": 63,
      "hit": false,
      "t": 12881.25,
      "d": 1475,
      "v": 92
    },
    {
      "midi": 55,
      "hit": false,
      "t": 12887.5,
      "d": 643.75,
      "v": 83
    },
    {
      "midi": 60,
      "hit": false,
      "t": 13493.75,
      "d": 893.75,
      "v": 83
    },
    {
      "midi": 51,
      "hit": false,
      "t": 13493.75,
      "d": 912.5,
      "v": 74
    },
    {
      "midi": 53,
      "hit": false,
      "t": 14400,
      "d": 768.75,
      "v": 83
    },
    {
      "midi": 46,
      "hit": false,
      "t": 14400,
      "d": 2243.75,
      "v": 92
    },
    {
      "midi": 62,
      "hit": false,
      "t": 14412.5,
      "d": 837.5,
      "v": 92
    },
    {
      "midi": 63,
      "hit": false,
      "t": 15281.25,
      "d": 931.25,
      "v": 83
    },
    {
      "midi": 55,
      "hit": false,
      "t": 15287.5,
      "d": 837.5,
      "v": 92
    },
    {
      "midi": 57,
      "hit": false,
      "t": 16193.75,
      "d": 543.75,
      "v": 92
    },
    {
      "midi": 65,
      "hit": false,
      "t": 16193.75,
      "d": 575,
      "v": 92
    },
    {
      "midi": 46,
      "hit": false,
      "t": 16787.5,
      "d": 2350,
      "v": 87
    },
    {
      "midi": 62,
      "hit": false,
      "t": 16787.5,
      "d": 2375,
      "v": 83
    },
    {
      "midi": 53,
      "hit": false,
      "t": 16806.25,
      "d": 2312.5,
      "v": 83
    },
    {
      "midi": 65,
      "hit": false,
      "t": 17687.5,
      "d": 706.25,
      "v": 66
    },
    {
      "midi": 74,
      "hit": false,
      "t": 17981.25,
      "d": 487.5,
      "v": 83
    },
    {
      "midi": 63,
      "hit": false,
      "t": 18281.25,
      "d": 893.75,
      "v": 74
    },
    {
      "midi": 72,
      "hit": false,
      "t": 18581.25,
      "d": 643.75,
      "v": 83
    },
    {
      "midi": 53,
      "hit": false,
      "t": 19200,
      "d": 768.75,
      "v": 83
    },
    {
      "midi": 65,
      "hit": false,
      "t": 19200,
      "d": 856.25,
      "v": 70
    },
    {
      "midi": 46,
      "hit": false,
      "t": 19200,
      "d": 2337.5,
      "v": 92
    },
    {
      "midi": 62,
      "hit": false,
      "t": 19212.5,
      "d": 837.5,
      "v": 92
    },
    {
      "midi": 63,
      "hit": false,
      "t": 20081.25,
      "d": 587.5,
      "v": 83
    },
    {
      "midi": 55,
      "hit": false,
      "t": 20087.5,
      "d": 1475,
      "v": 92
    },
    {
      "midi": 62,
      "hit": false,
      "t": 20662.5,
      "d": 412.5,
      "v": 66
    },
    {
      "midi": 58,
      "hit": false,
      "t": 20975,
      "d": 581.25,
      "v": 66
    },
    {
      "midi": 43,
      "hit": false,
      "t": 21587.5,
      "d": 1206.25,
      "v": 92
    },
    {
      "midi": 62,
      "hit": false,
      "t": 21587.5,
      "d": 1212.5,
      "v": 92
    },
    {
      "midi": 58,
      "hit": false,
      "t": 21587.5,
      "d": 1256.25,
      "v": 80
    },
    {
      "midi": 51,
      "hit": false,
      "t": 21600,
      "d": 1162.5,
      "v": 80
    },
    {
      "midi": 53,
      "hit": false,
      "t": 22793.75,
      "d": 1156.25,
      "v": 74
    },
    {
      "midi": 45,
      "hit": false,
      "t": 22793.75,
      "d": 1181.25,
      "v": 92
    },
    {
      "midi": 60,
      "hit": false,
      "t": 22793.75,
      "d": 1193.75,
      "v": 80
    },
    {
      "midi": 60,
      "hit": false,
      "t": 24000,
      "d": 893.75,
      "v": 88
    },
    {
      "midi": 55,
      "hit": false,
      "t": 24006.25,
      "d": 762.5,
      "v": 70
    },
    {
      "midi": 39,
      "hit": false,
      "t": 24006.25,
      "d": 1112.5,
      "v": 92
    },
    {
      "midi": 62,
      "hit": false,
      "t": 24875,
      "d": 1431.25,
      "v": 91
    },
    {
      "midi": 55,
      "hit": false,
      "t": 24881.25,
      "d": 562.5,
      "v": 92
    },
    {
      "midi": 38,
      "hit": false,
      "t": 25200,
      "d": 1181.25,
      "v": 92
    },
    {
      "midi": 54,
      "hit": false,
      "t": 25475,
      "d": 856.25,
      "v": 85
    },
    {
      "midi": 60,
      "hit": false,
      "t": 26406.25,
      "d": 537.5,
      "v": 89
    },
    {
      "midi": 62,
      "hit": false,
      "t": 26406.25,
      "d": 1081.25,
      "v": 77
    },
    {
      "midi": 43,
      "hit": false,
      "t": 26406.25,
      "d": 1112.5,
      "v": 92
    },
    {
      "midi": 58,
      "hit": false,
      "t": 26987.5,
      "d": 531.25,
      "v": 88
    },
    {
      "midi": 57,
      "hit": false,
      "t": 27581.25,
      "d": 543.75,
      "v": 92
    },
    {
      "midi": 41,
      "hit": false,
      "t": 27581.25,
      "d": 1212.5,
      "v": 91
    },
    {
      "midi": 62,
      "hit": false,
      "t": 27581.25,
      "d": 1231.25,
      "v": 80
    },
    {
      "midi": 58,
      "hit": false,
      "t": 28181.25,
      "d": 550,
      "v": 88
    },
    {
      "midi": 58,
      "hit": false,
      "t": 28800,
      "d": 1206.25,
      "v": 86
    },
    {
      "midi": 39,
      "hit": false,
      "t": 28806.25,
      "d": 731.25,
      "v": 85
    },
    {
      "midi": 55,
      "hit": false,
      "t": 28806.25,
      "d": 956.25,
      "v": 83
    },
    {
      "midi": 39,
      "hit": false,
      "t": 29706.25,
      "d": 1212.5,
      "v": 74
    },
    {
      "midi": 55,
      "hit": false,
      "t": 29993.75,
      "d": 843.75,
      "v": 70
    },
    {
      "midi": 58,
      "hit": false,
      "t": 30281.25,
      "d": 562.5,
      "v": 74
    },
    {
      "midi": 63,
      "hit": false,
      "t": 30600,
      "d": 231.25,
      "v": 92
    },
    {
      "midi": 58,
      "hit": false,
      "t": 30893.75,
      "d": 1525,
      "v": 92
    },
    {
      "midi": 62,
      "hit": false,
      "t": 30893.75,
      "d": 2268.75,
      "v": 101
    },
    {
      "midi": 53,
      "hit": false,
      "t": 30912.5,
      "d": 1093.75,
      "v": 83
    },
    {
      "midi": 46,
      "hit": false,
      "t": 31200,
      "d": 2193.75,
      "v": 92
    },
    {
      "midi": 65,
      "hit": false,
      "t": 32087.5,
      "d": 612.5,
      "v": 74
    },
    {
      "midi": 53,
      "hit": false,
      "t": 32087.5,
      "d": 618.75,
      "v": 74
    },
    {
      "midi": 74,
      "hit": false,
      "t": 32393.75,
      "d": 612.5,
      "v": 83
    },
    {
      "midi": 63,
      "hit": false,
      "t": 32693.75,
      "d": 600,
      "v": 82
    },
    {
      "midi": 58,
      "hit": false,
      "t": 32712.5,
      "d": 281.25,
      "v": 54
    },
    {
      "midi": 72,
      "hit": false,
      "t": 32987.5,
      "d": 600,
      "v": 83
    },
    {
      "midi": 53,
      "hit": false,
      "t": 32993.75,
      "d": 575,
      "v": 66
    },
    {
      "midi": 62,
      "hit": false,
      "t": 33287.5,
      "d": 300,
      "v": 83
    },
    {
      "midi": 62,
      "hit": false,
      "t": 33300,
      "d": 875,
      "v": 44
    },
    {
      "midi": 65,
      "hit": false,
      "t": 33406.25,
      "d": 800,
      "v": 52
    },
    {
      "midi": 70,
      "hit": false,
      "t": 33462.5,
      "d": 768.75,
      "v": 69
    },
    {
      "midi": 74,
      "hit": false,
      "t": 33568.75,
      "d": 643.75,
      "v": 75
    },
    {
      "midi": 70,
      "hit": false,
      "t": 33587.5,
      "d": 1975,
      "v": 88
    },
    {
      "midi": 53,
      "hit": false,
      "t": 33600,
      "d": 768.75,
      "v": 83
    },
    {
      "midi": 46,
      "hit": false,
      "t": 33600,
      "d": 2243.75,
      "v": 92
    },
    {
      "midi": 62,
      "hit": false,
      "t": 33612.5,
      "d": 837.5,
      "v": 92
    },
    {
      "midi": 63,
      "hit": false,
      "t": 34481.25,
      "d": 556.25,
      "v": 83
    },
    {
      "midi": 55,
      "hit": false,
      "t": 34487.5,
      "d": 837.5,
      "v": 92
    },
    {
      "midi": 62,
      "hit": false,
      "t": 35081.25,
      "d": 2662.5,
      "v": 79
    },
    {
      "midi": 58,
      "hit": false,
      "t": 35375,
      "d": 337.5,
      "v": 79
    },
    {
      "midi": 53,
      "hit": false,
      "t": 35668.75,
      "d": 2656.25,
      "v": 85
    },
    {
      "midi": 46,
      "hit": false,
      "t": 35987.5,
      "d": 2350,
      "v": 87
    },
    {
      "midi": 65,
      "hit": false,
      "t": 36568.75,
      "d": 318.75,
      "v": 70
    },
    {
      "midi": 72,
      "hit": false,
      "t": 36575,
      "d": 356.25,
      "v": 70
    },
    {
      "midi": 67,
      "hit": false,
      "t": 36881.25,
      "d": 625,
      "v": 70
    },
    {
      "midi": 75,
      "hit": false,
      "t": 36887.5,
      "d": 650,
      "v": 92
    },
    {
      "midi": 65,
      "hit": false,
      "t": 37487.5,
      "d": 331.25,
      "v": 66
    },
    {
      "midi": 74,
      "hit": false,
      "t": 37493.75,
      "d": 331.25,
      "v": 83
    },
    {
      "midi": 62,
      "hit": false,
      "t": 37793.75,
      "d": 587.5,
      "v": 66
    },
    {
      "midi": 70,
      "hit": false,
      "t": 37806.25,
      "d": 300,
      "v": 74
    },
    {
      "midi": 65,
      "hit": false,
      "t": 38075,
      "d": 275,
      "v": 77
    },
    {
      "midi": 65,
      "hit": false,
      "t": 38393.75,
      "d": 918.75,
      "v": 62
    },
    {
      "midi": 53,
      "hit": false,
      "t": 38400,
      "d": 768.75,
      "v": 83
    },
    {
      "midi": 62,
      "hit": false,
      "t": 38400,
      "d": 837.5,
      "v": 92
    },
    {
      "midi": 46,
      "hit": false,
      "t": 38400,
      "d": 2056.25,
      "v": 92
    },
    {
      "midi": 63,
      "hit": false,
      "t": 39293.75,
      "d": 587.5,
      "v": 83
    },
    {
      "midi": 55,
      "hit": false,
      "t": 39293.75,
      "d": 600,
      "v": 92
    },
    {
      "midi": 58,
      "hit": false,
      "t": 39293.75,
      "d": 600,
      "v": 63
    },
    {
      "midi": 62,
      "hit": false,
      "t": 39893.75,
      "d": 818.75,
      "v": 82
    },
    {
      "midi": 58,
      "hit": false,
      "t": 40193.75,
      "d": 606.25,
      "v": 82
    },
    {
      "midi": 46,
      "hit": false,
      "t": 40481.25,
      "d": 300,
      "v": 74
    },
    {
      "midi": 53,
      "hit": false,
      "t": 40481.25,
      "d": 325,
      "v": 68
    },
    {
      "midi": 62,
      "hit": false,
      "t": 40787.5,
      "d": 950,
      "v": 83
    },
    {
      "midi": 55,
      "hit": false,
      "t": 40787.5,
      "d": 1181.25,
      "v": 70
    },
    {
      "midi": 43,
      "hit": false,
      "t": 40787.5,
      "d": 1206.25,
      "v": 92
    },
    {
      "midi": 51,
      "hit": false,
      "t": 41100,
      "d": 837.5,
      "v": 79
    },
    {
      "midi": 58,
      "hit": false,
      "t": 41393.75,
      "d": 637.5,
      "v": 70
    },
    {
      "midi": 60,
      "hit": false,
      "t": 41687.5,
      "d": 262.5,
      "v": 83
    },
    {
      "midi": 60,
      "hit": false,
      "t": 41987.5,
      "d": 1143.75,
      "v": 88
    },
    {
      "midi": 57,
      "hit": false,
      "t": 41987.5,
      "d": 1181.25,
      "v": 66
    },
    {
      "midi": 45,
      "hit": false,
      "t": 41993.75,
      "d": 1181.25,
      "v": 92
    },
    {
      "midi": 53,
      "hit": false,
      "t": 42293.75,
      "d": 306.25,
      "v": 74
    },
    {
      "midi": 65,
      "hit": false,
      "t": 42606.25,
      "d": 656.25,
      "v": 83
    },
    {
      "midi": 53,
      "hit": false,
      "t": 42893.75,
      "d": 350,
      "v": 74
    },
    {
      "midi": 60,
      "hit": false,
      "t": 43200,
      "d": 893.75,
      "v": 88
    },
    {
      "midi": 55,
      "hit": false,
      "t": 43206.25,
      "d": 762.5,
      "v": 70
    },
    {
      "midi": 39,
      "hit": false,
      "t": 43206.25,
      "d": 1112.5,
      "v": 92
    },
    {
      "midi": 62,
      "hit": false,
      "t": 44075,
      "d": 1437.5,
      "v": 91
    },
    {
      "midi": 55,
      "hit": false,
      "t": 44375,
      "d": 256.25,
      "v": 84
    },
    {
      "midi": 38,
      "hit": false,
      "t": 44400,
      "d": 1181.25,
      "v": 92
    },
    {
      "midi": 54,
      "hit": false,
      "t": 44643.75,
      "d": 550,
      "v": 62
    },
    {
      "midi": 54,
      "hit": false,
      "t": 45262.5,
      "d": 287.5,
      "v": 46
    },
    {
      "midi": 57,
      "hit": false,
      "t": 45300,
      "d": 268.75,
      "v": 58
    },
    {
      "midi": 62,
      "hit": false,
      "t": 45593.75,
      "d": 1056.25,
      "v": 82
    },
    {
      "midi": 60,
      "hit": false,
      "t": 45600,
      "d": 262.5,
      "v": 74
    },
    {
      "midi": 55,
      "hit": false,
      "t": 45606.25,
      "d": 1056.25,
      "v": 74
    },
    {
      "midi": 43,
      "hit": false,
      "t": 45606.25,
      "d": 1112.5,
      "v": 92
    },
    {
      "midi": 58,
      "hit": false,
      "t": 45856.25,
      "d": 868.75,
      "v": 58
    },
    {
      "midi": 58,
      "hit": false,
      "t": 46775,
      "d": 1181.25,
      "v": 70
    },
    {
      "midi": 62,
      "hit": false,
      "t": 46775,
      "d": 1187.5,
      "v": 74
    },
    {
      "midi": 55,
      "hit": false,
      "t": 46781.25,
      "d": 1187.5,
      "v": 83
    },
    {
      "midi": 41,
      "hit": false,
      "t": 46781.25,
      "d": 1212.5,
      "v": 91
    },
    {
      "midi": 67,
      "hit": false,
      "t": 47375,
      "d": 568.75,
      "v": 82
    },
    {
      "midi": 67,
      "hit": false,
      "t": 47987.5,
      "d": 881.25,
      "v": 87
    },
    {
      "midi": 58,
      "hit": false,
      "t": 47993.75,
      "d": 587.5,
      "v": 86
    },
    {
      "midi": 63,
      "hit": false,
      "t": 48000,
      "d": 812.5,
      "v": 76
    },
    {
      "midi": 39,
      "hit": false,
      "t": 48006.25,
      "d": 731.25,
      "v": 85
    },
    {
      "midi": 55,
      "hit": false,
      "t": 48600,
      "d": 293.75,
      "v": 66
    },
    {
      "midi": 58,
      "hit": false,
      "t": 48893.75,
      "d": 243.75,
      "v": 72
    },
    {
      "midi": 70,
      "hit": false,
      "t": 48900,
      "d": 256.25,
      "v": 83
    },
    {
      "midi": 63,
      "hit": false,
      "t": 48900,
      "d": 262.5,
      "v": 79
    },
    {
      "midi": 39,
      "hit": false,
      "t": 48906.25,
      "d": 1212.5,
      "v": 74
    },
    {
      "midi": 55,
      "hit": false,
      "t": 49193.75,
      "d": 250,
      "v": 83
    },
    {
      "midi": 58,
      "hit": false,
      "t": 49193.75,
      "d": 250,
      "v": 50
    },
    {
      "midi": 58,
      "hit": false,
      "t": 49481.25,
      "d": 268.75,
      "v": 74
    },
    {
      "midi": 70,
      "hit": false,
      "t": 49481.25,
      "d": 275,
      "v": 74
    },
    {
      "midi": 65,
      "hit": false,
      "t": 49493.75,
      "d": 256.25,
      "v": 65
    },
    {
      "midi": 63,
      "hit": false,
      "t": 49493.75,
      "d": 262.5,
      "v": 92
    },
    {
      "midi": 55,
      "hit": false,
      "t": 49775,
      "d": 287.5,
      "v": 66
    },
    {
      "midi": 58,
      "hit": false,
      "t": 49775,
      "d": 287.5,
      "v": 54
    },
    {
      "midi": 62,
      "hit": false,
      "t": 50093.75,
      "d": 906.25,
      "v": 101
    },
    {
      "midi": 58,
      "hit": false,
      "t": 50093.75,
      "d": 1468.75,
      "v": 92
    },
    {
      "midi": 53,
      "hit": false,
      "t": 50106.25,
      "d": 500,
      "v": 83
    },
    {
      "midi": 46,
      "hit": false,
      "t": 50400,
      "d": 2193.75,
      "v": 92
    },
    {
      "midi": 53,
      "hit": false,
      "t": 50687.5,
      "d": 925,
      "v": 70
    },
    {
      "midi": 60,
      "hit": false,
      "t": 50987.5,
      "d": 575,
      "v": 83
    },
    {
      "midi": 62,
      "hit": false,
      "t": 51293.75,
      "d": 281.25,
      "v": 74
    },
    {
      "midi": 58,
      "hit": false,
      "t": 51587.5,
      "d": 575,
      "v": 70
    },
    {
      "midi": 63,
      "hit": false,
      "t": 51600,
      "d": 537.5,
      "v": 86
    },
    {
      "midi": 55,
      "hit": false,
      "t": 51600,
      "d": 562.5,
      "v": 83
    },
    {
      "midi": 58,
      "hit": false,
      "t": 52193.75,
      "d": 600,
      "v": 66
    },
    {
      "midi": 55,
      "hit": false,
      "t": 52200,
      "d": 575,
      "v": 74
    },
    {
      "midi": 63,
      "hit": false,
      "t": 52200,
      "d": 581.25,
      "v": 101
    },
    {
      "midi": 53,
      "hit": false,
      "t": 52800,
      "d": 843.75,
      "v": 92
    },
    {
      "midi": 57,
      "hit": false,
      "t": 52800,
      "d": 918.75,
      "v": 101
    },
    {
      "midi": 41,
      "hit": false,
      "t": 52806.25,
      "d": 868.75,
      "v": 95
    },
    {
      "midi": 43,
      "hit": false,
      "t": 53681.25,
      "d": 337.5,
      "v": 83
    },
    {
      "midi": 58,
      "hit": false,
      "t": 53700,
      "d": 337.5,
      "v": 74
    },
    {
      "midi": 55,
      "hit": false,
      "t": 53706.25,
      "d": 250,
      "v": 83
    },
    {
      "midi": 45,
      "hit": false,
      "t": 53987.5,
      "d": 1168.75,
      "v": 101
    },
    {
      "midi": 57,
      "hit": false,
      "t": 53993.75,
      "d": 581.25,
      "v": 92
    },
    {
      "midi": 60,
      "hit": false,
      "t": 54000,
      "d": 562.5,
      "v": 101
    },
    {
      "midi": 53,
      "hit": false,
      "t": 54593.75,
      "d": 287.5,
      "v": 83
    },
    {
      "midi": 63,
      "hit": false,
      "t": 54881.25,
      "d": 287.5,
      "v": 83
    },
    {
      "midi": 60,
      "hit": false,
      "t": 54887.5,
      "d": 275,
      "v": 92
    },
    {
      "midi": 62,
      "hit": false,
      "t": 55181.25,
      "d": 768.75,
      "v": 92
    },
    {
      "midi": 58,
      "hit": false,
      "t": 55187.5,
      "d": 1218.75,
      "v": 83
    },
    {
      "midi": 46,
      "hit": false,
      "t": 55187.5,
      "d": 2375,
      "v": 92
    },
    {
      "midi": 53,
      "hit": false,
      "t": 55775,
      "d": 812.5,
      "v": 58
    },
    {
      "midi": 62,
      "hit": false,
      "t": 56075,
      "d": 1031.25,
      "v": 97
    },
    {
      "midi": 53,
      "hit": false,
      "t": 56687.5,
      "d": 862.5,
      "v": 74
    },
    {
      "midi": 67,
      "hit": false,
      "t": 56987.5,
      "d": 556.25,
      "v": 97
    },
    {
      "midi": 60,
      "hit": false,
      "t": 57593.75,
      "d": 337.5,
      "v": 83
    },
    {
      "midi": 65,
      "hit": false,
      "t": 57593.75,
      "d": 612.5,
      "v": 98
    },
    {
      "midi": 45,
      "hit": false,
      "t": 57600,
      "d": 2368.75,
      "v": 91
    },
    {
      "midi": 53,
      "hit": false,
      "t": 57887.5,
      "d": 281.25,
      "v": 66
    },
    {
      "midi": 60,
      "hit": false,
      "t": 58168.75,
      "d": 250,
      "v": 74
    },
    {
      "midi": 60,
      "hit": false,
      "t": 58487.5,
      "d": 512.5,
      "v": 92
    },
    {
      "midi": 63,
      "hit": false,
      "t": 58487.5,
      "d": 531.25,
      "v": 91
    },
    {
      "midi": 60,
      "hit": false,
      "t": 59087.5,
      "d": 556.25,
      "v": 63
    },
    {
      "midi": 53,
      "hit": false,
      "t": 59087.5,
      "d": 868.75,
      "v": 66
    },
    {
      "midi": 62,
      "hit": false,
      "t": 59087.5,
      "d": 881.25,
      "v": 93
    },
    {
      "midi": 58,
      "hit": false,
      "t": 59681.25,
      "d": 1125,
      "v": 88
    },
    {
      "midi": 62,
      "hit": false,
      "t": 59987.5,
      "d": 1143.75,
      "v": 97
    },
    {
      "midi": 53,
      "hit": false,
      "t": 60000,
      "d": 1137.5,
      "v": 74
    },
    {
      "midi": 46,
      "hit": false,
      "t": 60000,
      "d": 1162.5,
      "v": 92
    },
    {
      "midi": 58,
      "hit": false,
      "t": 60893.75,
      "d": 1443.75,
      "v": 62
    },
    {
      "midi": 38,
      "hit": false,
      "t": 61175,
      "d": 1218.75,
      "v": 92
    },
    {
      "midi": 62,
      "hit": false,
      "t": 61181.25,
      "d": 437.5,
      "v": 101
    },
    {
      "midi": 53,
      "hit": false,
      "t": 61181.25,
      "d": 1200,
      "v": 74
    },
    {
      "midi": 63,
      "hit": false,
      "t": 61593.75,
      "d": 481.25,
      "v": 92
    },
    {
      "midi": 65,
      "hit": false,
      "t": 61993.75,
      "d": 406.25,
      "v": 97
    },
    {
      "midi": 39,
      "hit": false,
      "t": 62387.5,
      "d": 1156.25,
      "v": 91
    },
    {
      "midi": 60,
      "hit": false,
      "t": 62393.75,
      "d": 312.5,
      "v": 92
    },
    {
      "midi": 69,
      "hit": false,
      "t": 62393.75,
      "d": 1206.25,
      "v": 99
    },
    {
      "midi": 67,
      "hit": false,
      "t": 62681.25,
      "d": 318.75,
      "v": 85
    },
    {
      "midi": 60,
      "hit": false,
      "t": 62975,
      "d": 625,
      "v": 76
    },
    {
      "midi": 65,
      "hit": false,
      "t": 63281.25,
      "d": 281.25,
      "v": 74
    },
    {
      "midi": 58,
      "hit": false,
      "t": 63587.5,
      "d": 325,
      "v": 91
    },
    {
      "midi": 65,
      "hit": false,
      "t": 63587.5,
      "d": 643.75,
      "v": 97
    },
    {
      "midi": 38,
      "hit": false,
      "t": 63587.5,
      "d": 1131.25,
      "v": 92
    },
    {
      "midi": 53,
      "hit": false,
      "t": 63900,
      "d": 812.5,
      "v": 79
    },
    {
      "midi": 58,
      "hit": false,
      "t": 64187.5,
      "d": 581.25,
      "v": 74
    },
    {
      "midi": 65,
      "hit": false,
      "t": 64487.5,
      "d": 287.5,
      "v": 83
    },
    {
      "midi": 39,
      "hit": false,
      "t": 64793.75,
      "d": 1081.25,
      "v": 94
    },
    {
      "midi": 69,
      "hit": false,
      "t": 64800,
      "d": 468.75,
      "v": 96
    },
    {
      "midi": 65,
      "hit": false,
      "t": 64800,
      "d": 512.5,
      "v": 83
    },
    {
      "midi": 58,
      "hit": false,
      "t": 65093.75,
      "d": 431.25,
      "v": 58
    },
    {
      "midi": 70,
      "hit": false,
      "t": 65381.25,
      "d": 900,
      "v": 83
    },
    {
      "midi": 65,
      "hit": false,
      "t": 65681.25,
      "d": 612.5,
      "v": 94
    },
    {
      "midi": 38,
      "hit": false,
      "t": 65981.25,
      "d": 1212.5,
      "v": 83
    },
    {
      "midi": 58,
      "hit": false,
      "t": 66268.75,
      "d": 356.25,
      "v": 62
    },
    {
      "midi": 65,
      "hit": false,
      "t": 66568.75,
      "d": 656.25,
      "v": 91
    },
    {
      "midi": 58,
      "hit": false,
      "t": 66862.5,
      "d": 293.75,
      "v": 58
    },
    {
      "midi": 43,
      "hit": false,
      "t": 67175,
      "d": 1237.5,
      "v": 83
    },
    {
      "midi": 62,
      "hit": false,
      "t": 67193.75,
      "d": 981.25,
      "v": 93
    },
    {
      "midi": 58,
      "hit": false,
      "t": 67193.75,
      "d": 1137.5,
      "v": 86
    },
    {
      "midi": 53,
      "hit": false,
      "t": 68093.75,
      "d": 325,
      "v": 74
    },
    {
      "midi": 40,
      "hit": false,
      "t": 68393.75,
      "d": 906.25,
      "v": 92
    },
    {
      "midi": 55,
      "hit": false,
      "t": 68400,
      "d": 1156.25,
      "v": 78
    },
    {
      "midi": 60,
      "hit": false,
      "t": 68400,
      "d": 1237.5,
      "v": 83
    },
    {
      "midi": 52,
      "hit": false,
      "t": 69000,
      "d": 568.75,
      "v": 83
    },
    {
      "midi": 40,
      "hit": false,
      "t": 69300,
      "d": 250,
      "v": 82
    },
    {
      "midi": 58,
      "hit": false,
      "t": 69587.5,
      "d": 331.25,
      "v": 91
    },
    {
      "midi": 51,
      "hit": false,
      "t": 69587.5,
      "d": 862.5,
      "v": 70
    },
    {
      "midi": 41,
      "hit": false,
      "t": 69587.5,
      "d": 1481.25,
      "v": 101
    },
    {
      "midi": 53,
      "hit": false,
      "t": 69881.25,
      "d": 518.75,
      "v": 74
    },
    {
      "midi": 60,
      "hit": false,
      "t": 70175,
      "d": 268.75,
      "v": 72
    },
    {
      "midi": 62,
      "hit": false,
      "t": 70481.25,
      "d": 237.5,
      "v": 74
    },
    {
      "midi": 53,
      "hit": false,
      "t": 70487.5,
      "d": 262.5,
      "v": 74
    },
    {
      "midi": 63,
      "hit": false,
      "t": 70787.5,
      "d": 568.75,
      "v": 89
    },
    {
      "midi": 55,
      "hit": false,
      "t": 70793.75,
      "d": 537.5,
      "v": 98
    },
    {
      "midi": 36,
      "hit": false,
      "t": 71087.5,
      "d": 287.5,
      "v": 83
    },
    {
      "midi": 39,
      "hit": false,
      "t": 71387.5,
      "d": 312.5,
      "v": 83
    },
    {
      "midi": 58,
      "hit": false,
      "t": 71393.75,
      "d": 550,
      "v": 92
    },
    {
      "midi": 67,
      "hit": false,
      "t": 71406.25,
      "d": 562.5,
      "v": 95
    },
    {
      "midi": 36,
      "hit": false,
      "t": 71668.75,
      "d": 331.25,
      "v": 83
    },
    {
      "midi": 57,
      "hit": false,
      "t": 72000,
      "d": 487.5,
      "v": 92
    },
    {
      "midi": 65,
      "hit": false,
      "t": 72000,
      "d": 531.25,
      "v": 95
    },
    {
      "midi": 41,
      "hit": false,
      "t": 72006.25,
      "d": 868.75,
      "v": 95
    },
    {
      "midi": 57,
      "hit": false,
      "t": 72600,
      "d": 300,
      "v": 66
    },
    {
      "midi": 60,
      "hit": false,
      "t": 72606.25,
      "d": 306.25,
      "v": 66
    },
    {
      "midi": 53,
      "hit": false,
      "t": 72881.25,
      "d": 225,
      "v": 70
    },
    {
      "midi": 43,
      "hit": false,
      "t": 72881.25,
      "d": 337.5,
      "v": 83
    },
    {
      "midi": 45,
      "hit": false,
      "t": 73187.5,
      "d": 1168.75,
      "v": 101
    },
    {
      "midi": 57,
      "hit": false,
      "t": 73200,
      "d": 562.5,
      "v": 92
    },
    {
      "midi": 60,
      "hit": false,
      "t": 73206.25,
      "d": 556.25,
      "v": 83
    },
    {
      "midi": 60,
      "hit": false,
      "t": 73781.25,
      "d": 593.75,
      "v": 92
    },
    {
      "midi": 63,
      "hit": false,
      "t": 73787.5,
      "d": 587.5,
      "v": 74
    },
    {
      "midi": 53,
      "hit": false,
      "t": 74093.75,
      "d": 256.25,
      "v": 66
    },
    {
      "midi": 62,
      "hit": false,
      "t": 74381.25,
      "d": 518.75,
      "v": 92
    },
    {
      "midi": 46,
      "hit": false,
      "t": 74387.5,
      "d": 812.5,
      "v": 92
    },
    {
      "midi": 58,
      "hit": false,
      "t": 74387.5,
      "d": 875,
      "v": 83
    },
    {
      "midi": 53,
      "hit": false,
      "t": 74675,
      "d": 893.75,
      "v": 62
    },
    {
      "midi": 62,
      "hit": false,
      "t": 74981.25,
      "d": 612.5,
      "v": 83
    },
    {
      "midi": 58,
      "hit": false,
      "t": 75275,
      "d": 275,
      "v": 66
    },
    {
      "midi": 65,
      "hit": false,
      "t": 75281.25,
      "d": 887.5,
      "v": 74
    },
    {
      "midi": 46,
      "hit": false,
      "t": 75293.75,
      "d": 1425,
      "v": 92
    },
    {
      "midi": 58,
      "hit": false,
      "t": 75581.25,
      "d": 525,
      "v": 83
    },
    {
      "midi": 70,
      "hit": false,
      "t": 75581.25,
      "d": 575,
      "v": 94
    },
    {
      "midi": 67,
      "hit": false,
      "t": 76193.75,
      "d": 593.75,
      "v": 92
    },
    {
      "midi": 58,
      "hit": false,
      "t": 76193.75,
      "d": 625,
      "v": 74
    },
    {
      "midi": 57,
      "hit": false,
      "t": 76793.75,
      "d": 337.5,
      "v": 83
    },
    {
      "midi": 65,
      "hit": false,
      "t": 76793.75,
      "d": 612.5,
      "v": 98
    },
    {
      "midi": 41,
      "hit": false,
      "t": 76800,
      "d": 837.5,
      "v": 91
    },
    {
      "midi": 53,
      "hit": false,
      "t": 77087.5,
      "d": 281.25,
      "v": 66
    },
    {
      "midi": 60,
      "hit": false,
      "t": 77368.75,
      "d": 250,
      "v": 74
    },
    {
      "midi": 63,
      "hit": false,
      "t": 77687.5,
      "d": 593.75,
      "v": 91
    },
    {
      "midi": 60,
      "hit": false,
      "t": 77687.5,
      "d": 606.25,
      "v": 92
    },
    {
      "midi": 42,
      "hit": false,
      "t": 77687.5,
      "d": 1168.75,
      "v": 101
    },
    {
      "midi": 62,
      "hit": false,
      "t": 78293.75,
      "d": 868.75,
      "v": 70
    },
    {
      "midi": 54,
      "hit": false,
      "t": 78587.5,
      "d": 593.75,
      "v": 66
    },
    {
      "midi": 45,
      "hit": false,
      "t": 78881.25,
      "d": 281.25,
      "v": 58
    },
    {
      "midi": 57,
      "hit": false,
      "t": 78881.25,
      "d": 287.5,
      "v": 74
    },
    {
      "midi": 43,
      "hit": false,
      "t": 79175,
      "d": 1212.5,
      "v": 92
    },
    {
      "midi": 50,
      "hit": false,
      "t": 79181.25,
      "d": 1100,
      "v": 74
    },
    {
      "midi": 57,
      "hit": false,
      "t": 79487.5,
      "d": 806.25,
      "v": 70
    },
    {
      "midi": 58,
      "hit": false,
      "t": 79775,
      "d": 543.75,
      "v": 74
    },
    {
      "midi": 58,
      "hit": false,
      "t": 80375,
      "d": 368.75,
      "v": 70
    },
    {
      "midi": 46,
      "hit": false,
      "t": 80375,
      "d": 1218.75,
      "v": 92
    },
    {
      "midi": 62,
      "hit": false,
      "t": 80381.25,
      "d": 437.5,
      "v": 101
    },
    {
      "midi": 60,
      "hit": false,
      "t": 80793.75,
      "d": 331.25,
      "v": 74
    },
    {
      "midi": 63,
      "hit": false,
      "t": 80793.75,
      "d": 481.25,
      "v": 92
    },
    {
      "midi": 62,
      "hit": false,
      "t": 81187.5,
      "d": 343.75,
      "v": 83
    },
    {
      "midi": 65,
      "hit": false,
      "t": 81193.75,
      "d": 406.25,
      "v": 97
    },
    {
      "midi": 39,
      "hit": false,
      "t": 81587.5,
      "d": 1156.25,
      "v": 91
    },
    {
      "midi": 60,
      "hit": false,
      "t": 81593.75,
      "d": 312.5,
      "v": 92
    },
    {
      "midi": 69,
      "hit": false,
      "t": 81593.75,
      "d": 1206.25,
      "v": 99
    },
    {
      "midi": 67,
      "hit": false,
      "t": 81881.25,
      "d": 318.75,
      "v": 85
    },
    {
      "midi": 60,
      "hit": false,
      "t": 82175,
      "d": 625,
      "v": 76
    },
    {
      "midi": 65,
      "hit": false,
      "t": 82481.25,
      "d": 281.25,
      "v": 74
    },
    {
      "midi": 58,
      "hit": false,
      "t": 82787.5,
      "d": 325,
      "v": 91
    },
    {
      "midi": 65,
      "hit": false,
      "t": 82787.5,
      "d": 643.75,
      "v": 97
    },
    {
      "midi": 38,
      "hit": false,
      "t": 82787.5,
      "d": 1131.25,
      "v": 92
    },
    {
      "midi": 57,
      "hit": false,
      "t": 83100,
      "d": 812.5,
      "v": 68
    },
    {
      "midi": 58,
      "hit": false,
      "t": 83387.5,
      "d": 581.25,
      "v": 74
    },
    {
      "midi": 65,
      "hit": false,
      "t": 83687.5,
      "d": 287.5,
      "v": 83
    },
    {
      "midi": 39,
      "hit": false,
      "t": 83993.75,
      "d": 1081.25,
      "v": 94
    },
    {
      "midi": 69,
      "hit": false,
      "t": 84000,
      "d": 468.75,
      "v": 96
    },
    {
      "midi": 65,
      "hit": false,
      "t": 84000,
      "d": 512.5,
      "v": 83
    },
    {
      "midi": 58,
      "hit": false,
      "t": 84293.75,
      "d": 993.75,
      "v": 58
    },
    {
      "midi": 70,
      "hit": false,
      "t": 84581.25,
      "d": 1750,
      "v": 83
    },
    {
      "midi": 65,
      "hit": false,
      "t": 84881.25,
      "d": 1393.75,
      "v": 94
    },
    {
      "midi": 38,
      "hit": false,
      "t": 85181.25,
      "d": 1212.5,
      "v": 83
    },
    {
      "midi": 58,
      "hit": false,
      "t": 85468.75,
      "d": 856.25,
      "v": 76
    },
    {
      "midi": 43,
      "hit": false,
      "t": 86375,
      "d": 1237.5,
      "v": 83
    },
    {
      "midi": 62,
      "hit": false,
      "t": 86393.75,
      "d": 981.25,
      "v": 93
    },
    {
      "midi": 58,
      "hit": false,
      "t": 86393.75,
      "d": 1137.5,
      "v": 86
    },
    {
      "midi": 53,
      "hit": false,
      "t": 87293.75,
      "d": 325,
      "v": 74
    },
    {
      "midi": 40,
      "hit": false,
      "t": 87593.75,
      "d": 1181.25,
      "v": 92
    },
    {
      "midi": 60,
      "hit": false,
      "t": 87600,
      "d": 1237.5,
      "v": 83
    },
    {
      "midi": 55,
      "hit": false,
      "t": 87606.25,
      "d": 1106.25,
      "v": 92
    },
    {
      "midi": 52,
      "hit": false,
      "t": 88200,
      "d": 568.75,
      "v": 83
    },
    {
      "midi": 63,
      "hit": false,
      "t": 88787.5,
      "d": 650,
      "v": 92
    },
    {
      "midi": 55,
      "hit": false,
      "t": 88787.5,
      "d": 1118.75,
      "v": 101
    },
    {
      "midi": 44,
      "hit": false,
      "t": 88787.5,
      "d": 1168.75,
      "v": 97
    },
    {
      "midi": 62,
      "hit": false,
      "t": 89387.5,
      "d": 587.5,
      "v": 83
    },
    {
      "midi": 60,
      "hit": false,
      "t": 89975,
      "d": 1156.25,
      "v": 92
    },
    {
      "midi": 53,
      "hit": false,
      "t": 89987.5,
      "d": 581.25,
      "v": 83
    },
    {
      "midi": 41,
      "hit": false,
      "t": 90000,
      "d": 1168.75,
      "v": 97
    },
    {
      "midi": 58,
      "hit": false,
      "t": 90575,
      "d": 556.25,
      "v": 74
    },
    {
      "midi": 51,
      "hit": false,
      "t": 90581.25,
      "d": 593.75,
      "v": 73
    },
    {
      "midi": 46,
      "hit": false,
      "t": 91168.75,
      "d": 4687.5,
      "v": 92
    },
    {
      "midi": 53,
      "hit": false,
      "t": 91468.75,
      "d": 4381.25,
      "v": 74
    },
    {
      "midi": 60,
      "hit": false,
      "t": 91775,
      "d": 4112.5,
      "v": 83
    },
    {
      "midi": 62,
      "hit": false,
      "t": 92075,
      "d": 3806.25,
      "v": 83
    },
    {
      "midi": 65,
      "hit": false,
      "t": 92693.75,
      "d": 1225,
      "v": 62
    },
    {
      "midi": 72,
      "hit": false,
      "t": 92975,
      "d": 962.5,
      "v": 74
    },
    {
      "midi": 74,
      "hit": false,
      "t": 93275,
      "d": 668.75,
      "v": 74
    },
    {
      "midi": 77,
      "hit": false,
      "t": 93893.75,
      "d": 1893.75,
      "v": 58
    },
    {
      "midi": 84,
      "hit": false,
      "t": 94175,
      "d": 1631.25,
      "v": 74
    },
    {
      "midi": 86,
      "hit": false,
      "t": 94481.25,
      "d": 1325,
      "v": 83
    },
    {
      "midi": 73,
      "hit": false,
      "t": 95987.5,
      "d": 1975,
      "v": 88
    },
    {
      "midi": 56,
      "hit": false,
      "t": 96000,
      "d": 768.75,
      "v": 83
    },
    {
      "midi": 49,
      "hit": false,
      "t": 96000,
      "d": 2243.75,
      "v": 92
    },
    {
      "midi": 65,
      "hit": false,
      "t": 96012.5,
      "d": 837.5,
      "v": 92
    },
    {
      "midi": 66,
      "hit": false,
      "t": 96881.25,
      "d": 556.25,
      "v": 83
    },
    {
      "midi": 58,
      "hit": false,
      "t": 96887.5,
      "d": 837.5,
      "v": 92
    },
    {
      "midi": 65,
      "hit": false,
      "t": 97481.25,
      "d": 2712.5,
      "v": 79
    },
    {
      "midi": 61,
      "hit": false,
      "t": 97775,
      "d": 337.5,
      "v": 79
    },
    {
      "midi": 56,
      "hit": false,
      "t": 98068.75,
      "d": 2656.25,
      "v": 85
    },
    {
      "midi": 49,
      "hit": false,
      "t": 98387.5,
      "d": 2350,
      "v": 87
    },
    {
      "midi": 68,
      "hit": false,
      "t": 99306.25,
      "d": 412.5,
      "v": 62
    },
    {
      "midi": 77,
      "hit": false,
      "t": 99593.75,
      "d": 562.5,
      "v": 92
    },
    {
      "midi": 66,
      "hit": false,
      "t": 99906.25,
      "d": 400,
      "v": 66
    },
    {
      "midi": 75,
      "hit": false,
      "t": 100206.25,
      "d": 637.5,
      "v": 92
    },
    {
      "midi": 65,
      "hit": false,
      "t": 100500,
      "d": 287.5,
      "v": 66
    },
    {
      "midi": 68,
      "hit": false,
      "t": 100793.75,
      "d": 918.75,
      "v": 62
    },
    {
      "midi": 56,
      "hit": false,
      "t": 100800,
      "d": 768.75,
      "v": 83
    },
    {
      "midi": 65,
      "hit": false,
      "t": 100800,
      "d": 837.5,
      "v": 92
    },
    {
      "midi": 49,
      "hit": false,
      "t": 100800,
      "d": 2056.25,
      "v": 92
    },
    {
      "midi": 66,
      "hit": false,
      "t": 101693.75,
      "d": 587.5,
      "v": 83
    },
    {
      "midi": 58,
      "hit": false,
      "t": 101693.75,
      "d": 600,
      "v": 92
    },
    {
      "midi": 61,
      "hit": false,
      "t": 101693.75,
      "d": 600,
      "v": 63
    },
    {
      "midi": 65,
      "hit": false,
      "t": 102293.75,
      "d": 818.75,
      "v": 82
    },
    {
      "midi": 61,
      "hit": false,
      "t": 102593.75,
      "d": 606.25,
      "v": 82
    },
    {
      "midi": 49,
      "hit": false,
      "t": 102881.25,
      "d": 300,
      "v": 74
    },
    {
      "midi": 56,
      "hit": false,
      "t": 102881.25,
      "d": 325,
      "v": 68
    },
    {
      "midi": 65,
      "hit": false,
      "t": 103187.5,
      "d": 950,
      "v": 83
    },
    {
      "midi": 58,
      "hit": false,
      "t": 103187.5,
      "d": 1181.25,
      "v": 70
    },
    {
      "midi": 46,
      "hit": false,
      "t": 103187.5,
      "d": 1206.25,
      "v": 92
    },
    {
      "midi": 54,
      "hit": false,
      "t": 103500,
      "d": 837.5,
      "v": 79
    },
    {
      "midi": 61,
      "hit": false,
      "t": 103793.75,
      "d": 637.5,
      "v": 70
    },
    {
      "midi": 63,
      "hit": false,
      "t": 104087.5,
      "d": 262.5,
      "v": 83
    },
    {
      "midi": 63,
      "hit": false,
      "t": 104387.5,
      "d": 1143.75,
      "v": 88
    },
    {
      "midi": 60,
      "hit": false,
      "t": 104387.5,
      "d": 1181.25,
      "v": 66
    },
    {
      "midi": 48,
      "hit": false,
      "t": 104393.75,
      "d": 1181.25,
      "v": 92
    },
    {
      "midi": 56,
      "hit": false,
      "t": 104693.75,
      "d": 306.25,
      "v": 74
    },
    {
      "midi": 68,
      "hit": false,
      "t": 105006.25,
      "d": 656.25,
      "v": 83
    },
    {
      "midi": 56,
      "hit": false,
      "t": 105293.75,
      "d": 350,
      "v": 74
    },
    {
      "midi": 63,
      "hit": false,
      "t": 105600,
      "d": 893.75,
      "v": 88
    },
    {
      "midi": 58,
      "hit": false,
      "t": 105606.25,
      "d": 762.5,
      "v": 70
    },
    {
      "midi": 42,
      "hit": false,
      "t": 105606.25,
      "d": 1112.5,
      "v": 92
    },
    {
      "midi": 65,
      "hit": false,
      "t": 106475,
      "d": 1437.5,
      "v": 91
    },
    {
      "midi": 58,
      "hit": false,
      "t": 106775,
      "d": 256.25,
      "v": 84
    },
    {
      "midi": 41,
      "hit": false,
      "t": 106800,
      "d": 1181.25,
      "v": 92
    },
    {
      "midi": 57,
      "hit": false,
      "t": 107043.75,
      "d": 550,
      "v": 62
    },
    {
      "midi": 57,
      "hit": false,
      "t": 107662.5,
      "d": 287.5,
      "v": 46
    },
    {
      "midi": 60,
      "hit": false,
      "t": 107700,
      "d": 268.75,
      "v": 58
    },
    {
      "midi": 65,
      "hit": false,
      "t": 107993.75,
      "d": 1056.25,
      "v": 82
    },
    {
      "midi": 63,
      "hit": false,
      "t": 108000,
      "d": 262.5,
      "v": 74
    },
    {
      "midi": 58,
      "hit": false,
      "t": 108006.25,
      "d": 1056.25,
      "v": 74
    },
    {
      "midi": 46,
      "hit": false,
      "t": 108006.25,
      "d": 1112.5,
      "v": 92
    },
    {
      "midi": 61,
      "hit": false,
      "t": 108256.25,
      "d": 868.75,
      "v": 58
    },
    {
      "midi": 61,
      "hit": false,
      "t": 109175,
      "d": 1181.25,
      "v": 70
    },
    {
      "midi": 65,
      "hit": false,
      "t": 109175,
      "d": 1187.5,
      "v": 74
    },
    {
      "midi": 58,
      "hit": false,
      "t": 109181.25,
      "d": 1187.5,
      "v": 83
    },
    {
      "midi": 44,
      "hit": false,
      "t": 109181.25,
      "d": 1212.5,
      "v": 91
    },
    {
      "midi": 70,
      "hit": false,
      "t": 109775,
      "d": 568.75,
      "v": 82
    },
    {
      "midi": 58,
      "hit": false,
      "t": 110387.5,
      "d": 1131.25,
      "v": 87
    },
    {
      "midi": 61,
      "hit": false,
      "t": 110393.75,
      "d": 1150,
      "v": 86
    },
    {
      "midi": 66,
      "hit": false,
      "t": 110400,
      "d": 1106.25,
      "v": 76
    },
    {
      "midi": 42,
      "hit": false,
      "t": 110406.25,
      "d": 1137.5,
      "v": 85
    },
    {
      "midi": 46,
      "hit": false,
      "t": 111587.5,
      "d": 281.25,
      "v": 74
    },
    {
      "midi": 58,
      "hit": false,
      "t": 111593.75,
      "d": 843.75,
      "v": 74
    },
    {
      "midi": 61,
      "hit": false,
      "t": 111600,
      "d": 837.5,
      "v": 83
    },
    {
      "midi": 66,
      "hit": false,
      "t": 111600,
      "d": 868.75,
      "v": 70
    },
    {
      "midi": 42,
      "hit": false,
      "t": 111881.25,
      "d": 856.25,
      "v": 83
    },
    {
      "midi": 65,
      "hit": false,
      "t": 112493.75,
      "d": 906.25,
      "v": 101
    },
    {
      "midi": 61,
      "hit": false,
      "t": 112493.75,
      "d": 1468.75,
      "v": 92
    },
    {
      "midi": 56,
      "hit": false,
      "t": 112506.25,
      "d": 500,
      "v": 83
    },
    {
      "midi": 49,
      "hit": false,
      "t": 112800,
      "d": 2193.75,
      "v": 92
    },
    {
      "midi": 56,
      "hit": false,
      "t": 113087.5,
      "d": 925,
      "v": 70
    },
    {
      "midi": 63,
      "hit": false,
      "t": 113387.5,
      "d": 575,
      "v": 83
    },
    {
      "midi": 65,
      "hit": false,
      "t": 113693.75,
      "d": 281.25,
      "v": 74
    },
    {
      "midi": 61,
      "hit": false,
      "t": 113987.5,
      "d": 575,
      "v": 70
    },
    {
      "midi": 66,
      "hit": false,
      "t": 114000,
      "d": 537.5,
      "v": 86
    },
    {
      "midi": 58,
      "hit": false,
      "t": 114000,
      "d": 562.5,
      "v": 83
    },
    {
      "midi": 61,
      "hit": false,
      "t": 114593.75,
      "d": 600,
      "v": 66
    },
    {
      "midi": 58,
      "hit": false,
      "t": 114600,
      "d": 575,
      "v": 74
    },
    {
      "midi": 66,
      "hit": false,
      "t": 114600,
      "d": 581.25,
      "v": 101
    },
    {
      "midi": 56,
      "hit": false,
      "t": 115200,
      "d": 843.75,
      "v": 92
    },
    {
      "midi": 60,
      "hit": false,
      "t": 115200,
      "d": 918.75,
      "v": 101
    },
    {
      "midi": 44,
      "hit": false,
      "t": 115206.25,
      "d": 868.75,
      "v": 95
    },
    {
      "midi": 46,
      "hit": false,
      "t": 116081.25,
      "d": 337.5,
      "v": 83
    },
    {
      "midi": 61,
      "hit": false,
      "t": 116100,
      "d": 337.5,
      "v": 74
    },
    {
      "midi": 58,
      "hit": false,
      "t": 116106.25,
      "d": 250,
      "v": 83
    },
    {
      "midi": 48,
      "hit": false,
      "t": 116387.5,
      "d": 1168.75,
      "v": 101
    },
    {
      "midi": 60,
      "hit": false,
      "t": 116393.75,
      "d": 581.25,
      "v": 92
    },
    {
      "midi": 63,
      "hit": false,
      "t": 116400,
      "d": 562.5,
      "v": 101
    },
    {
      "midi": 56,
      "hit": false,
      "t": 116993.75,
      "d": 287.5,
      "v": 83
    },
    {
      "midi": 66,
      "hit": false,
      "t": 117281.25,
      "d": 287.5,
      "v": 83
    },
    {
      "midi": 63,
      "hit": false,
      "t": 117287.5,
      "d": 275,
      "v": 92
    },
    {
      "midi": 65,
      "hit": false,
      "t": 117581.25,
      "d": 768.75,
      "v": 92
    },
    {
      "midi": 61,
      "hit": false,
      "t": 117587.5,
      "d": 1218.75,
      "v": 83
    },
    {
      "midi": 49,
      "hit": false,
      "t": 117587.5,
      "d": 2375,
      "v": 92
    },
    {
      "midi": 56,
      "hit": false,
      "t": 118175,
      "d": 812.5,
      "v": 58
    },
    {
      "midi": 65,
      "hit": false,
      "t": 118475,
      "d": 1031.25,
      "v": 97
    },
    {
      "midi": 56,
      "hit": false,
      "t": 119087.5,
      "d": 862.5,
      "v": 74
    },
    {
      "midi": 70,
      "hit": false,
      "t": 119387.5,
      "d": 556.25,
      "v": 97
    },
    {
      "midi": 63,
      "hit": false,
      "t": 119993.75,
      "d": 337.5,
      "v": 83
    },
    {
      "midi": 68,
      "hit": false,
      "t": 119993.75,
      "d": 612.5,
      "v": 98
    },
    {
      "midi": 44,
      "hit": false,
      "t": 120000,
      "d": 2368.75,
      "v": 91
    },
    {
      "midi": 56,
      "hit": false,
      "t": 120287.5,
      "d": 281.25,
      "v": 66
    },
    {
      "midi": 63,
      "hit": false,
      "t": 120568.75,
      "d": 250,
      "v": 74
    },
    {
      "midi": 63,
      "hit": false,
      "t": 120887.5,
      "d": 512.5,
      "v": 92
    },
    {
      "midi": 66,
      "hit": false,
      "t": 120887.5,
      "d": 531.25,
      "v": 91
    },
    {
      "midi": 63,
      "hit": false,
      "t": 121487.5,
      "d": 556.25,
      "v": 63
    },
    {
      "midi": 56,
      "hit": false,
      "t": 121487.5,
      "d": 868.75,
      "v": 66
    },
    {
      "midi": 65,
      "hit": false,
      "t": 121487.5,
      "d": 881.25,
      "v": 93
    },
    {
      "midi": 61,
      "hit": false,
      "t": 122081.25,
      "d": 1125,
      "v": 88
    },
    {
      "midi": 65,
      "hit": false,
      "t": 122387.5,
      "d": 1143.75,
      "v": 97
    },
    {
      "midi": 56,
      "hit": false,
      "t": 122400,
      "d": 1137.5,
      "v": 74
    },
    {
      "midi": 49,
      "hit": false,
      "t": 122400,
      "d": 1162.5,
      "v": 92
    },
    {
      "midi": 61,
      "hit": false,
      "t": 123293.75,
      "d": 1443.75,
      "v": 62
    },
    {
      "midi": 65,
      "hit": false,
      "t": 123581.25,
      "d": 437.5,
      "v": 101
    },
    {
      "midi": 56,
      "hit": false,
      "t": 123581.25,
      "d": 1200,
      "v": 74
    },
    {
      "midi": 41,
      "hit": false,
      "t": 123587.5,
      "d": 350,
      "v": 83
    },
    {
      "midi": 66,
      "hit": false,
      "t": 123993.75,
      "d": 481.25,
      "v": 92
    },
    {
      "midi": 42,
      "hit": false,
      "t": 124000,
      "d": 325,
      "v": 74
    },
    {
      "midi": 44,
      "hit": false,
      "t": 124381.25,
      "d": 362.5,
      "v": 83
    },
    {
      "midi": 68,
      "hit": false,
      "t": 124393.75,
      "d": 406.25,
      "v": 97
    },
    {
      "midi": 42,
      "hit": false,
      "t": 124787.5,
      "d": 1156.25,
      "v": 91
    },
    {
      "midi": 63,
      "hit": false,
      "t": 124793.75,
      "d": 312.5,
      "v": 92
    },
    {
      "midi": 72,
      "hit": false,
      "t": 124793.75,
      "d": 1206.25,
      "v": 99
    },
    {
      "midi": 70,
      "hit": false,
      "t": 125081.25,
      "d": 318.75,
      "v": 85
    },
    {
      "midi": 63,
      "hit": false,
      "t": 125375,
      "d": 625,
      "v": 76
    },
    {
      "midi": 68,
      "hit": false,
      "t": 125681.25,
      "d": 281.25,
      "v": 74
    },
    {
      "midi": 61,
      "hit": false,
      "t": 125987.5,
      "d": 325,
      "v": 91
    },
    {
      "midi": 68,
      "hit": false,
      "t": 125987.5,
      "d": 643.75,
      "v": 97
    },
    {
      "midi": 41,
      "hit": false,
      "t": 125987.5,
      "d": 1131.25,
      "v": 92
    },
    {
      "midi": 56,
      "hit": false,
      "t": 126300,
      "d": 812.5,
      "v": 79
    },
    {
      "midi": 61,
      "hit": false,
      "t": 126587.5,
      "d": 581.25,
      "v": 74
    },
    {
      "midi": 68,
      "hit": false,
      "t": 126887.5,
      "d": 287.5,
      "v": 83
    },
    {
      "midi": 42,
      "hit": false,
      "t": 127193.75,
      "d": 1081.25,
      "v": 94
    },
    {
      "midi": 72,
      "hit": false,
      "t": 127200,
      "d": 468.75,
      "v": 96
    },
    {
      "midi": 68,
      "hit": false,
      "t": 127200,
      "d": 512.5,
      "v": 83
    },
    {
      "midi": 61,
      "hit": false,
      "t": 127493.75,
      "d": 431.25,
      "v": 58
    },
    {
      "midi": 73,
      "hit": false,
      "t": 127781.25,
      "d": 900,
      "v": 83
    },
    {
      "midi": 68,
      "hit": false,
      "t": 128081.25,
      "d": 612.5,
      "v": 94
    },
    {
      "midi": 41,
      "hit": false,
      "t": 128381.25,
      "d": 1212.5,
      "v": 83
    },
    {
      "midi": 61,
      "hit": false,
      "t": 128668.75,
      "d": 356.25,
      "v": 62
    },
    {
      "midi": 68,
      "hit": false,
      "t": 128968.75,
      "d": 656.25,
      "v": 91
    },
    {
      "midi": 61,
      "hit": false,
      "t": 129262.5,
      "d": 293.75,
      "v": 58
    },
    {
      "midi": 46,
      "hit": false,
      "t": 129575,
      "d": 1237.5,
      "v": 83
    },
    {
      "midi": 65,
      "hit": false,
      "t": 129593.75,
      "d": 981.25,
      "v": 93
    },
    {
      "midi": 61,
      "hit": false,
      "t": 129593.75,
      "d": 1137.5,
      "v": 86
    },
    {
      "midi": 56,
      "hit": false,
      "t": 130493.75,
      "d": 325,
      "v": 74
    },
    {
      "midi": 39,
      "hit": false,
      "t": 130793.75,
      "d": 906.25,
      "v": 92
    },
    {
      "midi": 58,
      "hit": false,
      "t": 130800,
      "d": 1156.25,
      "v": 78
    },
    {
      "midi": 63,
      "hit": false,
      "t": 130800,
      "d": 1237.5,
      "v": 83
    },
    {
      "midi": 55,
      "hit": false,
      "t": 131400,
      "d": 568.75,
      "v": 83
    },
    {
      "midi": 46,
      "hit": false,
      "t": 131700,
      "d": 250,
      "v": 82
    },
    {
      "midi": 61,
      "hit": false,
      "t": 131987.5,
      "d": 331.25,
      "v": 91
    },
    {
      "midi": 54,
      "hit": false,
      "t": 131987.5,
      "d": 862.5,
      "v": 70
    },
    {
      "midi": 44,
      "hit": false,
      "t": 131987.5,
      "d": 1168.75,
      "v": 101
    },
    {
      "midi": 56,
      "hit": false,
      "t": 132281.25,
      "d": 518.75,
      "v": 74
    },
    {
      "midi": 63,
      "hit": false,
      "t": 132575,
      "d": 268.75,
      "v": 72
    },
    {
      "midi": 65,
      "hit": false,
      "t": 132881.25,
      "d": 237.5,
      "v": 74
    },
    {
      "midi": 56,
      "hit": false,
      "t": 132887.5,
      "d": 262.5,
      "v": 74
    },
    {
      "midi": 66,
      "hit": false,
      "t": 133187.5,
      "d": 568.75,
      "v": 89
    },
    {
      "midi": 58,
      "hit": false,
      "t": 133193.75,
      "d": 537.5,
      "v": 98
    },
    {
      "midi": 44,
      "hit": false,
      "t": 133200,
      "d": 268.75,
      "v": 83
    },
    {
      "midi": 46,
      "hit": false,
      "t": 133475,
      "d": 250,
      "v": 70
    },
    {
      "midi": 49,
      "hit": false,
      "t": 133775,
      "d": 237.5,
      "v": 83
    },
    {
      "midi": 61,
      "hit": false,
      "t": 133793.75,
      "d": 550,
      "v": 92
    },
    {
      "midi": 70,
      "hit": false,
      "t": 133806.25,
      "d": 562.5,
      "v": 95
    },
    {
      "midi": 44,
      "hit": false,
      "t": 134062.5,
      "d": 293.75,
      "v": 83
    },
    {
      "midi": 60,
      "hit": false,
      "t": 134400,
      "d": 487.5,
      "v": 92
    },
    {
      "midi": 68,
      "hit": false,
      "t": 134400,
      "d": 531.25,
      "v": 95
    },
    {
      "midi": 44,
      "hit": false,
      "t": 134406.25,
      "d": 1743.75,
      "v": 95
    },
    {
      "midi": 60,
      "hit": false,
      "t": 135000,
      "d": 300,
      "v": 66
    },
    {
      "midi": 63,
      "hit": false,
      "t": 135006.25,
      "d": 306.25,
      "v": 66
    },
    {
      "midi": 56,
      "hit": false,
      "t": 135281.25,
      "d": 225,
      "v": 70
    },
    {
      "midi": 60,
      "hit": false,
      "t": 135600,
      "d": 562.5,
      "v": 92
    },
    {
      "midi": 63,
      "hit": false,
      "t": 135606.25,
      "d": 556.25,
      "v": 83
    },
    {
      "midi": 63,
      "hit": false,
      "t": 136181.25,
      "d": 593.75,
      "v": 92
    },
    {
      "midi": 44,
      "hit": false,
      "t": 136187.5,
      "d": 275,
      "v": 83
    },
    {
      "midi": 66,
      "hit": false,
      "t": 136187.5,
      "d": 587.5,
      "v": 74
    },
    {
      "midi": 56,
      "hit": false,
      "t": 136493.75,
      "d": 256.25,
      "v": 66
    },
    {
      "midi": 48,
      "hit": false,
      "t": 136500,
      "d": 275,
      "v": 83
    },
    {
      "midi": 65,
      "hit": false,
      "t": 136781.25,
      "d": 518.75,
      "v": 92
    },
    {
      "midi": 49,
      "hit": false,
      "t": 136787.5,
      "d": 812.5,
      "v": 92
    },
    {
      "midi": 61,
      "hit": false,
      "t": 136787.5,
      "d": 875,
      "v": 83
    },
    {
      "midi": 56,
      "hit": false,
      "t": 137075,
      "d": 893.75,
      "v": 62
    },
    {
      "midi": 65,
      "hit": false,
      "t": 137381.25,
      "d": 612.5,
      "v": 83
    },
    {
      "midi": 61,
      "hit": false,
      "t": 137675,
      "d": 275,
      "v": 66
    },
    {
      "midi": 68,
      "hit": false,
      "t": 137681.25,
      "d": 887.5,
      "v": 74
    },
    {
      "midi": 49,
      "hit": false,
      "t": 137693.75,
      "d": 1425,
      "v": 92
    },
    {
      "midi": 61,
      "hit": false,
      "t": 137981.25,
      "d": 525,
      "v": 83
    },
    {
      "midi": 73,
      "hit": false,
      "t": 137981.25,
      "d": 575,
      "v": 94
    },
    {
      "midi": 70,
      "hit": false,
      "t": 138593.75,
      "d": 593.75,
      "v": 92
    },
    {
      "midi": 61,
      "hit": false,
      "t": 138593.75,
      "d": 625,
      "v": 74
    },
    {
      "midi": 60,
      "hit": false,
      "t": 139193.75,
      "d": 337.5,
      "v": 83
    },
    {
      "midi": 68,
      "hit": false,
      "t": 139193.75,
      "d": 612.5,
      "v": 98
    },
    {
      "midi": 48,
      "hit": false,
      "t": 139200,
      "d": 837.5,
      "v": 91
    },
    {
      "midi": 56,
      "hit": false,
      "t": 139487.5,
      "d": 281.25,
      "v": 66
    },
    {
      "midi": 63,
      "hit": false,
      "t": 139768.75,
      "d": 250,
      "v": 74
    },
    {
      "midi": 66,
      "hit": false,
      "t": 140087.5,
      "d": 593.75,
      "v": 91
    },
    {
      "midi": 63,
      "hit": false,
      "t": 140087.5,
      "d": 606.25,
      "v": 92
    },
    {
      "midi": 48,
      "hit": false,
      "t": 140093.75,
      "d": 256.25,
      "v": 80
    },
    {
      "midi": 45,
      "hit": false,
      "t": 140400,
      "d": 825,
      "v": 101
    },
    {
      "midi": 65,
      "hit": false,
      "t": 140693.75,
      "d": 868.75,
      "v": 70
    },
    {
      "midi": 57,
      "hit": false,
      "t": 140987.5,
      "d": 593.75,
      "v": 66
    },
    {
      "midi": 45,
      "hit": false,
      "t": 141281.25,
      "d": 281.25,
      "v": 58
    },
    {
      "midi": 60,
      "hit": false,
      "t": 141281.25,
      "d": 287.5,
      "v": 74
    },
    {
      "midi": 46,
      "hit": false,
      "t": 141575,
      "d": 1212.5,
      "v": 92
    },
    {
      "midi": 53,
      "hit": false,
      "t": 141581.25,
      "d": 1100,
      "v": 74
    },
    {
      "midi": 60,
      "hit": false,
      "t": 141887.5,
      "d": 806.25,
      "v": 70
    },
    {
      "midi": 61,
      "hit": false,
      "t": 142175,
      "d": 543.75,
      "v": 74
    },
    {
      "midi": 61,
      "hit": false,
      "t": 142775,
      "d": 368.75,
      "v": 70
    },
    {
      "midi": 44,
      "hit": false,
      "t": 142775,
      "d": 1218.75,
      "v": 92
    },
    {
      "midi": 65,
      "hit": false,
      "t": 142781.25,
      "d": 437.5,
      "v": 101
    },
    {
      "midi": 63,
      "hit": false,
      "t": 143193.75,
      "d": 331.25,
      "v": 74
    },
    {
      "midi": 66,
      "hit": false,
      "t": 143193.75,
      "d": 481.25,
      "v": 92
    },
    {
      "midi": 65,
      "hit": false,
      "t": 143587.5,
      "d": 343.75,
      "v": 83
    },
    {
      "midi": 68,
      "hit": false,
      "t": 143593.75,
      "d": 406.25,
      "v": 97
    },
    {
      "midi": 42,
      "hit": false,
      "t": 143987.5,
      "d": 1156.25,
      "v": 91
    },
    {
      "midi": 63,
      "hit": false,
      "t": 143993.75,
      "d": 312.5,
      "v": 92
    },
    {
      "midi": 72,
      "hit": false,
      "t": 143993.75,
      "d": 1206.25,
      "v": 99
    },
    {
      "midi": 70,
      "hit": false,
      "t": 144281.25,
      "d": 318.75,
      "v": 85
    },
    {
      "midi": 63,
      "hit": false,
      "t": 144575,
      "d": 625,
      "v": 76
    },
    {
      "midi": 68,
      "hit": false,
      "t": 144881.25,
      "d": 281.25,
      "v": 74
    },
    {
      "midi": 61,
      "hit": false,
      "t": 145187.5,
      "d": 325,
      "v": 91
    },
    {
      "midi": 68,
      "hit": false,
      "t": 145187.5,
      "d": 643.75,
      "v": 97
    },
    {
      "midi": 41,
      "hit": false,
      "t": 145187.5,
      "d": 1131.25,
      "v": 92
    },
    {
      "midi": 60,
      "hit": false,
      "t": 145500,
      "d": 812.5,
      "v": 68
    },
    {
      "midi": 61,
      "hit": false,
      "t": 145787.5,
      "d": 581.25,
      "v": 74
    },
    {
      "midi": 68,
      "hit": false,
      "t": 146087.5,
      "d": 287.5,
      "v": 83
    },
    {
      "midi": 42,
      "hit": false,
      "t": 146393.75,
      "d": 1081.25,
      "v": 94
    },
    {
      "midi": 72,
      "hit": false,
      "t": 146400,
      "d": 468.75,
      "v": 96
    },
    {
      "midi": 68,
      "hit": false,
      "t": 146400,
      "d": 512.5,
      "v": 83
    },
    {
      "midi": 61,
      "hit": false,
      "t": 146693.75,
      "d": 993.75,
      "v": 58
    },
    {
      "midi": 73,
      "hit": false,
      "t": 146981.25,
      "d": 1750,
      "v": 83
    },
    {
      "midi": 68,
      "hit": false,
      "t": 147281.25,
      "d": 1393.75,
      "v": 94
    },
    {
      "midi": 41,
      "hit": false,
      "t": 147581.25,
      "d": 1212.5,
      "v": 83
    },
    {
      "midi": 61,
      "hit": false,
      "t": 147868.75,
      "d": 856.25,
      "v": 76
    },
    {
      "midi": 46,
      "hit": false,
      "t": 148775,
      "d": 1237.5,
      "v": 83
    },
    {
      "midi": 65,
      "hit": false,
      "t": 148793.75,
      "d": 981.25,
      "v": 93
    },
    {
      "midi": 61,
      "hit": false,
      "t": 148793.75,
      "d": 1137.5,
      "v": 86
    },
    {
      "midi": 56,
      "hit": false,
      "t": 149693.75,
      "d": 325,
      "v": 74
    },
    {
      "midi": 39,
      "hit": false,
      "t": 149993.75,
      "d": 1181.25,
      "v": 92
    },
    {
      "midi": 63,
      "hit": false,
      "t": 150000,
      "d": 1237.5,
      "v": 83
    },
    {
      "midi": 58,
      "hit": false,
      "t": 150006.25,
      "d": 1106.25,
      "v": 92
    },
    {
      "midi": 55,
      "hit": false,
      "t": 150600,
      "d": 568.75,
      "v": 83
    },
    {
      "midi": 66,
      "hit": false,
      "t": 151187.5,
      "d": 650,
      "v": 92
    },
    {
      "midi": 58,
      "hit": false,
      "t": 151187.5,
      "d": 1118.75,
      "v": 101
    },
    {
      "midi": 47,
      "hit": false,
      "t": 151187.5,
      "d": 1168.75,
      "v": 97
    },
    {
      "midi": 65,
      "hit": false,
      "t": 151787.5,
      "d": 587.5,
      "v": 83
    },
    {
      "midi": 63,
      "hit": false,
      "t": 152387.5,
      "d": 668.75,
      "v": 99
    },
    {
      "midi": 54,
      "hit": false,
      "t": 152387.5,
      "d": 1206.25,
      "v": 87
    },
    {
      "midi": 44,
      "hit": false,
      "t": 152400,
      "d": 1168.75,
      "v": 97
    },
    {
      "midi": 61,
      "hit": false,
      "t": 152681.25,
      "d": 918.75,
      "v": 74
    },
    {
      "midi": 56,
      "hit": false,
      "t": 152987.5,
      "d": 587.5,
      "v": 83
    },
    {
      "midi": 63,
      "hit": false,
      "t": 153293.75,
      "d": 312.5,
      "v": 92
    },
    {
      "midi": 69,
      "hit": false,
      "t": 153587.5,
      "d": 1975,
      "v": 88
    },
    {
      "midi": 52,
      "hit": false,
      "t": 153600,
      "d": 768.75,
      "v": 83
    },
    {
      "midi": 45,
      "hit": false,
      "t": 153600,
      "d": 2243.75,
      "v": 92
    },
    {
      "midi": 61,
      "hit": false,
      "t": 153612.5,
      "d": 837.5,
      "v": 92
    },
    {
      "midi": 62,
      "hit": false,
      "t": 154481.25,
      "d": 556.25,
      "v": 83
    },
    {
      "midi": 54,
      "hit": false,
      "t": 154487.5,
      "d": 837.5,
      "v": 92
    },
    {
      "midi": 61,
      "hit": false,
      "t": 155081.25,
      "d": 2712.5,
      "v": 79
    },
    {
      "midi": 57,
      "hit": false,
      "t": 155375,
      "d": 337.5,
      "v": 79
    },
    {
      "midi": 52,
      "hit": false,
      "t": 155668.75,
      "d": 2656.25,
      "v": 85
    },
    {
      "midi": 45,
      "hit": false,
      "t": 155987.5,
      "d": 2350,
      "v": 87
    },
    {
      "midi": 64,
      "hit": false,
      "t": 156906.25,
      "d": 412.5,
      "v": 62
    },
    {
      "midi": 73,
      "hit": false,
      "t": 157193.75,
      "d": 562.5,
      "v": 92
    },
    {
      "midi": 62,
      "hit": false,
      "t": 157506.25,
      "d": 400,
      "v": 66
    },
    {
      "midi": 71,
      "hit": false,
      "t": 157806.25,
      "d": 637.5,
      "v": 92
    },
    {
      "midi": 61,
      "hit": false,
      "t": 158100,
      "d": 287.5,
      "v": 66
    },
    {
      "midi": 64,
      "hit": false,
      "t": 158393.75,
      "d": 918.75,
      "v": 62
    },
    {
      "midi": 52,
      "hit": false,
      "t": 158400,
      "d": 768.75,
      "v": 83
    },
    {
      "midi": 61,
      "hit": false,
      "t": 158400,
      "d": 837.5,
      "v": 92
    },
    {
      "midi": 45,
      "hit": false,
      "t": 158400,
      "d": 1118.75,
      "v": 92
    },
    {
      "midi": 62,
      "hit": false,
      "t": 159293.75,
      "d": 587.5,
      "v": 83
    },
    {
      "midi": 54,
      "hit": false,
      "t": 159293.75,
      "d": 600,
      "v": 92
    },
    {
      "midi": 57,
      "hit": false,
      "t": 159293.75,
      "d": 600,
      "v": 63
    },
    {
      "midi": 42,
      "hit": false,
      "t": 159600,
      "d": 875,
      "v": 92
    },
    {
      "midi": 61,
      "hit": false,
      "t": 159893.75,
      "d": 818.75,
      "v": 82
    },
    {
      "midi": 57,
      "hit": false,
      "t": 160193.75,
      "d": 606.25,
      "v": 82
    },
    {
      "midi": 45,
      "hit": false,
      "t": 160481.25,
      "d": 300,
      "v": 74
    },
    {
      "midi": 52,
      "hit": false,
      "t": 160481.25,
      "d": 325,
      "v": 68
    },
    {
      "midi": 62,
      "hit": false,
      "t": 160787.5,
      "d": 950,
      "v": 83
    },
    {
      "midi": 53,
      "hit": false,
      "t": 160787.5,
      "d": 1181.25,
      "v": 70
    },
    {
      "midi": 41,
      "hit": false,
      "t": 160787.5,
      "d": 1800,
      "v": 92
    },
    {
      "midi": 50,
      "hit": false,
      "t": 161100,
      "d": 837.5,
      "v": 79
    },
    {
      "midi": 57,
      "hit": false,
      "t": 161393.75,
      "d": 637.5,
      "v": 70
    },
    {
      "midi": 59,
      "hit": false,
      "t": 161687.5,
      "d": 262.5,
      "v": 83
    },
    {
      "midi": 62,
      "hit": false,
      "t": 161987.5,
      "d": 550,
      "v": 88
    },
    {
      "midi": 59,
      "hit": false,
      "t": 161987.5,
      "d": 587.5,
      "v": 66
    },
    {
      "midi": 53,
      "hit": false,
      "t": 162293.75,
      "d": 306.25,
      "v": 74
    },
    {
      "midi": 62,
      "hit": false,
      "t": 162600,
      "d": 537.5,
      "v": 83
    },
    {
      "midi": 56,
      "hit": false,
      "t": 162600,
      "d": 556.25,
      "v": 92
    },
    {
      "midi": 40,
      "hit": false,
      "t": 162600,
      "d": 562.5,
      "v": 92
    },
    {
      "midi": 38,
      "hit": false,
      "t": 163200,
      "d": 1112.5,
      "v": 92
    },
    {
      "midi": 59,
      "hit": false,
      "t": 163200,
      "d": 1143.75,
      "v": 88
    },
    {
      "midi": 54,
      "hit": false,
      "t": 163206.25,
      "d": 762.5,
      "v": 70
    },
    {
      "midi": 54,
      "hit": false,
      "t": 164106.25,
      "d": 275,
      "v": 66
    },
    {
      "midi": 61,
      "hit": false,
      "t": 164400,
      "d": 1143.75,
      "v": 96
    },
    {
      "midi": 37,
      "hit": false,
      "t": 164400,
      "d": 1181.25,
      "v": 92
    },
    {
      "midi": 56,
      "hit": false,
      "t": 164687.5,
      "d": 906.25,
      "v": 58
    },
    {
      "midi": 53,
      "hit": false,
      "t": 165000,
      "d": 575,
      "v": 83
    },
    {
      "midi": 61,
      "hit": false,
      "t": 165593.75,
      "d": 1056.25,
      "v": 82
    },
    {
      "midi": 59,
      "hit": false,
      "t": 165600,
      "d": 262.5,
      "v": 74
    },
    {
      "midi": 54,
      "hit": false,
      "t": 165606.25,
      "d": 1056.25,
      "v": 74
    },
    {
      "midi": 42,
      "hit": false,
      "t": 165606.25,
      "d": 1112.5,
      "v": 92
    },
    {
      "midi": 57,
      "hit": false,
      "t": 165856.25,
      "d": 868.75,
      "v": 58
    },
    {
      "midi": 57,
      "hit": false,
      "t": 166775,
      "d": 1181.25,
      "v": 70
    },
    {
      "midi": 61,
      "hit": false,
      "t": 166775,
      "d": 1187.5,
      "v": 74
    },
    {
      "midi": 64,
      "hit": false,
      "t": 166781.25,
      "d": 1181.25,
      "v": 83
    },
    {
      "midi": 66,
      "hit": false,
      "t": 166781.25,
      "d": 1187.5,
      "v": 83
    },
    {
      "midi": 40,
      "hit": false,
      "t": 166781.25,
      "d": 1212.5,
      "v": 91
    },
    {
      "midi": 62,
      "hit": false,
      "t": 168000,
      "d": 1156.25,
      "v": 101
    },
    {
      "midi": 59,
      "hit": false,
      "t": 168006.25,
      "d": 1156.25,
      "v": 92
    },
    {
      "midi": 45,
      "hit": false,
      "t": 168006.25,
      "d": 1168.75,
      "v": 83
    },
    {
      "midi": 55,
      "hit": false,
      "t": 168006.25,
      "d": 1168.75,
      "v": 83
    },
    {
      "midi": 66,
      "hit": false,
      "t": 168006.25,
      "d": 1175,
      "v": 70
    },
    {
      "midi": 69,
      "hit": false,
      "t": 168006.25,
      "d": 1175,
      "v": 74
    },
    {
      "midi": 45,
      "hit": false,
      "t": 169200,
      "d": 1081.25,
      "v": 62
    },
    {
      "midi": 59,
      "hit": false,
      "t": 169200,
      "d": 1106.25,
      "v": 58
    },
    {
      "midi": 62,
      "hit": false,
      "t": 169200,
      "d": 1118.75,
      "v": 101
    },
    {
      "midi": 66,
      "hit": false,
      "t": 169200,
      "d": 1125,
      "v": 92
    },
    {
      "midi": 55,
      "hit": false,
      "t": 169206.25,
      "d": 1068.75,
      "v": 70
    },
    {
      "midi": 69,
      "hit": false,
      "t": 169206.25,
      "d": 1106.25,
      "v": 83
    },
    {
      "midi": 45,
      "hit": false,
      "t": 170375,
      "d": 168.75,
      "v": 83
    },
    {
      "midi": 69,
      "hit": false,
      "t": 170381.25,
      "d": 175,
      "v": 62
    },
    {
      "midi": 59,
      "hit": false,
      "t": 170381.25,
      "d": 181.25,
      "v": 101
    },
    {
      "midi": 62,
      "hit": false,
      "t": 170381.25,
      "d": 187.5,
      "v": 101
    },
    {
      "midi": 64,
      "hit": false,
      "t": 170381.25,
      "d": 193.75,
      "v": 92
    },
    {
      "midi": 55,
      "hit": false,
      "t": 170387.5,
      "d": 156.25,
      "v": 83
    },
    {
      "midi": 66,
      "hit": false,
      "t": 171293.75,
      "d": 281.25,
      "v": 74
    },
    {
      "midi": 62,
      "hit": false,
      "t": 171587.5,
      "d": 575,
      "v": 70
    },
    {
      "midi": 67,
      "hit": false,
      "t": 171600,
      "d": 537.5,
      "v": 86
    },
    {
      "midi": 59,
      "hit": false,
      "t": 171600,
      "d": 562.5,
      "v": 83
    },
    {
      "midi": 50,
      "hit": false,
      "t": 171600,
      "d": 1156.25,
      "v": 92
    },
    {
      "midi": 62,
      "hit": false,
      "t": 172193.75,
      "d": 600,
      "v": 66
    },
    {
      "midi": 59,
      "hit": false,
      "t": 172200,
      "d": 575,
      "v": 74
    },
    {
      "midi": 67,
      "hit": false,
      "t": 172200,
      "d": 581.25,
      "v": 101
    },
    {
      "midi": 64,
      "hit": false,
      "t": 172800,
      "d": 1143.75,
      "v": 92
    },
    {
      "midi": 61,
      "hit": false,
      "t": 172800,
      "d": 1156.25,
      "v": 101
    },
    {
      "midi": 59,
      "hit": false,
      "t": 172806.25,
      "d": 1118.75,
      "v": 83
    },
    {
      "midi": 69,
      "hit": false,
      "t": 172806.25,
      "d": 1143.75,
      "v": 70
    },
    {
      "midi": 42,
      "hit": false,
      "t": 172806.25,
      "d": 1212.5,
      "v": 95
    },
    {
      "midi": 57,
      "hit": false,
      "t": 172812.5,
      "d": 1118.75,
      "v": 66
    },
    {
      "midi": 62,
      "hit": false,
      "t": 173687.5,
      "d": 593.75,
      "v": 66
    },
    {
      "midi": 57,
      "hit": false,
      "t": 173975,
      "d": 762.5,
      "v": 83
    },
    {
      "midi": 45,
      "hit": false,
      "t": 173981.25,
      "d": 287.5,
      "v": 74
    },
    {
      "midi": 67,
      "hit": false,
      "t": 174281.25,
      "d": 762.5,
      "v": 101
    },
    {
      "midi": 49,
      "hit": false,
      "t": 174300,
      "d": 818.75,
      "v": 101
    },
    {
      "midi": 57,
      "hit": false,
      "t": 174881.25,
      "d": 293.75,
      "v": 74
    },
    {
      "midi": 66,
      "hit": false,
      "t": 175181.25,
      "d": 768.75,
      "v": 92
    },
    {
      "midi": 62,
      "hit": false,
      "t": 175187.5,
      "d": 1218.75,
      "v": 83
    },
    {
      "midi": 50,
      "hit": false,
      "t": 175187.5,
      "d": 2375,
      "v": 92
    },
    {
      "midi": 57,
      "hit": false,
      "t": 175775,
      "d": 812.5,
      "v": 58
    },
    {
      "midi": 66,
      "hit": false,
      "t": 176075,
      "d": 1031.25,
      "v": 97
    },
    {
      "midi": 57,
      "hit": false,
      "t": 176687.5,
      "d": 862.5,
      "v": 74
    },
    {
      "midi": 71,
      "hit": false,
      "t": 176987.5,
      "d": 556.25,
      "v": 97
    },
    {
      "midi": 64,
      "hit": false,
      "t": 177593.75,
      "d": 337.5,
      "v": 83
    },
    {
      "midi": 69,
      "hit": false,
      "t": 177593.75,
      "d": 612.5,
      "v": 98
    },
    {
      "midi": 49,
      "hit": false,
      "t": 177593.75,
      "d": 1131.25,
      "v": 88
    },
    {
      "midi": 57,
      "hit": false,
      "t": 177887.5,
      "d": 281.25,
      "v": 66
    },
    {
      "midi": 64,
      "hit": false,
      "t": 178168.75,
      "d": 250,
      "v": 74
    },
    {
      "midi": 64,
      "hit": false,
      "t": 178487.5,
      "d": 512.5,
      "v": 92
    },
    {
      "midi": 67,
      "hit": false,
      "t": 178487.5,
      "d": 531.25,
      "v": 91
    },
    {
      "midi": 49,
      "hit": false,
      "t": 178793.75,
      "d": 912.5,
      "v": 101
    },
    {
      "midi": 64,
      "hit": false,
      "t": 179087.5,
      "d": 556.25,
      "v": 63
    },
    {
      "midi": 57,
      "hit": false,
      "t": 179087.5,
      "d": 868.75,
      "v": 66
    },
    {
      "midi": 66,
      "hit": false,
      "t": 179087.5,
      "d": 881.25,
      "v": 93
    },
    {
      "midi": 62,
      "hit": false,
      "t": 179681.25,
      "d": 1125,
      "v": 88
    },
    {
      "midi": 45,
      "hit": false,
      "t": 179706.25,
      "d": 262.5,
      "v": 74
    },
    {
      "midi": 66,
      "hit": false,
      "t": 179987.5,
      "d": 1143.75,
      "v": 97
    },
    {
      "midi": 57,
      "hit": false,
      "t": 180000,
      "d": 1137.5,
      "v": 74
    },
    {
      "midi": 50,
      "hit": false,
      "t": 180000,
      "d": 1162.5,
      "v": 92
    },
    {
      "midi": 62,
      "hit": false,
      "t": 180893.75,
      "d": 1443.75,
      "v": 62
    },
    {
      "midi": 66,
      "hit": false,
      "t": 181181.25,
      "d": 437.5,
      "v": 101
    },
    {
      "midi": 57,
      "hit": false,
      "t": 181181.25,
      "d": 1200,
      "v": 74
    },
    {
      "midi": 38,
      "hit": false,
      "t": 181187.5,
      "d": 350,
      "v": 83
    },
    {
      "midi": 67,
      "hit": false,
      "t": 181593.75,
      "d": 481.25,
      "v": 92
    },
    {
      "midi": 40,
      "hit": false,
      "t": 181600,
      "d": 325,
      "v": 74
    },
    {
      "midi": 42,
      "hit": false,
      "t": 181981.25,
      "d": 362.5,
      "v": 83
    },
    {
      "midi": 69,
      "hit": false,
      "t": 181993.75,
      "d": 406.25,
      "v": 97
    },
    {
      "midi": 43,
      "hit": false,
      "t": 182387.5,
      "d": 1156.25,
      "v": 91
    },
    {
      "midi": 64,
      "hit": false,
      "t": 182393.75,
      "d": 312.5,
      "v": 92
    },
    {
      "midi": 73,
      "hit": false,
      "t": 182393.75,
      "d": 1206.25,
      "v": 99
    },
    {
      "midi": 71,
      "hit": false,
      "t": 182681.25,
      "d": 318.75,
      "v": 85
    },
    {
      "midi": 64,
      "hit": false,
      "t": 182975,
      "d": 625,
      "v": 76
    },
    {
      "midi": 69,
      "hit": false,
      "t": 183281.25,
      "d": 281.25,
      "v": 74
    },
    {
      "midi": 62,
      "hit": false,
      "t": 183587.5,
      "d": 325,
      "v": 91
    },
    {
      "midi": 69,
      "hit": false,
      "t": 183587.5,
      "d": 643.75,
      "v": 97
    },
    {
      "midi": 42,
      "hit": false,
      "t": 183587.5,
      "d": 1131.25,
      "v": 92
    },
    {
      "midi": 57,
      "hit": false,
      "t": 183900,
      "d": 812.5,
      "v": 79
    },
    {
      "midi": 62,
      "hit": false,
      "t": 184187.5,
      "d": 581.25,
      "v": 74
    },
    {
      "midi": 69,
      "hit": false,
      "t": 184487.5,
      "d": 287.5,
      "v": 83
    },
    {
      "midi": 43,
      "hit": false,
      "t": 184793.75,
      "d": 1081.25,
      "v": 94
    },
    {
      "midi": 73,
      "hit": false,
      "t": 184800,
      "d": 468.75,
      "v": 96
    },
    {
      "midi": 69,
      "hit": false,
      "t": 184800,
      "d": 512.5,
      "v": 83
    },
    {
      "midi": 62,
      "hit": false,
      "t": 185093.75,
      "d": 431.25,
      "v": 58
    },
    {
      "midi": 74,
      "hit": false,
      "t": 185381.25,
      "d": 900,
      "v": 83
    },
    {
      "midi": 69,
      "hit": false,
      "t": 185681.25,
      "d": 612.5,
      "v": 94
    },
    {
      "midi": 42,
      "hit": false,
      "t": 185981.25,
      "d": 1212.5,
      "v": 83
    },
    {
      "midi": 62,
      "hit": false,
      "t": 186268.75,
      "d": 356.25,
      "v": 62
    },
    {
      "midi": 69,
      "hit": false,
      "t": 186568.75,
      "d": 656.25,
      "v": 91
    },
    {
      "midi": 62,
      "hit": false,
      "t": 186862.5,
      "d": 293.75,
      "v": 58
    },
    {
      "midi": 66,
      "hit": false,
      "t": 187175,
      "d": 1125,
      "v": 92
    },
    {
      "midi": 62,
      "hit": false,
      "t": 187175,
      "d": 1175,
      "v": 101
    },
    {
      "midi": 47,
      "hit": false,
      "t": 187175,
      "d": 1237.5,
      "v": 83
    },
    {
      "midi": 57,
      "hit": false,
      "t": 187181.25,
      "d": 1162.5,
      "v": 83
    },
    {
      "midi": 66,
      "hit": false,
      "t": 188381.25,
      "d": 1206.25,
      "v": 74
    },
    {
      "midi": 62,
      "hit": false,
      "t": 188387.5,
      "d": 637.5,
      "v": 83
    },
    {
      "midi": 56,
      "hit": false,
      "t": 188387.5,
      "d": 1168.75,
      "v": 83
    },
    {
      "midi": 59,
      "hit": false,
      "t": 188387.5,
      "d": 1168.75,
      "v": 83
    },
    {
      "midi": 40,
      "hit": false,
      "t": 188393.75,
      "d": 906.25,
      "v": 92
    },
    {
      "midi": 64,
      "hit": false,
      "t": 188962.5,
      "d": 568.75,
      "v": 83
    },
    {
      "midi": 47,
      "hit": false,
      "t": 189300,
      "d": 250,
      "v": 82
    },
    {
      "midi": 64,
      "hit": false,
      "t": 189581.25,
      "d": 887.5,
      "v": 83
    },
    {
      "midi": 62,
      "hit": false,
      "t": 189587.5,
      "d": 331.25,
      "v": 91
    },
    {
      "midi": 55,
      "hit": false,
      "t": 189587.5,
      "d": 862.5,
      "v": 70
    },
    {
      "midi": 45,
      "hit": false,
      "t": 189587.5,
      "d": 1168.75,
      "v": 101
    },
    {
      "midi": 61,
      "hit": false,
      "t": 189881.25,
      "d": 518.75,
      "v": 56
    },
    {
      "midi": 57,
      "hit": false,
      "t": 190175,
      "d": 268.75,
      "v": 72
    },
    {
      "midi": 66,
      "hit": false,
      "t": 190481.25,
      "d": 237.5,
      "v": 74
    },
    {
      "midi": 57,
      "hit": false,
      "t": 190487.5,
      "d": 262.5,
      "v": 74
    },
    {
      "midi": 67,
      "hit": false,
      "t": 190787.5,
      "d": 568.75,
      "v": 89
    },
    {
      "midi": 59,
      "hit": false,
      "t": 190793.75,
      "d": 537.5,
      "v": 98
    },
    {
      "midi": 45,
      "hit": false,
      "t": 190800,
      "d": 268.75,
      "v": 83
    },
    {
      "midi": 47,
      "hit": false,
      "t": 191075,
      "d": 250,
      "v": 70
    },
    {
      "midi": 50,
      "hit": false,
      "t": 191375,
      "d": 237.5,
      "v": 83
    },
    {
      "midi": 62,
      "hit": false,
      "t": 191393.75,
      "d": 550,
      "v": 92
    },
    {
      "midi": 71,
      "hit": false,
      "t": 191406.25,
      "d": 562.5,
      "v": 95
    },
    {
      "midi": 45,
      "hit": false,
      "t": 191662.5,
      "d": 293.75,
      "v": 83
    },
    {
      "midi": 61,
      "hit": false,
      "t": 192000,
      "d": 487.5,
      "v": 92
    },
    {
      "midi": 69,
      "hit": false,
      "t": 192000,
      "d": 531.25,
      "v": 95
    },
    {
      "midi": 45,
      "hit": false,
      "t": 192006.25,
      "d": 1743.75,
      "v": 95
    },
    {
      "midi": 61,
      "hit": false,
      "t": 192600,
      "d": 300,
      "v": 66
    },
    {
      "midi": 64,
      "hit": false,
      "t": 192606.25,
      "d": 306.25,
      "v": 66
    },
    {
      "midi": 57,
      "hit": false,
      "t": 192881.25,
      "d": 225,
      "v": 70
    },
    {
      "midi": 61,
      "hit": false,
      "t": 193200,
      "d": 562.5,
      "v": 92
    },
    {
      "midi": 64,
      "hit": false,
      "t": 193206.25,
      "d": 556.25,
      "v": 83
    },
    {
      "midi": 64,
      "hit": false,
      "t": 193781.25,
      "d": 593.75,
      "v": 92
    },
    {
      "midi": 45,
      "hit": false,
      "t": 193787.5,
      "d": 275,
      "v": 83
    },
    {
      "midi": 67,
      "hit": false,
      "t": 193787.5,
      "d": 587.5,
      "v": 74
    },
    {
      "midi": 57,
      "hit": false,
      "t": 194093.75,
      "d": 256.25,
      "v": 66
    },
    {
      "midi": 49,
      "hit": false,
      "t": 194100,
      "d": 275,
      "v": 83
    },
    {
      "midi": 66,
      "hit": false,
      "t": 194381.25,
      "d": 518.75,
      "v": 92
    },
    {
      "midi": 50,
      "hit": false,
      "t": 194387.5,
      "d": 812.5,
      "v": 92
    },
    {
      "midi": 62,
      "hit": false,
      "t": 194387.5,
      "d": 875,
      "v": 83
    },
    {
      "midi": 57,
      "hit": false,
      "t": 194675,
      "d": 893.75,
      "v": 62
    },
    {
      "midi": 66,
      "hit": false,
      "t": 194981.25,
      "d": 612.5,
      "v": 83
    },
    {
      "midi": 62,
      "hit": false,
      "t": 195275,
      "d": 275,
      "v": 66
    },
    {
      "midi": 69,
      "hit": false,
      "t": 195281.25,
      "d": 887.5,
      "v": 74
    },
    {
      "midi": 50,
      "hit": false,
      "t": 195293.75,
      "d": 1425,
      "v": 92
    },
    {
      "midi": 62,
      "hit": false,
      "t": 195581.25,
      "d": 525,
      "v": 83
    },
    {
      "midi": 74,
      "hit": false,
      "t": 195581.25,
      "d": 575,
      "v": 94
    },
    {
      "midi": 71,
      "hit": false,
      "t": 196193.75,
      "d": 593.75,
      "v": 92
    },
    {
      "midi": 62,
      "hit": false,
      "t": 196193.75,
      "d": 600,
      "v": 74
    },
    {
      "midi": 61,
      "hit": false,
      "t": 196793.75,
      "d": 337.5,
      "v": 83
    },
    {
      "midi": 69,
      "hit": false,
      "t": 196793.75,
      "d": 612.5,
      "v": 98
    },
    {
      "midi": 49,
      "hit": false,
      "t": 196800,
      "d": 837.5,
      "v": 91
    },
    {
      "midi": 57,
      "hit": false,
      "t": 197087.5,
      "d": 281.25,
      "v": 66
    },
    {
      "midi": 64,
      "hit": false,
      "t": 197368.75,
      "d": 250,
      "v": 74
    },
    {
      "midi": 67,
      "hit": false,
      "t": 197687.5,
      "d": 593.75,
      "v": 91
    },
    {
      "midi": 64,
      "hit": false,
      "t": 197687.5,
      "d": 606.25,
      "v": 92
    },
    {
      "midi": 49,
      "hit": false,
      "t": 197693.75,
      "d": 256.25,
      "v": 80
    },
    {
      "midi": 46,
      "hit": false,
      "t": 198000,
      "d": 600,
      "v": 92
    },
    {
      "midi": 66,
      "hit": false,
      "t": 198293.75,
      "d": 868.75,
      "v": 70
    },
    {
      "midi": 58,
      "hit": false,
      "t": 198587.5,
      "d": 593.75,
      "v": 66
    },
    {
      "midi": 42,
      "hit": false,
      "t": 198600,
      "d": 512.5,
      "v": 92
    },
    {
      "midi": 61,
      "hit": false,
      "t": 198881.25,
      "d": 287.5,
      "v": 74
    },
    {
      "midi": 47,
      "hit": false,
      "t": 199175,
      "d": 1212.5,
      "v": 92
    },
    {
      "midi": 54,
      "hit": false,
      "t": 199181.25,
      "d": 1100,
      "v": 74
    },
    {
      "midi": 61,
      "hit": false,
      "t": 199487.5,
      "d": 806.25,
      "v": 70
    },
    {
      "midi": 62,
      "hit": false,
      "t": 199775,
      "d": 543.75,
      "v": 74
    },
    {
      "midi": 62,
      "hit": false,
      "t": 200375,
      "d": 368.75,
      "v": 70
    },
    {
      "midi": 45,
      "hit": false,
      "t": 200375,
      "d": 1218.75,
      "v": 92
    },
    {
      "midi": 66,
      "hit": false,
      "t": 200381.25,
      "d": 437.5,
      "v": 101
    },
    {
      "midi": 64,
      "hit": false,
      "t": 200793.75,
      "d": 331.25,
      "v": 74
    },
    {
      "midi": 67,
      "hit": false,
      "t": 200793.75,
      "d": 481.25,
      "v": 92
    },
    {
      "midi": 66,
      "hit": false,
      "t": 201187.5,
      "d": 343.75,
      "v": 83
    },
    {
      "midi": 69,
      "hit": false,
      "t": 201193.75,
      "d": 406.25,
      "v": 97
    },
    {
      "midi": 43,
      "hit": false,
      "t": 201587.5,
      "d": 1156.25,
      "v": 91
    },
    {
      "midi": 64,
      "hit": false,
      "t": 201593.75,
      "d": 312.5,
      "v": 92
    },
    {
      "midi": 73,
      "hit": false,
      "t": 201593.75,
      "d": 1206.25,
      "v": 99
    },
    {
      "midi": 71,
      "hit": false,
      "t": 201881.25,
      "d": 318.75,
      "v": 85
    },
    {
      "midi": 64,
      "hit": false,
      "t": 202175,
      "d": 625,
      "v": 76
    },
    {
      "midi": 69,
      "hit": false,
      "t": 202481.25,
      "d": 281.25,
      "v": 74
    },
    {
      "midi": 62,
      "hit": false,
      "t": 202787.5,
      "d": 325,
      "v": 91
    },
    {
      "midi": 69,
      "hit": false,
      "t": 202787.5,
      "d": 643.75,
      "v": 97
    },
    {
      "midi": 42,
      "hit": false,
      "t": 202787.5,
      "d": 1131.25,
      "v": 92
    },
    {
      "midi": 61,
      "hit": false,
      "t": 203100,
      "d": 812.5,
      "v": 68
    },
    {
      "midi": 62,
      "hit": false,
      "t": 203387.5,
      "d": 581.25,
      "v": 74
    },
    {
      "midi": 69,
      "hit": false,
      "t": 203687.5,
      "d": 287.5,
      "v": 83
    },
    {
      "midi": 43,
      "hit": false,
      "t": 203993.75,
      "d": 1081.25,
      "v": 94
    },
    {
      "midi": 73,
      "hit": false,
      "t": 204000,
      "d": 468.75,
      "v": 96
    },
    {
      "midi": 69,
      "hit": false,
      "t": 204000,
      "d": 512.5,
      "v": 83
    },
    {
      "midi": 62,
      "hit": false,
      "t": 204293.75,
      "d": 993.75,
      "v": 58
    },
    {
      "midi": 74,
      "hit": false,
      "t": 204581.25,
      "d": 1750,
      "v": 83
    },
    {
      "midi": 69,
      "hit": false,
      "t": 204881.25,
      "d": 1393.75,
      "v": 94
    },
    {
      "midi": 42,
      "hit": false,
      "t": 205187.5,
      "d": 1212.5,
      "v": 83
    },
    {
      "midi": 62,
      "hit": false,
      "t": 205468.75,
      "d": 856.25,
      "v": 76
    },
    {
      "midi": 69,
      "hit": false,
      "t": 206400,
      "d": 1181.25,
      "v": 101
    },
    {
      "midi": 43,
      "hit": false,
      "t": 206406.25,
      "d": 1162.5,
      "v": 92
    },
    {
      "midi": 65,
      "hit": false,
      "t": 206406.25,
      "d": 1162.5,
      "v": 70
    },
    {
      "midi": 73,
      "hit": false,
      "t": 206406.25,
      "d": 1193.75,
      "v": 83
    },
    {
      "midi": 71,
      "hit": false,
      "t": 207006.25,
      "d": 575,
      "v": 92
    },
    {
      "midi": 61,
      "hit": false,
      "t": 207593.75,
      "d": 562.5,
      "v": 83
    },
    {
      "midi": 42,
      "hit": false,
      "t": 207593.75,
      "d": 575,
      "v": 101
    },
    {
      "midi": 69,
      "hit": false,
      "t": 207606.25,
      "d": 1168.75,
      "v": 83
    },
    {
      "midi": 64,
      "hit": false,
      "t": 207606.25,
      "d": 1175,
      "v": 92
    },
    {
      "midi": 66,
      "hit": false,
      "t": 207612.5,
      "d": 1137.5,
      "v": 83
    },
    {
      "midi": 62,
      "hit": false,
      "t": 208200,
      "d": 587.5,
      "v": 74
    },
    {
      "midi": 38,
      "hit": false,
      "t": 208206.25,
      "d": 562.5,
      "v": 92
    },
    {
      "midi": 58,
      "hit": false,
      "t": 208793.75,
      "d": 1200,
      "v": 74
    },
    {
      "midi": 61,
      "hit": false,
      "t": 208800,
      "d": 1181.25,
      "v": 83
    },
    {
      "midi": 66,
      "hit": false,
      "t": 208800,
      "d": 1187.5,
      "v": 84
    },
    {
      "midi": 46,
      "hit": false,
      "t": 208806.25,
      "d": 1100,
      "v": 92
    },
    {
      "midi": 64,
      "hit": false,
      "t": 208806.25,
      "d": 1162.5,
      "v": 92
    },
    {
      "midi": 47,
      "hit": false,
      "t": 209981.25,
      "d": 1087.5,
      "v": 101
    },
    {
      "midi": 62,
      "hit": false,
      "t": 209981.25,
      "d": 1175,
      "v": 101
    },
    {
      "midi": 57,
      "hit": false,
      "t": 209981.25,
      "d": 1193.75,
      "v": 92
    },
    {
      "midi": 64,
      "hit": false,
      "t": 210287.5,
      "d": 887.5,
      "v": 83
    },
    {
      "midi": 66,
      "hit": false,
      "t": 210581.25,
      "d": 556.25,
      "v": 101
    },
    {
      "midi": 40,
      "hit": false,
      "t": 211175,
      "d": 1168.75,
      "v": 83
    },
    {
      "midi": 66,
      "hit": false,
      "t": 211193.75,
      "d": 981.25,
      "v": 93
    },
    {
      "midi": 57,
      "hit": false,
      "t": 211193.75,
      "d": 1068.75,
      "v": 92
    },
    {
      "midi": 62,
      "hit": false,
      "t": 211193.75,
      "d": 1137.5,
      "v": 86
    },
    {
      "midi": 40,
      "hit": false,
      "t": 212393.75,
      "d": 1181.25,
      "v": 92
    },
    {
      "midi": 56,
      "hit": false,
      "t": 212393.75,
      "d": 1212.5,
      "v": 83
    },
    {
      "midi": 64,
      "hit": false,
      "t": 212400,
      "d": 1143.75,
      "v": 83
    },
    {
      "midi": 59,
      "hit": false,
      "t": 212406.25,
      "d": 1106.25,
      "v": 92
    },
    {
      "midi": 67,
      "hit": false,
      "t": 213587.5,
      "d": 650,
      "v": 92
    },
    {
      "midi": 59,
      "hit": false,
      "t": 213587.5,
      "d": 1118.75,
      "v": 101
    },
    {
      "midi": 48,
      "hit": false,
      "t": 213587.5,
      "d": 1168.75,
      "v": 97
    },
    {
      "midi": 62,
      "hit": false,
      "t": 213593.75,
      "d": 1162.5,
      "v": 83
    },
    {
      "midi": 66,
      "hit": false,
      "t": 214187.5,
      "d": 587.5,
      "v": 83
    },
    {
      "midi": 45,
      "hit": false,
      "t": 214800,
      "d": 1168.75,
      "v": 97
    },
    {
      "midi": 59,
      "hit": false,
      "t": 214800,
      "d": 1256.25,
      "v": 83
    },
    {
      "midi": 64,
      "hit": false,
      "t": 214800,
      "d": 1281.25,
      "v": 83
    },
    {
      "midi": 55,
      "hit": false,
      "t": 214806.25,
      "d": 1250,
      "v": 92
    },
    {
      "midi": 62,
      "hit": false,
      "t": 215400,
      "d": 593.75,
      "v": 74
    },
    {
      "midi": 47,
      "hit": false,
      "t": 216000,
      "d": 1268.75,
      "v": 83
    },
    {
      "midi": 54,
      "hit": false,
      "t": 216312.5,
      "d": 962.5,
      "v": 62
    },
    {
      "midi": 61,
      "hit": false,
      "t": 216612.5,
      "d": 681.25,
      "v": 74
    },
    {
      "midi": 62,
      "hit": false,
      "t": 216918.75,
      "d": 375,
      "v": 83
    },
    {
      "midi": 66,
      "hit": false,
      "t": 217187.5,
      "d": 1237.5,
      "v": 54
    },
    {
      "midi": 57,
      "hit": false,
      "t": 217200,
      "d": 1175,
      "v": 74
    },
    {
      "midi": 71,
      "hit": false,
      "t": 217500,
      "d": 931.25,
      "v": 70
    },
    {
      "midi": 73,
      "hit": false,
      "t": 217781.25,
      "d": 662.5,
      "v": 74
    },
    {
      "midi": 74,
      "hit": false,
      "t": 218087.5,
      "d": 343.75,
      "v": 83
    },
    {
      "midi": 44,
      "hit": false,
      "t": 218262.5,
      "d": 2537.5,
      "v": 74
    },
    {
      "midi": 50,
      "hit": false,
      "t": 218300,
      "d": 2475,
      "v": 70
    },
    {
      "midi": 59,
      "hit": false,
      "t": 218343.75,
      "d": 2406.25,
      "v": 78
    },
    {
      "midi": 54,
      "hit": false,
      "t": 218368.75,
      "d": 2431.25,
      "v": 62
    },
    {
      "midi": 66,
      "hit": false,
      "t": 218650,
      "d": 2137.5,
      "v": 58
    },
    {
      "midi": 71,
      "hit": false,
      "t": 218975,
      "d": 1806.25,
      "v": 83
    },
    {
      "midi": 78,
      "hit": false,
      "t": 219250,
      "d": 1600,
      "v": 50
    },
    {
      "midi": 83,
      "hit": false,
      "t": 219587.5,
      "d": 1231.25,
      "v": 74
    },
    {
      "midi": 66,
      "hit": false,
      "t": 221687.5,
      "d": 356.25,
      "v": 66
    },
    {
      "midi": 67,
      "hit": false,
      "t": 222006.25,
      "d": 581.25,
      "v": 83
    },
    {
      "midi": 71,
      "hit": false,
      "t": 222606.25,
      "d": 593.75,
      "v": 85
    },
    {
      "midi": 59,
      "hit": false,
      "t": 223043.75,
      "d": 1406.25,
      "v": 62
    },
    {
      "midi": 61,
      "hit": false,
      "t": 223125,
      "d": 1325,
      "v": 72
    },
    {
      "midi": 64,
      "hit": false,
      "t": 223150,
      "d": 1000,
      "v": 70
    },
    {
      "midi": 42,
      "hit": false,
      "t": 223200,
      "d": 2037.5,
      "v": 82
    },
    {
      "midi": 69,
      "hit": false,
      "t": 223237.5,
      "d": 2243.75,
      "v": 88
    },
    {
      "midi": 64,
      "hit": false,
      "t": 224375,
      "d": 362.5,
      "v": 74
    },
    {
      "midi": 57,
      "hit": false,
      "t": 224687.5,
      "d": 343.75,
      "v": 58
    },
    {
      "midi": 61,
      "hit": false,
      "t": 224993.75,
      "d": 356.25,
      "v": 83
    },
    {
      "midi": 62,
      "hit": false,
      "t": 225287.5,
      "d": 343.75,
      "v": 66
    },
    {
      "midi": 43,
      "hit": false,
      "t": 225600,
      "d": 2143.75,
      "v": 76
    },
    {
      "midi": 55,
      "hit": false,
      "t": 225600,
      "d": 2318.75,
      "v": 62
    },
    {
      "midi": 66,
      "hit": false,
      "t": 225606.25,
      "d": 843.75,
      "v": 73
    },
    {
      "midi": 59,
      "hit": false,
      "t": 225606.25,
      "d": 2318.75,
      "v": 74
    },
    {
      "midi": 66,
      "hit": false,
      "t": 226475,
      "d": 362.5,
      "v": 54
    },
    {
      "midi": 67,
      "hit": false,
      "t": 226775,
      "d": 643.75,
      "v": 85
    },
    {
      "midi": 57,
      "hit": false,
      "t": 227081.25,
      "d": 875,
      "v": 66
    },
    {
      "midi": 71,
      "hit": false,
      "t": 227381.25,
      "d": 600,
      "v": 83
    },
    {
      "midi": 69,
      "hit": false,
      "t": 227968.75,
      "d": 2350,
      "v": 82
    },
    {
      "midi": 59,
      "hit": false,
      "t": 227981.25,
      "d": 531.25,
      "v": 70
    },
    {
      "midi": 61,
      "hit": false,
      "t": 227981.25,
      "d": 875,
      "v": 70
    },
    {
      "midi": 64,
      "hit": false,
      "t": 227981.25,
      "d": 2375,
      "v": 74
    },
    {
      "midi": 42,
      "hit": false,
      "t": 228000,
      "d": 2156.25,
      "v": 75
    },
    {
      "midi": 59,
      "hit": false,
      "t": 228575,
      "d": 1187.5,
      "v": 62
    },
    {
      "midi": 62,
      "hit": false,
      "t": 228887.5,
      "d": 350,
      "v": 76
    },
    {
      "midi": 52,
      "hit": false,
      "t": 229181.25,
      "d": 356.25,
      "v": 59
    },
    {
      "midi": 61,
      "hit": false,
      "t": 229487.5,
      "d": 306.25,
      "v": 74
    },
    {
      "midi": 52,
      "hit": false,
      "t": 229806.25,
      "d": 293.75,
      "v": 40
    },
    {
      "midi": 59,
      "hit": false,
      "t": 230093.75,
      "d": 293.75,
      "v": 74
    },
    {
      "midi": 43,
      "hit": false,
      "t": 230400,
      "d": 2268.75,
      "v": 75
    },
    {
      "midi": 55,
      "hit": false,
      "t": 230400,
      "d": 2318.75,
      "v": 62
    },
    {
      "midi": 66,
      "hit": false,
      "t": 230406.25,
      "d": 843.75,
      "v": 73
    },
    {
      "midi": 59,
      "hit": false,
      "t": 230406.25,
      "d": 2318.75,
      "v": 74
    },
    {
      "midi": 66,
      "hit": false,
      "t": 231275,
      "d": 362.5,
      "v": 54
    },
    {
      "midi": 67,
      "hit": false,
      "t": 231575,
      "d": 643.75,
      "v": 85
    },
    {
      "midi": 57,
      "hit": false,
      "t": 231881.25,
      "d": 875,
      "v": 66
    },
    {
      "midi": 71,
      "hit": false,
      "t": 232181.25,
      "d": 600,
      "v": 83
    },
    {
      "midi": 69,
      "hit": false,
      "t": 232768.75,
      "d": 2350,
      "v": 82
    },
    {
      "midi": 61,
      "hit": false,
      "t": 232781.25,
      "d": 1187.5,
      "v": 70
    },
    {
      "midi": 59,
      "hit": false,
      "t": 232781.25,
      "d": 1218.75,
      "v": 70
    },
    {
      "midi": 42,
      "hit": false,
      "t": 232781.25,
      "d": 2125,
      "v": 75
    },
    {
      "midi": 64,
      "hit": false,
      "t": 232781.25,
      "d": 2375,
      "v": 74
    },
    {
      "midi": 62,
      "hit": false,
      "t": 233993.75,
      "d": 343.75,
      "v": 74
    },
    {
      "midi": 57,
      "hit": false,
      "t": 234393.75,
      "d": 381.25,
      "v": 59
    },
    {
      "midi": 62,
      "hit": false,
      "t": 234775,
      "d": 337.5,
      "v": 70
    },
    {
      "midi": 55,
      "hit": false,
      "t": 235131.25,
      "d": 2343.75,
      "v": 70
    },
    {
      "midi": 59,
      "hit": false,
      "t": 235162.5,
      "d": 2375,
      "v": 83
    },
    {
      "midi": 62,
      "hit": false,
      "t": 235162.5,
      "d": 2381.25,
      "v": 74
    },
    {
      "midi": 45,
      "hit": false,
      "t": 235168.75,
      "d": 4731.25,
      "v": 74
    },
    {
      "midi": 66,
      "hit": false,
      "t": 235175,
      "d": 4725,
      "v": 74
    },
    {
      "midi": 61,
      "hit": false,
      "t": 237600,
      "d": 2293.75,
      "v": 70
    },
    {
      "midi": 55,
      "hit": false,
      "t": 237618.75,
      "d": 2325,
      "v": 70
    },
    {
      "midi": 57,
      "hit": false,
      "t": 240000,
      "d": 250,
      "v": 83
    },
    {
      "midi": 50,
      "hit": false,
      "t": 240000,
      "d": 2243.75,
      "v": 92
    },
    {
      "midi": 66,
      "hit": false,
      "t": 240012.5,
      "d": 837.5,
      "v": 92
    },
    {
      "midi": 57,
      "hit": false,
      "t": 240287.5,
      "d": 568.75,
      "v": 62
    },
    {
      "midi": 64,
      "hit": false,
      "t": 240575,
      "d": 300,
      "v": 83
    },
    {
      "midi": 67,
      "hit": false,
      "t": 240868.75,
      "d": 868.75,
      "v": 92
    },
    {
      "midi": 59,
      "hit": false,
      "t": 240868.75,
      "d": 1412.5,
      "v": 66
    },
    {
      "midi": 66,
      "hit": false,
      "t": 241481.25,
      "d": 2662.5,
      "v": 79
    },
    {
      "midi": 62,
      "hit": false,
      "t": 241775,
      "d": 337.5,
      "v": 79
    },
    {
      "midi": 57,
      "hit": false,
      "t": 242068.75,
      "d": 556.25,
      "v": 85
    },
    {
      "midi": 50,
      "hit": false,
      "t": 242387.5,
      "d": 2350,
      "v": 87
    },
    {
      "midi": 57,
      "hit": false,
      "t": 242675,
      "d": 337.5,
      "v": 59
    },
    {
      "midi": 62,
      "hit": false,
      "t": 242975,
      "d": 1756.25,
      "v": 83
    },
    {
      "midi": 69,
      "hit": false,
      "t": 243243.75,
      "d": 375,
      "v": 70
    },
    {
      "midi": 57,
      "hit": false,
      "t": 243275,
      "d": 1431.25,
      "v": 70
    },
    {
      "midi": 78,
      "hit": false,
      "t": 243587.5,
      "d": 350,
      "v": 74
    },
    {
      "midi": 67,
      "hit": false,
      "t": 243893.75,
      "d": 325,
      "v": 58
    },
    {
      "midi": 76,
      "hit": false,
      "t": 244187.5,
      "d": 318.75,
      "v": 70
    },
    {
      "midi": 66,
      "hit": false,
      "t": 244500,
      "d": 262.5,
      "v": 50
    },
    {
      "midi": 69,
      "hit": false,
      "t": 244793.75,
      "d": 918.75,
      "v": 62
    },
    {
      "midi": 57,
      "hit": false,
      "t": 244800,
      "d": 243.75,
      "v": 83
    },
    {
      "midi": 66,
      "hit": false,
      "t": 244800,
      "d": 837.5,
      "v": 92
    },
    {
      "midi": 74,
      "hit": false,
      "t": 244800,
      "d": 1162.5,
      "v": 66
    },
    {
      "midi": 50,
      "hit": false,
      "t": 244800,
      "d": 2056.25,
      "v": 92
    },
    {
      "midi": 57,
      "hit": false,
      "t": 245075,
      "d": 337.5,
      "v": 70
    },
    {
      "midi": 64,
      "hit": false,
      "t": 245375,
      "d": 287.5,
      "v": 83
    },
    {
      "midi": 67,
      "hit": false,
      "t": 245693.75,
      "d": 587.5,
      "v": 83
    },
    {
      "midi": 59,
      "hit": false,
      "t": 245693.75,
      "d": 600,
      "v": 92
    },
    {
      "midi": 62,
      "hit": false,
      "t": 245693.75,
      "d": 600,
      "v": 63
    },
    {
      "midi": 66,
      "hit": false,
      "t": 246293.75,
      "d": 818.75,
      "v": 82
    },
    {
      "midi": 62,
      "hit": false,
      "t": 246593.75,
      "d": 562.5,
      "v": 82
    },
    {
      "midi": 50,
      "hit": false,
      "t": 246881.25,
      "d": 300,
      "v": 74
    },
    {
      "midi": 57,
      "hit": false,
      "t": 246881.25,
      "d": 325,
      "v": 68
    },
    {
      "midi": 62,
      "hit": false,
      "t": 247187.5,
      "d": 556.25,
      "v": 70
    },
    {
      "midi": 66,
      "hit": false,
      "t": 247187.5,
      "d": 950,
      "v": 83
    },
    {
      "midi": 47,
      "hit": false,
      "t": 247187.5,
      "d": 1206.25,
      "v": 92
    },
    {
      "midi": 55,
      "hit": false,
      "t": 247500,
      "d": 837.5,
      "v": 79
    },
    {
      "midi": 62,
      "hit": false,
      "t": 247793.75,
      "d": 637.5,
      "v": 70
    },
    {
      "midi": 64,
      "hit": false,
      "t": 248087.5,
      "d": 262.5,
      "v": 83
    },
    {
      "midi": 64,
      "hit": false,
      "t": 248387.5,
      "d": 1143.75,
      "v": 88
    },
    {
      "midi": 61,
      "hit": false,
      "t": 248387.5,
      "d": 1181.25,
      "v": 66
    },
    {
      "midi": 49,
      "hit": false,
      "t": 248393.75,
      "d": 1181.25,
      "v": 92
    },
    {
      "midi": 57,
      "hit": false,
      "t": 248693.75,
      "d": 306.25,
      "v": 74
    },
    {
      "midi": 69,
      "hit": false,
      "t": 249006.25,
      "d": 656.25,
      "v": 91
    },
    {
      "midi": 67,
      "hit": false,
      "t": 249293.75,
      "d": 350,
      "v": 79
    },
    {
      "midi": 38,
      "hit": false,
      "t": 249481.25,
      "d": 4781.25,
      "v": 58
    },
    {
      "midi": 54,
      "hit": false,
      "t": 249518.75,
      "d": 4768.75,
      "v": 54
    },
    {
      "midi": 45,
      "hit": false,
      "t": 249575,
      "d": 4693.75,
      "v": 66
    },
    {
      "midi": 50,
      "hit": false,
      "t": 249637.5,
      "d": 4631.25,
      "v": 70
    },
    {
      "midi": 57,
      "hit": false,
      "t": 249637.5,
      "d": 4643.75,
      "v": 74
    },
    {
      "midi": 62,
      "hit": false,
      "t": 249675,
      "d": 4612.5,
      "v": 66
    },
    {
      "midi": 66,
      "hit": false,
      "t": 249687.5,
      "d": 4606.25,
      "v": 83
    }
  ]
}