{
  "jsonPath": "Unknown/Unknown/Mr Shadow feat Slush The Villian/someone-fuckin-with-my-money.json",
  "path": "Unknown\\Unknown\\Mr Shadow feat Slush The Villian\\Someone Fuckin With My Money.mid",
  "name": "Someone Fuckin With My Money",
  "difficulty": "Advanced",
  "bpm": 120,
  "notes": [
    {
      "midi": 69,
      "hit": false,
      "t": 2666.4,
      "d": 319.4124999999999,
      "v": 85
    },
    {
      "midi": 45,
      "hit": false,
      "t": 2666.4,
      "d": 2194.225000000001,
      "v": 107
    },
    {
      "midi": 57,
      "hit": false,
      "t": 2666.4,
      "d": 2270.606250000001,
      "v": 89
    },
    {
      "midi": 72,
      "hit": false,
      "t": 2999.7,
      "d": 298.5812500000002,
      "v": 76
    },
    {
      "midi": 76,
      "hit": false,
      "t": 3333,
      "d": 368.0187500000002,
      "v": 52
    },
    {
      "midi": 72,
      "hit": false,
      "t": 3666.3,
      "d": 291.6374999999998,
      "v": 77
    },
    {
      "midi": 81,
      "hit": false,
      "t": 3999.6,
      "d": 291.6375000000003,
      "v": 66
    },
    {
      "midi": 76,
      "hit": false,
      "t": 4332.900000000001,
      "d": 617.9937500000005,
      "v": 93
    },
    {
      "midi": 72,
      "hit": false,
      "t": 4666.200000000001,
      "d": 305.52500000000055,
      "v": 79
    },
    {
      "midi": 69,
      "hit": false,
      "t": 4999.500000000001,
      "d": 222.19999999999982,
      "v": 70
    },
    {
      "midi": 69,
      "hit": false,
      "t": 5332.800000000001,
      "d": 263.8625000000002,
      "v": 84
    },
    {
      "midi": 57,
      "hit": false,
      "t": 5332.800000000001,
      "d": 2173.39375,
      "v": 66
    },
    {
      "midi": 45,
      "hit": false,
      "t": 5332.800000000001,
      "d": 2263.6625000000004,
      "v": 93
    },
    {
      "midi": 72,
      "hit": false,
      "t": 5666.100000000001,
      "d": 347.1875,
      "v": 77
    },
    {
      "midi": 76,
      "hit": false,
      "t": 5999.4000000000015,
      "d": 333.3000000000002,
      "v": 63
    },
    {
      "midi": 72,
      "hit": false,
      "t": 6332.700000000002,
      "d": 291.6374999999998,
      "v": 74
    },
    {
      "midi": 81,
      "hit": false,
      "t": 6666.000000000002,
      "d": 305.52499999999964,
      "v": 58
    },
    {
      "midi": 76,
      "hit": false,
      "t": 6999.300000000001,
      "d": 624.9375,
      "v": 73
    },
    {
      "midi": 72,
      "hit": false,
      "t": 7332.600000000001,
      "d": 319.41249999999945,
      "v": 63
    },
    {
      "midi": 69,
      "hit": false,
      "t": 7665.900000000001,
      "d": 208.3125,
      "v": 60
    },
    {
      "midi": 69,
      "hit": false,
      "t": 7999.200000000001,
      "d": 326.3562500000007,
      "v": 87
    },
    {
      "midi": 45,
      "hit": false,
      "t": 7999.200000000001,
      "d": 2284.4937500000033,
      "v": 98
    },
    {
      "midi": 57,
      "hit": false,
      "t": 7999.200000000001,
      "d": 2319.212500000005,
      "v": 105
    },
    {
      "midi": 72,
      "hit": false,
      "t": 8332.500000000002,
      "d": 319.41250000000036,
      "v": 69
    },
    {
      "midi": 76,
      "hit": false,
      "t": 8665.800000000003,
      "d": 361.0749999999989,
      "v": 70
    },
    {
      "midi": 72,
      "hit": false,
      "t": 8999.100000000002,
      "d": 284.69375000000036,
      "v": 76
    },
    {
      "midi": 81,
      "hit": false,
      "t": 9332.400000000003,
      "d": 340.24374999999964,
      "v": 58
    },
    {
      "midi": 76,
      "hit": false,
      "t": 9665.700000000003,
      "d": 624.9375000000018,
      "v": 81
    },
    {
      "midi": 72,
      "hit": false,
      "t": 9999.000000000004,
      "d": 305.52500000000146,
      "v": 76
    },
    {
      "midi": 69,
      "hit": false,
      "t": 10332.300000000007,
      "d": 229.14374999999927,
      "v": 62
    },
    {
      "midi": 69,
      "hit": false,
      "t": 10665.600000000006,
      "d": 270.80624999999964,
      "v": 90
    },
    {
      "midi": 45,
      "hit": false,
      "t": 10665.600000000006,
      "d": 1131.8312499999993,
      "v": 95
    },
    {
      "midi": 57,
      "hit": false,
      "t": 10665.600000000006,
      "d": 2194.225000000002,
      "v": 82
    },
    {
      "midi": 72,
      "hit": false,
      "t": 10998.900000000005,
      "d": 333.2999999999993,
      "v": 69
    },
    {
      "midi": 76,
      "hit": false,
      "t": 11332.200000000004,
      "d": 326.3562500000007,
      "v": 69
    },
    {
      "midi": 72,
      "hit": false,
      "t": 11665.500000000005,
      "d": 222.1999999999989,
      "v": 74
    },
    {
      "midi": 45,
      "hit": false,
      "t": 11998.800000000005,
      "d": 173.59375,
      "v": 66
    },
    {
      "midi": 81,
      "hit": false,
      "t": 11998.800000000005,
      "d": 326.3562500000007,
      "v": 53
    },
    {
      "midi": 47,
      "hit": false,
      "t": 12165.450000000004,
      "d": 173.59375000000182,
      "v": 77
    },
    {
      "midi": 48,
      "hit": false,
      "t": 12332.100000000006,
      "d": 180.53750000000036,
      "v": 66
    },
    {
      "midi": 76,
      "hit": false,
      "t": 12332.100000000006,
      "d": 374.96250000000146,
      "v": 84
    },
    {
      "midi": 50,
      "hit": false,
      "t": 12498.750000000005,
      "d": 173.59375000000182,
      "v": 57
    },
    {
      "midi": 72,
      "hit": false,
      "t": 12665.400000000007,
      "d": 270.80625000000146,
      "v": 85
    },
    {
      "midi": 52,
      "hit": false,
      "t": 12665.400000000007,
      "d": 520.7812500000018,
      "v": 92
    },
    {
      "midi": 69,
      "hit": false,
      "t": 12998.700000000008,
      "d": 187.48125000000073,
      "v": 68
    },
    {
      "midi": 57,
      "hit": false,
      "t": 13332.00000000001,
      "d": 368.0187499999993,
      "v": 111
    },
    {
      "midi": 45,
      "hit": false,
      "t": 13332.00000000001,
      "d": 2312.268750000001,
      "v": 86
    },
    {
      "midi": 60,
      "hit": false,
      "t": 13665.300000000008,
      "d": 333.2999999999993,
      "v": 63
    },
    {
      "midi": 72,
      "hit": false,
      "t": 13665.300000000008,
      "d": 333.2999999999993,
      "v": 63
    },
    {
      "midi": 64,
      "hit": false,
      "t": 13998.600000000008,
      "d": 326.3562500000007,
      "v": 61
    },
    {
      "midi": 76,
      "hit": false,
      "t": 13998.600000000008,
      "d": 569.3875000000007,
      "v": 74
    },
    {
      "midi": 72,
      "hit": false,
      "t": 14331.900000000009,
      "d": 284.69375000000036,
      "v": 90
    },
    {
      "midi": 60,
      "hit": false,
      "t": 14331.900000000009,
      "d": 298.5812500000011,
      "v": 60
    },
    {
      "midi": 69,
      "hit": false,
      "t": 14665.20000000001,
      "d": 243.03125,
      "v": 100
    },
    {
      "midi": 81,
      "hit": false,
      "t": 14665.20000000001,
      "d": 319.41250000000036,
      "v": 63
    },
    {
      "midi": 64,
      "hit": false,
      "t": 14998.500000000011,
      "d": 604.1062499999989,
      "v": 57
    },
    {
      "midi": 76,
      "hit": false,
      "t": 14998.500000000011,
      "d": 604.1062499999989,
      "v": 93
    },
    {
      "midi": 72,
      "hit": false,
      "t": 15331.80000000001,
      "d": 291.6374999999989,
      "v": 87
    },
    {
      "midi": 60,
      "hit": false,
      "t": 15331.80000000001,
      "d": 298.5812499999993,
      "v": 71
    },
    {
      "midi": 57,
      "hit": false,
      "t": 15665.10000000001,
      "d": 20.831249999999272,
      "v": 51
    },
    {
      "midi": 69,
      "hit": false,
      "t": 15665.10000000001,
      "d": 236.08749999999964,
      "v": 87
    },
    {
      "midi": 57,
      "hit": false,
      "t": 15998.400000000009,
      "d": 513.8374999999978,
      "v": 109
    },
    {
      "midi": 45,
      "hit": false,
      "t": 15998.400000000009,
      "d": 2256.71875,
      "v": 89
    },
    {
      "midi": 60,
      "hit": false,
      "t": 16331.700000000008,
      "d": 305.5249999999978,
      "v": 57
    },
    {
      "midi": 72,
      "hit": false,
      "t": 16331.700000000008,
      "d": 305.5249999999978,
      "v": 72
    },
    {
      "midi": 76,
      "hit": false,
      "t": 16665.000000000007,
      "d": 361.0750000000007,
      "v": 62
    },
    {
      "midi": 64,
      "hit": false,
      "t": 16665.000000000007,
      "d": 368.0187499999993,
      "v": 53
    },
    {
      "midi": 72,
      "hit": false,
      "t": 16998.300000000007,
      "d": 312.46875,
      "v": 81
    },
    {
      "midi": 60,
      "hit": false,
      "t": 16998.300000000007,
      "d": 319.41249999999854,
      "v": 74
    },
    {
      "midi": 69,
      "hit": false,
      "t": 17331.600000000006,
      "d": 166.65000000000146,
      "v": 99
    },
    {
      "midi": 81,
      "hit": false,
      "t": 17331.600000000006,
      "d": 333.3000000000029,
      "v": 60
    },
    {
      "midi": 64,
      "hit": false,
      "t": 17664.90000000001,
      "d": 611.0499999999993,
      "v": 67
    },
    {
      "midi": 76,
      "hit": false,
      "t": 17664.90000000001,
      "d": 611.0499999999993,
      "v": 68
    },
    {
      "midi": 60,
      "hit": false,
      "t": 17998.200000000008,
      "d": 312.46875,
      "v": 82
    },
    {
      "midi": 72,
      "hit": false,
      "t": 17998.200000000008,
      "d": 312.46875,
      "v": 76
    },
    {
      "midi": 69,
      "hit": false,
      "t": 18331.500000000007,
      "d": 194.42499999999927,
      "v": 60
    },
    {
      "midi": 57,
      "hit": false,
      "t": 18331.500000000007,
      "d": 201.36874999999782,
      "v": 53
    },
    {
      "midi": 57,
      "hit": false,
      "t": 18664.800000000007,
      "d": 381.90625,
      "v": 90
    },
    {
      "midi": 45,
      "hit": false,
      "t": 18664.800000000007,
      "d": 2166.4499999999935,
      "v": 84
    },
    {
      "midi": 60,
      "hit": false,
      "t": 18998.100000000006,
      "d": 312.46875,
      "v": 62
    },
    {
      "midi": 72,
      "hit": false,
      "t": 18998.100000000006,
      "d": 326.3562500000007,
      "v": 68
    },
    {
      "midi": 76,
      "hit": false,
      "t": 19331.400000000005,
      "d": 340.2437499999978,
      "v": 73
    },
    {
      "midi": 64,
      "hit": false,
      "t": 19331.400000000005,
      "d": 347.18749999999636,
      "v": 59
    },
    {
      "midi": 60,
      "hit": false,
      "t": 19664.700000000004,
      "d": 291.6374999999971,
      "v": 73
    },
    {
      "midi": 72,
      "hit": false,
      "t": 19664.700000000004,
      "d": 291.6374999999971,
      "v": 77
    },
    {
      "midi": 69,
      "hit": false,
      "t": 19998,
      "d": 180.53749999999854,
      "v": 99
    },
    {
      "midi": 81,
      "hit": false,
      "t": 19998,
      "d": 305.5249999999978,
      "v": 63
    },
    {
      "midi": 64,
      "hit": false,
      "t": 20331.3,
      "d": 576.3312499999993,
      "v": 77
    },
    {
      "midi": 76,
      "hit": false,
      "t": 20331.3,
      "d": 597.1624999999985,
      "v": 79
    },
    {
      "midi": 60,
      "hit": false,
      "t": 20664.6,
      "d": 270.8062499999978,
      "v": 79
    },
    {
      "midi": 72,
      "hit": false,
      "t": 20664.6,
      "d": 284.69374999999854,
      "v": 85
    },
    {
      "midi": 69,
      "hit": false,
      "t": 20997.899999999998,
      "d": 118.04375000000073,
      "v": 93
    },
    {
      "midi": 57,
      "hit": false,
      "t": 20997.899999999998,
      "d": 180.53750000000218,
      "v": 76
    },
    {
      "midi": 50,
      "hit": false,
      "t": 21331.2,
      "d": 1652.6124999999956,
      "v": 100
    },
    {
      "midi": 38,
      "hit": false,
      "t": 21331.2,
      "d": 2076.181249999994,
      "v": 60
    },
    {
      "midi": 65,
      "hit": false,
      "t": 21664.5,
      "d": 256.9187500000007,
      "v": 73
    },
    {
      "midi": 53,
      "hit": false,
      "t": 21664.5,
      "d": 263.8624999999993,
      "v": 86
    },
    {
      "midi": 57,
      "hit": false,
      "t": 21997.8,
      "d": 368.0187499999993,
      "v": 58
    },
    {
      "midi": 69,
      "hit": false,
      "t": 21997.8,
      "d": 381.90625,
      "v": 69
    },
    {
      "midi": 65,
      "hit": false,
      "t": 22331.1,
      "d": 312.46875,
      "v": 85
    },
    {
      "midi": 53,
      "hit": false,
      "t": 22331.1,
      "d": 326.3562500000007,
      "v": 90
    },
    {
      "midi": 62,
      "hit": false,
      "t": 22664.399999999998,
      "d": 111.09999999999854,
      "v": 109
    },
    {
      "midi": 74,
      "hit": false,
      "t": 22664.399999999998,
      "d": 333.2999999999993,
      "v": 72
    },
    {
      "midi": 69,
      "hit": false,
      "t": 22997.699999999997,
      "d": 555.4999999999964,
      "v": 84
    },
    {
      "midi": 57,
      "hit": false,
      "t": 22997.699999999997,
      "d": 576.3312499999956,
      "v": 72
    },
    {
      "midi": 65,
      "hit": false,
      "t": 23330.999999999996,
      "d": 270.8062499999978,
      "v": 81
    },
    {
      "midi": 53,
      "hit": false,
      "t": 23330.999999999996,
      "d": 277.74999999999636,
      "v": 93
    },
    {
      "midi": 50,
      "hit": false,
      "t": 23664.299999999992,
      "d": 159.70624999999927,
      "v": 61
    },
    {
      "midi": 62,
      "hit": false,
      "t": 23664.299999999992,
      "d": 159.70624999999927,
      "v": 65
    },
    {
      "midi": 52,
      "hit": false,
      "t": 23997.59999999999,
      "d": 1229.043749999997,
      "v": 98
    },
    {
      "midi": 40,
      "hit": false,
      "t": 23997.59999999999,
      "d": 2256.7187499999964,
      "v": 109
    },
    {
      "midi": 56,
      "hit": false,
      "t": 24330.89999999999,
      "d": 312.46875,
      "v": 78
    },
    {
      "midi": 68,
      "hit": false,
      "t": 24330.89999999999,
      "d": 319.41249999999854,
      "v": 92
    },
    {
      "midi": 59,
      "hit": false,
      "t": 24664.19999999999,
      "d": 354.13124999999854,
      "v": 76
    },
    {
      "midi": 71,
      "hit": false,
      "t": 24664.19999999999,
      "d": 368.0187499999993,
      "v": 82
    },
    {
      "midi": 68,
      "hit": false,
      "t": 24997.49999999999,
      "d": 298.5812499999993,
      "v": 70
    },
    {
      "midi": 56,
      "hit": false,
      "t": 24997.49999999999,
      "d": 333.2999999999993,
      "v": 84
    },
    {
      "midi": 64,
      "hit": false,
      "t": 25330.79999999999,
      "d": 208.3125,
      "v": 113
    },
    {
      "midi": 76,
      "hit": false,
      "t": 25330.79999999999,
      "d": 291.6375000000007,
      "v": 44
    },
    {
      "midi": 59,
      "hit": false,
      "t": 25664.099999999988,
      "d": 347.1875,
      "v": 95
    },
    {
      "midi": 71,
      "hit": false,
      "t": 25664.099999999988,
      "d": 444.40000000000146,
      "v": 87
    },
    {
      "midi": 56,
      "hit": false,
      "t": 25997.399999999987,
      "d": 277.75,
      "v": 90
    },
    {
      "midi": 68,
      "hit": false,
      "t": 25997.399999999987,
      "d": 277.75,
      "v": 96
    },
    {
      "midi": 52,
      "hit": false,
      "t": 26330.699999999986,
      "d": 208.3125,
      "v": 81
    },
    {
      "midi": 64,
      "hit": false,
      "t": 26330.699999999986,
      "d": 208.3125,
      "v": 84
    },
    {
      "midi": 52,
      "hit": false,
      "t": 26663.999999999985,
      "d": 527.7249999999985,
      "v": 90
    },
    {
      "midi": 40,
      "hit": false,
      "t": 26663.999999999985,
      "d": 2187.2812499999964,
      "v": 76
    },
    {
      "midi": 68,
      "hit": false,
      "t": 26997.299999999985,
      "d": 284.69374999999854,
      "v": 94
    },
    {
      "midi": 56,
      "hit": false,
      "t": 26997.299999999985,
      "d": 312.46875,
      "v": 81
    },
    {
      "midi": 59,
      "hit": false,
      "t": 27330.599999999984,
      "d": 340.2437499999978,
      "v": 84
    },
    {
      "midi": 71,
      "hit": false,
      "t": 27330.599999999984,
      "d": 340.2437499999978,
      "v": 85
    },
    {
      "midi": 56,
      "hit": false,
      "t": 27663.899999999983,
      "d": 319.41249999999854,
      "v": 86
    },
    {
      "midi": 68,
      "hit": false,
      "t": 27663.899999999983,
      "d": 319.41249999999854,
      "v": 88
    },
    {
      "midi": 64,
      "hit": false,
      "t": 27997.199999999983,
      "d": 166.65000000000146,
      "v": 99
    },
    {
      "midi": 76,
      "hit": false,
      "t": 27997.199999999983,
      "d": 312.46875,
      "v": 71
    },
    {
      "midi": 59,
      "hit": false,
      "t": 28330.49999999998,
      "d": 368.0187499999993,
      "v": 96
    },
    {
      "midi": 71,
      "hit": false,
      "t": 28330.49999999998,
      "d": 576.3312499999993,
      "v": 89
    },
    {
      "midi": 56,
      "hit": false,
      "t": 28663.79999999998,
      "d": 249.97499999999854,
      "v": 100
    },
    {
      "midi": 68,
      "hit": false,
      "t": 28663.79999999998,
      "d": 256.9187499999971,
      "v": 102
    },
    {
      "midi": 52,
      "hit": false,
      "t": 28997.099999999977,
      "d": 180.53749999999854,
      "v": 87
    },
    {
      "midi": 64,
      "hit": false,
      "t": 28997.099999999977,
      "d": 180.53749999999854,
      "v": 96
    },
    {
      "midi": 50,
      "hit": false,
      "t": 29330.399999999976,
      "d": 888.7999999999993,
      "v": 100
    },
    {
      "midi": 38,
      "hit": false,
      "t": 29330.399999999976,
      "d": 944.3499999999985,
      "v": 59
    },
    {
      "midi": 62,
      "hit": false,
      "t": 29330.399999999976,
      "d": 999.8999999999978,
      "v": 89
    },
    {
      "midi": 65,
      "hit": false,
      "t": 29663.699999999975,
      "d": 333.2999999999993,
      "v": 81
    },
    {
      "midi": 53,
      "hit": false,
      "t": 29663.699999999975,
      "d": 354.13124999999854,
      "v": 72
    },
    {
      "midi": 57,
      "hit": false,
      "t": 29996.999999999975,
      "d": 354.13124999999854,
      "v": 72
    },
    {
      "midi": 69,
      "hit": false,
      "t": 29996.999999999975,
      "d": 354.13124999999854,
      "v": 79
    },
    {
      "midi": 65,
      "hit": false,
      "t": 30330.299999999974,
      "d": 152.76250000000073,
      "v": 96
    },
    {
      "midi": 53,
      "hit": false,
      "t": 30330.299999999974,
      "d": 173.59375,
      "v": 90
    },
    {
      "midi": 40,
      "hit": false,
      "t": 30663.599999999973,
      "d": 930.4624999999978,
      "v": 73
    },
    {
      "midi": 52,
      "hit": false,
      "t": 30663.599999999973,
      "d": 930.4624999999978,
      "v": 111
    },
    {
      "midi": 64,
      "hit": false,
      "t": 30663.599999999973,
      "d": 930.4624999999978,
      "v": 109
    },
    {
      "midi": 56,
      "hit": false,
      "t": 30996.899999999972,
      "d": 472.1749999999993,
      "v": 72
    },
    {
      "midi": 68,
      "hit": false,
      "t": 30996.899999999972,
      "d": 611.0499999999993,
      "v": 73
    },
    {
      "midi": 59,
      "hit": false,
      "t": 31330.19999999997,
      "d": 312.46875,
      "v": 89
    },
    {
      "midi": 71,
      "hit": false,
      "t": 31330.19999999997,
      "d": 312.46875,
      "v": 80
    },
    {
      "midi": 64,
      "hit": false,
      "t": 31663.49999999997,
      "d": 187.48125000000073,
      "v": 77
    },
    {
      "midi": 76,
      "hit": false,
      "t": 31663.49999999997,
      "d": 201.36875000000146,
      "v": 58
    },
    {
      "midi": 57,
      "hit": false,
      "t": 31996.799999999974,
      "d": 1701.21875,
      "v": 86
    },
    {
      "midi": 45,
      "hit": false,
      "t": 31996.799999999974,
      "d": 2263.662500000006,
      "v": 67
    },
    {
      "midi": 72,
      "hit": false,
      "t": 32330.099999999973,
      "d": 215.25624999999854,
      "v": 76
    },
    {
      "midi": 60,
      "hit": false,
      "t": 32330.099999999973,
      "d": 243.03125,
      "v": 74
    },
    {
      "midi": 64,
      "hit": false,
      "t": 32663.399999999972,
      "d": 354.1312500000058,
      "v": 71
    },
    {
      "midi": 76,
      "hit": false,
      "t": 32663.399999999972,
      "d": 368.0187500000029,
      "v": 79
    },
    {
      "midi": 60,
      "hit": false,
      "t": 32996.699999999975,
      "d": 298.5812500000029,
      "v": 76
    },
    {
      "midi": 72,
      "hit": false,
      "t": 32996.699999999975,
      "d": 298.5812500000029,
      "v": 84
    },
    {
      "midi": 69,
      "hit": false,
      "t": 33329.99999999998,
      "d": 41.662499999998545,
      "v": 109
    },
    {
      "midi": 81,
      "hit": false,
      "t": 33329.99999999998,
      "d": 298.58124999999563,
      "v": 63
    },
    {
      "midi": 76,
      "hit": false,
      "t": 33663.299999999974,
      "d": 493.0062500000058,
      "v": 77
    },
    {
      "midi": 64,
      "hit": false,
      "t": 33663.299999999974,
      "d": 527.7250000000058,
      "v": 93
    },
    {
      "midi": 60,
      "hit": false,
      "t": 33996.59999999998,
      "d": 256.91875000000437,
      "v": 93
    },
    {
      "midi": 72,
      "hit": false,
      "t": 33996.59999999998,
      "d": 256.91875000000437,
      "v": 87
    },
    {
      "midi": 57,
      "hit": false,
      "t": 34329.89999999998,
      "d": 159.7062500000029,
      "v": 72
    },
    {
      "midi": 69,
      "hit": false,
      "t": 34329.89999999998,
      "d": 187.48125000000437,
      "v": 82
    },
    {
      "midi": 57,
      "hit": false,
      "t": 34663.19999999998,
      "d": 62.493750000001455,
      "v": 100
    },
    {
      "midi": 88,
      "hit": false,
      "t": 34663.19999999998,
      "d": 881.8562500000044,
      "v": 127
    },
    {
      "midi": 45,
      "hit": false,
      "t": 34663.19999999998,
      "d": 2242.8312500000175,
      "v": 67
    },
    {
      "midi": 60,
      "hit": false,
      "t": 34996.499999999985,
      "d": 333.3000000000029,
      "v": 63
    },
    {
      "midi": 72,
      "hit": false,
      "t": 34996.499999999985,
      "d": 333.3000000000029,
      "v": 63
    },
    {
      "midi": 76,
      "hit": false,
      "t": 35329.79999999999,
      "d": 229.14374999999563,
      "v": 74
    },
    {
      "midi": 64,
      "hit": false,
      "t": 35329.79999999999,
      "d": 263.86249999999563,
      "v": 61
    },
    {
      "midi": 65,
      "hit": false,
      "t": 35496.44999999999,
      "d": 104.15624999999272,
      "v": 56
    },
    {
      "midi": 77,
      "hit": false,
      "t": 35496.44999999999,
      "d": 104.15624999999272,
      "v": 60
    },
    {
      "midi": 89,
      "hit": false,
      "t": 35496.44999999999,
      "d": 145.81874999999127,
      "v": 50
    },
    {
      "midi": 63,
      "hit": false,
      "t": 35663.099999999984,
      "d": 97.21250000000146,
      "v": 117
    },
    {
      "midi": 87,
      "hit": false,
      "t": 35663.099999999984,
      "d": 118.04375000000437,
      "v": 86
    },
    {
      "midi": 75,
      "hit": false,
      "t": 35663.099999999984,
      "d": 124.98750000000291,
      "v": 106
    },
    {
      "midi": 72,
      "hit": false,
      "t": 35663.099999999984,
      "d": 263.8625000000029,
      "v": 90
    },
    {
      "midi": 60,
      "hit": false,
      "t": 35663.099999999984,
      "d": 277.75,
      "v": 60
    },
    {
      "midi": 64,
      "hit": false,
      "t": 35829.749999999985,
      "d": 97.21250000000146,
      "v": 116
    },
    {
      "midi": 76,
      "hit": false,
      "t": 35829.749999999985,
      "d": 97.21250000000146,
      "v": 81
    },
    {
      "midi": 88,
      "hit": false,
      "t": 35829.749999999985,
      "d": 97.21250000000146,
      "v": 113
    },
    {
      "midi": 69,
      "hit": false,
      "t": 35996.39999999999,
      "d": 187.4812499999971,
      "v": 100
    },
    {
      "midi": 65,
      "hit": false,
      "t": 35996.39999999999,
      "d": 277.75,
      "v": 125
    },
    {
      "midi": 77,
      "hit": false,
      "t": 35996.39999999999,
      "d": 298.5812500000029,
      "v": 126
    },
    {
      "midi": 89,
      "hit": false,
      "t": 35996.39999999999,
      "d": 298.5812500000029,
      "v": 127
    },
    {
      "midi": 81,
      "hit": false,
      "t": 35996.39999999999,
      "d": 312.46875,
      "v": 63
    },
    {
      "midi": 88,
      "hit": false,
      "t": 36329.69999999999,
      "d": 395.79375000000437,
      "v": 125
    },
    {
      "midi": 64,
      "hit": false,
      "t": 36329.69999999999,
      "d": 520.7812500000073,
      "v": 127
    },
    {
      "midi": 76,
      "hit": false,
      "t": 36329.69999999999,
      "d": 520.7812500000073,
      "v": 126
    },
    {
      "midi": 72,
      "hit": false,
      "t": 36662.99999999999,
      "d": 277.7500000000073,
      "v": 87
    },
    {
      "midi": 60,
      "hit": false,
      "t": 36662.99999999999,
      "d": 284.6937500000058,
      "v": 71
    },
    {
      "midi": 88,
      "hit": false,
      "t": 36829.649999999994,
      "d": 326.35625000000437,
      "v": 109
    },
    {
      "midi": 57,
      "hit": false,
      "t": 36996.299999999996,
      "d": 173.59375,
      "v": 51
    },
    {
      "midi": 76,
      "hit": false,
      "t": 36996.299999999996,
      "d": 229.1437500000029,
      "v": 125
    },
    {
      "midi": 64,
      "hit": false,
      "t": 36996.299999999996,
      "d": 243.03125,
      "v": 121
    },
    {
      "midi": 69,
      "hit": false,
      "t": 36996.299999999996,
      "d": 243.03125,
      "v": 87
    },
    {
      "midi": 57,
      "hit": false,
      "t": 37329.6,
      "d": 617.9937500000015,
      "v": 109
    },
    {
      "midi": 96,
      "hit": false,
      "t": 37329.6,
      "d": 937.40625,
      "v": 113
    },
    {
      "midi": 84,
      "hit": false,
      "t": 37329.6,
      "d": 986.0124999999971,
      "v": 127
    },
    {
      "midi": 45,
      "hit": false,
      "t": 37329.6,
      "d": 2346.987499999974,
      "v": 89
    },
    {
      "midi": 60,
      "hit": false,
      "t": 37662.9,
      "d": 319.41249999999854,
      "v": 57
    },
    {
      "midi": 72,
      "hit": false,
      "t": 37662.9,
      "d": 319.41249999999854,
      "v": 72
    },
    {
      "midi": 76,
      "hit": false,
      "t": 37996.2,
      "d": 347.1874999999927,
      "v": 62
    },
    {
      "midi": 64,
      "hit": false,
      "t": 37996.2,
      "d": 354.13124999999127,
      "v": 53
    },
    {
      "midi": 83,
      "hit": false,
      "t": 38329.49999999999,
      "d": 270.8062499999942,
      "v": 127
    },
    {
      "midi": 95,
      "hit": false,
      "t": 38329.49999999999,
      "d": 270.8062499999942,
      "v": 127
    },
    {
      "midi": 71,
      "hit": false,
      "t": 38329.49999999999,
      "d": 284.69374999999127,
      "v": 127
    },
    {
      "midi": 72,
      "hit": false,
      "t": 38329.49999999999,
      "d": 291.6374999999898,
      "v": 81
    },
    {
      "midi": 60,
      "hit": false,
      "t": 38329.49999999999,
      "d": 298.58124999998836,
      "v": 74
    },
    {
      "midi": 69,
      "hit": false,
      "t": 38662.79999999998,
      "d": 256.9187499999971,
      "v": 99
    },
    {
      "midi": 81,
      "hit": false,
      "t": 38662.79999999998,
      "d": 347.1874999999927,
      "v": 60
    },
    {
      "midi": 88,
      "hit": false,
      "t": 38662.79999999998,
      "d": 1110.9999999999927,
      "v": 121
    },
    {
      "midi": 76,
      "hit": false,
      "t": 38996.09999999998,
      "d": 590.2187499999927,
      "v": 68
    },
    {
      "midi": 64,
      "hit": false,
      "t": 38996.09999999998,
      "d": 611.0499999999956,
      "v": 67
    },
    {
      "midi": 60,
      "hit": false,
      "t": 39329.39999999997,
      "d": 312.46875,
      "v": 82
    },
    {
      "midi": 72,
      "hit": false,
      "t": 39329.39999999997,
      "d": 312.46875,
      "v": 76
    },
    {
      "midi": 57,
      "hit": false,
      "t": 39662.699999999975,
      "d": 13.88749999999709,
      "v": 53
    },
    {
      "midi": 69,
      "hit": false,
      "t": 39662.699999999975,
      "d": 194.42499999999563,
      "v": 60
    },
    {
      "midi": 76,
      "hit": false,
      "t": 39995.99999999997,
      "d": 354.1312500000058,
      "v": 126
    },
    {
      "midi": 88,
      "hit": false,
      "t": 39995.99999999997,
      "d": 402.7375000000029,
      "v": 121
    },
    {
      "midi": 57,
      "hit": false,
      "t": 39995.99999999997,
      "d": 416.625,
      "v": 90
    },
    {
      "midi": 45,
      "hit": false,
      "t": 39995.99999999997,
      "d": 2097.01249999999,
      "v": 84
    },
    {
      "midi": 60,
      "hit": false,
      "t": 40329.299999999974,
      "d": 291.6374999999971,
      "v": 62
    },
    {
      "midi": 72,
      "hit": false,
      "t": 40329.299999999974,
      "d": 305.5249999999942,
      "v": 68
    },
    {
      "midi": 88,
      "hit": false,
      "t": 40495.94999999997,
      "d": 486.0625000000073,
      "v": 98
    },
    {
      "midi": 64,
      "hit": false,
      "t": 40662.59999999997,
      "d": 263.8625000000029,
      "v": 59
    },
    {
      "midi": 76,
      "hit": false,
      "t": 40662.59999999997,
      "d": 319.4125000000058,
      "v": 73
    },
    {
      "midi": 92,
      "hit": false,
      "t": 40995.89999999997,
      "d": 222.1999999999971,
      "v": 110
    },
    {
      "midi": 80,
      "hit": false,
      "t": 40995.89999999997,
      "d": 236.08749999999418,
      "v": 123
    },
    {
      "midi": 68,
      "hit": false,
      "t": 40995.89999999997,
      "d": 277.7499999999927,
      "v": 117
    },
    {
      "midi": 60,
      "hit": false,
      "t": 40995.89999999997,
      "d": 291.6374999999898,
      "v": 73
    },
    {
      "midi": 72,
      "hit": false,
      "t": 40995.89999999997,
      "d": 291.6374999999898,
      "v": 77
    },
    {
      "midi": 69,
      "hit": false,
      "t": 41329.19999999996,
      "d": 166.65000000000146,
      "v": 116
    },
    {
      "midi": 93,
      "hit": false,
      "t": 41329.19999999996,
      "d": 256.91875000000437,
      "v": 99
    },
    {
      "midi": 81,
      "hit": false,
      "t": 41329.19999999996,
      "d": 284.6937500000058,
      "v": 105
    },
    {
      "midi": 76,
      "hit": false,
      "t": 41662.49999999996,
      "d": 243.03125,
      "v": 113
    },
    {
      "midi": 88,
      "hit": false,
      "t": 41662.49999999996,
      "d": 277.75,
      "v": 93
    },
    {
      "midi": 64,
      "hit": false,
      "t": 41662.49999999996,
      "d": 319.41249999999854,
      "v": 99
    },
    {
      "midi": 62,
      "hit": false,
      "t": 41995.79999999996,
      "d": 41.662499999998545,
      "v": 71
    },
    {
      "midi": 74,
      "hit": false,
      "t": 41995.79999999996,
      "d": 41.662499999998545,
      "v": 95
    },
    {
      "midi": 86,
      "hit": false,
      "t": 41995.79999999996,
      "d": 41.662499999998545,
      "v": 81
    },
    {
      "midi": 88,
      "hit": false,
      "t": 41995.79999999996,
      "d": 41.662499999998545,
      "v": 69
    },
    {
      "midi": 60,
      "hit": false,
      "t": 41995.79999999996,
      "d": 222.1999999999971,
      "v": 79
    },
    {
      "midi": 72,
      "hit": false,
      "t": 41995.79999999996,
      "d": 229.14374999999563,
      "v": 85
    },
    {
      "midi": 64,
      "hit": false,
      "t": 42162.44999999996,
      "d": 6.943749999998545,
      "v": 59
    },
    {
      "midi": 76,
      "hit": false,
      "t": 42162.44999999996,
      "d": 62.49374999999418,
      "v": 59
    },
    {
      "midi": 88,
      "hit": false,
      "t": 42162.44999999996,
      "d": 69.43749999999272,
      "v": 57
    },
    {
      "midi": 62,
      "hit": false,
      "t": 42162.44999999996,
      "d": 97.21249999999418,
      "v": 55
    },
    {
      "midi": 74,
      "hit": false,
      "t": 42162.44999999996,
      "d": 97.21249999999418,
      "v": 73
    },
    {
      "midi": 86,
      "hit": false,
      "t": 42162.44999999996,
      "d": 111.09999999999127,
      "v": 64
    },
    {
      "midi": 57,
      "hit": false,
      "t": 42329.099999999955,
      "d": 131.93125000000146,
      "v": 76
    },
    {
      "midi": 69,
      "hit": false,
      "t": 42329.099999999955,
      "d": 131.93125000000146,
      "v": 93
    },
    {
      "midi": 72,
      "hit": false,
      "t": 42329.099999999955,
      "d": 243.03125,
      "v": 111
    },
    {
      "midi": 84,
      "hit": false,
      "t": 42329.099999999955,
      "d": 243.03125,
      "v": 125
    },
    {
      "midi": 60,
      "hit": false,
      "t": 42329.099999999955,
      "d": 256.9187499999971,
      "v": 96
    },
    {
      "midi": 62,
      "hit": false,
      "t": 42662.39999999995,
      "d": 333.3000000000029,
      "v": 109
    },
    {
      "midi": 86,
      "hit": false,
      "t": 42662.39999999995,
      "d": 368.0187500000029,
      "v": 113
    },
    {
      "midi": 74,
      "hit": false,
      "t": 42662.39999999995,
      "d": 423.5687500000058,
      "v": 123
    },
    {
      "midi": 50,
      "hit": false,
      "t": 42662.39999999995,
      "d": 1708.1624999999985,
      "v": 100
    },
    {
      "midi": 38,
      "hit": false,
      "t": 42662.39999999995,
      "d": 2117.8437500000073,
      "v": 60
    },
    {
      "midi": 64,
      "hit": false,
      "t": 42995.69999999995,
      "d": 55.55000000000291,
      "v": 59
    },
    {
      "midi": 76,
      "hit": false,
      "t": 42995.69999999995,
      "d": 55.55000000000291,
      "v": 33
    },
    {
      "midi": 88,
      "hit": false,
      "t": 42995.69999999995,
      "d": 76.38125000000582,
      "v": 59
    },
    {
      "midi": 65,
      "hit": false,
      "t": 42995.69999999995,
      "d": 284.69374999999854,
      "v": 73
    },
    {
      "midi": 53,
      "hit": false,
      "t": 42995.69999999995,
      "d": 291.6374999999971,
      "v": 86
    },
    {
      "midi": 83,
      "hit": false,
      "t": 43162.349999999955,
      "d": 1013.7874999999913,
      "v": 126
    },
    {
      "midi": 59,
      "hit": false,
      "t": 43162.349999999955,
      "d": 1097.1124999999956,
      "v": 109
    },
    {
      "midi": 71,
      "hit": false,
      "t": 43162.349999999955,
      "d": 1201.2687499999956,
      "v": 116
    },
    {
      "midi": 57,
      "hit": false,
      "t": 43328.99999999995,
      "d": 368.0187500000029,
      "v": 58
    },
    {
      "midi": 69,
      "hit": false,
      "t": 43328.99999999995,
      "d": 381.90625,
      "v": 69
    },
    {
      "midi": 65,
      "hit": false,
      "t": 43662.29999999995,
      "d": 312.46875,
      "v": 85
    },
    {
      "midi": 53,
      "hit": false,
      "t": 43662.29999999995,
      "d": 326.3562499999971,
      "v": 90
    },
    {
      "midi": 62,
      "hit": false,
      "t": 43995.59999999995,
      "d": 215.25624999999854,
      "v": 109
    },
    {
      "midi": 74,
      "hit": false,
      "t": 43995.59999999995,
      "d": 326.35625000000437,
      "v": 72
    },
    {
      "midi": 84,
      "hit": false,
      "t": 44162.24999999995,
      "d": 76.38124999999854,
      "v": 45
    },
    {
      "midi": 60,
      "hit": false,
      "t": 44328.89999999995,
      "d": 55.549999999995634,
      "v": 56
    },
    {
      "midi": 86,
      "hit": false,
      "t": 44328.89999999995,
      "d": 55.549999999995634,
      "v": 62
    },
    {
      "midi": 83,
      "hit": false,
      "t": 44328.89999999995,
      "d": 111.09999999999854,
      "v": 96
    },
    {
      "midi": 59,
      "hit": false,
      "t": 44328.89999999995,
      "d": 138.875,
      "v": 107
    },
    {
      "midi": 62,
      "hit": false,
      "t": 44328.89999999995,
      "d": 229.1437500000029,
      "v": 48
    },
    {
      "midi": 69,
      "hit": false,
      "t": 44328.89999999995,
      "d": 499.95000000000437,
      "v": 84
    },
    {
      "midi": 57,
      "hit": false,
      "t": 44328.89999999995,
      "d": 520.78125,
      "v": 72
    },
    {
      "midi": 74,
      "hit": false,
      "t": 44495.54999999995,
      "d": 55.55000000000291,
      "v": 59
    },
    {
      "midi": 72,
      "hit": false,
      "t": 44495.54999999995,
      "d": 90.26875000000291,
      "v": 47
    },
    {
      "midi": 86,
      "hit": false,
      "t": 44662.19999999995,
      "d": 55.55000000000291,
      "v": 45
    },
    {
      "midi": 84,
      "hit": false,
      "t": 44662.19999999995,
      "d": 83.32500000000437,
      "v": 54
    },
    {
      "midi": 59,
      "hit": false,
      "t": 44662.19999999995,
      "d": 180.53749999999854,
      "v": 107
    },
    {
      "midi": 71,
      "hit": false,
      "t": 44662.19999999995,
      "d": 187.4812499999971,
      "v": 127
    },
    {
      "midi": 83,
      "hit": false,
      "t": 44662.19999999995,
      "d": 187.4812499999971,
      "v": 116
    },
    {
      "midi": 65,
      "hit": false,
      "t": 44662.19999999995,
      "d": 270.8062499999942,
      "v": 81
    },
    {
      "midi": 53,
      "hit": false,
      "t": 44662.19999999995,
      "d": 277.7499999999927,
      "v": 93
    },
    {
      "midi": 72,
      "hit": false,
      "t": 44828.849999999955,
      "d": 124.98749999998836,
      "v": 123
    },
    {
      "midi": 60,
      "hit": false,
      "t": 44995.49999999994,
      "d": 124.98750000000291,
      "v": 100
    },
    {
      "midi": 84,
      "hit": false,
      "t": 44995.49999999994,
      "d": 124.98750000000291,
      "v": 111
    },
    {
      "midi": 50,
      "hit": false,
      "t": 44995.49999999994,
      "d": 131.93125000000146,
      "v": 61
    },
    {
      "midi": 62,
      "hit": false,
      "t": 45162.14999999994,
      "d": 34.71875,
      "v": 103
    },
    {
      "midi": 86,
      "hit": false,
      "t": 45162.14999999994,
      "d": 62.493750000001455,
      "v": 98
    },
    {
      "midi": 74,
      "hit": false,
      "t": 45162.14999999994,
      "d": 90.26875000000291,
      "v": 113
    },
    {
      "midi": 86,
      "hit": false,
      "t": 45328.799999999945,
      "d": 819.3624999999956,
      "v": 109
    },
    {
      "midi": 62,
      "hit": false,
      "t": 45328.799999999945,
      "d": 840.1937499999913,
      "v": 107
    },
    {
      "midi": 74,
      "hit": false,
      "t": 45328.799999999945,
      "d": 895.7437499999942,
      "v": 125
    },
    {
      "midi": 52,
      "hit": false,
      "t": 45328.799999999945,
      "d": 1284.5937499999854,
      "v": 98
    },
    {
      "midi": 40,
      "hit": false,
      "t": 45328.799999999945,
      "d": 2277.549999999981,
      "v": 109
    },
    {
      "midi": 56,
      "hit": false,
      "t": 45662.09999999995,
      "d": 312.46875,
      "v": 78
    },
    {
      "midi": 68,
      "hit": false,
      "t": 45662.09999999995,
      "d": 319.41249999999854,
      "v": 92
    },
    {
      "midi": 88,
      "hit": false,
      "t": 45995.39999999994,
      "d": 41.662499999998545,
      "v": 32
    },
    {
      "midi": 59,
      "hit": false,
      "t": 45995.39999999994,
      "d": 347.1874999999927,
      "v": 76
    },
    {
      "midi": 71,
      "hit": false,
      "t": 45995.39999999994,
      "d": 361.0749999999898,
      "v": 82
    },
    {
      "midi": 88,
      "hit": false,
      "t": 46162.04999999994,
      "d": 97.21250000000146,
      "v": 67
    },
    {
      "midi": 76,
      "hit": false,
      "t": 46162.04999999994,
      "d": 166.65000000000146,
      "v": 49
    },
    {
      "midi": 64,
      "hit": false,
      "t": 46162.04999999994,
      "d": 187.4812499999971,
      "v": 64
    },
    {
      "midi": 73,
      "hit": false,
      "t": 46328.69999999994,
      "d": 187.4812499999971,
      "v": 66
    },
    {
      "midi": 85,
      "hit": false,
      "t": 46328.69999999994,
      "d": 194.42499999999563,
      "v": 108
    },
    {
      "midi": 61,
      "hit": false,
      "t": 46328.69999999994,
      "d": 222.1999999999971,
      "v": 77
    },
    {
      "midi": 68,
      "hit": false,
      "t": 46328.69999999994,
      "d": 277.7499999999927,
      "v": 70
    },
    {
      "midi": 56,
      "hit": false,
      "t": 46328.69999999994,
      "d": 312.4687499999927,
      "v": 84
    },
    {
      "midi": 74,
      "hit": false,
      "t": 46495.34999999993,
      "d": 104.15625,
      "v": 100
    },
    {
      "midi": 86,
      "hit": false,
      "t": 46495.34999999993,
      "d": 166.65000000000146,
      "v": 90
    },
    {
      "midi": 62,
      "hit": false,
      "t": 46495.34999999993,
      "d": 180.53749999999854,
      "v": 89
    },
    {
      "midi": 64,
      "hit": false,
      "t": 46661.999999999935,
      "d": 152.7624999999971,
      "v": 116
    },
    {
      "midi": 76,
      "hit": false,
      "t": 46661.999999999935,
      "d": 277.75,
      "v": 127
    },
    {
      "midi": 88,
      "hit": false,
      "t": 46661.999999999935,
      "d": 284.69374999999854,
      "v": 113
    },
    {
      "midi": 59,
      "hit": false,
      "t": 46995.29999999993,
      "d": 333.3000000000029,
      "v": 95
    },
    {
      "midi": 62,
      "hit": false,
      "t": 46995.29999999993,
      "d": 409.68125000000146,
      "v": 118
    },
    {
      "midi": 71,
      "hit": false,
      "t": 46995.29999999993,
      "d": 423.56874999999854,
      "v": 87
    },
    {
      "midi": 86,
      "hit": false,
      "t": 47161.94999999993,
      "d": 430.5124999999971,
      "v": 100
    },
    {
      "midi": 74,
      "hit": false,
      "t": 47161.94999999993,
      "d": 451.3437499999927,
      "v": 113
    },
    {
      "midi": 56,
      "hit": false,
      "t": 47328.59999999993,
      "d": 270.8062499999942,
      "v": 90
    },
    {
      "midi": 68,
      "hit": false,
      "t": 47328.59999999993,
      "d": 270.8062499999942,
      "v": 96
    },
    {
      "midi": 52,
      "hit": false,
      "t": 47661.89999999992,
      "d": 194.4250000000029,
      "v": 81
    },
    {
      "midi": 64,
      "hit": false,
      "t": 47661.89999999992,
      "d": 194.4250000000029,
      "v": 84
    },
    {
      "midi": 62,
      "hit": false,
      "t": 47661.89999999992,
      "d": 229.1437500000029,
      "v": 96
    },
    {
      "midi": 74,
      "hit": false,
      "t": 47661.89999999992,
      "d": 236.08750000000146,
      "v": 107
    },
    {
      "midi": 86,
      "hit": false,
      "t": 47661.89999999992,
      "d": 548.5562500000015,
      "v": 82
    },
    {
      "midi": 71,
      "hit": false,
      "t": 47995.199999999924,
      "d": 374.9624999999942,
      "v": 126
    },
    {
      "midi": 52,
      "hit": false,
      "t": 47995.199999999924,
      "d": 624.9375,
      "v": 90
    },
    {
      "midi": 83,
      "hit": false,
      "t": 47995.199999999924,
      "d": 881.8562499999971,
      "v": 125
    },
    {
      "midi": 40,
      "hit": false,
      "t": 47995.199999999924,
      "d": 2228.9437499999913,
      "v": 76
    },
    {
      "midi": 68,
      "hit": false,
      "t": 48328.49999999992,
      "d": 291.63750000000437,
      "v": 94
    },
    {
      "midi": 56,
      "hit": false,
      "t": 48328.49999999992,
      "d": 319.4125000000058,
      "v": 81
    },
    {
      "midi": 95,
      "hit": false,
      "t": 48328.49999999992,
      "d": 666.5999999999985,
      "v": 95
    },
    {
      "midi": 71,
      "hit": false,
      "t": 48661.79999999992,
      "d": 312.46875,
      "v": 85
    },
    {
      "midi": 59,
      "hit": false,
      "t": 48661.79999999992,
      "d": 319.41249999999854,
      "v": 84
    },
    {
      "midi": 68,
      "hit": false,
      "t": 48995.09999999992,
      "d": 256.9187499999971,
      "v": 120
    },
    {
      "midi": 80,
      "hit": false,
      "t": 48995.09999999992,
      "d": 270.8062499999942,
      "v": 126
    },
    {
      "midi": 56,
      "hit": false,
      "t": 48995.09999999992,
      "d": 284.69374999999127,
      "v": 86
    },
    {
      "midi": 92,
      "hit": false,
      "t": 48995.09999999992,
      "d": 291.6374999999898,
      "v": 104
    },
    {
      "midi": 64,
      "hit": false,
      "t": 49328.39999999991,
      "d": 201.36875000000146,
      "v": 99
    },
    {
      "midi": 76,
      "hit": false,
      "t": 49328.39999999991,
      "d": 291.63750000000437,
      "v": 71
    },
    {
      "midi": 62,
      "hit": false,
      "t": 49328.39999999991,
      "d": 1055.4500000000116,
      "v": 107
    },
    {
      "midi": 74,
      "hit": false,
      "t": 49328.39999999991,
      "d": 1055.4500000000116,
      "v": 113
    },
    {
      "midi": 86,
      "hit": false,
      "t": 49328.39999999991,
      "d": 1083.225000000013,
      "v": 74
    },
    {
      "midi": 59,
      "hit": false,
      "t": 49661.69999999991,
      "d": 361.07500000000437,
      "v": 96
    },
    {
      "midi": 71,
      "hit": false,
      "t": 49661.69999999991,
      "d": 583.2750000000087,
      "v": 89
    },
    {
      "midi": 56,
      "hit": false,
      "t": 49994.99999999991,
      "d": 256.91875000000437,
      "v": 100
    },
    {
      "midi": 68,
      "hit": false,
      "t": 49994.99999999991,
      "d": 263.8625000000029,
      "v": 102
    },
    {
      "midi": 52,
      "hit": false,
      "t": 50328.299999999916,
      "d": 180.53750000000582,
      "v": 87
    },
    {
      "midi": 64,
      "hit": false,
      "t": 50328.299999999916,
      "d": 180.53750000000582,
      "v": 96
    },
    {
      "midi": 88,
      "hit": false,
      "t": 50661.59999999992,
      "d": 34.71875,
      "v": 51
    },
    {
      "midi": 65,
      "hit": false,
      "t": 50661.59999999992,
      "d": 48.60624999999709,
      "v": 12
    },
    {
      "midi": 64,
      "hit": false,
      "t": 50661.59999999992,
      "d": 69.4375,
      "v": 51
    },
    {
      "midi": 86,
      "hit": false,
      "t": 50661.59999999992,
      "d": 347.1875,
      "v": 105
    },
    {
      "midi": 62,
      "hit": false,
      "t": 50661.59999999992,
      "d": 784.6437499999884,
      "v": 95
    },
    {
      "midi": 74,
      "hit": false,
      "t": 50661.59999999992,
      "d": 784.6437499999884,
      "v": 118
    },
    {
      "midi": 50,
      "hit": false,
      "t": 50661.59999999992,
      "d": 895.7437499999869,
      "v": 100
    },
    {
      "midi": 38,
      "hit": false,
      "t": 50661.59999999992,
      "d": 958.2374999999884,
      "v": 59
    },
    {
      "midi": 65,
      "hit": false,
      "t": 50994.89999999992,
      "d": 319.41249999999127,
      "v": 81
    },
    {
      "midi": 53,
      "hit": false,
      "t": 50994.89999999992,
      "d": 340.2437499999869,
      "v": 72
    },
    {
      "midi": 88,
      "hit": false,
      "t": 51161.549999999916,
      "d": 41.662499999998545,
      "v": 19
    },
    {
      "midi": 86,
      "hit": false,
      "t": 51161.549999999916,
      "d": 361.0749999999898,
      "v": 96
    },
    {
      "midi": 57,
      "hit": false,
      "t": 51328.19999999991,
      "d": 333.29999999999563,
      "v": 72
    },
    {
      "midi": 69,
      "hit": false,
      "t": 51328.19999999991,
      "d": 333.29999999999563,
      "v": 79
    },
    {
      "midi": 86,
      "hit": false,
      "t": 51661.499999999905,
      "d": 48.60624999999709,
      "v": 52
    },
    {
      "midi": 65,
      "hit": false,
      "t": 51661.499999999905,
      "d": 62.49374999999418,
      "v": 96
    },
    {
      "midi": 64,
      "hit": false,
      "t": 51661.499999999905,
      "d": 76.38124999999127,
      "v": 71
    },
    {
      "midi": 53,
      "hit": false,
      "t": 51661.499999999905,
      "d": 152.7624999999898,
      "v": 90
    },
    {
      "midi": 76,
      "hit": false,
      "t": 51661.499999999905,
      "d": 152.7624999999898,
      "v": 92
    },
    {
      "midi": 88,
      "hit": false,
      "t": 51661.499999999905,
      "d": 152.7624999999898,
      "v": 105
    },
    {
      "midi": 76,
      "hit": false,
      "t": 51828.14999999989,
      "d": 34.71875,
      "v": 54
    },
    {
      "midi": 65,
      "hit": false,
      "t": 51828.14999999989,
      "d": 41.662499999998545,
      "v": 58
    },
    {
      "midi": 74,
      "hit": false,
      "t": 51828.14999999989,
      "d": 41.662499999998545,
      "v": 107
    },
    {
      "midi": 86,
      "hit": false,
      "t": 51828.14999999989,
      "d": 41.662499999998545,
      "v": 59
    },
    {
      "midi": 88,
      "hit": false,
      "t": 51994.799999999894,
      "d": 34.71875,
      "v": 49
    },
    {
      "midi": 74,
      "hit": false,
      "t": 51994.799999999894,
      "d": 76.38124999999854,
      "v": 60
    },
    {
      "midi": 62,
      "hit": false,
      "t": 51994.799999999894,
      "d": 187.48125000000437,
      "v": 109
    },
    {
      "midi": 72,
      "hit": false,
      "t": 51994.799999999894,
      "d": 291.63750000000437,
      "v": 99
    },
    {
      "midi": 84,
      "hit": false,
      "t": 51994.799999999894,
      "d": 409.68125000000146,
      "v": 85
    },
    {
      "midi": 52,
      "hit": false,
      "t": 51994.799999999894,
      "d": 895.7437500000015,
      "v": 111
    },
    {
      "midi": 64,
      "hit": false,
      "t": 51994.799999999894,
      "d": 895.7437500000015,
      "v": 109
    },
    {
      "midi": 40,
      "hit": false,
      "t": 51994.799999999894,
      "d": 902.6875,
      "v": 73
    },
    {
      "midi": 60,
      "hit": false,
      "t": 52161.449999999895,
      "d": 333.3000000000029,
      "v": 113
    },
    {
      "midi": 62,
      "hit": false,
      "t": 52328.0999999999,
      "d": 76.38124999999854,
      "v": 51
    },
    {
      "midi": 83,
      "hit": false,
      "t": 52328.0999999999,
      "d": 430.51250000000437,
      "v": 96
    },
    {
      "midi": 56,
      "hit": false,
      "t": 52328.0999999999,
      "d": 458.2875000000058,
      "v": 72
    },
    {
      "midi": 68,
      "hit": false,
      "t": 52328.0999999999,
      "d": 590.2187499999927,
      "v": 73
    },
    {
      "midi": 59,
      "hit": false,
      "t": 52661.3999999999,
      "d": 215.25624999999854,
      "v": 89
    },
    {
      "midi": 71,
      "hit": false,
      "t": 52661.3999999999,
      "d": 249.97499999999127,
      "v": 80
    },
    {
      "midi": 60,
      "hit": false,
      "t": 52828.0499999999,
      "d": 145.81874999999127,
      "v": 107
    },
    {
      "midi": 84,
      "hit": false,
      "t": 52828.0499999999,
      "d": 159.70624999998836,
      "v": 100
    },
    {
      "midi": 72,
      "hit": false,
      "t": 52994.69999999989,
      "d": 131.93125000000146,
      "v": 107
    },
    {
      "midi": 64,
      "hit": false,
      "t": 52994.69999999989,
      "d": 187.48125000000437,
      "v": 77
    },
    {
      "midi": 76,
      "hit": false,
      "t": 52994.69999999989,
      "d": 201.36875000000146,
      "v": 58
    },
    {
      "midi": 74,
      "hit": false,
      "t": 53161.34999999989,
      "d": 124.98750000000291,
      "v": 93
    },
    {
      "midi": 62,
      "hit": false,
      "t": 53161.34999999989,
      "d": 180.53749999999854,
      "v": 100
    },
    {
      "midi": 86,
      "hit": false,
      "t": 53161.34999999989,
      "d": 187.4812499999971,
      "v": 77
    },
    {
      "midi": 74,
      "hit": false,
      "t": 53327.99999999989,
      "d": 34.718749999992724,
      "v": 109
    },
    {
      "midi": 88,
      "hit": false,
      "t": 53327.99999999989,
      "d": 1791.4875000000102,
      "v": 121
    },
    {
      "midi": 57,
      "hit": false,
      "t": 53327.99999999989,
      "d": 1853.9812500000116,
      "v": 86
    },
    {
      "midi": 45,
      "hit": false,
      "t": 53327.99999999989,
      "d": 2430.3125000000146,
      "v": 67
    },
    {
      "midi": 72,
      "hit": false,
      "t": 53661.29999999989,
      "d": 284.69374999999854,
      "v": 76
    },
    {
      "midi": 60,
      "hit": false,
      "t": 53661.29999999989,
      "d": 312.46875,
      "v": 74
    },
    {
      "midi": 64,
      "hit": false,
      "t": 53994.59999999989,
      "d": 354.1312500000058,
      "v": 71
    },
    {
      "midi": 76,
      "hit": false,
      "t": 53994.59999999989,
      "d": 368.0187500000029,
      "v": 79
    },
    {
      "midi": 60,
      "hit": false,
      "t": 54327.89999999989,
      "d": 298.5812500000029,
      "v": 76
    },
    {
      "midi": 72,
      "hit": false,
      "t": 54327.89999999989,
      "d": 298.5812500000029,
      "v": 84
    },
    {
      "midi": 69,
      "hit": false,
      "t": 54661.199999999895,
      "d": 173.59375,
      "v": 109
    },
    {
      "midi": 81,
      "hit": false,
      "t": 54661.199999999895,
      "d": 312.46875,
      "v": 63
    },
    {
      "midi": 64,
      "hit": false,
      "t": 54994.4999999999,
      "d": 333.3000000000029,
      "v": 93
    },
    {
      "midi": 76,
      "hit": false,
      "t": 54994.4999999999,
      "d": 395.79375000000437,
      "v": 77
    },
    {
      "midi": 60,
      "hit": false,
      "t": 55327.7999999999,
      "d": 270.80625000000146,
      "v": 93
    },
    {
      "midi": 72,
      "hit": false,
      "t": 55327.7999999999,
      "d": 270.80625000000146,
      "v": 87
    },
    {
      "midi": 57,
      "hit": false,
      "t": 55661.099999999904,
      "d": 69.4375,
      "v": 72
    },
    {
      "midi": 69,
      "hit": false,
      "t": 55661.099999999904,
      "d": 180.53749999999854,
      "v": 82
    },
    {
      "midi": 64,
      "hit": false,
      "t": 55994.3999999999,
      "d": 555.5,
      "v": 113
    },
    {
      "midi": 76,
      "hit": false,
      "t": 55994.3999999999,
      "d": 624.9375,
      "v": 125
    },
    {
      "midi": 69,
      "hit": false,
      "t": 55994.3999999999,
      "d": 1881.7562500000058,
      "v": 89
    },
    {
      "midi": 57,
      "hit": false,
      "t": 55994.3999999999,
      "d": 2215.0562500000015,
      "v": 57
    },
    {
      "midi": 72,
      "hit": false,
      "t": 56327.6999999999,
      "d": 298.58124999999563,
      "v": 62
    },
    {
      "midi": 74,
      "hit": false,
      "t": 56660.9999999999,
      "d": 291.6374999999971,
      "v": 107
    },
    {
      "midi": 62,
      "hit": false,
      "t": 56660.9999999999,
      "d": 312.46875,
      "v": 63
    },
    {
      "midi": 76,
      "hit": false,
      "t": 56994.2999999999,
      "d": 13.88749999999709,
      "v": 90
    },
    {
      "midi": 64,
      "hit": false,
      "t": 56994.2999999999,
      "d": 291.6374999999971,
      "v": 109
    },
    {
      "midi": 72,
      "hit": false,
      "t": 56994.2999999999,
      "d": 312.46875,
      "v": 86
    },
    {
      "midi": 74,
      "hit": false,
      "t": 57327.599999999904,
      "d": 55.55000000000291,
      "v": 105
    },
    {
      "midi": 76,
      "hit": false,
      "t": 57327.599999999904,
      "d": 62.493750000001455,
      "v": 67
    },
    {
      "midi": 62,
      "hit": false,
      "t": 57327.599999999904,
      "d": 208.3125,
      "v": 92
    },
    {
      "midi": 81,
      "hit": false,
      "t": 57327.599999999904,
      "d": 395.79375000000437,
      "v": 65
    },
    {
      "midi": 76,
      "hit": false,
      "t": 57494.249999999905,
      "d": 76.38124999999854,
      "v": 61
    },
    {
      "midi": 74,
      "hit": false,
      "t": 57494.249999999905,
      "d": 111.09999999999854,
      "v": 76
    },
    {
      "midi": 76,
      "hit": false,
      "t": 57660.89999999991,
      "d": 597.1624999999913,
      "v": 57
    },
    {
      "midi": 60,
      "hit": false,
      "t": 57660.89999999991,
      "d": 617.9937499999869,
      "v": 87
    },
    {
      "midi": 72,
      "hit": false,
      "t": 57994.1999999999,
      "d": 277.7499999999927,
      "v": 73
    },
    {
      "midi": 69,
      "hit": false,
      "t": 58327.49999999989,
      "d": 222.1999999999971,
      "v": 68
    },
    {
      "midi": 62,
      "hit": false,
      "t": 58327.49999999989,
      "d": 277.75,
      "v": 73
    },
    {
      "midi": 74,
      "hit": false,
      "t": 58327.49999999989,
      "d": 277.75,
      "v": 93
    },
    {
      "midi": 72,
      "hit": false,
      "t": 58660.799999999894,
      "d": 69.4375,
      "v": 121
    },
    {
      "midi": 74,
      "hit": false,
      "t": 58660.799999999894,
      "d": 69.4375,
      "v": 58
    },
    {
      "midi": 60,
      "hit": false,
      "t": 58660.799999999894,
      "d": 617.9937500000015,
      "v": 92
    },
    {
      "midi": 74,
      "hit": false,
      "t": 58827.449999999895,
      "d": 90.26875000000291,
      "v": 64
    },
    {
      "midi": 72,
      "hit": false,
      "t": 58994.0999999999,
      "d": 291.6374999999971,
      "v": 77
    },
    {
      "midi": 74,
      "hit": false,
      "t": 59160.7499999999,
      "d": 83.32499999999709,
      "v": 53
    },
    {
      "midi": 76,
      "hit": false,
      "t": 59327.39999999989,
      "d": 402.7375000000029,
      "v": 75
    },
    {
      "midi": 59,
      "hit": false,
      "t": 59327.39999999989,
      "d": 465.23125000000437,
      "v": 82
    },
    {
      "midi": 71,
      "hit": false,
      "t": 59327.39999999989,
      "d": 555.5000000000073,
      "v": 127
    },
    {
      "midi": 72,
      "hit": false,
      "t": 59827.3499999999,
      "d": 55.55000000000291,
      "v": 59
    },
    {
      "midi": 81,
      "hit": false,
      "t": 59993.9999999999,
      "d": 374.96250000000146,
      "v": 65
    },
    {
      "midi": 69,
      "hit": false,
      "t": 59993.9999999999,
      "d": 590.21875,
      "v": 109
    },
    {
      "midi": 57,
      "hit": false,
      "t": 59993.9999999999,
      "d": 1097.1124999999956,
      "v": 96
    },
    {
      "midi": 76,
      "hit": false,
      "t": 60327.2999999999,
      "d": 569.3874999999971,
      "v": 92
    },
    {
      "midi": 72,
      "hit": false,
      "t": 60660.5999999999,
      "d": 284.69374999999854,
      "v": 85
    },
    {
      "midi": 69,
      "hit": false,
      "t": 60993.89999999989,
      "d": 298.5812500000029,
      "v": 80
    },
    {
      "midi": 69,
      "hit": false,
      "t": 61327.199999999895,
      "d": 159.7062500000029,
      "v": 126
    },
    {
      "midi": 57,
      "hit": false,
      "t": 61327.199999999895,
      "d": 243.03125,
      "v": 100
    },
    {
      "midi": 45,
      "hit": false,
      "t": 61327.199999999895,
      "d": 2333.100000000006,
      "v": 86
    },
    {
      "midi": 60,
      "hit": false,
      "t": 61660.4999999999,
      "d": 333.3000000000029,
      "v": 63
    },
    {
      "midi": 72,
      "hit": false,
      "t": 61660.4999999999,
      "d": 333.3000000000029,
      "v": 63
    },
    {
      "midi": 64,
      "hit": false,
      "t": 61993.7999999999,
      "d": 333.3000000000029,
      "v": 61
    },
    {
      "midi": 76,
      "hit": false,
      "t": 61993.7999999999,
      "d": 583.2750000000015,
      "v": 74
    },
    {
      "midi": 72,
      "hit": false,
      "t": 62327.099999999904,
      "d": 298.58124999999563,
      "v": 90
    },
    {
      "midi": 60,
      "hit": false,
      "t": 62327.099999999904,
      "d": 312.4687499999927,
      "v": 60
    },
    {
      "midi": 81,
      "hit": false,
      "t": 62660.3999999999,
      "d": 333.3000000000029,
      "v": 63
    },
    {
      "midi": 69,
      "hit": false,
      "t": 62660.3999999999,
      "d": 361.07500000000437,
      "v": 100
    },
    {
      "midi": 64,
      "hit": false,
      "t": 62993.6999999999,
      "d": 611.0500000000029,
      "v": 57
    },
    {
      "midi": 76,
      "hit": false,
      "t": 62993.6999999999,
      "d": 611.0500000000029,
      "v": 93
    },
    {
      "midi": 72,
      "hit": false,
      "t": 63326.999999999905,
      "d": 291.6374999999971,
      "v": 87
    },
    {
      "midi": 60,
      "hit": false,
      "t": 63326.999999999905,
      "d": 298.58124999999563,
      "v": 71
    },
    {
      "midi": 57,
      "hit": false,
      "t": 63660.2999999999,
      "d": 41.662499999998545,
      "v": 51
    },
    {
      "midi": 69,
      "hit": false,
      "t": 63660.2999999999,
      "d": 263.86249999999563,
      "v": 87
    },
    {
      "midi": 57,
      "hit": false,
      "t": 63993.5999999999,
      "d": 617.9937500000015,
      "v": 109
    },
    {
      "midi": 45,
      "hit": false,
      "t": 63993.5999999999,
      "d": 2374.7625000000044,
      "v": 89
    },
    {
      "midi": 60,
      "hit": false,
      "t": 64326.8999999999,
      "d": 319.41249999999854,
      "v": 57
    },
    {
      "midi": 72,
      "hit": false,
      "t": 64326.8999999999,
      "d": 319.41249999999854,
      "v": 72
    },
    {
      "midi": 76,
      "hit": false,
      "t": 64660.199999999895,
      "d": 368.0187500000029,
      "v": 62
    },
    {
      "midi": 64,
      "hit": false,
      "t": 64660.199999999895,
      "d": 374.96250000000146,
      "v": 53
    },
    {
      "midi": 72,
      "hit": false,
      "t": 64993.4999999999,
      "d": 319.41249999999854,
      "v": 81
    },
    {
      "midi": 60,
      "hit": false,
      "t": 64993.4999999999,
      "d": 326.3562499999971,
      "v": 74
    },
    {
      "midi": 69,
      "hit": false,
      "t": 65326.799999999894,
      "d": 291.63750000000437,
      "v": 99
    },
    {
      "midi": 81,
      "hit": false,
      "t": 65326.799999999894,
      "d": 347.1875000000073,
      "v": 60
    },
    {
      "midi": 64,
      "hit": false,
      "t": 65660.0999999999,
      "d": 604.1062499999971,
      "v": 67
    },
    {
      "midi": 76,
      "hit": false,
      "t": 65660.0999999999,
      "d": 604.1062499999971,
      "v": 68
    },
    {
      "midi": 60,
      "hit": false,
      "t": 65993.3999999999,
      "d": 305.5249999999942,
      "v": 82
    },
    {
      "midi": 72,
      "hit": false,
      "t": 65993.3999999999,
      "d": 305.5249999999942,
      "v": 76
    },
    {
      "midi": 57,
      "hit": false,
      "t": 66326.6999999999,
      "d": 41.66250000000582,
      "v": 53
    },
    {
      "midi": 69,
      "hit": false,
      "t": 66326.6999999999,
      "d": 194.4250000000029,
      "v": 60
    },
    {
      "midi": 57,
      "hit": false,
      "t": 66659.9999999999,
      "d": 430.5124999999971,
      "v": 90
    },
    {
      "midi": 45,
      "hit": false,
      "t": 66659.9999999999,
      "d": 2319.2125000000233,
      "v": 84
    },
    {
      "midi": 60,
      "hit": false,
      "t": 66993.2999999999,
      "d": 312.46875,
      "v": 62
    },
    {
      "midi": 72,
      "hit": false,
      "t": 66993.2999999999,
      "d": 326.3562499999971,
      "v": 68
    },
    {
      "midi": 76,
      "hit": false,
      "t": 67326.5999999999,
      "d": 347.1875,
      "v": 73
    },
    {
      "midi": 64,
      "hit": false,
      "t": 67326.5999999999,
      "d": 368.0187500000029,
      "v": 59
    },
    {
      "midi": 60,
      "hit": false,
      "t": 67659.8999999999,
      "d": 319.4125000000058,
      "v": 73
    },
    {
      "midi": 72,
      "hit": false,
      "t": 67659.8999999999,
      "d": 319.4125000000058,
      "v": 77
    },
    {
      "midi": 69,
      "hit": false,
      "t": 67993.19999999991,
      "d": 277.75,
      "v": 99
    },
    {
      "midi": 81,
      "hit": false,
      "t": 67993.19999999991,
      "d": 319.4125000000058,
      "v": 63
    },
    {
      "midi": 64,
      "hit": false,
      "t": 68326.49999999991,
      "d": 631.8812500000058,
      "v": 77
    },
    {
      "midi": 76,
      "hit": false,
      "t": 68326.49999999991,
      "d": 652.7125000000087,
      "v": 79
    },
    {
      "midi": 60,
      "hit": false,
      "t": 68659.79999999992,
      "d": 298.5812500000029,
      "v": 79
    },
    {
      "midi": 72,
      "hit": false,
      "t": 68659.79999999992,
      "d": 312.46875,
      "v": 85
    },
    {
      "midi": 57,
      "hit": false,
      "t": 68993.09999999992,
      "d": 27.77499999999418,
      "v": 76
    },
    {
      "midi": 69,
      "hit": false,
      "t": 68993.09999999992,
      "d": 145.81874999999127,
      "v": 93
    },
    {
      "midi": 50,
      "hit": false,
      "t": 69326.3999999999,
      "d": 1812.3187500000204,
      "v": 100
    },
    {
      "midi": 38,
      "hit": false,
      "t": 69326.3999999999,
      "d": 2270.6062500000116,
      "v": 60
    },
    {
      "midi": 65,
      "hit": false,
      "t": 69659.69999999991,
      "d": 319.4125000000058,
      "v": 73
    },
    {
      "midi": 53,
      "hit": false,
      "t": 69659.69999999991,
      "d": 326.35625000001164,
      "v": 86
    },
    {
      "midi": 57,
      "hit": false,
      "t": 69992.99999999993,
      "d": 368.0187500000029,
      "v": 58
    },
    {
      "midi": 69,
      "hit": false,
      "t": 69992.99999999993,
      "d": 381.90625,
      "v": 69
    },
    {
      "midi": 65,
      "hit": false,
      "t": 70326.29999999993,
      "d": 312.46875,
      "v": 85
    },
    {
      "midi": 53,
      "hit": false,
      "t": 70326.29999999993,
      "d": 326.3562499999971,
      "v": 90
    },
    {
      "midi": 62,
      "hit": false,
      "t": 70659.59999999993,
      "d": 270.8062499999942,
      "v": 109
    },
    {
      "midi": 74,
      "hit": false,
      "t": 70659.59999999993,
      "d": 340.2437499999942,
      "v": 72
    },
    {
      "midi": 69,
      "hit": false,
      "t": 70992.89999999992,
      "d": 590.21875,
      "v": 84
    },
    {
      "midi": 57,
      "hit": false,
      "t": 70992.89999999992,
      "d": 611.0500000000029,
      "v": 72
    },
    {
      "midi": 65,
      "hit": false,
      "t": 71326.19999999992,
      "d": 305.5249999999942,
      "v": 81
    },
    {
      "midi": 53,
      "hit": false,
      "t": 71326.19999999992,
      "d": 312.46875,
      "v": 93
    },
    {
      "midi": 50,
      "hit": false,
      "t": 71659.49999999993,
      "d": 145.81875000000582,
      "v": 61
    },
    {
      "midi": 62,
      "hit": false,
      "t": 71659.49999999993,
      "d": 145.81875000000582,
      "v": 65
    },
    {
      "midi": 52,
      "hit": false,
      "t": 71992.79999999993,
      "d": 1354.03125,
      "v": 98
    },
    {
      "midi": 40,
      "hit": false,
      "t": 71992.79999999993,
      "d": 2409.481249999997,
      "v": 109
    },
    {
      "midi": 56,
      "hit": false,
      "t": 72326.09999999993,
      "d": 305.5249999999942,
      "v": 78
    },
    {
      "midi": 68,
      "hit": false,
      "t": 72326.09999999993,
      "d": 312.46875,
      "v": 92
    },
    {
      "midi": 59,
      "hit": false,
      "t": 72659.39999999994,
      "d": 361.0749999999971,
      "v": 76
    },
    {
      "midi": 71,
      "hit": false,
      "t": 72659.39999999994,
      "d": 374.9624999999942,
      "v": 82
    },
    {
      "midi": 68,
      "hit": false,
      "t": 72992.69999999994,
      "d": 312.46874999998545,
      "v": 70
    },
    {
      "midi": 56,
      "hit": false,
      "t": 72992.69999999994,
      "d": 347.18749999998545,
      "v": 84
    },
    {
      "midi": 76,
      "hit": false,
      "t": 73325.99999999993,
      "d": 305.52500000000873,
      "v": 44
    },
    {
      "midi": 64,
      "hit": false,
      "t": 73325.99999999993,
      "d": 347.1875,
      "v": 113
    },
    {
      "midi": 59,
      "hit": false,
      "t": 73659.29999999993,
      "d": 354.1312500000058,
      "v": 95
    },
    {
      "midi": 71,
      "hit": false,
      "t": 73659.29999999993,
      "d": 451.34375,
      "v": 87
    },
    {
      "midi": 56,
      "hit": false,
      "t": 73992.59999999993,
      "d": 284.69374999999127,
      "v": 90
    },
    {
      "midi": 68,
      "hit": false,
      "t": 73992.59999999993,
      "d": 284.69374999999127,
      "v": 96
    },
    {
      "midi": 52,
      "hit": false,
      "t": 74325.89999999992,
      "d": 76.38125000000582,
      "v": 81
    },
    {
      "midi": 64,
      "hit": false,
      "t": 74325.89999999992,
      "d": 208.3125,
      "v": 84
    },
    {
      "midi": 52,
      "hit": false,
      "t": 74659.19999999992,
      "d": 631.8812500000058,
      "v": 90
    },
    {
      "midi": 40,
      "hit": false,
      "t": 74659.19999999992,
      "d": 2298.3812500000204,
      "v": 76
    },
    {
      "midi": 68,
      "hit": false,
      "t": 74992.49999999993,
      "d": 291.6374999999971,
      "v": 94
    },
    {
      "midi": 56,
      "hit": false,
      "t": 74992.49999999993,
      "d": 319.4125000000058,
      "v": 81
    },
    {
      "midi": 59,
      "hit": false,
      "t": 75325.79999999993,
      "d": 340.24375000000873,
      "v": 84
    },
    {
      "midi": 71,
      "hit": false,
      "t": 75325.79999999993,
      "d": 340.24375000000873,
      "v": 85
    },
    {
      "midi": 56,
      "hit": false,
      "t": 75659.09999999993,
      "d": 319.4125000000058,
      "v": 86
    },
    {
      "midi": 68,
      "hit": false,
      "t": 75659.09999999993,
      "d": 319.4125000000058,
      "v": 88
    },
    {
      "midi": 64,
      "hit": false,
      "t": 75992.39999999994,
      "d": 270.8062499999942,
      "v": 99
    },
    {
      "midi": 76,
      "hit": false,
      "t": 75992.39999999994,
      "d": 312.46875,
      "v": 71
    },
    {
      "midi": 59,
      "hit": false,
      "t": 76325.69999999994,
      "d": 368.0187500000029,
      "v": 96
    },
    {
      "midi": 71,
      "hit": false,
      "t": 76325.69999999994,
      "d": 590.21875,
      "v": 89
    },
    {
      "midi": 56,
      "hit": false,
      "t": 76658.99999999994,
      "d": 256.9187499999971,
      "v": 100
    },
    {
      "midi": 68,
      "hit": false,
      "t": 76658.99999999994,
      "d": 263.8625000000029,
      "v": 102
    },
    {
      "midi": 52,
      "hit": false,
      "t": 76992.29999999994,
      "d": 173.59375,
      "v": 87
    },
    {
      "midi": 64,
      "hit": false,
      "t": 76992.29999999994,
      "d": 173.59375,
      "v": 96
    },
    {
      "midi": 50,
      "hit": false,
      "t": 77325.59999999995,
      "d": 979.0687500000204,
      "v": 100
    },
    {
      "midi": 38,
      "hit": false,
      "t": 77325.59999999995,
      "d": 1062.3937500000175,
      "v": 59
    },
    {
      "midi": 62,
      "hit": false,
      "t": 77325.59999999995,
      "d": 1117.9437500000204,
      "v": 89
    },
    {
      "midi": 65,
      "hit": false,
      "t": 77658.89999999995,
      "d": 340.24375000000873,
      "v": 81
    },
    {
      "midi": 53,
      "hit": false,
      "t": 77658.89999999995,
      "d": 361.07500000001164,
      "v": 72
    },
    {
      "midi": 57,
      "hit": false,
      "t": 77992.19999999995,
      "d": 381.90625000001455,
      "v": 72
    },
    {
      "midi": 69,
      "hit": false,
      "t": 77992.19999999995,
      "d": 381.90625000001455,
      "v": 79
    },
    {
      "midi": 65,
      "hit": false,
      "t": 78325.49999999997,
      "d": 194.4250000000029,
      "v": 96
    },
    {
      "midi": 53,
      "hit": false,
      "t": 78325.49999999997,
      "d": 215.25625000000582,
      "v": 90
    },
    {
      "midi": 52,
      "hit": false,
      "t": 78658.79999999997,
      "d": 999.9000000000087,
      "v": 111
    },
    {
      "midi": 64,
      "hit": false,
      "t": 78658.79999999997,
      "d": 999.9000000000087,
      "v": 109
    },
    {
      "midi": 40,
      "hit": false,
      "t": 78658.79999999997,
      "d": 1020.7312500000116,
      "v": 73
    },
    {
      "midi": 56,
      "hit": false,
      "t": 78992.09999999998,
      "d": 493.0062500000058,
      "v": 72
    },
    {
      "midi": 68,
      "hit": false,
      "t": 78992.09999999998,
      "d": 652.7125000000087,
      "v": 73
    },
    {
      "midi": 59,
      "hit": false,
      "t": 79325.39999999998,
      "d": 347.1875,
      "v": 89
    },
    {
      "midi": 71,
      "hit": false,
      "t": 79325.39999999998,
      "d": 347.1875,
      "v": 80
    },
    {
      "midi": 64,
      "hit": false,
      "t": 79658.69999999998,
      "d": 222.1999999999971,
      "v": 77
    },
    {
      "midi": 76,
      "hit": false,
      "t": 79658.69999999998,
      "d": 236.08749999999418,
      "v": 58
    },
    {
      "midi": 57,
      "hit": false,
      "t": 79991.99999999997,
      "d": 368.0187500000029,
      "v": 111
    },
    {
      "midi": 45,
      "hit": false,
      "t": 79991.99999999997,
      "d": 2312.268750000003,
      "v": 86
    },
    {
      "midi": 60,
      "hit": false,
      "t": 80325.29999999997,
      "d": 333.3000000000029,
      "v": 63
    },
    {
      "midi": 72,
      "hit": false,
      "t": 80325.29999999997,
      "d": 333.3000000000029,
      "v": 63
    },
    {
      "midi": 64,
      "hit": false,
      "t": 80658.59999999998,
      "d": 333.3000000000029,
      "v": 61
    },
    {
      "midi": 76,
      "hit": false,
      "t": 80658.59999999998,
      "d": 590.21875,
      "v": 74
    },
    {
      "midi": 72,
      "hit": false,
      "t": 80991.89999999998,
      "d": 305.5249999999942,
      "v": 90
    },
    {
      "midi": 60,
      "hit": false,
      "t": 80991.89999999998,
      "d": 319.41249999999127,
      "v": 60
    },
    {
      "midi": 69,
      "hit": false,
      "t": 81325.19999999997,
      "d": 277.75,
      "v": 100
    },
    {
      "midi": 81,
      "hit": false,
      "t": 81325.19999999997,
      "d": 333.3000000000029,
      "v": 63
    },
    {
      "midi": 64,
      "hit": false,
      "t": 81658.49999999997,
      "d": 576.3312500000029,
      "v": 57
    },
    {
      "midi": 76,
      "hit": false,
      "t": 81658.49999999997,
      "d": 576.3312500000029,
      "v": 93
    },
    {
      "midi": 72,
      "hit": false,
      "t": 81991.79999999997,
      "d": 270.8062499999942,
      "v": 87
    },
    {
      "midi": 60,
      "hit": false,
      "t": 81991.79999999997,
      "d": 277.75,
      "v": 71
    },
    {
      "midi": 57,
      "hit": false,
      "t": 82325.09999999998,
      "d": 13.88749999999709,
      "v": 51
    },
    {
      "midi": 69,
      "hit": false,
      "t": 82325.09999999998,
      "d": 229.1437500000029,
      "v": 87
    },
    {
      "midi": 57,
      "hit": false,
      "t": 82658.39999999998,
      "d": 368.0187500000029,
      "v": 111
    },
    {
      "midi": 45,
      "hit": false,
      "t": 82658.39999999998,
      "d": 2346.9874999999884,
      "v": 86
    },
    {
      "midi": 60,
      "hit": false,
      "t": 82991.69999999998,
      "d": 326.3562499999971,
      "v": 63
    },
    {
      "midi": 72,
      "hit": false,
      "t": 82991.69999999998,
      "d": 326.3562499999971,
      "v": 63
    },
    {
      "midi": 64,
      "hit": false,
      "t": 83324.99999999999,
      "d": 333.3000000000029,
      "v": 61
    },
    {
      "midi": 76,
      "hit": false,
      "t": 83324.99999999999,
      "d": 590.21875,
      "v": 74
    },
    {
      "midi": 72,
      "hit": false,
      "t": 83658.29999999999,
      "d": 305.5249999999942,
      "v": 90
    },
    {
      "midi": 60,
      "hit": false,
      "t": 83658.29999999999,
      "d": 319.41249999999127,
      "v": 60
    },
    {
      "midi": 69,
      "hit": false,
      "t": 83991.59999999998,
      "d": 270.8062499999942,
      "v": 100
    },
    {
      "midi": 81,
      "hit": false,
      "t": 83991.59999999998,
      "d": 333.29999999998836,
      "v": 63
    },
    {
      "midi": 64,
      "hit": false,
      "t": 84324.89999999997,
      "d": 611.0500000000029,
      "v": 57
    },
    {
      "midi": 76,
      "hit": false,
      "t": 84324.89999999997,
      "d": 611.0500000000029,
      "v": 93
    },
    {
      "midi": 72,
      "hit": false,
      "t": 84658.19999999997,
      "d": 291.6374999999971,
      "v": 87
    },
    {
      "midi": 60,
      "hit": false,
      "t": 84658.19999999997,
      "d": 298.5812500000029,
      "v": 71
    },
    {
      "midi": 57,
      "hit": false,
      "t": 84991.49999999997,
      "d": 55.55000000000291,
      "v": 51
    },
    {
      "midi": 69,
      "hit": false,
      "t": 84991.49999999997,
      "d": 263.8625000000029,
      "v": 87
    },
    {
      "midi": 57,
      "hit": false,
      "t": 85324.79999999997,
      "d": 617.9937500000087,
      "v": 109
    },
    {
      "midi": 45,
      "hit": false,
      "t": 85324.79999999997,
      "d": 2360.8750000000437,
      "v": 89
    },
    {
      "midi": 60,
      "hit": false,
      "t": 85658.09999999998,
      "d": 319.4125000000058,
      "v": 57
    },
    {
      "midi": 72,
      "hit": false,
      "t": 85658.09999999998,
      "d": 319.4125000000058,
      "v": 72
    },
    {
      "midi": 76,
      "hit": false,
      "t": 85991.39999999998,
      "d": 368.0187500000029,
      "v": 62
    },
    {
      "midi": 64,
      "hit": false,
      "t": 85991.39999999998,
      "d": 374.96250000000873,
      "v": 53
    },
    {
      "midi": 72,
      "hit": false,
      "t": 86324.69999999998,
      "d": 319.4125000000058,
      "v": 81
    },
    {
      "midi": 60,
      "hit": false,
      "t": 86324.69999999998,
      "d": 326.35625000001164,
      "v": 74
    },
    {
      "midi": 69,
      "hit": false,
      "t": 86658,
      "d": 291.6374999999971,
      "v": 99
    },
    {
      "midi": 81,
      "hit": false,
      "t": 86658,
      "d": 347.1875,
      "v": 60
    },
    {
      "midi": 64,
      "hit": false,
      "t": 86991.3,
      "d": 611.0500000000029,
      "v": 67
    },
    {
      "midi": 76,
      "hit": false,
      "t": 86991.3,
      "d": 611.0500000000029,
      "v": 68
    },
    {
      "midi": 60,
      "hit": false,
      "t": 87324.6,
      "d": 312.46875,
      "v": 82
    },
    {
      "midi": 72,
      "hit": false,
      "t": 87324.6,
      "d": 312.46875,
      "v": 76
    },
    {
      "midi": 57,
      "hit": false,
      "t": 87657.90000000001,
      "d": 20.83125000000291,
      "v": 53
    },
    {
      "midi": 69,
      "hit": false,
      "t": 87657.90000000001,
      "d": 166.65000000000873,
      "v": 60
    },
    {
      "midi": 57,
      "hit": false,
      "t": 87991.20000000001,
      "d": 416.625,
      "v": 90
    },
    {
      "midi": 45,
      "hit": false,
      "t": 87991.20000000001,
      "d": 2326.156250000029,
      "v": 84
    },
    {
      "midi": 60,
      "hit": false,
      "t": 88324.50000000001,
      "d": 312.46875,
      "v": 62
    },
    {
      "midi": 72,
      "hit": false,
      "t": 88324.50000000001,
      "d": 326.3562499999971,
      "v": 68
    },
    {
      "midi": 76,
      "hit": false,
      "t": 88657.80000000002,
      "d": 347.1875,
      "v": 73
    },
    {
      "midi": 64,
      "hit": false,
      "t": 88657.80000000002,
      "d": 368.0187500000029,
      "v": 59
    },
    {
      "midi": 60,
      "hit": false,
      "t": 88991.10000000002,
      "d": 319.4125000000058,
      "v": 73
    },
    {
      "midi": 72,
      "hit": false,
      "t": 88991.10000000002,
      "d": 319.4125000000058,
      "v": 77
    },
    {
      "midi": 69,
      "hit": false,
      "t": 89324.40000000002,
      "d": 277.75,
      "v": 99
    },
    {
      "midi": 81,
      "hit": false,
      "t": 89324.40000000002,
      "d": 319.4125000000058,
      "v": 63
    },
    {
      "midi": 64,
      "hit": false,
      "t": 89657.70000000003,
      "d": 631.8812500000058,
      "v": 77
    },
    {
      "midi": 76,
      "hit": false,
      "t": 89657.70000000003,
      "d": 652.7125000000087,
      "v": 79
    },
    {
      "midi": 60,
      "hit": false,
      "t": 89991.00000000003,
      "d": 298.5812500000029,
      "v": 79
    },
    {
      "midi": 72,
      "hit": false,
      "t": 89991.00000000003,
      "d": 312.46875,
      "v": 85
    },
    {
      "midi": 57,
      "hit": false,
      "t": 90324.30000000005,
      "d": 34.71875,
      "v": 76
    },
    {
      "midi": 69,
      "hit": false,
      "t": 90324.30000000005,
      "d": 152.7624999999971,
      "v": 93
    },
    {
      "midi": 50,
      "hit": false,
      "t": 90657.60000000005,
      "d": 1812.3187500000204,
      "v": 100
    },
    {
      "midi": 38,
      "hit": false,
      "t": 90657.60000000005,
      "d": 2270.6062500000116,
      "v": 60
    },
    {
      "midi": 65,
      "hit": false,
      "t": 90990.90000000005,
      "d": 319.4125000000058,
      "v": 73
    },
    {
      "midi": 53,
      "hit": false,
      "t": 90990.90000000005,
      "d": 326.35625000001164,
      "v": 86
    },
    {
      "midi": 57,
      "hit": false,
      "t": 91324.20000000007,
      "d": 368.0187500000029,
      "v": 58
    },
    {
      "midi": 69,
      "hit": false,
      "t": 91324.20000000007,
      "d": 381.90625,
      "v": 69
    },
    {
      "midi": 65,
      "hit": false,
      "t": 91657.50000000007,
      "d": 312.46875,
      "v": 85
    },
    {
      "midi": 53,
      "hit": false,
      "t": 91657.50000000007,
      "d": 326.3562499999971,
      "v": 90
    },
    {
      "midi": 62,
      "hit": false,
      "t": 91990.80000000008,
      "d": 270.8062499999942,
      "v": 109
    },
    {
      "midi": 74,
      "hit": false,
      "t": 91990.80000000008,
      "d": 340.2437499999942,
      "v": 72
    },
    {
      "midi": 69,
      "hit": false,
      "t": 92324.10000000006,
      "d": 590.21875,
      "v": 84
    },
    {
      "midi": 57,
      "hit": false,
      "t": 92324.10000000006,
      "d": 611.0500000000029,
      "v": 72
    },
    {
      "midi": 65,
      "hit": false,
      "t": 92657.40000000007,
      "d": 305.5249999999942,
      "v": 81
    },
    {
      "midi": 53,
      "hit": false,
      "t": 92657.40000000007,
      "d": 312.46875,
      "v": 93
    },
    {
      "midi": 50,
      "hit": false,
      "t": 92990.70000000007,
      "d": 138.875,
      "v": 61
    },
    {
      "midi": 62,
      "hit": false,
      "t": 92990.70000000007,
      "d": 138.875,
      "v": 65
    },
    {
      "midi": 52,
      "hit": false,
      "t": 93324.00000000007,
      "d": 1354.03125,
      "v": 98
    },
    {
      "midi": 40,
      "hit": false,
      "t": 93324.00000000007,
      "d": 2409.481249999997,
      "v": 109
    },
    {
      "midi": 56,
      "hit": false,
      "t": 93657.30000000008,
      "d": 305.5249999999942,
      "v": 78
    },
    {
      "midi": 68,
      "hit": false,
      "t": 93657.30000000008,
      "d": 312.46875,
      "v": 92
    },
    {
      "midi": 59,
      "hit": false,
      "t": 93990.60000000008,
      "d": 361.0749999999971,
      "v": 76
    },
    {
      "midi": 71,
      "hit": false,
      "t": 93990.60000000008,
      "d": 374.9624999999942,
      "v": 82
    },
    {
      "midi": 68,
      "hit": false,
      "t": 94323.90000000008,
      "d": 312.46874999998545,
      "v": 70
    },
    {
      "midi": 56,
      "hit": false,
      "t": 94323.90000000008,
      "d": 347.18749999998545,
      "v": 84
    },
    {
      "midi": 76,
      "hit": false,
      "t": 94657.20000000007,
      "d": 305.52500000000873,
      "v": 44
    },
    {
      "midi": 64,
      "hit": false,
      "t": 94657.20000000007,
      "d": 347.1875,
      "v": 113
    },
    {
      "midi": 59,
      "hit": false,
      "t": 94990.50000000007,
      "d": 354.1312500000058,
      "v": 95
    },
    {
      "midi": 71,
      "hit": false,
      "t": 94990.50000000007,
      "d": 451.34375,
      "v": 87
    },
    {
      "midi": 56,
      "hit": false,
      "t": 95323.80000000008,
      "d": 284.69374999999127,
      "v": 90
    },
    {
      "midi": 68,
      "hit": false,
      "t": 95323.80000000008,
      "d": 284.69374999999127,
      "v": 96
    },
    {
      "midi": 52,
      "hit": false,
      "t": 95657.10000000006,
      "d": 76.38125000000582,
      "v": 81
    },
    {
      "midi": 64,
      "hit": false,
      "t": 95657.10000000006,
      "d": 208.3125,
      "v": 84
    },
    {
      "midi": 52,
      "hit": false,
      "t": 95990.40000000007,
      "d": 631.8812500000058,
      "v": 90
    },
    {
      "midi": 40,
      "hit": false,
      "t": 95990.40000000007,
      "d": 2305.325000000026,
      "v": 76
    },
    {
      "midi": 68,
      "hit": false,
      "t": 96323.70000000007,
      "d": 291.6374999999971,
      "v": 94
    },
    {
      "midi": 56,
      "hit": false,
      "t": 96323.70000000007,
      "d": 319.4125000000058,
      "v": 81
    },
    {
      "midi": 59,
      "hit": false,
      "t": 96657.00000000007,
      "d": 340.24375000000873,
      "v": 84
    },
    {
      "midi": 71,
      "hit": false,
      "t": 96657.00000000007,
      "d": 340.24375000000873,
      "v": 85
    },
    {
      "midi": 56,
      "hit": false,
      "t": 96990.30000000008,
      "d": 319.4125000000058,
      "v": 86
    },
    {
      "midi": 68,
      "hit": false,
      "t": 96990.30000000008,
      "d": 319.4125000000058,
      "v": 88
    },
    {
      "midi": 64,
      "hit": false,
      "t": 97323.60000000008,
      "d": 270.8062499999942,
      "v": 99
    },
    {
      "midi": 76,
      "hit": false,
      "t": 97323.60000000008,
      "d": 312.46875,
      "v": 71
    },
    {
      "midi": 59,
      "hit": false,
      "t": 97656.90000000008,
      "d": 368.0187500000029,
      "v": 96
    },
    {
      "midi": 71,
      "hit": false,
      "t": 97656.90000000008,
      "d": 590.21875,
      "v": 89
    },
    {
      "midi": 56,
      "hit": false,
      "t": 97990.20000000008,
      "d": 256.9187499999971,
      "v": 100
    },
    {
      "midi": 68,
      "hit": false,
      "t": 97990.20000000008,
      "d": 263.8625000000029,
      "v": 102
    },
    {
      "midi": 52,
      "hit": false,
      "t": 98323.50000000009,
      "d": 173.59375,
      "v": 87
    },
    {
      "midi": 64,
      "hit": false,
      "t": 98323.50000000009,
      "d": 173.59375,
      "v": 96
    },
    {
      "midi": 50,
      "hit": false,
      "t": 98656.80000000009,
      "d": 986.0125000000116,
      "v": 100
    },
    {
      "midi": 38,
      "hit": false,
      "t": 98656.80000000009,
      "d": 1062.393750000003,
      "v": 59
    },
    {
      "midi": 62,
      "hit": false,
      "t": 98656.80000000009,
      "d": 1117.9437500000058,
      "v": 89
    },
    {
      "midi": 65,
      "hit": false,
      "t": 98990.1000000001,
      "d": 340.24375000000873,
      "v": 81
    },
    {
      "midi": 53,
      "hit": false,
      "t": 98990.1000000001,
      "d": 361.07500000001164,
      "v": 72
    },
    {
      "midi": 57,
      "hit": false,
      "t": 99323.4000000001,
      "d": 381.90625,
      "v": 72
    },
    {
      "midi": 69,
      "hit": false,
      "t": 99323.4000000001,
      "d": 381.90625,
      "v": 79
    },
    {
      "midi": 65,
      "hit": false,
      "t": 99656.7000000001,
      "d": 187.4812499999971,
      "v": 96
    },
    {
      "midi": 53,
      "hit": false,
      "t": 99656.7000000001,
      "d": 215.25624999999127,
      "v": 90
    },
    {
      "midi": 52,
      "hit": false,
      "t": 99990.00000000009,
      "d": 999.9000000000087,
      "v": 111
    },
    {
      "midi": 64,
      "hit": false,
      "t": 99990.00000000009,
      "d": 999.9000000000087,
      "v": 109
    },
    {
      "midi": 40,
      "hit": false,
      "t": 99990.00000000009,
      "d": 1020.7312500000116,
      "v": 73
    },
    {
      "midi": 56,
      "hit": false,
      "t": 100323.30000000009,
      "d": 493.0062500000058,
      "v": 72
    },
    {
      "midi": 68,
      "hit": false,
      "t": 100323.30000000009,
      "d": 652.7125000000087,
      "v": 73
    },
    {
      "midi": 59,
      "hit": false,
      "t": 100656.6000000001,
      "d": 347.1875,
      "v": 89
    },
    {
      "midi": 71,
      "hit": false,
      "t": 100656.6000000001,
      "d": 347.1875,
      "v": 80
    },
    {
      "midi": 64,
      "hit": false,
      "t": 100989.9000000001,
      "d": 243.03125,
      "v": 77
    },
    {
      "midi": 76,
      "hit": false,
      "t": 100989.9000000001,
      "d": 256.9187499999971,
      "v": 58
    },
    {
      "midi": 57,
      "hit": false,
      "t": 101323.2000000001,
      "d": 361.0749999999971,
      "v": 111
    },
    {
      "midi": 45,
      "hit": false,
      "t": 101323.2000000001,
      "d": 2305.324999999997,
      "v": 86
    },
    {
      "midi": 60,
      "hit": false,
      "t": 101656.5000000001,
      "d": 333.29999999998836,
      "v": 63
    },
    {
      "midi": 72,
      "hit": false,
      "t": 101656.5000000001,
      "d": 333.29999999998836,
      "v": 63
    },
    {
      "midi": 64,
      "hit": false,
      "t": 101989.80000000009,
      "d": 333.3000000000029,
      "v": 61
    },
    {
      "midi": 76,
      "hit": false,
      "t": 101989.80000000009,
      "d": 590.21875,
      "v": 74
    },
    {
      "midi": 72,
      "hit": false,
      "t": 102323.1000000001,
      "d": 305.5249999999942,
      "v": 90
    },
    {
      "midi": 60,
      "hit": false,
      "t": 102323.1000000001,
      "d": 319.41249999999127,
      "v": 60
    },
    {
      "midi": 69,
      "hit": false,
      "t": 102656.40000000008,
      "d": 263.8625000000029,
      "v": 100
    },
    {
      "midi": 81,
      "hit": false,
      "t": 102656.40000000008,
      "d": 333.3000000000029,
      "v": 63
    },
    {
      "midi": 64,
      "hit": false,
      "t": 102989.70000000008,
      "d": 576.3312500000029,
      "v": 57
    },
    {
      "midi": 76,
      "hit": false,
      "t": 102989.70000000008,
      "d": 576.3312500000029,
      "v": 93
    },
    {
      "midi": 72,
      "hit": false,
      "t": 103323.00000000009,
      "d": 284.6937500000058,
      "v": 87
    },
    {
      "midi": 60,
      "hit": false,
      "t": 103323.00000000009,
      "d": 291.63750000001164,
      "v": 71
    },
    {
      "midi": 57,
      "hit": false,
      "t": 103656.30000000009,
      "d": 6.943750000005821,
      "v": 51
    },
    {
      "midi": 69,
      "hit": false,
      "t": 103656.30000000009,
      "d": 249.97500000000582,
      "v": 87
    },
    {
      "midi": 50,
      "hit": false,
      "t": 103989.6000000001,
      "d": 958.2375000000175,
      "v": 100
    },
    {
      "midi": 38,
      "hit": false,
      "t": 103989.6000000001,
      "d": 1034.6187500000233,
      "v": 59
    },
    {
      "midi": 62,
      "hit": false,
      "t": 103989.6000000001,
      "d": 1090.1687500000262,
      "v": 89
    },
    {
      "midi": 65,
      "hit": false,
      "t": 104322.9000000001,
      "d": 319.4125000000058,
      "v": 81
    },
    {
      "midi": 53,
      "hit": false,
      "t": 104322.9000000001,
      "d": 340.24375000000873,
      "v": 72
    },
    {
      "midi": 57,
      "hit": false,
      "t": 104656.2000000001,
      "d": 374.9625000000233,
      "v": 72
    },
    {
      "midi": 69,
      "hit": false,
      "t": 104656.2000000001,
      "d": 374.9625000000233,
      "v": 79
    },
    {
      "midi": 65,
      "hit": false,
      "t": 104989.50000000012,
      "d": 187.4812499999971,
      "v": 96
    },
    {
      "midi": 53,
      "hit": false,
      "t": 104989.50000000012,
      "d": 215.25624999999127,
      "v": 90
    },
    {
      "midi": 52,
      "hit": false,
      "t": 105322.8000000001,
      "d": 937.40625,
      "v": 111
    },
    {
      "midi": 64,
      "hit": false,
      "t": 105322.8000000001,
      "d": 937.40625,
      "v": 109
    },
    {
      "midi": 40,
      "hit": false,
      "t": 105322.8000000001,
      "d": 958.2375000000029,
      "v": 73
    },
    {
      "midi": 56,
      "hit": false,
      "t": 105656.10000000011,
      "d": 465.2312499999971,
      "v": 72
    },
    {
      "midi": 68,
      "hit": false,
      "t": 105656.10000000011,
      "d": 624.9375,
      "v": 73
    },
    {
      "midi": 59,
      "hit": false,
      "t": 105989.40000000011,
      "d": 333.3000000000029,
      "v": 89
    },
    {
      "midi": 71,
      "hit": false,
      "t": 105989.40000000011,
      "d": 333.3000000000029,
      "v": 80
    },
    {
      "midi": 64,
      "hit": false,
      "t": 106322.70000000011,
      "d": 236.08749999999418,
      "v": 77
    },
    {
      "midi": 76,
      "hit": false,
      "t": 106322.70000000011,
      "d": 249.97499999999127,
      "v": 58
    },
    {
      "midi": 57,
      "hit": false,
      "t": 106656.0000000001,
      "d": 354.1312500000058,
      "v": 111
    },
    {
      "midi": 45,
      "hit": false,
      "t": 106656.0000000001,
      "d": 2201.1687500000116,
      "v": 86
    },
    {
      "midi": 60,
      "hit": false,
      "t": 106989.3000000001,
      "d": 312.46875,
      "v": 63
    },
    {
      "midi": 72,
      "hit": false,
      "t": 106989.3000000001,
      "d": 312.46875,
      "v": 63
    },
    {
      "midi": 64,
      "hit": false,
      "t": 107322.60000000011,
      "d": 319.4125000000058,
      "v": 61
    },
    {
      "midi": 76,
      "hit": false,
      "t": 107322.60000000011,
      "d": 569.3874999999971,
      "v": 74
    },
    {
      "midi": 72,
      "hit": false,
      "t": 107655.90000000011,
      "d": 291.6374999999971,
      "v": 90
    },
    {
      "midi": 60,
      "hit": false,
      "t": 107655.90000000011,
      "d": 298.5812500000029,
      "v": 60
    },
    {
      "midi": 69,
      "hit": false,
      "t": 107989.20000000011,
      "d": 194.4250000000029,
      "v": 100
    },
    {
      "midi": 81,
      "hit": false,
      "t": 107989.20000000011,
      "d": 298.5812500000029,
      "v": 63
    },
    {
      "midi": 64,
      "hit": false,
      "t": 108322.50000000012,
      "d": 562.4437499999913,
      "v": 57
    },
    {
      "midi": 76,
      "hit": false,
      "t": 108322.50000000012,
      "d": 562.4437499999913,
      "v": 93
    },
    {
      "midi": 72,
      "hit": false,
      "t": 108655.80000000012,
      "d": 256.91874999998254,
      "v": 87
    },
    {
      "midi": 60,
      "hit": false,
      "t": 108655.80000000012,
      "d": 263.86249999998836,
      "v": 71
    },
    {
      "midi": 57,
      "hit": false,
      "t": 108989.10000000011,
      "d": 180.53750000000582,
      "v": 51
    },
    {
      "midi": 69,
      "hit": false,
      "t": 108989.10000000011,
      "d": 243.03125,
      "v": 87
    },
    {
      "midi": 69,
      "hit": false,
      "t": 109322.40000000011,
      "d": 1819.262499999997,
      "v": 99
    },
    {
      "midi": 57,
      "hit": false,
      "t": 109322.40000000011,
      "d": 2263.662500000006,
      "v": 99
    },
    {
      "midi": 72,
      "hit": false,
      "t": 109655.70000000011,
      "d": 333.3000000000029,
      "v": 82
    },
    {
      "midi": 76,
      "hit": false,
      "t": 109989.00000000012,
      "d": 381.90625,
      "v": 76
    },
    {
      "midi": 72,
      "hit": false,
      "t": 110322.30000000012,
      "d": 284.69374999999127,
      "v": 98
    },
    {
      "midi": 81,
      "hit": false,
      "t": 110655.60000000011,
      "d": 319.4125000000058,
      "v": 59
    },
    {
      "midi": 76,
      "hit": false,
      "t": 110988.90000000011,
      "d": 624.9375000000146,
      "v": 105
    },
    {
      "midi": 72,
      "hit": false,
      "t": 111322.20000000011,
      "d": 284.6937500000058,
      "v": 103
    },
    {
      "midi": 69,
      "hit": false,
      "t": 111655.50000000013,
      "d": 111.10000000000582,
      "v": 107
    },
    {
      "midi": 62,
      "hit": false,
      "t": 111988.80000000013,
      "d": 1798.4312500000087,
      "v": 111
    },
    {
      "midi": 50,
      "hit": false,
      "t": 111988.80000000013,
      "d": 2249.7750000000087,
      "v": 57
    },
    {
      "midi": 65,
      "hit": false,
      "t": 112322.10000000014,
      "d": 340.24375000000873,
      "v": 76
    },
    {
      "midi": 69,
      "hit": false,
      "t": 112655.40000000014,
      "d": 548.5562500000087,
      "v": 65
    },
    {
      "midi": 65,
      "hit": false,
      "t": 112988.70000000014,
      "d": 312.46875,
      "v": 93
    },
    {
      "midi": 74,
      "hit": false,
      "t": 113322.00000000015,
      "d": 319.4125000000058,
      "v": 66
    },
    {
      "midi": 69,
      "hit": false,
      "t": 113655.30000000015,
      "d": 576.3312499999884,
      "v": 92
    },
    {
      "midi": 65,
      "hit": false,
      "t": 113988.60000000014,
      "d": 277.75,
      "v": 95
    },
    {
      "midi": 62,
      "hit": false,
      "t": 114321.90000000014,
      "d": 166.64999999999418,
      "v": 85
    },
    {
      "midi": 64,
      "hit": false,
      "t": 114655.20000000013,
      "d": 1895.6437500000175,
      "v": 116
    },
    {
      "midi": 52,
      "hit": false,
      "t": 114655.20000000013,
      "d": 2284.4937500000233,
      "v": 75
    },
    {
      "midi": 68,
      "hit": false,
      "t": 114988.50000000013,
      "d": 298.5812500000029,
      "v": 102
    },
    {
      "midi": 71,
      "hit": false,
      "t": 115321.80000000013,
      "d": 340.24375000000873,
      "v": 63
    },
    {
      "midi": 68,
      "hit": false,
      "t": 115655.10000000014,
      "d": 319.4125000000058,
      "v": 114
    },
    {
      "midi": 76,
      "hit": false,
      "t": 115988.40000000014,
      "d": 319.4125000000058,
      "v": 68
    },
    {
      "midi": 71,
      "hit": false,
      "t": 116321.70000000014,
      "d": 611.0500000000029,
      "v": 103
    },
    {
      "midi": 68,
      "hit": false,
      "t": 116655.00000000015,
      "d": 298.5812500000029,
      "v": 106
    },
    {
      "midi": 64,
      "hit": false,
      "t": 116988.30000000015,
      "d": 118.04374999999709,
      "v": 67
    },
    {
      "midi": 69,
      "hit": false,
      "t": 117321.60000000015,
      "d": 1860.925000000003,
      "v": 109
    },
    {
      "midi": 57,
      "hit": false,
      "t": 117321.60000000015,
      "d": 2235.887499999997,
      "v": 53
    },
    {
      "midi": 72,
      "hit": false,
      "t": 117654.90000000015,
      "d": 305.5249999999942,
      "v": 85
    },
    {
      "midi": 76,
      "hit": false,
      "t": 117988.20000000014,
      "d": 416.625,
      "v": 67
    },
    {
      "midi": 72,
      "hit": false,
      "t": 118321.50000000015,
      "d": 312.46875,
      "v": 92
    },
    {
      "midi": 81,
      "hit": false,
      "t": 118654.80000000015,
      "d": 333.3000000000029,
      "v": 60
    },
    {
      "midi": 76,
      "hit": false,
      "t": 118988.10000000015,
      "d": 569.3874999999971,
      "v": 75
    },
    {
      "midi": 72,
      "hit": false,
      "t": 119321.40000000015,
      "d": 270.8062499999942,
      "v": 72
    },
    {
      "midi": 69,
      "hit": false,
      "t": 119654.70000000014,
      "d": 187.4812499999971,
      "v": 79
    },
    {
      "midi": 69,
      "hit": false,
      "t": 119988.00000000015,
      "d": 1756.768750000032,
      "v": 95
    },
    {
      "midi": 57,
      "hit": false,
      "t": 119988.00000000015,
      "d": 2298.381250000035,
      "v": 92
    },
    {
      "midi": 72,
      "hit": false,
      "t": 120321.30000000015,
      "d": 319.4125000000058,
      "v": 81
    },
    {
      "midi": 76,
      "hit": false,
      "t": 120654.60000000015,
      "d": 340.24375000000873,
      "v": 63
    },
    {
      "midi": 72,
      "hit": false,
      "t": 120987.90000000015,
      "d": 326.35625000001164,
      "v": 70
    },
    {
      "midi": 81,
      "hit": false,
      "t": 121321.20000000017,
      "d": 312.46875,
      "v": 57
    },
    {
      "midi": 76,
      "hit": false,
      "t": 121654.50000000017,
      "d": 611.0500000000029,
      "v": 92
    },
    {
      "midi": 72,
      "hit": false,
      "t": 121987.80000000018,
      "d": 312.46875,
      "v": 86
    },
    {
      "midi": 69,
      "hit": false,
      "t": 122321.10000000018,
      "d": 97.21249999999418,
      "v": 92
    },
    {
      "midi": 62,
      "hit": false,
      "t": 122654.40000000017,
      "d": 1833.1500000000087,
      "v": 100
    },
    {
      "midi": 50,
      "hit": false,
      "t": 122654.40000000017,
      "d": 2333.100000000006,
      "v": 59
    },
    {
      "midi": 65,
      "hit": false,
      "t": 122987.70000000017,
      "d": 354.1312500000058,
      "v": 79
    },
    {
      "midi": 69,
      "hit": false,
      "t": 123321.00000000017,
      "d": 368.0187500000029,
      "v": 71
    },
    {
      "midi": 65,
      "hit": false,
      "t": 123654.30000000018,
      "d": 333.3000000000029,
      "v": 79
    },
    {
      "midi": 74,
      "hit": false,
      "t": 123987.60000000018,
      "d": 361.0749999999971,
      "v": 56
    },
    {
      "midi": 69,
      "hit": false,
      "t": 124320.90000000018,
      "d": 611.0499999999884,
      "v": 74
    },
    {
      "midi": 65,
      "hit": false,
      "t": 124654.20000000017,
      "d": 291.6374999999971,
      "v": 77
    },
    {
      "midi": 62,
      "hit": false,
      "t": 124987.50000000017,
      "d": 145.81875000000582,
      "v": 80
    },
    {
      "midi": 64,
      "hit": false,
      "t": 125320.80000000018,
      "d": 1791.4875000000175,
      "v": 109
    },
    {
      "midi": 52,
      "hit": false,
      "t": 125320.80000000018,
      "d": 2131.7312500000116,
      "v": 73
    },
    {
      "midi": 68,
      "hit": false,
      "t": 125654.10000000018,
      "d": 298.5812500000029,
      "v": 94
    },
    {
      "midi": 71,
      "hit": false,
      "t": 125987.40000000018,
      "d": 374.96250000000873,
      "v": 80
    },
    {
      "midi": 68,
      "hit": false,
      "t": 126320.70000000019,
      "d": 298.5812500000029,
      "v": 98
    },
    {
      "midi": 76,
      "hit": false,
      "t": 126654.00000000019,
      "d": 319.4125000000058,
      "v": 65
    },
    {
      "midi": 71,
      "hit": false,
      "t": 126987.30000000019,
      "d": 604.1062499999971,
      "v": 80
    },
    {
      "midi": 68,
      "hit": false,
      "t": 127320.6000000002,
      "d": 284.69374999999127,
      "v": 102
    },
    {
      "midi": 64,
      "hit": false,
      "t": 127653.90000000018,
      "d": 69.4375,
      "v": 77
    },
    {
      "midi": 57,
      "hit": false,
      "t": 127987.20000000019,
      "d": 2367.818750000006,
      "v": 57
    },
    {
      "midi": 69,
      "hit": false,
      "t": 127987.20000000019,
      "d": 2395.59375,
      "v": 100
    },
    {
      "midi": 72,
      "hit": false,
      "t": 128320.50000000019,
      "d": 333.3000000000029,
      "v": 76
    },
    {
      "midi": 76,
      "hit": false,
      "t": 128653.80000000019,
      "d": 361.0749999999971,
      "v": 63
    },
    {
      "midi": 72,
      "hit": false,
      "t": 128987.1000000002,
      "d": 319.41249999999127,
      "v": 80
    },
    {
      "midi": 81,
      "hit": false,
      "t": 129320.40000000018,
      "d": 347.1875,
      "v": 62
    },
    {
      "midi": 76,
      "hit": false,
      "t": 129653.70000000019,
      "d": 368.0187500000029,
      "v": 80
    },
    {
      "midi": 72,
      "hit": false,
      "t": 129987.00000000019,
      "d": 312.46875,
      "v": 84
    },
    {
      "midi": 81,
      "hit": false,
      "t": 130320.30000000019,
      "d": 215.25624999999127,
      "v": 51
    },
    {
      "midi": 69,
      "hit": false,
      "t": 130653.60000000018,
      "d": 1784.5437500000407,
      "v": 95
    },
    {
      "midi": 57,
      "hit": false,
      "t": 130653.60000000018,
      "d": 2256.718750000058,
      "v": 71
    },
    {
      "midi": 72,
      "hit": false,
      "t": 130986.90000000018,
      "d": 319.41249999999127,
      "v": 72
    },
    {
      "midi": 76,
      "hit": false,
      "t": 131320.2000000002,
      "d": 347.1875,
      "v": 73
    },
    {
      "midi": 72,
      "hit": false,
      "t": 131653.50000000017,
      "d": 305.5250000000233,
      "v": 89
    },
    {
      "midi": 81,
      "hit": false,
      "t": 131986.8000000002,
      "d": 291.63750000001164,
      "v": 61
    },
    {
      "midi": 76,
      "hit": false,
      "t": 132320.1000000002,
      "d": 597.1625000000349,
      "v": 89
    },
    {
      "midi": 72,
      "hit": false,
      "t": 132653.40000000023,
      "d": 298.58125000001746,
      "v": 87
    },
    {
      "midi": 69,
      "hit": false,
      "t": 132986.70000000024,
      "d": 124.98749999998836,
      "v": 89
    },
    {
      "midi": 62,
      "hit": false,
      "t": 133320.00000000023,
      "d": 1666.5,
      "v": 93
    },
    {
      "midi": 50,
      "hit": false,
      "t": 133320.00000000023,
      "d": 2215.056249999994,
      "v": 53
    },
    {
      "midi": 65,
      "hit": false,
      "t": 133653.30000000022,
      "d": 319.4125000000058,
      "v": 73
    },
    {
      "midi": 69,
      "hit": false,
      "t": 133986.60000000024,
      "d": 624.9375,
      "v": 74
    },
    {
      "midi": 65,
      "hit": false,
      "t": 134319.90000000023,
      "d": 312.46875,
      "v": 98
    },
    {
      "midi": 74,
      "hit": false,
      "t": 134653.20000000022,
      "d": 326.35625000001164,
      "v": 63
    },
    {
      "midi": 69,
      "hit": false,
      "t": 134986.50000000023,
      "d": 569.3874999999825,
      "v": 92
    },
    {
      "midi": 65,
      "hit": false,
      "t": 135319.80000000022,
      "d": 270.8062499999942,
      "v": 90
    },
    {
      "midi": 62,
      "hit": false,
      "t": 135653.1000000002,
      "d": 152.76250000001164,
      "v": 74
    },
    {
      "midi": 64,
      "hit": false,
      "t": 135986.40000000023,
      "d": 1874.8125,
      "v": 105
    },
    {
      "midi": 52,
      "hit": false,
      "t": 135986.40000000023,
      "d": 2270.6062499999825,
      "v": 65
    },
    {
      "midi": 68,
      "hit": false,
      "t": 136319.70000000022,
      "d": 291.63750000001164,
      "v": 96
    },
    {
      "midi": 71,
      "hit": false,
      "t": 136653.00000000023,
      "d": 638.8249999999825,
      "v": 80
    },
    {
      "midi": 68,
      "hit": false,
      "t": 136986.30000000022,
      "d": 319.4125000000058,
      "v": 102
    },
    {
      "midi": 76,
      "hit": false,
      "t": 137319.60000000024,
      "d": 312.46875,
      "v": 68
    },
    {
      "midi": 71,
      "hit": false,
      "t": 137652.90000000023,
      "d": 624.9374999999709,
      "v": 87
    },
    {
      "midi": 68,
      "hit": false,
      "t": 137986.20000000022,
      "d": 298.58124999998836,
      "v": 100
    },
    {
      "midi": 64,
      "hit": false,
      "t": 138319.5000000002,
      "d": 97.21249999999418,
      "v": 67
    },
    {
      "midi": 69,
      "hit": false,
      "t": 138652.8000000002,
      "d": 1819.2624999999825,
      "v": 98
    },
    {
      "midi": 57,
      "hit": false,
      "t": 138652.8000000002,
      "d": 2270.6062499999825,
      "v": 53
    },
    {
      "midi": 72,
      "hit": false,
      "t": 138986.10000000018,
      "d": 319.4125000000058,
      "v": 70
    },
    {
      "midi": 76,
      "hit": false,
      "t": 139319.4000000002,
      "d": 354.1312499999767,
      "v": 71
    },
    {
      "midi": 72,
      "hit": false,
      "t": 139652.7000000002,
      "d": 333.29999999998836,
      "v": 89
    },
    {
      "midi": 81,
      "hit": false,
      "t": 139986.00000000017,
      "d": 340.2437499999942,
      "v": 57
    },
    {
      "midi": 76,
      "hit": false,
      "t": 140319.30000000016,
      "d": 562.4437500000058,
      "v": 93
    },
    {
      "midi": 72,
      "hit": false,
      "t": 140652.60000000018,
      "d": 243.03125,
      "v": 84
    },
    {
      "midi": 69,
      "hit": false,
      "t": 140985.90000000017,
      "d": 173.59375,
      "v": 70
    },
    {
      "midi": 69,
      "hit": false,
      "t": 141319.20000000016,
      "d": 1749.8250000000116,
      "v": 95
    },
    {
      "midi": 57,
      "hit": false,
      "t": 141319.20000000016,
      "d": 2291.437500000029,
      "v": 60
    },
    {
      "midi": 72,
      "hit": false,
      "t": 141652.50000000015,
      "d": 291.63750000001164,
      "v": 80
    },
    {
      "midi": 76,
      "hit": false,
      "t": 141985.80000000016,
      "d": 611.0499999999884,
      "v": 77
    },
    {
      "midi": 72,
      "hit": false,
      "t": 142319.10000000015,
      "d": 312.46875,
      "v": 85
    },
    {
      "midi": 81,
      "hit": false,
      "t": 142652.40000000014,
      "d": 326.35625000001164,
      "v": 56
    },
    {
      "midi": 76,
      "hit": false,
      "t": 142985.70000000016,
      "d": 631.8812500000349,
      "v": 90
    },
    {
      "midi": 72,
      "hit": false,
      "t": 143319.00000000017,
      "d": 326.35625000001164,
      "v": 82
    },
    {
      "midi": 69,
      "hit": false,
      "t": 143652.3000000002,
      "d": 97.21249999999418,
      "v": 60
    },
    {
      "midi": 62,
      "hit": false,
      "t": 143985.60000000018,
      "d": 1805.375,
      "v": 103
    },
    {
      "midi": 50,
      "hit": false,
      "t": 143985.60000000018,
      "d": 2305.3250000000116,
      "v": 51
    },
    {
      "midi": 65,
      "hit": false,
      "t": 144318.90000000017,
      "d": 347.1875,
      "v": 60
    },
    {
      "midi": 69,
      "hit": false,
      "t": 144652.20000000016,
      "d": 374.9625000000233,
      "v": 66
    },
    {
      "midi": 65,
      "hit": false,
      "t": 144985.50000000017,
      "d": 319.4125000000058,
      "v": 81
    },
    {
      "midi": 74,
      "hit": false,
      "t": 145318.8000000002,
      "d": 381.90625,
      "v": 66
    },
    {
      "midi": 69,
      "hit": false,
      "t": 145652.10000000018,
      "d": 611.0499999999884,
      "v": 72
    },
    {
      "midi": 65,
      "hit": false,
      "t": 145985.40000000017,
      "d": 291.63750000001164,
      "v": 79
    },
    {
      "midi": 62,
      "hit": false,
      "t": 146318.7000000002,
      "d": 152.76250000001164,
      "v": 67
    },
    {
      "midi": 64,
      "hit": false,
      "t": 146652.0000000002,
      "d": 1701.218750000029,
      "v": 92
    },
    {
      "midi": 52,
      "hit": false,
      "t": 146652.0000000002,
      "d": 2194.225000000064,
      "v": 73
    },
    {
      "midi": 68,
      "hit": false,
      "t": 146985.3000000002,
      "d": 291.63750000001164,
      "v": 80
    },
    {
      "midi": 71,
      "hit": false,
      "t": 147318.6000000002,
      "d": 326.35625000001164,
      "v": 74
    },
    {
      "midi": 68,
      "hit": false,
      "t": 147651.90000000023,
      "d": 319.4125000000058,
      "v": 78
    },
    {
      "midi": 76,
      "hit": false,
      "t": 147985.20000000024,
      "d": 374.9624999999942,
      "v": 68
    },
    {
      "midi": 71,
      "hit": false,
      "t": 148318.50000000023,
      "d": 340.2437500000233,
      "v": 74
    },
    {
      "midi": 68,
      "hit": false,
      "t": 148651.80000000025,
      "d": 291.63750000001164,
      "v": 94
    },
    {
      "midi": 64,
      "hit": false,
      "t": 148985.10000000027,
      "d": 104.15625,
      "v": 69
    },
    {
      "midi": 69,
      "hit": false,
      "t": 149318.40000000026,
      "d": 2180.337499999965,
      "v": 92
    },
    {
      "midi": 57,
      "hit": false,
      "t": 149318.40000000026,
      "d": 2423.368749999965,
      "v": 56
    },
    {
      "midi": 72,
      "hit": false,
      "t": 149651.70000000024,
      "d": 305.5249999999942,
      "v": 67
    },
    {
      "midi": 76,
      "hit": false,
      "t": 149985.00000000023,
      "d": 361.07499999998254,
      "v": 68
    },
    {
      "midi": 72,
      "hit": false,
      "t": 150318.30000000022,
      "d": 284.6937500000058,
      "v": 79
    },
    {
      "midi": 81,
      "hit": false,
      "t": 150651.60000000024,
      "d": 354.1312499999767,
      "v": 54
    },
    {
      "midi": 76,
      "hit": false,
      "t": 150984.90000000023,
      "d": 597.1625000000058,
      "v": 75
    },
    {
      "midi": 72,
      "hit": false,
      "t": 151318.20000000022,
      "d": 312.4687500000291,
      "v": 69
    },
    {
      "midi": 81,
      "hit": false,
      "t": 151651.50000000023,
      "d": 298.58124999998836,
      "v": 61
    },
    {
      "midi": 57,
      "hit": false,
      "t": 151984.80000000022,
      "d": 354.1312499999767,
      "v": 111
    },
    {
      "midi": 45,
      "hit": false,
      "t": 151984.80000000022,
      "d": 2298.3812499999767,
      "v": 86
    },
    {
      "midi": 60,
      "hit": false,
      "t": 152318.1000000002,
      "d": 333.29999999998836,
      "v": 63
    },
    {
      "midi": 72,
      "hit": false,
      "t": 152318.1000000002,
      "d": 333.29999999998836,
      "v": 63
    },
    {
      "midi": 64,
      "hit": false,
      "t": 152651.4000000002,
      "d": 326.35625000001164,
      "v": 61
    },
    {
      "midi": 76,
      "hit": false,
      "t": 152651.4000000002,
      "d": 569.3875000000116,
      "v": 74
    },
    {
      "midi": 72,
      "hit": false,
      "t": 152984.70000000022,
      "d": 284.6937500000058,
      "v": 90
    },
    {
      "midi": 60,
      "hit": false,
      "t": 152984.70000000022,
      "d": 298.58125000001746,
      "v": 60
    },
    {
      "midi": 69,
      "hit": false,
      "t": 153318.00000000023,
      "d": 229.14374999998836,
      "v": 100
    },
    {
      "midi": 81,
      "hit": false,
      "t": 153318.00000000023,
      "d": 319.4124999999767,
      "v": 63
    },
    {
      "midi": 64,
      "hit": false,
      "t": 153651.30000000022,
      "d": 604.1062499999825,
      "v": 57
    },
    {
      "midi": 76,
      "hit": false,
      "t": 153651.30000000022,
      "d": 604.1062499999825,
      "v": 93
    },
    {
      "midi": 72,
      "hit": false,
      "t": 153984.6000000002,
      "d": 291.63749999998254,
      "v": 87
    },
    {
      "midi": 60,
      "hit": false,
      "t": 153984.6000000002,
      "d": 298.58124999998836,
      "v": 71
    },
    {
      "midi": 57,
      "hit": false,
      "t": 154317.9000000002,
      "d": 6.943750000005821,
      "v": 51
    },
    {
      "midi": 69,
      "hit": false,
      "t": 154317.9000000002,
      "d": 236.08749999999418,
      "v": 87
    },
    {
      "midi": 57,
      "hit": false,
      "t": 154651.2000000002,
      "d": 513.8374999999942,
      "v": 109
    },
    {
      "midi": 45,
      "hit": false,
      "t": 154651.2000000002,
      "d": 2256.718749999971,
      "v": 89
    },
    {
      "midi": 60,
      "hit": false,
      "t": 154984.50000000017,
      "d": 305.5249999999942,
      "v": 57
    },
    {
      "midi": 72,
      "hit": false,
      "t": 154984.50000000017,
      "d": 305.5249999999942,
      "v": 72
    },
    {
      "midi": 76,
      "hit": false,
      "t": 155317.80000000016,
      "d": 361.07499999998254,
      "v": 62
    },
    {
      "midi": 64,
      "hit": false,
      "t": 155317.80000000016,
      "d": 368.01874999998836,
      "v": 53
    },
    {
      "midi": 72,
      "hit": false,
      "t": 155651.10000000015,
      "d": 312.46875,
      "v": 81
    },
    {
      "midi": 60,
      "hit": false,
      "t": 155651.10000000015,
      "d": 319.4125000000058,
      "v": 74
    },
    {
      "midi": 69,
      "hit": false,
      "t": 155984.40000000017,
      "d": 166.64999999999418,
      "v": 99
    },
    {
      "midi": 81,
      "hit": false,
      "t": 155984.40000000017,
      "d": 333.29999999998836,
      "v": 60
    },
    {
      "midi": 64,
      "hit": false,
      "t": 156317.70000000016,
      "d": 611.0499999999884,
      "v": 67
    },
    {
      "midi": 76,
      "hit": false,
      "t": 156317.70000000016,
      "d": 611.0499999999884,
      "v": 68
    },
    {
      "midi": 60,
      "hit": false,
      "t": 156651.00000000015,
      "d": 312.46875,
      "v": 82
    },
    {
      "midi": 72,
      "hit": false,
      "t": 156651.00000000015,
      "d": 312.46875,
      "v": 76
    },
    {
      "midi": 69,
      "hit": false,
      "t": 156984.30000000013,
      "d": 194.42499999998836,
      "v": 60
    },
    {
      "midi": 57,
      "hit": false,
      "t": 156984.30000000013,
      "d": 201.36874999999418,
      "v": 53
    },
    {
      "midi": 57,
      "hit": false,
      "t": 157317.60000000012,
      "d": 388.8499999999767,
      "v": 90
    },
    {
      "midi": 45,
      "hit": false,
      "t": 157317.60000000012,
      "d": 2187.281249999942,
      "v": 84
    },
    {
      "midi": 60,
      "hit": false,
      "t": 157650.9000000001,
      "d": 319.4124999999767,
      "v": 62
    },
    {
      "midi": 72,
      "hit": false,
      "t": 157650.9000000001,
      "d": 333.29999999998836,
      "v": 68
    },
    {
      "midi": 76,
      "hit": false,
      "t": 157984.2000000001,
      "d": 340.2437499999942,
      "v": 73
    },
    {
      "midi": 64,
      "hit": false,
      "t": 157984.2000000001,
      "d": 361.07499999998254,
      "v": 59
    },
    {
      "midi": 60,
      "hit": false,
      "t": 158317.5000000001,
      "d": 298.58124999998836,
      "v": 73
    },
    {
      "midi": 72,
      "hit": false,
      "t": 158317.5000000001,
      "d": 298.58124999998836,
      "v": 77
    },
    {
      "midi": 69,
      "hit": false,
      "t": 158650.80000000008,
      "d": 201.36874999999418,
      "v": 99
    },
    {
      "midi": 81,
      "hit": false,
      "t": 158650.80000000008,
      "d": 305.5249999999942,
      "v": 63
    },
    {
      "midi": 64,
      "hit": false,
      "t": 158984.10000000006,
      "d": 576.3312499999884,
      "v": 77
    },
    {
      "midi": 76,
      "hit": false,
      "t": 158984.10000000006,
      "d": 597.1624999999767,
      "v": 79
    },
    {
      "midi": 60,
      "hit": false,
      "t": 159317.40000000005,
      "d": 270.8062499999942,
      "v": 79
    },
    {
      "midi": 72,
      "hit": false,
      "t": 159317.40000000005,
      "d": 277.75,
      "v": 85
    },
    {
      "midi": 69,
      "hit": false,
      "t": 159650.70000000004,
      "d": 124.98749999998836,
      "v": 93
    },
    {
      "midi": 57,
      "hit": false,
      "t": 159650.70000000004,
      "d": 187.48124999998254,
      "v": 76
    },
    {
      "midi": 50,
      "hit": false,
      "t": 159984.00000000003,
      "d": 1604.0062500000058,
      "v": 100
    },
    {
      "midi": 38,
      "hit": false,
      "t": 159984.00000000003,
      "d": 2034.5187500000175,
      "v": 60
    },
    {
      "midi": 65,
      "hit": false,
      "t": 160317.30000000002,
      "d": 256.91875000001164,
      "v": 73
    },
    {
      "midi": 53,
      "hit": false,
      "t": 160317.30000000002,
      "d": 263.86250000001746,
      "v": 86
    },
    {
      "midi": 57,
      "hit": false,
      "t": 160650.60000000003,
      "d": 354.1312499999767,
      "v": 58
    },
    {
      "midi": 69,
      "hit": false,
      "t": 160650.60000000003,
      "d": 368.01874999998836,
      "v": 69
    },
    {
      "midi": 65,
      "hit": false,
      "t": 160983.90000000002,
      "d": 291.63750000001164,
      "v": 85
    },
    {
      "midi": 53,
      "hit": false,
      "t": 160983.90000000002,
      "d": 305.5250000000233,
      "v": 90
    },
    {
      "midi": 62,
      "hit": false,
      "t": 161317.20000000004,
      "d": 69.4375,
      "v": 109
    },
    {
      "midi": 74,
      "hit": false,
      "t": 161317.20000000004,
      "d": 319.4125000000058,
      "v": 72
    },
    {
      "midi": 69,
      "hit": false,
      "t": 161650.50000000006,
      "d": 562.4437499999767,
      "v": 84
    },
    {
      "midi": 57,
      "hit": false,
      "t": 161650.50000000006,
      "d": 583.2749999999651,
      "v": 72
    },
    {
      "midi": 65,
      "hit": false,
      "t": 161983.80000000005,
      "d": 284.6937499999767,
      "v": 81
    },
    {
      "midi": 53,
      "hit": false,
      "t": 161983.80000000005,
      "d": 291.63749999998254,
      "v": 93
    },
    {
      "midi": 50,
      "hit": false,
      "t": 162317.10000000003,
      "d": 152.76250000001164,
      "v": 61
    },
    {
      "midi": 62,
      "hit": false,
      "t": 162317.10000000003,
      "d": 152.76250000001164,
      "v": 65
    },
    {
      "midi": 52,
      "hit": false,
      "t": 162650.40000000005,
      "d": 1229.0437499999825,
      "v": 98
    },
    {
      "midi": 40,
      "hit": false,
      "t": 162650.40000000005,
      "d": 2256.71875,
      "v": 109
    },
    {
      "midi": 56,
      "hit": false,
      "t": 162983.70000000004,
      "d": 312.46875,
      "v": 78
    },
    {
      "midi": 68,
      "hit": false,
      "t": 162983.70000000004,
      "d": 319.4125000000058,
      "v": 92
    },
    {
      "midi": 59,
      "hit": false,
      "t": 163317.00000000006,
      "d": 354.1312499999767,
      "v": 76
    },
    {
      "midi": 71,
      "hit": false,
      "t": 163317.00000000006,
      "d": 368.01874999998836,
      "v": 82
    },
    {
      "midi": 68,
      "hit": false,
      "t": 163650.30000000005,
      "d": 298.58124999998836,
      "v": 70
    },
    {
      "midi": 56,
      "hit": false,
      "t": 163650.30000000005,
      "d": 333.29999999998836,
      "v": 84
    },
    {
      "midi": 64,
      "hit": false,
      "t": 163983.60000000003,
      "d": 208.3125,
      "v": 113
    },
    {
      "midi": 76,
      "hit": false,
      "t": 163983.60000000003,
      "d": 291.63750000001164,
      "v": 44
    },
    {
      "midi": 59,
      "hit": false,
      "t": 164316.90000000005,
      "d": 347.1875,
      "v": 95
    },
    {
      "midi": 71,
      "hit": false,
      "t": 164316.90000000005,
      "d": 444.3999999999942,
      "v": 87
    },
    {
      "midi": 56,
      "hit": false,
      "t": 164650.20000000004,
      "d": 277.75,
      "v": 90
    },
    {
      "midi": 68,
      "hit": false,
      "t": 164650.20000000004,
      "d": 277.75,
      "v": 96
    },
    {
      "midi": 52,
      "hit": false,
      "t": 164983.50000000003,
      "d": 208.3125,
      "v": 81
    },
    {
      "midi": 64,
      "hit": false,
      "t": 164983.50000000003,
      "d": 208.3125,
      "v": 84
    },
    {
      "midi": 52,
      "hit": false,
      "t": 165316.80000000002,
      "d": 527.7249999999767,
      "v": 90
    },
    {
      "midi": 40,
      "hit": false,
      "t": 165316.80000000002,
      "d": 2187.281249999942,
      "v": 76
    },
    {
      "midi": 68,
      "hit": false,
      "t": 165650.1,
      "d": 284.6937499999767,
      "v": 94
    },
    {
      "midi": 56,
      "hit": false,
      "t": 165650.1,
      "d": 312.4687499999709,
      "v": 81
    },
    {
      "midi": 59,
      "hit": false,
      "t": 165983.39999999997,
      "d": 340.2437499999942,
      "v": 84
    },
    {
      "midi": 71,
      "hit": false,
      "t": 165983.39999999997,
      "d": 340.2437499999942,
      "v": 85
    },
    {
      "midi": 56,
      "hit": false,
      "t": 166316.69999999995,
      "d": 319.4125000000058,
      "v": 86
    },
    {
      "midi": 68,
      "hit": false,
      "t": 166316.69999999995,
      "d": 319.4125000000058,
      "v": 88
    },
    {
      "midi": 64,
      "hit": false,
      "t": 166649.99999999997,
      "d": 166.64999999999418,
      "v": 99
    },
    {
      "midi": 76,
      "hit": false,
      "t": 166649.99999999997,
      "d": 312.46875,
      "v": 71
    },
    {
      "midi": 59,
      "hit": false,
      "t": 166983.29999999996,
      "d": 368.01874999998836,
      "v": 96
    },
    {
      "midi": 71,
      "hit": false,
      "t": 166983.29999999996,
      "d": 576.3312499999884,
      "v": 89
    },
    {
      "midi": 56,
      "hit": false,
      "t": 167316.59999999995,
      "d": 249.97500000000582,
      "v": 100
    },
    {
      "midi": 68,
      "hit": false,
      "t": 167316.59999999995,
      "d": 256.91875000001164,
      "v": 102
    },
    {
      "midi": 52,
      "hit": false,
      "t": 167649.89999999997,
      "d": 180.53750000000582,
      "v": 87
    },
    {
      "midi": 64,
      "hit": false,
      "t": 167649.89999999997,
      "d": 180.53750000000582,
      "v": 96
    },
    {
      "midi": 50,
      "hit": false,
      "t": 167983.19999999998,
      "d": 874.9125000000058,
      "v": 100
    },
    {
      "midi": 38,
      "hit": false,
      "t": 167983.19999999998,
      "d": 930.4624999999942,
      "v": 59
    },
    {
      "midi": 62,
      "hit": false,
      "t": 167983.19999999998,
      "d": 986.0124999999825,
      "v": 89
    },
    {
      "midi": 65,
      "hit": false,
      "t": 168316.49999999997,
      "d": 326.35625000001164,
      "v": 81
    },
    {
      "midi": 53,
      "hit": false,
      "t": 168316.49999999997,
      "d": 347.1875000000291,
      "v": 72
    },
    {
      "midi": 57,
      "hit": false,
      "t": 168649.8,
      "d": 361.07499999998254,
      "v": 72
    },
    {
      "midi": 69,
      "hit": false,
      "t": 168649.8,
      "d": 361.07499999998254,
      "v": 79
    },
    {
      "midi": 65,
      "hit": false,
      "t": 168983.09999999998,
      "d": 152.76249999998254,
      "v": 96
    },
    {
      "midi": 53,
      "hit": false,
      "t": 168983.09999999998,
      "d": 173.5937499999709,
      "v": 90
    },
    {
      "midi": 40,
      "hit": false,
      "t": 169316.39999999994,
      "d": 937.4062499999709,
      "v": 73
    },
    {
      "midi": 52,
      "hit": false,
      "t": 169316.39999999994,
      "d": 937.4062499999709,
      "v": 111
    },
    {
      "midi": 64,
      "hit": false,
      "t": 169316.39999999994,
      "d": 937.4062499999709,
      "v": 109
    },
    {
      "midi": 56,
      "hit": false,
      "t": 169649.69999999992,
      "d": 479.1187499999942,
      "v": 72
    },
    {
      "midi": 68,
      "hit": false,
      "t": 169649.69999999992,
      "d": 611.0499999999884,
      "v": 73
    },
    {
      "midi": 59,
      "hit": false,
      "t": 169982.9999999999,
      "d": 312.46875,
      "v": 89
    },
    {
      "midi": 71,
      "hit": false,
      "t": 169982.9999999999,
      "d": 312.46875,
      "v": 80
    },
    {
      "midi": 64,
      "hit": false,
      "t": 170316.2999999999,
      "d": 194.42499999998836,
      "v": 77
    },
    {
      "midi": 76,
      "hit": false,
      "t": 170316.2999999999,
      "d": 201.36874999999418,
      "v": 58
    },
    {
      "midi": 57,
      "hit": false,
      "t": 170649.5999999999,
      "d": 1722.0499999999593,
      "v": 86
    },
    {
      "midi": 45,
      "hit": false,
      "t": 170649.5999999999,
      "d": 2298.3812499999476,
      "v": 67
    },
    {
      "midi": 72,
      "hit": false,
      "t": 170982.89999999988,
      "d": 215.25625000000582,
      "v": 76
    },
    {
      "midi": 60,
      "hit": false,
      "t": 170982.89999999988,
      "d": 243.03125,
      "v": 74
    },
    {
      "midi": 64,
      "hit": false,
      "t": 171316.19999999987,
      "d": 361.07499999998254,
      "v": 71
    },
    {
      "midi": 76,
      "hit": false,
      "t": 171316.19999999987,
      "d": 374.9624999999942,
      "v": 79
    },
    {
      "midi": 60,
      "hit": false,
      "t": 171649.49999999985,
      "d": 298.58125000001746,
      "v": 76
    },
    {
      "midi": 72,
      "hit": false,
      "t": 171649.49999999985,
      "d": 298.58125000001746,
      "v": 84
    },
    {
      "midi": 69,
      "hit": false,
      "t": 171982.79999999987,
      "d": 55.54999999998836,
      "v": 109
    },
    {
      "midi": 81,
      "hit": false,
      "t": 171982.79999999987,
      "d": 305.5249999999942,
      "v": 63
    },
    {
      "midi": 76,
      "hit": false,
      "t": 172316.09999999986,
      "d": 513.8374999999942,
      "v": 77
    },
    {
      "midi": 64,
      "hit": false,
      "t": 172316.09999999986,
      "d": 548.5562499999942,
      "v": 93
    },
    {
      "midi": 60,
      "hit": false,
      "t": 172649.39999999985,
      "d": 277.75,
      "v": 93
    },
    {
      "midi": 72,
      "hit": false,
      "t": 172649.39999999985,
      "d": 277.75,
      "v": 87
    },
    {
      "midi": 57,
      "hit": false,
      "t": 172982.69999999984,
      "d": 159.70624999998836,
      "v": 72
    },
    {
      "midi": 69,
      "hit": false,
      "t": 172982.69999999984,
      "d": 187.48124999998254,
      "v": 82
    },
    {
      "midi": 57,
      "hit": false,
      "t": 173315.99999999983,
      "d": 62.49374999999418,
      "v": 100
    },
    {
      "midi": 88,
      "hit": false,
      "t": 173315.99999999983,
      "d": 874.9124999999767,
      "v": 127
    },
    {
      "midi": 45,
      "hit": false,
      "t": 173315.99999999983,
      "d": 2235.8874999999243,
      "v": 67
    },
    {
      "midi": 60,
      "hit": false,
      "t": 173649.2999999998,
      "d": 333.29999999998836,
      "v": 63
    },
    {
      "midi": 72,
      "hit": false,
      "t": 173649.2999999998,
      "d": 333.29999999998836,
      "v": 63
    },
    {
      "midi": 76,
      "hit": false,
      "t": 173982.5999999998,
      "d": 229.14374999998836,
      "v": 74
    },
    {
      "midi": 64,
      "hit": false,
      "t": 173982.5999999998,
      "d": 256.91874999998254,
      "v": 61
    },
    {
      "midi": 65,
      "hit": false,
      "t": 174149.2499999998,
      "d": 104.15625,
      "v": 56
    },
    {
      "midi": 77,
      "hit": false,
      "t": 174149.2499999998,
      "d": 104.15625,
      "v": 60
    },
    {
      "midi": 89,
      "hit": false,
      "t": 174149.2499999998,
      "d": 145.81875000000582,
      "v": 50
    },
    {
      "midi": 63,
      "hit": false,
      "t": 174315.8999999998,
      "d": 97.21249999999418,
      "v": 117
    },
    {
      "midi": 87,
      "hit": false,
      "t": 174315.8999999998,
      "d": 118.04374999998254,
      "v": 86
    },
    {
      "midi": 75,
      "hit": false,
      "t": 174315.8999999998,
      "d": 124.98749999998836,
      "v": 106
    },
    {
      "midi": 72,
      "hit": false,
      "t": 174315.8999999998,
      "d": 263.86249999998836,
      "v": 90
    },
    {
      "midi": 60,
      "hit": false,
      "t": 174315.8999999998,
      "d": 277.75,
      "v": 60
    },
    {
      "midi": 64,
      "hit": false,
      "t": 174482.54999999978,
      "d": 97.21249999999418,
      "v": 116
    },
    {
      "midi": 76,
      "hit": false,
      "t": 174482.54999999978,
      "d": 97.21249999999418,
      "v": 81
    },
    {
      "midi": 88,
      "hit": false,
      "t": 174482.54999999978,
      "d": 97.21249999999418,
      "v": 113
    },
    {
      "midi": 69,
      "hit": false,
      "t": 174649.19999999978,
      "d": 180.53750000000582,
      "v": 100
    },
    {
      "midi": 65,
      "hit": false,
      "t": 174649.19999999978,
      "d": 277.75,
      "v": 125
    },
    {
      "midi": 77,
      "hit": false,
      "t": 174649.19999999978,
      "d": 298.58124999998836,
      "v": 126
    },
    {
      "midi": 89,
      "hit": false,
      "t": 174649.19999999978,
      "d": 298.58124999998836,
      "v": 127
    },
    {
      "midi": 81,
      "hit": false,
      "t": 174649.19999999978,
      "d": 312.46875,
      "v": 63
    },
    {
      "midi": 88,
      "hit": false,
      "t": 174982.49999999977,
      "d": 395.79374999998254,
      "v": 125
    },
    {
      "midi": 64,
      "hit": false,
      "t": 174982.49999999977,
      "d": 520.7812499999709,
      "v": 127
    },
    {
      "midi": 76,
      "hit": false,
      "t": 174982.49999999977,
      "d": 520.7812499999709,
      "v": 126
    },
    {
      "midi": 72,
      "hit": false,
      "t": 175315.79999999976,
      "d": 277.75,
      "v": 87
    },
    {
      "midi": 60,
      "hit": false,
      "t": 175315.79999999976,
      "d": 284.6937500000058,
      "v": 71
    },
    {
      "midi": 88,
      "hit": false,
      "t": 175482.44999999975,
      "d": 326.35625000001164,
      "v": 109
    },
    {
      "midi": 57,
      "hit": false,
      "t": 175649.09999999977,
      "d": 173.59375,
      "v": 51
    },
    {
      "midi": 76,
      "hit": false,
      "t": 175649.09999999977,
      "d": 229.14374999998836,
      "v": 125
    },
    {
      "midi": 64,
      "hit": false,
      "t": 175649.09999999977,
      "d": 243.03125,
      "v": 121
    },
    {
      "midi": 69,
      "hit": false,
      "t": 175649.09999999977,
      "d": 243.03125,
      "v": 87
    },
    {
      "midi": 57,
      "hit": false,
      "t": 175982.39999999976,
      "d": 617.9937499999942,
      "v": 109
    },
    {
      "midi": 96,
      "hit": false,
      "t": 175982.39999999976,
      "d": 937.40625,
      "v": 113
    },
    {
      "midi": 84,
      "hit": false,
      "t": 175982.39999999976,
      "d": 986.0125000000116,
      "v": 127
    },
    {
      "midi": 45,
      "hit": false,
      "t": 175982.39999999976,
      "d": 2346.987500000105,
      "v": 89
    },
    {
      "midi": 60,
      "hit": false,
      "t": 176315.69999999975,
      "d": 319.4125000000058,
      "v": 57
    },
    {
      "midi": 72,
      "hit": false,
      "t": 176315.69999999975,
      "d": 319.4125000000058,
      "v": 72
    },
    {
      "midi": 76,
      "hit": false,
      "t": 176648.99999999977,
      "d": 347.1875000000291,
      "v": 62
    },
    {
      "midi": 64,
      "hit": false,
      "t": 176648.99999999977,
      "d": 354.1312500000349,
      "v": 53
    },
    {
      "midi": 83,
      "hit": false,
      "t": 176982.29999999978,
      "d": 270.8062500000233,
      "v": 127
    },
    {
      "midi": 95,
      "hit": false,
      "t": 176982.29999999978,
      "d": 270.8062500000233,
      "v": 127
    },
    {
      "midi": 71,
      "hit": false,
      "t": 176982.29999999978,
      "d": 284.6937500000349,
      "v": 127
    },
    {
      "midi": 72,
      "hit": false,
      "t": 176982.29999999978,
      "d": 291.63750000004075,
      "v": 81
    },
    {
      "midi": 60,
      "hit": false,
      "t": 176982.29999999978,
      "d": 298.58125000004657,
      "v": 74
    },
    {
      "midi": 69,
      "hit": false,
      "t": 177315.59999999983,
      "d": 256.91875000001164,
      "v": 99
    },
    {
      "midi": 81,
      "hit": false,
      "t": 177315.59999999983,
      "d": 347.1875000000291,
      "v": 60
    },
    {
      "midi": 88,
      "hit": false,
      "t": 177315.59999999983,
      "d": 1111.000000000029,
      "v": 121
    },
    {
      "midi": 76,
      "hit": false,
      "t": 177648.89999999985,
      "d": 590.2187500000291,
      "v": 68
    },
    {
      "midi": 64,
      "hit": false,
      "t": 177648.89999999985,
      "d": 611.0500000000175,
      "v": 67
    },
    {
      "midi": 60,
      "hit": false,
      "t": 177982.19999999987,
      "d": 312.46875,
      "v": 82
    },
    {
      "midi": 72,
      "hit": false,
      "t": 177982.19999999987,
      "d": 312.46875,
      "v": 76
    },
    {
      "midi": 57,
      "hit": false,
      "t": 178315.49999999985,
      "d": 13.887500000011642,
      "v": 53
    },
    {
      "midi": 69,
      "hit": false,
      "t": 178315.49999999985,
      "d": 194.42500000001746,
      "v": 60
    },
    {
      "midi": 76,
      "hit": false,
      "t": 178648.79999999987,
      "d": 354.1312499999767,
      "v": 126
    },
    {
      "midi": 88,
      "hit": false,
      "t": 178648.79999999987,
      "d": 402.73749999998836,
      "v": 121
    },
    {
      "midi": 57,
      "hit": false,
      "t": 178648.79999999987,
      "d": 416.625,
      "v": 90
    },
    {
      "midi": 45,
      "hit": false,
      "t": 178648.79999999987,
      "d": 2097.01250000007,
      "v": 84
    },
    {
      "midi": 60,
      "hit": false,
      "t": 178982.09999999986,
      "d": 305.5250000000233,
      "v": 62
    },
    {
      "midi": 72,
      "hit": false,
      "t": 178982.09999999986,
      "d": 319.4125000000349,
      "v": 68
    },
    {
      "midi": 88,
      "hit": false,
      "t": 179148.74999999988,
      "d": 499.95000000001164,
      "v": 98
    },
    {
      "midi": 64,
      "hit": false,
      "t": 179315.3999999999,
      "d": 277.75,
      "v": 59
    },
    {
      "midi": 76,
      "hit": false,
      "t": 179315.3999999999,
      "d": 333.29999999998836,
      "v": 73
    },
    {
      "midi": 92,
      "hit": false,
      "t": 179648.6999999999,
      "d": 215.25625000000582,
      "v": 110
    },
    {
      "midi": 80,
      "hit": false,
      "t": 179648.6999999999,
      "d": 229.14375000001746,
      "v": 123
    },
    {
      "midi": 68,
      "hit": false,
      "t": 179648.6999999999,
      "d": 270.8062500000233,
      "v": 117
    },
    {
      "midi": 60,
      "hit": false,
      "t": 179648.6999999999,
      "d": 284.6937500000349,
      "v": 73
    },
    {
      "midi": 72,
      "hit": false,
      "t": 179648.6999999999,
      "d": 284.6937500000349,
      "v": 77
    },
    {
      "midi": 69,
      "hit": false,
      "t": 179981.99999999994,
      "d": 166.64999999999418,
      "v": 116
    },
    {
      "midi": 93,
      "hit": false,
      "t": 179981.99999999994,
      "d": 249.97500000000582,
      "v": 99
    },
    {
      "midi": 81,
      "hit": false,
      "t": 179981.99999999994,
      "d": 277.75,
      "v": 105
    },
    {
      "midi": 76,
      "hit": false,
      "t": 180315.29999999993,
      "d": 249.97500000000582,
      "v": 113
    },
    {
      "midi": 88,
      "hit": false,
      "t": 180315.29999999993,
      "d": 284.6937500000058,
      "v": 93
    },
    {
      "midi": 64,
      "hit": false,
      "t": 180315.29999999993,
      "d": 326.35625000001164,
      "v": 99
    },
    {
      "midi": 62,
      "hit": false,
      "t": 180648.59999999995,
      "d": 41.66250000000582,
      "v": 71
    },
    {
      "midi": 74,
      "hit": false,
      "t": 180648.59999999995,
      "d": 41.66250000000582,
      "v": 95
    },
    {
      "midi": 86,
      "hit": false,
      "t": 180648.59999999995,
      "d": 41.66250000000582,
      "v": 81
    },
    {
      "midi": 88,
      "hit": false,
      "t": 180648.59999999995,
      "d": 41.66250000000582,
      "v": 69
    },
    {
      "midi": 60,
      "hit": false,
      "t": 180648.59999999995,
      "d": 215.25625000000582,
      "v": 79
    },
    {
      "midi": 72,
      "hit": false,
      "t": 180648.59999999995,
      "d": 222.20000000001164,
      "v": 85
    },
    {
      "midi": 64,
      "hit": false,
      "t": 180815.24999999994,
      "d": 6.943750000005821,
      "v": 59
    },
    {
      "midi": 76,
      "hit": false,
      "t": 180815.24999999994,
      "d": 55.55000000001746,
      "v": 59
    },
    {
      "midi": 88,
      "hit": false,
      "t": 180815.24999999994,
      "d": 62.49375000002328,
      "v": 57
    },
    {
      "midi": 62,
      "hit": false,
      "t": 180815.24999999994,
      "d": 90.26875000001746,
      "v": 55
    },
    {
      "midi": 74,
      "hit": false,
      "t": 180815.24999999994,
      "d": 90.26875000001746,
      "v": 73
    },
    {
      "midi": 86,
      "hit": false,
      "t": 180815.24999999994,
      "d": 104.1562500000291,
      "v": 64
    },
    {
      "midi": 57,
      "hit": false,
      "t": 180981.89999999997,
      "d": 131.93124999999418,
      "v": 76
    },
    {
      "midi": 69,
      "hit": false,
      "t": 180981.89999999997,
      "d": 131.93124999999418,
      "v": 93
    },
    {
      "midi": 72,
      "hit": false,
      "t": 180981.89999999997,
      "d": 243.03125,
      "v": 111
    },
    {
      "midi": 84,
      "hit": false,
      "t": 180981.89999999997,
      "d": 243.03125,
      "v": 125
    },
    {
      "midi": 60,
      "hit": false,
      "t": 180981.89999999997,
      "d": 256.91875000001164,
      "v": 96
    },
    {
      "midi": 62,
      "hit": false,
      "t": 181315.19999999998,
      "d": 319.4125000000058,
      "v": 109
    },
    {
      "midi": 86,
      "hit": false,
      "t": 181315.19999999998,
      "d": 361.07500000001164,
      "v": 113
    },
    {
      "midi": 74,
      "hit": false,
      "t": 181315.19999999998,
      "d": 409.6812500000233,
      "v": 123
    },
    {
      "midi": 50,
      "hit": false,
      "t": 181315.19999999998,
      "d": 1701.2187500000582,
      "v": 100
    },
    {
      "midi": 38,
      "hit": false,
      "t": 181315.19999999998,
      "d": 2117.843750000029,
      "v": 60
    },
    {
      "midi": 64,
      "hit": false,
      "t": 181648.5,
      "d": 62.49374999999418,
      "v": 59
    },
    {
      "midi": 76,
      "hit": false,
      "t": 181648.5,
      "d": 62.49374999999418,
      "v": 33
    },
    {
      "midi": 88,
      "hit": false,
      "t": 181648.5,
      "d": 76.38125000000582,
      "v": 59
    },
    {
      "midi": 65,
      "hit": false,
      "t": 181648.5,
      "d": 284.6937500000058,
      "v": 73
    },
    {
      "midi": 53,
      "hit": false,
      "t": 181648.5,
      "d": 291.63750000001164,
      "v": 86
    },
    {
      "midi": 83,
      "hit": false,
      "t": 181815.15,
      "d": 999.9000000000524,
      "v": 126
    },
    {
      "midi": 59,
      "hit": false,
      "t": 181815.15,
      "d": 1076.2812500000582,
      "v": 109
    },
    {
      "midi": 71,
      "hit": false,
      "t": 181815.15,
      "d": 1201.2687500000466,
      "v": 116
    },
    {
      "midi": 57,
      "hit": false,
      "t": 181981.80000000002,
      "d": 368.01874999998836,
      "v": 58
    },
    {
      "midi": 69,
      "hit": false,
      "t": 181981.80000000002,
      "d": 381.90625,
      "v": 69
    },
    {
      "midi": 65,
      "hit": false,
      "t": 182315.1,
      "d": 305.5250000000233,
      "v": 85
    },
    {
      "midi": 53,
      "hit": false,
      "t": 182315.1,
      "d": 319.4125000000349,
      "v": 90
    },
    {
      "midi": 62,
      "hit": false,
      "t": 182648.40000000005,
      "d": 180.53750000000582,
      "v": 109
    },
    {
      "midi": 74,
      "hit": false,
      "t": 182648.40000000005,
      "d": 312.46875,
      "v": 72
    },
    {
      "midi": 84,
      "hit": false,
      "t": 182815.05000000005,
      "d": 76.38125000000582,
      "v": 45
    },
    {
      "midi": 60,
      "hit": false,
      "t": 182981.70000000004,
      "d": 69.4375,
      "v": 56
    },
    {
      "midi": 86,
      "hit": false,
      "t": 182981.70000000004,
      "d": 69.4375,
      "v": 62
    },
    {
      "midi": 83,
      "hit": false,
      "t": 182981.70000000004,
      "d": 131.93124999999418,
      "v": 96
    },
    {
      "midi": 59,
      "hit": false,
      "t": 182981.70000000004,
      "d": 159.70624999998836,
      "v": 107
    },
    {
      "midi": 62,
      "hit": false,
      "t": 182981.70000000004,
      "d": 256.91874999998254,
      "v": 48
    },
    {
      "midi": 69,
      "hit": false,
      "t": 182981.70000000004,
      "d": 534.6687500000116,
      "v": 84
    },
    {
      "midi": 57,
      "hit": false,
      "t": 182981.70000000004,
      "d": 555.5,
      "v": 72
    },
    {
      "midi": 74,
      "hit": false,
      "t": 183148.35000000003,
      "d": 55.54999999998836,
      "v": 59
    },
    {
      "midi": 72,
      "hit": false,
      "t": 183148.35000000003,
      "d": 97.21249999999418,
      "v": 47
    },
    {
      "midi": 86,
      "hit": false,
      "t": 183315.00000000003,
      "d": 62.49374999999418,
      "v": 45
    },
    {
      "midi": 84,
      "hit": false,
      "t": 183315.00000000003,
      "d": 90.26874999998836,
      "v": 54
    },
    {
      "midi": 59,
      "hit": false,
      "t": 183315.00000000003,
      "d": 180.53750000000582,
      "v": 107
    },
    {
      "midi": 71,
      "hit": false,
      "t": 183315.00000000003,
      "d": 187.48125000001164,
      "v": 127
    },
    {
      "midi": 83,
      "hit": false,
      "t": 183315.00000000003,
      "d": 187.48125000001164,
      "v": 116
    },
    {
      "midi": 65,
      "hit": false,
      "t": 183315.00000000003,
      "d": 277.75,
      "v": 81
    },
    {
      "midi": 53,
      "hit": false,
      "t": 183315.00000000003,
      "d": 284.6937500000058,
      "v": 93
    },
    {
      "midi": 72,
      "hit": false,
      "t": 183481.65000000002,
      "d": 131.93125000002328,
      "v": 123
    },
    {
      "midi": 60,
      "hit": false,
      "t": 183648.30000000005,
      "d": 118.04375000001164,
      "v": 100
    },
    {
      "midi": 84,
      "hit": false,
      "t": 183648.30000000005,
      "d": 118.04375000001164,
      "v": 111
    },
    {
      "midi": 50,
      "hit": false,
      "t": 183648.30000000005,
      "d": 124.98750000001746,
      "v": 61
    },
    {
      "midi": 62,
      "hit": false,
      "t": 183814.95000000007,
      "d": 34.71875,
      "v": 103
    },
    {
      "midi": 86,
      "hit": false,
      "t": 183814.95000000007,
      "d": 62.49374999999418,
      "v": 98
    },
    {
      "midi": 74,
      "hit": false,
      "t": 183814.95000000007,
      "d": 83.32499999998254,
      "v": 113
    },
    {
      "midi": 86,
      "hit": false,
      "t": 183981.60000000006,
      "d": 819.3625000000175,
      "v": 109
    },
    {
      "midi": 62,
      "hit": false,
      "t": 183981.60000000006,
      "d": 840.1937500000349,
      "v": 107
    },
    {
      "midi": 74,
      "hit": false,
      "t": 183981.60000000006,
      "d": 895.7437500000233,
      "v": 125
    },
    {
      "midi": 52,
      "hit": false,
      "t": 183981.60000000006,
      "d": 1284.5937500000582,
      "v": 98
    },
    {
      "midi": 40,
      "hit": false,
      "t": 183981.60000000006,
      "d": 2277.5500000000757,
      "v": 109
    },
    {
      "midi": 56,
      "hit": false,
      "t": 184314.90000000005,
      "d": 312.46875,
      "v": 78
    },
    {
      "midi": 68,
      "hit": false,
      "t": 184314.90000000005,
      "d": 319.4125000000058,
      "v": 92
    },
    {
      "midi": 88,
      "hit": false,
      "t": 184648.20000000007,
      "d": 41.66250000000582,
      "v": 32
    },
    {
      "midi": 59,
      "hit": false,
      "t": 184648.20000000007,
      "d": 347.1875000000291,
      "v": 76
    },
    {
      "midi": 71,
      "hit": false,
      "t": 184648.20000000007,
      "d": 361.07500000004075,
      "v": 82
    },
    {
      "midi": 88,
      "hit": false,
      "t": 184814.8500000001,
      "d": 97.21249999999418,
      "v": 67
    },
    {
      "midi": 76,
      "hit": false,
      "t": 184814.8500000001,
      "d": 166.64999999999418,
      "v": 49
    },
    {
      "midi": 64,
      "hit": false,
      "t": 184814.8500000001,
      "d": 187.48125000001164,
      "v": 64
    },
    {
      "midi": 73,
      "hit": false,
      "t": 184981.5000000001,
      "d": 187.48125000001164,
      "v": 66
    },
    {
      "midi": 85,
      "hit": false,
      "t": 184981.5000000001,
      "d": 194.42500000001746,
      "v": 108
    },
    {
      "midi": 61,
      "hit": false,
      "t": 184981.5000000001,
      "d": 222.20000000001164,
      "v": 77
    },
    {
      "midi": 68,
      "hit": false,
      "t": 184981.5000000001,
      "d": 277.7500000000291,
      "v": 70
    },
    {
      "midi": 56,
      "hit": false,
      "t": 184981.5000000001,
      "d": 312.4687500000291,
      "v": 84
    },
    {
      "midi": 74,
      "hit": false,
      "t": 185148.1500000001,
      "d": 104.15625,
      "v": 100
    },
    {
      "midi": 86,
      "hit": false,
      "t": 185148.1500000001,
      "d": 166.64999999999418,
      "v": 90
    },
    {
      "midi": 62,
      "hit": false,
      "t": 185148.1500000001,
      "d": 180.53750000000582,
      "v": 89
    },
    {
      "midi": 64,
      "hit": false,
      "t": 185314.8000000001,
      "d": 152.76250000001164,
      "v": 116
    },
    {
      "midi": 76,
      "hit": false,
      "t": 185314.8000000001,
      "d": 277.75,
      "v": 127
    },
    {
      "midi": 88,
      "hit": false,
      "t": 185314.8000000001,
      "d": 284.6937500000058,
      "v": 113
    },
    {
      "midi": 59,
      "hit": false,
      "t": 185648.10000000012,
      "d": 333.29999999998836,
      "v": 95
    },
    {
      "midi": 62,
      "hit": false,
      "t": 185648.10000000012,
      "d": 409.6812499999942,
      "v": 118
    },
    {
      "midi": 71,
      "hit": false,
      "t": 185648.10000000012,
      "d": 423.5687500000058,
      "v": 87
    },
    {
      "midi": 86,
      "hit": false,
      "t": 185814.75000000012,
      "d": 430.51250000001164,
      "v": 100
    },
    {
      "midi": 74,
      "hit": false,
      "t": 185814.75000000012,
      "d": 451.3437500000291,
      "v": 113
    },
    {
      "midi": 56,
      "hit": false,
      "t": 185981.4000000001,
      "d": 270.8062500000233,
      "v": 90
    },
    {
      "midi": 68,
      "hit": false,
      "t": 185981.4000000001,
      "d": 270.8062500000233,
      "v": 96
    },
    {
      "midi": 52,
      "hit": false,
      "t": 186314.70000000016,
      "d": 194.42499999998836,
      "v": 81
    },
    {
      "midi": 64,
      "hit": false,
      "t": 186314.70000000016,
      "d": 194.42499999998836,
      "v": 84
    },
    {
      "midi": 62,
      "hit": false,
      "t": 186314.70000000016,
      "d": 229.14374999998836,
      "v": 96
    },
    {
      "midi": 74,
      "hit": false,
      "t": 186314.70000000016,
      "d": 236.08749999999418,
      "v": 107
    },
    {
      "midi": 86,
      "hit": false,
      "t": 186314.70000000016,
      "d": 548.5562499999942,
      "v": 82
    },
    {
      "midi": 71,
      "hit": false,
      "t": 186648.00000000015,
      "d": 374.9625000000233,
      "v": 126
    },
    {
      "midi": 52,
      "hit": false,
      "t": 186648.00000000015,
      "d": 624.9375,
      "v": 90
    },
    {
      "midi": 83,
      "hit": false,
      "t": 186648.00000000015,
      "d": 881.8562500000116,
      "v": 125
    },
    {
      "midi": 40,
      "hit": false,
      "t": 186648.00000000015,
      "d": 2228.943750000035,
      "v": 76
    },
    {
      "midi": 68,
      "hit": false,
      "t": 186981.30000000016,
      "d": 291.63749999998254,
      "v": 94
    },
    {
      "midi": 56,
      "hit": false,
      "t": 186981.30000000016,
      "d": 319.4124999999767,
      "v": 81
    },
    {
      "midi": 95,
      "hit": false,
      "t": 186981.30000000016,
      "d": 666.6000000000058,
      "v": 95
    },
    {
      "midi": 71,
      "hit": false,
      "t": 187314.60000000015,
      "d": 312.46875,
      "v": 85
    },
    {
      "midi": 59,
      "hit": false,
      "t": 187314.60000000015,
      "d": 319.4125000000058,
      "v": 84
    },
    {
      "midi": 68,
      "hit": false,
      "t": 187647.90000000017,
      "d": 256.91875000001164,
      "v": 120
    },
    {
      "midi": 80,
      "hit": false,
      "t": 187647.90000000017,
      "d": 270.8062500000233,
      "v": 126
    },
    {
      "midi": 56,
      "hit": false,
      "t": 187647.90000000017,
      "d": 284.6937500000349,
      "v": 86
    },
    {
      "midi": 92,
      "hit": false,
      "t": 187647.90000000017,
      "d": 291.63750000004075,
      "v": 104
    },
    {
      "midi": 64,
      "hit": false,
      "t": 187981.20000000022,
      "d": 201.36874999999418,
      "v": 99
    },
    {
      "midi": 76,
      "hit": false,
      "t": 187981.20000000022,
      "d": 291.63749999998254,
      "v": 71
    },
    {
      "midi": 62,
      "hit": false,
      "t": 187981.20000000022,
      "d": 1055.4499999999534,
      "v": 107
    },
    {
      "midi": 74,
      "hit": false,
      "t": 187981.20000000022,
      "d": 1055.4499999999534,
      "v": 113
    },
    {
      "midi": 86,
      "hit": false,
      "t": 187981.20000000022,
      "d": 1083.2249999999476,
      "v": 74
    },
    {
      "midi": 59,
      "hit": false,
      "t": 188314.5000000002,
      "d": 361.07499999998254,
      "v": 96
    },
    {
      "midi": 71,
      "hit": false,
      "t": 188314.5000000002,
      "d": 583.2749999999651,
      "v": 89
    },
    {
      "midi": 56,
      "hit": false,
      "t": 188647.8000000002,
      "d": 256.91874999998254,
      "v": 100
    },
    {
      "midi": 68,
      "hit": false,
      "t": 188647.8000000002,
      "d": 263.86249999998836,
      "v": 102
    },
    {
      "midi": 52,
      "hit": false,
      "t": 188981.10000000018,
      "d": 180.53749999997672,
      "v": 87
    },
    {
      "midi": 64,
      "hit": false,
      "t": 188981.10000000018,
      "d": 180.53749999997672,
      "v": 96
    },
    {
      "midi": 88,
      "hit": false,
      "t": 189314.40000000017,
      "d": 41.66250000000582,
      "v": 51
    },
    {
      "midi": 65,
      "hit": false,
      "t": 189314.40000000017,
      "d": 55.55000000001746,
      "v": 12
    },
    {
      "midi": 64,
      "hit": false,
      "t": 189314.40000000017,
      "d": 76.38125000000582,
      "v": 51
    },
    {
      "midi": 86,
      "hit": false,
      "t": 189314.40000000017,
      "d": 361.07500000001164,
      "v": 105
    },
    {
      "midi": 62,
      "hit": false,
      "t": 189314.40000000017,
      "d": 812.4187499999825,
      "v": 95
    },
    {
      "midi": 74,
      "hit": false,
      "t": 189314.40000000017,
      "d": 812.4187499999825,
      "v": 118
    },
    {
      "midi": 50,
      "hit": false,
      "t": 189314.40000000017,
      "d": 923.5187499999884,
      "v": 100
    },
    {
      "midi": 38,
      "hit": false,
      "t": 189314.40000000017,
      "d": 986.0124999999825,
      "v": 59
    },
    {
      "midi": 65,
      "hit": false,
      "t": 189647.7000000002,
      "d": 333.29999999998836,
      "v": 81
    },
    {
      "midi": 53,
      "hit": false,
      "t": 189647.7000000002,
      "d": 354.1312499999767,
      "v": 72
    },
    {
      "midi": 88,
      "hit": false,
      "t": 189814.35000000018,
      "d": 41.66250000000582,
      "v": 19
    },
    {
      "midi": 86,
      "hit": false,
      "t": 189814.35000000018,
      "d": 374.9624999999651,
      "v": 96
    },
    {
      "midi": 57,
      "hit": false,
      "t": 189981.00000000017,
      "d": 347.1875,
      "v": 72
    },
    {
      "midi": 69,
      "hit": false,
      "t": 189981.00000000017,
      "d": 347.1875,
      "v": 79
    },
    {
      "midi": 86,
      "hit": false,
      "t": 190314.30000000016,
      "d": 48.60625000001164,
      "v": 52
    },
    {
      "midi": 65,
      "hit": false,
      "t": 190314.30000000016,
      "d": 69.4375,
      "v": 96
    },
    {
      "midi": 64,
      "hit": false,
      "t": 190314.30000000016,
      "d": 83.32500000001164,
      "v": 71
    },
    {
      "midi": 88,
      "hit": false,
      "t": 190314.30000000016,
      "d": 152.76250000001164,
      "v": 105
    },
    {
      "midi": 53,
      "hit": false,
      "t": 190314.30000000016,
      "d": 159.70625000001746,
      "v": 90
    },
    {
      "midi": 76,
      "hit": false,
      "t": 190314.30000000016,
      "d": 159.70625000001746,
      "v": 92
    },
    {
      "midi": 76,
      "hit": false,
      "t": 190480.9500000002,
      "d": 34.71875,
      "v": 54
    },
    {
      "midi": 65,
      "hit": false,
      "t": 190480.9500000002,
      "d": 41.66250000000582,
      "v": 58
    },
    {
      "midi": 74,
      "hit": false,
      "t": 190480.9500000002,
      "d": 41.66250000000582,
      "v": 107
    },
    {
      "midi": 86,
      "hit": false,
      "t": 190480.9500000002,
      "d": 48.60625000001164,
      "v": 59
    },
    {
      "midi": 88,
      "hit": false,
      "t": 190647.6000000002,
      "d": 34.71875,
      "v": 49
    },
    {
      "midi": 74,
      "hit": false,
      "t": 190647.6000000002,
      "d": 69.4375,
      "v": 60
    },
    {
      "midi": 62,
      "hit": false,
      "t": 190647.6000000002,
      "d": 180.53750000000582,
      "v": 109
    },
    {
      "midi": 72,
      "hit": false,
      "t": 190647.6000000002,
      "d": 277.75,
      "v": 99
    },
    {
      "midi": 84,
      "hit": false,
      "t": 190647.6000000002,
      "d": 388.8499999999767,
      "v": 85
    },
    {
      "midi": 52,
      "hit": false,
      "t": 190647.6000000002,
      "d": 881.8562499999825,
      "v": 111
    },
    {
      "midi": 64,
      "hit": false,
      "t": 190647.6000000002,
      "d": 881.8562499999825,
      "v": 109
    },
    {
      "midi": 40,
      "hit": false,
      "t": 190647.6000000002,
      "d": 888.7999999999884,
      "v": 73
    },
    {
      "midi": 60,
      "hit": false,
      "t": 190814.2500000002,
      "d": 319.4124999999767,
      "v": 113
    },
    {
      "midi": 62,
      "hit": false,
      "t": 190980.9000000002,
      "d": 76.38124999997672,
      "v": 51
    },
    {
      "midi": 83,
      "hit": false,
      "t": 190980.9000000002,
      "d": 430.51249999998254,
      "v": 96
    },
    {
      "midi": 56,
      "hit": false,
      "t": 190980.9000000002,
      "d": 451.3437499999709,
      "v": 72
    },
    {
      "midi": 68,
      "hit": false,
      "t": 190980.9000000002,
      "d": 590.21875,
      "v": 73
    },
    {
      "midi": 59,
      "hit": false,
      "t": 191314.2000000002,
      "d": 215.25625000000582,
      "v": 89
    },
    {
      "midi": 71,
      "hit": false,
      "t": 191314.2000000002,
      "d": 256.91875000001164,
      "v": 80
    },
    {
      "midi": 60,
      "hit": false,
      "t": 191480.85000000018,
      "d": 152.76250000001164,
      "v": 107
    },
    {
      "midi": 84,
      "hit": false,
      "t": 191480.85000000018,
      "d": 166.65000000002328,
      "v": 100
    },
    {
      "midi": 72,
      "hit": false,
      "t": 191647.5000000002,
      "d": 131.93124999999418,
      "v": 107
    },
    {
      "midi": 64,
      "hit": false,
      "t": 191647.5000000002,
      "d": 187.48124999998254,
      "v": 77
    },
    {
      "midi": 76,
      "hit": false,
      "t": 191647.5000000002,
      "d": 201.36874999999418,
      "v": 58
    },
    {
      "midi": 74,
      "hit": false,
      "t": 191814.1500000002,
      "d": 124.98749999998836,
      "v": 93
    },
    {
      "midi": 62,
      "hit": false,
      "t": 191814.1500000002,
      "d": 180.53750000000582,
      "v": 100
    },
    {
      "midi": 86,
      "hit": false,
      "t": 191814.1500000002,
      "d": 187.48125000001164,
      "v": 77
    },
    {
      "midi": 74,
      "hit": false,
      "t": 191980.8000000002,
      "d": 34.718750000029104,
      "v": 109
    },
    {
      "midi": 88,
      "hit": false,
      "t": 191980.8000000002,
      "d": 1791.4874999999884,
      "v": 121
    },
    {
      "midi": 57,
      "hit": false,
      "t": 191980.8000000002,
      "d": 1853.9812499999825,
      "v": 86
    },
    {
      "midi": 45,
      "hit": false,
      "t": 191980.8000000002,
      "d": 2437.2562499999767,
      "v": 67
    },
    {
      "midi": 72,
      "hit": false,
      "t": 192314.1000000002,
      "d": 284.6937500000058,
      "v": 76
    },
    {
      "midi": 60,
      "hit": false,
      "t": 192314.1000000002,
      "d": 312.46875,
      "v": 74
    },
    {
      "midi": 64,
      "hit": false,
      "t": 192647.4000000002,
      "d": 361.07499999998254,
      "v": 71
    },
    {
      "midi": 76,
      "hit": false,
      "t": 192647.4000000002,
      "d": 374.9624999999942,
      "v": 79
    },
    {
      "midi": 60,
      "hit": false,
      "t": 192980.7000000002,
      "d": 284.6937500000058,
      "v": 76
    },
    {
      "midi": 72,
      "hit": false,
      "t": 192980.7000000002,
      "d": 284.6937500000058,
      "v": 84
    },
    {
      "midi": 69,
      "hit": false,
      "t": 193314.0000000002,
      "d": 173.59375,
      "v": 109
    },
    {
      "midi": 81,
      "hit": false,
      "t": 193314.0000000002,
      "d": 312.46875,
      "v": 63
    },
    {
      "midi": 64,
      "hit": false,
      "t": 193647.3000000002,
      "d": 333.29999999998836,
      "v": 93
    },
    {
      "midi": 76,
      "hit": false,
      "t": 193647.3000000002,
      "d": 395.79374999998254,
      "v": 77
    },
    {
      "midi": 60,
      "hit": false,
      "t": 193980.60000000018,
      "d": 270.8062499999942,
      "v": 93
    },
    {
      "midi": 72,
      "hit": false,
      "t": 193980.60000000018,
      "d": 270.8062499999942,
      "v": 87
    },
    {
      "midi": 57,
      "hit": false,
      "t": 194313.90000000017,
      "d": 76.38125000000582,
      "v": 72
    },
    {
      "midi": 69,
      "hit": false,
      "t": 194313.90000000017,
      "d": 187.48125000001164,
      "v": 82
    },
    {
      "midi": 64,
      "hit": false,
      "t": 194647.2000000002,
      "d": 555.5,
      "v": 113
    },
    {
      "midi": 76,
      "hit": false,
      "t": 194647.2000000002,
      "d": 624.9375,
      "v": 125
    },
    {
      "midi": 69,
      "hit": false,
      "t": 194647.2000000002,
      "d": 1881.7562499999767,
      "v": 89
    },
    {
      "midi": 57,
      "hit": false,
      "t": 194647.2000000002,
      "d": 2215.056249999994,
      "v": 57
    },
    {
      "midi": 72,
      "hit": false,
      "t": 194980.50000000017,
      "d": 298.58125000001746,
      "v": 62
    },
    {
      "midi": 74,
      "hit": false,
      "t": 195313.8000000002,
      "d": 291.63750000001164,
      "v": 107
    },
    {
      "midi": 62,
      "hit": false,
      "t": 195313.8000000002,
      "d": 312.46875,
      "v": 63
    },
    {
      "midi": 76,
      "hit": false,
      "t": 195647.10000000018,
      "d": 13.887500000011642,
      "v": 90
    },
    {
      "midi": 64,
      "hit": false,
      "t": 195647.10000000018,
      "d": 291.63750000001164,
      "v": 109
    },
    {
      "midi": 72,
      "hit": false,
      "t": 195647.10000000018,
      "d": 312.46875,
      "v": 86
    },
    {
      "midi": 74,
      "hit": false,
      "t": 195980.40000000017,
      "d": 55.54999999998836,
      "v": 105
    },
    {
      "midi": 76,
      "hit": false,
      "t": 195980.40000000017,
      "d": 62.49374999999418,
      "v": 67
    },
    {
      "midi": 62,
      "hit": false,
      "t": 195980.40000000017,
      "d": 208.3125,
      "v": 92
    },
    {
      "midi": 81,
      "hit": false,
      "t": 195980.40000000017,
      "d": 395.79374999998254,
      "v": 65
    },
    {
      "midi": 76,
      "hit": false,
      "t": 196147.05000000016,
      "d": 76.38125000000582,
      "v": 61
    },
    {
      "midi": 74,
      "hit": false,
      "t": 196147.05000000016,
      "d": 111.10000000000582,
      "v": 76
    },
    {
      "midi": 76,
      "hit": false,
      "t": 196313.70000000016,
      "d": 597.1625000000349,
      "v": 57
    },
    {
      "midi": 60,
      "hit": false,
      "t": 196313.70000000016,
      "d": 617.9937500000524,
      "v": 87
    },
    {
      "midi": 72,
      "hit": false,
      "t": 196647.00000000017,
      "d": 277.7500000000291,
      "v": 73
    },
    {
      "midi": 69,
      "hit": false,
      "t": 196980.30000000022,
      "d": 222.20000000001164,
      "v": 68
    },
    {
      "midi": 62,
      "hit": false,
      "t": 196980.30000000022,
      "d": 277.75,
      "v": 73
    },
    {
      "midi": 74,
      "hit": false,
      "t": 196980.30000000022,
      "d": 277.75,
      "v": 93
    },
    {
      "midi": 72,
      "hit": false,
      "t": 197313.6000000002,
      "d": 69.4375,
      "v": 121
    },
    {
      "midi": 74,
      "hit": false,
      "t": 197313.6000000002,
      "d": 69.4375,
      "v": 58
    },
    {
      "midi": 60,
      "hit": false,
      "t": 197313.6000000002,
      "d": 617.9937499999942,
      "v": 92
    },
    {
      "midi": 74,
      "hit": false,
      "t": 197480.2500000002,
      "d": 90.26874999998836,
      "v": 64
    },
    {
      "midi": 72,
      "hit": false,
      "t": 197646.9000000002,
      "d": 291.63750000001164,
      "v": 77
    },
    {
      "midi": 74,
      "hit": false,
      "t": 197813.5500000002,
      "d": 83.32500000001164,
      "v": 53
    },
    {
      "midi": 76,
      "hit": false,
      "t": 197980.20000000022,
      "d": 402.73749999998836,
      "v": 75
    },
    {
      "midi": 59,
      "hit": false,
      "t": 197980.20000000022,
      "d": 465.23124999998254,
      "v": 82
    },
    {
      "midi": 71,
      "hit": false,
      "t": 197980.20000000022,
      "d": 555.4999999999709,
      "v": 127
    },
    {
      "midi": 72,
      "hit": false,
      "t": 198480.1500000002,
      "d": 55.54999999998836,
      "v": 59
    },
    {
      "midi": 81,
      "hit": false,
      "t": 198646.8000000002,
      "d": 374.9624999999942,
      "v": 65
    },
    {
      "midi": 69,
      "hit": false,
      "t": 198646.8000000002,
      "d": 590.21875,
      "v": 109
    },
    {
      "midi": 57,
      "hit": false,
      "t": 198646.8000000002,
      "d": 1097.1125000000175,
      "v": 96
    },
    {
      "midi": 76,
      "hit": false,
      "t": 198980.10000000018,
      "d": 569.3875000000116,
      "v": 92
    },
    {
      "midi": 72,
      "hit": false,
      "t": 199313.4000000002,
      "d": 284.6937500000058,
      "v": 85
    },
    {
      "midi": 69,
      "hit": false,
      "t": 199646.70000000022,
      "d": 298.58124999998836,
      "v": 80
    },
    {
      "midi": 69,
      "hit": false,
      "t": 199980.0000000002,
      "d": 159.70624999998836,
      "v": 126
    },
    {
      "midi": 57,
      "hit": false,
      "t": 199980.0000000002,
      "d": 243.03125,
      "v": 100
    },
    {
      "midi": 45,
      "hit": false,
      "t": 199980.0000000002,
      "d": 2333.0999999999767,
      "v": 86
    },
    {
      "midi": 60,
      "hit": false,
      "t": 200313.3000000002,
      "d": 333.29999999998836,
      "v": 63
    },
    {
      "midi": 72,
      "hit": false,
      "t": 200313.3000000002,
      "d": 333.29999999998836,
      "v": 63
    },
    {
      "midi": 64,
      "hit": false,
      "t": 200646.60000000018,
      "d": 333.29999999998836,
      "v": 61
    },
    {
      "midi": 76,
      "hit": false,
      "t": 200646.60000000018,
      "d": 583.2749999999942,
      "v": 74
    },
    {
      "midi": 72,
      "hit": false,
      "t": 200979.90000000017,
      "d": 298.58125000001746,
      "v": 90
    },
    {
      "midi": 60,
      "hit": false,
      "t": 200979.90000000017,
      "d": 312.4687500000291,
      "v": 60
    },
    {
      "midi": 81,
      "hit": false,
      "t": 201313.2000000002,
      "d": 333.29999999998836,
      "v": 63
    },
    {
      "midi": 69,
      "hit": false,
      "t": 201313.2000000002,
      "d": 361.07499999998254,
      "v": 100
    },
    {
      "midi": 64,
      "hit": false,
      "t": 201646.50000000017,
      "d": 611.0499999999884,
      "v": 57
    },
    {
      "midi": 76,
      "hit": false,
      "t": 201646.50000000017,
      "d": 611.0499999999884,
      "v": 93
    },
    {
      "midi": 72,
      "hit": false,
      "t": 201979.80000000016,
      "d": 291.63750000001164,
      "v": 87
    },
    {
      "midi": 60,
      "hit": false,
      "t": 201979.80000000016,
      "d": 298.58125000001746,
      "v": 71
    },
    {
      "midi": 57,
      "hit": false,
      "t": 202313.10000000018,
      "d": 41.66250000000582,
      "v": 51
    },
    {
      "midi": 69,
      "hit": false,
      "t": 202313.10000000018,
      "d": 263.86250000001746,
      "v": 87
    },
    {
      "midi": 57,
      "hit": false,
      "t": 202646.4000000002,
      "d": 617.9937499999942,
      "v": 109
    },
    {
      "midi": 45,
      "hit": false,
      "t": 202646.4000000002,
      "d": 2374.7625000000407,
      "v": 89
    },
    {
      "midi": 60,
      "hit": false,
      "t": 202979.7000000002,
      "d": 319.4125000000058,
      "v": 57
    },
    {
      "midi": 72,
      "hit": false,
      "t": 202979.7000000002,
      "d": 319.4125000000058,
      "v": 72
    },
    {
      "midi": 76,
      "hit": false,
      "t": 203313.0000000002,
      "d": 368.01874999998836,
      "v": 62
    },
    {
      "midi": 64,
      "hit": false,
      "t": 203313.0000000002,
      "d": 374.9624999999942,
      "v": 53
    },
    {
      "midi": 72,
      "hit": false,
      "t": 203646.3000000002,
      "d": 319.4125000000058,
      "v": 81
    },
    {
      "midi": 60,
      "hit": false,
      "t": 203646.3000000002,
      "d": 326.35625000001164,
      "v": 74
    },
    {
      "midi": 69,
      "hit": false,
      "t": 203979.6000000002,
      "d": 291.63750000001164,
      "v": 99
    },
    {
      "midi": 81,
      "hit": false,
      "t": 203979.6000000002,
      "d": 347.1875000000291,
      "v": 60
    },
    {
      "midi": 64,
      "hit": false,
      "t": 204312.90000000023,
      "d": 604.1062500000116,
      "v": 67
    },
    {
      "midi": 76,
      "hit": false,
      "t": 204312.90000000023,
      "d": 604.1062500000116,
      "v": 68
    },
    {
      "midi": 60,
      "hit": false,
      "t": 204646.20000000024,
      "d": 305.5249999999942,
      "v": 82
    },
    {
      "midi": 72,
      "hit": false,
      "t": 204646.20000000024,
      "d": 305.5249999999942,
      "v": 76
    },
    {
      "midi": 57,
      "hit": false,
      "t": 204979.50000000023,
      "d": 41.66250000000582,
      "v": 53
    },
    {
      "midi": 69,
      "hit": false,
      "t": 204979.50000000023,
      "d": 194.42500000001746,
      "v": 60
    },
    {
      "midi": 57,
      "hit": false,
      "t": 205312.80000000025,
      "d": 430.51249999998254,
      "v": 90
    },
    {
      "midi": 45,
      "hit": false,
      "t": 205312.80000000025,
      "d": 2319.2125000000233,
      "v": 84
    },
    {
      "midi": 60,
      "hit": false,
      "t": 205646.10000000024,
      "d": 312.46875,
      "v": 62
    },
    {
      "midi": 72,
      "hit": false,
      "t": 205646.10000000024,
      "d": 326.35625000001164,
      "v": 68
    },
    {
      "midi": 76,
      "hit": false,
      "t": 205979.40000000026,
      "d": 347.1875,
      "v": 73
    },
    {
      "midi": 64,
      "hit": false,
      "t": 205979.40000000026,
      "d": 368.01874999998836,
      "v": 59
    },
    {
      "midi": 60,
      "hit": false,
      "t": 206312.70000000024,
      "d": 319.4125000000058,
      "v": 73
    },
    {
      "midi": 72,
      "hit": false,
      "t": 206312.70000000024,
      "d": 319.4125000000058,
      "v": 77
    },
    {
      "midi": 69,
      "hit": false,
      "t": 206646.00000000026,
      "d": 277.75,
      "v": 99
    },
    {
      "midi": 81,
      "hit": false,
      "t": 206646.00000000026,
      "d": 319.4125000000058,
      "v": 63
    },
    {
      "midi": 64,
      "hit": false,
      "t": 206979.30000000028,
      "d": 631.8812499999767,
      "v": 77
    },
    {
      "midi": 76,
      "hit": false,
      "t": 206979.30000000028,
      "d": 652.7124999999942,
      "v": 79
    },
    {
      "midi": 60,
      "hit": false,
      "t": 207312.60000000027,
      "d": 298.58124999998836,
      "v": 79
    },
    {
      "midi": 72,
      "hit": false,
      "t": 207312.60000000027,
      "d": 312.46875,
      "v": 85
    },
    {
      "midi": 57,
      "hit": false,
      "t": 207645.90000000029,
      "d": 27.77499999999418,
      "v": 76
    },
    {
      "midi": 69,
      "hit": false,
      "t": 207645.90000000029,
      "d": 145.81875000000582,
      "v": 93
    },
    {
      "midi": 50,
      "hit": false,
      "t": 207979.2000000003,
      "d": 1812.3187500000058,
      "v": 100
    },
    {
      "midi": 38,
      "hit": false,
      "t": 207979.2000000003,
      "d": 2270.6062500000407,
      "v": 60
    },
    {
      "midi": 65,
      "hit": false,
      "t": 208312.5000000003,
      "d": 319.4125000000058,
      "v": 73
    },
    {
      "midi": 53,
      "hit": false,
      "t": 208312.5000000003,
      "d": 326.35625000001164,
      "v": 86
    },
    {
      "midi": 57,
      "hit": false,
      "t": 208645.8000000003,
      "d": 368.01874999998836,
      "v": 58
    },
    {
      "midi": 69,
      "hit": false,
      "t": 208645.8000000003,
      "d": 381.90625,
      "v": 69
    },
    {
      "midi": 65,
      "hit": false,
      "t": 208979.1000000003,
      "d": 312.46875,
      "v": 85
    },
    {
      "midi": 53,
      "hit": false,
      "t": 208979.1000000003,
      "d": 326.35625000001164,
      "v": 90
    },
    {
      "midi": 62,
      "hit": false,
      "t": 209312.4000000003,
      "d": 270.8062499999942,
      "v": 109
    },
    {
      "midi": 74,
      "hit": false,
      "t": 209312.4000000003,
      "d": 340.2437499999942,
      "v": 72
    },
    {
      "midi": 69,
      "hit": false,
      "t": 209645.7000000003,
      "d": 590.2187500000291,
      "v": 84
    },
    {
      "midi": 57,
      "hit": false,
      "t": 209645.7000000003,
      "d": 611.0500000000466,
      "v": 72
    },
    {
      "midi": 65,
      "hit": false,
      "t": 209979.00000000032,
      "d": 305.5250000000233,
      "v": 81
    },
    {
      "midi": 53,
      "hit": false,
      "t": 209979.00000000032,
      "d": 312.4687500000291,
      "v": 93
    },
    {
      "midi": 50,
      "hit": false,
      "t": 210312.30000000034,
      "d": 145.81875000000582,
      "v": 61
    },
    {
      "midi": 62,
      "hit": false,
      "t": 210312.30000000034,
      "d": 145.81875000000582,
      "v": 65
    },
    {
      "midi": 52,
      "hit": false,
      "t": 210645.60000000036,
      "d": 1354.031249999971,
      "v": 98
    },
    {
      "midi": 40,
      "hit": false,
      "t": 210645.60000000036,
      "d": 2409.4812499999825,
      "v": 109
    },
    {
      "midi": 56,
      "hit": false,
      "t": 210978.90000000034,
      "d": 305.5249999999942,
      "v": 78
    },
    {
      "midi": 68,
      "hit": false,
      "t": 210978.90000000034,
      "d": 312.46875,
      "v": 92
    },
    {
      "midi": 59,
      "hit": false,
      "t": 211312.20000000033,
      "d": 361.07499999998254,
      "v": 76
    },
    {
      "midi": 71,
      "hit": false,
      "t": 211312.20000000033,
      "d": 374.9624999999942,
      "v": 82
    },
    {
      "midi": 68,
      "hit": false,
      "t": 211645.50000000032,
      "d": 312.46875,
      "v": 70
    },
    {
      "midi": 56,
      "hit": false,
      "t": 211645.50000000032,
      "d": 347.1875,
      "v": 84
    },
    {
      "midi": 76,
      "hit": false,
      "t": 211978.8000000003,
      "d": 305.5250000000233,
      "v": 44
    },
    {
      "midi": 64,
      "hit": false,
      "t": 211978.8000000003,
      "d": 347.1875000000291,
      "v": 113
    },
    {
      "midi": 59,
      "hit": false,
      "t": 212312.10000000033,
      "d": 354.1312500000058,
      "v": 95
    },
    {
      "midi": 71,
      "hit": false,
      "t": 212312.10000000033,
      "d": 451.34375,
      "v": 87
    },
    {
      "midi": 56,
      "hit": false,
      "t": 212645.40000000034,
      "d": 284.6937499999767,
      "v": 90
    },
    {
      "midi": 68,
      "hit": false,
      "t": 212645.40000000034,
      "d": 284.6937499999767,
      "v": 96
    },
    {
      "midi": 52,
      "hit": false,
      "t": 212978.70000000033,
      "d": 76.38125000000582,
      "v": 81
    },
    {
      "midi": 64,
      "hit": false,
      "t": 212978.70000000033,
      "d": 208.3125,
      "v": 84
    },
    {
      "midi": 52,
      "hit": false,
      "t": 213312.00000000032,
      "d": 631.8812500000058,
      "v": 90
    },
    {
      "midi": 40,
      "hit": false,
      "t": 213312.00000000032,
      "d": 2298.381250000006,
      "v": 76
    },
    {
      "midi": 68,
      "hit": false,
      "t": 213645.3000000003,
      "d": 291.63750000001164,
      "v": 94
    },
    {
      "midi": 56,
      "hit": false,
      "t": 213645.3000000003,
      "d": 319.4125000000058,
      "v": 81
    },
    {
      "midi": 59,
      "hit": false,
      "t": 213978.60000000033,
      "d": 340.2437499999942,
      "v": 84
    },
    {
      "midi": 71,
      "hit": false,
      "t": 213978.60000000033,
      "d": 340.2437499999942,
      "v": 85
    },
    {
      "midi": 56,
      "hit": false,
      "t": 214311.9000000003,
      "d": 319.4125000000058,
      "v": 86
    },
    {
      "midi": 68,
      "hit": false,
      "t": 214311.9000000003,
      "d": 319.4125000000058,
      "v": 88
    },
    {
      "midi": 64,
      "hit": false,
      "t": 214645.20000000033,
      "d": 270.8062499999942,
      "v": 99
    },
    {
      "midi": 76,
      "hit": false,
      "t": 214645.20000000033,
      "d": 312.46875,
      "v": 71
    },
    {
      "midi": 59,
      "hit": false,
      "t": 214978.50000000032,
      "d": 368.01874999998836,
      "v": 96
    },
    {
      "midi": 71,
      "hit": false,
      "t": 214978.50000000032,
      "d": 590.21875,
      "v": 89
    },
    {
      "midi": 56,
      "hit": false,
      "t": 215311.8000000003,
      "d": 256.91875000001164,
      "v": 100
    },
    {
      "midi": 68,
      "hit": false,
      "t": 215311.8000000003,
      "d": 263.86250000001746,
      "v": 102
    },
    {
      "midi": 52,
      "hit": false,
      "t": 215645.10000000033,
      "d": 173.59375,
      "v": 87
    },
    {
      "midi": 64,
      "hit": false,
      "t": 215645.10000000033,
      "d": 173.59375,
      "v": 96
    },
    {
      "midi": 50,
      "hit": false,
      "t": 215978.4000000003,
      "d": 979.0687499999767,
      "v": 100
    },
    {
      "midi": 38,
      "hit": false,
      "t": 215978.4000000003,
      "d": 1062.3937499999884,
      "v": 59
    },
    {
      "midi": 62,
      "hit": false,
      "t": 215978.4000000003,
      "d": 1117.9437499999767,
      "v": 89
    },
    {
      "midi": 65,
      "hit": false,
      "t": 216311.7000000003,
      "d": 340.2437499999942,
      "v": 81
    },
    {
      "midi": 53,
      "hit": false,
      "t": 216311.7000000003,
      "d": 361.07499999998254,
      "v": 72
    },
    {
      "midi": 57,
      "hit": false,
      "t": 216645.0000000003,
      "d": 381.90625,
      "v": 72
    },
    {
      "midi": 69,
      "hit": false,
      "t": 216645.0000000003,
      "d": 381.90625,
      "v": 79
    },
    {
      "midi": 65,
      "hit": false,
      "t": 216978.30000000028,
      "d": 194.42500000001746,
      "v": 96
    },
    {
      "midi": 53,
      "hit": false,
      "t": 216978.30000000028,
      "d": 215.25625000000582,
      "v": 90
    },
    {
      "midi": 52,
      "hit": false,
      "t": 217311.6000000003,
      "d": 999.8999999999651,
      "v": 111
    },
    {
      "midi": 64,
      "hit": false,
      "t": 217311.6000000003,
      "d": 999.8999999999651,
      "v": 109
    },
    {
      "midi": 40,
      "hit": false,
      "t": 217311.6000000003,
      "d": 1020.7312499999825,
      "v": 73
    },
    {
      "midi": 56,
      "hit": false,
      "t": 217644.90000000029,
      "d": 493.0062499999767,
      "v": 72
    },
    {
      "midi": 68,
      "hit": false,
      "t": 217644.90000000029,
      "d": 652.7124999999651,
      "v": 73
    },
    {
      "midi": 59,
      "hit": false,
      "t": 217978.20000000027,
      "d": 347.1875,
      "v": 89
    },
    {
      "midi": 71,
      "hit": false,
      "t": 217978.20000000027,
      "d": 347.1875,
      "v": 80
    },
    {
      "midi": 64,
      "hit": false,
      "t": 218311.50000000026,
      "d": 222.20000000001164,
      "v": 77
    },
    {
      "midi": 76,
      "hit": false,
      "t": 218311.50000000026,
      "d": 236.08750000002328,
      "v": 58
    },
    {
      "midi": 57,
      "hit": false,
      "t": 218644.80000000028,
      "d": 368.01874999998836,
      "v": 111
    },
    {
      "midi": 45,
      "hit": false,
      "t": 218644.80000000028,
      "d": 2312.2687499999884,
      "v": 86
    },
    {
      "midi": 60,
      "hit": false,
      "t": 218978.10000000027,
      "d": 333.29999999998836,
      "v": 63
    },
    {
      "midi": 72,
      "hit": false,
      "t": 218978.10000000027,
      "d": 333.29999999998836,
      "v": 63
    },
    {
      "midi": 64,
      "hit": false,
      "t": 219311.40000000026,
      "d": 333.29999999998836,
      "v": 61
    },
    {
      "midi": 76,
      "hit": false,
      "t": 219311.40000000026,
      "d": 590.21875,
      "v": 74
    },
    {
      "midi": 72,
      "hit": false,
      "t": 219644.70000000024,
      "d": 305.5250000000233,
      "v": 90
    },
    {
      "midi": 60,
      "hit": false,
      "t": 219644.70000000024,
      "d": 319.4125000000349,
      "v": 60
    },
    {
      "midi": 69,
      "hit": false,
      "t": 219978.0000000003,
      "d": 277.75,
      "v": 100
    },
    {
      "midi": 81,
      "hit": false,
      "t": 219978.0000000003,
      "d": 333.29999999998836,
      "v": 63
    },
    {
      "midi": 64,
      "hit": false,
      "t": 220311.30000000028,
      "d": 576.3312499999884,
      "v": 57
    },
    {
      "midi": 76,
      "hit": false,
      "t": 220311.30000000028,
      "d": 576.3312499999884,
      "v": 93
    },
    {
      "midi": 72,
      "hit": false,
      "t": 220644.60000000027,
      "d": 270.8062499999942,
      "v": 87
    },
    {
      "midi": 60,
      "hit": false,
      "t": 220644.60000000027,
      "d": 277.75,
      "v": 71
    },
    {
      "midi": 57,
      "hit": false,
      "t": 220977.90000000026,
      "d": 13.887500000011642,
      "v": 51
    },
    {
      "midi": 69,
      "hit": false,
      "t": 220977.90000000026,
      "d": 229.14375000001746,
      "v": 87
    },
    {
      "midi": 57,
      "hit": false,
      "t": 221311.20000000027,
      "d": 368.01874999998836,
      "v": 111
    },
    {
      "midi": 45,
      "hit": false,
      "t": 221311.20000000027,
      "d": 2346.9875000000466,
      "v": 86
    },
    {
      "midi": 60,
      "hit": false,
      "t": 221644.50000000026,
      "d": 326.35625000001164,
      "v": 63
    },
    {
      "midi": 72,
      "hit": false,
      "t": 221644.50000000026,
      "d": 326.35625000001164,
      "v": 63
    },
    {
      "midi": 64,
      "hit": false,
      "t": 221977.80000000028,
      "d": 333.29999999998836,
      "v": 61
    },
    {
      "midi": 76,
      "hit": false,
      "t": 221977.80000000028,
      "d": 590.21875,
      "v": 74
    },
    {
      "midi": 72,
      "hit": false,
      "t": 222311.10000000027,
      "d": 305.5250000000233,
      "v": 90
    },
    {
      "midi": 60,
      "hit": false,
      "t": 222311.10000000027,
      "d": 319.4125000000349,
      "v": 60
    },
    {
      "midi": 69,
      "hit": false,
      "t": 222644.4000000003,
      "d": 270.8062499999942,
      "v": 100
    },
    {
      "midi": 81,
      "hit": false,
      "t": 222644.4000000003,
      "d": 333.29999999998836,
      "v": 63
    },
    {
      "midi": 64,
      "hit": false,
      "t": 222977.7000000003,
      "d": 611.0499999999884,
      "v": 57
    },
    {
      "midi": 76,
      "hit": false,
      "t": 222977.7000000003,
      "d": 611.0499999999884,
      "v": 93
    },
    {
      "midi": 72,
      "hit": false,
      "t": 223311.0000000003,
      "d": 291.63750000001164,
      "v": 87
    },
    {
      "midi": 60,
      "hit": false,
      "t": 223311.0000000003,
      "d": 298.58125000001746,
      "v": 71
    },
    {
      "midi": 57,
      "hit": false,
      "t": 223644.3000000003,
      "d": 55.55000000001746,
      "v": 51
    },
    {
      "midi": 69,
      "hit": false,
      "t": 223644.3000000003,
      "d": 263.86250000001746,
      "v": 87
    },
    {
      "midi": 57,
      "hit": false,
      "t": 223977.60000000033,
      "d": 617.9937499999942,
      "v": 109
    },
    {
      "midi": 45,
      "hit": false,
      "t": 223977.60000000033,
      "d": 2360.875000000029,
      "v": 89
    },
    {
      "midi": 60,
      "hit": false,
      "t": 224310.9000000003,
      "d": 319.4125000000058,
      "v": 57
    },
    {
      "midi": 72,
      "hit": false,
      "t": 224310.9000000003,
      "d": 319.4125000000058,
      "v": 72
    },
    {
      "midi": 76,
      "hit": false,
      "t": 224644.20000000033,
      "d": 368.01874999998836,
      "v": 62
    },
    {
      "midi": 64,
      "hit": false,
      "t": 224644.20000000033,
      "d": 374.9624999999942,
      "v": 53
    },
    {
      "midi": 72,
      "hit": false,
      "t": 224977.50000000032,
      "d": 319.4125000000058,
      "v": 81
    },
    {
      "midi": 60,
      "hit": false,
      "t": 224977.50000000032,
      "d": 326.35625000001164,
      "v": 74
    },
    {
      "midi": 69,
      "hit": false,
      "t": 225310.80000000034,
      "d": 291.63750000001164,
      "v": 99
    },
    {
      "midi": 81,
      "hit": false,
      "t": 225310.80000000034,
      "d": 347.1875000000291,
      "v": 60
    },
    {
      "midi": 64,
      "hit": false,
      "t": 225644.10000000036,
      "d": 611.0500000000175,
      "v": 67
    },
    {
      "midi": 76,
      "hit": false,
      "t": 225644.10000000036,
      "d": 611.0500000000175,
      "v": 68
    },
    {
      "midi": 60,
      "hit": false,
      "t": 225977.40000000037,
      "d": 312.46875,
      "v": 82
    },
    {
      "midi": 72,
      "hit": false,
      "t": 225977.40000000037,
      "d": 312.46875,
      "v": 76
    },
    {
      "midi": 57,
      "hit": false,
      "t": 226310.70000000036,
      "d": 20.83124999998836,
      "v": 53
    },
    {
      "midi": 69,
      "hit": false,
      "t": 226310.70000000036,
      "d": 166.64999999999418,
      "v": 60
    },
    {
      "midi": 57,
      "hit": false,
      "t": 226644.00000000035,
      "d": 416.625,
      "v": 90
    },
    {
      "midi": 45,
      "hit": false,
      "t": 226644.00000000035,
      "d": 2326.156250000029,
      "v": 84
    },
    {
      "midi": 60,
      "hit": false,
      "t": 226977.30000000034,
      "d": 312.46875,
      "v": 62
    },
    {
      "midi": 72,
      "hit": false,
      "t": 226977.30000000034,
      "d": 326.35625000001164,
      "v": 68
    },
    {
      "midi": 76,
      "hit": false,
      "t": 227310.60000000036,
      "d": 347.1875,
      "v": 73
    },
    {
      "midi": 64,
      "hit": false,
      "t": 227310.60000000036,
      "d": 368.01874999998836,
      "v": 59
    },
    {
      "midi": 60,
      "hit": false,
      "t": 227643.90000000034,
      "d": 319.4125000000058,
      "v": 73
    },
    {
      "midi": 72,
      "hit": false,
      "t": 227643.90000000034,
      "d": 319.4125000000058,
      "v": 77
    },
    {
      "midi": 69,
      "hit": false,
      "t": 227977.20000000036,
      "d": 277.75,
      "v": 99
    },
    {
      "midi": 81,
      "hit": false,
      "t": 227977.20000000036,
      "d": 319.4125000000058,
      "v": 63
    },
    {
      "midi": 64,
      "hit": false,
      "t": 228310.50000000038,
      "d": 631.8812499999767,
      "v": 77
    },
    {
      "midi": 76,
      "hit": false,
      "t": 228310.50000000038,
      "d": 652.7124999999942,
      "v": 79
    },
    {
      "midi": 60,
      "hit": false,
      "t": 228643.80000000037,
      "d": 298.58124999998836,
      "v": 79
    },
    {
      "midi": 72,
      "hit": false,
      "t": 228643.80000000037,
      "d": 312.46875,
      "v": 85
    },
    {
      "midi": 57,
      "hit": false,
      "t": 228977.10000000038,
      "d": 34.71875,
      "v": 76
    },
    {
      "midi": 69,
      "hit": false,
      "t": 228977.10000000038,
      "d": 152.76250000001164,
      "v": 93
    },
    {
      "midi": 50,
      "hit": false,
      "t": 229310.4000000004,
      "d": 1812.3187500000058,
      "v": 100
    },
    {
      "midi": 38,
      "hit": false,
      "t": 229310.4000000004,
      "d": 2270.6062500000407,
      "v": 60
    },
    {
      "midi": 65,
      "hit": false,
      "t": 229643.7000000004,
      "d": 319.4125000000058,
      "v": 73
    },
    {
      "midi": 53,
      "hit": false,
      "t": 229643.7000000004,
      "d": 326.35625000001164,
      "v": 86
    },
    {
      "midi": 57,
      "hit": false,
      "t": 229977.0000000004,
      "d": 368.01874999998836,
      "v": 58
    },
    {
      "midi": 69,
      "hit": false,
      "t": 229977.0000000004,
      "d": 381.90625,
      "v": 69
    },
    {
      "midi": 65,
      "hit": false,
      "t": 230310.3000000004,
      "d": 312.46875,
      "v": 85
    },
    {
      "midi": 53,
      "hit": false,
      "t": 230310.3000000004,
      "d": 326.35625000001164,
      "v": 90
    },
    {
      "midi": 62,
      "hit": false,
      "t": 230643.6000000004,
      "d": 270.8062499999942,
      "v": 109
    },
    {
      "midi": 74,
      "hit": false,
      "t": 230643.6000000004,
      "d": 340.2437499999942,
      "v": 72
    },
    {
      "midi": 69,
      "hit": false,
      "t": 230976.9000000004,
      "d": 590.2187500000291,
      "v": 84
    },
    {
      "midi": 57,
      "hit": false,
      "t": 230976.9000000004,
      "d": 611.0500000000466,
      "v": 72
    },
    {
      "midi": 65,
      "hit": false,
      "t": 231310.20000000042,
      "d": 305.5250000000233,
      "v": 81
    },
    {
      "midi": 53,
      "hit": false,
      "t": 231310.20000000042,
      "d": 312.4687500000291,
      "v": 93
    },
    {
      "midi": 50,
      "hit": false,
      "t": 231643.50000000044,
      "d": 138.875,
      "v": 61
    },
    {
      "midi": 62,
      "hit": false,
      "t": 231643.50000000044,
      "d": 138.875,
      "v": 65
    },
    {
      "midi": 52,
      "hit": false,
      "t": 231976.80000000042,
      "d": 1354.031249999971,
      "v": 98
    },
    {
      "midi": 40,
      "hit": false,
      "t": 231976.80000000042,
      "d": 2409.4812499999825,
      "v": 109
    },
    {
      "midi": 56,
      "hit": false,
      "t": 232310.1000000004,
      "d": 305.5249999999942,
      "v": 78
    },
    {
      "midi": 68,
      "hit": false,
      "t": 232310.1000000004,
      "d": 312.46875,
      "v": 92
    },
    {
      "midi": 59,
      "hit": false,
      "t": 232643.4000000004,
      "d": 361.07499999998254,
      "v": 76
    },
    {
      "midi": 71,
      "hit": false,
      "t": 232643.4000000004,
      "d": 374.9624999999942,
      "v": 82
    },
    {
      "midi": 68,
      "hit": false,
      "t": 232976.7000000004,
      "d": 312.46875,
      "v": 70
    },
    {
      "midi": 56,
      "hit": false,
      "t": 232976.7000000004,
      "d": 347.1875,
      "v": 84
    },
    {
      "midi": 76,
      "hit": false,
      "t": 233310.00000000038,
      "d": 305.5250000000233,
      "v": 44
    },
    {
      "midi": 64,
      "hit": false,
      "t": 233310.00000000038,
      "d": 347.1875000000291,
      "v": 113
    },
    {
      "midi": 59,
      "hit": false,
      "t": 233643.3000000004,
      "d": 354.1312500000058,
      "v": 95
    },
    {
      "midi": 71,
      "hit": false,
      "t": 233643.3000000004,
      "d": 451.34375,
      "v": 87
    },
    {
      "midi": 56,
      "hit": false,
      "t": 233976.6000000004,
      "d": 284.6937499999767,
      "v": 90
    },
    {
      "midi": 68,
      "hit": false,
      "t": 233976.6000000004,
      "d": 284.6937499999767,
      "v": 96
    },
    {
      "midi": 52,
      "hit": false,
      "t": 234309.9000000004,
      "d": 76.38125000000582,
      "v": 81
    },
    {
      "midi": 64,
      "hit": false,
      "t": 234309.9000000004,
      "d": 208.3125,
      "v": 84
    },
    {
      "midi": 52,
      "hit": false,
      "t": 234643.2000000004,
      "d": 631.8812500000058,
      "v": 90
    },
    {
      "midi": 40,
      "hit": false,
      "t": 234643.2000000004,
      "d": 2305.3250000000116,
      "v": 76
    },
    {
      "midi": 68,
      "hit": false,
      "t": 234976.50000000038,
      "d": 291.63750000001164,
      "v": 94
    },
    {
      "midi": 56,
      "hit": false,
      "t": 234976.50000000038,
      "d": 319.4125000000058,
      "v": 81
    },
    {
      "midi": 59,
      "hit": false,
      "t": 235309.8000000004,
      "d": 340.2437499999942,
      "v": 84
    },
    {
      "midi": 71,
      "hit": false,
      "t": 235309.8000000004,
      "d": 340.2437499999942,
      "v": 85
    },
    {
      "midi": 56,
      "hit": false,
      "t": 235643.10000000038,
      "d": 319.4125000000058,
      "v": 86
    },
    {
      "midi": 68,
      "hit": false,
      "t": 235643.10000000038,
      "d": 319.4125000000058,
      "v": 88
    },
    {
      "midi": 64,
      "hit": false,
      "t": 235976.4000000004,
      "d": 270.8062499999942,
      "v": 99
    },
    {
      "midi": 76,
      "hit": false,
      "t": 235976.4000000004,
      "d": 312.46875,
      "v": 71
    },
    {
      "midi": 59,
      "hit": false,
      "t": 236309.7000000004,
      "d": 368.01874999998836,
      "v": 96
    },
    {
      "midi": 71,
      "hit": false,
      "t": 236309.7000000004,
      "d": 590.21875,
      "v": 89
    },
    {
      "midi": 56,
      "hit": false,
      "t": 236643.00000000038,
      "d": 256.91875000001164,
      "v": 100
    },
    {
      "midi": 68,
      "hit": false,
      "t": 236643.00000000038,
      "d": 263.86250000001746,
      "v": 102
    },
    {
      "midi": 52,
      "hit": false,
      "t": 236976.3000000004,
      "d": 173.59375,
      "v": 87
    },
    {
      "midi": 64,
      "hit": false,
      "t": 236976.3000000004,
      "d": 173.59375,
      "v": 96
    },
    {
      "midi": 50,
      "hit": false,
      "t": 237309.60000000038,
      "d": 986.0124999999825,
      "v": 100
    },
    {
      "midi": 38,
      "hit": false,
      "t": 237309.60000000038,
      "d": 1062.3937500000175,
      "v": 59
    },
    {
      "midi": 62,
      "hit": false,
      "t": 237309.60000000038,
      "d": 1117.9437500000058,
      "v": 89
    },
    {
      "midi": 65,
      "hit": false,
      "t": 237642.90000000037,
      "d": 340.2437499999942,
      "v": 81
    },
    {
      "midi": 53,
      "hit": false,
      "t": 237642.90000000037,
      "d": 361.07499999998254,
      "v": 72
    },
    {
      "midi": 57,
      "hit": false,
      "t": 237976.20000000036,
      "d": 381.9062500000291,
      "v": 72
    },
    {
      "midi": 69,
      "hit": false,
      "t": 237976.20000000036,
      "d": 381.9062500000291,
      "v": 79
    },
    {
      "midi": 65,
      "hit": false,
      "t": 238309.50000000038,
      "d": 187.48125000001164,
      "v": 96
    },
    {
      "midi": 53,
      "hit": false,
      "t": 238309.50000000038,
      "d": 215.25625000000582,
      "v": 90
    },
    {
      "midi": 52,
      "hit": false,
      "t": 238642.8000000004,
      "d": 999.8999999999651,
      "v": 111
    },
    {
      "midi": 64,
      "hit": false,
      "t": 238642.8000000004,
      "d": 999.8999999999651,
      "v": 109
    },
    {
      "midi": 40,
      "hit": false,
      "t": 238642.8000000004,
      "d": 1020.7312499999825,
      "v": 73
    },
    {
      "midi": 56,
      "hit": false,
      "t": 238976.10000000038,
      "d": 493.0062499999767,
      "v": 72
    },
    {
      "midi": 68,
      "hit": false,
      "t": 238976.10000000038,
      "d": 652.7124999999651,
      "v": 73
    },
    {
      "midi": 59,
      "hit": false,
      "t": 239309.40000000037,
      "d": 347.1875,
      "v": 89
    },
    {
      "midi": 71,
      "hit": false,
      "t": 239309.40000000037,
      "d": 347.1875,
      "v": 80
    },
    {
      "midi": 64,
      "hit": false,
      "t": 239642.70000000036,
      "d": 243.0312500000291,
      "v": 77
    },
    {
      "midi": 76,
      "hit": false,
      "t": 239642.70000000036,
      "d": 256.91875000004075,
      "v": 58
    },
    {
      "midi": 57,
      "hit": false,
      "t": 239976.0000000004,
      "d": 361.07499999998254,
      "v": 111
    },
    {
      "midi": 45,
      "hit": false,
      "t": 239976.0000000004,
      "d": 2298.381250000035,
      "v": 86
    },
    {
      "midi": 60,
      "hit": false,
      "t": 240309.3000000004,
      "d": 326.35624999998254,
      "v": 63
    },
    {
      "midi": 72,
      "hit": false,
      "t": 240309.3000000004,
      "d": 326.35624999998254,
      "v": 63
    },
    {
      "midi": 64,
      "hit": false,
      "t": 240642.60000000038,
      "d": 333.29999999998836,
      "v": 61
    },
    {
      "midi": 76,
      "hit": false,
      "t": 240642.60000000038,
      "d": 590.21875,
      "v": 74
    },
    {
      "midi": 72,
      "hit": false,
      "t": 240975.90000000037,
      "d": 305.5250000000233,
      "v": 90
    },
    {
      "midi": 60,
      "hit": false,
      "t": 240975.90000000037,
      "d": 319.4125000000349,
      "v": 60
    },
    {
      "midi": 69,
      "hit": false,
      "t": 241309.20000000042,
      "d": 256.91875000001164,
      "v": 100
    },
    {
      "midi": 81,
      "hit": false,
      "t": 241309.20000000042,
      "d": 333.30000000001746,
      "v": 63
    },
    {
      "midi": 64,
      "hit": false,
      "t": 241642.50000000044,
      "d": 576.3312499999884,
      "v": 57
    },
    {
      "midi": 76,
      "hit": false,
      "t": 241642.50000000044,
      "d": 576.3312499999884,
      "v": 93
    },
    {
      "midi": 72,
      "hit": false,
      "t": 241975.80000000042,
      "d": 284.6937500000058,
      "v": 87
    },
    {
      "midi": 60,
      "hit": false,
      "t": 241975.80000000042,
      "d": 291.63750000001164,
      "v": 71
    },
    {
      "midi": 57,
      "hit": false,
      "t": 242309.10000000044,
      "d": 166.64999999999418,
      "v": 51
    },
    {
      "midi": 69,
      "hit": false,
      "t": 242309.10000000044,
      "d": 249.97500000000582,
      "v": 87
    },
    {
      "midi": 50,
      "hit": false,
      "t": 242642.40000000046,
      "d": 951.2937500000116,
      "v": 100
    },
    {
      "midi": 38,
      "hit": false,
      "t": 242642.40000000046,
      "d": 1034.6187500000233,
      "v": 59
    },
    {
      "midi": 62,
      "hit": false,
      "t": 242642.40000000046,
      "d": 1090.1687500000407,
      "v": 89
    },
    {
      "midi": 65,
      "hit": false,
      "t": 242975.70000000045,
      "d": 319.4125000000058,
      "v": 81
    },
    {
      "midi": 53,
      "hit": false,
      "t": 242975.70000000045,
      "d": 340.2437500000233,
      "v": 72
    },
    {
      "midi": 57,
      "hit": false,
      "t": 243309.00000000047,
      "d": 374.9625000000233,
      "v": 72
    },
    {
      "midi": 69,
      "hit": false,
      "t": 243309.00000000047,
      "d": 374.9625000000233,
      "v": 79
    },
    {
      "midi": 65,
      "hit": false,
      "t": 243642.30000000048,
      "d": 187.48125000001164,
      "v": 96
    },
    {
      "midi": 53,
      "hit": false,
      "t": 243642.30000000048,
      "d": 215.25625000000582,
      "v": 90
    },
    {
      "midi": 52,
      "hit": false,
      "t": 243975.6000000005,
      "d": 923.5187499999593,
      "v": 111
    },
    {
      "midi": 64,
      "hit": false,
      "t": 243975.6000000005,
      "d": 923.5187499999593,
      "v": 109
    },
    {
      "midi": 40,
      "hit": false,
      "t": 243975.6000000005,
      "d": 944.3499999999476,
      "v": 73
    },
    {
      "midi": 56,
      "hit": false,
      "t": 244308.9000000005,
      "d": 458.2874999999767,
      "v": 72
    },
    {
      "midi": 68,
      "hit": false,
      "t": 244308.9000000005,
      "d": 617.9937499999651,
      "v": 73
    },
    {
      "midi": 59,
      "hit": false,
      "t": 244642.20000000048,
      "d": 333.29999999998836,
      "v": 89
    },
    {
      "midi": 71,
      "hit": false,
      "t": 244642.20000000048,
      "d": 333.29999999998836,
      "v": 80
    },
    {
      "midi": 64,
      "hit": false,
      "t": 244975.50000000047,
      "d": 236.08749999999418,
      "v": 77
    },
    {
      "midi": 76,
      "hit": false,
      "t": 244975.50000000047,
      "d": 249.97500000000582,
      "v": 58
    },
    {
      "midi": 57,
      "hit": false,
      "t": 245308.80000000048,
      "d": 354.1312499999767,
      "v": 111
    },
    {
      "midi": 45,
      "hit": false,
      "t": 245308.80000000048,
      "d": 2208.1124999999884,
      "v": 86
    },
    {
      "midi": 60,
      "hit": false,
      "t": 245642.10000000047,
      "d": 319.4124999999767,
      "v": 63
    },
    {
      "midi": 72,
      "hit": false,
      "t": 245642.10000000047,
      "d": 319.4124999999767,
      "v": 63
    },
    {
      "midi": 64,
      "hit": false,
      "t": 245975.40000000046,
      "d": 319.4125000000058,
      "v": 61
    },
    {
      "midi": 76,
      "hit": false,
      "t": 245975.40000000046,
      "d": 562.4437500000058,
      "v": 74
    },
    {
      "midi": 72,
      "hit": false,
      "t": 246308.70000000048,
      "d": 277.75,
      "v": 90
    },
    {
      "midi": 60,
      "hit": false,
      "t": 246308.70000000048,
      "d": 284.6937500000058,
      "v": 60
    },
    {
      "midi": 69,
      "hit": false,
      "t": 246642.0000000005,
      "d": 194.42499999998836,
      "v": 100
    },
    {
      "midi": 81,
      "hit": false,
      "t": 246642.0000000005,
      "d": 305.5249999999942,
      "v": 63
    },
    {
      "midi": 64,
      "hit": false,
      "t": 246975.30000000048,
      "d": 562.4437499999767,
      "v": 57
    },
    {
      "midi": 76,
      "hit": false,
      "t": 246975.30000000048,
      "d": 562.4437499999767,
      "v": 93
    },
    {
      "midi": 72,
      "hit": false,
      "t": 247308.60000000047,
      "d": 263.86249999998836,
      "v": 87
    },
    {
      "midi": 60,
      "hit": false,
      "t": 247308.60000000047,
      "d": 270.8062499999942,
      "v": 71
    },
    {
      "midi": 57,
      "hit": false,
      "t": 247641.90000000046,
      "d": 187.48125000001164,
      "v": 51
    },
    {
      "midi": 69,
      "hit": false,
      "t": 247641.90000000046,
      "d": 243.03125,
      "v": 87
    },
    {
      "midi": 69,
      "hit": false,
      "t": 247975.20000000045,
      "d": 1805.375000000029,
      "v": 99
    },
    {
      "midi": 57,
      "hit": false,
      "t": 247975.20000000045,
      "d": 2249.7750000000233,
      "v": 99
    },
    {
      "midi": 72,
      "hit": false,
      "t": 248308.50000000044,
      "d": 326.35625000001164,
      "v": 82
    },
    {
      "midi": 76,
      "hit": false,
      "t": 248641.80000000045,
      "d": 381.90625,
      "v": 76
    },
    {
      "midi": 72,
      "hit": false,
      "t": 248975.10000000044,
      "d": 284.6937500000058,
      "v": 98
    },
    {
      "midi": 81,
      "hit": false,
      "t": 249308.40000000046,
      "d": 319.4125000000058,
      "v": 59
    },
    {
      "midi": 76,
      "hit": false,
      "t": 249641.70000000048,
      "d": 624.9375,
      "v": 105
    },
    {
      "midi": 72,
      "hit": false,
      "t": 249975.00000000047,
      "d": 284.6937500000058,
      "v": 103
    },
    {
      "midi": 69,
      "hit": false,
      "t": 250308.30000000048,
      "d": 111.10000000000582,
      "v": 107
    },
    {
      "midi": 62,
      "hit": false,
      "t": 250641.6000000005,
      "d": 1805.375,
      "v": 111
    },
    {
      "midi": 50,
      "hit": false,
      "t": 250641.6000000005,
      "d": 2263.662500000006,
      "v": 57
    },
    {
      "midi": 65,
      "hit": false,
      "t": 250974.9000000005,
      "d": 340.2437499999942,
      "v": 76
    },
    {
      "midi": 69,
      "hit": false,
      "t": 251308.20000000048,
      "d": 548.5562500000233,
      "v": 65
    },
    {
      "midi": 65,
      "hit": false,
      "t": 251641.5000000005,
      "d": 312.46875,
      "v": 93
    },
    {
      "midi": 74,
      "hit": false,
      "t": 251974.80000000048,
      "d": 319.4125000000058,
      "v": 66
    },
    {
      "midi": 69,
      "hit": false,
      "t": 252308.1000000005,
      "d": 590.21875,
      "v": 92
    },
    {
      "midi": 65,
      "hit": false,
      "t": 252641.4000000005,
      "d": 284.6937500000058,
      "v": 95
    },
    {
      "midi": 62,
      "hit": false,
      "t": 252974.7000000005,
      "d": 173.59375,
      "v": 85
    },
    {
      "midi": 64,
      "hit": false,
      "t": 253308.0000000005,
      "d": 1888.7000000000116,
      "v": 116
    },
    {
      "midi": 52,
      "hit": false,
      "t": 253308.0000000005,
      "d": 2277.5500000000175,
      "v": 75
    },
    {
      "midi": 68,
      "hit": false,
      "t": 253641.30000000048,
      "d": 298.58124999998836,
      "v": 102
    },
    {
      "midi": 71,
      "hit": false,
      "t": 253974.60000000047,
      "d": 340.2437499999942,
      "v": 63
    },
    {
      "midi": 68,
      "hit": false,
      "t": 254307.90000000046,
      "d": 319.4125000000058,
      "v": 114
    },
    {
      "midi": 76,
      "hit": false,
      "t": 254641.20000000048,
      "d": 319.4125000000058,
      "v": 68
    },
    {
      "midi": 71,
      "hit": false,
      "t": 254974.5000000005,
      "d": 611.0500000000175,
      "v": 103
    },
    {
      "midi": 68,
      "hit": false,
      "t": 255307.8000000005,
      "d": 298.58124999998836,
      "v": 106
    },
    {
      "midi": 64,
      "hit": false,
      "t": 255641.1000000005,
      "d": 118.04375000001164,
      "v": 67
    },
    {
      "midi": 69,
      "hit": false,
      "t": 255974.40000000052,
      "d": 1853.9812499999534,
      "v": 109
    },
    {
      "midi": 57,
      "hit": false,
      "t": 255974.40000000052,
      "d": 2228.9437499999476,
      "v": 53
    },
    {
      "midi": 72,
      "hit": false,
      "t": 256307.7000000005,
      "d": 305.5249999999942,
      "v": 85
    },
    {
      "midi": 76,
      "hit": false,
      "t": 256641.0000000005,
      "d": 416.625,
      "v": 67
    },
    {
      "midi": 72,
      "hit": false,
      "t": 256974.30000000048,
      "d": 312.46875,
      "v": 92
    },
    {
      "midi": 81,
      "hit": false,
      "t": 257307.60000000047,
      "d": 333.29999999998836,
      "v": 60
    },
    {
      "midi": 76,
      "hit": false,
      "t": 257640.90000000046,
      "d": 562.4437500000058,
      "v": 75
    },
    {
      "midi": 72,
      "hit": false,
      "t": 257974.20000000048,
      "d": 270.8062499999942,
      "v": 72
    },
    {
      "midi": 69,
      "hit": false,
      "t": 258307.50000000047,
      "d": 187.48125000001164,
      "v": 79
    },
    {
      "midi": 69,
      "hit": false,
      "t": 258640.80000000048,
      "d": 1756.7687500000175,
      "v": 95
    },
    {
      "midi": 57,
      "hit": false,
      "t": 258640.80000000048,
      "d": 2298.381250000006,
      "v": 92
    },
    {
      "midi": 72,
      "hit": false,
      "t": 258974.10000000047,
      "d": 319.4125000000058,
      "v": 81
    },
    {
      "midi": 76,
      "hit": false,
      "t": 259307.4000000005,
      "d": 326.35625000001164,
      "v": 63
    },
    {
      "midi": 72,
      "hit": false,
      "t": 259640.7000000005,
      "d": 326.35625000001164,
      "v": 70
    },
    {
      "midi": 81,
      "hit": false,
      "t": 259974.00000000052,
      "d": 312.46875,
      "v": 57
    },
    {
      "midi": 76,
      "hit": false,
      "t": 260307.3000000005,
      "d": 611.0499999999884,
      "v": 92
    },
    {
      "midi": 72,
      "hit": false,
      "t": 260640.6000000005,
      "d": 312.46875,
      "v": 86
    },
    {
      "midi": 69,
      "hit": false,
      "t": 260973.9000000005,
      "d": 97.21249999999418,
      "v": 92
    },
    {
      "midi": 62,
      "hit": false,
      "t": 261307.20000000048,
      "d": 1833.149999999965,
      "v": 100
    },
    {
      "midi": 50,
      "hit": false,
      "t": 261307.20000000048,
      "d": 2333.0999999999767,
      "v": 59
    },
    {
      "midi": 65,
      "hit": false,
      "t": 261640.50000000047,
      "d": 354.1312499999767,
      "v": 79
    },
    {
      "midi": 69,
      "hit": false,
      "t": 261973.80000000045,
      "d": 368.01874999998836,
      "v": 71
    },
    {
      "midi": 65,
      "hit": false,
      "t": 262307.10000000044,
      "d": 333.29999999998836,
      "v": 79
    },
    {
      "midi": 74,
      "hit": false,
      "t": 262640.40000000043,
      "d": 361.07500000001164,
      "v": 56
    },
    {
      "midi": 69,
      "hit": false,
      "t": 262973.7000000004,
      "d": 611.0500000000466,
      "v": 74
    },
    {
      "midi": 65,
      "hit": false,
      "t": 263307.00000000047,
      "d": 291.63750000001164,
      "v": 77
    },
    {
      "midi": 62,
      "hit": false,
      "t": 263640.30000000045,
      "d": 145.81874999997672,
      "v": 80
    },
    {
      "midi": 64,
      "hit": false,
      "t": 263973.60000000044,
      "d": 1791.4874999999884,
      "v": 109
    },
    {
      "midi": 52,
      "hit": false,
      "t": 263973.60000000044,
      "d": 2124.7874999999767,
      "v": 73
    },
    {
      "midi": 68,
      "hit": false,
      "t": 264306.90000000043,
      "d": 298.58124999998836,
      "v": 94
    },
    {
      "midi": 71,
      "hit": false,
      "t": 264640.2000000004,
      "d": 361.07500000001164,
      "v": 80
    },
    {
      "midi": 68,
      "hit": false,
      "t": 264973.5000000004,
      "d": 298.58125000004657,
      "v": 98
    },
    {
      "midi": 76,
      "hit": false,
      "t": 265306.80000000045,
      "d": 326.35625000001164,
      "v": 65
    },
    {
      "midi": 71,
      "hit": false,
      "t": 265640.10000000044,
      "d": 597.1624999999767,
      "v": 80
    },
    {
      "midi": 68,
      "hit": false,
      "t": 265973.40000000043,
      "d": 284.6937499999767,
      "v": 102
    },
    {
      "midi": 64,
      "hit": false,
      "t": 266306.7000000004,
      "d": 62.49375000002328,
      "v": 77
    },
    {
      "midi": 57,
      "hit": false,
      "t": 266640.00000000047,
      "d": 2326.1562499998836,
      "v": 57
    },
    {
      "midi": 69,
      "hit": false,
      "t": 266640.00000000047,
      "d": 2346.987499999872,
      "v": 100
    },
    {
      "midi": 72,
      "hit": false,
      "t": 266973.30000000045,
      "d": 333.29999999998836,
      "v": 76
    },
    {
      "midi": 76,
      "hit": false,
      "t": 267306.60000000044,
      "d": 354.1312499999767,
      "v": 63
    },
    {
      "midi": 72,
      "hit": false,
      "t": 267639.90000000043,
      "d": 305.5249999999651,
      "v": 80
    },
    {
      "midi": 81,
      "hit": false,
      "t": 267973.2000000004,
      "d": 347.1875,
      "v": 62
    },
    {
      "midi": 76,
      "hit": false,
      "t": 268306.5000000004,
      "d": 354.1312499999767,
      "v": 80
    },
    {
      "midi": 72,
      "hit": false,
      "t": 268639.8000000004,
      "d": 305.5249999999651,
      "v": 84
    },
    {
      "midi": 81,
      "hit": false,
      "t": 268973.1000000003,
      "d": 208.3125,
      "v": 51
    },
    {
      "midi": 69,
      "hit": false,
      "t": 269306.4000000003,
      "d": 1784.5437500000116,
      "v": 95
    },
    {
      "midi": 57,
      "hit": false,
      "t": 269306.4000000003,
      "d": 2256.71875,
      "v": 71
    },
    {
      "midi": 72,
      "hit": false,
      "t": 269639.7000000003,
      "d": 319.4124999999767,
      "v": 72
    },
    {
      "midi": 76,
      "hit": false,
      "t": 269973.0000000003,
      "d": 347.1875,
      "v": 73
    },
    {
      "midi": 72,
      "hit": false,
      "t": 270306.3000000003,
      "d": 305.5250000000233,
      "v": 89
    },
    {
      "midi": 81,
      "hit": false,
      "t": 270639.6000000003,
      "d": 291.63750000001164,
      "v": 61
    },
    {
      "midi": 76,
      "hit": false,
      "t": 270972.9000000003,
      "d": 597.1624999999767,
      "v": 89
    },
    {
      "midi": 72,
      "hit": false,
      "t": 271306.2000000003,
      "d": 298.58124999998836,
      "v": 87
    },
    {
      "midi": 69,
      "hit": false,
      "t": 271639.5000000003,
      "d": 124.98749999998836,
      "v": 89
    },
    {
      "midi": 62,
      "hit": false,
      "t": 271972.8000000003,
      "d": 1659.556249999965,
      "v": 93
    },
    {
      "midi": 50,
      "hit": false,
      "t": 271972.8000000003,
      "d": 2215.056249999907,
      "v": 53
    },
    {
      "midi": 65,
      "hit": false,
      "t": 272306.10000000027,
      "d": 319.4124999999767,
      "v": 73
    },
    {
      "midi": 69,
      "hit": false,
      "t": 272639.40000000026,
      "d": 624.9375,
      "v": 74
    },
    {
      "midi": 65,
      "hit": false,
      "t": 272972.70000000024,
      "d": 312.46875,
      "v": 98
    },
    {
      "midi": 74,
      "hit": false,
      "t": 273306.00000000023,
      "d": 326.35625000001164,
      "v": 63
    },
    {
      "midi": 69,
      "hit": false,
      "t": 273639.3000000002,
      "d": 569.3874999999534,
      "v": 92
    },
    {
      "midi": 65,
      "hit": false,
      "t": 273972.6000000002,
      "d": 277.7499999999418,
      "v": 90
    },
    {
      "midi": 62,
      "hit": false,
      "t": 274305.90000000014,
      "d": 145.81874999997672,
      "v": 74
    },
    {
      "midi": 64,
      "hit": false,
      "t": 274639.2000000001,
      "d": 1867.868749999965,
      "v": 105
    },
    {
      "midi": 52,
      "hit": false,
      "t": 274639.2000000001,
      "d": 2263.6624999999767,
      "v": 65
    },
    {
      "midi": 68,
      "hit": false,
      "t": 274972.5000000001,
      "d": 291.63750000001164,
      "v": 96
    },
    {
      "midi": 71,
      "hit": false,
      "t": 275305.8000000001,
      "d": 631.8812499999767,
      "v": 80
    },
    {
      "midi": 68,
      "hit": false,
      "t": 275639.1000000001,
      "d": 319.4124999999767,
      "v": 102
    },
    {
      "midi": 76,
      "hit": false,
      "t": 275972.4000000001,
      "d": 312.46875,
      "v": 68
    },
    {
      "midi": 71,
      "hit": false,
      "t": 276305.70000000007,
      "d": 624.9375000000582,
      "v": 87
    },
    {
      "midi": 68,
      "hit": false,
      "t": 276639.0000000001,
      "d": 298.58124999998836,
      "v": 100
    },
    {
      "midi": 64,
      "hit": false,
      "t": 276972.3000000001,
      "d": 97.21250000002328,
      "v": 67
    },
    {
      "midi": 69,
      "hit": false,
      "t": 277305.60000000015,
      "d": 1819.2624999998952,
      "v": 98
    },
    {
      "midi": 57,
      "hit": false,
      "t": 277305.60000000015,
      "d": 2284.493749999907,
      "v": 53
    },
    {
      "midi": 72,
      "hit": false,
      "t": 277638.90000000014,
      "d": 319.4124999999767,
      "v": 70
    },
    {
      "midi": 76,
      "hit": false,
      "t": 277972.2000000001,
      "d": 354.1312499999767,
      "v": 71
    },
    {
      "midi": 72,
      "hit": false,
      "t": 278305.5000000001,
      "d": 333.29999999998836,
      "v": 89
    },
    {
      "midi": 81,
      "hit": false,
      "t": 278638.8000000001,
      "d": 340.2437499999651,
      "v": 57
    },
    {
      "midi": 76,
      "hit": false,
      "t": 278972.1000000001,
      "d": 576.3312499999302,
      "v": 93
    },
    {
      "midi": 72,
      "hit": false,
      "t": 279305.4,
      "d": 256.91875000001164,
      "v": 84
    },
    {
      "midi": 69,
      "hit": false,
      "t": 279638.70000000007,
      "d": 173.59375,
      "v": 70
    },
    {
      "midi": 69,
      "hit": false,
      "t": 279972.00000000006,
      "d": 1742.8812499999185,
      "v": 95
    },
    {
      "midi": 57,
      "hit": false,
      "t": 279972.00000000006,
      "d": 2284.493749999907,
      "v": 60
    },
    {
      "midi": 72,
      "hit": false,
      "t": 280305.30000000005,
      "d": 291.63750000001164,
      "v": 80
    },
    {
      "midi": 76,
      "hit": false,
      "t": 280638.60000000003,
      "d": 617.9937499999651,
      "v": 77
    },
    {
      "midi": 72,
      "hit": false,
      "t": 280971.9,
      "d": 312.46875,
      "v": 85
    },
    {
      "midi": 81,
      "hit": false,
      "t": 281305.2,
      "d": 326.35625000001164,
      "v": 56
    },
    {
      "midi": 76,
      "hit": false,
      "t": 281638.5,
      "d": 624.9374999999418,
      "v": 90
    },
    {
      "midi": 72,
      "hit": false,
      "t": 281971.8,
      "d": 326.35624999995343,
      "v": 82
    },
    {
      "midi": 69,
      "hit": false,
      "t": 282305.0999999999,
      "d": 97.21250000002328,
      "v": 60
    },
    {
      "midi": 62,
      "hit": false,
      "t": 282638.39999999997,
      "d": 1805.3749999999418,
      "v": 103
    },
    {
      "midi": 50,
      "hit": false,
      "t": 282638.39999999997,
      "d": 2305.3249999999534,
      "v": 51
    },
    {
      "midi": 65,
      "hit": false,
      "t": 282971.69999999995,
      "d": 347.1875,
      "v": 60
    },
    {
      "midi": 69,
      "hit": false,
      "t": 283304.99999999994,
      "d": 374.9624999999651,
      "v": 66
    },
    {
      "midi": 65,
      "hit": false,
      "t": 283638.29999999993,
      "d": 319.4124999999767,
      "v": 81
    },
    {
      "midi": 74,
      "hit": false,
      "t": 283971.5999999999,
      "d": 381.90625,
      "v": 66
    },
    {
      "midi": 69,
      "hit": false,
      "t": 284304.8999999999,
      "d": 611.0499999999884,
      "v": 72
    },
    {
      "midi": 65,
      "hit": false,
      "t": 284638.1999999999,
      "d": 291.63750000001164,
      "v": 79
    },
    {
      "midi": 62,
      "hit": false,
      "t": 284971.49999999994,
      "d": 152.76250000001164,
      "v": 67
    },
    {
      "midi": 64,
      "hit": false,
      "t": 285304.79999999993,
      "d": 1666.4999999999418,
      "v": 92
    },
    {
      "midi": 52,
      "hit": false,
      "t": 285304.79999999993,
      "d": 2152.5624999998836,
      "v": 73
    },
    {
      "midi": 68,
      "hit": false,
      "t": 285638.0999999999,
      "d": 284.6937499999767,
      "v": 80
    },
    {
      "midi": 71,
      "hit": false,
      "t": 285971.3999999999,
      "d": 319.4124999999767,
      "v": 74
    },
    {
      "midi": 68,
      "hit": false,
      "t": 286304.6999999999,
      "d": 319.4124999999767,
      "v": 78
    },
    {
      "midi": 76,
      "hit": false,
      "t": 286637.9999999999,
      "d": 354.1312499999767,
      "v": 68
    },
    {
      "midi": 71,
      "hit": false,
      "t": 286971.2999999999,
      "d": 340.2437499999651,
      "v": 74
    },
    {
      "midi": 68,
      "hit": false,
      "t": 287304.59999999986,
      "d": 284.6937499999767,
      "v": 94
    },
    {
      "midi": 64,
      "hit": false,
      "t": 287637.89999999985,
      "d": 97.21250000002328,
      "v": 69
    },
    {
      "midi": 69,
      "hit": false,
      "t": 287971.1999999999,
      "d": 2166.4499999999534,
      "v": 92
    },
    {
      "midi": 57,
      "hit": false,
      "t": 287971.1999999999,
      "d": 2395.593749999942,
      "v": 56
    },
    {
      "midi": 72,
      "hit": false,
      "t": 288304.4999999999,
      "d": 291.63750000001164,
      "v": 67
    },
    {
      "midi": 76,
      "hit": false,
      "t": 288637.7999999999,
      "d": 354.1312499999767,
      "v": 68
    },
    {
      "midi": 72,
      "hit": false,
      "t": 288971.09999999986,
      "d": 284.6937499999767,
      "v": 79
    },
    {
      "midi": 81,
      "hit": false,
      "t": 289304.39999999985,
      "d": 354.1312499999767,
      "v": 54
    },
    {
      "midi": 76,
      "hit": false,
      "t": 289637.69999999984,
      "d": 604.1062500000116,
      "v": 75
    },
    {
      "midi": 72,
      "hit": false,
      "t": 289970.9999999998,
      "d": 312.46875,
      "v": 69
    },
    {
      "midi": 81,
      "hit": false,
      "t": 290304.2999999998,
      "d": 284.6937500000349,
      "v": 61
    },
    {
      "midi": 64,
      "hit": false,
      "t": 290637.59999999986,
      "d": 1652.6124999999302,
      "v": 92
    },
    {
      "midi": 52,
      "hit": false,
      "t": 290637.59999999986,
      "d": 2138.6749999999884,
      "v": 73
    },
    {
      "midi": 68,
      "hit": false,
      "t": 290970.89999999985,
      "d": 284.6937499999767,
      "v": 80
    },
    {
      "midi": 71,
      "hit": false,
      "t": 291304.19999999984,
      "d": 312.46875,
      "v": 74
    },
    {
      "midi": 68,
      "hit": false,
      "t": 291637.4999999998,
      "d": 312.46875,
      "v": 78
    },
    {
      "midi": 76,
      "hit": false,
      "t": 291970.7999999998,
      "d": 361.07500000001164,
      "v": 68
    },
    {
      "midi": 71,
      "hit": false,
      "t": 292304.0999999998,
      "d": 333.30000000004657,
      "v": 74
    },
    {
      "midi": 68,
      "hit": false,
      "t": 292637.39999999985,
      "d": 284.6937499999767,
      "v": 94
    },
    {
      "midi": 64,
      "hit": false,
      "t": 292970.69999999984,
      "d": 97.21250000002328,
      "v": 69
    },
    {
      "midi": 69,
      "hit": false,
      "t": 293303.9999999999,
      "d": 2103.9562500000466,
      "v": 92
    },
    {
      "midi": 72,
      "hit": false,
      "t": 293637.2999999999,
      "d": 291.63750000001164,
      "v": 67
    },
    {
      "midi": 76,
      "hit": false,
      "t": 293970.59999999986,
      "d": 347.1875,
      "v": 68
    },
    {
      "midi": 72,
      "hit": false,
      "t": 294303.89999999985,
      "d": 256.91875000001164,
      "v": 79
    },
    {
      "midi": 81,
      "hit": false,
      "t": 294637.19999999984,
      "d": 354.1312500000349,
      "v": 54
    },
    {
      "midi": 45,
      "hit": false,
      "t": 294637.19999999984,
      "d": 423.5687500000349,
      "v": 90
    },
    {
      "midi": 48,
      "hit": false,
      "t": 294803.84999999986,
      "d": 291.63750000001164,
      "v": 89
    },
    {
      "midi": 57,
      "hit": false,
      "t": 294970.4999999999,
      "d": 138.875,
      "v": 89
    },
    {
      "midi": 52,
      "hit": false,
      "t": 294970.4999999999,
      "d": 166.65000000002328,
      "v": 63
    },
    {
      "midi": 76,
      "hit": false,
      "t": 294970.4999999999,
      "d": 569.3875000000698,
      "v": 75
    },
    {
      "midi": 60,
      "hit": false,
      "t": 295137.1499999999,
      "d": 215.25625000003492,
      "v": 86
    },
    {
      "midi": 64,
      "hit": false,
      "t": 295303.79999999993,
      "d": 173.59375,
      "v": 69
    },
    {
      "midi": 72,
      "hit": false,
      "t": 295303.79999999993,
      "d": 298.58125000004657,
      "v": 69
    },
    {
      "midi": 57,
      "hit": false,
      "t": 295470.44999999995,
      "d": 395.79375000006985,
      "v": 45
    },
    {
      "midi": 81,
      "hit": false,
      "t": 295637.1,
      "d": 284.6937500000349,
      "v": 61
    },
    {
      "midi": 60,
      "hit": false,
      "t": 295637.1,
      "d": 2152.562500000058,
      "v": 76
    },
    {
      "midi": 64,
      "hit": false,
      "t": 295803.75,
      "d": 1999.8000000000466,
      "v": 54
    },
    {
      "midi": 69,
      "hit": false,
      "t": 295970.4,
      "d": 1958.1375000000116,
      "v": 90
    },
    {
      "midi": 72,
      "hit": false,
      "t": 296137.05000000005,
      "d": 1756.7687499999884,
      "v": 82
    },
    {
      "midi": 76,
      "hit": false,
      "t": 296470.35000000003,
      "d": 1506.7937500000116,
      "v": 62
    },
    {
      "midi": 81,
      "hit": false,
      "t": 296637.00000000006,
      "d": 1312.368749999965,
      "v": 68
    }
  ]
}