{
  "jsonPath": "Pop/Classic Italian Pop/Lucio Dalla/anna-e-marco.json",
  "path": "Pop\\Classic Italian Pop\\Lucio Dalla\\Anna E Marco.mid",
  "name": "Anna E Marco",
  "difficulty": "Advanced",
  "bpm": 130.0026650546336,
  "notes": [
    {
      "midi": 70,
      "hit": false,
      "t": 2.4037968750000003,
      "d": 673.063125,
      "v": 83
    },
    {
      "midi": 74,
      "hit": false,
      "t": 2.4037968750000003,
      "d": 807.67575,
      "v": 103
    },
    {
      "midi": 65,
      "hit": false,
      "t": 689.889703125,
      "d": 233.168296875,
      "v": 99
    },
    {
      "midi": 70,
      "hit": false,
      "t": 923.058,
      "d": 228.3607031250001,
      "v": 103
    },
    {
      "midi": 74,
      "hit": false,
      "t": 925.461796875,
      "d": 206.72653125,
      "v": 119
    },
    {
      "midi": 69,
      "hit": false,
      "t": 1153.8225,
      "d": 689.8897031250001,
      "v": 123
    },
    {
      "midi": 75,
      "hit": false,
      "t": 1153.8225,
      "d": 689.8897031250001,
      "v": 119
    },
    {
      "midi": 74,
      "hit": false,
      "t": 1843.712203125,
      "d": 807.6757500000003,
      "v": 107
    },
    {
      "midi": 70,
      "hit": false,
      "t": 1843.712203125,
      "d": 1156.2262968750006,
      "v": 103
    },
    {
      "midi": 74,
      "hit": false,
      "t": 2766.7702031250005,
      "d": 194.70754687499993,
      "v": 99
    },
    {
      "midi": 69,
      "hit": false,
      "t": 2999.9385000000007,
      "d": 689.8897031249999,
      "v": 107
    },
    {
      "midi": 75,
      "hit": false,
      "t": 3002.3422968750006,
      "d": 689.8897031249999,
      "v": 111
    },
    {
      "midi": 70,
      "hit": false,
      "t": 3692.2320000000004,
      "d": 670.6593281250002,
      "v": 83
    },
    {
      "midi": 74,
      "hit": false,
      "t": 3692.2320000000004,
      "d": 805.271953125,
      "v": 103
    },
    {
      "midi": 65,
      "hit": false,
      "t": 4382.121703125001,
      "d": 233.16829687500012,
      "v": 99
    },
    {
      "midi": 74,
      "hit": false,
      "t": 4617.693796875001,
      "d": 206.72653125000033,
      "v": 119
    },
    {
      "midi": 70,
      "hit": false,
      "t": 4617.693796875001,
      "d": 225.95690625000043,
      "v": 103
    },
    {
      "midi": 69,
      "hit": false,
      "t": 4843.650703125001,
      "d": 692.2934999999998,
      "v": 123
    },
    {
      "midi": 75,
      "hit": false,
      "t": 4843.650703125001,
      "d": 692.2934999999998,
      "v": 119
    },
    {
      "midi": 70,
      "hit": false,
      "t": 5535.944203125001,
      "d": 1156.2262968749992,
      "v": 103
    },
    {
      "midi": 74,
      "hit": false,
      "t": 5540.751796875001,
      "d": 802.8681562499996,
      "v": 107
    },
    {
      "midi": 74,
      "hit": false,
      "t": 6459.002203125,
      "d": 194.70754687499993,
      "v": 99
    },
    {
      "midi": 69,
      "hit": false,
      "t": 6692.1705,
      "d": 692.2934999999998,
      "v": 107
    },
    {
      "midi": 75,
      "hit": false,
      "t": 6692.1705,
      "d": 692.2934999999998,
      "v": 111
    },
    {
      "midi": 70,
      "hit": false,
      "t": 7384.464000000001,
      "d": 305.2822031249998,
      "v": 71
    },
    {
      "midi": 74,
      "hit": false,
      "t": 7386.867796875001,
      "d": 475.95178124999984,
      "v": 83
    },
    {
      "midi": 65,
      "hit": false,
      "t": 7612.824703125,
      "d": 733.1580468750008,
      "v": 63
    },
    {
      "midi": 70,
      "hit": false,
      "t": 7843.5892031250005,
      "d": 675.4669218750005,
      "v": 63
    },
    {
      "midi": 74,
      "hit": false,
      "t": 8074.353703125001,
      "d": 269.2252500000004,
      "v": 71
    },
    {
      "midi": 75,
      "hit": false,
      "t": 8307.522,
      "d": 516.8163281249981,
      "v": 75
    },
    {
      "midi": 65,
      "hit": false,
      "t": 8535.882703125,
      "d": 733.158046874998,
      "v": 63
    },
    {
      "midi": 70,
      "hit": false,
      "t": 8769.051,
      "d": 576.9112499999974,
      "v": 59
    },
    {
      "midi": 75,
      "hit": false,
      "t": 8997.411703124999,
      "d": 290.8594218749986,
      "v": 71
    },
    {
      "midi": 74,
      "hit": false,
      "t": 9230.579999999998,
      "d": 497.5859531249989,
      "v": 75
    },
    {
      "midi": 65,
      "hit": false,
      "t": 9461.344499999997,
      "d": 673.0631249999988,
      "v": 71
    },
    {
      "midi": 70,
      "hit": false,
      "t": 9689.705203124997,
      "d": 540.8542968749989,
      "v": 63
    },
    {
      "midi": 74,
      "hit": false,
      "t": 9920.469703124996,
      "d": 288.4556249999987,
      "v": 71
    },
    {
      "midi": 75,
      "hit": false,
      "t": 10151.234203124995,
      "d": 540.8542968749989,
      "v": 79
    },
    {
      "midi": 65,
      "hit": false,
      "t": 10384.402499999995,
      "d": 461.52900000000045,
      "v": 63
    },
    {
      "midi": 70,
      "hit": false,
      "t": 10612.763203124994,
      "d": 307.6860000000015,
      "v": 59
    },
    {
      "midi": 74,
      "hit": false,
      "t": 10845.931499999995,
      "d": 286.0518281249988,
      "v": 75
    },
    {
      "midi": 75,
      "hit": false,
      "t": 11076.695999999994,
      "d": 555.2770781249983,
      "v": 79
    },
    {
      "midi": 67,
      "hit": false,
      "t": 11307.460499999994,
      "d": 612.9682031249995,
      "v": 63
    },
    {
      "midi": 72,
      "hit": false,
      "t": 11535.821203124993,
      "d": 521.6239218749997,
      "v": 63
    },
    {
      "midi": 75,
      "hit": false,
      "t": 11766.585703124993,
      "d": 288.4556250000005,
      "v": 75
    },
    {
      "midi": 77,
      "hit": false,
      "t": 11997.350203124994,
      "d": 461.52899999999863,
      "v": 83
    },
    {
      "midi": 67,
      "hit": false,
      "t": 12228.114703124993,
      "d": 730.7542499999981,
      "v": 63
    },
    {
      "midi": 72,
      "hit": false,
      "t": 12458.879203124992,
      "d": 519.220124999998,
      "v": 63
    },
    {
      "midi": 77,
      "hit": false,
      "t": 12692.047499999991,
      "d": 228.36070312499942,
      "v": 75
    },
    {
      "midi": 75,
      "hit": false,
      "t": 12922.81199999999,
      "d": 519.220124999998,
      "v": 83
    },
    {
      "midi": 67,
      "hit": false,
      "t": 13151.17270312499,
      "d": 557.6808749999982,
      "v": 59
    },
    {
      "midi": 72,
      "hit": false,
      "t": 13384.34099999999,
      "d": 478.3555781249979,
      "v": 55
    },
    {
      "midi": 75,
      "hit": false,
      "t": 13615.105499999989,
      "d": 266.8214531249978,
      "v": 75
    },
    {
      "midi": 77,
      "hit": false,
      "t": 13843.466203124988,
      "d": 656.2365468749995,
      "v": 83
    },
    {
      "midi": 67,
      "hit": false,
      "t": 14074.230703124987,
      "d": 596.1416250000002,
      "v": 63
    },
    {
      "midi": 72,
      "hit": false,
      "t": 14304.995203124987,
      "d": 406.241671875001,
      "v": 59
    },
    {
      "midi": 75,
      "hit": false,
      "t": 14538.163499999988,
      "d": 173.07337499999994,
      "v": 67
    },
    {
      "midi": 72,
      "hit": false,
      "t": 14768.927999999987,
      "d": 730.7542499999981,
      "v": 87
    },
    {
      "midi": 51,
      "hit": false,
      "t": 14768.927999999987,
      "d": 1459.1047031249982,
      "v": 71
    },
    {
      "midi": 60,
      "hit": false,
      "t": 14999.692499999986,
      "d": 365.37712499999907,
      "v": 63
    },
    {
      "midi": 63,
      "hit": false,
      "t": 15230.456999999986,
      "d": 346.1467499999999,
      "v": 67
    },
    {
      "midi": 67,
      "hit": false,
      "t": 15461.221499999985,
      "d": 305.2822031250016,
      "v": 71
    },
    {
      "midi": 72,
      "hit": false,
      "t": 15691.985999999986,
      "d": 478.35557812499974,
      "v": 71
    },
    {
      "midi": 60,
      "hit": false,
      "t": 15920.346703124987,
      "d": 269.2252499999977,
      "v": 59
    },
    {
      "midi": 67,
      "hit": false,
      "t": 16153.514999999987,
      "d": 249.9948749999985,
      "v": 63
    },
    {
      "midi": 72,
      "hit": false,
      "t": 16384.279499999986,
      "d": 173.07337499999994,
      "v": 79
    },
    {
      "midi": 72,
      "hit": false,
      "t": 16612.640203124985,
      "d": 749.984625000001,
      "v": 83
    },
    {
      "midi": 53,
      "hit": false,
      "t": 16612.640203124985,
      "d": 1423.0477500000015,
      "v": 71
    },
    {
      "midi": 60,
      "hit": false,
      "t": 16845.808499999985,
      "d": 749.9846250000046,
      "v": 67
    },
    {
      "midi": 65,
      "hit": false,
      "t": 17076.572999999986,
      "d": 189.89995312500105,
      "v": 63
    },
    {
      "midi": 69,
      "hit": false,
      "t": 17307.337499999987,
      "d": 252.39867187500204,
      "v": 71
    },
    {
      "midi": 72,
      "hit": false,
      "t": 17538.101999999988,
      "d": 499.98975000000064,
      "v": 79
    },
    {
      "midi": 65,
      "hit": false,
      "t": 17766.462703124987,
      "d": 271.6290468750012,
      "v": 63
    },
    {
      "midi": 60,
      "hit": false,
      "t": 17999.630999999987,
      "d": 74.5177031250023,
      "v": 67
    },
    {
      "midi": 69,
      "hit": false,
      "t": 17999.630999999987,
      "d": 266.8214531250014,
      "v": 67
    },
    {
      "midi": 72,
      "hit": false,
      "t": 18227.99170312499,
      "d": 230.7644999999975,
      "v": 71
    },
    {
      "midi": 46,
      "hit": false,
      "t": 18461.15999999999,
      "d": 1555.2565781249978,
      "v": 75
    },
    {
      "midi": 53,
      "hit": false,
      "t": 18691.92449999999,
      "d": 266.8214531249978,
      "v": 59
    },
    {
      "midi": 58,
      "hit": false,
      "t": 18920.28520312499,
      "d": 98.55567187499764,
      "v": 75
    },
    {
      "midi": 74,
      "hit": false,
      "t": 19153.45349999999,
      "d": 55.287328124999476,
      "v": 51
    },
    {
      "midi": 62,
      "hit": false,
      "t": 19153.45349999999,
      "d": 286.0518281250006,
      "v": 71
    },
    {
      "midi": 63,
      "hit": false,
      "t": 19381.814203124988,
      "d": 499.98975000000064,
      "v": 83
    },
    {
      "midi": 75,
      "hit": false,
      "t": 19384.21799999999,
      "d": 497.5859531249989,
      "v": 63
    },
    {
      "midi": 53,
      "hit": false,
      "t": 19612.57870312499,
      "d": 365.37712499999907,
      "v": 55
    },
    {
      "midi": 58,
      "hit": false,
      "t": 19843.34320312499,
      "d": 365.37712499999543,
      "v": 63
    },
    {
      "midi": 63,
      "hit": false,
      "t": 20076.511499999986,
      "d": 252.3986718749984,
      "v": 75
    },
    {
      "midi": 75,
      "hit": false,
      "t": 20076.511499999986,
      "d": 252.3986718749984,
      "v": 55
    },
    {
      "midi": 62,
      "hit": false,
      "t": 20307.275999999983,
      "d": 516.8163281249981,
      "v": 79
    },
    {
      "midi": 46,
      "hit": false,
      "t": 20307.275999999983,
      "d": 769.2149999999965,
      "v": 75
    },
    {
      "midi": 74,
      "hit": false,
      "t": 20309.679796874985,
      "d": 497.5859531249953,
      "v": 59
    },
    {
      "midi": 53,
      "hit": false,
      "t": 20535.636703124983,
      "d": 252.3986718749984,
      "v": 71
    },
    {
      "midi": 58,
      "hit": false,
      "t": 20768.804999999982,
      "d": 288.4556249999987,
      "v": 71
    },
    {
      "midi": 62,
      "hit": false,
      "t": 20997.16570312498,
      "d": 175.47717187499802,
      "v": 71
    },
    {
      "midi": 46,
      "hit": false,
      "t": 21232.737796875004,
      "d": 497.58595312500256,
      "v": 75
    },
    {
      "midi": 58,
      "hit": false,
      "t": 21235.14159374998,
      "d": 399.03028124999764,
      "v": 83
    },
    {
      "midi": 46,
      "hit": false,
      "t": 21235.14159374998,
      "d": 495.18215625000084,
      "v": 75
    },
    {
      "midi": 65,
      "hit": false,
      "t": 21235.141593750006,
      "d": 399.0302812500013,
      "v": 79
    },
    {
      "midi": 58,
      "hit": false,
      "t": 21235.141593750006,
      "d": 418.26065625000047,
      "v": 75
    },
    {
      "midi": 62,
      "hit": false,
      "t": 21235.141593750006,
      "d": 495.18215625000084,
      "v": 79
    },
    {
      "midi": 65,
      "hit": false,
      "t": 21239.94918749998,
      "d": 353.35814062499776,
      "v": 87
    },
    {
      "midi": 62,
      "hit": false,
      "t": 21239.94918749998,
      "d": 492.77835937500276,
      "v": 71
    },
    {
      "midi": 57,
      "hit": false,
      "t": 21691.863000000005,
      "d": 365.3771250000027,
      "v": 75
    },
    {
      "midi": 45,
      "hit": false,
      "t": 21691.863000000005,
      "d": 384.6075000000019,
      "v": 71
    },
    {
      "midi": 60,
      "hit": false,
      "t": 21694.266796875007,
      "d": 362.973328125001,
      "v": 79
    },
    {
      "midi": 65,
      "hit": false,
      "t": 21694.266796875007,
      "d": 403.8378750000011,
      "v": 79
    },
    {
      "midi": 45,
      "hit": false,
      "t": 21696.67059374998,
      "d": 281.2442343750008,
      "v": 75
    },
    {
      "midi": 57,
      "hit": false,
      "t": 21699.07439062498,
      "d": 259.6100624999999,
      "v": 79
    },
    {
      "midi": 65,
      "hit": false,
      "t": 21699.07439062498,
      "d": 259.6100624999999,
      "v": 75
    },
    {
      "midi": 60,
      "hit": false,
      "t": 21699.07439062498,
      "d": 281.2442343750008,
      "v": 79
    },
    {
      "midi": 55,
      "hit": false,
      "t": 22163.007187500007,
      "d": 2817.2499375000043,
      "v": 79
    },
    {
      "midi": 43,
      "hit": false,
      "t": 22163.007187500007,
      "d": 2853.3068906250046,
      "v": 79
    },
    {
      "midi": 58,
      "hit": false,
      "t": 22165.41098437501,
      "d": 2834.076515625002,
      "v": 79
    },
    {
      "midi": 62,
      "hit": false,
      "t": 22167.81478125001,
      "d": 2831.67271875,
      "v": 79
    },
    {
      "midi": 39,
      "hit": false,
      "t": 25850.43159375001,
      "d": 1149.0149062500022,
      "v": 75
    },
    {
      "midi": 51,
      "hit": false,
      "t": 25850.43159375001,
      "d": 1149.0149062500022,
      "v": 75
    },
    {
      "midi": 55,
      "hit": false,
      "t": 25852.835390625012,
      "d": 1069.6896093750001,
      "v": 79
    },
    {
      "midi": 60,
      "hit": false,
      "t": 25852.835390625012,
      "d": 1182.6680625000008,
      "v": 79
    },
    {
      "midi": 63,
      "hit": false,
      "t": 25855.239187500014,
      "d": 1163.437687499998,
      "v": 79
    },
    {
      "midi": 55,
      "hit": false,
      "t": 27465.783093750015,
      "d": 1358.1452343750025,
      "v": 79
    },
    {
      "midi": 60,
      "hit": false,
      "t": 27465.783093750015,
      "d": 1418.2401562500017,
      "v": 79
    },
    {
      "midi": 62,
      "hit": false,
      "t": 27465.783093750015,
      "d": 1418.2401562500017,
      "v": 79
    },
    {
      "midi": 67,
      "hit": false,
      "t": 27468.186890625017,
      "d": 1377.3756093750017,
      "v": 79
    },
    {
      "midi": 53,
      "hit": false,
      "t": 29540.259796875016,
      "d": 1036.0364531250052,
      "v": 67
    },
    {
      "midi": 60,
      "hit": false,
      "t": 29542.663593750018,
      "d": 802.8681562500024,
      "v": 67
    },
    {
      "midi": 57,
      "hit": false,
      "t": 29542.663593750018,
      "d": 1185.0718593750025,
      "v": 75
    },
    {
      "midi": 41,
      "hit": false,
      "t": 29545.067390624983,
      "d": 3644.156062500002,
      "v": 47
    },
    {
      "midi": 57,
      "hit": false,
      "t": 29545.067390624983,
      "d": 3644.156062500002,
      "v": 63
    },
    {
      "midi": 65,
      "hit": false,
      "t": 29545.06739062502,
      "d": 913.4428125000013,
      "v": 79
    },
    {
      "midi": 60,
      "hit": false,
      "t": 29547.471187499985,
      "d": 3644.1560624999984,
      "v": 63
    },
    {
      "midi": 65,
      "hit": false,
      "t": 29549.874984374987,
      "d": 3677.809218749997,
      "v": 67
    },
    {
      "midi": 60,
      "hit": false,
      "t": 30689.274703125022,
      "d": 408.64546874999724,
      "v": 79
    },
    {
      "midi": 53,
      "hit": false,
      "t": 31383.97200000002,
      "d": 1461.5085,
      "v": 63
    },
    {
      "midi": 58,
      "hit": false,
      "t": 31383.97200000002,
      "d": 1576.8907500000023,
      "v": 75
    },
    {
      "midi": 60,
      "hit": false,
      "t": 31383.97200000002,
      "d": 1673.0426250000055,
      "v": 67
    },
    {
      "midi": 62,
      "hit": false,
      "t": 31383.97200000002,
      "d": 1673.0426250000055,
      "v": 75
    },
    {
      "midi": 60,
      "hit": false,
      "t": 33927.18909375003,
      "d": 591.3340312499931,
      "v": 79
    },
    {
      "midi": 62,
      "hit": false,
      "t": 33929.59289062503,
      "d": 1069.6896093749892,
      "v": 79
    },
    {
      "midi": 58,
      "hit": false,
      "t": 34388.71809375002,
      "d": 569.6998593749959,
      "v": 67
    },
    {
      "midi": 55,
      "hit": false,
      "t": 35083.415390625014,
      "d": 531.2391093749975,
      "v": 63
    },
    {
      "midi": 60,
      "hit": false,
      "t": 35083.415390625014,
      "d": 569.6998593749959,
      "v": 63
    },
    {
      "midi": 63,
      "hit": false,
      "t": 35085.81918750001,
      "d": 567.2960624999978,
      "v": 71
    },
    {
      "midi": 55,
      "hit": false,
      "t": 35770.90129687501,
      "d": 382.2037031250002,
      "v": 59
    },
    {
      "midi": 60,
      "hit": false,
      "t": 35770.90129687501,
      "d": 401.43407812499936,
      "v": 59
    },
    {
      "midi": 63,
      "hit": false,
      "t": 35770.90129687501,
      "d": 401.43407812499936,
      "v": 67
    },
    {
      "midi": 55,
      "hit": false,
      "t": 36230.02650000001,
      "d": 439.89482812499773,
      "v": 79
    },
    {
      "midi": 60,
      "hit": false,
      "t": 36230.02650000001,
      "d": 499.98975000000064,
      "v": 59
    },
    {
      "midi": 63,
      "hit": false,
      "t": 36230.02650000001,
      "d": 716.3314687499951,
      "v": 75
    },
    {
      "midi": 57,
      "hit": false,
      "t": 36924.723796875005,
      "d": 596.1416249999966,
      "v": 67
    },
    {
      "midi": 65,
      "hit": false,
      "t": 36924.723796875005,
      "d": 596.1416249999966,
      "v": 63
    },
    {
      "midi": 58,
      "hit": false,
      "t": 36924.723796875005,
      "d": 610.5644062499996,
      "v": 63
    },
    {
      "midi": 62,
      "hit": false,
      "t": 36924.723796875005,
      "d": 612.9682031249977,
      "v": 59
    },
    {
      "midi": 65,
      "hit": false,
      "t": 37614.6135,
      "d": 382.2037031250002,
      "v": 79
    },
    {
      "midi": 57,
      "hit": false,
      "t": 37614.6135,
      "d": 403.83787499999744,
      "v": 75
    },
    {
      "midi": 62,
      "hit": false,
      "t": 37614.6135,
      "d": 406.2416718749955,
      "v": 67
    },
    {
      "midi": 58,
      "hit": false,
      "t": 37614.6135,
      "d": 423.0682499999966,
      "v": 71
    },
    {
      "midi": 62,
      "hit": false,
      "t": 38076.142499999994,
      "d": 497.58595312500256,
      "v": 55
    },
    {
      "midi": 57,
      "hit": false,
      "t": 38076.142499999994,
      "d": 516.8163281250017,
      "v": 63
    },
    {
      "midi": 65,
      "hit": false,
      "t": 38076.142499999994,
      "d": 519.2201249999998,
      "v": 75
    },
    {
      "midi": 58,
      "hit": false,
      "t": 38076.142499999994,
      "d": 538.450499999999,
      "v": 59
    },
    {
      "midi": 55,
      "hit": false,
      "t": 38775.647390624996,
      "d": 531.2391093749975,
      "v": 67
    },
    {
      "midi": 60,
      "hit": false,
      "t": 38778.051187499994,
      "d": 567.2960624999978,
      "v": 63
    },
    {
      "midi": 63,
      "hit": false,
      "t": 38778.051187499994,
      "d": 569.6998593749959,
      "v": 71
    },
    {
      "midi": 55,
      "hit": false,
      "t": 39465.53709374999,
      "d": 341.33915624999645,
      "v": 63
    },
    {
      "midi": 60,
      "hit": false,
      "t": 39465.53709374999,
      "d": 377.39610937499674,
      "v": 67
    },
    {
      "midi": 63,
      "hit": false,
      "t": 39467.94089062499,
      "d": 377.39610937499674,
      "v": 71
    },
    {
      "midi": 55,
      "hit": false,
      "t": 39924.66229687499,
      "d": 115.38225000000239,
      "v": 63
    },
    {
      "midi": 60,
      "hit": false,
      "t": 39924.66229687499,
      "d": 134.61262500000157,
      "v": 55
    },
    {
      "midi": 63,
      "hit": false,
      "t": 39924.66229687499,
      "d": 151.43920312500268,
      "v": 71
    },
    {
      "midi": 55,
      "hit": false,
      "t": 40160.23439062499,
      "d": 259.61006250000355,
      "v": 63
    },
    {
      "midi": 60,
      "hit": false,
      "t": 40160.23439062499,
      "d": 322.10878125000454,
      "v": 71
    },
    {
      "midi": 63,
      "hit": false,
      "t": 40160.23439062499,
      "d": 341.3391562500037,
      "v": 71
    },
    {
      "midi": 53,
      "hit": false,
      "t": 40614.55199999999,
      "d": 615.372000000003,
      "v": 79
    },
    {
      "midi": 58,
      "hit": false,
      "t": 40614.55199999999,
      "d": 634.6023750000022,
      "v": 67
    },
    {
      "midi": 62,
      "hit": false,
      "t": 40614.55199999999,
      "d": 653.8327500000014,
      "v": 75
    },
    {
      "midi": 53,
      "hit": false,
      "t": 41306.84549999999,
      "d": 478.3555781250034,
      "v": 67
    },
    {
      "midi": 53,
      "hit": false,
      "t": 42003.94659374999,
      "d": 302.8784062499981,
      "v": 71
    },
    {
      "midi": 58,
      "hit": false,
      "t": 42003.94659374999,
      "d": 341.33915624999645,
      "v": 63
    },
    {
      "midi": 62,
      "hit": false,
      "t": 42006.35039062499,
      "d": 341.33915624999645,
      "v": 63
    },
    {
      "midi": 53,
      "hit": false,
      "t": 43383.72599999999,
      "d": 346.1467499999999,
      "v": 63
    },
    {
      "midi": 58,
      "hit": false,
      "t": 43383.72599999999,
      "d": 540.8542968749971,
      "v": 63
    },
    {
      "midi": 62,
      "hit": false,
      "t": 43383.72599999999,
      "d": 557.6808749999982,
      "v": 71
    },
    {
      "midi": 55,
      "hit": false,
      "t": 44313.99539062499,
      "d": 454.31760937500076,
      "v": 75
    },
    {
      "midi": 60,
      "hit": false,
      "t": 44316.399187499985,
      "d": 603.3530156250054,
      "v": 63
    },
    {
      "midi": 63,
      "hit": false,
      "t": 44316.399187499985,
      "d": 603.3530156250054,
      "v": 71
    },
    {
      "midi": 55,
      "hit": false,
      "t": 44999.07749999999,
      "d": 420.66445312499854,
      "v": 75
    },
    {
      "midi": 60,
      "hit": false,
      "t": 44999.07749999999,
      "d": 769.2149999999965,
      "v": 71
    },
    {
      "midi": 63,
      "hit": false,
      "t": 44999.07749999999,
      "d": 788.4453749999957,
      "v": 75
    },
    {
      "midi": 65,
      "hit": false,
      "t": 45922.13549999999,
      "d": 749.9846249999973,
      "v": 79
    },
    {
      "midi": 55,
      "hit": false,
      "t": 45922.13549999999,
      "d": 807.6757499999949,
      "v": 79
    },
    {
      "midi": 60,
      "hit": false,
      "t": 45922.13549999999,
      "d": 807.6757499999949,
      "v": 75
    },
    {
      "midi": 63,
      "hit": false,
      "t": 45922.13549999999,
      "d": 807.6757499999949,
      "v": 75
    },
    {
      "midi": 55,
      "hit": false,
      "t": 46845.19349999999,
      "d": 343.7429531250018,
      "v": 79
    },
    {
      "midi": 60,
      "hit": false,
      "t": 46845.19349999999,
      "d": 423.0682500000039,
      "v": 79
    },
    {
      "midi": 63,
      "hit": false,
      "t": 46845.19349999999,
      "d": 423.0682500000039,
      "v": 79
    },
    {
      "midi": 55,
      "hit": false,
      "t": 47306.72249999999,
      "d": 170.66957812500186,
      "v": 79
    },
    {
      "midi": 62,
      "hit": false,
      "t": 47306.72249999999,
      "d": 307.6860000000015,
      "v": 79
    },
    {
      "midi": 53,
      "hit": false,
      "t": 47537.486999999994,
      "d": 310.0897968749996,
      "v": 79
    },
    {
      "midi": 60,
      "hit": false,
      "t": 47537.486999999994,
      "d": 365.37712499999907,
      "v": 71
    },
    {
      "midi": 51,
      "hit": false,
      "t": 48008.631187499996,
      "d": 314.897390625003,
      "v": 67
    },
    {
      "midi": 55,
      "hit": false,
      "t": 48008.631187499996,
      "d": 334.1277656250022,
      "v": 75
    },
    {
      "midi": 60,
      "hit": false,
      "t": 48008.631187499996,
      "d": 564.8922656249997,
      "v": 75
    },
    {
      "midi": 55,
      "hit": false,
      "t": 48693.713296874994,
      "d": 420.66445312499854,
      "v": 79
    },
    {
      "midi": 60,
      "hit": false,
      "t": 48696.11709374999,
      "d": 838.925109374999,
      "v": 79
    },
    {
      "midi": 63,
      "hit": false,
      "t": 48696.11709374999,
      "d": 858.1554843749982,
      "v": 79
    },
    {
      "midi": 51,
      "hit": false,
      "t": 49388.41059374999,
      "d": 108.17085937500087,
      "v": 75
    },
    {
      "midi": 55,
      "hit": false,
      "t": 49388.41059374999,
      "d": 360.56953124999563,
      "v": 79
    },
    {
      "midi": 51,
      "hit": false,
      "t": 49611.96370312499,
      "d": 134.61262500000157,
      "v": 67
    },
    {
      "midi": 53,
      "hit": false,
      "t": 49845.13199999999,
      "d": 326.9163750000007,
      "v": 67
    },
    {
      "midi": 57,
      "hit": false,
      "t": 49845.13199999999,
      "d": 574.5074531250066,
      "v": 79
    },
    {
      "midi": 60,
      "hit": false,
      "t": 49845.13199999999,
      "d": 576.9112500000047,
      "v": 71
    },
    {
      "midi": 53,
      "hit": false,
      "t": 50304.257203124995,
      "d": 367.7809218750044,
      "v": 59
    },
    {
      "midi": 57,
      "hit": false,
      "t": 50539.829296874996,
      "d": 632.1985781250041,
      "v": 79
    },
    {
      "midi": 60,
      "hit": false,
      "t": 50539.829296874996,
      "d": 1033.6326562500035,
      "v": 75
    },
    {
      "midi": 53,
      "hit": false,
      "t": 51700.8631875,
      "d": 298.07081249999464,
      "v": 71
    },
    {
      "midi": 58,
      "hit": false,
      "t": 51700.8631875,
      "d": 545.6618906249932,
      "v": 71
    },
    {
      "midi": 62,
      "hit": false,
      "t": 51703.266984375,
      "d": 620.1795937499919,
      "v": 71
    },
    {
      "midi": 53,
      "hit": false,
      "t": 52388.34909374999,
      "d": 338.93535937499837,
      "v": 79
    },
    {
      "midi": 58,
      "hit": false,
      "t": 52388.34909374999,
      "d": 569.6998593749959,
      "v": 75
    },
    {
      "midi": 63,
      "hit": false,
      "t": 52390.752890624986,
      "d": 644.2175624999945,
      "v": 79
    },
    {
      "midi": 53,
      "hit": false,
      "t": 53083.04639062498,
      "d": 567.2960624999978,
      "v": 67
    },
    {
      "midi": 58,
      "hit": false,
      "t": 53083.04639062498,
      "d": 586.526437499997,
      "v": 71
    },
    {
      "midi": 62,
      "hit": false,
      "t": 53085.45018749998,
      "d": 836.5213124999937,
      "v": 67
    },
    {
      "midi": 53,
      "hit": false,
      "t": 53772.93609374997,
      "d": 127.40123437500006,
      "v": 67
    },
    {
      "midi": 53,
      "hit": false,
      "t": 53996.48920312497,
      "d": 60.09492187500291,
      "v": 59
    },
    {
      "midi": 62,
      "hit": false,
      "t": 53996.48920312497,
      "d": 326.916375000008,
      "v": 67
    },
    {
      "midi": 58,
      "hit": false,
      "t": 53996.48920312497,
      "d": 348.55054687500524,
      "v": 67
    },
    {
      "midi": 46,
      "hit": false,
      "t": 54234.465093749975,
      "d": 88.94048437500169,
      "v": 67
    },
    {
      "midi": 62,
      "hit": false,
      "t": 54460.42199999998,
      "d": 324.5125781250026,
      "v": 79
    },
    {
      "midi": 53,
      "hit": false,
      "t": 54460.42199999998,
      "d": 343.7429531250018,
      "v": 75
    },
    {
      "midi": 58,
      "hit": false,
      "t": 54460.42199999998,
      "d": 382.2037031250002,
      "v": 75
    },
    {
      "midi": 53,
      "hit": false,
      "t": 54921.95099999998,
      "d": 252.39867187500204,
      "v": 79
    },
    {
      "midi": 57,
      "hit": false,
      "t": 54921.95099999998,
      "d": 269.22525000000314,
      "v": 79
    },
    {
      "midi": 60,
      "hit": false,
      "t": 54921.95099999998,
      "d": 288.4556250000023,
      "v": 79
    },
    {
      "midi": 55,
      "hit": false,
      "t": 55383.47999999998,
      "d": 538.450499999999,
      "v": 79
    },
    {
      "midi": 58,
      "hit": false,
      "t": 55383.47999999998,
      "d": 593.7378281249985,
      "v": 71
    },
    {
      "midi": 62,
      "hit": false,
      "t": 55383.47999999998,
      "d": 2478.314578124984,
      "v": 75
    },
    {
      "midi": 55,
      "hit": false,
      "t": 56080.58109374998,
      "d": 377.39610937499674,
      "v": 71
    },
    {
      "midi": 58,
      "hit": false,
      "t": 56080.58109374998,
      "d": 379.7999062499948,
      "v": 71
    },
    {
      "midi": 55,
      "hit": false,
      "t": 56537.30249999997,
      "d": 189.89995312500105,
      "v": 59
    },
    {
      "midi": 58,
      "hit": false,
      "t": 56537.30249999997,
      "d": 576.9112499999974,
      "v": 63
    },
    {
      "midi": 43,
      "hit": false,
      "t": 56768.066999999966,
      "d": 192.30374999999913,
      "v": 63
    },
    {
      "midi": 58,
      "hit": false,
      "t": 57229.59599999997,
      "d": 651.428953124996,
      "v": 67
    },
    {
      "midi": 43,
      "hit": false,
      "t": 57460.360499999966,
      "d": 189.89995312500105,
      "v": 63
    },
    {
      "midi": 62,
      "hit": false,
      "t": 58152.653999999966,
      "d": 555.2770781250001,
      "v": 75
    },
    {
      "midi": 58,
      "hit": false,
      "t": 58152.653999999966,
      "d": 574.5074531249993,
      "v": 71
    },
    {
      "midi": 51,
      "hit": false,
      "t": 59075.71199999996,
      "d": 536.0467031250009,
      "v": 67
    },
    {
      "midi": 55,
      "hit": false,
      "t": 59075.71199999996,
      "d": 747.5808281249992,
      "v": 79
    },
    {
      "midi": 60,
      "hit": false,
      "t": 59075.71199999996,
      "d": 1016.8060781250024,
      "v": 75
    },
    {
      "midi": 63,
      "hit": false,
      "t": 59075.71199999996,
      "d": 1480.7388750000027,
      "v": 75
    },
    {
      "midi": 51,
      "hit": false,
      "t": 60926.63559374997,
      "d": 533.6429062499956,
      "v": 59
    },
    {
      "midi": 55,
      "hit": false,
      "t": 60926.63559374997,
      "d": 689.8897031249944,
      "v": 75
    },
    {
      "midi": 60,
      "hit": false,
      "t": 60929.03939062497,
      "d": 689.8897031249944,
      "v": 67
    },
    {
      "midi": 65,
      "hit": false,
      "t": 60929.03939062497,
      "d": 1509.5844374999942,
      "v": 75
    },
    {
      "midi": 63,
      "hit": false,
      "t": 60929.03939062497,
      "d": 1548.0451874999926,
      "v": 67
    },
    {
      "midi": 51,
      "hit": false,
      "t": 61618.92909374996,
      "d": 552.873281250002,
      "v": 67
    },
    {
      "midi": 55,
      "hit": false,
      "t": 61618.92909374996,
      "d": 552.873281250002,
      "v": 79
    },
    {
      "midi": 58,
      "hit": false,
      "t": 61618.92909374996,
      "d": 552.873281250002,
      "v": 79
    },
    {
      "midi": 60,
      "hit": false,
      "t": 61618.92909374996,
      "d": 552.873281250002,
      "v": 79
    },
    {
      "midi": 58,
      "hit": false,
      "t": 62311.22259374996,
      "d": 319.7049843749992,
      "v": 63
    },
    {
      "midi": 62,
      "hit": false,
      "t": 62311.22259374996,
      "d": 358.16573437499756,
      "v": 75
    },
    {
      "midi": 53,
      "hit": false,
      "t": 62767.94399999996,
      "d": 487.97076562500297,
      "v": 71
    },
    {
      "midi": 57,
      "hit": false,
      "t": 62767.94399999996,
      "d": 593.7378281250058,
      "v": 79
    },
    {
      "midi": 60,
      "hit": false,
      "t": 62767.94399999996,
      "d": 615.372000000003,
      "v": 79
    },
    {
      "midi": 53,
      "hit": false,
      "t": 63465.04509374996,
      "d": 249.99487499999668,
      "v": 71
    },
    {
      "midi": 57,
      "hit": false,
      "t": 63467.44889062496,
      "d": 781.2339843750015,
      "v": 75
    },
    {
      "midi": 60,
      "hit": false,
      "t": 63467.44889062496,
      "d": 800.4643593750006,
      "v": 27
    },
    {
      "midi": 53,
      "hit": false,
      "t": 64157.33859374996,
      "d": 91.34428124999977,
      "v": 63
    },
    {
      "midi": 57,
      "hit": false,
      "t": 64380.89170312496,
      "d": 1290.8389218749944,
      "v": 67
    },
    {
      "midi": 60,
      "hit": false,
      "t": 64380.89170312496,
      "d": 1310.0692968749936,
      "v": 83
    },
    {
      "midi": 57,
      "hit": false,
      "t": 65767.88249999995,
      "d": 401.43407812500664,
      "v": 71
    },
    {
      "midi": 60,
      "hit": false,
      "t": 65767.88249999995,
      "d": 442.29862500001036,
      "v": 63
    },
    {
      "midi": 53,
      "hit": false,
      "t": 66462.57979687495,
      "d": 766.8112031250057,
      "v": 75
    },
    {
      "midi": 58,
      "hit": false,
      "t": 66462.57979687495,
      "d": 805.2719531250041,
      "v": 71
    },
    {
      "midi": 62,
      "hit": false,
      "t": 66462.57979687495,
      "d": 3439.833328125009,
      "v": 75
    },
    {
      "midi": 57,
      "hit": false,
      "t": 70164.42698437496,
      "d": 716.3314687499951,
      "v": 79
    },
    {
      "midi": 60,
      "hit": false,
      "t": 70164.42698437496,
      "d": 716.3314687499951,
      "v": 75
    },
    {
      "midi": 65,
      "hit": false,
      "t": 70166.83078124997,
      "d": 677.8707187499967,
      "v": 79
    },
    {
      "midi": 53,
      "hit": false,
      "t": 71077.86979687496,
      "d": 379.7999062500021,
      "v": 71
    },
    {
      "midi": 57,
      "hit": false,
      "t": 71077.86979687496,
      "d": 745.1770312500012,
      "v": 75
    },
    {
      "midi": 60,
      "hit": false,
      "t": 71077.86979687496,
      "d": 764.4074062500003,
      "v": 75
    },
    {
      "midi": 53,
      "hit": false,
      "t": 72003.33159374996,
      "d": 552.8732812500093,
      "v": 67
    },
    {
      "midi": 57,
      "hit": false,
      "t": 72005.73539062496,
      "d": 759.5998125000042,
      "v": 75
    },
    {
      "midi": 60,
      "hit": false,
      "t": 72005.73539062496,
      "d": 798.0605625000026,
      "v": 75
    },
    {
      "midi": 53,
      "hit": false,
      "t": 72695.62509374997,
      "d": 629.7947812499915,
      "v": 71
    },
    {
      "midi": 57,
      "hit": false,
      "t": 72921.58199999997,
      "d": 480.7593749999942,
      "v": 75
    },
    {
      "midi": 60,
      "hit": false,
      "t": 72921.58199999997,
      "d": 497.585953124988,
      "v": 71
    },
    {
      "midi": 55,
      "hit": false,
      "t": 73859.06278124996,
      "d": 600.94921875,
      "v": 71
    },
    {
      "midi": 60,
      "hit": false,
      "t": 73861.46657812496,
      "d": 617.7757968749938,
      "v": 67
    },
    {
      "midi": 63,
      "hit": false,
      "t": 73861.46657812496,
      "d": 2557.639875000008,
      "v": 71
    },
    {
      "midi": 60,
      "hit": false,
      "t": 74544.14489062496,
      "d": 374.99231250000594,
      "v": 59
    },
    {
      "midi": 55,
      "hit": false,
      "t": 74544.14489062496,
      "d": 396.6264843750105,
      "v": 75
    },
    {
      "midi": 55,
      "hit": false,
      "t": 75236.43839062497,
      "d": 1149.0149062499986,
      "v": 63
    },
    {
      "midi": 60,
      "hit": false,
      "t": 75236.43839062497,
      "d": 1185.0718593750062,
      "v": 59
    },
    {
      "midi": 36,
      "hit": false,
      "t": 75690.75599999996,
      "d": 997.575703125025,
      "v": 79
    },
    {
      "midi": 48,
      "hit": false,
      "t": 76390.26089062497,
      "d": 418.26065625002957,
      "v": 75
    },
    {
      "midi": 55,
      "hit": false,
      "t": 76613.81399999998,
      "d": 444.7024218750157,
      "v": 75
    },
    {
      "midi": 63,
      "hit": false,
      "t": 76613.81399999998,
      "d": 615.3720000000176,
      "v": 75
    },
    {
      "midi": 60,
      "hit": false,
      "t": 76613.81399999998,
      "d": 634.6023750000168,
      "v": 75
    },
    {
      "midi": 57,
      "hit": false,
      "t": 77541.67959375,
      "d": 610.5644062500069,
      "v": 63
    },
    {
      "midi": 60,
      "hit": false,
      "t": 77541.67959375,
      "d": 629.794781250006,
      "v": 59
    },
    {
      "midi": 65,
      "hit": false,
      "t": 77541.67959375,
      "d": 1706.695781250004,
      "v": 67
    },
    {
      "midi": 57,
      "hit": false,
      "t": 78236.376890625,
      "d": 418.26065625000047,
      "v": 75
    },
    {
      "midi": 60,
      "hit": false,
      "t": 78236.376890625,
      "d": 1028.8250624999928,
      "v": 67
    },
    {
      "midi": 57,
      "hit": false,
      "t": 78693.098296875,
      "d": 533.6429062499956,
      "v": 55
    },
    {
      "midi": 57,
      "hit": false,
      "t": 79385.391796875,
      "d": 766.8112031250057,
      "v": 75
    },
    {
      "midi": 65,
      "hit": false,
      "t": 79387.79559375001,
      "d": 764.4074062500003,
      "v": 75
    },
    {
      "midi": 60,
      "hit": false,
      "t": 79387.79559375001,
      "d": 783.6377812499995,
      "v": 63
    },
    {
      "midi": 65,
      "hit": false,
      "t": 80308.44979687501,
      "d": 459.1252031250042,
      "v": 71
    },
    {
      "midi": 57,
      "hit": false,
      "t": 80308.44979687501,
      "d": 478.3555781250034,
      "v": 71
    },
    {
      "midi": 60,
      "hit": false,
      "t": 80308.44979687501,
      "d": 533.6429062500101,
      "v": 59
    },
    {
      "midi": 55,
      "hit": false,
      "t": 81233.91159375002,
      "d": 783.6377812499995,
      "v": 79
    },
    {
      "midi": 60,
      "hit": false,
      "t": 81233.91159375002,
      "d": 802.8681562499987,
      "v": 75
    },
    {
      "midi": 63,
      "hit": false,
      "t": 81233.91159375002,
      "d": 802.8681562499987,
      "v": 75
    },
    {
      "midi": 55,
      "hit": false,
      "t": 82152.16200000001,
      "d": 115.38224999999511,
      "v": 67
    },
    {
      "midi": 60,
      "hit": false,
      "t": 82152.16200000001,
      "d": 788.4453749999957,
      "v": 63
    },
    {
      "midi": 63,
      "hit": false,
      "t": 82152.16200000001,
      "d": 826.9061249999941,
      "v": 67
    },
    {
      "midi": 55,
      "hit": false,
      "t": 82387.73409375001,
      "d": 341.3391562500037,
      "v": 63
    },
    {
      "midi": 55,
      "hit": false,
      "t": 82844.45550000001,
      "d": 96.15187499999593,
      "v": 55
    },
    {
      "midi": 55,
      "hit": false,
      "t": 83087.238984375,
      "d": 716.3314687499951,
      "v": 79
    },
    {
      "midi": 58,
      "hit": false,
      "t": 83087.238984375,
      "d": 757.1960156249988,
      "v": 75
    },
    {
      "midi": 63,
      "hit": false,
      "t": 83087.238984375,
      "d": 1737.945140625001,
      "v": 71
    },
    {
      "midi": 65,
      "hit": false,
      "t": 83094.450375,
      "d": 3269.163750000007,
      "v": 79
    },
    {
      "midi": 57,
      "hit": false,
      "t": 84930.9511875,
      "d": 798.0605625000026,
      "v": 67
    },
    {
      "midi": 60,
      "hit": false,
      "t": 84933.35498437501,
      "d": 834.1175156249956,
      "v": 59
    },
    {
      "midi": 60,
      "hit": false,
      "t": 85846.797796875,
      "d": 533.6429062499956,
      "v": 67
    },
    {
      "midi": 55,
      "hit": false,
      "t": 86767.452,
      "d": 788.4453750000102,
      "v": 67
    },
    {
      "midi": 58,
      "hit": false,
      "t": 86767.452,
      "d": 1038.4402500000142,
      "v": 67
    },
    {
      "midi": 65,
      "hit": false,
      "t": 86767.452,
      "d": 1442.2781250000116,
      "v": 59
    },
    {
      "midi": 63,
      "hit": false,
      "t": 86767.452,
      "d": 1499.9692500000092,
      "v": 67
    },
    {
      "midi": 51,
      "hit": false,
      "t": 87462.14929687501,
      "d": 495.1821562499972,
      "v": 71
    },
    {
      "midi": 55,
      "hit": false,
      "t": 87921.27450000001,
      "d": 286.051828124997,
      "v": 67
    },
    {
      "midi": 58,
      "hit": false,
      "t": 87921.27450000001,
      "d": 346.1467499999999,
      "v": 51
    },
    {
      "midi": 51,
      "hit": false,
      "t": 88152.039,
      "d": 305.2822031250107,
      "v": 67
    },
    {
      "midi": 57,
      "hit": false,
      "t": 88615.97179687502,
      "d": 959.1149531249976,
      "v": 79
    },
    {
      "midi": 60,
      "hit": false,
      "t": 88615.97179687502,
      "d": 997.5757031249959,
      "v": 75
    },
    {
      "midi": 53,
      "hit": false,
      "t": 88615.97179687502,
      "d": 1747.5603281249932,
      "v": 79
    },
    {
      "midi": 58,
      "hit": false,
      "t": 90459.68400000001,
      "d": 151.43920312500268,
      "v": 79
    },
    {
      "midi": 62,
      "hit": false,
      "t": 90459.68400000001,
      "d": 189.89995312500105,
      "v": 79
    },
    {
      "midi": 58,
      "hit": false,
      "t": 90688.04470312501,
      "d": 79.3252968750021,
      "v": 59
    },
    {
      "midi": 60,
      "hit": false,
      "t": 90688.04470312501,
      "d": 137.01642187499965,
      "v": 75
    },
    {
      "midi": 58,
      "hit": false,
      "t": 90921.213,
      "d": 93.74807812500512,
      "v": 71
    },
    {
      "midi": 41,
      "hit": false,
      "t": 91154.38129687501,
      "d": 536.0467031249864,
      "v": 63
    },
    {
      "midi": 58,
      "hit": false,
      "t": 91382.74200000001,
      "d": 153.84299999999348,
      "v": 79
    },
    {
      "midi": 60,
      "hit": false,
      "t": 91382.74200000001,
      "d": 153.84299999999348,
      "v": 67
    },
    {
      "midi": 53,
      "hit": false,
      "t": 91851.482390625,
      "d": 69.71010937499523,
      "v": 79
    },
    {
      "midi": 41,
      "hit": false,
      "t": 91851.482390625,
      "d": 591.3340312499931,
      "v": 79
    },
    {
      "midi": 60,
      "hit": false,
      "t": 92075.03549999998,
      "d": 384.60749999999825,
      "v": 79
    },
    {
      "midi": 65,
      "hit": false,
      "t": 92075.03549999998,
      "d": 423.0682499999966,
      "v": 79
    },
    {
      "midi": 70,
      "hit": false,
      "t": 92075.03549999998,
      "d": 480.7593749999942,
      "v": 79
    },
    {
      "midi": 48,
      "hit": false,
      "t": 92538.96829687498,
      "d": 247.5910781249986,
      "v": 71
    },
    {
      "midi": 41,
      "hit": false,
      "t": 92767.32899999998,
      "d": 115.38224999999511,
      "v": 71
    },
    {
      "midi": 53,
      "hit": false,
      "t": 92767.32899999998,
      "d": 134.6126249999943,
      "v": 75
    },
    {
      "midi": 41,
      "hit": false,
      "t": 93000.49729687498,
      "d": 439.89482812501956,
      "v": 79
    },
    {
      "midi": 53,
      "hit": false,
      "t": 93002.90109374998,
      "d": 415.85685937500966,
      "v": 79
    },
    {
      "midi": 84,
      "hit": false,
      "t": 93002.90109374998,
      "d": 899.0200312500092,
      "v": 79
    },
    {
      "midi": 94,
      "hit": false,
      "t": 93005.30489062499,
      "d": 855.7516875000001,
      "v": 79
    },
    {
      "midi": 89,
      "hit": false,
      "t": 93005.30489062499,
      "d": 874.9820624999993,
      "v": 79
    },
    {
      "midi": 48,
      "hit": false,
      "t": 93466.833890625,
      "d": 242.7834843749879,
      "v": 75
    },
    {
      "midi": 53,
      "hit": false,
      "t": 93466.833890625,
      "d": 360.56953124998836,
      "v": 63
    },
    {
      "midi": 41,
      "hit": false,
      "t": 93692.790796875,
      "d": 149.03540624999732,
      "v": 75
    },
    {
      "midi": 58,
      "hit": false,
      "t": 94154.31979687499,
      "d": 536.0467031250009,
      "v": 75
    },
    {
      "midi": 70,
      "hit": false,
      "t": 94154.31979687499,
      "d": 612.9682031249977,
      "v": 79
    },
    {
      "midi": 65,
      "hit": false,
      "t": 94154.31979687499,
      "d": 629.7947812499915,
      "v": 79
    },
    {
      "midi": 62,
      "hit": false,
      "t": 94154.31979687499,
      "d": 668.2555312499899,
      "v": 79
    },
    {
      "midi": 58,
      "hit": false,
      "t": 94846.61329687497,
      "d": 514.4125312500109,
      "v": 75
    },
    {
      "midi": 62,
      "hit": false,
      "t": 95077.37779687498,
      "d": 786.0415781250049,
      "v": 79
    },
    {
      "midi": 65,
      "hit": false,
      "t": 95077.37779687498,
      "d": 920.6542031249992,
      "v": 79
    },
    {
      "midi": 58,
      "hit": false,
      "t": 95998.03199999998,
      "d": 538.4505000000063,
      "v": 75
    },
    {
      "midi": 63,
      "hit": false,
      "t": 95998.03199999998,
      "d": 598.5454218750092,
      "v": 71
    },
    {
      "midi": 67,
      "hit": false,
      "t": 95998.03199999998,
      "d": 598.5454218750092,
      "v": 75
    },
    {
      "midi": 60,
      "hit": false,
      "t": 95998.03199999998,
      "d": 612.9682031250122,
      "v": 75
    },
    {
      "midi": 58,
      "hit": false,
      "t": 96695.13309374999,
      "d": 492.7783593750064,
      "v": 75
    },
    {
      "midi": 63,
      "hit": false,
      "t": 96923.49379687499,
      "d": 786.0415781250049,
      "v": 75
    },
    {
      "midi": 67,
      "hit": false,
      "t": 96923.49379687499,
      "d": 805.2719531250041,
      "v": 79
    },
    {
      "midi": 62,
      "hit": false,
      "t": 97851.35939062499,
      "d": 201.91893749999872,
      "v": 75
    },
    {
      "midi": 58,
      "hit": false,
      "t": 97851.35939062499,
      "d": 341.3391562500037,
      "v": 75
    },
    {
      "midi": 65,
      "hit": false,
      "t": 97853.7631875,
      "d": 353.3581406250014,
      "v": 75
    },
    {
      "midi": 69,
      "hit": false,
      "t": 97853.7631875,
      "d": 355.76193750000675,
      "v": 75
    },
    {
      "midi": 58,
      "hit": false,
      "t": 98305.677,
      "d": 754.7922187499789,
      "v": 75
    },
    {
      "midi": 69,
      "hit": false,
      "t": 98538.84529687499,
      "d": 129.80503124999814,
      "v": 75
    },
    {
      "midi": 77,
      "hit": false,
      "t": 98541.24909375,
      "d": 204.32273437498952,
      "v": 75
    },
    {
      "midi": 74,
      "hit": false,
      "t": 98541.24909375,
      "d": 228.36070312498487,
      "v": 71
    },
    {
      "midi": 74,
      "hit": false,
      "t": 98997.97049999998,
      "d": 403.83787499999744,
      "v": 79
    },
    {
      "midi": 65,
      "hit": false,
      "t": 98997.97049999998,
      "d": 420.66445312499127,
      "v": 79
    },
    {
      "midi": 69,
      "hit": false,
      "t": 98997.97049999998,
      "d": 420.66445312499127,
      "v": 79
    },
    {
      "midi": 58,
      "hit": false,
      "t": 99695.07159374998,
      "d": 574.5074531249993,
      "v": 79
    },
    {
      "midi": 63,
      "hit": false,
      "t": 99923.43229687498,
      "d": 610.5644062500069,
      "v": 75
    },
    {
      "midi": 67,
      "hit": false,
      "t": 99925.83609374998,
      "d": 627.3909843750007,
      "v": 79
    },
    {
      "midi": 72,
      "hit": false,
      "t": 99925.83609374998,
      "d": 627.3909843750007,
      "v": 63
    },
    {
      "midi": 58,
      "hit": false,
      "t": 100382.55749999998,
      "d": 574.5074531249993,
      "v": 79
    },
    {
      "midi": 63,
      "hit": false,
      "t": 100613.32199999999,
      "d": 343.74295312499453,
      "v": 71
    },
    {
      "midi": 72,
      "hit": false,
      "t": 100613.32199999999,
      "d": 653.8327500000014,
      "v": 75
    },
    {
      "midi": 67,
      "hit": false,
      "t": 100613.32199999999,
      "d": 670.6593281249952,
      "v": 75
    },
    {
      "midi": 63,
      "hit": false,
      "t": 101079.65859374998,
      "d": 129.80503124999814,
      "v": 63
    },
    {
      "midi": 58,
      "hit": false,
      "t": 101079.65859374998,
      "d": 185.0923593750049,
      "v": 75
    },
    {
      "midi": 53,
      "hit": false,
      "t": 101543.59139062498,
      "d": 605.7568125000107,
      "v": 79
    },
    {
      "midi": 58,
      "hit": false,
      "t": 101545.99518749998,
      "d": 624.9871875000099,
      "v": 67
    },
    {
      "midi": 62,
      "hit": false,
      "t": 101545.99518749998,
      "d": 644.2175625000091,
      "v": 75
    },
    {
      "midi": 53,
      "hit": false,
      "t": 102233.48109374999,
      "d": 478.3555781250034,
      "v": 67
    },
    {
      "midi": 53,
      "hit": false,
      "t": 102925.77459374999,
      "d": 302.87840625000536,
      "v": 71
    },
    {
      "midi": 58,
      "hit": false,
      "t": 102925.77459374999,
      "d": 338.93535937499837,
      "v": 63
    },
    {
      "midi": 62,
      "hit": false,
      "t": 102925.77459374999,
      "d": 338.93535937499837,
      "v": 63
    },
    {
      "midi": 53,
      "hit": false,
      "t": 104305.55399999999,
      "d": 343.74295312499453,
      "v": 63
    },
    {
      "midi": 58,
      "hit": false,
      "t": 104305.55399999999,
      "d": 543.2580937499879,
      "v": 63
    },
    {
      "midi": 62,
      "hit": false,
      "t": 104305.55399999999,
      "d": 555.2770781249856,
      "v": 71
    },
    {
      "midi": 55,
      "hit": false,
      "t": 105231.01579687497,
      "d": 459.1252031250042,
      "v": 75
    },
    {
      "midi": 60,
      "hit": false,
      "t": 105231.01579687497,
      "d": 610.5644062500069,
      "v": 63
    },
    {
      "midi": 63,
      "hit": false,
      "t": 105231.01579687497,
      "d": 612.9682031250122,
      "v": 71
    },
    {
      "midi": 55,
      "hit": false,
      "t": 105925.71309374998,
      "d": 415.8568593749951,
      "v": 75
    },
    {
      "midi": 60,
      "hit": false,
      "t": 105925.71309374998,
      "d": 764.4074062500003,
      "v": 71
    },
    {
      "midi": 63,
      "hit": false,
      "t": 105925.71309374998,
      "d": 781.2339843749942,
      "v": 75
    },
    {
      "midi": 65,
      "hit": false,
      "t": 106848.77109374997,
      "d": 745.1770312500012,
      "v": 79
    },
    {
      "midi": 55,
      "hit": false,
      "t": 106848.77109374997,
      "d": 800.4643593750079,
      "v": 79
    },
    {
      "midi": 60,
      "hit": false,
      "t": 106848.77109374997,
      "d": 802.8681562500133,
      "v": 75
    },
    {
      "midi": 63,
      "hit": false,
      "t": 106848.77109374997,
      "d": 805.2719531250186,
      "v": 75
    },
    {
      "midi": 55,
      "hit": false,
      "t": 107769.42529687498,
      "d": 341.3391562500037,
      "v": 79
    },
    {
      "midi": 60,
      "hit": false,
      "t": 107771.82909374998,
      "d": 415.8568593749951,
      "v": 79
    },
    {
      "midi": 63,
      "hit": false,
      "t": 107771.82909374998,
      "d": 418.26065625000047,
      "v": 79
    },
    {
      "midi": 55,
      "hit": false,
      "t": 108233.35809374998,
      "d": 165.8619843750057,
      "v": 79
    },
    {
      "midi": 62,
      "hit": false,
      "t": 108233.35809374998,
      "d": 300.474609375,
      "v": 79
    },
    {
      "midi": 53,
      "hit": false,
      "t": 108456.91120312498,
      "d": 310.0897968749923,
      "v": 79
    },
    {
      "midi": 60,
      "hit": false,
      "t": 108456.91120312498,
      "d": 365.37712499999907,
      "v": 71
    },
    {
      "midi": 51,
      "hit": false,
      "t": 108920.84399999998,
      "d": 307.6860000000015,
      "v": 67
    },
    {
      "midi": 55,
      "hit": false,
      "t": 108920.84399999998,
      "d": 343.74295312499453,
      "v": 75
    },
    {
      "midi": 60,
      "hit": false,
      "t": 108920.84399999998,
      "d": 576.9112499999901,
      "v": 75
    },
    {
      "midi": 55,
      "hit": false,
      "t": 109613.13749999997,
      "d": 423.0682499999966,
      "v": 79
    },
    {
      "midi": 60,
      "hit": false,
      "t": 109613.13749999997,
      "d": 843.7327031249879,
      "v": 79
    },
    {
      "midi": 63,
      "hit": false,
      "t": 109617.94509374996,
      "d": 858.1554843749909,
      "v": 79
    },
    {
      "midi": 51,
      "hit": false,
      "t": 110310.23859374996,
      "d": 108.1708593749936,
      "v": 75
    },
    {
      "midi": 55,
      "hit": false,
      "t": 110310.23859374996,
      "d": 358.165734374983,
      "v": 79
    },
    {
      "midi": 51,
      "hit": false,
      "t": 110533.79170312495,
      "d": 134.6126249999943,
      "v": 67
    },
    {
      "midi": 53,
      "hit": false,
      "t": 110774.17139062495,
      "d": 317.3011875000084,
      "v": 67
    },
    {
      "midi": 57,
      "hit": false,
      "t": 110776.57518749996,
      "d": 564.892265625007,
      "v": 79
    },
    {
      "midi": 60,
      "hit": false,
      "t": 110776.57518749996,
      "d": 564.892265625007,
      "v": 71
    },
    {
      "midi": 53,
      "hit": false,
      "t": 111228.48899999996,
      "d": 346.1467499999999,
      "v": 59
    },
    {
      "midi": 57,
      "hit": false,
      "t": 111464.06109374996,
      "d": 627.3909843750007,
      "v": 79
    },
    {
      "midi": 60,
      "hit": false,
      "t": 111464.06109374996,
      "d": 1031.2288593749981,
      "v": 75
    },
    {
      "midi": 53,
      "hit": false,
      "t": 112613.07599999996,
      "d": 305.28220312499616,
      "v": 71
    },
    {
      "midi": 58,
      "hit": false,
      "t": 112613.07599999996,
      "d": 555.2770781250001,
      "v": 71
    },
    {
      "midi": 62,
      "hit": false,
      "t": 112613.07599999996,
      "d": 632.1985781249969,
      "v": 71
    },
    {
      "midi": 53,
      "hit": false,
      "t": 113310.17709374995,
      "d": 338.93535937499837,
      "v": 79
    },
    {
      "midi": 58,
      "hit": false,
      "t": 113310.17709374995,
      "d": 572.103656249994,
      "v": 75
    },
    {
      "midi": 62,
      "hit": false,
      "t": 113310.17709374995,
      "d": 649.0251562499907,
      "v": 79
    },
    {
      "midi": 53,
      "hit": false,
      "t": 114002.47059374994,
      "d": 569.6998593750031,
      "v": 67
    },
    {
      "midi": 58,
      "hit": false,
      "t": 114002.47059374994,
      "d": 588.9302343750023,
      "v": 71
    },
    {
      "midi": 62,
      "hit": false,
      "t": 114004.87439062494,
      "d": 838.9251093749917,
      "v": 67
    },
    {
      "midi": 53,
      "hit": false,
      "t": 114694.76409374994,
      "d": 127.40123437499278,
      "v": 67
    },
    {
      "midi": 53,
      "hit": false,
      "t": 114920.72099999993,
      "d": 55.28732812500675,
      "v": 59
    },
    {
      "midi": 58,
      "hit": false,
      "t": 114923.12479687494,
      "d": 341.3391562500037,
      "v": 67
    },
    {
      "midi": 62,
      "hit": false,
      "t": 114925.52859374994,
      "d": 319.7049843749992,
      "v": 67
    },
    {
      "midi": 46,
      "hit": false,
      "t": 115151.48549999994,
      "d": 93.74807812500512,
      "v": 67
    },
    {
      "midi": 62,
      "hit": false,
      "t": 115382.24999999994,
      "d": 324.51257812499534,
      "v": 79
    },
    {
      "midi": 53,
      "hit": false,
      "t": 115382.24999999994,
      "d": 343.74295312499453,
      "v": 75
    },
    {
      "midi": 58,
      "hit": false,
      "t": 115382.24999999994,
      "d": 382.2037031249929,
      "v": 75
    },
    {
      "midi": 53,
      "hit": false,
      "t": 115848.58659374993,
      "d": 247.5910781249986,
      "v": 79
    },
    {
      "midi": 57,
      "hit": false,
      "t": 115848.58659374993,
      "d": 264.41765624999243,
      "v": 79
    },
    {
      "midi": 60,
      "hit": false,
      "t": 115848.58659374993,
      "d": 283.6480312499916,
      "v": 79
    },
    {
      "midi": 55,
      "hit": false,
      "t": 116314.92318749992,
      "d": 526.4315156250086,
      "v": 79
    },
    {
      "midi": 58,
      "hit": false,
      "t": 116317.32698437493,
      "d": 581.7188437500008,
      "v": 71
    },
    {
      "midi": 62,
      "hit": false,
      "t": 116317.32698437493,
      "d": 2466.295593750023,
      "v": 75
    },
    {
      "midi": 55,
      "hit": false,
      "t": 117002.40909374993,
      "d": 377.3961093750113,
      "v": 71
    },
    {
      "midi": 58,
      "hit": false,
      "t": 117004.81289062493,
      "d": 377.3961093750113,
      "v": 71
    },
    {
      "midi": 55,
      "hit": false,
      "t": 117463.93809374994,
      "d": 185.0923593750049,
      "v": 59
    },
    {
      "midi": 58,
      "hit": false,
      "t": 117463.93809374994,
      "d": 572.1036562500085,
      "v": 63
    },
    {
      "midi": 43,
      "hit": false,
      "t": 117689.89499999995,
      "d": 192.3037500000064,
      "v": 63
    },
    {
      "midi": 58,
      "hit": false,
      "t": 118151.42399999994,
      "d": 653.832750000016,
      "v": 67
    },
    {
      "midi": 43,
      "hit": false,
      "t": 118389.39989062495,
      "d": 185.0923593750049,
      "v": 63
    },
    {
      "midi": 58,
      "hit": false,
      "t": 119081.69339062496,
      "d": 567.2960624999978,
      "v": 71
    },
    {
      "midi": 62,
      "hit": false,
      "t": 119086.50098437496,
      "d": 562.4884687500016,
      "v": 75
    },
    {
      "midi": 51,
      "hit": false,
      "t": 119997.53999999996,
      "d": 538.4505000000063,
      "v": 67
    },
    {
      "midi": 55,
      "hit": false,
      "t": 119997.53999999996,
      "d": 747.5808281250065,
      "v": 79
    },
    {
      "midi": 60,
      "hit": false,
      "t": 119997.53999999996,
      "d": 1016.8060781250097,
      "v": 75
    },
    {
      "midi": 63,
      "hit": false,
      "t": 119997.53999999996,
      "d": 1478.3350781250047,
      "v": 75
    },
    {
      "midi": 51,
      "hit": false,
      "t": 121850.86739062498,
      "d": 531.2391093750048,
      "v": 59
    },
    {
      "midi": 55,
      "hit": false,
      "t": 121850.86739062498,
      "d": 685.0821093749983,
      "v": 75
    },
    {
      "midi": 60,
      "hit": false,
      "t": 121850.86739062498,
      "d": 685.0821093749983,
      "v": 67
    },
    {
      "midi": 63,
      "hit": false,
      "t": 121853.27118749998,
      "d": 1545.641390625009,
      "v": 67
    },
    {
      "midi": 65,
      "hit": false,
      "t": 121855.67498437499,
      "d": 1504.7768437500054,
      "v": 75
    },
    {
      "midi": 51,
      "hit": false,
      "t": 122543.16089062497,
      "d": 550.469484375004,
      "v": 67
    },
    {
      "midi": 55,
      "hit": false,
      "t": 122543.16089062497,
      "d": 550.469484375004,
      "v": 79
    },
    {
      "midi": 58,
      "hit": false,
      "t": 122545.56468749998,
      "d": 550.469484375004,
      "v": 79
    },
    {
      "midi": 60,
      "hit": false,
      "t": 122545.56468749998,
      "d": 552.8732812500093,
      "v": 79
    },
    {
      "midi": 58,
      "hit": false,
      "t": 123230.646796875,
      "d": 324.51257812499534,
      "v": 63
    },
    {
      "midi": 62,
      "hit": false,
      "t": 123230.646796875,
      "d": 360.56953124998836,
      "v": 75
    },
    {
      "midi": 53,
      "hit": false,
      "t": 123699.38718749997,
      "d": 468.74039062501106,
      "v": 71
    },
    {
      "midi": 57,
      "hit": false,
      "t": 123701.79098437498,
      "d": 581.7188437500008,
      "v": 79
    },
    {
      "midi": 60,
      "hit": false,
      "t": 123701.79098437498,
      "d": 600.94921875,
      "v": 79
    },
    {
      "midi": 53,
      "hit": false,
      "t": 124386.87309374998,
      "d": 247.5910781249986,
      "v": 71
    },
    {
      "midi": 57,
      "hit": false,
      "t": 124386.87309374998,
      "d": 783.6377812499995,
      "v": 75
    },
    {
      "midi": 60,
      "hit": false,
      "t": 124386.87309374998,
      "d": 800.4643593749934,
      "v": 27
    },
    {
      "midi": 53,
      "hit": false,
      "t": 125079.16659374998,
      "d": 91.34428124999977,
      "v": 63
    },
    {
      "midi": 57,
      "hit": false,
      "t": 125309.93109374997,
      "d": 1283.6275312500075,
      "v": 67
    },
    {
      "midi": 60,
      "hit": false,
      "t": 125309.93109374997,
      "d": 1300.4541093750013,
      "v": 83
    },
    {
      "midi": 57,
      "hit": false,
      "t": 126694.51809374997,
      "d": 399.0302812500013,
      "v": 71
    },
    {
      "midi": 60,
      "hit": false,
      "t": 126696.92189062497,
      "d": 435.0872343749943,
      "v": 63
    },
    {
      "midi": 53,
      "hit": false,
      "t": 127394.02298437497,
      "d": 754.792218750008,
      "v": 75
    },
    {
      "midi": 58,
      "hit": false,
      "t": 127396.42678124997,
      "d": 790.849171875001,
      "v": 71
    },
    {
      "midi": 62,
      "hit": false,
      "t": 127396.42678124997,
      "d": 3427.8143437499966,
      "v": 75
    },
    {
      "midi": 55,
      "hit": false,
      "t": 131086.25498437497,
      "d": 451.91381250001723,
      "v": 75
    },
    {
      "midi": 60,
      "hit": false,
      "t": 131086.25498437497,
      "d": 600.9492187500291,
      "v": 63
    },
    {
      "midi": 63,
      "hit": false,
      "t": 131088.65878124998,
      "d": 600.9492187500291,
      "v": 71
    },
    {
      "midi": 55,
      "hit": false,
      "t": 131771.33709375001,
      "d": 418.26065625000047,
      "v": 75
    },
    {
      "midi": 60,
      "hit": false,
      "t": 131771.33709375001,
      "d": 764.4074062500149,
      "v": 71
    },
    {
      "midi": 63,
      "hit": false,
      "t": 131771.33709375001,
      "d": 783.6377812500286,
      "v": 75
    },
    {
      "midi": 55,
      "hit": false,
      "t": 132694.39509375003,
      "d": 802.8681562500133,
      "v": 79
    },
    {
      "midi": 60,
      "hit": false,
      "t": 132694.39509375003,
      "d": 802.8681562500133,
      "v": 75
    },
    {
      "midi": 65,
      "hit": false,
      "t": 132696.79889062504,
      "d": 742.7732343749958,
      "v": 79
    },
    {
      "midi": 63,
      "hit": false,
      "t": 132696.79889062504,
      "d": 802.8681562500133,
      "v": 75
    },
    {
      "midi": 55,
      "hit": false,
      "t": 133612.64550000004,
      "d": 346.14675000001444,
      "v": 79
    },
    {
      "midi": 60,
      "hit": false,
      "t": 133612.64550000004,
      "d": 423.0682500000112,
      "v": 79
    },
    {
      "midi": 63,
      "hit": false,
      "t": 133612.64550000004,
      "d": 425.47204687501653,
      "v": 79
    },
    {
      "midi": 55,
      "hit": false,
      "t": 134074.17450000005,
      "d": 170.66957812500186,
      "v": 79
    },
    {
      "midi": 62,
      "hit": false,
      "t": 134074.17450000005,
      "d": 305.2822031250107,
      "v": 79
    },
    {
      "midi": 53,
      "hit": false,
      "t": 134307.34279687505,
      "d": 305.2822031250107,
      "v": 79
    },
    {
      "midi": 60,
      "hit": false,
      "t": 134309.74659375005,
      "d": 358.1657343750121,
      "v": 71
    },
    {
      "midi": 51,
      "hit": false,
      "t": 134778.48698437508,
      "d": 295.6670156249893,
      "v": 67
    },
    {
      "midi": 55,
      "hit": false,
      "t": 134778.48698437508,
      "d": 334.12776562498766,
      "v": 75
    },
    {
      "midi": 60,
      "hit": false,
      "t": 134778.48698437508,
      "d": 564.8922656249779,
      "v": 75
    },
    {
      "midi": 55,
      "hit": false,
      "t": 135458.76150000005,
      "d": 423.0682499999821,
      "v": 79
    },
    {
      "midi": 60,
      "hit": false,
      "t": 135465.97289062504,
      "d": 836.5213125000009,
      "v": 79
    },
    {
      "midi": 63,
      "hit": false,
      "t": 135465.97289062504,
      "d": 858.1554843749909,
      "v": 79
    },
    {
      "midi": 51,
      "hit": false,
      "t": 136155.86259375003,
      "d": 110.5746562500135,
      "v": 75
    },
    {
      "midi": 55,
      "hit": false,
      "t": 136155.86259375003,
      "d": 362.9733281250228,
      "v": 79
    },
    {
      "midi": 51,
      "hit": false,
      "t": 136381.81950000004,
      "d": 134.61262500000885,
      "v": 67
    },
    {
      "midi": 53,
      "hit": false,
      "t": 136619.79539062505,
      "d": 319.70498437501374,
      "v": 67
    },
    {
      "midi": 57,
      "hit": false,
      "t": 136619.79539062505,
      "d": 569.6998593750177,
      "v": 79
    },
    {
      "midi": 60,
      "hit": false,
      "t": 136619.79539062505,
      "d": 569.6998593750177,
      "v": 71
    },
    {
      "midi": 53,
      "hit": false,
      "t": 137076.51679687508,
      "d": 343.74295312498,
      "v": 59
    },
    {
      "midi": 57,
      "hit": false,
      "t": 137304.87750000006,
      "d": 634.6023749999877,
      "v": 79
    },
    {
      "midi": 60,
      "hit": false,
      "t": 137304.87750000006,
      "d": 1038.440249999985,
      "v": 75
    },
    {
      "midi": 53,
      "hit": false,
      "t": 138470.71898437504,
      "d": 293.26321875001304,
      "v": 71
    },
    {
      "midi": 58,
      "hit": false,
      "t": 138470.71898437504,
      "d": 545.6618906250224,
      "v": 71
    },
    {
      "midi": 62,
      "hit": false,
      "t": 138473.12278125004,
      "d": 620.1795937500137,
      "v": 71
    },
    {
      "midi": 53,
      "hit": false,
      "t": 139153.39729687505,
      "d": 343.7429531250091,
      "v": 79
    },
    {
      "midi": 58,
      "hit": false,
      "t": 139155.80109375005,
      "d": 572.103656249994,
      "v": 75
    },
    {
      "midi": 62,
      "hit": false,
      "t": 139155.80109375005,
      "d": 651.428953124996,
      "v": 79
    },
    {
      "midi": 53,
      "hit": false,
      "t": 139845.69079687505,
      "d": 574.5074531249993,
      "v": 67
    },
    {
      "midi": 58,
      "hit": false,
      "t": 139848.09459375005,
      "d": 591.3340312500077,
      "v": 71
    },
    {
      "midi": 62,
      "hit": false,
      "t": 139848.09459375005,
      "d": 843.732703125017,
      "v": 67
    },
    {
      "midi": 53,
      "hit": false,
      "t": 140535.58050000007,
      "d": 134.61262500000885,
      "v": 67
    },
    {
      "midi": 53,
      "hit": false,
      "t": 140766.34500000006,
      "d": 55.28732812500675,
      "v": 59
    },
    {
      "midi": 62,
      "hit": false,
      "t": 140766.34500000006,
      "d": 324.51257812502445,
      "v": 67
    },
    {
      "midi": 58,
      "hit": false,
      "t": 140766.34500000006,
      "d": 346.14675000004354,
      "v": 67
    },
    {
      "midi": 46,
      "hit": false,
      "t": 140997.10950000008,
      "d": 96.15187500001048,
      "v": 67
    },
    {
      "midi": 62,
      "hit": false,
      "t": 141227.8740000001,
      "d": 329.32017187500605,
      "v": 79
    },
    {
      "midi": 53,
      "hit": false,
      "t": 141227.8740000001,
      "d": 346.14675000001444,
      "v": 75
    },
    {
      "midi": 58,
      "hit": false,
      "t": 141227.8740000001,
      "d": 387.01129687501816,
      "v": 75
    },
    {
      "midi": 53,
      "hit": false,
      "t": 141689.4030000001,
      "d": 249.99487500000396,
      "v": 79
    },
    {
      "midi": 57,
      "hit": false,
      "t": 141689.4030000001,
      "d": 269.2252500000177,
      "v": 79
    },
    {
      "midi": 60,
      "hit": false,
      "t": 141689.4030000001,
      "d": 288.45562500003143,
      "v": 79
    },
    {
      "midi": 55,
      "hit": false,
      "t": 142150.93200000015,
      "d": 538.4505000000063,
      "v": 79
    },
    {
      "midi": 58,
      "hit": false,
      "t": 142150.93200000015,
      "d": 596.1416250000184,
      "v": 71
    },
    {
      "midi": 62,
      "hit": false,
      "t": 142150.93200000015,
      "d": 2478.3145781249914,
      "v": 75
    },
    {
      "midi": 55,
      "hit": false,
      "t": 142845.62929687515,
      "d": 384.6075000000128,
      "v": 71
    },
    {
      "midi": 58,
      "hit": false,
      "t": 142848.03309375016,
      "d": 382.20370312500745,
      "v": 71
    },
    {
      "midi": 55,
      "hit": false,
      "t": 143304.75450000016,
      "d": 189.8999531249865,
      "v": 59
    },
    {
      "midi": 58,
      "hit": false,
      "t": 143304.75450000016,
      "d": 576.9112500000047,
      "v": 63
    },
    {
      "midi": 43,
      "hit": false,
      "t": 143537.92279687515,
      "d": 187.49615625001024,
      "v": 63
    },
    {
      "midi": 58,
      "hit": false,
      "t": 143997.04800000016,
      "d": 651.428953124996,
      "v": 67
    },
    {
      "midi": 43,
      "hit": false,
      "t": 144227.81250000015,
      "d": 189.8999531249865,
      "v": 63
    },
    {
      "midi": 58,
      "hit": false,
      "t": 144927.31739062516,
      "d": 567.2960625000123,
      "v": 71
    },
    {
      "midi": 62,
      "hit": false,
      "t": 144929.72118750017,
      "d": 564.892265625007,
      "v": 75
    },
    {
      "midi": 51,
      "hit": false,
      "t": 145845.56779687517,
      "d": 536.0467031250009,
      "v": 67
    },
    {
      "midi": 55,
      "hit": false,
      "t": 145845.56779687517,
      "d": 745.1770312500012,
      "v": 79
    },
    {
      "midi": 60,
      "hit": false,
      "t": 145845.56779687517,
      "d": 1016.8060781249951,
      "v": 75
    },
    {
      "midi": 63,
      "hit": false,
      "t": 145845.56779687517,
      "d": 1478.3350781250047,
      "v": 75
    },
    {
      "midi": 51,
      "hit": false,
      "t": 147696.49139062516,
      "d": 531.2391093750193,
      "v": 59
    },
    {
      "midi": 55,
      "hit": false,
      "t": 147696.49139062516,
      "d": 685.0821093750128,
      "v": 75
    },
    {
      "midi": 60,
      "hit": false,
      "t": 147696.49139062516,
      "d": 687.4859062500182,
      "v": 67
    },
    {
      "midi": 65,
      "hit": false,
      "t": 147698.89518750017,
      "d": 1509.5844375000452,
      "v": 75
    },
    {
      "midi": 63,
      "hit": false,
      "t": 147698.89518750017,
      "d": 1545.6413906250382,
      "v": 67
    },
    {
      "midi": 51,
      "hit": false,
      "t": 148383.97729687518,
      "d": 557.68087500002,
      "v": 67
    },
    {
      "midi": 55,
      "hit": false,
      "t": 148383.97729687518,
      "d": 557.68087500002,
      "v": 79
    },
    {
      "midi": 58,
      "hit": false,
      "t": 148388.7848906252,
      "d": 552.8732812500093,
      "v": 79
    },
    {
      "midi": 60,
      "hit": false,
      "t": 148391.1886875002,
      "d": 550.469484375004,
      "v": 79
    },
    {
      "midi": 58,
      "hit": false,
      "t": 149073.8670000002,
      "d": 326.9163750000007,
      "v": 63
    },
    {
      "midi": 62,
      "hit": false,
      "t": 149073.8670000002,
      "d": 365.37712499999907,
      "v": 75
    },
    {
      "midi": 53,
      "hit": false,
      "t": 149535.3960000002,
      "d": 480.7593749999942,
      "v": 71
    },
    {
      "midi": 57,
      "hit": false,
      "t": 149535.3960000002,
      "d": 598.5454218749946,
      "v": 79
    },
    {
      "midi": 60,
      "hit": false,
      "t": 149535.3960000002,
      "d": 615.372000000003,
      "v": 79
    },
    {
      "midi": 53,
      "hit": false,
      "t": 150232.49709375022,
      "d": 245.18728124999325,
      "v": 71
    },
    {
      "midi": 57,
      "hit": false,
      "t": 150232.49709375022,
      "d": 788.4453749999811,
      "v": 75
    },
    {
      "midi": 60,
      "hit": false,
      "t": 150234.90089062523,
      "d": 800.4643593749788,
      "v": 27
    },
    {
      "midi": 53,
      "hit": false,
      "t": 150919.9830000002,
      "d": 100.95946874999208,
      "v": 63
    },
    {
      "midi": 57,
      "hit": false,
      "t": 151155.5550937502,
      "d": 1286.0313281250128,
      "v": 67
    },
    {
      "midi": 60,
      "hit": false,
      "t": 151155.5550937502,
      "d": 1300.4541093750158,
      "v": 83
    },
    {
      "midi": 57,
      "hit": false,
      "t": 152537.73829687524,
      "d": 399.03028125001583,
      "v": 71
    },
    {
      "midi": 60,
      "hit": false,
      "t": 152540.14209375024,
      "d": 435.08723437500885,
      "v": 63
    },
    {
      "midi": 53,
      "hit": false,
      "t": 153237.24318750025,
      "d": 759.5998125000042,
      "v": 75
    },
    {
      "midi": 58,
      "hit": false,
      "t": 153237.24318750025,
      "d": 817.2909375000163,
      "v": 71
    },
    {
      "midi": 62,
      "hit": false,
      "t": 153242.05078125026,
      "d": 3425.410546875006,
      "v": 75
    },
    {
      "midi": 65,
      "hit": false,
      "t": 156934.28278125028,
      "d": 680.2745156250021,
      "v": 79
    },
    {
      "midi": 57,
      "hit": false,
      "t": 156934.28278125028,
      "d": 716.3314687499951,
      "v": 79
    },
    {
      "midi": 60,
      "hit": false,
      "t": 156934.28278125028,
      "d": 716.3314687499951,
      "v": 75
    },
    {
      "midi": 53,
      "hit": false,
      "t": 157842.91800000027,
      "d": 384.6075000000128,
      "v": 71
    },
    {
      "midi": 57,
      "hit": false,
      "t": 157842.91800000027,
      "d": 747.5808281250065,
      "v": 75
    },
    {
      "midi": 60,
      "hit": false,
      "t": 157842.91800000027,
      "d": 769.2149999999965,
      "v": 75
    },
    {
      "midi": 53,
      "hit": false,
      "t": 158765.97600000026,
      "d": 560.0846718749963,
      "v": 67
    },
    {
      "midi": 57,
      "hit": false,
      "t": 158765.97600000026,
      "d": 788.4453749999811,
      "v": 75
    },
    {
      "midi": 60,
      "hit": false,
      "t": 158765.97600000026,
      "d": 805.2719531249895,
      "v": 75
    },
    {
      "midi": 53,
      "hit": false,
      "t": 159455.86570312525,
      "d": 634.6023749999877,
      "v": 71
    },
    {
      "midi": 57,
      "hit": false,
      "t": 159689.03400000025,
      "d": 483.16317187499953,
      "v": 75
    },
    {
      "midi": 60,
      "hit": false,
      "t": 159689.03400000025,
      "d": 499.9897500000079,
      "v": 71
    },
    {
      "midi": 55,
      "hit": false,
      "t": 160612.09200000027,
      "d": 612.9682031249977,
      "v": 71
    },
    {
      "midi": 60,
      "hit": false,
      "t": 160612.09200000027,
      "d": 634.6023749999877,
      "v": 67
    },
    {
      "midi": 63,
      "hit": false,
      "t": 160612.09200000027,
      "d": 2576.8702500000363,
      "v": 71
    },
    {
      "midi": 60,
      "hit": false,
      "t": 161314.00068750026,
      "d": 372.58851562498603,
      "v": 59
    },
    {
      "midi": 55,
      "hit": false,
      "t": 161314.00068750026,
      "d": 391.81889062499977,
      "v": 75
    },
    {
      "midi": 55,
      "hit": false,
      "t": 161996.67900000027,
      "d": 1173.052875000023,
      "v": 63
    },
    {
      "midi": 60,
      "hit": false,
      "t": 161996.67900000027,
      "d": 1192.2832500000368,
      "v": 59
    },
    {
      "midi": 36,
      "hit": false,
      "t": 162458.20800000028,
      "d": 1002.3832968750212,
      "v": 79
    },
    {
      "midi": 48,
      "hit": false,
      "t": 163150.50150000027,
      "d": 420.6644531250349,
      "v": 75
    },
    {
      "midi": 55,
      "hit": false,
      "t": 163381.2660000003,
      "d": 439.89482812501956,
      "v": 75
    },
    {
      "midi": 63,
      "hit": false,
      "t": 163381.2660000003,
      "d": 615.3720000000321,
      "v": 75
    },
    {
      "midi": 60,
      "hit": false,
      "t": 163381.2660000003,
      "d": 632.1985781250405,
      "v": 75
    },
    {
      "midi": 57,
      "hit": false,
      "t": 164309.13159375032,
      "d": 608.160609374987,
      "v": 63
    },
    {
      "midi": 60,
      "hit": false,
      "t": 164309.13159375032,
      "d": 629.794781249977,
      "v": 59
    },
    {
      "midi": 65,
      "hit": false,
      "t": 164309.13159375032,
      "d": 1706.6957812500186,
      "v": 67
    },
    {
      "midi": 57,
      "hit": false,
      "t": 164996.6175000003,
      "d": 420.6644531250058,
      "v": 75
    },
    {
      "midi": 60,
      "hit": false,
      "t": 164996.6175000003,
      "d": 1036.036453125038,
      "v": 67
    },
    {
      "midi": 57,
      "hit": false,
      "t": 165458.14650000032,
      "d": 540.8542968750116,
      "v": 55
    },
    {
      "midi": 57,
      "hit": false,
      "t": 166152.84379687536,
      "d": 769.2149999999965,
      "v": 75
    },
    {
      "midi": 65,
      "hit": false,
      "t": 166155.24759375036,
      "d": 766.8112031249912,
      "v": 75
    },
    {
      "midi": 60,
      "hit": false,
      "t": 166155.24759375036,
      "d": 783.6377812499995,
      "v": 63
    },
    {
      "midi": 65,
      "hit": false,
      "t": 167078.30559375035,
      "d": 454.3176093749935,
      "v": 71
    },
    {
      "midi": 57,
      "hit": false,
      "t": 167078.30559375035,
      "d": 475.95178124998347,
      "v": 71
    },
    {
      "midi": 60,
      "hit": false,
      "t": 167078.30559375035,
      "d": 531.2391093749902,
      "v": 59
    },
    {
      "midi": 55,
      "hit": false,
      "t": 167998.95979687534,
      "d": 783.6377812499995,
      "v": 79
    },
    {
      "midi": 60,
      "hit": false,
      "t": 167998.95979687534,
      "d": 802.8681562500133,
      "v": 75
    },
    {
      "midi": 63,
      "hit": false,
      "t": 167998.95979687534,
      "d": 805.2719531250186,
      "v": 75
    },
    {
      "midi": 55,
      "hit": false,
      "t": 168922.01779687536,
      "d": 110.5746562500135,
      "v": 67
    },
    {
      "midi": 60,
      "hit": false,
      "t": 168922.01779687536,
      "d": 786.041578125034,
      "v": 63
    },
    {
      "midi": 63,
      "hit": false,
      "t": 168922.01779687536,
      "d": 824.5023281250324,
      "v": 67
    },
    {
      "midi": 55,
      "hit": false,
      "t": 169150.37850000037,
      "d": 343.7429531250091,
      "v": 63
    },
    {
      "midi": 55,
      "hit": false,
      "t": 169614.31129687538,
      "d": 93.74807812500512,
      "v": 55
    },
    {
      "midi": 55,
      "hit": false,
      "t": 169845.07579687538,
      "d": 730.7542499999981,
      "v": 79
    },
    {
      "midi": 58,
      "hit": false,
      "t": 169845.07579687538,
      "d": 745.1770312500012,
      "v": 75
    },
    {
      "midi": 63,
      "hit": false,
      "t": 169845.07579687538,
      "d": 1745.156531249988,
      "v": 71
    },
    {
      "midi": 65,
      "hit": false,
      "t": 169845.07579687538,
      "d": 3285.9903281250154,
      "v": 79
    },
    {
      "midi": 57,
      "hit": false,
      "t": 171693.59559375036,
      "d": 800.4643593750079,
      "v": 67
    },
    {
      "midi": 60,
      "hit": false,
      "t": 171693.59559375036,
      "d": 838.9251093750063,
      "v": 59
    },
    {
      "midi": 60,
      "hit": false,
      "t": 172616.65359375038,
      "d": 531.2391093750193,
      "v": 67
    },
    {
      "midi": 55,
      "hit": false,
      "t": 173542.1153906254,
      "d": 778.8301874999888,
      "v": 67
    },
    {
      "midi": 58,
      "hit": false,
      "t": 173544.5191875004,
      "d": 1028.8250624999928,
      "v": 67
    },
    {
      "midi": 65,
      "hit": false,
      "t": 173544.5191875004,
      "d": 1432.6629374999902,
      "v": 59
    },
    {
      "midi": 63,
      "hit": false,
      "t": 173544.5191875004,
      "d": 1487.950265624997,
      "v": 67
    },
    {
      "midi": 51,
      "hit": false,
      "t": 174232.0050937504,
      "d": 497.58595312500256,
      "v": 71
    },
    {
      "midi": 55,
      "hit": false,
      "t": 174691.1302968754,
      "d": 283.6480312499916,
      "v": 67
    },
    {
      "midi": 58,
      "hit": false,
      "t": 174693.5340937504,
      "d": 319.70498437498463,
      "v": 51
    },
    {
      "midi": 51,
      "hit": false,
      "t": 174924.2985937504,
      "d": 300.474609375,
      "v": 67
    },
    {
      "midi": 57,
      "hit": false,
      "t": 175390.6351875004,
      "d": 951.903562499996,
      "v": 79
    },
    {
      "midi": 53,
      "hit": false,
      "t": 175390.6351875004,
      "d": 1740.3489374999772,
      "v": 79
    },
    {
      "midi": 60,
      "hit": false,
      "t": 175407.4617656254,
      "d": 971.1339374999807,
      "v": 75
    },
    {
      "midi": 58,
      "hit": false,
      "t": 177229.53979687535,
      "d": 149.03540625001187,
      "v": 79
    },
    {
      "midi": 62,
      "hit": false,
      "t": 177231.94359375036,
      "d": 187.49615625001024,
      "v": 79
    },
    {
      "midi": 58,
      "hit": false,
      "t": 177457.90050000037,
      "d": 74.51770312499139,
      "v": 59
    },
    {
      "midi": 60,
      "hit": false,
      "t": 177457.90050000037,
      "d": 132.2088281250035,
      "v": 75
    },
    {
      "midi": 58,
      "hit": false,
      "t": 177688.66500000036,
      "d": 93.74807812500512,
      "v": 71
    },
    {
      "midi": 41,
      "hit": false,
      "t": 177919.42950000038,
      "d": 536.0467031250009,
      "v": 63
    },
    {
      "midi": 58,
      "hit": false,
      "t": 178152.59779687537,
      "d": 149.03540625001187,
      "v": 79
    },
    {
      "midi": 60,
      "hit": false,
      "t": 178155.00159375038,
      "d": 149.03540625001187,
      "v": 67
    },
    {
      "midi": 53,
      "hit": false,
      "t": 178616.5305937504,
      "d": 69.71010937500978,
      "v": 79
    },
    {
      "midi": 41,
      "hit": false,
      "t": 178616.5305937504,
      "d": 588.9302343750023,
      "v": 79
    },
    {
      "midi": 60,
      "hit": false,
      "t": 178842.4875000004,
      "d": 384.6074999999837,
      "v": 79
    },
    {
      "midi": 65,
      "hit": false,
      "t": 178842.4875000004,
      "d": 423.0682499999821,
      "v": 79
    },
    {
      "midi": 70,
      "hit": false,
      "t": 178842.4875000004,
      "d": 483.16317187499953,
      "v": 79
    },
    {
      "midi": 48,
      "hit": false,
      "t": 179306.42029687538,
      "d": 249.99487500003306,
      "v": 71
    },
    {
      "midi": 41,
      "hit": false,
      "t": 179537.1847968754,
      "d": 110.5746562500135,
      "v": 71
    },
    {
      "midi": 53,
      "hit": false,
      "t": 179539.5885937504,
      "d": 127.40123437502189,
      "v": 75
    },
    {
      "midi": 53,
      "hit": false,
      "t": 179763.14170312544,
      "d": 423.0682500000112,
      "v": 79
    },
    {
      "midi": 41,
      "hit": false,
      "t": 179763.14170312544,
      "d": 442.2986250000249,
      "v": 79
    },
    {
      "midi": 94,
      "hit": false,
      "t": 179763.14170312544,
      "d": 865.3668750000361,
      "v": 79
    },
    {
      "midi": 89,
      "hit": false,
      "t": 179763.14170312544,
      "d": 884.5972500000498,
      "v": 79
    },
    {
      "midi": 84,
      "hit": false,
      "t": 179763.14170312544,
      "d": 906.2314218750398,
      "v": 79
    },
    {
      "midi": 48,
      "hit": false,
      "t": 180234.28589062547,
      "d": 247.5910781249986,
      "v": 75
    },
    {
      "midi": 53,
      "hit": false,
      "t": 180234.28589062547,
      "d": 358.1657343750121,
      "v": 63
    },
    {
      "midi": 41,
      "hit": false,
      "t": 180460.24279687548,
      "d": 132.2088281250035,
      "v": 75
    },
    {
      "midi": 58,
      "hit": false,
      "t": 180924.17559375046,
      "d": 533.6429062499956,
      "v": 75
    },
    {
      "midi": 70,
      "hit": false,
      "t": 180924.17559375046,
      "d": 608.160609374987,
      "v": 79
    },
    {
      "midi": 65,
      "hit": false,
      "t": 180924.17559375046,
      "d": 629.794781249977,
      "v": 79
    },
    {
      "midi": 62,
      "hit": false,
      "t": 180924.17559375046,
      "d": 668.2555312499753,
      "v": 79
    },
    {
      "midi": 58,
      "hit": false,
      "t": 181616.46909375043,
      "d": 514.4125312500109,
      "v": 75
    },
    {
      "midi": 62,
      "hit": false,
      "t": 181842.42600000044,
      "d": 788.4453750000102,
      "v": 79
    },
    {
      "midi": 65,
      "hit": false,
      "t": 181842.42600000044,
      "d": 925.4617968750244,
      "v": 79
    },
    {
      "midi": 63,
      "hit": false,
      "t": 182770.29159375047,
      "d": 591.3340312500077,
      "v": 71
    },
    {
      "midi": 67,
      "hit": false,
      "t": 182770.29159375047,
      "d": 591.3340312500077,
      "v": 75
    },
    {
      "midi": 60,
      "hit": false,
      "t": 182770.29159375047,
      "d": 610.5644062500214,
      "v": 75
    },
    {
      "midi": 58,
      "hit": false,
      "t": 183460.1812968755,
      "d": 495.1821562500263,
      "v": 75
    },
    {
      "midi": 63,
      "hit": false,
      "t": 183688.5420000005,
      "d": 788.4453750000102,
      "v": 75
    },
    {
      "midi": 67,
      "hit": false,
      "t": 183688.5420000005,
      "d": 805.2719531250186,
      "v": 79
    },
    {
      "midi": 62,
      "hit": false,
      "t": 184611.60000000053,
      "d": 211.5341250000056,
      "v": 75
    },
    {
      "midi": 58,
      "hit": false,
      "t": 184611.60000000053,
      "d": 343.7429531250091,
      "v": 75
    },
    {
      "midi": 65,
      "hit": false,
      "t": 184611.60000000053,
      "d": 362.9733281250228,
      "v": 75
    },
    {
      "midi": 69,
      "hit": false,
      "t": 184611.60000000053,
      "d": 365.3771250000282,
      "v": 75
    },
    {
      "midi": 58,
      "hit": false,
      "t": 185070.72520312556,
      "d": 752.3884218750463,
      "v": 75
    },
    {
      "midi": 69,
      "hit": false,
      "t": 185308.70109375057,
      "d": 149.03540625001187,
      "v": 75
    },
    {
      "midi": 77,
      "hit": false,
      "t": 185308.70109375057,
      "d": 206.72653125002398,
      "v": 75
    },
    {
      "midi": 74,
      "hit": false,
      "t": 185308.70109375057,
      "d": 223.55310937503236,
      "v": 71
    },
    {
      "midi": 74,
      "hit": false,
      "t": 185767.8262968756,
      "d": 399.03028125001583,
      "v": 79
    },
    {
      "midi": 65,
      "hit": false,
      "t": 185767.8262968756,
      "d": 420.6644531250058,
      "v": 79
    },
    {
      "midi": 69,
      "hit": false,
      "t": 185767.8262968756,
      "d": 420.6644531250058,
      "v": 79
    },
    {
      "midi": 58,
      "hit": false,
      "t": 186457.7160000006,
      "d": 574.5074531249993,
      "v": 79
    },
    {
      "midi": 63,
      "hit": false,
      "t": 186693.2880937506,
      "d": 610.5644062499923,
      "v": 75
    },
    {
      "midi": 67,
      "hit": false,
      "t": 186695.6918906256,
      "d": 627.3909843750007,
      "v": 79
    },
    {
      "midi": 72,
      "hit": false,
      "t": 186695.6918906256,
      "d": 627.3909843750007,
      "v": 63
    },
    {
      "midi": 58,
      "hit": false,
      "t": 187150.0095000006,
      "d": 576.9112500000047,
      "v": 79
    },
    {
      "midi": 63,
      "hit": false,
      "t": 187385.5815937506,
      "d": 341.3391562500037,
      "v": 71
    },
    {
      "midi": 72,
      "hit": false,
      "t": 187387.9853906256,
      "d": 646.6213593749853,
      "v": 75
    },
    {
      "midi": 67,
      "hit": false,
      "t": 187387.9853906256,
      "d": 665.8517343749991,
      "v": 75
    },
    {
      "midi": 63,
      "hit": false,
      "t": 187854.3219843756,
      "d": 120.18984375000582,
      "v": 63
    },
    {
      "midi": 58,
      "hit": false,
      "t": 187854.3219843756,
      "d": 180.28476562499418,
      "v": 75
    },
    {
      "midi": 70,
      "hit": false,
      "t": 188303.832,
      "d": 305.2822031250107,
      "v": 71
    },
    {
      "midi": 74,
      "hit": false,
      "t": 188303.832,
      "d": 478.3555781250179,
      "v": 83
    },
    {
      "midi": 65,
      "hit": false,
      "t": 188534.5965,
      "d": 730.7542499999981,
      "v": 63
    },
    {
      "midi": 70,
      "hit": false,
      "t": 188762.957203125,
      "d": 673.0631250000151,
      "v": 63
    },
    {
      "midi": 74,
      "hit": false,
      "t": 188996.12550000002,
      "d": 269.2252499999886,
      "v": 71
    },
    {
      "midi": 75,
      "hit": false,
      "t": 189226.89,
      "d": 516.8163281250163,
      "v": 75
    },
    {
      "midi": 65,
      "hit": false,
      "t": 189455.25070312503,
      "d": 733.1580468750035,
      "v": 63
    },
    {
      "midi": 70,
      "hit": false,
      "t": 189686.01520312502,
      "d": 576.9112500000338,
      "v": 59
    },
    {
      "midi": 75,
      "hit": false,
      "t": 189919.18350000004,
      "d": 286.051828124997,
      "v": 71
    },
    {
      "midi": 74,
      "hit": false,
      "t": 190149.94800000003,
      "d": 497.58595312500256,
      "v": 75
    },
    {
      "midi": 65,
      "hit": false,
      "t": 190378.30870312505,
      "d": 673.063124999986,
      "v": 71
    },
    {
      "midi": 70,
      "hit": false,
      "t": 190609.07320312504,
      "d": 538.4505000000063,
      "v": 63
    },
    {
      "midi": 74,
      "hit": false,
      "t": 190839.83770312503,
      "d": 269.2252500000177,
      "v": 71
    },
    {
      "midi": 75,
      "hit": false,
      "t": 191070.60220312505,
      "d": 538.4505000000063,
      "v": 79
    },
    {
      "midi": 65,
      "hit": false,
      "t": 191303.77050000007,
      "d": 459.1252031249751,
      "v": 63
    },
    {
      "midi": 70,
      "hit": false,
      "t": 191534.53500000006,
      "d": 305.2822031249816,
      "v": 59
    },
    {
      "midi": 74,
      "hit": false,
      "t": 191762.89570312505,
      "d": 288.45562500003143,
      "v": 75
    },
    {
      "midi": 75,
      "hit": false,
      "t": 191993.66020312507,
      "d": 557.6808749999909,
      "v": 79
    },
    {
      "midi": 67,
      "hit": false,
      "t": 192226.82850000006,
      "d": 612.9682031249977,
      "v": 63
    },
    {
      "midi": 72,
      "hit": false,
      "t": 192457.59300000005,
      "d": 519.2201250000217,
      "v": 63
    },
    {
      "midi": 75,
      "hit": false,
      "t": 192685.95370312507,
      "d": 288.4556250000023,
      "v": 75
    },
    {
      "midi": 77,
      "hit": false,
      "t": 192916.71820312506,
      "d": 461.52900000000955,
      "v": 83
    },
    {
      "midi": 67,
      "hit": false,
      "t": 193147.48270312508,
      "d": 730.754249999969,
      "v": 63
    },
    {
      "midi": 72,
      "hit": false,
      "t": 193378.24720312507,
      "d": 519.2201249999925,
      "v": 63
    },
    {
      "midi": 77,
      "hit": false,
      "t": 193611.41550000006,
      "d": 230.76449999999022,
      "v": 75
    },
    {
      "midi": 75,
      "hit": false,
      "t": 193842.18000000005,
      "d": 516.8163281250163,
      "v": 83
    },
    {
      "midi": 67,
      "hit": false,
      "t": 194070.54070312507,
      "d": 560.0846718749963,
      "v": 59
    },
    {
      "midi": 72,
      "hit": false,
      "t": 194301.30520312506,
      "d": 483.16317187502864,
      "v": 55
    },
    {
      "midi": 75,
      "hit": false,
      "t": 194532.06970312507,
      "d": 271.62904687502305,
      "v": 75
    },
    {
      "midi": 77,
      "hit": false,
      "t": 194765.23800000007,
      "d": 653.8327500000014,
      "v": 83
    },
    {
      "midi": 67,
      "hit": false,
      "t": 194993.59870312508,
      "d": 596.1416249999893,
      "v": 63
    },
    {
      "midi": 72,
      "hit": false,
      "t": 195226.76700000008,
      "d": 403.83787499999744,
      "v": 59
    },
    {
      "midi": 75,
      "hit": false,
      "t": 195455.12770312506,
      "d": 173.07337500000722,
      "v": 67
    },
    {
      "midi": 72,
      "hit": false,
      "t": 195688.2960000001,
      "d": 730.7542500000272,
      "v": 87
    },
    {
      "midi": 51,
      "hit": false,
      "t": 195688.2960000001,
      "d": 1459.104703124991,
      "v": 71
    },
    {
      "midi": 60,
      "hit": false,
      "t": 195919.0605000001,
      "d": 365.37712499999907,
      "v": 63
    },
    {
      "midi": 63,
      "hit": false,
      "t": 196149.8250000001,
      "d": 346.14675000001444,
      "v": 67
    },
    {
      "midi": 67,
      "hit": false,
      "t": 196380.58950000012,
      "d": 305.2822031249816,
      "v": 71
    },
    {
      "midi": 72,
      "hit": false,
      "t": 196611.3540000001,
      "d": 478.3555781249888,
      "v": 71
    },
    {
      "midi": 60,
      "hit": false,
      "t": 196839.7147031251,
      "d": 271.62904687499395,
      "v": 59
    },
    {
      "midi": 67,
      "hit": false,
      "t": 197070.47920312508,
      "d": 252.3986718749802,
      "v": 63
    },
    {
      "midi": 72,
      "hit": false,
      "t": 197301.24370312507,
      "d": 173.0733749999781,
      "v": 79
    },
    {
      "midi": 72,
      "hit": false,
      "t": 197534.41200000007,
      "d": 749.9846250000119,
      "v": 83
    },
    {
      "midi": 53,
      "hit": false,
      "t": 197534.41200000007,
      "d": 1423.047750000027,
      "v": 71
    },
    {
      "midi": 60,
      "hit": false,
      "t": 197762.77270312508,
      "d": 749.9846250000119,
      "v": 67
    },
    {
      "midi": 65,
      "hit": false,
      "t": 197993.53720312507,
      "d": 194.7075468749972,
      "v": 63
    },
    {
      "midi": 69,
      "hit": false,
      "t": 198226.70550000007,
      "d": 249.99487500003306,
      "v": 71
    },
    {
      "midi": 72,
      "hit": false,
      "t": 198457.4700000001,
      "d": 499.9897500000079,
      "v": 79
    },
    {
      "midi": 65,
      "hit": false,
      "t": 198685.8307031251,
      "d": 271.62904687499395,
      "v": 63
    },
    {
      "midi": 60,
      "hit": false,
      "t": 198918.9990000001,
      "d": 74.51770312499139,
      "v": 67
    },
    {
      "midi": 69,
      "hit": false,
      "t": 198921.4027968751,
      "d": 264.4176562499779,
      "v": 67
    },
    {
      "midi": 58,
      "hit": false,
      "t": 199390.1431875006,
      "d": 528.835312500014,
      "v": 75
    },
    {
      "midi": 65,
      "hit": false,
      "t": 199392.5469843756,
      "d": 620.1795937500137,
      "v": 79
    },
    {
      "midi": 62,
      "hit": false,
      "t": 199392.5469843756,
      "d": 658.6403437500121,
      "v": 79
    },
    {
      "midi": 70,
      "hit": false,
      "t": 199394.9507812506,
      "d": 600.94921875,
      "v": 79
    },
    {
      "midi": 58,
      "hit": false,
      "t": 200077.6290937506,
      "d": 514.4125312500109,
      "v": 75
    },
    {
      "midi": 62,
      "hit": false,
      "t": 200305.98979687563,
      "d": 783.6377812499995,
      "v": 79
    },
    {
      "midi": 65,
      "hit": false,
      "t": 200308.39359375063,
      "d": 944.6921718750091,
      "v": 79
    },
    {
      "midi": 58,
      "hit": false,
      "t": 201238.66298437564,
      "d": 524.0277187500033,
      "v": 75
    },
    {
      "midi": 63,
      "hit": false,
      "t": 201238.66298437564,
      "d": 581.7188437500154,
      "v": 71
    },
    {
      "midi": 60,
      "hit": false,
      "t": 201238.66298437564,
      "d": 600.9492187500291,
      "v": 75
    },
    {
      "midi": 67,
      "hit": false,
      "t": 201241.06678125064,
      "d": 579.31504687501,
      "v": 75
    },
    {
      "midi": 58,
      "hit": false,
      "t": 201918.93750000067,
      "d": 497.58595312500256,
      "v": 75
    },
    {
      "midi": 63,
      "hit": false,
      "t": 202147.29820312568,
      "d": 790.8491718749865,
      "v": 75
    },
    {
      "midi": 67,
      "hit": false,
      "t": 202147.29820312568,
      "d": 814.8871406249818,
      "v": 79
    },
    {
      "midi": 62,
      "hit": false,
      "t": 203072.76000000068,
      "d": 209.13032812500023,
      "v": 75
    },
    {
      "midi": 58,
      "hit": false,
      "t": 203072.76000000068,
      "d": 343.7429531250091,
      "v": 75
    },
    {
      "midi": 65,
      "hit": false,
      "t": 203072.76000000068,
      "d": 362.9733281250228,
      "v": 75
    },
    {
      "midi": 69,
      "hit": false,
      "t": 203072.76000000068,
      "d": 362.9733281250228,
      "v": 75
    },
    {
      "midi": 58,
      "hit": false,
      "t": 203536.6927968757,
      "d": 749.9846250000119,
      "v": 75
    },
    {
      "midi": 69,
      "hit": false,
      "t": 203765.0535000007,
      "d": 132.2088281250035,
      "v": 75
    },
    {
      "midi": 77,
      "hit": false,
      "t": 203765.0535000007,
      "d": 209.13032812500023,
      "v": 75
    },
    {
      "midi": 74,
      "hit": false,
      "t": 203765.0535000007,
      "d": 230.76449999999022,
      "v": 71
    },
    {
      "midi": 74,
      "hit": false,
      "t": 204228.9862968757,
      "d": 399.03028125001583,
      "v": 79
    },
    {
      "midi": 65,
      "hit": false,
      "t": 204228.9862968757,
      "d": 418.26065625002957,
      "v": 79
    },
    {
      "midi": 69,
      "hit": false,
      "t": 204228.9862968757,
      "d": 420.6644531250349,
      "v": 79
    },
    {
      "midi": 58,
      "hit": false,
      "t": 204918.87600000072,
      "d": 574.5074531249993,
      "v": 79
    },
    {
      "midi": 63,
      "hit": false,
      "t": 205149.6405000007,
      "d": 615.3720000000321,
      "v": 75
    },
    {
      "midi": 67,
      "hit": false,
      "t": 205149.6405000007,
      "d": 634.6023750000459,
      "v": 79
    },
    {
      "midi": 72,
      "hit": false,
      "t": 205149.6405000007,
      "d": 637.0061718750512,
      "v": 63
    },
    {
      "midi": 58,
      "hit": false,
      "t": 205615.97709375073,
      "d": 569.6998593750468,
      "v": 79
    },
    {
      "midi": 63,
      "hit": false,
      "t": 205841.93400000077,
      "d": 346.14675000001444,
      "v": 71
    },
    {
      "midi": 67,
      "hit": false,
      "t": 205841.93400000077,
      "d": 670.6593281250389,
      "v": 75
    },
    {
      "midi": 72,
      "hit": false,
      "t": 205844.33779687577,
      "d": 651.4289531250251,
      "v": 75
    },
    {
      "midi": 63,
      "hit": false,
      "t": 206308.27059375079,
      "d": 129.80503124999814,
      "v": 63
    },
    {
      "midi": 58,
      "hit": false,
      "t": 206308.27059375079,
      "d": 187.49615625001024,
      "v": 75
    },
    {
      "midi": 58,
      "hit": false,
      "t": 206764.9920000008,
      "d": 538.4505000000063,
      "v": 75
    },
    {
      "midi": 70,
      "hit": false,
      "t": 206764.9920000008,
      "d": 615.372000000003,
      "v": 79
    },
    {
      "midi": 65,
      "hit": false,
      "t": 206764.9920000008,
      "d": 632.1985781250114,
      "v": 79
    },
    {
      "midi": 62,
      "hit": false,
      "t": 206764.9920000008,
      "d": 670.6593281250098,
      "v": 79
    },
    {
      "midi": 58,
      "hit": false,
      "t": 207457.2855000008,
      "d": 519.2201250000217,
      "v": 75
    },
    {
      "midi": 62,
      "hit": false,
      "t": 207685.64620312583,
      "d": 788.4453750000102,
      "v": 79
    },
    {
      "midi": 65,
      "hit": false,
      "t": 207685.64620312583,
      "d": 930.269390625006,
      "v": 79
    },
    {
      "midi": 58,
      "hit": false,
      "t": 208623.12698437582,
      "d": 524.0277187500033,
      "v": 75
    },
    {
      "midi": 63,
      "hit": false,
      "t": 208623.12698437582,
      "d": 581.7188437500154,
      "v": 71
    },
    {
      "midi": 67,
      "hit": false,
      "t": 208623.12698437582,
      "d": 584.1226406250207,
      "v": 75
    },
    {
      "midi": 60,
      "hit": false,
      "t": 208623.12698437582,
      "d": 603.3530156250345,
      "v": 75
    },
    {
      "midi": 58,
      "hit": false,
      "t": 209305.80529687586,
      "d": 497.58595312500256,
      "v": 75
    },
    {
      "midi": 63,
      "hit": false,
      "t": 209536.56979687585,
      "d": 786.0415781250049,
      "v": 75
    },
    {
      "midi": 67,
      "hit": false,
      "t": 209538.97359375085,
      "d": 800.4643593750079,
      "v": 79
    },
    {
      "midi": 62,
      "hit": false,
      "t": 210454.82020312586,
      "d": 213.93792187501094,
      "v": 75
    },
    {
      "midi": 58,
      "hit": false,
      "t": 210454.82020312586,
      "d": 346.14675000001444,
      "v": 75
    },
    {
      "midi": 65,
      "hit": false,
      "t": 210454.82020312586,
      "d": 367.7809218750044,
      "v": 75
    },
    {
      "midi": 69,
      "hit": false,
      "t": 210454.82020312586,
      "d": 367.7809218750044,
      "v": 75
    },
    {
      "midi": 58,
      "hit": false,
      "t": 210923.56059375085,
      "d": 742.7732343749958,
      "v": 75
    },
    {
      "midi": 69,
      "hit": false,
      "t": 211149.51750000086,
      "d": 132.2088281250035,
      "v": 75
    },
    {
      "midi": 77,
      "hit": false,
      "t": 211149.51750000086,
      "d": 209.13032812500023,
      "v": 75
    },
    {
      "midi": 74,
      "hit": false,
      "t": 211149.51750000086,
      "d": 230.76449999999022,
      "v": 71
    },
    {
      "midi": 74,
      "hit": false,
      "t": 211613.45029687585,
      "d": 399.03028125001583,
      "v": 79
    },
    {
      "midi": 65,
      "hit": false,
      "t": 211613.45029687585,
      "d": 420.6644531250058,
      "v": 79
    },
    {
      "midi": 69,
      "hit": false,
      "t": 211613.45029687585,
      "d": 420.6644531250058,
      "v": 79
    },
    {
      "midi": 58,
      "hit": false,
      "t": 212303.34000000084,
      "d": 576.9112500000047,
      "v": 79
    },
    {
      "midi": 63,
      "hit": false,
      "t": 212541.31589062585,
      "d": 605.7568124999816,
      "v": 75
    },
    {
      "midi": 67,
      "hit": false,
      "t": 212541.31589062585,
      "d": 624.9871874999953,
      "v": 79
    },
    {
      "midi": 72,
      "hit": false,
      "t": 212541.31589062585,
      "d": 627.3909843750007,
      "v": 63
    },
    {
      "midi": 58,
      "hit": false,
      "t": 212995.63350000084,
      "d": 576.9112500000047,
      "v": 79
    },
    {
      "midi": 63,
      "hit": false,
      "t": 213228.80179687584,
      "d": 343.7429531250091,
      "v": 71
    },
    {
      "midi": 72,
      "hit": false,
      "t": 213228.80179687584,
      "d": 651.4289531250251,
      "v": 75
    },
    {
      "midi": 67,
      "hit": false,
      "t": 213228.80179687584,
      "d": 668.2555312500335,
      "v": 75
    },
    {
      "midi": 58,
      "hit": false,
      "t": 213695.13839062586,
      "d": 185.0923593750049,
      "v": 75
    },
    {
      "midi": 63,
      "hit": false,
      "t": 213697.54218750086,
      "d": 124.99743749998743,
      "v": 63
    },
    {
      "midi": 58,
      "hit": false,
      "t": 214149.45600000088,
      "d": 3324.4510781250137,
      "v": 79
    },
    {
      "midi": 62,
      "hit": false,
      "t": 214149.45600000088,
      "d": 3324.4510781250137,
      "v": 75
    },
    {
      "midi": 65,
      "hit": false,
      "t": 214149.45600000088,
      "d": 3346.0852500000037,
      "v": 79
    },
    {
      "midi": 70,
      "hit": false,
      "t": 214149.45600000088,
      "d": 3346.0852500000037,
      "v": 63
    }
  ]
}