{
  "jsonPath": "Animes/Inu Yasha MIDI Collection/deep-forest.json",
  "path": "Animes\\Inu Yasha MIDI Collection\\Deep Forest.mid",
  "name": "Deep Forest",
  "difficulty": "Advanced",
  "bpm": 90.99995298335763,
  "notes": [
    {
      "midi": 51,
      "hit": false,
      "t": 10909.092,
      "d": 2045.4547500000008,
      "v": 100
    },
    {
      "midi": 46,
      "hit": false,
      "t": 10909.092,
      "d": 2045.4547500000008,
      "v": 79
    },
    {
      "midi": 58,
      "hit": false,
      "t": 10909.092,
      "d": 2045.4547500000008,
      "v": 111
    },
    {
      "midi": 53,
      "hit": false,
      "t": 10909.092,
      "d": 2045.4547500000008,
      "v": 100
    },
    {
      "midi": 63,
      "hit": false,
      "t": 10909.092,
      "d": 2045.4547500000008,
      "v": 111
    },
    {
      "midi": 53,
      "hit": false,
      "t": 12954.546750000001,
      "d": 681.8182500000003,
      "v": 100
    },
    {
      "midi": 58,
      "hit": false,
      "t": 12954.546750000001,
      "d": 681.8182500000003,
      "v": 95
    },
    {
      "midi": 60,
      "hit": false,
      "t": 12954.546750000001,
      "d": 681.8182500000003,
      "v": 111
    },
    {
      "midi": 46,
      "hit": false,
      "t": 12954.546750000001,
      "d": 681.8182500000003,
      "v": 79
    },
    {
      "midi": 63,
      "hit": false,
      "t": 12954.546750000001,
      "d": 681.8182500000003,
      "v": 111
    },
    {
      "midi": 53,
      "hit": false,
      "t": 13636.365000000002,
      "d": 681.8182500000003,
      "v": 100
    },
    {
      "midi": 58,
      "hit": false,
      "t": 13636.365000000002,
      "d": 681.8182500000003,
      "v": 100
    },
    {
      "midi": 63,
      "hit": false,
      "t": 13636.365000000002,
      "d": 681.8182500000003,
      "v": 111
    },
    {
      "midi": 60,
      "hit": false,
      "t": 13636.365000000002,
      "d": 681.8182500000003,
      "v": 111
    },
    {
      "midi": 46,
      "hit": false,
      "t": 13636.365000000002,
      "d": 681.8182500000003,
      "v": 79
    },
    {
      "midi": 60,
      "hit": false,
      "t": 14318.183250000002,
      "d": 681.8182500000003,
      "v": 111
    },
    {
      "midi": 57,
      "hit": false,
      "t": 14318.183250000002,
      "d": 681.8182500000003,
      "v": 111
    },
    {
      "midi": 53,
      "hit": false,
      "t": 14318.183250000002,
      "d": 681.8182500000003,
      "v": 100
    },
    {
      "midi": 50,
      "hit": false,
      "t": 14318.183250000002,
      "d": 681.8182500000003,
      "v": 100
    },
    {
      "midi": 45,
      "hit": false,
      "t": 14318.183250000002,
      "d": 681.8182500000003,
      "v": 79
    },
    {
      "midi": 46,
      "hit": false,
      "t": 15000.001500000002,
      "d": 8181.8189999999995,
      "v": 79
    },
    {
      "midi": 58,
      "hit": false,
      "t": 15000.001500000002,
      "d": 8181.8189999999995,
      "v": 111
    },
    {
      "midi": 50,
      "hit": false,
      "t": 15000.001500000002,
      "d": 8181.8189999999995,
      "v": 100
    },
    {
      "midi": 62,
      "hit": false,
      "t": 15000.001500000002,
      "d": 8181.8189999999995,
      "v": 111
    },
    {
      "midi": 53,
      "hit": false,
      "t": 21818.184,
      "d": 1363.6365000000005,
      "v": 100
    },
    {
      "midi": 60,
      "hit": false,
      "t": 21818.184,
      "d": 2045.4547500000008,
      "v": 111
    },
    {
      "midi": 57,
      "hit": false,
      "t": 21818.184,
      "d": 2045.4547500000008,
      "v": 111
    },
    {
      "midi": 45,
      "hit": false,
      "t": 21818.184,
      "d": 2045.4547500000008,
      "v": 100
    },
    {
      "midi": 48,
      "hit": false,
      "t": 21818.184,
      "d": 2045.4547500000008,
      "v": 100
    },
    {
      "midi": 60,
      "hit": false,
      "t": 23863.638750000002,
      "d": 681.8182500000003,
      "v": 111
    },
    {
      "midi": 58,
      "hit": false,
      "t": 23863.638750000002,
      "d": 681.8182500000003,
      "v": 95
    },
    {
      "midi": 53,
      "hit": false,
      "t": 23863.638750000002,
      "d": 681.8182500000003,
      "v": 95
    },
    {
      "midi": 48,
      "hit": false,
      "t": 23863.638750000002,
      "d": 681.8182500000003,
      "v": 95
    },
    {
      "midi": 46,
      "hit": false,
      "t": 23863.638750000002,
      "d": 681.8182500000003,
      "v": 95
    },
    {
      "midi": 58,
      "hit": false,
      "t": 24545.457000000002,
      "d": 681.8182500000003,
      "v": 95
    },
    {
      "midi": 57,
      "hit": false,
      "t": 24545.457000000002,
      "d": 681.8182500000003,
      "v": 111
    },
    {
      "midi": 46,
      "hit": false,
      "t": 24545.457000000002,
      "d": 681.8182500000003,
      "v": 95
    },
    {
      "midi": 53,
      "hit": false,
      "t": 24545.457000000002,
      "d": 681.8182500000003,
      "v": 95
    },
    {
      "midi": 48,
      "hit": false,
      "t": 24545.457000000002,
      "d": 681.8182500000003,
      "v": 95
    },
    {
      "midi": 60,
      "hit": false,
      "t": 24545.457000000002,
      "d": 681.8182500000003,
      "v": 111
    },
    {
      "midi": 46,
      "hit": false,
      "t": 25227.275250000002,
      "d": 681.8182500000003,
      "v": 95
    },
    {
      "midi": 48,
      "hit": false,
      "t": 25227.275250000002,
      "d": 681.8182500000003,
      "v": 95
    },
    {
      "midi": 53,
      "hit": false,
      "t": 25227.275250000002,
      "d": 681.8182500000003,
      "v": 95
    },
    {
      "midi": 58,
      "hit": false,
      "t": 25227.275250000002,
      "d": 681.8182500000003,
      "v": 95
    },
    {
      "midi": 60,
      "hit": false,
      "t": 25227.275250000002,
      "d": 681.8182500000003,
      "v": 111
    },
    {
      "midi": 62,
      "hit": false,
      "t": 25909.093500000003,
      "d": 8181.819000000003,
      "v": 111
    },
    {
      "midi": 50,
      "hit": false,
      "t": 25909.093500000003,
      "d": 8181.819000000003,
      "v": 95
    },
    {
      "midi": 58,
      "hit": false,
      "t": 32727.276000000005,
      "d": 1363.6365000000005,
      "v": 111
    },
    {
      "midi": 46,
      "hit": false,
      "t": 32727.276000000005,
      "d": 1363.6365000000005,
      "v": 79
    },
    {
      "midi": 53,
      "hit": false,
      "t": 32727.276000000005,
      "d": 1363.6365000000005,
      "v": 100
    },
    {
      "midi": 63,
      "hit": false,
      "t": 32727.276000000005,
      "d": 2045.4547499999971,
      "v": 111
    },
    {
      "midi": 51,
      "hit": false,
      "t": 32727.276000000005,
      "d": 2045.4547499999971,
      "v": 100
    },
    {
      "midi": 63,
      "hit": false,
      "t": 34772.73075,
      "d": 681.8182499999966,
      "v": 111
    },
    {
      "midi": 46,
      "hit": false,
      "t": 34772.73075,
      "d": 681.8182499999966,
      "v": 79
    },
    {
      "midi": 60,
      "hit": false,
      "t": 34772.73075,
      "d": 681.8182499999966,
      "v": 111
    },
    {
      "midi": 58,
      "hit": false,
      "t": 34772.73075,
      "d": 681.8182499999966,
      "v": 95
    },
    {
      "midi": 53,
      "hit": false,
      "t": 34772.73075,
      "d": 681.8182499999966,
      "v": 100
    },
    {
      "midi": 46,
      "hit": false,
      "t": 35454.549,
      "d": 681.8182499999966,
      "v": 79
    },
    {
      "midi": 60,
      "hit": false,
      "t": 35454.549,
      "d": 681.8182499999966,
      "v": 111
    },
    {
      "midi": 63,
      "hit": false,
      "t": 35454.549,
      "d": 681.8182499999966,
      "v": 111
    },
    {
      "midi": 58,
      "hit": false,
      "t": 35454.549,
      "d": 681.8182499999966,
      "v": 100
    },
    {
      "midi": 53,
      "hit": false,
      "t": 35454.549,
      "d": 681.8182499999966,
      "v": 100
    },
    {
      "midi": 45,
      "hit": false,
      "t": 36136.367249999996,
      "d": 681.8182499999966,
      "v": 79
    },
    {
      "midi": 50,
      "hit": false,
      "t": 36136.367249999996,
      "d": 681.8182499999966,
      "v": 100
    },
    {
      "midi": 53,
      "hit": false,
      "t": 36136.367249999996,
      "d": 681.8182499999966,
      "v": 100
    },
    {
      "midi": 57,
      "hit": false,
      "t": 36136.367249999996,
      "d": 681.8182499999966,
      "v": 111
    },
    {
      "midi": 60,
      "hit": false,
      "t": 36136.367249999996,
      "d": 681.8182499999966,
      "v": 111
    },
    {
      "midi": 62,
      "hit": false,
      "t": 36818.18549999999,
      "d": 8181.819000000003,
      "v": 111
    },
    {
      "midi": 50,
      "hit": false,
      "t": 36818.18549999999,
      "d": 8181.819000000003,
      "v": 100
    },
    {
      "midi": 58,
      "hit": false,
      "t": 36818.18549999999,
      "d": 8181.819000000003,
      "v": 111
    },
    {
      "midi": 46,
      "hit": false,
      "t": 36818.18549999999,
      "d": 8181.819000000003,
      "v": 79
    },
    {
      "midi": 53,
      "hit": false,
      "t": 43636.367999999995,
      "d": 1363.6365000000005,
      "v": 100
    },
    {
      "midi": 48,
      "hit": false,
      "t": 43636.367999999995,
      "d": 2045.4547499999971,
      "v": 100
    },
    {
      "midi": 45,
      "hit": false,
      "t": 43636.367999999995,
      "d": 2045.4547499999971,
      "v": 100
    },
    {
      "midi": 57,
      "hit": false,
      "t": 43636.367999999995,
      "d": 2045.4547499999971,
      "v": 111
    },
    {
      "midi": 60,
      "hit": false,
      "t": 43636.367999999995,
      "d": 2045.4547499999971,
      "v": 111
    },
    {
      "midi": 46,
      "hit": false,
      "t": 45681.82274999999,
      "d": 681.8182499999966,
      "v": 95
    },
    {
      "midi": 48,
      "hit": false,
      "t": 45681.82274999999,
      "d": 681.8182499999966,
      "v": 95
    },
    {
      "midi": 53,
      "hit": false,
      "t": 45681.82274999999,
      "d": 681.8182499999966,
      "v": 95
    },
    {
      "midi": 58,
      "hit": false,
      "t": 45681.82274999999,
      "d": 681.8182499999966,
      "v": 95
    },
    {
      "midi": 60,
      "hit": false,
      "t": 45681.82274999999,
      "d": 681.8182499999966,
      "v": 111
    },
    {
      "midi": 60,
      "hit": false,
      "t": 46363.64099999999,
      "d": 681.8182499999966,
      "v": 111
    },
    {
      "midi": 48,
      "hit": false,
      "t": 46363.64099999999,
      "d": 681.8182499999966,
      "v": 95
    },
    {
      "midi": 53,
      "hit": false,
      "t": 46363.64099999999,
      "d": 681.8182499999966,
      "v": 95
    },
    {
      "midi": 46,
      "hit": false,
      "t": 46363.64099999999,
      "d": 681.8182499999966,
      "v": 95
    },
    {
      "midi": 57,
      "hit": false,
      "t": 46363.64099999999,
      "d": 681.8182499999966,
      "v": 111
    },
    {
      "midi": 58,
      "hit": false,
      "t": 46363.64099999999,
      "d": 681.8182499999966,
      "v": 95
    },
    {
      "midi": 60,
      "hit": false,
      "t": 47045.459249999985,
      "d": 681.8182499999966,
      "v": 111
    },
    {
      "midi": 58,
      "hit": false,
      "t": 47045.459249999985,
      "d": 681.8182499999966,
      "v": 95
    },
    {
      "midi": 53,
      "hit": false,
      "t": 47045.459249999985,
      "d": 681.8182499999966,
      "v": 95
    },
    {
      "midi": 48,
      "hit": false,
      "t": 47045.459249999985,
      "d": 681.8182499999966,
      "v": 95
    },
    {
      "midi": 46,
      "hit": false,
      "t": 47045.459249999985,
      "d": 681.8182499999966,
      "v": 95
    },
    {
      "midi": 62,
      "hit": false,
      "t": 47727.27749999998,
      "d": 2727.273000000001,
      "v": 95
    },
    {
      "midi": 58,
      "hit": false,
      "t": 47727.27749999998,
      "d": 2727.273000000001,
      "v": 95
    },
    {
      "midi": 55,
      "hit": false,
      "t": 47727.27749999998,
      "d": 2727.273000000001,
      "v": 95
    },
    {
      "midi": 50,
      "hit": false,
      "t": 47727.27749999998,
      "d": 2727.273000000001,
      "v": 111
    },
    {
      "midi": 46,
      "hit": false,
      "t": 47727.27749999998,
      "d": 2727.273000000001,
      "v": 111
    },
    {
      "midi": 43,
      "hit": false,
      "t": 50454.55049999998,
      "d": 1363.6365000000005,
      "v": 111
    },
    {
      "midi": 46,
      "hit": false,
      "t": 51818.18699999998,
      "d": 1363.6365000000005,
      "v": 111
    },
    {
      "midi": 50,
      "hit": false,
      "t": 51818.18699999998,
      "d": 1363.6365000000005,
      "v": 111
    },
    {
      "midi": 55,
      "hit": false,
      "t": 51818.18699999998,
      "d": 1363.6365000000005,
      "v": 95
    },
    {
      "midi": 58,
      "hit": false,
      "t": 51818.18699999998,
      "d": 1363.6365000000005,
      "v": 95
    },
    {
      "midi": 62,
      "hit": false,
      "t": 51818.18699999998,
      "d": 1363.6365000000005,
      "v": 95
    },
    {
      "midi": 58,
      "hit": false,
      "t": 51818.187000000005,
      "d": 681.8182499999966,
      "v": 127
    },
    {
      "midi": 60,
      "hit": false,
      "t": 52500.00525,
      "d": 681.8182499999966,
      "v": 127
    },
    {
      "midi": 46,
      "hit": false,
      "t": 53181.823499999984,
      "d": 681.8182499999966,
      "v": 79
    },
    {
      "midi": 50,
      "hit": false,
      "t": 53181.823499999984,
      "d": 681.8182499999966,
      "v": 79
    },
    {
      "midi": 53,
      "hit": false,
      "t": 53181.823499999984,
      "d": 681.8182499999966,
      "v": 79
    },
    {
      "midi": 62,
      "hit": false,
      "t": 53181.8235,
      "d": 1363.6365000000005,
      "v": 127
    },
    {
      "midi": 48,
      "hit": false,
      "t": 53863.64174999998,
      "d": 681.8182499999966,
      "v": 79
    },
    {
      "midi": 46,
      "hit": false,
      "t": 53863.64174999998,
      "d": 681.8182499999966,
      "v": 79
    },
    {
      "midi": 51,
      "hit": false,
      "t": 53863.64174999998,
      "d": 681.8182499999966,
      "v": 79
    },
    {
      "midi": 63,
      "hit": false,
      "t": 54545.45999999998,
      "d": 2045.4547499999971,
      "v": 111
    },
    {
      "midi": 53,
      "hit": false,
      "t": 54545.45999999998,
      "d": 2045.4547499999971,
      "v": 100
    },
    {
      "midi": 58,
      "hit": false,
      "t": 54545.45999999998,
      "d": 2045.4547499999971,
      "v": 111
    },
    {
      "midi": 51,
      "hit": false,
      "t": 54545.45999999998,
      "d": 2045.4547499999971,
      "v": 100
    },
    {
      "midi": 58,
      "hit": false,
      "t": 54545.46,
      "d": 681.8182499999966,
      "v": 127
    },
    {
      "midi": 58,
      "hit": false,
      "t": 54545.46000000001,
      "d": 4090.9095000000016,
      "v": 95
    },
    {
      "midi": 63,
      "hit": false,
      "t": 54545.46000000001,
      "d": 4090.9095000000016,
      "v": 95
    },
    {
      "midi": 60,
      "hit": false,
      "t": 55227.278249999996,
      "d": 681.8182499999966,
      "v": 127
    },
    {
      "midi": 62,
      "hit": false,
      "t": 55909.09649999999,
      "d": 1363.6365000000005,
      "v": 127
    },
    {
      "midi": 63,
      "hit": false,
      "t": 56590.914749999974,
      "d": 681.8182499999966,
      "v": 111
    },
    {
      "midi": 60,
      "hit": false,
      "t": 56590.914749999974,
      "d": 681.8182499999966,
      "v": 111
    },
    {
      "midi": 58,
      "hit": false,
      "t": 56590.914749999974,
      "d": 681.8182499999966,
      "v": 95
    },
    {
      "midi": 53,
      "hit": false,
      "t": 56590.914749999974,
      "d": 681.8182499999966,
      "v": 100
    },
    {
      "midi": 60,
      "hit": false,
      "t": 57272.73299999997,
      "d": 681.8182499999966,
      "v": 111
    },
    {
      "midi": 63,
      "hit": false,
      "t": 57272.73299999997,
      "d": 681.8182499999966,
      "v": 111
    },
    {
      "midi": 58,
      "hit": false,
      "t": 57272.73299999997,
      "d": 681.8182499999966,
      "v": 100
    },
    {
      "midi": 53,
      "hit": false,
      "t": 57272.73299999997,
      "d": 681.8182499999966,
      "v": 100
    },
    {
      "midi": 58,
      "hit": false,
      "t": 57272.73299999999,
      "d": 681.8182499999966,
      "v": 127
    },
    {
      "midi": 50,
      "hit": false,
      "t": 57954.55124999997,
      "d": 681.8182499999966,
      "v": 100
    },
    {
      "midi": 53,
      "hit": false,
      "t": 57954.55124999997,
      "d": 681.8182499999966,
      "v": 100
    },
    {
      "midi": 57,
      "hit": false,
      "t": 57954.55124999997,
      "d": 681.8182499999966,
      "v": 111
    },
    {
      "midi": 60,
      "hit": false,
      "t": 57954.55124999997,
      "d": 681.8182499999966,
      "v": 111
    },
    {
      "midi": 60,
      "hit": false,
      "t": 57954.55124999999,
      "d": 681.8182499999966,
      "v": 127
    },
    {
      "midi": 50,
      "hit": false,
      "t": 58636.369499999964,
      "d": 2727.2729999999938,
      "v": 100
    },
    {
      "midi": 53,
      "hit": false,
      "t": 58636.369499999964,
      "d": 2727.2729999999938,
      "v": 100
    },
    {
      "midi": 58,
      "hit": false,
      "t": 58636.369499999964,
      "d": 2727.2729999999938,
      "v": 111
    },
    {
      "midi": 62,
      "hit": false,
      "t": 58636.369499999986,
      "d": 1363.6365000000005,
      "v": 127
    },
    {
      "midi": 62,
      "hit": false,
      "t": 58636.36950000001,
      "d": 4090.9095000000016,
      "v": 95
    },
    {
      "midi": 58,
      "hit": false,
      "t": 58636.36950000001,
      "d": 4090.9095000000016,
      "v": 95
    },
    {
      "midi": 58,
      "hit": false,
      "t": 60000.00599999999,
      "d": 681.8182499999966,
      "v": 127
    },
    {
      "midi": 65,
      "hit": false,
      "t": 60681.82424999996,
      "d": 681.8182499999966,
      "v": 95
    },
    {
      "midi": 62,
      "hit": false,
      "t": 60681.82424999996,
      "d": 681.8182499999966,
      "v": 95
    },
    {
      "midi": 60,
      "hit": false,
      "t": 60681.82424999998,
      "d": 681.8182499999966,
      "v": 127
    },
    {
      "midi": 62,
      "hit": false,
      "t": 61363.64249999996,
      "d": 681.8182499999966,
      "v": 95
    },
    {
      "midi": 43,
      "hit": false,
      "t": 61363.64249999996,
      "d": 2727.2729999999938,
      "v": 95
    },
    {
      "midi": 62,
      "hit": false,
      "t": 61363.64249999998,
      "d": 2045.4547499999971,
      "v": 127
    },
    {
      "midi": 65,
      "hit": false,
      "t": 62727.27899999995,
      "d": 1363.6365000000005,
      "v": 111
    },
    {
      "midi": 62,
      "hit": false,
      "t": 62727.27899999995,
      "d": 1363.6365000000005,
      "v": 95
    },
    {
      "midi": 58,
      "hit": false,
      "t": 62727.27899999995,
      "d": 1363.6365000000005,
      "v": 95
    },
    {
      "midi": 53,
      "hit": false,
      "t": 62727.27899999995,
      "d": 1363.6365000000005,
      "v": 95
    },
    {
      "midi": 58,
      "hit": false,
      "t": 62727.27900000001,
      "d": 1363.6364999999932,
      "v": 95
    },
    {
      "midi": 60,
      "hit": false,
      "t": 63409.097250000006,
      "d": 1363.6364999999932,
      "v": 95
    },
    {
      "midi": 58,
      "hit": false,
      "t": 64090.91549999995,
      "d": 681.8182499999966,
      "v": 95
    },
    {
      "midi": 60,
      "hit": false,
      "t": 64090.91549999995,
      "d": 681.8182499999966,
      "v": 111
    },
    {
      "midi": 50,
      "hit": false,
      "t": 64090.91549999995,
      "d": 681.8182499999966,
      "v": 111
    },
    {
      "midi": 58,
      "hit": false,
      "t": 64090.915499999974,
      "d": 681.8182499999966,
      "v": 127
    },
    {
      "midi": 62,
      "hit": false,
      "t": 64090.9155,
      "d": 1363.6364999999932,
      "v": 95
    },
    {
      "midi": 53,
      "hit": false,
      "t": 64772.73374999995,
      "d": 681.8182499999966,
      "v": 95
    },
    {
      "midi": 57,
      "hit": false,
      "t": 64772.73374999995,
      "d": 681.8182499999966,
      "v": 111
    },
    {
      "midi": 50,
      "hit": false,
      "t": 64772.73374999995,
      "d": 681.8182499999966,
      "v": 95
    },
    {
      "midi": 60,
      "hit": false,
      "t": 64772.73374999997,
      "d": 1363.6364999999932,
      "v": 127
    },
    {
      "midi": 58,
      "hit": false,
      "t": 64772.73375,
      "d": 681.8182499999966,
      "v": 95
    },
    {
      "midi": 48,
      "hit": false,
      "t": 65454.551999999945,
      "d": 2045.4547499999971,
      "v": 100
    },
    {
      "midi": 53,
      "hit": false,
      "t": 65454.551999999945,
      "d": 2045.4547499999971,
      "v": 100
    },
    {
      "midi": 57,
      "hit": false,
      "t": 65454.551999999945,
      "d": 2045.4547499999971,
      "v": 111
    },
    {
      "midi": 60,
      "hit": false,
      "t": 65454.551999999945,
      "d": 2045.4547499999971,
      "v": 111
    },
    {
      "midi": 65,
      "hit": false,
      "t": 65454.551999999996,
      "d": 4090.9094999999943,
      "v": 79
    },
    {
      "midi": 60,
      "hit": false,
      "t": 65454.551999999996,
      "d": 4090.9094999999943,
      "v": 95
    },
    {
      "midi": 58,
      "hit": false,
      "t": 66136.37024999996,
      "d": 681.8182499999966,
      "v": 127
    },
    {
      "midi": 60,
      "hit": false,
      "t": 66818.18849999996,
      "d": 1363.6364999999932,
      "v": 127
    },
    {
      "midi": 48,
      "hit": false,
      "t": 67500.00674999994,
      "d": 681.8182499999966,
      "v": 95
    },
    {
      "midi": 53,
      "hit": false,
      "t": 67500.00674999994,
      "d": 681.8182499999966,
      "v": 95
    },
    {
      "midi": 58,
      "hit": false,
      "t": 67500.00674999994,
      "d": 681.8182499999966,
      "v": 95
    },
    {
      "midi": 60,
      "hit": false,
      "t": 67500.00674999994,
      "d": 681.8182499999966,
      "v": 111
    },
    {
      "midi": 60,
      "hit": false,
      "t": 68181.82499999994,
      "d": 681.8182499999966,
      "v": 111
    },
    {
      "midi": 48,
      "hit": false,
      "t": 68181.82499999994,
      "d": 681.8182499999966,
      "v": 95
    },
    {
      "midi": 53,
      "hit": false,
      "t": 68181.82499999994,
      "d": 681.8182499999966,
      "v": 95
    },
    {
      "midi": 57,
      "hit": false,
      "t": 68181.82499999994,
      "d": 681.8182499999966,
      "v": 111
    },
    {
      "midi": 58,
      "hit": false,
      "t": 68181.82499999994,
      "d": 681.8182499999966,
      "v": 95
    },
    {
      "midi": 65,
      "hit": false,
      "t": 68181.82499999995,
      "d": 1363.6364999999932,
      "v": 127
    },
    {
      "midi": 60,
      "hit": false,
      "t": 68863.64324999994,
      "d": 681.8182499999966,
      "v": 111
    },
    {
      "midi": 58,
      "hit": false,
      "t": 68863.64324999994,
      "d": 681.8182499999966,
      "v": 95
    },
    {
      "midi": 53,
      "hit": false,
      "t": 68863.64324999994,
      "d": 681.8182499999966,
      "v": 95
    },
    {
      "midi": 48,
      "hit": false,
      "t": 68863.64324999994,
      "d": 681.8182499999966,
      "v": 95
    },
    {
      "midi": 43,
      "hit": false,
      "t": 68863.64324999994,
      "d": 681.8182499999966,
      "v": 95
    },
    {
      "midi": 53,
      "hit": false,
      "t": 69545.46149999993,
      "d": 2727.273000000001,
      "v": 95
    },
    {
      "midi": 50,
      "hit": false,
      "t": 69545.46149999993,
      "d": 2727.273000000001,
      "v": 95
    },
    {
      "midi": 58,
      "hit": false,
      "t": 69545.46149999993,
      "d": 2727.273000000001,
      "v": 111
    },
    {
      "midi": 62,
      "hit": false,
      "t": 69545.46149999993,
      "d": 2727.273000000001,
      "v": 111
    },
    {
      "midi": 43,
      "hit": false,
      "t": 69545.46149999993,
      "d": 2727.273000000001,
      "v": 95
    },
    {
      "midi": 65,
      "hit": false,
      "t": 69545.46149999995,
      "d": 2727.273000000001,
      "v": 127
    },
    {
      "midi": 67,
      "hit": false,
      "t": 69545.46149999999,
      "d": 4090.9094999999943,
      "v": 79
    },
    {
      "midi": 62,
      "hit": false,
      "t": 69545.46149999999,
      "d": 4090.9094999999943,
      "v": 95
    },
    {
      "midi": 65,
      "hit": false,
      "t": 71590.91624999994,
      "d": 681.8182499999966,
      "v": 95
    },
    {
      "midi": 62,
      "hit": false,
      "t": 72272.73449999993,
      "d": 681.8182499999966,
      "v": 95
    },
    {
      "midi": 43,
      "hit": false,
      "t": 72272.73449999993,
      "d": 2727.2729999999865,
      "v": 95
    },
    {
      "midi": 62,
      "hit": false,
      "t": 72954.55274999994,
      "d": 1363.6364999999932,
      "v": 127
    },
    {
      "midi": 58,
      "hit": false,
      "t": 73636.37099999993,
      "d": 1363.6364999999932,
      "v": 95
    },
    {
      "midi": 62,
      "hit": false,
      "t": 73636.37099999993,
      "d": 1363.6364999999932,
      "v": 111
    },
    {
      "midi": 55,
      "hit": false,
      "t": 73636.37099999993,
      "d": 1363.6364999999932,
      "v": 95
    },
    {
      "midi": 50,
      "hit": false,
      "t": 73636.37099999993,
      "d": 1363.6364999999932,
      "v": 95
    },
    {
      "midi": 65,
      "hit": false,
      "t": 73636.37099999993,
      "d": 1363.6364999999932,
      "v": 111
    },
    {
      "midi": 58,
      "hit": false,
      "t": 73636.37099999998,
      "d": 1363.6364999999932,
      "v": 95
    },
    {
      "midi": 63,
      "hit": false,
      "t": 74318.18924999994,
      "d": 1363.6364999999932,
      "v": 127
    },
    {
      "midi": 60,
      "hit": false,
      "t": 74318.18924999998,
      "d": 1363.6364999999932,
      "v": 95
    },
    {
      "midi": 41,
      "hit": false,
      "t": 75000.00749999992,
      "d": 681.8182499999966,
      "v": 95
    },
    {
      "midi": 50,
      "hit": false,
      "t": 75000.00749999992,
      "d": 681.8182499999966,
      "v": 95
    },
    {
      "midi": 62,
      "hit": false,
      "t": 75000.00749999998,
      "d": 1363.6364999999932,
      "v": 95
    },
    {
      "midi": 39,
      "hit": false,
      "t": 75681.82574999992,
      "d": 681.8182499999966,
      "v": 95
    },
    {
      "midi": 46,
      "hit": false,
      "t": 75681.82574999992,
      "d": 681.8182499999966,
      "v": 95
    },
    {
      "midi": 65,
      "hit": false,
      "t": 75681.82574999993,
      "d": 1363.6364999999932,
      "v": 127
    },
    {
      "midi": 60,
      "hit": false,
      "t": 75681.82574999997,
      "d": 681.8182499999966,
      "v": 95
    },
    {
      "midi": 51,
      "hit": false,
      "t": 76363.64399999991,
      "d": 2045.4547500000044,
      "v": 100
    },
    {
      "midi": 58,
      "hit": false,
      "t": 76363.64399999991,
      "d": 2045.4547500000044,
      "v": 111
    },
    {
      "midi": 53,
      "hit": false,
      "t": 76363.64399999991,
      "d": 2045.4547500000044,
      "v": 100
    },
    {
      "midi": 63,
      "hit": false,
      "t": 76363.64399999991,
      "d": 2045.4547500000044,
      "v": 111
    },
    {
      "midi": 65,
      "hit": false,
      "t": 76363.64399999997,
      "d": 4090.9094999999943,
      "v": 95
    },
    {
      "midi": 62,
      "hit": false,
      "t": 76363.64399999997,
      "d": 4090.9094999999943,
      "v": 95
    },
    {
      "midi": 58,
      "hit": false,
      "t": 77045.46224999992,
      "d": 681.8182499999966,
      "v": 127
    },
    {
      "midi": 58,
      "hit": false,
      "t": 77727.28049999992,
      "d": 2045.4547500000044,
      "v": 127
    },
    {
      "midi": 53,
      "hit": false,
      "t": 78409.09874999992,
      "d": 681.8182499999966,
      "v": 100
    },
    {
      "midi": 58,
      "hit": false,
      "t": 78409.09874999992,
      "d": 681.8182499999966,
      "v": 95
    },
    {
      "midi": 60,
      "hit": false,
      "t": 78409.09874999992,
      "d": 681.8182499999966,
      "v": 111
    },
    {
      "midi": 63,
      "hit": false,
      "t": 78409.09874999992,
      "d": 681.8182499999966,
      "v": 111
    },
    {
      "midi": 53,
      "hit": false,
      "t": 79090.91699999991,
      "d": 681.8182499999966,
      "v": 100
    },
    {
      "midi": 58,
      "hit": false,
      "t": 79090.91699999991,
      "d": 681.8182499999966,
      "v": 100
    },
    {
      "midi": 63,
      "hit": false,
      "t": 79090.91699999991,
      "d": 681.8182499999966,
      "v": 111
    },
    {
      "midi": 60,
      "hit": false,
      "t": 79090.91699999991,
      "d": 681.8182499999966,
      "v": 111
    },
    {
      "midi": 60,
      "hit": false,
      "t": 79772.73524999991,
      "d": 681.8182499999966,
      "v": 111
    },
    {
      "midi": 57,
      "hit": false,
      "t": 79772.73524999991,
      "d": 681.8182499999966,
      "v": 111
    },
    {
      "midi": 53,
      "hit": false,
      "t": 79772.73524999991,
      "d": 681.8182499999966,
      "v": 100
    },
    {
      "midi": 50,
      "hit": false,
      "t": 79772.73524999991,
      "d": 681.8182499999966,
      "v": 100
    },
    {
      "midi": 62,
      "hit": false,
      "t": 79772.73524999993,
      "d": 681.8182499999966,
      "v": 127
    },
    {
      "midi": 58,
      "hit": false,
      "t": 80454.5534999999,
      "d": 2727.273000000001,
      "v": 111
    },
    {
      "midi": 53,
      "hit": false,
      "t": 80454.5534999999,
      "d": 2727.273000000001,
      "v": 100
    },
    {
      "midi": 50,
      "hit": false,
      "t": 80454.5534999999,
      "d": 2727.273000000001,
      "v": 100
    },
    {
      "midi": 63,
      "hit": false,
      "t": 80454.55349999992,
      "d": 681.8182499999966,
      "v": 127
    },
    {
      "midi": 62,
      "hit": false,
      "t": 80454.55349999997,
      "d": 4090.9094999999943,
      "v": 95
    },
    {
      "midi": 58,
      "hit": false,
      "t": 80454.55349999997,
      "d": 4090.9094999999943,
      "v": 95
    },
    {
      "midi": 65,
      "hit": false,
      "t": 81136.37174999992,
      "d": 1363.6364999999932,
      "v": 127
    },
    {
      "midi": 62,
      "hit": false,
      "t": 82500.00824999991,
      "d": 681.8182499999966,
      "v": 95
    },
    {
      "midi": 65,
      "hit": false,
      "t": 82500.00824999991,
      "d": 681.8182499999966,
      "v": 95
    },
    {
      "midi": 58,
      "hit": false,
      "t": 82500.00824999991,
      "d": 681.8182499999966,
      "v": 127
    },
    {
      "midi": 62,
      "hit": false,
      "t": 83181.82649999991,
      "d": 681.8182499999966,
      "v": 95
    },
    {
      "midi": 43,
      "hit": false,
      "t": 83181.82649999991,
      "d": 2727.2729999999865,
      "v": 95
    },
    {
      "midi": 58,
      "hit": false,
      "t": 83181.82649999991,
      "d": 2045.4547500000044,
      "v": 127
    },
    {
      "midi": 53,
      "hit": false,
      "t": 84545.4629999999,
      "d": 1363.6364999999932,
      "v": 95
    },
    {
      "midi": 58,
      "hit": false,
      "t": 84545.4629999999,
      "d": 1363.6364999999932,
      "v": 95
    },
    {
      "midi": 62,
      "hit": false,
      "t": 84545.4629999999,
      "d": 1363.6364999999932,
      "v": 95
    },
    {
      "midi": 65,
      "hit": false,
      "t": 84545.4629999999,
      "d": 1363.6364999999932,
      "v": 111
    },
    {
      "midi": 60,
      "hit": false,
      "t": 84545.46299999996,
      "d": 1363.6364999999932,
      "v": 95
    },
    {
      "midi": 62,
      "hit": false,
      "t": 85227.28124999996,
      "d": 1363.6364999999932,
      "v": 95
    },
    {
      "midi": 50,
      "hit": false,
      "t": 85909.0994999999,
      "d": 681.8182499999966,
      "v": 111
    },
    {
      "midi": 60,
      "hit": false,
      "t": 85909.0994999999,
      "d": 681.8182499999966,
      "v": 111
    },
    {
      "midi": 58,
      "hit": false,
      "t": 85909.0994999999,
      "d": 681.8182499999966,
      "v": 95
    },
    {
      "midi": 58,
      "hit": false,
      "t": 85909.09949999991,
      "d": 681.8182499999966,
      "v": 127
    },
    {
      "midi": 58,
      "hit": false,
      "t": 85909.09949999995,
      "d": 1363.6364999999932,
      "v": 95
    },
    {
      "midi": 50,
      "hit": false,
      "t": 86590.91774999989,
      "d": 681.8182499999966,
      "v": 95
    },
    {
      "midi": 57,
      "hit": false,
      "t": 86590.91774999989,
      "d": 681.8182499999966,
      "v": 111
    },
    {
      "midi": 53,
      "hit": false,
      "t": 86590.91774999989,
      "d": 681.8182499999966,
      "v": 95
    },
    {
      "midi": 60,
      "hit": false,
      "t": 86590.9177499999,
      "d": 1363.6364999999932,
      "v": 127
    },
    {
      "midi": 55,
      "hit": false,
      "t": 86590.91774999995,
      "d": 681.8182499999966,
      "v": 95
    },
    {
      "midi": 60,
      "hit": false,
      "t": 87272.73599999989,
      "d": 2045.4547500000044,
      "v": 111
    },
    {
      "midi": 57,
      "hit": false,
      "t": 87272.73599999989,
      "d": 2045.4547500000044,
      "v": 111
    },
    {
      "midi": 53,
      "hit": false,
      "t": 87272.73599999989,
      "d": 2045.4547500000044,
      "v": 100
    },
    {
      "midi": 48,
      "hit": false,
      "t": 87272.73599999989,
      "d": 2045.4547500000044,
      "v": 100
    },
    {
      "midi": 60,
      "hit": false,
      "t": 87272.73599999995,
      "d": 2045.4547500000044,
      "v": 95
    },
    {
      "midi": 57,
      "hit": false,
      "t": 87272.73599999995,
      "d": 2045.4547500000044,
      "v": 95
    },
    {
      "midi": 58,
      "hit": false,
      "t": 87954.5542499999,
      "d": 681.8182499999966,
      "v": 127
    },
    {
      "midi": 60,
      "hit": false,
      "t": 88636.3724999999,
      "d": 1363.6364999999932,
      "v": 127
    },
    {
      "midi": 60,
      "hit": false,
      "t": 89318.19074999989,
      "d": 681.8182499999966,
      "v": 111
    },
    {
      "midi": 58,
      "hit": false,
      "t": 89318.19074999989,
      "d": 681.8182499999966,
      "v": 95
    },
    {
      "midi": 53,
      "hit": false,
      "t": 89318.19074999989,
      "d": 681.8182499999966,
      "v": 95
    },
    {
      "midi": 48,
      "hit": false,
      "t": 89318.19074999989,
      "d": 681.8182499999966,
      "v": 95
    },
    {
      "midi": 65,
      "hit": false,
      "t": 89318.19074999995,
      "d": 2045.4547500000044,
      "v": 95
    },
    {
      "midi": 62,
      "hit": false,
      "t": 89318.19074999995,
      "d": 2045.4547500000044,
      "v": 95
    },
    {
      "midi": 58,
      "hit": false,
      "t": 90000.00899999989,
      "d": 681.8182499999966,
      "v": 95
    },
    {
      "midi": 57,
      "hit": false,
      "t": 90000.00899999989,
      "d": 681.8182499999966,
      "v": 111
    },
    {
      "midi": 53,
      "hit": false,
      "t": 90000.00899999989,
      "d": 681.8182499999966,
      "v": 95
    },
    {
      "midi": 48,
      "hit": false,
      "t": 90000.00899999989,
      "d": 681.8182499999966,
      "v": 95
    },
    {
      "midi": 60,
      "hit": false,
      "t": 90000.00899999989,
      "d": 681.8182499999966,
      "v": 111
    },
    {
      "midi": 58,
      "hit": false,
      "t": 90000.00899999989,
      "d": 681.8182499999966,
      "v": 127
    },
    {
      "midi": 43,
      "hit": false,
      "t": 90681.82724999989,
      "d": 681.8182499999966,
      "v": 95
    },
    {
      "midi": 48,
      "hit": false,
      "t": 90681.82724999989,
      "d": 681.8182499999966,
      "v": 95
    },
    {
      "midi": 53,
      "hit": false,
      "t": 90681.82724999989,
      "d": 681.8182499999966,
      "v": 95
    },
    {
      "midi": 58,
      "hit": false,
      "t": 90681.82724999989,
      "d": 681.8182499999966,
      "v": 95
    },
    {
      "midi": 60,
      "hit": false,
      "t": 90681.82724999989,
      "d": 681.8182499999966,
      "v": 111
    },
    {
      "midi": 58,
      "hit": false,
      "t": 90681.82724999989,
      "d": 2727.273000000001,
      "v": 127
    },
    {
      "midi": 43,
      "hit": false,
      "t": 91363.64549999988,
      "d": 2727.273000000001,
      "v": 95
    },
    {
      "midi": 62,
      "hit": false,
      "t": 91363.64549999988,
      "d": 2727.273000000001,
      "v": 111
    },
    {
      "midi": 58,
      "hit": false,
      "t": 91363.64549999988,
      "d": 2727.273000000001,
      "v": 111
    },
    {
      "midi": 50,
      "hit": false,
      "t": 91363.64549999988,
      "d": 2727.273000000001,
      "v": 95
    },
    {
      "midi": 53,
      "hit": false,
      "t": 91363.64549999988,
      "d": 2727.273000000001,
      "v": 95
    },
    {
      "midi": 62,
      "hit": false,
      "t": 91363.64549999996,
      "d": 2727.273000000001,
      "v": 95
    },
    {
      "midi": 58,
      "hit": false,
      "t": 91363.64549999996,
      "d": 2727.273000000001,
      "v": 95
    },
    {
      "midi": 65,
      "hit": false,
      "t": 93409.10024999989,
      "d": 681.8182499999966,
      "v": 95
    },
    {
      "midi": 62,
      "hit": false,
      "t": 94090.91849999988,
      "d": 681.8182499999966,
      "v": 95
    },
    {
      "midi": 43,
      "hit": false,
      "t": 94090.91849999988,
      "d": 2727.2729999999865,
      "v": 95
    },
    {
      "midi": 65,
      "hit": false,
      "t": 95454.55499999988,
      "d": 1363.6364999999932,
      "v": 111
    },
    {
      "midi": 50,
      "hit": false,
      "t": 95454.55499999988,
      "d": 1363.6364999999932,
      "v": 95
    },
    {
      "midi": 55,
      "hit": false,
      "t": 95454.55499999988,
      "d": 1363.6364999999932,
      "v": 95
    },
    {
      "midi": 62,
      "hit": false,
      "t": 95454.55499999988,
      "d": 1363.6364999999932,
      "v": 111
    },
    {
      "midi": 58,
      "hit": false,
      "t": 95454.55499999988,
      "d": 1363.6364999999932,
      "v": 95
    },
    {
      "midi": 58,
      "hit": false,
      "t": 95454.55499999989,
      "d": 681.8182499999966,
      "v": 127
    },
    {
      "midi": 60,
      "hit": false,
      "t": 95454.55499999995,
      "d": 1363.6364999999932,
      "v": 95
    },
    {
      "midi": 60,
      "hit": false,
      "t": 96136.37324999989,
      "d": 681.8182499999966,
      "v": 127
    },
    {
      "midi": 62,
      "hit": false,
      "t": 96136.37324999995,
      "d": 1363.6364999999932,
      "v": 95
    },
    {
      "midi": 50,
      "hit": false,
      "t": 96818.19149999987,
      "d": 681.8182499999966,
      "v": 95
    },
    {
      "midi": 41,
      "hit": false,
      "t": 96818.19149999987,
      "d": 681.8182499999966,
      "v": 95
    },
    {
      "midi": 62,
      "hit": false,
      "t": 96818.19149999988,
      "d": 1363.6364999999932,
      "v": 127
    },
    {
      "midi": 58,
      "hit": false,
      "t": 96818.19149999994,
      "d": 1363.6364999999932,
      "v": 95
    },
    {
      "midi": 46,
      "hit": false,
      "t": 97500.00974999987,
      "d": 681.8182499999966,
      "v": 95
    },
    {
      "midi": 39,
      "hit": false,
      "t": 97500.00974999987,
      "d": 681.8182499999966,
      "v": 95
    },
    {
      "midi": 55,
      "hit": false,
      "t": 97500.00974999994,
      "d": 681.8182499999966,
      "v": 95
    },
    {
      "midi": 51,
      "hit": false,
      "t": 98181.82799999986,
      "d": 2045.4547500000044,
      "v": 100
    },
    {
      "midi": 58,
      "hit": false,
      "t": 98181.82799999986,
      "d": 2045.4547500000044,
      "v": 111
    },
    {
      "midi": 53,
      "hit": false,
      "t": 98181.82799999986,
      "d": 2045.4547500000044,
      "v": 100
    },
    {
      "midi": 63,
      "hit": false,
      "t": 98181.82799999986,
      "d": 2045.4547500000044,
      "v": 111
    },
    {
      "midi": 58,
      "hit": false,
      "t": 98181.82799999988,
      "d": 681.8182499999966,
      "v": 127
    },
    {
      "midi": 63,
      "hit": false,
      "t": 98181.82799999994,
      "d": 4090.9094999999943,
      "v": 95
    },
    {
      "midi": 58,
      "hit": false,
      "t": 98181.82799999994,
      "d": 4090.9094999999943,
      "v": 95
    },
    {
      "midi": 60,
      "hit": false,
      "t": 98863.64624999987,
      "d": 681.8182499999966,
      "v": 127
    },
    {
      "midi": 62,
      "hit": false,
      "t": 99545.46449999987,
      "d": 1363.6364999999932,
      "v": 127
    },
    {
      "midi": 53,
      "hit": false,
      "t": 100227.28274999987,
      "d": 681.8182499999966,
      "v": 100
    },
    {
      "midi": 58,
      "hit": false,
      "t": 100227.28274999987,
      "d": 681.8182499999966,
      "v": 95
    },
    {
      "midi": 60,
      "hit": false,
      "t": 100227.28274999987,
      "d": 681.8182499999966,
      "v": 111
    },
    {
      "midi": 63,
      "hit": false,
      "t": 100227.28274999987,
      "d": 681.8182499999966,
      "v": 111
    },
    {
      "midi": 53,
      "hit": false,
      "t": 100909.10099999986,
      "d": 681.8182499999966,
      "v": 100
    },
    {
      "midi": 58,
      "hit": false,
      "t": 100909.10099999986,
      "d": 681.8182499999966,
      "v": 100
    },
    {
      "midi": 63,
      "hit": false,
      "t": 100909.10099999986,
      "d": 681.8182499999966,
      "v": 111
    },
    {
      "midi": 60,
      "hit": false,
      "t": 100909.10099999986,
      "d": 681.8182499999966,
      "v": 111
    },
    {
      "midi": 58,
      "hit": false,
      "t": 100909.10099999986,
      "d": 681.8182499999966,
      "v": 127
    },
    {
      "midi": 60,
      "hit": false,
      "t": 101590.91924999986,
      "d": 681.8182499999966,
      "v": 111
    },
    {
      "midi": 57,
      "hit": false,
      "t": 101590.91924999986,
      "d": 681.8182499999966,
      "v": 111
    },
    {
      "midi": 53,
      "hit": false,
      "t": 101590.91924999986,
      "d": 681.8182499999966,
      "v": 100
    },
    {
      "midi": 50,
      "hit": false,
      "t": 101590.91924999986,
      "d": 681.8182499999966,
      "v": 100
    },
    {
      "midi": 60,
      "hit": false,
      "t": 101590.91924999986,
      "d": 681.8182499999966,
      "v": 127
    },
    {
      "midi": 58,
      "hit": false,
      "t": 102272.73749999986,
      "d": 2727.273000000001,
      "v": 111
    },
    {
      "midi": 53,
      "hit": false,
      "t": 102272.73749999986,
      "d": 2727.273000000001,
      "v": 100
    },
    {
      "midi": 50,
      "hit": false,
      "t": 102272.73749999986,
      "d": 2727.273000000001,
      "v": 100
    },
    {
      "midi": 62,
      "hit": false,
      "t": 102272.73749999986,
      "d": 1363.6364999999932,
      "v": 127
    },
    {
      "midi": 58,
      "hit": false,
      "t": 102272.73749999993,
      "d": 4090.9094999999943,
      "v": 95
    },
    {
      "midi": 62,
      "hit": false,
      "t": 102272.73749999993,
      "d": 4090.9094999999943,
      "v": 95
    },
    {
      "midi": 58,
      "hit": false,
      "t": 103636.37399999985,
      "d": 681.8182499999966,
      "v": 127
    },
    {
      "midi": 60,
      "hit": false,
      "t": 104318.19224999985,
      "d": 681.8182499999966,
      "v": 127
    },
    {
      "midi": 62,
      "hit": false,
      "t": 104318.19224999986,
      "d": 681.8182499999966,
      "v": 95
    },
    {
      "midi": 65,
      "hit": false,
      "t": 104318.19224999986,
      "d": 681.8182499999966,
      "v": 95
    },
    {
      "midi": 62,
      "hit": false,
      "t": 105000.01049999984,
      "d": 2045.4547500000044,
      "v": 127
    },
    {
      "midi": 62,
      "hit": false,
      "t": 105000.01049999986,
      "d": 681.8182499999966,
      "v": 95
    },
    {
      "midi": 43,
      "hit": false,
      "t": 105000.01049999986,
      "d": 2727.2729999999865,
      "v": 95
    },
    {
      "midi": 53,
      "hit": false,
      "t": 106363.64699999985,
      "d": 1363.6364999999932,
      "v": 95
    },
    {
      "midi": 58,
      "hit": false,
      "t": 106363.64699999985,
      "d": 1363.6364999999932,
      "v": 95
    },
    {
      "midi": 62,
      "hit": false,
      "t": 106363.64699999985,
      "d": 1363.6364999999932,
      "v": 95
    },
    {
      "midi": 65,
      "hit": false,
      "t": 106363.64699999985,
      "d": 1363.6364999999932,
      "v": 111
    },
    {
      "midi": 58,
      "hit": false,
      "t": 106363.64699999992,
      "d": 1363.6364999999932,
      "v": 95
    },
    {
      "midi": 60,
      "hit": false,
      "t": 107045.46524999992,
      "d": 1363.6364999999932,
      "v": 95
    },
    {
      "midi": 50,
      "hit": false,
      "t": 107727.28349999984,
      "d": 681.8182499999966,
      "v": 111
    },
    {
      "midi": 60,
      "hit": false,
      "t": 107727.28349999984,
      "d": 681.8182499999966,
      "v": 111
    },
    {
      "midi": 58,
      "hit": false,
      "t": 107727.28349999984,
      "d": 681.8182499999966,
      "v": 95
    },
    {
      "midi": 58,
      "hit": false,
      "t": 107727.28349999984,
      "d": 681.8182499999966,
      "v": 127
    },
    {
      "midi": 62,
      "hit": false,
      "t": 107727.28349999992,
      "d": 1363.6364999999932,
      "v": 95
    },
    {
      "midi": 50,
      "hit": false,
      "t": 108409.10174999984,
      "d": 681.8182499999966,
      "v": 95
    },
    {
      "midi": 57,
      "hit": false,
      "t": 108409.10174999984,
      "d": 681.8182499999966,
      "v": 111
    },
    {
      "midi": 53,
      "hit": false,
      "t": 108409.10174999984,
      "d": 681.8182499999966,
      "v": 95
    },
    {
      "midi": 60,
      "hit": false,
      "t": 108409.10174999984,
      "d": 1363.6364999999932,
      "v": 127
    },
    {
      "midi": 58,
      "hit": false,
      "t": 108409.10174999991,
      "d": 681.8182499999966,
      "v": 95
    },
    {
      "midi": 60,
      "hit": false,
      "t": 109090.91999999984,
      "d": 2045.4547500000044,
      "v": 111
    },
    {
      "midi": 57,
      "hit": false,
      "t": 109090.91999999984,
      "d": 2045.4547500000044,
      "v": 111
    },
    {
      "midi": 53,
      "hit": false,
      "t": 109090.91999999984,
      "d": 2045.4547500000044,
      "v": 100
    },
    {
      "midi": 48,
      "hit": false,
      "t": 109090.91999999984,
      "d": 2045.4547500000044,
      "v": 100
    },
    {
      "midi": 60,
      "hit": false,
      "t": 109090.91999999991,
      "d": 4090.9094999999943,
      "v": 95
    },
    {
      "midi": 65,
      "hit": false,
      "t": 109090.91999999991,
      "d": 4090.9094999999943,
      "v": 79
    },
    {
      "midi": 58,
      "hit": false,
      "t": 109772.73824999983,
      "d": 681.8182499999966,
      "v": 127
    },
    {
      "midi": 60,
      "hit": false,
      "t": 110454.55649999983,
      "d": 1659.0910749999894,
      "v": 127
    },
    {
      "midi": 60,
      "hit": false,
      "t": 111136.37474999984,
      "d": 681.8182499999966,
      "v": 111
    },
    {
      "midi": 58,
      "hit": false,
      "t": 111136.37474999984,
      "d": 681.8182499999966,
      "v": 95
    },
    {
      "midi": 53,
      "hit": false,
      "t": 111136.37474999984,
      "d": 681.8182499999966,
      "v": 95
    },
    {
      "midi": 48,
      "hit": false,
      "t": 111136.37474999984,
      "d": 681.8182499999966,
      "v": 95
    },
    {
      "midi": 65,
      "hit": false,
      "t": 111818.19299999982,
      "d": 1363.6364999999932,
      "v": 127
    },
    {
      "midi": 58,
      "hit": false,
      "t": 111818.19299999984,
      "d": 681.8182499999966,
      "v": 95
    },
    {
      "midi": 57,
      "hit": false,
      "t": 111818.19299999984,
      "d": 681.8182499999966,
      "v": 111
    },
    {
      "midi": 53,
      "hit": false,
      "t": 111818.19299999984,
      "d": 681.8182499999966,
      "v": 95
    },
    {
      "midi": 48,
      "hit": false,
      "t": 111818.19299999984,
      "d": 681.8182499999966,
      "v": 95
    },
    {
      "midi": 60,
      "hit": false,
      "t": 111818.19299999984,
      "d": 681.8182499999966,
      "v": 111
    },
    {
      "midi": 43,
      "hit": false,
      "t": 112500.01124999984,
      "d": 681.8182499999966,
      "v": 95
    },
    {
      "midi": 48,
      "hit": false,
      "t": 112500.01124999984,
      "d": 681.8182499999966,
      "v": 95
    },
    {
      "midi": 53,
      "hit": false,
      "t": 112500.01124999984,
      "d": 681.8182499999966,
      "v": 95
    },
    {
      "midi": 58,
      "hit": false,
      "t": 112500.01124999984,
      "d": 681.8182499999966,
      "v": 95
    },
    {
      "midi": 60,
      "hit": false,
      "t": 112500.01124999984,
      "d": 681.8182499999966,
      "v": 111
    },
    {
      "midi": 65,
      "hit": false,
      "t": 113181.82949999982,
      "d": 2727.273000000001,
      "v": 127
    },
    {
      "midi": 43,
      "hit": false,
      "t": 113181.82949999983,
      "d": 2727.273000000001,
      "v": 95
    },
    {
      "midi": 62,
      "hit": false,
      "t": 113181.82949999983,
      "d": 2727.273000000001,
      "v": 111
    },
    {
      "midi": 58,
      "hit": false,
      "t": 113181.82949999983,
      "d": 2727.273000000001,
      "v": 111
    },
    {
      "midi": 50,
      "hit": false,
      "t": 113181.82949999983,
      "d": 2727.273000000001,
      "v": 95
    },
    {
      "midi": 53,
      "hit": false,
      "t": 113181.82949999983,
      "d": 2727.273000000001,
      "v": 95
    },
    {
      "midi": 62,
      "hit": false,
      "t": 113181.8294999999,
      "d": 4090.9094999999943,
      "v": 95
    },
    {
      "midi": 67,
      "hit": false,
      "t": 113181.8294999999,
      "d": 4090.9094999999943,
      "v": 79
    },
    {
      "midi": 65,
      "hit": false,
      "t": 115227.28424999984,
      "d": 681.8182499999966,
      "v": 95
    },
    {
      "midi": 62,
      "hit": false,
      "t": 115909.10249999983,
      "d": 681.8182499999966,
      "v": 95
    },
    {
      "midi": 43,
      "hit": false,
      "t": 115909.10249999983,
      "d": 2727.2729999999865,
      "v": 95
    },
    {
      "midi": 62,
      "hit": false,
      "t": 116590.92074999982,
      "d": 1363.6364999999932,
      "v": 127
    },
    {
      "midi": 65,
      "hit": false,
      "t": 117272.73899999983,
      "d": 1363.6364999999932,
      "v": 111
    },
    {
      "midi": 50,
      "hit": false,
      "t": 117272.73899999983,
      "d": 1363.6364999999932,
      "v": 95
    },
    {
      "midi": 55,
      "hit": false,
      "t": 117272.73899999983,
      "d": 1363.6364999999932,
      "v": 95
    },
    {
      "midi": 62,
      "hit": false,
      "t": 117272.73899999983,
      "d": 1363.6364999999932,
      "v": 111
    },
    {
      "midi": 58,
      "hit": false,
      "t": 117272.73899999983,
      "d": 1363.6364999999932,
      "v": 95
    },
    {
      "midi": 58,
      "hit": false,
      "t": 117272.7389999999,
      "d": 1363.6364999999932,
      "v": 95
    },
    {
      "midi": 63,
      "hit": false,
      "t": 117954.55724999981,
      "d": 1363.6364999999932,
      "v": 127
    },
    {
      "midi": 60,
      "hit": false,
      "t": 117954.5572499999,
      "d": 1363.6364999999932,
      "v": 95
    },
    {
      "midi": 50,
      "hit": false,
      "t": 118636.37549999982,
      "d": 681.8182499999966,
      "v": 95
    },
    {
      "midi": 41,
      "hit": false,
      "t": 118636.37549999982,
      "d": 681.8182499999966,
      "v": 95
    },
    {
      "midi": 62,
      "hit": false,
      "t": 118636.3754999999,
      "d": 1363.6364999999932,
      "v": 95
    },
    {
      "midi": 65,
      "hit": false,
      "t": 119318.1937499998,
      "d": 1363.6364999999932,
      "v": 127
    },
    {
      "midi": 46,
      "hit": false,
      "t": 119318.19374999982,
      "d": 681.8182499999966,
      "v": 95
    },
    {
      "midi": 39,
      "hit": false,
      "t": 119318.19374999982,
      "d": 681.8182499999966,
      "v": 95
    },
    {
      "midi": 60,
      "hit": false,
      "t": 119318.19374999989,
      "d": 681.8182499999966,
      "v": 95
    },
    {
      "midi": 51,
      "hit": false,
      "t": 120000.01199999981,
      "d": 2045.4547500000044,
      "v": 100
    },
    {
      "midi": 58,
      "hit": false,
      "t": 120000.01199999981,
      "d": 2045.4547500000044,
      "v": 111
    },
    {
      "midi": 53,
      "hit": false,
      "t": 120000.01199999981,
      "d": 2045.4547500000044,
      "v": 100
    },
    {
      "midi": 63,
      "hit": false,
      "t": 120000.01199999981,
      "d": 2045.4547500000044,
      "v": 111
    },
    {
      "midi": 62,
      "hit": false,
      "t": 120000.01199999989,
      "d": 4090.9094999999943,
      "v": 95
    },
    {
      "midi": 65,
      "hit": false,
      "t": 120000.01199999989,
      "d": 4090.9094999999943,
      "v": 95
    },
    {
      "midi": 58,
      "hit": false,
      "t": 120681.8302499998,
      "d": 681.8182499999966,
      "v": 127
    },
    {
      "midi": 58,
      "hit": false,
      "t": 121363.64849999979,
      "d": 2045.4547500000044,
      "v": 127
    },
    {
      "midi": 53,
      "hit": false,
      "t": 122045.46674999982,
      "d": 681.8182499999966,
      "v": 100
    },
    {
      "midi": 58,
      "hit": false,
      "t": 122045.46674999982,
      "d": 681.8182499999966,
      "v": 95
    },
    {
      "midi": 60,
      "hit": false,
      "t": 122045.46674999982,
      "d": 681.8182499999966,
      "v": 111
    },
    {
      "midi": 63,
      "hit": false,
      "t": 122045.46674999982,
      "d": 681.8182499999966,
      "v": 111
    },
    {
      "midi": 53,
      "hit": false,
      "t": 122727.28499999981,
      "d": 681.8182499999966,
      "v": 100
    },
    {
      "midi": 58,
      "hit": false,
      "t": 122727.28499999981,
      "d": 681.8182499999966,
      "v": 100
    },
    {
      "midi": 63,
      "hit": false,
      "t": 122727.28499999981,
      "d": 681.8182499999966,
      "v": 111
    },
    {
      "midi": 60,
      "hit": false,
      "t": 122727.28499999981,
      "d": 681.8182499999966,
      "v": 111
    },
    {
      "midi": 62,
      "hit": false,
      "t": 123409.1032499998,
      "d": 681.8182499999966,
      "v": 127
    },
    {
      "midi": 60,
      "hit": false,
      "t": 123409.10324999981,
      "d": 681.8182499999966,
      "v": 111
    },
    {
      "midi": 57,
      "hit": false,
      "t": 123409.10324999981,
      "d": 681.8182499999966,
      "v": 111
    },
    {
      "midi": 53,
      "hit": false,
      "t": 123409.10324999981,
      "d": 681.8182499999966,
      "v": 100
    },
    {
      "midi": 50,
      "hit": false,
      "t": 123409.10324999981,
      "d": 681.8182499999966,
      "v": 100
    },
    {
      "midi": 63,
      "hit": false,
      "t": 124090.9214999998,
      "d": 681.8182499999966,
      "v": 127
    },
    {
      "midi": 58,
      "hit": false,
      "t": 124090.92149999981,
      "d": 2727.273000000001,
      "v": 111
    },
    {
      "midi": 53,
      "hit": false,
      "t": 124090.92149999981,
      "d": 2727.273000000001,
      "v": 100
    },
    {
      "midi": 50,
      "hit": false,
      "t": 124090.92149999981,
      "d": 2727.273000000001,
      "v": 100
    },
    {
      "midi": 58,
      "hit": false,
      "t": 124090.92149999988,
      "d": 4090.9094999999943,
      "v": 95
    },
    {
      "midi": 62,
      "hit": false,
      "t": 124090.92149999988,
      "d": 4090.9094999999943,
      "v": 95
    },
    {
      "midi": 65,
      "hit": false,
      "t": 124772.73974999979,
      "d": 1363.6364999999932,
      "v": 127
    },
    {
      "midi": 58,
      "hit": false,
      "t": 126136.37624999978,
      "d": 681.8182499999966,
      "v": 127
    },
    {
      "midi": 62,
      "hit": false,
      "t": 126136.37624999981,
      "d": 681.8182499999966,
      "v": 95
    },
    {
      "midi": 65,
      "hit": false,
      "t": 126136.37624999981,
      "d": 681.8182499999966,
      "v": 95
    },
    {
      "midi": 58,
      "hit": false,
      "t": 126818.19449999978,
      "d": 2045.4547500000044,
      "v": 127
    },
    {
      "midi": 62,
      "hit": false,
      "t": 126818.19449999981,
      "d": 681.8182499999966,
      "v": 95
    },
    {
      "midi": 43,
      "hit": false,
      "t": 126818.19449999981,
      "d": 2727.2729999999865,
      "v": 95
    },
    {
      "midi": 53,
      "hit": false,
      "t": 128181.8309999998,
      "d": 1363.6364999999932,
      "v": 95
    },
    {
      "midi": 58,
      "hit": false,
      "t": 128181.8309999998,
      "d": 1363.6364999999932,
      "v": 95
    },
    {
      "midi": 62,
      "hit": false,
      "t": 128181.8309999998,
      "d": 1363.6364999999932,
      "v": 95
    },
    {
      "midi": 65,
      "hit": false,
      "t": 128181.8309999998,
      "d": 1363.6364999999932,
      "v": 111
    },
    {
      "midi": 60,
      "hit": false,
      "t": 128181.83099999987,
      "d": 1363.6364999999932,
      "v": 95
    },
    {
      "midi": 62,
      "hit": false,
      "t": 128863.64924999987,
      "d": 1363.6364999999932,
      "v": 95
    },
    {
      "midi": 58,
      "hit": false,
      "t": 129545.46749999978,
      "d": 681.8182499999966,
      "v": 127
    },
    {
      "midi": 50,
      "hit": false,
      "t": 129545.4674999998,
      "d": 681.8182499999966,
      "v": 111
    },
    {
      "midi": 60,
      "hit": false,
      "t": 129545.4674999998,
      "d": 681.8182499999966,
      "v": 111
    },
    {
      "midi": 58,
      "hit": false,
      "t": 129545.4674999998,
      "d": 681.8182499999966,
      "v": 95
    },
    {
      "midi": 58,
      "hit": false,
      "t": 129545.46749999987,
      "d": 1363.6364999999932,
      "v": 95
    },
    {
      "midi": 60,
      "hit": false,
      "t": 130227.28574999978,
      "d": 1363.6364999999932,
      "v": 127
    },
    {
      "midi": 50,
      "hit": false,
      "t": 130227.28574999979,
      "d": 681.8182499999966,
      "v": 95
    },
    {
      "midi": 57,
      "hit": false,
      "t": 130227.28574999979,
      "d": 681.8182499999966,
      "v": 111
    },
    {
      "midi": 53,
      "hit": false,
      "t": 130227.28574999979,
      "d": 681.8182499999966,
      "v": 95
    },
    {
      "midi": 55,
      "hit": false,
      "t": 130227.28574999986,
      "d": 681.8182499999966,
      "v": 95
    },
    {
      "midi": 60,
      "hit": false,
      "t": 130909.10399999979,
      "d": 2045.4547500000044,
      "v": 111
    },
    {
      "midi": 57,
      "hit": false,
      "t": 130909.10399999979,
      "d": 2045.4547500000044,
      "v": 111
    },
    {
      "midi": 53,
      "hit": false,
      "t": 130909.10399999979,
      "d": 2045.4547500000044,
      "v": 100
    },
    {
      "midi": 48,
      "hit": false,
      "t": 130909.10399999979,
      "d": 2045.4547500000044,
      "v": 100
    },
    {
      "midi": 57,
      "hit": false,
      "t": 130909.10399999986,
      "d": 2045.4547499999899,
      "v": 95
    },
    {
      "midi": 60,
      "hit": false,
      "t": 130909.10399999986,
      "d": 2045.4547499999899,
      "v": 95
    },
    {
      "midi": 58,
      "hit": false,
      "t": 131590.92224999977,
      "d": 681.8182500000112,
      "v": 127
    },
    {
      "midi": 60,
      "hit": false,
      "t": 132272.74049999978,
      "d": 1363.6364999999932,
      "v": 127
    },
    {
      "midi": 60,
      "hit": false,
      "t": 132954.5587499998,
      "d": 681.8182500000112,
      "v": 111
    },
    {
      "midi": 58,
      "hit": false,
      "t": 132954.5587499998,
      "d": 681.8182500000112,
      "v": 95
    },
    {
      "midi": 53,
      "hit": false,
      "t": 132954.5587499998,
      "d": 681.8182500000112,
      "v": 95
    },
    {
      "midi": 48,
      "hit": false,
      "t": 132954.5587499998,
      "d": 681.8182500000112,
      "v": 95
    },
    {
      "midi": 62,
      "hit": false,
      "t": 132954.55874999985,
      "d": 2045.4547500000044,
      "v": 95
    },
    {
      "midi": 65,
      "hit": false,
      "t": 132954.55874999985,
      "d": 2045.4547500000044,
      "v": 95
    },
    {
      "midi": 58,
      "hit": false,
      "t": 133636.37699999977,
      "d": 681.8182500000112,
      "v": 127
    },
    {
      "midi": 58,
      "hit": false,
      "t": 133636.3769999998,
      "d": 681.8182500000112,
      "v": 95
    },
    {
      "midi": 57,
      "hit": false,
      "t": 133636.3769999998,
      "d": 681.8182500000112,
      "v": 111
    },
    {
      "midi": 53,
      "hit": false,
      "t": 133636.3769999998,
      "d": 681.8182500000112,
      "v": 95
    },
    {
      "midi": 48,
      "hit": false,
      "t": 133636.3769999998,
      "d": 681.8182500000112,
      "v": 95
    },
    {
      "midi": 60,
      "hit": false,
      "t": 133636.3769999998,
      "d": 681.8182500000112,
      "v": 111
    },
    {
      "midi": 58,
      "hit": false,
      "t": 134318.1952499998,
      "d": 2727.2729999999865,
      "v": 127
    },
    {
      "midi": 43,
      "hit": false,
      "t": 134318.19524999982,
      "d": 681.8182500000112,
      "v": 95
    },
    {
      "midi": 48,
      "hit": false,
      "t": 134318.19524999982,
      "d": 681.8182500000112,
      "v": 95
    },
    {
      "midi": 53,
      "hit": false,
      "t": 134318.19524999982,
      "d": 681.8182500000112,
      "v": 95
    },
    {
      "midi": 58,
      "hit": false,
      "t": 134318.19524999982,
      "d": 681.8182500000112,
      "v": 95
    },
    {
      "midi": 60,
      "hit": false,
      "t": 134318.19524999982,
      "d": 681.8182500000112,
      "v": 111
    },
    {
      "midi": 43,
      "hit": false,
      "t": 135000.01349999983,
      "d": 2727.2730000000156,
      "v": 95
    },
    {
      "midi": 62,
      "hit": false,
      "t": 135000.01349999983,
      "d": 2727.2730000000156,
      "v": 111
    },
    {
      "midi": 58,
      "hit": false,
      "t": 135000.01349999983,
      "d": 2727.2730000000156,
      "v": 111
    },
    {
      "midi": 50,
      "hit": false,
      "t": 135000.01349999983,
      "d": 2727.2730000000156,
      "v": 95
    },
    {
      "midi": 53,
      "hit": false,
      "t": 135000.01349999983,
      "d": 2727.2730000000156,
      "v": 95
    },
    {
      "midi": 58,
      "hit": false,
      "t": 135000.01349999986,
      "d": 2727.2729999999865,
      "v": 95
    },
    {
      "midi": 62,
      "hit": false,
      "t": 135000.01349999986,
      "d": 2727.2729999999865,
      "v": 95
    },
    {
      "midi": 65,
      "hit": false,
      "t": 137045.46824999983,
      "d": 681.8182500000112,
      "v": 95
    },
    {
      "midi": 62,
      "hit": false,
      "t": 137727.28649999984,
      "d": 681.8182500000112,
      "v": 95
    },
    {
      "midi": 43,
      "hit": false,
      "t": 137727.28649999984,
      "d": 2727.2730000000156,
      "v": 95
    },
    {
      "midi": 60,
      "hit": false,
      "t": 139090.92299999984,
      "d": 1363.6365000000224,
      "v": 95
    },
    {
      "midi": 65,
      "hit": false,
      "t": 139090.92299999986,
      "d": 1363.6364999999932,
      "v": 111
    },
    {
      "midi": 50,
      "hit": false,
      "t": 139090.92299999986,
      "d": 1363.6364999999932,
      "v": 95
    },
    {
      "midi": 55,
      "hit": false,
      "t": 139090.92299999986,
      "d": 1363.6364999999932,
      "v": 95
    },
    {
      "midi": 62,
      "hit": false,
      "t": 139090.92299999986,
      "d": 1363.6364999999932,
      "v": 111
    },
    {
      "midi": 58,
      "hit": false,
      "t": 139090.92299999986,
      "d": 1363.6364999999932,
      "v": 95
    },
    {
      "midi": 44,
      "hit": false,
      "t": 139090.923,
      "d": 2727.2729999999865,
      "v": 95
    },
    {
      "midi": 62,
      "hit": false,
      "t": 139772.74124999985,
      "d": 1363.6365000000224,
      "v": 95
    },
    {
      "midi": 50,
      "hit": false,
      "t": 140454.55949999986,
      "d": 681.8182500000112,
      "v": 95
    },
    {
      "midi": 41,
      "hit": false,
      "t": 140454.55949999986,
      "d": 681.8182500000112,
      "v": 95
    },
    {
      "midi": 58,
      "hit": false,
      "t": 140454.55949999986,
      "d": 1363.6365000000224,
      "v": 95
    },
    {
      "midi": 64,
      "hit": false,
      "t": 141136.37774999978,
      "d": 4090.909500000009,
      "v": 127
    },
    {
      "midi": 46,
      "hit": false,
      "t": 141136.37774999987,
      "d": 681.8182500000112,
      "v": 95
    },
    {
      "midi": 39,
      "hit": false,
      "t": 141136.37774999987,
      "d": 681.8182500000112,
      "v": 95
    },
    {
      "midi": 55,
      "hit": false,
      "t": 141136.37774999987,
      "d": 681.8182500000112,
      "v": 95
    },
    {
      "midi": 67,
      "hit": false,
      "t": 141818.19599999988,
      "d": 2045.4547500000044,
      "v": 111
    },
    {
      "midi": 64,
      "hit": false,
      "t": 141818.19599999988,
      "d": 2045.4547500000044,
      "v": 101
    },
    {
      "midi": 60,
      "hit": false,
      "t": 141818.19599999988,
      "d": 2045.4547500000044,
      "v": 101
    },
    {
      "midi": 52,
      "hit": false,
      "t": 141818.19599999988,
      "d": 2045.4547500000044,
      "v": 90
    },
    {
      "midi": 64,
      "hit": false,
      "t": 141818.19599999988,
      "d": 4090.909500000009,
      "v": 95
    },
    {
      "midi": 60,
      "hit": false,
      "t": 141818.19599999988,
      "d": 4090.909500000009,
      "v": 95
    },
    {
      "midi": 36,
      "hit": false,
      "t": 141818.196,
      "d": 2045.4547500000044,
      "v": 95
    },
    {
      "midi": 52,
      "hit": false,
      "t": 141818.19600000003,
      "d": 4090.909500000009,
      "v": 47
    },
    {
      "midi": 60,
      "hit": false,
      "t": 141818.19600000003,
      "d": 4090.909500000009,
      "v": 79
    },
    {
      "midi": 64,
      "hit": false,
      "t": 141818.19600000003,
      "d": 4090.909500000009,
      "v": 100
    },
    {
      "midi": 52,
      "hit": false,
      "t": 143863.65074999988,
      "d": 681.8182500000112,
      "v": 90
    },
    {
      "midi": 60,
      "hit": false,
      "t": 143863.65074999988,
      "d": 681.8182500000112,
      "v": 101
    },
    {
      "midi": 64,
      "hit": false,
      "t": 143863.65074999988,
      "d": 681.8182500000112,
      "v": 101
    },
    {
      "midi": 67,
      "hit": false,
      "t": 143863.65074999988,
      "d": 681.8182500000112,
      "v": 111
    },
    {
      "midi": 36,
      "hit": false,
      "t": 143863.65075,
      "d": 681.8182500000112,
      "v": 95
    },
    {
      "midi": 67,
      "hit": false,
      "t": 144545.4689999999,
      "d": 681.8182500000112,
      "v": 111
    },
    {
      "midi": 64,
      "hit": false,
      "t": 144545.4689999999,
      "d": 681.8182500000112,
      "v": 101
    },
    {
      "midi": 60,
      "hit": false,
      "t": 144545.4689999999,
      "d": 681.8182500000112,
      "v": 101
    },
    {
      "midi": 52,
      "hit": false,
      "t": 144545.4689999999,
      "d": 681.8182500000112,
      "v": 90
    },
    {
      "midi": 36,
      "hit": false,
      "t": 144545.469,
      "d": 681.8182500000112,
      "v": 95
    },
    {
      "midi": 62,
      "hit": false,
      "t": 145227.2872499998,
      "d": 681.8182500000112,
      "v": 127
    },
    {
      "midi": 62,
      "hit": false,
      "t": 145227.2872499999,
      "d": 681.8182500000112,
      "v": 111
    },
    {
      "midi": 59,
      "hit": false,
      "t": 145227.2872499999,
      "d": 681.8182500000112,
      "v": 101
    },
    {
      "midi": 55,
      "hit": false,
      "t": 145227.2872499999,
      "d": 681.8182500000112,
      "v": 101
    },
    {
      "midi": 50,
      "hit": false,
      "t": 145227.2872499999,
      "d": 681.8182500000112,
      "v": 90
    },
    {
      "midi": 62,
      "hit": false,
      "t": 145909.1054999998,
      "d": 2727.2729999999865,
      "v": 127
    },
    {
      "midi": 59,
      "hit": false,
      "t": 145909.1054999999,
      "d": 4090.909500000009,
      "v": 95
    },
    {
      "midi": 62,
      "hit": false,
      "t": 145909.1054999999,
      "d": 4090.909500000009,
      "v": 95
    },
    {
      "midi": 62,
      "hit": false,
      "t": 145909.10549999992,
      "d": 2727.2730000000156,
      "v": 111
    },
    {
      "midi": 59,
      "hit": false,
      "t": 145909.10549999992,
      "d": 2727.2730000000156,
      "v": 101
    },
    {
      "midi": 55,
      "hit": false,
      "t": 145909.10549999992,
      "d": 2727.2730000000156,
      "v": 101
    },
    {
      "midi": 50,
      "hit": false,
      "t": 145909.10549999992,
      "d": 2727.2730000000156,
      "v": 90
    },
    {
      "midi": 31,
      "hit": false,
      "t": 145909.10550000003,
      "d": 4090.909500000009,
      "v": 95
    },
    {
      "midi": 62,
      "hit": false,
      "t": 145909.10550000003,
      "d": 6818.182499999995,
      "v": 100
    },
    {
      "midi": 50,
      "hit": false,
      "t": 145909.10550000003,
      "d": 6818.182499999995,
      "v": 47
    },
    {
      "midi": 59,
      "hit": false,
      "t": 145909.10550000003,
      "d": 6818.182499999995,
      "v": 79
    },
    {
      "midi": 64,
      "hit": false,
      "t": 147954.56024999992,
      "d": 681.8182500000112,
      "v": 95
    },
    {
      "midi": 62,
      "hit": false,
      "t": 148636.37849999993,
      "d": 2045.4547500000044,
      "v": 95
    },
    {
      "midi": 62,
      "hit": false,
      "t": 149318.1967499998,
      "d": 1363.6364999999932,
      "v": 127
    },
    {
      "midi": 64,
      "hit": false,
      "t": 150000.01499999993,
      "d": 2727.2730000000156,
      "v": 95
    },
    {
      "midi": 67,
      "hit": false,
      "t": 150681.8332499998,
      "d": 1363.6364999999932,
      "v": 127
    },
    {
      "midi": 31,
      "hit": false,
      "t": 151363.65150000004,
      "d": 1363.6364999999932,
      "v": 95
    },
    {
      "midi": 66,
      "hit": false,
      "t": 152045.4697499998,
      "d": 1363.6364999999932,
      "v": 127
    },
    {
      "midi": 54,
      "hit": false,
      "t": 152727.28799999988,
      "d": 4090.909500000009,
      "v": 95
    },
    {
      "midi": 50,
      "hit": false,
      "t": 152727.28799999988,
      "d": 4090.909500000009,
      "v": 63
    },
    {
      "midi": 66,
      "hit": false,
      "t": 152727.28799999988,
      "d": 4090.909500000009,
      "v": 79
    },
    {
      "midi": 66,
      "hit": false,
      "t": 152727.28799999994,
      "d": 2045.4547500000044,
      "v": 111
    },
    {
      "midi": 62,
      "hit": false,
      "t": 152727.28799999994,
      "d": 2045.4547500000044,
      "v": 111
    },
    {
      "midi": 59,
      "hit": false,
      "t": 152727.28799999994,
      "d": 2045.4547500000044,
      "v": 95
    },
    {
      "midi": 54,
      "hit": false,
      "t": 152727.28799999994,
      "d": 2045.4547500000044,
      "v": 95
    },
    {
      "midi": 38,
      "hit": false,
      "t": 152727.28800000003,
      "d": 2045.4547500000044,
      "v": 95
    },
    {
      "midi": 50,
      "hit": false,
      "t": 152727.28800000003,
      "d": 4090.909500000009,
      "v": 79
    },
    {
      "midi": 62,
      "hit": false,
      "t": 152727.28800000003,
      "d": 4090.909500000009,
      "v": 95
    },
    {
      "midi": 59,
      "hit": false,
      "t": 152727.28800000003,
      "d": 4090.909500000009,
      "v": 79
    },
    {
      "midi": 66,
      "hit": false,
      "t": 153409.10624999978,
      "d": 681.8182500000112,
      "v": 127
    },
    {
      "midi": 66,
      "hit": false,
      "t": 154090.9244999998,
      "d": 1363.6364999999932,
      "v": 127
    },
    {
      "midi": 64,
      "hit": false,
      "t": 154772.74274999995,
      "d": 2727.2729999999865,
      "v": 111
    },
    {
      "midi": 61,
      "hit": false,
      "t": 154772.74274999995,
      "d": 2727.2729999999865,
      "v": 111
    },
    {
      "midi": 59,
      "hit": false,
      "t": 154772.74274999995,
      "d": 2727.2729999999865,
      "v": 95
    },
    {
      "midi": 52,
      "hit": false,
      "t": 154772.74274999995,
      "d": 2727.2729999999865,
      "v": 90
    },
    {
      "midi": 38,
      "hit": false,
      "t": 154772.74275000003,
      "d": 681.8182500000112,
      "v": 95
    },
    {
      "midi": 66,
      "hit": false,
      "t": 155454.56099999978,
      "d": 681.8182500000112,
      "v": 127
    },
    {
      "midi": 38,
      "hit": false,
      "t": 155454.56100000005,
      "d": 681.8182500000112,
      "v": 95
    },
    {
      "midi": 67,
      "hit": false,
      "t": 156136.3792499998,
      "d": 2727.2729999999865,
      "v": 127
    },
    {
      "midi": 55,
      "hit": false,
      "t": 156818.1974999999,
      "d": 5454.546000000002,
      "v": 95
    },
    {
      "midi": 52,
      "hit": false,
      "t": 156818.1974999999,
      "d": 5454.546000000002,
      "v": 63
    },
    {
      "midi": 67,
      "hit": false,
      "t": 156818.1974999999,
      "d": 5454.546000000002,
      "v": 79
    },
    {
      "midi": 52,
      "hit": false,
      "t": 156818.19750000004,
      "d": 6818.182499999995,
      "v": 79
    },
    {
      "midi": 64,
      "hit": false,
      "t": 156818.19750000004,
      "d": 6818.182499999995,
      "v": 95
    },
    {
      "midi": 60,
      "hit": false,
      "t": 156818.19750000004,
      "d": 6818.182499999995,
      "v": 79
    },
    {
      "midi": 40,
      "hit": false,
      "t": 156818.19750000007,
      "d": 2727.2729999999865,
      "v": 95
    },
    {
      "midi": 66,
      "hit": false,
      "t": 158863.65224999993,
      "d": 681.8182500000112,
      "v": 111
    },
    {
      "midi": 64,
      "hit": false,
      "t": 159545.47049999994,
      "d": 1363.6364999999932,
      "v": 111
    },
    {
      "midi": 35,
      "hit": false,
      "t": 159545.47050000005,
      "d": 1363.6364999999932,
      "v": 95
    },
    {
      "midi": 62,
      "hit": false,
      "t": 160227.28874999977,
      "d": 1363.6364999999932,
      "v": 127
    },
    {
      "midi": 66,
      "hit": false,
      "t": 160909.10699999993,
      "d": 2727.2730000000156,
      "v": 111
    },
    {
      "midi": 38,
      "hit": false,
      "t": 160909.10700000005,
      "d": 1363.6364999999932,
      "v": 95
    },
    {
      "midi": 67,
      "hit": false,
      "t": 161590.92524999977,
      "d": 1363.6364999999932,
      "v": 127
    },
    {
      "midi": 64,
      "hit": false,
      "t": 162272.74349999992,
      "d": 681.8182500000112,
      "v": 111
    },
    {
      "midi": 40,
      "hit": false,
      "t": 162272.74350000004,
      "d": 681.8182500000112,
      "v": 95
    },
    {
      "midi": 66,
      "hit": false,
      "t": 162954.56174999976,
      "d": 1363.6364999999932,
      "v": 127
    },
    {
      "midi": 62,
      "hit": false,
      "t": 162954.56174999994,
      "d": 681.8182500000112,
      "v": 111
    },
    {
      "midi": 38,
      "hit": false,
      "t": 162954.56175000005,
      "d": 681.8182500000112,
      "v": 95
    },
    {
      "midi": 59,
      "hit": false,
      "t": 163636.3799999999,
      "d": 4090.909500000009,
      "v": 82
    },
    {
      "midi": 66,
      "hit": false,
      "t": 163636.3799999999,
      "d": 4090.909500000009,
      "v": 82
    },
    {
      "midi": 62,
      "hit": false,
      "t": 163636.3799999999,
      "d": 4090.909500000009,
      "v": 82
    },
    {
      "midi": 66,
      "hit": false,
      "t": 163636.37999999995,
      "d": 681.8182500000112,
      "v": 111
    },
    {
      "midi": 62,
      "hit": false,
      "t": 163636.37999999995,
      "d": 681.8182500000112,
      "v": 95
    },
    {
      "midi": 59,
      "hit": false,
      "t": 163636.37999999995,
      "d": 681.8182500000112,
      "v": 79
    },
    {
      "midi": 48,
      "hit": false,
      "t": 163636.38000000003,
      "d": 1363.6364999999932,
      "v": 95
    },
    {
      "midi": 60,
      "hit": false,
      "t": 163636.38000000003,
      "d": 1363.6364999999932,
      "v": 95
    },
    {
      "midi": 64,
      "hit": false,
      "t": 163636.38000000003,
      "d": 1363.6364999999932,
      "v": 95
    },
    {
      "midi": 48,
      "hit": false,
      "t": 163636.38000000006,
      "d": 1363.6364999999932,
      "v": 95
    },
    {
      "midi": 66,
      "hit": false,
      "t": 164318.19824999975,
      "d": 681.8182500000112,
      "v": 127
    },
    {
      "midi": 62,
      "hit": false,
      "t": 164318.19824999996,
      "d": 681.8182500000112,
      "v": 95
    },
    {
      "midi": 66,
      "hit": false,
      "t": 164318.19824999996,
      "d": 1363.6365000000224,
      "v": 111
    },
    {
      "midi": 59,
      "hit": false,
      "t": 164318.19824999996,
      "d": 1363.6365000000224,
      "v": 79
    },
    {
      "midi": 66,
      "hit": false,
      "t": 165000.01649999977,
      "d": 1363.6364999999932,
      "v": 127
    },
    {
      "midi": 47,
      "hit": false,
      "t": 165000.01650000003,
      "d": 1363.6364999999932,
      "v": 95
    },
    {
      "midi": 59,
      "hit": false,
      "t": 165000.01650000003,
      "d": 1363.6364999999932,
      "v": 95
    },
    {
      "midi": 62,
      "hit": false,
      "t": 165000.01650000003,
      "d": 1363.6364999999932,
      "v": 95
    },
    {
      "midi": 47,
      "hit": false,
      "t": 165000.01650000006,
      "d": 1363.6364999999932,
      "v": 95
    },
    {
      "midi": 66,
      "hit": false,
      "t": 165681.83474999998,
      "d": 681.8182500000112,
      "v": 111
    },
    {
      "midi": 62,
      "hit": false,
      "t": 165681.83474999998,
      "d": 1363.6365000000224,
      "v": 95
    },
    {
      "midi": 59,
      "hit": false,
      "t": 165681.83474999998,
      "d": 1363.6365000000224,
      "v": 79
    },
    {
      "midi": 66,
      "hit": false,
      "t": 166363.65299999976,
      "d": 681.8182500000112,
      "v": 127
    },
    {
      "midi": 45,
      "hit": false,
      "t": 166363.65300000002,
      "d": 1363.6364999999932,
      "v": 95
    },
    {
      "midi": 57,
      "hit": false,
      "t": 166363.65300000002,
      "d": 1363.6364999999932,
      "v": 95
    },
    {
      "midi": 60,
      "hit": false,
      "t": 166363.65300000002,
      "d": 1363.6364999999932,
      "v": 95
    },
    {
      "midi": 45,
      "hit": false,
      "t": 166363.65300000005,
      "d": 1363.6364999999932,
      "v": 95
    },
    {
      "midi": 67,
      "hit": false,
      "t": 167045.47124999977,
      "d": 2727.2729999999865,
      "v": 127
    },
    {
      "midi": 66,
      "hit": false,
      "t": 167045.47125,
      "d": 681.8182500000112,
      "v": 111
    },
    {
      "midi": 62,
      "hit": false,
      "t": 167045.47125,
      "d": 681.8182500000112,
      "v": 95
    },
    {
      "midi": 59,
      "hit": false,
      "t": 167045.47125,
      "d": 681.8182500000112,
      "v": 79
    },
    {
      "midi": 59,
      "hit": false,
      "t": 167727.2894999999,
      "d": 4090.909500000009,
      "v": 82
    },
    {
      "midi": 55,
      "hit": false,
      "t": 167727.2894999999,
      "d": 4090.909500000009,
      "v": 82
    },
    {
      "midi": 62,
      "hit": false,
      "t": 167727.2894999999,
      "d": 4090.909500000009,
      "v": 82
    },
    {
      "midi": 64,
      "hit": false,
      "t": 167727.2895,
      "d": 2727.2730000000156,
      "v": 95
    },
    {
      "midi": 60,
      "hit": false,
      "t": 167727.2895,
      "d": 2727.2730000000156,
      "v": 79
    },
    {
      "midi": 43,
      "hit": false,
      "t": 167727.2895,
      "d": 6818.182499999995,
      "v": 95
    },
    {
      "midi": 62,
      "hit": false,
      "t": 167727.2895,
      "d": 6818.182499999995,
      "v": 63
    },
    {
      "midi": 59,
      "hit": false,
      "t": 167727.2895,
      "d": 6818.182499999995,
      "v": 95
    },
    {
      "midi": 55,
      "hit": false,
      "t": 167727.2895,
      "d": 6818.182499999995,
      "v": 95
    },
    {
      "midi": 43,
      "hit": false,
      "t": 167727.28950000004,
      "d": 4090.909500000009,
      "v": 95
    },
    {
      "midi": 67,
      "hit": false,
      "t": 169772.74425000002,
      "d": 681.8182500000112,
      "v": 111
    },
    {
      "midi": 64,
      "hit": false,
      "t": 170454.56250000003,
      "d": 1363.6364999999932,
      "v": 111
    },
    {
      "midi": 64,
      "hit": false,
      "t": 171136.38074999975,
      "d": 1363.6364999999932,
      "v": 127
    },
    {
      "midi": 66,
      "hit": false,
      "t": 171818.19900000002,
      "d": 1363.6364999999932,
      "v": 111
    },
    {
      "midi": 62,
      "hit": false,
      "t": 172500.01724999974,
      "d": 9545.455500000011,
      "v": 127
    },
    {
      "midi": 64,
      "hit": false,
      "t": 173181.83550000002,
      "d": 681.8182500000112,
      "v": 111
    },
    {
      "midi": 35,
      "hit": false,
      "t": 173181.83550000004,
      "d": 1363.6364999999932,
      "v": 95
    },
    {
      "midi": 62,
      "hit": false,
      "t": 173863.65375000003,
      "d": 681.8182500000112,
      "v": 111
    },
    {
      "midi": 67,
      "hit": false,
      "t": 174545.4719999999,
      "d": 2727.2729999999865,
      "v": 95
    },
    {
      "midi": 64,
      "hit": false,
      "t": 174545.4719999999,
      "d": 2727.2729999999865,
      "v": 79
    },
    {
      "midi": 67,
      "hit": false,
      "t": 174545.47200000004,
      "d": 2045.4547500000044,
      "v": 102
    },
    {
      "midi": 64,
      "hit": false,
      "t": 174545.47200000004,
      "d": 2045.4547500000044,
      "v": 79
    },
    {
      "midi": 38,
      "hit": false,
      "t": 174545.47200000004,
      "d": 4090.909500000009,
      "v": 95
    },
    {
      "midi": 64,
      "hit": false,
      "t": 176590.92675000004,
      "d": 340.9091250000056,
      "v": 79
    },
    {
      "midi": 67,
      "hit": false,
      "t": 176590.92675000004,
      "d": 681.8182500000112,
      "v": 109
    },
    {
      "midi": 66,
      "hit": false,
      "t": 177272.74499999988,
      "d": 2727.2729999999865,
      "v": 95
    },
    {
      "midi": 62,
      "hit": false,
      "t": 177272.74499999988,
      "d": 2727.2729999999865,
      "v": 79
    },
    {
      "midi": 66,
      "hit": false,
      "t": 177272.74500000005,
      "d": 2045.4547500000044,
      "v": 100
    },
    {
      "midi": 62,
      "hit": false,
      "t": 177272.74500000005,
      "d": 2045.4547500000044,
      "v": 79
    },
    {
      "midi": 38,
      "hit": false,
      "t": 178636.38150000005,
      "d": 1363.6364999999932,
      "v": 95
    },
    {
      "midi": 66,
      "hit": false,
      "t": 179318.19975000006,
      "d": 681.8182500000112,
      "v": 103
    },
    {
      "midi": 62,
      "hit": false,
      "t": 179318.19975000006,
      "d": 681.8182500000112,
      "v": 79
    },
    {
      "midi": 60,
      "hit": false,
      "t": 180000.01799999987,
      "d": 2727.2729999999865,
      "v": 79
    },
    {
      "midi": 64,
      "hit": false,
      "t": 180000.01799999987,
      "d": 2727.2729999999865,
      "v": 95
    },
    {
      "midi": 50,
      "hit": false,
      "t": 180000.01800000004,
      "d": 5454.546000000002,
      "v": 95
    },
    {
      "midi": 64,
      "hit": false,
      "t": 180000.01800000007,
      "d": 2727.2729999999865,
      "v": 109
    },
    {
      "midi": 60,
      "hit": false,
      "t": 180000.01800000007,
      "d": 2727.2729999999865,
      "v": 79
    },
    {
      "midi": 62,
      "hit": false,
      "t": 182727.29099999985,
      "d": 2727.2729999999865,
      "v": 79
    },
    {
      "midi": 66,
      "hit": false,
      "t": 182727.29099999985,
      "d": 2727.2729999999865,
      "v": 95
    },
    {
      "midi": 59,
      "hit": false,
      "t": 185454.564,
      "d": 681.8182500000112,
      "v": 127
    },
    {
      "midi": 55,
      "hit": false,
      "t": 185454.564,
      "d": 681.8182500000112,
      "v": 127
    },
    {
      "midi": 64,
      "hit": false,
      "t": 185454.56400000004,
      "d": 10909.092000000004,
      "v": 127
    },
    {
      "midi": 59,
      "hit": false,
      "t": 185454.56400000004,
      "d": 10909.092000000004,
      "v": 127
    },
    {
      "midi": 35,
      "hit": false,
      "t": 185454.56400000004,
      "d": 8181.818999999989,
      "v": 95
    },
    {
      "midi": 71,
      "hit": false,
      "t": 188181.83700000003,
      "d": 8181.818999999989,
      "v": 95
    },
    {
      "midi": 64,
      "hit": false,
      "t": 188181.83700000003,
      "d": 8181.818999999989,
      "v": 95
    },
    {
      "midi": 47,
      "hit": false,
      "t": 193636.38300000003,
      "d": 2727.2729999999865,
      "v": 95
    },
    {
      "midi": 64,
      "hit": false,
      "t": 195681.83774999974,
      "d": 1363.6364999999932,
      "v": 127
    },
    {
      "midi": 64,
      "hit": false,
      "t": 196363.65599999984,
      "d": 4090.909500000009,
      "v": 95
    },
    {
      "midi": 67,
      "hit": false,
      "t": 196363.65599999984,
      "d": 4090.909500000009,
      "v": 95
    },
    {
      "midi": 40,
      "hit": false,
      "t": 196363.65600000002,
      "d": 5454.546000000002,
      "v": 95
    },
    {
      "midi": 52,
      "hit": false,
      "t": 196363.65600000002,
      "d": 8181.818999999989,
      "v": 95
    },
    {
      "midi": 64,
      "hit": false,
      "t": 196363.65600000005,
      "d": 2045.4547500000044,
      "v": 111
    },
    {
      "midi": 59,
      "hit": false,
      "t": 196363.65600000005,
      "d": 2045.4547500000044,
      "v": 95
    },
    {
      "midi": 55,
      "hit": false,
      "t": 196363.65600000005,
      "d": 2045.4547500000044,
      "v": 95
    },
    {
      "midi": 52,
      "hit": false,
      "t": 196363.65600000005,
      "d": 2045.4547500000044,
      "v": 95
    },
    {
      "midi": 66,
      "hit": false,
      "t": 197045.47424999974,
      "d": 681.8182500000112,
      "v": 127
    },
    {
      "midi": 67,
      "hit": false,
      "t": 197727.29249999975,
      "d": 1363.6364999999932,
      "v": 127
    },
    {
      "midi": 64,
      "hit": false,
      "t": 198409.11075000005,
      "d": 681.8182500000112,
      "v": 111
    },
    {
      "midi": 59,
      "hit": false,
      "t": 198409.11075000005,
      "d": 681.8182500000112,
      "v": 95
    },
    {
      "midi": 55,
      "hit": false,
      "t": 198409.11075000005,
      "d": 681.8182500000112,
      "v": 79
    },
    {
      "midi": 52,
      "hit": false,
      "t": 198409.11075000005,
      "d": 681.8182500000112,
      "v": 63
    },
    {
      "midi": 69,
      "hit": false,
      "t": 199090.92899999974,
      "d": 681.8182500000112,
      "v": 127
    },
    {
      "midi": 64,
      "hit": false,
      "t": 199090.92900000006,
      "d": 681.8182500000112,
      "v": 111
    },
    {
      "midi": 59,
      "hit": false,
      "t": 199090.92900000006,
      "d": 681.8182500000112,
      "v": 95
    },
    {
      "midi": 55,
      "hit": false,
      "t": 199090.92900000006,
      "d": 681.8182500000112,
      "v": 79
    },
    {
      "midi": 52,
      "hit": false,
      "t": 199090.92900000006,
      "d": 681.8182500000112,
      "v": 63
    },
    {
      "midi": 71,
      "hit": false,
      "t": 199772.74724999975,
      "d": 4090.909500000009,
      "v": 127
    },
    {
      "midi": 64,
      "hit": false,
      "t": 199772.74725000007,
      "d": 681.8182500000112,
      "v": 111
    },
    {
      "midi": 59,
      "hit": false,
      "t": 199772.74725000007,
      "d": 681.8182500000112,
      "v": 111
    },
    {
      "midi": 55,
      "hit": false,
      "t": 199772.74725000007,
      "d": 681.8182500000112,
      "v": 79
    },
    {
      "midi": 52,
      "hit": false,
      "t": 199772.74725000007,
      "d": 681.8182500000112,
      "v": 63
    },
    {
      "midi": 60,
      "hit": false,
      "t": 200454.56549999985,
      "d": 4090.909500000009,
      "v": 95
    },
    {
      "midi": 64,
      "hit": false,
      "t": 200454.56549999985,
      "d": 4090.909500000009,
      "v": 95
    },
    {
      "midi": 67,
      "hit": false,
      "t": 200454.56549999985,
      "d": 4090.909500000009,
      "v": 95
    },
    {
      "midi": 59,
      "hit": false,
      "t": 200454.56550000008,
      "d": 2045.4547500000044,
      "v": 111
    },
    {
      "midi": 55,
      "hit": false,
      "t": 200454.56550000008,
      "d": 2045.4547500000044,
      "v": 63
    },
    {
      "midi": 62,
      "hit": false,
      "t": 200454.56550000008,
      "d": 2045.4547500000044,
      "v": 79
    },
    {
      "midi": 52,
      "hit": false,
      "t": 200454.56550000008,
      "d": 2045.4547500000044,
      "v": 63
    },
    {
      "midi": 36,
      "hit": false,
      "t": 201818.20200000002,
      "d": 4090.909500000009,
      "v": 95
    },
    {
      "midi": 59,
      "hit": false,
      "t": 201818.20200000002,
      "d": 1363.6364999999932,
      "v": 95
    },
    {
      "midi": 62,
      "hit": false,
      "t": 202500.0202500001,
      "d": 681.8182500000112,
      "v": 111
    },
    {
      "midi": 57,
      "hit": false,
      "t": 203181.8385,
      "d": 1363.6364999999932,
      "v": 95
    },
    {
      "midi": 62,
      "hit": false,
      "t": 203181.8385000001,
      "d": 681.8182500000112,
      "v": 111
    },
    {
      "midi": 55,
      "hit": false,
      "t": 204545.475,
      "d": 1363.6364999999932,
      "v": 95
    },
    {
      "midi": 52,
      "hit": false,
      "t": 204545.47500000012,
      "d": 1363.6364999999932,
      "v": 79
    },
    {
      "midi": 55,
      "hit": false,
      "t": 204545.47500000012,
      "d": 1363.6364999999932,
      "v": 79
    },
    {
      "midi": 59,
      "hit": false,
      "t": 204545.47500000012,
      "d": 1363.6364999999932,
      "v": 111
    },
    {
      "midi": 62,
      "hit": false,
      "t": 204545.47500000012,
      "d": 1363.6364999999932,
      "v": 95
    },
    {
      "midi": 64,
      "hit": false,
      "t": 205227.29324999976,
      "d": 1363.6364999999932,
      "v": 127
    },
    {
      "midi": 52,
      "hit": false,
      "t": 205909.1115,
      "d": 1363.6364999999932,
      "v": 95
    },
    {
      "midi": 35,
      "hit": false,
      "t": 205909.11150000003,
      "d": 681.8182500000112,
      "v": 95
    },
    {
      "midi": 62,
      "hit": false,
      "t": 205909.11150000012,
      "d": 681.8182500000112,
      "v": 95
    },
    {
      "midi": 62,
      "hit": false,
      "t": 206590.92974999975,
      "d": 2727.2729999999865,
      "v": 127
    },
    {
      "midi": 37,
      "hit": false,
      "t": 206590.92975000004,
      "d": 681.8182500000112,
      "v": 95
    },
    {
      "midi": 62,
      "hit": false,
      "t": 206590.92975000013,
      "d": 681.8182500000112,
      "v": 95
    },
    {
      "midi": 62,
      "hit": false,
      "t": 207272.74799999985,
      "d": 4090.909500000009,
      "v": 95
    },
    {
      "midi": 50,
      "hit": false,
      "t": 207272.748,
      "d": 10909.092000000004,
      "v": 79
    },
    {
      "midi": 38,
      "hit": false,
      "t": 207272.74800000005,
      "d": 2045.4547500000044,
      "v": 95
    },
    {
      "midi": 64,
      "hit": false,
      "t": 207272.74800000014,
      "d": 2727.2729999999865,
      "v": 120
    },
    {
      "midi": 55,
      "hit": false,
      "t": 207272.74800000014,
      "d": 2727.2729999999865,
      "v": 79
    },
    {
      "midi": 59,
      "hit": false,
      "t": 207272.74800000014,
      "d": 2727.2729999999865,
      "v": 95
    },
    {
      "midi": 52,
      "hit": false,
      "t": 207272.74800000014,
      "d": 2727.2729999999865,
      "v": 63
    },
    {
      "midi": 72,
      "hit": false,
      "t": 209318.20274999973,
      "d": 2727.2729999999865,
      "v": 127
    },
    {
      "midi": 38,
      "hit": false,
      "t": 209318.20275000005,
      "d": 681.8182500000112,
      "v": 95
    },
    {
      "midi": 38,
      "hit": false,
      "t": 210000.02100000007,
      "d": 681.8182500000112,
      "v": 95
    },
    {
      "midi": 64,
      "hit": false,
      "t": 210000.02100000012,
      "d": 2727.2729999999865,
      "v": 115
    },
    {
      "midi": 55,
      "hit": false,
      "t": 210000.02100000012,
      "d": 2727.2729999999865,
      "v": 79
    },
    {
      "midi": 59,
      "hit": false,
      "t": 210000.02100000012,
      "d": 2727.2729999999865,
      "v": 95
    },
    {
      "midi": 52,
      "hit": false,
      "t": 210000.02100000012,
      "d": 2727.2729999999865,
      "v": 63
    },
    {
      "midi": 35,
      "hit": false,
      "t": 211363.6575000001,
      "d": 681.8182500000112,
      "v": 95
    },
    {
      "midi": 72,
      "hit": false,
      "t": 212045.47574999972,
      "d": 2045.4547500000044,
      "v": 127
    },
    {
      "midi": 33,
      "hit": false,
      "t": 212045.4757500001,
      "d": 681.8182500000112,
      "v": 95
    },
    {
      "midi": 55,
      "hit": false,
      "t": 212727.29399999985,
      "d": 2727.2729999999865,
      "v": 95
    },
    {
      "midi": 55,
      "hit": false,
      "t": 212727.2940000001,
      "d": 681.8182500000112,
      "v": 127
    },
    {
      "midi": 31,
      "hit": false,
      "t": 212727.2940000001,
      "d": 2727.2730000000156,
      "v": 127
    },
    {
      "midi": 43,
      "hit": false,
      "t": 212727.2940000001,
      "d": 2727.2730000000156,
      "v": 127
    },
    {
      "midi": 31,
      "hit": false,
      "t": 212727.2940000001,
      "d": 2727.2729999999865,
      "v": 95
    },
    {
      "midi": 71,
      "hit": false,
      "t": 214090.93049999973,
      "d": 681.8182500000112,
      "v": 127
    },
    {
      "midi": 71,
      "hit": false,
      "t": 214772.74874999974,
      "d": 2045.4547500000044,
      "v": 127
    },
    {
      "midi": 54,
      "hit": false,
      "t": 215454.56699999984,
      "d": 2727.2729999999865,
      "v": 95
    },
    {
      "midi": 30,
      "hit": false,
      "t": 215454.5670000001,
      "d": 2727.2729999999865,
      "v": 95
    },
    {
      "midi": 54,
      "hit": false,
      "t": 215454.56700000013,
      "d": 681.8182500000112,
      "v": 127
    },
    {
      "midi": 30,
      "hit": false,
      "t": 215454.56700000013,
      "d": 2727.2730000000156,
      "v": 127
    },
    {
      "midi": 42,
      "hit": false,
      "t": 215454.56700000013,
      "d": 2727.2730000000156,
      "v": 127
    },
    {
      "midi": 64,
      "hit": false,
      "t": 217500.02174999975,
      "d": 1363.6364999999932,
      "v": 127
    },
    {
      "midi": 67,
      "hit": false,
      "t": 218181.83999999982,
      "d": 4090.909500000009,
      "v": 95
    },
    {
      "midi": 64,
      "hit": false,
      "t": 218181.83999999982,
      "d": 4090.909500000009,
      "v": 95
    },
    {
      "midi": 52,
      "hit": false,
      "t": 218181.84,
      "d": 8181.818999999989,
      "v": 95
    },
    {
      "midi": 28,
      "hit": false,
      "t": 218181.84000000008,
      "d": 1363.6364999999932,
      "v": 95
    },
    {
      "midi": 52,
      "hit": false,
      "t": 218181.84000000014,
      "d": 2045.4547500000044,
      "v": 95
    },
    {
      "midi": 55,
      "hit": false,
      "t": 218181.84000000014,
      "d": 2045.4547500000044,
      "v": 95
    },
    {
      "midi": 59,
      "hit": false,
      "t": 218181.84000000014,
      "d": 2045.4547500000044,
      "v": 95
    },
    {
      "midi": 64,
      "hit": false,
      "t": 218181.84000000014,
      "d": 2045.4547500000044,
      "v": 111
    },
    {
      "midi": 66,
      "hit": false,
      "t": 218863.65824999975,
      "d": 681.8182500000112,
      "v": 127
    },
    {
      "midi": 67,
      "hit": false,
      "t": 219545.47649999976,
      "d": 1363.6364999999932,
      "v": 127
    },
    {
      "midi": 31,
      "hit": false,
      "t": 219545.47650000008,
      "d": 681.8182500000112,
      "v": 95
    },
    {
      "midi": 40,
      "hit": false,
      "t": 220227.2947500001,
      "d": 681.8182500000112,
      "v": 95
    },
    {
      "midi": 52,
      "hit": false,
      "t": 220227.29475000015,
      "d": 681.8182500000112,
      "v": 63
    },
    {
      "midi": 55,
      "hit": false,
      "t": 220227.29475000015,
      "d": 681.8182500000112,
      "v": 79
    },
    {
      "midi": 59,
      "hit": false,
      "t": 220227.29475000015,
      "d": 681.8182500000112,
      "v": 95
    },
    {
      "midi": 64,
      "hit": false,
      "t": 220227.29475000015,
      "d": 681.8182500000112,
      "v": 111
    },
    {
      "midi": 69,
      "hit": false,
      "t": 220909.11299999975,
      "d": 681.8182500000112,
      "v": 127
    },
    {
      "midi": 52,
      "hit": false,
      "t": 220909.11300000016,
      "d": 681.8182500000112,
      "v": 63
    },
    {
      "midi": 55,
      "hit": false,
      "t": 220909.11300000016,
      "d": 681.8182500000112,
      "v": 79
    },
    {
      "midi": 59,
      "hit": false,
      "t": 220909.11300000016,
      "d": 681.8182500000112,
      "v": 95
    },
    {
      "midi": 64,
      "hit": false,
      "t": 220909.11300000016,
      "d": 681.8182500000112,
      "v": 111
    },
    {
      "midi": 71,
      "hit": false,
      "t": 221590.93124999976,
      "d": 2727.2729999999865,
      "v": 127
    },
    {
      "midi": 38,
      "hit": false,
      "t": 221590.9312500001,
      "d": 681.8182500000112,
      "v": 95
    },
    {
      "midi": 52,
      "hit": false,
      "t": 221590.93125000017,
      "d": 681.8182500000112,
      "v": 63
    },
    {
      "midi": 55,
      "hit": false,
      "t": 221590.93125000017,
      "d": 681.8182500000112,
      "v": 79
    },
    {
      "midi": 59,
      "hit": false,
      "t": 221590.93125000017,
      "d": 681.8182500000112,
      "v": 111
    },
    {
      "midi": 64,
      "hit": false,
      "t": 221590.93125000017,
      "d": 681.8182500000112,
      "v": 111
    },
    {
      "midi": 67,
      "hit": false,
      "t": 222272.74949999983,
      "d": 4090.909500000009,
      "v": 95
    },
    {
      "midi": 64,
      "hit": false,
      "t": 222272.74949999983,
      "d": 4090.909500000009,
      "v": 95
    },
    {
      "midi": 60,
      "hit": false,
      "t": 222272.74949999983,
      "d": 4090.909500000009,
      "v": 95
    },
    {
      "midi": 36,
      "hit": false,
      "t": 222272.74950000012,
      "d": 6818.182499999995,
      "v": 95
    },
    {
      "midi": 52,
      "hit": false,
      "t": 222272.74950000018,
      "d": 2045.4547500000044,
      "v": 63
    },
    {
      "midi": 62,
      "hit": false,
      "t": 222272.74950000018,
      "d": 2045.4547500000044,
      "v": 79
    },
    {
      "midi": 55,
      "hit": false,
      "t": 222272.74950000018,
      "d": 2045.4547500000044,
      "v": 63
    },
    {
      "midi": 59,
      "hit": false,
      "t": 222272.74950000018,
      "d": 2045.4547500000044,
      "v": 111
    },
    {
      "midi": 59,
      "hit": false,
      "t": 223636.386,
      "d": 1363.6364999999932,
      "v": 95
    },
    {
      "midi": 69,
      "hit": false,
      "t": 224318.20424999975,
      "d": 2727.2729999999865,
      "v": 127
    },
    {
      "midi": 62,
      "hit": false,
      "t": 224318.20425000018,
      "d": 681.8182500000112,
      "v": 111
    },
    {
      "midi": 57,
      "hit": false,
      "t": 225000.0225,
      "d": 1363.6364999999932,
      "v": 95
    },
    {
      "midi": 62,
      "hit": false,
      "t": 225000.0225000002,
      "d": 681.8182500000112,
      "v": 111
    },
    {
      "midi": 55,
      "hit": false,
      "t": 226363.65899999999,
      "d": 1363.6364999999932,
      "v": 95
    },
    {
      "midi": 62,
      "hit": false,
      "t": 226363.65900000022,
      "d": 1363.6364999999932,
      "v": 95
    },
    {
      "midi": 59,
      "hit": false,
      "t": 226363.65900000022,
      "d": 1363.6364999999932,
      "v": 111
    },
    {
      "midi": 55,
      "hit": false,
      "t": 226363.65900000022,
      "d": 1363.6364999999932,
      "v": 79
    },
    {
      "midi": 52,
      "hit": false,
      "t": 226363.65900000022,
      "d": 1363.6364999999932,
      "v": 79
    },
    {
      "midi": 52,
      "hit": false,
      "t": 227727.29549999998,
      "d": 1363.6364999999932,
      "v": 95
    },
    {
      "midi": 62,
      "hit": false,
      "t": 227727.2955000002,
      "d": 681.8182500000112,
      "v": 89
    },
    {
      "midi": 66,
      "hit": false,
      "t": 228409.11374999973,
      "d": 2727.2729999999865,
      "v": 127
    },
    {
      "midi": 62,
      "hit": false,
      "t": 228409.11375000022,
      "d": 681.8182500000112,
      "v": 89
    },
    {
      "midi": 66,
      "hit": false,
      "t": 229090.93199999983,
      "d": 4090.909500000009,
      "v": 95
    },
    {
      "midi": 63,
      "hit": false,
      "t": 229090.93199999983,
      "d": 4090.909500000009,
      "v": 95
    },
    {
      "midi": 59,
      "hit": false,
      "t": 229090.93199999983,
      "d": 4090.909500000009,
      "v": 95
    },
    {
      "midi": 57,
      "hit": false,
      "t": 229090.93199999997,
      "d": 2727.2729999999865,
      "v": 79
    },
    {
      "midi": 39,
      "hit": false,
      "t": 229090.93200000012,
      "d": 1363.6364999999932,
      "v": 95
    },
    {
      "midi": 66,
      "hit": false,
      "t": 229090.93200000023,
      "d": 2727.2729999999865,
      "v": 111
    },
    {
      "midi": 60,
      "hit": false,
      "t": 229090.93200000023,
      "d": 2727.2729999999865,
      "v": 95
    },
    {
      "midi": 57,
      "hit": false,
      "t": 229090.93200000023,
      "d": 2727.2729999999865,
      "v": 79
    },
    {
      "midi": 35,
      "hit": false,
      "t": 230454.5685000001,
      "d": 1363.6364999999932,
      "v": 95
    },
    {
      "midi": 69,
      "hit": false,
      "t": 231136.3867499997,
      "d": 2727.2729999999865,
      "v": 127
    },
    {
      "midi": 51,
      "hit": false,
      "t": 231818.20499999996,
      "d": 2727.2729999999865,
      "v": 79
    },
    {
      "midi": 39,
      "hit": false,
      "t": 231818.2050000001,
      "d": 1363.6364999999932,
      "v": 95
    },
    {
      "midi": 63,
      "hit": false,
      "t": 231818.20500000022,
      "d": 2727.2729999999865,
      "v": 111
    },
    {
      "midi": 54,
      "hit": false,
      "t": 231818.20500000022,
      "d": 2727.2729999999865,
      "v": 79
    },
    {
      "midi": 59,
      "hit": false,
      "t": 231818.20500000022,
      "d": 2727.2729999999865,
      "v": 95
    },
    {
      "midi": 42,
      "hit": false,
      "t": 233181.8415000001,
      "d": 1363.6364999999932,
      "v": 95
    },
    {
      "midi": 69,
      "hit": false,
      "t": 233863.6597499997,
      "d": 1363.6364999999932,
      "v": 127
    },
    {
      "midi": 64,
      "hit": false,
      "t": 234545.47799999983,
      "d": 4090.909500000009,
      "v": 95
    },
    {
      "midi": 59,
      "hit": false,
      "t": 234545.47799999983,
      "d": 4090.909500000009,
      "v": 95
    },
    {
      "midi": 52,
      "hit": false,
      "t": 234545.47799999994,
      "d": 5454.546000000002,
      "v": 79
    },
    {
      "midi": 40,
      "hit": false,
      "t": 234545.4780000001,
      "d": 1363.6364999999932,
      "v": 95
    },
    {
      "midi": 64,
      "hit": false,
      "t": 234545.4780000002,
      "d": 2727.2729999999865,
      "v": 111
    },
    {
      "midi": 59,
      "hit": false,
      "t": 234545.4780000002,
      "d": 2727.2729999999865,
      "v": 95
    },
    {
      "midi": 55,
      "hit": false,
      "t": 234545.4780000002,
      "d": 2727.2729999999865,
      "v": 79
    },
    {
      "midi": 67,
      "hit": false,
      "t": 235227.2962499997,
      "d": 681.8182500000112,
      "v": 127
    },
    {
      "midi": 67,
      "hit": false,
      "t": 235909.1144999997,
      "d": 2045.4547500000044,
      "v": 127
    },
    {
      "midi": 38,
      "hit": false,
      "t": 235909.11450000008,
      "d": 1363.6364999999932,
      "v": 95
    },
    {
      "midi": 67,
      "hit": false,
      "t": 237272.75099999981,
      "d": 681.8182500000112,
      "v": 79
    },
    {
      "midi": 35,
      "hit": false,
      "t": 237272.75100000008,
      "d": 1363.6364999999932,
      "v": 95
    },
    {
      "midi": 64,
      "hit": false,
      "t": 237272.7510000002,
      "d": 681.8182500000112,
      "v": 111
    },
    {
      "midi": 60,
      "hit": false,
      "t": 237272.7510000002,
      "d": 681.8182500000112,
      "v": 111
    },
    {
      "midi": 66,
      "hit": false,
      "t": 237954.56924999983,
      "d": 681.8182500000112,
      "v": 79
    },
    {
      "midi": 64,
      "hit": false,
      "t": 237954.5692500002,
      "d": 681.8182500000112,
      "v": 111
    },
    {
      "midi": 60,
      "hit": false,
      "t": 237954.5692500002,
      "d": 681.8182500000112,
      "v": 111
    },
    {
      "midi": 64,
      "hit": false,
      "t": 238636.38749999984,
      "d": 681.8182500000112,
      "v": 79
    },
    {
      "midi": 33,
      "hit": false,
      "t": 238636.38750000007,
      "d": 1363.6364999999932,
      "v": 95
    },
    {
      "midi": 62,
      "hit": false,
      "t": 238636.38750000022,
      "d": 1363.6364999999932,
      "v": 111
    },
    {
      "midi": 59,
      "hit": false,
      "t": 238636.38750000022,
      "d": 1363.6364999999932,
      "v": 111
    },
    {
      "midi": 64,
      "hit": false,
      "t": 239318.2057499997,
      "d": 1363.6364999999932,
      "v": 127
    },
    {
      "midi": 62,
      "hit": false,
      "t": 239318.20574999985,
      "d": 681.8182500000112,
      "v": 63
    },
    {
      "midi": 67,
      "hit": false,
      "t": 240000.02399999986,
      "d": 4090.909500000009,
      "v": 95
    },
    {
      "midi": 64,
      "hit": false,
      "t": 240000.02399999986,
      "d": 4090.909500000009,
      "v": 95
    },
    {
      "midi": 52,
      "hit": false,
      "t": 240000.02399999995,
      "d": 8181.818999999989,
      "v": 95
    },
    {
      "midi": 40,
      "hit": false,
      "t": 240000.02400000006,
      "d": 5454.546000000002,
      "v": 95
    },
    {
      "midi": 52,
      "hit": false,
      "t": 240000.0240000002,
      "d": 2045.4547500000044,
      "v": 95
    },
    {
      "midi": 55,
      "hit": false,
      "t": 240000.0240000002,
      "d": 2045.4547500000044,
      "v": 95
    },
    {
      "midi": 59,
      "hit": false,
      "t": 240000.0240000002,
      "d": 2045.4547500000044,
      "v": 95
    },
    {
      "midi": 64,
      "hit": false,
      "t": 240000.0240000002,
      "d": 2045.4547500000044,
      "v": 111
    },
    {
      "midi": 66,
      "hit": false,
      "t": 240681.8422499997,
      "d": 681.8182500000112,
      "v": 127
    },
    {
      "midi": 67,
      "hit": false,
      "t": 241363.6604999997,
      "d": 1363.6364999999932,
      "v": 127
    },
    {
      "midi": 52,
      "hit": false,
      "t": 242045.4787500002,
      "d": 681.8182500000112,
      "v": 63
    },
    {
      "midi": 55,
      "hit": false,
      "t": 242045.4787500002,
      "d": 681.8182500000112,
      "v": 79
    },
    {
      "midi": 59,
      "hit": false,
      "t": 242045.4787500002,
      "d": 681.8182500000112,
      "v": 95
    },
    {
      "midi": 64,
      "hit": false,
      "t": 242045.4787500002,
      "d": 681.8182500000112,
      "v": 111
    },
    {
      "midi": 69,
      "hit": false,
      "t": 242727.2969999997,
      "d": 681.8182500000112,
      "v": 127
    },
    {
      "midi": 52,
      "hit": false,
      "t": 242727.29700000022,
      "d": 681.8182500000112,
      "v": 63
    },
    {
      "midi": 55,
      "hit": false,
      "t": 242727.29700000022,
      "d": 681.8182500000112,
      "v": 79
    },
    {
      "midi": 59,
      "hit": false,
      "t": 242727.29700000022,
      "d": 681.8182500000112,
      "v": 95
    },
    {
      "midi": 64,
      "hit": false,
      "t": 242727.29700000022,
      "d": 681.8182500000112,
      "v": 111
    },
    {
      "midi": 71,
      "hit": false,
      "t": 243409.1152499997,
      "d": 4090.909500000009,
      "v": 127
    },
    {
      "midi": 52,
      "hit": false,
      "t": 243409.11525000024,
      "d": 681.8182500000112,
      "v": 63
    },
    {
      "midi": 55,
      "hit": false,
      "t": 243409.11525000024,
      "d": 681.8182500000112,
      "v": 79
    },
    {
      "midi": 59,
      "hit": false,
      "t": 243409.11525000024,
      "d": 681.8182500000112,
      "v": 111
    },
    {
      "midi": 64,
      "hit": false,
      "t": 243409.11525000024,
      "d": 681.8182500000112,
      "v": 111
    },
    {
      "midi": 67,
      "hit": false,
      "t": 244090.93349999987,
      "d": 4090.909500000009,
      "v": 95
    },
    {
      "midi": 64,
      "hit": false,
      "t": 244090.93349999987,
      "d": 4090.909500000009,
      "v": 95
    },
    {
      "midi": 60,
      "hit": false,
      "t": 244090.93349999987,
      "d": 4090.909500000009,
      "v": 95
    },
    {
      "midi": 52,
      "hit": false,
      "t": 244090.93350000025,
      "d": 2045.4547500000044,
      "v": 63
    },
    {
      "midi": 62,
      "hit": false,
      "t": 244090.93350000025,
      "d": 2045.4547500000044,
      "v": 79
    },
    {
      "midi": 55,
      "hit": false,
      "t": 244090.93350000025,
      "d": 2045.4547500000044,
      "v": 63
    },
    {
      "midi": 59,
      "hit": false,
      "t": 244090.93350000025,
      "d": 2045.4547500000044,
      "v": 111
    },
    {
      "midi": 59,
      "hit": false,
      "t": 245454.56999999995,
      "d": 1363.6364999999932,
      "v": 95
    },
    {
      "midi": 36,
      "hit": false,
      "t": 245454.57000000007,
      "d": 4090.909500000009,
      "v": 95
    },
    {
      "midi": 62,
      "hit": false,
      "t": 246136.38825000025,
      "d": 681.8182500000112,
      "v": 111
    },
    {
      "midi": 57,
      "hit": false,
      "t": 246818.20649999994,
      "d": 1363.6364999999932,
      "v": 95
    },
    {
      "midi": 62,
      "hit": false,
      "t": 246818.20650000026,
      "d": 681.8182500000112,
      "v": 111
    },
    {
      "midi": 55,
      "hit": false,
      "t": 248181.84299999994,
      "d": 1363.6364999999932,
      "v": 95
    },
    {
      "midi": 62,
      "hit": false,
      "t": 248181.84300000028,
      "d": 1363.6364999999932,
      "v": 95
    },
    {
      "midi": 59,
      "hit": false,
      "t": 248181.84300000028,
      "d": 1363.6364999999932,
      "v": 111
    },
    {
      "midi": 55,
      "hit": false,
      "t": 248181.84300000028,
      "d": 1363.6364999999932,
      "v": 79
    },
    {
      "midi": 52,
      "hit": false,
      "t": 248181.84300000028,
      "d": 1363.6364999999932,
      "v": 79
    },
    {
      "midi": 64,
      "hit": false,
      "t": 248863.6612499997,
      "d": 1363.6364999999932,
      "v": 127
    },
    {
      "midi": 52,
      "hit": false,
      "t": 249545.47949999993,
      "d": 1363.6364999999932,
      "v": 95
    },
    {
      "midi": 35,
      "hit": false,
      "t": 249545.47950000007,
      "d": 681.8182500000112,
      "v": 95
    },
    {
      "midi": 62,
      "hit": false,
      "t": 249545.47950000028,
      "d": 681.8182500000112,
      "v": 95
    },
    {
      "midi": 62,
      "hit": false,
      "t": 250227.2977499997,
      "d": 2727.2729999999865,
      "v": 127
    },
    {
      "midi": 37,
      "hit": false,
      "t": 250227.29775000009,
      "d": 681.8182500000112,
      "v": 95
    },
    {
      "midi": 62,
      "hit": false,
      "t": 250227.2977500003,
      "d": 681.8182500000112,
      "v": 95
    },
    {
      "midi": 62,
      "hit": false,
      "t": 250909.11599999986,
      "d": 4090.909500000009,
      "v": 95
    },
    {
      "midi": 50,
      "hit": false,
      "t": 250909.11599999992,
      "d": 10909.092000000004,
      "v": 79
    },
    {
      "midi": 38,
      "hit": false,
      "t": 250909.1160000001,
      "d": 2045.4547500000044,
      "v": 95
    },
    {
      "midi": 52,
      "hit": false,
      "t": 250909.1160000003,
      "d": 2727.2729999999865,
      "v": 63
    },
    {
      "midi": 59,
      "hit": false,
      "t": 250909.1160000003,
      "d": 2727.2729999999865,
      "v": 95
    },
    {
      "midi": 55,
      "hit": false,
      "t": 250909.1160000003,
      "d": 2727.2729999999865,
      "v": 79
    },
    {
      "midi": 64,
      "hit": false,
      "t": 250909.1160000003,
      "d": 2727.2729999999865,
      "v": 120
    },
    {
      "midi": 72,
      "hit": false,
      "t": 252954.5707499997,
      "d": 2727.2729999999865,
      "v": 127
    },
    {
      "midi": 38,
      "hit": false,
      "t": 252954.5707500001,
      "d": 681.8182500000112,
      "v": 95
    },
    {
      "midi": 38,
      "hit": false,
      "t": 253636.3890000001,
      "d": 681.8182500000112,
      "v": 95
    },
    {
      "midi": 52,
      "hit": false,
      "t": 253636.3890000003,
      "d": 2727.2729999999865,
      "v": 63
    },
    {
      "midi": 59,
      "hit": false,
      "t": 253636.3890000003,
      "d": 2727.2729999999865,
      "v": 95
    },
    {
      "midi": 55,
      "hit": false,
      "t": 253636.3890000003,
      "d": 2727.2729999999865,
      "v": 79
    },
    {
      "midi": 64,
      "hit": false,
      "t": 253636.3890000003,
      "d": 2727.2729999999865,
      "v": 115
    },
    {
      "midi": 35,
      "hit": false,
      "t": 255000.02550000013,
      "d": 681.8182500000112,
      "v": 95
    },
    {
      "midi": 72,
      "hit": false,
      "t": 255681.84374999968,
      "d": 2045.4547500000044,
      "v": 127
    },
    {
      "midi": 33,
      "hit": false,
      "t": 255681.84375000015,
      "d": 681.8182500000112,
      "v": 95
    },
    {
      "midi": 55,
      "hit": false,
      "t": 256363.66199999987,
      "d": 2727.2729999999865,
      "v": 95
    },
    {
      "midi": 31,
      "hit": false,
      "t": 256363.66200000016,
      "d": 2727.2729999999865,
      "v": 95
    },
    {
      "midi": 55,
      "hit": false,
      "t": 256363.66200000027,
      "d": 681.8182500000112,
      "v": 127
    },
    {
      "midi": 43,
      "hit": false,
      "t": 256363.66200000027,
      "d": 2727.2730000000156,
      "v": 127
    },
    {
      "midi": 31,
      "hit": false,
      "t": 256363.66200000027,
      "d": 2727.2730000000156,
      "v": 127
    },
    {
      "midi": 71,
      "hit": false,
      "t": 257727.29849999968,
      "d": 681.8182500000112,
      "v": 127
    },
    {
      "midi": 71,
      "hit": false,
      "t": 258409.1167499997,
      "d": 2045.4547500000044,
      "v": 127
    },
    {
      "midi": 54,
      "hit": false,
      "t": 259090.93499999985,
      "d": 2727.2729999999865,
      "v": 95
    },
    {
      "midi": 30,
      "hit": false,
      "t": 259090.93500000014,
      "d": 2727.2729999999865,
      "v": 95
    },
    {
      "midi": 54,
      "hit": false,
      "t": 259090.9350000003,
      "d": 681.8182500000112,
      "v": 127
    },
    {
      "midi": 42,
      "hit": false,
      "t": 259090.9350000003,
      "d": 2727.2730000000156,
      "v": 127
    },
    {
      "midi": 30,
      "hit": false,
      "t": 259090.9350000003,
      "d": 2727.2730000000156,
      "v": 127
    },
    {
      "midi": 64,
      "hit": false,
      "t": 261136.3897499997,
      "d": 1363.6364999999932,
      "v": 127
    },
    {
      "midi": 64,
      "hit": false,
      "t": 261818.20799999984,
      "d": 4090.9094999999797,
      "v": 95
    },
    {
      "midi": 67,
      "hit": false,
      "t": 261818.20799999984,
      "d": 4090.9094999999797,
      "v": 95
    },
    {
      "midi": 52,
      "hit": false,
      "t": 261818.20799999993,
      "d": 10909.092000000004,
      "v": 95
    },
    {
      "midi": 28,
      "hit": false,
      "t": 261818.20800000013,
      "d": 1363.6364999999932,
      "v": 95
    },
    {
      "midi": 64,
      "hit": false,
      "t": 261818.2080000003,
      "d": 2045.4547500000044,
      "v": 111
    },
    {
      "midi": 59,
      "hit": false,
      "t": 261818.2080000003,
      "d": 2045.4547500000044,
      "v": 95
    },
    {
      "midi": 55,
      "hit": false,
      "t": 261818.2080000003,
      "d": 2045.4547500000044,
      "v": 95
    },
    {
      "midi": 52,
      "hit": false,
      "t": 261818.2080000003,
      "d": 2045.4547500000044,
      "v": 95
    },
    {
      "midi": 66,
      "hit": false,
      "t": 262500.0262499997,
      "d": 681.8182500000112,
      "v": 127
    },
    {
      "midi": 67,
      "hit": false,
      "t": 263181.8444999997,
      "d": 1363.6365000000224,
      "v": 127
    },
    {
      "midi": 31,
      "hit": false,
      "t": 263181.8445000001,
      "d": 681.8182500000112,
      "v": 95
    },
    {
      "midi": 40,
      "hit": false,
      "t": 263863.66275000013,
      "d": 681.8182500000112,
      "v": 95
    },
    {
      "midi": 64,
      "hit": false,
      "t": 263863.6627500003,
      "d": 681.8182500000112,
      "v": 111
    },
    {
      "midi": 59,
      "hit": false,
      "t": 263863.6627500003,
      "d": 681.8182500000112,
      "v": 95
    },
    {
      "midi": 55,
      "hit": false,
      "t": 263863.6627500003,
      "d": 681.8182500000112,
      "v": 79
    },
    {
      "midi": 52,
      "hit": false,
      "t": 263863.6627500003,
      "d": 681.8182500000112,
      "v": 63
    },
    {
      "midi": 69,
      "hit": false,
      "t": 264545.48099999974,
      "d": 681.8182500000112,
      "v": 127
    },
    {
      "midi": 64,
      "hit": false,
      "t": 264545.4810000003,
      "d": 681.8182500000112,
      "v": 111
    },
    {
      "midi": 59,
      "hit": false,
      "t": 264545.4810000003,
      "d": 681.8182500000112,
      "v": 95
    },
    {
      "midi": 55,
      "hit": false,
      "t": 264545.4810000003,
      "d": 681.8182500000112,
      "v": 79
    },
    {
      "midi": 52,
      "hit": false,
      "t": 264545.4810000003,
      "d": 681.8182500000112,
      "v": 63
    },
    {
      "midi": 71,
      "hit": false,
      "t": 265227.29924999975,
      "d": 2727.2729999999865,
      "v": 127
    },
    {
      "midi": 38,
      "hit": false,
      "t": 265227.29925000016,
      "d": 681.8182500000112,
      "v": 95
    },
    {
      "midi": 64,
      "hit": false,
      "t": 265227.29925000033,
      "d": 681.8182500000112,
      "v": 111
    },
    {
      "midi": 59,
      "hit": false,
      "t": 265227.29925000033,
      "d": 681.8182500000112,
      "v": 111
    },
    {
      "midi": 55,
      "hit": false,
      "t": 265227.29925000033,
      "d": 681.8182500000112,
      "v": 79
    },
    {
      "midi": 52,
      "hit": false,
      "t": 265227.29925000033,
      "d": 681.8182500000112,
      "v": 63
    },
    {
      "midi": 60,
      "hit": false,
      "t": 265909.1174999998,
      "d": 4090.909500000009,
      "v": 95
    },
    {
      "midi": 64,
      "hit": false,
      "t": 265909.1174999998,
      "d": 4090.909500000009,
      "v": 95
    },
    {
      "midi": 67,
      "hit": false,
      "t": 265909.1174999998,
      "d": 4090.909500000009,
      "v": 95
    },
    {
      "midi": 36,
      "hit": false,
      "t": 265909.11750000017,
      "d": 6818.182499999995,
      "v": 95
    },
    {
      "midi": 59,
      "hit": false,
      "t": 265909.11750000034,
      "d": 2045.4547499999753,
      "v": 111
    },
    {
      "midi": 55,
      "hit": false,
      "t": 265909.11750000034,
      "d": 2045.4547499999753,
      "v": 63
    },
    {
      "midi": 62,
      "hit": false,
      "t": 265909.11750000034,
      "d": 2045.4547499999753,
      "v": 79
    },
    {
      "midi": 52,
      "hit": false,
      "t": 265909.11750000034,
      "d": 2045.4547499999753,
      "v": 63
    },
    {
      "midi": 69,
      "hit": false,
      "t": 267954.57224999974,
      "d": 2727.2729999999865,
      "v": 127
    },
    {
      "midi": 62,
      "hit": false,
      "t": 267954.5722500003,
      "d": 681.8182500000112,
      "v": 111
    },
    {
      "midi": 62,
      "hit": false,
      "t": 268636.3905000003,
      "d": 681.8182500000112,
      "v": 111
    },
    {
      "midi": 52,
      "hit": false,
      "t": 270000.02700000035,
      "d": 1363.6365000000224,
      "v": 79
    },
    {
      "midi": 55,
      "hit": false,
      "t": 270000.02700000035,
      "d": 1363.6365000000224,
      "v": 79
    },
    {
      "midi": 59,
      "hit": false,
      "t": 270000.02700000035,
      "d": 1363.6365000000224,
      "v": 111
    },
    {
      "midi": 62,
      "hit": false,
      "t": 270000.02700000035,
      "d": 1363.6365000000224,
      "v": 95
    },
    {
      "midi": 62,
      "hit": false,
      "t": 271363.6635000004,
      "d": 681.8182500000112,
      "v": 89
    },
    {
      "midi": 66,
      "hit": false,
      "t": 272045.48174999974,
      "d": 1363.6365000000224,
      "v": 127
    },
    {
      "midi": 62,
      "hit": false,
      "t": 272045.4817500004,
      "d": 681.8182500000112,
      "v": 89
    },
    {
      "midi": 59,
      "hit": false,
      "t": 272727.2999999998,
      "d": 4090.909500000009,
      "v": 95
    },
    {
      "midi": 63,
      "hit": false,
      "t": 272727.2999999998,
      "d": 4090.909500000009,
      "v": 95
    },
    {
      "midi": 66,
      "hit": false,
      "t": 272727.2999999998,
      "d": 4090.909500000009,
      "v": 95
    },
    {
      "midi": 60,
      "hit": false,
      "t": 272727.29999999993,
      "d": 2727.2729999999865,
      "v": 95
    },
    {
      "midi": 39,
      "hit": false,
      "t": 272727.30000000016,
      "d": 1363.6365000000224,
      "v": 95
    },
    {
      "midi": 57,
      "hit": false,
      "t": 272727.3000000004,
      "d": 2727.2729999999865,
      "v": 79
    },
    {
      "midi": 60,
      "hit": false,
      "t": 272727.3000000004,
      "d": 2727.2729999999865,
      "v": 95
    },
    {
      "midi": 66,
      "hit": false,
      "t": 272727.3000000004,
      "d": 2727.2729999999865,
      "v": 111
    },
    {
      "midi": 66,
      "hit": false,
      "t": 273409.11824999977,
      "d": 681.8182500000112,
      "v": 127
    },
    {
      "midi": 64,
      "hit": false,
      "t": 274090.9364999998,
      "d": 1363.6365000000224,
      "v": 127
    },
    {
      "midi": 35,
      "hit": false,
      "t": 274090.9365000002,
      "d": 1363.6365000000224,
      "v": 95
    },
    {
      "midi": 66,
      "hit": false,
      "t": 275454.5729999998,
      "d": 681.8182500000112,
      "v": 127
    },
    {
      "midi": 59,
      "hit": false,
      "t": 275454.5729999999,
      "d": 2727.2729999999865,
      "v": 95
    },
    {
      "midi": 39,
      "hit": false,
      "t": 275454.5730000002,
      "d": 1363.6365000000224,
      "v": 95
    },
    {
      "midi": 59,
      "hit": false,
      "t": 275454.5730000004,
      "d": 2727.2729999999865,
      "v": 95
    },
    {
      "midi": 54,
      "hit": false,
      "t": 275454.5730000004,
      "d": 2727.2729999999865,
      "v": 79
    },
    {
      "midi": 63,
      "hit": false,
      "t": 275454.5730000004,
      "d": 2727.2729999999865,
      "v": 111
    },
    {
      "midi": 67,
      "hit": false,
      "t": 276136.3912499998,
      "d": 5454.545999999973,
      "v": 127
    },
    {
      "midi": 42,
      "hit": false,
      "t": 276818.20950000023,
      "d": 1363.6365000000224,
      "v": 95
    },
    {
      "midi": 59,
      "hit": false,
      "t": 278181.84599999984,
      "d": 4090.909500000009,
      "v": 95
    },
    {
      "midi": 64,
      "hit": false,
      "t": 278181.84599999984,
      "d": 4090.909500000009,
      "v": 95
    },
    {
      "midi": 57,
      "hit": false,
      "t": 278181.8459999999,
      "d": 2727.2729999999865,
      "v": 95
    },
    {
      "midi": 40,
      "hit": false,
      "t": 278181.84600000025,
      "d": 5454.545999999973,
      "v": 95
    },
    {
      "midi": 55,
      "hit": false,
      "t": 278181.84600000037,
      "d": 2727.2729999999865,
      "v": 79
    },
    {
      "midi": 59,
      "hit": false,
      "t": 278181.84600000037,
      "d": 2727.2729999999865,
      "v": 95
    },
    {
      "midi": 64,
      "hit": false,
      "t": 278181.84600000037,
      "d": 2727.2729999999865,
      "v": 111
    },
    {
      "midi": 67,
      "hit": false,
      "t": 280909.11899999983,
      "d": 681.8182500000112,
      "v": 79
    },
    {
      "midi": 55,
      "hit": false,
      "t": 280909.1189999999,
      "d": 2727.2729999999865,
      "v": 95
    },
    {
      "midi": 60,
      "hit": false,
      "t": 280909.11900000036,
      "d": 681.8182500000112,
      "v": 111
    },
    {
      "midi": 64,
      "hit": false,
      "t": 280909.11900000036,
      "d": 681.8182500000112,
      "v": 111
    },
    {
      "midi": 66,
      "hit": false,
      "t": 281590.93724999984,
      "d": 681.8182500000112,
      "v": 79
    },
    {
      "midi": 60,
      "hit": false,
      "t": 281590.93725000037,
      "d": 681.8182500000112,
      "v": 111
    },
    {
      "midi": 64,
      "hit": false,
      "t": 281590.93725000037,
      "d": 681.8182500000112,
      "v": 111
    },
    {
      "midi": 64,
      "hit": false,
      "t": 282272.75549999985,
      "d": 681.8182500000112,
      "v": 79
    },
    {
      "midi": 59,
      "hit": false,
      "t": 282272.7555000004,
      "d": 1363.6365000000224,
      "v": 111
    },
    {
      "midi": 62,
      "hit": false,
      "t": 282272.7555000004,
      "d": 1363.6365000000224,
      "v": 111
    },
    {
      "midi": 52,
      "hit": false,
      "t": 282272.7555000004,
      "d": 1363.6365000000224,
      "v": 111
    },
    {
      "midi": 62,
      "hit": false,
      "t": 282954.57374999986,
      "d": 681.8182500000112,
      "v": 63
    },
    {
      "midi": 39,
      "hit": false,
      "t": 283636.3919999999,
      "d": 5454.545999999973,
      "v": 95
    },
    {
      "midi": 51,
      "hit": false,
      "t": 283636.3919999999,
      "d": 5454.545999999973,
      "v": 95
    },
    {
      "midi": 46,
      "hit": false,
      "t": 283636.3919999999,
      "d": 5454.545999999973,
      "v": 95
    },
    {
      "midi": 34,
      "hit": false,
      "t": 283636.3920000002,
      "d": 5454.545999999973,
      "v": 95
    },
    {
      "midi": 39,
      "hit": false,
      "t": 283636.3920000002,
      "d": 5454.545999999973,
      "v": 95
    },
    {
      "midi": 63,
      "hit": false,
      "t": 285000.0285000004,
      "d": 681.8182500000112,
      "v": 111
    },
    {
      "midi": 65,
      "hit": false,
      "t": 285681.84675000043,
      "d": 681.8182500000112,
      "v": 111
    },
    {
      "midi": 63,
      "hit": false,
      "t": 286363.66500000044,
      "d": 681.8182500000112,
      "v": 111
    },
    {
      "midi": 65,
      "hit": false,
      "t": 287045.48325000046,
      "d": 681.8182500000112,
      "v": 111
    },
    {
      "midi": 79,
      "hit": false,
      "t": 287727.30150000006,
      "d": 681.8182500000112,
      "v": 109
    },
    {
      "midi": 58,
      "hit": false,
      "t": 287727.30150000047,
      "d": 2181.818399999989,
      "v": 79
    },
    {
      "midi": 77,
      "hit": false,
      "t": 288409.11975000007,
      "d": 2045.4547499999753,
      "v": 109
    },
    {
      "midi": 70,
      "hit": false,
      "t": 289090.93799999985,
      "d": 4090.909500000009,
      "v": 95
    },
    {
      "midi": 58,
      "hit": false,
      "t": 289090.93799999985,
      "d": 4090.909500000009,
      "v": 95
    },
    {
      "midi": 46,
      "hit": false,
      "t": 289090.9380000002,
      "d": 4090.909500000009,
      "v": 95
    },
    {
      "midi": 62,
      "hit": false,
      "t": 289772.75625000044,
      "d": 136.36365000001388,
      "v": 111
    },
    {
      "midi": 79,
      "hit": false,
      "t": 290454.57450000005,
      "d": 681.8182500000112,
      "v": 109
    },
    {
      "midi": 62,
      "hit": false,
      "t": 290454.57450000045,
      "d": 681.8182500000112,
      "v": 111
    },
    {
      "midi": 77,
      "hit": false,
      "t": 291136.39275000006,
      "d": 2045.4547499999753,
      "v": 109
    },
    {
      "midi": 53,
      "hit": false,
      "t": 291818.2110000005,
      "d": 2727.2729999999865,
      "v": 79
    },
    {
      "midi": 65,
      "hit": false,
      "t": 291818.2110000005,
      "d": 2727.2729999999865,
      "v": 111
    },
    {
      "midi": 62,
      "hit": false,
      "t": 291818.2110000005,
      "d": 2727.2729999999865,
      "v": 111
    },
    {
      "midi": 79,
      "hit": false,
      "t": 293181.84750000003,
      "d": 681.8182500000112,
      "v": 109
    },
    {
      "midi": 38,
      "hit": false,
      "t": 293181.8475000002,
      "d": 681.8182500000112,
      "v": 95
    },
    {
      "midi": 77,
      "hit": false,
      "t": 293863.66575000004,
      "d": 4772.72775000002,
      "v": 109
    },
    {
      "midi": 40,
      "hit": false,
      "t": 293863.6657500002,
      "d": 681.8182500000112,
      "v": 95
    },
    {
      "midi": 41,
      "hit": false,
      "t": 294545.4839999999,
      "d": 5454.545999999973,
      "v": 95
    },
    {
      "midi": 53,
      "hit": false,
      "t": 294545.4839999999,
      "d": 5454.545999999973,
      "v": 95
    },
    {
      "midi": 41,
      "hit": false,
      "t": 294545.48400000023,
      "d": 2045.4547499999753,
      "v": 95
    },
    {
      "midi": 62,
      "hit": false,
      "t": 294545.48400000046,
      "d": 2045.4547499999753,
      "v": 95
    },
    {
      "midi": 65,
      "hit": false,
      "t": 294545.48400000046,
      "d": 2045.4547499999753,
      "v": 111
    },
    {
      "midi": 41,
      "hit": false,
      "t": 296590.9387500002,
      "d": 681.8182500000112,
      "v": 95
    },
    {
      "midi": 62,
      "hit": false,
      "t": 296590.93875000044,
      "d": 681.8182500000112,
      "v": 95
    },
    {
      "midi": 65,
      "hit": false,
      "t": 296590.93875000044,
      "d": 681.8182500000112,
      "v": 111
    },
    {
      "midi": 41,
      "hit": false,
      "t": 297272.7570000002,
      "d": 681.8182500000112,
      "v": 95
    },
    {
      "midi": 65,
      "hit": false,
      "t": 297272.75700000045,
      "d": 681.8182500000112,
      "v": 111
    },
    {
      "midi": 62,
      "hit": false,
      "t": 297272.75700000045,
      "d": 681.8182500000112,
      "v": 95
    },
    {
      "midi": 41,
      "hit": false,
      "t": 297954.5752500002,
      "d": 681.8182500000112,
      "v": 95
    },
    {
      "midi": 65,
      "hit": false,
      "t": 297954.57525000046,
      "d": 681.8182500000112,
      "v": 111
    },
    {
      "midi": 62,
      "hit": false,
      "t": 297954.57525000046,
      "d": 681.8182500000112,
      "v": 95
    },
    {
      "midi": 70,
      "hit": false,
      "t": 298636.39350000006,
      "d": 6818.182500000054,
      "v": 109
    },
    {
      "midi": 41,
      "hit": false,
      "t": 298636.39350000024,
      "d": 2727.2729999999865,
      "v": 95
    },
    {
      "midi": 67,
      "hit": false,
      "t": 298636.3935000005,
      "d": 2045.4547499999753,
      "v": 111
    },
    {
      "midi": 62,
      "hit": false,
      "t": 298636.3935000005,
      "d": 2045.4547499999753,
      "v": 95
    },
    {
      "midi": 65,
      "hit": false,
      "t": 300681.84825000045,
      "d": 681.8182500000112,
      "v": 111
    },
    {
      "midi": 41,
      "hit": false,
      "t": 301363.6665000002,
      "d": 1363.6365000000224,
      "v": 95
    },
    {
      "midi": 67,
      "hit": false,
      "t": 301363.66650000046,
      "d": 2045.4547499999753,
      "v": 111
    },
    {
      "midi": 41,
      "hit": false,
      "t": 302727.30300000025,
      "d": 1363.6365000000224,
      "v": 95
    },
    {
      "midi": 65,
      "hit": false,
      "t": 303409.12125000043,
      "d": 1363.6365000000224,
      "v": 111
    },
    {
      "midi": 38,
      "hit": false,
      "t": 304090.93950000027,
      "d": 1363.6365000000224,
      "v": 95
    },
    {
      "midi": 62,
      "hit": false,
      "t": 304090.93950000044,
      "d": 1363.6365000000224,
      "v": 111
    },
    {
      "midi": 39,
      "hit": false,
      "t": 305454.5760000003,
      "d": 1363.6365000000224,
      "v": 95
    },
    {
      "midi": 65,
      "hit": false,
      "t": 305454.57600000047,
      "d": 2045.4547499999753,
      "v": 111
    },
    {
      "midi": 62,
      "hit": false,
      "t": 305454.57600000047,
      "d": 2045.4547499999753,
      "v": 95
    },
    {
      "midi": 38,
      "hit": false,
      "t": 306818.2125000003,
      "d": 1363.6365000000224,
      "v": 95
    },
    {
      "midi": 65,
      "hit": false,
      "t": 307500.03075000044,
      "d": 681.8182500000112,
      "v": 111
    },
    {
      "midi": 62,
      "hit": false,
      "t": 307500.03075000044,
      "d": 681.8182500000112,
      "v": 95
    },
    {
      "midi": 36,
      "hit": false,
      "t": 308181.84900000034,
      "d": 1363.6365000000224,
      "v": 95
    },
    {
      "midi": 65,
      "hit": false,
      "t": 308181.84900000045,
      "d": 681.8182500000112,
      "v": 111
    },
    {
      "midi": 62,
      "hit": false,
      "t": 308181.84900000045,
      "d": 681.8182500000112,
      "v": 95
    },
    {
      "midi": 65,
      "hit": false,
      "t": 308863.66725000046,
      "d": 681.8182500000112,
      "v": 111
    },
    {
      "midi": 62,
      "hit": false,
      "t": 308863.66725000046,
      "d": 681.8182500000112,
      "v": 95
    },
    {
      "midi": 34,
      "hit": false,
      "t": 309545.48550000036,
      "d": 4772.72775000002,
      "v": 95
    },
    {
      "midi": 63,
      "hit": false,
      "t": 309545.4855000005,
      "d": 2045.4547499999753,
      "v": 111
    },
    {
      "midi": 58,
      "hit": false,
      "t": 309545.4855000005,
      "d": 2045.4547499999753,
      "v": 95
    },
    {
      "midi": 65,
      "hit": false,
      "t": 311590.94025000045,
      "d": 681.8182500000112,
      "v": 111
    },
    {
      "midi": 70,
      "hit": false,
      "t": 312272.7585000001,
      "d": 1363.6365000000224,
      "v": 109
    },
    {
      "midi": 63,
      "hit": false,
      "t": 312272.75850000046,
      "d": 681.8182500000112,
      "v": 111
    },
    {
      "midi": 58,
      "hit": false,
      "t": 313636.39499999984,
      "d": 681.8182500000112,
      "v": 95
    },
    {
      "midi": 74,
      "hit": false,
      "t": 313636.39500000014,
      "d": 1363.6365000000224,
      "v": 109
    },
    {
      "midi": 65,
      "hit": false,
      "t": 313636.3950000005,
      "d": 2727.2729999999865,
      "v": 111
    },
    {
      "midi": 58,
      "hit": false,
      "t": 313636.3950000005,
      "d": 2727.2729999999865,
      "v": 79
    },
    {
      "midi": 62,
      "hit": false,
      "t": 313636.3950000005,
      "d": 2727.2729999999865,
      "v": 111
    },
    {
      "midi": 60,
      "hit": false,
      "t": 314318.21324999986,
      "d": 681.8182500000112,
      "v": 95
    },
    {
      "midi": 62,
      "hit": false,
      "t": 315000.03149999987,
      "d": 681.8182500000112,
      "v": 95
    },
    {
      "midi": 75,
      "hit": false,
      "t": 315000.03150000016,
      "d": 1363.6365000000224,
      "v": 109
    },
    {
      "midi": 34,
      "hit": false,
      "t": 315000.0315000004,
      "d": 681.8182500000112,
      "v": 95
    },
    {
      "midi": 63,
      "hit": false,
      "t": 315681.8497499999,
      "d": 681.8182500000112,
      "v": 95
    },
    {
      "midi": 33,
      "hit": false,
      "t": 315681.8497500004,
      "d": 681.8182500000112,
      "v": 95
    },
    {
      "midi": 65,
      "hit": false,
      "t": 316363.6679999999,
      "d": 5454.545999999973,
      "v": 95
    },
    {
      "midi": 77,
      "hit": false,
      "t": 316363.6680000002,
      "d": 1363.6365000000224,
      "v": 109
    },
    {
      "midi": 29,
      "hit": false,
      "t": 316363.6680000004,
      "d": 2045.4547499999753,
      "v": 95
    },
    {
      "midi": 65,
      "hit": false,
      "t": 316363.66800000047,
      "d": 2727.2729999999865,
      "v": 111
    },
    {
      "midi": 62,
      "hit": false,
      "t": 316363.66800000047,
      "d": 2727.2729999999865,
      "v": 95
    },
    {
      "midi": 82,
      "hit": false,
      "t": 317727.3045000002,
      "d": 1363.6365000000224,
      "v": 109
    },
    {
      "midi": 29,
      "hit": false,
      "t": 318409.1227500004,
      "d": 681.8182500000112,
      "v": 95
    },
    {
      "midi": 81,
      "hit": false,
      "t": 319090.9410000002,
      "d": 1363.6365000000224,
      "v": 109
    },
    {
      "midi": 29,
      "hit": false,
      "t": 319090.9410000004,
      "d": 681.8182500000112,
      "v": 95
    },
    {
      "midi": 65,
      "hit": false,
      "t": 319090.94100000046,
      "d": 681.8182500000112,
      "v": 111
    },
    {
      "midi": 62,
      "hit": false,
      "t": 319090.94100000046,
      "d": 681.8182500000112,
      "v": 95
    },
    {
      "midi": 65,
      "hit": false,
      "t": 319772.75925000047,
      "d": 681.8182500000112,
      "v": 111
    },
    {
      "midi": 62,
      "hit": false,
      "t": 319772.75925000047,
      "d": 681.8182500000112,
      "v": 95
    },
    {
      "midi": 82,
      "hit": false,
      "t": 320454.57750000025,
      "d": 6818.182500000054,
      "v": 109
    },
    {
      "midi": 31,
      "hit": false,
      "t": 320454.5775000004,
      "d": 6818.182499999995,
      "v": 95
    },
    {
      "midi": 67,
      "hit": false,
      "t": 320454.5775000005,
      "d": 2045.4547499999753,
      "v": 111
    },
    {
      "midi": 60,
      "hit": false,
      "t": 320454.5775000005,
      "d": 2045.4547499999753,
      "v": 95
    },
    {
      "midi": 67,
      "hit": false,
      "t": 322500.03225000045,
      "d": 681.8182500000112,
      "v": 95
    },
    {
      "midi": 67,
      "hit": false,
      "t": 323181.85050000047,
      "d": 1363.6365000000224,
      "v": 95
    },
    {
      "midi": 58,
      "hit": false,
      "t": 324545.4869999998,
      "d": 681.8182500000112,
      "v": 127
    },
    {
      "midi": 67,
      "hit": false,
      "t": 324545.4870000005,
      "d": 1363.6365000000224,
      "v": 127
    },
    {
      "midi": 60,
      "hit": false,
      "t": 324545.4870000005,
      "d": 1363.6365000000224,
      "v": 95
    },
    {
      "midi": 60,
      "hit": false,
      "t": 325227.3052499998,
      "d": 681.8182500000112,
      "v": 127
    },
    {
      "midi": 62,
      "hit": false,
      "t": 325909.1234999998,
      "d": 1363.6365000000224,
      "v": 127
    },
    {
      "midi": 67,
      "hit": false,
      "t": 325909.1235000005,
      "d": 681.8182500000112,
      "v": 95
    },
    {
      "midi": 67,
      "hit": false,
      "t": 326590.9417500005,
      "d": 681.8182500000112,
      "v": 95
    },
    {
      "midi": 63,
      "hit": false,
      "t": 327272.75999999983,
      "d": 4090.909500000009,
      "v": 95
    },
    {
      "midi": 58,
      "hit": false,
      "t": 327272.75999999983,
      "d": 4090.909500000009,
      "v": 95
    },
    {
      "midi": 58,
      "hit": false,
      "t": 327272.75999999983,
      "d": 681.8182500000112,
      "v": 127
    },
    {
      "midi": 51,
      "hit": false,
      "t": 327272.76000000053,
      "d": 2045.4547499999753,
      "v": 100
    },
    {
      "midi": 58,
      "hit": false,
      "t": 327272.76000000053,
      "d": 2045.4547499999753,
      "v": 111
    },
    {
      "midi": 53,
      "hit": false,
      "t": 327272.76000000053,
      "d": 2045.4547499999753,
      "v": 100
    },
    {
      "midi": 63,
      "hit": false,
      "t": 327272.76000000053,
      "d": 2045.4547499999753,
      "v": 111
    },
    {
      "midi": 60,
      "hit": false,
      "t": 327954.57824999985,
      "d": 681.8182500000112,
      "v": 127
    },
    {
      "midi": 62,
      "hit": false,
      "t": 328636.39649999986,
      "d": 1363.6365000000224,
      "v": 127
    },
    {
      "midi": 53,
      "hit": false,
      "t": 329318.2147500005,
      "d": 681.8182500000112,
      "v": 100
    },
    {
      "midi": 58,
      "hit": false,
      "t": 329318.2147500005,
      "d": 681.8182500000112,
      "v": 95
    },
    {
      "midi": 60,
      "hit": false,
      "t": 329318.2147500005,
      "d": 681.8182500000112,
      "v": 111
    },
    {
      "midi": 63,
      "hit": false,
      "t": 329318.2147500005,
      "d": 681.8182500000112,
      "v": 111
    },
    {
      "midi": 58,
      "hit": false,
      "t": 330000.0329999999,
      "d": 681.8182500000112,
      "v": 127
    },
    {
      "midi": 53,
      "hit": false,
      "t": 330000.0330000005,
      "d": 681.8182500000112,
      "v": 100
    },
    {
      "midi": 58,
      "hit": false,
      "t": 330000.0330000005,
      "d": 681.8182500000112,
      "v": 100
    },
    {
      "midi": 63,
      "hit": false,
      "t": 330000.0330000005,
      "d": 681.8182500000112,
      "v": 111
    },
    {
      "midi": 60,
      "hit": false,
      "t": 330000.0330000005,
      "d": 681.8182500000112,
      "v": 111
    },
    {
      "midi": 60,
      "hit": false,
      "t": 330681.8512499999,
      "d": 681.8182500000112,
      "v": 127
    },
    {
      "midi": 60,
      "hit": false,
      "t": 330681.85125000053,
      "d": 681.8182500000112,
      "v": 111
    },
    {
      "midi": 57,
      "hit": false,
      "t": 330681.85125000053,
      "d": 681.8182500000112,
      "v": 111
    },
    {
      "midi": 53,
      "hit": false,
      "t": 330681.85125000053,
      "d": 681.8182500000112,
      "v": 100
    },
    {
      "midi": 50,
      "hit": false,
      "t": 330681.85125000053,
      "d": 681.8182500000112,
      "v": 100
    },
    {
      "midi": 58,
      "hit": false,
      "t": 331363.66949999984,
      "d": 4090.909500000009,
      "v": 95
    },
    {
      "midi": 62,
      "hit": false,
      "t": 331363.66949999984,
      "d": 4090.909500000009,
      "v": 95
    },
    {
      "midi": 62,
      "hit": false,
      "t": 331363.6694999999,
      "d": 1363.6365000000224,
      "v": 127
    },
    {
      "midi": 58,
      "hit": false,
      "t": 331363.66950000054,
      "d": 2727.2729999999865,
      "v": 111
    },
    {
      "midi": 53,
      "hit": false,
      "t": 331363.66950000054,
      "d": 2727.2729999999865,
      "v": 100
    },
    {
      "midi": 50,
      "hit": false,
      "t": 331363.66950000054,
      "d": 2727.2729999999865,
      "v": 100
    },
    {
      "midi": 58,
      "hit": false,
      "t": 332727.3059999999,
      "d": 681.8182500000112,
      "v": 127
    },
    {
      "midi": 60,
      "hit": false,
      "t": 333409.12424999994,
      "d": 681.8182500000112,
      "v": 127
    },
    {
      "midi": 62,
      "hit": false,
      "t": 333409.1242500005,
      "d": 681.8182500000112,
      "v": 95
    },
    {
      "midi": 65,
      "hit": false,
      "t": 333409.1242500005,
      "d": 681.8182500000112,
      "v": 95
    },
    {
      "midi": 62,
      "hit": false,
      "t": 334090.94249999995,
      "d": 2045.4547499999753,
      "v": 127
    },
    {
      "midi": 62,
      "hit": false,
      "t": 334090.9425000005,
      "d": 681.8182500000112,
      "v": 95
    },
    {
      "midi": 43,
      "hit": false,
      "t": 334090.9425000005,
      "d": 2727.2730000000447,
      "v": 95
    },
    {
      "midi": 58,
      "hit": false,
      "t": 335454.57899999985,
      "d": 1363.6365000000224,
      "v": 95
    },
    {
      "midi": 53,
      "hit": false,
      "t": 335454.57900000055,
      "d": 1363.6365000000224,
      "v": 95
    },
    {
      "midi": 58,
      "hit": false,
      "t": 335454.57900000055,
      "d": 1363.6365000000224,
      "v": 95
    },
    {
      "midi": 62,
      "hit": false,
      "t": 335454.57900000055,
      "d": 1363.6365000000224,
      "v": 95
    },
    {
      "midi": 65,
      "hit": false,
      "t": 335454.57900000055,
      "d": 1363.6365000000224,
      "v": 111
    },
    {
      "midi": 60,
      "hit": false,
      "t": 336136.39724999986,
      "d": 1363.6365000000224,
      "v": 95
    },
    {
      "midi": 62,
      "hit": false,
      "t": 336818.2154999999,
      "d": 1363.6365000000224,
      "v": 95
    },
    {
      "midi": 58,
      "hit": false,
      "t": 336818.21549999993,
      "d": 681.8182500000112,
      "v": 127
    },
    {
      "midi": 50,
      "hit": false,
      "t": 336818.2155000006,
      "d": 681.8182500000112,
      "v": 111
    },
    {
      "midi": 60,
      "hit": false,
      "t": 336818.2155000006,
      "d": 681.8182500000112,
      "v": 111
    },
    {
      "midi": 58,
      "hit": false,
      "t": 336818.2155000006,
      "d": 681.8182500000112,
      "v": 95
    },
    {
      "midi": 58,
      "hit": false,
      "t": 337500.0337499999,
      "d": 681.8182500000112,
      "v": 95
    },
    {
      "midi": 60,
      "hit": false,
      "t": 337500.03374999994,
      "d": 1363.6365000000224,
      "v": 127
    },
    {
      "midi": 50,
      "hit": false,
      "t": 337500.0337500006,
      "d": 681.8182500000112,
      "v": 95
    },
    {
      "midi": 57,
      "hit": false,
      "t": 337500.0337500006,
      "d": 681.8182500000112,
      "v": 111
    },
    {
      "midi": 53,
      "hit": false,
      "t": 337500.0337500006,
      "d": 681.8182500000112,
      "v": 95
    },
    {
      "midi": 60,
      "hit": false,
      "t": 338181.8519999999,
      "d": 4090.909500000009,
      "v": 95
    },
    {
      "midi": 65,
      "hit": false,
      "t": 338181.8519999999,
      "d": 4090.909500000009,
      "v": 79
    },
    {
      "midi": 60,
      "hit": false,
      "t": 338181.8520000006,
      "d": 2045.4547499999753,
      "v": 111
    },
    {
      "midi": 57,
      "hit": false,
      "t": 338181.8520000006,
      "d": 2045.4547499999753,
      "v": 111
    },
    {
      "midi": 53,
      "hit": false,
      "t": 338181.8520000006,
      "d": 2045.4547499999753,
      "v": 100
    },
    {
      "midi": 48,
      "hit": false,
      "t": 338181.8520000006,
      "d": 2045.4547499999753,
      "v": 100
    },
    {
      "midi": 58,
      "hit": false,
      "t": 338863.67024999997,
      "d": 681.8182500000112,
      "v": 127
    },
    {
      "midi": 60,
      "hit": false,
      "t": 339545.4885,
      "d": 1363.6365000000224,
      "v": 127
    },
    {
      "midi": 60,
      "hit": false,
      "t": 340227.3067500006,
      "d": 681.8182500000112,
      "v": 111
    },
    {
      "midi": 58,
      "hit": false,
      "t": 340227.3067500006,
      "d": 681.8182500000112,
      "v": 95
    },
    {
      "midi": 53,
      "hit": false,
      "t": 340227.3067500006,
      "d": 681.8182500000112,
      "v": 95
    },
    {
      "midi": 48,
      "hit": false,
      "t": 340227.3067500006,
      "d": 681.8182500000112,
      "v": 95
    },
    {
      "midi": 65,
      "hit": false,
      "t": 340909.125,
      "d": 1363.6365000000224,
      "v": 127
    },
    {
      "midi": 58,
      "hit": false,
      "t": 340909.1250000006,
      "d": 681.8182500000112,
      "v": 95
    },
    {
      "midi": 57,
      "hit": false,
      "t": 340909.1250000006,
      "d": 681.8182500000112,
      "v": 111
    },
    {
      "midi": 53,
      "hit": false,
      "t": 340909.1250000006,
      "d": 681.8182500000112,
      "v": 95
    },
    {
      "midi": 48,
      "hit": false,
      "t": 340909.1250000006,
      "d": 681.8182500000112,
      "v": 95
    },
    {
      "midi": 60,
      "hit": false,
      "t": 340909.1250000006,
      "d": 681.8182500000112,
      "v": 111
    },
    {
      "midi": 43,
      "hit": false,
      "t": 341590.9432500006,
      "d": 681.8182500000112,
      "v": 95
    },
    {
      "midi": 48,
      "hit": false,
      "t": 341590.9432500006,
      "d": 681.8182500000112,
      "v": 95
    },
    {
      "midi": 53,
      "hit": false,
      "t": 341590.9432500006,
      "d": 681.8182500000112,
      "v": 95
    },
    {
      "midi": 58,
      "hit": false,
      "t": 341590.9432500006,
      "d": 681.8182500000112,
      "v": 95
    },
    {
      "midi": 60,
      "hit": false,
      "t": 341590.9432500006,
      "d": 681.8182500000112,
      "v": 111
    },
    {
      "midi": 62,
      "hit": false,
      "t": 342272.7614999999,
      "d": 4090.909500000009,
      "v": 95
    },
    {
      "midi": 67,
      "hit": false,
      "t": 342272.7614999999,
      "d": 4090.909500000009,
      "v": 79
    },
    {
      "midi": 65,
      "hit": false,
      "t": 342272.7615,
      "d": 2727.2729999999865,
      "v": 127
    },
    {
      "midi": 43,
      "hit": false,
      "t": 342272.7615000006,
      "d": 2727.2729999999865,
      "v": 95
    },
    {
      "midi": 62,
      "hit": false,
      "t": 342272.7615000006,
      "d": 2727.2729999999865,
      "v": 111
    },
    {
      "midi": 58,
      "hit": false,
      "t": 342272.7615000006,
      "d": 2727.2729999999865,
      "v": 111
    },
    {
      "midi": 50,
      "hit": false,
      "t": 342272.7615000006,
      "d": 2727.2729999999865,
      "v": 95
    },
    {
      "midi": 53,
      "hit": false,
      "t": 342272.7615000006,
      "d": 2727.2729999999865,
      "v": 95
    },
    {
      "midi": 65,
      "hit": false,
      "t": 344318.2162500006,
      "d": 681.8182500000112,
      "v": 95
    },
    {
      "midi": 62,
      "hit": false,
      "t": 345000.0345000006,
      "d": 681.8182500000112,
      "v": 95
    },
    {
      "midi": 43,
      "hit": false,
      "t": 345000.0345000006,
      "d": 2727.2730000000447,
      "v": 95
    },
    {
      "midi": 62,
      "hit": false,
      "t": 345681.85275,
      "d": 1363.6365000000224,
      "v": 127
    },
    {
      "midi": 58,
      "hit": false,
      "t": 346363.6709999999,
      "d": 1363.6365000000224,
      "v": 95
    },
    {
      "midi": 65,
      "hit": false,
      "t": 346363.6710000006,
      "d": 1363.6365000000224,
      "v": 111
    },
    {
      "midi": 50,
      "hit": false,
      "t": 346363.6710000006,
      "d": 1363.6365000000224,
      "v": 95
    },
    {
      "midi": 55,
      "hit": false,
      "t": 346363.6710000006,
      "d": 1363.6365000000224,
      "v": 95
    },
    {
      "midi": 62,
      "hit": false,
      "t": 346363.6710000006,
      "d": 1363.6365000000224,
      "v": 111
    },
    {
      "midi": 58,
      "hit": false,
      "t": 346363.6710000006,
      "d": 1363.6365000000224,
      "v": 95
    },
    {
      "midi": 60,
      "hit": false,
      "t": 347045.4892499999,
      "d": 1363.6365000000224,
      "v": 95
    },
    {
      "midi": 63,
      "hit": false,
      "t": 347045.48925000004,
      "d": 1363.6365000000224,
      "v": 127
    },
    {
      "midi": 62,
      "hit": false,
      "t": 347727.30749999994,
      "d": 1363.6365000000224,
      "v": 95
    },
    {
      "midi": 50,
      "hit": false,
      "t": 347727.30750000064,
      "d": 681.8182500000112,
      "v": 95
    },
    {
      "midi": 41,
      "hit": false,
      "t": 347727.30750000064,
      "d": 681.8182500000112,
      "v": 95
    },
    {
      "midi": 60,
      "hit": false,
      "t": 348409.12574999995,
      "d": 681.8182500000112,
      "v": 95
    },
    {
      "midi": 65,
      "hit": false,
      "t": 348409.12575000006,
      "d": 1363.6365000000224,
      "v": 127
    },
    {
      "midi": 46,
      "hit": false,
      "t": 348409.12575000065,
      "d": 681.8182500000112,
      "v": 95
    },
    {
      "midi": 39,
      "hit": false,
      "t": 348409.12575000065,
      "d": 681.8182500000112,
      "v": 95
    },
    {
      "midi": 62,
      "hit": false,
      "t": 349090.94399999996,
      "d": 4090.909500000009,
      "v": 95
    },
    {
      "midi": 65,
      "hit": false,
      "t": 349090.94399999996,
      "d": 4090.909500000009,
      "v": 95
    },
    {
      "midi": 63,
      "hit": false,
      "t": 349090.94400000066,
      "d": 2045.4547499999753,
      "v": 111
    },
    {
      "midi": 53,
      "hit": false,
      "t": 349090.94400000066,
      "d": 2045.4547499999753,
      "v": 100
    },
    {
      "midi": 58,
      "hit": false,
      "t": 349090.94400000066,
      "d": 2045.4547499999753,
      "v": 111
    },
    {
      "midi": 51,
      "hit": false,
      "t": 349090.94400000066,
      "d": 2045.4547499999753,
      "v": 100
    },
    {
      "midi": 58,
      "hit": false,
      "t": 349772.7622500001,
      "d": 681.8182500000112,
      "v": 127
    },
    {
      "midi": 58,
      "hit": false,
      "t": 350454.5805000001,
      "d": 2045.4547499999753,
      "v": 127
    },
    {
      "midi": 63,
      "hit": false,
      "t": 351136.39875000063,
      "d": 681.8182500000112,
      "v": 111
    },
    {
      "midi": 60,
      "hit": false,
      "t": 351136.39875000063,
      "d": 681.8182500000112,
      "v": 111
    },
    {
      "midi": 58,
      "hit": false,
      "t": 351136.39875000063,
      "d": 681.8182500000112,
      "v": 95
    },
    {
      "midi": 53,
      "hit": false,
      "t": 351136.39875000063,
      "d": 681.8182500000112,
      "v": 100
    },
    {
      "midi": 60,
      "hit": false,
      "t": 351818.21700000064,
      "d": 681.8182500000112,
      "v": 111
    },
    {
      "midi": 63,
      "hit": false,
      "t": 351818.21700000064,
      "d": 681.8182500000112,
      "v": 111
    },
    {
      "midi": 58,
      "hit": false,
      "t": 351818.21700000064,
      "d": 681.8182500000112,
      "v": 100
    },
    {
      "midi": 53,
      "hit": false,
      "t": 351818.21700000064,
      "d": 681.8182500000112,
      "v": 100
    },
    {
      "midi": 62,
      "hit": false,
      "t": 352500.0352500001,
      "d": 681.8182500000112,
      "v": 127
    },
    {
      "midi": 50,
      "hit": false,
      "t": 352500.03525000066,
      "d": 681.8182500000112,
      "v": 100
    },
    {
      "midi": 53,
      "hit": false,
      "t": 352500.03525000066,
      "d": 681.8182500000112,
      "v": 100
    },
    {
      "midi": 57,
      "hit": false,
      "t": 352500.03525000066,
      "d": 681.8182500000112,
      "v": 111
    },
    {
      "midi": 60,
      "hit": false,
      "t": 352500.03525000066,
      "d": 681.8182500000112,
      "v": 111
    },
    {
      "midi": 58,
      "hit": false,
      "t": 353181.85349999997,
      "d": 4090.909500000009,
      "v": 95
    },
    {
      "midi": 62,
      "hit": false,
      "t": 353181.85349999997,
      "d": 4090.909500000009,
      "v": 95
    },
    {
      "midi": 63,
      "hit": false,
      "t": 353181.8535000001,
      "d": 681.8182500000112,
      "v": 127
    },
    {
      "midi": 50,
      "hit": false,
      "t": 353181.85350000067,
      "d": 2727.2729999999865,
      "v": 100
    },
    {
      "midi": 53,
      "hit": false,
      "t": 353181.85350000067,
      "d": 2727.2729999999865,
      "v": 100
    },
    {
      "midi": 58,
      "hit": false,
      "t": 353181.85350000067,
      "d": 2727.2729999999865,
      "v": 111
    },
    {
      "midi": 65,
      "hit": false,
      "t": 353863.6717500001,
      "d": 1363.6365000000224,
      "v": 127
    },
    {
      "midi": 58,
      "hit": false,
      "t": 355227.3082500001,
      "d": 681.8182500000112,
      "v": 127
    },
    {
      "midi": 65,
      "hit": false,
      "t": 355227.30825000064,
      "d": 681.8182500000112,
      "v": 95
    },
    {
      "midi": 62,
      "hit": false,
      "t": 355227.30825000064,
      "d": 681.8182500000112,
      "v": 95
    },
    {
      "midi": 58,
      "hit": false,
      "t": 355909.12650000013,
      "d": 2045.4547499999753,
      "v": 127
    },
    {
      "midi": 62,
      "hit": false,
      "t": 355909.12650000065,
      "d": 681.8182500000112,
      "v": 95
    },
    {
      "midi": 43,
      "hit": false,
      "t": 355909.12650000065,
      "d": 2727.2730000000447,
      "v": 95
    },
    {
      "midi": 60,
      "hit": false,
      "t": 357272.763,
      "d": 1363.6365000000224,
      "v": 95
    },
    {
      "midi": 65,
      "hit": false,
      "t": 357272.7630000007,
      "d": 1363.6365000000224,
      "v": 111
    },
    {
      "midi": 62,
      "hit": false,
      "t": 357272.7630000007,
      "d": 1363.6365000000224,
      "v": 95
    },
    {
      "midi": 58,
      "hit": false,
      "t": 357272.7630000007,
      "d": 1363.6365000000224,
      "v": 95
    },
    {
      "midi": 53,
      "hit": false,
      "t": 357272.7630000007,
      "d": 1363.6365000000224,
      "v": 95
    },
    {
      "midi": 62,
      "hit": false,
      "t": 357954.58125,
      "d": 1363.6365000000224,
      "v": 95
    },
    {
      "midi": 58,
      "hit": false,
      "t": 358636.3995,
      "d": 1363.6365000000224,
      "v": 95
    },
    {
      "midi": 58,
      "hit": false,
      "t": 358636.3995000001,
      "d": 681.8182500000112,
      "v": 127
    },
    {
      "midi": 58,
      "hit": false,
      "t": 358636.3995000007,
      "d": 681.8182500000112,
      "v": 95
    },
    {
      "midi": 60,
      "hit": false,
      "t": 358636.3995000007,
      "d": 681.8182500000112,
      "v": 111
    },
    {
      "midi": 50,
      "hit": false,
      "t": 358636.3995000007,
      "d": 681.8182500000112,
      "v": 111
    },
    {
      "midi": 55,
      "hit": false,
      "t": 359318.21775,
      "d": 681.8182500000112,
      "v": 95
    },
    {
      "midi": 60,
      "hit": false,
      "t": 359318.2177500001,
      "d": 1363.6365000000224,
      "v": 127
    },
    {
      "midi": 53,
      "hit": false,
      "t": 359318.2177500007,
      "d": 681.8182500000112,
      "v": 95
    },
    {
      "midi": 57,
      "hit": false,
      "t": 359318.2177500007,
      "d": 681.8182500000112,
      "v": 111
    },
    {
      "midi": 50,
      "hit": false,
      "t": 359318.2177500007,
      "d": 681.8182500000112,
      "v": 95
    },
    {
      "midi": 57,
      "hit": false,
      "t": 360000.036,
      "d": 2045.4547499999753,
      "v": 95
    },
    {
      "midi": 60,
      "hit": false,
      "t": 360000.036,
      "d": 2045.4547499999753,
      "v": 95
    },
    {
      "midi": 48,
      "hit": false,
      "t": 360000.0360000007,
      "d": 2045.4547499999753,
      "v": 100
    },
    {
      "midi": 53,
      "hit": false,
      "t": 360000.0360000007,
      "d": 2045.4547499999753,
      "v": 100
    },
    {
      "midi": 57,
      "hit": false,
      "t": 360000.0360000007,
      "d": 2045.4547499999753,
      "v": 111
    },
    {
      "midi": 60,
      "hit": false,
      "t": 360000.0360000007,
      "d": 2045.4547499999753,
      "v": 111
    },
    {
      "midi": 58,
      "hit": false,
      "t": 360681.85425000015,
      "d": 681.8182500000112,
      "v": 127
    },
    {
      "midi": 60,
      "hit": false,
      "t": 361363.67250000016,
      "d": 1363.6365000000224,
      "v": 127
    },
    {
      "midi": 62,
      "hit": false,
      "t": 362045.49075,
      "d": 2045.4547499999753,
      "v": 95
    },
    {
      "midi": 65,
      "hit": false,
      "t": 362045.49075,
      "d": 2045.4547499999753,
      "v": 95
    },
    {
      "midi": 48,
      "hit": false,
      "t": 362045.4907500007,
      "d": 681.8182500000112,
      "v": 95
    },
    {
      "midi": 53,
      "hit": false,
      "t": 362045.4907500007,
      "d": 681.8182500000112,
      "v": 95
    },
    {
      "midi": 58,
      "hit": false,
      "t": 362045.4907500007,
      "d": 681.8182500000112,
      "v": 95
    },
    {
      "midi": 60,
      "hit": false,
      "t": 362045.4907500007,
      "d": 681.8182500000112,
      "v": 111
    },
    {
      "midi": 58,
      "hit": false,
      "t": 362727.3090000002,
      "d": 681.8182500000112,
      "v": 127
    },
    {
      "midi": 60,
      "hit": false,
      "t": 362727.3090000007,
      "d": 681.8182500000112,
      "v": 111
    },
    {
      "midi": 48,
      "hit": false,
      "t": 362727.3090000007,
      "d": 681.8182500000112,
      "v": 95
    },
    {
      "midi": 53,
      "hit": false,
      "t": 362727.3090000007,
      "d": 681.8182500000112,
      "v": 95
    },
    {
      "midi": 57,
      "hit": false,
      "t": 362727.3090000007,
      "d": 681.8182500000112,
      "v": 111
    },
    {
      "midi": 58,
      "hit": false,
      "t": 362727.3090000007,
      "d": 681.8182500000112,
      "v": 95
    },
    {
      "midi": 58,
      "hit": false,
      "t": 363409.1272500002,
      "d": 2727.2729999999865,
      "v": 127
    },
    {
      "midi": 60,
      "hit": false,
      "t": 363409.1272500007,
      "d": 681.8182500000112,
      "v": 111
    },
    {
      "midi": 58,
      "hit": false,
      "t": 363409.1272500007,
      "d": 681.8182500000112,
      "v": 95
    },
    {
      "midi": 53,
      "hit": false,
      "t": 363409.1272500007,
      "d": 681.8182500000112,
      "v": 95
    },
    {
      "midi": 48,
      "hit": false,
      "t": 363409.1272500007,
      "d": 681.8182500000112,
      "v": 95
    },
    {
      "midi": 43,
      "hit": false,
      "t": 363409.1272500007,
      "d": 681.8182500000112,
      "v": 95
    },
    {
      "midi": 58,
      "hit": false,
      "t": 364090.9455,
      "d": 2727.2729999999865,
      "v": 95
    },
    {
      "midi": 62,
      "hit": false,
      "t": 364090.9455,
      "d": 2727.2729999999865,
      "v": 95
    },
    {
      "midi": 53,
      "hit": false,
      "t": 364090.94550000073,
      "d": 2727.2729999999865,
      "v": 95
    },
    {
      "midi": 50,
      "hit": false,
      "t": 364090.94550000073,
      "d": 2727.2729999999865,
      "v": 95
    },
    {
      "midi": 58,
      "hit": false,
      "t": 364090.94550000073,
      "d": 2727.2729999999865,
      "v": 111
    },
    {
      "midi": 62,
      "hit": false,
      "t": 364090.94550000073,
      "d": 2727.2729999999865,
      "v": 111
    },
    {
      "midi": 43,
      "hit": false,
      "t": 364090.94550000073,
      "d": 2727.2729999999865,
      "v": 95
    },
    {
      "midi": 65,
      "hit": false,
      "t": 366136.4002500007,
      "d": 681.8182500000112,
      "v": 95
    },
    {
      "midi": 43,
      "hit": false,
      "t": 366818.2185000004,
      "d": 1363.6365000000224,
      "v": 95
    },
    {
      "midi": 62,
      "hit": false,
      "t": 366818.2185000007,
      "d": 681.8182500000112,
      "v": 95
    },
    {
      "midi": 43,
      "hit": false,
      "t": 366818.2185000007,
      "d": 2727.2730000000447,
      "v": 95
    },
    {
      "midi": 60,
      "hit": false,
      "t": 368181.855,
      "d": 1363.6365000000224,
      "v": 95
    },
    {
      "midi": 58,
      "hit": false,
      "t": 368181.85500000016,
      "d": 681.8182500000112,
      "v": 127
    },
    {
      "midi": 41,
      "hit": false,
      "t": 368181.85500000045,
      "d": 1363.6365000000224,
      "v": 95
    },
    {
      "midi": 58,
      "hit": false,
      "t": 368181.85500000074,
      "d": 1363.6365000000224,
      "v": 95
    },
    {
      "midi": 62,
      "hit": false,
      "t": 368181.85500000074,
      "d": 1363.6365000000224,
      "v": 111
    },
    {
      "midi": 55,
      "hit": false,
      "t": 368181.85500000074,
      "d": 1363.6365000000224,
      "v": 95
    },
    {
      "midi": 50,
      "hit": false,
      "t": 368181.85500000074,
      "d": 1363.6365000000224,
      "v": 95
    },
    {
      "midi": 65,
      "hit": false,
      "t": 368181.85500000074,
      "d": 1363.6365000000224,
      "v": 111
    },
    {
      "midi": 62,
      "hit": false,
      "t": 368863.67325,
      "d": 1363.6365000000224,
      "v": 95
    },
    {
      "midi": 60,
      "hit": false,
      "t": 368863.67325000017,
      "d": 681.8182500000112,
      "v": 127
    },
    {
      "midi": 58,
      "hit": false,
      "t": 369545.4915,
      "d": 1363.6365000000224,
      "v": 95
    },
    {
      "midi": 62,
      "hit": false,
      "t": 369545.4915000002,
      "d": 1363.6365000000224,
      "v": 127
    },
    {
      "midi": 38,
      "hit": false,
      "t": 369545.49150000047,
      "d": 1363.6365000000224,
      "v": 95
    },
    {
      "midi": 41,
      "hit": false,
      "t": 369545.49150000076,
      "d": 681.8182500000112,
      "v": 95
    },
    {
      "midi": 50,
      "hit": false,
      "t": 369545.49150000076,
      "d": 681.8182500000112,
      "v": 95
    },
    {
      "midi": 55,
      "hit": false,
      "t": 370227.30975,
      "d": 681.8182500000112,
      "v": 95
    },
    {
      "midi": 39,
      "hit": false,
      "t": 370227.3097500008,
      "d": 681.8182500000112,
      "v": 95
    },
    {
      "midi": 46,
      "hit": false,
      "t": 370227.3097500008,
      "d": 681.8182500000112,
      "v": 95
    },
    {
      "midi": 58,
      "hit": false,
      "t": 370909.128,
      "d": 4090.909500000009,
      "v": 95
    },
    {
      "midi": 63,
      "hit": false,
      "t": 370909.128,
      "d": 4090.909500000009,
      "v": 95
    },
    {
      "midi": 58,
      "hit": false,
      "t": 370909.1280000002,
      "d": 681.8182500000112,
      "v": 127
    },
    {
      "midi": 39,
      "hit": false,
      "t": 370909.1280000005,
      "d": 2045.4547499999753,
      "v": 95
    },
    {
      "midi": 63,
      "hit": false,
      "t": 370909.1280000008,
      "d": 2045.4547499999753,
      "v": 111
    },
    {
      "midi": 53,
      "hit": false,
      "t": 370909.1280000008,
      "d": 2045.4547499999753,
      "v": 100
    },
    {
      "midi": 58,
      "hit": false,
      "t": 370909.1280000008,
      "d": 2045.4547499999753,
      "v": 111
    },
    {
      "midi": 51,
      "hit": false,
      "t": 370909.1280000008,
      "d": 2045.4547499999753,
      "v": 100
    },
    {
      "midi": 60,
      "hit": false,
      "t": 371590.9462500002,
      "d": 681.8182500000112,
      "v": 127
    },
    {
      "midi": 62,
      "hit": false,
      "t": 372272.7645000002,
      "d": 1363.6365000000224,
      "v": 127
    },
    {
      "midi": 39,
      "hit": false,
      "t": 372954.58275000047,
      "d": 1363.6365000000224,
      "v": 95
    },
    {
      "midi": 63,
      "hit": false,
      "t": 372954.58275000076,
      "d": 681.8182500000112,
      "v": 111
    },
    {
      "midi": 60,
      "hit": false,
      "t": 372954.58275000076,
      "d": 681.8182500000112,
      "v": 111
    },
    {
      "midi": 58,
      "hit": false,
      "t": 372954.58275000076,
      "d": 681.8182500000112,
      "v": 95
    },
    {
      "midi": 53,
      "hit": false,
      "t": 372954.58275000076,
      "d": 681.8182500000112,
      "v": 100
    },
    {
      "midi": 58,
      "hit": false,
      "t": 373636.40100000025,
      "d": 681.8182500000112,
      "v": 127
    },
    {
      "midi": 60,
      "hit": false,
      "t": 373636.40100000077,
      "d": 681.8182500000112,
      "v": 111
    },
    {
      "midi": 63,
      "hit": false,
      "t": 373636.40100000077,
      "d": 681.8182500000112,
      "v": 111
    },
    {
      "midi": 58,
      "hit": false,
      "t": 373636.40100000077,
      "d": 681.8182500000112,
      "v": 100
    },
    {
      "midi": 53,
      "hit": false,
      "t": 373636.40100000077,
      "d": 681.8182500000112,
      "v": 100
    },
    {
      "midi": 60,
      "hit": false,
      "t": 374318.21925000026,
      "d": 681.8182500000112,
      "v": 127
    },
    {
      "midi": 50,
      "hit": false,
      "t": 374318.2192500008,
      "d": 681.8182500000112,
      "v": 100
    },
    {
      "midi": 53,
      "hit": false,
      "t": 374318.2192500008,
      "d": 681.8182500000112,
      "v": 100
    },
    {
      "midi": 57,
      "hit": false,
      "t": 374318.2192500008,
      "d": 681.8182500000112,
      "v": 111
    },
    {
      "midi": 60,
      "hit": false,
      "t": 374318.2192500008,
      "d": 681.8182500000112,
      "v": 111
    },
    {
      "midi": 62,
      "hit": false,
      "t": 375000.03750000003,
      "d": 4090.909500000009,
      "v": 95
    },
    {
      "midi": 58,
      "hit": false,
      "t": 375000.03750000003,
      "d": 4090.909500000009,
      "v": 95
    },
    {
      "midi": 62,
      "hit": false,
      "t": 375000.03750000027,
      "d": 1363.6365000000224,
      "v": 127
    },
    {
      "midi": 34,
      "hit": false,
      "t": 375000.0375000005,
      "d": 6818.182499999995,
      "v": 95
    },
    {
      "midi": 50,
      "hit": false,
      "t": 375000.0375000008,
      "d": 2727.2729999999865,
      "v": 100
    },
    {
      "midi": 53,
      "hit": false,
      "t": 375000.0375000008,
      "d": 2727.2729999999865,
      "v": 100
    },
    {
      "midi": 58,
      "hit": false,
      "t": 375000.0375000008,
      "d": 2727.2729999999865,
      "v": 111
    },
    {
      "midi": 58,
      "hit": false,
      "t": 376363.6740000003,
      "d": 681.8182500000112,
      "v": 127
    },
    {
      "midi": 60,
      "hit": false,
      "t": 377045.4922500003,
      "d": 681.8182500000112,
      "v": 127
    },
    {
      "midi": 65,
      "hit": false,
      "t": 377045.49225000077,
      "d": 681.8182500000112,
      "v": 95
    },
    {
      "midi": 62,
      "hit": false,
      "t": 377045.49225000077,
      "d": 681.8182500000112,
      "v": 95
    },
    {
      "midi": 62,
      "hit": false,
      "t": 377727.3105000003,
      "d": 2045.4547499999753,
      "v": 127
    },
    {
      "midi": 62,
      "hit": false,
      "t": 377727.3105000008,
      "d": 681.8182500000112,
      "v": 95
    },
    {
      "midi": 43,
      "hit": false,
      "t": 377727.3105000008,
      "d": 2727.2730000000447,
      "v": 95
    },
    {
      "midi": 58,
      "hit": false,
      "t": 379090.94700000004,
      "d": 1363.6365000000224,
      "v": 95
    },
    {
      "midi": 65,
      "hit": false,
      "t": 379090.9470000008,
      "d": 1363.6365000000224,
      "v": 111
    },
    {
      "midi": 62,
      "hit": false,
      "t": 379090.9470000008,
      "d": 1363.6365000000224,
      "v": 95
    },
    {
      "midi": 58,
      "hit": false,
      "t": 379090.9470000008,
      "d": 1363.6365000000224,
      "v": 95
    },
    {
      "midi": 53,
      "hit": false,
      "t": 379090.9470000008,
      "d": 1363.6365000000224,
      "v": 95
    },
    {
      "midi": 60,
      "hit": false,
      "t": 379772.76525000005,
      "d": 1363.6365000000224,
      "v": 95
    },
    {
      "midi": 62,
      "hit": false,
      "t": 380454.58350000007,
      "d": 1363.6365000000224,
      "v": 95
    },
    {
      "midi": 58,
      "hit": false,
      "t": 380454.5835000003,
      "d": 681.8182500000112,
      "v": 127
    },
    {
      "midi": 58,
      "hit": false,
      "t": 380454.5835000008,
      "d": 681.8182500000112,
      "v": 95
    },
    {
      "midi": 60,
      "hit": false,
      "t": 380454.5835000008,
      "d": 681.8182500000112,
      "v": 111
    },
    {
      "midi": 50,
      "hit": false,
      "t": 380454.5835000008,
      "d": 681.8182500000112,
      "v": 111
    },
    {
      "midi": 58,
      "hit": false,
      "t": 381136.4017500001,
      "d": 681.8182500000112,
      "v": 95
    },
    {
      "midi": 60,
      "hit": false,
      "t": 381136.4017500003,
      "d": 1363.6365000000224,
      "v": 127
    },
    {
      "midi": 53,
      "hit": false,
      "t": 381136.40175000083,
      "d": 681.8182500000112,
      "v": 95
    },
    {
      "midi": 57,
      "hit": false,
      "t": 381136.40175000083,
      "d": 681.8182500000112,
      "v": 111
    },
    {
      "midi": 50,
      "hit": false,
      "t": 381136.40175000083,
      "d": 681.8182500000112,
      "v": 95
    },
    {
      "midi": 65,
      "hit": false,
      "t": 381818.2200000001,
      "d": 4090.909500000009,
      "v": 79
    },
    {
      "midi": 60,
      "hit": false,
      "t": 381818.2200000001,
      "d": 4090.909500000009,
      "v": 95
    },
    {
      "midi": 29,
      "hit": false,
      "t": 381818.2200000005,
      "d": 2045.4547499999753,
      "v": 95
    },
    {
      "midi": 48,
      "hit": false,
      "t": 381818.22000000085,
      "d": 2045.4547499999753,
      "v": 100
    },
    {
      "midi": 53,
      "hit": false,
      "t": 381818.22000000085,
      "d": 2045.4547499999753,
      "v": 100
    },
    {
      "midi": 57,
      "hit": false,
      "t": 381818.22000000085,
      "d": 2045.4547499999753,
      "v": 111
    },
    {
      "midi": 60,
      "hit": false,
      "t": 381818.22000000085,
      "d": 2045.4547499999753,
      "v": 111
    },
    {
      "midi": 58,
      "hit": false,
      "t": 382500.03825000033,
      "d": 681.8182500000112,
      "v": 127
    },
    {
      "midi": 60,
      "hit": false,
      "t": 383181.85650000034,
      "d": 1659.091075000004,
      "v": 127
    },
    {
      "midi": 29,
      "hit": false,
      "t": 383863.6747500005,
      "d": 681.8182500000112,
      "v": 95
    },
    {
      "midi": 48,
      "hit": false,
      "t": 383863.6747500008,
      "d": 681.8182500000112,
      "v": 95
    },
    {
      "midi": 53,
      "hit": false,
      "t": 383863.6747500008,
      "d": 681.8182500000112,
      "v": 95
    },
    {
      "midi": 58,
      "hit": false,
      "t": 383863.6747500008,
      "d": 681.8182500000112,
      "v": 95
    },
    {
      "midi": 60,
      "hit": false,
      "t": 383863.6747500008,
      "d": 681.8182500000112,
      "v": 111
    },
    {
      "midi": 65,
      "hit": false,
      "t": 384545.49300000037,
      "d": 1363.6364999999641,
      "v": 127
    },
    {
      "midi": 29,
      "hit": false,
      "t": 384545.4930000005,
      "d": 681.8182500000112,
      "v": 95
    },
    {
      "midi": 60,
      "hit": false,
      "t": 384545.49300000083,
      "d": 681.8182500000112,
      "v": 111
    },
    {
      "midi": 48,
      "hit": false,
      "t": 384545.49300000083,
      "d": 681.8182500000112,
      "v": 95
    },
    {
      "midi": 53,
      "hit": false,
      "t": 384545.49300000083,
      "d": 681.8182500000112,
      "v": 95
    },
    {
      "midi": 57,
      "hit": false,
      "t": 384545.49300000083,
      "d": 681.8182500000112,
      "v": 111
    },
    {
      "midi": 58,
      "hit": false,
      "t": 384545.49300000083,
      "d": 681.8182500000112,
      "v": 95
    },
    {
      "midi": 60,
      "hit": false,
      "t": 385227.31125000084,
      "d": 681.8182500000112,
      "v": 111
    },
    {
      "midi": 58,
      "hit": false,
      "t": 385227.31125000084,
      "d": 681.8182500000112,
      "v": 95
    },
    {
      "midi": 53,
      "hit": false,
      "t": 385227.31125000084,
      "d": 681.8182500000112,
      "v": 95
    },
    {
      "midi": 48,
      "hit": false,
      "t": 385227.31125000084,
      "d": 681.8182500000112,
      "v": 95
    },
    {
      "midi": 43,
      "hit": false,
      "t": 385227.31125000084,
      "d": 681.8182500000112,
      "v": 95
    },
    {
      "midi": 67,
      "hit": false,
      "t": 385909.1295000001,
      "d": 4090.909500000009,
      "v": 79
    },
    {
      "midi": 62,
      "hit": false,
      "t": 385909.1295000001,
      "d": 4090.909500000009,
      "v": 95
    },
    {
      "midi": 65,
      "hit": false,
      "t": 385909.12950000033,
      "d": 2727.2729999999865,
      "v": 127
    },
    {
      "midi": 31,
      "hit": false,
      "t": 385909.1295000005,
      "d": 2727.2729999999865,
      "v": 95
    },
    {
      "midi": 53,
      "hit": false,
      "t": 385909.12950000085,
      "d": 2727.2729999999865,
      "v": 95
    },
    {
      "midi": 50,
      "hit": false,
      "t": 385909.12950000085,
      "d": 2727.2729999999865,
      "v": 95
    },
    {
      "midi": 58,
      "hit": false,
      "t": 385909.12950000085,
      "d": 2727.2729999999865,
      "v": 111
    },
    {
      "midi": 62,
      "hit": false,
      "t": 385909.12950000085,
      "d": 2727.2729999999865,
      "v": 111
    },
    {
      "midi": 43,
      "hit": false,
      "t": 385909.12950000085,
      "d": 2727.2729999999865,
      "v": 95
    },
    {
      "midi": 65,
      "hit": false,
      "t": 387954.58425000083,
      "d": 681.8182500000112,
      "v": 95
    },
    {
      "midi": 43,
      "hit": false,
      "t": 388636.4025000005,
      "d": 1363.6365000000224,
      "v": 95
    },
    {
      "midi": 62,
      "hit": false,
      "t": 388636.40250000084,
      "d": 681.8182500000112,
      "v": 95
    },
    {
      "midi": 43,
      "hit": false,
      "t": 388636.40250000084,
      "d": 2727.2730000000447,
      "v": 95
    },
    {
      "midi": 62,
      "hit": false,
      "t": 389318.2207500003,
      "d": 1363.6365000000224,
      "v": 127
    },
    {
      "midi": 58,
      "hit": false,
      "t": 390000.0390000001,
      "d": 1363.6365000000224,
      "v": 95
    },
    {
      "midi": 41,
      "hit": false,
      "t": 390000.0390000005,
      "d": 1363.6365000000224,
      "v": 95
    },
    {
      "midi": 58,
      "hit": false,
      "t": 390000.03900000086,
      "d": 1363.6365000000224,
      "v": 95
    },
    {
      "midi": 62,
      "hit": false,
      "t": 390000.03900000086,
      "d": 1363.6365000000224,
      "v": 111
    },
    {
      "midi": 55,
      "hit": false,
      "t": 390000.03900000086,
      "d": 1363.6365000000224,
      "v": 95
    },
    {
      "midi": 50,
      "hit": false,
      "t": 390000.03900000086,
      "d": 1363.6365000000224,
      "v": 95
    },
    {
      "midi": 65,
      "hit": false,
      "t": 390000.03900000086,
      "d": 1363.6365000000224,
      "v": 111
    },
    {
      "midi": 60,
      "hit": false,
      "t": 390681.8572500001,
      "d": 1363.6365000000224,
      "v": 95
    },
    {
      "midi": 63,
      "hit": false,
      "t": 390681.85725000035,
      "d": 1363.6365000000224,
      "v": 127
    },
    {
      "midi": 62,
      "hit": false,
      "t": 391363.6755000001,
      "d": 1363.6365000000224,
      "v": 95
    },
    {
      "midi": 38,
      "hit": false,
      "t": 391363.67550000054,
      "d": 1363.6365000000224,
      "v": 95
    },
    {
      "midi": 41,
      "hit": false,
      "t": 391363.6755000009,
      "d": 681.8182500000112,
      "v": 95
    },
    {
      "midi": 50,
      "hit": false,
      "t": 391363.6755000009,
      "d": 681.8182500000112,
      "v": 95
    },
    {
      "midi": 60,
      "hit": false,
      "t": 392045.49375000014,
      "d": 681.8182500000112,
      "v": 95
    },
    {
      "midi": 65,
      "hit": false,
      "t": 392045.4937500004,
      "d": 1363.6365000000224,
      "v": 127
    },
    {
      "midi": 39,
      "hit": false,
      "t": 392045.4937500009,
      "d": 681.8182500000112,
      "v": 95
    },
    {
      "midi": 46,
      "hit": false,
      "t": 392045.4937500009,
      "d": 681.8182500000112,
      "v": 95
    },
    {
      "midi": 65,
      "hit": false,
      "t": 392727.31200000015,
      "d": 4090.909500000009,
      "v": 95
    },
    {
      "midi": 62,
      "hit": false,
      "t": 392727.31200000015,
      "d": 4090.909500000009,
      "v": 95
    },
    {
      "midi": 39,
      "hit": false,
      "t": 392727.31200000056,
      "d": 1363.6365000000224,
      "v": 95
    },
    {
      "midi": 63,
      "hit": false,
      "t": 392727.3120000009,
      "d": 2045.4547499999753,
      "v": 111
    },
    {
      "midi": 53,
      "hit": false,
      "t": 392727.3120000009,
      "d": 2045.4547499999753,
      "v": 100
    },
    {
      "midi": 58,
      "hit": false,
      "t": 392727.3120000009,
      "d": 2045.4547499999753,
      "v": 111
    },
    {
      "midi": 51,
      "hit": false,
      "t": 392727.3120000009,
      "d": 2045.4547499999753,
      "v": 100
    },
    {
      "midi": 58,
      "hit": false,
      "t": 393409.1302500004,
      "d": 681.8182500000112,
      "v": 127
    },
    {
      "midi": 58,
      "hit": false,
      "t": 394090.9485000004,
      "d": 2045.4547499999753,
      "v": 127
    },
    {
      "midi": 38,
      "hit": false,
      "t": 394090.9485000006,
      "d": 1363.6365000000224,
      "v": 95
    },
    {
      "midi": 63,
      "hit": false,
      "t": 394772.7667500009,
      "d": 681.8182500000112,
      "v": 111
    },
    {
      "midi": 60,
      "hit": false,
      "t": 394772.7667500009,
      "d": 681.8182500000112,
      "v": 111
    },
    {
      "midi": 58,
      "hit": false,
      "t": 394772.7667500009,
      "d": 681.8182500000112,
      "v": 95
    },
    {
      "midi": 53,
      "hit": false,
      "t": 394772.7667500009,
      "d": 681.8182500000112,
      "v": 100
    },
    {
      "midi": 36,
      "hit": false,
      "t": 395454.5850000006,
      "d": 1363.6365000000224,
      "v": 95
    },
    {
      "midi": 60,
      "hit": false,
      "t": 395454.5850000009,
      "d": 681.8182500000112,
      "v": 111
    },
    {
      "midi": 63,
      "hit": false,
      "t": 395454.5850000009,
      "d": 681.8182500000112,
      "v": 111
    },
    {
      "midi": 58,
      "hit": false,
      "t": 395454.5850000009,
      "d": 681.8182500000112,
      "v": 100
    },
    {
      "midi": 53,
      "hit": false,
      "t": 395454.5850000009,
      "d": 681.8182500000112,
      "v": 100
    },
    {
      "midi": 62,
      "hit": false,
      "t": 396136.4032500004,
      "d": 681.8182500000112,
      "v": 127
    },
    {
      "midi": 50,
      "hit": false,
      "t": 396136.4032500009,
      "d": 681.8182500000112,
      "v": 100
    },
    {
      "midi": 53,
      "hit": false,
      "t": 396136.4032500009,
      "d": 681.8182500000112,
      "v": 100
    },
    {
      "midi": 57,
      "hit": false,
      "t": 396136.4032500009,
      "d": 681.8182500000112,
      "v": 111
    },
    {
      "midi": 60,
      "hit": false,
      "t": 396136.4032500009,
      "d": 681.8182500000112,
      "v": 111
    },
    {
      "midi": 62,
      "hit": false,
      "t": 396818.22150000016,
      "d": 4090.909500000009,
      "v": 95
    },
    {
      "midi": 58,
      "hit": false,
      "t": 396818.22150000016,
      "d": 4090.909500000009,
      "v": 95
    },
    {
      "midi": 63,
      "hit": false,
      "t": 396818.2215000004,
      "d": 681.8182500000112,
      "v": 127
    },
    {
      "midi": 34,
      "hit": false,
      "t": 396818.2215000006,
      "d": 6818.182499999995,
      "v": 95
    },
    {
      "midi": 50,
      "hit": false,
      "t": 396818.2215000009,
      "d": 2727.2729999999865,
      "v": 100
    },
    {
      "midi": 53,
      "hit": false,
      "t": 396818.2215000009,
      "d": 2727.2729999999865,
      "v": 100
    },
    {
      "midi": 58,
      "hit": false,
      "t": 396818.2215000009,
      "d": 2727.2729999999865,
      "v": 111
    },
    {
      "midi": 65,
      "hit": false,
      "t": 397500.0397500004,
      "d": 1363.6365000000224,
      "v": 127
    },
    {
      "midi": 58,
      "hit": false,
      "t": 398863.6762500004,
      "d": 681.8182500000112,
      "v": 127
    },
    {
      "midi": 65,
      "hit": false,
      "t": 398863.6762500009,
      "d": 681.8182500000112,
      "v": 95
    },
    {
      "midi": 62,
      "hit": false,
      "t": 398863.6762500009,
      "d": 681.8182500000112,
      "v": 95
    },
    {
      "midi": 58,
      "hit": false,
      "t": 399545.49450000044,
      "d": 2045.4547499999753,
      "v": 127
    },
    {
      "midi": 62,
      "hit": false,
      "t": 399545.4945000009,
      "d": 681.8182500000112,
      "v": 95
    },
    {
      "midi": 43,
      "hit": false,
      "t": 399545.4945000009,
      "d": 2727.2730000000447,
      "v": 95
    },
    {
      "midi": 60,
      "hit": false,
      "t": 400909.13100000017,
      "d": 1363.6365000000224,
      "v": 95
    },
    {
      "midi": 65,
      "hit": false,
      "t": 400909.1310000009,
      "d": 1363.6365000000224,
      "v": 111
    },
    {
      "midi": 62,
      "hit": false,
      "t": 400909.1310000009,
      "d": 1363.6365000000224,
      "v": 95
    },
    {
      "midi": 58,
      "hit": false,
      "t": 400909.1310000009,
      "d": 1363.6365000000224,
      "v": 95
    },
    {
      "midi": 53,
      "hit": false,
      "t": 400909.1310000009,
      "d": 1363.6365000000224,
      "v": 95
    },
    {
      "midi": 62,
      "hit": false,
      "t": 401590.9492500002,
      "d": 1363.6365000000224,
      "v": 95
    },
    {
      "midi": 58,
      "hit": false,
      "t": 402272.7675000002,
      "d": 1363.6365000000224,
      "v": 95
    },
    {
      "midi": 58,
      "hit": false,
      "t": 402272.7675000004,
      "d": 681.8182500000112,
      "v": 127
    },
    {
      "midi": 58,
      "hit": false,
      "t": 402272.76750000095,
      "d": 681.8182500000112,
      "v": 95
    },
    {
      "midi": 60,
      "hit": false,
      "t": 402272.76750000095,
      "d": 681.8182500000112,
      "v": 111
    },
    {
      "midi": 50,
      "hit": false,
      "t": 402272.76750000095,
      "d": 681.8182500000112,
      "v": 111
    },
    {
      "midi": 55,
      "hit": false,
      "t": 402954.5857500002,
      "d": 681.8182500000112,
      "v": 95
    },
    {
      "midi": 60,
      "hit": false,
      "t": 402954.58575000043,
      "d": 1363.6365000000224,
      "v": 127
    },
    {
      "midi": 53,
      "hit": false,
      "t": 402954.58575000096,
      "d": 681.8182500000112,
      "v": 95
    },
    {
      "midi": 57,
      "hit": false,
      "t": 402954.58575000096,
      "d": 681.8182500000112,
      "v": 111
    },
    {
      "midi": 50,
      "hit": false,
      "t": 402954.58575000096,
      "d": 681.8182500000112,
      "v": 95
    },
    {
      "midi": 60,
      "hit": false,
      "t": 403636.4040000002,
      "d": 2045.4547499999753,
      "v": 95
    },
    {
      "midi": 57,
      "hit": false,
      "t": 403636.4040000002,
      "d": 2045.4547499999753,
      "v": 95
    },
    {
      "midi": 29,
      "hit": false,
      "t": 403636.4040000006,
      "d": 2045.4547499999753,
      "v": 95
    },
    {
      "midi": 48,
      "hit": false,
      "t": 403636.40400000097,
      "d": 2045.4547499999753,
      "v": 100
    },
    {
      "midi": 53,
      "hit": false,
      "t": 403636.40400000097,
      "d": 2045.4547499999753,
      "v": 100
    },
    {
      "midi": 57,
      "hit": false,
      "t": 403636.40400000097,
      "d": 2045.4547499999753,
      "v": 111
    },
    {
      "midi": 60,
      "hit": false,
      "t": 403636.40400000097,
      "d": 2045.4547499999753,
      "v": 111
    },
    {
      "midi": 58,
      "hit": false,
      "t": 404318.22225000046,
      "d": 681.8182500000112,
      "v": 127
    },
    {
      "midi": 60,
      "hit": false,
      "t": 405000.04050000047,
      "d": 1363.6365000000224,
      "v": 127
    },
    {
      "midi": 65,
      "hit": false,
      "t": 405681.8587500002,
      "d": 2045.4547499999753,
      "v": 95
    },
    {
      "midi": 62,
      "hit": false,
      "t": 405681.8587500002,
      "d": 2045.4547499999753,
      "v": 95
    },
    {
      "midi": 29,
      "hit": false,
      "t": 405681.8587500006,
      "d": 681.8182500000112,
      "v": 95
    },
    {
      "midi": 48,
      "hit": false,
      "t": 405681.85875000095,
      "d": 681.8182500000112,
      "v": 95
    },
    {
      "midi": 53,
      "hit": false,
      "t": 405681.85875000095,
      "d": 681.8182500000112,
      "v": 95
    },
    {
      "midi": 58,
      "hit": false,
      "t": 405681.85875000095,
      "d": 681.8182500000112,
      "v": 95
    },
    {
      "midi": 60,
      "hit": false,
      "t": 405681.85875000095,
      "d": 681.8182500000112,
      "v": 111
    },
    {
      "midi": 58,
      "hit": false,
      "t": 406363.6770000005,
      "d": 681.8182500000112,
      "v": 127
    },
    {
      "midi": 29,
      "hit": false,
      "t": 406363.6770000006,
      "d": 681.8182500000112,
      "v": 95
    },
    {
      "midi": 60,
      "hit": false,
      "t": 406363.67700000096,
      "d": 681.8182500000112,
      "v": 111
    },
    {
      "midi": 48,
      "hit": false,
      "t": 406363.67700000096,
      "d": 681.8182500000112,
      "v": 95
    },
    {
      "midi": 53,
      "hit": false,
      "t": 406363.67700000096,
      "d": 681.8182500000112,
      "v": 95
    },
    {
      "midi": 57,
      "hit": false,
      "t": 406363.67700000096,
      "d": 681.8182500000112,
      "v": 111
    },
    {
      "midi": 58,
      "hit": false,
      "t": 406363.67700000096,
      "d": 681.8182500000112,
      "v": 95
    },
    {
      "midi": 58,
      "hit": false,
      "t": 407045.4952500005,
      "d": 2727.2729999999865,
      "v": 127
    },
    {
      "midi": 60,
      "hit": false,
      "t": 407045.49525000097,
      "d": 681.8182500000112,
      "v": 111
    },
    {
      "midi": 58,
      "hit": false,
      "t": 407045.49525000097,
      "d": 681.8182500000112,
      "v": 95
    },
    {
      "midi": 53,
      "hit": false,
      "t": 407045.49525000097,
      "d": 681.8182500000112,
      "v": 95
    },
    {
      "midi": 48,
      "hit": false,
      "t": 407045.49525000097,
      "d": 681.8182500000112,
      "v": 95
    },
    {
      "midi": 43,
      "hit": false,
      "t": 407045.49525000097,
      "d": 681.8182500000112,
      "v": 95
    },
    {
      "midi": 62,
      "hit": false,
      "t": 407727.31350000016,
      "d": 2727.2729999999865,
      "v": 95
    },
    {
      "midi": 58,
      "hit": false,
      "t": 407727.31350000016,
      "d": 2727.2729999999865,
      "v": 95
    },
    {
      "midi": 31,
      "hit": false,
      "t": 407727.31350000063,
      "d": 2727.2729999999865,
      "v": 95
    },
    {
      "midi": 53,
      "hit": false,
      "t": 407727.313500001,
      "d": 2727.2729999999865,
      "v": 95
    },
    {
      "midi": 50,
      "hit": false,
      "t": 407727.313500001,
      "d": 2727.2729999999865,
      "v": 95
    },
    {
      "midi": 58,
      "hit": false,
      "t": 407727.313500001,
      "d": 2727.2729999999865,
      "v": 111
    },
    {
      "midi": 62,
      "hit": false,
      "t": 407727.313500001,
      "d": 2727.2729999999865,
      "v": 111
    },
    {
      "midi": 43,
      "hit": false,
      "t": 407727.313500001,
      "d": 2727.2729999999865,
      "v": 95
    },
    {
      "midi": 65,
      "hit": false,
      "t": 409772.76825000095,
      "d": 681.8182500000112,
      "v": 95
    },
    {
      "midi": 62,
      "hit": false,
      "t": 410454.58650000097,
      "d": 681.8182500000112,
      "v": 95
    },
    {
      "midi": 43,
      "hit": false,
      "t": 410454.58650000097,
      "d": 2727.2730000000447,
      "v": 95
    },
    {
      "midi": 60,
      "hit": false,
      "t": 411818.2230000002,
      "d": 1363.6365000000224,
      "v": 95
    },
    {
      "midi": 44,
      "hit": false,
      "t": 411818.22300000064,
      "d": 2727.2729999999865,
      "v": 95
    },
    {
      "midi": 58,
      "hit": false,
      "t": 411818.223000001,
      "d": 1363.6365000000224,
      "v": 95
    },
    {
      "midi": 62,
      "hit": false,
      "t": 411818.223000001,
      "d": 1363.6365000000224,
      "v": 111
    },
    {
      "midi": 55,
      "hit": false,
      "t": 411818.223000001,
      "d": 1363.6365000000224,
      "v": 95
    },
    {
      "midi": 50,
      "hit": false,
      "t": 411818.223000001,
      "d": 1363.6365000000224,
      "v": 95
    },
    {
      "midi": 65,
      "hit": false,
      "t": 411818.223000001,
      "d": 1363.6365000000224,
      "v": 111
    },
    {
      "midi": 62,
      "hit": false,
      "t": 412500.0412500002,
      "d": 1363.6365000000224,
      "v": 95
    },
    {
      "midi": 58,
      "hit": false,
      "t": 413181.8595000002,
      "d": 1363.6365000000224,
      "v": 95
    },
    {
      "midi": 41,
      "hit": false,
      "t": 413181.859500001,
      "d": 681.8182500000112,
      "v": 95
    },
    {
      "midi": 50,
      "hit": false,
      "t": 413181.859500001,
      "d": 681.8182500000112,
      "v": 95
    },
    {
      "midi": 55,
      "hit": false,
      "t": 413863.6777500002,
      "d": 681.8182500000112,
      "v": 95
    },
    {
      "midi": 64,
      "hit": false,
      "t": 413863.6777500005,
      "d": 4090.909500000009,
      "v": 127
    },
    {
      "midi": 39,
      "hit": false,
      "t": 413863.677750001,
      "d": 681.8182500000112,
      "v": 95
    },
    {
      "midi": 46,
      "hit": false,
      "t": 413863.677750001,
      "d": 681.8182500000112,
      "v": 95
    },
    {
      "midi": 64,
      "hit": false,
      "t": 414545.49599999987,
      "d": 4090.909500000009,
      "v": 100
    },
    {
      "midi": 60,
      "hit": false,
      "t": 414545.49599999987,
      "d": 4090.909500000009,
      "v": 79
    },
    {
      "midi": 52,
      "hit": false,
      "t": 414545.49599999987,
      "d": 4090.909500000009,
      "v": 47
    },
    {
      "midi": 64,
      "hit": false,
      "t": 414545.4960000002,
      "d": 4090.909500000009,
      "v": 63
    },
    {
      "midi": 60,
      "hit": false,
      "t": 414545.4960000002,
      "d": 4090.909500000009,
      "v": 95
    },
    {
      "midi": 36,
      "hit": false,
      "t": 414545.4960000006,
      "d": 2045.4547499999753,
      "v": 95
    },
    {
      "midi": 52,
      "hit": false,
      "t": 414545.49600000103,
      "d": 2045.4547499999753,
      "v": 90
    },
    {
      "midi": 60,
      "hit": false,
      "t": 414545.49600000103,
      "d": 2045.4547499999753,
      "v": 101
    },
    {
      "midi": 64,
      "hit": false,
      "t": 414545.49600000103,
      "d": 2045.4547499999753,
      "v": 101
    },
    {
      "midi": 67,
      "hit": false,
      "t": 414545.49600000103,
      "d": 2045.4547499999753,
      "v": 111
    },
    {
      "midi": 36,
      "hit": false,
      "t": 416590.9507500006,
      "d": 681.8182500000112,
      "v": 95
    },
    {
      "midi": 67,
      "hit": false,
      "t": 416590.950750001,
      "d": 681.8182500000112,
      "v": 111
    },
    {
      "midi": 64,
      "hit": false,
      "t": 416590.950750001,
      "d": 681.8182500000112,
      "v": 101
    },
    {
      "midi": 60,
      "hit": false,
      "t": 416590.950750001,
      "d": 681.8182500000112,
      "v": 101
    },
    {
      "midi": 52,
      "hit": false,
      "t": 416590.950750001,
      "d": 681.8182500000112,
      "v": 90
    },
    {
      "midi": 36,
      "hit": false,
      "t": 417272.7690000006,
      "d": 681.8182500000112,
      "v": 95
    },
    {
      "midi": 52,
      "hit": false,
      "t": 417272.769000001,
      "d": 681.8182500000112,
      "v": 90
    },
    {
      "midi": 60,
      "hit": false,
      "t": 417272.769000001,
      "d": 681.8182500000112,
      "v": 101
    },
    {
      "midi": 64,
      "hit": false,
      "t": 417272.769000001,
      "d": 681.8182500000112,
      "v": 101
    },
    {
      "midi": 67,
      "hit": false,
      "t": 417272.769000001,
      "d": 681.8182500000112,
      "v": 111
    },
    {
      "midi": 62,
      "hit": false,
      "t": 417954.5872500005,
      "d": 681.8182500000112,
      "v": 127
    },
    {
      "midi": 50,
      "hit": false,
      "t": 417954.58725000103,
      "d": 681.8182500000112,
      "v": 90
    },
    {
      "midi": 55,
      "hit": false,
      "t": 417954.58725000103,
      "d": 681.8182500000112,
      "v": 101
    },
    {
      "midi": 59,
      "hit": false,
      "t": 417954.58725000103,
      "d": 681.8182500000112,
      "v": 101
    },
    {
      "midi": 62,
      "hit": false,
      "t": 417954.58725000103,
      "d": 681.8182500000112,
      "v": 111
    },
    {
      "midi": 59,
      "hit": false,
      "t": 418636.4054999999,
      "d": 6818.182499999995,
      "v": 79
    },
    {
      "midi": 50,
      "hit": false,
      "t": 418636.4054999999,
      "d": 6818.182499999995,
      "v": 47
    },
    {
      "midi": 62,
      "hit": false,
      "t": 418636.4054999999,
      "d": 6818.182499999995,
      "v": 100
    },
    {
      "midi": 59,
      "hit": false,
      "t": 418636.4055000002,
      "d": 4090.909500000009,
      "v": 95
    },
    {
      "midi": 62,
      "hit": false,
      "t": 418636.4055000002,
      "d": 4090.909500000009,
      "v": 63
    },
    {
      "midi": 62,
      "hit": false,
      "t": 418636.4055000005,
      "d": 2727.2729999999865,
      "v": 127
    },
    {
      "midi": 31,
      "hit": false,
      "t": 418636.40550000063,
      "d": 4090.909500000009,
      "v": 95
    },
    {
      "midi": 50,
      "hit": false,
      "t": 418636.40550000104,
      "d": 2727.2729999999865,
      "v": 90
    },
    {
      "midi": 55,
      "hit": false,
      "t": 418636.40550000104,
      "d": 2727.2729999999865,
      "v": 101
    },
    {
      "midi": 59,
      "hit": false,
      "t": 418636.40550000104,
      "d": 2727.2729999999865,
      "v": 101
    },
    {
      "midi": 62,
      "hit": false,
      "t": 418636.40550000104,
      "d": 2727.2729999999865,
      "v": 111
    },
    {
      "midi": 64,
      "hit": false,
      "t": 420681.860250001,
      "d": 681.8182500000112,
      "v": 95
    },
    {
      "midi": 62,
      "hit": false,
      "t": 421363.678500001,
      "d": 2045.4547500000335,
      "v": 95
    },
    {
      "midi": 62,
      "hit": false,
      "t": 422045.4967500005,
      "d": 1363.6365000000224,
      "v": 127
    },
    {
      "midi": 64,
      "hit": false,
      "t": 422727.31500000105,
      "d": 2727.2729999999865,
      "v": 95
    },
    {
      "midi": 67,
      "hit": false,
      "t": 423409.13325000054,
      "d": 1363.6365000000224,
      "v": 127
    },
    {
      "midi": 31,
      "hit": false,
      "t": 424090.95150000066,
      "d": 1363.6365000000224,
      "v": 95
    },
    {
      "midi": 66,
      "hit": false,
      "t": 424772.76975000056,
      "d": 1363.6365000000224,
      "v": 127
    },
    {
      "midi": 59,
      "hit": false,
      "t": 425454.5879999999,
      "d": 4090.909500000009,
      "v": 79
    },
    {
      "midi": 62,
      "hit": false,
      "t": 425454.5879999999,
      "d": 4090.909500000009,
      "v": 95
    },
    {
      "midi": 50,
      "hit": false,
      "t": 425454.5879999999,
      "d": 4090.909500000009,
      "v": 79
    },
    {
      "midi": 66,
      "hit": false,
      "t": 425454.5880000003,
      "d": 4090.909500000009,
      "v": 79
    },
    {
      "midi": 50,
      "hit": false,
      "t": 425454.5880000003,
      "d": 4090.909500000009,
      "v": 63
    },
    {
      "midi": 54,
      "hit": false,
      "t": 425454.5880000003,
      "d": 4090.909500000009,
      "v": 95
    },
    {
      "midi": 38,
      "hit": false,
      "t": 425454.5880000007,
      "d": 2045.4547499999753,
      "v": 95
    },
    {
      "midi": 54,
      "hit": false,
      "t": 425454.58800000104,
      "d": 2045.4547499999753,
      "v": 95
    },
    {
      "midi": 59,
      "hit": false,
      "t": 425454.58800000104,
      "d": 2045.4547499999753,
      "v": 95
    },
    {
      "midi": 62,
      "hit": false,
      "t": 425454.58800000104,
      "d": 2045.4547499999753,
      "v": 111
    },
    {
      "midi": 66,
      "hit": false,
      "t": 425454.58800000104,
      "d": 2045.4547499999753,
      "v": 111
    },
    {
      "midi": 66,
      "hit": false,
      "t": 426136.4062500006,
      "d": 681.8182500000112,
      "v": 127
    },
    {
      "midi": 66,
      "hit": false,
      "t": 426818.2245000006,
      "d": 1363.6365000000224,
      "v": 127
    },
    {
      "midi": 38,
      "hit": false,
      "t": 427500.04275000066,
      "d": 681.8182500000112,
      "v": 95
    },
    {
      "midi": 52,
      "hit": false,
      "t": 427500.042750001,
      "d": 2727.2729999999865,
      "v": 90
    },
    {
      "midi": 59,
      "hit": false,
      "t": 427500.042750001,
      "d": 2727.2729999999865,
      "v": 95
    },
    {
      "midi": 61,
      "hit": false,
      "t": 427500.042750001,
      "d": 2727.2729999999865,
      "v": 111
    },
    {
      "midi": 64,
      "hit": false,
      "t": 427500.042750001,
      "d": 2727.2729999999865,
      "v": 111
    },
    {
      "midi": 66,
      "hit": false,
      "t": 428181.8610000006,
      "d": 681.8182500000112,
      "v": 127
    },
    {
      "midi": 38,
      "hit": false,
      "t": 428181.8610000007,
      "d": 681.8182500000112,
      "v": 95
    },
    {
      "midi": 67,
      "hit": false,
      "t": 428863.6792500006,
      "d": 2727.2729999999865,
      "v": 127
    },
    {
      "midi": 60,
      "hit": false,
      "t": 429545.4974999999,
      "d": 6818.182499999995,
      "v": 79
    },
    {
      "midi": 64,
      "hit": false,
      "t": 429545.4974999999,
      "d": 6818.182499999995,
      "v": 95
    },
    {
      "midi": 52,
      "hit": false,
      "t": 429545.4974999999,
      "d": 6818.182499999995,
      "v": 79
    },
    {
      "midi": 67,
      "hit": false,
      "t": 429545.4975000003,
      "d": 5454.545999999973,
      "v": 79
    },
    {
      "midi": 52,
      "hit": false,
      "t": 429545.4975000003,
      "d": 5454.545999999973,
      "v": 63
    },
    {
      "midi": 55,
      "hit": false,
      "t": 429545.4975000003,
      "d": 5454.545999999973,
      "v": 95
    },
    {
      "midi": 40,
      "hit": false,
      "t": 429545.4975000007,
      "d": 2727.2729999999865,
      "v": 95
    },
    {
      "midi": 66,
      "hit": false,
      "t": 431590.952250001,
      "d": 681.8182500000112,
      "v": 111
    },
    {
      "midi": 81,
      "hit": false,
      "t": 432272.7705000003,
      "d": 545.4545999999973,
      "v": 111
    },
    {
      "midi": 35,
      "hit": false,
      "t": 432272.7705000007,
      "d": 1363.6365000000224,
      "v": 95
    },
    {
      "midi": 64,
      "hit": false,
      "t": 432272.77050000103,
      "d": 1363.6365000000224,
      "v": 111
    },
    {
      "midi": 79,
      "hit": false,
      "t": 432954.5887500003,
      "d": 2045.4547499999753,
      "v": 111
    },
    {
      "midi": 62,
      "hit": false,
      "t": 432954.58875000064,
      "d": 1363.6365000000224,
      "v": 127
    },
    {
      "midi": 38,
      "hit": false,
      "t": 433636.4070000007,
      "d": 1363.6365000000224,
      "v": 95
    },
    {
      "midi": 66,
      "hit": false,
      "t": 433636.40700000105,
      "d": 2727.2730000000447,
      "v": 111
    },
    {
      "midi": 67,
      "hit": false,
      "t": 434318.22525000066,
      "d": 1363.6365000000224,
      "v": 127
    },
    {
      "midi": 81,
      "hit": false,
      "t": 435000.04350000026,
      "d": 545.4545999999973,
      "v": 111
    },
    {
      "midi": 40,
      "hit": false,
      "t": 435000.0435000007,
      "d": 681.8182500000112,
      "v": 95
    },
    {
      "midi": 64,
      "hit": false,
      "t": 435000.0435000011,
      "d": 681.8182500000112,
      "v": 111
    },
    {
      "midi": 79,
      "hit": false,
      "t": 435681.8617500003,
      "d": 11590.910250000074,
      "v": 111
    },
    {
      "midi": 66,
      "hit": false,
      "t": 435681.8617500007,
      "d": 1363.6365000000224,
      "v": 127
    },
    {
      "midi": 38,
      "hit": false,
      "t": 435681.86175000074,
      "d": 681.8182500000112,
      "v": 95
    },
    {
      "midi": 62,
      "hit": false,
      "t": 435681.8617500011,
      "d": 681.8182500000112,
      "v": 111
    },
    {
      "midi": 64,
      "hit": false,
      "t": 436363.6799999999,
      "d": 1363.6365000000224,
      "v": 95
    },
    {
      "midi": 60,
      "hit": false,
      "t": 436363.6799999999,
      "d": 1363.6365000000224,
      "v": 95
    },
    {
      "midi": 48,
      "hit": false,
      "t": 436363.6799999999,
      "d": 1363.6365000000224,
      "v": 95
    },
    {
      "midi": 62,
      "hit": false,
      "t": 436363.6800000003,
      "d": 4090.909500000009,
      "v": 82
    },
    {
      "midi": 66,
      "hit": false,
      "t": 436363.6800000003,
      "d": 4090.909500000009,
      "v": 82
    },
    {
      "midi": 59,
      "hit": false,
      "t": 436363.6800000003,
      "d": 4090.909500000009,
      "v": 82
    },
    {
      "midi": 48,
      "hit": false,
      "t": 436363.68000000075,
      "d": 1363.6365000000224,
      "v": 95
    },
    {
      "midi": 59,
      "hit": false,
      "t": 436363.6800000011,
      "d": 681.8182500000112,
      "v": 79
    },
    {
      "midi": 62,
      "hit": false,
      "t": 436363.6800000011,
      "d": 681.8182500000112,
      "v": 95
    },
    {
      "midi": 66,
      "hit": false,
      "t": 436363.6800000011,
      "d": 681.8182500000112,
      "v": 111
    },
    {
      "midi": 66,
      "hit": false,
      "t": 437045.4982500007,
      "d": 681.8182500000112,
      "v": 127
    },
    {
      "midi": 62,
      "hit": false,
      "t": 437045.4982500011,
      "d": 681.8182500000112,
      "v": 95
    },
    {
      "midi": 59,
      "hit": false,
      "t": 437045.4982500011,
      "d": 1363.6365000000224,
      "v": 79
    },
    {
      "midi": 66,
      "hit": false,
      "t": 437045.4982500011,
      "d": 1363.6365000000224,
      "v": 111
    },
    {
      "midi": 62,
      "hit": false,
      "t": 437727.3164999999,
      "d": 1363.6365000000224,
      "v": 95
    },
    {
      "midi": 59,
      "hit": false,
      "t": 437727.3164999999,
      "d": 1363.6365000000224,
      "v": 95
    },
    {
      "midi": 47,
      "hit": false,
      "t": 437727.3164999999,
      "d": 1363.6365000000224,
      "v": 95
    },
    {
      "midi": 66,
      "hit": false,
      "t": 437727.3165000007,
      "d": 1363.6365000000224,
      "v": 127
    },
    {
      "midi": 47,
      "hit": false,
      "t": 437727.3165000008,
      "d": 1363.6365000000224,
      "v": 95
    },
    {
      "midi": 66,
      "hit": false,
      "t": 438409.13475000113,
      "d": 681.8182500000112,
      "v": 111
    },
    {
      "midi": 59,
      "hit": false,
      "t": 438409.13475000113,
      "d": 1363.6365000000224,
      "v": 79
    },
    {
      "midi": 62,
      "hit": false,
      "t": 438409.13475000113,
      "d": 1363.6365000000224,
      "v": 95
    },
    {
      "midi": 60,
      "hit": false,
      "t": 439090.9529999999,
      "d": 1363.6365000000224,
      "v": 95
    },
    {
      "midi": 57,
      "hit": false,
      "t": 439090.9529999999,
      "d": 1363.6365000000224,
      "v": 95
    },
    {
      "midi": 45,
      "hit": false,
      "t": 439090.9529999999,
      "d": 1363.6365000000224,
      "v": 95
    },
    {
      "midi": 66,
      "hit": false,
      "t": 439090.95300000074,
      "d": 681.8182500000112,
      "v": 127
    },
    {
      "midi": 45,
      "hit": false,
      "t": 439090.9530000008,
      "d": 1363.6365000000224,
      "v": 95
    },
    {
      "midi": 67,
      "hit": false,
      "t": 439772.77125000075,
      "d": 2727.2729999999865,
      "v": 127
    },
    {
      "midi": 59,
      "hit": false,
      "t": 439772.77125000115,
      "d": 681.8182500000112,
      "v": 79
    },
    {
      "midi": 62,
      "hit": false,
      "t": 439772.77125000115,
      "d": 681.8182500000112,
      "v": 95
    },
    {
      "midi": 66,
      "hit": false,
      "t": 439772.77125000115,
      "d": 681.8182500000112,
      "v": 111
    },
    {
      "midi": 55,
      "hit": false,
      "t": 440454.58949999994,
      "d": 6818.182499999995,
      "v": 95
    },
    {
      "midi": 59,
      "hit": false,
      "t": 440454.58949999994,
      "d": 6818.182499999995,
      "v": 95
    },
    {
      "midi": 62,
      "hit": false,
      "t": 440454.58949999994,
      "d": 6818.182499999995,
      "v": 63
    },
    {
      "midi": 43,
      "hit": false,
      "t": 440454.58949999994,
      "d": 6818.182499999995,
      "v": 95
    },
    {
      "midi": 62,
      "hit": false,
      "t": 440454.5895000003,
      "d": 4090.909500000009,
      "v": 82
    },
    {
      "midi": 55,
      "hit": false,
      "t": 440454.5895000003,
      "d": 4090.909500000009,
      "v": 82
    },
    {
      "midi": 59,
      "hit": false,
      "t": 440454.5895000003,
      "d": 4090.909500000009,
      "v": 82
    },
    {
      "midi": 43,
      "hit": false,
      "t": 440454.5895000008,
      "d": 4090.909500000009,
      "v": 95
    },
    {
      "midi": 60,
      "hit": false,
      "t": 440454.58950000117,
      "d": 2727.2729999999865,
      "v": 79
    },
    {
      "midi": 64,
      "hit": false,
      "t": 440454.58950000117,
      "d": 2727.2729999999865,
      "v": 95
    },
    {
      "midi": 67,
      "hit": false,
      "t": 442500.04425000114,
      "d": 681.8182500000112,
      "v": 111
    },
    {
      "midi": 64,
      "hit": false,
      "t": 443181.86250000115,
      "d": 1363.6365000000224,
      "v": 111
    },
    {
      "midi": 64,
      "hit": false,
      "t": 443863.68075000076,
      "d": 1363.6365000000224,
      "v": 127
    },
    {
      "midi": 66,
      "hit": false,
      "t": 444545.4990000012,
      "d": 1363.6365000000224,
      "v": 111
    },
    {
      "midi": 62,
      "hit": false,
      "t": 445227.3172500008,
      "d": 9545.455499999982,
      "v": 127
    },
    {
      "midi": 35,
      "hit": false,
      "t": 445909.13550000085,
      "d": 1363.6365000000224,
      "v": 95
    },
    {
      "midi": 64,
      "hit": false,
      "t": 445909.1355000012,
      "d": 681.8182500000112,
      "v": 111
    },
    {
      "midi": 62,
      "hit": false,
      "t": 446590.9537500012,
      "d": 681.8182500000112,
      "v": 111
    },
    {
      "midi": 64,
      "hit": false,
      "t": 447272.7720000003,
      "d": 2727.2729999999865,
      "v": 79
    },
    {
      "midi": 67,
      "hit": false,
      "t": 447272.7720000003,
      "d": 2727.2729999999865,
      "v": 95
    },
    {
      "midi": 79,
      "hit": false,
      "t": 447272.77200000035,
      "d": 2727.2729999999865,
      "v": 111
    },
    {
      "midi": 38,
      "hit": false,
      "t": 447272.77200000087,
      "d": 4090.909500000009,
      "v": 95
    },
    {
      "midi": 64,
      "hit": false,
      "t": 447272.7720000012,
      "d": 2045.4547499999753,
      "v": 79
    },
    {
      "midi": 67,
      "hit": false,
      "t": 447272.7720000012,
      "d": 2045.4547499999753,
      "v": 102
    },
    {
      "midi": 64,
      "hit": false,
      "t": 449318.2267500012,
      "d": 340.9091250000056,
      "v": 79
    },
    {
      "midi": 67,
      "hit": false,
      "t": 449318.2267500012,
      "d": 681.8182500000112,
      "v": 109
    },
    {
      "midi": 62,
      "hit": false,
      "t": 450000.0450000003,
      "d": 2727.2729999999865,
      "v": 79
    },
    {
      "midi": 66,
      "hit": false,
      "t": 450000.0450000003,
      "d": 2727.2729999999865,
      "v": 95
    },
    {
      "midi": 78,
      "hit": false,
      "t": 450000.04500000033,
      "d": 2727.2729999999865,
      "v": 111
    },
    {
      "midi": 62,
      "hit": false,
      "t": 450000.0450000012,
      "d": 2045.4547499999753,
      "v": 79
    },
    {
      "midi": 66,
      "hit": false,
      "t": 450000.0450000012,
      "d": 2045.4547499999753,
      "v": 100
    },
    {
      "midi": 38,
      "hit": false,
      "t": 451363.6815000009,
      "d": 1363.6365000000224,
      "v": 95
    },
    {
      "midi": 62,
      "hit": false,
      "t": 452045.4997500012,
      "d": 681.8182500000112,
      "v": 79
    },
    {
      "midi": 66,
      "hit": false,
      "t": 452045.4997500012,
      "d": 681.8182500000112,
      "v": 103
    },
    {
      "midi": 64,
      "hit": false,
      "t": 452727.31800000026,
      "d": 2727.2729999999865,
      "v": 95
    },
    {
      "midi": 60,
      "hit": false,
      "t": 452727.31800000026,
      "d": 2727.2729999999865,
      "v": 79
    },
    {
      "midi": 76,
      "hit": false,
      "t": 452727.3180000003,
      "d": 2727.2729999999865,
      "v": 111
    },
    {
      "midi": 50,
      "hit": false,
      "t": 452727.3180000009,
      "d": 5454.545999999973,
      "v": 95
    },
    {
      "midi": 60,
      "hit": false,
      "t": 452727.3180000012,
      "d": 2727.2729999999865,
      "v": 79
    },
    {
      "midi": 64,
      "hit": false,
      "t": 452727.3180000012,
      "d": 2727.2729999999865,
      "v": 109
    },
    {
      "midi": 66,
      "hit": false,
      "t": 455454.59100000025,
      "d": 2727.2729999999865,
      "v": 95
    },
    {
      "midi": 62,
      "hit": false,
      "t": 455454.59100000025,
      "d": 2727.2729999999865,
      "v": 79
    },
    {
      "midi": 78,
      "hit": false,
      "t": 455454.5910000003,
      "d": 2727.2729999999865,
      "v": 111
    },
    {
      "midi": 55,
      "hit": false,
      "t": 458181.86399999994,
      "d": 681.8182500000112,
      "v": 127
    },
    {
      "midi": 59,
      "hit": false,
      "t": 458181.86399999994,
      "d": 681.8182500000112,
      "v": 127
    },
    {
      "midi": 76,
      "hit": false,
      "t": 458181.8640000003,
      "d": 5454.546000000089,
      "v": 111
    },
    {
      "midi": 35,
      "hit": false,
      "t": 458181.8640000009,
      "d": 8181.819000000018,
      "v": 95
    },
    {
      "midi": 59,
      "hit": false,
      "t": 458181.86400000117,
      "d": 10909.092000000004,
      "v": 127
    },
    {
      "midi": 64,
      "hit": false,
      "t": 458181.86400000117,
      "d": 10909.092000000004,
      "v": 127
    },
    {
      "midi": 64,
      "hit": false,
      "t": 460909.13699999993,
      "d": 8181.819000000018,
      "v": 95
    },
    {
      "midi": 71,
      "hit": false,
      "t": 460909.13699999993,
      "d": 8181.819000000018,
      "v": 95
    },
    {
      "midi": 81,
      "hit": false,
      "t": 463295.5008750003,
      "d": 295.45457500003977,
      "v": 95
    },
    {
      "midi": 83,
      "hit": false,
      "t": 463636.4100000004,
      "d": 5454.546000000089,
      "v": 95
    },
    {
      "midi": 47,
      "hit": false,
      "t": 466363.6830000009,
      "d": 2727.2729999999865,
      "v": 95
    },
    {
      "midi": 64,
      "hit": false,
      "t": 468409.13775000075,
      "d": 1363.6365000000224,
      "v": 127
    },
    {
      "midi": 52,
      "hit": false,
      "t": 469090.95599999995,
      "d": 8181.819000000018,
      "v": 95
    },
    {
      "midi": 67,
      "hit": false,
      "t": 469090.95600000024,
      "d": 4090.909500000009,
      "v": 95
    },
    {
      "midi": 64,
      "hit": false,
      "t": 469090.95600000024,
      "d": 4090.909500000009,
      "v": 95
    },
    {
      "midi": 40,
      "hit": false,
      "t": 469090.9560000009,
      "d": 5454.545999999973,
      "v": 95
    },
    {
      "midi": 52,
      "hit": false,
      "t": 469090.95600000117,
      "d": 2045.4547499999753,
      "v": 95
    },
    {
      "midi": 55,
      "hit": false,
      "t": 469090.95600000117,
      "d": 2045.4547499999753,
      "v": 95
    },
    {
      "midi": 59,
      "hit": false,
      "t": 469090.95600000117,
      "d": 2045.4547499999753,
      "v": 95
    },
    {
      "midi": 64,
      "hit": false,
      "t": 469090.95600000117,
      "d": 2045.4547499999753,
      "v": 111
    },
    {
      "midi": 66,
      "hit": false,
      "t": 469772.7742500008,
      "d": 681.8182500000112,
      "v": 127
    },
    {
      "midi": 67,
      "hit": false,
      "t": 470454.5925000008,
      "d": 1363.6365000000224,
      "v": 127
    },
    {
      "midi": 52,
      "hit": false,
      "t": 471136.41075000115,
      "d": 681.8182500000112,
      "v": 63
    },
    {
      "midi": 55,
      "hit": false,
      "t": 471136.41075000115,
      "d": 681.8182500000112,
      "v": 79
    },
    {
      "midi": 59,
      "hit": false,
      "t": 471136.41075000115,
      "d": 681.8182500000112,
      "v": 95
    },
    {
      "midi": 64,
      "hit": false,
      "t": 471136.41075000115,
      "d": 681.8182500000112,
      "v": 111
    },
    {
      "midi": 69,
      "hit": false,
      "t": 471818.2290000008,
      "d": 681.8182500000112,
      "v": 127
    },
    {
      "midi": 52,
      "hit": false,
      "t": 471818.22900000116,
      "d": 681.8182500000112,
      "v": 63
    },
    {
      "midi": 55,
      "hit": false,
      "t": 471818.22900000116,
      "d": 681.8182500000112,
      "v": 79
    },
    {
      "midi": 59,
      "hit": false,
      "t": 471818.22900000116,
      "d": 681.8182500000112,
      "v": 95
    },
    {
      "midi": 64,
      "hit": false,
      "t": 471818.22900000116,
      "d": 681.8182500000112,
      "v": 111
    },
    {
      "midi": 71,
      "hit": false,
      "t": 472500.0472500008,
      "d": 4090.909500000009,
      "v": 127
    },
    {
      "midi": 52,
      "hit": false,
      "t": 472500.04725000117,
      "d": 681.8182500000112,
      "v": 63
    },
    {
      "midi": 55,
      "hit": false,
      "t": 472500.04725000117,
      "d": 681.8182500000112,
      "v": 79
    },
    {
      "midi": 59,
      "hit": false,
      "t": 472500.04725000117,
      "d": 681.8182500000112,
      "v": 111
    },
    {
      "midi": 64,
      "hit": false,
      "t": 472500.04725000117,
      "d": 681.8182500000112,
      "v": 111
    },
    {
      "midi": 67,
      "hit": false,
      "t": 473181.86550000025,
      "d": 4090.909500000009,
      "v": 95
    },
    {
      "midi": 64,
      "hit": false,
      "t": 473181.86550000025,
      "d": 4090.909500000009,
      "v": 95
    },
    {
      "midi": 60,
      "hit": false,
      "t": 473181.86550000025,
      "d": 4090.909500000009,
      "v": 95
    },
    {
      "midi": 52,
      "hit": false,
      "t": 473181.8655000012,
      "d": 2045.4547499999753,
      "v": 63
    },
    {
      "midi": 62,
      "hit": false,
      "t": 473181.8655000012,
      "d": 2045.4547499999753,
      "v": 79
    },
    {
      "midi": 55,
      "hit": false,
      "t": 473181.8655000012,
      "d": 2045.4547499999753,
      "v": 63
    },
    {
      "midi": 59,
      "hit": false,
      "t": 473181.8655000012,
      "d": 2045.4547499999753,
      "v": 111
    },
    {
      "midi": 59,
      "hit": false,
      "t": 474545.5019999999,
      "d": 1363.6365000000224,
      "v": 95
    },
    {
      "midi": 36,
      "hit": false,
      "t": 474545.50200000085,
      "d": 4090.909500000009,
      "v": 95
    },
    {
      "midi": 62,
      "hit": false,
      "t": 475227.32025000115,
      "d": 681.8182500000112,
      "v": 111
    },
    {
      "midi": 57,
      "hit": false,
      "t": 475909.13849999994,
      "d": 1363.6365000000224,
      "v": 95
    },
    {
      "midi": 62,
      "hit": false,
      "t": 475909.13850000117,
      "d": 681.8182500000112,
      "v": 111
    },
    {
      "midi": 55,
      "hit": false,
      "t": 477272.77499999997,
      "d": 1363.6365000000224,
      "v": 95
    },
    {
      "midi": 62,
      "hit": false,
      "t": 477272.7750000012,
      "d": 1363.6365000000224,
      "v": 95
    },
    {
      "midi": 59,
      "hit": false,
      "t": 477272.7750000012,
      "d": 1363.6365000000224,
      "v": 111
    },
    {
      "midi": 55,
      "hit": false,
      "t": 477272.7750000012,
      "d": 1363.6365000000224,
      "v": 79
    },
    {
      "midi": 52,
      "hit": false,
      "t": 477272.7750000012,
      "d": 1363.6365000000224,
      "v": 79
    },
    {
      "midi": 64,
      "hit": false,
      "t": 477954.59325000085,
      "d": 1363.6365000000224,
      "v": 127
    },
    {
      "midi": 52,
      "hit": false,
      "t": 478636.4115,
      "d": 1363.6365000000224,
      "v": 95
    },
    {
      "midi": 35,
      "hit": false,
      "t": 478636.41150000086,
      "d": 681.8182500000112,
      "v": 95
    },
    {
      "midi": 62,
      "hit": false,
      "t": 478636.4115000012,
      "d": 681.8182500000112,
      "v": 95
    },
    {
      "midi": 62,
      "hit": false,
      "t": 479318.2297500009,
      "d": 2727.2729999999865,
      "v": 127
    },
    {
      "midi": 37,
      "hit": false,
      "t": 479318.2297500009,
      "d": 681.8182500000112,
      "v": 95
    },
    {
      "midi": 62,
      "hit": false,
      "t": 479318.2297500012,
      "d": 681.8182500000112,
      "v": 95
    },
    {
      "midi": 50,
      "hit": false,
      "t": 480000.048,
      "d": 10909.092000000004,
      "v": 79
    },
    {
      "midi": 62,
      "hit": false,
      "t": 480000.04800000024,
      "d": 4090.909500000009,
      "v": 95
    },
    {
      "midi": 38,
      "hit": false,
      "t": 480000.0480000009,
      "d": 2045.4547499999753,
      "v": 95
    },
    {
      "midi": 52,
      "hit": false,
      "t": 480000.04800000123,
      "d": 2727.2729999999865,
      "v": 63
    },
    {
      "midi": 59,
      "hit": false,
      "t": 480000.04800000123,
      "d": 2727.2729999999865,
      "v": 95
    },
    {
      "midi": 55,
      "hit": false,
      "t": 480000.04800000123,
      "d": 2727.2729999999865,
      "v": 79
    },
    {
      "midi": 64,
      "hit": false,
      "t": 480000.04800000123,
      "d": 2727.2729999999865,
      "v": 120
    },
    {
      "midi": 72,
      "hit": false,
      "t": 482045.50275000086,
      "d": 2727.2729999999865,
      "v": 127
    },
    {
      "midi": 38,
      "hit": false,
      "t": 482045.50275000086,
      "d": 681.8182500000112,
      "v": 95
    },
    {
      "midi": 38,
      "hit": false,
      "t": 482727.32100000087,
      "d": 681.8182500000112,
      "v": 95
    },
    {
      "midi": 52,
      "hit": false,
      "t": 482727.3210000012,
      "d": 2727.2729999999865,
      "v": 63
    },
    {
      "midi": 59,
      "hit": false,
      "t": 482727.3210000012,
      "d": 2727.2729999999865,
      "v": 95
    },
    {
      "midi": 55,
      "hit": false,
      "t": 482727.3210000012,
      "d": 2727.2729999999865,
      "v": 79
    },
    {
      "midi": 64,
      "hit": false,
      "t": 482727.3210000012,
      "d": 2727.2729999999865,
      "v": 115
    },
    {
      "midi": 35,
      "hit": false,
      "t": 484090.9575000009,
      "d": 681.8182500000112,
      "v": 95
    },
    {
      "midi": 72,
      "hit": false,
      "t": 484772.77575000084,
      "d": 2045.4547499999753,
      "v": 127
    },
    {
      "midi": 33,
      "hit": false,
      "t": 484772.7757500009,
      "d": 681.8182500000112,
      "v": 95
    },
    {
      "midi": 55,
      "hit": false,
      "t": 485454.5940000003,
      "d": 2727.2729999999865,
      "v": 95
    },
    {
      "midi": 31,
      "hit": false,
      "t": 485454.5940000009,
      "d": 2727.2729999999865,
      "v": 95
    },
    {
      "midi": 55,
      "hit": false,
      "t": 485454.5940000012,
      "d": 681.8182500000112,
      "v": 127
    },
    {
      "midi": 43,
      "hit": false,
      "t": 485454.5940000012,
      "d": 2727.2729999999865,
      "v": 127
    },
    {
      "midi": 31,
      "hit": false,
      "t": 485454.5940000012,
      "d": 2727.2729999999865,
      "v": 127
    },
    {
      "midi": 71,
      "hit": false,
      "t": 486818.2305000008,
      "d": 681.8182500000112,
      "v": 127
    },
    {
      "midi": 71,
      "hit": false,
      "t": 487500.04875000083,
      "d": 2045.4547499999753,
      "v": 127
    },
    {
      "midi": 54,
      "hit": false,
      "t": 488181.86700000026,
      "d": 2727.2729999999865,
      "v": 95
    },
    {
      "midi": 30,
      "hit": false,
      "t": 488181.8670000009,
      "d": 2727.2729999999865,
      "v": 95
    },
    {
      "midi": 54,
      "hit": false,
      "t": 488181.8670000012,
      "d": 681.8182500000112,
      "v": 127
    },
    {
      "midi": 42,
      "hit": false,
      "t": 488181.8670000012,
      "d": 2727.2729999999865,
      "v": 127
    },
    {
      "midi": 30,
      "hit": false,
      "t": 488181.8670000012,
      "d": 2727.2729999999865,
      "v": 127
    },
    {
      "midi": 64,
      "hit": false,
      "t": 490227.3217500008,
      "d": 1363.6365000000224,
      "v": 127
    },
    {
      "midi": 52,
      "hit": false,
      "t": 490909.14,
      "d": 8181.819000000018,
      "v": 95
    },
    {
      "midi": 64,
      "hit": false,
      "t": 490909.14000000025,
      "d": 4090.909500000009,
      "v": 95
    },
    {
      "midi": 67,
      "hit": false,
      "t": 490909.14000000025,
      "d": 4090.909500000009,
      "v": 95
    },
    {
      "midi": 28,
      "hit": false,
      "t": 490909.1400000009,
      "d": 1363.6365000000224,
      "v": 95
    },
    {
      "midi": 64,
      "hit": false,
      "t": 490909.1400000012,
      "d": 2045.4547499999753,
      "v": 111
    },
    {
      "midi": 59,
      "hit": false,
      "t": 490909.1400000012,
      "d": 2045.4547499999753,
      "v": 95
    },
    {
      "midi": 55,
      "hit": false,
      "t": 490909.1400000012,
      "d": 2045.4547499999753,
      "v": 95
    },
    {
      "midi": 52,
      "hit": false,
      "t": 490909.1400000012,
      "d": 2045.4547499999753,
      "v": 95
    },
    {
      "midi": 66,
      "hit": false,
      "t": 491590.95825000084,
      "d": 681.8182500000112,
      "v": 127
    },
    {
      "midi": 67,
      "hit": false,
      "t": 492272.77650000085,
      "d": 1363.6365000000224,
      "v": 127
    },
    {
      "midi": 31,
      "hit": false,
      "t": 492272.7765000009,
      "d": 681.8182500000112,
      "v": 95
    },
    {
      "midi": 40,
      "hit": false,
      "t": 492954.5947500009,
      "d": 681.8182500000112,
      "v": 95
    },
    {
      "midi": 64,
      "hit": false,
      "t": 492954.59475000115,
      "d": 681.8182500000112,
      "v": 111
    },
    {
      "midi": 59,
      "hit": false,
      "t": 492954.59475000115,
      "d": 681.8182500000112,
      "v": 95
    },
    {
      "midi": 55,
      "hit": false,
      "t": 492954.59475000115,
      "d": 681.8182500000112,
      "v": 79
    },
    {
      "midi": 52,
      "hit": false,
      "t": 492954.59475000115,
      "d": 681.8182500000112,
      "v": 63
    },
    {
      "midi": 69,
      "hit": false,
      "t": 493636.4130000009,
      "d": 681.8182500000112,
      "v": 127
    },
    {
      "midi": 64,
      "hit": false,
      "t": 493636.41300000116,
      "d": 681.8182500000112,
      "v": 111
    },
    {
      "midi": 59,
      "hit": false,
      "t": 493636.41300000116,
      "d": 681.8182500000112,
      "v": 95
    },
    {
      "midi": 55,
      "hit": false,
      "t": 493636.41300000116,
      "d": 681.8182500000112,
      "v": 79
    },
    {
      "midi": 52,
      "hit": false,
      "t": 493636.41300000116,
      "d": 681.8182500000112,
      "v": 63
    },
    {
      "midi": 71,
      "hit": false,
      "t": 494318.2312500009,
      "d": 2727.2729999999865,
      "v": 127
    },
    {
      "midi": 38,
      "hit": false,
      "t": 494318.23125000094,
      "d": 681.8182500000112,
      "v": 95
    },
    {
      "midi": 64,
      "hit": false,
      "t": 494318.2312500012,
      "d": 681.8182500000112,
      "v": 111
    },
    {
      "midi": 59,
      "hit": false,
      "t": 494318.2312500012,
      "d": 681.8182500000112,
      "v": 111
    },
    {
      "midi": 55,
      "hit": false,
      "t": 494318.2312500012,
      "d": 681.8182500000112,
      "v": 79
    },
    {
      "midi": 52,
      "hit": false,
      "t": 494318.2312500012,
      "d": 681.8182500000112,
      "v": 63
    },
    {
      "midi": 60,
      "hit": false,
      "t": 495000.04950000026,
      "d": 4090.909500000009,
      "v": 95
    },
    {
      "midi": 64,
      "hit": false,
      "t": 495000.04950000026,
      "d": 4090.909500000009,
      "v": 95
    },
    {
      "midi": 67,
      "hit": false,
      "t": 495000.04950000026,
      "d": 4090.909500000009,
      "v": 95
    },
    {
      "midi": 36,
      "hit": false,
      "t": 495000.04950000095,
      "d": 6818.182499999995,
      "v": 95
    },
    {
      "midi": 59,
      "hit": false,
      "t": 495000.0495000012,
      "d": 2045.4547499999753,
      "v": 111
    },
    {
      "midi": 55,
      "hit": false,
      "t": 495000.0495000012,
      "d": 2045.4547499999753,
      "v": 63
    },
    {
      "midi": 62,
      "hit": false,
      "t": 495000.0495000012,
      "d": 2045.4547499999753,
      "v": 79
    },
    {
      "midi": 52,
      "hit": false,
      "t": 495000.0495000012,
      "d": 2045.4547499999753,
      "v": 63
    },
    {
      "midi": 59,
      "hit": false,
      "t": 496363.686,
      "d": 1363.6365000000224,
      "v": 95
    },
    {
      "midi": 69,
      "hit": false,
      "t": 497045.5042500009,
      "d": 2727.2729999999865,
      "v": 127
    },
    {
      "midi": 62,
      "hit": false,
      "t": 497045.50425000116,
      "d": 681.8182500000112,
      "v": 111
    },
    {
      "midi": 57,
      "hit": false,
      "t": 497727.3225,
      "d": 1363.6365000000224,
      "v": 95
    },
    {
      "midi": 62,
      "hit": false,
      "t": 497727.3225000012,
      "d": 681.8182500000112,
      "v": 111
    },
    {
      "midi": 55,
      "hit": false,
      "t": 499090.95900000003,
      "d": 1363.6365000000224,
      "v": 95
    },
    {
      "midi": 52,
      "hit": false,
      "t": 499090.9590000012,
      "d": 1363.6365000000224,
      "v": 79
    },
    {
      "midi": 55,
      "hit": false,
      "t": 499090.9590000012,
      "d": 1363.6365000000224,
      "v": 79
    },
    {
      "midi": 59,
      "hit": false,
      "t": 499090.9590000012,
      "d": 1363.6365000000224,
      "v": 111
    },
    {
      "midi": 62,
      "hit": false,
      "t": 499090.9590000012,
      "d": 1363.6365000000224,
      "v": 95
    },
    {
      "midi": 52,
      "hit": false,
      "t": 500454.59550000005,
      "d": 1363.6365000000224,
      "v": 95
    },
    {
      "midi": 62,
      "hit": false,
      "t": 500454.5955000012,
      "d": 681.8182500000112,
      "v": 89
    },
    {
      "midi": 66,
      "hit": false,
      "t": 501136.4137500009,
      "d": 2727.2729999999865,
      "v": 127
    },
    {
      "midi": 62,
      "hit": false,
      "t": 501136.41375000123,
      "d": 681.8182500000112,
      "v": 89
    },
    {
      "midi": 57,
      "hit": false,
      "t": 501818.2320000001,
      "d": 2727.2729999999865,
      "v": 79
    },
    {
      "midi": 59,
      "hit": false,
      "t": 501818.23200000025,
      "d": 4090.909500000009,
      "v": 95
    },
    {
      "midi": 63,
      "hit": false,
      "t": 501818.23200000025,
      "d": 4090.909500000009,
      "v": 95
    },
    {
      "midi": 66,
      "hit": false,
      "t": 501818.23200000025,
      "d": 4090.909500000009,
      "v": 95
    },
    {
      "midi": 39,
      "hit": false,
      "t": 501818.23200000095,
      "d": 1363.6365000000224,
      "v": 95
    },
    {
      "midi": 57,
      "hit": false,
      "t": 501818.23200000124,
      "d": 2727.2729999999865,
      "v": 79
    },
    {
      "midi": 60,
      "hit": false,
      "t": 501818.23200000124,
      "d": 2727.2729999999865,
      "v": 95
    },
    {
      "midi": 66,
      "hit": false,
      "t": 501818.23200000124,
      "d": 2727.2729999999865,
      "v": 111
    },
    {
      "midi": 35,
      "hit": false,
      "t": 503181.868500001,
      "d": 1363.6365000000224,
      "v": 95
    },
    {
      "midi": 69,
      "hit": false,
      "t": 503863.68675000087,
      "d": 2727.2729999999865,
      "v": 127
    },
    {
      "midi": 51,
      "hit": false,
      "t": 504545.50500000006,
      "d": 2727.2729999999865,
      "v": 79
    },
    {
      "midi": 39,
      "hit": false,
      "t": 504545.505000001,
      "d": 1363.6365000000224,
      "v": 95
    },
    {
      "midi": 59,
      "hit": false,
      "t": 504545.5050000012,
      "d": 2727.2729999999865,
      "v": 95
    },
    {
      "midi": 54,
      "hit": false,
      "t": 504545.5050000012,
      "d": 2727.2729999999865,
      "v": 79
    },
    {
      "midi": 63,
      "hit": false,
      "t": 504545.5050000012,
      "d": 2727.2729999999865,
      "v": 111
    },
    {
      "midi": 42,
      "hit": false,
      "t": 505909.141500001,
      "d": 1363.6365000000224,
      "v": 95
    },
    {
      "midi": 69,
      "hit": false,
      "t": 506590.95975000085,
      "d": 1363.6365000000224,
      "v": 127
    },
    {
      "midi": 52,
      "hit": false,
      "t": 507272.77800000005,
      "d": 5454.545999999973,
      "v": 79
    },
    {
      "midi": 59,
      "hit": false,
      "t": 507272.7780000003,
      "d": 4090.909500000009,
      "v": 95
    },
    {
      "midi": 64,
      "hit": false,
      "t": 507272.7780000003,
      "d": 4090.909500000009,
      "v": 95
    },
    {
      "midi": 40,
      "hit": false,
      "t": 507272.77800000104,
      "d": 1363.6365000000224,
      "v": 95
    },
    {
      "midi": 55,
      "hit": false,
      "t": 507272.7780000012,
      "d": 2727.2729999999865,
      "v": 79
    },
    {
      "midi": 59,
      "hit": false,
      "t": 507272.7780000012,
      "d": 2727.2729999999865,
      "v": 95
    },
    {
      "midi": 64,
      "hit": false,
      "t": 507272.7780000012,
      "d": 2727.2729999999865,
      "v": 111
    },
    {
      "midi": 67,
      "hit": false,
      "t": 507954.5962500009,
      "d": 681.8182500000112,
      "v": 127
    },
    {
      "midi": 67,
      "hit": false,
      "t": 508636.4145000009,
      "d": 2045.4547499999753,
      "v": 127
    },
    {
      "midi": 38,
      "hit": false,
      "t": 508636.41450000106,
      "d": 1363.6365000000224,
      "v": 95
    },
    {
      "midi": 67,
      "hit": false,
      "t": 510000.05100000027,
      "d": 681.8182500000112,
      "v": 79
    },
    {
      "midi": 35,
      "hit": false,
      "t": 510000.0510000011,
      "d": 1363.6365000000224,
      "v": 95
    },
    {
      "midi": 60,
      "hit": false,
      "t": 510000.0510000012,
      "d": 681.8182500000112,
      "v": 111
    },
    {
      "midi": 64,
      "hit": false,
      "t": 510000.0510000012,
      "d": 681.8182500000112,
      "v": 111
    },
    {
      "midi": 66,
      "hit": false,
      "t": 510681.8692500003,
      "d": 681.8182500000112,
      "v": 79
    },
    {
      "midi": 60,
      "hit": false,
      "t": 510681.8692500012,
      "d": 681.8182500000112,
      "v": 111
    },
    {
      "midi": 64,
      "hit": false,
      "t": 510681.8692500012,
      "d": 681.8182500000112,
      "v": 111
    },
    {
      "midi": 64,
      "hit": false,
      "t": 511363.6875000003,
      "d": 681.8182500000112,
      "v": 79
    },
    {
      "midi": 33,
      "hit": false,
      "t": 511363.6875000011,
      "d": 1363.6365000000224,
      "v": 95
    },
    {
      "midi": 59,
      "hit": false,
      "t": 511363.6875000012,
      "d": 1363.6365000000224,
      "v": 111
    },
    {
      "midi": 62,
      "hit": false,
      "t": 511363.6875000012,
      "d": 1363.6365000000224,
      "v": 111
    },
    {
      "midi": 62,
      "hit": false,
      "t": 512045.5057500003,
      "d": 681.8182500000112,
      "v": 63
    },
    {
      "midi": 64,
      "hit": false,
      "t": 512045.5057500009,
      "d": 1363.6365000000224,
      "v": 127
    },
    {
      "midi": 52,
      "hit": false,
      "t": 512727.324,
      "d": 8181.819000000018,
      "v": 95
    },
    {
      "midi": 64,
      "hit": false,
      "t": 512727.3240000003,
      "d": 4090.909500000009,
      "v": 95
    },
    {
      "midi": 67,
      "hit": false,
      "t": 512727.3240000003,
      "d": 4090.909500000009,
      "v": 95
    },
    {
      "midi": 40,
      "hit": false,
      "t": 512727.3240000011,
      "d": 5454.545999999973,
      "v": 95
    },
    {
      "midi": 64,
      "hit": false,
      "t": 512727.32400000124,
      "d": 2045.4547499999753,
      "v": 111
    },
    {
      "midi": 59,
      "hit": false,
      "t": 512727.32400000124,
      "d": 2045.4547499999753,
      "v": 95
    },
    {
      "midi": 55,
      "hit": false,
      "t": 512727.32400000124,
      "d": 2045.4547499999753,
      "v": 95
    },
    {
      "midi": 52,
      "hit": false,
      "t": 512727.32400000124,
      "d": 2045.4547499999753,
      "v": 95
    },
    {
      "midi": 66,
      "hit": false,
      "t": 513409.1422500009,
      "d": 681.8182500000112,
      "v": 127
    },
    {
      "midi": 67,
      "hit": false,
      "t": 514090.9605000009,
      "d": 1363.6365000000224,
      "v": 127
    },
    {
      "midi": 64,
      "hit": false,
      "t": 514772.7787500012,
      "d": 681.8182500000112,
      "v": 111
    },
    {
      "midi": 59,
      "hit": false,
      "t": 514772.7787500012,
      "d": 681.8182500000112,
      "v": 95
    },
    {
      "midi": 55,
      "hit": false,
      "t": 514772.7787500012,
      "d": 681.8182500000112,
      "v": 79
    },
    {
      "midi": 52,
      "hit": false,
      "t": 514772.7787500012,
      "d": 681.8182500000112,
      "v": 63
    },
    {
      "midi": 69,
      "hit": false,
      "t": 515454.59700000094,
      "d": 681.8182500000112,
      "v": 127
    },
    {
      "midi": 64,
      "hit": false,
      "t": 515454.59700000123,
      "d": 681.8182500000112,
      "v": 111
    },
    {
      "midi": 59,
      "hit": false,
      "t": 515454.59700000123,
      "d": 681.8182500000112,
      "v": 95
    },
    {
      "midi": 55,
      "hit": false,
      "t": 515454.59700000123,
      "d": 681.8182500000112,
      "v": 79
    },
    {
      "midi": 52,
      "hit": false,
      "t": 515454.59700000123,
      "d": 681.8182500000112,
      "v": 63
    },
    {
      "midi": 71,
      "hit": false,
      "t": 516136.41525000095,
      "d": 4090.909500000009,
      "v": 127
    },
    {
      "midi": 64,
      "hit": false,
      "t": 516136.41525000124,
      "d": 681.8182500000112,
      "v": 111
    },
    {
      "midi": 59,
      "hit": false,
      "t": 516136.41525000124,
      "d": 681.8182500000112,
      "v": 111
    },
    {
      "midi": 55,
      "hit": false,
      "t": 516136.41525000124,
      "d": 681.8182500000112,
      "v": 79
    },
    {
      "midi": 52,
      "hit": false,
      "t": 516136.41525000124,
      "d": 681.8182500000112,
      "v": 63
    },
    {
      "midi": 60,
      "hit": false,
      "t": 516818.2335000003,
      "d": 4090.909500000009,
      "v": 95
    },
    {
      "midi": 64,
      "hit": false,
      "t": 516818.2335000003,
      "d": 4090.909500000009,
      "v": 95
    },
    {
      "midi": 67,
      "hit": false,
      "t": 516818.2335000003,
      "d": 4090.909500000009,
      "v": 95
    },
    {
      "midi": 59,
      "hit": false,
      "t": 516818.23350000125,
      "d": 2045.4547499999753,
      "v": 111
    },
    {
      "midi": 55,
      "hit": false,
      "t": 516818.23350000125,
      "d": 2045.4547499999753,
      "v": 63
    },
    {
      "midi": 62,
      "hit": false,
      "t": 516818.23350000125,
      "d": 2045.4547499999753,
      "v": 79
    },
    {
      "midi": 52,
      "hit": false,
      "t": 516818.23350000125,
      "d": 2045.4547499999753,
      "v": 63
    },
    {
      "midi": 59,
      "hit": false,
      "t": 518181.87,
      "d": 1363.6365000000224,
      "v": 95
    },
    {
      "midi": 36,
      "hit": false,
      "t": 518181.8700000011,
      "d": 4090.909500000009,
      "v": 95
    },
    {
      "midi": 62,
      "hit": false,
      "t": 518863.6882500012,
      "d": 681.8182500000112,
      "v": 111
    },
    {
      "midi": 57,
      "hit": false,
      "t": 519545.5065,
      "d": 1363.6365000000224,
      "v": 95
    },
    {
      "midi": 62,
      "hit": false,
      "t": 519545.50650000124,
      "d": 681.8182500000112,
      "v": 111
    },
    {
      "midi": 55,
      "hit": false,
      "t": 520909.14300000004,
      "d": 1363.6365000000224,
      "v": 95
    },
    {
      "midi": 52,
      "hit": false,
      "t": 520909.14300000126,
      "d": 1363.6365000000224,
      "v": 79
    },
    {
      "midi": 55,
      "hit": false,
      "t": 520909.14300000126,
      "d": 1363.6365000000224,
      "v": 79
    },
    {
      "midi": 59,
      "hit": false,
      "t": 520909.14300000126,
      "d": 1363.6365000000224,
      "v": 111
    },
    {
      "midi": 62,
      "hit": false,
      "t": 520909.14300000126,
      "d": 1363.6365000000224,
      "v": 95
    },
    {
      "midi": 64,
      "hit": false,
      "t": 521590.961250001,
      "d": 1363.6365000000224,
      "v": 127
    },
    {
      "midi": 52,
      "hit": false,
      "t": 522272.77950000006,
      "d": 1363.6365000000224,
      "v": 95
    },
    {
      "midi": 35,
      "hit": false,
      "t": 522272.7795000011,
      "d": 681.8182500000112,
      "v": 95
    },
    {
      "midi": 62,
      "hit": false,
      "t": 522272.7795000013,
      "d": 681.8182500000112,
      "v": 95
    },
    {
      "midi": 62,
      "hit": false,
      "t": 522954.597750001,
      "d": 2727.2730000000447,
      "v": 127
    },
    {
      "midi": 37,
      "hit": false,
      "t": 522954.5977500011,
      "d": 681.8182500000112,
      "v": 95
    },
    {
      "midi": 62,
      "hit": false,
      "t": 522954.5977500013,
      "d": 681.8182500000112,
      "v": 95
    },
    {
      "midi": 50,
      "hit": false,
      "t": 523636.4160000001,
      "d": 10909.091999999946,
      "v": 79
    },
    {
      "midi": 62,
      "hit": false,
      "t": 523636.4160000003,
      "d": 4090.9094999999506,
      "v": 95
    },
    {
      "midi": 38,
      "hit": false,
      "t": 523636.41600000113,
      "d": 2045.4547500000335,
      "v": 95
    },
    {
      "midi": 64,
      "hit": false,
      "t": 523636.4160000013,
      "d": 2727.2729999999865,
      "v": 120
    },
    {
      "midi": 55,
      "hit": false,
      "t": 523636.4160000013,
      "d": 2727.2729999999865,
      "v": 79
    },
    {
      "midi": 59,
      "hit": false,
      "t": 523636.4160000013,
      "d": 2727.2729999999865,
      "v": 95
    },
    {
      "midi": 52,
      "hit": false,
      "t": 523636.4160000013,
      "d": 2727.2729999999865,
      "v": 63
    },
    {
      "midi": 72,
      "hit": false,
      "t": 525681.870750001,
      "d": 2727.2730000000447,
      "v": 127
    },
    {
      "midi": 38,
      "hit": false,
      "t": 525681.8707500012,
      "d": 681.8182500000112,
      "v": 95
    },
    {
      "midi": 38,
      "hit": false,
      "t": 526363.6890000012,
      "d": 681.8182500000112,
      "v": 95
    },
    {
      "midi": 64,
      "hit": false,
      "t": 526363.6890000013,
      "d": 2727.2730000000447,
      "v": 115
    },
    {
      "midi": 55,
      "hit": false,
      "t": 526363.6890000013,
      "d": 2727.2730000000447,
      "v": 79
    },
    {
      "midi": 59,
      "hit": false,
      "t": 526363.6890000013,
      "d": 2727.2730000000447,
      "v": 95
    },
    {
      "midi": 52,
      "hit": false,
      "t": 526363.6890000013,
      "d": 2727.2730000000447,
      "v": 63
    },
    {
      "midi": 35,
      "hit": false,
      "t": 527727.3255000012,
      "d": 681.8182500000112,
      "v": 95
    },
    {
      "midi": 72,
      "hit": false,
      "t": 528409.1437500011,
      "d": 2045.4547500000335,
      "v": 127
    },
    {
      "midi": 33,
      "hit": false,
      "t": 528409.1437500012,
      "d": 681.8182500000112,
      "v": 95
    },
    {
      "midi": 55,
      "hit": false,
      "t": 529090.9620000003,
      "d": 2727.2730000000447,
      "v": 95
    },
    {
      "midi": 31,
      "hit": false,
      "t": 529090.9620000012,
      "d": 2727.2730000000447,
      "v": 95
    },
    {
      "midi": 55,
      "hit": false,
      "t": 529090.9620000013,
      "d": 681.8182500000112,
      "v": 127
    },
    {
      "midi": 31,
      "hit": false,
      "t": 529090.9620000013,
      "d": 2727.2730000000447,
      "v": 127
    },
    {
      "midi": 43,
      "hit": false,
      "t": 529090.9620000013,
      "d": 2727.2730000000447,
      "v": 127
    },
    {
      "midi": 71,
      "hit": false,
      "t": 530454.5985000011,
      "d": 681.8182500000112,
      "v": 127
    },
    {
      "midi": 71,
      "hit": false,
      "t": 531136.4167500011,
      "d": 2045.4547500000335,
      "v": 127
    },
    {
      "midi": 54,
      "hit": false,
      "t": 531818.2350000003,
      "d": 2727.2730000000447,
      "v": 95
    },
    {
      "midi": 30,
      "hit": false,
      "t": 531818.2350000013,
      "d": 2727.2730000000447,
      "v": 95
    },
    {
      "midi": 54,
      "hit": false,
      "t": 531818.2350000014,
      "d": 681.8182500000112,
      "v": 127
    },
    {
      "midi": 30,
      "hit": false,
      "t": 531818.2350000014,
      "d": 2727.2730000000447,
      "v": 127
    },
    {
      "midi": 42,
      "hit": false,
      "t": 531818.2350000014,
      "d": 2727.2730000000447,
      "v": 127
    },
    {
      "midi": 64,
      "hit": false,
      "t": 533863.6897500012,
      "d": 1363.6365000000224,
      "v": 127
    },
    {
      "midi": 52,
      "hit": false,
      "t": 534545.508,
      "d": 10909.091999999946,
      "v": 95
    },
    {
      "midi": 67,
      "hit": false,
      "t": 534545.5080000004,
      "d": 4090.9094999999506,
      "v": 95
    },
    {
      "midi": 64,
      "hit": false,
      "t": 534545.5080000004,
      "d": 4090.9094999999506,
      "v": 95
    },
    {
      "midi": 28,
      "hit": false,
      "t": 534545.5080000013,
      "d": 1363.6365000000224,
      "v": 95
    },
    {
      "midi": 52,
      "hit": false,
      "t": 534545.5080000014,
      "d": 2045.4547500000335,
      "v": 95
    },
    {
      "midi": 55,
      "hit": false,
      "t": 534545.5080000014,
      "d": 2045.4547500000335,
      "v": 95
    },
    {
      "midi": 59,
      "hit": false,
      "t": 534545.5080000014,
      "d": 2045.4547500000335,
      "v": 95
    },
    {
      "midi": 64,
      "hit": false,
      "t": 534545.5080000014,
      "d": 2045.4547500000335,
      "v": 111
    },
    {
      "midi": 66,
      "hit": false,
      "t": 535227.3262500012,
      "d": 681.8182500000112,
      "v": 127
    },
    {
      "midi": 67,
      "hit": false,
      "t": 535909.1445000012,
      "d": 1363.6365000000224,
      "v": 127
    },
    {
      "midi": 31,
      "hit": false,
      "t": 535909.1445000013,
      "d": 681.8182500000112,
      "v": 95
    },
    {
      "midi": 40,
      "hit": false,
      "t": 536590.9627500013,
      "d": 681.8182500000112,
      "v": 95
    },
    {
      "midi": 52,
      "hit": false,
      "t": 536590.9627500015,
      "d": 681.8182500000112,
      "v": 63
    },
    {
      "midi": 55,
      "hit": false,
      "t": 536590.9627500015,
      "d": 681.8182500000112,
      "v": 79
    },
    {
      "midi": 59,
      "hit": false,
      "t": 536590.9627500015,
      "d": 681.8182500000112,
      "v": 95
    },
    {
      "midi": 64,
      "hit": false,
      "t": 536590.9627500015,
      "d": 681.8182500000112,
      "v": 111
    },
    {
      "midi": 69,
      "hit": false,
      "t": 537272.7810000012,
      "d": 681.8182500000112,
      "v": 127
    },
    {
      "midi": 52,
      "hit": false,
      "t": 537272.7810000015,
      "d": 681.8182500000112,
      "v": 63
    },
    {
      "midi": 55,
      "hit": false,
      "t": 537272.7810000015,
      "d": 681.8182500000112,
      "v": 79
    },
    {
      "midi": 59,
      "hit": false,
      "t": 537272.7810000015,
      "d": 681.8182500000112,
      "v": 95
    },
    {
      "midi": 64,
      "hit": false,
      "t": 537272.7810000015,
      "d": 681.8182500000112,
      "v": 111
    },
    {
      "midi": 71,
      "hit": false,
      "t": 537954.5992500013,
      "d": 2727.2730000000447,
      "v": 127
    },
    {
      "midi": 38,
      "hit": false,
      "t": 537954.5992500014,
      "d": 681.8182500000112,
      "v": 95
    },
    {
      "midi": 52,
      "hit": false,
      "t": 537954.5992500015,
      "d": 681.8182500000112,
      "v": 63
    },
    {
      "midi": 55,
      "hit": false,
      "t": 537954.5992500015,
      "d": 681.8182500000112,
      "v": 79
    },
    {
      "midi": 59,
      "hit": false,
      "t": 537954.5992500015,
      "d": 681.8182500000112,
      "v": 111
    },
    {
      "midi": 64,
      "hit": false,
      "t": 537954.5992500015,
      "d": 681.8182500000112,
      "v": 111
    },
    {
      "midi": 67,
      "hit": false,
      "t": 538636.4175000003,
      "d": 4090.9094999999506,
      "v": 95
    },
    {
      "midi": 64,
      "hit": false,
      "t": 538636.4175000003,
      "d": 4090.9094999999506,
      "v": 95
    },
    {
      "midi": 60,
      "hit": false,
      "t": 538636.4175000003,
      "d": 4090.9094999999506,
      "v": 95
    },
    {
      "midi": 36,
      "hit": false,
      "t": 538636.4175000014,
      "d": 6818.182499999995,
      "v": 95
    },
    {
      "midi": 52,
      "hit": false,
      "t": 538636.4175000015,
      "d": 2045.4547500000335,
      "v": 63
    },
    {
      "midi": 62,
      "hit": false,
      "t": 538636.4175000015,
      "d": 2045.4547500000335,
      "v": 79
    },
    {
      "midi": 55,
      "hit": false,
      "t": 538636.4175000015,
      "d": 2045.4547500000335,
      "v": 63
    },
    {
      "midi": 59,
      "hit": false,
      "t": 538636.4175000015,
      "d": 2045.4547500000335,
      "v": 111
    },
    {
      "midi": 69,
      "hit": false,
      "t": 540681.8722500013,
      "d": 2727.2730000000447,
      "v": 127
    },
    {
      "midi": 62,
      "hit": false,
      "t": 540681.8722500015,
      "d": 681.8182500000112,
      "v": 111
    },
    {
      "midi": 62,
      "hit": false,
      "t": 541363.6905000015,
      "d": 681.8182500000112,
      "v": 111
    },
    {
      "midi": 62,
      "hit": false,
      "t": 542727.3270000016,
      "d": 1363.6365000000224,
      "v": 95
    },
    {
      "midi": 59,
      "hit": false,
      "t": 542727.3270000016,
      "d": 1363.6365000000224,
      "v": 111
    },
    {
      "midi": 55,
      "hit": false,
      "t": 542727.3270000016,
      "d": 1363.6365000000224,
      "v": 79
    },
    {
      "midi": 52,
      "hit": false,
      "t": 542727.3270000016,
      "d": 1363.6365000000224,
      "v": 79
    },
    {
      "midi": 62,
      "hit": false,
      "t": 544090.9635000016,
      "d": 681.8182500000112,
      "v": 89
    },
    {
      "midi": 66,
      "hit": false,
      "t": 544772.7817500014,
      "d": 1363.6365000000224,
      "v": 127
    },
    {
      "midi": 62,
      "hit": false,
      "t": 544772.7817500016,
      "d": 681.8182500000112,
      "v": 89
    },
    {
      "midi": 60,
      "hit": false,
      "t": 545454.6,
      "d": 2727.2730000000447,
      "v": 95
    },
    {
      "midi": 66,
      "hit": false,
      "t": 545454.6000000003,
      "d": 4090.9094999999506,
      "v": 95
    },
    {
      "midi": 63,
      "hit": false,
      "t": 545454.6000000003,
      "d": 4090.9094999999506,
      "v": 95
    },
    {
      "midi": 59,
      "hit": false,
      "t": 545454.6000000003,
      "d": 4090.9094999999506,
      "v": 95
    },
    {
      "midi": 39,
      "hit": false,
      "t": 545454.6000000014,
      "d": 1363.6365000000224,
      "v": 95
    },
    {
      "midi": 66,
      "hit": false,
      "t": 545454.6000000016,
      "d": 2727.2730000000447,
      "v": 111
    },
    {
      "midi": 60,
      "hit": false,
      "t": 545454.6000000016,
      "d": 2727.2730000000447,
      "v": 95
    },
    {
      "midi": 57,
      "hit": false,
      "t": 545454.6000000016,
      "d": 2727.2730000000447,
      "v": 79
    },
    {
      "midi": 66,
      "hit": false,
      "t": 546136.4182500014,
      "d": 681.8182500000112,
      "v": 127
    },
    {
      "midi": 64,
      "hit": false,
      "t": 546818.2365000014,
      "d": 1363.6365000000224,
      "v": 127
    },
    {
      "midi": 35,
      "hit": false,
      "t": 546818.2365000014,
      "d": 1363.6365000000224,
      "v": 95
    },
    {
      "midi": 59,
      "hit": false,
      "t": 548181.873,
      "d": 2727.2730000000447,
      "v": 95
    },
    {
      "midi": 66,
      "hit": false,
      "t": 548181.8730000014,
      "d": 681.8182500000112,
      "v": 127
    },
    {
      "midi": 39,
      "hit": false,
      "t": 548181.8730000014,
      "d": 1363.6365000000224,
      "v": 95
    },
    {
      "midi": 63,
      "hit": false,
      "t": 548181.8730000017,
      "d": 2727.2730000000447,
      "v": 111
    },
    {
      "midi": 54,
      "hit": false,
      "t": 548181.8730000017,
      "d": 2727.2730000000447,
      "v": 79
    },
    {
      "midi": 59,
      "hit": false,
      "t": 548181.8730000017,
      "d": 2727.2730000000447,
      "v": 95
    },
    {
      "midi": 67,
      "hit": false,
      "t": 548863.6912500014,
      "d": 8181.819000000018,
      "v": 127
    },
    {
      "midi": 42,
      "hit": false,
      "t": 549545.5095000014,
      "d": 1363.6365000000224,
      "v": 95
    },
    {
      "midi": 57,
      "hit": false,
      "t": 550909.1460000001,
      "d": 2727.2730000000447,
      "v": 95
    },
    {
      "midi": 64,
      "hit": false,
      "t": 550909.1460000003,
      "d": 4090.909500000067,
      "v": 95
    },
    {
      "midi": 59,
      "hit": false,
      "t": 550909.1460000003,
      "d": 4090.909500000067,
      "v": 95
    },
    {
      "midi": 40,
      "hit": false,
      "t": 550909.1460000015,
      "d": 5454.545999999973,
      "v": 95
    },
    {
      "midi": 64,
      "hit": false,
      "t": 550909.1460000017,
      "d": 2727.2730000000447,
      "v": 111
    },
    {
      "midi": 59,
      "hit": false,
      "t": 550909.1460000017,
      "d": 2727.2730000000447,
      "v": 95
    },
    {
      "midi": 55,
      "hit": false,
      "t": 550909.1460000017,
      "d": 2727.2730000000447,
      "v": 79
    },
    {
      "midi": 55,
      "hit": false,
      "t": 553636.4190000001,
      "d": 2727.2730000000447,
      "v": 95
    },
    {
      "midi": 67,
      "hit": false,
      "t": 553636.4190000003,
      "d": 681.8182500000112,
      "v": 79
    },
    {
      "midi": 64,
      "hit": false,
      "t": 553636.4190000017,
      "d": 681.8182500000112,
      "v": 111
    },
    {
      "midi": 60,
      "hit": false,
      "t": 553636.4190000017,
      "d": 681.8182500000112,
      "v": 111
    },
    {
      "midi": 66,
      "hit": false,
      "t": 554318.2372500004,
      "d": 681.8182500000112,
      "v": 79
    },
    {
      "midi": 64,
      "hit": false,
      "t": 554318.2372500018,
      "d": 681.8182500000112,
      "v": 111
    },
    {
      "midi": 60,
      "hit": false,
      "t": 554318.2372500018,
      "d": 681.8182500000112,
      "v": 111
    },
    {
      "midi": 64,
      "hit": false,
      "t": 555000.0555000004,
      "d": 681.8182500000112,
      "v": 79
    },
    {
      "midi": 52,
      "hit": false,
      "t": 555000.0555000018,
      "d": 1363.6365000000224,
      "v": 111
    },
    {
      "midi": 62,
      "hit": false,
      "t": 555000.0555000018,
      "d": 1363.6365000000224,
      "v": 111
    },
    {
      "midi": 59,
      "hit": false,
      "t": 555000.0555000018,
      "d": 1363.6365000000224,
      "v": 111
    },
    {
      "midi": 62,
      "hit": false,
      "t": 555681.8737500004,
      "d": 681.8182500000112,
      "v": 63
    },
    {
      "midi": 62,
      "hit": false,
      "t": 556363.6920000002,
      "d": 10909.091999999946,
      "v": 95
    },
    {
      "midi": 66,
      "hit": false,
      "t": 556363.6920000002,
      "d": 10909.091999999946,
      "v": 95
    },
    {
      "midi": 54,
      "hit": false,
      "t": 556363.6920000004,
      "d": 5454.545999999973,
      "v": 63
    },
    {
      "midi": 66,
      "hit": false,
      "t": 556363.6920000004,
      "d": 8181.819000000018,
      "v": 100
    },
    {
      "midi": 62,
      "hit": false,
      "t": 556363.6920000004,
      "d": 8181.819000000018,
      "v": 100
    },
    {
      "midi": 62,
      "hit": false,
      "t": 564545.5110000004,
      "d": 1363.6365000000224,
      "v": 100
    },
    {
      "midi": 66,
      "hit": false,
      "t": 565909.1475000004,
      "d": 1363.6365000000224,
      "v": 100
    },
    {
      "midi": 64,
      "hit": false,
      "t": 567272.7840000001,
      "d": 10909.091999999946,
      "v": 95
    },
    {
      "midi": 67,
      "hit": false,
      "t": 567272.7840000001,
      "d": 10909.091999999946,
      "v": 95
    },
    {
      "midi": 64,
      "hit": false,
      "t": 567272.7840000005,
      "d": 8181.819000000018,
      "v": 100
    },
    {
      "midi": 67,
      "hit": false,
      "t": 567272.7840000005,
      "d": 8181.819000000018,
      "v": 100
    },
    {
      "midi": 55,
      "hit": false,
      "t": 567272.7840000005,
      "d": 8181.819000000018,
      "v": 63
    },
    {
      "midi": 71,
      "hit": false,
      "t": 575454.6030000005,
      "d": 2727.2730000000447,
      "v": 81
    },
    {
      "midi": 54,
      "hit": false,
      "t": 578181.876,
      "d": 10909.091999999946,
      "v": 95
    },
    {
      "midi": 57,
      "hit": false,
      "t": 578181.876,
      "d": 10909.091999999946,
      "v": 95
    },
    {
      "midi": 66,
      "hit": false,
      "t": 578181.8760000005,
      "d": 5454.545999999973,
      "v": 100
    },
    {
      "midi": 62,
      "hit": false,
      "t": 578181.8760000005,
      "d": 5454.545999999973,
      "v": 100
    },
    {
      "midi": 54,
      "hit": false,
      "t": 578181.8760000005,
      "d": 5454.545999999973,
      "v": 63
    },
    {
      "midi": 62,
      "hit": false,
      "t": 583636.4220000005,
      "d": 2727.2730000000447,
      "v": 100
    },
    {
      "midi": 57,
      "hit": false,
      "t": 586363.6950000005,
      "d": 2727.2730000000447,
      "v": 100
    },
    {
      "midi": 52,
      "hit": false,
      "t": 589090.968,
      "d": 10909.091999999946,
      "v": 95
    },
    {
      "midi": 55,
      "hit": false,
      "t": 589090.968,
      "d": 10909.091999999946,
      "v": 95
    },
    {
      "midi": 60,
      "hit": false,
      "t": 589090.9680000006,
      "d": 10909.091999999946,
      "v": 95
    },
    {
      "midi": 64,
      "hit": false,
      "t": 589090.9680000006,
      "d": 10909.091999999946,
      "v": 95
    },
    {
      "midi": 52,
      "hit": false,
      "t": 589090.9680000006,
      "d": 10909.091999999946,
      "v": 63
    },
    {
      "midi": 69,
      "hit": false,
      "t": 593181.8775000005,
      "d": 1363.6365000000224,
      "v": 111
    },
    {
      "midi": 74,
      "hit": false,
      "t": 594545.5140000005,
      "d": 2045.4547500000335,
      "v": 111
    },
    {
      "midi": 72,
      "hit": false,
      "t": 596590.9687500006,
      "d": 2045.4547500000335,
      "v": 111
    },
    {
      "midi": 71,
      "hit": false,
      "t": 598636.4235000006,
      "d": 1363.6365000000224,
      "v": 111
    },
    {
      "midi": 66,
      "hit": false,
      "t": 600000.0599999999,
      "d": 10909.091999999946,
      "v": 95
    },
    {
      "midi": 62,
      "hit": false,
      "t": 600000.0599999999,
      "d": 10909.091999999946,
      "v": 95
    },
    {
      "midi": 69,
      "hit": false,
      "t": 600000.0600000006,
      "d": 10909.092000000062,
      "v": 111
    },
    {
      "midi": 52,
      "hit": false,
      "t": 600000.0600000015,
      "d": 10909.091999999946,
      "v": 111
    },
    {
      "midi": 67,
      "hit": false,
      "t": 610909.1519999999,
      "d": 10909.091999999946,
      "v": 95
    },
    {
      "midi": 64,
      "hit": false,
      "t": 610909.1519999999,
      "d": 10909.091999999946,
      "v": 95
    },
    {
      "midi": 71,
      "hit": false,
      "t": 610909.1520000007,
      "d": 10909.091999999946,
      "v": 111
    },
    {
      "midi": 55,
      "hit": false,
      "t": 610909.1520000014,
      "d": 8181.819000000018,
      "v": 111
    },
    {
      "midi": 50,
      "hit": false,
      "t": 619431.8801250014,
      "d": 1363.6365000000224,
      "v": 111
    },
    {
      "midi": 59,
      "hit": false,
      "t": 620795.5166250014,
      "d": 1022.7273750000168,
      "v": 111
    },
    {
      "midi": 57,
      "hit": false,
      "t": 621818.2439999998,
      "d": 10909.091999999946,
      "v": 95
    },
    {
      "midi": 54,
      "hit": false,
      "t": 621818.2439999998,
      "d": 10909.091999999946,
      "v": 95
    },
    {
      "midi": 74,
      "hit": false,
      "t": 621818.2440000006,
      "d": 4090.9094999999506,
      "v": 111
    },
    {
      "midi": 57,
      "hit": false,
      "t": 621818.2440000015,
      "d": 10909.091999999946,
      "v": 111
    },
    {
      "midi": 76,
      "hit": false,
      "t": 625909.1535000006,
      "d": 4090.9094999999506,
      "v": 111
    },
    {
      "midi": 78,
      "hit": false,
      "t": 630000.0630000005,
      "d": 2727.2730000000447,
      "v": 111
    },
    {
      "midi": 62,
      "hit": false,
      "t": 632727.3359999998,
      "d": 10909.091999999946,
      "v": 95
    },
    {
      "midi": 66,
      "hit": false,
      "t": 632727.3359999998,
      "d": 10909.091999999946,
      "v": 95
    },
    {
      "midi": 78,
      "hit": false,
      "t": 632727.3360000006,
      "d": 10909.092000000062,
      "v": 111
    },
    {
      "midi": 45,
      "hit": false,
      "t": 632727.3360000014,
      "d": 10909.091999999946,
      "v": 111
    },
    {
      "midi": 59,
      "hit": false,
      "t": 643636.4279999997,
      "d": 1363.6365000000224,
      "v": 95
    },
    {
      "midi": 71,
      "hit": false,
      "t": 643636.4279999997,
      "d": 1363.6365000000224,
      "v": 95
    },
    {
      "midi": 83,
      "hit": false,
      "t": 643636.4279999997,
      "d": 1363.6365000000224,
      "v": 95
    },
    {
      "midi": 82,
      "hit": false,
      "t": 643636.4280000007,
      "d": 2045.4547500000335,
      "v": 111
    },
    {
      "midi": 35,
      "hit": false,
      "t": 643636.4280000014,
      "d": 2045.4547500000335,
      "v": 111
    },
    {
      "midi": 71,
      "hit": false,
      "t": 645681.8827499998,
      "d": 1363.6365000000224,
      "v": 95
    },
    {
      "midi": 59,
      "hit": false,
      "t": 645681.8827499998,
      "d": 1363.6365000000224,
      "v": 95
    },
    {
      "midi": 83,
      "hit": false,
      "t": 645681.8827499998,
      "d": 1363.6365000000224,
      "v": 95
    },
    {
      "midi": 82,
      "hit": false,
      "t": 645681.8827500007,
      "d": 2045.4547500000335,
      "v": 111
    },
    {
      "midi": 35,
      "hit": false,
      "t": 645681.8827500014,
      "d": 2045.4547500000335,
      "v": 111
    },
    {
      "midi": 59,
      "hit": false,
      "t": 647727.3374999998,
      "d": 1363.6365000000224,
      "v": 95
    },
    {
      "midi": 71,
      "hit": false,
      "t": 647727.3374999998,
      "d": 1363.6365000000224,
      "v": 95
    },
    {
      "midi": 83,
      "hit": false,
      "t": 647727.3374999998,
      "d": 1363.6365000000224,
      "v": 95
    },
    {
      "midi": 82,
      "hit": false,
      "t": 647727.3375000007,
      "d": 1363.6365000000224,
      "v": 111
    },
    {
      "midi": 35,
      "hit": false,
      "t": 647727.3375000014,
      "d": 1363.6365000000224,
      "v": 111
    },
    {
      "midi": 35,
      "hit": false,
      "t": 653181.8835000014,
      "d": 1363.6365000000224,
      "v": 127
    },
    {
      "midi": 64,
      "hit": false,
      "t": 653863.7017500014,
      "d": 1363.6365000000224,
      "v": 127
    },
    {
      "midi": 52,
      "hit": false,
      "t": 654545.5199999998,
      "d": 8181.819000000018,
      "v": 95
    },
    {
      "midi": 64,
      "hit": false,
      "t": 654545.5200000005,
      "d": 4090.9094999999506,
      "v": 95
    },
    {
      "midi": 67,
      "hit": false,
      "t": 654545.5200000005,
      "d": 4090.9094999999506,
      "v": 95
    },
    {
      "midi": 40,
      "hit": false,
      "t": 654545.5200000014,
      "d": 5454.545999999973,
      "v": 95
    },
    {
      "midi": 64,
      "hit": false,
      "t": 654545.5200000018,
      "d": 2045.4547500000335,
      "v": 111
    },
    {
      "midi": 59,
      "hit": false,
      "t": 654545.5200000018,
      "d": 2045.4547500000335,
      "v": 95
    },
    {
      "midi": 55,
      "hit": false,
      "t": 654545.5200000018,
      "d": 2045.4547500000335,
      "v": 95
    },
    {
      "midi": 52,
      "hit": false,
      "t": 654545.5200000018,
      "d": 2045.4547500000335,
      "v": 95
    },
    {
      "midi": 66,
      "hit": false,
      "t": 655227.3382500014,
      "d": 681.8182500000112,
      "v": 127
    },
    {
      "midi": 67,
      "hit": false,
      "t": 655909.1565000014,
      "d": 1363.6365000000224,
      "v": 127
    },
    {
      "midi": 64,
      "hit": false,
      "t": 656590.9747500018,
      "d": 681.8182500000112,
      "v": 111
    },
    {
      "midi": 59,
      "hit": false,
      "t": 656590.9747500018,
      "d": 681.8182500000112,
      "v": 95
    },
    {
      "midi": 55,
      "hit": false,
      "t": 656590.9747500018,
      "d": 681.8182500000112,
      "v": 79
    },
    {
      "midi": 52,
      "hit": false,
      "t": 656590.9747500018,
      "d": 681.8182500000112,
      "v": 63
    },
    {
      "midi": 69,
      "hit": false,
      "t": 657272.7930000015,
      "d": 681.8182500000112,
      "v": 127
    },
    {
      "midi": 64,
      "hit": false,
      "t": 657272.7930000018,
      "d": 681.8182500000112,
      "v": 111
    },
    {
      "midi": 59,
      "hit": false,
      "t": 657272.7930000018,
      "d": 681.8182500000112,
      "v": 95
    },
    {
      "midi": 55,
      "hit": false,
      "t": 657272.7930000018,
      "d": 681.8182500000112,
      "v": 79
    },
    {
      "midi": 52,
      "hit": false,
      "t": 657272.7930000018,
      "d": 681.8182500000112,
      "v": 63
    },
    {
      "midi": 71,
      "hit": false,
      "t": 657954.6112500015,
      "d": 4090.9094999999506,
      "v": 127
    },
    {
      "midi": 64,
      "hit": false,
      "t": 657954.6112500018,
      "d": 681.8182500000112,
      "v": 111
    },
    {
      "midi": 59,
      "hit": false,
      "t": 657954.6112500018,
      "d": 681.8182500000112,
      "v": 111
    },
    {
      "midi": 55,
      "hit": false,
      "t": 657954.6112500018,
      "d": 681.8182500000112,
      "v": 79
    },
    {
      "midi": 52,
      "hit": false,
      "t": 657954.6112500018,
      "d": 681.8182500000112,
      "v": 63
    },
    {
      "midi": 60,
      "hit": false,
      "t": 658636.4295000004,
      "d": 4090.9094999999506,
      "v": 95
    },
    {
      "midi": 64,
      "hit": false,
      "t": 658636.4295000004,
      "d": 4090.9094999999506,
      "v": 95
    },
    {
      "midi": 67,
      "hit": false,
      "t": 658636.4295000004,
      "d": 4090.9094999999506,
      "v": 95
    },
    {
      "midi": 59,
      "hit": false,
      "t": 658636.4295000018,
      "d": 2045.4547500000335,
      "v": 111
    },
    {
      "midi": 55,
      "hit": false,
      "t": 658636.4295000018,
      "d": 2045.4547500000335,
      "v": 63
    },
    {
      "midi": 62,
      "hit": false,
      "t": 658636.4295000018,
      "d": 2045.4547500000335,
      "v": 79
    },
    {
      "midi": 52,
      "hit": false,
      "t": 658636.4295000018,
      "d": 2045.4547500000335,
      "v": 63
    },
    {
      "midi": 59,
      "hit": false,
      "t": 660000.0659999998,
      "d": 1363.6365000000224,
      "v": 95
    },
    {
      "midi": 36,
      "hit": false,
      "t": 660000.0660000014,
      "d": 4090.9094999999506,
      "v": 95
    },
    {
      "midi": 62,
      "hit": false,
      "t": 660681.8842500019,
      "d": 681.8182500000112,
      "v": 111
    },
    {
      "midi": 57,
      "hit": false,
      "t": 661363.7024999998,
      "d": 1363.6365000000224,
      "v": 95
    },
    {
      "midi": 62,
      "hit": false,
      "t": 661363.7025000019,
      "d": 681.8182500000112,
      "v": 111
    },
    {
      "midi": 55,
      "hit": false,
      "t": 662727.3389999998,
      "d": 1363.6365000000224,
      "v": 95
    },
    {
      "midi": 52,
      "hit": false,
      "t": 662727.3390000019,
      "d": 1363.6365000000224,
      "v": 79
    },
    {
      "midi": 55,
      "hit": false,
      "t": 662727.3390000019,
      "d": 1363.6365000000224,
      "v": 79
    },
    {
      "midi": 59,
      "hit": false,
      "t": 662727.3390000019,
      "d": 1363.6365000000224,
      "v": 111
    },
    {
      "midi": 62,
      "hit": false,
      "t": 662727.3390000019,
      "d": 1363.6365000000224,
      "v": 95
    },
    {
      "midi": 64,
      "hit": false,
      "t": 663409.1572500014,
      "d": 1363.6365000000224,
      "v": 127
    },
    {
      "midi": 52,
      "hit": false,
      "t": 664090.9754999998,
      "d": 1363.6365000000224,
      "v": 95
    },
    {
      "midi": 35,
      "hit": false,
      "t": 664090.9755000013,
      "d": 681.8182500000112,
      "v": 95
    },
    {
      "midi": 62,
      "hit": false,
      "t": 664090.9755000019,
      "d": 681.8182500000112,
      "v": 95
    },
    {
      "midi": 37,
      "hit": false,
      "t": 664772.7937500014,
      "d": 681.8182500000112,
      "v": 95
    },
    {
      "midi": 62,
      "hit": false,
      "t": 664772.7937500015,
      "d": 2727.2730000000447,
      "v": 127
    },
    {
      "midi": 62,
      "hit": false,
      "t": 664772.7937500019,
      "d": 681.8182500000112,
      "v": 95
    },
    {
      "midi": 50,
      "hit": false,
      "t": 665454.6119999998,
      "d": 10909.091999999946,
      "v": 79
    },
    {
      "midi": 62,
      "hit": false,
      "t": 665454.6120000004,
      "d": 4090.9094999999506,
      "v": 95
    },
    {
      "midi": 38,
      "hit": false,
      "t": 665454.6120000014,
      "d": 2045.4547500000335,
      "v": 95
    },
    {
      "midi": 64,
      "hit": false,
      "t": 665454.612000002,
      "d": 2727.2730000000447,
      "v": 120
    },
    {
      "midi": 55,
      "hit": false,
      "t": 665454.612000002,
      "d": 2727.2730000000447,
      "v": 79
    },
    {
      "midi": 59,
      "hit": false,
      "t": 665454.612000002,
      "d": 2727.2730000000447,
      "v": 95
    },
    {
      "midi": 52,
      "hit": false,
      "t": 665454.612000002,
      "d": 2727.2730000000447,
      "v": 63
    },
    {
      "midi": 38,
      "hit": false,
      "t": 667500.0667500014,
      "d": 681.8182500000112,
      "v": 95
    },
    {
      "midi": 72,
      "hit": false,
      "t": 667500.0667500015,
      "d": 2727.2730000000447,
      "v": 127
    },
    {
      "midi": 38,
      "hit": false,
      "t": 668181.8850000014,
      "d": 681.8182500000112,
      "v": 95
    },
    {
      "midi": 64,
      "hit": false,
      "t": 668181.885000002,
      "d": 2727.2730000000447,
      "v": 115
    },
    {
      "midi": 55,
      "hit": false,
      "t": 668181.885000002,
      "d": 2727.2730000000447,
      "v": 79
    },
    {
      "midi": 59,
      "hit": false,
      "t": 668181.885000002,
      "d": 2727.2730000000447,
      "v": 95
    },
    {
      "midi": 52,
      "hit": false,
      "t": 668181.885000002,
      "d": 2727.2730000000447,
      "v": 63
    },
    {
      "midi": 35,
      "hit": false,
      "t": 669545.5215000014,
      "d": 681.8182500000112,
      "v": 95
    },
    {
      "midi": 33,
      "hit": false,
      "t": 670227.3397500014,
      "d": 681.8182500000112,
      "v": 95
    },
    {
      "midi": 72,
      "hit": false,
      "t": 670227.3397500016,
      "d": 2045.4547500000335,
      "v": 127
    },
    {
      "midi": 55,
      "hit": false,
      "t": 670909.1580000004,
      "d": 2727.2730000000447,
      "v": 95
    },
    {
      "midi": 31,
      "hit": false,
      "t": 670909.1580000015,
      "d": 2727.2730000000447,
      "v": 95
    },
    {
      "midi": 55,
      "hit": false,
      "t": 670909.158000002,
      "d": 681.8182500000112,
      "v": 127
    },
    {
      "midi": 31,
      "hit": false,
      "t": 670909.158000002,
      "d": 2727.2730000000447,
      "v": 127
    },
    {
      "midi": 43,
      "hit": false,
      "t": 670909.158000002,
      "d": 2727.2730000000447,
      "v": 127
    },
    {
      "midi": 71,
      "hit": false,
      "t": 672272.7945000016,
      "d": 681.8182500000112,
      "v": 127
    },
    {
      "midi": 71,
      "hit": false,
      "t": 672954.6127500016,
      "d": 2045.4547500000335,
      "v": 127
    },
    {
      "midi": 54,
      "hit": false,
      "t": 673636.4310000004,
      "d": 2727.2730000000447,
      "v": 95
    },
    {
      "midi": 30,
      "hit": false,
      "t": 673636.4310000015,
      "d": 2727.2730000000447,
      "v": 95
    },
    {
      "midi": 54,
      "hit": false,
      "t": 673636.4310000021,
      "d": 681.8182500000112,
      "v": 127
    },
    {
      "midi": 30,
      "hit": false,
      "t": 673636.4310000021,
      "d": 2727.2730000000447,
      "v": 127
    },
    {
      "midi": 42,
      "hit": false,
      "t": 673636.4310000021,
      "d": 2727.2730000000447,
      "v": 127
    },
    {
      "midi": 64,
      "hit": false,
      "t": 675681.8857500016,
      "d": 1363.6365000000224,
      "v": 127
    },
    {
      "midi": 52,
      "hit": false,
      "t": 676363.7039999998,
      "d": 8181.819000000018,
      "v": 95
    },
    {
      "midi": 67,
      "hit": false,
      "t": 676363.7040000005,
      "d": 4090.9094999999506,
      "v": 95
    },
    {
      "midi": 64,
      "hit": false,
      "t": 676363.7040000005,
      "d": 4090.9094999999506,
      "v": 95
    },
    {
      "midi": 28,
      "hit": false,
      "t": 676363.7040000015,
      "d": 1363.6365000000224,
      "v": 95
    },
    {
      "midi": 52,
      "hit": false,
      "t": 676363.7040000021,
      "d": 2045.4547500000335,
      "v": 95
    },
    {
      "midi": 55,
      "hit": false,
      "t": 676363.7040000021,
      "d": 2045.4547500000335,
      "v": 95
    },
    {
      "midi": 59,
      "hit": false,
      "t": 676363.7040000021,
      "d": 2045.4547500000335,
      "v": 95
    },
    {
      "midi": 64,
      "hit": false,
      "t": 676363.7040000021,
      "d": 2045.4547500000335,
      "v": 111
    },
    {
      "midi": 66,
      "hit": false,
      "t": 677045.5222500017,
      "d": 681.8182500000112,
      "v": 127
    },
    {
      "midi": 31,
      "hit": false,
      "t": 677727.3405000016,
      "d": 681.8182500000112,
      "v": 95
    },
    {
      "midi": 67,
      "hit": false,
      "t": 677727.3405000017,
      "d": 1363.6365000000224,
      "v": 127
    },
    {
      "midi": 40,
      "hit": false,
      "t": 678409.1587500016,
      "d": 681.8182500000112,
      "v": 95
    },
    {
      "midi": 52,
      "hit": false,
      "t": 678409.1587500022,
      "d": 681.8182500000112,
      "v": 63
    },
    {
      "midi": 55,
      "hit": false,
      "t": 678409.1587500022,
      "d": 681.8182500000112,
      "v": 79
    },
    {
      "midi": 59,
      "hit": false,
      "t": 678409.1587500022,
      "d": 681.8182500000112,
      "v": 95
    },
    {
      "midi": 64,
      "hit": false,
      "t": 678409.1587500022,
      "d": 681.8182500000112,
      "v": 111
    },
    {
      "midi": 69,
      "hit": false,
      "t": 679090.9770000017,
      "d": 681.8182500000112,
      "v": 127
    },
    {
      "midi": 52,
      "hit": false,
      "t": 679090.9770000022,
      "d": 681.8182500000112,
      "v": 63
    },
    {
      "midi": 55,
      "hit": false,
      "t": 679090.9770000022,
      "d": 681.8182500000112,
      "v": 79
    },
    {
      "midi": 59,
      "hit": false,
      "t": 679090.9770000022,
      "d": 681.8182500000112,
      "v": 95
    },
    {
      "midi": 64,
      "hit": false,
      "t": 679090.9770000022,
      "d": 681.8182500000112,
      "v": 111
    },
    {
      "midi": 38,
      "hit": false,
      "t": 679772.7952500016,
      "d": 681.8182500000112,
      "v": 95
    },
    {
      "midi": 71,
      "hit": false,
      "t": 679772.7952500017,
      "d": 2727.2730000000447,
      "v": 127
    },
    {
      "midi": 52,
      "hit": false,
      "t": 679772.7952500022,
      "d": 681.8182500000112,
      "v": 63
    },
    {
      "midi": 55,
      "hit": false,
      "t": 679772.7952500022,
      "d": 681.8182500000112,
      "v": 79
    },
    {
      "midi": 59,
      "hit": false,
      "t": 679772.7952500022,
      "d": 681.8182500000112,
      "v": 111
    },
    {
      "midi": 64,
      "hit": false,
      "t": 679772.7952500022,
      "d": 681.8182500000112,
      "v": 111
    },
    {
      "midi": 67,
      "hit": false,
      "t": 680454.6135000004,
      "d": 4090.9094999999506,
      "v": 95
    },
    {
      "midi": 64,
      "hit": false,
      "t": 680454.6135000004,
      "d": 4090.9094999999506,
      "v": 95
    },
    {
      "midi": 60,
      "hit": false,
      "t": 680454.6135000004,
      "d": 4090.9094999999506,
      "v": 95
    },
    {
      "midi": 36,
      "hit": false,
      "t": 680454.6135000016,
      "d": 6818.182499999995,
      "v": 95
    },
    {
      "midi": 52,
      "hit": false,
      "t": 680454.6135000022,
      "d": 2045.4547500000335,
      "v": 63
    },
    {
      "midi": 62,
      "hit": false,
      "t": 680454.6135000022,
      "d": 2045.4547500000335,
      "v": 79
    },
    {
      "midi": 55,
      "hit": false,
      "t": 680454.6135000022,
      "d": 2045.4547500000335,
      "v": 63
    },
    {
      "midi": 59,
      "hit": false,
      "t": 680454.6135000022,
      "d": 2045.4547500000335,
      "v": 111
    },
    {
      "midi": 59,
      "hit": false,
      "t": 681818.2499999998,
      "d": 1363.6365000000224,
      "v": 95
    },
    {
      "midi": 69,
      "hit": false,
      "t": 682500.0682500018,
      "d": 2727.2730000000447,
      "v": 127
    },
    {
      "midi": 62,
      "hit": false,
      "t": 682500.0682500022,
      "d": 681.8182500000112,
      "v": 111
    },
    {
      "midi": 57,
      "hit": false,
      "t": 683181.8864999998,
      "d": 1363.6365000000224,
      "v": 95
    },
    {
      "midi": 62,
      "hit": false,
      "t": 683181.8865000022,
      "d": 681.8182500000112,
      "v": 111
    },
    {
      "midi": 55,
      "hit": false,
      "t": 684545.5229999998,
      "d": 1363.6365000000224,
      "v": 95
    },
    {
      "midi": 62,
      "hit": false,
      "t": 684545.5230000023,
      "d": 1363.6365000000224,
      "v": 95
    },
    {
      "midi": 59,
      "hit": false,
      "t": 684545.5230000023,
      "d": 1363.6365000000224,
      "v": 111
    },
    {
      "midi": 55,
      "hit": false,
      "t": 684545.5230000023,
      "d": 1363.6365000000224,
      "v": 79
    },
    {
      "midi": 52,
      "hit": false,
      "t": 684545.5230000023,
      "d": 1363.6365000000224,
      "v": 79
    },
    {
      "midi": 52,
      "hit": false,
      "t": 685909.1594999998,
      "d": 1363.6365000000224,
      "v": 95
    },
    {
      "midi": 62,
      "hit": false,
      "t": 685909.1595000023,
      "d": 681.8182500000112,
      "v": 89
    },
    {
      "midi": 66,
      "hit": false,
      "t": 686590.9777500018,
      "d": 2727.2730000000447,
      "v": 127
    },
    {
      "midi": 62,
      "hit": false,
      "t": 686590.9777500023,
      "d": 681.8182500000112,
      "v": 89
    },
    {
      "midi": 57,
      "hit": false,
      "t": 687272.7959999999,
      "d": 2727.2730000000447,
      "v": 79
    },
    {
      "midi": 66,
      "hit": false,
      "t": 687272.7960000004,
      "d": 4090.9094999999506,
      "v": 95
    },
    {
      "midi": 63,
      "hit": false,
      "t": 687272.7960000004,
      "d": 4090.9094999999506,
      "v": 95
    },
    {
      "midi": 59,
      "hit": false,
      "t": 687272.7960000004,
      "d": 4090.9094999999506,
      "v": 95
    },
    {
      "midi": 39,
      "hit": false,
      "t": 687272.7960000016,
      "d": 1363.6365000000224,
      "v": 95
    },
    {
      "midi": 66,
      "hit": false,
      "t": 687272.7960000023,
      "d": 2727.2730000000447,
      "v": 111
    },
    {
      "midi": 60,
      "hit": false,
      "t": 687272.7960000023,
      "d": 2727.2730000000447,
      "v": 95
    },
    {
      "midi": 57,
      "hit": false,
      "t": 687272.7960000023,
      "d": 2727.2730000000447,
      "v": 79
    },
    {
      "midi": 35,
      "hit": false,
      "t": 688636.4325000016,
      "d": 1363.6365000000224,
      "v": 95
    },
    {
      "midi": 69,
      "hit": false,
      "t": 689318.2507500019,
      "d": 2727.2730000000447,
      "v": 127
    },
    {
      "midi": 51,
      "hit": false,
      "t": 690000.0689999999,
      "d": 2727.2730000000447,
      "v": 79
    },
    {
      "midi": 39,
      "hit": false,
      "t": 690000.0690000016,
      "d": 1363.6365000000224,
      "v": 95
    },
    {
      "midi": 63,
      "hit": false,
      "t": 690000.0690000023,
      "d": 2727.2730000000447,
      "v": 111
    },
    {
      "midi": 54,
      "hit": false,
      "t": 690000.0690000023,
      "d": 2727.2730000000447,
      "v": 79
    },
    {
      "midi": 59,
      "hit": false,
      "t": 690000.0690000023,
      "d": 2727.2730000000447,
      "v": 95
    },
    {
      "midi": 42,
      "hit": false,
      "t": 691363.7055000017,
      "d": 1363.6365000000224,
      "v": 95
    },
    {
      "midi": 69,
      "hit": false,
      "t": 692045.5237500019,
      "d": 1363.6365000000224,
      "v": 127
    },
    {
      "midi": 52,
      "hit": false,
      "t": 692727.342,
      "d": 5454.545999999973,
      "v": 79
    },
    {
      "midi": 64,
      "hit": false,
      "t": 692727.3420000004,
      "d": 4090.909500000067,
      "v": 95
    },
    {
      "midi": 59,
      "hit": false,
      "t": 692727.3420000004,
      "d": 4090.909500000067,
      "v": 95
    },
    {
      "midi": 40,
      "hit": false,
      "t": 692727.3420000017,
      "d": 1363.6365000000224,
      "v": 95
    },
    {
      "midi": 64,
      "hit": false,
      "t": 692727.3420000024,
      "d": 2727.2730000000447,
      "v": 111
    },
    {
      "midi": 59,
      "hit": false,
      "t": 692727.3420000024,
      "d": 2727.2730000000447,
      "v": 95
    },
    {
      "midi": 55,
      "hit": false,
      "t": 692727.3420000024,
      "d": 2727.2730000000447,
      "v": 79
    },
    {
      "midi": 67,
      "hit": false,
      "t": 693409.1602500019,
      "d": 681.8182500000112,
      "v": 127
    },
    {
      "midi": 38,
      "hit": false,
      "t": 694090.9785000017,
      "d": 1363.6365000000224,
      "v": 95
    },
    {
      "midi": 67,
      "hit": false,
      "t": 694090.978500002,
      "d": 2045.4547500000335,
      "v": 127
    },
    {
      "midi": 67,
      "hit": false,
      "t": 695454.6150000005,
      "d": 681.8182500000112,
      "v": 79
    },
    {
      "midi": 35,
      "hit": false,
      "t": 695454.6150000017,
      "d": 1363.6365000000224,
      "v": 95
    },
    {
      "midi": 64,
      "hit": false,
      "t": 695454.6150000024,
      "d": 681.8182500000112,
      "v": 111
    },
    {
      "midi": 60,
      "hit": false,
      "t": 695454.6150000024,
      "d": 681.8182500000112,
      "v": 111
    },
    {
      "midi": 66,
      "hit": false,
      "t": 696136.4332500005,
      "d": 681.8182500000112,
      "v": 79
    },
    {
      "midi": 64,
      "hit": false,
      "t": 696136.4332500024,
      "d": 681.8182500000112,
      "v": 111
    },
    {
      "midi": 60,
      "hit": false,
      "t": 696136.4332500024,
      "d": 681.8182500000112,
      "v": 111
    },
    {
      "midi": 64,
      "hit": false,
      "t": 696818.2515000005,
      "d": 681.8182500000112,
      "v": 79
    },
    {
      "midi": 33,
      "hit": false,
      "t": 696818.2515000018,
      "d": 1363.6365000000224,
      "v": 95
    },
    {
      "midi": 62,
      "hit": false,
      "t": 696818.2515000025,
      "d": 1363.6365000000224,
      "v": 111
    },
    {
      "midi": 59,
      "hit": false,
      "t": 696818.2515000025,
      "d": 1363.6365000000224,
      "v": 111
    },
    {
      "midi": 62,
      "hit": false,
      "t": 697500.0697500005,
      "d": 681.8182500000112,
      "v": 63
    },
    {
      "midi": 64,
      "hit": false,
      "t": 697500.069750002,
      "d": 1363.6365000000224,
      "v": 127
    },
    {
      "midi": 52,
      "hit": false,
      "t": 698181.8879999999,
      "d": 8181.819000000018,
      "v": 95
    },
    {
      "midi": 67,
      "hit": false,
      "t": 698181.8880000005,
      "d": 4090.9094999999506,
      "v": 95
    },
    {
      "midi": 64,
      "hit": false,
      "t": 698181.8880000005,
      "d": 4090.9094999999506,
      "v": 95
    },
    {
      "midi": 40,
      "hit": false,
      "t": 698181.8880000018,
      "d": 5454.545999999973,
      "v": 95
    },
    {
      "midi": 52,
      "hit": false,
      "t": 698181.8880000025,
      "d": 2045.4547500000335,
      "v": 95
    },
    {
      "midi": 55,
      "hit": false,
      "t": 698181.8880000025,
      "d": 2045.4547500000335,
      "v": 95
    },
    {
      "midi": 59,
      "hit": false,
      "t": 698181.8880000025,
      "d": 2045.4547500000335,
      "v": 95
    },
    {
      "midi": 64,
      "hit": false,
      "t": 698181.8880000025,
      "d": 2045.4547500000335,
      "v": 111
    },
    {
      "midi": 66,
      "hit": false,
      "t": 698863.706250002,
      "d": 681.8182500000112,
      "v": 127
    },
    {
      "midi": 67,
      "hit": false,
      "t": 699545.524500002,
      "d": 1363.6365000000224,
      "v": 127
    },
    {
      "midi": 52,
      "hit": false,
      "t": 700227.3427500025,
      "d": 681.8182500000112,
      "v": 63
    },
    {
      "midi": 55,
      "hit": false,
      "t": 700227.3427500025,
      "d": 681.8182500000112,
      "v": 79
    },
    {
      "midi": 59,
      "hit": false,
      "t": 700227.3427500025,
      "d": 681.8182500000112,
      "v": 95
    },
    {
      "midi": 64,
      "hit": false,
      "t": 700227.3427500025,
      "d": 681.8182500000112,
      "v": 111
    },
    {
      "midi": 69,
      "hit": false,
      "t": 700909.1610000021,
      "d": 681.8182500000112,
      "v": 127
    },
    {
      "midi": 52,
      "hit": false,
      "t": 700909.1610000025,
      "d": 681.8182500000112,
      "v": 63
    },
    {
      "midi": 55,
      "hit": false,
      "t": 700909.1610000025,
      "d": 681.8182500000112,
      "v": 79
    },
    {
      "midi": 59,
      "hit": false,
      "t": 700909.1610000025,
      "d": 681.8182500000112,
      "v": 95
    },
    {
      "midi": 64,
      "hit": false,
      "t": 700909.1610000025,
      "d": 681.8182500000112,
      "v": 111
    },
    {
      "midi": 71,
      "hit": false,
      "t": 701590.9792500021,
      "d": 4090.9094999999506,
      "v": 127
    },
    {
      "midi": 52,
      "hit": false,
      "t": 701590.9792500025,
      "d": 681.8182500000112,
      "v": 63
    },
    {
      "midi": 55,
      "hit": false,
      "t": 701590.9792500025,
      "d": 681.8182500000112,
      "v": 79
    },
    {
      "midi": 59,
      "hit": false,
      "t": 701590.9792500025,
      "d": 681.8182500000112,
      "v": 111
    },
    {
      "midi": 64,
      "hit": false,
      "t": 701590.9792500025,
      "d": 681.8182500000112,
      "v": 111
    },
    {
      "midi": 67,
      "hit": false,
      "t": 702272.7975000005,
      "d": 4090.9094999999506,
      "v": 95
    },
    {
      "midi": 64,
      "hit": false,
      "t": 702272.7975000005,
      "d": 4090.9094999999506,
      "v": 95
    },
    {
      "midi": 60,
      "hit": false,
      "t": 702272.7975000005,
      "d": 4090.9094999999506,
      "v": 95
    },
    {
      "midi": 52,
      "hit": false,
      "t": 702272.7975000025,
      "d": 2045.4547500000335,
      "v": 63
    },
    {
      "midi": 62,
      "hit": false,
      "t": 702272.7975000025,
      "d": 2045.4547500000335,
      "v": 79
    },
    {
      "midi": 55,
      "hit": false,
      "t": 702272.7975000025,
      "d": 2045.4547500000335,
      "v": 63
    },
    {
      "midi": 59,
      "hit": false,
      "t": 702272.7975000025,
      "d": 2045.4547500000335,
      "v": 111
    },
    {
      "midi": 59,
      "hit": false,
      "t": 703636.4339999999,
      "d": 1363.6365000000224,
      "v": 95
    },
    {
      "midi": 36,
      "hit": false,
      "t": 703636.4340000018,
      "d": 4090.9094999999506,
      "v": 95
    },
    {
      "midi": 62,
      "hit": false,
      "t": 704318.2522500026,
      "d": 681.8182500000112,
      "v": 111
    },
    {
      "midi": 57,
      "hit": false,
      "t": 705000.0704999999,
      "d": 1363.6365000000224,
      "v": 95
    },
    {
      "midi": 62,
      "hit": false,
      "t": 705000.0705000026,
      "d": 681.8182500000112,
      "v": 111
    },
    {
      "midi": 55,
      "hit": false,
      "t": 706363.7069999999,
      "d": 1363.6365000000224,
      "v": 95
    },
    {
      "midi": 62,
      "hit": false,
      "t": 706363.7070000026,
      "d": 1363.6365000000224,
      "v": 95
    },
    {
      "midi": 59,
      "hit": false,
      "t": 706363.7070000026,
      "d": 1363.6365000000224,
      "v": 111
    },
    {
      "midi": 55,
      "hit": false,
      "t": 706363.7070000026,
      "d": 1363.6365000000224,
      "v": 79
    },
    {
      "midi": 52,
      "hit": false,
      "t": 706363.7070000026,
      "d": 1363.6365000000224,
      "v": 79
    },
    {
      "midi": 64,
      "hit": false,
      "t": 707045.525250002,
      "d": 1363.6365000000224,
      "v": 127
    },
    {
      "midi": 52,
      "hit": false,
      "t": 707727.3435,
      "d": 1363.6365000000224,
      "v": 95
    },
    {
      "midi": 35,
      "hit": false,
      "t": 707727.3435000017,
      "d": 681.8182500000112,
      "v": 95
    },
    {
      "midi": 62,
      "hit": false,
      "t": 707727.3435000026,
      "d": 681.8182500000112,
      "v": 95
    },
    {
      "midi": 37,
      "hit": false,
      "t": 708409.1617500017,
      "d": 681.8182500000112,
      "v": 95
    },
    {
      "midi": 62,
      "hit": false,
      "t": 708409.1617500021,
      "d": 2727.2730000000447,
      "v": 127
    },
    {
      "midi": 62,
      "hit": false,
      "t": 708409.1617500026,
      "d": 681.8182500000112,
      "v": 95
    },
    {
      "midi": 50,
      "hit": false,
      "t": 709090.98,
      "d": 10909.091999999946,
      "v": 79
    },
    {
      "midi": 62,
      "hit": false,
      "t": 709090.9800000004,
      "d": 4090.9094999999506,
      "v": 95
    },
    {
      "midi": 38,
      "hit": false,
      "t": 709090.9800000017,
      "d": 2045.4547500000335,
      "v": 95
    },
    {
      "midi": 52,
      "hit": false,
      "t": 709090.9800000027,
      "d": 2727.2730000000447,
      "v": 63
    },
    {
      "midi": 59,
      "hit": false,
      "t": 709090.9800000027,
      "d": 2727.2730000000447,
      "v": 95
    },
    {
      "midi": 55,
      "hit": false,
      "t": 709090.9800000027,
      "d": 2727.2730000000447,
      "v": 79
    },
    {
      "midi": 64,
      "hit": false,
      "t": 709090.9800000027,
      "d": 2727.2730000000447,
      "v": 120
    },
    {
      "midi": 38,
      "hit": false,
      "t": 711136.4347500018,
      "d": 681.8182500000112,
      "v": 95
    },
    {
      "midi": 72,
      "hit": false,
      "t": 711136.4347500021,
      "d": 2727.2730000000447,
      "v": 127
    },
    {
      "midi": 38,
      "hit": false,
      "t": 711818.2530000018,
      "d": 681.8182500000112,
      "v": 95
    },
    {
      "midi": 52,
      "hit": false,
      "t": 711818.2530000027,
      "d": 2727.2730000000447,
      "v": 63
    },
    {
      "midi": 59,
      "hit": false,
      "t": 711818.2530000027,
      "d": 2727.2730000000447,
      "v": 95
    },
    {
      "midi": 55,
      "hit": false,
      "t": 711818.2530000027,
      "d": 2727.2730000000447,
      "v": 79
    },
    {
      "midi": 64,
      "hit": false,
      "t": 711818.2530000027,
      "d": 2727.2730000000447,
      "v": 115
    },
    {
      "midi": 35,
      "hit": false,
      "t": 713181.8895000018,
      "d": 681.8182500000112,
      "v": 95
    },
    {
      "midi": 33,
      "hit": false,
      "t": 713863.7077500018,
      "d": 681.8182500000112,
      "v": 95
    },
    {
      "midi": 72,
      "hit": false,
      "t": 713863.7077500022,
      "d": 2045.4547500000335,
      "v": 127
    },
    {
      "midi": 55,
      "hit": false,
      "t": 714545.5260000004,
      "d": 2727.2730000000447,
      "v": 95
    },
    {
      "midi": 31,
      "hit": false,
      "t": 714545.5260000018,
      "d": 2727.2730000000447,
      "v": 95
    },
    {
      "midi": 55,
      "hit": false,
      "t": 714545.5260000027,
      "d": 681.8182500000112,
      "v": 127
    },
    {
      "midi": 43,
      "hit": false,
      "t": 714545.5260000027,
      "d": 2727.2730000000447,
      "v": 127
    },
    {
      "midi": 31,
      "hit": false,
      "t": 714545.5260000027,
      "d": 2727.2730000000447,
      "v": 127
    },
    {
      "midi": 71,
      "hit": false,
      "t": 715909.1625000022,
      "d": 681.8182500000112,
      "v": 127
    },
    {
      "midi": 71,
      "hit": false,
      "t": 716590.9807500022,
      "d": 2045.4547500000335,
      "v": 127
    },
    {
      "midi": 54,
      "hit": false,
      "t": 717272.7990000005,
      "d": 2727.2730000000447,
      "v": 95
    },
    {
      "midi": 30,
      "hit": false,
      "t": 717272.7990000019,
      "d": 2727.2730000000447,
      "v": 95
    },
    {
      "midi": 54,
      "hit": false,
      "t": 717272.7990000028,
      "d": 681.8182500000112,
      "v": 127
    },
    {
      "midi": 42,
      "hit": false,
      "t": 717272.7990000028,
      "d": 2727.2730000000447,
      "v": 127
    },
    {
      "midi": 30,
      "hit": false,
      "t": 717272.7990000028,
      "d": 2727.2730000000447,
      "v": 127
    },
    {
      "midi": 64,
      "hit": false,
      "t": 719318.2537500022,
      "d": 1363.6365000000224,
      "v": 127
    },
    {
      "midi": 52,
      "hit": false,
      "t": 720000.0719999999,
      "d": 10909.091999999946,
      "v": 95
    },
    {
      "midi": 64,
      "hit": false,
      "t": 720000.0720000005,
      "d": 4090.9094999999506,
      "v": 95
    },
    {
      "midi": 67,
      "hit": false,
      "t": 720000.0720000005,
      "d": 4090.9094999999506,
      "v": 95
    },
    {
      "midi": 28,
      "hit": false,
      "t": 720000.0720000019,
      "d": 1363.6365000000224,
      "v": 95
    },
    {
      "midi": 64,
      "hit": false,
      "t": 720000.0720000028,
      "d": 2045.4547500000335,
      "v": 111
    },
    {
      "midi": 59,
      "hit": false,
      "t": 720000.0720000028,
      "d": 2045.4547500000335,
      "v": 95
    },
    {
      "midi": 55,
      "hit": false,
      "t": 720000.0720000028,
      "d": 2045.4547500000335,
      "v": 95
    },
    {
      "midi": 52,
      "hit": false,
      "t": 720000.0720000028,
      "d": 2045.4547500000335,
      "v": 95
    },
    {
      "midi": 66,
      "hit": false,
      "t": 720681.8902500023,
      "d": 681.8182500000112,
      "v": 127
    },
    {
      "midi": 31,
      "hit": false,
      "t": 721363.7085000019,
      "d": 681.8182500000112,
      "v": 95
    },
    {
      "midi": 67,
      "hit": false,
      "t": 721363.7085000023,
      "d": 1363.6365000000224,
      "v": 127
    },
    {
      "midi": 40,
      "hit": false,
      "t": 722045.5267500019,
      "d": 681.8182500000112,
      "v": 95
    },
    {
      "midi": 64,
      "hit": false,
      "t": 722045.5267500029,
      "d": 681.8182500000112,
      "v": 111
    },
    {
      "midi": 59,
      "hit": false,
      "t": 722045.5267500029,
      "d": 681.8182500000112,
      "v": 95
    },
    {
      "midi": 55,
      "hit": false,
      "t": 722045.5267500029,
      "d": 681.8182500000112,
      "v": 79
    },
    {
      "midi": 52,
      "hit": false,
      "t": 722045.5267500029,
      "d": 681.8182500000112,
      "v": 63
    },
    {
      "midi": 69,
      "hit": false,
      "t": 722727.3450000023,
      "d": 681.8182500000112,
      "v": 127
    },
    {
      "midi": 64,
      "hit": false,
      "t": 722727.3450000029,
      "d": 681.8182500000112,
      "v": 111
    },
    {
      "midi": 59,
      "hit": false,
      "t": 722727.3450000029,
      "d": 681.8182500000112,
      "v": 95
    },
    {
      "midi": 55,
      "hit": false,
      "t": 722727.3450000029,
      "d": 681.8182500000112,
      "v": 79
    },
    {
      "midi": 52,
      "hit": false,
      "t": 722727.3450000029,
      "d": 681.8182500000112,
      "v": 63
    },
    {
      "midi": 38,
      "hit": false,
      "t": 723409.163250002,
      "d": 681.8182500000112,
      "v": 95
    },
    {
      "midi": 71,
      "hit": false,
      "t": 723409.1632500023,
      "d": 2727.2730000000447,
      "v": 127
    },
    {
      "midi": 64,
      "hit": false,
      "t": 723409.1632500029,
      "d": 681.8182500000112,
      "v": 111
    },
    {
      "midi": 59,
      "hit": false,
      "t": 723409.1632500029,
      "d": 681.8182500000112,
      "v": 111
    },
    {
      "midi": 55,
      "hit": false,
      "t": 723409.1632500029,
      "d": 681.8182500000112,
      "v": 79
    },
    {
      "midi": 52,
      "hit": false,
      "t": 723409.1632500029,
      "d": 681.8182500000112,
      "v": 63
    },
    {
      "midi": 60,
      "hit": false,
      "t": 724090.9815000005,
      "d": 4090.9094999999506,
      "v": 95
    },
    {
      "midi": 64,
      "hit": false,
      "t": 724090.9815000005,
      "d": 4090.9094999999506,
      "v": 95
    },
    {
      "midi": 67,
      "hit": false,
      "t": 724090.9815000005,
      "d": 4090.9094999999506,
      "v": 95
    },
    {
      "midi": 36,
      "hit": false,
      "t": 724090.981500002,
      "d": 6818.182499999995,
      "v": 95
    },
    {
      "midi": 59,
      "hit": false,
      "t": 724090.9815000029,
      "d": 2045.4547500000335,
      "v": 111
    },
    {
      "midi": 55,
      "hit": false,
      "t": 724090.9815000029,
      "d": 2045.4547500000335,
      "v": 63
    },
    {
      "midi": 62,
      "hit": false,
      "t": 724090.9815000029,
      "d": 2045.4547500000335,
      "v": 79
    },
    {
      "midi": 52,
      "hit": false,
      "t": 724090.9815000029,
      "d": 2045.4547500000335,
      "v": 63
    },
    {
      "midi": 69,
      "hit": false,
      "t": 726136.4362500024,
      "d": 2727.2730000000447,
      "v": 127
    },
    {
      "midi": 62,
      "hit": false,
      "t": 726136.4362500029,
      "d": 681.8182500000112,
      "v": 111
    },
    {
      "midi": 62,
      "hit": false,
      "t": 726818.254500003,
      "d": 681.8182500000112,
      "v": 111
    },
    {
      "midi": 52,
      "hit": false,
      "t": 728181.891000003,
      "d": 1363.6365000000224,
      "v": 79
    },
    {
      "midi": 55,
      "hit": false,
      "t": 728181.891000003,
      "d": 1363.6365000000224,
      "v": 79
    },
    {
      "midi": 59,
      "hit": false,
      "t": 728181.891000003,
      "d": 1363.6365000000224,
      "v": 111
    },
    {
      "midi": 62,
      "hit": false,
      "t": 728181.891000003,
      "d": 1363.6365000000224,
      "v": 95
    },
    {
      "midi": 62,
      "hit": false,
      "t": 729545.527500003,
      "d": 681.8182500000112,
      "v": 89
    },
    {
      "midi": 66,
      "hit": false,
      "t": 730227.3457500024,
      "d": 1363.6365000000224,
      "v": 127
    },
    {
      "midi": 62,
      "hit": false,
      "t": 730227.345750003,
      "d": 681.8182500000112,
      "v": 89
    },
    {
      "midi": 60,
      "hit": false,
      "t": 730909.1639999999,
      "d": 2727.2730000000447,
      "v": 95
    },
    {
      "midi": 59,
      "hit": false,
      "t": 730909.1640000005,
      "d": 4090.9094999999506,
      "v": 95
    },
    {
      "midi": 63,
      "hit": false,
      "t": 730909.1640000005,
      "d": 4090.9094999999506,
      "v": 95
    },
    {
      "midi": 66,
      "hit": false,
      "t": 730909.1640000005,
      "d": 4090.9094999999506,
      "v": 95
    },
    {
      "midi": 39,
      "hit": false,
      "t": 730909.164000002,
      "d": 1363.6365000000224,
      "v": 95
    },
    {
      "midi": 57,
      "hit": false,
      "t": 730909.164000003,
      "d": 2727.2730000000447,
      "v": 79
    },
    {
      "midi": 60,
      "hit": false,
      "t": 730909.164000003,
      "d": 2727.2730000000447,
      "v": 95
    },
    {
      "midi": 66,
      "hit": false,
      "t": 730909.164000003,
      "d": 2727.2730000000447,
      "v": 111
    },
    {
      "midi": 66,
      "hit": false,
      "t": 731590.9822500024,
      "d": 681.8182500000112,
      "v": 127
    },
    {
      "midi": 35,
      "hit": false,
      "t": 732272.800500002,
      "d": 1363.6365000000224,
      "v": 95
    },
    {
      "midi": 64,
      "hit": false,
      "t": 732272.8005000025,
      "d": 1363.6365000000224,
      "v": 127
    },
    {
      "midi": 59,
      "hit": false,
      "t": 733636.4369999999,
      "d": 2727.2730000000447,
      "v": 95
    },
    {
      "midi": 39,
      "hit": false,
      "t": 733636.437000002,
      "d": 1363.6365000000224,
      "v": 95
    },
    {
      "midi": 66,
      "hit": false,
      "t": 733636.4370000025,
      "d": 681.8182500000112,
      "v": 127
    },
    {
      "midi": 59,
      "hit": false,
      "t": 733636.4370000031,
      "d": 2727.2730000000447,
      "v": 95
    },
    {
      "midi": 54,
      "hit": false,
      "t": 733636.4370000031,
      "d": 2727.2730000000447,
      "v": 79
    },
    {
      "midi": 63,
      "hit": false,
      "t": 733636.4370000031,
      "d": 2727.2730000000447,
      "v": 111
    },
    {
      "midi": 67,
      "hit": false,
      "t": 734318.2552500025,
      "d": 5454.545999999973,
      "v": 127
    },
    {
      "midi": 42,
      "hit": false,
      "t": 735000.073500002,
      "d": 1363.6365000000224,
      "v": 95
    },
    {
      "midi": 57,
      "hit": false,
      "t": 736363.71,
      "d": 2727.2730000000447,
      "v": 95
    },
    {
      "midi": 59,
      "hit": false,
      "t": 736363.7100000004,
      "d": 4090.909500000067,
      "v": 95
    },
    {
      "midi": 64,
      "hit": false,
      "t": 736363.7100000004,
      "d": 4090.909500000067,
      "v": 95
    },
    {
      "midi": 40,
      "hit": false,
      "t": 736363.7100000021,
      "d": 1363.6365000000224,
      "v": 95
    },
    {
      "midi": 55,
      "hit": false,
      "t": 736363.7100000031,
      "d": 2727.2730000000447,
      "v": 79
    },
    {
      "midi": 59,
      "hit": false,
      "t": 736363.7100000031,
      "d": 2727.2730000000447,
      "v": 95
    },
    {
      "midi": 64,
      "hit": false,
      "t": 736363.7100000031,
      "d": 2727.2730000000447,
      "v": 111
    },
    {
      "midi": 79,
      "hit": false,
      "t": 737727.3465000008,
      "d": 2727.2730000000447,
      "v": 95
    },
    {
      "midi": 38,
      "hit": false,
      "t": 737727.3465000021,
      "d": 1363.6365000000224,
      "v": 95
    },
    {
      "midi": 55,
      "hit": false,
      "t": 739090.983,
      "d": 2727.2730000000447,
      "v": 95
    },
    {
      "midi": 67,
      "hit": false,
      "t": 739090.9830000005,
      "d": 681.8182500000112,
      "v": 79
    },
    {
      "midi": 35,
      "hit": false,
      "t": 739090.9830000021,
      "d": 1363.6365000000224,
      "v": 95
    },
    {
      "midi": 60,
      "hit": false,
      "t": 739090.9830000032,
      "d": 681.8182500000112,
      "v": 111
    },
    {
      "midi": 64,
      "hit": false,
      "t": 739090.9830000032,
      "d": 681.8182500000112,
      "v": 111
    },
    {
      "midi": 66,
      "hit": false,
      "t": 739772.8012500005,
      "d": 681.8182500000112,
      "v": 79
    },
    {
      "midi": 60,
      "hit": false,
      "t": 739772.8012500032,
      "d": 681.8182500000112,
      "v": 111
    },
    {
      "midi": 64,
      "hit": false,
      "t": 739772.8012500032,
      "d": 681.8182500000112,
      "v": 111
    },
    {
      "midi": 64,
      "hit": false,
      "t": 740454.6195000005,
      "d": 681.8182500000112,
      "v": 79
    },
    {
      "midi": 81,
      "hit": false,
      "t": 740454.6195000008,
      "d": 545.4546000000555,
      "v": 95
    },
    {
      "midi": 31,
      "hit": false,
      "t": 740454.6195000021,
      "d": 1363.6365000000224,
      "v": 95
    },
    {
      "midi": 59,
      "hit": false,
      "t": 740454.6195000032,
      "d": 1363.6365000000224,
      "v": 111
    },
    {
      "midi": 62,
      "hit": false,
      "t": 740454.6195000032,
      "d": 1363.6365000000224,
      "v": 111
    },
    {
      "midi": 52,
      "hit": false,
      "t": 740454.6195000032,
      "d": 1363.6365000000224,
      "v": 111
    },
    {
      "midi": 62,
      "hit": false,
      "t": 741136.4377500005,
      "d": 681.8182500000112,
      "v": 63
    },
    {
      "midi": 79,
      "hit": false,
      "t": 741136.4377500009,
      "d": 11590.910250000074,
      "v": 95
    },
    {
      "midi": 64,
      "hit": false,
      "t": 741136.4377500025,
      "d": 1363.6365000000224,
      "v": 127
    },
    {
      "midi": 52,
      "hit": false,
      "t": 741818.256,
      "d": 8181.819000000018,
      "v": 95
    },
    {
      "midi": 67,
      "hit": false,
      "t": 741818.2560000005,
      "d": 4090.9094999999506,
      "v": 95
    },
    {
      "midi": 64,
      "hit": false,
      "t": 741818.2560000005,
      "d": 4090.9094999999506,
      "v": 95
    },
    {
      "midi": 40,
      "hit": false,
      "t": 741818.2560000021,
      "d": 5454.545999999973,
      "v": 95
    },
    {
      "midi": 52,
      "hit": false,
      "t": 741818.2560000032,
      "d": 2045.4547500000335,
      "v": 95
    },
    {
      "midi": 55,
      "hit": false,
      "t": 741818.2560000032,
      "d": 2045.4547500000335,
      "v": 95
    },
    {
      "midi": 59,
      "hit": false,
      "t": 741818.2560000032,
      "d": 2045.4547500000335,
      "v": 95
    },
    {
      "midi": 64,
      "hit": false,
      "t": 741818.2560000032,
      "d": 2045.4547500000335,
      "v": 111
    },
    {
      "midi": 66,
      "hit": false,
      "t": 742500.0742500025,
      "d": 681.8182500000112,
      "v": 127
    },
    {
      "midi": 67,
      "hit": false,
      "t": 743181.8925000025,
      "d": 1363.6365000000224,
      "v": 127
    },
    {
      "midi": 52,
      "hit": false,
      "t": 743863.7107500032,
      "d": 681.8182500000112,
      "v": 63
    },
    {
      "midi": 55,
      "hit": false,
      "t": 743863.7107500032,
      "d": 681.8182500000112,
      "v": 79
    },
    {
      "midi": 59,
      "hit": false,
      "t": 743863.7107500032,
      "d": 681.8182500000112,
      "v": 95
    },
    {
      "midi": 64,
      "hit": false,
      "t": 743863.7107500032,
      "d": 681.8182500000112,
      "v": 111
    },
    {
      "midi": 69,
      "hit": false,
      "t": 744545.5290000025,
      "d": 681.8182500000112,
      "v": 127
    },
    {
      "midi": 52,
      "hit": false,
      "t": 744545.5290000032,
      "d": 681.8182500000112,
      "v": 63
    },
    {
      "midi": 55,
      "hit": false,
      "t": 744545.5290000032,
      "d": 681.8182500000112,
      "v": 79
    },
    {
      "midi": 59,
      "hit": false,
      "t": 744545.5290000032,
      "d": 681.8182500000112,
      "v": 95
    },
    {
      "midi": 64,
      "hit": false,
      "t": 744545.5290000032,
      "d": 681.8182500000112,
      "v": 111
    },
    {
      "midi": 71,
      "hit": false,
      "t": 745227.3472500026,
      "d": 4090.9094999999506,
      "v": 127
    },
    {
      "midi": 52,
      "hit": false,
      "t": 745227.3472500033,
      "d": 681.8182500000112,
      "v": 63
    },
    {
      "midi": 55,
      "hit": false,
      "t": 745227.3472500033,
      "d": 681.8182500000112,
      "v": 79
    },
    {
      "midi": 59,
      "hit": false,
      "t": 745227.3472500033,
      "d": 681.8182500000112,
      "v": 111
    },
    {
      "midi": 64,
      "hit": false,
      "t": 745227.3472500033,
      "d": 681.8182500000112,
      "v": 111
    },
    {
      "midi": 67,
      "hit": false,
      "t": 745909.1655000005,
      "d": 4090.9094999999506,
      "v": 95
    },
    {
      "midi": 64,
      "hit": false,
      "t": 745909.1655000005,
      "d": 4090.9094999999506,
      "v": 95
    },
    {
      "midi": 60,
      "hit": false,
      "t": 745909.1655000005,
      "d": 4090.9094999999506,
      "v": 95
    },
    {
      "midi": 52,
      "hit": false,
      "t": 745909.1655000033,
      "d": 2045.4547500000335,
      "v": 63
    },
    {
      "midi": 62,
      "hit": false,
      "t": 745909.1655000033,
      "d": 2045.4547500000335,
      "v": 79
    },
    {
      "midi": 55,
      "hit": false,
      "t": 745909.1655000033,
      "d": 2045.4547500000335,
      "v": 63
    },
    {
      "midi": 59,
      "hit": false,
      "t": 745909.1655000033,
      "d": 2045.4547500000335,
      "v": 111
    },
    {
      "midi": 59,
      "hit": false,
      "t": 747272.802,
      "d": 1363.6365000000224,
      "v": 95
    },
    {
      "midi": 36,
      "hit": false,
      "t": 747272.8020000021,
      "d": 4090.9094999999506,
      "v": 95
    },
    {
      "midi": 62,
      "hit": false,
      "t": 747954.6202500033,
      "d": 681.8182500000112,
      "v": 111
    },
    {
      "midi": 57,
      "hit": false,
      "t": 748636.4385,
      "d": 1363.6365000000224,
      "v": 95
    },
    {
      "midi": 62,
      "hit": false,
      "t": 748636.4385000033,
      "d": 681.8182500000112,
      "v": 111
    },
    {
      "midi": 55,
      "hit": false,
      "t": 750000.0750000001,
      "d": 1363.6365000000224,
      "v": 95
    },
    {
      "midi": 62,
      "hit": false,
      "t": 750000.0750000033,
      "d": 1363.6365000000224,
      "v": 95
    },
    {
      "midi": 59,
      "hit": false,
      "t": 750000.0750000033,
      "d": 1363.6365000000224,
      "v": 111
    },
    {
      "midi": 55,
      "hit": false,
      "t": 750000.0750000033,
      "d": 1363.6365000000224,
      "v": 79
    },
    {
      "midi": 52,
      "hit": false,
      "t": 750000.0750000033,
      "d": 1363.6365000000224,
      "v": 79
    },
    {
      "midi": 64,
      "hit": false,
      "t": 750681.8932500025,
      "d": 1363.6365000000224,
      "v": 127
    },
    {
      "midi": 52,
      "hit": false,
      "t": 751363.7115000001,
      "d": 1363.6365000000224,
      "v": 95
    },
    {
      "midi": 35,
      "hit": false,
      "t": 751363.7115000021,
      "d": 681.8182500000112,
      "v": 95
    },
    {
      "midi": 62,
      "hit": false,
      "t": 751363.7115000034,
      "d": 681.8182500000112,
      "v": 95
    },
    {
      "midi": 37,
      "hit": false,
      "t": 752045.5297500021,
      "d": 681.8182500000112,
      "v": 95
    },
    {
      "midi": 62,
      "hit": false,
      "t": 752045.5297500025,
      "d": 2727.2730000000447,
      "v": 127
    },
    {
      "midi": 62,
      "hit": false,
      "t": 752045.5297500034,
      "d": 681.8182500000112,
      "v": 95
    },
    {
      "midi": 50,
      "hit": false,
      "t": 752727.3480000001,
      "d": 10909.091999999946,
      "v": 79
    },
    {
      "midi": 62,
      "hit": false,
      "t": 752727.3480000005,
      "d": 4090.9094999999506,
      "v": 95
    },
    {
      "midi": 38,
      "hit": false,
      "t": 752727.3480000021,
      "d": 2045.4547500000335,
      "v": 95
    },
    {
      "midi": 52,
      "hit": false,
      "t": 752727.3480000034,
      "d": 2727.2730000000447,
      "v": 63
    },
    {
      "midi": 59,
      "hit": false,
      "t": 752727.3480000034,
      "d": 2727.2730000000447,
      "v": 95
    },
    {
      "midi": 55,
      "hit": false,
      "t": 752727.3480000034,
      "d": 2727.2730000000447,
      "v": 79
    },
    {
      "midi": 64,
      "hit": false,
      "t": 752727.3480000034,
      "d": 2727.2730000000447,
      "v": 120
    },
    {
      "midi": 38,
      "hit": false,
      "t": 754772.8027500021,
      "d": 681.8182500000112,
      "v": 95
    },
    {
      "midi": 72,
      "hit": false,
      "t": 754772.8027500026,
      "d": 2727.2730000000447,
      "v": 127
    },
    {
      "midi": 38,
      "hit": false,
      "t": 755454.6210000021,
      "d": 681.8182500000112,
      "v": 95
    },
    {
      "midi": 52,
      "hit": false,
      "t": 755454.6210000034,
      "d": 2727.2730000000447,
      "v": 63
    },
    {
      "midi": 59,
      "hit": false,
      "t": 755454.6210000034,
      "d": 2727.2730000000447,
      "v": 95
    },
    {
      "midi": 55,
      "hit": false,
      "t": 755454.6210000034,
      "d": 2727.2730000000447,
      "v": 79
    },
    {
      "midi": 64,
      "hit": false,
      "t": 755454.6210000034,
      "d": 2727.2730000000447,
      "v": 115
    },
    {
      "midi": 35,
      "hit": false,
      "t": 756818.2575000022,
      "d": 681.8182500000112,
      "v": 95
    },
    {
      "midi": 33,
      "hit": false,
      "t": 757500.0757500022,
      "d": 681.8182500000112,
      "v": 95
    },
    {
      "midi": 72,
      "hit": false,
      "t": 757500.0757500026,
      "d": 2045.4547500000335,
      "v": 127
    },
    {
      "midi": 55,
      "hit": false,
      "t": 758181.8940000004,
      "d": 2727.2730000000447,
      "v": 95
    },
    {
      "midi": 31,
      "hit": false,
      "t": 758181.8940000022,
      "d": 2727.2730000000447,
      "v": 95
    },
    {
      "midi": 55,
      "hit": false,
      "t": 758181.8940000035,
      "d": 681.8182500000112,
      "v": 127
    },
    {
      "midi": 43,
      "hit": false,
      "t": 758181.8940000035,
      "d": 2727.2730000000447,
      "v": 127
    },
    {
      "midi": 31,
      "hit": false,
      "t": 758181.8940000035,
      "d": 2727.2730000000447,
      "v": 127
    },
    {
      "midi": 71,
      "hit": false,
      "t": 759545.5305000027,
      "d": 681.8182500000112,
      "v": 127
    },
    {
      "midi": 71,
      "hit": false,
      "t": 760227.3487500027,
      "d": 2045.4547500000335,
      "v": 127
    },
    {
      "midi": 54,
      "hit": false,
      "t": 760909.1670000005,
      "d": 2727.2730000000447,
      "v": 95
    },
    {
      "midi": 30,
      "hit": false,
      "t": 760909.1670000022,
      "d": 2727.2730000000447,
      "v": 95
    },
    {
      "midi": 54,
      "hit": false,
      "t": 760909.1670000035,
      "d": 681.8182500000112,
      "v": 127
    },
    {
      "midi": 42,
      "hit": false,
      "t": 760909.1670000035,
      "d": 2727.2730000000447,
      "v": 127
    },
    {
      "midi": 30,
      "hit": false,
      "t": 760909.1670000035,
      "d": 2727.2730000000447,
      "v": 127
    },
    {
      "midi": 64,
      "hit": false,
      "t": 762954.6217500027,
      "d": 1363.6365000000224,
      "v": 127
    },
    {
      "midi": 52,
      "hit": false,
      "t": 763636.4400000001,
      "d": 8181.819000000018,
      "v": 95
    },
    {
      "midi": 64,
      "hit": false,
      "t": 763636.4400000005,
      "d": 4090.9094999999506,
      "v": 95
    },
    {
      "midi": 67,
      "hit": false,
      "t": 763636.4400000005,
      "d": 4090.9094999999506,
      "v": 95
    },
    {
      "midi": 28,
      "hit": false,
      "t": 763636.4400000023,
      "d": 1363.6365000000224,
      "v": 95
    },
    {
      "midi": 64,
      "hit": false,
      "t": 763636.4400000036,
      "d": 2045.4547500000335,
      "v": 111
    },
    {
      "midi": 59,
      "hit": false,
      "t": 763636.4400000036,
      "d": 2045.4547500000335,
      "v": 95
    },
    {
      "midi": 55,
      "hit": false,
      "t": 763636.4400000036,
      "d": 2045.4547500000335,
      "v": 95
    },
    {
      "midi": 52,
      "hit": false,
      "t": 763636.4400000036,
      "d": 2045.4547500000335,
      "v": 95
    },
    {
      "midi": 66,
      "hit": false,
      "t": 764318.2582500027,
      "d": 681.8182500000112,
      "v": 127
    },
    {
      "midi": 31,
      "hit": false,
      "t": 765000.0765000023,
      "d": 681.8182500000112,
      "v": 95
    },
    {
      "midi": 67,
      "hit": false,
      "t": 765000.0765000028,
      "d": 1363.6365000000224,
      "v": 127
    },
    {
      "midi": 40,
      "hit": false,
      "t": 765681.8947500023,
      "d": 681.8182500000112,
      "v": 95
    },
    {
      "midi": 64,
      "hit": false,
      "t": 765681.8947500036,
      "d": 681.8182500000112,
      "v": 111
    },
    {
      "midi": 59,
      "hit": false,
      "t": 765681.8947500036,
      "d": 681.8182500000112,
      "v": 95
    },
    {
      "midi": 55,
      "hit": false,
      "t": 765681.8947500036,
      "d": 681.8182500000112,
      "v": 79
    },
    {
      "midi": 52,
      "hit": false,
      "t": 765681.8947500036,
      "d": 681.8182500000112,
      "v": 63
    },
    {
      "midi": 69,
      "hit": false,
      "t": 766363.7130000028,
      "d": 681.8182500000112,
      "v": 127
    },
    {
      "midi": 64,
      "hit": false,
      "t": 766363.7130000036,
      "d": 681.8182500000112,
      "v": 111
    },
    {
      "midi": 59,
      "hit": false,
      "t": 766363.7130000036,
      "d": 681.8182500000112,
      "v": 95
    },
    {
      "midi": 55,
      "hit": false,
      "t": 766363.7130000036,
      "d": 681.8182500000112,
      "v": 79
    },
    {
      "midi": 52,
      "hit": false,
      "t": 766363.7130000036,
      "d": 681.8182500000112,
      "v": 63
    },
    {
      "midi": 38,
      "hit": false,
      "t": 767045.5312500023,
      "d": 681.8182500000112,
      "v": 95
    },
    {
      "midi": 71,
      "hit": false,
      "t": 767045.5312500028,
      "d": 2727.2730000000447,
      "v": 127
    },
    {
      "midi": 64,
      "hit": false,
      "t": 767045.5312500036,
      "d": 681.8182500000112,
      "v": 111
    },
    {
      "midi": 59,
      "hit": false,
      "t": 767045.5312500036,
      "d": 681.8182500000112,
      "v": 111
    },
    {
      "midi": 55,
      "hit": false,
      "t": 767045.5312500036,
      "d": 681.8182500000112,
      "v": 79
    },
    {
      "midi": 52,
      "hit": false,
      "t": 767045.5312500036,
      "d": 681.8182500000112,
      "v": 63
    },
    {
      "midi": 60,
      "hit": false,
      "t": 767727.3495000005,
      "d": 4090.9094999999506,
      "v": 95
    },
    {
      "midi": 64,
      "hit": false,
      "t": 767727.3495000005,
      "d": 4090.9094999999506,
      "v": 95
    },
    {
      "midi": 67,
      "hit": false,
      "t": 767727.3495000005,
      "d": 4090.9094999999506,
      "v": 95
    },
    {
      "midi": 36,
      "hit": false,
      "t": 767727.3495000023,
      "d": 6818.182499999995,
      "v": 95
    },
    {
      "midi": 59,
      "hit": false,
      "t": 767727.3495000036,
      "d": 2045.4547500000335,
      "v": 111
    },
    {
      "midi": 55,
      "hit": false,
      "t": 767727.3495000036,
      "d": 2045.4547500000335,
      "v": 63
    },
    {
      "midi": 62,
      "hit": false,
      "t": 767727.3495000036,
      "d": 2045.4547500000335,
      "v": 79
    },
    {
      "midi": 52,
      "hit": false,
      "t": 767727.3495000036,
      "d": 2045.4547500000335,
      "v": 63
    },
    {
      "midi": 59,
      "hit": false,
      "t": 769090.986,
      "d": 1363.6365000000224,
      "v": 95
    },
    {
      "midi": 69,
      "hit": false,
      "t": 769772.8042500028,
      "d": 2727.2730000000447,
      "v": 127
    },
    {
      "midi": 62,
      "hit": false,
      "t": 769772.8042500037,
      "d": 681.8182500000112,
      "v": 111
    },
    {
      "midi": 57,
      "hit": false,
      "t": 770454.6225,
      "d": 1363.6365000000224,
      "v": 95
    },
    {
      "midi": 62,
      "hit": false,
      "t": 770454.6225000037,
      "d": 681.8182500000112,
      "v": 111
    },
    {
      "midi": 55,
      "hit": false,
      "t": 771818.2590000001,
      "d": 1363.6365000000224,
      "v": 95
    },
    {
      "midi": 52,
      "hit": false,
      "t": 771818.2590000037,
      "d": 1363.6365000000224,
      "v": 79
    },
    {
      "midi": 55,
      "hit": false,
      "t": 771818.2590000037,
      "d": 1363.6365000000224,
      "v": 79
    },
    {
      "midi": 59,
      "hit": false,
      "t": 771818.2590000037,
      "d": 1363.6365000000224,
      "v": 111
    },
    {
      "midi": 62,
      "hit": false,
      "t": 771818.2590000037,
      "d": 1363.6365000000224,
      "v": 95
    },
    {
      "midi": 52,
      "hit": false,
      "t": 773181.8955000001,
      "d": 1363.6365000000224,
      "v": 95
    },
    {
      "midi": 62,
      "hit": false,
      "t": 773181.8955000037,
      "d": 681.8182500000112,
      "v": 89
    },
    {
      "midi": 66,
      "hit": false,
      "t": 773863.7137500029,
      "d": 2727.2730000000447,
      "v": 127
    },
    {
      "midi": 62,
      "hit": false,
      "t": 773863.7137500037,
      "d": 681.8182500000112,
      "v": 89
    },
    {
      "midi": 57,
      "hit": false,
      "t": 774545.5320000001,
      "d": 2727.2730000000447,
      "v": 79
    },
    {
      "midi": 59,
      "hit": false,
      "t": 774545.5320000005,
      "d": 4090.9094999999506,
      "v": 95
    },
    {
      "midi": 63,
      "hit": false,
      "t": 774545.5320000005,
      "d": 4090.9094999999506,
      "v": 95
    },
    {
      "midi": 66,
      "hit": false,
      "t": 774545.5320000005,
      "d": 4090.9094999999506,
      "v": 95
    },
    {
      "midi": 39,
      "hit": false,
      "t": 774545.5320000023,
      "d": 1363.6365000000224,
      "v": 95
    },
    {
      "midi": 57,
      "hit": false,
      "t": 774545.5320000037,
      "d": 2727.2730000000447,
      "v": 79
    },
    {
      "midi": 60,
      "hit": false,
      "t": 774545.5320000037,
      "d": 2727.2730000000447,
      "v": 95
    },
    {
      "midi": 66,
      "hit": false,
      "t": 774545.5320000037,
      "d": 2727.2730000000447,
      "v": 111
    },
    {
      "midi": 35,
      "hit": false,
      "t": 775909.1685000024,
      "d": 1363.6365000000224,
      "v": 95
    },
    {
      "midi": 69,
      "hit": false,
      "t": 776590.986750003,
      "d": 2727.2730000000447,
      "v": 127
    },
    {
      "midi": 51,
      "hit": false,
      "t": 777272.8050000002,
      "d": 2727.2730000000447,
      "v": 79
    },
    {
      "midi": 39,
      "hit": false,
      "t": 777272.8050000024,
      "d": 1363.6365000000224,
      "v": 95
    },
    {
      "midi": 59,
      "hit": false,
      "t": 777272.8050000038,
      "d": 2727.2730000000447,
      "v": 95
    },
    {
      "midi": 54,
      "hit": false,
      "t": 777272.8050000038,
      "d": 2727.2730000000447,
      "v": 79
    },
    {
      "midi": 63,
      "hit": false,
      "t": 777272.8050000038,
      "d": 2727.2730000000447,
      "v": 111
    },
    {
      "midi": 42,
      "hit": false,
      "t": 778636.4415000024,
      "d": 1363.6365000000224,
      "v": 95
    },
    {
      "midi": 69,
      "hit": false,
      "t": 779318.259750003,
      "d": 1363.6365000000224,
      "v": 127
    },
    {
      "midi": 52,
      "hit": false,
      "t": 780000.0780000002,
      "d": 5454.545999999973,
      "v": 79
    },
    {
      "midi": 59,
      "hit": false,
      "t": 780000.0780000004,
      "d": 4090.909500000067,
      "v": 95
    },
    {
      "midi": 64,
      "hit": false,
      "t": 780000.0780000004,
      "d": 4090.909500000067,
      "v": 95
    },
    {
      "midi": 40,
      "hit": false,
      "t": 780000.0780000024,
      "d": 1363.6365000000224,
      "v": 95
    },
    {
      "midi": 55,
      "hit": false,
      "t": 780000.0780000038,
      "d": 2727.2730000000447,
      "v": 79
    },
    {
      "midi": 59,
      "hit": false,
      "t": 780000.0780000038,
      "d": 2727.2730000000447,
      "v": 95
    },
    {
      "midi": 64,
      "hit": false,
      "t": 780000.0780000038,
      "d": 2727.2730000000447,
      "v": 111
    },
    {
      "midi": 71,
      "hit": false,
      "t": 780681.896250003,
      "d": 681.8182500000112,
      "v": 127
    },
    {
      "midi": 81,
      "hit": false,
      "t": 781363.7145000009,
      "d": 681.8182500000112,
      "v": 95
    },
    {
      "midi": 38,
      "hit": false,
      "t": 781363.7145000024,
      "d": 1363.6365000000224,
      "v": 95
    },
    {
      "midi": 69,
      "hit": false,
      "t": 781363.714500003,
      "d": 1363.6365000000224,
      "v": 127
    },
    {
      "midi": 79,
      "hit": false,
      "t": 782045.532750001,
      "d": 2045.4547500000335,
      "v": 95
    },
    {
      "midi": 67,
      "hit": false,
      "t": 782727.3510000005,
      "d": 681.8182500000112,
      "v": 79
    },
    {
      "midi": 35,
      "hit": false,
      "t": 782727.3510000025,
      "d": 1363.6365000000224,
      "v": 95
    },
    {
      "midi": 67,
      "hit": false,
      "t": 782727.351000003,
      "d": 2045.4547500000335,
      "v": 127
    },
    {
      "midi": 60,
      "hit": false,
      "t": 782727.3510000039,
      "d": 681.8182500000112,
      "v": 111
    },
    {
      "midi": 64,
      "hit": false,
      "t": 782727.3510000039,
      "d": 681.8182500000112,
      "v": 111
    },
    {
      "midi": 66,
      "hit": false,
      "t": 783409.1692500005,
      "d": 681.8182500000112,
      "v": 79
    },
    {
      "midi": 60,
      "hit": false,
      "t": 783409.1692500039,
      "d": 681.8182500000112,
      "v": 111
    },
    {
      "midi": 64,
      "hit": false,
      "t": 783409.1692500039,
      "d": 681.8182500000112,
      "v": 111
    },
    {
      "midi": 64,
      "hit": false,
      "t": 784090.9875000005,
      "d": 681.8182500000112,
      "v": 79
    },
    {
      "midi": 81,
      "hit": false,
      "t": 784090.987500001,
      "d": 681.8182500000112,
      "v": 95
    },
    {
      "midi": 33,
      "hit": false,
      "t": 784090.9875000025,
      "d": 1363.6365000000224,
      "v": 95
    },
    {
      "midi": 59,
      "hit": false,
      "t": 784090.9875000039,
      "d": 1363.6365000000224,
      "v": 111
    },
    {
      "midi": 62,
      "hit": false,
      "t": 784090.9875000039,
      "d": 1363.6365000000224,
      "v": 111
    },
    {
      "midi": 62,
      "hit": false,
      "t": 784772.8057500005,
      "d": 681.8182500000112,
      "v": 63
    },
    {
      "midi": 83,
      "hit": false,
      "t": 784772.805750001,
      "d": 11590.910250000074,
      "v": 95
    },
    {
      "midi": 64,
      "hit": false,
      "t": 784772.8057500031,
      "d": 1363.6365000000224,
      "v": 127
    },
    {
      "midi": 52,
      "hit": false,
      "t": 785454.6240000002,
      "d": 8181.819000000018,
      "v": 95
    },
    {
      "midi": 64,
      "hit": false,
      "t": 785454.6240000005,
      "d": 4090.9094999999506,
      "v": 95
    },
    {
      "midi": 67,
      "hit": false,
      "t": 785454.6240000005,
      "d": 4090.9094999999506,
      "v": 95
    },
    {
      "midi": 40,
      "hit": false,
      "t": 785454.6240000025,
      "d": 5454.545999999973,
      "v": 95
    },
    {
      "midi": 64,
      "hit": false,
      "t": 785454.6240000039,
      "d": 2045.4547500000335,
      "v": 111
    },
    {
      "midi": 59,
      "hit": false,
      "t": 785454.6240000039,
      "d": 2045.4547500000335,
      "v": 95
    },
    {
      "midi": 55,
      "hit": false,
      "t": 785454.6240000039,
      "d": 2045.4547500000335,
      "v": 95
    },
    {
      "midi": 52,
      "hit": false,
      "t": 785454.6240000039,
      "d": 2045.4547500000335,
      "v": 95
    },
    {
      "midi": 66,
      "hit": false,
      "t": 786136.4422500031,
      "d": 681.8182500000112,
      "v": 127
    },
    {
      "midi": 67,
      "hit": false,
      "t": 786818.2605000031,
      "d": 1363.6365000000224,
      "v": 127
    },
    {
      "midi": 64,
      "hit": false,
      "t": 787500.078750004,
      "d": 681.8182500000112,
      "v": 111
    },
    {
      "midi": 59,
      "hit": false,
      "t": 787500.078750004,
      "d": 681.8182500000112,
      "v": 95
    },
    {
      "midi": 55,
      "hit": false,
      "t": 787500.078750004,
      "d": 681.8182500000112,
      "v": 79
    },
    {
      "midi": 52,
      "hit": false,
      "t": 787500.078750004,
      "d": 681.8182500000112,
      "v": 63
    },
    {
      "midi": 69,
      "hit": false,
      "t": 788181.8970000031,
      "d": 681.8182500000112,
      "v": 127
    },
    {
      "midi": 64,
      "hit": false,
      "t": 788181.897000004,
      "d": 681.8182500000112,
      "v": 111
    },
    {
      "midi": 59,
      "hit": false,
      "t": 788181.897000004,
      "d": 681.8182500000112,
      "v": 95
    },
    {
      "midi": 55,
      "hit": false,
      "t": 788181.897000004,
      "d": 681.8182500000112,
      "v": 79
    },
    {
      "midi": 52,
      "hit": false,
      "t": 788181.897000004,
      "d": 681.8182500000112,
      "v": 63
    },
    {
      "midi": 71,
      "hit": false,
      "t": 788863.7152500032,
      "d": 4090.9094999999506,
      "v": 127
    },
    {
      "midi": 64,
      "hit": false,
      "t": 788863.715250004,
      "d": 681.8182500000112,
      "v": 111
    },
    {
      "midi": 59,
      "hit": false,
      "t": 788863.715250004,
      "d": 681.8182500000112,
      "v": 111
    },
    {
      "midi": 55,
      "hit": false,
      "t": 788863.715250004,
      "d": 681.8182500000112,
      "v": 79
    },
    {
      "midi": 52,
      "hit": false,
      "t": 788863.715250004,
      "d": 681.8182500000112,
      "v": 63
    },
    {
      "midi": 60,
      "hit": false,
      "t": 789545.5335000005,
      "d": 4090.9094999999506,
      "v": 95
    },
    {
      "midi": 64,
      "hit": false,
      "t": 789545.5335000005,
      "d": 4090.9094999999506,
      "v": 95
    },
    {
      "midi": 67,
      "hit": false,
      "t": 789545.5335000005,
      "d": 4090.9094999999506,
      "v": 95
    },
    {
      "midi": 59,
      "hit": false,
      "t": 789545.533500004,
      "d": 2045.4547500000335,
      "v": 111
    },
    {
      "midi": 55,
      "hit": false,
      "t": 789545.533500004,
      "d": 2045.4547500000335,
      "v": 63
    },
    {
      "midi": 62,
      "hit": false,
      "t": 789545.533500004,
      "d": 2045.4547500000335,
      "v": 79
    },
    {
      "midi": 52,
      "hit": false,
      "t": 789545.533500004,
      "d": 2045.4547500000335,
      "v": 63
    },
    {
      "midi": 59,
      "hit": false,
      "t": 790909.1700000002,
      "d": 1363.6365000000224,
      "v": 95
    },
    {
      "midi": 36,
      "hit": false,
      "t": 790909.1700000025,
      "d": 4090.9094999999506,
      "v": 95
    },
    {
      "midi": 62,
      "hit": false,
      "t": 791590.988250004,
      "d": 681.8182500000112,
      "v": 111
    },
    {
      "midi": 57,
      "hit": false,
      "t": 792272.8065000002,
      "d": 1363.6365000000224,
      "v": 95
    },
    {
      "midi": 62,
      "hit": false,
      "t": 792272.806500004,
      "d": 681.8182500000112,
      "v": 111
    },
    {
      "midi": 55,
      "hit": false,
      "t": 793636.4430000002,
      "d": 1363.6365000000224,
      "v": 95
    },
    {
      "midi": 52,
      "hit": false,
      "t": 793636.443000004,
      "d": 1363.6365000000224,
      "v": 79
    },
    {
      "midi": 55,
      "hit": false,
      "t": 793636.443000004,
      "d": 1363.6365000000224,
      "v": 79
    },
    {
      "midi": 59,
      "hit": false,
      "t": 793636.443000004,
      "d": 1363.6365000000224,
      "v": 111
    },
    {
      "midi": 62,
      "hit": false,
      "t": 793636.443000004,
      "d": 1363.6365000000224,
      "v": 95
    },
    {
      "midi": 64,
      "hit": false,
      "t": 794318.2612500031,
      "d": 1363.6365000000224,
      "v": 127
    },
    {
      "midi": 52,
      "hit": false,
      "t": 795000.0795000002,
      "d": 1363.6365000000224,
      "v": 95
    },
    {
      "midi": 35,
      "hit": false,
      "t": 795000.0795000024,
      "d": 681.8182500000112,
      "v": 95
    },
    {
      "midi": 62,
      "hit": false,
      "t": 795000.0795000041,
      "d": 681.8182500000112,
      "v": 95
    },
    {
      "midi": 37,
      "hit": false,
      "t": 795681.8977500024,
      "d": 681.8182500000112,
      "v": 95
    },
    {
      "midi": 62,
      "hit": false,
      "t": 795681.8977500031,
      "d": 2727.2730000000447,
      "v": 127
    },
    {
      "midi": 62,
      "hit": false,
      "t": 795681.8977500041,
      "d": 681.8182500000112,
      "v": 95
    },
    {
      "midi": 50,
      "hit": false,
      "t": 796363.7160000002,
      "d": 10909.091999999946,
      "v": 79
    },
    {
      "midi": 62,
      "hit": false,
      "t": 796363.7160000005,
      "d": 4090.9094999999506,
      "v": 95
    },
    {
      "midi": 38,
      "hit": false,
      "t": 796363.7160000025,
      "d": 2045.4547500000335,
      "v": 95
    },
    {
      "midi": 64,
      "hit": false,
      "t": 796363.7160000041,
      "d": 2727.2730000000447,
      "v": 120
    },
    {
      "midi": 55,
      "hit": false,
      "t": 796363.7160000041,
      "d": 2727.2730000000447,
      "v": 79
    },
    {
      "midi": 59,
      "hit": false,
      "t": 796363.7160000041,
      "d": 2727.2730000000447,
      "v": 95
    },
    {
      "midi": 52,
      "hit": false,
      "t": 796363.7160000041,
      "d": 2727.2730000000447,
      "v": 63
    },
    {
      "midi": 38,
      "hit": false,
      "t": 798409.1707500025,
      "d": 681.8182500000112,
      "v": 95
    },
    {
      "midi": 72,
      "hit": false,
      "t": 798409.1707500032,
      "d": 2727.2730000000447,
      "v": 127
    },
    {
      "midi": 38,
      "hit": false,
      "t": 799090.9890000025,
      "d": 681.8182500000112,
      "v": 95
    },
    {
      "midi": 64,
      "hit": false,
      "t": 799090.9890000041,
      "d": 2727.2730000000447,
      "v": 115
    },
    {
      "midi": 55,
      "hit": false,
      "t": 799090.9890000041,
      "d": 2727.2730000000447,
      "v": 79
    },
    {
      "midi": 59,
      "hit": false,
      "t": 799090.9890000041,
      "d": 2727.2730000000447,
      "v": 95
    },
    {
      "midi": 52,
      "hit": false,
      "t": 799090.9890000041,
      "d": 2727.2730000000447,
      "v": 63
    },
    {
      "midi": 35,
      "hit": false,
      "t": 800454.6255000025,
      "d": 681.8182500000112,
      "v": 95
    },
    {
      "midi": 33,
      "hit": false,
      "t": 801136.4437500025,
      "d": 681.8182500000112,
      "v": 95
    },
    {
      "midi": 72,
      "hit": false,
      "t": 801136.4437500032,
      "d": 2045.4547500000335,
      "v": 127
    },
    {
      "midi": 55,
      "hit": false,
      "t": 801818.2620000005,
      "d": 2727.2730000000447,
      "v": 95
    },
    {
      "midi": 31,
      "hit": false,
      "t": 801818.2620000025,
      "d": 2727.2730000000447,
      "v": 95
    },
    {
      "midi": 55,
      "hit": false,
      "t": 801818.2620000042,
      "d": 681.8182500000112,
      "v": 127
    },
    {
      "midi": 31,
      "hit": false,
      "t": 801818.2620000042,
      "d": 2727.2730000000447,
      "v": 127
    },
    {
      "midi": 43,
      "hit": false,
      "t": 801818.2620000042,
      "d": 2727.2730000000447,
      "v": 127
    },
    {
      "midi": 71,
      "hit": false,
      "t": 803181.8985000033,
      "d": 681.8182500000112,
      "v": 127
    },
    {
      "midi": 71,
      "hit": false,
      "t": 803863.7167500033,
      "d": 2045.4547500000335,
      "v": 127
    },
    {
      "midi": 54,
      "hit": false,
      "t": 804545.5350000005,
      "d": 2727.2730000000447,
      "v": 95
    },
    {
      "midi": 30,
      "hit": false,
      "t": 804545.5350000026,
      "d": 2727.2730000000447,
      "v": 95
    },
    {
      "midi": 54,
      "hit": false,
      "t": 804545.5350000042,
      "d": 681.8182500000112,
      "v": 127
    },
    {
      "midi": 30,
      "hit": false,
      "t": 804545.5350000042,
      "d": 2727.2730000000447,
      "v": 127
    },
    {
      "midi": 42,
      "hit": false,
      "t": 804545.5350000042,
      "d": 2727.2730000000447,
      "v": 127
    },
    {
      "midi": 64,
      "hit": false,
      "t": 806590.9897500033,
      "d": 1363.6365000000224,
      "v": 127
    },
    {
      "midi": 52,
      "hit": false,
      "t": 807272.8080000002,
      "d": 10909.091999999946,
      "v": 95
    },
    {
      "midi": 67,
      "hit": false,
      "t": 807272.8080000005,
      "d": 4090.9094999999506,
      "v": 95
    },
    {
      "midi": 64,
      "hit": false,
      "t": 807272.8080000005,
      "d": 4090.9094999999506,
      "v": 95
    },
    {
      "midi": 28,
      "hit": false,
      "t": 807272.8080000026,
      "d": 1363.6365000000224,
      "v": 95
    },
    {
      "midi": 52,
      "hit": false,
      "t": 807272.8080000043,
      "d": 2045.4547500000335,
      "v": 95
    },
    {
      "midi": 55,
      "hit": false,
      "t": 807272.8080000043,
      "d": 2045.4547500000335,
      "v": 95
    },
    {
      "midi": 59,
      "hit": false,
      "t": 807272.8080000043,
      "d": 2045.4547500000335,
      "v": 95
    },
    {
      "midi": 64,
      "hit": false,
      "t": 807272.8080000043,
      "d": 2045.4547500000335,
      "v": 111
    },
    {
      "midi": 66,
      "hit": false,
      "t": 807954.6262500033,
      "d": 681.8182500000112,
      "v": 127
    },
    {
      "midi": 31,
      "hit": false,
      "t": 808636.4445000027,
      "d": 681.8182500000112,
      "v": 95
    },
    {
      "midi": 67,
      "hit": false,
      "t": 808636.4445000034,
      "d": 1363.6365000000224,
      "v": 127
    },
    {
      "midi": 40,
      "hit": false,
      "t": 809318.2627500027,
      "d": 681.8182500000112,
      "v": 95
    },
    {
      "midi": 52,
      "hit": false,
      "t": 809318.2627500043,
      "d": 681.8182500000112,
      "v": 63
    },
    {
      "midi": 55,
      "hit": false,
      "t": 809318.2627500043,
      "d": 681.8182500000112,
      "v": 79
    },
    {
      "midi": 59,
      "hit": false,
      "t": 809318.2627500043,
      "d": 681.8182500000112,
      "v": 95
    },
    {
      "midi": 64,
      "hit": false,
      "t": 809318.2627500043,
      "d": 681.8182500000112,
      "v": 111
    },
    {
      "midi": 69,
      "hit": false,
      "t": 810000.0810000034,
      "d": 681.8182500000112,
      "v": 127
    },
    {
      "midi": 52,
      "hit": false,
      "t": 810000.0810000043,
      "d": 681.8182500000112,
      "v": 63
    },
    {
      "midi": 55,
      "hit": false,
      "t": 810000.0810000043,
      "d": 681.8182500000112,
      "v": 79
    },
    {
      "midi": 59,
      "hit": false,
      "t": 810000.0810000043,
      "d": 681.8182500000112,
      "v": 95
    },
    {
      "midi": 64,
      "hit": false,
      "t": 810000.0810000043,
      "d": 681.8182500000112,
      "v": 111
    },
    {
      "midi": 38,
      "hit": false,
      "t": 810681.8992500027,
      "d": 681.8182500000112,
      "v": 95
    },
    {
      "midi": 71,
      "hit": false,
      "t": 810681.8992500034,
      "d": 5454.545999999973,
      "v": 127
    },
    {
      "midi": 52,
      "hit": false,
      "t": 810681.8992500043,
      "d": 681.8182500000112,
      "v": 63
    },
    {
      "midi": 55,
      "hit": false,
      "t": 810681.8992500043,
      "d": 681.8182500000112,
      "v": 79
    },
    {
      "midi": 59,
      "hit": false,
      "t": 810681.8992500043,
      "d": 681.8182500000112,
      "v": 111
    },
    {
      "midi": 64,
      "hit": false,
      "t": 810681.8992500043,
      "d": 681.8182500000112,
      "v": 111
    },
    {
      "midi": 67,
      "hit": false,
      "t": 811363.7175000005,
      "d": 4090.9094999999506,
      "v": 95
    },
    {
      "midi": 64,
      "hit": false,
      "t": 811363.7175000005,
      "d": 4090.9094999999506,
      "v": 95
    },
    {
      "midi": 60,
      "hit": false,
      "t": 811363.7175000005,
      "d": 4090.9094999999506,
      "v": 95
    },
    {
      "midi": 36,
      "hit": false,
      "t": 811363.7175000027,
      "d": 6818.182499999995,
      "v": 95
    },
    {
      "midi": 52,
      "hit": false,
      "t": 811363.7175000043,
      "d": 2045.4547500000335,
      "v": 63
    },
    {
      "midi": 62,
      "hit": false,
      "t": 811363.7175000043,
      "d": 2045.4547500000335,
      "v": 79
    },
    {
      "midi": 55,
      "hit": false,
      "t": 811363.7175000043,
      "d": 2045.4547500000335,
      "v": 63
    },
    {
      "midi": 59,
      "hit": false,
      "t": 811363.7175000043,
      "d": 2045.4547500000335,
      "v": 111
    },
    {
      "midi": 62,
      "hit": false,
      "t": 813409.1722500044,
      "d": 681.8182500000112,
      "v": 111
    },
    {
      "midi": 62,
      "hit": false,
      "t": 814090.9905000044,
      "d": 681.8182500000112,
      "v": 111
    },
    {
      "midi": 62,
      "hit": false,
      "t": 815454.6270000044,
      "d": 1363.6365000000224,
      "v": 95
    },
    {
      "midi": 59,
      "hit": false,
      "t": 815454.6270000044,
      "d": 1363.6365000000224,
      "v": 111
    },
    {
      "midi": 55,
      "hit": false,
      "t": 815454.6270000044,
      "d": 1363.6365000000224,
      "v": 79
    },
    {
      "midi": 52,
      "hit": false,
      "t": 815454.6270000044,
      "d": 1363.6365000000224,
      "v": 79
    },
    {
      "midi": 62,
      "hit": false,
      "t": 816818.2635000044,
      "d": 681.8182500000112,
      "v": 89
    },
    {
      "midi": 66,
      "hit": false,
      "t": 817500.0817500034,
      "d": 1363.6365000000224,
      "v": 127
    },
    {
      "midi": 62,
      "hit": false,
      "t": 817500.0817500044,
      "d": 681.8182500000112,
      "v": 89
    },
    {
      "midi": 60,
      "hit": false,
      "t": 818181.9000000001,
      "d": 2727.2730000000447,
      "v": 95
    },
    {
      "midi": 66,
      "hit": false,
      "t": 818181.9000000005,
      "d": 4090.9094999999506,
      "v": 95
    },
    {
      "midi": 63,
      "hit": false,
      "t": 818181.9000000005,
      "d": 4090.9094999999506,
      "v": 95
    },
    {
      "midi": 59,
      "hit": false,
      "t": 818181.9000000005,
      "d": 4090.9094999999506,
      "v": 95
    },
    {
      "midi": 39,
      "hit": false,
      "t": 818181.9000000027,
      "d": 1363.6365000000224,
      "v": 95
    },
    {
      "midi": 66,
      "hit": false,
      "t": 818181.9000000044,
      "d": 2727.2730000000447,
      "v": 111
    },
    {
      "midi": 60,
      "hit": false,
      "t": 818181.9000000044,
      "d": 2727.2730000000447,
      "v": 95
    },
    {
      "midi": 57,
      "hit": false,
      "t": 818181.9000000044,
      "d": 2727.2730000000447,
      "v": 79
    },
    {
      "midi": 66,
      "hit": false,
      "t": 818863.7182500034,
      "d": 681.8182500000112,
      "v": 127
    },
    {
      "midi": 35,
      "hit": false,
      "t": 819545.5365000027,
      "d": 1363.6365000000224,
      "v": 95
    },
    {
      "midi": 64,
      "hit": false,
      "t": 819545.5365000034,
      "d": 1363.6365000000224,
      "v": 127
    },
    {
      "midi": 59,
      "hit": false,
      "t": 820909.1730000002,
      "d": 2727.2730000000447,
      "v": 95
    },
    {
      "midi": 39,
      "hit": false,
      "t": 820909.1730000027,
      "d": 1363.6365000000224,
      "v": 95
    },
    {
      "midi": 66,
      "hit": false,
      "t": 820909.1730000034,
      "d": 681.8182500000112,
      "v": 127
    },
    {
      "midi": 63,
      "hit": false,
      "t": 820909.1730000045,
      "d": 2727.2730000000447,
      "v": 111
    },
    {
      "midi": 54,
      "hit": false,
      "t": 820909.1730000045,
      "d": 2727.2730000000447,
      "v": 79
    },
    {
      "midi": 59,
      "hit": false,
      "t": 820909.1730000045,
      "d": 2727.2730000000447,
      "v": 95
    },
    {
      "midi": 67,
      "hit": false,
      "t": 821590.9912500035,
      "d": 5454.545999999973,
      "v": 127
    },
    {
      "midi": 42,
      "hit": false,
      "t": 822272.8095000028,
      "d": 1363.6365000000224,
      "v": 95
    },
    {
      "midi": 57,
      "hit": false,
      "t": 823636.4460000002,
      "d": 2727.2730000000447,
      "v": 95
    },
    {
      "midi": 64,
      "hit": false,
      "t": 823636.4460000005,
      "d": 4090.909500000067,
      "v": 95
    },
    {
      "midi": 59,
      "hit": false,
      "t": 823636.4460000005,
      "d": 4090.909500000067,
      "v": 95
    },
    {
      "midi": 40,
      "hit": false,
      "t": 823636.4460000028,
      "d": 5454.545999999973,
      "v": 95
    },
    {
      "midi": 64,
      "hit": false,
      "t": 823636.4460000045,
      "d": 2727.2730000000447,
      "v": 111
    },
    {
      "midi": 59,
      "hit": false,
      "t": 823636.4460000045,
      "d": 2727.2730000000447,
      "v": 95
    },
    {
      "midi": 55,
      "hit": false,
      "t": 823636.4460000045,
      "d": 2727.2730000000447,
      "v": 79
    },
    {
      "midi": 55,
      "hit": false,
      "t": 826363.7190000003,
      "d": 2727.2730000000447,
      "v": 95
    },
    {
      "midi": 67,
      "hit": false,
      "t": 826363.7190000005,
      "d": 681.8182500000112,
      "v": 79
    },
    {
      "midi": 64,
      "hit": false,
      "t": 826363.7190000046,
      "d": 681.8182500000112,
      "v": 111
    },
    {
      "midi": 60,
      "hit": false,
      "t": 826363.7190000046,
      "d": 681.8182500000112,
      "v": 111
    },
    {
      "midi": 66,
      "hit": false,
      "t": 827045.5372500005,
      "d": 681.8182500000112,
      "v": 79
    },
    {
      "midi": 64,
      "hit": false,
      "t": 827045.5372500046,
      "d": 681.8182500000112,
      "v": 111
    },
    {
      "midi": 60,
      "hit": false,
      "t": 827045.5372500046,
      "d": 681.8182500000112,
      "v": 111
    },
    {
      "midi": 64,
      "hit": false,
      "t": 827727.3555000005,
      "d": 681.8182500000112,
      "v": 79
    },
    {
      "midi": 52,
      "hit": false,
      "t": 827727.3555000046,
      "d": 1363.6365000000224,
      "v": 111
    },
    {
      "midi": 62,
      "hit": false,
      "t": 827727.3555000046,
      "d": 1363.6365000000224,
      "v": 111
    },
    {
      "midi": 59,
      "hit": false,
      "t": 827727.3555000046,
      "d": 1363.6365000000224,
      "v": 111
    },
    {
      "midi": 62,
      "hit": false,
      "t": 828409.1737500005,
      "d": 681.8182500000112,
      "v": 63
    },
    {
      "midi": 64,
      "hit": false,
      "t": 828409.1737500035,
      "d": 1363.6365000000224,
      "v": 127
    },
    {
      "midi": 67,
      "hit": false,
      "t": 829090.9920000003,
      "d": 10909.091999999946,
      "v": 95
    },
    {
      "midi": 64,
      "hit": false,
      "t": 829090.9920000003,
      "d": 10909.091999999946,
      "v": 95
    },
    {
      "midi": 64,
      "hit": false,
      "t": 829090.9920000006,
      "d": 4090.9094999999506,
      "v": 95
    },
    {
      "midi": 67,
      "hit": false,
      "t": 829090.9920000006,
      "d": 4090.9094999999506,
      "v": 95
    },
    {
      "midi": 52,
      "hit": false,
      "t": 829090.9920000046,
      "d": 681.8182500000112,
      "v": 95
    },
    {
      "midi": 64,
      "hit": false,
      "t": 829090.9920000046,
      "d": 2045.4547500000335,
      "v": 95
    },
    {
      "midi": 55,
      "hit": false,
      "t": 829090.9920000046,
      "d": 2045.4547500000335,
      "v": 111
    },
    {
      "midi": 59,
      "hit": false,
      "t": 829090.9920000046,
      "d": 2045.4547500000335,
      "v": 111
    },
    {
      "midi": 66,
      "hit": false,
      "t": 829772.8102500035,
      "d": 681.8182500000112,
      "v": 127
    },
    {
      "midi": 67,
      "hit": false,
      "t": 830454.6285000035,
      "d": 1363.6365000000224,
      "v": 127
    },
    {
      "midi": 64,
      "hit": false,
      "t": 831136.4467500047,
      "d": 681.8182500000112,
      "v": 95
    },
    {
      "midi": 52,
      "hit": false,
      "t": 831136.4467500047,
      "d": 681.8182500000112,
      "v": 111
    },
    {
      "midi": 55,
      "hit": false,
      "t": 831136.4467500047,
      "d": 681.8182500000112,
      "v": 95
    },
    {
      "midi": 59,
      "hit": false,
      "t": 831136.4467500047,
      "d": 681.8182500000112,
      "v": 95
    },
    {
      "midi": 69,
      "hit": false,
      "t": 831818.2650000035,
      "d": 681.8182500000112,
      "v": 127
    },
    {
      "midi": 64,
      "hit": false,
      "t": 831818.2650000047,
      "d": 681.8182500000112,
      "v": 111
    },
    {
      "midi": 59,
      "hit": false,
      "t": 831818.2650000047,
      "d": 681.8182500000112,
      "v": 95
    },
    {
      "midi": 55,
      "hit": false,
      "t": 831818.2650000047,
      "d": 681.8182500000112,
      "v": 95
    },
    {
      "midi": 52,
      "hit": false,
      "t": 831818.2650000047,
      "d": 681.8182500000112,
      "v": 95
    },
    {
      "midi": 71,
      "hit": false,
      "t": 832500.0832500035,
      "d": 2727.2730000000447,
      "v": 127
    },
    {
      "midi": 64,
      "hit": false,
      "t": 832500.0832500047,
      "d": 681.8182500000112,
      "v": 95
    },
    {
      "midi": 59,
      "hit": false,
      "t": 832500.0832500047,
      "d": 681.8182500000112,
      "v": 95
    },
    {
      "midi": 55,
      "hit": false,
      "t": 832500.0832500047,
      "d": 681.8182500000112,
      "v": 95
    },
    {
      "midi": 52,
      "hit": false,
      "t": 832500.0832500047,
      "d": 681.8182500000112,
      "v": 111
    },
    {
      "midi": 67,
      "hit": false,
      "t": 833181.9015000005,
      "d": 4090.9094999999506,
      "v": 95
    },
    {
      "midi": 64,
      "hit": false,
      "t": 833181.9015000005,
      "d": 4090.9094999999506,
      "v": 95
    },
    {
      "midi": 60,
      "hit": false,
      "t": 833181.9015000047,
      "d": 2045.4547500000335,
      "v": 95
    },
    {
      "midi": 55,
      "hit": false,
      "t": 833181.9015000047,
      "d": 2045.4547500000335,
      "v": 95
    },
    {
      "midi": 52,
      "hit": false,
      "t": 833181.9015000047,
      "d": 2045.4547500000335,
      "v": 95
    },
    {
      "midi": 48,
      "hit": false,
      "t": 833181.9015000047,
      "d": 2045.4547500000335,
      "v": 95
    },
    {
      "midi": 69,
      "hit": false,
      "t": 835227.3562500036,
      "d": 2727.2730000000447,
      "v": 127
    },
    {
      "midi": 60,
      "hit": false,
      "t": 835227.3562500047,
      "d": 681.8182500000112,
      "v": 79
    },
    {
      "midi": 57,
      "hit": false,
      "t": 835227.3562500047,
      "d": 681.8182500000112,
      "v": 79
    },
    {
      "midi": 55,
      "hit": false,
      "t": 835909.1745000047,
      "d": 681.8182500000112,
      "v": 79
    },
    {
      "midi": 59,
      "hit": false,
      "t": 835909.1745000047,
      "d": 681.8182500000112,
      "v": 79
    },
    {
      "midi": 64,
      "hit": false,
      "t": 837272.8110000005,
      "d": 1363.6365000000224,
      "v": 95
    },
    {
      "midi": 64,
      "hit": false,
      "t": 837272.8110000048,
      "d": 2045.4547500000335,
      "v": 111
    },
    {
      "midi": 60,
      "hit": false,
      "t": 837272.8110000048,
      "d": 2045.4547500000335,
      "v": 111
    },
    {
      "midi": 55,
      "hit": false,
      "t": 837272.8110000048,
      "d": 2045.4547500000335,
      "v": 111
    },
    {
      "midi": 52,
      "hit": false,
      "t": 837272.8110000048,
      "d": 2045.4547500000335,
      "v": 95
    },
    {
      "midi": 67,
      "hit": false,
      "t": 838636.4475000005,
      "d": 1363.6365000000224,
      "v": 95
    },
    {
      "midi": 66,
      "hit": false,
      "t": 839318.2657500036,
      "d": 1363.6365000000224,
      "v": 127
    },
    {
      "midi": 66,
      "hit": false,
      "t": 840000.0840000003,
      "d": 2727.2730000000447,
      "v": 95
    },
    {
      "midi": 62,
      "hit": false,
      "t": 840000.0840000003,
      "d": 2727.2730000000447,
      "v": 95
    },
    {
      "midi": 66,
      "hit": false,
      "t": 840000.0840000005,
      "d": 5454.545999999973,
      "v": 95
    },
    {
      "midi": 62,
      "hit": false,
      "t": 840000.0840000005,
      "d": 5454.545999999973,
      "v": 95
    },
    {
      "midi": 38,
      "hit": false,
      "t": 840000.0840000048,
      "d": 2727.2730000000447,
      "v": 95
    },
    {
      "midi": 66,
      "hit": false,
      "t": 840681.9022500037,
      "d": 681.8182500000112,
      "v": 127
    },
    {
      "midi": 64,
      "hit": false,
      "t": 841363.7205000037,
      "d": 1363.6365000000224,
      "v": 127
    },
    {
      "midi": 64,
      "hit": false,
      "t": 842045.5387500048,
      "d": 681.8182500000112,
      "v": 95
    },
    {
      "midi": 67,
      "hit": false,
      "t": 842045.5387500048,
      "d": 681.8182500000112,
      "v": 95
    },
    {
      "midi": 59,
      "hit": false,
      "t": 842045.5387500048,
      "d": 681.8182500000112,
      "v": 95
    },
    {
      "midi": 69,
      "hit": false,
      "t": 842727.3570000003,
      "d": 2727.2730000000447,
      "v": 95
    },
    {
      "midi": 66,
      "hit": false,
      "t": 842727.3570000003,
      "d": 2727.2730000000447,
      "v": 95
    },
    {
      "midi": 66,
      "hit": false,
      "t": 842727.3570000037,
      "d": 681.8182500000112,
      "v": 127
    },
    {
      "midi": 38,
      "hit": false,
      "t": 842727.3570000048,
      "d": 2727.2730000000447,
      "v": 95
    },
    {
      "midi": 67,
      "hit": false,
      "t": 843409.1752500037,
      "d": 5454.545999999973,
      "v": 127
    },
    {
      "midi": 64,
      "hit": false,
      "t": 844772.8117500049,
      "d": 681.8182500000112,
      "v": 95
    },
    {
      "midi": 67,
      "hit": false,
      "t": 844772.8117500049,
      "d": 681.8182500000112,
      "v": 85
    },
    {
      "midi": 59,
      "hit": false,
      "t": 844772.8117500049,
      "d": 681.8182500000112,
      "v": 111
    },
    {
      "midi": 67,
      "hit": false,
      "t": 845454.6300000004,
      "d": 2727.2730000000447,
      "v": 95
    },
    {
      "midi": 64,
      "hit": false,
      "t": 845454.6300000004,
      "d": 2727.2730000000447,
      "v": 95
    },
    {
      "midi": 67,
      "hit": false,
      "t": 845454.6300000005,
      "d": 2727.2730000000447,
      "v": 95
    },
    {
      "midi": 64,
      "hit": false,
      "t": 845454.6300000005,
      "d": 2727.2730000000447,
      "v": 95
    },
    {
      "midi": 64,
      "hit": false,
      "t": 845454.6300000049,
      "d": 1363.6365000000224,
      "v": 105
    },
    {
      "midi": 67,
      "hit": false,
      "t": 845454.6300000049,
      "d": 1363.6365000000224,
      "v": 111
    },
    {
      "midi": 59,
      "hit": false,
      "t": 845454.6300000049,
      "d": 1363.6365000000224,
      "v": 111
    },
    {
      "midi": 55,
      "hit": false,
      "t": 845454.6300000049,
      "d": 1363.6365000000224,
      "v": 111
    },
    {
      "midi": 40,
      "hit": false,
      "t": 846818.2665000049,
      "d": 2727.2730000000447,
      "v": 105
    },
    {
      "midi": 67,
      "hit": false,
      "t": 848181.9030000005,
      "d": 681.8182500000112,
      "v": 63
    },
    {
      "midi": 64,
      "hit": false,
      "t": 848181.9030000049,
      "d": 2727.2730000000447,
      "v": 105
    },
    {
      "midi": 60,
      "hit": false,
      "t": 848181.9030000049,
      "d": 2727.2730000000447,
      "v": 95
    },
    {
      "midi": 57,
      "hit": false,
      "t": 848181.9030000049,
      "d": 2727.2730000000447,
      "v": 111
    },
    {
      "midi": 66,
      "hit": false,
      "t": 848863.7212500005,
      "d": 681.8182500000112,
      "v": 63
    },
    {
      "midi": 64,
      "hit": false,
      "t": 849545.5395000005,
      "d": 681.8182500000112,
      "v": 63
    },
    {
      "midi": 67,
      "hit": false,
      "t": 849545.539500005,
      "d": 340.9091250000056,
      "v": 79
    },
    {
      "midi": 62,
      "hit": false,
      "t": 850227.3577500005,
      "d": 681.8182500000112,
      "v": 63
    },
    {
      "midi": 64,
      "hit": false,
      "t": 850227.3577500037,
      "d": 1363.6365000000224,
      "v": 127
    },
    {
      "midi": 66,
      "hit": false,
      "t": 850227.357750005,
      "d": 340.9091250000056,
      "v": 79
    },
    {
      "midi": 59,
      "hit": false,
      "t": 850909.1760000006,
      "d": 4090.9094999999506,
      "v": 95
    },
    {
      "midi": 55,
      "hit": false,
      "t": 850909.1760000006,
      "d": 4090.9094999999506,
      "v": 95
    },
    {
      "midi": 52,
      "hit": false,
      "t": 850909.176000005,
      "d": 681.8182500000112,
      "v": 95
    },
    {
      "midi": 59,
      "hit": false,
      "t": 850909.176000005,
      "d": 2045.4547500000335,
      "v": 111
    },
    {
      "midi": 55,
      "hit": false,
      "t": 850909.176000005,
      "d": 2045.4547500000335,
      "v": 111
    },
    {
      "midi": 64,
      "hit": false,
      "t": 850909.176000005,
      "d": 2045.4547500000335,
      "v": 95
    },
    {
      "midi": 66,
      "hit": false,
      "t": 851590.9942500037,
      "d": 681.8182500000112,
      "v": 127
    },
    {
      "midi": 67,
      "hit": false,
      "t": 852272.8125000037,
      "d": 1363.6365000000224,
      "v": 127
    },
    {
      "midi": 59,
      "hit": false,
      "t": 852954.630750005,
      "d": 681.8182500000112,
      "v": 95
    },
    {
      "midi": 55,
      "hit": false,
      "t": 852954.630750005,
      "d": 681.8182500000112,
      "v": 95
    },
    {
      "midi": 52,
      "hit": false,
      "t": 852954.630750005,
      "d": 681.8182500000112,
      "v": 111
    },
    {
      "midi": 64,
      "hit": false,
      "t": 852954.630750005,
      "d": 681.8182500000112,
      "v": 95
    },
    {
      "midi": 69,
      "hit": false,
      "t": 853636.4490000037,
      "d": 681.8182500000112,
      "v": 127
    },
    {
      "midi": 52,
      "hit": false,
      "t": 853636.449000005,
      "d": 681.8182500000112,
      "v": 95
    },
    {
      "midi": 55,
      "hit": false,
      "t": 853636.449000005,
      "d": 681.8182500000112,
      "v": 95
    },
    {
      "midi": 59,
      "hit": false,
      "t": 853636.449000005,
      "d": 681.8182500000112,
      "v": 95
    },
    {
      "midi": 64,
      "hit": false,
      "t": 853636.449000005,
      "d": 681.8182500000112,
      "v": 111
    },
    {
      "midi": 71,
      "hit": false,
      "t": 854318.2672500038,
      "d": 2727.2730000000447,
      "v": 127
    },
    {
      "midi": 52,
      "hit": false,
      "t": 854318.267250005,
      "d": 681.8182500000112,
      "v": 111
    },
    {
      "midi": 55,
      "hit": false,
      "t": 854318.267250005,
      "d": 681.8182500000112,
      "v": 95
    },
    {
      "midi": 59,
      "hit": false,
      "t": 854318.267250005,
      "d": 681.8182500000112,
      "v": 95
    },
    {
      "midi": 64,
      "hit": false,
      "t": 854318.267250005,
      "d": 681.8182500000112,
      "v": 95
    },
    {
      "midi": 60,
      "hit": false,
      "t": 855000.0855000005,
      "d": 4090.9094999999506,
      "v": 95
    },
    {
      "midi": 57,
      "hit": false,
      "t": 855000.0855000005,
      "d": 4090.9094999999506,
      "v": 95
    },
    {
      "midi": 48,
      "hit": false,
      "t": 855000.085500005,
      "d": 2045.4547500000335,
      "v": 95
    },
    {
      "midi": 52,
      "hit": false,
      "t": 855000.085500005,
      "d": 2045.4547500000335,
      "v": 95
    },
    {
      "midi": 55,
      "hit": false,
      "t": 855000.085500005,
      "d": 2045.4547500000335,
      "v": 95
    },
    {
      "midi": 60,
      "hit": false,
      "t": 855000.085500005,
      "d": 2045.4547500000335,
      "v": 95
    },
    {
      "midi": 69,
      "hit": false,
      "t": 857045.5402500038,
      "d": 2727.2730000000447,
      "v": 127
    },
    {
      "midi": 57,
      "hit": false,
      "t": 857045.5402500051,
      "d": 681.8182500000112,
      "v": 95
    },
    {
      "midi": 60,
      "hit": false,
      "t": 857045.5402500051,
      "d": 681.8182500000112,
      "v": 79
    },
    {
      "midi": 59,
      "hit": false,
      "t": 857727.3585000051,
      "d": 1363.6365000000224,
      "v": 63
    },
    {
      "midi": 55,
      "hit": false,
      "t": 857727.3585000051,
      "d": 1363.6365000000224,
      "v": 95
    },
    {
      "midi": 59,
      "hit": false,
      "t": 859090.9950000005,
      "d": 681.8182500000112,
      "v": 47
    },
    {
      "midi": 52,
      "hit": false,
      "t": 859090.9950000051,
      "d": 2045.4547500000335,
      "v": 95
    },
    {
      "midi": 55,
      "hit": false,
      "t": 859090.9950000051,
      "d": 2045.4547500000335,
      "v": 111
    },
    {
      "midi": 60,
      "hit": false,
      "t": 859090.9950000051,
      "d": 2045.4547500000335,
      "v": 111
    },
    {
      "midi": 64,
      "hit": false,
      "t": 859090.9950000051,
      "d": 2045.4547500000335,
      "v": 111
    },
    {
      "midi": 64,
      "hit": false,
      "t": 859772.8132500005,
      "d": 681.8182500000112,
      "v": 47
    },
    {
      "midi": 62,
      "hit": false,
      "t": 860454.6315000005,
      "d": 681.8182500000112,
      "v": 47
    },
    {
      "midi": 59,
      "hit": false,
      "t": 861136.4497500005,
      "d": 681.8182500000112,
      "v": 47
    },
    {
      "midi": 66,
      "hit": false,
      "t": 861136.4497500039,
      "d": 1363.6365000000224,
      "v": 127
    },
    {
      "midi": 59,
      "hit": false,
      "t": 861818.2680000005,
      "d": 5454.545999999973,
      "v": 63
    },
    {
      "midi": 63,
      "hit": false,
      "t": 861818.2680000005,
      "d": 5454.545999999973,
      "v": 63
    },
    {
      "midi": 63,
      "hit": false,
      "t": 861818.2680000052,
      "d": 2727.2730000000447,
      "v": 95
    },
    {
      "midi": 66,
      "hit": false,
      "t": 861818.2680000052,
      "d": 2727.2730000000447,
      "v": 79
    },
    {
      "midi": 59,
      "hit": false,
      "t": 861818.2680000052,
      "d": 2727.2730000000447,
      "v": 95
    },
    {
      "midi": 66,
      "hit": false,
      "t": 862500.0862500039,
      "d": 681.8182500000112,
      "v": 127
    },
    {
      "midi": 64,
      "hit": false,
      "t": 863181.9045000039,
      "d": 1363.6365000000224,
      "v": 127
    },
    {
      "midi": 66,
      "hit": false,
      "t": 864545.5410000039,
      "d": 681.8182500000112,
      "v": 127
    },
    {
      "midi": 63,
      "hit": false,
      "t": 864545.5410000052,
      "d": 1363.6365000000224,
      "v": 111
    },
    {
      "midi": 57,
      "hit": false,
      "t": 864545.5410000052,
      "d": 1363.6365000000224,
      "v": 95
    },
    {
      "midi": 66,
      "hit": false,
      "t": 864545.5410000052,
      "d": 1363.6365000000224,
      "v": 111
    },
    {
      "midi": 60,
      "hit": false,
      "t": 864545.5410000052,
      "d": 1363.6365000000224,
      "v": 111
    },
    {
      "midi": 67,
      "hit": false,
      "t": 865227.3592500039,
      "d": 6818.182499999995,
      "v": 127
    },
    {
      "midi": 66,
      "hit": false,
      "t": 865909.1775000052,
      "d": 681.8182500000112,
      "v": 95
    },
    {
      "midi": 63,
      "hit": false,
      "t": 866590.9957500052,
      "d": 681.8182500000112,
      "v": 95
    },
    {
      "midi": 67,
      "hit": false,
      "t": 867272.8140000005,
      "d": 8181.819000000018,
      "v": 63
    },
    {
      "midi": 64,
      "hit": false,
      "t": 867272.8140000005,
      "d": 8181.819000000018,
      "v": 63
    },
    {
      "midi": 64,
      "hit": false,
      "t": 867272.8140000053,
      "d": 1363.6365000000224,
      "v": 79
    },
    {
      "midi": 63,
      "hit": false,
      "t": 868636.4505000053,
      "d": 1363.6365000000224,
      "v": 79
    },
    {
      "midi": 64,
      "hit": false,
      "t": 870000.0870000053,
      "d": 4090.9094999999506,
      "v": 95
    },
    {
      "midi": 59,
      "hit": false,
      "t": 870000.0870000053,
      "d": 4090.9094999999506,
      "v": 95
    }
  ]
}