{
  "jsonPath": "Animes/Inu Yasha MIDI Collection/fukai-mori.json",
  "path": "Animes\\Inu Yasha MIDI Collection\\Fukai Mori.mid",
  "name": "Fukai Mori",
  "difficulty": "Advanced",
  "bpm": 82.00003553334874,
  "notes": [
    {
      "midi": 51,
      "hit": false,
      "t": 182.92674999999997,
      "d": 731.7069999999999,
      "v": 120
    },
    {
      "midi": 58,
      "hit": false,
      "t": 182.92674999999997,
      "d": 1097.5604999999996,
      "v": 120
    },
    {
      "midi": 63,
      "hit": false,
      "t": 182.92674999999997,
      "d": 1097.5604999999996,
      "v": 120
    },
    {
      "midi": 65,
      "hit": false,
      "t": 182.92674999999997,
      "d": 1097.5604999999996,
      "v": 120
    },
    {
      "midi": 51,
      "hit": false,
      "t": 914.6337499999998,
      "d": 365.8534999999998,
      "v": 120
    },
    {
      "midi": 46,
      "hit": false,
      "t": 1280.4872499999997,
      "d": 1829.2674999999995,
      "v": 120
    },
    {
      "midi": 65,
      "hit": false,
      "t": 1280.4872499999997,
      "d": 1829.2674999999995,
      "v": 120
    },
    {
      "midi": 62,
      "hit": false,
      "t": 1280.4872499999997,
      "d": 1829.2674999999995,
      "v": 120
    },
    {
      "midi": 60,
      "hit": false,
      "t": 1280.4872499999997,
      "d": 1829.2674999999995,
      "v": 120
    },
    {
      "midi": 41,
      "hit": false,
      "t": 3109.754749999999,
      "d": 731.7069999999999,
      "v": 120
    },
    {
      "midi": 57,
      "hit": false,
      "t": 3109.754749999999,
      "d": 1097.5604999999996,
      "v": 120
    },
    {
      "midi": 65,
      "hit": false,
      "t": 3109.754749999999,
      "d": 1097.5604999999996,
      "v": 120
    },
    {
      "midi": 60,
      "hit": false,
      "t": 3109.754749999999,
      "d": 1097.5604999999996,
      "v": 120
    },
    {
      "midi": 41,
      "hit": false,
      "t": 3841.461749999999,
      "d": 365.8534999999997,
      "v": 120
    },
    {
      "midi": 58,
      "hit": false,
      "t": 4207.315249999999,
      "d": 1829.2675,
      "v": 120
    },
    {
      "midi": 43,
      "hit": false,
      "t": 4207.315249999999,
      "d": 1829.2675,
      "v": 120
    },
    {
      "midi": 65,
      "hit": false,
      "t": 4207.315249999999,
      "d": 1829.2675,
      "v": 120
    },
    {
      "midi": 60,
      "hit": false,
      "t": 4207.315249999999,
      "d": 1829.2675,
      "v": 120
    },
    {
      "midi": 51,
      "hit": false,
      "t": 6036.582749999999,
      "d": 731.7069999999994,
      "v": 120
    },
    {
      "midi": 58,
      "hit": false,
      "t": 6036.582749999999,
      "d": 1097.5604999999996,
      "v": 120
    },
    {
      "midi": 65,
      "hit": false,
      "t": 6036.582749999999,
      "d": 1097.5604999999996,
      "v": 120
    },
    {
      "midi": 63,
      "hit": false,
      "t": 6036.582749999999,
      "d": 1097.5604999999996,
      "v": 120
    },
    {
      "midi": 51,
      "hit": false,
      "t": 6768.289749999998,
      "d": 365.85350000000017,
      "v": 120
    },
    {
      "midi": 46,
      "hit": false,
      "t": 7134.143249999998,
      "d": 1829.267499999999,
      "v": 120
    },
    {
      "midi": 65,
      "hit": false,
      "t": 7134.143249999998,
      "d": 1829.267499999999,
      "v": 120
    },
    {
      "midi": 62,
      "hit": false,
      "t": 7134.143249999998,
      "d": 1829.267499999999,
      "v": 120
    },
    {
      "midi": 60,
      "hit": false,
      "t": 7134.143249999998,
      "d": 1829.267499999999,
      "v": 120
    },
    {
      "midi": 41,
      "hit": false,
      "t": 8963.410749999997,
      "d": 731.7070000000003,
      "v": 120
    },
    {
      "midi": 57,
      "hit": false,
      "t": 8963.410749999997,
      "d": 1097.5604999999996,
      "v": 120
    },
    {
      "midi": 65,
      "hit": false,
      "t": 8963.410749999997,
      "d": 1097.5604999999996,
      "v": 120
    },
    {
      "midi": 60,
      "hit": false,
      "t": 8963.410749999997,
      "d": 1097.5604999999996,
      "v": 120
    },
    {
      "midi": 41,
      "hit": false,
      "t": 9695.117749999998,
      "d": 365.85349999999926,
      "v": 120
    },
    {
      "midi": 58,
      "hit": false,
      "t": 10060.971249999997,
      "d": 1097.5604999999996,
      "v": 120
    },
    {
      "midi": 65,
      "hit": false,
      "t": 10060.971249999997,
      "d": 1097.5604999999996,
      "v": 120
    },
    {
      "midi": 60,
      "hit": false,
      "t": 10060.971249999997,
      "d": 1097.5604999999996,
      "v": 120
    },
    {
      "midi": 43,
      "hit": false,
      "t": 10060.971249999997,
      "d": 1829.2675000000017,
      "v": 120
    },
    {
      "midi": 70,
      "hit": false,
      "t": 11341.458499999997,
      "d": 182.92675000000054,
      "v": 120
    },
    {
      "midi": 72,
      "hit": false,
      "t": 11524.385249999998,
      "d": 182.92675000000054,
      "v": 120
    },
    {
      "midi": 74,
      "hit": false,
      "t": 11707.311999999998,
      "d": 365.8535000000011,
      "v": 120
    },
    {
      "midi": 55,
      "hit": false,
      "t": 11890.238749999999,
      "d": 1097.5605000000014,
      "v": 120
    },
    {
      "midi": 58,
      "hit": false,
      "t": 11890.238749999999,
      "d": 1097.5605000000014,
      "v": 120
    },
    {
      "midi": 63,
      "hit": false,
      "t": 11890.238749999999,
      "d": 1097.5605000000014,
      "v": 120
    },
    {
      "midi": 70,
      "hit": false,
      "t": 12073.1655,
      "d": 182.92675000000054,
      "v": 120
    },
    {
      "midi": 72,
      "hit": false,
      "t": 12256.09225,
      "d": 182.92675000000054,
      "v": 120
    },
    {
      "midi": 74,
      "hit": false,
      "t": 12439.019,
      "d": 365.85349999999926,
      "v": 120
    },
    {
      "midi": 70,
      "hit": false,
      "t": 12804.8725,
      "d": 182.92675000000054,
      "v": 120
    },
    {
      "midi": 72,
      "hit": false,
      "t": 12987.79925,
      "d": 182.92675000000054,
      "v": 120
    },
    {
      "midi": 58,
      "hit": false,
      "t": 12987.79925,
      "d": 1829.2675000000017,
      "v": 120
    },
    {
      "midi": 53,
      "hit": false,
      "t": 12987.79925,
      "d": 1829.2675000000017,
      "v": 120
    },
    {
      "midi": 62,
      "hit": false,
      "t": 12987.79925,
      "d": 1829.2675000000017,
      "v": 120
    },
    {
      "midi": 74,
      "hit": false,
      "t": 13170.726,
      "d": 365.85349999999926,
      "v": 120
    },
    {
      "midi": 70,
      "hit": false,
      "t": 13536.5795,
      "d": 182.92675000000054,
      "v": 120
    },
    {
      "midi": 72,
      "hit": false,
      "t": 13719.50625,
      "d": 182.92675000000054,
      "v": 120
    },
    {
      "midi": 74,
      "hit": false,
      "t": 13902.433,
      "d": 548.7802499999998,
      "v": 120
    },
    {
      "midi": 70,
      "hit": false,
      "t": 14634.140000000001,
      "d": 182.92675000000054,
      "v": 120
    },
    {
      "midi": 72,
      "hit": false,
      "t": 14817.066750000002,
      "d": 365.85349999999926,
      "v": 120
    },
    {
      "midi": 53,
      "hit": false,
      "t": 14817.066750000002,
      "d": 1097.5604999999996,
      "v": 120
    },
    {
      "midi": 60,
      "hit": false,
      "t": 14817.066750000002,
      "d": 1097.5604999999996,
      "v": 120
    },
    {
      "midi": 57,
      "hit": false,
      "t": 14817.066750000002,
      "d": 1097.5604999999996,
      "v": 120
    },
    {
      "midi": 70,
      "hit": false,
      "t": 15182.920250000001,
      "d": 182.92675000000054,
      "v": 120
    },
    {
      "midi": 72,
      "hit": false,
      "t": 15365.847000000002,
      "d": 365.85349999999926,
      "v": 120
    },
    {
      "midi": 77,
      "hit": false,
      "t": 15731.7005,
      "d": 365.8535000000011,
      "v": 120
    },
    {
      "midi": 58,
      "hit": false,
      "t": 15914.627250000001,
      "d": 1829.2675000000017,
      "v": 120
    },
    {
      "midi": 55,
      "hit": false,
      "t": 15914.627250000001,
      "d": 1829.2675000000017,
      "v": 120
    },
    {
      "midi": 62,
      "hit": false,
      "t": 15914.627250000001,
      "d": 1829.2675000000017,
      "v": 120
    },
    {
      "midi": 77,
      "hit": false,
      "t": 16097.554000000002,
      "d": 914.633749999999,
      "v": 120
    },
    {
      "midi": 74,
      "hit": false,
      "t": 17012.18775,
      "d": 365.8535000000011,
      "v": 120
    },
    {
      "midi": 75,
      "hit": false,
      "t": 17378.041250000002,
      "d": 365.8535000000011,
      "v": 120
    },
    {
      "midi": 77,
      "hit": false,
      "t": 17743.894750000003,
      "d": 365.8535000000011,
      "v": 120
    },
    {
      "midi": 57,
      "hit": false,
      "t": 17743.894750000003,
      "d": 1097.5604999999996,
      "v": 120
    },
    {
      "midi": 53,
      "hit": false,
      "t": 17743.894750000003,
      "d": 1097.5604999999996,
      "v": 120
    },
    {
      "midi": 60,
      "hit": false,
      "t": 17743.894750000003,
      "d": 1097.5604999999996,
      "v": 120
    },
    {
      "midi": 70,
      "hit": false,
      "t": 18109.748250000004,
      "d": 182.92674999999872,
      "v": 120
    },
    {
      "midi": 70,
      "hit": false,
      "t": 18292.675000000003,
      "d": 548.7802499999998,
      "v": 120
    },
    {
      "midi": 74,
      "hit": false,
      "t": 18841.455250000003,
      "d": 182.92674999999872,
      "v": 120
    },
    {
      "midi": 58,
      "hit": false,
      "t": 18841.455250000003,
      "d": 1829.2674999999945,
      "v": 120
    },
    {
      "midi": 55,
      "hit": false,
      "t": 18841.455250000003,
      "d": 1829.2674999999945,
      "v": 120
    },
    {
      "midi": 62,
      "hit": false,
      "t": 18841.455250000003,
      "d": 1829.2674999999945,
      "v": 120
    },
    {
      "midi": 75,
      "hit": false,
      "t": 19024.382,
      "d": 182.92674999999872,
      "v": 120
    },
    {
      "midi": 77,
      "hit": false,
      "t": 19207.30875,
      "d": 365.8535000000011,
      "v": 120
    },
    {
      "midi": 70,
      "hit": false,
      "t": 19573.16225,
      "d": 182.92674999999872,
      "v": 120
    },
    {
      "midi": 70,
      "hit": false,
      "t": 19756.089,
      "d": 548.7802499999998,
      "v": 120
    },
    {
      "midi": 70,
      "hit": false,
      "t": 20487.796,
      "d": 182.92674999999872,
      "v": 120
    },
    {
      "midi": 72,
      "hit": false,
      "t": 20670.722749999997,
      "d": 365.8535000000011,
      "v": 120
    },
    {
      "midi": 53,
      "hit": false,
      "t": 20670.722749999997,
      "d": 1097.5604999999996,
      "v": 120
    },
    {
      "midi": 60,
      "hit": false,
      "t": 20670.722749999997,
      "d": 1097.5604999999996,
      "v": 120
    },
    {
      "midi": 57,
      "hit": false,
      "t": 20670.722749999997,
      "d": 1097.5604999999996,
      "v": 120
    },
    {
      "midi": 70,
      "hit": false,
      "t": 21036.57625,
      "d": 182.92674999999872,
      "v": 120
    },
    {
      "midi": 72,
      "hit": false,
      "t": 21219.502999999997,
      "d": 365.8535000000011,
      "v": 120
    },
    {
      "midi": 70,
      "hit": false,
      "t": 21585.356499999998,
      "d": 182.92674999999872,
      "v": 120
    },
    {
      "midi": 65,
      "hit": false,
      "t": 21768.283249999997,
      "d": 1097.5604999999996,
      "v": 120
    },
    {
      "midi": 70,
      "hit": false,
      "t": 21768.283249999997,
      "d": 1097.5604999999996,
      "v": 120
    },
    {
      "midi": 58,
      "hit": false,
      "t": 21768.283249999997,
      "d": 1829.2674999999945,
      "v": 120
    },
    {
      "midi": 55,
      "hit": false,
      "t": 21768.283249999997,
      "d": 1829.2674999999945,
      "v": 120
    },
    {
      "midi": 62,
      "hit": false,
      "t": 21768.283249999997,
      "d": 1829.2674999999945,
      "v": 120
    },
    {
      "midi": 70,
      "hit": false,
      "t": 23048.770499999995,
      "d": 182.92674999999872,
      "v": 120
    },
    {
      "midi": 72,
      "hit": false,
      "t": 23231.697249999994,
      "d": 182.92674999999872,
      "v": 120
    },
    {
      "midi": 74,
      "hit": false,
      "t": 23414.623999999993,
      "d": 365.85349999999744,
      "v": 120
    },
    {
      "midi": 58,
      "hit": false,
      "t": 23597.55074999999,
      "d": 1097.560499999996,
      "v": 120
    },
    {
      "midi": 55,
      "hit": false,
      "t": 23597.55074999999,
      "d": 1097.560499999996,
      "v": 120
    },
    {
      "midi": 63,
      "hit": false,
      "t": 23597.55074999999,
      "d": 1097.560499999996,
      "v": 120
    },
    {
      "midi": 70,
      "hit": false,
      "t": 23780.47749999999,
      "d": 182.92674999999872,
      "v": 120
    },
    {
      "midi": 72,
      "hit": false,
      "t": 23963.40424999999,
      "d": 182.92674999999872,
      "v": 120
    },
    {
      "midi": 74,
      "hit": false,
      "t": 24146.330999999987,
      "d": 365.8535000000011,
      "v": 120
    },
    {
      "midi": 70,
      "hit": false,
      "t": 24512.18449999999,
      "d": 182.92674999999872,
      "v": 120
    },
    {
      "midi": 72,
      "hit": false,
      "t": 24695.111249999987,
      "d": 182.92674999999872,
      "v": 120
    },
    {
      "midi": 53,
      "hit": false,
      "t": 24695.111249999987,
      "d": 1829.2674999999945,
      "v": 120
    },
    {
      "midi": 58,
      "hit": false,
      "t": 24695.111249999987,
      "d": 1829.2674999999945,
      "v": 120
    },
    {
      "midi": 62,
      "hit": false,
      "t": 24695.111249999987,
      "d": 1829.2674999999945,
      "v": 120
    },
    {
      "midi": 74,
      "hit": false,
      "t": 24878.037999999986,
      "d": 365.8535000000011,
      "v": 120
    },
    {
      "midi": 70,
      "hit": false,
      "t": 25243.891499999987,
      "d": 182.92674999999872,
      "v": 120
    },
    {
      "midi": 72,
      "hit": false,
      "t": 25426.818249999986,
      "d": 182.92674999999872,
      "v": 120
    },
    {
      "midi": 74,
      "hit": false,
      "t": 25609.744999999984,
      "d": 548.7802499999998,
      "v": 120
    },
    {
      "midi": 70,
      "hit": false,
      "t": 26341.451999999983,
      "d": 182.92674999999872,
      "v": 120
    },
    {
      "midi": 72,
      "hit": false,
      "t": 26524.37874999998,
      "d": 365.8535000000011,
      "v": 120
    },
    {
      "midi": 58,
      "hit": false,
      "t": 26524.37874999998,
      "d": 1097.5604999999996,
      "v": 120
    },
    {
      "midi": 55,
      "hit": false,
      "t": 26524.37874999998,
      "d": 1097.5604999999996,
      "v": 120
    },
    {
      "midi": 63,
      "hit": false,
      "t": 26524.37874999998,
      "d": 1097.5604999999996,
      "v": 120
    },
    {
      "midi": 70,
      "hit": false,
      "t": 26890.232249999983,
      "d": 182.92674999999872,
      "v": 120
    },
    {
      "midi": 72,
      "hit": false,
      "t": 27073.15899999998,
      "d": 365.8535000000011,
      "v": 120
    },
    {
      "midi": 77,
      "hit": false,
      "t": 27439.012499999983,
      "d": 365.85349999999744,
      "v": 120
    },
    {
      "midi": 53,
      "hit": false,
      "t": 27621.93924999998,
      "d": 1829.2675000000017,
      "v": 120
    },
    {
      "midi": 58,
      "hit": false,
      "t": 27621.93924999998,
      "d": 1829.2675000000017,
      "v": 120
    },
    {
      "midi": 62,
      "hit": false,
      "t": 27621.93924999998,
      "d": 1829.2675000000017,
      "v": 120
    },
    {
      "midi": 77,
      "hit": false,
      "t": 27804.86599999998,
      "d": 914.6337500000009,
      "v": 120
    },
    {
      "midi": 74,
      "hit": false,
      "t": 28719.49974999998,
      "d": 365.8535000000011,
      "v": 120
    },
    {
      "midi": 75,
      "hit": false,
      "t": 29085.353249999982,
      "d": 365.8535000000011,
      "v": 120
    },
    {
      "midi": 77,
      "hit": false,
      "t": 29451.206749999983,
      "d": 365.8535000000011,
      "v": 120
    },
    {
      "midi": 55,
      "hit": false,
      "t": 29451.206749999983,
      "d": 1097.5604999999996,
      "v": 120
    },
    {
      "midi": 58,
      "hit": false,
      "t": 29451.206749999983,
      "d": 1097.5604999999996,
      "v": 120
    },
    {
      "midi": 63,
      "hit": false,
      "t": 29451.206749999983,
      "d": 1097.5604999999996,
      "v": 120
    },
    {
      "midi": 70,
      "hit": false,
      "t": 29817.060249999984,
      "d": 182.92674999999872,
      "v": 120
    },
    {
      "midi": 70,
      "hit": false,
      "t": 29999.986999999983,
      "d": 548.7802499999998,
      "v": 120
    },
    {
      "midi": 74,
      "hit": false,
      "t": 30548.767249999983,
      "d": 182.92674999999872,
      "v": 120
    },
    {
      "midi": 53,
      "hit": false,
      "t": 30548.767249999983,
      "d": 1829.2674999999945,
      "v": 120
    },
    {
      "midi": 58,
      "hit": false,
      "t": 30548.767249999983,
      "d": 1829.2674999999945,
      "v": 120
    },
    {
      "midi": 62,
      "hit": false,
      "t": 30548.767249999983,
      "d": 1829.2674999999945,
      "v": 120
    },
    {
      "midi": 75,
      "hit": false,
      "t": 30731.69399999998,
      "d": 182.92674999999872,
      "v": 120
    },
    {
      "midi": 77,
      "hit": false,
      "t": 30914.62074999998,
      "d": 365.8535000000011,
      "v": 120
    },
    {
      "midi": 70,
      "hit": false,
      "t": 31280.47424999998,
      "d": 182.92674999999872,
      "v": 120
    },
    {
      "midi": 70,
      "hit": false,
      "t": 31463.40099999998,
      "d": 548.7802499999998,
      "v": 120
    },
    {
      "midi": 70,
      "hit": false,
      "t": 32195.10799999998,
      "d": 182.92674999999872,
      "v": 120
    },
    {
      "midi": 72,
      "hit": false,
      "t": 32378.034749999977,
      "d": 365.8535000000011,
      "v": 120
    },
    {
      "midi": 57,
      "hit": false,
      "t": 32378.034749999977,
      "d": 1097.5604999999996,
      "v": 120
    },
    {
      "midi": 60,
      "hit": false,
      "t": 32378.034749999977,
      "d": 1097.5604999999996,
      "v": 120
    },
    {
      "midi": 53,
      "hit": false,
      "t": 32378.034749999977,
      "d": 1097.5604999999996,
      "v": 120
    },
    {
      "midi": 70,
      "hit": false,
      "t": 32743.888249999978,
      "d": 182.92675000000236,
      "v": 120
    },
    {
      "midi": 72,
      "hit": false,
      "t": 32926.81499999998,
      "d": 365.85349999999744,
      "v": 120
    },
    {
      "midi": 70,
      "hit": false,
      "t": 33292.66849999998,
      "d": 182.92674999999872,
      "v": 120
    },
    {
      "midi": 55,
      "hit": false,
      "t": 33475.59524999998,
      "d": 1097.5604999999996,
      "v": 120
    },
    {
      "midi": 58,
      "hit": false,
      "t": 33475.59524999998,
      "d": 1097.5604999999996,
      "v": 120
    },
    {
      "midi": 65,
      "hit": false,
      "t": 33475.59524999998,
      "d": 1097.5604999999996,
      "v": 120
    },
    {
      "midi": 70,
      "hit": false,
      "t": 33475.59524999998,
      "d": 1097.5604999999996,
      "v": 120
    },
    {
      "midi": 62,
      "hit": false,
      "t": 33475.59524999998,
      "d": 1097.5604999999996,
      "v": 120
    },
    {
      "midi": 55,
      "hit": false,
      "t": 34573.155749999976,
      "d": 731.7070000000022,
      "v": 120
    },
    {
      "midi": 62,
      "hit": false,
      "t": 34573.155749999976,
      "d": 731.7070000000022,
      "v": 120
    },
    {
      "midi": 58,
      "hit": false,
      "t": 34573.155749999976,
      "d": 731.7070000000022,
      "v": 120
    },
    {
      "midi": 48,
      "hit": false,
      "t": 35304.86274999998,
      "d": 365.85349999999744,
      "v": 120
    },
    {
      "midi": 72,
      "hit": false,
      "t": 35304.86274999998,
      "d": 914.6337499999936,
      "v": 120
    },
    {
      "midi": 76,
      "hit": false,
      "t": 35304.86274999998,
      "d": 914.6337499999936,
      "v": 120
    },
    {
      "midi": 55,
      "hit": false,
      "t": 35670.716249999976,
      "d": 365.85349999999744,
      "v": 120
    },
    {
      "midi": 60,
      "hit": false,
      "t": 36036.56974999997,
      "d": 731.7069999999949,
      "v": 120
    },
    {
      "midi": 74,
      "hit": false,
      "t": 36219.49649999997,
      "d": 182.92674999999872,
      "v": 120
    },
    {
      "midi": 74,
      "hit": false,
      "t": 36402.42324999997,
      "d": 182.92674999999872,
      "v": 120
    },
    {
      "midi": 74,
      "hit": false,
      "t": 36585.34999999997,
      "d": 914.6337499999936,
      "v": 120
    },
    {
      "midi": 55,
      "hit": false,
      "t": 36768.27674999997,
      "d": 365.85349999999744,
      "v": 120
    },
    {
      "midi": 59,
      "hit": false,
      "t": 37134.130249999966,
      "d": 365.85349999999744,
      "v": 120
    },
    {
      "midi": 74,
      "hit": false,
      "t": 37499.98374999996,
      "d": 365.85349999999744,
      "v": 120
    },
    {
      "midi": 62,
      "hit": false,
      "t": 37499.98374999996,
      "d": 731.7069999999949,
      "v": 120
    },
    {
      "midi": 79,
      "hit": false,
      "t": 37865.83724999996,
      "d": 365.85349999999744,
      "v": 120
    },
    {
      "midi": 78,
      "hit": false,
      "t": 38231.69074999996,
      "d": 365.85349999999744,
      "v": 120
    },
    {
      "midi": 50,
      "hit": false,
      "t": 38231.69074999996,
      "d": 365.85349999999744,
      "v": 120
    },
    {
      "midi": 78,
      "hit": false,
      "t": 38597.544249999955,
      "d": 182.92674999999872,
      "v": 120
    },
    {
      "midi": 54,
      "hit": false,
      "t": 38597.544249999955,
      "d": 365.85349999999744,
      "v": 120
    },
    {
      "midi": 78,
      "hit": false,
      "t": 38780.470999999954,
      "d": 365.85349999999744,
      "v": 120
    },
    {
      "midi": 57,
      "hit": false,
      "t": 38963.39774999995,
      "d": 731.7069999999949,
      "v": 120
    },
    {
      "midi": 78,
      "hit": false,
      "t": 39146.32449999995,
      "d": 182.92674999999872,
      "v": 120
    },
    {
      "midi": 79,
      "hit": false,
      "t": 39329.25124999995,
      "d": 1097.5604999999923,
      "v": 120
    },
    {
      "midi": 52,
      "hit": false,
      "t": 39695.10474999995,
      "d": 365.85349999999744,
      "v": 120
    },
    {
      "midi": 55,
      "hit": false,
      "t": 40060.958249999945,
      "d": 365.85349999999744,
      "v": 120
    },
    {
      "midi": 74,
      "hit": false,
      "t": 40426.81174999994,
      "d": 365.85349999999744,
      "v": 120
    },
    {
      "midi": 59,
      "hit": false,
      "t": 40426.81174999994,
      "d": 731.7069999999949,
      "v": 120
    },
    {
      "midi": 79,
      "hit": false,
      "t": 40792.66524999994,
      "d": 365.85349999999744,
      "v": 120
    },
    {
      "midi": 48,
      "hit": false,
      "t": 41158.51874999994,
      "d": 365.85349999999744,
      "v": 120
    },
    {
      "midi": 78,
      "hit": false,
      "t": 41158.51874999994,
      "d": 365.85349999999744,
      "v": 120
    },
    {
      "midi": 78,
      "hit": false,
      "t": 41524.372249999935,
      "d": 182.92674999999872,
      "v": 120
    },
    {
      "midi": 52,
      "hit": false,
      "t": 41524.372249999935,
      "d": 365.85349999999744,
      "v": 120
    },
    {
      "midi": 78,
      "hit": false,
      "t": 41707.29899999993,
      "d": 365.85349999999744,
      "v": 120
    },
    {
      "midi": 55,
      "hit": false,
      "t": 41890.22574999993,
      "d": 731.7069999999949,
      "v": 120
    },
    {
      "midi": 78,
      "hit": false,
      "t": 42073.15249999993,
      "d": 182.92674999999872,
      "v": 120
    },
    {
      "midi": 79,
      "hit": false,
      "t": 42256.07924999993,
      "d": 1097.5604999999923,
      "v": 120
    },
    {
      "midi": 55,
      "hit": false,
      "t": 42621.93274999993,
      "d": 365.85349999999744,
      "v": 120
    },
    {
      "midi": 59,
      "hit": false,
      "t": 42987.786249999925,
      "d": 365.85349999999744,
      "v": 120
    },
    {
      "midi": 76,
      "hit": false,
      "t": 43353.63974999992,
      "d": 365.85349999999744,
      "v": 120
    },
    {
      "midi": 62,
      "hit": false,
      "t": 43353.63974999992,
      "d": 731.7069999999949,
      "v": 120
    },
    {
      "midi": 74,
      "hit": false,
      "t": 43719.49324999992,
      "d": 3292.681500000006,
      "v": 120
    },
    {
      "midi": 55,
      "hit": false,
      "t": 44085.34674999992,
      "d": 731.7070000000022,
      "v": 120
    },
    {
      "midi": 50,
      "hit": false,
      "t": 44085.34674999992,
      "d": 731.7070000000022,
      "v": 120
    },
    {
      "midi": 54,
      "hit": false,
      "t": 44817.05374999992,
      "d": 731.7070000000022,
      "v": 120
    },
    {
      "midi": 50,
      "hit": false,
      "t": 44817.05374999992,
      "d": 731.7070000000022,
      "v": 120
    },
    {
      "midi": 52,
      "hit": false,
      "t": 45548.76074999992,
      "d": 731.7070000000022,
      "v": 120
    },
    {
      "midi": 50,
      "hit": false,
      "t": 45548.76074999992,
      "d": 731.7070000000022,
      "v": 120
    },
    {
      "midi": 54,
      "hit": false,
      "t": 46280.46774999992,
      "d": 731.7070000000022,
      "v": 120
    },
    {
      "midi": 50,
      "hit": false,
      "t": 46280.46774999992,
      "d": 731.7070000000022,
      "v": 120
    },
    {
      "midi": 59,
      "hit": false,
      "t": 47012.174749999926,
      "d": 731.7070000000022,
      "v": 120
    },
    {
      "midi": 66,
      "hit": false,
      "t": 47012.174749999926,
      "d": 731.7070000000022,
      "v": 120
    },
    {
      "midi": 47,
      "hit": false,
      "t": 47012.174749999926,
      "d": 731.7070000000022,
      "v": 120
    },
    {
      "midi": 64,
      "hit": false,
      "t": 47012.174749999926,
      "d": 731.7070000000022,
      "v": 120
    },
    {
      "midi": 71,
      "hit": false,
      "t": 47012.174749999926,
      "d": 2926.8280000000086,
      "v": 120
    },
    {
      "midi": 47,
      "hit": false,
      "t": 47743.88174999993,
      "d": 731.7070000000022,
      "v": 120
    },
    {
      "midi": 66,
      "hit": false,
      "t": 47743.88174999993,
      "d": 731.7070000000022,
      "v": 120
    },
    {
      "midi": 59,
      "hit": false,
      "t": 47743.88174999993,
      "d": 731.7070000000022,
      "v": 120
    },
    {
      "midi": 64,
      "hit": false,
      "t": 47743.88174999993,
      "d": 731.7070000000022,
      "v": 120
    },
    {
      "midi": 47,
      "hit": false,
      "t": 48475.58874999993,
      "d": 731.7070000000022,
      "v": 120
    },
    {
      "midi": 66,
      "hit": false,
      "t": 48475.58874999993,
      "d": 731.7070000000022,
      "v": 120
    },
    {
      "midi": 59,
      "hit": false,
      "t": 48475.58874999993,
      "d": 731.7070000000022,
      "v": 120
    },
    {
      "midi": 64,
      "hit": false,
      "t": 48475.58874999993,
      "d": 731.7070000000022,
      "v": 120
    },
    {
      "midi": 47,
      "hit": false,
      "t": 49207.29574999993,
      "d": 731.7070000000022,
      "v": 120
    },
    {
      "midi": 64,
      "hit": false,
      "t": 49207.29574999993,
      "d": 731.7070000000022,
      "v": 120
    },
    {
      "midi": 66,
      "hit": false,
      "t": 49207.29574999993,
      "d": 731.7070000000022,
      "v": 120
    },
    {
      "midi": 59,
      "hit": false,
      "t": 49207.29574999993,
      "d": 731.7070000000022,
      "v": 120
    },
    {
      "midi": 76,
      "hit": false,
      "t": 49939.002749999934,
      "d": 365.85349999999744,
      "v": 120
    },
    {
      "midi": 52,
      "hit": false,
      "t": 49939.002749999934,
      "d": 731.7069999999949,
      "v": 120
    },
    {
      "midi": 55,
      "hit": false,
      "t": 49939.002749999934,
      "d": 731.7069999999949,
      "v": 120
    },
    {
      "midi": 59,
      "hit": false,
      "t": 49939.002749999934,
      "d": 731.7069999999949,
      "v": 120
    },
    {
      "midi": 78,
      "hit": false,
      "t": 50304.85624999993,
      "d": 182.92674999999872,
      "v": 120
    },
    {
      "midi": 79,
      "hit": false,
      "t": 50487.78299999993,
      "d": 365.85349999999744,
      "v": 120
    },
    {
      "midi": 52,
      "hit": false,
      "t": 50670.70974999993,
      "d": 365.85349999999744,
      "v": 120
    },
    {
      "midi": 59,
      "hit": false,
      "t": 50670.70974999993,
      "d": 365.85349999999744,
      "v": 120
    },
    {
      "midi": 55,
      "hit": false,
      "t": 50670.70974999993,
      "d": 365.85349999999744,
      "v": 120
    },
    {
      "midi": 81,
      "hit": false,
      "t": 50853.63649999993,
      "d": 182.92674999999872,
      "v": 120
    },
    {
      "midi": 48,
      "hit": false,
      "t": 51036.56324999993,
      "d": 1097.5604999999996,
      "v": 120
    },
    {
      "midi": 83,
      "hit": false,
      "t": 51036.56324999993,
      "d": 1097.5604999999996,
      "v": 120
    },
    {
      "midi": 55,
      "hit": false,
      "t": 51036.56324999993,
      "d": 1097.5604999999996,
      "v": 120
    },
    {
      "midi": 76,
      "hit": false,
      "t": 51036.56324999993,
      "d": 1097.5604999999996,
      "v": 120
    },
    {
      "midi": 52,
      "hit": false,
      "t": 51036.56324999993,
      "d": 1097.5604999999996,
      "v": 120
    },
    {
      "midi": 48,
      "hit": false,
      "t": 52134.123749999926,
      "d": 731.7069999999949,
      "v": 120
    },
    {
      "midi": 55,
      "hit": false,
      "t": 52134.123749999926,
      "d": 731.7069999999949,
      "v": 120
    },
    {
      "midi": 52,
      "hit": false,
      "t": 52134.123749999926,
      "d": 731.7069999999949,
      "v": 120
    },
    {
      "midi": 76,
      "hit": false,
      "t": 52499.97724999992,
      "d": 365.85349999999744,
      "v": 120
    },
    {
      "midi": 54,
      "hit": false,
      "t": 52865.83074999992,
      "d": 731.7070000000022,
      "v": 120
    },
    {
      "midi": 74,
      "hit": false,
      "t": 52865.83074999992,
      "d": 731.7070000000022,
      "v": 120
    },
    {
      "midi": 57,
      "hit": false,
      "t": 52865.83074999992,
      "d": 731.7070000000022,
      "v": 120
    },
    {
      "midi": 50,
      "hit": false,
      "t": 52865.83074999992,
      "d": 731.7070000000022,
      "v": 120
    },
    {
      "midi": 54,
      "hit": false,
      "t": 53597.53774999992,
      "d": 731.7070000000022,
      "v": 120
    },
    {
      "midi": 50,
      "hit": false,
      "t": 53597.53774999992,
      "d": 731.7070000000022,
      "v": 120
    },
    {
      "midi": 84,
      "hit": false,
      "t": 53597.53774999992,
      "d": 731.7070000000022,
      "v": 120
    },
    {
      "midi": 57,
      "hit": false,
      "t": 53597.53774999992,
      "d": 731.7070000000022,
      "v": 120
    },
    {
      "midi": 84,
      "hit": false,
      "t": 54329.244749999925,
      "d": 548.7802500000034,
      "v": 120
    },
    {
      "midi": 74,
      "hit": false,
      "t": 54329.244749999925,
      "d": 548.7802500000034,
      "v": 120
    },
    {
      "midi": 59,
      "hit": false,
      "t": 54329.244749999925,
      "d": 731.7070000000022,
      "v": 120
    },
    {
      "midi": 55,
      "hit": false,
      "t": 54329.244749999925,
      "d": 731.7070000000022,
      "v": 120
    },
    {
      "midi": 83,
      "hit": false,
      "t": 54878.02499999993,
      "d": 182.92674999999872,
      "v": 120
    },
    {
      "midi": 57,
      "hit": false,
      "t": 55060.95174999993,
      "d": 731.7070000000022,
      "v": 120
    },
    {
      "midi": 54,
      "hit": false,
      "t": 55060.95174999993,
      "d": 731.7070000000022,
      "v": 120
    },
    {
      "midi": 83,
      "hit": false,
      "t": 55060.95174999993,
      "d": 731.7070000000022,
      "v": 120
    },
    {
      "midi": 74,
      "hit": false,
      "t": 55060.95174999993,
      "d": 731.7070000000022,
      "v": 120
    },
    {
      "midi": 76,
      "hit": false,
      "t": 55792.65874999993,
      "d": 365.85349999999744,
      "v": 120
    },
    {
      "midi": 52,
      "hit": false,
      "t": 55792.65874999993,
      "d": 731.7069999999949,
      "v": 120
    },
    {
      "midi": 55,
      "hit": false,
      "t": 55792.65874999993,
      "d": 731.7069999999949,
      "v": 120
    },
    {
      "midi": 59,
      "hit": false,
      "t": 55792.65874999993,
      "d": 731.7069999999949,
      "v": 120
    },
    {
      "midi": 78,
      "hit": false,
      "t": 56158.51224999993,
      "d": 182.92674999999872,
      "v": 120
    },
    {
      "midi": 79,
      "hit": false,
      "t": 56341.438999999926,
      "d": 365.85349999999744,
      "v": 120
    },
    {
      "midi": 52,
      "hit": false,
      "t": 56524.365749999924,
      "d": 365.85349999999744,
      "v": 120
    },
    {
      "midi": 55,
      "hit": false,
      "t": 56524.365749999924,
      "d": 365.85349999999744,
      "v": 120
    },
    {
      "midi": 59,
      "hit": false,
      "t": 56524.365749999924,
      "d": 365.85349999999744,
      "v": 120
    },
    {
      "midi": 81,
      "hit": false,
      "t": 56707.29249999992,
      "d": 182.92674999999872,
      "v": 120
    },
    {
      "midi": 83,
      "hit": false,
      "t": 56890.21924999992,
      "d": 731.7070000000022,
      "v": 120
    },
    {
      "midi": 76,
      "hit": false,
      "t": 56890.21924999992,
      "d": 731.7070000000022,
      "v": 120
    },
    {
      "midi": 48,
      "hit": false,
      "t": 56890.21924999992,
      "d": 1097.5604999999996,
      "v": 120
    },
    {
      "midi": 55,
      "hit": false,
      "t": 56890.21924999992,
      "d": 1097.5604999999996,
      "v": 120
    },
    {
      "midi": 52,
      "hit": false,
      "t": 56890.21924999992,
      "d": 1097.5604999999996,
      "v": 120
    },
    {
      "midi": 81,
      "hit": false,
      "t": 57621.926249999924,
      "d": 1097.5604999999996,
      "v": 120
    },
    {
      "midi": 48,
      "hit": false,
      "t": 57987.77974999992,
      "d": 731.7070000000022,
      "v": 120
    },
    {
      "midi": 55,
      "hit": false,
      "t": 57987.77974999992,
      "d": 731.7070000000022,
      "v": 120
    },
    {
      "midi": 52,
      "hit": false,
      "t": 57987.77974999992,
      "d": 731.7070000000022,
      "v": 120
    },
    {
      "midi": 57,
      "hit": false,
      "t": 58719.48674999992,
      "d": 731.7070000000022,
      "v": 120
    },
    {
      "midi": 78,
      "hit": false,
      "t": 58719.48674999992,
      "d": 731.7070000000022,
      "v": 120
    },
    {
      "midi": 59,
      "hit": false,
      "t": 58719.48674999992,
      "d": 731.7070000000022,
      "v": 120
    },
    {
      "midi": 51,
      "hit": false,
      "t": 58719.48674999992,
      "d": 731.7070000000022,
      "v": 120
    },
    {
      "midi": 57,
      "hit": false,
      "t": 59451.193749999926,
      "d": 731.7070000000022,
      "v": 120
    },
    {
      "midi": 59,
      "hit": false,
      "t": 59451.193749999926,
      "d": 731.7070000000022,
      "v": 120
    },
    {
      "midi": 51,
      "hit": false,
      "t": 59451.193749999926,
      "d": 731.7070000000022,
      "v": 120
    },
    {
      "midi": 81,
      "hit": false,
      "t": 59451.193749999926,
      "d": 731.7070000000022,
      "v": 120
    },
    {
      "midi": 81,
      "hit": false,
      "t": 60182.90074999993,
      "d": 365.85349999999744,
      "v": 120
    },
    {
      "midi": 55,
      "hit": false,
      "t": 60182.90074999993,
      "d": 731.7069999999949,
      "v": 120
    },
    {
      "midi": 59,
      "hit": false,
      "t": 60182.90074999993,
      "d": 731.7069999999949,
      "v": 120
    },
    {
      "midi": 52,
      "hit": false,
      "t": 60182.90074999993,
      "d": 731.7069999999949,
      "v": 120
    },
    {
      "midi": 79,
      "hit": false,
      "t": 60548.754249999925,
      "d": 182.92674999999872,
      "v": 120
    },
    {
      "midi": 79,
      "hit": false,
      "t": 60731.680999999924,
      "d": 914.6337500000009,
      "v": 120
    },
    {
      "midi": 55,
      "hit": false,
      "t": 60914.60774999992,
      "d": 731.7070000000022,
      "v": 120
    },
    {
      "midi": 59,
      "hit": false,
      "t": 60914.60774999992,
      "d": 731.7070000000022,
      "v": 120
    },
    {
      "midi": 52,
      "hit": false,
      "t": 60914.60774999992,
      "d": 731.7070000000022,
      "v": 120
    },
    {
      "midi": 76,
      "hit": false,
      "t": 61646.314749999925,
      "d": 365.85349999999744,
      "v": 120
    },
    {
      "midi": 52,
      "hit": false,
      "t": 61646.314749999925,
      "d": 731.7069999999949,
      "v": 120
    },
    {
      "midi": 55,
      "hit": false,
      "t": 61646.314749999925,
      "d": 731.7069999999949,
      "v": 120
    },
    {
      "midi": 59,
      "hit": false,
      "t": 61646.314749999925,
      "d": 731.7069999999949,
      "v": 120
    },
    {
      "midi": 78,
      "hit": false,
      "t": 62012.16824999992,
      "d": 182.92674999999872,
      "v": 120
    },
    {
      "midi": 79,
      "hit": false,
      "t": 62195.09499999992,
      "d": 365.85349999999744,
      "v": 120
    },
    {
      "midi": 52,
      "hit": false,
      "t": 62378.02174999992,
      "d": 365.85349999999744,
      "v": 120
    },
    {
      "midi": 59,
      "hit": false,
      "t": 62378.02174999992,
      "d": 365.85349999999744,
      "v": 120
    },
    {
      "midi": 55,
      "hit": false,
      "t": 62378.02174999992,
      "d": 365.85349999999744,
      "v": 120
    },
    {
      "midi": 81,
      "hit": false,
      "t": 62560.94849999992,
      "d": 182.92674999999872,
      "v": 120
    },
    {
      "midi": 48,
      "hit": false,
      "t": 62743.87524999992,
      "d": 1097.5604999999996,
      "v": 120
    },
    {
      "midi": 83,
      "hit": false,
      "t": 62743.87524999992,
      "d": 1097.5604999999996,
      "v": 120
    },
    {
      "midi": 55,
      "hit": false,
      "t": 62743.87524999992,
      "d": 1097.5604999999996,
      "v": 120
    },
    {
      "midi": 76,
      "hit": false,
      "t": 62743.87524999992,
      "d": 1097.5604999999996,
      "v": 120
    },
    {
      "midi": 52,
      "hit": false,
      "t": 62743.87524999992,
      "d": 1097.5604999999996,
      "v": 120
    },
    {
      "midi": 48,
      "hit": false,
      "t": 63841.43574999992,
      "d": 731.7069999999949,
      "v": 120
    },
    {
      "midi": 55,
      "hit": false,
      "t": 63841.43574999992,
      "d": 731.7069999999949,
      "v": 120
    },
    {
      "midi": 52,
      "hit": false,
      "t": 63841.43574999992,
      "d": 731.7069999999949,
      "v": 120
    },
    {
      "midi": 76,
      "hit": false,
      "t": 64207.289249999914,
      "d": 365.85349999999744,
      "v": 120
    },
    {
      "midi": 54,
      "hit": false,
      "t": 64573.14274999991,
      "d": 731.7070000000022,
      "v": 120
    },
    {
      "midi": 74,
      "hit": false,
      "t": 64573.14274999991,
      "d": 731.7070000000022,
      "v": 120
    },
    {
      "midi": 57,
      "hit": false,
      "t": 64573.14274999991,
      "d": 731.7070000000022,
      "v": 120
    },
    {
      "midi": 50,
      "hit": false,
      "t": 64573.14274999991,
      "d": 731.7070000000022,
      "v": 120
    },
    {
      "midi": 54,
      "hit": false,
      "t": 65304.849749999914,
      "d": 731.7070000000022,
      "v": 120
    },
    {
      "midi": 50,
      "hit": false,
      "t": 65304.849749999914,
      "d": 731.7070000000022,
      "v": 120
    },
    {
      "midi": 57,
      "hit": false,
      "t": 65304.849749999914,
      "d": 731.7070000000022,
      "v": 120
    },
    {
      "midi": 84,
      "hit": false,
      "t": 65304.849749999914,
      "d": 731.7070000000022,
      "v": 120
    },
    {
      "midi": 84,
      "hit": false,
      "t": 66036.55674999992,
      "d": 548.7802499999962,
      "v": 120
    },
    {
      "midi": 74,
      "hit": false,
      "t": 66036.55674999992,
      "d": 548.7802499999962,
      "v": 120
    },
    {
      "midi": 59,
      "hit": false,
      "t": 66036.55674999992,
      "d": 731.7069999999949,
      "v": 120
    },
    {
      "midi": 55,
      "hit": false,
      "t": 66036.55674999992,
      "d": 731.7069999999949,
      "v": 120
    },
    {
      "midi": 83,
      "hit": false,
      "t": 66585.33699999991,
      "d": 182.92674999999872,
      "v": 120
    },
    {
      "midi": 57,
      "hit": false,
      "t": 66768.26374999991,
      "d": 731.7069999999949,
      "v": 120
    },
    {
      "midi": 54,
      "hit": false,
      "t": 66768.26374999991,
      "d": 731.7069999999949,
      "v": 120
    },
    {
      "midi": 83,
      "hit": false,
      "t": 66768.26374999991,
      "d": 731.7069999999949,
      "v": 120
    },
    {
      "midi": 74,
      "hit": false,
      "t": 66768.26374999991,
      "d": 731.7069999999949,
      "v": 120
    },
    {
      "midi": 76,
      "hit": false,
      "t": 67499.9707499999,
      "d": 365.85349999999744,
      "v": 120
    },
    {
      "midi": 52,
      "hit": false,
      "t": 67499.9707499999,
      "d": 731.7069999999949,
      "v": 120
    },
    {
      "midi": 55,
      "hit": false,
      "t": 67499.9707499999,
      "d": 731.7069999999949,
      "v": 120
    },
    {
      "midi": 59,
      "hit": false,
      "t": 67499.9707499999,
      "d": 731.7069999999949,
      "v": 120
    },
    {
      "midi": 78,
      "hit": false,
      "t": 67865.8242499999,
      "d": 182.92674999999872,
      "v": 120
    },
    {
      "midi": 79,
      "hit": false,
      "t": 68048.7509999999,
      "d": 365.85349999999744,
      "v": 120
    },
    {
      "midi": 52,
      "hit": false,
      "t": 68231.6777499999,
      "d": 365.85349999999744,
      "v": 120
    },
    {
      "midi": 55,
      "hit": false,
      "t": 68231.6777499999,
      "d": 365.85349999999744,
      "v": 120
    },
    {
      "midi": 59,
      "hit": false,
      "t": 68231.6777499999,
      "d": 365.85349999999744,
      "v": 120
    },
    {
      "midi": 81,
      "hit": false,
      "t": 68414.6044999999,
      "d": 182.92674999999872,
      "v": 120
    },
    {
      "midi": 83,
      "hit": false,
      "t": 68597.5312499999,
      "d": 731.7069999999949,
      "v": 120
    },
    {
      "midi": 76,
      "hit": false,
      "t": 68597.5312499999,
      "d": 731.7069999999949,
      "v": 120
    },
    {
      "midi": 48,
      "hit": false,
      "t": 68597.5312499999,
      "d": 1097.5604999999923,
      "v": 120
    },
    {
      "midi": 55,
      "hit": false,
      "t": 68597.5312499999,
      "d": 1097.5604999999923,
      "v": 120
    },
    {
      "midi": 52,
      "hit": false,
      "t": 68597.5312499999,
      "d": 1097.5604999999923,
      "v": 120
    },
    {
      "midi": 81,
      "hit": false,
      "t": 69329.2382499999,
      "d": 1097.5604999999923,
      "v": 120
    },
    {
      "midi": 48,
      "hit": false,
      "t": 69695.09174999989,
      "d": 731.7069999999949,
      "v": 120
    },
    {
      "midi": 55,
      "hit": false,
      "t": 69695.09174999989,
      "d": 731.7069999999949,
      "v": 120
    },
    {
      "midi": 52,
      "hit": false,
      "t": 69695.09174999989,
      "d": 731.7069999999949,
      "v": 120
    },
    {
      "midi": 78,
      "hit": false,
      "t": 70426.79874999989,
      "d": 365.85349999999744,
      "v": 120
    },
    {
      "midi": 57,
      "hit": false,
      "t": 70426.79874999989,
      "d": 731.7069999999949,
      "v": 120
    },
    {
      "midi": 51,
      "hit": false,
      "t": 70426.79874999989,
      "d": 731.7069999999949,
      "v": 120
    },
    {
      "midi": 59,
      "hit": false,
      "t": 70426.79874999989,
      "d": 731.7069999999949,
      "v": 120
    },
    {
      "midi": 78,
      "hit": false,
      "t": 70792.65224999988,
      "d": 182.92674999999872,
      "v": 120
    },
    {
      "midi": 76,
      "hit": false,
      "t": 70975.57899999988,
      "d": 548.7802499999962,
      "v": 120
    },
    {
      "midi": 57,
      "hit": false,
      "t": 71158.50574999988,
      "d": 731.7069999999949,
      "v": 120
    },
    {
      "midi": 59,
      "hit": false,
      "t": 71158.50574999988,
      "d": 731.7069999999949,
      "v": 120
    },
    {
      "midi": 51,
      "hit": false,
      "t": 71158.50574999988,
      "d": 731.7069999999949,
      "v": 120
    },
    {
      "midi": 78,
      "hit": false,
      "t": 71524.35924999988,
      "d": 182.92674999999872,
      "v": 120
    },
    {
      "midi": 79,
      "hit": false,
      "t": 71707.28599999988,
      "d": 1646.3407499999885,
      "v": 120
    },
    {
      "midi": 52,
      "hit": false,
      "t": 71890.21274999988,
      "d": 731.7069999999949,
      "v": 120
    },
    {
      "midi": 59,
      "hit": false,
      "t": 71890.21274999988,
      "d": 731.7069999999949,
      "v": 120
    },
    {
      "midi": 55,
      "hit": false,
      "t": 71890.21274999988,
      "d": 731.7069999999949,
      "v": 120
    },
    {
      "midi": 55,
      "hit": false,
      "t": 72621.91974999987,
      "d": 731.7069999999949,
      "v": 120
    },
    {
      "midi": 59,
      "hit": false,
      "t": 72621.91974999987,
      "d": 731.7069999999949,
      "v": 120
    },
    {
      "midi": 52,
      "hit": false,
      "t": 72621.91974999987,
      "d": 731.7069999999949,
      "v": 120
    },
    {
      "midi": 76,
      "hit": false,
      "t": 73353.62674999986,
      "d": 365.85349999999744,
      "v": 120
    },
    {
      "midi": 52,
      "hit": false,
      "t": 73353.62674999986,
      "d": 731.7069999999949,
      "v": 120
    },
    {
      "midi": 55,
      "hit": false,
      "t": 73353.62674999986,
      "d": 731.7069999999949,
      "v": 120
    },
    {
      "midi": 59,
      "hit": false,
      "t": 73353.62674999986,
      "d": 731.7069999999949,
      "v": 120
    },
    {
      "midi": 78,
      "hit": false,
      "t": 73719.48024999986,
      "d": 182.92674999999872,
      "v": 120
    },
    {
      "midi": 79,
      "hit": false,
      "t": 73902.40699999986,
      "d": 365.85349999999744,
      "v": 120
    },
    {
      "midi": 52,
      "hit": false,
      "t": 74085.33374999986,
      "d": 365.85349999999744,
      "v": 120
    },
    {
      "midi": 59,
      "hit": false,
      "t": 74085.33374999986,
      "d": 365.85349999999744,
      "v": 120
    },
    {
      "midi": 55,
      "hit": false,
      "t": 74085.33374999986,
      "d": 365.85349999999744,
      "v": 120
    },
    {
      "midi": 81,
      "hit": false,
      "t": 74268.26049999986,
      "d": 182.92674999999872,
      "v": 120
    },
    {
      "midi": 48,
      "hit": false,
      "t": 74451.18724999986,
      "d": 1097.5605000000069,
      "v": 120
    },
    {
      "midi": 83,
      "hit": false,
      "t": 74451.18724999986,
      "d": 1097.5605000000069,
      "v": 120
    },
    {
      "midi": 55,
      "hit": false,
      "t": 74451.18724999986,
      "d": 1097.5605000000069,
      "v": 120
    },
    {
      "midi": 76,
      "hit": false,
      "t": 74451.18724999986,
      "d": 1097.5605000000069,
      "v": 120
    },
    {
      "midi": 52,
      "hit": false,
      "t": 74451.18724999986,
      "d": 1097.5605000000069,
      "v": 120
    },
    {
      "midi": 48,
      "hit": false,
      "t": 75548.74774999986,
      "d": 731.7069999999949,
      "v": 120
    },
    {
      "midi": 55,
      "hit": false,
      "t": 75548.74774999986,
      "d": 731.7069999999949,
      "v": 120
    },
    {
      "midi": 52,
      "hit": false,
      "t": 75548.74774999986,
      "d": 731.7069999999949,
      "v": 120
    },
    {
      "midi": 76,
      "hit": false,
      "t": 75914.60124999986,
      "d": 365.85349999999744,
      "v": 120
    },
    {
      "midi": 54,
      "hit": false,
      "t": 76280.45474999986,
      "d": 731.7069999999949,
      "v": 120
    },
    {
      "midi": 74,
      "hit": false,
      "t": 76280.45474999986,
      "d": 731.7069999999949,
      "v": 120
    },
    {
      "midi": 57,
      "hit": false,
      "t": 76280.45474999986,
      "d": 731.7069999999949,
      "v": 120
    },
    {
      "midi": 50,
      "hit": false,
      "t": 76280.45474999986,
      "d": 731.7069999999949,
      "v": 120
    },
    {
      "midi": 54,
      "hit": false,
      "t": 77012.16174999985,
      "d": 731.7069999999949,
      "v": 120
    },
    {
      "midi": 50,
      "hit": false,
      "t": 77012.16174999985,
      "d": 731.7069999999949,
      "v": 120
    },
    {
      "midi": 84,
      "hit": false,
      "t": 77012.16174999985,
      "d": 731.7069999999949,
      "v": 120
    },
    {
      "midi": 57,
      "hit": false,
      "t": 77012.16174999985,
      "d": 731.7069999999949,
      "v": 120
    },
    {
      "midi": 84,
      "hit": false,
      "t": 77743.86874999985,
      "d": 548.7802499999962,
      "v": 120
    },
    {
      "midi": 74,
      "hit": false,
      "t": 77743.86874999985,
      "d": 548.7802499999962,
      "v": 120
    },
    {
      "midi": 59,
      "hit": false,
      "t": 77743.86874999985,
      "d": 731.7069999999949,
      "v": 120
    },
    {
      "midi": 55,
      "hit": false,
      "t": 77743.86874999985,
      "d": 731.7069999999949,
      "v": 120
    },
    {
      "midi": 83,
      "hit": false,
      "t": 78292.64899999984,
      "d": 182.92674999999872,
      "v": 120
    },
    {
      "midi": 57,
      "hit": false,
      "t": 78475.57574999984,
      "d": 731.7069999999949,
      "v": 120
    },
    {
      "midi": 54,
      "hit": false,
      "t": 78475.57574999984,
      "d": 731.7069999999949,
      "v": 120
    },
    {
      "midi": 83,
      "hit": false,
      "t": 78475.57574999984,
      "d": 731.7069999999949,
      "v": 120
    },
    {
      "midi": 74,
      "hit": false,
      "t": 78475.57574999984,
      "d": 731.7069999999949,
      "v": 120
    },
    {
      "midi": 76,
      "hit": false,
      "t": 79207.28274999984,
      "d": 365.85349999999744,
      "v": 120
    },
    {
      "midi": 52,
      "hit": false,
      "t": 79207.28274999984,
      "d": 731.7069999999949,
      "v": 120
    },
    {
      "midi": 55,
      "hit": false,
      "t": 79207.28274999984,
      "d": 731.7069999999949,
      "v": 120
    },
    {
      "midi": 59,
      "hit": false,
      "t": 79207.28274999984,
      "d": 731.7069999999949,
      "v": 120
    },
    {
      "midi": 78,
      "hit": false,
      "t": 79573.13624999984,
      "d": 182.92674999999872,
      "v": 120
    },
    {
      "midi": 79,
      "hit": false,
      "t": 79756.06299999983,
      "d": 365.85349999999744,
      "v": 120
    },
    {
      "midi": 52,
      "hit": false,
      "t": 79938.98974999983,
      "d": 365.85349999999744,
      "v": 120
    },
    {
      "midi": 55,
      "hit": false,
      "t": 79938.98974999983,
      "d": 365.85349999999744,
      "v": 120
    },
    {
      "midi": 59,
      "hit": false,
      "t": 79938.98974999983,
      "d": 365.85349999999744,
      "v": 120
    },
    {
      "midi": 81,
      "hit": false,
      "t": 80121.91649999983,
      "d": 182.92674999999872,
      "v": 120
    },
    {
      "midi": 83,
      "hit": false,
      "t": 80304.84324999983,
      "d": 731.7069999999949,
      "v": 120
    },
    {
      "midi": 76,
      "hit": false,
      "t": 80304.84324999983,
      "d": 731.7069999999949,
      "v": 120
    },
    {
      "midi": 48,
      "hit": false,
      "t": 80304.84324999983,
      "d": 1097.5604999999923,
      "v": 120
    },
    {
      "midi": 55,
      "hit": false,
      "t": 80304.84324999983,
      "d": 1097.5604999999923,
      "v": 120
    },
    {
      "midi": 52,
      "hit": false,
      "t": 80304.84324999983,
      "d": 1097.5604999999923,
      "v": 120
    },
    {
      "midi": 81,
      "hit": false,
      "t": 81036.55024999983,
      "d": 1097.5604999999923,
      "v": 120
    },
    {
      "midi": 48,
      "hit": false,
      "t": 81402.40374999982,
      "d": 731.7069999999949,
      "v": 120
    },
    {
      "midi": 55,
      "hit": false,
      "t": 81402.40374999982,
      "d": 731.7069999999949,
      "v": 120
    },
    {
      "midi": 52,
      "hit": false,
      "t": 81402.40374999982,
      "d": 731.7069999999949,
      "v": 120
    },
    {
      "midi": 57,
      "hit": false,
      "t": 82134.11074999982,
      "d": 731.7069999999949,
      "v": 120
    },
    {
      "midi": 78,
      "hit": false,
      "t": 82134.11074999982,
      "d": 731.7069999999949,
      "v": 120
    },
    {
      "midi": 59,
      "hit": false,
      "t": 82134.11074999982,
      "d": 731.7069999999949,
      "v": 120
    },
    {
      "midi": 51,
      "hit": false,
      "t": 82134.11074999982,
      "d": 731.7069999999949,
      "v": 120
    },
    {
      "midi": 57,
      "hit": false,
      "t": 82865.81774999981,
      "d": 731.7069999999949,
      "v": 120
    },
    {
      "midi": 81,
      "hit": false,
      "t": 82865.81774999981,
      "d": 731.7069999999949,
      "v": 120
    },
    {
      "midi": 59,
      "hit": false,
      "t": 82865.81774999981,
      "d": 731.7069999999949,
      "v": 120
    },
    {
      "midi": 51,
      "hit": false,
      "t": 82865.81774999981,
      "d": 731.7069999999949,
      "v": 120
    },
    {
      "midi": 81,
      "hit": false,
      "t": 83597.52474999981,
      "d": 365.85349999999744,
      "v": 120
    },
    {
      "midi": 55,
      "hit": false,
      "t": 83597.52474999981,
      "d": 731.7069999999949,
      "v": 120
    },
    {
      "midi": 52,
      "hit": false,
      "t": 83597.52474999981,
      "d": 731.7069999999949,
      "v": 120
    },
    {
      "midi": 59,
      "hit": false,
      "t": 83597.52474999981,
      "d": 731.7069999999949,
      "v": 120
    },
    {
      "midi": 83,
      "hit": false,
      "t": 83963.3782499998,
      "d": 182.92674999999872,
      "v": 120
    },
    {
      "midi": 79,
      "hit": false,
      "t": 84146.3049999998,
      "d": 914.6337499999936,
      "v": 120
    },
    {
      "midi": 55,
      "hit": false,
      "t": 84329.2317499998,
      "d": 731.7069999999949,
      "v": 120
    },
    {
      "midi": 59,
      "hit": false,
      "t": 84329.2317499998,
      "d": 731.7069999999949,
      "v": 120
    },
    {
      "midi": 52,
      "hit": false,
      "t": 84329.2317499998,
      "d": 731.7069999999949,
      "v": 120
    },
    {
      "midi": 76,
      "hit": false,
      "t": 85060.9387499998,
      "d": 365.85349999999744,
      "v": 120
    },
    {
      "midi": 52,
      "hit": false,
      "t": 85060.9387499998,
      "d": 731.7069999999949,
      "v": 120
    },
    {
      "midi": 55,
      "hit": false,
      "t": 85060.9387499998,
      "d": 731.7069999999949,
      "v": 120
    },
    {
      "midi": 59,
      "hit": false,
      "t": 85060.9387499998,
      "d": 731.7069999999949,
      "v": 120
    },
    {
      "midi": 78,
      "hit": false,
      "t": 85426.7922499998,
      "d": 182.92674999999872,
      "v": 120
    },
    {
      "midi": 79,
      "hit": false,
      "t": 85609.7189999998,
      "d": 365.85349999999744,
      "v": 120
    },
    {
      "midi": 52,
      "hit": false,
      "t": 85792.64574999979,
      "d": 365.85349999999744,
      "v": 120
    },
    {
      "midi": 59,
      "hit": false,
      "t": 85792.64574999979,
      "d": 365.85349999999744,
      "v": 120
    },
    {
      "midi": 55,
      "hit": false,
      "t": 85792.64574999979,
      "d": 365.85349999999744,
      "v": 120
    },
    {
      "midi": 81,
      "hit": false,
      "t": 85975.57249999979,
      "d": 182.92674999999872,
      "v": 120
    },
    {
      "midi": 48,
      "hit": false,
      "t": 86158.49924999979,
      "d": 1097.5605000000069,
      "v": 120
    },
    {
      "midi": 83,
      "hit": false,
      "t": 86158.49924999979,
      "d": 1097.5605000000069,
      "v": 120
    },
    {
      "midi": 55,
      "hit": false,
      "t": 86158.49924999979,
      "d": 1097.5605000000069,
      "v": 120
    },
    {
      "midi": 76,
      "hit": false,
      "t": 86158.49924999979,
      "d": 1097.5605000000069,
      "v": 120
    },
    {
      "midi": 52,
      "hit": false,
      "t": 86158.49924999979,
      "d": 1097.5605000000069,
      "v": 120
    },
    {
      "midi": 48,
      "hit": false,
      "t": 87256.0597499998,
      "d": 731.7069999999949,
      "v": 120
    },
    {
      "midi": 55,
      "hit": false,
      "t": 87256.0597499998,
      "d": 731.7069999999949,
      "v": 120
    },
    {
      "midi": 52,
      "hit": false,
      "t": 87256.0597499998,
      "d": 731.7069999999949,
      "v": 120
    },
    {
      "midi": 76,
      "hit": false,
      "t": 87621.9132499998,
      "d": 365.85349999999744,
      "v": 120
    },
    {
      "midi": 54,
      "hit": false,
      "t": 87987.76674999979,
      "d": 731.7069999999949,
      "v": 120
    },
    {
      "midi": 74,
      "hit": false,
      "t": 87987.76674999979,
      "d": 731.7069999999949,
      "v": 120
    },
    {
      "midi": 57,
      "hit": false,
      "t": 87987.76674999979,
      "d": 731.7069999999949,
      "v": 120
    },
    {
      "midi": 50,
      "hit": false,
      "t": 87987.76674999979,
      "d": 731.7069999999949,
      "v": 120
    },
    {
      "midi": 54,
      "hit": false,
      "t": 88719.47374999979,
      "d": 731.7069999999949,
      "v": 120
    },
    {
      "midi": 50,
      "hit": false,
      "t": 88719.47374999979,
      "d": 731.7069999999949,
      "v": 120
    },
    {
      "midi": 84,
      "hit": false,
      "t": 88719.47374999979,
      "d": 731.7069999999949,
      "v": 120
    },
    {
      "midi": 57,
      "hit": false,
      "t": 88719.47374999979,
      "d": 731.7069999999949,
      "v": 120
    },
    {
      "midi": 84,
      "hit": false,
      "t": 89451.18074999978,
      "d": 548.7802499999962,
      "v": 120
    },
    {
      "midi": 74,
      "hit": false,
      "t": 89451.18074999978,
      "d": 548.7802499999962,
      "v": 120
    },
    {
      "midi": 59,
      "hit": false,
      "t": 89451.18074999978,
      "d": 731.7069999999949,
      "v": 120
    },
    {
      "midi": 55,
      "hit": false,
      "t": 89451.18074999978,
      "d": 731.7069999999949,
      "v": 120
    },
    {
      "midi": 83,
      "hit": false,
      "t": 89999.96099999978,
      "d": 182.92674999999872,
      "v": 120
    },
    {
      "midi": 57,
      "hit": false,
      "t": 90182.88774999978,
      "d": 731.7069999999949,
      "v": 120
    },
    {
      "midi": 54,
      "hit": false,
      "t": 90182.88774999978,
      "d": 731.7069999999949,
      "v": 120
    },
    {
      "midi": 83,
      "hit": false,
      "t": 90182.88774999978,
      "d": 731.7069999999949,
      "v": 120
    },
    {
      "midi": 74,
      "hit": false,
      "t": 90182.88774999978,
      "d": 731.7069999999949,
      "v": 120
    },
    {
      "midi": 76,
      "hit": false,
      "t": 90914.59474999977,
      "d": 365.85349999999744,
      "v": 120
    },
    {
      "midi": 52,
      "hit": false,
      "t": 90914.59474999977,
      "d": 731.7069999999949,
      "v": 120
    },
    {
      "midi": 55,
      "hit": false,
      "t": 90914.59474999977,
      "d": 731.7069999999949,
      "v": 120
    },
    {
      "midi": 59,
      "hit": false,
      "t": 90914.59474999977,
      "d": 731.7069999999949,
      "v": 120
    },
    {
      "midi": 78,
      "hit": false,
      "t": 91280.44824999977,
      "d": 182.92674999999872,
      "v": 120
    },
    {
      "midi": 79,
      "hit": false,
      "t": 91463.37499999977,
      "d": 365.85349999999744,
      "v": 120
    },
    {
      "midi": 52,
      "hit": false,
      "t": 91646.30174999977,
      "d": 365.85349999999744,
      "v": 120
    },
    {
      "midi": 59,
      "hit": false,
      "t": 91646.30174999977,
      "d": 365.85349999999744,
      "v": 120
    },
    {
      "midi": 55,
      "hit": false,
      "t": 91646.30174999977,
      "d": 365.85349999999744,
      "v": 120
    },
    {
      "midi": 81,
      "hit": false,
      "t": 91829.22849999976,
      "d": 182.92674999999872,
      "v": 120
    },
    {
      "midi": 48,
      "hit": false,
      "t": 92012.15524999976,
      "d": 1097.5605000000069,
      "v": 120
    },
    {
      "midi": 55,
      "hit": false,
      "t": 92012.15524999976,
      "d": 1097.5605000000069,
      "v": 120
    },
    {
      "midi": 52,
      "hit": false,
      "t": 92012.15524999976,
      "d": 1097.5605000000069,
      "v": 120
    },
    {
      "midi": 76,
      "hit": false,
      "t": 92012.15524999976,
      "d": 1646.340750000003,
      "v": 120
    },
    {
      "midi": 83,
      "hit": false,
      "t": 92012.15524999976,
      "d": 1646.340750000003,
      "v": 120
    },
    {
      "midi": 48,
      "hit": false,
      "t": 93109.71574999977,
      "d": 731.7069999999949,
      "v": 120
    },
    {
      "midi": 55,
      "hit": false,
      "t": 93109.71574999977,
      "d": 731.7069999999949,
      "v": 120
    },
    {
      "midi": 52,
      "hit": false,
      "t": 93109.71574999977,
      "d": 731.7069999999949,
      "v": 120
    },
    {
      "midi": 78,
      "hit": false,
      "t": 93841.42274999977,
      "d": 365.85349999999744,
      "v": 120
    },
    {
      "midi": 57,
      "hit": false,
      "t": 93841.42274999977,
      "d": 731.7069999999949,
      "v": 120
    },
    {
      "midi": 51,
      "hit": false,
      "t": 93841.42274999977,
      "d": 731.7069999999949,
      "v": 120
    },
    {
      "midi": 59,
      "hit": false,
      "t": 93841.42274999977,
      "d": 731.7069999999949,
      "v": 120
    },
    {
      "midi": 78,
      "hit": false,
      "t": 94207.27624999976,
      "d": 182.92674999999872,
      "v": 120
    },
    {
      "midi": 76,
      "hit": false,
      "t": 94390.20299999976,
      "d": 548.7802499999962,
      "v": 120
    },
    {
      "midi": 51,
      "hit": false,
      "t": 94573.12974999976,
      "d": 731.7069999999949,
      "v": 120
    },
    {
      "midi": 59,
      "hit": false,
      "t": 94573.12974999976,
      "d": 731.7069999999949,
      "v": 120
    },
    {
      "midi": 57,
      "hit": false,
      "t": 94573.12974999976,
      "d": 731.7069999999949,
      "v": 120
    },
    {
      "midi": 78,
      "hit": false,
      "t": 94938.98324999976,
      "d": 182.92674999999872,
      "v": 120
    },
    {
      "midi": 79,
      "hit": false,
      "t": 95121.90999999976,
      "d": 1646.3407499999885,
      "v": 120
    },
    {
      "midi": 55,
      "hit": false,
      "t": 95304.83674999975,
      "d": 731.7069999999949,
      "v": 120
    },
    {
      "midi": 59,
      "hit": false,
      "t": 95304.83674999975,
      "d": 731.7069999999949,
      "v": 120
    },
    {
      "midi": 52,
      "hit": false,
      "t": 95304.83674999975,
      "d": 731.7069999999949,
      "v": 120
    },
    {
      "midi": 52,
      "hit": false,
      "t": 96036.54374999975,
      "d": 731.7069999999949,
      "v": 120
    },
    {
      "midi": 55,
      "hit": false,
      "t": 96036.54374999975,
      "d": 731.7069999999949,
      "v": 120
    },
    {
      "midi": 59,
      "hit": false,
      "t": 96036.54374999975,
      "d": 731.7069999999949,
      "v": 120
    },
    {
      "midi": 76,
      "hit": false,
      "t": 96768.25074999974,
      "d": 365.85349999999744,
      "v": 120
    },
    {
      "midi": 64,
      "hit": false,
      "t": 96768.25074999974,
      "d": 365.85349999999744,
      "v": 120
    },
    {
      "midi": 78,
      "hit": false,
      "t": 97134.10424999974,
      "d": 182.92674999999872,
      "v": 120
    },
    {
      "midi": 67,
      "hit": false,
      "t": 97134.10424999974,
      "d": 365.85349999999744,
      "v": 120
    },
    {
      "midi": 79,
      "hit": false,
      "t": 97317.03099999974,
      "d": 365.85349999999744,
      "v": 120
    },
    {
      "midi": 71,
      "hit": false,
      "t": 97499.95774999974,
      "d": 365.85349999999744,
      "v": 120
    },
    {
      "midi": 81,
      "hit": false,
      "t": 97682.88449999974,
      "d": 182.92674999999872,
      "v": 120
    },
    {
      "midi": 83,
      "hit": false,
      "t": 97865.81124999974,
      "d": 731.7069999999949,
      "v": 120
    },
    {
      "midi": 76,
      "hit": false,
      "t": 97865.81124999974,
      "d": 731.7069999999949,
      "v": 120
    },
    {
      "midi": 60,
      "hit": false,
      "t": 97865.81124999974,
      "d": 1646.3407499999885,
      "v": 120
    },
    {
      "midi": 81,
      "hit": false,
      "t": 98597.51824999973,
      "d": 1097.5604999999923,
      "v": 120
    },
    {
      "midi": 67,
      "hit": false,
      "t": 98963.37174999973,
      "d": 731.7069999999949,
      "v": 120
    },
    {
      "midi": 75,
      "hit": false,
      "t": 99695.07874999972,
      "d": 365.85349999999744,
      "v": 120
    },
    {
      "midi": 59,
      "hit": false,
      "t": 99695.07874999972,
      "d": 365.85349999999744,
      "v": 120
    },
    {
      "midi": 78,
      "hit": false,
      "t": 99695.07874999972,
      "d": 365.85349999999744,
      "v": 120
    },
    {
      "midi": 78,
      "hit": false,
      "t": 100060.93224999972,
      "d": 182.92674999999872,
      "v": 120
    },
    {
      "midi": 66,
      "hit": false,
      "t": 100060.93224999972,
      "d": 365.85349999999744,
      "v": 120
    },
    {
      "midi": 76,
      "hit": false,
      "t": 100243.85899999972,
      "d": 548.7802499999962,
      "v": 120
    },
    {
      "midi": 69,
      "hit": false,
      "t": 100426.78574999972,
      "d": 731.7069999999949,
      "v": 120
    },
    {
      "midi": 78,
      "hit": false,
      "t": 100792.63924999972,
      "d": 182.92674999999872,
      "v": 120
    },
    {
      "midi": 79,
      "hit": false,
      "t": 100975.56599999972,
      "d": 1646.3407499999885,
      "v": 120
    },
    {
      "midi": 64,
      "hit": false,
      "t": 101158.49274999971,
      "d": 365.85349999999744,
      "v": 120
    },
    {
      "midi": 67,
      "hit": false,
      "t": 101524.34624999971,
      "d": 365.85349999999744,
      "v": 120
    },
    {
      "midi": 71,
      "hit": false,
      "t": 101890.19974999971,
      "d": 731.7069999999949,
      "v": 120
    },
    {
      "midi": 76,
      "hit": false,
      "t": 102621.9067499997,
      "d": 365.85349999999744,
      "v": 120
    },
    {
      "midi": 64,
      "hit": false,
      "t": 102621.9067499997,
      "d": 365.85349999999744,
      "v": 120
    },
    {
      "midi": 78,
      "hit": false,
      "t": 102987.7602499997,
      "d": 182.92674999999872,
      "v": 120
    },
    {
      "midi": 67,
      "hit": false,
      "t": 102987.7602499997,
      "d": 365.85349999999744,
      "v": 120
    },
    {
      "midi": 79,
      "hit": false,
      "t": 103170.6869999997,
      "d": 365.85349999999744,
      "v": 120
    },
    {
      "midi": 71,
      "hit": false,
      "t": 103353.6137499997,
      "d": 365.85349999999744,
      "v": 120
    },
    {
      "midi": 81,
      "hit": false,
      "t": 103536.5404999997,
      "d": 182.92674999999872,
      "v": 120
    },
    {
      "midi": 83,
      "hit": false,
      "t": 103719.4672499997,
      "d": 731.7069999999949,
      "v": 120
    },
    {
      "midi": 76,
      "hit": false,
      "t": 103719.4672499997,
      "d": 731.7069999999949,
      "v": 120
    },
    {
      "midi": 60,
      "hit": false,
      "t": 103719.4672499997,
      "d": 1646.3407499999885,
      "v": 120
    },
    {
      "midi": 81,
      "hit": false,
      "t": 104451.17424999969,
      "d": 1097.5604999999923,
      "v": 120
    },
    {
      "midi": 67,
      "hit": false,
      "t": 104817.02774999969,
      "d": 731.7069999999949,
      "v": 120
    },
    {
      "midi": 75,
      "hit": false,
      "t": 105548.73474999968,
      "d": 365.85349999999744,
      "v": 120
    },
    {
      "midi": 59,
      "hit": false,
      "t": 105548.73474999968,
      "d": 365.85349999999744,
      "v": 120
    },
    {
      "midi": 78,
      "hit": false,
      "t": 105548.73474999968,
      "d": 365.85349999999744,
      "v": 120
    },
    {
      "midi": 78,
      "hit": false,
      "t": 105914.58824999968,
      "d": 182.92674999999872,
      "v": 120
    },
    {
      "midi": 66,
      "hit": false,
      "t": 105914.58824999968,
      "d": 365.85349999999744,
      "v": 120
    },
    {
      "midi": 76,
      "hit": false,
      "t": 106097.51499999968,
      "d": 548.7802499999962,
      "v": 120
    },
    {
      "midi": 69,
      "hit": false,
      "t": 106280.44174999968,
      "d": 731.7069999999949,
      "v": 120
    },
    {
      "midi": 78,
      "hit": false,
      "t": 106646.29524999968,
      "d": 182.92674999999872,
      "v": 120
    },
    {
      "midi": 79,
      "hit": false,
      "t": 106829.22199999967,
      "d": 432.9267499999987,
      "v": 120
    },
    {
      "midi": 64,
      "hit": false,
      "t": 107012.14874999967,
      "d": 6000,
      "v": 120
    },
    {
      "midi": 78,
      "hit": false,
      "t": 107262.14874999967,
      "d": 250,
      "v": 120
    },
    {
      "midi": 67,
      "hit": false,
      "t": 107512.14874999967,
      "d": 5500,
      "v": 120
    },
    {
      "midi": 76,
      "hit": false,
      "t": 107512.14874999967,
      "d": 5500,
      "v": 120
    },
    {
      "midi": 71,
      "hit": false,
      "t": 108012.14874999967,
      "d": 5000,
      "v": 120
    }
  ]
}