{
  "jsonPath": "Rap/Pop Rap/Ashanti/silent-night.json",
  "path": "Rap\\Pop Rap\\Ashanti\\Silent Night.mid",
  "name": "Silent Night",
  "difficulty": "Advanced",
  "bpm": 100,
  "notes": [
    {
      "midi": 55,
      "hit": false,
      "t": 1760,
      "d": 1605,
      "v": 63
    },
    {
      "midi": 59,
      "hit": false,
      "t": 1765,
      "d": 840,
      "v": 87
    },
    {
      "midi": 62,
      "hit": false,
      "t": 1775,
      "d": 705,
      "v": 68
    },
    {
      "midi": 74,
      "hit": false,
      "t": 1775,
      "d": 905,
      "v": 68
    },
    {
      "midi": 60,
      "hit": false,
      "t": 2665,
      "d": 365,
      "v": 89
    },
    {
      "midi": 64,
      "hit": false,
      "t": 2675,
      "d": 180,
      "v": 78
    },
    {
      "midi": 76,
      "hit": false,
      "t": 2680,
      "d": 320,
      "v": 79
    },
    {
      "midi": 74,
      "hit": false,
      "t": 2975,
      "d": 610,
      "v": 82
    },
    {
      "midi": 59,
      "hit": false,
      "t": 2980,
      "d": 390,
      "v": 98
    },
    {
      "midi": 62,
      "hit": false,
      "t": 2995,
      "d": 395,
      "v": 67
    },
    {
      "midi": 71,
      "hit": false,
      "t": 3550,
      "d": 365,
      "v": 89
    },
    {
      "midi": 55,
      "hit": false,
      "t": 3565,
      "d": 1305,
      "v": 71
    },
    {
      "midi": 59,
      "hit": false,
      "t": 3575,
      "d": 1285,
      "v": 68
    },
    {
      "midi": 62,
      "hit": false,
      "t": 3580,
      "d": 1260,
      "v": 65
    },
    {
      "midi": 55,
      "hit": false,
      "t": 5400,
      "d": 1500,
      "v": 64
    },
    {
      "midi": 59,
      "hit": false,
      "t": 5405,
      "d": 765,
      "v": 64
    },
    {
      "midi": 62,
      "hit": false,
      "t": 5415,
      "d": 575,
      "v": 69
    },
    {
      "midi": 74,
      "hit": false,
      "t": 5430,
      "d": 865,
      "v": 68
    },
    {
      "midi": 64,
      "hit": false,
      "t": 6270,
      "d": 175,
      "v": 100
    },
    {
      "midi": 60,
      "hit": false,
      "t": 6270,
      "d": 340,
      "v": 98
    },
    {
      "midi": 76,
      "hit": false,
      "t": 6280,
      "d": 330,
      "v": 79
    },
    {
      "midi": 59,
      "hit": false,
      "t": 6565,
      "d": 345,
      "v": 102
    },
    {
      "midi": 74,
      "hit": false,
      "t": 6570,
      "d": 540,
      "v": 82
    },
    {
      "midi": 62,
      "hit": false,
      "t": 6580,
      "d": 350,
      "v": 82
    },
    {
      "midi": 71,
      "hit": false,
      "t": 7155,
      "d": 1785,
      "v": 102
    },
    {
      "midi": 55,
      "hit": false,
      "t": 7160,
      "d": 1570,
      "v": 78
    },
    {
      "midi": 62,
      "hit": false,
      "t": 7160,
      "d": 1620,
      "v": 78
    },
    {
      "midi": 59,
      "hit": false,
      "t": 7165,
      "d": 1605,
      "v": 68
    },
    {
      "midi": 54,
      "hit": false,
      "t": 8985,
      "d": 1380,
      "v": 74
    },
    {
      "midi": 60,
      "hit": false,
      "t": 9000,
      "d": 1370,
      "v": 89
    },
    {
      "midi": 62,
      "hit": false,
      "t": 9010,
      "d": 1365,
      "v": 80
    },
    {
      "midi": 81,
      "hit": false,
      "t": 9015,
      "d": 790,
      "v": 90
    },
    {
      "midi": 81,
      "hit": false,
      "t": 10215,
      "d": 525,
      "v": 80
    },
    {
      "midi": 62,
      "hit": false,
      "t": 10790,
      "d": 1240,
      "v": 69
    },
    {
      "midi": 78,
      "hit": false,
      "t": 10790,
      "d": 1455,
      "v": 91
    },
    {
      "midi": 60,
      "hit": false,
      "t": 10795,
      "d": 1190,
      "v": 85
    },
    {
      "midi": 54,
      "hit": false,
      "t": 10795,
      "d": 1200,
      "v": 54
    },
    {
      "midi": 55,
      "hit": false,
      "t": 12595,
      "d": 690,
      "v": 84
    },
    {
      "midi": 79,
      "hit": false,
      "t": 12595,
      "d": 795,
      "v": 90
    },
    {
      "midi": 62,
      "hit": false,
      "t": 12600,
      "d": 675,
      "v": 59
    },
    {
      "midi": 59,
      "hit": false,
      "t": 12600,
      "d": 690,
      "v": 64
    },
    {
      "midi": 79,
      "hit": false,
      "t": 13760,
      "d": 560,
      "v": 93
    },
    {
      "midi": 59,
      "hit": false,
      "t": 14355,
      "d": 1060,
      "v": 84
    },
    {
      "midi": 62,
      "hit": false,
      "t": 14355,
      "d": 1080,
      "v": 49
    },
    {
      "midi": 55,
      "hit": false,
      "t": 14360,
      "d": 1040,
      "v": 50
    },
    {
      "midi": 74,
      "hit": false,
      "t": 14370,
      "d": 1865,
      "v": 75
    },
    {
      "midi": 55,
      "hit": false,
      "t": 16170,
      "d": 1415,
      "v": 76
    },
    {
      "midi": 60,
      "hit": false,
      "t": 16175,
      "d": 1445,
      "v": 76
    },
    {
      "midi": 64,
      "hit": false,
      "t": 16180,
      "d": 1420,
      "v": 76
    },
    {
      "midi": 76,
      "hit": false,
      "t": 16220,
      "d": 940,
      "v": 79
    },
    {
      "midi": 76,
      "hit": false,
      "t": 17410,
      "d": 620,
      "v": 84
    },
    {
      "midi": 55,
      "hit": false,
      "t": 17955,
      "d": 1415,
      "v": 84
    },
    {
      "midi": 60,
      "hit": false,
      "t": 17955,
      "d": 1435,
      "v": 84
    },
    {
      "midi": 64,
      "hit": false,
      "t": 17965,
      "d": 1420,
      "v": 84
    },
    {
      "midi": 79,
      "hit": false,
      "t": 18005,
      "d": 820,
      "v": 84
    },
    {
      "midi": 78,
      "hit": false,
      "t": 18815,
      "d": 360,
      "v": 84
    },
    {
      "midi": 76,
      "hit": false,
      "t": 19145,
      "d": 560,
      "v": 84
    },
    {
      "midi": 55,
      "hit": false,
      "t": 19695,
      "d": 1710,
      "v": 84
    },
    {
      "midi": 74,
      "hit": false,
      "t": 19705,
      "d": 960,
      "v": 84
    },
    {
      "midi": 59,
      "hit": false,
      "t": 19720,
      "d": 1695,
      "v": 84
    },
    {
      "midi": 62,
      "hit": false,
      "t": 19720,
      "d": 1720,
      "v": 84
    },
    {
      "midi": 76,
      "hit": false,
      "t": 20650,
      "d": 325,
      "v": 84
    },
    {
      "midi": 74,
      "hit": false,
      "t": 20980,
      "d": 580,
      "v": 84
    },
    {
      "midi": 62,
      "hit": false,
      "t": 21575,
      "d": 850,
      "v": 74
    },
    {
      "midi": 71,
      "hit": false,
      "t": 21575,
      "d": 1485,
      "v": 93
    },
    {
      "midi": 59,
      "hit": false,
      "t": 21585,
      "d": 820,
      "v": 62
    },
    {
      "midi": 55,
      "hit": false,
      "t": 21595,
      "d": 815,
      "v": 53
    },
    {
      "midi": 60,
      "hit": false,
      "t": 23435,
      "d": 730,
      "v": 100
    },
    {
      "midi": 64,
      "hit": false,
      "t": 23440,
      "d": 680,
      "v": 100
    },
    {
      "midi": 55,
      "hit": false,
      "t": 23440,
      "d": 710,
      "v": 100
    },
    {
      "midi": 76,
      "hit": false,
      "t": 23445,
      "d": 855,
      "v": 100
    },
    {
      "midi": 76,
      "hit": false,
      "t": 24605,
      "d": 550,
      "v": 100
    },
    {
      "midi": 64,
      "hit": false,
      "t": 25165,
      "d": 1185,
      "v": 100
    },
    {
      "midi": 55,
      "hit": false,
      "t": 25180,
      "d": 1180,
      "v": 100
    },
    {
      "midi": 60,
      "hit": false,
      "t": 25185,
      "d": 1110,
      "v": 100
    },
    {
      "midi": 79,
      "hit": false,
      "t": 25190,
      "d": 850,
      "v": 100
    },
    {
      "midi": 78,
      "hit": false,
      "t": 26015,
      "d": 310,
      "v": 103
    },
    {
      "midi": 76,
      "hit": false,
      "t": 26320,
      "d": 605,
      "v": 103
    },
    {
      "midi": 74,
      "hit": false,
      "t": 26910,
      "d": 905,
      "v": 103
    },
    {
      "midi": 55,
      "hit": false,
      "t": 26935,
      "d": 595,
      "v": 103
    },
    {
      "midi": 62,
      "hit": false,
      "t": 26940,
      "d": 500,
      "v": 103
    },
    {
      "midi": 59,
      "hit": false,
      "t": 26945,
      "d": 575,
      "v": 103
    },
    {
      "midi": 76,
      "hit": false,
      "t": 27820,
      "d": 320,
      "v": 103
    },
    {
      "midi": 74,
      "hit": false,
      "t": 28120,
      "d": 600,
      "v": 103
    },
    {
      "midi": 55,
      "hit": false,
      "t": 28750,
      "d": 800,
      "v": 103
    },
    {
      "midi": 59,
      "hit": false,
      "t": 28765,
      "d": 815,
      "v": 103
    },
    {
      "midi": 62,
      "hit": false,
      "t": 28770,
      "d": 830,
      "v": 103
    },
    {
      "midi": 71,
      "hit": false,
      "t": 28770,
      "d": 945,
      "v": 103
    },
    {
      "midi": 54,
      "hit": false,
      "t": 30555,
      "d": 840,
      "v": 105
    },
    {
      "midi": 81,
      "hit": false,
      "t": 30565,
      "d": 780,
      "v": 105
    },
    {
      "midi": 60,
      "hit": false,
      "t": 30565,
      "d": 855,
      "v": 105
    },
    {
      "midi": 62,
      "hit": false,
      "t": 30575,
      "d": 835,
      "v": 105
    },
    {
      "midi": 81,
      "hit": false,
      "t": 31765,
      "d": 595,
      "v": 105
    },
    {
      "midi": 54,
      "hit": false,
      "t": 32330,
      "d": 1425,
      "v": 105
    },
    {
      "midi": 60,
      "hit": false,
      "t": 32335,
      "d": 1455,
      "v": 105
    },
    {
      "midi": 62,
      "hit": false,
      "t": 32340,
      "d": 1475,
      "v": 105
    },
    {
      "midi": 84,
      "hit": false,
      "t": 32360,
      "d": 980,
      "v": 105
    },
    {
      "midi": 81,
      "hit": false,
      "t": 33275,
      "d": 370,
      "v": 105
    },
    {
      "midi": 78,
      "hit": false,
      "t": 33595,
      "d": 575,
      "v": 103
    },
    {
      "midi": 55,
      "hit": false,
      "t": 34140,
      "d": 1350,
      "v": 103
    },
    {
      "midi": 62,
      "hit": false,
      "t": 34150,
      "d": 1270,
      "v": 103
    },
    {
      "midi": 79,
      "hit": false,
      "t": 34150,
      "d": 1955,
      "v": 103
    },
    {
      "midi": 59,
      "hit": false,
      "t": 34160,
      "d": 1365,
      "v": 103
    },
    {
      "midi": 55,
      "hit": false,
      "t": 36005,
      "d": 1020,
      "v": 95
    },
    {
      "midi": 59,
      "hit": false,
      "t": 36010,
      "d": 1065,
      "v": 95
    },
    {
      "midi": 62,
      "hit": false,
      "t": 36020,
      "d": 1050,
      "v": 95
    },
    {
      "midi": 83,
      "hit": false,
      "t": 36075,
      "d": 1140,
      "v": 95
    },
    {
      "midi": 55,
      "hit": false,
      "t": 37790,
      "d": 510,
      "v": 89
    },
    {
      "midi": 79,
      "hit": false,
      "t": 37795,
      "d": 945,
      "v": 89
    },
    {
      "midi": 59,
      "hit": false,
      "t": 37805,
      "d": 535,
      "v": 89
    },
    {
      "midi": 62,
      "hit": false,
      "t": 37815,
      "d": 475,
      "v": 89
    },
    {
      "midi": 74,
      "hit": false,
      "t": 38720,
      "d": 290,
      "v": 89
    },
    {
      "midi": 71,
      "hit": false,
      "t": 39030,
      "d": 490,
      "v": 89
    },
    {
      "midi": 74,
      "hit": false,
      "t": 39595,
      "d": 905,
      "v": 89
    },
    {
      "midi": 54,
      "hit": false,
      "t": 39600,
      "d": 1210,
      "v": 89
    },
    {
      "midi": 50,
      "hit": false,
      "t": 39605,
      "d": 1165,
      "v": 89
    },
    {
      "midi": 60,
      "hit": false,
      "t": 39615,
      "d": 1200,
      "v": 89
    },
    {
      "midi": 72,
      "hit": false,
      "t": 40465,
      "d": 365,
      "v": 89
    },
    {
      "midi": 69,
      "hit": false,
      "t": 40825,
      "d": 490,
      "v": 89
    },
    {
      "midi": 67,
      "hit": false,
      "t": 41405,
      "d": 2345,
      "v": 89
    },
    {
      "midi": 59,
      "hit": false,
      "t": 41420,
      "d": 1975,
      "v": 89
    },
    {
      "midi": 55,
      "hit": false,
      "t": 41440,
      "d": 2265,
      "v": 89
    },
    {
      "midi": 50,
      "hit": false,
      "t": 41440,
      "d": 2305,
      "v": 89
    },
    {
      "midi": 50,
      "hit": false,
      "t": 44970,
      "d": 925,
      "v": 60
    },
    {
      "midi": 59,
      "hit": false,
      "t": 44990,
      "d": 405,
      "v": 60
    },
    {
      "midi": 62,
      "hit": false,
      "t": 45015,
      "d": 1550,
      "v": 60
    },
    {
      "midi": 67,
      "hit": false,
      "t": 45075,
      "d": 1475,
      "v": 60
    },
    {
      "midi": 59,
      "hit": false,
      "t": 45615,
      "d": 905,
      "v": 60
    },
    {
      "midi": 52,
      "hit": false,
      "t": 45900,
      "d": 405,
      "v": 60
    },
    {
      "midi": 50,
      "hit": false,
      "t": 46245,
      "d": 510,
      "v": 60
    },
    {
      "midi": 47,
      "hit": false,
      "t": 46715,
      "d": 620,
      "v": 60
    },
    {
      "midi": 59,
      "hit": false,
      "t": 46735,
      "d": 600,
      "v": 60
    },
    {
      "midi": 62,
      "hit": false,
      "t": 46765,
      "d": 625,
      "v": 60
    },
    {
      "midi": 67,
      "hit": false,
      "t": 46835,
      "d": 870,
      "v": 60
    },
    {
      "midi": 59,
      "hit": false,
      "t": 47520,
      "d": 190,
      "v": 60
    },
    {
      "midi": 62,
      "hit": false,
      "t": 47545,
      "d": 150,
      "v": 60
    },
    {
      "midi": 59,
      "hit": false,
      "t": 48145,
      "d": 100,
      "v": 60
    },
    {
      "midi": 59,
      "hit": false,
      "t": 48625,
      "d": 460,
      "v": 60
    },
    {
      "midi": 50,
      "hit": false,
      "t": 48625,
      "d": 940,
      "v": 60
    },
    {
      "midi": 62,
      "hit": false,
      "t": 48670,
      "d": 1495,
      "v": 60
    },
    {
      "midi": 67,
      "hit": false,
      "t": 48720,
      "d": 1400,
      "v": 60
    },
    {
      "midi": 59,
      "hit": false,
      "t": 49280,
      "d": 885,
      "v": 60
    },
    {
      "midi": 52,
      "hit": false,
      "t": 49545,
      "d": 305,
      "v": 60
    },
    {
      "midi": 50,
      "hit": false,
      "t": 49825,
      "d": 580,
      "v": 60
    },
    {
      "midi": 59,
      "hit": false,
      "t": 50420,
      "d": 1295,
      "v": 60
    },
    {
      "midi": 62,
      "hit": false,
      "t": 50450,
      "d": 1290,
      "v": 60
    },
    {
      "midi": 67,
      "hit": false,
      "t": 50475,
      "d": 1300,
      "v": 60
    },
    {
      "midi": 47,
      "hit": false,
      "t": 51050,
      "d": 235,
      "v": 60
    },
    {
      "midi": 48,
      "hit": false,
      "t": 51305,
      "d": 245,
      "v": 60
    },
    {
      "midi": 49,
      "hit": false,
      "t": 51545,
      "d": 265,
      "v": 60
    },
    {
      "midi": 50,
      "hit": false,
      "t": 51755,
      "d": 120,
      "v": 60
    },
    {
      "midi": 60,
      "hit": false,
      "t": 52075,
      "d": 580,
      "v": 60
    },
    {
      "midi": 57,
      "hit": false,
      "t": 52100,
      "d": 1025,
      "v": 60
    },
    {
      "midi": 62,
      "hit": false,
      "t": 52105,
      "d": 1000,
      "v": 60
    },
    {
      "midi": 66,
      "hit": false,
      "t": 52135,
      "d": 1005,
      "v": 60
    },
    {
      "midi": 69,
      "hit": false,
      "t": 52215,
      "d": 925,
      "v": 60
    },
    {
      "midi": 60,
      "hit": false,
      "t": 52785,
      "d": 315,
      "v": 60
    },
    {
      "midi": 57,
      "hit": false,
      "t": 53235,
      "d": 390,
      "v": 60
    },
    {
      "midi": 60,
      "hit": false,
      "t": 53240,
      "d": 375,
      "v": 60
    },
    {
      "midi": 62,
      "hit": false,
      "t": 53245,
      "d": 430,
      "v": 60
    },
    {
      "midi": 69,
      "hit": false,
      "t": 53270,
      "d": 475,
      "v": 60
    },
    {
      "midi": 56,
      "hit": false,
      "t": 53600,
      "d": 55,
      "v": 60
    },
    {
      "midi": 55,
      "hit": false,
      "t": 53695,
      "d": 145,
      "v": 60
    },
    {
      "midi": 60,
      "hit": false,
      "t": 53760,
      "d": 555,
      "v": 60
    },
    {
      "midi": 54,
      "hit": false,
      "t": 53770,
      "d": 2020,
      "v": 60
    },
    {
      "midi": 62,
      "hit": false,
      "t": 53775,
      "d": 545,
      "v": 60
    },
    {
      "midi": 69,
      "hit": false,
      "t": 53890,
      "d": 1510,
      "v": 60
    },
    {
      "midi": 60,
      "hit": false,
      "t": 54505,
      "d": 290,
      "v": 60
    },
    {
      "midi": 62,
      "hit": false,
      "t": 54510,
      "d": 170,
      "v": 60
    },
    {
      "midi": 60,
      "hit": false,
      "t": 55215,
      "d": 365,
      "v": 55
    },
    {
      "midi": 62,
      "hit": false,
      "t": 55220,
      "d": 355,
      "v": 53
    },
    {
      "midi": 59,
      "hit": false,
      "t": 55835,
      "d": 460,
      "v": 71
    },
    {
      "midi": 55,
      "hit": false,
      "t": 55835,
      "d": 1030,
      "v": 71
    },
    {
      "midi": 62,
      "hit": false,
      "t": 55855,
      "d": 495,
      "v": 71
    },
    {
      "midi": 59,
      "hit": false,
      "t": 56470,
      "d": 495,
      "v": 71
    },
    {
      "midi": 62,
      "hit": false,
      "t": 56475,
      "d": 545,
      "v": 71
    },
    {
      "midi": 55,
      "hit": false,
      "t": 57065,
      "d": 2015,
      "v": 71
    },
    {
      "midi": 50,
      "hit": false,
      "t": 57715,
      "d": 1325,
      "v": 71
    },
    {
      "midi": 62,
      "hit": false,
      "t": 57745,
      "d": 345,
      "v": 71
    },
    {
      "midi": 59,
      "hit": false,
      "t": 57785,
      "d": 290,
      "v": 71
    },
    {
      "midi": 67,
      "hit": false,
      "t": 58305,
      "d": 250,
      "v": 71
    },
    {
      "midi": 59,
      "hit": false,
      "t": 58320,
      "d": 390,
      "v": 71
    },
    {
      "midi": 69,
      "hit": false,
      "t": 58830,
      "d": 320,
      "v": 71
    },
    {
      "midi": 65,
      "hit": false,
      "t": 58835,
      "d": 320,
      "v": 71
    },
    {
      "midi": 59,
      "hit": false,
      "t": 58840,
      "d": 245,
      "v": 71
    },
    {
      "midi": 48,
      "hit": false,
      "t": 59285,
      "d": 1350,
      "v": 68
    },
    {
      "midi": 55,
      "hit": false,
      "t": 59385,
      "d": 440,
      "v": 68
    },
    {
      "midi": 60,
      "hit": false,
      "t": 59405,
      "d": 890,
      "v": 68
    },
    {
      "midi": 64,
      "hit": false,
      "t": 59430,
      "d": 810,
      "v": 66
    },
    {
      "midi": 55,
      "hit": false,
      "t": 60035,
      "d": 515,
      "v": 66
    },
    {
      "midi": 64,
      "hit": false,
      "t": 60600,
      "d": 645,
      "v": 66
    },
    {
      "midi": 60,
      "hit": false,
      "t": 60605,
      "d": 515,
      "v": 66
    },
    {
      "midi": 46,
      "hit": false,
      "t": 61160,
      "d": 405,
      "v": 66
    },
    {
      "midi": 55,
      "hit": false,
      "t": 61200,
      "d": 425,
      "v": 66
    },
    {
      "midi": 61,
      "hit": false,
      "t": 61200,
      "d": 495,
      "v": 66
    },
    {
      "midi": 67,
      "hit": false,
      "t": 61220,
      "d": 560,
      "v": 66
    },
    {
      "midi": 43,
      "hit": false,
      "t": 61790,
      "d": 455,
      "v": 66
    },
    {
      "midi": 66,
      "hit": false,
      "t": 61815,
      "d": 220,
      "v": 66
    },
    {
      "midi": 61,
      "hit": false,
      "t": 61820,
      "d": 225,
      "v": 66
    },
    {
      "midi": 49,
      "hit": false,
      "t": 62070,
      "d": 735,
      "v": 66
    },
    {
      "midi": 58,
      "hit": false,
      "t": 62325,
      "d": 465,
      "v": 66
    },
    {
      "midi": 55,
      "hit": false,
      "t": 62335,
      "d": 410,
      "v": 66
    },
    {
      "midi": 64,
      "hit": false,
      "t": 62545,
      "d": 295,
      "v": 66
    },
    {
      "midi": 61,
      "hit": false,
      "t": 62550,
      "d": 280,
      "v": 66
    },
    {
      "midi": 50,
      "hit": false,
      "t": 62860,
      "d": 1550,
      "v": 66
    },
    {
      "midi": 55,
      "hit": false,
      "t": 62870,
      "d": 1090,
      "v": 66
    },
    {
      "midi": 59,
      "hit": false,
      "t": 62875,
      "d": 960,
      "v": 66
    },
    {
      "midi": 62,
      "hit": false,
      "t": 62885,
      "d": 865,
      "v": 66
    },
    {
      "midi": 38,
      "hit": false,
      "t": 63550,
      "d": 855,
      "v": 63
    },
    {
      "midi": 64,
      "hit": false,
      "t": 63790,
      "d": 205,
      "v": 63
    },
    {
      "midi": 60,
      "hit": false,
      "t": 63800,
      "d": 290,
      "v": 63
    },
    {
      "midi": 60,
      "hit": false,
      "t": 64125,
      "d": 210,
      "v": 63
    },
    {
      "midi": 54,
      "hit": false,
      "t": 64150,
      "d": 215,
      "v": 63
    },
    {
      "midi": 62,
      "hit": false,
      "t": 64155,
      "d": 190,
      "v": 63
    },
    {
      "midi": 50,
      "hit": false,
      "t": 64795,
      "d": 480,
      "v": 63
    },
    {
      "midi": 43,
      "hit": false,
      "t": 64805,
      "d": 335,
      "v": 63
    },
    {
      "midi": 55,
      "hit": false,
      "t": 64855,
      "d": 480,
      "v": 63
    },
    {
      "midi": 59,
      "hit": false,
      "t": 64900,
      "d": 765,
      "v": 63
    },
    {
      "midi": 50,
      "hit": false,
      "t": 65440,
      "d": 230,
      "v": 63
    },
    {
      "midi": 55,
      "hit": false,
      "t": 65690,
      "d": 300,
      "v": 63
    },
    {
      "midi": 59,
      "hit": false,
      "t": 65970,
      "d": 45,
      "v": 63
    },
    {
      "midi": 48,
      "hit": false,
      "t": 66455,
      "d": 1215,
      "v": 63
    },
    {
      "midi": 55,
      "hit": false,
      "t": 66525,
      "d": 1090,
      "v": 63
    },
    {
      "midi": 64,
      "hit": false,
      "t": 66565,
      "d": 665,
      "v": 63
    },
    {
      "midi": 60,
      "hit": false,
      "t": 66580,
      "d": 515,
      "v": 63
    },
    {
      "midi": 60,
      "hit": false,
      "t": 67805,
      "d": 985,
      "v": 63
    },
    {
      "midi": 64,
      "hit": false,
      "t": 67815,
      "d": 425,
      "v": 63
    },
    {
      "midi": 48,
      "hit": false,
      "t": 68280,
      "d": 1280,
      "v": 63
    },
    {
      "midi": 55,
      "hit": false,
      "t": 68345,
      "d": 1025,
      "v": 63
    },
    {
      "midi": 64,
      "hit": false,
      "t": 68395,
      "d": 805,
      "v": 63
    },
    {
      "midi": 67,
      "hit": false,
      "t": 68440,
      "d": 845,
      "v": 63
    },
    {
      "midi": 60,
      "hit": false,
      "t": 69000,
      "d": 270,
      "v": 63
    },
    {
      "midi": 66,
      "hit": false,
      "t": 69275,
      "d": 265,
      "v": 63
    },
    {
      "midi": 62,
      "hit": false,
      "t": 69280,
      "d": 265,
      "v": 63
    },
    {
      "midi": 64,
      "hit": false,
      "t": 69550,
      "d": 75,
      "v": 63
    },
    {
      "midi": 60,
      "hit": false,
      "t": 69555,
      "d": 115,
      "v": 63
    },
    {
      "midi": 47,
      "hit": false,
      "t": 70090,
      "d": 790,
      "v": 63
    },
    {
      "midi": 55,
      "hit": false,
      "t": 70115,
      "d": 385,
      "v": 63
    },
    {
      "midi": 62,
      "hit": false,
      "t": 70130,
      "d": 830,
      "v": 63
    },
    {
      "midi": 55,
      "hit": false,
      "t": 70725,
      "d": 300,
      "v": 63
    },
    {
      "midi": 64,
      "hit": false,
      "t": 71020,
      "d": 285,
      "v": 63
    },
    {
      "midi": 45,
      "hit": false,
      "t": 71315,
      "d": 290,
      "v": 63
    },
    {
      "midi": 54,
      "hit": false,
      "t": 71330,
      "d": 270,
      "v": 63
    },
    {
      "midi": 62,
      "hit": false,
      "t": 71335,
      "d": 610,
      "v": 63
    },
    {
      "midi": 60,
      "hit": false,
      "t": 71345,
      "d": 530,
      "v": 63
    },
    {
      "midi": 59,
      "hit": false,
      "t": 71995,
      "d": 560,
      "v": 63
    },
    {
      "midi": 43,
      "hit": false,
      "t": 72000,
      "d": 600,
      "v": 63
    },
    {
      "midi": 50,
      "hit": false,
      "t": 72005,
      "d": 620,
      "v": 63
    },
    {
      "midi": 55,
      "hit": false,
      "t": 72045,
      "d": 365,
      "v": 63
    },
    {
      "midi": 55,
      "hit": false,
      "t": 72565,
      "d": 70,
      "v": 63
    },
    {
      "midi": 50,
      "hit": false,
      "t": 73720,
      "d": 1125,
      "v": 63
    },
    {
      "midi": 54,
      "hit": false,
      "t": 73725,
      "d": 1170,
      "v": 63
    },
    {
      "midi": 60,
      "hit": false,
      "t": 73755,
      "d": 1070,
      "v": 63
    },
    {
      "midi": 69,
      "hit": false,
      "t": 73800,
      "d": 955,
      "v": 63
    },
    {
      "midi": 57,
      "hit": false,
      "t": 74380,
      "d": 515,
      "v": 63
    },
    {
      "midi": 62,
      "hit": false,
      "t": 74945,
      "d": 1905,
      "v": 63
    },
    {
      "midi": 69,
      "hit": false,
      "t": 74975,
      "d": 550,
      "v": 63
    },
    {
      "midi": 50,
      "hit": false,
      "t": 75495,
      "d": 1295,
      "v": 63
    },
    {
      "midi": 54,
      "hit": false,
      "t": 75495,
      "d": 1365,
      "v": 63
    },
    {
      "midi": 60,
      "hit": false,
      "t": 75510,
      "d": 1110,
      "v": 63
    },
    {
      "midi": 72,
      "hit": false,
      "t": 75525,
      "d": 745,
      "v": 63
    },
    {
      "midi": 57,
      "hit": false,
      "t": 76175,
      "d": 635,
      "v": 63
    },
    {
      "midi": 69,
      "hit": false,
      "t": 76430,
      "d": 305,
      "v": 63
    },
    {
      "midi": 66,
      "hit": false,
      "t": 76755,
      "d": 100,
      "v": 63
    },
    {
      "midi": 50,
      "hit": false,
      "t": 77320,
      "d": 500,
      "v": 63
    },
    {
      "midi": 59,
      "hit": false,
      "t": 77330,
      "d": 1235,
      "v": 63
    },
    {
      "midi": 62,
      "hit": false,
      "t": 77375,
      "d": 1160,
      "v": 63
    },
    {
      "midi": 67,
      "hit": false,
      "t": 77440,
      "d": 1135,
      "v": 63
    },
    {
      "midi": 50,
      "hit": false,
      "t": 77980,
      "d": 1645,
      "v": 63
    },
    {
      "midi": 38,
      "hit": false,
      "t": 78525,
      "d": 1285,
      "v": 68
    },
    {
      "midi": 59,
      "hit": false,
      "t": 79110,
      "d": 1365,
      "v": 63
    },
    {
      "midi": 67,
      "hit": false,
      "t": 79165,
      "d": 1250,
      "v": 63
    },
    {
      "midi": 71,
      "hit": false,
      "t": 79230,
      "d": 1145,
      "v": 63
    },
    {
      "midi": 50,
      "hit": false,
      "t": 79755,
      "d": 1720,
      "v": 63
    },
    {
      "midi": 38,
      "hit": false,
      "t": 80405,
      "d": 2205,
      "v": 63
    },
    {
      "midi": 59,
      "hit": false,
      "t": 80915,
      "d": 1125,
      "v": 63
    },
    {
      "midi": 67,
      "hit": false,
      "t": 80995,
      "d": 1110,
      "v": 63
    },
    {
      "midi": 50,
      "hit": false,
      "t": 81605,
      "d": 2105,
      "v": 63
    },
    {
      "midi": 62,
      "hit": false,
      "t": 81895,
      "d": 305,
      "v": 63
    },
    {
      "midi": 59,
      "hit": false,
      "t": 82215,
      "d": 600,
      "v": 63
    },
    {
      "midi": 62,
      "hit": false,
      "t": 82795,
      "d": 640,
      "v": 63
    },
    {
      "midi": 54,
      "hit": false,
      "t": 83405,
      "d": 600,
      "v": 63
    },
    {
      "midi": 38,
      "hit": false,
      "t": 83410,
      "d": 415,
      "v": 63
    },
    {
      "midi": 60,
      "hit": false,
      "t": 83690,
      "d": 320,
      "v": 63
    },
    {
      "midi": 57,
      "hit": false,
      "t": 83995,
      "d": 530,
      "v": 63
    },
    {
      "midi": 55,
      "hit": false,
      "t": 84575,
      "d": 1390,
      "v": 63
    },
    {
      "midi": 52,
      "hit": false,
      "t": 84575,
      "d": 1400,
      "v": 63
    },
    {
      "midi": 48,
      "hit": false,
      "t": 84605,
      "d": 1320,
      "v": 63
    },
    {
      "midi": 43,
      "hit": false,
      "t": 84610,
      "d": 1335,
      "v": 63
    },
    {
      "midi": 39,
      "hit": false,
      "t": 86355,
      "d": 200,
      "v": 63
    },
    {
      "midi": 55,
      "hit": false,
      "t": 86380,
      "d": 185,
      "v": 63
    },
    {
      "midi": 49,
      "hit": false,
      "t": 86385,
      "d": 215,
      "v": 63
    },
    {
      "midi": 58,
      "hit": false,
      "t": 86400,
      "d": 175,
      "v": 63
    },
    {
      "midi": 63,
      "hit": false,
      "t": 86405,
      "d": 210,
      "v": 63
    },
    {
      "midi": 63,
      "hit": false,
      "t": 86980,
      "d": 605,
      "v": 63
    },
    {
      "midi": 61,
      "hit": false,
      "t": 86990,
      "d": 80,
      "v": 63
    },
    {
      "midi": 67,
      "hit": false,
      "t": 86990,
      "d": 465,
      "v": 63
    },
    {
      "midi": 67,
      "hit": false,
      "t": 87505,
      "d": 80,
      "v": 63
    },
    {
      "midi": 70,
      "hit": false,
      "t": 87505,
      "d": 135,
      "v": 63
    },
    {
      "midi": 75,
      "hit": false,
      "t": 87510,
      "d": 155,
      "v": 63
    },
    {
      "midi": 51,
      "hit": false,
      "t": 88115,
      "d": 520,
      "v": 63
    },
    {
      "midi": 60,
      "hit": false,
      "t": 88135,
      "d": 590,
      "v": 63
    },
    {
      "midi": 63,
      "hit": false,
      "t": 88185,
      "d": 340,
      "v": 63
    },
    {
      "midi": 68,
      "hit": false,
      "t": 88185,
      "d": 430,
      "v": 63
    },
    {
      "midi": 72,
      "hit": false,
      "t": 88185,
      "d": 560,
      "v": 63
    },
    {
      "midi": 75,
      "hit": false,
      "t": 88185,
      "d": 565,
      "v": 63
    },
    {
      "midi": 63,
      "hit": false,
      "t": 88705,
      "d": 65,
      "v": 63
    },
    {
      "midi": 68,
      "hit": false,
      "t": 89060,
      "d": 160,
      "v": 63
    },
    {
      "midi": 73,
      "hit": false,
      "t": 89065,
      "d": 195,
      "v": 63
    },
    {
      "midi": 77,
      "hit": false,
      "t": 89075,
      "d": 140,
      "v": 63
    },
    {
      "midi": 65,
      "hit": false,
      "t": 89075,
      "d": 235,
      "v": 63
    },
    {
      "midi": 56,
      "hit": false,
      "t": 89085,
      "d": 205,
      "v": 63
    },
    {
      "midi": 61,
      "hit": false,
      "t": 89085,
      "d": 235,
      "v": 63
    },
    {
      "midi": 68,
      "hit": false,
      "t": 89420,
      "d": 310,
      "v": 63
    },
    {
      "midi": 75,
      "hit": false,
      "t": 89425,
      "d": 265,
      "v": 63
    },
    {
      "midi": 56,
      "hit": false,
      "t": 89425,
      "d": 345,
      "v": 63
    },
    {
      "midi": 72,
      "hit": false,
      "t": 89435,
      "d": 260,
      "v": 63
    },
    {
      "midi": 63,
      "hit": false,
      "t": 89970,
      "d": 1325,
      "v": 63
    },
    {
      "midi": 56,
      "hit": false,
      "t": 89995,
      "d": 265,
      "v": 63
    },
    {
      "midi": 68,
      "hit": false,
      "t": 89995,
      "d": 1340,
      "v": 63
    },
    {
      "midi": 72,
      "hit": false,
      "t": 90055,
      "d": 1270,
      "v": 63
    },
    {
      "midi": 44,
      "hit": false,
      "t": 90600,
      "d": 110,
      "v": 63
    },
    {
      "midi": 51,
      "hit": false,
      "t": 91170,
      "d": 65,
      "v": 63
    },
    {
      "midi": 60,
      "hit": false,
      "t": 91775,
      "d": 880,
      "v": 63
    },
    {
      "midi": 68,
      "hit": false,
      "t": 91780,
      "d": 420,
      "v": 63
    },
    {
      "midi": 75,
      "hit": false,
      "t": 91800,
      "d": 570,
      "v": 63
    },
    {
      "midi": 72,
      "hit": false,
      "t": 91800,
      "d": 595,
      "v": 63
    },
    {
      "midi": 68,
      "hit": false,
      "t": 92350,
      "d": 70,
      "v": 63
    },
    {
      "midi": 73,
      "hit": false,
      "t": 92660,
      "d": 190,
      "v": 63
    },
    {
      "midi": 61,
      "hit": false,
      "t": 92660,
      "d": 320,
      "v": 63
    },
    {
      "midi": 68,
      "hit": false,
      "t": 92665,
      "d": 150,
      "v": 63
    },
    {
      "midi": 77,
      "hit": false,
      "t": 92680,
      "d": 160,
      "v": 63
    },
    {
      "midi": 75,
      "hit": false,
      "t": 92950,
      "d": 85,
      "v": 63
    },
    {
      "midi": 60,
      "hit": false,
      "t": 92955,
      "d": 95,
      "v": 63
    },
    {
      "midi": 72,
      "hit": false,
      "t": 92970,
      "d": 60,
      "v": 63
    },
    {
      "midi": 68,
      "hit": false,
      "t": 92975,
      "d": 70,
      "v": 63
    },
    {
      "midi": 60,
      "hit": false,
      "t": 93520,
      "d": 1210,
      "v": 63
    },
    {
      "midi": 68,
      "hit": false,
      "t": 93520,
      "d": 1265,
      "v": 63
    },
    {
      "midi": 72,
      "hit": false,
      "t": 93535,
      "d": 1270,
      "v": 63
    },
    {
      "midi": 51,
      "hit": false,
      "t": 93550,
      "d": 115,
      "v": 63
    },
    {
      "midi": 44,
      "hit": false,
      "t": 94120,
      "d": 30,
      "v": 63
    },
    {
      "midi": 39,
      "hit": false,
      "t": 94770,
      "d": 65,
      "v": 63
    },
    {
      "midi": 73,
      "hit": false,
      "t": 95385,
      "d": 935,
      "v": 63
    },
    {
      "midi": 63,
      "hit": false,
      "t": 95390,
      "d": 290,
      "v": 63
    },
    {
      "midi": 82,
      "hit": false,
      "t": 95395,
      "d": 930,
      "v": 63
    },
    {
      "midi": 51,
      "hit": false,
      "t": 96000,
      "d": 80,
      "v": 63
    },
    {
      "midi": 63,
      "hit": false,
      "t": 96575,
      "d": 110,
      "v": 63
    },
    {
      "midi": 73,
      "hit": false,
      "t": 96620,
      "d": 240,
      "v": 63
    },
    {
      "midi": 82,
      "hit": false,
      "t": 96635,
      "d": 170,
      "v": 63
    },
    {
      "midi": 58,
      "hit": false,
      "t": 96980,
      "d": 425,
      "v": 63
    },
    {
      "midi": 67,
      "hit": false,
      "t": 97050,
      "d": 280,
      "v": 63
    },
    {
      "midi": 73,
      "hit": false,
      "t": 97055,
      "d": 1585,
      "v": 63
    },
    {
      "midi": 75,
      "hit": false,
      "t": 97130,
      "d": 1660,
      "v": 63
    },
    {
      "midi": 79,
      "hit": false,
      "t": 97180,
      "d": 1385,
      "v": 63
    },
    {
      "midi": 51,
      "hit": false,
      "t": 97710,
      "d": 185,
      "v": 63
    },
    {
      "midi": 53,
      "hit": false,
      "t": 98000,
      "d": 300,
      "v": 63
    },
    {
      "midi": 51,
      "hit": false,
      "t": 98255,
      "d": 140,
      "v": 63
    },
    {
      "midi": 51,
      "hit": false,
      "t": 98520,
      "d": 265,
      "v": 63
    },
    {
      "midi": 72,
      "hit": false,
      "t": 98880,
      "d": 500,
      "v": 63
    },
    {
      "midi": 51,
      "hit": false,
      "t": 98885,
      "d": 600,
      "v": 63
    },
    {
      "midi": 75,
      "hit": false,
      "t": 98920,
      "d": 480,
      "v": 63
    },
    {
      "midi": 80,
      "hit": false,
      "t": 98955,
      "d": 890,
      "v": 63
    },
    {
      "midi": 72,
      "hit": false,
      "t": 99545,
      "d": 290,
      "v": 63
    },
    {
      "midi": 75,
      "hit": false,
      "t": 99555,
      "d": 285,
      "v": 63
    },
    {
      "midi": 80,
      "hit": false,
      "t": 100105,
      "d": 85,
      "v": 63
    },
    {
      "midi": 75,
      "hit": false,
      "t": 100110,
      "d": 100,
      "v": 63
    },
    {
      "midi": 72,
      "hit": false,
      "t": 100115,
      "d": 115,
      "v": 63
    },
    {
      "midi": 63,
      "hit": false,
      "t": 100115,
      "d": 250,
      "v": 63
    },
    {
      "midi": 68,
      "hit": false,
      "t": 100700,
      "d": 1160,
      "v": 63
    },
    {
      "midi": 75,
      "hit": false,
      "t": 100705,
      "d": 1210,
      "v": 63
    },
    {
      "midi": 72,
      "hit": false,
      "t": 100710,
      "d": 1215,
      "v": 63
    },
    {
      "midi": 51,
      "hit": false,
      "t": 101285,
      "d": 280,
      "v": 63
    },
    {
      "midi": 44,
      "hit": false,
      "t": 101900,
      "d": 80,
      "v": 63
    },
    {
      "midi": 37,
      "hit": false,
      "t": 102560,
      "d": 2810,
      "v": 63
    },
    {
      "midi": 68,
      "hit": false,
      "t": 102590,
      "d": 505,
      "v": 63
    },
    {
      "midi": 73,
      "hit": false,
      "t": 102600,
      "d": 740,
      "v": 63
    },
    {
      "midi": 77,
      "hit": false,
      "t": 102625,
      "d": 640,
      "v": 63
    },
    {
      "midi": 68,
      "hit": false,
      "t": 103240,
      "d": 285,
      "v": 63
    },
    {
      "midi": 77,
      "hit": false,
      "t": 103810,
      "d": 220,
      "v": 68
    },
    {
      "midi": 73,
      "hit": false,
      "t": 103810,
      "d": 240,
      "v": 68
    },
    {
      "midi": 80,
      "hit": false,
      "t": 104425,
      "d": 975,
      "v": 68
    },
    {
      "midi": 77,
      "hit": false,
      "t": 104430,
      "d": 975,
      "v": 68
    },
    {
      "midi": 49,
      "hit": false,
      "t": 105040,
      "d": 770,
      "v": 66
    },
    {
      "midi": 79,
      "hit": false,
      "t": 105370,
      "d": 320,
      "v": 66
    },
    {
      "midi": 75,
      "hit": false,
      "t": 105375,
      "d": 365,
      "v": 66
    },
    {
      "midi": 37,
      "hit": false,
      "t": 105625,
      "d": 195,
      "v": 66
    },
    {
      "midi": 77,
      "hit": false,
      "t": 105705,
      "d": 150,
      "v": 66
    },
    {
      "midi": 73,
      "hit": false,
      "t": 105715,
      "d": 180,
      "v": 66
    },
    {
      "midi": 68,
      "hit": false,
      "t": 106190,
      "d": 195,
      "v": 66
    },
    {
      "midi": 44,
      "hit": false,
      "t": 106210,
      "d": 470,
      "v": 66
    },
    {
      "midi": 72,
      "hit": false,
      "t": 106230,
      "d": 645,
      "v": 66
    },
    {
      "midi": 75,
      "hit": false,
      "t": 106240,
      "d": 580,
      "v": 66
    },
    {
      "midi": 68,
      "hit": false,
      "t": 106815,
      "d": 85,
      "v": 66
    },
    {
      "midi": 56,
      "hit": false,
      "t": 107090,
      "d": 960,
      "v": 66
    },
    {
      "midi": 73,
      "hit": false,
      "t": 107095,
      "d": 225,
      "v": 66
    },
    {
      "midi": 77,
      "hit": false,
      "t": 107110,
      "d": 180,
      "v": 66
    },
    {
      "midi": 72,
      "hit": false,
      "t": 107385,
      "d": 420,
      "v": 66
    },
    {
      "midi": 75,
      "hit": false,
      "t": 107385,
      "d": 2070,
      "v": 66
    },
    {
      "midi": 68,
      "hit": false,
      "t": 107950,
      "d": 1315,
      "v": 66
    },
    {
      "midi": 72,
      "hit": false,
      "t": 107960,
      "d": 1475,
      "v": 66
    },
    {
      "midi": 56,
      "hit": false,
      "t": 108250,
      "d": 285,
      "v": 66
    },
    {
      "midi": 44,
      "hit": false,
      "t": 108535,
      "d": 70,
      "v": 66
    },
    {
      "midi": 44,
      "hit": false,
      "t": 108785,
      "d": 95,
      "v": 66
    },
    {
      "midi": 44,
      "hit": false,
      "t": 109080,
      "d": 185,
      "v": 66
    },
    {
      "midi": 68,
      "hit": false,
      "t": 109400,
      "d": 90,
      "v": 66
    },
    {
      "midi": 37,
      "hit": false,
      "t": 109760,
      "d": 1365,
      "v": 66
    },
    {
      "midi": 65,
      "hit": false,
      "t": 109770,
      "d": 185,
      "v": 66
    },
    {
      "midi": 67,
      "hit": false,
      "t": 109780,
      "d": 175,
      "v": 66
    },
    {
      "midi": 73,
      "hit": false,
      "t": 109790,
      "d": 480,
      "v": 66
    },
    {
      "midi": 77,
      "hit": false,
      "t": 109875,
      "d": 515,
      "v": 66
    },
    {
      "midi": 65,
      "hit": false,
      "t": 110370,
      "d": 340,
      "v": 66
    },
    {
      "midi": 73,
      "hit": false,
      "t": 110895,
      "d": 130,
      "v": 66
    },
    {
      "midi": 77,
      "hit": false,
      "t": 110925,
      "d": 125,
      "v": 66
    },
    {
      "midi": 37,
      "hit": false,
      "t": 111505,
      "d": 1325,
      "v": 66
    },
    {
      "midi": 77,
      "hit": false,
      "t": 111515,
      "d": 825,
      "v": 66
    },
    {
      "midi": 80,
      "hit": false,
      "t": 111520,
      "d": 945,
      "v": 66
    },
    {
      "midi": 73,
      "hit": false,
      "t": 112125,
      "d": 310,
      "v": 66
    },
    {
      "midi": 75,
      "hit": false,
      "t": 112445,
      "d": 360,
      "v": 66
    },
    {
      "midi": 79,
      "hit": false,
      "t": 112455,
      "d": 340,
      "v": 66
    },
    {
      "midi": 49,
      "hit": false,
      "t": 112765,
      "d": 235,
      "v": 66
    },
    {
      "midi": 73,
      "hit": false,
      "t": 112820,
      "d": 320,
      "v": 66
    },
    {
      "midi": 77,
      "hit": false,
      "t": 112825,
      "d": 530,
      "v": 66
    },
    {
      "midi": 51,
      "hit": false,
      "t": 113400,
      "d": 1445,
      "v": 66
    },
    {
      "midi": 75,
      "hit": false,
      "t": 113405,
      "d": 645,
      "v": 66
    },
    {
      "midi": 72,
      "hit": false,
      "t": 113405,
      "d": 900,
      "v": 66
    },
    {
      "midi": 39,
      "hit": false,
      "t": 114080,
      "d": 695,
      "v": 66
    },
    {
      "midi": 73,
      "hit": false,
      "t": 114345,
      "d": 245,
      "v": 66
    },
    {
      "midi": 77,
      "hit": false,
      "t": 114350,
      "d": 170,
      "v": 66
    },
    {
      "midi": 75,
      "hit": false,
      "t": 114645,
      "d": 90,
      "v": 66
    },
    {
      "midi": 72,
      "hit": false,
      "t": 114650,
      "d": 95,
      "v": 66
    },
    {
      "midi": 68,
      "hit": false,
      "t": 114665,
      "d": 80,
      "v": 66
    },
    {
      "midi": 60,
      "hit": false,
      "t": 115180,
      "d": 1025,
      "v": 66
    },
    {
      "midi": 44,
      "hit": false,
      "t": 115220,
      "d": 690,
      "v": 66
    },
    {
      "midi": 68,
      "hit": false,
      "t": 115220,
      "d": 1075,
      "v": 66
    },
    {
      "midi": 72,
      "hit": false,
      "t": 115270,
      "d": 1145,
      "v": 66
    },
    {
      "midi": 56,
      "hit": false,
      "t": 115850,
      "d": 395,
      "v": 66
    },
    {
      "midi": 68,
      "hit": false,
      "t": 116460,
      "d": 70,
      "v": 66
    },
    {
      "midi": 55,
      "hit": false,
      "t": 116940,
      "d": 1295,
      "v": 66
    },
    {
      "midi": 73,
      "hit": false,
      "t": 116955,
      "d": 515,
      "v": 66
    },
    {
      "midi": 51,
      "hit": false,
      "t": 116955,
      "d": 1105,
      "v": 66
    },
    {
      "midi": 82,
      "hit": false,
      "t": 117070,
      "d": 950,
      "v": 66
    },
    {
      "midi": 73,
      "hit": false,
      "t": 117630,
      "d": 735,
      "v": 66
    },
    {
      "midi": 81,
      "hit": false,
      "t": 118100,
      "d": 255,
      "v": 66
    },
    {
      "midi": 82,
      "hit": false,
      "t": 118325,
      "d": 190,
      "v": 66
    },
    {
      "midi": 48,
      "hit": false,
      "t": 118655,
      "d": 1105,
      "v": 66
    },
    {
      "midi": 58,
      "hit": false,
      "t": 118690,
      "d": 1160,
      "v": 66
    },
    {
      "midi": 76,
      "hit": false,
      "t": 118710,
      "d": 745,
      "v": 66
    },
    {
      "midi": 85,
      "hit": false,
      "t": 118785,
      "d": 345,
      "v": 66
    },
    {
      "midi": 80,
      "hit": false,
      "t": 119295,
      "d": 390,
      "v": 66
    },
    {
      "midi": 84,
      "hit": false,
      "t": 119350,
      "d": 255,
      "v": 66
    },
    {
      "midi": 73,
      "hit": false,
      "t": 119875,
      "d": 225,
      "v": 66
    },
    {
      "midi": 82,
      "hit": false,
      "t": 119880,
      "d": 205,
      "v": 66
    },
    {
      "midi": 53,
      "hit": false,
      "t": 120395,
      "d": 1140,
      "v": 66
    },
    {
      "midi": 75,
      "hit": false,
      "t": 120400,
      "d": 750,
      "v": 66
    },
    {
      "midi": 60,
      "hit": false,
      "t": 120400,
      "d": 1040,
      "v": 66
    },
    {
      "midi": 80,
      "hit": false,
      "t": 120485,
      "d": 705,
      "v": 66
    },
    {
      "midi": 68,
      "hit": false,
      "t": 121080,
      "d": 230,
      "v": 66
    },
    {
      "midi": 75,
      "hit": false,
      "t": 121755,
      "d": 90,
      "v": 66
    },
    {
      "midi": 80,
      "hit": false,
      "t": 121760,
      "d": 115,
      "v": 66
    },
    {
      "midi": 46,
      "hit": false,
      "t": 122435,
      "d": 3540,
      "v": 66
    },
    {
      "midi": 56,
      "hit": false,
      "t": 122540,
      "d": 3475,
      "v": 66
    },
    {
      "midi": 72,
      "hit": false,
      "t": 122550,
      "d": 165,
      "v": 66
    },
    {
      "midi": 74,
      "hit": false,
      "t": 122660,
      "d": 120,
      "v": 66
    },
    {
      "midi": 80,
      "hit": false,
      "t": 122715,
      "d": 165,
      "v": 66
    },
    {
      "midi": 84,
      "hit": false,
      "t": 122810,
      "d": 145,
      "v": 66
    },
    {
      "midi": 96,
      "hit": false,
      "t": 124815,
      "d": 85,
      "v": 66
    },
    {
      "midi": 68,
      "hit": false,
      "t": 126555,
      "d": 1395,
      "v": 66
    },
    {
      "midi": 51,
      "hit": false,
      "t": 126585,
      "d": 545,
      "v": 66
    },
    {
      "midi": 72,
      "hit": false,
      "t": 126620,
      "d": 865,
      "v": 66
    },
    {
      "midi": 80,
      "hit": false,
      "t": 126715,
      "d": 310,
      "v": 66
    },
    {
      "midi": 75,
      "hit": false,
      "t": 127615,
      "d": 245,
      "v": 71
    },
    {
      "midi": 72,
      "hit": false,
      "t": 128000,
      "d": 110,
      "v": 71
    },
    {
      "midi": 67,
      "hit": false,
      "t": 128375,
      "d": 1095,
      "v": 71
    },
    {
      "midi": 51,
      "hit": false,
      "t": 128445,
      "d": 1435,
      "v": 71
    },
    {
      "midi": 75,
      "hit": false,
      "t": 128450,
      "d": 980,
      "v": 71
    },
    {
      "midi": 73,
      "hit": false,
      "t": 129265,
      "d": 290,
      "v": 71
    },
    {
      "midi": 70,
      "hit": false,
      "t": 129600,
      "d": 120,
      "v": 71
    },
    {
      "midi": 53,
      "hit": false,
      "t": 130160,
      "d": 1890,
      "v": 71
    },
    {
      "midi": 61,
      "hit": false,
      "t": 130185,
      "d": 440,
      "v": 71
    },
    {
      "midi": 68,
      "hit": false,
      "t": 130280,
      "d": 1385,
      "v": 71
    },
    {
      "midi": 61,
      "hit": false,
      "t": 130800,
      "d": 415,
      "v": 71
    },
    {
      "midi": 61,
      "hit": false,
      "t": 131420,
      "d": 430,
      "v": 71
    },
    {
      "midi": 52,
      "hit": false,
      "t": 132025,
      "d": 1820,
      "v": 71
    },
    {
      "midi": 61,
      "hit": false,
      "t": 132045,
      "d": 540,
      "v": 71
    },
    {
      "midi": 68,
      "hit": false,
      "t": 132090,
      "d": 820,
      "v": 71
    },
    {
      "midi": 61,
      "hit": false,
      "t": 132675,
      "d": 955,
      "v": 71
    },
    {
      "midi": 68,
      "hit": false,
      "t": 133355,
      "d": 155,
      "v": 71
    },
    {
      "midi": 51,
      "hit": false,
      "t": 133845,
      "d": 2580,
      "v": 71
    },
    {
      "midi": 60,
      "hit": false,
      "t": 133860,
      "d": 1090,
      "v": 71
    },
    {
      "midi": 68,
      "hit": false,
      "t": 133950,
      "d": 1040,
      "v": 71
    },
    {
      "midi": 80,
      "hit": false,
      "t": 135545,
      "d": 70,
      "v": 71
    },
    {
      "midi": 44,
      "hit": false,
      "t": 137320,
      "d": 1295,
      "v": 71
    }
  ]
}