{
  "jsonPath": "Unknown/Unknown/Peter Hoppe/komm-la-uns-traumen.json",
  "path": "Unknown\\Unknown\\Peter Hoppe\\Komm, La uns traumen.mid",
  "name": "Komm, La uns traumen",
  "difficulty": "Advanced",
  "bpm": 100,
  "notes": [
    {
      "midi": 45,
      "hit": false,
      "t": 0,
      "d": 300,
      "v": 67
    },
    {
      "midi": 52,
      "hit": false,
      "t": 300,
      "d": 300,
      "v": 81
    },
    {
      "midi": 72,
      "hit": false,
      "t": 600,
      "d": 300,
      "v": 66
    },
    {
      "midi": 57,
      "hit": false,
      "t": 600,
      "d": 1800,
      "v": 82
    },
    {
      "midi": 72,
      "hit": false,
      "t": 900,
      "d": 300,
      "v": 81
    },
    {
      "midi": 72,
      "hit": false,
      "t": 1200,
      "d": 600,
      "v": 79
    },
    {
      "midi": 71,
      "hit": false,
      "t": 1800,
      "d": 600,
      "v": 70
    },
    {
      "midi": 71,
      "hit": false,
      "t": 2400,
      "d": 600,
      "v": 75
    },
    {
      "midi": 50,
      "hit": false,
      "t": 2400,
      "d": 300,
      "v": 67
    },
    {
      "midi": 57,
      "hit": false,
      "t": 2700,
      "d": 300,
      "v": 79
    },
    {
      "midi": 69,
      "hit": false,
      "t": 3000,
      "d": 300,
      "v": 69
    },
    {
      "midi": 62,
      "hit": false,
      "t": 3000,
      "d": 1200,
      "v": 87
    },
    {
      "midi": 69,
      "hit": false,
      "t": 3300,
      "d": 300,
      "v": 71
    },
    {
      "midi": 69,
      "hit": false,
      "t": 3600,
      "d": 1200,
      "v": 82
    },
    {
      "midi": 62,
      "hit": false,
      "t": 4200,
      "d": 300,
      "v": 78
    },
    {
      "midi": 57,
      "hit": false,
      "t": 4500,
      "d": 300,
      "v": 78
    },
    {
      "midi": 43,
      "hit": false,
      "t": 4800,
      "d": 300,
      "v": 68
    },
    {
      "midi": 67,
      "hit": false,
      "t": 5100,
      "d": 300,
      "v": 68
    },
    {
      "midi": 50,
      "hit": false,
      "t": 5100,
      "d": 300,
      "v": 79
    },
    {
      "midi": 71,
      "hit": false,
      "t": 5400,
      "d": 300,
      "v": 83
    },
    {
      "midi": 55,
      "hit": false,
      "t": 5400,
      "d": 1800,
      "v": 82
    },
    {
      "midi": 72,
      "hit": false,
      "t": 5700,
      "d": 300,
      "v": 79
    },
    {
      "midi": 74,
      "hit": false,
      "t": 6000,
      "d": 600,
      "v": 83
    },
    {
      "midi": 71,
      "hit": false,
      "t": 6600,
      "d": 600,
      "v": 70
    },
    {
      "midi": 67,
      "hit": false,
      "t": 7200,
      "d": 1800,
      "v": 65
    },
    {
      "midi": 48,
      "hit": false,
      "t": 7200,
      "d": 300,
      "v": 69
    },
    {
      "midi": 55,
      "hit": false,
      "t": 7500,
      "d": 300,
      "v": 84
    },
    {
      "midi": 60,
      "hit": false,
      "t": 7800,
      "d": 900,
      "v": 82
    },
    {
      "midi": 55,
      "hit": false,
      "t": 8700,
      "d": 300,
      "v": 71
    },
    {
      "midi": 47,
      "hit": false,
      "t": 9000,
      "d": 300,
      "v": 71
    },
    {
      "midi": 55,
      "hit": false,
      "t": 9300,
      "d": 300,
      "v": 83
    },
    {
      "midi": 45,
      "hit": false,
      "t": 9600,
      "d": 300,
      "v": 69
    },
    {
      "midi": 72,
      "hit": false,
      "t": 9900,
      "d": 300,
      "v": 68
    },
    {
      "midi": 52,
      "hit": false,
      "t": 9900,
      "d": 300,
      "v": 81
    },
    {
      "midi": 72,
      "hit": false,
      "t": 10200,
      "d": 300,
      "v": 75
    },
    {
      "midi": 57,
      "hit": false,
      "t": 10200,
      "d": 1800,
      "v": 80
    },
    {
      "midi": 72,
      "hit": false,
      "t": 10500,
      "d": 300,
      "v": 72
    },
    {
      "midi": 72,
      "hit": false,
      "t": 10800,
      "d": 600,
      "v": 74
    },
    {
      "midi": 71,
      "hit": false,
      "t": 11400,
      "d": 600,
      "v": 79
    },
    {
      "midi": 71,
      "hit": false,
      "t": 12000,
      "d": 300,
      "v": 77
    },
    {
      "midi": 50,
      "hit": false,
      "t": 12000,
      "d": 300,
      "v": 71
    },
    {
      "midi": 69,
      "hit": false,
      "t": 12300,
      "d": 300,
      "v": 73
    },
    {
      "midi": 57,
      "hit": false,
      "t": 12300,
      "d": 300,
      "v": 81
    },
    {
      "midi": 69,
      "hit": false,
      "t": 12600,
      "d": 1200,
      "v": 74
    },
    {
      "midi": 62,
      "hit": false,
      "t": 12600,
      "d": 1200,
      "v": 84
    },
    {
      "midi": 62,
      "hit": false,
      "t": 13800,
      "d": 600,
      "v": 58
    },
    {
      "midi": 50,
      "hit": false,
      "t": 13800,
      "d": 600,
      "v": 67
    },
    {
      "midi": 67,
      "hit": false,
      "t": 14400,
      "d": 600,
      "v": 82
    },
    {
      "midi": 48,
      "hit": false,
      "t": 14400,
      "d": 300,
      "v": 78
    },
    {
      "midi": 50,
      "hit": false,
      "t": 14700,
      "d": 300,
      "v": 79
    },
    {
      "midi": 67,
      "hit": false,
      "t": 15000,
      "d": 300,
      "v": 77
    },
    {
      "midi": 52,
      "hit": false,
      "t": 15000,
      "d": 300,
      "v": 70
    },
    {
      "midi": 67,
      "hit": false,
      "t": 15300,
      "d": 600,
      "v": 75
    },
    {
      "midi": 55,
      "hit": false,
      "t": 15300,
      "d": 1200,
      "v": 80
    },
    {
      "midi": 67,
      "hit": false,
      "t": 15900,
      "d": 900,
      "v": 75
    },
    {
      "midi": 62,
      "hit": false,
      "t": 16800,
      "d": 1800,
      "v": 79
    },
    {
      "midi": 65,
      "hit": false,
      "t": 16800,
      "d": 1800,
      "v": 79
    },
    {
      "midi": 69,
      "hit": false,
      "t": 16800,
      "d": 1800,
      "v": 79
    },
    {
      "midi": 46,
      "hit": false,
      "t": 16800,
      "d": 300,
      "v": 61
    },
    {
      "midi": 53,
      "hit": false,
      "t": 17100,
      "d": 300,
      "v": 80
    },
    {
      "midi": 58,
      "hit": false,
      "t": 17400,
      "d": 1800,
      "v": 82
    },
    {
      "midi": 60,
      "hit": false,
      "t": 19200,
      "d": 300,
      "v": 65
    },
    {
      "midi": 64,
      "hit": false,
      "t": 19200,
      "d": 300,
      "v": 65
    },
    {
      "midi": 45,
      "hit": false,
      "t": 19200,
      "d": 1200,
      "v": 70
    },
    {
      "midi": 72,
      "hit": false,
      "t": 19500,
      "d": 300,
      "v": 66
    },
    {
      "midi": 72,
      "hit": false,
      "t": 19800,
      "d": 300,
      "v": 70
    },
    {
      "midi": 72,
      "hit": false,
      "t": 20100,
      "d": 300,
      "v": 77
    },
    {
      "midi": 60,
      "hit": false,
      "t": 20400,
      "d": 600,
      "v": 80
    },
    {
      "midi": 64,
      "hit": false,
      "t": 20400,
      "d": 600,
      "v": 80
    },
    {
      "midi": 72,
      "hit": false,
      "t": 20400,
      "d": 600,
      "v": 76
    },
    {
      "midi": 57,
      "hit": false,
      "t": 20400,
      "d": 1200,
      "v": 85
    },
    {
      "midi": 71,
      "hit": false,
      "t": 21000,
      "d": 600,
      "v": 70
    },
    {
      "midi": 62,
      "hit": false,
      "t": 21600,
      "d": 600,
      "v": 81
    },
    {
      "midi": 66,
      "hit": false,
      "t": 21600,
      "d": 600,
      "v": 81
    },
    {
      "midi": 71,
      "hit": false,
      "t": 21600,
      "d": 600,
      "v": 75
    },
    {
      "midi": 50,
      "hit": false,
      "t": 21600,
      "d": 1200,
      "v": 72
    },
    {
      "midi": 69,
      "hit": false,
      "t": 22200,
      "d": 300,
      "v": 71
    },
    {
      "midi": 69,
      "hit": false,
      "t": 22500,
      "d": 300,
      "v": 75
    },
    {
      "midi": 62,
      "hit": false,
      "t": 22800,
      "d": 1200,
      "v": 68
    },
    {
      "midi": 66,
      "hit": false,
      "t": 22800,
      "d": 1200,
      "v": 77
    },
    {
      "midi": 69,
      "hit": false,
      "t": 22800,
      "d": 1200,
      "v": 77
    },
    {
      "midi": 57,
      "hit": false,
      "t": 22800,
      "d": 300,
      "v": 83
    },
    {
      "midi": 54,
      "hit": false,
      "t": 23100,
      "d": 300,
      "v": 71
    },
    {
      "midi": 50,
      "hit": false,
      "t": 23400,
      "d": 300,
      "v": 72
    },
    {
      "midi": 48,
      "hit": false,
      "t": 23700,
      "d": 300,
      "v": 72
    },
    {
      "midi": 47,
      "hit": false,
      "t": 24000,
      "d": 1200,
      "v": 73
    },
    {
      "midi": 62,
      "hit": false,
      "t": 24300,
      "d": 300,
      "v": 70
    },
    {
      "midi": 67,
      "hit": false,
      "t": 24300,
      "d": 300,
      "v": 65
    },
    {
      "midi": 71,
      "hit": false,
      "t": 24600,
      "d": 300,
      "v": 83
    },
    {
      "midi": 72,
      "hit": false,
      "t": 24900,
      "d": 300,
      "v": 76
    },
    {
      "midi": 62,
      "hit": false,
      "t": 25200,
      "d": 600,
      "v": 89
    },
    {
      "midi": 67,
      "hit": false,
      "t": 25200,
      "d": 600,
      "v": 89
    },
    {
      "midi": 74,
      "hit": false,
      "t": 25200,
      "d": 600,
      "v": 79
    },
    {
      "midi": 59,
      "hit": false,
      "t": 25200,
      "d": 300,
      "v": 86
    },
    {
      "midi": 55,
      "hit": false,
      "t": 25500,
      "d": 300,
      "v": 76
    },
    {
      "midi": 71,
      "hit": false,
      "t": 25800,
      "d": 600,
      "v": 72
    },
    {
      "midi": 50,
      "hit": false,
      "t": 25800,
      "d": 300,
      "v": 71
    },
    {
      "midi": 55,
      "hit": false,
      "t": 26100,
      "d": 300,
      "v": 76
    },
    {
      "midi": 67,
      "hit": false,
      "t": 26400,
      "d": 600,
      "v": 100
    },
    {
      "midi": 48,
      "hit": false,
      "t": 26400,
      "d": 1200,
      "v": 67
    },
    {
      "midi": 62,
      "hit": false,
      "t": 27000,
      "d": 300,
      "v": 68
    },
    {
      "midi": 67,
      "hit": false,
      "t": 27300,
      "d": 300,
      "v": 88
    },
    {
      "midi": 62,
      "hit": false,
      "t": 27600,
      "d": 300,
      "v": 71
    },
    {
      "midi": 47,
      "hit": false,
      "t": 27600,
      "d": 1200,
      "v": 78
    },
    {
      "midi": 60,
      "hit": false,
      "t": 27900,
      "d": 300,
      "v": 74
    },
    {
      "midi": 59,
      "hit": false,
      "t": 28200,
      "d": 300,
      "v": 74
    },
    {
      "midi": 57,
      "hit": false,
      "t": 28500,
      "d": 300,
      "v": 74
    },
    {
      "midi": 60,
      "hit": false,
      "t": 28800,
      "d": 300,
      "v": 88
    },
    {
      "midi": 45,
      "hit": false,
      "t": 28800,
      "d": 1200,
      "v": 70
    },
    {
      "midi": 72,
      "hit": false,
      "t": 29100,
      "d": 300,
      "v": 73
    },
    {
      "midi": 72,
      "hit": false,
      "t": 29400,
      "d": 300,
      "v": 78
    },
    {
      "midi": 72,
      "hit": false,
      "t": 29700,
      "d": 300,
      "v": 75
    },
    {
      "midi": 60,
      "hit": false,
      "t": 30000,
      "d": 600,
      "v": 87
    },
    {
      "midi": 64,
      "hit": false,
      "t": 30000,
      "d": 600,
      "v": 87
    },
    {
      "midi": 72,
      "hit": false,
      "t": 30000,
      "d": 600,
      "v": 74
    },
    {
      "midi": 57,
      "hit": false,
      "t": 30000,
      "d": 1200,
      "v": 86
    },
    {
      "midi": 71,
      "hit": false,
      "t": 30600,
      "d": 600,
      "v": 73
    },
    {
      "midi": 62,
      "hit": false,
      "t": 31200,
      "d": 300,
      "v": 80
    },
    {
      "midi": 66,
      "hit": false,
      "t": 31200,
      "d": 300,
      "v": 80
    },
    {
      "midi": 71,
      "hit": false,
      "t": 31200,
      "d": 300,
      "v": 73
    },
    {
      "midi": 50,
      "hit": false,
      "t": 31200,
      "d": 1200,
      "v": 76
    },
    {
      "midi": 69,
      "hit": false,
      "t": 31500,
      "d": 1200,
      "v": 74
    },
    {
      "midi": 38,
      "hit": false,
      "t": 32400,
      "d": 300,
      "v": 66
    },
    {
      "midi": 45,
      "hit": false,
      "t": 32700,
      "d": 300,
      "v": 82
    },
    {
      "midi": 62,
      "hit": false,
      "t": 33000,
      "d": 600,
      "v": 67
    },
    {
      "midi": 50,
      "hit": false,
      "t": 33000,
      "d": 300,
      "v": 80
    },
    {
      "midi": 45,
      "hit": false,
      "t": 33300,
      "d": 300,
      "v": 68
    },
    {
      "midi": 60,
      "hit": false,
      "t": 33600,
      "d": 600,
      "v": 70
    },
    {
      "midi": 64,
      "hit": false,
      "t": 33600,
      "d": 600,
      "v": 70
    },
    {
      "midi": 67,
      "hit": false,
      "t": 33600,
      "d": 600,
      "v": 83
    },
    {
      "midi": 48,
      "hit": false,
      "t": 33600,
      "d": 1200,
      "v": 80
    },
    {
      "midi": 67,
      "hit": false,
      "t": 34200,
      "d": 300,
      "v": 79
    },
    {
      "midi": 67,
      "hit": false,
      "t": 34500,
      "d": 300,
      "v": 81
    },
    {
      "midi": 60,
      "hit": false,
      "t": 34800,
      "d": 300,
      "v": 74
    },
    {
      "midi": 64,
      "hit": false,
      "t": 34800,
      "d": 300,
      "v": 74
    },
    {
      "midi": 36,
      "hit": false,
      "t": 34800,
      "d": 600,
      "v": 67
    },
    {
      "midi": 67,
      "hit": false,
      "t": 35100,
      "d": 900,
      "v": 76
    },
    {
      "midi": 48,
      "hit": false,
      "t": 35400,
      "d": 600,
      "v": 85
    },
    {
      "midi": 59,
      "hit": false,
      "t": 36000,
      "d": 1200,
      "v": 75
    },
    {
      "midi": 62,
      "hit": false,
      "t": 36000,
      "d": 1200,
      "v": 75
    },
    {
      "midi": 67,
      "hit": false,
      "t": 36000,
      "d": 1200,
      "v": 75
    },
    {
      "midi": 43,
      "hit": false,
      "t": 36000,
      "d": 900,
      "v": 74
    },
    {
      "midi": 43,
      "hit": false,
      "t": 36900,
      "d": 300,
      "v": 70
    },
    {
      "midi": 59,
      "hit": false,
      "t": 37200,
      "d": 600,
      "v": 66
    },
    {
      "midi": 62,
      "hit": false,
      "t": 37200,
      "d": 600,
      "v": 66
    },
    {
      "midi": 55,
      "hit": false,
      "t": 37200,
      "d": 600,
      "v": 85
    },
    {
      "midi": 57,
      "hit": false,
      "t": 37800,
      "d": 600,
      "v": 72
    },
    {
      "midi": 62,
      "hit": false,
      "t": 37800,
      "d": 600,
      "v": 72
    },
    {
      "midi": 42,
      "hit": false,
      "t": 37800,
      "d": 600,
      "v": 73
    },
    {
      "midi": 55,
      "hit": false,
      "t": 38400,
      "d": 600,
      "v": 74
    },
    {
      "midi": 59,
      "hit": false,
      "t": 38400,
      "d": 600,
      "v": 74
    },
    {
      "midi": 40,
      "hit": false,
      "t": 38400,
      "d": 300,
      "v": 71
    },
    {
      "midi": 47,
      "hit": false,
      "t": 38700,
      "d": 300,
      "v": 86
    },
    {
      "midi": 64,
      "hit": false,
      "t": 39000,
      "d": 300,
      "v": 66
    },
    {
      "midi": 67,
      "hit": false,
      "t": 39000,
      "d": 300,
      "v": 94
    },
    {
      "midi": 52,
      "hit": false,
      "t": 39000,
      "d": 300,
      "v": 81
    },
    {
      "midi": 67,
      "hit": false,
      "t": 39300,
      "d": 300,
      "v": 81
    },
    {
      "midi": 55,
      "hit": false,
      "t": 39300,
      "d": 300,
      "v": 80
    },
    {
      "midi": 67,
      "hit": false,
      "t": 39600,
      "d": 600,
      "v": 78
    },
    {
      "midi": 59,
      "hit": false,
      "t": 39600,
      "d": 600,
      "v": 86
    },
    {
      "midi": 67,
      "hit": false,
      "t": 40200,
      "d": 600,
      "v": 77
    },
    {
      "midi": 52,
      "hit": false,
      "t": 40200,
      "d": 300,
      "v": 68
    },
    {
      "midi": 55,
      "hit": false,
      "t": 40500,
      "d": 300,
      "v": 80
    },
    {
      "midi": 59,
      "hit": false,
      "t": 40800,
      "d": 600,
      "v": 66
    },
    {
      "midi": 66,
      "hit": false,
      "t": 40800,
      "d": 600,
      "v": 77
    },
    {
      "midi": 51,
      "hit": false,
      "t": 40800,
      "d": 1200,
      "v": 73
    },
    {
      "midi": 71,
      "hit": false,
      "t": 41400,
      "d": 300,
      "v": 84
    },
    {
      "midi": 71,
      "hit": false,
      "t": 41700,
      "d": 300,
      "v": 80
    },
    {
      "midi": 59,
      "hit": false,
      "t": 42000,
      "d": 600,
      "v": 75
    },
    {
      "midi": 39,
      "hit": false,
      "t": 42000,
      "d": 300,
      "v": 64
    },
    {
      "midi": 47,
      "hit": false,
      "t": 42300,
      "d": 300,
      "v": 81
    },
    {
      "midi": 69,
      "hit": false,
      "t": 42600,
      "d": 600,
      "v": 73
    },
    {
      "midi": 54,
      "hit": false,
      "t": 42600,
      "d": 300,
      "v": 84
    },
    {
      "midi": 47,
      "hit": false,
      "t": 42900,
      "d": 300,
      "v": 67
    },
    {
      "midi": 64,
      "hit": false,
      "t": 43200,
      "d": 600,
      "v": 69
    },
    {
      "midi": 67,
      "hit": false,
      "t": 43200,
      "d": 600,
      "v": 69
    },
    {
      "midi": 38,
      "hit": false,
      "t": 43200,
      "d": 1200,
      "v": 68
    },
    {
      "midi": 66,
      "hit": false,
      "t": 43800,
      "d": 300,
      "v": 80
    },
    {
      "midi": 69,
      "hit": false,
      "t": 43800,
      "d": 300,
      "v": 80
    },
    {
      "midi": 64,
      "hit": false,
      "t": 44100,
      "d": 900,
      "v": 72
    },
    {
      "midi": 67,
      "hit": false,
      "t": 44100,
      "d": 900,
      "v": 72
    },
    {
      "midi": 50,
      "hit": false,
      "t": 44400,
      "d": 1200,
      "v": 81
    },
    {
      "midi": 62,
      "hit": false,
      "t": 45000,
      "d": 600,
      "v": 75
    },
    {
      "midi": 66,
      "hit": false,
      "t": 45000,
      "d": 600,
      "v": 75
    },
    {
      "midi": 57,
      "hit": false,
      "t": 45600,
      "d": 1200,
      "v": 73
    },
    {
      "midi": 64,
      "hit": false,
      "t": 45600,
      "d": 1200,
      "v": 70
    },
    {
      "midi": 37,
      "hit": false,
      "t": 45600,
      "d": 1200,
      "v": 69
    },
    {
      "midi": 57,
      "hit": false,
      "t": 46800,
      "d": 1200,
      "v": 79
    },
    {
      "midi": 49,
      "hit": false,
      "t": 46800,
      "d": 1200,
      "v": 86
    },
    {
      "midi": 60,
      "hit": false,
      "t": 48000,
      "d": 600,
      "v": 91
    },
    {
      "midi": 64,
      "hit": false,
      "t": 48000,
      "d": 600,
      "v": 91
    },
    {
      "midi": 48,
      "hit": false,
      "t": 48000,
      "d": 1200,
      "v": 74
    },
    {
      "midi": 67,
      "hit": false,
      "t": 48600,
      "d": 300,
      "v": 73
    },
    {
      "midi": 67,
      "hit": false,
      "t": 48900,
      "d": 300,
      "v": 81
    },
    {
      "midi": 60,
      "hit": false,
      "t": 49200,
      "d": 600,
      "v": 80
    },
    {
      "midi": 64,
      "hit": false,
      "t": 49200,
      "d": 600,
      "v": 80
    },
    {
      "midi": 67,
      "hit": false,
      "t": 49200,
      "d": 600,
      "v": 72
    },
    {
      "midi": 55,
      "hit": false,
      "t": 49200,
      "d": 1200,
      "v": 86
    },
    {
      "midi": 67,
      "hit": false,
      "t": 49800,
      "d": 600,
      "v": 77
    },
    {
      "midi": 62,
      "hit": false,
      "t": 50400,
      "d": 300,
      "v": 74
    },
    {
      "midi": 67,
      "hit": false,
      "t": 50400,
      "d": 300,
      "v": 80
    },
    {
      "midi": 47,
      "hit": false,
      "t": 50400,
      "d": 1200,
      "v": 69
    },
    {
      "midi": 55,
      "hit": false,
      "t": 50700,
      "d": 300,
      "v": 76
    },
    {
      "midi": 62,
      "hit": false,
      "t": 51000,
      "d": 900,
      "v": 62
    },
    {
      "midi": 43,
      "hit": false,
      "t": 51600,
      "d": 1200,
      "v": 75
    },
    {
      "midi": 55,
      "hit": false,
      "t": 51900,
      "d": 300,
      "v": 75
    },
    {
      "midi": 62,
      "hit": false,
      "t": 52200,
      "d": 300,
      "v": 91
    },
    {
      "midi": 67,
      "hit": false,
      "t": 52500,
      "d": 300,
      "v": 90
    },
    {
      "midi": 62,
      "hit": false,
      "t": 52800,
      "d": 300,
      "v": 64
    },
    {
      "midi": 50,
      "hit": false,
      "t": 52800,
      "d": 1200,
      "v": 85
    },
    {
      "midi": 66,
      "hit": false,
      "t": 53100,
      "d": 300,
      "v": 64
    },
    {
      "midi": 69,
      "hit": false,
      "t": 53100,
      "d": 300,
      "v": 64
    },
    {
      "midi": 66,
      "hit": false,
      "t": 53400,
      "d": 300,
      "v": 72
    },
    {
      "midi": 69,
      "hit": false,
      "t": 53400,
      "d": 300,
      "v": 72
    },
    {
      "midi": 66,
      "hit": false,
      "t": 53700,
      "d": 300,
      "v": 73
    },
    {
      "midi": 69,
      "hit": false,
      "t": 53700,
      "d": 300,
      "v": 73
    },
    {
      "midi": 66,
      "hit": false,
      "t": 54000,
      "d": 600,
      "v": 73
    },
    {
      "midi": 69,
      "hit": false,
      "t": 54000,
      "d": 600,
      "v": 73
    },
    {
      "midi": 50,
      "hit": false,
      "t": 54000,
      "d": 1200,
      "v": 78
    },
    {
      "midi": 64,
      "hit": false,
      "t": 54600,
      "d": 300,
      "v": 75
    },
    {
      "midi": 67,
      "hit": false,
      "t": 54600,
      "d": 300,
      "v": 75
    },
    {
      "midi": 67,
      "hit": false,
      "t": 54900,
      "d": 600,
      "v": 84
    },
    {
      "midi": 71,
      "hit": false,
      "t": 54900,
      "d": 600,
      "v": 84
    },
    {
      "midi": 38,
      "hit": false,
      "t": 55200,
      "d": 1800,
      "v": 67
    },
    {
      "midi": 66,
      "hit": false,
      "t": 55500,
      "d": 1200,
      "v": 70
    },
    {
      "midi": 69,
      "hit": false,
      "t": 55500,
      "d": 1200,
      "v": 70
    },
    {
      "midi": 59,
      "hit": false,
      "t": 57600,
      "d": 600,
      "v": 73
    },
    {
      "midi": 62,
      "hit": false,
      "t": 57600,
      "d": 600,
      "v": 73
    },
    {
      "midi": 43,
      "hit": false,
      "t": 57600,
      "d": 900,
      "v": 66
    },
    {
      "midi": 67,
      "hit": false,
      "t": 58200,
      "d": 600,
      "v": 66
    },
    {
      "midi": 50,
      "hit": false,
      "t": 58500,
      "d": 300,
      "v": 82
    },
    {
      "midi": 59,
      "hit": false,
      "t": 58800,
      "d": 600,
      "v": 74
    },
    {
      "midi": 62,
      "hit": false,
      "t": 58800,
      "d": 600,
      "v": 74
    },
    {
      "midi": 67,
      "hit": false,
      "t": 58800,
      "d": 600,
      "v": 77
    },
    {
      "midi": 55,
      "hit": false,
      "t": 58800,
      "d": 1200,
      "v": 81
    },
    {
      "midi": 67,
      "hit": false,
      "t": 59400,
      "d": 600,
      "v": 74
    },
    {
      "midi": 57,
      "hit": false,
      "t": 60000,
      "d": 1200,
      "v": 69
    },
    {
      "midi": 62,
      "hit": false,
      "t": 60000,
      "d": 1200,
      "v": 69
    },
    {
      "midi": 69,
      "hit": false,
      "t": 60000,
      "d": 1200,
      "v": 81
    },
    {
      "midi": 42,
      "hit": false,
      "t": 60000,
      "d": 900,
      "v": 64
    },
    {
      "midi": 50,
      "hit": false,
      "t": 60900,
      "d": 300,
      "v": 79
    },
    {
      "midi": 57,
      "hit": false,
      "t": 61200,
      "d": 900,
      "v": 73
    },
    {
      "midi": 62,
      "hit": false,
      "t": 61200,
      "d": 900,
      "v": 62
    },
    {
      "midi": 54,
      "hit": false,
      "t": 61200,
      "d": 600,
      "v": 80
    },
    {
      "midi": 50,
      "hit": false,
      "t": 61800,
      "d": 600,
      "v": 72
    },
    {
      "midi": 62,
      "hit": false,
      "t": 62100,
      "d": 300,
      "v": 72
    },
    {
      "midi": 60,
      "hit": false,
      "t": 62400,
      "d": 600,
      "v": 83
    },
    {
      "midi": 67,
      "hit": false,
      "t": 62400,
      "d": 600,
      "v": 90
    },
    {
      "midi": 40,
      "hit": false,
      "t": 62400,
      "d": 1200,
      "v": 69
    },
    {
      "midi": 66,
      "hit": false,
      "t": 63000,
      "d": 600,
      "v": 73
    },
    {
      "midi": 60,
      "hit": false,
      "t": 63600,
      "d": 900,
      "v": 78
    },
    {
      "midi": 64,
      "hit": false,
      "t": 63600,
      "d": 900,
      "v": 76
    },
    {
      "midi": 52,
      "hit": false,
      "t": 63600,
      "d": 600,
      "v": 86
    },
    {
      "midi": 48,
      "hit": false,
      "t": 64200,
      "d": 600,
      "v": 77
    },
    {
      "midi": 62,
      "hit": false,
      "t": 64500,
      "d": 300,
      "v": 71
    },
    {
      "midi": 59,
      "hit": false,
      "t": 64800,
      "d": 1200,
      "v": 69
    },
    {
      "midi": 62,
      "hit": false,
      "t": 64800,
      "d": 1200,
      "v": 77
    },
    {
      "midi": 38,
      "hit": false,
      "t": 64800,
      "d": 1200,
      "v": 69
    },
    {
      "midi": 59,
      "hit": false,
      "t": 66000,
      "d": 900,
      "v": 75
    },
    {
      "midi": 50,
      "hit": false,
      "t": 66000,
      "d": 600,
      "v": 80
    },
    {
      "midi": 47,
      "hit": false,
      "t": 66600,
      "d": 600,
      "v": 77
    },
    {
      "midi": 62,
      "hit": false,
      "t": 66900,
      "d": 300,
      "v": 69
    },
    {
      "midi": 57,
      "hit": false,
      "t": 67200,
      "d": 600,
      "v": 81
    },
    {
      "midi": 64,
      "hit": false,
      "t": 67200,
      "d": 600,
      "v": 82
    },
    {
      "midi": 37,
      "hit": false,
      "t": 67200,
      "d": 900,
      "v": 68
    },
    {
      "midi": 69,
      "hit": false,
      "t": 67800,
      "d": 600,
      "v": 86
    },
    {
      "midi": 45,
      "hit": false,
      "t": 68100,
      "d": 300,
      "v": 80
    },
    {
      "midi": 57,
      "hit": false,
      "t": 68400,
      "d": 600,
      "v": 76
    },
    {
      "midi": 69,
      "hit": false,
      "t": 68400,
      "d": 600,
      "v": 77
    },
    {
      "midi": 49,
      "hit": false,
      "t": 68400,
      "d": 1200,
      "v": 78
    },
    {
      "midi": 64,
      "hit": false,
      "t": 69000,
      "d": 600,
      "v": 65
    },
    {
      "midi": 62,
      "hit": false,
      "t": 69600,
      "d": 1200,
      "v": 85
    },
    {
      "midi": 67,
      "hit": false,
      "t": 69600,
      "d": 1200,
      "v": 81
    },
    {
      "midi": 35,
      "hit": false,
      "t": 69600,
      "d": 900,
      "v": 71
    },
    {
      "midi": 47,
      "hit": false,
      "t": 70500,
      "d": 300,
      "v": 85
    },
    {
      "midi": 59,
      "hit": false,
      "t": 70800,
      "d": 900,
      "v": 80
    },
    {
      "midi": 62,
      "hit": false,
      "t": 70800,
      "d": 900,
      "v": 64
    },
    {
      "midi": 43,
      "hit": false,
      "t": 70800,
      "d": 600,
      "v": 72
    },
    {
      "midi": 44,
      "hit": false,
      "t": 71400,
      "d": 600,
      "v": 81
    },
    {
      "midi": 62,
      "hit": false,
      "t": 71700,
      "d": 300,
      "v": 73
    },
    {
      "midi": 64,
      "hit": false,
      "t": 72000,
      "d": 600,
      "v": 90
    },
    {
      "midi": 67,
      "hit": false,
      "t": 72000,
      "d": 600,
      "v": 90
    },
    {
      "midi": 72,
      "hit": false,
      "t": 72000,
      "d": 600,
      "v": 95
    },
    {
      "midi": 45,
      "hit": false,
      "t": 72000,
      "d": 900,
      "v": 80
    },
    {
      "midi": 71,
      "hit": false,
      "t": 72600,
      "d": 600,
      "v": 77
    },
    {
      "midi": 52,
      "hit": false,
      "t": 72900,
      "d": 300,
      "v": 82
    },
    {
      "midi": 60,
      "hit": false,
      "t": 73200,
      "d": 900,
      "v": 74
    },
    {
      "midi": 64,
      "hit": false,
      "t": 73200,
      "d": 900,
      "v": 74
    },
    {
      "midi": 69,
      "hit": false,
      "t": 73200,
      "d": 900,
      "v": 72
    },
    {
      "midi": 50,
      "hit": false,
      "t": 73200,
      "d": 600,
      "v": 76
    },
    {
      "midi": 38,
      "hit": false,
      "t": 73800,
      "d": 600,
      "v": 66
    },
    {
      "midi": 67,
      "hit": false,
      "t": 74100,
      "d": 300,
      "v": 68
    },
    {
      "midi": 62,
      "hit": false,
      "t": 74400,
      "d": 1200,
      "v": 80
    },
    {
      "midi": 67,
      "hit": false,
      "t": 74400,
      "d": 1200,
      "v": 80
    },
    {
      "midi": 71,
      "hit": false,
      "t": 74400,
      "d": 1200,
      "v": 88
    },
    {
      "midi": 43,
      "hit": false,
      "t": 74400,
      "d": 600,
      "v": 81
    },
    {
      "midi": 50,
      "hit": false,
      "t": 75000,
      "d": 600,
      "v": 79
    },
    {
      "midi": 60,
      "hit": false,
      "t": 75600,
      "d": 1200,
      "v": 73
    },
    {
      "midi": 64,
      "hit": false,
      "t": 75600,
      "d": 1200,
      "v": 73
    },
    {
      "midi": 38,
      "hit": false,
      "t": 75600,
      "d": 600,
      "v": 66
    },
    {
      "midi": 38,
      "hit": false,
      "t": 76200,
      "d": 600,
      "v": 75
    },
    {
      "midi": 59,
      "hit": false,
      "t": 76800,
      "d": 600,
      "v": 70
    },
    {
      "midi": 62,
      "hit": false,
      "t": 76800,
      "d": 600,
      "v": 70
    },
    {
      "midi": 43,
      "hit": false,
      "t": 76800,
      "d": 900,
      "v": 87
    },
    {
      "midi": 67,
      "hit": false,
      "t": 77400,
      "d": 600,
      "v": 68
    },
    {
      "midi": 50,
      "hit": false,
      "t": 77700,
      "d": 300,
      "v": 84
    },
    {
      "midi": 59,
      "hit": false,
      "t": 78000,
      "d": 600,
      "v": 75
    },
    {
      "midi": 62,
      "hit": false,
      "t": 78000,
      "d": 600,
      "v": 75
    },
    {
      "midi": 67,
      "hit": false,
      "t": 78000,
      "d": 600,
      "v": 75
    },
    {
      "midi": 55,
      "hit": false,
      "t": 78000,
      "d": 1200,
      "v": 79
    },
    {
      "midi": 67,
      "hit": false,
      "t": 78600,
      "d": 600,
      "v": 81
    },
    {
      "midi": 57,
      "hit": false,
      "t": 79200,
      "d": 1200,
      "v": 77
    },
    {
      "midi": 62,
      "hit": false,
      "t": 79200,
      "d": 1200,
      "v": 77
    },
    {
      "midi": 69,
      "hit": false,
      "t": 79200,
      "d": 1200,
      "v": 82
    },
    {
      "midi": 42,
      "hit": false,
      "t": 79200,
      "d": 900,
      "v": 64
    },
    {
      "midi": 50,
      "hit": false,
      "t": 80100,
      "d": 300,
      "v": 80
    },
    {
      "midi": 57,
      "hit": false,
      "t": 80400,
      "d": 900,
      "v": 72
    },
    {
      "midi": 62,
      "hit": false,
      "t": 80400,
      "d": 900,
      "v": 66
    },
    {
      "midi": 54,
      "hit": false,
      "t": 80400,
      "d": 600,
      "v": 79
    },
    {
      "midi": 50,
      "hit": false,
      "t": 81000,
      "d": 600,
      "v": 72
    },
    {
      "midi": 62,
      "hit": false,
      "t": 81300,
      "d": 300,
      "v": 72
    },
    {
      "midi": 60,
      "hit": false,
      "t": 81600,
      "d": 600,
      "v": 84
    },
    {
      "midi": 67,
      "hit": false,
      "t": 81600,
      "d": 600,
      "v": 86
    },
    {
      "midi": 40,
      "hit": false,
      "t": 81600,
      "d": 1200,
      "v": 63
    },
    {
      "midi": 66,
      "hit": false,
      "t": 82200,
      "d": 600,
      "v": 71
    },
    {
      "midi": 60,
      "hit": false,
      "t": 82800,
      "d": 900,
      "v": 77
    },
    {
      "midi": 64,
      "hit": false,
      "t": 82800,
      "d": 900,
      "v": 75
    },
    {
      "midi": 52,
      "hit": false,
      "t": 82800,
      "d": 600,
      "v": 82
    },
    {
      "midi": 48,
      "hit": false,
      "t": 83400,
      "d": 600,
      "v": 76
    },
    {
      "midi": 62,
      "hit": false,
      "t": 83700,
      "d": 300,
      "v": 76
    },
    {
      "midi": 59,
      "hit": false,
      "t": 84000,
      "d": 1200,
      "v": 73
    },
    {
      "midi": 62,
      "hit": false,
      "t": 84000,
      "d": 1200,
      "v": 78
    },
    {
      "midi": 38,
      "hit": false,
      "t": 84000,
      "d": 1200,
      "v": 66
    },
    {
      "midi": 59,
      "hit": false,
      "t": 85200,
      "d": 900,
      "v": 78
    },
    {
      "midi": 50,
      "hit": false,
      "t": 85200,
      "d": 600,
      "v": 84
    },
    {
      "midi": 47,
      "hit": false,
      "t": 85800,
      "d": 600,
      "v": 73
    },
    {
      "midi": 62,
      "hit": false,
      "t": 86100,
      "d": 300,
      "v": 64
    },
    {
      "midi": 57,
      "hit": false,
      "t": 86400,
      "d": 600,
      "v": 75
    },
    {
      "midi": 64,
      "hit": false,
      "t": 86400,
      "d": 600,
      "v": 81
    },
    {
      "midi": 37,
      "hit": false,
      "t": 86400,
      "d": 900,
      "v": 67
    },
    {
      "midi": 69,
      "hit": false,
      "t": 87000,
      "d": 600,
      "v": 92
    },
    {
      "midi": 45,
      "hit": false,
      "t": 87300,
      "d": 300,
      "v": 82
    },
    {
      "midi": 57,
      "hit": false,
      "t": 87600,
      "d": 600,
      "v": 80
    },
    {
      "midi": 69,
      "hit": false,
      "t": 87600,
      "d": 600,
      "v": 76
    },
    {
      "midi": 49,
      "hit": false,
      "t": 87600,
      "d": 1200,
      "v": 82
    },
    {
      "midi": 64,
      "hit": false,
      "t": 88200,
      "d": 600,
      "v": 67
    },
    {
      "midi": 62,
      "hit": false,
      "t": 88800,
      "d": 1200,
      "v": 87
    },
    {
      "midi": 67,
      "hit": false,
      "t": 88800,
      "d": 1200,
      "v": 84
    },
    {
      "midi": 35,
      "hit": false,
      "t": 88800,
      "d": 900,
      "v": 68
    },
    {
      "midi": 47,
      "hit": false,
      "t": 89700,
      "d": 300,
      "v": 84
    },
    {
      "midi": 62,
      "hit": false,
      "t": 90000,
      "d": 900,
      "v": 66
    },
    {
      "midi": 43,
      "hit": false,
      "t": 90000,
      "d": 600,
      "v": 74
    },
    {
      "midi": 44,
      "hit": false,
      "t": 90600,
      "d": 600,
      "v": 77
    },
    {
      "midi": 62,
      "hit": false,
      "t": 90900,
      "d": 300,
      "v": 75
    },
    {
      "midi": 64,
      "hit": false,
      "t": 91200,
      "d": 600,
      "v": 93
    },
    {
      "midi": 67,
      "hit": false,
      "t": 91200,
      "d": 600,
      "v": 93
    },
    {
      "midi": 72,
      "hit": false,
      "t": 91200,
      "d": 600,
      "v": 93
    },
    {
      "midi": 45,
      "hit": false,
      "t": 91200,
      "d": 600,
      "v": 79
    },
    {
      "midi": 62,
      "hit": false,
      "t": 91800,
      "d": 600,
      "v": 78
    },
    {
      "midi": 67,
      "hit": false,
      "t": 91800,
      "d": 600,
      "v": 78
    },
    {
      "midi": 71,
      "hit": false,
      "t": 91800,
      "d": 600,
      "v": 78
    },
    {
      "midi": 47,
      "hit": false,
      "t": 91800,
      "d": 600,
      "v": 81
    },
    {
      "midi": 60,
      "hit": false,
      "t": 92400,
      "d": 600,
      "v": 76
    },
    {
      "midi": 64,
      "hit": false,
      "t": 92400,
      "d": 600,
      "v": 76
    },
    {
      "midi": 69,
      "hit": false,
      "t": 92400,
      "d": 600,
      "v": 76
    },
    {
      "midi": 48,
      "hit": false,
      "t": 92400,
      "d": 600,
      "v": 79
    },
    {
      "midi": 60,
      "hit": false,
      "t": 93000,
      "d": 600,
      "v": 68
    },
    {
      "midi": 64,
      "hit": false,
      "t": 93000,
      "d": 600,
      "v": 68
    },
    {
      "midi": 67,
      "hit": false,
      "t": 93000,
      "d": 600,
      "v": 68
    },
    {
      "midi": 38,
      "hit": false,
      "t": 93000,
      "d": 600,
      "v": 69
    },
    {
      "midi": 59,
      "hit": false,
      "t": 93600,
      "d": 1200,
      "v": 74
    },
    {
      "midi": 62,
      "hit": false,
      "t": 93600,
      "d": 1200,
      "v": 74
    },
    {
      "midi": 67,
      "hit": false,
      "t": 93600,
      "d": 1200,
      "v": 74
    },
    {
      "midi": 43,
      "hit": false,
      "t": 93600,
      "d": 1200,
      "v": 81
    },
    {
      "midi": 57,
      "hit": false,
      "t": 94800,
      "d": 600,
      "v": 75
    },
    {
      "midi": 64,
      "hit": false,
      "t": 94800,
      "d": 600,
      "v": 75
    },
    {
      "midi": 41,
      "hit": false,
      "t": 94800,
      "d": 600,
      "v": 72
    },
    {
      "midi": 56,
      "hit": false,
      "t": 95400,
      "d": 600,
      "v": 69
    },
    {
      "midi": 62,
      "hit": false,
      "t": 95400,
      "d": 600,
      "v": 69
    },
    {
      "midi": 40,
      "hit": false,
      "t": 95400,
      "d": 600,
      "v": 74
    },
    {
      "midi": 59,
      "hit": false,
      "t": 96000,
      "d": 1200,
      "v": 85
    },
    {
      "midi": 62,
      "hit": false,
      "t": 96000,
      "d": 1200,
      "v": 85
    },
    {
      "midi": 67,
      "hit": false,
      "t": 96000,
      "d": 1200,
      "v": 85
    },
    {
      "midi": 43,
      "hit": false,
      "t": 96000,
      "d": 900,
      "v": 79
    },
    {
      "midi": 50,
      "hit": false,
      "t": 96900,
      "d": 300,
      "v": 85
    },
    {
      "midi": 59,
      "hit": false,
      "t": 97200,
      "d": 1200,
      "v": 74
    },
    {
      "midi": 62,
      "hit": false,
      "t": 97200,
      "d": 1200,
      "v": 74
    },
    {
      "midi": 67,
      "hit": false,
      "t": 97200,
      "d": 1200,
      "v": 74
    },
    {
      "midi": 55,
      "hit": false,
      "t": 97200,
      "d": 600,
      "v": 84
    },
    {
      "midi": 43,
      "hit": false,
      "t": 97800,
      "d": 600,
      "v": 64
    },
    {
      "midi": 60,
      "hit": false,
      "t": 98400,
      "d": 1200,
      "v": 76
    },
    {
      "midi": 64,
      "hit": false,
      "t": 98400,
      "d": 1200,
      "v": 76
    },
    {
      "midi": 67,
      "hit": false,
      "t": 98400,
      "d": 1200,
      "v": 76
    },
    {
      "midi": 43,
      "hit": false,
      "t": 98400,
      "d": 900,
      "v": 74
    },
    {
      "midi": 50,
      "hit": false,
      "t": 99300,
      "d": 300,
      "v": 83
    },
    {
      "midi": 57,
      "hit": false,
      "t": 99600,
      "d": 1200,
      "v": 72
    },
    {
      "midi": 60,
      "hit": false,
      "t": 99600,
      "d": 1200,
      "v": 72
    },
    {
      "midi": 67,
      "hit": false,
      "t": 99600,
      "d": 1200,
      "v": 72
    },
    {
      "midi": 55,
      "hit": false,
      "t": 99600,
      "d": 600,
      "v": 83
    },
    {
      "midi": 43,
      "hit": false,
      "t": 100200,
      "d": 600,
      "v": 64
    },
    {
      "midi": 59,
      "hit": false,
      "t": 100800,
      "d": 1800,
      "v": 76
    },
    {
      "midi": 62,
      "hit": false,
      "t": 100800,
      "d": 1800,
      "v": 76
    },
    {
      "midi": 67,
      "hit": false,
      "t": 100800,
      "d": 1800,
      "v": 76
    },
    {
      "midi": 43,
      "hit": false,
      "t": 100800,
      "d": 1800,
      "v": 78
    }
  ]
}