{
  "jsonPath": "Rock/Album Rock/Bruce Hornsby/country-doctor.json",
  "path": "Rock\\Album Rock\\Bruce Hornsby\\Country Doctor.mid",
  "name": "Country Doctor",
  "difficulty": "Intermediate",
  "bpm": 240,
  "notes": [
    {
      "midi": 57,
      "hit": false,
      "t": 12812.5,
      "d": 416.66666666666606,
      "v": 100
    },
    {
      "midi": 62,
      "hit": false,
      "t": 12812.5,
      "d": 416.66666666666606,
      "v": 100
    },
    {
      "midi": 66,
      "hit": false,
      "t": 12812.5,
      "d": 416.66666666666606,
      "v": 100
    },
    {
      "midi": 54,
      "hit": false,
      "t": 13750,
      "d": 416.66666666666606,
      "v": 100
    },
    {
      "midi": 59,
      "hit": false,
      "t": 13750,
      "d": 416.66666666666606,
      "v": 100
    },
    {
      "midi": 64,
      "hit": false,
      "t": 13750,
      "d": 416.66666666666606,
      "v": 100
    },
    {
      "midi": 54,
      "hit": false,
      "t": 14375,
      "d": 208.33333333333394,
      "v": 100
    },
    {
      "midi": 59,
      "hit": false,
      "t": 14375,
      "d": 208.33333333333394,
      "v": 100
    },
    {
      "midi": 64,
      "hit": false,
      "t": 14375,
      "d": 208.33333333333394,
      "v": 100
    },
    {
      "midi": 50,
      "hit": false,
      "t": 14687.5,
      "d": 416.66666666666606,
      "v": 100
    },
    {
      "midi": 57,
      "hit": false,
      "t": 14687.5,
      "d": 416.66666666666606,
      "v": 100
    },
    {
      "midi": 64,
      "hit": false,
      "t": 14687.5,
      "d": 416.66666666666606,
      "v": 100
    },
    {
      "midi": 52,
      "hit": false,
      "t": 15312.5,
      "d": 208.33333333333394,
      "v": 100
    },
    {
      "midi": 59,
      "hit": false,
      "t": 15312.5,
      "d": 208.33333333333394,
      "v": 100
    },
    {
      "midi": 64,
      "hit": false,
      "t": 15312.5,
      "d": 208.33333333333394,
      "v": 100
    },
    {
      "midi": 52,
      "hit": false,
      "t": 15625,
      "d": 416.66666666666606,
      "v": 100
    },
    {
      "midi": 57,
      "hit": false,
      "t": 15625,
      "d": 416.66666666666606,
      "v": 100
    },
    {
      "midi": 62,
      "hit": false,
      "t": 15625,
      "d": 416.66666666666606,
      "v": 100
    },
    {
      "midi": 52,
      "hit": false,
      "t": 16250,
      "d": 104.16666666666606,
      "v": 100
    },
    {
      "midi": 54,
      "hit": false,
      "t": 16406.25,
      "d": 104.16666666666788,
      "v": 100
    },
    {
      "midi": 57,
      "hit": false,
      "t": 16562.5,
      "d": 104.16666666666788,
      "v": 100
    },
    {
      "midi": 61,
      "hit": false,
      "t": 16718.75,
      "d": 104.16666666666788,
      "v": 100
    },
    {
      "midi": 59,
      "hit": false,
      "t": 16875,
      "d": 104.16666666666788,
      "v": 100
    },
    {
      "midi": 56,
      "hit": false,
      "t": 17031.25,
      "d": 104.16666666666788,
      "v": 100
    },
    {
      "midi": 52,
      "hit": false,
      "t": 17187.5,
      "d": 104.16666666666788,
      "v": 100
    },
    {
      "midi": 57,
      "hit": false,
      "t": 17343.75,
      "d": 104.16666666666788,
      "v": 100
    },
    {
      "midi": 62,
      "hit": false,
      "t": 17343.75,
      "d": 104.16666666666788,
      "v": 100
    },
    {
      "midi": 66,
      "hit": false,
      "t": 17343.75,
      "d": 104.16666666666788,
      "v": 100
    },
    {
      "midi": 66,
      "hit": false,
      "t": 17812.5,
      "d": 416.6666666666679,
      "v": 100
    },
    {
      "midi": 69,
      "hit": false,
      "t": 17812.5,
      "d": 416.6666666666679,
      "v": 100
    },
    {
      "midi": 74,
      "hit": false,
      "t": 17812.5,
      "d": 416.6666666666679,
      "v": 100
    },
    {
      "midi": 64,
      "hit": false,
      "t": 18750,
      "d": 416.6666666666679,
      "v": 100
    },
    {
      "midi": 69,
      "hit": false,
      "t": 18750,
      "d": 416.6666666666679,
      "v": 100
    },
    {
      "midi": 73,
      "hit": false,
      "t": 18750,
      "d": 416.6666666666679,
      "v": 100
    },
    {
      "midi": 57,
      "hit": false,
      "t": 19375,
      "d": 208.33333333333212,
      "v": 100
    },
    {
      "midi": 62,
      "hit": false,
      "t": 19375,
      "d": 208.33333333333212,
      "v": 100
    },
    {
      "midi": 66,
      "hit": false,
      "t": 19375,
      "d": 208.33333333333212,
      "v": 100
    },
    {
      "midi": 57,
      "hit": false,
      "t": 19687.5,
      "d": 416.6666666666679,
      "v": 100
    },
    {
      "midi": 61,
      "hit": false,
      "t": 19687.5,
      "d": 416.6666666666679,
      "v": 100
    },
    {
      "midi": 64,
      "hit": false,
      "t": 19687.5,
      "d": 416.6666666666679,
      "v": 100
    },
    {
      "midi": 52,
      "hit": false,
      "t": 20468.75,
      "d": 208.33333333333212,
      "v": 100
    },
    {
      "midi": 52,
      "hit": false,
      "t": 20781.25,
      "d": 208.33333333333212,
      "v": 100
    },
    {
      "midi": 52,
      "hit": false,
      "t": 21093.75,
      "d": 312.5,
      "v": 100
    },
    {
      "midi": 57,
      "hit": false,
      "t": 21093.75,
      "d": 312.5,
      "v": 100
    },
    {
      "midi": 52,
      "hit": false,
      "t": 21562.5,
      "d": 208.33333333333212,
      "v": 100
    },
    {
      "midi": 57,
      "hit": false,
      "t": 21562.5,
      "d": 208.33333333333212,
      "v": 100
    },
    {
      "midi": 54,
      "hit": false,
      "t": 21875,
      "d": 416.6666666666679,
      "v": 100
    },
    {
      "midi": 59,
      "hit": false,
      "t": 21875,
      "d": 416.6666666666679,
      "v": 100
    },
    {
      "midi": 57,
      "hit": false,
      "t": 22812.5,
      "d": 416.6666666666679,
      "v": 100
    },
    {
      "midi": 62,
      "hit": false,
      "t": 22812.5,
      "d": 416.6666666666679,
      "v": 100
    },
    {
      "midi": 66,
      "hit": false,
      "t": 22812.5,
      "d": 416.6666666666679,
      "v": 100
    },
    {
      "midi": 54,
      "hit": false,
      "t": 23750,
      "d": 416.6666666666679,
      "v": 100
    },
    {
      "midi": 59,
      "hit": false,
      "t": 23750,
      "d": 416.6666666666679,
      "v": 100
    },
    {
      "midi": 64,
      "hit": false,
      "t": 23750,
      "d": 416.6666666666679,
      "v": 100
    },
    {
      "midi": 54,
      "hit": false,
      "t": 24375,
      "d": 208.33333333333212,
      "v": 100
    },
    {
      "midi": 59,
      "hit": false,
      "t": 24375,
      "d": 208.33333333333212,
      "v": 100
    },
    {
      "midi": 64,
      "hit": false,
      "t": 24375,
      "d": 208.33333333333212,
      "v": 100
    },
    {
      "midi": 50,
      "hit": false,
      "t": 24687.5,
      "d": 416.6666666666679,
      "v": 100
    },
    {
      "midi": 57,
      "hit": false,
      "t": 24687.5,
      "d": 416.6666666666679,
      "v": 100
    },
    {
      "midi": 64,
      "hit": false,
      "t": 24687.5,
      "d": 416.6666666666679,
      "v": 100
    },
    {
      "midi": 52,
      "hit": false,
      "t": 25312.5,
      "d": 208.33333333333212,
      "v": 100
    },
    {
      "midi": 59,
      "hit": false,
      "t": 25312.5,
      "d": 208.33333333333212,
      "v": 100
    },
    {
      "midi": 64,
      "hit": false,
      "t": 25312.5,
      "d": 208.33333333333212,
      "v": 100
    },
    {
      "midi": 52,
      "hit": false,
      "t": 25625,
      "d": 416.6666666666679,
      "v": 100
    },
    {
      "midi": 57,
      "hit": false,
      "t": 25625,
      "d": 416.6666666666679,
      "v": 100
    },
    {
      "midi": 62,
      "hit": false,
      "t": 25625,
      "d": 416.6666666666679,
      "v": 100
    },
    {
      "midi": 52,
      "hit": false,
      "t": 26250,
      "d": 104.16666666666788,
      "v": 100
    },
    {
      "midi": 54,
      "hit": false,
      "t": 26406.25,
      "d": 104.16666666666788,
      "v": 100
    },
    {
      "midi": 57,
      "hit": false,
      "t": 26562.5,
      "d": 104.16666666666788,
      "v": 100
    },
    {
      "midi": 61,
      "hit": false,
      "t": 26718.75,
      "d": 104.16666666666788,
      "v": 100
    },
    {
      "midi": 59,
      "hit": false,
      "t": 26875,
      "d": 104.16666666666788,
      "v": 100
    },
    {
      "midi": 56,
      "hit": false,
      "t": 27031.25,
      "d": 104.16666666666788,
      "v": 100
    },
    {
      "midi": 52,
      "hit": false,
      "t": 27187.5,
      "d": 104.16666666666788,
      "v": 100
    },
    {
      "midi": 57,
      "hit": false,
      "t": 27343.75,
      "d": 104.16666666666788,
      "v": 100
    },
    {
      "midi": 62,
      "hit": false,
      "t": 27343.75,
      "d": 104.16666666666788,
      "v": 100
    },
    {
      "midi": 66,
      "hit": false,
      "t": 27343.75,
      "d": 104.16666666666788,
      "v": 100
    },
    {
      "midi": 66,
      "hit": false,
      "t": 27812.5,
      "d": 416.6666666666679,
      "v": 100
    },
    {
      "midi": 69,
      "hit": false,
      "t": 27812.5,
      "d": 416.6666666666679,
      "v": 100
    },
    {
      "midi": 74,
      "hit": false,
      "t": 27812.5,
      "d": 416.6666666666679,
      "v": 100
    },
    {
      "midi": 64,
      "hit": false,
      "t": 28750,
      "d": 416.6666666666679,
      "v": 100
    },
    {
      "midi": 69,
      "hit": false,
      "t": 28750,
      "d": 416.6666666666679,
      "v": 100
    },
    {
      "midi": 73,
      "hit": false,
      "t": 28750,
      "d": 416.6666666666679,
      "v": 100
    },
    {
      "midi": 57,
      "hit": false,
      "t": 29375,
      "d": 208.33333333333212,
      "v": 100
    },
    {
      "midi": 62,
      "hit": false,
      "t": 29375,
      "d": 208.33333333333212,
      "v": 100
    },
    {
      "midi": 66,
      "hit": false,
      "t": 29375,
      "d": 208.33333333333212,
      "v": 100
    },
    {
      "midi": 57,
      "hit": false,
      "t": 29687.5,
      "d": 416.6666666666679,
      "v": 100
    },
    {
      "midi": 61,
      "hit": false,
      "t": 29687.5,
      "d": 416.6666666666679,
      "v": 100
    },
    {
      "midi": 64,
      "hit": false,
      "t": 29687.5,
      "d": 416.6666666666679,
      "v": 100
    },
    {
      "midi": 57,
      "hit": false,
      "t": 30312.5,
      "d": 208.33333333333212,
      "v": 100
    },
    {
      "midi": 62,
      "hit": false,
      "t": 30312.5,
      "d": 208.33333333333212,
      "v": 100
    },
    {
      "midi": 66,
      "hit": false,
      "t": 30312.5,
      "d": 208.33333333333212,
      "v": 100
    },
    {
      "midi": 57,
      "hit": false,
      "t": 30625,
      "d": 416.6666666666679,
      "v": 100
    },
    {
      "midi": 61,
      "hit": false,
      "t": 30625,
      "d": 416.6666666666679,
      "v": 100
    },
    {
      "midi": 64,
      "hit": false,
      "t": 30625,
      "d": 416.6666666666679,
      "v": 100
    },
    {
      "midi": 62,
      "hit": false,
      "t": 31250,
      "d": 104.16666666666788,
      "v": 100
    },
    {
      "midi": 61,
      "hit": false,
      "t": 31406.25,
      "d": 104.16666666666788,
      "v": 100
    },
    {
      "midi": 59,
      "hit": false,
      "t": 31562.5,
      "d": 104.16666666666788,
      "v": 100
    },
    {
      "midi": 61,
      "hit": false,
      "t": 31718.75,
      "d": 104.16666666666788,
      "v": 100
    },
    {
      "midi": 59,
      "hit": false,
      "t": 31875,
      "d": 104.16666666666788,
      "v": 100
    },
    {
      "midi": 57,
      "hit": false,
      "t": 32031.25,
      "d": 104.16666666666788,
      "v": 100
    },
    {
      "midi": 56,
      "hit": false,
      "t": 32187.5,
      "d": 104.16666666666788,
      "v": 100
    },
    {
      "midi": 54,
      "hit": false,
      "t": 32343.75,
      "d": 104.16666666666788,
      "v": 100
    },
    {
      "midi": 57,
      "hit": false,
      "t": 37812.5,
      "d": 416.66666666666424,
      "v": 100
    },
    {
      "midi": 62,
      "hit": false,
      "t": 37812.5,
      "d": 416.66666666666424,
      "v": 100
    },
    {
      "midi": 66,
      "hit": false,
      "t": 37812.5,
      "d": 416.66666666666424,
      "v": 100
    },
    {
      "midi": 54,
      "hit": false,
      "t": 38750,
      "d": 416.66666666666424,
      "v": 100
    },
    {
      "midi": 59,
      "hit": false,
      "t": 38750,
      "d": 416.66666666666424,
      "v": 100
    },
    {
      "midi": 64,
      "hit": false,
      "t": 38750,
      "d": 416.66666666666424,
      "v": 100
    },
    {
      "midi": 54,
      "hit": false,
      "t": 39375,
      "d": 208.33333333333576,
      "v": 100
    },
    {
      "midi": 59,
      "hit": false,
      "t": 39375,
      "d": 208.33333333333576,
      "v": 100
    },
    {
      "midi": 64,
      "hit": false,
      "t": 39375,
      "d": 208.33333333333576,
      "v": 100
    },
    {
      "midi": 50,
      "hit": false,
      "t": 39687.5,
      "d": 416.66666666666424,
      "v": 100
    },
    {
      "midi": 57,
      "hit": false,
      "t": 39687.5,
      "d": 416.66666666666424,
      "v": 100
    },
    {
      "midi": 64,
      "hit": false,
      "t": 39687.5,
      "d": 416.66666666666424,
      "v": 100
    },
    {
      "midi": 52,
      "hit": false,
      "t": 40312.5,
      "d": 208.33333333333576,
      "v": 100
    },
    {
      "midi": 59,
      "hit": false,
      "t": 40312.5,
      "d": 208.33333333333576,
      "v": 100
    },
    {
      "midi": 64,
      "hit": false,
      "t": 40312.5,
      "d": 208.33333333333576,
      "v": 100
    },
    {
      "midi": 52,
      "hit": false,
      "t": 40625,
      "d": 416.66666666666424,
      "v": 100
    },
    {
      "midi": 57,
      "hit": false,
      "t": 40625,
      "d": 416.66666666666424,
      "v": 100
    },
    {
      "midi": 62,
      "hit": false,
      "t": 40625,
      "d": 416.66666666666424,
      "v": 100
    },
    {
      "midi": 62,
      "hit": false,
      "t": 41250,
      "d": 104.16666666666424,
      "v": 100
    },
    {
      "midi": 64,
      "hit": false,
      "t": 41406.25,
      "d": 104.16666666666424,
      "v": 100
    },
    {
      "midi": 66,
      "hit": false,
      "t": 41562.5,
      "d": 104.16666666666424,
      "v": 100
    },
    {
      "midi": 62,
      "hit": false,
      "t": 41718.75,
      "d": 104.16666666666424,
      "v": 100
    },
    {
      "midi": 64,
      "hit": false,
      "t": 41875,
      "d": 104.16666666666424,
      "v": 100
    },
    {
      "midi": 61,
      "hit": false,
      "t": 42031.25,
      "d": 104.16666666666424,
      "v": 100
    },
    {
      "midi": 57,
      "hit": false,
      "t": 42187.5,
      "d": 104.16666666666424,
      "v": 100
    },
    {
      "midi": 54,
      "hit": false,
      "t": 42343.75,
      "d": 104.16666666666424,
      "v": 100
    },
    {
      "midi": 57,
      "hit": false,
      "t": 47812.5,
      "d": 416.66666666666424,
      "v": 100
    },
    {
      "midi": 62,
      "hit": false,
      "t": 47812.5,
      "d": 416.66666666666424,
      "v": 100
    },
    {
      "midi": 66,
      "hit": false,
      "t": 47812.5,
      "d": 416.66666666666424,
      "v": 100
    },
    {
      "midi": 54,
      "hit": false,
      "t": 48750,
      "d": 416.66666666666424,
      "v": 100
    },
    {
      "midi": 59,
      "hit": false,
      "t": 48750,
      "d": 416.66666666666424,
      "v": 100
    },
    {
      "midi": 64,
      "hit": false,
      "t": 48750,
      "d": 416.66666666666424,
      "v": 100
    },
    {
      "midi": 50,
      "hit": false,
      "t": 49375,
      "d": 104.16666666666424,
      "v": 100
    },
    {
      "midi": 57,
      "hit": false,
      "t": 49375,
      "d": 104.16666666666424,
      "v": 100
    },
    {
      "midi": 64,
      "hit": false,
      "t": 49375,
      "d": 104.16666666666424,
      "v": 100
    },
    {
      "midi": 54,
      "hit": false,
      "t": 49531.25,
      "d": 312.5,
      "v": 100
    },
    {
      "midi": 59,
      "hit": false,
      "t": 49531.25,
      "d": 312.5,
      "v": 100
    },
    {
      "midi": 52,
      "hit": false,
      "t": 50000,
      "d": 208.33333333333576,
      "v": 100
    },
    {
      "midi": 59,
      "hit": false,
      "t": 50000,
      "d": 208.33333333333576,
      "v": 100
    },
    {
      "midi": 64,
      "hit": false,
      "t": 50000,
      "d": 208.33333333333576,
      "v": 100
    },
    {
      "midi": 50,
      "hit": false,
      "t": 50312.5,
      "d": 104.16666666666424,
      "v": 100
    },
    {
      "midi": 57,
      "hit": false,
      "t": 50312.5,
      "d": 104.16666666666424,
      "v": 100
    },
    {
      "midi": 52,
      "hit": false,
      "t": 50468.75,
      "d": 312.5,
      "v": 100
    },
    {
      "midi": 59,
      "hit": false,
      "t": 50468.75,
      "d": 312.5,
      "v": 100
    },
    {
      "midi": 64,
      "hit": false,
      "t": 50468.75,
      "d": 312.5,
      "v": 100
    },
    {
      "midi": 52,
      "hit": false,
      "t": 50937.5,
      "d": 208.33333333333576,
      "v": 100
    },
    {
      "midi": 59,
      "hit": false,
      "t": 50937.5,
      "d": 208.33333333333576,
      "v": 100
    },
    {
      "midi": 64,
      "hit": false,
      "t": 50937.5,
      "d": 208.33333333333576,
      "v": 100
    },
    {
      "midi": 54,
      "hit": false,
      "t": 51250,
      "d": 104.16666666666424,
      "v": 100
    },
    {
      "midi": 61,
      "hit": false,
      "t": 51250,
      "d": 104.16666666666424,
      "v": 100
    },
    {
      "midi": 52,
      "hit": false,
      "t": 51406.25,
      "d": 312.5,
      "v": 100
    },
    {
      "midi": 59,
      "hit": false,
      "t": 51406.25,
      "d": 312.5,
      "v": 100
    },
    {
      "midi": 64,
      "hit": false,
      "t": 51406.25,
      "d": 312.5,
      "v": 100
    },
    {
      "midi": 52,
      "hit": false,
      "t": 51875,
      "d": 208.33333333333576,
      "v": 100
    },
    {
      "midi": 59,
      "hit": false,
      "t": 51875,
      "d": 208.33333333333576,
      "v": 100
    },
    {
      "midi": 64,
      "hit": false,
      "t": 51875,
      "d": 208.33333333333576,
      "v": 100
    },
    {
      "midi": 52,
      "hit": false,
      "t": 52187.5,
      "d": 208.33333333333576,
      "v": 100
    },
    {
      "midi": 59,
      "hit": false,
      "t": 52187.5,
      "d": 208.33333333333576,
      "v": 100
    },
    {
      "midi": 64,
      "hit": false,
      "t": 52187.5,
      "d": 208.33333333333576,
      "v": 100
    },
    {
      "midi": 64,
      "hit": false,
      "t": 52500,
      "d": 416.66666666666424,
      "v": 100
    },
    {
      "midi": 69,
      "hit": false,
      "t": 52500,
      "d": 416.66666666666424,
      "v": 100
    },
    {
      "midi": 73,
      "hit": false,
      "t": 52500,
      "d": 416.66666666666424,
      "v": 100
    },
    {
      "midi": 62,
      "hit": false,
      "t": 53125,
      "d": 416.66666666666424,
      "v": 100
    },
    {
      "midi": 66,
      "hit": false,
      "t": 53125,
      "d": 416.66666666666424,
      "v": 100
    },
    {
      "midi": 69,
      "hit": false,
      "t": 53125,
      "d": 416.66666666666424,
      "v": 100
    },
    {
      "midi": 64,
      "hit": false,
      "t": 53750,
      "d": 833.3333333333358,
      "v": 100
    },
    {
      "midi": 69,
      "hit": false,
      "t": 53750,
      "d": 833.3333333333358,
      "v": 100
    },
    {
      "midi": 73,
      "hit": false,
      "t": 53750,
      "d": 833.3333333333358,
      "v": 100
    },
    {
      "midi": 62,
      "hit": false,
      "t": 55000,
      "d": 416.66666666666424,
      "v": 100
    },
    {
      "midi": 66,
      "hit": false,
      "t": 55000,
      "d": 416.66666666666424,
      "v": 100
    },
    {
      "midi": 71,
      "hit": false,
      "t": 55000,
      "d": 416.66666666666424,
      "v": 100
    },
    {
      "midi": 64,
      "hit": false,
      "t": 55625,
      "d": 416.66666666666424,
      "v": 100
    },
    {
      "midi": 69,
      "hit": false,
      "t": 55625,
      "d": 416.66666666666424,
      "v": 100
    },
    {
      "midi": 73,
      "hit": false,
      "t": 55625,
      "d": 416.66666666666424,
      "v": 100
    },
    {
      "midi": 64,
      "hit": false,
      "t": 56250,
      "d": 833.3333333333358,
      "v": 100
    },
    {
      "midi": 68,
      "hit": false,
      "t": 56250,
      "d": 833.3333333333358,
      "v": 100
    },
    {
      "midi": 71,
      "hit": false,
      "t": 56250,
      "d": 833.3333333333358,
      "v": 100
    },
    {
      "midi": 64,
      "hit": false,
      "t": 57500,
      "d": 416.66666666666424,
      "v": 100
    },
    {
      "midi": 69,
      "hit": false,
      "t": 57500,
      "d": 416.66666666666424,
      "v": 100
    },
    {
      "midi": 73,
      "hit": false,
      "t": 57500,
      "d": 416.66666666666424,
      "v": 100
    },
    {
      "midi": 62,
      "hit": false,
      "t": 58125,
      "d": 416.66666666666424,
      "v": 100
    },
    {
      "midi": 66,
      "hit": false,
      "t": 58125,
      "d": 416.66666666666424,
      "v": 100
    },
    {
      "midi": 69,
      "hit": false,
      "t": 58125,
      "d": 416.66666666666424,
      "v": 100
    },
    {
      "midi": 64,
      "hit": false,
      "t": 58750,
      "d": 833.3333333333358,
      "v": 100
    },
    {
      "midi": 69,
      "hit": false,
      "t": 58750,
      "d": 833.3333333333358,
      "v": 100
    },
    {
      "midi": 73,
      "hit": false,
      "t": 58750,
      "d": 833.3333333333358,
      "v": 100
    },
    {
      "midi": 62,
      "hit": false,
      "t": 60000,
      "d": 416.66666666666424,
      "v": 100
    },
    {
      "midi": 66,
      "hit": false,
      "t": 60000,
      "d": 416.66666666666424,
      "v": 100
    },
    {
      "midi": 71,
      "hit": false,
      "t": 60000,
      "d": 416.66666666666424,
      "v": 100
    },
    {
      "midi": 64,
      "hit": false,
      "t": 60625,
      "d": 416.66666666666424,
      "v": 100
    },
    {
      "midi": 69,
      "hit": false,
      "t": 60625,
      "d": 416.66666666666424,
      "v": 100
    },
    {
      "midi": 73,
      "hit": false,
      "t": 60625,
      "d": 416.66666666666424,
      "v": 100
    },
    {
      "midi": 64,
      "hit": false,
      "t": 61250,
      "d": 833.3333333333358,
      "v": 100
    },
    {
      "midi": 68,
      "hit": false,
      "t": 61250,
      "d": 833.3333333333358,
      "v": 100
    },
    {
      "midi": 71,
      "hit": false,
      "t": 61250,
      "d": 833.3333333333358,
      "v": 100
    },
    {
      "midi": 52,
      "hit": false,
      "t": 62812.5,
      "d": 208.33333333333576,
      "v": 85
    },
    {
      "midi": 57,
      "hit": false,
      "t": 62812.5,
      "d": 208.33333333333576,
      "v": 85
    },
    {
      "midi": 61,
      "hit": false,
      "t": 62812.5,
      "d": 208.33333333333576,
      "v": 85
    },
    {
      "midi": 54,
      "hit": false,
      "t": 63125,
      "d": 416.66666666666424,
      "v": 85
    },
    {
      "midi": 59,
      "hit": false,
      "t": 63125,
      "d": 416.66666666666424,
      "v": 85
    },
    {
      "midi": 62,
      "hit": false,
      "t": 63125,
      "d": 416.66666666666424,
      "v": 85
    },
    {
      "midi": 52,
      "hit": false,
      "t": 63750,
      "d": 312.5,
      "v": 85
    },
    {
      "midi": 57,
      "hit": false,
      "t": 63750,
      "d": 312.5,
      "v": 85
    },
    {
      "midi": 61,
      "hit": false,
      "t": 63750,
      "d": 312.5,
      "v": 85
    },
    {
      "midi": 54,
      "hit": false,
      "t": 64218.75,
      "d": 416.66666666666424,
      "v": 85
    },
    {
      "midi": 59,
      "hit": false,
      "t": 64218.75,
      "d": 416.66666666666424,
      "v": 85
    },
    {
      "midi": 62,
      "hit": false,
      "t": 64218.75,
      "d": 416.66666666666424,
      "v": 85
    },
    {
      "midi": 52,
      "hit": false,
      "t": 65000,
      "d": 312.5,
      "v": 85
    },
    {
      "midi": 57,
      "hit": false,
      "t": 65000,
      "d": 312.5,
      "v": 85
    },
    {
      "midi": 61,
      "hit": false,
      "t": 65000,
      "d": 312.5,
      "v": 85
    },
    {
      "midi": 54,
      "hit": false,
      "t": 65468.75,
      "d": 416.6666666666715,
      "v": 85
    },
    {
      "midi": 59,
      "hit": false,
      "t": 65468.75,
      "d": 416.6666666666715,
      "v": 85
    },
    {
      "midi": 62,
      "hit": false,
      "t": 65468.75,
      "d": 416.6666666666715,
      "v": 85
    },
    {
      "midi": 54,
      "hit": false,
      "t": 66250,
      "d": 416.6666666666715,
      "v": 85
    },
    {
      "midi": 57,
      "hit": false,
      "t": 66250,
      "d": 416.6666666666715,
      "v": 85
    },
    {
      "midi": 62,
      "hit": false,
      "t": 66250,
      "d": 416.6666666666715,
      "v": 85
    },
    {
      "midi": 56,
      "hit": false,
      "t": 66875,
      "d": 416.6666666666715,
      "v": 85
    },
    {
      "midi": 59,
      "hit": false,
      "t": 66875,
      "d": 416.6666666666715,
      "v": 85
    },
    {
      "midi": 64,
      "hit": false,
      "t": 66875,
      "d": 416.6666666666715,
      "v": 85
    },
    {
      "midi": 54,
      "hit": false,
      "t": 67812.5,
      "d": 625,
      "v": 85
    },
    {
      "midi": 59,
      "hit": false,
      "t": 67812.5,
      "d": 625,
      "v": 85
    },
    {
      "midi": 62,
      "hit": false,
      "t": 67812.5,
      "d": 625,
      "v": 85
    },
    {
      "midi": 52,
      "hit": false,
      "t": 68750,
      "d": 312.5,
      "v": 85
    },
    {
      "midi": 57,
      "hit": false,
      "t": 68750,
      "d": 312.5,
      "v": 85
    },
    {
      "midi": 61,
      "hit": false,
      "t": 68750,
      "d": 312.5,
      "v": 85
    },
    {
      "midi": 54,
      "hit": false,
      "t": 69218.75,
      "d": 416.6666666666715,
      "v": 85
    },
    {
      "midi": 59,
      "hit": false,
      "t": 69218.75,
      "d": 416.6666666666715,
      "v": 85
    },
    {
      "midi": 62,
      "hit": false,
      "t": 69218.75,
      "d": 416.6666666666715,
      "v": 85
    },
    {
      "midi": 52,
      "hit": false,
      "t": 70000,
      "d": 312.5,
      "v": 85
    },
    {
      "midi": 57,
      "hit": false,
      "t": 70000,
      "d": 312.5,
      "v": 85
    },
    {
      "midi": 61,
      "hit": false,
      "t": 70000,
      "d": 312.5,
      "v": 85
    },
    {
      "midi": 54,
      "hit": false,
      "t": 70468.75,
      "d": 416.6666666666715,
      "v": 85
    },
    {
      "midi": 59,
      "hit": false,
      "t": 70468.75,
      "d": 416.6666666666715,
      "v": 85
    },
    {
      "midi": 62,
      "hit": false,
      "t": 70468.75,
      "d": 416.6666666666715,
      "v": 85
    },
    {
      "midi": 54,
      "hit": false,
      "t": 71250,
      "d": 416.6666666666715,
      "v": 85
    },
    {
      "midi": 57,
      "hit": false,
      "t": 71250,
      "d": 416.6666666666715,
      "v": 85
    },
    {
      "midi": 62,
      "hit": false,
      "t": 71250,
      "d": 416.6666666666715,
      "v": 85
    },
    {
      "midi": 56,
      "hit": false,
      "t": 71875,
      "d": 416.6666666666715,
      "v": 85
    },
    {
      "midi": 59,
      "hit": false,
      "t": 71875,
      "d": 416.6666666666715,
      "v": 85
    },
    {
      "midi": 64,
      "hit": false,
      "t": 71875,
      "d": 416.6666666666715,
      "v": 85
    },
    {
      "midi": 54,
      "hit": false,
      "t": 72812.5,
      "d": 416.6666666666715,
      "v": 85
    },
    {
      "midi": 59,
      "hit": false,
      "t": 72812.5,
      "d": 416.6666666666715,
      "v": 85
    },
    {
      "midi": 62,
      "hit": false,
      "t": 72812.5,
      "d": 416.6666666666715,
      "v": 85
    },
    {
      "midi": 52,
      "hit": false,
      "t": 73437.5,
      "d": 208.33333333332848,
      "v": 85
    },
    {
      "midi": 57,
      "hit": false,
      "t": 73437.5,
      "d": 208.33333333332848,
      "v": 85
    },
    {
      "midi": 61,
      "hit": false,
      "t": 73437.5,
      "d": 208.33333333332848,
      "v": 85
    },
    {
      "midi": 52,
      "hit": false,
      "t": 73750,
      "d": 312.5,
      "v": 85
    },
    {
      "midi": 57,
      "hit": false,
      "t": 73750,
      "d": 312.5,
      "v": 85
    },
    {
      "midi": 61,
      "hit": false,
      "t": 73750,
      "d": 312.5,
      "v": 85
    },
    {
      "midi": 54,
      "hit": false,
      "t": 74218.75,
      "d": 416.6666666666715,
      "v": 85
    },
    {
      "midi": 59,
      "hit": false,
      "t": 74218.75,
      "d": 416.6666666666715,
      "v": 85
    },
    {
      "midi": 62,
      "hit": false,
      "t": 74218.75,
      "d": 416.6666666666715,
      "v": 85
    },
    {
      "midi": 52,
      "hit": false,
      "t": 75000,
      "d": 312.5,
      "v": 85
    },
    {
      "midi": 57,
      "hit": false,
      "t": 75000,
      "d": 312.5,
      "v": 85
    },
    {
      "midi": 61,
      "hit": false,
      "t": 75000,
      "d": 312.5,
      "v": 85
    },
    {
      "midi": 54,
      "hit": false,
      "t": 75468.75,
      "d": 416.6666666666715,
      "v": 85
    },
    {
      "midi": 59,
      "hit": false,
      "t": 75468.75,
      "d": 416.6666666666715,
      "v": 85
    },
    {
      "midi": 62,
      "hit": false,
      "t": 75468.75,
      "d": 416.6666666666715,
      "v": 85
    },
    {
      "midi": 54,
      "hit": false,
      "t": 76250,
      "d": 416.6666666666715,
      "v": 85
    },
    {
      "midi": 57,
      "hit": false,
      "t": 76250,
      "d": 416.6666666666715,
      "v": 85
    },
    {
      "midi": 62,
      "hit": false,
      "t": 76250,
      "d": 416.6666666666715,
      "v": 85
    },
    {
      "midi": 56,
      "hit": false,
      "t": 76875,
      "d": 416.6666666666715,
      "v": 85
    },
    {
      "midi": 59,
      "hit": false,
      "t": 76875,
      "d": 416.6666666666715,
      "v": 85
    },
    {
      "midi": 64,
      "hit": false,
      "t": 76875,
      "d": 416.6666666666715,
      "v": 85
    },
    {
      "midi": 54,
      "hit": false,
      "t": 77812.5,
      "d": 625,
      "v": 85
    },
    {
      "midi": 59,
      "hit": false,
      "t": 77812.5,
      "d": 625,
      "v": 85
    },
    {
      "midi": 62,
      "hit": false,
      "t": 77812.5,
      "d": 625,
      "v": 85
    },
    {
      "midi": 52,
      "hit": false,
      "t": 78750,
      "d": 312.5,
      "v": 85
    },
    {
      "midi": 57,
      "hit": false,
      "t": 78750,
      "d": 312.5,
      "v": 85
    },
    {
      "midi": 61,
      "hit": false,
      "t": 78750,
      "d": 312.5,
      "v": 85
    },
    {
      "midi": 54,
      "hit": false,
      "t": 79218.75,
      "d": 416.6666666666715,
      "v": 85
    },
    {
      "midi": 59,
      "hit": false,
      "t": 79218.75,
      "d": 416.6666666666715,
      "v": 85
    },
    {
      "midi": 62,
      "hit": false,
      "t": 79218.75,
      "d": 416.6666666666715,
      "v": 85
    },
    {
      "midi": 57,
      "hit": false,
      "t": 80000,
      "d": 416.6666666666715,
      "v": 100
    },
    {
      "midi": 62,
      "hit": false,
      "t": 80000,
      "d": 416.6666666666715,
      "v": 100
    },
    {
      "midi": 66,
      "hit": false,
      "t": 80000,
      "d": 416.6666666666715,
      "v": 100
    },
    {
      "midi": 61,
      "hit": false,
      "t": 80625,
      "d": 416.6666666666715,
      "v": 100
    },
    {
      "midi": 66,
      "hit": false,
      "t": 80625,
      "d": 416.6666666666715,
      "v": 100
    },
    {
      "midi": 69,
      "hit": false,
      "t": 80625,
      "d": 416.6666666666715,
      "v": 100
    },
    {
      "midi": 59,
      "hit": false,
      "t": 81250,
      "d": 833.3333333333285,
      "v": 100
    },
    {
      "midi": 64,
      "hit": false,
      "t": 81250,
      "d": 833.3333333333285,
      "v": 100
    },
    {
      "midi": 68,
      "hit": false,
      "t": 81250,
      "d": 833.3333333333285,
      "v": 100
    },
    {
      "midi": 62,
      "hit": false,
      "t": 101250,
      "d": 104.16666666667152,
      "v": 100
    },
    {
      "midi": 61,
      "hit": false,
      "t": 101406.25,
      "d": 104.16666666667152,
      "v": 100
    },
    {
      "midi": 59,
      "hit": false,
      "t": 101562.5,
      "d": 104.16666666667152,
      "v": 100
    },
    {
      "midi": 61,
      "hit": false,
      "t": 101718.75,
      "d": 104.16666666667152,
      "v": 100
    },
    {
      "midi": 59,
      "hit": false,
      "t": 101875,
      "d": 104.16666666667152,
      "v": 100
    },
    {
      "midi": 57,
      "hit": false,
      "t": 102031.25,
      "d": 104.16666666667152,
      "v": 100
    },
    {
      "midi": 56,
      "hit": false,
      "t": 102187.5,
      "d": 104.16666666667152,
      "v": 100
    },
    {
      "midi": 54,
      "hit": false,
      "t": 102343.75,
      "d": 104.16666666667152,
      "v": 100
    },
    {
      "midi": 57,
      "hit": false,
      "t": 107812.5,
      "d": 416.6666666666715,
      "v": 100
    },
    {
      "midi": 62,
      "hit": false,
      "t": 107812.5,
      "d": 416.6666666666715,
      "v": 100
    },
    {
      "midi": 66,
      "hit": false,
      "t": 107812.5,
      "d": 416.6666666666715,
      "v": 100
    },
    {
      "midi": 54,
      "hit": false,
      "t": 108750,
      "d": 416.6666666666715,
      "v": 100
    },
    {
      "midi": 59,
      "hit": false,
      "t": 108750,
      "d": 416.6666666666715,
      "v": 100
    },
    {
      "midi": 64,
      "hit": false,
      "t": 108750,
      "d": 416.6666666666715,
      "v": 100
    },
    {
      "midi": 54,
      "hit": false,
      "t": 109375,
      "d": 208.33333333332848,
      "v": 100
    },
    {
      "midi": 59,
      "hit": false,
      "t": 109375,
      "d": 208.33333333332848,
      "v": 100
    },
    {
      "midi": 64,
      "hit": false,
      "t": 109375,
      "d": 208.33333333332848,
      "v": 100
    },
    {
      "midi": 50,
      "hit": false,
      "t": 109687.5,
      "d": 416.6666666666715,
      "v": 100
    },
    {
      "midi": 57,
      "hit": false,
      "t": 109687.5,
      "d": 416.6666666666715,
      "v": 100
    },
    {
      "midi": 64,
      "hit": false,
      "t": 109687.5,
      "d": 416.6666666666715,
      "v": 100
    },
    {
      "midi": 52,
      "hit": false,
      "t": 110312.5,
      "d": 208.33333333332848,
      "v": 100
    },
    {
      "midi": 59,
      "hit": false,
      "t": 110312.5,
      "d": 208.33333333332848,
      "v": 100
    },
    {
      "midi": 64,
      "hit": false,
      "t": 110312.5,
      "d": 208.33333333332848,
      "v": 100
    },
    {
      "midi": 52,
      "hit": false,
      "t": 110625,
      "d": 416.6666666666715,
      "v": 100
    },
    {
      "midi": 57,
      "hit": false,
      "t": 110625,
      "d": 416.6666666666715,
      "v": 100
    },
    {
      "midi": 62,
      "hit": false,
      "t": 110625,
      "d": 416.6666666666715,
      "v": 100
    },
    {
      "midi": 62,
      "hit": false,
      "t": 111250,
      "d": 104.16666666667152,
      "v": 100
    },
    {
      "midi": 64,
      "hit": false,
      "t": 111406.25,
      "d": 104.16666666667152,
      "v": 100
    },
    {
      "midi": 66,
      "hit": false,
      "t": 111562.5,
      "d": 104.16666666667152,
      "v": 100
    },
    {
      "midi": 62,
      "hit": false,
      "t": 111718.75,
      "d": 104.16666666667152,
      "v": 100
    },
    {
      "midi": 64,
      "hit": false,
      "t": 111875,
      "d": 104.16666666667152,
      "v": 100
    },
    {
      "midi": 61,
      "hit": false,
      "t": 112031.25,
      "d": 104.16666666667152,
      "v": 100
    },
    {
      "midi": 57,
      "hit": false,
      "t": 112187.5,
      "d": 104.16666666667152,
      "v": 100
    },
    {
      "midi": 54,
      "hit": false,
      "t": 112343.75,
      "d": 104.16666666667152,
      "v": 100
    },
    {
      "midi": 57,
      "hit": false,
      "t": 117812.5,
      "d": 416.6666666666715,
      "v": 100
    },
    {
      "midi": 62,
      "hit": false,
      "t": 117812.5,
      "d": 416.6666666666715,
      "v": 100
    },
    {
      "midi": 66,
      "hit": false,
      "t": 117812.5,
      "d": 416.6666666666715,
      "v": 100
    },
    {
      "midi": 54,
      "hit": false,
      "t": 118750,
      "d": 416.6666666666715,
      "v": 100
    },
    {
      "midi": 59,
      "hit": false,
      "t": 118750,
      "d": 416.6666666666715,
      "v": 100
    },
    {
      "midi": 64,
      "hit": false,
      "t": 118750,
      "d": 416.6666666666715,
      "v": 100
    },
    {
      "midi": 50,
      "hit": false,
      "t": 119375,
      "d": 104.16666666667152,
      "v": 100
    },
    {
      "midi": 57,
      "hit": false,
      "t": 119375,
      "d": 104.16666666667152,
      "v": 100
    },
    {
      "midi": 64,
      "hit": false,
      "t": 119375,
      "d": 104.16666666667152,
      "v": 100
    },
    {
      "midi": 54,
      "hit": false,
      "t": 119531.25,
      "d": 312.5,
      "v": 100
    },
    {
      "midi": 59,
      "hit": false,
      "t": 119531.25,
      "d": 312.5,
      "v": 100
    },
    {
      "midi": 52,
      "hit": false,
      "t": 120000,
      "d": 208.33333333332848,
      "v": 100
    },
    {
      "midi": 59,
      "hit": false,
      "t": 120000,
      "d": 208.33333333332848,
      "v": 100
    },
    {
      "midi": 64,
      "hit": false,
      "t": 120000,
      "d": 208.33333333332848,
      "v": 100
    },
    {
      "midi": 50,
      "hit": false,
      "t": 120312.5,
      "d": 104.16666666667152,
      "v": 100
    },
    {
      "midi": 57,
      "hit": false,
      "t": 120312.5,
      "d": 104.16666666667152,
      "v": 100
    },
    {
      "midi": 52,
      "hit": false,
      "t": 120468.75,
      "d": 312.5,
      "v": 100
    },
    {
      "midi": 59,
      "hit": false,
      "t": 120468.75,
      "d": 312.5,
      "v": 100
    },
    {
      "midi": 64,
      "hit": false,
      "t": 120468.75,
      "d": 312.5,
      "v": 100
    },
    {
      "midi": 52,
      "hit": false,
      "t": 120937.5,
      "d": 208.33333333332848,
      "v": 100
    },
    {
      "midi": 59,
      "hit": false,
      "t": 120937.5,
      "d": 208.33333333332848,
      "v": 100
    },
    {
      "midi": 64,
      "hit": false,
      "t": 120937.5,
      "d": 208.33333333332848,
      "v": 100
    },
    {
      "midi": 54,
      "hit": false,
      "t": 121250,
      "d": 104.16666666667152,
      "v": 100
    },
    {
      "midi": 61,
      "hit": false,
      "t": 121250,
      "d": 104.16666666667152,
      "v": 100
    },
    {
      "midi": 52,
      "hit": false,
      "t": 121406.25,
      "d": 312.5,
      "v": 100
    },
    {
      "midi": 59,
      "hit": false,
      "t": 121406.25,
      "d": 312.5,
      "v": 100
    },
    {
      "midi": 64,
      "hit": false,
      "t": 121406.25,
      "d": 312.5,
      "v": 100
    },
    {
      "midi": 52,
      "hit": false,
      "t": 121875,
      "d": 208.33333333332848,
      "v": 100
    },
    {
      "midi": 59,
      "hit": false,
      "t": 121875,
      "d": 208.33333333332848,
      "v": 100
    },
    {
      "midi": 64,
      "hit": false,
      "t": 121875,
      "d": 208.33333333332848,
      "v": 100
    },
    {
      "midi": 52,
      "hit": false,
      "t": 122187.5,
      "d": 208.33333333332848,
      "v": 100
    },
    {
      "midi": 59,
      "hit": false,
      "t": 122187.5,
      "d": 208.33333333332848,
      "v": 100
    },
    {
      "midi": 64,
      "hit": false,
      "t": 122187.5,
      "d": 208.33333333332848,
      "v": 100
    },
    {
      "midi": 64,
      "hit": false,
      "t": 122500,
      "d": 416.6666666666715,
      "v": 100
    },
    {
      "midi": 69,
      "hit": false,
      "t": 122500,
      "d": 416.6666666666715,
      "v": 100
    },
    {
      "midi": 73,
      "hit": false,
      "t": 122500,
      "d": 416.6666666666715,
      "v": 100
    },
    {
      "midi": 62,
      "hit": false,
      "t": 123125,
      "d": 416.6666666666715,
      "v": 100
    },
    {
      "midi": 66,
      "hit": false,
      "t": 123125,
      "d": 416.6666666666715,
      "v": 100
    },
    {
      "midi": 69,
      "hit": false,
      "t": 123125,
      "d": 416.6666666666715,
      "v": 100
    },
    {
      "midi": 64,
      "hit": false,
      "t": 123750,
      "d": 833.3333333333285,
      "v": 100
    },
    {
      "midi": 69,
      "hit": false,
      "t": 123750,
      "d": 833.3333333333285,
      "v": 100
    },
    {
      "midi": 73,
      "hit": false,
      "t": 123750,
      "d": 833.3333333333285,
      "v": 100
    },
    {
      "midi": 62,
      "hit": false,
      "t": 125000,
      "d": 416.6666666666715,
      "v": 100
    },
    {
      "midi": 66,
      "hit": false,
      "t": 125000,
      "d": 416.6666666666715,
      "v": 100
    },
    {
      "midi": 71,
      "hit": false,
      "t": 125000,
      "d": 416.6666666666715,
      "v": 100
    },
    {
      "midi": 64,
      "hit": false,
      "t": 125625,
      "d": 416.6666666666715,
      "v": 100
    },
    {
      "midi": 69,
      "hit": false,
      "t": 125625,
      "d": 416.6666666666715,
      "v": 100
    },
    {
      "midi": 73,
      "hit": false,
      "t": 125625,
      "d": 416.6666666666715,
      "v": 100
    },
    {
      "midi": 64,
      "hit": false,
      "t": 126250,
      "d": 833.3333333333285,
      "v": 100
    },
    {
      "midi": 68,
      "hit": false,
      "t": 126250,
      "d": 833.3333333333285,
      "v": 100
    },
    {
      "midi": 71,
      "hit": false,
      "t": 126250,
      "d": 833.3333333333285,
      "v": 100
    },
    {
      "midi": 64,
      "hit": false,
      "t": 127500,
      "d": 416.6666666666715,
      "v": 100
    },
    {
      "midi": 69,
      "hit": false,
      "t": 127500,
      "d": 416.6666666666715,
      "v": 100
    },
    {
      "midi": 73,
      "hit": false,
      "t": 127500,
      "d": 416.6666666666715,
      "v": 100
    },
    {
      "midi": 62,
      "hit": false,
      "t": 128125,
      "d": 416.6666666666715,
      "v": 100
    },
    {
      "midi": 66,
      "hit": false,
      "t": 128125,
      "d": 416.6666666666715,
      "v": 100
    },
    {
      "midi": 69,
      "hit": false,
      "t": 128125,
      "d": 416.6666666666715,
      "v": 100
    },
    {
      "midi": 64,
      "hit": false,
      "t": 128750,
      "d": 833.3333333333285,
      "v": 100
    },
    {
      "midi": 69,
      "hit": false,
      "t": 128750,
      "d": 833.3333333333285,
      "v": 100
    },
    {
      "midi": 73,
      "hit": false,
      "t": 128750,
      "d": 833.3333333333285,
      "v": 100
    },
    {
      "midi": 62,
      "hit": false,
      "t": 130000,
      "d": 416.6666666666715,
      "v": 100
    },
    {
      "midi": 66,
      "hit": false,
      "t": 130000,
      "d": 416.6666666666715,
      "v": 100
    },
    {
      "midi": 71,
      "hit": false,
      "t": 130000,
      "d": 416.6666666666715,
      "v": 100
    },
    {
      "midi": 64,
      "hit": false,
      "t": 130625,
      "d": 416.6666666666715,
      "v": 100
    },
    {
      "midi": 69,
      "hit": false,
      "t": 130625,
      "d": 416.6666666666715,
      "v": 100
    },
    {
      "midi": 73,
      "hit": false,
      "t": 130625,
      "d": 416.6666666666715,
      "v": 100
    },
    {
      "midi": 64,
      "hit": false,
      "t": 131250,
      "d": 833.333333333343,
      "v": 100
    },
    {
      "midi": 68,
      "hit": false,
      "t": 131250,
      "d": 833.333333333343,
      "v": 100
    },
    {
      "midi": 71,
      "hit": false,
      "t": 131250,
      "d": 833.333333333343,
      "v": 100
    },
    {
      "midi": 52,
      "hit": false,
      "t": 132812.5,
      "d": 208.33333333334303,
      "v": 85
    },
    {
      "midi": 57,
      "hit": false,
      "t": 132812.5,
      "d": 208.33333333334303,
      "v": 85
    },
    {
      "midi": 61,
      "hit": false,
      "t": 132812.5,
      "d": 208.33333333334303,
      "v": 85
    },
    {
      "midi": 54,
      "hit": false,
      "t": 133125,
      "d": 416.66666666665697,
      "v": 85
    },
    {
      "midi": 59,
      "hit": false,
      "t": 133125,
      "d": 416.66666666665697,
      "v": 85
    },
    {
      "midi": 62,
      "hit": false,
      "t": 133125,
      "d": 416.66666666665697,
      "v": 85
    },
    {
      "midi": 52,
      "hit": false,
      "t": 133750,
      "d": 312.5,
      "v": 85
    },
    {
      "midi": 57,
      "hit": false,
      "t": 133750,
      "d": 312.5,
      "v": 85
    },
    {
      "midi": 61,
      "hit": false,
      "t": 133750,
      "d": 312.5,
      "v": 85
    },
    {
      "midi": 54,
      "hit": false,
      "t": 134218.75,
      "d": 416.66666666665697,
      "v": 85
    },
    {
      "midi": 59,
      "hit": false,
      "t": 134218.75,
      "d": 416.66666666665697,
      "v": 85
    },
    {
      "midi": 62,
      "hit": false,
      "t": 134218.75,
      "d": 416.66666666665697,
      "v": 85
    },
    {
      "midi": 52,
      "hit": false,
      "t": 135000,
      "d": 312.5,
      "v": 85
    },
    {
      "midi": 57,
      "hit": false,
      "t": 135000,
      "d": 312.5,
      "v": 85
    },
    {
      "midi": 61,
      "hit": false,
      "t": 135000,
      "d": 312.5,
      "v": 85
    },
    {
      "midi": 54,
      "hit": false,
      "t": 135468.75,
      "d": 416.66666666665697,
      "v": 85
    },
    {
      "midi": 59,
      "hit": false,
      "t": 135468.75,
      "d": 416.66666666665697,
      "v": 85
    },
    {
      "midi": 62,
      "hit": false,
      "t": 135468.75,
      "d": 416.66666666665697,
      "v": 85
    },
    {
      "midi": 54,
      "hit": false,
      "t": 136250,
      "d": 416.66666666665697,
      "v": 85
    },
    {
      "midi": 57,
      "hit": false,
      "t": 136250,
      "d": 416.66666666665697,
      "v": 85
    },
    {
      "midi": 62,
      "hit": false,
      "t": 136250,
      "d": 416.66666666665697,
      "v": 85
    },
    {
      "midi": 56,
      "hit": false,
      "t": 136875,
      "d": 416.66666666665697,
      "v": 85
    },
    {
      "midi": 59,
      "hit": false,
      "t": 136875,
      "d": 416.66666666665697,
      "v": 85
    },
    {
      "midi": 64,
      "hit": false,
      "t": 136875,
      "d": 416.66666666665697,
      "v": 85
    },
    {
      "midi": 54,
      "hit": false,
      "t": 137812.5,
      "d": 625,
      "v": 85
    },
    {
      "midi": 59,
      "hit": false,
      "t": 137812.5,
      "d": 625,
      "v": 85
    },
    {
      "midi": 62,
      "hit": false,
      "t": 137812.5,
      "d": 625,
      "v": 85
    },
    {
      "midi": 52,
      "hit": false,
      "t": 138750,
      "d": 312.5,
      "v": 85
    },
    {
      "midi": 57,
      "hit": false,
      "t": 138750,
      "d": 312.5,
      "v": 85
    },
    {
      "midi": 61,
      "hit": false,
      "t": 138750,
      "d": 312.5,
      "v": 85
    },
    {
      "midi": 54,
      "hit": false,
      "t": 139218.75,
      "d": 416.66666666665697,
      "v": 85
    },
    {
      "midi": 59,
      "hit": false,
      "t": 139218.75,
      "d": 416.66666666665697,
      "v": 85
    },
    {
      "midi": 62,
      "hit": false,
      "t": 139218.75,
      "d": 416.66666666665697,
      "v": 85
    },
    {
      "midi": 52,
      "hit": false,
      "t": 140000,
      "d": 312.5,
      "v": 85
    },
    {
      "midi": 57,
      "hit": false,
      "t": 140000,
      "d": 312.5,
      "v": 85
    },
    {
      "midi": 61,
      "hit": false,
      "t": 140000,
      "d": 312.5,
      "v": 85
    },
    {
      "midi": 54,
      "hit": false,
      "t": 140468.75,
      "d": 416.66666666665697,
      "v": 85
    },
    {
      "midi": 59,
      "hit": false,
      "t": 140468.75,
      "d": 416.66666666665697,
      "v": 85
    },
    {
      "midi": 62,
      "hit": false,
      "t": 140468.75,
      "d": 416.66666666665697,
      "v": 85
    },
    {
      "midi": 54,
      "hit": false,
      "t": 141250,
      "d": 416.66666666665697,
      "v": 85
    },
    {
      "midi": 57,
      "hit": false,
      "t": 141250,
      "d": 416.66666666665697,
      "v": 85
    },
    {
      "midi": 62,
      "hit": false,
      "t": 141250,
      "d": 416.66666666665697,
      "v": 85
    },
    {
      "midi": 56,
      "hit": false,
      "t": 141875,
      "d": 416.66666666665697,
      "v": 85
    },
    {
      "midi": 59,
      "hit": false,
      "t": 141875,
      "d": 416.66666666665697,
      "v": 85
    },
    {
      "midi": 64,
      "hit": false,
      "t": 141875,
      "d": 416.66666666665697,
      "v": 85
    },
    {
      "midi": 54,
      "hit": false,
      "t": 142812.5,
      "d": 416.66666666665697,
      "v": 85
    },
    {
      "midi": 59,
      "hit": false,
      "t": 142812.5,
      "d": 416.66666666665697,
      "v": 85
    },
    {
      "midi": 62,
      "hit": false,
      "t": 142812.5,
      "d": 416.66666666665697,
      "v": 85
    },
    {
      "midi": 52,
      "hit": false,
      "t": 143437.5,
      "d": 208.33333333334303,
      "v": 85
    },
    {
      "midi": 57,
      "hit": false,
      "t": 143437.5,
      "d": 208.33333333334303,
      "v": 85
    },
    {
      "midi": 61,
      "hit": false,
      "t": 143437.5,
      "d": 208.33333333334303,
      "v": 85
    },
    {
      "midi": 52,
      "hit": false,
      "t": 143750,
      "d": 312.5,
      "v": 85
    },
    {
      "midi": 57,
      "hit": false,
      "t": 143750,
      "d": 312.5,
      "v": 85
    },
    {
      "midi": 61,
      "hit": false,
      "t": 143750,
      "d": 312.5,
      "v": 85
    },
    {
      "midi": 54,
      "hit": false,
      "t": 144218.75,
      "d": 416.66666666665697,
      "v": 85
    },
    {
      "midi": 59,
      "hit": false,
      "t": 144218.75,
      "d": 416.66666666665697,
      "v": 85
    },
    {
      "midi": 62,
      "hit": false,
      "t": 144218.75,
      "d": 416.66666666665697,
      "v": 85
    },
    {
      "midi": 52,
      "hit": false,
      "t": 145000,
      "d": 312.5,
      "v": 85
    },
    {
      "midi": 57,
      "hit": false,
      "t": 145000,
      "d": 312.5,
      "v": 85
    },
    {
      "midi": 61,
      "hit": false,
      "t": 145000,
      "d": 312.5,
      "v": 85
    },
    {
      "midi": 54,
      "hit": false,
      "t": 145468.75,
      "d": 416.66666666665697,
      "v": 85
    },
    {
      "midi": 59,
      "hit": false,
      "t": 145468.75,
      "d": 416.66666666665697,
      "v": 85
    },
    {
      "midi": 62,
      "hit": false,
      "t": 145468.75,
      "d": 416.66666666665697,
      "v": 85
    },
    {
      "midi": 54,
      "hit": false,
      "t": 146250,
      "d": 416.66666666665697,
      "v": 85
    },
    {
      "midi": 57,
      "hit": false,
      "t": 146250,
      "d": 416.66666666665697,
      "v": 85
    },
    {
      "midi": 62,
      "hit": false,
      "t": 146250,
      "d": 416.66666666665697,
      "v": 85
    },
    {
      "midi": 56,
      "hit": false,
      "t": 146875,
      "d": 416.66666666665697,
      "v": 85
    },
    {
      "midi": 59,
      "hit": false,
      "t": 146875,
      "d": 416.66666666665697,
      "v": 85
    },
    {
      "midi": 64,
      "hit": false,
      "t": 146875,
      "d": 416.66666666665697,
      "v": 85
    },
    {
      "midi": 54,
      "hit": false,
      "t": 147812.5,
      "d": 625,
      "v": 85
    },
    {
      "midi": 59,
      "hit": false,
      "t": 147812.5,
      "d": 625,
      "v": 85
    },
    {
      "midi": 62,
      "hit": false,
      "t": 147812.5,
      "d": 625,
      "v": 85
    },
    {
      "midi": 52,
      "hit": false,
      "t": 148750,
      "d": 312.5,
      "v": 85
    },
    {
      "midi": 57,
      "hit": false,
      "t": 148750,
      "d": 312.5,
      "v": 85
    },
    {
      "midi": 61,
      "hit": false,
      "t": 148750,
      "d": 312.5,
      "v": 85
    },
    {
      "midi": 54,
      "hit": false,
      "t": 149218.75,
      "d": 416.66666666665697,
      "v": 85
    },
    {
      "midi": 59,
      "hit": false,
      "t": 149218.75,
      "d": 416.66666666665697,
      "v": 85
    },
    {
      "midi": 62,
      "hit": false,
      "t": 149218.75,
      "d": 416.66666666665697,
      "v": 85
    },
    {
      "midi": 57,
      "hit": false,
      "t": 150000,
      "d": 416.66666666665697,
      "v": 100
    },
    {
      "midi": 62,
      "hit": false,
      "t": 150000,
      "d": 416.66666666665697,
      "v": 100
    },
    {
      "midi": 66,
      "hit": false,
      "t": 150000,
      "d": 416.66666666665697,
      "v": 100
    },
    {
      "midi": 61,
      "hit": false,
      "t": 150625,
      "d": 416.66666666665697,
      "v": 100
    },
    {
      "midi": 66,
      "hit": false,
      "t": 150625,
      "d": 416.66666666665697,
      "v": 100
    },
    {
      "midi": 69,
      "hit": false,
      "t": 150625,
      "d": 416.66666666665697,
      "v": 100
    },
    {
      "midi": 59,
      "hit": false,
      "t": 151250,
      "d": 833.333333333343,
      "v": 100
    },
    {
      "midi": 64,
      "hit": false,
      "t": 151250,
      "d": 833.333333333343,
      "v": 100
    },
    {
      "midi": 68,
      "hit": false,
      "t": 151250,
      "d": 833.333333333343,
      "v": 100
    },
    {
      "midi": 64,
      "hit": false,
      "t": 167500,
      "d": 104.16666666665697,
      "v": 110
    },
    {
      "midi": 69,
      "hit": false,
      "t": 167500,
      "d": 625,
      "v": 110
    },
    {
      "midi": 73,
      "hit": false,
      "t": 167500,
      "d": 625,
      "v": 110
    },
    {
      "midi": 66,
      "hit": false,
      "t": 167656.25,
      "d": 416.66666666665697,
      "v": 110
    },
    {
      "midi": 64,
      "hit": false,
      "t": 168437.5,
      "d": 625,
      "v": 110
    },
    {
      "midi": 71,
      "hit": false,
      "t": 168437.5,
      "d": 625,
      "v": 110
    },
    {
      "midi": 68,
      "hit": false,
      "t": 169375,
      "d": 104.16666666665697,
      "v": 110
    },
    {
      "midi": 69,
      "hit": false,
      "t": 169531.25,
      "d": 104.16666666665697,
      "v": 110
    },
    {
      "midi": 71,
      "hit": false,
      "t": 169687.5,
      "d": 208.33333333334303,
      "v": 110
    },
    {
      "midi": 64,
      "hit": false,
      "t": 170000,
      "d": 416.66666666665697,
      "v": 110
    },
    {
      "midi": 69,
      "hit": false,
      "t": 170000,
      "d": 416.66666666665697,
      "v": 110
    },
    {
      "midi": 68,
      "hit": false,
      "t": 170625,
      "d": 208.33333333334303,
      "v": 110
    },
    {
      "midi": 57,
      "hit": false,
      "t": 170937.5,
      "d": 416.66666666665697,
      "v": 110
    },
    {
      "midi": 62,
      "hit": false,
      "t": 170937.5,
      "d": 416.66666666665697,
      "v": 110
    },
    {
      "midi": 66,
      "hit": false,
      "t": 170937.5,
      "d": 416.66666666665697,
      "v": 110
    },
    {
      "midi": 56,
      "hit": false,
      "t": 171562.5,
      "d": 416.66666666665697,
      "v": 110
    },
    {
      "midi": 59,
      "hit": false,
      "t": 171562.5,
      "d": 416.66666666665697,
      "v": 110
    },
    {
      "midi": 64,
      "hit": false,
      "t": 171562.5,
      "d": 416.66666666665697,
      "v": 110
    },
    {
      "midi": 69,
      "hit": false,
      "t": 172187.5,
      "d": 104.16666666665697,
      "v": 110
    },
    {
      "midi": 71,
      "hit": false,
      "t": 172343.75,
      "d": 104.16666666665697,
      "v": 110
    },
    {
      "midi": 64,
      "hit": false,
      "t": 172500,
      "d": 416.66666666665697,
      "v": 110
    },
    {
      "midi": 69,
      "hit": false,
      "t": 172500,
      "d": 416.66666666665697,
      "v": 110
    },
    {
      "midi": 73,
      "hit": false,
      "t": 172500,
      "d": 416.66666666665697,
      "v": 110
    },
    {
      "midi": 71,
      "hit": false,
      "t": 173125,
      "d": 104.16666666665697,
      "v": 110
    },
    {
      "midi": 69,
      "hit": false,
      "t": 173281.25,
      "d": 104.16666666665697,
      "v": 110
    },
    {
      "midi": 64,
      "hit": false,
      "t": 173437.5,
      "d": 625,
      "v": 110
    },
    {
      "midi": 71,
      "hit": false,
      "t": 173437.5,
      "d": 625,
      "v": 110
    },
    {
      "midi": 68,
      "hit": false,
      "t": 174375,
      "d": 104.16666666665697,
      "v": 110
    },
    {
      "midi": 69,
      "hit": false,
      "t": 174531.25,
      "d": 104.16666666665697,
      "v": 110
    },
    {
      "midi": 71,
      "hit": false,
      "t": 174687.5,
      "d": 208.33333333334303,
      "v": 110
    },
    {
      "midi": 64,
      "hit": false,
      "t": 175000,
      "d": 416.66666666665697,
      "v": 110
    },
    {
      "midi": 69,
      "hit": false,
      "t": 175000,
      "d": 416.66666666665697,
      "v": 110
    },
    {
      "midi": 68,
      "hit": false,
      "t": 175625,
      "d": 208.33333333334303,
      "v": 110
    },
    {
      "midi": 57,
      "hit": false,
      "t": 175937.5,
      "d": 416.66666666665697,
      "v": 110
    },
    {
      "midi": 62,
      "hit": false,
      "t": 175937.5,
      "d": 416.66666666665697,
      "v": 110
    },
    {
      "midi": 66,
      "hit": false,
      "t": 175937.5,
      "d": 416.66666666665697,
      "v": 110
    },
    {
      "midi": 56,
      "hit": false,
      "t": 176562.5,
      "d": 618.489583333343,
      "v": 110
    },
    {
      "midi": 59,
      "hit": false,
      "t": 176562.5,
      "d": 618.489583333343,
      "v": 110
    },
    {
      "midi": 64,
      "hit": false,
      "t": 176562.5,
      "d": 618.489583333343,
      "v": 110
    },
    {
      "midi": 64,
      "hit": false,
      "t": 177500,
      "d": 104.16666666665697,
      "v": 90
    },
    {
      "midi": 69,
      "hit": false,
      "t": 177500,
      "d": 625,
      "v": 90
    },
    {
      "midi": 73,
      "hit": false,
      "t": 177500,
      "d": 625,
      "v": 90
    },
    {
      "midi": 66,
      "hit": false,
      "t": 177656.25,
      "d": 416.66666666665697,
      "v": 90
    },
    {
      "midi": 64,
      "hit": false,
      "t": 178437.5,
      "d": 625,
      "v": 90
    },
    {
      "midi": 71,
      "hit": false,
      "t": 178437.5,
      "d": 625,
      "v": 90
    },
    {
      "midi": 68,
      "hit": false,
      "t": 179375,
      "d": 104.16666666665697,
      "v": 90
    },
    {
      "midi": 69,
      "hit": false,
      "t": 179531.25,
      "d": 104.16666666665697,
      "v": 90
    },
    {
      "midi": 71,
      "hit": false,
      "t": 179687.5,
      "d": 208.33333333334303,
      "v": 90
    },
    {
      "midi": 64,
      "hit": false,
      "t": 180000,
      "d": 416.66666666665697,
      "v": 90
    },
    {
      "midi": 69,
      "hit": false,
      "t": 180000,
      "d": 416.66666666665697,
      "v": 90
    },
    {
      "midi": 68,
      "hit": false,
      "t": 180625,
      "d": 208.33333333334303,
      "v": 90
    },
    {
      "midi": 57,
      "hit": false,
      "t": 180937.5,
      "d": 416.66666666665697,
      "v": 90
    },
    {
      "midi": 62,
      "hit": false,
      "t": 180937.5,
      "d": 416.66666666665697,
      "v": 90
    },
    {
      "midi": 66,
      "hit": false,
      "t": 180937.5,
      "d": 416.66666666665697,
      "v": 90
    },
    {
      "midi": 56,
      "hit": false,
      "t": 181562.5,
      "d": 416.66666666665697,
      "v": 90
    },
    {
      "midi": 59,
      "hit": false,
      "t": 181562.5,
      "d": 416.66666666665697,
      "v": 90
    },
    {
      "midi": 64,
      "hit": false,
      "t": 181562.5,
      "d": 416.66666666665697,
      "v": 90
    },
    {
      "midi": 69,
      "hit": false,
      "t": 182187.5,
      "d": 104.16666666665697,
      "v": 90
    },
    {
      "midi": 71,
      "hit": false,
      "t": 182343.75,
      "d": 104.16666666665697,
      "v": 90
    },
    {
      "midi": 64,
      "hit": false,
      "t": 182500,
      "d": 416.66666666665697,
      "v": 90
    },
    {
      "midi": 69,
      "hit": false,
      "t": 182500,
      "d": 416.66666666665697,
      "v": 90
    },
    {
      "midi": 73,
      "hit": false,
      "t": 182500,
      "d": 416.66666666665697,
      "v": 90
    },
    {
      "midi": 71,
      "hit": false,
      "t": 183125,
      "d": 104.16666666665697,
      "v": 90
    },
    {
      "midi": 69,
      "hit": false,
      "t": 183281.25,
      "d": 104.16666666665697,
      "v": 90
    },
    {
      "midi": 64,
      "hit": false,
      "t": 183437.5,
      "d": 625,
      "v": 90
    },
    {
      "midi": 71,
      "hit": false,
      "t": 183437.5,
      "d": 625,
      "v": 90
    },
    {
      "midi": 68,
      "hit": false,
      "t": 184375,
      "d": 104.16666666665697,
      "v": 90
    },
    {
      "midi": 69,
      "hit": false,
      "t": 184531.25,
      "d": 104.16666666665697,
      "v": 90
    },
    {
      "midi": 71,
      "hit": false,
      "t": 184687.5,
      "d": 208.33333333334303,
      "v": 90
    },
    {
      "midi": 64,
      "hit": false,
      "t": 185000,
      "d": 416.66666666665697,
      "v": 90
    },
    {
      "midi": 69,
      "hit": false,
      "t": 185000,
      "d": 416.66666666665697,
      "v": 90
    },
    {
      "midi": 68,
      "hit": false,
      "t": 185625,
      "d": 208.33333333334303,
      "v": 90
    },
    {
      "midi": 57,
      "hit": false,
      "t": 185937.5,
      "d": 416.66666666665697,
      "v": 90
    },
    {
      "midi": 62,
      "hit": false,
      "t": 185937.5,
      "d": 416.66666666665697,
      "v": 90
    },
    {
      "midi": 66,
      "hit": false,
      "t": 185937.5,
      "d": 416.66666666665697,
      "v": 90
    },
    {
      "midi": 56,
      "hit": false,
      "t": 186562.5,
      "d": 618.489583333343,
      "v": 90
    },
    {
      "midi": 59,
      "hit": false,
      "t": 186562.5,
      "d": 618.489583333343,
      "v": 90
    },
    {
      "midi": 64,
      "hit": false,
      "t": 186562.5,
      "d": 618.489583333343,
      "v": 90
    },
    {
      "midi": 64,
      "hit": false,
      "t": 187500,
      "d": 104.16666666665697,
      "v": 90
    },
    {
      "midi": 69,
      "hit": false,
      "t": 187500,
      "d": 625,
      "v": 90
    },
    {
      "midi": 73,
      "hit": false,
      "t": 187500,
      "d": 625,
      "v": 90
    },
    {
      "midi": 66,
      "hit": false,
      "t": 187656.25,
      "d": 416.66666666665697,
      "v": 90
    },
    {
      "midi": 64,
      "hit": false,
      "t": 188437.5,
      "d": 625,
      "v": 90
    },
    {
      "midi": 71,
      "hit": false,
      "t": 188437.5,
      "d": 625,
      "v": 90
    },
    {
      "midi": 68,
      "hit": false,
      "t": 189375,
      "d": 104.16666666665697,
      "v": 90
    },
    {
      "midi": 69,
      "hit": false,
      "t": 189531.25,
      "d": 104.16666666665697,
      "v": 90
    },
    {
      "midi": 71,
      "hit": false,
      "t": 189687.5,
      "d": 208.33333333334303,
      "v": 90
    },
    {
      "midi": 64,
      "hit": false,
      "t": 190000,
      "d": 416.66666666665697,
      "v": 90
    },
    {
      "midi": 69,
      "hit": false,
      "t": 190000,
      "d": 416.66666666665697,
      "v": 90
    },
    {
      "midi": 68,
      "hit": false,
      "t": 190625,
      "d": 208.33333333334303,
      "v": 90
    },
    {
      "midi": 57,
      "hit": false,
      "t": 190937.5,
      "d": 416.66666666665697,
      "v": 90
    },
    {
      "midi": 62,
      "hit": false,
      "t": 190937.5,
      "d": 416.66666666665697,
      "v": 90
    },
    {
      "midi": 66,
      "hit": false,
      "t": 190937.5,
      "d": 416.66666666665697,
      "v": 90
    },
    {
      "midi": 56,
      "hit": false,
      "t": 191562.5,
      "d": 416.66666666665697,
      "v": 90
    },
    {
      "midi": 59,
      "hit": false,
      "t": 191562.5,
      "d": 416.66666666665697,
      "v": 90
    },
    {
      "midi": 64,
      "hit": false,
      "t": 191562.5,
      "d": 416.66666666665697,
      "v": 90
    },
    {
      "midi": 69,
      "hit": false,
      "t": 192187.5,
      "d": 104.16666666665697,
      "v": 90
    },
    {
      "midi": 71,
      "hit": false,
      "t": 192343.75,
      "d": 104.16666666665697,
      "v": 90
    },
    {
      "midi": 64,
      "hit": false,
      "t": 192500,
      "d": 416.66666666665697,
      "v": 90
    },
    {
      "midi": 69,
      "hit": false,
      "t": 192500,
      "d": 416.66666666665697,
      "v": 90
    },
    {
      "midi": 73,
      "hit": false,
      "t": 192500,
      "d": 416.66666666665697,
      "v": 90
    },
    {
      "midi": 71,
      "hit": false,
      "t": 193125,
      "d": 104.16666666665697,
      "v": 90
    },
    {
      "midi": 69,
      "hit": false,
      "t": 193281.25,
      "d": 104.16666666665697,
      "v": 90
    },
    {
      "midi": 64,
      "hit": false,
      "t": 193437.5,
      "d": 625,
      "v": 90
    },
    {
      "midi": 71,
      "hit": false,
      "t": 193437.5,
      "d": 625,
      "v": 90
    },
    {
      "midi": 68,
      "hit": false,
      "t": 194375,
      "d": 104.16666666665697,
      "v": 90
    },
    {
      "midi": 69,
      "hit": false,
      "t": 194531.25,
      "d": 104.16666666665697,
      "v": 90
    },
    {
      "midi": 71,
      "hit": false,
      "t": 194687.5,
      "d": 208.33333333334303,
      "v": 90
    },
    {
      "midi": 64,
      "hit": false,
      "t": 195000,
      "d": 416.66666666665697,
      "v": 90
    },
    {
      "midi": 69,
      "hit": false,
      "t": 195000,
      "d": 416.66666666665697,
      "v": 90
    },
    {
      "midi": 68,
      "hit": false,
      "t": 195625,
      "d": 208.33333333334303,
      "v": 90
    },
    {
      "midi": 57,
      "hit": false,
      "t": 195937.5,
      "d": 416.66666666665697,
      "v": 90
    },
    {
      "midi": 62,
      "hit": false,
      "t": 195937.5,
      "d": 416.66666666665697,
      "v": 90
    },
    {
      "midi": 66,
      "hit": false,
      "t": 195937.5,
      "d": 416.66666666665697,
      "v": 90
    },
    {
      "midi": 56,
      "hit": false,
      "t": 196562.5,
      "d": 618.489583333343,
      "v": 90
    },
    {
      "midi": 59,
      "hit": false,
      "t": 196562.5,
      "d": 618.489583333343,
      "v": 90
    },
    {
      "midi": 64,
      "hit": false,
      "t": 196562.5,
      "d": 618.489583333343,
      "v": 90
    },
    {
      "midi": 52,
      "hit": false,
      "t": 197812.5,
      "d": 208.33333333334303,
      "v": 85
    },
    {
      "midi": 57,
      "hit": false,
      "t": 197812.5,
      "d": 208.33333333334303,
      "v": 85
    },
    {
      "midi": 61,
      "hit": false,
      "t": 197812.5,
      "d": 208.33333333334303,
      "v": 85
    },
    {
      "midi": 54,
      "hit": false,
      "t": 198125,
      "d": 416.66666666665697,
      "v": 85
    },
    {
      "midi": 59,
      "hit": false,
      "t": 198125,
      "d": 416.66666666665697,
      "v": 85
    },
    {
      "midi": 62,
      "hit": false,
      "t": 198125,
      "d": 416.66666666665697,
      "v": 85
    },
    {
      "midi": 52,
      "hit": false,
      "t": 198750,
      "d": 312.5,
      "v": 85
    },
    {
      "midi": 57,
      "hit": false,
      "t": 198750,
      "d": 312.5,
      "v": 85
    },
    {
      "midi": 61,
      "hit": false,
      "t": 198750,
      "d": 312.5,
      "v": 85
    },
    {
      "midi": 54,
      "hit": false,
      "t": 199218.75,
      "d": 416.66666666665697,
      "v": 85
    },
    {
      "midi": 59,
      "hit": false,
      "t": 199218.75,
      "d": 416.66666666665697,
      "v": 85
    },
    {
      "midi": 62,
      "hit": false,
      "t": 199218.75,
      "d": 416.66666666665697,
      "v": 85
    },
    {
      "midi": 52,
      "hit": false,
      "t": 200000,
      "d": 312.5,
      "v": 85
    },
    {
      "midi": 57,
      "hit": false,
      "t": 200000,
      "d": 312.5,
      "v": 85
    },
    {
      "midi": 61,
      "hit": false,
      "t": 200000,
      "d": 312.5,
      "v": 85
    },
    {
      "midi": 54,
      "hit": false,
      "t": 200468.75,
      "d": 416.66666666665697,
      "v": 85
    },
    {
      "midi": 59,
      "hit": false,
      "t": 200468.75,
      "d": 416.66666666665697,
      "v": 85
    },
    {
      "midi": 62,
      "hit": false,
      "t": 200468.75,
      "d": 416.66666666665697,
      "v": 85
    },
    {
      "midi": 54,
      "hit": false,
      "t": 201250,
      "d": 416.66666666665697,
      "v": 85
    },
    {
      "midi": 57,
      "hit": false,
      "t": 201250,
      "d": 416.66666666665697,
      "v": 85
    },
    {
      "midi": 62,
      "hit": false,
      "t": 201250,
      "d": 416.66666666665697,
      "v": 85
    },
    {
      "midi": 56,
      "hit": false,
      "t": 201875,
      "d": 416.66666666665697,
      "v": 85
    },
    {
      "midi": 59,
      "hit": false,
      "t": 201875,
      "d": 416.66666666665697,
      "v": 85
    },
    {
      "midi": 64,
      "hit": false,
      "t": 201875,
      "d": 416.66666666665697,
      "v": 85
    },
    {
      "midi": 54,
      "hit": false,
      "t": 202812.5,
      "d": 625,
      "v": 85
    },
    {
      "midi": 59,
      "hit": false,
      "t": 202812.5,
      "d": 625,
      "v": 85
    },
    {
      "midi": 62,
      "hit": false,
      "t": 202812.5,
      "d": 625,
      "v": 85
    },
    {
      "midi": 52,
      "hit": false,
      "t": 203750,
      "d": 312.5,
      "v": 85
    },
    {
      "midi": 57,
      "hit": false,
      "t": 203750,
      "d": 312.5,
      "v": 85
    },
    {
      "midi": 61,
      "hit": false,
      "t": 203750,
      "d": 312.5,
      "v": 85
    },
    {
      "midi": 54,
      "hit": false,
      "t": 204218.75,
      "d": 416.66666666665697,
      "v": 85
    },
    {
      "midi": 59,
      "hit": false,
      "t": 204218.75,
      "d": 416.66666666665697,
      "v": 85
    },
    {
      "midi": 62,
      "hit": false,
      "t": 204218.75,
      "d": 416.66666666665697,
      "v": 85
    },
    {
      "midi": 52,
      "hit": false,
      "t": 205000,
      "d": 312.5,
      "v": 85
    },
    {
      "midi": 57,
      "hit": false,
      "t": 205000,
      "d": 312.5,
      "v": 85
    },
    {
      "midi": 61,
      "hit": false,
      "t": 205000,
      "d": 312.5,
      "v": 85
    },
    {
      "midi": 54,
      "hit": false,
      "t": 205468.75,
      "d": 416.66666666665697,
      "v": 85
    },
    {
      "midi": 59,
      "hit": false,
      "t": 205468.75,
      "d": 416.66666666665697,
      "v": 85
    },
    {
      "midi": 62,
      "hit": false,
      "t": 205468.75,
      "d": 416.66666666665697,
      "v": 85
    },
    {
      "midi": 54,
      "hit": false,
      "t": 206250,
      "d": 416.66666666665697,
      "v": 85
    },
    {
      "midi": 57,
      "hit": false,
      "t": 206250,
      "d": 416.66666666665697,
      "v": 85
    },
    {
      "midi": 62,
      "hit": false,
      "t": 206250,
      "d": 416.66666666665697,
      "v": 85
    },
    {
      "midi": 56,
      "hit": false,
      "t": 206875,
      "d": 416.66666666665697,
      "v": 85
    },
    {
      "midi": 59,
      "hit": false,
      "t": 206875,
      "d": 416.66666666665697,
      "v": 85
    },
    {
      "midi": 64,
      "hit": false,
      "t": 206875,
      "d": 416.66666666665697,
      "v": 85
    },
    {
      "midi": 54,
      "hit": false,
      "t": 207812.5,
      "d": 416.66666666665697,
      "v": 85
    },
    {
      "midi": 59,
      "hit": false,
      "t": 207812.5,
      "d": 416.66666666665697,
      "v": 85
    },
    {
      "midi": 62,
      "hit": false,
      "t": 207812.5,
      "d": 416.66666666665697,
      "v": 85
    },
    {
      "midi": 52,
      "hit": false,
      "t": 208437.5,
      "d": 208.33333333334303,
      "v": 85
    },
    {
      "midi": 57,
      "hit": false,
      "t": 208437.5,
      "d": 208.33333333334303,
      "v": 85
    },
    {
      "midi": 61,
      "hit": false,
      "t": 208437.5,
      "d": 208.33333333334303,
      "v": 85
    },
    {
      "midi": 52,
      "hit": false,
      "t": 208750,
      "d": 312.5,
      "v": 85
    },
    {
      "midi": 57,
      "hit": false,
      "t": 208750,
      "d": 312.5,
      "v": 85
    },
    {
      "midi": 61,
      "hit": false,
      "t": 208750,
      "d": 312.5,
      "v": 85
    },
    {
      "midi": 54,
      "hit": false,
      "t": 209218.75,
      "d": 416.66666666665697,
      "v": 85
    },
    {
      "midi": 59,
      "hit": false,
      "t": 209218.75,
      "d": 416.66666666665697,
      "v": 85
    },
    {
      "midi": 62,
      "hit": false,
      "t": 209218.75,
      "d": 416.66666666665697,
      "v": 85
    },
    {
      "midi": 52,
      "hit": false,
      "t": 210000,
      "d": 312.5,
      "v": 85
    },
    {
      "midi": 57,
      "hit": false,
      "t": 210000,
      "d": 312.5,
      "v": 85
    },
    {
      "midi": 61,
      "hit": false,
      "t": 210000,
      "d": 312.5,
      "v": 85
    },
    {
      "midi": 54,
      "hit": false,
      "t": 210468.75,
      "d": 416.66666666665697,
      "v": 85
    },
    {
      "midi": 59,
      "hit": false,
      "t": 210468.75,
      "d": 416.66666666665697,
      "v": 85
    },
    {
      "midi": 62,
      "hit": false,
      "t": 210468.75,
      "d": 416.66666666665697,
      "v": 85
    },
    {
      "midi": 54,
      "hit": false,
      "t": 211250,
      "d": 416.66666666665697,
      "v": 85
    },
    {
      "midi": 57,
      "hit": false,
      "t": 211250,
      "d": 416.66666666665697,
      "v": 85
    },
    {
      "midi": 62,
      "hit": false,
      "t": 211250,
      "d": 416.66666666665697,
      "v": 85
    },
    {
      "midi": 56,
      "hit": false,
      "t": 211875,
      "d": 416.66666666665697,
      "v": 85
    },
    {
      "midi": 59,
      "hit": false,
      "t": 211875,
      "d": 416.66666666665697,
      "v": 85
    },
    {
      "midi": 64,
      "hit": false,
      "t": 211875,
      "d": 416.66666666665697,
      "v": 85
    },
    {
      "midi": 54,
      "hit": false,
      "t": 212812.5,
      "d": 625,
      "v": 85
    },
    {
      "midi": 59,
      "hit": false,
      "t": 212812.5,
      "d": 625,
      "v": 85
    },
    {
      "midi": 62,
      "hit": false,
      "t": 212812.5,
      "d": 625,
      "v": 85
    },
    {
      "midi": 52,
      "hit": false,
      "t": 213750,
      "d": 312.5,
      "v": 85
    },
    {
      "midi": 57,
      "hit": false,
      "t": 213750,
      "d": 312.5,
      "v": 85
    },
    {
      "midi": 61,
      "hit": false,
      "t": 213750,
      "d": 312.5,
      "v": 85
    },
    {
      "midi": 54,
      "hit": false,
      "t": 214218.75,
      "d": 416.66666666665697,
      "v": 85
    },
    {
      "midi": 59,
      "hit": false,
      "t": 214218.75,
      "d": 416.66666666665697,
      "v": 85
    },
    {
      "midi": 62,
      "hit": false,
      "t": 214218.75,
      "d": 416.66666666665697,
      "v": 85
    },
    {
      "midi": 57,
      "hit": false,
      "t": 215000,
      "d": 416.66666666665697,
      "v": 100
    },
    {
      "midi": 62,
      "hit": false,
      "t": 215000,
      "d": 416.66666666665697,
      "v": 100
    },
    {
      "midi": 66,
      "hit": false,
      "t": 215000,
      "d": 416.66666666665697,
      "v": 100
    },
    {
      "midi": 61,
      "hit": false,
      "t": 215625,
      "d": 416.66666666665697,
      "v": 100
    },
    {
      "midi": 66,
      "hit": false,
      "t": 215625,
      "d": 416.66666666665697,
      "v": 100
    },
    {
      "midi": 69,
      "hit": false,
      "t": 215625,
      "d": 416.66666666665697,
      "v": 100
    },
    {
      "midi": 59,
      "hit": false,
      "t": 216250,
      "d": 833.333333333343,
      "v": 100
    },
    {
      "midi": 64,
      "hit": false,
      "t": 216250,
      "d": 833.333333333343,
      "v": 100
    },
    {
      "midi": 68,
      "hit": false,
      "t": 216250,
      "d": 833.333333333343,
      "v": 100
    },
    {
      "midi": 64,
      "hit": false,
      "t": 237500,
      "d": 104.16666666665697,
      "v": 110
    },
    {
      "midi": 69,
      "hit": false,
      "t": 237500,
      "d": 625,
      "v": 110
    },
    {
      "midi": 73,
      "hit": false,
      "t": 237500,
      "d": 625,
      "v": 110
    },
    {
      "midi": 66,
      "hit": false,
      "t": 237656.25,
      "d": 416.66666666665697,
      "v": 110
    },
    {
      "midi": 64,
      "hit": false,
      "t": 238437.5,
      "d": 625,
      "v": 110
    },
    {
      "midi": 71,
      "hit": false,
      "t": 238437.5,
      "d": 625,
      "v": 110
    },
    {
      "midi": 68,
      "hit": false,
      "t": 239375,
      "d": 104.16666666665697,
      "v": 110
    },
    {
      "midi": 69,
      "hit": false,
      "t": 239531.25,
      "d": 104.16666666665697,
      "v": 110
    },
    {
      "midi": 71,
      "hit": false,
      "t": 239687.5,
      "d": 208.33333333334303,
      "v": 110
    },
    {
      "midi": 64,
      "hit": false,
      "t": 240000,
      "d": 416.66666666665697,
      "v": 110
    },
    {
      "midi": 69,
      "hit": false,
      "t": 240000,
      "d": 416.66666666665697,
      "v": 110
    },
    {
      "midi": 68,
      "hit": false,
      "t": 240625,
      "d": 208.33333333334303,
      "v": 110
    },
    {
      "midi": 57,
      "hit": false,
      "t": 240937.5,
      "d": 416.66666666665697,
      "v": 110
    },
    {
      "midi": 62,
      "hit": false,
      "t": 240937.5,
      "d": 416.66666666665697,
      "v": 110
    },
    {
      "midi": 66,
      "hit": false,
      "t": 240937.5,
      "d": 416.66666666665697,
      "v": 110
    },
    {
      "midi": 56,
      "hit": false,
      "t": 241562.5,
      "d": 416.66666666665697,
      "v": 110
    },
    {
      "midi": 59,
      "hit": false,
      "t": 241562.5,
      "d": 416.66666666665697,
      "v": 110
    },
    {
      "midi": 64,
      "hit": false,
      "t": 241562.5,
      "d": 416.66666666665697,
      "v": 110
    },
    {
      "midi": 69,
      "hit": false,
      "t": 242187.5,
      "d": 104.16666666665697,
      "v": 110
    },
    {
      "midi": 71,
      "hit": false,
      "t": 242343.75,
      "d": 104.16666666665697,
      "v": 110
    },
    {
      "midi": 64,
      "hit": false,
      "t": 242500,
      "d": 416.66666666665697,
      "v": 110
    },
    {
      "midi": 69,
      "hit": false,
      "t": 242500,
      "d": 416.66666666665697,
      "v": 110
    },
    {
      "midi": 73,
      "hit": false,
      "t": 242500,
      "d": 416.66666666665697,
      "v": 110
    },
    {
      "midi": 71,
      "hit": false,
      "t": 243125,
      "d": 104.16666666665697,
      "v": 110
    },
    {
      "midi": 69,
      "hit": false,
      "t": 243281.25,
      "d": 104.16666666665697,
      "v": 110
    },
    {
      "midi": 64,
      "hit": false,
      "t": 243437.5,
      "d": 625,
      "v": 110
    },
    {
      "midi": 71,
      "hit": false,
      "t": 243437.5,
      "d": 625,
      "v": 110
    },
    {
      "midi": 68,
      "hit": false,
      "t": 244375,
      "d": 104.16666666665697,
      "v": 110
    },
    {
      "midi": 69,
      "hit": false,
      "t": 244531.25,
      "d": 104.16666666665697,
      "v": 110
    },
    {
      "midi": 71,
      "hit": false,
      "t": 244687.5,
      "d": 208.33333333334303,
      "v": 110
    },
    {
      "midi": 64,
      "hit": false,
      "t": 245000,
      "d": 416.66666666665697,
      "v": 110
    },
    {
      "midi": 69,
      "hit": false,
      "t": 245000,
      "d": 416.66666666665697,
      "v": 110
    },
    {
      "midi": 68,
      "hit": false,
      "t": 245625,
      "d": 208.33333333334303,
      "v": 110
    },
    {
      "midi": 57,
      "hit": false,
      "t": 245937.5,
      "d": 416.66666666665697,
      "v": 110
    },
    {
      "midi": 62,
      "hit": false,
      "t": 245937.5,
      "d": 416.66666666665697,
      "v": 110
    },
    {
      "midi": 66,
      "hit": false,
      "t": 245937.5,
      "d": 416.66666666665697,
      "v": 110
    },
    {
      "midi": 56,
      "hit": false,
      "t": 246562.5,
      "d": 618.489583333343,
      "v": 110
    },
    {
      "midi": 59,
      "hit": false,
      "t": 246562.5,
      "d": 618.489583333343,
      "v": 110
    },
    {
      "midi": 64,
      "hit": false,
      "t": 246562.5,
      "d": 618.489583333343,
      "v": 110
    },
    {
      "midi": 64,
      "hit": false,
      "t": 247500,
      "d": 104.16666666665697,
      "v": 110
    },
    {
      "midi": 69,
      "hit": false,
      "t": 247500,
      "d": 625,
      "v": 110
    },
    {
      "midi": 73,
      "hit": false,
      "t": 247500,
      "d": 625,
      "v": 110
    },
    {
      "midi": 66,
      "hit": false,
      "t": 247656.25,
      "d": 416.66666666665697,
      "v": 110
    },
    {
      "midi": 64,
      "hit": false,
      "t": 248437.5,
      "d": 625,
      "v": 110
    },
    {
      "midi": 71,
      "hit": false,
      "t": 248437.5,
      "d": 625,
      "v": 110
    },
    {
      "midi": 68,
      "hit": false,
      "t": 249375,
      "d": 104.16666666665697,
      "v": 110
    },
    {
      "midi": 69,
      "hit": false,
      "t": 249531.25,
      "d": 104.16666666665697,
      "v": 110
    },
    {
      "midi": 71,
      "hit": false,
      "t": 249687.5,
      "d": 208.33333333334303,
      "v": 110
    },
    {
      "midi": 64,
      "hit": false,
      "t": 250000,
      "d": 416.66666666665697,
      "v": 110
    },
    {
      "midi": 69,
      "hit": false,
      "t": 250000,
      "d": 416.66666666665697,
      "v": 110
    },
    {
      "midi": 68,
      "hit": false,
      "t": 250625,
      "d": 208.33333333334303,
      "v": 110
    },
    {
      "midi": 57,
      "hit": false,
      "t": 250937.5,
      "d": 416.66666666665697,
      "v": 110
    },
    {
      "midi": 62,
      "hit": false,
      "t": 250937.5,
      "d": 416.66666666665697,
      "v": 110
    },
    {
      "midi": 66,
      "hit": false,
      "t": 250937.5,
      "d": 416.66666666665697,
      "v": 110
    },
    {
      "midi": 56,
      "hit": false,
      "t": 251562.5,
      "d": 416.66666666665697,
      "v": 110
    },
    {
      "midi": 59,
      "hit": false,
      "t": 251562.5,
      "d": 416.66666666665697,
      "v": 110
    },
    {
      "midi": 64,
      "hit": false,
      "t": 251562.5,
      "d": 416.66666666665697,
      "v": 110
    },
    {
      "midi": 69,
      "hit": false,
      "t": 252187.5,
      "d": 104.16666666665697,
      "v": 110
    },
    {
      "midi": 71,
      "hit": false,
      "t": 252343.75,
      "d": 104.16666666665697,
      "v": 110
    },
    {
      "midi": 64,
      "hit": false,
      "t": 252500,
      "d": 416.66666666665697,
      "v": 110
    },
    {
      "midi": 69,
      "hit": false,
      "t": 252500,
      "d": 416.66666666665697,
      "v": 110
    },
    {
      "midi": 73,
      "hit": false,
      "t": 252500,
      "d": 416.66666666665697,
      "v": 110
    },
    {
      "midi": 71,
      "hit": false,
      "t": 253125,
      "d": 104.16666666665697,
      "v": 110
    },
    {
      "midi": 69,
      "hit": false,
      "t": 253281.25,
      "d": 104.16666666665697,
      "v": 110
    },
    {
      "midi": 64,
      "hit": false,
      "t": 253437.5,
      "d": 625,
      "v": 110
    },
    {
      "midi": 71,
      "hit": false,
      "t": 253437.5,
      "d": 625,
      "v": 110
    },
    {
      "midi": 68,
      "hit": false,
      "t": 254375,
      "d": 104.16666666665697,
      "v": 110
    },
    {
      "midi": 69,
      "hit": false,
      "t": 254531.25,
      "d": 104.16666666665697,
      "v": 110
    },
    {
      "midi": 71,
      "hit": false,
      "t": 254687.5,
      "d": 208.33333333334303,
      "v": 110
    },
    {
      "midi": 64,
      "hit": false,
      "t": 255000,
      "d": 416.66666666665697,
      "v": 110
    },
    {
      "midi": 69,
      "hit": false,
      "t": 255000,
      "d": 416.66666666665697,
      "v": 110
    },
    {
      "midi": 68,
      "hit": false,
      "t": 255625,
      "d": 208.33333333334303,
      "v": 110
    },
    {
      "midi": 57,
      "hit": false,
      "t": 255937.5,
      "d": 416.66666666665697,
      "v": 110
    },
    {
      "midi": 62,
      "hit": false,
      "t": 255937.5,
      "d": 416.66666666665697,
      "v": 110
    },
    {
      "midi": 66,
      "hit": false,
      "t": 255937.5,
      "d": 416.66666666665697,
      "v": 110
    },
    {
      "midi": 56,
      "hit": false,
      "t": 256562.5,
      "d": 618.489583333343,
      "v": 110
    },
    {
      "midi": 59,
      "hit": false,
      "t": 256562.5,
      "d": 618.489583333343,
      "v": 110
    },
    {
      "midi": 64,
      "hit": false,
      "t": 256562.5,
      "d": 618.489583333343,
      "v": 110
    },
    {
      "midi": 64,
      "hit": false,
      "t": 257500,
      "d": 104.16666666665697,
      "v": 110
    },
    {
      "midi": 69,
      "hit": false,
      "t": 257500,
      "d": 625,
      "v": 110
    },
    {
      "midi": 73,
      "hit": false,
      "t": 257500,
      "d": 625,
      "v": 110
    },
    {
      "midi": 66,
      "hit": false,
      "t": 257656.25,
      "d": 416.66666666665697,
      "v": 110
    },
    {
      "midi": 64,
      "hit": false,
      "t": 258437.5,
      "d": 625,
      "v": 110
    },
    {
      "midi": 71,
      "hit": false,
      "t": 258437.5,
      "d": 625,
      "v": 110
    },
    {
      "midi": 68,
      "hit": false,
      "t": 259375,
      "d": 104.16666666665697,
      "v": 110
    },
    {
      "midi": 69,
      "hit": false,
      "t": 259531.25,
      "d": 104.16666666665697,
      "v": 110
    },
    {
      "midi": 71,
      "hit": false,
      "t": 259687.5,
      "d": 208.33333333334303,
      "v": 110
    },
    {
      "midi": 64,
      "hit": false,
      "t": 260000,
      "d": 416.66666666665697,
      "v": 110
    },
    {
      "midi": 69,
      "hit": false,
      "t": 260000,
      "d": 416.66666666665697,
      "v": 110
    },
    {
      "midi": 68,
      "hit": false,
      "t": 260625,
      "d": 208.33333333334303,
      "v": 110
    },
    {
      "midi": 57,
      "hit": false,
      "t": 260937.5,
      "d": 416.66666666665697,
      "v": 110
    },
    {
      "midi": 62,
      "hit": false,
      "t": 260937.5,
      "d": 416.66666666665697,
      "v": 110
    },
    {
      "midi": 66,
      "hit": false,
      "t": 260937.5,
      "d": 416.66666666665697,
      "v": 110
    },
    {
      "midi": 56,
      "hit": false,
      "t": 261562.5,
      "d": 416.66666666665697,
      "v": 110
    },
    {
      "midi": 59,
      "hit": false,
      "t": 261562.5,
      "d": 416.66666666665697,
      "v": 110
    },
    {
      "midi": 64,
      "hit": false,
      "t": 261562.5,
      "d": 416.66666666665697,
      "v": 110
    },
    {
      "midi": 69,
      "hit": false,
      "t": 262187.5,
      "d": 104.16666666668607,
      "v": 110
    },
    {
      "midi": 71,
      "hit": false,
      "t": 262343.75,
      "d": 104.16666666668607,
      "v": 110
    },
    {
      "midi": 64,
      "hit": false,
      "t": 262500,
      "d": 416.66666666668607,
      "v": 110
    },
    {
      "midi": 69,
      "hit": false,
      "t": 262500,
      "d": 416.66666666668607,
      "v": 110
    },
    {
      "midi": 73,
      "hit": false,
      "t": 262500,
      "d": 416.66666666668607,
      "v": 110
    },
    {
      "midi": 71,
      "hit": false,
      "t": 263125,
      "d": 104.16666666668607,
      "v": 110
    },
    {
      "midi": 69,
      "hit": false,
      "t": 263281.25,
      "d": 104.16666666668607,
      "v": 110
    },
    {
      "midi": 64,
      "hit": false,
      "t": 263437.5,
      "d": 625,
      "v": 110
    },
    {
      "midi": 71,
      "hit": false,
      "t": 263437.5,
      "d": 625,
      "v": 110
    },
    {
      "midi": 68,
      "hit": false,
      "t": 264375,
      "d": 104.16666666668607,
      "v": 110
    },
    {
      "midi": 69,
      "hit": false,
      "t": 264531.25,
      "d": 104.16666666668607,
      "v": 110
    },
    {
      "midi": 71,
      "hit": false,
      "t": 264687.5,
      "d": 208.33333333331393,
      "v": 110
    },
    {
      "midi": 64,
      "hit": false,
      "t": 265000,
      "d": 416.66666666668607,
      "v": 110
    },
    {
      "midi": 69,
      "hit": false,
      "t": 265000,
      "d": 416.66666666668607,
      "v": 110
    },
    {
      "midi": 68,
      "hit": false,
      "t": 265625,
      "d": 208.33333333331393,
      "v": 110
    },
    {
      "midi": 57,
      "hit": false,
      "t": 265937.5,
      "d": 416.66666666668607,
      "v": 110
    },
    {
      "midi": 62,
      "hit": false,
      "t": 265937.5,
      "d": 416.66666666668607,
      "v": 110
    },
    {
      "midi": 66,
      "hit": false,
      "t": 265937.5,
      "d": 416.66666666668607,
      "v": 110
    },
    {
      "midi": 56,
      "hit": false,
      "t": 266562.5,
      "d": 618.4895833333139,
      "v": 110
    },
    {
      "midi": 59,
      "hit": false,
      "t": 266562.5,
      "d": 618.4895833333139,
      "v": 110
    },
    {
      "midi": 64,
      "hit": false,
      "t": 266562.5,
      "d": 618.4895833333139,
      "v": 110
    },
    {
      "midi": 64,
      "hit": false,
      "t": 267500,
      "d": 104.16666666668607,
      "v": 110
    },
    {
      "midi": 69,
      "hit": false,
      "t": 267500,
      "d": 625,
      "v": 110
    },
    {
      "midi": 73,
      "hit": false,
      "t": 267500,
      "d": 625,
      "v": 110
    },
    {
      "midi": 66,
      "hit": false,
      "t": 267656.25,
      "d": 416.66666666668607,
      "v": 110
    },
    {
      "midi": 64,
      "hit": false,
      "t": 268437.5,
      "d": 625,
      "v": 110
    },
    {
      "midi": 71,
      "hit": false,
      "t": 268437.5,
      "d": 625,
      "v": 110
    },
    {
      "midi": 68,
      "hit": false,
      "t": 269375,
      "d": 104.16666666668607,
      "v": 110
    },
    {
      "midi": 69,
      "hit": false,
      "t": 269531.25,
      "d": 104.16666666668607,
      "v": 110
    },
    {
      "midi": 71,
      "hit": false,
      "t": 269687.5,
      "d": 208.33333333331393,
      "v": 110
    },
    {
      "midi": 64,
      "hit": false,
      "t": 270000,
      "d": 416.66666666668607,
      "v": 110
    },
    {
      "midi": 69,
      "hit": false,
      "t": 270000,
      "d": 416.66666666668607,
      "v": 110
    },
    {
      "midi": 68,
      "hit": false,
      "t": 270625,
      "d": 208.33333333331393,
      "v": 110
    },
    {
      "midi": 57,
      "hit": false,
      "t": 270937.5,
      "d": 416.66666666668607,
      "v": 110
    },
    {
      "midi": 62,
      "hit": false,
      "t": 270937.5,
      "d": 416.66666666668607,
      "v": 110
    },
    {
      "midi": 66,
      "hit": false,
      "t": 270937.5,
      "d": 416.66666666668607,
      "v": 110
    },
    {
      "midi": 56,
      "hit": false,
      "t": 271562.5,
      "d": 416.66666666668607,
      "v": 110
    },
    {
      "midi": 59,
      "hit": false,
      "t": 271562.5,
      "d": 416.66666666668607,
      "v": 110
    },
    {
      "midi": 64,
      "hit": false,
      "t": 271562.5,
      "d": 416.66666666668607,
      "v": 110
    },
    {
      "midi": 69,
      "hit": false,
      "t": 272187.5,
      "d": 104.16666666668607,
      "v": 110
    },
    {
      "midi": 71,
      "hit": false,
      "t": 272343.75,
      "d": 104.16666666668607,
      "v": 110
    },
    {
      "midi": 64,
      "hit": false,
      "t": 272500,
      "d": 416.66666666668607,
      "v": 110
    },
    {
      "midi": 69,
      "hit": false,
      "t": 272500,
      "d": 416.66666666668607,
      "v": 110
    },
    {
      "midi": 73,
      "hit": false,
      "t": 272500,
      "d": 416.66666666668607,
      "v": 110
    },
    {
      "midi": 71,
      "hit": false,
      "t": 273125,
      "d": 104.16666666668607,
      "v": 110
    },
    {
      "midi": 69,
      "hit": false,
      "t": 273281.25,
      "d": 104.16666666668607,
      "v": 110
    },
    {
      "midi": 64,
      "hit": false,
      "t": 273437.5,
      "d": 625,
      "v": 110
    },
    {
      "midi": 71,
      "hit": false,
      "t": 273437.5,
      "d": 625,
      "v": 110
    },
    {
      "midi": 68,
      "hit": false,
      "t": 274375,
      "d": 104.16666666668607,
      "v": 110
    },
    {
      "midi": 69,
      "hit": false,
      "t": 274531.25,
      "d": 104.16666666668607,
      "v": 110
    },
    {
      "midi": 71,
      "hit": false,
      "t": 274687.5,
      "d": 208.33333333331393,
      "v": 110
    },
    {
      "midi": 64,
      "hit": false,
      "t": 275000,
      "d": 416.66666666668607,
      "v": 110
    },
    {
      "midi": 69,
      "hit": false,
      "t": 275000,
      "d": 416.66666666668607,
      "v": 110
    },
    {
      "midi": 68,
      "hit": false,
      "t": 275625,
      "d": 208.33333333331393,
      "v": 110
    },
    {
      "midi": 57,
      "hit": false,
      "t": 275937.5,
      "d": 416.66666666668607,
      "v": 110
    },
    {
      "midi": 62,
      "hit": false,
      "t": 275937.5,
      "d": 416.66666666668607,
      "v": 110
    },
    {
      "midi": 66,
      "hit": false,
      "t": 275937.5,
      "d": 416.66666666668607,
      "v": 110
    },
    {
      "midi": 56,
      "hit": false,
      "t": 276562.5,
      "d": 618.4895833333139,
      "v": 110
    },
    {
      "midi": 59,
      "hit": false,
      "t": 276562.5,
      "d": 618.4895833333139,
      "v": 110
    },
    {
      "midi": 64,
      "hit": false,
      "t": 276562.5,
      "d": 618.4895833333139,
      "v": 110
    },
    {
      "midi": 64,
      "hit": false,
      "t": 277500,
      "d": 104.16666666668607,
      "v": 110
    },
    {
      "midi": 69,
      "hit": false,
      "t": 277500,
      "d": 625,
      "v": 110
    },
    {
      "midi": 73,
      "hit": false,
      "t": 277500,
      "d": 625,
      "v": 110
    },
    {
      "midi": 66,
      "hit": false,
      "t": 277656.25,
      "d": 416.66666666668607,
      "v": 110
    },
    {
      "midi": 64,
      "hit": false,
      "t": 278437.5,
      "d": 625,
      "v": 110
    },
    {
      "midi": 71,
      "hit": false,
      "t": 278437.5,
      "d": 625,
      "v": 110
    },
    {
      "midi": 68,
      "hit": false,
      "t": 279375,
      "d": 104.16666666668607,
      "v": 110
    },
    {
      "midi": 69,
      "hit": false,
      "t": 279531.25,
      "d": 104.16666666668607,
      "v": 110
    },
    {
      "midi": 71,
      "hit": false,
      "t": 279687.5,
      "d": 208.33333333331393,
      "v": 110
    },
    {
      "midi": 64,
      "hit": false,
      "t": 280000,
      "d": 416.66666666668607,
      "v": 110
    },
    {
      "midi": 69,
      "hit": false,
      "t": 280000,
      "d": 416.66666666668607,
      "v": 110
    },
    {
      "midi": 68,
      "hit": false,
      "t": 280625,
      "d": 208.33333333331393,
      "v": 110
    },
    {
      "midi": 57,
      "hit": false,
      "t": 280937.5,
      "d": 416.66666666668607,
      "v": 110
    },
    {
      "midi": 62,
      "hit": false,
      "t": 280937.5,
      "d": 416.66666666668607,
      "v": 110
    },
    {
      "midi": 66,
      "hit": false,
      "t": 280937.5,
      "d": 416.66666666668607,
      "v": 110
    },
    {
      "midi": 56,
      "hit": false,
      "t": 281562.5,
      "d": 416.66666666668607,
      "v": 110
    },
    {
      "midi": 59,
      "hit": false,
      "t": 281562.5,
      "d": 416.66666666668607,
      "v": 110
    },
    {
      "midi": 64,
      "hit": false,
      "t": 281562.5,
      "d": 416.66666666668607,
      "v": 110
    },
    {
      "midi": 69,
      "hit": false,
      "t": 282187.5,
      "d": 104.16666666668607,
      "v": 110
    },
    {
      "midi": 71,
      "hit": false,
      "t": 282343.75,
      "d": 104.16666666668607,
      "v": 110
    },
    {
      "midi": 64,
      "hit": false,
      "t": 282500,
      "d": 416.66666666668607,
      "v": 110
    },
    {
      "midi": 69,
      "hit": false,
      "t": 282500,
      "d": 416.66666666668607,
      "v": 110
    },
    {
      "midi": 73,
      "hit": false,
      "t": 282500,
      "d": 416.66666666668607,
      "v": 110
    },
    {
      "midi": 71,
      "hit": false,
      "t": 283125,
      "d": 104.16666666668607,
      "v": 110
    },
    {
      "midi": 69,
      "hit": false,
      "t": 283281.25,
      "d": 104.16666666668607,
      "v": 110
    },
    {
      "midi": 64,
      "hit": false,
      "t": 283437.5,
      "d": 625,
      "v": 110
    },
    {
      "midi": 71,
      "hit": false,
      "t": 283437.5,
      "d": 625,
      "v": 110
    },
    {
      "midi": 68,
      "hit": false,
      "t": 284375,
      "d": 104.16666666668607,
      "v": 110
    },
    {
      "midi": 69,
      "hit": false,
      "t": 284531.25,
      "d": 104.16666666668607,
      "v": 110
    },
    {
      "midi": 71,
      "hit": false,
      "t": 284687.5,
      "d": 208.33333333331393,
      "v": 110
    },
    {
      "midi": 64,
      "hit": false,
      "t": 285000,
      "d": 416.66666666668607,
      "v": 110
    },
    {
      "midi": 69,
      "hit": false,
      "t": 285000,
      "d": 416.66666666668607,
      "v": 110
    },
    {
      "midi": 68,
      "hit": false,
      "t": 285625,
      "d": 208.33333333331393,
      "v": 110
    },
    {
      "midi": 57,
      "hit": false,
      "t": 285937.5,
      "d": 416.66666666668607,
      "v": 110
    },
    {
      "midi": 62,
      "hit": false,
      "t": 285937.5,
      "d": 416.66666666668607,
      "v": 110
    },
    {
      "midi": 66,
      "hit": false,
      "t": 285937.5,
      "d": 416.66666666668607,
      "v": 110
    },
    {
      "midi": 56,
      "hit": false,
      "t": 286562.5,
      "d": 618.4895833333139,
      "v": 110
    },
    {
      "midi": 59,
      "hit": false,
      "t": 286562.5,
      "d": 618.4895833333139,
      "v": 110
    },
    {
      "midi": 64,
      "hit": false,
      "t": 286562.5,
      "d": 618.4895833333139,
      "v": 110
    },
    {
      "midi": 64,
      "hit": false,
      "t": 287500,
      "d": 104.16666666668607,
      "v": 110
    },
    {
      "midi": 69,
      "hit": false,
      "t": 287500,
      "d": 625,
      "v": 110
    },
    {
      "midi": 73,
      "hit": false,
      "t": 287500,
      "d": 625,
      "v": 110
    },
    {
      "midi": 66,
      "hit": false,
      "t": 287656.25,
      "d": 416.66666666668607,
      "v": 110
    },
    {
      "midi": 64,
      "hit": false,
      "t": 288437.5,
      "d": 625,
      "v": 110
    },
    {
      "midi": 71,
      "hit": false,
      "t": 288437.5,
      "d": 625,
      "v": 110
    },
    {
      "midi": 68,
      "hit": false,
      "t": 289375,
      "d": 104.16666666668607,
      "v": 110
    },
    {
      "midi": 69,
      "hit": false,
      "t": 289531.25,
      "d": 104.16666666668607,
      "v": 110
    },
    {
      "midi": 71,
      "hit": false,
      "t": 289687.5,
      "d": 208.33333333331393,
      "v": 110
    },
    {
      "midi": 64,
      "hit": false,
      "t": 290000,
      "d": 416.66666666668607,
      "v": 110
    },
    {
      "midi": 69,
      "hit": false,
      "t": 290000,
      "d": 416.66666666668607,
      "v": 110
    },
    {
      "midi": 68,
      "hit": false,
      "t": 290625,
      "d": 208.33333333331393,
      "v": 110
    },
    {
      "midi": 57,
      "hit": false,
      "t": 290937.5,
      "d": 416.66666666668607,
      "v": 110
    },
    {
      "midi": 62,
      "hit": false,
      "t": 290937.5,
      "d": 416.66666666668607,
      "v": 110
    },
    {
      "midi": 66,
      "hit": false,
      "t": 290937.5,
      "d": 416.66666666668607,
      "v": 110
    },
    {
      "midi": 56,
      "hit": false,
      "t": 291562.5,
      "d": 416.66666666668607,
      "v": 110
    },
    {
      "midi": 59,
      "hit": false,
      "t": 291562.5,
      "d": 416.66666666668607,
      "v": 110
    },
    {
      "midi": 64,
      "hit": false,
      "t": 291562.5,
      "d": 416.66666666668607,
      "v": 110
    },
    {
      "midi": 69,
      "hit": false,
      "t": 292187.5,
      "d": 104.16666666668607,
      "v": 110
    },
    {
      "midi": 71,
      "hit": false,
      "t": 292343.75,
      "d": 104.16666666668607,
      "v": 110
    },
    {
      "midi": 64,
      "hit": false,
      "t": 292500,
      "d": 416.66666666668607,
      "v": 110
    },
    {
      "midi": 69,
      "hit": false,
      "t": 292500,
      "d": 416.66666666668607,
      "v": 110
    },
    {
      "midi": 73,
      "hit": false,
      "t": 292500,
      "d": 416.66666666668607,
      "v": 110
    },
    {
      "midi": 71,
      "hit": false,
      "t": 293125,
      "d": 104.16666666668607,
      "v": 110
    },
    {
      "midi": 69,
      "hit": false,
      "t": 293281.25,
      "d": 104.16666666668607,
      "v": 110
    },
    {
      "midi": 64,
      "hit": false,
      "t": 293437.5,
      "d": 625,
      "v": 110
    },
    {
      "midi": 71,
      "hit": false,
      "t": 293437.5,
      "d": 625,
      "v": 110
    },
    {
      "midi": 68,
      "hit": false,
      "t": 294375,
      "d": 104.16666666668607,
      "v": 110
    },
    {
      "midi": 69,
      "hit": false,
      "t": 294531.25,
      "d": 104.16666666668607,
      "v": 110
    },
    {
      "midi": 71,
      "hit": false,
      "t": 294687.5,
      "d": 208.33333333331393,
      "v": 110
    },
    {
      "midi": 64,
      "hit": false,
      "t": 295000,
      "d": 416.66666666668607,
      "v": 110
    },
    {
      "midi": 69,
      "hit": false,
      "t": 295000,
      "d": 416.66666666668607,
      "v": 110
    },
    {
      "midi": 68,
      "hit": false,
      "t": 295625,
      "d": 208.33333333331393,
      "v": 110
    },
    {
      "midi": 57,
      "hit": false,
      "t": 295937.5,
      "d": 416.66666666668607,
      "v": 110
    },
    {
      "midi": 62,
      "hit": false,
      "t": 295937.5,
      "d": 416.66666666668607,
      "v": 110
    },
    {
      "midi": 66,
      "hit": false,
      "t": 295937.5,
      "d": 416.66666666668607,
      "v": 110
    },
    {
      "midi": 56,
      "hit": false,
      "t": 296562.5,
      "d": 618.4895833333139,
      "v": 110
    },
    {
      "midi": 59,
      "hit": false,
      "t": 296562.5,
      "d": 618.4895833333139,
      "v": 110
    },
    {
      "midi": 64,
      "hit": false,
      "t": 296562.5,
      "d": 618.4895833333139,
      "v": 110
    },
    {
      "midi": 50,
      "hit": false,
      "t": 297812.5,
      "d": 416.66666666668607,
      "v": 110
    },
    {
      "midi": 59,
      "hit": false,
      "t": 297812.5,
      "d": 416.66666666668607,
      "v": 110
    },
    {
      "midi": 50,
      "hit": false,
      "t": 298750,
      "d": 416.66666666668607,
      "v": 110
    },
    {
      "midi": 57,
      "hit": false,
      "t": 298750,
      "d": 416.66666666668607,
      "v": 110
    },
    {
      "midi": 50,
      "hit": false,
      "t": 300312.5,
      "d": 625,
      "v": 110
    },
    {
      "midi": 57,
      "hit": false,
      "t": 300312.5,
      "d": 625,
      "v": 110
    },
    {
      "midi": 64,
      "hit": false,
      "t": 300312.5,
      "d": 625,
      "v": 110
    },
    {
      "midi": 50,
      "hit": false,
      "t": 301406.25,
      "d": 312.5,
      "v": 110
    },
    {
      "midi": 57,
      "hit": false,
      "t": 301406.25,
      "d": 312.5,
      "v": 110
    },
    {
      "midi": 64,
      "hit": false,
      "t": 301406.25,
      "d": 312.5,
      "v": 110
    },
    {
      "midi": 54,
      "hit": false,
      "t": 301875,
      "d": 416.66666666668607,
      "v": 110
    },
    {
      "midi": 59,
      "hit": false,
      "t": 301875,
      "d": 416.66666666668607,
      "v": 110
    },
    {
      "midi": 64,
      "hit": false,
      "t": 301875,
      "d": 416.66666666668607,
      "v": 110
    },
    {
      "midi": 50,
      "hit": false,
      "t": 302500,
      "d": 208.33333333331393,
      "v": 110
    },
    {
      "midi": 57,
      "hit": false,
      "t": 302500,
      "d": 208.33333333331393,
      "v": 110
    },
    {
      "midi": 64,
      "hit": false,
      "t": 302500,
      "d": 208.33333333331393,
      "v": 110
    },
    {
      "midi": 52,
      "hit": false,
      "t": 302812.5,
      "d": 208.33333333331393,
      "v": 110
    },
    {
      "midi": 59,
      "hit": false,
      "t": 302812.5,
      "d": 208.33333333331393,
      "v": 110
    },
    {
      "midi": 64,
      "hit": false,
      "t": 302812.5,
      "d": 208.33333333331393,
      "v": 110
    },
    {
      "midi": 50,
      "hit": false,
      "t": 303125,
      "d": 208.33333333331393,
      "v": 110
    },
    {
      "midi": 57,
      "hit": false,
      "t": 303125,
      "d": 208.33333333331393,
      "v": 110
    },
    {
      "midi": 64,
      "hit": false,
      "t": 303125,
      "d": 208.33333333331393,
      "v": 110
    },
    {
      "midi": 59,
      "hit": false,
      "t": 303750,
      "d": 208.33333333331393,
      "v": 110
    },
    {
      "midi": 66,
      "hit": false,
      "t": 303750,
      "d": 208.33333333331393,
      "v": 110
    },
    {
      "midi": 57,
      "hit": false,
      "t": 304062.5,
      "d": 208.33333333331393,
      "v": 110
    },
    {
      "midi": 62,
      "hit": false,
      "t": 304062.5,
      "d": 208.33333333331393,
      "v": 110
    },
    {
      "midi": 69,
      "hit": false,
      "t": 304062.5,
      "d": 208.33333333331393,
      "v": 110
    },
    {
      "midi": 52,
      "hit": false,
      "t": 305312.5,
      "d": 104.16666666668607,
      "v": 110
    },
    {
      "midi": 57,
      "hit": false,
      "t": 305312.5,
      "d": 104.16666666668607,
      "v": 110
    },
    {
      "midi": 64,
      "hit": false,
      "t": 305312.5,
      "d": 104.16666666668607,
      "v": 110
    },
    {
      "midi": 54,
      "hit": false,
      "t": 305468.75,
      "d": 312.5,
      "v": 110
    },
    {
      "midi": 59,
      "hit": false,
      "t": 305468.75,
      "d": 312.5,
      "v": 110
    },
    {
      "midi": 64,
      "hit": false,
      "t": 305468.75,
      "d": 312.5,
      "v": 110
    },
    {
      "midi": 54,
      "hit": false,
      "t": 305937.5,
      "d": 312.5,
      "v": 110
    },
    {
      "midi": 59,
      "hit": false,
      "t": 305937.5,
      "d": 312.5,
      "v": 110
    },
    {
      "midi": 64,
      "hit": false,
      "t": 305937.5,
      "d": 312.5,
      "v": 110
    },
    {
      "midi": 52,
      "hit": false,
      "t": 306406.25,
      "d": 312.5,
      "v": 110
    },
    {
      "midi": 57,
      "hit": false,
      "t": 306406.25,
      "d": 312.5,
      "v": 110
    },
    {
      "midi": 64,
      "hit": false,
      "t": 306406.25,
      "d": 312.5,
      "v": 110
    },
    {
      "midi": 54,
      "hit": false,
      "t": 306875,
      "d": 416.66666666668607,
      "v": 110
    },
    {
      "midi": 59,
      "hit": false,
      "t": 306875,
      "d": 416.66666666668607,
      "v": 110
    },
    {
      "midi": 64,
      "hit": false,
      "t": 306875,
      "d": 416.66666666668607,
      "v": 110
    },
    {
      "midi": 50,
      "hit": false,
      "t": 307812.5,
      "d": 416.66666666668607,
      "v": 107
    },
    {
      "midi": 59,
      "hit": false,
      "t": 307812.5,
      "d": 416.66666666668607,
      "v": 107
    },
    {
      "midi": 50,
      "hit": false,
      "t": 308750,
      "d": 416.66666666668607,
      "v": 97
    },
    {
      "midi": 57,
      "hit": false,
      "t": 308750,
      "d": 416.66666666668607,
      "v": 97
    },
    {
      "midi": 50,
      "hit": false,
      "t": 310312.5,
      "d": 625,
      "v": 80
    },
    {
      "midi": 57,
      "hit": false,
      "t": 310312.5,
      "d": 625,
      "v": 80
    },
    {
      "midi": 64,
      "hit": false,
      "t": 310312.5,
      "d": 625,
      "v": 80
    },
    {
      "midi": 50,
      "hit": false,
      "t": 311406.25,
      "d": 312.5,
      "v": 68
    },
    {
      "midi": 57,
      "hit": false,
      "t": 311406.25,
      "d": 312.5,
      "v": 68
    },
    {
      "midi": 64,
      "hit": false,
      "t": 311406.25,
      "d": 312.5,
      "v": 68
    },
    {
      "midi": 54,
      "hit": false,
      "t": 311875,
      "d": 416.66666666668607,
      "v": 62
    },
    {
      "midi": 59,
      "hit": false,
      "t": 311875,
      "d": 416.66666666668607,
      "v": 62
    },
    {
      "midi": 64,
      "hit": false,
      "t": 311875,
      "d": 416.66666666668607,
      "v": 62
    },
    {
      "midi": 50,
      "hit": false,
      "t": 312500,
      "d": 208.33333333331393,
      "v": 55
    },
    {
      "midi": 57,
      "hit": false,
      "t": 312500,
      "d": 208.33333333331393,
      "v": 55
    },
    {
      "midi": 64,
      "hit": false,
      "t": 312500,
      "d": 208.33333333331393,
      "v": 55
    },
    {
      "midi": 52,
      "hit": false,
      "t": 312812.5,
      "d": 208.33333333331393,
      "v": 52
    },
    {
      "midi": 59,
      "hit": false,
      "t": 312812.5,
      "d": 208.33333333331393,
      "v": 52
    },
    {
      "midi": 64,
      "hit": false,
      "t": 312812.5,
      "d": 208.33333333331393,
      "v": 52
    },
    {
      "midi": 50,
      "hit": false,
      "t": 313125,
      "d": 208.33333333331393,
      "v": 49
    },
    {
      "midi": 57,
      "hit": false,
      "t": 313125,
      "d": 208.33333333331393,
      "v": 49
    },
    {
      "midi": 64,
      "hit": false,
      "t": 313125,
      "d": 208.33333333331393,
      "v": 49
    },
    {
      "midi": 59,
      "hit": false,
      "t": 313750,
      "d": 208.33333333331393,
      "v": 42
    },
    {
      "midi": 66,
      "hit": false,
      "t": 313750,
      "d": 208.33333333331393,
      "v": 42
    },
    {
      "midi": 57,
      "hit": false,
      "t": 314062.5,
      "d": 208.33333333331393,
      "v": 38
    },
    {
      "midi": 62,
      "hit": false,
      "t": 314062.5,
      "d": 208.33333333331393,
      "v": 38
    },
    {
      "midi": 69,
      "hit": false,
      "t": 314062.5,
      "d": 208.33333333331393,
      "v": 38
    },
    {
      "midi": 52,
      "hit": false,
      "t": 315312.5,
      "d": 104.16666666668607,
      "v": 25
    },
    {
      "midi": 57,
      "hit": false,
      "t": 315312.5,
      "d": 104.16666666668607,
      "v": 25
    },
    {
      "midi": 64,
      "hit": false,
      "t": 315312.5,
      "d": 104.16666666668607,
      "v": 25
    },
    {
      "midi": 54,
      "hit": false,
      "t": 315468.75,
      "d": 312.5,
      "v": 23
    },
    {
      "midi": 59,
      "hit": false,
      "t": 315468.75,
      "d": 312.5,
      "v": 23
    },
    {
      "midi": 64,
      "hit": false,
      "t": 315468.75,
      "d": 312.5,
      "v": 23
    },
    {
      "midi": 54,
      "hit": false,
      "t": 315937.5,
      "d": 312.5,
      "v": 18
    },
    {
      "midi": 59,
      "hit": false,
      "t": 315937.5,
      "d": 312.5,
      "v": 18
    },
    {
      "midi": 64,
      "hit": false,
      "t": 315937.5,
      "d": 312.5,
      "v": 18
    },
    {
      "midi": 52,
      "hit": false,
      "t": 316406.25,
      "d": 312.5,
      "v": 12
    },
    {
      "midi": 57,
      "hit": false,
      "t": 316406.25,
      "d": 312.5,
      "v": 12
    },
    {
      "midi": 64,
      "hit": false,
      "t": 316406.25,
      "d": 312.5,
      "v": 12
    },
    {
      "midi": 54,
      "hit": false,
      "t": 316875,
      "d": 416.66666666668607,
      "v": 7
    },
    {
      "midi": 59,
      "hit": false,
      "t": 316875,
      "d": 416.66666666668607,
      "v": 7
    },
    {
      "midi": 64,
      "hit": false,
      "t": 316875,
      "d": 416.66666666668607,
      "v": 7
    }
  ]
}