{
  "jsonPath": "Country/Contemporary Country/Trisha Yearwood/like-we-never-had-a-broken-heart.json",
  "path": "Country\\Contemporary Country\\Trisha Yearwood\\Like We Never Had A Broken Heart.mid",
  "name": "Like We Never Had A Broken Heart",
  "difficulty": "Advanced",
  "bpm": 73.00140406033809,
  "notes": [
    {
      "midi": 67,
      "hit": false,
      "t": 25800,
      "d": 500,
      "v": 119
    },
    {
      "midi": 74,
      "hit": false,
      "t": 26400,
      "d": 150,
      "v": 119
    },
    {
      "midi": 76,
      "hit": false,
      "t": 26400,
      "d": 4150,
      "v": 119
    },
    {
      "midi": 60,
      "hit": false,
      "t": 26400,
      "d": 8400,
      "v": 119
    },
    {
      "midi": 72,
      "hit": false,
      "t": 30600,
      "d": 550,
      "v": 119
    },
    {
      "midi": 69,
      "hit": false,
      "t": 31200,
      "d": 3550,
      "v": 119
    },
    {
      "midi": 48,
      "hit": false,
      "t": 36000,
      "d": 3900,
      "v": 119
    },
    {
      "midi": 55,
      "hit": false,
      "t": 36000,
      "d": 3950,
      "v": 119
    },
    {
      "midi": 60,
      "hit": false,
      "t": 36000,
      "d": 3950,
      "v": 119
    },
    {
      "midi": 64,
      "hit": false,
      "t": 36000,
      "d": 4000,
      "v": 119
    },
    {
      "midi": 58,
      "hit": false,
      "t": 40800,
      "d": 3450,
      "v": 119
    },
    {
      "midi": 60,
      "hit": false,
      "t": 40800,
      "d": 4150,
      "v": 119
    },
    {
      "midi": 64,
      "hit": false,
      "t": 40800,
      "d": 4150,
      "v": 119
    },
    {
      "midi": 67,
      "hit": false,
      "t": 40800,
      "d": 4150,
      "v": 119
    },
    {
      "midi": 57,
      "hit": false,
      "t": 45600,
      "d": 3550,
      "v": 119
    },
    {
      "midi": 65,
      "hit": false,
      "t": 45600,
      "d": 3550,
      "v": 119
    },
    {
      "midi": 41,
      "hit": false,
      "t": 45600,
      "d": 3600,
      "v": 119
    },
    {
      "midi": 60,
      "hit": false,
      "t": 45600,
      "d": 3600,
      "v": 119
    },
    {
      "midi": 55,
      "hit": false,
      "t": 49800,
      "d": 450,
      "v": 119
    },
    {
      "midi": 64,
      "hit": false,
      "t": 49800,
      "d": 450,
      "v": 119
    },
    {
      "midi": 60,
      "hit": false,
      "t": 49800,
      "d": 500,
      "v": 119
    },
    {
      "midi": 57,
      "hit": false,
      "t": 50400,
      "d": 3400,
      "v": 119
    },
    {
      "midi": 65,
      "hit": false,
      "t": 50400,
      "d": 3400,
      "v": 119
    },
    {
      "midi": 41,
      "hit": false,
      "t": 50400,
      "d": 3500,
      "v": 119
    },
    {
      "midi": 60,
      "hit": false,
      "t": 50400,
      "d": 3500,
      "v": 119
    },
    {
      "midi": 55,
      "hit": false,
      "t": 54000,
      "d": 1000,
      "v": 119
    },
    {
      "midi": 64,
      "hit": false,
      "t": 54000,
      "d": 1000,
      "v": 119
    },
    {
      "midi": 60,
      "hit": false,
      "t": 54000,
      "d": 1050,
      "v": 119
    },
    {
      "midi": 45,
      "hit": false,
      "t": 55200,
      "d": 3.125,
      "v": 119
    },
    {
      "midi": 43,
      "hit": false,
      "t": 55200,
      "d": 4050,
      "v": 119
    },
    {
      "midi": 55,
      "hit": false,
      "t": 55200,
      "d": 4300,
      "v": 119
    },
    {
      "midi": 59,
      "hit": false,
      "t": 55200,
      "d": 4550,
      "v": 119
    },
    {
      "midi": 62,
      "hit": false,
      "t": 55200,
      "d": 4650,
      "v": 119
    },
    {
      "midi": 43,
      "hit": false,
      "t": 59400,
      "d": 2850,
      "v": 119
    },
    {
      "midi": 55,
      "hit": false,
      "t": 59700,
      "d": 2450,
      "v": 119
    },
    {
      "midi": 61,
      "hit": false,
      "t": 60000,
      "d": 3.125,
      "v": 119
    },
    {
      "midi": 62,
      "hit": false,
      "t": 60000,
      "d": 2150,
      "v": 119
    },
    {
      "midi": 59,
      "hit": false,
      "t": 60000,
      "d": 2200,
      "v": 119
    },
    {
      "midi": 43,
      "hit": false,
      "t": 62400,
      "d": 3.125,
      "v": 119
    },
    {
      "midi": 53,
      "hit": false,
      "t": 62400,
      "d": 1000,
      "v": 119
    },
    {
      "midi": 57,
      "hit": false,
      "t": 62400,
      "d": 1050,
      "v": 119
    },
    {
      "midi": 60,
      "hit": false,
      "t": 62400,
      "d": 1050,
      "v": 119
    },
    {
      "midi": 41,
      "hit": false,
      "t": 62400,
      "d": 1100,
      "v": 119
    },
    {
      "midi": 43,
      "hit": false,
      "t": 63600,
      "d": 950,
      "v": 119
    },
    {
      "midi": 55,
      "hit": false,
      "t": 63600,
      "d": 950,
      "v": 119
    },
    {
      "midi": 59,
      "hit": false,
      "t": 63600,
      "d": 950,
      "v": 119
    },
    {
      "midi": 62,
      "hit": false,
      "t": 63600,
      "d": 950,
      "v": 119
    },
    {
      "midi": 55,
      "hit": false,
      "t": 64800,
      "d": 3900,
      "v": 119
    },
    {
      "midi": 60,
      "hit": false,
      "t": 64800,
      "d": 3900,
      "v": 119
    },
    {
      "midi": 64,
      "hit": false,
      "t": 64800,
      "d": 3900,
      "v": 119
    },
    {
      "midi": 48,
      "hit": false,
      "t": 64800,
      "d": 4000,
      "v": 119
    },
    {
      "midi": 67,
      "hit": false,
      "t": 69600,
      "d": 50,
      "v": 119
    },
    {
      "midi": 69,
      "hit": false,
      "t": 69600,
      "d": 2350,
      "v": 119
    },
    {
      "midi": 60,
      "hit": false,
      "t": 69600,
      "d": 2450,
      "v": 119
    },
    {
      "midi": 69,
      "hit": false,
      "t": 73200,
      "d": 1050,
      "v": 119
    },
    {
      "midi": 72,
      "hit": false,
      "t": 73200,
      "d": 1050,
      "v": 119
    },
    {
      "midi": 77,
      "hit": false,
      "t": 73200,
      "d": 1050,
      "v": 119
    },
    {
      "midi": 48,
      "hit": false,
      "t": 74400,
      "d": 4050,
      "v": 119
    },
    {
      "midi": 55,
      "hit": false,
      "t": 74400,
      "d": 4050,
      "v": 119
    },
    {
      "midi": 60,
      "hit": false,
      "t": 74400,
      "d": 4050,
      "v": 119
    },
    {
      "midi": 64,
      "hit": false,
      "t": 74400,
      "d": 4100,
      "v": 119
    },
    {
      "midi": 58,
      "hit": false,
      "t": 79200,
      "d": 3400,
      "v": 119
    },
    {
      "midi": 60,
      "hit": false,
      "t": 79200,
      "d": 3400,
      "v": 119
    },
    {
      "midi": 64,
      "hit": false,
      "t": 79200,
      "d": 3400,
      "v": 119
    },
    {
      "midi": 67,
      "hit": false,
      "t": 79200,
      "d": 3400,
      "v": 119
    },
    {
      "midi": 41,
      "hit": false,
      "t": 84000,
      "d": 3600,
      "v": 119
    },
    {
      "midi": 57,
      "hit": false,
      "t": 84000,
      "d": 3600,
      "v": 119
    },
    {
      "midi": 65,
      "hit": false,
      "t": 84000,
      "d": 3600,
      "v": 119
    },
    {
      "midi": 60,
      "hit": false,
      "t": 84000,
      "d": 3650,
      "v": 119
    },
    {
      "midi": 55,
      "hit": false,
      "t": 88200,
      "d": 450,
      "v": 119
    },
    {
      "midi": 64,
      "hit": false,
      "t": 88200,
      "d": 450,
      "v": 119
    },
    {
      "midi": 60,
      "hit": false,
      "t": 88200,
      "d": 500,
      "v": 119
    },
    {
      "midi": 41,
      "hit": false,
      "t": 88800,
      "d": 3400,
      "v": 119
    },
    {
      "midi": 57,
      "hit": false,
      "t": 88800,
      "d": 3400,
      "v": 119
    },
    {
      "midi": 65,
      "hit": false,
      "t": 88800,
      "d": 3400,
      "v": 119
    },
    {
      "midi": 60,
      "hit": false,
      "t": 88800,
      "d": 3500,
      "v": 119
    },
    {
      "midi": 55,
      "hit": false,
      "t": 92400,
      "d": 1000,
      "v": 119
    },
    {
      "midi": 60,
      "hit": false,
      "t": 92400,
      "d": 1000,
      "v": 119
    },
    {
      "midi": 64,
      "hit": false,
      "t": 92400,
      "d": 1000,
      "v": 119
    },
    {
      "midi": 43,
      "hit": false,
      "t": 93600,
      "d": 6450,
      "v": 119
    },
    {
      "midi": 59,
      "hit": false,
      "t": 93600,
      "d": 6450,
      "v": 119
    },
    {
      "midi": 62,
      "hit": false,
      "t": 93600,
      "d": 6450,
      "v": 119
    },
    {
      "midi": 55,
      "hit": false,
      "t": 93600,
      "d": 6500,
      "v": 119
    },
    {
      "midi": 53,
      "hit": false,
      "t": 100800,
      "d": 1000,
      "v": 119
    },
    {
      "midi": 41,
      "hit": false,
      "t": 100800,
      "d": 1050,
      "v": 119
    },
    {
      "midi": 57,
      "hit": false,
      "t": 100800,
      "d": 1050,
      "v": 119
    },
    {
      "midi": 60,
      "hit": false,
      "t": 100800,
      "d": 1050,
      "v": 119
    },
    {
      "midi": 55,
      "hit": false,
      "t": 102000,
      "d": 1000,
      "v": 119
    },
    {
      "midi": 59,
      "hit": false,
      "t": 102000,
      "d": 1000,
      "v": 119
    },
    {
      "midi": 62,
      "hit": false,
      "t": 102000,
      "d": 1000,
      "v": 119
    },
    {
      "midi": 43,
      "hit": false,
      "t": 102000,
      "d": 1050,
      "v": 119
    },
    {
      "midi": 55,
      "hit": false,
      "t": 103200,
      "d": 3500,
      "v": 119
    },
    {
      "midi": 60,
      "hit": false,
      "t": 103200,
      "d": 3500,
      "v": 119
    },
    {
      "midi": 64,
      "hit": false,
      "t": 103200,
      "d": 3500,
      "v": 119
    },
    {
      "midi": 48,
      "hit": false,
      "t": 103200,
      "d": 3550,
      "v": 119
    },
    {
      "midi": 72,
      "hit": false,
      "t": 105600,
      "d": 1750,
      "v": 119
    },
    {
      "midi": 67,
      "hit": false,
      "t": 106200,
      "d": 1200,
      "v": 119
    },
    {
      "midi": 64,
      "hit": false,
      "t": 107400,
      "d": 400,
      "v": 119
    },
    {
      "midi": 58,
      "hit": false,
      "t": 108000,
      "d": 500,
      "v": 119
    },
    {
      "midi": 57,
      "hit": false,
      "t": 108600,
      "d": 500,
      "v": 119
    },
    {
      "midi": 55,
      "hit": false,
      "t": 109200,
      "d": 2600,
      "v": 119
    },
    {
      "midi": 58,
      "hit": false,
      "t": 109200,
      "d": 2600,
      "v": 119
    },
    {
      "midi": 57,
      "hit": false,
      "t": 112800,
      "d": 2950,
      "v": 119
    },
    {
      "midi": 60,
      "hit": false,
      "t": 112800,
      "d": 2950,
      "v": 119
    },
    {
      "midi": 65,
      "hit": false,
      "t": 112800,
      "d": 2950,
      "v": 119
    },
    {
      "midi": 55,
      "hit": false,
      "t": 116350,
      "d": 1050,
      "v": 119
    },
    {
      "midi": 60,
      "hit": false,
      "t": 116350,
      "d": 1050,
      "v": 119
    },
    {
      "midi": 64,
      "hit": false,
      "t": 116350,
      "d": 1050,
      "v": 119
    },
    {
      "midi": 59,
      "hit": false,
      "t": 117550,
      "d": 3850,
      "v": 119
    },
    {
      "midi": 62,
      "hit": false,
      "t": 117550,
      "d": 3850,
      "v": 119
    },
    {
      "midi": 55,
      "hit": false,
      "t": 117550,
      "d": 3900,
      "v": 119
    },
    {
      "midi": 59,
      "hit": false,
      "t": 122350,
      "d": 3550,
      "v": 119
    },
    {
      "midi": 52,
      "hit": false,
      "t": 122350,
      "d": 4200,
      "v": 119
    },
    {
      "midi": 55,
      "hit": false,
      "t": 122350,
      "d": 4200,
      "v": 119
    },
    {
      "midi": 62,
      "hit": false,
      "t": 126000,
      "d": 650,
      "v": 119
    },
    {
      "midi": 57,
      "hit": false,
      "t": 127200,
      "d": 3500,
      "v": 119
    },
    {
      "midi": 60,
      "hit": false,
      "t": 127200,
      "d": 3500,
      "v": 119
    },
    {
      "midi": 64,
      "hit": false,
      "t": 127200,
      "d": 3550,
      "v": 119
    },
    {
      "midi": 69,
      "hit": false,
      "t": 130200,
      "d": 300,
      "v": 119
    },
    {
      "midi": 72,
      "hit": false,
      "t": 130200,
      "d": 300,
      "v": 119
    },
    {
      "midi": 71,
      "hit": false,
      "t": 130500,
      "d": 250,
      "v": 119
    },
    {
      "midi": 74,
      "hit": false,
      "t": 130500,
      "d": 250,
      "v": 119
    },
    {
      "midi": 72,
      "hit": false,
      "t": 130800,
      "d": 850,
      "v": 119
    },
    {
      "midi": 76,
      "hit": false,
      "t": 130800,
      "d": 900,
      "v": 119
    },
    {
      "midi": 62,
      "hit": false,
      "t": 133800,
      "d": 200,
      "v": 119
    },
    {
      "midi": 64,
      "hit": false,
      "t": 134100,
      "d": 250,
      "v": 119
    },
    {
      "midi": 72,
      "hit": false,
      "t": 134350,
      "d": 550,
      "v": 119
    },
    {
      "midi": 64,
      "hit": false,
      "t": 134950,
      "d": 600,
      "v": 119
    },
    {
      "midi": 62,
      "hit": false,
      "t": 135550,
      "d": 550,
      "v": 119
    },
    {
      "midi": 69,
      "hit": false,
      "t": 136100,
      "d": 600,
      "v": 119
    },
    {
      "midi": 67,
      "hit": false,
      "t": 136700,
      "d": 50,
      "v": 119
    },
    {
      "midi": 59,
      "hit": false,
      "t": 136700,
      "d": 3300,
      "v": 119
    },
    {
      "midi": 62,
      "hit": false,
      "t": 136700,
      "d": 3300,
      "v": 119
    },
    {
      "midi": 67,
      "hit": false,
      "t": 136750,
      "d": 3250,
      "v": 119
    },
    {
      "midi": 55,
      "hit": false,
      "t": 141600,
      "d": 3150,
      "v": 119
    },
    {
      "midi": 60,
      "hit": false,
      "t": 141600,
      "d": 3150,
      "v": 119
    },
    {
      "midi": 64,
      "hit": false,
      "t": 141600,
      "d": 3150,
      "v": 119
    },
    {
      "midi": 48,
      "hit": false,
      "t": 141600,
      "d": 3200,
      "v": 119
    },
    {
      "midi": 74,
      "hit": false,
      "t": 145750,
      "d": 300,
      "v": 119
    },
    {
      "midi": 76,
      "hit": false,
      "t": 146050,
      "d": 250,
      "v": 119
    },
    {
      "midi": 77,
      "hit": false,
      "t": 146350,
      "d": 50,
      "v": 119
    },
    {
      "midi": 74,
      "hit": false,
      "t": 146350,
      "d": 1300,
      "v": 119
    },
    {
      "midi": 67,
      "hit": false,
      "t": 146400,
      "d": 3400,
      "v": 119
    },
    {
      "midi": 72,
      "hit": false,
      "t": 146400,
      "d": 3400,
      "v": 119
    },
    {
      "midi": 77,
      "hit": false,
      "t": 146400,
      "d": 3400,
      "v": 119
    },
    {
      "midi": 48,
      "hit": false,
      "t": 151200,
      "d": 4050,
      "v": 119
    },
    {
      "midi": 55,
      "hit": false,
      "t": 151200,
      "d": 4050,
      "v": 119
    },
    {
      "midi": 60,
      "hit": false,
      "t": 151200,
      "d": 4050,
      "v": 119
    },
    {
      "midi": 64,
      "hit": false,
      "t": 151200,
      "d": 4100,
      "v": 119
    },
    {
      "midi": 58,
      "hit": false,
      "t": 156000,
      "d": 3400,
      "v": 119
    },
    {
      "midi": 60,
      "hit": false,
      "t": 156000,
      "d": 3400,
      "v": 119
    },
    {
      "midi": 64,
      "hit": false,
      "t": 156000,
      "d": 3400,
      "v": 119
    },
    {
      "midi": 67,
      "hit": false,
      "t": 156000,
      "d": 3400,
      "v": 119
    },
    {
      "midi": 41,
      "hit": false,
      "t": 160800,
      "d": 3600,
      "v": 119
    },
    {
      "midi": 57,
      "hit": false,
      "t": 160800,
      "d": 3600,
      "v": 119
    },
    {
      "midi": 65,
      "hit": false,
      "t": 160800,
      "d": 3600,
      "v": 119
    },
    {
      "midi": 60,
      "hit": false,
      "t": 160800,
      "d": 3650,
      "v": 119
    },
    {
      "midi": 55,
      "hit": false,
      "t": 165000,
      "d": 450,
      "v": 119
    },
    {
      "midi": 64,
      "hit": false,
      "t": 165000,
      "d": 450,
      "v": 119
    },
    {
      "midi": 60,
      "hit": false,
      "t": 165000,
      "d": 500,
      "v": 119
    },
    {
      "midi": 41,
      "hit": false,
      "t": 165600,
      "d": 3400,
      "v": 119
    },
    {
      "midi": 57,
      "hit": false,
      "t": 165600,
      "d": 3400,
      "v": 119
    },
    {
      "midi": 65,
      "hit": false,
      "t": 165600,
      "d": 3400,
      "v": 119
    },
    {
      "midi": 60,
      "hit": false,
      "t": 165600,
      "d": 3500,
      "v": 119
    },
    {
      "midi": 55,
      "hit": false,
      "t": 169200,
      "d": 1000,
      "v": 119
    },
    {
      "midi": 60,
      "hit": false,
      "t": 169200,
      "d": 1000,
      "v": 119
    },
    {
      "midi": 64,
      "hit": false,
      "t": 169200,
      "d": 1000,
      "v": 119
    },
    {
      "midi": 43,
      "hit": false,
      "t": 170400,
      "d": 6450,
      "v": 119
    },
    {
      "midi": 59,
      "hit": false,
      "t": 170400,
      "d": 6450,
      "v": 119
    },
    {
      "midi": 62,
      "hit": false,
      "t": 170400,
      "d": 6450,
      "v": 119
    },
    {
      "midi": 55,
      "hit": false,
      "t": 170400,
      "d": 6500,
      "v": 119
    },
    {
      "midi": 53,
      "hit": false,
      "t": 177600,
      "d": 1000,
      "v": 119
    },
    {
      "midi": 41,
      "hit": false,
      "t": 177600,
      "d": 1050,
      "v": 119
    },
    {
      "midi": 57,
      "hit": false,
      "t": 177600,
      "d": 1050,
      "v": 119
    },
    {
      "midi": 60,
      "hit": false,
      "t": 177600,
      "d": 1050,
      "v": 119
    },
    {
      "midi": 55,
      "hit": false,
      "t": 178800,
      "d": 1000,
      "v": 119
    },
    {
      "midi": 59,
      "hit": false,
      "t": 178800,
      "d": 1000,
      "v": 119
    },
    {
      "midi": 62,
      "hit": false,
      "t": 178800,
      "d": 1000,
      "v": 119
    },
    {
      "midi": 43,
      "hit": false,
      "t": 178800,
      "d": 1050,
      "v": 119
    },
    {
      "midi": 55,
      "hit": false,
      "t": 180000,
      "d": 3500,
      "v": 119
    },
    {
      "midi": 60,
      "hit": false,
      "t": 180000,
      "d": 3500,
      "v": 119
    },
    {
      "midi": 64,
      "hit": false,
      "t": 180000,
      "d": 3500,
      "v": 119
    },
    {
      "midi": 48,
      "hit": false,
      "t": 180000,
      "d": 3550,
      "v": 119
    },
    {
      "midi": 72,
      "hit": false,
      "t": 182400,
      "d": 1750,
      "v": 119
    },
    {
      "midi": 67,
      "hit": false,
      "t": 183000,
      "d": 1200,
      "v": 119
    },
    {
      "midi": 64,
      "hit": false,
      "t": 184200,
      "d": 400,
      "v": 119
    },
    {
      "midi": 58,
      "hit": false,
      "t": 184800,
      "d": 500,
      "v": 119
    },
    {
      "midi": 57,
      "hit": false,
      "t": 185400,
      "d": 500,
      "v": 119
    },
    {
      "midi": 55,
      "hit": false,
      "t": 186000,
      "d": 2600,
      "v": 119
    },
    {
      "midi": 58,
      "hit": false,
      "t": 186000,
      "d": 2600,
      "v": 119
    },
    {
      "midi": 57,
      "hit": false,
      "t": 189600,
      "d": 2950,
      "v": 119
    },
    {
      "midi": 60,
      "hit": false,
      "t": 189600,
      "d": 2950,
      "v": 119
    },
    {
      "midi": 65,
      "hit": false,
      "t": 189600,
      "d": 2950,
      "v": 119
    },
    {
      "midi": 55,
      "hit": false,
      "t": 193200,
      "d": 1000,
      "v": 119
    },
    {
      "midi": 60,
      "hit": false,
      "t": 193200,
      "d": 1000,
      "v": 119
    },
    {
      "midi": 64,
      "hit": false,
      "t": 193200,
      "d": 1000,
      "v": 119
    },
    {
      "midi": 59,
      "hit": false,
      "t": 194400,
      "d": 3850,
      "v": 119
    },
    {
      "midi": 62,
      "hit": false,
      "t": 194400,
      "d": 3850,
      "v": 119
    },
    {
      "midi": 55,
      "hit": false,
      "t": 194400,
      "d": 3900,
      "v": 119
    },
    {
      "midi": 59,
      "hit": false,
      "t": 199200,
      "d": 3550,
      "v": 119
    },
    {
      "midi": 52,
      "hit": false,
      "t": 199200,
      "d": 4200,
      "v": 119
    },
    {
      "midi": 55,
      "hit": false,
      "t": 199200,
      "d": 4200,
      "v": 119
    },
    {
      "midi": 62,
      "hit": false,
      "t": 202800,
      "d": 650,
      "v": 119
    },
    {
      "midi": 57,
      "hit": false,
      "t": 204000,
      "d": 3500,
      "v": 119
    },
    {
      "midi": 60,
      "hit": false,
      "t": 204000,
      "d": 3500,
      "v": 119
    },
    {
      "midi": 64,
      "hit": false,
      "t": 204000,
      "d": 3550,
      "v": 119
    },
    {
      "midi": 72,
      "hit": false,
      "t": 207000,
      "d": 250,
      "v": 119
    },
    {
      "midi": 69,
      "hit": false,
      "t": 207000,
      "d": 300,
      "v": 119
    },
    {
      "midi": 71,
      "hit": false,
      "t": 207300,
      "d": 250,
      "v": 119
    },
    {
      "midi": 74,
      "hit": false,
      "t": 207300,
      "d": 250,
      "v": 119
    },
    {
      "midi": 72,
      "hit": false,
      "t": 207600,
      "d": 850,
      "v": 119
    },
    {
      "midi": 76,
      "hit": false,
      "t": 207600,
      "d": 850,
      "v": 119
    },
    {
      "midi": 62,
      "hit": false,
      "t": 210600,
      "d": 200,
      "v": 119
    },
    {
      "midi": 64,
      "hit": false,
      "t": 210900,
      "d": 250,
      "v": 119
    },
    {
      "midi": 72,
      "hit": false,
      "t": 211200,
      "d": 550,
      "v": 119
    },
    {
      "midi": 64,
      "hit": false,
      "t": 211800,
      "d": 600,
      "v": 119
    },
    {
      "midi": 62,
      "hit": false,
      "t": 212400,
      "d": 550,
      "v": 119
    },
    {
      "midi": 69,
      "hit": false,
      "t": 213000,
      "d": 600,
      "v": 119
    },
    {
      "midi": 67,
      "hit": false,
      "t": 213600,
      "d": 3.125,
      "v": 119
    },
    {
      "midi": 62,
      "hit": false,
      "t": 213600,
      "d": 3250,
      "v": 119
    },
    {
      "midi": 59,
      "hit": false,
      "t": 213600,
      "d": 3300,
      "v": 119
    },
    {
      "midi": 55,
      "hit": false,
      "t": 218400,
      "d": 3150,
      "v": 119
    },
    {
      "midi": 60,
      "hit": false,
      "t": 218400,
      "d": 3150,
      "v": 119
    },
    {
      "midi": 64,
      "hit": false,
      "t": 218400,
      "d": 3150,
      "v": 119
    },
    {
      "midi": 48,
      "hit": false,
      "t": 218400,
      "d": 3200,
      "v": 119
    },
    {
      "midi": 74,
      "hit": false,
      "t": 222600,
      "d": 300,
      "v": 119
    },
    {
      "midi": 76,
      "hit": false,
      "t": 222900,
      "d": 250,
      "v": 119
    },
    {
      "midi": 77,
      "hit": false,
      "t": 223200,
      "d": 3.125,
      "v": 119
    },
    {
      "midi": 74,
      "hit": false,
      "t": 223200,
      "d": 1300,
      "v": 119
    },
    {
      "midi": 67,
      "hit": false,
      "t": 223200,
      "d": 3400,
      "v": 119
    },
    {
      "midi": 72,
      "hit": false,
      "t": 223200,
      "d": 3400,
      "v": 119
    },
    {
      "midi": 48,
      "hit": false,
      "t": 228000,
      "d": 4050,
      "v": 119
    },
    {
      "midi": 55,
      "hit": false,
      "t": 228000,
      "d": 4050,
      "v": 119
    },
    {
      "midi": 60,
      "hit": false,
      "t": 228000,
      "d": 4050,
      "v": 119
    },
    {
      "midi": 64,
      "hit": false,
      "t": 228000,
      "d": 4100,
      "v": 119
    },
    {
      "midi": 58,
      "hit": false,
      "t": 232800,
      "d": 3400,
      "v": 119
    },
    {
      "midi": 60,
      "hit": false,
      "t": 232800,
      "d": 3400,
      "v": 119
    },
    {
      "midi": 64,
      "hit": false,
      "t": 232800,
      "d": 3400,
      "v": 119
    },
    {
      "midi": 67,
      "hit": false,
      "t": 232800,
      "d": 3400,
      "v": 119
    },
    {
      "midi": 41,
      "hit": false,
      "t": 237600,
      "d": 3600,
      "v": 119
    },
    {
      "midi": 57,
      "hit": false,
      "t": 237600,
      "d": 3600,
      "v": 119
    },
    {
      "midi": 65,
      "hit": false,
      "t": 237600,
      "d": 3600,
      "v": 119
    },
    {
      "midi": 60,
      "hit": false,
      "t": 237600,
      "d": 3650,
      "v": 119
    },
    {
      "midi": 55,
      "hit": false,
      "t": 241800,
      "d": 450,
      "v": 119
    },
    {
      "midi": 64,
      "hit": false,
      "t": 241800,
      "d": 450,
      "v": 119
    },
    {
      "midi": 60,
      "hit": false,
      "t": 241800,
      "d": 500,
      "v": 119
    },
    {
      "midi": 41,
      "hit": false,
      "t": 242400,
      "d": 3400,
      "v": 119
    },
    {
      "midi": 57,
      "hit": false,
      "t": 242400,
      "d": 3400,
      "v": 119
    },
    {
      "midi": 65,
      "hit": false,
      "t": 242400,
      "d": 3400,
      "v": 119
    },
    {
      "midi": 60,
      "hit": false,
      "t": 242400,
      "d": 3500,
      "v": 119
    },
    {
      "midi": 55,
      "hit": false,
      "t": 246000,
      "d": 1000,
      "v": 119
    },
    {
      "midi": 60,
      "hit": false,
      "t": 246000,
      "d": 1000,
      "v": 119
    },
    {
      "midi": 64,
      "hit": false,
      "t": 246000,
      "d": 1000,
      "v": 119
    },
    {
      "midi": 43,
      "hit": false,
      "t": 247200,
      "d": 6450,
      "v": 119
    },
    {
      "midi": 59,
      "hit": false,
      "t": 247200,
      "d": 6450,
      "v": 119
    },
    {
      "midi": 62,
      "hit": false,
      "t": 247200,
      "d": 6450,
      "v": 119
    },
    {
      "midi": 55,
      "hit": false,
      "t": 247200,
      "d": 6500,
      "v": 119
    },
    {
      "midi": 53,
      "hit": false,
      "t": 254400,
      "d": 1000,
      "v": 119
    },
    {
      "midi": 41,
      "hit": false,
      "t": 254400,
      "d": 1050,
      "v": 119
    },
    {
      "midi": 57,
      "hit": false,
      "t": 254400,
      "d": 1050,
      "v": 119
    },
    {
      "midi": 60,
      "hit": false,
      "t": 254400,
      "d": 1050,
      "v": 119
    },
    {
      "midi": 55,
      "hit": false,
      "t": 255600,
      "d": 1000,
      "v": 119
    },
    {
      "midi": 59,
      "hit": false,
      "t": 255600,
      "d": 1000,
      "v": 119
    },
    {
      "midi": 62,
      "hit": false,
      "t": 255600,
      "d": 1000,
      "v": 119
    },
    {
      "midi": 43,
      "hit": false,
      "t": 255600,
      "d": 1050,
      "v": 119
    },
    {
      "midi": 55,
      "hit": false,
      "t": 256800,
      "d": 3500,
      "v": 119
    },
    {
      "midi": 60,
      "hit": false,
      "t": 256800,
      "d": 3500,
      "v": 119
    },
    {
      "midi": 64,
      "hit": false,
      "t": 256800,
      "d": 3500,
      "v": 119
    },
    {
      "midi": 48,
      "hit": false,
      "t": 256800,
      "d": 3550,
      "v": 119
    },
    {
      "midi": 72,
      "hit": false,
      "t": 259200,
      "d": 1750,
      "v": 119
    },
    {
      "midi": 67,
      "hit": false,
      "t": 259800,
      "d": 1200,
      "v": 119
    },
    {
      "midi": 64,
      "hit": false,
      "t": 261000,
      "d": 400,
      "v": 119
    },
    {
      "midi": 58,
      "hit": false,
      "t": 261600,
      "d": 500,
      "v": 119
    },
    {
      "midi": 57,
      "hit": false,
      "t": 262200,
      "d": 500,
      "v": 119
    },
    {
      "midi": 55,
      "hit": false,
      "t": 262800,
      "d": 2600,
      "v": 119
    },
    {
      "midi": 58,
      "hit": false,
      "t": 262800,
      "d": 2600,
      "v": 119
    },
    {
      "midi": 57,
      "hit": false,
      "t": 266400,
      "d": 2950,
      "v": 119
    },
    {
      "midi": 60,
      "hit": false,
      "t": 266400,
      "d": 2950,
      "v": 119
    },
    {
      "midi": 65,
      "hit": false,
      "t": 266400,
      "d": 2950,
      "v": 119
    },
    {
      "midi": 60,
      "hit": false,
      "t": 270000,
      "d": 1000,
      "v": 119
    },
    {
      "midi": 64,
      "hit": false,
      "t": 270000,
      "d": 1000,
      "v": 119
    },
    {
      "midi": 55,
      "hit": false,
      "t": 270000,
      "d": 1050,
      "v": 119
    },
    {
      "midi": 59,
      "hit": false,
      "t": 271200,
      "d": 3850,
      "v": 119
    },
    {
      "midi": 62,
      "hit": false,
      "t": 271200,
      "d": 3850,
      "v": 119
    },
    {
      "midi": 55,
      "hit": false,
      "t": 271200,
      "d": 3900,
      "v": 119
    },
    {
      "midi": 59,
      "hit": false,
      "t": 276000,
      "d": 3550,
      "v": 119
    },
    {
      "midi": 52,
      "hit": false,
      "t": 276000,
      "d": 4200,
      "v": 119
    },
    {
      "midi": 55,
      "hit": false,
      "t": 276000,
      "d": 4200,
      "v": 119
    },
    {
      "midi": 62,
      "hit": false,
      "t": 279600,
      "d": 650,
      "v": 119
    },
    {
      "midi": 57,
      "hit": false,
      "t": 280800,
      "d": 3500,
      "v": 119
    },
    {
      "midi": 60,
      "hit": false,
      "t": 280800,
      "d": 3500,
      "v": 119
    },
    {
      "midi": 64,
      "hit": false,
      "t": 280800,
      "d": 3550,
      "v": 119
    },
    {
      "midi": 72,
      "hit": false,
      "t": 283800,
      "d": 250,
      "v": 119
    },
    {
      "midi": 69,
      "hit": false,
      "t": 283800,
      "d": 300,
      "v": 119
    },
    {
      "midi": 71,
      "hit": false,
      "t": 284100,
      "d": 250,
      "v": 119
    },
    {
      "midi": 74,
      "hit": false,
      "t": 284100,
      "d": 250,
      "v": 119
    },
    {
      "midi": 72,
      "hit": false,
      "t": 284400,
      "d": 850,
      "v": 119
    },
    {
      "midi": 76,
      "hit": false,
      "t": 284400,
      "d": 850,
      "v": 119
    },
    {
      "midi": 62,
      "hit": false,
      "t": 287400,
      "d": 200,
      "v": 119
    },
    {
      "midi": 64,
      "hit": false,
      "t": 287700,
      "d": 250,
      "v": 119
    },
    {
      "midi": 72,
      "hit": false,
      "t": 288000,
      "d": 550,
      "v": 119
    },
    {
      "midi": 64,
      "hit": false,
      "t": 288600,
      "d": 600,
      "v": 119
    },
    {
      "midi": 62,
      "hit": false,
      "t": 289200,
      "d": 550,
      "v": 119
    },
    {
      "midi": 69,
      "hit": false,
      "t": 289800,
      "d": 600,
      "v": 119
    },
    {
      "midi": 67,
      "hit": false,
      "t": 290400,
      "d": 3.125,
      "v": 119
    },
    {
      "midi": 62,
      "hit": false,
      "t": 290400,
      "d": 3250,
      "v": 119
    },
    {
      "midi": 59,
      "hit": false,
      "t": 290400,
      "d": 3300,
      "v": 119
    },
    {
      "midi": 55,
      "hit": false,
      "t": 295200,
      "d": 4000,
      "v": 119
    },
    {
      "midi": 60,
      "hit": false,
      "t": 295200,
      "d": 4050,
      "v": 119
    },
    {
      "midi": 64,
      "hit": false,
      "t": 295200,
      "d": 4050,
      "v": 119
    },
    {
      "midi": 72,
      "hit": false,
      "t": 296950,
      "d": 250,
      "v": 119
    },
    {
      "midi": 74,
      "hit": false,
      "t": 297250,
      "d": 250,
      "v": 119
    },
    {
      "midi": 76,
      "hit": false,
      "t": 297550,
      "d": 550,
      "v": 119
    },
    {
      "midi": 72,
      "hit": false,
      "t": 298150,
      "d": 1000,
      "v": 119
    },
    {
      "midi": 71,
      "hit": false,
      "t": 299350,
      "d": 450,
      "v": 119
    },
    {
      "midi": 74,
      "hit": false,
      "t": 299350,
      "d": 450,
      "v": 119
    },
    {
      "midi": 69,
      "hit": false,
      "t": 299950,
      "d": 3650,
      "v": 119
    },
    {
      "midi": 72,
      "hit": false,
      "t": 299950,
      "d": 3650,
      "v": 119
    },
    {
      "midi": 60,
      "hit": false,
      "t": 300000,
      "d": 4150,
      "v": 119
    },
    {
      "midi": 64,
      "hit": false,
      "t": 300000,
      "d": 4150,
      "v": 119
    },
    {
      "midi": 57,
      "hit": false,
      "t": 300000,
      "d": 4200,
      "v": 119
    },
    {
      "midi": 62,
      "hit": false,
      "t": 306600,
      "d": 200,
      "v": 119
    },
    {
      "midi": 64,
      "hit": false,
      "t": 306900,
      "d": 250,
      "v": 119
    },
    {
      "midi": 72,
      "hit": false,
      "t": 307200,
      "d": 550,
      "v": 119
    },
    {
      "midi": 64,
      "hit": false,
      "t": 307800,
      "d": 600,
      "v": 119
    },
    {
      "midi": 62,
      "hit": false,
      "t": 308400,
      "d": 550,
      "v": 119
    },
    {
      "midi": 69,
      "hit": false,
      "t": 309000,
      "d": 600,
      "v": 119
    },
    {
      "midi": 67,
      "hit": false,
      "t": 309600,
      "d": 3.125,
      "v": 119
    },
    {
      "midi": 62,
      "hit": false,
      "t": 309600,
      "d": 3250,
      "v": 119
    },
    {
      "midi": 59,
      "hit": false,
      "t": 309600,
      "d": 3300,
      "v": 119
    },
    {
      "midi": 67,
      "hit": false,
      "t": 314400,
      "d": 4500,
      "v": 119
    },
    {
      "midi": 72,
      "hit": false,
      "t": 314400,
      "d": 4500,
      "v": 119
    },
    {
      "midi": 55,
      "hit": false,
      "t": 314950,
      "d": 2300,
      "v": 119
    },
    {
      "midi": 60,
      "hit": false,
      "t": 315500,
      "d": 1700,
      "v": 119
    },
    {
      "midi": 62,
      "hit": false,
      "t": 316100,
      "d": 500,
      "v": 119
    },
    {
      "midi": 64,
      "hit": false,
      "t": 316700,
      "d": 550,
      "v": 119
    },
    {
      "midi": 52,
      "hit": false,
      "t": 317300,
      "d": 1700,
      "v": 119
    },
    {
      "midi": 55,
      "hit": false,
      "t": 317900,
      "d": 5600,
      "v": 119
    },
    {
      "midi": 62,
      "hit": false,
      "t": 318500,
      "d": 550,
      "v": 119
    },
    {
      "midi": 62,
      "hit": false,
      "t": 319150,
      "d": 4400,
      "v": 119
    },
    {
      "midi": 65,
      "hit": false,
      "t": 319150,
      "d": 4400,
      "v": 119
    },
    {
      "midi": 43,
      "hit": false,
      "t": 319150,
      "d": 4450,
      "v": 119
    }
  ]
}