{
  "jsonPath": "Latin/Latin Arena Pop/Edurne/cabaret.json",
  "path": "Latin\\Latin Arena Pop\\Edurne\\Cabaret.mid",
  "name": "Cabaret",
  "difficulty": "Advanced",
  "bpm": 213.00010650005325,
  "notes": [
    {
      "midi": 62,
      "hit": false,
      "t": 11428.560000000001,
      "d": 94.69687499999964,
      "v": 98
    },
    {
      "midi": 65,
      "hit": false,
      "t": 11428.560000000001,
      "d": 94.69687499999964,
      "v": 98
    },
    {
      "midi": 70,
      "hit": false,
      "t": 11428.560000000001,
      "d": 94.69687499999964,
      "v": 98
    },
    {
      "midi": 77,
      "hit": false,
      "t": 11688.300000000001,
      "d": 96.0496875000008,
      "v": 98
    },
    {
      "midi": 65,
      "hit": false,
      "t": 11948.040000000003,
      "d": 91.99124999999913,
      "v": 91
    },
    {
      "midi": 70,
      "hit": false,
      "t": 11948.040000000003,
      "d": 91.99124999999913,
      "v": 91
    },
    {
      "midi": 74,
      "hit": false,
      "t": 11948.040000000003,
      "d": 91.99124999999913,
      "v": 91
    },
    {
      "midi": 62,
      "hit": false,
      "t": 12121.200000000003,
      "d": 119.04750000000058,
      "v": 101
    },
    {
      "midi": 70,
      "hit": false,
      "t": 12121.200000000003,
      "d": 119.04750000000058,
      "v": 101
    },
    {
      "midi": 61,
      "hit": false,
      "t": 12380.940000000002,
      "d": 209.68593750000036,
      "v": 98
    },
    {
      "midi": 65,
      "hit": false,
      "t": 12380.940000000002,
      "d": 209.68593750000036,
      "v": 98
    },
    {
      "midi": 69,
      "hit": false,
      "t": 12380.940000000002,
      "d": 209.68593750000036,
      "v": 98
    },
    {
      "midi": 69,
      "hit": false,
      "t": 12900.420000000002,
      "d": 82.52156250000007,
      "v": 115
    },
    {
      "midi": 65,
      "hit": false,
      "t": 12987.000000000002,
      "d": 152.86781250000058,
      "v": 107
    },
    {
      "midi": 72,
      "hit": false,
      "t": 12987.000000000002,
      "d": 152.86781250000058,
      "v": 107
    },
    {
      "midi": 77,
      "hit": false,
      "t": 12987.000000000002,
      "d": 152.86781250000058,
      "v": 107
    },
    {
      "midi": 69,
      "hit": false,
      "t": 13160.160000000002,
      "d": 82.52156250000007,
      "v": 96
    },
    {
      "midi": 72,
      "hit": false,
      "t": 13246.740000000002,
      "d": 169.1015625,
      "v": 112
    },
    {
      "midi": 69,
      "hit": false,
      "t": 13419.900000000001,
      "d": 79.81593749999956,
      "v": 96
    },
    {
      "midi": 73,
      "hit": false,
      "t": 13419.900000000001,
      "d": 79.81593749999956,
      "v": 96
    },
    {
      "midi": 65,
      "hit": false,
      "t": 13506.480000000001,
      "d": 209.68593750000036,
      "v": 94
    },
    {
      "midi": 70,
      "hit": false,
      "t": 13506.480000000001,
      "d": 209.68593750000036,
      "v": 94
    },
    {
      "midi": 74,
      "hit": false,
      "t": 13506.480000000001,
      "d": 209.68593750000036,
      "v": 94
    },
    {
      "midi": 74,
      "hit": false,
      "t": 13766.220000000001,
      "d": 77.11031250000087,
      "v": 91
    },
    {
      "midi": 70,
      "hit": false,
      "t": 13766.220000000001,
      "d": 86.58000000000175,
      "v": 87
    },
    {
      "midi": 77,
      "hit": false,
      "t": 13766.220000000001,
      "d": 91.99125000000095,
      "v": 83
    },
    {
      "midi": 74,
      "hit": false,
      "t": 14285.700000000003,
      "d": 78.46312500000022,
      "v": 103
    },
    {
      "midi": 77,
      "hit": false,
      "t": 14285.700000000003,
      "d": 85.22718750000058,
      "v": 98
    },
    {
      "midi": 70,
      "hit": false,
      "t": 14285.700000000003,
      "d": 91.99125000000095,
      "v": 103
    },
    {
      "midi": 73,
      "hit": false,
      "t": 14805.180000000004,
      "d": 113.63624999999956,
      "v": 103
    },
    {
      "midi": 77,
      "hit": false,
      "t": 14805.180000000004,
      "d": 140.6924999999992,
      "v": 101
    },
    {
      "midi": 69,
      "hit": false,
      "t": 14805.180000000004,
      "d": 151.51499999999942,
      "v": 101
    },
    {
      "midi": 73,
      "hit": false,
      "t": 15238.080000000004,
      "d": 44.64281250000022,
      "v": 106
    },
    {
      "midi": 69,
      "hit": false,
      "t": 15238.080000000004,
      "d": 54.11250000000109,
      "v": 98
    },
    {
      "midi": 77,
      "hit": false,
      "t": 15238.080000000004,
      "d": 64.93500000000131,
      "v": 94
    },
    {
      "midi": 73,
      "hit": false,
      "t": 15324.660000000005,
      "d": 85.22718750000058,
      "v": 89
    },
    {
      "midi": 69,
      "hit": false,
      "t": 15324.660000000005,
      "d": 102.81375000000116,
      "v": 87
    },
    {
      "midi": 77,
      "hit": false,
      "t": 15324.660000000005,
      "d": 113.63625000000138,
      "v": 87
    },
    {
      "midi": 74,
      "hit": false,
      "t": 15584.400000000007,
      "d": 66.28781250000065,
      "v": 101
    },
    {
      "midi": 70,
      "hit": false,
      "t": 15584.400000000007,
      "d": 71.69906249999985,
      "v": 98
    },
    {
      "midi": 77,
      "hit": false,
      "t": 15584.400000000007,
      "d": 74.40468750000036,
      "v": 96
    },
    {
      "midi": 70,
      "hit": false,
      "t": 15844.140000000007,
      "d": 67.640625,
      "v": 106
    },
    {
      "midi": 74,
      "hit": false,
      "t": 15844.140000000007,
      "d": 68.99343749999935,
      "v": 103
    },
    {
      "midi": 77,
      "hit": false,
      "t": 15844.140000000007,
      "d": 94.69687499999964,
      "v": 103
    },
    {
      "midi": 70,
      "hit": false,
      "t": 16277.040000000006,
      "d": 44.64281250000022,
      "v": 98
    },
    {
      "midi": 74,
      "hit": false,
      "t": 16277.040000000006,
      "d": 51.40687500000058,
      "v": 101
    },
    {
      "midi": 77,
      "hit": false,
      "t": 16277.040000000006,
      "d": 71.69906249999985,
      "v": 101
    },
    {
      "midi": 70,
      "hit": false,
      "t": 16363.620000000006,
      "d": 74.40468749999854,
      "v": 87
    },
    {
      "midi": 74,
      "hit": false,
      "t": 16363.620000000006,
      "d": 74.40468749999854,
      "v": 98
    },
    {
      "midi": 77,
      "hit": false,
      "t": 16363.620000000006,
      "d": 98.75531249999767,
      "v": 87
    },
    {
      "midi": 69,
      "hit": false,
      "t": 16623.360000000004,
      "d": 50.05406249999942,
      "v": 101
    },
    {
      "midi": 73,
      "hit": false,
      "t": 16623.360000000004,
      "d": 78.4631249999984,
      "v": 101
    },
    {
      "midi": 77,
      "hit": false,
      "t": 16623.360000000004,
      "d": 81.16874999999709,
      "v": 101
    },
    {
      "midi": 69,
      "hit": false,
      "t": 16883.100000000002,
      "d": 243.50624999999854,
      "v": 103
    },
    {
      "midi": 77,
      "hit": false,
      "t": 16883.100000000002,
      "d": 247.5646874999984,
      "v": 101
    },
    {
      "midi": 73,
      "hit": false,
      "t": 16883.100000000002,
      "d": 254.32874999999694,
      "v": 103
    },
    {
      "midi": 69,
      "hit": false,
      "t": 17316,
      "d": 43.29000000000087,
      "v": 101
    },
    {
      "midi": 73,
      "hit": false,
      "t": 17316,
      "d": 45.99562499999956,
      "v": 103
    },
    {
      "midi": 77,
      "hit": false,
      "t": 17316,
      "d": 45.99562499999956,
      "v": 101
    },
    {
      "midi": 69,
      "hit": false,
      "t": 17402.579999999998,
      "d": 58.17093749999913,
      "v": 101
    },
    {
      "midi": 77,
      "hit": false,
      "t": 17402.579999999998,
      "d": 68.99343749999753,
      "v": 101
    },
    {
      "midi": 73,
      "hit": false,
      "t": 17402.579999999998,
      "d": 71.69906249999622,
      "v": 98
    },
    {
      "midi": 72,
      "hit": false,
      "t": 17662.319999999996,
      "d": 63.582187500000146,
      "v": 103
    },
    {
      "midi": 75,
      "hit": false,
      "t": 17662.319999999996,
      "d": 63.582187500000146,
      "v": 103
    },
    {
      "midi": 77,
      "hit": false,
      "t": 17662.319999999996,
      "d": 75.75749999999971,
      "v": 89
    },
    {
      "midi": 72,
      "hit": false,
      "t": 17922.059999999994,
      "d": 60.876562500001455,
      "v": 112
    },
    {
      "midi": 75,
      "hit": false,
      "t": 17922.059999999994,
      "d": 60.876562500001455,
      "v": 112
    },
    {
      "midi": 77,
      "hit": false,
      "t": 17922.059999999994,
      "d": 83.87437500000306,
      "v": 101
    },
    {
      "midi": 72,
      "hit": false,
      "t": 18354.959999999995,
      "d": 41.93718749999971,
      "v": 101
    },
    {
      "midi": 75,
      "hit": false,
      "t": 18354.959999999995,
      "d": 41.93718749999971,
      "v": 101
    },
    {
      "midi": 77,
      "hit": false,
      "t": 18354.959999999995,
      "d": 52.75968749999811,
      "v": 87
    },
    {
      "midi": 72,
      "hit": false,
      "t": 18441.539999999994,
      "d": 55.46531250000044,
      "v": 101
    },
    {
      "midi": 75,
      "hit": false,
      "t": 18441.539999999994,
      "d": 55.46531250000044,
      "v": 101
    },
    {
      "midi": 77,
      "hit": false,
      "t": 18441.539999999994,
      "d": 79.81593749999956,
      "v": 87
    },
    {
      "midi": 74,
      "hit": false,
      "t": 18701.27999999999,
      "d": 91.99124999999913,
      "v": 109
    },
    {
      "midi": 77,
      "hit": false,
      "t": 18701.27999999999,
      "d": 105.51937499999985,
      "v": 98
    },
    {
      "midi": 76,
      "hit": false,
      "t": 18961.019999999993,
      "d": 117.69468749999942,
      "v": 101
    },
    {
      "midi": 73,
      "hit": false,
      "t": 18961.019999999993,
      "d": 124.45874999999796,
      "v": 101
    },
    {
      "midi": 72,
      "hit": false,
      "t": 19220.75999999999,
      "d": 79.81593749999956,
      "v": 85
    },
    {
      "midi": 75,
      "hit": false,
      "t": 19220.75999999999,
      "d": 85.22718750000058,
      "v": 101
    },
    {
      "midi": 74,
      "hit": false,
      "t": 19393.91999999999,
      "d": 98.75531250000131,
      "v": 101
    },
    {
      "midi": 71,
      "hit": false,
      "t": 19393.91999999999,
      "d": 102.81375000000116,
      "v": 94
    },
    {
      "midi": 60,
      "hit": false,
      "t": 19999.979999999992,
      "d": 124.4587500000016,
      "v": 118
    },
    {
      "midi": 63,
      "hit": false,
      "t": 19999.979999999992,
      "d": 124.4587500000016,
      "v": 118
    },
    {
      "midi": 67,
      "hit": false,
      "t": 19999.979999999992,
      "d": 124.4587500000016,
      "v": 118
    },
    {
      "midi": 63,
      "hit": false,
      "t": 20173.139999999992,
      "d": 86.58000000000175,
      "v": 107
    },
    {
      "midi": 55,
      "hit": false,
      "t": 20259.719999999994,
      "d": 102.81375000000116,
      "v": 92
    },
    {
      "midi": 60,
      "hit": false,
      "t": 20259.719999999994,
      "d": 102.81375000000116,
      "v": 92
    },
    {
      "midi": 67,
      "hit": false,
      "t": 20432.879999999994,
      "d": 128.51718750000146,
      "v": 110
    },
    {
      "midi": 60,
      "hit": false,
      "t": 20519.459999999995,
      "d": 119.04750000000058,
      "v": 110
    },
    {
      "midi": 63,
      "hit": false,
      "t": 20519.459999999995,
      "d": 119.04750000000058,
      "v": 110
    },
    {
      "midi": 55,
      "hit": false,
      "t": 20692.619999999995,
      "d": 113.63624999999956,
      "v": 96
    },
    {
      "midi": 60,
      "hit": false,
      "t": 20692.619999999995,
      "d": 113.63624999999956,
      "v": 96
    },
    {
      "midi": 61,
      "hit": false,
      "t": 21038.939999999995,
      "d": 119.04750000000058,
      "v": 110
    },
    {
      "midi": 64,
      "hit": false,
      "t": 21038.939999999995,
      "d": 119.04750000000058,
      "v": 110
    },
    {
      "midi": 67,
      "hit": false,
      "t": 21038.939999999995,
      "d": 119.04750000000058,
      "v": 110
    },
    {
      "midi": 55,
      "hit": false,
      "t": 21212.099999999995,
      "d": 97.40250000000015,
      "v": 96
    },
    {
      "midi": 64,
      "hit": false,
      "t": 21212.099999999995,
      "d": 97.40250000000015,
      "v": 96
    },
    {
      "midi": 52,
      "hit": false,
      "t": 21298.679999999997,
      "d": 121.75312499999927,
      "v": 92
    },
    {
      "midi": 61,
      "hit": false,
      "t": 21298.679999999997,
      "d": 121.75312499999927,
      "v": 92
    },
    {
      "midi": 67,
      "hit": false,
      "t": 21471.839999999997,
      "d": 132.5756250000013,
      "v": 87
    },
    {
      "midi": 52,
      "hit": false,
      "t": 21558.42,
      "d": 227.27249999999913,
      "v": 92
    },
    {
      "midi": 64,
      "hit": false,
      "t": 21558.42,
      "d": 227.27249999999913,
      "v": 92
    },
    {
      "midi": 55,
      "hit": false,
      "t": 21731.579999999998,
      "d": 116.34187499999825,
      "v": 103
    },
    {
      "midi": 61,
      "hit": false,
      "t": 21731.579999999998,
      "d": 116.34187499999825,
      "v": 103
    },
    {
      "midi": 65,
      "hit": false,
      "t": 22077.899999999998,
      "d": 162.33750000000146,
      "v": 100
    },
    {
      "midi": 69,
      "hit": false,
      "t": 22077.899999999998,
      "d": 162.33750000000146,
      "v": 112
    },
    {
      "midi": 74,
      "hit": false,
      "t": 22077.899999999998,
      "d": 162.33750000000146,
      "v": 112
    },
    {
      "midi": 62,
      "hit": false,
      "t": 22337.64,
      "d": 252.97593749999942,
      "v": 97
    },
    {
      "midi": 65,
      "hit": false,
      "t": 22337.64,
      "d": 252.97593749999942,
      "v": 97
    },
    {
      "midi": 72,
      "hit": false,
      "t": 22337.64,
      "d": 252.97593749999942,
      "v": 109
    },
    {
      "midi": 62,
      "hit": false,
      "t": 22597.379999999997,
      "d": 100.10812499999884,
      "v": 89
    },
    {
      "midi": 65,
      "hit": false,
      "t": 22597.379999999997,
      "d": 100.10812499999884,
      "v": 89
    },
    {
      "midi": 74,
      "hit": false,
      "t": 22597.379999999997,
      "d": 100.10812499999884,
      "v": 101
    },
    {
      "midi": 65,
      "hit": false,
      "t": 22770.539999999997,
      "d": 204.27468750000116,
      "v": 103
    },
    {
      "midi": 67,
      "hit": false,
      "t": 22770.539999999997,
      "d": 204.27468750000116,
      "v": 103
    },
    {
      "midi": 71,
      "hit": false,
      "t": 22770.539999999997,
      "d": 204.27468750000116,
      "v": 115
    },
    {
      "midi": 60,
      "hit": false,
      "t": 23896.079999999998,
      "d": 212.39156250000087,
      "v": 89
    },
    {
      "midi": 63,
      "hit": false,
      "t": 23896.079999999998,
      "d": 213.74437500000204,
      "v": 94
    },
    {
      "midi": 67,
      "hit": false,
      "t": 23896.079999999998,
      "d": 219.15562500000306,
      "v": 89
    },
    {
      "midi": 60,
      "hit": false,
      "t": 24328.98,
      "d": 533.0081250000003,
      "v": 101
    },
    {
      "midi": 67,
      "hit": false,
      "t": 24328.98,
      "d": 539.7721874999988,
      "v": 101
    },
    {
      "midi": 63,
      "hit": false,
      "t": 24328.98,
      "d": 550.5946874999972,
      "v": 101
    },
    {
      "midi": 63,
      "hit": false,
      "t": 24935.039999999997,
      "d": 248.91749999999956,
      "v": 85
    },
    {
      "midi": 65,
      "hit": false,
      "t": 24935.039999999997,
      "d": 252.97593749999942,
      "v": 101
    },
    {
      "midi": 69,
      "hit": false,
      "t": 24935.039999999997,
      "d": 263.7984374999978,
      "v": 98
    },
    {
      "midi": 69,
      "hit": false,
      "t": 25367.939999999995,
      "d": 489.7181249999994,
      "v": 101
    },
    {
      "midi": 65,
      "hit": false,
      "t": 25367.939999999995,
      "d": 503.24625000000015,
      "v": 101
    },
    {
      "midi": 63,
      "hit": false,
      "t": 25367.939999999995,
      "d": 514.0687499999985,
      "v": 101
    },
    {
      "midi": 70,
      "hit": false,
      "t": 25887.419999999995,
      "d": 489.7181249999994,
      "v": 101
    },
    {
      "midi": 65,
      "hit": false,
      "t": 25887.419999999995,
      "d": 503.24625000000015,
      "v": 101
    },
    {
      "midi": 62,
      "hit": false,
      "t": 25887.419999999995,
      "d": 514.0687499999985,
      "v": 101
    },
    {
      "midi": 62,
      "hit": false,
      "t": 28051.919999999995,
      "d": 94.69687500000146,
      "v": 98
    },
    {
      "midi": 65,
      "hit": false,
      "t": 28051.919999999995,
      "d": 94.69687500000146,
      "v": 98
    },
    {
      "midi": 70,
      "hit": false,
      "t": 28051.919999999995,
      "d": 94.69687500000146,
      "v": 98
    },
    {
      "midi": 77,
      "hit": false,
      "t": 28311.659999999996,
      "d": 96.04968749999898,
      "v": 98
    },
    {
      "midi": 65,
      "hit": false,
      "t": 28571.399999999994,
      "d": 91.99124999999913,
      "v": 91
    },
    {
      "midi": 70,
      "hit": false,
      "t": 28571.399999999994,
      "d": 91.99124999999913,
      "v": 91
    },
    {
      "midi": 74,
      "hit": false,
      "t": 28571.399999999994,
      "d": 91.99124999999913,
      "v": 91
    },
    {
      "midi": 62,
      "hit": false,
      "t": 28744.559999999994,
      "d": 119.04750000000058,
      "v": 101
    },
    {
      "midi": 70,
      "hit": false,
      "t": 28744.559999999994,
      "d": 119.04750000000058,
      "v": 101
    },
    {
      "midi": 61,
      "hit": false,
      "t": 29004.299999999996,
      "d": 209.68593749999854,
      "v": 98
    },
    {
      "midi": 65,
      "hit": false,
      "t": 29004.299999999996,
      "d": 209.68593749999854,
      "v": 98
    },
    {
      "midi": 69,
      "hit": false,
      "t": 29004.299999999996,
      "d": 209.68593749999854,
      "v": 98
    },
    {
      "midi": 69,
      "hit": false,
      "t": 29523.779999999995,
      "d": 82.52156249999825,
      "v": 115
    },
    {
      "midi": 65,
      "hit": false,
      "t": 29610.359999999993,
      "d": 152.86781250000058,
      "v": 107
    },
    {
      "midi": 72,
      "hit": false,
      "t": 29610.359999999993,
      "d": 152.86781250000058,
      "v": 107
    },
    {
      "midi": 77,
      "hit": false,
      "t": 29610.359999999993,
      "d": 152.86781250000058,
      "v": 107
    },
    {
      "midi": 69,
      "hit": false,
      "t": 29783.519999999993,
      "d": 82.52156249999825,
      "v": 96
    },
    {
      "midi": 72,
      "hit": false,
      "t": 29870.09999999999,
      "d": 169.1015625,
      "v": 112
    },
    {
      "midi": 69,
      "hit": false,
      "t": 30043.25999999999,
      "d": 79.81593749999956,
      "v": 96
    },
    {
      "midi": 73,
      "hit": false,
      "t": 30043.25999999999,
      "d": 79.81593749999956,
      "v": 96
    },
    {
      "midi": 65,
      "hit": false,
      "t": 30129.83999999999,
      "d": 209.68593749999854,
      "v": 94
    },
    {
      "midi": 70,
      "hit": false,
      "t": 30129.83999999999,
      "d": 209.68593749999854,
      "v": 94
    },
    {
      "midi": 74,
      "hit": false,
      "t": 30129.83999999999,
      "d": 209.68593749999854,
      "v": 94
    },
    {
      "midi": 74,
      "hit": false,
      "t": 30389.579999999987,
      "d": 77.11031250000087,
      "v": 91
    },
    {
      "midi": 70,
      "hit": false,
      "t": 30389.579999999987,
      "d": 86.58000000000175,
      "v": 87
    },
    {
      "midi": 77,
      "hit": false,
      "t": 30389.579999999987,
      "d": 91.99125000000276,
      "v": 83
    },
    {
      "midi": 74,
      "hit": false,
      "t": 30909.05999999999,
      "d": 78.4631249999984,
      "v": 103
    },
    {
      "midi": 77,
      "hit": false,
      "t": 30909.05999999999,
      "d": 85.22718749999694,
      "v": 98
    },
    {
      "midi": 70,
      "hit": false,
      "t": 30909.05999999999,
      "d": 91.99124999999549,
      "v": 103
    },
    {
      "midi": 73,
      "hit": false,
      "t": 31428.539999999986,
      "d": 113.63624999999956,
      "v": 103
    },
    {
      "midi": 77,
      "hit": false,
      "t": 31428.539999999986,
      "d": 140.69250000000102,
      "v": 101
    },
    {
      "midi": 69,
      "hit": false,
      "t": 31428.539999999986,
      "d": 151.51499999999942,
      "v": 101
    },
    {
      "midi": 73,
      "hit": false,
      "t": 31861.439999999984,
      "d": 44.6428124999984,
      "v": 106
    },
    {
      "midi": 69,
      "hit": false,
      "t": 31861.439999999984,
      "d": 54.11249999999927,
      "v": 98
    },
    {
      "midi": 77,
      "hit": false,
      "t": 31861.439999999984,
      "d": 64.93499999999767,
      "v": 94
    },
    {
      "midi": 73,
      "hit": false,
      "t": 31948.019999999982,
      "d": 85.22718750000058,
      "v": 89
    },
    {
      "midi": 69,
      "hit": false,
      "t": 31948.019999999982,
      "d": 102.81375000000116,
      "v": 87
    },
    {
      "midi": 77,
      "hit": false,
      "t": 31948.019999999982,
      "d": 113.63624999999956,
      "v": 87
    },
    {
      "midi": 74,
      "hit": false,
      "t": 32207.75999999998,
      "d": 66.28781249999884,
      "v": 101
    },
    {
      "midi": 70,
      "hit": false,
      "t": 32207.75999999998,
      "d": 71.69906249999985,
      "v": 98
    },
    {
      "midi": 77,
      "hit": false,
      "t": 32207.75999999998,
      "d": 74.40468749999854,
      "v": 96
    },
    {
      "midi": 70,
      "hit": false,
      "t": 32467.499999999978,
      "d": 67.640625,
      "v": 106
    },
    {
      "midi": 74,
      "hit": false,
      "t": 32467.499999999978,
      "d": 68.99343750000116,
      "v": 103
    },
    {
      "midi": 77,
      "hit": false,
      "t": 32467.499999999978,
      "d": 94.69687500000146,
      "v": 103
    },
    {
      "midi": 70,
      "hit": false,
      "t": 32900.39999999998,
      "d": 44.64281250000204,
      "v": 98
    },
    {
      "midi": 74,
      "hit": false,
      "t": 32900.39999999998,
      "d": 51.40687500000058,
      "v": 101
    },
    {
      "midi": 77,
      "hit": false,
      "t": 32900.39999999998,
      "d": 71.69906250000349,
      "v": 101
    },
    {
      "midi": 70,
      "hit": false,
      "t": 32986.97999999998,
      "d": 74.40468749999854,
      "v": 87
    },
    {
      "midi": 74,
      "hit": false,
      "t": 32986.97999999998,
      "d": 74.40468749999854,
      "v": 98
    },
    {
      "midi": 77,
      "hit": false,
      "t": 32986.97999999998,
      "d": 98.75531249999767,
      "v": 87
    },
    {
      "midi": 69,
      "hit": false,
      "t": 33246.71999999998,
      "d": 50.05406249999942,
      "v": 101
    },
    {
      "midi": 73,
      "hit": false,
      "t": 33246.71999999998,
      "d": 78.46312500000204,
      "v": 101
    },
    {
      "midi": 77,
      "hit": false,
      "t": 33246.71999999998,
      "d": 81.16875000000437,
      "v": 101
    },
    {
      "midi": 69,
      "hit": false,
      "t": 33506.459999999985,
      "d": 243.50624999999854,
      "v": 103
    },
    {
      "midi": 77,
      "hit": false,
      "t": 33506.459999999985,
      "d": 247.56468750000204,
      "v": 101
    },
    {
      "midi": 73,
      "hit": false,
      "t": 33506.459999999985,
      "d": 254.32875000000058,
      "v": 103
    },
    {
      "midi": 69,
      "hit": false,
      "t": 33939.359999999986,
      "d": 43.29000000000087,
      "v": 101
    },
    {
      "midi": 73,
      "hit": false,
      "t": 33939.359999999986,
      "d": 45.9956250000032,
      "v": 103
    },
    {
      "midi": 77,
      "hit": false,
      "t": 33939.359999999986,
      "d": 45.9956250000032,
      "v": 101
    },
    {
      "midi": 69,
      "hit": false,
      "t": 34025.93999999999,
      "d": 58.17093749999913,
      "v": 101
    },
    {
      "midi": 77,
      "hit": false,
      "t": 34025.93999999999,
      "d": 68.99343750000116,
      "v": 101
    },
    {
      "midi": 73,
      "hit": false,
      "t": 34025.93999999999,
      "d": 71.69906250000349,
      "v": 98
    },
    {
      "midi": 72,
      "hit": false,
      "t": 34285.67999999999,
      "d": 63.58218749999651,
      "v": 103
    },
    {
      "midi": 75,
      "hit": false,
      "t": 34285.67999999999,
      "d": 63.58218749999651,
      "v": 103
    },
    {
      "midi": 77,
      "hit": false,
      "t": 34285.67999999999,
      "d": 75.75749999999971,
      "v": 89
    },
    {
      "midi": 72,
      "hit": false,
      "t": 34545.41999999999,
      "d": 60.876562500001455,
      "v": 112
    },
    {
      "midi": 75,
      "hit": false,
      "t": 34545.41999999999,
      "d": 60.876562500001455,
      "v": 112
    },
    {
      "midi": 77,
      "hit": false,
      "t": 34545.41999999999,
      "d": 83.87437499999942,
      "v": 101
    },
    {
      "midi": 72,
      "hit": false,
      "t": 34978.31999999999,
      "d": 41.93718749999971,
      "v": 101
    },
    {
      "midi": 75,
      "hit": false,
      "t": 34978.31999999999,
      "d": 41.93718749999971,
      "v": 101
    },
    {
      "midi": 77,
      "hit": false,
      "t": 34978.31999999999,
      "d": 52.759687500001746,
      "v": 87
    },
    {
      "midi": 72,
      "hit": false,
      "t": 35064.899999999994,
      "d": 55.4653124999968,
      "v": 101
    },
    {
      "midi": 75,
      "hit": false,
      "t": 35064.899999999994,
      "d": 55.4653124999968,
      "v": 101
    },
    {
      "midi": 77,
      "hit": false,
      "t": 35064.899999999994,
      "d": 79.81593749999593,
      "v": 87
    },
    {
      "midi": 74,
      "hit": false,
      "t": 35324.63999999999,
      "d": 91.99124999999913,
      "v": 109
    },
    {
      "midi": 77,
      "hit": false,
      "t": 35324.63999999999,
      "d": 105.51937499999622,
      "v": 98
    },
    {
      "midi": 76,
      "hit": false,
      "t": 35584.37999999999,
      "d": 117.69468749999942,
      "v": 101
    },
    {
      "midi": 73,
      "hit": false,
      "t": 35584.37999999999,
      "d": 124.45874999999796,
      "v": 101
    },
    {
      "midi": 72,
      "hit": false,
      "t": 35844.11999999999,
      "d": 79.8159375000032,
      "v": 85
    },
    {
      "midi": 75,
      "hit": false,
      "t": 35844.11999999999,
      "d": 85.22718750000058,
      "v": 101
    },
    {
      "midi": 74,
      "hit": false,
      "t": 36017.27999999999,
      "d": 98.75531249999767,
      "v": 101
    },
    {
      "midi": 71,
      "hit": false,
      "t": 36017.27999999999,
      "d": 102.81375000000116,
      "v": 94
    },
    {
      "midi": 60,
      "hit": false,
      "t": 36623.33999999999,
      "d": 124.45874999999796,
      "v": 118
    },
    {
      "midi": 63,
      "hit": false,
      "t": 36623.33999999999,
      "d": 124.45874999999796,
      "v": 118
    },
    {
      "midi": 67,
      "hit": false,
      "t": 36623.33999999999,
      "d": 124.45874999999796,
      "v": 118
    },
    {
      "midi": 63,
      "hit": false,
      "t": 36796.499999999985,
      "d": 86.58000000000175,
      "v": 107
    },
    {
      "midi": 55,
      "hit": false,
      "t": 36883.07999999999,
      "d": 102.81375000000116,
      "v": 92
    },
    {
      "midi": 60,
      "hit": false,
      "t": 36883.07999999999,
      "d": 102.81375000000116,
      "v": 92
    },
    {
      "midi": 67,
      "hit": false,
      "t": 37056.23999999999,
      "d": 128.51718750000146,
      "v": 110
    },
    {
      "midi": 60,
      "hit": false,
      "t": 37142.81999999999,
      "d": 119.04750000000058,
      "v": 110
    },
    {
      "midi": 63,
      "hit": false,
      "t": 37142.81999999999,
      "d": 119.04750000000058,
      "v": 110
    },
    {
      "midi": 55,
      "hit": false,
      "t": 37315.979999999996,
      "d": 113.6362500000032,
      "v": 96
    },
    {
      "midi": 60,
      "hit": false,
      "t": 37315.979999999996,
      "d": 113.6362500000032,
      "v": 96
    },
    {
      "midi": 61,
      "hit": false,
      "t": 37662.299999999996,
      "d": 119.04750000000058,
      "v": 110
    },
    {
      "midi": 64,
      "hit": false,
      "t": 37662.299999999996,
      "d": 119.04750000000058,
      "v": 110
    },
    {
      "midi": 67,
      "hit": false,
      "t": 37662.299999999996,
      "d": 119.04750000000058,
      "v": 110
    },
    {
      "midi": 55,
      "hit": false,
      "t": 37835.46,
      "d": 97.40250000000378,
      "v": 96
    },
    {
      "midi": 64,
      "hit": false,
      "t": 37835.46,
      "d": 97.40250000000378,
      "v": 96
    },
    {
      "midi": 52,
      "hit": false,
      "t": 37922.04,
      "d": 121.75312500000291,
      "v": 92
    },
    {
      "midi": 61,
      "hit": false,
      "t": 37922.04,
      "d": 121.75312500000291,
      "v": 92
    },
    {
      "midi": 67,
      "hit": false,
      "t": 38095.200000000004,
      "d": 132.57562500000495,
      "v": 87
    },
    {
      "midi": 52,
      "hit": false,
      "t": 38181.780000000006,
      "d": 227.2725000000064,
      "v": 92
    },
    {
      "midi": 64,
      "hit": false,
      "t": 38181.780000000006,
      "d": 227.2725000000064,
      "v": 92
    },
    {
      "midi": 55,
      "hit": false,
      "t": 38354.94000000001,
      "d": 116.34187500000553,
      "v": 103
    },
    {
      "midi": 61,
      "hit": false,
      "t": 38354.94000000001,
      "d": 116.34187500000553,
      "v": 103
    },
    {
      "midi": 65,
      "hit": false,
      "t": 38701.26000000002,
      "d": 162.33750000000146,
      "v": 100
    },
    {
      "midi": 69,
      "hit": false,
      "t": 38701.26000000002,
      "d": 162.33750000000146,
      "v": 112
    },
    {
      "midi": 74,
      "hit": false,
      "t": 38701.26000000002,
      "d": 162.33750000000146,
      "v": 112
    },
    {
      "midi": 62,
      "hit": false,
      "t": 38961.000000000015,
      "d": 252.97593749999942,
      "v": 97
    },
    {
      "midi": 65,
      "hit": false,
      "t": 38961.000000000015,
      "d": 252.97593749999942,
      "v": 97
    },
    {
      "midi": 72,
      "hit": false,
      "t": 38961.000000000015,
      "d": 252.97593749999942,
      "v": 109
    },
    {
      "midi": 62,
      "hit": false,
      "t": 39220.74000000001,
      "d": 100.10812499999884,
      "v": 89
    },
    {
      "midi": 65,
      "hit": false,
      "t": 39220.74000000001,
      "d": 100.10812499999884,
      "v": 89
    },
    {
      "midi": 74,
      "hit": false,
      "t": 39220.74000000001,
      "d": 100.10812499999884,
      "v": 101
    },
    {
      "midi": 65,
      "hit": false,
      "t": 39393.90000000001,
      "d": 204.27468750000116,
      "v": 103
    },
    {
      "midi": 67,
      "hit": false,
      "t": 39393.90000000001,
      "d": 204.27468750000116,
      "v": 103
    },
    {
      "midi": 71,
      "hit": false,
      "t": 39393.90000000001,
      "d": 204.27468750000116,
      "v": 115
    },
    {
      "midi": 60,
      "hit": false,
      "t": 40519.44000000001,
      "d": 212.39156250000087,
      "v": 89
    },
    {
      "midi": 63,
      "hit": false,
      "t": 40519.44000000001,
      "d": 213.74437500000204,
      "v": 94
    },
    {
      "midi": 67,
      "hit": false,
      "t": 40519.44000000001,
      "d": 219.15562499999942,
      "v": 89
    },
    {
      "midi": 60,
      "hit": false,
      "t": 40952.34000000001,
      "d": 533.0081250000003,
      "v": 101
    },
    {
      "midi": 67,
      "hit": false,
      "t": 40952.34000000001,
      "d": 539.7721874999988,
      "v": 101
    },
    {
      "midi": 63,
      "hit": false,
      "t": 40952.34000000001,
      "d": 550.5946875000009,
      "v": 101
    },
    {
      "midi": 63,
      "hit": false,
      "t": 41558.40000000001,
      "d": 248.9175000000032,
      "v": 85
    },
    {
      "midi": 65,
      "hit": false,
      "t": 41558.40000000001,
      "d": 252.9759375000067,
      "v": 101
    },
    {
      "midi": 69,
      "hit": false,
      "t": 41558.40000000001,
      "d": 263.79843750000873,
      "v": 98
    },
    {
      "midi": 69,
      "hit": false,
      "t": 41991.30000000002,
      "d": 489.7181249999994,
      "v": 101
    },
    {
      "midi": 65,
      "hit": false,
      "t": 41991.30000000002,
      "d": 503.2462499999965,
      "v": 101
    },
    {
      "midi": 63,
      "hit": false,
      "t": 41991.30000000002,
      "d": 514.0687499999985,
      "v": 101
    },
    {
      "midi": 70,
      "hit": false,
      "t": 42510.78000000001,
      "d": 489.7181249999994,
      "v": 101
    },
    {
      "midi": 65,
      "hit": false,
      "t": 42510.78000000001,
      "d": 503.2462499999965,
      "v": 101
    },
    {
      "midi": 62,
      "hit": false,
      "t": 42510.78000000001,
      "d": 514.0687499999985,
      "v": 101
    },
    {
      "midi": 63,
      "hit": false,
      "t": 44675.28000000001,
      "d": 94.69687500000146,
      "v": 91
    },
    {
      "midi": 66,
      "hit": false,
      "t": 44675.28000000001,
      "d": 94.69687500000146,
      "v": 96
    },
    {
      "midi": 66,
      "hit": false,
      "t": 44935.02000000001,
      "d": 215.0971875000032,
      "v": 101
    },
    {
      "midi": 63,
      "hit": false,
      "t": 44935.02000000001,
      "d": 220.50843750000058,
      "v": 101
    },
    {
      "midi": 63,
      "hit": false,
      "t": 45367.92000000001,
      "d": 167.74874999999884,
      "v": 87
    },
    {
      "midi": 66,
      "hit": false,
      "t": 45367.92000000001,
      "d": 175.86562499999854,
      "v": 81
    },
    {
      "midi": 63,
      "hit": false,
      "t": 45627.66000000001,
      "d": 74.40468749999854,
      "v": 94
    },
    {
      "midi": 66,
      "hit": false,
      "t": 45627.66000000001,
      "d": 81.16874999999709,
      "v": 101
    },
    {
      "midi": 66,
      "hit": false,
      "t": 45887.40000000001,
      "d": 91.99124999999913,
      "v": 94
    },
    {
      "midi": 63,
      "hit": false,
      "t": 45887.40000000001,
      "d": 102.81375000000116,
      "v": 85
    },
    {
      "midi": 66,
      "hit": false,
      "t": 46233.72000000001,
      "d": 120.40031250000175,
      "v": 98
    },
    {
      "midi": 63,
      "hit": false,
      "t": 46233.72000000001,
      "d": 125.81156249999913,
      "v": 98
    },
    {
      "midi": 66,
      "hit": false,
      "t": 46493.46000000001,
      "d": 102.81375000000116,
      "v": 83
    },
    {
      "midi": 63,
      "hit": false,
      "t": 46493.46000000001,
      "d": 105.51937500000349,
      "v": 87
    },
    {
      "midi": 62,
      "hit": false,
      "t": 46753.20000000001,
      "d": 81.16874999999709,
      "v": 98
    },
    {
      "midi": 65,
      "hit": false,
      "t": 46753.20000000001,
      "d": 105.51937499999622,
      "v": 98
    },
    {
      "midi": 62,
      "hit": false,
      "t": 47012.94000000001,
      "d": 212.39156250000087,
      "v": 106
    },
    {
      "midi": 65,
      "hit": false,
      "t": 47012.94000000001,
      "d": 213.74437500000204,
      "v": 103
    },
    {
      "midi": 62,
      "hit": false,
      "t": 47445.84000000001,
      "d": 47.34843749999709,
      "v": 103
    },
    {
      "midi": 65,
      "hit": false,
      "t": 47445.84000000001,
      "d": 54.112499999995634,
      "v": 94
    },
    {
      "midi": 62,
      "hit": false,
      "t": 47532.420000000006,
      "d": 146.10375000000204,
      "v": 89
    },
    {
      "midi": 65,
      "hit": false,
      "t": 47532.420000000006,
      "d": 147.4565625000032,
      "v": 74
    },
    {
      "midi": 62,
      "hit": false,
      "t": 47792.16000000001,
      "d": 79.8159375000032,
      "v": 106
    },
    {
      "midi": 65,
      "hit": false,
      "t": 47792.16000000001,
      "d": 81.16875000000437,
      "v": 101
    },
    {
      "midi": 62,
      "hit": false,
      "t": 48051.900000000016,
      "d": 235.38937499999884,
      "v": 106
    },
    {
      "midi": 65,
      "hit": false,
      "t": 48051.900000000016,
      "d": 238.09500000000116,
      "v": 94
    },
    {
      "midi": 62,
      "hit": false,
      "t": 48484.80000000002,
      "d": 54.11250000000291,
      "v": 106
    },
    {
      "midi": 65,
      "hit": false,
      "t": 48484.80000000002,
      "d": 54.11250000000291,
      "v": 101
    },
    {
      "midi": 62,
      "hit": false,
      "t": 48571.38000000002,
      "d": 67.640625,
      "v": 87
    },
    {
      "midi": 65,
      "hit": false,
      "t": 48571.38000000002,
      "d": 86.58000000000175,
      "v": 96
    },
    {
      "midi": 55,
      "hit": false,
      "t": 48831.120000000024,
      "d": 60.876562500001455,
      "v": 106
    },
    {
      "midi": 67,
      "hit": false,
      "t": 48831.120000000024,
      "d": 68.99343750000116,
      "v": 98
    },
    {
      "midi": 55,
      "hit": false,
      "t": 49090.86000000002,
      "d": 59.52375000000029,
      "v": 96
    },
    {
      "midi": 67,
      "hit": false,
      "t": 49090.86000000002,
      "d": 62.22937500000262,
      "v": 101
    },
    {
      "midi": 54,
      "hit": false,
      "t": 49350.60000000003,
      "d": 62.22937500000262,
      "v": 101
    },
    {
      "midi": 66,
      "hit": false,
      "t": 49350.60000000003,
      "d": 81.16875000000437,
      "v": 101
    },
    {
      "midi": 54,
      "hit": false,
      "t": 49610.34000000003,
      "d": 70.34625000000233,
      "v": 94
    },
    {
      "midi": 66,
      "hit": false,
      "t": 49610.34000000003,
      "d": 85.22718750000058,
      "v": 101
    },
    {
      "midi": 53,
      "hit": false,
      "t": 49870.08000000003,
      "d": 67.640625,
      "v": 101
    },
    {
      "midi": 65,
      "hit": false,
      "t": 49870.08000000003,
      "d": 86.58000000000175,
      "v": 103
    },
    {
      "midi": 65,
      "hit": false,
      "t": 50129.820000000036,
      "d": 60.876562500001455,
      "v": 103
    },
    {
      "midi": 53,
      "hit": false,
      "t": 50129.820000000036,
      "d": 62.22937500000262,
      "v": 98
    },
    {
      "midi": 52,
      "hit": false,
      "t": 50302.98000000004,
      "d": 66.28781249999884,
      "v": 101
    },
    {
      "midi": 64,
      "hit": false,
      "t": 50302.98000000004,
      "d": 73.05187499999738,
      "v": 101
    },
    {
      "midi": 52,
      "hit": false,
      "t": 50562.72000000004,
      "d": 48.701249999998254,
      "v": 94
    },
    {
      "midi": 64,
      "hit": false,
      "t": 50562.72000000004,
      "d": 54.112499999995634,
      "v": 98
    },
    {
      "midi": 52,
      "hit": false,
      "t": 50649.30000000003,
      "d": 70.34625000000233,
      "v": 89
    },
    {
      "midi": 64,
      "hit": false,
      "t": 50649.30000000003,
      "d": 70.34625000000233,
      "v": 94
    },
    {
      "midi": 51,
      "hit": false,
      "t": 50909.04000000004,
      "d": 56.81812499999796,
      "v": 106
    },
    {
      "midi": 63,
      "hit": false,
      "t": 50909.04000000004,
      "d": 82.52156249999825,
      "v": 103
    },
    {
      "midi": 62,
      "hit": false,
      "t": 52986.960000000036,
      "d": 94.69687500000146,
      "v": 98
    },
    {
      "midi": 65,
      "hit": false,
      "t": 52986.960000000036,
      "d": 94.69687500000146,
      "v": 98
    },
    {
      "midi": 70,
      "hit": false,
      "t": 52986.960000000036,
      "d": 94.69687500000146,
      "v": 98
    },
    {
      "midi": 77,
      "hit": false,
      "t": 53246.70000000003,
      "d": 96.04968750000262,
      "v": 98
    },
    {
      "midi": 65,
      "hit": false,
      "t": 53506.44000000004,
      "d": 91.99124999999913,
      "v": 91
    },
    {
      "midi": 70,
      "hit": false,
      "t": 53506.44000000004,
      "d": 91.99124999999913,
      "v": 91
    },
    {
      "midi": 74,
      "hit": false,
      "t": 53506.44000000004,
      "d": 91.99124999999913,
      "v": 91
    },
    {
      "midi": 62,
      "hit": false,
      "t": 53679.600000000035,
      "d": 119.04750000000058,
      "v": 101
    },
    {
      "midi": 70,
      "hit": false,
      "t": 53679.600000000035,
      "d": 119.04750000000058,
      "v": 101
    },
    {
      "midi": 61,
      "hit": false,
      "t": 53939.34000000003,
      "d": 209.68593749999854,
      "v": 98
    },
    {
      "midi": 65,
      "hit": false,
      "t": 53939.34000000003,
      "d": 209.68593749999854,
      "v": 98
    },
    {
      "midi": 69,
      "hit": false,
      "t": 53939.34000000003,
      "d": 209.68593749999854,
      "v": 98
    },
    {
      "midi": 69,
      "hit": false,
      "t": 54458.82000000003,
      "d": 82.52156249999825,
      "v": 115
    },
    {
      "midi": 65,
      "hit": false,
      "t": 54545.40000000003,
      "d": 152.86781250000058,
      "v": 107
    },
    {
      "midi": 72,
      "hit": false,
      "t": 54545.40000000003,
      "d": 152.86781250000058,
      "v": 107
    },
    {
      "midi": 77,
      "hit": false,
      "t": 54545.40000000003,
      "d": 152.86781250000058,
      "v": 107
    },
    {
      "midi": 69,
      "hit": false,
      "t": 54718.560000000034,
      "d": 82.52156249999825,
      "v": 96
    },
    {
      "midi": 72,
      "hit": false,
      "t": 54805.140000000036,
      "d": 169.1015625,
      "v": 112
    },
    {
      "midi": 69,
      "hit": false,
      "t": 54978.30000000004,
      "d": 79.8159375000032,
      "v": 96
    },
    {
      "midi": 73,
      "hit": false,
      "t": 54978.30000000004,
      "d": 79.8159375000032,
      "v": 96
    },
    {
      "midi": 65,
      "hit": false,
      "t": 55064.88000000004,
      "d": 209.68593749999854,
      "v": 94
    },
    {
      "midi": 70,
      "hit": false,
      "t": 55064.88000000004,
      "d": 209.68593749999854,
      "v": 94
    },
    {
      "midi": 74,
      "hit": false,
      "t": 55064.88000000004,
      "d": 209.68593749999854,
      "v": 94
    },
    {
      "midi": 74,
      "hit": false,
      "t": 55324.62000000004,
      "d": 77.11031250000087,
      "v": 91
    },
    {
      "midi": 70,
      "hit": false,
      "t": 55324.62000000004,
      "d": 86.58000000000175,
      "v": 87
    },
    {
      "midi": 77,
      "hit": false,
      "t": 55324.62000000004,
      "d": 91.99124999999913,
      "v": 83
    },
    {
      "midi": 74,
      "hit": false,
      "t": 55844.100000000035,
      "d": 78.46312500000204,
      "v": 103
    },
    {
      "midi": 77,
      "hit": false,
      "t": 55844.100000000035,
      "d": 85.22718750000058,
      "v": 98
    },
    {
      "midi": 70,
      "hit": false,
      "t": 55844.100000000035,
      "d": 91.99124999999913,
      "v": 103
    },
    {
      "midi": 73,
      "hit": false,
      "t": 56363.58000000003,
      "d": 113.6362500000032,
      "v": 103
    },
    {
      "midi": 77,
      "hit": false,
      "t": 56363.58000000003,
      "d": 140.69250000000466,
      "v": 101
    },
    {
      "midi": 69,
      "hit": false,
      "t": 56363.58000000003,
      "d": 151.5150000000067,
      "v": 101
    },
    {
      "midi": 73,
      "hit": false,
      "t": 56796.48000000004,
      "d": 44.64281250000204,
      "v": 106
    },
    {
      "midi": 69,
      "hit": false,
      "t": 56796.48000000004,
      "d": 54.11250000000291,
      "v": 98
    },
    {
      "midi": 77,
      "hit": false,
      "t": 56796.48000000004,
      "d": 64.93500000000495,
      "v": 94
    },
    {
      "midi": 73,
      "hit": false,
      "t": 56883.06000000004,
      "d": 85.22718750000058,
      "v": 89
    },
    {
      "midi": 69,
      "hit": false,
      "t": 56883.06000000004,
      "d": 102.81375000000116,
      "v": 87
    },
    {
      "midi": 77,
      "hit": false,
      "t": 56883.06000000004,
      "d": 113.6362500000032,
      "v": 87
    },
    {
      "midi": 74,
      "hit": false,
      "t": 57142.80000000005,
      "d": 66.28781249999884,
      "v": 101
    },
    {
      "midi": 70,
      "hit": false,
      "t": 57142.80000000005,
      "d": 71.69906249999622,
      "v": 98
    },
    {
      "midi": 77,
      "hit": false,
      "t": 57142.80000000005,
      "d": 74.40468749999854,
      "v": 96
    },
    {
      "midi": 70,
      "hit": false,
      "t": 57402.540000000045,
      "d": 67.640625,
      "v": 106
    },
    {
      "midi": 74,
      "hit": false,
      "t": 57402.540000000045,
      "d": 68.99343750000116,
      "v": 103
    },
    {
      "midi": 77,
      "hit": false,
      "t": 57402.540000000045,
      "d": 94.69687500000146,
      "v": 103
    },
    {
      "midi": 70,
      "hit": false,
      "t": 57835.440000000046,
      "d": 44.64281250000204,
      "v": 98
    },
    {
      "midi": 74,
      "hit": false,
      "t": 57835.440000000046,
      "d": 51.40687500000058,
      "v": 101
    },
    {
      "midi": 77,
      "hit": false,
      "t": 57835.440000000046,
      "d": 71.69906250000349,
      "v": 101
    },
    {
      "midi": 70,
      "hit": false,
      "t": 57922.02000000005,
      "d": 74.40468749999854,
      "v": 87
    },
    {
      "midi": 74,
      "hit": false,
      "t": 57922.02000000005,
      "d": 74.40468749999854,
      "v": 98
    },
    {
      "midi": 77,
      "hit": false,
      "t": 57922.02000000005,
      "d": 98.75531249999767,
      "v": 87
    },
    {
      "midi": 69,
      "hit": false,
      "t": 58181.760000000046,
      "d": 50.05406249999942,
      "v": 101
    },
    {
      "midi": 73,
      "hit": false,
      "t": 58181.760000000046,
      "d": 78.46312500000204,
      "v": 101
    },
    {
      "midi": 77,
      "hit": false,
      "t": 58181.760000000046,
      "d": 81.16875000000437,
      "v": 101
    },
    {
      "midi": 69,
      "hit": false,
      "t": 58441.50000000005,
      "d": 243.50624999999854,
      "v": 103
    },
    {
      "midi": 77,
      "hit": false,
      "t": 58441.50000000005,
      "d": 247.56468750000204,
      "v": 101
    },
    {
      "midi": 73,
      "hit": false,
      "t": 58441.50000000005,
      "d": 254.32875000000058,
      "v": 103
    },
    {
      "midi": 69,
      "hit": false,
      "t": 58874.40000000005,
      "d": 43.29000000000087,
      "v": 101
    },
    {
      "midi": 73,
      "hit": false,
      "t": 58874.40000000005,
      "d": 45.9956250000032,
      "v": 103
    },
    {
      "midi": 77,
      "hit": false,
      "t": 58874.40000000005,
      "d": 45.9956250000032,
      "v": 101
    },
    {
      "midi": 69,
      "hit": false,
      "t": 58960.980000000054,
      "d": 58.17093749999913,
      "v": 101
    },
    {
      "midi": 77,
      "hit": false,
      "t": 58960.980000000054,
      "d": 68.99343750000116,
      "v": 101
    },
    {
      "midi": 73,
      "hit": false,
      "t": 58960.980000000054,
      "d": 71.69906250000349,
      "v": 98
    },
    {
      "midi": 72,
      "hit": false,
      "t": 59220.72000000006,
      "d": 63.58218749999651,
      "v": 103
    },
    {
      "midi": 75,
      "hit": false,
      "t": 59220.72000000006,
      "d": 63.58218749999651,
      "v": 103
    },
    {
      "midi": 77,
      "hit": false,
      "t": 59220.72000000006,
      "d": 75.75749999999971,
      "v": 89
    },
    {
      "midi": 72,
      "hit": false,
      "t": 59480.46000000006,
      "d": 60.876562500001455,
      "v": 112
    },
    {
      "midi": 75,
      "hit": false,
      "t": 59480.46000000006,
      "d": 60.876562500001455,
      "v": 112
    },
    {
      "midi": 77,
      "hit": false,
      "t": 59480.46000000006,
      "d": 83.87437499999942,
      "v": 101
    },
    {
      "midi": 72,
      "hit": false,
      "t": 59913.36000000006,
      "d": 41.93718749999971,
      "v": 101
    },
    {
      "midi": 75,
      "hit": false,
      "t": 59913.36000000006,
      "d": 41.93718749999971,
      "v": 101
    },
    {
      "midi": 77,
      "hit": false,
      "t": 59913.36000000006,
      "d": 52.759687500001746,
      "v": 87
    },
    {
      "midi": 72,
      "hit": false,
      "t": 59999.94000000006,
      "d": 55.4653124999968,
      "v": 101
    },
    {
      "midi": 75,
      "hit": false,
      "t": 59999.94000000006,
      "d": 55.4653124999968,
      "v": 101
    },
    {
      "midi": 77,
      "hit": false,
      "t": 59999.94000000006,
      "d": 79.81593749999593,
      "v": 87
    },
    {
      "midi": 74,
      "hit": false,
      "t": 60259.68000000006,
      "d": 91.99124999999913,
      "v": 109
    },
    {
      "midi": 77,
      "hit": false,
      "t": 60259.68000000006,
      "d": 105.51937499999622,
      "v": 98
    },
    {
      "midi": 76,
      "hit": false,
      "t": 60519.42000000006,
      "d": 117.69468749999942,
      "v": 101
    },
    {
      "midi": 73,
      "hit": false,
      "t": 60519.42000000006,
      "d": 124.45874999999796,
      "v": 101
    },
    {
      "midi": 72,
      "hit": false,
      "t": 60779.160000000054,
      "d": 79.8159375000032,
      "v": 85
    },
    {
      "midi": 75,
      "hit": false,
      "t": 60779.160000000054,
      "d": 85.22718750000058,
      "v": 101
    },
    {
      "midi": 74,
      "hit": false,
      "t": 60952.32000000006,
      "d": 98.75531249999767,
      "v": 101
    },
    {
      "midi": 71,
      "hit": false,
      "t": 60952.32000000006,
      "d": 102.81375000000116,
      "v": 94
    },
    {
      "midi": 60,
      "hit": false,
      "t": 61558.380000000056,
      "d": 124.45874999999796,
      "v": 118
    },
    {
      "midi": 63,
      "hit": false,
      "t": 61558.380000000056,
      "d": 124.45874999999796,
      "v": 118
    },
    {
      "midi": 67,
      "hit": false,
      "t": 61558.380000000056,
      "d": 124.45874999999796,
      "v": 118
    },
    {
      "midi": 63,
      "hit": false,
      "t": 61731.54000000005,
      "d": 86.58000000000175,
      "v": 107
    },
    {
      "midi": 55,
      "hit": false,
      "t": 61818.12000000005,
      "d": 102.81375000000116,
      "v": 92
    },
    {
      "midi": 60,
      "hit": false,
      "t": 61818.12000000005,
      "d": 102.81375000000116,
      "v": 92
    },
    {
      "midi": 67,
      "hit": false,
      "t": 61991.28000000006,
      "d": 128.51718750000146,
      "v": 110
    },
    {
      "midi": 60,
      "hit": false,
      "t": 62077.86000000006,
      "d": 119.04750000000058,
      "v": 110
    },
    {
      "midi": 63,
      "hit": false,
      "t": 62077.86000000006,
      "d": 119.04750000000058,
      "v": 110
    },
    {
      "midi": 55,
      "hit": false,
      "t": 62251.02000000006,
      "d": 113.6362500000032,
      "v": 96
    },
    {
      "midi": 60,
      "hit": false,
      "t": 62251.02000000006,
      "d": 113.6362500000032,
      "v": 96
    },
    {
      "midi": 61,
      "hit": false,
      "t": 62597.34000000006,
      "d": 119.04750000000058,
      "v": 110
    },
    {
      "midi": 64,
      "hit": false,
      "t": 62597.34000000006,
      "d": 119.04750000000058,
      "v": 110
    },
    {
      "midi": 67,
      "hit": false,
      "t": 62597.34000000006,
      "d": 119.04750000000058,
      "v": 110
    },
    {
      "midi": 55,
      "hit": false,
      "t": 62770.500000000065,
      "d": 97.40250000000378,
      "v": 96
    },
    {
      "midi": 64,
      "hit": false,
      "t": 62770.500000000065,
      "d": 97.40250000000378,
      "v": 96
    },
    {
      "midi": 52,
      "hit": false,
      "t": 62857.08000000007,
      "d": 121.75312500000291,
      "v": 92
    },
    {
      "midi": 61,
      "hit": false,
      "t": 62857.08000000007,
      "d": 121.75312500000291,
      "v": 92
    },
    {
      "midi": 67,
      "hit": false,
      "t": 63030.24000000007,
      "d": 132.57562500000495,
      "v": 87
    },
    {
      "midi": 52,
      "hit": false,
      "t": 63116.82000000007,
      "d": 227.2725000000064,
      "v": 92
    },
    {
      "midi": 64,
      "hit": false,
      "t": 63116.82000000007,
      "d": 227.2725000000064,
      "v": 92
    },
    {
      "midi": 55,
      "hit": false,
      "t": 63289.980000000076,
      "d": 116.34187500000553,
      "v": 103
    },
    {
      "midi": 61,
      "hit": false,
      "t": 63289.980000000076,
      "d": 116.34187500000553,
      "v": 103
    },
    {
      "midi": 65,
      "hit": false,
      "t": 63636.30000000008,
      "d": 162.33750000000146,
      "v": 100
    },
    {
      "midi": 69,
      "hit": false,
      "t": 63636.30000000008,
      "d": 162.33750000000146,
      "v": 112
    },
    {
      "midi": 74,
      "hit": false,
      "t": 63636.30000000008,
      "d": 162.33750000000146,
      "v": 112
    },
    {
      "midi": 62,
      "hit": false,
      "t": 63896.04000000008,
      "d": 252.97593749999942,
      "v": 97
    },
    {
      "midi": 65,
      "hit": false,
      "t": 63896.04000000008,
      "d": 252.97593749999942,
      "v": 97
    },
    {
      "midi": 72,
      "hit": false,
      "t": 63896.04000000008,
      "d": 252.97593749999942,
      "v": 109
    },
    {
      "midi": 62,
      "hit": false,
      "t": 64155.78000000008,
      "d": 100.10812499999884,
      "v": 89
    },
    {
      "midi": 65,
      "hit": false,
      "t": 64155.78000000008,
      "d": 100.10812499999884,
      "v": 89
    },
    {
      "midi": 74,
      "hit": false,
      "t": 64155.78000000008,
      "d": 100.10812499999884,
      "v": 101
    },
    {
      "midi": 65,
      "hit": false,
      "t": 64328.940000000075,
      "d": 204.27468750000116,
      "v": 103
    },
    {
      "midi": 67,
      "hit": false,
      "t": 64328.940000000075,
      "d": 204.27468750000116,
      "v": 103
    },
    {
      "midi": 71,
      "hit": false,
      "t": 64328.940000000075,
      "d": 204.27468750000116,
      "v": 115
    },
    {
      "midi": 60,
      "hit": false,
      "t": 65454.480000000076,
      "d": 212.39156250000087,
      "v": 89
    },
    {
      "midi": 63,
      "hit": false,
      "t": 65454.480000000076,
      "d": 213.74437500000204,
      "v": 94
    },
    {
      "midi": 67,
      "hit": false,
      "t": 65454.480000000076,
      "d": 219.1556250000067,
      "v": 89
    },
    {
      "midi": 60,
      "hit": false,
      "t": 65887.38000000008,
      "d": 533.008124999993,
      "v": 101
    },
    {
      "midi": 67,
      "hit": false,
      "t": 65887.38000000008,
      "d": 539.7721874999988,
      "v": 101
    },
    {
      "midi": 63,
      "hit": false,
      "t": 65887.38000000008,
      "d": 550.5946874999936,
      "v": 101
    },
    {
      "midi": 63,
      "hit": false,
      "t": 66493.44000000008,
      "d": 248.91749999999593,
      "v": 85
    },
    {
      "midi": 65,
      "hit": false,
      "t": 66493.44000000008,
      "d": 252.97593749999942,
      "v": 101
    },
    {
      "midi": 69,
      "hit": false,
      "t": 66493.44000000008,
      "d": 263.7984374999942,
      "v": 98
    },
    {
      "midi": 69,
      "hit": false,
      "t": 66926.34000000007,
      "d": 489.7181249999994,
      "v": 101
    },
    {
      "midi": 65,
      "hit": false,
      "t": 66926.34000000007,
      "d": 503.2462499999965,
      "v": 101
    },
    {
      "midi": 63,
      "hit": false,
      "t": 66926.34000000007,
      "d": 514.0687499999913,
      "v": 101
    },
    {
      "midi": 70,
      "hit": false,
      "t": 67445.82000000007,
      "d": 489.7181249999994,
      "v": 101
    },
    {
      "midi": 65,
      "hit": false,
      "t": 67445.82000000007,
      "d": 503.2462499999965,
      "v": 101
    },
    {
      "midi": 62,
      "hit": false,
      "t": 67445.82000000007,
      "d": 514.0687499999913,
      "v": 101
    },
    {
      "midi": 65,
      "hit": false,
      "t": 71688.24000000006,
      "d": 79.81593750001048,
      "v": 103
    },
    {
      "midi": 74,
      "hit": false,
      "t": 71689.59281250006,
      "d": 89.28562500000407,
      "v": 113
    },
    {
      "midi": 70,
      "hit": false,
      "t": 71690.94562500007,
      "d": 40.58437500000582,
      "v": 108
    },
    {
      "midi": 65,
      "hit": false,
      "t": 71946.62718750007,
      "d": 124.45875000000524,
      "v": 109
    },
    {
      "midi": 70,
      "hit": false,
      "t": 71950.68562500007,
      "d": 132.57562499999767,
      "v": 113
    },
    {
      "midi": 74,
      "hit": false,
      "t": 71952.03843750007,
      "d": 121.75312500000291,
      "v": 115
    },
    {
      "midi": 65,
      "hit": false,
      "t": 72463.40156250008,
      "d": 74.40468750000582,
      "v": 106
    },
    {
      "midi": 74,
      "hit": false,
      "t": 72464.75437500008,
      "d": 85.22718750000058,
      "v": 114
    },
    {
      "midi": 70,
      "hit": false,
      "t": 72464.75437500008,
      "d": 86.58000000000175,
      "v": 108
    },
    {
      "midi": 69,
      "hit": false,
      "t": 72729.90562500007,
      "d": 66.28781249999884,
      "v": 116
    },
    {
      "midi": 65,
      "hit": false,
      "t": 72729.90562500007,
      "d": 70.34625000000233,
      "v": 113
    },
    {
      "midi": 73,
      "hit": false,
      "t": 72731.25843750007,
      "d": 89.28562500000407,
      "v": 110
    },
    {
      "midi": 69,
      "hit": false,
      "t": 72985.58718750007,
      "d": 139.3396875000035,
      "v": 115
    },
    {
      "midi": 65,
      "hit": false,
      "t": 72986.94000000008,
      "d": 139.3396875000035,
      "v": 109
    },
    {
      "midi": 73,
      "hit": false,
      "t": 72988.29281250008,
      "d": 159.6318750000064,
      "v": 110
    },
    {
      "midi": 69,
      "hit": false,
      "t": 73503.71437500008,
      "d": 81.16874999999709,
      "v": 115
    },
    {
      "midi": 65,
      "hit": false,
      "t": 73505.06718750008,
      "d": 82.52156249999825,
      "v": 108
    },
    {
      "midi": 73,
      "hit": false,
      "t": 73506.42000000009,
      "d": 120.40031250000175,
      "v": 108
    },
    {
      "midi": 65,
      "hit": false,
      "t": 73764.80718750009,
      "d": 67.64062500001455,
      "v": 109
    },
    {
      "midi": 74,
      "hit": false,
      "t": 73764.80718750009,
      "d": 87.93281250001746,
      "v": 115
    },
    {
      "midi": 70,
      "hit": false,
      "t": 73766.16000000009,
      "d": 58.1709375000064,
      "v": 110
    },
    {
      "midi": 70,
      "hit": false,
      "t": 74021.8415625001,
      "d": 150.16218749999825,
      "v": 115
    },
    {
      "midi": 74,
      "hit": false,
      "t": 74023.19437500011,
      "d": 150.16218749999825,
      "v": 115
    },
    {
      "midi": 65,
      "hit": false,
      "t": 74024.54718750011,
      "d": 147.45656249999593,
      "v": 112
    },
    {
      "midi": 65,
      "hit": false,
      "t": 75841.3743750001,
      "d": 66.28781249999884,
      "v": 107
    },
    {
      "midi": 70,
      "hit": false,
      "t": 75844.0800000001,
      "d": 90.63843750000524,
      "v": 114
    },
    {
      "midi": 74,
      "hit": false,
      "t": 75848.1384375001,
      "d": 82.52156249999825,
      "v": 115
    },
    {
      "midi": 74,
      "hit": false,
      "t": 76103.82000000011,
      "d": 131.2228124999965,
      "v": 115
    },
    {
      "midi": 65,
      "hit": false,
      "t": 76105.17281250011,
      "d": 113.63624999999593,
      "v": 106
    },
    {
      "midi": 70,
      "hit": false,
      "t": 76106.52562500011,
      "d": 127.16437499999302,
      "v": 112
    },
    {
      "midi": 74,
      "hit": false,
      "t": 76620.5943750001,
      "d": 74.40468750000582,
      "v": 115
    },
    {
      "midi": 65,
      "hit": false,
      "t": 76623.3000000001,
      "d": 64.93499999999767,
      "v": 106
    },
    {
      "midi": 70,
      "hit": false,
      "t": 76623.3000000001,
      "d": 73.05187500000466,
      "v": 114
    },
    {
      "midi": 65,
      "hit": false,
      "t": 76883.04000000011,
      "d": 66.28781249999884,
      "v": 110
    },
    {
      "midi": 73,
      "hit": false,
      "t": 76884.39281250011,
      "d": 86.58000000000175,
      "v": 113
    },
    {
      "midi": 69,
      "hit": false,
      "t": 76885.74562500011,
      "d": 59.523749999993015,
      "v": 116
    },
    {
      "midi": 73,
      "hit": false,
      "t": 77140.07437500011,
      "d": 174.5128125000192,
      "v": 112
    },
    {
      "midi": 69,
      "hit": false,
      "t": 77144.13281250012,
      "d": 155.5734375000029,
      "v": 118
    },
    {
      "midi": 65,
      "hit": false,
      "t": 77144.13281250012,
      "d": 163.6903125000099,
      "v": 109
    },
    {
      "midi": 65,
      "hit": false,
      "t": 77658.20156250014,
      "d": 67.640625,
      "v": 109
    },
    {
      "midi": 73,
      "hit": false,
      "t": 77660.90718750014,
      "d": 94.69687499999418,
      "v": 112
    },
    {
      "midi": 69,
      "hit": false,
      "t": 77662.26000000014,
      "d": 66.28781249999884,
      "v": 118
    },
    {
      "midi": 70,
      "hit": false,
      "t": 77922.00000000013,
      "d": 78.46312499999476,
      "v": 114
    },
    {
      "midi": 74,
      "hit": false,
      "t": 77922.00000000013,
      "d": 81.16874999999709,
      "v": 115
    },
    {
      "midi": 65,
      "hit": false,
      "t": 77924.70562500013,
      "d": 59.523749999993015,
      "v": 109
    },
    {
      "midi": 65,
      "hit": false,
      "t": 78181.74000000012,
      "d": 135.28125,
      "v": 112
    },
    {
      "midi": 74,
      "hit": false,
      "t": 78181.74000000012,
      "d": 135.28125,
      "v": 118
    },
    {
      "midi": 70,
      "hit": false,
      "t": 78185.79843750013,
      "d": 131.2228124999965,
      "v": 118
    },
    {
      "midi": 58,
      "hit": false,
      "t": 79999.92000000011,
      "d": 83.87437499999942,
      "v": 112
    },
    {
      "midi": 55,
      "hit": false,
      "t": 79999.92000000011,
      "d": 85.22718750000058,
      "v": 108
    },
    {
      "midi": 63,
      "hit": false,
      "t": 79999.92000000011,
      "d": 108.22500000000582,
      "v": 106
    },
    {
      "midi": 55,
      "hit": false,
      "t": 80259.66000000012,
      "d": 135.28125,
      "v": 112
    },
    {
      "midi": 58,
      "hit": false,
      "t": 80259.66000000012,
      "d": 136.63406250000116,
      "v": 114
    },
    {
      "midi": 63,
      "hit": false,
      "t": 80259.66000000012,
      "d": 137.98687500000233,
      "v": 112
    },
    {
      "midi": 55,
      "hit": false,
      "t": 80779.14000000012,
      "d": 71.69906250000349,
      "v": 105
    },
    {
      "midi": 63,
      "hit": false,
      "t": 80779.14000000012,
      "d": 89.28562500000407,
      "v": 106
    },
    {
      "midi": 58,
      "hit": false,
      "t": 80779.14000000012,
      "d": 96.0496875000099,
      "v": 110
    },
    {
      "midi": 60,
      "hit": false,
      "t": 81038.88000000012,
      "d": 56.81812500000524,
      "v": 93
    },
    {
      "midi": 57,
      "hit": false,
      "t": 81038.88000000012,
      "d": 105.51937500000349,
      "v": 113
    },
    {
      "midi": 54,
      "hit": false,
      "t": 81038.88000000012,
      "d": 109.57781250000698,
      "v": 103
    },
    {
      "midi": 62,
      "hit": false,
      "t": 81038.88000000012,
      "d": 147.45656250001048,
      "v": 107
    },
    {
      "midi": 60,
      "hit": false,
      "t": 81298.62000000013,
      "d": 33.8203125,
      "v": 91
    },
    {
      "midi": 54,
      "hit": false,
      "t": 81298.62000000013,
      "d": 125.8115625000064,
      "v": 105
    },
    {
      "midi": 57,
      "hit": false,
      "t": 81298.62000000013,
      "d": 160.98468750000757,
      "v": 114
    },
    {
      "midi": 62,
      "hit": false,
      "t": 81298.62000000013,
      "d": 165.04312500001106,
      "v": 110
    },
    {
      "midi": 57,
      "hit": false,
      "t": 81818.10000000014,
      "d": 81.16874999999709,
      "v": 107
    },
    {
      "midi": 54,
      "hit": false,
      "t": 81818.10000000014,
      "d": 98.75531249999767,
      "v": 97
    },
    {
      "midi": 62,
      "hit": false,
      "t": 81818.10000000014,
      "d": 131.2228124999965,
      "v": 107
    },
    {
      "midi": 55,
      "hit": false,
      "t": 82077.84000000013,
      "d": 60.87656249999418,
      "v": 112
    },
    {
      "midi": 58,
      "hit": false,
      "t": 82077.84000000013,
      "d": 83.87437499999942,
      "v": 106
    },
    {
      "midi": 62,
      "hit": false,
      "t": 82077.84000000013,
      "d": 110.9306249999936,
      "v": 108
    },
    {
      "midi": 55,
      "hit": false,
      "t": 82337.58000000012,
      "d": 150.16218749999825,
      "v": 114
    },
    {
      "midi": 58,
      "hit": false,
      "t": 82337.58000000012,
      "d": 159.63187499999185,
      "v": 115
    },
    {
      "midi": 62,
      "hit": false,
      "t": 82337.58000000012,
      "d": 175.86562499999127,
      "v": 115
    },
    {
      "midi": 55,
      "hit": false,
      "t": 84154.40718750011,
      "d": 112.28343750000931,
      "v": 112
    },
    {
      "midi": 58,
      "hit": false,
      "t": 84154.40718750011,
      "d": 112.28343750000931,
      "v": 109
    },
    {
      "midi": 64,
      "hit": false,
      "t": 84155.76000000011,
      "d": 119.04750000001513,
      "v": 113
    },
    {
      "midi": 60,
      "hit": false,
      "t": 84157.11281250011,
      "d": 104.16656250000233,
      "v": 113
    },
    {
      "midi": 60,
      "hit": false,
      "t": 85194.72000000013,
      "d": 133.92843749999884,
      "v": 118
    },
    {
      "midi": 58,
      "hit": false,
      "t": 85196.07281250013,
      "d": 151.51499999998487,
      "v": 115
    },
    {
      "midi": 55,
      "hit": false,
      "t": 85197.42562500013,
      "d": 140.6924999999901,
      "v": 116
    },
    {
      "midi": 64,
      "hit": false,
      "t": 85198.77843750014,
      "d": 127.16437499999302,
      "v": 116
    },
    {
      "midi": 65,
      "hit": false,
      "t": 88311.60000000012,
      "d": 79.81593750001048,
      "v": 103
    },
    {
      "midi": 74,
      "hit": false,
      "t": 88312.95281250012,
      "d": 89.28562500000407,
      "v": 113
    },
    {
      "midi": 70,
      "hit": false,
      "t": 88314.30562500012,
      "d": 40.58437500000582,
      "v": 108
    },
    {
      "midi": 65,
      "hit": false,
      "t": 88569.98718750013,
      "d": 124.45875000000524,
      "v": 109
    },
    {
      "midi": 70,
      "hit": false,
      "t": 88574.04562500013,
      "d": 132.57562499999767,
      "v": 113
    },
    {
      "midi": 74,
      "hit": false,
      "t": 88575.39843750013,
      "d": 121.75312500000291,
      "v": 115
    },
    {
      "midi": 65,
      "hit": false,
      "t": 89086.76156250013,
      "d": 74.40468750000582,
      "v": 106
    },
    {
      "midi": 74,
      "hit": false,
      "t": 89088.11437500014,
      "d": 85.22718750000058,
      "v": 114
    },
    {
      "midi": 70,
      "hit": false,
      "t": 89088.11437500014,
      "d": 86.58000000000175,
      "v": 108
    },
    {
      "midi": 69,
      "hit": false,
      "t": 89353.26562500013,
      "d": 66.28781249999884,
      "v": 116
    },
    {
      "midi": 65,
      "hit": false,
      "t": 89353.26562500013,
      "d": 70.34625000000233,
      "v": 113
    },
    {
      "midi": 73,
      "hit": false,
      "t": 89354.61843750013,
      "d": 89.28562500000407,
      "v": 110
    },
    {
      "midi": 69,
      "hit": false,
      "t": 89608.94718750013,
      "d": 139.3396875000035,
      "v": 115
    },
    {
      "midi": 65,
      "hit": false,
      "t": 89610.30000000013,
      "d": 139.3396875000035,
      "v": 109
    },
    {
      "midi": 73,
      "hit": false,
      "t": 89611.65281250014,
      "d": 159.6318750000064,
      "v": 110
    },
    {
      "midi": 69,
      "hit": false,
      "t": 90127.07437500014,
      "d": 81.16874999999709,
      "v": 115
    },
    {
      "midi": 65,
      "hit": false,
      "t": 90128.42718750014,
      "d": 82.52156249999825,
      "v": 108
    },
    {
      "midi": 73,
      "hit": false,
      "t": 90129.78000000014,
      "d": 120.40031250000175,
      "v": 108
    },
    {
      "midi": 65,
      "hit": false,
      "t": 90388.16718750015,
      "d": 67.64062500001455,
      "v": 109
    },
    {
      "midi": 74,
      "hit": false,
      "t": 90388.16718750015,
      "d": 87.93281250001746,
      "v": 115
    },
    {
      "midi": 70,
      "hit": false,
      "t": 90389.52000000015,
      "d": 58.1709375000064,
      "v": 110
    },
    {
      "midi": 70,
      "hit": false,
      "t": 90645.20156250017,
      "d": 150.16218749999825,
      "v": 115
    },
    {
      "midi": 74,
      "hit": false,
      "t": 90646.55437500017,
      "d": 150.16218749999825,
      "v": 115
    },
    {
      "midi": 65,
      "hit": false,
      "t": 90647.90718750017,
      "d": 147.45656249999593,
      "v": 112
    },
    {
      "midi": 65,
      "hit": false,
      "t": 92464.73437500016,
      "d": 66.28781249999884,
      "v": 107
    },
    {
      "midi": 70,
      "hit": false,
      "t": 92467.44000000016,
      "d": 90.63843750000524,
      "v": 114
    },
    {
      "midi": 74,
      "hit": false,
      "t": 92471.49843750017,
      "d": 82.52156249999825,
      "v": 115
    },
    {
      "midi": 74,
      "hit": false,
      "t": 92727.18000000017,
      "d": 131.2228124999965,
      "v": 115
    },
    {
      "midi": 65,
      "hit": false,
      "t": 92728.53281250017,
      "d": 113.63624999999593,
      "v": 106
    },
    {
      "midi": 70,
      "hit": false,
      "t": 92729.88562500017,
      "d": 127.16437499999302,
      "v": 112
    },
    {
      "midi": 74,
      "hit": false,
      "t": 93243.95437500016,
      "d": 74.40468750000582,
      "v": 115
    },
    {
      "midi": 65,
      "hit": false,
      "t": 93246.66000000016,
      "d": 64.93499999999767,
      "v": 106
    },
    {
      "midi": 70,
      "hit": false,
      "t": 93246.66000000016,
      "d": 73.05187500000466,
      "v": 114
    },
    {
      "midi": 65,
      "hit": false,
      "t": 93506.40000000017,
      "d": 66.28781249999884,
      "v": 110
    },
    {
      "midi": 73,
      "hit": false,
      "t": 93507.75281250017,
      "d": 86.58000000000175,
      "v": 113
    },
    {
      "midi": 69,
      "hit": false,
      "t": 93509.10562500017,
      "d": 59.523749999993015,
      "v": 116
    },
    {
      "midi": 73,
      "hit": false,
      "t": 93763.43437500017,
      "d": 174.5128125000192,
      "v": 112
    },
    {
      "midi": 69,
      "hit": false,
      "t": 93767.49281250018,
      "d": 155.5734375000029,
      "v": 118
    },
    {
      "midi": 65,
      "hit": false,
      "t": 93767.49281250018,
      "d": 163.6903125000099,
      "v": 109
    },
    {
      "midi": 65,
      "hit": false,
      "t": 94281.5615625002,
      "d": 67.640625,
      "v": 109
    },
    {
      "midi": 73,
      "hit": false,
      "t": 94284.2671875002,
      "d": 94.69687499999418,
      "v": 112
    },
    {
      "midi": 69,
      "hit": false,
      "t": 94285.6200000002,
      "d": 66.28781249999884,
      "v": 118
    },
    {
      "midi": 70,
      "hit": false,
      "t": 94545.36000000019,
      "d": 78.46312499999476,
      "v": 114
    },
    {
      "midi": 74,
      "hit": false,
      "t": 94545.36000000019,
      "d": 81.16874999999709,
      "v": 115
    },
    {
      "midi": 65,
      "hit": false,
      "t": 94548.06562500019,
      "d": 59.523749999993015,
      "v": 109
    },
    {
      "midi": 65,
      "hit": false,
      "t": 94805.10000000018,
      "d": 135.28125,
      "v": 112
    },
    {
      "midi": 74,
      "hit": false,
      "t": 94805.10000000018,
      "d": 135.28125,
      "v": 118
    },
    {
      "midi": 70,
      "hit": false,
      "t": 94809.15843750018,
      "d": 131.2228124999965,
      "v": 118
    },
    {
      "midi": 39,
      "hit": false,
      "t": 96604.34062500019,
      "d": 1536.7949999999837,
      "v": 123
    },
    {
      "midi": 46,
      "hit": false,
      "t": 96719.32968750018,
      "d": 1420.4531249999854,
      "v": 123
    },
    {
      "midi": 58,
      "hit": false,
      "t": 96720.68250000018,
      "d": 1379.8687499999942,
      "v": 123
    },
    {
      "midi": 60,
      "hit": false,
      "t": 96761.26687500019,
      "d": 1369.0462499999849,
      "v": 123
    },
    {
      "midi": 63,
      "hit": false,
      "t": 96786.97031250018,
      "d": 1375.8103124999907,
      "v": 123
    },
    {
      "midi": 67,
      "hit": false,
      "t": 96816.73218750018,
      "d": 1324.40343749999,
      "v": 123
    },
    {
      "midi": 38,
      "hit": false,
      "t": 98162.78062500017,
      "d": 497.83499999999185,
      "v": 123
    },
    {
      "midi": 45,
      "hit": false,
      "t": 98277.76968750017,
      "d": 381.4931249999936,
      "v": 123
    },
    {
      "midi": 57,
      "hit": false,
      "t": 98279.12250000017,
      "d": 340.9087500000023,
      "v": 123
    },
    {
      "midi": 60,
      "hit": false,
      "t": 98319.70687500018,
      "d": 330.086249999993,
      "v": 123
    },
    {
      "midi": 66,
      "hit": false,
      "t": 98345.41031250017,
      "d": 336.85031249999884,
      "v": 123
    },
    {
      "midi": 69,
      "hit": false,
      "t": 98375.17218750017,
      "d": 317.9109374999971,
      "v": 123
    },
    {
      "midi": 31,
      "hit": false,
      "t": 98697.14156250017,
      "d": 497.8350000000064,
      "v": 123
    },
    {
      "midi": 38,
      "hit": false,
      "t": 98718.78656250017,
      "d": 381.49312500000815,
      "v": 123
    },
    {
      "midi": 50,
      "hit": false,
      "t": 98960.94000000018,
      "d": 255.68156250000175,
      "v": 123
    },
    {
      "midi": 55,
      "hit": false,
      "t": 99220.68000000018,
      "d": 255.68156250000175,
      "v": 123
    },
    {
      "midi": 53,
      "hit": false,
      "t": 99480.42000000019,
      "d": 255.68156250000175,
      "v": 123
    },
    {
      "midi": 36,
      "hit": false,
      "t": 99713.10375000018,
      "d": 2382.3028124999983,
      "v": 123
    },
    {
      "midi": 60,
      "hit": false,
      "t": 99801.03656250019,
      "d": 2279.489062499997,
      "v": 123
    },
    {
      "midi": 48,
      "hit": false,
      "t": 99813.21187500018,
      "d": 2257.8440625000076,
      "v": 123
    },
    {
      "midi": 64,
      "hit": false,
      "t": 99817.27031250019,
      "d": 2228.082187500011,
      "v": 123
    },
    {
      "midi": 70,
      "hit": false,
      "t": 99864.61875000018,
      "d": 2178.0281250000116,
      "v": 123
    },
    {
      "midi": 72,
      "hit": false,
      "t": 101506.93312500019,
      "d": 642.5859375,
      "v": 119
    },
    {
      "midi": 79,
      "hit": false,
      "t": 101547.51750000019,
      "d": 612.8240624999889,
      "v": 119
    },
    {
      "midi": 82,
      "hit": false,
      "t": 101616.51093750019,
      "d": 526.2440624999872,
      "v": 119
    },
    {
      "midi": 41,
      "hit": false,
      "t": 102410.61187500018,
      "d": 399.0796874999942,
      "v": 118
    },
    {
      "midi": 51,
      "hit": false,
      "t": 102453.90187500017,
      "d": 355.7896875000006,
      "v": 114
    },
    {
      "midi": 57,
      "hit": false,
      "t": 102506.66156250017,
      "d": 326.0278125000041,
      "v": 117
    },
    {
      "midi": 62,
      "hit": false,
      "t": 102563.47968750018,
      "d": 277.3265625000058,
      "v": 120
    },
    {
      "midi": 46,
      "hit": false,
      "t": 102865.15687500019,
      "d": 1047.0768750000425,
      "v": 117
    },
    {
      "midi": 50,
      "hit": false,
      "t": 102886.8018750002,
      "d": 1041.6656250000378,
      "v": 119
    },
    {
      "midi": 62,
      "hit": false,
      "t": 103019.37750000019,
      "d": 664.2309375000332,
      "v": 121
    },
    {
      "midi": 65,
      "hit": false,
      "t": 103126.2496875002,
      "d": 301.6771875000122,
      "v": 112
    },
    {
      "midi": 70,
      "hit": false,
      "t": 103353.5221875002,
      "d": 148.80937500001164,
      "v": 115
    },
    {
      "midi": 74,
      "hit": false,
      "t": 103506.39000000022,
      "d": 404.4909375000134,
      "v": 121
    },
    {
      "midi": 77,
      "hit": false,
      "t": 103613.26218750022,
      "d": 301.6771875000122,
      "v": 112
    },
    {
      "midi": 82,
      "hit": false,
      "t": 103840.53468750023,
      "d": 408.5493750000023,
      "v": 115
    },
    {
      "midi": 47,
      "hit": false,
      "t": 104420.89125000023,
      "d": 1561.1456250000192,
      "v": 109
    },
    {
      "midi": 59,
      "hit": false,
      "t": 104502.06000000023,
      "d": 765.6918750000186,
      "v": 117
    },
    {
      "midi": 55,
      "hit": false,
      "t": 104507.47125000024,
      "d": 1471.8600000000151,
      "v": 119
    },
    {
      "midi": 62,
      "hit": false,
      "t": 104549.40843750024,
      "d": 699.4040625000052,
      "v": 122
    },
    {
      "midi": 64,
      "hit": false,
      "t": 104566.99500000024,
      "d": 1662.6065625000047,
      "v": 121
    },
    {
      "midi": 61,
      "hit": false,
      "t": 105397.62187500024,
      "d": 631.7634375000052,
      "v": 114
    },
    {
      "midi": 38,
      "hit": false,
      "t": 106201.19250000025,
      "d": 1814.121562500004,
      "v": 117
    },
    {
      "midi": 45,
      "hit": false,
      "t": 106201.19250000025,
      "d": 1814.121562500004,
      "v": 117
    },
    {
      "midi": 53,
      "hit": false,
      "t": 106233.66000000025,
      "d": 1814.121562500004,
      "v": 120
    },
    {
      "midi": 73,
      "hit": false,
      "t": 106736.90625000025,
      "d": 142.04531250000582,
      "v": 115
    },
    {
      "midi": 74,
      "hit": false,
      "t": 106862.71781250025,
      "d": 188.0409374999872,
      "v": 110
    },
    {
      "midi": 59,
      "hit": false,
      "t": 107012.88000000025,
      "d": 515.4215624999924,
      "v": 105
    },
    {
      "midi": 62,
      "hit": false,
      "t": 107012.88000000025,
      "d": 515.4215624999924,
      "v": 105
    },
    {
      "midi": 76,
      "hit": false,
      "t": 107025.05531250025,
      "d": 258.3871874999895,
      "v": 114
    },
    {
      "midi": 77,
      "hit": false,
      "t": 107325.37968750024,
      "d": 408.5493750000023,
      "v": 114
    },
    {
      "midi": 59,
      "hit": false,
      "t": 107532.36000000025,
      "d": 255.68156250000175,
      "v": 105
    },
    {
      "midi": 68,
      "hit": false,
      "t": 107532.36000000025,
      "d": 255.68156250000175,
      "v": 105
    },
    {
      "midi": 74,
      "hit": false,
      "t": 107774.51343750025,
      "d": 102.81375000000116,
      "v": 115
    },
    {
      "midi": 73,
      "hit": false,
      "t": 107909.79468750025,
      "d": 125.8115625000064,
      "v": 113
    },
    {
      "midi": 72,
      "hit": false,
      "t": 108059.95687500025,
      "d": 428.84156250000524,
      "v": 114
    },
    {
      "midi": 57,
      "hit": false,
      "t": 108059.95687500025,
      "d": 753.5165625000081,
      "v": 114
    },
    {
      "midi": 60,
      "hit": false,
      "t": 108059.95687500025,
      "d": 753.5165625000081,
      "v": 114
    },
    {
      "midi": 65,
      "hit": false,
      "t": 108059.95687500025,
      "d": 1013.2565625000134,
      "v": 114
    },
    {
      "midi": 44,
      "hit": false,
      "t": 108833.76562500026,
      "d": 227.2725000000064,
      "v": 103
    },
    {
      "midi": 59,
      "hit": false,
      "t": 108841.88250000027,
      "d": 250.2703124999971,
      "v": 106
    },
    {
      "midi": 58,
      "hit": false,
      "t": 109090.80000000026,
      "d": 959.1440624999959,
      "v": 115
    },
    {
      "midi": 64,
      "hit": false,
      "t": 109090.80000000026,
      "d": 959.1440624999959,
      "v": 115
    },
    {
      "midi": 43,
      "hit": false,
      "t": 109090.80000000026,
      "d": 1010.5509374999965,
      "v": 99
    },
    {
      "midi": 52,
      "hit": false,
      "t": 109121.91468750026,
      "d": 1010.5509375000111,
      "v": 99
    },
    {
      "midi": 79,
      "hit": false,
      "t": 109610.28000000026,
      "d": 515.421562500007,
      "v": 113
    },
    {
      "midi": 41,
      "hit": false,
      "t": 110217.69281250027,
      "d": 990.258749999979,
      "v": 113
    },
    {
      "midi": 51,
      "hit": false,
      "t": 110328.62343750027,
      "d": 859.0359374999825,
      "v": 104
    },
    {
      "midi": 62,
      "hit": false,
      "t": 110390.85281250026,
      "d": 374.7290624999878,
      "v": 95
    },
    {
      "midi": 65,
      "hit": false,
      "t": 110467.96312500026,
      "d": 259.74000000000524,
      "v": 84
    },
    {
      "midi": 69,
      "hit": false,
      "t": 110551.83750000026,
      "d": 188.04093750000175,
      "v": 93
    },
    {
      "midi": 74,
      "hit": false,
      "t": 110651.94562500025,
      "d": 197.51062499999534,
      "v": 106
    },
    {
      "midi": 77,
      "hit": false,
      "t": 110903.56875000025,
      "d": 165.0431249999965,
      "v": 96
    },
    {
      "midi": 73,
      "hit": false,
      "t": 111040.20281250025,
      "d": 146.10374999999476,
      "v": 95
    },
    {
      "midi": 62,
      "hit": false,
      "t": 111174.13125000025,
      "d": 896.9146875000006,
      "v": 106
    },
    {
      "midi": 72,
      "hit": false,
      "t": 111174.13125000025,
      "d": 900.9731250000041,
      "v": 107
    },
    {
      "midi": 53,
      "hit": false,
      "t": 111692.25843750025,
      "d": 1475.918437500004,
      "v": 96
    },
    {
      "midi": 73,
      "hit": false,
      "t": 112222.56093750025,
      "d": 579.0037500000035,
      "v": 105
    },
    {
      "midi": 63,
      "hit": false,
      "t": 112223.91375000025,
      "d": 576.2981250000012,
      "v": 96
    },
    {
      "midi": 81,
      "hit": false,
      "t": 112727.16000000025,
      "d": 219.15562499999942,
      "v": 116
    },
    {
      "midi": 79,
      "hit": false,
      "t": 112903.02562500026,
      "d": 155.57343749998836,
      "v": 107
    },
    {
      "midi": 77,
      "hit": false,
      "t": 113041.01250000024,
      "d": 156.92625000000407,
      "v": 115
    },
    {
      "midi": 58,
      "hit": false,
      "t": 113188.46906250025,
      "d": 1082.25,
      "v": 97
    },
    {
      "midi": 65,
      "hit": false,
      "t": 113280.46031250025,
      "d": 971.3193750000064,
      "v": 105
    },
    {
      "midi": 70,
      "hit": false,
      "t": 113283.16593750025,
      "d": 980.7890625,
      "v": 91
    },
    {
      "midi": 74,
      "hit": false,
      "t": 113296.69406250025,
      "d": 492.42375000000175,
      "v": 103
    },
    {
      "midi": 79,
      "hit": false,
      "t": 113337.27843750025,
      "d": 1171.535625000004,
      "v": 105
    },
    {
      "midi": 63,
      "hit": false,
      "t": 114301.83375000025,
      "d": 576.2981250000157,
      "v": 96
    },
    {
      "midi": 73,
      "hit": false,
      "t": 114308.59781250026,
      "d": 579.0037500000035,
      "v": 105
    },
    {
      "midi": 53,
      "hit": false,
      "t": 114768.55406250026,
      "d": 673.7006249999831,
      "v": 96
    },
    {
      "midi": 57,
      "hit": false,
      "t": 114782.08218750026,
      "d": 478.8956249999901,
      "v": 103
    },
    {
      "midi": 69,
      "hit": false,
      "t": 114805.08000000026,
      "d": 219.15562499998487,
      "v": 116
    },
    {
      "midi": 67,
      "hit": false,
      "t": 114980.94562500025,
      "d": 155.57343749998836,
      "v": 107
    },
    {
      "midi": 65,
      "hit": false,
      "t": 115118.93250000024,
      "d": 156.92625000000407,
      "v": 115
    },
    {
      "midi": 50,
      "hit": false,
      "t": 115300.20937500025,
      "d": 1064.6634374999849,
      "v": 105
    },
    {
      "midi": 58,
      "hit": false,
      "t": 115316.44312500025,
      "d": 1049.7824999999866,
      "v": 104
    },
    {
      "midi": 62,
      "hit": false,
      "t": 115325.91281250025,
      "d": 1021.3734374999913,
      "v": 105
    },
    {
      "midi": 67,
      "hit": false,
      "t": 115357.02750000024,
      "d": 422.0774999999994,
      "v": 113
    },
    {
      "midi": 65,
      "hit": false,
      "t": 115753.40156250025,
      "d": 607.4128124999843,
      "v": 111
    },
    {
      "midi": 46,
      "hit": false,
      "t": 117363.24843750024,
      "d": 1919.640937499993,
      "v": 100
    },
    {
      "midi": 53,
      "hit": false,
      "t": 117462.00375000024,
      "d": 2004.8681249999936,
      "v": 100
    },
    {
      "midi": 56,
      "hit": false,
      "t": 117471.47343750023,
      "d": 1536.7949999999983,
      "v": 99
    },
    {
      "midi": 58,
      "hit": false,
      "t": 117485.00156250023,
      "d": 1520.5612499999988,
      "v": 106
    },
    {
      "midi": 62,
      "hit": false,
      "t": 117533.70281250023,
      "d": 1860.1171875,
      "v": 111
    },
    {
      "midi": 46,
      "hit": false,
      "t": 119395.17281250023,
      "d": 860.3887499999983,
      "v": 108
    },
    {
      "midi": 39,
      "hit": false,
      "t": 119476.34156250022,
      "d": 821.1571875000081,
      "v": 112
    },
    {
      "midi": 55,
      "hit": false,
      "t": 119514.22031250023,
      "d": 749.4581250000047,
      "v": 103
    },
    {
      "midi": 51,
      "hit": false,
      "t": 119535.86531250023,
      "d": 895.561875000014,
      "v": 104
    },
    {
      "midi": 58,
      "hit": false,
      "t": 119550.74625000023,
      "d": 725.1074999999983,
      "v": 113
    },
    {
      "midi": 60,
      "hit": false,
      "t": 119596.74187500023,
      "d": 676.40625,
      "v": 108
    },
    {
      "midi": 67,
      "hit": false,
      "t": 119608.91718750022,
      "d": 645.2915625000023,
      "v": 111
    },
    {
      "midi": 40,
      "hit": false,
      "t": 120338.08312500024,
      "d": 1202.6503125000163,
      "v": 112
    },
    {
      "midi": 46,
      "hit": false,
      "t": 120396.25406250024,
      "d": 1137.715312500004,
      "v": 103
    },
    {
      "midi": 52,
      "hit": false,
      "t": 120431.42718750025,
      "d": 756.2221874999959,
      "v": 105
    },
    {
      "midi": 61,
      "hit": false,
      "t": 120432.78000000025,
      "d": 711.5793750000012,
      "v": 103
    },
    {
      "midi": 67,
      "hit": false,
      "t": 120446.30812500024,
      "d": 1140.420937500021,
      "v": 114
    },
    {
      "midi": 70,
      "hit": false,
      "t": 120466.60031250025,
      "d": 1060.604999999996,
      "v": 112
    },
    {
      "midi": 69,
      "hit": false,
      "t": 121562.37843750026,
      "d": 1022.7262500000215,
      "v": 104
    },
    {
      "midi": 62,
      "hit": false,
      "t": 121563.73125000026,
      "d": 1021.3734375000204,
      "v": 106
    },
    {
      "midi": 41,
      "hit": false,
      "t": 121563.73125000026,
      "d": 1033.5487500000309,
      "v": 102
    },
    {
      "midi": 65,
      "hit": false,
      "t": 121565.08406250026,
      "d": 1017.3150000000169,
      "v": 101
    },
    {
      "midi": 53,
      "hit": false,
      "t": 121567.78968750026,
      "d": 1007.8453125000087,
      "v": 96
    },
    {
      "midi": 50,
      "hit": false,
      "t": 121570.49531250026,
      "d": 1011.9037500000122,
      "v": 99
    },
    {
      "midi": 38,
      "hit": false,
      "t": 122537.75625000027,
      "d": 1038.960000000021,
      "v": 111
    },
    {
      "midi": 55,
      "hit": false,
      "t": 122575.63500000027,
      "d": 983.4946875000169,
      "v": 101
    },
    {
      "midi": 60,
      "hit": false,
      "t": 122593.22156250029,
      "d": 1.3528125000011642,
      "v": 109
    },
    {
      "midi": 50,
      "hit": false,
      "t": 122598.63281250029,
      "d": 941.5574999999953,
      "v": 108
    },
    {
      "midi": 62,
      "hit": false,
      "t": 122628.39468750029,
      "d": 934.7934375000041,
      "v": 100
    },
    {
      "midi": 65,
      "hit": false,
      "t": 122637.86437500028,
      "d": 913.1484375,
      "v": 112
    },
    {
      "midi": 59,
      "hit": false,
      "t": 123151.93312500029,
      "d": 409.9021875000035,
      "v": 108
    },
    {
      "midi": 48,
      "hit": false,
      "t": 123636.24000000028,
      "d": 796.8065625000017,
      "v": 110
    },
    {
      "midi": 51,
      "hit": false,
      "t": 123638.94562500028,
      "d": 796.8065625000017,
      "v": 105
    },
    {
      "midi": 55,
      "hit": false,
      "t": 123644.35687500029,
      "d": 791.3953124999971,
      "v": 106
    },
    {
      "midi": 58,
      "hit": false,
      "t": 123649.7681250003,
      "d": 791.3953124999971,
      "v": 106
    },
    {
      "midi": 62,
      "hit": false,
      "t": 123660.59062500029,
      "d": 792.7481249999983,
      "v": 106
    },
    {
      "midi": 63,
      "hit": false,
      "t": 127792.0800000003,
      "d": 94.69687499999418,
      "v": 91
    },
    {
      "midi": 66,
      "hit": false,
      "t": 127792.0800000003,
      "d": 94.69687499999418,
      "v": 96
    },
    {
      "midi": 66,
      "hit": false,
      "t": 128051.82000000028,
      "d": 215.09718749999593,
      "v": 101
    },
    {
      "midi": 63,
      "hit": false,
      "t": 128051.82000000028,
      "d": 220.50843750000058,
      "v": 101
    },
    {
      "midi": 63,
      "hit": false,
      "t": 128484.72000000028,
      "d": 167.74874999999884,
      "v": 87
    },
    {
      "midi": 66,
      "hit": false,
      "t": 128484.72000000028,
      "d": 175.86562500000582,
      "v": 81
    },
    {
      "midi": 63,
      "hit": false,
      "t": 128744.46000000028,
      "d": 74.40468750000582,
      "v": 94
    },
    {
      "midi": 66,
      "hit": false,
      "t": 128744.46000000028,
      "d": 81.16875000001164,
      "v": 101
    },
    {
      "midi": 66,
      "hit": false,
      "t": 129004.20000000029,
      "d": 91.9912500000064,
      "v": 94
    },
    {
      "midi": 63,
      "hit": false,
      "t": 129004.20000000029,
      "d": 102.81375000000116,
      "v": 85
    },
    {
      "midi": 66,
      "hit": false,
      "t": 129350.5200000003,
      "d": 120.40031250000175,
      "v": 98
    },
    {
      "midi": 63,
      "hit": false,
      "t": 129350.5200000003,
      "d": 125.8115625000064,
      "v": 98
    },
    {
      "midi": 66,
      "hit": false,
      "t": 129610.2600000003,
      "d": 102.81375000000116,
      "v": 83
    },
    {
      "midi": 63,
      "hit": false,
      "t": 129610.2600000003,
      "d": 105.51937500000349,
      "v": 87
    },
    {
      "midi": 62,
      "hit": false,
      "t": 129870.0000000003,
      "d": 81.16874999999709,
      "v": 98
    },
    {
      "midi": 65,
      "hit": false,
      "t": 129870.0000000003,
      "d": 105.51937500000349,
      "v": 98
    },
    {
      "midi": 62,
      "hit": false,
      "t": 130129.74000000031,
      "d": 212.3915624999936,
      "v": 106
    },
    {
      "midi": 65,
      "hit": false,
      "t": 130129.74000000031,
      "d": 213.74437499999476,
      "v": 103
    },
    {
      "midi": 62,
      "hit": false,
      "t": 130562.6400000003,
      "d": 47.34843749999709,
      "v": 103
    },
    {
      "midi": 65,
      "hit": false,
      "t": 130562.6400000003,
      "d": 54.11250000000291,
      "v": 94
    },
    {
      "midi": 62,
      "hit": false,
      "t": 130649.2200000003,
      "d": 146.10374999999476,
      "v": 89
    },
    {
      "midi": 65,
      "hit": false,
      "t": 130649.2200000003,
      "d": 147.45656249999593,
      "v": 74
    },
    {
      "midi": 62,
      "hit": false,
      "t": 130908.9600000003,
      "d": 79.81593749999593,
      "v": 106
    },
    {
      "midi": 65,
      "hit": false,
      "t": 130908.9600000003,
      "d": 81.16874999999709,
      "v": 101
    },
    {
      "midi": 55,
      "hit": false,
      "t": 131947.9200000003,
      "d": 515.4215625000361,
      "v": 106
    },
    {
      "midi": 58,
      "hit": false,
      "t": 131954.6840625003,
      "d": 515.4215625000361,
      "v": 106
    },
    {
      "midi": 62,
      "hit": false,
      "t": 131969.56500000032,
      "d": 515.4215625000361,
      "v": 106
    },
    {
      "midi": 67,
      "hit": false,
      "t": 131977.68187500033,
      "d": 515.4215625000361,
      "v": 108
    },
    {
      "midi": 54,
      "hit": false,
      "t": 132467.40000000034,
      "d": 515.4215625000361,
      "v": 101
    },
    {
      "midi": 58,
      "hit": false,
      "t": 132474.16406250035,
      "d": 515.4215625000361,
      "v": 101
    },
    {
      "midi": 62,
      "hit": false,
      "t": 132489.04500000036,
      "d": 515.4215625000361,
      "v": 101
    },
    {
      "midi": 66,
      "hit": false,
      "t": 132497.16187500037,
      "d": 515.4215625000361,
      "v": 111
    },
    {
      "midi": 53,
      "hit": false,
      "t": 132986.88000000038,
      "d": 515.4215625000361,
      "v": 101
    },
    {
      "midi": 58,
      "hit": false,
      "t": 132993.6440625004,
      "d": 515.4215625000361,
      "v": 101
    },
    {
      "midi": 62,
      "hit": false,
      "t": 133008.5250000004,
      "d": 515.4215625000361,
      "v": 101
    },
    {
      "midi": 65,
      "hit": false,
      "t": 133016.6418750004,
      "d": 515.4215625000361,
      "v": 113
    },
    {
      "midi": 52,
      "hit": false,
      "t": 133506.36000000042,
      "d": 515.4215625000361,
      "v": 101
    },
    {
      "midi": 58,
      "hit": false,
      "t": 133513.12406250043,
      "d": 515.4215625000361,
      "v": 101
    },
    {
      "midi": 60,
      "hit": false,
      "t": 133528.00500000044,
      "d": 515.4215625000361,
      "v": 101
    },
    {
      "midi": 64,
      "hit": false,
      "t": 133536.12187500045,
      "d": 515.4215625000361,
      "v": 111
    },
    {
      "midi": 51,
      "hit": false,
      "t": 134025.84000000046,
      "d": 515.4215625000361,
      "v": 106
    },
    {
      "midi": 53,
      "hit": false,
      "t": 134025.84000000046,
      "d": 515.4215625000361,
      "v": 106
    },
    {
      "midi": 57,
      "hit": false,
      "t": 134032.60406250047,
      "d": 515.4215625000361,
      "v": 106
    },
    {
      "midi": 60,
      "hit": false,
      "t": 134047.48500000048,
      "d": 515.4215625000361,
      "v": 106
    },
    {
      "midi": 63,
      "hit": false,
      "t": 134055.6018750005,
      "d": 515.4215625000361,
      "v": 113
    },
    {
      "midi": 62,
      "hit": false,
      "t": 138178.97437500051,
      "d": 361.2009374999907,
      "v": 109
    },
    {
      "midi": 43,
      "hit": false,
      "t": 138180.32718750052,
      "d": 365.2593749999942,
      "v": 103
    },
    {
      "midi": 55,
      "hit": false,
      "t": 138183.03281250052,
      "d": 363.906562499993,
      "v": 94
    },
    {
      "midi": 71,
      "hit": false,
      "t": 138183.03281250052,
      "d": 370.67062499999884,
      "v": 106
    },
    {
      "midi": 67,
      "hit": false,
      "t": 138184.38562500052,
      "d": 361.2009374999907,
      "v": 118
    },
    {
      "midi": 59,
      "hit": false,
      "t": 138701.16000000053,
      "d": 423.43031249998603,
      "v": 101
    },
    {
      "midi": 71,
      "hit": false,
      "t": 138701.16000000053,
      "d": 430.19437499999185,
      "v": 109
    },
    {
      "midi": 60,
      "hit": false,
      "t": 139221.9928125005,
      "d": 420.7246875000128,
      "v": 98
    },
    {
      "midi": 72,
      "hit": false,
      "t": 139221.9928125005,
      "d": 427.4887500000186,
      "v": 103
    },
    {
      "midi": 74,
      "hit": false,
      "t": 139742.82562500052,
      "d": 395.0212499999907,
      "v": 109
    },
    {
      "midi": 62,
      "hit": false,
      "t": 139744.17843750052,
      "d": 408.5493750000023,
      "v": 103
    },
    {
      "midi": 64,
      "hit": false,
      "t": 140259.60000000053,
      "d": 94.69687499999418,
      "v": 98
    },
    {
      "midi": 67,
      "hit": false,
      "t": 140259.60000000053,
      "d": 94.69687499999418,
      "v": 98
    },
    {
      "midi": 72,
      "hit": false,
      "t": 140259.60000000053,
      "d": 94.69687499999418,
      "v": 98
    },
    {
      "midi": 79,
      "hit": false,
      "t": 140519.34000000052,
      "d": 96.04968749999534,
      "v": 98
    },
    {
      "midi": 67,
      "hit": false,
      "t": 140779.0800000005,
      "d": 91.99124999999185,
      "v": 91
    },
    {
      "midi": 72,
      "hit": false,
      "t": 140779.0800000005,
      "d": 91.99124999999185,
      "v": 91
    },
    {
      "midi": 76,
      "hit": false,
      "t": 140779.0800000005,
      "d": 91.99124999999185,
      "v": 91
    },
    {
      "midi": 64,
      "hit": false,
      "t": 140952.24000000051,
      "d": 119.04749999998603,
      "v": 101
    },
    {
      "midi": 72,
      "hit": false,
      "t": 140952.24000000051,
      "d": 119.04749999998603,
      "v": 101
    },
    {
      "midi": 63,
      "hit": false,
      "t": 141211.9800000005,
      "d": 209.68593750000582,
      "v": 98
    },
    {
      "midi": 67,
      "hit": false,
      "t": 141211.9800000005,
      "d": 209.68593750000582,
      "v": 98
    },
    {
      "midi": 71,
      "hit": false,
      "t": 141211.9800000005,
      "d": 209.68593750000582,
      "v": 98
    },
    {
      "midi": 71,
      "hit": false,
      "t": 141731.46000000052,
      "d": 82.5215625000128,
      "v": 115
    },
    {
      "midi": 67,
      "hit": false,
      "t": 141818.04000000053,
      "d": 152.86781249998603,
      "v": 107
    },
    {
      "midi": 74,
      "hit": false,
      "t": 141818.04000000053,
      "d": 152.86781249998603,
      "v": 107
    },
    {
      "midi": 79,
      "hit": false,
      "t": 141818.04000000053,
      "d": 152.86781249998603,
      "v": 107
    },
    {
      "midi": 71,
      "hit": false,
      "t": 141991.2000000005,
      "d": 82.5215625000128,
      "v": 96
    },
    {
      "midi": 74,
      "hit": false,
      "t": 142077.78000000052,
      "d": 169.1015625,
      "v": 112
    },
    {
      "midi": 71,
      "hit": false,
      "t": 142250.94000000053,
      "d": 79.81593750001048,
      "v": 96
    },
    {
      "midi": 75,
      "hit": false,
      "t": 142250.94000000053,
      "d": 79.81593750001048,
      "v": 96
    },
    {
      "midi": 67,
      "hit": false,
      "t": 142337.52000000054,
      "d": 209.68593750000582,
      "v": 94
    },
    {
      "midi": 72,
      "hit": false,
      "t": 142337.52000000054,
      "d": 209.68593750000582,
      "v": 94
    },
    {
      "midi": 76,
      "hit": false,
      "t": 142337.52000000054,
      "d": 209.68593750000582,
      "v": 94
    },
    {
      "midi": 76,
      "hit": false,
      "t": 142597.26000000056,
      "d": 77.11031250000815,
      "v": 91
    },
    {
      "midi": 72,
      "hit": false,
      "t": 142597.26000000056,
      "d": 86.5800000000163,
      "v": 87
    },
    {
      "midi": 79,
      "hit": false,
      "t": 142597.26000000056,
      "d": 91.99125000002095,
      "v": 83
    },
    {
      "midi": 76,
      "hit": false,
      "t": 143116.74000000057,
      "d": 78.46312500000931,
      "v": 103
    },
    {
      "midi": 79,
      "hit": false,
      "t": 143116.74000000057,
      "d": 85.22718750001513,
      "v": 98
    },
    {
      "midi": 72,
      "hit": false,
      "t": 143116.74000000057,
      "d": 91.99125000002095,
      "v": 103
    },
    {
      "midi": 75,
      "hit": false,
      "t": 143636.22000000058,
      "d": 113.63625000001048,
      "v": 103
    },
    {
      "midi": 79,
      "hit": false,
      "t": 143636.22000000058,
      "d": 140.69250000000466,
      "v": 101
    },
    {
      "midi": 71,
      "hit": false,
      "t": 143636.22000000058,
      "d": 151.51500000001397,
      "v": 101
    },
    {
      "midi": 75,
      "hit": false,
      "t": 144069.1200000006,
      "d": 44.64281250000931,
      "v": 106
    },
    {
      "midi": 71,
      "hit": false,
      "t": 144069.1200000006,
      "d": 54.11250000001746,
      "v": 98
    },
    {
      "midi": 79,
      "hit": false,
      "t": 144069.1200000006,
      "d": 64.93500000002678,
      "v": 94
    },
    {
      "midi": 75,
      "hit": false,
      "t": 144155.70000000062,
      "d": 85.22718749998603,
      "v": 89
    },
    {
      "midi": 71,
      "hit": false,
      "t": 144155.70000000062,
      "d": 102.81374999997206,
      "v": 87
    },
    {
      "midi": 79,
      "hit": false,
      "t": 144155.70000000062,
      "d": 113.63624999998137,
      "v": 87
    },
    {
      "midi": 76,
      "hit": false,
      "t": 144415.4400000006,
      "d": 66.28781249999884,
      "v": 101
    },
    {
      "midi": 72,
      "hit": false,
      "t": 144415.4400000006,
      "d": 71.69906250000349,
      "v": 98
    },
    {
      "midi": 79,
      "hit": false,
      "t": 144415.4400000006,
      "d": 74.40468750000582,
      "v": 96
    },
    {
      "midi": 72,
      "hit": false,
      "t": 144675.18000000063,
      "d": 67.640625,
      "v": 106
    },
    {
      "midi": 76,
      "hit": false,
      "t": 144675.18000000063,
      "d": 68.99343750000116,
      "v": 103
    },
    {
      "midi": 79,
      "hit": false,
      "t": 144675.18000000063,
      "d": 94.69687499999418,
      "v": 103
    },
    {
      "midi": 72,
      "hit": false,
      "t": 145108.08000000063,
      "d": 44.64281250000931,
      "v": 98
    },
    {
      "midi": 76,
      "hit": false,
      "t": 145108.08000000063,
      "d": 51.406875000015134,
      "v": 101
    },
    {
      "midi": 79,
      "hit": false,
      "t": 145108.08000000063,
      "d": 71.69906250000349,
      "v": 101
    },
    {
      "midi": 72,
      "hit": false,
      "t": 145194.66000000064,
      "d": 74.40468750000582,
      "v": 87
    },
    {
      "midi": 76,
      "hit": false,
      "t": 145194.66000000064,
      "d": 74.40468750000582,
      "v": 98
    },
    {
      "midi": 79,
      "hit": false,
      "t": 145194.66000000064,
      "d": 98.75531249999767,
      "v": 87
    },
    {
      "midi": 71,
      "hit": false,
      "t": 145454.40000000063,
      "d": 50.05406250001397,
      "v": 101
    },
    {
      "midi": 75,
      "hit": false,
      "t": 145454.40000000063,
      "d": 78.46312500000931,
      "v": 101
    },
    {
      "midi": 79,
      "hit": false,
      "t": 145454.40000000063,
      "d": 81.16875000001164,
      "v": 101
    },
    {
      "midi": 71,
      "hit": false,
      "t": 145714.14000000065,
      "d": 243.50625000000582,
      "v": 103
    },
    {
      "midi": 79,
      "hit": false,
      "t": 145714.14000000065,
      "d": 247.5646875000093,
      "v": 101
    },
    {
      "midi": 75,
      "hit": false,
      "t": 145714.14000000065,
      "d": 254.32875000001513,
      "v": 103
    },
    {
      "midi": 71,
      "hit": false,
      "t": 146147.04000000068,
      "d": 43.29000000000815,
      "v": 101
    },
    {
      "midi": 75,
      "hit": false,
      "t": 146147.04000000068,
      "d": 45.99562500001048,
      "v": 103
    },
    {
      "midi": 79,
      "hit": false,
      "t": 146147.04000000068,
      "d": 45.99562500001048,
      "v": 101
    },
    {
      "midi": 71,
      "hit": false,
      "t": 146233.6200000007,
      "d": 58.17093749999185,
      "v": 101
    },
    {
      "midi": 79,
      "hit": false,
      "t": 146233.6200000007,
      "d": 68.99343750000116,
      "v": 101
    },
    {
      "midi": 75,
      "hit": false,
      "t": 146233.6200000007,
      "d": 71.69906250000349,
      "v": 98
    },
    {
      "midi": 74,
      "hit": false,
      "t": 146493.36000000068,
      "d": 63.58218749999651,
      "v": 103
    },
    {
      "midi": 77,
      "hit": false,
      "t": 146493.36000000068,
      "d": 63.58218749999651,
      "v": 103
    },
    {
      "midi": 79,
      "hit": false,
      "t": 146493.36000000068,
      "d": 75.75750000000698,
      "v": 89
    },
    {
      "midi": 74,
      "hit": false,
      "t": 146753.1000000007,
      "d": 60.87656249999418,
      "v": 112
    },
    {
      "midi": 77,
      "hit": false,
      "t": 146753.1000000007,
      "d": 60.87656249999418,
      "v": 112
    },
    {
      "midi": 79,
      "hit": false,
      "t": 146753.1000000007,
      "d": 83.87437499998487,
      "v": 101
    },
    {
      "midi": 74,
      "hit": false,
      "t": 147186.0000000007,
      "d": 41.937187500006985,
      "v": 101
    },
    {
      "midi": 77,
      "hit": false,
      "t": 147186.0000000007,
      "d": 41.937187500006985,
      "v": 101
    },
    {
      "midi": 79,
      "hit": false,
      "t": 147186.0000000007,
      "d": 52.7596875000163,
      "v": 87
    },
    {
      "midi": 74,
      "hit": false,
      "t": 147272.58000000071,
      "d": 55.46531249998952,
      "v": 101
    },
    {
      "midi": 77,
      "hit": false,
      "t": 147272.58000000071,
      "d": 55.46531249998952,
      "v": 101
    },
    {
      "midi": 79,
      "hit": false,
      "t": 147272.58000000071,
      "d": 79.81593749998137,
      "v": 87
    },
    {
      "midi": 76,
      "hit": false,
      "t": 147532.3200000007,
      "d": 91.99124999999185,
      "v": 109
    },
    {
      "midi": 79,
      "hit": false,
      "t": 147532.3200000007,
      "d": 105.51937500000349,
      "v": 98
    },
    {
      "midi": 78,
      "hit": false,
      "t": 147792.0600000007,
      "d": 117.69468750001397,
      "v": 101
    },
    {
      "midi": 75,
      "hit": false,
      "t": 147792.0600000007,
      "d": 124.45875000001979,
      "v": 101
    },
    {
      "midi": 74,
      "hit": false,
      "t": 148051.80000000072,
      "d": 79.81593750001048,
      "v": 85
    },
    {
      "midi": 77,
      "hit": false,
      "t": 148051.80000000072,
      "d": 85.22718750001513,
      "v": 101
    },
    {
      "midi": 76,
      "hit": false,
      "t": 148224.96000000072,
      "d": 98.75531249999767,
      "v": 101
    },
    {
      "midi": 73,
      "hit": false,
      "t": 148224.96000000072,
      "d": 102.81375000000116,
      "v": 94
    },
    {
      "midi": 62,
      "hit": false,
      "t": 148831.02000000072,
      "d": 124.45874999999069,
      "v": 118
    },
    {
      "midi": 65,
      "hit": false,
      "t": 148831.02000000072,
      "d": 124.45874999999069,
      "v": 118
    },
    {
      "midi": 69,
      "hit": false,
      "t": 148831.02000000072,
      "d": 124.45874999999069,
      "v": 118
    },
    {
      "midi": 65,
      "hit": false,
      "t": 149004.18000000072,
      "d": 86.5799999999872,
      "v": 107
    },
    {
      "midi": 57,
      "hit": false,
      "t": 149090.7600000007,
      "d": 102.81375000000116,
      "v": 92
    },
    {
      "midi": 62,
      "hit": false,
      "t": 149090.7600000007,
      "d": 102.81375000000116,
      "v": 92
    },
    {
      "midi": 69,
      "hit": false,
      "t": 149263.9200000007,
      "d": 128.51718749999418,
      "v": 110
    },
    {
      "midi": 62,
      "hit": false,
      "t": 149350.5000000007,
      "d": 119.04750000001513,
      "v": 110
    },
    {
      "midi": 65,
      "hit": false,
      "t": 149350.5000000007,
      "d": 119.04750000001513,
      "v": 110
    },
    {
      "midi": 57,
      "hit": false,
      "t": 149523.6600000007,
      "d": 113.63625000001048,
      "v": 96
    },
    {
      "midi": 62,
      "hit": false,
      "t": 149523.6600000007,
      "d": 113.63625000001048,
      "v": 96
    },
    {
      "midi": 63,
      "hit": false,
      "t": 149869.9800000007,
      "d": 119.04749999998603,
      "v": 110
    },
    {
      "midi": 66,
      "hit": false,
      "t": 149869.9800000007,
      "d": 119.04749999998603,
      "v": 110
    },
    {
      "midi": 69,
      "hit": false,
      "t": 149869.9800000007,
      "d": 119.04749999998603,
      "v": 110
    },
    {
      "midi": 57,
      "hit": false,
      "t": 150043.14000000068,
      "d": 97.40249999999651,
      "v": 96
    },
    {
      "midi": 66,
      "hit": false,
      "t": 150043.14000000068,
      "d": 97.40249999999651,
      "v": 96
    },
    {
      "midi": 54,
      "hit": false,
      "t": 150129.72000000067,
      "d": 121.75312500001746,
      "v": 92
    },
    {
      "midi": 63,
      "hit": false,
      "t": 150129.72000000067,
      "d": 121.75312500001746,
      "v": 92
    },
    {
      "midi": 69,
      "hit": false,
      "t": 150302.88000000067,
      "d": 132.57562499999767,
      "v": 87
    },
    {
      "midi": 54,
      "hit": false,
      "t": 150389.46000000066,
      "d": 227.27249999999185,
      "v": 92
    },
    {
      "midi": 66,
      "hit": false,
      "t": 150389.46000000066,
      "d": 227.27249999999185,
      "v": 92
    },
    {
      "midi": 57,
      "hit": false,
      "t": 150562.62000000066,
      "d": 116.3418749999837,
      "v": 103
    },
    {
      "midi": 63,
      "hit": false,
      "t": 150562.62000000066,
      "d": 116.3418749999837,
      "v": 103
    },
    {
      "midi": 67,
      "hit": false,
      "t": 150908.94000000064,
      "d": 162.33749999999418,
      "v": 100
    },
    {
      "midi": 71,
      "hit": false,
      "t": 150908.94000000064,
      "d": 162.33749999999418,
      "v": 112
    },
    {
      "midi": 76,
      "hit": false,
      "t": 150908.94000000064,
      "d": 162.33749999999418,
      "v": 112
    },
    {
      "midi": 64,
      "hit": false,
      "t": 151168.68000000063,
      "d": 252.97593750001397,
      "v": 97
    },
    {
      "midi": 67,
      "hit": false,
      "t": 151168.68000000063,
      "d": 252.97593750001397,
      "v": 97
    },
    {
      "midi": 74,
      "hit": false,
      "t": 151168.68000000063,
      "d": 252.97593750001397,
      "v": 109
    },
    {
      "midi": 64,
      "hit": false,
      "t": 151428.42000000065,
      "d": 100.10812499999884,
      "v": 89
    },
    {
      "midi": 67,
      "hit": false,
      "t": 151428.42000000065,
      "d": 100.10812499999884,
      "v": 89
    },
    {
      "midi": 76,
      "hit": false,
      "t": 151428.42000000065,
      "d": 100.10812499999884,
      "v": 101
    },
    {
      "midi": 67,
      "hit": false,
      "t": 151601.58000000066,
      "d": 204.27468750000116,
      "v": 103
    },
    {
      "midi": 69,
      "hit": false,
      "t": 151601.58000000066,
      "d": 204.27468750000116,
      "v": 103
    },
    {
      "midi": 73,
      "hit": false,
      "t": 151601.58000000066,
      "d": 204.27468750000116,
      "v": 115
    },
    {
      "midi": 62,
      "hit": false,
      "t": 152986.86000000066,
      "d": 124.45874999999069,
      "v": 118
    },
    {
      "midi": 65,
      "hit": false,
      "t": 152986.86000000066,
      "d": 124.45874999999069,
      "v": 118
    },
    {
      "midi": 69,
      "hit": false,
      "t": 152986.86000000066,
      "d": 124.45874999999069,
      "v": 118
    },
    {
      "midi": 65,
      "hit": false,
      "t": 153160.02000000066,
      "d": 86.5799999999872,
      "v": 107
    },
    {
      "midi": 57,
      "hit": false,
      "t": 153246.60000000065,
      "d": 102.81375000000116,
      "v": 92
    },
    {
      "midi": 62,
      "hit": false,
      "t": 153246.60000000065,
      "d": 102.81375000000116,
      "v": 92
    },
    {
      "midi": 69,
      "hit": false,
      "t": 153419.76000000065,
      "d": 128.51718749999418,
      "v": 110
    },
    {
      "midi": 62,
      "hit": false,
      "t": 153506.34000000064,
      "d": 119.04750000001513,
      "v": 110
    },
    {
      "midi": 65,
      "hit": false,
      "t": 153506.34000000064,
      "d": 119.04750000001513,
      "v": 110
    },
    {
      "midi": 57,
      "hit": false,
      "t": 153679.50000000064,
      "d": 113.63625000001048,
      "v": 96
    },
    {
      "midi": 62,
      "hit": false,
      "t": 153679.50000000064,
      "d": 113.63625000001048,
      "v": 96
    },
    {
      "midi": 63,
      "hit": false,
      "t": 154025.82000000065,
      "d": 119.04749999998603,
      "v": 110
    },
    {
      "midi": 66,
      "hit": false,
      "t": 154025.82000000065,
      "d": 119.04749999998603,
      "v": 110
    },
    {
      "midi": 69,
      "hit": false,
      "t": 154025.82000000065,
      "d": 119.04749999998603,
      "v": 110
    },
    {
      "midi": 57,
      "hit": false,
      "t": 154198.98000000062,
      "d": 97.40249999999651,
      "v": 96
    },
    {
      "midi": 66,
      "hit": false,
      "t": 154198.98000000062,
      "d": 97.40249999999651,
      "v": 96
    },
    {
      "midi": 54,
      "hit": false,
      "t": 154285.5600000006,
      "d": 121.75312500001746,
      "v": 92
    },
    {
      "midi": 63,
      "hit": false,
      "t": 154285.5600000006,
      "d": 121.75312500001746,
      "v": 92
    },
    {
      "midi": 69,
      "hit": false,
      "t": 154458.7200000006,
      "d": 132.57562499999767,
      "v": 87
    },
    {
      "midi": 54,
      "hit": false,
      "t": 154545.3000000006,
      "d": 227.27249999999185,
      "v": 92
    },
    {
      "midi": 66,
      "hit": false,
      "t": 154545.3000000006,
      "d": 227.27249999999185,
      "v": 92
    },
    {
      "midi": 57,
      "hit": false,
      "t": 154718.4600000006,
      "d": 116.3418749999837,
      "v": 103
    },
    {
      "midi": 63,
      "hit": false,
      "t": 154718.4600000006,
      "d": 116.3418749999837,
      "v": 103
    },
    {
      "midi": 67,
      "hit": false,
      "t": 155064.78000000058,
      "d": 162.33749999999418,
      "v": 100
    },
    {
      "midi": 71,
      "hit": false,
      "t": 155064.78000000058,
      "d": 162.33749999999418,
      "v": 112
    },
    {
      "midi": 76,
      "hit": false,
      "t": 155064.78000000058,
      "d": 162.33749999999418,
      "v": 112
    },
    {
      "midi": 64,
      "hit": false,
      "t": 155324.52000000057,
      "d": 252.97593750001397,
      "v": 97
    },
    {
      "midi": 67,
      "hit": false,
      "t": 155324.52000000057,
      "d": 252.97593750001397,
      "v": 97
    },
    {
      "midi": 74,
      "hit": false,
      "t": 155324.52000000057,
      "d": 252.97593750001397,
      "v": 109
    },
    {
      "midi": 64,
      "hit": false,
      "t": 155584.2600000006,
      "d": 100.10812499999884,
      "v": 89
    },
    {
      "midi": 67,
      "hit": false,
      "t": 155584.2600000006,
      "d": 100.10812499999884,
      "v": 89
    },
    {
      "midi": 76,
      "hit": false,
      "t": 155584.2600000006,
      "d": 100.10812499999884,
      "v": 101
    },
    {
      "midi": 67,
      "hit": false,
      "t": 155757.4200000006,
      "d": 204.27468750000116,
      "v": 103
    },
    {
      "midi": 69,
      "hit": false,
      "t": 155757.4200000006,
      "d": 204.27468750000116,
      "v": 103
    },
    {
      "midi": 73,
      "hit": false,
      "t": 155757.4200000006,
      "d": 204.27468750000116,
      "v": 115
    },
    {
      "midi": 74,
      "hit": false,
      "t": 156872.1375000006,
      "d": 66.28781249999884,
      "v": 109
    },
    {
      "midi": 78,
      "hit": false,
      "t": 156873.4903125006,
      "d": 66.28781249999884,
      "v": 103
    },
    {
      "midi": 72,
      "hit": false,
      "t": 156873.4903125006,
      "d": 67.640625,
      "v": 101
    },
    {
      "midi": 62,
      "hit": false,
      "t": 156877.5487500006,
      "d": 86.5799999999872,
      "v": 103
    },
    {
      "midi": 62,
      "hit": false,
      "t": 157407.8512500006,
      "d": 71.69906250000349,
      "v": 106
    },
    {
      "midi": 78,
      "hit": false,
      "t": 157413.2625000006,
      "d": 58.17093749999185,
      "v": 106
    },
    {
      "midi": 74,
      "hit": false,
      "t": 157414.6153125006,
      "d": 58.17093749999185,
      "v": 109
    },
    {
      "midi": 72,
      "hit": false,
      "t": 157415.9681250006,
      "d": 55.46531249998952,
      "v": 103
    },
    {
      "midi": 62,
      "hit": false,
      "t": 157539.0740625006,
      "d": 85.22718750001513,
      "v": 103
    },
    {
      "midi": 72,
      "hit": false,
      "t": 157541.7796875006,
      "d": 59.523749999993015,
      "v": 103
    },
    {
      "midi": 74,
      "hit": false,
      "t": 157543.1325000006,
      "d": 62.22937499999534,
      "v": 106
    },
    {
      "midi": 78,
      "hit": false,
      "t": 157544.4853125006,
      "d": 68.99343750000116,
      "v": 103
    },
    {
      "midi": 74,
      "hit": false,
      "t": 157911.09750000061,
      "d": 66.28781249999884,
      "v": 109
    },
    {
      "midi": 78,
      "hit": false,
      "t": 157912.45031250062,
      "d": 66.28781249999884,
      "v": 103
    },
    {
      "midi": 72,
      "hit": false,
      "t": 157912.45031250062,
      "d": 67.640625,
      "v": 101
    },
    {
      "midi": 62,
      "hit": false,
      "t": 157916.50875000062,
      "d": 86.5799999999872,
      "v": 103
    },
    {
      "midi": 65,
      "hit": false,
      "t": 159480.3600000006,
      "d": 346.320000000007,
      "v": 106
    },
    {
      "midi": 72,
      "hit": false,
      "t": 159480.3600000006,
      "d": 378.7875000000058,
      "v": 103
    },
    {
      "midi": 69,
      "hit": false,
      "t": 159481.7128125006,
      "d": 365.2593749999942,
      "v": 118
    },
    {
      "midi": 74,
      "hit": false,
      "t": 159481.7128125006,
      "d": 382.8459375000093,
      "v": 109
    },
    {
      "midi": 77,
      "hit": false,
      "t": 160516.61437500062,
      "d": 424.7831250000163,
      "v": 96
    },
    {
      "midi": 65,
      "hit": false,
      "t": 160516.61437500062,
      "d": 434.25281250002445,
      "v": 89
    },
    {
      "midi": 72,
      "hit": false,
      "t": 160519.32000000062,
      "d": 423.43031250001513,
      "v": 103
    },
    {
      "midi": 65,
      "hit": false,
      "t": 161297.18718750065,
      "d": 163.69031249999534,
      "v": 96
    },
    {
      "midi": 61,
      "hit": false,
      "t": 161297.18718750065,
      "d": 206.9803125000035,
      "v": 83
    },
    {
      "midi": 68,
      "hit": false,
      "t": 161298.54000000065,
      "d": 174.51281250000466,
      "v": 83
    },
    {
      "midi": 61,
      "hit": false,
      "t": 161815.31437500066,
      "d": 258.3871874999895,
      "v": 83
    },
    {
      "midi": 68,
      "hit": false,
      "t": 161818.02000000066,
      "d": 198.8634374999965,
      "v": 87
    },
    {
      "midi": 65,
      "hit": false,
      "t": 161818.02000000066,
      "d": 220.50843749998603,
      "v": 98
    },
    {
      "midi": 68,
      "hit": false,
      "t": 162334.79437500064,
      "d": 185.33531250001397,
      "v": 85
    },
    {
      "midi": 61,
      "hit": false,
      "t": 162336.14718750064,
      "d": 188.0409375000163,
      "v": 76
    },
    {
      "midi": 65,
      "hit": false,
      "t": 162338.85281250064,
      "d": 171.80718750000233,
      "v": 91
    },
    {
      "midi": 65,
      "hit": false,
      "t": 162854.27437500065,
      "d": 244.85906250000698,
      "v": 91
    },
    {
      "midi": 68,
      "hit": false,
      "t": 162855.62718750065,
      "d": 238.09500000000116,
      "v": 87
    },
    {
      "midi": 61,
      "hit": false,
      "t": 162856.98000000065,
      "d": 238.09500000000116,
      "v": 76
    },
    {
      "midi": 68,
      "hit": false,
      "t": 163373.75437500066,
      "d": 254.32875000001513,
      "v": 81
    },
    {
      "midi": 65,
      "hit": false,
      "t": 163373.75437500066,
      "d": 261.09281250002095,
      "v": 94
    },
    {
      "midi": 61,
      "hit": false,
      "t": 163375.10718750066,
      "d": 255.6815625000163,
      "v": 83
    },
    {
      "midi": 65,
      "hit": false,
      "t": 163895.94000000067,
      "d": 160.98468749999302,
      "v": 98
    },
    {
      "midi": 61,
      "hit": false,
      "t": 163897.29281250067,
      "d": 167.74874999999884,
      "v": 94
    },
    {
      "midi": 68,
      "hit": false,
      "t": 163897.29281250067,
      "d": 179.9240625000093,
      "v": 94
    },
    {
      "midi": 64,
      "hit": false,
      "t": 164152.9743750007,
      "d": 1006.4925000000221,
      "v": 101
    },
    {
      "midi": 60,
      "hit": false,
      "t": 164152.9743750007,
      "d": 1009.1981250000244,
      "v": 101
    },
    {
      "midi": 67,
      "hit": false,
      "t": 164155.6800000007,
      "d": 960.4968750000116,
      "v": 115
    }
  ]
}