{
  "jsonPath": "Unknown/Unknown/Wendy Moten/come-in-out-of-the-rain.json",
  "path": "Unknown\\Unknown\\Wendy Moten\\Come In Out Of The Rain.mid",
  "name": "Come In Out Of The Rain",
  "difficulty": "Advanced",
  "bpm": 120,
  "notes": [
    {
      "midi": 72,
      "hit": false,
      "t": 6016.927083333334,
      "d": 1235.677083333333,
      "v": 104
    },
    {
      "midi": 65,
      "hit": false,
      "t": 6248.697916666667,
      "d": 265.625,
      "v": 88
    },
    {
      "midi": 67,
      "hit": false,
      "t": 6501.302083333334,
      "d": 251.30208333333303,
      "v": 96
    },
    {
      "midi": 69,
      "hit": false,
      "t": 6756.510416666667,
      "d": 623.6979166666661,
      "v": 85
    },
    {
      "midi": 77,
      "hit": false,
      "t": 7261.71875,
      "d": 290.36458333333303,
      "v": 98
    },
    {
      "midi": 76,
      "hit": false,
      "t": 7520.833333333333,
      "d": 285.15625,
      "v": 76
    },
    {
      "midi": 70,
      "hit": false,
      "t": 7772.135416666666,
      "d": 1526.041666666666,
      "v": 85
    },
    {
      "midi": 77,
      "hit": false,
      "t": 9270.833333333332,
      "d": 289.0625,
      "v": 95
    },
    {
      "midi": 76,
      "hit": false,
      "t": 9536.458333333332,
      "d": 221.35416666666606,
      "v": 97
    },
    {
      "midi": 69,
      "hit": false,
      "t": 9772.135416666664,
      "d": 765.625,
      "v": 97
    },
    {
      "midi": 65,
      "hit": false,
      "t": 10532.55208333333,
      "d": 268.22916666666606,
      "v": 90
    },
    {
      "midi": 67,
      "hit": false,
      "t": 10778.64583333333,
      "d": 477.8645833333321,
      "v": 86
    },
    {
      "midi": 69,
      "hit": false,
      "t": 11270.833333333328,
      "d": 484.375,
      "v": 86
    },
    {
      "midi": 67,
      "hit": false,
      "t": 11756.510416666662,
      "d": 2186.197916666666,
      "v": 92
    },
    {
      "midi": 77,
      "hit": false,
      "t": 14000.000000000002,
      "d": 2610.6770833333376,
      "v": 89
    },
    {
      "midi": 65,
      "hit": false,
      "t": 14266.927083333336,
      "d": 235.67708333333394,
      "v": 83
    },
    {
      "midi": 67,
      "hit": false,
      "t": 14490.88541666667,
      "d": 233.07291666666606,
      "v": 91
    },
    {
      "midi": 69,
      "hit": false,
      "t": 14756.51041666667,
      "d": 1691.4062500000018,
      "v": 111
    },
    {
      "midi": 77,
      "hit": false,
      "t": 15236.979166666662,
      "d": 279.94791666666606,
      "v": 100
    },
    {
      "midi": 76,
      "hit": false,
      "t": 15490.885416666662,
      "d": 1808.5937500000018,
      "v": 100
    },
    {
      "midi": 70,
      "hit": false,
      "t": 15740.885416666662,
      "d": 1550.7812500000018,
      "v": 101
    },
    {
      "midi": 67,
      "hit": false,
      "t": 16494.79166666667,
      "d": 302.08333333333576,
      "v": 70
    },
    {
      "midi": 69,
      "hit": false,
      "t": 16770.83333333334,
      "d": 481.77083333333576,
      "v": 89
    },
    {
      "midi": 70,
      "hit": false,
      "t": 17266.927083333343,
      "d": 500,
      "v": 108
    },
    {
      "midi": 77,
      "hit": false,
      "t": 17269.531249999996,
      "d": 276.0416666666679,
      "v": 97
    },
    {
      "midi": 76,
      "hit": false,
      "t": 17519.531249999996,
      "d": 321.61458333333576,
      "v": 98
    },
    {
      "midi": 69,
      "hit": false,
      "t": 17770.833333333332,
      "d": 774.7395833333321,
      "v": 96
    },
    {
      "midi": 69,
      "hit": false,
      "t": 17779.947916666675,
      "d": 2020.8333333333321,
      "v": 100
    },
    {
      "midi": 65,
      "hit": false,
      "t": 18537.760416666664,
      "d": 265.625,
      "v": 80
    },
    {
      "midi": 67,
      "hit": false,
      "t": 18789.062499999996,
      "d": 496.09375,
      "v": 75
    },
    {
      "midi": 69,
      "hit": false,
      "t": 19294.27083333333,
      "d": 463.5416666666679,
      "v": 77
    },
    {
      "midi": 67,
      "hit": false,
      "t": 19757.812499999996,
      "d": 2132.8125,
      "v": 92
    },
    {
      "midi": 57,
      "hit": false,
      "t": 21999.999999999996,
      "d": 389.3229166666679,
      "v": 86
    },
    {
      "midi": 41,
      "hit": false,
      "t": 21999.999999999996,
      "d": 1821.6145833333321,
      "v": 75
    },
    {
      "midi": 53,
      "hit": false,
      "t": 22233.072916666664,
      "d": 859.375,
      "v": 71
    },
    {
      "midi": 57,
      "hit": false,
      "t": 22480.468749999996,
      "d": 833.3333333333321,
      "v": 89
    },
    {
      "midi": 65,
      "hit": false,
      "t": 22726.562499999996,
      "d": 1294.2708333333321,
      "v": 101
    },
    {
      "midi": 53,
      "hit": false,
      "t": 23253.906249999996,
      "d": 307.29166666666424,
      "v": 60
    },
    {
      "midi": 57,
      "hit": false,
      "t": 23518.22916666666,
      "d": 509.11458333333576,
      "v": 87
    },
    {
      "midi": 53,
      "hit": false,
      "t": 23764.32291666666,
      "d": 236.97916666666788,
      "v": 77
    },
    {
      "midi": 43,
      "hit": false,
      "t": 24011.718749999996,
      "d": 1757.8125,
      "v": 75
    },
    {
      "midi": 58,
      "hit": false,
      "t": 24015.624999999996,
      "d": 335.93750000000364,
      "v": 97
    },
    {
      "midi": 55,
      "hit": false,
      "t": 24255.208333333332,
      "d": 861.9791666666642,
      "v": 78
    },
    {
      "midi": 58,
      "hit": false,
      "t": 24516.927083333332,
      "d": 816.4062499999964,
      "v": 97
    },
    {
      "midi": 65,
      "hit": false,
      "t": 24776.041666666664,
      "d": 1210.9374999999964,
      "v": 103
    },
    {
      "midi": 55,
      "hit": false,
      "t": 25251.30208333333,
      "d": 290.3645833333321,
      "v": 75
    },
    {
      "midi": 58,
      "hit": false,
      "t": 25489.58333333333,
      "d": 476.5625,
      "v": 88
    },
    {
      "midi": 55,
      "hit": false,
      "t": 25735.67708333333,
      "d": 246.09375,
      "v": 72
    },
    {
      "midi": 45,
      "hit": false,
      "t": 25993.48958333333,
      "d": 1777.34375,
      "v": 75
    },
    {
      "midi": 60,
      "hit": false,
      "t": 25997.39583333333,
      "d": 342.4479166666679,
      "v": 93
    },
    {
      "midi": 57,
      "hit": false,
      "t": 26251.30208333333,
      "d": 613.28125,
      "v": 78
    },
    {
      "midi": 60,
      "hit": false,
      "t": 26489.58333333333,
      "d": 679.6875,
      "v": 84
    },
    {
      "midi": 65,
      "hit": false,
      "t": 26748.69791666666,
      "d": 675.78125,
      "v": 93
    },
    {
      "midi": 57,
      "hit": false,
      "t": 27231.77083333333,
      "d": 227.86458333333212,
      "v": 75
    },
    {
      "midi": 60,
      "hit": false,
      "t": 27459.63541666666,
      "d": 97.65625,
      "v": 95
    },
    {
      "midi": 57,
      "hit": false,
      "t": 27733.07291666666,
      "d": 87.23958333333576,
      "v": 26
    },
    {
      "midi": 65,
      "hit": false,
      "t": 27996.093749999996,
      "d": 270.8333333333321,
      "v": 89
    },
    {
      "midi": 57,
      "hit": false,
      "t": 27997.39583333333,
      "d": 220.05208333333212,
      "v": 78
    },
    {
      "midi": 62,
      "hit": false,
      "t": 27997.39583333333,
      "d": 253.90625,
      "v": 80
    },
    {
      "midi": 46,
      "hit": false,
      "t": 27997.39583333333,
      "d": 699.21875,
      "v": 79
    },
    {
      "midi": 60,
      "hit": false,
      "t": 27998.69791666666,
      "d": 246.09375,
      "v": 91
    },
    {
      "midi": 58,
      "hit": false,
      "t": 28002.60416666666,
      "d": 276.0416666666679,
      "v": 86
    },
    {
      "midi": 58,
      "hit": false,
      "t": 28723.95833333333,
      "d": 109.375,
      "v": 43
    },
    {
      "midi": 45,
      "hit": false,
      "t": 28964.843749999996,
      "d": 1007.8124999999964,
      "v": 80
    },
    {
      "midi": 61,
      "hit": false,
      "t": 29003.906249999996,
      "d": 972.6562499999964,
      "v": 84
    },
    {
      "midi": 72,
      "hit": false,
      "t": 29003.906249999996,
      "d": 983.0729166666606,
      "v": 91
    },
    {
      "midi": 69,
      "hit": false,
      "t": 29009.11458333333,
      "d": 973.9583333333285,
      "v": 78
    },
    {
      "midi": 67,
      "hit": false,
      "t": 29010.41666666666,
      "d": 971.3541666666642,
      "v": 86
    },
    {
      "midi": 57,
      "hit": false,
      "t": 29015.624999999993,
      "d": 627.6041666666679,
      "v": 81
    },
    {
      "midi": 57,
      "hit": false,
      "t": 29764.32291666666,
      "d": 239.58333333332848,
      "v": 42
    },
    {
      "midi": 50,
      "hit": false,
      "t": 29999.99999999999,
      "d": 481.7708333333321,
      "v": 64
    },
    {
      "midi": 62,
      "hit": false,
      "t": 30020.83333333332,
      "d": 748.6979166666679,
      "v": 75
    },
    {
      "midi": 60,
      "hit": false,
      "t": 30022.135416666653,
      "d": 697.9166666666679,
      "v": 76
    },
    {
      "midi": 65,
      "hit": false,
      "t": 30022.135416666653,
      "d": 751.3020833333358,
      "v": 82
    },
    {
      "midi": 69,
      "hit": false,
      "t": 30022.135416666653,
      "d": 765.6250000000036,
      "v": 71
    },
    {
      "midi": 50,
      "hit": false,
      "t": 30751.30208333332,
      "d": 546.875,
      "v": 70
    },
    {
      "midi": 60,
      "hit": false,
      "t": 30993.489583333325,
      "d": 110.67708333333212,
      "v": 40
    },
    {
      "midi": 69,
      "hit": false,
      "t": 31269.53124999999,
      "d": 304.6875,
      "v": 80
    },
    {
      "midi": 62,
      "hit": false,
      "t": 31272.135416666657,
      "d": 261.71874999999636,
      "v": 89
    },
    {
      "midi": 65,
      "hit": false,
      "t": 31272.135416666657,
      "d": 291.66666666666424,
      "v": 95
    },
    {
      "midi": 60,
      "hit": false,
      "t": 31273.43749999999,
      "d": 248.69791666666424,
      "v": 87
    },
    {
      "midi": 50,
      "hit": false,
      "t": 31510.416666666653,
      "d": 205.72916666666788,
      "v": 60
    },
    {
      "midi": 38,
      "hit": false,
      "t": 31740.885416666653,
      "d": 70.3125,
      "v": 42
    },
    {
      "midi": 50,
      "hit": false,
      "t": 31753.906249999985,
      "d": 76.82291666666788,
      "v": 26
    },
    {
      "midi": 43,
      "hit": false,
      "t": 32002.604166666653,
      "d": 1537.7604166666752,
      "v": 61
    },
    {
      "midi": 55,
      "hit": false,
      "t": 32005.20833333332,
      "d": 497.3958333333321,
      "v": 68
    },
    {
      "midi": 64,
      "hit": false,
      "t": 32007.81249999999,
      "d": 592.4479166666642,
      "v": 78
    },
    {
      "midi": 59,
      "hit": false,
      "t": 32007.81249999999,
      "d": 601.5624999999964,
      "v": 82
    },
    {
      "midi": 65,
      "hit": false,
      "t": 32007.81249999999,
      "d": 611.9791666666642,
      "v": 76
    },
    {
      "midi": 69,
      "hit": false,
      "t": 32013.02083333332,
      "d": 615.8854166666642,
      "v": 63
    },
    {
      "midi": 55,
      "hit": false,
      "t": 32725.260416666653,
      "d": 591.1458333333394,
      "v": 29
    },
    {
      "midi": 59,
      "hit": false,
      "t": 33005.20833333332,
      "d": 951.8229166666715,
      "v": 66
    },
    {
      "midi": 65,
      "hit": false,
      "t": 33010.41666666666,
      "d": 947.9166666666715,
      "v": 73
    },
    {
      "midi": 69,
      "hit": false,
      "t": 33010.41666666666,
      "d": 954.427083333343,
      "v": 65
    },
    {
      "midi": 64,
      "hit": false,
      "t": 33011.71874999999,
      "d": 951.8229166666715,
      "v": 72
    },
    {
      "midi": 55,
      "hit": false,
      "t": 33511.71874999999,
      "d": 450.52083333333576,
      "v": 46
    },
    {
      "midi": 43,
      "hit": false,
      "t": 33739.58333333333,
      "d": 207.03125,
      "v": 39
    },
    {
      "midi": 36,
      "hit": false,
      "t": 34000,
      "d": 1558.5937499999854,
      "v": 53
    },
    {
      "midi": 48,
      "hit": false,
      "t": 34016.927083333336,
      "d": 571.6145833333285,
      "v": 62
    },
    {
      "midi": 58,
      "hit": false,
      "t": 34027.34375,
      "d": 700.5208333333285,
      "v": 64
    },
    {
      "midi": 69,
      "hit": false,
      "t": 34031.25,
      "d": 720.0520833333285,
      "v": 60
    },
    {
      "midi": 65,
      "hit": false,
      "t": 34035.15625,
      "d": 682.2916666666642,
      "v": 76
    },
    {
      "midi": 62,
      "hit": false,
      "t": 34037.760416666664,
      "d": 686.1979166666642,
      "v": 75
    },
    {
      "midi": 48,
      "hit": false,
      "t": 34746.09374999999,
      "d": 585.9374999999927,
      "v": 51
    },
    {
      "midi": 58,
      "hit": false,
      "t": 34996.09374999999,
      "d": 123.69791666666424,
      "v": 42
    },
    {
      "midi": 69,
      "hit": false,
      "t": 35246.09374999999,
      "d": 562.5,
      "v": 72
    },
    {
      "midi": 58,
      "hit": false,
      "t": 35248.69791666666,
      "d": 558.59375,
      "v": 77
    },
    {
      "midi": 65,
      "hit": false,
      "t": 35251.30208333332,
      "d": 483.07291666666424,
      "v": 81
    },
    {
      "midi": 62,
      "hit": false,
      "t": 35253.906249999985,
      "d": 540.3645833333358,
      "v": 77
    },
    {
      "midi": 48,
      "hit": false,
      "t": 35507.812499999985,
      "d": 212.23958333333576,
      "v": 52
    },
    {
      "midi": 36,
      "hit": false,
      "t": 35730.468749999985,
      "d": 847.6562500000073,
      "v": 56
    },
    {
      "midi": 58,
      "hit": false,
      "t": 36011.71874999999,
      "d": 430.98958333333576,
      "v": 60
    },
    {
      "midi": 69,
      "hit": false,
      "t": 36011.71874999999,
      "d": 467.4479166666715,
      "v": 58
    },
    {
      "midi": 48,
      "hit": false,
      "t": 36013.02083333333,
      "d": 269.53125,
      "v": 57
    },
    {
      "midi": 62,
      "hit": false,
      "t": 36016.92708333333,
      "d": 412.76041666666424,
      "v": 68
    },
    {
      "midi": 65,
      "hit": false,
      "t": 36016.92708333333,
      "d": 449.21875,
      "v": 71
    },
    {
      "midi": 48,
      "hit": false,
      "t": 36555.98958333333,
      "d": 263.02083333333576,
      "v": 37
    },
    {
      "midi": 36,
      "hit": false,
      "t": 36755.20833333333,
      "d": 75.52083333333576,
      "v": 49
    },
    {
      "midi": 61,
      "hit": false,
      "t": 36990.885416666664,
      "d": 967.4479166666715,
      "v": 73
    },
    {
      "midi": 67,
      "hit": false,
      "t": 36990.885416666664,
      "d": 985.6770833333358,
      "v": 76
    },
    {
      "midi": 49,
      "hit": false,
      "t": 36994.791666666664,
      "d": 569.0104166666715,
      "v": 69
    },
    {
      "midi": 64,
      "hit": false,
      "t": 36996.09375,
      "d": 958.3333333333358,
      "v": 91
    },
    {
      "midi": 37,
      "hit": false,
      "t": 36997.395833333336,
      "d": 930.9895833333358,
      "v": 84
    },
    {
      "midi": 49,
      "hit": false,
      "t": 37756.51041666667,
      "d": 223.95833333332848,
      "v": 54
    },
    {
      "midi": 50,
      "hit": false,
      "t": 38000,
      "d": 1630.2083333333285,
      "v": 117
    },
    {
      "midi": 62,
      "hit": false,
      "t": 38266.927083333336,
      "d": 765.625,
      "v": 86
    },
    {
      "midi": 65,
      "hit": false,
      "t": 38509.114583333336,
      "d": 347.65625,
      "v": 101
    },
    {
      "midi": 74,
      "hit": false,
      "t": 38761.71875000001,
      "d": 1826.8229166666642,
      "v": 106
    },
    {
      "midi": 69,
      "hit": false,
      "t": 38774.739583333336,
      "d": 759.1145833333285,
      "v": 101
    },
    {
      "midi": 65,
      "hit": false,
      "t": 39261.71875,
      "d": 868.4895833333285,
      "v": 95
    },
    {
      "midi": 65,
      "hit": false,
      "t": 39272.13541666667,
      "d": 1485.6770833333358,
      "v": 80
    },
    {
      "midi": 69,
      "hit": false,
      "t": 39276.04166666667,
      "d": 1416.6666666666642,
      "v": 81
    },
    {
      "midi": 62,
      "hit": false,
      "t": 39518.229166666664,
      "d": 488.28125,
      "v": 96
    },
    {
      "midi": 50,
      "hit": false,
      "t": 39760.416666666664,
      "d": 135.41666666666424,
      "v": 66
    },
    {
      "midi": 50,
      "hit": false,
      "t": 39994.791666666664,
      "d": 1687.5000000000073,
      "v": 102
    },
    {
      "midi": 61,
      "hit": false,
      "t": 40231.77083333333,
      "d": 1091.145833333343,
      "v": 79
    },
    {
      "midi": 65,
      "hit": false,
      "t": 40490.885416666664,
      "d": 369.7916666666715,
      "v": 102
    },
    {
      "midi": 73,
      "hit": false,
      "t": 40756.51041666667,
      "d": 1722.65625,
      "v": 115
    },
    {
      "midi": 69,
      "hit": false,
      "t": 40761.71875,
      "d": 752.6041666666715,
      "v": 98
    },
    {
      "midi": 69,
      "hit": false,
      "t": 41252.60416666667,
      "d": 1227.8645833333358,
      "v": 86
    },
    {
      "midi": 65,
      "hit": false,
      "t": 41256.51041666667,
      "d": 1255.2083333333358,
      "v": 81
    },
    {
      "midi": 65,
      "hit": false,
      "t": 41283.85416666667,
      "d": 416.66666666666424,
      "v": 95
    },
    {
      "midi": 61,
      "hit": false,
      "t": 41535.15625000001,
      "d": 662.7604166666642,
      "v": 99
    },
    {
      "midi": 50,
      "hit": false,
      "t": 41772.13541666667,
      "d": 132.8125,
      "v": 64
    },
    {
      "midi": 50,
      "hit": false,
      "t": 42014.32291666667,
      "d": 1588.541666666657,
      "v": 100
    },
    {
      "midi": 60,
      "hit": false,
      "t": 42282.552083333336,
      "d": 858.0729166666642,
      "v": 91
    },
    {
      "midi": 65,
      "hit": false,
      "t": 42516.927083333336,
      "d": 402.34375,
      "v": 98
    },
    {
      "midi": 72,
      "hit": false,
      "t": 42757.81250000001,
      "d": 1591.1458333333285,
      "v": 113
    },
    {
      "midi": 69,
      "hit": false,
      "t": 42779.94791666667,
      "d": 619.791666666657,
      "v": 98
    },
    {
      "midi": 65,
      "hit": false,
      "t": 43244.791666666664,
      "d": 890.625,
      "v": 95
    },
    {
      "midi": 69,
      "hit": false,
      "t": 43248.69791666667,
      "d": 1140.625,
      "v": 89
    },
    {
      "midi": 65,
      "hit": false,
      "t": 43248.69791666667,
      "d": 1220.0520833333358,
      "v": 81
    },
    {
      "midi": 60,
      "hit": false,
      "t": 43496.09374999999,
      "d": 566.4062500000073,
      "v": 92
    },
    {
      "midi": 50,
      "hit": false,
      "t": 43748.697916666664,
      "d": 253.90625,
      "v": 68
    },
    {
      "midi": 43,
      "hit": false,
      "t": 43989.58333333333,
      "d": 1667.9687500000073,
      "v": 98
    },
    {
      "midi": 59,
      "hit": false,
      "t": 44261.71875,
      "d": 1054.6875,
      "v": 93
    },
    {
      "midi": 65,
      "hit": false,
      "t": 44506.510416666664,
      "d": 399.73958333333576,
      "v": 91
    },
    {
      "midi": 69,
      "hit": false,
      "t": 44764.322916666664,
      "d": 593.75,
      "v": 97
    },
    {
      "midi": 71,
      "hit": false,
      "t": 44777.34375000001,
      "d": 1164.0625,
      "v": 100
    },
    {
      "midi": 65,
      "hit": false,
      "t": 45256.510416666664,
      "d": 774.7395833333358,
      "v": 86
    },
    {
      "midi": 65,
      "hit": false,
      "t": 45270.83333333334,
      "d": 644.53125,
      "v": 84
    },
    {
      "midi": 69,
      "hit": false,
      "t": 45270.83333333334,
      "d": 656.25,
      "v": 80
    },
    {
      "midi": 59,
      "hit": false,
      "t": 45527.34375,
      "d": 492.1875,
      "v": 91
    },
    {
      "midi": 43,
      "hit": false,
      "t": 45753.90625,
      "d": 248.69791666666424,
      "v": 63
    },
    {
      "midi": 43,
      "hit": false,
      "t": 46003.90625,
      "d": 1832.03125,
      "v": 111
    },
    {
      "midi": 53,
      "hit": false,
      "t": 46260.416666666664,
      "d": 1074.21875,
      "v": 117
    },
    {
      "midi": 55,
      "hit": false,
      "t": 46518.229166666664,
      "d": 972.65625,
      "v": 119
    },
    {
      "midi": 58,
      "hit": false,
      "t": 46770.83333333333,
      "d": 1321.6145833333358,
      "v": 123
    },
    {
      "midi": 65,
      "hit": false,
      "t": 47264.322916666664,
      "d": 854.1666666666642,
      "v": 119
    },
    {
      "midi": 53,
      "hit": false,
      "t": 47533.854166666664,
      "d": 438.80208333333576,
      "v": 119
    },
    {
      "midi": 55,
      "hit": false,
      "t": 47756.510416666664,
      "d": 329.42708333333576,
      "v": 113
    },
    {
      "midi": 45,
      "hit": false,
      "t": 48018.229166666664,
      "d": 1958.3333333333358,
      "v": 115
    },
    {
      "midi": 53,
      "hit": false,
      "t": 48264.322916666664,
      "d": 1040.3645833333358,
      "v": 126
    },
    {
      "midi": 55,
      "hit": false,
      "t": 48502.604166666664,
      "d": 1005.2083333333358,
      "v": 123
    },
    {
      "midi": 60,
      "hit": false,
      "t": 48750,
      "d": 1246.09375,
      "v": 119
    },
    {
      "midi": 65,
      "hit": false,
      "t": 49246.09375,
      "d": 748.6979166666642,
      "v": 119
    },
    {
      "midi": 53,
      "hit": false,
      "t": 49496.09375,
      "d": 513.0208333333285,
      "v": 119
    },
    {
      "midi": 55,
      "hit": false,
      "t": 49746.09375,
      "d": 246.09375,
      "v": 121
    },
    {
      "midi": 46,
      "hit": false,
      "t": 50006.510416666664,
      "d": 1052.0833333333358,
      "v": 123
    },
    {
      "midi": 57,
      "hit": false,
      "t": 50259.11458333333,
      "d": 1062.5000000000073,
      "v": 106
    },
    {
      "midi": 58,
      "hit": false,
      "t": 50502.604166666664,
      "d": 977.8645833333358,
      "v": 115
    },
    {
      "midi": 62,
      "hit": false,
      "t": 50757.8125,
      "d": 774.7395833333358,
      "v": 101
    },
    {
      "midi": 65,
      "hit": false,
      "t": 50760.416666666664,
      "d": 800.7812500000073,
      "v": 111
    },
    {
      "midi": 46,
      "hit": false,
      "t": 51253.90625,
      "d": 565.1041666666715,
      "v": 110
    },
    {
      "midi": 57,
      "hit": false,
      "t": 51505.208333333336,
      "d": 292.96875,
      "v": 84
    },
    {
      "midi": 58,
      "hit": false,
      "t": 51751.302083333336,
      "d": 165.36458333333576,
      "v": 117
    },
    {
      "midi": 48,
      "hit": false,
      "t": 51996.09375000001,
      "d": 3628.906250000029,
      "v": 106
    },
    {
      "midi": 55,
      "hit": false,
      "t": 52243.48958333334,
      "d": 1097.65625,
      "v": 107
    },
    {
      "midi": 58,
      "hit": false,
      "t": 52492.18750000001,
      "d": 471.3541666666715,
      "v": 94
    },
    {
      "midi": 62,
      "hit": false,
      "t": 52755.20833333334,
      "d": 751.3020833333358,
      "v": 90
    },
    {
      "midi": 65,
      "hit": false,
      "t": 53001.30208333334,
      "d": 520.8333333333358,
      "v": 115
    },
    {
      "midi": 58,
      "hit": false,
      "t": 53003.90625000001,
      "d": 490.8854166666715,
      "v": 86
    },
    {
      "midi": 69,
      "hit": false,
      "t": 53005.20833333334,
      "d": 555.9895833333358,
      "v": 121
    },
    {
      "midi": 68,
      "hit": false,
      "t": 53022.13541666668,
      "d": 14.322916666664241,
      "v": 73
    },
    {
      "midi": 55,
      "hit": false,
      "t": 53489.58333333334,
      "d": 854.1666666666861,
      "v": 95
    },
    {
      "midi": 58,
      "hit": false,
      "t": 53726.562500000015,
      "d": 454.42708333333576,
      "v": 63
    },
    {
      "midi": 62,
      "hit": false,
      "t": 53984.375000000015,
      "d": 221.35416666667152,
      "v": 78
    },
    {
      "midi": 65,
      "hit": false,
      "t": 54257.81250000002,
      "d": 489.58333333333576,
      "v": 107
    },
    {
      "midi": 62,
      "hit": false,
      "t": 54261.71875000002,
      "d": 471.3541666666715,
      "v": 96
    },
    {
      "midi": 58,
      "hit": false,
      "t": 54263.02083333336,
      "d": 455.7291666666715,
      "v": 96
    },
    {
      "midi": 69,
      "hit": false,
      "t": 54264.32291666669,
      "d": 466.14583333333576,
      "v": 97
    },
    {
      "midi": 55,
      "hit": false,
      "t": 54776.04166666669,
      "d": 700.520833333343,
      "v": 86
    },
    {
      "midi": 58,
      "hit": false,
      "t": 55045.57291666669,
      "d": 429.6875000000073,
      "v": 88
    },
    {
      "midi": 69,
      "hit": false,
      "t": 55046.87500000003,
      "d": 411.45833333333576,
      "v": 98
    },
    {
      "midi": 65,
      "hit": false,
      "t": 55050.78125000003,
      "d": 447.9166666666788,
      "v": 104
    },
    {
      "midi": 62,
      "hit": false,
      "t": 55052.083333333365,
      "d": 437.5000000000073,
      "v": 101
    },
    {
      "midi": 58,
      "hit": false,
      "t": 55536.45833333337,
      "d": 389.32291666666424,
      "v": 88
    },
    {
      "midi": 62,
      "hit": false,
      "t": 55544.27083333337,
      "d": 381.51041666666424,
      "v": 101
    },
    {
      "midi": 65,
      "hit": false,
      "t": 55544.27083333337,
      "d": 390.625,
      "v": 111
    },
    {
      "midi": 67,
      "hit": false,
      "t": 55548.17708333337,
      "d": 390.625,
      "v": 101
    },
    {
      "midi": 41,
      "hit": false,
      "t": 56009.11458333334,
      "d": 1558.5937500000073,
      "v": 124
    },
    {
      "midi": 53,
      "hit": false,
      "t": 56255.20833333334,
      "d": 817.7083333333358,
      "v": 123
    },
    {
      "midi": 60,
      "hit": false,
      "t": 56497.39583333334,
      "d": 764.3229166666715,
      "v": 113
    },
    {
      "midi": 69,
      "hit": false,
      "t": 56747.39583333334,
      "d": 1542.9687500000146,
      "v": 115
    },
    {
      "midi": 65,
      "hit": false,
      "t": 56748.69791666668,
      "d": 1587.239583333343,
      "v": 127
    },
    {
      "midi": 53,
      "hit": false,
      "t": 57246.093750000015,
      "d": 265.625,
      "v": 107
    },
    {
      "midi": 60,
      "hit": false,
      "t": 57481.77083333335,
      "d": 736.9791666666715,
      "v": 109
    },
    {
      "midi": 52,
      "hit": false,
      "t": 57729.166666666686,
      "d": 160.15625,
      "v": 100
    },
    {
      "midi": 40,
      "hit": false,
      "t": 57734.37500000002,
      "d": 152.34375,
      "v": 102
    },
    {
      "midi": 38,
      "hit": false,
      "t": 57983.072916666686,
      "d": 1794.2708333333358,
      "v": 115
    },
    {
      "midi": 50,
      "hit": false,
      "t": 58231.77083333336,
      "d": 803.3854166666715,
      "v": 113
    },
    {
      "midi": 60,
      "hit": false,
      "t": 58488.28125000002,
      "d": 795.5729166666715,
      "v": 109
    },
    {
      "midi": 69,
      "hit": false,
      "t": 58743.48958333336,
      "d": 1309.8958333333285,
      "v": 111
    },
    {
      "midi": 65,
      "hit": false,
      "t": 58744.79166666669,
      "d": 1328.1249999999927,
      "v": 117
    },
    {
      "midi": 50,
      "hit": false,
      "t": 59248.69791666669,
      "d": 263.0208333333285,
      "v": 104
    },
    {
      "midi": 60,
      "hit": false,
      "t": 59505.20833333336,
      "d": 533.8541666666642,
      "v": 113
    },
    {
      "midi": 50,
      "hit": false,
      "t": 59755.20833333336,
      "d": 102.86458333332848,
      "v": 97
    },
    {
      "midi": 46,
      "hit": false,
      "t": 60003.90625000002,
      "d": 1742.1874999999854,
      "v": 115
    },
    {
      "midi": 58,
      "hit": false,
      "t": 60253.90625000002,
      "d": 727.8645833333285,
      "v": 127
    },
    {
      "midi": 62,
      "hit": false,
      "t": 60494.791666666686,
      "d": 785.1562499999927,
      "v": 102
    },
    {
      "midi": 65,
      "hit": false,
      "t": 60750.00000000002,
      "d": 1394.5312499999927,
      "v": 123
    },
    {
      "midi": 70,
      "hit": false,
      "t": 60752.604166666686,
      "d": 1736.979166666657,
      "v": 127
    },
    {
      "midi": 58,
      "hit": false,
      "t": 61257.812500000015,
      "d": 255.20833333332848,
      "v": 115
    },
    {
      "midi": 62,
      "hit": false,
      "t": 61510.41666666668,
      "d": 617.1875,
      "v": 109
    },
    {
      "midi": 58,
      "hit": false,
      "t": 61747.39583333334,
      "d": 250,
      "v": 117
    },
    {
      "midi": 46,
      "hit": false,
      "t": 61997.39583333334,
      "d": 1843.75,
      "v": 123
    },
    {
      "midi": 58,
      "hit": false,
      "t": 62244.79166666668,
      "d": 869.7916666666642,
      "v": 127
    },
    {
      "midi": 64,
      "hit": false,
      "t": 62496.09375000001,
      "d": 779.9479166666715,
      "v": 117
    },
    {
      "midi": 72,
      "hit": false,
      "t": 62747.39583333334,
      "d": 1261.71875,
      "v": 111
    },
    {
      "midi": 67,
      "hit": false,
      "t": 62747.39583333334,
      "d": 1292.96875,
      "v": 119
    },
    {
      "midi": 58,
      "hit": false,
      "t": 63255.20833333334,
      "d": 250,
      "v": 117
    },
    {
      "midi": 64,
      "hit": false,
      "t": 63493.48958333334,
      "d": 554.6875,
      "v": 123
    },
    {
      "midi": 58,
      "hit": false,
      "t": 63746.09375000001,
      "d": 222.65625,
      "v": 117
    },
    {
      "midi": 45,
      "hit": false,
      "t": 63997.39583333334,
      "d": 1529.947916666657,
      "v": 109
    },
    {
      "midi": 57,
      "hit": false,
      "t": 64253.90625000001,
      "d": 661.4583333333285,
      "v": 102
    },
    {
      "midi": 60,
      "hit": false,
      "t": 64494.79166666667,
      "d": 761.7187499999927,
      "v": 97
    },
    {
      "midi": 69,
      "hit": false,
      "t": 64755.208333333336,
      "d": 1398.4375000000073,
      "v": 111
    },
    {
      "midi": 64,
      "hit": false,
      "t": 64756.51041666667,
      "d": 1282.5520833333285,
      "v": 117
    },
    {
      "midi": 57,
      "hit": false,
      "t": 65246.09375,
      "d": 199.21875,
      "v": 106
    },
    {
      "midi": 60,
      "hit": false,
      "t": 65494.791666666664,
      "d": 601.5625000000073,
      "v": 119
    },
    {
      "midi": 50,
      "hit": false,
      "t": 65738.28125,
      "d": 234.375,
      "v": 96
    },
    {
      "midi": 38,
      "hit": false,
      "t": 65993.48958333333,
      "d": 1842.4479166667006,
      "v": 117
    },
    {
      "midi": 50,
      "hit": false,
      "t": 66243.48958333334,
      "d": 747.395833333343,
      "v": 109
    },
    {
      "midi": 60,
      "hit": false,
      "t": 66500.00000000001,
      "d": 748.6979166666715,
      "v": 101
    },
    {
      "midi": 69,
      "hit": false,
      "t": 66756.51041666669,
      "d": 976.5625,
      "v": 115
    },
    {
      "midi": 65,
      "hit": false,
      "t": 66757.81250000001,
      "d": 958.333333333343,
      "v": 119
    },
    {
      "midi": 50,
      "hit": false,
      "t": 67247.39583333336,
      "d": 255.20833333332848,
      "v": 102
    },
    {
      "midi": 60,
      "hit": false,
      "t": 67502.60416666669,
      "d": 201.82291666667152,
      "v": 115
    },
    {
      "midi": 50,
      "hit": false,
      "t": 67747.39583333336,
      "d": 147.13541666667152,
      "v": 83
    },
    {
      "midi": 65,
      "hit": false,
      "t": 68000.00000000003,
      "d": 84.63541666667152,
      "v": 101
    },
    {
      "midi": 67,
      "hit": false,
      "t": 68000.00000000003,
      "d": 225.26041666667152,
      "v": 127
    },
    {
      "midi": 70,
      "hit": false,
      "t": 68000.00000000003,
      "d": 1779.9479166666715,
      "v": 127
    },
    {
      "midi": 39,
      "hit": false,
      "t": 68003.90625000003,
      "d": 1811.1979166666715,
      "v": 119
    },
    {
      "midi": 65,
      "hit": false,
      "t": 68252.6041666667,
      "d": 236.97916666667152,
      "v": 113
    },
    {
      "midi": 63,
      "hit": false,
      "t": 68485.67708333337,
      "d": 899.7395833333285,
      "v": 112
    },
    {
      "midi": 51,
      "hit": false,
      "t": 68747.39583333337,
      "d": 309.8958333333285,
      "v": 123
    },
    {
      "midi": 58,
      "hit": false,
      "t": 68759.11458333337,
      "d": 493.4895833333285,
      "v": 104
    },
    {
      "midi": 51,
      "hit": false,
      "t": 69253.90625000003,
      "d": 257.81250000001455,
      "v": 121
    },
    {
      "midi": 63,
      "hit": false,
      "t": 69501.30208333337,
      "d": 277.34375,
      "v": 74
    },
    {
      "midi": 58,
      "hit": false,
      "t": 69505.20833333337,
      "d": 324.21875,
      "v": 125
    },
    {
      "midi": 51,
      "hit": false,
      "t": 69763.02083333337,
      "d": 134.11458333332848,
      "v": 123
    },
    {
      "midi": 36,
      "hit": false,
      "t": 70002.6041666667,
      "d": 1894.53125,
      "v": 121
    },
    {
      "midi": 58,
      "hit": false,
      "t": 70261.71875000003,
      "d": 273.4375,
      "v": 127
    },
    {
      "midi": 65,
      "hit": false,
      "t": 70261.71875000003,
      "d": 277.34375,
      "v": 127
    },
    {
      "midi": 62,
      "hit": false,
      "t": 70261.71875000003,
      "d": 281.25,
      "v": 124
    },
    {
      "midi": 48,
      "hit": false,
      "t": 70742.18750000003,
      "d": 372.3958333333285,
      "v": 117
    },
    {
      "midi": 62,
      "hit": false,
      "t": 71007.81250000003,
      "d": 292.96875,
      "v": 126
    },
    {
      "midi": 58,
      "hit": false,
      "t": 71007.81250000003,
      "d": 296.875,
      "v": 127
    },
    {
      "midi": 65,
      "hit": false,
      "t": 71007.81250000003,
      "d": 313.8020833333285,
      "v": 127
    },
    {
      "midi": 48,
      "hit": false,
      "t": 71259.11458333336,
      "d": 653.645833333343,
      "v": 123
    },
    {
      "midi": 60,
      "hit": false,
      "t": 71500.00000000003,
      "d": 442.70833333334303,
      "v": 127
    },
    {
      "midi": 64,
      "hit": false,
      "t": 71502.6041666667,
      "d": 442.70833333334303,
      "v": 127
    },
    {
      "midi": 67,
      "hit": false,
      "t": 71502.6041666667,
      "d": 451.8229166666715,
      "v": 127
    },
    {
      "midi": 53,
      "hit": false,
      "t": 72000.00000000004,
      "d": 453.125,
      "v": 107
    },
    {
      "midi": 68,
      "hit": false,
      "t": 72001.30208333337,
      "d": 14.322916666671517,
      "v": 82
    },
    {
      "midi": 60,
      "hit": false,
      "t": 72001.30208333337,
      "d": 608.0729166666715,
      "v": 126
    },
    {
      "midi": 69,
      "hit": false,
      "t": 72001.30208333337,
      "d": 626.302083333343,
      "v": 126
    },
    {
      "midi": 65,
      "hit": false,
      "t": 72001.30208333337,
      "d": 657.552083333343,
      "v": 127
    },
    {
      "midi": 53,
      "hit": false,
      "t": 72501.30208333337,
      "d": 799.4791666666715,
      "v": 113
    },
    {
      "midi": 60,
      "hit": false,
      "t": 72748.69791666672,
      "d": 850.2604166666715,
      "v": 100
    },
    {
      "midi": 69,
      "hit": false,
      "t": 72998.69791666672,
      "d": 192.70833333332848,
      "v": 124
    },
    {
      "midi": 65,
      "hit": false,
      "t": 72998.69791666672,
      "d": 639.3229166666715,
      "v": 127
    },
    {
      "midi": 70,
      "hit": false,
      "t": 73248.69791666672,
      "d": 380.20833333334303,
      "v": 121
    },
    {
      "midi": 53,
      "hit": false,
      "t": 73498.69791666672,
      "d": 259.1145833333285,
      "v": 106
    },
    {
      "midi": 60,
      "hit": false,
      "t": 73748.69791666672,
      "d": 549.4791666666715,
      "v": 111
    },
    {
      "midi": 72,
      "hit": false,
      "t": 73748.69791666672,
      "d": 945.3125,
      "v": 115
    },
    {
      "midi": 65,
      "hit": false,
      "t": 73748.69791666672,
      "d": 1098.9583333333285,
      "v": 127
    },
    {
      "midi": 38,
      "hit": false,
      "t": 74000.00000000004,
      "d": 1776.0416666666715,
      "v": 115
    },
    {
      "midi": 50,
      "hit": false,
      "t": 74248.69791666672,
      "d": 295.5729166666715,
      "v": 115
    },
    {
      "midi": 60,
      "hit": false,
      "t": 74498.69791666672,
      "d": 343.75,
      "v": 107
    },
    {
      "midi": 50,
      "hit": false,
      "t": 74748.69791666672,
      "d": 598.9583333333285,
      "v": 115
    },
    {
      "midi": 69,
      "hit": false,
      "t": 74998.69791666672,
      "d": 166.66666666667152,
      "v": 115
    },
    {
      "midi": 60,
      "hit": false,
      "t": 74998.69791666672,
      "d": 511.71875,
      "v": 106
    },
    {
      "midi": 65,
      "hit": false,
      "t": 74998.69791666672,
      "d": 648.4375,
      "v": 123
    },
    {
      "midi": 70,
      "hit": false,
      "t": 75248.69791666672,
      "d": 373.6979166666715,
      "v": 108
    },
    {
      "midi": 50,
      "hit": false,
      "t": 75498.69791666672,
      "d": 287.7604166666715,
      "v": 109
    },
    {
      "midi": 62,
      "hit": false,
      "t": 75748.69791666672,
      "d": 623.6979166666715,
      "v": 101
    },
    {
      "midi": 60,
      "hit": false,
      "t": 75748.69791666672,
      "d": 626.302083333343,
      "v": 107
    },
    {
      "midi": 72,
      "hit": false,
      "t": 75748.69791666672,
      "d": 981.770833333343,
      "v": 107
    },
    {
      "midi": 65,
      "hit": false,
      "t": 75748.69791666672,
      "d": 1208.333333333343,
      "v": 127
    },
    {
      "midi": 34,
      "hit": false,
      "t": 76001.30208333339,
      "d": 1582.03125,
      "v": 117
    },
    {
      "midi": 46,
      "hit": false,
      "t": 76251.30208333339,
      "d": 291.6666666666715,
      "v": 112
    },
    {
      "midi": 62,
      "hit": false,
      "t": 76501.30208333339,
      "d": 365.8854166666715,
      "v": 66
    },
    {
      "midi": 60,
      "hit": false,
      "t": 76501.30208333339,
      "d": 373.6979166666715,
      "v": 82
    },
    {
      "midi": 46,
      "hit": false,
      "t": 76751.30208333339,
      "d": 498.6979166666715,
      "v": 115
    },
    {
      "midi": 60,
      "hit": false,
      "t": 77001.30208333339,
      "d": 776.0416666666715,
      "v": 101
    },
    {
      "midi": 62,
      "hit": false,
      "t": 77001.30208333339,
      "d": 776.0416666666715,
      "v": 96
    },
    {
      "midi": 65,
      "hit": false,
      "t": 77001.30208333339,
      "d": 782.552083333343,
      "v": 107
    },
    {
      "midi": 70,
      "hit": false,
      "t": 77001.30208333339,
      "d": 792.9687500000146,
      "v": 125
    },
    {
      "midi": 46,
      "hit": false,
      "t": 77501.30208333339,
      "d": 440.10416666668607,
      "v": 117
    },
    {
      "midi": 34,
      "hit": false,
      "t": 77751.30208333339,
      "d": 171.87500000001455,
      "v": 117
    },
    {
      "midi": 61,
      "hit": false,
      "t": 78001.3020833334,
      "d": 606.7708333333285,
      "v": 125
    },
    {
      "midi": 67,
      "hit": false,
      "t": 78001.3020833334,
      "d": 634.1145833333285,
      "v": 124
    },
    {
      "midi": 72,
      "hit": false,
      "t": 78001.3020833334,
      "d": 749.9999999999854,
      "v": 121
    },
    {
      "midi": 45,
      "hit": false,
      "t": 78498.69791666673,
      "d": 501.3020833333285,
      "v": 119
    },
    {
      "midi": 65,
      "hit": false,
      "t": 78750.00000000006,
      "d": 242.1875,
      "v": 88
    },
    {
      "midi": 49,
      "hit": false,
      "t": 78998.69791666673,
      "d": 415.3645833333285,
      "v": 123
    },
    {
      "midi": 37,
      "hit": false,
      "t": 78998.69791666673,
      "d": 657.5520833333285,
      "v": 117
    },
    {
      "midi": 61,
      "hit": false,
      "t": 79000.00000000006,
      "d": 671.875,
      "v": 117
    },
    {
      "midi": 64,
      "hit": false,
      "t": 79000.00000000006,
      "d": 671.875,
      "v": 117
    },
    {
      "midi": 69,
      "hit": false,
      "t": 79000.00000000006,
      "d": 962.2395833333285,
      "v": 125
    },
    {
      "midi": 67,
      "hit": false,
      "t": 79500.00000000006,
      "d": 468.75,
      "v": 110
    },
    {
      "midi": 49,
      "hit": false,
      "t": 79501.30208333339,
      "d": 486.9791666666715,
      "v": 119
    },
    {
      "midi": 37,
      "hit": false,
      "t": 79751.30208333339,
      "d": 170.57291666667152,
      "v": 119
    },
    {
      "midi": 38,
      "hit": false,
      "t": 80000.00000000006,
      "d": 1540.3645833333285,
      "v": 91
    },
    {
      "midi": 50,
      "hit": false,
      "t": 80001.30208333339,
      "d": 589.84375,
      "v": 104
    },
    {
      "midi": 62,
      "hit": false,
      "t": 80001.30208333339,
      "d": 820.3125,
      "v": 111
    },
    {
      "midi": 65,
      "hit": false,
      "t": 80001.30208333339,
      "d": 923.1770833333285,
      "v": 127
    },
    {
      "midi": 69,
      "hit": false,
      "t": 80001.30208333339,
      "d": 925.78125,
      "v": 126
    },
    {
      "midi": 50,
      "hit": false,
      "t": 80751.30208333339,
      "d": 615.885416666657,
      "v": 104
    },
    {
      "midi": 62,
      "hit": false,
      "t": 80998.69791666672,
      "d": 792.96875,
      "v": 78
    },
    {
      "midi": 65,
      "hit": false,
      "t": 81248.69791666672,
      "d": 686.1979166666715,
      "v": 123
    },
    {
      "midi": 69,
      "hit": false,
      "t": 81248.69791666672,
      "d": 688.802083333343,
      "v": 107
    },
    {
      "midi": 50,
      "hit": false,
      "t": 81498.69791666672,
      "d": 433.59375,
      "v": 96
    },
    {
      "midi": 38,
      "hit": false,
      "t": 81748.69791666672,
      "d": 177.08333333332848,
      "v": 123
    },
    {
      "midi": 69,
      "hit": false,
      "t": 81998.69791666673,
      "d": 863.28125,
      "v": 107
    },
    {
      "midi": 61,
      "hit": false,
      "t": 81998.69791666673,
      "d": 901.0416666666715,
      "v": 115
    },
    {
      "midi": 65,
      "hit": false,
      "t": 81998.69791666673,
      "d": 906.25,
      "v": 117
    },
    {
      "midi": 37,
      "hit": false,
      "t": 81998.69791666673,
      "d": 1567.7083333333285,
      "v": 119
    },
    {
      "midi": 49,
      "hit": false,
      "t": 82748.69791666673,
      "d": 591.1458333333285,
      "v": 74
    },
    {
      "midi": 61,
      "hit": false,
      "t": 83000.00000000006,
      "d": 833.333333333343,
      "v": 104
    },
    {
      "midi": 69,
      "hit": false,
      "t": 83001.30208333339,
      "d": 817.708333333343,
      "v": 113
    },
    {
      "midi": 65,
      "hit": false,
      "t": 83001.30208333339,
      "d": 837.239583333343,
      "v": 117
    },
    {
      "midi": 49,
      "hit": false,
      "t": 83501.30208333339,
      "d": 390.62500000001455,
      "v": 74
    },
    {
      "midi": 37,
      "hit": false,
      "t": 83748.69791666673,
      "d": 170.57291666667152,
      "v": 115
    },
    {
      "midi": 69,
      "hit": false,
      "t": 83998.69791666673,
      "d": 522.1354166666715,
      "v": 119
    },
    {
      "midi": 65,
      "hit": false,
      "t": 83998.69791666673,
      "d": 558.59375,
      "v": 124
    },
    {
      "midi": 62,
      "hit": false,
      "t": 83998.69791666673,
      "d": 1734.375,
      "v": 111
    },
    {
      "midi": 36,
      "hit": false,
      "t": 83998.69791666673,
      "d": 1742.1875,
      "v": 113
    },
    {
      "midi": 48,
      "hit": false,
      "t": 83998.69791666673,
      "d": 1761.71875,
      "v": 115
    },
    {
      "midi": 70,
      "hit": false,
      "t": 84498.69791666673,
      "d": 253.90625,
      "v": 112
    },
    {
      "midi": 67,
      "hit": false,
      "t": 84748.69791666673,
      "d": 1014.3229166666715,
      "v": 104
    },
    {
      "midi": 69,
      "hit": false,
      "t": 85248.69791666673,
      "d": 502.6041666666715,
      "v": 66
    },
    {
      "midi": 36,
      "hit": false,
      "t": 85876.3020833334,
      "d": 1550.78125,
      "v": 88
    },
    {
      "midi": 70,
      "hit": false,
      "t": 85998.69791666673,
      "d": 490.8854166666715,
      "v": 127
    },
    {
      "midi": 48,
      "hit": false,
      "t": 85998.69791666673,
      "d": 1455.7291666666715,
      "v": 107
    },
    {
      "midi": 69,
      "hit": false,
      "t": 86248.69791666673,
      "d": 252.60416666667152,
      "v": 101
    },
    {
      "midi": 65,
      "hit": false,
      "t": 86498.69791666673,
      "d": 270.8333333333285,
      "v": 104
    },
    {
      "midi": 60,
      "hit": false,
      "t": 86748.69791666673,
      "d": 714.84375,
      "v": 106
    },
    {
      "midi": 65,
      "hit": false,
      "t": 87248.69791666673,
      "d": 289.0625,
      "v": 86
    },
    {
      "midi": 64,
      "hit": false,
      "t": 87498.69791666673,
      "d": 281.25,
      "v": 96
    },
    {
      "midi": 65,
      "hit": false,
      "t": 87751.3020833334,
      "d": 2236.979166666657,
      "v": 88
    },
    {
      "midi": 29,
      "hit": false,
      "t": 87998.69791666673,
      "d": 2000,
      "v": 59
    },
    {
      "midi": 41,
      "hit": false,
      "t": 87998.69791666673,
      "d": 2010.4166666666715,
      "v": 52
    },
    {
      "midi": 53,
      "hit": false,
      "t": 88248.6979166667,
      "d": 290.3645833333285,
      "v": 98
    },
    {
      "midi": 55,
      "hit": false,
      "t": 88498.6979166667,
      "d": 240.88541666665697,
      "v": 93
    },
    {
      "midi": 57,
      "hit": false,
      "t": 88750.00000000003,
      "d": 1041.666666666657,
      "v": 100
    },
    {
      "midi": 77,
      "hit": false,
      "t": 89251.30208333336,
      "d": 1915.364583333314,
      "v": 106
    },
    {
      "midi": 76,
      "hit": false,
      "t": 89498.69791666669,
      "d": 1664.0624999999854,
      "v": 111
    },
    {
      "midi": 70,
      "hit": false,
      "t": 89751.30208333336,
      "d": 1404.9479166666424,
      "v": 106
    },
    {
      "midi": 55,
      "hit": false,
      "t": 90248.69791666669,
      "d": 239.58333333332848,
      "v": 97
    },
    {
      "midi": 61,
      "hit": false,
      "t": 90266.9270833334,
      "d": 1868.4895833333285,
      "v": 115
    },
    {
      "midi": 57,
      "hit": false,
      "t": 90500.00000000001,
      "d": 260.41666666665697,
      "v": 90
    },
    {
      "midi": 65,
      "hit": false,
      "t": 90505.2083333334,
      "d": 1804.6875,
      "v": 113
    },
    {
      "midi": 58,
      "hit": false,
      "t": 90751.30208333334,
      "d": 778.6458333333285,
      "v": 102
    },
    {
      "midi": 67,
      "hit": false,
      "t": 90770.8333333334,
      "d": 1532.5520833333285,
      "v": 91
    },
    {
      "midi": 77,
      "hit": false,
      "t": 91251.30208333334,
      "d": 2716.145833333314,
      "v": 97
    },
    {
      "midi": 76,
      "hit": false,
      "t": 91501.30208333334,
      "d": 2467.4479166666424,
      "v": 101
    },
    {
      "midi": 69,
      "hit": false,
      "t": 91751.30208333334,
      "d": 2214.8437499999854,
      "v": 104
    },
    {
      "midi": 53,
      "hit": false,
      "t": 92251.30208333334,
      "d": 276.04166666665697,
      "v": 90
    },
    {
      "midi": 60,
      "hit": false,
      "t": 92269.53125000006,
      "d": 1048.177083333343,
      "v": 115
    },
    {
      "midi": 55,
      "hit": false,
      "t": 92498.69791666667,
      "d": 246.09375,
      "v": 100
    },
    {
      "midi": 65,
      "hit": false,
      "t": 92509.1145833334,
      "d": 804.6875,
      "v": 104
    },
    {
      "midi": 57,
      "hit": false,
      "t": 92748.69791666667,
      "d": 1126.3020833333285,
      "v": 96
    },
    {
      "midi": 67,
      "hit": false,
      "t": 92766.9270833334,
      "d": 552.0833333333285,
      "v": 91
    },
    {
      "midi": 69,
      "hit": false,
      "t": 93274.7395833334,
      "d": 742.1875,
      "v": 85
    },
    {
      "midi": 55,
      "hit": false,
      "t": 93998.69791666666,
      "d": 944.0104166666715,
      "v": 90
    },
    {
      "midi": 59,
      "hit": false,
      "t": 93998.69791666666,
      "d": 960.9375,
      "v": 109
    },
    {
      "midi": 67,
      "hit": false,
      "t": 93998.69791666673,
      "d": 1927.083333333343,
      "v": 90
    },
    {
      "midi": 58,
      "hit": false,
      "t": 95001.30208333333,
      "d": 958.3333333333285,
      "v": 71
    },
    {
      "midi": 55,
      "hit": false,
      "t": 95001.30208333333,
      "d": 963.541666666657,
      "v": 83
    },
    {
      "midi": 57,
      "hit": false,
      "t": 95999.99999999999,
      "d": 389.3229166666715,
      "v": 86
    },
    {
      "midi": 41,
      "hit": false,
      "t": 95999.99999999999,
      "d": 1821.6145833333285,
      "v": 75
    },
    {
      "midi": 53,
      "hit": false,
      "t": 96233.07291666666,
      "d": 859.375,
      "v": 71
    },
    {
      "midi": 57,
      "hit": false,
      "t": 96480.46874999999,
      "d": 833.3333333333285,
      "v": 89
    },
    {
      "midi": 65,
      "hit": false,
      "t": 96726.56249999999,
      "d": 1294.2708333333285,
      "v": 101
    },
    {
      "midi": 69,
      "hit": false,
      "t": 96776.04166666674,
      "d": 1338.5416666666715,
      "v": 101
    },
    {
      "midi": 53,
      "hit": false,
      "t": 97253.90624999999,
      "d": 307.29166666665697,
      "v": 60
    },
    {
      "midi": 77,
      "hit": false,
      "t": 97260.41666666674,
      "d": 1388.020833333343,
      "v": 111
    },
    {
      "midi": 57,
      "hit": false,
      "t": 97518.22916666664,
      "d": 509.11458333334303,
      "v": 87
    },
    {
      "midi": 53,
      "hit": false,
      "t": 97764.32291666664,
      "d": 236.97916666667152,
      "v": 77
    },
    {
      "midi": 43,
      "hit": false,
      "t": 98011.71874999999,
      "d": 1757.8125,
      "v": 75
    },
    {
      "midi": 58,
      "hit": false,
      "t": 98015.62499999999,
      "d": 335.93750000001455,
      "v": 97
    },
    {
      "midi": 55,
      "hit": false,
      "t": 98255.20833333333,
      "d": 861.979166666657,
      "v": 78
    },
    {
      "midi": 58,
      "hit": false,
      "t": 98516.92708333333,
      "d": 816.4062499999854,
      "v": 97
    },
    {
      "midi": 70,
      "hit": false,
      "t": 98756.51041666676,
      "d": 1261.71875,
      "v": 101
    },
    {
      "midi": 65,
      "hit": false,
      "t": 98776.04166666666,
      "d": 1210.9374999999854,
      "v": 103
    },
    {
      "midi": 55,
      "hit": false,
      "t": 99251.30208333331,
      "d": 290.3645833333285,
      "v": 75
    },
    {
      "midi": 77,
      "hit": false,
      "t": 99253.90625000009,
      "d": 1839.8437500000146,
      "v": 121
    },
    {
      "midi": 58,
      "hit": false,
      "t": 99489.58333333331,
      "d": 476.5625,
      "v": 88
    },
    {
      "midi": 55,
      "hit": false,
      "t": 99735.67708333331,
      "d": 246.09375,
      "v": 72
    },
    {
      "midi": 45,
      "hit": false,
      "t": 99993.48958333331,
      "d": 1777.34375,
      "v": 75
    },
    {
      "midi": 60,
      "hit": false,
      "t": 99997.39583333331,
      "d": 342.4479166666715,
      "v": 93
    },
    {
      "midi": 57,
      "hit": false,
      "t": 100251.30208333331,
      "d": 613.28125,
      "v": 78
    },
    {
      "midi": 60,
      "hit": false,
      "t": 100489.58333333331,
      "d": 679.6875,
      "v": 84
    },
    {
      "midi": 65,
      "hit": false,
      "t": 100748.69791666664,
      "d": 675.78125,
      "v": 93
    },
    {
      "midi": 67,
      "hit": false,
      "t": 100774.73958333343,
      "d": 1263.020833333343,
      "v": 106
    },
    {
      "midi": 57,
      "hit": false,
      "t": 101231.77083333331,
      "d": 227.86458333332848,
      "v": 75
    },
    {
      "midi": 77,
      "hit": false,
      "t": 101269.5312500001,
      "d": 773.4375,
      "v": 124
    },
    {
      "midi": 60,
      "hit": false,
      "t": 101459.63541666664,
      "d": 97.65625,
      "v": 95
    },
    {
      "midi": 57,
      "hit": false,
      "t": 101733.07291666664,
      "d": 87.23958333334303,
      "v": 26
    },
    {
      "midi": 65,
      "hit": false,
      "t": 101996.09374999999,
      "d": 270.8333333333285,
      "v": 89
    },
    {
      "midi": 57,
      "hit": false,
      "t": 101997.39583333331,
      "d": 220.05208333332848,
      "v": 78
    },
    {
      "midi": 62,
      "hit": false,
      "t": 101997.39583333331,
      "d": 253.90625,
      "v": 80
    },
    {
      "midi": 46,
      "hit": false,
      "t": 101997.39583333331,
      "d": 699.21875,
      "v": 79
    },
    {
      "midi": 60,
      "hit": false,
      "t": 101998.69791666664,
      "d": 246.09375,
      "v": 91
    },
    {
      "midi": 58,
      "hit": false,
      "t": 102002.60416666664,
      "d": 276.0416666666715,
      "v": 86
    },
    {
      "midi": 80,
      "hit": false,
      "t": 102498.69791666677,
      "d": 80.72916666665697,
      "v": 123
    },
    {
      "midi": 81,
      "hit": false,
      "t": 102507.8125000001,
      "d": 332.03125,
      "v": 115
    },
    {
      "midi": 84,
      "hit": false,
      "t": 102507.8125000001,
      "d": 397.1354166666715,
      "v": 109
    },
    {
      "midi": 58,
      "hit": false,
      "t": 102723.95833333331,
      "d": 109.375,
      "v": 43
    },
    {
      "midi": 45,
      "hit": false,
      "t": 102964.84374999999,
      "d": 1007.8124999999854,
      "v": 80
    },
    {
      "midi": 79,
      "hit": false,
      "t": 102994.79166666677,
      "d": 92.44791666667152,
      "v": 93
    },
    {
      "midi": 61,
      "hit": false,
      "t": 103003.90624999999,
      "d": 972.6562499999854,
      "v": 84
    },
    {
      "midi": 72,
      "hit": false,
      "t": 103003.90624999999,
      "d": 983.0729166666424,
      "v": 91
    },
    {
      "midi": 69,
      "hit": false,
      "t": 103009.11458333331,
      "d": 973.9583333333139,
      "v": 78
    },
    {
      "midi": 67,
      "hit": false,
      "t": 103010.41666666664,
      "d": 971.354166666657,
      "v": 86
    },
    {
      "midi": 57,
      "hit": false,
      "t": 103015.62499999997,
      "d": 627.6041666666715,
      "v": 81
    },
    {
      "midi": 84,
      "hit": false,
      "t": 103016.92708333344,
      "d": 364.5833333333285,
      "v": 86
    },
    {
      "midi": 80,
      "hit": false,
      "t": 103071.61458333344,
      "d": 100.26041666667152,
      "v": 108
    },
    {
      "midi": 79,
      "hit": false,
      "t": 103180.98958333344,
      "d": 118.48958333332848,
      "v": 78
    },
    {
      "midi": 77,
      "hit": false,
      "t": 103270.83333333344,
      "d": 190.10416666665697,
      "v": 98
    },
    {
      "midi": 84,
      "hit": false,
      "t": 103519.5312500001,
      "d": 451.8229166666715,
      "v": 113
    },
    {
      "midi": 79,
      "hit": false,
      "t": 103520.83333333343,
      "d": 236.97916666667152,
      "v": 123
    },
    {
      "midi": 77,
      "hit": false,
      "t": 103753.9062500001,
      "d": 214.84375,
      "v": 123
    },
    {
      "midi": 57,
      "hit": false,
      "t": 103764.32291666664,
      "d": 239.58333333331393,
      "v": 42
    },
    {
      "midi": 50,
      "hit": false,
      "t": 103999.99999999996,
      "d": 481.7708333333285,
      "v": 64
    },
    {
      "midi": 84,
      "hit": false,
      "t": 104000.0000000001,
      "d": 1707.03125,
      "v": 101
    },
    {
      "midi": 79,
      "hit": false,
      "t": 104006.51041666677,
      "d": 261.71875,
      "v": 119
    },
    {
      "midi": 62,
      "hit": false,
      "t": 104020.83333333328,
      "d": 748.6979166666715,
      "v": 75
    },
    {
      "midi": 60,
      "hit": false,
      "t": 104022.13541666661,
      "d": 697.9166666666715,
      "v": 76
    },
    {
      "midi": 65,
      "hit": false,
      "t": 104022.13541666661,
      "d": 751.302083333343,
      "v": 82
    },
    {
      "midi": 69,
      "hit": false,
      "t": 104022.13541666661,
      "d": 765.6250000000146,
      "v": 71
    },
    {
      "midi": 77,
      "hit": false,
      "t": 104261.7187500001,
      "d": 266.92708333334303,
      "v": 96
    },
    {
      "midi": 74,
      "hit": false,
      "t": 104502.60416666677,
      "d": 276.0416666666715,
      "v": 48
    },
    {
      "midi": 50,
      "hit": false,
      "t": 104751.30208333328,
      "d": 546.875,
      "v": 70
    },
    {
      "midi": 77,
      "hit": false,
      "t": 104782.55208333344,
      "d": 747.3958333333285,
      "v": 117
    },
    {
      "midi": 60,
      "hit": false,
      "t": 104993.4895833333,
      "d": 110.67708333332848,
      "v": 40
    },
    {
      "midi": 69,
      "hit": false,
      "t": 105269.53124999996,
      "d": 304.6875,
      "v": 80
    },
    {
      "midi": 62,
      "hit": false,
      "t": 105272.13541666663,
      "d": 261.71874999998545,
      "v": 89
    },
    {
      "midi": 65,
      "hit": false,
      "t": 105272.13541666663,
      "d": 291.66666666665697,
      "v": 95
    },
    {
      "midi": 60,
      "hit": false,
      "t": 105273.43749999996,
      "d": 248.69791666665697,
      "v": 87
    },
    {
      "midi": 50,
      "hit": false,
      "t": 105510.41666666661,
      "d": 205.72916666667152,
      "v": 60
    },
    {
      "midi": 38,
      "hit": false,
      "t": 105740.88541666661,
      "d": 70.3125,
      "v": 42
    },
    {
      "midi": 81,
      "hit": false,
      "t": 105750.0000000001,
      "d": 2253.90625,
      "v": 100
    },
    {
      "midi": 50,
      "hit": false,
      "t": 105753.90624999994,
      "d": 76.82291666667152,
      "v": 26
    },
    {
      "midi": 43,
      "hit": false,
      "t": 106002.60416666661,
      "d": 1537.760416666657,
      "v": 61
    },
    {
      "midi": 55,
      "hit": false,
      "t": 106005.20833333328,
      "d": 497.3958333333285,
      "v": 68
    },
    {
      "midi": 64,
      "hit": false,
      "t": 106007.81249999996,
      "d": 592.447916666657,
      "v": 78
    },
    {
      "midi": 59,
      "hit": false,
      "t": 106007.81249999996,
      "d": 601.5624999999854,
      "v": 82
    },
    {
      "midi": 65,
      "hit": false,
      "t": 106007.81249999996,
      "d": 611.979166666657,
      "v": 76
    },
    {
      "midi": 69,
      "hit": false,
      "t": 106013.02083333328,
      "d": 615.885416666657,
      "v": 63
    },
    {
      "midi": 76,
      "hit": false,
      "t": 106018.22916666677,
      "d": 1989.5833333333285,
      "v": 107
    },
    {
      "midi": 55,
      "hit": false,
      "t": 106725.26041666661,
      "d": 591.1458333333285,
      "v": 29
    },
    {
      "midi": 59,
      "hit": false,
      "t": 107005.20833333328,
      "d": 951.822916666657,
      "v": 66
    },
    {
      "midi": 65,
      "hit": false,
      "t": 107010.41666666661,
      "d": 947.916666666657,
      "v": 73
    },
    {
      "midi": 69,
      "hit": false,
      "t": 107010.41666666661,
      "d": 954.4270833333139,
      "v": 65
    },
    {
      "midi": 64,
      "hit": false,
      "t": 107011.71874999994,
      "d": 951.822916666657,
      "v": 72
    },
    {
      "midi": 55,
      "hit": false,
      "t": 107511.71874999994,
      "d": 450.5208333333285,
      "v": 46
    },
    {
      "midi": 43,
      "hit": false,
      "t": 107739.58333333327,
      "d": 207.03125,
      "v": 39
    },
    {
      "midi": 36,
      "hit": false,
      "t": 107999.99999999993,
      "d": 1558.593750000029,
      "v": 53
    },
    {
      "midi": 48,
      "hit": false,
      "t": 108016.92708333326,
      "d": 571.614583333343,
      "v": 62
    },
    {
      "midi": 58,
      "hit": false,
      "t": 108027.34374999993,
      "d": 700.520833333343,
      "v": 64
    },
    {
      "midi": 69,
      "hit": false,
      "t": 108031.24999999993,
      "d": 720.052083333343,
      "v": 60
    },
    {
      "midi": 65,
      "hit": false,
      "t": 108035.15624999993,
      "d": 682.2916666666715,
      "v": 76
    },
    {
      "midi": 62,
      "hit": false,
      "t": 108037.7604166666,
      "d": 686.1979166666715,
      "v": 75
    },
    {
      "midi": 48,
      "hit": false,
      "t": 108746.09374999994,
      "d": 585.9375000000146,
      "v": 51
    },
    {
      "midi": 58,
      "hit": false,
      "t": 108996.09374999994,
      "d": 123.69791666667152,
      "v": 42
    },
    {
      "midi": 69,
      "hit": false,
      "t": 109246.09374999994,
      "d": 562.5,
      "v": 72
    },
    {
      "midi": 58,
      "hit": false,
      "t": 109248.69791666661,
      "d": 558.59375,
      "v": 77
    },
    {
      "midi": 65,
      "hit": false,
      "t": 109251.30208333328,
      "d": 483.0729166666715,
      "v": 81
    },
    {
      "midi": 62,
      "hit": false,
      "t": 109253.90624999996,
      "d": 540.3645833333285,
      "v": 77
    },
    {
      "midi": 48,
      "hit": false,
      "t": 109507.81249999996,
      "d": 212.23958333332848,
      "v": 52
    },
    {
      "midi": 36,
      "hit": false,
      "t": 109730.46874999996,
      "d": 847.6562499999854,
      "v": 56
    },
    {
      "midi": 58,
      "hit": false,
      "t": 110011.71874999994,
      "d": 430.9895833333285,
      "v": 60
    },
    {
      "midi": 69,
      "hit": false,
      "t": 110011.71874999994,
      "d": 467.44791666665697,
      "v": 58
    },
    {
      "midi": 48,
      "hit": false,
      "t": 110013.02083333327,
      "d": 269.53125,
      "v": 57
    },
    {
      "midi": 62,
      "hit": false,
      "t": 110016.92708333327,
      "d": 412.7604166666715,
      "v": 68
    },
    {
      "midi": 65,
      "hit": false,
      "t": 110016.92708333327,
      "d": 449.21875,
      "v": 71
    },
    {
      "midi": 74,
      "hit": false,
      "t": 110042.9687500001,
      "d": 917.96875,
      "v": 96
    },
    {
      "midi": 70,
      "hit": false,
      "t": 110042.9687500001,
      "d": 920.5729166666715,
      "v": 92
    },
    {
      "midi": 48,
      "hit": false,
      "t": 110555.98958333327,
      "d": 263.0208333333285,
      "v": 37
    },
    {
      "midi": 36,
      "hit": false,
      "t": 110755.20833333327,
      "d": 75.52083333332848,
      "v": 49
    },
    {
      "midi": 61,
      "hit": false,
      "t": 110990.8854166666,
      "d": 967.447916666657,
      "v": 73
    },
    {
      "midi": 67,
      "hit": false,
      "t": 110990.8854166666,
      "d": 985.6770833333285,
      "v": 76
    },
    {
      "midi": 49,
      "hit": false,
      "t": 110994.7916666666,
      "d": 569.010416666657,
      "v": 69
    },
    {
      "midi": 64,
      "hit": false,
      "t": 110996.09374999993,
      "d": 958.3333333333285,
      "v": 91
    },
    {
      "midi": 37,
      "hit": false,
      "t": 110997.39583333326,
      "d": 930.9895833333285,
      "v": 84
    },
    {
      "midi": 67,
      "hit": false,
      "t": 111016.92708333344,
      "d": 513.0208333333285,
      "v": 119
    },
    {
      "midi": 70,
      "hit": false,
      "t": 111501.30208333344,
      "d": 264.3229166666715,
      "v": 94
    },
    {
      "midi": 67,
      "hit": false,
      "t": 111755.20833333344,
      "d": 246.09375,
      "v": 91
    },
    {
      "midi": 49,
      "hit": false,
      "t": 111756.51041666658,
      "d": 223.95833333334303,
      "v": 54
    },
    {
      "midi": 62,
      "hit": false,
      "t": 112019.53124999993,
      "d": 901.0416666666715,
      "v": 102
    },
    {
      "midi": 65,
      "hit": false,
      "t": 112020.83333333326,
      "d": 979.1666666666715,
      "v": 126
    },
    {
      "midi": 69,
      "hit": false,
      "t": 112023.43749999993,
      "d": 1006.5104166666715,
      "v": 111
    },
    {
      "midi": 62,
      "hit": false,
      "t": 112028.64583333344,
      "d": 1537.7604166666715,
      "v": 123
    },
    {
      "midi": 50,
      "hit": false,
      "t": 112033.8541666666,
      "d": 567.7083333333285,
      "v": 113
    },
    {
      "midi": 69,
      "hit": false,
      "t": 112770.83333333344,
      "d": 1720.052083333343,
      "v": 127
    },
    {
      "midi": 50,
      "hit": false,
      "t": 112799.4791666666,
      "d": 785.15625,
      "v": 109
    },
    {
      "midi": 62,
      "hit": false,
      "t": 113014.3229166666,
      "d": 700.5208333333285,
      "v": 101
    },
    {
      "midi": 65,
      "hit": false,
      "t": 113244.7916666666,
      "d": 669.2708333333285,
      "v": 113
    },
    {
      "midi": 69,
      "hit": false,
      "t": 113492.18749999993,
      "d": 417.96875,
      "v": 113
    },
    {
      "midi": 50,
      "hit": false,
      "t": 113744.7916666666,
      "d": 861.979166666657,
      "v": 107
    },
    {
      "midi": 62,
      "hit": false,
      "t": 113756.51041666679,
      "d": 239.58333333332848,
      "v": 70
    },
    {
      "midi": 61,
      "hit": false,
      "t": 113984.37499999993,
      "d": 848.9583333333285,
      "v": 93
    },
    {
      "midi": 65,
      "hit": false,
      "t": 113988.28124999993,
      "d": 1019.53125,
      "v": 109
    },
    {
      "midi": 69,
      "hit": false,
      "t": 113989.58333333326,
      "d": 979.1666666666715,
      "v": 102
    },
    {
      "midi": 61,
      "hit": false,
      "t": 114010.41666666679,
      "d": 674.4791666666715,
      "v": 115
    },
    {
      "midi": 69,
      "hit": false,
      "t": 114704.42708333346,
      "d": 122.39583333332848,
      "v": 104
    },
    {
      "midi": 50,
      "hit": false,
      "t": 114772.13541666658,
      "d": 608.0729166666861,
      "v": 117
    },
    {
      "midi": 67,
      "hit": false,
      "t": 114786.45833333346,
      "d": 105.46875,
      "v": 111
    },
    {
      "midi": 65,
      "hit": false,
      "t": 114876.30208333346,
      "d": 152.34375,
      "v": 107
    },
    {
      "midi": 61,
      "hit": false,
      "t": 114996.09374999993,
      "d": 686.1979166666715,
      "v": 108
    },
    {
      "midi": 64,
      "hit": false,
      "t": 114998.69791666679,
      "d": 355.46875,
      "v": 119
    },
    {
      "midi": 65,
      "hit": false,
      "t": 115256.5104166666,
      "d": 653.6458333333285,
      "v": 109
    },
    {
      "midi": 69,
      "hit": false,
      "t": 115260.4166666666,
      "d": 604.166666666657,
      "v": 113
    },
    {
      "midi": 65,
      "hit": false,
      "t": 115373.69791666679,
      "d": 346.35416666665697,
      "v": 104
    },
    {
      "midi": 50,
      "hit": false,
      "t": 115518.2291666666,
      "d": 412.76041666665697,
      "v": 97
    },
    {
      "midi": 67,
      "hit": false,
      "t": 115714.84375000012,
      "d": 341.1458333333285,
      "v": 119
    },
    {
      "midi": 61,
      "hit": false,
      "t": 115730.46874999993,
      "d": 220.05208333332848,
      "v": 96
    },
    {
      "midi": 60,
      "hit": false,
      "t": 115994.79166666658,
      "d": 910.15625,
      "v": 104
    },
    {
      "midi": 65,
      "hit": false,
      "t": 115996.09374999991,
      "d": 917.96875,
      "v": 111
    },
    {
      "midi": 69,
      "hit": false,
      "t": 116002.60416666658,
      "d": 832.03125,
      "v": 109
    },
    {
      "midi": 50,
      "hit": false,
      "t": 116011.71874999991,
      "d": 570.3125,
      "v": 97
    },
    {
      "midi": 69,
      "hit": false,
      "t": 116029.94791666677,
      "d": 2484.3750000000146,
      "v": 115
    },
    {
      "midi": 60,
      "hit": false,
      "t": 116033.85416666677,
      "d": 1522.1354166666715,
      "v": 115
    },
    {
      "midi": 50,
      "hit": false,
      "t": 116738.28124999991,
      "d": 690.1041666666715,
      "v": 91
    },
    {
      "midi": 60,
      "hit": false,
      "t": 117010.41666666658,
      "d": 682.2916666666715,
      "v": 107
    },
    {
      "midi": 65,
      "hit": false,
      "t": 117011.71874999991,
      "d": 898.4375000000146,
      "v": 115
    },
    {
      "midi": 69,
      "hit": false,
      "t": 117014.32291666658,
      "d": 850.2604166666715,
      "v": 109
    },
    {
      "midi": 50,
      "hit": false,
      "t": 117529.94791666658,
      "d": 477.86458333334303,
      "v": 92
    },
    {
      "midi": 60,
      "hit": false,
      "t": 117753.90624999993,
      "d": 183.59375,
      "v": 86
    },
    {
      "midi": 60,
      "hit": false,
      "t": 117761.71875000012,
      "d": 256.5104166666715,
      "v": 67
    },
    {
      "midi": 43,
      "hit": false,
      "t": 118007.81249999993,
      "d": 638.0208333333285,
      "v": 101
    },
    {
      "midi": 65,
      "hit": false,
      "t": 118011.71874999993,
      "d": 872.3958333333139,
      "v": 121
    },
    {
      "midi": 59,
      "hit": false,
      "t": 118013.02083333326,
      "d": 847.6562499999854,
      "v": 115
    },
    {
      "midi": 59,
      "hit": false,
      "t": 118015.62500000012,
      "d": 1796.875,
      "v": 96
    },
    {
      "midi": 69,
      "hit": false,
      "t": 118016.92708333326,
      "d": 822.916666666657,
      "v": 100
    },
    {
      "midi": 43,
      "hit": false,
      "t": 118756.51041666658,
      "d": 649.7395833333139,
      "v": 86
    },
    {
      "midi": 69,
      "hit": false,
      "t": 118781.25000000012,
      "d": 1080.7291666666715,
      "v": 127
    },
    {
      "midi": 59,
      "hit": false,
      "t": 119016.92708333324,
      "d": 888.0208333333139,
      "v": 92
    },
    {
      "midi": 65,
      "hit": false,
      "t": 119016.92708333324,
      "d": 898.4374999999854,
      "v": 109
    },
    {
      "midi": 69,
      "hit": false,
      "t": 119022.13541666657,
      "d": 895.8333333333285,
      "v": 113
    },
    {
      "midi": 43,
      "hit": false,
      "t": 119505.20833333323,
      "d": 424.4791666666715,
      "v": 98
    },
    {
      "midi": 65,
      "hit": false,
      "t": 120000.00000000012,
      "d": 1183.5937500000146,
      "v": 104
    },
    {
      "midi": 69,
      "hit": false,
      "t": 120006.51041666679,
      "d": 639.3229166666715,
      "v": 117
    },
    {
      "midi": 58,
      "hit": false,
      "t": 120020.83333333323,
      "d": 796.8750000000146,
      "v": 99
    },
    {
      "midi": 69,
      "hit": false,
      "t": 120020.83333333323,
      "d": 960.9375000000146,
      "v": 98
    },
    {
      "midi": 65,
      "hit": false,
      "t": 120024.73958333323,
      "d": 886.7187500000146,
      "v": 102
    },
    {
      "midi": 62,
      "hit": false,
      "t": 120031.2499999999,
      "d": 821.614583333343,
      "v": 104
    },
    {
      "midi": 43,
      "hit": false,
      "t": 120033.85416666657,
      "d": 567.7083333333285,
      "v": 92
    },
    {
      "midi": 74,
      "hit": false,
      "t": 120040.36458333346,
      "d": 1555.989583333343,
      "v": 109
    },
    {
      "midi": 43,
      "hit": false,
      "t": 120733.07291666657,
      "d": 641.927083333343,
      "v": 106
    },
    {
      "midi": 69,
      "hit": false,
      "t": 120782.55208333346,
      "d": 880.208333333343,
      "v": 121
    },
    {
      "midi": 58,
      "hit": false,
      "t": 120993.48958333324,
      "d": 618.4895833333285,
      "v": 99
    },
    {
      "midi": 65,
      "hit": false,
      "t": 121251.30208333324,
      "d": 510.4166666666715,
      "v": 104
    },
    {
      "midi": 69,
      "hit": false,
      "t": 121251.30208333324,
      "d": 630.208333333343,
      "v": 101
    },
    {
      "midi": 62,
      "hit": false,
      "t": 121255.20833333324,
      "d": 468.75,
      "v": 101
    },
    {
      "midi": 65,
      "hit": false,
      "t": 121260.4166666668,
      "d": 485.6770833333285,
      "v": 115
    },
    {
      "midi": 43,
      "hit": false,
      "t": 121497.39583333324,
      "d": 471.3541666666715,
      "v": 88
    },
    {
      "midi": 62,
      "hit": false,
      "t": 121662.7604166668,
      "d": 1473.958333333314,
      "v": 102
    },
    {
      "midi": 58,
      "hit": false,
      "t": 121747.39583333324,
      "d": 205.72916666667152,
      "v": 99
    },
    {
      "midi": 48,
      "hit": false,
      "t": 121999.99999999991,
      "d": 475.26041666665697,
      "v": 109
    },
    {
      "midi": 58,
      "hit": false,
      "t": 121999.99999999991,
      "d": 651.041666666657,
      "v": 106
    },
    {
      "midi": 69,
      "hit": false,
      "t": 122001.30208333324,
      "d": 750,
      "v": 111
    },
    {
      "midi": 62,
      "hit": false,
      "t": 122005.20833333324,
      "d": 735.6770833333285,
      "v": 104
    },
    {
      "midi": 65,
      "hit": false,
      "t": 122009.11458333324,
      "d": 742.1875,
      "v": 104
    },
    {
      "midi": 70,
      "hit": false,
      "t": 122020.83333333346,
      "d": 1121.0937499999854,
      "v": 125
    },
    {
      "midi": 72,
      "hit": false,
      "t": 122020.83333333346,
      "d": 1138.020833333314,
      "v": 107
    },
    {
      "midi": 65,
      "hit": false,
      "t": 122022.13541666679,
      "d": 1123.697916666657,
      "v": 113
    },
    {
      "midi": 48,
      "hit": false,
      "t": 122529.94791666657,
      "d": 1347.65625,
      "v": 107
    },
    {
      "midi": 58,
      "hit": false,
      "t": 122744.79166666657,
      "d": 204.42708333334303,
      "v": 92
    },
    {
      "midi": 58,
      "hit": false,
      "t": 123007.81249999991,
      "d": 848.9583333333285,
      "v": 96
    },
    {
      "midi": 65,
      "hit": false,
      "t": 123007.81249999991,
      "d": 865.885416666657,
      "v": 107
    },
    {
      "midi": 67,
      "hit": false,
      "t": 123011.71874999991,
      "d": 863.2812499999854,
      "v": 100
    },
    {
      "midi": 62,
      "hit": false,
      "t": 123013.02083333324,
      "d": 848.9583333333285,
      "v": 102
    },
    {
      "midi": 41,
      "hit": false,
      "t": 124009.11458333344,
      "d": 1558.5937499999854,
      "v": 124
    },
    {
      "midi": 53,
      "hit": false,
      "t": 124255.20833333344,
      "d": 817.7083333333285,
      "v": 123
    },
    {
      "midi": 60,
      "hit": false,
      "t": 124497.39583333344,
      "d": 764.322916666657,
      "v": 113
    },
    {
      "midi": 69,
      "hit": false,
      "t": 124747.39583333344,
      "d": 1542.968749999971,
      "v": 115
    },
    {
      "midi": 65,
      "hit": false,
      "t": 124748.69791666677,
      "d": 1587.239583333314,
      "v": 127
    },
    {
      "midi": 53,
      "hit": false,
      "t": 125246.0937500001,
      "d": 265.625,
      "v": 107
    },
    {
      "midi": 60,
      "hit": false,
      "t": 125481.77083333343,
      "d": 736.979166666657,
      "v": 109
    },
    {
      "midi": 52,
      "hit": false,
      "t": 125729.16666666676,
      "d": 160.15625,
      "v": 100
    },
    {
      "midi": 40,
      "hit": false,
      "t": 125734.37500000009,
      "d": 152.34375,
      "v": 102
    },
    {
      "midi": 38,
      "hit": false,
      "t": 125983.07291666676,
      "d": 1794.2708333333285,
      "v": 115
    },
    {
      "midi": 50,
      "hit": false,
      "t": 126231.77083333342,
      "d": 803.385416666657,
      "v": 113
    },
    {
      "midi": 60,
      "hit": false,
      "t": 126488.28125000009,
      "d": 795.572916666657,
      "v": 109
    },
    {
      "midi": 69,
      "hit": false,
      "t": 126743.48958333342,
      "d": 1309.895833333343,
      "v": 111
    },
    {
      "midi": 65,
      "hit": false,
      "t": 126744.79166666674,
      "d": 1328.1250000000146,
      "v": 117
    },
    {
      "midi": 50,
      "hit": false,
      "t": 127248.69791666674,
      "d": 263.02083333334303,
      "v": 104
    },
    {
      "midi": 60,
      "hit": false,
      "t": 127505.20833333342,
      "d": 533.8541666666715,
      "v": 113
    },
    {
      "midi": 50,
      "hit": false,
      "t": 127755.20833333342,
      "d": 102.86458333334303,
      "v": 97
    },
    {
      "midi": 46,
      "hit": false,
      "t": 128003.90625000009,
      "d": 1742.187500000029,
      "v": 115
    },
    {
      "midi": 58,
      "hit": false,
      "t": 128253.90625000009,
      "d": 727.864583333343,
      "v": 127
    },
    {
      "midi": 62,
      "hit": false,
      "t": 128494.79166666676,
      "d": 785.1562500000146,
      "v": 102
    },
    {
      "midi": 65,
      "hit": false,
      "t": 128750.00000000009,
      "d": 1394.5312500000146,
      "v": 123
    },
    {
      "midi": 70,
      "hit": false,
      "t": 128752.60416666676,
      "d": 1736.979166666686,
      "v": 127
    },
    {
      "midi": 58,
      "hit": false,
      "t": 129257.8125000001,
      "d": 255.20833333334303,
      "v": 115
    },
    {
      "midi": 62,
      "hit": false,
      "t": 129510.41666666677,
      "d": 617.1875,
      "v": 109
    },
    {
      "midi": 58,
      "hit": false,
      "t": 129747.39583333344,
      "d": 250,
      "v": 117
    },
    {
      "midi": 46,
      "hit": false,
      "t": 129997.39583333344,
      "d": 1843.7499999999854,
      "v": 123
    },
    {
      "midi": 58,
      "hit": false,
      "t": 130244.79166666677,
      "d": 869.791666666657,
      "v": 127
    },
    {
      "midi": 64,
      "hit": false,
      "t": 130496.09375000012,
      "d": 779.947916666657,
      "v": 117
    },
    {
      "midi": 72,
      "hit": false,
      "t": 130747.39583333344,
      "d": 1261.7187499999854,
      "v": 111
    },
    {
      "midi": 67,
      "hit": false,
      "t": 130747.39583333344,
      "d": 1292.9687499999854,
      "v": 119
    },
    {
      "midi": 58,
      "hit": false,
      "t": 131255.20833333343,
      "d": 250,
      "v": 117
    },
    {
      "midi": 64,
      "hit": false,
      "t": 131493.48958333343,
      "d": 554.6875,
      "v": 123
    },
    {
      "midi": 58,
      "hit": false,
      "t": 131746.0937500001,
      "d": 222.65625,
      "v": 117
    },
    {
      "midi": 45,
      "hit": false,
      "t": 131997.39583333343,
      "d": 1529.9479166666279,
      "v": 109
    },
    {
      "midi": 57,
      "hit": false,
      "t": 132253.9062500001,
      "d": 661.4583333333139,
      "v": 102
    },
    {
      "midi": 60,
      "hit": false,
      "t": 132494.79166666674,
      "d": 761.7187499999709,
      "v": 97
    },
    {
      "midi": 69,
      "hit": false,
      "t": 132755.2083333334,
      "d": 1398.437499999971,
      "v": 111
    },
    {
      "midi": 64,
      "hit": false,
      "t": 132756.51041666674,
      "d": 1282.552083333314,
      "v": 117
    },
    {
      "midi": 57,
      "hit": false,
      "t": 133246.09375000006,
      "d": 199.21875,
      "v": 106
    },
    {
      "midi": 60,
      "hit": false,
      "t": 133494.79166666672,
      "d": 601.5625,
      "v": 119
    },
    {
      "midi": 50,
      "hit": false,
      "t": 133738.28125000006,
      "d": 234.375,
      "v": 96
    },
    {
      "midi": 38,
      "hit": false,
      "t": 133993.4895833334,
      "d": 1842.4479166665988,
      "v": 117
    },
    {
      "midi": 50,
      "hit": false,
      "t": 134243.48958333337,
      "d": 747.3958333333139,
      "v": 109
    },
    {
      "midi": 60,
      "hit": false,
      "t": 134500.00000000003,
      "d": 748.697916666657,
      "v": 101
    },
    {
      "midi": 69,
      "hit": false,
      "t": 134756.5104166667,
      "d": 976.5625,
      "v": 115
    },
    {
      "midi": 65,
      "hit": false,
      "t": 134757.81250000003,
      "d": 958.3333333333139,
      "v": 119
    },
    {
      "midi": 50,
      "hit": false,
      "t": 135247.39583333334,
      "d": 255.20833333334303,
      "v": 102
    },
    {
      "midi": 60,
      "hit": false,
      "t": 135502.6041666667,
      "d": 201.82291666665697,
      "v": 115
    },
    {
      "midi": 50,
      "hit": false,
      "t": 135747.39583333334,
      "d": 147.13541666665697,
      "v": 83
    },
    {
      "midi": 65,
      "hit": false,
      "t": 136000,
      "d": 84.63541666665697,
      "v": 101
    },
    {
      "midi": 67,
      "hit": false,
      "t": 136000,
      "d": 225.26041666665697,
      "v": 127
    },
    {
      "midi": 70,
      "hit": false,
      "t": 136000,
      "d": 1779.947916666657,
      "v": 127
    },
    {
      "midi": 39,
      "hit": false,
      "t": 136003.90625,
      "d": 1811.197916666657,
      "v": 119
    },
    {
      "midi": 65,
      "hit": false,
      "t": 136252.60416666666,
      "d": 236.97916666665697,
      "v": 113
    },
    {
      "midi": 63,
      "hit": false,
      "t": 136485.6770833333,
      "d": 899.739583333343,
      "v": 112
    },
    {
      "midi": 51,
      "hit": false,
      "t": 136747.3958333333,
      "d": 309.89583333334303,
      "v": 123
    },
    {
      "midi": 58,
      "hit": false,
      "t": 136759.1145833333,
      "d": 493.48958333334303,
      "v": 104
    },
    {
      "midi": 51,
      "hit": false,
      "t": 137253.90625,
      "d": 257.8124999999709,
      "v": 121
    },
    {
      "midi": 63,
      "hit": false,
      "t": 137501.3020833333,
      "d": 277.34375,
      "v": 74
    },
    {
      "midi": 58,
      "hit": false,
      "t": 137505.2083333333,
      "d": 324.21875,
      "v": 125
    },
    {
      "midi": 51,
      "hit": false,
      "t": 137763.0208333333,
      "d": 134.11458333334303,
      "v": 123
    },
    {
      "midi": 36,
      "hit": false,
      "t": 138002.60416666666,
      "d": 1894.53125,
      "v": 121
    },
    {
      "midi": 58,
      "hit": false,
      "t": 138261.71875,
      "d": 273.4375,
      "v": 127
    },
    {
      "midi": 65,
      "hit": false,
      "t": 138261.71875,
      "d": 277.34375,
      "v": 127
    },
    {
      "midi": 62,
      "hit": false,
      "t": 138261.71875,
      "d": 281.25,
      "v": 124
    },
    {
      "midi": 48,
      "hit": false,
      "t": 138742.1875,
      "d": 372.39583333334303,
      "v": 117
    },
    {
      "midi": 62,
      "hit": false,
      "t": 139007.8125,
      "d": 292.96875,
      "v": 126
    },
    {
      "midi": 58,
      "hit": false,
      "t": 139007.8125,
      "d": 296.875,
      "v": 127
    },
    {
      "midi": 65,
      "hit": false,
      "t": 139007.8125,
      "d": 313.80208333334303,
      "v": 127
    },
    {
      "midi": 48,
      "hit": false,
      "t": 139259.11458333334,
      "d": 653.6458333333139,
      "v": 123
    },
    {
      "midi": 60,
      "hit": false,
      "t": 139500,
      "d": 442.70833333331393,
      "v": 127
    },
    {
      "midi": 64,
      "hit": false,
      "t": 139502.60416666666,
      "d": 442.70833333331393,
      "v": 127
    },
    {
      "midi": 67,
      "hit": false,
      "t": 139502.60416666666,
      "d": 451.82291666665697,
      "v": 127
    },
    {
      "midi": 53,
      "hit": false,
      "t": 139999.99999999997,
      "d": 453.125,
      "v": 107
    },
    {
      "midi": 68,
      "hit": false,
      "t": 140001.3020833333,
      "d": 14.322916666656965,
      "v": 82
    },
    {
      "midi": 60,
      "hit": false,
      "t": 140001.3020833333,
      "d": 608.072916666657,
      "v": 126
    },
    {
      "midi": 69,
      "hit": false,
      "t": 140001.3020833333,
      "d": 626.3020833333139,
      "v": 126
    },
    {
      "midi": 65,
      "hit": false,
      "t": 140001.3020833333,
      "d": 657.5520833333139,
      "v": 127
    },
    {
      "midi": 53,
      "hit": false,
      "t": 140501.3020833333,
      "d": 799.479166666657,
      "v": 113
    },
    {
      "midi": 60,
      "hit": false,
      "t": 140748.69791666663,
      "d": 850.260416666657,
      "v": 100
    },
    {
      "midi": 69,
      "hit": false,
      "t": 140998.69791666663,
      "d": 192.70833333334303,
      "v": 124
    },
    {
      "midi": 65,
      "hit": false,
      "t": 140998.69791666663,
      "d": 639.322916666657,
      "v": 127
    },
    {
      "midi": 70,
      "hit": false,
      "t": 141248.69791666663,
      "d": 380.20833333331393,
      "v": 121
    },
    {
      "midi": 53,
      "hit": false,
      "t": 141498.69791666663,
      "d": 259.11458333334303,
      "v": 106
    },
    {
      "midi": 60,
      "hit": false,
      "t": 141748.69791666663,
      "d": 549.479166666657,
      "v": 111
    },
    {
      "midi": 72,
      "hit": false,
      "t": 141748.69791666663,
      "d": 945.3125,
      "v": 115
    },
    {
      "midi": 65,
      "hit": false,
      "t": 141748.69791666663,
      "d": 1098.958333333343,
      "v": 127
    },
    {
      "midi": 38,
      "hit": false,
      "t": 141999.99999999997,
      "d": 1776.041666666657,
      "v": 115
    },
    {
      "midi": 50,
      "hit": false,
      "t": 142248.69791666663,
      "d": 295.57291666665697,
      "v": 115
    },
    {
      "midi": 60,
      "hit": false,
      "t": 142498.69791666663,
      "d": 343.75,
      "v": 107
    },
    {
      "midi": 50,
      "hit": false,
      "t": 142748.69791666663,
      "d": 598.958333333343,
      "v": 115
    },
    {
      "midi": 69,
      "hit": false,
      "t": 142998.69791666663,
      "d": 166.66666666665697,
      "v": 115
    },
    {
      "midi": 60,
      "hit": false,
      "t": 142998.69791666663,
      "d": 511.71875,
      "v": 106
    },
    {
      "midi": 65,
      "hit": false,
      "t": 142998.69791666663,
      "d": 648.4375,
      "v": 123
    },
    {
      "midi": 70,
      "hit": false,
      "t": 143248.69791666663,
      "d": 373.69791666665697,
      "v": 108
    },
    {
      "midi": 50,
      "hit": false,
      "t": 143498.69791666663,
      "d": 287.76041666665697,
      "v": 109
    },
    {
      "midi": 62,
      "hit": false,
      "t": 143748.69791666663,
      "d": 623.697916666657,
      "v": 101
    },
    {
      "midi": 60,
      "hit": false,
      "t": 143748.69791666663,
      "d": 626.3020833333139,
      "v": 107
    },
    {
      "midi": 72,
      "hit": false,
      "t": 143748.69791666663,
      "d": 981.7708333333139,
      "v": 107
    },
    {
      "midi": 65,
      "hit": false,
      "t": 143748.69791666663,
      "d": 1208.333333333314,
      "v": 127
    },
    {
      "midi": 34,
      "hit": false,
      "t": 144001.30208333328,
      "d": 1582.03125,
      "v": 117
    },
    {
      "midi": 46,
      "hit": false,
      "t": 144251.30208333328,
      "d": 291.66666666665697,
      "v": 112
    },
    {
      "midi": 62,
      "hit": false,
      "t": 144501.30208333328,
      "d": 365.88541666665697,
      "v": 66
    },
    {
      "midi": 60,
      "hit": false,
      "t": 144501.30208333328,
      "d": 373.69791666665697,
      "v": 82
    },
    {
      "midi": 46,
      "hit": false,
      "t": 144751.30208333328,
      "d": 498.69791666665697,
      "v": 115
    },
    {
      "midi": 60,
      "hit": false,
      "t": 145001.30208333328,
      "d": 776.041666666657,
      "v": 101
    },
    {
      "midi": 62,
      "hit": false,
      "t": 145001.30208333328,
      "d": 776.041666666657,
      "v": 96
    },
    {
      "midi": 65,
      "hit": false,
      "t": 145001.30208333328,
      "d": 782.5520833333139,
      "v": 107
    },
    {
      "midi": 70,
      "hit": false,
      "t": 145001.30208333328,
      "d": 792.9687499999709,
      "v": 125
    },
    {
      "midi": 46,
      "hit": false,
      "t": 145501.30208333328,
      "d": 440.10416666662786,
      "v": 117
    },
    {
      "midi": 34,
      "hit": false,
      "t": 145751.30208333328,
      "d": 171.8749999999709,
      "v": 117
    },
    {
      "midi": 45,
      "hit": false,
      "t": 145999.9999999999,
      "d": 319.01041666668607,
      "v": 104
    },
    {
      "midi": 61,
      "hit": false,
      "t": 146001.30208333326,
      "d": 606.770833333343,
      "v": 125
    },
    {
      "midi": 67,
      "hit": false,
      "t": 146001.30208333326,
      "d": 634.114583333343,
      "v": 124
    },
    {
      "midi": 72,
      "hit": false,
      "t": 146001.30208333326,
      "d": 750.0000000000291,
      "v": 121
    },
    {
      "midi": 45,
      "hit": false,
      "t": 146498.6979166666,
      "d": 501.30208333334303,
      "v": 119
    },
    {
      "midi": 65,
      "hit": false,
      "t": 146749.99999999994,
      "d": 242.1875,
      "v": 88
    },
    {
      "midi": 49,
      "hit": false,
      "t": 146998.6979166666,
      "d": 415.36458333334303,
      "v": 123
    },
    {
      "midi": 37,
      "hit": false,
      "t": 146998.6979166666,
      "d": 657.552083333343,
      "v": 117
    },
    {
      "midi": 61,
      "hit": false,
      "t": 146999.99999999994,
      "d": 671.875,
      "v": 117
    },
    {
      "midi": 64,
      "hit": false,
      "t": 146999.99999999994,
      "d": 671.875,
      "v": 117
    },
    {
      "midi": 69,
      "hit": false,
      "t": 146999.99999999994,
      "d": 962.239583333343,
      "v": 125
    },
    {
      "midi": 67,
      "hit": false,
      "t": 147499.99999999994,
      "d": 468.75,
      "v": 110
    },
    {
      "midi": 49,
      "hit": false,
      "t": 147501.30208333328,
      "d": 486.97916666665697,
      "v": 119
    },
    {
      "midi": 37,
      "hit": false,
      "t": 147751.30208333328,
      "d": 170.57291666665697,
      "v": 119
    },
    {
      "midi": 38,
      "hit": false,
      "t": 147999.99999999994,
      "d": 1540.364583333343,
      "v": 91
    },
    {
      "midi": 62,
      "hit": false,
      "t": 148001.30208333328,
      "d": 820.3125,
      "v": 111
    },
    {
      "midi": 65,
      "hit": false,
      "t": 148001.30208333328,
      "d": 923.177083333343,
      "v": 127
    },
    {
      "midi": 69,
      "hit": false,
      "t": 148001.30208333328,
      "d": 925.78125,
      "v": 126
    },
    {
      "midi": 50,
      "hit": false,
      "t": 148751.30208333328,
      "d": 615.8854166666861,
      "v": 104
    },
    {
      "midi": 62,
      "hit": false,
      "t": 148998.69791666663,
      "d": 792.96875,
      "v": 78
    },
    {
      "midi": 65,
      "hit": false,
      "t": 149248.69791666663,
      "d": 686.197916666657,
      "v": 123
    },
    {
      "midi": 69,
      "hit": false,
      "t": 149248.69791666663,
      "d": 688.8020833333139,
      "v": 107
    },
    {
      "midi": 50,
      "hit": false,
      "t": 149498.69791666663,
      "d": 433.59375,
      "v": 96
    },
    {
      "midi": 38,
      "hit": false,
      "t": 149748.69791666663,
      "d": 177.08333333334303,
      "v": 123
    },
    {
      "midi": 49,
      "hit": false,
      "t": 149998.6979166666,
      "d": 643.229166666657,
      "v": 101
    },
    {
      "midi": 69,
      "hit": false,
      "t": 149998.6979166666,
      "d": 863.28125,
      "v": 107
    },
    {
      "midi": 61,
      "hit": false,
      "t": 149998.6979166666,
      "d": 901.041666666657,
      "v": 115
    },
    {
      "midi": 65,
      "hit": false,
      "t": 149998.6979166666,
      "d": 906.25,
      "v": 117
    },
    {
      "midi": 37,
      "hit": false,
      "t": 149998.6979166666,
      "d": 1567.708333333343,
      "v": 119
    },
    {
      "midi": 49,
      "hit": false,
      "t": 150748.6979166666,
      "d": 591.145833333343,
      "v": 74
    },
    {
      "midi": 61,
      "hit": false,
      "t": 150999.99999999994,
      "d": 833.3333333333139,
      "v": 104
    },
    {
      "midi": 69,
      "hit": false,
      "t": 151001.30208333328,
      "d": 817.7083333333139,
      "v": 113
    },
    {
      "midi": 65,
      "hit": false,
      "t": 151001.30208333328,
      "d": 837.2395833333139,
      "v": 117
    },
    {
      "midi": 49,
      "hit": false,
      "t": 151501.30208333328,
      "d": 390.6249999999709,
      "v": 74
    },
    {
      "midi": 37,
      "hit": false,
      "t": 151748.6979166666,
      "d": 170.57291666665697,
      "v": 115
    },
    {
      "midi": 69,
      "hit": false,
      "t": 151998.6979166666,
      "d": 522.135416666657,
      "v": 119
    },
    {
      "midi": 65,
      "hit": false,
      "t": 151998.6979166666,
      "d": 558.59375,
      "v": 124
    },
    {
      "midi": 62,
      "hit": false,
      "t": 151998.6979166666,
      "d": 1734.375,
      "v": 111
    },
    {
      "midi": 36,
      "hit": false,
      "t": 151998.6979166666,
      "d": 1742.1875,
      "v": 113
    },
    {
      "midi": 48,
      "hit": false,
      "t": 151998.6979166666,
      "d": 1761.71875,
      "v": 115
    },
    {
      "midi": 70,
      "hit": false,
      "t": 152498.6979166666,
      "d": 253.90625,
      "v": 112
    },
    {
      "midi": 67,
      "hit": false,
      "t": 152748.6979166666,
      "d": 1014.322916666657,
      "v": 104
    },
    {
      "midi": 69,
      "hit": false,
      "t": 153248.6979166666,
      "d": 502.60416666665697,
      "v": 66
    },
    {
      "midi": 36,
      "hit": false,
      "t": 153876.30208333326,
      "d": 1550.78125,
      "v": 88
    },
    {
      "midi": 70,
      "hit": false,
      "t": 153998.6979166666,
      "d": 490.88541666665697,
      "v": 127
    },
    {
      "midi": 48,
      "hit": false,
      "t": 153998.6979166666,
      "d": 1455.729166666657,
      "v": 107
    },
    {
      "midi": 69,
      "hit": false,
      "t": 154248.6979166666,
      "d": 252.60416666665697,
      "v": 101
    },
    {
      "midi": 65,
      "hit": false,
      "t": 154498.6979166666,
      "d": 270.83333333334303,
      "v": 104
    },
    {
      "midi": 60,
      "hit": false,
      "t": 154748.6979166666,
      "d": 714.84375,
      "v": 106
    },
    {
      "midi": 65,
      "hit": false,
      "t": 155248.6979166666,
      "d": 289.0625,
      "v": 86
    },
    {
      "midi": 64,
      "hit": false,
      "t": 155498.6979166666,
      "d": 281.25,
      "v": 96
    },
    {
      "midi": 65,
      "hit": false,
      "t": 155751.30208333326,
      "d": 1123.697916666686,
      "v": 88
    },
    {
      "midi": 29,
      "hit": false,
      "t": 155998.6979166666,
      "d": 2000,
      "v": 59
    },
    {
      "midi": 41,
      "hit": false,
      "t": 155998.6979166666,
      "d": 2010.416666666657,
      "v": 52
    },
    {
      "midi": 53,
      "hit": false,
      "t": 155999.9999999999,
      "d": 3717.447916666715,
      "v": 111
    },
    {
      "midi": 53,
      "hit": false,
      "t": 156006.5104166666,
      "d": 3342.4479166665988,
      "v": 104
    },
    {
      "midi": 60,
      "hit": false,
      "t": 156264.32291666657,
      "d": 3451.822916666715,
      "v": 102
    },
    {
      "midi": 65,
      "hit": false,
      "t": 156522.13541666657,
      "d": 1119.791666666686,
      "v": 115
    },
    {
      "midi": 60,
      "hit": false,
      "t": 156768.2291666666,
      "d": 2634.114583333285,
      "v": 96
    },
    {
      "midi": 72,
      "hit": false,
      "t": 157003.90624999994,
      "d": 802.0833333333139,
      "v": 106
    },
    {
      "midi": 65,
      "hit": false,
      "t": 157010.4166666666,
      "d": 977.864583333343,
      "v": 115
    },
    {
      "midi": 67,
      "hit": false,
      "t": 157015.6249999999,
      "d": 610.677083333343,
      "v": 123
    },
    {
      "midi": 72,
      "hit": false,
      "t": 157263.02083333326,
      "d": 2446.614583333343,
      "v": 111
    },
    {
      "midi": 67,
      "hit": false,
      "t": 157718.74999999994,
      "d": 69.01041666665697,
      "v": 73
    },
    {
      "midi": 67,
      "hit": false,
      "t": 157752.6041666666,
      "d": 1962.239583333343,
      "v": 115
    },
    {
      "midi": 69,
      "hit": false,
      "t": 157799.4791666666,
      "d": 117.1875,
      "v": 98
    },
    {
      "midi": 67,
      "hit": false,
      "t": 157899.73958333326,
      "d": 876.3020833333139,
      "v": 119
    },
    {
      "midi": 69,
      "hit": false,
      "t": 157993.48958333326,
      "d": 1722.656250000029,
      "v": 123
    },
    {
      "midi": 65,
      "hit": false,
      "t": 157998.6979166666,
      "d": 1363.2812499999418,
      "v": 127
    },
    {
      "midi": 12,
      "hit": false,
      "t": 158743.48958333326,
      "d": 48.17708333331393,
      "v": 117
    },
    {
      "midi": 14,
      "hit": false,
      "t": 158753.9062499999,
      "d": 79.42708333331393,
      "v": 109
    },
    {
      "midi": 16,
      "hit": false,
      "t": 158787.76041666657,
      "d": 79.42708333331393,
      "v": 93
    },
    {
      "midi": 17,
      "hit": false,
      "t": 158821.61458333323,
      "d": 74.2187499999709,
      "v": 96
    },
    {
      "midi": 19,
      "hit": false,
      "t": 158855.46874999988,
      "d": 67.70833333331393,
      "v": 81
    },
    {
      "midi": 21,
      "hit": false,
      "t": 158885.41666666654,
      "d": 67.70833333331393,
      "v": 82
    },
    {
      "midi": 23,
      "hit": false,
      "t": 158912.76041666654,
      "d": 66.4062499999709,
      "v": 96
    },
    {
      "midi": 24,
      "hit": false,
      "t": 158941.40624999985,
      "d": 62.5,
      "v": 102
    },
    {
      "midi": 26,
      "hit": false,
      "t": 158971.3541666665,
      "d": 58.59375,
      "v": 107
    },
    {
      "midi": 28,
      "hit": false,
      "t": 158998.6979166665,
      "d": 50.78125,
      "v": 115
    },
    {
      "midi": 43,
      "hit": false,
      "t": 159022.1354166665,
      "d": 52.083333333343035,
      "v": 91
    },
    {
      "midi": 29,
      "hit": false,
      "t": 159024.73958333317,
      "d": 54.687500000029104,
      "v": 104
    },
    {
      "midi": 41,
      "hit": false,
      "t": 159042.96874999985,
      "d": 72.91666666668607,
      "v": 100
    },
    {
      "midi": 31,
      "hit": false,
      "t": 159057.2916666665,
      "d": 29.94791666668607,
      "v": 96
    },
    {
      "midi": 40,
      "hit": false,
      "t": 159085.93749999985,
      "d": 71.61458333334303,
      "v": 100
    },
    {
      "midi": 38,
      "hit": false,
      "t": 159127.60416666654,
      "d": 71.61458333331393,
      "v": 93
    },
    {
      "midi": 36,
      "hit": false,
      "t": 159169.2708333332,
      "d": 71.61458333331393,
      "v": 96
    },
    {
      "midi": 35,
      "hit": false,
      "t": 159209.6354166665,
      "d": 71.61458333334303,
      "v": 109
    },
    {
      "midi": 33,
      "hit": false,
      "t": 159253.90624999985,
      "d": 71.61458333334303,
      "v": 97
    },
    {
      "midi": 31,
      "hit": false,
      "t": 159292.96874999985,
      "d": 76.82291666668607,
      "v": 100
    },
    {
      "midi": 29,
      "hit": false,
      "t": 159337.2395833332,
      "d": 75.52083333334303,
      "v": 97
    },
    {
      "midi": 28,
      "hit": false,
      "t": 159378.90624999988,
      "d": 80.72916666665697,
      "v": 97
    },
    {
      "midi": 26,
      "hit": false,
      "t": 159425.78124999988,
      "d": 79.42708333331393,
      "v": 86
    },
    {
      "midi": 24,
      "hit": false,
      "t": 159471.35416666654,
      "d": 79.42708333331393,
      "v": 91
    },
    {
      "midi": 60,
      "hit": false,
      "t": 159999.99999999997,
      "d": 1971.354166666657,
      "v": 117
    },
    {
      "midi": 68,
      "hit": false,
      "t": 160007.81249999985,
      "d": 837.239583333343,
      "v": 123
    },
    {
      "midi": 61,
      "hit": false,
      "t": 160007.81249999985,
      "d": 841.145833333343,
      "v": 117
    },
    {
      "midi": 65,
      "hit": false,
      "t": 160007.81249999985,
      "d": 855.46875,
      "v": 117
    },
    {
      "midi": 37,
      "hit": false,
      "t": 160015.62499999985,
      "d": 1511.71875,
      "v": 112
    },
    {
      "midi": 49,
      "hit": false,
      "t": 160023.43749999985,
      "d": 541.666666666657,
      "v": 123
    },
    {
      "midi": 61,
      "hit": false,
      "t": 160251.3020833333,
      "d": 1363.28125,
      "v": 112
    },
    {
      "midi": 65,
      "hit": false,
      "t": 160501.3020833333,
      "d": 1115.885416666657,
      "v": 113
    },
    {
      "midi": 68,
      "hit": false,
      "t": 160751.3020833333,
      "d": 908.854166666657,
      "v": 119
    },
    {
      "midi": 49,
      "hit": false,
      "t": 160761.71874999985,
      "d": 601.5625,
      "v": 123
    },
    {
      "midi": 61,
      "hit": false,
      "t": 160999.99999999985,
      "d": 799.479166666657,
      "v": 119
    },
    {
      "midi": 65,
      "hit": false,
      "t": 160999.99999999985,
      "d": 799.479166666657,
      "v": 121
    },
    {
      "midi": 68,
      "hit": false,
      "t": 160999.99999999985,
      "d": 848.9583333333139,
      "v": 125
    },
    {
      "midi": 49,
      "hit": false,
      "t": 161533.8541666665,
      "d": 417.9687499999709,
      "v": 112
    },
    {
      "midi": 37,
      "hit": false,
      "t": 161773.43749999985,
      "d": 156.2499999999709,
      "v": 125
    },
    {
      "midi": 63,
      "hit": false,
      "t": 161998.69791666663,
      "d": 2002.604166666657,
      "v": 123
    },
    {
      "midi": 49,
      "hit": false,
      "t": 162016.92708333314,
      "d": 574.21875,
      "v": 94
    },
    {
      "midi": 63,
      "hit": false,
      "t": 162019.5312499998,
      "d": 817.708333333343,
      "v": 123
    },
    {
      "midi": 37,
      "hit": false,
      "t": 162020.83333333314,
      "d": 1483.072916666686,
      "v": 121
    },
    {
      "midi": 67,
      "hit": false,
      "t": 162023.4374999998,
      "d": 839.84375,
      "v": 111
    },
    {
      "midi": 70,
      "hit": false,
      "t": 162024.73958333314,
      "d": 832.03125,
      "v": 123
    },
    {
      "midi": 67,
      "hit": false,
      "t": 162251.30208333328,
      "d": 1718.75,
      "v": 102
    },
    {
      "midi": 70,
      "hit": false,
      "t": 162501.30208333328,
      "d": 1484.375,
      "v": 121
    },
    {
      "midi": 49,
      "hit": false,
      "t": 162727.86458333314,
      "d": 649.739583333343,
      "v": 110
    },
    {
      "midi": 67,
      "hit": false,
      "t": 162993.48958333314,
      "d": 850.2604166666861,
      "v": 109
    },
    {
      "midi": 63,
      "hit": false,
      "t": 162993.48958333314,
      "d": 884.114583333343,
      "v": 123
    },
    {
      "midi": 70,
      "hit": false,
      "t": 162994.79166666648,
      "d": 927.083333333343,
      "v": 119
    },
    {
      "midi": 49,
      "hit": false,
      "t": 163507.81249999983,
      "d": 424.47916666665697,
      "v": 115
    },
    {
      "midi": 37,
      "hit": false,
      "t": 163755.20833333317,
      "d": 149.73958333331393,
      "v": 110
    },
    {
      "midi": 65,
      "hit": false,
      "t": 163997.39583333314,
      "d": 842.447916666657,
      "v": 117
    },
    {
      "midi": 69,
      "hit": false,
      "t": 163999.9999999998,
      "d": 846.354166666657,
      "v": 109
    },
    {
      "midi": 41,
      "hit": false,
      "t": 164005.20833333314,
      "d": 3843.75,
      "v": 117
    },
    {
      "midi": 72,
      "hit": false,
      "t": 164007.8124999998,
      "d": 834.635416666657,
      "v": 113
    },
    {
      "midi": 53,
      "hit": false,
      "t": 164013.02083333314,
      "d": 559.8958333333139,
      "v": 101
    },
    {
      "midi": 52,
      "hit": false,
      "t": 164023.4374999998,
      "d": 22.135416666656965,
      "v": 82
    },
    {
      "midi": 53,
      "hit": false,
      "t": 164718.7499999998,
      "d": 822.9166666666279,
      "v": 77
    },
    {
      "midi": 84,
      "hit": false,
      "t": 164751.30208333328,
      "d": 333.33333333331393,
      "v": 115
    },
    {
      "midi": 65,
      "hit": false,
      "t": 164985.6770833331,
      "d": 871.0937499999709,
      "v": 109
    },
    {
      "midi": 69,
      "hit": false,
      "t": 164988.28124999977,
      "d": 880.2083333333139,
      "v": 100
    },
    {
      "midi": 72,
      "hit": false,
      "t": 164988.28124999977,
      "d": 888.0208333333139,
      "v": 109
    },
    {
      "midi": 82,
      "hit": false,
      "t": 164999.99999999994,
      "d": 354.16666666665697,
      "v": 111
    },
    {
      "midi": 81,
      "hit": false,
      "t": 165251.30208333326,
      "d": 312.5,
      "v": 103
    },
    {
      "midi": 77,
      "hit": false,
      "t": 165498.6979166666,
      "d": 375,
      "v": 99
    },
    {
      "midi": 53,
      "hit": false,
      "t": 165736.97916666642,
      "d": 829.427083333343,
      "v": 80
    },
    {
      "midi": 72,
      "hit": false,
      "t": 165748.6979166666,
      "d": 375,
      "v": 95
    },
    {
      "midi": 65,
      "hit": false,
      "t": 165998.69791666642,
      "d": 824.2187500000291,
      "v": 115
    },
    {
      "midi": 69,
      "hit": false,
      "t": 165999.99999999977,
      "d": 822.9166666666861,
      "v": 111
    },
    {
      "midi": 72,
      "hit": false,
      "t": 166001.3020833331,
      "d": 812.5,
      "v": 115
    },
    {
      "midi": 70,
      "hit": false,
      "t": 166001.30208333326,
      "d": 354.16666666665697,
      "v": 87
    },
    {
      "midi": 69,
      "hit": false,
      "t": 166251.30208333326,
      "d": 333.33333333334303,
      "v": 79
    },
    {
      "midi": 67,
      "hit": false,
      "t": 166501.30208333326,
      "d": 312.5,
      "v": 79
    },
    {
      "midi": 65,
      "hit": false,
      "t": 166751.30208333326,
      "d": 270.83333333334303,
      "v": 79
    },
    {
      "midi": 53,
      "hit": false,
      "t": 166753.90624999977,
      "d": 510.41666666668607,
      "v": 66
    },
    {
      "midi": 60,
      "hit": false,
      "t": 166998.6979166666,
      "d": 308.59375,
      "v": 79
    },
    {
      "midi": 65,
      "hit": false,
      "t": 167002.60416666645,
      "d": 881.5104166666861,
      "v": 117
    },
    {
      "midi": 69,
      "hit": false,
      "t": 167003.9062499998,
      "d": 880.208333333343,
      "v": 113
    },
    {
      "midi": 72,
      "hit": false,
      "t": 167007.8124999998,
      "d": 908.8541666666861,
      "v": 123
    },
    {
      "midi": 65,
      "hit": false,
      "t": 167248.6979166666,
      "d": 307.29166666665697,
      "v": 79
    },
    {
      "midi": 67,
      "hit": false,
      "t": 167498.6979166666,
      "d": 298.17708333334303,
      "v": 79
    },
    {
      "midi": 53,
      "hit": false,
      "t": 167511.7187499998,
      "d": 393.22916666668607,
      "v": 96
    },
    {
      "midi": 69,
      "hit": false,
      "t": 167748.6979166666,
      "d": 239.58333333334303,
      "v": 79
    },
    {
      "midi": 61,
      "hit": false,
      "t": 168001.30208333314,
      "d": 617.1875,
      "v": 123
    },
    {
      "midi": 65,
      "hit": false,
      "t": 168001.30208333314,
      "d": 845.052083333343,
      "v": 121
    },
    {
      "midi": 68,
      "hit": false,
      "t": 168001.30208333314,
      "d": 847.65625,
      "v": 125
    },
    {
      "midi": 61,
      "hit": false,
      "t": 168805.98958333314,
      "d": 792.96875,
      "v": 115
    },
    {
      "midi": 65,
      "hit": false,
      "t": 169032.55208333314,
      "d": 850.260416666657,
      "v": 119
    },
    {
      "midi": 68,
      "hit": false,
      "t": 169032.55208333314,
      "d": 854.166666666657,
      "v": 127
    },
    {
      "midi": 61,
      "hit": false,
      "t": 169761.7187499998,
      "d": 207.03125,
      "v": 94
    },
    {
      "midi": 63,
      "hit": false,
      "t": 169994.79166666645,
      "d": 667.96875,
      "v": 117
    },
    {
      "midi": 67,
      "hit": false,
      "t": 169997.3958333331,
      "d": 798.177083333343,
      "v": 107
    },
    {
      "midi": 70,
      "hit": false,
      "t": 169997.3958333331,
      "d": 821.614583333343,
      "v": 119
    },
    {
      "midi": 63,
      "hit": false,
      "t": 170765.6249999998,
      "d": 531.2499999999709,
      "v": 96
    },
    {
      "midi": 67,
      "hit": false,
      "t": 171009.1145833331,
      "d": 813.802083333343,
      "v": 117
    },
    {
      "midi": 70,
      "hit": false,
      "t": 171009.1145833331,
      "d": 846.3541666666861,
      "v": 125
    },
    {
      "midi": 63,
      "hit": false,
      "t": 171505.2083333331,
      "d": 451.82291666668607,
      "v": 119
    },
    {
      "midi": 65,
      "hit": false,
      "t": 172005.20833333314,
      "d": 649.7395833333139,
      "v": 117
    },
    {
      "midi": 72,
      "hit": false,
      "t": 172007.8124999998,
      "d": 851.5624999999709,
      "v": 124
    },
    {
      "midi": 70,
      "hit": false,
      "t": 172011.7187499998,
      "d": 824.2187499999709,
      "v": 127
    },
    {
      "midi": 65,
      "hit": false,
      "t": 172759.1145833331,
      "d": 764.3229166666279,
      "v": 97
    },
    {
      "midi": 72,
      "hit": false,
      "t": 172998.69791666642,
      "d": 815.104166666657,
      "v": 113
    },
    {
      "midi": 70,
      "hit": false,
      "t": 173001.30208333308,
      "d": 799.479166666657,
      "v": 119
    },
    {
      "midi": 65,
      "hit": false,
      "t": 173729.1666666664,
      "d": 760.4166666667152,
      "v": 100
    },
    {
      "midi": 69,
      "hit": false,
      "t": 173967.44791666642,
      "d": 1049.479166666686,
      "v": 117
    },
    {
      "midi": 72,
      "hit": false,
      "t": 173968.74999999977,
      "d": 1054.6875,
      "v": 117
    },
    {
      "midi": 65,
      "hit": false,
      "t": 174519.53124999977,
      "d": 503.90625,
      "v": 65
    },
    {
      "midi": 80,
      "hit": false,
      "t": 175999.99999999977,
      "d": 602.864583333343,
      "v": 121
    },
    {
      "midi": 73,
      "hit": false,
      "t": 175999.99999999977,
      "d": 641.927083333343,
      "v": 123
    },
    {
      "midi": 77,
      "hit": false,
      "t": 175999.99999999977,
      "d": 667.96875,
      "v": 124
    },
    {
      "midi": 77,
      "hit": false,
      "t": 176755.2083333331,
      "d": 381.51041666665697,
      "v": 121
    },
    {
      "midi": 70,
      "hit": false,
      "t": 176755.2083333331,
      "d": 390.625,
      "v": 119
    },
    {
      "midi": 73,
      "hit": false,
      "t": 176763.0208333331,
      "d": 369.79166666665697,
      "v": 121
    },
    {
      "midi": 65,
      "hit": false,
      "t": 177248.69791666645,
      "d": 423.17708333331393,
      "v": 96
    },
    {
      "midi": 70,
      "hit": false,
      "t": 177248.69791666645,
      "d": 427.08333333331393,
      "v": 119
    },
    {
      "midi": 73,
      "hit": false,
      "t": 177251.3020833331,
      "d": 351.5625,
      "v": 117
    },
    {
      "midi": 73,
      "hit": false,
      "t": 177743.4895833331,
      "d": 171.875,
      "v": 123
    },
    {
      "midi": 77,
      "hit": false,
      "t": 177744.79166666645,
      "d": 180.98958333331393,
      "v": 119
    },
    {
      "midi": 80,
      "hit": false,
      "t": 177747.3958333331,
      "d": 131.51041666665697,
      "v": 119
    },
    {
      "midi": 79,
      "hit": false,
      "t": 178016.9270833331,
      "d": 589.84375,
      "v": 121
    },
    {
      "midi": 75,
      "hit": false,
      "t": 178016.9270833331,
      "d": 630.208333333343,
      "v": 119
    },
    {
      "midi": 72,
      "hit": false,
      "t": 178027.34374999977,
      "d": 705.7291666666861,
      "v": 109
    },
    {
      "midi": 80,
      "hit": false,
      "t": 178763.0208333331,
      "d": 240.88541666665697,
      "v": 125
    },
    {
      "midi": 79,
      "hit": false,
      "t": 179003.90624999977,
      "d": 266.92708333334303,
      "v": 113
    },
    {
      "midi": 75,
      "hit": false,
      "t": 179239.5833333331,
      "d": 722.65625,
      "v": 112
    },
    {
      "midi": 72,
      "hit": false,
      "t": 179502.60416666645,
      "d": 252.60416666665697,
      "v": 111
    },
    {
      "midi": 68,
      "hit": false,
      "t": 179756.51041666645,
      "d": 201.82291666665697,
      "v": 119
    },
    {
      "midi": 61,
      "hit": false,
      "t": 180023.43749999977,
      "d": 820.3125,
      "v": 117
    },
    {
      "midi": 65,
      "hit": false,
      "t": 180023.43749999977,
      "d": 820.3125,
      "v": 113
    },
    {
      "midi": 68,
      "hit": false,
      "t": 180023.43749999977,
      "d": 822.916666666657,
      "v": 117
    },
    {
      "midi": 49,
      "hit": false,
      "t": 180033.85416666642,
      "d": 1312.5,
      "v": 121
    },
    {
      "midi": 61,
      "hit": false,
      "t": 181016.92708333308,
      "d": 490.88541666668607,
      "v": 123
    },
    {
      "midi": 65,
      "hit": false,
      "t": 181016.92708333308,
      "d": 520.833333333343,
      "v": 121
    },
    {
      "midi": 68,
      "hit": false,
      "t": 181016.92708333308,
      "d": 541.6666666666861,
      "v": 126
    },
    {
      "midi": 49,
      "hit": false,
      "t": 181496.09374999977,
      "d": 421.8749999999709,
      "v": 97
    },
    {
      "midi": 62,
      "hit": false,
      "t": 181756.51041666642,
      "d": 49.479166666656965,
      "v": 36
    },
    {
      "midi": 70,
      "hit": false,
      "t": 181986.9791666664,
      "d": 859.375,
      "v": 102
    },
    {
      "midi": 50,
      "hit": false,
      "t": 181988.28124999974,
      "d": 652.34375,
      "v": 104
    },
    {
      "midi": 62,
      "hit": false,
      "t": 181988.28124999974,
      "d": 851.5625,
      "v": 123
    },
    {
      "midi": 65,
      "hit": false,
      "t": 181988.28124999974,
      "d": 865.885416666657,
      "v": 113
    },
    {
      "midi": 50,
      "hit": false,
      "t": 182752.6041666664,
      "d": 600.260416666657,
      "v": 99
    },
    {
      "midi": 70,
      "hit": false,
      "t": 182977.86458333305,
      "d": 804.6875,
      "v": 111
    },
    {
      "midi": 65,
      "hit": false,
      "t": 182980.4687499997,
      "d": 809.895833333343,
      "v": 119
    },
    {
      "midi": 62,
      "hit": false,
      "t": 182981.77083333305,
      "d": 792.96875,
      "v": 125
    },
    {
      "midi": 50,
      "hit": false,
      "t": 183466.14583333305,
      "d": 347.65625,
      "v": 104
    },
    {
      "midi": 73,
      "hit": false,
      "t": 183999.9999999997,
      "d": 664.0625,
      "v": 127
    },
    {
      "midi": 68,
      "hit": false,
      "t": 183999.9999999997,
      "d": 669.270833333343,
      "v": 127
    },
    {
      "midi": 68,
      "hit": false,
      "t": 184744.7916666664,
      "d": 595.052083333343,
      "v": 125
    },
    {
      "midi": 75,
      "hit": false,
      "t": 184748.6979166664,
      "d": 567.708333333343,
      "v": 121
    },
    {
      "midi": 73,
      "hit": false,
      "t": 184748.6979166664,
      "d": 583.333333333343,
      "v": 127
    },
    {
      "midi": 68,
      "hit": false,
      "t": 185510.4166666664,
      "d": 790.364583333343,
      "v": 123
    },
    {
      "midi": 73,
      "hit": false,
      "t": 185511.71874999974,
      "d": 796.875,
      "v": 123
    },
    {
      "midi": 75,
      "hit": false,
      "t": 185511.71874999974,
      "d": 802.083333333343,
      "v": 119
    },
    {
      "midi": 68,
      "hit": false,
      "t": 186499.99999999974,
      "d": 787.760416666657,
      "v": 127
    },
    {
      "midi": 75,
      "hit": false,
      "t": 186502.6041666664,
      "d": 787.760416666657,
      "v": 121
    },
    {
      "midi": 73,
      "hit": false,
      "t": 186502.6041666664,
      "d": 791.666666666657,
      "v": 127
    },
    {
      "midi": 68,
      "hit": false,
      "t": 187502.6041666664,
      "d": 337.23958333334303,
      "v": 127
    },
    {
      "midi": 73,
      "hit": false,
      "t": 187503.90624999974,
      "d": 352.86458333334303,
      "v": 127
    },
    {
      "midi": 75,
      "hit": false,
      "t": 187503.90624999974,
      "d": 356.77083333334303,
      "v": 127
    },
    {
      "midi": 76,
      "hit": false,
      "t": 187999.99999999974,
      "d": 627.604166666657,
      "v": 125
    },
    {
      "midi": 74,
      "hit": false,
      "t": 187999.99999999974,
      "d": 664.0625,
      "v": 127
    },
    {
      "midi": 69,
      "hit": false,
      "t": 187999.99999999974,
      "d": 669.270833333343,
      "v": 127
    },
    {
      "midi": 69,
      "hit": false,
      "t": 188744.79166666642,
      "d": 595.052083333343,
      "v": 125
    },
    {
      "midi": 76,
      "hit": false,
      "t": 188748.69791666642,
      "d": 567.708333333343,
      "v": 121
    },
    {
      "midi": 74,
      "hit": false,
      "t": 188748.69791666642,
      "d": 583.333333333343,
      "v": 127
    },
    {
      "midi": 69,
      "hit": false,
      "t": 189510.41666666642,
      "d": 790.364583333343,
      "v": 123
    },
    {
      "midi": 74,
      "hit": false,
      "t": 189511.71874999977,
      "d": 796.875,
      "v": 123
    },
    {
      "midi": 76,
      "hit": false,
      "t": 189511.71874999977,
      "d": 802.083333333343,
      "v": 119
    },
    {
      "midi": 69,
      "hit": false,
      "t": 190499.99999999977,
      "d": 787.760416666657,
      "v": 127
    },
    {
      "midi": 76,
      "hit": false,
      "t": 190502.60416666642,
      "d": 787.760416666657,
      "v": 121
    },
    {
      "midi": 74,
      "hit": false,
      "t": 190502.60416666642,
      "d": 791.666666666657,
      "v": 127
    },
    {
      "midi": 69,
      "hit": false,
      "t": 191502.60416666642,
      "d": 337.23958333334303,
      "v": 127
    },
    {
      "midi": 74,
      "hit": false,
      "t": 191503.90624999977,
      "d": 352.86458333334303,
      "v": 127
    },
    {
      "midi": 76,
      "hit": false,
      "t": 191503.90624999977,
      "d": 356.77083333334303,
      "v": 127
    },
    {
      "midi": 45,
      "hit": false,
      "t": 192009.1145833331,
      "d": 1558.593750000029,
      "v": 124
    },
    {
      "midi": 57,
      "hit": false,
      "t": 192255.2083333331,
      "d": 817.708333333343,
      "v": 123
    },
    {
      "midi": 64,
      "hit": false,
      "t": 192497.3958333331,
      "d": 764.3229166666861,
      "v": 113
    },
    {
      "midi": 73,
      "hit": false,
      "t": 192747.3958333331,
      "d": 1542.9687500000582,
      "v": 115
    },
    {
      "midi": 69,
      "hit": false,
      "t": 192748.69791666645,
      "d": 1587.2395833333721,
      "v": 127
    },
    {
      "midi": 73,
      "hit": false,
      "t": 192753.90624999994,
      "d": 627.604166666657,
      "v": 117
    },
    {
      "midi": 69,
      "hit": false,
      "t": 192753.90624999994,
      "d": 649.7395833333139,
      "v": 124
    },
    {
      "midi": 64,
      "hit": false,
      "t": 192757.81249999994,
      "d": 653.6458333333139,
      "v": 113
    },
    {
      "midi": 57,
      "hit": false,
      "t": 193246.0937499998,
      "d": 265.625,
      "v": 107
    },
    {
      "midi": 64,
      "hit": false,
      "t": 193481.77083333314,
      "d": 736.9791666666861,
      "v": 109
    },
    {
      "midi": 68,
      "hit": false,
      "t": 193493.48958333326,
      "d": 183.59375,
      "v": 123
    },
    {
      "midi": 71,
      "hit": false,
      "t": 193493.48958333326,
      "d": 199.21875,
      "v": 109
    },
    {
      "midi": 64,
      "hit": false,
      "t": 193494.7916666666,
      "d": 174.47916666665697,
      "v": 98
    },
    {
      "midi": 56,
      "hit": false,
      "t": 193729.16666666648,
      "d": 160.15625,
      "v": 100
    },
    {
      "midi": 44,
      "hit": false,
      "t": 193734.37499999983,
      "d": 152.34375,
      "v": 102
    },
    {
      "midi": 64,
      "hit": false,
      "t": 193753.9062499999,
      "d": 209.63541666668607,
      "v": 115
    },
    {
      "midi": 69,
      "hit": false,
      "t": 193755.20833333326,
      "d": 197.91666666668607,
      "v": 127
    },
    {
      "midi": 73,
      "hit": false,
      "t": 193759.11458333326,
      "d": 197.91666666668607,
      "v": 121
    },
    {
      "midi": 72,
      "hit": false,
      "t": 193779.9479166666,
      "d": 11.71875,
      "v": 73
    },
    {
      "midi": 42,
      "hit": false,
      "t": 193983.07291666648,
      "d": 1794.270833333343,
      "v": 115
    },
    {
      "midi": 54,
      "hit": false,
      "t": 194231.77083333317,
      "d": 803.3854166666861,
      "v": 113
    },
    {
      "midi": 64,
      "hit": false,
      "t": 194488.28124999983,
      "d": 795.5729166666861,
      "v": 109
    },
    {
      "midi": 73,
      "hit": false,
      "t": 194743.48958333317,
      "d": 1309.895833333314,
      "v": 111
    },
    {
      "midi": 69,
      "hit": false,
      "t": 194744.7916666665,
      "d": 1328.124999999971,
      "v": 117
    },
    {
      "midi": 73,
      "hit": false,
      "t": 194766.92708333326,
      "d": 583.333333333343,
      "v": 121
    },
    {
      "midi": 69,
      "hit": false,
      "t": 194768.2291666666,
      "d": 615.885416666657,
      "v": 127
    },
    {
      "midi": 64,
      "hit": false,
      "t": 194770.83333333326,
      "d": 605.46875,
      "v": 121
    },
    {
      "midi": 54,
      "hit": false,
      "t": 195248.6979166665,
      "d": 263.02083333331393,
      "v": 104
    },
    {
      "midi": 71,
      "hit": false,
      "t": 195499.9999999999,
      "d": 160.15625,
      "v": 117
    },
    {
      "midi": 68,
      "hit": false,
      "t": 195501.30208333326,
      "d": 143.22916666665697,
      "v": 127
    },
    {
      "midi": 64,
      "hit": false,
      "t": 195501.30208333326,
      "d": 144.53125,
      "v": 107
    },
    {
      "midi": 64,
      "hit": false,
      "t": 195505.20833333317,
      "d": 533.854166666657,
      "v": 113
    },
    {
      "midi": 69,
      "hit": false,
      "t": 195748.69791666657,
      "d": 186.19791666668607,
      "v": 127
    },
    {
      "midi": 73,
      "hit": false,
      "t": 195748.69791666657,
      "d": 186.19791666668607,
      "v": 121
    },
    {
      "midi": 64,
      "hit": false,
      "t": 195749.9999999999,
      "d": 188.80208333334303,
      "v": 117
    },
    {
      "midi": 54,
      "hit": false,
      "t": 195755.20833333317,
      "d": 102.86458333331393,
      "v": 97
    },
    {
      "midi": 72,
      "hit": false,
      "t": 195769.5312499999,
      "d": 16.927083333343035,
      "v": 90
    },
    {
      "midi": 50,
      "hit": false,
      "t": 196003.90624999983,
      "d": 1742.1874999999418,
      "v": 115
    },
    {
      "midi": 62,
      "hit": false,
      "t": 196253.90624999983,
      "d": 727.8645833333139,
      "v": 127
    },
    {
      "midi": 66,
      "hit": false,
      "t": 196494.79166666648,
      "d": 785.1562499999709,
      "v": 102
    },
    {
      "midi": 69,
      "hit": false,
      "t": 196749.99999999983,
      "d": 1394.531249999971,
      "v": 123
    },
    {
      "midi": 74,
      "hit": false,
      "t": 196752.60416666648,
      "d": 1736.9791666666279,
      "v": 127
    },
    {
      "midi": 69,
      "hit": false,
      "t": 196779.9479166666,
      "d": 638.020833333343,
      "v": 127
    },
    {
      "midi": 74,
      "hit": false,
      "t": 196781.24999999994,
      "d": 601.5625,
      "v": 127
    },
    {
      "midi": 66,
      "hit": false,
      "t": 196783.8541666666,
      "d": 621.09375,
      "v": 123
    },
    {
      "midi": 62,
      "hit": false,
      "t": 197257.8124999998,
      "d": 255.20833333331393,
      "v": 115
    },
    {
      "midi": 69,
      "hit": false,
      "t": 197506.5104166666,
      "d": 157.55208333334303,
      "v": 115
    },
    {
      "midi": 73,
      "hit": false,
      "t": 197507.81249999994,
      "d": 154.94791666665697,
      "v": 117
    },
    {
      "midi": 66,
      "hit": false,
      "t": 197510.41666666645,
      "d": 617.1875,
      "v": 109
    },
    {
      "midi": 66,
      "hit": false,
      "t": 197516.92708333328,
      "d": 131.51041666665697,
      "v": 101
    },
    {
      "midi": 62,
      "hit": false,
      "t": 197747.3958333331,
      "d": 250,
      "v": 117
    },
    {
      "midi": 74,
      "hit": false,
      "t": 197753.90624999994,
      "d": 212.23958333331393,
      "v": 119
    },
    {
      "midi": 69,
      "hit": false,
      "t": 197760.4166666666,
      "d": 179.6875,
      "v": 123
    },
    {
      "midi": 66,
      "hit": false,
      "t": 197761.71874999994,
      "d": 186.19791666665697,
      "v": 113
    },
    {
      "midi": 50,
      "hit": false,
      "t": 197997.3958333331,
      "d": 1843.75,
      "v": 123
    },
    {
      "midi": 62,
      "hit": false,
      "t": 198244.79166666645,
      "d": 869.791666666657,
      "v": 127
    },
    {
      "midi": 68,
      "hit": false,
      "t": 198496.09374999977,
      "d": 779.9479166666861,
      "v": 117
    },
    {
      "midi": 76,
      "hit": false,
      "t": 198747.3958333331,
      "d": 1183.59375,
      "v": 111
    },
    {
      "midi": 71,
      "hit": false,
      "t": 198747.3958333331,
      "d": 1194.010416666657,
      "v": 119
    },
    {
      "midi": 71,
      "hit": false,
      "t": 199011.7187499999,
      "d": 364.58333333331393,
      "v": 126
    },
    {
      "midi": 62,
      "hit": false,
      "t": 199255.2083333331,
      "d": 250,
      "v": 117
    },
    {
      "midi": 73,
      "hit": false,
      "t": 199268.22916666657,
      "d": 187.5,
      "v": 126
    },
    {
      "midi": 68,
      "hit": false,
      "t": 199493.4895833331,
      "d": 450.52083333331393,
      "v": 123
    },
    {
      "midi": 76,
      "hit": false,
      "t": 199524.73958333323,
      "d": 497.39583333334303,
      "v": 121
    },
    {
      "midi": 62,
      "hit": false,
      "t": 199746.09374999977,
      "d": 170.57291666668607,
      "v": 117
    },
    {
      "midi": 49,
      "hit": false,
      "t": 199997.39583333308,
      "d": 1529.9479166666279,
      "v": 109
    },
    {
      "midi": 61,
      "hit": false,
      "t": 200253.90624999974,
      "d": 661.4583333333139,
      "v": 102
    },
    {
      "midi": 64,
      "hit": false,
      "t": 200494.7916666664,
      "d": 761.7187499999709,
      "v": 97
    },
    {
      "midi": 73,
      "hit": false,
      "t": 200755.20833333305,
      "d": 1398.437499999971,
      "v": 111
    },
    {
      "midi": 68,
      "hit": false,
      "t": 200756.5104166664,
      "d": 1282.552083333314,
      "v": 117
    },
    {
      "midi": 61,
      "hit": false,
      "t": 201246.0937499997,
      "d": 199.21875,
      "v": 106
    },
    {
      "midi": 64,
      "hit": false,
      "t": 201494.79166666637,
      "d": 601.5625,
      "v": 119
    },
    {
      "midi": 54,
      "hit": false,
      "t": 201738.2812499997,
      "d": 234.375,
      "v": 96
    },
    {
      "midi": 42,
      "hit": false,
      "t": 201993.48958333305,
      "d": 1842.4479166665988,
      "v": 117
    },
    {
      "midi": 54,
      "hit": false,
      "t": 202243.48958333302,
      "d": 747.3958333333139,
      "v": 109
    },
    {
      "midi": 64,
      "hit": false,
      "t": 202499.99999999968,
      "d": 748.697916666657,
      "v": 101
    },
    {
      "midi": 73,
      "hit": false,
      "t": 202756.51041666634,
      "d": 976.5625,
      "v": 115
    },
    {
      "midi": 69,
      "hit": false,
      "t": 202757.81249999968,
      "d": 958.3333333333139,
      "v": 119
    },
    {
      "midi": 54,
      "hit": false,
      "t": 203247.395833333,
      "d": 255.20833333334303,
      "v": 102
    },
    {
      "midi": 64,
      "hit": false,
      "t": 203502.60416666634,
      "d": 201.82291666665697,
      "v": 115
    },
    {
      "midi": 54,
      "hit": false,
      "t": 203747.395833333,
      "d": 147.13541666665697,
      "v": 83
    },
    {
      "midi": 69,
      "hit": false,
      "t": 203999.99999999965,
      "d": 84.63541666665697,
      "v": 101
    },
    {
      "midi": 71,
      "hit": false,
      "t": 203999.99999999965,
      "d": 225.26041666665697,
      "v": 127
    },
    {
      "midi": 74,
      "hit": false,
      "t": 203999.99999999965,
      "d": 1779.947916666657,
      "v": 127
    },
    {
      "midi": 43,
      "hit": false,
      "t": 204003.90624999965,
      "d": 1811.197916666657,
      "v": 119
    },
    {
      "midi": 69,
      "hit": false,
      "t": 204252.6041666663,
      "d": 236.97916666665697,
      "v": 113
    },
    {
      "midi": 67,
      "hit": false,
      "t": 204485.67708333296,
      "d": 899.739583333343,
      "v": 112
    },
    {
      "midi": 55,
      "hit": false,
      "t": 204747.39583333296,
      "d": 309.89583333334303,
      "v": 123
    },
    {
      "midi": 62,
      "hit": false,
      "t": 204759.11458333296,
      "d": 493.48958333334303,
      "v": 104
    },
    {
      "midi": 55,
      "hit": false,
      "t": 205253.90624999965,
      "d": 257.8124999999709,
      "v": 121
    },
    {
      "midi": 67,
      "hit": false,
      "t": 205501.30208333296,
      "d": 277.34375,
      "v": 74
    },
    {
      "midi": 62,
      "hit": false,
      "t": 205505.20833333296,
      "d": 324.21875,
      "v": 125
    },
    {
      "midi": 55,
      "hit": false,
      "t": 205763.02083333296,
      "d": 134.11458333334303,
      "v": 123
    },
    {
      "midi": 40,
      "hit": false,
      "t": 206002.6041666663,
      "d": 1894.53125,
      "v": 121
    },
    {
      "midi": 62,
      "hit": false,
      "t": 206261.71874999965,
      "d": 273.4375,
      "v": 127
    },
    {
      "midi": 69,
      "hit": false,
      "t": 206261.71874999965,
      "d": 277.34375,
      "v": 127
    },
    {
      "midi": 66,
      "hit": false,
      "t": 206261.71874999965,
      "d": 281.25,
      "v": 124
    },
    {
      "midi": 52,
      "hit": false,
      "t": 206742.18749999965,
      "d": 372.39583333334303,
      "v": 117
    },
    {
      "midi": 66,
      "hit": false,
      "t": 207007.81249999965,
      "d": 292.96875,
      "v": 126
    },
    {
      "midi": 62,
      "hit": false,
      "t": 207007.81249999965,
      "d": 296.875,
      "v": 127
    },
    {
      "midi": 69,
      "hit": false,
      "t": 207007.81249999965,
      "d": 313.80208333334303,
      "v": 127
    },
    {
      "midi": 52,
      "hit": false,
      "t": 207259.114583333,
      "d": 653.6458333333139,
      "v": 123
    },
    {
      "midi": 64,
      "hit": false,
      "t": 207499.99999999965,
      "d": 442.70833333331393,
      "v": 127
    },
    {
      "midi": 68,
      "hit": false,
      "t": 207502.6041666663,
      "d": 442.70833333331393,
      "v": 127
    },
    {
      "midi": 71,
      "hit": false,
      "t": 207502.6041666663,
      "d": 451.82291666665697,
      "v": 127
    },
    {
      "midi": 57,
      "hit": false,
      "t": 207999.99999999962,
      "d": 453.125,
      "v": 107
    },
    {
      "midi": 72,
      "hit": false,
      "t": 208001.30208333296,
      "d": 14.322916666656965,
      "v": 82
    },
    {
      "midi": 64,
      "hit": false,
      "t": 208001.30208333296,
      "d": 608.072916666657,
      "v": 126
    },
    {
      "midi": 73,
      "hit": false,
      "t": 208001.30208333296,
      "d": 626.3020833333139,
      "v": 126
    },
    {
      "midi": 69,
      "hit": false,
      "t": 208001.30208333296,
      "d": 657.5520833333139,
      "v": 127
    },
    {
      "midi": 57,
      "hit": false,
      "t": 208501.30208333296,
      "d": 799.479166666657,
      "v": 113
    },
    {
      "midi": 64,
      "hit": false,
      "t": 208748.69791666628,
      "d": 850.260416666657,
      "v": 100
    },
    {
      "midi": 73,
      "hit": false,
      "t": 208998.69791666628,
      "d": 192.70833333334303,
      "v": 124
    },
    {
      "midi": 69,
      "hit": false,
      "t": 208998.69791666628,
      "d": 639.322916666657,
      "v": 127
    },
    {
      "midi": 74,
      "hit": false,
      "t": 209248.69791666628,
      "d": 380.20833333331393,
      "v": 121
    },
    {
      "midi": 57,
      "hit": false,
      "t": 209498.69791666628,
      "d": 259.11458333334303,
      "v": 106
    },
    {
      "midi": 64,
      "hit": false,
      "t": 209748.69791666628,
      "d": 549.479166666657,
      "v": 111
    },
    {
      "midi": 76,
      "hit": false,
      "t": 209748.69791666628,
      "d": 945.3125,
      "v": 115
    },
    {
      "midi": 69,
      "hit": false,
      "t": 209748.69791666628,
      "d": 1098.958333333343,
      "v": 127
    },
    {
      "midi": 42,
      "hit": false,
      "t": 209999.99999999962,
      "d": 1776.041666666657,
      "v": 115
    },
    {
      "midi": 54,
      "hit": false,
      "t": 210248.69791666628,
      "d": 295.57291666665697,
      "v": 115
    },
    {
      "midi": 64,
      "hit": false,
      "t": 210498.69791666628,
      "d": 343.75,
      "v": 107
    },
    {
      "midi": 54,
      "hit": false,
      "t": 210748.69791666628,
      "d": 598.958333333343,
      "v": 115
    },
    {
      "midi": 73,
      "hit": false,
      "t": 210998.69791666628,
      "d": 166.66666666665697,
      "v": 115
    },
    {
      "midi": 64,
      "hit": false,
      "t": 210998.69791666628,
      "d": 511.71875,
      "v": 106
    },
    {
      "midi": 69,
      "hit": false,
      "t": 210998.69791666628,
      "d": 648.4375,
      "v": 123
    },
    {
      "midi": 74,
      "hit": false,
      "t": 211248.69791666628,
      "d": 373.69791666665697,
      "v": 108
    },
    {
      "midi": 54,
      "hit": false,
      "t": 211498.69791666628,
      "d": 287.76041666665697,
      "v": 109
    },
    {
      "midi": 66,
      "hit": false,
      "t": 211748.69791666628,
      "d": 623.697916666657,
      "v": 101
    },
    {
      "midi": 64,
      "hit": false,
      "t": 211748.69791666628,
      "d": 626.3020833333139,
      "v": 107
    },
    {
      "midi": 76,
      "hit": false,
      "t": 211748.69791666628,
      "d": 981.7708333333139,
      "v": 107
    },
    {
      "midi": 69,
      "hit": false,
      "t": 211748.69791666628,
      "d": 1208.333333333314,
      "v": 127
    },
    {
      "midi": 38,
      "hit": false,
      "t": 212001.30208333294,
      "d": 1582.03125,
      "v": 117
    },
    {
      "midi": 50,
      "hit": false,
      "t": 212251.30208333294,
      "d": 291.66666666665697,
      "v": 112
    },
    {
      "midi": 66,
      "hit": false,
      "t": 212501.30208333294,
      "d": 365.88541666665697,
      "v": 66
    },
    {
      "midi": 64,
      "hit": false,
      "t": 212501.30208333294,
      "d": 373.69791666665697,
      "v": 82
    },
    {
      "midi": 50,
      "hit": false,
      "t": 212751.30208333294,
      "d": 498.69791666665697,
      "v": 115
    },
    {
      "midi": 64,
      "hit": false,
      "t": 213001.30208333294,
      "d": 776.041666666657,
      "v": 101
    },
    {
      "midi": 66,
      "hit": false,
      "t": 213001.30208333294,
      "d": 776.041666666657,
      "v": 96
    },
    {
      "midi": 69,
      "hit": false,
      "t": 213001.30208333294,
      "d": 782.5520833333139,
      "v": 107
    },
    {
      "midi": 74,
      "hit": false,
      "t": 213001.30208333294,
      "d": 792.9687499999709,
      "v": 125
    },
    {
      "midi": 50,
      "hit": false,
      "t": 213501.30208333294,
      "d": 440.10416666662786,
      "v": 117
    },
    {
      "midi": 38,
      "hit": false,
      "t": 213751.30208333294,
      "d": 171.8749999999709,
      "v": 117
    },
    {
      "midi": 49,
      "hit": false,
      "t": 213999.99999999956,
      "d": 319.01041666668607,
      "v": 104
    },
    {
      "midi": 65,
      "hit": false,
      "t": 214001.3020833329,
      "d": 606.770833333343,
      "v": 125
    },
    {
      "midi": 71,
      "hit": false,
      "t": 214001.3020833329,
      "d": 634.114583333343,
      "v": 124
    },
    {
      "midi": 76,
      "hit": false,
      "t": 214001.3020833329,
      "d": 750.0000000000291,
      "v": 121
    },
    {
      "midi": 49,
      "hit": false,
      "t": 214498.69791666625,
      "d": 501.30208333334303,
      "v": 119
    },
    {
      "midi": 69,
      "hit": false,
      "t": 214749.9999999996,
      "d": 242.1875,
      "v": 88
    },
    {
      "midi": 53,
      "hit": false,
      "t": 214998.69791666625,
      "d": 415.36458333334303,
      "v": 123
    },
    {
      "midi": 41,
      "hit": false,
      "t": 214998.69791666625,
      "d": 657.552083333343,
      "v": 117
    },
    {
      "midi": 65,
      "hit": false,
      "t": 214999.9999999996,
      "d": 671.875,
      "v": 117
    },
    {
      "midi": 68,
      "hit": false,
      "t": 214999.9999999996,
      "d": 671.875,
      "v": 117
    },
    {
      "midi": 73,
      "hit": false,
      "t": 214999.9999999996,
      "d": 962.239583333343,
      "v": 125
    },
    {
      "midi": 71,
      "hit": false,
      "t": 215499.9999999996,
      "d": 468.75,
      "v": 110
    },
    {
      "midi": 53,
      "hit": false,
      "t": 215501.30208333294,
      "d": 486.97916666665697,
      "v": 119
    },
    {
      "midi": 41,
      "hit": false,
      "t": 215751.30208333294,
      "d": 170.57291666665697,
      "v": 119
    },
    {
      "midi": 42,
      "hit": false,
      "t": 215999.9999999996,
      "d": 1540.364583333343,
      "v": 91
    },
    {
      "midi": 66,
      "hit": false,
      "t": 216001.30208333294,
      "d": 820.3125,
      "v": 111
    },
    {
      "midi": 69,
      "hit": false,
      "t": 216001.30208333294,
      "d": 923.177083333343,
      "v": 127
    },
    {
      "midi": 73,
      "hit": false,
      "t": 216001.30208333294,
      "d": 925.78125,
      "v": 126
    },
    {
      "midi": 54,
      "hit": false,
      "t": 216751.30208333294,
      "d": 615.8854166666861,
      "v": 104
    },
    {
      "midi": 66,
      "hit": false,
      "t": 216998.69791666628,
      "d": 792.96875,
      "v": 78
    },
    {
      "midi": 69,
      "hit": false,
      "t": 217248.69791666628,
      "d": 686.197916666657,
      "v": 123
    },
    {
      "midi": 73,
      "hit": false,
      "t": 217248.69791666628,
      "d": 688.8020833333139,
      "v": 107
    },
    {
      "midi": 54,
      "hit": false,
      "t": 217498.69791666628,
      "d": 433.59375,
      "v": 96
    },
    {
      "midi": 42,
      "hit": false,
      "t": 217748.69791666628,
      "d": 177.08333333334303,
      "v": 123
    },
    {
      "midi": 53,
      "hit": false,
      "t": 217998.69791666625,
      "d": 643.229166666657,
      "v": 101
    },
    {
      "midi": 73,
      "hit": false,
      "t": 217998.69791666625,
      "d": 863.28125,
      "v": 107
    },
    {
      "midi": 65,
      "hit": false,
      "t": 217998.69791666625,
      "d": 901.041666666657,
      "v": 115
    },
    {
      "midi": 69,
      "hit": false,
      "t": 217998.69791666625,
      "d": 906.25,
      "v": 117
    },
    {
      "midi": 41,
      "hit": false,
      "t": 217998.69791666625,
      "d": 1567.708333333343,
      "v": 119
    },
    {
      "midi": 53,
      "hit": false,
      "t": 218748.69791666625,
      "d": 591.145833333343,
      "v": 74
    },
    {
      "midi": 65,
      "hit": false,
      "t": 218999.9999999996,
      "d": 833.3333333333139,
      "v": 104
    },
    {
      "midi": 73,
      "hit": false,
      "t": 219001.30208333294,
      "d": 817.7083333333139,
      "v": 113
    },
    {
      "midi": 69,
      "hit": false,
      "t": 219001.30208333294,
      "d": 837.2395833333139,
      "v": 117
    },
    {
      "midi": 53,
      "hit": false,
      "t": 219501.30208333294,
      "d": 390.6249999999709,
      "v": 74
    },
    {
      "midi": 41,
      "hit": false,
      "t": 219748.69791666625,
      "d": 170.57291666665697,
      "v": 115
    },
    {
      "midi": 73,
      "hit": false,
      "t": 219998.69791666625,
      "d": 522.135416666657,
      "v": 119
    },
    {
      "midi": 69,
      "hit": false,
      "t": 219998.69791666625,
      "d": 558.59375,
      "v": 124
    },
    {
      "midi": 66,
      "hit": false,
      "t": 219998.69791666625,
      "d": 1734.375,
      "v": 111
    },
    {
      "midi": 40,
      "hit": false,
      "t": 219998.69791666625,
      "d": 1742.1875,
      "v": 113
    },
    {
      "midi": 52,
      "hit": false,
      "t": 219998.69791666625,
      "d": 1761.71875,
      "v": 115
    },
    {
      "midi": 74,
      "hit": false,
      "t": 220498.69791666625,
      "d": 253.90625,
      "v": 112
    },
    {
      "midi": 71,
      "hit": false,
      "t": 220748.69791666625,
      "d": 1014.322916666657,
      "v": 104
    },
    {
      "midi": 73,
      "hit": false,
      "t": 221248.69791666625,
      "d": 502.60416666665697,
      "v": 66
    },
    {
      "midi": 40,
      "hit": false,
      "t": 221876.3020833329,
      "d": 1550.78125,
      "v": 88
    },
    {
      "midi": 74,
      "hit": false,
      "t": 221998.69791666625,
      "d": 490.88541666665697,
      "v": 127
    },
    {
      "midi": 52,
      "hit": false,
      "t": 221998.69791666625,
      "d": 1455.729166666657,
      "v": 107
    },
    {
      "midi": 73,
      "hit": false,
      "t": 222248.69791666625,
      "d": 252.60416666665697,
      "v": 101
    },
    {
      "midi": 69,
      "hit": false,
      "t": 222498.69791666625,
      "d": 270.83333333334303,
      "v": 104
    },
    {
      "midi": 64,
      "hit": false,
      "t": 222748.69791666625,
      "d": 714.84375,
      "v": 106
    },
    {
      "midi": 69,
      "hit": false,
      "t": 223248.69791666625,
      "d": 289.0625,
      "v": 86
    },
    {
      "midi": 68,
      "hit": false,
      "t": 223498.69791666625,
      "d": 281.25,
      "v": 96
    },
    {
      "midi": 69,
      "hit": false,
      "t": 223751.3020833329,
      "d": 235.67708333334303,
      "v": 88
    },
    {
      "midi": 76,
      "hit": false,
      "t": 224005.2083333329,
      "d": 653.6458333333139,
      "v": 115
    },
    {
      "midi": 45,
      "hit": false,
      "t": 224007.81249999956,
      "d": 1576.822916666686,
      "v": 113
    },
    {
      "midi": 76,
      "hit": false,
      "t": 224026.04166666657,
      "d": 233.07291666665697,
      "v": 102
    },
    {
      "midi": 57,
      "hit": false,
      "t": 224029.94791666657,
      "d": 1799.4791666666279,
      "v": 126
    },
    {
      "midi": 61,
      "hit": false,
      "t": 224035.1562499999,
      "d": 1937.4999999999418,
      "v": 127
    },
    {
      "midi": 52,
      "hit": false,
      "t": 224045.57291666657,
      "d": 1895.8333333332848,
      "v": 115
    },
    {
      "midi": 57,
      "hit": false,
      "t": 224248.69791666622,
      "d": 832.0312500000291,
      "v": 115
    },
    {
      "midi": 69,
      "hit": false,
      "t": 224256.51041666657,
      "d": 475.26041666665697,
      "v": 97
    },
    {
      "midi": 69,
      "hit": false,
      "t": 224511.71874999956,
      "d": 195.3125,
      "v": 98
    },
    {
      "midi": 76,
      "hit": false,
      "t": 224749.99999999988,
      "d": 511.71875,
      "v": 106
    },
    {
      "midi": 64,
      "hit": false,
      "t": 224759.1145833329,
      "d": 545.572916666657,
      "v": 102
    },
    {
      "midi": 69,
      "hit": false,
      "t": 224759.1145833329,
      "d": 1075.520833333343,
      "v": 106
    },
    {
      "midi": 57,
      "hit": false,
      "t": 225227.8645833329,
      "d": 296.875,
      "v": 100
    },
    {
      "midi": 79,
      "hit": false,
      "t": 225268.22916666654,
      "d": 473.95833333331393,
      "v": 99
    },
    {
      "midi": 64,
      "hit": false,
      "t": 225481.7708333329,
      "d": 375,
      "v": 109
    },
    {
      "midi": 76,
      "hit": false,
      "t": 225723.9583333332,
      "d": 490.88541666665697,
      "v": 111
    },
    {
      "midi": 55,
      "hit": false,
      "t": 225727.8645833329,
      "d": 240.88541666665697,
      "v": 99
    },
    {
      "midi": 57,
      "hit": false,
      "t": 225971.3541666665,
      "d": 1861.979166666686,
      "v": 119
    },
    {
      "midi": 50,
      "hit": false,
      "t": 225983.0729166665,
      "d": 1916.666666666686,
      "v": 115
    },
    {
      "midi": 59,
      "hit": false,
      "t": 225983.0729166665,
      "d": 1955.729166666686,
      "v": 113
    },
    {
      "midi": 43,
      "hit": false,
      "t": 225984.37499999956,
      "d": 1888.020833333314,
      "v": 112
    },
    {
      "midi": 69,
      "hit": false,
      "t": 225990.88541666622,
      "d": 359.375,
      "v": 115
    },
    {
      "midi": 76,
      "hit": false,
      "t": 225990.88541666622,
      "d": 546.875,
      "v": 106
    },
    {
      "midi": 69,
      "hit": false,
      "t": 226226.56249999985,
      "d": 497.39583333334303,
      "v": 104
    },
    {
      "midi": 55,
      "hit": false,
      "t": 226246.09374999956,
      "d": 869.791666666657,
      "v": 101
    },
    {
      "midi": 69,
      "hit": false,
      "t": 226496.09374999956,
      "d": 188.80208333331393,
      "v": 89
    },
    {
      "midi": 76,
      "hit": false,
      "t": 226727.8645833332,
      "d": 532.552083333343,
      "v": 98
    },
    {
      "midi": 64,
      "hit": false,
      "t": 226743.48958333288,
      "d": 553.3854166666861,
      "v": 106
    },
    {
      "midi": 69,
      "hit": false,
      "t": 226743.48958333288,
      "d": 1178.385416666657,
      "v": 93
    },
    {
      "midi": 55,
      "hit": false,
      "t": 227248.69791666622,
      "d": 299.47916666665697,
      "v": 86
    },
    {
      "midi": 79,
      "hit": false,
      "t": 227248.69791666654,
      "d": 527.34375,
      "v": 102
    },
    {
      "midi": 64,
      "hit": false,
      "t": 227490.88541666622,
      "d": 407.55208333331393,
      "v": 106
    },
    {
      "midi": 76,
      "hit": false,
      "t": 227752.60416666654,
      "d": 485.67708333331393,
      "v": 91
    },
    {
      "midi": 55,
      "hit": false,
      "t": 227753.90624999953,
      "d": 234.375,
      "v": 99
    },
    {
      "midi": 57,
      "hit": false,
      "t": 227977.8645833332,
      "d": 1856.7708333332848,
      "v": 117
    },
    {
      "midi": 54,
      "hit": false,
      "t": 227979.16666666654,
      "d": 1748.6979166666279,
      "v": 117
    },
    {
      "midi": 50,
      "hit": false,
      "t": 227993.4895833332,
      "d": 1807.2916666666279,
      "v": 113
    },
    {
      "midi": 69,
      "hit": false,
      "t": 227999.99999999953,
      "d": 326.82291666665697,
      "v": 104
    },
    {
      "midi": 76,
      "hit": false,
      "t": 227999.99999999953,
      "d": 511.71875,
      "v": 104
    },
    {
      "midi": 42,
      "hit": false,
      "t": 228003.90624999953,
      "d": 1812.5,
      "v": 115
    },
    {
      "midi": 54,
      "hit": false,
      "t": 228246.09374999953,
      "d": 921.8750000000291,
      "v": 100
    },
    {
      "midi": 69,
      "hit": false,
      "t": 228246.09374999985,
      "d": 522.135416666657,
      "v": 106
    },
    {
      "midi": 69,
      "hit": false,
      "t": 228490.8854166662,
      "d": 221.35416666668607,
      "v": 93
    },
    {
      "midi": 69,
      "hit": false,
      "t": 228752.60416666622,
      "d": 1117.187499999971,
      "v": 106
    },
    {
      "midi": 76,
      "hit": false,
      "t": 228756.5104166665,
      "d": 515.625,
      "v": 102
    },
    {
      "midi": 64,
      "hit": false,
      "t": 228760.41666666622,
      "d": 553.385416666657,
      "v": 102
    },
    {
      "midi": 54,
      "hit": false,
      "t": 229248.69791666622,
      "d": 302.08333333331393,
      "v": 93
    },
    {
      "midi": 79,
      "hit": false,
      "t": 229248.6979166665,
      "d": 475.26041666665697,
      "v": 112
    },
    {
      "midi": 64,
      "hit": false,
      "t": 229496.09374999953,
      "d": 399.73958333331393,
      "v": 106
    },
    {
      "midi": 76,
      "hit": false,
      "t": 229734.37499999983,
      "d": 503.90625,
      "v": 104
    },
    {
      "midi": 54,
      "hit": false,
      "t": 229746.09374999953,
      "d": 230.4687499999709,
      "v": 89
    },
    {
      "midi": 69,
      "hit": false,
      "t": 229992.1874999995,
      "d": 335.9375,
      "v": 113
    },
    {
      "midi": 76,
      "hit": false,
      "t": 229992.1874999995,
      "d": 550.78125,
      "v": 107
    },
    {
      "midi": 41,
      "hit": false,
      "t": 229996.0937499995,
      "d": 1833.333333333314,
      "v": 119
    },
    {
      "midi": 57,
      "hit": false,
      "t": 229999.99999999983,
      "d": 1705.729166666657,
      "v": 119
    },
    {
      "midi": 59,
      "hit": false,
      "t": 230007.81249999983,
      "d": 1703.125,
      "v": 109
    },
    {
      "midi": 50,
      "hit": false,
      "t": 230013.02083333317,
      "d": 1673.177083333314,
      "v": 96
    },
    {
      "midi": 53,
      "hit": false,
      "t": 230016.92708333317,
      "d": 1687.499999999971,
      "v": 117
    },
    {
      "midi": 69,
      "hit": false,
      "t": 230248.69791666648,
      "d": 514.322916666657,
      "v": 95
    },
    {
      "midi": 53,
      "hit": false,
      "t": 230253.9062499995,
      "d": 898.4375,
      "v": 123
    },
    {
      "midi": 69,
      "hit": false,
      "t": 230499.9999999995,
      "d": 200.52083333334303,
      "v": 98
    },
    {
      "midi": 76,
      "hit": false,
      "t": 230743.48958333314,
      "d": 511.71875,
      "v": 93
    },
    {
      "midi": 69,
      "hit": false,
      "t": 230757.8124999995,
      "d": 1061.197916666657,
      "v": 101
    },
    {
      "midi": 64,
      "hit": false,
      "t": 230760.41666666616,
      "d": 605.46875,
      "v": 98
    },
    {
      "midi": 79,
      "hit": false,
      "t": 231260.41666666648,
      "d": 454.42708333334303,
      "v": 94
    },
    {
      "midi": 53,
      "hit": false,
      "t": 231268.22916666616,
      "d": 294.27083333334303,
      "v": 110
    },
    {
      "midi": 64,
      "hit": false,
      "t": 231510.41666666616,
      "d": 292.96875,
      "v": 107
    },
    {
      "midi": 76,
      "hit": false,
      "t": 231725.26041666648,
      "d": 276.04166666665697,
      "v": 96
    },
    {
      "midi": 53,
      "hit": false,
      "t": 231765.6249999995,
      "d": 169.27083333331393,
      "v": 112
    },
    {
      "midi": 69,
      "hit": false,
      "t": 231999.99999999948,
      "d": 295.57291666668607,
      "v": 111
    },
    {
      "midi": 74,
      "hit": false,
      "t": 231999.99999999948,
      "d": 305.98958333334303,
      "v": 119
    },
    {
      "midi": 64,
      "hit": false,
      "t": 231999.99999999948,
      "d": 558.59375,
      "v": 90
    },
    {
      "midi": 73,
      "hit": false,
      "t": 232227.86458333282,
      "d": 1279.947916666657,
      "v": 98
    },
    {
      "midi": 69,
      "hit": false,
      "t": 232485.67708333282,
      "d": 575.520833333343,
      "v": 101
    },
    {
      "midi": 64,
      "hit": false,
      "t": 232755.20833333282,
      "d": 562.5,
      "v": 98
    },
    {
      "midi": 69,
      "hit": false,
      "t": 233244.79166666616,
      "d": 299.47916666665697,
      "v": 92
    },
    {
      "midi": 68,
      "hit": false,
      "t": 233496.09374999948,
      "d": 300.78125,
      "v": 81
    },
    {
      "midi": 69,
      "hit": false,
      "t": 233749.99999999948,
      "d": 778.645833333343,
      "v": 106
    },
    {
      "midi": 65,
      "hit": false,
      "t": 236007.81249999948,
      "d": 372.39583333331393,
      "v": 74
    },
    {
      "midi": 71,
      "hit": false,
      "t": 236018.22916666613,
      "d": 414.0625,
      "v": 61
    },
    {
      "midi": 74,
      "hit": false,
      "t": 236026.04166666613,
      "d": 574.21875,
      "v": 67
    },
    {
      "midi": 57,
      "hit": false,
      "t": 236298.1770833328,
      "d": 1250.000000000029,
      "v": 43
    },
    {
      "midi": 65,
      "hit": false,
      "t": 236540.3645833328,
      "d": 1165.364583333343,
      "v": 59
    },
    {
      "midi": 71,
      "hit": false,
      "t": 236787.76041666613,
      "d": 884.114583333343,
      "v": 41
    },
    {
      "midi": 74,
      "hit": false,
      "t": 237261.71874999948,
      "d": 480.46875,
      "v": 61
    },
    {
      "midi": 57,
      "hit": false,
      "t": 237749.99999999948,
      "d": 1947.916666666686,
      "v": 39
    },
    {
      "midi": 64,
      "hit": false,
      "t": 238044.27083333282,
      "d": 1697.916666666686,
      "v": 59
    },
    {
      "midi": 69,
      "hit": false,
      "t": 238067.70833333282,
      "d": 1710.937500000029,
      "v": 73
    },
    {
      "midi": 73,
      "hit": false,
      "t": 238223.95833333282,
      "d": 1572.916666666686,
      "v": 90
    }
  ]
}