{
  "jsonPath": "Blues/Ragtime/Sue Keller/if-every-day-was-like-christmas.json",
  "path": "Blues\\Ragtime\\Sue Keller\\If Every Day Was Like Christmas.mid",
  "name": "If Every Day Was Like Christmas",
  "difficulty": "Advanced",
  "bpm": 72.99998296667064,
  "notes": [
    {
      "midi": 57,
      "hit": false,
      "t": 2693.75,
      "d": 100,
      "v": 57
    },
    {
      "midi": 66,
      "hit": false,
      "t": 2693.75,
      "d": 330,
      "v": 62
    },
    {
      "midi": 50,
      "hit": false,
      "t": 2693.75,
      "d": 1280,
      "v": 49
    },
    {
      "midi": 38,
      "hit": false,
      "t": 2693.75,
      "d": 1320,
      "v": 51
    },
    {
      "midi": 57,
      "hit": false,
      "t": 2973.75,
      "d": 350,
      "v": 66
    },
    {
      "midi": 62,
      "hit": false,
      "t": 3283.75,
      "d": 370,
      "v": 67
    },
    {
      "midi": 66,
      "hit": false,
      "t": 3653.75,
      "d": 250,
      "v": 86
    },
    {
      "midi": 57,
      "hit": false,
      "t": 3653.75,
      "d": 340,
      "v": 83
    },
    {
      "midi": 62,
      "hit": false,
      "t": 3973.75,
      "d": 360,
      "v": 65
    },
    {
      "midi": 37,
      "hit": false,
      "t": 4303.75,
      "d": 90,
      "v": 77
    },
    {
      "midi": 57,
      "hit": false,
      "t": 4303.75,
      "d": 90,
      "v": 74
    },
    {
      "midi": 49,
      "hit": false,
      "t": 4313.75,
      "d": 60,
      "v": 75
    },
    {
      "midi": 55,
      "hit": false,
      "t": 4663.75,
      "d": 160,
      "v": 66
    },
    {
      "midi": 67,
      "hit": false,
      "t": 4663.75,
      "d": 520,
      "v": 69
    },
    {
      "midi": 62,
      "hit": false,
      "t": 4663.75,
      "d": 660,
      "v": 62
    },
    {
      "midi": 59,
      "hit": false,
      "t": 4673.75,
      "d": 390,
      "v": 67
    },
    {
      "midi": 47,
      "hit": false,
      "t": 4683.75,
      "d": 1290,
      "v": 61
    },
    {
      "midi": 35,
      "hit": false,
      "t": 4683.75,
      "d": 1320,
      "v": 60
    },
    {
      "midi": 55,
      "hit": false,
      "t": 5013.75,
      "d": 410,
      "v": 61
    },
    {
      "midi": 59,
      "hit": false,
      "t": 5333.75,
      "d": 210,
      "v": 65
    },
    {
      "midi": 55,
      "hit": false,
      "t": 5673.75,
      "d": 300,
      "v": 73
    },
    {
      "midi": 62,
      "hit": false,
      "t": 5673.75,
      "d": 400,
      "v": 67
    },
    {
      "midi": 67,
      "hit": false,
      "t": 5683.75,
      "d": 430,
      "v": 74
    },
    {
      "midi": 59,
      "hit": false,
      "t": 6003.75,
      "d": 310,
      "v": 69
    },
    {
      "midi": 55,
      "hit": false,
      "t": 6323.75,
      "d": 70,
      "v": 63
    },
    {
      "midi": 33,
      "hit": false,
      "t": 6343.75,
      "d": 40,
      "v": 69
    },
    {
      "midi": 45,
      "hit": false,
      "t": 6343.75,
      "d": 40,
      "v": 70
    },
    {
      "midi": 56,
      "hit": false,
      "t": 6683.75,
      "d": 180,
      "v": 78
    },
    {
      "midi": 68,
      "hit": false,
      "t": 6683.75,
      "d": 470,
      "v": 92
    },
    {
      "midi": 44,
      "hit": false,
      "t": 6693.75,
      "d": 220,
      "v": 74
    },
    {
      "midi": 59,
      "hit": false,
      "t": 6693.75,
      "d": 370,
      "v": 71
    },
    {
      "midi": 32,
      "hit": false,
      "t": 6703.75,
      "d": 260,
      "v": 78
    },
    {
      "midi": 56,
      "hit": false,
      "t": 7033.75,
      "d": 310,
      "v": 74
    },
    {
      "midi": 59,
      "hit": false,
      "t": 7353.75,
      "d": 70,
      "v": 65
    },
    {
      "midi": 56,
      "hit": false,
      "t": 7703.75,
      "d": 210,
      "v": 63
    },
    {
      "midi": 62,
      "hit": false,
      "t": 7703.75,
      "d": 350,
      "v": 60
    },
    {
      "midi": 64,
      "hit": false,
      "t": 7703.75,
      "d": 570,
      "v": 61
    },
    {
      "midi": 68,
      "hit": false,
      "t": 7703.75,
      "d": 590,
      "v": 67
    },
    {
      "midi": 40,
      "hit": false,
      "t": 7713.75,
      "d": 360,
      "v": 57
    },
    {
      "midi": 28,
      "hit": false,
      "t": 7723.75,
      "d": 300,
      "v": 67
    },
    {
      "midi": 56,
      "hit": false,
      "t": 8033.75,
      "d": 200,
      "v": 75
    },
    {
      "midi": 62,
      "hit": false,
      "t": 8373.75,
      "d": 110,
      "v": 62
    },
    {
      "midi": 55,
      "hit": false,
      "t": 8733.75,
      "d": 180,
      "v": 60
    },
    {
      "midi": 62,
      "hit": false,
      "t": 8733.75,
      "d": 390,
      "v": 60
    },
    {
      "midi": 33,
      "hit": false,
      "t": 8743.75,
      "d": 280,
      "v": 57
    },
    {
      "midi": 45,
      "hit": false,
      "t": 8743.75,
      "d": 370,
      "v": 57
    },
    {
      "midi": 69,
      "hit": false,
      "t": 8743.75,
      "d": 670,
      "v": 60
    },
    {
      "midi": 64,
      "hit": false,
      "t": 8743.75,
      "d": 700,
      "v": 59
    },
    {
      "midi": 55,
      "hit": false,
      "t": 9073.75,
      "d": 440,
      "v": 62
    },
    {
      "midi": 62,
      "hit": false,
      "t": 9423.75,
      "d": 130,
      "v": 61
    },
    {
      "midi": 61,
      "hit": false,
      "t": 9783.75,
      "d": 390,
      "v": 70
    },
    {
      "midi": 69,
      "hit": false,
      "t": 9783.75,
      "d": 620,
      "v": 73
    },
    {
      "midi": 55,
      "hit": false,
      "t": 9793.75,
      "d": 200,
      "v": 69
    },
    {
      "midi": 64,
      "hit": false,
      "t": 9793.75,
      "d": 630,
      "v": 69
    },
    {
      "midi": 52,
      "hit": false,
      "t": 9803.75,
      "d": 290,
      "v": 75
    },
    {
      "midi": 45,
      "hit": false,
      "t": 10113.75,
      "d": 40,
      "v": 73
    },
    {
      "midi": 55,
      "hit": false,
      "t": 10113.75,
      "d": 160,
      "v": 56
    },
    {
      "midi": 61,
      "hit": false,
      "t": 10433.75,
      "d": 80,
      "v": 69
    },
    {
      "midi": 33,
      "hit": false,
      "t": 10443.75,
      "d": 390,
      "v": 65
    },
    {
      "midi": 69,
      "hit": false,
      "t": 10633.75,
      "d": 550,
      "v": 66
    },
    {
      "midi": 66,
      "hit": false,
      "t": 10673.75,
      "d": 510,
      "v": 70
    },
    {
      "midi": 64,
      "hit": false,
      "t": 10723.75,
      "d": 470,
      "v": 66
    },
    {
      "midi": 62,
      "hit": false,
      "t": 10753.75,
      "d": 400,
      "v": 65
    },
    {
      "midi": 57,
      "hit": false,
      "t": 10803.75,
      "d": 200,
      "v": 61
    },
    {
      "midi": 38,
      "hit": false,
      "t": 10813.75,
      "d": 3380,
      "v": 65
    },
    {
      "midi": 26,
      "hit": false,
      "t": 10823.75,
      "d": 150,
      "v": 62
    },
    {
      "midi": 57,
      "hit": false,
      "t": 11093.75,
      "d": 400,
      "v": 34
    },
    {
      "midi": 62,
      "hit": false,
      "t": 11473.75,
      "d": 170,
      "v": 55
    },
    {
      "midi": 69,
      "hit": false,
      "t": 11833.75,
      "d": 290,
      "v": 56
    },
    {
      "midi": 66,
      "hit": false,
      "t": 11833.75,
      "d": 340,
      "v": 51
    },
    {
      "midi": 64,
      "hit": false,
      "t": 11843.75,
      "d": 350,
      "v": 52
    },
    {
      "midi": 57,
      "hit": false,
      "t": 12163.75,
      "d": 340,
      "v": 56
    },
    {
      "midi": 62,
      "hit": false,
      "t": 12493.75,
      "d": 120,
      "v": 56
    },
    {
      "midi": 45,
      "hit": false,
      "t": 12513.75,
      "d": 370,
      "v": 60
    },
    {
      "midi": 66,
      "hit": false,
      "t": 12843.75,
      "d": 630,
      "v": 56
    },
    {
      "midi": 69,
      "hit": false,
      "t": 12853.75,
      "d": 550,
      "v": 56
    },
    {
      "midi": 64,
      "hit": false,
      "t": 12853.75,
      "d": 680,
      "v": 54
    },
    {
      "midi": 50,
      "hit": false,
      "t": 12853.75,
      "d": 1150,
      "v": 51
    },
    {
      "midi": 57,
      "hit": false,
      "t": 13183.75,
      "d": 330,
      "v": 52
    },
    {
      "midi": 62,
      "hit": false,
      "t": 13503.75,
      "d": 270,
      "v": 54
    },
    {
      "midi": 64,
      "hit": false,
      "t": 13863.75,
      "d": 350,
      "v": 63
    },
    {
      "midi": 66,
      "hit": false,
      "t": 13863.75,
      "d": 350,
      "v": 70
    },
    {
      "midi": 69,
      "hit": false,
      "t": 13873.75,
      "d": 340,
      "v": 66
    },
    {
      "midi": 62,
      "hit": false,
      "t": 14153.75,
      "d": 300,
      "v": 67
    },
    {
      "midi": 50,
      "hit": false,
      "t": 14173.75,
      "d": 310,
      "v": 69
    },
    {
      "midi": 57,
      "hit": false,
      "t": 14473.75,
      "d": 110,
      "v": 73
    },
    {
      "midi": 40,
      "hit": false,
      "t": 14493.75,
      "d": 340,
      "v": 77
    },
    {
      "midi": 61,
      "hit": false,
      "t": 14813.75,
      "d": 410,
      "v": 60
    },
    {
      "midi": 57,
      "hit": false,
      "t": 14823.75,
      "d": 200,
      "v": 60
    },
    {
      "midi": 66,
      "hit": false,
      "t": 14823.75,
      "d": 560,
      "v": 63
    },
    {
      "midi": 42,
      "hit": false,
      "t": 14823.75,
      "d": 3430,
      "v": 75
    },
    {
      "midi": 69,
      "hit": false,
      "t": 14833.75,
      "d": 450,
      "v": 61
    },
    {
      "midi": 57,
      "hit": false,
      "t": 15163.75,
      "d": 370,
      "v": 55
    },
    {
      "midi": 61,
      "hit": false,
      "t": 15483.75,
      "d": 220,
      "v": 54
    },
    {
      "midi": 69,
      "hit": false,
      "t": 15843.75,
      "d": 190,
      "v": 70
    },
    {
      "midi": 66,
      "hit": false,
      "t": 15843.75,
      "d": 230,
      "v": 69
    },
    {
      "midi": 61,
      "hit": false,
      "t": 15853.75,
      "d": 230,
      "v": 63
    },
    {
      "midi": 57,
      "hit": false,
      "t": 16153.75,
      "d": 190,
      "v": 56
    },
    {
      "midi": 61,
      "hit": false,
      "t": 16483.75,
      "d": 120,
      "v": 61
    },
    {
      "midi": 49,
      "hit": false,
      "t": 16513.75,
      "d": 1640,
      "v": 61
    },
    {
      "midi": 57,
      "hit": false,
      "t": 16843.75,
      "d": 190,
      "v": 52
    },
    {
      "midi": 66,
      "hit": false,
      "t": 16843.75,
      "d": 430,
      "v": 51
    },
    {
      "midi": 69,
      "hit": false,
      "t": 16853.75,
      "d": 320,
      "v": 57
    },
    {
      "midi": 61,
      "hit": false,
      "t": 16853.75,
      "d": 360,
      "v": 49
    },
    {
      "midi": 54,
      "hit": false,
      "t": 16853.75,
      "d": 1020,
      "v": 56
    },
    {
      "midi": 57,
      "hit": false,
      "t": 17173.75,
      "d": 370,
      "v": 52
    },
    {
      "midi": 61,
      "hit": false,
      "t": 17493.75,
      "d": 290,
      "v": 62
    },
    {
      "midi": 66,
      "hit": false,
      "t": 17843.75,
      "d": 340,
      "v": 71
    },
    {
      "midi": 69,
      "hit": false,
      "t": 17853.75,
      "d": 280,
      "v": 74
    },
    {
      "midi": 61,
      "hit": false,
      "t": 18153.75,
      "d": 260,
      "v": 71
    },
    {
      "midi": 54,
      "hit": false,
      "t": 18173.75,
      "d": 120,
      "v": 67
    },
    {
      "midi": 57,
      "hit": false,
      "t": 18463.75,
      "d": 130,
      "v": 67
    },
    {
      "midi": 49,
      "hit": false,
      "t": 18473.75,
      "d": 120,
      "v": 71
    },
    {
      "midi": 59,
      "hit": false,
      "t": 18813.75,
      "d": 390,
      "v": 56
    },
    {
      "midi": 57,
      "hit": false,
      "t": 18823.75,
      "d": 180,
      "v": 54
    },
    {
      "midi": 67,
      "hit": false,
      "t": 18823.75,
      "d": 430,
      "v": 56
    },
    {
      "midi": 62,
      "hit": false,
      "t": 18823.75,
      "d": 580,
      "v": 52
    },
    {
      "midi": 50,
      "hit": false,
      "t": 18833.75,
      "d": 1350,
      "v": 56
    },
    {
      "midi": 43,
      "hit": false,
      "t": 18843.75,
      "d": 1680,
      "v": 52
    },
    {
      "midi": 57,
      "hit": false,
      "t": 19153.75,
      "d": 370,
      "v": 49
    },
    {
      "midi": 59,
      "hit": false,
      "t": 19493.75,
      "d": 340,
      "v": 67
    },
    {
      "midi": 67,
      "hit": false,
      "t": 19833.75,
      "d": 360,
      "v": 70
    },
    {
      "midi": 62,
      "hit": false,
      "t": 19843.75,
      "d": 360,
      "v": 65
    },
    {
      "midi": 59,
      "hit": false,
      "t": 20143.75,
      "d": 340,
      "v": 70
    },
    {
      "midi": 55,
      "hit": false,
      "t": 20183.75,
      "d": 110,
      "v": 57
    },
    {
      "midi": 57,
      "hit": false,
      "t": 20473.75,
      "d": 100,
      "v": 67
    },
    {
      "midi": 50,
      "hit": false,
      "t": 20483.75,
      "d": 330,
      "v": 60
    },
    {
      "midi": 59,
      "hit": false,
      "t": 20823.75,
      "d": 340,
      "v": 61
    },
    {
      "midi": 57,
      "hit": false,
      "t": 20823.75,
      "d": 350,
      "v": 57
    },
    {
      "midi": 64,
      "hit": false,
      "t": 20823.75,
      "d": 420,
      "v": 57
    },
    {
      "midi": 52,
      "hit": false,
      "t": 20833.75,
      "d": 390,
      "v": 61
    },
    {
      "midi": 45,
      "hit": false,
      "t": 20843.75,
      "d": 660,
      "v": 54
    },
    {
      "midi": 61,
      "hit": false,
      "t": 21123.75,
      "d": 190,
      "v": 66
    },
    {
      "midi": 52,
      "hit": false,
      "t": 21433.75,
      "d": 270,
      "v": 71
    },
    {
      "midi": 64,
      "hit": false,
      "t": 21763.75,
      "d": 340,
      "v": 71
    },
    {
      "midi": 52,
      "hit": false,
      "t": 21773.75,
      "d": 230,
      "v": 56
    },
    {
      "midi": 59,
      "hit": false,
      "t": 21773.75,
      "d": 330,
      "v": 69
    },
    {
      "midi": 45,
      "hit": false,
      "t": 22063.75,
      "d": 310,
      "v": 57
    },
    {
      "midi": 57,
      "hit": false,
      "t": 22073.75,
      "d": 220,
      "v": 69
    },
    {
      "midi": 52,
      "hit": false,
      "t": 22383.75,
      "d": 150,
      "v": 73
    },
    {
      "midi": 40,
      "hit": false,
      "t": 22383.75,
      "d": 350,
      "v": 71
    },
    {
      "midi": 54,
      "hit": false,
      "t": 22723.75,
      "d": 330,
      "v": 71
    },
    {
      "midi": 62,
      "hit": false,
      "t": 22723.75,
      "d": 360,
      "v": 63
    },
    {
      "midi": 38,
      "hit": false,
      "t": 22723.75,
      "d": 700,
      "v": 70
    },
    {
      "midi": 57,
      "hit": false,
      "t": 23033.75,
      "d": 330,
      "v": 67
    },
    {
      "midi": 62,
      "hit": false,
      "t": 23353.75,
      "d": 180,
      "v": 71
    },
    {
      "midi": 61,
      "hit": false,
      "t": 23663.75,
      "d": 370,
      "v": 71
    },
    {
      "midi": 52,
      "hit": false,
      "t": 23673.75,
      "d": 320,
      "v": 75
    },
    {
      "midi": 37,
      "hit": false,
      "t": 23673.75,
      "d": 610,
      "v": 66
    },
    {
      "midi": 57,
      "hit": false,
      "t": 23983.75,
      "d": 390,
      "v": 67
    },
    {
      "midi": 52,
      "hit": false,
      "t": 24303.75,
      "d": 80,
      "v": 63
    },
    {
      "midi": 42,
      "hit": false,
      "t": 24303.75,
      "d": 310,
      "v": 66
    },
    {
      "midi": 50,
      "hit": false,
      "t": 24633.75,
      "d": 410,
      "v": 70
    },
    {
      "midi": 35,
      "hit": false,
      "t": 24643.75,
      "d": 1610,
      "v": 65
    },
    {
      "midi": 54,
      "hit": false,
      "t": 24953.75,
      "d": 340,
      "v": 67
    },
    {
      "midi": 59,
      "hit": false,
      "t": 25253.75,
      "d": 320,
      "v": 70
    },
    {
      "midi": 62,
      "hit": false,
      "t": 25583.75,
      "d": 70,
      "v": 69
    },
    {
      "midi": 47,
      "hit": false,
      "t": 25603.75,
      "d": 950,
      "v": 71
    },
    {
      "midi": 54,
      "hit": false,
      "t": 25893.75,
      "d": 100,
      "v": 77
    },
    {
      "midi": 66,
      "hit": false,
      "t": 26213.75,
      "d": 100,
      "v": 77
    },
    {
      "midi": 59,
      "hit": false,
      "t": 26223.75,
      "d": 80,
      "v": 74
    },
    {
      "midi": 42,
      "hit": false,
      "t": 26223.75,
      "d": 340,
      "v": 69
    },
    {
      "midi": 64,
      "hit": false,
      "t": 26553.75,
      "d": 670,
      "v": 63
    },
    {
      "midi": 55,
      "hit": false,
      "t": 26563.75,
      "d": 200,
      "v": 57
    },
    {
      "midi": 59,
      "hit": false,
      "t": 26563.75,
      "d": 380,
      "v": 63
    },
    {
      "midi": 40,
      "hit": false,
      "t": 26563.75,
      "d": 1740,
      "v": 66
    },
    {
      "midi": 55,
      "hit": false,
      "t": 26883.75,
      "d": 300,
      "v": 66
    },
    {
      "midi": 59,
      "hit": false,
      "t": 27203.75,
      "d": 260,
      "v": 70
    },
    {
      "midi": 62,
      "hit": false,
      "t": 27533.75,
      "d": 370,
      "v": 61
    },
    {
      "midi": 64,
      "hit": false,
      "t": 27543.75,
      "d": 350,
      "v": 61
    },
    {
      "midi": 67,
      "hit": false,
      "t": 27543.75,
      "d": 370,
      "v": 69
    },
    {
      "midi": 52,
      "hit": false,
      "t": 27563.75,
      "d": 240,
      "v": 59
    },
    {
      "midi": 59,
      "hit": false,
      "t": 27843.75,
      "d": 320,
      "v": 67
    },
    {
      "midi": 55,
      "hit": false,
      "t": 28183.75,
      "d": 100,
      "v": 67
    },
    {
      "midi": 52,
      "hit": false,
      "t": 28183.75,
      "d": 730,
      "v": 57
    },
    {
      "midi": 61,
      "hit": false,
      "t": 28503.75,
      "d": 360,
      "v": 67
    },
    {
      "midi": 55,
      "hit": false,
      "t": 28523.75,
      "d": 180,
      "v": 62
    },
    {
      "midi": 45,
      "hit": false,
      "t": 28523.75,
      "d": 1950,
      "v": 63
    },
    {
      "midi": 55,
      "hit": false,
      "t": 28823.75,
      "d": 280,
      "v": 61
    },
    {
      "midi": 61,
      "hit": false,
      "t": 29163.75,
      "d": 140,
      "v": 66
    },
    {
      "midi": 69,
      "hit": false,
      "t": 29483.75,
      "d": 650,
      "v": 71
    },
    {
      "midi": 64,
      "hit": false,
      "t": 29493.75,
      "d": 830,
      "v": 73
    },
    {
      "midi": 61,
      "hit": false,
      "t": 29783.75,
      "d": 470,
      "v": 63
    },
    {
      "midi": 55,
      "hit": false,
      "t": 30123.75,
      "d": 120,
      "v": 61
    },
    {
      "midi": 52,
      "hit": false,
      "t": 30153.75,
      "d": 110,
      "v": 67
    },
    {
      "midi": 57,
      "hit": false,
      "t": 30473.75,
      "d": 340,
      "v": 77
    },
    {
      "midi": 66,
      "hit": false,
      "t": 30473.75,
      "d": 600,
      "v": 75
    },
    {
      "midi": 50,
      "hit": false,
      "t": 30483.75,
      "d": 750,
      "v": 63
    },
    {
      "midi": 62,
      "hit": false,
      "t": 30753.75,
      "d": 340,
      "v": 61
    },
    {
      "midi": 57,
      "hit": false,
      "t": 31083.75,
      "d": 650,
      "v": 69
    },
    {
      "midi": 38,
      "hit": false,
      "t": 31093.75,
      "d": 180,
      "v": 67
    },
    {
      "midi": 64,
      "hit": false,
      "t": 31403.75,
      "d": 510,
      "v": 73
    },
    {
      "midi": 37,
      "hit": false,
      "t": 31403.75,
      "d": 620,
      "v": 70
    },
    {
      "midi": 61,
      "hit": false,
      "t": 31683.75,
      "d": 310,
      "v": 71
    },
    {
      "midi": 49,
      "hit": false,
      "t": 31763.75,
      "d": 170,
      "v": 63
    },
    {
      "midi": 57,
      "hit": false,
      "t": 32003.75,
      "d": 100,
      "v": 69
    },
    {
      "midi": 42,
      "hit": false,
      "t": 32013.75,
      "d": 330,
      "v": 71
    },
    {
      "midi": 62,
      "hit": false,
      "t": 32323.75,
      "d": 350,
      "v": 57
    },
    {
      "midi": 54,
      "hit": false,
      "t": 32333.75,
      "d": 480,
      "v": 62
    },
    {
      "midi": 35,
      "hit": false,
      "t": 32343.75,
      "d": 1250,
      "v": 70
    },
    {
      "midi": 59,
      "hit": false,
      "t": 32633.75,
      "d": 320,
      "v": 69
    },
    {
      "midi": 50,
      "hit": false,
      "t": 32933.75,
      "d": 370,
      "v": 59
    },
    {
      "midi": 54,
      "hit": false,
      "t": 33283.75,
      "d": 290,
      "v": 78
    },
    {
      "midi": 62,
      "hit": false,
      "t": 33283.75,
      "d": 330,
      "v": 74
    },
    {
      "midi": 47,
      "hit": false,
      "t": 33303.75,
      "d": 180,
      "v": 69
    },
    {
      "midi": 59,
      "hit": false,
      "t": 33583.75,
      "d": 390,
      "v": 74
    },
    {
      "midi": 54,
      "hit": false,
      "t": 33923.75,
      "d": 70,
      "v": 75
    },
    {
      "midi": 35,
      "hit": false,
      "t": 33943.75,
      "d": 320,
      "v": 70
    },
    {
      "midi": 64,
      "hit": false,
      "t": 34263.75,
      "d": 490,
      "v": 75
    },
    {
      "midi": 57,
      "hit": false,
      "t": 34273.75,
      "d": 620,
      "v": 71
    },
    {
      "midi": 40,
      "hit": false,
      "t": 34273.75,
      "d": 1350,
      "v": 69
    },
    {
      "midi": 28,
      "hit": false,
      "t": 34283.75,
      "d": 320,
      "v": 73
    },
    {
      "midi": 59,
      "hit": false,
      "t": 34553.75,
      "d": 650,
      "v": 65
    },
    {
      "midi": 52,
      "hit": false,
      "t": 34893.75,
      "d": 280,
      "v": 73
    },
    {
      "midi": 64,
      "hit": false,
      "t": 35223.75,
      "d": 640,
      "v": 77
    },
    {
      "midi": 57,
      "hit": false,
      "t": 35233.75,
      "d": 290,
      "v": 77
    },
    {
      "midi": 59,
      "hit": false,
      "t": 35523.75,
      "d": 330,
      "v": 75
    },
    {
      "midi": 57,
      "hit": false,
      "t": 35843.75,
      "d": 120,
      "v": 73
    },
    {
      "midi": 40,
      "hit": false,
      "t": 35863.75,
      "d": 1660,
      "v": 69
    },
    {
      "midi": 52,
      "hit": false,
      "t": 36193.75,
      "d": 180,
      "v": 73
    },
    {
      "midi": 64,
      "hit": false,
      "t": 36193.75,
      "d": 580,
      "v": 69
    },
    {
      "midi": 56,
      "hit": false,
      "t": 36203.75,
      "d": 340,
      "v": 74
    },
    {
      "midi": 59,
      "hit": false,
      "t": 36203.75,
      "d": 640,
      "v": 71
    },
    {
      "midi": 47,
      "hit": false,
      "t": 36213.75,
      "d": 1060,
      "v": 71
    },
    {
      "midi": 52,
      "hit": false,
      "t": 36503.75,
      "d": 390,
      "v": 70
    },
    {
      "midi": 56,
      "hit": false,
      "t": 36833.75,
      "d": 210,
      "v": 75
    },
    {
      "midi": 59,
      "hit": false,
      "t": 37173.75,
      "d": 520,
      "v": 86
    },
    {
      "midi": 64,
      "hit": false,
      "t": 37173.75,
      "d": 570,
      "v": 74
    },
    {
      "midi": 56,
      "hit": false,
      "t": 37463.75,
      "d": 470,
      "v": 77
    },
    {
      "midi": 47,
      "hit": false,
      "t": 37493.75,
      "d": 230,
      "v": 71
    },
    {
      "midi": 52,
      "hit": false,
      "t": 37783.75,
      "d": 110,
      "v": 69
    },
    {
      "midi": 40,
      "hit": false,
      "t": 37793.75,
      "d": 350,
      "v": 74
    },
    {
      "midi": 55,
      "hit": false,
      "t": 38133.75,
      "d": 180,
      "v": 71
    },
    {
      "midi": 59,
      "hit": false,
      "t": 38133.75,
      "d": 330,
      "v": 69
    },
    {
      "midi": 64,
      "hit": false,
      "t": 38133.75,
      "d": 500,
      "v": 65
    },
    {
      "midi": 62,
      "hit": false,
      "t": 38133.75,
      "d": 540,
      "v": 60
    },
    {
      "midi": 45,
      "hit": false,
      "t": 38143.75,
      "d": 1070,
      "v": 71
    },
    {
      "midi": 33,
      "hit": false,
      "t": 38143.75,
      "d": 3170,
      "v": 69
    },
    {
      "midi": 55,
      "hit": false,
      "t": 38443.75,
      "d": 350,
      "v": 63
    },
    {
      "midi": 59,
      "hit": false,
      "t": 38763.75,
      "d": 250,
      "v": 65
    },
    {
      "midi": 64,
      "hit": false,
      "t": 39093.75,
      "d": 590,
      "v": 71
    },
    {
      "midi": 62,
      "hit": false,
      "t": 39093.75,
      "d": 670,
      "v": 74
    },
    {
      "midi": 59,
      "hit": false,
      "t": 39393.75,
      "d": 310,
      "v": 71
    },
    {
      "midi": 55,
      "hit": false,
      "t": 39703.75,
      "d": 150,
      "v": 74
    },
    {
      "midi": 40,
      "hit": false,
      "t": 39723.75,
      "d": 330,
      "v": 71
    },
    {
      "midi": 57,
      "hit": false,
      "t": 40023.75,
      "d": 330,
      "v": 62
    },
    {
      "midi": 55,
      "hit": false,
      "t": 40033.75,
      "d": 170,
      "v": 65
    },
    {
      "midi": 61,
      "hit": false,
      "t": 40033.75,
      "d": 530,
      "v": 62
    },
    {
      "midi": 64,
      "hit": false,
      "t": 40043.75,
      "d": 580,
      "v": 63
    },
    {
      "midi": 45,
      "hit": false,
      "t": 40063.75,
      "d": 760,
      "v": 66
    },
    {
      "midi": 55,
      "hit": false,
      "t": 40353.75,
      "d": 290,
      "v": 63
    },
    {
      "midi": 57,
      "hit": false,
      "t": 40663.75,
      "d": 40,
      "v": 66
    },
    {
      "midi": 69,
      "hit": false,
      "t": 40993.75,
      "d": 360,
      "v": 74
    },
    {
      "midi": 64,
      "hit": false,
      "t": 40993.75,
      "d": 370,
      "v": 79
    },
    {
      "midi": 45,
      "hit": false,
      "t": 41013.75,
      "d": 170,
      "v": 74
    },
    {
      "midi": 61,
      "hit": false,
      "t": 41283.75,
      "d": 290,
      "v": 77
    },
    {
      "midi": 40,
      "hit": false,
      "t": 41303.75,
      "d": 240,
      "v": 71
    },
    {
      "midi": 33,
      "hit": false,
      "t": 41603.75,
      "d": 60,
      "v": 73
    },
    {
      "midi": 57,
      "hit": false,
      "t": 41603.75,
      "d": 70,
      "v": 71
    },
    {
      "midi": 69,
      "hit": false,
      "t": 41753.75,
      "d": 630,
      "v": 71
    },
    {
      "midi": 66,
      "hit": false,
      "t": 41783.75,
      "d": 670,
      "v": 77
    },
    {
      "midi": 64,
      "hit": false,
      "t": 41833.75,
      "d": 670,
      "v": 69
    },
    {
      "midi": 62,
      "hit": false,
      "t": 41873.75,
      "d": 400,
      "v": 63
    },
    {
      "midi": 57,
      "hit": false,
      "t": 41903.75,
      "d": 190,
      "v": 73
    },
    {
      "midi": 26,
      "hit": false,
      "t": 41933.75,
      "d": 250,
      "v": 71
    },
    {
      "midi": 38,
      "hit": false,
      "t": 41933.75,
      "d": 3200,
      "v": 67
    },
    {
      "midi": 57,
      "hit": false,
      "t": 42223.75,
      "d": 350,
      "v": 62
    },
    {
      "midi": 62,
      "hit": false,
      "t": 42543.75,
      "d": 290,
      "v": 59
    },
    {
      "midi": 66,
      "hit": false,
      "t": 42883.75,
      "d": 400,
      "v": 63
    },
    {
      "midi": 64,
      "hit": false,
      "t": 42893.75,
      "d": 390,
      "v": 62
    },
    {
      "midi": 69,
      "hit": false,
      "t": 42893.75,
      "d": 390,
      "v": 63
    },
    {
      "midi": 62,
      "hit": false,
      "t": 43193.75,
      "d": 380,
      "v": 57
    },
    {
      "midi": 57,
      "hit": false,
      "t": 43513.75,
      "d": 150,
      "v": 67
    },
    {
      "midi": 45,
      "hit": false,
      "t": 43523.75,
      "d": 340,
      "v": 63
    },
    {
      "midi": 57,
      "hit": false,
      "t": 43853.75,
      "d": 270,
      "v": 67
    },
    {
      "midi": 64,
      "hit": false,
      "t": 43853.75,
      "d": 400,
      "v": 66
    },
    {
      "midi": 66,
      "hit": false,
      "t": 43853.75,
      "d": 410,
      "v": 70
    },
    {
      "midi": 69,
      "hit": false,
      "t": 43863.75,
      "d": 390,
      "v": 66
    },
    {
      "midi": 50,
      "hit": false,
      "t": 43863.75,
      "d": 1010,
      "v": 63
    },
    {
      "midi": 62,
      "hit": false,
      "t": 44173.75,
      "d": 330,
      "v": 59
    },
    {
      "midi": 57,
      "hit": false,
      "t": 44473.75,
      "d": 160,
      "v": 63
    },
    {
      "midi": 66,
      "hit": false,
      "t": 44813.75,
      "d": 300,
      "v": 77
    },
    {
      "midi": 64,
      "hit": false,
      "t": 44813.75,
      "d": 310,
      "v": 75
    },
    {
      "midi": 69,
      "hit": false,
      "t": 44823.75,
      "d": 280,
      "v": 71
    },
    {
      "midi": 62,
      "hit": false,
      "t": 45103.75,
      "d": 270,
      "v": 73
    },
    {
      "midi": 50,
      "hit": false,
      "t": 45133.75,
      "d": 170,
      "v": 70
    },
    {
      "midi": 57,
      "hit": false,
      "t": 45403.75,
      "d": 110,
      "v": 70
    },
    {
      "midi": 40,
      "hit": false,
      "t": 45403.75,
      "d": 320,
      "v": 77
    },
    {
      "midi": 61,
      "hit": false,
      "t": 45713.75,
      "d": 390,
      "v": 67
    },
    {
      "midi": 42,
      "hit": false,
      "t": 45713.75,
      "d": 3250,
      "v": 95
    },
    {
      "midi": 57,
      "hit": false,
      "t": 45723.75,
      "d": 190,
      "v": 66
    },
    {
      "midi": 66,
      "hit": false,
      "t": 45723.75,
      "d": 570,
      "v": 69
    },
    {
      "midi": 69,
      "hit": false,
      "t": 45733.75,
      "d": 400,
      "v": 66
    },
    {
      "midi": 57,
      "hit": false,
      "t": 46043.75,
      "d": 360,
      "v": 60
    },
    {
      "midi": 61,
      "hit": false,
      "t": 46343.75,
      "d": 180,
      "v": 69
    },
    {
      "midi": 66,
      "hit": false,
      "t": 46673.75,
      "d": 420,
      "v": 77
    },
    {
      "midi": 69,
      "hit": false,
      "t": 46683.75,
      "d": 320,
      "v": 73
    },
    {
      "midi": 61,
      "hit": false,
      "t": 46983.75,
      "d": 350,
      "v": 63
    },
    {
      "midi": 57,
      "hit": false,
      "t": 47303.75,
      "d": 140,
      "v": 69
    },
    {
      "midi": 49,
      "hit": false,
      "t": 47333.75,
      "d": 1580,
      "v": 66
    },
    {
      "midi": 66,
      "hit": false,
      "t": 47643.75,
      "d": 370,
      "v": 69
    },
    {
      "midi": 57,
      "hit": false,
      "t": 47653.75,
      "d": 280,
      "v": 66
    },
    {
      "midi": 54,
      "hit": false,
      "t": 47653.75,
      "d": 910,
      "v": 63
    },
    {
      "midi": 69,
      "hit": false,
      "t": 47663.75,
      "d": 320,
      "v": 65
    },
    {
      "midi": 61,
      "hit": false,
      "t": 47943.75,
      "d": 310,
      "v": 62
    },
    {
      "midi": 57,
      "hit": false,
      "t": 48263.75,
      "d": 140,
      "v": 65
    },
    {
      "midi": 57,
      "hit": false,
      "t": 48593.75,
      "d": 230,
      "v": 75
    },
    {
      "midi": 66,
      "hit": false,
      "t": 48593.75,
      "d": 320,
      "v": 74
    },
    {
      "midi": 69,
      "hit": false,
      "t": 48603.75,
      "d": 250,
      "v": 73
    },
    {
      "midi": 61,
      "hit": false,
      "t": 48893.75,
      "d": 300,
      "v": 74
    },
    {
      "midi": 54,
      "hit": false,
      "t": 48923.75,
      "d": 160,
      "v": 67
    },
    {
      "midi": 49,
      "hit": false,
      "t": 49213.75,
      "d": 140,
      "v": 71
    },
    {
      "midi": 57,
      "hit": false,
      "t": 49223.75,
      "d": 120,
      "v": 73
    },
    {
      "midi": 59,
      "hit": false,
      "t": 49533.75,
      "d": 390,
      "v": 66
    },
    {
      "midi": 57,
      "hit": false,
      "t": 49543.75,
      "d": 180,
      "v": 57
    },
    {
      "midi": 62,
      "hit": false,
      "t": 49543.75,
      "d": 510,
      "v": 57
    },
    {
      "midi": 67,
      "hit": false,
      "t": 49553.75,
      "d": 320,
      "v": 63
    },
    {
      "midi": 50,
      "hit": false,
      "t": 49553.75,
      "d": 1300,
      "v": 62
    },
    {
      "midi": 43,
      "hit": false,
      "t": 49563.75,
      "d": 1300,
      "v": 57
    },
    {
      "midi": 57,
      "hit": false,
      "t": 49863.75,
      "d": 330,
      "v": 62
    },
    {
      "midi": 59,
      "hit": false,
      "t": 50173.75,
      "d": 280,
      "v": 67
    },
    {
      "midi": 67,
      "hit": false,
      "t": 50513.75,
      "d": 380,
      "v": 75
    },
    {
      "midi": 62,
      "hit": false,
      "t": 50523.75,
      "d": 380,
      "v": 71
    },
    {
      "midi": 59,
      "hit": false,
      "t": 50823.75,
      "d": 350,
      "v": 74
    },
    {
      "midi": 55,
      "hit": false,
      "t": 50833.75,
      "d": 300,
      "v": 57
    },
    {
      "midi": 57,
      "hit": false,
      "t": 51143.75,
      "d": 130,
      "v": 65
    },
    {
      "midi": 50,
      "hit": false,
      "t": 51143.75,
      "d": 170,
      "v": 57
    },
    {
      "midi": 61,
      "hit": false,
      "t": 51473.75,
      "d": 440,
      "v": 55
    },
    {
      "midi": 57,
      "hit": false,
      "t": 51483.75,
      "d": 200,
      "v": 57
    },
    {
      "midi": 59,
      "hit": false,
      "t": 51483.75,
      "d": 330,
      "v": 62
    },
    {
      "midi": 52,
      "hit": false,
      "t": 51483.75,
      "d": 1000,
      "v": 62
    },
    {
      "midi": 64,
      "hit": false,
      "t": 51493.75,
      "d": 440,
      "v": 56
    },
    {
      "midi": 45,
      "hit": false,
      "t": 51493.75,
      "d": 1260,
      "v": 55
    },
    {
      "midi": 57,
      "hit": false,
      "t": 51803.75,
      "d": 250,
      "v": 67
    },
    {
      "midi": 59,
      "hit": false,
      "t": 52103.75,
      "d": 40,
      "v": 65
    },
    {
      "midi": 64,
      "hit": false,
      "t": 52423.75,
      "d": 460,
      "v": 74
    },
    {
      "midi": 69,
      "hit": false,
      "t": 52423.75,
      "d": 590,
      "v": 71
    },
    {
      "midi": 57,
      "hit": false,
      "t": 52453.75,
      "d": 190,
      "v": 63
    },
    {
      "midi": 61,
      "hit": false,
      "t": 52733.75,
      "d": 360,
      "v": 70
    },
    {
      "midi": 52,
      "hit": false,
      "t": 52753.75,
      "d": 270,
      "v": 66
    },
    {
      "midi": 45,
      "hit": false,
      "t": 53053.75,
      "d": 100,
      "v": 67
    },
    {
      "midi": 59,
      "hit": false,
      "t": 53053.75,
      "d": 130,
      "v": 69
    },
    {
      "midi": 57,
      "hit": false,
      "t": 53373.75,
      "d": 180,
      "v": 70
    },
    {
      "midi": 62,
      "hit": false,
      "t": 53373.75,
      "d": 350,
      "v": 70
    },
    {
      "midi": 66,
      "hit": false,
      "t": 53373.75,
      "d": 610,
      "v": 77
    },
    {
      "midi": 50,
      "hit": false,
      "t": 53383.75,
      "d": 650,
      "v": 65
    },
    {
      "midi": 57,
      "hit": false,
      "t": 53683.75,
      "d": 440,
      "v": 69
    },
    {
      "midi": 38,
      "hit": false,
      "t": 53963.75,
      "d": 150,
      "v": 62
    },
    {
      "midi": 62,
      "hit": false,
      "t": 53973.75,
      "d": 70,
      "v": 65
    },
    {
      "midi": 61,
      "hit": false,
      "t": 54303.75,
      "d": 280,
      "v": 75
    },
    {
      "midi": 37,
      "hit": false,
      "t": 54303.75,
      "d": 610,
      "v": 71
    },
    {
      "midi": 64,
      "hit": false,
      "t": 54303.75,
      "d": 620,
      "v": 67
    },
    {
      "midi": 57,
      "hit": false,
      "t": 54323.75,
      "d": 180,
      "v": 63
    },
    {
      "midi": 49,
      "hit": false,
      "t": 54593.75,
      "d": 170,
      "v": 71
    },
    {
      "midi": 57,
      "hit": false,
      "t": 54593.75,
      "d": 260,
      "v": 51
    },
    {
      "midi": 61,
      "hit": false,
      "t": 54913.75,
      "d": 200,
      "v": 61
    },
    {
      "midi": 42,
      "hit": false,
      "t": 54923.75,
      "d": 320,
      "v": 67
    },
    {
      "midi": 54,
      "hit": false,
      "t": 55233.75,
      "d": 220,
      "v": 71
    },
    {
      "midi": 62,
      "hit": false,
      "t": 55233.75,
      "d": 590,
      "v": 67
    },
    {
      "midi": 35,
      "hit": false,
      "t": 55253.75,
      "d": 1300,
      "v": 73
    },
    {
      "midi": 54,
      "hit": false,
      "t": 55553.75,
      "d": 270,
      "v": 60
    },
    {
      "midi": 59,
      "hit": false,
      "t": 55863.75,
      "d": 280,
      "v": 66
    },
    {
      "midi": 66,
      "hit": false,
      "t": 56183.75,
      "d": 480,
      "v": 86
    },
    {
      "midi": 62,
      "hit": false,
      "t": 56193.75,
      "d": 380,
      "v": 73
    },
    {
      "midi": 59,
      "hit": false,
      "t": 56493.75,
      "d": 350,
      "v": 70
    },
    {
      "midi": 47,
      "hit": false,
      "t": 56503.75,
      "d": 660,
      "v": 74
    },
    {
      "midi": 54,
      "hit": false,
      "t": 56803.75,
      "d": 140,
      "v": 78
    },
    {
      "midi": 42,
      "hit": false,
      "t": 56813.75,
      "d": 330,
      "v": 71
    },
    {
      "midi": 40,
      "hit": false,
      "t": 57143.75,
      "d": 1180,
      "v": 70
    },
    {
      "midi": 55,
      "hit": false,
      "t": 57153.75,
      "d": 170,
      "v": 67
    },
    {
      "midi": 59,
      "hit": false,
      "t": 57153.75,
      "d": 350,
      "v": 69
    },
    {
      "midi": 64,
      "hit": false,
      "t": 57153.75,
      "d": 610,
      "v": 66
    },
    {
      "midi": 55,
      "hit": false,
      "t": 57463.75,
      "d": 330,
      "v": 57
    },
    {
      "midi": 59,
      "hit": false,
      "t": 57783.75,
      "d": 240,
      "v": 61
    },
    {
      "midi": 64,
      "hit": false,
      "t": 58103.75,
      "d": 400,
      "v": 73
    },
    {
      "midi": 67,
      "hit": false,
      "t": 58113.75,
      "d": 390,
      "v": 73
    },
    {
      "midi": 62,
      "hit": false,
      "t": 58113.75,
      "d": 400,
      "v": 70
    },
    {
      "midi": 59,
      "hit": false,
      "t": 58433.75,
      "d": 270,
      "v": 73
    },
    {
      "midi": 55,
      "hit": false,
      "t": 58743.75,
      "d": 100,
      "v": 65
    },
    {
      "midi": 40,
      "hit": false,
      "t": 58743.75,
      "d": 320,
      "v": 63
    },
    {
      "midi": 57,
      "hit": false,
      "t": 59053.75,
      "d": 360,
      "v": 67
    },
    {
      "midi": 61,
      "hit": false,
      "t": 59053.75,
      "d": 590,
      "v": 62
    },
    {
      "midi": 64,
      "hit": false,
      "t": 59063.75,
      "d": 300,
      "v": 62
    },
    {
      "midi": 45,
      "hit": false,
      "t": 59063.75,
      "d": 1230,
      "v": 57
    },
    {
      "midi": 33,
      "hit": false,
      "t": 59073.75,
      "d": 1570,
      "v": 56
    },
    {
      "midi": 52,
      "hit": false,
      "t": 59353.75,
      "d": 420,
      "v": 63
    },
    {
      "midi": 57,
      "hit": false,
      "t": 59693.75,
      "d": 310,
      "v": 57
    },
    {
      "midi": 61,
      "hit": false,
      "t": 60023.75,
      "d": 430,
      "v": 71
    },
    {
      "midi": 59,
      "hit": false,
      "t": 60033.75,
      "d": 390,
      "v": 78
    },
    {
      "midi": 64,
      "hit": false,
      "t": 60033.75,
      "d": 440,
      "v": 75
    },
    {
      "midi": 57,
      "hit": false,
      "t": 60333.75,
      "d": 380,
      "v": 71
    },
    {
      "midi": 52,
      "hit": false,
      "t": 60643.75,
      "d": 80,
      "v": 74
    },
    {
      "midi": 54,
      "hit": false,
      "t": 60973.75,
      "d": 190,
      "v": 70
    },
    {
      "midi": 57,
      "hit": false,
      "t": 60973.75,
      "d": 340,
      "v": 67
    },
    {
      "midi": 62,
      "hit": false,
      "t": 60983.75,
      "d": 590,
      "v": 60
    },
    {
      "midi": 38,
      "hit": false,
      "t": 60983.75,
      "d": 960,
      "v": 65
    },
    {
      "midi": 54,
      "hit": false,
      "t": 61293.75,
      "d": 220,
      "v": 62
    },
    {
      "midi": 57,
      "hit": false,
      "t": 61593.75,
      "d": 140,
      "v": 63
    },
    {
      "midi": 57,
      "hit": false,
      "t": 61923.75,
      "d": 350,
      "v": 66
    },
    {
      "midi": 61,
      "hit": false,
      "t": 61923.75,
      "d": 610,
      "v": 63
    },
    {
      "midi": 52,
      "hit": false,
      "t": 61933.75,
      "d": 170,
      "v": 71
    },
    {
      "midi": 37,
      "hit": false,
      "t": 61933.75,
      "d": 600,
      "v": 62
    },
    {
      "midi": 64,
      "hit": false,
      "t": 61933.75,
      "d": 600,
      "v": 69
    },
    {
      "midi": 52,
      "hit": false,
      "t": 62233.75,
      "d": 240,
      "v": 69
    },
    {
      "midi": 57,
      "hit": false,
      "t": 62523.75,
      "d": 40,
      "v": 61
    },
    {
      "midi": 42,
      "hit": false,
      "t": 62523.75,
      "d": 350,
      "v": 66
    },
    {
      "midi": 54,
      "hit": false,
      "t": 62863.75,
      "d": 190,
      "v": 69
    },
    {
      "midi": 59,
      "hit": false,
      "t": 62863.75,
      "d": 370,
      "v": 71
    },
    {
      "midi": 62,
      "hit": false,
      "t": 62863.75,
      "d": 640,
      "v": 59
    },
    {
      "midi": 35,
      "hit": false,
      "t": 62873.75,
      "d": 1330,
      "v": 73
    },
    {
      "midi": 54,
      "hit": false,
      "t": 63183.75,
      "d": 230,
      "v": 69
    },
    {
      "midi": 59,
      "hit": false,
      "t": 63503.75,
      "d": 200,
      "v": 70
    },
    {
      "midi": 66,
      "hit": false,
      "t": 63823.75,
      "d": 240,
      "v": 78
    },
    {
      "midi": 62,
      "hit": false,
      "t": 63833.75,
      "d": 320,
      "v": 70
    },
    {
      "midi": 59,
      "hit": false,
      "t": 64123.75,
      "d": 260,
      "v": 73
    },
    {
      "midi": 47,
      "hit": false,
      "t": 64143.75,
      "d": 70,
      "v": 67
    },
    {
      "midi": 54,
      "hit": false,
      "t": 64413.75,
      "d": 90,
      "v": 77
    },
    {
      "midi": 35,
      "hit": false,
      "t": 64443.75,
      "d": 350,
      "v": 74
    },
    {
      "midi": 52,
      "hit": false,
      "t": 64763.75,
      "d": 200,
      "v": 67
    },
    {
      "midi": 64,
      "hit": false,
      "t": 64763.75,
      "d": 340,
      "v": 70
    },
    {
      "midi": 57,
      "hit": false,
      "t": 64763.75,
      "d": 390,
      "v": 65
    },
    {
      "midi": 59,
      "hit": false,
      "t": 64763.75,
      "d": 600,
      "v": 67
    },
    {
      "midi": 40,
      "hit": false,
      "t": 64783.75,
      "d": 3350,
      "v": 71
    },
    {
      "midi": 28,
      "hit": false,
      "t": 64793.75,
      "d": 180,
      "v": 73
    },
    {
      "midi": 52,
      "hit": false,
      "t": 65093.75,
      "d": 370,
      "v": 75
    },
    {
      "midi": 57,
      "hit": false,
      "t": 65423.75,
      "d": 300,
      "v": 70
    },
    {
      "midi": 59,
      "hit": false,
      "t": 65753.75,
      "d": 390,
      "v": 79
    },
    {
      "midi": 64,
      "hit": false,
      "t": 65753.75,
      "d": 450,
      "v": 78
    },
    {
      "midi": 57,
      "hit": false,
      "t": 66073.75,
      "d": 300,
      "v": 79
    },
    {
      "midi": 59,
      "hit": false,
      "t": 66383.75,
      "d": 170,
      "v": 77
    },
    {
      "midi": 64,
      "hit": false,
      "t": 66383.75,
      "d": 180,
      "v": 73
    },
    {
      "midi": 47,
      "hit": false,
      "t": 66393.75,
      "d": 930,
      "v": 74
    },
    {
      "midi": 59,
      "hit": false,
      "t": 66703.75,
      "d": 420,
      "v": 70
    },
    {
      "midi": 64,
      "hit": false,
      "t": 66713.75,
      "d": 430,
      "v": 67
    },
    {
      "midi": 52,
      "hit": false,
      "t": 66723.75,
      "d": 320,
      "v": 73
    },
    {
      "midi": 56,
      "hit": false,
      "t": 67023.75,
      "d": 350,
      "v": 79
    },
    {
      "midi": 52,
      "hit": false,
      "t": 67333.75,
      "d": 160,
      "v": 78
    },
    {
      "midi": 59,
      "hit": false,
      "t": 67663.75,
      "d": 460,
      "v": 89
    },
    {
      "midi": 64,
      "hit": false,
      "t": 67673.75,
      "d": 620,
      "v": 75
    },
    {
      "midi": 56,
      "hit": false,
      "t": 67963.75,
      "d": 400,
      "v": 78
    },
    {
      "midi": 52,
      "hit": false,
      "t": 68283.75,
      "d": 100,
      "v": 77
    },
    {
      "midi": 47,
      "hit": false,
      "t": 68303.75,
      "d": 70,
      "v": 65
    },
    {
      "midi": 57,
      "hit": false,
      "t": 68603.75,
      "d": 380,
      "v": 66
    },
    {
      "midi": 55,
      "hit": false,
      "t": 68613.75,
      "d": 180,
      "v": 65
    },
    {
      "midi": 62,
      "hit": false,
      "t": 68613.75,
      "d": 570,
      "v": 61
    },
    {
      "midi": 64,
      "hit": false,
      "t": 68623.75,
      "d": 380,
      "v": 65
    },
    {
      "midi": 59,
      "hit": false,
      "t": 68623.75,
      "d": 490,
      "v": 63
    },
    {
      "midi": 45,
      "hit": false,
      "t": 68633.75,
      "d": 1160,
      "v": 66
    },
    {
      "midi": 33,
      "hit": false,
      "t": 68643.75,
      "d": 3290,
      "v": 69
    },
    {
      "midi": 55,
      "hit": false,
      "t": 68953.75,
      "d": 370,
      "v": 62
    },
    {
      "midi": 57,
      "hit": false,
      "t": 69273.75,
      "d": 210,
      "v": 70
    },
    {
      "midi": 62,
      "hit": false,
      "t": 69623.75,
      "d": 500,
      "v": 73
    },
    {
      "midi": 64,
      "hit": false,
      "t": 69623.75,
      "d": 510,
      "v": 73
    },
    {
      "midi": 59,
      "hit": false,
      "t": 69633.75,
      "d": 520,
      "v": 79
    },
    {
      "midi": 57,
      "hit": false,
      "t": 69943.75,
      "d": 380,
      "v": 75
    },
    {
      "midi": 45,
      "hit": false,
      "t": 69993.75,
      "d": 260,
      "v": 69
    },
    {
      "midi": 55,
      "hit": false,
      "t": 70273.75,
      "d": 100,
      "v": 73
    },
    {
      "midi": 40,
      "hit": false,
      "t": 70283.75,
      "d": 340,
      "v": 70
    },
    {
      "midi": 61,
      "hit": false,
      "t": 70593.75,
      "d": 420,
      "v": 69
    },
    {
      "midi": 52,
      "hit": false,
      "t": 70603.75,
      "d": 170,
      "v": 71
    },
    {
      "midi": 57,
      "hit": false,
      "t": 70603.75,
      "d": 380,
      "v": 66
    },
    {
      "midi": 64,
      "hit": false,
      "t": 70613.75,
      "d": 370,
      "v": 67
    },
    {
      "midi": 45,
      "hit": false,
      "t": 70613.75,
      "d": 950,
      "v": 67
    },
    {
      "midi": 52,
      "hit": false,
      "t": 70933.75,
      "d": 410,
      "v": 69
    },
    {
      "midi": 57,
      "hit": false,
      "t": 71213.75,
      "d": 360,
      "v": 71
    },
    {
      "midi": 61,
      "hit": false,
      "t": 71573.75,
      "d": 410,
      "v": 78
    },
    {
      "midi": 64,
      "hit": false,
      "t": 71583.75,
      "d": 510,
      "v": 78
    },
    {
      "midi": 57,
      "hit": false,
      "t": 71873.75,
      "d": 300,
      "v": 78
    },
    {
      "midi": 45,
      "hit": false,
      "t": 71903.75,
      "d": 60,
      "v": 70
    },
    {
      "midi": 52,
      "hit": false,
      "t": 72193.75,
      "d": 80,
      "v": 75
    },
    {
      "midi": 33,
      "hit": false,
      "t": 72193.75,
      "d": 390,
      "v": 74
    },
    {
      "midi": 66,
      "hit": false,
      "t": 72543.75,
      "d": 550,
      "v": 89
    },
    {
      "midi": 57,
      "hit": false,
      "t": 72553.75,
      "d": 190,
      "v": 79
    },
    {
      "midi": 26,
      "hit": false,
      "t": 72553.75,
      "d": 210,
      "v": 79
    },
    {
      "midi": 62,
      "hit": false,
      "t": 72553.75,
      "d": 370,
      "v": 75
    },
    {
      "midi": 38,
      "hit": false,
      "t": 72553.75,
      "d": 2930,
      "v": 86
    },
    {
      "midi": 57,
      "hit": false,
      "t": 72863.75,
      "d": 300,
      "v": 65
    },
    {
      "midi": 62,
      "hit": false,
      "t": 73193.75,
      "d": 180,
      "v": 77
    },
    {
      "midi": 69,
      "hit": false,
      "t": 73523.75,
      "d": 220,
      "v": 83
    },
    {
      "midi": 66,
      "hit": false,
      "t": 73523.75,
      "d": 250,
      "v": 95
    },
    {
      "midi": 62,
      "hit": false,
      "t": 73823.75,
      "d": 130,
      "v": 78
    },
    {
      "midi": 57,
      "hit": false,
      "t": 74103.75,
      "d": 110,
      "v": 79
    },
    {
      "midi": 45,
      "hit": false,
      "t": 74133.75,
      "d": 360,
      "v": 78
    },
    {
      "midi": 58,
      "hit": false,
      "t": 74443.75,
      "d": 370,
      "v": 79
    },
    {
      "midi": 55,
      "hit": false,
      "t": 74453.75,
      "d": 200,
      "v": 77
    },
    {
      "midi": 67,
      "hit": false,
      "t": 74453.75,
      "d": 350,
      "v": 79
    },
    {
      "midi": 62,
      "hit": false,
      "t": 74453.75,
      "d": 500,
      "v": 73
    },
    {
      "midi": 50,
      "hit": false,
      "t": 74473.75,
      "d": 880,
      "v": 75
    },
    {
      "midi": 55,
      "hit": false,
      "t": 74763.75,
      "d": 380,
      "v": 71
    },
    {
      "midi": 58,
      "hit": false,
      "t": 75073.75,
      "d": 190,
      "v": 86
    },
    {
      "midi": 67,
      "hit": false,
      "t": 75403.75,
      "d": 460,
      "v": 83
    },
    {
      "midi": 62,
      "hit": false,
      "t": 75413.75,
      "d": 430,
      "v": 83
    },
    {
      "midi": 64,
      "hit": false,
      "t": 75743.75,
      "d": 210,
      "v": 65
    },
    {
      "midi": 62,
      "hit": false,
      "t": 75973.75,
      "d": 130,
      "v": 60
    },
    {
      "midi": 55,
      "hit": false,
      "t": 75983.75,
      "d": 80,
      "v": 79
    },
    {
      "midi": 58,
      "hit": false,
      "t": 75983.75,
      "d": 80,
      "v": 89
    },
    {
      "midi": 33,
      "hit": false,
      "t": 76043.75,
      "d": 200,
      "v": 42
    },
    {
      "midi": 66,
      "hit": false,
      "t": 76313.75,
      "d": 610,
      "v": 79
    },
    {
      "midi": 38,
      "hit": false,
      "t": 76313.75,
      "d": 3040,
      "v": 75
    },
    {
      "midi": 57,
      "hit": false,
      "t": 76323.75,
      "d": 180,
      "v": 75
    },
    {
      "midi": 26,
      "hit": false,
      "t": 76323.75,
      "d": 260,
      "v": 70
    },
    {
      "midi": 62,
      "hit": false,
      "t": 76323.75,
      "d": 340,
      "v": 71
    },
    {
      "midi": 57,
      "hit": false,
      "t": 76643.75,
      "d": 320,
      "v": 73
    },
    {
      "midi": 62,
      "hit": false,
      "t": 76943.75,
      "d": 250,
      "v": 63
    },
    {
      "midi": 66,
      "hit": false,
      "t": 77273.75,
      "d": 350,
      "v": 79
    },
    {
      "midi": 64,
      "hit": false,
      "t": 77283.75,
      "d": 350,
      "v": 78
    },
    {
      "midi": 69,
      "hit": false,
      "t": 77283.75,
      "d": 360,
      "v": 77
    },
    {
      "midi": 62,
      "hit": false,
      "t": 77573.75,
      "d": 380,
      "v": 70
    },
    {
      "midi": 57,
      "hit": false,
      "t": 77903.75,
      "d": 140,
      "v": 75
    },
    {
      "midi": 45,
      "hit": false,
      "t": 77933.75,
      "d": 1340,
      "v": 71
    },
    {
      "midi": 66,
      "hit": false,
      "t": 78243.75,
      "d": 590,
      "v": 75
    },
    {
      "midi": 57,
      "hit": false,
      "t": 78253.75,
      "d": 150,
      "v": 69
    },
    {
      "midi": 62,
      "hit": false,
      "t": 78253.75,
      "d": 350,
      "v": 69
    },
    {
      "midi": 64,
      "hit": false,
      "t": 78253.75,
      "d": 600,
      "v": 67
    },
    {
      "midi": 50,
      "hit": false,
      "t": 78263.75,
      "d": 960,
      "v": 62
    },
    {
      "midi": 57,
      "hit": false,
      "t": 78573.75,
      "d": 290,
      "v": 74
    },
    {
      "midi": 62,
      "hit": false,
      "t": 78883.75,
      "d": 170,
      "v": 70
    },
    {
      "midi": 69,
      "hit": false,
      "t": 79213.75,
      "d": 230,
      "v": 79
    },
    {
      "midi": 64,
      "hit": false,
      "t": 79213.75,
      "d": 280,
      "v": 79
    },
    {
      "midi": 66,
      "hit": false,
      "t": 79213.75,
      "d": 290,
      "v": 89
    },
    {
      "midi": 62,
      "hit": false,
      "t": 79503.75,
      "d": 130,
      "v": 74
    },
    {
      "midi": 57,
      "hit": false,
      "t": 79803.75,
      "d": 120,
      "v": 74
    },
    {
      "midi": 33,
      "hit": false,
      "t": 79813.75,
      "d": 330,
      "v": 77
    },
    {
      "midi": 66,
      "hit": false,
      "t": 80143.75,
      "d": 270,
      "v": 86
    },
    {
      "midi": 54,
      "hit": false,
      "t": 80153.75,
      "d": 160,
      "v": 79
    },
    {
      "midi": 62,
      "hit": false,
      "t": 80153.75,
      "d": 370,
      "v": 66
    },
    {
      "midi": 57,
      "hit": false,
      "t": 80163.75,
      "d": 340,
      "v": 70
    },
    {
      "midi": 26,
      "hit": false,
      "t": 80163.75,
      "d": 1160,
      "v": 78
    },
    {
      "midi": 38,
      "hit": false,
      "t": 80163.75,
      "d": 1220,
      "v": 78
    },
    {
      "midi": 54,
      "hit": false,
      "t": 80473.75,
      "d": 220,
      "v": 78
    },
    {
      "midi": 57,
      "hit": false,
      "t": 80773.75,
      "d": 120,
      "v": 74
    },
    {
      "midi": 54,
      "hit": false,
      "t": 81113.75,
      "d": 190,
      "v": 99
    },
    {
      "midi": 62,
      "hit": false,
      "t": 81113.75,
      "d": 320,
      "v": 71
    },
    {
      "midi": 66,
      "hit": false,
      "t": 81123.75,
      "d": 210,
      "v": 86
    },
    {
      "midi": 57,
      "hit": false,
      "t": 81423.75,
      "d": 230,
      "v": 74
    },
    {
      "midi": 28,
      "hit": false,
      "t": 81713.75,
      "d": 120,
      "v": 79
    },
    {
      "midi": 40,
      "hit": false,
      "t": 81713.75,
      "d": 130,
      "v": 78
    },
    {
      "midi": 54,
      "hit": false,
      "t": 81723.75,
      "d": 120,
      "v": 92
    },
    {
      "midi": 61,
      "hit": false,
      "t": 82053.75,
      "d": 410,
      "v": 75
    },
    {
      "midi": 66,
      "hit": false,
      "t": 82053.75,
      "d": 570,
      "v": 79
    },
    {
      "midi": 54,
      "hit": false,
      "t": 82063.75,
      "d": 190,
      "v": 86
    },
    {
      "midi": 58,
      "hit": false,
      "t": 82063.75,
      "d": 350,
      "v": 78
    },
    {
      "midi": 42,
      "hit": false,
      "t": 82073.75,
      "d": 1290,
      "v": 86
    },
    {
      "midi": 30,
      "hit": false,
      "t": 82083.75,
      "d": 1130,
      "v": 77
    },
    {
      "midi": 54,
      "hit": false,
      "t": 82383.75,
      "d": 240,
      "v": 77
    },
    {
      "midi": 58,
      "hit": false,
      "t": 82673.75,
      "d": 180,
      "v": 86
    },
    {
      "midi": 66,
      "hit": false,
      "t": 82983.75,
      "d": 240,
      "v": 86
    },
    {
      "midi": 54,
      "hit": false,
      "t": 82993.75,
      "d": 180,
      "v": 92
    },
    {
      "midi": 61,
      "hit": false,
      "t": 82993.75,
      "d": 330,
      "v": 77
    },
    {
      "midi": 58,
      "hit": false,
      "t": 83293.75,
      "d": 310,
      "v": 86
    },
    {
      "midi": 54,
      "hit": false,
      "t": 83583.75,
      "d": 110,
      "v": 75
    },
    {
      "midi": 42,
      "hit": false,
      "t": 83603.75,
      "d": 300,
      "v": 79
    },
    {
      "midi": 51,
      "hit": false,
      "t": 83903.75,
      "d": 180,
      "v": 78
    },
    {
      "midi": 59,
      "hit": false,
      "t": 83903.75,
      "d": 330,
      "v": 74
    },
    {
      "midi": 63,
      "hit": false,
      "t": 83913.75,
      "d": 610,
      "v": 77
    },
    {
      "midi": 35,
      "hit": false,
      "t": 83923.75,
      "d": 570,
      "v": 73
    },
    {
      "midi": 47,
      "hit": false,
      "t": 83923.75,
      "d": 620,
      "v": 75
    },
    {
      "midi": 51,
      "hit": false,
      "t": 84223.75,
      "d": 290,
      "v": 74
    },
    {
      "midi": 59,
      "hit": false,
      "t": 84533.75,
      "d": 160,
      "v": 77
    },
    {
      "midi": 52,
      "hit": false,
      "t": 84863.75,
      "d": 150,
      "v": 83
    },
    {
      "midi": 59,
      "hit": false,
      "t": 84863.75,
      "d": 270,
      "v": 86
    },
    {
      "midi": 64,
      "hit": false,
      "t": 84863.75,
      "d": 510,
      "v": 77
    },
    {
      "midi": 37,
      "hit": false,
      "t": 84873.75,
      "d": 470,
      "v": 86
    },
    {
      "midi": 49,
      "hit": false,
      "t": 84873.75,
      "d": 470,
      "v": 89
    },
    {
      "midi": 52,
      "hit": false,
      "t": 85163.75,
      "d": 210,
      "v": 73
    },
    {
      "midi": 59,
      "hit": false,
      "t": 85483.75,
      "d": 70,
      "v": 77
    },
    {
      "midi": 37,
      "hit": false,
      "t": 85493.75,
      "d": 60,
      "v": 78
    },
    {
      "midi": 49,
      "hit": false,
      "t": 85493.75,
      "d": 70,
      "v": 77
    },
    {
      "midi": 54,
      "hit": false,
      "t": 85803.75,
      "d": 180,
      "v": 86
    },
    {
      "midi": 66,
      "hit": false,
      "t": 85803.75,
      "d": 480,
      "v": 77
    },
    {
      "midi": 59,
      "hit": false,
      "t": 85813.75,
      "d": 580,
      "v": 78
    },
    {
      "midi": 51,
      "hit": false,
      "t": 85823.75,
      "d": 350,
      "v": 79
    },
    {
      "midi": 39,
      "hit": false,
      "t": 85823.75,
      "d": 390,
      "v": 79
    },
    {
      "midi": 54,
      "hit": false,
      "t": 86133.75,
      "d": 230,
      "v": 95
    },
    {
      "midi": 57,
      "hit": false,
      "t": 86423.75,
      "d": 170,
      "v": 79
    },
    {
      "midi": 42,
      "hit": false,
      "t": 86453.75,
      "d": 260,
      "v": 70
    },
    {
      "midi": 54,
      "hit": false,
      "t": 86723.75,
      "d": 180,
      "v": 74
    },
    {
      "midi": 63,
      "hit": false,
      "t": 86733.75,
      "d": 300,
      "v": 69
    },
    {
      "midi": 57,
      "hit": false,
      "t": 86733.75,
      "d": 320,
      "v": 74
    },
    {
      "midi": 59,
      "hit": false,
      "t": 86733.75,
      "d": 410,
      "v": 74
    },
    {
      "midi": 66,
      "hit": false,
      "t": 86743.75,
      "d": 260,
      "v": 70
    },
    {
      "midi": 47,
      "hit": false,
      "t": 86753.75,
      "d": 650,
      "v": 83
    },
    {
      "midi": 54,
      "hit": false,
      "t": 87043.75,
      "d": 250,
      "v": 86
    },
    {
      "midi": 57,
      "hit": false,
      "t": 87333.75,
      "d": 150,
      "v": 78
    },
    {
      "midi": 35,
      "hit": false,
      "t": 87343.75,
      "d": 80,
      "v": 74
    },
    {
      "midi": 57,
      "hit": false,
      "t": 87663.75,
      "d": 350,
      "v": 75
    },
    {
      "midi": 55,
      "hit": false,
      "t": 87673.75,
      "d": 180,
      "v": 73
    },
    {
      "midi": 59,
      "hit": false,
      "t": 87673.75,
      "d": 390,
      "v": 75
    },
    {
      "midi": 62,
      "hit": false,
      "t": 87673.75,
      "d": 470,
      "v": 71
    },
    {
      "midi": 43,
      "hit": false,
      "t": 87683.75,
      "d": 1120,
      "v": 73
    },
    {
      "midi": 31,
      "hit": false,
      "t": 87693.75,
      "d": 1350,
      "v": 75
    },
    {
      "midi": 55,
      "hit": false,
      "t": 87983.75,
      "d": 350,
      "v": 70
    },
    {
      "midi": 57,
      "hit": false,
      "t": 88303.75,
      "d": 320,
      "v": 74
    },
    {
      "midi": 59,
      "hit": false,
      "t": 88623.75,
      "d": 340,
      "v": 92
    },
    {
      "midi": 62,
      "hit": false,
      "t": 88623.75,
      "d": 600,
      "v": 77
    },
    {
      "midi": 57,
      "hit": false,
      "t": 88913.75,
      "d": 310,
      "v": 79
    },
    {
      "midi": 43,
      "hit": false,
      "t": 88953.75,
      "d": 220,
      "v": 63
    },
    {
      "midi": 55,
      "hit": false,
      "t": 89213.75,
      "d": 100,
      "v": 74
    },
    {
      "midi": 40,
      "hit": false,
      "t": 89213.75,
      "d": 350,
      "v": 79
    },
    {
      "midi": 52,
      "hit": false,
      "t": 89563.75,
      "d": 190,
      "v": 78
    },
    {
      "midi": 57,
      "hit": false,
      "t": 89563.75,
      "d": 370,
      "v": 74
    },
    {
      "midi": 61,
      "hit": false,
      "t": 89563.75,
      "d": 620,
      "v": 74
    },
    {
      "midi": 33,
      "hit": false,
      "t": 89573.75,
      "d": 1170,
      "v": 73
    },
    {
      "midi": 45,
      "hit": false,
      "t": 89573.75,
      "d": 1250,
      "v": 75
    },
    {
      "midi": 52,
      "hit": false,
      "t": 89873.75,
      "d": 360,
      "v": 71
    },
    {
      "midi": 57,
      "hit": false,
      "t": 90193.75,
      "d": 250,
      "v": 69
    },
    {
      "midi": 61,
      "hit": false,
      "t": 90503.75,
      "d": 410,
      "v": 74
    },
    {
      "midi": 59,
      "hit": false,
      "t": 90513.75,
      "d": 380,
      "v": 78
    },
    {
      "midi": 64,
      "hit": false,
      "t": 90513.75,
      "d": 380,
      "v": 75
    },
    {
      "midi": 57,
      "hit": false,
      "t": 90823.75,
      "d": 270,
      "v": 78
    },
    {
      "midi": 52,
      "hit": false,
      "t": 91123.75,
      "d": 160,
      "v": 78
    },
    {
      "midi": 45,
      "hit": false,
      "t": 91143.75,
      "d": 320,
      "v": 73
    },
    {
      "midi": 57,
      "hit": false,
      "t": 91443.75,
      "d": 510,
      "v": 83
    },
    {
      "midi": 62,
      "hit": false,
      "t": 91443.75,
      "d": 570,
      "v": 74
    },
    {
      "midi": 50,
      "hit": false,
      "t": 91453.75,
      "d": 420,
      "v": 67
    },
    {
      "midi": 38,
      "hit": false,
      "t": 91463.75,
      "d": 460,
      "v": 69
    },
    {
      "midi": 54,
      "hit": false,
      "t": 91763.75,
      "d": 320,
      "v": 71
    },
    {
      "midi": 52,
      "hit": false,
      "t": 92073.75,
      "d": 120,
      "v": 86
    },
    {
      "midi": 52,
      "hit": false,
      "t": 92393.75,
      "d": 280,
      "v": 89
    },
    {
      "midi": 61,
      "hit": false,
      "t": 92393.75,
      "d": 620,
      "v": 78
    },
    {
      "midi": 49,
      "hit": false,
      "t": 92403.75,
      "d": 310,
      "v": 78
    },
    {
      "midi": 37,
      "hit": false,
      "t": 92403.75,
      "d": 490,
      "v": 77
    },
    {
      "midi": 57,
      "hit": false,
      "t": 92683.75,
      "d": 290,
      "v": 71
    },
    {
      "midi": 52,
      "hit": false,
      "t": 92983.75,
      "d": 100,
      "v": 77
    },
    {
      "midi": 42,
      "hit": false,
      "t": 93003.75,
      "d": 330,
      "v": 78
    },
    {
      "midi": 51,
      "hit": false,
      "t": 93323.75,
      "d": 180,
      "v": 66
    },
    {
      "midi": 57,
      "hit": false,
      "t": 93323.75,
      "d": 320,
      "v": 69
    },
    {
      "midi": 59,
      "hit": false,
      "t": 93333.75,
      "d": 640,
      "v": 70
    },
    {
      "midi": 47,
      "hit": false,
      "t": 93343.75,
      "d": 1080,
      "v": 77
    },
    {
      "midi": 35,
      "hit": false,
      "t": 93343.75,
      "d": 1610,
      "v": 75
    },
    {
      "midi": 51,
      "hit": false,
      "t": 93663.75,
      "d": 250,
      "v": 74
    },
    {
      "midi": 57,
      "hit": false,
      "t": 93983.75,
      "d": 300,
      "v": 73
    },
    {
      "midi": 59,
      "hit": false,
      "t": 94333.75,
      "d": 360,
      "v": 83
    },
    {
      "midi": 63,
      "hit": false,
      "t": 94333.75,
      "d": 520,
      "v": 86
    },
    {
      "midi": 57,
      "hit": false,
      "t": 94633.75,
      "d": 320,
      "v": 73
    },
    {
      "midi": 47,
      "hit": false,
      "t": 94673.75,
      "d": 1640,
      "v": 75
    },
    {
      "midi": 51,
      "hit": false,
      "t": 94953.75,
      "d": 120,
      "v": 71
    },
    {
      "midi": 42,
      "hit": false,
      "t": 94963.75,
      "d": 330,
      "v": 79
    },
    {
      "midi": 55,
      "hit": false,
      "t": 95293.75,
      "d": 360,
      "v": 71
    },
    {
      "midi": 59,
      "hit": false,
      "t": 95293.75,
      "d": 670,
      "v": 74
    },
    {
      "midi": 40,
      "hit": false,
      "t": 95293.75,
      "d": 1470,
      "v": 74
    },
    {
      "midi": 52,
      "hit": false,
      "t": 95303.75,
      "d": 180,
      "v": 74
    },
    {
      "midi": 52,
      "hit": false,
      "t": 95613.75,
      "d": 330,
      "v": 77
    },
    {
      "midi": 55,
      "hit": false,
      "t": 95923.75,
      "d": 270,
      "v": 69
    },
    {
      "midi": 64,
      "hit": false,
      "t": 96243.75,
      "d": 500,
      "v": 74
    },
    {
      "midi": 62,
      "hit": false,
      "t": 96243.75,
      "d": 550,
      "v": 70
    },
    {
      "midi": 59,
      "hit": false,
      "t": 96253.75,
      "d": 510,
      "v": 78
    },
    {
      "midi": 55,
      "hit": false,
      "t": 96543.75,
      "d": 370,
      "v": 74
    },
    {
      "midi": 52,
      "hit": false,
      "t": 96853.75,
      "d": 160,
      "v": 79
    },
    {
      "midi": 40,
      "hit": false,
      "t": 96873.75,
      "d": 350,
      "v": 74
    },
    {
      "midi": 50,
      "hit": false,
      "t": 97193.75,
      "d": 170,
      "v": 67
    },
    {
      "midi": 55,
      "hit": false,
      "t": 97193.75,
      "d": 300,
      "v": 67
    },
    {
      "midi": 59,
      "hit": false,
      "t": 97193.75,
      "d": 580,
      "v": 71
    },
    {
      "midi": 62,
      "hit": false,
      "t": 97203.75,
      "d": 570,
      "v": 70
    },
    {
      "midi": 57,
      "hit": false,
      "t": 97203.75,
      "d": 590,
      "v": 67
    },
    {
      "midi": 45,
      "hit": false,
      "t": 97213.75,
      "d": 500,
      "v": 62
    },
    {
      "midi": 33,
      "hit": false,
      "t": 97223.75,
      "d": 1090,
      "v": 63
    },
    {
      "midi": 50,
      "hit": false,
      "t": 97513.75,
      "d": 290,
      "v": 59
    },
    {
      "midi": 55,
      "hit": false,
      "t": 97813.75,
      "d": 150,
      "v": 65
    },
    {
      "midi": 52,
      "hit": false,
      "t": 98133.75,
      "d": 140,
      "v": 83
    },
    {
      "midi": 57,
      "hit": false,
      "t": 98133.75,
      "d": 240,
      "v": 77
    },
    {
      "midi": 61,
      "hit": false,
      "t": 98133.75,
      "d": 330,
      "v": 75
    },
    {
      "midi": 45,
      "hit": false,
      "t": 98153.75,
      "d": 100,
      "v": 70
    },
    {
      "midi": 52,
      "hit": false,
      "t": 98443.75,
      "d": 200,
      "v": 74
    },
    {
      "midi": 57,
      "hit": false,
      "t": 98753.75,
      "d": 130,
      "v": 78
    },
    {
      "midi": 33,
      "hit": false,
      "t": 98773.75,
      "d": 310,
      "v": 67
    },
    {
      "midi": 57,
      "hit": false,
      "t": 99073.75,
      "d": 390,
      "v": 75
    },
    {
      "midi": 50,
      "hit": false,
      "t": 99083.75,
      "d": 160,
      "v": 77
    },
    {
      "midi": 54,
      "hit": false,
      "t": 99083.75,
      "d": 270,
      "v": 75
    },
    {
      "midi": 62,
      "hit": false,
      "t": 99083.75,
      "d": 420,
      "v": 75
    },
    {
      "midi": 26,
      "hit": false,
      "t": 99093.75,
      "d": 170,
      "v": 74
    },
    {
      "midi": 38,
      "hit": false,
      "t": 99093.75,
      "d": 250,
      "v": 77
    },
    {
      "midi": 50,
      "hit": false,
      "t": 99383.75,
      "d": 230,
      "v": 63
    },
    {
      "midi": 54,
      "hit": false,
      "t": 99693.75,
      "d": 60,
      "v": 70
    },
    {
      "midi": 66,
      "hit": false,
      "t": 100043.75,
      "d": 570,
      "v": 89
    },
    {
      "midi": 57,
      "hit": false,
      "t": 100053.75,
      "d": 140,
      "v": 89
    },
    {
      "midi": 62,
      "hit": false,
      "t": 100053.75,
      "d": 250,
      "v": 79
    },
    {
      "midi": 50,
      "hit": false,
      "t": 100053.75,
      "d": 670,
      "v": 77
    },
    {
      "midi": 57,
      "hit": false,
      "t": 100373.75,
      "d": 370,
      "v": 86
    },
    {
      "midi": 62,
      "hit": false,
      "t": 100663.75,
      "d": 110,
      "v": 78
    },
    {
      "midi": 38,
      "hit": false,
      "t": 100693.75,
      "d": 100,
      "v": 79
    },
    {
      "midi": 61,
      "hit": false,
      "t": 100993.75,
      "d": 280,
      "v": 89
    },
    {
      "midi": 64,
      "hit": false,
      "t": 100993.75,
      "d": 570,
      "v": 79
    },
    {
      "midi": 69,
      "hit": false,
      "t": 100993.75,
      "d": 640,
      "v": 79
    },
    {
      "midi": 57,
      "hit": false,
      "t": 101003.75,
      "d": 180,
      "v": 92
    },
    {
      "midi": 47,
      "hit": false,
      "t": 101003.75,
      "d": 640,
      "v": 95
    },
    {
      "midi": 57,
      "hit": false,
      "t": 101313.75,
      "d": 370,
      "v": 89
    },
    {
      "midi": 42,
      "hit": false,
      "t": 101343.75,
      "d": 260,
      "v": 69
    },
    {
      "midi": 61,
      "hit": false,
      "t": 101623.75,
      "d": 80,
      "v": 79
    },
    {
      "midi": 35,
      "hit": false,
      "t": 101623.75,
      "d": 470,
      "v": 86
    },
    {
      "midi": 57,
      "hit": false,
      "t": 101943.75,
      "d": 170,
      "v": 89
    },
    {
      "midi": 59,
      "hit": false,
      "t": 101943.75,
      "d": 280,
      "v": 86
    },
    {
      "midi": 66,
      "hit": false,
      "t": 101943.75,
      "d": 540,
      "v": 86
    },
    {
      "midi": 63,
      "hit": false,
      "t": 101943.75,
      "d": 550,
      "v": 89
    },
    {
      "midi": 47,
      "hit": false,
      "t": 101963.75,
      "d": 260,
      "v": 99
    },
    {
      "midi": 35,
      "hit": false,
      "t": 102253.75,
      "d": 90,
      "v": 89
    },
    {
      "midi": 57,
      "hit": false,
      "t": 102253.75,
      "d": 170,
      "v": 79
    },
    {
      "midi": 59,
      "hit": false,
      "t": 102573.75,
      "d": 120,
      "v": 83
    },
    {
      "midi": 35,
      "hit": false,
      "t": 102573.75,
      "d": 370,
      "v": 86
    },
    {
      "midi": 56,
      "hit": false,
      "t": 102913.75,
      "d": 230,
      "v": 86
    },
    {
      "midi": 68,
      "hit": false,
      "t": 102913.75,
      "d": 490,
      "v": 89
    },
    {
      "midi": 59,
      "hit": false,
      "t": 102923.75,
      "d": 380,
      "v": 74
    },
    {
      "midi": 64,
      "hit": false,
      "t": 102923.75,
      "d": 380,
      "v": 70
    },
    {
      "midi": 40,
      "hit": false,
      "t": 102933.75,
      "d": 1350,
      "v": 95
    },
    {
      "midi": 28,
      "hit": false,
      "t": 102933.75,
      "d": 3110,
      "v": 99
    },
    {
      "midi": 56,
      "hit": false,
      "t": 103253.75,
      "d": 350,
      "v": 77
    },
    {
      "midi": 59,
      "hit": false,
      "t": 103573.75,
      "d": 350,
      "v": 70
    },
    {
      "midi": 64,
      "hit": false,
      "t": 103903.75,
      "d": 370,
      "v": 74
    },
    {
      "midi": 68,
      "hit": false,
      "t": 103903.75,
      "d": 370,
      "v": 86
    },
    {
      "midi": 59,
      "hit": false,
      "t": 104203.75,
      "d": 350,
      "v": 67
    },
    {
      "midi": 56,
      "hit": false,
      "t": 104523.75,
      "d": 140,
      "v": 86
    },
    {
      "midi": 35,
      "hit": false,
      "t": 104543.75,
      "d": 280,
      "v": 79
    },
    {
      "midi": 56,
      "hit": false,
      "t": 104863.75,
      "d": 210,
      "v": 71
    },
    {
      "midi": 68,
      "hit": false,
      "t": 104863.75,
      "d": 330,
      "v": 77
    },
    {
      "midi": 64,
      "hit": false,
      "t": 104863.75,
      "d": 420,
      "v": 66
    },
    {
      "midi": 59,
      "hit": false,
      "t": 104873.75,
      "d": 380,
      "v": 71
    },
    {
      "midi": 40,
      "hit": false,
      "t": 104873.75,
      "d": 1170,
      "v": 74
    },
    {
      "midi": 56,
      "hit": false,
      "t": 105193.75,
      "d": 290,
      "v": 78
    },
    {
      "midi": 59,
      "hit": false,
      "t": 105483.75,
      "d": 150,
      "v": 75
    },
    {
      "midi": 56,
      "hit": false,
      "t": 105813.75,
      "d": 220,
      "v": 95
    },
    {
      "midi": 64,
      "hit": false,
      "t": 105813.75,
      "d": 310,
      "v": 73
    },
    {
      "midi": 68,
      "hit": false,
      "t": 105813.75,
      "d": 350,
      "v": 86
    },
    {
      "midi": 59,
      "hit": false,
      "t": 106113.75,
      "d": 230,
      "v": 77
    },
    {
      "midi": 40,
      "hit": false,
      "t": 106133.75,
      "d": 70,
      "v": 83
    },
    {
      "midi": 28,
      "hit": false,
      "t": 106143.75,
      "d": 60,
      "v": 78
    },
    {
      "midi": 56,
      "hit": false,
      "t": 106393.75,
      "d": 100,
      "v": 86
    },
    {
      "midi": 30,
      "hit": false,
      "t": 106433.75,
      "d": 50,
      "v": 86
    },
    {
      "midi": 42,
      "hit": false,
      "t": 106433.75,
      "d": 50,
      "v": 86
    },
    {
      "midi": 56,
      "hit": false,
      "t": 106733.75,
      "d": 210,
      "v": 78
    },
    {
      "midi": 68,
      "hit": false,
      "t": 106733.75,
      "d": 380,
      "v": 78
    },
    {
      "midi": 59,
      "hit": false,
      "t": 106743.75,
      "d": 410,
      "v": 77
    },
    {
      "midi": 63,
      "hit": false,
      "t": 106743.75,
      "d": 480,
      "v": 71
    },
    {
      "midi": 44,
      "hit": false,
      "t": 106763.75,
      "d": 1400,
      "v": 92
    },
    {
      "midi": 32,
      "hit": false,
      "t": 106763.75,
      "d": 3230,
      "v": 86
    },
    {
      "midi": 56,
      "hit": false,
      "t": 107083.75,
      "d": 340,
      "v": 71
    },
    {
      "midi": 59,
      "hit": false,
      "t": 107403.75,
      "d": 260,
      "v": 74
    },
    {
      "midi": 68,
      "hit": false,
      "t": 107713.75,
      "d": 240,
      "v": 89
    },
    {
      "midi": 63,
      "hit": false,
      "t": 107723.75,
      "d": 330,
      "v": 79
    },
    {
      "midi": 59,
      "hit": false,
      "t": 108033.75,
      "d": 310,
      "v": 77
    },
    {
      "midi": 56,
      "hit": false,
      "t": 108333.75,
      "d": 130,
      "v": 89
    },
    {
      "midi": 39,
      "hit": false,
      "t": 108343.75,
      "d": 320,
      "v": 71
    },
    {
      "midi": 56,
      "hit": false,
      "t": 108663.75,
      "d": 170,
      "v": 77
    },
    {
      "midi": 68,
      "hit": false,
      "t": 108663.75,
      "d": 320,
      "v": 78
    },
    {
      "midi": 44,
      "hit": false,
      "t": 108663.75,
      "d": 1060,
      "v": 74
    },
    {
      "midi": 59,
      "hit": false,
      "t": 108673.75,
      "d": 370,
      "v": 73
    },
    {
      "midi": 63,
      "hit": false,
      "t": 108673.75,
      "d": 380,
      "v": 70
    },
    {
      "midi": 56,
      "hit": false,
      "t": 108993.75,
      "d": 330,
      "v": 89
    },
    {
      "midi": 59,
      "hit": false,
      "t": 109313.75,
      "d": 170,
      "v": 77
    },
    {
      "midi": 56,
      "hit": false,
      "t": 109613.75,
      "d": 150,
      "v": 86
    },
    {
      "midi": 68,
      "hit": false,
      "t": 109623.75,
      "d": 200,
      "v": 78
    },
    {
      "midi": 63,
      "hit": false,
      "t": 109623.75,
      "d": 300,
      "v": 77
    },
    {
      "midi": 59,
      "hit": false,
      "t": 109923.75,
      "d": 260,
      "v": 77
    },
    {
      "midi": 44,
      "hit": false,
      "t": 109933.75,
      "d": 160,
      "v": 75
    },
    {
      "midi": 56,
      "hit": false,
      "t": 110213.75,
      "d": 80,
      "v": 78
    },
    {
      "midi": 40,
      "hit": false,
      "t": 110223.75,
      "d": 360,
      "v": 74
    },
    {
      "midi": 52,
      "hit": false,
      "t": 110553.75,
      "d": 190,
      "v": 79
    },
    {
      "midi": 64,
      "hit": false,
      "t": 110553.75,
      "d": 340,
      "v": 74
    },
    {
      "midi": 57,
      "hit": false,
      "t": 110553.75,
      "d": 350,
      "v": 73
    },
    {
      "midi": 61,
      "hit": false,
      "t": 110553.75,
      "d": 430,
      "v": 69
    },
    {
      "midi": 59,
      "hit": false,
      "t": 110563.75,
      "d": 410,
      "v": 70
    },
    {
      "midi": 45,
      "hit": false,
      "t": 110573.75,
      "d": 1080,
      "v": 78
    },
    {
      "midi": 33,
      "hit": false,
      "t": 110573.75,
      "d": 1380,
      "v": 71
    },
    {
      "midi": 52,
      "hit": false,
      "t": 110883.75,
      "d": 310,
      "v": 70
    },
    {
      "midi": 57,
      "hit": false,
      "t": 111213.75,
      "d": 170,
      "v": 78
    },
    {
      "midi": 59,
      "hit": false,
      "t": 111523.75,
      "d": 420,
      "v": 83
    },
    {
      "midi": 61,
      "hit": false,
      "t": 111523.75,
      "d": 450,
      "v": 78
    },
    {
      "midi": 64,
      "hit": false,
      "t": 111523.75,
      "d": 490,
      "v": 75
    },
    {
      "midi": 57,
      "hit": false,
      "t": 111813.75,
      "d": 320,
      "v": 79
    },
    {
      "midi": 45,
      "hit": false,
      "t": 111823.75,
      "d": 290,
      "v": 77
    },
    {
      "midi": 52,
      "hit": false,
      "t": 112133.75,
      "d": 120,
      "v": 83
    },
    {
      "midi": 42,
      "hit": false,
      "t": 112133.75,
      "d": 370,
      "v": 86
    },
    {
      "midi": 57,
      "hit": false,
      "t": 112483.75,
      "d": 370,
      "v": 75
    },
    {
      "midi": 63,
      "hit": false,
      "t": 112483.75,
      "d": 550,
      "v": 78
    },
    {
      "midi": 51,
      "hit": false,
      "t": 112493.75,
      "d": 180,
      "v": 74
    },
    {
      "midi": 47,
      "hit": false,
      "t": 112493.75,
      "d": 1020,
      "v": 77
    },
    {
      "midi": 35,
      "hit": false,
      "t": 112503.75,
      "d": 1270,
      "v": 77
    },
    {
      "midi": 51,
      "hit": false,
      "t": 112803.75,
      "d": 230,
      "v": 74
    },
    {
      "midi": 57,
      "hit": false,
      "t": 113083.75,
      "d": 190,
      "v": 70
    },
    {
      "midi": 63,
      "hit": false,
      "t": 113413.75,
      "d": 250,
      "v": 89
    },
    {
      "midi": 59,
      "hit": false,
      "t": 113423.75,
      "d": 280,
      "v": 86
    },
    {
      "midi": 57,
      "hit": false,
      "t": 113703.75,
      "d": 290,
      "v": 75
    },
    {
      "midi": 47,
      "hit": false,
      "t": 113733.75,
      "d": 350,
      "v": 79
    },
    {
      "midi": 51,
      "hit": false,
      "t": 114023.75,
      "d": 110,
      "v": 69
    },
    {
      "midi": 42,
      "hit": false,
      "t": 114033.75,
      "d": 300,
      "v": 79
    },
    {
      "midi": 52,
      "hit": false,
      "t": 114353.75,
      "d": 170,
      "v": 83
    },
    {
      "midi": 56,
      "hit": false,
      "t": 114353.75,
      "d": 320,
      "v": 75
    },
    {
      "midi": 59,
      "hit": false,
      "t": 114363.75,
      "d": 620,
      "v": 71
    },
    {
      "midi": 40,
      "hit": false,
      "t": 114363.75,
      "d": 630,
      "v": 74
    },
    {
      "midi": 47,
      "hit": false,
      "t": 114363.75,
      "d": 1300,
      "v": 73
    },
    {
      "midi": 64,
      "hit": false,
      "t": 114373.75,
      "d": 550,
      "v": 74
    },
    {
      "midi": 52,
      "hit": false,
      "t": 114693.75,
      "d": 220,
      "v": 78
    },
    {
      "midi": 56,
      "hit": false,
      "t": 114983.75,
      "d": 130,
      "v": 86
    },
    {
      "midi": 54,
      "hit": false,
      "t": 115303.75,
      "d": 190,
      "v": 77
    },
    {
      "midi": 59,
      "hit": false,
      "t": 115303.75,
      "d": 300,
      "v": 79
    },
    {
      "midi": 39,
      "hit": false,
      "t": 115303.75,
      "d": 410,
      "v": 78
    },
    {
      "midi": 63,
      "hit": false,
      "t": 115313.75,
      "d": 560,
      "v": 77
    },
    {
      "midi": 54,
      "hit": false,
      "t": 115613.75,
      "d": 180,
      "v": 79
    },
    {
      "midi": 59,
      "hit": false,
      "t": 115923.75,
      "d": 200,
      "v": 79
    },
    {
      "midi": 44,
      "hit": false,
      "t": 115923.75,
      "d": 330,
      "v": 86
    },
    {
      "midi": 61,
      "hit": false,
      "t": 116233.75,
      "d": 650,
      "v": 77
    },
    {
      "midi": 52,
      "hit": false,
      "t": 116243.75,
      "d": 200,
      "v": 83
    },
    {
      "midi": 56,
      "hit": false,
      "t": 116243.75,
      "d": 360,
      "v": 79
    },
    {
      "midi": 59,
      "hit": false,
      "t": 116243.75,
      "d": 620,
      "v": 77
    },
    {
      "midi": 37,
      "hit": false,
      "t": 116263.75,
      "d": 1270,
      "v": 78
    },
    {
      "midi": 52,
      "hit": false,
      "t": 116563.75,
      "d": 290,
      "v": 83
    },
    {
      "midi": 56,
      "hit": false,
      "t": 116863.75,
      "d": 180,
      "v": 86
    },
    {
      "midi": 61,
      "hit": false,
      "t": 117183.75,
      "d": 350,
      "v": 78
    },
    {
      "midi": 64,
      "hit": false,
      "t": 117193.75,
      "d": 320,
      "v": 78
    },
    {
      "midi": 59,
      "hit": false,
      "t": 117193.75,
      "d": 390,
      "v": 86
    },
    {
      "midi": 56,
      "hit": false,
      "t": 117483.75,
      "d": 310,
      "v": 92
    },
    {
      "midi": 49,
      "hit": false,
      "t": 117503.75,
      "d": 1360,
      "v": 89
    },
    {
      "midi": 52,
      "hit": false,
      "t": 117803.75,
      "d": 140,
      "v": 86
    },
    {
      "midi": 44,
      "hit": false,
      "t": 117813.75,
      "d": 300,
      "v": 77
    },
    {
      "midi": 61,
      "hit": false,
      "t": 118123.75,
      "d": 620,
      "v": 74
    },
    {
      "midi": 52,
      "hit": false,
      "t": 118133.75,
      "d": 190,
      "v": 83
    },
    {
      "midi": 57,
      "hit": false,
      "t": 118133.75,
      "d": 420,
      "v": 79
    },
    {
      "midi": 42,
      "hit": false,
      "t": 118143.75,
      "d": 1240,
      "v": 71
    },
    {
      "midi": 52,
      "hit": false,
      "t": 118453.75,
      "d": 270,
      "v": 79
    },
    {
      "midi": 57,
      "hit": false,
      "t": 118753.75,
      "d": 160,
      "v": 69
    },
    {
      "midi": 61,
      "hit": false,
      "t": 119063.75,
      "d": 430,
      "v": 78
    },
    {
      "midi": 59,
      "hit": false,
      "t": 119073.75,
      "d": 360,
      "v": 89
    },
    {
      "midi": 64,
      "hit": false,
      "t": 119073.75,
      "d": 430,
      "v": 77
    },
    {
      "midi": 57,
      "hit": false,
      "t": 119373.75,
      "d": 390,
      "v": 77
    },
    {
      "midi": 49,
      "hit": false,
      "t": 119393.75,
      "d": 120,
      "v": 69
    },
    {
      "midi": 52,
      "hit": false,
      "t": 119683.75,
      "d": 100,
      "v": 77
    },
    {
      "midi": 42,
      "hit": false,
      "t": 119683.75,
      "d": 330,
      "v": 75
    },
    {
      "midi": 59,
      "hit": false,
      "t": 120013.75,
      "d": 300,
      "v": 75
    },
    {
      "midi": 54,
      "hit": false,
      "t": 120023.75,
      "d": 210,
      "v": 71
    },
    {
      "midi": 63,
      "hit": false,
      "t": 120023.75,
      "d": 350,
      "v": 77
    },
    {
      "midi": 47,
      "hit": false,
      "t": 120033.75,
      "d": 1050,
      "v": 78
    },
    {
      "midi": 35,
      "hit": false,
      "t": 120033.75,
      "d": 1290,
      "v": 78
    },
    {
      "midi": 54,
      "hit": false,
      "t": 120333.75,
      "d": 220,
      "v": 75
    },
    {
      "midi": 59,
      "hit": false,
      "t": 120623.75,
      "d": 160,
      "v": 66
    },
    {
      "midi": 63,
      "hit": false,
      "t": 120953.75,
      "d": 340,
      "v": 77
    },
    {
      "midi": 66,
      "hit": false,
      "t": 120963.75,
      "d": 340,
      "v": 79
    },
    {
      "midi": 59,
      "hit": false,
      "t": 121263.75,
      "d": 290,
      "v": 74
    },
    {
      "midi": 47,
      "hit": false,
      "t": 121273.75,
      "d": 330,
      "v": 79
    },
    {
      "midi": 54,
      "hit": false,
      "t": 121553.75,
      "d": 110,
      "v": 78
    },
    {
      "midi": 42,
      "hit": false,
      "t": 121563.75,
      "d": 300,
      "v": 78
    },
    {
      "midi": 56,
      "hit": false,
      "t": 121883.75,
      "d": 140,
      "v": 77
    },
    {
      "midi": 68,
      "hit": false,
      "t": 121883.75,
      "d": 410,
      "v": 86
    },
    {
      "midi": 40,
      "hit": false,
      "t": 121883.75,
      "d": 540,
      "v": 75
    },
    {
      "midi": 47,
      "hit": false,
      "t": 121883.75,
      "d": 1240,
      "v": 71
    },
    {
      "midi": 59,
      "hit": false,
      "t": 121893.75,
      "d": 330,
      "v": 73
    },
    {
      "midi": 64,
      "hit": false,
      "t": 121893.75,
      "d": 480,
      "v": 66
    },
    {
      "midi": 56,
      "hit": false,
      "t": 122193.75,
      "d": 310,
      "v": 78
    },
    {
      "midi": 59,
      "hit": false,
      "t": 122473.75,
      "d": 140,
      "v": 73
    },
    {
      "midi": 54,
      "hit": false,
      "t": 122783.75,
      "d": 180,
      "v": 78
    },
    {
      "midi": 59,
      "hit": false,
      "t": 122783.75,
      "d": 230,
      "v": 74
    },
    {
      "midi": 63,
      "hit": false,
      "t": 122783.75,
      "d": 290,
      "v": 75
    },
    {
      "midi": 39,
      "hit": false,
      "t": 122783.75,
      "d": 390,
      "v": 75
    },
    {
      "midi": 66,
      "hit": false,
      "t": 122793.75,
      "d": 250,
      "v": 77
    },
    {
      "midi": 54,
      "hit": false,
      "t": 123093.75,
      "d": 160,
      "v": 78
    },
    {
      "midi": 59,
      "hit": false,
      "t": 123393.75,
      "d": 70,
      "v": 75
    },
    {
      "midi": 44,
      "hit": false,
      "t": 123403.75,
      "d": 340,
      "v": 79
    },
    {
      "midi": 52,
      "hit": false,
      "t": 123723.75,
      "d": 190,
      "v": 78
    },
    {
      "midi": 56,
      "hit": false,
      "t": 123723.75,
      "d": 320,
      "v": 75
    },
    {
      "midi": 61,
      "hit": false,
      "t": 123723.75,
      "d": 510,
      "v": 70
    },
    {
      "midi": 64,
      "hit": false,
      "t": 123733.75,
      "d": 470,
      "v": 73
    },
    {
      "midi": 59,
      "hit": false,
      "t": 123733.75,
      "d": 540,
      "v": 74
    },
    {
      "midi": 49,
      "hit": false,
      "t": 123733.75,
      "d": 690,
      "v": 74
    },
    {
      "midi": 37,
      "hit": false,
      "t": 123743.75,
      "d": 1500,
      "v": 74
    },
    {
      "midi": 52,
      "hit": false,
      "t": 124043.75,
      "d": 330,
      "v": 73
    },
    {
      "midi": 56,
      "hit": false,
      "t": 124343.75,
      "d": 150,
      "v": 86
    },
    {
      "midi": 61,
      "hit": false,
      "t": 124663.75,
      "d": 350,
      "v": 77
    },
    {
      "midi": 52,
      "hit": false,
      "t": 124673.75,
      "d": 250,
      "v": 89
    },
    {
      "midi": 59,
      "hit": false,
      "t": 124673.75,
      "d": 370,
      "v": 86
    },
    {
      "midi": 64,
      "hit": false,
      "t": 124683.75,
      "d": 360,
      "v": 77
    },
    {
      "midi": 49,
      "hit": false,
      "t": 124703.75,
      "d": 140,
      "v": 86
    },
    {
      "midi": 49,
      "hit": false,
      "t": 124983.75,
      "d": 240,
      "v": 74
    },
    {
      "midi": 56,
      "hit": false,
      "t": 124983.75,
      "d": 260,
      "v": 92
    },
    {
      "midi": 52,
      "hit": false,
      "t": 125293.75,
      "d": 130,
      "v": 86
    },
    {
      "midi": 44,
      "hit": false,
      "t": 125293.75,
      "d": 250,
      "v": 86
    },
    {
      "midi": 54,
      "hit": false,
      "t": 125603.75,
      "d": 290,
      "v": 77
    },
    {
      "midi": 61,
      "hit": false,
      "t": 125603.75,
      "d": 360,
      "v": 70
    },
    {
      "midi": 52,
      "hit": false,
      "t": 125613.75,
      "d": 170,
      "v": 79
    },
    {
      "midi": 64,
      "hit": false,
      "t": 125613.75,
      "d": 240,
      "v": 78
    },
    {
      "midi": 59,
      "hit": false,
      "t": 125613.75,
      "d": 370,
      "v": 78
    },
    {
      "midi": 42,
      "hit": false,
      "t": 125623.75,
      "d": 940,
      "v": 89
    },
    {
      "midi": 52,
      "hit": false,
      "t": 125923.75,
      "d": 330,
      "v": 77
    },
    {
      "midi": 54,
      "hit": false,
      "t": 126223.75,
      "d": 130,
      "v": 75
    },
    {
      "midi": 52,
      "hit": false,
      "t": 126543.75,
      "d": 160,
      "v": 83
    },
    {
      "midi": 54,
      "hit": false,
      "t": 126543.75,
      "d": 240,
      "v": 75
    },
    {
      "midi": 59,
      "hit": false,
      "t": 126543.75,
      "d": 250,
      "v": 79
    },
    {
      "midi": 61,
      "hit": false,
      "t": 126543.75,
      "d": 300,
      "v": 74
    },
    {
      "midi": 64,
      "hit": false,
      "t": 126553.75,
      "d": 220,
      "v": 74
    },
    {
      "midi": 52,
      "hit": false,
      "t": 126863.75,
      "d": 220,
      "v": 86
    },
    {
      "midi": 42,
      "hit": false,
      "t": 126893.75,
      "d": 300,
      "v": 77
    },
    {
      "midi": 54,
      "hit": false,
      "t": 127173.75,
      "d": 140,
      "v": 86
    },
    {
      "midi": 37,
      "hit": false,
      "t": 127183.75,
      "d": 320,
      "v": 78
    },
    {
      "midi": 54,
      "hit": false,
      "t": 127503.75,
      "d": 320,
      "v": 75
    },
    {
      "midi": 58,
      "hit": false,
      "t": 127503.75,
      "d": 400,
      "v": 77
    },
    {
      "midi": 61,
      "hit": false,
      "t": 127503.75,
      "d": 430,
      "v": 74
    },
    {
      "midi": 52,
      "hit": false,
      "t": 127513.75,
      "d": 170,
      "v": 79
    },
    {
      "midi": 64,
      "hit": false,
      "t": 127513.75,
      "d": 440,
      "v": 74
    },
    {
      "midi": 42,
      "hit": false,
      "t": 127513.75,
      "d": 940,
      "v": 86
    },
    {
      "midi": 30,
      "hit": false,
      "t": 127523.75,
      "d": 1270,
      "v": 75
    },
    {
      "midi": 52,
      "hit": false,
      "t": 127803.75,
      "d": 300,
      "v": 78
    },
    {
      "midi": 54,
      "hit": false,
      "t": 128113.75,
      "d": 160,
      "v": 86
    },
    {
      "midi": 61,
      "hit": false,
      "t": 128433.75,
      "d": 330,
      "v": 86
    },
    {
      "midi": 58,
      "hit": false,
      "t": 128433.75,
      "d": 390,
      "v": 92
    },
    {
      "midi": 64,
      "hit": false,
      "t": 128443.75,
      "d": 190,
      "v": 75
    },
    {
      "midi": 54,
      "hit": false,
      "t": 128733.75,
      "d": 270,
      "v": 89
    },
    {
      "midi": 42,
      "hit": false,
      "t": 128763.75,
      "d": 160,
      "v": 89
    },
    {
      "midi": 52,
      "hit": false,
      "t": 129043.75,
      "d": 130,
      "v": 79
    },
    {
      "midi": 37,
      "hit": false,
      "t": 129043.75,
      "d": 280,
      "v": 89
    },
    {
      "midi": 52,
      "hit": false,
      "t": 129373.75,
      "d": 190,
      "v": 86
    },
    {
      "midi": 61,
      "hit": false,
      "t": 129373.75,
      "d": 570,
      "v": 74
    },
    {
      "midi": 57,
      "hit": false,
      "t": 129383.75,
      "d": 370,
      "v": 78
    },
    {
      "midi": 64,
      "hit": false,
      "t": 129383.75,
      "d": 440,
      "v": 77
    },
    {
      "midi": 35,
      "hit": false,
      "t": 129383.75,
      "d": 1630,
      "v": 95
    },
    {
      "midi": 52,
      "hit": false,
      "t": 129693.75,
      "d": 350,
      "v": 83
    },
    {
      "midi": 57,
      "hit": false,
      "t": 129983.75,
      "d": 150,
      "v": 75
    },
    {
      "midi": 61,
      "hit": false,
      "t": 130313.75,
      "d": 580,
      "v": 71
    },
    {
      "midi": 52,
      "hit": false,
      "t": 130323.75,
      "d": 160,
      "v": 89
    },
    {
      "midi": 57,
      "hit": false,
      "t": 130323.75,
      "d": 250,
      "v": 83
    },
    {
      "midi": 64,
      "hit": false,
      "t": 130323.75,
      "d": 460,
      "v": 79
    },
    {
      "midi": 52,
      "hit": false,
      "t": 130643.75,
      "d": 190,
      "v": 89
    },
    {
      "midi": 57,
      "hit": false,
      "t": 130933.75,
      "d": 140,
      "v": 79
    },
    {
      "midi": 42,
      "hit": false,
      "t": 130933.75,
      "d": 320,
      "v": 75
    },
    {
      "midi": 57,
      "hit": false,
      "t": 131263.75,
      "d": 280,
      "v": 73
    },
    {
      "midi": 51,
      "hit": false,
      "t": 131273.75,
      "d": 180,
      "v": 78
    },
    {
      "midi": 63,
      "hit": false,
      "t": 131273.75,
      "d": 460,
      "v": 79
    },
    {
      "midi": 59,
      "hit": false,
      "t": 131273.75,
      "d": 490,
      "v": 77
    },
    {
      "midi": 47,
      "hit": false,
      "t": 131273.75,
      "d": 640,
      "v": 86
    },
    {
      "midi": 35,
      "hit": false,
      "t": 131283.75,
      "d": 1120,
      "v": 79
    },
    {
      "midi": 51,
      "hit": false,
      "t": 131583.75,
      "d": 210,
      "v": 77
    },
    {
      "midi": 57,
      "hit": false,
      "t": 131893.75,
      "d": 150,
      "v": 75
    },
    {
      "midi": 51,
      "hit": false,
      "t": 132213.75,
      "d": 160,
      "v": 77
    },
    {
      "midi": 63,
      "hit": false,
      "t": 132223.75,
      "d": 200,
      "v": 78
    },
    {
      "midi": 57,
      "hit": false,
      "t": 132223.75,
      "d": 210,
      "v": 73
    },
    {
      "midi": 59,
      "hit": false,
      "t": 132223.75,
      "d": 260,
      "v": 75
    },
    {
      "midi": 47,
      "hit": false,
      "t": 132253.75,
      "d": 90,
      "v": 83
    },
    {
      "midi": 51,
      "hit": false,
      "t": 132533.75,
      "d": 150,
      "v": 92
    },
    {
      "midi": 63,
      "hit": false,
      "t": 132603.75,
      "d": 30,
      "v": 23
    },
    {
      "midi": 57,
      "hit": false,
      "t": 132833.75,
      "d": 100,
      "v": 77
    },
    {
      "midi": 40,
      "hit": false,
      "t": 132833.75,
      "d": 120,
      "v": 78
    },
    {
      "midi": 35,
      "hit": false,
      "t": 133023.75,
      "d": 160,
      "v": 74
    },
    {
      "midi": 52,
      "hit": false,
      "t": 133203.75,
      "d": 140,
      "v": 92
    },
    {
      "midi": 54,
      "hit": false,
      "t": 133203.75,
      "d": 230,
      "v": 89
    },
    {
      "midi": 59,
      "hit": false,
      "t": 133203.75,
      "d": 230,
      "v": 89
    },
    {
      "midi": 64,
      "hit": false,
      "t": 133203.75,
      "d": 300,
      "v": 89
    },
    {
      "midi": 40,
      "hit": false,
      "t": 133213.75,
      "d": 180,
      "v": 99
    },
    {
      "midi": 28,
      "hit": false,
      "t": 133223.75,
      "d": 100,
      "v": 102
    },
    {
      "midi": 52,
      "hit": false,
      "t": 133493.75,
      "d": 110,
      "v": 67
    },
    {
      "midi": 56,
      "hit": false,
      "t": 133823.75,
      "d": 110,
      "v": 99
    },
    {
      "midi": 68,
      "hit": false,
      "t": 134153.75,
      "d": 200,
      "v": 95
    },
    {
      "midi": 59,
      "hit": false,
      "t": 134163.75,
      "d": 230,
      "v": 83
    },
    {
      "midi": 52,
      "hit": false,
      "t": 134163.75,
      "d": 240,
      "v": 95
    },
    {
      "midi": 56,
      "hit": false,
      "t": 134173.75,
      "d": 120,
      "v": 95
    },
    {
      "midi": 56,
      "hit": false,
      "t": 134483.75,
      "d": 120,
      "v": 95
    },
    {
      "midi": 64,
      "hit": false,
      "t": 134483.75,
      "d": 230,
      "v": 73
    },
    {
      "midi": 56,
      "hit": false,
      "t": 134783.75,
      "d": 100,
      "v": 89
    },
    {
      "midi": 59,
      "hit": false,
      "t": 134793.75,
      "d": 90,
      "v": 73
    },
    {
      "midi": 47,
      "hit": false,
      "t": 134793.75,
      "d": 130,
      "v": 89
    },
    {
      "midi": 66,
      "hit": false,
      "t": 135113.75,
      "d": 480,
      "v": 89
    },
    {
      "midi": 60,
      "hit": false,
      "t": 135123.75,
      "d": 330,
      "v": 83
    },
    {
      "midi": 64,
      "hit": false,
      "t": 135123.75,
      "d": 480,
      "v": 78
    },
    {
      "midi": 57,
      "hit": false,
      "t": 135133.75,
      "d": 190,
      "v": 86
    },
    {
      "midi": 52,
      "hit": false,
      "t": 135133.75,
      "d": 460,
      "v": 79
    },
    {
      "midi": 48,
      "hit": false,
      "t": 135133.75,
      "d": 970,
      "v": 83
    },
    {
      "midi": 40,
      "hit": false,
      "t": 135133.75,
      "d": 1080,
      "v": 74
    },
    {
      "midi": 57,
      "hit": false,
      "t": 135443.75,
      "d": 210,
      "v": 89
    },
    {
      "midi": 60,
      "hit": false,
      "t": 135743.75,
      "d": 130,
      "v": 83
    },
    {
      "midi": 66,
      "hit": false,
      "t": 136073.75,
      "d": 370,
      "v": 89
    },
    {
      "midi": 69,
      "hit": false,
      "t": 136083.75,
      "d": 280,
      "v": 83
    },
    {
      "midi": 64,
      "hit": false,
      "t": 136083.75,
      "d": 400,
      "v": 83
    },
    {
      "midi": 52,
      "hit": false,
      "t": 136093.75,
      "d": 80,
      "v": 86
    },
    {
      "midi": 60,
      "hit": false,
      "t": 136383.75,
      "d": 260,
      "v": 92
    },
    {
      "midi": 57,
      "hit": false,
      "t": 136673.75,
      "d": 100,
      "v": 78
    },
    {
      "midi": 40,
      "hit": false,
      "t": 136683.75,
      "d": 110,
      "v": 77
    },
    {
      "midi": 35,
      "hit": false,
      "t": 136833.75,
      "d": 180,
      "v": 71
    },
    {
      "midi": 56,
      "hit": false,
      "t": 137013.75,
      "d": 170,
      "v": 95
    },
    {
      "midi": 68,
      "hit": false,
      "t": 137013.75,
      "d": 320,
      "v": 92
    },
    {
      "midi": 59,
      "hit": false,
      "t": 137023.75,
      "d": 300,
      "v": 77
    },
    {
      "midi": 64,
      "hit": false,
      "t": 137023.75,
      "d": 300,
      "v": 70
    },
    {
      "midi": 28,
      "hit": false,
      "t": 137033.75,
      "d": 180,
      "v": 95
    },
    {
      "midi": 40,
      "hit": false,
      "t": 137033.75,
      "d": 2680,
      "v": 89
    },
    {
      "midi": 56,
      "hit": false,
      "t": 137343.75,
      "d": 240,
      "v": 79
    },
    {
      "midi": 59,
      "hit": false,
      "t": 137633.75,
      "d": 150,
      "v": 74
    },
    {
      "midi": 56,
      "hit": false,
      "t": 137983.75,
      "d": 150,
      "v": 86
    },
    {
      "midi": 59,
      "hit": false,
      "t": 137983.75,
      "d": 230,
      "v": 79
    },
    {
      "midi": 64,
      "hit": false,
      "t": 137993.75,
      "d": 230,
      "v": 73
    },
    {
      "midi": 56,
      "hit": false,
      "t": 138313.75,
      "d": 150,
      "v": 108
    },
    {
      "midi": 59,
      "hit": false,
      "t": 138623.75,
      "d": 120,
      "v": 78
    },
    {
      "midi": 47,
      "hit": false,
      "t": 138653.75,
      "d": 1010,
      "v": 77
    },
    {
      "midi": 56,
      "hit": false,
      "t": 138953.75,
      "d": 150,
      "v": 79
    },
    {
      "midi": 68,
      "hit": false,
      "t": 138953.75,
      "d": 180,
      "v": 89
    },
    {
      "midi": 59,
      "hit": false,
      "t": 138953.75,
      "d": 220,
      "v": 75
    },
    {
      "midi": 64,
      "hit": false,
      "t": 138963.75,
      "d": 190,
      "v": 69
    },
    {
      "midi": 52,
      "hit": false,
      "t": 138983.75,
      "d": 550,
      "v": 83
    },
    {
      "midi": 56,
      "hit": false,
      "t": 139283.75,
      "d": 160,
      "v": 105
    },
    {
      "midi": 59,
      "hit": false,
      "t": 139583.75,
      "d": 140,
      "v": 78
    },
    {
      "midi": 64,
      "hit": false,
      "t": 139903.75,
      "d": 250,
      "v": 73
    },
    {
      "midi": 56,
      "hit": false,
      "t": 139913.75,
      "d": 140,
      "v": 105
    },
    {
      "midi": 68,
      "hit": false,
      "t": 139913.75,
      "d": 170,
      "v": 92
    },
    {
      "midi": 59,
      "hit": false,
      "t": 140203.75,
      "d": 150,
      "v": 75
    },
    {
      "midi": 56,
      "hit": false,
      "t": 140523.75,
      "d": 80,
      "v": 86
    },
    {
      "midi": 40,
      "hit": false,
      "t": 140543.75,
      "d": 120,
      "v": 77
    },
    {
      "midi": 35,
      "hit": false,
      "t": 140693.75,
      "d": 170,
      "v": 71
    },
    {
      "midi": 56,
      "hit": false,
      "t": 140873.75,
      "d": 300,
      "v": 79
    },
    {
      "midi": 52,
      "hit": false,
      "t": 140883.75,
      "d": 150,
      "v": 86
    },
    {
      "midi": 64,
      "hit": false,
      "t": 140883.75,
      "d": 300,
      "v": 77
    },
    {
      "midi": 59,
      "hit": false,
      "t": 140883.75,
      "d": 380,
      "v": 79
    },
    {
      "midi": 28,
      "hit": false,
      "t": 140893.75,
      "d": 1060,
      "v": 83
    },
    {
      "midi": 40,
      "hit": false,
      "t": 140893.75,
      "d": 1060,
      "v": 83
    },
    {
      "midi": 52,
      "hit": false,
      "t": 141193.75,
      "d": 270,
      "v": 83
    },
    {
      "midi": 56,
      "hit": false,
      "t": 141503.75,
      "d": 120,
      "v": 86
    },
    {
      "midi": 52,
      "hit": false,
      "t": 141833.75,
      "d": 140,
      "v": 99
    },
    {
      "midi": 56,
      "hit": false,
      "t": 141833.75,
      "d": 180,
      "v": 95
    },
    {
      "midi": 59,
      "hit": false,
      "t": 141833.75,
      "d": 420,
      "v": 92
    },
    {
      "midi": 64,
      "hit": false,
      "t": 141833.75,
      "d": 580,
      "v": 83
    },
    {
      "midi": 52,
      "hit": false,
      "t": 142133.75,
      "d": 240,
      "v": 92
    },
    {
      "midi": 56,
      "hit": false,
      "t": 142423.75,
      "d": 110,
      "v": 92
    },
    {
      "midi": 30,
      "hit": false,
      "t": 142433.75,
      "d": 80,
      "v": 79
    },
    {
      "midi": 42,
      "hit": false,
      "t": 142433.75,
      "d": 90,
      "v": 92
    },
    {
      "midi": 60,
      "hit": false,
      "t": 142763.75,
      "d": 410,
      "v": 79
    },
    {
      "midi": 63,
      "hit": false,
      "t": 142773.75,
      "d": 490,
      "v": 79
    },
    {
      "midi": 56,
      "hit": false,
      "t": 142793.75,
      "d": 90,
      "v": 71
    },
    {
      "midi": 44,
      "hit": false,
      "t": 142793.75,
      "d": 1190,
      "v": 99
    },
    {
      "midi": 32,
      "hit": false,
      "t": 142793.75,
      "d": 1530,
      "v": 95
    },
    {
      "midi": 56,
      "hit": false,
      "t": 143093.75,
      "d": 240,
      "v": 89
    },
    {
      "midi": 60,
      "hit": false,
      "t": 143403.75,
      "d": 170,
      "v": 79
    },
    {
      "midi": 56,
      "hit": false,
      "t": 143753.75,
      "d": 160,
      "v": 89
    },
    {
      "midi": 60,
      "hit": false,
      "t": 143753.75,
      "d": 250,
      "v": 83
    },
    {
      "midi": 63,
      "hit": false,
      "t": 143753.75,
      "d": 560,
      "v": 89
    },
    {
      "midi": 56,
      "hit": false,
      "t": 144053.75,
      "d": 180,
      "v": 92
    },
    {
      "midi": 60,
      "hit": false,
      "t": 144363.75,
      "d": 70,
      "v": 78
    },
    {
      "midi": 39,
      "hit": false,
      "t": 144363.75,
      "d": 90,
      "v": 79
    },
    {
      "midi": 56,
      "hit": false,
      "t": 144373.75,
      "d": 40,
      "v": 41
    },
    {
      "midi": 56,
      "hit": false,
      "t": 144683.75,
      "d": 160,
      "v": 89
    },
    {
      "midi": 49,
      "hit": false,
      "t": 144683.75,
      "d": 420,
      "v": 105
    },
    {
      "midi": 65,
      "hit": false,
      "t": 144683.75,
      "d": 680,
      "v": 78
    },
    {
      "midi": 61,
      "hit": false,
      "t": 144693.75,
      "d": 270,
      "v": 74
    },
    {
      "midi": 37,
      "hit": false,
      "t": 144693.75,
      "d": 420,
      "v": 92
    },
    {
      "midi": 56,
      "hit": false,
      "t": 144973.75,
      "d": 270,
      "v": 79
    },
    {
      "midi": 61,
      "hit": false,
      "t": 145293.75,
      "d": 130,
      "v": 77
    },
    {
      "midi": 56,
      "hit": false,
      "t": 145303.75,
      "d": 60,
      "v": 34
    },
    {
      "midi": 37,
      "hit": false,
      "t": 145303.75,
      "d": 80,
      "v": 78
    },
    {
      "midi": 49,
      "hit": false,
      "t": 145303.75,
      "d": 90,
      "v": 77
    },
    {
      "midi": 54,
      "hit": false,
      "t": 145633.75,
      "d": 170,
      "v": 89
    },
    {
      "midi": 66,
      "hit": false,
      "t": 145633.75,
      "d": 600,
      "v": 89
    },
    {
      "midi": 61,
      "hit": false,
      "t": 145643.75,
      "d": 250,
      "v": 78
    },
    {
      "midi": 51,
      "hit": false,
      "t": 145643.75,
      "d": 350,
      "v": 89
    },
    {
      "midi": 39,
      "hit": false,
      "t": 145653.75,
      "d": 330,
      "v": 92
    },
    {
      "midi": 54,
      "hit": false,
      "t": 145943.75,
      "d": 180,
      "v": 92
    },
    {
      "midi": 39,
      "hit": false,
      "t": 146263.75,
      "d": 80,
      "v": 77
    },
    {
      "midi": 51,
      "hit": false,
      "t": 146263.75,
      "d": 100,
      "v": 79
    },
    {
      "midi": 61,
      "hit": false,
      "t": 146263.75,
      "d": 120,
      "v": 70
    },
    {
      "midi": 68,
      "hit": false,
      "t": 146583.75,
      "d": 630,
      "v": 86
    },
    {
      "midi": 56,
      "hit": false,
      "t": 146593.75,
      "d": 170,
      "v": 95
    },
    {
      "midi": 61,
      "hit": false,
      "t": 146593.75,
      "d": 270,
      "v": 75
    },
    {
      "midi": 53,
      "hit": false,
      "t": 146593.75,
      "d": 340,
      "v": 77
    },
    {
      "midi": 41,
      "hit": false,
      "t": 146593.75,
      "d": 380,
      "v": 75
    },
    {
      "midi": 65,
      "hit": false,
      "t": 146603.75,
      "d": 400,
      "v": 75
    },
    {
      "midi": 56,
      "hit": false,
      "t": 146883.75,
      "d": 270,
      "v": 89
    },
    {
      "midi": 61,
      "hit": false,
      "t": 147203.75,
      "d": 150,
      "v": 77
    },
    {
      "midi": 44,
      "hit": false,
      "t": 147233.75,
      "d": 270,
      "v": 89
    },
    {
      "midi": 56,
      "hit": false,
      "t": 147543.75,
      "d": 170,
      "v": 95
    },
    {
      "midi": 49,
      "hit": false,
      "t": 147543.75,
      "d": 340,
      "v": 99
    },
    {
      "midi": 61,
      "hit": false,
      "t": 147553.75,
      "d": 250,
      "v": 77
    },
    {
      "midi": 37,
      "hit": false,
      "t": 147553.75,
      "d": 360,
      "v": 89
    },
    {
      "midi": 65,
      "hit": false,
      "t": 147553.75,
      "d": 460,
      "v": 79
    },
    {
      "midi": 56,
      "hit": false,
      "t": 147853.75,
      "d": 240,
      "v": 79
    },
    {
      "midi": 61,
      "hit": false,
      "t": 148143.75,
      "d": 80,
      "v": 75
    },
    {
      "midi": 40,
      "hit": false,
      "t": 148163.75,
      "d": 340,
      "v": 79
    },
    {
      "midi": 59,
      "hit": false,
      "t": 148483.75,
      "d": 360,
      "v": 79
    },
    {
      "midi": 61,
      "hit": false,
      "t": 148483.75,
      "d": 430,
      "v": 77
    },
    {
      "midi": 57,
      "hit": false,
      "t": 148493.75,
      "d": 200,
      "v": 77
    },
    {
      "midi": 64,
      "hit": false,
      "t": 148493.75,
      "d": 440,
      "v": 75
    },
    {
      "midi": 45,
      "hit": false,
      "t": 148493.75,
      "d": 1110,
      "v": 77
    },
    {
      "midi": 33,
      "hit": false,
      "t": 148503.75,
      "d": 1200,
      "v": 74
    },
    {
      "midi": 57,
      "hit": false,
      "t": 148813.75,
      "d": 290,
      "v": 78
    },
    {
      "midi": 59,
      "hit": false,
      "t": 149113.75,
      "d": 160,
      "v": 83
    },
    {
      "midi": 59,
      "hit": false,
      "t": 149463.75,
      "d": 200,
      "v": 89
    },
    {
      "midi": 61,
      "hit": false,
      "t": 149463.75,
      "d": 300,
      "v": 78
    },
    {
      "midi": 64,
      "hit": false,
      "t": 149463.75,
      "d": 470,
      "v": 78
    },
    {
      "midi": 57,
      "hit": false,
      "t": 149473.75,
      "d": 140,
      "v": 77
    },
    {
      "midi": 57,
      "hit": false,
      "t": 149763.75,
      "d": 180,
      "v": 78
    },
    {
      "midi": 45,
      "hit": false,
      "t": 149803.75,
      "d": 160,
      "v": 71
    },
    {
      "midi": 61,
      "hit": false,
      "t": 149823.75,
      "d": 40,
      "v": 34
    },
    {
      "midi": 42,
      "hit": false,
      "t": 150083.75,
      "d": 340,
      "v": 77
    },
    {
      "midi": 59,
      "hit": false,
      "t": 150093.75,
      "d": 100,
      "v": 79
    },
    {
      "midi": 54,
      "hit": false,
      "t": 150423.75,
      "d": 170,
      "v": 86
    },
    {
      "midi": 63,
      "hit": false,
      "t": 150423.75,
      "d": 420,
      "v": 77
    },
    {
      "midi": 59,
      "hit": false,
      "t": 150433.75,
      "d": 270,
      "v": 78
    },
    {
      "midi": 47,
      "hit": false,
      "t": 150433.75,
      "d": 1010,
      "v": 83
    },
    {
      "midi": 35,
      "hit": false,
      "t": 150433.75,
      "d": 1590,
      "v": 78
    },
    {
      "midi": 54,
      "hit": false,
      "t": 150743.75,
      "d": 150,
      "v": 79
    },
    {
      "midi": 59,
      "hit": false,
      "t": 151033.75,
      "d": 130,
      "v": 77
    },
    {
      "midi": 54,
      "hit": false,
      "t": 151353.75,
      "d": 140,
      "v": 95
    },
    {
      "midi": 59,
      "hit": false,
      "t": 151353.75,
      "d": 180,
      "v": 70
    },
    {
      "midi": 66,
      "hit": false,
      "t": 151353.75,
      "d": 210,
      "v": 89
    },
    {
      "midi": 63,
      "hit": false,
      "t": 151363.75,
      "d": 260,
      "v": 74
    },
    {
      "midi": 54,
      "hit": false,
      "t": 151663.75,
      "d": 180,
      "v": 92
    },
    {
      "midi": 59,
      "hit": false,
      "t": 151963.75,
      "d": 80,
      "v": 77
    },
    {
      "midi": 42,
      "hit": false,
      "t": 151983.75,
      "d": 300,
      "v": 79
    },
    {
      "midi": 56,
      "hit": false,
      "t": 152303.75,
      "d": 240,
      "v": 86
    },
    {
      "midi": 40,
      "hit": false,
      "t": 152303.75,
      "d": 550,
      "v": 77
    },
    {
      "midi": 52,
      "hit": false,
      "t": 152313.75,
      "d": 140,
      "v": 86
    },
    {
      "midi": 59,
      "hit": false,
      "t": 152313.75,
      "d": 530,
      "v": 79
    },
    {
      "midi": 64,
      "hit": false,
      "t": 152313.75,
      "d": 540,
      "v": 78
    },
    {
      "midi": 47,
      "hit": false,
      "t": 152313.75,
      "d": 1140,
      "v": 77
    },
    {
      "midi": 52,
      "hit": false,
      "t": 152603.75,
      "d": 200,
      "v": 70
    },
    {
      "midi": 56,
      "hit": false,
      "t": 152903.75,
      "d": 120,
      "v": 92
    },
    {
      "midi": 54,
      "hit": false,
      "t": 153233.75,
      "d": 160,
      "v": 86
    },
    {
      "midi": 59,
      "hit": false,
      "t": 153243.75,
      "d": 230,
      "v": 86
    },
    {
      "midi": 39,
      "hit": false,
      "t": 153243.75,
      "d": 260,
      "v": 86
    },
    {
      "midi": 63,
      "hit": false,
      "t": 153243.75,
      "d": 590,
      "v": 86
    },
    {
      "midi": 54,
      "hit": false,
      "t": 153533.75,
      "d": 330,
      "v": 92
    },
    {
      "midi": 59,
      "hit": false,
      "t": 153843.75,
      "d": 110,
      "v": 77
    },
    {
      "midi": 32,
      "hit": false,
      "t": 153863.75,
      "d": 210,
      "v": 74
    },
    {
      "midi": 54,
      "hit": false,
      "t": 154173.75,
      "d": 120,
      "v": 78
    },
    {
      "midi": 37,
      "hit": false,
      "t": 154173.75,
      "d": 690,
      "v": 99
    },
    {
      "midi": 25,
      "hit": false,
      "t": 154173.75,
      "d": 1120,
      "v": 79
    },
    {
      "midi": 59,
      "hit": false,
      "t": 154183.75,
      "d": 110,
      "v": 79
    },
    {
      "midi": 61,
      "hit": false,
      "t": 154183.75,
      "d": 130,
      "v": 75
    },
    {
      "midi": 53,
      "hit": false,
      "t": 154503.75,
      "d": 190,
      "v": 86
    },
    {
      "midi": 59,
      "hit": false,
      "t": 154503.75,
      "d": 300,
      "v": 83
    },
    {
      "midi": 61,
      "hit": false,
      "t": 154503.75,
      "d": 320,
      "v": 86
    },
    {
      "midi": 53,
      "hit": false,
      "t": 154833.75,
      "d": 180,
      "v": 79
    },
    {
      "midi": 53,
      "hit": false,
      "t": 155133.75,
      "d": 160,
      "v": 86
    },
    {
      "midi": 61,
      "hit": false,
      "t": 155133.75,
      "d": 320,
      "v": 79
    },
    {
      "midi": 59,
      "hit": false,
      "t": 155143.75,
      "d": 250,
      "v": 86
    },
    {
      "midi": 37,
      "hit": false,
      "t": 155153.75,
      "d": 160,
      "v": 86
    },
    {
      "midi": 37,
      "hit": false,
      "t": 155473.75,
      "d": 150,
      "v": 92
    },
    {
      "midi": 53,
      "hit": false,
      "t": 155473.75,
      "d": 190,
      "v": 78
    },
    {
      "midi": 59,
      "hit": false,
      "t": 155773.75,
      "d": 70,
      "v": 83
    },
    {
      "midi": 32,
      "hit": false,
      "t": 155773.75,
      "d": 300,
      "v": 89
    },
    {
      "midi": 61,
      "hit": false,
      "t": 156113.75,
      "d": 340,
      "v": 78
    },
    {
      "midi": 54,
      "hit": false,
      "t": 156113.75,
      "d": 350,
      "v": 86
    },
    {
      "midi": 57,
      "hit": false,
      "t": 156113.75,
      "d": 350,
      "v": 77
    },
    {
      "midi": 30,
      "hit": false,
      "t": 156123.75,
      "d": 1660,
      "v": 78
    },
    {
      "midi": 52,
      "hit": false,
      "t": 156423.75,
      "d": 370,
      "v": 78
    },
    {
      "midi": 54,
      "hit": false,
      "t": 156753.75,
      "d": 160,
      "v": 79
    },
    {
      "midi": 52,
      "hit": false,
      "t": 157083.75,
      "d": 160,
      "v": 86
    },
    {
      "midi": 54,
      "hit": false,
      "t": 157083.75,
      "d": 230,
      "v": 79
    },
    {
      "midi": 57,
      "hit": false,
      "t": 157083.75,
      "d": 520,
      "v": 78
    },
    {
      "midi": 61,
      "hit": false,
      "t": 157083.75,
      "d": 600,
      "v": 77
    },
    {
      "midi": 52,
      "hit": false,
      "t": 157393.75,
      "d": 230,
      "v": 83
    },
    {
      "midi": 42,
      "hit": false,
      "t": 157673.75,
      "d": 130,
      "v": 78
    },
    {
      "midi": 54,
      "hit": false,
      "t": 157683.75,
      "d": 70,
      "v": 77
    },
    {
      "midi": 37,
      "hit": false,
      "t": 157813.75,
      "d": 140,
      "v": 78
    },
    {
      "midi": 51,
      "hit": false,
      "t": 158013.75,
      "d": 170,
      "v": 75
    },
    {
      "midi": 35,
      "hit": false,
      "t": 158013.75,
      "d": 1640,
      "v": 79
    },
    {
      "midi": 57,
      "hit": false,
      "t": 158023.75,
      "d": 250,
      "v": 73
    },
    {
      "midi": 59,
      "hit": false,
      "t": 158023.75,
      "d": 530,
      "v": 73
    },
    {
      "midi": 51,
      "hit": false,
      "t": 158323.75,
      "d": 200,
      "v": 78
    },
    {
      "midi": 57,
      "hit": false,
      "t": 158633.75,
      "d": 140,
      "v": 69
    },
    {
      "midi": 51,
      "hit": false,
      "t": 158943.75,
      "d": 130,
      "v": 77
    },
    {
      "midi": 57,
      "hit": false,
      "t": 158953.75,
      "d": 210,
      "v": 69
    },
    {
      "midi": 59,
      "hit": false,
      "t": 158953.75,
      "d": 410,
      "v": 71
    },
    {
      "midi": 63,
      "hit": false,
      "t": 158953.75,
      "d": 500,
      "v": 78
    },
    {
      "midi": 51,
      "hit": false,
      "t": 159243.75,
      "d": 220,
      "v": 92
    },
    {
      "midi": 47,
      "hit": false,
      "t": 159273.75,
      "d": 330,
      "v": 83
    },
    {
      "midi": 57,
      "hit": false,
      "t": 159553.75,
      "d": 100,
      "v": 70
    },
    {
      "midi": 42,
      "hit": false,
      "t": 159583.75,
      "d": 280,
      "v": 77
    },
    {
      "midi": 56,
      "hit": false,
      "t": 159893.75,
      "d": 280,
      "v": 86
    },
    {
      "midi": 59,
      "hit": false,
      "t": 159893.75,
      "d": 370,
      "v": 83
    },
    {
      "midi": 52,
      "hit": false,
      "t": 159903.75,
      "d": 170,
      "v": 89
    },
    {
      "midi": 47,
      "hit": false,
      "t": 159903.75,
      "d": 210,
      "v": 78
    },
    {
      "midi": 40,
      "hit": false,
      "t": 159903.75,
      "d": 240,
      "v": 75
    },
    {
      "midi": 64,
      "hit": false,
      "t": 159903.75,
      "d": 320,
      "v": 78
    },
    {
      "midi": 52,
      "hit": false,
      "t": 160223.75,
      "d": 130,
      "v": 74
    },
    {
      "midi": 40,
      "hit": false,
      "t": 160523.75,
      "d": 70,
      "v": 62
    },
    {
      "midi": 56,
      "hit": false,
      "t": 160523.75,
      "d": 120,
      "v": 86
    },
    {
      "midi": 59,
      "hit": false,
      "t": 160523.75,
      "d": 130,
      "v": 83
    },
    {
      "midi": 28,
      "hit": false,
      "t": 160533.75,
      "d": 60,
      "v": 69
    },
    {
      "midi": 52,
      "hit": false,
      "t": 160533.75,
      "d": 100,
      "v": 89
    },
    {
      "midi": 64,
      "hit": false,
      "t": 160533.75,
      "d": 130,
      "v": 75
    },
    {
      "midi": 52,
      "hit": false,
      "t": 160873.75,
      "d": 150,
      "v": 95
    },
    {
      "midi": 57,
      "hit": false,
      "t": 160873.75,
      "d": 230,
      "v": 89
    },
    {
      "midi": 64,
      "hit": false,
      "t": 160873.75,
      "d": 230,
      "v": 86
    },
    {
      "midi": 42,
      "hit": false,
      "t": 160873.75,
      "d": 320,
      "v": 77
    },
    {
      "midi": 30,
      "hit": false,
      "t": 160883.75,
      "d": 300,
      "v": 71
    },
    {
      "midi": 52,
      "hit": false,
      "t": 161163.75,
      "d": 110,
      "v": 75
    },
    {
      "midi": 57,
      "hit": false,
      "t": 161473.75,
      "d": 110,
      "v": 83
    },
    {
      "midi": 64,
      "hit": false,
      "t": 161473.75,
      "d": 130,
      "v": 78
    },
    {
      "midi": 52,
      "hit": false,
      "t": 161483.75,
      "d": 100,
      "v": 79
    },
    {
      "midi": 42,
      "hit": false,
      "t": 161483.75,
      "d": 110,
      "v": 75
    },
    {
      "midi": 30,
      "hit": false,
      "t": 161493.75,
      "d": 80,
      "v": 69
    },
    {
      "midi": 52,
      "hit": false,
      "t": 161813.75,
      "d": 150,
      "v": 92
    },
    {
      "midi": 58,
      "hit": false,
      "t": 161813.75,
      "d": 220,
      "v": 95
    },
    {
      "midi": 64,
      "hit": false,
      "t": 161813.75,
      "d": 230,
      "v": 89
    },
    {
      "midi": 43,
      "hit": false,
      "t": 161823.75,
      "d": 240,
      "v": 74
    },
    {
      "midi": 31,
      "hit": false,
      "t": 161823.75,
      "d": 280,
      "v": 73
    },
    {
      "midi": 52,
      "hit": false,
      "t": 162113.75,
      "d": 130,
      "v": 77
    },
    {
      "midi": 52,
      "hit": false,
      "t": 162433.75,
      "d": 100,
      "v": 86
    },
    {
      "midi": 58,
      "hit": false,
      "t": 162433.75,
      "d": 110,
      "v": 78
    },
    {
      "midi": 64,
      "hit": false,
      "t": 162433.75,
      "d": 120,
      "v": 77
    },
    {
      "midi": 31,
      "hit": false,
      "t": 162443.75,
      "d": 70,
      "v": 66
    },
    {
      "midi": 43,
      "hit": false,
      "t": 162443.75,
      "d": 80,
      "v": 67
    },
    {
      "midi": 52,
      "hit": false,
      "t": 162793.75,
      "d": 150,
      "v": 86
    },
    {
      "midi": 64,
      "hit": false,
      "t": 162793.75,
      "d": 180,
      "v": 89
    },
    {
      "midi": 59,
      "hit": false,
      "t": 162793.75,
      "d": 190,
      "v": 95
    },
    {
      "midi": 32,
      "hit": false,
      "t": 162793.75,
      "d": 430,
      "v": 77
    },
    {
      "midi": 44,
      "hit": false,
      "t": 162803.75,
      "d": 240,
      "v": 86
    },
    {
      "midi": 52,
      "hit": false,
      "t": 163103.75,
      "d": 110,
      "v": 66
    },
    {
      "midi": 59,
      "hit": false,
      "t": 163403.75,
      "d": 100,
      "v": 79
    },
    {
      "midi": 64,
      "hit": false,
      "t": 163403.75,
      "d": 140,
      "v": 77
    },
    {
      "midi": 52,
      "hit": false,
      "t": 163413.75,
      "d": 90,
      "v": 74
    },
    {
      "midi": 40,
      "hit": false,
      "t": 163423.75,
      "d": 310,
      "v": 67
    },
    {
      "midi": 61,
      "hit": false,
      "t": 163743.75,
      "d": 480,
      "v": 67
    },
    {
      "midi": 57,
      "hit": false,
      "t": 163753.75,
      "d": 340,
      "v": 70
    },
    {
      "midi": 59,
      "hit": false,
      "t": 163753.75,
      "d": 470,
      "v": 69
    },
    {
      "midi": 52,
      "hit": false,
      "t": 163763.75,
      "d": 190,
      "v": 75
    },
    {
      "midi": 64,
      "hit": false,
      "t": 163763.75,
      "d": 460,
      "v": 71
    },
    {
      "midi": 45,
      "hit": false,
      "t": 163773.75,
      "d": 1050,
      "v": 71
    },
    {
      "midi": 33,
      "hit": false,
      "t": 163773.75,
      "d": 1510,
      "v": 70
    },
    {
      "midi": 52,
      "hit": false,
      "t": 164083.75,
      "d": 370,
      "v": 74
    },
    {
      "midi": 57,
      "hit": false,
      "t": 164403.75,
      "d": 160,
      "v": 75
    },
    {
      "midi": 61,
      "hit": false,
      "t": 164723.75,
      "d": 570,
      "v": 71
    },
    {
      "midi": 52,
      "hit": false,
      "t": 164733.75,
      "d": 150,
      "v": 83
    },
    {
      "midi": 57,
      "hit": false,
      "t": 164733.75,
      "d": 240,
      "v": 66
    },
    {
      "midi": 59,
      "hit": false,
      "t": 164733.75,
      "d": 480,
      "v": 77
    },
    {
      "midi": 64,
      "hit": false,
      "t": 164743.75,
      "d": 460,
      "v": 75
    },
    {
      "midi": 52,
      "hit": false,
      "t": 165053.75,
      "d": 190,
      "v": 95
    },
    {
      "midi": 57,
      "hit": false,
      "t": 165343.75,
      "d": 110,
      "v": 75
    },
    {
      "midi": 42,
      "hit": false,
      "t": 165353.75,
      "d": 340,
      "v": 77
    },
    {
      "midi": 59,
      "hit": false,
      "t": 165683.75,
      "d": 320,
      "v": 83
    },
    {
      "midi": 54,
      "hit": false,
      "t": 165693.75,
      "d": 180,
      "v": 79
    },
    {
      "midi": 63,
      "hit": false,
      "t": 165693.75,
      "d": 460,
      "v": 79
    },
    {
      "midi": 47,
      "hit": false,
      "t": 165703.75,
      "d": 1110,
      "v": 79
    },
    {
      "midi": 35,
      "hit": false,
      "t": 165703.75,
      "d": 1580,
      "v": 79
    },
    {
      "midi": 54,
      "hit": false,
      "t": 166003.75,
      "d": 360,
      "v": 77
    },
    {
      "midi": 59,
      "hit": false,
      "t": 166323.75,
      "d": 150,
      "v": 83
    },
    {
      "midi": 54,
      "hit": false,
      "t": 166653.75,
      "d": 150,
      "v": 78
    },
    {
      "midi": 59,
      "hit": false,
      "t": 166653.75,
      "d": 250,
      "v": 79
    },
    {
      "midi": 63,
      "hit": false,
      "t": 166653.75,
      "d": 490,
      "v": 79
    },
    {
      "midi": 54,
      "hit": false,
      "t": 166963.75,
      "d": 340,
      "v": 95
    },
    {
      "midi": 59,
      "hit": false,
      "t": 167263.75,
      "d": 140,
      "v": 78
    },
    {
      "midi": 42,
      "hit": false,
      "t": 167263.75,
      "d": 310,
      "v": 77
    },
    {
      "midi": 56,
      "hit": false,
      "t": 167603.75,
      "d": 280,
      "v": 79
    },
    {
      "midi": 52,
      "hit": false,
      "t": 167613.75,
      "d": 160,
      "v": 92
    },
    {
      "midi": 64,
      "hit": false,
      "t": 167613.75,
      "d": 540,
      "v": 78
    },
    {
      "midi": 59,
      "hit": false,
      "t": 167613.75,
      "d": 600,
      "v": 86
    },
    {
      "midi": 40,
      "hit": false,
      "t": 167613.75,
      "d": 660,
      "v": 78
    },
    {
      "midi": 47,
      "hit": false,
      "t": 167613.75,
      "d": 1630,
      "v": 78
    },
    {
      "midi": 52,
      "hit": false,
      "t": 167923.75,
      "d": 210,
      "v": 67
    },
    {
      "midi": 56,
      "hit": false,
      "t": 168223.75,
      "d": 120,
      "v": 86
    },
    {
      "midi": 54,
      "hit": false,
      "t": 168613.75,
      "d": 180,
      "v": 89
    },
    {
      "midi": 59,
      "hit": false,
      "t": 168613.75,
      "d": 320,
      "v": 89
    },
    {
      "midi": 39,
      "hit": false,
      "t": 168613.75,
      "d": 470,
      "v": 79
    },
    {
      "midi": 63,
      "hit": false,
      "t": 168613.75,
      "d": 650,
      "v": 89
    },
    {
      "midi": 54,
      "hit": false,
      "t": 168933.75,
      "d": 370,
      "v": 92
    },
    {
      "midi": 59,
      "hit": false,
      "t": 169253.75,
      "d": 120,
      "v": 78
    },
    {
      "midi": 39,
      "hit": false,
      "t": 169273.75,
      "d": 100,
      "v": 63
    },
    {
      "midi": 54,
      "hit": false,
      "t": 169663.75,
      "d": 170,
      "v": 79
    },
    {
      "midi": 59,
      "hit": false,
      "t": 169673.75,
      "d": 180,
      "v": 86
    },
    {
      "midi": 61,
      "hit": false,
      "t": 169673.75,
      "d": 180,
      "v": 77
    },
    {
      "midi": 44,
      "hit": false,
      "t": 169673.75,
      "d": 1570,
      "v": 86
    },
    {
      "midi": 37,
      "hit": false,
      "t": 169673.75,
      "d": 1680,
      "v": 77
    },
    {
      "midi": 53,
      "hit": false,
      "t": 170073.75,
      "d": 220,
      "v": 89
    },
    {
      "midi": 59,
      "hit": false,
      "t": 170073.75,
      "d": 360,
      "v": 92
    },
    {
      "midi": 61,
      "hit": false,
      "t": 170073.75,
      "d": 380,
      "v": 86
    },
    {
      "midi": 53,
      "hit": false,
      "t": 170453.75,
      "d": 140,
      "v": 75
    },
    {
      "midi": 61,
      "hit": false,
      "t": 170853.75,
      "d": 480,
      "v": 86
    },
    {
      "midi": 53,
      "hit": false,
      "t": 170863.75,
      "d": 170,
      "v": 86
    },
    {
      "midi": 59,
      "hit": false,
      "t": 170863.75,
      "d": 330,
      "v": 89
    },
    {
      "midi": 49,
      "hit": false,
      "t": 170883.75,
      "d": 460,
      "v": 78
    },
    {
      "midi": 53,
      "hit": false,
      "t": 171313.75,
      "d": 170,
      "v": 78
    },
    {
      "midi": 59,
      "hit": false,
      "t": 171703.75,
      "d": 90,
      "v": 95
    },
    {
      "midi": 61,
      "hit": false,
      "t": 172163.75,
      "d": 480,
      "v": 79
    },
    {
      "midi": 52,
      "hit": false,
      "t": 172173.75,
      "d": 160,
      "v": 89
    },
    {
      "midi": 57,
      "hit": false,
      "t": 172173.75,
      "d": 300,
      "v": 86
    },
    {
      "midi": 42,
      "hit": false,
      "t": 172173.75,
      "d": 1270,
      "v": 75
    },
    {
      "midi": 30,
      "hit": false,
      "t": 172173.75,
      "d": 1520,
      "v": 75
    },
    {
      "midi": 52,
      "hit": false,
      "t": 172523.75,
      "d": 240,
      "v": 77
    },
    {
      "midi": 57,
      "hit": false,
      "t": 172873.75,
      "d": 150,
      "v": 83
    },
    {
      "midi": 61,
      "hit": false,
      "t": 173283.75,
      "d": 360,
      "v": 78
    },
    {
      "midi": 57,
      "hit": false,
      "t": 173293.75,
      "d": 310,
      "v": 79
    },
    {
      "midi": 64,
      "hit": false,
      "t": 173293.75,
      "d": 370,
      "v": 78
    },
    {
      "midi": 52,
      "hit": false,
      "t": 173653.75,
      "d": 270,
      "v": 92
    },
    {
      "midi": 57,
      "hit": false,
      "t": 174003.75,
      "d": 150,
      "v": 79
    },
    {
      "midi": 37,
      "hit": false,
      "t": 174003.75,
      "d": 380,
      "v": 78
    },
    {
      "midi": 35,
      "hit": false,
      "t": 174403.75,
      "d": 1450,
      "v": 78
    },
    {
      "midi": 52,
      "hit": false,
      "t": 174413.75,
      "d": 170,
      "v": 83
    },
    {
      "midi": 57,
      "hit": false,
      "t": 174413.75,
      "d": 260,
      "v": 77
    },
    {
      "midi": 61,
      "hit": false,
      "t": 174413.75,
      "d": 680,
      "v": 77
    },
    {
      "midi": 52,
      "hit": false,
      "t": 174763.75,
      "d": 230,
      "v": 79
    },
    {
      "midi": 57,
      "hit": false,
      "t": 175103.75,
      "d": 110,
      "v": 78
    },
    {
      "midi": 51,
      "hit": false,
      "t": 175513.75,
      "d": 200,
      "v": 86
    },
    {
      "midi": 57,
      "hit": false,
      "t": 175513.75,
      "d": 320,
      "v": 74
    },
    {
      "midi": 59,
      "hit": false,
      "t": 175513.75,
      "d": 520,
      "v": 75
    },
    {
      "midi": 63,
      "hit": false,
      "t": 175513.75,
      "d": 560,
      "v": 89
    },
    {
      "midi": 47,
      "hit": false,
      "t": 175533.75,
      "d": 240,
      "v": 89
    },
    {
      "midi": 51,
      "hit": false,
      "t": 175883.75,
      "d": 210,
      "v": 86
    },
    {
      "midi": 57,
      "hit": false,
      "t": 176243.75,
      "d": 100,
      "v": 74
    },
    {
      "midi": 35,
      "hit": false,
      "t": 176283.75,
      "d": 330,
      "v": 77
    },
    {
      "midi": 56,
      "hit": false,
      "t": 176633.75,
      "d": 300,
      "v": 89
    },
    {
      "midi": 59,
      "hit": false,
      "t": 176633.75,
      "d": 380,
      "v": 83
    },
    {
      "midi": 52,
      "hit": false,
      "t": 176643.75,
      "d": 160,
      "v": 95
    },
    {
      "midi": 64,
      "hit": false,
      "t": 176643.75,
      "d": 320,
      "v": 83
    },
    {
      "midi": 28,
      "hit": false,
      "t": 176653.75,
      "d": 110,
      "v": 102
    },
    {
      "midi": 40,
      "hit": false,
      "t": 176653.75,
      "d": 180,
      "v": 95
    },
    {
      "midi": 52,
      "hit": false,
      "t": 177053.75,
      "d": 70,
      "v": 83
    },
    {
      "midi": 56,
      "hit": false,
      "t": 177383.75,
      "d": 100,
      "v": 99
    },
    {
      "midi": 68,
      "hit": false,
      "t": 177753.75,
      "d": 220,
      "v": 95
    },
    {
      "midi": 56,
      "hit": false,
      "t": 177763.75,
      "d": 130,
      "v": 105
    },
    {
      "midi": 59,
      "hit": false,
      "t": 177763.75,
      "d": 270,
      "v": 77
    },
    {
      "midi": 64,
      "hit": false,
      "t": 177763.75,
      "d": 290,
      "v": 74
    },
    {
      "midi": 40,
      "hit": false,
      "t": 177773.75,
      "d": 90,
      "v": 92
    },
    {
      "midi": 52,
      "hit": false,
      "t": 177773.75,
      "d": 90,
      "v": 99
    },
    {
      "midi": 56,
      "hit": false,
      "t": 178143.75,
      "d": 140,
      "v": 105
    },
    {
      "midi": 59,
      "hit": false,
      "t": 178503.75,
      "d": 80,
      "v": 86
    },
    {
      "midi": 50,
      "hit": false,
      "t": 178703.75,
      "d": 60,
      "v": 79
    },
    {
      "midi": 38,
      "hit": false,
      "t": 178703.75,
      "d": 70,
      "v": 78
    },
    {
      "midi": 57,
      "hit": false,
      "t": 178903.75,
      "d": 190,
      "v": 95
    },
    {
      "midi": 60,
      "hit": false,
      "t": 178903.75,
      "d": 400,
      "v": 99
    },
    {
      "midi": 64,
      "hit": false,
      "t": 178903.75,
      "d": 530,
      "v": 78
    },
    {
      "midi": 36,
      "hit": false,
      "t": 178913.75,
      "d": 520,
      "v": 105
    },
    {
      "midi": 48,
      "hit": false,
      "t": 178913.75,
      "d": 530,
      "v": 102
    },
    {
      "midi": 57,
      "hit": false,
      "t": 179323.75,
      "d": 240,
      "v": 99
    },
    {
      "midi": 60,
      "hit": false,
      "t": 179703.75,
      "d": 90,
      "v": 108
    },
    {
      "midi": 47,
      "hit": false,
      "t": 179893.75,
      "d": 60,
      "v": 99
    },
    {
      "midi": 35,
      "hit": false,
      "t": 179903.75,
      "d": 60,
      "v": 89
    },
    {
      "midi": 66,
      "hit": false,
      "t": 180133.75,
      "d": 540,
      "v": 95
    },
    {
      "midi": 57,
      "hit": false,
      "t": 180143.75,
      "d": 260,
      "v": 99
    },
    {
      "midi": 60,
      "hit": false,
      "t": 180143.75,
      "d": 410,
      "v": 95
    },
    {
      "midi": 64,
      "hit": false,
      "t": 180143.75,
      "d": 540,
      "v": 86
    },
    {
      "midi": 45,
      "hit": false,
      "t": 180153.75,
      "d": 620,
      "v": 105
    },
    {
      "midi": 33,
      "hit": false,
      "t": 180163.75,
      "d": 670,
      "v": 99
    },
    {
      "midi": 57,
      "hit": false,
      "t": 180593.75,
      "d": 140,
      "v": 99
    },
    {
      "midi": 60,
      "hit": false,
      "t": 181063.75,
      "d": 100,
      "v": 105
    },
    {
      "midi": 56,
      "hit": false,
      "t": 181683.75,
      "d": 320,
      "v": 111
    },
    {
      "midi": 59,
      "hit": false,
      "t": 181683.75,
      "d": 320,
      "v": 83
    },
    {
      "midi": 64,
      "hit": false,
      "t": 181683.75,
      "d": 330,
      "v": 77
    },
    {
      "midi": 68,
      "hit": false,
      "t": 181683.75,
      "d": 390,
      "v": 108
    },
    {
      "midi": 28,
      "hit": false,
      "t": 181693.75,
      "d": 170,
      "v": 105
    },
    {
      "midi": 35,
      "hit": false,
      "t": 181693.75,
      "d": 170,
      "v": 95
    },
    {
      "midi": 40,
      "hit": false,
      "t": 181693.75,
      "d": 200,
      "v": 102
    },
    {
      "midi": 40,
      "hit": false,
      "t": 182253.75,
      "d": 90,
      "v": 55
    },
    {
      "midi": 47,
      "hit": false,
      "t": 182323.75,
      "d": 70,
      "v": 69
    },
    {
      "midi": 52,
      "hit": false,
      "t": 182423.75,
      "d": 120,
      "v": 66
    },
    {
      "midi": 54,
      "hit": false,
      "t": 182543.75,
      "d": 110,
      "v": 74
    },
    {
      "midi": 56,
      "hit": false,
      "t": 182643.75,
      "d": 50,
      "v": 92
    },
    {
      "midi": 59,
      "hit": false,
      "t": 182713.75,
      "d": 9880,
      "v": 73
    },
    {
      "midi": 64,
      "hit": false,
      "t": 182753.75,
      "d": 9820,
      "v": 77
    },
    {
      "midi": 66,
      "hit": false,
      "t": 182783.75,
      "d": 9800,
      "v": 86
    },
    {
      "midi": 68,
      "hit": false,
      "t": 182823.75,
      "d": 9760,
      "v": 78
    },
    {
      "midi": 71,
      "hit": false,
      "t": 182843.75,
      "d": 9720,
      "v": 86
    }
  ]
}