{
  "jsonPath": "Blues/Ragtime/Sue Keller/pax-mundi.json",
  "path": "Blues\\Ragtime\\Sue Keller\\Pax Mundi.mid",
  "name": "Pax Mundi",
  "difficulty": "Advanced",
  "bpm": 75,
  "notes": [
    {
      "midi": 84,
      "hit": false,
      "t": 890.8333333333334,
      "d": 100.83333333333337,
      "v": 56
    },
    {
      "midi": 85,
      "hit": false,
      "t": 921.6666666666667,
      "d": 443.33333333333326,
      "v": 77
    },
    {
      "midi": 81,
      "hit": false,
      "t": 947.5000000000001,
      "d": 404.9999999999999,
      "v": 66
    },
    {
      "midi": 93,
      "hit": false,
      "t": 1290.8333333333333,
      "d": 121.66666666666674,
      "v": 71
    },
    {
      "midi": 92,
      "hit": false,
      "t": 1643.3333333333333,
      "d": 75,
      "v": 77
    },
    {
      "midi": 83,
      "hit": false,
      "t": 1648.3333333333333,
      "d": 69.16666666666674,
      "v": 70
    },
    {
      "midi": 90,
      "hit": false,
      "t": 2009.1666666666665,
      "d": 57.5,
      "v": 67
    },
    {
      "midi": 81,
      "hit": false,
      "t": 2025.8333333333333,
      "d": 64.99999999999977,
      "v": 63
    },
    {
      "midi": 88,
      "hit": false,
      "t": 2395.833333333333,
      "d": 135,
      "v": 61
    },
    {
      "midi": 80,
      "hit": false,
      "t": 2400.833333333333,
      "d": 170.83333333333348,
      "v": 54
    },
    {
      "midi": 76,
      "hit": false,
      "t": 2419.9999999999995,
      "d": 305.00000000000045,
      "v": 47
    },
    {
      "midi": 78,
      "hit": false,
      "t": 2772.5,
      "d": 105.83333333333348,
      "v": 62
    },
    {
      "midi": 86,
      "hit": false,
      "t": 2775.8333333333335,
      "d": 110,
      "v": 60
    },
    {
      "midi": 85,
      "hit": false,
      "t": 3157.5,
      "d": 185.00000000000045,
      "v": 62
    },
    {
      "midi": 76,
      "hit": false,
      "t": 3160.8333333333335,
      "d": 135.83333333333348,
      "v": 54
    },
    {
      "midi": 64,
      "hit": false,
      "t": 3161.666666666667,
      "d": 736.666666666667,
      "v": 55
    },
    {
      "midi": 74,
      "hit": false,
      "t": 3519.166666666667,
      "d": 73.33333333333348,
      "v": 57
    },
    {
      "midi": 83,
      "hit": false,
      "t": 3521.666666666667,
      "d": 45,
      "v": 67
    },
    {
      "midi": 72,
      "hit": false,
      "t": 3815.0000000000005,
      "d": 112.5,
      "v": 54
    },
    {
      "midi": 73,
      "hit": false,
      "t": 3867.5000000000005,
      "d": 295.00000000000045,
      "v": 71
    },
    {
      "midi": 69,
      "hit": false,
      "t": 3910.833333333334,
      "d": 621.666666666667,
      "v": 59
    },
    {
      "midi": 81,
      "hit": false,
      "t": 3932.5000000000005,
      "d": 200.00000000000045,
      "v": 71
    },
    {
      "midi": 81,
      "hit": false,
      "t": 4268.333333333334,
      "d": 209.16666666666697,
      "v": 74
    },
    {
      "midi": 73,
      "hit": false,
      "t": 4270.833333333334,
      "d": 224.16666666666697,
      "v": 78
    },
    {
      "midi": 80,
      "hit": false,
      "t": 4653.333333333334,
      "d": 147.5,
      "v": 70
    },
    {
      "midi": 71,
      "hit": false,
      "t": 4666.666666666667,
      "d": 144.16666666666697,
      "v": 65
    },
    {
      "midi": 57,
      "hit": false,
      "t": 4678.333333333334,
      "d": 767.5,
      "v": 59
    },
    {
      "midi": 78,
      "hit": false,
      "t": 5043.333333333334,
      "d": 62.5,
      "v": 60
    },
    {
      "midi": 69,
      "hit": false,
      "t": 5060.000000000001,
      "d": 60.83333333333303,
      "v": 56
    },
    {
      "midi": 76,
      "hit": false,
      "t": 5443.333333333334,
      "d": 147.5,
      "v": 67
    },
    {
      "midi": 68,
      "hit": false,
      "t": 5450.833333333334,
      "d": 169.16666666666697,
      "v": 71
    },
    {
      "midi": 64,
      "hit": false,
      "t": 5458.333333333334,
      "d": 388.33333333333394,
      "v": 57
    },
    {
      "midi": 74,
      "hit": false,
      "t": 5833.333333333334,
      "d": 119.16666666666697,
      "v": 60
    },
    {
      "midi": 66,
      "hit": false,
      "t": 5837.500000000001,
      "d": 105,
      "v": 66
    },
    {
      "midi": 73,
      "hit": false,
      "t": 6206.666666666668,
      "d": 184.16666666666697,
      "v": 67
    },
    {
      "midi": 64,
      "hit": false,
      "t": 6215.000000000001,
      "d": 138.33333333333394,
      "v": 67
    },
    {
      "midi": 52,
      "hit": false,
      "t": 6216.666666666668,
      "d": 794.1666666666688,
      "v": 66
    },
    {
      "midi": 71,
      "hit": false,
      "t": 6597.500000000002,
      "d": 70,
      "v": 70
    },
    {
      "midi": 62,
      "hit": false,
      "t": 6605.833333333335,
      "d": 70.83333333333394,
      "v": 66
    },
    {
      "midi": 60,
      "hit": false,
      "t": 6955.833333333336,
      "d": 106.66666666666788,
      "v": 43
    },
    {
      "midi": 61,
      "hit": false,
      "t": 6994.16666666667,
      "d": 218.33333333333394,
      "v": 77
    },
    {
      "midi": 57,
      "hit": false,
      "t": 7006.66666666667,
      "d": 535.0000000000009,
      "v": 67
    },
    {
      "midi": 69,
      "hit": false,
      "t": 7018.333333333337,
      "d": 171.66666666666697,
      "v": 75
    },
    {
      "midi": 61,
      "hit": false,
      "t": 7412.500000000004,
      "d": 170.83333333333394,
      "v": 78
    },
    {
      "midi": 69,
      "hit": false,
      "t": 7415.000000000004,
      "d": 178.33333333333394,
      "v": 75
    },
    {
      "midi": 68,
      "hit": false,
      "t": 7820.000000000004,
      "d": 291.66666666666697,
      "v": 78
    },
    {
      "midi": 59,
      "hit": false,
      "t": 7822.500000000004,
      "d": 147.5,
      "v": 79
    },
    {
      "midi": 45,
      "hit": false,
      "t": 7826.666666666671,
      "d": 859.166666666667,
      "v": 78
    },
    {
      "midi": 66,
      "hit": false,
      "t": 8235.833333333338,
      "d": 71.66666666666606,
      "v": 78
    },
    {
      "midi": 57,
      "hit": false,
      "t": 8240.000000000004,
      "d": 68.33333333333394,
      "v": 67
    },
    {
      "midi": 55,
      "hit": false,
      "t": 8642.500000000004,
      "d": 97.5,
      "v": 74
    },
    {
      "midi": 56,
      "hit": false,
      "t": 8665.000000000004,
      "d": 316.6666666666679,
      "v": 95
    },
    {
      "midi": 52,
      "hit": false,
      "t": 8667.500000000004,
      "d": 285.83333333333394,
      "v": 89
    },
    {
      "midi": 64,
      "hit": false,
      "t": 8915.833333333338,
      "d": 254.16666666666788,
      "v": 62
    },
    {
      "midi": 56,
      "hit": false,
      "t": 9206.666666666672,
      "d": 84.16666666666606,
      "v": 75
    },
    {
      "midi": 54,
      "hit": false,
      "t": 9520.000000000004,
      "d": 305.83333333333394,
      "v": 99
    },
    {
      "midi": 40,
      "hit": false,
      "t": 9530.000000000004,
      "d": 1220,
      "v": 83
    },
    {
      "midi": 62,
      "hit": false,
      "t": 9795.000000000004,
      "d": 424.16666666666606,
      "v": 63
    },
    {
      "midi": 54,
      "hit": false,
      "t": 10087.500000000004,
      "d": 305,
      "v": 78
    },
    {
      "midi": 52,
      "hit": false,
      "t": 10380.000000000004,
      "d": 465.83333333333394,
      "v": 89
    },
    {
      "midi": 28,
      "hit": false,
      "t": 10385.833333333338,
      "d": 645,
      "v": 108
    },
    {
      "midi": 61,
      "hit": false,
      "t": 10652.500000000004,
      "d": 137.5,
      "v": 55
    },
    {
      "midi": 60,
      "hit": false,
      "t": 10965.000000000004,
      "d": 112.5,
      "v": 74
    },
    {
      "midi": 40,
      "hit": false,
      "t": 10972.500000000004,
      "d": 362.4999999999982,
      "v": 79
    },
    {
      "midi": 51,
      "hit": false,
      "t": 10975.000000000004,
      "d": 129.16666666666606,
      "v": 74
    },
    {
      "midi": 59,
      "hit": false,
      "t": 11276.66666666667,
      "d": 269.16666666666606,
      "v": 92
    },
    {
      "midi": 50,
      "hit": false,
      "t": 11278.333333333336,
      "d": 124.16666666666606,
      "v": 79
    },
    {
      "midi": 28,
      "hit": false,
      "t": 11285.833333333336,
      "d": 765.0000000000018,
      "v": 108
    },
    {
      "midi": 50,
      "hit": false,
      "t": 11556.66666666667,
      "d": 124.16666666666788,
      "v": 77
    },
    {
      "midi": 40,
      "hit": false,
      "t": 11565.000000000004,
      "d": 120,
      "v": 92
    },
    {
      "midi": 59,
      "hit": false,
      "t": 11826.66666666667,
      "d": 153.33333333333394,
      "v": 77
    },
    {
      "midi": 40,
      "hit": false,
      "t": 11841.66666666667,
      "d": 160,
      "v": 89
    },
    {
      "midi": 57,
      "hit": false,
      "t": 12118.333333333338,
      "d": 88.33333333333212,
      "v": 99
    },
    {
      "midi": 40,
      "hit": false,
      "t": 12135.000000000004,
      "d": 638.3333333333358,
      "v": 95
    },
    {
      "midi": 33,
      "hit": false,
      "t": 12136.66666666667,
      "d": 240,
      "v": 89
    },
    {
      "midi": 63,
      "hit": false,
      "t": 12396.66666666667,
      "d": 48.33333333333394,
      "v": 59
    },
    {
      "midi": 57,
      "hit": false,
      "t": 12405.833333333336,
      "d": 44.16666666666788,
      "v": 54
    },
    {
      "midi": 64,
      "hit": false,
      "t": 12405.833333333336,
      "d": 46.66666666666788,
      "v": 54
    },
    {
      "midi": 69,
      "hit": false,
      "t": 12411.66666666667,
      "d": 55.00000000000182,
      "v": 60
    },
    {
      "midi": 69,
      "hit": false,
      "t": 12682.500000000005,
      "d": 90,
      "v": 65
    },
    {
      "midi": 57,
      "hit": false,
      "t": 12687.500000000005,
      "d": 79.16666666666606,
      "v": 54
    },
    {
      "midi": 64,
      "hit": false,
      "t": 12690.83333333334,
      "d": 71.66666666666606,
      "v": 52
    },
    {
      "midi": 33,
      "hit": false,
      "t": 12705.000000000005,
      "d": 565.0000000000018,
      "v": 63
    },
    {
      "midi": 69,
      "hit": false,
      "t": 12993.33333333334,
      "d": 99.16666666666788,
      "v": 92
    },
    {
      "midi": 57,
      "hit": false,
      "t": 12995.83333333334,
      "d": 71.66666666666788,
      "v": 102
    },
    {
      "midi": 64,
      "hit": false,
      "t": 12997.500000000005,
      "d": 60.00000000000182,
      "v": 86
    },
    {
      "midi": 42,
      "hit": false,
      "t": 13006.666666666673,
      "d": 574.1666666666679,
      "v": 95
    },
    {
      "midi": 57,
      "hit": false,
      "t": 13263.333333333341,
      "d": 65,
      "v": 66
    },
    {
      "midi": 64,
      "hit": false,
      "t": 13265.833333333341,
      "d": 55,
      "v": 60
    },
    {
      "midi": 69,
      "hit": false,
      "t": 13270.000000000007,
      "d": 55,
      "v": 60
    },
    {
      "midi": 64,
      "hit": false,
      "t": 13517.500000000007,
      "d": 87.5,
      "v": 55
    },
    {
      "midi": 57,
      "hit": false,
      "t": 13520.000000000007,
      "d": 80.83333333333394,
      "v": 52
    },
    {
      "midi": 69,
      "hit": false,
      "t": 13522.500000000007,
      "d": 84.16666666666606,
      "v": 57
    },
    {
      "midi": 33,
      "hit": false,
      "t": 13535.000000000007,
      "d": 605.8333333333339,
      "v": 67
    },
    {
      "midi": 69,
      "hit": false,
      "t": 13812.500000000007,
      "d": 104.16666666666788,
      "v": 79
    },
    {
      "midi": 57,
      "hit": false,
      "t": 13815.833333333341,
      "d": 80.83333333333394,
      "v": 86
    },
    {
      "midi": 64,
      "hit": false,
      "t": 13818.333333333341,
      "d": 68.33333333333394,
      "v": 75
    },
    {
      "midi": 43,
      "hit": false,
      "t": 13825.833333333341,
      "d": 520.0000000000018,
      "v": 83
    },
    {
      "midi": 69,
      "hit": false,
      "t": 14074.166666666675,
      "d": 82.5,
      "v": 67
    },
    {
      "midi": 57,
      "hit": false,
      "t": 14075.833333333341,
      "d": 70,
      "v": 66
    },
    {
      "midi": 64,
      "hit": false,
      "t": 14077.500000000007,
      "d": 74.16666666666788,
      "v": 62
    },
    {
      "midi": 69,
      "hit": false,
      "t": 14332.50000000001,
      "d": 90.83333333333576,
      "v": 66
    },
    {
      "midi": 57,
      "hit": false,
      "t": 14335.833333333343,
      "d": 76.66666666666788,
      "v": 73
    },
    {
      "midi": 64,
      "hit": false,
      "t": 14335.833333333343,
      "d": 77.50000000000182,
      "v": 66
    },
    {
      "midi": 33,
      "hit": false,
      "t": 14376.666666666677,
      "d": 416.6666666666679,
      "v": 70
    },
    {
      "midi": 42,
      "hit": false,
      "t": 14605.000000000011,
      "d": 260.83333333333394,
      "v": 95
    },
    {
      "midi": 69,
      "hit": false,
      "t": 14613.333333333345,
      "d": 110,
      "v": 83
    },
    {
      "midi": 64,
      "hit": false,
      "t": 14615.833333333345,
      "d": 87.5,
      "v": 79
    },
    {
      "midi": 57,
      "hit": false,
      "t": 14617.500000000011,
      "d": 83.33333333333394,
      "v": 95
    },
    {
      "midi": 69,
      "hit": false,
      "t": 14877.500000000011,
      "d": 99.99999999999818,
      "v": 79
    },
    {
      "midi": 57,
      "hit": false,
      "t": 14881.666666666677,
      "d": 89.16666666666606,
      "v": 86
    },
    {
      "midi": 64,
      "hit": false,
      "t": 14881.666666666677,
      "d": 108.33333333333212,
      "v": 79
    },
    {
      "midi": 40,
      "hit": false,
      "t": 14886.666666666677,
      "d": 235,
      "v": 78
    },
    {
      "midi": 64,
      "hit": false,
      "t": 15125.833333333343,
      "d": 136.66666666666606,
      "v": 77
    },
    {
      "midi": 57,
      "hit": false,
      "t": 15128.333333333343,
      "d": 102.49999999999818,
      "v": 78
    },
    {
      "midi": 69,
      "hit": false,
      "t": 15132.50000000001,
      "d": 129.16666666666606,
      "v": 79
    },
    {
      "midi": 33,
      "hit": false,
      "t": 15136.666666666675,
      "d": 220,
      "v": 89
    },
    {
      "midi": 43,
      "hit": false,
      "t": 15392.50000000001,
      "d": 308.33333333333576,
      "v": 79
    },
    {
      "midi": 55,
      "hit": false,
      "t": 15400.833333333343,
      "d": 136.66666666666788,
      "v": 83
    },
    {
      "midi": 62,
      "hit": false,
      "t": 15403.333333333343,
      "d": 153.33333333333576,
      "v": 74
    },
    {
      "midi": 64,
      "hit": false,
      "t": 15403.333333333343,
      "d": 156.6666666666697,
      "v": 73
    },
    {
      "midi": 69,
      "hit": false,
      "t": 15411.666666666677,
      "d": 139.16666666666788,
      "v": 74
    },
    {
      "midi": 64,
      "hit": false,
      "t": 15652.500000000013,
      "d": 135.83333333333212,
      "v": 60
    },
    {
      "midi": 62,
      "hit": false,
      "t": 15660.000000000013,
      "d": 135,
      "v": 66
    },
    {
      "midi": 55,
      "hit": false,
      "t": 15662.500000000013,
      "d": 104.99999999999818,
      "v": 74
    },
    {
      "midi": 69,
      "hit": false,
      "t": 15666.666666666679,
      "d": 122.5,
      "v": 63
    },
    {
      "midi": 31,
      "hit": false,
      "t": 15676.666666666679,
      "d": 341.6666666666679,
      "v": 63
    },
    {
      "midi": 55,
      "hit": false,
      "t": 15930.833333333347,
      "d": 91.66666666666606,
      "v": 67
    },
    {
      "midi": 69,
      "hit": false,
      "t": 15932.500000000013,
      "d": 140,
      "v": 69
    },
    {
      "midi": 64,
      "hit": false,
      "t": 15935.833333333347,
      "d": 155,
      "v": 70
    },
    {
      "midi": 62,
      "hit": false,
      "t": 15938.333333333347,
      "d": 103.33333333333212,
      "v": 59
    },
    {
      "midi": 43,
      "hit": false,
      "t": 15945.833333333347,
      "d": 79.16666666666606,
      "v": 86
    },
    {
      "midi": 69,
      "hit": false,
      "t": 16200.000000000015,
      "d": 136.66666666666606,
      "v": 73
    },
    {
      "midi": 60,
      "hit": false,
      "t": 16201.66666666668,
      "d": 142.5,
      "v": 75
    },
    {
      "midi": 57,
      "hit": false,
      "t": 16205.000000000015,
      "d": 120.83333333333212,
      "v": 77
    },
    {
      "midi": 66,
      "hit": false,
      "t": 16210.000000000015,
      "d": 141.66666666666606,
      "v": 77
    },
    {
      "midi": 64,
      "hit": false,
      "t": 16216.66666666668,
      "d": 148.33333333333394,
      "v": 65
    },
    {
      "midi": 38,
      "hit": false,
      "t": 16221.66666666668,
      "d": 413.3333333333376,
      "v": 70
    },
    {
      "midi": 60,
      "hit": false,
      "t": 16476.666666666682,
      "d": 133.33333333333576,
      "v": 69
    },
    {
      "midi": 64,
      "hit": false,
      "t": 16478.33333333335,
      "d": 140,
      "v": 11
    },
    {
      "midi": 66,
      "hit": false,
      "t": 16482.50000000002,
      "d": 138.33333333333212,
      "v": 78
    },
    {
      "midi": 26,
      "hit": false,
      "t": 16482.50000000002,
      "d": 210,
      "v": 79
    },
    {
      "midi": 57,
      "hit": false,
      "t": 16490.83333333335,
      "d": 96.66666666666788,
      "v": 83
    },
    {
      "midi": 69,
      "hit": false,
      "t": 16490.83333333335,
      "d": 126.66666666666788,
      "v": 74
    },
    {
      "midi": 38,
      "hit": false,
      "t": 16718.33333333335,
      "d": 186.66666666666788,
      "v": 66
    },
    {
      "midi": 60,
      "hit": false,
      "t": 16732.50000000002,
      "d": 102.5,
      "v": 60
    },
    {
      "midi": 57,
      "hit": false,
      "t": 16736.666666666686,
      "d": 123.33333333333212,
      "v": 74
    },
    {
      "midi": 66,
      "hit": false,
      "t": 16741.666666666686,
      "d": 150.83333333333212,
      "v": 74
    },
    {
      "midi": 69,
      "hit": false,
      "t": 16742.50000000002,
      "d": 138.33333333333212,
      "v": 70
    },
    {
      "midi": 64,
      "hit": false,
      "t": 16745.83333333335,
      "d": 142.5,
      "v": 60
    },
    {
      "midi": 33,
      "hit": false,
      "t": 16988.33333333335,
      "d": 144.16666666666788,
      "v": 77
    },
    {
      "midi": 63,
      "hit": false,
      "t": 16991.666666666682,
      "d": 114.16666666666788,
      "v": 77
    },
    {
      "midi": 40,
      "hit": false,
      "t": 16996.666666666682,
      "d": 270.83333333333576,
      "v": 86
    },
    {
      "midi": 64,
      "hit": false,
      "t": 17000.83333333335,
      "d": 151.66666666666788,
      "v": 71
    },
    {
      "midi": 57,
      "hit": false,
      "t": 17003.33333333335,
      "d": 112.5,
      "v": 78
    },
    {
      "midi": 69,
      "hit": false,
      "t": 17007.50000000002,
      "d": 126.66666666666788,
      "v": 86
    },
    {
      "midi": 64,
      "hit": false,
      "t": 17253.33333333335,
      "d": 109.16666666666788,
      "v": 62
    },
    {
      "midi": 57,
      "hit": false,
      "t": 17259.166666666682,
      "d": 93.33333333333576,
      "v": 59
    },
    {
      "midi": 69,
      "hit": false,
      "t": 17263.33333333335,
      "d": 111.66666666666788,
      "v": 71
    },
    {
      "midi": 33,
      "hit": false,
      "t": 17306.666666666686,
      "d": 507.5000000000073,
      "v": 65
    },
    {
      "midi": 64,
      "hit": false,
      "t": 17520.00000000002,
      "d": 105.00000000000364,
      "v": 66
    },
    {
      "midi": 69,
      "hit": false,
      "t": 17522.50000000002,
      "d": 105.00000000000364,
      "v": 65
    },
    {
      "midi": 57,
      "hit": false,
      "t": 17524.166666666686,
      "d": 89.16666666666788,
      "v": 73
    },
    {
      "midi": 64,
      "hit": false,
      "t": 17776.66666666669,
      "d": 105.83333333333576,
      "v": 79
    },
    {
      "midi": 40,
      "hit": false,
      "t": 17778.333333333358,
      "d": 453.3333333333394,
      "v": 79
    },
    {
      "midi": 57,
      "hit": false,
      "t": 17782.500000000025,
      "d": 90,
      "v": 86
    },
    {
      "midi": 69,
      "hit": false,
      "t": 17782.500000000025,
      "d": 110,
      "v": 83
    },
    {
      "midi": 64,
      "hit": false,
      "t": 18022.500000000025,
      "d": 111.66666666667152,
      "v": 59
    },
    {
      "midi": 57,
      "hit": false,
      "t": 18026.666666666693,
      "d": 90.83333333333576,
      "v": 70
    },
    {
      "midi": 69,
      "hit": false,
      "t": 18028.33333333336,
      "d": 104.16666666666788,
      "v": 77
    },
    {
      "midi": 64,
      "hit": false,
      "t": 18295.833333333365,
      "d": 102.5,
      "v": 66
    },
    {
      "midi": 69,
      "hit": false,
      "t": 18298.333333333365,
      "d": 111.66666666666788,
      "v": 74
    },
    {
      "midi": 57,
      "hit": false,
      "t": 18302.500000000033,
      "d": 78.33333333333212,
      "v": 77
    },
    {
      "midi": 32,
      "hit": false,
      "t": 18322.500000000033,
      "d": 138.33333333333212,
      "v": 86
    },
    {
      "midi": 39,
      "hit": false,
      "t": 18332.500000000033,
      "d": 139.16666666666424,
      "v": 92
    },
    {
      "midi": 33,
      "hit": false,
      "t": 18585.00000000003,
      "d": 259.1666666666679,
      "v": 83
    },
    {
      "midi": 69,
      "hit": false,
      "t": 18590.83333333336,
      "d": 120.00000000000364,
      "v": 77
    },
    {
      "midi": 64,
      "hit": false,
      "t": 18595.00000000003,
      "d": 105.00000000000364,
      "v": 75
    },
    {
      "midi": 40,
      "hit": false,
      "t": 18596.666666666697,
      "d": 450.8333333333285,
      "v": 83
    },
    {
      "midi": 57,
      "hit": false,
      "t": 18601.666666666697,
      "d": 89.16666666666788,
      "v": 83
    },
    {
      "midi": 57,
      "hit": false,
      "t": 18845.833333333365,
      "d": 74.99999999999636,
      "v": 66
    },
    {
      "midi": 69,
      "hit": false,
      "t": 18848.333333333365,
      "d": 85.83333333332848,
      "v": 66
    },
    {
      "midi": 64,
      "hit": false,
      "t": 18851.666666666697,
      "d": 63.33333333333212,
      "v": 49
    },
    {
      "midi": 33,
      "hit": false,
      "t": 19099.166666666693,
      "d": 587.5,
      "v": 70
    },
    {
      "midi": 64,
      "hit": false,
      "t": 19106.666666666693,
      "d": 73.33333333333212,
      "v": 63
    },
    {
      "midi": 69,
      "hit": false,
      "t": 19110.000000000025,
      "d": 83.33333333333212,
      "v": 66
    },
    {
      "midi": 57,
      "hit": false,
      "t": 19113.333333333358,
      "d": 64.16666666666788,
      "v": 73
    },
    {
      "midi": 69,
      "hit": false,
      "t": 19393.333333333358,
      "d": 98.33333333333576,
      "v": 83
    },
    {
      "midi": 64,
      "hit": false,
      "t": 19395.833333333358,
      "d": 84.16666666666788,
      "v": 77
    },
    {
      "midi": 57,
      "hit": false,
      "t": 19400.000000000025,
      "d": 67.5,
      "v": 89
    },
    {
      "midi": 42,
      "hit": false,
      "t": 19405.833333333358,
      "d": 505.00000000000364,
      "v": 89
    },
    {
      "midi": 64,
      "hit": false,
      "t": 19647.500000000025,
      "d": 63.33333333333576,
      "v": 54
    },
    {
      "midi": 57,
      "hit": false,
      "t": 19650.000000000025,
      "d": 56.66666666666788,
      "v": 62
    },
    {
      "midi": 69,
      "hit": false,
      "t": 19652.500000000025,
      "d": 75.83333333333576,
      "v": 65
    },
    {
      "midi": 69,
      "hit": false,
      "t": 19916.666666666693,
      "d": 88.33333333333212,
      "v": 69
    },
    {
      "midi": 57,
      "hit": false,
      "t": 19920.000000000025,
      "d": 71.66666666666788,
      "v": 71
    },
    {
      "midi": 64,
      "hit": false,
      "t": 19920.000000000025,
      "d": 81.66666666666788,
      "v": 63
    },
    {
      "midi": 33,
      "hit": false,
      "t": 19930.000000000025,
      "d": 576.6666666666679,
      "v": 73
    },
    {
      "midi": 69,
      "hit": false,
      "t": 20196.666666666693,
      "d": 100.83333333333576,
      "v": 83
    },
    {
      "midi": 64,
      "hit": false,
      "t": 20198.33333333336,
      "d": 85,
      "v": 77
    },
    {
      "midi": 57,
      "hit": false,
      "t": 20201.666666666693,
      "d": 70,
      "v": 89
    },
    {
      "midi": 43,
      "hit": false,
      "t": 20205.000000000025,
      "d": 501.6666666666715,
      "v": 78
    },
    {
      "midi": 64,
      "hit": false,
      "t": 20438.33333333336,
      "d": 84.16666666666788,
      "v": 62
    },
    {
      "midi": 69,
      "hit": false,
      "t": 20441.666666666693,
      "d": 87.50000000000364,
      "v": 62
    },
    {
      "midi": 57,
      "hit": false,
      "t": 20445.000000000025,
      "d": 68.33333333333576,
      "v": 65
    },
    {
      "midi": 69,
      "hit": false,
      "t": 20700.00000000003,
      "d": 96.66666666667152,
      "v": 60
    },
    {
      "midi": 64,
      "hit": false,
      "t": 20701.666666666697,
      "d": 90.00000000000364,
      "v": 63
    },
    {
      "midi": 57,
      "hit": false,
      "t": 20703.333333333365,
      "d": 74.16666666666788,
      "v": 69
    },
    {
      "midi": 33,
      "hit": false,
      "t": 20720.833333333365,
      "d": 400.8333333333321,
      "v": 70
    },
    {
      "midi": 69,
      "hit": false,
      "t": 20987.500000000033,
      "d": 103.33333333333212,
      "v": 75
    },
    {
      "midi": 64,
      "hit": false,
      "t": 20992.500000000033,
      "d": 95,
      "v": 75
    },
    {
      "midi": 57,
      "hit": false,
      "t": 20995.000000000033,
      "d": 80.83333333333212,
      "v": 83
    },
    {
      "midi": 42,
      "hit": false,
      "t": 20998.333333333365,
      "d": 241.66666666666424,
      "v": 79
    },
    {
      "midi": 64,
      "hit": false,
      "t": 21245.00000000003,
      "d": 94.16666666666424,
      "v": 69
    },
    {
      "midi": 69,
      "hit": false,
      "t": 21250.83333333336,
      "d": 85,
      "v": 73
    },
    {
      "midi": 57,
      "hit": false,
      "t": 21255.00000000003,
      "d": 71.66666666666424,
      "v": 71
    },
    {
      "midi": 32,
      "hit": false,
      "t": 21500.83333333336,
      "d": 185.83333333332848,
      "v": 79
    },
    {
      "midi": 39,
      "hit": false,
      "t": 21504.166666666693,
      "d": 193.33333333332848,
      "v": 89
    },
    {
      "midi": 64,
      "hit": false,
      "t": 21506.666666666693,
      "d": 149.16666666666424,
      "v": 78
    },
    {
      "midi": 69,
      "hit": false,
      "t": 21510.000000000025,
      "d": 125,
      "v": 79
    },
    {
      "midi": 57,
      "hit": false,
      "t": 21512.500000000025,
      "d": 91.66666666666788,
      "v": 86
    },
    {
      "midi": 64,
      "hit": false,
      "t": 21782.500000000022,
      "d": 144.16666666666788,
      "v": 65
    },
    {
      "midi": 61,
      "hit": false,
      "t": 21785.000000000022,
      "d": 139.16666666666788,
      "v": 69
    },
    {
      "midi": 69,
      "hit": false,
      "t": 21788.333333333354,
      "d": 2059.166666666657,
      "v": 71
    },
    {
      "midi": 55,
      "hit": false,
      "t": 21795.000000000022,
      "d": 127.5,
      "v": 73
    },
    {
      "midi": 67,
      "hit": false,
      "t": 21795.000000000022,
      "d": 150.83333333333212,
      "v": 69
    },
    {
      "midi": 33,
      "hit": false,
      "t": 21800.833333333354,
      "d": 141.66666666666788,
      "v": 75
    },
    {
      "midi": 40,
      "hit": false,
      "t": 21800.833333333354,
      "d": 160,
      "v": 78
    },
    {
      "midi": 64,
      "hit": false,
      "t": 22046.666666666686,
      "d": 105.00000000000364,
      "v": 46
    },
    {
      "midi": 67,
      "hit": false,
      "t": 22050.833333333354,
      "d": 111.66666666666788,
      "v": 40
    },
    {
      "midi": 61,
      "hit": false,
      "t": 22055.000000000022,
      "d": 77.5,
      "v": 44
    },
    {
      "midi": 55,
      "hit": false,
      "t": 22055.000000000022,
      "d": 85,
      "v": 42
    },
    {
      "midi": 55,
      "hit": false,
      "t": 22305.000000000022,
      "d": 120,
      "v": 50
    },
    {
      "midi": 67,
      "hit": false,
      "t": 22308.333333333354,
      "d": 130.83333333333212,
      "v": 55
    },
    {
      "midi": 61,
      "hit": false,
      "t": 22313.333333333354,
      "d": 100,
      "v": 47
    },
    {
      "midi": 64,
      "hit": false,
      "t": 22313.333333333354,
      "d": 117.5,
      "v": 47
    },
    {
      "midi": 33,
      "hit": false,
      "t": 22340.833333333354,
      "d": 511.6666666666606,
      "v": 57
    },
    {
      "midi": 67,
      "hit": false,
      "t": 22592.50000000002,
      "d": 164.99999999999636,
      "v": 55
    },
    {
      "midi": 55,
      "hit": false,
      "t": 22595.83333333335,
      "d": 128.33333333333212,
      "v": 67
    },
    {
      "midi": 61,
      "hit": false,
      "t": 22598.33333333335,
      "d": 123.33333333333212,
      "v": 70
    },
    {
      "midi": 64,
      "hit": false,
      "t": 22598.33333333335,
      "d": 143.33333333333212,
      "v": 56
    },
    {
      "midi": 42,
      "hit": false,
      "t": 22608.33333333335,
      "d": 431.6666666666679,
      "v": 92
    },
    {
      "midi": 67,
      "hit": false,
      "t": 22840.833333333347,
      "d": 140.8333333333394,
      "v": 33
    },
    {
      "midi": 64,
      "hit": false,
      "t": 22845.833333333347,
      "d": 124.16666666667152,
      "v": 39
    },
    {
      "midi": 55,
      "hit": false,
      "t": 22855.000000000015,
      "d": 105.00000000000364,
      "v": 47
    },
    {
      "midi": 61,
      "hit": false,
      "t": 22856.666666666682,
      "d": 89.16666666666788,
      "v": 47
    },
    {
      "midi": 55,
      "hit": false,
      "t": 23115.00000000002,
      "d": 132.5,
      "v": 44
    },
    {
      "midi": 61,
      "hit": false,
      "t": 23118.33333333335,
      "d": 117.5,
      "v": 51
    },
    {
      "midi": 64,
      "hit": false,
      "t": 23123.33333333335,
      "d": 128.33333333333576,
      "v": 52
    },
    {
      "midi": 67,
      "hit": false,
      "t": 23127.50000000002,
      "d": 137.5,
      "v": 50
    },
    {
      "midi": 33,
      "hit": false,
      "t": 23155.00000000002,
      "d": 518.3333333333285,
      "v": 66
    },
    {
      "midi": 64,
      "hit": false,
      "t": 23432.50000000002,
      "d": 134.16666666666424,
      "v": 71
    },
    {
      "midi": 67,
      "hit": false,
      "t": 23435.00000000002,
      "d": 154.99999999999636,
      "v": 61
    },
    {
      "midi": 55,
      "hit": false,
      "t": 23440.00000000002,
      "d": 105,
      "v": 74
    },
    {
      "midi": 61,
      "hit": false,
      "t": 23440.00000000002,
      "d": 110.83333333333212,
      "v": 70
    },
    {
      "midi": 43,
      "hit": false,
      "t": 23452.50000000002,
      "d": 297.4999999999927,
      "v": 79
    },
    {
      "midi": 67,
      "hit": false,
      "t": 23665.833333333347,
      "d": 141.66666666666424,
      "v": 43
    },
    {
      "midi": 64,
      "hit": false,
      "t": 23675.000000000015,
      "d": 123.33333333332848,
      "v": 52
    },
    {
      "midi": 61,
      "hit": false,
      "t": 23678.333333333347,
      "d": 103.33333333332848,
      "v": 55
    },
    {
      "midi": 55,
      "hit": false,
      "t": 23681.66666666668,
      "d": 96.66666666666424,
      "v": 61
    },
    {
      "midi": 69,
      "hit": false,
      "t": 23935.833333333343,
      "d": 145,
      "v": 49
    },
    {
      "midi": 64,
      "hit": false,
      "t": 23946.666666666675,
      "d": 130.83333333333576,
      "v": 54
    },
    {
      "midi": 61,
      "hit": false,
      "t": 23948.333333333343,
      "d": 112.5,
      "v": 61
    },
    {
      "midi": 55,
      "hit": false,
      "t": 23952.50000000001,
      "d": 115.83333333333212,
      "v": 62
    },
    {
      "midi": 67,
      "hit": false,
      "t": 23955.833333333343,
      "d": 132.5,
      "v": 62
    },
    {
      "midi": 33,
      "hit": false,
      "t": 23963.333333333343,
      "d": 566.6666666666715,
      "v": 71
    },
    {
      "midi": 64,
      "hit": false,
      "t": 24225.833333333343,
      "d": 150.83333333333576,
      "v": 63
    },
    {
      "midi": 42,
      "hit": false,
      "t": 24230.00000000001,
      "d": 198.33333333333576,
      "v": 89
    },
    {
      "midi": 67,
      "hit": false,
      "t": 24233.333333333343,
      "d": 157.50000000000364,
      "v": 61
    },
    {
      "midi": 61,
      "hit": false,
      "t": 24236.666666666675,
      "d": 130,
      "v": 70
    },
    {
      "midi": 55,
      "hit": false,
      "t": 24241.666666666675,
      "d": 126.66666666666788,
      "v": 74
    },
    {
      "midi": 69,
      "hit": false,
      "t": 24242.500000000007,
      "d": 130.00000000000364,
      "v": 75
    },
    {
      "midi": 67,
      "hit": false,
      "t": 24483.333333333347,
      "d": 141.66666666666788,
      "v": 22
    },
    {
      "midi": 61,
      "hit": false,
      "t": 24490.833333333347,
      "d": 135.83333333333576,
      "v": 63
    },
    {
      "midi": 64,
      "hit": false,
      "t": 24493.333333333347,
      "d": 119.16666666666788,
      "v": 51
    },
    {
      "midi": 69,
      "hit": false,
      "t": 24497.500000000015,
      "d": 113.33333333333212,
      "v": 65
    },
    {
      "midi": 55,
      "hit": false,
      "t": 24500.833333333347,
      "d": 114.16666666666788,
      "v": 65
    },
    {
      "midi": 61,
      "hit": false,
      "t": 24747.500000000015,
      "d": 145.00000000000728,
      "v": 62
    },
    {
      "midi": 55,
      "hit": false,
      "t": 24751.666666666682,
      "d": 102.50000000000364,
      "v": 57
    },
    {
      "midi": 64,
      "hit": false,
      "t": 24755.83333333335,
      "d": 135.00000000000364,
      "v": 56
    },
    {
      "midi": 69,
      "hit": false,
      "t": 24760.83333333335,
      "d": 6741.666666666668,
      "v": 60
    },
    {
      "midi": 67,
      "hit": false,
      "t": 24765.00000000002,
      "d": 145.83333333333576,
      "v": 54
    },
    {
      "midi": 40,
      "hit": false,
      "t": 24774.166666666686,
      "d": 235.83333333333212,
      "v": 78
    },
    {
      "midi": 38,
      "hit": false,
      "t": 25036.666666666686,
      "d": 165.83333333333212,
      "v": 77
    },
    {
      "midi": 66,
      "hit": false,
      "t": 25040.00000000002,
      "d": 175.83333333333212,
      "v": 79
    },
    {
      "midi": 45,
      "hit": false,
      "t": 25044.166666666686,
      "d": 501.6666666666679,
      "v": 78
    },
    {
      "midi": 57,
      "hit": false,
      "t": 25047.50000000002,
      "d": 114.16666666666788,
      "v": 74
    },
    {
      "midi": 62,
      "hit": false,
      "t": 25056.666666666686,
      "d": 141.66666666666424,
      "v": 59
    },
    {
      "midi": 66,
      "hit": false,
      "t": 25293.33333333335,
      "d": 135.00000000000364,
      "v": 42
    },
    {
      "midi": 62,
      "hit": false,
      "t": 25302.50000000002,
      "d": 117.5,
      "v": 43
    },
    {
      "midi": 57,
      "hit": false,
      "t": 25313.33333333335,
      "d": 108.33333333333576,
      "v": 46
    },
    {
      "midi": 57,
      "hit": false,
      "t": 25566.666666666686,
      "d": 113.33333333333576,
      "v": 54
    },
    {
      "midi": 62,
      "hit": false,
      "t": 25570.833333333354,
      "d": 121.66666666666788,
      "v": 49
    },
    {
      "midi": 66,
      "hit": false,
      "t": 25575.000000000022,
      "d": 150,
      "v": 56
    },
    {
      "midi": 38,
      "hit": false,
      "t": 25600.833333333354,
      "d": 466.66666666666424,
      "v": 74
    },
    {
      "midi": 66,
      "hit": false,
      "t": 25873.333333333354,
      "d": 154.16666666666424,
      "v": 71
    },
    {
      "midi": 62,
      "hit": false,
      "t": 25875.833333333354,
      "d": 135.83333333333212,
      "v": 62
    },
    {
      "midi": 57,
      "hit": false,
      "t": 25878.333333333354,
      "d": 119.16666666666424,
      "v": 71
    },
    {
      "midi": 47,
      "hit": false,
      "t": 25889.166666666686,
      "d": 548.3333333333321,
      "v": 89
    },
    {
      "midi": 66,
      "hit": false,
      "t": 26126.666666666682,
      "d": 106.66666666666788,
      "v": 60
    },
    {
      "midi": 57,
      "hit": false,
      "t": 26135.000000000015,
      "d": 91.66666666666788,
      "v": 55
    },
    {
      "midi": 62,
      "hit": false,
      "t": 26137.500000000015,
      "d": 94.16666666666788,
      "v": 45
    },
    {
      "midi": 66,
      "hit": false,
      "t": 26395.00000000002,
      "d": 138.33333333333212,
      "v": 56
    },
    {
      "midi": 62,
      "hit": false,
      "t": 26397.50000000002,
      "d": 117.5,
      "v": 49
    },
    {
      "midi": 57,
      "hit": false,
      "t": 26402.50000000002,
      "d": 95.83333333333212,
      "v": 60
    },
    {
      "midi": 38,
      "hit": false,
      "t": 26430.83333333335,
      "d": 547.5000000000036,
      "v": 73
    },
    {
      "midi": 66,
      "hit": false,
      "t": 26705.83333333335,
      "d": 147.5,
      "v": 74
    },
    {
      "midi": 62,
      "hit": false,
      "t": 26708.33333333335,
      "d": 139.16666666666788,
      "v": 66
    },
    {
      "midi": 57,
      "hit": false,
      "t": 26713.33333333335,
      "d": 112.5,
      "v": 71
    },
    {
      "midi": 48,
      "hit": false,
      "t": 26716.666666666682,
      "d": 432.5000000000073,
      "v": 79
    },
    {
      "midi": 66,
      "hit": false,
      "t": 26947.50000000002,
      "d": 107.50000000000364,
      "v": 47
    },
    {
      "midi": 62,
      "hit": false,
      "t": 26954.166666666686,
      "d": 99.16666666666788,
      "v": 44
    },
    {
      "midi": 57,
      "hit": false,
      "t": 26965.833333333354,
      "d": 65.83333333333212,
      "v": 52
    },
    {
      "midi": 66,
      "hit": false,
      "t": 27244.16666666669,
      "d": 108.33333333333576,
      "v": 55
    },
    {
      "midi": 38,
      "hit": false,
      "t": 27248.333333333358,
      "d": 476.6666666666715,
      "v": 60
    },
    {
      "midi": 57,
      "hit": false,
      "t": 27253.333333333358,
      "d": 94.16666666666788,
      "v": 55
    },
    {
      "midi": 62,
      "hit": false,
      "t": 27253.333333333358,
      "d": 100.83333333333576,
      "v": 49
    },
    {
      "midi": 66,
      "hit": false,
      "t": 27544.166666666693,
      "d": 133.33333333333576,
      "v": 77
    },
    {
      "midi": 57,
      "hit": false,
      "t": 27547.500000000025,
      "d": 115.83333333333576,
      "v": 77
    },
    {
      "midi": 62,
      "hit": false,
      "t": 27547.500000000025,
      "d": 125.00000000000364,
      "v": 70
    },
    {
      "midi": 47,
      "hit": false,
      "t": 27559.166666666693,
      "d": 346.6666666666679,
      "v": 79
    },
    {
      "midi": 62,
      "hit": false,
      "t": 27796.666666666697,
      "d": 100.83333333333212,
      "v": 57
    },
    {
      "midi": 57,
      "hit": false,
      "t": 27800.00000000003,
      "d": 94.16666666666788,
      "v": 65
    },
    {
      "midi": 66,
      "hit": false,
      "t": 27802.50000000003,
      "d": 100,
      "v": 70
    },
    {
      "midi": 66,
      "hit": false,
      "t": 28072.50000000003,
      "d": 103.33333333333212,
      "v": 61
    },
    {
      "midi": 44,
      "hit": false,
      "t": 28076.666666666697,
      "d": 249.1666666666606,
      "v": 79
    },
    {
      "midi": 37,
      "hit": false,
      "t": 28082.50000000003,
      "d": 209.16666666666424,
      "v": 78
    },
    {
      "midi": 57,
      "hit": false,
      "t": 28083.33333333336,
      "d": 91.66666666666788,
      "v": 57
    },
    {
      "midi": 62,
      "hit": false,
      "t": 28090.83333333336,
      "d": 87.5,
      "v": 56
    },
    {
      "midi": 38,
      "hit": false,
      "t": 28370.833333333358,
      "d": 238.33333333333576,
      "v": 86
    },
    {
      "midi": 45,
      "hit": false,
      "t": 28375.000000000025,
      "d": 848.3333333333321,
      "v": 92
    },
    {
      "midi": 66,
      "hit": false,
      "t": 28382.500000000025,
      "d": 111.66666666666788,
      "v": 47
    },
    {
      "midi": 57,
      "hit": false,
      "t": 28395.000000000025,
      "d": 97.5,
      "v": 57
    },
    {
      "midi": 62,
      "hit": false,
      "t": 28399.166666666693,
      "d": 97.5,
      "v": 55
    },
    {
      "midi": 57,
      "hit": false,
      "t": 28636.666666666693,
      "d": 79.16666666666788,
      "v": 49
    },
    {
      "midi": 66,
      "hit": false,
      "t": 28642.500000000025,
      "d": 84.16666666666788,
      "v": 47
    },
    {
      "midi": 62,
      "hit": false,
      "t": 28652.500000000025,
      "d": 61.66666666666788,
      "v": 40
    },
    {
      "midi": 66,
      "hit": false,
      "t": 28907.500000000025,
      "d": 107.5,
      "v": 46
    },
    {
      "midi": 57,
      "hit": false,
      "t": 28915.833333333358,
      "d": 95,
      "v": 45
    },
    {
      "midi": 62,
      "hit": false,
      "t": 28920.000000000025,
      "d": 92.5,
      "v": 42
    },
    {
      "midi": 38,
      "hit": false,
      "t": 28922.500000000025,
      "d": 610,
      "v": 59
    },
    {
      "midi": 66,
      "hit": false,
      "t": 29215.000000000025,
      "d": 119.16666666666424,
      "v": 75
    },
    {
      "midi": 57,
      "hit": false,
      "t": 29218.333333333358,
      "d": 84.16666666666788,
      "v": 77
    },
    {
      "midi": 62,
      "hit": false,
      "t": 29218.333333333358,
      "d": 102.5,
      "v": 69
    },
    {
      "midi": 47,
      "hit": false,
      "t": 29226.66666666669,
      "d": 652.5,
      "v": 86
    },
    {
      "midi": 66,
      "hit": false,
      "t": 29472.500000000025,
      "d": 92.5,
      "v": 49
    },
    {
      "midi": 57,
      "hit": false,
      "t": 29475.000000000025,
      "d": 74.16666666666788,
      "v": 50
    },
    {
      "midi": 62,
      "hit": false,
      "t": 29477.500000000025,
      "d": 74.16666666666788,
      "v": 47
    },
    {
      "midi": 66,
      "hit": false,
      "t": 29765.000000000025,
      "d": 106.66666666666424,
      "v": 49
    },
    {
      "midi": 57,
      "hit": false,
      "t": 29767.500000000025,
      "d": 98.33333333333212,
      "v": 56
    },
    {
      "midi": 62,
      "hit": false,
      "t": 29775.833333333358,
      "d": 96.66666666666424,
      "v": 54
    },
    {
      "midi": 38,
      "hit": false,
      "t": 29790.833333333358,
      "d": 556.6666666666642,
      "v": 71
    },
    {
      "midi": 66,
      "hit": false,
      "t": 30060.833333333358,
      "d": 113.33333333333212,
      "v": 71
    },
    {
      "midi": 57,
      "hit": false,
      "t": 30063.333333333358,
      "d": 88.33333333333212,
      "v": 78
    },
    {
      "midi": 62,
      "hit": false,
      "t": 30063.333333333358,
      "d": 102.5,
      "v": 66
    },
    {
      "midi": 48,
      "hit": false,
      "t": 30074.16666666669,
      "d": 545.8333333333285,
      "v": 83
    },
    {
      "midi": 57,
      "hit": false,
      "t": 30314.16666666669,
      "d": 97.5,
      "v": 42
    },
    {
      "midi": 66,
      "hit": false,
      "t": 30316.66666666669,
      "d": 97.5,
      "v": 52
    },
    {
      "midi": 62,
      "hit": false,
      "t": 30322.500000000022,
      "d": 77.5,
      "v": 41
    },
    {
      "midi": 66,
      "hit": false,
      "t": 30582.500000000022,
      "d": 123.33333333332848,
      "v": 60
    },
    {
      "midi": 62,
      "hit": false,
      "t": 30592.500000000022,
      "d": 112.49999999999636,
      "v": 52
    },
    {
      "midi": 57,
      "hit": false,
      "t": 30593.333333333354,
      "d": 109.16666666666424,
      "v": 57
    },
    {
      "midi": 38,
      "hit": false,
      "t": 30601.666666666686,
      "d": 430.8333333333321,
      "v": 77
    },
    {
      "midi": 66,
      "hit": false,
      "t": 30875.00000000002,
      "d": 142.5,
      "v": 75
    },
    {
      "midi": 57,
      "hit": false,
      "t": 30880.00000000002,
      "d": 130,
      "v": 70
    },
    {
      "midi": 62,
      "hit": false,
      "t": 30880.83333333335,
      "d": 135.83333333333576,
      "v": 69
    },
    {
      "midi": 47,
      "hit": false,
      "t": 30888.33333333335,
      "d": 463.33333333333576,
      "v": 92
    },
    {
      "midi": 66,
      "hit": false,
      "t": 31136.666666666686,
      "d": 124.16666666666788,
      "v": 67
    },
    {
      "midi": 62,
      "hit": false,
      "t": 31139.166666666686,
      "d": 115.83333333333576,
      "v": 66
    },
    {
      "midi": 57,
      "hit": false,
      "t": 31143.333333333354,
      "d": 100,
      "v": 71
    },
    {
      "midi": 62,
      "hit": false,
      "t": 31397.50000000002,
      "d": 143.33333333333212,
      "v": 60
    },
    {
      "midi": 66,
      "hit": false,
      "t": 31400.00000000002,
      "d": 130.83333333333212,
      "v": 71
    },
    {
      "midi": 57,
      "hit": false,
      "t": 31407.50000000002,
      "d": 100.83333333333212,
      "v": 71
    },
    {
      "midi": 38,
      "hit": false,
      "t": 31413.33333333335,
      "d": 237.5,
      "v": 83
    },
    {
      "midi": 64,
      "hit": false,
      "t": 31681.666666666682,
      "d": 113.33333333333212,
      "v": 77
    },
    {
      "midi": 69,
      "hit": false,
      "t": 31687.500000000015,
      "d": 139.16666666666788,
      "v": 77
    },
    {
      "midi": 57,
      "hit": false,
      "t": 31690.000000000015,
      "d": 97.5,
      "v": 79
    },
    {
      "midi": 33,
      "hit": false,
      "t": 31695.833333333347,
      "d": 1034.1666666666752,
      "v": 92
    },
    {
      "midi": 64,
      "hit": false,
      "t": 31945.833333333347,
      "d": 90.00000000000364,
      "v": 50
    },
    {
      "midi": 69,
      "hit": false,
      "t": 31947.500000000015,
      "d": 95.83333333333576,
      "v": 63
    },
    {
      "midi": 57,
      "hit": false,
      "t": 31952.500000000015,
      "d": 74.16666666666788,
      "v": 57
    },
    {
      "midi": 69,
      "hit": false,
      "t": 32225.83333333335,
      "d": 91.66666666666788,
      "v": 74
    },
    {
      "midi": 64,
      "hit": false,
      "t": 32228.33333333335,
      "d": 79.16666666666788,
      "v": 66
    },
    {
      "midi": 57,
      "hit": false,
      "t": 32230.00000000002,
      "d": 71.66666666666788,
      "v": 71
    },
    {
      "midi": 69,
      "hit": false,
      "t": 32500.83333333335,
      "d": 106.66666666667152,
      "v": 78
    },
    {
      "midi": 64,
      "hit": false,
      "t": 32502.50000000002,
      "d": 90.83333333333576,
      "v": 77
    },
    {
      "midi": 57,
      "hit": false,
      "t": 32506.666666666686,
      "d": 80,
      "v": 83
    },
    {
      "midi": 45,
      "hit": false,
      "t": 32517.50000000002,
      "d": 513.3333333333321,
      "v": 89
    },
    {
      "midi": 69,
      "hit": false,
      "t": 32760.833333333354,
      "d": 89.99999999999636,
      "v": 75
    },
    {
      "midi": 57,
      "hit": false,
      "t": 32763.333333333354,
      "d": 74.16666666666788,
      "v": 73
    },
    {
      "midi": 64,
      "hit": false,
      "t": 32763.333333333354,
      "d": 83.33333333333212,
      "v": 61
    },
    {
      "midi": 40,
      "hit": false,
      "t": 32771.666666666686,
      "d": 273.33333333333576,
      "v": 78
    },
    {
      "midi": 69,
      "hit": false,
      "t": 33036.666666666686,
      "d": 130.83333333333576,
      "v": 75
    },
    {
      "midi": 64,
      "hit": false,
      "t": 33040.00000000002,
      "d": 107.5,
      "v": 69
    },
    {
      "midi": 57,
      "hit": false,
      "t": 33045.00000000002,
      "d": 80.83333333333576,
      "v": 77
    },
    {
      "midi": 33,
      "hit": false,
      "t": 33045.00000000002,
      "d": 170.83333333333576,
      "v": 86
    },
    {
      "midi": 32,
      "hit": false,
      "t": 33312.50000000002,
      "d": 1063.3333333333358,
      "v": 108
    },
    {
      "midi": 64,
      "hit": false,
      "t": 33316.666666666686,
      "d": 115.83333333333576,
      "v": 71
    },
    {
      "midi": 68,
      "hit": false,
      "t": 33320.00000000002,
      "d": 143.33333333333576,
      "v": 89
    },
    {
      "midi": 59,
      "hit": false,
      "t": 33325.00000000002,
      "d": 105.83333333333576,
      "v": 86
    },
    {
      "midi": 59,
      "hit": false,
      "t": 33595.83333333336,
      "d": 85,
      "v": 65
    },
    {
      "midi": 68,
      "hit": false,
      "t": 33598.33333333336,
      "d": 96.66666666667152,
      "v": 63
    },
    {
      "midi": 64,
      "hit": false,
      "t": 33602.50000000002,
      "d": 89.16666666667152,
      "v": 60
    },
    {
      "midi": 64,
      "hit": false,
      "t": 33845.833333333365,
      "d": 126.66666666666424,
      "v": 62
    },
    {
      "midi": 68,
      "hit": false,
      "t": 33855.833333333365,
      "d": 121.66666666666424,
      "v": 70
    },
    {
      "midi": 59,
      "hit": false,
      "t": 33860.00000000003,
      "d": 95,
      "v": 75
    },
    {
      "midi": 64,
      "hit": false,
      "t": 34127.50000000003,
      "d": 129.16666666666424,
      "v": 71
    },
    {
      "midi": 59,
      "hit": false,
      "t": 34130.00000000003,
      "d": 107.5,
      "v": 89
    },
    {
      "midi": 68,
      "hit": false,
      "t": 34132.50000000003,
      "d": 140.83333333332848,
      "v": 92
    },
    {
      "midi": 44,
      "hit": false,
      "t": 34141.66666666669,
      "d": 314.9999999999927,
      "v": 92
    },
    {
      "midi": 64,
      "hit": false,
      "t": 34390.00000000002,
      "d": 115.83333333333576,
      "v": 66
    },
    {
      "midi": 68,
      "hit": false,
      "t": 34396.666666666686,
      "d": 114.16666666667152,
      "v": 75
    },
    {
      "midi": 59,
      "hit": false,
      "t": 34399.166666666686,
      "d": 80.83333333333576,
      "v": 77
    },
    {
      "midi": 64,
      "hit": false,
      "t": 34650.83333333336,
      "d": 126.66666666666424,
      "v": 70
    },
    {
      "midi": 59,
      "hit": false,
      "t": 34661.66666666669,
      "d": 90.83333333332848,
      "v": 75
    },
    {
      "midi": 68,
      "hit": false,
      "t": 34669.16666666669,
      "d": 80.83333333332848,
      "v": 60
    },
    {
      "midi": 37,
      "hit": false,
      "t": 34670.83333333336,
      "d": 270,
      "v": 89
    },
    {
      "midi": 61,
      "hit": false,
      "t": 34946.66666666669,
      "d": 128.33333333334303,
      "v": 75
    },
    {
      "midi": 66,
      "hit": false,
      "t": 34950.00000000003,
      "d": 150.00000000000728,
      "v": 78
    },
    {
      "midi": 57,
      "hit": false,
      "t": 34952.50000000003,
      "d": 108.33333333333576,
      "v": 79
    },
    {
      "midi": 64,
      "hit": false,
      "t": 34955.833333333365,
      "d": 124.16666666667152,
      "v": 71
    },
    {
      "midi": 30,
      "hit": false,
      "t": 34958.333333333365,
      "d": 103.33333333333576,
      "v": 79
    },
    {
      "midi": 69,
      "hit": false,
      "t": 34965.833333333365,
      "d": 129.16666666667152,
      "v": 77
    },
    {
      "midi": 42,
      "hit": false,
      "t": 34965.833333333365,
      "d": 1107.5,
      "v": 108
    },
    {
      "midi": 57,
      "hit": false,
      "t": 35216.6666666667,
      "d": 95.83333333332848,
      "v": 46
    },
    {
      "midi": 61,
      "hit": false,
      "t": 35225.833333333365,
      "d": 92.5,
      "v": 51
    },
    {
      "midi": 69,
      "hit": false,
      "t": 35230.833333333365,
      "d": 105,
      "v": 47
    },
    {
      "midi": 64,
      "hit": false,
      "t": 35235.833333333365,
      "d": 96.66666666666424,
      "v": 54
    },
    {
      "midi": 66,
      "hit": false,
      "t": 35240.00000000003,
      "d": 98.33333333333576,
      "v": 47
    },
    {
      "midi": 61,
      "hit": false,
      "t": 35512.50000000003,
      "d": 117.5,
      "v": 55
    },
    {
      "midi": 69,
      "hit": false,
      "t": 35521.66666666669,
      "d": 105.83333333333576,
      "v": 57
    },
    {
      "midi": 64,
      "hit": false,
      "t": 35525.00000000003,
      "d": 115.83333333333576,
      "v": 50
    },
    {
      "midi": 57,
      "hit": false,
      "t": 35528.333333333365,
      "d": 89.16666666666424,
      "v": 55
    },
    {
      "midi": 66,
      "hit": false,
      "t": 35528.333333333365,
      "d": 121.66666666666424,
      "v": 60
    },
    {
      "midi": 61,
      "hit": false,
      "t": 35797.50000000003,
      "d": 131.66666666666424,
      "v": 86
    },
    {
      "midi": 64,
      "hit": false,
      "t": 35800.00000000003,
      "d": 136.66666666666424,
      "v": 66
    },
    {
      "midi": 66,
      "hit": false,
      "t": 35803.333333333365,
      "d": 149.16666666666424,
      "v": 77
    },
    {
      "midi": 57,
      "hit": false,
      "t": 35805.00000000003,
      "d": 100,
      "v": 79
    },
    {
      "midi": 69,
      "hit": false,
      "t": 35810.00000000003,
      "d": 125,
      "v": 75
    },
    {
      "midi": 61,
      "hit": false,
      "t": 36055.00000000003,
      "d": 129.16666666667152,
      "v": 63
    },
    {
      "midi": 57,
      "hit": false,
      "t": 36056.66666666669,
      "d": 109.16666666667152,
      "v": 74
    },
    {
      "midi": 64,
      "hit": false,
      "t": 36060.00000000003,
      "d": 130,
      "v": 54
    },
    {
      "midi": 66,
      "hit": false,
      "t": 36063.333333333365,
      "d": 131.66666666666424,
      "v": 69
    },
    {
      "midi": 69,
      "hit": false,
      "t": 36065.833333333365,
      "d": 100.83333333333576,
      "v": 70
    },
    {
      "midi": 49,
      "hit": false,
      "t": 36080.00000000003,
      "d": 228.33333333333576,
      "v": 95
    },
    {
      "midi": 61,
      "hit": false,
      "t": 36322.50000000003,
      "d": 133.33333333333576,
      "v": 55
    },
    {
      "midi": 66,
      "hit": false,
      "t": 36328.333333333365,
      "d": 146.66666666666424,
      "v": 71
    },
    {
      "midi": 57,
      "hit": false,
      "t": 36330.833333333365,
      "d": 95,
      "v": 71
    },
    {
      "midi": 69,
      "hit": false,
      "t": 36332.50000000003,
      "d": 109.16666666667152,
      "v": 62
    },
    {
      "midi": 64,
      "hit": false,
      "t": 36340.00000000003,
      "d": 122.5,
      "v": 67
    },
    {
      "midi": 42,
      "hit": false,
      "t": 36340.00000000003,
      "d": 192.5,
      "v": 89
    },
    {
      "midi": 49,
      "hit": false,
      "t": 36592.50000000003,
      "d": 315.8333333333212,
      "v": 99
    },
    {
      "midi": 40,
      "hit": false,
      "t": 36595.00000000003,
      "d": 900.8333333333139,
      "v": 83
    },
    {
      "midi": 61,
      "hit": false,
      "t": 36600.00000000003,
      "d": 125.83333333332848,
      "v": 67
    },
    {
      "midi": 64,
      "hit": false,
      "t": 36600.00000000003,
      "d": 131.66666666666424,
      "v": 78
    },
    {
      "midi": 57,
      "hit": false,
      "t": 36606.66666666669,
      "d": 96.66666666666424,
      "v": 78
    },
    {
      "midi": 69,
      "hit": false,
      "t": 36606.66666666669,
      "d": 126.66666666666424,
      "v": 73
    },
    {
      "midi": 61,
      "hit": false,
      "t": 36870.83333333336,
      "d": 100.83333333333576,
      "v": 60
    },
    {
      "midi": 64,
      "hit": false,
      "t": 36872.50000000002,
      "d": 95,
      "v": 67
    },
    {
      "midi": 69,
      "hit": false,
      "t": 36876.666666666686,
      "d": 91.66666666667152,
      "v": 70
    },
    {
      "midi": 57,
      "hit": false,
      "t": 36881.666666666686,
      "d": 80,
      "v": 61
    },
    {
      "midi": 61,
      "hit": false,
      "t": 37140.83333333336,
      "d": 101.66666666665697,
      "v": 67
    },
    {
      "midi": 64,
      "hit": false,
      "t": 37142.50000000002,
      "d": 98.33333333332848,
      "v": 60
    },
    {
      "midi": 69,
      "hit": false,
      "t": 37144.166666666686,
      "d": 102.49999999999272,
      "v": 71
    },
    {
      "midi": 57,
      "hit": false,
      "t": 37150.83333333335,
      "d": 77.5,
      "v": 65
    },
    {
      "midi": 61,
      "hit": false,
      "t": 37419.16666666668,
      "d": 119.16666666667152,
      "v": 78
    },
    {
      "midi": 64,
      "hit": false,
      "t": 37421.66666666668,
      "d": 114.16666666667152,
      "v": 78
    },
    {
      "midi": 69,
      "hit": false,
      "t": 37425.83333333334,
      "d": 124.16666666667152,
      "v": 83
    },
    {
      "midi": 57,
      "hit": false,
      "t": 37426.66666666668,
      "d": 90,
      "v": 78
    },
    {
      "midi": 49,
      "hit": false,
      "t": 37434.16666666668,
      "d": 209.16666666667152,
      "v": 92
    },
    {
      "midi": 64,
      "hit": false,
      "t": 37675.83333333335,
      "d": 126.66666666666424,
      "v": 62
    },
    {
      "midi": 61,
      "hit": false,
      "t": 37680.000000000015,
      "d": 116.66666666666424,
      "v": 62
    },
    {
      "midi": 69,
      "hit": false,
      "t": 37681.66666666668,
      "d": 115.83333333333576,
      "v": 73
    },
    {
      "midi": 57,
      "hit": false,
      "t": 37687.500000000015,
      "d": 95,
      "v": 75
    },
    {
      "midi": 40,
      "hit": false,
      "t": 37701.66666666668,
      "d": 201.66666666667152,
      "v": 78
    },
    {
      "midi": 69,
      "hit": false,
      "t": 37948.33333333335,
      "d": 125,
      "v": 65
    },
    {
      "midi": 64,
      "hit": false,
      "t": 37952.500000000015,
      "d": 118.33333333333576,
      "v": 62
    },
    {
      "midi": 42,
      "hit": false,
      "t": 37955.83333333335,
      "d": 260,
      "v": 92
    },
    {
      "midi": 61,
      "hit": false,
      "t": 37957.500000000015,
      "d": 99.16666666667152,
      "v": 71
    },
    {
      "midi": 57,
      "hit": false,
      "t": 37965.000000000015,
      "d": 85.83333333333576,
      "v": 71
    },
    {
      "midi": 63,
      "hit": false,
      "t": 38230.83333333335,
      "d": 140,
      "v": 77
    },
    {
      "midi": 47,
      "hit": false,
      "t": 38233.33333333335,
      "d": 2817.499999999978,
      "v": 95
    },
    {
      "midi": 57,
      "hit": false,
      "t": 38237.500000000015,
      "d": 99.16666666667152,
      "v": 77
    },
    {
      "midi": 35,
      "hit": false,
      "t": 38240.83333333335,
      "d": 319.16666666666424,
      "v": 95
    },
    {
      "midi": 71,
      "hit": false,
      "t": 38248.33333333335,
      "d": 122.5,
      "v": 78
    },
    {
      "midi": 63,
      "hit": false,
      "t": 38505.83333333335,
      "d": 109.16666666666424,
      "v": 51
    },
    {
      "midi": 71,
      "hit": false,
      "t": 38514.166666666686,
      "d": 94.16666666666424,
      "v": 54
    },
    {
      "midi": 57,
      "hit": false,
      "t": 38518.33333333335,
      "d": 91.66666666666424,
      "v": 52
    },
    {
      "midi": 63,
      "hit": false,
      "t": 38780.000000000015,
      "d": 114.16666666667152,
      "v": 59
    },
    {
      "midi": 57,
      "hit": false,
      "t": 38785.83333333335,
      "d": 97.5,
      "v": 52
    },
    {
      "midi": 71,
      "hit": false,
      "t": 38790.83333333335,
      "d": 109.16666666667152,
      "v": 60
    },
    {
      "midi": 35,
      "hit": false,
      "t": 38800.83333333335,
      "d": 239.16666666667152,
      "v": 89
    },
    {
      "midi": 37,
      "hit": false,
      "t": 39087.50000000002,
      "d": 310,
      "v": 95
    },
    {
      "midi": 71,
      "hit": false,
      "t": 39090.00000000002,
      "d": 143.33333333333576,
      "v": 78
    },
    {
      "midi": 64,
      "hit": false,
      "t": 39093.33333333336,
      "d": 129.16666666666424,
      "v": 74
    },
    {
      "midi": 57,
      "hit": false,
      "t": 39095.83333333336,
      "d": 115,
      "v": 73
    },
    {
      "midi": 64,
      "hit": false,
      "t": 39355.83333333336,
      "d": 98.33333333332848,
      "v": 63
    },
    {
      "midi": 57,
      "hit": false,
      "t": 39358.33333333336,
      "d": 91.66666666666424,
      "v": 56
    },
    {
      "midi": 71,
      "hit": false,
      "t": 39362.50000000002,
      "d": 93.33333333332848,
      "v": 66
    },
    {
      "midi": 71,
      "hit": false,
      "t": 39640.83333333335,
      "d": 135,
      "v": 66
    },
    {
      "midi": 57,
      "hit": false,
      "t": 39645.000000000015,
      "d": 98.33333333333576,
      "v": 59
    },
    {
      "midi": 37,
      "hit": false,
      "t": 39645.000000000015,
      "d": 192.50000000000728,
      "v": 78
    },
    {
      "midi": 64,
      "hit": false,
      "t": 39650.000000000015,
      "d": 136.66666666667152,
      "v": 66
    },
    {
      "midi": 38,
      "hit": false,
      "t": 39920.00000000002,
      "d": 246.66666666666424,
      "v": 92
    },
    {
      "midi": 65,
      "hit": false,
      "t": 39925.83333333336,
      "d": 156.66666666666424,
      "v": 89
    },
    {
      "midi": 57,
      "hit": false,
      "t": 39930.00000000002,
      "d": 128.33333333333576,
      "v": 86
    },
    {
      "midi": 71,
      "hit": false,
      "t": 39930.00000000002,
      "d": 157.5,
      "v": 86
    },
    {
      "midi": 57,
      "hit": false,
      "t": 40193.33333333335,
      "d": 99.16666666666424,
      "v": 63
    },
    {
      "midi": 65,
      "hit": false,
      "t": 40195.83333333335,
      "d": 100.83333333332848,
      "v": 56
    },
    {
      "midi": 71,
      "hit": false,
      "t": 40198.33333333335,
      "d": 99.16666666666424,
      "v": 56
    },
    {
      "midi": 65,
      "hit": false,
      "t": 40459.16666666668,
      "d": 116.66666666666424,
      "v": 63
    },
    {
      "midi": 57,
      "hit": false,
      "t": 40462.500000000015,
      "d": 114.99999999999272,
      "v": 69
    },
    {
      "midi": 71,
      "hit": false,
      "t": 40466.66666666668,
      "d": 129.16666666666424,
      "v": 70
    },
    {
      "midi": 38,
      "hit": false,
      "t": 40466.66666666668,
      "d": 245.83333333332848,
      "v": 71
    },
    {
      "midi": 39,
      "hit": false,
      "t": 40734.16666666667,
      "d": 213.3333333333212,
      "v": 99
    },
    {
      "midi": 71,
      "hit": false,
      "t": 40738.333333333336,
      "d": 143.33333333332848,
      "v": 77
    },
    {
      "midi": 66,
      "hit": false,
      "t": 40742.5,
      "d": 143.33333333332848,
      "v": 92
    },
    {
      "midi": 57,
      "hit": false,
      "t": 40744.166666666664,
      "d": 113.33333333333576,
      "v": 86
    },
    {
      "midi": 66,
      "hit": false,
      "t": 41010.83333333333,
      "d": 108.33333333333576,
      "v": 78
    },
    {
      "midi": 71,
      "hit": false,
      "t": 41014.99999999999,
      "d": 115.00000000000728,
      "v": 75
    },
    {
      "midi": 57,
      "hit": false,
      "t": 41018.33333333333,
      "d": 87.5,
      "v": 83
    },
    {
      "midi": 57,
      "hit": false,
      "t": 41271.666666666664,
      "d": 69.16666666666424,
      "v": 79
    },
    {
      "midi": 66,
      "hit": false,
      "t": 41276.666666666664,
      "d": 94.16666666666424,
      "v": 79
    },
    {
      "midi": 71,
      "hit": false,
      "t": 41279.166666666664,
      "d": 110.83333333332848,
      "v": 69
    },
    {
      "midi": 46,
      "hit": false,
      "t": 41295,
      "d": 154.16666666665697,
      "v": 86
    },
    {
      "midi": 39,
      "hit": false,
      "t": 41296.666666666664,
      "d": 149.99999999999272,
      "v": 77
    },
    {
      "midi": 70,
      "hit": false,
      "t": 41542.499999999985,
      "d": 102.5,
      "v": 86
    },
    {
      "midi": 40,
      "hit": false,
      "t": 41545.83333333332,
      "d": 256.66666666666424,
      "v": 89
    },
    {
      "midi": 76,
      "hit": false,
      "t": 41549.999999999985,
      "d": 152.5,
      "v": 89
    },
    {
      "midi": 47,
      "hit": false,
      "t": 41552.499999999985,
      "d": 658.3333333333358,
      "v": 99
    },
    {
      "midi": 64,
      "hit": false,
      "t": 41557.499999999985,
      "d": 119.16666666666424,
      "v": 92
    },
    {
      "midi": 71,
      "hit": false,
      "t": 41562.499999999985,
      "d": 134.16666666666424,
      "v": 75
    },
    {
      "midi": 71,
      "hit": false,
      "t": 41822.499999999985,
      "d": 108.33333333333576,
      "v": 67
    },
    {
      "midi": 76,
      "hit": false,
      "t": 41824.999999999985,
      "d": 114.16666666667152,
      "v": 77
    },
    {
      "midi": 64,
      "hit": false,
      "t": 41828.33333333332,
      "d": 86.66666666666424,
      "v": 75
    },
    {
      "midi": 71,
      "hit": false,
      "t": 42089.99999999999,
      "d": 140.83333333332848,
      "v": 74
    },
    {
      "midi": 64,
      "hit": false,
      "t": 42096.66666666666,
      "d": 100,
      "v": 77
    },
    {
      "midi": 76,
      "hit": false,
      "t": 42096.66666666666,
      "d": 135,
      "v": 74
    },
    {
      "midi": 40,
      "hit": false,
      "t": 42104.99999999999,
      "d": 457.5000000000073,
      "v": 75
    },
    {
      "midi": 76,
      "hit": false,
      "t": 42369.99999999999,
      "d": 141.66666666667152,
      "v": 83
    },
    {
      "midi": 64,
      "hit": false,
      "t": 42373.33333333333,
      "d": 109.16666666666424,
      "v": 102
    },
    {
      "midi": 71,
      "hit": false,
      "t": 42378.33333333333,
      "d": 130.83333333333576,
      "v": 89
    },
    {
      "midi": 49,
      "hit": false,
      "t": 42378.33333333333,
      "d": 549.1666666666642,
      "v": 95
    },
    {
      "midi": 71,
      "hit": false,
      "t": 42627.5,
      "d": 120.83333333332848,
      "v": 69
    },
    {
      "midi": 76,
      "hit": false,
      "t": 42635.833333333336,
      "d": 110.83333333332848,
      "v": 71
    },
    {
      "midi": 64,
      "hit": false,
      "t": 42640,
      "d": 86.66666666666424,
      "v": 71
    },
    {
      "midi": 71,
      "hit": false,
      "t": 42899.99999999999,
      "d": 160.83333333333576,
      "v": 75
    },
    {
      "midi": 76,
      "hit": false,
      "t": 42903.33333333333,
      "d": 132.5,
      "v": 86
    },
    {
      "midi": 64,
      "hit": false,
      "t": 42907.49999999999,
      "d": 95.83333333333576,
      "v": 89
    },
    {
      "midi": 40,
      "hit": false,
      "t": 42909.99999999999,
      "d": 450.83333333333576,
      "v": 78
    },
    {
      "midi": 76,
      "hit": false,
      "t": 43169.99999999999,
      "d": 140,
      "v": 78
    },
    {
      "midi": 71,
      "hit": false,
      "t": 43173.33333333333,
      "d": 142.5,
      "v": 86
    },
    {
      "midi": 74,
      "hit": false,
      "t": 43177.49999999999,
      "d": 155,
      "v": 73
    },
    {
      "midi": 50,
      "hit": false,
      "t": 43177.49999999999,
      "d": 409.16666666666424,
      "v": 89
    },
    {
      "midi": 64,
      "hit": false,
      "t": 43185.83333333333,
      "d": 110,
      "v": 102
    },
    {
      "midi": 71,
      "hit": false,
      "t": 43430.83333333333,
      "d": 125,
      "v": 70
    },
    {
      "midi": 64,
      "hit": false,
      "t": 43434.99999999999,
      "d": 100.83333333333576,
      "v": 79
    },
    {
      "midi": 74,
      "hit": false,
      "t": 43438.33333333333,
      "d": 131.66666666666424,
      "v": 67
    },
    {
      "midi": 76,
      "hit": false,
      "t": 43439.166666666664,
      "d": 108.33333333332848,
      "v": 73
    },
    {
      "midi": 71,
      "hit": false,
      "t": 43698.33333333332,
      "d": 122.49999999999272,
      "v": 77
    },
    {
      "midi": 74,
      "hit": false,
      "t": 43702.499999999985,
      "d": 141.66666666665697,
      "v": 62
    },
    {
      "midi": 64,
      "hit": false,
      "t": 43706.66666666665,
      "d": 100,
      "v": 92
    },
    {
      "midi": 76,
      "hit": false,
      "t": 43706.66666666665,
      "d": 123.33333333332848,
      "v": 69
    },
    {
      "midi": 40,
      "hit": false,
      "t": 43713.333333333314,
      "d": 367.5,
      "v": 79
    },
    {
      "midi": 49,
      "hit": false,
      "t": 43966.66666666664,
      "d": 108.33333333333576,
      "v": 99
    },
    {
      "midi": 76,
      "hit": false,
      "t": 43969.99999999998,
      "d": 142.50000000000728,
      "v": 71
    },
    {
      "midi": 71,
      "hit": false,
      "t": 43974.99999999998,
      "d": 135.00000000000728,
      "v": 77
    },
    {
      "midi": 74,
      "hit": false,
      "t": 43977.49999999998,
      "d": 146.66666666667152,
      "v": 65
    },
    {
      "midi": 64,
      "hit": false,
      "t": 43981.66666666664,
      "d": 112.50000000000728,
      "v": 95
    },
    {
      "midi": 71,
      "hit": false,
      "t": 44228.333333333314,
      "d": 130.83333333332848,
      "v": 79
    },
    {
      "midi": 64,
      "hit": false,
      "t": 44232.49999999998,
      "d": 97.5,
      "v": 79
    },
    {
      "midi": 76,
      "hit": false,
      "t": 44236.66666666664,
      "d": 105.83333333333576,
      "v": 79
    },
    {
      "midi": 74,
      "hit": false,
      "t": 44241.66666666664,
      "d": 119.16666666666424,
      "v": 67
    },
    {
      "midi": 71,
      "hit": false,
      "t": 44474.99999999997,
      "d": 100.00000000000728,
      "v": 77
    },
    {
      "midi": 64,
      "hit": false,
      "t": 44478.33333333331,
      "d": 75.83333333333576,
      "v": 79
    },
    {
      "midi": 76,
      "hit": false,
      "t": 44482.49999999997,
      "d": 117.50000000000728,
      "v": 71
    },
    {
      "midi": 74,
      "hit": false,
      "t": 44486.666666666635,
      "d": 119.1666666666788,
      "v": 62
    },
    {
      "midi": 32,
      "hit": false,
      "t": 44489.99999999997,
      "d": 175.00000000000728,
      "v": 92
    },
    {
      "midi": 39,
      "hit": false,
      "t": 44495.83333333331,
      "d": 190.00000000000728,
      "v": 79
    },
    {
      "midi": 75,
      "hit": false,
      "t": 44758.333333333314,
      "d": 76.66666666667152,
      "v": 99
    },
    {
      "midi": 69,
      "hit": false,
      "t": 44761.66666666665,
      "d": 113.33333333333576,
      "v": 108
    },
    {
      "midi": 76,
      "hit": false,
      "t": 44767.499999999985,
      "d": 150,
      "v": 95
    },
    {
      "midi": 81,
      "hit": false,
      "t": 44770.83333333332,
      "d": 2619.1666666666497,
      "v": 105
    },
    {
      "midi": 33,
      "hit": false,
      "t": 44777.499999999985,
      "d": 192.5,
      "v": 86
    },
    {
      "midi": 40,
      "hit": false,
      "t": 44777.499999999985,
      "d": 260,
      "v": 89
    },
    {
      "midi": 79,
      "hit": false,
      "t": 45020.83333333332,
      "d": 123.33333333332848,
      "v": 67
    },
    {
      "midi": 76,
      "hit": false,
      "t": 45029.999999999985,
      "d": 100,
      "v": 56
    },
    {
      "midi": 69,
      "hit": false,
      "t": 45039.999999999985,
      "d": 75,
      "v": 61
    },
    {
      "midi": 69,
      "hit": false,
      "t": 45288.333333333314,
      "d": 81.66666666666424,
      "v": 66
    },
    {
      "midi": 79,
      "hit": false,
      "t": 45292.49999999998,
      "d": 123.33333333332848,
      "v": 59
    },
    {
      "midi": 76,
      "hit": false,
      "t": 45295.833333333314,
      "d": 95.83333333332848,
      "v": 56
    },
    {
      "midi": 33,
      "hit": false,
      "t": 45315.833333333314,
      "d": 489.16666666666424,
      "v": 71
    },
    {
      "midi": 79,
      "hit": false,
      "t": 45588.33333333331,
      "d": 152.50000000000728,
      "v": 77
    },
    {
      "midi": 69,
      "hit": false,
      "t": 45591.66666666664,
      "d": 106.66666666667152,
      "v": 83
    },
    {
      "midi": 76,
      "hit": false,
      "t": 45594.99999999998,
      "d": 121.66666666667152,
      "v": 86
    },
    {
      "midi": 42,
      "hit": false,
      "t": 45598.333333333314,
      "d": 331.66666666666424,
      "v": 108
    },
    {
      "midi": 69,
      "hit": false,
      "t": 45866.66666666664,
      "d": 80.83333333333576,
      "v": 61
    },
    {
      "midi": 76,
      "hit": false,
      "t": 45870.83333333331,
      "d": 92.50000000000728,
      "v": 66
    },
    {
      "midi": 79,
      "hit": false,
      "t": 45870.83333333331,
      "d": 120.00000000000728,
      "v": 60
    },
    {
      "midi": 69,
      "hit": false,
      "t": 46124.16666666665,
      "d": 94.16666666666424,
      "v": 62
    },
    {
      "midi": 76,
      "hit": false,
      "t": 46126.66666666665,
      "d": 105,
      "v": 57
    },
    {
      "midi": 79,
      "hit": false,
      "t": 46130.833333333314,
      "d": 130,
      "v": 56
    },
    {
      "midi": 33,
      "hit": false,
      "t": 46138.333333333314,
      "d": 462.5,
      "v": 77
    },
    {
      "midi": 76,
      "hit": false,
      "t": 46399.99999999998,
      "d": 125,
      "v": 78
    },
    {
      "midi": 79,
      "hit": false,
      "t": 46403.333333333314,
      "d": 147.5,
      "v": 74
    },
    {
      "midi": 43,
      "hit": false,
      "t": 46403.333333333314,
      "d": 308.3333333333285,
      "v": 79
    },
    {
      "midi": 69,
      "hit": false,
      "t": 46409.99999999998,
      "d": 105,
      "v": 79
    },
    {
      "midi": 69,
      "hit": false,
      "t": 46661.66666666665,
      "d": 89.99999999999272,
      "v": 66
    },
    {
      "midi": 76,
      "hit": false,
      "t": 46670.833333333314,
      "d": 89.16666666666424,
      "v": 65
    },
    {
      "midi": 79,
      "hit": false,
      "t": 46674.99999999998,
      "d": 121.66666666666424,
      "v": 63
    },
    {
      "midi": 76,
      "hit": false,
      "t": 46928.33333333331,
      "d": 123.33333333333576,
      "v": 69
    },
    {
      "midi": 69,
      "hit": false,
      "t": 46930.83333333331,
      "d": 95,
      "v": 71
    },
    {
      "midi": 79,
      "hit": false,
      "t": 46934.99999999997,
      "d": 138.33333333333576,
      "v": 59
    },
    {
      "midi": 33,
      "hit": false,
      "t": 46940.83333333331,
      "d": 360.8333333333285,
      "v": 77
    },
    {
      "midi": 76,
      "hit": false,
      "t": 47195.83333333331,
      "d": 146.66666666666424,
      "v": 79
    },
    {
      "midi": 79,
      "hit": false,
      "t": 47199.99999999997,
      "d": 165,
      "v": 77
    },
    {
      "midi": 69,
      "hit": false,
      "t": 47204.99999999997,
      "d": 115,
      "v": 77
    },
    {
      "midi": 42,
      "hit": false,
      "t": 47206.666666666635,
      "d": 180,
      "v": 99
    },
    {
      "midi": 81,
      "hit": false,
      "t": 47453.33333333331,
      "d": 129.16666666666424,
      "v": 59
    },
    {
      "midi": 69,
      "hit": false,
      "t": 47464.16666666664,
      "d": 90.83333333332848,
      "v": 74
    },
    {
      "midi": 76,
      "hit": false,
      "t": 47466.66666666664,
      "d": 119.99999999999272,
      "v": 71
    },
    {
      "midi": 79,
      "hit": false,
      "t": 47470.83333333331,
      "d": 126.66666666666424,
      "v": 75
    },
    {
      "midi": 76,
      "hit": false,
      "t": 47713.33333333331,
      "d": 171.66666666667152,
      "v": 77
    },
    {
      "midi": 79,
      "hit": false,
      "t": 47717.49999999997,
      "d": 166.66666666667152,
      "v": 73
    },
    {
      "midi": 69,
      "hit": false,
      "t": 47721.666666666635,
      "d": 120.83333333333576,
      "v": 79
    },
    {
      "midi": 32,
      "hit": false,
      "t": 47725.8333333333,
      "d": 126.66666666667152,
      "v": 78
    },
    {
      "midi": 39,
      "hit": false,
      "t": 47726.666666666635,
      "d": 179.1666666666788,
      "v": 86
    },
    {
      "midi": 81,
      "hit": false,
      "t": 47732.49999999997,
      "d": 148.33333333333576,
      "v": 74
    },
    {
      "midi": 73,
      "hit": false,
      "t": 47997.49999999998,
      "d": 142.50000000000728,
      "v": 79
    },
    {
      "midi": 79,
      "hit": false,
      "t": 48000.833333333314,
      "d": 175.83333333333576,
      "v": 73
    },
    {
      "midi": 67,
      "hit": false,
      "t": 48003.333333333314,
      "d": 137.50000000000728,
      "v": 86
    },
    {
      "midi": 76,
      "hit": false,
      "t": 48008.333333333314,
      "d": 136.66666666667152,
      "v": 77
    },
    {
      "midi": 81,
      "hit": false,
      "t": 48008.333333333314,
      "d": 2526.666666666679,
      "v": 83
    },
    {
      "midi": 33,
      "hit": false,
      "t": 48015.833333333314,
      "d": 200.83333333333576,
      "v": 89
    },
    {
      "midi": 40,
      "hit": false,
      "t": 48015.833333333314,
      "d": 260.0000000000073,
      "v": 89
    },
    {
      "midi": 76,
      "hit": false,
      "t": 48269.999999999985,
      "d": 95.83333333333576,
      "v": 55
    },
    {
      "midi": 79,
      "hit": false,
      "t": 48273.33333333332,
      "d": 124.16666666666424,
      "v": 45
    },
    {
      "midi": 67,
      "hit": false,
      "t": 48278.33333333332,
      "d": 83.33333333333576,
      "v": 57
    },
    {
      "midi": 73,
      "hit": false,
      "t": 48281.66666666666,
      "d": 61.66666666666424,
      "v": 51
    },
    {
      "midi": 73,
      "hit": false,
      "t": 48526.66666666665,
      "d": 120.83333333332848,
      "v": 67
    },
    {
      "midi": 79,
      "hit": false,
      "t": 48528.333333333314,
      "d": 166.66666666666424,
      "v": 59
    },
    {
      "midi": 76,
      "hit": false,
      "t": 48532.49999999998,
      "d": 137.5,
      "v": 60
    },
    {
      "midi": 67,
      "hit": false,
      "t": 48534.16666666664,
      "d": 101.66666666667152,
      "v": 60
    },
    {
      "midi": 33,
      "hit": false,
      "t": 48539.99999999998,
      "d": 502.4999999999927,
      "v": 78
    },
    {
      "midi": 76,
      "hit": false,
      "t": 48810.833333333314,
      "d": 128.33333333332848,
      "v": 70
    },
    {
      "midi": 67,
      "hit": false,
      "t": 48813.333333333314,
      "d": 127.49999999999272,
      "v": 75
    },
    {
      "midi": 73,
      "hit": false,
      "t": 48816.66666666665,
      "d": 112.49999999999272,
      "v": 71
    },
    {
      "midi": 79,
      "hit": false,
      "t": 48821.66666666665,
      "d": 148.3333333333212,
      "v": 71
    },
    {
      "midi": 42,
      "hit": false,
      "t": 48832.49999999998,
      "d": 253.33333333332848,
      "v": 99
    },
    {
      "midi": 67,
      "hit": false,
      "t": 49068.33333333331,
      "d": 100.83333333333576,
      "v": 55
    },
    {
      "midi": 73,
      "hit": false,
      "t": 49071.66666666664,
      "d": 89.16666666666424,
      "v": 55
    },
    {
      "midi": 76,
      "hit": false,
      "t": 49071.66666666664,
      "d": 125.83333333333576,
      "v": 51
    },
    {
      "midi": 79,
      "hit": false,
      "t": 49095.83333333331,
      "d": 118.33333333333576,
      "v": 45
    },
    {
      "midi": 73,
      "hit": false,
      "t": 49341.66666666664,
      "d": 105.83333333334303,
      "v": 61
    },
    {
      "midi": 76,
      "hit": false,
      "t": 49344.99999999998,
      "d": 115.00000000000728,
      "v": 61
    },
    {
      "midi": 67,
      "hit": false,
      "t": 49348.333333333314,
      "d": 97.50000000000728,
      "v": 56
    },
    {
      "midi": 33,
      "hit": false,
      "t": 49356.66666666665,
      "d": 454.1666666666788,
      "v": 78
    },
    {
      "midi": 79,
      "hit": false,
      "t": 49359.999999999985,
      "d": 120,
      "v": 62
    },
    {
      "midi": 73,
      "hit": false,
      "t": 49629.16666666666,
      "d": 109.16666666667152,
      "v": 75
    },
    {
      "midi": 76,
      "hit": false,
      "t": 49632.49999999999,
      "d": 120.00000000000728,
      "v": 70
    },
    {
      "midi": 67,
      "hit": false,
      "t": 49637.49999999999,
      "d": 109.16666666667152,
      "v": 73
    },
    {
      "midi": 79,
      "hit": false,
      "t": 49637.49999999999,
      "d": 154.16666666667152,
      "v": 61
    },
    {
      "midi": 43,
      "hit": false,
      "t": 49644.99999999999,
      "d": 380,
      "v": 79
    },
    {
      "midi": 73,
      "hit": false,
      "t": 49883.33333333333,
      "d": 117.5,
      "v": 63
    },
    {
      "midi": 67,
      "hit": false,
      "t": 49886.666666666664,
      "d": 112.5,
      "v": 57
    },
    {
      "midi": 76,
      "hit": false,
      "t": 49890.83333333333,
      "d": 131.66666666666424,
      "v": 55
    },
    {
      "midi": 79,
      "hit": false,
      "t": 49904.166666666664,
      "d": 130.83333333332848,
      "v": 42
    },
    {
      "midi": 73,
      "hit": false,
      "t": 50132.49999999999,
      "d": 132.50000000000728,
      "v": 61
    },
    {
      "midi": 67,
      "hit": false,
      "t": 50140.83333333333,
      "d": 144.16666666667152,
      "v": 57
    },
    {
      "midi": 76,
      "hit": false,
      "t": 50144.99999999999,
      "d": 145.00000000000728,
      "v": 70
    },
    {
      "midi": 79,
      "hit": false,
      "t": 50148.33333333333,
      "d": 153.33333333333576,
      "v": 52
    },
    {
      "midi": 33,
      "hit": false,
      "t": 50161.666666666664,
      "d": 613.3333333333139,
      "v": 78
    },
    {
      "midi": 67,
      "hit": false,
      "t": 50409.99999999999,
      "d": 131.66666666666424,
      "v": 74
    },
    {
      "midi": 76,
      "hit": false,
      "t": 50412.49999999999,
      "d": 139.16666666666424,
      "v": 73
    },
    {
      "midi": 73,
      "hit": false,
      "t": 50416.66666666666,
      "d": 115,
      "v": 74
    },
    {
      "midi": 79,
      "hit": false,
      "t": 50419.99999999999,
      "d": 143.33333333332848,
      "v": 59
    },
    {
      "midi": 42,
      "hit": false,
      "t": 50426.66666666666,
      "d": 196.66666666666424,
      "v": 99
    },
    {
      "midi": 79,
      "hit": false,
      "t": 50652.499999999985,
      "d": 124.16666666665697,
      "v": 57
    },
    {
      "midi": 76,
      "hit": false,
      "t": 50654.999999999985,
      "d": 113.33333333332848,
      "v": 56
    },
    {
      "midi": 67,
      "hit": false,
      "t": 50661.66666666665,
      "d": 82.5,
      "v": 70
    },
    {
      "midi": 81,
      "hit": false,
      "t": 50661.66666666665,
      "d": 95.83333333332848,
      "v": 70
    },
    {
      "midi": 73,
      "hit": false,
      "t": 50668.333333333314,
      "d": 77.5,
      "v": 63
    },
    {
      "midi": 67,
      "hit": false,
      "t": 50905.83333333331,
      "d": 81.66666666665697,
      "v": 74
    },
    {
      "midi": 73,
      "hit": false,
      "t": 50909.99999999997,
      "d": 114.99999999999272,
      "v": 67
    },
    {
      "midi": 79,
      "hit": false,
      "t": 50911.666666666635,
      "d": 129.99999999999272,
      "v": 60
    },
    {
      "midi": 81,
      "hit": false,
      "t": 50917.49999999997,
      "d": 117.49999999999272,
      "v": 65
    },
    {
      "midi": 40,
      "hit": false,
      "t": 50921.666666666635,
      "d": 64.16666666666424,
      "v": 83
    },
    {
      "midi": 76,
      "hit": false,
      "t": 50921.666666666635,
      "d": 99.16666666666424,
      "v": 51
    },
    {
      "midi": 78,
      "hit": false,
      "t": 51191.66666666663,
      "d": 140,
      "v": 86
    },
    {
      "midi": 69,
      "hit": false,
      "t": 51196.66666666663,
      "d": 107.50000000000728,
      "v": 89
    },
    {
      "midi": 81,
      "hit": false,
      "t": 51200.83333333329,
      "d": 121.66666666667152,
      "v": 86
    },
    {
      "midi": 74,
      "hit": false,
      "t": 51204.16666666663,
      "d": 120.83333333333576,
      "v": 74
    },
    {
      "midi": 26,
      "hit": false,
      "t": 51209.99999999996,
      "d": 631.666666666657,
      "v": 74
    },
    {
      "midi": 69,
      "hit": false,
      "t": 51447.49999999996,
      "d": 84.99999999999272,
      "v": 54
    },
    {
      "midi": 78,
      "hit": false,
      "t": 51451.66666666663,
      "d": 90.83333333332848,
      "v": 56
    },
    {
      "midi": 81,
      "hit": false,
      "t": 51453.33333333329,
      "d": 103.33333333332848,
      "v": 55
    },
    {
      "midi": 74,
      "hit": false,
      "t": 51459.999999999956,
      "d": 92.5,
      "v": 45
    },
    {
      "midi": 69,
      "hit": false,
      "t": 51721.66666666662,
      "d": 86.66666666666424,
      "v": 61
    },
    {
      "midi": 78,
      "hit": false,
      "t": 51724.999999999956,
      "d": 108.33333333332848,
      "v": 70
    },
    {
      "midi": 81,
      "hit": false,
      "t": 51724.999999999956,
      "d": 111.66666666666424,
      "v": 57
    },
    {
      "midi": 74,
      "hit": false,
      "t": 51731.66666666662,
      "d": 100.83333333332848,
      "v": 59
    },
    {
      "midi": 38,
      "hit": false,
      "t": 51735.833333333285,
      "d": 250.83333333333576,
      "v": 79
    },
    {
      "midi": 78,
      "hit": false,
      "t": 52009.999999999956,
      "d": 135.83333333332848,
      "v": 89
    },
    {
      "midi": 74,
      "hit": false,
      "t": 52014.999999999956,
      "d": 132.49999999999272,
      "v": 77
    },
    {
      "midi": 69,
      "hit": false,
      "t": 52017.499999999956,
      "d": 94.16666666666424,
      "v": 83
    },
    {
      "midi": 81,
      "hit": false,
      "t": 52020.83333333329,
      "d": 129.99999999999272,
      "v": 86
    },
    {
      "midi": 30,
      "hit": false,
      "t": 52020.83333333329,
      "d": 574.1666666666715,
      "v": 99
    },
    {
      "midi": 78,
      "hit": false,
      "t": 52264.999999999956,
      "d": 107.50000000000728,
      "v": 63
    },
    {
      "midi": 69,
      "hit": false,
      "t": 52270.83333333329,
      "d": 89.16666666667152,
      "v": 59
    },
    {
      "midi": 74,
      "hit": false,
      "t": 52278.33333333329,
      "d": 92.50000000000728,
      "v": 61
    },
    {
      "midi": 81,
      "hit": false,
      "t": 52281.66666666663,
      "d": 94.16666666667152,
      "v": 69
    },
    {
      "midi": 78,
      "hit": false,
      "t": 52530.8333333333,
      "d": 114.16666666666424,
      "v": 70
    },
    {
      "midi": 81,
      "hit": false,
      "t": 52532.49999999996,
      "d": 117.5,
      "v": 66
    },
    {
      "midi": 74,
      "hit": false,
      "t": 52537.49999999996,
      "d": 95,
      "v": 63
    },
    {
      "midi": 69,
      "hit": false,
      "t": 52539.99999999996,
      "d": 80,
      "v": 67
    },
    {
      "midi": 42,
      "hit": false,
      "t": 52560.8333333333,
      "d": 205.83333333333576,
      "v": 89
    },
    {
      "midi": 33,
      "hit": false,
      "t": 52819.166666666635,
      "d": 610.8333333333358,
      "v": 83
    },
    {
      "midi": 78,
      "hit": false,
      "t": 52828.3333333333,
      "d": 118.33333333332848,
      "v": 86
    },
    {
      "midi": 81,
      "hit": false,
      "t": 52832.49999999996,
      "d": 125,
      "v": 89
    },
    {
      "midi": 74,
      "hit": false,
      "t": 52834.99999999996,
      "d": 110,
      "v": 73
    },
    {
      "midi": 69,
      "hit": false,
      "t": 52837.49999999996,
      "d": 75,
      "v": 89
    },
    {
      "midi": 78,
      "hit": false,
      "t": 53085.8333333333,
      "d": 95.83333333333576,
      "v": 69
    },
    {
      "midi": 74,
      "hit": false,
      "t": 53088.3333333333,
      "d": 92.5,
      "v": 61
    },
    {
      "midi": 81,
      "hit": false,
      "t": 53091.666666666635,
      "d": 86.66666666666424,
      "v": 69
    },
    {
      "midi": 69,
      "hit": false,
      "t": 53095.8333333333,
      "d": 66.66666666666424,
      "v": 66
    },
    {
      "midi": 78,
      "hit": false,
      "t": 53333.3333333333,
      "d": 118.33333333333576,
      "v": 71
    },
    {
      "midi": 74,
      "hit": false,
      "t": 53335.8333333333,
      "d": 99.16666666667152,
      "v": 70
    },
    {
      "midi": 69,
      "hit": false,
      "t": 53341.666666666635,
      "d": 83.33333333333576,
      "v": 74
    },
    {
      "midi": 81,
      "hit": false,
      "t": 53341.666666666635,
      "d": 104.16666666667152,
      "v": 78
    },
    {
      "midi": 45,
      "hit": false,
      "t": 53344.99999999997,
      "d": 102.5,
      "v": 73
    },
    {
      "midi": 78,
      "hit": false,
      "t": 53614.99999999996,
      "d": 106.66666666666424,
      "v": 89
    },
    {
      "midi": 74,
      "hit": false,
      "t": 53616.66666666663,
      "d": 104.16666666666424,
      "v": 75
    },
    {
      "midi": 30,
      "hit": false,
      "t": 53620.83333333329,
      "d": 520.0000000000073,
      "v": 86
    },
    {
      "midi": 69,
      "hit": false,
      "t": 53622.499999999956,
      "d": 72.5,
      "v": 86
    },
    {
      "midi": 81,
      "hit": false,
      "t": 53625.83333333329,
      "d": 103.33333333333576,
      "v": 86
    },
    {
      "midi": 78,
      "hit": false,
      "t": 53872.49999999996,
      "d": 103.33333333333576,
      "v": 77
    },
    {
      "midi": 74,
      "hit": false,
      "t": 53874.99999999996,
      "d": 102.5,
      "v": 61
    },
    {
      "midi": 69,
      "hit": false,
      "t": 53878.3333333333,
      "d": 79.16666666666424,
      "v": 74
    },
    {
      "midi": 81,
      "hit": false,
      "t": 53883.3333333333,
      "d": 80,
      "v": 73
    },
    {
      "midi": 78,
      "hit": false,
      "t": 54130.8333333333,
      "d": 94.16666666666424,
      "v": 78
    },
    {
      "midi": 74,
      "hit": false,
      "t": 54134.99999999996,
      "d": 83.33333333333576,
      "v": 71
    },
    {
      "midi": 42,
      "hit": false,
      "t": 54139.99999999996,
      "d": 137.5,
      "v": 99
    },
    {
      "midi": 69,
      "hit": false,
      "t": 54143.3333333333,
      "d": 79.16666666666424,
      "v": 78
    },
    {
      "midi": 81,
      "hit": false,
      "t": 54147.49999999996,
      "d": 72.5,
      "v": 77
    },
    {
      "midi": 75,
      "hit": false,
      "t": 54400.8333333333,
      "d": 126.66666666667152,
      "v": 86
    },
    {
      "midi": 81,
      "hit": false,
      "t": 54404.99999999996,
      "d": 116.66666666667152,
      "v": 86
    },
    {
      "midi": 27,
      "hit": false,
      "t": 54409.99999999996,
      "d": 556.6666666666861,
      "v": 95
    },
    {
      "midi": 69,
      "hit": false,
      "t": 54413.3333333333,
      "d": 101.66666666666424,
      "v": 71
    },
    {
      "midi": 72,
      "hit": false,
      "t": 54414.99999999996,
      "d": 103.33333333333576,
      "v": 78
    },
    {
      "midi": 78,
      "hit": false,
      "t": 54422.49999999996,
      "d": 107.50000000000728,
      "v": 77
    },
    {
      "midi": 75,
      "hit": false,
      "t": 54672.49999999997,
      "d": 95.83333333333576,
      "v": 61
    },
    {
      "midi": 69,
      "hit": false,
      "t": 54674.99999999997,
      "d": 75.83333333333576,
      "v": 71
    },
    {
      "midi": 78,
      "hit": false,
      "t": 54679.99999999997,
      "d": 94.16666666667152,
      "v": 60
    },
    {
      "midi": 81,
      "hit": false,
      "t": 54682.49999999997,
      "d": 94.16666666667152,
      "v": 67
    },
    {
      "midi": 72,
      "hit": false,
      "t": 54687.49999999997,
      "d": 72.5,
      "v": 54
    },
    {
      "midi": 72,
      "hit": false,
      "t": 54922.49999999998,
      "d": 112.50000000000728,
      "v": 69
    },
    {
      "midi": 75,
      "hit": false,
      "t": 54925.833333333314,
      "d": 112.50000000000728,
      "v": 63
    },
    {
      "midi": 78,
      "hit": false,
      "t": 54928.333333333314,
      "d": 120.83333333334303,
      "v": 67
    },
    {
      "midi": 69,
      "hit": false,
      "t": 54931.66666666665,
      "d": 85,
      "v": 74
    },
    {
      "midi": 81,
      "hit": false,
      "t": 54936.66666666665,
      "d": 97.5,
      "v": 73
    },
    {
      "midi": 39,
      "hit": false,
      "t": 54939.999999999985,
      "d": 271.6666666666788,
      "v": 92
    },
    {
      "midi": 75,
      "hit": false,
      "t": 55201.66666666666,
      "d": 119.1666666666788,
      "v": 77
    },
    {
      "midi": 30,
      "hit": false,
      "t": 55204.99999999999,
      "d": 557.5000000000146,
      "v": 89
    },
    {
      "midi": 72,
      "hit": false,
      "t": 55205.83333333333,
      "d": 112.50000000000728,
      "v": 79
    },
    {
      "midi": 69,
      "hit": false,
      "t": 55211.666666666664,
      "d": 86.66666666667152,
      "v": 89
    },
    {
      "midi": 78,
      "hit": false,
      "t": 55211.666666666664,
      "d": 110.83333333333576,
      "v": 77
    },
    {
      "midi": 81,
      "hit": false,
      "t": 55217.5,
      "d": 95,
      "v": 86
    },
    {
      "midi": 72,
      "hit": false,
      "t": 55443.333333333336,
      "d": 116.66666666666424,
      "v": 69
    },
    {
      "midi": 69,
      "hit": false,
      "t": 55450,
      "d": 92.5,
      "v": 62
    },
    {
      "midi": 75,
      "hit": false,
      "t": 55453.333333333336,
      "d": 107.5,
      "v": 55
    },
    {
      "midi": 78,
      "hit": false,
      "t": 55457.5,
      "d": 111.66666666667152,
      "v": 59
    },
    {
      "midi": 81,
      "hit": false,
      "t": 55460.833333333336,
      "d": 90.83333333332848,
      "v": 65
    },
    {
      "midi": 72,
      "hit": false,
      "t": 55715.00000000001,
      "d": 124.99999999999272,
      "v": 73
    },
    {
      "midi": 75,
      "hit": false,
      "t": 55718.33333333334,
      "d": 129.16666666665697,
      "v": 67
    },
    {
      "midi": 69,
      "hit": false,
      "t": 55720.00000000001,
      "d": 100,
      "v": 75
    },
    {
      "midi": 81,
      "hit": false,
      "t": 55726.66666666667,
      "d": 95,
      "v": 71
    },
    {
      "midi": 78,
      "hit": false,
      "t": 55726.66666666667,
      "d": 118.33333333332848,
      "v": 69
    },
    {
      "midi": 42,
      "hit": false,
      "t": 55736.66666666667,
      "d": 199.99999999999272,
      "v": 92
    },
    {
      "midi": 33,
      "hit": false,
      "t": 55992.5,
      "d": 524.1666666666715,
      "v": 89
    },
    {
      "midi": 72,
      "hit": false,
      "t": 56005.833333333336,
      "d": 130,
      "v": 89
    },
    {
      "midi": 81,
      "hit": false,
      "t": 56008.333333333336,
      "d": 106.66666666666424,
      "v": 89
    },
    {
      "midi": 75,
      "hit": false,
      "t": 56010.833333333336,
      "d": 115,
      "v": 77
    },
    {
      "midi": 78,
      "hit": false,
      "t": 56017.5,
      "d": 109.16666666667152,
      "v": 77
    },
    {
      "midi": 69,
      "hit": false,
      "t": 56017.5,
      "d": 115.83333333333576,
      "v": 89
    },
    {
      "midi": 72,
      "hit": false,
      "t": 56262.5,
      "d": 107.5,
      "v": 73
    },
    {
      "midi": 75,
      "hit": false,
      "t": 56265,
      "d": 105.83333333333576,
      "v": 59
    },
    {
      "midi": 69,
      "hit": false,
      "t": 56270,
      "d": 95,
      "v": 67
    },
    {
      "midi": 81,
      "hit": false,
      "t": 56270,
      "d": 105.83333333333576,
      "v": 69
    },
    {
      "midi": 78,
      "hit": false,
      "t": 56280.833333333336,
      "d": 100.83333333333576,
      "v": 60
    },
    {
      "midi": 81,
      "hit": false,
      "t": 56509.16666666667,
      "d": 113.33333333332848,
      "v": 74
    },
    {
      "midi": 72,
      "hit": false,
      "t": 56512.50000000001,
      "d": 105.83333333332848,
      "v": 71
    },
    {
      "midi": 75,
      "hit": false,
      "t": 56516.66666666667,
      "d": 107.49999999999272,
      "v": 67
    },
    {
      "midi": 69,
      "hit": false,
      "t": 56521.66666666667,
      "d": 90,
      "v": 78
    },
    {
      "midi": 78,
      "hit": false,
      "t": 56526.66666666667,
      "d": 108.33333333332848,
      "v": 66
    },
    {
      "midi": 45,
      "hit": false,
      "t": 56526.66666666667,
      "d": 215,
      "v": 86
    },
    {
      "midi": 36,
      "hit": false,
      "t": 56776.66666666667,
      "d": 598.3333333333285,
      "v": 89
    },
    {
      "midi": 75,
      "hit": false,
      "t": 56780.833333333336,
      "d": 119.99999999999272,
      "v": 79
    },
    {
      "midi": 69,
      "hit": false,
      "t": 56785.833333333336,
      "d": 99.16666666666424,
      "v": 99
    },
    {
      "midi": 72,
      "hit": false,
      "t": 56785.833333333336,
      "d": 112.49999999999272,
      "v": 86
    },
    {
      "midi": 81,
      "hit": false,
      "t": 56792.5,
      "d": 96.66666666666424,
      "v": 99
    },
    {
      "midi": 78,
      "hit": false,
      "t": 56792.5,
      "d": 109.99999999999272,
      "v": 86
    },
    {
      "midi": 72,
      "hit": false,
      "t": 57041.66666666666,
      "d": 105,
      "v": 71
    },
    {
      "midi": 81,
      "hit": false,
      "t": 57046.66666666666,
      "d": 106.66666666667152,
      "v": 77
    },
    {
      "midi": 69,
      "hit": false,
      "t": 57050.83333333332,
      "d": 80,
      "v": 77
    },
    {
      "midi": 75,
      "hit": false,
      "t": 57050.83333333332,
      "d": 99.16666666667152,
      "v": 66
    },
    {
      "midi": 78,
      "hit": false,
      "t": 57058.33333333332,
      "d": 99.16666666667152,
      "v": 66
    },
    {
      "midi": 75,
      "hit": false,
      "t": 57290.83333333333,
      "d": 134.16666666667152,
      "v": 77
    },
    {
      "midi": 48,
      "hit": false,
      "t": 57294.99999999999,
      "d": 87.50000000000728,
      "v": 86
    },
    {
      "midi": 72,
      "hit": false,
      "t": 57299.99999999999,
      "d": 111.66666666667152,
      "v": 74
    },
    {
      "midi": 81,
      "hit": false,
      "t": 57303.33333333333,
      "d": 105.83333333333576,
      "v": 83
    },
    {
      "midi": 78,
      "hit": false,
      "t": 57306.666666666664,
      "d": 125.83333333333576,
      "v": 74
    },
    {
      "midi": 69,
      "hit": false,
      "t": 57311.666666666664,
      "d": 80,
      "v": 86
    },
    {
      "midi": 76,
      "hit": false,
      "t": 57577.5,
      "d": 100,
      "v": 86
    },
    {
      "midi": 81,
      "hit": false,
      "t": 57582.5,
      "d": 109.16666666666424,
      "v": 95
    },
    {
      "midi": 69,
      "hit": false,
      "t": 57585,
      "d": 70.83333333333576,
      "v": 99
    },
    {
      "midi": 73,
      "hit": false,
      "t": 57590.833333333336,
      "d": 59.16666666666424,
      "v": 69
    },
    {
      "midi": 45,
      "hit": false,
      "t": 57595,
      "d": 691.6666666666642,
      "v": 95
    },
    {
      "midi": 33,
      "hit": false,
      "t": 57600,
      "d": 837.5000000000073,
      "v": 99
    },
    {
      "midi": 76,
      "hit": false,
      "t": 57821.666666666664,
      "d": 87.5,
      "v": 77
    },
    {
      "midi": 69,
      "hit": false,
      "t": 57831.666666666664,
      "d": 73.33333333333576,
      "v": 71
    },
    {
      "midi": 81,
      "hit": false,
      "t": 57835,
      "d": 75.83333333332848,
      "v": 74
    },
    {
      "midi": 76,
      "hit": false,
      "t": 58107.49999999999,
      "d": 69.16666666667152,
      "v": 78
    },
    {
      "midi": 69,
      "hit": false,
      "t": 58110.83333333333,
      "d": 68.33333333333576,
      "v": 86
    },
    {
      "midi": 81,
      "hit": false,
      "t": 58113.33333333333,
      "d": 70.83333333333576,
      "v": 89
    },
    {
      "midi": 76,
      "hit": false,
      "t": 58370,
      "d": 75.00000000000728,
      "v": 86
    },
    {
      "midi": 69,
      "hit": false,
      "t": 58373.333333333336,
      "d": 66.66666666667152,
      "v": 102
    },
    {
      "midi": 81,
      "hit": false,
      "t": 58373.333333333336,
      "d": 94.16666666667152,
      "v": 99
    },
    {
      "midi": 45,
      "hit": false,
      "t": 58386.66666666667,
      "d": 210,
      "v": 99
    },
    {
      "midi": 76,
      "hit": false,
      "t": 58622.50000000001,
      "d": 90.8333333333212,
      "v": 79
    },
    {
      "midi": 81,
      "hit": false,
      "t": 58626.66666666667,
      "d": 84.99999999999272,
      "v": 86
    },
    {
      "midi": 69,
      "hit": false,
      "t": 58628.333333333336,
      "d": 71.66666666666424,
      "v": 86
    },
    {
      "midi": 33,
      "hit": false,
      "t": 58635,
      "d": 316.66666666666424,
      "v": 89
    },
    {
      "midi": 45,
      "hit": false,
      "t": 58871.666666666664,
      "d": 93.33333333333576,
      "v": 83
    },
    {
      "midi": 76,
      "hit": false,
      "t": 58880.83333333333,
      "d": 95.83333333333576,
      "v": 83
    },
    {
      "midi": 81,
      "hit": false,
      "t": 58884.99999999999,
      "d": 100.00000000000728,
      "v": 95
    },
    {
      "midi": 69,
      "hit": false,
      "t": 58888.33333333333,
      "d": 64.16666666667152,
      "v": 89
    },
    {
      "midi": 76,
      "hit": false,
      "t": 59141.666666666664,
      "d": 113.33333333333576,
      "v": 79
    },
    {
      "midi": 71,
      "hit": false,
      "t": 59146.666666666664,
      "d": 95.83333333333576,
      "v": 89
    },
    {
      "midi": 32,
      "hit": false,
      "t": 59146.666666666664,
      "d": 330.83333333333576,
      "v": 105
    },
    {
      "midi": 80,
      "hit": false,
      "t": 59155,
      "d": 116.66666666666424,
      "v": 92
    },
    {
      "midi": 44,
      "hit": false,
      "t": 59155,
      "d": 462.4999999999927,
      "v": 111
    },
    {
      "midi": 80,
      "hit": false,
      "t": 59410,
      "d": 101.66666666666424,
      "v": 77
    },
    {
      "midi": 71,
      "hit": false,
      "t": 59413.333333333336,
      "d": 73.33333333332848,
      "v": 79
    },
    {
      "midi": 76,
      "hit": false,
      "t": 59413.333333333336,
      "d": 104.99999999999272,
      "v": 63
    },
    {
      "midi": 76,
      "hit": false,
      "t": 59657.49999999999,
      "d": 122.49999999999272,
      "v": 66
    },
    {
      "midi": 80,
      "hit": false,
      "t": 59666.66666666666,
      "d": 111.66666666666424,
      "v": 79
    },
    {
      "midi": 71,
      "hit": false,
      "t": 59668.33333333332,
      "d": 86.66666666666424,
      "v": 79
    },
    {
      "midi": 44,
      "hit": false,
      "t": 59710.83333333332,
      "d": 110,
      "v": 25
    },
    {
      "midi": 52,
      "hit": false,
      "t": 59917.499999999985,
      "d": 210.83333333333576,
      "v": 92
    },
    {
      "midi": 76,
      "hit": false,
      "t": 59925.83333333332,
      "d": 120.83333333332848,
      "v": 78
    },
    {
      "midi": 80,
      "hit": false,
      "t": 59929.999999999985,
      "d": 122.5,
      "v": 95
    },
    {
      "midi": 71,
      "hit": false,
      "t": 59931.66666666665,
      "d": 96.66666666666424,
      "v": 89
    },
    {
      "midi": 76,
      "hit": false,
      "t": 60189.999999999985,
      "d": 116.66666666666424,
      "v": 77
    },
    {
      "midi": 80,
      "hit": false,
      "t": 60193.33333333332,
      "d": 114.99999999999272,
      "v": 89
    },
    {
      "midi": 71,
      "hit": false,
      "t": 60197.499999999985,
      "d": 70,
      "v": 83
    },
    {
      "midi": 76,
      "hit": false,
      "t": 60448.333333333314,
      "d": 109.16666666666424,
      "v": 78
    },
    {
      "midi": 71,
      "hit": false,
      "t": 60451.66666666665,
      "d": 88.33333333332848,
      "v": 86
    },
    {
      "midi": 80,
      "hit": false,
      "t": 60455.833333333314,
      "d": 100,
      "v": 79
    },
    {
      "midi": 44,
      "hit": false,
      "t": 60460.833333333314,
      "d": 136.66666666666424,
      "v": 99
    },
    {
      "midi": 42,
      "hit": false,
      "t": 60713.333333333314,
      "d": 861.6666666666715,
      "v": 105
    },
    {
      "midi": 78,
      "hit": false,
      "t": 60717.49999999998,
      "d": 138.33333333332848,
      "v": 86
    },
    {
      "midi": 76,
      "hit": false,
      "t": 60721.66666666664,
      "d": 131.66666666666424,
      "v": 75
    },
    {
      "midi": 69,
      "hit": false,
      "t": 60728.33333333331,
      "d": 101.66666666667152,
      "v": 86
    },
    {
      "midi": 73,
      "hit": false,
      "t": 60728.33333333331,
      "d": 115,
      "v": 75
    },
    {
      "midi": 81,
      "hit": false,
      "t": 60736.66666666664,
      "d": 95,
      "v": 79
    },
    {
      "midi": 49,
      "hit": false,
      "t": 60736.66666666664,
      "d": 725.0000000000073,
      "v": 108
    },
    {
      "midi": 69,
      "hit": false,
      "t": 60979.99999999997,
      "d": 97.5,
      "v": 60
    },
    {
      "midi": 73,
      "hit": false,
      "t": 60983.33333333331,
      "d": 95,
      "v": 62
    },
    {
      "midi": 76,
      "hit": false,
      "t": 60989.99999999997,
      "d": 105,
      "v": 49
    },
    {
      "midi": 81,
      "hit": false,
      "t": 60996.666666666635,
      "d": 90.83333333333576,
      "v": 67
    },
    {
      "midi": 78,
      "hit": false,
      "t": 61001.666666666635,
      "d": 90,
      "v": 51
    },
    {
      "midi": 73,
      "hit": false,
      "t": 61255.83333333331,
      "d": 109.16666666667152,
      "v": 71
    },
    {
      "midi": 76,
      "hit": false,
      "t": 61258.33333333331,
      "d": 132.50000000000728,
      "v": 56
    },
    {
      "midi": 69,
      "hit": false,
      "t": 61261.66666666664,
      "d": 95,
      "v": 77
    },
    {
      "midi": 81,
      "hit": false,
      "t": 61261.66666666664,
      "d": 97.5,
      "v": 74
    },
    {
      "midi": 78,
      "hit": false,
      "t": 61269.99999999998,
      "d": 108.33333333333576,
      "v": 67
    },
    {
      "midi": 73,
      "hit": false,
      "t": 61523.333333333314,
      "d": 107.50000000000728,
      "v": 89
    },
    {
      "midi": 81,
      "hit": false,
      "t": 61525.833333333314,
      "d": 115.00000000000728,
      "v": 92
    },
    {
      "midi": 78,
      "hit": false,
      "t": 61528.333333333314,
      "d": 115.00000000000728,
      "v": 78
    },
    {
      "midi": 69,
      "hit": false,
      "t": 61531.66666666665,
      "d": 86.66666666667152,
      "v": 92
    },
    {
      "midi": 76,
      "hit": false,
      "t": 61532.499999999985,
      "d": 108.33333333333576,
      "v": 78
    },
    {
      "midi": 49,
      "hit": false,
      "t": 61553.33333333332,
      "d": 182.5,
      "v": 99
    },
    {
      "midi": 73,
      "hit": false,
      "t": 61784.16666666666,
      "d": 106.66666666667152,
      "v": 78
    },
    {
      "midi": 69,
      "hit": false,
      "t": 61786.66666666666,
      "d": 90.83333333333576,
      "v": 79
    },
    {
      "midi": 76,
      "hit": false,
      "t": 61789.99999999999,
      "d": 106.66666666667152,
      "v": 71
    },
    {
      "midi": 78,
      "hit": false,
      "t": 61793.33333333333,
      "d": 106.66666666667152,
      "v": 69
    },
    {
      "midi": 81,
      "hit": false,
      "t": 61795.83333333333,
      "d": 90,
      "v": 79
    },
    {
      "midi": 42,
      "hit": false,
      "t": 61815.83333333333,
      "d": 165.83333333333576,
      "v": 86
    },
    {
      "midi": 49,
      "hit": false,
      "t": 62038.33333333333,
      "d": 156.66666666666424,
      "v": 79
    },
    {
      "midi": 76,
      "hit": false,
      "t": 62051.666666666664,
      "d": 140.83333333332848,
      "v": 75
    },
    {
      "midi": 73,
      "hit": false,
      "t": 62053.33333333333,
      "d": 128.33333333332848,
      "v": 86
    },
    {
      "midi": 69,
      "hit": false,
      "t": 62057.49999999999,
      "d": 94.16666666666424,
      "v": 86
    },
    {
      "midi": 81,
      "hit": false,
      "t": 62062.49999999999,
      "d": 110,
      "v": 86
    },
    {
      "midi": 78,
      "hit": false,
      "t": 62066.66666666666,
      "d": 129.16666666667152,
      "v": 77
    },
    {
      "midi": 49,
      "hit": false,
      "t": 62325.83333333333,
      "d": 904.1666666666497,
      "v": 105
    },
    {
      "midi": 40,
      "hit": false,
      "t": 62331.666666666664,
      "d": 926.6666666666497,
      "v": 83
    },
    {
      "midi": 76,
      "hit": false,
      "t": 62335.83333333333,
      "d": 134.16666666666424,
      "v": 79
    },
    {
      "midi": 73,
      "hit": false,
      "t": 62342.49999999999,
      "d": 120,
      "v": 79
    },
    {
      "midi": 81,
      "hit": false,
      "t": 62345.83333333333,
      "d": 110,
      "v": 95
    },
    {
      "midi": 69,
      "hit": false,
      "t": 62350.83333333333,
      "d": 102.5,
      "v": 89
    },
    {
      "midi": 76,
      "hit": false,
      "t": 62575.83333333333,
      "d": 119.16666666665697,
      "v": 57
    },
    {
      "midi": 73,
      "hit": false,
      "t": 62579.99999999999,
      "d": 112.49999999999272,
      "v": 61
    },
    {
      "midi": 69,
      "hit": false,
      "t": 62581.66666666666,
      "d": 95.83333333332848,
      "v": 62
    },
    {
      "midi": 81,
      "hit": false,
      "t": 62588.33333333332,
      "d": 101.66666666666424,
      "v": 69
    },
    {
      "midi": 73,
      "hit": false,
      "t": 62849.999999999985,
      "d": 101.66666666666424,
      "v": 74
    },
    {
      "midi": 69,
      "hit": false,
      "t": 62852.499999999985,
      "d": 82.5,
      "v": 78
    },
    {
      "midi": 76,
      "hit": false,
      "t": 62852.499999999985,
      "d": 103.33333333332848,
      "v": 75
    },
    {
      "midi": 81,
      "hit": false,
      "t": 62857.499999999985,
      "d": 100.83333333332848,
      "v": 79
    },
    {
      "midi": 73,
      "hit": false,
      "t": 63124.99999999998,
      "d": 110.83333333333576,
      "v": 99
    },
    {
      "midi": 69,
      "hit": false,
      "t": 63126.66666666664,
      "d": 95,
      "v": 95
    },
    {
      "midi": 76,
      "hit": false,
      "t": 63128.33333333331,
      "d": 113.33333333334303,
      "v": 86
    },
    {
      "midi": 81,
      "hit": false,
      "t": 63133.33333333331,
      "d": 117.50000000000728,
      "v": 95
    },
    {
      "midi": 76,
      "hit": false,
      "t": 63379.99999999998,
      "d": 108.33333333333576,
      "v": 78
    },
    {
      "midi": 73,
      "hit": false,
      "t": 63382.49999999998,
      "d": 107.5,
      "v": 86
    },
    {
      "midi": 81,
      "hit": false,
      "t": 63385.833333333314,
      "d": 100,
      "v": 89
    },
    {
      "midi": 69,
      "hit": false,
      "t": 63389.99999999998,
      "d": 73.33333333333576,
      "v": 79
    },
    {
      "midi": 73,
      "hit": false,
      "t": 63627.49999999998,
      "d": 107.5,
      "v": 75
    },
    {
      "midi": 76,
      "hit": false,
      "t": 63630.833333333314,
      "d": 132.49999999999272,
      "v": 73
    },
    {
      "midi": 49,
      "hit": false,
      "t": 63635.833333333314,
      "d": 100,
      "v": 86
    },
    {
      "midi": 81,
      "hit": false,
      "t": 63635.833333333314,
      "d": 120.83333333332848,
      "v": 83
    },
    {
      "midi": 69,
      "hit": false,
      "t": 63642.49999999998,
      "d": 89.16666666666424,
      "v": 75
    },
    {
      "midi": 40,
      "hit": false,
      "t": 63649.16666666664,
      "d": 93.33333333333576,
      "v": 75
    },
    {
      "midi": 75,
      "hit": false,
      "t": 63899.99999999997,
      "d": 105.83333333333576,
      "v": 105
    },
    {
      "midi": 47,
      "hit": false,
      "t": 63902.49999999997,
      "d": 364.9999999999927,
      "v": 95
    },
    {
      "midi": 81,
      "hit": false,
      "t": 63906.666666666635,
      "d": 90,
      "v": 102
    },
    {
      "midi": 69,
      "hit": false,
      "t": 63908.3333333333,
      "d": 62.5,
      "v": 99
    },
    {
      "midi": 35,
      "hit": false,
      "t": 63914.99999999996,
      "d": 355.83333333333576,
      "v": 102
    },
    {
      "midi": 75,
      "hit": false,
      "t": 64169.99999999997,
      "d": 77.49999999999272,
      "v": 74
    },
    {
      "midi": 81,
      "hit": false,
      "t": 64172.49999999997,
      "d": 80.83333333332848,
      "v": 83
    },
    {
      "midi": 69,
      "hit": false,
      "t": 64176.666666666635,
      "d": 69.16666666666424,
      "v": 75
    },
    {
      "midi": 75,
      "hit": false,
      "t": 64418.3333333333,
      "d": 89.16666666666424,
      "v": 74
    },
    {
      "midi": 81,
      "hit": false,
      "t": 64422.49999999996,
      "d": 100.83333333333576,
      "v": 79
    },
    {
      "midi": 69,
      "hit": false,
      "t": 64426.66666666663,
      "d": 75,
      "v": 70
    },
    {
      "midi": 35,
      "hit": false,
      "t": 64449.99999999996,
      "d": 165,
      "v": 95
    },
    {
      "midi": 47,
      "hit": false,
      "t": 64452.49999999996,
      "d": 122.5,
      "v": 89
    },
    {
      "midi": 47,
      "hit": false,
      "t": 64714.99999999996,
      "d": 229.16666666666424,
      "v": 79
    },
    {
      "midi": 75,
      "hit": false,
      "t": 64716.66666666663,
      "d": 107.5,
      "v": 92
    },
    {
      "midi": 81,
      "hit": false,
      "t": 64722.49999999996,
      "d": 115,
      "v": 95
    },
    {
      "midi": 37,
      "hit": false,
      "t": 64722.49999999996,
      "d": 277.5,
      "v": 99
    },
    {
      "midi": 69,
      "hit": false,
      "t": 64730.8333333333,
      "d": 76.66666666666424,
      "v": 92
    },
    {
      "midi": 75,
      "hit": false,
      "t": 64970.8333333333,
      "d": 84.16666666666424,
      "v": 75
    },
    {
      "midi": 69,
      "hit": false,
      "t": 64973.3333333333,
      "d": 77.5,
      "v": 66
    },
    {
      "midi": 81,
      "hit": false,
      "t": 64977.49999999996,
      "d": 84.16666666666424,
      "v": 78
    },
    {
      "midi": 75,
      "hit": false,
      "t": 65224.99999999996,
      "d": 99.99999999999272,
      "v": 79
    },
    {
      "midi": 81,
      "hit": false,
      "t": 65226.66666666663,
      "d": 103.33333333332848,
      "v": 79
    },
    {
      "midi": 69,
      "hit": false,
      "t": 65231.66666666663,
      "d": 88.33333333332848,
      "v": 77
    },
    {
      "midi": 37,
      "hit": false,
      "t": 65231.66666666663,
      "d": 166.66666666665697,
      "v": 79
    },
    {
      "midi": 47,
      "hit": false,
      "t": 65238.33333333329,
      "d": 138.33333333332848,
      "v": 78
    },
    {
      "midi": 38,
      "hit": false,
      "t": 65494.99999999995,
      "d": 185.00000000000728,
      "v": 95
    },
    {
      "midi": 47,
      "hit": false,
      "t": 65496.66666666661,
      "d": 190.83333333334303,
      "v": 92
    },
    {
      "midi": 75,
      "hit": false,
      "t": 65499.99999999995,
      "d": 97.50000000000728,
      "v": 99
    },
    {
      "midi": 81,
      "hit": false,
      "t": 65501.66666666661,
      "d": 108.33333333334303,
      "v": 99
    },
    {
      "midi": 69,
      "hit": false,
      "t": 65508.33333333328,
      "d": 81.6666666666788,
      "v": 99
    },
    {
      "midi": 75,
      "hit": false,
      "t": 65762.49999999996,
      "d": 81.66666666667152,
      "v": 75
    },
    {
      "midi": 81,
      "hit": false,
      "t": 65766.66666666663,
      "d": 85,
      "v": 77
    },
    {
      "midi": 69,
      "hit": false,
      "t": 65769.99999999996,
      "d": 75.83333333334303,
      "v": 74
    },
    {
      "midi": 38,
      "hit": false,
      "t": 66022.49999999996,
      "d": 185.83333333331393,
      "v": 78
    },
    {
      "midi": 81,
      "hit": false,
      "t": 66024.99999999996,
      "d": 99.99999999998545,
      "v": 92
    },
    {
      "midi": 75,
      "hit": false,
      "t": 66030.83333333328,
      "d": 84.16666666665697,
      "v": 86
    },
    {
      "midi": 47,
      "hit": false,
      "t": 66031.66666666661,
      "d": 134.16666666665697,
      "v": 79
    },
    {
      "midi": 69,
      "hit": false,
      "t": 66034.99999999994,
      "d": 71.66666666667152,
      "v": 78
    },
    {
      "midi": 47,
      "hit": false,
      "t": 66302.49999999994,
      "d": 100.83333333334303,
      "v": 77
    },
    {
      "midi": 75,
      "hit": false,
      "t": 66306.66666666661,
      "d": 100,
      "v": 99
    },
    {
      "midi": 81,
      "hit": false,
      "t": 66310.83333333328,
      "d": 103.33333333332848,
      "v": 102
    },
    {
      "midi": 39,
      "hit": false,
      "t": 66310.83333333328,
      "d": 130.83333333332848,
      "v": 99
    },
    {
      "midi": 69,
      "hit": false,
      "t": 66317.49999999996,
      "d": 67.5,
      "v": 95
    },
    {
      "midi": 75,
      "hit": false,
      "t": 66574.99999999994,
      "d": 95.83333333334303,
      "v": 92
    },
    {
      "midi": 81,
      "hit": false,
      "t": 66576.66666666661,
      "d": 96.66666666667152,
      "v": 99
    },
    {
      "midi": 69,
      "hit": false,
      "t": 66580.83333333328,
      "d": 66.66666666667152,
      "v": 89
    },
    {
      "midi": 75,
      "hit": false,
      "t": 66820.83333333328,
      "d": 90,
      "v": 78
    },
    {
      "midi": 69,
      "hit": false,
      "t": 66825.83333333328,
      "d": 80,
      "v": 78
    },
    {
      "midi": 81,
      "hit": false,
      "t": 66828.33333333328,
      "d": 70,
      "v": 83
    },
    {
      "midi": 27,
      "hit": false,
      "t": 66840.83333333328,
      "d": 66.66666666667152,
      "v": 92
    },
    {
      "midi": 39,
      "hit": false,
      "t": 66844.16666666661,
      "d": 68.33333333334303,
      "v": 86
    },
    {
      "midi": 76,
      "hit": false,
      "t": 67079.99999999996,
      "d": 152.50000000001455,
      "v": 73
    },
    {
      "midi": 80,
      "hit": false,
      "t": 67087.49999999996,
      "d": 110.83333333334303,
      "v": 92
    },
    {
      "midi": 68,
      "hit": false,
      "t": 67092.49999999996,
      "d": 81.66666666667152,
      "v": 99
    },
    {
      "midi": 74,
      "hit": false,
      "t": 67092.49999999996,
      "d": 144.16666666668607,
      "v": 73
    },
    {
      "midi": 40,
      "hit": false,
      "t": 67101.66666666663,
      "d": 99.16666666667152,
      "v": 102
    },
    {
      "midi": 28,
      "hit": false,
      "t": 67101.66666666663,
      "d": 153.33333333334303,
      "v": 108
    },
    {
      "midi": 76,
      "hit": false,
      "t": 67329.16666666664,
      "d": 150.83333333332848,
      "v": 45
    },
    {
      "midi": 74,
      "hit": false,
      "t": 67339.99999999997,
      "d": 127.5,
      "v": 54
    },
    {
      "midi": 68,
      "hit": false,
      "t": 67347.49999999997,
      "d": 72.5,
      "v": 71
    },
    {
      "midi": 80,
      "hit": false,
      "t": 67351.66666666664,
      "d": 90,
      "v": 71
    },
    {
      "midi": 74,
      "hit": false,
      "t": 67616.66666666664,
      "d": 117.49999999998545,
      "v": 59
    },
    {
      "midi": 76,
      "hit": false,
      "t": 67621.66666666664,
      "d": 106.66666666665697,
      "v": 60
    },
    {
      "midi": 68,
      "hit": false,
      "t": 67627.49999999997,
      "d": 75,
      "v": 78
    },
    {
      "midi": 80,
      "hit": false,
      "t": 67627.49999999997,
      "d": 80,
      "v": 77
    },
    {
      "midi": 28,
      "hit": false,
      "t": 67631.66666666664,
      "d": 85.83333333332848,
      "v": 89
    },
    {
      "midi": 40,
      "hit": false,
      "t": 67636.66666666664,
      "d": 79.16666666665697,
      "v": 79
    },
    {
      "midi": 66,
      "hit": false,
      "t": 67895.83333333328,
      "d": 70,
      "v": 105
    },
    {
      "midi": 30,
      "hit": false,
      "t": 67900.83333333328,
      "d": 69.16666666665697,
      "v": 99
    },
    {
      "midi": 78,
      "hit": false,
      "t": 67900.83333333328,
      "d": 70.83333333332848,
      "v": 99
    },
    {
      "midi": 42,
      "hit": false,
      "t": 67909.99999999996,
      "d": 56.666666666656965,
      "v": 108
    },
    {
      "midi": 78,
      "hit": false,
      "t": 68164.99999999994,
      "d": 72.5,
      "v": 78
    },
    {
      "midi": 66,
      "hit": false,
      "t": 68166.66666666661,
      "d": 60.83333333332848,
      "v": 77
    },
    {
      "midi": 78,
      "hit": false,
      "t": 68395.83333333327,
      "d": 78.33333333334303,
      "v": 79
    },
    {
      "midi": 66,
      "hit": false,
      "t": 68400.83333333327,
      "d": 77.50000000001455,
      "v": 77
    },
    {
      "midi": 42,
      "hit": false,
      "t": 68404.99999999994,
      "d": 67.5,
      "v": 86
    },
    {
      "midi": 30,
      "hit": false,
      "t": 68409.99999999994,
      "d": 66.66666666667152,
      "v": 79
    },
    {
      "midi": 70,
      "hit": false,
      "t": 68660.83333333328,
      "d": 90.83333333335759,
      "v": 71
    },
    {
      "midi": 71,
      "hit": false,
      "t": 68664.99999999996,
      "d": 120.83333333334303,
      "v": 74
    },
    {
      "midi": 64,
      "hit": false,
      "t": 68669.99999999996,
      "d": 80.00000000001455,
      "v": 79
    },
    {
      "midi": 76,
      "hit": false,
      "t": 68671.66666666663,
      "d": 98.33333333334303,
      "v": 83
    },
    {
      "midi": 44,
      "hit": false,
      "t": 68678.3333333333,
      "d": 289.1666666666715,
      "v": 111
    },
    {
      "midi": 32,
      "hit": false,
      "t": 68680.8333333333,
      "d": 890.8333333333285,
      "v": 105
    },
    {
      "midi": 71,
      "hit": false,
      "t": 68934.99999999997,
      "d": 71.66666666667152,
      "v": 74
    },
    {
      "midi": 64,
      "hit": false,
      "t": 68940.8333333333,
      "d": 69.16666666667152,
      "v": 83
    },
    {
      "midi": 76,
      "hit": false,
      "t": 68944.99999999997,
      "d": 70,
      "v": 79
    },
    {
      "midi": 71,
      "hit": false,
      "t": 69189.99999999997,
      "d": 67.5,
      "v": 78
    },
    {
      "midi": 64,
      "hit": false,
      "t": 69192.49999999997,
      "d": 63.33333333332848,
      "v": 92
    },
    {
      "midi": 76,
      "hit": false,
      "t": 69194.99999999997,
      "d": 73.33333333332848,
      "v": 92
    },
    {
      "midi": 44,
      "hit": false,
      "t": 69229.99999999997,
      "d": 102.5,
      "v": 99
    },
    {
      "midi": 76,
      "hit": false,
      "t": 69462.49999999997,
      "d": 83.33333333332848,
      "v": 95
    },
    {
      "midi": 71,
      "hit": false,
      "t": 69465.8333333333,
      "d": 70,
      "v": 83
    },
    {
      "midi": 64,
      "hit": false,
      "t": 69469.16666666663,
      "d": 62.5,
      "v": 102
    },
    {
      "midi": 44,
      "hit": false,
      "t": 69476.66666666663,
      "d": 122.5,
      "v": 105
    },
    {
      "midi": 71,
      "hit": false,
      "t": 69715.8333333333,
      "d": 74.16666666667152,
      "v": 78
    },
    {
      "midi": 64,
      "hit": false,
      "t": 69719.99999999997,
      "d": 64.16666666667152,
      "v": 95
    },
    {
      "midi": 76,
      "hit": false,
      "t": 69719.99999999997,
      "d": 82.5,
      "v": 89
    },
    {
      "midi": 32,
      "hit": false,
      "t": 69960.8333333333,
      "d": 125,
      "v": 79
    },
    {
      "midi": 39,
      "hit": false,
      "t": 69966.66666666663,
      "d": 165.83333333334303,
      "v": 89
    },
    {
      "midi": 71,
      "hit": false,
      "t": 69968.3333333333,
      "d": 61.66666666667152,
      "v": 67
    },
    {
      "midi": 76,
      "hit": false,
      "t": 69972.49999999997,
      "d": 52.5,
      "v": 83
    },
    {
      "midi": 64,
      "hit": false,
      "t": 69977.49999999997,
      "d": 49.16666666667152,
      "v": 77
    },
    {
      "midi": 40,
      "hit": false,
      "t": 70234.99999999997,
      "d": 298.33333333334303,
      "v": 89
    },
    {
      "midi": 64,
      "hit": false,
      "t": 70246.66666666664,
      "d": 144.16666666668607,
      "v": 79
    },
    {
      "midi": 33,
      "hit": false,
      "t": 70250.83333333331,
      "d": 160.83333333334303,
      "v": 77
    },
    {
      "midi": 69,
      "hit": false,
      "t": 70251.66666666664,
      "d": 2515.833333333343,
      "v": 69
    },
    {
      "midi": 55,
      "hit": false,
      "t": 70267.49999999997,
      "d": 59.16666666668607,
      "v": 78
    },
    {
      "midi": 61,
      "hit": false,
      "t": 70288.33333333331,
      "d": 29.166666666671517,
      "v": 64
    },
    {
      "midi": 64,
      "hit": false,
      "t": 70479.99999999999,
      "d": 110.83333333332848,
      "v": 47
    },
    {
      "midi": 61,
      "hit": false,
      "t": 70496.66666666666,
      "d": 71.66666666665697,
      "v": 59
    },
    {
      "midi": 55,
      "hit": false,
      "t": 70504.99999999999,
      "d": 65.83333333332848,
      "v": 57
    },
    {
      "midi": 67,
      "hit": false,
      "t": 70742.49999999999,
      "d": 141.66666666665697,
      "v": 60
    },
    {
      "midi": 61,
      "hit": false,
      "t": 70747.49999999999,
      "d": 78.33333333332848,
      "v": 67
    },
    {
      "midi": 64,
      "hit": false,
      "t": 70750.83333333331,
      "d": 85,
      "v": 61
    },
    {
      "midi": 55,
      "hit": false,
      "t": 70755.83333333331,
      "d": 68.33333333332848,
      "v": 63
    },
    {
      "midi": 33,
      "hit": false,
      "t": 70774.16666666664,
      "d": 370.8333333333576,
      "v": 73
    },
    {
      "midi": 67,
      "hit": false,
      "t": 71025.83333333331,
      "d": 156.66666666668607,
      "v": 57
    },
    {
      "midi": 55,
      "hit": false,
      "t": 71034.99999999999,
      "d": 105.00000000001455,
      "v": 70
    },
    {
      "midi": 61,
      "hit": false,
      "t": 71039.16666666666,
      "d": 103.33333333334303,
      "v": 71
    },
    {
      "midi": 64,
      "hit": false,
      "t": 71039.99999999999,
      "d": 111.66666666668607,
      "v": 71
    },
    {
      "midi": 42,
      "hit": false,
      "t": 71048.33333333333,
      "d": 300.83333333334303,
      "v": 99
    },
    {
      "midi": 61,
      "hit": false,
      "t": 71292.5,
      "d": 85.83333333334303,
      "v": 46
    },
    {
      "midi": 64,
      "hit": false,
      "t": 71296.66666666667,
      "d": 92.5,
      "v": 51
    },
    {
      "midi": 67,
      "hit": false,
      "t": 71300,
      "d": 107.5,
      "v": 50
    },
    {
      "midi": 55,
      "hit": false,
      "t": 71302.5,
      "d": 73.33333333334303,
      "v": 52
    },
    {
      "midi": 61,
      "hit": false,
      "t": 71533.33333333333,
      "d": 100.83333333334303,
      "v": 47
    },
    {
      "midi": 55,
      "hit": false,
      "t": 71540,
      "d": 92.5,
      "v": 47
    },
    {
      "midi": 64,
      "hit": false,
      "t": 71542.5,
      "d": 96.66666666667152,
      "v": 46
    },
    {
      "midi": 67,
      "hit": false,
      "t": 71547.5,
      "d": 112.5,
      "v": 55
    },
    {
      "midi": 33,
      "hit": false,
      "t": 71570,
      "d": 360.83333333334303,
      "v": 73
    },
    {
      "midi": 55,
      "hit": false,
      "t": 71825,
      "d": 121.66666666668607,
      "v": 73
    },
    {
      "midi": 61,
      "hit": false,
      "t": 71826.66666666667,
      "d": 115.83333333334303,
      "v": 75
    },
    {
      "midi": 64,
      "hit": false,
      "t": 71831.66666666667,
      "d": 125.83333333334303,
      "v": 74
    },
    {
      "midi": 67,
      "hit": false,
      "t": 71831.66666666667,
      "d": 155.83333333334303,
      "v": 56
    },
    {
      "midi": 43,
      "hit": false,
      "t": 71838.33333333334,
      "d": 361.66666666665697,
      "v": 79
    },
    {
      "midi": 61,
      "hit": false,
      "t": 72072.50000000001,
      "d": 94.99999999998545,
      "v": 54
    },
    {
      "midi": 55,
      "hit": false,
      "t": 72075.83333333334,
      "d": 94.99999999998545,
      "v": 63
    },
    {
      "midi": 64,
      "hit": false,
      "t": 72083.33333333334,
      "d": 102.49999999998545,
      "v": 59
    },
    {
      "midi": 67,
      "hit": false,
      "t": 72090.00000000001,
      "d": 117.49999999998545,
      "v": 44
    },
    {
      "midi": 61,
      "hit": false,
      "t": 72332.5,
      "d": 109.16666666665697,
      "v": 60
    },
    {
      "midi": 64,
      "hit": false,
      "t": 72338.33333333333,
      "d": 109.16666666665697,
      "v": 56
    },
    {
      "midi": 55,
      "hit": false,
      "t": 72340.83333333333,
      "d": 86.66666666665697,
      "v": 66
    },
    {
      "midi": 67,
      "hit": false,
      "t": 72348.33333333333,
      "d": 127.49999999998545,
      "v": 60
    },
    {
      "midi": 33,
      "hit": false,
      "t": 72351.66666666666,
      "d": 435.8333333333285,
      "v": 77
    },
    {
      "midi": 61,
      "hit": false,
      "t": 72612.49999999999,
      "d": 140,
      "v": 75
    },
    {
      "midi": 67,
      "hit": false,
      "t": 72614.99999999999,
      "d": 158.33333333332848,
      "v": 67
    },
    {
      "midi": 55,
      "hit": false,
      "t": 72619.99999999999,
      "d": 130,
      "v": 74
    },
    {
      "midi": 64,
      "hit": false,
      "t": 72619.99999999999,
      "d": 145.83333333332848,
      "v": 73
    },
    {
      "midi": 42,
      "hit": false,
      "t": 72632.49999999999,
      "d": 175,
      "v": 105
    },
    {
      "midi": 61,
      "hit": false,
      "t": 72884.99999999999,
      "d": 120.83333333335759,
      "v": 71
    },
    {
      "midi": 55,
      "hit": false,
      "t": 72887.49999999999,
      "d": 105.00000000001455,
      "v": 69
    },
    {
      "midi": 64,
      "hit": false,
      "t": 72891.66666666666,
      "d": 118.33333333335759,
      "v": 70
    },
    {
      "midi": 67,
      "hit": false,
      "t": 72895.83333333333,
      "d": 127.50000000001455,
      "v": 67
    },
    {
      "midi": 69,
      "hit": false,
      "t": 72902.5,
      "d": 99.16666666667152,
      "v": 67
    },
    {
      "midi": 61,
      "hit": false,
      "t": 73145.83333333334,
      "d": 115.83333333334303,
      "v": 66
    },
    {
      "midi": 67,
      "hit": false,
      "t": 73148.33333333334,
      "d": 137.50000000001455,
      "v": 63
    },
    {
      "midi": 55,
      "hit": false,
      "t": 73153.33333333334,
      "d": 87.50000000001455,
      "v": 65
    },
    {
      "midi": 64,
      "hit": false,
      "t": 73157.50000000001,
      "d": 95.83333333334303,
      "v": 65
    },
    {
      "midi": 69,
      "hit": false,
      "t": 73159.16666666669,
      "d": 136.66666666667152,
      "v": 65
    },
    {
      "midi": 32,
      "hit": false,
      "t": 73165.00000000001,
      "d": 146.66666666667152,
      "v": 92
    },
    {
      "midi": 39,
      "hit": false,
      "t": 73171.66666666669,
      "d": 162.5,
      "v": 78
    },
    {
      "midi": 69,
      "hit": false,
      "t": 73405.83333333336,
      "d": 2286.6666666667006,
      "v": 55
    },
    {
      "midi": 67,
      "hit": false,
      "t": 73410.83333333336,
      "d": 157.50000000001455,
      "v": 63
    },
    {
      "midi": 61,
      "hit": false,
      "t": 73415.00000000003,
      "d": 120.00000000001455,
      "v": 67
    },
    {
      "midi": 55,
      "hit": false,
      "t": 73417.50000000003,
      "d": 103.33333333334303,
      "v": 65
    },
    {
      "midi": 64,
      "hit": false,
      "t": 73423.33333333336,
      "d": 120.00000000001455,
      "v": 51
    },
    {
      "midi": 40,
      "hit": false,
      "t": 73432.50000000003,
      "d": 368.3333333333576,
      "v": 79
    },
    {
      "midi": 33,
      "hit": false,
      "t": 73436.6666666667,
      "d": 194.16666666667152,
      "v": 77
    },
    {
      "midi": 61,
      "hit": false,
      "t": 73670.00000000004,
      "d": 110,
      "v": 60
    },
    {
      "midi": 67,
      "hit": false,
      "t": 73672.50000000004,
      "d": 153.33333333334303,
      "v": 60
    },
    {
      "midi": 55,
      "hit": false,
      "t": 73680.83333333337,
      "d": 100.83333333334303,
      "v": 61
    },
    {
      "midi": 64,
      "hit": false,
      "t": 73685.00000000004,
      "d": 101.66666666667152,
      "v": 54
    },
    {
      "midi": 61,
      "hit": false,
      "t": 73925.83333333339,
      "d": 104.16666666667152,
      "v": 71
    },
    {
      "midi": 67,
      "hit": false,
      "t": 73931.66666666672,
      "d": 150.83333333334303,
      "v": 42
    },
    {
      "midi": 64,
      "hit": false,
      "t": 73933.33333333339,
      "d": 111.66666666667152,
      "v": 57
    },
    {
      "midi": 55,
      "hit": false,
      "t": 73940.83333333339,
      "d": 85,
      "v": 69
    },
    {
      "midi": 33,
      "hit": false,
      "t": 73943.33333333339,
      "d": 405.0000000000291,
      "v": 78
    },
    {
      "midi": 61,
      "hit": false,
      "t": 74205.83333333339,
      "d": 121.66666666668607,
      "v": 69
    },
    {
      "midi": 55,
      "hit": false,
      "t": 74210.00000000006,
      "d": 124.16666666668607,
      "v": 77
    },
    {
      "midi": 64,
      "hit": false,
      "t": 74212.50000000006,
      "d": 120.00000000001455,
      "v": 67
    },
    {
      "midi": 67,
      "hit": false,
      "t": 74216.66666666673,
      "d": 155.00000000001455,
      "v": 71
    },
    {
      "midi": 42,
      "hit": false,
      "t": 74220.8333333334,
      "d": 404.16666666668607,
      "v": 89
    },
    {
      "midi": 67,
      "hit": false,
      "t": 74445.83333333342,
      "d": 154.16666666667152,
      "v": 42
    },
    {
      "midi": 61,
      "hit": false,
      "t": 74455.00000000009,
      "d": 92.5,
      "v": 61
    },
    {
      "midi": 55,
      "hit": false,
      "t": 74456.66666666676,
      "d": 96.66666666665697,
      "v": 62
    },
    {
      "midi": 64,
      "hit": false,
      "t": 74465.00000000009,
      "d": 100.83333333332848,
      "v": 61
    },
    {
      "midi": 33,
      "hit": false,
      "t": 74706.66666666676,
      "d": 425,
      "v": 74
    },
    {
      "midi": 55,
      "hit": false,
      "t": 74708.33333333343,
      "d": 120,
      "v": 67
    },
    {
      "midi": 61,
      "hit": false,
      "t": 74712.5000000001,
      "d": 127.5,
      "v": 60
    },
    {
      "midi": 64,
      "hit": false,
      "t": 74717.5000000001,
      "d": 128.33333333332848,
      "v": 57
    },
    {
      "midi": 67,
      "hit": false,
      "t": 74720.83333333343,
      "d": 150.83333333332848,
      "v": 51
    },
    {
      "midi": 61,
      "hit": false,
      "t": 74987.50000000009,
      "d": 126.66666666667152,
      "v": 74
    },
    {
      "midi": 64,
      "hit": false,
      "t": 74990.00000000009,
      "d": 130,
      "v": 65
    },
    {
      "midi": 55,
      "hit": false,
      "t": 74993.33333333342,
      "d": 121.66666666667152,
      "v": 79
    },
    {
      "midi": 43,
      "hit": false,
      "t": 74998.33333333342,
      "d": 401.66666666665697,
      "v": 83
    },
    {
      "midi": 67,
      "hit": false,
      "t": 75000.00000000009,
      "d": 158.33333333334303,
      "v": 71
    },
    {
      "midi": 61,
      "hit": false,
      "t": 75234.16666666676,
      "d": 102.49999999998545,
      "v": 60
    },
    {
      "midi": 67,
      "hit": false,
      "t": 75236.66666666676,
      "d": 139.1666666666424,
      "v": 42
    },
    {
      "midi": 55,
      "hit": false,
      "t": 75240.00000000009,
      "d": 106.66666666665697,
      "v": 69
    },
    {
      "midi": 64,
      "hit": false,
      "t": 75245.83333333342,
      "d": 109.16666666665697,
      "v": 59
    },
    {
      "midi": 64,
      "hit": false,
      "t": 75495.8333333334,
      "d": 134.99999999998545,
      "v": 55
    },
    {
      "midi": 55,
      "hit": false,
      "t": 75498.3333333334,
      "d": 108.33333333332848,
      "v": 69
    },
    {
      "midi": 61,
      "hit": false,
      "t": 75498.3333333334,
      "d": 126.66666666665697,
      "v": 66
    },
    {
      "midi": 67,
      "hit": false,
      "t": 75506.66666666673,
      "d": 145.83333333332848,
      "v": 51
    },
    {
      "midi": 33,
      "hit": false,
      "t": 75506.66666666673,
      "d": 524.9999999999709,
      "v": 75
    },
    {
      "midi": 69,
      "hit": false,
      "t": 75762.50000000006,
      "d": 121.66666666665697,
      "v": 63
    },
    {
      "midi": 42,
      "hit": false,
      "t": 75765.83333333339,
      "d": 269.99999999998545,
      "v": 99
    },
    {
      "midi": 61,
      "hit": false,
      "t": 75768.33333333339,
      "d": 119.16666666665697,
      "v": 67
    },
    {
      "midi": 55,
      "hit": false,
      "t": 75773.33333333339,
      "d": 100,
      "v": 74
    },
    {
      "midi": 64,
      "hit": false,
      "t": 75773.33333333339,
      "d": 124.99999999998545,
      "v": 67
    },
    {
      "midi": 67,
      "hit": false,
      "t": 75780.83333333339,
      "d": 128.33333333331393,
      "v": 73
    },
    {
      "midi": 55,
      "hit": false,
      "t": 76016.6666666667,
      "d": 98.33333333334303,
      "v": 66
    },
    {
      "midi": 61,
      "hit": false,
      "t": 76020.83333333337,
      "d": 95.83333333334303,
      "v": 67
    },
    {
      "midi": 64,
      "hit": false,
      "t": 76023.33333333337,
      "d": 99.16666666667152,
      "v": 60
    },
    {
      "midi": 67,
      "hit": false,
      "t": 76026.6666666667,
      "d": 110.83333333334303,
      "v": 62
    },
    {
      "midi": 69,
      "hit": false,
      "t": 76031.6666666667,
      "d": 93.33333333334303,
      "v": 61
    },
    {
      "midi": 64,
      "hit": false,
      "t": 76270.83333333337,
      "d": 110.00000000001455,
      "v": 55
    },
    {
      "midi": 61,
      "hit": false,
      "t": 76273.33333333337,
      "d": 111.66666666668607,
      "v": 70
    },
    {
      "midi": 67,
      "hit": false,
      "t": 76282.50000000004,
      "d": 132.50000000001455,
      "v": 57
    },
    {
      "midi": 55,
      "hit": false,
      "t": 76287.50000000004,
      "d": 61.66666666667152,
      "v": 73
    },
    {
      "midi": 69,
      "hit": false,
      "t": 76291.66666666672,
      "d": 109.16666666667152,
      "v": 60
    },
    {
      "midi": 33,
      "hit": false,
      "t": 76295.00000000004,
      "d": 175.83333333334303,
      "v": 74
    },
    {
      "midi": 40,
      "hit": false,
      "t": 76304.16666666672,
      "d": 242.50000000001455,
      "v": 78
    },
    {
      "midi": 66,
      "hit": false,
      "t": 76566.66666666673,
      "d": 132.5,
      "v": 92
    },
    {
      "midi": 38,
      "hit": false,
      "t": 76568.3333333334,
      "d": 155.83333333332848,
      "v": 83
    },
    {
      "midi": 62,
      "hit": false,
      "t": 76572.50000000007,
      "d": 109.16666666665697,
      "v": 78
    },
    {
      "midi": 45,
      "hit": false,
      "t": 76575.8333333334,
      "d": 555,
      "v": 92
    },
    {
      "midi": 69,
      "hit": false,
      "t": 76580.00000000007,
      "d": 3080.833333333372,
      "v": 92
    },
    {
      "midi": 57,
      "hit": false,
      "t": 76585.8333333334,
      "d": 75,
      "v": 99
    },
    {
      "midi": 66,
      "hit": false,
      "t": 76826.66666666673,
      "d": 98.33333333332848,
      "v": 70
    },
    {
      "midi": 57,
      "hit": false,
      "t": 76830.00000000006,
      "d": 67.5,
      "v": 65
    },
    {
      "midi": 62,
      "hit": false,
      "t": 76833.33333333339,
      "d": 79.16666666667152,
      "v": 51
    },
    {
      "midi": 66,
      "hit": false,
      "t": 77086.66666666673,
      "d": 134.16666666667152,
      "v": 74
    },
    {
      "midi": 62,
      "hit": false,
      "t": 77090.8333333334,
      "d": 125,
      "v": 65
    },
    {
      "midi": 57,
      "hit": false,
      "t": 77095.00000000007,
      "d": 88.33333333332848,
      "v": 69
    },
    {
      "midi": 38,
      "hit": false,
      "t": 77115.00000000007,
      "d": 467.5,
      "v": 78
    },
    {
      "midi": 66,
      "hit": false,
      "t": 77370.8333333334,
      "d": 110,
      "v": 77
    },
    {
      "midi": 62,
      "hit": false,
      "t": 77375.8333333334,
      "d": 95,
      "v": 73
    },
    {
      "midi": 57,
      "hit": false,
      "t": 77376.66666666673,
      "d": 75.83333333334303,
      "v": 78
    },
    {
      "midi": 47,
      "hit": false,
      "t": 77385.8333333334,
      "d": 525.0000000000146,
      "v": 102
    },
    {
      "midi": 66,
      "hit": false,
      "t": 77615.00000000007,
      "d": 107.5,
      "v": 75
    },
    {
      "midi": 57,
      "hit": false,
      "t": 77620.8333333334,
      "d": 75.83333333332848,
      "v": 74
    },
    {
      "midi": 62,
      "hit": false,
      "t": 77621.66666666673,
      "d": 86.66666666667152,
      "v": 66
    },
    {
      "midi": 66,
      "hit": false,
      "t": 77880.00000000007,
      "d": 120.83333333334303,
      "v": 77
    },
    {
      "midi": 62,
      "hit": false,
      "t": 77885.00000000007,
      "d": 100.00000000001455,
      "v": 73
    },
    {
      "midi": 57,
      "hit": false,
      "t": 77887.50000000007,
      "d": 80.83333333334303,
      "v": 74
    },
    {
      "midi": 38,
      "hit": false,
      "t": 77896.66666666674,
      "d": 390,
      "v": 79
    },
    {
      "midi": 66,
      "hit": false,
      "t": 78156.66666666674,
      "d": 119.16666666667152,
      "v": 78
    },
    {
      "midi": 62,
      "hit": false,
      "t": 78160.83333333342,
      "d": 101.66666666667152,
      "v": 77
    },
    {
      "midi": 57,
      "hit": false,
      "t": 78161.66666666674,
      "d": 83.33333333334303,
      "v": 79
    },
    {
      "midi": 48,
      "hit": false,
      "t": 78168.33333333342,
      "d": 439.99999999998545,
      "v": 89
    },
    {
      "midi": 66,
      "hit": false,
      "t": 78410.00000000007,
      "d": 118.33333333332848,
      "v": 75
    },
    {
      "midi": 62,
      "hit": false,
      "t": 78413.3333333334,
      "d": 99.16666666667152,
      "v": 69
    },
    {
      "midi": 57,
      "hit": false,
      "t": 78417.50000000007,
      "d": 79.16666666667152,
      "v": 73
    },
    {
      "midi": 38,
      "hit": false,
      "t": 78667.50000000007,
      "d": 440,
      "v": 78
    },
    {
      "midi": 66,
      "hit": false,
      "t": 78675.8333333334,
      "d": 119.16666666665697,
      "v": 77
    },
    {
      "midi": 57,
      "hit": false,
      "t": 78680.8333333334,
      "d": 80.83333333332848,
      "v": 75
    },
    {
      "midi": 62,
      "hit": false,
      "t": 78685.8333333334,
      "d": 100.83333333332848,
      "v": 65
    },
    {
      "midi": 66,
      "hit": false,
      "t": 78940.00000000006,
      "d": 131.66666666668607,
      "v": 79
    },
    {
      "midi": 62,
      "hit": false,
      "t": 78943.33333333339,
      "d": 116.66666666668607,
      "v": 73
    },
    {
      "midi": 57,
      "hit": false,
      "t": 78948.33333333339,
      "d": 98.33333333334303,
      "v": 78
    },
    {
      "midi": 47,
      "hit": false,
      "t": 78952.50000000006,
      "d": 693.3333333333867,
      "v": 89
    },
    {
      "midi": 62,
      "hit": false,
      "t": 79206.66666666674,
      "d": 103.33333333334303,
      "v": 75
    },
    {
      "midi": 66,
      "hit": false,
      "t": 79208.33333333342,
      "d": 115.83333333334303,
      "v": 78
    },
    {
      "midi": 57,
      "hit": false,
      "t": 79213.33333333342,
      "d": 79.16666666667152,
      "v": 75
    },
    {
      "midi": 66,
      "hit": false,
      "t": 79455.83333333343,
      "d": 144.16666666668607,
      "v": 77
    },
    {
      "midi": 62,
      "hit": false,
      "t": 79461.66666666676,
      "d": 118.33333333334303,
      "v": 69
    },
    {
      "midi": 44,
      "hit": false,
      "t": 79466.66666666676,
      "d": 148.3333333333576,
      "v": 89
    },
    {
      "midi": 57,
      "hit": false,
      "t": 79468.33333333343,
      "d": 113.33333333334303,
      "v": 74
    },
    {
      "midi": 37,
      "hit": false,
      "t": 79472.5000000001,
      "d": 113.33333333334303,
      "v": 92
    },
    {
      "midi": 45,
      "hit": false,
      "t": 79721.66666666679,
      "d": 829.1666666666715,
      "v": 86
    },
    {
      "midi": 38,
      "hit": false,
      "t": 79726.66666666679,
      "d": 263.3333333333285,
      "v": 89
    },
    {
      "midi": 65,
      "hit": false,
      "t": 79732.50000000012,
      "d": 130,
      "v": 86
    },
    {
      "midi": 57,
      "hit": false,
      "t": 79736.66666666679,
      "d": 96.66666666665697,
      "v": 78
    },
    {
      "midi": 62,
      "hit": false,
      "t": 79740.00000000012,
      "d": 105,
      "v": 77
    },
    {
      "midi": 65,
      "hit": false,
      "t": 80000.83333333344,
      "d": 90,
      "v": 52
    },
    {
      "midi": 62,
      "hit": false,
      "t": 80005.83333333344,
      "d": 71.66666666667152,
      "v": 56
    },
    {
      "midi": 57,
      "hit": false,
      "t": 80007.50000000012,
      "d": 49.16666666667152,
      "v": 57
    },
    {
      "midi": 38,
      "hit": false,
      "t": 80242.50000000012,
      "d": 494.16666666665697,
      "v": 74
    },
    {
      "midi": 65,
      "hit": false,
      "t": 80267.50000000012,
      "d": 91.66666666667152,
      "v": 70
    },
    {
      "midi": 62,
      "hit": false,
      "t": 80272.50000000012,
      "d": 72.5,
      "v": 62
    },
    {
      "midi": 57,
      "hit": false,
      "t": 80275.83333333344,
      "d": 50,
      "v": 62
    },
    {
      "midi": 47,
      "hit": false,
      "t": 80548.33333333346,
      "d": 549.1666666666424,
      "v": 102
    },
    {
      "midi": 65,
      "hit": false,
      "t": 80551.66666666679,
      "d": 94.16666666665697,
      "v": 92
    },
    {
      "midi": 62,
      "hit": false,
      "t": 80555.00000000012,
      "d": 80.83333333332848,
      "v": 78
    },
    {
      "midi": 57,
      "hit": false,
      "t": 80560.00000000012,
      "d": 65.83333333332848,
      "v": 86
    },
    {
      "midi": 65,
      "hit": false,
      "t": 80820.0000000001,
      "d": 81.66666666667152,
      "v": 70
    },
    {
      "midi": 57,
      "hit": false,
      "t": 80821.66666666677,
      "d": 65,
      "v": 67
    },
    {
      "midi": 62,
      "hit": false,
      "t": 80824.16666666677,
      "d": 70.83333333332848,
      "v": 63
    },
    {
      "midi": 38,
      "hit": false,
      "t": 81062.5000000001,
      "d": 455.00000000001455,
      "v": 86
    },
    {
      "midi": 65,
      "hit": false,
      "t": 81090.0000000001,
      "d": 90,
      "v": 77
    },
    {
      "midi": 62,
      "hit": false,
      "t": 81092.5000000001,
      "d": 75,
      "v": 70
    },
    {
      "midi": 57,
      "hit": false,
      "t": 81097.5000000001,
      "d": 68.33333333332848,
      "v": 71
    },
    {
      "midi": 45,
      "hit": false,
      "t": 81350.0000000001,
      "d": 570.8333333333721,
      "v": 92
    },
    {
      "midi": 65,
      "hit": false,
      "t": 81357.5000000001,
      "d": 100.00000000001455,
      "v": 79
    },
    {
      "midi": 57,
      "hit": false,
      "t": 81361.66666666677,
      "d": 78.33333333334303,
      "v": 83
    },
    {
      "midi": 62,
      "hit": false,
      "t": 81363.33333333344,
      "d": 74.16666666667152,
      "v": 78
    },
    {
      "midi": 65,
      "hit": false,
      "t": 81621.66666666679,
      "d": 91.66666666667152,
      "v": 71
    },
    {
      "midi": 62,
      "hit": false,
      "t": 81625.83333333346,
      "d": 75.83333333332848,
      "v": 67
    },
    {
      "midi": 57,
      "hit": false,
      "t": 81628.33333333346,
      "d": 70.83333333332848,
      "v": 69
    },
    {
      "midi": 38,
      "hit": false,
      "t": 81867.50000000013,
      "d": 400.0000000000291,
      "v": 89
    },
    {
      "midi": 65,
      "hit": false,
      "t": 81876.6666666668,
      "d": 98.33333333334303,
      "v": 78
    },
    {
      "midi": 57,
      "hit": false,
      "t": 81880.83333333347,
      "d": 75,
      "v": 75
    },
    {
      "midi": 62,
      "hit": false,
      "t": 81880.83333333347,
      "d": 85,
      "v": 74
    },
    {
      "midi": 47,
      "hit": false,
      "t": 82130.83333333347,
      "d": 430.8333333333576,
      "v": 95
    },
    {
      "midi": 65,
      "hit": false,
      "t": 82142.50000000015,
      "d": 100.00000000001455,
      "v": 83
    },
    {
      "midi": 62,
      "hit": false,
      "t": 82146.66666666682,
      "d": 92.50000000001455,
      "v": 78
    },
    {
      "midi": 57,
      "hit": false,
      "t": 82150.83333333349,
      "d": 76.66666666667152,
      "v": 75
    },
    {
      "midi": 62,
      "hit": false,
      "t": 82396.66666666683,
      "d": 100.83333333332848,
      "v": 75
    },
    {
      "midi": 65,
      "hit": false,
      "t": 82400.00000000016,
      "d": 102.5,
      "v": 78
    },
    {
      "midi": 57,
      "hit": false,
      "t": 82403.33333333349,
      "d": 76.66666666667152,
      "v": 74
    },
    {
      "midi": 62,
      "hit": false,
      "t": 82650.8333333335,
      "d": 86.66666666667152,
      "v": 75
    },
    {
      "midi": 65,
      "hit": false,
      "t": 82653.3333333335,
      "d": 81.66666666667152,
      "v": 77
    },
    {
      "midi": 57,
      "hit": false,
      "t": 82660.00000000017,
      "d": 72.5,
      "v": 69
    },
    {
      "midi": 40,
      "hit": false,
      "t": 82678.3333333335,
      "d": 94.16666666667152,
      "v": 77
    },
    {
      "midi": 33,
      "hit": false,
      "t": 82926.66666666683,
      "d": 1004.1666666666715,
      "v": 95
    },
    {
      "midi": 45,
      "hit": false,
      "t": 82930.00000000016,
      "d": 487.5,
      "v": 92
    },
    {
      "midi": 61,
      "hit": false,
      "t": 82932.50000000016,
      "d": 83.33333333332848,
      "v": 79
    },
    {
      "midi": 64,
      "hit": false,
      "t": 82936.66666666683,
      "d": 78.33333333332848,
      "v": 79
    },
    {
      "midi": 69,
      "hit": false,
      "t": 82936.66666666683,
      "d": 955.833333333343,
      "v": 89
    },
    {
      "midi": 57,
      "hit": false,
      "t": 82945.00000000016,
      "d": 56.66666666667152,
      "v": 89
    },
    {
      "midi": 61,
      "hit": false,
      "t": 83184.16666666682,
      "d": 66.66666666667152,
      "v": 66
    },
    {
      "midi": 64,
      "hit": false,
      "t": 83187.50000000015,
      "d": 75.00000000001455,
      "v": 61
    },
    {
      "midi": 57,
      "hit": false,
      "t": 83194.16666666682,
      "d": 46.66666666667152,
      "v": 57
    },
    {
      "midi": 61,
      "hit": false,
      "t": 83457.50000000016,
      "d": 79.16666666668607,
      "v": 78
    },
    {
      "midi": 64,
      "hit": false,
      "t": 83461.66666666683,
      "d": 95.00000000001455,
      "v": 78
    },
    {
      "midi": 57,
      "hit": false,
      "t": 83465.8333333335,
      "d": 69.16666666667152,
      "v": 79
    },
    {
      "midi": 64,
      "hit": false,
      "t": 83725.83333333352,
      "d": 130.83333333332848,
      "v": 86
    },
    {
      "midi": 61,
      "hit": false,
      "t": 83728.33333333352,
      "d": 120,
      "v": 86
    },
    {
      "midi": 57,
      "hit": false,
      "t": 83733.33333333352,
      "d": 91.66666666667152,
      "v": 78
    },
    {
      "midi": 45,
      "hit": false,
      "t": 83737.50000000019,
      "d": 177.49999999998545,
      "v": 95
    },
    {
      "midi": 64,
      "hit": false,
      "t": 83968.3333333335,
      "d": 112.5,
      "v": 65
    },
    {
      "midi": 61,
      "hit": false,
      "t": 83978.3333333335,
      "d": 85,
      "v": 62
    },
    {
      "midi": 57,
      "hit": false,
      "t": 83986.66666666683,
      "d": 86.66666666667152,
      "v": 67
    },
    {
      "midi": 64,
      "hit": false,
      "t": 84258.3333333335,
      "d": 87.49999999998545,
      "v": 71
    },
    {
      "midi": 57,
      "hit": false,
      "t": 84260.8333333335,
      "d": 71.66666666665697,
      "v": 77
    },
    {
      "midi": 69,
      "hit": false,
      "t": 84266.66666666683,
      "d": 100.83333333332848,
      "v": 77
    },
    {
      "midi": 61,
      "hit": false,
      "t": 84270.8333333335,
      "d": 84.99999999998545,
      "v": 71
    },
    {
      "midi": 33,
      "hit": false,
      "t": 84275.8333333335,
      "d": 71.66666666665697,
      "v": 79
    },
    {
      "midi": 45,
      "hit": false,
      "t": 84276.66666666683,
      "d": 58.33333333332848,
      "v": 92
    },
    {
      "midi": 61,
      "hit": false,
      "t": 84522.50000000016,
      "d": 114.16666666667152,
      "v": 86
    },
    {
      "midi": 65,
      "hit": false,
      "t": 84528.33333333349,
      "d": 125.83333333334303,
      "v": 78
    },
    {
      "midi": 68,
      "hit": false,
      "t": 84530.00000000016,
      "d": 135.83333333334303,
      "v": 92
    },
    {
      "midi": 59,
      "hit": false,
      "t": 84537.50000000016,
      "d": 95.83333333334303,
      "v": 83
    },
    {
      "midi": 44,
      "hit": false,
      "t": 84546.66666666683,
      "d": 931.666666666657,
      "v": 111
    },
    {
      "midi": 32,
      "hit": false,
      "t": 84550.8333333335,
      "d": 919.166666666657,
      "v": 105
    },
    {
      "midi": 68,
      "hit": false,
      "t": 84786.66666666683,
      "d": 119.16666666665697,
      "v": 71
    },
    {
      "midi": 59,
      "hit": false,
      "t": 84791.66666666683,
      "d": 70,
      "v": 70
    },
    {
      "midi": 61,
      "hit": false,
      "t": 84791.66666666683,
      "d": 83.33333333332848,
      "v": 63
    },
    {
      "midi": 65,
      "hit": false,
      "t": 84798.3333333335,
      "d": 99.16666666665697,
      "v": 52
    },
    {
      "midi": 65,
      "hit": false,
      "t": 85049.16666666682,
      "d": 129.16666666667152,
      "v": 63
    },
    {
      "midi": 61,
      "hit": false,
      "t": 85053.33333333349,
      "d": 102.5,
      "v": 70
    },
    {
      "midi": 68,
      "hit": false,
      "t": 85053.33333333349,
      "d": 133.33333333332848,
      "v": 75
    },
    {
      "midi": 59,
      "hit": false,
      "t": 85058.33333333349,
      "d": 98.33333333332848,
      "v": 74
    },
    {
      "midi": 68,
      "hit": false,
      "t": 85316.66666666682,
      "d": 142.50000000001455,
      "v": 78
    },
    {
      "midi": 61,
      "hit": false,
      "t": 85320.00000000015,
      "d": 115.83333333334303,
      "v": 77
    },
    {
      "midi": 59,
      "hit": false,
      "t": 85322.50000000015,
      "d": 104.16666666667152,
      "v": 77
    },
    {
      "midi": 65,
      "hit": false,
      "t": 85322.50000000015,
      "d": 120.00000000001455,
      "v": 77
    },
    {
      "midi": 59,
      "hit": false,
      "t": 85567.50000000016,
      "d": 94.16666666665697,
      "v": 69
    },
    {
      "midi": 61,
      "hit": false,
      "t": 85570.00000000016,
      "d": 101.66666666665697,
      "v": 71
    },
    {
      "midi": 65,
      "hit": false,
      "t": 85572.50000000016,
      "d": 119.16666666665697,
      "v": 70
    },
    {
      "midi": 68,
      "hit": false,
      "t": 85575.83333333349,
      "d": 119.16666666665697,
      "v": 75
    },
    {
      "midi": 68,
      "hit": false,
      "t": 85825.83333333347,
      "d": 105.83333333334303,
      "v": 70
    },
    {
      "midi": 61,
      "hit": false,
      "t": 85828.33333333347,
      "d": 95,
      "v": 66
    },
    {
      "midi": 59,
      "hit": false,
      "t": 85832.50000000015,
      "d": 83.33333333332848,
      "v": 67
    },
    {
      "midi": 32,
      "hit": false,
      "t": 85835.00000000015,
      "d": 93.33333333332848,
      "v": 92
    },
    {
      "midi": 44,
      "hit": false,
      "t": 85836.66666666682,
      "d": 70.83333333332848,
      "v": 111
    },
    {
      "midi": 65,
      "hit": false,
      "t": 85842.50000000015,
      "d": 87.5,
      "v": 73
    },
    {
      "midi": 66,
      "hit": false,
      "t": 86098.33333333347,
      "d": 141.66666666667152,
      "v": 75
    },
    {
      "midi": 61,
      "hit": false,
      "t": 86101.6666666668,
      "d": 119.16666666667152,
      "v": 70
    },
    {
      "midi": 57,
      "hit": false,
      "t": 86107.50000000013,
      "d": 99.16666666667152,
      "v": 73
    },
    {
      "midi": 64,
      "hit": false,
      "t": 86110.00000000013,
      "d": 125.00000000001455,
      "v": 67
    },
    {
      "midi": 69,
      "hit": false,
      "t": 86115.00000000013,
      "d": 107.50000000001455,
      "v": 73
    },
    {
      "midi": 42,
      "hit": false,
      "t": 86126.6666666668,
      "d": 1210.833333333314,
      "v": 108
    },
    {
      "midi": 30,
      "hit": false,
      "t": 86130.00000000013,
      "d": 150.83333333334303,
      "v": 95
    },
    {
      "midi": 57,
      "hit": false,
      "t": 86364.1666666668,
      "d": 99.99999999998545,
      "v": 54
    },
    {
      "midi": 61,
      "hit": false,
      "t": 86367.50000000013,
      "d": 105.83333333331393,
      "v": 47
    },
    {
      "midi": 66,
      "hit": false,
      "t": 86371.6666666668,
      "d": 125.83333333331393,
      "v": 60
    },
    {
      "midi": 69,
      "hit": false,
      "t": 86377.50000000013,
      "d": 89.99999999998545,
      "v": 55
    },
    {
      "midi": 64,
      "hit": false,
      "t": 86388.33333333346,
      "d": 78.33333333332848,
      "v": 51
    },
    {
      "midi": 66,
      "hit": false,
      "t": 86640.00000000012,
      "d": 124.16666666667152,
      "v": 56
    },
    {
      "midi": 61,
      "hit": false,
      "t": 86643.33333333344,
      "d": 98.33333333334303,
      "v": 70
    },
    {
      "midi": 57,
      "hit": false,
      "t": 86647.50000000012,
      "d": 83.33333333332848,
      "v": 70
    },
    {
      "midi": 64,
      "hit": false,
      "t": 86653.33333333344,
      "d": 94.16666666667152,
      "v": 63
    },
    {
      "midi": 69,
      "hit": false,
      "t": 86660.83333333344,
      "d": 71.66666666667152,
      "v": 66
    },
    {
      "midi": 61,
      "hit": false,
      "t": 86918.33333333346,
      "d": 110,
      "v": 86
    },
    {
      "midi": 57,
      "hit": false,
      "t": 86921.66666666679,
      "d": 88.33333333334303,
      "v": 86
    },
    {
      "midi": 66,
      "hit": false,
      "t": 86928.33333333346,
      "d": 114.16666666667152,
      "v": 74
    },
    {
      "midi": 64,
      "hit": false,
      "t": 86930.00000000013,
      "d": 110.83333333332848,
      "v": 73
    },
    {
      "midi": 69,
      "hit": false,
      "t": 86938.33333333346,
      "d": 84.16666666667152,
      "v": 73
    },
    {
      "midi": 61,
      "hit": false,
      "t": 87167.50000000013,
      "d": 109.16666666665697,
      "v": 56
    },
    {
      "midi": 57,
      "hit": false,
      "t": 87175.83333333346,
      "d": 84.16666666667152,
      "v": 69
    },
    {
      "midi": 64,
      "hit": false,
      "t": 87180.00000000013,
      "d": 106.66666666665697,
      "v": 56
    },
    {
      "midi": 66,
      "hit": false,
      "t": 87183.33333333346,
      "d": 106.66666666665697,
      "v": 61
    },
    {
      "midi": 69,
      "hit": false,
      "t": 87188.33333333346,
      "d": 82.5,
      "v": 56
    },
    {
      "midi": 49,
      "hit": false,
      "t": 87425.83333333344,
      "d": 149.16666666668607,
      "v": 86
    },
    {
      "midi": 64,
      "hit": false,
      "t": 87430.00000000012,
      "d": 124.16666666668607,
      "v": 69
    },
    {
      "midi": 61,
      "hit": false,
      "t": 87436.66666666679,
      "d": 113.33333333334303,
      "v": 71
    },
    {
      "midi": 57,
      "hit": false,
      "t": 87438.33333333346,
      "d": 79.16666666667152,
      "v": 77
    },
    {
      "midi": 69,
      "hit": false,
      "t": 87445.83333333346,
      "d": 89.16666666667152,
      "v": 67
    },
    {
      "midi": 66,
      "hit": false,
      "t": 87445.83333333346,
      "d": 111.66666666667152,
      "v": 70
    },
    {
      "midi": 64,
      "hit": false,
      "t": 87716.6666666668,
      "d": 134.16666666665697,
      "v": 56
    },
    {
      "midi": 61,
      "hit": false,
      "t": 87720.83333333347,
      "d": 127.49999999998545,
      "v": 75
    },
    {
      "midi": 49,
      "hit": false,
      "t": 87726.6666666668,
      "d": 748.333333333343,
      "v": 99
    },
    {
      "midi": 57,
      "hit": false,
      "t": 87732.50000000013,
      "d": 87.5,
      "v": 89
    },
    {
      "midi": 66,
      "hit": false,
      "t": 87732.50000000013,
      "d": 128.33333333332848,
      "v": 77
    },
    {
      "midi": 69,
      "hit": false,
      "t": 87745.00000000013,
      "d": 95,
      "v": 75
    },
    {
      "midi": 40,
      "hit": false,
      "t": 87745.00000000013,
      "d": 1165.8333333333576,
      "v": 83
    },
    {
      "midi": 61,
      "hit": false,
      "t": 87969.1666666668,
      "d": 110,
      "v": 55
    },
    {
      "midi": 57,
      "hit": false,
      "t": 87973.33333333347,
      "d": 93.33333333332848,
      "v": 57
    },
    {
      "midi": 64,
      "hit": false,
      "t": 87980.00000000015,
      "d": 106.66666666665697,
      "v": 49
    },
    {
      "midi": 66,
      "hit": false,
      "t": 87985.83333333347,
      "d": 106.66666666665697,
      "v": 61
    },
    {
      "midi": 69,
      "hit": false,
      "t": 87988.33333333347,
      "d": 87.5,
      "v": 66
    },
    {
      "midi": 61,
      "hit": false,
      "t": 88245.83333333346,
      "d": 111.66666666667152,
      "v": 70
    },
    {
      "midi": 64,
      "hit": false,
      "t": 88250.83333333346,
      "d": 110.83333333334303,
      "v": 55
    },
    {
      "midi": 57,
      "hit": false,
      "t": 88255.00000000013,
      "d": 87.5,
      "v": 69
    },
    {
      "midi": 66,
      "hit": false,
      "t": 88257.50000000013,
      "d": 110.83333333334303,
      "v": 67
    },
    {
      "midi": 69,
      "hit": false,
      "t": 88262.50000000013,
      "d": 88.33333333332848,
      "v": 70
    },
    {
      "midi": 64,
      "hit": false,
      "t": 88515.00000000015,
      "d": 129.16666666667152,
      "v": 60
    },
    {
      "midi": 61,
      "hit": false,
      "t": 88518.33333333347,
      "d": 120.00000000001455,
      "v": 78
    },
    {
      "midi": 66,
      "hit": false,
      "t": 88522.50000000015,
      "d": 125,
      "v": 74
    },
    {
      "midi": 57,
      "hit": false,
      "t": 88527.50000000015,
      "d": 93.33333333334303,
      "v": 79
    },
    {
      "midi": 69,
      "hit": false,
      "t": 88531.66666666682,
      "d": 104.16666666667152,
      "v": 74
    },
    {
      "midi": 61,
      "hit": false,
      "t": 88775.00000000015,
      "d": 128.33333333334303,
      "v": 75
    },
    {
      "midi": 64,
      "hit": false,
      "t": 88776.66666666682,
      "d": 124.16666666667152,
      "v": 73
    },
    {
      "midi": 69,
      "hit": false,
      "t": 88781.66666666682,
      "d": 113.33333333334303,
      "v": 67
    },
    {
      "midi": 66,
      "hit": false,
      "t": 88785.83333333349,
      "d": 112.5,
      "v": 66
    },
    {
      "midi": 57,
      "hit": false,
      "t": 88790.83333333349,
      "d": 90,
      "v": 78
    },
    {
      "midi": 61,
      "hit": false,
      "t": 89030.00000000016,
      "d": 95.83333333332848,
      "v": 77
    },
    {
      "midi": 57,
      "hit": false,
      "t": 89035.00000000016,
      "d": 88.33333333332848,
      "v": 71
    },
    {
      "midi": 69,
      "hit": false,
      "t": 89035.83333333349,
      "d": 109.16666666667152,
      "v": 69
    },
    {
      "midi": 66,
      "hit": false,
      "t": 89040.00000000016,
      "d": 110.83333333332848,
      "v": 61
    },
    {
      "midi": 64,
      "hit": false,
      "t": 89048.33333333349,
      "d": 104.16666666667152,
      "v": 66
    },
    {
      "midi": 42,
      "hit": false,
      "t": 89048.33333333349,
      "d": 208.33333333334303,
      "v": 78
    },
    {
      "midi": 63,
      "hit": false,
      "t": 89285.00000000017,
      "d": 128.33333333334303,
      "v": 86
    },
    {
      "midi": 47,
      "hit": false,
      "t": 89291.66666666685,
      "d": 343.33333333331393,
      "v": 95
    },
    {
      "midi": 35,
      "hit": false,
      "t": 89296.66666666685,
      "d": 334.99999999998545,
      "v": 95
    },
    {
      "midi": 57,
      "hit": false,
      "t": 89298.33333333352,
      "d": 101.66666666667152,
      "v": 83
    },
    {
      "midi": 71,
      "hit": false,
      "t": 89305.00000000019,
      "d": 112.5,
      "v": 89
    },
    {
      "midi": 63,
      "hit": false,
      "t": 89541.66666666685,
      "d": 109.16666666664241,
      "v": 77
    },
    {
      "midi": 71,
      "hit": false,
      "t": 89546.66666666685,
      "d": 95.83333333331393,
      "v": 74
    },
    {
      "midi": 57,
      "hit": false,
      "t": 89552.50000000017,
      "d": 75.83333333332848,
      "v": 74
    },
    {
      "midi": 63,
      "hit": false,
      "t": 89805.00000000016,
      "d": 120.83333333334303,
      "v": 78
    },
    {
      "midi": 71,
      "hit": false,
      "t": 89811.66666666683,
      "d": 111.66666666667152,
      "v": 78
    },
    {
      "midi": 57,
      "hit": false,
      "t": 89815.8333333335,
      "d": 85,
      "v": 78
    },
    {
      "midi": 47,
      "hit": false,
      "t": 89826.66666666683,
      "d": 136.66666666667152,
      "v": 92
    },
    {
      "midi": 35,
      "hit": false,
      "t": 89831.66666666683,
      "d": 120,
      "v": 86
    },
    {
      "midi": 47,
      "hit": false,
      "t": 90086.66666666683,
      "d": 294.1666666666715,
      "v": 83
    },
    {
      "midi": 37,
      "hit": false,
      "t": 90091.66666666683,
      "d": 325,
      "v": 95
    },
    {
      "midi": 64,
      "hit": false,
      "t": 90095.00000000016,
      "d": 115.83333333332848,
      "v": 83
    },
    {
      "midi": 71,
      "hit": false,
      "t": 90100.83333333349,
      "d": 99.16666666667152,
      "v": 83
    },
    {
      "midi": 57,
      "hit": false,
      "t": 90105.00000000016,
      "d": 92.5,
      "v": 74
    },
    {
      "midi": 64,
      "hit": false,
      "t": 90350.00000000016,
      "d": 110.83333333334303,
      "v": 79
    },
    {
      "midi": 57,
      "hit": false,
      "t": 90360.00000000016,
      "d": 81.66666666667152,
      "v": 74
    },
    {
      "midi": 71,
      "hit": false,
      "t": 90361.66666666683,
      "d": 108.33333333334303,
      "v": 77
    },
    {
      "midi": 64,
      "hit": false,
      "t": 90612.50000000017,
      "d": 140,
      "v": 79
    },
    {
      "midi": 47,
      "hit": false,
      "t": 90616.66666666685,
      "d": 140,
      "v": 79
    },
    {
      "midi": 37,
      "hit": false,
      "t": 90620.83333333352,
      "d": 144.16666666665697,
      "v": 79
    },
    {
      "midi": 71,
      "hit": false,
      "t": 90621.66666666685,
      "d": 119.16666666665697,
      "v": 69
    },
    {
      "midi": 57,
      "hit": false,
      "t": 90630.00000000017,
      "d": 90,
      "v": 73
    },
    {
      "midi": 65,
      "hit": false,
      "t": 90894.16666666683,
      "d": 130.83333333334303,
      "v": 83
    },
    {
      "midi": 38,
      "hit": false,
      "t": 90898.3333333335,
      "d": 208.33333333334303,
      "v": 83
    },
    {
      "midi": 47,
      "hit": false,
      "t": 90900.8333333335,
      "d": 237.50000000001455,
      "v": 83
    },
    {
      "midi": 57,
      "hit": false,
      "t": 90907.50000000017,
      "d": 105,
      "v": 79
    },
    {
      "midi": 71,
      "hit": false,
      "t": 90907.50000000017,
      "d": 125,
      "v": 79
    },
    {
      "midi": 57,
      "hit": false,
      "t": 91151.66666666685,
      "d": 104.16666666667152,
      "v": 73
    },
    {
      "midi": 71,
      "hit": false,
      "t": 91155.83333333352,
      "d": 110,
      "v": 71
    },
    {
      "midi": 65,
      "hit": false,
      "t": 91160.00000000019,
      "d": 103.33333333332848,
      "v": 77
    },
    {
      "midi": 38,
      "hit": false,
      "t": 91415.00000000019,
      "d": 173.33333333332848,
      "v": 77
    },
    {
      "midi": 47,
      "hit": false,
      "t": 91419.16666666686,
      "d": 128.33333333332848,
      "v": 79
    },
    {
      "midi": 65,
      "hit": false,
      "t": 91425.00000000019,
      "d": 90.83333333332848,
      "v": 73
    },
    {
      "midi": 71,
      "hit": false,
      "t": 91425.00000000019,
      "d": 107.5,
      "v": 71
    },
    {
      "midi": 57,
      "hit": false,
      "t": 91427.50000000019,
      "d": 90,
      "v": 79
    },
    {
      "midi": 66,
      "hit": false,
      "t": 91677.50000000017,
      "d": 124.16666666667152,
      "v": 89
    },
    {
      "midi": 71,
      "hit": false,
      "t": 91680.8333333335,
      "d": 116.66666666667152,
      "v": 77
    },
    {
      "midi": 57,
      "hit": false,
      "t": 91685.8333333335,
      "d": 87.5,
      "v": 92
    },
    {
      "midi": 39,
      "hit": false,
      "t": 91687.50000000017,
      "d": 234.16666666667152,
      "v": 92
    },
    {
      "midi": 47,
      "hit": false,
      "t": 91693.3333333335,
      "d": 283.3333333333285,
      "v": 79
    },
    {
      "midi": 66,
      "hit": false,
      "t": 91937.50000000017,
      "d": 103.33333333332848,
      "v": 86
    },
    {
      "midi": 57,
      "hit": false,
      "t": 91943.3333333335,
      "d": 80,
      "v": 83
    },
    {
      "midi": 71,
      "hit": false,
      "t": 91945.8333333335,
      "d": 94.16666666667152,
      "v": 75
    },
    {
      "midi": 66,
      "hit": false,
      "t": 92187.50000000017,
      "d": 125,
      "v": 78
    },
    {
      "midi": 57,
      "hit": false,
      "t": 92194.16666666685,
      "d": 72.5,
      "v": 78
    },
    {
      "midi": 71,
      "hit": false,
      "t": 92198.33333333352,
      "d": 53.33333333332848,
      "v": 74
    },
    {
      "midi": 39,
      "hit": false,
      "t": 92205.00000000019,
      "d": 101.66666666665697,
      "v": 89
    },
    {
      "midi": 46,
      "hit": false,
      "t": 92210.83333333352,
      "d": 103.33333333332848,
      "v": 89
    },
    {
      "midi": 64,
      "hit": false,
      "t": 92462.50000000017,
      "d": 144.9999999999709,
      "v": 71
    },
    {
      "midi": 47,
      "hit": false,
      "t": 92465.8333333335,
      "d": 309.1666666666424,
      "v": 79
    },
    {
      "midi": 68,
      "hit": false,
      "t": 92470.00000000017,
      "d": 105.83333333331393,
      "v": 89
    },
    {
      "midi": 40,
      "hit": false,
      "t": 92475.00000000017,
      "d": 275.8333333332994,
      "v": 73
    },
    {
      "midi": 62,
      "hit": false,
      "t": 92480.8333333335,
      "d": 125.83333333331393,
      "v": 67
    },
    {
      "midi": 56,
      "hit": false,
      "t": 92484.16666666683,
      "d": 60.83333333332848,
      "v": 89
    },
    {
      "midi": 62,
      "hit": false,
      "t": 92737.50000000015,
      "d": 110,
      "v": 55
    },
    {
      "midi": 56,
      "hit": false,
      "t": 92741.66666666682,
      "d": 59.166666666656965,
      "v": 69
    },
    {
      "midi": 68,
      "hit": false,
      "t": 92745.00000000015,
      "d": 82.5,
      "v": 74
    },
    {
      "midi": 64,
      "hit": false,
      "t": 92750.83333333347,
      "d": 95,
      "v": 57
    },
    {
      "midi": 40,
      "hit": false,
      "t": 93000.83333333347,
      "d": 174.16666666668607,
      "v": 79
    },
    {
      "midi": 47,
      "hit": false,
      "t": 93003.33333333347,
      "d": 174.16666666668607,
      "v": 92
    },
    {
      "midi": 68,
      "hit": false,
      "t": 93010.00000000015,
      "d": 111.66666666668607,
      "v": 77
    },
    {
      "midi": 56,
      "hit": false,
      "t": 93011.66666666682,
      "d": 80.83333333334303,
      "v": 77
    },
    {
      "midi": 64,
      "hit": false,
      "t": 93018.33333333349,
      "d": 115.83333333334303,
      "v": 49
    },
    {
      "midi": 62,
      "hit": false,
      "t": 93018.33333333349,
      "d": 116.66666666667152,
      "v": 56
    },
    {
      "midi": 57,
      "hit": false,
      "t": 93270.00000000016,
      "d": 91.66666666667152,
      "v": 89
    },
    {
      "midi": 69,
      "hit": false,
      "t": 93273.33333333349,
      "d": 110.83333333334303,
      "v": 79
    },
    {
      "midi": 62,
      "hit": false,
      "t": 93278.33333333349,
      "d": 121.66666666667152,
      "v": 73
    },
    {
      "midi": 64,
      "hit": false,
      "t": 93280.00000000016,
      "d": 135.83333333332848,
      "v": 66
    },
    {
      "midi": 42,
      "hit": false,
      "t": 93287.50000000016,
      "d": 322.5,
      "v": 108
    },
    {
      "midi": 69,
      "hit": false,
      "t": 93530.83333333349,
      "d": 106.66666666667152,
      "v": 74
    },
    {
      "midi": 57,
      "hit": false,
      "t": 93535.00000000016,
      "d": 88.33333333332848,
      "v": 75
    },
    {
      "midi": 62,
      "hit": false,
      "t": 93536.66666666683,
      "d": 108.33333333332848,
      "v": 65
    },
    {
      "midi": 64,
      "hit": false,
      "t": 93542.50000000016,
      "d": 115.83333333332848,
      "v": 57
    },
    {
      "midi": 42,
      "hit": false,
      "t": 93778.33333333349,
      "d": 214.16666666665697,
      "v": 95
    },
    {
      "midi": 69,
      "hit": false,
      "t": 93786.66666666682,
      "d": 110,
      "v": 66
    },
    {
      "midi": 62,
      "hit": false,
      "t": 93792.50000000015,
      "d": 122.5,
      "v": 55
    },
    {
      "midi": 64,
      "hit": false,
      "t": 93795.00000000015,
      "d": 136.66666666667152,
      "v": 67
    },
    {
      "midi": 57,
      "hit": false,
      "t": 93799.16666666682,
      "d": 79.16666666667152,
      "v": 75
    },
    {
      "midi": 58,
      "hit": false,
      "t": 94065.00000000015,
      "d": 110,
      "v": 95
    },
    {
      "midi": 43,
      "hit": false,
      "t": 94067.50000000015,
      "d": 199.16666666665697,
      "v": 92
    },
    {
      "midi": 64,
      "hit": false,
      "t": 94073.33333333347,
      "d": 125,
      "v": 69
    },
    {
      "midi": 70,
      "hit": false,
      "t": 94077.50000000015,
      "d": 102.5,
      "v": 79
    },
    {
      "midi": 62,
      "hit": false,
      "t": 94083.33333333347,
      "d": 118.33333333332848,
      "v": 55
    },
    {
      "midi": 62,
      "hit": false,
      "t": 94330.83333333347,
      "d": 124.16666666667152,
      "v": 56
    },
    {
      "midi": 70,
      "hit": false,
      "t": 94335.00000000015,
      "d": 112.5,
      "v": 71
    },
    {
      "midi": 58,
      "hit": false,
      "t": 94337.50000000015,
      "d": 85,
      "v": 75
    },
    {
      "midi": 64,
      "hit": false,
      "t": 94343.33333333347,
      "d": 106.66666666667152,
      "v": 50
    },
    {
      "midi": 62,
      "hit": false,
      "t": 94590.83333333347,
      "d": 145.83333333334303,
      "v": 56
    },
    {
      "midi": 58,
      "hit": false,
      "t": 94596.6666666668,
      "d": 88.33333333334303,
      "v": 77
    },
    {
      "midi": 43,
      "hit": false,
      "t": 94598.33333333347,
      "d": 238.33333333334303,
      "v": 78
    },
    {
      "midi": 70,
      "hit": false,
      "t": 94605.83333333347,
      "d": 115.83333333334303,
      "v": 74
    },
    {
      "midi": 64,
      "hit": false,
      "t": 94607.50000000015,
      "d": 129.16666666667152,
      "v": 54
    },
    {
      "midi": 62,
      "hit": false,
      "t": 94865.00000000015,
      "d": 127.5,
      "v": 69
    },
    {
      "midi": 64,
      "hit": false,
      "t": 94870.00000000015,
      "d": 127.5,
      "v": 74
    },
    {
      "midi": 44,
      "hit": false,
      "t": 94872.50000000015,
      "d": 169.16666666667152,
      "v": 108
    },
    {
      "midi": 59,
      "hit": false,
      "t": 94878.33333333347,
      "d": 89.16666666667152,
      "v": 92
    },
    {
      "midi": 71,
      "hit": false,
      "t": 94885.00000000015,
      "d": 103.33333333332848,
      "v": 79
    },
    {
      "midi": 64,
      "hit": false,
      "t": 95135.00000000015,
      "d": 117.5,
      "v": 69
    },
    {
      "midi": 62,
      "hit": false,
      "t": 95136.66666666682,
      "d": 110,
      "v": 63
    },
    {
      "midi": 71,
      "hit": false,
      "t": 95141.66666666682,
      "d": 114.16666666665697,
      "v": 63
    },
    {
      "midi": 59,
      "hit": false,
      "t": 95145.83333333349,
      "d": 70,
      "v": 78
    },
    {
      "midi": 64,
      "hit": false,
      "t": 95407.50000000015,
      "d": 115,
      "v": 55
    },
    {
      "midi": 71,
      "hit": false,
      "t": 95411.66666666682,
      "d": 95,
      "v": 62
    },
    {
      "midi": 62,
      "hit": false,
      "t": 95415.83333333349,
      "d": 96.66666666665697,
      "v": 66
    },
    {
      "midi": 32,
      "hit": false,
      "t": 95418.33333333349,
      "d": 158.33333333332848,
      "v": 78
    },
    {
      "midi": 39,
      "hit": false,
      "t": 95423.33333333349,
      "d": 187.5,
      "v": 86
    },
    {
      "midi": 59,
      "hit": false,
      "t": 95426.66666666682,
      "d": 70,
      "v": 83
    },
    {
      "midi": 69,
      "hit": false,
      "t": 95700.00000000016,
      "d": 105.83333333334303,
      "v": 89
    },
    {
      "midi": 63,
      "hit": false,
      "t": 95703.33333333349,
      "d": 83.33333333335759,
      "v": 92
    },
    {
      "midi": 64,
      "hit": false,
      "t": 95708.33333333349,
      "d": 84.16666666668607,
      "v": 75
    },
    {
      "midi": 57,
      "hit": false,
      "t": 95710.00000000016,
      "d": 62.50000000001455,
      "v": 92
    },
    {
      "midi": 40,
      "hit": false,
      "t": 95716.66666666683,
      "d": 475.8333333333576,
      "v": 86
    },
    {
      "midi": 33,
      "hit": false,
      "t": 95720.8333333335,
      "d": 200,
      "v": 78
    },
    {
      "midi": 69,
      "hit": false,
      "t": 95972.50000000017,
      "d": 68.33333333334303,
      "v": 70
    },
    {
      "midi": 64,
      "hit": false,
      "t": 95975.00000000017,
      "d": 46.66666666667152,
      "v": 66
    },
    {
      "midi": 57,
      "hit": false,
      "t": 95980.8333333335,
      "d": 36.66666666667152,
      "v": 71
    },
    {
      "midi": 33,
      "hit": false,
      "t": 96218.33333333352,
      "d": 430.83333333337214,
      "v": 70
    },
    {
      "midi": 64,
      "hit": false,
      "t": 96225.83333333352,
      "d": 44.16666666667152,
      "v": 63
    },
    {
      "midi": 69,
      "hit": false,
      "t": 96230.00000000019,
      "d": 44.16666666667152,
      "v": 67
    },
    {
      "midi": 57,
      "hit": false,
      "t": 96233.33333333352,
      "d": 38.333333333343035,
      "v": 70
    },
    {
      "midi": 69,
      "hit": false,
      "t": 96485.0000000002,
      "d": 72.50000000001455,
      "v": 79
    },
    {
      "midi": 42,
      "hit": false,
      "t": 96486.66666666688,
      "d": 533.333333333343,
      "v": 92
    },
    {
      "midi": 57,
      "hit": false,
      "t": 96490.83333333355,
      "d": 58.33333333332848,
      "v": 99
    },
    {
      "midi": 64,
      "hit": false,
      "t": 96490.83333333355,
      "d": 65,
      "v": 83
    },
    {
      "midi": 57,
      "hit": false,
      "t": 96742.50000000022,
      "d": 60,
      "v": 75
    },
    {
      "midi": 69,
      "hit": false,
      "t": 96747.50000000022,
      "d": 52.5,
      "v": 70
    },
    {
      "midi": 64,
      "hit": false,
      "t": 96747.50000000022,
      "d": 53.33333333332848,
      "v": 60
    },
    {
      "midi": 33,
      "hit": false,
      "t": 97007.50000000022,
      "d": 508.33333333334303,
      "v": 69
    },
    {
      "midi": 64,
      "hit": false,
      "t": 97011.66666666689,
      "d": 53.33333333332848,
      "v": 61
    },
    {
      "midi": 57,
      "hit": false,
      "t": 97015.00000000022,
      "d": 52.5,
      "v": 74
    },
    {
      "midi": 69,
      "hit": false,
      "t": 97020.00000000022,
      "d": 63.33333333332848,
      "v": 70
    },
    {
      "midi": 69,
      "hit": false,
      "t": 97275.83333333355,
      "d": 93.33333333334303,
      "v": 89
    },
    {
      "midi": 64,
      "hit": false,
      "t": 97278.33333333355,
      "d": 86.66666666667152,
      "v": 79
    },
    {
      "midi": 57,
      "hit": false,
      "t": 97280.00000000022,
      "d": 65,
      "v": 102
    },
    {
      "midi": 43,
      "hit": false,
      "t": 97290.83333333355,
      "d": 460.8333333333576,
      "v": 70
    },
    {
      "midi": 64,
      "hit": false,
      "t": 97525.83333333356,
      "d": 84.16666666667152,
      "v": 61
    },
    {
      "midi": 69,
      "hit": false,
      "t": 97537.50000000023,
      "d": 64.16666666667152,
      "v": 66
    },
    {
      "midi": 57,
      "hit": false,
      "t": 97541.6666666669,
      "d": 44.16666666667152,
      "v": 65
    },
    {
      "midi": 33,
      "hit": false,
      "t": 97777.50000000023,
      "d": 425.8333333333285,
      "v": 73
    },
    {
      "midi": 64,
      "hit": false,
      "t": 97801.6666666669,
      "d": 78.33333333334303,
      "v": 70
    },
    {
      "midi": 69,
      "hit": false,
      "t": 97805.83333333358,
      "d": 71.66666666667152,
      "v": 73
    },
    {
      "midi": 57,
      "hit": false,
      "t": 97808.33333333358,
      "d": 62.5,
      "v": 78
    },
    {
      "midi": 42,
      "hit": false,
      "t": 98057.50000000025,
      "d": 362.5,
      "v": 86
    },
    {
      "midi": 69,
      "hit": false,
      "t": 98065.00000000025,
      "d": 94.99999999998545,
      "v": 83
    },
    {
      "midi": 64,
      "hit": false,
      "t": 98067.50000000025,
      "d": 74.16666666665697,
      "v": 75
    },
    {
      "midi": 57,
      "hit": false,
      "t": 98070.83333333358,
      "d": 65.83333333332848,
      "v": 92
    },
    {
      "midi": 64,
      "hit": false,
      "t": 98340.00000000023,
      "d": 73.33333333334303,
      "v": 71
    },
    {
      "midi": 57,
      "hit": false,
      "t": 98341.6666666669,
      "d": 64.16666666667152,
      "v": 89
    },
    {
      "midi": 69,
      "hit": false,
      "t": 98343.33333333358,
      "d": 72.5,
      "v": 79
    },
    {
      "midi": 39,
      "hit": false,
      "t": 98601.66666666692,
      "d": 171.66666666667152,
      "v": 78
    },
    {
      "midi": 64,
      "hit": false,
      "t": 98605.83333333359,
      "d": 97.5,
      "v": 71
    },
    {
      "midi": 69,
      "hit": false,
      "t": 98610.00000000026,
      "d": 95.83333333332848,
      "v": 75
    },
    {
      "midi": 32,
      "hit": false,
      "t": 98610.00000000026,
      "d": 136.66666666665697,
      "v": 89
    },
    {
      "midi": 57,
      "hit": false,
      "t": 98615.83333333359,
      "d": 69.16666666667152,
      "v": 79
    },
    {
      "midi": 64,
      "hit": false,
      "t": 98860.83333333359,
      "d": 140.0000000000291,
      "v": 62
    },
    {
      "midi": 61,
      "hit": false,
      "t": 98865.83333333359,
      "d": 125.83333333335759,
      "v": 75
    },
    {
      "midi": 69,
      "hit": false,
      "t": 98865.83333333359,
      "d": 175.8333333333576,
      "v": 71
    },
    {
      "midi": 55,
      "hit": false,
      "t": 98872.50000000026,
      "d": 107.50000000001455,
      "v": 75
    },
    {
      "midi": 67,
      "hit": false,
      "t": 98874.16666666693,
      "d": 140.00000000001455,
      "v": 71
    },
    {
      "midi": 40,
      "hit": false,
      "t": 98880.8333333336,
      "d": 301.6666666667006,
      "v": 83
    },
    {
      "midi": 33,
      "hit": false,
      "t": 98885.00000000028,
      "d": 170.83333333334303,
      "v": 83
    },
    {
      "midi": 55,
      "hit": false,
      "t": 99127.50000000029,
      "d": 82.50000000001455,
      "v": 57
    },
    {
      "midi": 67,
      "hit": false,
      "t": 99131.66666666696,
      "d": 110.00000000001455,
      "v": 56
    },
    {
      "midi": 64,
      "hit": false,
      "t": 99136.66666666696,
      "d": 93.33333333334303,
      "v": 55
    },
    {
      "midi": 61,
      "hit": false,
      "t": 99138.33333333363,
      "d": 79.16666666667152,
      "v": 62
    },
    {
      "midi": 69,
      "hit": false,
      "t": 99143.33333333363,
      "d": 79.16666666667152,
      "v": 42
    },
    {
      "midi": 33,
      "hit": false,
      "t": 99390.0000000003,
      "d": 560.833333333343,
      "v": 79
    },
    {
      "midi": 61,
      "hit": false,
      "t": 99393.33333333363,
      "d": 69.16666666665697,
      "v": 63
    },
    {
      "midi": 55,
      "hit": false,
      "t": 99399.16666666696,
      "d": 60,
      "v": 65
    },
    {
      "midi": 69,
      "hit": false,
      "t": 99403.33333333363,
      "d": 75.83333333332848,
      "v": 65
    },
    {
      "midi": 67,
      "hit": false,
      "t": 99408.33333333363,
      "d": 76.66666666665697,
      "v": 56
    },
    {
      "midi": 64,
      "hit": false,
      "t": 99415.0000000003,
      "d": 40.83333333332848,
      "v": 47
    },
    {
      "midi": 69,
      "hit": false,
      "t": 99670.00000000029,
      "d": 120.00000000001455,
      "v": 71
    },
    {
      "midi": 55,
      "hit": false,
      "t": 99672.50000000029,
      "d": 84.16666666667152,
      "v": 83
    },
    {
      "midi": 61,
      "hit": false,
      "t": 99675.83333333362,
      "d": 95.00000000001455,
      "v": 77
    },
    {
      "midi": 64,
      "hit": false,
      "t": 99677.50000000029,
      "d": 100.00000000001455,
      "v": 73
    },
    {
      "midi": 67,
      "hit": false,
      "t": 99685.00000000029,
      "d": 109.16666666668607,
      "v": 66
    },
    {
      "midi": 42,
      "hit": false,
      "t": 99687.50000000029,
      "d": 419.16666666668607,
      "v": 89
    },
    {
      "midi": 61,
      "hit": false,
      "t": 99932.5000000003,
      "d": 85.83333333334303,
      "v": 63
    },
    {
      "midi": 64,
      "hit": false,
      "t": 99936.66666666698,
      "d": 84.16666666667152,
      "v": 43
    },
    {
      "midi": 55,
      "hit": false,
      "t": 99940.83333333365,
      "d": 70.83333333332848,
      "v": 63
    },
    {
      "midi": 69,
      "hit": false,
      "t": 99940.83333333365,
      "d": 84.16666666667152,
      "v": 57
    },
    {
      "midi": 67,
      "hit": false,
      "t": 99943.33333333365,
      "d": 95,
      "v": 52
    },
    {
      "midi": 33,
      "hit": false,
      "t": 100188.33333333365,
      "d": 478.33333333331393,
      "v": 78
    },
    {
      "midi": 61,
      "hit": false,
      "t": 100194.16666666698,
      "d": 99.16666666665697,
      "v": 74
    },
    {
      "midi": 64,
      "hit": false,
      "t": 100199.16666666698,
      "d": 99.16666666665697,
      "v": 59
    },
    {
      "midi": 67,
      "hit": false,
      "t": 100205.0000000003,
      "d": 110.83333333332848,
      "v": 57
    },
    {
      "midi": 69,
      "hit": false,
      "t": 100207.5000000003,
      "d": 82.5,
      "v": 52
    },
    {
      "midi": 61,
      "hit": false,
      "t": 100460.0000000003,
      "d": 102.5,
      "v": 77
    },
    {
      "midi": 55,
      "hit": false,
      "t": 100462.5000000003,
      "d": 103.33333333332848,
      "v": 83
    },
    {
      "midi": 64,
      "hit": false,
      "t": 100465.0000000003,
      "d": 112.5,
      "v": 69
    },
    {
      "midi": 67,
      "hit": false,
      "t": 100470.83333333363,
      "d": 125,
      "v": 59
    },
    {
      "midi": 43,
      "hit": false,
      "t": 100470.83333333363,
      "d": 372.5,
      "v": 79
    },
    {
      "midi": 69,
      "hit": false,
      "t": 100475.83333333363,
      "d": 106.66666666667152,
      "v": 70
    },
    {
      "midi": 55,
      "hit": false,
      "t": 100710.00000000029,
      "d": 87.5,
      "v": 62
    },
    {
      "midi": 61,
      "hit": false,
      "t": 100720.00000000029,
      "d": 88.33333333332848,
      "v": 63
    },
    {
      "midi": 69,
      "hit": false,
      "t": 100722.50000000029,
      "d": 90,
      "v": 56
    },
    {
      "midi": 64,
      "hit": false,
      "t": 100727.50000000029,
      "d": 99.16666666667152,
      "v": 51
    },
    {
      "midi": 67,
      "hit": false,
      "t": 100727.50000000029,
      "d": 108.33333333334303,
      "v": 60
    },
    {
      "midi": 33,
      "hit": false,
      "t": 100981.66666666696,
      "d": 335.8333333333285,
      "v": 77
    },
    {
      "midi": 61,
      "hit": false,
      "t": 100991.66666666696,
      "d": 104.16666666665697,
      "v": 75
    },
    {
      "midi": 55,
      "hit": false,
      "t": 100995.83333333363,
      "d": 84.16666666665697,
      "v": 79
    },
    {
      "midi": 69,
      "hit": false,
      "t": 100996.66666666696,
      "d": 110.83333333332848,
      "v": 70
    },
    {
      "midi": 67,
      "hit": false,
      "t": 101000.00000000029,
      "d": 125.83333333332848,
      "v": 62
    },
    {
      "midi": 64,
      "hit": false,
      "t": 101001.66666666696,
      "d": 98.33333333332848,
      "v": 67
    },
    {
      "midi": 42,
      "hit": false,
      "t": 101250.00000000029,
      "d": 265.83333333334303,
      "v": 99
    },
    {
      "midi": 61,
      "hit": false,
      "t": 101262.50000000029,
      "d": 100.83333333334303,
      "v": 79
    },
    {
      "midi": 64,
      "hit": false,
      "t": 101265.83333333362,
      "d": 114.16666666668607,
      "v": 65
    },
    {
      "midi": 67,
      "hit": false,
      "t": 101265.83333333362,
      "d": 126.66666666668607,
      "v": 59
    },
    {
      "midi": 55,
      "hit": false,
      "t": 101271.66666666695,
      "d": 70.00000000001455,
      "v": 77
    },
    {
      "midi": 69,
      "hit": false,
      "t": 101271.66666666695,
      "d": 110.83333333335759,
      "v": 69
    },
    {
      "midi": 64,
      "hit": false,
      "t": 101512.5000000003,
      "d": 107.5,
      "v": 65
    },
    {
      "midi": 61,
      "hit": false,
      "t": 101518.33333333363,
      "d": 87.5,
      "v": 70
    },
    {
      "midi": 55,
      "hit": false,
      "t": 101521.66666666696,
      "d": 80,
      "v": 69
    },
    {
      "midi": 69,
      "hit": false,
      "t": 101521.66666666696,
      "d": 90.83333333334303,
      "v": 70
    },
    {
      "midi": 67,
      "hit": false,
      "t": 101530.00000000029,
      "d": 97.50000000001455,
      "v": 54
    },
    {
      "midi": 67,
      "hit": false,
      "t": 101775.0000000003,
      "d": 134.16666666667152,
      "v": 56
    },
    {
      "midi": 55,
      "hit": false,
      "t": 101777.5000000003,
      "d": 75,
      "v": 78
    },
    {
      "midi": 61,
      "hit": false,
      "t": 101780.83333333363,
      "d": 93.33333333332848,
      "v": 69
    },
    {
      "midi": 33,
      "hit": false,
      "t": 101786.66666666696,
      "d": 84.16666666667152,
      "v": 79
    },
    {
      "midi": 64,
      "hit": false,
      "t": 101786.66666666696,
      "d": 89.16666666667152,
      "v": 51
    },
    {
      "midi": 69,
      "hit": false,
      "t": 101788.33333333363,
      "d": 94.16666666667152,
      "v": 69
    },
    {
      "midi": 26,
      "hit": false,
      "t": 102052.5000000003,
      "d": 569.166666666657,
      "v": 86
    },
    {
      "midi": 69,
      "hit": false,
      "t": 102059.16666666698,
      "d": 107.49999999998545,
      "v": 83
    },
    {
      "midi": 66,
      "hit": false,
      "t": 102061.66666666698,
      "d": 107.49999999998545,
      "v": 78
    },
    {
      "midi": 62,
      "hit": false,
      "t": 102066.66666666698,
      "d": 71.66666666665697,
      "v": 77
    },
    {
      "midi": 57,
      "hit": false,
      "t": 102067.5000000003,
      "d": 63.33333333332848,
      "v": 92
    },
    {
      "midi": 66,
      "hit": false,
      "t": 102311.66666666696,
      "d": 94.99999999998545,
      "v": 69
    },
    {
      "midi": 62,
      "hit": false,
      "t": 102315.00000000029,
      "d": 81.66666666665697,
      "v": 65
    },
    {
      "midi": 57,
      "hit": false,
      "t": 102320.00000000029,
      "d": 70.83333333332848,
      "v": 66
    },
    {
      "midi": 69,
      "hit": false,
      "t": 102320.00000000029,
      "d": 81.66666666665697,
      "v": 71
    },
    {
      "midi": 62,
      "hit": false,
      "t": 102580.83333333362,
      "d": 82.50000000001455,
      "v": 71
    },
    {
      "midi": 66,
      "hit": false,
      "t": 102582.50000000029,
      "d": 85.83333333334303,
      "v": 74
    },
    {
      "midi": 69,
      "hit": false,
      "t": 102585.83333333362,
      "d": 80.00000000001455,
      "v": 67
    },
    {
      "midi": 57,
      "hit": false,
      "t": 102590.00000000029,
      "d": 66.66666666667152,
      "v": 77
    },
    {
      "midi": 38,
      "hit": false,
      "t": 102590.00000000029,
      "d": 257.50000000001455,
      "v": 78
    },
    {
      "midi": 66,
      "hit": false,
      "t": 102861.66666666698,
      "d": 105.0000000000291,
      "v": 78
    },
    {
      "midi": 62,
      "hit": false,
      "t": 102865.83333333365,
      "d": 88.33333333335759,
      "v": 75
    },
    {
      "midi": 69,
      "hit": false,
      "t": 102868.33333333365,
      "d": 97.5000000000291,
      "v": 77
    },
    {
      "midi": 57,
      "hit": false,
      "t": 102872.50000000032,
      "d": 72.50000000001455,
      "v": 86
    },
    {
      "midi": 30,
      "hit": false,
      "t": 102876.66666666699,
      "d": 560.833333333343,
      "v": 99
    },
    {
      "midi": 66,
      "hit": false,
      "t": 103111.666666667,
      "d": 95.83333333332848,
      "v": 67
    },
    {
      "midi": 62,
      "hit": false,
      "t": 103116.666666667,
      "d": 80.83333333332848,
      "v": 62
    },
    {
      "midi": 57,
      "hit": false,
      "t": 103120.83333333368,
      "d": 70.83333333332848,
      "v": 73
    },
    {
      "midi": 69,
      "hit": false,
      "t": 103132.50000000035,
      "d": 64.16666666665697,
      "v": 47
    },
    {
      "midi": 66,
      "hit": false,
      "t": 103360.83333333366,
      "d": 105.00000000001455,
      "v": 69
    },
    {
      "midi": 62,
      "hit": false,
      "t": 103362.50000000033,
      "d": 84.16666666667152,
      "v": 65
    },
    {
      "midi": 57,
      "hit": false,
      "t": 103366.666666667,
      "d": 75,
      "v": 75
    },
    {
      "midi": 69,
      "hit": false,
      "t": 103366.666666667,
      "d": 94.16666666667152,
      "v": 71
    },
    {
      "midi": 42,
      "hit": false,
      "t": 103412.50000000033,
      "d": 161.66666666667152,
      "v": 77
    },
    {
      "midi": 66,
      "hit": false,
      "t": 103639.166666667,
      "d": 106.66666666665697,
      "v": 77
    },
    {
      "midi": 57,
      "hit": false,
      "t": 103644.166666667,
      "d": 85.83333333332848,
      "v": 83
    },
    {
      "midi": 62,
      "hit": false,
      "t": 103644.166666667,
      "d": 95.83333333332848,
      "v": 73
    },
    {
      "midi": 33,
      "hit": false,
      "t": 103645.83333333368,
      "d": 550.8333333333285,
      "v": 83
    },
    {
      "midi": 69,
      "hit": false,
      "t": 103651.666666667,
      "d": 99.99999999998545,
      "v": 78
    },
    {
      "midi": 66,
      "hit": false,
      "t": 103895.00000000032,
      "d": 95.00000000001455,
      "v": 69
    },
    {
      "midi": 69,
      "hit": false,
      "t": 103896.66666666699,
      "d": 100.83333333334303,
      "v": 66
    },
    {
      "midi": 57,
      "hit": false,
      "t": 103900.83333333366,
      "d": 75,
      "v": 73
    },
    {
      "midi": 62,
      "hit": false,
      "t": 103900.83333333366,
      "d": 76.66666666667152,
      "v": 62
    },
    {
      "midi": 45,
      "hit": false,
      "t": 104135.00000000033,
      "d": 85.83333333334303,
      "v": 73
    },
    {
      "midi": 66,
      "hit": false,
      "t": 104136.666666667,
      "d": 105.83333333334303,
      "v": 74
    },
    {
      "midi": 62,
      "hit": false,
      "t": 104138.33333333368,
      "d": 94.16666666667152,
      "v": 73
    },
    {
      "midi": 57,
      "hit": false,
      "t": 104145.83333333368,
      "d": 70.83333333332848,
      "v": 78
    },
    {
      "midi": 69,
      "hit": false,
      "t": 104145.83333333368,
      "d": 90,
      "v": 75
    },
    {
      "midi": 30,
      "hit": false,
      "t": 104400.83333333368,
      "d": 583.333333333343,
      "v": 92
    },
    {
      "midi": 66,
      "hit": false,
      "t": 104406.666666667,
      "d": 109.16666666667152,
      "v": 79
    },
    {
      "midi": 62,
      "hit": false,
      "t": 104410.83333333368,
      "d": 94.16666666667152,
      "v": 73
    },
    {
      "midi": 57,
      "hit": false,
      "t": 104415.00000000035,
      "d": 72.5,
      "v": 83
    },
    {
      "midi": 69,
      "hit": false,
      "t": 104418.33333333368,
      "d": 90,
      "v": 75
    },
    {
      "midi": 62,
      "hit": false,
      "t": 104658.33333333368,
      "d": 100,
      "v": 67
    },
    {
      "midi": 66,
      "hit": false,
      "t": 104661.666666667,
      "d": 101.66666666667152,
      "v": 70
    },
    {
      "midi": 57,
      "hit": false,
      "t": 104665.83333333368,
      "d": 77.5,
      "v": 73
    },
    {
      "midi": 69,
      "hit": false,
      "t": 104670.83333333368,
      "d": 85,
      "v": 70
    },
    {
      "midi": 42,
      "hit": false,
      "t": 104915.83333333368,
      "d": 94.16666666667152,
      "v": 77
    },
    {
      "midi": 66,
      "hit": false,
      "t": 104920.83333333368,
      "d": 99.16666666667152,
      "v": 63
    },
    {
      "midi": 62,
      "hit": false,
      "t": 104925.83333333368,
      "d": 86.66666666667152,
      "v": 63
    },
    {
      "midi": 57,
      "hit": false,
      "t": 104930.83333333368,
      "d": 84.16666666667152,
      "v": 69
    },
    {
      "midi": 69,
      "hit": false,
      "t": 104935.00000000035,
      "d": 80.83333333332848,
      "v": 65
    },
    {
      "midi": 27,
      "hit": false,
      "t": 105185.00000000035,
      "d": 571.6666666666424,
      "v": 92
    },
    {
      "midi": 63,
      "hit": false,
      "t": 105187.50000000035,
      "d": 102.5,
      "v": 78
    },
    {
      "midi": 69,
      "hit": false,
      "t": 105192.50000000035,
      "d": 103.33333333332848,
      "v": 73
    },
    {
      "midi": 57,
      "hit": false,
      "t": 105195.83333333368,
      "d": 90,
      "v": 83
    },
    {
      "midi": 60,
      "hit": false,
      "t": 105201.666666667,
      "d": 81.66666666667152,
      "v": 75
    },
    {
      "midi": 66,
      "hit": false,
      "t": 105201.666666667,
      "d": 109.16666666667152,
      "v": 71
    },
    {
      "midi": 60,
      "hit": false,
      "t": 105454.166666667,
      "d": 101.66666666665697,
      "v": 62
    },
    {
      "midi": 69,
      "hit": false,
      "t": 105457.50000000033,
      "d": 100.83333333332848,
      "v": 56
    },
    {
      "midi": 66,
      "hit": false,
      "t": 105460.00000000033,
      "d": 102.5,
      "v": 52
    },
    {
      "midi": 63,
      "hit": false,
      "t": 105467.50000000033,
      "d": 90,
      "v": 55
    },
    {
      "midi": 60,
      "hit": false,
      "t": 105704.166666667,
      "d": 98.33333333332848,
      "v": 70
    },
    {
      "midi": 57,
      "hit": false,
      "t": 105705.00000000033,
      "d": 86.66666666665697,
      "v": 78
    },
    {
      "midi": 69,
      "hit": false,
      "t": 105710.83333333366,
      "d": 90,
      "v": 55
    },
    {
      "midi": 63,
      "hit": false,
      "t": 105710.83333333366,
      "d": 99.16666666667152,
      "v": 62
    },
    {
      "midi": 66,
      "hit": false,
      "t": 105716.66666666699,
      "d": 100.83333333334303,
      "v": 59
    },
    {
      "midi": 39,
      "hit": false,
      "t": 105716.66666666699,
      "d": 243.33333333334303,
      "v": 89
    },
    {
      "midi": 57,
      "hit": false,
      "t": 105980.00000000033,
      "d": 105.00000000001455,
      "v": 92
    },
    {
      "midi": 60,
      "hit": false,
      "t": 105982.50000000033,
      "d": 105.00000000001455,
      "v": 78
    },
    {
      "midi": 63,
      "hit": false,
      "t": 105986.666666667,
      "d": 103.33333333334303,
      "v": 75
    },
    {
      "midi": 66,
      "hit": false,
      "t": 105986.666666667,
      "d": 115.00000000001455,
      "v": 74
    },
    {
      "midi": 69,
      "hit": false,
      "t": 105988.33333333368,
      "d": 98.33333333334303,
      "v": 73
    },
    {
      "midi": 30,
      "hit": false,
      "t": 105995.83333333368,
      "d": 527.5000000000146,
      "v": 92
    },
    {
      "midi": 69,
      "hit": false,
      "t": 106240.00000000035,
      "d": 110,
      "v": 55
    },
    {
      "midi": 60,
      "hit": false,
      "t": 106243.33333333368,
      "d": 94.16666666667152,
      "v": 65
    },
    {
      "midi": 57,
      "hit": false,
      "t": 106245.83333333368,
      "d": 85.83333333334303,
      "v": 74
    },
    {
      "midi": 63,
      "hit": false,
      "t": 106247.50000000035,
      "d": 98.33333333332848,
      "v": 60
    },
    {
      "midi": 66,
      "hit": false,
      "t": 106255.00000000035,
      "d": 99.16666666667152,
      "v": 61
    },
    {
      "midi": 42,
      "hit": false,
      "t": 106490.00000000035,
      "d": 181.66666666667152,
      "v": 78
    },
    {
      "midi": 63,
      "hit": false,
      "t": 106496.66666666702,
      "d": 100,
      "v": 70
    },
    {
      "midi": 69,
      "hit": false,
      "t": 106498.33333333369,
      "d": 106.66666666665697,
      "v": 57
    },
    {
      "midi": 57,
      "hit": false,
      "t": 106502.50000000036,
      "d": 93.33333333332848,
      "v": 77
    },
    {
      "midi": 60,
      "hit": false,
      "t": 106502.50000000036,
      "d": 97.49999999998545,
      "v": 74
    },
    {
      "midi": 66,
      "hit": false,
      "t": 106510.83333333369,
      "d": 99.16666666665697,
      "v": 63
    },
    {
      "midi": 33,
      "hit": false,
      "t": 106745.00000000035,
      "d": 505.00000000001455,
      "v": 77
    },
    {
      "midi": 60,
      "hit": false,
      "t": 106750.83333333368,
      "d": 124.16666666665697,
      "v": 78
    },
    {
      "midi": 69,
      "hit": false,
      "t": 106755.00000000035,
      "d": 121.66666666665697,
      "v": 71
    },
    {
      "midi": 63,
      "hit": false,
      "t": 106758.33333333368,
      "d": 114.16666666665697,
      "v": 77
    },
    {
      "midi": 57,
      "hit": false,
      "t": 106760.00000000035,
      "d": 89.16666666665697,
      "v": 92
    },
    {
      "midi": 66,
      "hit": false,
      "t": 106765.83333333368,
      "d": 115,
      "v": 74
    },
    {
      "midi": 60,
      "hit": false,
      "t": 107001.666666667,
      "d": 110.83333333335759,
      "v": 69
    },
    {
      "midi": 63,
      "hit": false,
      "t": 107008.33333333368,
      "d": 102.50000000001455,
      "v": 62
    },
    {
      "midi": 57,
      "hit": false,
      "t": 107012.50000000035,
      "d": 80.00000000001455,
      "v": 71
    },
    {
      "midi": 66,
      "hit": false,
      "t": 107016.66666666702,
      "d": 105.83333333334303,
      "v": 62
    },
    {
      "midi": 69,
      "hit": false,
      "t": 107018.33333333369,
      "d": 96.66666666667152,
      "v": 62
    },
    {
      "midi": 45,
      "hit": false,
      "t": 107243.33333333369,
      "d": 171.66666666668607,
      "v": 79
    },
    {
      "midi": 60,
      "hit": false,
      "t": 107254.16666666704,
      "d": 118.33333333334303,
      "v": 73
    },
    {
      "midi": 63,
      "hit": false,
      "t": 107258.3333333337,
      "d": 116.66666666667152,
      "v": 67
    },
    {
      "midi": 69,
      "hit": false,
      "t": 107262.50000000038,
      "d": 102.5,
      "v": 56
    },
    {
      "midi": 57,
      "hit": false,
      "t": 107265.8333333337,
      "d": 95,
      "v": 74
    },
    {
      "midi": 66,
      "hit": false,
      "t": 107270.8333333337,
      "d": 111.66666666667152,
      "v": 62
    },
    {
      "midi": 36,
      "hit": false,
      "t": 107516.66666666704,
      "d": 513.3333333333285,
      "v": 92
    },
    {
      "midi": 60,
      "hit": false,
      "t": 107522.50000000036,
      "d": 132.4999999999709,
      "v": 78
    },
    {
      "midi": 63,
      "hit": false,
      "t": 107525.83333333369,
      "d": 130.83333333331393,
      "v": 77
    },
    {
      "midi": 57,
      "hit": false,
      "t": 107531.66666666702,
      "d": 106.66666666665697,
      "v": 92
    },
    {
      "midi": 69,
      "hit": false,
      "t": 107532.50000000035,
      "d": 111.66666666665697,
      "v": 70
    },
    {
      "midi": 66,
      "hit": false,
      "t": 107540.83333333368,
      "d": 117.5,
      "v": 71
    },
    {
      "midi": 63,
      "hit": false,
      "t": 107776.666666667,
      "d": 130.8333333333576,
      "v": 70
    },
    {
      "midi": 60,
      "hit": false,
      "t": 107778.33333333368,
      "d": 125.00000000001455,
      "v": 74
    },
    {
      "midi": 57,
      "hit": false,
      "t": 107782.50000000035,
      "d": 90.83333333334303,
      "v": 73
    },
    {
      "midi": 69,
      "hit": false,
      "t": 107787.50000000035,
      "d": 105.00000000001455,
      "v": 66
    },
    {
      "midi": 66,
      "hit": false,
      "t": 107791.66666666702,
      "d": 114.16666666667152,
      "v": 66
    },
    {
      "midi": 60,
      "hit": false,
      "t": 108036.66666666704,
      "d": 129.16666666665697,
      "v": 66
    },
    {
      "midi": 40,
      "hit": false,
      "t": 108041.66666666704,
      "d": 201.6666666666424,
      "v": 77
    },
    {
      "midi": 69,
      "hit": false,
      "t": 108046.66666666704,
      "d": 109.16666666665697,
      "v": 59
    },
    {
      "midi": 63,
      "hit": false,
      "t": 108046.66666666704,
      "d": 126.66666666665697,
      "v": 67
    },
    {
      "midi": 66,
      "hit": false,
      "t": 108055.8333333337,
      "d": 125.83333333331393,
      "v": 67
    },
    {
      "midi": 57,
      "hit": false,
      "t": 108059.16666666704,
      "d": 75.83333333332848,
      "v": 74
    },
    {
      "midi": 33,
      "hit": false,
      "t": 108317.50000000035,
      "d": 98.33333333334303,
      "v": 86
    },
    {
      "midi": 45,
      "hit": false,
      "t": 108321.66666666702,
      "d": 981.6666666666861,
      "v": 95
    },
    {
      "midi": 61,
      "hit": false,
      "t": 108325.83333333369,
      "d": 90.83333333332848,
      "v": 79
    },
    {
      "midi": 69,
      "hit": false,
      "t": 108329.16666666702,
      "d": 113.33333333332848,
      "v": 78
    },
    {
      "midi": 57,
      "hit": false,
      "t": 108334.16666666702,
      "d": 70.83333333334303,
      "v": 86
    },
    {
      "midi": 64,
      "hit": false,
      "t": 108338.33333333369,
      "d": 76.66666666667152,
      "v": 77
    },
    {
      "midi": 64,
      "hit": false,
      "t": 108557.50000000035,
      "d": 110.83333333334303,
      "v": 59
    },
    {
      "midi": 61,
      "hit": false,
      "t": 108568.33333333368,
      "d": 102.50000000001455,
      "v": 61
    },
    {
      "midi": 69,
      "hit": false,
      "t": 108575.00000000035,
      "d": 90.83333333334303,
      "v": 52
    },
    {
      "midi": 57,
      "hit": false,
      "t": 108577.50000000035,
      "d": 79.16666666667152,
      "v": 60
    },
    {
      "midi": 64,
      "hit": false,
      "t": 108822.50000000036,
      "d": 102.5,
      "v": 71
    },
    {
      "midi": 61,
      "hit": false,
      "t": 108826.66666666704,
      "d": 101.66666666665697,
      "v": 67
    },
    {
      "midi": 69,
      "hit": false,
      "t": 108830.00000000036,
      "d": 100.83333333332848,
      "v": 65
    },
    {
      "midi": 57,
      "hit": false,
      "t": 108835.00000000036,
      "d": 80,
      "v": 69
    },
    {
      "midi": 61,
      "hit": false,
      "t": 109102.50000000036,
      "d": 124.16666666667152,
      "v": 78
    },
    {
      "midi": 69,
      "hit": false,
      "t": 109105.83333333369,
      "d": 122.50000000001455,
      "v": 79
    },
    {
      "midi": 64,
      "hit": false,
      "t": 109110.83333333369,
      "d": 120.00000000001455,
      "v": 74
    },
    {
      "midi": 57,
      "hit": false,
      "t": 109113.33333333369,
      "d": 89.16666666667152,
      "v": 83
    },
    {
      "midi": 52,
      "hit": false,
      "t": 109120.00000000036,
      "d": 300,
      "v": 86
    },
    {
      "midi": 64,
      "hit": false,
      "t": 109371.66666666704,
      "d": 125.83333333332848,
      "v": 65
    },
    {
      "midi": 61,
      "hit": false,
      "t": 109375.00000000036,
      "d": 112.5,
      "v": 74
    },
    {
      "midi": 69,
      "hit": false,
      "t": 109380.00000000036,
      "d": 100,
      "v": 75
    },
    {
      "midi": 57,
      "hit": false,
      "t": 109385.00000000036,
      "d": 76.66666666667152,
      "v": 75
    },
    {
      "midi": 64,
      "hit": false,
      "t": 109630.00000000036,
      "d": 100.00000000001455,
      "v": 71
    },
    {
      "midi": 57,
      "hit": false,
      "t": 109636.66666666704,
      "d": 100.83333333334303,
      "v": 74
    },
    {
      "midi": 61,
      "hit": false,
      "t": 109640.8333333337,
      "d": 123.33333333334303,
      "v": 62
    },
    {
      "midi": 69,
      "hit": false,
      "t": 109645.00000000038,
      "d": 102.5,
      "v": 75
    },
    {
      "midi": 45,
      "hit": false,
      "t": 109655.8333333337,
      "d": 125.83333333334303,
      "v": 75
    },
    {
      "midi": 44,
      "hit": false,
      "t": 109896.66666666705,
      "d": 891.6666666666715,
      "v": 105
    },
    {
      "midi": 61,
      "hit": false,
      "t": 109901.66666666705,
      "d": 120.83333333334303,
      "v": 74
    },
    {
      "midi": 68,
      "hit": false,
      "t": 109909.16666666705,
      "d": 146.66666666667152,
      "v": 89
    },
    {
      "midi": 53,
      "hit": false,
      "t": 109909.16666666705,
      "d": 535.0000000000146,
      "v": 86
    },
    {
      "midi": 65,
      "hit": false,
      "t": 109915.83333333372,
      "d": 130,
      "v": 77
    },
    {
      "midi": 59,
      "hit": false,
      "t": 109918.33333333372,
      "d": 101.66666666667152,
      "v": 86
    },
    {
      "midi": 61,
      "hit": false,
      "t": 110150.83333333372,
      "d": 126.66666666668607,
      "v": 61
    },
    {
      "midi": 68,
      "hit": false,
      "t": 110155.83333333372,
      "d": 134.16666666668607,
      "v": 71
    },
    {
      "midi": 65,
      "hit": false,
      "t": 110160.0000000004,
      "d": 120.00000000001455,
      "v": 66
    },
    {
      "midi": 59,
      "hit": false,
      "t": 110161.66666666706,
      "d": 101.66666666667152,
      "v": 75
    },
    {
      "midi": 68,
      "hit": false,
      "t": 110417.50000000041,
      "d": 149.1666666666424,
      "v": 74
    },
    {
      "midi": 61,
      "hit": false,
      "t": 110423.33333333374,
      "d": 124.16666666665697,
      "v": 74
    },
    {
      "midi": 65,
      "hit": false,
      "t": 110423.33333333374,
      "d": 129.99999999998545,
      "v": 70
    },
    {
      "midi": 59,
      "hit": false,
      "t": 110431.66666666706,
      "d": 95.83333333332848,
      "v": 78
    },
    {
      "midi": 61,
      "hit": false,
      "t": 110675.83333333372,
      "d": 126.66666666665697,
      "v": 69
    },
    {
      "midi": 68,
      "hit": false,
      "t": 110680.83333333372,
      "d": 145,
      "v": 79
    },
    {
      "midi": 59,
      "hit": false,
      "t": 110681.66666666705,
      "d": 115,
      "v": 73
    },
    {
      "midi": 65,
      "hit": false,
      "t": 110690.83333333372,
      "d": 125.83333333332848,
      "v": 74
    },
    {
      "midi": 53,
      "hit": false,
      "t": 110696.66666666705,
      "d": 297.50000000001455,
      "v": 86
    },
    {
      "midi": 59,
      "hit": false,
      "t": 110927.5000000004,
      "d": 102.5,
      "v": 75
    },
    {
      "midi": 68,
      "hit": false,
      "t": 110931.66666666706,
      "d": 131.66666666665697,
      "v": 74
    },
    {
      "midi": 61,
      "hit": false,
      "t": 110937.5000000004,
      "d": 98.33333333332848,
      "v": 70
    },
    {
      "midi": 65,
      "hit": false,
      "t": 110937.5000000004,
      "d": 119.16666666665697,
      "v": 75
    },
    {
      "midi": 65,
      "hit": false,
      "t": 111187.5000000004,
      "d": 118.33333333334303,
      "v": 71
    },
    {
      "midi": 68,
      "hit": false,
      "t": 111191.66666666706,
      "d": 128.33333333334303,
      "v": 75
    },
    {
      "midi": 59,
      "hit": false,
      "t": 111195.83333333374,
      "d": 107.5,
      "v": 74
    },
    {
      "midi": 44,
      "hit": false,
      "t": 111201.66666666706,
      "d": 114.16666666667152,
      "v": 86
    },
    {
      "midi": 61,
      "hit": false,
      "t": 111204.16666666706,
      "d": 113.33333333334303,
      "v": 69
    },
    {
      "midi": 66,
      "hit": false,
      "t": 111456.66666666706,
      "d": 150.83333333334303,
      "v": 74
    },
    {
      "midi": 42,
      "hit": false,
      "t": 111460.83333333374,
      "d": 880.8333333333285,
      "v": 99
    },
    {
      "midi": 57,
      "hit": false,
      "t": 111466.66666666706,
      "d": 98.33333333334303,
      "v": 83
    },
    {
      "midi": 61,
      "hit": false,
      "t": 111468.33333333374,
      "d": 111.66666666667152,
      "v": 66
    },
    {
      "midi": 49,
      "hit": false,
      "t": 111475.00000000041,
      "d": 970,
      "v": 95
    },
    {
      "midi": 64,
      "hit": false,
      "t": 111476.66666666708,
      "d": 107.5,
      "v": 59
    },
    {
      "midi": 69,
      "hit": false,
      "t": 111485.00000000041,
      "d": 91.66666666667152,
      "v": 71
    },
    {
      "midi": 57,
      "hit": false,
      "t": 111724.16666666706,
      "d": 77.49999999998545,
      "v": 63
    },
    {
      "midi": 61,
      "hit": false,
      "t": 111726.66666666706,
      "d": 95.83333333331393,
      "v": 49
    },
    {
      "midi": 64,
      "hit": false,
      "t": 111732.5000000004,
      "d": 99.16666666665697,
      "v": 54
    },
    {
      "midi": 66,
      "hit": false,
      "t": 111738.33333333372,
      "d": 102.5,
      "v": 55
    },
    {
      "midi": 69,
      "hit": false,
      "t": 111741.66666666705,
      "d": 75,
      "v": 51
    },
    {
      "midi": 61,
      "hit": false,
      "t": 111995.0000000004,
      "d": 109.16666666665697,
      "v": 67
    },
    {
      "midi": 64,
      "hit": false,
      "t": 112000.0000000004,
      "d": 106.66666666665697,
      "v": 55
    },
    {
      "midi": 66,
      "hit": false,
      "t": 112002.5000000004,
      "d": 119.16666666665697,
      "v": 62
    },
    {
      "midi": 57,
      "hit": false,
      "t": 112008.33333333372,
      "d": 68.33333333332848,
      "v": 75
    },
    {
      "midi": 69,
      "hit": false,
      "t": 112008.33333333372,
      "d": 88.33333333332848,
      "v": 70
    },
    {
      "midi": 61,
      "hit": false,
      "t": 112260.83333333372,
      "d": 90.00000000001455,
      "v": 92
    },
    {
      "midi": 57,
      "hit": false,
      "t": 112263.33333333372,
      "d": 75.00000000001455,
      "v": 95
    },
    {
      "midi": 69,
      "hit": false,
      "t": 112270.0000000004,
      "d": 91.66666666667152,
      "v": 77
    },
    {
      "midi": 66,
      "hit": false,
      "t": 112270.0000000004,
      "d": 108.33333333334303,
      "v": 77
    },
    {
      "midi": 64,
      "hit": false,
      "t": 112276.66666666706,
      "d": 90,
      "v": 67
    },
    {
      "midi": 64,
      "hit": false,
      "t": 112514.16666666708,
      "d": 112.50000000001455,
      "v": 54
    },
    {
      "midi": 57,
      "hit": false,
      "t": 112518.33333333375,
      "d": 77.5,
      "v": 77
    },
    {
      "midi": 61,
      "hit": false,
      "t": 112522.50000000042,
      "d": 89.16666666667152,
      "v": 67
    },
    {
      "midi": 69,
      "hit": false,
      "t": 112527.50000000042,
      "d": 80,
      "v": 66
    },
    {
      "midi": 66,
      "hit": false,
      "t": 112530.00000000042,
      "d": 101.66666666667152,
      "v": 61
    },
    {
      "midi": 42,
      "hit": false,
      "t": 112764.1666666671,
      "d": 192.5,
      "v": 89
    },
    {
      "midi": 64,
      "hit": false,
      "t": 112768.33333333377,
      "d": 111.66666666667152,
      "v": 56
    },
    {
      "midi": 66,
      "hit": false,
      "t": 112773.33333333377,
      "d": 127.5,
      "v": 67
    },
    {
      "midi": 61,
      "hit": false,
      "t": 112777.50000000044,
      "d": 112.5,
      "v": 67
    },
    {
      "midi": 57,
      "hit": false,
      "t": 112780.83333333377,
      "d": 86.66666666667152,
      "v": 74
    },
    {
      "midi": 69,
      "hit": false,
      "t": 112785.00000000044,
      "d": 85.83333333332848,
      "v": 71
    },
    {
      "midi": 40,
      "hit": false,
      "t": 113042.50000000042,
      "d": 978.3333333334158,
      "v": 78
    },
    {
      "midi": 49,
      "hit": false,
      "t": 113045.00000000042,
      "d": 940.0000000000728,
      "v": 92
    },
    {
      "midi": 61,
      "hit": false,
      "t": 113051.6666666671,
      "d": 116.66666666668607,
      "v": 75
    },
    {
      "midi": 64,
      "hit": false,
      "t": 113055.83333333377,
      "d": 125.83333333334303,
      "v": 71
    },
    {
      "midi": 57,
      "hit": false,
      "t": 113057.50000000044,
      "d": 95,
      "v": 79
    },
    {
      "midi": 69,
      "hit": false,
      "t": 113063.33333333377,
      "d": 103.33333333334303,
      "v": 74
    },
    {
      "midi": 66,
      "hit": false,
      "t": 113063.33333333377,
      "d": 122.50000000001455,
      "v": 75
    },
    {
      "midi": 61,
      "hit": false,
      "t": 113315.00000000045,
      "d": 112.50000000001455,
      "v": 47
    },
    {
      "midi": 57,
      "hit": false,
      "t": 113320.00000000045,
      "d": 92.50000000001455,
      "v": 52
    },
    {
      "midi": 69,
      "hit": false,
      "t": 113322.50000000045,
      "d": 100.00000000001455,
      "v": 51
    },
    {
      "midi": 66,
      "hit": false,
      "t": 113326.66666666712,
      "d": 111.66666666667152,
      "v": 47
    },
    {
      "midi": 64,
      "hit": false,
      "t": 113335.8333333338,
      "d": 104.16666666667152,
      "v": 52
    },
    {
      "midi": 64,
      "hit": false,
      "t": 113590.8333333338,
      "d": 127.50000000001455,
      "v": 57
    },
    {
      "midi": 61,
      "hit": false,
      "t": 113592.50000000047,
      "d": 111.66666666667152,
      "v": 69
    },
    {
      "midi": 57,
      "hit": false,
      "t": 113596.66666666714,
      "d": 91.66666666667152,
      "v": 75
    },
    {
      "midi": 66,
      "hit": false,
      "t": 113599.16666666714,
      "d": 121.66666666667152,
      "v": 59
    },
    {
      "midi": 69,
      "hit": false,
      "t": 113603.33333333381,
      "d": 97.5,
      "v": 67
    },
    {
      "midi": 64,
      "hit": false,
      "t": 113857.50000000048,
      "d": 139.16666666668607,
      "v": 57
    },
    {
      "midi": 61,
      "hit": false,
      "t": 113861.66666666715,
      "d": 116.66666666667152,
      "v": 74
    },
    {
      "midi": 57,
      "hit": false,
      "t": 113865.83333333382,
      "d": 106.66666666667152,
      "v": 79
    },
    {
      "midi": 69,
      "hit": false,
      "t": 113867.5000000005,
      "d": 107.5,
      "v": 60
    },
    {
      "midi": 66,
      "hit": false,
      "t": 113872.5000000005,
      "d": 119.16666666667152,
      "v": 70
    },
    {
      "midi": 64,
      "hit": false,
      "t": 114117.50000000051,
      "d": 119.16666666665697,
      "v": 63
    },
    {
      "midi": 61,
      "hit": false,
      "t": 114120.83333333384,
      "d": 109.16666666665697,
      "v": 69
    },
    {
      "midi": 57,
      "hit": false,
      "t": 114124.16666666717,
      "d": 98.33333333332848,
      "v": 69
    },
    {
      "midi": 66,
      "hit": false,
      "t": 114130.0000000005,
      "d": 109.16666666667152,
      "v": 67
    },
    {
      "midi": 69,
      "hit": false,
      "t": 114131.66666666717,
      "d": 95.83333333332848,
      "v": 65
    },
    {
      "midi": 64,
      "hit": false,
      "t": 114380.0000000005,
      "d": 142.5000000000291,
      "v": 60
    },
    {
      "midi": 49,
      "hit": false,
      "t": 114381.66666666717,
      "d": 93.33333333334303,
      "v": 79
    },
    {
      "midi": 69,
      "hit": false,
      "t": 114388.33333333384,
      "d": 113.33333333334303,
      "v": 57
    },
    {
      "midi": 61,
      "hit": false,
      "t": 114390.83333333384,
      "d": 80.83333333334303,
      "v": 67
    },
    {
      "midi": 66,
      "hit": false,
      "t": 114395.00000000051,
      "d": 118.33333333334303,
      "v": 67
    },
    {
      "midi": 57,
      "hit": false,
      "t": 114400.00000000051,
      "d": 97.5,
      "v": 74
    },
    {
      "midi": 40,
      "hit": false,
      "t": 114405.00000000051,
      "d": 80.83333333332848,
      "v": 75
    },
    {
      "midi": 66,
      "hit": false,
      "t": 114668.33333333385,
      "d": 123.33333333332848,
      "v": 92
    },
    {
      "midi": 62,
      "hit": false,
      "t": 114671.66666666718,
      "d": 108.33333333332848,
      "v": 79
    },
    {
      "midi": 47,
      "hit": false,
      "t": 114676.66666666718,
      "d": 370.00000000001455,
      "v": 99
    },
    {
      "midi": 57,
      "hit": false,
      "t": 114678.33333333385,
      "d": 75.83333333332848,
      "v": 79
    },
    {
      "midi": 35,
      "hit": false,
      "t": 114683.33333333385,
      "d": 980.8333333333576,
      "v": 105
    },
    {
      "midi": 62,
      "hit": false,
      "t": 114930.83333333385,
      "d": 104.16666666667152,
      "v": 56
    },
    {
      "midi": 66,
      "hit": false,
      "t": 114935.00000000052,
      "d": 105,
      "v": 67
    },
    {
      "midi": 57,
      "hit": false,
      "t": 114935.83333333385,
      "d": 80,
      "v": 69
    },
    {
      "midi": 66,
      "hit": false,
      "t": 115209.1666666672,
      "d": 114.16666666667152,
      "v": 78
    },
    {
      "midi": 62,
      "hit": false,
      "t": 115213.33333333387,
      "d": 96.66666666667152,
      "v": 75
    },
    {
      "midi": 57,
      "hit": false,
      "t": 115223.33333333387,
      "d": 69.16666666667152,
      "v": 77
    },
    {
      "midi": 66,
      "hit": false,
      "t": 115475.00000000054,
      "d": 122.5,
      "v": 99
    },
    {
      "midi": 62,
      "hit": false,
      "t": 115477.50000000054,
      "d": 105,
      "v": 83
    },
    {
      "midi": 57,
      "hit": false,
      "t": 115483.33333333387,
      "d": 81.66666666667152,
      "v": 92
    },
    {
      "midi": 47,
      "hit": false,
      "t": 115488.33333333387,
      "d": 102.5,
      "v": 92
    },
    {
      "midi": 66,
      "hit": false,
      "t": 115717.50000000054,
      "d": 123.33333333332848,
      "v": 89
    },
    {
      "midi": 62,
      "hit": false,
      "t": 115722.50000000054,
      "d": 108.33333333332848,
      "v": 79
    },
    {
      "midi": 37,
      "hit": false,
      "t": 115725.83333333387,
      "d": 170.83333333332848,
      "v": 99
    },
    {
      "midi": 57,
      "hit": false,
      "t": 115731.6666666672,
      "d": 86.66666666667152,
      "v": 83
    },
    {
      "midi": 38,
      "hit": false,
      "t": 115974.1666666672,
      "d": 180.83333333332848,
      "v": 95
    },
    {
      "midi": 62,
      "hit": false,
      "t": 115977.50000000052,
      "d": 120.83333333332848,
      "v": 77
    },
    {
      "midi": 57,
      "hit": false,
      "t": 115985.83333333385,
      "d": 95,
      "v": 78
    },
    {
      "midi": 66,
      "hit": false,
      "t": 115985.83333333385,
      "d": 126.66666666667152,
      "v": 86
    },
    {
      "midi": 40,
      "hit": false,
      "t": 116240.83333333385,
      "d": 546.666666666657,
      "v": 95
    },
    {
      "midi": 66,
      "hit": false,
      "t": 116255.83333333385,
      "d": 126.66666666667152,
      "v": 92
    },
    {
      "midi": 62,
      "hit": false,
      "t": 116260.00000000052,
      "d": 103.33333333332848,
      "v": 79
    },
    {
      "midi": 57,
      "hit": false,
      "t": 116263.33333333385,
      "d": 90,
      "v": 83
    },
    {
      "midi": 66,
      "hit": false,
      "t": 116507.50000000052,
      "d": 125.83333333331393,
      "v": 74
    },
    {
      "midi": 62,
      "hit": false,
      "t": 116510.83333333385,
      "d": 106.66666666665697,
      "v": 74
    },
    {
      "midi": 57,
      "hit": false,
      "t": 116514.16666666718,
      "d": 87.5,
      "v": 69
    },
    {
      "midi": 62,
      "hit": false,
      "t": 116775.00000000051,
      "d": 105,
      "v": 77
    },
    {
      "midi": 28,
      "hit": false,
      "t": 116777.50000000051,
      "d": 350,
      "v": 102
    },
    {
      "midi": 57,
      "hit": false,
      "t": 116781.66666666718,
      "d": 85.83333333332848,
      "v": 75
    },
    {
      "midi": 66,
      "hit": false,
      "t": 116781.66666666718,
      "d": 110,
      "v": 77
    },
    {
      "midi": 66,
      "hit": false,
      "t": 117038.33333333384,
      "d": 121.66666666667152,
      "v": 86
    },
    {
      "midi": 62,
      "hit": false,
      "t": 117040.83333333384,
      "d": 109.16666666667152,
      "v": 79
    },
    {
      "midi": 57,
      "hit": false,
      "t": 117043.33333333384,
      "d": 100,
      "v": 83
    },
    {
      "midi": 40,
      "hit": false,
      "t": 117046.66666666717,
      "d": 156.66666666667152,
      "v": 92
    },
    {
      "midi": 62,
      "hit": false,
      "t": 117295.83333333384,
      "d": 115.83333333332848,
      "v": 78
    },
    {
      "midi": 66,
      "hit": false,
      "t": 117298.33333333384,
      "d": 119.16666666665697,
      "v": 75
    },
    {
      "midi": 57,
      "hit": false,
      "t": 117301.66666666717,
      "d": 91.66666666667152,
      "v": 71
    },
    {
      "midi": 40,
      "hit": false,
      "t": 117542.5000000005,
      "d": 238.3333333333576,
      "v": 79
    },
    {
      "midi": 62,
      "hit": false,
      "t": 117555.0000000005,
      "d": 111.66666666668607,
      "v": 71
    },
    {
      "midi": 66,
      "hit": false,
      "t": 117556.66666666717,
      "d": 131.66666666668607,
      "v": 75
    },
    {
      "midi": 57,
      "hit": false,
      "t": 117565.83333333384,
      "d": 96.66666666667152,
      "v": 67
    },
    {
      "midi": 33,
      "hit": false,
      "t": 117822.50000000052,
      "d": 1065.0000000000437,
      "v": 99
    },
    {
      "midi": 64,
      "hit": false,
      "t": 117834.1666666672,
      "d": 103.33333333334303,
      "v": 79
    },
    {
      "midi": 61,
      "hit": false,
      "t": 117836.6666666672,
      "d": 107.50000000001455,
      "v": 79
    },
    {
      "midi": 57,
      "hit": false,
      "t": 117840.83333333387,
      "d": 86.66666666667152,
      "v": 95
    },
    {
      "midi": 69,
      "hit": false,
      "t": 117840.83333333387,
      "d": 112.50000000001455,
      "v": 83
    },
    {
      "midi": 64,
      "hit": false,
      "t": 118083.33333333388,
      "d": 86.66666666667152,
      "v": 56
    },
    {
      "midi": 61,
      "hit": false,
      "t": 118090.00000000055,
      "d": 77.5,
      "v": 62
    },
    {
      "midi": 69,
      "hit": false,
      "t": 118091.66666666722,
      "d": 98.33333333332848,
      "v": 63
    },
    {
      "midi": 57,
      "hit": false,
      "t": 118096.66666666722,
      "d": 76.66666666665697,
      "v": 60
    },
    {
      "midi": 64,
      "hit": false,
      "t": 118354.16666666722,
      "d": 83.33333333334303,
      "v": 61
    },
    {
      "midi": 57,
      "hit": false,
      "t": 118356.66666666722,
      "d": 78.33333333334303,
      "v": 67
    },
    {
      "midi": 69,
      "hit": false,
      "t": 118360.8333333339,
      "d": 92.5,
      "v": 71
    },
    {
      "midi": 61,
      "hit": false,
      "t": 118361.66666666722,
      "d": 71.66666666667152,
      "v": 60
    },
    {
      "midi": 69,
      "hit": false,
      "t": 118628.3333333339,
      "d": 117.5,
      "v": 86
    },
    {
      "midi": 61,
      "hit": false,
      "t": 118631.66666666722,
      "d": 94.16666666667152,
      "v": 89
    },
    {
      "midi": 57,
      "hit": false,
      "t": 118632.50000000055,
      "d": 84.16666666667152,
      "v": 95
    },
    {
      "midi": 64,
      "hit": false,
      "t": 118635.83333333388,
      "d": 85.00000000001455,
      "v": 78
    },
    {
      "midi": 45,
      "hit": false,
      "t": 118645.00000000055,
      "d": 112.50000000001455,
      "v": 95
    },
    {
      "midi": 61,
      "hit": false,
      "t": 118893.3333333339,
      "d": 89.16666666665697,
      "v": 75
    },
    {
      "midi": 69,
      "hit": false,
      "t": 118897.50000000057,
      "d": 108.33333333332848,
      "v": 78
    },
    {
      "midi": 57,
      "hit": false,
      "t": 118900.8333333339,
      "d": 80.83333333332848,
      "v": 78
    },
    {
      "midi": 64,
      "hit": false,
      "t": 118900.8333333339,
      "d": 83.33333333332848,
      "v": 74
    },
    {
      "midi": 33,
      "hit": false,
      "t": 119113.3333333339,
      "d": 138.33333333332848,
      "v": 57
    },
    {
      "midi": 64,
      "hit": false,
      "t": 119153.3333333339,
      "d": 167.49999999998545,
      "v": 75
    },
    {
      "midi": 69,
      "hit": false,
      "t": 119155.8333333339,
      "d": 148.33333333332848,
      "v": 78
    },
    {
      "midi": 61,
      "hit": false,
      "t": 119160.00000000057,
      "d": 110.83333333332848,
      "v": 70
    },
    {
      "midi": 57,
      "hit": false,
      "t": 119160.8333333339,
      "d": 100,
      "v": 77
    },
    {
      "midi": 36,
      "hit": false,
      "t": 119166.66666666722,
      "d": 95,
      "v": 67
    },
    {
      "midi": 38,
      "hit": false,
      "t": 119185.8333333339,
      "d": 131.66666666665697,
      "v": 71
    },
    {
      "midi": 39,
      "hit": false,
      "t": 119286.66666666722,
      "d": 78.33333333332848,
      "v": 89
    },
    {
      "midi": 64,
      "hit": false,
      "t": 119416.66666666722,
      "d": 165.83333333332848,
      "v": 73
    },
    {
      "midi": 66,
      "hit": false,
      "t": 119420.8333333339,
      "d": 164.16666666665697,
      "v": 79
    },
    {
      "midi": 40,
      "hit": false,
      "t": 119423.3333333339,
      "d": 297.5,
      "v": 114
    },
    {
      "midi": 57,
      "hit": false,
      "t": 119425.8333333339,
      "d": 110,
      "v": 95
    },
    {
      "midi": 69,
      "hit": false,
      "t": 119430.00000000057,
      "d": 134.16666666665697,
      "v": 74
    },
    {
      "midi": 62,
      "hit": false,
      "t": 119432.50000000057,
      "d": 144.99999999998545,
      "v": 74
    },
    {
      "midi": 62,
      "hit": false,
      "t": 119695.00000000055,
      "d": 132.50000000001455,
      "v": 77
    },
    {
      "midi": 66,
      "hit": false,
      "t": 119698.33333333388,
      "d": 127.50000000001455,
      "v": 71
    },
    {
      "midi": 57,
      "hit": false,
      "t": 119702.50000000055,
      "d": 103.33333333334303,
      "v": 89
    },
    {
      "midi": 69,
      "hit": false,
      "t": 119704.16666666722,
      "d": 96.66666666667152,
      "v": 66
    },
    {
      "midi": 64,
      "hit": false,
      "t": 119710.8333333339,
      "d": 130,
      "v": 57
    },
    {
      "midi": 28,
      "hit": false,
      "t": 119710.8333333339,
      "d": 324.16666666665697,
      "v": 99
    },
    {
      "midi": 62,
      "hit": false,
      "t": 119960.8333333339,
      "d": 142.5,
      "v": 69
    },
    {
      "midi": 64,
      "hit": false,
      "t": 119963.3333333339,
      "d": 144.16666666667152,
      "v": 62
    },
    {
      "midi": 57,
      "hit": false,
      "t": 119966.66666666722,
      "d": 108.33333333332848,
      "v": 89
    },
    {
      "midi": 66,
      "hit": false,
      "t": 119971.66666666722,
      "d": 136.66666666667152,
      "v": 75
    },
    {
      "midi": 40,
      "hit": false,
      "t": 119971.66666666722,
      "d": 310.83333333334303,
      "v": 95
    },
    {
      "midi": 69,
      "hit": false,
      "t": 119977.50000000055,
      "d": 104.16666666667152,
      "v": 74
    },
    {
      "midi": 28,
      "hit": false,
      "t": 120225.8333333339,
      "d": 206.66666666665697,
      "v": 105
    },
    {
      "midi": 62,
      "hit": false,
      "t": 120232.50000000057,
      "d": 149.16666666665697,
      "v": 78
    },
    {
      "midi": 57,
      "hit": false,
      "t": 120235.00000000057,
      "d": 125,
      "v": 92
    },
    {
      "midi": 66,
      "hit": false,
      "t": 120236.66666666724,
      "d": 141.66666666665697,
      "v": 77
    },
    {
      "midi": 69,
      "hit": false,
      "t": 120245.00000000057,
      "d": 108.33333333332848,
      "v": 78
    },
    {
      "midi": 64,
      "hit": false,
      "t": 120245.00000000057,
      "d": 135.83333333332848,
      "v": 75
    },
    {
      "midi": 40,
      "hit": false,
      "t": 120461.66666666722,
      "d": 125,
      "v": 89
    },
    {
      "midi": 57,
      "hit": false,
      "t": 120486.66666666722,
      "d": 110.83333333332848,
      "v": 92
    },
    {
      "midi": 66,
      "hit": false,
      "t": 120490.00000000055,
      "d": 133.33333333332848,
      "v": 75
    },
    {
      "midi": 69,
      "hit": false,
      "t": 120492.50000000055,
      "d": 108.33333333332848,
      "v": 65
    },
    {
      "midi": 64,
      "hit": false,
      "t": 120496.66666666722,
      "d": 129.99999999998545,
      "v": 59
    },
    {
      "midi": 62,
      "hit": false,
      "t": 120496.66666666722,
      "d": 132.49999999998545,
      "v": 78
    },
    {
      "midi": 66,
      "hit": false,
      "t": 120730.83333333388,
      "d": 162.5,
      "v": 77
    },
    {
      "midi": 32,
      "hit": false,
      "t": 120737.50000000055,
      "d": 145,
      "v": 89
    },
    {
      "midi": 39,
      "hit": false,
      "t": 120740.83333333388,
      "d": 180,
      "v": 77
    },
    {
      "midi": 62,
      "hit": false,
      "t": 120745.00000000055,
      "d": 145.83333333332848,
      "v": 74
    },
    {
      "midi": 57,
      "hit": false,
      "t": 120747.50000000055,
      "d": 120,
      "v": 79
    },
    {
      "midi": 64,
      "hit": false,
      "t": 120751.66666666722,
      "d": 140.83333333332848,
      "v": 57
    },
    {
      "midi": 69,
      "hit": false,
      "t": 120757.50000000055,
      "d": 97.5,
      "v": 74
    },
    {
      "midi": 69,
      "hit": false,
      "t": 120995.83333333388,
      "d": 2467.5000000000437,
      "v": 89
    },
    {
      "midi": 61,
      "hit": false,
      "t": 121000.00000000055,
      "d": 138.33333333332848,
      "v": 95
    },
    {
      "midi": 64,
      "hit": false,
      "t": 121005.00000000055,
      "d": 144.16666666665697,
      "v": 86
    },
    {
      "midi": 55,
      "hit": false,
      "t": 121007.50000000055,
      "d": 122.5,
      "v": 79
    },
    {
      "midi": 40,
      "hit": false,
      "t": 121013.33333333388,
      "d": 208.33333333334303,
      "v": 95
    },
    {
      "midi": 33,
      "hit": false,
      "t": 121017.50000000055,
      "d": 163.33333333332848,
      "v": 99
    },
    {
      "midi": 55,
      "hit": false,
      "t": 121253.3333333339,
      "d": 2163.3333333333576,
      "v": 47
    },
    {
      "midi": 61,
      "hit": false,
      "t": 121257.50000000057,
      "d": 96.66666666667152,
      "v": 60
    },
    {
      "midi": 64,
      "hit": false,
      "t": 121261.66666666724,
      "d": 105,
      "v": 55
    },
    {
      "midi": 33,
      "hit": false,
      "t": 121496.66666666724,
      "d": 358.3333333333285,
      "v": 47
    },
    {
      "midi": 64,
      "hit": false,
      "t": 121524.16666666724,
      "d": 128.33333333332848,
      "v": 47
    },
    {
      "midi": 61,
      "hit": false,
      "t": 121550.00000000057,
      "d": 91.66666666667152,
      "v": 47
    },
    {
      "midi": 42,
      "hit": false,
      "t": 121815.00000000057,
      "d": 479.1666666666715,
      "v": 71
    },
    {
      "midi": 61,
      "hit": false,
      "t": 121821.66666666724,
      "d": 88.33333333332848,
      "v": 60
    },
    {
      "midi": 64,
      "hit": false,
      "t": 121822.50000000057,
      "d": 90.83333333332848,
      "v": 55
    },
    {
      "midi": 64,
      "hit": false,
      "t": 122085.8333333339,
      "d": 72.5,
      "v": 52
    },
    {
      "midi": 61,
      "hit": false,
      "t": 122087.50000000057,
      "d": 60,
      "v": 59
    },
    {
      "midi": 33,
      "hit": false,
      "t": 122315.83333333391,
      "d": 331.6666666666715,
      "v": 67
    },
    {
      "midi": 64,
      "hit": false,
      "t": 122337.50000000058,
      "d": 82.5,
      "v": 67
    },
    {
      "midi": 61,
      "hit": false,
      "t": 122345.83333333391,
      "d": 59.16666666667152,
      "v": 66
    },
    {
      "midi": 64,
      "hit": false,
      "t": 122610.83333333391,
      "d": 114.16666666667152,
      "v": 75
    },
    {
      "midi": 61,
      "hit": false,
      "t": 122615.83333333391,
      "d": 97.5,
      "v": 75
    },
    {
      "midi": 43,
      "hit": false,
      "t": 122627.50000000058,
      "d": 430,
      "v": 73
    },
    {
      "midi": 64,
      "hit": false,
      "t": 122880.83333333391,
      "d": 86.66666666667152,
      "v": 62
    },
    {
      "midi": 61,
      "hit": false,
      "t": 122882.50000000058,
      "d": 74.16666666667152,
      "v": 70
    },
    {
      "midi": 64,
      "hit": false,
      "t": 123131.66666666725,
      "d": 111.66666666665697,
      "v": 73
    },
    {
      "midi": 61,
      "hit": false,
      "t": 123135.00000000058,
      "d": 95,
      "v": 69
    },
    {
      "midi": 33,
      "hit": false,
      "t": 123140.83333333391,
      "d": 293.33333333334303,
      "v": 66
    },
    {
      "midi": 64,
      "hit": false,
      "t": 123377.50000000058,
      "d": 107.50000000001455,
      "v": 71
    },
    {
      "midi": 42,
      "hit": false,
      "t": 123384.16666666725,
      "d": 135.83333333334303,
      "v": 95
    },
    {
      "midi": 61,
      "hit": false,
      "t": 123386.66666666725,
      "d": 273.33333333334303,
      "v": 71
    },
    {
      "midi": 60,
      "hit": false,
      "t": 123640.0000000006,
      "d": 107.5,
      "v": 73
    },
    {
      "midi": 63,
      "hit": false,
      "t": 123641.66666666727,
      "d": 120,
      "v": 70
    },
    {
      "midi": 39,
      "hit": false,
      "t": 123887.5000000006,
      "d": 182.5,
      "v": 86
    },
    {
      "midi": 62,
      "hit": false,
      "t": 123890.0000000006,
      "d": 221.66666666667152,
      "v": 63
    },
    {
      "midi": 32,
      "hit": false,
      "t": 123893.33333333393,
      "d": 138.33333333334303,
      "v": 79
    },
    {
      "midi": 59,
      "hit": false,
      "t": 123912.5000000006,
      "d": 185,
      "v": 79
    },
    {
      "midi": 61,
      "hit": false,
      "t": 124171.66666666727,
      "d": 162.49999999998545,
      "v": 89
    },
    {
      "midi": 57,
      "hit": false,
      "t": 124175.0000000006,
      "d": 125.83333333332848,
      "v": 92
    },
    {
      "midi": 40,
      "hit": false,
      "t": 124176.66666666727,
      "d": 237.5,
      "v": 89
    },
    {
      "midi": 33,
      "hit": false,
      "t": 124180.0000000006,
      "d": 160.83333333332848,
      "v": 83
    },
    {
      "midi": 57,
      "hit": false,
      "t": 124367.5000000006,
      "d": 98.33333333334303,
      "v": 61
    },
    {
      "midi": 61,
      "hit": false,
      "t": 124435.83333333394,
      "d": 85,
      "v": 54
    },
    {
      "midi": 57,
      "hit": false,
      "t": 124556.66666666727,
      "d": 75.83333333334303,
      "v": 63
    },
    {
      "midi": 61,
      "hit": false,
      "t": 124610.83333333394,
      "d": 75.00000000001455,
      "v": 71
    },
    {
      "midi": 33,
      "hit": false,
      "t": 124676.66666666728,
      "d": 399.1666666666715,
      "v": 69
    },
    {
      "midi": 57,
      "hit": false,
      "t": 124718.33333333395,
      "d": 87.5,
      "v": 69
    },
    {
      "midi": 61,
      "hit": false,
      "t": 124780.00000000063,
      "d": 67.5,
      "v": 70
    },
    {
      "midi": 57,
      "hit": false,
      "t": 124886.6666666673,
      "d": 91.66666666665697,
      "v": 63
    },
    {
      "midi": 61,
      "hit": false,
      "t": 124946.6666666673,
      "d": 74.16666666665697,
      "v": 78
    },
    {
      "midi": 42,
      "hit": false,
      "t": 124965.00000000063,
      "d": 381.66666666668607,
      "v": 99
    },
    {
      "midi": 57,
      "hit": false,
      "t": 125050.00000000063,
      "d": 87.5,
      "v": 61
    },
    {
      "midi": 61,
      "hit": false,
      "t": 125110.83333333395,
      "d": 65.83333333334303,
      "v": 71
    },
    {
      "midi": 57,
      "hit": false,
      "t": 125208.33333333397,
      "d": 88.33333333334303,
      "v": 60
    },
    {
      "midi": 61,
      "hit": false,
      "t": 125272.50000000064,
      "d": 67.5,
      "v": 75
    },
    {
      "midi": 57,
      "hit": false,
      "t": 125370.83333333398,
      "d": 91.66666666667152,
      "v": 57
    },
    {
      "midi": 61,
      "hit": false,
      "t": 125433.33333333398,
      "d": 73.33333333334303,
      "v": 74
    },
    {
      "midi": 33,
      "hit": false,
      "t": 125469.16666666733,
      "d": 374.9999999999709,
      "v": 70
    },
    {
      "midi": 57,
      "hit": false,
      "t": 125545.00000000065,
      "d": 86.66666666665697,
      "v": 55
    },
    {
      "midi": 61,
      "hit": false,
      "t": 125595.83333333398,
      "d": 79.16666666665697,
      "v": 77
    },
    {
      "midi": 57,
      "hit": false,
      "t": 125702.50000000064,
      "d": 95,
      "v": 65
    },
    {
      "midi": 43,
      "hit": false,
      "t": 125733.33333333397,
      "d": 421.6666666666715,
      "v": 78
    },
    {
      "midi": 61,
      "hit": false,
      "t": 125760.83333333397,
      "d": 80,
      "v": 75
    },
    {
      "midi": 57,
      "hit": false,
      "t": 125865.83333333397,
      "d": 98.33333333334303,
      "v": 66
    },
    {
      "midi": 61,
      "hit": false,
      "t": 125922.50000000064,
      "d": 70,
      "v": 70
    },
    {
      "midi": 57,
      "hit": false,
      "t": 126021.66666666731,
      "d": 98.33333333332848,
      "v": 67
    },
    {
      "midi": 61,
      "hit": false,
      "t": 126077.50000000064,
      "d": 73.33333333332848,
      "v": 77
    },
    {
      "midi": 57,
      "hit": false,
      "t": 126182.50000000064,
      "d": 88.33333333334303,
      "v": 62
    },
    {
      "midi": 61,
      "hit": false,
      "t": 126222.50000000064,
      "d": 85.83333333334303,
      "v": 77
    },
    {
      "midi": 33,
      "hit": false,
      "t": 126256.66666666731,
      "d": 370.8333333333285,
      "v": 73
    },
    {
      "midi": 57,
      "hit": false,
      "t": 126335.83333333398,
      "d": 70,
      "v": 56
    },
    {
      "midi": 61,
      "hit": false,
      "t": 126360.83333333398,
      "d": 81.66666666667152,
      "v": 77
    },
    {
      "midi": 57,
      "hit": false,
      "t": 126487.50000000065,
      "d": 79.16666666665697,
      "v": 69
    },
    {
      "midi": 42,
      "hit": false,
      "t": 126495.00000000065,
      "d": 175.83333333331393,
      "v": 99
    },
    {
      "midi": 61,
      "hit": false,
      "t": 126498.33333333398,
      "d": 96.66666666665697,
      "v": 89
    },
    {
      "midi": 61,
      "hit": false,
      "t": 126752.50000000064,
      "d": 171.66666666665697,
      "v": 99
    },
    {
      "midi": 57,
      "hit": false,
      "t": 126758.33333333397,
      "d": 88.33333333332848,
      "v": 86
    },
    {
      "midi": 57,
      "hit": false,
      "t": 126996.6666666673,
      "d": 128.33333333334303,
      "v": 86
    },
    {
      "midi": 33,
      "hit": false,
      "t": 127000.83333333397,
      "d": 174.16666666667152,
      "v": 75
    },
    {
      "midi": 40,
      "hit": false,
      "t": 127007.50000000064,
      "d": 245.83333333332848,
      "v": 78
    },
    {
      "midi": 38,
      "hit": false,
      "t": 127270.00000000064,
      "d": 267.5,
      "v": 83
    },
    {
      "midi": 57,
      "hit": false,
      "t": 127275.00000000064,
      "d": 92.5,
      "v": 89
    },
    {
      "midi": 60,
      "hit": false,
      "t": 127275.00000000064,
      "d": 111.66666666667152,
      "v": 92
    },
    {
      "midi": 45,
      "hit": false,
      "t": 127282.50000000064,
      "d": 512.5,
      "v": 78
    },
    {
      "midi": 60,
      "hit": false,
      "t": 127561.66666666731,
      "d": 81.66666666665697,
      "v": 105
    },
    {
      "midi": 57,
      "hit": false,
      "t": 127565.00000000064,
      "d": 68.33333333332848,
      "v": 95
    },
    {
      "midi": 38,
      "hit": false,
      "t": 127813.33333333397,
      "d": 482.5,
      "v": 92
    },
    {
      "midi": 60,
      "hit": false,
      "t": 128096.6666666673,
      "d": 100,
      "v": 89
    },
    {
      "midi": 57,
      "hit": false,
      "t": 128100.00000000063,
      "d": 90.83333333334303,
      "v": 79
    },
    {
      "midi": 47,
      "hit": false,
      "t": 128110.00000000063,
      "d": 536.6666666666861,
      "v": 95
    },
    {
      "midi": 60,
      "hit": false,
      "t": 128366.6666666673,
      "d": 75,
      "v": 102
    },
    {
      "midi": 57,
      "hit": false,
      "t": 128369.1666666673,
      "d": 64.16666666667152,
      "v": 89
    },
    {
      "midi": 38,
      "hit": false,
      "t": 128627.50000000064,
      "d": 440,
      "v": 99
    },
    {
      "midi": 48,
      "hit": false,
      "t": 128895.83333333398,
      "d": 465.8333333333285,
      "v": 95
    },
    {
      "midi": 60,
      "hit": false,
      "t": 129145.00000000064,
      "d": 148.33333333334303,
      "v": 89
    },
    {
      "midi": 57,
      "hit": false,
      "t": 129146.66666666731,
      "d": 99.16666666667152,
      "v": 89
    },
    {
      "midi": 38,
      "hit": false,
      "t": 129390.00000000064,
      "d": 450,
      "v": 86
    },
    {
      "midi": 57,
      "hit": false,
      "t": 129391.66666666731,
      "d": 131.66666666667152,
      "v": 77
    },
    {
      "midi": 66,
      "hit": false,
      "t": 129651.66666666731,
      "d": 224.16666666665697,
      "v": 89
    },
    {
      "midi": 57,
      "hit": false,
      "t": 129655.00000000064,
      "d": 120,
      "v": 89
    },
    {
      "midi": 69,
      "hit": false,
      "t": 129659.16666666731,
      "d": 171.66666666665697,
      "v": 79
    },
    {
      "midi": 60,
      "hit": false,
      "t": 129659.16666666731,
      "d": 173.33333333332848,
      "v": 86
    },
    {
      "midi": 47,
      "hit": false,
      "t": 129671.66666666731,
      "d": 500.8333333333285,
      "v": 95
    },
    {
      "midi": 57,
      "hit": false,
      "t": 129907.50000000064,
      "d": 155,
      "v": 77
    },
    {
      "midi": 64,
      "hit": false,
      "t": 130180.83333333397,
      "d": 174.16666666667152,
      "v": 79
    },
    {
      "midi": 57,
      "hit": false,
      "t": 130185.00000000064,
      "d": 96.66666666667152,
      "v": 74
    },
    {
      "midi": 60,
      "hit": false,
      "t": 130185.00000000064,
      "d": 130,
      "v": 78
    },
    {
      "midi": 37,
      "hit": false,
      "t": 130191.66666666731,
      "d": 175,
      "v": 95
    },
    {
      "midi": 44,
      "hit": false,
      "t": 130191.66666666731,
      "d": 205,
      "v": 99
    },
    {
      "midi": 47,
      "hit": false,
      "t": 130210.00000000064,
      "d": 185,
      "v": 39
    },
    {
      "midi": 66,
      "hit": false,
      "t": 130467.50000000064,
      "d": 166.66666666667152,
      "v": 86
    },
    {
      "midi": 38,
      "hit": false,
      "t": 130472.50000000064,
      "d": 244.16666666667152,
      "v": 86
    },
    {
      "midi": 45,
      "hit": false,
      "t": 130472.50000000064,
      "d": 480,
      "v": 89
    },
    {
      "midi": 60,
      "hit": false,
      "t": 130480.83333333397,
      "d": 145.00000000001455,
      "v": 75
    },
    {
      "midi": 57,
      "hit": false,
      "t": 130481.6666666673,
      "d": 130.00000000001455,
      "v": 89
    },
    {
      "midi": 64,
      "hit": false,
      "t": 130483.33333333397,
      "d": 132.50000000001455,
      "v": 67
    },
    {
      "midi": 69,
      "hit": false,
      "t": 130492.50000000064,
      "d": 124.16666666667152,
      "v": 78
    },
    {
      "midi": 66,
      "hit": false,
      "t": 130746.66666666731,
      "d": 143.33333333332848,
      "v": 78
    },
    {
      "midi": 60,
      "hit": false,
      "t": 130748.33333333398,
      "d": 117.5,
      "v": 78
    },
    {
      "midi": 64,
      "hit": false,
      "t": 130753.33333333398,
      "d": 117.5,
      "v": 78
    },
    {
      "midi": 57,
      "hit": false,
      "t": 130757.50000000065,
      "d": 87.5,
      "v": 92
    },
    {
      "midi": 69,
      "hit": false,
      "t": 130760.83333333398,
      "d": 110.83333333332848,
      "v": 71
    },
    {
      "midi": 38,
      "hit": false,
      "t": 131002.50000000064,
      "d": 532.5,
      "v": 102
    },
    {
      "midi": 66,
      "hit": false,
      "t": 131271.6666666673,
      "d": 139.16666666665697,
      "v": 75
    },
    {
      "midi": 60,
      "hit": false,
      "t": 131276.6666666673,
      "d": 135,
      "v": 79
    },
    {
      "midi": 64,
      "hit": false,
      "t": 131280.00000000064,
      "d": 112.5,
      "v": 74
    },
    {
      "midi": 57,
      "hit": false,
      "t": 131282.50000000064,
      "d": 98.33333333334303,
      "v": 75
    },
    {
      "midi": 69,
      "hit": false,
      "t": 131282.50000000064,
      "d": 119.16666666665697,
      "v": 75
    },
    {
      "midi": 47,
      "hit": false,
      "t": 131290.83333333398,
      "d": 490.0000000000291,
      "v": 92
    },
    {
      "midi": 64,
      "hit": false,
      "t": 131545.00000000064,
      "d": 117.5000000000291,
      "v": 63
    },
    {
      "midi": 66,
      "hit": false,
      "t": 131546.6666666673,
      "d": 135.83333333337214,
      "v": 78
    },
    {
      "midi": 57,
      "hit": false,
      "t": 131552.50000000064,
      "d": 89.16666666668607,
      "v": 92
    },
    {
      "midi": 60,
      "hit": false,
      "t": 131552.50000000064,
      "d": 97.5000000000291,
      "v": 79
    },
    {
      "midi": 69,
      "hit": false,
      "t": 131558.33333333398,
      "d": 107.5000000000291,
      "v": 73
    },
    {
      "midi": 38,
      "hit": false,
      "t": 131795.833333334,
      "d": 557.4999999999418,
      "v": 99
    },
    {
      "midi": 66,
      "hit": false,
      "t": 132067.50000000067,
      "d": 154.16666666662786,
      "v": 79
    },
    {
      "midi": 60,
      "hit": false,
      "t": 132071.66666666733,
      "d": 138.33333333331393,
      "v": 86
    },
    {
      "midi": 64,
      "hit": false,
      "t": 132072.50000000067,
      "d": 134.16666666665697,
      "v": 78
    },
    {
      "midi": 69,
      "hit": false,
      "t": 132075.00000000067,
      "d": 133.33333333331393,
      "v": 79
    },
    {
      "midi": 57,
      "hit": false,
      "t": 132079.16666666733,
      "d": 112.5,
      "v": 83
    },
    {
      "midi": 48,
      "hit": false,
      "t": 132086.66666666733,
      "d": 440.8333333332848,
      "v": 92
    },
    {
      "midi": 66,
      "hit": false,
      "t": 132335.83333333395,
      "d": 150,
      "v": 75
    },
    {
      "midi": 69,
      "hit": false,
      "t": 132338.33333333395,
      "d": 127.5,
      "v": 73
    },
    {
      "midi": 60,
      "hit": false,
      "t": 132342.5000000006,
      "d": 133.33333333334303,
      "v": 86
    },
    {
      "midi": 64,
      "hit": false,
      "t": 132342.5000000006,
      "d": 136.66666666668607,
      "v": 67
    },
    {
      "midi": 57,
      "hit": false,
      "t": 132345.83333333395,
      "d": 119.16666666665697,
      "v": 92
    },
    {
      "midi": 38,
      "hit": false,
      "t": 132589.16666666727,
      "d": 438.33333333331393,
      "v": 108
    },
    {
      "midi": 47,
      "hit": false,
      "t": 132860.83333333393,
      "d": 332.5,
      "v": 105
    },
    {
      "midi": 66,
      "hit": false,
      "t": 133075.83333333393,
      "d": 204.16666666665697,
      "v": 86
    },
    {
      "midi": 57,
      "hit": false,
      "t": 133081.66666666727,
      "d": 115.83333333331393,
      "v": 86
    },
    {
      "midi": 60,
      "hit": false,
      "t": 133081.66666666727,
      "d": 170.83333333331393,
      "v": 89
    },
    {
      "midi": 64,
      "hit": false,
      "t": 133083.33333333393,
      "d": 174.16666666665697,
      "v": 78
    },
    {
      "midi": 69,
      "hit": false,
      "t": 133090.83333333393,
      "d": 125,
      "v": 78
    },
    {
      "midi": 57,
      "hit": false,
      "t": 133355.00000000058,
      "d": 123.33333333331393,
      "v": 92
    },
    {
      "midi": 40,
      "hit": false,
      "t": 133361.66666666724,
      "d": 228.33333333331393,
      "v": 95
    },
    {
      "midi": 63,
      "hit": false,
      "t": 133611.6666666672,
      "d": 120,
      "v": 86
    },
    {
      "midi": 45,
      "hit": false,
      "t": 133621.6666666672,
      "d": 685.0000000000291,
      "v": 92
    },
    {
      "midi": 57,
      "hit": false,
      "t": 133625.00000000055,
      "d": 80,
      "v": 102
    },
    {
      "midi": 69,
      "hit": false,
      "t": 133628.3333333339,
      "d": 136.66666666665697,
      "v": 89
    },
    {
      "midi": 64,
      "hit": false,
      "t": 133628.3333333339,
      "d": 161.66666666665697,
      "v": 95
    },
    {
      "midi": 33,
      "hit": false,
      "t": 133635.8333333339,
      "d": 987.5,
      "v": 99
    },
    {
      "midi": 64,
      "hit": false,
      "t": 133883.3333333339,
      "d": 129.16666666668607,
      "v": 46
    },
    {
      "midi": 57,
      "hit": false,
      "t": 133891.66666666724,
      "d": 93.33333333334303,
      "v": 71
    },
    {
      "midi": 69,
      "hit": false,
      "t": 133895.00000000058,
      "d": 106.66666666665697,
      "v": 73
    },
    {
      "midi": 69,
      "hit": false,
      "t": 134143.33333333393,
      "d": 124.16666666665697,
      "v": 73
    },
    {
      "midi": 57,
      "hit": false,
      "t": 134147.50000000058,
      "d": 110,
      "v": 83
    },
    {
      "midi": 64,
      "hit": false,
      "t": 134150.00000000058,
      "d": 151.66666666665697,
      "v": 74
    },
    {
      "midi": 69,
      "hit": false,
      "t": 134405.8333333339,
      "d": 140,
      "v": 79
    },
    {
      "midi": 64,
      "hit": false,
      "t": 134413.3333333339,
      "d": 162.5,
      "v": 99
    },
    {
      "midi": 57,
      "hit": false,
      "t": 134415.8333333339,
      "d": 104.16666666665697,
      "v": 99
    },
    {
      "midi": 45,
      "hit": false,
      "t": 134420.8333333339,
      "d": 174.16666666665697,
      "v": 99
    },
    {
      "midi": 64,
      "hit": false,
      "t": 134655.8333333339,
      "d": 154.16666666665697,
      "v": 74
    },
    {
      "midi": 57,
      "hit": false,
      "t": 134658.3333333339,
      "d": 100,
      "v": 86
    },
    {
      "midi": 69,
      "hit": false,
      "t": 134660.8333333339,
      "d": 115,
      "v": 83
    },
    {
      "midi": 43,
      "hit": false,
      "t": 134922.50000000055,
      "d": 123.33333333334303,
      "v": 86
    },
    {
      "midi": 31,
      "hit": false,
      "t": 134925.8333333339,
      "d": 138.33333333331393,
      "v": 89
    },
    {
      "midi": 64,
      "hit": false,
      "t": 134928.3333333339,
      "d": 151.66666666665697,
      "v": 67
    },
    {
      "midi": 69,
      "hit": false,
      "t": 134930.00000000055,
      "d": 130,
      "v": 75
    },
    {
      "midi": 57,
      "hit": false,
      "t": 134936.6666666672,
      "d": 90.83333333334303,
      "v": 86
    },
    {
      "midi": 44,
      "hit": false,
      "t": 135195.8333333339,
      "d": 584.1666666666279,
      "v": 114
    },
    {
      "midi": 64,
      "hit": false,
      "t": 135200.8333333339,
      "d": 130.83333333331393,
      "v": 86
    },
    {
      "midi": 32,
      "hit": false,
      "t": 135203.3333333339,
      "d": 1202.499999999971,
      "v": 99
    },
    {
      "midi": 59,
      "hit": false,
      "t": 135205.00000000055,
      "d": 119.16666666665697,
      "v": 89
    },
    {
      "midi": 68,
      "hit": false,
      "t": 135212.50000000055,
      "d": 133.33333333331393,
      "v": 89
    },
    {
      "midi": 59,
      "hit": false,
      "t": 135470.00000000052,
      "d": 97.5,
      "v": 63
    },
    {
      "midi": 68,
      "hit": false,
      "t": 135477.50000000052,
      "d": 102.5,
      "v": 61
    },
    {
      "midi": 64,
      "hit": false,
      "t": 135487.50000000052,
      "d": 75.83333333334303,
      "v": 45
    },
    {
      "midi": 64,
      "hit": false,
      "t": 135735.00000000052,
      "d": 78.33333333334303,
      "v": 65
    },
    {
      "midi": 59,
      "hit": false,
      "t": 135737.50000000052,
      "d": 90,
      "v": 63
    },
    {
      "midi": 68,
      "hit": false,
      "t": 135741.66666666718,
      "d": 113.33333333334303,
      "v": 71
    },
    {
      "midi": 64,
      "hit": false,
      "t": 136016.66666666718,
      "d": 164.16666666668607,
      "v": 83
    },
    {
      "midi": 71,
      "hit": false,
      "t": 136020.00000000052,
      "d": 125.83333333334303,
      "v": 86
    },
    {
      "midi": 59,
      "hit": false,
      "t": 136025.00000000052,
      "d": 126.66666666668607,
      "v": 95
    },
    {
      "midi": 68,
      "hit": false,
      "t": 136025.00000000052,
      "d": 160.83333333334303,
      "v": 92
    },
    {
      "midi": 44,
      "hit": false,
      "t": 136032.50000000052,
      "d": 318.33333333334303,
      "v": 105
    },
    {
      "midi": 68,
      "hit": false,
      "t": 136277.50000000052,
      "d": 140.83333333334303,
      "v": 71
    },
    {
      "midi": 59,
      "hit": false,
      "t": 136283.33333333387,
      "d": 103.33333333334303,
      "v": 79
    },
    {
      "midi": 71,
      "hit": false,
      "t": 136287.50000000052,
      "d": 115.83333333334303,
      "v": 75
    },
    {
      "midi": 64,
      "hit": false,
      "t": 136290.83333333387,
      "d": 123.33333333334303,
      "v": 61
    },
    {
      "midi": 68,
      "hit": false,
      "t": 136548.33333333387,
      "d": 94.16666666665697,
      "v": 74
    },
    {
      "midi": 64,
      "hit": false,
      "t": 136555.83333333387,
      "d": 76.66666666665697,
      "v": 74
    },
    {
      "midi": 59,
      "hit": false,
      "t": 136561.6666666672,
      "d": 74.16666666665697,
      "v": 74
    },
    {
      "midi": 71,
      "hit": false,
      "t": 136565.83333333387,
      "d": 62.5,
      "v": 60
    },
    {
      "midi": 37,
      "hit": false,
      "t": 136566.6666666672,
      "d": 216.66666666665697,
      "v": 89
    },
    {
      "midi": 64,
      "hit": false,
      "t": 136820.83333333387,
      "d": 145.83333333331393,
      "v": 77
    },
    {
      "midi": 30,
      "hit": false,
      "t": 136823.33333333387,
      "d": 104.9999999999709,
      "v": 89
    },
    {
      "midi": 42,
      "hit": false,
      "t": 136827.50000000052,
      "d": 1107.499999999971,
      "v": 105
    },
    {
      "midi": 69,
      "hit": false,
      "t": 136830.83333333387,
      "d": 110.83333333331393,
      "v": 83
    },
    {
      "midi": 57,
      "hit": false,
      "t": 136835.00000000052,
      "d": 81.66666666665697,
      "v": 89
    },
    {
      "midi": 61,
      "hit": false,
      "t": 136840.00000000052,
      "d": 108.33333333331393,
      "v": 74
    },
    {
      "midi": 66,
      "hit": false,
      "t": 136841.66666666718,
      "d": 124.16666666665697,
      "v": 71
    },
    {
      "midi": 61,
      "hit": false,
      "t": 137080.83333333384,
      "d": 120.83333333331393,
      "v": 55
    },
    {
      "midi": 64,
      "hit": false,
      "t": 137087.5000000005,
      "d": 120,
      "v": 49
    },
    {
      "midi": 57,
      "hit": false,
      "t": 137090.83333333384,
      "d": 102.4999999999709,
      "v": 70
    },
    {
      "midi": 66,
      "hit": false,
      "t": 137095.0000000005,
      "d": 127.5,
      "v": 67
    },
    {
      "midi": 69,
      "hit": false,
      "t": 137100.0000000005,
      "d": 100.83333333331393,
      "v": 56
    },
    {
      "midi": 66,
      "hit": false,
      "t": 137365.83333333384,
      "d": 155,
      "v": 63
    },
    {
      "midi": 57,
      "hit": false,
      "t": 137368.33333333384,
      "d": 107.5,
      "v": 67
    },
    {
      "midi": 61,
      "hit": false,
      "t": 137375.83333333384,
      "d": 120,
      "v": 71
    },
    {
      "midi": 64,
      "hit": false,
      "t": 137375.83333333384,
      "d": 125,
      "v": 59
    },
    {
      "midi": 69,
      "hit": false,
      "t": 137385.83333333384,
      "d": 95,
      "v": 71
    },
    {
      "midi": 64,
      "hit": false,
      "t": 137647.5000000005,
      "d": 133.33333333334303,
      "v": 71
    },
    {
      "midi": 61,
      "hit": false,
      "t": 137652.5000000005,
      "d": 134.16666666668607,
      "v": 92
    },
    {
      "midi": 57,
      "hit": false,
      "t": 137655.83333333384,
      "d": 105,
      "v": 102
    },
    {
      "midi": 66,
      "hit": false,
      "t": 137661.66666666718,
      "d": 135,
      "v": 78
    },
    {
      "midi": 69,
      "hit": false,
      "t": 137666.66666666718,
      "d": 100,
      "v": 86
    },
    {
      "midi": 61,
      "hit": false,
      "t": 137901.66666666718,
      "d": 139.16666666665697,
      "v": 75
    },
    {
      "midi": 57,
      "hit": false,
      "t": 137905.83333333384,
      "d": 111.66666666665697,
      "v": 79
    },
    {
      "midi": 66,
      "hit": false,
      "t": 137910.0000000005,
      "d": 132.5,
      "v": 70
    },
    {
      "midi": 69,
      "hit": false,
      "t": 137915.0000000005,
      "d": 98.33333333334303,
      "v": 71
    },
    {
      "midi": 64,
      "hit": false,
      "t": 137918.33333333384,
      "d": 129.16666666665697,
      "v": 69
    },
    {
      "midi": 49,
      "hit": false,
      "t": 137930.83333333384,
      "d": 194.16666666665697,
      "v": 108
    },
    {
      "midi": 61,
      "hit": false,
      "t": 138180.83333333384,
      "d": 136.66666666668607,
      "v": 75
    },
    {
      "midi": 66,
      "hit": false,
      "t": 138185.83333333384,
      "d": 135.0000000000291,
      "v": 71
    },
    {
      "midi": 64,
      "hit": false,
      "t": 138188.33333333384,
      "d": 121.66666666668607,
      "v": 71
    },
    {
      "midi": 57,
      "hit": false,
      "t": 138193.33333333384,
      "d": 102.5000000000291,
      "v": 78
    },
    {
      "midi": 69,
      "hit": false,
      "t": 138195.83333333384,
      "d": 91.66666666668607,
      "v": 71
    },
    {
      "midi": 42,
      "hit": false,
      "t": 138201.66666666718,
      "d": 200.83333333334303,
      "v": 89
    },
    {
      "midi": 49,
      "hit": false,
      "t": 138455.00000000052,
      "d": 932.5,
      "v": 95
    },
    {
      "midi": 40,
      "hit": false,
      "t": 138461.66666666718,
      "d": 953.333333333343,
      "v": 89
    },
    {
      "midi": 66,
      "hit": false,
      "t": 138465.00000000052,
      "d": 156.66666666668607,
      "v": 78
    },
    {
      "midi": 61,
      "hit": false,
      "t": 138470.83333333387,
      "d": 126.66666666668607,
      "v": 78
    },
    {
      "midi": 64,
      "hit": false,
      "t": 138470.83333333387,
      "d": 155,
      "v": 63
    },
    {
      "midi": 57,
      "hit": false,
      "t": 138478.33333333387,
      "d": 113.33333333334303,
      "v": 95
    },
    {
      "midi": 69,
      "hit": false,
      "t": 138478.33333333387,
      "d": 115.83333333334303,
      "v": 73
    },
    {
      "midi": 61,
      "hit": false,
      "t": 138726.66666666718,
      "d": 110.83333333334303,
      "v": 77
    },
    {
      "midi": 64,
      "hit": false,
      "t": 138729.16666666718,
      "d": 115,
      "v": 56
    },
    {
      "midi": 66,
      "hit": false,
      "t": 138735.00000000052,
      "d": 112.5,
      "v": 71
    },
    {
      "midi": 57,
      "hit": false,
      "t": 138736.66666666718,
      "d": 78.33333333334303,
      "v": 74
    },
    {
      "midi": 69,
      "hit": false,
      "t": 138741.66666666718,
      "d": 83.33333333334303,
      "v": 57
    },
    {
      "midi": 61,
      "hit": false,
      "t": 138980.83333333387,
      "d": 109.16666666665697,
      "v": 59
    },
    {
      "midi": 66,
      "hit": false,
      "t": 138983.33333333387,
      "d": 119.16666666665697,
      "v": 60
    },
    {
      "midi": 57,
      "hit": false,
      "t": 138988.33333333387,
      "d": 89.16666666665697,
      "v": 74
    },
    {
      "midi": 64,
      "hit": false,
      "t": 138992.50000000052,
      "d": 105.83333333334303,
      "v": 65
    },
    {
      "midi": 69,
      "hit": false,
      "t": 138997.50000000052,
      "d": 85,
      "v": 65
    },
    {
      "midi": 69,
      "hit": false,
      "t": 139247.50000000052,
      "d": 125,
      "v": 75
    },
    {
      "midi": 61,
      "hit": false,
      "t": 139252.50000000052,
      "d": 130,
      "v": 89
    },
    {
      "midi": 66,
      "hit": false,
      "t": 139255.83333333387,
      "d": 123.33333333331393,
      "v": 74
    },
    {
      "midi": 64,
      "hit": false,
      "t": 139261.6666666672,
      "d": 129.16666666665697,
      "v": 73
    },
    {
      "midi": 57,
      "hit": false,
      "t": 139263.33333333387,
      "d": 85,
      "v": 99
    },
    {
      "midi": 64,
      "hit": false,
      "t": 139497.50000000052,
      "d": 143.33333333331393,
      "v": 54
    },
    {
      "midi": 61,
      "hit": false,
      "t": 139505.83333333387,
      "d": 137.4999999999709,
      "v": 71
    },
    {
      "midi": 69,
      "hit": false,
      "t": 139510.00000000052,
      "d": 108.33333333331393,
      "v": 70
    },
    {
      "midi": 57,
      "hit": false,
      "t": 139513.33333333387,
      "d": 93.33333333331393,
      "v": 79
    },
    {
      "midi": 66,
      "hit": false,
      "t": 139517.50000000052,
      "d": 128.33333333331393,
      "v": 71
    },
    {
      "midi": 49,
      "hit": false,
      "t": 139771.66666666718,
      "d": 85.83333333334303,
      "v": 78
    },
    {
      "midi": 61,
      "hit": false,
      "t": 139775.00000000052,
      "d": 110,
      "v": 75
    },
    {
      "midi": 66,
      "hit": false,
      "t": 139781.66666666718,
      "d": 143.33333333334303,
      "v": 67
    },
    {
      "midi": 40,
      "hit": false,
      "t": 139784.16666666718,
      "d": 83.33333333334303,
      "v": 75
    },
    {
      "midi": 69,
      "hit": false,
      "t": 139790.00000000052,
      "d": 120.83333333334303,
      "v": 77
    },
    {
      "midi": 57,
      "hit": false,
      "t": 139790.83333333387,
      "d": 89.16666666665697,
      "v": 86
    },
    {
      "midi": 64,
      "hit": false,
      "t": 139800.00000000052,
      "d": 93.33333333334303,
      "v": 73
    },
    {
      "midi": 47,
      "hit": false,
      "t": 140046.6666666672,
      "d": 346.66666666665697,
      "v": 79
    },
    {
      "midi": 66,
      "hit": false,
      "t": 140051.6666666672,
      "d": 161.66666666665697,
      "v": 92
    },
    {
      "midi": 69,
      "hit": false,
      "t": 140054.1666666672,
      "d": 135.83333333331393,
      "v": 79
    },
    {
      "midi": 57,
      "hit": false,
      "t": 140060.83333333387,
      "d": 96.66666666665697,
      "v": 105
    },
    {
      "midi": 63,
      "hit": false,
      "t": 140060.83333333387,
      "d": 135,
      "v": 92
    },
    {
      "midi": 35,
      "hit": false,
      "t": 140067.50000000052,
      "d": 314.16666666668607,
      "v": 78
    },
    {
      "midi": 66,
      "hit": false,
      "t": 140309.1666666672,
      "d": 106.66666666662786,
      "v": 69
    },
    {
      "midi": 57,
      "hit": false,
      "t": 140312.50000000055,
      "d": 82.4999999999709,
      "v": 75
    },
    {
      "midi": 63,
      "hit": false,
      "t": 140312.50000000055,
      "d": 100.83333333328483,
      "v": 71
    },
    {
      "midi": 69,
      "hit": false,
      "t": 140321.6666666672,
      "d": 89.9999999999709,
      "v": 75
    },
    {
      "midi": 35,
      "hit": false,
      "t": 140566.66666666718,
      "d": 244.9999999999709,
      "v": 92
    },
    {
      "midi": 63,
      "hit": false,
      "t": 140569.16666666718,
      "d": 124.16666666665697,
      "v": 71
    },
    {
      "midi": 47,
      "hit": false,
      "t": 140571.66666666718,
      "d": 179.9999999999709,
      "v": 99
    },
    {
      "midi": 66,
      "hit": false,
      "t": 140573.33333333384,
      "d": 121.66666666665697,
      "v": 67
    },
    {
      "midi": 57,
      "hit": false,
      "t": 140578.33333333384,
      "d": 87.5,
      "v": 71
    },
    {
      "midi": 69,
      "hit": false,
      "t": 140578.33333333384,
      "d": 111.66666666665697,
      "v": 67
    },
    {
      "midi": 66,
      "hit": false,
      "t": 140852.5000000005,
      "d": 147.4999999999709,
      "v": 79
    },
    {
      "midi": 63,
      "hit": false,
      "t": 140855.83333333384,
      "d": 144.9999999999709,
      "v": 79
    },
    {
      "midi": 57,
      "hit": false,
      "t": 140858.33333333384,
      "d": 137.4999999999709,
      "v": 89
    },
    {
      "midi": 47,
      "hit": false,
      "t": 140863.33333333384,
      "d": 258.33333333331393,
      "v": 102
    },
    {
      "midi": 37,
      "hit": false,
      "t": 140863.33333333384,
      "d": 309.16666666665697,
      "v": 111
    },
    {
      "midi": 69,
      "hit": false,
      "t": 140868.33333333384,
      "d": 125.83333333331393,
      "v": 77
    },
    {
      "midi": 66,
      "hit": false,
      "t": 141111.66666666715,
      "d": 111.66666666668607,
      "v": 70
    },
    {
      "midi": 63,
      "hit": false,
      "t": 141114.16666666715,
      "d": 111.66666666668607,
      "v": 74
    },
    {
      "midi": 57,
      "hit": false,
      "t": 141115.8333333338,
      "d": 94.16666666668607,
      "v": 79
    },
    {
      "midi": 69,
      "hit": false,
      "t": 141121.66666666715,
      "d": 105.83333333334303,
      "v": 77
    },
    {
      "midi": 66,
      "hit": false,
      "t": 141370.83333333384,
      "d": 125,
      "v": 75
    },
    {
      "midi": 63,
      "hit": false,
      "t": 141375.0000000005,
      "d": 117.5,
      "v": 78
    },
    {
      "midi": 57,
      "hit": false,
      "t": 141377.5000000005,
      "d": 94.16666666665697,
      "v": 79
    },
    {
      "midi": 37,
      "hit": false,
      "t": 141380.0000000005,
      "d": 173.33333333337214,
      "v": 95
    },
    {
      "midi": 69,
      "hit": false,
      "t": 141386.66666666715,
      "d": 105.83333333334303,
      "v": 75
    },
    {
      "midi": 47,
      "hit": false,
      "t": 141387.5000000005,
      "d": 152.5000000000291,
      "v": 92
    },
    {
      "midi": 38,
      "hit": false,
      "t": 141641.6666666672,
      "d": 245.0000000000291,
      "v": 95
    },
    {
      "midi": 63,
      "hit": false,
      "t": 141645.00000000055,
      "d": 130.83333333334303,
      "v": 99
    },
    {
      "midi": 66,
      "hit": false,
      "t": 141650.00000000055,
      "d": 124.16666666668607,
      "v": 92
    },
    {
      "midi": 47,
      "hit": false,
      "t": 141650.00000000055,
      "d": 245.83333333334303,
      "v": 99
    },
    {
      "midi": 69,
      "hit": false,
      "t": 141656.6666666672,
      "d": 111.66666666668607,
      "v": 83
    },
    {
      "midi": 57,
      "hit": false,
      "t": 141660.00000000055,
      "d": 93.33333333334303,
      "v": 102
    },
    {
      "midi": 63,
      "hit": false,
      "t": 141897.50000000055,
      "d": 115.0000000000291,
      "v": 77
    },
    {
      "midi": 66,
      "hit": false,
      "t": 141900.8333333339,
      "d": 114.16666666668607,
      "v": 75
    },
    {
      "midi": 57,
      "hit": false,
      "t": 141905.8333333339,
      "d": 90,
      "v": 73
    },
    {
      "midi": 69,
      "hit": false,
      "t": 141910.00000000055,
      "d": 101.66666666668607,
      "v": 78
    },
    {
      "midi": 63,
      "hit": false,
      "t": 142156.66666666724,
      "d": 138.33333333331393,
      "v": 86
    },
    {
      "midi": 66,
      "hit": false,
      "t": 142158.3333333339,
      "d": 133.33333333331393,
      "v": 79
    },
    {
      "midi": 57,
      "hit": false,
      "t": 142163.3333333339,
      "d": 103.33333333334303,
      "v": 86
    },
    {
      "midi": 69,
      "hit": false,
      "t": 142167.50000000055,
      "d": 118.33333333334303,
      "v": 79
    },
    {
      "midi": 38,
      "hit": false,
      "t": 142170.00000000055,
      "d": 154.16666666665697,
      "v": 86
    },
    {
      "midi": 47,
      "hit": false,
      "t": 142175.8333333339,
      "d": 114.16666666665697,
      "v": 89
    },
    {
      "midi": 63,
      "hit": false,
      "t": 142426.6666666672,
      "d": 139.9999999999709,
      "v": 92
    },
    {
      "midi": 66,
      "hit": false,
      "t": 142428.33333333387,
      "d": 139.9999999999709,
      "v": 89
    },
    {
      "midi": 69,
      "hit": false,
      "t": 142433.33333333387,
      "d": 126.66666666665697,
      "v": 78
    },
    {
      "midi": 57,
      "hit": false,
      "t": 142437.50000000052,
      "d": 97.5,
      "v": 95
    },
    {
      "midi": 39,
      "hit": false,
      "t": 142462.50000000052,
      "d": 247.4999999999709,
      "v": 99
    },
    {
      "midi": 27,
      "hit": false,
      "t": 142472.50000000052,
      "d": 45.833333333343035,
      "v": 86
    },
    {
      "midi": 63,
      "hit": false,
      "t": 142692.5000000005,
      "d": 123.33333333334303,
      "v": 79
    },
    {
      "midi": 66,
      "hit": false,
      "t": 142695.0000000005,
      "d": 125,
      "v": 78
    },
    {
      "midi": 69,
      "hit": false,
      "t": 142698.33333333384,
      "d": 113.33333333334303,
      "v": 75
    },
    {
      "midi": 57,
      "hit": false,
      "t": 142702.5000000005,
      "d": 73.33333333334303,
      "v": 86
    },
    {
      "midi": 63,
      "hit": false,
      "t": 142950.83333333384,
      "d": 85.83333333331393,
      "v": 92
    },
    {
      "midi": 39,
      "hit": false,
      "t": 142955.83333333384,
      "d": 120.83333333334303,
      "v": 108
    },
    {
      "midi": 66,
      "hit": false,
      "t": 142960.0000000005,
      "d": 85.83333333334303,
      "v": 78
    },
    {
      "midi": 27,
      "hit": false,
      "t": 142960.83333333384,
      "d": 93.33333333334303,
      "v": 86
    },
    {
      "midi": 69,
      "hit": false,
      "t": 142967.5000000005,
      "d": 72.5,
      "v": 77
    },
    {
      "midi": 57,
      "hit": false,
      "t": 142971.66666666715,
      "d": 50,
      "v": 89
    },
    {
      "midi": 40,
      "hit": false,
      "t": 143218.33333333387,
      "d": 281.66666666665697,
      "v": 108
    },
    {
      "midi": 64,
      "hit": false,
      "t": 143220.83333333387,
      "d": 174.16666666668607,
      "v": 74
    },
    {
      "midi": 28,
      "hit": false,
      "t": 143225.83333333387,
      "d": 296.66666666665697,
      "v": 105
    },
    {
      "midi": 68,
      "hit": false,
      "t": 143231.6666666672,
      "d": 118.33333333334303,
      "v": 95
    },
    {
      "midi": 62,
      "hit": false,
      "t": 143235.83333333387,
      "d": 155.0000000000291,
      "v": 73
    },
    {
      "midi": 56,
      "hit": false,
      "t": 143241.6666666672,
      "d": 105.83333333334303,
      "v": 99
    },
    {
      "midi": 64,
      "hit": false,
      "t": 143484.1666666672,
      "d": 137.4999999999709,
      "v": 54
    },
    {
      "midi": 62,
      "hit": false,
      "t": 143490.83333333387,
      "d": 126.66666666665697,
      "v": 56
    },
    {
      "midi": 56,
      "hit": false,
      "t": 143493.33333333387,
      "d": 76.66666666665697,
      "v": 74
    },
    {
      "midi": 68,
      "hit": false,
      "t": 143500.00000000052,
      "d": 93.33333333334303,
      "v": 79
    },
    {
      "midi": 28,
      "hit": false,
      "t": 143760.83333333384,
      "d": 81.66666666665697,
      "v": 99
    },
    {
      "midi": 64,
      "hit": false,
      "t": 143766.66666666718,
      "d": 139.9999999999709,
      "v": 69
    },
    {
      "midi": 40,
      "hit": false,
      "t": 143769.16666666718,
      "d": 79.16666666665697,
      "v": 95
    },
    {
      "midi": 56,
      "hit": false,
      "t": 143773.33333333384,
      "d": 72.5,
      "v": 92
    },
    {
      "midi": 68,
      "hit": false,
      "t": 143778.33333333384,
      "d": 105,
      "v": 89
    },
    {
      "midi": 62,
      "hit": false,
      "t": 143778.33333333384,
      "d": 119.16666666665697,
      "v": 71
    },
    {
      "midi": 57,
      "hit": false,
      "t": 144027.5000000005,
      "d": 100.83333333334303,
      "v": 95
    },
    {
      "midi": 62,
      "hit": false,
      "t": 144030.83333333384,
      "d": 135.83333333334303,
      "v": 73
    },
    {
      "midi": 69,
      "hit": false,
      "t": 144035.0000000005,
      "d": 117.5,
      "v": 83
    },
    {
      "midi": 64,
      "hit": false,
      "t": 144036.66666666715,
      "d": 124.16666666668607,
      "v": 83
    },
    {
      "midi": 30,
      "hit": false,
      "t": 144045.0000000005,
      "d": 175.83333333334303,
      "v": 95
    },
    {
      "midi": 42,
      "hit": false,
      "t": 144045.0000000005,
      "d": 202.5,
      "v": 108
    },
    {
      "midi": 69,
      "hit": false,
      "t": 144271.66666666715,
      "d": 133.33333333331393,
      "v": 70
    },
    {
      "midi": 57,
      "hit": false,
      "t": 144276.66666666715,
      "d": 103.33333333331393,
      "v": 77
    },
    {
      "midi": 64,
      "hit": false,
      "t": 144281.66666666715,
      "d": 130,
      "v": 61
    },
    {
      "midi": 62,
      "hit": false,
      "t": 144285.8333333338,
      "d": 122.5,
      "v": 69
    },
    {
      "midi": 30,
      "hit": false,
      "t": 144535.8333333338,
      "d": 99.16666666665697,
      "v": 77
    },
    {
      "midi": 42,
      "hit": false,
      "t": 144540.8333333338,
      "d": 109.16666666665697,
      "v": 95
    },
    {
      "midi": 69,
      "hit": false,
      "t": 144545.00000000047,
      "d": 118.33333333334303,
      "v": 71
    },
    {
      "midi": 64,
      "hit": false,
      "t": 144547.50000000047,
      "d": 145.83333333334303,
      "v": 78
    },
    {
      "midi": 62,
      "hit": false,
      "t": 144553.3333333338,
      "d": 139.16666666665697,
      "v": 62
    },
    {
      "midi": 57,
      "hit": false,
      "t": 144555.8333333338,
      "d": 80,
      "v": 79
    },
    {
      "midi": 62,
      "hit": false,
      "t": 144804.16666666715,
      "d": 138.33333333334303,
      "v": 61
    },
    {
      "midi": 43,
      "hit": false,
      "t": 144808.3333333338,
      "d": 121.66666666665697,
      "v": 102
    },
    {
      "midi": 58,
      "hit": false,
      "t": 144811.66666666715,
      "d": 94.16666666665697,
      "v": 95
    },
    {
      "midi": 31,
      "hit": false,
      "t": 144815.8333333338,
      "d": 120.83333333334303,
      "v": 99
    },
    {
      "midi": 64,
      "hit": false,
      "t": 144823.3333333338,
      "d": 104.16666666665697,
      "v": 59
    },
    {
      "midi": 70,
      "hit": false,
      "t": 144823.3333333338,
      "d": 107.5,
      "v": 89
    },
    {
      "midi": 58,
      "hit": false,
      "t": 145050.83333333384,
      "d": 89.16666666665697,
      "v": 79
    },
    {
      "midi": 70,
      "hit": false,
      "t": 145055.0000000005,
      "d": 116.66666666665697,
      "v": 74
    },
    {
      "midi": 62,
      "hit": false,
      "t": 145058.33333333384,
      "d": 121.66666666665697,
      "v": 66
    },
    {
      "midi": 64,
      "hit": false,
      "t": 145063.33333333384,
      "d": 114.16666666665697,
      "v": 56
    },
    {
      "midi": 58,
      "hit": false,
      "t": 145316.66666666715,
      "d": 100.83333333331393,
      "v": 71
    },
    {
      "midi": 70,
      "hit": false,
      "t": 145318.3333333338,
      "d": 143.33333333334303,
      "v": 67
    },
    {
      "midi": 62,
      "hit": false,
      "t": 145322.50000000047,
      "d": 121.66666666668607,
      "v": 52
    },
    {
      "midi": 64,
      "hit": false,
      "t": 145327.50000000047,
      "d": 137.5000000000291,
      "v": 49
    },
    {
      "midi": 43,
      "hit": false,
      "t": 145335.00000000047,
      "d": 93.33333333334303,
      "v": 89
    },
    {
      "midi": 31,
      "hit": false,
      "t": 145341.66666666712,
      "d": 90.0000000000291,
      "v": 89
    },
    {
      "midi": 62,
      "hit": false,
      "t": 145572.5000000005,
      "d": 113.33333333334303,
      "v": 73
    },
    {
      "midi": 71,
      "hit": false,
      "t": 145580.83333333384,
      "d": 83.33333333334303,
      "v": 86
    },
    {
      "midi": 59,
      "hit": false,
      "t": 145583.33333333384,
      "d": 74.16666666668607,
      "v": 102
    },
    {
      "midi": 44,
      "hit": false,
      "t": 145594.16666666718,
      "d": 85.83333333331393,
      "v": 114
    },
    {
      "midi": 32,
      "hit": false,
      "t": 145597.50000000052,
      "d": 75.83333333331393,
      "v": 111
    },
    {
      "midi": 44,
      "hit": false,
      "t": 145840.0000000005,
      "d": 65.83333333334303,
      "v": 108
    },
    {
      "midi": 32,
      "hit": false,
      "t": 145843.33333333384,
      "d": 83.33333333334303,
      "v": 99
    },
    {
      "midi": 47,
      "hit": false,
      "t": 145978.33333333384,
      "d": 46.66666666668607,
      "v": 60
    },
    {
      "midi": 48,
      "hit": false,
      "t": 146001.66666666718,
      "d": 68.33333333334303,
      "v": 78
    },
    {
      "midi": 50,
      "hit": false,
      "t": 146026.66666666718,
      "d": 65.0000000000291,
      "v": 67
    },
    {
      "midi": 52,
      "hit": false,
      "t": 146051.66666666718,
      "d": 60.833333333343035,
      "v": 77
    },
    {
      "midi": 39,
      "hit": false,
      "t": 146077.50000000052,
      "d": 154.16666666662786,
      "v": 86
    },
    {
      "midi": 53,
      "hit": false,
      "t": 146082.50000000052,
      "d": 59.166666666656965,
      "v": 75
    },
    {
      "midi": 32,
      "hit": false,
      "t": 146085.83333333387,
      "d": 124.99999999994179,
      "v": 77
    },
    {
      "midi": 55,
      "hit": false,
      "t": 146105.83333333387,
      "d": 59.999999999970896,
      "v": 75
    },
    {
      "midi": 57,
      "hit": false,
      "t": 146130.00000000052,
      "d": 61.66666666662786,
      "v": 78
    },
    {
      "midi": 59,
      "hit": false,
      "t": 146155.83333333384,
      "d": 60.83333333331393,
      "v": 77
    },
    {
      "midi": 60,
      "hit": false,
      "t": 146180.0000000005,
      "d": 62.5,
      "v": 78
    },
    {
      "midi": 62,
      "hit": false,
      "t": 146206.66666666715,
      "d": 61.66666666668607,
      "v": 74
    },
    {
      "midi": 64,
      "hit": false,
      "t": 146235.0000000005,
      "d": 57.5,
      "v": 74
    },
    {
      "midi": 65,
      "hit": false,
      "t": 146257.5000000005,
      "d": 58.333333333343035,
      "v": 77
    },
    {
      "midi": 67,
      "hit": false,
      "t": 146283.33333333384,
      "d": 54.166666666656965,
      "v": 78
    },
    {
      "midi": 69,
      "hit": false,
      "t": 146311.66666666718,
      "d": 51.66666666662786,
      "v": 78
    },
    {
      "midi": 71,
      "hit": false,
      "t": 146330.83333333384,
      "d": 54.16666666662786,
      "v": 83
    },
    {
      "midi": 72,
      "hit": false,
      "t": 146356.66666666715,
      "d": 39.166666666656965,
      "v": 78
    },
    {
      "midi": 40,
      "hit": false,
      "t": 146361.66666666715,
      "d": 593.3333333332848,
      "v": 99
    },
    {
      "midi": 33,
      "hit": false,
      "t": 146367.50000000047,
      "d": 194.16666666665697,
      "v": 102
    },
    {
      "midi": 74,
      "hit": false,
      "t": 146377.50000000047,
      "d": 47.5,
      "v": 74
    },
    {
      "midi": 76,
      "hit": false,
      "t": 146400.00000000047,
      "d": 56.666666666656965,
      "v": 75
    },
    {
      "midi": 77,
      "hit": false,
      "t": 146420.00000000047,
      "d": 36.666666666656965,
      "v": 73
    },
    {
      "midi": 78,
      "hit": false,
      "t": 146442.50000000047,
      "d": 36.666666666656965,
      "v": 73
    },
    {
      "midi": 79,
      "hit": false,
      "t": 146460.83333333378,
      "d": 36.66666666668607,
      "v": 88
    },
    {
      "midi": 76,
      "hit": false,
      "t": 146621.66666666712,
      "d": 60.83333333331393,
      "v": 95
    },
    {
      "midi": 81,
      "hit": false,
      "t": 146625.83333333378,
      "d": 64.16666666665697,
      "v": 89
    },
    {
      "midi": 81,
      "hit": false,
      "t": 146868.33333333378,
      "d": 65,
      "v": 95
    },
    {
      "midi": 76,
      "hit": false,
      "t": 146872.50000000044,
      "d": 47.5,
      "v": 79
    },
    {
      "midi": 33,
      "hit": false,
      "t": 146885.00000000044,
      "d": 450.83333333334303,
      "v": 83
    },
    {
      "midi": 76,
      "hit": false,
      "t": 147120.00000000044,
      "d": 80,
      "v": 111
    },
    {
      "midi": 81,
      "hit": false,
      "t": 147125.00000000044,
      "d": 85.83333333334303,
      "v": 105
    },
    {
      "midi": 42,
      "hit": false,
      "t": 147140.83333333378,
      "d": 385,
      "v": 105
    },
    {
      "midi": 76,
      "hit": false,
      "t": 147385.83333333378,
      "d": 65,
      "v": 92
    },
    {
      "midi": 81,
      "hit": false,
      "t": 147390.83333333378,
      "d": 67.5,
      "v": 89
    },
    {
      "midi": 33,
      "hit": false,
      "t": 147635.00000000044,
      "d": 424.9999999999709,
      "v": 79
    },
    {
      "midi": 76,
      "hit": false,
      "t": 147637.50000000044,
      "d": 63.33333333331393,
      "v": 99
    },
    {
      "midi": 81,
      "hit": false,
      "t": 147641.6666666671,
      "d": 75.83333333331393,
      "v": 99
    },
    {
      "midi": 76,
      "hit": false,
      "t": 147883.33333333375,
      "d": 162.5,
      "v": 117
    },
    {
      "midi": 81,
      "hit": false,
      "t": 147885.83333333375,
      "d": 121.66666666665697,
      "v": 105
    },
    {
      "midi": 43,
      "hit": false,
      "t": 147898.33333333375,
      "d": 170,
      "v": 73
    },
    {
      "midi": 75,
      "hit": false,
      "t": 148125.83333333375,
      "d": 87.5,
      "v": 75
    },
    {
      "midi": 81,
      "hit": false,
      "t": 148142.5000000004,
      "d": 87.5,
      "v": 65
    },
    {
      "midi": 74,
      "hit": false,
      "t": 148373.33333333375,
      "d": 64.16666666665697,
      "v": 102
    },
    {
      "midi": 33,
      "hit": false,
      "t": 148378.33333333375,
      "d": 163.33333333331393,
      "v": 74
    },
    {
      "midi": 81,
      "hit": false,
      "t": 148381.6666666671,
      "d": 88.33333333331393,
      "v": 92
    },
    {
      "midi": 40,
      "hit": false,
      "t": 148383.33333333375,
      "d": 291.66666666665697,
      "v": 79
    },
    {
      "midi": 72,
      "hit": false,
      "t": 148635.0000000004,
      "d": 75,
      "v": 119
    },
    {
      "midi": 81,
      "hit": false,
      "t": 148638.33333333375,
      "d": 111.66666666665697,
      "v": 102
    },
    {
      "midi": 33,
      "hit": false,
      "t": 148642.5000000004,
      "d": 197.5,
      "v": 69
    },
    {
      "midi": 42,
      "hit": false,
      "t": 148653.33333333375,
      "d": 200,
      "v": 95
    },
    {
      "midi": 73,
      "hit": false,
      "t": 148880.83333333375,
      "d": 90.83333333331393,
      "v": 92
    },
    {
      "midi": 81,
      "hit": false,
      "t": 148882.5000000004,
      "d": 102.5,
      "v": 86
    },
    {
      "midi": 32,
      "hit": false,
      "t": 149129.16666666706,
      "d": 172.5,
      "v": 92
    },
    {
      "midi": 39,
      "hit": false,
      "t": 149132.5000000004,
      "d": 202.5,
      "v": 92
    },
    {
      "midi": 76,
      "hit": false,
      "t": 149136.66666666706,
      "d": 113.33333333334303,
      "v": 79
    },
    {
      "midi": 81,
      "hit": false,
      "t": 149156.66666666706,
      "d": 85,
      "v": 65
    },
    {
      "midi": 75,
      "hit": false,
      "t": 149380.83333333375,
      "d": 105,
      "v": 105
    },
    {
      "midi": 81,
      "hit": false,
      "t": 149395.0000000004,
      "d": 116.66666666668607,
      "v": 83
    },
    {
      "midi": 76,
      "hit": false,
      "t": 149398.33333333375,
      "d": 129.16666666665697,
      "v": 79
    },
    {
      "midi": 40,
      "hit": false,
      "t": 149403.33333333375,
      "d": 474.16666666665697,
      "v": 95
    },
    {
      "midi": 33,
      "hit": false,
      "t": 149404.1666666671,
      "d": 196.66666666665697,
      "v": 92
    },
    {
      "midi": 76,
      "hit": false,
      "t": 149635.0000000004,
      "d": 90,
      "v": 89
    },
    {
      "midi": 81,
      "hit": false,
      "t": 149650.0000000004,
      "d": 85.83333333334303,
      "v": 83
    },
    {
      "midi": 33,
      "hit": false,
      "t": 149880.0000000004,
      "d": 436.66666666665697,
      "v": 86
    },
    {
      "midi": 76,
      "hit": false,
      "t": 149883.33333333375,
      "d": 80.83333333331393,
      "v": 95
    },
    {
      "midi": 81,
      "hit": false,
      "t": 149887.5000000004,
      "d": 85.83333333331393,
      "v": 86
    },
    {
      "midi": 76,
      "hit": false,
      "t": 150144.16666666706,
      "d": 130,
      "v": 108
    },
    {
      "midi": 81,
      "hit": false,
      "t": 150145.83333333372,
      "d": 115,
      "v": 105
    },
    {
      "midi": 42,
      "hit": false,
      "t": 150150.83333333372,
      "d": 197.5,
      "v": 99
    },
    {
      "midi": 75,
      "hit": false,
      "t": 150386.66666666706,
      "d": 70,
      "v": 75
    },
    {
      "midi": 81,
      "hit": false,
      "t": 150390.83333333372,
      "d": 76.66666666668607,
      "v": 73
    },
    {
      "midi": 33,
      "hit": false,
      "t": 150632.5000000004,
      "d": 175,
      "v": 75
    },
    {
      "midi": 81,
      "hit": false,
      "t": 150635.0000000004,
      "d": 92.5,
      "v": 92
    },
    {
      "midi": 74,
      "hit": false,
      "t": 150636.66666666706,
      "d": 64.16666666668607,
      "v": 95
    },
    {
      "midi": 40,
      "hit": false,
      "t": 150645.0000000004,
      "d": 224.16666666665697,
      "v": 77
    },
    {
      "midi": 72,
      "hit": false,
      "t": 150890.83333333372,
      "d": 109.16666666665697,
      "v": 111
    },
    {
      "midi": 33,
      "hit": false,
      "t": 150892.50000000038,
      "d": 243.33333333331393,
      "v": 78
    },
    {
      "midi": 81,
      "hit": false,
      "t": 150898.33333333372,
      "d": 119.16666666665697,
      "v": 102
    },
    {
      "midi": 43,
      "hit": false,
      "t": 150898.33333333372,
      "d": 208.33333333331393,
      "v": 86
    },
    {
      "midi": 73,
      "hit": false,
      "t": 151137.50000000035,
      "d": 78.33333333334303,
      "v": 86
    },
    {
      "midi": 81,
      "hit": false,
      "t": 151160.00000000035,
      "d": 82.5,
      "v": 77
    },
    {
      "midi": 40,
      "hit": false,
      "t": 151376.666666667,
      "d": 215.83333333331393,
      "v": 79
    },
    {
      "midi": 33,
      "hit": false,
      "t": 151378.33333333366,
      "d": 156.66666666665697,
      "v": 73
    },
    {
      "midi": 76,
      "hit": false,
      "t": 151385.00000000032,
      "d": 115,
      "v": 86
    },
    {
      "midi": 81,
      "hit": false,
      "t": 151390.00000000032,
      "d": 120,
      "v": 86
    },
    {
      "midi": 75,
      "hit": false,
      "t": 151630.83333333366,
      "d": 106.66666666665697,
      "v": 99
    },
    {
      "midi": 42,
      "hit": false,
      "t": 151635.00000000032,
      "d": 162.4999999999709,
      "v": 105
    },
    {
      "midi": 81,
      "hit": false,
      "t": 151637.50000000032,
      "d": 129.16666666665697,
      "v": 86
    },
    {
      "midi": 33,
      "hit": false,
      "t": 151642.50000000032,
      "d": 150.83333333331393,
      "v": 65
    },
    {
      "midi": 81,
      "hit": false,
      "t": 151891.66666666695,
      "d": 90,
      "v": 95
    },
    {
      "midi": 74,
      "hit": false,
      "t": 151895.8333333336,
      "d": 60,
      "v": 95
    },
    {
      "midi": 40,
      "hit": false,
      "t": 152124.16666666695,
      "d": 235.83333333334303,
      "v": 77
    },
    {
      "midi": 33,
      "hit": false,
      "t": 152127.5000000003,
      "d": 168.33333333334303,
      "v": 77
    },
    {
      "midi": 72,
      "hit": false,
      "t": 152130.83333333363,
      "d": 60,
      "v": 99
    },
    {
      "midi": 81,
      "hit": false,
      "t": 152135.83333333363,
      "d": 90,
      "v": 99
    },
    {
      "midi": 38,
      "hit": false,
      "t": 152387.5000000003,
      "d": 187.5,
      "v": 95
    },
    {
      "midi": 45,
      "hit": false,
      "t": 152391.66666666695,
      "d": 309.16666666668607,
      "v": 95
    },
    {
      "midi": 81,
      "hit": false,
      "t": 152405.0000000003,
      "d": 105.83333333334303,
      "v": 102
    },
    {
      "midi": 74,
      "hit": false,
      "t": 152411.66666666695,
      "d": 66.66666666668607,
      "v": 99
    },
    {
      "midi": 79,
      "hit": false,
      "t": 152430.0000000003,
      "d": 97.5,
      "v": 67
    },
    {
      "midi": 72,
      "hit": false,
      "t": 152582.5000000003,
      "d": 89.16666666668607,
      "v": 70
    },
    {
      "midi": 78,
      "hit": false,
      "t": 152655.83333333363,
      "d": 65.83333333334303,
      "v": 61
    },
    {
      "midi": 72,
      "hit": false,
      "t": 152773.33333333363,
      "d": 89.16666666665697,
      "v": 71
    },
    {
      "midi": 78,
      "hit": false,
      "t": 152830.0000000003,
      "d": 60,
      "v": 75
    },
    {
      "midi": 81,
      "hit": false,
      "t": 152855.83333333363,
      "d": 39.166666666656965,
      "v": 46
    },
    {
      "midi": 38,
      "hit": false,
      "t": 152892.5000000003,
      "d": 150.83333333331393,
      "v": 71
    },
    {
      "midi": 45,
      "hit": false,
      "t": 152910.0000000003,
      "d": 215.83333333331393,
      "v": 70
    },
    {
      "midi": 72,
      "hit": false,
      "t": 152911.66666666695,
      "d": 89.16666666665697,
      "v": 69
    },
    {
      "midi": 78,
      "hit": false,
      "t": 152983.3333333336,
      "d": 62.5,
      "v": 67
    },
    {
      "midi": 81,
      "hit": false,
      "t": 152998.3333333336,
      "d": 43.333333333343035,
      "v": 47
    },
    {
      "midi": 72,
      "hit": false,
      "t": 153071.66666666695,
      "d": 85,
      "v": 67
    },
    {
      "midi": 78,
      "hit": false,
      "t": 153145.8333333336,
      "d": 64.16666666665697,
      "v": 71
    },
    {
      "midi": 81,
      "hit": false,
      "t": 153150.00000000026,
      "d": 53.333333333343035,
      "v": 56
    },
    {
      "midi": 47,
      "hit": false,
      "t": 153171.66666666695,
      "d": 296.66666666665697,
      "v": 119
    },
    {
      "midi": 38,
      "hit": false,
      "t": 153175.8333333336,
      "d": 252.5,
      "v": 79
    },
    {
      "midi": 72,
      "hit": false,
      "t": 153212.50000000026,
      "d": 98.33333333331393,
      "v": 73
    },
    {
      "midi": 78,
      "hit": false,
      "t": 153296.66666666692,
      "d": 60,
      "v": 60
    },
    {
      "midi": 81,
      "hit": false,
      "t": 153304.16666666692,
      "d": 49.166666666656965,
      "v": 38
    },
    {
      "midi": 72,
      "hit": false,
      "t": 153375.00000000026,
      "d": 80,
      "v": 69
    },
    {
      "midi": 78,
      "hit": false,
      "t": 153441.66666666695,
      "d": 69.9999999999709,
      "v": 66
    },
    {
      "midi": 81,
      "hit": false,
      "t": 153445.8333333336,
      "d": 49.166666666656965,
      "v": 42
    },
    {
      "midi": 72,
      "hit": false,
      "t": 153542.50000000026,
      "d": 84.9999999999709,
      "v": 66
    },
    {
      "midi": 78,
      "hit": false,
      "t": 153611.66666666692,
      "d": 51.66666666662786,
      "v": 74
    },
    {
      "midi": 81,
      "hit": false,
      "t": 153623.33333333358,
      "d": 38.33333333331393,
      "v": 47
    },
    {
      "midi": 72,
      "hit": false,
      "t": 153690.83333333355,
      "d": 85.83333333334303,
      "v": 57
    },
    {
      "midi": 38,
      "hit": false,
      "t": 153705.0000000002,
      "d": 125.83333333334303,
      "v": 69
    },
    {
      "midi": 45,
      "hit": false,
      "t": 153710.0000000002,
      "d": 203.33333333334303,
      "v": 78
    },
    {
      "midi": 78,
      "hit": false,
      "t": 153751.6666666669,
      "d": 75,
      "v": 78
    },
    {
      "midi": 81,
      "hit": false,
      "t": 153772.50000000023,
      "d": 43.33333333331393,
      "v": 45
    },
    {
      "midi": 72,
      "hit": false,
      "t": 153852.5000000002,
      "d": 75.83333333334303,
      "v": 60
    },
    {
      "midi": 78,
      "hit": false,
      "t": 153905.83333333355,
      "d": 85,
      "v": 70
    },
    {
      "midi": 81,
      "hit": false,
      "t": 153917.5000000002,
      "d": 60,
      "v": 47
    },
    {
      "midi": 48,
      "hit": false,
      "t": 153954.1666666669,
      "d": 333.33333333331393,
      "v": 102
    },
    {
      "midi": 38,
      "hit": false,
      "t": 153958.33333333355,
      "d": 247.5,
      "v": 92
    },
    {
      "midi": 72,
      "hit": false,
      "t": 153985.83333333355,
      "d": 90,
      "v": 73
    },
    {
      "midi": 78,
      "hit": false,
      "t": 154056.6666666669,
      "d": 79.16666666665697,
      "v": 71
    },
    {
      "midi": 81,
      "hit": false,
      "t": 154058.33333333355,
      "d": 47.5,
      "v": 44
    },
    {
      "midi": 72,
      "hit": false,
      "t": 154160.83333333355,
      "d": 70.83333333334303,
      "v": 70
    },
    {
      "midi": 78,
      "hit": false,
      "t": 154207.5000000002,
      "d": 67.5,
      "v": 67
    },
    {
      "midi": 81,
      "hit": false,
      "t": 154228.33333333355,
      "d": 37.5,
      "v": 34
    },
    {
      "midi": 72,
      "hit": false,
      "t": 154301.66666666686,
      "d": 81.66666666668607,
      "v": 65
    },
    {
      "midi": 78,
      "hit": false,
      "t": 154352.5000000002,
      "d": 94.16666666668607,
      "v": 69
    },
    {
      "midi": 81,
      "hit": false,
      "t": 154365.83333333355,
      "d": 55,
      "v": 47
    },
    {
      "midi": 38,
      "hit": false,
      "t": 154436.6666666669,
      "d": 184.16666666668607,
      "v": 75
    },
    {
      "midi": 72,
      "hit": false,
      "t": 154445.00000000023,
      "d": 87.5,
      "v": 74
    },
    {
      "midi": 45,
      "hit": false,
      "t": 154450.00000000023,
      "d": 205.0000000000291,
      "v": 86
    },
    {
      "midi": 78,
      "hit": false,
      "t": 154506.6666666669,
      "d": 99.16666666668607,
      "v": 75
    },
    {
      "midi": 72,
      "hit": false,
      "t": 154639.16666666692,
      "d": 130.83333333334303,
      "v": 66
    },
    {
      "midi": 38,
      "hit": false,
      "t": 154695.8333333336,
      "d": 85,
      "v": 77
    },
    {
      "midi": 47,
      "hit": false,
      "t": 154700.00000000026,
      "d": 75.83333333334303,
      "v": 108
    },
    {
      "midi": 78,
      "hit": false,
      "t": 154703.3333333336,
      "d": 96.66666666665697,
      "v": 92
    },
    {
      "midi": 81,
      "hit": false,
      "t": 154706.66666666695,
      "d": 97.4999999999709,
      "v": 79
    },
    {
      "midi": 78,
      "hit": false,
      "t": 154941.66666666692,
      "d": 140,
      "v": 108
    },
    {
      "midi": 72,
      "hit": false,
      "t": 154945.83333333358,
      "d": 61.666666666656965,
      "v": 111
    },
    {
      "midi": 81,
      "hit": false,
      "t": 154950.00000000023,
      "d": 110.83333333334303,
      "v": 99
    },
    {
      "midi": 26,
      "hit": false,
      "t": 155170.83333333358,
      "d": 164.16666666665697,
      "v": 75
    },
    {
      "midi": 72,
      "hit": false,
      "t": 155180.83333333358,
      "d": 69.16666666665697,
      "v": 102
    },
    {
      "midi": 27,
      "hit": false,
      "t": 155427.50000000023,
      "d": 530.8333333333721,
      "v": 108
    },
    {
      "midi": 78,
      "hit": false,
      "t": 155436.6666666669,
      "d": 145.83333333331393,
      "v": 86
    },
    {
      "midi": 75,
      "hit": false,
      "t": 155440.00000000023,
      "d": 139.9999999999709,
      "v": 79
    },
    {
      "midi": 69,
      "hit": false,
      "t": 155444.1666666669,
      "d": 105,
      "v": 99
    },
    {
      "midi": 81,
      "hit": false,
      "t": 155448.33333333355,
      "d": 115,
      "v": 83
    },
    {
      "midi": 72,
      "hit": false,
      "t": 155448.33333333355,
      "d": 137.5,
      "v": 86
    },
    {
      "midi": 75,
      "hit": false,
      "t": 155704.1666666669,
      "d": 142.5000000000291,
      "v": 75
    },
    {
      "midi": 72,
      "hit": false,
      "t": 155707.50000000023,
      "d": 133.33333333334303,
      "v": 77
    },
    {
      "midi": 81,
      "hit": false,
      "t": 155710.83333333358,
      "d": 110,
      "v": 86
    },
    {
      "midi": 78,
      "hit": false,
      "t": 155715.00000000023,
      "d": 135.0000000000291,
      "v": 75
    },
    {
      "midi": 69,
      "hit": false,
      "t": 155720.00000000023,
      "d": 60.833333333343035,
      "v": 92
    },
    {
      "midi": 69,
      "hit": false,
      "t": 155948.3333333336,
      "d": 120,
      "v": 89
    },
    {
      "midi": 39,
      "hit": false,
      "t": 155963.3333333336,
      "d": 84.16666666665697,
      "v": 105
    },
    {
      "midi": 30,
      "hit": false,
      "t": 156206.66666666695,
      "d": 510.83333333331393,
      "v": 89
    },
    {
      "midi": 78,
      "hit": false,
      "t": 156210.8333333336,
      "d": 139.16666666665697,
      "v": 95
    },
    {
      "midi": 81,
      "hit": false,
      "t": 156218.3333333336,
      "d": 112.5,
      "v": 92
    },
    {
      "midi": 72,
      "hit": false,
      "t": 156218.3333333336,
      "d": 124.16666666665697,
      "v": 102
    },
    {
      "midi": 75,
      "hit": false,
      "t": 156218.3333333336,
      "d": 128.33333333331393,
      "v": 92
    },
    {
      "midi": 69,
      "hit": false,
      "t": 156228.3333333336,
      "d": 92.5,
      "v": 108
    },
    {
      "midi": 72,
      "hit": false,
      "t": 156461.66666666692,
      "d": 155,
      "v": 79
    },
    {
      "midi": 75,
      "hit": false,
      "t": 156465.83333333358,
      "d": 169.16666666668607,
      "v": 75
    },
    {
      "midi": 78,
      "hit": false,
      "t": 156470.00000000023,
      "d": 175.83333333337214,
      "v": 75
    },
    {
      "midi": 81,
      "hit": false,
      "t": 156473.33333333358,
      "d": 127.5,
      "v": 86
    },
    {
      "midi": 69,
      "hit": false,
      "t": 156475.83333333358,
      "d": 100.83333333334303,
      "v": 92
    },
    {
      "midi": 42,
      "hit": false,
      "t": 156705.8333333336,
      "d": 120,
      "v": 79
    },
    {
      "midi": 69,
      "hit": false,
      "t": 156715.8333333336,
      "d": 142.5,
      "v": 99
    },
    {
      "midi": 33,
      "hit": false,
      "t": 156950.00000000026,
      "d": 548.3333333332848,
      "v": 79
    },
    {
      "midi": 75,
      "hit": false,
      "t": 156965.00000000026,
      "d": 136.66666666662786,
      "v": 92
    },
    {
      "midi": 78,
      "hit": false,
      "t": 156966.66666666692,
      "d": 136.66666666662786,
      "v": 92
    },
    {
      "midi": 72,
      "hit": false,
      "t": 156968.33333333358,
      "d": 126.66666666665697,
      "v": 95
    },
    {
      "midi": 69,
      "hit": false,
      "t": 156975.83333333358,
      "d": 104.16666666665697,
      "v": 105
    },
    {
      "midi": 81,
      "hit": false,
      "t": 156975.83333333358,
      "d": 110,
      "v": 89
    },
    {
      "midi": 72,
      "hit": false,
      "t": 157217.5000000002,
      "d": 168.33333333334303,
      "v": 74
    },
    {
      "midi": 75,
      "hit": false,
      "t": 157221.66666666686,
      "d": 160.0000000000291,
      "v": 75
    },
    {
      "midi": 69,
      "hit": false,
      "t": 157222.5000000002,
      "d": 107.5,
      "v": 79
    },
    {
      "midi": 81,
      "hit": false,
      "t": 157225.83333333355,
      "d": 127.5,
      "v": 79
    },
    {
      "midi": 78,
      "hit": false,
      "t": 157232.5000000002,
      "d": 160,
      "v": 74
    },
    {
      "midi": 69,
      "hit": false,
      "t": 157473.33333333355,
      "d": 140,
      "v": 95
    },
    {
      "midi": 45,
      "hit": false,
      "t": 157481.6666666669,
      "d": 104.16666666665697,
      "v": 86
    },
    {
      "midi": 36,
      "hit": false,
      "t": 157720.00000000023,
      "d": 375.83333333334303,
      "v": 89
    },
    {
      "midi": 72,
      "hit": false,
      "t": 157726.6666666669,
      "d": 134.16666666665697,
      "v": 95
    },
    {
      "midi": 75,
      "hit": false,
      "t": 157726.6666666669,
      "d": 140,
      "v": 89
    },
    {
      "midi": 69,
      "hit": false,
      "t": 157735.00000000023,
      "d": 100.83333333331393,
      "v": 105
    },
    {
      "midi": 78,
      "hit": false,
      "t": 157735.00000000023,
      "d": 132.5,
      "v": 89
    },
    {
      "midi": 81,
      "hit": false,
      "t": 157741.6666666669,
      "d": 110.83333333331393,
      "v": 89
    },
    {
      "midi": 72,
      "hit": false,
      "t": 157980.00000000023,
      "d": 148.33333333334303,
      "v": 83
    },
    {
      "midi": 75,
      "hit": false,
      "t": 157985.00000000023,
      "d": 150.83333333334303,
      "v": 78
    },
    {
      "midi": 69,
      "hit": false,
      "t": 157985.83333333358,
      "d": 99.16666666665697,
      "v": 95
    },
    {
      "midi": 81,
      "hit": false,
      "t": 157988.33333333358,
      "d": 126.66666666665697,
      "v": 92
    },
    {
      "midi": 78,
      "hit": false,
      "t": 157995.83333333358,
      "d": 156.66666666665697,
      "v": 79
    },
    {
      "midi": 69,
      "hit": false,
      "t": 158225.83333333358,
      "d": 129.16666666668607,
      "v": 92
    },
    {
      "midi": 40,
      "hit": false,
      "t": 158236.66666666692,
      "d": 195.83333333334303,
      "v": 92
    },
    {
      "midi": 75,
      "hit": false,
      "t": 158482.50000000026,
      "d": 93.33333333331393,
      "v": 78
    },
    {
      "midi": 69,
      "hit": false,
      "t": 158485.00000000026,
      "d": 92.4999999999709,
      "v": 92
    },
    {
      "midi": 76,
      "hit": false,
      "t": 158491.66666666692,
      "d": 114.16666666665697,
      "v": 89
    },
    {
      "midi": 45,
      "hit": false,
      "t": 158491.66666666692,
      "d": 513.3333333333139,
      "v": 99
    },
    {
      "midi": 81,
      "hit": false,
      "t": 158498.33333333358,
      "d": 101.66666666665697,
      "v": 89
    },
    {
      "midi": 33,
      "hit": false,
      "t": 158498.33333333358,
      "d": 239.16666666665697,
      "v": 105
    },
    {
      "midi": 76,
      "hit": false,
      "t": 158731.66666666692,
      "d": 102.4999999999709,
      "v": 62
    },
    {
      "midi": 69,
      "hit": false,
      "t": 158733.33333333358,
      "d": 88.33333333331393,
      "v": 77
    },
    {
      "midi": 81,
      "hit": false,
      "t": 158737.50000000023,
      "d": 104.16666666665697,
      "v": 71
    },
    {
      "midi": 69,
      "hit": false,
      "t": 158992.50000000023,
      "d": 83.33333333334303,
      "v": 89
    },
    {
      "midi": 76,
      "hit": false,
      "t": 158995.83333333358,
      "d": 100,
      "v": 74
    },
    {
      "midi": 81,
      "hit": false,
      "t": 158998.33333333358,
      "d": 91.66666666665697,
      "v": 83
    },
    {
      "midi": 52,
      "hit": false,
      "t": 159243.33333333358,
      "d": 80,
      "v": 95
    },
    {
      "midi": 69,
      "hit": false,
      "t": 159249.16666666692,
      "d": 70.83333333334303,
      "v": 105
    },
    {
      "midi": 76,
      "hit": false,
      "t": 159252.50000000026,
      "d": 69.16666666665697,
      "v": 86
    },
    {
      "midi": 81,
      "hit": false,
      "t": 159256.66666666692,
      "d": 86.66666666665697,
      "v": 102
    },
    {
      "midi": 76,
      "hit": false,
      "t": 159497.50000000023,
      "d": 100,
      "v": 77
    },
    {
      "midi": 69,
      "hit": false,
      "t": 159503.33333333358,
      "d": 68.33333333334303,
      "v": 79
    },
    {
      "midi": 81,
      "hit": false,
      "t": 159503.33333333358,
      "d": 80,
      "v": 83
    },
    {
      "midi": 76,
      "hit": false,
      "t": 159737.50000000023,
      "d": 150,
      "v": 69
    },
    {
      "midi": 69,
      "hit": false,
      "t": 159745.83333333358,
      "d": 69.16666666665697,
      "v": 86
    },
    {
      "midi": 81,
      "hit": false,
      "t": 159750.00000000023,
      "d": 67.5,
      "v": 86
    },
    {
      "midi": 43,
      "hit": false,
      "t": 159801.6666666669,
      "d": 34.16666666668607,
      "v": 50
    },
    {
      "midi": 76,
      "hit": false,
      "t": 160013.33333333358,
      "d": 145,
      "v": 75
    },
    {
      "midi": 80,
      "hit": false,
      "t": 160017.50000000023,
      "d": 102.5,
      "v": 99
    },
    {
      "midi": 71,
      "hit": false,
      "t": 160017.50000000023,
      "d": 110,
      "v": 78
    },
    {
      "midi": 44,
      "hit": false,
      "t": 160025.83333333358,
      "d": 570,
      "v": 117
    },
    {
      "midi": 32,
      "hit": false,
      "t": 160025.83333333358,
      "d": 915.833333333343,
      "v": 114
    },
    {
      "midi": 68,
      "hit": false,
      "t": 160032.50000000023,
      "d": 55,
      "v": 99
    },
    {
      "midi": 76,
      "hit": false,
      "t": 160268.33333333358,
      "d": 116.66666666668607,
      "v": 50
    },
    {
      "midi": 71,
      "hit": false,
      "t": 160271.66666666692,
      "d": 99.16666666668607,
      "v": 55
    },
    {
      "midi": 68,
      "hit": false,
      "t": 160277.50000000026,
      "d": 62.5,
      "v": 78
    },
    {
      "midi": 80,
      "hit": false,
      "t": 160282.50000000026,
      "d": 75.83333333334303,
      "v": 70
    },
    {
      "midi": 68,
      "hit": false,
      "t": 160524.16666666692,
      "d": 75,
      "v": 89
    },
    {
      "midi": 71,
      "hit": false,
      "t": 160526.66666666692,
      "d": 115.83333333334303,
      "v": 66
    },
    {
      "midi": 80,
      "hit": false,
      "t": 160530.83333333358,
      "d": 86.66666666668607,
      "v": 75
    },
    {
      "midi": 76,
      "hit": false,
      "t": 160530.83333333358,
      "d": 123.33333333334303,
      "v": 70
    },
    {
      "midi": 76,
      "hit": false,
      "t": 160775.83333333358,
      "d": 139.16666666668607,
      "v": 74
    },
    {
      "midi": 71,
      "hit": false,
      "t": 160780.00000000023,
      "d": 127.5000000000291,
      "v": 75
    },
    {
      "midi": 68,
      "hit": false,
      "t": 160783.33333333358,
      "d": 78.33333333334303,
      "v": 105
    },
    {
      "midi": 80,
      "hit": false,
      "t": 160783.33333333358,
      "d": 103.33333333334303,
      "v": 99
    },
    {
      "midi": 44,
      "hit": false,
      "t": 160786.66666666692,
      "d": 122.5,
      "v": 108
    },
    {
      "midi": 68,
      "hit": false,
      "t": 161017.50000000026,
      "d": 76.66666666671517,
      "v": 79
    },
    {
      "midi": 76,
      "hit": false,
      "t": 161020.8333333336,
      "d": 135.0000000000291,
      "v": 65
    },
    {
      "midi": 80,
      "hit": false,
      "t": 161026.66666666695,
      "d": 96.66666666668607,
      "v": 78
    },
    {
      "midi": 71,
      "hit": false,
      "t": 161029.16666666695,
      "d": 116.66666666668607,
      "v": 60
    },
    {
      "midi": 44,
      "hit": false,
      "t": 161040.0000000003,
      "d": 65.83333333334303,
      "v": 111
    },
    {
      "midi": 32,
      "hit": false,
      "t": 161043.33333333363,
      "d": 83.33333333334303,
      "v": 99
    },
    {
      "midi": 68,
      "hit": false,
      "t": 161267.5000000003,
      "d": 80.83333333334303,
      "v": 77
    },
    {
      "midi": 76,
      "hit": false,
      "t": 161270.83333333363,
      "d": 127.4999999999709,
      "v": 50
    },
    {
      "midi": 43,
      "hit": false,
      "t": 161277.5000000003,
      "d": 75,
      "v": 89
    },
    {
      "midi": 80,
      "hit": false,
      "t": 161280.83333333363,
      "d": 83.33333333331393,
      "v": 71
    },
    {
      "midi": 31,
      "hit": false,
      "t": 161285.0000000003,
      "d": 77.5,
      "v": 92
    },
    {
      "midi": 71,
      "hit": false,
      "t": 161290.83333333363,
      "d": 38.333333333343035,
      "v": 51
    },
    {
      "midi": 76,
      "hit": false,
      "t": 161542.5000000003,
      "d": 143.33333333328483,
      "v": 83
    },
    {
      "midi": 78,
      "hit": false,
      "t": 161546.66666666695,
      "d": 145.83333333328483,
      "v": 79
    },
    {
      "midi": 73,
      "hit": false,
      "t": 161550.8333333336,
      "d": 130.83333333331393,
      "v": 89
    },
    {
      "midi": 69,
      "hit": false,
      "t": 161552.50000000026,
      "d": 100,
      "v": 95
    },
    {
      "midi": 81,
      "hit": false,
      "t": 161557.50000000026,
      "d": 105,
      "v": 89
    },
    {
      "midi": 42,
      "hit": false,
      "t": 161562.50000000026,
      "d": 804.9999999999127,
      "v": 111
    },
    {
      "midi": 30,
      "hit": false,
      "t": 161565.00000000026,
      "d": 211.66666666662786,
      "v": 108
    },
    {
      "midi": 73,
      "hit": false,
      "t": 161800.00000000023,
      "d": 115,
      "v": 55
    },
    {
      "midi": 69,
      "hit": false,
      "t": 161803.33333333358,
      "d": 85,
      "v": 66
    },
    {
      "midi": 81,
      "hit": false,
      "t": 161807.50000000023,
      "d": 103.33333333334303,
      "v": 70
    },
    {
      "midi": 78,
      "hit": false,
      "t": 161807.50000000023,
      "d": 120,
      "v": 63
    },
    {
      "midi": 76,
      "hit": false,
      "t": 161815.83333333358,
      "d": 120,
      "v": 63
    },
    {
      "midi": 76,
      "hit": false,
      "t": 162072.50000000023,
      "d": 129.9999999999709,
      "v": 69
    },
    {
      "midi": 73,
      "hit": false,
      "t": 162076.6666666669,
      "d": 109.16666666665697,
      "v": 75
    },
    {
      "midi": 78,
      "hit": false,
      "t": 162080.83333333355,
      "d": 127.5,
      "v": 70
    },
    {
      "midi": 81,
      "hit": false,
      "t": 162081.6666666669,
      "d": 96.66666666665697,
      "v": 74
    },
    {
      "midi": 69,
      "hit": false,
      "t": 162088.33333333355,
      "d": 74.16666666665697,
      "v": 74
    },
    {
      "midi": 73,
      "hit": false,
      "t": 162328.33333333355,
      "d": 121.66666666662786,
      "v": 79
    },
    {
      "midi": 69,
      "hit": false,
      "t": 162332.5000000002,
      "d": 109.9999999999709,
      "v": 89
    },
    {
      "midi": 78,
      "hit": false,
      "t": 162336.66666666686,
      "d": 130.83333333331393,
      "v": 75
    },
    {
      "midi": 76,
      "hit": false,
      "t": 162338.33333333352,
      "d": 137.5,
      "v": 71
    },
    {
      "midi": 81,
      "hit": false,
      "t": 162343.33333333352,
      "d": 98.33333333331393,
      "v": 86
    },
    {
      "midi": 49,
      "hit": false,
      "t": 162360.83333333352,
      "d": 100.83333333331393,
      "v": 95
    },
    {
      "midi": 73,
      "hit": false,
      "t": 162578.33333333352,
      "d": 114.9999999999709,
      "v": 66
    },
    {
      "midi": 69,
      "hit": false,
      "t": 162580.83333333352,
      "d": 100.83333333331393,
      "v": 73
    },
    {
      "midi": 76,
      "hit": false,
      "t": 162585.00000000017,
      "d": 129.16666666662786,
      "v": 61
    },
    {
      "midi": 78,
      "hit": false,
      "t": 162591.66666666683,
      "d": 118.33333333331393,
      "v": 62
    },
    {
      "midi": 81,
      "hit": false,
      "t": 162592.50000000017,
      "d": 93.33333333331393,
      "v": 77
    },
    {
      "midi": 42,
      "hit": false,
      "t": 162625.00000000017,
      "d": 126.66666666662786,
      "v": 89
    },
    {
      "midi": 49,
      "hit": false,
      "t": 162818.33333333346,
      "d": 141.66666666665697,
      "v": 79
    },
    {
      "midi": 76,
      "hit": false,
      "t": 162838.33333333346,
      "d": 153.33333333334303,
      "v": 62
    },
    {
      "midi": 78,
      "hit": false,
      "t": 162840.83333333346,
      "d": 156.66666666668607,
      "v": 74
    },
    {
      "midi": 73,
      "hit": false,
      "t": 162847.50000000012,
      "d": 138.33333333334303,
      "v": 75
    },
    {
      "midi": 69,
      "hit": false,
      "t": 162850.83333333346,
      "d": 87.5,
      "v": 79
    },
    {
      "midi": 81,
      "hit": false,
      "t": 162856.6666666668,
      "d": 106.66666666665697,
      "v": 78
    },
    {
      "midi": 49,
      "hit": false,
      "t": 163084.16666666683,
      "d": 637.4999999999418,
      "v": 99
    },
    {
      "midi": 40,
      "hit": false,
      "t": 163088.3333333335,
      "d": 1038.3333333332848,
      "v": 92
    },
    {
      "midi": 73,
      "hit": false,
      "t": 163101.66666666683,
      "d": 146.66666666662786,
      "v": 92
    },
    {
      "midi": 78,
      "hit": false,
      "t": 163105.8333333335,
      "d": 159.16666666662786,
      "v": 79
    },
    {
      "midi": 69,
      "hit": false,
      "t": 163110.8333333335,
      "d": 111.66666666665697,
      "v": 102
    },
    {
      "midi": 76,
      "hit": false,
      "t": 163110.8333333335,
      "d": 152.4999999999709,
      "v": 70
    },
    {
      "midi": 81,
      "hit": false,
      "t": 163120.00000000015,
      "d": 116.66666666665697,
      "v": 89
    },
    {
      "midi": 73,
      "hit": false,
      "t": 163346.66666666677,
      "d": 125.83333333331393,
      "v": 77
    },
    {
      "midi": 78,
      "hit": false,
      "t": 163350.83333333343,
      "d": 134.16666666665697,
      "v": 71
    },
    {
      "midi": 76,
      "hit": false,
      "t": 163355.0000000001,
      "d": 127.5,
      "v": 62
    },
    {
      "midi": 69,
      "hit": false,
      "t": 163355.83333333343,
      "d": 81.66666666665697,
      "v": 89
    },
    {
      "midi": 81,
      "hit": false,
      "t": 163362.5000000001,
      "d": 98.33333333334303,
      "v": 77
    },
    {
      "midi": 76,
      "hit": false,
      "t": 163597.5000000001,
      "d": 147.5000000000291,
      "v": 67
    },
    {
      "midi": 73,
      "hit": false,
      "t": 163600.83333333343,
      "d": 130.83333333334303,
      "v": 74
    },
    {
      "midi": 78,
      "hit": false,
      "t": 163605.0000000001,
      "d": 131.66666666668607,
      "v": 70
    },
    {
      "midi": 69,
      "hit": false,
      "t": 163607.5000000001,
      "d": 100,
      "v": 79
    },
    {
      "midi": 81,
      "hit": false,
      "t": 163613.33333333343,
      "d": 102.5,
      "v": 78
    },
    {
      "midi": 76,
      "hit": false,
      "t": 163847.50000000012,
      "d": 148.33333333334303,
      "v": 83
    },
    {
      "midi": 78,
      "hit": false,
      "t": 163851.66666666677,
      "d": 140.83333333334303,
      "v": 86
    },
    {
      "midi": 73,
      "hit": false,
      "t": 163857.50000000012,
      "d": 133.33333333334303,
      "v": 95
    },
    {
      "midi": 69,
      "hit": false,
      "t": 163860.00000000012,
      "d": 110,
      "v": 95
    },
    {
      "midi": 81,
      "hit": false,
      "t": 163865.00000000012,
      "d": 108.33333333334303,
      "v": 92
    },
    {
      "midi": 49,
      "hit": false,
      "t": 163871.66666666677,
      "d": 168.33333333334303,
      "v": 108
    },
    {
      "midi": 78,
      "hit": false,
      "t": 164095.00000000012,
      "d": 136.66666666665697,
      "v": 74
    },
    {
      "midi": 73,
      "hit": false,
      "t": 164097.50000000012,
      "d": 132.5,
      "v": 74
    },
    {
      "midi": 76,
      "hit": false,
      "t": 164102.50000000012,
      "d": 131.66666666665697,
      "v": 61
    },
    {
      "midi": 81,
      "hit": false,
      "t": 164106.66666666677,
      "d": 109.16666666668607,
      "v": 69
    },
    {
      "midi": 69,
      "hit": false,
      "t": 164111.66666666677,
      "d": 93.33333333334303,
      "v": 83
    },
    {
      "midi": 73,
      "hit": false,
      "t": 164345.83333333343,
      "d": 125.83333333334303,
      "v": 77
    },
    {
      "midi": 76,
      "hit": false,
      "t": 164350.0000000001,
      "d": 140.0000000000291,
      "v": 70
    },
    {
      "midi": 69,
      "hit": false,
      "t": 164353.33333333343,
      "d": 107.5,
      "v": 79
    },
    {
      "midi": 78,
      "hit": false,
      "t": 164358.33333333343,
      "d": 142.5000000000291,
      "v": 74
    },
    {
      "midi": 81,
      "hit": false,
      "t": 164363.33333333343,
      "d": 112.5,
      "v": 73
    },
    {
      "midi": 42,
      "hit": false,
      "t": 164380.83333333343,
      "d": 100.83333333334303,
      "v": 71
    },
    {
      "midi": 78,
      "hit": false,
      "t": 164615.83333333346,
      "d": 135.83333333331393,
      "v": 108
    },
    {
      "midi": 75,
      "hit": false,
      "t": 164620.00000000012,
      "d": 100.83333333331393,
      "v": 108
    },
    {
      "midi": 69,
      "hit": false,
      "t": 164623.33333333346,
      "d": 79.16666666665697,
      "v": 108
    },
    {
      "midi": 81,
      "hit": false,
      "t": 164627.50000000012,
      "d": 100.83333333331393,
      "v": 95
    },
    {
      "midi": 47,
      "hit": false,
      "t": 164631.66666666677,
      "d": 185,
      "v": 99
    },
    {
      "midi": 35,
      "hit": false,
      "t": 164635.00000000012,
      "d": 210.83333333331393,
      "v": 105
    },
    {
      "midi": 75,
      "hit": false,
      "t": 164867.5000000001,
      "d": 104.16666666668607,
      "v": 77
    },
    {
      "midi": 78,
      "hit": false,
      "t": 164872.5000000001,
      "d": 107.5000000000291,
      "v": 79
    },
    {
      "midi": 69,
      "hit": false,
      "t": 164877.5000000001,
      "d": 84.16666666668607,
      "v": 78
    },
    {
      "midi": 81,
      "hit": false,
      "t": 164883.33333333343,
      "d": 102.5000000000291,
      "v": 70
    },
    {
      "midi": 75,
      "hit": false,
      "t": 165122.50000000012,
      "d": 110.83333333334303,
      "v": 86
    },
    {
      "midi": 78,
      "hit": false,
      "t": 165125.00000000012,
      "d": 112.5,
      "v": 79
    },
    {
      "midi": 69,
      "hit": false,
      "t": 165128.33333333346,
      "d": 87.5,
      "v": 86
    },
    {
      "midi": 81,
      "hit": false,
      "t": 165130.00000000012,
      "d": 110,
      "v": 77
    },
    {
      "midi": 47,
      "hit": false,
      "t": 165144.16666666677,
      "d": 119.16666666668607,
      "v": 92
    },
    {
      "midi": 35,
      "hit": false,
      "t": 165147.50000000012,
      "d": 178.33333333334303,
      "v": 99
    },
    {
      "midi": 75,
      "hit": false,
      "t": 165396.6666666668,
      "d": 140.0000000000291,
      "v": 92
    },
    {
      "midi": 78,
      "hit": false,
      "t": 165401.6666666668,
      "d": 134.16666666668607,
      "v": 92
    },
    {
      "midi": 69,
      "hit": false,
      "t": 165402.50000000015,
      "d": 115,
      "v": 95
    },
    {
      "midi": 81,
      "hit": false,
      "t": 165405.8333333335,
      "d": 117.5,
      "v": 89
    },
    {
      "midi": 37,
      "hit": false,
      "t": 165410.00000000015,
      "d": 270.0000000000582,
      "v": 114
    },
    {
      "midi": 47,
      "hit": false,
      "t": 165412.50000000015,
      "d": 224.16666666668607,
      "v": 99
    },
    {
      "midi": 75,
      "hit": false,
      "t": 165645.00000000017,
      "d": 109.16666666668607,
      "v": 77
    },
    {
      "midi": 78,
      "hit": false,
      "t": 165647.50000000017,
      "d": 105.0000000000291,
      "v": 77
    },
    {
      "midi": 69,
      "hit": false,
      "t": 165650.83333333352,
      "d": 85.0000000000291,
      "v": 79
    },
    {
      "midi": 81,
      "hit": false,
      "t": 165654.16666666686,
      "d": 93.33333333334303,
      "v": 75
    },
    {
      "midi": 75,
      "hit": false,
      "t": 165892.5000000002,
      "d": 135.83333333331393,
      "v": 89
    },
    {
      "midi": 37,
      "hit": false,
      "t": 165896.66666666686,
      "d": 153.33333333331393,
      "v": 89
    },
    {
      "midi": 69,
      "hit": false,
      "t": 165898.33333333352,
      "d": 101.66666666665697,
      "v": 89
    },
    {
      "midi": 81,
      "hit": false,
      "t": 165905.00000000017,
      "d": 112.5,
      "v": 86
    },
    {
      "midi": 78,
      "hit": false,
      "t": 165905.00000000017,
      "d": 125,
      "v": 86
    },
    {
      "midi": 47,
      "hit": false,
      "t": 165911.66666666683,
      "d": 130.83333333334303,
      "v": 86
    },
    {
      "midi": 75,
      "hit": false,
      "t": 166163.33333333352,
      "d": 136.66666666665697,
      "v": 105
    },
    {
      "midi": 47,
      "hit": false,
      "t": 166166.66666666686,
      "d": 208.33333333331393,
      "v": 105
    },
    {
      "midi": 38,
      "hit": false,
      "t": 166170.83333333352,
      "d": 183.33333333331393,
      "v": 99
    },
    {
      "midi": 78,
      "hit": false,
      "t": 166172.50000000017,
      "d": 125,
      "v": 92
    },
    {
      "midi": 69,
      "hit": false,
      "t": 166177.50000000017,
      "d": 105,
      "v": 99
    },
    {
      "midi": 81,
      "hit": false,
      "t": 166177.50000000017,
      "d": 106.66666666665697,
      "v": 92
    },
    {
      "midi": 75,
      "hit": false,
      "t": 166410.00000000017,
      "d": 126.66666666668607,
      "v": 89
    },
    {
      "midi": 78,
      "hit": false,
      "t": 166413.33333333352,
      "d": 125.83333333334303,
      "v": 79
    },
    {
      "midi": 69,
      "hit": false,
      "t": 166416.66666666686,
      "d": 93.33333333334303,
      "v": 83
    },
    {
      "midi": 81,
      "hit": false,
      "t": 166416.66666666686,
      "d": 108.33333333334303,
      "v": 70
    },
    {
      "midi": 38,
      "hit": false,
      "t": 166652.5000000002,
      "d": 193.33333333337214,
      "v": 79
    },
    {
      "midi": 47,
      "hit": false,
      "t": 166655.83333333355,
      "d": 150.0000000000291,
      "v": 79
    },
    {
      "midi": 75,
      "hit": false,
      "t": 166661.6666666669,
      "d": 139.16666666668607,
      "v": 99
    },
    {
      "midi": 78,
      "hit": false,
      "t": 166666.6666666669,
      "d": 135.83333333334303,
      "v": 89
    },
    {
      "midi": 69,
      "hit": false,
      "t": 166672.50000000023,
      "d": 98.33333333334303,
      "v": 95
    },
    {
      "midi": 81,
      "hit": false,
      "t": 166672.50000000023,
      "d": 113.33333333334303,
      "v": 78
    },
    {
      "midi": 75,
      "hit": false,
      "t": 166920.83333333358,
      "d": 146.66666666668607,
      "v": 92
    },
    {
      "midi": 78,
      "hit": false,
      "t": 166925.00000000023,
      "d": 135.83333333337214,
      "v": 89
    },
    {
      "midi": 39,
      "hit": false,
      "t": 166928.33333333358,
      "d": 162.5000000000291,
      "v": 99
    },
    {
      "midi": 69,
      "hit": false,
      "t": 166930.83333333358,
      "d": 116.66666666668607,
      "v": 92
    },
    {
      "midi": 81,
      "hit": false,
      "t": 166935.83333333358,
      "d": 112.5000000000291,
      "v": 89
    },
    {
      "midi": 47,
      "hit": false,
      "t": 166940.83333333358,
      "d": 154.16666666668607,
      "v": 102
    },
    {
      "midi": 78,
      "hit": false,
      "t": 167170.00000000026,
      "d": 140,
      "v": 86
    },
    {
      "midi": 75,
      "hit": false,
      "t": 167173.3333333336,
      "d": 139.16666666665697,
      "v": 89
    },
    {
      "midi": 69,
      "hit": false,
      "t": 167177.50000000026,
      "d": 90,
      "v": 86
    },
    {
      "midi": 81,
      "hit": false,
      "t": 167180.00000000026,
      "d": 117.5,
      "v": 74
    },
    {
      "midi": 39,
      "hit": false,
      "t": 167413.3333333336,
      "d": 90.83333333331393,
      "v": 92
    },
    {
      "midi": 75,
      "hit": false,
      "t": 167417.50000000026,
      "d": 101.66666666665697,
      "v": 89
    },
    {
      "midi": 78,
      "hit": false,
      "t": 167423.3333333336,
      "d": 113.33333333331393,
      "v": 89
    },
    {
      "midi": 69,
      "hit": false,
      "t": 167425.8333333336,
      "d": 69.16666666665697,
      "v": 86
    },
    {
      "midi": 81,
      "hit": false,
      "t": 167432.50000000026,
      "d": 67.5,
      "v": 86
    },
    {
      "midi": 47,
      "hit": false,
      "t": 167435.00000000026,
      "d": 38.333333333343035,
      "v": 74
    },
    {
      "midi": 76,
      "hit": false,
      "t": 167671.66666666692,
      "d": 168.33333333331393,
      "v": 74
    },
    {
      "midi": 40,
      "hit": false,
      "t": 167676.66666666692,
      "d": 135,
      "v": 89
    },
    {
      "midi": 74,
      "hit": false,
      "t": 167676.66666666692,
      "d": 154.16666666665697,
      "v": 70
    },
    {
      "midi": 68,
      "hit": false,
      "t": 167688.33333333358,
      "d": 93.33333333334303,
      "v": 108
    },
    {
      "midi": 80,
      "hit": false,
      "t": 167688.33333333358,
      "d": 105,
      "v": 95
    },
    {
      "midi": 28,
      "hit": false,
      "t": 167688.33333333358,
      "d": 146.66666666665697,
      "v": 105
    },
    {
      "midi": 76,
      "hit": false,
      "t": 167926.6666666669,
      "d": 161.66666666668607,
      "v": 57
    },
    {
      "midi": 68,
      "hit": false,
      "t": 167930.00000000023,
      "d": 95.83333333334303,
      "v": 89
    },
    {
      "midi": 80,
      "hit": false,
      "t": 167935.83333333358,
      "d": 119.16666666665697,
      "v": 86
    },
    {
      "midi": 74,
      "hit": false,
      "t": 167938.33333333358,
      "d": 141.66666666665697,
      "v": 65
    },
    {
      "midi": 76,
      "hit": false,
      "t": 168175.00000000023,
      "d": 156.66666666665697,
      "v": 67
    },
    {
      "midi": 68,
      "hit": false,
      "t": 168180.00000000023,
      "d": 93.33333333334303,
      "v": 99
    },
    {
      "midi": 80,
      "hit": false,
      "t": 168185.83333333358,
      "d": 119.16666666665697,
      "v": 89
    },
    {
      "midi": 28,
      "hit": false,
      "t": 168186.66666666692,
      "d": 77.5,
      "v": 99
    },
    {
      "midi": 40,
      "hit": false,
      "t": 168193.33333333358,
      "d": 62.5,
      "v": 92
    },
    {
      "midi": 74,
      "hit": false,
      "t": 168193.33333333358,
      "d": 123.33333333331393,
      "v": 69
    },
    {
      "midi": 74,
      "hit": false,
      "t": 168441.6666666669,
      "d": 153.33333333337214,
      "v": 75
    },
    {
      "midi": 42,
      "hit": false,
      "t": 168446.6666666669,
      "d": 138.33333333337214,
      "v": 111
    },
    {
      "midi": 76,
      "hit": false,
      "t": 168450.00000000023,
      "d": 158.33333333337214,
      "v": 70
    },
    {
      "midi": 69,
      "hit": false,
      "t": 168456.6666666669,
      "d": 95.0000000000291,
      "v": 83
    },
    {
      "midi": 81,
      "hit": false,
      "t": 168456.6666666669,
      "d": 108.33333333337214,
      "v": 95
    },
    {
      "midi": 30,
      "hit": false,
      "t": 168466.6666666669,
      "d": 84.16666666668607,
      "v": 95
    },
    {
      "midi": 76,
      "hit": false,
      "t": 168687.50000000026,
      "d": 160,
      "v": 75
    },
    {
      "midi": 69,
      "hit": false,
      "t": 168697.50000000026,
      "d": 97.5,
      "v": 77
    },
    {
      "midi": 74,
      "hit": false,
      "t": 168703.3333333336,
      "d": 131.66666666665697,
      "v": 69
    },
    {
      "midi": 81,
      "hit": false,
      "t": 168707.50000000026,
      "d": 117.5,
      "v": 83
    },
    {
      "midi": 42,
      "hit": false,
      "t": 168924.16666666692,
      "d": 120,
      "v": 99
    },
    {
      "midi": 30,
      "hit": false,
      "t": 168926.66666666692,
      "d": 95,
      "v": 86
    },
    {
      "midi": 76,
      "hit": false,
      "t": 168940.00000000026,
      "d": 160.83333333334303,
      "v": 75
    },
    {
      "midi": 81,
      "hit": false,
      "t": 168945.00000000026,
      "d": 105,
      "v": 86
    },
    {
      "midi": 69,
      "hit": false,
      "t": 168947.50000000026,
      "d": 72.5,
      "v": 89
    },
    {
      "midi": 74,
      "hit": false,
      "t": 168953.3333333336,
      "d": 132.5,
      "v": 65
    },
    {
      "midi": 70,
      "hit": false,
      "t": 169192.50000000026,
      "d": 99.16666666665697,
      "v": 99
    },
    {
      "midi": 43,
      "hit": false,
      "t": 169200.00000000026,
      "d": 77.5,
      "v": 95
    },
    {
      "midi": 31,
      "hit": false,
      "t": 169200.00000000026,
      "d": 95.83333333331393,
      "v": 99
    },
    {
      "midi": 76,
      "hit": false,
      "t": 169206.66666666692,
      "d": 129.16666666665697,
      "v": 67
    },
    {
      "midi": 74,
      "hit": false,
      "t": 169206.66666666692,
      "d": 130.83333333331393,
      "v": 57
    },
    {
      "midi": 82,
      "hit": false,
      "t": 169213.33333333358,
      "d": 104.16666666665697,
      "v": 99
    },
    {
      "midi": 76,
      "hit": false,
      "t": 169420.00000000023,
      "d": 151.66666666668607,
      "v": 55
    },
    {
      "midi": 70,
      "hit": false,
      "t": 169425.83333333358,
      "d": 94.16666666668607,
      "v": 78
    },
    {
      "midi": 74,
      "hit": false,
      "t": 169430.83333333358,
      "d": 136.66666666668607,
      "v": 42
    },
    {
      "midi": 82,
      "hit": false,
      "t": 169434.16666666692,
      "d": 117.5,
      "v": 77
    },
    {
      "midi": 70,
      "hit": false,
      "t": 169673.33333333358,
      "d": 100,
      "v": 86
    },
    {
      "midi": 82,
      "hit": false,
      "t": 169676.66666666692,
      "d": 124.9999999999709,
      "v": 86
    },
    {
      "midi": 76,
      "hit": false,
      "t": 169681.66666666692,
      "d": 135.83333333331393,
      "v": 65
    },
    {
      "midi": 74,
      "hit": false,
      "t": 169693.33333333358,
      "d": 114.16666666665697,
      "v": 57
    },
    {
      "midi": 31,
      "hit": false,
      "t": 169697.50000000023,
      "d": 85,
      "v": 89
    },
    {
      "midi": 43,
      "hit": false,
      "t": 169702.50000000023,
      "d": 68.33333333334303,
      "v": 89
    },
    {
      "midi": 83,
      "hit": false,
      "t": 169927.50000000023,
      "d": 130.83333333331393,
      "v": 99
    },
    {
      "midi": 71,
      "hit": false,
      "t": 169931.6666666669,
      "d": 90.83333333331393,
      "v": 89
    },
    {
      "midi": 74,
      "hit": false,
      "t": 169943.33333333355,
      "d": 123.33333333334303,
      "v": 75
    },
    {
      "midi": 44,
      "hit": false,
      "t": 169945.83333333355,
      "d": 91.66666666665697,
      "v": 114
    },
    {
      "midi": 32,
      "hit": false,
      "t": 169952.5000000002,
      "d": 88.33333333334303,
      "v": 105
    },
    {
      "midi": 74,
      "hit": false,
      "t": 170185.83333333355,
      "d": 130.83333333331393,
      "v": 73
    },
    {
      "midi": 83,
      "hit": false,
      "t": 170190.0000000002,
      "d": 122.5,
      "v": 92
    },
    {
      "midi": 71,
      "hit": false,
      "t": 170193.33333333355,
      "d": 67.5,
      "v": 78
    },
    {
      "midi": 74,
      "hit": false,
      "t": 170425.83333333352,
      "d": 116.66666666665697,
      "v": 77
    },
    {
      "midi": 71,
      "hit": false,
      "t": 170431.66666666686,
      "d": 71.66666666665697,
      "v": 99
    },
    {
      "midi": 83,
      "hit": false,
      "t": 170433.33333333352,
      "d": 143.33333333331393,
      "v": 102
    },
    {
      "midi": 32,
      "hit": false,
      "t": 170440.83333333352,
      "d": 116.66666666665697,
      "v": 86
    },
    {
      "midi": 39,
      "hit": false,
      "t": 170440.83333333352,
      "d": 140.83333333331393,
      "v": 78
    },
    {
      "midi": 40,
      "hit": false,
      "t": 170680.8333333335,
      "d": 522.4999999999709,
      "v": 102
    },
    {
      "midi": 33,
      "hit": false,
      "t": 170685.8333333335,
      "d": 231.66666666665697,
      "v": 95
    },
    {
      "midi": 87,
      "hit": false,
      "t": 170937.50000000015,
      "d": 70,
      "v": 95
    },
    {
      "midi": 81,
      "hit": false,
      "t": 170945.00000000015,
      "d": 58.333333333343035,
      "v": 102
    },
    {
      "midi": 88,
      "hit": false,
      "t": 170947.50000000015,
      "d": 79.16666666665697,
      "v": 89
    },
    {
      "midi": 93,
      "hit": false,
      "t": 170953.3333333335,
      "d": 68.33333333331393,
      "v": 102
    },
    {
      "midi": 33,
      "hit": false,
      "t": 171177.50000000015,
      "d": 429.16666666662786,
      "v": 77
    },
    {
      "midi": 88,
      "hit": false,
      "t": 171185.8333333335,
      "d": 94.9999999999709,
      "v": 83
    },
    {
      "midi": 81,
      "hit": false,
      "t": 171187.50000000015,
      "d": 64.9999999999709,
      "v": 92
    },
    {
      "midi": 93,
      "hit": false,
      "t": 171191.6666666668,
      "d": 83.33333333331393,
      "v": 92
    },
    {
      "midi": 42,
      "hit": false,
      "t": 171445.83333333346,
      "d": 189.9999999999709,
      "v": 108
    },
    {
      "midi": 81,
      "hit": false,
      "t": 171448.33333333346,
      "d": 89.16666666665697,
      "v": 105
    },
    {
      "midi": 88,
      "hit": false,
      "t": 171450.00000000012,
      "d": 105,
      "v": 89
    },
    {
      "midi": 93,
      "hit": false,
      "t": 171451.66666666677,
      "d": 99.16666666668607,
      "v": 105
    },
    {
      "midi": 88,
      "hit": false,
      "t": 171687.5000000001,
      "d": 92.5,
      "v": 77
    },
    {
      "midi": 81,
      "hit": false,
      "t": 171697.5000000001,
      "d": 63.333333333343035,
      "v": 79
    },
    {
      "midi": 93,
      "hit": false,
      "t": 171700.0000000001,
      "d": 70,
      "v": 77
    },
    {
      "midi": 33,
      "hit": false,
      "t": 171911.66666666674,
      "d": 200.83333333334303,
      "v": 75
    },
    {
      "midi": 40,
      "hit": false,
      "t": 171916.66666666674,
      "d": 240.83333333334303,
      "v": 78
    },
    {
      "midi": 88,
      "hit": false,
      "t": 171921.66666666674,
      "d": 94.16666666665697,
      "v": 83
    },
    {
      "midi": 81,
      "hit": false,
      "t": 171925.8333333334,
      "d": 70,
      "v": 89
    },
    {
      "midi": 93,
      "hit": false,
      "t": 171928.3333333334,
      "d": 95.83333333334303,
      "v": 79
    },
    {
      "midi": 33,
      "hit": false,
      "t": 172170.0000000001,
      "d": 192.4999999999709,
      "v": 73
    },
    {
      "midi": 43,
      "hit": false,
      "t": 172175.83333333343,
      "d": 179.9999999999709,
      "v": 86
    },
    {
      "midi": 88,
      "hit": false,
      "t": 172180.0000000001,
      "d": 109.9999999999709,
      "v": 105
    },
    {
      "midi": 81,
      "hit": false,
      "t": 172182.5000000001,
      "d": 83.33333333331393,
      "v": 108
    },
    {
      "midi": 93,
      "hit": false,
      "t": 172186.66666666674,
      "d": 113.33333333331393,
      "v": 102
    },
    {
      "midi": 88,
      "hit": false,
      "t": 172425.8333333334,
      "d": 100,
      "v": 73
    },
    {
      "midi": 81,
      "hit": false,
      "t": 172430.8333333334,
      "d": 75.83333333334303,
      "v": 83
    },
    {
      "midi": 93,
      "hit": false,
      "t": 172435.8333333334,
      "d": 85.83333333334303,
      "v": 78
    },
    {
      "midi": 40,
      "hit": false,
      "t": 172667.50000000006,
      "d": 264.16666666668607,
      "v": 78
    },
    {
      "midi": 88,
      "hit": false,
      "t": 172670.8333333334,
      "d": 110.83333333334303,
      "v": 86
    },
    {
      "midi": 81,
      "hit": false,
      "t": 172673.3333333334,
      "d": 77.5,
      "v": 92
    },
    {
      "midi": 93,
      "hit": false,
      "t": 172681.66666666674,
      "d": 104.16666666665697,
      "v": 86
    },
    {
      "midi": 33,
      "hit": false,
      "t": 172685.8333333334,
      "d": 110.83333333334303,
      "v": 71
    },
    {
      "midi": 33,
      "hit": false,
      "t": 172910.0000000001,
      "d": 123.33333333331393,
      "v": 78
    },
    {
      "midi": 42,
      "hit": false,
      "t": 172912.5000000001,
      "d": 149.16666666665697,
      "v": 111
    },
    {
      "midi": 88,
      "hit": false,
      "t": 172917.5000000001,
      "d": 98.33333333331393,
      "v": 67
    },
    {
      "midi": 81,
      "hit": false,
      "t": 172922.5000000001,
      "d": 78.33333333331393,
      "v": 86
    },
    {
      "midi": 93,
      "hit": false,
      "t": 172922.5000000001,
      "d": 83.33333333331393,
      "v": 77
    },
    {
      "midi": 79,
      "hit": false,
      "t": 173157.5000000001,
      "d": 63.33333333331393,
      "v": 89
    },
    {
      "midi": 91,
      "hit": false,
      "t": 173161.66666666674,
      "d": 64.16666666665697,
      "v": 89
    },
    {
      "midi": 78,
      "hit": false,
      "t": 173380.8333333334,
      "d": 70,
      "v": 92
    },
    {
      "midi": 90,
      "hit": false,
      "t": 173385.00000000006,
      "d": 68.33333333334303,
      "v": 86
    },
    {
      "midi": 32,
      "hit": false,
      "t": 173388.3333333334,
      "d": 144.16666666665697,
      "v": 86
    },
    {
      "midi": 39,
      "hit": false,
      "t": 173390.8333333334,
      "d": 154.16666666665697,
      "v": 86
    },
    {
      "midi": 40,
      "hit": false,
      "t": 173640.00000000006,
      "d": 251.66666666671517,
      "v": 95
    },
    {
      "midi": 33,
      "hit": false,
      "t": 173643.3333333334,
      "d": 162.5000000000291,
      "v": 95
    },
    {
      "midi": 76,
      "hit": false,
      "t": 173648.3333333334,
      "d": 65.83333333334303,
      "v": 102
    },
    {
      "midi": 88,
      "hit": false,
      "t": 173653.3333333334,
      "d": 66.66666666668607,
      "v": 105
    },
    {
      "midi": 72,
      "hit": false,
      "t": 173896.66666666677,
      "d": 40.83333333331393,
      "v": 79
    },
    {
      "midi": 84,
      "hit": false,
      "t": 173898.33333333343,
      "d": 47.5,
      "v": 86
    },
    {
      "midi": 73,
      "hit": false,
      "t": 174113.33333333343,
      "d": 59.16666666668607,
      "v": 78
    },
    {
      "midi": 85,
      "hit": false,
      "t": 174120.83333333343,
      "d": 46.66666666668607,
      "v": 89
    },
    {
      "midi": 33,
      "hit": false,
      "t": 174124.16666666677,
      "d": 187.5,
      "v": 71
    },
    {
      "midi": 40,
      "hit": false,
      "t": 174142.50000000012,
      "d": 192.5,
      "v": 54
    },
    {
      "midi": 75,
      "hit": false,
      "t": 174366.66666666677,
      "d": 108.33333333337214,
      "v": 74
    },
    {
      "midi": 69,
      "hit": false,
      "t": 174382.50000000012,
      "d": 84.16666666668607,
      "v": 89
    },
    {
      "midi": 76,
      "hit": false,
      "t": 174382.50000000012,
      "d": 119.16666666668607,
      "v": 75
    },
    {
      "midi": 33,
      "hit": false,
      "t": 174382.50000000012,
      "d": 142.5000000000291,
      "v": 74
    },
    {
      "midi": 42,
      "hit": false,
      "t": 174382.50000000012,
      "d": 180.83333333337214,
      "v": 105
    },
    {
      "midi": 81,
      "hit": false,
      "t": 174395.83333333346,
      "d": 90,
      "v": 89
    },
    {
      "midi": 79,
      "hit": false,
      "t": 174635.8333333335,
      "d": 64.16666666665697,
      "v": 92
    },
    {
      "midi": 67,
      "hit": false,
      "t": 174640.00000000015,
      "d": 51.666666666656965,
      "v": 78
    },
    {
      "midi": 33,
      "hit": false,
      "t": 174840.8333333335,
      "d": 155,
      "v": 70
    },
    {
      "midi": 40,
      "hit": false,
      "t": 174847.50000000015,
      "d": 252.5,
      "v": 74
    },
    {
      "midi": 78,
      "hit": false,
      "t": 174865.00000000015,
      "d": 56.666666666656965,
      "v": 78
    },
    {
      "midi": 66,
      "hit": false,
      "t": 174870.00000000015,
      "d": 55,
      "v": 78
    },
    {
      "midi": 33,
      "hit": false,
      "t": 175103.3333333335,
      "d": 249.16666666665697,
      "v": 79
    },
    {
      "midi": 64,
      "hit": false,
      "t": 175121.66666666683,
      "d": 68.33333333331393,
      "v": 95
    },
    {
      "midi": 76,
      "hit": false,
      "t": 175121.66666666683,
      "d": 75.83333333331393,
      "v": 102
    },
    {
      "midi": 43,
      "hit": false,
      "t": 175121.66666666683,
      "d": 201.66666666665697,
      "v": 92
    },
    {
      "midi": 60,
      "hit": false,
      "t": 175372.50000000015,
      "d": 60,
      "v": 86
    },
    {
      "midi": 72,
      "hit": false,
      "t": 175377.50000000015,
      "d": 53.333333333343035,
      "v": 92
    },
    {
      "midi": 61,
      "hit": false,
      "t": 175590.00000000015,
      "d": 51.666666666656965,
      "v": 78
    },
    {
      "midi": 73,
      "hit": false,
      "t": 175595.00000000015,
      "d": 40.83333333331393,
      "v": 78
    },
    {
      "midi": 40,
      "hit": false,
      "t": 175597.50000000015,
      "d": 259.9999999999418,
      "v": 77
    },
    {
      "midi": 33,
      "hit": false,
      "t": 175606.6666666668,
      "d": 124.16666666665697,
      "v": 70
    },
    {
      "midi": 42,
      "hit": false,
      "t": 175841.66666666677,
      "d": 319.16666666665697,
      "v": 99
    },
    {
      "midi": 33,
      "hit": false,
      "t": 175845.83333333343,
      "d": 277.4999999999709,
      "v": 77
    },
    {
      "midi": 57,
      "hit": false,
      "t": 175857.5000000001,
      "d": 54.166666666656965,
      "v": 99
    },
    {
      "midi": 69,
      "hit": false,
      "t": 175857.5000000001,
      "d": 55.83333333331393,
      "v": 92
    },
    {
      "midi": 57,
      "hit": false,
      "t": 176087.50000000006,
      "d": 64.16666666668607,
      "v": 92
    },
    {
      "midi": 69,
      "hit": false,
      "t": 176090.8333333334,
      "d": 66.66666666668607,
      "v": 92
    },
    {
      "midi": 33,
      "hit": false,
      "t": 176312.5000000001,
      "d": 127.5,
      "v": 71
    },
    {
      "midi": 40,
      "hit": false,
      "t": 176316.66666666674,
      "d": 209.16666666668607,
      "v": 78
    },
    {
      "midi": 71,
      "hit": false,
      "t": 176320.8333333334,
      "d": 84.16666666668607,
      "v": 99
    },
    {
      "midi": 59,
      "hit": false,
      "t": 176323.3333333334,
      "d": 58.333333333343035,
      "v": 105
    },
    {
      "midi": 38,
      "hit": false,
      "t": 176566.66666666677,
      "d": 163.33333333331393,
      "v": 92
    },
    {
      "midi": 45,
      "hit": false,
      "t": 176568.33333333343,
      "d": 277.5,
      "v": 95
    },
    {
      "midi": 60,
      "hit": false,
      "t": 176572.5000000001,
      "d": 69.16666666665697,
      "v": 105
    },
    {
      "midi": 72,
      "hit": false,
      "t": 176578.33333333343,
      "d": 116.66666666665697,
      "v": 108
    },
    {
      "midi": 66,
      "hit": false,
      "t": 176578.33333333343,
      "d": 187.5,
      "v": 99
    },
    {
      "midi": 69,
      "hit": false,
      "t": 176587.5000000001,
      "d": 132.5,
      "v": 66
    },
    {
      "midi": 60,
      "hit": false,
      "t": 176710.0000000001,
      "d": 107.5,
      "v": 56
    },
    {
      "midi": 69,
      "hit": false,
      "t": 176787.5000000001,
      "d": 98.33333333334303,
      "v": 59
    },
    {
      "midi": 66,
      "hit": false,
      "t": 176922.5000000001,
      "d": 63.33333333331393,
      "v": 70
    },
    {
      "midi": 60,
      "hit": false,
      "t": 176926.66666666674,
      "d": 90.83333333331393,
      "v": 71
    },
    {
      "midi": 69,
      "hit": false,
      "t": 176987.50000000006,
      "d": 66.66666666665697,
      "v": 65
    },
    {
      "midi": 60,
      "hit": false,
      "t": 177070.00000000006,
      "d": 2075.833333333314,
      "v": 61
    },
    {
      "midi": 66,
      "hit": false,
      "t": 177086.66666666672,
      "d": 73.33333333331393,
      "v": 62
    },
    {
      "midi": 38,
      "hit": false,
      "t": 177108.33333333337,
      "d": 124.16666666665697,
      "v": 70
    },
    {
      "midi": 45,
      "hit": false,
      "t": 177112.50000000003,
      "d": 169.16666666665697,
      "v": 77
    },
    {
      "midi": 69,
      "hit": false,
      "t": 177140.00000000003,
      "d": 92.5,
      "v": 66
    },
    {
      "midi": 66,
      "hit": false,
      "t": 177226.6666666667,
      "d": 79.16666666665697,
      "v": 66
    },
    {
      "midi": 69,
      "hit": false,
      "t": 177311.66666666666,
      "d": 83.33333333337214,
      "v": 67
    },
    {
      "midi": 47,
      "hit": false,
      "t": 177355,
      "d": 277.5,
      "v": 108
    },
    {
      "midi": 38,
      "hit": false,
      "t": 177360,
      "d": 255,
      "v": 79
    },
    {
      "midi": 72,
      "hit": false,
      "t": 177365.83333333334,
      "d": 25.833333333343035,
      "v": 57
    },
    {
      "midi": 66,
      "hit": false,
      "t": 177386.6666666667,
      "d": 93.33333333331393,
      "v": 66
    },
    {
      "midi": 69,
      "hit": false,
      "t": 177475.83333333334,
      "d": 81.66666666665697,
      "v": 54
    },
    {
      "midi": 66,
      "hit": false,
      "t": 177545,
      "d": 97.5,
      "v": 79
    },
    {
      "midi": 69,
      "hit": false,
      "t": 177630,
      "d": 71.66666666665697,
      "v": 56
    },
    {
      "midi": 66,
      "hit": false,
      "t": 177708.3333333333,
      "d": 98.33333333334303,
      "v": 78
    },
    {
      "midi": 69,
      "hit": false,
      "t": 177788.3333333333,
      "d": 59.16666666668607,
      "v": 45
    },
    {
      "midi": 38,
      "hit": false,
      "t": 177830.8333333333,
      "d": 132.5000000000291,
      "v": 70
    },
    {
      "midi": 45,
      "hit": false,
      "t": 177836.66666666666,
      "d": 205.0000000000291,
      "v": 78
    },
    {
      "midi": 66,
      "hit": false,
      "t": 177860,
      "d": 84.16666666668607,
      "v": 69
    },
    {
      "midi": 69,
      "hit": false,
      "t": 177928.33333333334,
      "d": 83.33333333334303,
      "v": 59
    },
    {
      "midi": 66,
      "hit": false,
      "t": 178020.83333333334,
      "d": 80.0000000000291,
      "v": 74
    },
    {
      "midi": 69,
      "hit": false,
      "t": 178092.50000000003,
      "d": 64.16666666665697,
      "v": 54
    },
    {
      "midi": 38,
      "hit": false,
      "t": 178102.50000000003,
      "d": 247.5,
      "v": 75
    },
    {
      "midi": 48,
      "hit": false,
      "t": 178107.50000000003,
      "d": 250,
      "v": 114
    },
    {
      "midi": 66,
      "hit": false,
      "t": 178165.83333333334,
      "d": 91.66666666668607,
      "v": 79
    },
    {
      "midi": 69,
      "hit": false,
      "t": 178241.6666666667,
      "d": 80,
      "v": 55
    },
    {
      "midi": 66,
      "hit": false,
      "t": 178317.50000000003,
      "d": 90,
      "v": 75
    },
    {
      "midi": 69,
      "hit": false,
      "t": 178385.83333333337,
      "d": 55.83333333331393,
      "v": 56
    },
    {
      "midi": 66,
      "hit": false,
      "t": 178471.6666666667,
      "d": 88.33333333334303,
      "v": 77
    },
    {
      "midi": 69,
      "hit": false,
      "t": 178520.00000000003,
      "d": 94.16666666668607,
      "v": 51
    },
    {
      "midi": 38,
      "hit": false,
      "t": 178570.00000000003,
      "d": 142.5000000000291,
      "v": 75
    },
    {
      "midi": 45,
      "hit": false,
      "t": 178570.83333333337,
      "d": 254.16666666668607,
      "v": 86
    },
    {
      "midi": 66,
      "hit": false,
      "t": 178620.00000000006,
      "d": 86.66666666665697,
      "v": 74
    },
    {
      "midi": 69,
      "hit": false,
      "t": 178680.00000000006,
      "d": 81.66666666665697,
      "v": 55
    },
    {
      "midi": 66,
      "hit": false,
      "t": 178765.00000000006,
      "d": 86.66666666665697,
      "v": 74
    },
    {
      "midi": 38,
      "hit": false,
      "t": 178862.50000000006,
      "d": 131.66666666668607,
      "v": 79
    },
    {
      "midi": 47,
      "hit": false,
      "t": 178865.00000000006,
      "d": 292.4999999999709,
      "v": 114
    },
    {
      "midi": 72,
      "hit": false,
      "t": 178870.8333333334,
      "d": 51.66666666668607,
      "v": 62
    },
    {
      "midi": 66,
      "hit": false,
      "t": 178906.66666666674,
      "d": 90,
      "v": 86
    },
    {
      "midi": 69,
      "hit": false,
      "t": 178941.66666666674,
      "d": 90,
      "v": 55
    },
    {
      "midi": 66,
      "hit": false,
      "t": 179055.8333333334,
      "d": 80.83333333331393,
      "v": 77
    },
    {
      "midi": 69,
      "hit": false,
      "t": 179125.00000000006,
      "d": 44.999999999970896,
      "v": 39
    },
    {
      "midi": 60,
      "hit": false,
      "t": 179217.50000000003,
      "d": 145.83333333334303,
      "v": 50
    },
    {
      "midi": 66,
      "hit": false,
      "t": 179222.50000000003,
      "d": 102.5,
      "v": 67
    },
    {
      "midi": 44,
      "hit": false,
      "t": 179270.00000000003,
      "d": 137.5000000000291,
      "v": 92
    },
    {
      "midi": 37,
      "hit": false,
      "t": 179273.33333333337,
      "d": 114.16666666668607,
      "v": 86
    },
    {
      "midi": 69,
      "hit": false,
      "t": 179277.50000000003,
      "d": 143.33333333337214,
      "v": 56
    },
    {
      "midi": 72,
      "hit": false,
      "t": 179310.00000000003,
      "d": 71.66666666668607,
      "v": 65
    },
    {
      "midi": 60,
      "hit": false,
      "t": 179545.00000000006,
      "d": 274.16666666662786,
      "v": 86
    },
    {
      "midi": 65,
      "hit": false,
      "t": 179552.50000000006,
      "d": 73.33333333331393,
      "v": 95
    },
    {
      "midi": 38,
      "hit": false,
      "t": 179556.66666666672,
      "d": 240.83333333331393,
      "v": 99
    },
    {
      "midi": 45,
      "hit": false,
      "t": 179556.66666666672,
      "d": 277.4999999999709,
      "v": 105
    },
    {
      "midi": 72,
      "hit": false,
      "t": 179563.33333333337,
      "d": 141.66666666665697,
      "v": 99
    },
    {
      "midi": 69,
      "hit": false,
      "t": 179575.00000000003,
      "d": 140.83333333334303,
      "v": 71
    },
    {
      "midi": 65,
      "hit": false,
      "t": 179712.50000000003,
      "d": 104.16666666665697,
      "v": 55
    },
    {
      "midi": 69,
      "hit": false,
      "t": 179820.83333333334,
      "d": 79.16666666668607,
      "v": 74
    },
    {
      "midi": 60,
      "hit": false,
      "t": 179925.00000000003,
      "d": 103.33333333334303,
      "v": 56
    },
    {
      "midi": 65,
      "hit": false,
      "t": 179927.50000000003,
      "d": 70,
      "v": 54
    },
    {
      "midi": 69,
      "hit": false,
      "t": 180000.00000000003,
      "d": 93.33333333334303,
      "v": 61
    },
    {
      "midi": 72,
      "hit": false,
      "t": 180025.83333333337,
      "d": 71.66666666665697,
      "v": 43
    },
    {
      "midi": 45,
      "hit": false,
      "t": 180058.33333333337,
      "d": 217.5,
      "v": 83
    },
    {
      "midi": 38,
      "hit": false,
      "t": 180060.83333333337,
      "d": 144.16666666665697,
      "v": 71
    },
    {
      "midi": 65,
      "hit": false,
      "t": 180085.83333333337,
      "d": 105,
      "v": 54
    },
    {
      "midi": 60,
      "hit": false,
      "t": 180090.00000000003,
      "d": 120.83333333334303,
      "v": 49
    },
    {
      "midi": 69,
      "hit": false,
      "t": 180180.83333333337,
      "d": 91.66666666665697,
      "v": 59
    },
    {
      "midi": 72,
      "hit": false,
      "t": 180195.00000000003,
      "d": 60.833333333343035,
      "v": 32
    },
    {
      "midi": 60,
      "hit": false,
      "t": 180257.50000000003,
      "d": 1677.4999999999418,
      "v": 45
    },
    {
      "midi": 65,
      "hit": false,
      "t": 180269.1666666667,
      "d": 109.16666666668607,
      "v": 59
    },
    {
      "midi": 38,
      "hit": false,
      "t": 180331.66666666672,
      "d": 234.16666666665697,
      "v": 77
    },
    {
      "midi": 47,
      "hit": false,
      "t": 180338.33333333337,
      "d": 283.33333333331393,
      "v": 111
    },
    {
      "midi": 69,
      "hit": false,
      "t": 180353.33333333337,
      "d": 99.16666666665697,
      "v": 60
    },
    {
      "midi": 72,
      "hit": false,
      "t": 180365.00000000003,
      "d": 100.83333333334303,
      "v": 63
    },
    {
      "midi": 65,
      "hit": false,
      "t": 180440.00000000003,
      "d": 107.5,
      "v": 67
    },
    {
      "midi": 69,
      "hit": false,
      "t": 180530.00000000003,
      "d": 90,
      "v": 57
    },
    {
      "midi": 65,
      "hit": false,
      "t": 180610.00000000003,
      "d": 102.5,
      "v": 66
    },
    {
      "midi": 69,
      "hit": false,
      "t": 180722.50000000003,
      "d": 50.833333333343035,
      "v": 45
    },
    {
      "midi": 72,
      "hit": false,
      "t": 180730.83333333337,
      "d": 75.83333333331393,
      "v": 44
    },
    {
      "midi": 65,
      "hit": false,
      "t": 180778.33333333337,
      "d": 109.16666666662786,
      "v": 65
    },
    {
      "midi": 45,
      "hit": false,
      "t": 180802.50000000003,
      "d": 224.16666666665697,
      "v": 86
    },
    {
      "midi": 38,
      "hit": false,
      "t": 180808.33333333334,
      "d": 135,
      "v": 75
    },
    {
      "midi": 69,
      "hit": false,
      "t": 180860,
      "d": 105.83333333334303,
      "v": 55
    },
    {
      "midi": 65,
      "hit": false,
      "t": 180955.83333333334,
      "d": 91.66666666665697,
      "v": 63
    },
    {
      "midi": 69,
      "hit": false,
      "t": 181030.83333333334,
      "d": 70,
      "v": 56
    },
    {
      "midi": 48,
      "hit": false,
      "t": 181083.33333333334,
      "d": 360,
      "v": 111
    },
    {
      "midi": 38,
      "hit": false,
      "t": 181090,
      "d": 282.5,
      "v": 83
    },
    {
      "midi": 72,
      "hit": false,
      "t": 181097.5,
      "d": 155,
      "v": 44
    },
    {
      "midi": 65,
      "hit": false,
      "t": 181112.5,
      "d": 88.33333333334303,
      "v": 70
    },
    {
      "midi": 69,
      "hit": false,
      "t": 181177.5,
      "d": 62.5,
      "v": 42
    },
    {
      "midi": 65,
      "hit": false,
      "t": 181255,
      "d": 90,
      "v": 66
    },
    {
      "midi": 69,
      "hit": false,
      "t": 181305,
      "d": 160.83333333334303,
      "v": 52
    },
    {
      "midi": 65,
      "hit": false,
      "t": 181402.5,
      "d": 85,
      "v": 67
    },
    {
      "midi": 72,
      "hit": false,
      "t": 181480,
      "d": 135,
      "v": 62
    },
    {
      "midi": 69,
      "hit": false,
      "t": 181561.66666666666,
      "d": 95,
      "v": 56
    },
    {
      "midi": 45,
      "hit": false,
      "t": 181580,
      "d": 268.33333333331393,
      "v": 92
    },
    {
      "midi": 38,
      "hit": false,
      "t": 181583.33333333334,
      "d": 123.33333333331393,
      "v": 77
    },
    {
      "midi": 65,
      "hit": false,
      "t": 181625,
      "d": 121.66666666665697,
      "v": 66
    },
    {
      "midi": 69,
      "hit": false,
      "t": 181721.66666666666,
      "d": 120,
      "v": 60
    },
    {
      "midi": 65,
      "hit": false,
      "t": 181817.5,
      "d": 119.16666666662786,
      "v": 63
    },
    {
      "midi": 38,
      "hit": false,
      "t": 181837.5,
      "d": 124.9999999999709,
      "v": 83
    },
    {
      "midi": 47,
      "hit": false,
      "t": 181844.16666666666,
      "d": 110.83333333331393,
      "v": 114
    },
    {
      "midi": 72,
      "hit": false,
      "t": 181859.99999999997,
      "d": 108.33333333334303,
      "v": 1
    },
    {
      "midi": 69,
      "hit": false,
      "t": 181887.49999999997,
      "d": 87.5,
      "v": 67
    },
    {
      "midi": 65,
      "hit": false,
      "t": 182081.66666666663,
      "d": 134.16666666662786,
      "v": 86
    },
    {
      "midi": 60,
      "hit": false,
      "t": 182086.66666666663,
      "d": 79.9999999999709,
      "v": 77
    },
    {
      "midi": 69,
      "hit": false,
      "t": 182090.83333333328,
      "d": 119.16666666662786,
      "v": 71
    },
    {
      "midi": 72,
      "hit": false,
      "t": 182094.99999999994,
      "d": 100.83333333331393,
      "v": 92
    },
    {
      "midi": 44,
      "hit": false,
      "t": 182296.6666666666,
      "d": 75,
      "v": 108
    },
    {
      "midi": 32,
      "hit": false,
      "t": 182302.49999999994,
      "d": 52.5,
      "v": 92
    },
    {
      "midi": 60,
      "hit": false,
      "t": 182314.99999999994,
      "d": 90.83333333331393,
      "v": 77
    },
    {
      "midi": 64,
      "hit": false,
      "t": 182572.49999999994,
      "d": 115.83333333334303,
      "v": 83
    },
    {
      "midi": 57,
      "hit": false,
      "t": 182578.33333333328,
      "d": 63.333333333343035,
      "v": 102
    },
    {
      "midi": 61,
      "hit": false,
      "t": 182580.83333333328,
      "d": 86.66666666668607,
      "v": 89
    },
    {
      "midi": 45,
      "hit": false,
      "t": 182585.83333333328,
      "d": 641.666666666657,
      "v": 108
    },
    {
      "midi": 33,
      "hit": false,
      "t": 182588.33333333328,
      "d": 950,
      "v": 99
    },
    {
      "midi": 69,
      "hit": false,
      "t": 182591.66666666663,
      "d": 90,
      "v": 92
    },
    {
      "midi": 63,
      "hit": false,
      "t": 182815.83333333328,
      "d": 34.166666666656965,
      "v": 78
    },
    {
      "midi": 64,
      "hit": false,
      "t": 182872.49999999994,
      "d": 37.5,
      "v": 50
    },
    {
      "midi": 64,
      "hit": false,
      "t": 183075.83333333328,
      "d": 82.5,
      "v": 73
    },
    {
      "midi": 73,
      "hit": false,
      "t": 183078.33333333328,
      "d": 82.5,
      "v": 86
    },
    {
      "midi": 61,
      "hit": false,
      "t": 183082.49999999994,
      "d": 52.5,
      "v": 69
    },
    {
      "midi": 73,
      "hit": false,
      "t": 183337.49999999994,
      "d": 105.83333333334303,
      "v": 95
    },
    {
      "midi": 64,
      "hit": false,
      "t": 183340.83333333328,
      "d": 106.66666666665697,
      "v": 89
    },
    {
      "midi": 61,
      "hit": false,
      "t": 183341.66666666663,
      "d": 80,
      "v": 99
    },
    {
      "midi": 45,
      "hit": false,
      "t": 183348.33333333328,
      "d": 164.16666666665697,
      "v": 111
    },
    {
      "midi": 64,
      "hit": false,
      "t": 183594.99999999994,
      "d": 130,
      "v": 69
    },
    {
      "midi": 73,
      "hit": false,
      "t": 183601.6666666666,
      "d": 110.83333333334303,
      "v": 79
    },
    {
      "midi": 61,
      "hit": false,
      "t": 183607.49999999994,
      "d": 69.16666666665697,
      "v": 74
    },
    {
      "midi": 33,
      "hit": false,
      "t": 183851.6666666666,
      "d": 105,
      "v": 89
    },
    {
      "midi": 45,
      "hit": false,
      "t": 183853.33333333326,
      "d": 90,
      "v": 99
    },
    {
      "midi": 73,
      "hit": false,
      "t": 183856.6666666666,
      "d": 125.83333333334303,
      "v": 74
    },
    {
      "midi": 64,
      "hit": false,
      "t": 183858.33333333326,
      "d": 121.66666666668607,
      "v": 71
    },
    {
      "midi": 61,
      "hit": false,
      "t": 183864.9999999999,
      "d": 88.33333333334303,
      "v": 71
    },
    {
      "midi": 73,
      "hit": false,
      "t": 184107.49999999994,
      "d": 108.33333333331393,
      "v": 71
    },
    {
      "midi": 44,
      "hit": false,
      "t": 184111.6666666666,
      "d": 593.3333333332557,
      "v": 114
    },
    {
      "midi": 61,
      "hit": false,
      "t": 184115.83333333326,
      "d": 84.16666666665697,
      "v": 79
    },
    {
      "midi": 32,
      "hit": false,
      "t": 184115.83333333326,
      "d": 932.4999999999127,
      "v": 114
    },
    {
      "midi": 65,
      "hit": false,
      "t": 184123.33333333326,
      "d": 106.66666666665697,
      "v": 61
    },
    {
      "midi": 68,
      "hit": false,
      "t": 184123.33333333326,
      "d": 122.5,
      "v": 79
    },
    {
      "midi": 65,
      "hit": false,
      "t": 184347.4999999999,
      "d": 119.99999999994179,
      "v": 70
    },
    {
      "midi": 61,
      "hit": false,
      "t": 184356.66666666657,
      "d": 78.33333333331393,
      "v": 77
    },
    {
      "midi": 73,
      "hit": false,
      "t": 184358.33333333323,
      "d": 93.33333333331393,
      "v": 74
    },
    {
      "midi": 68,
      "hit": false,
      "t": 184362.49999999988,
      "d": 103.33333333331393,
      "v": 77
    },
    {
      "midi": 65,
      "hit": false,
      "t": 184595.8333333332,
      "d": 125,
      "v": 70
    },
    {
      "midi": 73,
      "hit": false,
      "t": 184597.49999999985,
      "d": 110.83333333334303,
      "v": 78
    },
    {
      "midi": 61,
      "hit": false,
      "t": 184599.99999999985,
      "d": 82.5,
      "v": 79
    },
    {
      "midi": 68,
      "hit": false,
      "t": 184604.99999999985,
      "d": 123.33333333334303,
      "v": 74
    },
    {
      "midi": 68,
      "hit": false,
      "t": 184859.99999999985,
      "d": 135.83333333328483,
      "v": 74
    },
    {
      "midi": 73,
      "hit": false,
      "t": 184861.6666666665,
      "d": 117.4999999999709,
      "v": 79
    },
    {
      "midi": 65,
      "hit": false,
      "t": 184863.33333333317,
      "d": 133.33333333331393,
      "v": 78
    },
    {
      "midi": 61,
      "hit": false,
      "t": 184869.99999999983,
      "d": 84.16666666665697,
      "v": 86
    },
    {
      "midi": 44,
      "hit": false,
      "t": 184869.99999999983,
      "d": 150,
      "v": 114
    },
    {
      "midi": 73,
      "hit": false,
      "t": 185106.6666666665,
      "d": 116.66666666668607,
      "v": 71
    },
    {
      "midi": 61,
      "hit": false,
      "t": 185109.99999999985,
      "d": 87.5,
      "v": 89
    },
    {
      "midi": 68,
      "hit": false,
      "t": 185117.49999999985,
      "d": 119.16666666668607,
      "v": 74
    },
    {
      "midi": 65,
      "hit": false,
      "t": 185119.99999999985,
      "d": 128.33333333334303,
      "v": 69
    },
    {
      "midi": 73,
      "hit": false,
      "t": 185354.99999999985,
      "d": 125,
      "v": 63
    },
    {
      "midi": 32,
      "hit": false,
      "t": 185357.49999999985,
      "d": 101.66666666665697,
      "v": 92
    },
    {
      "midi": 61,
      "hit": false,
      "t": 185361.6666666665,
      "d": 90.83333333334303,
      "v": 89
    },
    {
      "midi": 44,
      "hit": false,
      "t": 185362.49999999985,
      "d": 77.5,
      "v": 111
    },
    {
      "midi": 65,
      "hit": false,
      "t": 185367.49999999985,
      "d": 96.66666666665697,
      "v": 74
    },
    {
      "midi": 68,
      "hit": false,
      "t": 185373.3333333332,
      "d": 87.4999999999709,
      "v": 77
    },
    {
      "midi": 73,
      "hit": false,
      "t": 185615.8333333332,
      "d": 114.16666666665697,
      "v": 67
    },
    {
      "midi": 61,
      "hit": false,
      "t": 185618.3333333332,
      "d": 101.66666666665697,
      "v": 95
    },
    {
      "midi": 64,
      "hit": false,
      "t": 185621.66666666654,
      "d": 124.16666666665697,
      "v": 77
    },
    {
      "midi": 66,
      "hit": false,
      "t": 185626.66666666654,
      "d": 133.33333333331393,
      "v": 79
    },
    {
      "midi": 69,
      "hit": false,
      "t": 185626.66666666654,
      "d": 140.83333333331393,
      "v": 70
    },
    {
      "midi": 30,
      "hit": false,
      "t": 185635.8333333332,
      "d": 185,
      "v": 105
    },
    {
      "midi": 42,
      "hit": false,
      "t": 185639.99999999985,
      "d": 877.4999999999709,
      "v": 114
    },
    {
      "midi": 61,
      "hit": false,
      "t": 185872.49999999988,
      "d": 86.66666666665697,
      "v": 70
    },
    {
      "midi": 66,
      "hit": false,
      "t": 185874.99999999988,
      "d": 117.5,
      "v": 45
    },
    {
      "midi": 64,
      "hit": false,
      "t": 185880.83333333323,
      "d": 105.83333333331393,
      "v": 59
    },
    {
      "midi": 69,
      "hit": false,
      "t": 185885.83333333323,
      "d": 120,
      "v": 56
    },
    {
      "midi": 73,
      "hit": false,
      "t": 185889.99999999988,
      "d": 76.66666666665697,
      "v": 52
    },
    {
      "midi": 64,
      "hit": false,
      "t": 186124.99999999988,
      "d": 129.9999999999709,
      "v": 60
    },
    {
      "midi": 73,
      "hit": false,
      "t": 186126.66666666654,
      "d": 104.16666666665697,
      "v": 67
    },
    {
      "midi": 66,
      "hit": false,
      "t": 186130.8333333332,
      "d": 130.83333333331393,
      "v": 67
    },
    {
      "midi": 61,
      "hit": false,
      "t": 186135.8333333332,
      "d": 77.5,
      "v": 75
    },
    {
      "midi": 69,
      "hit": false,
      "t": 186137.49999999985,
      "d": 134.16666666665697,
      "v": 63
    },
    {
      "midi": 73,
      "hit": false,
      "t": 186389.99999999983,
      "d": 101.66666666665697,
      "v": 70
    },
    {
      "midi": 61,
      "hit": false,
      "t": 186393.33333333317,
      "d": 85.83333333331393,
      "v": 92
    },
    {
      "midi": 69,
      "hit": false,
      "t": 186397.49999999983,
      "d": 133.33333333334303,
      "v": 55
    },
    {
      "midi": 64,
      "hit": false,
      "t": 186400.83333333317,
      "d": 119.16666666665697,
      "v": 75
    },
    {
      "midi": 66,
      "hit": false,
      "t": 186403.33333333317,
      "d": 121.66666666665697,
      "v": 79
    },
    {
      "midi": 49,
      "hit": false,
      "t": 186407.49999999983,
      "d": 78.33333333331393,
      "v": 111
    },
    {
      "midi": 73,
      "hit": false,
      "t": 186636.6666666665,
      "d": 111.66666666665697,
      "v": 60
    },
    {
      "midi": 61,
      "hit": false,
      "t": 186640.83333333317,
      "d": 81.66666666665697,
      "v": 71
    },
    {
      "midi": 64,
      "hit": false,
      "t": 186644.99999999983,
      "d": 125,
      "v": 63
    },
    {
      "midi": 69,
      "hit": false,
      "t": 186652.49999999983,
      "d": 115.83333333334303,
      "v": 63
    },
    {
      "midi": 66,
      "hit": false,
      "t": 186655.83333333317,
      "d": 110.83333333334303,
      "v": 63
    },
    {
      "midi": 73,
      "hit": false,
      "t": 186899.99999999983,
      "d": 106.66666666668607,
      "v": 60
    },
    {
      "midi": 69,
      "hit": false,
      "t": 186905.83333333317,
      "d": 139.16666666668607,
      "v": 63
    },
    {
      "midi": 61,
      "hit": false,
      "t": 186909.99999999983,
      "d": 78.33333333334303,
      "v": 79
    },
    {
      "midi": 64,
      "hit": false,
      "t": 186913.33333333317,
      "d": 131.66666666668607,
      "v": 75
    },
    {
      "midi": 39,
      "hit": false,
      "t": 186916.6666666665,
      "d": 105,
      "v": 108
    },
    {
      "midi": 66,
      "hit": false,
      "t": 186918.33333333317,
      "d": 106.66666666668607,
      "v": 61
    },
    {
      "midi": 27,
      "hit": false,
      "t": 186926.6666666665,
      "d": 124.16666666668607,
      "v": 78
    },
    {
      "midi": 73,
      "hit": false,
      "t": 187167.49999999985,
      "d": 119.16666666665697,
      "v": 74
    },
    {
      "midi": 64,
      "hit": false,
      "t": 187172.49999999985,
      "d": 137.5,
      "v": 79
    },
    {
      "midi": 69,
      "hit": false,
      "t": 187177.49999999985,
      "d": 135,
      "v": 65
    },
    {
      "midi": 61,
      "hit": false,
      "t": 187180.8333333332,
      "d": 95.83333333331393,
      "v": 89
    },
    {
      "midi": 40,
      "hit": false,
      "t": 187184.99999999985,
      "d": 616.6666666666279,
      "v": 108
    },
    {
      "midi": 28,
      "hit": false,
      "t": 187191.6666666665,
      "d": 654.166666666657,
      "v": 108
    },
    {
      "midi": 61,
      "hit": false,
      "t": 187401.6666666665,
      "d": 105.83333333331393,
      "v": 69
    },
    {
      "midi": 73,
      "hit": false,
      "t": 187406.6666666665,
      "d": 112.4999999999709,
      "v": 62
    },
    {
      "midi": 64,
      "hit": false,
      "t": 187410.83333333317,
      "d": 133.33333333331393,
      "v": 63
    },
    {
      "midi": 69,
      "hit": false,
      "t": 187415.83333333317,
      "d": 141.66666666665697,
      "v": 60
    },
    {
      "midi": 64,
      "hit": false,
      "t": 187671.66666666648,
      "d": 149.16666666668607,
      "v": 70
    },
    {
      "midi": 69,
      "hit": false,
      "t": 187677.49999999983,
      "d": 140,
      "v": 69
    },
    {
      "midi": 73,
      "hit": false,
      "t": 187679.16666666648,
      "d": 104.16666666665697,
      "v": 70
    },
    {
      "midi": 61,
      "hit": false,
      "t": 187685.83333333314,
      "d": 84.16666666665697,
      "v": 79
    },
    {
      "midi": 69,
      "hit": false,
      "t": 187944.99999999983,
      "d": 140.83333333331393,
      "v": 69
    },
    {
      "midi": 73,
      "hit": false,
      "t": 187949.99999999983,
      "d": 115.83333333331393,
      "v": 74
    },
    {
      "midi": 64,
      "hit": false,
      "t": 187949.99999999983,
      "d": 141.66666666665697,
      "v": 69
    },
    {
      "midi": 61,
      "hit": false,
      "t": 187956.66666666648,
      "d": 83.33333333331393,
      "v": 86
    },
    {
      "midi": 40,
      "hit": false,
      "t": 187956.66666666648,
      "d": 89.16666666665697,
      "v": 99
    },
    {
      "midi": 28,
      "hit": false,
      "t": 187963.33333333314,
      "d": 91.66666666665697,
      "v": 105
    },
    {
      "midi": 73,
      "hit": false,
      "t": 188181.66666666648,
      "d": 118.33333333331393,
      "v": 61
    },
    {
      "midi": 64,
      "hit": false,
      "t": 188183.33333333314,
      "d": 140,
      "v": 51
    },
    {
      "midi": 61,
      "hit": false,
      "t": 188187.4999999998,
      "d": 79.16666666665697,
      "v": 70
    },
    {
      "midi": 39,
      "hit": false,
      "t": 188193.33333333314,
      "d": 74.16666666665697,
      "v": 111
    },
    {
      "midi": 27,
      "hit": false,
      "t": 188197.4999999998,
      "d": 73.33333333334303,
      "v": 95
    },
    {
      "midi": 69,
      "hit": false,
      "t": 188197.4999999998,
      "d": 110,
      "v": 55
    },
    {
      "midi": 73,
      "hit": false,
      "t": 188435.83333333314,
      "d": 107.4999999999709,
      "v": 47
    },
    {
      "midi": 38,
      "hit": false,
      "t": 188447.4999999998,
      "d": 67.4999999999709,
      "v": 83
    },
    {
      "midi": 61,
      "hit": false,
      "t": 188452.4999999998,
      "d": 94.16666666665697,
      "v": 77
    },
    {
      "midi": 64,
      "hit": false,
      "t": 188456.66666666645,
      "d": 106.66666666665697,
      "v": 73
    },
    {
      "midi": 26,
      "hit": false,
      "t": 188459.16666666645,
      "d": 78.33333333331393,
      "v": 86
    },
    {
      "midi": 69,
      "hit": false,
      "t": 188465.8333333331,
      "d": 112.5,
      "v": 67
    },
    {
      "midi": 63,
      "hit": false,
      "t": 188716.66666666642,
      "d": 149.16666666671517,
      "v": 95
    },
    {
      "midi": 59,
      "hit": false,
      "t": 188721.66666666642,
      "d": 85.0000000000291,
      "v": 102
    },
    {
      "midi": 35,
      "hit": false,
      "t": 188726.66666666642,
      "d": 355.0000000000291,
      "v": 102
    },
    {
      "midi": 71,
      "hit": false,
      "t": 188729.99999999977,
      "d": 130.0000000000291,
      "v": 99
    },
    {
      "midi": 23,
      "hit": false,
      "t": 188735.8333333331,
      "d": 375.83333333334303,
      "v": 102
    },
    {
      "midi": 71,
      "hit": false,
      "t": 188985.83333333314,
      "d": 99.16666666665697,
      "v": 66
    },
    {
      "midi": 63,
      "hit": false,
      "t": 188988.33333333314,
      "d": 75.83333333331393,
      "v": 75
    },
    {
      "midi": 59,
      "hit": false,
      "t": 188994.9999999998,
      "d": 62.5,
      "v": 71
    },
    {
      "midi": 71,
      "hit": false,
      "t": 189234.16666666645,
      "d": 125.83333333331393,
      "v": 69
    },
    {
      "midi": 63,
      "hit": false,
      "t": 189239.9999999998,
      "d": 117.4999999999709,
      "v": 75
    },
    {
      "midi": 23,
      "hit": false,
      "t": 189241.66666666645,
      "d": 93.33333333331393,
      "v": 75
    },
    {
      "midi": 59,
      "hit": false,
      "t": 189246.66666666645,
      "d": 80.83333333331393,
      "v": 75
    },
    {
      "midi": 35,
      "hit": false,
      "t": 189253.3333333331,
      "d": 80,
      "v": 89
    },
    {
      "midi": 37,
      "hit": false,
      "t": 189499.99999999977,
      "d": 226.66666666665697,
      "v": 111
    },
    {
      "midi": 71,
      "hit": false,
      "t": 189501.66666666642,
      "d": 138.33333333331393,
      "v": 83
    },
    {
      "midi": 64,
      "hit": false,
      "t": 189505.83333333308,
      "d": 150,
      "v": 89
    },
    {
      "midi": 59,
      "hit": false,
      "t": 189508.33333333308,
      "d": 103.33333333331393,
      "v": 95
    },
    {
      "midi": 25,
      "hit": false,
      "t": 189513.33333333308,
      "d": 195,
      "v": 105
    },
    {
      "midi": 64,
      "hit": false,
      "t": 189769.99999999977,
      "d": 116.66666666665697,
      "v": 62
    },
    {
      "midi": 59,
      "hit": false,
      "t": 189772.49999999977,
      "d": 89.16666666665697,
      "v": 66
    },
    {
      "midi": 71,
      "hit": false,
      "t": 189776.66666666642,
      "d": 109.16666666665697,
      "v": 63
    },
    {
      "midi": 25,
      "hit": false,
      "t": 190010.83333333308,
      "d": 90.83333333334303,
      "v": 78
    },
    {
      "midi": 37,
      "hit": false,
      "t": 190014.16666666642,
      "d": 128.33333333334303,
      "v": 105
    },
    {
      "midi": 71,
      "hit": false,
      "t": 190015.83333333308,
      "d": 134.16666666668607,
      "v": 74
    },
    {
      "midi": 59,
      "hit": false,
      "t": 190020.83333333308,
      "d": 115.83333333334303,
      "v": 78
    },
    {
      "midi": 64,
      "hit": false,
      "t": 190020.83333333308,
      "d": 148.33333333334303,
      "v": 74
    },
    {
      "midi": 38,
      "hit": false,
      "t": 190282.49999999977,
      "d": 179.16666666668607,
      "v": 95
    },
    {
      "midi": 71,
      "hit": false,
      "t": 190287.49999999977,
      "d": 158.33333333334303,
      "v": 78
    },
    {
      "midi": 26,
      "hit": false,
      "t": 190289.99999999977,
      "d": 210.0000000000291,
      "v": 99
    },
    {
      "midi": 65,
      "hit": false,
      "t": 190294.99999999977,
      "d": 148.33333333334303,
      "v": 99
    },
    {
      "midi": 59,
      "hit": false,
      "t": 190299.99999999977,
      "d": 115.83333333334303,
      "v": 102
    },
    {
      "midi": 65,
      "hit": false,
      "t": 190546.66666666645,
      "d": 135.83333333334303,
      "v": 62
    },
    {
      "midi": 59,
      "hit": false,
      "t": 190549.9999999998,
      "d": 107.5,
      "v": 79
    },
    {
      "midi": 71,
      "hit": false,
      "t": 190552.4999999998,
      "d": 137.5,
      "v": 71
    },
    {
      "midi": 26,
      "hit": false,
      "t": 190781.66666666645,
      "d": 115,
      "v": 77
    },
    {
      "midi": 38,
      "hit": false,
      "t": 190785.8333333331,
      "d": 107.5,
      "v": 79
    },
    {
      "midi": 71,
      "hit": false,
      "t": 190803.3333333331,
      "d": 134.16666666668607,
      "v": 83
    },
    {
      "midi": 59,
      "hit": false,
      "t": 190805.8333333331,
      "d": 102.5000000000291,
      "v": 92
    },
    {
      "midi": 65,
      "hit": false,
      "t": 190808.3333333331,
      "d": 99.16666666668607,
      "v": 89
    },
    {
      "midi": 39,
      "hit": false,
      "t": 191059.9999999998,
      "d": 214.9999999999709,
      "v": 111
    },
    {
      "midi": 27,
      "hit": false,
      "t": 191063.33333333314,
      "d": 192.4999999999709,
      "v": 105
    },
    {
      "midi": 71,
      "hit": false,
      "t": 191066.66666666648,
      "d": 134.9999999999709,
      "v": 95
    },
    {
      "midi": 66,
      "hit": false,
      "t": 191070.83333333314,
      "d": 126.66666666665697,
      "v": 105
    },
    {
      "midi": 59,
      "hit": false,
      "t": 191075.83333333314,
      "d": 90,
      "v": 102
    },
    {
      "midi": 66,
      "hit": false,
      "t": 191319.99999999977,
      "d": 135.83333333334303,
      "v": 77
    },
    {
      "midi": 71,
      "hit": false,
      "t": 191322.49999999977,
      "d": 129.16666666668607,
      "v": 77
    },
    {
      "midi": 59,
      "hit": false,
      "t": 191325.8333333331,
      "d": 95.83333333334303,
      "v": 86
    },
    {
      "midi": 39,
      "hit": false,
      "t": 191573.3333333331,
      "d": 134.16666666665697,
      "v": 105
    },
    {
      "midi": 59,
      "hit": false,
      "t": 191576.66666666645,
      "d": 73.33333333331393,
      "v": 79
    },
    {
      "midi": 66,
      "hit": false,
      "t": 191580.8333333331,
      "d": 94.16666666665697,
      "v": 75
    },
    {
      "midi": 27,
      "hit": false,
      "t": 191582.49999999977,
      "d": 115,
      "v": 78
    },
    {
      "midi": 71,
      "hit": false,
      "t": 191588.3333333331,
      "d": 89.16666666665697,
      "v": 77
    },
    {
      "midi": 68,
      "hit": false,
      "t": 191831.66666666642,
      "d": 163.33333333334303,
      "v": 99
    },
    {
      "midi": 71,
      "hit": false,
      "t": 191835.83333333308,
      "d": 171.66666666668607,
      "v": 92
    },
    {
      "midi": 62,
      "hit": false,
      "t": 191838.33333333308,
      "d": 153.33333333334303,
      "v": 99
    },
    {
      "midi": 76,
      "hit": false,
      "t": 191844.99999999974,
      "d": 143.33333333334303,
      "v": 102
    },
    {
      "midi": 40,
      "hit": false,
      "t": 191844.99999999974,
      "d": 209.16666666668607,
      "v": 105
    },
    {
      "midi": 28,
      "hit": false,
      "t": 191852.49999999974,
      "d": 229.16666666668607,
      "v": 108
    },
    {
      "midi": 71,
      "hit": false,
      "t": 192095.83333333308,
      "d": 110,
      "v": 55
    },
    {
      "midi": 68,
      "hit": false,
      "t": 192099.99999999974,
      "d": 107.5,
      "v": 71
    },
    {
      "midi": 62,
      "hit": false,
      "t": 192103.33333333308,
      "d": 91.66666666665697,
      "v": 69
    },
    {
      "midi": 76,
      "hit": false,
      "t": 192103.33333333308,
      "d": 119.16666666665697,
      "v": 75
    },
    {
      "midi": 71,
      "hit": false,
      "t": 192336.6666666664,
      "d": 144.16666666671517,
      "v": 65
    },
    {
      "midi": 68,
      "hit": false,
      "t": 192340.83333333305,
      "d": 115.83333333337214,
      "v": 78
    },
    {
      "midi": 62,
      "hit": false,
      "t": 192344.9999999997,
      "d": 96.66666666671517,
      "v": 75
    },
    {
      "midi": 28,
      "hit": false,
      "t": 192350.83333333305,
      "d": 80.83333333337214,
      "v": 95
    },
    {
      "midi": 76,
      "hit": false,
      "t": 192351.6666666664,
      "d": 128.33333333337214,
      "v": 77
    },
    {
      "midi": 40,
      "hit": false,
      "t": 192359.99999999974,
      "d": 68.33333333334303,
      "v": 89
    },
    {
      "midi": 69,
      "hit": false,
      "t": 192598.3333333331,
      "d": 127.5,
      "v": 95
    },
    {
      "midi": 62,
      "hit": false,
      "t": 192602.49999999977,
      "d": 101.66666666668607,
      "v": 95
    },
    {
      "midi": 42,
      "hit": false,
      "t": 192606.66666666642,
      "d": 163.33333333337214,
      "v": 111
    },
    {
      "midi": 76,
      "hit": false,
      "t": 192612.49999999977,
      "d": 133.33333333334303,
      "v": 92
    },
    {
      "midi": 30,
      "hit": false,
      "t": 192612.49999999977,
      "d": 136.66666666668607,
      "v": 108
    },
    {
      "midi": 69,
      "hit": false,
      "t": 192843.33333333314,
      "d": 123.33333333334303,
      "v": 77
    },
    {
      "midi": 62,
      "hit": false,
      "t": 192847.4999999998,
      "d": 93.33333333334303,
      "v": 69
    },
    {
      "midi": 76,
      "hit": false,
      "t": 192850.83333333314,
      "d": 117.5,
      "v": 73
    },
    {
      "midi": 69,
      "hit": false,
      "t": 193085.83333333314,
      "d": 130.83333333331393,
      "v": 73
    },
    {
      "midi": 42,
      "hit": false,
      "t": 193089.9999999998,
      "d": 120,
      "v": 95
    },
    {
      "midi": 62,
      "hit": false,
      "t": 193096.66666666645,
      "d": 99.16666666668607,
      "v": 78
    },
    {
      "midi": 30,
      "hit": false,
      "t": 193096.66666666645,
      "d": 109.16666666668607,
      "v": 78
    },
    {
      "midi": 76,
      "hit": false,
      "t": 193104.9999999998,
      "d": 129.16666666665697,
      "v": 83
    },
    {
      "midi": 76,
      "hit": false,
      "t": 193351.66666666645,
      "d": 130.83333333331393,
      "v": 89
    },
    {
      "midi": 70,
      "hit": false,
      "t": 193355.8333333331,
      "d": 134.16666666665697,
      "v": 105
    },
    {
      "midi": 62,
      "hit": false,
      "t": 193359.99999999977,
      "d": 135.83333333334303,
      "v": 99
    },
    {
      "midi": 43,
      "hit": false,
      "t": 193363.3333333331,
      "d": 131.66666666665697,
      "v": 95
    },
    {
      "midi": 31,
      "hit": false,
      "t": 193372.49999999977,
      "d": 119.16666666665697,
      "v": 95
    },
    {
      "midi": 70,
      "hit": false,
      "t": 193604.99999999977,
      "d": 110.83333333334303,
      "v": 89
    },
    {
      "midi": 62,
      "hit": false,
      "t": 193610.8333333331,
      "d": 96.66666666665697,
      "v": 78
    },
    {
      "midi": 76,
      "hit": false,
      "t": 193615.8333333331,
      "d": 101.66666666665697,
      "v": 79
    },
    {
      "midi": 76,
      "hit": false,
      "t": 193852.49999999977,
      "d": 134.9999999999709,
      "v": 77
    },
    {
      "midi": 70,
      "hit": false,
      "t": 193856.66666666642,
      "d": 119.16666666665697,
      "v": 95
    },
    {
      "midi": 62,
      "hit": false,
      "t": 193861.66666666642,
      "d": 84.16666666665697,
      "v": 83
    },
    {
      "midi": 43,
      "hit": false,
      "t": 193869.99999999977,
      "d": 101.66666666665697,
      "v": 92
    },
    {
      "midi": 31,
      "hit": false,
      "t": 193876.66666666642,
      "d": 106.66666666665697,
      "v": 89
    },
    {
      "midi": 71,
      "hit": false,
      "t": 194109.99999999974,
      "d": 99.16666666665697,
      "v": 86
    },
    {
      "midi": 62,
      "hit": false,
      "t": 194113.33333333308,
      "d": 55.83333333331393,
      "v": 99
    },
    {
      "midi": 76,
      "hit": false,
      "t": 194117.49999999974,
      "d": 87.5,
      "v": 95
    },
    {
      "midi": 44,
      "hit": false,
      "t": 194130.83333333308,
      "d": 85.83333333331393,
      "v": 117
    },
    {
      "midi": 32,
      "hit": false,
      "t": 194134.99999999974,
      "d": 76.66666666665697,
      "v": 111
    },
    {
      "midi": 44,
      "hit": false,
      "t": 194365.83333333305,
      "d": 87.5,
      "v": 105
    },
    {
      "midi": 32,
      "hit": false,
      "t": 194373.33333333305,
      "d": 66.66666666665697,
      "v": 86
    },
    {
      "midi": 45,
      "hit": false,
      "t": 194415.83333333305,
      "d": 45,
      "v": 46
    },
    {
      "midi": 47,
      "hit": false,
      "t": 194418.33333333305,
      "d": 62.5,
      "v": 89
    },
    {
      "midi": 48,
      "hit": false,
      "t": 194431.6666666664,
      "d": 66.66666666665697,
      "v": 66
    },
    {
      "midi": 50,
      "hit": false,
      "t": 194435.83333333305,
      "d": 96.66666666665697,
      "v": 63
    },
    {
      "midi": 52,
      "hit": false,
      "t": 194510.83333333305,
      "d": 35.83333333331393,
      "v": 78
    },
    {
      "midi": 53,
      "hit": false,
      "t": 194528.33333333305,
      "d": 37.5,
      "v": 92
    },
    {
      "midi": 55,
      "hit": false,
      "t": 194549.9999999997,
      "d": 33.333333333343035,
      "v": 89
    },
    {
      "midi": 57,
      "hit": false,
      "t": 194567.4999999997,
      "d": 40.83333333331393,
      "v": 89
    },
    {
      "midi": 59,
      "hit": false,
      "t": 194587.4999999997,
      "d": 40.83333333331393,
      "v": 86
    },
    {
      "midi": 60,
      "hit": false,
      "t": 194604.16666666637,
      "d": 44.16666666668607,
      "v": 92
    },
    {
      "midi": 62,
      "hit": false,
      "t": 194624.99999999968,
      "d": 47.500000000029104,
      "v": 83
    },
    {
      "midi": 39,
      "hit": false,
      "t": 194631.66666666637,
      "d": 128.33333333334303,
      "v": 70
    },
    {
      "midi": 32,
      "hit": false,
      "t": 194639.9999999997,
      "d": 100,
      "v": 67
    },
    {
      "midi": 64,
      "hit": false,
      "t": 194645.83333333305,
      "d": 40,
      "v": 78
    },
    {
      "midi": 65,
      "hit": false,
      "t": 194667.4999999997,
      "d": 37.5,
      "v": 86
    },
    {
      "midi": 67,
      "hit": false,
      "t": 194687.4999999997,
      "d": 34.166666666656965,
      "v": 83
    },
    {
      "midi": 69,
      "hit": false,
      "t": 194706.66666666637,
      "d": 35,
      "v": 83
    },
    {
      "midi": 71,
      "hit": false,
      "t": 194724.9999999997,
      "d": 31.666666666656965,
      "v": 86
    },
    {
      "midi": 72,
      "hit": false,
      "t": 194744.9999999997,
      "d": 30.833333333343035,
      "v": 95
    },
    {
      "midi": 74,
      "hit": false,
      "t": 194763.33333333305,
      "d": 29.166666666656965,
      "v": 89
    },
    {
      "midi": 76,
      "hit": false,
      "t": 194783.33333333305,
      "d": 25,
      "v": 95
    },
    {
      "midi": 77,
      "hit": false,
      "t": 194805.83333333305,
      "d": 20.833333333343035,
      "v": 95
    },
    {
      "midi": 79,
      "hit": false,
      "t": 194821.6666666664,
      "d": 20,
      "v": 102
    },
    {
      "midi": 81,
      "hit": false,
      "t": 194839.99999999974,
      "d": 18.33333333331393,
      "v": 102
    },
    {
      "midi": 83,
      "hit": false,
      "t": 194855.83333333305,
      "d": 14.166666666656965,
      "v": 105
    },
    {
      "midi": 84,
      "hit": false,
      "t": 194872.4999999997,
      "d": 24.16666666668607,
      "v": 111
    },
    {
      "midi": 40,
      "hit": false,
      "t": 194885.83333333305,
      "d": 449.16666666662786,
      "v": 99
    },
    {
      "midi": 86,
      "hit": false,
      "t": 194890.83333333305,
      "d": 21.666666666656965,
      "v": 105
    },
    {
      "midi": 33,
      "hit": false,
      "t": 194896.6666666664,
      "d": 161.66666666662786,
      "v": 95
    },
    {
      "midi": 88,
      "hit": false,
      "t": 194905.83333333305,
      "d": 27.5,
      "v": 102
    },
    {
      "midi": 89,
      "hit": false,
      "t": 194927.4999999997,
      "d": 25.833333333343035,
      "v": 99
    },
    {
      "midi": 91,
      "hit": false,
      "t": 194955.83333333305,
      "d": 21.666666666656965,
      "v": 83
    },
    {
      "midi": 92,
      "hit": false,
      "t": 194979.9999999997,
      "d": 21.666666666656965,
      "v": 83
    },
    {
      "midi": 88,
      "hit": false,
      "t": 195139.99999999968,
      "d": 57.5,
      "v": 102
    },
    {
      "midi": 93,
      "hit": false,
      "t": 195155.83333333302,
      "d": 40,
      "v": 57
    },
    {
      "midi": 88,
      "hit": false,
      "t": 195362.49999999968,
      "d": 55.000000000029104,
      "v": 89
    },
    {
      "midi": 33,
      "hit": false,
      "t": 195365.83333333302,
      "d": 435.83333333334303,
      "v": 78
    },
    {
      "midi": 93,
      "hit": false,
      "t": 195371.66666666637,
      "d": 50,
      "v": 79
    },
    {
      "midi": 42,
      "hit": false,
      "t": 195621.66666666637,
      "d": 170,
      "v": 111
    },
    {
      "midi": 88,
      "hit": false,
      "t": 195625.83333333302,
      "d": 55.833333333343035,
      "v": 117
    },
    {
      "midi": 93,
      "hit": false,
      "t": 195625.83333333302,
      "d": 57.5,
      "v": 105
    },
    {
      "midi": 88,
      "hit": false,
      "t": 195864.9999999997,
      "d": 58.333333333343035,
      "v": 79
    },
    {
      "midi": 93,
      "hit": false,
      "t": 195867.4999999997,
      "d": 58.333333333343035,
      "v": 78
    },
    {
      "midi": 33,
      "hit": false,
      "t": 196101.6666666664,
      "d": 165.83333333331393,
      "v": 77
    },
    {
      "midi": 40,
      "hit": false,
      "t": 196105.83333333305,
      "d": 221.66666666665697,
      "v": 86
    },
    {
      "midi": 88,
      "hit": false,
      "t": 196108.33333333305,
      "d": 63.33333333331393,
      "v": 102
    },
    {
      "midi": 93,
      "hit": false,
      "t": 196114.9999999997,
      "d": 59.166666666656965,
      "v": 95
    },
    {
      "midi": 88,
      "hit": false,
      "t": 196355.83333333305,
      "d": 80,
      "v": 102
    },
    {
      "midi": 93,
      "hit": false,
      "t": 196362.4999999997,
      "d": 83.33333333334303,
      "v": 95
    },
    {
      "midi": 43,
      "hit": false,
      "t": 196362.4999999997,
      "d": 194.16666666668607,
      "v": 89
    },
    {
      "midi": 33,
      "hit": false,
      "t": 196369.9999999997,
      "d": 210.0000000000291,
      "v": 83
    },
    {
      "midi": 88,
      "hit": false,
      "t": 196602.49999999974,
      "d": 64.16666666665697,
      "v": 86
    },
    {
      "midi": 93,
      "hit": false,
      "t": 196606.6666666664,
      "d": 65,
      "v": 83
    },
    {
      "midi": 40,
      "hit": false,
      "t": 196825.83333333305,
      "d": 249.16666666671517,
      "v": 78
    },
    {
      "midi": 33,
      "hit": false,
      "t": 196835.83333333305,
      "d": 105.0000000000291,
      "v": 71
    },
    {
      "midi": 88,
      "hit": false,
      "t": 196846.6666666664,
      "d": 70,
      "v": 105
    },
    {
      "midi": 93,
      "hit": false,
      "t": 196850.83333333305,
      "d": 69.16666666668607,
      "v": 95
    },
    {
      "midi": 88,
      "hit": false,
      "t": 197096.66666666642,
      "d": 121.66666666665697,
      "v": 108
    },
    {
      "midi": 42,
      "hit": false,
      "t": 197096.66666666642,
      "d": 163.33333333331393,
      "v": 108
    },
    {
      "midi": 93,
      "hit": false,
      "t": 197103.33333333308,
      "d": 105,
      "v": 99
    },
    {
      "midi": 33,
      "hit": false,
      "t": 197103.33333333308,
      "d": 129.16666666665697,
      "v": 79
    },
    {
      "midi": 87,
      "hit": false,
      "t": 197339.99999999974,
      "d": 71.66666666665697,
      "v": 99
    },
    {
      "midi": 93,
      "hit": false,
      "t": 197342.49999999974,
      "d": 81.66666666665697,
      "v": 77
    },
    {
      "midi": 39,
      "hit": false,
      "t": 197567.49999999974,
      "d": 175.83333333334303,
      "v": 79
    },
    {
      "midi": 32,
      "hit": false,
      "t": 197570.83333333308,
      "d": 155,
      "v": 89
    },
    {
      "midi": 93,
      "hit": false,
      "t": 197573.33333333308,
      "d": 85,
      "v": 92
    },
    {
      "midi": 86,
      "hit": false,
      "t": 197578.33333333308,
      "d": 61.666666666656965,
      "v": 99
    },
    {
      "midi": 33,
      "hit": false,
      "t": 197829.16666666642,
      "d": 193.33333333331393,
      "v": 86
    },
    {
      "midi": 40,
      "hit": false,
      "t": 197831.66666666642,
      "d": 219.9999999999709,
      "v": 89
    },
    {
      "midi": 84,
      "hit": false,
      "t": 197838.33333333308,
      "d": 92.5,
      "v": 114
    },
    {
      "midi": 93,
      "hit": false,
      "t": 197840.83333333308,
      "d": 145,
      "v": 102
    },
    {
      "midi": 85,
      "hit": false,
      "t": 198090.83333333305,
      "d": 85.83333333331393,
      "v": 92
    },
    {
      "midi": 93,
      "hit": false,
      "t": 198099.9999999997,
      "d": 94.16666666665697,
      "v": 75
    },
    {
      "midi": 40,
      "hit": false,
      "t": 198312.4999999997,
      "d": 265.83333333337214,
      "v": 83
    },
    {
      "midi": 33,
      "hit": false,
      "t": 198317.4999999997,
      "d": 164.16666666668607,
      "v": 73
    },
    {
      "midi": 87,
      "hit": false,
      "t": 198320.83333333305,
      "d": 99.16666666668607,
      "v": 95
    },
    {
      "midi": 93,
      "hit": false,
      "t": 198324.1666666664,
      "d": 85.83333333334303,
      "v": 83
    },
    {
      "midi": 88,
      "hit": false,
      "t": 198564.99999999974,
      "d": 98.33333333334303,
      "v": 92
    },
    {
      "midi": 93,
      "hit": false,
      "t": 198574.99999999974,
      "d": 100,
      "v": 92
    },
    {
      "midi": 42,
      "hit": false,
      "t": 198585.83333333308,
      "d": 220.83333333334303,
      "v": 108
    },
    {
      "midi": 33,
      "hit": false,
      "t": 198590.83333333308,
      "d": 172.5,
      "v": 62
    },
    {
      "midi": 88,
      "hit": false,
      "t": 198803.33333333308,
      "d": 84.16666666668607,
      "v": 79
    },
    {
      "midi": 93,
      "hit": false,
      "t": 198812.49999999977,
      "d": 77.5,
      "v": 78
    },
    {
      "midi": 88,
      "hit": false,
      "t": 199050.8333333331,
      "d": 110.83333333331393,
      "v": 99
    },
    {
      "midi": 33,
      "hit": false,
      "t": 199054.99999999977,
      "d": 167.4999999999709,
      "v": 71
    },
    {
      "midi": 40,
      "hit": false,
      "t": 199059.99999999977,
      "d": 228.33333333331393,
      "v": 78
    },
    {
      "midi": 93,
      "hit": false,
      "t": 199062.49999999977,
      "d": 100.83333333331393,
      "v": 83
    },
    {
      "midi": 88,
      "hit": false,
      "t": 199311.66666666642,
      "d": 108.33333333334303,
      "v": 108
    },
    {
      "midi": 93,
      "hit": false,
      "t": 199315.83333333308,
      "d": 130,
      "v": 99
    },
    {
      "midi": 33,
      "hit": false,
      "t": 199321.66666666642,
      "d": 250.83333333331393,
      "v": 56
    },
    {
      "midi": 43,
      "hit": false,
      "t": 199324.16666666642,
      "d": 250.83333333331393,
      "v": 86
    },
    {
      "midi": 93,
      "hit": false,
      "t": 199549.99999999974,
      "d": 91.66666666665697,
      "v": 89
    },
    {
      "midi": 88,
      "hit": false,
      "t": 199553.33333333308,
      "d": 70.83333333331393,
      "v": 89
    },
    {
      "midi": 40,
      "hit": false,
      "t": 199775.83333333305,
      "d": 252.5,
      "v": 79
    },
    {
      "midi": 33,
      "hit": false,
      "t": 199780.83333333305,
      "d": 137.5,
      "v": 71
    },
    {
      "midi": 88,
      "hit": false,
      "t": 199786.6666666664,
      "d": 81.66666666665697,
      "v": 108
    },
    {
      "midi": 93,
      "hit": false,
      "t": 199794.1666666664,
      "d": 86.66666666665697,
      "v": 92
    },
    {
      "midi": 33,
      "hit": false,
      "t": 200039.9999999997,
      "d": 161.66666666662786,
      "v": 75
    },
    {
      "midi": 42,
      "hit": false,
      "t": 200043.33333333305,
      "d": 284.16666666662786,
      "v": 111
    },
    {
      "midi": 88,
      "hit": false,
      "t": 200047.4999999997,
      "d": 87.4999999999709,
      "v": 111
    },
    {
      "midi": 93,
      "hit": false,
      "t": 200051.66666666637,
      "d": 103.33333333331393,
      "v": 102
    },
    {
      "midi": 88,
      "hit": false,
      "t": 200289.99999999968,
      "d": 83.33333333331393,
      "v": 105
    },
    {
      "midi": 93,
      "hit": false,
      "t": 200298.33333333302,
      "d": 73.33333333331393,
      "v": 89
    },
    {
      "midi": 40,
      "hit": false,
      "t": 200509.99999999965,
      "d": 240.83333333334303,
      "v": 83
    },
    {
      "midi": 33,
      "hit": false,
      "t": 200514.99999999965,
      "d": 172.5,
      "v": 74
    },
    {
      "midi": 88,
      "hit": false,
      "t": 200527.49999999965,
      "d": 134.16666666665697,
      "v": 69
    },
    {
      "midi": 93,
      "hit": false,
      "t": 200532.49999999965,
      "d": 95,
      "v": 79
    },
    {
      "midi": 93,
      "hit": false,
      "t": 200776.66666666634,
      "d": 133.33333333334303,
      "v": 92
    },
    {
      "midi": 84,
      "hit": false,
      "t": 200781.66666666634,
      "d": 150,
      "v": 86
    },
    {
      "midi": 81,
      "hit": false,
      "t": 200786.66666666634,
      "d": 99.16666666668607,
      "v": 89
    },
    {
      "midi": 90,
      "hit": false,
      "t": 200787.49999999968,
      "d": 142.5,
      "v": 79
    },
    {
      "midi": 88,
      "hit": false,
      "t": 200790.83333333302,
      "d": 142.4999999999709,
      "v": 74
    },
    {
      "midi": 38,
      "hit": false,
      "t": 200798.33333333302,
      "d": 292.4999999999709,
      "v": 102
    },
    {
      "midi": 84,
      "hit": false,
      "t": 201025.833333333,
      "d": 130,
      "v": 73
    },
    {
      "midi": 88,
      "hit": false,
      "t": 201029.99999999965,
      "d": 146.66666666668607,
      "v": 54
    },
    {
      "midi": 90,
      "hit": false,
      "t": 201033.333333333,
      "d": 138.33333333334303,
      "v": 71
    },
    {
      "midi": 81,
      "hit": false,
      "t": 201038.333333333,
      "d": 77.5,
      "v": 74
    },
    {
      "midi": 93,
      "hit": false,
      "t": 201042.49999999965,
      "d": 105,
      "v": 70
    },
    {
      "midi": 88,
      "hit": false,
      "t": 201277.49999999968,
      "d": 153.33333333331393,
      "v": 78
    },
    {
      "midi": 90,
      "hit": false,
      "t": 201279.99999999968,
      "d": 146.66666666665697,
      "v": 77
    },
    {
      "midi": 84,
      "hit": false,
      "t": 201285.83333333302,
      "d": 142.4999999999709,
      "v": 83
    },
    {
      "midi": 93,
      "hit": false,
      "t": 201288.33333333302,
      "d": 109.16666666665697,
      "v": 83
    },
    {
      "midi": 81,
      "hit": false,
      "t": 201294.99999999968,
      "d": 77.5,
      "v": 89
    },
    {
      "midi": 26,
      "hit": false,
      "t": 201299.99999999968,
      "d": 69.16666666665697,
      "v": 74
    },
    {
      "midi": 88,
      "hit": false,
      "t": 201539.99999999965,
      "d": 148.33333333334303,
      "v": 69
    },
    {
      "midi": 90,
      "hit": false,
      "t": 201541.6666666663,
      "d": 144.16666666668607,
      "v": 77
    },
    {
      "midi": 93,
      "hit": false,
      "t": 201547.49999999965,
      "d": 108.33333333334303,
      "v": 95
    },
    {
      "midi": 81,
      "hit": false,
      "t": 201549.1666666663,
      "d": 100.83333333334303,
      "v": 99
    },
    {
      "midi": 84,
      "hit": false,
      "t": 201555.83333333296,
      "d": 129.16666666668607,
      "v": 83
    },
    {
      "midi": 30,
      "hit": false,
      "t": 201556.6666666663,
      "d": 420.0000000000291,
      "v": 99
    },
    {
      "midi": 84,
      "hit": false,
      "t": 201768.333333333,
      "d": 111.66666666668607,
      "v": 65
    },
    {
      "midi": 88,
      "hit": false,
      "t": 201771.66666666634,
      "d": 130.83333333334303,
      "v": 54
    },
    {
      "midi": 81,
      "hit": false,
      "t": 201774.99999999968,
      "d": 80.83333333334303,
      "v": 73
    },
    {
      "midi": 90,
      "hit": false,
      "t": 201783.33333333302,
      "d": 116.66666666665697,
      "v": 67
    },
    {
      "midi": 93,
      "hit": false,
      "t": 201785.83333333302,
      "d": 90,
      "v": 70
    },
    {
      "midi": 42,
      "hit": false,
      "t": 202007.49999999968,
      "d": 142.4999999999418,
      "v": 105
    },
    {
      "midi": 81,
      "hit": false,
      "t": 202011.66666666634,
      "d": 111.66666666662786,
      "v": 92
    },
    {
      "midi": 88,
      "hit": false,
      "t": 202016.66666666634,
      "d": 148.33333333328483,
      "v": 75
    },
    {
      "midi": 90,
      "hit": false,
      "t": 202018.333333333,
      "d": 148.33333333328483,
      "v": 70
    },
    {
      "midi": 93,
      "hit": false,
      "t": 202024.99999999965,
      "d": 108.33333333331393,
      "v": 79
    },
    {
      "midi": 84,
      "hit": false,
      "t": 202026.6666666663,
      "d": 134.9999999999709,
      "v": 73
    },
    {
      "midi": 88,
      "hit": false,
      "t": 202265.83333333296,
      "d": 145.83333333331393,
      "v": 79
    },
    {
      "midi": 90,
      "hit": false,
      "t": 202269.99999999962,
      "d": 137.5,
      "v": 89
    },
    {
      "midi": 84,
      "hit": false,
      "t": 202273.33333333296,
      "d": 139.9999999999709,
      "v": 92
    },
    {
      "midi": 33,
      "hit": false,
      "t": 202278.33333333296,
      "d": 521.6666666666279,
      "v": 78
    },
    {
      "midi": 81,
      "hit": false,
      "t": 202280.83333333296,
      "d": 95,
      "v": 95
    },
    {
      "midi": 93,
      "hit": false,
      "t": 202289.99999999962,
      "d": 93.33333333334303,
      "v": 92
    },
    {
      "midi": 88,
      "hit": false,
      "t": 202488.33333333294,
      "d": 147.5,
      "v": 60
    },
    {
      "midi": 84,
      "hit": false,
      "t": 202490.83333333294,
      "d": 142.5,
      "v": 70
    },
    {
      "midi": 90,
      "hit": false,
      "t": 202495.83333333294,
      "d": 141.66666666665697,
      "v": 70
    },
    {
      "midi": 81,
      "hit": false,
      "t": 202499.9999999996,
      "d": 100.83333333334303,
      "v": 74
    },
    {
      "midi": 93,
      "hit": false,
      "t": 202504.9999999996,
      "d": 105,
      "v": 67
    },
    {
      "midi": 45,
      "hit": false,
      "t": 202726.66666666625,
      "d": 83.33333333334303,
      "v": 78
    },
    {
      "midi": 81,
      "hit": false,
      "t": 202729.9999999996,
      "d": 120.83333333334303,
      "v": 79
    },
    {
      "midi": 88,
      "hit": false,
      "t": 202736.66666666625,
      "d": 142.5000000000291,
      "v": 63
    },
    {
      "midi": 90,
      "hit": false,
      "t": 202736.66666666625,
      "d": 150.0000000000291,
      "v": 75
    },
    {
      "midi": 84,
      "hit": false,
      "t": 202744.9999999996,
      "d": 145.83333333334303,
      "v": 70
    },
    {
      "midi": 93,
      "hit": false,
      "t": 202745.83333333294,
      "d": 107.5,
      "v": 75
    },
    {
      "midi": 88,
      "hit": false,
      "t": 202984.16666666628,
      "d": 151.66666666662786,
      "v": 79
    },
    {
      "midi": 90,
      "hit": false,
      "t": 202986.66666666628,
      "d": 140.83333333328483,
      "v": 92
    },
    {
      "midi": 30,
      "hit": false,
      "t": 202990.83333333294,
      "d": 373.33333333331393,
      "v": 99
    },
    {
      "midi": 81,
      "hit": false,
      "t": 202995.83333333294,
      "d": 109.9999999999709,
      "v": 95
    },
    {
      "midi": 84,
      "hit": false,
      "t": 202999.9999999996,
      "d": 141.66666666665697,
      "v": 89
    },
    {
      "midi": 93,
      "hit": false,
      "t": 203004.9999999996,
      "d": 96.66666666665697,
      "v": 89
    },
    {
      "midi": 84,
      "hit": false,
      "t": 203221.66666666625,
      "d": 155.83333333331393,
      "v": 69
    },
    {
      "midi": 88,
      "hit": false,
      "t": 203224.9999999996,
      "d": 156.66666666662786,
      "v": 59
    },
    {
      "midi": 90,
      "hit": false,
      "t": 203227.4999999996,
      "d": 148.33333333331393,
      "v": 70
    },
    {
      "midi": 81,
      "hit": false,
      "t": 203232.4999999996,
      "d": 107.5,
      "v": 75
    },
    {
      "midi": 93,
      "hit": false,
      "t": 203237.4999999996,
      "d": 110,
      "v": 71
    },
    {
      "midi": 42,
      "hit": false,
      "t": 203301.66666666625,
      "d": 55.833333333343035,
      "v": 71
    },
    {
      "midi": 88,
      "hit": false,
      "t": 203470.83333333288,
      "d": 136.66666666665697,
      "v": 70
    },
    {
      "midi": 84,
      "hit": false,
      "t": 203473.33333333288,
      "d": 150.83333333331393,
      "v": 78
    },
    {
      "midi": 90,
      "hit": false,
      "t": 203478.33333333288,
      "d": 133.33333333331393,
      "v": 77
    },
    {
      "midi": 81,
      "hit": false,
      "t": 203483.33333333288,
      "d": 97.5,
      "v": 79
    },
    {
      "midi": 93,
      "hit": false,
      "t": 203485.83333333288,
      "d": 96.66666666665697,
      "v": 79
    },
    {
      "midi": 26,
      "hit": false,
      "t": 203495.83333333288,
      "d": 81.66666666665697,
      "v": 99
    },
    {
      "midi": 81,
      "hit": false,
      "t": 203726.6666666662,
      "d": 109.16666666668607,
      "v": 95
    },
    {
      "midi": 84,
      "hit": false,
      "t": 203726.6666666662,
      "d": 126.66666666668607,
      "v": 89
    },
    {
      "midi": 87,
      "hit": false,
      "t": 203726.6666666662,
      "d": 129.16666666668607,
      "v": 99
    },
    {
      "midi": 90,
      "hit": false,
      "t": 203736.6666666662,
      "d": 110.0000000000291,
      "v": 92
    },
    {
      "midi": 27,
      "hit": false,
      "t": 203736.6666666662,
      "d": 460.83333333340124,
      "v": 86
    },
    {
      "midi": 93,
      "hit": false,
      "t": 203739.99999999953,
      "d": 82.5,
      "v": 92
    },
    {
      "midi": 84,
      "hit": false,
      "t": 203964.16666666622,
      "d": 118.33333333334303,
      "v": 77
    },
    {
      "midi": 81,
      "hit": false,
      "t": 203968.33333333288,
      "d": 88.33333333334303,
      "v": 77
    },
    {
      "midi": 90,
      "hit": false,
      "t": 203974.99999999953,
      "d": 115.83333333337214,
      "v": 63
    },
    {
      "midi": 87,
      "hit": false,
      "t": 203974.99999999953,
      "d": 116.66666666671517,
      "v": 74
    },
    {
      "midi": 93,
      "hit": false,
      "t": 203983.33333333288,
      "d": 79.16666666668607,
      "v": 74
    },
    {
      "midi": 87,
      "hit": false,
      "t": 204207.4999999996,
      "d": 139.16666666665697,
      "v": 95
    },
    {
      "midi": 39,
      "hit": false,
      "t": 204211.66666666625,
      "d": 92.5,
      "v": 99
    },
    {
      "midi": 84,
      "hit": false,
      "t": 204217.4999999996,
      "d": 122.5,
      "v": 77
    },
    {
      "midi": 90,
      "hit": false,
      "t": 204220.83333333294,
      "d": 127.4999999999709,
      "v": 78
    },
    {
      "midi": 93,
      "hit": false,
      "t": 204227.4999999996,
      "d": 89.16666666665697,
      "v": 83
    },
    {
      "midi": 81,
      "hit": false,
      "t": 204227.4999999996,
      "d": 90,
      "v": 89
    },
    {
      "midi": 87,
      "hit": false,
      "t": 204458.3333333329,
      "d": 132.5000000000291,
      "v": 105
    },
    {
      "midi": 30,
      "hit": false,
      "t": 204461.66666666625,
      "d": 535.8333333333721,
      "v": 95
    },
    {
      "midi": 81,
      "hit": false,
      "t": 204470.8333333329,
      "d": 100,
      "v": 95
    },
    {
      "midi": 90,
      "hit": false,
      "t": 204470.8333333329,
      "d": 116.66666666668607,
      "v": 79
    },
    {
      "midi": 84,
      "hit": false,
      "t": 204473.3333333329,
      "d": 120.0000000000291,
      "v": 79
    },
    {
      "midi": 93,
      "hit": false,
      "t": 204485.8333333329,
      "d": 88.33333333334303,
      "v": 95
    },
    {
      "midi": 87,
      "hit": false,
      "t": 204687.4999999996,
      "d": 123.33333333337214,
      "v": 77
    },
    {
      "midi": 81,
      "hit": false,
      "t": 204690.83333333294,
      "d": 100.83333333334303,
      "v": 79
    },
    {
      "midi": 84,
      "hit": false,
      "t": 204695.83333333294,
      "d": 107.5000000000291,
      "v": 78
    },
    {
      "midi": 93,
      "hit": false,
      "t": 204702.4999999996,
      "d": 95.0000000000291,
      "v": 75
    },
    {
      "midi": 90,
      "hit": false,
      "t": 204705.83333333294,
      "d": 106.66666666668607,
      "v": 62
    },
    {
      "midi": 87,
      "hit": false,
      "t": 204934.16666666628,
      "d": 135.83333333334303,
      "v": 78
    },
    {
      "midi": 81,
      "hit": false,
      "t": 204936.66666666628,
      "d": 105,
      "v": 89
    },
    {
      "midi": 93,
      "hit": false,
      "t": 204941.66666666628,
      "d": 105.83333333334303,
      "v": 79
    },
    {
      "midi": 84,
      "hit": false,
      "t": 204956.66666666628,
      "d": 103.33333333334303,
      "v": 75
    },
    {
      "midi": 90,
      "hit": false,
      "t": 204956.66666666628,
      "d": 110.83333333334303,
      "v": 69
    },
    {
      "midi": 42,
      "hit": false,
      "t": 204956.66666666628,
      "d": 116.66666666668607,
      "v": 92
    },
    {
      "midi": 87,
      "hit": false,
      "t": 205184.99999999962,
      "d": 130.83333333334303,
      "v": 99
    },
    {
      "midi": 81,
      "hit": false,
      "t": 205192.49999999962,
      "d": 105.0000000000291,
      "v": 102
    },
    {
      "midi": 33,
      "hit": false,
      "t": 205192.49999999962,
      "d": 409.16666666662786,
      "v": 95
    },
    {
      "midi": 93,
      "hit": false,
      "t": 205199.99999999962,
      "d": 100.0000000000291,
      "v": 102
    },
    {
      "midi": 84,
      "hit": false,
      "t": 205205.83333333296,
      "d": 100.83333333334303,
      "v": 89
    },
    {
      "midi": 90,
      "hit": false,
      "t": 205205.83333333296,
      "d": 107.5,
      "v": 86
    },
    {
      "midi": 81,
      "hit": false,
      "t": 205431.6666666663,
      "d": 97.4999999999709,
      "v": 83
    },
    {
      "midi": 87,
      "hit": false,
      "t": 205436.6666666663,
      "d": 104.99999999994179,
      "v": 74
    },
    {
      "midi": 84,
      "hit": false,
      "t": 205440.83333333296,
      "d": 99.16666666662786,
      "v": 73
    },
    {
      "midi": 90,
      "hit": false,
      "t": 205445.83333333296,
      "d": 97.49999999994179,
      "v": 61
    },
    {
      "midi": 93,
      "hit": false,
      "t": 205449.99999999962,
      "d": 80.83333333331393,
      "v": 70
    },
    {
      "midi": 45,
      "hit": false,
      "t": 205649.9999999996,
      "d": 120.83333333334303,
      "v": 78
    },
    {
      "midi": 87,
      "hit": false,
      "t": 205665.83333333294,
      "d": 115,
      "v": 79
    },
    {
      "midi": 81,
      "hit": false,
      "t": 205668.33333333294,
      "d": 77.5,
      "v": 89
    },
    {
      "midi": 93,
      "hit": false,
      "t": 205673.33333333294,
      "d": 93.33333333334303,
      "v": 79
    },
    {
      "midi": 90,
      "hit": false,
      "t": 205677.4999999996,
      "d": 100.83333333334303,
      "v": 75
    },
    {
      "midi": 84,
      "hit": false,
      "t": 205682.4999999996,
      "d": 90,
      "v": 79
    },
    {
      "midi": 87,
      "hit": false,
      "t": 205920.83333333294,
      "d": 115,
      "v": 99
    },
    {
      "midi": 84,
      "hit": false,
      "t": 205927.4999999996,
      "d": 80,
      "v": 79
    },
    {
      "midi": 90,
      "hit": false,
      "t": 205930.83333333294,
      "d": 103.33333333334303,
      "v": 77
    },
    {
      "midi": 30,
      "hit": false,
      "t": 205935.83333333294,
      "d": 540,
      "v": 111
    },
    {
      "midi": 81,
      "hit": false,
      "t": 205939.9999999996,
      "d": 70,
      "v": 83
    },
    {
      "midi": 93,
      "hit": false,
      "t": 205943.33333333294,
      "d": 80,
      "v": 83
    },
    {
      "midi": 84,
      "hit": false,
      "t": 206159.9999999996,
      "d": 90,
      "v": 70
    },
    {
      "midi": 81,
      "hit": false,
      "t": 206165.83333333294,
      "d": 61.666666666656965,
      "v": 74
    },
    {
      "midi": 93,
      "hit": false,
      "t": 206167.4999999996,
      "d": 114.16666666668607,
      "v": 69
    },
    {
      "midi": 87,
      "hit": false,
      "t": 206174.9999999996,
      "d": 85.83333333334303,
      "v": 62
    },
    {
      "midi": 90,
      "hit": false,
      "t": 206174.9999999996,
      "d": 103.33333333334303,
      "v": 66
    },
    {
      "midi": 42,
      "hit": false,
      "t": 206400.83333333294,
      "d": 99.16666666665697,
      "v": 92
    },
    {
      "midi": 105,
      "hit": false,
      "t": 206430.83333333294,
      "d": 22.5,
      "v": 57
    },
    {
      "midi": 103,
      "hit": false,
      "t": 206433.33333333294,
      "d": 26.666666666656965,
      "v": 114
    },
    {
      "midi": 101,
      "hit": false,
      "t": 206449.9999999996,
      "d": 35.833333333343035,
      "v": 60
    },
    {
      "midi": 100,
      "hit": false,
      "t": 206467.4999999996,
      "d": 32.5,
      "v": 65
    },
    {
      "midi": 98,
      "hit": false,
      "t": 206494.9999999996,
      "d": 25,
      "v": 73
    },
    {
      "midi": 96,
      "hit": false,
      "t": 206514.9999999996,
      "d": 22.5,
      "v": 92
    },
    {
      "midi": 95,
      "hit": false,
      "t": 206534.16666666625,
      "d": 20.833333333343035,
      "v": 102
    },
    {
      "midi": 93,
      "hit": false,
      "t": 206549.9999999996,
      "d": 21.66666666668607,
      "v": 95
    },
    {
      "midi": 91,
      "hit": false,
      "t": 206565.83333333294,
      "d": 20,
      "v": 95
    },
    {
      "midi": 89,
      "hit": false,
      "t": 206583.33333333294,
      "d": 17.5,
      "v": 95
    },
    {
      "midi": 88,
      "hit": false,
      "t": 206595.83333333294,
      "d": 22.5,
      "v": 102
    },
    {
      "midi": 86,
      "hit": false,
      "t": 206611.66666666628,
      "d": 24.166666666656965,
      "v": 105
    },
    {
      "midi": 84,
      "hit": false,
      "t": 206635.83333333294,
      "d": 15,
      "v": 111
    },
    {
      "midi": 83,
      "hit": false,
      "t": 206643.33333333294,
      "d": 22.5,
      "v": 99
    },
    {
      "midi": 81,
      "hit": false,
      "t": 206655.83333333294,
      "d": 31.66666666668607,
      "v": 95
    },
    {
      "midi": 79,
      "hit": false,
      "t": 206671.66666666628,
      "d": 36.66666666668607,
      "v": 74
    },
    {
      "midi": 77,
      "hit": false,
      "t": 206684.99999999962,
      "d": 35.833333333343035,
      "v": 62
    },
    {
      "midi": 76,
      "hit": false,
      "t": 206692.49999999962,
      "d": 34.16666666668607,
      "v": 77
    },
    {
      "midi": 33,
      "hit": false,
      "t": 206704.99999999962,
      "d": 997.4999999999418,
      "v": 105
    },
    {
      "midi": 45,
      "hit": false,
      "t": 206709.99999999962,
      "d": 397.5,
      "v": 111
    },
    {
      "midi": 74,
      "hit": false,
      "t": 206714.99999999962,
      "d": 25.833333333343035,
      "v": 71
    },
    {
      "midi": 72,
      "hit": false,
      "t": 206723.33333333296,
      "d": 23.333333333343035,
      "v": 62
    },
    {
      "midi": 71,
      "hit": false,
      "t": 206730.83333333296,
      "d": 19.16666666668607,
      "v": 70
    },
    {
      "midi": 69,
      "hit": false,
      "t": 206735.83333333296,
      "d": 22.5,
      "v": 73
    },
    {
      "midi": 67,
      "hit": false,
      "t": 206743.33333333296,
      "d": 28.333333333343035,
      "v": 77
    },
    {
      "midi": 65,
      "hit": false,
      "t": 206754.1666666663,
      "d": 25.833333333343035,
      "v": 74
    },
    {
      "midi": 64,
      "hit": false,
      "t": 206765.83333333296,
      "d": 27.5,
      "v": 89
    },
    {
      "midi": 62,
      "hit": false,
      "t": 206784.1666666663,
      "d": 31.666666666656965,
      "v": 79
    },
    {
      "midi": 60,
      "hit": false,
      "t": 206803.33333333296,
      "d": 31.666666666656965,
      "v": 79
    },
    {
      "midi": 57,
      "hit": false,
      "t": 207184.99999999962,
      "d": 66.66666666665697,
      "v": 89
    },
    {
      "midi": 64,
      "hit": false,
      "t": 207190.83333333296,
      "d": 69.9999999999709,
      "v": 73
    },
    {
      "midi": 69,
      "hit": false,
      "t": 207192.49999999962,
      "d": 87.4999999999709,
      "v": 79
    },
    {
      "midi": 64,
      "hit": false,
      "t": 207451.66666666625,
      "d": 82.5,
      "v": 86
    },
    {
      "midi": 57,
      "hit": false,
      "t": 207453.3333333329,
      "d": 70,
      "v": 105
    },
    {
      "midi": 69,
      "hit": false,
      "t": 207460.8333333329,
      "d": 95.83333333334303,
      "v": 99
    },
    {
      "midi": 45,
      "hit": false,
      "t": 207460.8333333329,
      "d": 215,
      "v": 111
    },
    {
      "midi": 64,
      "hit": false,
      "t": 207671.66666666625,
      "d": 125,
      "v": 62
    },
    {
      "midi": 57,
      "hit": false,
      "t": 207680.8333333329,
      "d": 81.66666666665697,
      "v": 78
    },
    {
      "midi": 69,
      "hit": false,
      "t": 207684.99999999956,
      "d": 100.83333333334303,
      "v": 70
    },
    {
      "midi": 45,
      "hit": false,
      "t": 207933.3333333329,
      "d": 84.16666666665697,
      "v": 95
    },
    {
      "midi": 64,
      "hit": false,
      "t": 207938.3333333329,
      "d": 163.33333333331393,
      "v": 73
    },
    {
      "midi": 33,
      "hit": false,
      "t": 207941.66666666625,
      "d": 78.33333333331393,
      "v": 89
    },
    {
      "midi": 69,
      "hit": false,
      "t": 207950.8333333329,
      "d": 120.83333333331393,
      "v": 83
    },
    {
      "midi": 57,
      "hit": false,
      "t": 207952.49999999956,
      "d": 92.5,
      "v": 92
    },
    {
      "midi": 61,
      "hit": false,
      "t": 208198.33333333288,
      "d": 131.66666666665697,
      "v": 77
    },
    {
      "midi": 68,
      "hit": false,
      "t": 208202.49999999953,
      "d": 141.66666666665697,
      "v": 92
    },
    {
      "midi": 59,
      "hit": false,
      "t": 208211.6666666662,
      "d": 94.16666666668607,
      "v": 89
    },
    {
      "midi": 44,
      "hit": false,
      "t": 208211.6666666662,
      "d": 573.333333333343,
      "v": 114
    },
    {
      "midi": 32,
      "hit": false,
      "t": 208212.49999999953,
      "d": 910.833333333343,
      "v": 111
    },
    {
      "midi": 64,
      "hit": false,
      "t": 208228.33333333288,
      "d": 32.5,
      "v": 56
    },
    {
      "midi": 65,
      "hit": false,
      "t": 208228.33333333288,
      "d": 109.16666666665697,
      "v": 63
    },
    {
      "midi": 68,
      "hit": false,
      "t": 208446.6666666662,
      "d": 133.33333333334303,
      "v": 75
    },
    {
      "midi": 61,
      "hit": false,
      "t": 208449.99999999953,
      "d": 103.33333333334303,
      "v": 69
    },
    {
      "midi": 59,
      "hit": false,
      "t": 208452.49999999953,
      "d": 95,
      "v": 66
    },
    {
      "midi": 65,
      "hit": false,
      "t": 208458.33333333288,
      "d": 119.16666666665697,
      "v": 65
    },
    {
      "midi": 65,
      "hit": false,
      "t": 208707.49999999953,
      "d": 147.5,
      "v": 66
    },
    {
      "midi": 61,
      "hit": false,
      "t": 208710.83333333288,
      "d": 134.16666666665697,
      "v": 78
    },
    {
      "midi": 59,
      "hit": false,
      "t": 208717.49999999953,
      "d": 99.16666666665697,
      "v": 83
    },
    {
      "midi": 68,
      "hit": false,
      "t": 208717.49999999953,
      "d": 141.66666666665697,
      "v": 79
    },
    {
      "midi": 61,
      "hit": false,
      "t": 208958.33333333288,
      "d": 145,
      "v": 79
    },
    {
      "midi": 65,
      "hit": false,
      "t": 208966.66666666622,
      "d": 147.5,
      "v": 83
    },
    {
      "midi": 68,
      "hit": false,
      "t": 208966.66666666622,
      "d": 149.16666666665697,
      "v": 89
    },
    {
      "midi": 44,
      "hit": false,
      "t": 208969.99999999956,
      "d": 125.83333333331393,
      "v": 108
    },
    {
      "midi": 59,
      "hit": false,
      "t": 208979.16666666622,
      "d": 110.83333333331393,
      "v": 79
    },
    {
      "midi": 65,
      "hit": false,
      "t": 209204.16666666622,
      "d": 146.66666666662786,
      "v": 70
    },
    {
      "midi": 61,
      "hit": false,
      "t": 209206.66666666622,
      "d": 115.83333333331393,
      "v": 75
    },
    {
      "midi": 68,
      "hit": false,
      "t": 209210.83333333288,
      "d": 135.83333333331393,
      "v": 86
    },
    {
      "midi": 59,
      "hit": false,
      "t": 209215.83333333288,
      "d": 91.66666666665697,
      "v": 75
    },
    {
      "midi": 44,
      "hit": false,
      "t": 209219.99999999953,
      "d": 74.16666666665697,
      "v": 105
    },
    {
      "midi": 32,
      "hit": false,
      "t": 209224.99999999953,
      "d": 90.83333333334303,
      "v": 89
    },
    {
      "midi": 61,
      "hit": false,
      "t": 209449.9999999995,
      "d": 134.16666666665697,
      "v": 74
    },
    {
      "midi": 43,
      "hit": false,
      "t": 209453.33333333285,
      "d": 80.83333333334303,
      "v": 89
    },
    {
      "midi": 68,
      "hit": false,
      "t": 209456.6666666662,
      "d": 117.4999999999709,
      "v": 74
    },
    {
      "midi": 31,
      "hit": false,
      "t": 209461.6666666662,
      "d": 76.66666666665697,
      "v": 92
    },
    {
      "midi": 59,
      "hit": false,
      "t": 209468.33333333285,
      "d": 86.66666666665697,
      "v": 77
    },
    {
      "midi": 65,
      "hit": false,
      "t": 209468.33333333285,
      "d": 99.16666666665697,
      "v": 56
    },
    {
      "midi": 61,
      "hit": false,
      "t": 209709.9999999995,
      "d": 145.83333333328483,
      "v": 78
    },
    {
      "midi": 66,
      "hit": false,
      "t": 209712.4999999995,
      "d": 163.33333333328483,
      "v": 79
    },
    {
      "midi": 64,
      "hit": false,
      "t": 209716.66666666616,
      "d": 147.4999999999709,
      "v": 75
    },
    {
      "midi": 57,
      "hit": false,
      "t": 209721.66666666616,
      "d": 115.83333333331393,
      "v": 92
    },
    {
      "midi": 30,
      "hit": false,
      "t": 209723.33333333282,
      "d": 389.16666666662786,
      "v": 95
    },
    {
      "midi": 42,
      "hit": false,
      "t": 209728.33333333282,
      "d": 1019.1666666665988,
      "v": 111
    },
    {
      "midi": 69,
      "hit": false,
      "t": 209732.49999999948,
      "d": 109.16666666665697,
      "v": 78
    },
    {
      "midi": 61,
      "hit": false,
      "t": 209968.3333333328,
      "d": 108.33333333331393,
      "v": 56
    },
    {
      "midi": 57,
      "hit": false,
      "t": 209972.49999999945,
      "d": 99.16666666665697,
      "v": 66
    },
    {
      "midi": 69,
      "hit": false,
      "t": 209985.8333333328,
      "d": 96.66666666665697,
      "v": 57
    },
    {
      "midi": 66,
      "hit": false,
      "t": 209988.3333333328,
      "d": 114.16666666665697,
      "v": 62
    },
    {
      "midi": 64,
      "hit": false,
      "t": 209994.99999999945,
      "d": 90,
      "v": 56
    },
    {
      "midi": 61,
      "hit": false,
      "t": 210235.8333333328,
      "d": 138.33333333334303,
      "v": 74
    },
    {
      "midi": 64,
      "hit": false,
      "t": 210241.66666666613,
      "d": 150,
      "v": 63
    },
    {
      "midi": 57,
      "hit": false,
      "t": 210246.66666666613,
      "d": 105,
      "v": 86
    },
    {
      "midi": 66,
      "hit": false,
      "t": 210246.66666666613,
      "d": 138.33333333334303,
      "v": 69
    },
    {
      "midi": 69,
      "hit": false,
      "t": 210255.8333333328,
      "d": 96.66666666668607,
      "v": 77
    },
    {
      "midi": 57,
      "hit": false,
      "t": 210490.8333333328,
      "d": 116.66666666665697,
      "v": 95
    },
    {
      "midi": 64,
      "hit": false,
      "t": 210493.3333333328,
      "d": 144.16666666665697,
      "v": 83
    },
    {
      "midi": 61,
      "hit": false,
      "t": 210499.99999999945,
      "d": 131.66666666665697,
      "v": 86
    },
    {
      "midi": 66,
      "hit": false,
      "t": 210501.6666666661,
      "d": 130.83333333334303,
      "v": 77
    },
    {
      "midi": 69,
      "hit": false,
      "t": 210508.33333333276,
      "d": 98.33333333334303,
      "v": 83
    },
    {
      "midi": 64,
      "hit": false,
      "t": 210731.6666666661,
      "d": 140,
      "v": 67
    },
    {
      "midi": 57,
      "hit": false,
      "t": 210735.83333333276,
      "d": 112.5,
      "v": 89
    },
    {
      "midi": 61,
      "hit": false,
      "t": 210739.99999999942,
      "d": 125.83333333334303,
      "v": 78
    },
    {
      "midi": 66,
      "hit": false,
      "t": 210744.99999999942,
      "d": 124.16666666668607,
      "v": 70
    },
    {
      "midi": 69,
      "hit": false,
      "t": 210750.83333333276,
      "d": 95,
      "v": 75
    },
    {
      "midi": 49,
      "hit": false,
      "t": 210763.33333333276,
      "d": 111.66666666668607,
      "v": 99
    },
    {
      "midi": 61,
      "hit": false,
      "t": 210983.3333333328,
      "d": 150.0000000000582,
      "v": 75
    },
    {
      "midi": 66,
      "hit": false,
      "t": 210986.66666666613,
      "d": 159.16666666671517,
      "v": 70
    },
    {
      "midi": 42,
      "hit": false,
      "t": 210992.49999999948,
      "d": 170.0000000000291,
      "v": 89
    },
    {
      "midi": 57,
      "hit": false,
      "t": 210995.83333333282,
      "d": 110.83333333334303,
      "v": 75
    },
    {
      "midi": 64,
      "hit": false,
      "t": 211001.66666666616,
      "d": 136.66666666668607,
      "v": 66
    },
    {
      "midi": 69,
      "hit": false,
      "t": 211003.33333333282,
      "d": 109.16666666668607,
      "v": 73
    },
    {
      "midi": 49,
      "hit": false,
      "t": 211225.83333333285,
      "d": 720.8333333332266,
      "v": 105
    },
    {
      "midi": 40,
      "hit": false,
      "t": 211233.33333333285,
      "d": 1135.8333333331975,
      "v": 86
    },
    {
      "midi": 61,
      "hit": false,
      "t": 211242.4999999995,
      "d": 144.9999999999709,
      "v": 89
    },
    {
      "midi": 57,
      "hit": false,
      "t": 211247.4999999995,
      "d": 125.83333333331393,
      "v": 95
    },
    {
      "midi": 64,
      "hit": false,
      "t": 211249.9999999995,
      "d": 139.9999999999709,
      "v": 73
    },
    {
      "midi": 69,
      "hit": false,
      "t": 211256.66666666616,
      "d": 121.66666666665697,
      "v": 71
    },
    {
      "midi": 66,
      "hit": false,
      "t": 211256.66666666616,
      "d": 148.33333333331393,
      "v": 79
    },
    {
      "midi": 61,
      "hit": false,
      "t": 211489.99999999948,
      "d": 121.66666666665697,
      "v": 74
    },
    {
      "midi": 66,
      "hit": false,
      "t": 211494.99999999948,
      "d": 132.5,
      "v": 71
    },
    {
      "midi": 57,
      "hit": false,
      "t": 211497.49999999948,
      "d": 100,
      "v": 83
    },
    {
      "midi": 64,
      "hit": false,
      "t": 211503.33333333282,
      "d": 116.66666666665697,
      "v": 71
    },
    {
      "midi": 69,
      "hit": false,
      "t": 211505.83333333282,
      "d": 104.16666666665697,
      "v": 75
    },
    {
      "midi": 61,
      "hit": false,
      "t": 211736.66666666613,
      "d": 139.16666666662786,
      "v": 66
    },
    {
      "midi": 57,
      "hit": false,
      "t": 211740.8333333328,
      "d": 126.66666666665697,
      "v": 71
    },
    {
      "midi": 64,
      "hit": false,
      "t": 211744.99999999945,
      "d": 137.4999999999709,
      "v": 61
    },
    {
      "midi": 66,
      "hit": false,
      "t": 211750.8333333328,
      "d": 143.33333333328483,
      "v": 75
    },
    {
      "midi": 69,
      "hit": false,
      "t": 211755.8333333328,
      "d": 115.83333333331393,
      "v": 69
    },
    {
      "midi": 61,
      "hit": false,
      "t": 211997.49999999942,
      "d": 143.33333333331393,
      "v": 79
    },
    {
      "midi": 57,
      "hit": false,
      "t": 212001.66666666607,
      "d": 125.83333333331393,
      "v": 92
    },
    {
      "midi": 64,
      "hit": false,
      "t": 212010.83333333273,
      "d": 135,
      "v": 77
    },
    {
      "midi": 66,
      "hit": false,
      "t": 212010.83333333273,
      "d": 139.16666666665697,
      "v": 77
    },
    {
      "midi": 69,
      "hit": false,
      "t": 212013.33333333273,
      "d": 112.5,
      "v": 71
    },
    {
      "midi": 49,
      "hit": false,
      "t": 212032.4999999994,
      "d": 120.83333333334303,
      "v": 92
    },
    {
      "midi": 66,
      "hit": false,
      "t": 212235.83333333273,
      "d": 150.83333333331393,
      "v": 75
    },
    {
      "midi": 57,
      "hit": false,
      "t": 212237.4999999994,
      "d": 113.33333333334303,
      "v": 86
    },
    {
      "midi": 61,
      "hit": false,
      "t": 212243.33333333273,
      "d": 139.9999999999709,
      "v": 74
    },
    {
      "midi": 64,
      "hit": false,
      "t": 212247.4999999994,
      "d": 131.66666666665697,
      "v": 59
    },
    {
      "midi": 69,
      "hit": false,
      "t": 212249.9999999994,
      "d": 107.5,
      "v": 75
    },
    {
      "midi": 49,
      "hit": false,
      "t": 212265.83333333273,
      "d": 109.16666666665697,
      "v": 95
    },
    {
      "midi": 61,
      "hit": false,
      "t": 212485.8333333327,
      "d": 135,
      "v": 75
    },
    {
      "midi": 66,
      "hit": false,
      "t": 212489.99999999936,
      "d": 143.33333333334303,
      "v": 69
    },
    {
      "midi": 42,
      "hit": false,
      "t": 212495.8333333327,
      "d": 161.66666666665697,
      "v": 79
    },
    {
      "midi": 69,
      "hit": false,
      "t": 212497.49999999936,
      "d": 112.5,
      "v": 71
    },
    {
      "midi": 57,
      "hit": false,
      "t": 212504.99999999936,
      "d": 95.83333333334303,
      "v": 66
    },
    {
      "midi": 64,
      "hit": false,
      "t": 212507.49999999936,
      "d": 108.33333333334303,
      "v": 60
    },
    {
      "midi": 47,
      "hit": false,
      "t": 212750.83333333267,
      "d": 469.16666666665697,
      "v": 105
    },
    {
      "midi": 66,
      "hit": false,
      "t": 212755.83333333267,
      "d": 155.83333333334303,
      "v": 99
    },
    {
      "midi": 63,
      "hit": false,
      "t": 212763.33333333267,
      "d": 127.5,
      "v": 99
    },
    {
      "midi": 35,
      "hit": false,
      "t": 212765.83333333267,
      "d": 951.6666666666279,
      "v": 108
    },
    {
      "midi": 71,
      "hit": false,
      "t": 212771.66666666602,
      "d": 104.16666666665697,
      "v": 83
    },
    {
      "midi": 66,
      "hit": false,
      "t": 212981.66666666602,
      "d": 109.9999999999709,
      "v": 62
    },
    {
      "midi": 63,
      "hit": false,
      "t": 212990.83333333267,
      "d": 86.66666666665697,
      "v": 69
    },
    {
      "midi": 57,
      "hit": false,
      "t": 212999.16666666602,
      "d": 90.83333333331393,
      "v": 75
    },
    {
      "midi": 71,
      "hit": false,
      "t": 213003.33333333267,
      "d": 100.83333333331393,
      "v": 73
    },
    {
      "midi": 57,
      "hit": false,
      "t": 213263.33333333267,
      "d": 91.66666666665697,
      "v": 83
    },
    {
      "midi": 63,
      "hit": false,
      "t": 213266.66666666602,
      "d": 102.4999999999709,
      "v": 74
    },
    {
      "midi": 66,
      "hit": false,
      "t": 213273.33333333267,
      "d": 108.33333333331393,
      "v": 75
    },
    {
      "midi": 71,
      "hit": false,
      "t": 213275.83333333267,
      "d": 107.4999999999709,
      "v": 75
    },
    {
      "midi": 71,
      "hit": false,
      "t": 213520.83333333264,
      "d": 149.16666666665697,
      "v": 86
    },
    {
      "midi": 66,
      "hit": false,
      "t": 213525.83333333264,
      "d": 140,
      "v": 95
    },
    {
      "midi": 63,
      "hit": false,
      "t": 213531.666666666,
      "d": 135.83333333331393,
      "v": 95
    },
    {
      "midi": 47,
      "hit": false,
      "t": 213534.99999999933,
      "d": 176.66666666662786,
      "v": 108
    },
    {
      "midi": 57,
      "hit": false,
      "t": 213539.99999999933,
      "d": 115.83333333331393,
      "v": 102
    },
    {
      "midi": 66,
      "hit": false,
      "t": 213757.4999999993,
      "d": 129.16666666665697,
      "v": 70
    },
    {
      "midi": 71,
      "hit": false,
      "t": 213760.83333333264,
      "d": 137.4999999999709,
      "v": 55
    },
    {
      "midi": 63,
      "hit": false,
      "t": 213764.9999999993,
      "d": 120.83333333331393,
      "v": 77
    },
    {
      "midi": 57,
      "hit": false,
      "t": 213767.4999999993,
      "d": 104.16666666665697,
      "v": 67
    },
    {
      "midi": 35,
      "hit": false,
      "t": 213904.99999999927,
      "d": 76.66666666668607,
      "v": 47
    },
    {
      "midi": 36,
      "hit": false,
      "t": 213965.83333333262,
      "d": 102.5,
      "v": 55
    },
    {
      "midi": 38,
      "hit": false,
      "t": 213989.9999999993,
      "d": 121.66666666665697,
      "v": 74
    },
    {
      "midi": 63,
      "hit": false,
      "t": 214012.4999999993,
      "d": 103.33333333331393,
      "v": 74
    },
    {
      "midi": 66,
      "hit": false,
      "t": 214016.66666666596,
      "d": 129.16666666665697,
      "v": 71
    },
    {
      "midi": 71,
      "hit": false,
      "t": 214021.66666666596,
      "d": 70,
      "v": 66
    },
    {
      "midi": 57,
      "hit": false,
      "t": 214025.83333333262,
      "d": 68.33333333334303,
      "v": 83
    },
    {
      "midi": 39,
      "hit": false,
      "t": 214071.66666666596,
      "d": 100.83333333331393,
      "v": 86
    },
    {
      "midi": 40,
      "hit": false,
      "t": 214276.66666666593,
      "d": 380.83333333331393,
      "v": 95
    },
    {
      "midi": 64,
      "hit": false,
      "t": 214280.8333333326,
      "d": 140.0000000000291,
      "v": 74
    },
    {
      "midi": 62,
      "hit": false,
      "t": 214284.99999999924,
      "d": 138.33333333337214,
      "v": 73
    },
    {
      "midi": 28,
      "hit": false,
      "t": 214290.8333333326,
      "d": 960.833333333343,
      "v": 108
    },
    {
      "midi": 68,
      "hit": false,
      "t": 214294.99999999924,
      "d": 87.5000000000291,
      "v": 99
    },
    {
      "midi": 56,
      "hit": false,
      "t": 214298.3333333326,
      "d": 73.33333333334303,
      "v": 105
    },
    {
      "midi": 64,
      "hit": false,
      "t": 214522.49999999927,
      "d": 140.83333333331393,
      "v": 61
    },
    {
      "midi": 56,
      "hit": false,
      "t": 214534.99999999927,
      "d": 79.16666666665697,
      "v": 71
    },
    {
      "midi": 62,
      "hit": false,
      "t": 214538.33333333262,
      "d": 121.66666666662786,
      "v": 60
    },
    {
      "midi": 68,
      "hit": false,
      "t": 214542.49999999927,
      "d": 83.33333333331393,
      "v": 78
    },
    {
      "midi": 62,
      "hit": false,
      "t": 214789.99999999924,
      "d": 141.66666666668607,
      "v": 60
    },
    {
      "midi": 64,
      "hit": false,
      "t": 214793.3333333326,
      "d": 140.83333333334303,
      "v": 57
    },
    {
      "midi": 56,
      "hit": false,
      "t": 214796.66666666593,
      "d": 83.33333333334303,
      "v": 79
    },
    {
      "midi": 68,
      "hit": false,
      "t": 214806.66666666593,
      "d": 93.33333333334303,
      "v": 86
    },
    {
      "midi": 68,
      "hit": false,
      "t": 215039.99999999924,
      "d": 121.66666666665697,
      "v": 95
    },
    {
      "midi": 62,
      "hit": false,
      "t": 215043.3333333326,
      "d": 149.16666666665697,
      "v": 70
    },
    {
      "midi": 56,
      "hit": false,
      "t": 215045.8333333326,
      "d": 99.9999999999709,
      "v": 105
    },
    {
      "midi": 64,
      "hit": false,
      "t": 215054.99999999924,
      "d": 140.83333333334303,
      "v": 74
    },
    {
      "midi": 40,
      "hit": false,
      "t": 215054.99999999924,
      "d": 143.33333333334303,
      "v": 102
    },
    {
      "midi": 64,
      "hit": false,
      "t": 215290.8333333326,
      "d": 144.16666666665697,
      "v": 61
    },
    {
      "midi": 56,
      "hit": false,
      "t": 215297.49999999924,
      "d": 73.33333333331393,
      "v": 78
    },
    {
      "midi": 62,
      "hit": false,
      "t": 215301.6666666659,
      "d": 138.33333333334303,
      "v": 71
    },
    {
      "midi": 68,
      "hit": false,
      "t": 215305.83333333256,
      "d": 100.83333333334303,
      "v": 75
    },
    {
      "midi": 62,
      "hit": false,
      "t": 215534.1666666659,
      "d": 113.33333333331393,
      "v": 42
    },
    {
      "midi": 68,
      "hit": false,
      "t": 215536.6666666659,
      "d": 128.33333333331393,
      "v": 78
    },
    {
      "midi": 64,
      "hit": false,
      "t": 215540.83333333256,
      "d": 129.16666666665697,
      "v": 47
    },
    {
      "midi": 28,
      "hit": false,
      "t": 215548.33333333256,
      "d": 68.33333333331393,
      "v": 102
    },
    {
      "midi": 56,
      "hit": false,
      "t": 215549.9999999992,
      "d": 80,
      "v": 86
    },
    {
      "midi": 40,
      "hit": false,
      "t": 215552.4999999992,
      "d": 80,
      "v": 92
    },
    {
      "midi": 64,
      "hit": false,
      "t": 215796.6666666659,
      "d": 161.66666666668607,
      "v": 79
    },
    {
      "midi": 57,
      "hit": false,
      "t": 215801.6666666659,
      "d": 123.33333333334303,
      "v": 99
    },
    {
      "midi": 61,
      "hit": false,
      "t": 215804.99999999924,
      "d": 142.5,
      "v": 89
    },
    {
      "midi": 69,
      "hit": false,
      "t": 215810.8333333326,
      "d": 123.33333333331393,
      "v": 92
    },
    {
      "midi": 45,
      "hit": false,
      "t": 215810.8333333326,
      "d": 141.66666666665697,
      "v": 102
    },
    {
      "midi": 33,
      "hit": false,
      "t": 215818.3333333326,
      "d": 108.33333333331393,
      "v": 102
    },
    {
      "midi": 61,
      "hit": false,
      "t": 216052.49999999924,
      "d": 151.66666666668607,
      "v": 79
    },
    {
      "midi": 64,
      "hit": false,
      "t": 216055.8333333326,
      "d": 164.16666666668607,
      "v": 78
    },
    {
      "midi": 69,
      "hit": false,
      "t": 216059.99999999924,
      "d": 131.66666666668607,
      "v": 77
    },
    {
      "midi": 57,
      "hit": false,
      "t": 216060.8333333326,
      "d": 120.83333333334303,
      "v": 92
    },
    {
      "midi": 45,
      "hit": false,
      "t": 216071.66666666593,
      "d": 95,
      "v": 99
    },
    {
      "midi": 33,
      "hit": false,
      "t": 216073.3333333326,
      "d": 131.66666666668607,
      "v": 92
    },
    {
      "midi": 64,
      "hit": false,
      "t": 216314.16666666593,
      "d": 158.33333333334303,
      "v": 73
    },
    {
      "midi": 57,
      "hit": false,
      "t": 216317.49999999927,
      "d": 125,
      "v": 95
    },
    {
      "midi": 61,
      "hit": false,
      "t": 216319.99999999927,
      "d": 145.83333333334303,
      "v": 86
    },
    {
      "midi": 69,
      "hit": false,
      "t": 216325.83333333262,
      "d": 125.83333333334303,
      "v": 83
    },
    {
      "midi": 45,
      "hit": false,
      "t": 216329.99999999927,
      "d": 115.83333333334303,
      "v": 99
    },
    {
      "midi": 33,
      "hit": false,
      "t": 216331.66666666593,
      "d": 121.66666666668607,
      "v": 83
    },
    {
      "midi": 45,
      "hit": false,
      "t": 216571.66666666593,
      "d": 87.4999999999709,
      "v": 89
    },
    {
      "midi": 61,
      "hit": false,
      "t": 216575.8333333326,
      "d": 155,
      "v": 92
    },
    {
      "midi": 57,
      "hit": false,
      "t": 216579.99999999924,
      "d": 130.83333333334303,
      "v": 99
    },
    {
      "midi": 64,
      "hit": false,
      "t": 216579.99999999924,
      "d": 166.66666666668607,
      "v": 89
    },
    {
      "midi": 33,
      "hit": false,
      "t": 216586.6666666659,
      "d": 75.83333333334303,
      "v": 92
    },
    {
      "midi": 69,
      "hit": false,
      "t": 216590.83333333256,
      "d": 120.83333333337214,
      "v": 83
    },
    {
      "midi": 44,
      "hit": false,
      "t": 216814.99999999927,
      "d": 92.5,
      "v": 114
    },
    {
      "midi": 32,
      "hit": false,
      "t": 216820.83333333262,
      "d": 75,
      "v": 105
    },
    {
      "midi": 64,
      "hit": false,
      "t": 216828.33333333262,
      "d": 159.16666666665697,
      "v": 79
    },
    {
      "midi": 61,
      "hit": false,
      "t": 216832.49999999927,
      "d": 150.83333333334303,
      "v": 86
    },
    {
      "midi": 57,
      "hit": false,
      "t": 216835.83333333262,
      "d": 127.5,
      "v": 95
    },
    {
      "midi": 69,
      "hit": false,
      "t": 216840.83333333262,
      "d": 130.83333333334303,
      "v": 79
    },
    {
      "midi": 61,
      "hit": false,
      "t": 217071.66666666593,
      "d": 139.16666666665697,
      "v": 74
    },
    {
      "midi": 43,
      "hit": false,
      "t": 217076.66666666593,
      "d": 99.16666666665697,
      "v": 102
    },
    {
      "midi": 31,
      "hit": false,
      "t": 217079.16666666593,
      "d": 116.66666666665697,
      "v": 95
    },
    {
      "midi": 57,
      "hit": false,
      "t": 217083.3333333326,
      "d": 125,
      "v": 77
    },
    {
      "midi": 64,
      "hit": false,
      "t": 217088.3333333326,
      "d": 148.33333333334303,
      "v": 70
    },
    {
      "midi": 69,
      "hit": false,
      "t": 217092.49999999924,
      "d": 140.83333333334303,
      "v": 86
    },
    {
      "midi": 65,
      "hit": false,
      "t": 217327.49999999927,
      "d": 194.16666666668607,
      "v": 92
    },
    {
      "midi": 41,
      "hit": false,
      "t": 217332.49999999927,
      "d": 179.16666666668607,
      "v": 108
    },
    {
      "midi": 29,
      "hit": false,
      "t": 217336.66666666593,
      "d": 186.66666666668607,
      "v": 102
    },
    {
      "midi": 57,
      "hit": false,
      "t": 217339.99999999927,
      "d": 160.0000000000291,
      "v": 99
    },
    {
      "midi": 63,
      "hit": false,
      "t": 217345.83333333262,
      "d": 165.83333333334303,
      "v": 95
    },
    {
      "midi": 69,
      "hit": false,
      "t": 217346.66666666596,
      "d": 150.83333333334303,
      "v": 92
    },
    {
      "midi": 65,
      "hit": false,
      "t": 217579.99999999927,
      "d": 158.33333333334303,
      "v": 79
    },
    {
      "midi": 63,
      "hit": false,
      "t": 217582.49999999927,
      "d": 159.16666666668607,
      "v": 95
    },
    {
      "midi": 57,
      "hit": false,
      "t": 217591.66666666593,
      "d": 120.83333333334303,
      "v": 67
    },
    {
      "midi": 69,
      "hit": false,
      "t": 217591.66666666593,
      "d": 130,
      "v": 73
    },
    {
      "midi": 41,
      "hit": false,
      "t": 217601.66666666593,
      "d": 107.5,
      "v": 105
    },
    {
      "midi": 29,
      "hit": false,
      "t": 217601.66666666593,
      "d": 133.33333333334303,
      "v": 83
    },
    {
      "midi": 63,
      "hit": false,
      "t": 217833.33333333262,
      "d": 163.33333333334303,
      "v": 92
    },
    {
      "midi": 65,
      "hit": false,
      "t": 217836.66666666596,
      "d": 168.33333333334303,
      "v": 86
    },
    {
      "midi": 57,
      "hit": false,
      "t": 217842.4999999993,
      "d": 116.66666666662786,
      "v": 92
    },
    {
      "midi": 69,
      "hit": false,
      "t": 217844.16666666596,
      "d": 138.33333333331393,
      "v": 89
    },
    {
      "midi": 41,
      "hit": false,
      "t": 217853.33333333262,
      "d": 104.16666666665697,
      "v": 108
    },
    {
      "midi": 29,
      "hit": false,
      "t": 217853.33333333262,
      "d": 132.5,
      "v": 111
    },
    {
      "midi": 65,
      "hit": false,
      "t": 218091.66666666596,
      "d": 169.9999999999709,
      "v": 92
    },
    {
      "midi": 63,
      "hit": false,
      "t": 218093.33333333262,
      "d": 159.16666666665697,
      "v": 105
    },
    {
      "midi": 57,
      "hit": false,
      "t": 218099.99999999927,
      "d": 123.33333333334303,
      "v": 105
    },
    {
      "midi": 69,
      "hit": false,
      "t": 218100.83333333262,
      "d": 139.16666666665697,
      "v": 95
    },
    {
      "midi": 41,
      "hit": false,
      "t": 218108.33333333262,
      "d": 126.66666666665697,
      "v": 111
    },
    {
      "midi": 29,
      "hit": false,
      "t": 218108.33333333262,
      "d": 129.16666666665697,
      "v": 102
    },
    {
      "midi": 65,
      "hit": false,
      "t": 218344.99999999927,
      "d": 165,
      "v": 79
    },
    {
      "midi": 63,
      "hit": false,
      "t": 218346.66666666593,
      "d": 169.16666666668607,
      "v": 92
    },
    {
      "midi": 69,
      "hit": false,
      "t": 218350.8333333326,
      "d": 150.83333333334303,
      "v": 74
    },
    {
      "midi": 57,
      "hit": false,
      "t": 218355.8333333326,
      "d": 117.5,
      "v": 83
    },
    {
      "midi": 41,
      "hit": false,
      "t": 218360.8333333326,
      "d": 106.66666666665697,
      "v": 102
    },
    {
      "midi": 29,
      "hit": false,
      "t": 218364.99999999924,
      "d": 162.5000000000291,
      "v": 99
    },
    {
      "midi": 63,
      "hit": false,
      "t": 218583.33333333262,
      "d": 134.16666666668607,
      "v": 71
    },
    {
      "midi": 65,
      "hit": false,
      "t": 218586.66666666596,
      "d": 187.5000000000291,
      "v": 52
    },
    {
      "midi": 29,
      "hit": false,
      "t": 218590.83333333262,
      "d": 103.33333333334303,
      "v": 86
    },
    {
      "midi": 69,
      "hit": false,
      "t": 218597.49999999927,
      "d": 125.83333333337214,
      "v": 73
    },
    {
      "midi": 57,
      "hit": false,
      "t": 218602.49999999927,
      "d": 95.0000000000291,
      "v": 89
    },
    {
      "midi": 36,
      "hit": false,
      "t": 218608.33333333262,
      "d": 177.5000000000291,
      "v": 89
    },
    {
      "midi": 34,
      "hit": false,
      "t": 218841.666666666,
      "d": 230,
      "v": 111
    },
    {
      "midi": 65,
      "hit": false,
      "t": 218845.83333333264,
      "d": 178.33333333334303,
      "v": 71
    },
    {
      "midi": 60,
      "hit": false,
      "t": 218850.83333333264,
      "d": 112.5,
      "v": 92
    },
    {
      "midi": 61,
      "hit": false,
      "t": 218853.33333333264,
      "d": 84.16666666665697,
      "v": 105
    },
    {
      "midi": 41,
      "hit": false,
      "t": 218859.9999999993,
      "d": 479.1666666667152,
      "v": 102
    },
    {
      "midi": 70,
      "hit": false,
      "t": 218860.83333333264,
      "d": 125.83333333334303,
      "v": 99
    },
    {
      "midi": 62,
      "hit": false,
      "t": 218929.9999999993,
      "d": 113.33333333334303,
      "v": 78
    },
    {
      "midi": 62,
      "hit": false,
      "t": 219102.49999999933,
      "d": 136.66666666668607,
      "v": 61
    },
    {
      "midi": 65,
      "hit": false,
      "t": 219113.33333333267,
      "d": 127.5,
      "v": 55
    },
    {
      "midi": 70,
      "hit": false,
      "t": 219115.83333333267,
      "d": 135,
      "v": 70
    },
    {
      "midi": 60,
      "hit": false,
      "t": 219119.16666666602,
      "d": 86.66666666665697,
      "v": 66
    },
    {
      "midi": 34,
      "hit": false,
      "t": 219349.99999999936,
      "d": 355.83333333334303,
      "v": 71
    },
    {
      "midi": 62,
      "hit": false,
      "t": 219357.49999999936,
      "d": 148.33333333334303,
      "v": 57
    },
    {
      "midi": 70,
      "hit": false,
      "t": 219360.8333333327,
      "d": 180.83333333334303,
      "v": 59
    },
    {
      "midi": 60,
      "hit": false,
      "t": 219369.99999999936,
      "d": 106.66666666668607,
      "v": 62
    },
    {
      "midi": 65,
      "hit": false,
      "t": 219375.8333333327,
      "d": 165,
      "v": 56
    },
    {
      "midi": 43,
      "hit": false,
      "t": 219637.49999999936,
      "d": 424.16666666665697,
      "v": 83
    },
    {
      "midi": 70,
      "hit": false,
      "t": 219641.66666666602,
      "d": 169.16666666668607,
      "v": 89
    },
    {
      "midi": 62,
      "hit": false,
      "t": 219642.49999999936,
      "d": 150.83333333334303,
      "v": 73
    },
    {
      "midi": 65,
      "hit": false,
      "t": 219644.99999999936,
      "d": 150.83333333334303,
      "v": 75
    },
    {
      "midi": 60,
      "hit": false,
      "t": 219649.99999999936,
      "d": 115.83333333334303,
      "v": 92
    },
    {
      "midi": 70,
      "hit": false,
      "t": 219886.66666666605,
      "d": 133.33333333331393,
      "v": 46
    },
    {
      "midi": 65,
      "hit": false,
      "t": 219890.8333333327,
      "d": 112.5,
      "v": 40
    },
    {
      "midi": 62,
      "hit": false,
      "t": 219890.8333333327,
      "d": 119.16666666665697,
      "v": 42
    },
    {
      "midi": 60,
      "hit": false,
      "t": 219899.99999999936,
      "d": 90,
      "v": 57
    },
    {
      "midi": 34,
      "hit": false,
      "t": 220128.33333333267,
      "d": 338.33333333331393,
      "v": 79
    },
    {
      "midi": 62,
      "hit": false,
      "t": 220134.99999999933,
      "d": 136.66666666662786,
      "v": 74
    },
    {
      "midi": 70,
      "hit": false,
      "t": 220136.666666666,
      "d": 154.16666666665697,
      "v": 78
    },
    {
      "midi": 60,
      "hit": false,
      "t": 220140.83333333264,
      "d": 89.16666666665697,
      "v": 69
    },
    {
      "midi": 65,
      "hit": false,
      "t": 220140.83333333264,
      "d": 139.16666666665697,
      "v": 75
    },
    {
      "midi": 62,
      "hit": false,
      "t": 220399.9999999993,
      "d": 142.5000000000291,
      "v": 71
    },
    {
      "midi": 70,
      "hit": false,
      "t": 220403.33333333264,
      "d": 158.33333333334303,
      "v": 92
    },
    {
      "midi": 44,
      "hit": false,
      "t": 220403.33333333264,
      "d": 457.5000000000291,
      "v": 105
    },
    {
      "midi": 60,
      "hit": false,
      "t": 220409.9999999993,
      "d": 116.66666666668607,
      "v": 78
    },
    {
      "midi": 65,
      "hit": false,
      "t": 220409.9999999993,
      "d": 147.5000000000291,
      "v": 86
    },
    {
      "midi": 65,
      "hit": false,
      "t": 220641.666666666,
      "d": 140.83333333334303,
      "v": 44
    },
    {
      "midi": 70,
      "hit": false,
      "t": 220649.99999999933,
      "d": 150,
      "v": 51
    },
    {
      "midi": 62,
      "hit": false,
      "t": 220655.83333333267,
      "d": 123.33333333331393,
      "v": 63
    },
    {
      "midi": 60,
      "hit": false,
      "t": 220659.99999999933,
      "d": 99.16666666665697,
      "v": 56
    },
    {
      "midi": 62,
      "hit": false,
      "t": 220915.83333333267,
      "d": 131.66666666662786,
      "v": 65
    },
    {
      "midi": 65,
      "hit": false,
      "t": 220917.49999999933,
      "d": 130.83333333331393,
      "v": 74
    },
    {
      "midi": 70,
      "hit": false,
      "t": 220921.666666666,
      "d": 136.66666666665697,
      "v": 75
    },
    {
      "midi": 34,
      "hit": false,
      "t": 220923.33333333264,
      "d": 332.5,
      "v": 86
    },
    {
      "midi": 60,
      "hit": false,
      "t": 220928.33333333264,
      "d": 92.5,
      "v": 65
    },
    {
      "midi": 70,
      "hit": false,
      "t": 221171.66666666596,
      "d": 135.83333333334303,
      "v": 89
    },
    {
      "midi": 62,
      "hit": false,
      "t": 221176.66666666596,
      "d": 156.66666666668607,
      "v": 83
    },
    {
      "midi": 60,
      "hit": false,
      "t": 221179.9999999993,
      "d": 115.83333333334303,
      "v": 95
    },
    {
      "midi": 65,
      "hit": false,
      "t": 221179.9999999993,
      "d": 157.5,
      "v": 89
    },
    {
      "midi": 43,
      "hit": false,
      "t": 221187.4999999993,
      "d": 372.5,
      "v": 79
    },
    {
      "midi": 65,
      "hit": false,
      "t": 221400.83333333264,
      "d": 156.66666666665697,
      "v": 62
    },
    {
      "midi": 62,
      "hit": false,
      "t": 221404.9999999993,
      "d": 165,
      "v": 56
    },
    {
      "midi": 70,
      "hit": false,
      "t": 221416.66666666596,
      "d": 144.16666666668607,
      "v": 75
    },
    {
      "midi": 60,
      "hit": false,
      "t": 221419.9999999993,
      "d": 106.66666666665697,
      "v": 74
    },
    {
      "midi": 34,
      "hit": false,
      "t": 221667.4999999993,
      "d": 297.5000000000291,
      "v": 95
    },
    {
      "midi": 62,
      "hit": false,
      "t": 221675.83333333264,
      "d": 169.9999999999709,
      "v": 74
    },
    {
      "midi": 70,
      "hit": false,
      "t": 221677.4999999993,
      "d": 134.16666666665697,
      "v": 79
    },
    {
      "midi": 60,
      "hit": false,
      "t": 221681.66666666596,
      "d": 104.16666666665697,
      "v": 83
    },
    {
      "midi": 65,
      "hit": false,
      "t": 221686.66666666596,
      "d": 152.5,
      "v": 79
    },
    {
      "midi": 62,
      "hit": false,
      "t": 221922.4999999993,
      "d": 180.0000000000291,
      "v": 42
    },
    {
      "midi": 65,
      "hit": false,
      "t": 221933.33333333264,
      "d": 172.5000000000291,
      "v": 51
    },
    {
      "midi": 68,
      "hit": false,
      "t": 221936.666666666,
      "d": 144.16666666668607,
      "v": 77
    },
    {
      "midi": 56,
      "hit": false,
      "t": 221940.83333333264,
      "d": 106.66666666668607,
      "v": 105
    },
    {
      "midi": 70,
      "hit": false,
      "t": 221945.83333333264,
      "d": 100.83333333334303,
      "v": 74
    },
    {
      "midi": 41,
      "hit": false,
      "t": 221946.666666666,
      "d": 560,
      "v": 89
    },
    {
      "midi": 68,
      "hit": false,
      "t": 222193.33333333267,
      "d": 144.16666666662786,
      "v": 77
    },
    {
      "midi": 62,
      "hit": false,
      "t": 222197.49999999933,
      "d": 127.4999999999709,
      "v": 45
    },
    {
      "midi": 56,
      "hit": false,
      "t": 222199.166666666,
      "d": 88.33333333331393,
      "v": 79
    },
    {
      "midi": 65,
      "hit": false,
      "t": 222201.666666666,
      "d": 130.83333333331393,
      "v": 39
    },
    {
      "midi": 70,
      "hit": false,
      "t": 222208.33333333264,
      "d": 104.16666666665697,
      "v": 75
    },
    {
      "midi": 34,
      "hit": false,
      "t": 222440.83333333264,
      "d": 328.33333333337214,
      "v": 79
    },
    {
      "midi": 68,
      "hit": false,
      "t": 222444.9999999993,
      "d": 162.5000000000291,
      "v": 70
    },
    {
      "midi": 56,
      "hit": false,
      "t": 222448.33333333264,
      "d": 103.33333333334303,
      "v": 86
    },
    {
      "midi": 70,
      "hit": false,
      "t": 222454.9999999993,
      "d": 106.66666666668607,
      "v": 71
    },
    {
      "midi": 62,
      "hit": false,
      "t": 222460.83333333264,
      "d": 146.66666666668607,
      "v": 57
    },
    {
      "midi": 65,
      "hit": false,
      "t": 222461.666666666,
      "d": 140,
      "v": 59
    },
    {
      "midi": 56,
      "hit": false,
      "t": 222714.99999999933,
      "d": 111.66666666668607,
      "v": 111
    },
    {
      "midi": 68,
      "hit": false,
      "t": 222717.49999999933,
      "d": 162.5000000000291,
      "v": 78
    },
    {
      "midi": 70,
      "hit": false,
      "t": 222723.33333333267,
      "d": 115.83333333334303,
      "v": 86
    },
    {
      "midi": 62,
      "hit": false,
      "t": 222726.66666666602,
      "d": 158.33333333334303,
      "v": 70
    },
    {
      "midi": 65,
      "hit": false,
      "t": 222731.66666666602,
      "d": 138.33333333334303,
      "v": 73
    },
    {
      "midi": 43,
      "hit": false,
      "t": 222734.16666666602,
      "d": 443.33333333334303,
      "v": 86
    },
    {
      "midi": 68,
      "hit": false,
      "t": 222949.99999999936,
      "d": 156.66666666665697,
      "v": 51
    },
    {
      "midi": 62,
      "hit": false,
      "t": 222953.3333333327,
      "d": 161.66666666665697,
      "v": 45
    },
    {
      "midi": 56,
      "hit": false,
      "t": 222959.16666666605,
      "d": 93.33333333331393,
      "v": 78
    },
    {
      "midi": 65,
      "hit": false,
      "t": 222963.3333333327,
      "d": 136.66666666665697,
      "v": 45
    },
    {
      "midi": 70,
      "hit": false,
      "t": 222975.8333333327,
      "d": 95,
      "v": 56
    },
    {
      "midi": 70,
      "hit": false,
      "t": 223205.8333333327,
      "d": 129.16666666665697,
      "v": 70
    },
    {
      "midi": 56,
      "hit": false,
      "t": 223209.99999999936,
      "d": 106.66666666665697,
      "v": 86
    },
    {
      "midi": 68,
      "hit": false,
      "t": 223213.3333333327,
      "d": 163.33333333331393,
      "v": 56
    },
    {
      "midi": 34,
      "hit": false,
      "t": 223217.49999999936,
      "d": 314.16666666665697,
      "v": 78
    },
    {
      "midi": 62,
      "hit": false,
      "t": 223221.66666666602,
      "d": 153.33333333334303,
      "v": 52
    },
    {
      "midi": 65,
      "hit": false,
      "t": 223225.83333333267,
      "d": 146.66666666668607,
      "v": 60
    },
    {
      "midi": 70,
      "hit": false,
      "t": 223471.66666666602,
      "d": 112.5,
      "v": 69
    },
    {
      "midi": 56,
      "hit": false,
      "t": 223474.99999999936,
      "d": 98.33333333331393,
      "v": 108
    },
    {
      "midi": 68,
      "hit": false,
      "t": 223480.8333333327,
      "d": 151.66666666662786,
      "v": 66
    },
    {
      "midi": 44,
      "hit": false,
      "t": 223485.8333333327,
      "d": 469.16666666659876,
      "v": 108
    },
    {
      "midi": 62,
      "hit": false,
      "t": 223489.99999999936,
      "d": 138.33333333331393,
      "v": 65
    },
    {
      "midi": 65,
      "hit": false,
      "t": 223491.66666666602,
      "d": 142.4999999999709,
      "v": 62
    },
    {
      "midi": 65,
      "hit": false,
      "t": 223710.83333333264,
      "d": 155,
      "v": 45
    },
    {
      "midi": 56,
      "hit": false,
      "t": 223716.666666666,
      "d": 103.33333333331393,
      "v": 78
    },
    {
      "midi": 68,
      "hit": false,
      "t": 223719.99999999933,
      "d": 155.83333333331393,
      "v": 54
    },
    {
      "midi": 62,
      "hit": false,
      "t": 223724.166666666,
      "d": 139.16666666665697,
      "v": 42
    },
    {
      "midi": 70,
      "hit": false,
      "t": 223743.33333333264,
      "d": 92.5,
      "v": 55
    },
    {
      "midi": 34,
      "hit": false,
      "t": 223986.66666666596,
      "d": 654.1666666667152,
      "v": 86
    },
    {
      "midi": 70,
      "hit": false,
      "t": 223991.66666666596,
      "d": 130.0000000000291,
      "v": 74
    },
    {
      "midi": 56,
      "hit": false,
      "t": 223995.83333333262,
      "d": 107.5000000000291,
      "v": 86
    },
    {
      "midi": 68,
      "hit": false,
      "t": 223999.16666666596,
      "d": 151.66666666668607,
      "v": 70
    },
    {
      "midi": 62,
      "hit": false,
      "t": 224001.66666666596,
      "d": 149.16666666668607,
      "v": 67
    },
    {
      "midi": 65,
      "hit": false,
      "t": 224004.9999999993,
      "d": 140.83333333334303,
      "v": 61
    },
    {
      "midi": 56,
      "hit": false,
      "t": 224249.166666666,
      "d": 105.0000000000291,
      "v": 99
    },
    {
      "midi": 70,
      "hit": false,
      "t": 224253.33333333264,
      "d": 104.16666666671517,
      "v": 74
    },
    {
      "midi": 43,
      "hit": false,
      "t": 224256.666666666,
      "d": 213.33333333334303,
      "v": 79
    },
    {
      "midi": 68,
      "hit": false,
      "t": 224259.99999999933,
      "d": 134.16666666668607,
      "v": 75
    },
    {
      "midi": 62,
      "hit": false,
      "t": 224267.49999999933,
      "d": 128.33333333334303,
      "v": 57
    },
    {
      "midi": 65,
      "hit": false,
      "t": 224270.83333333267,
      "d": 126.66666666665697,
      "v": 65
    },
    {
      "midi": 56,
      "hit": false,
      "t": 224485.83333333267,
      "d": 95,
      "v": 92
    },
    {
      "midi": 68,
      "hit": false,
      "t": 224490.83333333267,
      "d": 140.83333333334303,
      "v": 66
    },
    {
      "midi": 70,
      "hit": false,
      "t": 224493.33333333267,
      "d": 105.83333333334303,
      "v": 74
    },
    {
      "midi": 65,
      "hit": false,
      "t": 224497.49999999933,
      "d": 145.83333333334303,
      "v": 54
    },
    {
      "midi": 62,
      "hit": false,
      "t": 224505.83333333267,
      "d": 124.16666666668607,
      "v": 59
    },
    {
      "midi": 56,
      "hit": false,
      "t": 224727.49999999933,
      "d": 92.5,
      "v": 89
    },
    {
      "midi": 70,
      "hit": false,
      "t": 224735.83333333267,
      "d": 108.33333333331393,
      "v": 63
    },
    {
      "midi": 65,
      "hit": false,
      "t": 224737.49999999933,
      "d": 150.83333333334303,
      "v": 57
    },
    {
      "midi": 41,
      "hit": false,
      "t": 224743.33333333267,
      "d": 79.16666666665697,
      "v": 86
    },
    {
      "midi": 68,
      "hit": false,
      "t": 224744.99999999933,
      "d": 140,
      "v": 59
    },
    {
      "midi": 62,
      "hit": false,
      "t": 224751.666666666,
      "d": 98.33333333334303,
      "v": 56
    },
    {
      "midi": 67,
      "hit": false,
      "t": 224991.66666666602,
      "d": 156.66666666665697,
      "v": 74
    },
    {
      "midi": 58,
      "hit": false,
      "t": 224995.83333333267,
      "d": 81.66666666665697,
      "v": 99
    },
    {
      "midi": 70,
      "hit": false,
      "t": 225000.83333333267,
      "d": 115,
      "v": 78
    },
    {
      "midi": 63,
      "hit": false,
      "t": 225005.83333333267,
      "d": 124.16666666665697,
      "v": 79
    },
    {
      "midi": 27,
      "hit": false,
      "t": 225010.83333333267,
      "d": 529.166666666657,
      "v": 108
    },
    {
      "midi": 67,
      "hit": false,
      "t": 225235.83333333267,
      "d": 155.83333333334303,
      "v": 51
    },
    {
      "midi": 58,
      "hit": false,
      "t": 225247.49999999933,
      "d": 90,
      "v": 60
    },
    {
      "midi": 63,
      "hit": false,
      "t": 225255.83333333267,
      "d": 106.66666666665697,
      "v": 56
    },
    {
      "midi": 70,
      "hit": false,
      "t": 225260.83333333267,
      "d": 105,
      "v": 54
    },
    {
      "midi": 58,
      "hit": false,
      "t": 225516.66666666602,
      "d": 104.9999999999709,
      "v": 75
    },
    {
      "midi": 67,
      "hit": false,
      "t": 225518.33333333267,
      "d": 141.66666666665697,
      "v": 57
    },
    {
      "midi": 70,
      "hit": false,
      "t": 225523.33333333267,
      "d": 106.66666666665697,
      "v": 70
    },
    {
      "midi": 63,
      "hit": false,
      "t": 225525.83333333267,
      "d": 127.5,
      "v": 70
    },
    {
      "midi": 39,
      "hit": false,
      "t": 225537.49999999933,
      "d": 138.33333333334303,
      "v": 99
    },
    {
      "midi": 67,
      "hit": false,
      "t": 225780.83333333267,
      "d": 150.83333333331393,
      "v": 75
    },
    {
      "midi": 58,
      "hit": false,
      "t": 225784.99999999933,
      "d": 113.33333333334303,
      "v": 108
    },
    {
      "midi": 70,
      "hit": false,
      "t": 225784.99999999933,
      "d": 120,
      "v": 79
    },
    {
      "midi": 63,
      "hit": false,
      "t": 225789.99999999933,
      "d": 135.83333333334303,
      "v": 89
    },
    {
      "midi": 31,
      "hit": false,
      "t": 225789.99999999933,
      "d": 553.3333333332848,
      "v": 86
    },
    {
      "midi": 58,
      "hit": false,
      "t": 226023.33333333264,
      "d": 101.66666666665697,
      "v": 78
    },
    {
      "midi": 67,
      "hit": false,
      "t": 226033.33333333264,
      "d": 128.33333333331393,
      "v": 57
    },
    {
      "midi": 70,
      "hit": false,
      "t": 226037.4999999993,
      "d": 102.5,
      "v": 61
    },
    {
      "midi": 63,
      "hit": false,
      "t": 226040.83333333264,
      "d": 109.16666666665697,
      "v": 71
    },
    {
      "midi": 58,
      "hit": false,
      "t": 226269.9999999993,
      "d": 109.16666666665697,
      "v": 79
    },
    {
      "midi": 43,
      "hit": false,
      "t": 226272.4999999993,
      "d": 162.4999999999709,
      "v": 79
    },
    {
      "midi": 70,
      "hit": false,
      "t": 226276.66666666596,
      "d": 120.83333333334303,
      "v": 66
    },
    {
      "midi": 63,
      "hit": false,
      "t": 226278.33333333262,
      "d": 123.33333333334303,
      "v": 75
    },
    {
      "midi": 67,
      "hit": false,
      "t": 226283.33333333262,
      "d": 145,
      "v": 63
    },
    {
      "midi": 58,
      "hit": false,
      "t": 226521.66666666593,
      "d": 111.66666666665697,
      "v": 105
    },
    {
      "midi": 67,
      "hit": false,
      "t": 226525.8333333326,
      "d": 145.83333333331393,
      "v": 67
    },
    {
      "midi": 63,
      "hit": false,
      "t": 226530.8333333326,
      "d": 126.66666666665697,
      "v": 79
    },
    {
      "midi": 34,
      "hit": false,
      "t": 226530.8333333326,
      "d": 500.0000000000291,
      "v": 108
    },
    {
      "midi": 70,
      "hit": false,
      "t": 226537.49999999924,
      "d": 105,
      "v": 75
    },
    {
      "midi": 58,
      "hit": false,
      "t": 226769.99999999924,
      "d": 96.66666666668607,
      "v": 92
    },
    {
      "midi": 67,
      "hit": false,
      "t": 226778.3333333326,
      "d": 139.16666666668607,
      "v": 66
    },
    {
      "midi": 63,
      "hit": false,
      "t": 226781.66666666593,
      "d": 116.66666666668607,
      "v": 69
    },
    {
      "midi": 70,
      "hit": false,
      "t": 226786.66666666593,
      "d": 103.33333333334303,
      "v": 63
    },
    {
      "midi": 58,
      "hit": false,
      "t": 227020.83333333262,
      "d": 113.33333333331393,
      "v": 99
    },
    {
      "midi": 67,
      "hit": false,
      "t": 227025.83333333262,
      "d": 145.83333333331393,
      "v": 73
    },
    {
      "midi": 70,
      "hit": false,
      "t": 227029.99999999927,
      "d": 114.16666666665697,
      "v": 70
    },
    {
      "midi": 63,
      "hit": false,
      "t": 227033.33333333262,
      "d": 120.83333333331393,
      "v": 74
    },
    {
      "midi": 46,
      "hit": false,
      "t": 227037.49999999927,
      "d": 122.5,
      "v": 105
    },
    {
      "midi": 58,
      "hit": false,
      "t": 227274.99999999927,
      "d": 118.33333333328483,
      "v": 99
    },
    {
      "midi": 31,
      "hit": false,
      "t": 227276.66666666593,
      "d": 535.8333333332848,
      "v": 92
    },
    {
      "midi": 67,
      "hit": false,
      "t": 227280.8333333326,
      "d": 142.4999999999709,
      "v": 77
    },
    {
      "midi": 70,
      "hit": false,
      "t": 227285.8333333326,
      "d": 117.4999999999709,
      "v": 77
    },
    {
      "midi": 63,
      "hit": false,
      "t": 227289.99999999924,
      "d": 124.9999999999709,
      "v": 79
    },
    {
      "midi": 58,
      "hit": false,
      "t": 227519.9999999992,
      "d": 105,
      "v": 86
    },
    {
      "midi": 67,
      "hit": false,
      "t": 227523.33333333256,
      "d": 141.66666666665697,
      "v": 62
    },
    {
      "midi": 70,
      "hit": false,
      "t": 227527.4999999992,
      "d": 105,
      "v": 66
    },
    {
      "midi": 63,
      "hit": false,
      "t": 227529.16666666587,
      "d": 111.66666666668607,
      "v": 75
    },
    {
      "midi": 58,
      "hit": false,
      "t": 227758.33333333256,
      "d": 118.33333333331393,
      "v": 99
    },
    {
      "midi": 43,
      "hit": false,
      "t": 227761.6666666659,
      "d": 79.9999999999709,
      "v": 83
    },
    {
      "midi": 70,
      "hit": false,
      "t": 227765.83333333256,
      "d": 118.33333333331393,
      "v": 71
    },
    {
      "midi": 67,
      "hit": false,
      "t": 227768.33333333256,
      "d": 150.83333333331393,
      "v": 63
    },
    {
      "midi": 63,
      "hit": false,
      "t": 227773.33333333256,
      "d": 139.16666666665697,
      "v": 79
    },
    {
      "midi": 58,
      "hit": false,
      "t": 228011.66666666587,
      "d": 112.5,
      "v": 105
    },
    {
      "midi": 70,
      "hit": false,
      "t": 228019.9999999992,
      "d": 115,
      "v": 89
    },
    {
      "midi": 63,
      "hit": false,
      "t": 228023.33333333256,
      "d": 130.83333333331393,
      "v": 79
    },
    {
      "midi": 66,
      "hit": false,
      "t": 228027.4999999992,
      "d": 137.5,
      "v": 79
    },
    {
      "midi": 27,
      "hit": false,
      "t": 228031.66666666587,
      "d": 527.5000000000582,
      "v": 95
    },
    {
      "midi": 58,
      "hit": false,
      "t": 228253.33333333256,
      "d": 84.16666666668607,
      "v": 86
    },
    {
      "midi": 63,
      "hit": false,
      "t": 228261.6666666659,
      "d": 108.33333333337214,
      "v": 69
    },
    {
      "midi": 70,
      "hit": false,
      "t": 228267.49999999924,
      "d": 96.66666666668607,
      "v": 70
    },
    {
      "midi": 66,
      "hit": false,
      "t": 228269.99999999924,
      "d": 90.83333333334303,
      "v": 74
    },
    {
      "midi": 58,
      "hit": false,
      "t": 228495.83333333262,
      "d": 100.83333333331393,
      "v": 95
    },
    {
      "midi": 70,
      "hit": false,
      "t": 228499.99999999927,
      "d": 120.83333333331393,
      "v": 79
    },
    {
      "midi": 66,
      "hit": false,
      "t": 228501.66666666593,
      "d": 129.9999999999709,
      "v": 79
    },
    {
      "midi": 63,
      "hit": false,
      "t": 228507.49999999927,
      "d": 115.83333333331393,
      "v": 75
    },
    {
      "midi": 39,
      "hit": false,
      "t": 228511.66666666593,
      "d": 115.83333333331393,
      "v": 95
    },
    {
      "midi": 58,
      "hit": false,
      "t": 228747.4999999992,
      "d": 81.66666666665697,
      "v": 99
    },
    {
      "midi": 70,
      "hit": false,
      "t": 228752.4999999992,
      "d": 105,
      "v": 78
    },
    {
      "midi": 63,
      "hit": false,
      "t": 228755.83333333256,
      "d": 109.16666666665697,
      "v": 75
    },
    {
      "midi": 66,
      "hit": false,
      "t": 228759.9999999992,
      "d": 100.83333333334303,
      "v": 77
    },
    {
      "midi": 30,
      "hit": false,
      "t": 228766.66666666587,
      "d": 513.3333333334012,
      "v": 99
    },
    {
      "midi": 58,
      "hit": false,
      "t": 228990.83333333256,
      "d": 75,
      "v": 92
    },
    {
      "midi": 63,
      "hit": false,
      "t": 228998.33333333256,
      "d": 101.66666666668607,
      "v": 69
    },
    {
      "midi": 70,
      "hit": false,
      "t": 229001.6666666659,
      "d": 95,
      "v": 71
    },
    {
      "midi": 66,
      "hit": false,
      "t": 229005.83333333256,
      "d": 91.66666666668607,
      "v": 70
    },
    {
      "midi": 63,
      "hit": false,
      "t": 229233.3333333326,
      "d": 106.66666666665697,
      "v": 78
    },
    {
      "midi": 70,
      "hit": false,
      "t": 229237.49999999924,
      "d": 97.5000000000291,
      "v": 79
    },
    {
      "midi": 58,
      "hit": false,
      "t": 229243.3333333326,
      "d": 64.16666666668607,
      "v": 95
    },
    {
      "midi": 66,
      "hit": false,
      "t": 229243.3333333326,
      "d": 93.33333333334303,
      "v": 77
    },
    {
      "midi": 42,
      "hit": false,
      "t": 229251.66666666593,
      "d": 86.66666666665697,
      "v": 95
    },
    {
      "midi": 63,
      "hit": false,
      "t": 229471.6666666659,
      "d": 110.83333333331393,
      "v": 79
    },
    {
      "midi": 70,
      "hit": false,
      "t": 229475.83333333256,
      "d": 97.5,
      "v": 86
    },
    {
      "midi": 66,
      "hit": false,
      "t": 229479.9999999992,
      "d": 97.5,
      "v": 79
    },
    {
      "midi": 58,
      "hit": false,
      "t": 229483.33333333256,
      "d": 73.33333333334303,
      "v": 95
    },
    {
      "midi": 34,
      "hit": false,
      "t": 229486.6666666659,
      "d": 536.666666666657,
      "v": 95
    },
    {
      "midi": 58,
      "hit": false,
      "t": 229712.4999999992,
      "d": 74.16666666665697,
      "v": 92
    },
    {
      "midi": 63,
      "hit": false,
      "t": 229717.4999999992,
      "d": 98.33333333331393,
      "v": 75
    },
    {
      "midi": 66,
      "hit": false,
      "t": 229721.66666666587,
      "d": 90.83333333331393,
      "v": 75
    },
    {
      "midi": 70,
      "hit": false,
      "t": 229722.4999999992,
      "d": 88.33333333331393,
      "v": 75
    },
    {
      "midi": 46,
      "hit": false,
      "t": 229944.16666666587,
      "d": 73.33333333334303,
      "v": 89
    },
    {
      "midi": 58,
      "hit": false,
      "t": 229947.4999999992,
      "d": 88.33333333334303,
      "v": 95
    },
    {
      "midi": 66,
      "hit": false,
      "t": 229951.66666666587,
      "d": 108.33333333334303,
      "v": 78
    },
    {
      "midi": 63,
      "hit": false,
      "t": 229954.9999999992,
      "d": 106.66666666665697,
      "v": 78
    },
    {
      "midi": 70,
      "hit": false,
      "t": 229957.4999999992,
      "d": 98.33333333334303,
      "v": 78
    },
    {
      "midi": 63,
      "hit": false,
      "t": 230199.99999999919,
      "d": 113.33333333331393,
      "v": 86
    },
    {
      "midi": 30,
      "hit": false,
      "t": 230205.83333333253,
      "d": 105.83333333331393,
      "v": 105
    },
    {
      "midi": 58,
      "hit": false,
      "t": 230209.99999999919,
      "d": 80,
      "v": 105
    },
    {
      "midi": 70,
      "hit": false,
      "t": 230212.49999999919,
      "d": 103.33333333331393,
      "v": 89
    },
    {
      "midi": 66,
      "hit": false,
      "t": 230219.99999999919,
      "d": 90,
      "v": 77
    },
    {
      "midi": 58,
      "hit": false,
      "t": 230439.99999999916,
      "d": 82.5,
      "v": 95
    },
    {
      "midi": 63,
      "hit": false,
      "t": 230443.3333333325,
      "d": 103.33333333331393,
      "v": 78
    },
    {
      "midi": 66,
      "hit": false,
      "t": 230444.99999999916,
      "d": 105.83333333331393,
      "v": 77
    },
    {
      "midi": 70,
      "hit": false,
      "t": 230451.6666666658,
      "d": 97.5,
      "v": 77
    },
    {
      "midi": 58,
      "hit": false,
      "t": 230684.99999999913,
      "d": 85.0000000000291,
      "v": 95
    },
    {
      "midi": 63,
      "hit": false,
      "t": 230688.33333333247,
      "d": 97.5000000000291,
      "v": 74
    },
    {
      "midi": 70,
      "hit": false,
      "t": 230691.6666666658,
      "d": 118.33333333334303,
      "v": 75
    },
    {
      "midi": 66,
      "hit": false,
      "t": 230696.6666666658,
      "d": 123.33333333334303,
      "v": 67
    },
    {
      "midi": 41,
      "hit": false,
      "t": 230699.99999999916,
      "d": 162.5,
      "v": 78
    },
    {
      "midi": 70,
      "hit": false,
      "t": 230927.49999999916,
      "d": 125.83333333334303,
      "v": 92
    },
    {
      "midi": 60,
      "hit": false,
      "t": 230934.99999999916,
      "d": 105,
      "v": 83
    },
    {
      "midi": 62,
      "hit": false,
      "t": 230934.99999999916,
      "d": 129.16666666665697,
      "v": 78
    },
    {
      "midi": 65,
      "hit": false,
      "t": 230943.3333333325,
      "d": 136.66666666665697,
      "v": 77
    },
    {
      "midi": 46,
      "hit": false,
      "t": 230943.3333333325,
      "d": 902.5,
      "v": 114
    },
    {
      "midi": 34,
      "hit": false,
      "t": 230952.49999999916,
      "d": 69.16666666665697,
      "v": 105
    },
    {
      "midi": 60,
      "hit": false,
      "t": 231168.3333333325,
      "d": 97.5,
      "v": 74
    },
    {
      "midi": 65,
      "hit": false,
      "t": 231170.8333333325,
      "d": 135,
      "v": 60
    },
    {
      "midi": 70,
      "hit": false,
      "t": 231172.49999999916,
      "d": 125,
      "v": 75
    },
    {
      "midi": 62,
      "hit": false,
      "t": 231179.99999999916,
      "d": 113.33333333334303,
      "v": 66
    },
    {
      "midi": 70,
      "hit": false,
      "t": 231434.16666666584,
      "d": 143.33333333331393,
      "v": 86
    },
    {
      "midi": 65,
      "hit": false,
      "t": 231438.3333333325,
      "d": 153.33333333331393,
      "v": 75
    },
    {
      "midi": 60,
      "hit": false,
      "t": 231442.49999999916,
      "d": 103.33333333334303,
      "v": 78
    },
    {
      "midi": 62,
      "hit": false,
      "t": 231445.8333333325,
      "d": 138.33333333331393,
      "v": 71
    },
    {
      "midi": 65,
      "hit": false,
      "t": 231684.99999999916,
      "d": 142.5,
      "v": 67
    },
    {
      "midi": 70,
      "hit": false,
      "t": 231688.3333333325,
      "d": 134.16666666665697,
      "v": 89
    },
    {
      "midi": 60,
      "hit": false,
      "t": 231692.49999999916,
      "d": 100.83333333334303,
      "v": 77
    },
    {
      "midi": 62,
      "hit": false,
      "t": 231697.49999999916,
      "d": 135.83333333334303,
      "v": 79
    },
    {
      "midi": 53,
      "hit": false,
      "t": 231702.49999999916,
      "d": 110.83333333334303,
      "v": 89
    },
    {
      "midi": 60,
      "hit": false,
      "t": 231922.49999999916,
      "d": 103.33333333331393,
      "v": 77
    },
    {
      "midi": 62,
      "hit": false,
      "t": 231926.6666666658,
      "d": 140.83333333331393,
      "v": 62
    },
    {
      "midi": 65,
      "hit": false,
      "t": 231930.83333333247,
      "d": 134.16666666665697,
      "v": 69
    },
    {
      "midi": 70,
      "hit": false,
      "t": 231933.33333333247,
      "d": 122.5,
      "v": 78
    },
    {
      "midi": 60,
      "hit": false,
      "t": 232179.99999999913,
      "d": 122.4999999999709,
      "v": 77
    },
    {
      "midi": 70,
      "hit": false,
      "t": 232183.33333333247,
      "d": 124.9999999999709,
      "v": 75
    },
    {
      "midi": 65,
      "hit": false,
      "t": 232189.99999999913,
      "d": 101.66666666662786,
      "v": 66
    },
    {
      "midi": 62,
      "hit": false,
      "t": 232191.66666666578,
      "d": 128.33333333331393,
      "v": 74
    },
    {
      "midi": 44,
      "hit": false,
      "t": 232197.49999999913,
      "d": 72.4999999999709,
      "v": 108
    },
    {
      "midi": 32,
      "hit": false,
      "t": 232199.16666666578,
      "d": 66.66666666665697,
      "v": 108
    },
    {
      "midi": 62,
      "hit": false,
      "t": 232433.33333333244,
      "d": 149.16666666665697,
      "v": 74
    },
    {
      "midi": 66,
      "hit": false,
      "t": 232438.33333333244,
      "d": 151.66666666665697,
      "v": 86
    },
    {
      "midi": 60,
      "hit": false,
      "t": 232441.66666666578,
      "d": 115.83333333331393,
      "v": 92
    },
    {
      "midi": 69,
      "hit": false,
      "t": 232445.83333333244,
      "d": 145.83333333331393,
      "v": 79
    },
    {
      "midi": 33,
      "hit": false,
      "t": 232453.33333333244,
      "d": 156.66666666665697,
      "v": 95
    },
    {
      "midi": 45,
      "hit": false,
      "t": 232453.33333333244,
      "d": 240,
      "v": 105
    },
    {
      "midi": 66,
      "hit": false,
      "t": 232685.83333333244,
      "d": 112.5,
      "v": 79
    },
    {
      "midi": 60,
      "hit": false,
      "t": 232689.9999999991,
      "d": 102.5,
      "v": 73
    },
    {
      "midi": 62,
      "hit": false,
      "t": 232693.33333333244,
      "d": 120,
      "v": 70
    },
    {
      "midi": 69,
      "hit": false,
      "t": 232698.33333333244,
      "d": 114.16666666665697,
      "v": 66
    },
    {
      "midi": 60,
      "hit": false,
      "t": 232928.33333333244,
      "d": 105,
      "v": 73
    },
    {
      "midi": 66,
      "hit": false,
      "t": 232930.83333333244,
      "d": 145,
      "v": 75
    },
    {
      "midi": 62,
      "hit": false,
      "t": 232937.4999999991,
      "d": 140.83333333334303,
      "v": 75
    },
    {
      "midi": 69,
      "hit": false,
      "t": 232943.33333333244,
      "d": 137.5,
      "v": 74
    },
    {
      "midi": 54,
      "hit": false,
      "t": 233150.83333333244,
      "d": 70.83333333334303,
      "v": 95
    },
    {
      "midi": 66,
      "hit": false,
      "t": 233177.4999999991,
      "d": 139.16666666668607,
      "v": 92
    },
    {
      "midi": 60,
      "hit": false,
      "t": 233184.9999999991,
      "d": 98.33333333334303,
      "v": 92
    },
    {
      "midi": 62,
      "hit": false,
      "t": 233184.9999999991,
      "d": 134.16666666668607,
      "v": 83
    },
    {
      "midi": 69,
      "hit": false,
      "t": 233193.33333333244,
      "d": 120,
      "v": 83
    },
    {
      "midi": 62,
      "hit": false,
      "t": 233414.99999999913,
      "d": 142.4999999999709,
      "v": 74
    },
    {
      "midi": 66,
      "hit": false,
      "t": 233418.33333333247,
      "d": 137.4999999999709,
      "v": 79
    },
    {
      "midi": 60,
      "hit": false,
      "t": 233422.49999999913,
      "d": 91.66666666665697,
      "v": 77
    },
    {
      "midi": 69,
      "hit": false,
      "t": 233425.83333333247,
      "d": 120.83333333331393,
      "v": 79
    },
    {
      "midi": 39,
      "hit": false,
      "t": 233429.99999999913,
      "d": 51.666666666656965,
      "v": 37
    },
    {
      "midi": 45,
      "hit": false,
      "t": 233657.4999999991,
      "d": 84.16666666668607,
      "v": 92
    },
    {
      "midi": 62,
      "hit": false,
      "t": 233663.33333333244,
      "d": 108.33333333334303,
      "v": 69
    },
    {
      "midi": 60,
      "hit": false,
      "t": 233666.66666666578,
      "d": 95,
      "v": 71
    },
    {
      "midi": 66,
      "hit": false,
      "t": 233672.49999999913,
      "d": 102.5,
      "v": 78
    },
    {
      "midi": 33,
      "hit": false,
      "t": 233674.99999999913,
      "d": 74.16666666665697,
      "v": 79
    },
    {
      "midi": 69,
      "hit": false,
      "t": 233681.66666666578,
      "d": 93.33333333334303,
      "v": 78
    },
    {
      "midi": 58,
      "hit": false,
      "t": 233925.83333333247,
      "d": 100.83333333337214,
      "v": 99
    },
    {
      "midi": 62,
      "hit": false,
      "t": 233929.99999999913,
      "d": 143.33333333340124,
      "v": 60
    },
    {
      "midi": 67,
      "hit": false,
      "t": 233935.83333333247,
      "d": 144.16666666674428,
      "v": 65
    },
    {
      "midi": 70,
      "hit": false,
      "t": 233936.6666666658,
      "d": 123.33333333337214,
      "v": 86
    },
    {
      "midi": 65,
      "hit": false,
      "t": 233944.99999999916,
      "d": 131.66666666671517,
      "v": 66
    },
    {
      "midi": 43,
      "hit": false,
      "t": 233944.99999999916,
      "d": 552.5000000000873,
      "v": 105
    },
    {
      "midi": 31,
      "hit": false,
      "t": 233953.3333333325,
      "d": 821.6666666667734,
      "v": 99
    },
    {
      "midi": 58,
      "hit": false,
      "t": 234163.33333333256,
      "d": 112.5,
      "v": 71
    },
    {
      "midi": 67,
      "hit": false,
      "t": 234183.33333333256,
      "d": 116.66666666665697,
      "v": 52
    },
    {
      "midi": 62,
      "hit": false,
      "t": 234185.83333333256,
      "d": 121.66666666665697,
      "v": 42
    },
    {
      "midi": 70,
      "hit": false,
      "t": 234190.83333333256,
      "d": 89.16666666665697,
      "v": 62
    },
    {
      "midi": 65,
      "hit": false,
      "t": 234190.83333333256,
      "d": 117.5,
      "v": 41
    },
    {
      "midi": 58,
      "hit": false,
      "t": 234430.83333333256,
      "d": 91.66666666668607,
      "v": 74
    },
    {
      "midi": 70,
      "hit": false,
      "t": 234436.6666666659,
      "d": 116.66666666668607,
      "v": 63
    },
    {
      "midi": 67,
      "hit": false,
      "t": 234441.6666666659,
      "d": 135.0000000000291,
      "v": 49
    },
    {
      "midi": 62,
      "hit": false,
      "t": 234446.6666666659,
      "d": 122.5000000000291,
      "v": 57
    },
    {
      "midi": 65,
      "hit": false,
      "t": 234446.6666666659,
      "d": 128.33333333337214,
      "v": 57
    },
    {
      "midi": 58,
      "hit": false,
      "t": 234680.8333333326,
      "d": 106.66666666668607,
      "v": 95
    },
    {
      "midi": 67,
      "hit": false,
      "t": 234686.66666666593,
      "d": 133.33333333334303,
      "v": 56
    },
    {
      "midi": 62,
      "hit": false,
      "t": 234686.66666666593,
      "d": 135.83333333334303,
      "v": 65
    },
    {
      "midi": 70,
      "hit": false,
      "t": 234693.3333333326,
      "d": 98.33333333334303,
      "v": 71
    },
    {
      "midi": 65,
      "hit": false,
      "t": 234693.3333333326,
      "d": 131.66666666668607,
      "v": 57
    },
    {
      "midi": 43,
      "hit": false,
      "t": 234696.66666666593,
      "d": 158.33333333334303,
      "v": 99
    },
    {
      "midi": 65,
      "hit": false,
      "t": 234918.33333333262,
      "d": 145.0000000000291,
      "v": 51
    },
    {
      "midi": 58,
      "hit": false,
      "t": 234923.33333333262,
      "d": 85.0000000000291,
      "v": 74
    },
    {
      "midi": 70,
      "hit": false,
      "t": 234926.66666666596,
      "d": 106.66666666668607,
      "v": 66
    },
    {
      "midi": 62,
      "hit": false,
      "t": 234931.66666666596,
      "d": 121.66666666668607,
      "v": 55
    },
    {
      "midi": 67,
      "hit": false,
      "t": 234934.9999999993,
      "d": 125,
      "v": 54
    },
    {
      "midi": 31,
      "hit": false,
      "t": 234974.9999999993,
      "d": 307.5,
      "v": 77
    },
    {
      "midi": 65,
      "hit": false,
      "t": 235169.9999999993,
      "d": 160.83333333331393,
      "v": 65
    },
    {
      "midi": 62,
      "hit": false,
      "t": 235172.4999999993,
      "d": 154.16666666665697,
      "v": 67
    },
    {
      "midi": 58,
      "hit": false,
      "t": 235180.83333333264,
      "d": 105,
      "v": 79
    },
    {
      "midi": 70,
      "hit": false,
      "t": 235180.83333333264,
      "d": 114.16666666665697,
      "v": 69
    },
    {
      "midi": 43,
      "hit": false,
      "t": 235189.9999999993,
      "d": 86.66666666665697,
      "v": 99
    },
    {
      "midi": 67,
      "hit": false,
      "t": 235189.9999999993,
      "d": 136.66666666665697,
      "v": 62
    },
    {
      "midi": 58,
      "hit": false,
      "t": 235447.4999999993,
      "d": 112.5,
      "v": 92
    },
    {
      "midi": 29,
      "hit": false,
      "t": 235449.9999999993,
      "d": 714.9999999999709,
      "v": 108
    },
    {
      "midi": 67,
      "hit": false,
      "t": 235458.33333333264,
      "d": 146.66666666668607,
      "v": 61
    },
    {
      "midi": 41,
      "hit": false,
      "t": 235458.33333333264,
      "d": 412.5,
      "v": 108
    },
    {
      "midi": 70,
      "hit": false,
      "t": 235465.83333333264,
      "d": 109.16666666665697,
      "v": 75
    },
    {
      "midi": 62,
      "hit": false,
      "t": 235465.83333333264,
      "d": 135,
      "v": 65
    },
    {
      "midi": 65,
      "hit": false,
      "t": 235474.9999999993,
      "d": 129.16666666668607,
      "v": 60
    },
    {
      "midi": 58,
      "hit": false,
      "t": 235683.33333333267,
      "d": 100,
      "v": 71
    },
    {
      "midi": 62,
      "hit": false,
      "t": 235693.33333333267,
      "d": 142.4999999999709,
      "v": 46
    },
    {
      "midi": 65,
      "hit": false,
      "t": 235696.66666666602,
      "d": 134.9999999999709,
      "v": 50
    },
    {
      "midi": 70,
      "hit": false,
      "t": 235705.83333333267,
      "d": 104.16666666665697,
      "v": 56
    },
    {
      "midi": 67,
      "hit": false,
      "t": 235708.33333333267,
      "d": 131.66666666662786,
      "v": 55
    },
    {
      "midi": 65,
      "hit": false,
      "t": 235939.9999999993,
      "d": 150,
      "v": 57
    },
    {
      "midi": 62,
      "hit": false,
      "t": 235944.9999999993,
      "d": 146.66666666665697,
      "v": 56
    },
    {
      "midi": 67,
      "hit": false,
      "t": 235947.4999999993,
      "d": 145.83333333331393,
      "v": 55
    },
    {
      "midi": 58,
      "hit": false,
      "t": 235953.33333333264,
      "d": 88.33333333334303,
      "v": 86
    },
    {
      "midi": 70,
      "hit": false,
      "t": 235953.33333333264,
      "d": 110,
      "v": 67
    },
    {
      "midi": 58,
      "hit": false,
      "t": 236204.99999999927,
      "d": 100.83333333334303,
      "v": 99
    },
    {
      "midi": 41,
      "hit": false,
      "t": 236208.33333333262,
      "d": 149.16666666668607,
      "v": 102
    },
    {
      "midi": 29,
      "hit": false,
      "t": 236209.99999999927,
      "d": 151.66666666668607,
      "v": 99
    },
    {
      "midi": 70,
      "hit": false,
      "t": 236216.66666666593,
      "d": 109.16666666668607,
      "v": 78
    },
    {
      "midi": 65,
      "hit": false,
      "t": 236217.49999999927,
      "d": 132.5000000000291,
      "v": 57
    },
    {
      "midi": 62,
      "hit": false,
      "t": 236225.83333333262,
      "d": 115.83333333334303,
      "v": 62
    },
    {
      "midi": 67,
      "hit": false,
      "t": 236225.83333333262,
      "d": 121.66666666668607,
      "v": 66
    },
    {
      "midi": 65,
      "hit": false,
      "t": 236431.66666666596,
      "d": 145.83333333328483,
      "v": 45
    },
    {
      "midi": 58,
      "hit": false,
      "t": 236433.33333333262,
      "d": 94.9999999999709,
      "v": 86
    },
    {
      "midi": 70,
      "hit": false,
      "t": 236437.49999999927,
      "d": 122.4999999999709,
      "v": 71
    },
    {
      "midi": 67,
      "hit": false,
      "t": 236442.49999999927,
      "d": 121.66666666662786,
      "v": 51
    },
    {
      "midi": 62,
      "hit": false,
      "t": 236446.66666666593,
      "d": 124.9999999999709,
      "v": 51
    },
    {
      "midi": 58,
      "hit": false,
      "t": 236675.8333333326,
      "d": 64.16666666665697,
      "v": 78
    },
    {
      "midi": 70,
      "hit": false,
      "t": 236682.49999999924,
      "d": 118.33333333334303,
      "v": 67
    },
    {
      "midi": 29,
      "hit": false,
      "t": 236694.1666666659,
      "d": 83.33333333334303,
      "v": 92
    },
    {
      "midi": 67,
      "hit": false,
      "t": 236697.49999999924,
      "d": 74.16666666665697,
      "v": 54
    },
    {
      "midi": 41,
      "hit": false,
      "t": 236702.49999999924,
      "d": 57.5,
      "v": 95
    },
    {
      "midi": 62,
      "hit": false,
      "t": 236707.49999999924,
      "d": 28.333333333343035,
      "v": 52
    },
    {
      "midi": 67,
      "hit": false,
      "t": 236956.66666666593,
      "d": 163.33333333337214,
      "v": 79
    },
    {
      "midi": 64,
      "hit": false,
      "t": 236959.99999999927,
      "d": 160.0000000000291,
      "v": 92
    },
    {
      "midi": 60,
      "hit": false,
      "t": 236965.83333333262,
      "d": 121.66666666668607,
      "v": 102
    },
    {
      "midi": 70,
      "hit": false,
      "t": 236966.66666666596,
      "d": 161.66666666668607,
      "v": 86
    },
    {
      "midi": 72,
      "hit": false,
      "t": 236974.9999999993,
      "d": 121.66666666665697,
      "v": 92
    },
    {
      "midi": 24,
      "hit": false,
      "t": 236974.9999999993,
      "d": 314.9999999999709,
      "v": 105
    },
    {
      "midi": 36,
      "hit": false,
      "t": 236983.33333333264,
      "d": 262.4999999999709,
      "v": 102
    },
    {
      "midi": 67,
      "hit": false,
      "t": 237197.4999999993,
      "d": 148.33333333331393,
      "v": 57
    },
    {
      "midi": 70,
      "hit": false,
      "t": 237201.66666666596,
      "d": 139.16666666665697,
      "v": 70
    },
    {
      "midi": 60,
      "hit": false,
      "t": 237207.4999999993,
      "d": 99.9999999999709,
      "v": 74
    },
    {
      "midi": 64,
      "hit": false,
      "t": 237207.4999999993,
      "d": 144.9999999999709,
      "v": 52
    },
    {
      "midi": 72,
      "hit": false,
      "t": 237216.66666666596,
      "d": 96.66666666665697,
      "v": 65
    },
    {
      "midi": 24,
      "hit": false,
      "t": 237459.99999999927,
      "d": 93.33333333337214,
      "v": 102
    },
    {
      "midi": 60,
      "hit": false,
      "t": 237464.99999999927,
      "d": 70.83333333337214,
      "v": 79
    },
    {
      "midi": 36,
      "hit": false,
      "t": 237468.33333333262,
      "d": 95.0000000000291,
      "v": 102
    },
    {
      "midi": 70,
      "hit": false,
      "t": 237470.83333333262,
      "d": 116.66666666671517,
      "v": 70
    },
    {
      "midi": 72,
      "hit": false,
      "t": 237476.66666666596,
      "d": 105.0000000000291,
      "v": 67
    },
    {
      "midi": 64,
      "hit": false,
      "t": 237477.4999999993,
      "d": 56.66666666668607,
      "v": 56
    },
    {
      "midi": 67,
      "hit": false,
      "t": 237480.83333333264,
      "d": 66.66666666665697,
      "v": 65
    },
    {
      "midi": 67,
      "hit": false,
      "t": 237717.49999999933,
      "d": 155.83333333337214,
      "v": 86
    },
    {
      "midi": 70,
      "hit": false,
      "t": 237719.99999999933,
      "d": 150.0000000000291,
      "v": 89
    },
    {
      "midi": 74,
      "hit": false,
      "t": 237723.33333333267,
      "d": 140.0000000000291,
      "v": 86
    },
    {
      "midi": 62,
      "hit": false,
      "t": 237730.83333333267,
      "d": 109.16666666668607,
      "v": 89
    },
    {
      "midi": 38,
      "hit": false,
      "t": 237731.66666666602,
      "d": 221.66666666668607,
      "v": 99
    },
    {
      "midi": 26,
      "hit": false,
      "t": 237737.49999999936,
      "d": 220,
      "v": 95
    },
    {
      "midi": 62,
      "hit": false,
      "t": 237967.49999999936,
      "d": 108.33333333334303,
      "v": 70
    },
    {
      "midi": 70,
      "hit": false,
      "t": 237969.99999999936,
      "d": 137.5,
      "v": 78
    },
    {
      "midi": 67,
      "hit": false,
      "t": 237974.99999999936,
      "d": 135,
      "v": 75
    },
    {
      "midi": 74,
      "hit": false,
      "t": 237978.3333333327,
      "d": 117.5,
      "v": 66
    },
    {
      "midi": 38,
      "hit": false,
      "t": 238191.66666666602,
      "d": 98.33333333334303,
      "v": 89
    },
    {
      "midi": 26,
      "hit": false,
      "t": 238195.83333333267,
      "d": 100.0000000000291,
      "v": 79
    },
    {
      "midi": 67,
      "hit": false,
      "t": 238208.33333333267,
      "d": 142.5000000000291,
      "v": 79
    },
    {
      "midi": 70,
      "hit": false,
      "t": 238211.66666666602,
      "d": 151.66666666668607,
      "v": 79
    },
    {
      "midi": 62,
      "hit": false,
      "t": 238214.99999999936,
      "d": 71.66666666665697,
      "v": 86
    },
    {
      "midi": 74,
      "hit": false,
      "t": 238222.49999999936,
      "d": 118.33333333334303,
      "v": 78
    },
    {
      "midi": 63,
      "hit": false,
      "t": 238454.16666666605,
      "d": 113.33333333334303,
      "v": 105
    },
    {
      "midi": 67,
      "hit": false,
      "t": 238458.3333333327,
      "d": 159.16666666668607,
      "v": 73
    },
    {
      "midi": 75,
      "hit": false,
      "t": 238460.8333333327,
      "d": 135.0000000000291,
      "v": 92
    },
    {
      "midi": 70,
      "hit": false,
      "t": 238466.66666666605,
      "d": 134.16666666668607,
      "v": 79
    },
    {
      "midi": 39,
      "hit": false,
      "t": 238466.66666666605,
      "d": 175.83333333334303,
      "v": 111
    },
    {
      "midi": 27,
      "hit": false,
      "t": 238475.8333333327,
      "d": 160.0000000000291,
      "v": 95
    },
    {
      "midi": 70,
      "hit": false,
      "t": 238714.16666666605,
      "d": 133.33333333334303,
      "v": 70
    },
    {
      "midi": 63,
      "hit": false,
      "t": 238718.3333333327,
      "d": 91.66666666668607,
      "v": 86
    },
    {
      "midi": 75,
      "hit": false,
      "t": 238724.16666666605,
      "d": 128.33333333334303,
      "v": 77
    },
    {
      "midi": 67,
      "hit": false,
      "t": 238727.4999999994,
      "d": 123.33333333334303,
      "v": 65
    },
    {
      "midi": 27,
      "hit": false,
      "t": 238950.83333333273,
      "d": 126.66666666668607,
      "v": 77
    },
    {
      "midi": 39,
      "hit": false,
      "t": 238953.33333333273,
      "d": 135.83333333334303,
      "v": 108
    },
    {
      "midi": 75,
      "hit": false,
      "t": 238958.33333333273,
      "d": 149.16666666668607,
      "v": 77
    },
    {
      "midi": 70,
      "hit": false,
      "t": 238965.83333333273,
      "d": 162.5000000000291,
      "v": 75
    },
    {
      "midi": 63,
      "hit": false,
      "t": 238971.66666666607,
      "d": 78.33333333334303,
      "v": 77
    },
    {
      "midi": 67,
      "hit": false,
      "t": 238972.49999999942,
      "d": 153.33333333334303,
      "v": 70
    },
    {
      "midi": 70,
      "hit": false,
      "t": 239207.49999999942,
      "d": 162.5,
      "v": 78
    },
    {
      "midi": 67,
      "hit": false,
      "t": 239212.49999999942,
      "d": 160.83333333334303,
      "v": 62
    },
    {
      "midi": 76,
      "hit": false,
      "t": 239218.33333333276,
      "d": 137.5,
      "v": 92
    },
    {
      "midi": 40,
      "hit": false,
      "t": 239218.33333333276,
      "d": 213.33333333334303,
      "v": 102
    },
    {
      "midi": 64,
      "hit": false,
      "t": 239226.6666666661,
      "d": 115,
      "v": 95
    },
    {
      "midi": 28,
      "hit": false,
      "t": 239226.6666666661,
      "d": 189.16666666665697,
      "v": 108
    },
    {
      "midi": 67,
      "hit": false,
      "t": 239451.6666666661,
      "d": 164.16666666665697,
      "v": 69
    },
    {
      "midi": 70,
      "hit": false,
      "t": 239455.83333333276,
      "d": 158.33333333334303,
      "v": 77
    },
    {
      "midi": 76,
      "hit": false,
      "t": 239458.33333333276,
      "d": 142.5,
      "v": 86
    },
    {
      "midi": 64,
      "hit": false,
      "t": 239464.99999999942,
      "d": 107.5,
      "v": 77
    },
    {
      "midi": 70,
      "hit": false,
      "t": 239699.1666666661,
      "d": 137.5,
      "v": 75
    },
    {
      "midi": 64,
      "hit": false,
      "t": 239709.99999999945,
      "d": 92.5,
      "v": 79
    },
    {
      "midi": 28,
      "hit": false,
      "t": 239715.8333333328,
      "d": 100.83333333331393,
      "v": 102
    },
    {
      "midi": 76,
      "hit": false,
      "t": 239715.8333333328,
      "d": 134.9999999999709,
      "v": 86
    },
    {
      "midi": 67,
      "hit": false,
      "t": 239723.3333333328,
      "d": 76.66666666665697,
      "v": 70
    },
    {
      "midi": 40,
      "hit": false,
      "t": 239723.3333333328,
      "d": 111.66666666665697,
      "v": 102
    },
    {
      "midi": 69,
      "hit": false,
      "t": 239957.49999999942,
      "d": 163.33333333334303,
      "v": 89
    },
    {
      "midi": 72,
      "hit": false,
      "t": 239961.66666666607,
      "d": 161.66666666668607,
      "v": 86
    },
    {
      "midi": 77,
      "hit": false,
      "t": 239964.99999999942,
      "d": 154.16666666668607,
      "v": 92
    },
    {
      "midi": 65,
      "hit": false,
      "t": 239973.33333333276,
      "d": 120,
      "v": 99
    },
    {
      "midi": 29,
      "hit": false,
      "t": 239973.33333333276,
      "d": 265,
      "v": 105
    },
    {
      "midi": 41,
      "hit": false,
      "t": 239988.33333333276,
      "d": 194.16666666665697,
      "v": 105
    },
    {
      "midi": 72,
      "hit": false,
      "t": 240203.33333333276,
      "d": 145,
      "v": 74
    },
    {
      "midi": 69,
      "hit": false,
      "t": 240206.6666666661,
      "d": 155.83333333331393,
      "v": 63
    },
    {
      "midi": 65,
      "hit": false,
      "t": 240211.6666666661,
      "d": 114.16666666665697,
      "v": 77
    },
    {
      "midi": 77,
      "hit": false,
      "t": 240216.6666666661,
      "d": 138.33333333331393,
      "v": 65
    },
    {
      "midi": 29,
      "hit": false,
      "t": 240454.99999999942,
      "d": 106.66666666668607,
      "v": 89
    },
    {
      "midi": 72,
      "hit": false,
      "t": 240460.83333333276,
      "d": 117.5,
      "v": 83
    },
    {
      "midi": 41,
      "hit": false,
      "t": 240463.33333333276,
      "d": 117.5,
      "v": 95
    },
    {
      "midi": 69,
      "hit": false,
      "t": 240472.49999999942,
      "d": 110.83333333334303,
      "v": 67
    },
    {
      "midi": 77,
      "hit": false,
      "t": 240472.49999999942,
      "d": 128.33333333334303,
      "v": 78
    },
    {
      "midi": 65,
      "hit": false,
      "t": 240480.83333333276,
      "d": 70.83333333334303,
      "v": 86
    },
    {
      "midi": 31,
      "hit": false,
      "t": 240709.1666666661,
      "d": 212.5,
      "v": 102
    },
    {
      "midi": 43,
      "hit": false,
      "t": 240713.33333333276,
      "d": 204.16666666668607,
      "v": 99
    },
    {
      "midi": 67,
      "hit": false,
      "t": 240715.83333333276,
      "d": 104.16666666668607,
      "v": 105
    },
    {
      "midi": 79,
      "hit": false,
      "t": 240721.6666666661,
      "d": 100.83333333334303,
      "v": 111
    },
    {
      "midi": 79,
      "hit": false,
      "t": 240946.6666666661,
      "d": 122.5,
      "v": 79
    },
    {
      "midi": 67,
      "hit": false,
      "t": 240952.49999999945,
      "d": 95,
      "v": 83
    },
    {
      "midi": 31,
      "hit": false,
      "t": 241180.83333333276,
      "d": 115.83333333331393,
      "v": 89
    },
    {
      "midi": 43,
      "hit": false,
      "t": 241183.33333333276,
      "d": 109.9999999999709,
      "v": 95
    },
    {
      "midi": 67,
      "hit": false,
      "t": 241192.49999999942,
      "d": 105,
      "v": 95
    },
    {
      "midi": 79,
      "hit": false,
      "t": 241194.16666666607,
      "d": 121.66666666668607,
      "v": 105
    },
    {
      "midi": 32,
      "hit": false,
      "t": 241439.99999999942,
      "d": 119.16666666668607,
      "v": 105
    },
    {
      "midi": 68,
      "hit": false,
      "t": 241445.83333333276,
      "d": 90,
      "v": 114
    },
    {
      "midi": 44,
      "hit": false,
      "t": 241445.83333333276,
      "d": 119.16666666668607,
      "v": 114
    },
    {
      "midi": 80,
      "hit": false,
      "t": 241449.99999999942,
      "d": 95.83333333334303,
      "v": 114
    },
    {
      "midi": 80,
      "hit": false,
      "t": 241675.8333333328,
      "d": 111.66666666665697,
      "v": 105
    },
    {
      "midi": 68,
      "hit": false,
      "t": 241678.3333333328,
      "d": 79.16666666665697,
      "v": 108
    },
    {
      "midi": 44,
      "hit": false,
      "t": 241914.99999999945,
      "d": 125,
      "v": 108
    },
    {
      "midi": 80,
      "hit": false,
      "t": 241923.3333333328,
      "d": 108.33333333334303,
      "v": 108
    },
    {
      "midi": 32,
      "hit": false,
      "t": 241923.3333333328,
      "d": 112.5,
      "v": 95
    },
    {
      "midi": 68,
      "hit": false,
      "t": 241931.66666666613,
      "d": 84.16666666665697,
      "v": 111
    },
    {
      "midi": 45,
      "hit": false,
      "t": 242174.99999999945,
      "d": 82.5,
      "v": 111
    },
    {
      "midi": 81,
      "hit": false,
      "t": 242178.3333333328,
      "d": 71.66666666665697,
      "v": 108
    },
    {
      "midi": 33,
      "hit": false,
      "t": 242178.3333333328,
      "d": 113.33333333331393,
      "v": 102
    },
    {
      "midi": 69,
      "hit": false,
      "t": 242182.49999999945,
      "d": 61.666666666656965,
      "v": 105
    },
    {
      "midi": 33,
      "hit": false,
      "t": 242407.49999999945,
      "d": 102.5,
      "v": 86
    },
    {
      "midi": 45,
      "hit": false,
      "t": 242409.99999999945,
      "d": 90,
      "v": 89
    },
    {
      "midi": 48,
      "hit": false,
      "t": 242511.6666666661,
      "d": 29.166666666656965,
      "v": 69
    },
    {
      "midi": 50,
      "hit": false,
      "t": 242525.83333333276,
      "d": 30.833333333343035,
      "v": 65
    },
    {
      "midi": 52,
      "hit": false,
      "t": 242551.6666666661,
      "d": 25.833333333343035,
      "v": 86
    },
    {
      "midi": 53,
      "hit": false,
      "t": 242571.6666666661,
      "d": 28.333333333343035,
      "v": 86
    },
    {
      "midi": 55,
      "hit": false,
      "t": 242591.6666666661,
      "d": 30.000000000029104,
      "v": 89
    },
    {
      "midi": 57,
      "hit": false,
      "t": 242610.8333333328,
      "d": 30.833333333343035,
      "v": 95
    },
    {
      "midi": 59,
      "hit": false,
      "t": 242627.49999999948,
      "d": 30,
      "v": 95
    },
    {
      "midi": 60,
      "hit": false,
      "t": 242644.16666666613,
      "d": 33.333333333343035,
      "v": 99
    },
    {
      "midi": 62,
      "hit": false,
      "t": 242661.66666666613,
      "d": 34.166666666656965,
      "v": 95
    },
    {
      "midi": 64,
      "hit": false,
      "t": 242679.16666666613,
      "d": 34.166666666656965,
      "v": 99
    },
    {
      "midi": 65,
      "hit": false,
      "t": 242698.3333333328,
      "d": 31.666666666656965,
      "v": 102
    },
    {
      "midi": 67,
      "hit": false,
      "t": 242717.49999999945,
      "d": 33.333333333343035,
      "v": 95
    },
    {
      "midi": 69,
      "hit": false,
      "t": 242735.8333333328,
      "d": 33.33333333331393,
      "v": 99
    },
    {
      "midi": 71,
      "hit": false,
      "t": 242752.49999999945,
      "d": 30.833333333343035,
      "v": 102
    },
    {
      "midi": 72,
      "hit": false,
      "t": 242769.99999999945,
      "d": 33.333333333343035,
      "v": 99
    },
    {
      "midi": 74,
      "hit": false,
      "t": 242789.99999999945,
      "d": 34.166666666656965,
      "v": 89
    },
    {
      "midi": 76,
      "hit": false,
      "t": 242807.49999999945,
      "d": 36.666666666656965,
      "v": 92
    },
    {
      "midi": 77,
      "hit": false,
      "t": 242827.49999999945,
      "d": 32.499999999970896,
      "v": 92
    },
    {
      "midi": 79,
      "hit": false,
      "t": 242845.83333333276,
      "d": 39.166666666656965,
      "v": 99
    },
    {
      "midi": 81,
      "hit": false,
      "t": 242864.99999999942,
      "d": 28.333333333343035,
      "v": 95
    },
    {
      "midi": 83,
      "hit": false,
      "t": 242884.99999999942,
      "d": 28.33333333337214,
      "v": 99
    },
    {
      "midi": 34,
      "hit": false,
      "t": 242896.6666666661,
      "d": 183.33333333337214,
      "v": 95
    },
    {
      "midi": 84,
      "hit": false,
      "t": 242904.99999999945,
      "d": 22.500000000029104,
      "v": 105
    },
    {
      "midi": 41,
      "hit": false,
      "t": 242904.99999999945,
      "d": 188.33333333337214,
      "v": 86
    },
    {
      "midi": 86,
      "hit": false,
      "t": 242916.66666666613,
      "d": 23.333333333343035,
      "v": 102
    },
    {
      "midi": 88,
      "hit": false,
      "t": 242934.16666666613,
      "d": 22.5,
      "v": 105
    },
    {
      "midi": 89,
      "hit": false,
      "t": 242951.66666666613,
      "d": 14.166666666656965,
      "v": 105
    },
    {
      "midi": 91,
      "hit": false,
      "t": 242969.99999999945,
      "d": 15.833333333343035,
      "v": 105
    },
    {
      "midi": 93,
      "hit": false,
      "t": 242987.49999999945,
      "d": 25.833333333343035,
      "v": 99
    },
    {
      "midi": 94,
      "hit": false,
      "t": 243013.3333333328,
      "d": 25.833333333343035,
      "v": 99
    },
    {
      "midi": 34,
      "hit": false,
      "t": 243197.49999999948,
      "d": 99.16666666665697,
      "v": 89
    },
    {
      "midi": 41,
      "hit": false,
      "t": 243204.16666666613,
      "d": 129.16666666665697,
      "v": 77
    },
    {
      "midi": 89,
      "hit": false,
      "t": 243213.3333333328,
      "d": 45,
      "v": 78
    },
    {
      "midi": 98,
      "hit": false,
      "t": 243221.66666666613,
      "d": 22.5,
      "v": 59
    },
    {
      "midi": 34,
      "hit": false,
      "t": 243423.3333333328,
      "d": 102.5,
      "v": 89
    },
    {
      "midi": 41,
      "hit": false,
      "t": 243427.49999999945,
      "d": 170,
      "v": 77
    },
    {
      "midi": 89,
      "hit": false,
      "t": 243430.8333333328,
      "d": 45,
      "v": 78
    },
    {
      "midi": 98,
      "hit": false,
      "t": 243441.66666666613,
      "d": 31.666666666656965,
      "v": 73
    },
    {
      "midi": 34,
      "hit": false,
      "t": 243661.6666666661,
      "d": 188.33333333334303,
      "v": 95
    },
    {
      "midi": 94,
      "hit": false,
      "t": 243666.6666666661,
      "d": 61.66666666668607,
      "v": 105
    },
    {
      "midi": 43,
      "hit": false,
      "t": 243669.1666666661,
      "d": 160.83333333334303,
      "v": 86
    },
    {
      "midi": 89,
      "hit": false,
      "t": 243679.99999999945,
      "d": 47.5,
      "v": 89
    },
    {
      "midi": 98,
      "hit": false,
      "t": 243679.99999999945,
      "d": 72.5,
      "v": 79
    },
    {
      "midi": 98,
      "hit": false,
      "t": 243905.8333333328,
      "d": 60.833333333343035,
      "v": 73
    },
    {
      "midi": 94,
      "hit": false,
      "t": 243911.66666666613,
      "d": 40,
      "v": 86
    },
    {
      "midi": 89,
      "hit": false,
      "t": 243914.99999999948,
      "d": 26.666666666656965,
      "v": 78
    },
    {
      "midi": 34,
      "hit": false,
      "t": 244115.8333333328,
      "d": 128.33333333334303,
      "v": 74
    },
    {
      "midi": 41,
      "hit": false,
      "t": 244131.66666666613,
      "d": 212.5,
      "v": 74
    },
    {
      "midi": 94,
      "hit": false,
      "t": 244139.16666666613,
      "d": 50.833333333343035,
      "v": 105
    },
    {
      "midi": 89,
      "hit": false,
      "t": 244144.16666666613,
      "d": 35.833333333343035,
      "v": 92
    },
    {
      "midi": 98,
      "hit": false,
      "t": 244147.49999999948,
      "d": 62.5,
      "v": 77
    },
    {
      "midi": 101,
      "hit": false,
      "t": 244161.66666666613,
      "d": 35,
      "v": 78
    },
    {
      "midi": 44,
      "hit": false,
      "t": 244385.8333333328,
      "d": 144.16666666665697,
      "v": 111
    },
    {
      "midi": 34,
      "hit": false,
      "t": 244387.49999999945,
      "d": 180.83333333334303,
      "v": 89
    },
    {
      "midi": 94,
      "hit": false,
      "t": 244396.6666666661,
      "d": 46.66666666668607,
      "v": 114
    },
    {
      "midi": 89,
      "hit": false,
      "t": 244396.6666666661,
      "d": 49.16666666668607,
      "v": 108
    },
    {
      "midi": 98,
      "hit": false,
      "t": 244407.49999999945,
      "d": 52.5,
      "v": 92
    },
    {
      "midi": 101,
      "hit": false,
      "t": 244407.49999999945,
      "d": 54.166666666656965,
      "v": 95
    },
    {
      "midi": 94,
      "hit": false,
      "t": 244625.8333333328,
      "d": 49.166666666656965,
      "v": 89
    },
    {
      "midi": 98,
      "hit": false,
      "t": 244629.99999999945,
      "d": 64.16666666665697,
      "v": 71
    },
    {
      "midi": 89,
      "hit": false,
      "t": 244633.3333333328,
      "d": 34.166666666656965,
      "v": 79
    },
    {
      "midi": 101,
      "hit": false,
      "t": 244640.8333333328,
      "d": 43.33333333331393,
      "v": 69
    },
    {
      "midi": 34,
      "hit": false,
      "t": 244853.33333333276,
      "d": 138.33333333331393,
      "v": 77
    },
    {
      "midi": 94,
      "hit": false,
      "t": 244856.6666666661,
      "d": 56.66666666662786,
      "v": 111
    },
    {
      "midi": 98,
      "hit": false,
      "t": 244863.33333333276,
      "d": 65.83333333331393,
      "v": 79
    },
    {
      "midi": 89,
      "hit": false,
      "t": 244864.99999999942,
      "d": 44.166666666656965,
      "v": 99
    },
    {
      "midi": 41,
      "hit": false,
      "t": 244868.33333333276,
      "d": 184.16666666665697,
      "v": 71
    },
    {
      "midi": 101,
      "hit": false,
      "t": 244877.49999999942,
      "d": 55,
      "v": 77
    },
    {
      "midi": 34,
      "hit": false,
      "t": 245097.49999999942,
      "d": 176.66666666662786,
      "v": 77
    },
    {
      "midi": 43,
      "hit": false,
      "t": 245105.83333333276,
      "d": 144.16666666662786,
      "v": 79
    },
    {
      "midi": 89,
      "hit": false,
      "t": 245127.49999999942,
      "d": 45.833333333343035,
      "v": 111
    },
    {
      "midi": 94,
      "hit": false,
      "t": 245127.49999999942,
      "d": 50,
      "v": 111
    },
    {
      "midi": 101,
      "hit": false,
      "t": 245127.49999999942,
      "d": 75.83333333331393,
      "v": 95
    },
    {
      "midi": 98,
      "hit": false,
      "t": 245127.49999999942,
      "d": 78.33333333331393,
      "v": 95
    },
    {
      "midi": 98,
      "hit": false,
      "t": 245354.9999999994,
      "d": 110,
      "v": 74
    },
    {
      "midi": 89,
      "hit": false,
      "t": 245357.4999999994,
      "d": 67.5,
      "v": 89
    },
    {
      "midi": 94,
      "hit": false,
      "t": 245360.83333333273,
      "d": 76.66666666665697,
      "v": 89
    },
    {
      "midi": 101,
      "hit": false,
      "t": 245365.83333333273,
      "d": 94.16666666665697,
      "v": 78
    },
    {
      "midi": 43,
      "hit": false,
      "t": 245578.33333333273,
      "d": 131.66666666668607,
      "v": 77
    },
    {
      "midi": 34,
      "hit": false,
      "t": 245588.33333333273,
      "d": 154.16666666668607,
      "v": 78
    },
    {
      "midi": 89,
      "hit": false,
      "t": 245593.33333333273,
      "d": 66.66666666668607,
      "v": 99
    },
    {
      "midi": 94,
      "hit": false,
      "t": 245598.33333333273,
      "d": 77.5000000000291,
      "v": 92
    },
    {
      "midi": 101,
      "hit": false,
      "t": 245601.66666666607,
      "d": 95.83333333334303,
      "v": 92
    },
    {
      "midi": 98,
      "hit": false,
      "t": 245831.66666666607,
      "d": 142.4999999999709,
      "v": 86
    },
    {
      "midi": 41,
      "hit": false,
      "t": 245835.83333333273,
      "d": 175.83333333331393,
      "v": 92
    },
    {
      "midi": 92,
      "hit": false,
      "t": 245837.4999999994,
      "d": 102.5,
      "v": 105
    },
    {
      "midi": 94,
      "hit": false,
      "t": 245845.83333333273,
      "d": 125.83333333331393,
      "v": 75
    },
    {
      "midi": 34,
      "hit": false,
      "t": 245845.83333333273,
      "d": 147.4999999999709,
      "v": 92
    },
    {
      "midi": 104,
      "hit": false,
      "t": 245850.83333333273,
      "d": 100.83333333331393,
      "v": 95
    },
    {
      "midi": 98,
      "hit": false,
      "t": 246083.3333333327,
      "d": 117.49999999994179,
      "v": 74
    },
    {
      "midi": 94,
      "hit": false,
      "t": 246087.49999999936,
      "d": 94.9999999999709,
      "v": 67
    },
    {
      "midi": 92,
      "hit": false,
      "t": 246091.66666666602,
      "d": 59.166666666656965,
      "v": 75
    },
    {
      "midi": 104,
      "hit": false,
      "t": 246096.66666666602,
      "d": 97.4999999999709,
      "v": 92
    },
    {
      "midi": 92,
      "hit": false,
      "t": 246312.4999999993,
      "d": 106.66666666665697,
      "v": 92
    },
    {
      "midi": 104,
      "hit": false,
      "t": 246317.4999999993,
      "d": 127.5,
      "v": 99
    },
    {
      "midi": 98,
      "hit": false,
      "t": 246319.9999999993,
      "d": 130,
      "v": 70
    },
    {
      "midi": 34,
      "hit": false,
      "t": 246326.66666666596,
      "d": 134.16666666668607,
      "v": 79
    },
    {
      "midi": 41,
      "hit": false,
      "t": 246326.66666666596,
      "d": 176.66666666668607,
      "v": 78
    },
    {
      "midi": 94,
      "hit": false,
      "t": 246335.83333333262,
      "d": 106.66666666668607,
      "v": 69
    },
    {
      "midi": 34,
      "hit": false,
      "t": 246556.66666666596,
      "d": 190.0000000000291,
      "v": 77
    },
    {
      "midi": 94,
      "hit": false,
      "t": 246567.4999999993,
      "d": 114.16666666668607,
      "v": 79
    },
    {
      "midi": 43,
      "hit": false,
      "t": 246567.4999999993,
      "d": 164.16666666668607,
      "v": 79
    },
    {
      "midi": 91,
      "hit": false,
      "t": 246571.66666666596,
      "d": 89.16666666668607,
      "v": 86
    },
    {
      "midi": 98,
      "hit": false,
      "t": 246574.9999999993,
      "d": 117.5000000000291,
      "v": 77
    },
    {
      "midi": 103,
      "hit": false,
      "t": 246578.33333333264,
      "d": 109.16666666668607,
      "v": 105
    },
    {
      "midi": 103,
      "hit": false,
      "t": 246784.99999999933,
      "d": 111.66666666668607,
      "v": 86
    },
    {
      "midi": 91,
      "hit": false,
      "t": 246790.83333333267,
      "d": 77.5,
      "v": 73
    },
    {
      "midi": 94,
      "hit": false,
      "t": 246792.49999999933,
      "d": 94.16666666668607,
      "v": 74
    },
    {
      "midi": 98,
      "hit": false,
      "t": 246798.33333333267,
      "d": 118.33333333334303,
      "v": 69
    },
    {
      "midi": 34,
      "hit": false,
      "t": 247012.49999999936,
      "d": 138.33333333337214,
      "v": 79
    },
    {
      "midi": 91,
      "hit": false,
      "t": 247018.3333333327,
      "d": 93.33333333334303,
      "v": 78
    },
    {
      "midi": 41,
      "hit": false,
      "t": 247018.3333333327,
      "d": 206.66666666671517,
      "v": 77
    },
    {
      "midi": 94,
      "hit": false,
      "t": 247028.3333333327,
      "d": 114.16666666668607,
      "v": 77
    },
    {
      "midi": 98,
      "hit": false,
      "t": 247028.3333333327,
      "d": 128.33333333337214,
      "v": 73
    },
    {
      "midi": 101,
      "hit": false,
      "t": 247040.8333333327,
      "d": 68.33333333334303,
      "v": 74
    },
    {
      "midi": 34,
      "hit": false,
      "t": 247274.99999999942,
      "d": 191.66666666665697,
      "v": 92
    },
    {
      "midi": 44,
      "hit": false,
      "t": 247274.99999999942,
      "d": 205.83333333331393,
      "v": 108
    },
    {
      "midi": 89,
      "hit": false,
      "t": 247275.83333333276,
      "d": 77.5,
      "v": 102
    },
    {
      "midi": 92,
      "hit": false,
      "t": 247284.99999999942,
      "d": 102.5,
      "v": 105
    },
    {
      "midi": 98,
      "hit": false,
      "t": 247284.99999999942,
      "d": 115,
      "v": 79
    },
    {
      "midi": 101,
      "hit": false,
      "t": 247295.83333333276,
      "d": 101.66666666665697,
      "v": 102
    },
    {
      "midi": 98,
      "hit": false,
      "t": 247491.66666666607,
      "d": 110.0000000000291,
      "v": 74
    },
    {
      "midi": 92,
      "hit": false,
      "t": 247496.66666666607,
      "d": 94.16666666668607,
      "v": 86
    },
    {
      "midi": 89,
      "hit": false,
      "t": 247501.66666666607,
      "d": 68.33333333334303,
      "v": 78
    },
    {
      "midi": 101,
      "hit": false,
      "t": 247504.99999999942,
      "d": 98.33333333334303,
      "v": 86
    },
    {
      "midi": 34,
      "hit": false,
      "t": 247725.83333333276,
      "d": 130,
      "v": 78
    },
    {
      "midi": 92,
      "hit": false,
      "t": 247729.99999999942,
      "d": 110,
      "v": 99
    },
    {
      "midi": 89,
      "hit": false,
      "t": 247734.99999999942,
      "d": 78.33333333334303,
      "v": 95
    },
    {
      "midi": 98,
      "hit": false,
      "t": 247739.99999999942,
      "d": 110.83333333334303,
      "v": 86
    },
    {
      "midi": 101,
      "hit": false,
      "t": 247739.99999999942,
      "d": 111.66666666668607,
      "v": 99
    },
    {
      "midi": 41,
      "hit": false,
      "t": 247754.99999999942,
      "d": 178.33333333334303,
      "v": 74
    },
    {
      "midi": 98,
      "hit": false,
      "t": 247976.6666666661,
      "d": 131.66666666665697,
      "v": 86
    },
    {
      "midi": 34,
      "hit": false,
      "t": 247976.6666666661,
      "d": 167.5,
      "v": 105
    },
    {
      "midi": 92,
      "hit": false,
      "t": 247987.49999999945,
      "d": 100.83333333331393,
      "v": 92
    },
    {
      "midi": 43,
      "hit": false,
      "t": 247987.49999999945,
      "d": 139.16666666665697,
      "v": 83
    },
    {
      "midi": 101,
      "hit": false,
      "t": 247989.99999999945,
      "d": 114.9999999999709,
      "v": 89
    },
    {
      "midi": 89,
      "hit": false,
      "t": 247994.99999999945,
      "d": 69.16666666665697,
      "v": 89
    },
    {
      "midi": 98,
      "hit": false,
      "t": 248209.99999999945,
      "d": 110.83333333334303,
      "v": 75
    },
    {
      "midi": 92,
      "hit": false,
      "t": 248213.3333333328,
      "d": 98.33333333334303,
      "v": 77
    },
    {
      "midi": 89,
      "hit": false,
      "t": 248221.66666666613,
      "d": 64.16666666665697,
      "v": 75
    },
    {
      "midi": 101,
      "hit": false,
      "t": 248221.66666666613,
      "d": 108.33333333331393,
      "v": 79
    },
    {
      "midi": 34,
      "hit": false,
      "t": 248434.99999999945,
      "d": 71.66666666668607,
      "v": 77
    },
    {
      "midi": 41,
      "hit": false,
      "t": 248435.8333333328,
      "d": 67.5,
      "v": 75
    },
    {
      "midi": 90,
      "hit": false,
      "t": 248453.3333333328,
      "d": 70,
      "v": 105
    },
    {
      "midi": 102,
      "hit": false,
      "t": 248459.99999999945,
      "d": 69.16666666668607,
      "v": 111
    },
    {
      "midi": 94,
      "hit": false,
      "t": 248691.66666666613,
      "d": 111.66666666665697,
      "v": 92
    },
    {
      "midi": 99,
      "hit": false,
      "t": 248694.99999999948,
      "d": 110.83333333331393,
      "v": 99
    },
    {
      "midi": 91,
      "hit": false,
      "t": 248701.66666666613,
      "d": 79.16666666665697,
      "v": 79
    },
    {
      "midi": 27,
      "hit": false,
      "t": 248701.66666666613,
      "d": 475.8333333332848,
      "v": 108
    },
    {
      "midi": 103,
      "hit": false,
      "t": 248718.3333333328,
      "d": 81.66666666665697,
      "v": 105
    },
    {
      "midi": 94,
      "hit": false,
      "t": 248919.16666666613,
      "d": 82.4999999999709,
      "v": 79
    },
    {
      "midi": 99,
      "hit": false,
      "t": 248923.3333333328,
      "d": 94.9999999999709,
      "v": 86
    },
    {
      "midi": 91,
      "hit": false,
      "t": 248929.99999999945,
      "d": 57.5,
      "v": 73
    },
    {
      "midi": 103,
      "hit": false,
      "t": 248929.99999999945,
      "d": 102.4999999999709,
      "v": 89
    },
    {
      "midi": 99,
      "hit": false,
      "t": 249159.99999999942,
      "d": 73.33333333334303,
      "v": 77
    },
    {
      "midi": 94,
      "hit": false,
      "t": 249164.99999999942,
      "d": 55.833333333343035,
      "v": 70
    },
    {
      "midi": 103,
      "hit": false,
      "t": 249167.49999999942,
      "d": 59.16666666668607,
      "v": 83
    },
    {
      "midi": 91,
      "hit": false,
      "t": 249177.49999999942,
      "d": 62.5,
      "v": 73
    },
    {
      "midi": 39,
      "hit": false,
      "t": 249177.49999999942,
      "d": 85.83333333334303,
      "v": 89
    },
    {
      "midi": 31,
      "hit": false,
      "t": 249391.66666666607,
      "d": 550.8333333333721,
      "v": 78
    },
    {
      "midi": 91,
      "hit": false,
      "t": 249403.33333333273,
      "d": 128.33333333334303,
      "v": 77
    },
    {
      "midi": 87,
      "hit": false,
      "t": 249406.66666666607,
      "d": 88.33333333331393,
      "v": 108
    },
    {
      "midi": 99,
      "hit": false,
      "t": 249413.33333333273,
      "d": 103.33333333334303,
      "v": 105
    },
    {
      "midi": 94,
      "hit": false,
      "t": 249429.9999999994,
      "d": 85.83333333334303,
      "v": 77
    },
    {
      "midi": 91,
      "hit": false,
      "t": 249629.99999999942,
      "d": 123.33333333334303,
      "v": 74
    },
    {
      "midi": 87,
      "hit": false,
      "t": 249633.33333333276,
      "d": 74.16666666665697,
      "v": 86
    },
    {
      "midi": 94,
      "hit": false,
      "t": 249637.49999999942,
      "d": 98.33333333334303,
      "v": 71
    },
    {
      "midi": 99,
      "hit": false,
      "t": 249644.99999999942,
      "d": 106.66666666668607,
      "v": 89
    },
    {
      "midi": 91,
      "hit": false,
      "t": 249869.99999999942,
      "d": 68.33333333337214,
      "v": 71
    },
    {
      "midi": 94,
      "hit": false,
      "t": 249875.83333333276,
      "d": 55.833333333343035,
      "v": 69
    },
    {
      "midi": 87,
      "hit": false,
      "t": 249876.6666666661,
      "d": 80.83333333334303,
      "v": 74
    },
    {
      "midi": 99,
      "hit": false,
      "t": 249884.99999999945,
      "d": 50,
      "v": 86
    },
    {
      "midi": 43,
      "hit": false,
      "t": 249884.99999999945,
      "d": 96.66666666665697,
      "v": 78
    },
    {
      "midi": 94,
      "hit": false,
      "t": 250099.99999999942,
      "d": 120,
      "v": 105
    },
    {
      "midi": 82,
      "hit": false,
      "t": 250105.83333333276,
      "d": 85,
      "v": 105
    },
    {
      "midi": 34,
      "hit": false,
      "t": 250107.49999999942,
      "d": 530.833333333343,
      "v": 99
    },
    {
      "midi": 87,
      "hit": false,
      "t": 250117.49999999942,
      "d": 104.16666666665697,
      "v": 78
    },
    {
      "midi": 87,
      "hit": false,
      "t": 250344.16666666607,
      "d": 127.5,
      "v": 79
    },
    {
      "midi": 82,
      "hit": false,
      "t": 250348.33333333273,
      "d": 90,
      "v": 92
    },
    {
      "midi": 94,
      "hit": false,
      "t": 250351.66666666607,
      "d": 125.83333333334303,
      "v": 92
    },
    {
      "midi": 94,
      "hit": false,
      "t": 250570.83333333276,
      "d": 142.5,
      "v": 105
    },
    {
      "midi": 82,
      "hit": false,
      "t": 250577.49999999942,
      "d": 96.66666666668607,
      "v": 99
    },
    {
      "midi": 87,
      "hit": false,
      "t": 250577.49999999942,
      "d": 124.16666666668607,
      "v": 89
    },
    {
      "midi": 46,
      "hit": false,
      "t": 250587.49999999942,
      "d": 105.83333333334303,
      "v": 95
    },
    {
      "midi": 82,
      "hit": false,
      "t": 250816.6666666661,
      "d": 93.33333333337214,
      "v": 105
    },
    {
      "midi": 87,
      "hit": false,
      "t": 250819.99999999945,
      "d": 115.83333333337214,
      "v": 92
    },
    {
      "midi": 91,
      "hit": false,
      "t": 250830.8333333328,
      "d": 120.83333333337214,
      "v": 79
    },
    {
      "midi": 31,
      "hit": false,
      "t": 250830.8333333328,
      "d": 514.1666666667734,
      "v": 99
    },
    {
      "midi": 91,
      "hit": false,
      "t": 251036.66666666616,
      "d": 141.66666666671517,
      "v": 69
    },
    {
      "midi": 87,
      "hit": false,
      "t": 251039.9999999995,
      "d": 125.0000000000291,
      "v": 75
    },
    {
      "midi": 82,
      "hit": false,
      "t": 251045.83333333285,
      "d": 75.83333333334303,
      "v": 89
    },
    {
      "midi": 91,
      "hit": false,
      "t": 251271.66666666622,
      "d": 90.83333333334303,
      "v": 66
    },
    {
      "midi": 82,
      "hit": false,
      "t": 251274.99999999956,
      "d": 102.5,
      "v": 92
    },
    {
      "midi": 87,
      "hit": false,
      "t": 251277.49999999956,
      "d": 88.33333333334303,
      "v": 77
    },
    {
      "midi": 43,
      "hit": false,
      "t": 251287.49999999956,
      "d": 68.33333333334303,
      "v": 86
    },
    {
      "midi": 85,
      "hit": false,
      "t": 251500.8333333329,
      "d": 130.83333333334303,
      "v": 92
    },
    {
      "midi": 82,
      "hit": false,
      "t": 251506.66666666625,
      "d": 99.16666666665697,
      "v": 111
    },
    {
      "midi": 28,
      "hit": false,
      "t": 251509.16666666625,
      "d": 531.666666666657,
      "v": 111
    },
    {
      "midi": 94,
      "hit": false,
      "t": 251515.8333333329,
      "d": 122.5,
      "v": 105
    },
    {
      "midi": 88,
      "hit": false,
      "t": 251525.8333333329,
      "d": 118.33333333334303,
      "v": 79
    },
    {
      "midi": 82,
      "hit": false,
      "t": 251735.8333333329,
      "d": 101.66666666665697,
      "v": 95
    },
    {
      "midi": 94,
      "hit": false,
      "t": 251743.3333333329,
      "d": 130,
      "v": 78
    },
    {
      "midi": 88,
      "hit": false,
      "t": 251747.49999999956,
      "d": 132.5,
      "v": 71
    },
    {
      "midi": 85,
      "hit": false,
      "t": 251753.3333333329,
      "d": 115,
      "v": 75
    },
    {
      "midi": 82,
      "hit": false,
      "t": 251984.99999999956,
      "d": 110.83333333334303,
      "v": 99
    },
    {
      "midi": 88,
      "hit": false,
      "t": 251989.99999999956,
      "d": 140.83333333334303,
      "v": 71
    },
    {
      "midi": 85,
      "hit": false,
      "t": 251994.99999999956,
      "d": 125.83333333334303,
      "v": 75
    },
    {
      "midi": 94,
      "hit": false,
      "t": 251994.99999999956,
      "d": 127.5,
      "v": 89
    },
    {
      "midi": 40,
      "hit": false,
      "t": 252009.99999999956,
      "d": 110,
      "v": 92
    },
    {
      "midi": 82,
      "hit": false,
      "t": 252218.3333333329,
      "d": 105,
      "v": 114
    },
    {
      "midi": 31,
      "hit": false,
      "t": 252221.66666666625,
      "d": 519.166666666657,
      "v": 99
    },
    {
      "midi": 94,
      "hit": false,
      "t": 252227.4999999996,
      "d": 109.16666666665697,
      "v": 105
    },
    {
      "midi": 88,
      "hit": false,
      "t": 252229.9999999996,
      "d": 120.83333333331393,
      "v": 74
    },
    {
      "midi": 85,
      "hit": false,
      "t": 252236.66666666625,
      "d": 112.5,
      "v": 86
    },
    {
      "midi": 82,
      "hit": false,
      "t": 252442.49999999956,
      "d": 89.16666666665697,
      "v": 75
    },
    {
      "midi": 88,
      "hit": false,
      "t": 252449.16666666622,
      "d": 118.33333333334303,
      "v": 59
    },
    {
      "midi": 85,
      "hit": false,
      "t": 252451.66666666622,
      "d": 104.16666666665697,
      "v": 66
    },
    {
      "midi": 94,
      "hit": false,
      "t": 252458.33333333288,
      "d": 103.33333333334303,
      "v": 74
    },
    {
      "midi": 82,
      "hit": false,
      "t": 252683.3333333329,
      "d": 108.33333333334303,
      "v": 108
    },
    {
      "midi": 43,
      "hit": false,
      "t": 252688.3333333329,
      "d": 152.5,
      "v": 83
    },
    {
      "midi": 94,
      "hit": false,
      "t": 252691.66666666625,
      "d": 125,
      "v": 105
    },
    {
      "midi": 85,
      "hit": false,
      "t": 252700.8333333329,
      "d": 110.83333333334303,
      "v": 78
    },
    {
      "midi": 88,
      "hit": false,
      "t": 252700.8333333329,
      "d": 125.83333333334303,
      "v": 74
    },
    {
      "midi": 82,
      "hit": false,
      "t": 252926.66666666625,
      "d": 105.83333333334303,
      "v": 105
    },
    {
      "midi": 94,
      "hit": false,
      "t": 252929.9999999996,
      "d": 118.33333333334303,
      "v": 99
    },
    {
      "midi": 85,
      "hit": false,
      "t": 252941.66666666625,
      "d": 110.0000000000291,
      "v": 78
    },
    {
      "midi": 88,
      "hit": false,
      "t": 252941.66666666625,
      "d": 123.33333333337214,
      "v": 78
    },
    {
      "midi": 34,
      "hit": false,
      "t": 252941.66666666625,
      "d": 450.0000000000291,
      "v": 108
    },
    {
      "midi": 82,
      "hit": false,
      "t": 253152.49999999962,
      "d": 95,
      "v": 86
    },
    {
      "midi": 88,
      "hit": false,
      "t": 253155.83333333296,
      "d": 133.33333333331393,
      "v": 63
    },
    {
      "midi": 85,
      "hit": false,
      "t": 253160.83333333296,
      "d": 110,
      "v": 75
    },
    {
      "midi": 94,
      "hit": false,
      "t": 253160.83333333296,
      "d": 116.66666666665697,
      "v": 79
    },
    {
      "midi": 46,
      "hit": false,
      "t": 253383.33333333294,
      "d": 182.5,
      "v": 105
    },
    {
      "midi": 82,
      "hit": false,
      "t": 253390.83333333294,
      "d": 95.83333333334303,
      "v": 108
    },
    {
      "midi": 94,
      "hit": false,
      "t": 253396.66666666628,
      "d": 119.16666666665697,
      "v": 92
    },
    {
      "midi": 88,
      "hit": false,
      "t": 253399.16666666628,
      "d": 128.33333333331393,
      "v": 77
    },
    {
      "midi": 85,
      "hit": false,
      "t": 253406.66666666628,
      "d": 102.5,
      "v": 78
    },
    {
      "midi": 82,
      "hit": false,
      "t": 253633.33333333294,
      "d": 109.16666666665697,
      "v": 111
    },
    {
      "midi": 88,
      "hit": false,
      "t": 253635.83333333294,
      "d": 140.83333333334303,
      "v": 83
    },
    {
      "midi": 85,
      "hit": false,
      "t": 253643.33333333294,
      "d": 111.66666666665697,
      "v": 86
    },
    {
      "midi": 94,
      "hit": false,
      "t": 253643.33333333294,
      "d": 120,
      "v": 108
    },
    {
      "midi": 37,
      "hit": false,
      "t": 253657.4999999996,
      "d": 474.16666666665697,
      "v": 105
    },
    {
      "midi": 82,
      "hit": false,
      "t": 253861.66666666628,
      "d": 102.5,
      "v": 105
    },
    {
      "midi": 88,
      "hit": false,
      "t": 253865.83333333294,
      "d": 140,
      "v": 71
    },
    {
      "midi": 94,
      "hit": false,
      "t": 253870.83333333294,
      "d": 120,
      "v": 89
    },
    {
      "midi": 85,
      "hit": false,
      "t": 253875.83333333294,
      "d": 105.83333333334303,
      "v": 75
    },
    {
      "midi": 88,
      "hit": false,
      "t": 254091.66666666628,
      "d": 119.99999999994179,
      "v": 66
    },
    {
      "midi": 82,
      "hit": false,
      "t": 254095.83333333294,
      "d": 109.9999999999709,
      "v": 99
    },
    {
      "midi": 94,
      "hit": false,
      "t": 254099.9999999996,
      "d": 133.33333333328483,
      "v": 89
    },
    {
      "midi": 85,
      "hit": false,
      "t": 254105.83333333294,
      "d": 104.16666666662786,
      "v": 75
    },
    {
      "midi": 41,
      "hit": false,
      "t": 254119.9999999996,
      "d": 133.33333333328483,
      "v": 69
    },
    {
      "midi": 86,
      "hit": false,
      "t": 254346.66666666622,
      "d": 153.33333333331393,
      "v": 78
    },
    {
      "midi": 82,
      "hit": false,
      "t": 254351.66666666622,
      "d": 108.33333333331393,
      "v": 111
    },
    {
      "midi": 94,
      "hit": false,
      "t": 254353.33333333288,
      "d": 128.33333333331393,
      "v": 95
    },
    {
      "midi": 89,
      "hit": false,
      "t": 254369.99999999953,
      "d": 137.5,
      "v": 74
    },
    {
      "midi": 34,
      "hit": false,
      "t": 254369.99999999953,
      "d": 155.83333333334303,
      "v": 114
    },
    {
      "midi": 46,
      "hit": false,
      "t": 254369.99999999953,
      "d": 826.6666666666279,
      "v": 117
    },
    {
      "midi": 82,
      "hit": false,
      "t": 254590.83333333288,
      "d": 97.4999999999709,
      "v": 70
    },
    {
      "midi": 86,
      "hit": false,
      "t": 254594.99999999953,
      "d": 142.4999999999709,
      "v": 47
    },
    {
      "midi": 89,
      "hit": false,
      "t": 254599.99999999953,
      "d": 135.83333333331393,
      "v": 50
    },
    {
      "midi": 94,
      "hit": false,
      "t": 254606.6666666662,
      "d": 116.66666666665697,
      "v": 69
    },
    {
      "midi": 82,
      "hit": false,
      "t": 254847.4999999995,
      "d": 100.83333333331393,
      "v": 89
    },
    {
      "midi": 89,
      "hit": false,
      "t": 254854.16666666616,
      "d": 156.66666666665697,
      "v": 66
    },
    {
      "midi": 86,
      "hit": false,
      "t": 254859.9999999995,
      "d": 140.83333333331393,
      "v": 66
    },
    {
      "midi": 94,
      "hit": false,
      "t": 254861.66666666616,
      "d": 124.16666666665697,
      "v": 78
    },
    {
      "midi": 82,
      "hit": false,
      "t": 255100.83333333282,
      "d": 95.83333333334303,
      "v": 111
    },
    {
      "midi": 89,
      "hit": false,
      "t": 255100.83333333282,
      "d": 145.83333333334303,
      "v": 57
    },
    {
      "midi": 53,
      "hit": false,
      "t": 255102.49999999948,
      "d": 80.83333333334303,
      "v": 83
    },
    {
      "midi": 94,
      "hit": false,
      "t": 255115.83333333282,
      "d": 105,
      "v": 108
    },
    {
      "midi": 86,
      "hit": false,
      "t": 255115.83333333282,
      "d": 135.83333333334303,
      "v": 83
    },
    {
      "midi": 89,
      "hit": false,
      "t": 255325.83333333282,
      "d": 144.16666666668607,
      "v": 54
    },
    {
      "midi": 86,
      "hit": false,
      "t": 255331.66666666616,
      "d": 130,
      "v": 61
    },
    {
      "midi": 82,
      "hit": false,
      "t": 255335.83333333282,
      "d": 81.66666666665697,
      "v": 95
    },
    {
      "midi": 94,
      "hit": false,
      "t": 255337.49999999948,
      "d": 120.83333333334303,
      "v": 89
    },
    {
      "midi": 94,
      "hit": false,
      "t": 255565.83333333285,
      "d": 136.66666666671517,
      "v": 79
    },
    {
      "midi": 82,
      "hit": false,
      "t": 255571.6666666662,
      "d": 95.83333333337214,
      "v": 92
    },
    {
      "midi": 86,
      "hit": false,
      "t": 255576.6666666662,
      "d": 130.83333333337214,
      "v": 73
    },
    {
      "midi": 89,
      "hit": false,
      "t": 255581.6666666662,
      "d": 105.83333333337214,
      "v": 65
    },
    {
      "midi": 44,
      "hit": false,
      "t": 255582.49999999953,
      "d": 79.16666666668607,
      "v": 108
    },
    {
      "midi": 32,
      "hit": false,
      "t": 255590.83333333288,
      "d": 60.833333333343035,
      "v": 105
    },
    {
      "midi": 81,
      "hit": false,
      "t": 255840.83333333288,
      "d": 120.83333333331393,
      "v": 89
    },
    {
      "midi": 93,
      "hit": false,
      "t": 255840.83333333288,
      "d": 129.16666666665697,
      "v": 89
    },
    {
      "midi": 86,
      "hit": false,
      "t": 255840.83333333288,
      "d": 145,
      "v": 92
    },
    {
      "midi": 90,
      "hit": false,
      "t": 255840.83333333288,
      "d": 150.83333333334303,
      "v": 92
    },
    {
      "midi": 33,
      "hit": false,
      "t": 255849.99999999953,
      "d": 174.16666666668607,
      "v": 92
    },
    {
      "midi": 45,
      "hit": false,
      "t": 255849.99999999953,
      "d": 225.83333333334303,
      "v": 105
    },
    {
      "midi": 86,
      "hit": false,
      "t": 256078.33333333288,
      "d": 130.0000000000291,
      "v": 69
    },
    {
      "midi": 90,
      "hit": false,
      "t": 256081.66666666622,
      "d": 133.33333333334303,
      "v": 78
    },
    {
      "midi": 81,
      "hit": false,
      "t": 256084.99999999956,
      "d": 101.66666666668607,
      "v": 77
    },
    {
      "midi": 93,
      "hit": false,
      "t": 256093.3333333329,
      "d": 107.5,
      "v": 73
    },
    {
      "midi": 81,
      "hit": false,
      "t": 256315.8333333329,
      "d": 125.83333333331393,
      "v": 75
    },
    {
      "midi": 90,
      "hit": false,
      "t": 256319.99999999956,
      "d": 145.83333333334303,
      "v": 79
    },
    {
      "midi": 86,
      "hit": false,
      "t": 256322.49999999956,
      "d": 157.5,
      "v": 73
    },
    {
      "midi": 93,
      "hit": false,
      "t": 256331.66666666622,
      "d": 128.33333333334303,
      "v": 79
    },
    {
      "midi": 54,
      "hit": false,
      "t": 256558.3333333329,
      "d": 73.33333333334303,
      "v": 99
    },
    {
      "midi": 81,
      "hit": false,
      "t": 256559.99999999956,
      "d": 120.0000000000291,
      "v": 99
    },
    {
      "midi": 90,
      "hit": false,
      "t": 256565.8333333329,
      "d": 140.0000000000291,
      "v": 92
    },
    {
      "midi": 86,
      "hit": false,
      "t": 256565.8333333329,
      "d": 145.83333333337214,
      "v": 83
    },
    {
      "midi": 93,
      "hit": false,
      "t": 256581.66666666625,
      "d": 118.33333333334303,
      "v": 92
    },
    {
      "midi": 90,
      "hit": false,
      "t": 256790.83333333294,
      "d": 132.4999999999709,
      "v": 89
    },
    {
      "midi": 86,
      "hit": false,
      "t": 256795.83333333294,
      "d": 134.16666666662786,
      "v": 75
    },
    {
      "midi": 81,
      "hit": false,
      "t": 256800.83333333294,
      "d": 93.33333333331393,
      "v": 86
    },
    {
      "midi": 93,
      "hit": false,
      "t": 256802.4999999996,
      "d": 110.83333333331393,
      "v": 92
    },
    {
      "midi": 45,
      "hit": false,
      "t": 256835.83333333294,
      "d": 54.166666666656965,
      "v": 86
    },
    {
      "midi": 33,
      "hit": false,
      "t": 256844.9999999996,
      "d": 58.33333333331393,
      "v": 83
    },
    {
      "midi": 90,
      "hit": false,
      "t": 257024.99999999956,
      "d": 107.5,
      "v": 74
    },
    {
      "midi": 86,
      "hit": false,
      "t": 257030.8333333329,
      "d": 139.16666666665697,
      "v": 67
    },
    {
      "midi": 81,
      "hit": false,
      "t": 257033.3333333329,
      "d": 65.83333333331393,
      "v": 79
    },
    {
      "midi": 93,
      "hit": false,
      "t": 257039.99999999956,
      "d": 79.16666666665697,
      "v": 75
    },
    {
      "midi": 44,
      "hit": false,
      "t": 257056.66666666622,
      "d": 32.5,
      "v": 78
    },
    {
      "midi": 32,
      "hit": false,
      "t": 257068.33333333288,
      "d": 32.5,
      "v": 49
    },
    {
      "midi": 91,
      "hit": false,
      "t": 257280.8333333329,
      "d": 145.83333333334303,
      "v": 78
    },
    {
      "midi": 86,
      "hit": false,
      "t": 257284.16666666625,
      "d": 146.66666666665697,
      "v": 73
    },
    {
      "midi": 82,
      "hit": false,
      "t": 257298.3333333329,
      "d": 83.33333333334303,
      "v": 111
    },
    {
      "midi": 94,
      "hit": false,
      "t": 257298.3333333329,
      "d": 105,
      "v": 105
    },
    {
      "midi": 31,
      "hit": false,
      "t": 257298.3333333329,
      "d": 253.33333333331393,
      "v": 99
    },
    {
      "midi": 43,
      "hit": false,
      "t": 257298.3333333329,
      "d": 299.16666666665697,
      "v": 95
    },
    {
      "midi": 82,
      "hit": false,
      "t": 257522.49999999956,
      "d": 92.5,
      "v": 79
    },
    {
      "midi": 86,
      "hit": false,
      "t": 257526.66666666622,
      "d": 129.16666666668607,
      "v": 51
    },
    {
      "midi": 94,
      "hit": false,
      "t": 257535.83333333288,
      "d": 102.5000000000291,
      "v": 77
    },
    {
      "midi": 91,
      "hit": false,
      "t": 257535.83333333288,
      "d": 121.66666666668607,
      "v": 54
    },
    {
      "midi": 82,
      "hit": false,
      "t": 257769.99999999956,
      "d": 89.16666666668607,
      "v": 79
    },
    {
      "midi": 94,
      "hit": false,
      "t": 257773.3333333329,
      "d": 117.5,
      "v": 75
    },
    {
      "midi": 86,
      "hit": false,
      "t": 257776.66666666625,
      "d": 133.33333333331393,
      "v": 61
    },
    {
      "midi": 91,
      "hit": false,
      "t": 257788.3333333329,
      "d": 130,
      "v": 63
    },
    {
      "midi": 91,
      "hit": false,
      "t": 258005.8333333329,
      "d": 141.66666666665697,
      "v": 59
    },
    {
      "midi": 82,
      "hit": false,
      "t": 258014.99999999956,
      "d": 86.66666666668607,
      "v": 105
    },
    {
      "midi": 94,
      "hit": false,
      "t": 258014.99999999956,
      "d": 110.83333333334303,
      "v": 99
    },
    {
      "midi": 50,
      "hit": false,
      "t": 258022.49999999956,
      "d": 78.33333333334303,
      "v": 89
    },
    {
      "midi": 86,
      "hit": false,
      "t": 258022.49999999956,
      "d": 128.33333333334303,
      "v": 69
    },
    {
      "midi": 91,
      "hit": false,
      "t": 258246.66666666625,
      "d": 131.66666666665697,
      "v": 78
    },
    {
      "midi": 82,
      "hit": false,
      "t": 258252.4999999996,
      "d": 80.83333333331393,
      "v": 92
    },
    {
      "midi": 86,
      "hit": false,
      "t": 258252.4999999996,
      "d": 134.9999999999709,
      "v": 73
    },
    {
      "midi": 94,
      "hit": false,
      "t": 258261.66666666625,
      "d": 94.16666666665697,
      "v": 79
    },
    {
      "midi": 43,
      "hit": false,
      "t": 258490.8333333329,
      "d": 81.66666666665697,
      "v": 92
    },
    {
      "midi": 82,
      "hit": false,
      "t": 258494.99999999956,
      "d": 123.33333333334303,
      "v": 95
    },
    {
      "midi": 31,
      "hit": false,
      "t": 258497.49999999956,
      "d": 82.5,
      "v": 95
    },
    {
      "midi": 91,
      "hit": false,
      "t": 258505.8333333329,
      "d": 64.16666666665697,
      "v": 70
    },
    {
      "midi": 94,
      "hit": false,
      "t": 258505.8333333329,
      "d": 89.16666666665697,
      "v": 79
    },
    {
      "midi": 86,
      "hit": false,
      "t": 258515.8333333329,
      "d": 102.5,
      "v": 65
    },
    {
      "midi": 91,
      "hit": false,
      "t": 258742.49999999956,
      "d": 129.16666666665697,
      "v": 74
    },
    {
      "midi": 86,
      "hit": false,
      "t": 258752.49999999956,
      "d": 133.33333333331393,
      "v": 62
    },
    {
      "midi": 82,
      "hit": false,
      "t": 258761.66666666622,
      "d": 80,
      "v": 89
    },
    {
      "midi": 94,
      "hit": false,
      "t": 258761.66666666622,
      "d": 99.16666666665697,
      "v": 89
    },
    {
      "midi": 89,
      "hit": false,
      "t": 258772.49999999956,
      "d": 109.16666666665697,
      "v": 67
    },
    {
      "midi": 41,
      "hit": false,
      "t": 258772.49999999956,
      "d": 499.16666666665697,
      "v": 102
    },
    {
      "midi": 29,
      "hit": false,
      "t": 258772.49999999956,
      "d": 813.333333333343,
      "v": 102
    },
    {
      "midi": 91,
      "hit": false,
      "t": 258991.66666666622,
      "d": 135.83333333334303,
      "v": 62
    },
    {
      "midi": 89,
      "hit": false,
      "t": 258996.66666666622,
      "d": 132.5,
      "v": 54
    },
    {
      "midi": 82,
      "hit": false,
      "t": 259001.66666666622,
      "d": 79.16666666668607,
      "v": 77
    },
    {
      "midi": 94,
      "hit": false,
      "t": 259002.49999999956,
      "d": 113.33333333334303,
      "v": 61
    },
    {
      "midi": 86,
      "hit": false,
      "t": 259009.99999999956,
      "d": 107.5,
      "v": 59
    },
    {
      "midi": 82,
      "hit": false,
      "t": 259235.83333333288,
      "d": 93.33333333334303,
      "v": 77
    },
    {
      "midi": 86,
      "hit": false,
      "t": 259239.99999999953,
      "d": 131.66666666668607,
      "v": 56
    },
    {
      "midi": 89,
      "hit": false,
      "t": 259244.99999999953,
      "d": 140.83333333337214,
      "v": 55
    },
    {
      "midi": 91,
      "hit": false,
      "t": 259247.49999999953,
      "d": 132.5000000000291,
      "v": 66
    },
    {
      "midi": 94,
      "hit": false,
      "t": 259253.33333333288,
      "d": 110.83333333334303,
      "v": 66
    },
    {
      "midi": 89,
      "hit": false,
      "t": 259479.99999999956,
      "d": 147.5,
      "v": 47
    },
    {
      "midi": 82,
      "hit": false,
      "t": 259483.3333333329,
      "d": 104.16666666665697,
      "v": 105
    },
    {
      "midi": 94,
      "hit": false,
      "t": 259491.66666666625,
      "d": 125.83333333331393,
      "v": 78
    },
    {
      "midi": 86,
      "hit": false,
      "t": 259491.66666666625,
      "d": 136.66666666665697,
      "v": 63
    },
    {
      "midi": 91,
      "hit": false,
      "t": 259500.8333333329,
      "d": 125,
      "v": 77
    },
    {
      "midi": 41,
      "hit": false,
      "t": 259502.49999999956,
      "d": 235.83333333337214,
      "v": 105
    },
    {
      "midi": 82,
      "hit": false,
      "t": 259714.16666666625,
      "d": 91.66666666668607,
      "v": 79
    },
    {
      "midi": 94,
      "hit": false,
      "t": 259721.66666666625,
      "d": 118.33333333334303,
      "v": 74
    },
    {
      "midi": 89,
      "hit": false,
      "t": 259724.9999999996,
      "d": 126.66666666665697,
      "v": 55
    },
    {
      "midi": 91,
      "hit": false,
      "t": 259730.83333333294,
      "d": 116.66666666665697,
      "v": 63
    },
    {
      "midi": 86,
      "hit": false,
      "t": 259730.83333333294,
      "d": 122.4999999999709,
      "v": 59
    },
    {
      "midi": 82,
      "hit": false,
      "t": 259956.66666666625,
      "d": 117.5,
      "v": 95
    },
    {
      "midi": 29,
      "hit": false,
      "t": 259963.3333333329,
      "d": 93.33333333334303,
      "v": 95
    },
    {
      "midi": 91,
      "hit": false,
      "t": 259966.66666666625,
      "d": 149.16666666665697,
      "v": 67
    },
    {
      "midi": 94,
      "hit": false,
      "t": 259973.3333333329,
      "d": 122.5,
      "v": 71
    },
    {
      "midi": 89,
      "hit": false,
      "t": 259978.3333333329,
      "d": 133.33333333334303,
      "v": 69
    },
    {
      "midi": 86,
      "hit": false,
      "t": 259981.66666666625,
      "d": 80,
      "v": 65
    },
    {
      "midi": 91,
      "hit": false,
      "t": 260222.4999999996,
      "d": 139.9999999999709,
      "v": 86
    },
    {
      "midi": 82,
      "hit": false,
      "t": 260225.83333333294,
      "d": 105.83333333331393,
      "v": 111
    },
    {
      "midi": 94,
      "hit": false,
      "t": 260234.9999999996,
      "d": 115.83333333331393,
      "v": 89
    },
    {
      "midi": 87,
      "hit": false,
      "t": 260234.9999999996,
      "d": 130.83333333331393,
      "v": 92
    },
    {
      "midi": 24,
      "hit": false,
      "t": 260237.4999999996,
      "d": 413.3333333332848,
      "v": 111
    },
    {
      "midi": 36,
      "hit": false,
      "t": 260246.66666666625,
      "d": 343.3333333332848,
      "v": 108
    },
    {
      "midi": 82,
      "hit": false,
      "t": 260461.66666666622,
      "d": 101.66666666665697,
      "v": 89
    },
    {
      "midi": 87,
      "hit": false,
      "t": 260465.83333333288,
      "d": 130,
      "v": 71
    },
    {
      "midi": 91,
      "hit": false,
      "t": 260469.99999999953,
      "d": 135.83333333334303,
      "v": 71
    },
    {
      "midi": 94,
      "hit": false,
      "t": 260474.99999999953,
      "d": 125,
      "v": 63
    },
    {
      "midi": 82,
      "hit": false,
      "t": 260714.16666666622,
      "d": 93.33333333334303,
      "v": 95
    },
    {
      "midi": 87,
      "hit": false,
      "t": 260719.99999999956,
      "d": 135.83333333334303,
      "v": 79
    },
    {
      "midi": 91,
      "hit": false,
      "t": 260721.66666666622,
      "d": 158.33333333334303,
      "v": 67
    },
    {
      "midi": 94,
      "hit": false,
      "t": 260731.66666666622,
      "d": 119.16666666668607,
      "v": 66
    },
    {
      "midi": 24,
      "hit": false,
      "t": 260968.3333333329,
      "d": 89.16666666665697,
      "v": 105
    },
    {
      "midi": 36,
      "hit": false,
      "t": 260972.49999999956,
      "d": 99.16666666665697,
      "v": 102
    },
    {
      "midi": 82,
      "hit": false,
      "t": 260977.49999999956,
      "d": 89.16666666665697,
      "v": 108
    },
    {
      "midi": 87,
      "hit": false,
      "t": 260982.49999999956,
      "d": 115,
      "v": 89
    },
    {
      "midi": 94,
      "hit": false,
      "t": 260987.49999999956,
      "d": 115.83333333334303,
      "v": 77
    },
    {
      "midi": 91,
      "hit": false,
      "t": 260989.99999999956,
      "d": 131.66666666668607,
      "v": 78
    },
    {
      "midi": 82,
      "hit": false,
      "t": 261209.9999999996,
      "d": 80.0000000000291,
      "v": 95
    },
    {
      "midi": 38,
      "hit": false,
      "t": 261214.9999999996,
      "d": 65.0000000000291,
      "v": 79
    },
    {
      "midi": 91,
      "hit": false,
      "t": 261218.33333333294,
      "d": 127.5000000000291,
      "v": 65
    },
    {
      "midi": 87,
      "hit": false,
      "t": 261221.66666666628,
      "d": 101.66666666668607,
      "v": 79
    },
    {
      "midi": 26,
      "hit": false,
      "t": 261224.99999999962,
      "d": 52.5,
      "v": 83
    },
    {
      "midi": 94,
      "hit": false,
      "t": 261231.66666666628,
      "d": 88.33333333334303,
      "v": 71
    },
    {
      "midi": 39,
      "hit": false,
      "t": 261448.33333333296,
      "d": 93.33333333331393,
      "v": 108
    },
    {
      "midi": 82,
      "hit": false,
      "t": 261452.49999999962,
      "d": 95,
      "v": 99
    },
    {
      "midi": 27,
      "hit": false,
      "t": 261456.66666666628,
      "d": 50,
      "v": 92
    },
    {
      "midi": 87,
      "hit": false,
      "t": 261461.66666666628,
      "d": 135.83333333334303,
      "v": 78
    },
    {
      "midi": 91,
      "hit": false,
      "t": 261465.83333333294,
      "d": 154.16666666668607,
      "v": 71
    },
    {
      "midi": 94,
      "hit": false,
      "t": 261471.66666666628,
      "d": 128.33333333334303,
      "v": 67
    },
    {
      "midi": 82,
      "hit": false,
      "t": 261704.16666666628,
      "d": 118.33333333331393,
      "v": 111
    },
    {
      "midi": 94,
      "hit": false,
      "t": 261713.33333333294,
      "d": 120.83333333331393,
      "v": 79
    },
    {
      "midi": 41,
      "hit": false,
      "t": 261713.33333333294,
      "d": 315.0000000000291,
      "v": 105
    },
    {
      "midi": 29,
      "hit": false,
      "t": 261713.33333333294,
      "d": 352.5000000000291,
      "v": 102
    },
    {
      "midi": 87,
      "hit": false,
      "t": 261729.9999999996,
      "d": 122.5,
      "v": 79
    },
    {
      "midi": 91,
      "hit": false,
      "t": 261729.9999999996,
      "d": 132.5,
      "v": 70
    },
    {
      "midi": 82,
      "hit": false,
      "t": 261935.83333333294,
      "d": 101.66666666668607,
      "v": 92
    },
    {
      "midi": 91,
      "hit": false,
      "t": 261944.16666666628,
      "d": 140.0000000000291,
      "v": 61
    },
    {
      "midi": 87,
      "hit": false,
      "t": 261947.49999999962,
      "d": 119.16666666668607,
      "v": 75
    },
    {
      "midi": 94,
      "hit": false,
      "t": 261957.49999999962,
      "d": 112.5000000000291,
      "v": 75
    },
    {
      "midi": 82,
      "hit": false,
      "t": 262193.33333333296,
      "d": 91.66666666668607,
      "v": 108
    },
    {
      "midi": 87,
      "hit": false,
      "t": 262203.33333333296,
      "d": 107.5,
      "v": 78
    },
    {
      "midi": 91,
      "hit": false,
      "t": 262203.33333333296,
      "d": 130.83333333331393,
      "v": 71
    },
    {
      "midi": 94,
      "hit": false,
      "t": 262205.83333333296,
      "d": 107.5,
      "v": 77
    },
    {
      "midi": 82,
      "hit": false,
      "t": 262441.6666666663,
      "d": 100,
      "v": 111
    },
    {
      "midi": 91,
      "hit": false,
      "t": 262444.9999999996,
      "d": 141.66666666668607,
      "v": 77
    },
    {
      "midi": 29,
      "hit": false,
      "t": 262449.9999999996,
      "d": 161.66666666668607,
      "v": 92
    },
    {
      "midi": 87,
      "hit": false,
      "t": 262454.9999999996,
      "d": 120,
      "v": 86
    },
    {
      "midi": 41,
      "hit": false,
      "t": 262456.6666666663,
      "d": 140.83333333331393,
      "v": 105
    },
    {
      "midi": 94,
      "hit": false,
      "t": 262466.6666666663,
      "d": 100.83333333331393,
      "v": 79
    },
    {
      "midi": 82,
      "hit": false,
      "t": 262690.83333333296,
      "d": 87.5,
      "v": 86
    },
    {
      "midi": 87,
      "hit": false,
      "t": 262693.33333333296,
      "d": 122.5,
      "v": 71
    },
    {
      "midi": 91,
      "hit": false,
      "t": 262698.33333333296,
      "d": 153.33333333331393,
      "v": 70
    },
    {
      "midi": 94,
      "hit": false,
      "t": 262704.99999999965,
      "d": 116.66666666662786,
      "v": 67
    },
    {
      "midi": 91,
      "hit": false,
      "t": 262911.6666666663,
      "d": 167.5,
      "v": 67
    },
    {
      "midi": 82,
      "hit": false,
      "t": 262930.83333333296,
      "d": 100,
      "v": 86
    },
    {
      "midi": 87,
      "hit": false,
      "t": 262934.99999999965,
      "d": 106.66666666662786,
      "v": 66
    },
    {
      "midi": 94,
      "hit": false,
      "t": 262940.83333333296,
      "d": 112.5,
      "v": 75
    },
    {
      "midi": 94,
      "hit": false,
      "t": 263179.9999999996,
      "d": 56.66666666668607,
      "v": 105
    },
    {
      "midi": 86,
      "hit": false,
      "t": 263179.9999999996,
      "d": 85.83333333337214,
      "v": 78
    },
    {
      "midi": 82,
      "hit": false,
      "t": 263179.9999999996,
      "d": 95.00000000005821,
      "v": 92
    },
    {
      "midi": 89,
      "hit": false,
      "t": 263192.4999999996,
      "d": 65.83333333337214,
      "v": 73
    },
    {
      "midi": 46,
      "hit": false,
      "t": 263192.4999999996,
      "d": 155.83333333337214,
      "v": 125
    },
    {
      "midi": 34,
      "hit": false,
      "t": 263192.4999999996,
      "d": 403.33333333337214,
      "v": 114
    },
    {
      "midi": 62,
      "hit": false,
      "t": 263704.99999999965,
      "d": 100,
      "v": 71
    },
    {
      "midi": 58,
      "hit": false,
      "t": 263710.83333333296,
      "d": 75,
      "v": 89
    },
    {
      "midi": 70,
      "hit": false,
      "t": 263714.99999999965,
      "d": 90,
      "v": 78
    },
    {
      "midi": 46,
      "hit": false,
      "t": 263720.83333333296,
      "d": 87.5,
      "v": 111
    },
    {
      "midi": 34,
      "hit": false,
      "t": 263722.49999999965,
      "d": 68.33333333331393,
      "v": 92
    },
    {
      "midi": 70,
      "hit": false,
      "t": 263987.49999999965,
      "d": 172.5,
      "v": 108
    },
    {
      "midi": 63,
      "hit": false,
      "t": 263990.83333333296,
      "d": 197.5,
      "v": 95
    },
    {
      "midi": 58,
      "hit": false,
      "t": 263996.6666666663,
      "d": 121.66666666668607,
      "v": 114
    },
    {
      "midi": 48,
      "hit": false,
      "t": 264001.6666666663,
      "d": 283.33333333331393,
      "v": 108
    },
    {
      "midi": 36,
      "hit": false,
      "t": 264001.6666666663,
      "d": 311.66666666662786,
      "v": 102
    },
    {
      "midi": 58,
      "hit": false,
      "t": 264241.6666666663,
      "d": 119.99999999994179,
      "v": 95
    },
    {
      "midi": 70,
      "hit": false,
      "t": 264487.49999999953,
      "d": 140.83333333337214,
      "v": 78
    },
    {
      "midi": 58,
      "hit": false,
      "t": 264492.49999999953,
      "d": 140.83333333337214,
      "v": 95
    },
    {
      "midi": 48,
      "hit": false,
      "t": 264498.33333333285,
      "d": 98.33333333337214,
      "v": 86
    },
    {
      "midi": 63,
      "hit": false,
      "t": 264498.33333333285,
      "d": 142.5000000000582,
      "v": 79
    },
    {
      "midi": 36,
      "hit": false,
      "t": 264510.83333333285,
      "d": 74.16666666668607,
      "v": 89
    },
    {
      "midi": 37,
      "hit": false,
      "t": 264762.4999999996,
      "d": 292.5000000000582,
      "v": 92
    },
    {
      "midi": 49,
      "hit": false,
      "t": 264767.4999999996,
      "d": 305.0000000000582,
      "v": 108
    },
    {
      "midi": 70,
      "hit": false,
      "t": 264772.4999999996,
      "d": 192.5000000000582,
      "v": 99
    },
    {
      "midi": 58,
      "hit": false,
      "t": 264779.1666666663,
      "d": 94.16666666668607,
      "v": 111
    },
    {
      "midi": 64,
      "hit": false,
      "t": 264779.1666666663,
      "d": 198.33333333337214,
      "v": 73
    },
    {
      "midi": 58,
      "hit": false,
      "t": 265018.33333333296,
      "d": 150.83333333337214,
      "v": 95
    },
    {
      "midi": 58,
      "hit": false,
      "t": 265249.99999999965,
      "d": 131.66666666662786,
      "v": 78
    },
    {
      "midi": 64,
      "hit": false,
      "t": 265254.99999999965,
      "d": 190.83333333331393,
      "v": 75
    },
    {
      "midi": 70,
      "hit": false,
      "t": 265258.33333333296,
      "d": 146.66666666662786,
      "v": 86
    },
    {
      "midi": 49,
      "hit": false,
      "t": 265269.1666666663,
      "d": 152.5,
      "v": 95
    },
    {
      "midi": 37,
      "hit": false,
      "t": 265273.33333333296,
      "d": 136.66666666662786,
      "v": 89
    },
    {
      "midi": 65,
      "hit": false,
      "t": 265529.99999999965,
      "d": 185.83333333337214,
      "v": 78
    },
    {
      "midi": 58,
      "hit": false,
      "t": 265534.99999999965,
      "d": 121.66666666668607,
      "v": 111
    },
    {
      "midi": 50,
      "hit": false,
      "t": 265541.66666666634,
      "d": 221.66666666668607,
      "v": 95
    },
    {
      "midi": 38,
      "hit": false,
      "t": 265541.66666666634,
      "d": 225,
      "v": 95
    },
    {
      "midi": 70,
      "hit": false,
      "t": 265548.333333333,
      "d": 135,
      "v": 95
    },
    {
      "midi": 58,
      "hit": false,
      "t": 265795.833333333,
      "d": 161.66666666668607,
      "v": 99
    },
    {
      "midi": 50,
      "hit": false,
      "t": 266034.1666666664,
      "d": 91.66666666662786,
      "v": 83
    },
    {
      "midi": 38,
      "hit": false,
      "t": 266039.9999999997,
      "d": 87.5,
      "v": 83
    },
    {
      "midi": 70,
      "hit": false,
      "t": 266049.1666666664,
      "d": 125.83333333331393,
      "v": 79
    },
    {
      "midi": 58,
      "hit": false,
      "t": 266051.6666666664,
      "d": 108.33333333331393,
      "v": 86
    },
    {
      "midi": 65,
      "hit": false,
      "t": 266054.9999999997,
      "d": 165,
      "v": 79
    },
    {
      "midi": 58,
      "hit": false,
      "t": 266319.9999999997,
      "d": 139.9999999999418,
      "v": 114
    },
    {
      "midi": 70,
      "hit": false,
      "t": 266327.4999999997,
      "d": 352.4999999999418,
      "v": 92
    },
    {
      "midi": 67,
      "hit": false,
      "t": 266332.4999999997,
      "d": 295.8333333332557,
      "v": 74
    },
    {
      "midi": 63,
      "hit": false,
      "t": 266338.333333333,
      "d": 244.9999999999418,
      "v": 77
    },
    {
      "midi": 46,
      "hit": false,
      "t": 266341.66666666634,
      "d": 1106.6666666665114,
      "v": 92
    },
    {
      "midi": 51,
      "hit": false,
      "t": 266347.49999999965,
      "d": 744.1666666666279,
      "v": 92
    },
    {
      "midi": 39,
      "hit": false,
      "t": 266351.66666666634,
      "d": 990.8333333332557,
      "v": 92
    },
    {
      "midi": 58,
      "hit": false,
      "t": 266625.83333333296,
      "d": 195,
      "v": 95
    },
    {
      "midi": 63,
      "hit": false,
      "t": 266881.6666666663,
      "d": 228.33333333331393,
      "v": 95
    },
    {
      "midi": 67,
      "hit": false,
      "t": 267154.9999999996,
      "d": 380.8333333332557,
      "v": 78
    },
    {
      "midi": 51,
      "hit": false,
      "t": 267194.1666666663,
      "d": 201.66666666662786,
      "v": 92
    },
    {
      "midi": 58,
      "hit": false,
      "t": 267414.1666666662,
      "d": 100.83333333331393,
      "v": 95
    },
    {
      "midi": 70,
      "hit": false,
      "t": 267417.49999999953,
      "d": 105,
      "v": 86
    },
    {
      "midi": 63,
      "hit": false,
      "t": 267422.49999999953,
      "d": 129.16666666662786,
      "v": 78
    },
    {
      "midi": 51,
      "hit": false,
      "t": 267655.83333333285,
      "d": 142.5,
      "v": 92
    },
    {
      "midi": 39,
      "hit": false,
      "t": 267665.83333333285,
      "d": 80.83333333331393,
      "v": 78
    },
    {
      "midi": 46,
      "hit": false,
      "t": 267670.83333333285,
      "d": 149.16666666668607,
      "v": 89
    },
    {
      "midi": 64,
      "hit": false,
      "t": 267964.99999999953,
      "d": 276.66666666668607,
      "v": 79
    },
    {
      "midi": 58,
      "hit": false,
      "t": 267969.99999999953,
      "d": 255,
      "v": 108
    },
    {
      "midi": 61,
      "hit": false,
      "t": 267972.49999999953,
      "d": 262.5,
      "v": 92
    },
    {
      "midi": 55,
      "hit": false,
      "t": 267978.33333333285,
      "d": 165,
      "v": 95
    },
    {
      "midi": 67,
      "hit": false,
      "t": 267980.83333333285,
      "d": 246.66666666668607,
      "v": 86
    },
    {
      "midi": 40,
      "hit": false,
      "t": 267987.49999999953,
      "d": 1236.666666666686,
      "v": 75
    },
    {
      "midi": 46,
      "hit": false,
      "t": 267989.99999999953,
      "d": 1280.0000000000582,
      "v": 79
    },
    {
      "midi": 49,
      "hit": false,
      "t": 267992.49999999953,
      "d": 517.5,
      "v": 89
    },
    {
      "midi": 55,
      "hit": false,
      "t": 268277.49999999953,
      "d": 224.16666666668607,
      "v": 92
    },
    {
      "midi": 58,
      "hit": false,
      "t": 268547.49999999953,
      "d": 209.16666666668607,
      "v": 105
    },
    {
      "midi": 61,
      "hit": false,
      "t": 268827.49999999953,
      "d": 204.16666666668607,
      "v": 95
    },
    {
      "midi": 49,
      "hit": false,
      "t": 268834.99999999953,
      "d": 418.33333333337214,
      "v": 95
    },
    {
      "midi": 61,
      "hit": false,
      "t": 269101.6666666662,
      "d": 155.83333333337214,
      "v": 67
    },
    {
      "midi": 58,
      "hit": false,
      "t": 269108.3333333329,
      "d": 98.33333333331393,
      "v": 78
    },
    {
      "midi": 64,
      "hit": false,
      "t": 269121.6666666662,
      "d": 295.0000000000582,
      "v": 73
    },
    {
      "midi": 67,
      "hit": false,
      "t": 269369.9999999996,
      "d": 105.00000000005821,
      "v": 92
    },
    {
      "midi": 55,
      "hit": false,
      "t": 269374.9999999996,
      "d": 60.83333333337214,
      "v": 95
    },
    {
      "midi": 58,
      "hit": false,
      "t": 269379.9999999996,
      "d": 46.66666666668607,
      "v": 89
    },
    {
      "midi": 46,
      "hit": false,
      "t": 269674.99999999965,
      "d": 620.8333333333139,
      "v": 111
    },
    {
      "midi": 53,
      "hit": false,
      "t": 269679.99999999965,
      "d": 450,
      "v": 99
    },
    {
      "midi": 62,
      "hit": false,
      "t": 269683.33333333296,
      "d": 271.66666666668607,
      "v": 77
    },
    {
      "midi": 65,
      "hit": false,
      "t": 269687.49999999965,
      "d": 285,
      "v": 77
    },
    {
      "midi": 58,
      "hit": false,
      "t": 269693.33333333296,
      "d": 152.5,
      "v": 111
    },
    {
      "midi": 70,
      "hit": false,
      "t": 269695.83333333296,
      "d": 199.16666666668607,
      "v": 95
    },
    {
      "midi": 58,
      "hit": false,
      "t": 269995.83333333296,
      "d": 109.16666666668607,
      "v": 105
    },
    {
      "midi": 58,
      "hit": false,
      "t": 270284.99999999965,
      "d": 68.33333333331393,
      "v": 92
    },
    {
      "midi": 62,
      "hit": false,
      "t": 270288.33333333296,
      "d": 115.83333333331393,
      "v": 69
    },
    {
      "midi": 70,
      "hit": false,
      "t": 270290.83333333296,
      "d": 100.83333333331393,
      "v": 78
    },
    {
      "midi": 65,
      "hit": false,
      "t": 270295.83333333296,
      "d": 104.16666666662786,
      "v": 70
    },
    {
      "midi": 54,
      "hit": false,
      "t": 270615.83333333296,
      "d": 364.16666666662786,
      "v": 105
    },
    {
      "midi": 45,
      "hit": false,
      "t": 270622.49999999965,
      "d": 409.16666666662786,
      "v": 83
    },
    {
      "midi": 60,
      "hit": false,
      "t": 270628.33333333296,
      "d": 207.5,
      "v": 105
    },
    {
      "midi": 66,
      "hit": false,
      "t": 270633.33333333296,
      "d": 293.33333333331393,
      "v": 95
    },
    {
      "midi": 62,
      "hit": false,
      "t": 270639.99999999965,
      "d": 299.9999999999418,
      "v": 83
    },
    {
      "midi": 69,
      "hit": false,
      "t": 270641.66666666634,
      "d": 264.16666666662786,
      "v": 86
    },
    {
      "midi": 60,
      "hit": false,
      "t": 270960.8333333329,
      "d": 120.83333333337214,
      "v": 89
    },
    {
      "midi": 66,
      "hit": false,
      "t": 271252.4999999996,
      "d": 94.16666666668607,
      "v": 89
    },
    {
      "midi": 60,
      "hit": false,
      "t": 271256.6666666663,
      "d": 75.83333333337214,
      "v": 95
    },
    {
      "midi": 69,
      "hit": false,
      "t": 271260.83333333296,
      "d": 80,
      "v": 79
    },
    {
      "midi": 62,
      "hit": false,
      "t": 271260.83333333296,
      "d": 92.5,
      "v": 79
    },
    {
      "midi": 44,
      "hit": false,
      "t": 271267.49999999965,
      "d": 80.83333333331393,
      "v": 105
    },
    {
      "midi": 32,
      "hit": false,
      "t": 271267.49999999965,
      "d": 85.83333333331393,
      "v": 86
    },
    {
      "midi": 67,
      "hit": false,
      "t": 271610.83333333296,
      "d": 354.1666666667443,
      "v": 77
    },
    {
      "midi": 58,
      "hit": false,
      "t": 271614.99999999965,
      "d": 206.66666666668607,
      "v": 111
    },
    {
      "midi": 62,
      "hit": false,
      "t": 271618.33333333296,
      "d": 303.33333333337214,
      "v": 78
    },
    {
      "midi": 70,
      "hit": false,
      "t": 271621.6666666663,
      "d": 292.5000000000582,
      "v": 89
    },
    {
      "midi": 43,
      "hit": false,
      "t": 271625.83333333296,
      "d": 1031.6666666667443,
      "v": 99
    },
    {
      "midi": 31,
      "hit": false,
      "t": 271630.83333333296,
      "d": 1059.1666666667443,
      "v": 102
    },
    {
      "midi": 58,
      "hit": false,
      "t": 271953.333333333,
      "d": 183.33333333337214,
      "v": 92
    },
    {
      "midi": 62,
      "hit": false,
      "t": 272254.9999999997,
      "d": 140,
      "v": 77
    },
    {
      "midi": 58,
      "hit": false,
      "t": 272580.833333333,
      "d": 145.83333333337214,
      "v": 111
    },
    {
      "midi": 62,
      "hit": false,
      "t": 272583.333333333,
      "d": 245.0000000000582,
      "v": 77
    },
    {
      "midi": 70,
      "hit": false,
      "t": 272587.4999999997,
      "d": 168.33333333337214,
      "v": 79
    },
    {
      "midi": 67,
      "hit": false,
      "t": 272587.4999999997,
      "d": 434.16666666668607,
      "v": 74
    },
    {
      "midi": 58,
      "hit": false,
      "t": 272886.6666666664,
      "d": 136.66666666668607,
      "v": 114
    },
    {
      "midi": 38,
      "hit": false,
      "t": 272899.9999999997,
      "d": 75.83333333337214,
      "v": 86
    },
    {
      "midi": 26,
      "hit": false,
      "t": 272904.9999999997,
      "d": 66.66666666668607,
      "v": 92
    },
    {
      "midi": 62,
      "hit": false,
      "t": 273195.8333333331,
      "d": 80,
      "v": 69
    },
    {
      "midi": 37,
      "hit": false,
      "t": 273221.6666666664,
      "d": 68.33333333337214,
      "v": 107
    },
    {
      "midi": 25,
      "hit": false,
      "t": 273225.8333333331,
      "d": 61.66666666668607,
      "v": 98
    },
    {
      "midi": 30,
      "hit": false,
      "t": 273368.3333333331,
      "d": 57.5,
      "v": 45
    },
    {
      "midi": 70,
      "hit": false,
      "t": 273566.6666666664,
      "d": 268.33333333331393,
      "v": 78
    },
    {
      "midi": 60,
      "hit": false,
      "t": 273570.8333333331,
      "d": 379.16666666662786,
      "v": 83
    },
    {
      "midi": 58,
      "hit": false,
      "t": 273575.8333333331,
      "d": 205,
      "v": 108
    },
    {
      "midi": 64,
      "hit": false,
      "t": 273577.49999999977,
      "d": 417.4999999999418,
      "v": 75
    },
    {
      "midi": 24,
      "hit": false,
      "t": 273598.3333333331,
      "d": 317.4999999999418,
      "v": 102
    },
    {
      "midi": 67,
      "hit": false,
      "t": 273598.3333333331,
      "d": 371.66666666662786,
      "v": 71
    },
    {
      "midi": 36,
      "hit": false,
      "t": 273598.3333333331,
      "d": 399.9999999999418,
      "v": 108
    },
    {
      "midi": 58,
      "hit": false,
      "t": 273980.833333333,
      "d": 135,
      "v": 114
    },
    {
      "midi": 60,
      "hit": false,
      "t": 274303.333333333,
      "d": 146.66666666668607,
      "v": 92
    },
    {
      "midi": 60,
      "hit": false,
      "t": 274629.1666666664,
      "d": 452.5,
      "v": 83
    },
    {
      "midi": 67,
      "hit": false,
      "t": 274632.4999999997,
      "d": 355.83333333337214,
      "v": 71
    },
    {
      "midi": 70,
      "hit": false,
      "t": 274636.6666666664,
      "d": 245,
      "v": 77
    },
    {
      "midi": 58,
      "hit": false,
      "t": 274639.9999999997,
      "d": 155.83333333331393,
      "v": 111
    },
    {
      "midi": 48,
      "hit": false,
      "t": 274643.333333333,
      "d": 196.66666666668607,
      "v": 105
    },
    {
      "midi": 64,
      "hit": false,
      "t": 274643.333333333,
      "d": 538.3333333333721,
      "v": 71
    },
    {
      "midi": 58,
      "hit": false,
      "t": 275016.6666666664,
      "d": 160.83333333331393,
      "v": 111
    },
    {
      "midi": 60,
      "hit": false,
      "t": 275328.3333333331,
      "d": 99.16666666668607,
      "v": 86
    },
    {
      "midi": 36,
      "hit": false,
      "t": 275359.99999999977,
      "d": 93.33333333331393,
      "v": 56
    },
    {
      "midi": 38,
      "hit": false,
      "t": 275361.66666666645,
      "d": 116.66666666662786,
      "v": 56
    },
    {
      "midi": 39,
      "hit": false,
      "t": 275475.8333333331,
      "d": 60,
      "v": 78
    },
    {
      "midi": 40,
      "hit": false,
      "t": 275545.8333333331,
      "d": 76.66666666668607,
      "v": 79
    },
    {
      "midi": 63,
      "hit": false,
      "t": 275666.66666666645,
      "d": 522.5,
      "v": 99
    },
    {
      "midi": 58,
      "hit": false,
      "t": 275670.83333333314,
      "d": 287.5,
      "v": 114
    },
    {
      "midi": 70,
      "hit": false,
      "t": 275679.9999999998,
      "d": 537.4999999999418,
      "v": 89
    },
    {
      "midi": 67,
      "hit": false,
      "t": 275679.9999999998,
      "d": 574.9999999999418,
      "v": 77
    },
    {
      "midi": 41,
      "hit": false,
      "t": 275687.4999999998,
      "d": 429.9999999999418,
      "v": 105
    },
    {
      "midi": 29,
      "hit": false,
      "t": 276065.83333333314,
      "d": 409.16666666656965,
      "v": 102
    },
    {
      "midi": 58,
      "hit": false,
      "t": 276071.66666666645,
      "d": 155,
      "v": 111
    },
    {
      "midi": 67,
      "hit": false,
      "t": 276419.99999999977,
      "d": 149.9999999999418,
      "v": 59
    },
    {
      "midi": 63,
      "hit": false,
      "t": 276423.3333333331,
      "d": 125.83333333331393,
      "v": 89
    },
    {
      "midi": 58,
      "hit": false,
      "t": 276427.49999999977,
      "d": 68.33333333325572,
      "v": 99
    },
    {
      "midi": 70,
      "hit": false,
      "t": 276430.8333333331,
      "d": 106.66666666662786,
      "v": 78
    },
    {
      "midi": 41,
      "hit": false,
      "t": 276436.6666666664,
      "d": 83.33333333331393,
      "v": 102
    },
    {
      "midi": 63,
      "hit": false,
      "t": 276796.6666666664,
      "d": 333.33333333331393,
      "v": 99
    },
    {
      "midi": 69,
      "hit": false,
      "t": 276799.9999999997,
      "d": 281.66666666668607,
      "v": 86
    },
    {
      "midi": 57,
      "hit": false,
      "t": 276804.9999999997,
      "d": 215,
      "v": 99
    },
    {
      "midi": 65,
      "hit": false,
      "t": 276806.6666666664,
      "d": 334.16666666662786,
      "v": 92
    },
    {
      "midi": 51,
      "hit": false,
      "t": 276813.3333333331,
      "d": 454.16666666662786,
      "v": 99
    },
    {
      "midi": 41,
      "hit": false,
      "t": 276814.99999999977,
      "d": 508.33333333331393,
      "v": 73
    },
    {
      "midi": 57,
      "hit": false,
      "t": 277162.4999999997,
      "d": 156.66666666668607,
      "v": 99
    },
    {
      "midi": 63,
      "hit": false,
      "t": 277492.49999999977,
      "d": 88.33333333331393,
      "v": 89
    },
    {
      "midi": 57,
      "hit": false,
      "t": 277498.3333333331,
      "d": 62.5,
      "v": 99
    },
    {
      "midi": 69,
      "hit": false,
      "t": 277498.3333333331,
      "d": 102.5,
      "v": 77
    },
    {
      "midi": 65,
      "hit": false,
      "t": 277517.49999999977,
      "d": 90.83333333331393,
      "v": 92
    },
    {
      "midi": 22,
      "hit": false,
      "t": 277874.99999999977,
      "d": 320.83333333337214,
      "v": 108
    },
    {
      "midi": 58,
      "hit": false,
      "t": 277879.99999999977,
      "d": 343.33333333337214,
      "v": 114
    },
    {
      "midi": 34,
      "hit": false,
      "t": 277881.66666666645,
      "d": 355,
      "v": 117
    },
    {
      "midi": 70,
      "hit": false,
      "t": 277884.99999999977,
      "d": 445.83333333331393,
      "v": 92
    },
    {
      "midi": 62,
      "hit": false,
      "t": 277894.99999999977,
      "d": 376.66666666668607,
      "v": 78
    },
    {
      "midi": 65,
      "hit": false,
      "t": 277894.99999999977,
      "d": 415,
      "v": 86
    },
    {
      "midi": 56,
      "hit": false,
      "t": 278877.49999999977,
      "d": 1008.3333333333139,
      "v": 99
    },
    {
      "midi": 65,
      "hit": false,
      "t": 278884.16666666645,
      "d": 361.66666666662786,
      "v": 111
    },
    {
      "midi": 58,
      "hit": false,
      "t": 278884.16666666645,
      "d": 601.6666666666279,
      "v": 95
    },
    {
      "midi": 70,
      "hit": false,
      "t": 279237.49999999977,
      "d": 263.33333333331393,
      "v": 86
    },
    {
      "midi": 65,
      "hit": false,
      "t": 279557.49999999977,
      "d": 351.66666666662786,
      "v": 89
    },
    {
      "midi": 58,
      "hit": false,
      "t": 279929.9999999997,
      "d": 771.6666666666861,
      "v": 95
    },
    {
      "midi": 55,
      "hit": false,
      "t": 279934.9999999997,
      "d": 781.6666666666861,
      "v": 75
    },
    {
      "midi": 64,
      "hit": false,
      "t": 279938.333333333,
      "d": 381.66666666668607,
      "v": 102
    },
    {
      "midi": 70,
      "hit": false,
      "t": 280273.333333333,
      "d": 324.16666666668607,
      "v": 74
    },
    {
      "midi": 64,
      "hit": false,
      "t": 280595.833333333,
      "d": 181.66666666668607,
      "v": 78
    },
    {
      "midi": 58,
      "hit": false,
      "t": 280959.1666666664,
      "d": 685.8333333333139,
      "v": 95
    },
    {
      "midi": 63,
      "hit": false,
      "t": 280964.9999999997,
      "d": 356.66666666668607,
      "v": 105
    },
    {
      "midi": 54,
      "hit": false,
      "t": 280969.9999999997,
      "d": 845,
      "v": 86
    },
    {
      "midi": 70,
      "hit": false,
      "t": 281294.9999999997,
      "d": 345.83333333331393,
      "v": 69
    },
    {
      "midi": 63,
      "hit": false,
      "t": 281614.9999999997,
      "d": 310,
      "v": 78
    },
    {
      "midi": 58,
      "hit": false,
      "t": 281975.833333333,
      "d": 101.66666666668607,
      "v": 105
    },
    {
      "midi": 62,
      "hit": false,
      "t": 281981.66666666634,
      "d": 108.33333333337214,
      "v": 95
    },
    {
      "midi": 53,
      "hit": false,
      "t": 281981.66666666634,
      "d": 128.33333333337214,
      "v": 83
    },
    {
      "midi": 65,
      "hit": false,
      "t": 282971.66666666634,
      "d": 278.33333333331393,
      "v": 92
    },
    {
      "midi": 61,
      "hit": false,
      "t": 282974.99999999965,
      "d": 235,
      "v": 95
    },
    {
      "midi": 63,
      "hit": false,
      "t": 282974.99999999965,
      "d": 265.83333333331393,
      "v": 95
    },
    {
      "midi": 57,
      "hit": false,
      "t": 282977.49999999965,
      "d": 216.66666666668607,
      "v": 99
    },
    {
      "midi": 51,
      "hit": false,
      "t": 282985.83333333296,
      "d": 129.16666666668607,
      "v": 105
    },
    {
      "midi": 53,
      "hit": false,
      "t": 282985.83333333296,
      "d": 165,
      "v": 105
    },
    {
      "midi": 41,
      "hit": false,
      "t": 282985.83333333296,
      "d": 184.16666666668607,
      "v": 89
    },
    {
      "midi": 48,
      "hit": false,
      "t": 282994.99999999965,
      "d": 163.33333333331393,
      "v": 89
    },
    {
      "midi": 56,
      "hit": false,
      "t": 284031.66666666634,
      "d": 858.3333333332557,
      "v": 114
    },
    {
      "midi": 67,
      "hit": false,
      "t": 284033.333333333,
      "d": 819.1666666665697,
      "v": 78
    },
    {
      "midi": 22,
      "hit": false,
      "t": 284036.66666666634,
      "d": 379.9999999999418,
      "v": 95
    },
    {
      "midi": 60,
      "hit": false,
      "t": 284039.99999999965,
      "d": 841.6666666666279,
      "v": 83
    },
    {
      "midi": 62,
      "hit": false,
      "t": 284039.99999999965,
      "d": 844.9999999999418,
      "v": 75
    },
    {
      "midi": 65,
      "hit": false,
      "t": 284043.33333333296,
      "d": 821.6666666666279,
      "v": 77
    },
    {
      "midi": 34,
      "hit": false,
      "t": 284050.83333333296,
      "d": 409.16666666662786,
      "v": 111
    },
    {
      "midi": 46,
      "hit": false,
      "t": 284903.3333333329,
      "d": 87.5,
      "v": 51
    },
    {
      "midi": 53,
      "hit": false,
      "t": 285019.9999999996,
      "d": 55,
      "v": 46
    },
    {
      "midi": 46,
      "hit": false,
      "t": 285120.8333333329,
      "d": 91.66666666668607,
      "v": 66
    },
    {
      "midi": 53,
      "hit": false,
      "t": 285207.4999999996,
      "d": 70.83333333331393,
      "v": 66
    },
    {
      "midi": 46,
      "hit": false,
      "t": 285243.3333333329,
      "d": 33.33333333331393,
      "v": 31
    },
    {
      "midi": 56,
      "hit": false,
      "t": 285274.1666666662,
      "d": 111.66666666668607,
      "v": 56
    },
    {
      "midi": 60,
      "hit": false,
      "t": 285335.8333333329,
      "d": 220,
      "v": 62
    },
    {
      "midi": 62,
      "hit": false,
      "t": 285389.9999999996,
      "d": 197.5,
      "v": 54
    },
    {
      "midi": 65,
      "hit": false,
      "t": 285457.4999999996,
      "d": 165,
      "v": 52
    },
    {
      "midi": 67,
      "hit": false,
      "t": 285611.6666666663,
      "d": 37.5,
      "v": 46
    },
    {
      "midi": 58,
      "hit": false,
      "t": 285634.9999999996,
      "d": 142.5,
      "v": 49
    },
    {
      "midi": 65,
      "hit": false,
      "t": 285736.6666666663,
      "d": 58.33333333331393,
      "v": 69
    },
    {
      "midi": 68,
      "hit": false,
      "t": 285837.4999999996,
      "d": 42.5,
      "v": 56
    },
    {
      "midi": 72,
      "hit": false,
      "t": 285903.3333333329,
      "d": 192.5,
      "v": 59
    },
    {
      "midi": 74,
      "hit": false,
      "t": 285967.4999999996,
      "d": 150,
      "v": 45
    },
    {
      "midi": 77,
      "hit": false,
      "t": 286043.3333333329,
      "d": 138.33333333331393,
      "v": 46
    },
    {
      "midi": 79,
      "hit": false,
      "t": 286069.9999999996,
      "d": 117.49999999994179,
      "v": 57
    },
    {
      "midi": 70,
      "hit": false,
      "t": 286165.8333333329,
      "d": 582.4999999999418,
      "v": 56
    },
    {
      "midi": 77,
      "hit": false,
      "t": 286292.49999999953,
      "d": 490.83333333331393,
      "v": 61
    },
    {
      "midi": 80,
      "hit": false,
      "t": 286429.99999999953,
      "d": 310.83333333331393,
      "v": 38
    },
    {
      "midi": 84,
      "hit": false,
      "t": 286500.83333333285,
      "d": 290.83333333337214,
      "v": 47
    },
    {
      "midi": 86,
      "hit": false,
      "t": 286569.99999999953,
      "d": 253.33333333337214,
      "v": 42
    },
    {
      "midi": 89,
      "hit": false,
      "t": 286669.99999999953,
      "d": 186.66666666668607,
      "v": 42
    },
    {
      "midi": 91,
      "hit": false,
      "t": 286787.49999999953,
      "d": 160.83333333331393,
      "v": 56
    },
    {
      "midi": 70,
      "hit": false,
      "t": 286889.1666666662,
      "d": 33.33333333331393,
      "v": 30
    },
    {
      "midi": 80,
      "hit": false,
      "t": 286975.83333333285,
      "d": 79.16666666668607,
      "v": 47
    },
    {
      "midi": 77,
      "hit": false,
      "t": 286991.66666666616,
      "d": 44.16666666668607,
      "v": 50
    },
    {
      "midi": 84,
      "hit": false,
      "t": 287084.99999999953,
      "d": 55.83333333331393,
      "v": 36
    },
    {
      "midi": 80,
      "hit": false,
      "t": 287193.33333333285,
      "d": 59.16666666662786,
      "v": 63
    },
    {
      "midi": 70,
      "hit": false,
      "t": 287249.16666666616,
      "d": 28.33333333331393,
      "v": 39
    },
    {
      "midi": 80,
      "hit": false,
      "t": 287347.4999999995,
      "d": 76.66666666668607,
      "v": 75
    },
    {
      "midi": 70,
      "hit": false,
      "t": 287364.9999999995,
      "d": 60.83333333337214,
      "v": 61
    },
    {
      "midi": 86,
      "hit": false,
      "t": 287437.49999999953,
      "d": 44.16666666662786,
      "v": 36
    },
    {
      "midi": 89,
      "hit": false,
      "t": 287450.83333333285,
      "d": 51.66666666662786,
      "v": 39
    },
    {
      "midi": 80,
      "hit": false,
      "t": 287486.66666666616,
      "d": 91.66666666668607,
      "v": 62
    },
    {
      "midi": 70,
      "hit": false,
      "t": 287517.4999999995,
      "d": 53.33333333337214,
      "v": 59
    },
    {
      "midi": 86,
      "hit": false,
      "t": 287556.66666666616,
      "d": 88.33333333337214,
      "v": 43
    },
    {
      "midi": 89,
      "hit": false,
      "t": 287590.83333333285,
      "d": 54.16666666668607,
      "v": 49
    },
    {
      "midi": 80,
      "hit": false,
      "t": 287640.83333333285,
      "d": 96.66666666662786,
      "v": 61
    },
    {
      "midi": 77,
      "hit": false,
      "t": 287654.1666666662,
      "d": 23.33333333331393,
      "v": 26
    },
    {
      "midi": 70,
      "hit": false,
      "t": 287657.49999999953,
      "d": 50.83333333331393,
      "v": 59
    },
    {
      "midi": 84,
      "hit": false,
      "t": 287708.33333333285,
      "d": 51.66666666662786,
      "v": 45
    },
    {
      "midi": 86,
      "hit": false,
      "t": 287731.66666666616,
      "d": 55,
      "v": 39
    },
    {
      "midi": 77,
      "hit": false,
      "t": 287762.4999999995,
      "d": 58.33333333337214,
      "v": 43
    },
    {
      "midi": 70,
      "hit": false,
      "t": 287789.9999999995,
      "d": 55.83333333337214,
      "v": 55
    },
    {
      "midi": 80,
      "hit": false,
      "t": 287796.66666666616,
      "d": 90,
      "v": 59
    },
    {
      "midi": 84,
      "hit": false,
      "t": 287842.49999999953,
      "d": 61.66666666662786,
      "v": 41
    },
    {
      "midi": 86,
      "hit": false,
      "t": 287876.66666666616,
      "d": 59.16666666662786,
      "v": 27
    },
    {
      "midi": 77,
      "hit": false,
      "t": 287907.4999999995,
      "d": 48.33333333331393,
      "v": 38
    },
    {
      "midi": 70,
      "hit": false,
      "t": 287930.8333333328,
      "d": 50.83333333331393,
      "v": 63
    },
    {
      "midi": 80,
      "hit": false,
      "t": 287949.9999999995,
      "d": 92.49999999994179,
      "v": 60
    },
    {
      "midi": 84,
      "hit": false,
      "t": 288006.6666666661,
      "d": 56.66666666662786,
      "v": 15
    },
    {
      "midi": 77,
      "hit": false,
      "t": 288034.9999999994,
      "d": 55,
      "v": 44
    },
    {
      "midi": 86,
      "hit": false,
      "t": 288042.4999999994,
      "d": 56.66666666668607,
      "v": 30
    },
    {
      "midi": 70,
      "hit": false,
      "t": 288058.33333333273,
      "d": 62.50000000005821,
      "v": 62
    },
    {
      "midi": 80,
      "hit": false,
      "t": 288101.6666666661,
      "d": 88.33333333337214,
      "v": 59
    },
    {
      "midi": 84,
      "hit": false,
      "t": 288143.3333333328,
      "d": 62.5,
      "v": 45
    },
    {
      "midi": 77,
      "hit": false,
      "t": 288174.9999999995,
      "d": 47.5,
      "v": 42
    },
    {
      "midi": 86,
      "hit": false,
      "t": 288179.9999999995,
      "d": 64.16666666668607,
      "v": 42
    },
    {
      "midi": 70,
      "hit": false,
      "t": 288192.4999999995,
      "d": 70.83333333337214,
      "v": 69
    },
    {
      "midi": 80,
      "hit": false,
      "t": 288258.33333333285,
      "d": 80,
      "v": 51
    },
    {
      "midi": 84,
      "hit": false,
      "t": 288282.49999999953,
      "d": 74.16666666662786,
      "v": 49
    },
    {
      "midi": 77,
      "hit": false,
      "t": 288322.49999999953,
      "d": 50.83333333331393,
      "v": 54
    },
    {
      "midi": 70,
      "hit": false,
      "t": 288345.83333333285,
      "d": 59.16666666668607,
      "v": 59
    },
    {
      "midi": 86,
      "hit": false,
      "t": 288350.83333333285,
      "d": 56.66666666668607,
      "v": 43
    },
    {
      "midi": 80,
      "hit": false,
      "t": 288413.33333333285,
      "d": 88.33333333337214,
      "v": 61
    },
    {
      "midi": 84,
      "hit": false,
      "t": 288442.49999999953,
      "d": 82.5,
      "v": 50
    },
    {
      "midi": 77,
      "hit": false,
      "t": 288460.83333333285,
      "d": 51.66666666668607,
      "v": 43
    },
    {
      "midi": 70,
      "hit": false,
      "t": 288494.99999999953,
      "d": 58.33333333331393,
      "v": 61
    },
    {
      "midi": 86,
      "hit": false,
      "t": 288537.49999999953,
      "d": 52.5,
      "v": 39
    },
    {
      "midi": 80,
      "hit": false,
      "t": 288577.49999999953,
      "d": 85.83333333337214,
      "v": 62
    },
    {
      "midi": 77,
      "hit": false,
      "t": 288596.6666666662,
      "d": 61.66666666668607,
      "v": 45
    },
    {
      "midi": 84,
      "hit": false,
      "t": 288611.6666666662,
      "d": 69.16666666668607,
      "v": 47
    },
    {
      "midi": 70,
      "hit": false,
      "t": 288635.8333333329,
      "d": 50.83333333331393,
      "v": 52
    },
    {
      "midi": 86,
      "hit": false,
      "t": 288670.8333333329,
      "d": 71.66666666662786,
      "v": 39
    },
    {
      "midi": 80,
      "hit": false,
      "t": 288737.49999999953,
      "d": 89.16666666656965,
      "v": 55
    },
    {
      "midi": 77,
      "hit": false,
      "t": 288745.83333333285,
      "d": 59.99999999994179,
      "v": 42
    },
    {
      "midi": 84,
      "hit": false,
      "t": 288756.66666666616,
      "d": 90.83333333331393,
      "v": 46
    },
    {
      "midi": 70,
      "hit": false,
      "t": 288782.4999999995,
      "d": 29.16666666662786,
      "v": 31
    },
    {
      "midi": 86,
      "hit": false,
      "t": 288830.8333333328,
      "d": 90.00000000005821,
      "v": 40
    },
    {
      "midi": 89,
      "hit": false,
      "t": 288876.66666666616,
      "d": 37.5,
      "v": 39
    },
    {
      "midi": 70,
      "hit": false,
      "t": 288896.66666666616,
      "d": 31.66666666668607,
      "v": 62
    },
    {
      "midi": 80,
      "hit": false,
      "t": 288914.16666666616,
      "d": 80.83333333337214,
      "v": 47
    },
    {
      "midi": 84,
      "hit": false,
      "t": 288922.49999999953,
      "d": 85,
      "v": 45
    },
    {
      "midi": 86,
      "hit": false,
      "t": 288987.49999999953,
      "d": 100,
      "v": 47
    },
    {
      "midi": 70,
      "hit": false,
      "t": 289016.6666666662,
      "d": 92.5,
      "v": 63
    },
    {
      "midi": 80,
      "hit": false,
      "t": 289075.8333333329,
      "d": 84.99999999994179,
      "v": 52
    },
    {
      "midi": 84,
      "hit": false,
      "t": 289081.6666666662,
      "d": 95.83333333331393,
      "v": 49
    },
    {
      "midi": 86,
      "hit": false,
      "t": 289157.49999999953,
      "d": 84.16666666668607,
      "v": 46
    },
    {
      "midi": 80,
      "hit": false,
      "t": 289239.99999999953,
      "d": 81.66666666668607,
      "v": 51
    },
    {
      "midi": 84,
      "hit": false,
      "t": 289266.6666666662,
      "d": 73.33333333337214,
      "v": 44
    },
    {
      "midi": 86,
      "hit": false,
      "t": 289323.3333333329,
      "d": 62.5,
      "v": 40
    },
    {
      "midi": 80,
      "hit": false,
      "t": 289393.3333333329,
      "d": 84.16666666668607,
      "v": 49
    },
    {
      "midi": 84,
      "hit": false,
      "t": 289425.8333333329,
      "d": 69.16666666668607,
      "v": 31
    },
    {
      "midi": 86,
      "hit": false,
      "t": 289480.8333333329,
      "d": 60.83333333337214,
      "v": 25
    },
    {
      "midi": 80,
      "hit": false,
      "t": 289544.9999999996,
      "d": 77.5,
      "v": 47
    },
    {
      "midi": 84,
      "hit": false,
      "t": 289564.9999999996,
      "d": 65,
      "v": 47
    },
    {
      "midi": 86,
      "hit": false,
      "t": 289607.4999999996,
      "d": 60.83333333331393,
      "v": 47
    },
    {
      "midi": 80,
      "hit": false,
      "t": 289687.4999999996,
      "d": 85,
      "v": 54
    },
    {
      "midi": 84,
      "hit": false,
      "t": 289706.6666666663,
      "d": 71.66666666662786,
      "v": 45
    },
    {
      "midi": 80,
      "hit": false,
      "t": 289830.8333333329,
      "d": 76.66666666668607,
      "v": 52
    },
    {
      "midi": 84,
      "hit": false,
      "t": 289854.9999999996,
      "d": 57.5,
      "v": 57
    },
    {
      "midi": 86,
      "hit": false,
      "t": 289884.9999999996,
      "d": 65,
      "v": 42
    },
    {
      "midi": 80,
      "hit": false,
      "t": 289967.4999999996,
      "d": 73.33333333337214,
      "v": 55
    },
    {
      "midi": 84,
      "hit": false,
      "t": 289991.6666666663,
      "d": 68.33333333337214,
      "v": 57
    },
    {
      "midi": 86,
      "hit": false,
      "t": 290026.6666666663,
      "d": 60.83333333337214,
      "v": 35
    },
    {
      "midi": 80,
      "hit": false,
      "t": 290101.66666666634,
      "d": 65.83333333331393,
      "v": 60
    },
    {
      "midi": 84,
      "hit": false,
      "t": 290106.66666666634,
      "d": 100,
      "v": 45
    },
    {
      "midi": 80,
      "hit": false,
      "t": 290245.833333333,
      "d": 67.5,
      "v": 45
    },
    {
      "midi": 84,
      "hit": false,
      "t": 290275.833333333,
      "d": 59.16666666668607,
      "v": 60
    },
    {
      "midi": 86,
      "hit": false,
      "t": 290313.333333333,
      "d": 125.00000000005821,
      "v": 1
    },
    {
      "midi": 89,
      "hit": false,
      "t": 290351.6666666664,
      "d": 55.83333333337214,
      "v": 47
    },
    {
      "midi": 80,
      "hit": false,
      "t": 290401.6666666664,
      "d": 88.33333333337214,
      "v": 60
    },
    {
      "midi": 84,
      "hit": false,
      "t": 290405.8333333331,
      "d": 99.16666666668607,
      "v": 52
    },
    {
      "midi": 34,
      "hit": false,
      "t": 290434.99999999977,
      "d": 40,
      "v": 74
    },
    {
      "midi": 86,
      "hit": false,
      "t": 290499.99999999977,
      "d": 86.66666666662786,
      "v": 60
    },
    {
      "midi": 91,
      "hit": false,
      "t": 290507.49999999977,
      "d": 52.49999999994179,
      "v": 45
    },
    {
      "midi": 89,
      "hit": false,
      "t": 290513.3333333331,
      "d": 57.5,
      "v": 13
    },
    {
      "midi": 22,
      "hit": false,
      "t": 290515.8333333331,
      "d": 27.5,
      "v": 70
    },
    {
      "midi": 34,
      "hit": false,
      "t": 290551.6666666664,
      "d": 57.5,
      "v": 69
    },
    {
      "midi": 80,
      "hit": false,
      "t": 290561.6666666664,
      "d": 86.66666666668607,
      "v": 54
    },
    {
      "midi": 84,
      "hit": false,
      "t": 290565.8333333331,
      "d": 86.66666666668607,
      "v": 60
    },
    {
      "midi": 22,
      "hit": false,
      "t": 290631.6666666664,
      "d": 66.66666666668607,
      "v": 56
    },
    {
      "midi": 86,
      "hit": false,
      "t": 290644.1666666664,
      "d": 98.33333333331393,
      "v": 61
    },
    {
      "midi": 89,
      "hit": false,
      "t": 290657.49999999977,
      "d": 57.5,
      "v": 45
    },
    {
      "midi": 34,
      "hit": false,
      "t": 290697.49999999977,
      "d": 39.16666666662786,
      "v": 69
    },
    {
      "midi": 80,
      "hit": false,
      "t": 290710.8333333331,
      "d": 209.16666666662786,
      "v": 74
    },
    {
      "midi": 84,
      "hit": false,
      "t": 290730.8333333331,
      "d": 254.9999999999418,
      "v": 62
    },
    {
      "midi": 22,
      "hit": false,
      "t": 290752.4999999997,
      "d": 274.16666666662786,
      "v": 86
    },
    {
      "midi": 91,
      "hit": false,
      "t": 290764.1666666664,
      "d": 178.33333333331393,
      "v": 74
    },
    {
      "midi": 86,
      "hit": false,
      "t": 290767.4999999997,
      "d": 243.33333333331393,
      "v": 55
    },
    {
      "midi": 89,
      "hit": false,
      "t": 290772.4999999997,
      "d": 210,
      "v": 73
    },
    {
      "midi": 34,
      "hit": false,
      "t": 290797.4999999997,
      "d": 202.5,
      "v": 89
    }
  ]
}