{
  "jsonPath": "Soul/Gospel R&B/Smokie/living-next-door-to-alice.json",
  "path": "Soul\\Gospel R&B\\Smokie\\Living Next Door To Alice.mid",
  "name": "Living Next Door To Alice",
  "difficulty": "Advanced",
  "bpm": 123.00223864074326,
  "notes": [
    {
      "midi": 45,
      "hit": false,
      "t": 3826.149875,
      "d": 1928.3185624999987,
      "v": 109
    },
    {
      "midi": 69,
      "hit": false,
      "t": 3826.149875,
      "d": 7240.721875000006,
      "v": 127
    },
    {
      "midi": 64,
      "hit": false,
      "t": 3826.149875,
      "d": 7241.99217708334,
      "v": 127
    },
    {
      "midi": 73,
      "hit": false,
      "t": 3826.149875,
      "d": 7247.073385416673,
      "v": 127
    },
    {
      "midi": 69,
      "hit": false,
      "t": 3864.2589375000002,
      "d": 7301.6963749999995,
      "v": 127
    },
    {
      "midi": 73,
      "hit": false,
      "t": 3864.2589375000002,
      "d": 7301.6963749999995,
      "v": 127
    },
    {
      "midi": 64,
      "hit": false,
      "t": 3864.2589375000002,
      "d": 7316.939999999999,
      "v": 127
    },
    {
      "midi": 52,
      "hit": false,
      "t": 3894.7461875,
      "d": 1943.5621874999988,
      "v": 127
    },
    {
      "midi": 61,
      "hit": false,
      "t": 4146.266,
      "d": 967.9701875000001,
      "v": 100
    },
    {
      "midi": 57,
      "hit": false,
      "t": 4390.164,
      "d": 941.2938437499997,
      "v": 127
    },
    {
      "midi": 64,
      "hit": false,
      "t": 4634.062,
      "d": 1928.318562499997,
      "v": 109
    },
    {
      "midi": 61,
      "hit": false,
      "t": 5121.857999999999,
      "d": 480.1741874999998,
      "v": 112
    },
    {
      "midi": 57,
      "hit": false,
      "t": 5365.755999999999,
      "d": 967.9701874999982,
      "v": 124
    },
    {
      "midi": 61,
      "hit": false,
      "t": 5609.653999999999,
      "d": 464.9305624999997,
      "v": 118
    },
    {
      "midi": 45,
      "hit": false,
      "t": 5777.333874999998,
      "d": 1974.049437499997,
      "v": 109
    },
    {
      "midi": 52,
      "hit": false,
      "t": 5845.930187499998,
      "d": 1943.562187499997,
      "v": 127
    },
    {
      "midi": 61,
      "hit": false,
      "t": 6097.449999999998,
      "d": 967.9701874999982,
      "v": 100
    },
    {
      "midi": 57,
      "hit": false,
      "t": 6341.347999999997,
      "d": 937.482937499999,
      "v": 127
    },
    {
      "midi": 64,
      "hit": false,
      "t": 6585.2459999999965,
      "d": 1928.3185624999978,
      "v": 109
    },
    {
      "midi": 61,
      "hit": false,
      "t": 7073.041999999996,
      "d": 480.1741874999998,
      "v": 112
    },
    {
      "midi": 57,
      "hit": false,
      "t": 7316.939999999996,
      "d": 967.9701874999982,
      "v": 124
    },
    {
      "midi": 61,
      "hit": false,
      "t": 7560.837999999995,
      "d": 464.9305624999997,
      "v": 118
    },
    {
      "midi": 45,
      "hit": false,
      "t": 7789.492374999995,
      "d": 1848.2895312499977,
      "v": 109
    },
    {
      "midi": 52,
      "hit": false,
      "t": 7797.114187499995,
      "d": 1943.5621874999988,
      "v": 121
    },
    {
      "midi": 61,
      "hit": false,
      "t": 8048.633999999995,
      "d": 967.970187500001,
      "v": 100
    },
    {
      "midi": 57,
      "hit": false,
      "t": 8292.531999999994,
      "d": 945.1047500000004,
      "v": 127
    },
    {
      "midi": 64,
      "hit": false,
      "t": 8536.429999999995,
      "d": 1928.3185624999987,
      "v": 109
    },
    {
      "midi": 61,
      "hit": false,
      "t": 9024.225999999995,
      "d": 480.1741874999989,
      "v": 112
    },
    {
      "midi": 57,
      "hit": false,
      "t": 9268.123999999994,
      "d": 967.9701874999992,
      "v": 124
    },
    {
      "midi": 61,
      "hit": false,
      "t": 9512.021999999994,
      "d": 464.9305624999997,
      "v": 72
    },
    {
      "midi": 45,
      "hit": false,
      "t": 9679.701874999993,
      "d": 1909.2640312499989,
      "v": 109
    },
    {
      "midi": 52,
      "hit": false,
      "t": 9748.298187499993,
      "d": 1943.562187499998,
      "v": 127
    },
    {
      "midi": 61,
      "hit": false,
      "t": 9999.817999999994,
      "d": 967.970187500001,
      "v": 100
    },
    {
      "midi": 57,
      "hit": false,
      "t": 10243.715999999993,
      "d": 948.9156562500011,
      "v": 127
    },
    {
      "midi": 64,
      "hit": false,
      "t": 10487.613999999994,
      "d": 1928.318562499997,
      "v": 109
    },
    {
      "midi": 61,
      "hit": false,
      "t": 10975.409999999994,
      "d": 480.1741874999989,
      "v": 112
    },
    {
      "midi": 57,
      "hit": false,
      "t": 11219.307999999994,
      "d": 967.9701874999973,
      "v": 124
    },
    {
      "midi": 61,
      "hit": false,
      "t": 11463.205999999993,
      "d": 464.9305624999979,
      "v": 118
    },
    {
      "midi": 73,
      "hit": false,
      "t": 11630.885875000016,
      "d": 2468.196947916682,
      "v": 127
    },
    {
      "midi": 69,
      "hit": false,
      "t": 11630.885875000016,
      "d": 2472.0078541666826,
      "v": 127
    },
    {
      "midi": 64,
      "hit": false,
      "t": 11630.885875000016,
      "d": 2484.710875000015,
      "v": 127
    },
    {
      "midi": 45,
      "hit": false,
      "t": 11646.129499999992,
      "d": 1909.2640312500007,
      "v": 109
    },
    {
      "midi": 64,
      "hit": false,
      "t": 11668.9949375,
      "d": 2438.9799999999996,
      "v": 127
    },
    {
      "midi": 69,
      "hit": false,
      "t": 11668.9949375,
      "d": 2438.9799999999996,
      "v": 127
    },
    {
      "midi": 73,
      "hit": false,
      "t": 11668.9949375,
      "d": 2438.9799999999996,
      "v": 127
    },
    {
      "midi": 52,
      "hit": false,
      "t": 11699.48218749999,
      "d": 1943.5621875000015,
      "v": 127
    },
    {
      "midi": 61,
      "hit": false,
      "t": 11951.001999999991,
      "d": 967.970187500001,
      "v": 100
    },
    {
      "midi": 57,
      "hit": false,
      "t": 12194.89999999999,
      "d": 945.1047500000022,
      "v": 115
    },
    {
      "midi": 64,
      "hit": false,
      "t": 12194.9,
      "d": 125.7599062499994,
      "v": 127
    },
    {
      "midi": 64,
      "hit": false,
      "t": 12438.797999999992,
      "d": 1928.3185625000006,
      "v": 103
    },
    {
      "midi": 64,
      "hit": false,
      "t": 12438.797999999999,
      "d": 168.95017708333398,
      "v": 127
    },
    {
      "midi": 62,
      "hit": false,
      "t": 12682.696,
      "d": 734.234604166666,
      "v": 127
    },
    {
      "midi": 61,
      "hit": false,
      "t": 12926.593999999992,
      "d": 480.1741875000007,
      "v": 109
    },
    {
      "midi": 57,
      "hit": false,
      "t": 13170.491999999993,
      "d": 967.9701874999992,
      "v": 124
    },
    {
      "midi": 61,
      "hit": false,
      "t": 13414.389999999992,
      "d": 464.9305624999997,
      "v": 73
    },
    {
      "midi": 61,
      "hit": false,
      "t": 13414.39,
      "d": 196.89682291666577,
      "v": 127
    },
    {
      "midi": 45,
      "hit": false,
      "t": 13582.069874999992,
      "d": 1974.0494375000017,
      "v": 109
    },
    {
      "midi": 52,
      "hit": false,
      "t": 13650.666187499992,
      "d": 1943.5621875000015,
      "v": 127
    },
    {
      "midi": 62,
      "hit": false,
      "t": 13658.287999999999,
      "d": 193.0859166666669,
      "v": 127
    },
    {
      "midi": 61,
      "hit": false,
      "t": 13902.185999999992,
      "d": 967.970187500001,
      "v": 100
    },
    {
      "midi": 61,
      "hit": false,
      "t": 13902.186,
      "d": 111.7865833333326,
      "v": 127
    },
    {
      "midi": 71,
      "hit": false,
      "t": 14069.865875000032,
      "d": 501.76932291666526,
      "v": 127
    },
    {
      "midi": 62,
      "hit": false,
      "t": 14069.865875000032,
      "d": 503.03962499999943,
      "v": 127
    },
    {
      "midi": 66,
      "hit": false,
      "t": 14069.865875000032,
      "d": 518.2832499999986,
      "v": 127
    },
    {
      "midi": 62,
      "hit": false,
      "t": 14107.9749375,
      "d": 487.7960000000003,
      "v": 127
    },
    {
      "midi": 66,
      "hit": false,
      "t": 14107.9749375,
      "d": 487.7960000000003,
      "v": 127
    },
    {
      "midi": 71,
      "hit": false,
      "t": 14107.9749375,
      "d": 487.7960000000003,
      "v": 127
    },
    {
      "midi": 57,
      "hit": false,
      "t": 14146.083999999992,
      "d": 941.2938437500015,
      "v": 127
    },
    {
      "midi": 61,
      "hit": false,
      "t": 14146.083999999999,
      "d": 125.7599062499994,
      "v": 127
    },
    {
      "midi": 64,
      "hit": false,
      "t": 14389.981999999993,
      "d": 1928.3185625000006,
      "v": 109
    },
    {
      "midi": 59,
      "hit": false,
      "t": 14389.981999999998,
      "d": 471.28207291666695,
      "v": 127
    },
    {
      "midi": 61,
      "hit": false,
      "t": 14557.66187500003,
      "d": 503.03962500000125,
      "v": 127
    },
    {
      "midi": 69,
      "hit": false,
      "t": 14557.66187500003,
      "d": 508.1208333333343,
      "v": 127
    },
    {
      "midi": 61,
      "hit": false,
      "t": 14595.7709375,
      "d": 487.7960000000003,
      "v": 127
    },
    {
      "midi": 64,
      "hit": false,
      "t": 14595.7709375,
      "d": 487.7960000000003,
      "v": 127
    },
    {
      "midi": 69,
      "hit": false,
      "t": 14595.7709375,
      "d": 487.7960000000003,
      "v": 127
    },
    {
      "midi": 61,
      "hit": false,
      "t": 14877.777999999993,
      "d": 480.1741875000007,
      "v": 112
    },
    {
      "midi": 57,
      "hit": false,
      "t": 14877.777999999998,
      "d": 574.1765416666676,
      "v": 127
    },
    {
      "midi": 64,
      "hit": false,
      "t": 15045.457875000031,
      "d": 8.89211458333375,
      "v": 127
    },
    {
      "midi": 59,
      "hit": false,
      "t": 15045.457875000031,
      "d": 517.0129479166662,
      "v": 127
    },
    {
      "midi": 55,
      "hit": false,
      "t": 15045.457875000031,
      "d": 518.2832500000004,
      "v": 127
    },
    {
      "midi": 55,
      "hit": false,
      "t": 15083.5669375,
      "d": 487.7960000000003,
      "v": 127
    },
    {
      "midi": 59,
      "hit": false,
      "t": 15083.5669375,
      "d": 487.7960000000003,
      "v": 127
    },
    {
      "midi": 64,
      "hit": false,
      "t": 15083.5669375,
      "d": 487.7960000000003,
      "v": 127
    },
    {
      "midi": 57,
      "hit": false,
      "t": 15121.675999999994,
      "d": 480.1741874999989,
      "v": 124
    },
    {
      "midi": 61,
      "hit": false,
      "t": 15365.573999999993,
      "d": 236.27618749999965,
      "v": 118
    },
    {
      "midi": 57,
      "hit": false,
      "t": 15533.253875000031,
      "d": 1996.9148750000022,
      "v": 127
    },
    {
      "midi": 62,
      "hit": false,
      "t": 15533.253875000031,
      "d": 1996.9148750000022,
      "v": 127
    },
    {
      "midi": 54,
      "hit": false,
      "t": 15533.253875000031,
      "d": 2012.1585000000014,
      "v": 127
    },
    {
      "midi": 62,
      "hit": false,
      "t": 15571.3629375,
      "d": 2267.489218749999,
      "v": 127
    },
    {
      "midi": 54,
      "hit": false,
      "t": 15571.3629375,
      "d": 2273.8407291666645,
      "v": 127
    },
    {
      "midi": 57,
      "hit": false,
      "t": 15571.3629375,
      "d": 2273.8407291666645,
      "v": 127
    },
    {
      "midi": 50,
      "hit": false,
      "t": 15609.471999999992,
      "d": 1928.318562500006,
      "v": 115
    },
    {
      "midi": 62,
      "hit": false,
      "t": 15853.369999999992,
      "d": 952.7265625000036,
      "v": 103
    },
    {
      "midi": 57,
      "hit": false,
      "t": 16097.267999999993,
      "d": 952.7265625000036,
      "v": 127
    },
    {
      "midi": 57,
      "hit": false,
      "t": 16097.268,
      "d": 100.35386458333414,
      "v": 127
    },
    {
      "midi": 66,
      "hit": false,
      "t": 16341.165999999994,
      "d": 1943.562187500007,
      "v": 112
    },
    {
      "midi": 57,
      "hit": false,
      "t": 16341.166000000001,
      "d": 550.0408020833347,
      "v": 127
    },
    {
      "midi": 62,
      "hit": false,
      "t": 16828.961999999996,
      "d": 464.93056250000154,
      "v": 118
    },
    {
      "midi": 57,
      "hit": false,
      "t": 17072.859999999997,
      "d": 948.9156562500029,
      "v": 109
    },
    {
      "midi": 56,
      "hit": false,
      "t": 17072.860000000004,
      "d": 92.73205208333457,
      "v": 127
    },
    {
      "midi": 62,
      "hit": false,
      "t": 17316.757999999998,
      "d": 464.93056250000154,
      "v": 115
    },
    {
      "midi": 56,
      "hit": false,
      "t": 17316.758000000005,
      "d": 104.16477083333302,
      "v": 127
    },
    {
      "midi": 50,
      "hit": false,
      "t": 17560.656,
      "d": 1882.587687500003,
      "v": 121
    },
    {
      "midi": 57,
      "hit": false,
      "t": 17560.656000000006,
      "d": 420.4699895833328,
      "v": 127
    },
    {
      "midi": 62,
      "hit": false,
      "t": 17804.554,
      "d": 937.4829375000008,
      "v": 100
    },
    {
      "midi": 57,
      "hit": false,
      "t": 18048.452,
      "d": 967.9701874999992,
      "v": 127
    },
    {
      "midi": 56,
      "hit": false,
      "t": 18048.452000000005,
      "d": 100.35386458333232,
      "v": 127
    },
    {
      "midi": 66,
      "hit": false,
      "t": 18292.350000000002,
      "d": 1211.8681874999966,
      "v": 109
    },
    {
      "midi": 54,
      "hit": false,
      "t": 18292.350000000002,
      "d": 679.611614583333,
      "v": 127
    },
    {
      "midi": 62,
      "hit": false,
      "t": 18780.146,
      "d": 449.6869375000024,
      "v": 106
    },
    {
      "midi": 57,
      "hit": false,
      "t": 19024.044,
      "d": 434.4433124999996,
      "v": 118
    },
    {
      "midi": 62,
      "hit": false,
      "t": 19267.942000000003,
      "d": 205.7889374999977,
      "v": 79
    },
    {
      "midi": 64,
      "hit": false,
      "t": 19435.62187500005,
      "d": 2459.3048333333427,
      "v": 127
    },
    {
      "midi": 59,
      "hit": false,
      "t": 19435.62187500005,
      "d": 2463.1157395833434,
      "v": 127
    },
    {
      "midi": 56,
      "hit": false,
      "t": 19435.62187500005,
      "d": 2469.467250000009,
      "v": 127
    },
    {
      "midi": 56,
      "hit": false,
      "t": 19473.730937499997,
      "d": 2438.9799999999996,
      "v": 127
    },
    {
      "midi": 59,
      "hit": false,
      "t": 19473.730937499997,
      "d": 2438.9799999999996,
      "v": 127
    },
    {
      "midi": 64,
      "hit": false,
      "t": 19473.730937499997,
      "d": 2438.9799999999996,
      "v": 127
    },
    {
      "midi": 52,
      "hit": false,
      "t": 19511.84,
      "d": 1928.3185625000078,
      "v": 118
    },
    {
      "midi": 59,
      "hit": false,
      "t": 19755.738,
      "d": 952.7265625000036,
      "v": 100
    },
    {
      "midi": 56,
      "hit": false,
      "t": 19999.636000000002,
      "d": 967.9701875000028,
      "v": 127
    },
    {
      "midi": 64,
      "hit": false,
      "t": 20243.534000000003,
      "d": 1928.3185625000042,
      "v": 103
    },
    {
      "midi": 59,
      "hit": false,
      "t": 20731.330000000005,
      "d": 464.93056250000154,
      "v": 109
    },
    {
      "midi": 56,
      "hit": false,
      "t": 20975.228000000006,
      "d": 960.3483750000014,
      "v": 121
    },
    {
      "midi": 59,
      "hit": false,
      "t": 21219.126000000007,
      "d": 464.93056250000154,
      "v": 109
    },
    {
      "midi": 52,
      "hit": false,
      "t": 21463.02400000001,
      "d": 1953.7246041666695,
      "v": 124
    },
    {
      "midi": 59,
      "hit": false,
      "t": 21706.92200000001,
      "d": 967.9701874999992,
      "v": 103
    },
    {
      "midi": 54,
      "hit": false,
      "t": 21874.601875000062,
      "d": 518.2832499999968,
      "v": 127
    },
    {
      "midi": 57,
      "hit": false,
      "t": 21874.601875000062,
      "d": 520.8238541666651,
      "v": 127
    },
    {
      "midi": 62,
      "hit": false,
      "t": 21874.601875000062,
      "d": 534.7971770833319,
      "v": 127
    },
    {
      "midi": 54,
      "hit": false,
      "t": 21912.710937499996,
      "d": 487.79599999999846,
      "v": 127
    },
    {
      "midi": 57,
      "hit": false,
      "t": 21912.710937499996,
      "d": 487.79599999999846,
      "v": 127
    },
    {
      "midi": 62,
      "hit": false,
      "t": 21912.710937499996,
      "d": 487.79599999999846,
      "v": 127
    },
    {
      "midi": 56,
      "hit": false,
      "t": 21950.820000000007,
      "d": 952.7265625000036,
      "v": 127
    },
    {
      "midi": 64,
      "hit": false,
      "t": 22194.718000000008,
      "d": 1211.8681875000002,
      "v": 106
    },
    {
      "midi": 52,
      "hit": false,
      "t": 22362.39787500006,
      "d": 486.5256979166661,
      "v": 127
    },
    {
      "midi": 61,
      "hit": false,
      "t": 22362.39787500006,
      "d": 487.79599999999846,
      "v": 127
    },
    {
      "midi": 56,
      "hit": false,
      "t": 22362.39787500006,
      "d": 492.8772083333315,
      "v": 127
    },
    {
      "midi": 52,
      "hit": false,
      "t": 22400.506937499995,
      "d": 487.79599999999846,
      "v": 127
    },
    {
      "midi": 56,
      "hit": false,
      "t": 22400.506937499995,
      "d": 487.79599999999846,
      "v": 127
    },
    {
      "midi": 61,
      "hit": false,
      "t": 22400.506937499995,
      "d": 487.79599999999846,
      "v": 127
    },
    {
      "midi": 59,
      "hit": false,
      "t": 22682.51400000001,
      "d": 464.93056250000154,
      "v": 115
    },
    {
      "midi": 59,
      "hit": false,
      "t": 22850.19387500006,
      "d": 499.2287187499969,
      "v": 127
    },
    {
      "midi": 50,
      "hit": false,
      "t": 22850.19387500006,
      "d": 518.2832499999968,
      "v": 127
    },
    {
      "midi": 54,
      "hit": false,
      "t": 22850.19387500006,
      "d": 519.5535520833291,
      "v": 127
    },
    {
      "midi": 50,
      "hit": false,
      "t": 22888.302937499993,
      "d": 487.79599999999846,
      "v": 127
    },
    {
      "midi": 54,
      "hit": false,
      "t": 22888.302937499993,
      "d": 487.79599999999846,
      "v": 127
    },
    {
      "midi": 59,
      "hit": false,
      "t": 22888.302937499993,
      "d": 487.79599999999846,
      "v": 127
    },
    {
      "midi": 56,
      "hit": false,
      "t": 22926.41200000001,
      "d": 434.4433124999996,
      "v": 106
    },
    {
      "midi": 54,
      "hit": false,
      "t": 23170.31,
      "d": 111.78658333333442,
      "v": 127
    },
    {
      "midi": 59,
      "hit": false,
      "t": 23170.310000000012,
      "d": 224.84346874999756,
      "v": 82
    },
    {
      "midi": 49,
      "hit": false,
      "t": 23337.989875000058,
      "d": 1741.584156249999,
      "v": 127
    },
    {
      "midi": 52,
      "hit": false,
      "t": 23337.989875000058,
      "d": 1758.0980833333342,
      "v": 127
    },
    {
      "midi": 57,
      "hit": false,
      "t": 23337.989875000058,
      "d": 1768.2605000000003,
      "v": 127
    },
    {
      "midi": 52,
      "hit": false,
      "t": 23376.09893749999,
      "d": 1791.1259375000009,
      "v": 127
    },
    {
      "midi": 57,
      "hit": false,
      "t": 23376.09893749999,
      "d": 1791.1259375000009,
      "v": 127
    },
    {
      "midi": 49,
      "hit": false,
      "t": 23376.09893749999,
      "d": 1792.3962395833332,
      "v": 127
    },
    {
      "midi": 54,
      "hit": false,
      "t": 23414.208000000002,
      "d": 226.11377083333355,
      "v": 127
    },
    {
      "midi": 45,
      "hit": false,
      "t": 23414.20800000001,
      "d": 1920.6967499999992,
      "v": 109
    },
    {
      "midi": 52,
      "hit": false,
      "t": 23658.106000000003,
      "d": 212.14044791666674,
      "v": 127
    },
    {
      "midi": 61,
      "hit": false,
      "t": 23658.10600000001,
      "d": 941.2938437500015,
      "v": 106
    },
    {
      "midi": 57,
      "hit": false,
      "t": 23902.00400000001,
      "d": 952.7265625,
      "v": 127
    },
    {
      "midi": 64,
      "hit": false,
      "t": 24145.902000000013,
      "d": 693.5849374999998,
      "v": 112
    },
    {
      "midi": 61,
      "hit": false,
      "t": 24633.69800000001,
      "d": 472.5523749999993,
      "v": 112
    },
    {
      "midi": 57,
      "hit": false,
      "t": 24877.596000000012,
      "d": 434.44331249999595,
      "v": 118
    },
    {
      "midi": 64,
      "hit": false,
      "t": 24877.596000000012,
      "d": 434.44331249999595,
      "v": 118
    },
    {
      "midi": 61,
      "hit": false,
      "t": 25121.49400000001,
      "d": 190.54531249999854,
      "v": 109
    },
    {
      "midi": 52,
      "hit": false,
      "t": 25365.392000000007,
      "d": 1913.074937500005,
      "v": 118
    },
    {
      "midi": 59,
      "hit": false,
      "t": 25609.290000000008,
      "d": 937.4829375000008,
      "v": 103
    },
    {
      "midi": 56,
      "hit": false,
      "t": 25853.18800000001,
      "d": 937.4829375000008,
      "v": 127
    },
    {
      "midi": 64,
      "hit": false,
      "t": 26097.08600000001,
      "d": 1211.8681875000002,
      "v": 112
    },
    {
      "midi": 59,
      "hit": false,
      "t": 26584.88200000001,
      "d": 449.6869375000024,
      "v": 112
    },
    {
      "midi": 64,
      "hit": false,
      "t": 26828.780000000002,
      "d": 83.83993750000081,
      "v": 127
    },
    {
      "midi": 56,
      "hit": false,
      "t": 26828.78000000001,
      "d": 449.6869375000024,
      "v": 118
    },
    {
      "midi": 64,
      "hit": false,
      "t": 27072.678000000004,
      "d": 77.48842708333177,
      "v": 127
    },
    {
      "midi": 59,
      "hit": false,
      "t": 27072.67800000001,
      "d": 190.54531250000218,
      "v": 91
    },
    {
      "midi": 73,
      "hit": false,
      "t": 27240.35787500007,
      "d": 2468.1969479166873,
      "v": 127
    },
    {
      "midi": 69,
      "hit": false,
      "t": 27240.35787500007,
      "d": 2472.007854166688,
      "v": 127
    },
    {
      "midi": 64,
      "hit": false,
      "t": 27240.35787500007,
      "d": 2484.7108750000225,
      "v": 127
    },
    {
      "midi": 45,
      "hit": false,
      "t": 27255.60150000001,
      "d": 1916.8858437500057,
      "v": 109
    },
    {
      "midi": 64,
      "hit": false,
      "t": 27278.46693749999,
      "d": 2438.9799999999996,
      "v": 127
    },
    {
      "midi": 69,
      "hit": false,
      "t": 27278.46693749999,
      "d": 2438.9799999999996,
      "v": 127
    },
    {
      "midi": 73,
      "hit": false,
      "t": 27278.46693749999,
      "d": 2438.9799999999996,
      "v": 127
    },
    {
      "midi": 52,
      "hit": false,
      "t": 27308.95418750001,
      "d": 1943.562187500007,
      "v": 127
    },
    {
      "midi": 64,
      "hit": false,
      "t": 27316.576,
      "d": 86.38054166666552,
      "v": 127
    },
    {
      "midi": 64,
      "hit": false,
      "t": 27560.474,
      "d": 69.86661458333401,
      "v": 127
    },
    {
      "midi": 61,
      "hit": false,
      "t": 27560.47400000001,
      "d": 967.9701875000028,
      "v": 100
    },
    {
      "midi": 64,
      "hit": false,
      "t": 27804.372,
      "d": 215.95135416666744,
      "v": 127
    },
    {
      "midi": 57,
      "hit": false,
      "t": 27804.37200000001,
      "d": 952.7265625000036,
      "v": 115
    },
    {
      "midi": 64,
      "hit": false,
      "t": 28048.27,
      "d": 22.865437500000553,
      "v": 127
    },
    {
      "midi": 62,
      "hit": false,
      "t": 28048.27,
      "d": 391.25304166666683,
      "v": 127
    },
    {
      "midi": 64,
      "hit": false,
      "t": 28048.27000000001,
      "d": 1928.3185625000078,
      "v": 103
    },
    {
      "midi": 61,
      "hit": false,
      "t": 28536.066,
      "d": 282.00706250000076,
      "v": 127
    },
    {
      "midi": 61,
      "hit": false,
      "t": 28536.066000000013,
      "d": 480.1741875000007,
      "v": 109
    },
    {
      "midi": 57,
      "hit": false,
      "t": 28779.964000000014,
      "d": 967.9701875000028,
      "v": 124
    },
    {
      "midi": 61,
      "hit": false,
      "t": 29023.862,
      "d": 92.73205208333457,
      "v": 127
    },
    {
      "midi": 61,
      "hit": false,
      "t": 29023.862000000016,
      "d": 464.93056250000154,
      "v": 73
    },
    {
      "midi": 45,
      "hit": false,
      "t": 29191.541875000017,
      "d": 1974.0494375000053,
      "v": 109
    },
    {
      "midi": 52,
      "hit": false,
      "t": 29260.13818750002,
      "d": 1943.5621875000033,
      "v": 127
    },
    {
      "midi": 62,
      "hit": false,
      "t": 29267.760000000002,
      "d": 175.3016874999994,
      "v": 127
    },
    {
      "midi": 61,
      "hit": false,
      "t": 29511.658000000003,
      "d": 485.25539583333375,
      "v": 127
    },
    {
      "midi": 61,
      "hit": false,
      "t": 29511.658000000018,
      "d": 967.9701875000028,
      "v": 100
    },
    {
      "midi": 71,
      "hit": false,
      "t": 29679.337875000092,
      "d": 501.7693229166689,
      "v": 127
    },
    {
      "midi": 62,
      "hit": false,
      "t": 29679.337875000092,
      "d": 503.03962500000125,
      "v": 127
    },
    {
      "midi": 66,
      "hit": false,
      "t": 29679.337875000092,
      "d": 518.2832500000004,
      "v": 127
    },
    {
      "midi": 62,
      "hit": false,
      "t": 29717.44693749999,
      "d": 487.79599999999846,
      "v": 127
    },
    {
      "midi": 66,
      "hit": false,
      "t": 29717.44693749999,
      "d": 487.79599999999846,
      "v": 127
    },
    {
      "midi": 71,
      "hit": false,
      "t": 29717.44693749999,
      "d": 487.79599999999846,
      "v": 127
    },
    {
      "midi": 57,
      "hit": false,
      "t": 29755.55600000002,
      "d": 948.9156562500029,
      "v": 127
    },
    {
      "midi": 59,
      "hit": false,
      "t": 29999.454000000005,
      "d": 528.4456666666665,
      "v": 127
    },
    {
      "midi": 64,
      "hit": false,
      "t": 29999.45400000002,
      "d": 1928.3185625000042,
      "v": 109
    },
    {
      "midi": 61,
      "hit": false,
      "t": 30167.133875000094,
      "d": 503.0396249999976,
      "v": 127
    },
    {
      "midi": 69,
      "hit": false,
      "t": 30167.133875000094,
      "d": 508.12083333333067,
      "v": 127
    },
    {
      "midi": 61,
      "hit": false,
      "t": 30205.24293749999,
      "d": 487.79599999999846,
      "v": 127
    },
    {
      "midi": 64,
      "hit": false,
      "t": 30205.24293749999,
      "d": 487.79599999999846,
      "v": 127
    },
    {
      "midi": 69,
      "hit": false,
      "t": 30205.24293749999,
      "d": 487.79599999999846,
      "v": 127
    },
    {
      "midi": 57,
      "hit": false,
      "t": 30487.250000000004,
      "d": 285.81796875000146,
      "v": 127
    },
    {
      "midi": 61,
      "hit": false,
      "t": 30487.250000000022,
      "d": 480.1741875000007,
      "v": 112
    },
    {
      "midi": 64,
      "hit": false,
      "t": 30654.929875000093,
      "d": 8.89211458333375,
      "v": 127
    },
    {
      "midi": 59,
      "hit": false,
      "t": 30654.929875000093,
      "d": 517.0129479166644,
      "v": 127
    },
    {
      "midi": 55,
      "hit": false,
      "t": 30654.929875000093,
      "d": 518.2832499999968,
      "v": 127
    },
    {
      "midi": 55,
      "hit": false,
      "t": 30693.038937499987,
      "d": 487.79599999999846,
      "v": 127
    },
    {
      "midi": 59,
      "hit": false,
      "t": 30693.038937499987,
      "d": 487.79599999999846,
      "v": 127
    },
    {
      "midi": 64,
      "hit": false,
      "t": 30693.038937499987,
      "d": 487.79599999999846,
      "v": 127
    },
    {
      "midi": 57,
      "hit": false,
      "t": 30731.148000000023,
      "d": 480.1741875000007,
      "v": 124
    },
    {
      "midi": 61,
      "hit": false,
      "t": 30975.046000000024,
      "d": 236.27618749999965,
      "v": 118
    },
    {
      "midi": 57,
      "hit": false,
      "t": 31142.72587500009,
      "d": 1996.9148750000095,
      "v": 127
    },
    {
      "midi": 62,
      "hit": false,
      "t": 31142.72587500009,
      "d": 1996.9148750000095,
      "v": 127
    },
    {
      "midi": 54,
      "hit": false,
      "t": 31142.72587500009,
      "d": 2012.1585000000123,
      "v": 127
    },
    {
      "midi": 62,
      "hit": false,
      "t": 31180.834937499985,
      "d": 2267.4892187499972,
      "v": 127
    },
    {
      "midi": 54,
      "hit": false,
      "t": 31180.834937499985,
      "d": 2273.8407291666626,
      "v": 127
    },
    {
      "midi": 57,
      "hit": false,
      "t": 31180.834937499985,
      "d": 2273.8407291666626,
      "v": 127
    },
    {
      "midi": 50,
      "hit": false,
      "t": 31218.944000000025,
      "d": 1928.3185625000042,
      "v": 115
    },
    {
      "midi": 57,
      "hit": false,
      "t": 31462.842000000004,
      "d": 68.59631250000166,
      "v": 127
    },
    {
      "midi": 62,
      "hit": false,
      "t": 31462.842000000026,
      "d": 952.7265625,
      "v": 103
    },
    {
      "midi": 57,
      "hit": false,
      "t": 31706.740000000005,
      "d": 68.59631250000166,
      "v": 127
    },
    {
      "midi": 57,
      "hit": false,
      "t": 31706.740000000023,
      "d": 952.7265625000036,
      "v": 127
    },
    {
      "midi": 57,
      "hit": false,
      "t": 31950.638000000006,
      "d": 72.40721874999872,
      "v": 127
    },
    {
      "midi": 66,
      "hit": false,
      "t": 31950.638000000024,
      "d": 1943.562187499996,
      "v": 112
    },
    {
      "midi": 57,
      "hit": false,
      "t": 32194.536000000004,
      "d": 111.78658333333442,
      "v": 127
    },
    {
      "midi": 57,
      "hit": false,
      "t": 32438.434000000005,
      "d": 367.1173020833339,
      "v": 127
    },
    {
      "midi": 62,
      "hit": false,
      "t": 32438.434000000027,
      "d": 464.93056250000154,
      "v": 118
    },
    {
      "midi": 57,
      "hit": false,
      "t": 32682.332000000028,
      "d": 945.104749999995,
      "v": 109
    },
    {
      "midi": 56,
      "hit": false,
      "t": 32926.23,
      "d": 87.65084375000151,
      "v": 127
    },
    {
      "midi": 62,
      "hit": false,
      "t": 32926.230000000025,
      "d": 464.9305624999979,
      "v": 115
    },
    {
      "midi": 57,
      "hit": false,
      "t": 33170.128000000004,
      "d": 248.97920833333774,
      "v": 127
    },
    {
      "midi": 50,
      "hit": false,
      "t": 33170.128000000026,
      "d": 1882.587687500003,
      "v": 121
    },
    {
      "midi": 56,
      "hit": false,
      "t": 33414.026000000005,
      "d": 487.7960000000021,
      "v": 127
    },
    {
      "midi": 62,
      "hit": false,
      "t": 33414.02600000002,
      "d": 937.4829375000045,
      "v": 100
    },
    {
      "midi": 57,
      "hit": false,
      "t": 33657.92400000002,
      "d": 967.9701875000028,
      "v": 127
    },
    {
      "midi": 54,
      "hit": false,
      "t": 33901.82200000001,
      "d": 388.7124374999985,
      "v": 127
    },
    {
      "midi": 66,
      "hit": false,
      "t": 33901.82200000002,
      "d": 1211.8681875000111,
      "v": 109
    },
    {
      "midi": 62,
      "hit": false,
      "t": 34389.618000000024,
      "d": 449.6869375000024,
      "v": 106
    },
    {
      "midi": 57,
      "hit": false,
      "t": 34633.516000000025,
      "d": 434.44331250000687,
      "v": 118
    },
    {
      "midi": 62,
      "hit": false,
      "t": 34877.414000000026,
      "d": 205.78893750000861,
      "v": 79
    },
    {
      "midi": 64,
      "hit": false,
      "t": 35045.09387500014,
      "d": 2459.3048333333645,
      "v": 127
    },
    {
      "midi": 59,
      "hit": false,
      "t": 35045.09387500014,
      "d": 2463.115739583365,
      "v": 127
    },
    {
      "midi": 56,
      "hit": false,
      "t": 35045.09387500014,
      "d": 2469.4672500000306,
      "v": 127
    },
    {
      "midi": 56,
      "hit": false,
      "t": 35083.202937499984,
      "d": 2438.980000000003,
      "v": 127
    },
    {
      "midi": 59,
      "hit": false,
      "t": 35083.202937499984,
      "d": 2438.980000000003,
      "v": 127
    },
    {
      "midi": 64,
      "hit": false,
      "t": 35083.202937499984,
      "d": 2438.980000000003,
      "v": 127
    },
    {
      "midi": 52,
      "hit": false,
      "t": 35121.312000000034,
      "d": 1928.3185624999896,
      "v": 118
    },
    {
      "midi": 52,
      "hit": false,
      "t": 35365.21000000001,
      "d": 78.75872916666412,
      "v": 127
    },
    {
      "midi": 59,
      "hit": false,
      "t": 35365.210000000036,
      "d": 952.7265625,
      "v": 100
    },
    {
      "midi": 52,
      "hit": false,
      "t": 35609.10800000001,
      "d": 81.29933333333611,
      "v": 127
    },
    {
      "midi": 56,
      "hit": false,
      "t": 35609.10800000004,
      "d": 967.9701874999955,
      "v": 127
    },
    {
      "midi": 52,
      "hit": false,
      "t": 35853.00600000001,
      "d": 254.06041666666715,
      "v": 127
    },
    {
      "midi": 64,
      "hit": false,
      "t": 35853.00600000004,
      "d": 1928.318562499975,
      "v": 103
    },
    {
      "midi": 52,
      "hit": false,
      "t": 36340.80200000001,
      "d": 88.92114583333023,
      "v": 127
    },
    {
      "midi": 59,
      "hit": false,
      "t": 36340.80200000003,
      "d": 464.9305624999979,
      "v": 109
    },
    {
      "midi": 52,
      "hit": false,
      "t": 36584.700000000004,
      "d": 82.56963541666482,
      "v": 127
    },
    {
      "midi": 56,
      "hit": false,
      "t": 36584.70000000003,
      "d": 948.9156562499847,
      "v": 121
    },
    {
      "midi": 52,
      "hit": false,
      "t": 36828.598000000005,
      "d": 246.43860416666575,
      "v": 127
    },
    {
      "midi": 59,
      "hit": false,
      "t": 36828.59800000003,
      "d": 464.93056249999063,
      "v": 109
    },
    {
      "midi": 52,
      "hit": false,
      "t": 37072.49600000002,
      "d": 1953.7246041666585,
      "v": 124
    },
    {
      "midi": 52,
      "hit": false,
      "t": 37316.39400000001,
      "d": 224.84346874999756,
      "v": 127
    },
    {
      "midi": 59,
      "hit": false,
      "t": 37316.394000000015,
      "d": 967.9701874999955,
      "v": 103
    },
    {
      "midi": 54,
      "hit": false,
      "t": 37484.07387500017,
      "d": 518.2832499999931,
      "v": 127
    },
    {
      "midi": 57,
      "hit": false,
      "t": 37484.07387500017,
      "d": 520.8238541666578,
      "v": 127
    },
    {
      "midi": 62,
      "hit": false,
      "t": 37484.07387500017,
      "d": 534.7971770833246,
      "v": 127
    },
    {
      "midi": 54,
      "hit": false,
      "t": 37522.18293749999,
      "d": 487.7960000000021,
      "v": 127
    },
    {
      "midi": 57,
      "hit": false,
      "t": 37522.18293749999,
      "d": 487.7960000000021,
      "v": 127
    },
    {
      "midi": 62,
      "hit": false,
      "t": 37522.18293749999,
      "d": 487.7960000000021,
      "v": 127
    },
    {
      "midi": 52,
      "hit": false,
      "t": 37804.19,
      "d": 755.829739583336,
      "v": 127
    },
    {
      "midi": 64,
      "hit": false,
      "t": 37804.19000000001,
      "d": 1211.8681875000038,
      "v": 106
    },
    {
      "midi": 52,
      "hit": false,
      "t": 37971.869875000164,
      "d": 486.5256979166661,
      "v": 127
    },
    {
      "midi": 61,
      "hit": false,
      "t": 37971.869875000164,
      "d": 487.7960000000021,
      "v": 127
    },
    {
      "midi": 56,
      "hit": false,
      "t": 37971.869875000164,
      "d": 492.8772083333388,
      "v": 127
    },
    {
      "midi": 52,
      "hit": false,
      "t": 38009.97893749999,
      "d": 487.7960000000021,
      "v": 127
    },
    {
      "midi": 56,
      "hit": false,
      "t": 38009.97893749999,
      "d": 487.7960000000021,
      "v": 127
    },
    {
      "midi": 61,
      "hit": false,
      "t": 38009.97893749999,
      "d": 487.7960000000021,
      "v": 127
    },
    {
      "midi": 59,
      "hit": false,
      "t": 38291.98600000001,
      "d": 472.5523749999993,
      "v": 115
    },
    {
      "midi": 59,
      "hit": false,
      "t": 38459.665875000166,
      "d": 499.2287187500042,
      "v": 127
    },
    {
      "midi": 50,
      "hit": false,
      "t": 38459.665875000166,
      "d": 518.2832500000077,
      "v": 127
    },
    {
      "midi": 54,
      "hit": false,
      "t": 38459.665875000166,
      "d": 519.5535520833437,
      "v": 127
    },
    {
      "midi": 50,
      "hit": false,
      "t": 38497.77493749999,
      "d": 487.7960000000021,
      "v": 127
    },
    {
      "midi": 54,
      "hit": false,
      "t": 38497.77493749999,
      "d": 487.7960000000021,
      "v": 127
    },
    {
      "midi": 59,
      "hit": false,
      "t": 38497.77493749999,
      "d": 487.7960000000021,
      "v": 127
    },
    {
      "midi": 56,
      "hit": false,
      "t": 38535.88400000001,
      "d": 434.4433124999996,
      "v": 106
    },
    {
      "midi": 52,
      "hit": false,
      "t": 38779.78200000001,
      "d": 106.70537499999773,
      "v": 127
    },
    {
      "midi": 59,
      "hit": false,
      "t": 38779.782000000014,
      "d": 224.84346874999756,
      "v": 82
    },
    {
      "midi": 49,
      "hit": false,
      "t": 38947.46187500017,
      "d": 1741.5841562500063,
      "v": 127
    },
    {
      "midi": 52,
      "hit": false,
      "t": 38947.46187500017,
      "d": 1758.0980833333379,
      "v": 127
    },
    {
      "midi": 57,
      "hit": false,
      "t": 38947.46187500017,
      "d": 1768.260500000004,
      "v": 127
    },
    {
      "midi": 52,
      "hit": false,
      "t": 38985.57093749999,
      "d": 1791.1259375000009,
      "v": 127
    },
    {
      "midi": 57,
      "hit": false,
      "t": 38985.57093749999,
      "d": 1791.1259375000009,
      "v": 127
    },
    {
      "midi": 49,
      "hit": false,
      "t": 38985.57093749999,
      "d": 1792.3962395833369,
      "v": 127
    },
    {
      "midi": 54,
      "hit": false,
      "t": 39023.68000000001,
      "d": 141.00353124999674,
      "v": 127
    },
    {
      "midi": 45,
      "hit": false,
      "t": 39023.680000000015,
      "d": 1920.6967500000028,
      "v": 109
    },
    {
      "midi": 57,
      "hit": false,
      "t": 39267.578,
      "d": 78.75872916666412,
      "v": 127
    },
    {
      "midi": 61,
      "hit": false,
      "t": 39267.578000000016,
      "d": 918.428406250001,
      "v": 106
    },
    {
      "midi": 57,
      "hit": false,
      "t": 39511.476,
      "d": 67.3260104166693,
      "v": 127
    },
    {
      "midi": 57,
      "hit": false,
      "t": 39511.47600000002,
      "d": 952.7265625000073,
      "v": 127
    },
    {
      "midi": 57,
      "hit": false,
      "t": 39755.374,
      "d": 779.965479166669,
      "v": 127
    },
    {
      "midi": 64,
      "hit": false,
      "t": 39755.37400000002,
      "d": 693.5849375000034,
      "v": 112
    },
    {
      "midi": 61,
      "hit": false,
      "t": 40243.17000000002,
      "d": 438.2542187500003,
      "v": 112
    },
    {
      "midi": 57,
      "hit": false,
      "t": 40487.06800000002,
      "d": 434.4433124999996,
      "v": 118
    },
    {
      "midi": 64,
      "hit": false,
      "t": 40487.06800000002,
      "d": 434.4433124999996,
      "v": 118
    },
    {
      "midi": 61,
      "hit": false,
      "t": 40730.96600000002,
      "d": 190.54531249999854,
      "v": 109
    },
    {
      "midi": 56,
      "hit": false,
      "t": 40920.24101041684,
      "d": 1772.071406250041,
      "v": 127
    },
    {
      "midi": 64,
      "hit": false,
      "t": 40921.51131250017,
      "d": 1773.3417083333698,
      "v": 127
    },
    {
      "midi": 59,
      "hit": false,
      "t": 40921.51131250017,
      "d": 1780.9635208333711,
      "v": 127
    },
    {
      "midi": 56,
      "hit": false,
      "t": 40935.484635416666,
      "d": 1816.5319791666698,
      "v": 127
    },
    {
      "midi": 59,
      "hit": false,
      "t": 40943.10644791667,
      "d": 1808.9101666666684,
      "v": 127
    },
    {
      "midi": 64,
      "hit": false,
      "t": 40944.37675,
      "d": 1803.8289583333317,
      "v": 127
    },
    {
      "midi": 52,
      "hit": false,
      "t": 40974.864000000016,
      "d": 1913.0749375000087,
      "v": 118
    },
    {
      "midi": 59,
      "hit": false,
      "t": 41218.76200000002,
      "d": 937.4829375000045,
      "v": 103
    },
    {
      "midi": 56,
      "hit": false,
      "t": 41462.66000000002,
      "d": 937.4829375000045,
      "v": 127
    },
    {
      "midi": 64,
      "hit": false,
      "t": 41706.55800000002,
      "d": 1211.8681875000111,
      "v": 112
    },
    {
      "midi": 59,
      "hit": false,
      "t": 42194.35400000002,
      "d": 449.6869375000024,
      "v": 112
    },
    {
      "midi": 56,
      "hit": false,
      "t": 42438.25200000002,
      "d": 449.6869375000024,
      "v": 118
    },
    {
      "midi": 61,
      "hit": false,
      "t": 42682.15000000001,
      "d": 127.03020833332994,
      "v": 127
    },
    {
      "midi": 59,
      "hit": false,
      "t": 42682.15000000002,
      "d": 177.84229166666773,
      "v": 91
    },
    {
      "midi": 45,
      "hit": false,
      "t": 42893.02014583336,
      "d": 447.1463333333377,
      "v": 97
    },
    {
      "midi": 52,
      "hit": false,
      "t": 42903.18256250003,
      "d": 447.1463333333377,
      "v": 90
    },
    {
      "midi": 57,
      "hit": false,
      "t": 42913.34497916669,
      "d": 193.08591666667053,
      "v": 100
    },
    {
      "midi": 61,
      "hit": false,
      "t": 42923.50739583337,
      "d": 193.08591666666325,
      "v": 92
    },
    {
      "midi": 45,
      "hit": false,
      "t": 42926.048,
      "d": 577.9874479166683,
      "v": 127
    },
    {
      "midi": 61,
      "hit": false,
      "t": 42926.048,
      "d": 124.48960416666523,
      "v": 127
    },
    {
      "midi": 64,
      "hit": false,
      "t": 42933.66981250003,
      "d": 193.08591666666325,
      "v": 83
    },
    {
      "midi": 64,
      "hit": false,
      "t": 43134.3775416667,
      "d": 238.81679166666436,
      "v": 82
    },
    {
      "midi": 61,
      "hit": false,
      "t": 43141.9993541667,
      "d": 238.81679166666436,
      "v": 81
    },
    {
      "midi": 57,
      "hit": false,
      "t": 43152.161770833365,
      "d": 223.57316666666156,
      "v": 80
    },
    {
      "midi": 61,
      "hit": false,
      "t": 43169.946,
      "d": 114.32718749999913,
      "v": 127
    },
    {
      "midi": 45,
      "hit": false,
      "t": 43401.140979166696,
      "d": 442.0651249999937,
      "v": 88
    },
    {
      "midi": 52,
      "hit": false,
      "t": 43403.68158333336,
      "d": 467.4711666666626,
      "v": 92
    },
    {
      "midi": 57,
      "hit": false,
      "t": 43406.222187500025,
      "d": 444.6057291666657,
      "v": 117
    },
    {
      "midi": 61,
      "hit": false,
      "t": 43408.76279166669,
      "d": 436.9839166666643,
      "v": 122
    },
    {
      "midi": 64,
      "hit": false,
      "t": 43411.303395833354,
      "d": 452.2275416666671,
      "v": 126
    },
    {
      "midi": 61,
      "hit": false,
      "t": 43413.844000000005,
      "d": 120.67869791666453,
      "v": 127
    },
    {
      "midi": 45,
      "hit": false,
      "t": 43657.742000000006,
      "d": 232.46528124999895,
      "v": 127
    },
    {
      "midi": 61,
      "hit": false,
      "t": 43657.742000000006,
      "d": 119.40839583333582,
      "v": 127
    },
    {
      "midi": 45,
      "hit": false,
      "t": 43878.774562500024,
      "d": 231.19497916666296,
      "v": 95
    },
    {
      "midi": 52,
      "hit": false,
      "t": 43888.93697916669,
      "d": 208.32954166666605,
      "v": 88
    },
    {
      "midi": 57,
      "hit": false,
      "t": 43899.09939583336,
      "d": 193.08591666666325,
      "v": 98
    },
    {
      "midi": 40,
      "hit": false,
      "t": 43901.64000000001,
      "d": 641.5025520833369,
      "v": 127
    },
    {
      "midi": 61,
      "hit": false,
      "t": 43901.64000000001,
      "d": 118.13809374999983,
      "v": 127
    },
    {
      "midi": 61,
      "hit": false,
      "t": 43909.26181250002,
      "d": 436.983916666657,
      "v": 90
    },
    {
      "midi": 64,
      "hit": false,
      "t": 43918.15392708335,
      "d": 452.2275416666598,
      "v": 83
    },
    {
      "midi": 57,
      "hit": false,
      "t": 44137.91618750002,
      "d": 193.08591666666325,
      "v": 85
    },
    {
      "midi": 61,
      "hit": false,
      "t": 44145.53800000001,
      "d": 121.94900000000052,
      "v": 127
    },
    {
      "midi": 52,
      "hit": false,
      "t": 44150.61920833335,
      "d": 193.08591666666325,
      "v": 71
    },
    {
      "midi": 45,
      "hit": false,
      "t": 44163.32222916668,
      "d": 193.08591666666325,
      "v": 72
    },
    {
      "midi": 45,
      "hit": false,
      "t": 44366.57056250001,
      "d": 452.2275416666598,
      "v": 88
    },
    {
      "midi": 52,
      "hit": false,
      "t": 44369.11116666668,
      "d": 452.2275416666598,
      "v": 92
    },
    {
      "midi": 57,
      "hit": false,
      "t": 44371.65177083335,
      "d": 208.32954166666605,
      "v": 117
    },
    {
      "midi": 61,
      "hit": false,
      "t": 44374.19237500001,
      "d": 215.95135416666744,
      "v": 122
    },
    {
      "midi": 64,
      "hit": false,
      "t": 44376.73297916668,
      "d": 198.16712499999994,
      "v": 126
    },
    {
      "midi": 64,
      "hit": false,
      "t": 44607.92795833335,
      "d": 185.46410416666185,
      "v": 104
    },
    {
      "midi": 61,
      "hit": false,
      "t": 44618.090375000014,
      "d": 177.84229166666046,
      "v": 98
    },
    {
      "midi": 57,
      "hit": false,
      "t": 44630.793395833345,
      "d": 193.08591666665598,
      "v": 90
    },
    {
      "midi": 40,
      "hit": false,
      "t": 44633.33400000001,
      "d": 224.84346874999756,
      "v": 127
    },
    {
      "midi": 61,
      "hit": false,
      "t": 44633.33400000001,
      "d": 109.24597916666971,
      "v": 127
    },
    {
      "midi": 45,
      "hit": false,
      "t": 44844.20414583333,
      "d": 447.1463333333304,
      "v": 97
    },
    {
      "midi": 52,
      "hit": false,
      "t": 44854.3665625,
      "d": 447.1463333333304,
      "v": 90
    },
    {
      "midi": 57,
      "hit": false,
      "t": 44864.528979166666,
      "d": 193.08591666666325,
      "v": 100
    },
    {
      "midi": 61,
      "hit": false,
      "t": 44874.69139583333,
      "d": 193.08591666666325,
      "v": 92
    },
    {
      "midi": 45,
      "hit": false,
      "t": 44877.23200000001,
      "d": 590.6904687499991,
      "v": 127
    },
    {
      "midi": 61,
      "hit": false,
      "t": 44877.23200000001,
      "d": 118.13809374999983,
      "v": 127
    },
    {
      "midi": 64,
      "hit": false,
      "t": 44884.8538125,
      "d": 193.08591666666325,
      "v": 83
    },
    {
      "midi": 64,
      "hit": false,
      "t": 45085.56154166666,
      "d": 238.81679166666436,
      "v": 82
    },
    {
      "midi": 61,
      "hit": false,
      "t": 45093.183354166664,
      "d": 238.81679166666436,
      "v": 81
    },
    {
      "midi": 57,
      "hit": false,
      "t": 45103.34577083333,
      "d": 223.57316666666156,
      "v": 80
    },
    {
      "midi": 61,
      "hit": false,
      "t": 45121.13000000001,
      "d": 110.51628124999843,
      "v": 127
    },
    {
      "midi": 45,
      "hit": false,
      "t": 45352.32497916666,
      "d": 442.0651249999937,
      "v": 88
    },
    {
      "midi": 52,
      "hit": false,
      "t": 45354.865583333325,
      "d": 467.4711666666626,
      "v": 92
    },
    {
      "midi": 57,
      "hit": false,
      "t": 45357.40618749999,
      "d": 444.6057291666657,
      "v": 117
    },
    {
      "midi": 61,
      "hit": false,
      "t": 45359.946791666654,
      "d": 436.9839166666643,
      "v": 122
    },
    {
      "midi": 64,
      "hit": false,
      "t": 45362.48739583332,
      "d": 452.2275416666671,
      "v": 126
    },
    {
      "midi": 61,
      "hit": false,
      "t": 45365.02800000001,
      "d": 105.43507291666901,
      "v": 127
    },
    {
      "midi": 45,
      "hit": false,
      "t": 45608.92600000001,
      "d": 240.08709375000035,
      "v": 127
    },
    {
      "midi": 61,
      "hit": false,
      "t": 45608.926000000014,
      "d": 143.54413541666872,
      "v": 127
    },
    {
      "midi": 45,
      "hit": false,
      "t": 45829.95856249999,
      "d": 231.19497916666296,
      "v": 95
    },
    {
      "midi": 52,
      "hit": false,
      "t": 45840.120979166655,
      "d": 208.32954166666605,
      "v": 88
    },
    {
      "midi": 57,
      "hit": false,
      "t": 45850.28339583332,
      "d": 193.08591666666325,
      "v": 98
    },
    {
      "midi": 40,
      "hit": false,
      "t": 45852.82400000001,
      "d": 532.2565729166672,
      "v": 127
    },
    {
      "midi": 59,
      "hit": false,
      "t": 45852.824000000015,
      "d": 194.35621874999924,
      "v": 127
    },
    {
      "midi": 61,
      "hit": false,
      "t": 45860.44581249999,
      "d": 436.983916666657,
      "v": 90
    },
    {
      "midi": 64,
      "hit": false,
      "t": 45869.33792708332,
      "d": 452.2275416666598,
      "v": 83
    },
    {
      "midi": 57,
      "hit": false,
      "t": 46089.100187499986,
      "d": 193.08591666666325,
      "v": 85
    },
    {
      "midi": 57,
      "hit": false,
      "t": 46096.722000000016,
      "d": 393.7936458333352,
      "v": 127
    },
    {
      "midi": 52,
      "hit": false,
      "t": 46101.80320833332,
      "d": 193.08591666666325,
      "v": 71
    },
    {
      "midi": 45,
      "hit": false,
      "t": 46114.50622916665,
      "d": 193.08591666666325,
      "v": 72
    },
    {
      "midi": 45,
      "hit": false,
      "t": 46317.75456249998,
      "d": 452.2275416666598,
      "v": 88
    },
    {
      "midi": 52,
      "hit": false,
      "t": 46320.29516666664,
      "d": 452.2275416666598,
      "v": 92
    },
    {
      "midi": 57,
      "hit": false,
      "t": 46322.83577083331,
      "d": 208.32954166666605,
      "v": 117
    },
    {
      "midi": 61,
      "hit": false,
      "t": 46325.37637499998,
      "d": 215.95135416666744,
      "v": 122
    },
    {
      "midi": 64,
      "hit": false,
      "t": 46327.91697916664,
      "d": 198.16712499999994,
      "v": 126
    },
    {
      "midi": 45,
      "hit": false,
      "t": 46340.62000000001,
      "d": 233.73558333333494,
      "v": 127
    },
    {
      "midi": 64,
      "hit": false,
      "t": 46559.11195833331,
      "d": 185.46410416666185,
      "v": 104
    },
    {
      "midi": 61,
      "hit": false,
      "t": 46569.27437499998,
      "d": 177.84229166666046,
      "v": 98
    },
    {
      "midi": 57,
      "hit": false,
      "t": 46581.97739583331,
      "d": 193.08591666665598,
      "v": 90
    },
    {
      "midi": 40,
      "hit": false,
      "t": 46584.51800000001,
      "d": 221.03256249999686,
      "v": 127
    },
    {
      "midi": 62,
      "hit": false,
      "t": 46584.51800000002,
      "d": 92.73205208333093,
      "v": 127
    },
    {
      "midi": 50,
      "hit": false,
      "t": 46795.3881458333,
      "d": 447.1463333333304,
      "v": 97
    },
    {
      "midi": 54,
      "hit": false,
      "t": 46805.550562499964,
      "d": 447.1463333333304,
      "v": 90
    },
    {
      "midi": 57,
      "hit": false,
      "t": 46815.71297916663,
      "d": 193.08591666666325,
      "v": 100
    },
    {
      "midi": 62,
      "hit": false,
      "t": 46825.875395833296,
      "d": 193.08591666666325,
      "v": 92
    },
    {
      "midi": 38,
      "hit": false,
      "t": 46828.416000000005,
      "d": 612.2856041666673,
      "v": 127
    },
    {
      "midi": 62,
      "hit": false,
      "t": 46828.41600000002,
      "d": 90.19144791666622,
      "v": 127
    },
    {
      "midi": 66,
      "hit": false,
      "t": 46836.03781249996,
      "d": 193.08591666666325,
      "v": 83
    },
    {
      "midi": 66,
      "hit": false,
      "t": 47036.74554166663,
      "d": 238.81679166666436,
      "v": 82
    },
    {
      "midi": 62,
      "hit": false,
      "t": 47044.36735416663,
      "d": 238.81679166666436,
      "v": 81
    },
    {
      "midi": 57,
      "hit": false,
      "t": 47054.529770833295,
      "d": 223.57316666666156,
      "v": 80
    },
    {
      "midi": 62,
      "hit": false,
      "t": 47072.31400000002,
      "d": 92.73205208333093,
      "v": 127
    },
    {
      "midi": 50,
      "hit": false,
      "t": 47303.508979166625,
      "d": 442.0651249999937,
      "v": 88
    },
    {
      "midi": 54,
      "hit": false,
      "t": 47306.04958333329,
      "d": 467.4711666666626,
      "v": 92
    },
    {
      "midi": 57,
      "hit": false,
      "t": 47308.590187499954,
      "d": 444.6057291666657,
      "v": 117
    },
    {
      "midi": 62,
      "hit": false,
      "t": 47311.13079166662,
      "d": 436.9839166666643,
      "v": 122
    },
    {
      "midi": 66,
      "hit": false,
      "t": 47313.671395833284,
      "d": 452.2275416666671,
      "v": 126
    },
    {
      "midi": 62,
      "hit": false,
      "t": 47316.21200000002,
      "d": 100.35386458333232,
      "v": 127
    },
    {
      "midi": 38,
      "hit": false,
      "t": 47560.11000000001,
      "d": 193.08591666666325,
      "v": 127
    },
    {
      "midi": 62,
      "hit": false,
      "t": 47560.11000000002,
      "d": 96.54295833333163,
      "v": 127
    },
    {
      "midi": 50,
      "hit": false,
      "t": 47781.142562499954,
      "d": 231.19497916666296,
      "v": 95
    },
    {
      "midi": 54,
      "hit": false,
      "t": 47791.30497916662,
      "d": 208.32954166666605,
      "v": 88
    },
    {
      "midi": 57,
      "hit": false,
      "t": 47801.467395833286,
      "d": 193.08591666666325,
      "v": 98
    },
    {
      "midi": 33,
      "hit": false,
      "t": 47804.008,
      "d": 612.2856041666673,
      "v": 127
    },
    {
      "midi": 62,
      "hit": false,
      "t": 47804.00800000002,
      "d": 114.32718749999913,
      "v": 127
    },
    {
      "midi": 62,
      "hit": false,
      "t": 47811.62981249995,
      "d": 436.983916666657,
      "v": 90
    },
    {
      "midi": 66,
      "hit": false,
      "t": 47820.52192708328,
      "d": 452.2275416666598,
      "v": 83
    },
    {
      "midi": 57,
      "hit": false,
      "t": 48040.28418749995,
      "d": 193.08591666666325,
      "v": 85
    },
    {
      "midi": 62,
      "hit": false,
      "t": 48047.906000000025,
      "d": 107.97567708333372,
      "v": 127
    },
    {
      "midi": 54,
      "hit": false,
      "t": 48052.98720833328,
      "d": 193.08591666666325,
      "v": 71
    },
    {
      "midi": 50,
      "hit": false,
      "t": 48065.69022916661,
      "d": 193.08591666666325,
      "v": 72
    },
    {
      "midi": 50,
      "hit": false,
      "t": 48268.93856249994,
      "d": 452.2275416666598,
      "v": 88
    },
    {
      "midi": 54,
      "hit": false,
      "t": 48271.479166666606,
      "d": 452.2275416666598,
      "v": 92
    },
    {
      "midi": 57,
      "hit": false,
      "t": 48274.01977083328,
      "d": 208.32954166666605,
      "v": 117
    },
    {
      "midi": 62,
      "hit": false,
      "t": 48276.56037499994,
      "d": 215.95135416666744,
      "v": 122
    },
    {
      "midi": 66,
      "hit": false,
      "t": 48279.10097916661,
      "d": 198.16712499999994,
      "v": 126
    },
    {
      "midi": 62,
      "hit": false,
      "t": 48291.804000000026,
      "d": 113.05688541666314,
      "v": 127
    },
    {
      "midi": 66,
      "hit": false,
      "t": 48510.29595833328,
      "d": 185.46410416666185,
      "v": 104
    },
    {
      "midi": 62,
      "hit": false,
      "t": 48520.458374999944,
      "d": 177.84229166666046,
      "v": 98
    },
    {
      "midi": 57,
      "hit": false,
      "t": 48533.161395833275,
      "d": 193.08591666665598,
      "v": 90
    },
    {
      "midi": 33,
      "hit": false,
      "t": 48535.702000000005,
      "d": 235.00588541666366,
      "v": 127
    },
    {
      "midi": 62,
      "hit": false,
      "t": 48535.70200000002,
      "d": 101.62416666666832,
      "v": 127
    },
    {
      "midi": 50,
      "hit": false,
      "t": 48746.57214583326,
      "d": 447.1463333333304,
      "v": 97
    },
    {
      "midi": 54,
      "hit": false,
      "t": 48756.73456249993,
      "d": 447.1463333333304,
      "v": 90
    },
    {
      "midi": 57,
      "hit": false,
      "t": 48766.896979166595,
      "d": 193.08591666666325,
      "v": 100
    },
    {
      "midi": 62,
      "hit": false,
      "t": 48777.05939583326,
      "d": 193.08591666666325,
      "v": 92
    },
    {
      "midi": 38,
      "hit": false,
      "t": 48779.6,
      "d": 556.3923125000001,
      "v": 127
    },
    {
      "midi": 62,
      "hit": false,
      "t": 48779.60000000002,
      "d": 97.81326041666762,
      "v": 127
    },
    {
      "midi": 66,
      "hit": false,
      "t": 48787.22181249993,
      "d": 193.08591666666325,
      "v": 83
    },
    {
      "midi": 66,
      "hit": false,
      "t": 48987.92954166659,
      "d": 238.81679166666436,
      "v": 82
    },
    {
      "midi": 62,
      "hit": false,
      "t": 48995.55135416659,
      "d": 238.81679166666436,
      "v": 81
    },
    {
      "midi": 57,
      "hit": false,
      "t": 49005.71377083326,
      "d": 223.57316666666156,
      "v": 80
    },
    {
      "midi": 62,
      "hit": false,
      "t": 49023.49800000002,
      "d": 101.62416666666832,
      "v": 127
    },
    {
      "midi": 50,
      "hit": false,
      "t": 49254.69297916659,
      "d": 442.0651249999937,
      "v": 88
    },
    {
      "midi": 54,
      "hit": false,
      "t": 49257.233583333255,
      "d": 467.4711666666626,
      "v": 92
    },
    {
      "midi": 57,
      "hit": false,
      "t": 49259.77418749992,
      "d": 444.6057291666657,
      "v": 117
    },
    {
      "midi": 62,
      "hit": false,
      "t": 49262.314791666584,
      "d": 436.9839166666643,
      "v": 122
    },
    {
      "midi": 66,
      "hit": false,
      "t": 49264.85539583325,
      "d": 452.2275416666671,
      "v": 126
    },
    {
      "midi": 62,
      "hit": false,
      "t": 49267.39600000002,
      "d": 110.51628124999843,
      "v": 127
    },
    {
      "midi": 38,
      "hit": false,
      "t": 49511.294,
      "d": 201.97803125000064,
      "v": 127
    },
    {
      "midi": 62,
      "hit": false,
      "t": 49511.29400000002,
      "d": 113.05688541666314,
      "v": 127
    },
    {
      "midi": 50,
      "hit": false,
      "t": 49732.32656249992,
      "d": 231.19497916666296,
      "v": 95
    },
    {
      "midi": 54,
      "hit": false,
      "t": 49742.488979166585,
      "d": 208.32954166666605,
      "v": 88
    },
    {
      "midi": 57,
      "hit": false,
      "t": 49752.65139583325,
      "d": 193.08591666666325,
      "v": 98
    },
    {
      "midi": 33,
      "hit": false,
      "t": 49755.192,
      "d": 508.1208333333343,
      "v": 127
    },
    {
      "midi": 62,
      "hit": false,
      "t": 49755.19200000002,
      "d": 443.3354270833297,
      "v": 127
    },
    {
      "midi": 62,
      "hit": false,
      "t": 49762.81381249992,
      "d": 436.983916666657,
      "v": 90
    },
    {
      "midi": 66,
      "hit": false,
      "t": 49771.70592708325,
      "d": 452.2275416666598,
      "v": 83
    },
    {
      "midi": 57,
      "hit": false,
      "t": 49991.468187499915,
      "d": 193.08591666666325,
      "v": 85
    },
    {
      "midi": 54,
      "hit": false,
      "t": 50004.171208333246,
      "d": 193.08591666666325,
      "v": 71
    },
    {
      "midi": 50,
      "hit": false,
      "t": 50016.87422916658,
      "d": 193.08591666666325,
      "v": 72
    },
    {
      "midi": 50,
      "hit": false,
      "t": 50220.122562499906,
      "d": 452.2275416666598,
      "v": 88
    },
    {
      "midi": 54,
      "hit": false,
      "t": 50222.66316666657,
      "d": 452.2275416666598,
      "v": 92
    },
    {
      "midi": 57,
      "hit": false,
      "t": 50225.20377083324,
      "d": 208.32954166666605,
      "v": 117
    },
    {
      "midi": 62,
      "hit": false,
      "t": 50227.74437499991,
      "d": 215.95135416666744,
      "v": 122
    },
    {
      "midi": 66,
      "hit": false,
      "t": 50230.28497916657,
      "d": 198.16712499999994,
      "v": 126
    },
    {
      "midi": 38,
      "hit": false,
      "t": 50242.988000000005,
      "d": 223.57316666666884,
      "v": 127
    },
    {
      "midi": 61,
      "hit": false,
      "t": 50242.98800000001,
      "d": 158.78776041666424,
      "v": 127
    },
    {
      "midi": 66,
      "hit": false,
      "t": 50461.47995833324,
      "d": 185.46410416666185,
      "v": 104
    },
    {
      "midi": 62,
      "hit": false,
      "t": 50471.64237499991,
      "d": 177.84229166666046,
      "v": 98
    },
    {
      "midi": 57,
      "hit": false,
      "t": 50484.34539583324,
      "d": 193.08591666665598,
      "v": 90
    },
    {
      "midi": 39,
      "hit": false,
      "t": 50486.886000000006,
      "d": 241.35739583333634,
      "v": 127
    },
    {
      "midi": 62,
      "hit": false,
      "t": 50486.88600000001,
      "d": 137.19262500000332,
      "v": 127
    },
    {
      "midi": 40,
      "hit": false,
      "t": 50697.75614583323,
      "d": 447.1463333333304,
      "v": 80
    },
    {
      "midi": 47,
      "hit": false,
      "t": 50707.91856249989,
      "d": 447.1463333333304,
      "v": 90
    },
    {
      "midi": 52,
      "hit": false,
      "t": 50718.08097916656,
      "d": 193.08591666666325,
      "v": 83
    },
    {
      "midi": 56,
      "hit": false,
      "t": 50728.243395833226,
      "d": 193.08591666666325,
      "v": 92
    },
    {
      "midi": 40,
      "hit": false,
      "t": 50730.78400000001,
      "d": 566.5547291666662,
      "v": 127
    },
    {
      "midi": 64,
      "hit": false,
      "t": 50730.784000000014,
      "d": 97.81326041666762,
      "v": 127
    },
    {
      "midi": 59,
      "hit": false,
      "t": 50738.40581249989,
      "d": 193.08591666666325,
      "v": 83
    },
    {
      "midi": 59,
      "hit": false,
      "t": 50939.11354166656,
      "d": 238.81679166666436,
      "v": 82
    },
    {
      "midi": 56,
      "hit": false,
      "t": 50946.73535416656,
      "d": 238.81679166666436,
      "v": 81
    },
    {
      "midi": 52,
      "hit": false,
      "t": 50956.897770833224,
      "d": 223.57316666666156,
      "v": 66
    },
    {
      "midi": 64,
      "hit": false,
      "t": 50974.682000000015,
      "d": 118.13809374999983,
      "v": 127
    },
    {
      "midi": 40,
      "hit": false,
      "t": 51205.876979166555,
      "d": 442.0651249999937,
      "v": 73
    },
    {
      "midi": 47,
      "hit": false,
      "t": 51208.41758333322,
      "d": 467.4711666666626,
      "v": 92
    },
    {
      "midi": 52,
      "hit": false,
      "t": 51210.958187499884,
      "d": 444.6057291666657,
      "v": 97
    },
    {
      "midi": 56,
      "hit": false,
      "t": 51213.49879166655,
      "d": 436.9839166666643,
      "v": 122
    },
    {
      "midi": 59,
      "hit": false,
      "t": 51216.03939583321,
      "d": 452.2275416666671,
      "v": 126
    },
    {
      "midi": 64,
      "hit": false,
      "t": 51218.580000000016,
      "d": 317.57552083333576,
      "v": 127
    },
    {
      "midi": 40,
      "hit": false,
      "t": 51462.47800000001,
      "d": 219.76226041666814,
      "v": 127
    },
    {
      "midi": 40,
      "hit": false,
      "t": 51683.51056249988,
      "d": 231.19497916666296,
      "v": 79
    },
    {
      "midi": 47,
      "hit": false,
      "t": 51693.67297916655,
      "d": 208.32954166666605,
      "v": 88
    },
    {
      "midi": 52,
      "hit": false,
      "t": 51703.835395833215,
      "d": 193.08591666666325,
      "v": 81
    },
    {
      "midi": 35,
      "hit": false,
      "t": 51706.37600000001,
      "d": 570.3656354166669,
      "v": 127
    },
    {
      "midi": 64,
      "hit": false,
      "t": 51706.37600000002,
      "d": 327.73793750000186,
      "v": 127
    },
    {
      "midi": 56,
      "hit": false,
      "t": 51713.99781249988,
      "d": 436.983916666657,
      "v": 90
    },
    {
      "midi": 59,
      "hit": false,
      "t": 51722.88992708321,
      "d": 452.2275416666598,
      "v": 83
    },
    {
      "midi": 52,
      "hit": false,
      "t": 51942.65218749988,
      "d": 193.08591666666325,
      "v": 70
    },
    {
      "midi": 47,
      "hit": false,
      "t": 51955.35520833321,
      "d": 193.08591666666325,
      "v": 71
    },
    {
      "midi": 40,
      "hit": false,
      "t": 51968.05822916654,
      "d": 193.08591666666325,
      "v": 60
    },
    {
      "midi": 40,
      "hit": false,
      "t": 52171.30656249987,
      "d": 452.2275416666598,
      "v": 73
    },
    {
      "midi": 47,
      "hit": false,
      "t": 52173.847166666535,
      "d": 452.2275416666598,
      "v": 92
    },
    {
      "midi": 52,
      "hit": false,
      "t": 52176.38777083321,
      "d": 208.32954166666605,
      "v": 97
    },
    {
      "midi": 56,
      "hit": false,
      "t": 52178.92837499987,
      "d": 215.95135416666744,
      "v": 122
    },
    {
      "midi": 59,
      "hit": false,
      "t": 52181.46897916654,
      "d": 198.16712499999994,
      "v": 126
    },
    {
      "midi": 64,
      "hit": false,
      "t": 52194.17200000002,
      "d": 104.16477083333302,
      "v": 127
    },
    {
      "midi": 59,
      "hit": false,
      "t": 52412.66395833321,
      "d": 185.46410416666185,
      "v": 104
    },
    {
      "midi": 56,
      "hit": false,
      "t": 52422.82637499987,
      "d": 177.84229166666046,
      "v": 98
    },
    {
      "midi": 52,
      "hit": false,
      "t": 52435.529395833204,
      "d": 193.08591666665598,
      "v": 75
    },
    {
      "midi": 35,
      "hit": false,
      "t": 52438.070000000014,
      "d": 222.30286458333285,
      "v": 127
    },
    {
      "midi": 64,
      "hit": false,
      "t": 52438.07000000002,
      "d": 99.08356250000361,
      "v": 127
    },
    {
      "midi": 40,
      "hit": false,
      "t": 52648.94014583319,
      "d": 447.1463333333304,
      "v": 80
    },
    {
      "midi": 47,
      "hit": false,
      "t": 52659.10256249986,
      "d": 447.1463333333304,
      "v": 90
    },
    {
      "midi": 52,
      "hit": false,
      "t": 52669.264979166524,
      "d": 193.08591666666325,
      "v": 83
    },
    {
      "midi": 56,
      "hit": false,
      "t": 52679.42739583319,
      "d": 193.08591666666325,
      "v": 92
    },
    {
      "midi": 40,
      "hit": false,
      "t": 52681.968000000015,
      "d": 584.3389583333337,
      "v": 127
    },
    {
      "midi": 64,
      "hit": false,
      "t": 52681.96800000002,
      "d": 105.43507291666901,
      "v": 127
    },
    {
      "midi": 59,
      "hit": false,
      "t": 52689.58981249986,
      "d": 193.08591666666325,
      "v": 83
    },
    {
      "midi": 59,
      "hit": false,
      "t": 52890.29754166652,
      "d": 238.81679166666436,
      "v": 82
    },
    {
      "midi": 56,
      "hit": false,
      "t": 52897.91935416652,
      "d": 238.81679166666436,
      "v": 81
    },
    {
      "midi": 52,
      "hit": false,
      "t": 52908.08177083319,
      "d": 223.57316666666156,
      "v": 66
    },
    {
      "midi": 64,
      "hit": false,
      "t": 52925.86600000002,
      "d": 100.35386458333232,
      "v": 127
    },
    {
      "midi": 40,
      "hit": false,
      "t": 53157.06097916652,
      "d": 442.0651249999937,
      "v": 73
    },
    {
      "midi": 47,
      "hit": false,
      "t": 53159.601583333184,
      "d": 467.4711666666626,
      "v": 92
    },
    {
      "midi": 52,
      "hit": false,
      "t": 53162.14218749985,
      "d": 444.6057291666657,
      "v": 97
    },
    {
      "midi": 56,
      "hit": false,
      "t": 53164.68279166651,
      "d": 436.9839166666643,
      "v": 122
    },
    {
      "midi": 59,
      "hit": false,
      "t": 53167.22339583318,
      "d": 452.2275416666671,
      "v": 126
    },
    {
      "midi": 64,
      "hit": false,
      "t": 53169.764000000025,
      "d": 229.92467708333425,
      "v": 127
    },
    {
      "midi": 40,
      "hit": false,
      "t": 53413.66200000002,
      "d": 224.84346874999756,
      "v": 127
    },
    {
      "midi": 40,
      "hit": false,
      "t": 53634.69456249985,
      "d": 231.19497916666296,
      "v": 79
    },
    {
      "midi": 47,
      "hit": false,
      "t": 53644.856979166514,
      "d": 208.32954166666605,
      "v": 88
    },
    {
      "midi": 52,
      "hit": false,
      "t": 53655.01939583318,
      "d": 193.08591666666325,
      "v": 81
    },
    {
      "midi": 35,
      "hit": false,
      "t": 53657.56000000002,
      "d": 417.9293854166681,
      "v": 127
    },
    {
      "midi": 64,
      "hit": false,
      "t": 53657.56000000003,
      "d": 654.2055729166677,
      "v": 127
    },
    {
      "midi": 56,
      "hit": false,
      "t": 53665.181812499846,
      "d": 436.983916666657,
      "v": 90
    },
    {
      "midi": 59,
      "hit": false,
      "t": 53674.07392708318,
      "d": 452.2275416666598,
      "v": 83
    },
    {
      "midi": 52,
      "hit": false,
      "t": 53893.836187499845,
      "d": 193.08591666666325,
      "v": 70
    },
    {
      "midi": 47,
      "hit": false,
      "t": 53906.539208333175,
      "d": 193.08591666666325,
      "v": 71
    },
    {
      "midi": 40,
      "hit": false,
      "t": 53919.242229166506,
      "d": 193.08591666666325,
      "v": 60
    },
    {
      "midi": 40,
      "hit": false,
      "t": 54122.490562499836,
      "d": 452.2275416666598,
      "v": 73
    },
    {
      "midi": 47,
      "hit": false,
      "t": 54125.0311666665,
      "d": 452.2275416666598,
      "v": 92
    },
    {
      "midi": 52,
      "hit": false,
      "t": 54127.57177083317,
      "d": 208.32954166666605,
      "v": 97
    },
    {
      "midi": 56,
      "hit": false,
      "t": 54130.11237499984,
      "d": 215.95135416666744,
      "v": 122
    },
    {
      "midi": 59,
      "hit": false,
      "t": 54132.6529791665,
      "d": 198.16712499999994,
      "v": 126
    },
    {
      "midi": 40,
      "hit": false,
      "t": 54145.35600000002,
      "d": 242.62769791666506,
      "v": 127
    },
    {
      "midi": 59,
      "hit": false,
      "t": 54363.84795833317,
      "d": 185.46410416666185,
      "v": 104
    },
    {
      "midi": 56,
      "hit": false,
      "t": 54374.01037499984,
      "d": 177.84229166666046,
      "v": 98
    },
    {
      "midi": 52,
      "hit": false,
      "t": 54386.71339583317,
      "d": 193.08591666665598,
      "v": 75
    },
    {
      "midi": 44,
      "hit": false,
      "t": 54389.25400000002,
      "d": 199.43742708333593,
      "v": 127
    },
    {
      "midi": 62,
      "hit": false,
      "t": 54389.25400000003,
      "d": 101.62416666666832,
      "v": 127
    },
    {
      "midi": 45,
      "hit": false,
      "t": 54600.12414583316,
      "d": 447.1463333333304,
      "v": 97
    },
    {
      "midi": 52,
      "hit": false,
      "t": 54610.28656249982,
      "d": 447.1463333333304,
      "v": 90
    },
    {
      "midi": 57,
      "hit": false,
      "t": 54620.44897916649,
      "d": 193.08591666666325,
      "v": 100
    },
    {
      "midi": 61,
      "hit": false,
      "t": 54630.611395833155,
      "d": 193.08591666666325,
      "v": 92
    },
    {
      "midi": 45,
      "hit": false,
      "t": 54633.152000000024,
      "d": 635.1510416666642,
      "v": 127
    },
    {
      "midi": 62,
      "hit": false,
      "t": 54633.15200000003,
      "d": 243.89800000000105,
      "v": 127
    },
    {
      "midi": 64,
      "hit": false,
      "t": 54640.77381249982,
      "d": 193.08591666666325,
      "v": 83
    },
    {
      "midi": 64,
      "hit": false,
      "t": 54841.481541666486,
      "d": 238.81679166666436,
      "v": 82
    },
    {
      "midi": 61,
      "hit": false,
      "t": 54849.10335416649,
      "d": 238.81679166666436,
      "v": 81
    },
    {
      "midi": 57,
      "hit": false,
      "t": 54859.26577083315,
      "d": 223.57316666666156,
      "v": 80
    },
    {
      "midi": 61,
      "hit": false,
      "t": 54877.05000000003,
      "d": 243.89800000000105,
      "v": 127
    },
    {
      "midi": 45,
      "hit": false,
      "t": 55108.244979166484,
      "d": 442.0651249999937,
      "v": 88
    },
    {
      "midi": 52,
      "hit": false,
      "t": 55110.78558333315,
      "d": 467.4711666666626,
      "v": 92
    },
    {
      "midi": 57,
      "hit": false,
      "t": 55113.32618749981,
      "d": 444.6057291666657,
      "v": 117
    },
    {
      "midi": 61,
      "hit": false,
      "t": 55115.86679166648,
      "d": 436.9839166666643,
      "v": 122
    },
    {
      "midi": 64,
      "hit": false,
      "t": 55118.40739583314,
      "d": 452.2275416666671,
      "v": 126
    },
    {
      "midi": 45,
      "hit": false,
      "t": 55364.84600000002,
      "d": 215.95135416666744,
      "v": 127
    },
    {
      "midi": 45,
      "hit": false,
      "t": 55585.87856249981,
      "d": 231.19497916666296,
      "v": 95
    },
    {
      "midi": 52,
      "hit": false,
      "t": 55596.04097916648,
      "d": 208.32954166666605,
      "v": 88
    },
    {
      "midi": 57,
      "hit": false,
      "t": 55606.203395833145,
      "d": 193.08591666666325,
      "v": 98
    },
    {
      "midi": 40,
      "hit": false,
      "t": 55608.74400000002,
      "d": 483.9850937500014,
      "v": 127
    },
    {
      "midi": 61,
      "hit": false,
      "t": 55616.36581249981,
      "d": 436.983916666657,
      "v": 90
    },
    {
      "midi": 64,
      "hit": false,
      "t": 55625.25792708314,
      "d": 452.2275416666598,
      "v": 83
    },
    {
      "midi": 57,
      "hit": false,
      "t": 55845.02018749981,
      "d": 193.08591666666325,
      "v": 85
    },
    {
      "midi": 52,
      "hit": false,
      "t": 55857.72320833314,
      "d": 193.08591666666325,
      "v": 71
    },
    {
      "midi": 45,
      "hit": false,
      "t": 55870.42622916647,
      "d": 193.08591666666325,
      "v": 72
    },
    {
      "midi": 45,
      "hit": false,
      "t": 56073.6745624998,
      "d": 452.2275416666598,
      "v": 88
    },
    {
      "midi": 52,
      "hit": false,
      "t": 56076.215166666465,
      "d": 452.2275416666598,
      "v": 92
    },
    {
      "midi": 57,
      "hit": false,
      "t": 56078.75577083314,
      "d": 208.32954166666605,
      "v": 117
    },
    {
      "midi": 61,
      "hit": false,
      "t": 56081.2963749998,
      "d": 215.95135416666744,
      "v": 122
    },
    {
      "midi": 64,
      "hit": false,
      "t": 56083.836979166466,
      "d": 198.16712499999994,
      "v": 126
    },
    {
      "midi": 38,
      "hit": false,
      "t": 56096.54000000002,
      "d": 231.19497916667024,
      "v": 127
    },
    {
      "midi": 64,
      "hit": false,
      "t": 56315.03195833314,
      "d": 185.46410416666185,
      "v": 104
    },
    {
      "midi": 61,
      "hit": false,
      "t": 56325.1943749998,
      "d": 177.84229166666046,
      "v": 98
    },
    {
      "midi": 57,
      "hit": false,
      "t": 56337.89739583313,
      "d": 193.08591666665598,
      "v": 90
    },
    {
      "midi": 39,
      "hit": false,
      "t": 56340.438000000024,
      "d": 226.11377083333355,
      "v": 127
    },
    {
      "midi": 40,
      "hit": false,
      "t": 56551.30814583312,
      "d": 447.1463333333304,
      "v": 80
    },
    {
      "midi": 47,
      "hit": false,
      "t": 56561.47056249979,
      "d": 447.1463333333304,
      "v": 75
    },
    {
      "midi": 64,
      "hit": false,
      "t": 56562.740864583335,
      "d": 5710.007864583335,
      "v": 127
    },
    {
      "midi": 52,
      "hit": false,
      "t": 56571.632979166454,
      "d": 193.08591666666325,
      "v": 69
    },
    {
      "midi": 56,
      "hit": false,
      "t": 56581.79539583312,
      "d": 193.08591666666325,
      "v": 92
    },
    {
      "midi": 40,
      "hit": false,
      "t": 56584.336000000025,
      "d": 599.5825833333365,
      "v": 127
    },
    {
      "midi": 59,
      "hit": false,
      "t": 56591.957812499786,
      "d": 193.08591666666325,
      "v": 83
    },
    {
      "midi": 59,
      "hit": false,
      "t": 56792.66554166645,
      "d": 238.81679166666436,
      "v": 82
    },
    {
      "midi": 56,
      "hit": false,
      "t": 56800.28735416645,
      "d": 238.81679166666436,
      "v": 81
    },
    {
      "midi": 52,
      "hit": false,
      "t": 56810.44977083312,
      "d": 223.57316666666156,
      "v": 55
    },
    {
      "midi": 40,
      "hit": false,
      "t": 57059.42897916645,
      "d": 442.0651249999937,
      "v": 73
    },
    {
      "midi": 47,
      "hit": false,
      "t": 57061.96958333311,
      "d": 467.4711666666626,
      "v": 76
    },
    {
      "midi": 52,
      "hit": false,
      "t": 57064.51018749978,
      "d": 444.6057291666657,
      "v": 80
    },
    {
      "midi": 56,
      "hit": false,
      "t": 57067.05079166644,
      "d": 436.9839166666643,
      "v": 122
    },
    {
      "midi": 59,
      "hit": false,
      "t": 57069.59139583311,
      "d": 452.2275416666671,
      "v": 126
    },
    {
      "midi": 40,
      "hit": false,
      "t": 57316.03000000003,
      "d": 217.22165625000343,
      "v": 127
    },
    {
      "midi": 40,
      "hit": false,
      "t": 57537.06256249978,
      "d": 231.19497916666296,
      "v": 79
    },
    {
      "midi": 47,
      "hit": false,
      "t": 57547.22497916644,
      "d": 208.32954166666605,
      "v": 73
    },
    {
      "midi": 52,
      "hit": false,
      "t": 57557.38739583311,
      "d": 193.08591666666325,
      "v": 67
    },
    {
      "midi": 35,
      "hit": false,
      "t": 57559.92800000003,
      "d": 224.84346874999756,
      "v": 127
    },
    {
      "midi": 56,
      "hit": false,
      "t": 57567.549812499776,
      "d": 436.983916666657,
      "v": 90
    },
    {
      "midi": 59,
      "hit": false,
      "t": 57576.441927083106,
      "d": 452.2275416666598,
      "v": 83
    },
    {
      "midi": 52,
      "hit": false,
      "t": 57796.204187499774,
      "d": 193.08591666666325,
      "v": 58
    },
    {
      "midi": 40,
      "hit": false,
      "t": 57803.82600000003,
      "d": 279.46645833333605,
      "v": 127
    },
    {
      "midi": 47,
      "hit": false,
      "t": 57808.907208333105,
      "d": 193.08591666666325,
      "v": 59
    },
    {
      "midi": 40,
      "hit": false,
      "t": 57821.610229166436,
      "d": 193.08591666666325,
      "v": 60
    },
    {
      "midi": 40,
      "hit": false,
      "t": 58024.858562499765,
      "d": 452.2275416666598,
      "v": 73
    },
    {
      "midi": 47,
      "hit": false,
      "t": 58027.39916666643,
      "d": 452.2275416666598,
      "v": 76
    },
    {
      "midi": 52,
      "hit": false,
      "t": 58029.9397708331,
      "d": 208.32954166666605,
      "v": 80
    },
    {
      "midi": 56,
      "hit": false,
      "t": 58032.480374999766,
      "d": 215.95135416666744,
      "v": 122
    },
    {
      "midi": 59,
      "hit": false,
      "t": 58035.02097916643,
      "d": 198.16712499999994,
      "v": 126
    },
    {
      "midi": 42,
      "hit": false,
      "t": 58047.72400000003,
      "d": 223.57316666666884,
      "v": 127
    },
    {
      "midi": 59,
      "hit": false,
      "t": 58266.2159583331,
      "d": 185.46410416666185,
      "v": 104
    },
    {
      "midi": 56,
      "hit": false,
      "t": 58276.37837499977,
      "d": 177.84229166666046,
      "v": 98
    },
    {
      "midi": 61,
      "hit": false,
      "t": 58281.459583333366,
      "d": 73.67752083333471,
      "v": 127
    },
    {
      "midi": 52,
      "hit": false,
      "t": 58289.0813958331,
      "d": 193.08591666665598,
      "v": 62
    },
    {
      "midi": 40,
      "hit": false,
      "t": 58291.62200000003,
      "d": 215.95135416666744,
      "v": 127
    },
    {
      "midi": 61,
      "hit": false,
      "t": 58492.32972916667,
      "d": 3798.203229166669,
      "v": 127
    },
    {
      "midi": 57,
      "hit": false,
      "t": 58496.14063541667,
      "d": 3782.9596041666664,
      "v": 127
    },
    {
      "midi": 45,
      "hit": false,
      "t": 58502.49214583309,
      "d": 447.1463333333304,
      "v": 97
    },
    {
      "midi": 52,
      "hit": false,
      "t": 58512.65456249975,
      "d": 447.1463333333304,
      "v": 90
    },
    {
      "midi": 57,
      "hit": false,
      "t": 58522.81697916642,
      "d": 193.08591666666325,
      "v": 100
    },
    {
      "midi": 61,
      "hit": false,
      "t": 58525.35758333337,
      "d": 81.29933333333611,
      "v": 127
    },
    {
      "midi": 61,
      "hit": false,
      "t": 58532.979395833085,
      "d": 193.08591666666325,
      "v": 92
    },
    {
      "midi": 45,
      "hit": false,
      "t": 58535.52000000003,
      "d": 577.9874479166683,
      "v": 127
    },
    {
      "midi": 64,
      "hit": false,
      "t": 58543.14181249975,
      "d": 193.08591666666325,
      "v": 83
    },
    {
      "midi": 64,
      "hit": false,
      "t": 58743.849541666415,
      "d": 238.81679166666436,
      "v": 82
    },
    {
      "midi": 61,
      "hit": false,
      "t": 58751.47135416642,
      "d": 238.81679166666436,
      "v": 81
    },
    {
      "midi": 57,
      "hit": false,
      "t": 58761.63377083308,
      "d": 223.57316666666156,
      "v": 80
    },
    {
      "midi": 61,
      "hit": false,
      "t": 58779.418000000034,
      "d": 77.48842708333541,
      "v": 127
    },
    {
      "midi": 45,
      "hit": false,
      "t": 59010.61297916641,
      "d": 442.0651249999937,
      "v": 88
    },
    {
      "midi": 52,
      "hit": false,
      "t": 59013.15358333308,
      "d": 467.4711666666626,
      "v": 92
    },
    {
      "midi": 57,
      "hit": false,
      "t": 59015.69418749974,
      "d": 444.6057291666657,
      "v": 117
    },
    {
      "midi": 61,
      "hit": false,
      "t": 59018.23479166641,
      "d": 436.9839166666643,
      "v": 122
    },
    {
      "midi": 64,
      "hit": false,
      "t": 59020.77539583307,
      "d": 452.2275416666671,
      "v": 126
    },
    {
      "midi": 61,
      "hit": false,
      "t": 59023.316000000035,
      "d": 83.83993750000081,
      "v": 127
    },
    {
      "midi": 45,
      "hit": false,
      "t": 59267.214000000036,
      "d": 232.46528124999895,
      "v": 127
    },
    {
      "midi": 61,
      "hit": false,
      "t": 59267.214000000036,
      "d": 87.65084375000151,
      "v": 127
    },
    {
      "midi": 45,
      "hit": false,
      "t": 59488.24656249974,
      "d": 231.19497916666296,
      "v": 95
    },
    {
      "midi": 52,
      "hit": false,
      "t": 59498.40897916641,
      "d": 208.32954166666605,
      "v": 88
    },
    {
      "midi": 57,
      "hit": false,
      "t": 59508.571395833074,
      "d": 193.08591666666325,
      "v": 98
    },
    {
      "midi": 40,
      "hit": false,
      "t": 59511.11200000004,
      "d": 641.5025520833369,
      "v": 127
    },
    {
      "midi": 61,
      "hit": false,
      "t": 59511.11200000004,
      "d": 92.73205208333093,
      "v": 127
    },
    {
      "midi": 61,
      "hit": false,
      "t": 59518.73381249974,
      "d": 436.983916666657,
      "v": 90
    },
    {
      "midi": 64,
      "hit": false,
      "t": 59527.62592708307,
      "d": 452.2275416666598,
      "v": 83
    },
    {
      "midi": 57,
      "hit": false,
      "t": 59747.38818749974,
      "d": 193.08591666666325,
      "v": 85
    },
    {
      "midi": 61,
      "hit": false,
      "t": 59755.01000000004,
      "d": 356.9548854166642,
      "v": 127
    },
    {
      "midi": 52,
      "hit": false,
      "t": 59760.09120833307,
      "d": 193.08591666666325,
      "v": 71
    },
    {
      "midi": 45,
      "hit": false,
      "t": 59772.7942291664,
      "d": 193.08591666666325,
      "v": 72
    },
    {
      "midi": 45,
      "hit": false,
      "t": 59976.04256249973,
      "d": 452.2275416666598,
      "v": 88
    },
    {
      "midi": 52,
      "hit": false,
      "t": 59978.583166666394,
      "d": 452.2275416666598,
      "v": 92
    },
    {
      "midi": 57,
      "hit": false,
      "t": 59981.12377083307,
      "d": 208.32954166666605,
      "v": 117
    },
    {
      "midi": 61,
      "hit": false,
      "t": 59983.66437499973,
      "d": 215.95135416666744,
      "v": 122
    },
    {
      "midi": 64,
      "hit": false,
      "t": 59986.204979166396,
      "d": 198.16712499999994,
      "v": 126
    },
    {
      "midi": 64,
      "hit": false,
      "t": 60217.399958333066,
      "d": 185.46410416666185,
      "v": 104
    },
    {
      "midi": 61,
      "hit": false,
      "t": 60227.56237499973,
      "d": 177.84229166666046,
      "v": 98
    },
    {
      "midi": 57,
      "hit": false,
      "t": 60240.26539583306,
      "d": 193.08591666665598,
      "v": 90
    },
    {
      "midi": 61,
      "hit": false,
      "t": 60242.80600000003,
      "d": 81.29933333333611,
      "v": 127
    },
    {
      "midi": 40,
      "hit": false,
      "t": 60242.80600000004,
      "d": 224.84346874999756,
      "v": 127
    },
    {
      "midi": 45,
      "hit": false,
      "t": 60453.67614583305,
      "d": 447.1463333333304,
      "v": 97
    },
    {
      "midi": 52,
      "hit": false,
      "t": 60463.83856249972,
      "d": 447.1463333333304,
      "v": 90
    },
    {
      "midi": 57,
      "hit": false,
      "t": 60474.00097916638,
      "d": 193.08591666666325,
      "v": 100
    },
    {
      "midi": 61,
      "hit": false,
      "t": 60484.16339583305,
      "d": 193.08591666666325,
      "v": 92
    },
    {
      "midi": 61,
      "hit": false,
      "t": 60486.704000000034,
      "d": 76.21812499999942,
      "v": 127
    },
    {
      "midi": 45,
      "hit": false,
      "t": 60486.70400000004,
      "d": 590.6904687499991,
      "v": 127
    },
    {
      "midi": 64,
      "hit": false,
      "t": 60494.325812499716,
      "d": 193.08591666666325,
      "v": 83
    },
    {
      "midi": 64,
      "hit": false,
      "t": 60695.03354166638,
      "d": 238.81679166666436,
      "v": 82
    },
    {
      "midi": 61,
      "hit": false,
      "t": 60702.65535416638,
      "d": 238.81679166666436,
      "v": 81
    },
    {
      "midi": 57,
      "hit": false,
      "t": 60712.81777083305,
      "d": 223.57316666666156,
      "v": 80
    },
    {
      "midi": 61,
      "hit": false,
      "t": 60730.602000000035,
      "d": 73.67752083333471,
      "v": 127
    },
    {
      "midi": 45,
      "hit": false,
      "t": 60961.79697916638,
      "d": 442.0651249999937,
      "v": 88
    },
    {
      "midi": 52,
      "hit": false,
      "t": 60964.33758333304,
      "d": 467.4711666666626,
      "v": 92
    },
    {
      "midi": 57,
      "hit": false,
      "t": 60966.87818749971,
      "d": 444.6057291666657,
      "v": 117
    },
    {
      "midi": 61,
      "hit": false,
      "t": 60969.41879166637,
      "d": 436.9839166666643,
      "v": 122
    },
    {
      "midi": 64,
      "hit": false,
      "t": 60971.95939583304,
      "d": 452.2275416666671,
      "v": 126
    },
    {
      "midi": 61,
      "hit": false,
      "t": 60974.50000000004,
      "d": 74.94782291666343,
      "v": 127
    },
    {
      "midi": 61,
      "hit": false,
      "t": 61218.39800000003,
      "d": 106.70537499999773,
      "v": 127
    },
    {
      "midi": 45,
      "hit": false,
      "t": 61218.39800000004,
      "d": 240.08709375000035,
      "v": 127
    },
    {
      "midi": 45,
      "hit": false,
      "t": 61439.43056249971,
      "d": 231.19497916666296,
      "v": 95
    },
    {
      "midi": 52,
      "hit": false,
      "t": 61449.59297916637,
      "d": 208.32954166666605,
      "v": 88
    },
    {
      "midi": 57,
      "hit": false,
      "t": 61459.75539583304,
      "d": 193.08591666666325,
      "v": 98
    },
    {
      "midi": 59,
      "hit": false,
      "t": 61462.29600000003,
      "d": 209.59984375000204,
      "v": 127
    },
    {
      "midi": 40,
      "hit": false,
      "t": 61462.29600000004,
      "d": 532.2565729166672,
      "v": 127
    },
    {
      "midi": 61,
      "hit": false,
      "t": 61469.917812499705,
      "d": 436.983916666657,
      "v": 90
    },
    {
      "midi": 64,
      "hit": false,
      "t": 61478.809927083035,
      "d": 452.2275416666598,
      "v": 83
    },
    {
      "midi": 57,
      "hit": false,
      "t": 61698.5721874997,
      "d": 193.08591666666325,
      "v": 85
    },
    {
      "midi": 57,
      "hit": false,
      "t": 61706.19400000003,
      "d": 365.8470000000016,
      "v": 127
    },
    {
      "midi": 52,
      "hit": false,
      "t": 61711.275208333034,
      "d": 193.08591666666325,
      "v": 71
    },
    {
      "midi": 45,
      "hit": false,
      "t": 61723.978229166365,
      "d": 193.08591666666325,
      "v": 72
    },
    {
      "midi": 45,
      "hit": false,
      "t": 61927.226562499694,
      "d": 452.2275416666598,
      "v": 88
    },
    {
      "midi": 52,
      "hit": false,
      "t": 61929.76716666636,
      "d": 452.2275416666598,
      "v": 92
    },
    {
      "midi": 57,
      "hit": false,
      "t": 61932.30777083303,
      "d": 208.32954166666605,
      "v": 117
    },
    {
      "midi": 61,
      "hit": false,
      "t": 61934.848374999696,
      "d": 215.95135416666744,
      "v": 122
    },
    {
      "midi": 64,
      "hit": false,
      "t": 61937.38897916636,
      "d": 198.16712499999994,
      "v": 126
    },
    {
      "midi": 45,
      "hit": false,
      "t": 61950.09200000004,
      "d": 233.73558333333494,
      "v": 127
    },
    {
      "midi": 64,
      "hit": false,
      "t": 62168.58395833303,
      "d": 185.46410416666185,
      "v": 104
    },
    {
      "midi": 61,
      "hit": false,
      "t": 62178.7463749997,
      "d": 177.84229166666046,
      "v": 98
    },
    {
      "midi": 57,
      "hit": false,
      "t": 62191.44939583303,
      "d": 193.08591666665598,
      "v": 90
    },
    {
      "midi": 61,
      "hit": false,
      "t": 62193.990000000034,
      "d": 110.51628124999843,
      "v": 127
    },
    {
      "midi": 40,
      "hit": false,
      "t": 62193.99000000004,
      "d": 221.03256249999686,
      "v": 127
    },
    {
      "midi": 57,
      "hit": false,
      "t": 62366.751083333336,
      "d": 7727.247572916574,
      "v": 127
    },
    {
      "midi": 62,
      "hit": false,
      "t": 62369.2916875,
      "d": 7722.166364583238,
      "v": 127
    },
    {
      "midi": 66,
      "hit": false,
      "t": 62374.37289583334,
      "d": 7712.003947916572,
      "v": 127
    },
    {
      "midi": 50,
      "hit": false,
      "t": 62404.860145833016,
      "d": 447.1463333333304,
      "v": 97
    },
    {
      "midi": 54,
      "hit": false,
      "t": 62415.02256249968,
      "d": 447.1463333333304,
      "v": 90
    },
    {
      "midi": 57,
      "hit": false,
      "t": 62425.18497916635,
      "d": 193.08591666666325,
      "v": 100
    },
    {
      "midi": 62,
      "hit": false,
      "t": 62435.347395833014,
      "d": 193.08591666666325,
      "v": 92
    },
    {
      "midi": 38,
      "hit": false,
      "t": 62437.888000000035,
      "d": 612.2856041666673,
      "v": 127
    },
    {
      "midi": 62,
      "hit": false,
      "t": 62437.888000000035,
      "d": 91.46175000000221,
      "v": 127
    },
    {
      "midi": 66,
      "hit": false,
      "t": 62445.50981249968,
      "d": 193.08591666666325,
      "v": 83
    },
    {
      "midi": 66,
      "hit": false,
      "t": 62646.217541666345,
      "d": 238.81679166666436,
      "v": 82
    },
    {
      "midi": 62,
      "hit": false,
      "t": 62653.839354166346,
      "d": 238.81679166666436,
      "v": 81
    },
    {
      "midi": 57,
      "hit": false,
      "t": 62664.00177083301,
      "d": 223.57316666666156,
      "v": 80
    },
    {
      "midi": 62,
      "hit": false,
      "t": 62681.78600000004,
      "d": 90.19144791666622,
      "v": 127
    },
    {
      "midi": 50,
      "hit": false,
      "t": 62912.98097916634,
      "d": 442.0651249999937,
      "v": 88
    },
    {
      "midi": 54,
      "hit": false,
      "t": 62915.52158333301,
      "d": 467.4711666666626,
      "v": 92
    },
    {
      "midi": 57,
      "hit": false,
      "t": 62918.06218749967,
      "d": 444.6057291666657,
      "v": 117
    },
    {
      "midi": 62,
      "hit": false,
      "t": 62920.60279166634,
      "d": 436.9839166666643,
      "v": 122
    },
    {
      "midi": 66,
      "hit": false,
      "t": 62923.143395833,
      "d": 452.2275416666671,
      "v": 126
    },
    {
      "midi": 62,
      "hit": false,
      "t": 62925.68400000004,
      "d": 91.46175000000221,
      "v": 127
    },
    {
      "midi": 38,
      "hit": false,
      "t": 63169.58200000004,
      "d": 193.08591666666325,
      "v": 127
    },
    {
      "midi": 62,
      "hit": false,
      "t": 63169.58200000004,
      "d": 91.46175000000221,
      "v": 127
    },
    {
      "midi": 50,
      "hit": false,
      "t": 63390.61456249967,
      "d": 231.19497916666296,
      "v": 95
    },
    {
      "midi": 54,
      "hit": false,
      "t": 63400.77697916634,
      "d": 208.32954166666605,
      "v": 88
    },
    {
      "midi": 57,
      "hit": false,
      "t": 63410.939395833004,
      "d": 193.08591666666325,
      "v": 98
    },
    {
      "midi": 33,
      "hit": false,
      "t": 63413.48000000003,
      "d": 612.2856041666673,
      "v": 127
    },
    {
      "midi": 62,
      "hit": false,
      "t": 63413.48000000004,
      "d": 87.65084375000151,
      "v": 127
    },
    {
      "midi": 62,
      "hit": false,
      "t": 63421.10181249967,
      "d": 436.983916666657,
      "v": 90
    },
    {
      "midi": 66,
      "hit": false,
      "t": 63429.993927083,
      "d": 452.2275416666598,
      "v": 83
    },
    {
      "midi": 57,
      "hit": false,
      "t": 63649.75618749967,
      "d": 193.08591666666325,
      "v": 85
    },
    {
      "midi": 62,
      "hit": false,
      "t": 63657.37800000004,
      "d": 87.65084375000151,
      "v": 127
    },
    {
      "midi": 54,
      "hit": false,
      "t": 63662.459208333,
      "d": 193.08591666666325,
      "v": 71
    },
    {
      "midi": 50,
      "hit": false,
      "t": 63675.16222916633,
      "d": 193.08591666666325,
      "v": 72
    },
    {
      "midi": 50,
      "hit": false,
      "t": 63878.41056249966,
      "d": 452.2275416666598,
      "v": 88
    },
    {
      "midi": 54,
      "hit": false,
      "t": 63880.951166666324,
      "d": 452.2275416666598,
      "v": 92
    },
    {
      "midi": 57,
      "hit": false,
      "t": 63883.491770832996,
      "d": 208.32954166666605,
      "v": 117
    },
    {
      "midi": 62,
      "hit": false,
      "t": 63886.03237499966,
      "d": 215.95135416666744,
      "v": 122
    },
    {
      "midi": 66,
      "hit": false,
      "t": 63888.572979166325,
      "d": 198.16712499999994,
      "v": 126
    },
    {
      "midi": 62,
      "hit": false,
      "t": 63901.27600000004,
      "d": 82.56963541666482,
      "v": 127
    },
    {
      "midi": 66,
      "hit": false,
      "t": 64119.767958332995,
      "d": 185.46410416666185,
      "v": 104
    },
    {
      "midi": 62,
      "hit": false,
      "t": 64129.93037499966,
      "d": 177.84229166666046,
      "v": 98
    },
    {
      "midi": 57,
      "hit": false,
      "t": 64142.63339583299,
      "d": 193.08591666665598,
      "v": 90
    },
    {
      "midi": 33,
      "hit": false,
      "t": 64145.174000000035,
      "d": 235.00588541666366,
      "v": 127
    },
    {
      "midi": 62,
      "hit": false,
      "t": 64145.17400000004,
      "d": 83.83993750000081,
      "v": 127
    },
    {
      "midi": 50,
      "hit": false,
      "t": 64356.04414583298,
      "d": 447.1463333333304,
      "v": 97
    },
    {
      "midi": 54,
      "hit": false,
      "t": 64366.20656249965,
      "d": 447.1463333333304,
      "v": 90
    },
    {
      "midi": 57,
      "hit": false,
      "t": 64376.36897916631,
      "d": 193.08591666666325,
      "v": 100
    },
    {
      "midi": 62,
      "hit": false,
      "t": 64386.53139583298,
      "d": 193.08591666666325,
      "v": 92
    },
    {
      "midi": 38,
      "hit": false,
      "t": 64389.07200000003,
      "d": 556.3923125000001,
      "v": 127
    },
    {
      "midi": 62,
      "hit": false,
      "t": 64389.072000000044,
      "d": 82.56963541666482,
      "v": 127
    },
    {
      "midi": 66,
      "hit": false,
      "t": 64396.693812499645,
      "d": 193.08591666666325,
      "v": 83
    },
    {
      "midi": 66,
      "hit": false,
      "t": 64597.40154166631,
      "d": 238.81679166666436,
      "v": 82
    },
    {
      "midi": 62,
      "hit": false,
      "t": 64605.02335416631,
      "d": 238.81679166666436,
      "v": 81
    },
    {
      "midi": 57,
      "hit": false,
      "t": 64615.18577083298,
      "d": 223.57316666666156,
      "v": 80
    },
    {
      "midi": 62,
      "hit": false,
      "t": 64632.970000000045,
      "d": 80.02903125000012,
      "v": 127
    },
    {
      "midi": 50,
      "hit": false,
      "t": 64864.16497916631,
      "d": 442.0651249999937,
      "v": 88
    },
    {
      "midi": 54,
      "hit": false,
      "t": 64866.70558333297,
      "d": 467.4711666666626,
      "v": 92
    },
    {
      "midi": 57,
      "hit": false,
      "t": 64869.24618749964,
      "d": 444.6057291666657,
      "v": 117
    },
    {
      "midi": 62,
      "hit": false,
      "t": 64871.7867916663,
      "d": 436.9839166666643,
      "v": 122
    },
    {
      "midi": 66,
      "hit": false,
      "t": 64874.32739583297,
      "d": 452.2275416666671,
      "v": 126
    },
    {
      "midi": 62,
      "hit": false,
      "t": 64876.868000000046,
      "d": 77.48842708333541,
      "v": 127
    },
    {
      "midi": 38,
      "hit": false,
      "t": 65120.76600000003,
      "d": 201.97803125000064,
      "v": 127
    },
    {
      "midi": 62,
      "hit": false,
      "t": 65120.76600000005,
      "d": 82.56963541666482,
      "v": 127
    },
    {
      "midi": 50,
      "hit": false,
      "t": 65341.798562499636,
      "d": 231.19497916665568,
      "v": 95
    },
    {
      "midi": 54,
      "hit": false,
      "t": 65351.9609791663,
      "d": 208.32954166665877,
      "v": 88
    },
    {
      "midi": 57,
      "hit": false,
      "t": 65362.12339583297,
      "d": 193.08591666666325,
      "v": 98
    },
    {
      "midi": 33,
      "hit": false,
      "t": 65364.66400000003,
      "d": 508.1208333333343,
      "v": 127
    },
    {
      "midi": 62,
      "hit": false,
      "t": 65364.66400000005,
      "d": 377.2797187499964,
      "v": 127
    },
    {
      "midi": 62,
      "hit": false,
      "t": 65372.285812499635,
      "d": 436.983916666657,
      "v": 90
    },
    {
      "midi": 66,
      "hit": false,
      "t": 65381.177927082965,
      "d": 452.22754166667437,
      "v": 83
    },
    {
      "midi": 57,
      "hit": false,
      "t": 65600.94018749963,
      "d": 193.08591666666325,
      "v": 85
    },
    {
      "midi": 54,
      "hit": false,
      "t": 65613.64320833296,
      "d": 193.08591666666325,
      "v": 71
    },
    {
      "midi": 50,
      "hit": false,
      "t": 65626.34622916629,
      "d": 193.0859166666778,
      "v": 72
    },
    {
      "midi": 50,
      "hit": false,
      "t": 65829.59456249964,
      "d": 452.2275416666962,
      "v": 88
    },
    {
      "midi": 54,
      "hit": false,
      "t": 65832.13516666631,
      "d": 452.2275416666962,
      "v": 92
    },
    {
      "midi": 57,
      "hit": false,
      "t": 65834.67577083297,
      "d": 208.3295416666806,
      "v": 117
    },
    {
      "midi": 62,
      "hit": false,
      "t": 65837.21637499964,
      "d": 215.951354166682,
      "v": 122
    },
    {
      "midi": 66,
      "hit": false,
      "t": 65839.75697916631,
      "d": 198.16712500000722,
      "v": 126
    },
    {
      "midi": 38,
      "hit": false,
      "t": 65852.46000000004,
      "d": 223.57316666666884,
      "v": 127
    },
    {
      "midi": 61,
      "hit": false,
      "t": 65852.46000000005,
      "d": 113.05688541666314,
      "v": 127
    },
    {
      "midi": 66,
      "hit": false,
      "t": 66070.95195833298,
      "d": 185.4641041666764,
      "v": 104
    },
    {
      "midi": 62,
      "hit": false,
      "t": 66081.11437499966,
      "d": 177.842291666675,
      "v": 98
    },
    {
      "midi": 57,
      "hit": false,
      "t": 66093.81739583299,
      "d": 193.08591666669236,
      "v": 90
    },
    {
      "midi": 39,
      "hit": false,
      "t": 66096.35800000004,
      "d": 241.35739583332906,
      "v": 127
    },
    {
      "midi": 62,
      "hit": false,
      "t": 66096.35800000005,
      "d": 92.73205208333093,
      "v": 120
    },
    {
      "midi": 40,
      "hit": false,
      "t": 66307.22814583301,
      "d": 447.14633333338134,
      "v": 80
    },
    {
      "midi": 47,
      "hit": false,
      "t": 66317.39056249968,
      "d": 447.14633333338134,
      "v": 90
    },
    {
      "midi": 52,
      "hit": false,
      "t": 66327.55297916636,
      "d": 193.0859166666778,
      "v": 83
    },
    {
      "midi": 56,
      "hit": false,
      "t": 66337.71539583303,
      "d": 193.0859166666778,
      "v": 92
    },
    {
      "midi": 40,
      "hit": false,
      "t": 66340.25600000004,
      "d": 566.5547291666735,
      "v": 127
    },
    {
      "midi": 64,
      "hit": false,
      "t": 66340.25600000005,
      "d": 87.65084375000151,
      "v": 127
    },
    {
      "midi": 59,
      "hit": false,
      "t": 66347.8778124997,
      "d": 193.0859166666778,
      "v": 83
    },
    {
      "midi": 59,
      "hit": false,
      "t": 66548.58554166638,
      "d": 238.81679166668619,
      "v": 82
    },
    {
      "midi": 56,
      "hit": false,
      "t": 66556.20735416638,
      "d": 238.81679166668619,
      "v": 81
    },
    {
      "midi": 52,
      "hit": false,
      "t": 66566.36977083306,
      "d": 223.5731666666834,
      "v": 66
    },
    {
      "midi": 64,
      "hit": false,
      "t": 66584.15400000005,
      "d": 83.83993750000081,
      "v": 127
    },
    {
      "midi": 40,
      "hit": false,
      "t": 66815.3489791664,
      "d": 442.0651250000228,
      "v": 73
    },
    {
      "midi": 47,
      "hit": false,
      "t": 66817.88958333308,
      "d": 467.47116666668444,
      "v": 92
    },
    {
      "midi": 52,
      "hit": false,
      "t": 66820.43018749975,
      "d": 444.60572916668025,
      "v": 97
    },
    {
      "midi": 56,
      "hit": false,
      "t": 66822.97079166642,
      "d": 436.98391666667885,
      "v": 122
    },
    {
      "midi": 59,
      "hit": false,
      "t": 66825.51139583309,
      "d": 452.2275416666671,
      "v": 126
    },
    {
      "midi": 64,
      "hit": false,
      "t": 66828.05200000005,
      "d": 299.79129166666826,
      "v": 127
    },
    {
      "midi": 40,
      "hit": false,
      "t": 67071.95000000004,
      "d": 219.76226041666814,
      "v": 127
    },
    {
      "midi": 40,
      "hit": false,
      "t": 67292.98256249976,
      "d": 231.19497916667024,
      "v": 79
    },
    {
      "midi": 47,
      "hit": false,
      "t": 67303.14497916643,
      "d": 208.32954166666605,
      "v": 88
    },
    {
      "midi": 52,
      "hit": false,
      "t": 67313.30739583311,
      "d": 193.08591666666325,
      "v": 81
    },
    {
      "midi": 35,
      "hit": false,
      "t": 67315.84800000004,
      "d": 457.3087499999965,
      "v": 127
    },
    {
      "midi": 64,
      "hit": false,
      "t": 67315.84800000006,
      "d": 86.3805416666728,
      "v": 127
    },
    {
      "midi": 56,
      "hit": false,
      "t": 67323.46981249978,
      "d": 436.98391666664975,
      "v": 90
    },
    {
      "midi": 59,
      "hit": false,
      "t": 67332.36192708311,
      "d": 452.2275416666671,
      "v": 83
    },
    {
      "midi": 52,
      "hit": false,
      "t": 67552.12418749976,
      "d": 193.08591666666325,
      "v": 70
    },
    {
      "midi": 64,
      "hit": false,
      "t": 67559.74600000006,
      "d": 101.62416666666104,
      "v": 127
    },
    {
      "midi": 47,
      "hit": false,
      "t": 67564.8272083331,
      "d": 193.08591666666325,
      "v": 71
    },
    {
      "midi": 40,
      "hit": false,
      "t": 67577.53022916643,
      "d": 193.0859166666778,
      "v": 60
    },
    {
      "midi": 40,
      "hit": false,
      "t": 67780.77856249978,
      "d": 452.2275416666962,
      "v": 73
    },
    {
      "midi": 47,
      "hit": false,
      "t": 67783.31916666645,
      "d": 452.2275416666962,
      "v": 92
    },
    {
      "midi": 52,
      "hit": false,
      "t": 67785.8597708331,
      "d": 208.3295416666806,
      "v": 97
    },
    {
      "midi": 56,
      "hit": false,
      "t": 67788.40037499978,
      "d": 215.951354166682,
      "v": 122
    },
    {
      "midi": 59,
      "hit": false,
      "t": 67790.94097916645,
      "d": 198.16712500000722,
      "v": 126
    },
    {
      "midi": 40,
      "hit": false,
      "t": 67803.64400000004,
      "d": 213.41074999999546,
      "v": 127
    },
    {
      "midi": 64,
      "hit": false,
      "t": 67803.64400000006,
      "d": 359.49548958333617,
      "v": 127
    },
    {
      "midi": 59,
      "hit": false,
      "t": 68022.13595833312,
      "d": 185.4641041666764,
      "v": 104
    },
    {
      "midi": 56,
      "hit": false,
      "t": 68032.2983749998,
      "d": 177.842291666675,
      "v": 98
    },
    {
      "midi": 52,
      "hit": false,
      "t": 68045.00139583313,
      "d": 193.08591666669236,
      "v": 75
    },
    {
      "midi": 39,
      "hit": false,
      "t": 68047.54200000004,
      "d": 222.30286458334012,
      "v": 127
    },
    {
      "midi": 50,
      "hit": false,
      "t": 68258.41214583315,
      "d": 447.14633333338134,
      "v": 97
    },
    {
      "midi": 54,
      "hit": false,
      "t": 68268.57456249982,
      "d": 447.14633333338134,
      "v": 90
    },
    {
      "midi": 57,
      "hit": false,
      "t": 68278.7369791665,
      "d": 193.0859166666778,
      "v": 100
    },
    {
      "midi": 62,
      "hit": false,
      "t": 68288.89939583317,
      "d": 193.0859166666778,
      "v": 92
    },
    {
      "midi": 38,
      "hit": false,
      "t": 68291.44000000005,
      "d": 584.3389583333337,
      "v": 127
    },
    {
      "midi": 62,
      "hit": false,
      "t": 68291.44000000006,
      "d": 88.92114583333023,
      "v": 127
    },
    {
      "midi": 66,
      "hit": false,
      "t": 68299.06181249984,
      "d": 193.0859166666778,
      "v": 83
    },
    {
      "midi": 66,
      "hit": false,
      "t": 68499.76954166652,
      "d": 238.81679166668619,
      "v": 82
    },
    {
      "midi": 62,
      "hit": false,
      "t": 68507.39135416652,
      "d": 238.81679166668619,
      "v": 81
    },
    {
      "midi": 57,
      "hit": false,
      "t": 68517.5537708332,
      "d": 223.5731666666834,
      "v": 80
    },
    {
      "midi": 62,
      "hit": false,
      "t": 68535.33800000006,
      "d": 87.65084375000151,
      "v": 127
    },
    {
      "midi": 50,
      "hit": false,
      "t": 68766.53297916654,
      "d": 442.0651250000228,
      "v": 88
    },
    {
      "midi": 54,
      "hit": false,
      "t": 68769.07358333321,
      "d": 467.47116666668444,
      "v": 92
    },
    {
      "midi": 57,
      "hit": false,
      "t": 68771.61418749989,
      "d": 444.60572916668025,
      "v": 117
    },
    {
      "midi": 62,
      "hit": false,
      "t": 68774.15479166656,
      "d": 436.98391666667885,
      "v": 122
    },
    {
      "midi": 66,
      "hit": false,
      "t": 68776.69539583323,
      "d": 452.2275416666671,
      "v": 126
    },
    {
      "midi": 62,
      "hit": false,
      "t": 68779.23600000006,
      "d": 257.8713229166606,
      "v": 127
    },
    {
      "midi": 38,
      "hit": false,
      "t": 69023.13400000005,
      "d": 224.84346874999756,
      "v": 127
    },
    {
      "midi": 50,
      "hit": false,
      "t": 69244.1665624999,
      "d": 231.19497916667024,
      "v": 95
    },
    {
      "midi": 54,
      "hit": false,
      "t": 69254.32897916657,
      "d": 208.32954166666605,
      "v": 88
    },
    {
      "midi": 57,
      "hit": false,
      "t": 69264.49139583325,
      "d": 193.08591666666325,
      "v": 98
    },
    {
      "midi": 33,
      "hit": false,
      "t": 69267.03200000005,
      "d": 417.9293854166608,
      "v": 127
    },
    {
      "midi": 61,
      "hit": false,
      "t": 69267.03200000005,
      "d": 571.6359375000029,
      "v": 127
    },
    {
      "midi": 62,
      "hit": false,
      "t": 69274.65381249992,
      "d": 436.98391666664975,
      "v": 90
    },
    {
      "midi": 66,
      "hit": false,
      "t": 69283.54592708325,
      "d": 452.2275416666671,
      "v": 83
    },
    {
      "midi": 57,
      "hit": false,
      "t": 69503.3081874999,
      "d": 193.08591666666325,
      "v": 85
    },
    {
      "midi": 54,
      "hit": false,
      "t": 69516.01120833324,
      "d": 193.08591666666325,
      "v": 71
    },
    {
      "midi": 50,
      "hit": false,
      "t": 69528.71422916657,
      "d": 193.0859166666778,
      "v": 72
    },
    {
      "midi": 50,
      "hit": false,
      "t": 69731.96256249992,
      "d": 452.2275416666962,
      "v": 88
    },
    {
      "midi": 54,
      "hit": false,
      "t": 69734.50316666659,
      "d": 452.2275416666962,
      "v": 92
    },
    {
      "midi": 57,
      "hit": false,
      "t": 69737.04377083325,
      "d": 208.3295416666806,
      "v": 117
    },
    {
      "midi": 62,
      "hit": false,
      "t": 69739.58437499992,
      "d": 215.951354166682,
      "v": 122
    },
    {
      "midi": 66,
      "hit": false,
      "t": 69742.12497916659,
      "d": 198.16712500000722,
      "v": 126
    },
    {
      "midi": 66,
      "hit": false,
      "t": 69973.31995833326,
      "d": 185.4641041666764,
      "v": 104
    },
    {
      "midi": 62,
      "hit": false,
      "t": 69983.48237499993,
      "d": 177.842291666675,
      "v": 98
    },
    {
      "midi": 57,
      "hit": false,
      "t": 69996.18539583326,
      "d": 193.08591666669236,
      "v": 90
    },
    {
      "midi": 33,
      "hit": false,
      "t": 69998.72600000004,
      "d": 274.38525000000664,
      "v": 127
    },
    {
      "midi": 59,
      "hit": false,
      "t": 69998.72600000005,
      "d": 82.5696354166721,
      "v": 127
    },
    {
      "midi": 61,
      "hit": false,
      "t": 70181.64949999991,
      "d": 3174.4849062499998,
      "v": 127
    },
    {
      "midi": 57,
      "hit": false,
      "t": 70184.19010416658,
      "d": 3180.836416666658,
      "v": 127
    },
    {
      "midi": 64,
      "hit": false,
      "t": 70184.19010416658,
      "d": 3185.9176249999873,
      "v": 127
    },
    {
      "midi": 45,
      "hit": false,
      "t": 70209.59614583329,
      "d": 447.14633333338134,
      "v": 97
    },
    {
      "midi": 52,
      "hit": false,
      "t": 70219.75856249996,
      "d": 447.14633333338134,
      "v": 90
    },
    {
      "midi": 57,
      "hit": false,
      "t": 70229.92097916664,
      "d": 193.0859166666778,
      "v": 100
    },
    {
      "midi": 61,
      "hit": false,
      "t": 70240.08339583331,
      "d": 193.0859166666778,
      "v": 92
    },
    {
      "midi": 45,
      "hit": false,
      "t": 70242.62400000004,
      "d": 635.1510416666715,
      "v": 127
    },
    {
      "midi": 59,
      "hit": false,
      "t": 70242.62400000005,
      "d": 223.57316666666884,
      "v": 127
    },
    {
      "midi": 64,
      "hit": false,
      "t": 70250.24581249998,
      "d": 193.0859166666778,
      "v": 83
    },
    {
      "midi": 64,
      "hit": false,
      "t": 70450.95354166666,
      "d": 238.81679166668619,
      "v": 82
    },
    {
      "midi": 61,
      "hit": false,
      "t": 70458.57535416666,
      "d": 238.81679166668619,
      "v": 81
    },
    {
      "midi": 57,
      "hit": false,
      "t": 70468.73777083334,
      "d": 223.5731666666834,
      "v": 80
    },
    {
      "midi": 57,
      "hit": false,
      "t": 70486.52200000006,
      "d": 208.32954166666605,
      "v": 127
    },
    {
      "midi": 45,
      "hit": false,
      "t": 70717.71697916668,
      "d": 442.0651250000228,
      "v": 88
    },
    {
      "midi": 52,
      "hit": false,
      "t": 70720.25758333335,
      "d": 467.47116666668444,
      "v": 92
    },
    {
      "midi": 57,
      "hit": false,
      "t": 70722.79818750003,
      "d": 444.60572916668025,
      "v": 117
    },
    {
      "midi": 61,
      "hit": false,
      "t": 70725.3387916667,
      "d": 436.98391666667885,
      "v": 122
    },
    {
      "midi": 64,
      "hit": false,
      "t": 70727.87939583337,
      "d": 452.2275416666671,
      "v": 126
    },
    {
      "midi": 45,
      "hit": false,
      "t": 70974.31800000004,
      "d": 215.95135416666744,
      "v": 127
    },
    {
      "midi": 45,
      "hit": false,
      "t": 71195.35056250004,
      "d": 231.19497916667024,
      "v": 95
    },
    {
      "midi": 52,
      "hit": false,
      "t": 71205.51297916671,
      "d": 208.32954166666605,
      "v": 88
    },
    {
      "midi": 57,
      "hit": false,
      "t": 71215.67539583339,
      "d": 193.08591666666325,
      "v": 98
    },
    {
      "midi": 40,
      "hit": false,
      "t": 71218.21600000004,
      "d": 548.7704999999987,
      "v": 127
    },
    {
      "midi": 61,
      "hit": false,
      "t": 71225.83781250006,
      "d": 436.98391666664975,
      "v": 90
    },
    {
      "midi": 64,
      "hit": false,
      "t": 71234.72992708339,
      "d": 452.2275416666671,
      "v": 83
    },
    {
      "midi": 57,
      "hit": false,
      "t": 71454.49218750004,
      "d": 193.08591666666325,
      "v": 85
    },
    {
      "midi": 52,
      "hit": false,
      "t": 71467.19520833337,
      "d": 193.08591666666325,
      "v": 71
    },
    {
      "midi": 45,
      "hit": false,
      "t": 71479.8982291667,
      "d": 193.0859166666778,
      "v": 72
    },
    {
      "midi": 45,
      "hit": false,
      "t": 71683.14656250006,
      "d": 452.2275416666962,
      "v": 88
    },
    {
      "midi": 52,
      "hit": false,
      "t": 71685.68716666673,
      "d": 452.2275416666962,
      "v": 92
    },
    {
      "midi": 57,
      "hit": false,
      "t": 71688.22777083339,
      "d": 208.3295416666806,
      "v": 117
    },
    {
      "midi": 61,
      "hit": false,
      "t": 71690.76837500006,
      "d": 215.951354166682,
      "v": 122
    },
    {
      "midi": 64,
      "hit": false,
      "t": 71693.30897916673,
      "d": 198.16712500000722,
      "v": 126
    },
    {
      "midi": 64,
      "hit": false,
      "t": 71924.5039583334,
      "d": 185.4641041666764,
      "v": 104
    },
    {
      "midi": 61,
      "hit": false,
      "t": 71934.66637500007,
      "d": 177.842291666675,
      "v": 98
    },
    {
      "midi": 57,
      "hit": false,
      "t": 71947.3693958334,
      "d": 193.08591666669236,
      "v": 90
    },
    {
      "midi": 40,
      "hit": false,
      "t": 71949.91000000005,
      "d": 226.11377083332627,
      "v": 127
    },
    {
      "midi": 45,
      "hit": false,
      "t": 72160.78014583343,
      "d": 447.14633333338134,
      "v": 97
    },
    {
      "midi": 52,
      "hit": false,
      "t": 72170.9425625001,
      "d": 447.14633333338134,
      "v": 90
    },
    {
      "midi": 57,
      "hit": false,
      "t": 72181.10497916678,
      "d": 193.0859166666778,
      "v": 100
    },
    {
      "midi": 61,
      "hit": false,
      "t": 72191.26739583345,
      "d": 193.0859166666778,
      "v": 92
    },
    {
      "midi": 45,
      "hit": false,
      "t": 72193.80800000003,
      "d": 599.5825833333365,
      "v": 127
    },
    {
      "midi": 64,
      "hit": false,
      "t": 72201.42981250012,
      "d": 193.0859166666778,
      "v": 83
    },
    {
      "midi": 64,
      "hit": false,
      "t": 72402.1375416668,
      "d": 238.81679166668619,
      "v": 82
    },
    {
      "midi": 61,
      "hit": false,
      "t": 72409.7593541668,
      "d": 238.81679166668619,
      "v": 81
    },
    {
      "midi": 57,
      "hit": false,
      "t": 72419.92177083348,
      "d": 223.5731666666834,
      "v": 80
    },
    {
      "midi": 45,
      "hit": false,
      "t": 72668.90097916682,
      "d": 442.0651250000228,
      "v": 88
    },
    {
      "midi": 52,
      "hit": false,
      "t": 72671.4415833335,
      "d": 467.47116666668444,
      "v": 92
    },
    {
      "midi": 57,
      "hit": false,
      "t": 72673.98218750017,
      "d": 444.60572916668025,
      "v": 117
    },
    {
      "midi": 61,
      "hit": false,
      "t": 72676.52279166684,
      "d": 436.98391666667885,
      "v": 122
    },
    {
      "midi": 64,
      "hit": false,
      "t": 72679.06339583351,
      "d": 452.2275416666671,
      "v": 126
    },
    {
      "midi": 45,
      "hit": false,
      "t": 72925.50200000004,
      "d": 217.22165624999616,
      "v": 127
    },
    {
      "midi": 45,
      "hit": false,
      "t": 73146.53456250018,
      "d": 231.19497916667024,
      "v": 95
    },
    {
      "midi": 52,
      "hit": false,
      "t": 73156.69697916685,
      "d": 208.32954166666605,
      "v": 88
    },
    {
      "midi": 57,
      "hit": false,
      "t": 73166.85939583353,
      "d": 193.08591666666325,
      "v": 98
    },
    {
      "midi": 40,
      "hit": false,
      "t": 73169.40000000004,
      "d": 224.84346874999756,
      "v": 127
    },
    {
      "midi": 61,
      "hit": false,
      "t": 73177.0218125002,
      "d": 436.98391666664975,
      "v": 90
    },
    {
      "midi": 64,
      "hit": false,
      "t": 73185.91392708353,
      "d": 452.2275416666671,
      "v": 83
    },
    {
      "midi": 57,
      "hit": false,
      "t": 73405.67618750018,
      "d": 193.08591666666325,
      "v": 85
    },
    {
      "midi": 37,
      "hit": false,
      "t": 73413.29800000004,
      "d": 91.46175000000221,
      "v": 127
    },
    {
      "midi": 52,
      "hit": false,
      "t": 73418.37920833351,
      "d": 193.08591666666325,
      "v": 71
    },
    {
      "midi": 45,
      "hit": false,
      "t": 73431.08222916684,
      "d": 193.0859166666778,
      "v": 72
    },
    {
      "midi": 45,
      "hit": false,
      "t": 73634.3305625002,
      "d": 452.2275416666962,
      "v": 88
    },
    {
      "midi": 52,
      "hit": false,
      "t": 73636.87116666687,
      "d": 452.2275416666962,
      "v": 92
    },
    {
      "midi": 57,
      "hit": false,
      "t": 73639.41177083353,
      "d": 208.3295416666806,
      "v": 117
    },
    {
      "midi": 61,
      "hit": false,
      "t": 73641.9523750002,
      "d": 215.951354166682,
      "v": 122
    },
    {
      "midi": 64,
      "hit": false,
      "t": 73644.49297916687,
      "d": 198.16712500000722,
      "v": 126
    },
    {
      "midi": 35,
      "hit": false,
      "t": 73657.19600000004,
      "d": 487.7960000000021,
      "v": 127
    },
    {
      "midi": 64,
      "hit": false,
      "t": 73657.19600000005,
      "d": 83.83993750000081,
      "v": 127
    },
    {
      "midi": 64,
      "hit": false,
      "t": 73875.68795833354,
      "d": 185.4641041666764,
      "v": 104
    },
    {
      "midi": 61,
      "hit": false,
      "t": 73885.85037500021,
      "d": 177.842291666675,
      "v": 98
    },
    {
      "midi": 57,
      "hit": false,
      "t": 73898.55339583354,
      "d": 193.08591666669236,
      "v": 90
    },
    {
      "midi": 64,
      "hit": false,
      "t": 73901.09400000006,
      "d": 77.48842708332813,
      "v": 127
    },
    {
      "midi": 45,
      "hit": false,
      "t": 74111.96414583357,
      "d": 447.14633333338134,
      "v": 97
    },
    {
      "midi": 52,
      "hit": false,
      "t": 74122.12656250024,
      "d": 447.14633333338134,
      "v": 90
    },
    {
      "midi": 57,
      "hit": false,
      "t": 74132.28897916691,
      "d": 193.0859166666778,
      "v": 100
    },
    {
      "midi": 61,
      "hit": false,
      "t": 74142.45139583359,
      "d": 193.0859166666778,
      "v": 92
    },
    {
      "midi": 45,
      "hit": false,
      "t": 74144.99200000004,
      "d": 577.987447916661,
      "v": 127
    },
    {
      "midi": 64,
      "hit": false,
      "t": 74144.99200000006,
      "d": 86.3805416666728,
      "v": 127
    },
    {
      "midi": 64,
      "hit": false,
      "t": 74144.99200000022,
      "d": 2905.180864583308,
      "v": 127
    },
    {
      "midi": 69,
      "hit": false,
      "t": 74144.99200000022,
      "d": 2905.180864583308,
      "v": 127
    },
    {
      "midi": 73,
      "hit": false,
      "t": 74144.99200000022,
      "d": 2905.180864583308,
      "v": 127
    },
    {
      "midi": 85,
      "hit": false,
      "t": 74148.80290624991,
      "d": 959.0780729166727,
      "v": 117
    },
    {
      "midi": 97,
      "hit": false,
      "t": 74148.80290624991,
      "d": 959.0780729166727,
      "v": 117
    },
    {
      "midi": 64,
      "hit": false,
      "t": 74152.61381250026,
      "d": 193.0859166666778,
      "v": 83
    },
    {
      "midi": 64,
      "hit": false,
      "t": 74353.32154166694,
      "d": 238.81679166668619,
      "v": 82
    },
    {
      "midi": 61,
      "hit": false,
      "t": 74360.94335416694,
      "d": 238.81679166668619,
      "v": 81
    },
    {
      "midi": 57,
      "hit": false,
      "t": 74371.10577083362,
      "d": 223.5731666666834,
      "v": 80
    },
    {
      "midi": 64,
      "hit": false,
      "t": 74388.89000000006,
      "d": 69.86661458332674,
      "v": 127
    },
    {
      "midi": 45,
      "hit": false,
      "t": 74620.08497916696,
      "d": 442.0651250000228,
      "v": 88
    },
    {
      "midi": 52,
      "hit": false,
      "t": 74622.62558333363,
      "d": 467.47116666668444,
      "v": 92
    },
    {
      "midi": 57,
      "hit": false,
      "t": 74625.1661875003,
      "d": 444.60572916668025,
      "v": 117
    },
    {
      "midi": 61,
      "hit": false,
      "t": 74627.70679166698,
      "d": 436.98391666667885,
      "v": 122
    },
    {
      "midi": 64,
      "hit": false,
      "t": 74630.24739583365,
      "d": 452.2275416666671,
      "v": 126
    },
    {
      "midi": 64,
      "hit": false,
      "t": 74632.78800000004,
      "d": 215.95135416666744,
      "v": 127
    },
    {
      "midi": 45,
      "hit": false,
      "t": 74876.68600000003,
      "d": 232.46528124999895,
      "v": 127
    },
    {
      "midi": 64,
      "hit": false,
      "t": 74876.68600000005,
      "d": 22.86543750000419,
      "v": 127
    },
    {
      "midi": 62,
      "hit": false,
      "t": 74876.68600000005,
      "d": 391.25304166667047,
      "v": 127
    },
    {
      "midi": 45,
      "hit": false,
      "t": 75097.71856250032,
      "d": 231.19497916667024,
      "v": 95
    },
    {
      "midi": 81,
      "hit": false,
      "t": 75105.34037499991,
      "d": 942.5641458333412,
      "v": 117
    },
    {
      "midi": 93,
      "hit": false,
      "t": 75105.34037499991,
      "d": 942.5641458333412,
      "v": 117
    },
    {
      "midi": 52,
      "hit": false,
      "t": 75107.88097916699,
      "d": 208.32954166666605,
      "v": 88
    },
    {
      "midi": 57,
      "hit": false,
      "t": 75118.04339583367,
      "d": 193.08591666666325,
      "v": 98
    },
    {
      "midi": 40,
      "hit": false,
      "t": 75120.58400000003,
      "d": 641.5025520833296,
      "v": 127
    },
    {
      "midi": 61,
      "hit": false,
      "t": 75128.20581250034,
      "d": 436.98391666664975,
      "v": 90
    },
    {
      "midi": 64,
      "hit": false,
      "t": 75137.09792708367,
      "d": 452.2275416666671,
      "v": 83
    },
    {
      "midi": 57,
      "hit": false,
      "t": 75356.86018750032,
      "d": 193.08591666666325,
      "v": 85
    },
    {
      "midi": 61,
      "hit": false,
      "t": 75364.48200000005,
      "d": 282.0070624999935,
      "v": 127
    },
    {
      "midi": 52,
      "hit": false,
      "t": 75369.56320833365,
      "d": 193.08591666666325,
      "v": 71
    },
    {
      "midi": 45,
      "hit": false,
      "t": 75382.26622916698,
      "d": 193.0859166666778,
      "v": 72
    },
    {
      "midi": 45,
      "hit": false,
      "t": 75585.51456250034,
      "d": 452.2275416666962,
      "v": 88
    },
    {
      "midi": 52,
      "hit": false,
      "t": 75588.055166667,
      "d": 452.2275416666962,
      "v": 92
    },
    {
      "midi": 57,
      "hit": false,
      "t": 75590.59577083366,
      "d": 208.3295416666806,
      "v": 117
    },
    {
      "midi": 61,
      "hit": false,
      "t": 75593.13637500034,
      "d": 215.951354166682,
      "v": 122
    },
    {
      "midi": 64,
      "hit": false,
      "t": 75595.67697916701,
      "d": 198.16712500000722,
      "v": 126
    },
    {
      "midi": 64,
      "hit": false,
      "t": 75826.87195833368,
      "d": 185.4641041666764,
      "v": 104
    },
    {
      "midi": 61,
      "hit": false,
      "t": 75837.03437500035,
      "d": 177.842291666675,
      "v": 98
    },
    {
      "midi": 57,
      "hit": false,
      "t": 75849.73739583368,
      "d": 193.08591666669236,
      "v": 90
    },
    {
      "midi": 40,
      "hit": false,
      "t": 75852.27800000003,
      "d": 224.84346874999756,
      "v": 127
    },
    {
      "midi": 61,
      "hit": false,
      "t": 75852.27800000003,
      "d": 92.73205208333093,
      "v": 127
    },
    {
      "midi": 76,
      "hit": false,
      "t": 76058.06693749993,
      "d": 1031.4852916666714,
      "v": 117
    },
    {
      "midi": 88,
      "hit": false,
      "t": 76058.06693749993,
      "d": 1031.4852916666714,
      "v": 117
    },
    {
      "midi": 45,
      "hit": false,
      "t": 76063.14814583371,
      "d": 447.14633333338134,
      "v": 97
    },
    {
      "midi": 52,
      "hit": false,
      "t": 76073.31056250038,
      "d": 447.14633333338134,
      "v": 90
    },
    {
      "midi": 57,
      "hit": false,
      "t": 76083.47297916705,
      "d": 193.0859166666778,
      "v": 100
    },
    {
      "midi": 61,
      "hit": false,
      "t": 76093.63539583373,
      "d": 193.0859166666778,
      "v": 92
    },
    {
      "midi": 45,
      "hit": false,
      "t": 76096.17600000004,
      "d": 590.6904687500064,
      "v": 127
    },
    {
      "midi": 62,
      "hit": false,
      "t": 76096.17600000004,
      "d": 175.30168750000303,
      "v": 127
    },
    {
      "midi": 64,
      "hit": false,
      "t": 76103.7978125004,
      "d": 193.0859166666778,
      "v": 83
    },
    {
      "midi": 64,
      "hit": false,
      "t": 76304.50554166708,
      "d": 238.81679166668619,
      "v": 82
    },
    {
      "midi": 61,
      "hit": false,
      "t": 76312.12735416708,
      "d": 238.81679166668619,
      "v": 81
    },
    {
      "midi": 57,
      "hit": false,
      "t": 76322.28977083376,
      "d": 223.5731666666834,
      "v": 80
    },
    {
      "midi": 61,
      "hit": false,
      "t": 76340.07400000004,
      "d": 485.2553958333301,
      "v": 127
    },
    {
      "midi": 45,
      "hit": false,
      "t": 76571.2689791671,
      "d": 442.0651250000228,
      "v": 88
    },
    {
      "midi": 52,
      "hit": false,
      "t": 76573.80958333377,
      "d": 467.47116666668444,
      "v": 92
    },
    {
      "midi": 57,
      "hit": false,
      "t": 76576.35018750044,
      "d": 444.60572916668025,
      "v": 117
    },
    {
      "midi": 61,
      "hit": false,
      "t": 76578.89079166712,
      "d": 436.98391666667885,
      "v": 122
    },
    {
      "midi": 64,
      "hit": false,
      "t": 76581.43139583379,
      "d": 452.2275416666671,
      "v": 126
    },
    {
      "midi": 45,
      "hit": false,
      "t": 76827.87000000004,
      "d": 240.08709375000035,
      "v": 127
    },
    {
      "midi": 59,
      "hit": false,
      "t": 76827.87000000004,
      "d": 528.4456666666665,
      "v": 127
    },
    {
      "midi": 45,
      "hit": false,
      "t": 77048.90256250046,
      "d": 231.19497916667024,
      "v": 95
    },
    {
      "midi": 62,
      "hit": false,
      "t": 77050.17286458352,
      "d": 395.06394791667117,
      "v": 127
    },
    {
      "midi": 71,
      "hit": false,
      "t": 77052.7134687502,
      "d": 409.0372708333307,
      "v": 127
    },
    {
      "midi": 66,
      "hit": false,
      "t": 77053.98377083353,
      "d": 480.1741875000007,
      "v": 127
    },
    {
      "midi": 52,
      "hit": false,
      "t": 77059.06497916713,
      "d": 208.32954166666605,
      "v": 88
    },
    {
      "midi": 83,
      "hit": false,
      "t": 77061.60558333326,
      "d": 470.01177083334187,
      "v": 117
    },
    {
      "midi": 95,
      "hit": false,
      "t": 77061.60558333326,
      "d": 470.01177083334187,
      "v": 117
    },
    {
      "midi": 57,
      "hit": false,
      "t": 77069.2273958338,
      "d": 193.08591666666325,
      "v": 98
    },
    {
      "midi": 40,
      "hit": false,
      "t": 77071.76800000004,
      "d": 532.2565729166672,
      "v": 127
    },
    {
      "midi": 61,
      "hit": false,
      "t": 77079.38981250048,
      "d": 436.98391666664975,
      "v": 90
    },
    {
      "midi": 64,
      "hit": false,
      "t": 77088.28192708381,
      "d": 452.2275416666671,
      "v": 83
    },
    {
      "midi": 57,
      "hit": false,
      "t": 77308.04418750046,
      "d": 193.08591666666325,
      "v": 85
    },
    {
      "midi": 57,
      "hit": false,
      "t": 77315.66600000004,
      "d": 285.8179687499942,
      "v": 127
    },
    {
      "midi": 52,
      "hit": false,
      "t": 77320.74720833379,
      "d": 193.08591666666325,
      "v": 71
    },
    {
      "midi": 45,
      "hit": false,
      "t": 77333.45022916712,
      "d": 193.0859166666778,
      "v": 72
    },
    {
      "midi": 85,
      "hit": false,
      "t": 77521.45493749993,
      "d": 448.4166354166664,
      "v": 117
    },
    {
      "midi": 97,
      "hit": false,
      "t": 77521.45493749993,
      "d": 448.4166354166664,
      "v": 117
    },
    {
      "midi": 64,
      "hit": false,
      "t": 77534.15795833353,
      "d": 489.0663020833308,
      "v": 127
    },
    {
      "midi": 69,
      "hit": false,
      "t": 77534.15795833353,
      "d": 489.0663020833308,
      "v": 127
    },
    {
      "midi": 73,
      "hit": false,
      "t": 77534.15795833353,
      "d": 489.0663020833308,
      "v": 127
    },
    {
      "midi": 45,
      "hit": false,
      "t": 77536.69856250047,
      "d": 452.2275416666962,
      "v": 88
    },
    {
      "midi": 52,
      "hit": false,
      "t": 77539.23916666715,
      "d": 452.2275416666962,
      "v": 92
    },
    {
      "midi": 57,
      "hit": false,
      "t": 77541.7797708338,
      "d": 208.3295416666806,
      "v": 117
    },
    {
      "midi": 61,
      "hit": false,
      "t": 77544.32037500048,
      "d": 215.951354166682,
      "v": 122
    },
    {
      "midi": 64,
      "hit": false,
      "t": 77546.86097916715,
      "d": 198.16712500000722,
      "v": 126
    },
    {
      "midi": 45,
      "hit": false,
      "t": 77559.56400000004,
      "d": 233.73558333332767,
      "v": 127
    },
    {
      "midi": 64,
      "hit": false,
      "t": 77778.05595833382,
      "d": 185.4641041666764,
      "v": 104
    },
    {
      "midi": 61,
      "hit": false,
      "t": 77788.21837500049,
      "d": 177.842291666675,
      "v": 98
    },
    {
      "midi": 57,
      "hit": false,
      "t": 77800.92139583382,
      "d": 193.08591666669236,
      "v": 90
    },
    {
      "midi": 40,
      "hit": false,
      "t": 77803.46200000004,
      "d": 221.03256249999686,
      "v": 127
    },
    {
      "midi": 81,
      "hit": false,
      "t": 77991.46670833326,
      "d": 998.4574375000084,
      "v": 117
    },
    {
      "midi": 93,
      "hit": false,
      "t": 77991.46670833326,
      "d": 998.4574375000084,
      "v": 117
    },
    {
      "midi": 50,
      "hit": false,
      "t": 78014.33214583385,
      "d": 447.14633333338134,
      "v": 97
    },
    {
      "midi": 57,
      "hit": false,
      "t": 78023.22426041686,
      "d": 2934.3978124999703,
      "v": 127
    },
    {
      "midi": 54,
      "hit": false,
      "t": 78024.49456250052,
      "d": 447.14633333338134,
      "v": 90
    },
    {
      "midi": 66,
      "hit": false,
      "t": 78025.76486458353,
      "d": 2939.4790208332997,
      "v": 127
    },
    {
      "midi": 62,
      "hit": false,
      "t": 78025.76486458353,
      "d": 2952.1820416666305,
      "v": 127
    },
    {
      "midi": 57,
      "hit": false,
      "t": 78034.6569791672,
      "d": 193.0859166666778,
      "v": 100
    },
    {
      "midi": 62,
      "hit": false,
      "t": 78044.81939583387,
      "d": 193.0859166666778,
      "v": 92
    },
    {
      "midi": 38,
      "hit": false,
      "t": 78047.36000000004,
      "d": 612.2856041666673,
      "v": 127
    },
    {
      "midi": 66,
      "hit": false,
      "t": 78054.98181250054,
      "d": 193.0859166666778,
      "v": 83
    },
    {
      "midi": 66,
      "hit": false,
      "t": 78255.68954166722,
      "d": 238.81679166668619,
      "v": 82
    },
    {
      "midi": 62,
      "hit": false,
      "t": 78263.31135416722,
      "d": 238.81679166668619,
      "v": 81
    },
    {
      "midi": 57,
      "hit": false,
      "t": 78273.4737708339,
      "d": 223.5731666666834,
      "v": 80
    },
    {
      "midi": 57,
      "hit": false,
      "t": 78291.25800000003,
      "d": 68.59631249999802,
      "v": 127
    },
    {
      "midi": 50,
      "hit": false,
      "t": 78522.45297916724,
      "d": 442.0651250000228,
      "v": 88
    },
    {
      "midi": 54,
      "hit": false,
      "t": 78524.99358333391,
      "d": 467.47116666668444,
      "v": 92
    },
    {
      "midi": 57,
      "hit": false,
      "t": 78527.53418750058,
      "d": 444.60572916668025,
      "v": 117
    },
    {
      "midi": 62,
      "hit": false,
      "t": 78530.07479166726,
      "d": 436.98391666667885,
      "v": 122
    },
    {
      "midi": 66,
      "hit": false,
      "t": 78532.61539583393,
      "d": 452.2275416666671,
      "v": 126
    },
    {
      "midi": 57,
      "hit": false,
      "t": 78535.15600000003,
      "d": 68.59631249999802,
      "v": 127
    },
    {
      "midi": 57,
      "hit": false,
      "t": 78779.05400000003,
      "d": 72.40721874999872,
      "v": 127
    },
    {
      "midi": 38,
      "hit": false,
      "t": 78779.05400000005,
      "d": 193.08591666666325,
      "v": 127
    },
    {
      "midi": 78,
      "hit": false,
      "t": 78979.7617291666,
      "d": 947.6453541666706,
      "v": 117
    },
    {
      "midi": 90,
      "hit": false,
      "t": 78979.7617291666,
      "d": 947.6453541666706,
      "v": 117
    },
    {
      "midi": 50,
      "hit": false,
      "t": 79000.0865625006,
      "d": 231.19497916667024,
      "v": 95
    },
    {
      "midi": 54,
      "hit": false,
      "t": 79010.24897916727,
      "d": 208.32954166666605,
      "v": 88
    },
    {
      "midi": 57,
      "hit": false,
      "t": 79020.41139583394,
      "d": 193.08591666666325,
      "v": 98
    },
    {
      "midi": 57,
      "hit": false,
      "t": 79022.95200000003,
      "d": 111.78658333333442,
      "v": 127
    },
    {
      "midi": 33,
      "hit": false,
      "t": 79022.95200000005,
      "d": 612.2856041666673,
      "v": 127
    },
    {
      "midi": 62,
      "hit": false,
      "t": 79030.57381250062,
      "d": 436.98391666664975,
      "v": 90
    },
    {
      "midi": 66,
      "hit": false,
      "t": 79039.46592708395,
      "d": 452.2275416666671,
      "v": 83
    },
    {
      "midi": 57,
      "hit": false,
      "t": 79259.2281875006,
      "d": 193.08591666666325,
      "v": 85
    },
    {
      "midi": 57,
      "hit": false,
      "t": 79266.85000000003,
      "d": 367.11730208333756,
      "v": 127
    },
    {
      "midi": 54,
      "hit": false,
      "t": 79271.93120833393,
      "d": 193.08591666666325,
      "v": 71
    },
    {
      "midi": 50,
      "hit": false,
      "t": 79284.63422916726,
      "d": 193.0859166666778,
      "v": 72
    },
    {
      "midi": 50,
      "hit": false,
      "t": 79487.88256250061,
      "d": 452.2275416666962,
      "v": 88
    },
    {
      "midi": 54,
      "hit": false,
      "t": 79490.42316666729,
      "d": 452.2275416666962,
      "v": 92
    },
    {
      "midi": 57,
      "hit": false,
      "t": 79492.96377083394,
      "d": 208.3295416666806,
      "v": 117
    },
    {
      "midi": 62,
      "hit": false,
      "t": 79495.50437500062,
      "d": 215.951354166682,
      "v": 122
    },
    {
      "midi": 66,
      "hit": false,
      "t": 79498.04497916729,
      "d": 198.16712500000722,
      "v": 126
    },
    {
      "midi": 66,
      "hit": false,
      "t": 79729.23995833396,
      "d": 185.4641041666764,
      "v": 104
    },
    {
      "midi": 62,
      "hit": false,
      "t": 79739.40237500063,
      "d": 177.842291666675,
      "v": 98
    },
    {
      "midi": 57,
      "hit": false,
      "t": 79752.10539583396,
      "d": 193.08591666669236,
      "v": 90
    },
    {
      "midi": 56,
      "hit": false,
      "t": 79754.64600000004,
      "d": 87.65084375000151,
      "v": 127
    },
    {
      "midi": 33,
      "hit": false,
      "t": 79754.64600000005,
      "d": 235.00588541667094,
      "v": 127
    },
    {
      "midi": 86,
      "hit": false,
      "t": 79955.3537291666,
      "d": 2009.617895833333,
      "v": 117
    },
    {
      "midi": 98,
      "hit": false,
      "t": 79955.3537291666,
      "d": 2009.617895833333,
      "v": 117
    },
    {
      "midi": 50,
      "hit": false,
      "t": 79965.51614583399,
      "d": 447.14633333338134,
      "v": 97
    },
    {
      "midi": 54,
      "hit": false,
      "t": 79975.67856250066,
      "d": 447.14633333338134,
      "v": 90
    },
    {
      "midi": 57,
      "hit": false,
      "t": 79985.84097916733,
      "d": 193.0859166666778,
      "v": 100
    },
    {
      "midi": 62,
      "hit": false,
      "t": 79996.003395834,
      "d": 193.0859166666778,
      "v": 92
    },
    {
      "midi": 57,
      "hit": false,
      "t": 79998.54400000004,
      "d": 248.97920833333046,
      "v": 127
    },
    {
      "midi": 38,
      "hit": false,
      "t": 79998.54400000005,
      "d": 556.3923125000001,
      "v": 127
    },
    {
      "midi": 66,
      "hit": false,
      "t": 80006.16581250068,
      "d": 193.0859166666778,
      "v": 83
    },
    {
      "midi": 66,
      "hit": false,
      "t": 80206.87354166736,
      "d": 238.81679166668619,
      "v": 82
    },
    {
      "midi": 62,
      "hit": false,
      "t": 80214.49535416736,
      "d": 238.81679166668619,
      "v": 81
    },
    {
      "midi": 57,
      "hit": false,
      "t": 80224.65777083403,
      "d": 223.5731666666834,
      "v": 80
    },
    {
      "midi": 56,
      "hit": false,
      "t": 80242.44200000004,
      "d": 487.7960000000021,
      "v": 127
    },
    {
      "midi": 50,
      "hit": false,
      "t": 80473.63697916738,
      "d": 442.0651250000228,
      "v": 88
    },
    {
      "midi": 54,
      "hit": false,
      "t": 80476.17758333405,
      "d": 467.47116666668444,
      "v": 92
    },
    {
      "midi": 57,
      "hit": false,
      "t": 80478.71818750072,
      "d": 444.60572916668025,
      "v": 117
    },
    {
      "midi": 62,
      "hit": false,
      "t": 80481.2587916674,
      "d": 436.98391666667885,
      "v": 122
    },
    {
      "midi": 66,
      "hit": false,
      "t": 80483.79939583407,
      "d": 452.2275416666671,
      "v": 126
    },
    {
      "midi": 54,
      "hit": false,
      "t": 80730.23800000004,
      "d": 388.7124374999985,
      "v": 127
    },
    {
      "midi": 38,
      "hit": false,
      "t": 80730.23800000006,
      "d": 201.97803124999336,
      "v": 127
    },
    {
      "midi": 50,
      "hit": false,
      "t": 80951.27056250074,
      "d": 231.19497916667024,
      "v": 95
    },
    {
      "midi": 54,
      "hit": false,
      "t": 80961.43297916741,
      "d": 208.32954166666605,
      "v": 88
    },
    {
      "midi": 57,
      "hit": false,
      "t": 80971.59539583408,
      "d": 193.08591666666325,
      "v": 98
    },
    {
      "midi": 33,
      "hit": false,
      "t": 80974.13600000004,
      "d": 508.1208333333343,
      "v": 127
    },
    {
      "midi": 62,
      "hit": false,
      "t": 80981.75781250076,
      "d": 436.98391666664975,
      "v": 90
    },
    {
      "midi": 66,
      "hit": false,
      "t": 80990.64992708409,
      "d": 452.2275416666671,
      "v": 83
    },
    {
      "midi": 57,
      "hit": false,
      "t": 81210.41218750074,
      "d": 193.08591666666325,
      "v": 85
    },
    {
      "midi": 54,
      "hit": false,
      "t": 81223.11520833407,
      "d": 193.08591666666325,
      "v": 71
    },
    {
      "midi": 50,
      "hit": false,
      "t": 81235.8182291674,
      "d": 193.0859166666778,
      "v": 72
    },
    {
      "midi": 50,
      "hit": false,
      "t": 81439.06656250075,
      "d": 452.2275416666962,
      "v": 88
    },
    {
      "midi": 54,
      "hit": false,
      "t": 81441.60716666743,
      "d": 452.2275416666962,
      "v": 92
    },
    {
      "midi": 57,
      "hit": false,
      "t": 81444.14777083408,
      "d": 208.3295416666806,
      "v": 117
    },
    {
      "midi": 62,
      "hit": false,
      "t": 81446.68837500075,
      "d": 215.951354166682,
      "v": 122
    },
    {
      "midi": 66,
      "hit": false,
      "t": 81449.22897916743,
      "d": 198.16712500000722,
      "v": 126
    },
    {
      "midi": 38,
      "hit": false,
      "t": 81461.93200000004,
      "d": 223.57316666666884,
      "v": 127
    },
    {
      "midi": 66,
      "hit": false,
      "t": 81680.4239583341,
      "d": 185.4641041666764,
      "v": 104
    },
    {
      "midi": 62,
      "hit": false,
      "t": 81690.58637500077,
      "d": 177.842291666675,
      "v": 98
    },
    {
      "midi": 57,
      "hit": false,
      "t": 81703.2893958341,
      "d": 193.08591666669236,
      "v": 90
    },
    {
      "midi": 39,
      "hit": false,
      "t": 81705.83000000005,
      "d": 241.35739583332906,
      "v": 127
    },
    {
      "midi": 40,
      "hit": false,
      "t": 81916.70014583413,
      "d": 447.14633333338134,
      "v": 80
    },
    {
      "midi": 57,
      "hit": false,
      "t": 81917.97044791683,
      "d": 3849.015312499847,
      "v": 127
    },
    {
      "midi": 66,
      "hit": false,
      "t": 81919.24075000016,
      "d": 3823.6092708331853,
      "v": 127
    },
    {
      "midi": 62,
      "hit": false,
      "t": 81919.24075000016,
      "d": 3837.582593749845,
      "v": 127
    },
    {
      "midi": 47,
      "hit": false,
      "t": 81926.8625625008,
      "d": 447.14633333338134,
      "v": 90
    },
    {
      "midi": 52,
      "hit": false,
      "t": 81937.02497916747,
      "d": 193.0859166666778,
      "v": 83
    },
    {
      "midi": 56,
      "hit": false,
      "t": 81947.18739583415,
      "d": 193.0859166666778,
      "v": 92
    },
    {
      "midi": 83,
      "hit": false,
      "t": 81949.72799999993,
      "d": 941.2938437499979,
      "v": 117
    },
    {
      "midi": 95,
      "hit": false,
      "t": 81949.72799999993,
      "d": 941.2938437499979,
      "v": 117
    },
    {
      "midi": 40,
      "hit": false,
      "t": 81949.72800000005,
      "d": 566.5547291666735,
      "v": 127
    },
    {
      "midi": 59,
      "hit": false,
      "t": 81957.34981250082,
      "d": 193.0859166666778,
      "v": 83
    },
    {
      "midi": 59,
      "hit": false,
      "t": 82158.0575416675,
      "d": 238.81679166668619,
      "v": 82
    },
    {
      "midi": 56,
      "hit": false,
      "t": 82165.6793541675,
      "d": 238.81679166668619,
      "v": 81
    },
    {
      "midi": 52,
      "hit": false,
      "t": 82175.84177083417,
      "d": 223.5731666666834,
      "v": 66
    },
    {
      "midi": 52,
      "hit": false,
      "t": 82193.62600000003,
      "d": 78.7587291666714,
      "v": 127
    },
    {
      "midi": 40,
      "hit": false,
      "t": 82424.82097916752,
      "d": 442.0651250000228,
      "v": 73
    },
    {
      "midi": 47,
      "hit": false,
      "t": 82427.36158333419,
      "d": 467.47116666668444,
      "v": 92
    },
    {
      "midi": 52,
      "hit": false,
      "t": 82429.90218750086,
      "d": 444.60572916668025,
      "v": 97
    },
    {
      "midi": 56,
      "hit": false,
      "t": 82432.44279166753,
      "d": 436.98391666667885,
      "v": 122
    },
    {
      "midi": 59,
      "hit": false,
      "t": 82434.9833958342,
      "d": 452.2275416666671,
      "v": 126
    },
    {
      "midi": 52,
      "hit": false,
      "t": 82437.52400000003,
      "d": 81.29933333332883,
      "v": 127
    },
    {
      "midi": 52,
      "hit": false,
      "t": 82681.42200000004,
      "d": 254.06041666665988,
      "v": 127
    },
    {
      "midi": 40,
      "hit": false,
      "t": 82681.42200000005,
      "d": 219.76226041666814,
      "v": 127
    },
    {
      "midi": 80,
      "hit": false,
      "t": 82897.3733541666,
      "d": 1841.9380208333314,
      "v": 117
    },
    {
      "midi": 92,
      "hit": false,
      "t": 82897.3733541666,
      "d": 1841.9380208333314,
      "v": 117
    },
    {
      "midi": 40,
      "hit": false,
      "t": 82902.45456250088,
      "d": 231.19497916667024,
      "v": 79
    },
    {
      "midi": 47,
      "hit": false,
      "t": 82912.61697916755,
      "d": 208.32954166666605,
      "v": 88
    },
    {
      "midi": 52,
      "hit": false,
      "t": 82922.77939583422,
      "d": 193.08591666666325,
      "v": 81
    },
    {
      "midi": 35,
      "hit": false,
      "t": 82925.32000000005,
      "d": 570.3656354166596,
      "v": 127
    },
    {
      "midi": 56,
      "hit": false,
      "t": 82932.9418125009,
      "d": 436.98391666664975,
      "v": 90
    },
    {
      "midi": 59,
      "hit": false,
      "t": 82941.83392708423,
      "d": 452.2275416666671,
      "v": 83
    },
    {
      "midi": 52,
      "hit": false,
      "t": 83161.59618750088,
      "d": 193.08591666666325,
      "v": 70
    },
    {
      "midi": 52,
      "hit": false,
      "t": 83169.21800000002,
      "d": 88.92114583333023,
      "v": 127
    },
    {
      "midi": 47,
      "hit": false,
      "t": 83174.29920833421,
      "d": 193.08591666666325,
      "v": 71
    },
    {
      "midi": 40,
      "hit": false,
      "t": 83187.00222916754,
      "d": 193.0859166666778,
      "v": 60
    },
    {
      "midi": 40,
      "hit": false,
      "t": 83390.25056250089,
      "d": 452.2275416666962,
      "v": 73
    },
    {
      "midi": 47,
      "hit": false,
      "t": 83392.79116666756,
      "d": 452.2275416666962,
      "v": 92
    },
    {
      "midi": 52,
      "hit": false,
      "t": 83395.33177083422,
      "d": 208.3295416666806,
      "v": 97
    },
    {
      "midi": 56,
      "hit": false,
      "t": 83397.8723750009,
      "d": 215.951354166682,
      "v": 122
    },
    {
      "midi": 59,
      "hit": false,
      "t": 83400.41297916757,
      "d": 198.16712500000722,
      "v": 126
    },
    {
      "midi": 52,
      "hit": false,
      "t": 83413.11600000002,
      "d": 82.5696354166721,
      "v": 127
    },
    {
      "midi": 59,
      "hit": false,
      "t": 83631.60795833424,
      "d": 185.4641041666764,
      "v": 104
    },
    {
      "midi": 56,
      "hit": false,
      "t": 83641.77037500091,
      "d": 177.842291666675,
      "v": 98
    },
    {
      "midi": 52,
      "hit": false,
      "t": 83654.47339583424,
      "d": 193.08591666669236,
      "v": 75
    },
    {
      "midi": 52,
      "hit": false,
      "t": 83657.01400000002,
      "d": 246.43860416667303,
      "v": 127
    },
    {
      "midi": 35,
      "hit": false,
      "t": 83657.01400000004,
      "d": 222.30286458334012,
      "v": 127
    },
    {
      "midi": 40,
      "hit": false,
      "t": 83867.88414583426,
      "d": 447.14633333338134,
      "v": 80
    },
    {
      "midi": 47,
      "hit": false,
      "t": 83878.04656250094,
      "d": 447.14633333338134,
      "v": 90
    },
    {
      "midi": 52,
      "hit": false,
      "t": 83888.20897916761,
      "d": 193.0859166666778,
      "v": 83
    },
    {
      "midi": 56,
      "hit": false,
      "t": 83898.37139583429,
      "d": 193.0859166666778,
      "v": 92
    },
    {
      "midi": 40,
      "hit": false,
      "t": 83900.91200000004,
      "d": 584.3389583333337,
      "v": 127
    },
    {
      "midi": 59,
      "hit": false,
      "t": 83908.53381250096,
      "d": 193.0859166666778,
      "v": 83
    },
    {
      "midi": 59,
      "hit": false,
      "t": 84109.24154166764,
      "d": 238.81679166668619,
      "v": 82
    },
    {
      "midi": 56,
      "hit": false,
      "t": 84116.86335416764,
      "d": 238.81679166668619,
      "v": 81
    },
    {
      "midi": 52,
      "hit": false,
      "t": 84127.02577083431,
      "d": 223.5731666666834,
      "v": 66
    },
    {
      "midi": 52,
      "hit": false,
      "t": 84144.81000000003,
      "d": 224.84346874999756,
      "v": 127
    },
    {
      "midi": 40,
      "hit": false,
      "t": 84376.00497916766,
      "d": 442.0651250000228,
      "v": 73
    },
    {
      "midi": 47,
      "hit": false,
      "t": 84378.54558333433,
      "d": 467.47116666668444,
      "v": 92
    },
    {
      "midi": 52,
      "hit": false,
      "t": 84381.086187501,
      "d": 444.60572916668025,
      "v": 97
    },
    {
      "midi": 56,
      "hit": false,
      "t": 84383.62679166767,
      "d": 436.98391666667885,
      "v": 122
    },
    {
      "midi": 59,
      "hit": false,
      "t": 84386.16739583435,
      "d": 452.2275416666671,
      "v": 126
    },
    {
      "midi": 52,
      "hit": false,
      "t": 84632.60600000003,
      "d": 755.829739583336,
      "v": 127
    },
    {
      "midi": 40,
      "hit": false,
      "t": 84632.60600000004,
      "d": 224.84346874999756,
      "v": 127
    },
    {
      "midi": 40,
      "hit": false,
      "t": 84853.63856250102,
      "d": 231.19497916667024,
      "v": 79
    },
    {
      "midi": 81,
      "hit": false,
      "t": 84854.90886458327,
      "d": 487.7960000000021,
      "v": 117
    },
    {
      "midi": 93,
      "hit": false,
      "t": 84854.90886458327,
      "d": 487.7960000000021,
      "v": 117
    },
    {
      "midi": 47,
      "hit": false,
      "t": 84863.80097916769,
      "d": 208.32954166666605,
      "v": 88
    },
    {
      "midi": 52,
      "hit": false,
      "t": 84873.96339583436,
      "d": 193.08591666666325,
      "v": 81
    },
    {
      "midi": 35,
      "hit": false,
      "t": 84876.50400000004,
      "d": 417.9293854166608,
      "v": 127
    },
    {
      "midi": 56,
      "hit": false,
      "t": 84884.12581250104,
      "d": 436.98391666664975,
      "v": 90
    },
    {
      "midi": 59,
      "hit": false,
      "t": 84893.01792708437,
      "d": 452.2275416666671,
      "v": 83
    },
    {
      "midi": 52,
      "hit": false,
      "t": 85112.78018750102,
      "d": 193.08591666666325,
      "v": 70
    },
    {
      "midi": 47,
      "hit": false,
      "t": 85125.48320833435,
      "d": 193.08591666666325,
      "v": 71
    },
    {
      "midi": 40,
      "hit": false,
      "t": 85138.18622916768,
      "d": 193.0859166666778,
      "v": 60
    },
    {
      "midi": 40,
      "hit": false,
      "t": 85341.43456250103,
      "d": 452.2275416666962,
      "v": 73
    },
    {
      "midi": 47,
      "hit": false,
      "t": 85343.9751666677,
      "d": 452.2275416666962,
      "v": 92
    },
    {
      "midi": 52,
      "hit": false,
      "t": 85346.51577083436,
      "d": 208.3295416666806,
      "v": 97
    },
    {
      "midi": 56,
      "hit": false,
      "t": 85349.05637500103,
      "d": 215.951354166682,
      "v": 122
    },
    {
      "midi": 85,
      "hit": false,
      "t": 85351.5969791666,
      "d": 447.1463333333377,
      "v": 117
    },
    {
      "midi": 97,
      "hit": false,
      "t": 85351.5969791666,
      "d": 447.1463333333377,
      "v": 117
    },
    {
      "midi": 59,
      "hit": false,
      "t": 85351.5969791677,
      "d": 198.16712500000722,
      "v": 126
    },
    {
      "midi": 40,
      "hit": false,
      "t": 85364.30000000003,
      "d": 242.62769791667233,
      "v": 127
    },
    {
      "midi": 59,
      "hit": false,
      "t": 85582.79195833438,
      "d": 185.4641041666764,
      "v": 104
    },
    {
      "midi": 56,
      "hit": false,
      "t": 85592.95437500105,
      "d": 177.842291666675,
      "v": 98
    },
    {
      "midi": 52,
      "hit": false,
      "t": 85605.65739583438,
      "d": 193.08591666669236,
      "v": 75
    },
    {
      "midi": 44,
      "hit": false,
      "t": 85608.19800000003,
      "d": 199.43742708333593,
      "v": 127
    },
    {
      "midi": 52,
      "hit": false,
      "t": 85608.19800000003,
      "d": 106.705375000005,
      "v": 127
    },
    {
      "midi": 76,
      "hit": false,
      "t": 85813.98693749994,
      "d": 2256.056500000006,
      "v": 117
    },
    {
      "midi": 88,
      "hit": false,
      "t": 85813.98693749994,
      "d": 2256.056500000006,
      "v": 117
    },
    {
      "midi": 45,
      "hit": false,
      "t": 85819.0681458344,
      "d": 447.14633333338134,
      "v": 97
    },
    {
      "midi": 52,
      "hit": false,
      "t": 85829.23056250108,
      "d": 447.14633333338134,
      "v": 90
    },
    {
      "midi": 57,
      "hit": false,
      "t": 85839.39297916775,
      "d": 193.0859166666778,
      "v": 100
    },
    {
      "midi": 61,
      "hit": false,
      "t": 85849.55539583442,
      "d": 193.0859166666778,
      "v": 92
    },
    {
      "midi": 61,
      "hit": false,
      "t": 85850.82569791666,
      "d": 1698.3938854166627,
      "v": 127
    },
    {
      "midi": 57,
      "hit": false,
      "t": 85850.82569791666,
      "d": 1744.1247604166565,
      "v": 127
    },
    {
      "midi": 64,
      "hit": false,
      "t": 85852.09599999999,
      "d": 1726.3405312499963,
      "v": 127
    },
    {
      "midi": 45,
      "hit": false,
      "t": 85852.09600000003,
      "d": 635.1510416666715,
      "v": 127
    },
    {
      "midi": 54,
      "hit": false,
      "t": 85852.09600000003,
      "d": 141.00353124999674,
      "v": 127
    },
    {
      "midi": 64,
      "hit": false,
      "t": 85859.7178125011,
      "d": 193.0859166666778,
      "v": 83
    },
    {
      "midi": 64,
      "hit": false,
      "t": 86060.42554166778,
      "d": 238.81679166668619,
      "v": 82
    },
    {
      "midi": 61,
      "hit": false,
      "t": 86068.04735416778,
      "d": 238.81679166668619,
      "v": 81
    },
    {
      "midi": 57,
      "hit": false,
      "t": 86078.20977083445,
      "d": 223.5731666666834,
      "v": 80
    },
    {
      "midi": 57,
      "hit": false,
      "t": 86095.99400000004,
      "d": 78.7587291666714,
      "v": 127
    },
    {
      "midi": 45,
      "hit": false,
      "t": 86327.1889791678,
      "d": 442.0651250000228,
      "v": 88
    },
    {
      "midi": 52,
      "hit": false,
      "t": 86329.72958333447,
      "d": 467.47116666668444,
      "v": 92
    },
    {
      "midi": 57,
      "hit": false,
      "t": 86332.27018750114,
      "d": 444.60572916668025,
      "v": 117
    },
    {
      "midi": 61,
      "hit": false,
      "t": 86334.81079166781,
      "d": 436.98391666667885,
      "v": 122
    },
    {
      "midi": 64,
      "hit": false,
      "t": 86337.35139583448,
      "d": 452.2275416666671,
      "v": 126
    },
    {
      "midi": 57,
      "hit": false,
      "t": 86339.89200000004,
      "d": 67.3260104166693,
      "v": 127
    },
    {
      "midi": 45,
      "hit": false,
      "t": 86583.79000000004,
      "d": 215.95135416666744,
      "v": 127
    },
    {
      "midi": 57,
      "hit": false,
      "t": 86583.79000000004,
      "d": 779.965479166669,
      "v": 127
    },
    {
      "midi": 45,
      "hit": false,
      "t": 86804.82256250115,
      "d": 231.19497916667024,
      "v": 95
    },
    {
      "midi": 52,
      "hit": false,
      "t": 86814.98497916783,
      "d": 208.32954166666605,
      "v": 88
    },
    {
      "midi": 57,
      "hit": false,
      "t": 86825.1473958345,
      "d": 193.08591666666325,
      "v": 98
    },
    {
      "midi": 40,
      "hit": false,
      "t": 86827.68800000004,
      "d": 483.9850937500014,
      "v": 127
    },
    {
      "midi": 61,
      "hit": false,
      "t": 86835.30981250117,
      "d": 436.98391666664975,
      "v": 90
    },
    {
      "midi": 64,
      "hit": false,
      "t": 86844.2019270845,
      "d": 452.2275416666671,
      "v": 83
    },
    {
      "midi": 57,
      "hit": false,
      "t": 87063.96418750116,
      "d": 193.08591666666325,
      "v": 85
    },
    {
      "midi": 52,
      "hit": false,
      "t": 87076.66720833449,
      "d": 193.08591666666325,
      "v": 71
    },
    {
      "midi": 45,
      "hit": false,
      "t": 87089.37022916782,
      "d": 193.0859166666778,
      "v": 72
    },
    {
      "midi": 45,
      "hit": false,
      "t": 87292.61856250117,
      "d": 452.2275416666962,
      "v": 88
    },
    {
      "midi": 52,
      "hit": false,
      "t": 87295.15916666784,
      "d": 452.2275416666962,
      "v": 92
    },
    {
      "midi": 57,
      "hit": false,
      "t": 87297.6997708345,
      "d": 208.3295416666806,
      "v": 117
    },
    {
      "midi": 61,
      "hit": false,
      "t": 87300.24037500117,
      "d": 215.951354166682,
      "v": 122
    },
    {
      "midi": 64,
      "hit": false,
      "t": 87302.78097916784,
      "d": 198.16712500000722,
      "v": 126
    },
    {
      "midi": 45,
      "hit": false,
      "t": 87315.48400000004,
      "d": 231.19497916667024,
      "v": 127
    },
    {
      "midi": 64,
      "hit": false,
      "t": 87533.97595833451,
      "d": 185.4641041666764,
      "v": 104
    },
    {
      "midi": 61,
      "hit": false,
      "t": 87544.13837500119,
      "d": 177.842291666675,
      "v": 98
    },
    {
      "midi": 57,
      "hit": false,
      "t": 87556.84139583452,
      "d": 193.08591666669236,
      "v": 90
    },
    {
      "midi": 45,
      "hit": false,
      "t": 87559.38200000004,
      "d": 226.11377083332627,
      "v": 127
    },
    {
      "midi": 40,
      "hit": false,
      "t": 87770.25214583454,
      "d": 447.14633333338134,
      "v": 80
    },
    {
      "midi": 47,
      "hit": false,
      "t": 87780.41456250122,
      "d": 447.14633333338134,
      "v": 75
    },
    {
      "midi": 52,
      "hit": false,
      "t": 87790.57697916789,
      "d": 193.0859166666778,
      "v": 69
    },
    {
      "midi": 56,
      "hit": false,
      "t": 87800.73939583456,
      "d": 193.0859166666778,
      "v": 92
    },
    {
      "midi": 40,
      "hit": false,
      "t": 87803.28000000003,
      "d": 213.41074999999546,
      "v": 127
    },
    {
      "midi": 59,
      "hit": false,
      "t": 87810.90181250124,
      "d": 193.0859166666778,
      "v": 83
    },
    {
      "midi": 59,
      "hit": false,
      "t": 88011.60954166792,
      "d": 238.81679166668619,
      "v": 82
    },
    {
      "midi": 56,
      "hit": false,
      "t": 88019.23135416792,
      "d": 238.81679166668619,
      "v": 81
    },
    {
      "midi": 52,
      "hit": false,
      "t": 88029.39377083459,
      "d": 223.5731666666834,
      "v": 55
    },
    {
      "midi": 40,
      "hit": false,
      "t": 88047.17800000003,
      "d": 243.89800000000105,
      "v": 127
    },
    {
      "midi": 64,
      "hit": false,
      "t": 88265.66995833328,
      "d": 511.931739583335,
      "v": 127
    },
    {
      "midi": 68,
      "hit": false,
      "t": 88273.29177083328,
      "d": 442.0651249999937,
      "v": 127
    },
    {
      "midi": 40,
      "hit": false,
      "t": 88278.37297916794,
      "d": 442.0651250000228,
      "v": 73
    },
    {
      "midi": 47,
      "hit": false,
      "t": 88280.91358333461,
      "d": 467.47116666668444,
      "v": 76
    },
    {
      "midi": 52,
      "hit": false,
      "t": 88283.45418750128,
      "d": 444.60572916668025,
      "v": 80
    },
    {
      "midi": 56,
      "hit": false,
      "t": 88285.99479166795,
      "d": 436.98391666667885,
      "v": 122
    },
    {
      "midi": 59,
      "hit": false,
      "t": 88288.53539583462,
      "d": 452.2275416666671,
      "v": 126
    },
    {
      "midi": 38,
      "hit": false,
      "t": 88291.07600000003,
      "d": 457.3087499999965,
      "v": 127
    },
    {
      "midi": 69,
      "hit": false,
      "t": 88736.95203124994,
      "d": 489.06630208334536,
      "v": 127
    },
    {
      "midi": 66,
      "hit": false,
      "t": 88743.30354166661,
      "d": 454.7681458333391,
      "v": 127
    },
    {
      "midi": 40,
      "hit": false,
      "t": 88756.0065625013,
      "d": 231.19497916667024,
      "v": 79
    },
    {
      "midi": 47,
      "hit": false,
      "t": 88766.16897916797,
      "d": 208.32954166666605,
      "v": 73
    },
    {
      "midi": 52,
      "hit": false,
      "t": 88776.33139583464,
      "d": 193.08591666666325,
      "v": 67
    },
    {
      "midi": 37,
      "hit": false,
      "t": 88778.87200000003,
      "d": 457.3087499999965,
      "v": 127
    },
    {
      "midi": 56,
      "hit": false,
      "t": 88786.49381250131,
      "d": 436.98391666664975,
      "v": 90
    },
    {
      "midi": 59,
      "hit": false,
      "t": 88795.38592708464,
      "d": 452.2275416666671,
      "v": 83
    },
    {
      "midi": 52,
      "hit": false,
      "t": 89015.1481875013,
      "d": 193.08591666666325,
      "v": 58
    },
    {
      "midi": 47,
      "hit": false,
      "t": 89027.85120833463,
      "d": 193.08591666666325,
      "v": 59
    },
    {
      "midi": 40,
      "hit": false,
      "t": 89040.55422916796,
      "d": 193.0859166666778,
      "v": 60
    },
    {
      "midi": 68,
      "hit": false,
      "t": 89212.04501041661,
      "d": 495.4178125000035,
      "v": 127
    },
    {
      "midi": 71,
      "hit": false,
      "t": 89218.39652083328,
      "d": 505.5802291666769,
      "v": 127
    },
    {
      "midi": 40,
      "hit": false,
      "t": 89243.80256250131,
      "d": 452.2275416666962,
      "v": 73
    },
    {
      "midi": 47,
      "hit": false,
      "t": 89246.34316666798,
      "d": 452.2275416666962,
      "v": 76
    },
    {
      "midi": 52,
      "hit": false,
      "t": 89248.88377083464,
      "d": 208.3295416666806,
      "v": 80
    },
    {
      "midi": 56,
      "hit": false,
      "t": 89251.42437500131,
      "d": 215.951354166682,
      "v": 122
    },
    {
      "midi": 59,
      "hit": false,
      "t": 89253.96497916798,
      "d": 198.16712500000722,
      "v": 126
    },
    {
      "midi": 35,
      "hit": false,
      "t": 89266.66800000003,
      "d": 457.3087499999965,
      "v": 127
    },
    {
      "midi": 64,
      "hit": false,
      "t": 89266.66800000003,
      "d": 83.83993750000081,
      "v": 127
    },
    {
      "midi": 59,
      "hit": false,
      "t": 89485.15995833465,
      "d": 185.4641041666764,
      "v": 104
    },
    {
      "midi": 56,
      "hit": false,
      "t": 89495.32237500133,
      "d": 177.842291666675,
      "v": 98
    },
    {
      "midi": 52,
      "hit": false,
      "t": 89508.02539583466,
      "d": 193.08591666669236,
      "v": 62
    },
    {
      "midi": 64,
      "hit": false,
      "t": 89510.56600000004,
      "d": 77.48842708332813,
      "v": 127
    },
    {
      "midi": 64,
      "hit": false,
      "t": 89716.3549375,
      "d": 2905.180864583308,
      "v": 127
    },
    {
      "midi": 69,
      "hit": false,
      "t": 89716.3549375,
      "d": 2905.180864583308,
      "v": 127
    },
    {
      "midi": 73,
      "hit": false,
      "t": 89716.3549375,
      "d": 2905.180864583308,
      "v": 127
    },
    {
      "midi": 69,
      "hit": false,
      "t": 89717.62523958329,
      "d": 7620.5421979167,
      "v": 127
    },
    {
      "midi": 45,
      "hit": false,
      "t": 89721.43614583468,
      "d": 447.14633333338134,
      "v": 97
    },
    {
      "midi": 73,
      "hit": false,
      "t": 89723.97674999996,
      "d": 2919.154187500011,
      "v": 127
    },
    {
      "midi": 52,
      "hit": false,
      "t": 89731.59856250136,
      "d": 447.14633333338134,
      "v": 90
    },
    {
      "midi": 57,
      "hit": false,
      "t": 89741.76097916803,
      "d": 193.0859166666778,
      "v": 100
    },
    {
      "midi": 61,
      "hit": false,
      "t": 89751.9233958347,
      "d": 193.0859166666778,
      "v": 92
    },
    {
      "midi": 45,
      "hit": false,
      "t": 89754.46400000004,
      "d": 577.987447916661,
      "v": 127
    },
    {
      "midi": 64,
      "hit": false,
      "t": 89754.46400000004,
      "d": 86.3805416666728,
      "v": 127
    },
    {
      "midi": 64,
      "hit": false,
      "t": 89762.08581250138,
      "d": 193.0859166666778,
      "v": 83
    },
    {
      "midi": 64,
      "hit": false,
      "t": 89962.79354166806,
      "d": 238.81679166668619,
      "v": 82
    },
    {
      "midi": 61,
      "hit": false,
      "t": 89970.41535416806,
      "d": 238.81679166668619,
      "v": 81
    },
    {
      "midi": 57,
      "hit": false,
      "t": 89980.57777083473,
      "d": 223.5731666666834,
      "v": 80
    },
    {
      "midi": 64,
      "hit": false,
      "t": 89998.36200000004,
      "d": 69.86661458332674,
      "v": 127
    },
    {
      "midi": 45,
      "hit": false,
      "t": 90229.55697916808,
      "d": 442.0651250000228,
      "v": 88
    },
    {
      "midi": 52,
      "hit": false,
      "t": 90232.09758333475,
      "d": 467.47116666668444,
      "v": 92
    },
    {
      "midi": 57,
      "hit": false,
      "t": 90234.63818750142,
      "d": 444.60572916668025,
      "v": 117
    },
    {
      "midi": 61,
      "hit": false,
      "t": 90237.17879166809,
      "d": 436.98391666667885,
      "v": 122
    },
    {
      "midi": 64,
      "hit": false,
      "t": 90239.71939583476,
      "d": 452.2275416666671,
      "v": 126
    },
    {
      "midi": 64,
      "hit": false,
      "t": 90242.26000000002,
      "d": 215.95135416666744,
      "v": 127
    },
    {
      "midi": 45,
      "hit": false,
      "t": 90486.15800000002,
      "d": 232.46528124999895,
      "v": 127
    },
    {
      "midi": 64,
      "hit": false,
      "t": 90486.15800000002,
      "d": 22.86543750000419,
      "v": 127
    },
    {
      "midi": 62,
      "hit": false,
      "t": 90486.15800000002,
      "d": 391.25304166667047,
      "v": 127
    },
    {
      "midi": 45,
      "hit": false,
      "t": 90707.19056250143,
      "d": 231.19497916667024,
      "v": 95
    },
    {
      "midi": 64,
      "hit": false,
      "t": 90711.00146874996,
      "d": 2826.4221354166802,
      "v": 127
    },
    {
      "midi": 52,
      "hit": false,
      "t": 90717.3529791681,
      "d": 208.32954166666605,
      "v": 88
    },
    {
      "midi": 57,
      "hit": false,
      "t": 90727.51539583478,
      "d": 193.08591666666325,
      "v": 98
    },
    {
      "midi": 40,
      "hit": false,
      "t": 90730.05600000003,
      "d": 641.5025520833296,
      "v": 127
    },
    {
      "midi": 61,
      "hit": false,
      "t": 90737.67781250145,
      "d": 436.98391666664975,
      "v": 90
    },
    {
      "midi": 64,
      "hit": false,
      "t": 90746.56992708478,
      "d": 452.2275416666671,
      "v": 83
    },
    {
      "midi": 57,
      "hit": false,
      "t": 90966.33218750144,
      "d": 193.08591666666325,
      "v": 85
    },
    {
      "midi": 61,
      "hit": false,
      "t": 90973.95400000003,
      "d": 282.0070624999935,
      "v": 127
    },
    {
      "midi": 52,
      "hit": false,
      "t": 90979.03520833477,
      "d": 193.08591666666325,
      "v": 71
    },
    {
      "midi": 45,
      "hit": false,
      "t": 90991.7382291681,
      "d": 193.0859166666778,
      "v": 72
    },
    {
      "midi": 45,
      "hit": false,
      "t": 91194.98656250145,
      "d": 452.2275416666962,
      "v": 88
    },
    {
      "midi": 52,
      "hit": false,
      "t": 91197.52716666812,
      "d": 452.2275416666962,
      "v": 92
    },
    {
      "midi": 57,
      "hit": false,
      "t": 91200.06777083478,
      "d": 208.3295416666806,
      "v": 117
    },
    {
      "midi": 61,
      "hit": false,
      "t": 91202.60837500145,
      "d": 215.951354166682,
      "v": 122
    },
    {
      "midi": 64,
      "hit": false,
      "t": 91205.14897916812,
      "d": 198.16712500000722,
      "v": 126
    },
    {
      "midi": 64,
      "hit": false,
      "t": 91436.3439583348,
      "d": 185.4641041666764,
      "v": 104
    },
    {
      "midi": 61,
      "hit": false,
      "t": 91446.50637500147,
      "d": 177.842291666675,
      "v": 98
    },
    {
      "midi": 57,
      "hit": false,
      "t": 91459.2093958348,
      "d": 193.08591666669236,
      "v": 90
    },
    {
      "midi": 61,
      "hit": false,
      "t": 91461.75000000001,
      "d": 92.73205208333093,
      "v": 127
    },
    {
      "midi": 40,
      "hit": false,
      "t": 91461.75000000003,
      "d": 224.84346874999756,
      "v": 127
    },
    {
      "midi": 45,
      "hit": false,
      "t": 91672.62014583482,
      "d": 447.14633333338134,
      "v": 97
    },
    {
      "midi": 52,
      "hit": false,
      "t": 91682.7825625015,
      "d": 447.14633333338134,
      "v": 90
    },
    {
      "midi": 57,
      "hit": false,
      "t": 91692.94497916817,
      "d": 193.0859166666778,
      "v": 100
    },
    {
      "midi": 61,
      "hit": false,
      "t": 91703.10739583484,
      "d": 193.0859166666778,
      "v": 92
    },
    {
      "midi": 62,
      "hit": false,
      "t": 91705.64800000002,
      "d": 175.30168750000303,
      "v": 127
    },
    {
      "midi": 45,
      "hit": false,
      "t": 91705.64800000003,
      "d": 590.6904687500064,
      "v": 127
    },
    {
      "midi": 64,
      "hit": false,
      "t": 91713.26981250152,
      "d": 193.0859166666778,
      "v": 83
    },
    {
      "midi": 64,
      "hit": false,
      "t": 91913.9775416682,
      "d": 238.81679166668619,
      "v": 82
    },
    {
      "midi": 61,
      "hit": false,
      "t": 91921.5993541682,
      "d": 238.81679166668619,
      "v": 81
    },
    {
      "midi": 57,
      "hit": false,
      "t": 91931.76177083487,
      "d": 223.5731666666834,
      "v": 80
    },
    {
      "midi": 61,
      "hit": false,
      "t": 91949.54600000002,
      "d": 485.2553958333301,
      "v": 127
    },
    {
      "midi": 45,
      "hit": false,
      "t": 92180.74097916821,
      "d": 442.0651250000228,
      "v": 88
    },
    {
      "midi": 52,
      "hit": false,
      "t": 92183.28158333489,
      "d": 467.47116666668444,
      "v": 92
    },
    {
      "midi": 57,
      "hit": false,
      "t": 92185.82218750156,
      "d": 444.60572916668025,
      "v": 117
    },
    {
      "midi": 61,
      "hit": false,
      "t": 92188.36279166823,
      "d": 436.98391666667885,
      "v": 122
    },
    {
      "midi": 64,
      "hit": false,
      "t": 92190.9033958349,
      "d": 452.2275416666671,
      "v": 126
    },
    {
      "midi": 59,
      "hit": false,
      "t": 92437.34200000002,
      "d": 528.4456666666665,
      "v": 127
    },
    {
      "midi": 45,
      "hit": false,
      "t": 92437.34200000003,
      "d": 240.08709375000035,
      "v": 127
    },
    {
      "midi": 62,
      "hit": false,
      "t": 92621.53580208331,
      "d": 395.06394791667117,
      "v": 127
    },
    {
      "midi": 71,
      "hit": false,
      "t": 92624.07640624998,
      "d": 409.0372708333307,
      "v": 127
    },
    {
      "midi": 66,
      "hit": false,
      "t": 92625.34670833331,
      "d": 480.1741875000007,
      "v": 127
    },
    {
      "midi": 71,
      "hit": false,
      "t": 92632.9685208333,
      "d": 501.7693229166762,
      "v": 127
    },
    {
      "midi": 45,
      "hit": false,
      "t": 92658.37456250157,
      "d": 231.19497916667024,
      "v": 95
    },
    {
      "midi": 52,
      "hit": false,
      "t": 92668.53697916825,
      "d": 208.32954166666605,
      "v": 88
    },
    {
      "midi": 57,
      "hit": false,
      "t": 92678.69939583492,
      "d": 193.08591666666325,
      "v": 98
    },
    {
      "midi": 40,
      "hit": false,
      "t": 92681.24000000003,
      "d": 532.2565729166672,
      "v": 127
    },
    {
      "midi": 61,
      "hit": false,
      "t": 92688.8618125016,
      "d": 436.98391666664975,
      "v": 90
    },
    {
      "midi": 64,
      "hit": false,
      "t": 92697.75392708492,
      "d": 452.2275416666671,
      "v": 83
    },
    {
      "midi": 57,
      "hit": false,
      "t": 92917.51618750158,
      "d": 193.08591666666325,
      "v": 85
    },
    {
      "midi": 57,
      "hit": false,
      "t": 92925.13800000002,
      "d": 285.8179687499942,
      "v": 127
    },
    {
      "midi": 52,
      "hit": false,
      "t": 92930.21920833491,
      "d": 193.08591666666325,
      "v": 71
    },
    {
      "midi": 45,
      "hit": false,
      "t": 92942.92222916824,
      "d": 193.0859166666778,
      "v": 72
    },
    {
      "midi": 73,
      "hit": false,
      "t": 93105.52089583331,
      "d": 614.8262083333393,
      "v": 127
    },
    {
      "midi": 64,
      "hit": false,
      "t": 93105.52089583331,
      "d": 489.0663020833308,
      "v": 127
    },
    {
      "midi": 69,
      "hit": false,
      "t": 93105.52089583331,
      "d": 489.0663020833308,
      "v": 127
    },
    {
      "midi": 73,
      "hit": false,
      "t": 93105.52089583331,
      "d": 489.0663020833308,
      "v": 127
    },
    {
      "midi": 45,
      "hit": false,
      "t": 93146.17056250159,
      "d": 452.2275416666962,
      "v": 88
    },
    {
      "midi": 52,
      "hit": false,
      "t": 93148.71116666826,
      "d": 452.2275416666962,
      "v": 92
    },
    {
      "midi": 57,
      "hit": false,
      "t": 93151.25177083492,
      "d": 208.3295416666806,
      "v": 117
    },
    {
      "midi": 61,
      "hit": false,
      "t": 93153.79237500159,
      "d": 215.951354166682,
      "v": 122
    },
    {
      "midi": 64,
      "hit": false,
      "t": 93156.33297916826,
      "d": 198.16712500000722,
      "v": 126
    },
    {
      "midi": 45,
      "hit": false,
      "t": 93169.03600000004,
      "d": 233.73558333332767,
      "v": 127
    },
    {
      "midi": 64,
      "hit": false,
      "t": 93387.52795833493,
      "d": 185.4641041666764,
      "v": 104
    },
    {
      "midi": 61,
      "hit": false,
      "t": 93397.6903750016,
      "d": 177.842291666675,
      "v": 98
    },
    {
      "midi": 57,
      "hit": false,
      "t": 93410.39339583494,
      "d": 193.08591666669236,
      "v": 90
    },
    {
      "midi": 40,
      "hit": false,
      "t": 93412.93400000004,
      "d": 221.03256249999686,
      "v": 127
    },
    {
      "midi": 62,
      "hit": false,
      "t": 93590.77629166664,
      "d": 3644.4966770833416,
      "v": 127
    },
    {
      "midi": 57,
      "hit": false,
      "t": 93594.58719791664,
      "d": 2934.3978124999703,
      "v": 127
    },
    {
      "midi": 66,
      "hit": false,
      "t": 93597.12780208331,
      "d": 2939.4790208332997,
      "v": 127
    },
    {
      "midi": 62,
      "hit": false,
      "t": 93597.12780208331,
      "d": 2952.1820416666305,
      "v": 127
    },
    {
      "midi": 50,
      "hit": false,
      "t": 93623.80414583496,
      "d": 447.14633333338134,
      "v": 97
    },
    {
      "midi": 54,
      "hit": false,
      "t": 93633.96656250164,
      "d": 447.14633333338134,
      "v": 90
    },
    {
      "midi": 57,
      "hit": false,
      "t": 93644.12897916831,
      "d": 193.0859166666778,
      "v": 100
    },
    {
      "midi": 66,
      "hit": false,
      "t": 93645.39928124998,
      "d": 3709.282083333339,
      "v": 127
    },
    {
      "midi": 62,
      "hit": false,
      "t": 93654.29139583498,
      "d": 193.0859166666778,
      "v": 92
    },
    {
      "midi": 38,
      "hit": false,
      "t": 93656.83200000004,
      "d": 612.2856041666673,
      "v": 127
    },
    {
      "midi": 66,
      "hit": false,
      "t": 93664.45381250166,
      "d": 193.0859166666778,
      "v": 83
    },
    {
      "midi": 66,
      "hit": false,
      "t": 93865.16154166833,
      "d": 238.81679166668619,
      "v": 82
    },
    {
      "midi": 62,
      "hit": false,
      "t": 93872.78335416834,
      "d": 238.81679166668619,
      "v": 81
    },
    {
      "midi": 57,
      "hit": false,
      "t": 93882.94577083501,
      "d": 223.5731666666834,
      "v": 80
    },
    {
      "midi": 57,
      "hit": false,
      "t": 93900.73000000001,
      "d": 68.59631249999802,
      "v": 127
    },
    {
      "midi": 50,
      "hit": false,
      "t": 94131.92497916835,
      "d": 442.0651250000228,
      "v": 88
    },
    {
      "midi": 54,
      "hit": false,
      "t": 94134.46558333503,
      "d": 467.47116666668444,
      "v": 92
    },
    {
      "midi": 57,
      "hit": false,
      "t": 94137.0061875017,
      "d": 444.60572916668025,
      "v": 117
    },
    {
      "midi": 62,
      "hit": false,
      "t": 94139.54679166837,
      "d": 436.98391666667885,
      "v": 122
    },
    {
      "midi": 66,
      "hit": false,
      "t": 94142.08739583504,
      "d": 452.2275416666671,
      "v": 126
    },
    {
      "midi": 57,
      "hit": false,
      "t": 94144.62800000001,
      "d": 68.59631249999802,
      "v": 127
    },
    {
      "midi": 57,
      "hit": false,
      "t": 94388.52600000001,
      "d": 72.40721874999872,
      "v": 127
    },
    {
      "midi": 38,
      "hit": false,
      "t": 94388.52600000004,
      "d": 193.08591666666325,
      "v": 127
    },
    {
      "midi": 50,
      "hit": false,
      "t": 94609.55856250171,
      "d": 231.19497916667024,
      "v": 95
    },
    {
      "midi": 54,
      "hit": false,
      "t": 94619.72097916839,
      "d": 208.32954166666605,
      "v": 88
    },
    {
      "midi": 57,
      "hit": false,
      "t": 94629.88339583506,
      "d": 193.08591666666325,
      "v": 98
    },
    {
      "midi": 57,
      "hit": false,
      "t": 94632.42400000001,
      "d": 111.78658333333442,
      "v": 127
    },
    {
      "midi": 33,
      "hit": false,
      "t": 94632.42400000004,
      "d": 612.2856041666673,
      "v": 127
    },
    {
      "midi": 62,
      "hit": false,
      "t": 94640.04581250173,
      "d": 436.98391666664975,
      "v": 90
    },
    {
      "midi": 66,
      "hit": false,
      "t": 94648.93792708506,
      "d": 452.2275416666671,
      "v": 83
    },
    {
      "midi": 57,
      "hit": false,
      "t": 94868.70018750172,
      "d": 193.08591666666325,
      "v": 85
    },
    {
      "midi": 57,
      "hit": false,
      "t": 94876.32200000001,
      "d": 367.11730208333756,
      "v": 127
    },
    {
      "midi": 54,
      "hit": false,
      "t": 94881.40320833505,
      "d": 193.08591666666325,
      "v": 71
    },
    {
      "midi": 50,
      "hit": false,
      "t": 94894.10622916838,
      "d": 193.0859166666778,
      "v": 72
    },
    {
      "midi": 50,
      "hit": false,
      "t": 95097.35456250173,
      "d": 452.2275416666962,
      "v": 88
    },
    {
      "midi": 54,
      "hit": false,
      "t": 95099.8951666684,
      "d": 452.2275416666962,
      "v": 92
    },
    {
      "midi": 57,
      "hit": false,
      "t": 95102.43577083506,
      "d": 208.3295416666806,
      "v": 117
    },
    {
      "midi": 62,
      "hit": false,
      "t": 95104.97637500173,
      "d": 215.951354166682,
      "v": 122
    },
    {
      "midi": 66,
      "hit": false,
      "t": 95107.5169791684,
      "d": 198.16712500000722,
      "v": 126
    },
    {
      "midi": 66,
      "hit": false,
      "t": 95338.71195833507,
      "d": 185.4641041666764,
      "v": 104
    },
    {
      "midi": 62,
      "hit": false,
      "t": 95348.87437500175,
      "d": 177.842291666675,
      "v": 98
    },
    {
      "midi": 57,
      "hit": false,
      "t": 95361.57739583508,
      "d": 193.08591666669236,
      "v": 90
    },
    {
      "midi": 56,
      "hit": false,
      "t": 95364.11800000002,
      "d": 87.65084375000151,
      "v": 127
    },
    {
      "midi": 33,
      "hit": false,
      "t": 95364.11800000005,
      "d": 235.00588541667094,
      "v": 127
    },
    {
      "midi": 50,
      "hit": false,
      "t": 95574.9881458351,
      "d": 447.14633333338134,
      "v": 97
    },
    {
      "midi": 54,
      "hit": false,
      "t": 95585.15056250177,
      "d": 447.14633333338134,
      "v": 90
    },
    {
      "midi": 57,
      "hit": false,
      "t": 95595.31297916845,
      "d": 193.0859166666778,
      "v": 100
    },
    {
      "midi": 62,
      "hit": false,
      "t": 95605.47539583512,
      "d": 193.0859166666778,
      "v": 92
    },
    {
      "midi": 57,
      "hit": false,
      "t": 95608.01600000002,
      "d": 248.97920833333046,
      "v": 127
    },
    {
      "midi": 38,
      "hit": false,
      "t": 95608.01600000005,
      "d": 556.3923125000001,
      "v": 127
    },
    {
      "midi": 66,
      "hit": false,
      "t": 95615.6378125018,
      "d": 193.0859166666778,
      "v": 83
    },
    {
      "midi": 66,
      "hit": false,
      "t": 95816.34554166847,
      "d": 238.81679166668619,
      "v": 82
    },
    {
      "midi": 62,
      "hit": false,
      "t": 95823.96735416848,
      "d": 238.81679166668619,
      "v": 81
    },
    {
      "midi": 57,
      "hit": false,
      "t": 95834.12977083515,
      "d": 223.5731666666834,
      "v": 80
    },
    {
      "midi": 56,
      "hit": false,
      "t": 95851.91400000002,
      "d": 487.7960000000021,
      "v": 127
    },
    {
      "midi": 50,
      "hit": false,
      "t": 96083.1089791685,
      "d": 442.0651250000228,
      "v": 88
    },
    {
      "midi": 54,
      "hit": false,
      "t": 96085.64958333517,
      "d": 467.47116666668444,
      "v": 92
    },
    {
      "midi": 57,
      "hit": false,
      "t": 96088.19018750184,
      "d": 444.60572916668025,
      "v": 117
    },
    {
      "midi": 62,
      "hit": false,
      "t": 96090.73079166851,
      "d": 436.98391666667885,
      "v": 122
    },
    {
      "midi": 66,
      "hit": false,
      "t": 96093.27139583518,
      "d": 452.2275416666671,
      "v": 126
    },
    {
      "midi": 54,
      "hit": false,
      "t": 96339.71000000002,
      "d": 388.7124374999985,
      "v": 127
    },
    {
      "midi": 38,
      "hit": false,
      "t": 96339.71000000005,
      "d": 201.97803124999336,
      "v": 127
    },
    {
      "midi": 50,
      "hit": false,
      "t": 96560.74256250185,
      "d": 231.19497916667024,
      "v": 95
    },
    {
      "midi": 54,
      "hit": false,
      "t": 96570.90497916852,
      "d": 208.32954166666605,
      "v": 88
    },
    {
      "midi": 57,
      "hit": false,
      "t": 96581.0673958352,
      "d": 193.08591666666325,
      "v": 98
    },
    {
      "midi": 33,
      "hit": false,
      "t": 96583.60800000004,
      "d": 508.1208333333343,
      "v": 127
    },
    {
      "midi": 62,
      "hit": false,
      "t": 96591.22981250187,
      "d": 436.98391666664975,
      "v": 90
    },
    {
      "midi": 66,
      "hit": false,
      "t": 96600.1219270852,
      "d": 452.2275416666671,
      "v": 83
    },
    {
      "midi": 57,
      "hit": false,
      "t": 96819.88418750186,
      "d": 193.08591666666325,
      "v": 85
    },
    {
      "midi": 54,
      "hit": false,
      "t": 96832.58720833519,
      "d": 193.08591666666325,
      "v": 71
    },
    {
      "midi": 50,
      "hit": false,
      "t": 96845.29022916852,
      "d": 193.0859166666778,
      "v": 72
    },
    {
      "midi": 50,
      "hit": false,
      "t": 97048.53856250187,
      "d": 452.2275416666962,
      "v": 88
    },
    {
      "midi": 54,
      "hit": false,
      "t": 97051.07916666854,
      "d": 452.2275416666962,
      "v": 92
    },
    {
      "midi": 57,
      "hit": false,
      "t": 97053.6197708352,
      "d": 208.3295416666806,
      "v": 117
    },
    {
      "midi": 62,
      "hit": false,
      "t": 97056.16037500187,
      "d": 215.951354166682,
      "v": 122
    },
    {
      "midi": 66,
      "hit": false,
      "t": 97058.70097916854,
      "d": 198.16712500000722,
      "v": 126
    },
    {
      "midi": 38,
      "hit": false,
      "t": 97071.40400000004,
      "d": 223.57316666666884,
      "v": 127
    },
    {
      "midi": 66,
      "hit": false,
      "t": 97289.89595833521,
      "d": 185.4641041666764,
      "v": 104
    },
    {
      "midi": 62,
      "hit": false,
      "t": 97300.05837500188,
      "d": 177.842291666675,
      "v": 98
    },
    {
      "midi": 57,
      "hit": false,
      "t": 97312.76139583522,
      "d": 193.08591666669236,
      "v": 90
    },
    {
      "midi": 39,
      "hit": false,
      "t": 97315.30200000004,
      "d": 241.35739583332906,
      "v": 127
    },
    {
      "midi": 57,
      "hit": false,
      "t": 97489.33338541661,
      "d": 3849.015312499847,
      "v": 127
    },
    {
      "midi": 66,
      "hit": false,
      "t": 97490.60368749994,
      "d": 3823.6092708331853,
      "v": 127
    },
    {
      "midi": 62,
      "hit": false,
      "t": 97490.60368749994,
      "d": 3837.582593749845,
      "v": 127
    },
    {
      "midi": 64,
      "hit": false,
      "t": 97503.30670833332,
      "d": 3779.1486979166657,
      "v": 127
    },
    {
      "midi": 68,
      "hit": false,
      "t": 97508.38791666664,
      "d": 3763.905072916663,
      "v": 127
    },
    {
      "midi": 71,
      "hit": false,
      "t": 97512.19882291665,
      "d": 3767.7159791666636,
      "v": 127
    },
    {
      "midi": 40,
      "hit": false,
      "t": 97526.17214583524,
      "d": 447.14633333338134,
      "v": 80
    },
    {
      "midi": 47,
      "hit": false,
      "t": 97536.33456250191,
      "d": 447.14633333338134,
      "v": 90
    },
    {
      "midi": 52,
      "hit": false,
      "t": 97546.49697916859,
      "d": 193.0859166666778,
      "v": 83
    },
    {
      "midi": 56,
      "hit": false,
      "t": 97556.65939583526,
      "d": 193.0859166666778,
      "v": 92
    },
    {
      "midi": 40,
      "hit": false,
      "t": 97559.20000000004,
      "d": 566.5547291666735,
      "v": 127
    },
    {
      "midi": 59,
      "hit": false,
      "t": 97566.82181250193,
      "d": 193.0859166666778,
      "v": 83
    },
    {
      "midi": 59,
      "hit": false,
      "t": 97767.52954166861,
      "d": 238.81679166668619,
      "v": 82
    },
    {
      "midi": 56,
      "hit": false,
      "t": 97775.15135416861,
      "d": 238.81679166668619,
      "v": 81
    },
    {
      "midi": 52,
      "hit": false,
      "t": 97785.31377083529,
      "d": 223.5731666666834,
      "v": 66
    },
    {
      "midi": 52,
      "hit": false,
      "t": 97803.09800000001,
      "d": 78.7587291666714,
      "v": 127
    },
    {
      "midi": 40,
      "hit": false,
      "t": 98034.29297916863,
      "d": 442.0651250000228,
      "v": 73
    },
    {
      "midi": 47,
      "hit": false,
      "t": 98036.8335833353,
      "d": 467.47116666668444,
      "v": 92
    },
    {
      "midi": 52,
      "hit": false,
      "t": 98039.37418750198,
      "d": 444.60572916668025,
      "v": 97
    },
    {
      "midi": 56,
      "hit": false,
      "t": 98041.91479166865,
      "d": 436.98391666667885,
      "v": 122
    },
    {
      "midi": 59,
      "hit": false,
      "t": 98044.45539583532,
      "d": 452.2275416666671,
      "v": 126
    },
    {
      "midi": 52,
      "hit": false,
      "t": 98046.99600000001,
      "d": 81.29933333332883,
      "v": 127
    },
    {
      "midi": 52,
      "hit": false,
      "t": 98290.89400000001,
      "d": 254.06041666665988,
      "v": 127
    },
    {
      "midi": 40,
      "hit": false,
      "t": 98290.89400000004,
      "d": 219.76226041666814,
      "v": 127
    },
    {
      "midi": 40,
      "hit": false,
      "t": 98511.92656250199,
      "d": 231.19497916667024,
      "v": 79
    },
    {
      "midi": 47,
      "hit": false,
      "t": 98522.08897916866,
      "d": 208.32954166666605,
      "v": 88
    },
    {
      "midi": 52,
      "hit": false,
      "t": 98532.25139583534,
      "d": 193.08591666666325,
      "v": 81
    },
    {
      "midi": 35,
      "hit": false,
      "t": 98534.79200000004,
      "d": 570.3656354166596,
      "v": 127
    },
    {
      "midi": 56,
      "hit": false,
      "t": 98542.41381250201,
      "d": 436.98391666664975,
      "v": 90
    },
    {
      "midi": 59,
      "hit": false,
      "t": 98551.30592708534,
      "d": 452.2275416666671,
      "v": 83
    },
    {
      "midi": 52,
      "hit": false,
      "t": 98771.068187502,
      "d": 193.08591666666325,
      "v": 70
    },
    {
      "midi": 52,
      "hit": false,
      "t": 98778.69,
      "d": 88.92114583333023,
      "v": 127
    },
    {
      "midi": 47,
      "hit": false,
      "t": 98783.77120833533,
      "d": 193.08591666666325,
      "v": 71
    },
    {
      "midi": 40,
      "hit": false,
      "t": 98796.47422916866,
      "d": 193.0859166666778,
      "v": 60
    },
    {
      "midi": 40,
      "hit": false,
      "t": 98999.72256250201,
      "d": 452.2275416666962,
      "v": 73
    },
    {
      "midi": 47,
      "hit": false,
      "t": 99002.26316666868,
      "d": 452.2275416666962,
      "v": 92
    },
    {
      "midi": 52,
      "hit": false,
      "t": 99004.80377083534,
      "d": 208.3295416666806,
      "v": 97
    },
    {
      "midi": 56,
      "hit": false,
      "t": 99007.34437500201,
      "d": 215.951354166682,
      "v": 122
    },
    {
      "midi": 59,
      "hit": false,
      "t": 99009.88497916868,
      "d": 198.16712500000722,
      "v": 126
    },
    {
      "midi": 52,
      "hit": false,
      "t": 99022.588,
      "d": 82.5696354166721,
      "v": 127
    },
    {
      "midi": 59,
      "hit": false,
      "t": 99241.07995833535,
      "d": 185.4641041666764,
      "v": 104
    },
    {
      "midi": 56,
      "hit": false,
      "t": 99251.24237500202,
      "d": 177.842291666675,
      "v": 98
    },
    {
      "midi": 52,
      "hit": false,
      "t": 99263.94539583536,
      "d": 193.08591666669236,
      "v": 75
    },
    {
      "midi": 52,
      "hit": false,
      "t": 99266.486,
      "d": 246.43860416667303,
      "v": 127
    },
    {
      "midi": 35,
      "hit": false,
      "t": 99266.48600000003,
      "d": 222.30286458334012,
      "v": 127
    },
    {
      "midi": 40,
      "hit": false,
      "t": 99477.35614583538,
      "d": 447.14633333338134,
      "v": 80
    },
    {
      "midi": 47,
      "hit": false,
      "t": 99487.51856250205,
      "d": 447.14633333338134,
      "v": 90
    },
    {
      "midi": 52,
      "hit": false,
      "t": 99497.68097916873,
      "d": 193.0859166666778,
      "v": 83
    },
    {
      "midi": 56,
      "hit": false,
      "t": 99507.8433958354,
      "d": 193.0859166666778,
      "v": 92
    },
    {
      "midi": 40,
      "hit": false,
      "t": 99510.38400000003,
      "d": 584.3389583333337,
      "v": 127
    },
    {
      "midi": 59,
      "hit": false,
      "t": 99518.00581250207,
      "d": 193.0859166666778,
      "v": 83
    },
    {
      "midi": 59,
      "hit": false,
      "t": 99718.71354166875,
      "d": 238.81679166668619,
      "v": 82
    },
    {
      "midi": 56,
      "hit": false,
      "t": 99726.33535416875,
      "d": 238.81679166668619,
      "v": 81
    },
    {
      "midi": 52,
      "hit": false,
      "t": 99736.49777083543,
      "d": 223.5731666666834,
      "v": 66
    },
    {
      "midi": 52,
      "hit": false,
      "t": 99754.282,
      "d": 224.84346874999756,
      "v": 127
    },
    {
      "midi": 40,
      "hit": false,
      "t": 99985.47697916877,
      "d": 442.0651250000228,
      "v": 73
    },
    {
      "midi": 47,
      "hit": false,
      "t": 99988.01758333544,
      "d": 467.47116666668444,
      "v": 92
    },
    {
      "midi": 52,
      "hit": false,
      "t": 99990.55818750212,
      "d": 444.60572916668025,
      "v": 97
    },
    {
      "midi": 56,
      "hit": false,
      "t": 99993.09879166879,
      "d": 436.98391666667885,
      "v": 122
    },
    {
      "midi": 59,
      "hit": false,
      "t": 99995.63939583546,
      "d": 452.2275416666671,
      "v": 126
    },
    {
      "midi": 52,
      "hit": false,
      "t": 100242.07800000001,
      "d": 755.829739583336,
      "v": 127
    },
    {
      "midi": 40,
      "hit": false,
      "t": 100242.07800000004,
      "d": 224.84346874999756,
      "v": 127
    },
    {
      "midi": 40,
      "hit": false,
      "t": 100463.11056250213,
      "d": 231.19497916667024,
      "v": 79
    },
    {
      "midi": 47,
      "hit": false,
      "t": 100473.2729791688,
      "d": 208.32954166666605,
      "v": 88
    },
    {
      "midi": 52,
      "hit": false,
      "t": 100483.43539583548,
      "d": 193.08591666666325,
      "v": 81
    },
    {
      "midi": 35,
      "hit": false,
      "t": 100485.97600000004,
      "d": 417.9293854166608,
      "v": 127
    },
    {
      "midi": 56,
      "hit": false,
      "t": 100493.59781250215,
      "d": 436.98391666664975,
      "v": 90
    },
    {
      "midi": 59,
      "hit": false,
      "t": 100502.48992708548,
      "d": 452.2275416666671,
      "v": 83
    },
    {
      "midi": 52,
      "hit": false,
      "t": 100722.25218750213,
      "d": 193.08591666666325,
      "v": 70
    },
    {
      "midi": 47,
      "hit": false,
      "t": 100734.95520833546,
      "d": 193.08591666666325,
      "v": 71
    },
    {
      "midi": 40,
      "hit": false,
      "t": 100747.6582291688,
      "d": 193.0859166666778,
      "v": 60
    },
    {
      "midi": 40,
      "hit": false,
      "t": 100950.90656250215,
      "d": 452.2275416666962,
      "v": 73
    },
    {
      "midi": 47,
      "hit": false,
      "t": 100953.44716666882,
      "d": 452.2275416666962,
      "v": 92
    },
    {
      "midi": 52,
      "hit": false,
      "t": 100955.98777083548,
      "d": 208.3295416666806,
      "v": 97
    },
    {
      "midi": 56,
      "hit": false,
      "t": 100958.52837500215,
      "d": 215.951354166682,
      "v": 122
    },
    {
      "midi": 59,
      "hit": false,
      "t": 100961.06897916882,
      "d": 198.16712500000722,
      "v": 126
    },
    {
      "midi": 40,
      "hit": false,
      "t": 100973.77200000003,
      "d": 242.62769791667233,
      "v": 127
    },
    {
      "midi": 59,
      "hit": false,
      "t": 101192.26395833549,
      "d": 185.4641041666764,
      "v": 104
    },
    {
      "midi": 56,
      "hit": false,
      "t": 101202.42637500216,
      "d": 177.842291666675,
      "v": 98
    },
    {
      "midi": 52,
      "hit": false,
      "t": 101215.1293958355,
      "d": 193.08591666669236,
      "v": 75
    },
    {
      "midi": 52,
      "hit": false,
      "t": 101217.67000000001,
      "d": 106.705375000005,
      "v": 127
    },
    {
      "midi": 44,
      "hit": false,
      "t": 101217.67000000003,
      "d": 199.43742708333593,
      "v": 127
    },
    {
      "midi": 64,
      "hit": false,
      "t": 101384.07957291664,
      "d": 1883.8579895833245,
      "v": 127
    },
    {
      "midi": 69,
      "hit": false,
      "t": 101391.70138541664,
      "d": 1876.2361770833231,
      "v": 127
    },
    {
      "midi": 61,
      "hit": false,
      "t": 101392.97168749997,
      "d": 1874.9658749999944,
      "v": 127
    },
    {
      "midi": 61,
      "hit": false,
      "t": 101422.18863541645,
      "d": 1698.3938854166627,
      "v": 127
    },
    {
      "midi": 57,
      "hit": false,
      "t": 101422.18863541645,
      "d": 1744.1247604166565,
      "v": 127
    },
    {
      "midi": 64,
      "hit": false,
      "t": 101423.45893749977,
      "d": 1726.3405312499963,
      "v": 127
    },
    {
      "midi": 45,
      "hit": false,
      "t": 101428.54014583552,
      "d": 447.14633333338134,
      "v": 97
    },
    {
      "midi": 52,
      "hit": false,
      "t": 101438.70256250219,
      "d": 447.14633333338134,
      "v": 90
    },
    {
      "midi": 57,
      "hit": false,
      "t": 101448.86497916887,
      "d": 193.0859166666778,
      "v": 100
    },
    {
      "midi": 61,
      "hit": false,
      "t": 101459.02739583554,
      "d": 193.0859166666778,
      "v": 92
    },
    {
      "midi": 54,
      "hit": false,
      "t": 101461.56800000001,
      "d": 141.00353124999674,
      "v": 127
    },
    {
      "midi": 45,
      "hit": false,
      "t": 101461.56800000003,
      "d": 635.1510416666715,
      "v": 127
    },
    {
      "midi": 64,
      "hit": false,
      "t": 101469.18981250221,
      "d": 193.0859166666778,
      "v": 83
    },
    {
      "midi": 64,
      "hit": false,
      "t": 101669.89754166889,
      "d": 238.81679166668619,
      "v": 82
    },
    {
      "midi": 61,
      "hit": false,
      "t": 101677.5193541689,
      "d": 238.81679166668619,
      "v": 81
    },
    {
      "midi": 57,
      "hit": false,
      "t": 101687.68177083557,
      "d": 223.5731666666834,
      "v": 80
    },
    {
      "midi": 57,
      "hit": false,
      "t": 101705.46600000001,
      "d": 78.7587291666714,
      "v": 127
    },
    {
      "midi": 45,
      "hit": false,
      "t": 101936.66097916891,
      "d": 442.0651250000228,
      "v": 88
    },
    {
      "midi": 52,
      "hit": false,
      "t": 101939.20158333558,
      "d": 467.47116666668444,
      "v": 92
    },
    {
      "midi": 57,
      "hit": false,
      "t": 101941.74218750226,
      "d": 444.60572916668025,
      "v": 117
    },
    {
      "midi": 61,
      "hit": false,
      "t": 101944.28279166893,
      "d": 436.98391666667885,
      "v": 122
    },
    {
      "midi": 64,
      "hit": false,
      "t": 101946.8233958356,
      "d": 452.2275416666671,
      "v": 126
    },
    {
      "midi": 57,
      "hit": false,
      "t": 101949.36400000002,
      "d": 67.3260104166693,
      "v": 127
    },
    {
      "midi": 57,
      "hit": false,
      "t": 102193.26200000002,
      "d": 779.965479166669,
      "v": 127
    },
    {
      "midi": 45,
      "hit": false,
      "t": 102193.26200000003,
      "d": 215.95135416666744,
      "v": 127
    },
    {
      "midi": 45,
      "hit": false,
      "t": 102414.29456250227,
      "d": 231.19497916667024,
      "v": 95
    },
    {
      "midi": 52,
      "hit": false,
      "t": 102424.45697916894,
      "d": 208.32954166666605,
      "v": 88
    },
    {
      "midi": 57,
      "hit": false,
      "t": 102434.61939583562,
      "d": 193.08591666666325,
      "v": 98
    },
    {
      "midi": 40,
      "hit": false,
      "t": 102437.16000000003,
      "d": 483.9850937500014,
      "v": 127
    },
    {
      "midi": 61,
      "hit": false,
      "t": 102444.78181250229,
      "d": 436.98391666664975,
      "v": 90
    },
    {
      "midi": 64,
      "hit": false,
      "t": 102453.67392708562,
      "d": 452.2275416666671,
      "v": 83
    },
    {
      "midi": 57,
      "hit": false,
      "t": 102673.43618750227,
      "d": 193.08591666666325,
      "v": 85
    },
    {
      "midi": 52,
      "hit": false,
      "t": 102686.1392083356,
      "d": 193.08591666666325,
      "v": 71
    },
    {
      "midi": 45,
      "hit": false,
      "t": 102698.84222916893,
      "d": 193.0859166666778,
      "v": 72
    },
    {
      "midi": 45,
      "hit": false,
      "t": 102902.09056250229,
      "d": 452.2275416666962,
      "v": 88
    },
    {
      "midi": 52,
      "hit": false,
      "t": 102904.63116666896,
      "d": 452.2275416666962,
      "v": 92
    },
    {
      "midi": 57,
      "hit": false,
      "t": 102907.17177083562,
      "d": 208.3295416666806,
      "v": 117
    },
    {
      "midi": 61,
      "hit": false,
      "t": 102909.71237500229,
      "d": 215.951354166682,
      "v": 122
    },
    {
      "midi": 64,
      "hit": false,
      "t": 102912.25297916896,
      "d": 198.16712500000722,
      "v": 126
    },
    {
      "midi": 45,
      "hit": false,
      "t": 102924.95600000003,
      "d": 231.19497916667024,
      "v": 127
    },
    {
      "midi": 64,
      "hit": false,
      "t": 103143.44795833563,
      "d": 185.4641041666764,
      "v": 104
    },
    {
      "midi": 61,
      "hit": false,
      "t": 103153.6103750023,
      "d": 177.842291666675,
      "v": 98
    },
    {
      "midi": 57,
      "hit": false,
      "t": 103166.31339583563,
      "d": 193.08591666669236,
      "v": 90
    },
    {
      "midi": 45,
      "hit": false,
      "t": 103168.85400000004,
      "d": 226.11377083332627,
      "v": 127
    },
    {
      "midi": 76,
      "hit": false,
      "t": 103364.4805208333,
      "d": 109.24597916666244,
      "v": 127
    },
    {
      "midi": 80,
      "hit": false,
      "t": 103364.4805208333,
      "d": 109.24597916666244,
      "v": 127
    },
    {
      "midi": 64,
      "hit": false,
      "t": 103372.1023333333,
      "d": 109.24597916666244,
      "v": 127
    },
    {
      "midi": 68,
      "hit": false,
      "t": 103372.1023333333,
      "d": 109.24597916666244,
      "v": 127
    },
    {
      "midi": 40,
      "hit": false,
      "t": 103379.72414583566,
      "d": 447.14633333338134,
      "v": 80
    },
    {
      "midi": 47,
      "hit": false,
      "t": 103389.88656250233,
      "d": 447.14633333338134,
      "v": 75
    },
    {
      "midi": 52,
      "hit": false,
      "t": 103400.048979169,
      "d": 193.0859166666778,
      "v": 69
    },
    {
      "midi": 56,
      "hit": false,
      "t": 103410.21139583568,
      "d": 193.0859166666778,
      "v": 92
    },
    {
      "midi": 40,
      "hit": false,
      "t": 103412.75200000002,
      "d": 213.41074999999546,
      "v": 127
    },
    {
      "midi": 59,
      "hit": false,
      "t": 103420.37381250235,
      "d": 193.0859166666778,
      "v": 83
    },
    {
      "midi": 78,
      "hit": false,
      "t": 103486.42952083329,
      "d": 109.24597916666244,
      "v": 127
    },
    {
      "midi": 81,
      "hit": false,
      "t": 103486.42952083329,
      "d": 109.24597916666244,
      "v": 127
    },
    {
      "midi": 66,
      "hit": false,
      "t": 103494.0513333333,
      "d": 109.24597916666244,
      "v": 127
    },
    {
      "midi": 69,
      "hit": false,
      "t": 103494.0513333333,
      "d": 109.24597916666244,
      "v": 127
    },
    {
      "midi": 80,
      "hit": false,
      "t": 103608.37852083328,
      "d": 109.24597916666244,
      "v": 127
    },
    {
      "midi": 83,
      "hit": false,
      "t": 103608.37852083328,
      "d": 109.24597916666244,
      "v": 127
    },
    {
      "midi": 68,
      "hit": false,
      "t": 103616.00033333329,
      "d": 109.24597916666244,
      "v": 127
    },
    {
      "midi": 71,
      "hit": false,
      "t": 103616.00033333329,
      "d": 109.24597916666244,
      "v": 127
    },
    {
      "midi": 59,
      "hit": false,
      "t": 103621.08154166903,
      "d": 238.81679166668619,
      "v": 82
    },
    {
      "midi": 56,
      "hit": false,
      "t": 103628.70335416903,
      "d": 238.81679166668619,
      "v": 81
    },
    {
      "midi": 52,
      "hit": false,
      "t": 103638.8657708357,
      "d": 223.5731666666834,
      "v": 55
    },
    {
      "midi": 40,
      "hit": false,
      "t": 103656.65000000002,
      "d": 243.89800000000105,
      "v": 127
    },
    {
      "midi": 81,
      "hit": false,
      "t": 103730.32752083328,
      "d": 109.24597916666244,
      "v": 127
    },
    {
      "midi": 85,
      "hit": false,
      "t": 103730.32752083328,
      "d": 109.24597916666244,
      "v": 127
    },
    {
      "midi": 69,
      "hit": false,
      "t": 103737.94933333328,
      "d": 109.24597916666244,
      "v": 127
    },
    {
      "midi": 73,
      "hit": false,
      "t": 103737.94933333328,
      "d": 109.24597916666244,
      "v": 127
    },
    {
      "midi": 78,
      "hit": false,
      "t": 103852.27652083327,
      "d": 109.24597916666244,
      "v": 127
    },
    {
      "midi": 81,
      "hit": false,
      "t": 103852.27652083327,
      "d": 109.24597916666244,
      "v": 127
    },
    {
      "midi": 66,
      "hit": false,
      "t": 103859.89833333327,
      "d": 109.24597916666244,
      "v": 127
    },
    {
      "midi": 69,
      "hit": false,
      "t": 103859.89833333327,
      "d": 109.24597916666244,
      "v": 127
    },
    {
      "midi": 40,
      "hit": false,
      "t": 103887.84497916905,
      "d": 442.0651250000228,
      "v": 73
    },
    {
      "midi": 47,
      "hit": false,
      "t": 103890.38558333572,
      "d": 467.47116666668444,
      "v": 76
    },
    {
      "midi": 52,
      "hit": false,
      "t": 103892.9261875024,
      "d": 444.60572916668025,
      "v": 80
    },
    {
      "midi": 56,
      "hit": false,
      "t": 103895.46679166907,
      "d": 436.98391666667885,
      "v": 122
    },
    {
      "midi": 59,
      "hit": false,
      "t": 103898.00739583574,
      "d": 452.2275416666671,
      "v": 126
    },
    {
      "midi": 38,
      "hit": false,
      "t": 103900.54800000002,
      "d": 457.3087499999965,
      "v": 127
    },
    {
      "midi": 80,
      "hit": false,
      "t": 103974.22552083326,
      "d": 109.24597916666244,
      "v": 127
    },
    {
      "midi": 83,
      "hit": false,
      "t": 103974.22552083326,
      "d": 109.24597916666244,
      "v": 127
    },
    {
      "midi": 68,
      "hit": false,
      "t": 103981.84733333327,
      "d": 109.24597916666244,
      "v": 127
    },
    {
      "midi": 71,
      "hit": false,
      "t": 103981.84733333327,
      "d": 109.24597916666244,
      "v": 127
    },
    {
      "midi": 81,
      "hit": false,
      "t": 104096.17452083326,
      "d": 109.24597916666244,
      "v": 127
    },
    {
      "midi": 85,
      "hit": false,
      "t": 104096.17452083326,
      "d": 109.24597916666244,
      "v": 127
    },
    {
      "midi": 69,
      "hit": false,
      "t": 104103.79633333326,
      "d": 109.24597916666244,
      "v": 127
    },
    {
      "midi": 73,
      "hit": false,
      "t": 104103.79633333326,
      "d": 109.24597916666244,
      "v": 127
    },
    {
      "midi": 83,
      "hit": false,
      "t": 104218.12352083325,
      "d": 109.24597916666244,
      "v": 127
    },
    {
      "midi": 86,
      "hit": false,
      "t": 104218.12352083325,
      "d": 109.24597916666244,
      "v": 127
    },
    {
      "midi": 71,
      "hit": false,
      "t": 104225.74533333325,
      "d": 109.24597916666244,
      "v": 127
    },
    {
      "midi": 74,
      "hit": false,
      "t": 104225.74533333325,
      "d": 109.24597916666244,
      "v": 127
    },
    {
      "midi": 80,
      "hit": false,
      "t": 104340.07252083324,
      "d": 109.24597916666244,
      "v": 127
    },
    {
      "midi": 83,
      "hit": false,
      "t": 104340.07252083324,
      "d": 109.24597916666244,
      "v": 127
    },
    {
      "midi": 68,
      "hit": false,
      "t": 104347.69433333325,
      "d": 109.24597916666244,
      "v": 127
    },
    {
      "midi": 71,
      "hit": false,
      "t": 104347.69433333325,
      "d": 109.24597916666244,
      "v": 127
    },
    {
      "midi": 40,
      "hit": false,
      "t": 104365.47856250241,
      "d": 231.19497916667024,
      "v": 79
    },
    {
      "midi": 47,
      "hit": false,
      "t": 104375.64097916908,
      "d": 208.32954166666605,
      "v": 73
    },
    {
      "midi": 52,
      "hit": false,
      "t": 104385.80339583576,
      "d": 193.08591666666325,
      "v": 67
    },
    {
      "midi": 37,
      "hit": false,
      "t": 104388.34400000003,
      "d": 457.3087499999965,
      "v": 127
    },
    {
      "midi": 56,
      "hit": false,
      "t": 104395.96581250243,
      "d": 436.98391666664975,
      "v": 90
    },
    {
      "midi": 59,
      "hit": false,
      "t": 104404.85792708576,
      "d": 452.2275416666671,
      "v": 83
    },
    {
      "midi": 81,
      "hit": false,
      "t": 104462.02152083324,
      "d": 109.24597916666244,
      "v": 127
    },
    {
      "midi": 85,
      "hit": false,
      "t": 104462.02152083324,
      "d": 109.24597916666244,
      "v": 127
    },
    {
      "midi": 69,
      "hit": false,
      "t": 104469.64333333324,
      "d": 109.24597916666244,
      "v": 127
    },
    {
      "midi": 73,
      "hit": false,
      "t": 104469.64333333324,
      "d": 109.24597916666244,
      "v": 127
    },
    {
      "midi": 83,
      "hit": false,
      "t": 104583.97052083323,
      "d": 109.24597916666244,
      "v": 127
    },
    {
      "midi": 86,
      "hit": false,
      "t": 104583.97052083323,
      "d": 109.24597916666244,
      "v": 127
    },
    {
      "midi": 71,
      "hit": false,
      "t": 104591.59233333323,
      "d": 109.24597916666244,
      "v": 127
    },
    {
      "midi": 74,
      "hit": false,
      "t": 104591.59233333323,
      "d": 109.24597916666244,
      "v": 127
    },
    {
      "midi": 52,
      "hit": false,
      "t": 104624.62018750241,
      "d": 193.08591666666325,
      "v": 58
    },
    {
      "midi": 47,
      "hit": false,
      "t": 104637.32320833574,
      "d": 193.08591666666325,
      "v": 59
    },
    {
      "midi": 40,
      "hit": false,
      "t": 104650.02622916907,
      "d": 193.0859166666778,
      "v": 60
    },
    {
      "midi": 85,
      "hit": false,
      "t": 104705.91952083322,
      "d": 109.24597916666244,
      "v": 127
    },
    {
      "midi": 88,
      "hit": false,
      "t": 104705.91952083322,
      "d": 109.24597916666244,
      "v": 127
    },
    {
      "midi": 73,
      "hit": false,
      "t": 104713.54133333323,
      "d": 109.24597916666244,
      "v": 127
    },
    {
      "midi": 76,
      "hit": false,
      "t": 104713.54133333323,
      "d": 109.24597916666244,
      "v": 127
    },
    {
      "midi": 81,
      "hit": false,
      "t": 104827.86852083322,
      "d": 109.24597916666244,
      "v": 127
    },
    {
      "midi": 85,
      "hit": false,
      "t": 104827.86852083322,
      "d": 109.24597916666244,
      "v": 127
    },
    {
      "midi": 69,
      "hit": false,
      "t": 104835.49033333322,
      "d": 109.24597916666244,
      "v": 127
    },
    {
      "midi": 73,
      "hit": false,
      "t": 104835.49033333322,
      "d": 109.24597916666244,
      "v": 127
    },
    {
      "midi": 40,
      "hit": false,
      "t": 104853.27456250243,
      "d": 452.2275416666962,
      "v": 73
    },
    {
      "midi": 47,
      "hit": false,
      "t": 104855.8151666691,
      "d": 452.2275416666962,
      "v": 76
    },
    {
      "midi": 52,
      "hit": false,
      "t": 104858.35577083575,
      "d": 208.3295416666806,
      "v": 80
    },
    {
      "midi": 56,
      "hit": false,
      "t": 104860.89637500243,
      "d": 215.951354166682,
      "v": 122
    },
    {
      "midi": 59,
      "hit": false,
      "t": 104863.4369791691,
      "d": 198.16712500000722,
      "v": 126
    },
    {
      "midi": 35,
      "hit": false,
      "t": 104876.14000000003,
      "d": 457.3087499999965,
      "v": 127
    },
    {
      "midi": 83,
      "hit": false,
      "t": 104949.81752083321,
      "d": 109.24597916666244,
      "v": 127
    },
    {
      "midi": 86,
      "hit": false,
      "t": 104949.81752083321,
      "d": 109.24597916666244,
      "v": 127
    },
    {
      "midi": 71,
      "hit": false,
      "t": 104957.43933333321,
      "d": 109.24597916666244,
      "v": 127
    },
    {
      "midi": 74,
      "hit": false,
      "t": 104957.43933333321,
      "d": 109.24597916666244,
      "v": 127
    },
    {
      "midi": 85,
      "hit": false,
      "t": 105071.7665208332,
      "d": 109.24597916666244,
      "v": 127
    },
    {
      "midi": 88,
      "hit": false,
      "t": 105071.7665208332,
      "d": 109.24597916666244,
      "v": 127
    },
    {
      "midi": 73,
      "hit": false,
      "t": 105079.3883333332,
      "d": 109.24597916666244,
      "v": 127
    },
    {
      "midi": 76,
      "hit": false,
      "t": 105079.3883333332,
      "d": 109.24597916666244,
      "v": 127
    },
    {
      "midi": 59,
      "hit": false,
      "t": 105094.63195833577,
      "d": 185.4641041666764,
      "v": 104
    },
    {
      "midi": 56,
      "hit": false,
      "t": 105104.79437500244,
      "d": 177.842291666675,
      "v": 98
    },
    {
      "midi": 52,
      "hit": false,
      "t": 105117.49739583577,
      "d": 193.08591666669236,
      "v": 62
    },
    {
      "midi": 61,
      "hit": false,
      "t": 105120.03800000002,
      "d": 127.03020833333721,
      "v": 127
    },
    {
      "midi": 86,
      "hit": false,
      "t": 105193.7155208332,
      "d": 109.24597916666244,
      "v": 127
    },
    {
      "midi": 90,
      "hit": false,
      "t": 105193.7155208332,
      "d": 109.24597916666244,
      "v": 127
    },
    {
      "midi": 74,
      "hit": false,
      "t": 105201.3373333332,
      "d": 109.24597916666244,
      "v": 127
    },
    {
      "midi": 78,
      "hit": false,
      "t": 105201.3373333332,
      "d": 109.24597916666244,
      "v": 127
    },
    {
      "midi": 85,
      "hit": false,
      "t": 105313.12391666653,
      "d": 2958.5335520833323,
      "v": 127
    },
    {
      "midi": 88,
      "hit": false,
      "t": 105315.6645208332,
      "d": 1990.5633645833295,
      "v": 127
    },
    {
      "midi": 45,
      "hit": false,
      "t": 105330.9081458358,
      "d": 447.14633333338134,
      "v": 97
    },
    {
      "midi": 52,
      "hit": false,
      "t": 105341.07056250247,
      "d": 447.14633333338134,
      "v": 90
    },
    {
      "midi": 57,
      "hit": false,
      "t": 105351.23297916914,
      "d": 193.0859166666778,
      "v": 100
    },
    {
      "midi": 61,
      "hit": false,
      "t": 105361.39539583582,
      "d": 193.0859166666778,
      "v": 92
    },
    {
      "midi": 69,
      "hit": false,
      "t": 105363.93599999987,
      "d": 2422.4660729166644,
      "v": 120
    },
    {
      "midi": 57,
      "hit": false,
      "t": 105363.93599999987,
      "d": 3789.311114583339,
      "v": 127
    },
    {
      "midi": 61,
      "hit": false,
      "t": 105363.93599999987,
      "d": 3798.203229166669,
      "v": 127
    },
    {
      "midi": 52,
      "hit": false,
      "t": 105363.93599999987,
      "d": 3888.3946770833427,
      "v": 127
    },
    {
      "midi": 61,
      "hit": false,
      "t": 105363.93600000002,
      "d": 124.48960416666523,
      "v": 127
    },
    {
      "midi": 45,
      "hit": false,
      "t": 105363.93600000003,
      "d": 577.987447916661,
      "v": 127
    },
    {
      "midi": 81,
      "hit": false,
      "t": 105367.74690624987,
      "d": 2430.087885416666,
      "v": 120
    },
    {
      "midi": 64,
      "hit": false,
      "t": 105371.55781250249,
      "d": 193.0859166666778,
      "v": 83
    },
    {
      "midi": 64,
      "hit": false,
      "t": 105572.26554166917,
      "d": 238.81679166668619,
      "v": 82
    },
    {
      "midi": 61,
      "hit": false,
      "t": 105579.88735416917,
      "d": 238.81679166668619,
      "v": 81
    },
    {
      "midi": 57,
      "hit": false,
      "t": 105590.04977083585,
      "d": 223.5731666666834,
      "v": 80
    },
    {
      "midi": 61,
      "hit": false,
      "t": 105607.83400000002,
      "d": 114.3271875000064,
      "v": 127
    },
    {
      "midi": 45,
      "hit": false,
      "t": 105839.02897916919,
      "d": 442.0651250000228,
      "v": 88
    },
    {
      "midi": 52,
      "hit": false,
      "t": 105841.56958333586,
      "d": 467.47116666668444,
      "v": 92
    },
    {
      "midi": 57,
      "hit": false,
      "t": 105844.11018750253,
      "d": 444.60572916668025,
      "v": 117
    },
    {
      "midi": 61,
      "hit": false,
      "t": 105846.6507916692,
      "d": 436.98391666667885,
      "v": 122
    },
    {
      "midi": 64,
      "hit": false,
      "t": 105849.19139583588,
      "d": 452.2275416666671,
      "v": 126
    },
    {
      "midi": 61,
      "hit": false,
      "t": 105851.73200000002,
      "d": 120.67869791666453,
      "v": 127
    },
    {
      "midi": 45,
      "hit": false,
      "t": 106095.63000000002,
      "d": 232.46528124999895,
      "v": 127
    },
    {
      "midi": 61,
      "hit": false,
      "t": 106095.63000000002,
      "d": 119.40839583333582,
      "v": 127
    },
    {
      "midi": 45,
      "hit": false,
      "t": 106316.66256250255,
      "d": 231.19497916667024,
      "v": 95
    },
    {
      "midi": 52,
      "hit": false,
      "t": 106326.82497916922,
      "d": 208.32954166666605,
      "v": 88
    },
    {
      "midi": 57,
      "hit": false,
      "t": 106336.9873958359,
      "d": 193.08591666666325,
      "v": 98
    },
    {
      "midi": 40,
      "hit": false,
      "t": 106339.52800000002,
      "d": 641.5025520833296,
      "v": 127
    },
    {
      "midi": 61,
      "hit": false,
      "t": 106339.52800000002,
      "d": 118.1380937500071,
      "v": 127
    },
    {
      "midi": 61,
      "hit": false,
      "t": 106347.14981250257,
      "d": 436.98391666664975,
      "v": 90
    },
    {
      "midi": 64,
      "hit": false,
      "t": 106356.0419270859,
      "d": 452.2275416666671,
      "v": 83
    },
    {
      "midi": 57,
      "hit": false,
      "t": 106575.80418750255,
      "d": 193.08591666666325,
      "v": 85
    },
    {
      "midi": 61,
      "hit": false,
      "t": 106583.42600000002,
      "d": 121.94899999999325,
      "v": 127
    },
    {
      "midi": 52,
      "hit": false,
      "t": 106588.50720833588,
      "d": 193.08591666666325,
      "v": 71
    },
    {
      "midi": 45,
      "hit": false,
      "t": 106601.21022916921,
      "d": 193.0859166666778,
      "v": 72
    },
    {
      "midi": 45,
      "hit": false,
      "t": 106804.45856250256,
      "d": 452.2275416666962,
      "v": 88
    },
    {
      "midi": 52,
      "hit": false,
      "t": 106806.99916666924,
      "d": 452.2275416666962,
      "v": 92
    },
    {
      "midi": 57,
      "hit": false,
      "t": 106809.5397708359,
      "d": 208.3295416666806,
      "v": 117
    },
    {
      "midi": 61,
      "hit": false,
      "t": 106812.08037500257,
      "d": 215.951354166682,
      "v": 122
    },
    {
      "midi": 64,
      "hit": false,
      "t": 106814.62097916924,
      "d": 198.16712500000722,
      "v": 126
    },
    {
      "midi": 64,
      "hit": false,
      "t": 107045.81595833591,
      "d": 185.4641041666764,
      "v": 104
    },
    {
      "midi": 61,
      "hit": false,
      "t": 107055.97837500258,
      "d": 177.842291666675,
      "v": 98
    },
    {
      "midi": 57,
      "hit": false,
      "t": 107068.68139583591,
      "d": 193.08591666669236,
      "v": 90
    },
    {
      "midi": 61,
      "hit": false,
      "t": 107071.22200000001,
      "d": 109.24597916666244,
      "v": 127
    },
    {
      "midi": 40,
      "hit": false,
      "t": 107071.22200000002,
      "d": 224.84346874999756,
      "v": 127
    },
    {
      "midi": 45,
      "hit": false,
      "t": 107282.09214583594,
      "d": 447.14633333338134,
      "v": 97
    },
    {
      "midi": 52,
      "hit": false,
      "t": 107292.25456250261,
      "d": 447.14633333338134,
      "v": 90
    },
    {
      "midi": 57,
      "hit": false,
      "t": 107302.41697916928,
      "d": 193.0859166666778,
      "v": 100
    },
    {
      "midi": 61,
      "hit": false,
      "t": 107312.57939583596,
      "d": 193.0859166666778,
      "v": 92
    },
    {
      "midi": 61,
      "hit": false,
      "t": 107315.12000000001,
      "d": 118.1380937500071,
      "v": 127
    },
    {
      "midi": 45,
      "hit": false,
      "t": 107315.12000000002,
      "d": 590.6904687500064,
      "v": 127
    },
    {
      "midi": 64,
      "hit": false,
      "t": 107322.74181250263,
      "d": 193.0859166666778,
      "v": 83
    },
    {
      "midi": 64,
      "hit": false,
      "t": 107523.44954166931,
      "d": 238.81679166668619,
      "v": 82
    },
    {
      "midi": 61,
      "hit": false,
      "t": 107531.07135416931,
      "d": 238.81679166668619,
      "v": 81
    },
    {
      "midi": 57,
      "hit": false,
      "t": 107541.23377083598,
      "d": 223.5731666666834,
      "v": 80
    },
    {
      "midi": 61,
      "hit": false,
      "t": 107559.01800000001,
      "d": 110.5162812500057,
      "v": 127
    },
    {
      "midi": 68,
      "hit": false,
      "t": 107772.42874999986,
      "d": 452.22754166668165,
      "v": 120
    },
    {
      "midi": 80,
      "hit": false,
      "t": 107782.59116666653,
      "d": 495.4178125000035,
      "v": 120
    },
    {
      "midi": 45,
      "hit": false,
      "t": 107790.21297916933,
      "d": 442.0651250000228,
      "v": 88
    },
    {
      "midi": 52,
      "hit": false,
      "t": 107792.753583336,
      "d": 467.47116666668444,
      "v": 92
    },
    {
      "midi": 57,
      "hit": false,
      "t": 107795.29418750267,
      "d": 444.60572916668025,
      "v": 117
    },
    {
      "midi": 61,
      "hit": false,
      "t": 107797.83479166935,
      "d": 436.98391666667885,
      "v": 122
    },
    {
      "midi": 64,
      "hit": false,
      "t": 107800.37539583602,
      "d": 452.2275416666671,
      "v": 126
    },
    {
      "midi": 61,
      "hit": false,
      "t": 107802.91600000001,
      "d": 105.43507291666174,
      "v": 127
    },
    {
      "midi": 61,
      "hit": false,
      "t": 108046.81400000001,
      "d": 143.54413541666872,
      "v": 127
    },
    {
      "midi": 45,
      "hit": false,
      "t": 108046.81400000003,
      "d": 240.08709375000035,
      "v": 127
    },
    {
      "midi": 69,
      "hit": false,
      "t": 108243.71082291655,
      "d": 478.90388541665743,
      "v": 120
    },
    {
      "midi": 81,
      "hit": false,
      "t": 108257.6841458332,
      "d": 453.4978437499958,
      "v": 120
    },
    {
      "midi": 45,
      "hit": false,
      "t": 108267.84656250269,
      "d": 231.19497916667024,
      "v": 95
    },
    {
      "midi": 52,
      "hit": false,
      "t": 108278.00897916936,
      "d": 208.32954166666605,
      "v": 88
    },
    {
      "midi": 57,
      "hit": false,
      "t": 108288.17139583603,
      "d": 193.08591666666325,
      "v": 98
    },
    {
      "midi": 59,
      "hit": false,
      "t": 108290.71200000001,
      "d": 194.35621875000652,
      "v": 127
    },
    {
      "midi": 40,
      "hit": false,
      "t": 108290.71200000003,
      "d": 532.2565729166672,
      "v": 127
    },
    {
      "midi": 61,
      "hit": false,
      "t": 108298.33381250271,
      "d": 436.98391666664975,
      "v": 90
    },
    {
      "midi": 64,
      "hit": false,
      "t": 108307.22592708604,
      "d": 452.2275416666671,
      "v": 83
    },
    {
      "midi": 57,
      "hit": false,
      "t": 108526.98818750269,
      "d": 193.08591666666325,
      "v": 85
    },
    {
      "midi": 57,
      "hit": false,
      "t": 108534.61000000002,
      "d": 393.7936458333279,
      "v": 127
    },
    {
      "midi": 52,
      "hit": false,
      "t": 108539.69120833602,
      "d": 193.08591666666325,
      "v": 71
    },
    {
      "midi": 45,
      "hit": false,
      "t": 108552.39422916935,
      "d": 193.0859166666778,
      "v": 72
    },
    {
      "midi": 83,
      "hit": false,
      "t": 108721.34440624987,
      "d": 491.6069062500028,
      "v": 120
    },
    {
      "midi": 71,
      "hit": false,
      "t": 108728.96621874988,
      "d": 514.472343750007,
      "v": 120
    },
    {
      "midi": 45,
      "hit": false,
      "t": 108755.6425625027,
      "d": 452.2275416666962,
      "v": 88
    },
    {
      "midi": 52,
      "hit": false,
      "t": 108758.18316666938,
      "d": 452.2275416666962,
      "v": 92
    },
    {
      "midi": 57,
      "hit": false,
      "t": 108760.72377083603,
      "d": 208.3295416666806,
      "v": 117
    },
    {
      "midi": 61,
      "hit": false,
      "t": 108763.2643750027,
      "d": 215.951354166682,
      "v": 122
    },
    {
      "midi": 64,
      "hit": false,
      "t": 108765.80497916938,
      "d": 198.16712500000722,
      "v": 126
    },
    {
      "midi": 45,
      "hit": false,
      "t": 108778.50800000003,
      "d": 233.73558333332767,
      "v": 127
    },
    {
      "midi": 64,
      "hit": false,
      "t": 108996.99995833605,
      "d": 185.4641041666764,
      "v": 104
    },
    {
      "midi": 61,
      "hit": false,
      "t": 109007.16237500272,
      "d": 177.842291666675,
      "v": 98
    },
    {
      "midi": 57,
      "hit": false,
      "t": 109019.86539583605,
      "d": 193.08591666669236,
      "v": 90
    },
    {
      "midi": 62,
      "hit": false,
      "t": 109022.406,
      "d": 92.73205208333093,
      "v": 127
    },
    {
      "midi": 40,
      "hit": false,
      "t": 109022.40600000003,
      "d": 221.03256249999686,
      "v": 127
    },
    {
      "midi": 54,
      "hit": false,
      "t": 109223.11372916655,
      "d": 3851.5559166666353,
      "v": 127
    },
    {
      "midi": 50,
      "hit": false,
      "t": 109233.27614583608,
      "d": 447.14633333338134,
      "v": 97
    },
    {
      "midi": 57,
      "hit": false,
      "t": 109235.81674999988,
      "d": 3793.1220208333107,
      "v": 120
    },
    {
      "midi": 74,
      "hit": false,
      "t": 109237.08705208321,
      "d": 2895.0184479166637,
      "v": 120
    },
    {
      "midi": 62,
      "hit": false,
      "t": 109239.62765624988,
      "d": 3818.5280624999723,
      "v": 127
    },
    {
      "midi": 86,
      "hit": false,
      "t": 109243.43856249988,
      "d": 2892.4778437499917,
      "v": 120
    },
    {
      "midi": 54,
      "hit": false,
      "t": 109243.43856250275,
      "d": 447.14633333338134,
      "v": 90
    },
    {
      "midi": 57,
      "hit": false,
      "t": 109253.60097916942,
      "d": 193.0859166666778,
      "v": 100
    },
    {
      "midi": 62,
      "hit": false,
      "t": 109263.7633958361,
      "d": 193.0859166666778,
      "v": 92
    },
    {
      "midi": 62,
      "hit": false,
      "t": 109266.304,
      "d": 90.1914479166735,
      "v": 127
    },
    {
      "midi": 38,
      "hit": false,
      "t": 109266.30400000003,
      "d": 612.2856041666673,
      "v": 127
    },
    {
      "midi": 66,
      "hit": false,
      "t": 109273.92581250277,
      "d": 193.0859166666778,
      "v": 83
    },
    {
      "midi": 66,
      "hit": false,
      "t": 109474.63354166945,
      "d": 238.81679166668619,
      "v": 82
    },
    {
      "midi": 62,
      "hit": false,
      "t": 109482.25535416945,
      "d": 238.81679166668619,
      "v": 81
    },
    {
      "midi": 57,
      "hit": false,
      "t": 109492.41777083612,
      "d": 223.5731666666834,
      "v": 80
    },
    {
      "midi": 62,
      "hit": false,
      "t": 109510.202,
      "d": 92.73205208333093,
      "v": 127
    },
    {
      "midi": 50,
      "hit": false,
      "t": 109741.39697916947,
      "d": 442.0651250000228,
      "v": 88
    },
    {
      "midi": 54,
      "hit": false,
      "t": 109743.93758333614,
      "d": 467.47116666668444,
      "v": 92
    },
    {
      "midi": 57,
      "hit": false,
      "t": 109746.47818750281,
      "d": 444.60572916668025,
      "v": 117
    },
    {
      "midi": 62,
      "hit": false,
      "t": 109749.01879166948,
      "d": 436.98391666667885,
      "v": 122
    },
    {
      "midi": 66,
      "hit": false,
      "t": 109751.55939583616,
      "d": 452.2275416666671,
      "v": 126
    },
    {
      "midi": 62,
      "hit": false,
      "t": 109754.1,
      "d": 100.35386458333232,
      "v": 127
    },
    {
      "midi": 62,
      "hit": false,
      "t": 109997.998,
      "d": 96.54295833333163,
      "v": 127
    },
    {
      "midi": 38,
      "hit": false,
      "t": 109997.99800000004,
      "d": 193.08591666666325,
      "v": 127
    },
    {
      "midi": 50,
      "hit": false,
      "t": 110219.03056250283,
      "d": 231.19497916667024,
      "v": 95
    },
    {
      "midi": 54,
      "hit": false,
      "t": 110229.1929791695,
      "d": 208.32954166666605,
      "v": 88
    },
    {
      "midi": 57,
      "hit": false,
      "t": 110239.35539583617,
      "d": 193.08591666666325,
      "v": 98
    },
    {
      "midi": 62,
      "hit": false,
      "t": 110241.89600000001,
      "d": 114.3271875000064,
      "v": 127
    },
    {
      "midi": 33,
      "hit": false,
      "t": 110241.89600000004,
      "d": 612.2856041666673,
      "v": 127
    },
    {
      "midi": 62,
      "hit": false,
      "t": 110249.51781250285,
      "d": 436.98391666664975,
      "v": 90
    },
    {
      "midi": 66,
      "hit": false,
      "t": 110258.40992708618,
      "d": 452.2275416666671,
      "v": 83
    },
    {
      "midi": 57,
      "hit": false,
      "t": 110478.17218750283,
      "d": 193.08591666666325,
      "v": 85
    },
    {
      "midi": 62,
      "hit": false,
      "t": 110485.79400000001,
      "d": 107.97567708333372,
      "v": 127
    },
    {
      "midi": 54,
      "hit": false,
      "t": 110490.87520833616,
      "d": 193.08591666666325,
      "v": 71
    },
    {
      "midi": 50,
      "hit": false,
      "t": 110503.57822916949,
      "d": 193.0859166666778,
      "v": 72
    },
    {
      "midi": 50,
      "hit": false,
      "t": 110706.82656250284,
      "d": 452.2275416666962,
      "v": 88
    },
    {
      "midi": 54,
      "hit": false,
      "t": 110709.36716666952,
      "d": 452.2275416666962,
      "v": 92
    },
    {
      "midi": 57,
      "hit": false,
      "t": 110711.90777083617,
      "d": 208.3295416666806,
      "v": 117
    },
    {
      "midi": 62,
      "hit": false,
      "t": 110714.44837500284,
      "d": 215.951354166682,
      "v": 122
    },
    {
      "midi": 66,
      "hit": false,
      "t": 110716.98897916952,
      "d": 198.16712500000722,
      "v": 126
    },
    {
      "midi": 62,
      "hit": false,
      "t": 110729.69200000001,
      "d": 113.05688541666314,
      "v": 127
    },
    {
      "midi": 66,
      "hit": false,
      "t": 110948.18395833619,
      "d": 185.4641041666764,
      "v": 104
    },
    {
      "midi": 62,
      "hit": false,
      "t": 110958.34637500286,
      "d": 177.842291666675,
      "v": 98
    },
    {
      "midi": 57,
      "hit": false,
      "t": 110971.04939583619,
      "d": 193.08591666669236,
      "v": 90
    },
    {
      "midi": 62,
      "hit": false,
      "t": 110973.59000000001,
      "d": 101.62416666666104,
      "v": 127
    },
    {
      "midi": 33,
      "hit": false,
      "t": 110973.59000000004,
      "d": 235.00588541667094,
      "v": 127
    },
    {
      "midi": 50,
      "hit": false,
      "t": 111184.46014583622,
      "d": 447.14633333338134,
      "v": 97
    },
    {
      "midi": 54,
      "hit": false,
      "t": 111194.62256250289,
      "d": 447.14633333338134,
      "v": 90
    },
    {
      "midi": 57,
      "hit": false,
      "t": 111204.78497916956,
      "d": 193.0859166666778,
      "v": 100
    },
    {
      "midi": 62,
      "hit": false,
      "t": 111214.94739583624,
      "d": 193.0859166666778,
      "v": 92
    },
    {
      "midi": 62,
      "hit": false,
      "t": 111217.48800000001,
      "d": 97.81326041666034,
      "v": 127
    },
    {
      "midi": 38,
      "hit": false,
      "t": 111217.48800000004,
      "d": 556.3923125000001,
      "v": 127
    },
    {
      "midi": 66,
      "hit": false,
      "t": 111225.10981250291,
      "d": 193.0859166666778,
      "v": 83
    },
    {
      "midi": 66,
      "hit": false,
      "t": 111425.81754166959,
      "d": 238.81679166668619,
      "v": 82
    },
    {
      "midi": 62,
      "hit": false,
      "t": 111433.43935416959,
      "d": 238.81679166668619,
      "v": 81
    },
    {
      "midi": 57,
      "hit": false,
      "t": 111443.60177083626,
      "d": 223.5731666666834,
      "v": 80
    },
    {
      "midi": 62,
      "hit": false,
      "t": 111461.386,
      "d": 101.62416666666104,
      "v": 127
    },
    {
      "midi": 50,
      "hit": false,
      "t": 111692.58097916961,
      "d": 442.0651250000228,
      "v": 88
    },
    {
      "midi": 54,
      "hit": false,
      "t": 111695.12158333628,
      "d": 467.47116666668444,
      "v": 92
    },
    {
      "midi": 57,
      "hit": false,
      "t": 111697.66218750295,
      "d": 444.60572916668025,
      "v": 117
    },
    {
      "midi": 62,
      "hit": false,
      "t": 111700.20279166962,
      "d": 436.98391666667885,
      "v": 122
    },
    {
      "midi": 66,
      "hit": false,
      "t": 111702.7433958363,
      "d": 452.2275416666671,
      "v": 126
    },
    {
      "midi": 62,
      "hit": false,
      "t": 111705.284,
      "d": 110.5162812500057,
      "v": 127
    },
    {
      "midi": 62,
      "hit": false,
      "t": 111949.182,
      "d": 113.05688541666314,
      "v": 127
    },
    {
      "midi": 38,
      "hit": false,
      "t": 111949.18200000004,
      "d": 201.97803124999336,
      "v": 127
    },
    {
      "midi": 73,
      "hit": false,
      "t": 112139.72731249988,
      "d": 257.8713229166606,
      "v": 120
    },
    {
      "midi": 85,
      "hit": false,
      "t": 112157.51154166654,
      "d": 215.95135416666744,
      "v": 120
    },
    {
      "midi": 50,
      "hit": false,
      "t": 112170.21456250297,
      "d": 231.19497916667024,
      "v": 95
    },
    {
      "midi": 54,
      "hit": false,
      "t": 112180.37697916964,
      "d": 208.32954166666605,
      "v": 88
    },
    {
      "midi": 57,
      "hit": false,
      "t": 112190.53939583631,
      "d": 193.08591666666325,
      "v": 98
    },
    {
      "midi": 62,
      "hit": false,
      "t": 112193.08,
      "d": 443.335427083337,
      "v": 127
    },
    {
      "midi": 33,
      "hit": false,
      "t": 112193.08000000003,
      "d": 508.1208333333343,
      "v": 127
    },
    {
      "midi": 62,
      "hit": false,
      "t": 112200.70181250299,
      "d": 436.98391666664975,
      "v": 90
    },
    {
      "midi": 66,
      "hit": false,
      "t": 112209.59392708632,
      "d": 452.2275416666671,
      "v": 83
    },
    {
      "midi": 86,
      "hit": false,
      "t": 112386.16591666653,
      "d": 221.03256249999686,
      "v": 120
    },
    {
      "midi": 74,
      "hit": false,
      "t": 112402.67984374987,
      "d": 207.05923958333733,
      "v": 120
    },
    {
      "midi": 57,
      "hit": false,
      "t": 112429.35618750297,
      "d": 193.08591666666325,
      "v": 85
    },
    {
      "midi": 54,
      "hit": false,
      "t": 112442.0592083363,
      "d": 193.08591666666325,
      "v": 71
    },
    {
      "midi": 50,
      "hit": false,
      "t": 112454.76222916963,
      "d": 193.0859166666778,
      "v": 72
    },
    {
      "midi": 85,
      "hit": false,
      "t": 112613.5499895832,
      "d": 232.46528124999895,
      "v": 120
    },
    {
      "midi": 73,
      "hit": false,
      "t": 112613.5499895832,
      "d": 256.60102083333186,
      "v": 120
    },
    {
      "midi": 50,
      "hit": false,
      "t": 112658.01056250298,
      "d": 452.2275416666962,
      "v": 88
    },
    {
      "midi": 54,
      "hit": false,
      "t": 112660.55116666965,
      "d": 452.2275416666962,
      "v": 92
    },
    {
      "midi": 57,
      "hit": false,
      "t": 112663.09177083631,
      "d": 208.3295416666806,
      "v": 117
    },
    {
      "midi": 62,
      "hit": false,
      "t": 112665.63237500298,
      "d": 215.951354166682,
      "v": 122
    },
    {
      "midi": 66,
      "hit": false,
      "t": 112668.17297916966,
      "d": 198.16712500000722,
      "v": 126
    },
    {
      "midi": 61,
      "hit": false,
      "t": 112680.876,
      "d": 158.78776041667152,
      "v": 127
    },
    {
      "midi": 38,
      "hit": false,
      "t": 112680.87600000003,
      "d": 223.57316666666884,
      "v": 127
    },
    {
      "midi": 86,
      "hit": false,
      "t": 112832.04194791654,
      "d": 257.871322916646,
      "v": 120
    },
    {
      "midi": 74,
      "hit": false,
      "t": 112868.8807083332,
      "d": 30.487249999991036,
      "v": 120
    },
    {
      "midi": 66,
      "hit": false,
      "t": 112899.36795833633,
      "d": 185.4641041666764,
      "v": 104
    },
    {
      "midi": 62,
      "hit": false,
      "t": 112909.530375003,
      "d": 177.842291666675,
      "v": 98
    },
    {
      "midi": 57,
      "hit": false,
      "t": 112922.23339583633,
      "d": 193.08591666669236,
      "v": 90
    },
    {
      "midi": 62,
      "hit": false,
      "t": 112924.774,
      "d": 137.19262499999604,
      "v": 127
    },
    {
      "midi": 39,
      "hit": false,
      "t": 112924.77400000003,
      "d": 241.35739583332906,
      "v": 127
    },
    {
      "midi": 73,
      "hit": false,
      "t": 112948.90973958319,
      "d": 87.65084375000151,
      "v": 120
    },
    {
      "midi": 56,
      "hit": false,
      "t": 113125.48172916652,
      "d": 3847.7450104166637,
      "v": 127
    },
    {
      "midi": 52,
      "hit": false,
      "t": 113125.48172916652,
      "d": 5734.14360416666,
      "v": 92
    },
    {
      "midi": 76,
      "hit": false,
      "t": 113130.56293749985,
      "d": 2451.6830208333267,
      "v": 120
    },
    {
      "midi": 40,
      "hit": false,
      "t": 113135.64414583636,
      "d": 447.14633333338134,
      "v": 80
    },
    {
      "midi": 47,
      "hit": false,
      "t": 113145.80656250303,
      "d": 447.14633333338134,
      "v": 90
    },
    {
      "midi": 64,
      "hit": false,
      "t": 113154.69867708319,
      "d": 2366.572781249997,
      "v": 120
    },
    {
      "midi": 52,
      "hit": false,
      "t": 113155.9689791697,
      "d": 193.0859166666778,
      "v": 83
    },
    {
      "midi": 56,
      "hit": false,
      "t": 113166.13139583638,
      "d": 193.0859166666778,
      "v": 92
    },
    {
      "midi": 64,
      "hit": false,
      "t": 113168.672,
      "d": 97.81326041666034,
      "v": 127
    },
    {
      "midi": 40,
      "hit": false,
      "t": 113168.67200000004,
      "d": 566.5547291666735,
      "v": 127
    },
    {
      "midi": 59,
      "hit": false,
      "t": 113176.29381250305,
      "d": 193.0859166666778,
      "v": 83
    },
    {
      "midi": 59,
      "hit": false,
      "t": 113377.00154166973,
      "d": 238.81679166668619,
      "v": 82
    },
    {
      "midi": 56,
      "hit": false,
      "t": 113384.62335416973,
      "d": 238.81679166668619,
      "v": 81
    },
    {
      "midi": 52,
      "hit": false,
      "t": 113394.7857708364,
      "d": 223.5731666666834,
      "v": 66
    },
    {
      "midi": 64,
      "hit": false,
      "t": 113412.56999999999,
      "d": 118.1380937500071,
      "v": 127
    },
    {
      "midi": 40,
      "hit": false,
      "t": 113643.76497916975,
      "d": 442.0651250000228,
      "v": 73
    },
    {
      "midi": 47,
      "hit": false,
      "t": 113646.30558333642,
      "d": 467.47116666668444,
      "v": 92
    },
    {
      "midi": 52,
      "hit": false,
      "t": 113648.84618750309,
      "d": 444.60572916668025,
      "v": 97
    },
    {
      "midi": 56,
      "hit": false,
      "t": 113651.38679166976,
      "d": 436.98391666667885,
      "v": 122
    },
    {
      "midi": 59,
      "hit": false,
      "t": 113653.92739583644,
      "d": 452.2275416666671,
      "v": 126
    },
    {
      "midi": 64,
      "hit": false,
      "t": 113656.468,
      "d": 317.5755208333285,
      "v": 127
    },
    {
      "midi": 40,
      "hit": false,
      "t": 113900.36600000004,
      "d": 219.76226041666814,
      "v": 127
    },
    {
      "midi": 40,
      "hit": false,
      "t": 114121.3985625031,
      "d": 231.19497916667024,
      "v": 79
    },
    {
      "midi": 47,
      "hit": false,
      "t": 114131.56097916978,
      "d": 208.32954166666605,
      "v": 88
    },
    {
      "midi": 52,
      "hit": false,
      "t": 114141.72339583645,
      "d": 193.08591666666325,
      "v": 81
    },
    {
      "midi": 64,
      "hit": false,
      "t": 114144.264,
      "d": 327.73793750000186,
      "v": 127
    },
    {
      "midi": 35,
      "hit": false,
      "t": 114144.26400000004,
      "d": 570.3656354166596,
      "v": 127
    },
    {
      "midi": 56,
      "hit": false,
      "t": 114151.88581250313,
      "d": 436.98391666664975,
      "v": 90
    },
    {
      "midi": 59,
      "hit": false,
      "t": 114160.77792708646,
      "d": 452.2275416666671,
      "v": 83
    },
    {
      "midi": 52,
      "hit": false,
      "t": 114380.54018750311,
      "d": 193.08591666666325,
      "v": 70
    },
    {
      "midi": 47,
      "hit": false,
      "t": 114393.24320833644,
      "d": 193.08591666666325,
      "v": 71
    },
    {
      "midi": 40,
      "hit": false,
      "t": 114405.94622916977,
      "d": 193.0859166666778,
      "v": 60
    },
    {
      "midi": 40,
      "hit": false,
      "t": 114609.19456250312,
      "d": 452.2275416666962,
      "v": 73
    },
    {
      "midi": 47,
      "hit": false,
      "t": 114611.7351666698,
      "d": 452.2275416666962,
      "v": 92
    },
    {
      "midi": 52,
      "hit": false,
      "t": 114614.27577083645,
      "d": 208.3295416666806,
      "v": 97
    },
    {
      "midi": 56,
      "hit": false,
      "t": 114616.81637500312,
      "d": 215.951354166682,
      "v": 122
    },
    {
      "midi": 59,
      "hit": false,
      "t": 114619.3569791698,
      "d": 198.16712500000722,
      "v": 126
    },
    {
      "midi": 64,
      "hit": false,
      "t": 114632.06,
      "d": 104.16477083333302,
      "v": 127
    },
    {
      "midi": 59,
      "hit": false,
      "t": 114850.55195833647,
      "d": 185.4641041666764,
      "v": 104
    },
    {
      "midi": 56,
      "hit": false,
      "t": 114860.71437500314,
      "d": 177.842291666675,
      "v": 98
    },
    {
      "midi": 52,
      "hit": false,
      "t": 114873.41739583647,
      "d": 193.08591666669236,
      "v": 75
    },
    {
      "midi": 64,
      "hit": false,
      "t": 114875.958,
      "d": 99.08356250000361,
      "v": 127
    },
    {
      "midi": 35,
      "hit": false,
      "t": 114875.95800000003,
      "d": 222.30286458334012,
      "v": 127
    },
    {
      "midi": 40,
      "hit": false,
      "t": 115086.8281458365,
      "d": 447.14633333338134,
      "v": 80
    },
    {
      "midi": 47,
      "hit": false,
      "t": 115096.99056250317,
      "d": 447.14633333338134,
      "v": 90
    },
    {
      "midi": 52,
      "hit": false,
      "t": 115107.15297916984,
      "d": 193.0859166666778,
      "v": 83
    },
    {
      "midi": 56,
      "hit": false,
      "t": 115117.31539583651,
      "d": 193.0859166666778,
      "v": 92
    },
    {
      "midi": 64,
      "hit": false,
      "t": 115119.856,
      "d": 105.43507291666174,
      "v": 127
    },
    {
      "midi": 40,
      "hit": false,
      "t": 115119.85600000003,
      "d": 584.3389583333337,
      "v": 127
    },
    {
      "midi": 59,
      "hit": false,
      "t": 115127.47781250319,
      "d": 193.0859166666778,
      "v": 83
    },
    {
      "midi": 59,
      "hit": false,
      "t": 115328.18554166987,
      "d": 238.81679166668619,
      "v": 82
    },
    {
      "midi": 56,
      "hit": false,
      "t": 115335.80735416987,
      "d": 238.81679166668619,
      "v": 81
    },
    {
      "midi": 52,
      "hit": false,
      "t": 115345.96977083654,
      "d": 223.5731666666834,
      "v": 66
    },
    {
      "midi": 64,
      "hit": false,
      "t": 115363.754,
      "d": 100.35386458333232,
      "v": 127
    },
    {
      "midi": 62,
      "hit": false,
      "t": 115545.40719791652,
      "d": 494.1475104166748,
      "v": 120
    },
    {
      "midi": 74,
      "hit": false,
      "t": 115549.21810416652,
      "d": 532.2565729166672,
      "v": 120
    },
    {
      "midi": 40,
      "hit": false,
      "t": 115594.94897916989,
      "d": 442.0651250000228,
      "v": 73
    },
    {
      "midi": 47,
      "hit": false,
      "t": 115597.48958333656,
      "d": 467.47116666668444,
      "v": 92
    },
    {
      "midi": 52,
      "hit": false,
      "t": 115600.03018750323,
      "d": 444.60572916668025,
      "v": 97
    },
    {
      "midi": 56,
      "hit": false,
      "t": 115602.5707916699,
      "d": 436.98391666667885,
      "v": 122
    },
    {
      "midi": 59,
      "hit": false,
      "t": 115605.11139583657,
      "d": 452.2275416666671,
      "v": 126
    },
    {
      "midi": 64,
      "hit": false,
      "t": 115607.652,
      "d": 229.92467708332697,
      "v": 127
    },
    {
      "midi": 40,
      "hit": false,
      "t": 115851.55000000003,
      "d": 224.84346874999756,
      "v": 127
    },
    {
      "midi": 61,
      "hit": false,
      "t": 116037.01410416652,
      "d": 448.4166354166664,
      "v": 120
    },
    {
      "midi": 73,
      "hit": false,
      "t": 116040.82501041652,
      "d": 449.6869374999951,
      "v": 120
    },
    {
      "midi": 40,
      "hit": false,
      "t": 116072.58256250324,
      "d": 231.19497916667024,
      "v": 79
    },
    {
      "midi": 47,
      "hit": false,
      "t": 116082.74497916992,
      "d": 208.32954166666605,
      "v": 88
    },
    {
      "midi": 52,
      "hit": false,
      "t": 116092.90739583659,
      "d": 193.08591666666325,
      "v": 81
    },
    {
      "midi": 64,
      "hit": false,
      "t": 116095.44799999999,
      "d": 654.2055729166605,
      "v": 127
    },
    {
      "midi": 35,
      "hit": false,
      "t": 116095.44800000003,
      "d": 417.9293854166608,
      "v": 127
    },
    {
      "midi": 56,
      "hit": false,
      "t": 116103.06981250326,
      "d": 436.98391666664975,
      "v": 90
    },
    {
      "midi": 59,
      "hit": false,
      "t": 116111.9619270866,
      "d": 452.2275416666671,
      "v": 83
    },
    {
      "midi": 52,
      "hit": false,
      "t": 116331.72418750325,
      "d": 193.08591666666325,
      "v": 70
    },
    {
      "midi": 47,
      "hit": false,
      "t": 116344.42720833658,
      "d": 193.08591666666325,
      "v": 71
    },
    {
      "midi": 40,
      "hit": false,
      "t": 116357.13022916991,
      "d": 193.0859166666778,
      "v": 60
    },
    {
      "midi": 59,
      "hit": false,
      "t": 116494.32285416652,
      "d": 471.2820729166706,
      "v": 120
    },
    {
      "midi": 71,
      "hit": false,
      "t": 116494.32285416652,
      "d": 527.1753645833378,
      "v": 120
    },
    {
      "midi": 40,
      "hit": false,
      "t": 116560.37856250326,
      "d": 452.2275416666962,
      "v": 73
    },
    {
      "midi": 47,
      "hit": false,
      "t": 116562.91916666993,
      "d": 452.2275416666962,
      "v": 92
    },
    {
      "midi": 52,
      "hit": false,
      "t": 116565.45977083659,
      "d": 208.3295416666806,
      "v": 97
    },
    {
      "midi": 56,
      "hit": false,
      "t": 116568.00037500326,
      "d": 215.951354166682,
      "v": 122
    },
    {
      "midi": 59,
      "hit": false,
      "t": 116570.54097916993,
      "d": 198.16712500000722,
      "v": 126
    },
    {
      "midi": 40,
      "hit": false,
      "t": 116583.24400000002,
      "d": 242.62769791667233,
      "v": 127
    },
    {
      "midi": 59,
      "hit": false,
      "t": 116801.7359583366,
      "d": 185.4641041666764,
      "v": 104
    },
    {
      "midi": 56,
      "hit": false,
      "t": 116811.89837500328,
      "d": 177.842291666675,
      "v": 98
    },
    {
      "midi": 52,
      "hit": false,
      "t": 116824.60139583661,
      "d": 193.08591666669236,
      "v": 75
    },
    {
      "midi": 62,
      "hit": false,
      "t": 116827.14199999998,
      "d": 101.62416666666104,
      "v": 127
    },
    {
      "midi": 44,
      "hit": false,
      "t": 116827.14200000002,
      "d": 199.43742708333593,
      "v": 127
    },
    {
      "midi": 57,
      "hit": false,
      "t": 116978.30794791652,
      "d": 2026.1318229166645,
      "v": 120
    },
    {
      "midi": 69,
      "hit": false,
      "t": 117002.44368749985,
      "d": 1989.2930625000008,
      "v": 120
    },
    {
      "midi": 45,
      "hit": false,
      "t": 117038.01214583663,
      "d": 447.14633333338134,
      "v": 97
    },
    {
      "midi": 52,
      "hit": false,
      "t": 117048.1745625033,
      "d": 447.14633333338134,
      "v": 90
    },
    {
      "midi": 57,
      "hit": false,
      "t": 117058.33697916998,
      "d": 193.0859166666778,
      "v": 100
    },
    {
      "midi": 61,
      "hit": false,
      "t": 117068.49939583665,
      "d": 193.0859166666778,
      "v": 92
    },
    {
      "midi": 62,
      "hit": false,
      "t": 117071.03999999998,
      "d": 243.89800000000105,
      "v": 127
    },
    {
      "midi": 45,
      "hit": false,
      "t": 117071.04000000002,
      "d": 635.1510416666715,
      "v": 127
    },
    {
      "midi": 64,
      "hit": false,
      "t": 117078.66181250333,
      "d": 193.0859166666778,
      "v": 83
    },
    {
      "midi": 64,
      "hit": false,
      "t": 117279.36954167,
      "d": 238.81679166668619,
      "v": 82
    },
    {
      "midi": 61,
      "hit": false,
      "t": 117286.99135417001,
      "d": 238.81679166668619,
      "v": 81
    },
    {
      "midi": 57,
      "hit": false,
      "t": 117297.15377083668,
      "d": 223.5731666666834,
      "v": 80
    },
    {
      "midi": 61,
      "hit": false,
      "t": 117314.93799999998,
      "d": 243.89800000000105,
      "v": 127
    },
    {
      "midi": 45,
      "hit": false,
      "t": 117546.13297917003,
      "d": 442.0651250000228,
      "v": 88
    },
    {
      "midi": 52,
      "hit": false,
      "t": 117548.6735833367,
      "d": 467.47116666668444,
      "v": 92
    },
    {
      "midi": 57,
      "hit": false,
      "t": 117551.21418750337,
      "d": 444.60572916668025,
      "v": 117
    },
    {
      "midi": 61,
      "hit": false,
      "t": 117553.75479167004,
      "d": 436.98391666667885,
      "v": 122
    },
    {
      "midi": 64,
      "hit": false,
      "t": 117556.29539583671,
      "d": 452.2275416666671,
      "v": 126
    },
    {
      "midi": 45,
      "hit": false,
      "t": 117802.73400000003,
      "d": 215.95135416666744,
      "v": 127
    },
    {
      "midi": 45,
      "hit": false,
      "t": 118023.76656250338,
      "d": 231.19497916667024,
      "v": 95
    },
    {
      "midi": 52,
      "hit": false,
      "t": 118033.92897917006,
      "d": 208.32954166666605,
      "v": 88
    },
    {
      "midi": 57,
      "hit": false,
      "t": 118044.09139583673,
      "d": 193.08591666666325,
      "v": 98
    },
    {
      "midi": 40,
      "hit": false,
      "t": 118046.63200000003,
      "d": 483.9850937500014,
      "v": 127
    },
    {
      "midi": 61,
      "hit": false,
      "t": 118054.2538125034,
      "d": 436.98391666664975,
      "v": 90
    },
    {
      "midi": 64,
      "hit": false,
      "t": 118063.14592708673,
      "d": 452.2275416666671,
      "v": 83
    },
    {
      "midi": 57,
      "hit": false,
      "t": 118282.90818750339,
      "d": 193.08591666666325,
      "v": 85
    },
    {
      "midi": 52,
      "hit": false,
      "t": 118295.61120833672,
      "d": 193.08591666666325,
      "v": 71
    },
    {
      "midi": 45,
      "hit": false,
      "t": 118308.31422917005,
      "d": 193.0859166666778,
      "v": 72
    },
    {
      "midi": 45,
      "hit": false,
      "t": 118511.5625625034,
      "d": 452.2275416666962,
      "v": 88
    },
    {
      "midi": 52,
      "hit": false,
      "t": 118514.10316667007,
      "d": 452.2275416666962,
      "v": 92
    },
    {
      "midi": 57,
      "hit": false,
      "t": 118516.64377083673,
      "d": 208.3295416666806,
      "v": 117
    },
    {
      "midi": 61,
      "hit": false,
      "t": 118519.1843750034,
      "d": 215.951354166682,
      "v": 122
    },
    {
      "midi": 64,
      "hit": false,
      "t": 118521.72497917007,
      "d": 198.16712500000722,
      "v": 126
    },
    {
      "midi": 38,
      "hit": false,
      "t": 118534.42800000003,
      "d": 231.19497916667024,
      "v": 127
    },
    {
      "midi": 64,
      "hit": false,
      "t": 118752.91995833674,
      "d": 185.4641041666764,
      "v": 104
    },
    {
      "midi": 61,
      "hit": false,
      "t": 118763.08237500342,
      "d": 177.842291666675,
      "v": 98
    },
    {
      "midi": 57,
      "hit": false,
      "t": 118775.78539583675,
      "d": 193.08591666669236,
      "v": 90
    },
    {
      "midi": 39,
      "hit": false,
      "t": 118778.32600000003,
      "d": 226.11377083332627,
      "v": 127
    },
    {
      "midi": 64,
      "hit": false,
      "t": 118986.65554166652,
      "d": 1888.939197916654,
      "v": 127
    },
    {
      "midi": 68,
      "hit": false,
      "t": 118986.65554166652,
      "d": 1897.831312499984,
      "v": 127
    },
    {
      "midi": 40,
      "hit": false,
      "t": 118989.19614583677,
      "d": 447.14633333338134,
      "v": 80
    },
    {
      "midi": 59,
      "hit": false,
      "t": 118991.73674999985,
      "d": 1880.0470833333238,
      "v": 127
    },
    {
      "midi": 47,
      "hit": false,
      "t": 118999.35856250345,
      "d": 447.14633333338134,
      "v": 75
    },
    {
      "midi": 52,
      "hit": false,
      "t": 119009.52097917012,
      "d": 193.0859166666778,
      "v": 69
    },
    {
      "midi": 56,
      "hit": false,
      "t": 119019.6833958368,
      "d": 193.0859166666778,
      "v": 92
    },
    {
      "midi": 40,
      "hit": false,
      "t": 119022.22400000002,
      "d": 599.5825833333365,
      "v": 127
    },
    {
      "midi": 59,
      "hit": false,
      "t": 119029.84581250347,
      "d": 193.0859166666778,
      "v": 83
    },
    {
      "midi": 59,
      "hit": false,
      "t": 119230.55354167015,
      "d": 238.81679166668619,
      "v": 82
    },
    {
      "midi": 56,
      "hit": false,
      "t": 119238.17535417015,
      "d": 238.81679166668619,
      "v": 81
    },
    {
      "midi": 52,
      "hit": false,
      "t": 119248.33777083682,
      "d": 223.5731666666834,
      "v": 55
    },
    {
      "midi": 40,
      "hit": false,
      "t": 119497.31697917017,
      "d": 442.0651250000228,
      "v": 73
    },
    {
      "midi": 47,
      "hit": false,
      "t": 119499.85758333684,
      "d": 467.47116666668444,
      "v": 76
    },
    {
      "midi": 52,
      "hit": false,
      "t": 119502.39818750351,
      "d": 444.60572916668025,
      "v": 80
    },
    {
      "midi": 56,
      "hit": false,
      "t": 119504.93879167018,
      "d": 436.98391666667885,
      "v": 122
    },
    {
      "midi": 59,
      "hit": false,
      "t": 119507.47939583685,
      "d": 452.2275416666671,
      "v": 126
    },
    {
      "midi": 40,
      "hit": false,
      "t": 119753.91800000002,
      "d": 217.22165624999616,
      "v": 127
    },
    {
      "midi": 40,
      "hit": false,
      "t": 119974.95056250352,
      "d": 231.19497916667024,
      "v": 79
    },
    {
      "midi": 47,
      "hit": false,
      "t": 119985.1129791702,
      "d": 208.32954166666605,
      "v": 73
    },
    {
      "midi": 52,
      "hit": false,
      "t": 119995.27539583687,
      "d": 193.08591666666325,
      "v": 67
    },
    {
      "midi": 35,
      "hit": false,
      "t": 119997.81600000002,
      "d": 224.84346874999756,
      "v": 127
    },
    {
      "midi": 56,
      "hit": false,
      "t": 120005.43781250354,
      "d": 436.98391666664975,
      "v": 90
    },
    {
      "midi": 59,
      "hit": false,
      "t": 120014.32992708687,
      "d": 452.2275416666671,
      "v": 83
    },
    {
      "midi": 52,
      "hit": false,
      "t": 120234.09218750353,
      "d": 193.08591666666325,
      "v": 58
    },
    {
      "midi": 40,
      "hit": false,
      "t": 120241.71400000002,
      "d": 279.46645833333605,
      "v": 127
    },
    {
      "midi": 47,
      "hit": false,
      "t": 120246.79520833686,
      "d": 193.08591666666325,
      "v": 59
    },
    {
      "midi": 40,
      "hit": false,
      "t": 120259.49822917019,
      "d": 193.0859166666778,
      "v": 60
    },
    {
      "midi": 40,
      "hit": false,
      "t": 120462.74656250354,
      "d": 452.2275416666962,
      "v": 73
    },
    {
      "midi": 47,
      "hit": false,
      "t": 120465.28716667021,
      "d": 452.2275416666962,
      "v": 76
    },
    {
      "midi": 52,
      "hit": false,
      "t": 120467.82777083687,
      "d": 208.3295416666806,
      "v": 80
    },
    {
      "midi": 56,
      "hit": false,
      "t": 120470.36837500354,
      "d": 215.951354166682,
      "v": 122
    },
    {
      "midi": 59,
      "hit": false,
      "t": 120472.90897917021,
      "d": 198.16712500000722,
      "v": 126
    },
    {
      "midi": 42,
      "hit": false,
      "t": 120485.61200000002,
      "d": 223.57316666666884,
      "v": 127
    },
    {
      "midi": 59,
      "hit": false,
      "t": 120704.10395833688,
      "d": 185.4641041666764,
      "v": 104
    },
    {
      "midi": 56,
      "hit": false,
      "t": 120714.26637500356,
      "d": 177.842291666675,
      "v": 98
    },
    {
      "midi": 61,
      "hit": false,
      "t": 120719.34758333332,
      "d": 73.67752083332743,
      "v": 127
    },
    {
      "midi": 52,
      "hit": false,
      "t": 120726.96939583689,
      "d": 193.08591666669236,
      "v": 62
    },
    {
      "midi": 40,
      "hit": false,
      "t": 120729.51000000002,
      "d": 215.95135416666744,
      "v": 127
    },
    {
      "midi": 64,
      "hit": false,
      "t": 120936.56923958317,
      "d": 3925.2334375000064,
      "v": 127
    },
    {
      "midi": 61,
      "hit": false,
      "t": 120939.10984374984,
      "d": 3915.071020833333,
      "v": 127
    },
    {
      "midi": 69,
      "hit": false,
      "t": 120940.38014583317,
      "d": 5815.442937500004,
      "v": 127
    },
    {
      "midi": 45,
      "hit": false,
      "t": 120940.38014583691,
      "d": 447.14633333338134,
      "v": 97
    },
    {
      "midi": 52,
      "hit": false,
      "t": 120950.54256250359,
      "d": 447.14633333338134,
      "v": 90
    },
    {
      "midi": 57,
      "hit": false,
      "t": 120960.70497917026,
      "d": 193.0859166666778,
      "v": 100
    },
    {
      "midi": 61,
      "hit": false,
      "t": 120963.24558333332,
      "d": 81.29933333332883,
      "v": 127
    },
    {
      "midi": 61,
      "hit": false,
      "t": 120970.86739583693,
      "d": 193.0859166666778,
      "v": 92
    },
    {
      "midi": 45,
      "hit": false,
      "t": 120973.40800000002,
      "d": 577.987447916661,
      "v": 127
    },
    {
      "midi": 64,
      "hit": false,
      "t": 120981.0298125036,
      "d": 193.0859166666778,
      "v": 83
    },
    {
      "midi": 64,
      "hit": false,
      "t": 121181.73754167029,
      "d": 238.81679166668619,
      "v": 82
    },
    {
      "midi": 61,
      "hit": false,
      "t": 121189.35935417029,
      "d": 238.81679166668619,
      "v": 81
    },
    {
      "midi": 57,
      "hit": false,
      "t": 121199.52177083696,
      "d": 223.5731666666834,
      "v": 80
    },
    {
      "midi": 61,
      "hit": false,
      "t": 121217.30599999998,
      "d": 77.48842708332813,
      "v": 127
    },
    {
      "midi": 45,
      "hit": false,
      "t": 121448.5009791703,
      "d": 442.0651250000228,
      "v": 88
    },
    {
      "midi": 52,
      "hit": false,
      "t": 121451.04158333698,
      "d": 467.47116666668444,
      "v": 92
    },
    {
      "midi": 57,
      "hit": false,
      "t": 121453.58218750365,
      "d": 444.60572916668025,
      "v": 117
    },
    {
      "midi": 61,
      "hit": false,
      "t": 121456.12279167032,
      "d": 436.98391666667885,
      "v": 122
    },
    {
      "midi": 64,
      "hit": false,
      "t": 121458.663395837,
      "d": 452.2275416666671,
      "v": 126
    },
    {
      "midi": 61,
      "hit": false,
      "t": 121461.20399999998,
      "d": 83.83993750000081,
      "v": 127
    },
    {
      "midi": 61,
      "hit": false,
      "t": 121705.10199999998,
      "d": 87.65084375000151,
      "v": 127
    },
    {
      "midi": 45,
      "hit": false,
      "t": 121705.10200000001,
      "d": 232.46528124999895,
      "v": 127
    },
    {
      "midi": 45,
      "hit": false,
      "t": 121926.13456250366,
      "d": 231.19497916667024,
      "v": 95
    },
    {
      "midi": 52,
      "hit": false,
      "t": 121936.29697917034,
      "d": 208.32954166666605,
      "v": 88
    },
    {
      "midi": 57,
      "hit": false,
      "t": 121946.45939583701,
      "d": 193.08591666666325,
      "v": 98
    },
    {
      "midi": 61,
      "hit": false,
      "t": 121948.99999999999,
      "d": 92.73205208333093,
      "v": 127
    },
    {
      "midi": 40,
      "hit": false,
      "t": 121949.00000000001,
      "d": 641.5025520833296,
      "v": 127
    },
    {
      "midi": 61,
      "hit": false,
      "t": 121956.62181250368,
      "d": 436.98391666664975,
      "v": 90
    },
    {
      "midi": 64,
      "hit": false,
      "t": 121965.51392708701,
      "d": 452.2275416666671,
      "v": 83
    },
    {
      "midi": 57,
      "hit": false,
      "t": 122185.27618750367,
      "d": 193.08591666666325,
      "v": 85
    },
    {
      "midi": 61,
      "hit": false,
      "t": 122192.89799999999,
      "d": 356.9548854166642,
      "v": 127
    },
    {
      "midi": 52,
      "hit": false,
      "t": 122197.979208337,
      "d": 193.08591666666325,
      "v": 71
    },
    {
      "midi": 45,
      "hit": false,
      "t": 122210.68222917033,
      "d": 193.0859166666778,
      "v": 72
    },
    {
      "midi": 45,
      "hit": false,
      "t": 122413.93056250368,
      "d": 452.2275416666962,
      "v": 88
    },
    {
      "midi": 52,
      "hit": false,
      "t": 122416.47116667035,
      "d": 452.2275416666962,
      "v": 92
    },
    {
      "midi": 57,
      "hit": false,
      "t": 122419.01177083701,
      "d": 208.3295416666806,
      "v": 117
    },
    {
      "midi": 61,
      "hit": false,
      "t": 122421.55237500368,
      "d": 215.951354166682,
      "v": 122
    },
    {
      "midi": 64,
      "hit": false,
      "t": 122424.09297917035,
      "d": 198.16712500000722,
      "v": 126
    },
    {
      "midi": 64,
      "hit": false,
      "t": 122655.28795833702,
      "d": 185.4641041666764,
      "v": 104
    },
    {
      "midi": 61,
      "hit": false,
      "t": 122665.4503750037,
      "d": 177.842291666675,
      "v": 98
    },
    {
      "midi": 57,
      "hit": false,
      "t": 122678.15339583703,
      "d": 193.08591666669236,
      "v": 90
    },
    {
      "midi": 61,
      "hit": false,
      "t": 122680.69399999999,
      "d": 81.29933333332883,
      "v": 127
    },
    {
      "midi": 40,
      "hit": false,
      "t": 122680.69400000002,
      "d": 224.84346874999756,
      "v": 127
    },
    {
      "midi": 73,
      "hit": false,
      "t": 122890.29384374984,
      "d": 1878.776781249995,
      "v": 127
    },
    {
      "midi": 45,
      "hit": false,
      "t": 122891.56414583705,
      "d": 447.14633333338134,
      "v": 97
    },
    {
      "midi": 52,
      "hit": false,
      "t": 122901.72656250373,
      "d": 447.14633333338134,
      "v": 90
    },
    {
      "midi": 57,
      "hit": false,
      "t": 122911.8889791704,
      "d": 193.0859166666778,
      "v": 100
    },
    {
      "midi": 61,
      "hit": false,
      "t": 122922.05139583707,
      "d": 193.0859166666778,
      "v": 92
    },
    {
      "midi": 61,
      "hit": false,
      "t": 122924.59199999999,
      "d": 76.21812499999942,
      "v": 127
    },
    {
      "midi": 45,
      "hit": false,
      "t": 122924.59200000002,
      "d": 590.6904687500064,
      "v": 127
    },
    {
      "midi": 64,
      "hit": false,
      "t": 122932.21381250375,
      "d": 193.0859166666778,
      "v": 83
    },
    {
      "midi": 64,
      "hit": false,
      "t": 123132.92154167042,
      "d": 238.81679166668619,
      "v": 82
    },
    {
      "midi": 61,
      "hit": false,
      "t": 123140.54335417043,
      "d": 238.81679166668619,
      "v": 81
    },
    {
      "midi": 57,
      "hit": false,
      "t": 123150.7057708371,
      "d": 223.5731666666834,
      "v": 80
    },
    {
      "midi": 61,
      "hit": false,
      "t": 123168.48999999999,
      "d": 73.67752083332743,
      "v": 127
    },
    {
      "midi": 45,
      "hit": false,
      "t": 123399.68497917044,
      "d": 442.0651250000228,
      "v": 88
    },
    {
      "midi": 52,
      "hit": false,
      "t": 123402.22558333712,
      "d": 467.47116666668444,
      "v": 92
    },
    {
      "midi": 57,
      "hit": false,
      "t": 123404.76618750379,
      "d": 444.60572916668025,
      "v": 117
    },
    {
      "midi": 61,
      "hit": false,
      "t": 123407.30679167046,
      "d": 436.98391666667885,
      "v": 122
    },
    {
      "midi": 64,
      "hit": false,
      "t": 123409.84739583713,
      "d": 452.2275416666671,
      "v": 126
    },
    {
      "midi": 61,
      "hit": false,
      "t": 123412.38799999999,
      "d": 74.9478229166707,
      "v": 127
    },
    {
      "midi": 61,
      "hit": false,
      "t": 123656.286,
      "d": 106.705375000005,
      "v": 127
    },
    {
      "midi": 45,
      "hit": false,
      "t": 123656.28600000002,
      "d": 240.08709375000035,
      "v": 127
    },
    {
      "midi": 45,
      "hit": false,
      "t": 123877.3185625038,
      "d": 231.19497916667024,
      "v": 95
    },
    {
      "midi": 52,
      "hit": false,
      "t": 123887.48097917048,
      "d": 208.32954166666605,
      "v": 88
    },
    {
      "midi": 57,
      "hit": false,
      "t": 123897.64339583715,
      "d": 193.08591666666325,
      "v": 98
    },
    {
      "midi": 59,
      "hit": false,
      "t": 123900.184,
      "d": 209.59984374999476,
      "v": 127
    },
    {
      "midi": 40,
      "hit": false,
      "t": 123900.18400000002,
      "d": 532.2565729166672,
      "v": 127
    },
    {
      "midi": 61,
      "hit": false,
      "t": 123907.80581250382,
      "d": 436.98391666664975,
      "v": 90
    },
    {
      "midi": 64,
      "hit": false,
      "t": 123916.69792708715,
      "d": 452.2275416666671,
      "v": 83
    },
    {
      "midi": 57,
      "hit": false,
      "t": 124136.4601875038,
      "d": 193.08591666666325,
      "v": 85
    },
    {
      "midi": 57,
      "hit": false,
      "t": 124144.082,
      "d": 365.8469999999943,
      "v": 127
    },
    {
      "midi": 52,
      "hit": false,
      "t": 124149.16320833714,
      "d": 193.08591666666325,
      "v": 71
    },
    {
      "midi": 45,
      "hit": false,
      "t": 124161.86622917047,
      "d": 193.0859166666778,
      "v": 72
    },
    {
      "midi": 45,
      "hit": false,
      "t": 124365.11456250382,
      "d": 452.2275416666962,
      "v": 88
    },
    {
      "midi": 52,
      "hit": false,
      "t": 124367.65516667049,
      "d": 452.2275416666962,
      "v": 92
    },
    {
      "midi": 57,
      "hit": false,
      "t": 124370.19577083715,
      "d": 208.3295416666806,
      "v": 117
    },
    {
      "midi": 61,
      "hit": false,
      "t": 124372.73637500382,
      "d": 215.951354166682,
      "v": 122
    },
    {
      "midi": 64,
      "hit": false,
      "t": 124375.27697917049,
      "d": 198.16712500000722,
      "v": 126
    },
    {
      "midi": 45,
      "hit": false,
      "t": 124387.98000000003,
      "d": 233.73558333332767,
      "v": 127
    },
    {
      "midi": 64,
      "hit": false,
      "t": 124606.47195833716,
      "d": 185.4641041666764,
      "v": 104
    },
    {
      "midi": 61,
      "hit": false,
      "t": 124616.63437500384,
      "d": 177.842291666675,
      "v": 98
    },
    {
      "midi": 57,
      "hit": false,
      "t": 124629.33739583717,
      "d": 193.08591666669236,
      "v": 90
    },
    {
      "midi": 61,
      "hit": false,
      "t": 124631.87799999998,
      "d": 110.5162812500057,
      "v": 127
    },
    {
      "midi": 40,
      "hit": false,
      "t": 124631.87800000003,
      "d": 221.03256249999686,
      "v": 127
    },
    {
      "midi": 74,
      "hit": false,
      "t": 124812.26089583317,
      "d": 1924.5076562500035,
      "v": 127
    },
    {
      "midi": 66,
      "hit": false,
      "t": 124822.42331249984,
      "d": 1914.34523958333,
      "v": 127
    },
    {
      "midi": 50,
      "hit": false,
      "t": 124842.74814583719,
      "d": 447.14633333338134,
      "v": 97
    },
    {
      "midi": 54,
      "hit": false,
      "t": 124852.91056250386,
      "d": 447.14633333338134,
      "v": 90
    },
    {
      "midi": 57,
      "hit": false,
      "t": 124863.07297917054,
      "d": 193.0859166666778,
      "v": 100
    },
    {
      "midi": 62,
      "hit": false,
      "t": 124873.23539583721,
      "d": 193.0859166666778,
      "v": 92
    },
    {
      "midi": 62,
      "hit": false,
      "t": 124875.77599999998,
      "d": 91.46175000000221,
      "v": 127
    },
    {
      "midi": 38,
      "hit": false,
      "t": 124875.77600000003,
      "d": 612.2856041666673,
      "v": 127
    },
    {
      "midi": 66,
      "hit": false,
      "t": 124883.39781250388,
      "d": 193.0859166666778,
      "v": 83
    },
    {
      "midi": 66,
      "hit": false,
      "t": 125084.10554167056,
      "d": 238.81679166668619,
      "v": 82
    },
    {
      "midi": 62,
      "hit": false,
      "t": 125091.72735417057,
      "d": 238.81679166668619,
      "v": 81
    },
    {
      "midi": 57,
      "hit": false,
      "t": 125101.88977083724,
      "d": 223.5731666666834,
      "v": 80
    },
    {
      "midi": 62,
      "hit": false,
      "t": 125119.67399999998,
      "d": 90.1914479166735,
      "v": 127
    },
    {
      "midi": 50,
      "hit": false,
      "t": 125350.86897917058,
      "d": 442.0651250000228,
      "v": 88
    },
    {
      "midi": 54,
      "hit": false,
      "t": 125353.40958333726,
      "d": 467.47116666668444,
      "v": 92
    },
    {
      "midi": 57,
      "hit": false,
      "t": 125355.95018750393,
      "d": 444.60572916668025,
      "v": 117
    },
    {
      "midi": 62,
      "hit": false,
      "t": 125358.4907916706,
      "d": 436.98391666667885,
      "v": 122
    },
    {
      "midi": 66,
      "hit": false,
      "t": 125361.03139583727,
      "d": 452.2275416666671,
      "v": 126
    },
    {
      "midi": 62,
      "hit": false,
      "t": 125363.57199999999,
      "d": 91.46175000000221,
      "v": 127
    },
    {
      "midi": 62,
      "hit": false,
      "t": 125607.46999999999,
      "d": 91.46175000000221,
      "v": 127
    },
    {
      "midi": 38,
      "hit": false,
      "t": 125607.47000000003,
      "d": 193.08591666666325,
      "v": 127
    },
    {
      "midi": 50,
      "hit": false,
      "t": 125828.50256250394,
      "d": 231.19497916667024,
      "v": 95
    },
    {
      "midi": 54,
      "hit": false,
      "t": 125838.66497917061,
      "d": 208.32954166666605,
      "v": 88
    },
    {
      "midi": 57,
      "hit": false,
      "t": 125848.82739583729,
      "d": 193.08591666666325,
      "v": 98
    },
    {
      "midi": 62,
      "hit": false,
      "t": 125851.36799999999,
      "d": 87.65084375000151,
      "v": 127
    },
    {
      "midi": 33,
      "hit": false,
      "t": 125851.36800000003,
      "d": 612.2856041666673,
      "v": 127
    },
    {
      "midi": 62,
      "hit": false,
      "t": 125858.98981250396,
      "d": 436.98391666664975,
      "v": 90
    },
    {
      "midi": 66,
      "hit": false,
      "t": 125867.88192708729,
      "d": 452.2275416666671,
      "v": 83
    },
    {
      "midi": 57,
      "hit": false,
      "t": 126087.64418750395,
      "d": 193.08591666666325,
      "v": 85
    },
    {
      "midi": 62,
      "hit": false,
      "t": 126095.26599999999,
      "d": 87.65084375000151,
      "v": 127
    },
    {
      "midi": 54,
      "hit": false,
      "t": 126100.34720833728,
      "d": 193.08591666666325,
      "v": 71
    },
    {
      "midi": 50,
      "hit": false,
      "t": 126113.0502291706,
      "d": 193.0859166666778,
      "v": 72
    },
    {
      "midi": 50,
      "hit": false,
      "t": 126316.29856250396,
      "d": 452.2275416666962,
      "v": 88
    },
    {
      "midi": 54,
      "hit": false,
      "t": 126318.83916667063,
      "d": 452.2275416666962,
      "v": 92
    },
    {
      "midi": 57,
      "hit": false,
      "t": 126321.37977083729,
      "d": 208.3295416666806,
      "v": 117
    },
    {
      "midi": 62,
      "hit": false,
      "t": 126323.92037500396,
      "d": 215.951354166682,
      "v": 122
    },
    {
      "midi": 66,
      "hit": false,
      "t": 126326.46097917063,
      "d": 198.16712500000722,
      "v": 126
    },
    {
      "midi": 62,
      "hit": false,
      "t": 126339.16399999999,
      "d": 82.5696354166721,
      "v": 127
    },
    {
      "midi": 66,
      "hit": false,
      "t": 126557.6559583373,
      "d": 185.4641041666764,
      "v": 104
    },
    {
      "midi": 62,
      "hit": false,
      "t": 126567.81837500398,
      "d": 177.842291666675,
      "v": 98
    },
    {
      "midi": 57,
      "hit": false,
      "t": 126580.5213958373,
      "d": 193.08591666669236,
      "v": 90
    },
    {
      "midi": 62,
      "hit": false,
      "t": 126583.06199999999,
      "d": 83.83993750000081,
      "v": 127
    },
    {
      "midi": 33,
      "hit": false,
      "t": 126583.06200000003,
      "d": 235.00588541667094,
      "v": 127
    },
    {
      "midi": 50,
      "hit": false,
      "t": 126793.93214583733,
      "d": 447.14633333338134,
      "v": 97
    },
    {
      "midi": 54,
      "hit": false,
      "t": 126804.094562504,
      "d": 447.14633333338134,
      "v": 90
    },
    {
      "midi": 69,
      "hit": false,
      "t": 126809.17577083317,
      "d": 1857.1816458333196,
      "v": 127
    },
    {
      "midi": 62,
      "hit": false,
      "t": 126810.4460729165,
      "d": 1888.9391979166685,
      "v": 127
    },
    {
      "midi": 66,
      "hit": false,
      "t": 126811.71637499983,
      "d": 1860.9925520833349,
      "v": 127
    },
    {
      "midi": 74,
      "hit": false,
      "t": 126812.98667708316,
      "d": 1488.794041666668,
      "v": 127
    },
    {
      "midi": 57,
      "hit": false,
      "t": 126814.25697917068,
      "d": 193.0859166666778,
      "v": 100
    },
    {
      "midi": 62,
      "hit": false,
      "t": 126824.41939583735,
      "d": 193.0859166666778,
      "v": 92
    },
    {
      "midi": 62,
      "hit": false,
      "t": 126826.95999999999,
      "d": 82.5696354166721,
      "v": 127
    },
    {
      "midi": 38,
      "hit": false,
      "t": 126826.96000000004,
      "d": 556.3923125000001,
      "v": 127
    },
    {
      "midi": 66,
      "hit": false,
      "t": 126834.58181250402,
      "d": 193.0859166666778,
      "v": 83
    },
    {
      "midi": 66,
      "hit": false,
      "t": 127035.2895416707,
      "d": 238.81679166668619,
      "v": 82
    },
    {
      "midi": 62,
      "hit": false,
      "t": 127042.9113541707,
      "d": 238.81679166668619,
      "v": 81
    },
    {
      "midi": 57,
      "hit": false,
      "t": 127053.07377083738,
      "d": 223.5731666666834,
      "v": 80
    },
    {
      "midi": 62,
      "hit": false,
      "t": 127070.858,
      "d": 80.02903125000012,
      "v": 127
    },
    {
      "midi": 50,
      "hit": false,
      "t": 127302.05297917072,
      "d": 442.0651250000228,
      "v": 88
    },
    {
      "midi": 54,
      "hit": false,
      "t": 127304.5935833374,
      "d": 467.47116666668444,
      "v": 92
    },
    {
      "midi": 57,
      "hit": false,
      "t": 127307.13418750407,
      "d": 444.60572916668025,
      "v": 117
    },
    {
      "midi": 62,
      "hit": false,
      "t": 127309.67479167074,
      "d": 436.98391666667885,
      "v": 122
    },
    {
      "midi": 66,
      "hit": false,
      "t": 127312.21539583741,
      "d": 452.2275416666671,
      "v": 126
    },
    {
      "midi": 62,
      "hit": false,
      "t": 127314.756,
      "d": 77.48842708332813,
      "v": 127
    },
    {
      "midi": 62,
      "hit": false,
      "t": 127558.654,
      "d": 82.5696354166721,
      "v": 127
    },
    {
      "midi": 38,
      "hit": false,
      "t": 127558.65400000004,
      "d": 201.97803124999336,
      "v": 127
    },
    {
      "midi": 50,
      "hit": false,
      "t": 127779.68656250408,
      "d": 231.19497916667024,
      "v": 95
    },
    {
      "midi": 54,
      "hit": false,
      "t": 127789.84897917075,
      "d": 208.32954166666605,
      "v": 88
    },
    {
      "midi": 57,
      "hit": false,
      "t": 127800.01139583743,
      "d": 193.08591666666325,
      "v": 98
    },
    {
      "midi": 62,
      "hit": false,
      "t": 127802.552,
      "d": 377.2797187499964,
      "v": 127
    },
    {
      "midi": 33,
      "hit": false,
      "t": 127802.55200000003,
      "d": 508.1208333333343,
      "v": 127
    },
    {
      "midi": 62,
      "hit": false,
      "t": 127810.1738125041,
      "d": 436.98391666664975,
      "v": 90
    },
    {
      "midi": 66,
      "hit": false,
      "t": 127819.06592708743,
      "d": 452.2275416666671,
      "v": 83
    },
    {
      "midi": 57,
      "hit": false,
      "t": 128038.82818750408,
      "d": 193.08591666666325,
      "v": 85
    },
    {
      "midi": 54,
      "hit": false,
      "t": 128051.53120833742,
      "d": 193.08591666666325,
      "v": 71
    },
    {
      "midi": 50,
      "hit": false,
      "t": 128064.23422917075,
      "d": 193.0859166666778,
      "v": 72
    },
    {
      "midi": 50,
      "hit": false,
      "t": 128267.4825625041,
      "d": 452.2275416666962,
      "v": 88
    },
    {
      "midi": 54,
      "hit": false,
      "t": 128270.02316667077,
      "d": 452.2275416666962,
      "v": 92
    },
    {
      "midi": 57,
      "hit": false,
      "t": 128272.56377083743,
      "d": 208.3295416666806,
      "v": 117
    },
    {
      "midi": 73,
      "hit": false,
      "t": 128275.10437499982,
      "d": 388.7124374999985,
      "v": 127
    },
    {
      "midi": 62,
      "hit": false,
      "t": 128275.1043750041,
      "d": 215.951354166682,
      "v": 122
    },
    {
      "midi": 66,
      "hit": false,
      "t": 128277.64497917077,
      "d": 198.16712500000722,
      "v": 126
    },
    {
      "midi": 61,
      "hit": false,
      "t": 128290.348,
      "d": 113.05688541666314,
      "v": 127
    },
    {
      "midi": 38,
      "hit": false,
      "t": 128290.34800000003,
      "d": 223.57316666666884,
      "v": 127
    },
    {
      "midi": 66,
      "hit": false,
      "t": 128508.83995833744,
      "d": 185.4641041666764,
      "v": 104
    },
    {
      "midi": 62,
      "hit": false,
      "t": 128519.00237500411,
      "d": 177.842291666675,
      "v": 98
    },
    {
      "midi": 57,
      "hit": false,
      "t": 128531.70539583745,
      "d": 193.08591666669236,
      "v": 90
    },
    {
      "midi": 62,
      "hit": false,
      "t": 128534.246,
      "d": 92.73205208333093,
      "v": 120
    },
    {
      "midi": 39,
      "hit": false,
      "t": 128534.24600000003,
      "d": 241.35739583332906,
      "v": 127
    },
    {
      "midi": 68,
      "hit": false,
      "t": 128734.9537291665,
      "d": 1918.1561458333308,
      "v": 127
    },
    {
      "midi": 40,
      "hit": false,
      "t": 128745.11614583747,
      "d": 447.14633333338134,
      "v": 80
    },
    {
      "midi": 64,
      "hit": false,
      "t": 128747.65674999983,
      "d": 1916.885843750002,
      "v": 127
    },
    {
      "midi": 71,
      "hit": false,
      "t": 128750.1973541665,
      "d": 1902.912520833328,
      "v": 127
    },
    {
      "midi": 47,
      "hit": false,
      "t": 128755.27856250414,
      "d": 447.14633333338134,
      "v": 90
    },
    {
      "midi": 52,
      "hit": false,
      "t": 128765.44097917082,
      "d": 193.0859166666778,
      "v": 83
    },
    {
      "midi": 56,
      "hit": false,
      "t": 128775.60339583749,
      "d": 193.0859166666778,
      "v": 92
    },
    {
      "midi": 64,
      "hit": false,
      "t": 128778.144,
      "d": 87.65084375000151,
      "v": 127
    },
    {
      "midi": 40,
      "hit": false,
      "t": 128778.14400000003,
      "d": 566.5547291666735,
      "v": 127
    },
    {
      "midi": 59,
      "hit": false,
      "t": 128785.76581250416,
      "d": 193.0859166666778,
      "v": 83
    },
    {
      "midi": 59,
      "hit": false,
      "t": 128986.47354167084,
      "d": 238.81679166668619,
      "v": 82
    },
    {
      "midi": 56,
      "hit": false,
      "t": 128994.09535417084,
      "d": 238.81679166668619,
      "v": 81
    },
    {
      "midi": 52,
      "hit": false,
      "t": 129004.25777083752,
      "d": 223.5731666666834,
      "v": 66
    },
    {
      "midi": 64,
      "hit": false,
      "t": 129022.042,
      "d": 83.83993750000081,
      "v": 127
    },
    {
      "midi": 40,
      "hit": false,
      "t": 129253.23697917086,
      "d": 442.0651250000228,
      "v": 73
    },
    {
      "midi": 47,
      "hit": false,
      "t": 129255.77758333753,
      "d": 467.47116666668444,
      "v": 92
    },
    {
      "midi": 52,
      "hit": false,
      "t": 129258.3181875042,
      "d": 444.60572916668025,
      "v": 97
    },
    {
      "midi": 56,
      "hit": false,
      "t": 129260.85879167088,
      "d": 436.98391666667885,
      "v": 122
    },
    {
      "midi": 59,
      "hit": false,
      "t": 129263.39939583755,
      "d": 452.2275416666671,
      "v": 126
    },
    {
      "midi": 64,
      "hit": false,
      "t": 129265.94,
      "d": 299.79129166666826,
      "v": 127
    },
    {
      "midi": 40,
      "hit": false,
      "t": 129509.83800000003,
      "d": 219.76226041666814,
      "v": 127
    },
    {
      "midi": 40,
      "hit": false,
      "t": 129730.87056250422,
      "d": 231.19497916667024,
      "v": 79
    },
    {
      "midi": 47,
      "hit": false,
      "t": 129741.0329791709,
      "d": 208.32954166666605,
      "v": 88
    },
    {
      "midi": 52,
      "hit": false,
      "t": 129751.19539583757,
      "d": 193.08591666666325,
      "v": 81
    },
    {
      "midi": 64,
      "hit": false,
      "t": 129753.736,
      "d": 86.3805416666728,
      "v": 127
    },
    {
      "midi": 35,
      "hit": false,
      "t": 129753.73600000003,
      "d": 457.3087499999965,
      "v": 127
    },
    {
      "midi": 56,
      "hit": false,
      "t": 129761.35781250424,
      "d": 436.98391666664975,
      "v": 90
    },
    {
      "midi": 59,
      "hit": false,
      "t": 129770.24992708757,
      "d": 452.2275416666671,
      "v": 83
    },
    {
      "midi": 52,
      "hit": false,
      "t": 129990.01218750422,
      "d": 193.08591666666325,
      "v": 70
    },
    {
      "midi": 64,
      "hit": false,
      "t": 129997.634,
      "d": 101.62416666666104,
      "v": 127
    },
    {
      "midi": 47,
      "hit": false,
      "t": 130002.71520833755,
      "d": 193.08591666666325,
      "v": 71
    },
    {
      "midi": 40,
      "hit": false,
      "t": 130015.41822917089,
      "d": 193.0859166666778,
      "v": 60
    },
    {
      "midi": 40,
      "hit": false,
      "t": 130218.66656250424,
      "d": 452.2275416666962,
      "v": 73
    },
    {
      "midi": 47,
      "hit": false,
      "t": 130221.20716667091,
      "d": 452.2275416666962,
      "v": 92
    },
    {
      "midi": 52,
      "hit": false,
      "t": 130223.74777083757,
      "d": 208.3295416666806,
      "v": 97
    },
    {
      "midi": 56,
      "hit": false,
      "t": 130226.28837500424,
      "d": 215.951354166682,
      "v": 122
    },
    {
      "midi": 59,
      "hit": false,
      "t": 130228.82897917091,
      "d": 198.16712500000722,
      "v": 126
    },
    {
      "midi": 64,
      "hit": false,
      "t": 130241.532,
      "d": 359.49548958333617,
      "v": 127
    },
    {
      "midi": 40,
      "hit": false,
      "t": 130241.53200000004,
      "d": 213.41074999999546,
      "v": 127
    },
    {
      "midi": 62,
      "hit": false,
      "t": 130355.85918749984,
      "d": 80.02903125000012,
      "v": 127
    },
    {
      "midi": 59,
      "hit": false,
      "t": 130460.02395833758,
      "d": 185.4641041666764,
      "v": 104
    },
    {
      "midi": 56,
      "hit": false,
      "t": 130470.18637500425,
      "d": 177.842291666675,
      "v": 98
    },
    {
      "midi": 52,
      "hit": false,
      "t": 130482.88939583758,
      "d": 193.08591666669236,
      "v": 75
    },
    {
      "midi": 39,
      "hit": false,
      "t": 130485.43000000004,
      "d": 222.30286458334012,
      "v": 127
    },
    {
      "midi": 50,
      "hit": false,
      "t": 130696.30014583761,
      "d": 447.14633333338134,
      "v": 97
    },
    {
      "midi": 54,
      "hit": false,
      "t": 130706.46256250428,
      "d": 447.1463333333668,
      "v": 90
    },
    {
      "midi": 57,
      "hit": false,
      "t": 130716.62497917096,
      "d": 193.0859166666778,
      "v": 100
    },
    {
      "midi": 62,
      "hit": false,
      "t": 130726.78739583763,
      "d": 193.0859166666778,
      "v": 92
    },
    {
      "midi": 62,
      "hit": false,
      "t": 130729.32800000001,
      "d": 88.92114583333023,
      "v": 127
    },
    {
      "midi": 38,
      "hit": false,
      "t": 130729.32800000004,
      "d": 584.3389583333337,
      "v": 127
    },
    {
      "midi": 62,
      "hit": false,
      "t": 130733.13890624983,
      "d": 1840.6677187499881,
      "v": 127
    },
    {
      "midi": 69,
      "hit": false,
      "t": 130734.40920833316,
      "d": 1788.5853333333362,
      "v": 127
    },
    {
      "midi": 66,
      "hit": false,
      "t": 130734.40920833316,
      "d": 1791.1259374999936,
      "v": 127
    },
    {
      "midi": 66,
      "hit": false,
      "t": 130736.9498125043,
      "d": 193.0859166666778,
      "v": 83
    },
    {
      "midi": 64,
      "hit": false,
      "t": 130758.5449479165,
      "d": 16.51392708333151,
      "v": 127
    },
    {
      "midi": 66,
      "hit": false,
      "t": 130937.65754167098,
      "d": 238.81679166667163,
      "v": 82
    },
    {
      "midi": 62,
      "hit": false,
      "t": 130945.27935417098,
      "d": 238.81679166667163,
      "v": 81
    },
    {
      "midi": 57,
      "hit": false,
      "t": 130955.44177083766,
      "d": 223.5731666666543,
      "v": 80
    },
    {
      "midi": 62,
      "hit": false,
      "t": 130973.22600000001,
      "d": 87.65084375000151,
      "v": 127
    },
    {
      "midi": 50,
      "hit": false,
      "t": 131204.420979171,
      "d": 442.0651249999646,
      "v": 88
    },
    {
      "midi": 54,
      "hit": false,
      "t": 131206.96158333766,
      "d": 467.47116666665534,
      "v": 92
    },
    {
      "midi": 57,
      "hit": false,
      "t": 131209.50218750432,
      "d": 444.60572916665114,
      "v": 117
    },
    {
      "midi": 62,
      "hit": false,
      "t": 131212.04279167097,
      "d": 436.98391666664975,
      "v": 122
    },
    {
      "midi": 66,
      "hit": false,
      "t": 131214.58339583763,
      "d": 452.22754166668165,
      "v": 126
    },
    {
      "midi": 62,
      "hit": false,
      "t": 131217.124,
      "d": 257.8713229166751,
      "v": 127
    },
    {
      "midi": 38,
      "hit": false,
      "t": 131461.02200000003,
      "d": 224.8434687500121,
      "v": 127
    },
    {
      "midi": 50,
      "hit": false,
      "t": 131682.05456250432,
      "d": 231.19497916667024,
      "v": 95
    },
    {
      "midi": 54,
      "hit": false,
      "t": 131692.21697917097,
      "d": 208.32954166666605,
      "v": 88
    },
    {
      "midi": 57,
      "hit": false,
      "t": 131702.37939583763,
      "d": 193.08591666666325,
      "v": 98
    },
    {
      "midi": 61,
      "hit": false,
      "t": 131704.92,
      "d": 571.6359374999884,
      "v": 127
    },
    {
      "midi": 33,
      "hit": false,
      "t": 131704.92000000004,
      "d": 417.92938541667536,
      "v": 127
    },
    {
      "midi": 62,
      "hit": false,
      "t": 131712.5418125043,
      "d": 436.98391666670796,
      "v": 90
    },
    {
      "midi": 66,
      "hit": false,
      "t": 131721.43392708764,
      "d": 452.22754166668165,
      "v": 83
    },
    {
      "midi": 57,
      "hit": false,
      "t": 131941.1961875043,
      "d": 193.08591666669236,
      "v": 85
    },
    {
      "midi": 54,
      "hit": false,
      "t": 131953.89920833765,
      "d": 193.08591666669236,
      "v": 71
    },
    {
      "midi": 50,
      "hit": false,
      "t": 131966.602229171,
      "d": 193.08591666666325,
      "v": 72
    },
    {
      "midi": 50,
      "hit": false,
      "t": 132169.85056250432,
      "d": 452.22754166665254,
      "v": 88
    },
    {
      "midi": 54,
      "hit": false,
      "t": 132172.39116667098,
      "d": 452.22754166665254,
      "v": 92
    },
    {
      "midi": 57,
      "hit": false,
      "t": 132174.93177083766,
      "d": 208.32954166666605,
      "v": 117
    },
    {
      "midi": 62,
      "hit": false,
      "t": 132177.47237500432,
      "d": 215.95135416666744,
      "v": 122
    },
    {
      "midi": 66,
      "hit": false,
      "t": 132180.01297917098,
      "d": 198.16712500000722,
      "v": 126
    },
    {
      "midi": 66,
      "hit": false,
      "t": 132411.20795833765,
      "d": 185.46410416666185,
      "v": 104
    },
    {
      "midi": 62,
      "hit": false,
      "t": 132421.3703750043,
      "d": 177.84229166666046,
      "v": 98
    },
    {
      "midi": 57,
      "hit": false,
      "t": 132434.07339583765,
      "d": 193.08591666663415,
      "v": 90
    },
    {
      "midi": 59,
      "hit": false,
      "t": 132436.614,
      "d": 82.5696354166721,
      "v": 127
    },
    {
      "midi": 33,
      "hit": false,
      "t": 132436.61400000006,
      "d": 274.3852499999921,
      "v": 127
    },
    {
      "midi": 64,
      "hit": false,
      "t": 132603.02357291649,
      "d": 3159.241281250026,
      "v": 127
    },
    {
      "midi": 69,
      "hit": false,
      "t": 132604.29387499983,
      "d": 2741.3118958333507,
      "v": 127
    },
    {
      "midi": 67,
      "hit": false,
      "t": 132608.10478124983,
      "d": 106.70537500001956,
      "v": 127
    },
    {
      "midi": 61,
      "hit": false,
      "t": 132609.37508333317,
      "d": 3375.1926354166644,
      "v": 127
    },
    {
      "midi": 45,
      "hit": false,
      "t": 132647.48414583763,
      "d": 447.1463333332795,
      "v": 97
    },
    {
      "midi": 52,
      "hit": false,
      "t": 132657.6465625043,
      "d": 447.1463333332795,
      "v": 90
    },
    {
      "midi": 57,
      "hit": false,
      "t": 132667.80897917095,
      "d": 193.08591666666325,
      "v": 100
    },
    {
      "midi": 61,
      "hit": false,
      "t": 132677.9713958376,
      "d": 193.08591666666325,
      "v": 92
    },
    {
      "midi": 59,
      "hit": false,
      "t": 132680.51200000002,
      "d": 223.57316666666884,
      "v": 127
    },
    {
      "midi": 45,
      "hit": false,
      "t": 132680.51200000005,
      "d": 635.1510416666861,
      "v": 127
    },
    {
      "midi": 64,
      "hit": false,
      "t": 132688.13381250427,
      "d": 193.08591666666325,
      "v": 83
    },
    {
      "midi": 64,
      "hit": false,
      "t": 132888.84154167093,
      "d": 238.81679166664253,
      "v": 82
    },
    {
      "midi": 61,
      "hit": false,
      "t": 132896.46335417093,
      "d": 238.81679166664253,
      "v": 81
    },
    {
      "midi": 57,
      "hit": false,
      "t": 132906.6257708376,
      "d": 223.57316666663974,
      "v": 80
    },
    {
      "midi": 57,
      "hit": false,
      "t": 132924.41000000003,
      "d": 208.32954166666605,
      "v": 127
    },
    {
      "midi": 45,
      "hit": false,
      "t": 133155.60497917092,
      "d": 442.0651249999646,
      "v": 88
    },
    {
      "midi": 52,
      "hit": false,
      "t": 133158.14558333758,
      "d": 467.47116666665534,
      "v": 92
    },
    {
      "midi": 57,
      "hit": false,
      "t": 133160.68618750424,
      "d": 444.60572916665114,
      "v": 117
    },
    {
      "midi": 61,
      "hit": false,
      "t": 133163.2267916709,
      "d": 436.98391666664975,
      "v": 122
    },
    {
      "midi": 64,
      "hit": false,
      "t": 133165.76739583755,
      "d": 452.22754166668165,
      "v": 126
    },
    {
      "midi": 45,
      "hit": false,
      "t": 133412.20600000006,
      "d": 215.95135416666744,
      "v": 127
    },
    {
      "midi": 45,
      "hit": false,
      "t": 133633.23856250424,
      "d": 231.19497916667024,
      "v": 95
    },
    {
      "midi": 52,
      "hit": false,
      "t": 133643.4009791709,
      "d": 208.32954166666605,
      "v": 88
    },
    {
      "midi": 57,
      "hit": false,
      "t": 133653.56339583755,
      "d": 193.08591666666325,
      "v": 98
    },
    {
      "midi": 40,
      "hit": false,
      "t": 133656.10400000005,
      "d": 548.7705000000133,
      "v": 127
    },
    {
      "midi": 61,
      "hit": false,
      "t": 133663.7258125042,
      "d": 436.98391666670796,
      "v": 90
    },
    {
      "midi": 64,
      "hit": false,
      "t": 133672.61792708756,
      "d": 452.22754166668165,
      "v": 83
    },
    {
      "midi": 57,
      "hit": false,
      "t": 133892.38018750423,
      "d": 193.08591666669236,
      "v": 85
    },
    {
      "midi": 52,
      "hit": false,
      "t": 133905.08320833757,
      "d": 193.08591666669236,
      "v": 71
    },
    {
      "midi": 45,
      "hit": false,
      "t": 133917.78622917092,
      "d": 193.08591666666325,
      "v": 72
    },
    {
      "midi": 45,
      "hit": false,
      "t": 134121.03456250424,
      "d": 452.22754166665254,
      "v": 88
    },
    {
      "midi": 52,
      "hit": false,
      "t": 134123.5751666709,
      "d": 452.22754166665254,
      "v": 92
    },
    {
      "midi": 57,
      "hit": false,
      "t": 134126.11577083758,
      "d": 208.32954166666605,
      "v": 117
    },
    {
      "midi": 61,
      "hit": false,
      "t": 134128.65637500424,
      "d": 215.95135416666744,
      "v": 122
    },
    {
      "midi": 64,
      "hit": false,
      "t": 134131.1969791709,
      "d": 198.16712500000722,
      "v": 126
    },
    {
      "midi": 64,
      "hit": false,
      "t": 134362.39195833757,
      "d": 185.46410416666185,
      "v": 104
    },
    {
      "midi": 61,
      "hit": false,
      "t": 134372.55437500423,
      "d": 177.84229166666046,
      "v": 98
    },
    {
      "midi": 57,
      "hit": false,
      "t": 134385.25739583757,
      "d": 193.08591666663415,
      "v": 90
    },
    {
      "midi": 40,
      "hit": false,
      "t": 134387.79800000007,
      "d": 226.11377083332627,
      "v": 127
    },
    {
      "midi": 45,
      "hit": false,
      "t": 134598.66814583755,
      "d": 447.1463333332795,
      "v": 97
    },
    {
      "midi": 52,
      "hit": false,
      "t": 134608.8305625042,
      "d": 447.1463333332795,
      "v": 90
    },
    {
      "midi": 57,
      "hit": false,
      "t": 134618.99297917087,
      "d": 193.08591666666325,
      "v": 100
    },
    {
      "midi": 61,
      "hit": false,
      "t": 134629.15539583753,
      "d": 193.08591666666325,
      "v": 92
    },
    {
      "midi": 45,
      "hit": false,
      "t": 134631.69600000005,
      "d": 599.5825833333365,
      "v": 127
    },
    {
      "midi": 64,
      "hit": false,
      "t": 134639.3178125042,
      "d": 193.08591666666325,
      "v": 83
    },
    {
      "midi": 64,
      "hit": false,
      "t": 134840.02554167085,
      "d": 238.81679166664253,
      "v": 82
    },
    {
      "midi": 61,
      "hit": false,
      "t": 134847.64735417085,
      "d": 238.81679166664253,
      "v": 81
    },
    {
      "midi": 57,
      "hit": false,
      "t": 134857.8097708375,
      "d": 223.57316666663974,
      "v": 80
    },
    {
      "midi": 57,
      "hit": false,
      "t": 134948.00121874985,
      "d": 1177.570031249983,
      "v": 127
    },
    {
      "midi": 45,
      "hit": false,
      "t": 135106.78897917084,
      "d": 442.0651249999646,
      "v": 88
    },
    {
      "midi": 52,
      "hit": false,
      "t": 135109.3295833375,
      "d": 467.47116666665534,
      "v": 92
    },
    {
      "midi": 57,
      "hit": false,
      "t": 135111.87018750416,
      "d": 444.60572916665114,
      "v": 117
    },
    {
      "midi": 61,
      "hit": false,
      "t": 135114.41079167082,
      "d": 436.98391666664975,
      "v": 122
    },
    {
      "midi": 64,
      "hit": false,
      "t": 135116.95139583747,
      "d": 452.22754166668165,
      "v": 126
    },
    {
      "midi": 45,
      "hit": false,
      "t": 135363.39000000007,
      "d": 217.2216562500107,
      "v": 127
    },
    {
      "midi": 45,
      "hit": false,
      "t": 135584.42256250416,
      "d": 231.19497916667024,
      "v": 95
    },
    {
      "midi": 52,
      "hit": false,
      "t": 135594.58497917082,
      "d": 208.32954166666605,
      "v": 88
    },
    {
      "midi": 57,
      "hit": false,
      "t": 135604.74739583748,
      "d": 193.08591666666325,
      "v": 98
    },
    {
      "midi": 40,
      "hit": false,
      "t": 135607.2880000001,
      "d": 224.8434687500121,
      "v": 127
    },
    {
      "midi": 61,
      "hit": false,
      "t": 135614.90981250413,
      "d": 436.98391666670796,
      "v": 90
    },
    {
      "midi": 64,
      "hit": false,
      "t": 135623.80192708748,
      "d": 452.22754166668165,
      "v": 83
    },
    {
      "midi": 57,
      "hit": false,
      "t": 135843.56418750415,
      "d": 193.08591666669236,
      "v": 85
    },
    {
      "midi": 37,
      "hit": false,
      "t": 135851.1860000001,
      "d": 91.46174999998766,
      "v": 127
    },
    {
      "midi": 52,
      "hit": false,
      "t": 135856.2672083375,
      "d": 193.08591666669236,
      "v": 71
    },
    {
      "midi": 45,
      "hit": false,
      "t": 135868.97022917084,
      "d": 193.08591666666325,
      "v": 72
    },
    {
      "midi": 45,
      "hit": false,
      "t": 136072.21856250416,
      "d": 452.22754166665254,
      "v": 88
    },
    {
      "midi": 52,
      "hit": false,
      "t": 136074.75916667082,
      "d": 452.22754166665254,
      "v": 92
    },
    {
      "midi": 57,
      "hit": false,
      "t": 136077.2997708375,
      "d": 208.32954166666605,
      "v": 117
    },
    {
      "midi": 61,
      "hit": false,
      "t": 136079.84037500416,
      "d": 215.95135416666744,
      "v": 122
    },
    {
      "midi": 64,
      "hit": false,
      "t": 136082.38097917082,
      "d": 198.16712500000722,
      "v": 126
    },
    {
      "midi": 35,
      "hit": false,
      "t": 136095.0840000001,
      "d": 487.7960000000021,
      "v": 127
    },
    {
      "midi": 64,
      "hit": false,
      "t": 136313.5759583375,
      "d": 185.46410416666185,
      "v": 104
    },
    {
      "midi": 61,
      "hit": false,
      "t": 136323.73837500415,
      "d": 177.84229166666046,
      "v": 98
    },
    {
      "midi": 57,
      "hit": false,
      "t": 136336.4413958375,
      "d": 193.08591666663415,
      "v": 90
    },
    {
      "midi": 45,
      "hit": false,
      "t": 136549.85214583747,
      "d": 447.1463333332795,
      "v": 97
    },
    {
      "midi": 52,
      "hit": false,
      "t": 136560.01456250413,
      "d": 447.1463333332795,
      "v": 90
    },
    {
      "midi": 57,
      "hit": false,
      "t": 136570.1769791708,
      "d": 193.08591666666325,
      "v": 100
    },
    {
      "midi": 61,
      "hit": false,
      "t": 136580.33939583745,
      "d": 193.08591666666325,
      "v": 92
    },
    {
      "midi": 45,
      "hit": false,
      "t": 136582.8800000001,
      "d": 577.9874479166756,
      "v": 127
    },
    {
      "midi": 64,
      "hit": false,
      "t": 136590.5018125041,
      "d": 193.08591666666325,
      "v": 83
    },
    {
      "midi": 64,
      "hit": false,
      "t": 136791.20954167077,
      "d": 238.81679166664253,
      "v": 82
    },
    {
      "midi": 61,
      "hit": false,
      "t": 136798.83135417078,
      "d": 238.81679166664253,
      "v": 81
    },
    {
      "midi": 57,
      "hit": false,
      "t": 136808.99377083743,
      "d": 223.57316666663974,
      "v": 80
    },
    {
      "midi": 45,
      "hit": false,
      "t": 137057.97297917077,
      "d": 442.0651249999646,
      "v": 88
    },
    {
      "midi": 52,
      "hit": false,
      "t": 137060.51358333742,
      "d": 467.47116666665534,
      "v": 92
    },
    {
      "midi": 57,
      "hit": false,
      "t": 137063.05418750408,
      "d": 444.60572916665114,
      "v": 117
    },
    {
      "midi": 61,
      "hit": false,
      "t": 137065.59479167074,
      "d": 436.98391666664975,
      "v": 122
    },
    {
      "midi": 64,
      "hit": false,
      "t": 137068.1353958374,
      "d": 452.22754166668165,
      "v": 126
    },
    {
      "midi": 64,
      "hit": false,
      "t": 137070.67600000004,
      "d": 125.75990624999395,
      "v": 127
    },
    {
      "midi": 64,
      "hit": false,
      "t": 137314.57400000002,
      "d": 168.9501770833449,
      "v": 127
    },
    {
      "midi": 45,
      "hit": false,
      "t": 137314.5740000001,
      "d": 232.4652812500135,
      "v": 127
    },
    {
      "midi": 45,
      "hit": false,
      "t": 137535.60656250408,
      "d": 231.19497916667024,
      "v": 95
    },
    {
      "midi": 52,
      "hit": false,
      "t": 137545.76897917074,
      "d": 208.32954166666605,
      "v": 88
    },
    {
      "midi": 57,
      "hit": false,
      "t": 137555.9313958374,
      "d": 193.08591666666325,
      "v": 98
    },
    {
      "midi": 62,
      "hit": false,
      "t": 137558.47200000004,
      "d": 734.234604166646,
      "v": 127
    },
    {
      "midi": 40,
      "hit": false,
      "t": 137558.47200000013,
      "d": 641.5025520833442,
      "v": 127
    },
    {
      "midi": 61,
      "hit": false,
      "t": 137566.09381250406,
      "d": 436.98391666670796,
      "v": 90
    },
    {
      "midi": 64,
      "hit": false,
      "t": 137574.9859270874,
      "d": 452.22754166668165,
      "v": 83
    },
    {
      "midi": 57,
      "hit": false,
      "t": 137794.74818750407,
      "d": 193.08591666669236,
      "v": 85
    },
    {
      "midi": 52,
      "hit": false,
      "t": 137807.4512083374,
      "d": 193.08591666669236,
      "v": 71
    },
    {
      "midi": 45,
      "hit": false,
      "t": 137820.15422917076,
      "d": 193.08591666666325,
      "v": 72
    },
    {
      "midi": 45,
      "hit": false,
      "t": 138023.40256250408,
      "d": 452.22754166665254,
      "v": 88
    },
    {
      "midi": 52,
      "hit": false,
      "t": 138025.94316667074,
      "d": 452.22754166665254,
      "v": 92
    },
    {
      "midi": 57,
      "hit": false,
      "t": 138028.48377083743,
      "d": 208.32954166666605,
      "v": 117
    },
    {
      "midi": 61,
      "hit": false,
      "t": 138031.02437500408,
      "d": 215.95135416666744,
      "v": 122
    },
    {
      "midi": 64,
      "hit": false,
      "t": 138033.56497917074,
      "d": 198.16712500000722,
      "v": 126
    },
    {
      "midi": 64,
      "hit": false,
      "t": 138264.7599583374,
      "d": 185.46410416666185,
      "v": 104
    },
    {
      "midi": 61,
      "hit": false,
      "t": 138274.92237500407,
      "d": 177.84229166666046,
      "v": 98
    },
    {
      "midi": 57,
      "hit": false,
      "t": 138287.6253958374,
      "d": 193.08591666663415,
      "v": 90
    },
    {
      "midi": 61,
      "hit": false,
      "t": 138290.16600000003,
      "d": 196.89682291666395,
      "v": 127
    },
    {
      "midi": 40,
      "hit": false,
      "t": 138290.16600000014,
      "d": 224.8434687500121,
      "v": 127
    },
    {
      "midi": 45,
      "hit": false,
      "t": 138501.0361458374,
      "d": 447.1463333332795,
      "v": 97
    },
    {
      "midi": 52,
      "hit": false,
      "t": 138511.19856250405,
      "d": 447.1463333332795,
      "v": 90
    },
    {
      "midi": 57,
      "hit": false,
      "t": 138521.3609791707,
      "d": 193.08591666666325,
      "v": 100
    },
    {
      "midi": 61,
      "hit": false,
      "t": 138531.52339583737,
      "d": 193.08591666666325,
      "v": 92
    },
    {
      "midi": 62,
      "hit": false,
      "t": 138534.064,
      "d": 193.08591666666325,
      "v": 127
    },
    {
      "midi": 45,
      "hit": false,
      "t": 138534.06400000016,
      "d": 590.6904687499919,
      "v": 127
    },
    {
      "midi": 64,
      "hit": false,
      "t": 138541.68581250403,
      "d": 193.08591666666325,
      "v": 83
    },
    {
      "midi": 64,
      "hit": false,
      "t": 138742.3935416707,
      "d": 238.81679166664253,
      "v": 82
    },
    {
      "midi": 61,
      "hit": false,
      "t": 138750.0153541707,
      "d": 238.81679166664253,
      "v": 81
    },
    {
      "midi": 57,
      "hit": false,
      "t": 138760.17777083736,
      "d": 223.57316666663974,
      "v": 80
    },
    {
      "midi": 61,
      "hit": false,
      "t": 138777.962,
      "d": 111.78658333333442,
      "v": 127
    },
    {
      "midi": 45,
      "hit": false,
      "t": 139009.1569791707,
      "d": 442.0651249999646,
      "v": 88
    },
    {
      "midi": 52,
      "hit": false,
      "t": 139011.69758333734,
      "d": 467.47116666665534,
      "v": 92
    },
    {
      "midi": 57,
      "hit": false,
      "t": 139014.238187504,
      "d": 444.60572916665114,
      "v": 117
    },
    {
      "midi": 61,
      "hit": false,
      "t": 139016.77879167066,
      "d": 436.98391666664975,
      "v": 122
    },
    {
      "midi": 64,
      "hit": false,
      "t": 139019.31939583732,
      "d": 452.22754166668165,
      "v": 126
    },
    {
      "midi": 61,
      "hit": false,
      "t": 139021.86000000002,
      "d": 125.75990624999395,
      "v": 127
    },
    {
      "midi": 59,
      "hit": false,
      "t": 139265.758,
      "d": 471.28207291665603,
      "v": 127
    },
    {
      "midi": 45,
      "hit": false,
      "t": 139265.75800000015,
      "d": 240.0870937499858,
      "v": 127
    },
    {
      "midi": 57,
      "hit": false,
      "t": 139437.24878125,
      "d": 449.6869375000242,
      "v": 74
    },
    {
      "midi": 64,
      "hit": false,
      "t": 139467.73603125,
      "d": 100.35386458333232,
      "v": 120
    },
    {
      "midi": 69,
      "hit": false,
      "t": 139477.89844791667,
      "d": 434.4433125000214,
      "v": 120
    },
    {
      "midi": 71,
      "hit": false,
      "t": 139485.52026041667,
      "d": 41.91996875000768,
      "v": 127
    },
    {
      "midi": 61,
      "hit": false,
      "t": 139486.7905625,
      "d": 157.5174583333428,
      "v": 127
    },
    {
      "midi": 45,
      "hit": false,
      "t": 139486.790562504,
      "d": 231.19497916667024,
      "v": 95
    },
    {
      "midi": 52,
      "hit": false,
      "t": 139496.95297917066,
      "d": 208.32954166666605,
      "v": 88
    },
    {
      "midi": 57,
      "hit": false,
      "t": 139507.11539583732,
      "d": 193.08591666666325,
      "v": 98
    },
    {
      "midi": 40,
      "hit": false,
      "t": 139509.65600000013,
      "d": 532.2565729166672,
      "v": 127
    },
    {
      "midi": 61,
      "hit": false,
      "t": 139517.27781250398,
      "d": 436.98391666670796,
      "v": 90
    },
    {
      "midi": 64,
      "hit": false,
      "t": 139526.16992708732,
      "d": 452.22754166668165,
      "v": 83
    },
    {
      "midi": 66,
      "hit": false,
      "t": 139538.87294791668,
      "d": 358.22518750000745,
      "v": 127
    },
    {
      "midi": 62,
      "hit": false,
      "t": 139588.4147291667,
      "d": 326.4676354166586,
      "v": 90
    },
    {
      "midi": 57,
      "hit": false,
      "t": 139745.932187504,
      "d": 193.08591666669236,
      "v": 85
    },
    {
      "midi": 57,
      "hit": false,
      "t": 139753.554,
      "d": 574.1765416666749,
      "v": 127
    },
    {
      "midi": 52,
      "hit": false,
      "t": 139758.63520833733,
      "d": 193.08591666669236,
      "v": 71
    },
    {
      "midi": 45,
      "hit": false,
      "t": 139771.33822917068,
      "d": 193.08591666666325,
      "v": 72
    },
    {
      "midi": 57,
      "hit": false,
      "t": 139969.50535416667,
      "d": 148.62534374999814,
      "v": 94
    },
    {
      "midi": 64,
      "hit": false,
      "t": 139973.31626041667,
      "d": 199.43742708332138,
      "v": 97
    },
    {
      "midi": 69,
      "hit": false,
      "t": 139974.58656250002,
      "d": 195.62652083332068,
      "v": 97
    },
    {
      "midi": 45,
      "hit": false,
      "t": 139974.586562504,
      "d": 452.22754166665254,
      "v": 88
    },
    {
      "midi": 52,
      "hit": false,
      "t": 139977.12716667066,
      "d": 452.22754166665254,
      "v": 92
    },
    {
      "midi": 57,
      "hit": false,
      "t": 139979.66777083735,
      "d": 208.32954166666605,
      "v": 117
    },
    {
      "midi": 61,
      "hit": false,
      "t": 139980.93807291667,
      "d": 146.0847395833407,
      "v": 127
    },
    {
      "midi": 61,
      "hit": false,
      "t": 139982.208375004,
      "d": 215.95135416666744,
      "v": 122
    },
    {
      "midi": 64,
      "hit": false,
      "t": 139984.74897917066,
      "d": 198.16712500000722,
      "v": 126
    },
    {
      "midi": 45,
      "hit": false,
      "t": 139997.45200000014,
      "d": 233.73558333332767,
      "v": 127
    },
    {
      "midi": 64,
      "hit": false,
      "t": 140215.94395833733,
      "d": 185.46410416666185,
      "v": 104
    },
    {
      "midi": 61,
      "hit": false,
      "t": 140226.106375004,
      "d": 177.84229166666046,
      "v": 98
    },
    {
      "midi": 57,
      "hit": false,
      "t": 140238.80939583734,
      "d": 193.08591666663415,
      "v": 90
    },
    {
      "midi": 40,
      "hit": false,
      "t": 140241.35000000012,
      "d": 221.0325625000114,
      "v": 127
    },
    {
      "midi": 50,
      "hit": false,
      "t": 140452.22014583732,
      "d": 447.1463333332795,
      "v": 97
    },
    {
      "midi": 57,
      "hit": false,
      "t": 140456.03105208333,
      "d": 2828.9627395833086,
      "v": 97
    },
    {
      "midi": 54,
      "hit": false,
      "t": 140462.38256250398,
      "d": 447.1463333332795,
      "v": 90
    },
    {
      "midi": 57,
      "hit": false,
      "t": 140472.54497917063,
      "d": 193.08591666666325,
      "v": 100
    },
    {
      "midi": 62,
      "hit": false,
      "t": 140482.7073958373,
      "d": 193.08591666666325,
      "v": 92
    },
    {
      "midi": 66,
      "hit": false,
      "t": 140483.97769791665,
      "d": 1308.41114583335,
      "v": 127
    },
    {
      "midi": 38,
      "hit": false,
      "t": 140485.24800000014,
      "d": 612.2856041666528,
      "v": 127
    },
    {
      "midi": 69,
      "hit": false,
      "t": 140492.8698125,
      "d": 1647.5818020833249,
      "v": 127
    },
    {
      "midi": 66,
      "hit": false,
      "t": 140492.86981250395,
      "d": 193.08591666666325,
      "v": 83
    },
    {
      "midi": 62,
      "hit": false,
      "t": 140500.491625,
      "d": 998.4574375000084,
      "v": 90
    },
    {
      "midi": 66,
      "hit": false,
      "t": 140693.57754167062,
      "d": 238.81679166664253,
      "v": 82
    },
    {
      "midi": 62,
      "hit": false,
      "t": 140701.19935417062,
      "d": 238.81679166664253,
      "v": 81
    },
    {
      "midi": 57,
      "hit": false,
      "t": 140711.36177083728,
      "d": 223.57316666663974,
      "v": 80
    },
    {
      "midi": 50,
      "hit": false,
      "t": 140960.3409791706,
      "d": 442.0651249999646,
      "v": 88
    },
    {
      "midi": 54,
      "hit": false,
      "t": 140962.88158333726,
      "d": 467.47116666665534,
      "v": 92
    },
    {
      "midi": 57,
      "hit": false,
      "t": 140965.42218750392,
      "d": 444.60572916665114,
      "v": 117
    },
    {
      "midi": 62,
      "hit": false,
      "t": 140967.96279167058,
      "d": 436.98391666664975,
      "v": 122
    },
    {
      "midi": 66,
      "hit": false,
      "t": 140970.50339583724,
      "d": 452.22754166668165,
      "v": 126
    },
    {
      "midi": 57,
      "hit": false,
      "t": 140973.04400000002,
      "d": 100.35386458333232,
      "v": 127
    },
    {
      "midi": 57,
      "hit": false,
      "t": 141216.942,
      "d": 550.0408020833274,
      "v": 127
    },
    {
      "midi": 38,
      "hit": false,
      "t": 141216.94200000013,
      "d": 193.08591666666325,
      "v": 127
    },
    {
      "midi": 50,
      "hit": false,
      "t": 141437.97456250392,
      "d": 231.19497916667024,
      "v": 95
    },
    {
      "midi": 54,
      "hit": false,
      "t": 141448.13697917058,
      "d": 208.32954166666605,
      "v": 88
    },
    {
      "midi": 57,
      "hit": false,
      "t": 141458.29939583724,
      "d": 193.08591666666325,
      "v": 98
    },
    {
      "midi": 33,
      "hit": false,
      "t": 141460.8400000001,
      "d": 612.2856041666528,
      "v": 127
    },
    {
      "midi": 62,
      "hit": false,
      "t": 141468.4618125039,
      "d": 436.98391666670796,
      "v": 90
    },
    {
      "midi": 66,
      "hit": false,
      "t": 141477.35392708724,
      "d": 452.22754166668165,
      "v": 83
    },
    {
      "midi": 57,
      "hit": false,
      "t": 141697.1161875039,
      "d": 193.08591666669236,
      "v": 85
    },
    {
      "midi": 54,
      "hit": false,
      "t": 141709.81920833726,
      "d": 193.08591666669236,
      "v": 71
    },
    {
      "midi": 62,
      "hit": false,
      "t": 141722.52222916667,
      "d": 278.1961562499928,
      "v": 87
    },
    {
      "midi": 50,
      "hit": false,
      "t": 141722.5222291706,
      "d": 193.08591666666325,
      "v": 72
    },
    {
      "midi": 50,
      "hit": false,
      "t": 141925.77056250392,
      "d": 452.22754166665254,
      "v": 88
    },
    {
      "midi": 54,
      "hit": false,
      "t": 141928.31116667058,
      "d": 452.22754166665254,
      "v": 92
    },
    {
      "midi": 66,
      "hit": false,
      "t": 141929.58146875,
      "d": 552.5814062499849,
      "v": 96
    },
    {
      "midi": 57,
      "hit": false,
      "t": 141930.85177083727,
      "d": 208.32954166666605,
      "v": 117
    },
    {
      "midi": 62,
      "hit": false,
      "t": 141933.39237500392,
      "d": 215.95135416666744,
      "v": 122
    },
    {
      "midi": 66,
      "hit": false,
      "t": 141935.93297917058,
      "d": 198.16712500000722,
      "v": 126
    },
    {
      "midi": 56,
      "hit": false,
      "t": 141948.636,
      "d": 92.73205208333093,
      "v": 127
    },
    {
      "midi": 66,
      "hit": false,
      "t": 142167.12795833725,
      "d": 185.46410416666185,
      "v": 104
    },
    {
      "midi": 62,
      "hit": false,
      "t": 142177.2903750039,
      "d": 177.84229166666046,
      "v": 98
    },
    {
      "midi": 62,
      "hit": false,
      "t": 142187.45279166664,
      "d": 322.6567291666579,
      "v": 66
    },
    {
      "midi": 57,
      "hit": false,
      "t": 142189.99339583726,
      "d": 193.08591666663415,
      "v": 90
    },
    {
      "midi": 56,
      "hit": false,
      "t": 142192.53399999999,
      "d": 104.16477083333302,
      "v": 127
    },
    {
      "midi": 33,
      "hit": false,
      "t": 142192.5340000001,
      "d": 235.00588541667094,
      "v": 127
    },
    {
      "midi": 69,
      "hit": false,
      "t": 142395.7823333333,
      "d": 448.41663541665184,
      "v": 87
    },
    {
      "midi": 50,
      "hit": false,
      "t": 142403.40414583724,
      "d": 447.1463333332795,
      "v": 97
    },
    {
      "midi": 54,
      "hit": false,
      "t": 142413.5665625039,
      "d": 447.1463333332795,
      "v": 90
    },
    {
      "midi": 57,
      "hit": false,
      "t": 142423.72897917056,
      "d": 193.08591666666325,
      "v": 100
    },
    {
      "midi": 62,
      "hit": false,
      "t": 142433.8913958372,
      "d": 193.08591666666325,
      "v": 92
    },
    {
      "midi": 57,
      "hit": false,
      "t": 142436.43199999997,
      "d": 420.4699895833328,
      "v": 127
    },
    {
      "midi": 38,
      "hit": false,
      "t": 142436.43200000012,
      "d": 556.3923124999856,
      "v": 127
    },
    {
      "midi": 66,
      "hit": false,
      "t": 142444.05381250387,
      "d": 193.08591666666325,
      "v": 83
    },
    {
      "midi": 66,
      "hit": false,
      "t": 142541.86707291662,
      "d": 156.24715624999953,
      "v": 4
    },
    {
      "midi": 66,
      "hit": false,
      "t": 142644.76154167054,
      "d": 238.81679166664253,
      "v": 82
    },
    {
      "midi": 62,
      "hit": false,
      "t": 142652.38335417054,
      "d": 238.81679166664253,
      "v": 81
    },
    {
      "midi": 57,
      "hit": false,
      "t": 142662.5457708372,
      "d": 223.57316666663974,
      "v": 80
    },
    {
      "midi": 62,
      "hit": false,
      "t": 142907.71407291663,
      "d": 313.76461458334234,
      "v": 53
    },
    {
      "midi": 50,
      "hit": false,
      "t": 142911.52497917053,
      "d": 442.0651249999646,
      "v": 88
    },
    {
      "midi": 54,
      "hit": false,
      "t": 142914.0655833372,
      "d": 467.47116666665534,
      "v": 92
    },
    {
      "midi": 57,
      "hit": false,
      "t": 142916.60618750384,
      "d": 444.60572916665114,
      "v": 117
    },
    {
      "midi": 62,
      "hit": false,
      "t": 142919.1467916705,
      "d": 436.98391666664975,
      "v": 122
    },
    {
      "midi": 66,
      "hit": false,
      "t": 142921.68739583716,
      "d": 452.22754166668165,
      "v": 126
    },
    {
      "midi": 56,
      "hit": false,
      "t": 142924.22799999997,
      "d": 100.35386458333232,
      "v": 127
    },
    {
      "midi": 54,
      "hit": false,
      "t": 143168.12599999996,
      "d": 679.6116145833221,
      "v": 127
    },
    {
      "midi": 38,
      "hit": false,
      "t": 143168.1260000001,
      "d": 201.97803125000792,
      "v": 127
    },
    {
      "midi": 50,
      "hit": false,
      "t": 143389.15856250384,
      "d": 231.19497916667024,
      "v": 95
    },
    {
      "midi": 54,
      "hit": false,
      "t": 143399.3209791705,
      "d": 208.32954166666605,
      "v": 88
    },
    {
      "midi": 71,
      "hit": false,
      "t": 143406.94279166663,
      "d": 351.8736770833493,
      "v": 127
    },
    {
      "midi": 57,
      "hit": false,
      "t": 143409.48339583716,
      "d": 193.08591666666325,
      "v": 98
    },
    {
      "midi": 66,
      "hit": false,
      "t": 143410.75369791663,
      "d": 90.1914479166735,
      "v": 127
    },
    {
      "midi": 33,
      "hit": false,
      "t": 143412.02400000012,
      "d": 508.12083333334886,
      "v": 127
    },
    {
      "midi": 62,
      "hit": false,
      "t": 143419.64581250382,
      "d": 436.98391666670796,
      "v": 90
    },
    {
      "midi": 66,
      "hit": false,
      "t": 143428.53792708716,
      "d": 452.22754166668165,
      "v": 83
    },
    {
      "midi": 68,
      "hit": false,
      "t": 143455.2142708333,
      "d": 299.7912916666828,
      "v": 127
    },
    {
      "midi": 57,
      "hit": false,
      "t": 143648.30018750383,
      "d": 193.08591666669236,
      "v": 85
    },
    {
      "midi": 54,
      "hit": false,
      "t": 143661.00320833718,
      "d": 193.08591666669236,
      "v": 71
    },
    {
      "midi": 50,
      "hit": false,
      "t": 143673.70622917052,
      "d": 193.08591666666325,
      "v": 72
    },
    {
      "midi": 50,
      "hit": false,
      "t": 143876.95456250384,
      "d": 452.22754166665254,
      "v": 88
    },
    {
      "midi": 54,
      "hit": false,
      "t": 143879.4951666705,
      "d": 452.22754166665254,
      "v": 92
    },
    {
      "midi": 57,
      "hit": false,
      "t": 143882.0357708372,
      "d": 208.32954166666605,
      "v": 117
    },
    {
      "midi": 62,
      "hit": false,
      "t": 143884.57637500385,
      "d": 215.95135416666744,
      "v": 122
    },
    {
      "midi": 66,
      "hit": false,
      "t": 143887.1169791705,
      "d": 198.16712500000722,
      "v": 126
    },
    {
      "midi": 71,
      "hit": false,
      "t": 143888.38728124998,
      "d": 359.4954895833216,
      "v": 127
    },
    {
      "midi": 66,
      "hit": false,
      "t": 143890.92788541663,
      "d": 273.1149479166779,
      "v": 127
    },
    {
      "midi": 38,
      "hit": false,
      "t": 143899.82000000012,
      "d": 223.57316666666884,
      "v": 127
    },
    {
      "midi": 66,
      "hit": false,
      "t": 144118.31195833717,
      "d": 185.46410416666185,
      "v": 104
    },
    {
      "midi": 62,
      "hit": false,
      "t": 144128.47437500383,
      "d": 177.84229166666046,
      "v": 98
    },
    {
      "midi": 57,
      "hit": false,
      "t": 144141.17739583718,
      "d": 193.08591666663415,
      "v": 90
    },
    {
      "midi": 39,
      "hit": false,
      "t": 144143.71800000014,
      "d": 241.35739583332906,
      "v": 127
    },
    {
      "midi": 64,
      "hit": false,
      "t": 144321.56029166662,
      "d": 2435.16909375001,
      "v": 97
    },
    {
      "midi": 59,
      "hit": false,
      "t": 144353.31784374994,
      "d": 2541.8744687500293,
      "v": 92
    },
    {
      "midi": 40,
      "hit": false,
      "t": 144354.58814583716,
      "d": 447.1463333332795,
      "v": 80
    },
    {
      "midi": 47,
      "hit": false,
      "t": 144364.75056250382,
      "d": 447.1463333332795,
      "v": 90
    },
    {
      "midi": 68,
      "hit": false,
      "t": 144369.8317708333,
      "d": 2398.330333333346,
      "v": 127
    },
    {
      "midi": 52,
      "hit": false,
      "t": 144374.91297917048,
      "d": 193.08591666666325,
      "v": 83
    },
    {
      "midi": 56,
      "hit": false,
      "t": 144385.07539583714,
      "d": 193.08591666666325,
      "v": 92
    },
    {
      "midi": 40,
      "hit": false,
      "t": 144387.61600000013,
      "d": 566.5547291666735,
      "v": 127
    },
    {
      "midi": 59,
      "hit": false,
      "t": 144395.2378125038,
      "d": 193.08591666666325,
      "v": 83
    },
    {
      "midi": 59,
      "hit": false,
      "t": 144595.94554167046,
      "d": 238.81679166664253,
      "v": 82
    },
    {
      "midi": 56,
      "hit": false,
      "t": 144603.56735417046,
      "d": 238.81679166664253,
      "v": 81
    },
    {
      "midi": 52,
      "hit": false,
      "t": 144613.72977083712,
      "d": 223.57316666663974,
      "v": 66
    },
    {
      "midi": 40,
      "hit": false,
      "t": 144862.70897917045,
      "d": 442.0651249999646,
      "v": 73
    },
    {
      "midi": 47,
      "hit": false,
      "t": 144865.2495833371,
      "d": 467.47116666665534,
      "v": 92
    },
    {
      "midi": 52,
      "hit": false,
      "t": 144867.79018750376,
      "d": 444.60572916665114,
      "v": 97
    },
    {
      "midi": 56,
      "hit": false,
      "t": 144870.33079167042,
      "d": 436.98391666664975,
      "v": 122
    },
    {
      "midi": 59,
      "hit": false,
      "t": 144872.87139583708,
      "d": 452.22754166668165,
      "v": 126
    },
    {
      "midi": 40,
      "hit": false,
      "t": 145119.31000000014,
      "d": 219.76226041666814,
      "v": 127
    },
    {
      "midi": 40,
      "hit": false,
      "t": 145340.34256250376,
      "d": 231.19497916667024,
      "v": 79
    },
    {
      "midi": 47,
      "hit": false,
      "t": 145350.50497917042,
      "d": 208.32954166666605,
      "v": 88
    },
    {
      "midi": 52,
      "hit": false,
      "t": 145360.66739583708,
      "d": 193.08591666666325,
      "v": 81
    },
    {
      "midi": 35,
      "hit": false,
      "t": 145363.20800000016,
      "d": 570.3656354166742,
      "v": 127
    },
    {
      "midi": 56,
      "hit": false,
      "t": 145370.82981250374,
      "d": 436.98391666670796,
      "v": 90
    },
    {
      "midi": 59,
      "hit": false,
      "t": 145379.72192708708,
      "d": 452.22754166668165,
      "v": 83
    },
    {
      "midi": 52,
      "hit": false,
      "t": 145599.48418750375,
      "d": 193.08591666669236,
      "v": 70
    },
    {
      "midi": 47,
      "hit": false,
      "t": 145612.1872083371,
      "d": 193.08591666669236,
      "v": 71
    },
    {
      "midi": 40,
      "hit": false,
      "t": 145624.89022917044,
      "d": 193.08591666666325,
      "v": 60
    },
    {
      "midi": 40,
      "hit": false,
      "t": 145828.13856250377,
      "d": 452.22754166665254,
      "v": 73
    },
    {
      "midi": 47,
      "hit": false,
      "t": 145830.67916667042,
      "d": 452.22754166665254,
      "v": 92
    },
    {
      "midi": 52,
      "hit": false,
      "t": 145833.2197708371,
      "d": 208.32954166666605,
      "v": 97
    },
    {
      "midi": 56,
      "hit": false,
      "t": 145835.76037500377,
      "d": 215.95135416666744,
      "v": 122
    },
    {
      "midi": 59,
      "hit": false,
      "t": 145838.30097917042,
      "d": 198.16712500000722,
      "v": 126
    },
    {
      "midi": 59,
      "hit": false,
      "t": 146069.4959583371,
      "d": 185.46410416666185,
      "v": 104
    },
    {
      "midi": 56,
      "hit": false,
      "t": 146079.65837500375,
      "d": 177.84229166666046,
      "v": 98
    },
    {
      "midi": 52,
      "hit": false,
      "t": 146092.3613958371,
      "d": 193.08591666663415,
      "v": 75
    },
    {
      "midi": 35,
      "hit": false,
      "t": 146094.90200000018,
      "d": 222.30286458332557,
      "v": 127
    },
    {
      "midi": 40,
      "hit": false,
      "t": 146305.77214583708,
      "d": 447.1463333332795,
      "v": 80
    },
    {
      "midi": 47,
      "hit": false,
      "t": 146315.93456250374,
      "d": 447.1463333332795,
      "v": 90
    },
    {
      "midi": 52,
      "hit": false,
      "t": 146326.0969791704,
      "d": 193.08591666666325,
      "v": 83
    },
    {
      "midi": 56,
      "hit": false,
      "t": 146336.25939583706,
      "d": 193.08591666666325,
      "v": 92
    },
    {
      "midi": 40,
      "hit": false,
      "t": 146338.80000000016,
      "d": 584.3389583333337,
      "v": 127
    },
    {
      "midi": 59,
      "hit": false,
      "t": 146346.42181250372,
      "d": 193.08591666666325,
      "v": 83
    },
    {
      "midi": 59,
      "hit": false,
      "t": 146547.12954167038,
      "d": 238.81679166664253,
      "v": 82
    },
    {
      "midi": 56,
      "hit": false,
      "t": 146554.75135417038,
      "d": 238.81679166664253,
      "v": 81
    },
    {
      "midi": 52,
      "hit": false,
      "t": 146564.91377083704,
      "d": 223.57316666663974,
      "v": 66
    },
    {
      "midi": 40,
      "hit": false,
      "t": 146813.89297917037,
      "d": 442.0651249999646,
      "v": 73
    },
    {
      "midi": 47,
      "hit": false,
      "t": 146816.43358333703,
      "d": 467.47116666665534,
      "v": 92
    },
    {
      "midi": 52,
      "hit": false,
      "t": 146818.97418750369,
      "d": 444.60572916665114,
      "v": 97
    },
    {
      "midi": 56,
      "hit": false,
      "t": 146821.51479167034,
      "d": 436.98391666664975,
      "v": 122
    },
    {
      "midi": 59,
      "hit": false,
      "t": 146824.055395837,
      "d": 452.22754166668165,
      "v": 126
    },
    {
      "midi": 40,
      "hit": false,
      "t": 147070.49400000015,
      "d": 224.8434687500121,
      "v": 127
    },
    {
      "midi": 71,
      "hit": false,
      "t": 147282.63444791664,
      "d": 77.48842708335724,
      "v": 127
    },
    {
      "midi": 76,
      "hit": false,
      "t": 147283.90475,
      "d": 370.9282083333528,
      "v": 127
    },
    {
      "midi": 40,
      "hit": false,
      "t": 147291.52656250368,
      "d": 231.19497916667024,
      "v": 79
    },
    {
      "midi": 47,
      "hit": false,
      "t": 147301.68897917034,
      "d": 208.32954166666605,
      "v": 88
    },
    {
      "midi": 52,
      "hit": false,
      "t": 147311.851395837,
      "d": 193.08591666666325,
      "v": 81
    },
    {
      "midi": 35,
      "hit": false,
      "t": 147314.39200000017,
      "d": 417.92938541667536,
      "v": 127
    },
    {
      "midi": 73,
      "hit": false,
      "t": 147322.0138125,
      "d": 336.6300520833465,
      "v": 106
    },
    {
      "midi": 56,
      "hit": false,
      "t": 147322.01381250366,
      "d": 436.98391666670796,
      "v": 90
    },
    {
      "midi": 59,
      "hit": false,
      "t": 147330.905927087,
      "d": 452.22754166668165,
      "v": 83
    },
    {
      "midi": 52,
      "hit": false,
      "t": 147550.66818750367,
      "d": 193.08591666669236,
      "v": 70
    },
    {
      "midi": 47,
      "hit": false,
      "t": 147563.37120833702,
      "d": 193.08591666669236,
      "v": 71
    },
    {
      "midi": 40,
      "hit": false,
      "t": 147576.07422917036,
      "d": 193.08591666666325,
      "v": 60
    },
    {
      "midi": 40,
      "hit": false,
      "t": 147779.3225625037,
      "d": 452.22754166665254,
      "v": 73
    },
    {
      "midi": 47,
      "hit": false,
      "t": 147781.86316667034,
      "d": 452.22754166665254,
      "v": 92
    },
    {
      "midi": 52,
      "hit": false,
      "t": 147784.40377083703,
      "d": 208.32954166666605,
      "v": 97
    },
    {
      "midi": 56,
      "hit": false,
      "t": 147786.9443750037,
      "d": 215.95135416666744,
      "v": 122
    },
    {
      "midi": 71,
      "hit": false,
      "t": 147789.48497916668,
      "d": 260.41192708333256,
      "v": 127
    },
    {
      "midi": 76,
      "hit": false,
      "t": 147789.48497916668,
      "d": 2400.8709375000035,
      "v": 127
    },
    {
      "midi": 59,
      "hit": false,
      "t": 147789.48497917035,
      "d": 198.16712500000722,
      "v": 126
    },
    {
      "midi": 40,
      "hit": false,
      "t": 147802.18800000017,
      "d": 242.62769791667233,
      "v": 127
    },
    {
      "midi": 59,
      "hit": false,
      "t": 148020.67995833702,
      "d": 185.46410416666185,
      "v": 104
    },
    {
      "midi": 73,
      "hit": false,
      "t": 148028.30177083335,
      "d": 2139.1887083333277,
      "v": 112
    },
    {
      "midi": 56,
      "hit": false,
      "t": 148030.84237500367,
      "d": 177.84229166666046,
      "v": 98
    },
    {
      "midi": 52,
      "hit": false,
      "t": 148043.54539583702,
      "d": 193.08591666663415,
      "v": 75
    },
    {
      "midi": 54,
      "hit": false,
      "t": 148046.08599999995,
      "d": 111.78658333333442,
      "v": 127
    },
    {
      "midi": 44,
      "hit": false,
      "t": 148046.08600000018,
      "d": 199.43742708332138,
      "v": 127
    },
    {
      "midi": 45,
      "hit": false,
      "t": 148256.956145837,
      "d": 447.1463333332795,
      "v": 97
    },
    {
      "midi": 69,
      "hit": false,
      "t": 148263.30765625002,
      "d": 1933.399770833319,
      "v": 90
    },
    {
      "midi": 52,
      "hit": false,
      "t": 148267.11856250366,
      "d": 447.1463333332795,
      "v": 90
    },
    {
      "midi": 64,
      "hit": false,
      "t": 148272.19977083337,
      "d": 1468.4692083333211,
      "v": 127
    },
    {
      "midi": 57,
      "hit": false,
      "t": 148277.28097917032,
      "d": 193.08591666666325,
      "v": 100
    },
    {
      "midi": 61,
      "hit": false,
      "t": 148287.44339583698,
      "d": 193.08591666666325,
      "v": 92
    },
    {
      "midi": 54,
      "hit": false,
      "t": 148289.98399999997,
      "d": 226.11377083332627,
      "v": 127
    },
    {
      "midi": 45,
      "hit": false,
      "t": 148289.98400000017,
      "d": 635.151041666657,
      "v": 127
    },
    {
      "midi": 64,
      "hit": false,
      "t": 148297.60581250364,
      "d": 193.08591666666325,
      "v": 83
    },
    {
      "midi": 64,
      "hit": false,
      "t": 148498.3135416703,
      "d": 238.81679166664253,
      "v": 82
    },
    {
      "midi": 61,
      "hit": false,
      "t": 148505.9353541703,
      "d": 238.81679166664253,
      "v": 81
    },
    {
      "midi": 57,
      "hit": false,
      "t": 148516.09777083696,
      "d": 223.57316666663974,
      "v": 80
    },
    {
      "midi": 52,
      "hit": false,
      "t": 148533.88199999995,
      "d": 212.14044791666674,
      "v": 127
    },
    {
      "midi": 45,
      "hit": false,
      "t": 148765.0769791703,
      "d": 442.0651249999646,
      "v": 88
    },
    {
      "midi": 52,
      "hit": false,
      "t": 148767.61758333695,
      "d": 467.47116666665534,
      "v": 92
    },
    {
      "midi": 57,
      "hit": false,
      "t": 148770.1581875036,
      "d": 444.60572916665114,
      "v": 117
    },
    {
      "midi": 61,
      "hit": false,
      "t": 148772.69879167026,
      "d": 436.98391666664975,
      "v": 122
    },
    {
      "midi": 64,
      "hit": false,
      "t": 148775.23939583692,
      "d": 452.22754166668165,
      "v": 126
    },
    {
      "midi": 45,
      "hit": false,
      "t": 149021.67800000016,
      "d": 215.95135416666744,
      "v": 127
    },
    {
      "midi": 45,
      "hit": false,
      "t": 149242.7105625036,
      "d": 231.19497916667024,
      "v": 95
    },
    {
      "midi": 52,
      "hit": false,
      "t": 149252.87297917026,
      "d": 208.32954166666605,
      "v": 88
    },
    {
      "midi": 57,
      "hit": false,
      "t": 149263.03539583692,
      "d": 193.08591666666325,
      "v": 98
    },
    {
      "midi": 40,
      "hit": false,
      "t": 149265.57600000015,
      "d": 483.9850937500014,
      "v": 127
    },
    {
      "midi": 61,
      "hit": false,
      "t": 149273.19781250358,
      "d": 436.98391666670796,
      "v": 90
    },
    {
      "midi": 64,
      "hit": false,
      "t": 149282.08992708693,
      "d": 452.22754166668165,
      "v": 83
    },
    {
      "midi": 57,
      "hit": false,
      "t": 149501.8521875036,
      "d": 193.08591666669236,
      "v": 85
    },
    {
      "midi": 52,
      "hit": false,
      "t": 149514.55520833694,
      "d": 193.08591666669236,
      "v": 71
    },
    {
      "midi": 45,
      "hit": false,
      "t": 149527.2582291703,
      "d": 193.08591666666325,
      "v": 72
    },
    {
      "midi": 45,
      "hit": false,
      "t": 149730.5065625036,
      "d": 452.22754166665254,
      "v": 88
    },
    {
      "midi": 52,
      "hit": false,
      "t": 149733.04716667027,
      "d": 452.22754166665254,
      "v": 92
    },
    {
      "midi": 57,
      "hit": false,
      "t": 149735.58777083695,
      "d": 208.32954166666605,
      "v": 117
    },
    {
      "midi": 61,
      "hit": false,
      "t": 149738.1283750036,
      "d": 215.95135416666744,
      "v": 122
    },
    {
      "midi": 64,
      "hit": false,
      "t": 149740.66897917027,
      "d": 198.16712500000722,
      "v": 126
    },
    {
      "midi": 45,
      "hit": false,
      "t": 149753.37200000015,
      "d": 231.19497916667024,
      "v": 127
    },
    {
      "midi": 64,
      "hit": false,
      "t": 149971.86395833694,
      "d": 185.46410416666185,
      "v": 104
    },
    {
      "midi": 61,
      "hit": false,
      "t": 149982.0263750036,
      "d": 177.84229166666046,
      "v": 98
    },
    {
      "midi": 57,
      "hit": false,
      "t": 149994.72939583694,
      "d": 193.08591666663415,
      "v": 90
    },
    {
      "midi": 45,
      "hit": false,
      "t": 149997.27000000016,
      "d": 226.11377083332627,
      "v": 127
    },
    {
      "midi": 40,
      "hit": false,
      "t": 150208.14014583692,
      "d": 447.1463333332795,
      "v": 80
    },
    {
      "midi": 47,
      "hit": false,
      "t": 150218.30256250358,
      "d": 447.1463333332795,
      "v": 75
    },
    {
      "midi": 52,
      "hit": false,
      "t": 150228.46497917024,
      "d": 193.08591666666325,
      "v": 69
    },
    {
      "midi": 56,
      "hit": false,
      "t": 150238.6273958369,
      "d": 193.08591666666325,
      "v": 92
    },
    {
      "midi": 40,
      "hit": false,
      "t": 150241.16800000015,
      "d": 213.41075000001,
      "v": 127
    },
    {
      "midi": 40,
      "hit": false,
      "t": 150247.51951041666,
      "d": 276.9258541666786,
      "v": 87
    },
    {
      "midi": 59,
      "hit": false,
      "t": 150248.78981250356,
      "d": 193.08591666666325,
      "v": 83
    },
    {
      "midi": 52,
      "hit": false,
      "t": 150265.30373958332,
      "d": 248.97920833335957,
      "v": 112
    },
    {
      "midi": 59,
      "hit": false,
      "t": 150449.49754167022,
      "d": 238.81679166664253,
      "v": 82
    },
    {
      "midi": 56,
      "hit": false,
      "t": 150457.11935417022,
      "d": 238.81679166664253,
      "v": 81
    },
    {
      "midi": 54,
      "hit": false,
      "t": 150467.28177083333,
      "d": 270.5743437500205,
      "v": 127
    },
    {
      "midi": 52,
      "hit": false,
      "t": 150467.28177083688,
      "d": 223.57316666663974,
      "v": 55
    },
    {
      "midi": 42,
      "hit": false,
      "t": 150472.36297916668,
      "d": 256.60102083333186,
      "v": 100
    },
    {
      "midi": 40,
      "hit": false,
      "t": 150485.06600000017,
      "d": 243.8979999999865,
      "v": 127
    },
    {
      "midi": 44,
      "hit": false,
      "t": 150695.93614583334,
      "d": 243.8980000000156,
      "v": 127
    },
    {
      "midi": 56,
      "hit": false,
      "t": 150703.55795833335,
      "d": 274.3852500000212,
      "v": 127
    },
    {
      "midi": 40,
      "hit": false,
      "t": 150716.2609791702,
      "d": 442.0651249999646,
      "v": 73
    },
    {
      "midi": 47,
      "hit": false,
      "t": 150718.80158333687,
      "d": 467.47116666665534,
      "v": 76
    },
    {
      "midi": 52,
      "hit": false,
      "t": 150721.34218750353,
      "d": 444.60572916665114,
      "v": 80
    },
    {
      "midi": 56,
      "hit": false,
      "t": 150723.88279167018,
      "d": 436.98391666664975,
      "v": 122
    },
    {
      "midi": 59,
      "hit": false,
      "t": 150726.42339583684,
      "d": 452.22754166668165,
      "v": 126
    },
    {
      "midi": 38,
      "hit": false,
      "t": 150728.96400000015,
      "d": 457.3087499999965,
      "v": 127
    },
    {
      "midi": 45,
      "hit": false,
      "t": 150928.40142708336,
      "d": 242.62769791667233,
      "v": 92
    },
    {
      "midi": 57,
      "hit": false,
      "t": 150934.75293750002,
      "d": 259.1416250000184,
      "v": 127
    },
    {
      "midi": 47,
      "hit": false,
      "t": 151183.73214583338,
      "d": 250.24951041664463,
      "v": 94
    },
    {
      "midi": 59,
      "hit": false,
      "t": 151187.54305208338,
      "d": 260.41192708333256,
      "v": 127
    },
    {
      "midi": 40,
      "hit": false,
      "t": 151193.89456250353,
      "d": 231.19497916667024,
      "v": 79
    },
    {
      "midi": 47,
      "hit": false,
      "t": 151204.0569791702,
      "d": 208.32954166666605,
      "v": 73
    },
    {
      "midi": 52,
      "hit": false,
      "t": 151214.21939583684,
      "d": 193.08591666666325,
      "v": 67
    },
    {
      "midi": 37,
      "hit": false,
      "t": 151216.76000000015,
      "d": 457.3087499999965,
      "v": 127
    },
    {
      "midi": 56,
      "hit": false,
      "t": 151224.3818125035,
      "d": 436.98391666670796,
      "v": 90
    },
    {
      "midi": 59,
      "hit": false,
      "t": 151233.27392708685,
      "d": 452.22754166668165,
      "v": 83
    },
    {
      "midi": 49,
      "hit": false,
      "t": 151442.87377083336,
      "d": 236.2761875000142,
      "v": 127
    },
    {
      "midi": 61,
      "hit": false,
      "t": 151442.87377083336,
      "d": 261.68222916670493,
      "v": 127
    },
    {
      "midi": 52,
      "hit": false,
      "t": 151453.03618750352,
      "d": 193.08591666669236,
      "v": 58
    },
    {
      "midi": 47,
      "hit": false,
      "t": 151465.73920833686,
      "d": 193.08591666669236,
      "v": 59
    },
    {
      "midi": 40,
      "hit": false,
      "t": 151478.4422291702,
      "d": 193.08591666666325,
      "v": 60
    },
    {
      "midi": 40,
      "hit": false,
      "t": 151681.69056250353,
      "d": 452.22754166665254,
      "v": 73
    },
    {
      "midi": 47,
      "hit": false,
      "t": 151684.2311666702,
      "d": 452.22754166665254,
      "v": 76
    },
    {
      "midi": 52,
      "hit": false,
      "t": 151686.77177083687,
      "d": 208.32954166666605,
      "v": 80
    },
    {
      "midi": 56,
      "hit": false,
      "t": 151689.31237500353,
      "d": 215.95135416666744,
      "v": 122
    },
    {
      "midi": 59,
      "hit": false,
      "t": 151691.8529791702,
      "d": 198.16712500000722,
      "v": 126
    },
    {
      "midi": 50,
      "hit": false,
      "t": 151695.66388541672,
      "d": 261.6822291666758,
      "v": 127
    },
    {
      "midi": 64,
      "hit": false,
      "t": 151704.55599999995,
      "d": 83.83993749998626,
      "v": 127
    },
    {
      "midi": 35,
      "hit": false,
      "t": 151704.55600000016,
      "d": 457.3087499999965,
      "v": 127
    },
    {
      "midi": 62,
      "hit": false,
      "t": 151713.4481145834,
      "d": 268.03373958333395,
      "v": 127
    },
    {
      "midi": 59,
      "hit": false,
      "t": 151923.04795833686,
      "d": 185.46410416666185,
      "v": 104
    },
    {
      "midi": 52,
      "hit": false,
      "t": 151929.39946875008,
      "d": 182.92350000000442,
      "v": 127
    },
    {
      "midi": 56,
      "hit": false,
      "t": 151933.21037500352,
      "d": 177.84229166666046,
      "v": 98
    },
    {
      "midi": 52,
      "hit": false,
      "t": 151945.91339583686,
      "d": 193.08591666663415,
      "v": 62
    },
    {
      "midi": 64,
      "hit": false,
      "t": 151948.45399999994,
      "d": 77.48842708332813,
      "v": 127
    },
    {
      "midi": 64,
      "hit": false,
      "t": 151950.99460416674,
      "d": 198.16712500000722,
      "v": 127
    },
    {
      "midi": 45,
      "hit": false,
      "t": 152159.32414583684,
      "d": 447.1463333332795,
      "v": 97
    },
    {
      "midi": 52,
      "hit": false,
      "t": 152169.4865625035,
      "d": 447.1463333332795,
      "v": 90
    },
    {
      "midi": 57,
      "hit": false,
      "t": 152179.64897917016,
      "d": 193.08591666666325,
      "v": 100
    },
    {
      "midi": 61,
      "hit": false,
      "t": 152189.81139583682,
      "d": 193.08591666666325,
      "v": 92
    },
    {
      "midi": 64,
      "hit": false,
      "t": 152192.35199999993,
      "d": 86.3805416666728,
      "v": 127
    },
    {
      "midi": 45,
      "hit": false,
      "t": 152192.35200000016,
      "d": 577.9874479166756,
      "v": 127
    },
    {
      "midi": 64,
      "hit": false,
      "t": 152199.97381250348,
      "d": 193.08591666666325,
      "v": 83
    },
    {
      "midi": 73,
      "hit": false,
      "t": 152202.5144166665,
      "d": 3809.6359479166567,
      "v": 127
    },
    {
      "midi": 61,
      "hit": false,
      "t": 152202.51441666664,
      "d": 3765.1753749999043,
      "v": 127
    },
    {
      "midi": 57,
      "hit": false,
      "t": 152203.78471875,
      "d": 3752.472354166559,
      "v": 127
    },
    {
      "midi": 64,
      "hit": false,
      "t": 152206.32532291664,
      "d": 3738.4990312498994,
      "v": 127
    },
    {
      "midi": 85,
      "hit": false,
      "t": 152208.86592708316,
      "d": 3805.825041666656,
      "v": 127
    },
    {
      "midi": 64,
      "hit": false,
      "t": 152400.68154167014,
      "d": 238.81679166664253,
      "v": 82
    },
    {
      "midi": 61,
      "hit": false,
      "t": 152408.30335417014,
      "d": 238.81679166664253,
      "v": 81
    },
    {
      "midi": 57,
      "hit": false,
      "t": 152418.4657708368,
      "d": 223.57316666663974,
      "v": 80
    },
    {
      "midi": 64,
      "hit": false,
      "t": 152436.24999999994,
      "d": 69.86661458332674,
      "v": 127
    },
    {
      "midi": 45,
      "hit": false,
      "t": 152667.44497917013,
      "d": 442.0651249999646,
      "v": 88
    },
    {
      "midi": 52,
      "hit": false,
      "t": 152669.9855833368,
      "d": 467.47116666665534,
      "v": 92
    },
    {
      "midi": 57,
      "hit": false,
      "t": 152672.52618750345,
      "d": 444.60572916665114,
      "v": 117
    },
    {
      "midi": 61,
      "hit": false,
      "t": 152675.0667916701,
      "d": 436.98391666664975,
      "v": 122
    },
    {
      "midi": 64,
      "hit": false,
      "t": 152677.60739583676,
      "d": 452.22754166668165,
      "v": 126
    },
    {
      "midi": 64,
      "hit": false,
      "t": 152680.14799999993,
      "d": 215.95135416666744,
      "v": 127
    },
    {
      "midi": 64,
      "hit": false,
      "t": 152924.04599999991,
      "d": 22.86543750000419,
      "v": 127
    },
    {
      "midi": 62,
      "hit": false,
      "t": 152924.04599999991,
      "d": 391.25304166667047,
      "v": 127
    },
    {
      "midi": 45,
      "hit": false,
      "t": 152924.04600000018,
      "d": 232.4652812500135,
      "v": 127
    },
    {
      "midi": 45,
      "hit": false,
      "t": 153145.07856250345,
      "d": 231.19497916667024,
      "v": 95
    },
    {
      "midi": 52,
      "hit": false,
      "t": 153155.2409791701,
      "d": 208.32954166666605,
      "v": 88
    },
    {
      "midi": 57,
      "hit": false,
      "t": 153165.40339583677,
      "d": 193.08591666666325,
      "v": 98
    },
    {
      "midi": 40,
      "hit": false,
      "t": 153167.9440000002,
      "d": 641.5025520833442,
      "v": 127
    },
    {
      "midi": 61,
      "hit": false,
      "t": 153175.56581250342,
      "d": 436.98391666670796,
      "v": 90
    },
    {
      "midi": 64,
      "hit": false,
      "t": 153184.45792708677,
      "d": 452.22754166668165,
      "v": 83
    },
    {
      "midi": 57,
      "hit": false,
      "t": 153404.22018750344,
      "d": 193.08591666669236,
      "v": 85
    },
    {
      "midi": 61,
      "hit": false,
      "t": 153411.84199999992,
      "d": 282.0070624999935,
      "v": 127
    },
    {
      "midi": 52,
      "hit": false,
      "t": 153416.92320833678,
      "d": 193.08591666669236,
      "v": 71
    },
    {
      "midi": 45,
      "hit": false,
      "t": 153429.62622917013,
      "d": 193.08591666666325,
      "v": 72
    },
    {
      "midi": 45,
      "hit": false,
      "t": 153632.87456250345,
      "d": 452.22754166665254,
      "v": 88
    },
    {
      "midi": 52,
      "hit": false,
      "t": 153635.4151666701,
      "d": 452.22754166665254,
      "v": 92
    },
    {
      "midi": 57,
      "hit": false,
      "t": 153637.9557708368,
      "d": 208.32954166666605,
      "v": 117
    },
    {
      "midi": 61,
      "hit": false,
      "t": 153640.49637500345,
      "d": 215.95135416666744,
      "v": 122
    },
    {
      "midi": 64,
      "hit": false,
      "t": 153643.0369791701,
      "d": 198.16712500000722,
      "v": 126
    },
    {
      "midi": 64,
      "hit": false,
      "t": 153874.23195833678,
      "d": 185.46410416666185,
      "v": 104
    },
    {
      "midi": 61,
      "hit": false,
      "t": 153884.39437500344,
      "d": 177.84229166666046,
      "v": 98
    },
    {
      "midi": 57,
      "hit": false,
      "t": 153897.09739583678,
      "d": 193.08591666663415,
      "v": 90
    },
    {
      "midi": 61,
      "hit": false,
      "t": 153899.63799999992,
      "d": 92.73205208333093,
      "v": 127
    },
    {
      "midi": 40,
      "hit": false,
      "t": 153899.6380000002,
      "d": 224.8434687500121,
      "v": 127
    },
    {
      "midi": 45,
      "hit": false,
      "t": 154110.50814583676,
      "d": 447.1463333332795,
      "v": 97
    },
    {
      "midi": 52,
      "hit": false,
      "t": 154120.67056250342,
      "d": 447.1463333332795,
      "v": 90
    },
    {
      "midi": 57,
      "hit": false,
      "t": 154130.83297917008,
      "d": 193.08591666666325,
      "v": 100
    },
    {
      "midi": 61,
      "hit": false,
      "t": 154140.99539583674,
      "d": 193.08591666666325,
      "v": 92
    },
    {
      "midi": 62,
      "hit": false,
      "t": 154143.5359999999,
      "d": 175.30168750000303,
      "v": 127
    },
    {
      "midi": 45,
      "hit": false,
      "t": 154143.53600000023,
      "d": 590.6904687499919,
      "v": 127
    },
    {
      "midi": 64,
      "hit": false,
      "t": 154151.1578125034,
      "d": 193.08591666666325,
      "v": 83
    },
    {
      "midi": 64,
      "hit": false,
      "t": 154351.86554167006,
      "d": 238.81679166664253,
      "v": 82
    },
    {
      "midi": 61,
      "hit": false,
      "t": 154359.48735417007,
      "d": 238.81679166664253,
      "v": 81
    },
    {
      "midi": 57,
      "hit": false,
      "t": 154369.64977083672,
      "d": 223.57316666663974,
      "v": 80
    },
    {
      "midi": 61,
      "hit": false,
      "t": 154387.43399999992,
      "d": 485.25539583334466,
      "v": 127
    },
    {
      "midi": 45,
      "hit": false,
      "t": 154618.62897917005,
      "d": 442.0651249999646,
      "v": 88
    },
    {
      "midi": 52,
      "hit": false,
      "t": 154621.1695833367,
      "d": 467.47116666665534,
      "v": 92
    },
    {
      "midi": 57,
      "hit": false,
      "t": 154623.71018750337,
      "d": 444.60572916665114,
      "v": 117
    },
    {
      "midi": 61,
      "hit": false,
      "t": 154626.25079167003,
      "d": 436.98391666664975,
      "v": 122
    },
    {
      "midi": 64,
      "hit": false,
      "t": 154628.79139583668,
      "d": 452.22754166668165,
      "v": 126
    },
    {
      "midi": 59,
      "hit": false,
      "t": 154875.22999999992,
      "d": 528.4456666666665,
      "v": 127
    },
    {
      "midi": 45,
      "hit": false,
      "t": 154875.2300000002,
      "d": 240.0870937499858,
      "v": 127
    },
    {
      "midi": 57,
      "hit": false,
      "t": 155046.72078125007,
      "d": 449.6869375000242,
      "v": 74
    },
    {
      "midi": 64,
      "hit": false,
      "t": 155077.20803125008,
      "d": 100.35386458333232,
      "v": 120
    },
    {
      "midi": 69,
      "hit": false,
      "t": 155087.37044791674,
      "d": 434.4433125000214,
      "v": 120
    },
    {
      "midi": 71,
      "hit": false,
      "t": 155094.99226041674,
      "d": 41.91996875000768,
      "v": 127
    },
    {
      "midi": 61,
      "hit": false,
      "t": 155096.26256250008,
      "d": 157.5174583333428,
      "v": 127
    },
    {
      "midi": 45,
      "hit": false,
      "t": 155096.26256250337,
      "d": 231.19497916667024,
      "v": 95
    },
    {
      "midi": 52,
      "hit": false,
      "t": 155106.42497917003,
      "d": 208.32954166666605,
      "v": 88
    },
    {
      "midi": 57,
      "hit": false,
      "t": 155116.5873958367,
      "d": 193.08591666666325,
      "v": 98
    },
    {
      "midi": 40,
      "hit": false,
      "t": 155119.1280000002,
      "d": 532.2565729166672,
      "v": 127
    },
    {
      "midi": 61,
      "hit": false,
      "t": 155126.74981250335,
      "d": 436.98391666670796,
      "v": 90
    },
    {
      "midi": 64,
      "hit": false,
      "t": 155135.6419270867,
      "d": 452.22754166668165,
      "v": 83
    },
    {
      "midi": 66,
      "hit": false,
      "t": 155148.34494791675,
      "d": 358.22518750000745,
      "v": 127
    },
    {
      "midi": 62,
      "hit": false,
      "t": 155197.88672916676,
      "d": 326.4676354166586,
      "v": 90
    },
    {
      "midi": 57,
      "hit": false,
      "t": 155355.40418750336,
      "d": 193.08591666669236,
      "v": 85
    },
    {
      "midi": 57,
      "hit": false,
      "t": 155363.02599999993,
      "d": 285.8179687499942,
      "v": 127
    },
    {
      "midi": 52,
      "hit": false,
      "t": 155368.1072083367,
      "d": 193.08591666669236,
      "v": 71
    },
    {
      "midi": 45,
      "hit": false,
      "t": 155380.81022917005,
      "d": 193.08591666666325,
      "v": 72
    },
    {
      "midi": 57,
      "hit": false,
      "t": 155578.97735416674,
      "d": 148.62534374999814,
      "v": 94
    },
    {
      "midi": 64,
      "hit": false,
      "t": 155582.78826041674,
      "d": 199.43742708332138,
      "v": 97
    },
    {
      "midi": 69,
      "hit": false,
      "t": 155584.05856250008,
      "d": 195.62652083332068,
      "v": 97
    },
    {
      "midi": 45,
      "hit": false,
      "t": 155584.05856250337,
      "d": 452.22754166665254,
      "v": 88
    },
    {
      "midi": 52,
      "hit": false,
      "t": 155586.59916667003,
      "d": 452.22754166665254,
      "v": 92
    },
    {
      "midi": 57,
      "hit": false,
      "t": 155589.13977083671,
      "d": 208.32954166666605,
      "v": 117
    },
    {
      "midi": 61,
      "hit": false,
      "t": 155590.41007291674,
      "d": 146.0847395833407,
      "v": 127
    },
    {
      "midi": 61,
      "hit": false,
      "t": 155591.68037500337,
      "d": 215.95135416666744,
      "v": 122
    },
    {
      "midi": 64,
      "hit": false,
      "t": 155594.22097917003,
      "d": 198.16712500000722,
      "v": 126
    },
    {
      "midi": 45,
      "hit": false,
      "t": 155606.9240000002,
      "d": 233.73558333332767,
      "v": 127
    },
    {
      "midi": 64,
      "hit": false,
      "t": 155825.4159583367,
      "d": 185.46410416666185,
      "v": 104
    },
    {
      "midi": 61,
      "hit": false,
      "t": 155835.57837500336,
      "d": 177.84229166666046,
      "v": 98
    },
    {
      "midi": 57,
      "hit": false,
      "t": 155848.2813958367,
      "d": 193.08591666663415,
      "v": 90
    },
    {
      "midi": 40,
      "hit": false,
      "t": 155850.8220000002,
      "d": 221.0325625000114,
      "v": 127
    },
    {
      "midi": 57,
      "hit": false,
      "t": 156046.44852083322,
      "d": 3630.5233541665075,
      "v": 127
    },
    {
      "midi": 62,
      "hit": false,
      "t": 156047.71882291656,
      "d": 3636.8748645831656,
      "v": 127
    },
    {
      "midi": 66,
      "hit": false,
      "t": 156054.07033333322,
      "d": 3620.3609374998487,
      "v": 127
    },
    {
      "midi": 50,
      "hit": false,
      "t": 156061.69214583669,
      "d": 447.1463333332795,
      "v": 97
    },
    {
      "midi": 57,
      "hit": false,
      "t": 156065.5030520834,
      "d": 2828.9627395833086,
      "v": 97
    },
    {
      "midi": 54,
      "hit": false,
      "t": 156071.85456250334,
      "d": 447.1463333332795,
      "v": 90
    },
    {
      "midi": 57,
      "hit": false,
      "t": 156082.01697917,
      "d": 193.08591666666325,
      "v": 100
    },
    {
      "midi": 74,
      "hit": false,
      "t": 156084.55758333314,
      "d": 3814.7171562500007,
      "v": 120
    },
    {
      "midi": 86,
      "hit": false,
      "t": 156092.17939583314,
      "d": 3815.987458333344,
      "v": 127
    },
    {
      "midi": 62,
      "hit": false,
      "t": 156092.17939583666,
      "d": 193.08591666666325,
      "v": 92
    },
    {
      "midi": 66,
      "hit": false,
      "t": 156093.44969791672,
      "d": 1308.41114583335,
      "v": 127
    },
    {
      "midi": 38,
      "hit": false,
      "t": 156094.7200000002,
      "d": 612.2856041666528,
      "v": 127
    },
    {
      "midi": 69,
      "hit": false,
      "t": 156102.34181250006,
      "d": 1647.5818020833249,
      "v": 127
    },
    {
      "midi": 66,
      "hit": false,
      "t": 156102.34181250332,
      "d": 193.08591666666325,
      "v": 83
    },
    {
      "midi": 62,
      "hit": false,
      "t": 156109.96362500006,
      "d": 998.4574375000084,
      "v": 90
    },
    {
      "midi": 66,
      "hit": false,
      "t": 156303.04954166999,
      "d": 238.81679166664253,
      "v": 82
    },
    {
      "midi": 62,
      "hit": false,
      "t": 156310.67135417,
      "d": 238.81679166664253,
      "v": 81
    },
    {
      "midi": 57,
      "hit": false,
      "t": 156320.83377083665,
      "d": 223.57316666663974,
      "v": 80
    },
    {
      "midi": 57,
      "hit": false,
      "t": 156338.61799999993,
      "d": 68.59631250001257,
      "v": 127
    },
    {
      "midi": 50,
      "hit": false,
      "t": 156569.81297916998,
      "d": 442.0651249999646,
      "v": 88
    },
    {
      "midi": 54,
      "hit": false,
      "t": 156572.35358333663,
      "d": 467.47116666665534,
      "v": 92
    },
    {
      "midi": 57,
      "hit": false,
      "t": 156574.8941875033,
      "d": 444.60572916665114,
      "v": 117
    },
    {
      "midi": 62,
      "hit": false,
      "t": 156577.43479166995,
      "d": 436.98391666664975,
      "v": 122
    },
    {
      "midi": 66,
      "hit": false,
      "t": 156579.9753958366,
      "d": 452.22754166668165,
      "v": 126
    },
    {
      "midi": 57,
      "hit": false,
      "t": 156582.51599999995,
      "d": 68.59631250001257,
      "v": 127
    },
    {
      "midi": 57,
      "hit": false,
      "t": 156826.41399999996,
      "d": 72.40721875001327,
      "v": 127
    },
    {
      "midi": 38,
      "hit": false,
      "t": 156826.4140000002,
      "d": 193.08591666666325,
      "v": 127
    },
    {
      "midi": 50,
      "hit": false,
      "t": 157047.4465625033,
      "d": 231.19497916667024,
      "v": 95
    },
    {
      "midi": 54,
      "hit": false,
      "t": 157057.60897916995,
      "d": 208.32954166666605,
      "v": 88
    },
    {
      "midi": 57,
      "hit": false,
      "t": 157067.7713958366,
      "d": 193.08591666666325,
      "v": 98
    },
    {
      "midi": 57,
      "hit": false,
      "t": 157070.31199999998,
      "d": 111.78658333333442,
      "v": 127
    },
    {
      "midi": 33,
      "hit": false,
      "t": 157070.31200000018,
      "d": 612.2856041666528,
      "v": 127
    },
    {
      "midi": 62,
      "hit": false,
      "t": 157077.93381250327,
      "d": 436.98391666670796,
      "v": 90
    },
    {
      "midi": 66,
      "hit": false,
      "t": 157086.8259270866,
      "d": 452.22754166668165,
      "v": 83
    },
    {
      "midi": 57,
      "hit": false,
      "t": 157306.58818750328,
      "d": 193.08591666669236,
      "v": 85
    },
    {
      "midi": 57,
      "hit": false,
      "t": 157314.21,
      "d": 367.117302083323,
      "v": 127
    },
    {
      "midi": 54,
      "hit": false,
      "t": 157319.29120833662,
      "d": 193.08591666669236,
      "v": 71
    },
    {
      "midi": 62,
      "hit": false,
      "t": 157331.99422916674,
      "d": 278.1961562499928,
      "v": 87
    },
    {
      "midi": 50,
      "hit": false,
      "t": 157331.99422916997,
      "d": 193.08591666666325,
      "v": 72
    },
    {
      "midi": 50,
      "hit": false,
      "t": 157535.2425625033,
      "d": 452.22754166665254,
      "v": 88
    },
    {
      "midi": 54,
      "hit": false,
      "t": 157537.78316666995,
      "d": 452.22754166665254,
      "v": 92
    },
    {
      "midi": 66,
      "hit": false,
      "t": 157539.05346875006,
      "d": 552.5814062499849,
      "v": 96
    },
    {
      "midi": 57,
      "hit": false,
      "t": 157540.32377083664,
      "d": 208.32954166666605,
      "v": 117
    },
    {
      "midi": 62,
      "hit": false,
      "t": 157542.8643750033,
      "d": 215.95135416666744,
      "v": 122
    },
    {
      "midi": 66,
      "hit": false,
      "t": 157545.40497916995,
      "d": 198.16712500000722,
      "v": 126
    },
    {
      "midi": 66,
      "hit": false,
      "t": 157776.59995833662,
      "d": 185.46410416666185,
      "v": 104
    },
    {
      "midi": 62,
      "hit": false,
      "t": 157786.76237500328,
      "d": 177.84229166666046,
      "v": 98
    },
    {
      "midi": 62,
      "hit": false,
      "t": 157796.9247916667,
      "d": 322.6567291666579,
      "v": 66
    },
    {
      "midi": 57,
      "hit": false,
      "t": 157799.46539583663,
      "d": 193.08591666663415,
      "v": 90
    },
    {
      "midi": 56,
      "hit": false,
      "t": 157802.006,
      "d": 87.65084374998696,
      "v": 127
    },
    {
      "midi": 33,
      "hit": false,
      "t": 157802.00600000017,
      "d": 235.00588541667094,
      "v": 127
    },
    {
      "midi": 69,
      "hit": false,
      "t": 158005.25433333337,
      "d": 448.41663541665184,
      "v": 87
    },
    {
      "midi": 50,
      "hit": false,
      "t": 158012.8761458366,
      "d": 447.1463333332795,
      "v": 97
    },
    {
      "midi": 54,
      "hit": false,
      "t": 158023.03856250326,
      "d": 447.1463333332795,
      "v": 90
    },
    {
      "midi": 57,
      "hit": false,
      "t": 158033.20097916992,
      "d": 193.08591666666325,
      "v": 100
    },
    {
      "midi": 62,
      "hit": false,
      "t": 158043.36339583658,
      "d": 193.08591666666325,
      "v": 92
    },
    {
      "midi": 57,
      "hit": false,
      "t": 158045.90399999998,
      "d": 248.97920833333046,
      "v": 127
    },
    {
      "midi": 38,
      "hit": false,
      "t": 158045.90400000018,
      "d": 556.3923124999856,
      "v": 127
    },
    {
      "midi": 66,
      "hit": false,
      "t": 158053.52581250324,
      "d": 193.08591666666325,
      "v": 83
    },
    {
      "midi": 66,
      "hit": false,
      "t": 158151.3390729167,
      "d": 156.24715624999953,
      "v": 4
    },
    {
      "midi": 66,
      "hit": false,
      "t": 158254.2335416699,
      "d": 238.81679166664253,
      "v": 82
    },
    {
      "midi": 62,
      "hit": false,
      "t": 158261.8553541699,
      "d": 238.81679166664253,
      "v": 81
    },
    {
      "midi": 57,
      "hit": false,
      "t": 158272.01777083657,
      "d": 223.57316666663974,
      "v": 80
    },
    {
      "midi": 56,
      "hit": false,
      "t": 158289.80199999997,
      "d": 487.7960000000021,
      "v": 127
    },
    {
      "midi": 62,
      "hit": false,
      "t": 158517.1860729167,
      "d": 313.76461458334234,
      "v": 53
    },
    {
      "midi": 50,
      "hit": false,
      "t": 158520.9969791699,
      "d": 442.0651249999646,
      "v": 88
    },
    {
      "midi": 54,
      "hit": false,
      "t": 158523.53758333655,
      "d": 467.47116666665534,
      "v": 92
    },
    {
      "midi": 57,
      "hit": false,
      "t": 158526.0781875032,
      "d": 444.60572916665114,
      "v": 117
    },
    {
      "midi": 62,
      "hit": false,
      "t": 158528.61879166987,
      "d": 436.98391666664975,
      "v": 122
    },
    {
      "midi": 66,
      "hit": false,
      "t": 158531.15939583653,
      "d": 452.22754166668165,
      "v": 126
    },
    {
      "midi": 54,
      "hit": false,
      "t": 158777.59799999997,
      "d": 388.71243750001304,
      "v": 127
    },
    {
      "midi": 38,
      "hit": false,
      "t": 158777.59800000017,
      "d": 201.97803125000792,
      "v": 127
    },
    {
      "midi": 50,
      "hit": false,
      "t": 158998.6305625032,
      "d": 231.19497916667024,
      "v": 95
    },
    {
      "midi": 54,
      "hit": false,
      "t": 159008.79297916987,
      "d": 208.32954166666605,
      "v": 88
    },
    {
      "midi": 71,
      "hit": false,
      "t": 159016.4147916667,
      "d": 351.8736770833493,
      "v": 127
    },
    {
      "midi": 57,
      "hit": false,
      "t": 159018.95539583653,
      "d": 193.08591666666325,
      "v": 98
    },
    {
      "midi": 66,
      "hit": false,
      "t": 159020.2256979167,
      "d": 90.1914479166735,
      "v": 127
    },
    {
      "midi": 33,
      "hit": false,
      "t": 159021.4960000002,
      "d": 508.12083333334886,
      "v": 127
    },
    {
      "midi": 62,
      "hit": false,
      "t": 159029.1178125032,
      "d": 436.98391666670796,
      "v": 90
    },
    {
      "midi": 66,
      "hit": false,
      "t": 159038.00992708653,
      "d": 452.22754166668165,
      "v": 83
    },
    {
      "midi": 68,
      "hit": false,
      "t": 159064.68627083336,
      "d": 299.7912916666828,
      "v": 127
    },
    {
      "midi": 57,
      "hit": false,
      "t": 159257.7721875032,
      "d": 193.08591666669236,
      "v": 85
    },
    {
      "midi": 54,
      "hit": false,
      "t": 159270.47520833655,
      "d": 193.08591666669236,
      "v": 71
    },
    {
      "midi": 50,
      "hit": false,
      "t": 159283.1782291699,
      "d": 193.08591666666325,
      "v": 72
    },
    {
      "midi": 50,
      "hit": false,
      "t": 159486.4265625032,
      "d": 452.22754166665254,
      "v": 88
    },
    {
      "midi": 54,
      "hit": false,
      "t": 159488.96716666987,
      "d": 452.22754166665254,
      "v": 92
    },
    {
      "midi": 57,
      "hit": false,
      "t": 159491.50777083656,
      "d": 208.32954166666605,
      "v": 117
    },
    {
      "midi": 62,
      "hit": false,
      "t": 159494.0483750032,
      "d": 215.95135416666744,
      "v": 122
    },
    {
      "midi": 66,
      "hit": false,
      "t": 159496.58897916987,
      "d": 198.16712500000722,
      "v": 126
    },
    {
      "midi": 71,
      "hit": false,
      "t": 159497.85928125004,
      "d": 359.4954895833216,
      "v": 127
    },
    {
      "midi": 66,
      "hit": false,
      "t": 159500.3998854167,
      "d": 273.1149479166779,
      "v": 127
    },
    {
      "midi": 38,
      "hit": false,
      "t": 159509.2920000002,
      "d": 223.57316666666884,
      "v": 127
    },
    {
      "midi": 66,
      "hit": false,
      "t": 159727.78395833654,
      "d": 185.46410416666185,
      "v": 104
    },
    {
      "midi": 62,
      "hit": false,
      "t": 159737.9463750032,
      "d": 177.84229166666046,
      "v": 98
    },
    {
      "midi": 57,
      "hit": false,
      "t": 159750.64939583655,
      "d": 193.08591666663415,
      "v": 90
    },
    {
      "midi": 39,
      "hit": false,
      "t": 159753.1900000002,
      "d": 241.35739583332906,
      "v": 127
    },
    {
      "midi": 64,
      "hit": false,
      "t": 159931.0322916667,
      "d": 2435.16909375001,
      "v": 97
    },
    {
      "midi": 76,
      "hit": false,
      "t": 159958.9789374998,
      "d": 2012.1584999999905,
      "v": 90
    },
    {
      "midi": 88,
      "hit": false,
      "t": 159962.7898437498,
      "d": 2073.1330000000016,
      "v": 127
    },
    {
      "midi": 59,
      "hit": false,
      "t": 159962.78984375,
      "d": 2541.8744687500293,
      "v": 92
    },
    {
      "midi": 40,
      "hit": false,
      "t": 159964.06014583653,
      "d": 3945.5582708333095,
      "v": 127
    },
    {
      "midi": 47,
      "hit": false,
      "t": 159974.2225625032,
      "d": 3935.3958541666507,
      "v": 127
    },
    {
      "midi": 68,
      "hit": false,
      "t": 159979.30377083336,
      "d": 2398.330333333346,
      "v": 127
    },
    {
      "midi": 52,
      "hit": false,
      "t": 159984.38497916984,
      "d": 3925.233437499992,
      "v": 127
    },
    {
      "midi": 56,
      "hit": false,
      "t": 159994.5473958365,
      "d": 3915.071020833333,
      "v": 127
    },
    {
      "midi": 40,
      "hit": false,
      "t": 159997.0880000002,
      "d": 4359.676750000013,
      "v": 127
    },
    {
      "midi": 59,
      "hit": false,
      "t": 160004.70981250316,
      "d": 3904.908604166674,
      "v": 127
    },
    {
      "midi": 52,
      "hit": false,
      "t": 160728.78199999998,
      "d": 73.67752083332743,
      "v": 104
    },
    {
      "midi": 52,
      "hit": false,
      "t": 160850.73099999997,
      "d": 83.83993749998626,
      "v": 104
    },
    {
      "midi": 52,
      "hit": false,
      "t": 160972.67999999996,
      "d": 127.03020833333721,
      "v": 104
    },
    {
      "midi": 52,
      "hit": false,
      "t": 161216.57799999998,
      "d": 73.67752083332743,
      "v": 104
    },
    {
      "midi": 52,
      "hit": false,
      "t": 161338.52699999997,
      "d": 80.02903124998556,
      "v": 104
    },
    {
      "midi": 52,
      "hit": false,
      "t": 161460.47599999997,
      "d": 161.3283645833435,
      "v": 104
    },
    {
      "midi": 52,
      "hit": false,
      "t": 161948.27199999997,
      "d": 69.86661458332674,
      "v": 104
    },
    {
      "midi": 52,
      "hit": false,
      "t": 162070.22099999996,
      "d": 83.83993749998626,
      "v": 104
    },
    {
      "midi": 52,
      "hit": false,
      "t": 162192.16999999995,
      "d": 88.92114583333023,
      "v": 104
    },
    {
      "midi": 40,
      "hit": false,
      "t": 164374.54897916983,
      "d": 442.0651249999937,
      "v": 97
    },
    {
      "midi": 40,
      "hit": false,
      "t": 164387.2520000002,
      "d": 346.79246875000536,
      "v": 127
    },
    {
      "midi": 52,
      "hit": false,
      "t": 164425.36106250316,
      "d": 420.4699895833328,
      "v": 90
    },
    {
      "midi": 47,
      "hit": false,
      "t": 164509.2009999998,
      "d": 96.54295833330252,
      "v": 127
    },
    {
      "midi": 40,
      "hit": false,
      "t": 164513.0119062498,
      "d": 96.54295833330252,
      "v": 127
    },
    {
      "midi": 59,
      "hit": false,
      "t": 164515.55251041646,
      "d": 96.54295833330252,
      "v": 127
    },
    {
      "midi": 52,
      "hit": false,
      "t": 164519.36341666646,
      "d": 96.54295833330252,
      "v": 127
    },
    {
      "midi": 49,
      "hit": false,
      "t": 164581.60821874978,
      "d": 96.54295833330252,
      "v": 127
    },
    {
      "midi": 42,
      "hit": false,
      "t": 164585.41912499978,
      "d": 96.54295833330252,
      "v": 127
    },
    {
      "midi": 61,
      "hit": false,
      "t": 164587.95972916644,
      "d": 96.54295833330252,
      "v": 127
    },
    {
      "midi": 54,
      "hit": false,
      "t": 164591.77063541644,
      "d": 96.54295833330252,
      "v": 127
    },
    {
      "midi": 50,
      "hit": false,
      "t": 164655.28573958308,
      "d": 96.54295833333163,
      "v": 127
    },
    {
      "midi": 44,
      "hit": false,
      "t": 164659.09664583308,
      "d": 96.54295833333163,
      "v": 127
    },
    {
      "midi": 62,
      "hit": false,
      "t": 164661.63724999974,
      "d": 96.54295833333163,
      "v": 127
    },
    {
      "midi": 56,
      "hit": false,
      "t": 164665.44815624974,
      "d": 96.54295833333163,
      "v": 127
    },
    {
      "midi": 52,
      "hit": false,
      "t": 164728.9632604164,
      "d": 96.54295833333163,
      "v": 127
    },
    {
      "midi": 45,
      "hit": false,
      "t": 164732.7741666664,
      "d": 96.54295833333163,
      "v": 127
    },
    {
      "midi": 64,
      "hit": false,
      "t": 164735.31477083307,
      "d": 96.54295833333163,
      "v": 127
    },
    {
      "midi": 57,
      "hit": false,
      "t": 164739.12567708307,
      "d": 96.54295833333163,
      "v": 127
    },
    {
      "midi": 54,
      "hit": false,
      "t": 164802.64078124973,
      "d": 96.54295833333163,
      "v": 127
    },
    {
      "midi": 47,
      "hit": false,
      "t": 164806.45168749974,
      "d": 96.54295833333163,
      "v": 127
    },
    {
      "midi": 66,
      "hit": false,
      "t": 164808.9922916664,
      "d": 96.54295833333163,
      "v": 127
    },
    {
      "midi": 59,
      "hit": false,
      "t": 164812.8031979164,
      "d": 96.54295833333163,
      "v": 127
    },
    {
      "midi": 42,
      "hit": false,
      "t": 164839.47954166983,
      "d": 398.87485416664276,
      "v": 127
    },
    {
      "midi": 42,
      "hit": false,
      "t": 164875.0480000002,
      "d": 334.08944791666,
      "v": 127
    },
    {
      "midi": 56,
      "hit": false,
      "t": 164876.31830208306,
      "d": 96.54295833333163,
      "v": 127
    },
    {
      "midi": 49,
      "hit": false,
      "t": 164880.12920833306,
      "d": 96.54295833333163,
      "v": 127
    },
    {
      "midi": 68,
      "hit": false,
      "t": 164882.66981249972,
      "d": 96.54295833333163,
      "v": 127
    },
    {
      "midi": 61,
      "hit": false,
      "t": 164886.48071874972,
      "d": 96.54295833333163,
      "v": 127
    },
    {
      "midi": 54,
      "hit": false,
      "t": 164904.26494791982,
      "d": 376.0094166666677,
      "v": 100
    },
    {
      "midi": 57,
      "hit": false,
      "t": 164949.9958229164,
      "d": 96.54295833330252,
      "v": 127
    },
    {
      "midi": 50,
      "hit": false,
      "t": 164953.8067291664,
      "d": 96.54295833330252,
      "v": 127
    },
    {
      "midi": 69,
      "hit": false,
      "t": 164956.34733333305,
      "d": 96.54295833330252,
      "v": 127
    },
    {
      "midi": 62,
      "hit": false,
      "t": 164960.15823958305,
      "d": 96.54295833330252,
      "v": 127
    },
    {
      "midi": 59,
      "hit": false,
      "t": 165022.40304166637,
      "d": 96.54295833330252,
      "v": 127
    },
    {
      "midi": 52,
      "hit": false,
      "t": 165026.21394791637,
      "d": 96.54295833330252,
      "v": 127
    },
    {
      "midi": 71,
      "hit": false,
      "t": 165028.75455208303,
      "d": 96.54295833330252,
      "v": 127
    },
    {
      "midi": 64,
      "hit": false,
      "t": 165032.56545833303,
      "d": 96.54295833330252,
      "v": 127
    },
    {
      "midi": 61,
      "hit": false,
      "t": 165096.08056249967,
      "d": 96.54295833333163,
      "v": 127
    },
    {
      "midi": 54,
      "hit": false,
      "t": 165099.89146874967,
      "d": 96.54295833333163,
      "v": 127
    },
    {
      "midi": 73,
      "hit": false,
      "t": 165102.43207291633,
      "d": 96.54295833333163,
      "v": 127
    },
    {
      "midi": 66,
      "hit": false,
      "t": 165106.24297916633,
      "d": 96.54295833333163,
      "v": 127
    },
    {
      "midi": 62,
      "hit": false,
      "t": 165169.758083333,
      "d": 96.54295833333163,
      "v": 127
    },
    {
      "midi": 56,
      "hit": false,
      "t": 165173.568989583,
      "d": 96.54295833333163,
      "v": 127
    },
    {
      "midi": 74,
      "hit": false,
      "t": 165176.10959374966,
      "d": 96.54295833333163,
      "v": 127
    },
    {
      "midi": 68,
      "hit": false,
      "t": 165179.92049999966,
      "d": 96.54295833333163,
      "v": 127
    },
    {
      "midi": 64,
      "hit": false,
      "t": 165243.43560416633,
      "d": 96.54295833333163,
      "v": 127
    },
    {
      "midi": 57,
      "hit": false,
      "t": 165247.24651041633,
      "d": 96.54295833333163,
      "v": 127
    },
    {
      "midi": 76,
      "hit": false,
      "t": 165249.78711458298,
      "d": 96.54295833333163,
      "v": 127
    },
    {
      "midi": 69,
      "hit": false,
      "t": 165253.598020833,
      "d": 96.54295833333163,
      "v": 127
    },
    {
      "midi": 44,
      "hit": false,
      "t": 165308.2210104198,
      "d": 552.5814062499558,
      "v": 127
    },
    {
      "midi": 66,
      "hit": false,
      "t": 165317.11312499965,
      "d": 96.54295833333163,
      "v": 127
    },
    {
      "midi": 59,
      "hit": false,
      "t": 165320.92403124965,
      "d": 96.54295833333163,
      "v": 127
    },
    {
      "midi": 78,
      "hit": false,
      "t": 165323.4646354163,
      "d": 96.54295833333163,
      "v": 127
    },
    {
      "midi": 71,
      "hit": false,
      "t": 165327.2755416663,
      "d": 96.54295833333163,
      "v": 127
    },
    {
      "midi": 44,
      "hit": false,
      "t": 165362.84400000022,
      "d": 323.92703125000116,
      "v": 127
    },
    {
      "midi": 56,
      "hit": false,
      "t": 165365.3846041698,
      "d": 500.49902083328925,
      "v": 100
    },
    {
      "midi": 68,
      "hit": false,
      "t": 165390.79064583298,
      "d": 96.54295833330252,
      "v": 127
    },
    {
      "midi": 61,
      "hit": false,
      "t": 165394.60155208298,
      "d": 96.54295833330252,
      "v": 127
    },
    {
      "midi": 80,
      "hit": false,
      "t": 165397.14215624964,
      "d": 96.54295833330252,
      "v": 127
    },
    {
      "midi": 73,
      "hit": false,
      "t": 165400.95306249964,
      "d": 96.54295833330252,
      "v": 127
    },
    {
      "midi": 69,
      "hit": false,
      "t": 165463.19786458297,
      "d": 96.54295833330252,
      "v": 127
    },
    {
      "midi": 62,
      "hit": false,
      "t": 165467.00877083297,
      "d": 96.54295833330252,
      "v": 127
    },
    {
      "midi": 81,
      "hit": false,
      "t": 165469.54937499962,
      "d": 96.54295833330252,
      "v": 127
    },
    {
      "midi": 74,
      "hit": false,
      "t": 165473.36028124962,
      "d": 96.54295833330252,
      "v": 127
    },
    {
      "midi": 71,
      "hit": false,
      "t": 165536.87538541626,
      "d": 96.54295833333163,
      "v": 127
    },
    {
      "midi": 64,
      "hit": false,
      "t": 165540.68629166626,
      "d": 96.54295833333163,
      "v": 127
    },
    {
      "midi": 83,
      "hit": false,
      "t": 165543.22689583292,
      "d": 96.54295833333163,
      "v": 127
    },
    {
      "midi": 76,
      "hit": false,
      "t": 165547.03780208292,
      "d": 96.54295833333163,
      "v": 127
    },
    {
      "midi": 61,
      "hit": false,
      "t": 165606.74199999994,
      "d": 127.03020833333721,
      "v": 127
    },
    {
      "midi": 73,
      "hit": false,
      "t": 165610.5529062496,
      "d": 96.54295833333163,
      "v": 127
    },
    {
      "midi": 66,
      "hit": false,
      "t": 165614.3638124996,
      "d": 96.54295833333163,
      "v": 127
    },
    {
      "midi": 85,
      "hit": false,
      "t": 165616.90441666625,
      "d": 96.54295833333163,
      "v": 127
    },
    {
      "midi": 78,
      "hit": false,
      "t": 165620.71532291625,
      "d": 96.54295833333163,
      "v": 127
    },
    {
      "midi": 74,
      "hit": false,
      "t": 165684.23042708292,
      "d": 96.54295833333163,
      "v": 127
    },
    {
      "midi": 68,
      "hit": false,
      "t": 165688.04133333292,
      "d": 96.54295833333163,
      "v": 127
    },
    {
      "midi": 86,
      "hit": false,
      "t": 165690.58193749958,
      "d": 96.54295833333163,
      "v": 127
    },
    {
      "midi": 80,
      "hit": false,
      "t": 165694.39284374958,
      "d": 96.54295833333163,
      "v": 127
    },
    {
      "midi": 45,
      "hit": false,
      "t": 165817.61214583647,
      "d": 447.1463333332795,
      "v": 97
    },
    {
      "midi": 52,
      "hit": false,
      "t": 165827.77456250312,
      "d": 447.1463333332795,
      "v": 90
    },
    {
      "midi": 57,
      "hit": false,
      "t": 165837.93697916978,
      "d": 193.08591666666325,
      "v": 100
    },
    {
      "midi": 61,
      "hit": false,
      "t": 165848.09939583644,
      "d": 193.08591666666325,
      "v": 92
    },
    {
      "midi": 85,
      "hit": false,
      "t": 165850.63999999958,
      "d": 2322.112208333332,
      "v": 127
    },
    {
      "midi": 88,
      "hit": false,
      "t": 165850.63999999958,
      "d": 2336.0855312499916,
      "v": 127
    },
    {
      "midi": 76,
      "hit": false,
      "t": 165850.63999999958,
      "d": 2385.6273125000007,
      "v": 127
    },
    {
      "midi": 57,
      "hit": false,
      "t": 165850.63999999958,
      "d": 3719.4445000000414,
      "v": 127
    },
    {
      "midi": 64,
      "hit": false,
      "t": 165850.63999999958,
      "d": 3728.336614583386,
      "v": 127
    },
    {
      "midi": 61,
      "hit": false,
      "t": 165850.63999999958,
      "d": 3749.931750000047,
      "v": 127
    },
    {
      "midi": 61,
      "hit": false,
      "t": 165850.63999999996,
      "d": 124.48960416667978,
      "v": 127
    },
    {
      "midi": 45,
      "hit": false,
      "t": 165850.64000000022,
      "d": 577.9874479166756,
      "v": 127
    },
    {
      "midi": 64,
      "hit": false,
      "t": 165858.2618125031,
      "d": 193.08591666666325,
      "v": 83
    },
    {
      "midi": 64,
      "hit": false,
      "t": 166058.96954166977,
      "d": 238.81679166664253,
      "v": 82
    },
    {
      "midi": 61,
      "hit": false,
      "t": 166066.59135416977,
      "d": 238.81679166664253,
      "v": 81
    },
    {
      "midi": 57,
      "hit": false,
      "t": 166076.75377083643,
      "d": 223.57316666663974,
      "v": 80
    },
    {
      "midi": 61,
      "hit": false,
      "t": 166094.53799999997,
      "d": 114.32718749999185,
      "v": 127
    },
    {
      "midi": 45,
      "hit": false,
      "t": 166325.73297916976,
      "d": 442.0651249999646,
      "v": 88
    },
    {
      "midi": 52,
      "hit": false,
      "t": 166328.2735833364,
      "d": 467.47116666665534,
      "v": 92
    },
    {
      "midi": 57,
      "hit": false,
      "t": 166330.81418750307,
      "d": 444.60572916665114,
      "v": 117
    },
    {
      "midi": 61,
      "hit": false,
      "t": 166333.35479166973,
      "d": 436.98391666664975,
      "v": 122
    },
    {
      "midi": 64,
      "hit": false,
      "t": 166335.89539583639,
      "d": 452.22754166668165,
      "v": 126
    },
    {
      "midi": 61,
      "hit": false,
      "t": 166338.43599999996,
      "d": 120.67869791667908,
      "v": 127
    },
    {
      "midi": 61,
      "hit": false,
      "t": 166582.33399999997,
      "d": 119.40839583333582,
      "v": 127
    },
    {
      "midi": 45,
      "hit": false,
      "t": 166582.33400000024,
      "d": 232.4652812500135,
      "v": 127
    },
    {
      "midi": 45,
      "hit": false,
      "t": 166803.36656250307,
      "d": 231.19497916667024,
      "v": 95
    },
    {
      "midi": 52,
      "hit": false,
      "t": 166813.52897916973,
      "d": 208.32954166666605,
      "v": 88
    },
    {
      "midi": 57,
      "hit": false,
      "t": 166823.6913958364,
      "d": 193.08591666666325,
      "v": 98
    },
    {
      "midi": 61,
      "hit": false,
      "t": 166826.232,
      "d": 118.13809374999255,
      "v": 127
    },
    {
      "midi": 40,
      "hit": false,
      "t": 166826.23200000025,
      "d": 641.5025520833442,
      "v": 127
    },
    {
      "midi": 61,
      "hit": false,
      "t": 166833.85381250305,
      "d": 436.98391666670796,
      "v": 90
    },
    {
      "midi": 64,
      "hit": false,
      "t": 166842.7459270864,
      "d": 452.22754166668165,
      "v": 83
    },
    {
      "midi": 57,
      "hit": false,
      "t": 167062.50818750306,
      "d": 193.08591666669236,
      "v": 85
    },
    {
      "midi": 61,
      "hit": false,
      "t": 167070.12999999998,
      "d": 121.94899999999325,
      "v": 127
    },
    {
      "midi": 52,
      "hit": false,
      "t": 167075.2112083364,
      "d": 193.08591666669236,
      "v": 71
    },
    {
      "midi": 45,
      "hit": false,
      "t": 167087.91422916975,
      "d": 193.08591666666325,
      "v": 72
    },
    {
      "midi": 45,
      "hit": false,
      "t": 167291.16256250307,
      "d": 452.22754166665254,
      "v": 88
    },
    {
      "midi": 52,
      "hit": false,
      "t": 167293.70316666973,
      "d": 452.22754166665254,
      "v": 92
    },
    {
      "midi": 57,
      "hit": false,
      "t": 167296.24377083642,
      "d": 208.32954166666605,
      "v": 117
    },
    {
      "midi": 61,
      "hit": false,
      "t": 167298.78437500307,
      "d": 215.95135416666744,
      "v": 122
    },
    {
      "midi": 64,
      "hit": false,
      "t": 167301.32497916973,
      "d": 198.16712500000722,
      "v": 126
    },
    {
      "midi": 64,
      "hit": false,
      "t": 167532.5199583364,
      "d": 185.46410416666185,
      "v": 104
    },
    {
      "midi": 61,
      "hit": false,
      "t": 167542.68237500306,
      "d": 177.84229166666046,
      "v": 98
    },
    {
      "midi": 57,
      "hit": false,
      "t": 167555.3853958364,
      "d": 193.08591666663415,
      "v": 90
    },
    {
      "midi": 61,
      "hit": false,
      "t": 167557.92599999998,
      "d": 109.24597916667699,
      "v": 127
    },
    {
      "midi": 40,
      "hit": false,
      "t": 167557.92600000027,
      "d": 224.8434687500121,
      "v": 127
    },
    {
      "midi": 45,
      "hit": false,
      "t": 167768.7961458364,
      "d": 447.1463333332795,
      "v": 97
    },
    {
      "midi": 52,
      "hit": false,
      "t": 167778.95856250304,
      "d": 447.1463333332795,
      "v": 90
    },
    {
      "midi": 57,
      "hit": false,
      "t": 167789.1209791697,
      "d": 193.08591666666325,
      "v": 100
    },
    {
      "midi": 61,
      "hit": false,
      "t": 167799.28339583636,
      "d": 193.08591666666325,
      "v": 92
    },
    {
      "midi": 61,
      "hit": false,
      "t": 167801.824,
      "d": 118.13809374999255,
      "v": 127
    },
    {
      "midi": 45,
      "hit": false,
      "t": 167801.82400000028,
      "d": 590.6904687499919,
      "v": 127
    },
    {
      "midi": 64,
      "hit": false,
      "t": 167809.44581250302,
      "d": 193.08591666666325,
      "v": 83
    },
    {
      "midi": 64,
      "hit": false,
      "t": 168010.1535416697,
      "d": 238.81679166664253,
      "v": 82
    },
    {
      "midi": 61,
      "hit": false,
      "t": 168017.7753541697,
      "d": 238.81679166664253,
      "v": 81
    },
    {
      "midi": 57,
      "hit": false,
      "t": 168027.93777083635,
      "d": 223.57316666663974,
      "v": 80
    },
    {
      "midi": 61,
      "hit": false,
      "t": 168045.72199999998,
      "d": 110.51628124999115,
      "v": 127
    },
    {
      "midi": 73,
      "hit": false,
      "t": 168245.15942708292,
      "d": 400.14515625001513,
      "v": 112
    },
    {
      "midi": 85,
      "hit": false,
      "t": 168257.86244791627,
      "d": 368.3876041666663,
      "v": 127
    },
    {
      "midi": 81,
      "hit": false,
      "t": 168264.21395833293,
      "d": 370.9282083333528,
      "v": 127
    },
    {
      "midi": 45,
      "hit": false,
      "t": 168276.91697916968,
      "d": 442.0651249999646,
      "v": 88
    },
    {
      "midi": 52,
      "hit": false,
      "t": 168279.45758333633,
      "d": 467.47116666665534,
      "v": 92
    },
    {
      "midi": 57,
      "hit": false,
      "t": 168281.998187503,
      "d": 444.60572916665114,
      "v": 117
    },
    {
      "midi": 61,
      "hit": false,
      "t": 168284.53879166965,
      "d": 436.98391666664975,
      "v": 122
    },
    {
      "midi": 64,
      "hit": false,
      "t": 168287.0793958363,
      "d": 452.22754166668165,
      "v": 126
    },
    {
      "midi": 61,
      "hit": false,
      "t": 168289.61999999997,
      "d": 105.43507291667629,
      "v": 127
    },
    {
      "midi": 61,
      "hit": false,
      "t": 168533.51799999998,
      "d": 143.54413541665417,
      "v": 127
    },
    {
      "midi": 45,
      "hit": false,
      "t": 168533.51800000027,
      "d": 240.0870937499858,
      "v": 127
    },
    {
      "midi": 74,
      "hit": false,
      "t": 168706.27908333295,
      "d": 453.4978437499958,
      "v": 100
    },
    {
      "midi": 83,
      "hit": false,
      "t": 168721.52270833295,
      "d": 396.33425000001444,
      "v": 127
    },
    {
      "midi": 86,
      "hit": false,
      "t": 168721.52270833295,
      "d": 402.68576041667257,
      "v": 127
    },
    {
      "midi": 45,
      "hit": false,
      "t": 168754.550562503,
      "d": 231.19497916667024,
      "v": 95
    },
    {
      "midi": 52,
      "hit": false,
      "t": 168764.71297916965,
      "d": 208.32954166666605,
      "v": 88
    },
    {
      "midi": 57,
      "hit": false,
      "t": 168774.8753958363,
      "d": 193.08591666666325,
      "v": 98
    },
    {
      "midi": 59,
      "hit": false,
      "t": 168777.41599999997,
      "d": 194.35621875000652,
      "v": 127
    },
    {
      "midi": 40,
      "hit": false,
      "t": 168777.41600000026,
      "d": 532.2565729166672,
      "v": 127
    },
    {
      "midi": 61,
      "hit": false,
      "t": 168785.03781250297,
      "d": 436.98391666670796,
      "v": 90
    },
    {
      "midi": 64,
      "hit": false,
      "t": 168793.9299270863,
      "d": 452.22754166668165,
      "v": 83
    },
    {
      "midi": 57,
      "hit": false,
      "t": 169013.69218750298,
      "d": 193.08591666669236,
      "v": 85
    },
    {
      "midi": 57,
      "hit": false,
      "t": 169021.31399999998,
      "d": 393.7936458333279,
      "v": 127
    },
    {
      "midi": 52,
      "hit": false,
      "t": 169026.39520833633,
      "d": 193.08591666669236,
      "v": 71
    },
    {
      "midi": 45,
      "hit": false,
      "t": 169039.09822916967,
      "d": 193.08591666666325,
      "v": 72
    },
    {
      "midi": 88,
      "hit": false,
      "t": 169197.88598958295,
      "d": 450.9572395833384,
      "v": 127
    },
    {
      "midi": 76,
      "hit": false,
      "t": 169197.88598958295,
      "d": 462.3899583333405,
      "v": 127
    },
    {
      "midi": 85,
      "hit": false,
      "t": 169200.4265937496,
      "d": 447.1463333333377,
      "v": 127
    },
    {
      "midi": 45,
      "hit": false,
      "t": 169242.346562503,
      "d": 452.22754166665254,
      "v": 88
    },
    {
      "midi": 52,
      "hit": false,
      "t": 169244.88716666965,
      "d": 452.22754166665254,
      "v": 92
    },
    {
      "midi": 57,
      "hit": false,
      "t": 169247.42777083634,
      "d": 208.32954166666605,
      "v": 117
    },
    {
      "midi": 61,
      "hit": false,
      "t": 169249.968375003,
      "d": 215.95135416666744,
      "v": 122
    },
    {
      "midi": 64,
      "hit": false,
      "t": 169252.50897916965,
      "d": 198.16712500000722,
      "v": 126
    },
    {
      "midi": 45,
      "hit": false,
      "t": 169265.21200000026,
      "d": 233.73558333332767,
      "v": 127
    },
    {
      "midi": 64,
      "hit": false,
      "t": 169483.70395833632,
      "d": 185.46410416666185,
      "v": 104
    },
    {
      "midi": 61,
      "hit": false,
      "t": 169493.86637500298,
      "d": 177.84229166666046,
      "v": 98
    },
    {
      "midi": 57,
      "hit": false,
      "t": 169506.56939583633,
      "d": 193.08591666663415,
      "v": 90
    },
    {
      "midi": 62,
      "hit": false,
      "t": 169509.11,
      "d": 92.73205208333093,
      "v": 127
    },
    {
      "midi": 40,
      "hit": false,
      "t": 169509.11000000025,
      "d": 221.0325625000114,
      "v": 127
    },
    {
      "midi": 62,
      "hit": false,
      "t": 169680.60078124964,
      "d": 3851.5559166666644,
      "v": 127
    },
    {
      "midi": 57,
      "hit": false,
      "t": 169681.87108333298,
      "d": 3842.6638020833198,
      "v": 127
    },
    {
      "midi": 66,
      "hit": false,
      "t": 169685.68198958298,
      "d": 3846.4747083333205,
      "v": 127
    },
    {
      "midi": 50,
      "hit": false,
      "t": 169719.9801458363,
      "d": 447.1463333332795,
      "v": 97
    },
    {
      "midi": 86,
      "hit": false,
      "t": 169726.33165624965,
      "d": 3913.8007187499898,
      "v": 100
    },
    {
      "midi": 81,
      "hit": false,
      "t": 169728.8722604163,
      "d": 3908.719510416675,
      "v": 112
    },
    {
      "midi": 54,
      "hit": false,
      "t": 169730.14256250297,
      "d": 447.1463333332795,
      "v": 90
    },
    {
      "midi": 57,
      "hit": false,
      "t": 169740.30497916962,
      "d": 193.08591666666325,
      "v": 100
    },
    {
      "midi": 62,
      "hit": false,
      "t": 169750.46739583628,
      "d": 193.08591666666325,
      "v": 92
    },
    {
      "midi": 62,
      "hit": false,
      "t": 169753.00799999997,
      "d": 90.1914479166735,
      "v": 127
    },
    {
      "midi": 38,
      "hit": false,
      "t": 169753.00800000026,
      "d": 612.2856041666528,
      "v": 127
    },
    {
      "midi": 66,
      "hit": false,
      "t": 169760.62981250294,
      "d": 193.08591666666325,
      "v": 83
    },
    {
      "midi": 66,
      "hit": false,
      "t": 169961.3375416696,
      "d": 238.81679166664253,
      "v": 82
    },
    {
      "midi": 62,
      "hit": false,
      "t": 169968.9593541696,
      "d": 238.81679166664253,
      "v": 81
    },
    {
      "midi": 57,
      "hit": false,
      "t": 169979.12177083627,
      "d": 223.57316666663974,
      "v": 80
    },
    {
      "midi": 62,
      "hit": false,
      "t": 169996.906,
      "d": 92.73205208333093,
      "v": 127
    },
    {
      "midi": 50,
      "hit": false,
      "t": 170228.1009791696,
      "d": 442.0651249999646,
      "v": 88
    },
    {
      "midi": 54,
      "hit": false,
      "t": 170230.64158333626,
      "d": 467.47116666665534,
      "v": 92
    },
    {
      "midi": 57,
      "hit": false,
      "t": 170233.1821875029,
      "d": 444.60572916665114,
      "v": 117
    },
    {
      "midi": 62,
      "hit": false,
      "t": 170235.72279166957,
      "d": 436.98391666664975,
      "v": 122
    },
    {
      "midi": 66,
      "hit": false,
      "t": 170238.26339583623,
      "d": 452.22754166668165,
      "v": 126
    },
    {
      "midi": 62,
      "hit": false,
      "t": 170240.80399999997,
      "d": 100.35386458333232,
      "v": 127
    },
    {
      "midi": 62,
      "hit": false,
      "t": 170484.70199999996,
      "d": 96.54295833333163,
      "v": 127
    },
    {
      "midi": 38,
      "hit": false,
      "t": 170484.70200000025,
      "d": 193.08591666666325,
      "v": 127
    },
    {
      "midi": 50,
      "hit": false,
      "t": 170705.7345625029,
      "d": 231.19497916667024,
      "v": 95
    },
    {
      "midi": 54,
      "hit": false,
      "t": 170715.89697916957,
      "d": 208.32954166666605,
      "v": 88
    },
    {
      "midi": 57,
      "hit": false,
      "t": 170726.05939583623,
      "d": 193.08591666666325,
      "v": 98
    },
    {
      "midi": 62,
      "hit": false,
      "t": 170728.59999999995,
      "d": 114.32718749999185,
      "v": 127
    },
    {
      "midi": 33,
      "hit": false,
      "t": 170728.60000000024,
      "d": 612.2856041666528,
      "v": 127
    },
    {
      "midi": 62,
      "hit": false,
      "t": 170736.2218125029,
      "d": 436.98391666670796,
      "v": 90
    },
    {
      "midi": 66,
      "hit": false,
      "t": 170745.11392708623,
      "d": 452.22754166668165,
      "v": 83
    },
    {
      "midi": 57,
      "hit": false,
      "t": 170964.8761875029,
      "d": 193.08591666669236,
      "v": 85
    },
    {
      "midi": 62,
      "hit": false,
      "t": 170972.49799999993,
      "d": 107.97567708333372,
      "v": 127
    },
    {
      "midi": 54,
      "hit": false,
      "t": 170977.57920833625,
      "d": 193.08591666669236,
      "v": 71
    },
    {
      "midi": 50,
      "hit": false,
      "t": 170990.2822291696,
      "d": 193.08591666666325,
      "v": 72
    },
    {
      "midi": 50,
      "hit": false,
      "t": 171193.5305625029,
      "d": 452.22754166665254,
      "v": 88
    },
    {
      "midi": 54,
      "hit": false,
      "t": 171196.07116666957,
      "d": 452.22754166665254,
      "v": 92
    },
    {
      "midi": 57,
      "hit": false,
      "t": 171198.61177083626,
      "d": 208.32954166666605,
      "v": 117
    },
    {
      "midi": 62,
      "hit": false,
      "t": 171201.15237500292,
      "d": 215.95135416666744,
      "v": 122
    },
    {
      "midi": 66,
      "hit": false,
      "t": 171203.69297916957,
      "d": 198.16712500000722,
      "v": 126
    },
    {
      "midi": 62,
      "hit": false,
      "t": 171216.39599999992,
      "d": 113.05688541667769,
      "v": 127
    },
    {
      "midi": 66,
      "hit": false,
      "t": 171434.88795833624,
      "d": 185.46410416666185,
      "v": 104
    },
    {
      "midi": 62,
      "hit": false,
      "t": 171445.0503750029,
      "d": 177.84229166666046,
      "v": 98
    },
    {
      "midi": 57,
      "hit": false,
      "t": 171457.75339583625,
      "d": 193.08591666663415,
      "v": 90
    },
    {
      "midi": 62,
      "hit": false,
      "t": 171460.29399999994,
      "d": 101.62416666667559,
      "v": 127
    },
    {
      "midi": 33,
      "hit": false,
      "t": 171460.29400000023,
      "d": 235.00588541667094,
      "v": 127
    },
    {
      "midi": 50,
      "hit": false,
      "t": 171671.16414583623,
      "d": 447.1463333332795,
      "v": 97
    },
    {
      "midi": 54,
      "hit": false,
      "t": 171681.3265625029,
      "d": 447.1463333332795,
      "v": 90
    },
    {
      "midi": 57,
      "hit": false,
      "t": 171691.48897916955,
      "d": 193.08591666666325,
      "v": 100
    },
    {
      "midi": 62,
      "hit": false,
      "t": 171701.6513958362,
      "d": 193.08591666666325,
      "v": 92
    },
    {
      "midi": 62,
      "hit": false,
      "t": 171704.19199999995,
      "d": 97.8132604166749,
      "v": 127
    },
    {
      "midi": 38,
      "hit": false,
      "t": 171704.19200000024,
      "d": 556.3923124999856,
      "v": 127
    },
    {
      "midi": 66,
      "hit": false,
      "t": 171711.81381250286,
      "d": 193.08591666666325,
      "v": 83
    },
    {
      "midi": 66,
      "hit": false,
      "t": 171912.52154166953,
      "d": 238.81679166664253,
      "v": 82
    },
    {
      "midi": 62,
      "hit": false,
      "t": 171920.14335416953,
      "d": 238.81679166664253,
      "v": 81
    },
    {
      "midi": 57,
      "hit": false,
      "t": 171930.3057708362,
      "d": 223.57316666663974,
      "v": 80
    },
    {
      "midi": 62,
      "hit": false,
      "t": 171948.08999999997,
      "d": 101.62416666667559,
      "v": 127
    },
    {
      "midi": 50,
      "hit": false,
      "t": 172179.28497916952,
      "d": 442.0651249999646,
      "v": 88
    },
    {
      "midi": 54,
      "hit": false,
      "t": 172181.82558333618,
      "d": 467.47116666665534,
      "v": 92
    },
    {
      "midi": 57,
      "hit": false,
      "t": 172184.36618750283,
      "d": 444.60572916665114,
      "v": 117
    },
    {
      "midi": 62,
      "hit": false,
      "t": 172186.9067916695,
      "d": 436.98391666664975,
      "v": 122
    },
    {
      "midi": 66,
      "hit": false,
      "t": 172189.44739583615,
      "d": 452.22754166668165,
      "v": 126
    },
    {
      "midi": 62,
      "hit": false,
      "t": 172191.98799999998,
      "d": 110.51628124999115,
      "v": 127
    },
    {
      "midi": 62,
      "hit": false,
      "t": 172435.88599999997,
      "d": 113.05688541667769,
      "v": 127
    },
    {
      "midi": 38,
      "hit": false,
      "t": 172435.88600000023,
      "d": 201.97803125000792,
      "v": 127
    },
    {
      "midi": 50,
      "hit": false,
      "t": 172656.91856250283,
      "d": 231.19497916667024,
      "v": 95
    },
    {
      "midi": 54,
      "hit": false,
      "t": 172667.0809791695,
      "d": 208.32954166666605,
      "v": 88
    },
    {
      "midi": 57,
      "hit": false,
      "t": 172677.24339583615,
      "d": 193.08591666666325,
      "v": 98
    },
    {
      "midi": 62,
      "hit": false,
      "t": 172679.78399999999,
      "d": 443.335427083337,
      "v": 127
    },
    {
      "midi": 33,
      "hit": false,
      "t": 172679.78400000025,
      "d": 508.12083333334886,
      "v": 127
    },
    {
      "midi": 62,
      "hit": false,
      "t": 172687.4058125028,
      "d": 436.98391666670796,
      "v": 90
    },
    {
      "midi": 66,
      "hit": false,
      "t": 172696.29792708615,
      "d": 452.22754166668165,
      "v": 83
    },
    {
      "midi": 57,
      "hit": false,
      "t": 172916.06018750282,
      "d": 193.08591666669236,
      "v": 85
    },
    {
      "midi": 54,
      "hit": false,
      "t": 172928.76320833617,
      "d": 193.08591666669236,
      "v": 71
    },
    {
      "midi": 50,
      "hit": false,
      "t": 172941.4662291695,
      "d": 193.08591666666325,
      "v": 72
    },
    {
      "midi": 50,
      "hit": false,
      "t": 173144.71456250284,
      "d": 452.22754166665254,
      "v": 88
    },
    {
      "midi": 54,
      "hit": false,
      "t": 173147.2551666695,
      "d": 452.22754166665254,
      "v": 92
    },
    {
      "midi": 57,
      "hit": false,
      "t": 173149.79577083618,
      "d": 208.32954166666605,
      "v": 117
    },
    {
      "midi": 62,
      "hit": false,
      "t": 173152.33637500284,
      "d": 215.95135416666744,
      "v": 122
    },
    {
      "midi": 66,
      "hit": false,
      "t": 173154.8769791695,
      "d": 198.16712500000722,
      "v": 126
    },
    {
      "midi": 61,
      "hit": false,
      "t": 173167.58,
      "d": 158.78776041665697,
      "v": 127
    },
    {
      "midi": 38,
      "hit": false,
      "t": 173167.58000000025,
      "d": 223.57316666666884,
      "v": 127
    },
    {
      "midi": 66,
      "hit": false,
      "t": 173386.07195833616,
      "d": 185.46410416666185,
      "v": 104
    },
    {
      "midi": 62,
      "hit": false,
      "t": 173396.23437500282,
      "d": 177.84229166666046,
      "v": 98
    },
    {
      "midi": 57,
      "hit": false,
      "t": 173408.93739583617,
      "d": 193.08591666663415,
      "v": 90
    },
    {
      "midi": 62,
      "hit": false,
      "t": 173411.47799999997,
      "d": 137.19262499999604,
      "v": 127
    },
    {
      "midi": 39,
      "hit": false,
      "t": 173411.47800000026,
      "d": 241.35739583332906,
      "v": 127
    },
    {
      "midi": 80,
      "hit": false,
      "t": 173605.83421874963,
      "d": 2689.229510416684,
      "v": 69
    },
    {
      "midi": 68,
      "hit": false,
      "t": 173614.72633333298,
      "d": 3902.3679999999877,
      "v": 127
    },
    {
      "midi": 59,
      "hit": false,
      "t": 173617.26693749963,
      "d": 3902.3679999999877,
      "v": 127
    },
    {
      "midi": 76,
      "hit": false,
      "t": 173618.53723958298,
      "d": 2690.4998124999984,
      "v": 68
    },
    {
      "midi": 40,
      "hit": false,
      "t": 173622.34814583615,
      "d": 447.1463333332795,
      "v": 80
    },
    {
      "midi": 47,
      "hit": false,
      "t": 173632.5105625028,
      "d": 447.1463333332795,
      "v": 90
    },
    {
      "midi": 52,
      "hit": false,
      "t": 173642.67297916947,
      "d": 193.08591666666325,
      "v": 83
    },
    {
      "midi": 56,
      "hit": false,
      "t": 173652.83539583613,
      "d": 193.08591666666325,
      "v": 92
    },
    {
      "midi": 64,
      "hit": false,
      "t": 173655.37599999996,
      "d": 97.8132604166749,
      "v": 127
    },
    {
      "midi": 40,
      "hit": false,
      "t": 173655.37600000025,
      "d": 566.5547291666735,
      "v": 127
    },
    {
      "midi": 59,
      "hit": false,
      "t": 173662.99781250278,
      "d": 193.08591666666325,
      "v": 83
    },
    {
      "midi": 59,
      "hit": false,
      "t": 173863.70554166945,
      "d": 238.81679166664253,
      "v": 82
    },
    {
      "midi": 56,
      "hit": false,
      "t": 173871.32735416945,
      "d": 238.81679166664253,
      "v": 81
    },
    {
      "midi": 52,
      "hit": false,
      "t": 173881.4897708361,
      "d": 223.57316666663974,
      "v": 66
    },
    {
      "midi": 64,
      "hit": false,
      "t": 173899.27399999998,
      "d": 118.13809374999255,
      "v": 127
    },
    {
      "midi": 40,
      "hit": false,
      "t": 174130.46897916944,
      "d": 442.0651249999646,
      "v": 73
    },
    {
      "midi": 47,
      "hit": false,
      "t": 174133.0095833361,
      "d": 467.47116666665534,
      "v": 92
    },
    {
      "midi": 52,
      "hit": false,
      "t": 174135.55018750275,
      "d": 444.60572916665114,
      "v": 97
    },
    {
      "midi": 56,
      "hit": false,
      "t": 174138.0907916694,
      "d": 436.98391666664975,
      "v": 122
    },
    {
      "midi": 59,
      "hit": false,
      "t": 174140.63139583607,
      "d": 452.22754166668165,
      "v": 126
    },
    {
      "midi": 64,
      "hit": false,
      "t": 174143.17199999996,
      "d": 317.57552083334303,
      "v": 127
    },
    {
      "midi": 40,
      "hit": false,
      "t": 174387.07000000027,
      "d": 219.76226041666814,
      "v": 127
    },
    {
      "midi": 40,
      "hit": false,
      "t": 174608.10256250275,
      "d": 231.19497916667024,
      "v": 79
    },
    {
      "midi": 47,
      "hit": false,
      "t": 174618.2649791694,
      "d": 208.32954166666605,
      "v": 88
    },
    {
      "midi": 52,
      "hit": false,
      "t": 174628.42739583607,
      "d": 193.08591666666325,
      "v": 81
    },
    {
      "midi": 64,
      "hit": false,
      "t": 174630.96799999996,
      "d": 327.73793750000186,
      "v": 127
    },
    {
      "midi": 35,
      "hit": false,
      "t": 174630.96800000028,
      "d": 570.3656354166742,
      "v": 127
    },
    {
      "midi": 56,
      "hit": false,
      "t": 174638.58981250273,
      "d": 436.98391666670796,
      "v": 90
    },
    {
      "midi": 59,
      "hit": false,
      "t": 174647.48192708608,
      "d": 452.22754166668165,
      "v": 83
    },
    {
      "midi": 52,
      "hit": false,
      "t": 174867.24418750274,
      "d": 193.08591666669236,
      "v": 70
    },
    {
      "midi": 47,
      "hit": false,
      "t": 174879.9472083361,
      "d": 193.08591666669236,
      "v": 71
    },
    {
      "midi": 40,
      "hit": false,
      "t": 174892.65022916943,
      "d": 193.08591666666325,
      "v": 60
    },
    {
      "midi": 40,
      "hit": false,
      "t": 175095.89856250276,
      "d": 452.22754166665254,
      "v": 73
    },
    {
      "midi": 47,
      "hit": false,
      "t": 175098.4391666694,
      "d": 452.22754166665254,
      "v": 92
    },
    {
      "midi": 52,
      "hit": false,
      "t": 175100.9797708361,
      "d": 208.32954166666605,
      "v": 97
    },
    {
      "midi": 56,
      "hit": false,
      "t": 175103.52037500276,
      "d": 215.95135416666744,
      "v": 122
    },
    {
      "midi": 59,
      "hit": false,
      "t": 175106.06097916942,
      "d": 198.16712500000722,
      "v": 126
    },
    {
      "midi": 64,
      "hit": false,
      "t": 175118.76399999997,
      "d": 104.16477083333302,
      "v": 127
    },
    {
      "midi": 59,
      "hit": false,
      "t": 175337.25595833609,
      "d": 185.46410416666185,
      "v": 104
    },
    {
      "midi": 56,
      "hit": false,
      "t": 175347.41837500274,
      "d": 177.84229166666046,
      "v": 98
    },
    {
      "midi": 52,
      "hit": false,
      "t": 175360.1213958361,
      "d": 193.08591666663415,
      "v": 75
    },
    {
      "midi": 64,
      "hit": false,
      "t": 175362.66199999995,
      "d": 99.08356249998906,
      "v": 127
    },
    {
      "midi": 35,
      "hit": false,
      "t": 175362.6620000003,
      "d": 222.30286458332557,
      "v": 127
    },
    {
      "midi": 40,
      "hit": false,
      "t": 175573.53214583607,
      "d": 447.1463333332795,
      "v": 80
    },
    {
      "midi": 47,
      "hit": false,
      "t": 175583.69456250273,
      "d": 447.1463333332795,
      "v": 90
    },
    {
      "midi": 52,
      "hit": false,
      "t": 175593.8569791694,
      "d": 193.08591666666325,
      "v": 83
    },
    {
      "midi": 56,
      "hit": false,
      "t": 175604.01939583605,
      "d": 193.08591666666325,
      "v": 92
    },
    {
      "midi": 64,
      "hit": false,
      "t": 175606.55999999994,
      "d": 105.43507291667629,
      "v": 127
    },
    {
      "midi": 40,
      "hit": false,
      "t": 175606.5600000003,
      "d": 584.3389583333337,
      "v": 127
    },
    {
      "midi": 59,
      "hit": false,
      "t": 175614.1818125027,
      "d": 193.08591666666325,
      "v": 83
    },
    {
      "midi": 59,
      "hit": false,
      "t": 175814.88954166937,
      "d": 238.81679166664253,
      "v": 82
    },
    {
      "midi": 56,
      "hit": false,
      "t": 175822.51135416937,
      "d": 238.81679166664253,
      "v": 81
    },
    {
      "midi": 52,
      "hit": false,
      "t": 175832.67377083603,
      "d": 223.57316666663974,
      "v": 66
    },
    {
      "midi": 64,
      "hit": false,
      "t": 175850.45799999996,
      "d": 100.35386458333232,
      "v": 127
    },
    {
      "midi": 40,
      "hit": false,
      "t": 176081.65297916936,
      "d": 442.0651249999646,
      "v": 73
    },
    {
      "midi": 47,
      "hit": false,
      "t": 176084.19358333602,
      "d": 467.47116666665534,
      "v": 92
    },
    {
      "midi": 52,
      "hit": false,
      "t": 176086.73418750268,
      "d": 444.60572916665114,
      "v": 97
    },
    {
      "midi": 56,
      "hit": false,
      "t": 176089.27479166933,
      "d": 436.98391666664975,
      "v": 122
    },
    {
      "midi": 59,
      "hit": false,
      "t": 176091.815395836,
      "d": 452.22754166668165,
      "v": 126
    },
    {
      "midi": 64,
      "hit": false,
      "t": 176094.35599999994,
      "d": 229.92467708332697,
      "v": 127
    },
    {
      "midi": 40,
      "hit": false,
      "t": 176338.25400000028,
      "d": 224.8434687500121,
      "v": 127
    },
    {
      "midi": 40,
      "hit": false,
      "t": 176559.28656250268,
      "d": 231.19497916667024,
      "v": 79
    },
    {
      "midi": 47,
      "hit": false,
      "t": 176569.44897916933,
      "d": 208.32954166666605,
      "v": 88
    },
    {
      "midi": 52,
      "hit": false,
      "t": 176579.611395836,
      "d": 193.08591666666325,
      "v": 81
    },
    {
      "midi": 64,
      "hit": false,
      "t": 176582.15199999994,
      "d": 654.2055729166605,
      "v": 127
    },
    {
      "midi": 35,
      "hit": false,
      "t": 176582.1520000003,
      "d": 417.92938541667536,
      "v": 127
    },
    {
      "midi": 56,
      "hit": false,
      "t": 176589.77381250265,
      "d": 436.98391666670796,
      "v": 90
    },
    {
      "midi": 59,
      "hit": false,
      "t": 176598.665927086,
      "d": 452.22754166668165,
      "v": 83
    },
    {
      "midi": 52,
      "hit": false,
      "t": 176818.42818750266,
      "d": 193.08591666669236,
      "v": 70
    },
    {
      "midi": 47,
      "hit": false,
      "t": 176831.131208336,
      "d": 193.08591666669236,
      "v": 71
    },
    {
      "midi": 40,
      "hit": false,
      "t": 176843.83422916936,
      "d": 193.08591666666325,
      "v": 60
    },
    {
      "midi": 40,
      "hit": false,
      "t": 177047.08256250268,
      "d": 452.22754166665254,
      "v": 73
    },
    {
      "midi": 47,
      "hit": false,
      "t": 177049.62316666933,
      "d": 452.22754166665254,
      "v": 92
    },
    {
      "midi": 52,
      "hit": false,
      "t": 177052.16377083602,
      "d": 208.32954166666605,
      "v": 97
    },
    {
      "midi": 56,
      "hit": false,
      "t": 177054.70437500268,
      "d": 215.95135416666744,
      "v": 122
    },
    {
      "midi": 59,
      "hit": false,
      "t": 177057.24497916934,
      "d": 198.16712500000722,
      "v": 126
    },
    {
      "midi": 40,
      "hit": false,
      "t": 177069.9480000003,
      "d": 242.62769791667233,
      "v": 127
    },
    {
      "midi": 59,
      "hit": false,
      "t": 177288.439958336,
      "d": 185.46410416666185,
      "v": 104
    },
    {
      "midi": 56,
      "hit": false,
      "t": 177298.60237500267,
      "d": 177.84229166666046,
      "v": 98
    },
    {
      "midi": 52,
      "hit": false,
      "t": 177311.305395836,
      "d": 193.08591666663415,
      "v": 75
    },
    {
      "midi": 62,
      "hit": false,
      "t": 177313.84599999993,
      "d": 101.62416666667559,
      "v": 127
    },
    {
      "midi": 44,
      "hit": false,
      "t": 177313.8460000003,
      "d": 199.43742708332138,
      "v": 127
    },
    {
      "midi": 61,
      "hit": false,
      "t": 177501.85070833296,
      "d": 1951.1840000000084,
      "v": 127
    },
    {
      "midi": 57,
      "hit": false,
      "t": 177503.1210104163,
      "d": 1951.1840000000084,
      "v": 127
    },
    {
      "midi": 64,
      "hit": false,
      "t": 177505.66161458296,
      "d": 13.973322916659527,
      "v": 127
    },
    {
      "midi": 45,
      "hit": false,
      "t": 177524.716145836,
      "d": 447.1463333332795,
      "v": 97
    },
    {
      "midi": 52,
      "hit": false,
      "t": 177534.87856250265,
      "d": 447.1463333332795,
      "v": 90
    },
    {
      "midi": 57,
      "hit": false,
      "t": 177545.0409791693,
      "d": 193.08591666666325,
      "v": 100
    },
    {
      "midi": 61,
      "hit": false,
      "t": 177555.20339583597,
      "d": 193.08591666666325,
      "v": 92
    },
    {
      "midi": 62,
      "hit": false,
      "t": 177557.74399999995,
      "d": 243.8979999999865,
      "v": 127
    },
    {
      "midi": 45,
      "hit": false,
      "t": 177557.7440000003,
      "d": 635.151041666657,
      "v": 127
    },
    {
      "midi": 64,
      "hit": false,
      "t": 177565.36581250263,
      "d": 193.08591666666325,
      "v": 83
    },
    {
      "midi": 64,
      "hit": false,
      "t": 177766.0735416693,
      "d": 238.81679166664253,
      "v": 82
    },
    {
      "midi": 61,
      "hit": false,
      "t": 177773.6953541693,
      "d": 238.81679166664253,
      "v": 81
    },
    {
      "midi": 57,
      "hit": false,
      "t": 177783.85777083595,
      "d": 223.57316666663974,
      "v": 80
    },
    {
      "midi": 61,
      "hit": false,
      "t": 177801.64199999993,
      "d": 243.8979999999865,
      "v": 127
    },
    {
      "midi": 45,
      "hit": false,
      "t": 178032.83697916928,
      "d": 442.0651249999646,
      "v": 88
    },
    {
      "midi": 52,
      "hit": false,
      "t": 178035.37758333594,
      "d": 467.47116666665534,
      "v": 92
    },
    {
      "midi": 57,
      "hit": false,
      "t": 178037.9181875026,
      "d": 444.60572916665114,
      "v": 117
    },
    {
      "midi": 61,
      "hit": false,
      "t": 178040.45879166925,
      "d": 436.98391666664975,
      "v": 122
    },
    {
      "midi": 64,
      "hit": false,
      "t": 178042.9993958359,
      "d": 452.22754166668165,
      "v": 126
    },
    {
      "midi": 45,
      "hit": false,
      "t": 178289.4380000003,
      "d": 215.95135416666744,
      "v": 127
    },
    {
      "midi": 45,
      "hit": false,
      "t": 178510.4705625026,
      "d": 231.19497916667024,
      "v": 95
    },
    {
      "midi": 52,
      "hit": false,
      "t": 178520.63297916926,
      "d": 208.32954166666605,
      "v": 88
    },
    {
      "midi": 57,
      "hit": false,
      "t": 178530.7953958359,
      "d": 193.08591666666325,
      "v": 98
    },
    {
      "midi": 40,
      "hit": false,
      "t": 178533.33600000027,
      "d": 483.9850937500014,
      "v": 127
    },
    {
      "midi": 61,
      "hit": false,
      "t": 178540.95781250257,
      "d": 436.98391666670796,
      "v": 90
    },
    {
      "midi": 64,
      "hit": false,
      "t": 178549.84992708592,
      "d": 452.22754166668165,
      "v": 83
    },
    {
      "midi": 57,
      "hit": false,
      "t": 178769.6121875026,
      "d": 193.08591666669236,
      "v": 85
    },
    {
      "midi": 52,
      "hit": false,
      "t": 178782.31520833593,
      "d": 193.08591666669236,
      "v": 71
    },
    {
      "midi": 45,
      "hit": false,
      "t": 178795.01822916928,
      "d": 193.08591666666325,
      "v": 72
    },
    {
      "midi": 45,
      "hit": false,
      "t": 178998.2665625026,
      "d": 452.22754166665254,
      "v": 88
    },
    {
      "midi": 52,
      "hit": false,
      "t": 179000.80716666926,
      "d": 452.22754166665254,
      "v": 92
    },
    {
      "midi": 57,
      "hit": false,
      "t": 179003.34777083594,
      "d": 208.32954166666605,
      "v": 117
    },
    {
      "midi": 61,
      "hit": false,
      "t": 179005.8883750026,
      "d": 215.95135416666744,
      "v": 122
    },
    {
      "midi": 64,
      "hit": false,
      "t": 179008.42897916926,
      "d": 198.16712500000722,
      "v": 126
    },
    {
      "midi": 38,
      "hit": false,
      "t": 179021.13200000027,
      "d": 231.19497916667024,
      "v": 127
    },
    {
      "midi": 64,
      "hit": false,
      "t": 179239.62395833593,
      "d": 185.46410416666185,
      "v": 104
    },
    {
      "midi": 61,
      "hit": false,
      "t": 179249.7863750026,
      "d": 177.84229166666046,
      "v": 98
    },
    {
      "midi": 57,
      "hit": false,
      "t": 179262.48939583593,
      "d": 193.08591666663415,
      "v": 90
    },
    {
      "midi": 39,
      "hit": false,
      "t": 179265.0300000003,
      "d": 226.11377083332627,
      "v": 127
    },
    {
      "midi": 56,
      "hit": false,
      "t": 179445.41289583297,
      "d": 1951.1840000000084,
      "v": 127
    },
    {
      "midi": 64,
      "hit": false,
      "t": 179451.76440624963,
      "d": 5.081208333343966,
      "v": 127
    },
    {
      "midi": 59,
      "hit": false,
      "t": 179458.1159166663,
      "d": 1951.1840000000084,
      "v": 127
    },
    {
      "midi": 40,
      "hit": false,
      "t": 179475.9001458359,
      "d": 447.1463333332795,
      "v": 80
    },
    {
      "midi": 47,
      "hit": false,
      "t": 179486.06256250257,
      "d": 447.1463333332795,
      "v": 75
    },
    {
      "midi": 52,
      "hit": false,
      "t": 179496.22497916923,
      "d": 193.08591666666325,
      "v": 69
    },
    {
      "midi": 56,
      "hit": false,
      "t": 179506.3873958359,
      "d": 193.08591666666325,
      "v": 92
    },
    {
      "midi": 40,
      "hit": false,
      "t": 179508.92800000028,
      "d": 599.5825833333365,
      "v": 127
    },
    {
      "midi": 59,
      "hit": false,
      "t": 179516.54981250255,
      "d": 193.08591666666325,
      "v": 83
    },
    {
      "midi": 59,
      "hit": false,
      "t": 179717.2575416692,
      "d": 238.81679166664253,
      "v": 82
    },
    {
      "midi": 56,
      "hit": false,
      "t": 179724.8793541692,
      "d": 238.81679166664253,
      "v": 81
    },
    {
      "midi": 52,
      "hit": false,
      "t": 179735.04177083587,
      "d": 223.57316666663974,
      "v": 55
    },
    {
      "midi": 40,
      "hit": false,
      "t": 179984.0209791692,
      "d": 442.0651249999646,
      "v": 73
    },
    {
      "midi": 47,
      "hit": false,
      "t": 179986.56158333586,
      "d": 467.47116666665534,
      "v": 76
    },
    {
      "midi": 52,
      "hit": false,
      "t": 179989.10218750252,
      "d": 444.60572916665114,
      "v": 80
    },
    {
      "midi": 56,
      "hit": false,
      "t": 179991.64279166918,
      "d": 436.98391666664975,
      "v": 122
    },
    {
      "midi": 59,
      "hit": false,
      "t": 179994.18339583583,
      "d": 452.22754166668165,
      "v": 126
    },
    {
      "midi": 40,
      "hit": false,
      "t": 180240.6220000003,
      "d": 217.2216562500107,
      "v": 127
    },
    {
      "midi": 40,
      "hit": false,
      "t": 180461.65456250252,
      "d": 231.19497916667024,
      "v": 79
    },
    {
      "midi": 47,
      "hit": false,
      "t": 180471.81697916918,
      "d": 208.32954166666605,
      "v": 73
    },
    {
      "midi": 52,
      "hit": false,
      "t": 180481.97939583584,
      "d": 193.08591666666325,
      "v": 67
    },
    {
      "midi": 35,
      "hit": false,
      "t": 180484.5200000003,
      "d": 224.8434687500121,
      "v": 127
    },
    {
      "midi": 56,
      "hit": false,
      "t": 180492.1418125025,
      "d": 436.98391666670796,
      "v": 90
    },
    {
      "midi": 59,
      "hit": false,
      "t": 180501.03392708584,
      "d": 452.22754166668165,
      "v": 83
    },
    {
      "midi": 52,
      "hit": false,
      "t": 180720.7961875025,
      "d": 193.08591666669236,
      "v": 58
    },
    {
      "midi": 40,
      "hit": false,
      "t": 180728.41800000033,
      "d": 279.46645833330695,
      "v": 127
    },
    {
      "midi": 47,
      "hit": false,
      "t": 180733.49920833585,
      "d": 193.08591666669236,
      "v": 59
    },
    {
      "midi": 40,
      "hit": false,
      "t": 180746.2022291692,
      "d": 193.08591666666325,
      "v": 60
    },
    {
      "midi": 40,
      "hit": false,
      "t": 180949.45056250252,
      "d": 452.22754166665254,
      "v": 73
    },
    {
      "midi": 47,
      "hit": false,
      "t": 180951.99116666918,
      "d": 452.22754166665254,
      "v": 76
    },
    {
      "midi": 52,
      "hit": false,
      "t": 180954.53177083586,
      "d": 208.32954166666605,
      "v": 80
    },
    {
      "midi": 56,
      "hit": false,
      "t": 180957.07237500252,
      "d": 215.95135416666744,
      "v": 122
    },
    {
      "midi": 59,
      "hit": false,
      "t": 180959.61297916918,
      "d": 198.16712500000722,
      "v": 126
    },
    {
      "midi": 42,
      "hit": false,
      "t": 180972.3160000003,
      "d": 223.57316666663974,
      "v": 127
    },
    {
      "midi": 59,
      "hit": false,
      "t": 181190.80795833585,
      "d": 185.46410416666185,
      "v": 104
    },
    {
      "midi": 56,
      "hit": false,
      "t": 181200.9703750025,
      "d": 177.84229166666046,
      "v": 98
    },
    {
      "midi": 61,
      "hit": false,
      "t": 181206.05158333326,
      "d": 73.67752083332743,
      "v": 127
    },
    {
      "midi": 52,
      "hit": false,
      "t": 181213.67339583585,
      "d": 193.08591666663415,
      "v": 62
    },
    {
      "midi": 40,
      "hit": false,
      "t": 181216.2140000003,
      "d": 215.95135416666744,
      "v": 127
    },
    {
      "midi": 85,
      "hit": false,
      "t": 181413.11082291632,
      "d": 2438.9799999999814,
      "v": 127
    },
    {
      "midi": 88,
      "hit": false,
      "t": 181415.65142708298,
      "d": 2438.9799999999814,
      "v": 127
    },
    {
      "midi": 76,
      "hit": false,
      "t": 181416.92172916632,
      "d": 2438.9799999999814,
      "v": 127
    },
    {
      "midi": 45,
      "hit": false,
      "t": 181427.08414583583,
      "d": 447.1463333332795,
      "v": 97
    },
    {
      "midi": 52,
      "hit": false,
      "t": 181437.2465625025,
      "d": 447.1463333332795,
      "v": 90
    },
    {
      "midi": 61,
      "hit": false,
      "t": 181442.32777083298,
      "d": 3788.040812500054,
      "v": 127
    },
    {
      "midi": 57,
      "hit": false,
      "t": 181444.86837499964,
      "d": 3765.175375000079,
      "v": 127
    },
    {
      "midi": 64,
      "hit": false,
      "t": 181444.86837499964,
      "d": 3771.526885416737,
      "v": 127
    },
    {
      "midi": 57,
      "hit": false,
      "t": 181447.40897916915,
      "d": 193.08591666666325,
      "v": 100
    },
    {
      "midi": 61,
      "hit": false,
      "t": 181449.94958333325,
      "d": 81.29933333332883,
      "v": 127
    },
    {
      "midi": 61,
      "hit": false,
      "t": 181457.5713958358,
      "d": 193.08591666666325,
      "v": 92
    },
    {
      "midi": 45,
      "hit": false,
      "t": 181460.11200000028,
      "d": 577.9874479166756,
      "v": 127
    },
    {
      "midi": 64,
      "hit": false,
      "t": 181467.73381250247,
      "d": 193.08591666666325,
      "v": 83
    },
    {
      "midi": 64,
      "hit": false,
      "t": 181668.44154166913,
      "d": 238.81679166664253,
      "v": 82
    },
    {
      "midi": 61,
      "hit": false,
      "t": 181676.06335416913,
      "d": 238.81679166664253,
      "v": 81
    },
    {
      "midi": 57,
      "hit": false,
      "t": 181686.2257708358,
      "d": 223.57316666663974,
      "v": 80
    },
    {
      "midi": 61,
      "hit": false,
      "t": 181704.00999999992,
      "d": 77.48842708332813,
      "v": 127
    },
    {
      "midi": 45,
      "hit": false,
      "t": 181935.20497916912,
      "d": 442.0651249999646,
      "v": 88
    },
    {
      "midi": 52,
      "hit": false,
      "t": 181937.74558333578,
      "d": 467.47116666665534,
      "v": 92
    },
    {
      "midi": 57,
      "hit": false,
      "t": 181940.28618750244,
      "d": 444.60572916665114,
      "v": 117
    },
    {
      "midi": 61,
      "hit": false,
      "t": 181942.8267916691,
      "d": 436.98391666664975,
      "v": 122
    },
    {
      "midi": 64,
      "hit": false,
      "t": 181945.36739583575,
      "d": 452.22754166668165,
      "v": 126
    },
    {
      "midi": 61,
      "hit": false,
      "t": 181947.9079999999,
      "d": 83.83993749998626,
      "v": 127
    },
    {
      "midi": 61,
      "hit": false,
      "t": 182191.8059999999,
      "d": 87.65084374998696,
      "v": 127
    },
    {
      "midi": 45,
      "hit": false,
      "t": 182191.8060000003,
      "d": 232.4652812500135,
      "v": 127
    },
    {
      "midi": 45,
      "hit": false,
      "t": 182412.83856250244,
      "d": 231.19497916667024,
      "v": 95
    },
    {
      "midi": 52,
      "hit": false,
      "t": 182423.0009791691,
      "d": 208.32954166666605,
      "v": 88
    },
    {
      "midi": 57,
      "hit": false,
      "t": 182433.16339583576,
      "d": 193.08591666666325,
      "v": 98
    },
    {
      "midi": 61,
      "hit": false,
      "t": 182435.70399999988,
      "d": 92.73205208333093,
      "v": 127
    },
    {
      "midi": 40,
      "hit": false,
      "t": 182435.70400000032,
      "d": 641.5025520833442,
      "v": 127
    },
    {
      "midi": 61,
      "hit": false,
      "t": 182443.32581250241,
      "d": 436.98391666670796,
      "v": 90
    },
    {
      "midi": 64,
      "hit": false,
      "t": 182452.21792708576,
      "d": 452.22754166668165,
      "v": 83
    },
    {
      "midi": 57,
      "hit": false,
      "t": 182671.98018750243,
      "d": 193.08591666669236,
      "v": 85
    },
    {
      "midi": 61,
      "hit": false,
      "t": 182679.60199999987,
      "d": 356.9548854166642,
      "v": 127
    },
    {
      "midi": 52,
      "hit": false,
      "t": 182684.68320833577,
      "d": 193.08591666669236,
      "v": 71
    },
    {
      "midi": 45,
      "hit": false,
      "t": 182697.38622916912,
      "d": 193.08591666666325,
      "v": 72
    },
    {
      "midi": 45,
      "hit": false,
      "t": 182900.63456250244,
      "d": 452.22754166665254,
      "v": 88
    },
    {
      "midi": 52,
      "hit": false,
      "t": 182903.1751666691,
      "d": 452.22754166665254,
      "v": 92
    },
    {
      "midi": 57,
      "hit": false,
      "t": 182905.71577083578,
      "d": 208.32954166666605,
      "v": 117
    },
    {
      "midi": 61,
      "hit": false,
      "t": 182908.25637500244,
      "d": 215.95135416666744,
      "v": 122
    },
    {
      "midi": 64,
      "hit": false,
      "t": 182910.7969791691,
      "d": 198.16712500000722,
      "v": 126
    },
    {
      "midi": 64,
      "hit": false,
      "t": 183141.99195833577,
      "d": 185.46410416666185,
      "v": 104
    },
    {
      "midi": 61,
      "hit": false,
      "t": 183152.15437500243,
      "d": 177.84229166666046,
      "v": 98
    },
    {
      "midi": 57,
      "hit": false,
      "t": 183164.85739583577,
      "d": 193.08591666663415,
      "v": 90
    },
    {
      "midi": 61,
      "hit": false,
      "t": 183167.39799999987,
      "d": 81.29933333332883,
      "v": 127
    },
    {
      "midi": 40,
      "hit": false,
      "t": 183167.39800000034,
      "d": 224.8434687500121,
      "v": 127
    },
    {
      "midi": 45,
      "hit": false,
      "t": 183378.26814583575,
      "d": 447.1463333332795,
      "v": 97
    },
    {
      "midi": 52,
      "hit": false,
      "t": 183388.4305625024,
      "d": 447.1463333332795,
      "v": 90
    },
    {
      "midi": 57,
      "hit": false,
      "t": 183398.59297916907,
      "d": 193.08591666666325,
      "v": 100
    },
    {
      "midi": 61,
      "hit": false,
      "t": 183408.75539583573,
      "d": 193.08591666666325,
      "v": 92
    },
    {
      "midi": 61,
      "hit": false,
      "t": 183411.29599999986,
      "d": 76.21812500001397,
      "v": 127
    },
    {
      "midi": 45,
      "hit": false,
      "t": 183411.29600000035,
      "d": 590.6904687499919,
      "v": 127
    },
    {
      "midi": 64,
      "hit": false,
      "t": 183418.9178125024,
      "d": 193.08591666666325,
      "v": 83
    },
    {
      "midi": 64,
      "hit": false,
      "t": 183619.62554166905,
      "d": 238.81679166664253,
      "v": 82
    },
    {
      "midi": 61,
      "hit": false,
      "t": 183627.24735416906,
      "d": 238.81679166664253,
      "v": 81
    },
    {
      "midi": 57,
      "hit": false,
      "t": 183637.40977083571,
      "d": 223.57316666663974,
      "v": 80
    },
    {
      "midi": 61,
      "hit": false,
      "t": 183655.19399999987,
      "d": 73.67752083332743,
      "v": 127
    },
    {
      "midi": 73,
      "hit": false,
      "t": 183855.9017291663,
      "d": 487.7960000000312,
      "v": 127
    },
    {
      "midi": 85,
      "hit": false,
      "t": 183868.60474999965,
      "d": 487.7960000000312,
      "v": 127
    },
    {
      "midi": 81,
      "hit": false,
      "t": 183869.875052083,
      "d": 487.7960000000312,
      "v": 127
    },
    {
      "midi": 45,
      "hit": false,
      "t": 183886.38897916905,
      "d": 442.0651249999646,
      "v": 88
    },
    {
      "midi": 52,
      "hit": false,
      "t": 183888.9295833357,
      "d": 467.47116666665534,
      "v": 92
    },
    {
      "midi": 57,
      "hit": false,
      "t": 183891.47018750236,
      "d": 444.60572916665114,
      "v": 117
    },
    {
      "midi": 61,
      "hit": false,
      "t": 183894.01079166902,
      "d": 436.98391666664975,
      "v": 122
    },
    {
      "midi": 64,
      "hit": false,
      "t": 183896.55139583568,
      "d": 452.22754166668165,
      "v": 126
    },
    {
      "midi": 61,
      "hit": false,
      "t": 183899.09199999986,
      "d": 74.9478229166707,
      "v": 127
    },
    {
      "midi": 61,
      "hit": false,
      "t": 184142.98999999987,
      "d": 106.70537499999045,
      "v": 127
    },
    {
      "midi": 45,
      "hit": false,
      "t": 184142.99000000034,
      "d": 240.0870937499858,
      "v": 127
    },
    {
      "midi": 74,
      "hit": false,
      "t": 184361.48195833302,
      "d": 487.7960000000312,
      "v": 127
    },
    {
      "midi": 45,
      "hit": false,
      "t": 184364.02256250236,
      "d": 231.19497916667024,
      "v": 95
    },
    {
      "midi": 86,
      "hit": false,
      "t": 184367.83346874968,
      "d": 487.7960000000312,
      "v": 127
    },
    {
      "midi": 83,
      "hit": false,
      "t": 184369.10377083303,
      "d": 487.7960000000312,
      "v": 127
    },
    {
      "midi": 52,
      "hit": false,
      "t": 184374.18497916902,
      "d": 208.32954166666605,
      "v": 88
    },
    {
      "midi": 57,
      "hit": false,
      "t": 184384.34739583568,
      "d": 193.08591666666325,
      "v": 98
    },
    {
      "midi": 59,
      "hit": false,
      "t": 184386.88799999986,
      "d": 209.5998437500093,
      "v": 127
    },
    {
      "midi": 40,
      "hit": false,
      "t": 184386.88800000033,
      "d": 532.2565729166672,
      "v": 127
    },
    {
      "midi": 61,
      "hit": false,
      "t": 184394.50981250234,
      "d": 436.98391666670796,
      "v": 90
    },
    {
      "midi": 64,
      "hit": false,
      "t": 184403.40192708568,
      "d": 452.22754166668165,
      "v": 83
    },
    {
      "midi": 57,
      "hit": false,
      "t": 184623.16418750235,
      "d": 193.08591666669236,
      "v": 85
    },
    {
      "midi": 57,
      "hit": false,
      "t": 184630.78599999988,
      "d": 365.84700000000885,
      "v": 127
    },
    {
      "midi": 52,
      "hit": false,
      "t": 184635.8672083357,
      "d": 193.08591666669236,
      "v": 71
    },
    {
      "midi": 45,
      "hit": false,
      "t": 184648.57022916904,
      "d": 193.08591666666325,
      "v": 72
    },
    {
      "midi": 85,
      "hit": false,
      "t": 184839.11554166637,
      "d": 487.7960000000312,
      "v": 127
    },
    {
      "midi": 76,
      "hit": false,
      "t": 184842.92644791637,
      "d": 487.7960000000312,
      "v": 127
    },
    {
      "midi": 88,
      "hit": false,
      "t": 184844.1967499997,
      "d": 487.7960000000312,
      "v": 127
    },
    {
      "midi": 45,
      "hit": false,
      "t": 184851.81856250236,
      "d": 452.22754166665254,
      "v": 88
    },
    {
      "midi": 52,
      "hit": false,
      "t": 184854.35916666902,
      "d": 452.22754166665254,
      "v": 92
    },
    {
      "midi": 57,
      "hit": false,
      "t": 184856.8997708357,
      "d": 208.32954166666605,
      "v": 117
    },
    {
      "midi": 61,
      "hit": false,
      "t": 184859.44037500236,
      "d": 215.95135416666744,
      "v": 122
    },
    {
      "midi": 64,
      "hit": false,
      "t": 184861.98097916902,
      "d": 198.16712500000722,
      "v": 126
    },
    {
      "midi": 45,
      "hit": false,
      "t": 184874.68400000033,
      "d": 233.73558333332767,
      "v": 127
    },
    {
      "midi": 64,
      "hit": false,
      "t": 185093.1759583357,
      "d": 185.46410416666185,
      "v": 104
    },
    {
      "midi": 61,
      "hit": false,
      "t": 185103.33837500235,
      "d": 177.84229166666046,
      "v": 98
    },
    {
      "midi": 57,
      "hit": false,
      "t": 185116.0413958357,
      "d": 193.08591666663415,
      "v": 90
    },
    {
      "midi": 61,
      "hit": false,
      "t": 185118.58199999988,
      "d": 110.51628124999115,
      "v": 127
    },
    {
      "midi": 40,
      "hit": false,
      "t": 185118.58200000032,
      "d": 221.0325625000114,
      "v": 127
    },
    {
      "midi": 57,
      "hit": false,
      "t": 185306.58670833305,
      "d": 3821.068666666659,
      "v": 127
    },
    {
      "midi": 62,
      "hit": false,
      "t": 185307.8570104164,
      "d": 3835.0419895833184,
      "v": 112
    },
    {
      "midi": 66,
      "hit": false,
      "t": 185311.6679166664,
      "d": 3823.6092708333163,
      "v": 127
    },
    {
      "midi": 78,
      "hit": false,
      "t": 185323.1006354164,
      "d": 2438.9799999999814,
      "v": 127
    },
    {
      "midi": 50,
      "hit": false,
      "t": 185329.45214583568,
      "d": 447.1463333332795,
      "v": 97
    },
    {
      "midi": 86,
      "hit": false,
      "t": 185334.5333541664,
      "d": 2438.9799999999814,
      "v": 127
    },
    {
      "midi": 54,
      "hit": false,
      "t": 185339.61456250233,
      "d": 447.1463333332795,
      "v": 90
    },
    {
      "midi": 90,
      "hit": false,
      "t": 185340.88486458306,
      "d": 2438.9799999999814,
      "v": 127
    },
    {
      "midi": 57,
      "hit": false,
      "t": 185349.776979169,
      "d": 193.08591666666325,
      "v": 100
    },
    {
      "midi": 62,
      "hit": false,
      "t": 185359.93939583565,
      "d": 193.08591666666325,
      "v": 92
    },
    {
      "midi": 62,
      "hit": false,
      "t": 185362.47999999986,
      "d": 91.46174999998766,
      "v": 127
    },
    {
      "midi": 38,
      "hit": false,
      "t": 185362.48000000033,
      "d": 612.2856041666528,
      "v": 127
    },
    {
      "midi": 66,
      "hit": false,
      "t": 185370.1018125023,
      "d": 193.08591666666325,
      "v": 83
    },
    {
      "midi": 66,
      "hit": false,
      "t": 185570.80954166898,
      "d": 238.81679166664253,
      "v": 82
    },
    {
      "midi": 62,
      "hit": false,
      "t": 185578.43135416898,
      "d": 238.81679166664253,
      "v": 81
    },
    {
      "midi": 57,
      "hit": false,
      "t": 185588.59377083564,
      "d": 223.57316666663974,
      "v": 80
    },
    {
      "midi": 62,
      "hit": false,
      "t": 185606.37799999985,
      "d": 90.1914479166735,
      "v": 127
    },
    {
      "midi": 50,
      "hit": false,
      "t": 185837.57297916897,
      "d": 442.0651249999646,
      "v": 88
    },
    {
      "midi": 54,
      "hit": false,
      "t": 185840.11358333562,
      "d": 467.47116666665534,
      "v": 92
    },
    {
      "midi": 57,
      "hit": false,
      "t": 185842.65418750228,
      "d": 444.60572916665114,
      "v": 117
    },
    {
      "midi": 62,
      "hit": false,
      "t": 185845.19479166894,
      "d": 436.98391666664975,
      "v": 122
    },
    {
      "midi": 66,
      "hit": false,
      "t": 185847.7353958356,
      "d": 452.22754166668165,
      "v": 126
    },
    {
      "midi": 62,
      "hit": false,
      "t": 185850.27599999987,
      "d": 91.46174999998766,
      "v": 127
    },
    {
      "midi": 62,
      "hit": false,
      "t": 186094.17399999985,
      "d": 91.46174999998766,
      "v": 127
    },
    {
      "midi": 38,
      "hit": false,
      "t": 186094.17400000032,
      "d": 193.08591666666325,
      "v": 127
    },
    {
      "midi": 50,
      "hit": false,
      "t": 186315.20656250228,
      "d": 231.19497916667024,
      "v": 95
    },
    {
      "midi": 54,
      "hit": false,
      "t": 186325.36897916894,
      "d": 208.32954166666605,
      "v": 88
    },
    {
      "midi": 57,
      "hit": false,
      "t": 186335.5313958356,
      "d": 193.08591666666325,
      "v": 98
    },
    {
      "midi": 62,
      "hit": false,
      "t": 186338.07199999984,
      "d": 87.65084374998696,
      "v": 127
    },
    {
      "midi": 33,
      "hit": false,
      "t": 186338.0720000003,
      "d": 612.2856041666528,
      "v": 127
    },
    {
      "midi": 62,
      "hit": false,
      "t": 186345.69381250226,
      "d": 436.98391666670796,
      "v": 90
    },
    {
      "midi": 66,
      "hit": false,
      "t": 186354.5859270856,
      "d": 452.22754166668165,
      "v": 83
    },
    {
      "midi": 57,
      "hit": false,
      "t": 186574.34818750227,
      "d": 193.08591666669236,
      "v": 85
    },
    {
      "midi": 62,
      "hit": false,
      "t": 186581.96999999983,
      "d": 87.65084374998696,
      "v": 127
    },
    {
      "midi": 54,
      "hit": false,
      "t": 186587.05120833562,
      "d": 193.08591666669236,
      "v": 71
    },
    {
      "midi": 50,
      "hit": false,
      "t": 186599.75422916896,
      "d": 193.08591666666325,
      "v": 72
    },
    {
      "midi": 50,
      "hit": false,
      "t": 186803.00256250228,
      "d": 452.22754166665254,
      "v": 88
    },
    {
      "midi": 54,
      "hit": false,
      "t": 186805.54316666894,
      "d": 452.22754166665254,
      "v": 92
    },
    {
      "midi": 57,
      "hit": false,
      "t": 186808.08377083563,
      "d": 208.32954166666605,
      "v": 117
    },
    {
      "midi": 62,
      "hit": false,
      "t": 186810.62437500228,
      "d": 215.95135416666744,
      "v": 122
    },
    {
      "midi": 66,
      "hit": false,
      "t": 186813.16497916894,
      "d": 198.16712500000722,
      "v": 126
    },
    {
      "midi": 62,
      "hit": false,
      "t": 186825.8679999998,
      "d": 82.5696354166721,
      "v": 127
    },
    {
      "midi": 66,
      "hit": false,
      "t": 187044.3599583356,
      "d": 185.46410416666185,
      "v": 104
    },
    {
      "midi": 62,
      "hit": false,
      "t": 187054.52237500227,
      "d": 177.84229166666046,
      "v": 98
    },
    {
      "midi": 57,
      "hit": false,
      "t": 187067.22539583562,
      "d": 193.08591666663415,
      "v": 90
    },
    {
      "midi": 62,
      "hit": false,
      "t": 187069.76599999983,
      "d": 83.83993749998626,
      "v": 127
    },
    {
      "midi": 33,
      "hit": false,
      "t": 187069.7660000003,
      "d": 235.00588541667094,
      "v": 127
    },
    {
      "midi": 50,
      "hit": false,
      "t": 187280.6361458356,
      "d": 447.1463333332795,
      "v": 97
    },
    {
      "midi": 54,
      "hit": false,
      "t": 187290.79856250226,
      "d": 447.1463333332795,
      "v": 90
    },
    {
      "midi": 57,
      "hit": false,
      "t": 187300.9609791689,
      "d": 193.08591666666325,
      "v": 100
    },
    {
      "midi": 62,
      "hit": false,
      "t": 187311.12339583557,
      "d": 193.08591666666325,
      "v": 92
    },
    {
      "midi": 62,
      "hit": false,
      "t": 187313.66399999982,
      "d": 82.5696354166721,
      "v": 127
    },
    {
      "midi": 38,
      "hit": false,
      "t": 187313.6640000003,
      "d": 556.3923124999856,
      "v": 127
    },
    {
      "midi": 66,
      "hit": false,
      "t": 187321.28581250223,
      "d": 193.08591666666325,
      "v": 83
    },
    {
      "midi": 66,
      "hit": false,
      "t": 187521.9935416689,
      "d": 238.81679166664253,
      "v": 82
    },
    {
      "midi": 62,
      "hit": false,
      "t": 187529.6153541689,
      "d": 238.81679166664253,
      "v": 81
    },
    {
      "midi": 57,
      "hit": false,
      "t": 187539.77777083556,
      "d": 223.57316666663974,
      "v": 80
    },
    {
      "midi": 62,
      "hit": false,
      "t": 187557.56199999983,
      "d": 80.02903124998556,
      "v": 127
    },
    {
      "midi": 77,
      "hit": false,
      "t": 187773.51335416638,
      "d": 506.8505312500056,
      "v": 127
    },
    {
      "midi": 89,
      "hit": false,
      "t": 187777.32426041638,
      "d": 411.5778749999881,
      "v": 127
    },
    {
      "midi": 85,
      "hit": false,
      "t": 187779.86486458304,
      "d": 424.2808958333335,
      "v": 127
    },
    {
      "midi": 50,
      "hit": false,
      "t": 187788.7569791689,
      "d": 442.0651249999646,
      "v": 88
    },
    {
      "midi": 54,
      "hit": false,
      "t": 187791.29758333554,
      "d": 467.47116666665534,
      "v": 92
    },
    {
      "midi": 57,
      "hit": false,
      "t": 187793.8381875022,
      "d": 444.60572916665114,
      "v": 117
    },
    {
      "midi": 62,
      "hit": false,
      "t": 187796.37879166886,
      "d": 436.98391666664975,
      "v": 122
    },
    {
      "midi": 66,
      "hit": false,
      "t": 187798.91939583552,
      "d": 452.22754166668165,
      "v": 126
    },
    {
      "midi": 62,
      "hit": false,
      "t": 187801.45999999982,
      "d": 77.48842708332813,
      "v": 127
    },
    {
      "midi": 62,
      "hit": false,
      "t": 188045.3579999998,
      "d": 82.5696354166721,
      "v": 127
    },
    {
      "midi": 38,
      "hit": false,
      "t": 188045.3580000003,
      "d": 201.97803125000792,
      "v": 127
    },
    {
      "midi": 50,
      "hit": false,
      "t": 188266.3905625022,
      "d": 231.19497916667024,
      "v": 95
    },
    {
      "midi": 78,
      "hit": false,
      "t": 188268.93116666639,
      "d": 487.7960000000021,
      "v": 127
    },
    {
      "midi": 54,
      "hit": false,
      "t": 188276.55297916886,
      "d": 208.32954166666605,
      "v": 88
    },
    {
      "midi": 86,
      "hit": false,
      "t": 188282.90448958304,
      "d": 487.7960000000021,
      "v": 127
    },
    {
      "midi": 90,
      "hit": false,
      "t": 188284.1747916664,
      "d": 487.7960000000021,
      "v": 127
    },
    {
      "midi": 57,
      "hit": false,
      "t": 188286.71539583552,
      "d": 193.08591666666325,
      "v": 98
    },
    {
      "midi": 62,
      "hit": false,
      "t": 188289.25599999982,
      "d": 377.27971875001094,
      "v": 127
    },
    {
      "midi": 33,
      "hit": false,
      "t": 188289.2560000003,
      "d": 508.12083333334886,
      "v": 127
    },
    {
      "midi": 62,
      "hit": false,
      "t": 188296.87781250218,
      "d": 436.98391666670796,
      "v": 90
    },
    {
      "midi": 66,
      "hit": false,
      "t": 188305.76992708552,
      "d": 452.22754166668165,
      "v": 83
    },
    {
      "midi": 57,
      "hit": false,
      "t": 188525.5321875022,
      "d": 193.08591666669236,
      "v": 85
    },
    {
      "midi": 54,
      "hit": false,
      "t": 188538.23520833554,
      "d": 193.08591666669236,
      "v": 71
    },
    {
      "midi": 50,
      "hit": false,
      "t": 188550.93822916888,
      "d": 193.08591666666325,
      "v": 72
    },
    {
      "midi": 79,
      "hit": false,
      "t": 188752.9162604164,
      "d": 487.7960000000021,
      "v": 127
    },
    {
      "midi": 91,
      "hit": false,
      "t": 188752.9162604164,
      "d": 487.7960000000021,
      "v": 127
    },
    {
      "midi": 50,
      "hit": false,
      "t": 188754.1865625022,
      "d": 452.22754166665254,
      "v": 88
    },
    {
      "midi": 54,
      "hit": false,
      "t": 188756.72716666886,
      "d": 452.22754166665254,
      "v": 92
    },
    {
      "midi": 57,
      "hit": false,
      "t": 188759.26777083555,
      "d": 208.32954166666605,
      "v": 117
    },
    {
      "midi": 87,
      "hit": false,
      "t": 188760.5380729164,
      "d": 487.7960000000021,
      "v": 127
    },
    {
      "midi": 62,
      "hit": false,
      "t": 188761.8083750022,
      "d": 215.95135416666744,
      "v": 122
    },
    {
      "midi": 66,
      "hit": false,
      "t": 188764.34897916886,
      "d": 198.16712500000722,
      "v": 126
    },
    {
      "midi": 61,
      "hit": false,
      "t": 188777.05199999982,
      "d": 113.05688541667769,
      "v": 127
    },
    {
      "midi": 38,
      "hit": false,
      "t": 188777.05200000032,
      "d": 223.57316666666884,
      "v": 127
    },
    {
      "midi": 66,
      "hit": false,
      "t": 188995.54395833553,
      "d": 185.46410416666185,
      "v": 104
    },
    {
      "midi": 62,
      "hit": false,
      "t": 189005.7063750022,
      "d": 177.84229166666046,
      "v": 98
    },
    {
      "midi": 57,
      "hit": false,
      "t": 189018.40939583554,
      "d": 193.08591666663415,
      "v": 90
    },
    {
      "midi": 62,
      "hit": false,
      "t": 189020.94999999984,
      "d": 92.73205208333093,
      "v": 120
    },
    {
      "midi": 39,
      "hit": false,
      "t": 189020.95000000033,
      "d": 241.35739583332906,
      "v": 127
    },
    {
      "midi": 56,
      "hit": false,
      "t": 189221.65772916639,
      "d": 1919.4264479166595,
      "v": 127
    },
    {
      "midi": 59,
      "hit": false,
      "t": 189224.19833333304,
      "d": 1915.6155416666588,
      "v": 100
    },
    {
      "midi": 64,
      "hit": false,
      "t": 189226.7389374997,
      "d": 1906.7234270833433,
      "v": 127
    },
    {
      "midi": 80,
      "hit": false,
      "t": 189231.82014583304,
      "d": 1951.1840000000084,
      "v": 127
    },
    {
      "midi": 40,
      "hit": false,
      "t": 189231.82014583552,
      "d": 447.1463333332795,
      "v": 80
    },
    {
      "midi": 88,
      "hit": false,
      "t": 189238.1716562497,
      "d": 1951.1840000000084,
      "v": 127
    },
    {
      "midi": 92,
      "hit": false,
      "t": 189239.44195833305,
      "d": 1951.1840000000084,
      "v": 127
    },
    {
      "midi": 47,
      "hit": false,
      "t": 189241.98256250218,
      "d": 447.1463333332795,
      "v": 90
    },
    {
      "midi": 52,
      "hit": false,
      "t": 189252.14497916884,
      "d": 193.08591666666325,
      "v": 83
    },
    {
      "midi": 56,
      "hit": false,
      "t": 189262.3073958355,
      "d": 193.08591666666325,
      "v": 92
    },
    {
      "midi": 64,
      "hit": false,
      "t": 189264.84799999982,
      "d": 87.65084374998696,
      "v": 127
    },
    {
      "midi": 40,
      "hit": false,
      "t": 189264.84800000032,
      "d": 566.5547291666735,
      "v": 127
    },
    {
      "midi": 59,
      "hit": false,
      "t": 189272.46981250215,
      "d": 193.08591666666325,
      "v": 83
    },
    {
      "midi": 59,
      "hit": false,
      "t": 189473.17754166882,
      "d": 238.81679166664253,
      "v": 82
    },
    {
      "midi": 56,
      "hit": false,
      "t": 189480.79935416882,
      "d": 238.81679166664253,
      "v": 81
    },
    {
      "midi": 52,
      "hit": false,
      "t": 189490.96177083548,
      "d": 223.57316666663974,
      "v": 66
    },
    {
      "midi": 64,
      "hit": false,
      "t": 189508.7459999998,
      "d": 83.83993749998626,
      "v": 127
    },
    {
      "midi": 40,
      "hit": false,
      "t": 189739.9409791688,
      "d": 442.0651249999646,
      "v": 73
    },
    {
      "midi": 47,
      "hit": false,
      "t": 189742.48158333547,
      "d": 467.47116666665534,
      "v": 92
    },
    {
      "midi": 52,
      "hit": false,
      "t": 189745.02218750212,
      "d": 444.60572916665114,
      "v": 97
    },
    {
      "midi": 56,
      "hit": false,
      "t": 189747.56279166878,
      "d": 436.98391666664975,
      "v": 122
    },
    {
      "midi": 59,
      "hit": false,
      "t": 189750.10339583544,
      "d": 452.22754166668165,
      "v": 126
    },
    {
      "midi": 64,
      "hit": false,
      "t": 189752.6439999998,
      "d": 299.7912916666537,
      "v": 127
    },
    {
      "midi": 40,
      "hit": false,
      "t": 189996.54200000034,
      "d": 219.76226041666814,
      "v": 127
    },
    {
      "midi": 40,
      "hit": false,
      "t": 190217.57456250212,
      "d": 231.19497916667024,
      "v": 79
    },
    {
      "midi": 47,
      "hit": false,
      "t": 190227.73697916878,
      "d": 208.32954166666605,
      "v": 88
    },
    {
      "midi": 52,
      "hit": false,
      "t": 190237.89939583544,
      "d": 193.08591666666325,
      "v": 81
    },
    {
      "midi": 64,
      "hit": false,
      "t": 190240.43999999977,
      "d": 86.3805416666728,
      "v": 127
    },
    {
      "midi": 35,
      "hit": false,
      "t": 190240.44000000035,
      "d": 457.3087499999965,
      "v": 127
    },
    {
      "midi": 56,
      "hit": false,
      "t": 190248.0618125021,
      "d": 436.98391666670796,
      "v": 90
    },
    {
      "midi": 59,
      "hit": false,
      "t": 190256.95392708544,
      "d": 452.22754166668165,
      "v": 83
    },
    {
      "midi": 52,
      "hit": false,
      "t": 190476.7161875021,
      "d": 193.08591666669236,
      "v": 70
    },
    {
      "midi": 64,
      "hit": false,
      "t": 190484.33799999979,
      "d": 101.62416666667559,
      "v": 127
    },
    {
      "midi": 47,
      "hit": false,
      "t": 190489.41920833546,
      "d": 193.08591666669236,
      "v": 71
    },
    {
      "midi": 40,
      "hit": false,
      "t": 190502.1222291688,
      "d": 193.08591666666325,
      "v": 60
    },
    {
      "midi": 40,
      "hit": false,
      "t": 190705.37056250212,
      "d": 452.22754166665254,
      "v": 73
    },
    {
      "midi": 47,
      "hit": false,
      "t": 190707.91116666878,
      "d": 452.22754166665254,
      "v": 92
    },
    {
      "midi": 52,
      "hit": false,
      "t": 190710.45177083547,
      "d": 208.32954166666605,
      "v": 97
    },
    {
      "midi": 56,
      "hit": false,
      "t": 190712.99237500213,
      "d": 215.95135416666744,
      "v": 122
    },
    {
      "midi": 59,
      "hit": false,
      "t": 190715.53297916878,
      "d": 198.16712500000722,
      "v": 126
    },
    {
      "midi": 64,
      "hit": false,
      "t": 190728.2359999998,
      "d": 359.4954895833216,
      "v": 127
    },
    {
      "midi": 40,
      "hit": false,
      "t": 190728.23600000035,
      "d": 213.41075000001,
      "v": 127
    },
    {
      "midi": 59,
      "hit": false,
      "t": 190946.72795833545,
      "d": 185.46410416666185,
      "v": 104
    },
    {
      "midi": 56,
      "hit": false,
      "t": 190956.8903750021,
      "d": 177.84229166666046,
      "v": 98
    },
    {
      "midi": 52,
      "hit": false,
      "t": 190969.59339583546,
      "d": 193.08591666663415,
      "v": 75
    },
    {
      "midi": 39,
      "hit": false,
      "t": 190972.13400000037,
      "d": 222.30286458332557,
      "v": 127
    },
    {
      "midi": 54,
      "hit": false,
      "t": 191167.76052083305,
      "d": 2013.4288020833628,
      "v": 127
    },
    {
      "midi": 57,
      "hit": false,
      "t": 191179.19323958305,
      "d": 1921.967052083346,
      "v": 120
    },
    {
      "midi": 62,
      "hit": false,
      "t": 191181.7338437497,
      "d": 1961.3464166667254,
      "v": 112
    },
    {
      "midi": 50,
      "hit": false,
      "t": 191183.00414583544,
      "d": 447.1463333332795,
      "v": 97
    },
    {
      "midi": 78,
      "hit": false,
      "t": 191185.5447499997,
      "d": 1951.1840000000375,
      "v": 127
    },
    {
      "midi": 86,
      "hit": false,
      "t": 191190.62595833305,
      "d": 1951.1840000000375,
      "v": 127
    },
    {
      "midi": 54,
      "hit": false,
      "t": 191193.1665625021,
      "d": 447.1463333332795,
      "v": 90
    },
    {
      "midi": 90,
      "hit": false,
      "t": 191194.43686458305,
      "d": 1951.1840000000375,
      "v": 127
    },
    {
      "midi": 57,
      "hit": false,
      "t": 191203.32897916876,
      "d": 193.08591666666325,
      "v": 100
    },
    {
      "midi": 62,
      "hit": false,
      "t": 191213.49139583542,
      "d": 193.08591666666325,
      "v": 92
    },
    {
      "midi": 62,
      "hit": false,
      "t": 191216.0319999998,
      "d": 88.92114583333023,
      "v": 127
    },
    {
      "midi": 38,
      "hit": false,
      "t": 191216.03200000036,
      "d": 584.3389583333337,
      "v": 127
    },
    {
      "midi": 66,
      "hit": false,
      "t": 191223.65381250207,
      "d": 193.08591666666325,
      "v": 83
    },
    {
      "midi": 66,
      "hit": false,
      "t": 191424.36154166874,
      "d": 238.81679166664253,
      "v": 82
    },
    {
      "midi": 62,
      "hit": false,
      "t": 191431.98335416874,
      "d": 238.81679166664253,
      "v": 81
    },
    {
      "midi": 57,
      "hit": false,
      "t": 191442.1457708354,
      "d": 223.57316666663974,
      "v": 80
    },
    {
      "midi": 62,
      "hit": false,
      "t": 191459.9299999998,
      "d": 87.65084374998696,
      "v": 127
    },
    {
      "midi": 50,
      "hit": false,
      "t": 191691.12497916873,
      "d": 442.0651249999646,
      "v": 88
    },
    {
      "midi": 54,
      "hit": false,
      "t": 191693.6655833354,
      "d": 467.47116666665534,
      "v": 92
    },
    {
      "midi": 57,
      "hit": false,
      "t": 191696.20618750204,
      "d": 444.60572916665114,
      "v": 117
    },
    {
      "midi": 62,
      "hit": false,
      "t": 191698.7467916687,
      "d": 436.98391666664975,
      "v": 122
    },
    {
      "midi": 66,
      "hit": false,
      "t": 191701.28739583536,
      "d": 452.22754166668165,
      "v": 126
    },
    {
      "midi": 62,
      "hit": false,
      "t": 191703.82799999978,
      "d": 257.8713229166751,
      "v": 127
    },
    {
      "midi": 38,
      "hit": false,
      "t": 191947.72600000034,
      "d": 224.8434687500121,
      "v": 127
    },
    {
      "midi": 50,
      "hit": false,
      "t": 192168.75856250204,
      "d": 231.19497916667024,
      "v": 95
    },
    {
      "midi": 54,
      "hit": false,
      "t": 192178.9209791687,
      "d": 208.32954166666605,
      "v": 88
    },
    {
      "midi": 57,
      "hit": false,
      "t": 192189.08339583536,
      "d": 193.08591666666325,
      "v": 98
    },
    {
      "midi": 61,
      "hit": false,
      "t": 192191.62399999978,
      "d": 571.6359374999884,
      "v": 127
    },
    {
      "midi": 33,
      "hit": false,
      "t": 192191.62400000036,
      "d": 417.92938541667536,
      "v": 127
    },
    {
      "midi": 62,
      "hit": false,
      "t": 192199.24581250202,
      "d": 436.98391666670796,
      "v": 90
    },
    {
      "midi": 66,
      "hit": false,
      "t": 192208.13792708536,
      "d": 452.22754166668165,
      "v": 83
    },
    {
      "midi": 57,
      "hit": false,
      "t": 192427.90018750203,
      "d": 193.08591666669236,
      "v": 85
    },
    {
      "midi": 54,
      "hit": false,
      "t": 192440.60320833538,
      "d": 193.08591666669236,
      "v": 71
    },
    {
      "midi": 50,
      "hit": false,
      "t": 192453.30622916872,
      "d": 193.08591666666325,
      "v": 72
    },
    {
      "midi": 50,
      "hit": false,
      "t": 192656.55456250205,
      "d": 452.22754166665254,
      "v": 88
    },
    {
      "midi": 54,
      "hit": false,
      "t": 192659.0951666687,
      "d": 452.22754166665254,
      "v": 92
    },
    {
      "midi": 57,
      "hit": false,
      "t": 192661.6357708354,
      "d": 208.32954166666605,
      "v": 117
    },
    {
      "midi": 62,
      "hit": false,
      "t": 192664.17637500205,
      "d": 215.95135416666744,
      "v": 122
    },
    {
      "midi": 66,
      "hit": false,
      "t": 192666.7169791687,
      "d": 198.16712500000722,
      "v": 126
    },
    {
      "midi": 66,
      "hit": false,
      "t": 192897.91195833537,
      "d": 185.46410416666185,
      "v": 104
    },
    {
      "midi": 62,
      "hit": false,
      "t": 192908.07437500203,
      "d": 177.84229166666046,
      "v": 98
    },
    {
      "midi": 57,
      "hit": false,
      "t": 192920.77739583538,
      "d": 193.08591666663415,
      "v": 90
    },
    {
      "midi": 59,
      "hit": false,
      "t": 192923.31799999977,
      "d": 82.5696354166721,
      "v": 127
    },
    {
      "midi": 33,
      "hit": false,
      "t": 192923.31800000038,
      "d": 274.3852499999921,
      "v": 127
    },
    {
      "midi": 69,
      "hit": false,
      "t": 193106.24149999974,
      "d": 3902.3680000000168,
      "v": 127
    },
    {
      "midi": 81,
      "hit": false,
      "t": 193107.51180208309,
      "d": 3902.3680000000168,
      "v": 127
    },
    {
      "midi": 85,
      "hit": false,
      "t": 193110.05240624974,
      "d": 3902.3680000000168,
      "v": 127
    },
    {
      "midi": 88,
      "hit": false,
      "t": 193111.3227083331,
      "d": 3902.3680000000168,
      "v": 127
    },
    {
      "midi": 45,
      "hit": false,
      "t": 193134.18814583536,
      "d": 447.1463333332795,
      "v": 97
    },
    {
      "midi": 52,
      "hit": false,
      "t": 193144.35056250202,
      "d": 447.1463333332795,
      "v": 90
    },
    {
      "midi": 57,
      "hit": false,
      "t": 193154.51297916868,
      "d": 193.08591666666325,
      "v": 100
    },
    {
      "midi": 52,
      "hit": false,
      "t": 193159.59418749975,
      "d": 3788.040812499996,
      "v": 97
    },
    {
      "midi": 61,
      "hit": false,
      "t": 193163.40509374975,
      "d": 3766.445677083335,
      "v": 112
    },
    {
      "midi": 61,
      "hit": false,
      "t": 193164.67539583534,
      "d": 193.08591666666325,
      "v": 92
    },
    {
      "midi": 57,
      "hit": false,
      "t": 193165.9456979164,
      "d": 3763.9050729166775,
      "v": 100
    },
    {
      "midi": 59,
      "hit": false,
      "t": 193167.21599999978,
      "d": 223.57316666666884,
      "v": 127
    },
    {
      "midi": 45,
      "hit": false,
      "t": 193167.21600000036,
      "d": 635.1510416666861,
      "v": 127
    },
    {
      "midi": 64,
      "hit": false,
      "t": 193174.837812502,
      "d": 193.08591666666325,
      "v": 83
    },
    {
      "midi": 64,
      "hit": false,
      "t": 193375.54554166866,
      "d": 238.81679166664253,
      "v": 82
    },
    {
      "midi": 61,
      "hit": false,
      "t": 193383.16735416866,
      "d": 238.81679166664253,
      "v": 81
    },
    {
      "midi": 57,
      "hit": false,
      "t": 193393.32977083532,
      "d": 223.57316666663974,
      "v": 80
    },
    {
      "midi": 57,
      "hit": false,
      "t": 193411.1139999998,
      "d": 208.32954166666605,
      "v": 127
    },
    {
      "midi": 45,
      "hit": false,
      "t": 193642.30897916865,
      "d": 442.0651249999646,
      "v": 88
    },
    {
      "midi": 52,
      "hit": false,
      "t": 193644.8495833353,
      "d": 467.47116666665534,
      "v": 92
    },
    {
      "midi": 57,
      "hit": false,
      "t": 193647.39018750197,
      "d": 444.60572916665114,
      "v": 117
    },
    {
      "midi": 61,
      "hit": false,
      "t": 193649.93079166862,
      "d": 436.98391666664975,
      "v": 122
    },
    {
      "midi": 64,
      "hit": false,
      "t": 193652.47139583528,
      "d": 452.22754166668165,
      "v": 126
    },
    {
      "midi": 45,
      "hit": false,
      "t": 193898.91000000038,
      "d": 215.95135416666744,
      "v": 127
    },
    {
      "midi": 45,
      "hit": false,
      "t": 194119.94256250196,
      "d": 231.19497916667024,
      "v": 95
    },
    {
      "midi": 52,
      "hit": false,
      "t": 194130.10497916862,
      "d": 208.32954166666605,
      "v": 88
    },
    {
      "midi": 57,
      "hit": false,
      "t": 194140.26739583528,
      "d": 193.08591666666325,
      "v": 98
    },
    {
      "midi": 40,
      "hit": false,
      "t": 194142.80800000037,
      "d": 548.7705000000133,
      "v": 127
    },
    {
      "midi": 61,
      "hit": false,
      "t": 194150.42981250194,
      "d": 436.98391666670796,
      "v": 90
    },
    {
      "midi": 64,
      "hit": false,
      "t": 194159.3219270853,
      "d": 452.22754166668165,
      "v": 83
    },
    {
      "midi": 57,
      "hit": false,
      "t": 194379.08418750195,
      "d": 193.08591666669236,
      "v": 85
    },
    {
      "midi": 52,
      "hit": false,
      "t": 194391.7872083353,
      "d": 193.08591666669236,
      "v": 71
    },
    {
      "midi": 45,
      "hit": false,
      "t": 194404.49022916864,
      "d": 193.08591666666325,
      "v": 72
    },
    {
      "midi": 45,
      "hit": false,
      "t": 194607.73856250197,
      "d": 452.22754166665254,
      "v": 88
    },
    {
      "midi": 52,
      "hit": false,
      "t": 194610.27916666862,
      "d": 452.22754166665254,
      "v": 92
    },
    {
      "midi": 57,
      "hit": false,
      "t": 194612.8197708353,
      "d": 208.32954166666605,
      "v": 117
    },
    {
      "midi": 61,
      "hit": false,
      "t": 194615.36037500197,
      "d": 215.95135416666744,
      "v": 122
    },
    {
      "midi": 64,
      "hit": false,
      "t": 194617.90097916863,
      "d": 198.16712500000722,
      "v": 126
    },
    {
      "midi": 64,
      "hit": false,
      "t": 194849.0959583353,
      "d": 185.46410416666185,
      "v": 104
    },
    {
      "midi": 61,
      "hit": false,
      "t": 194859.25837500195,
      "d": 177.84229166666046,
      "v": 98
    },
    {
      "midi": 57,
      "hit": false,
      "t": 194871.9613958353,
      "d": 193.08591666663415,
      "v": 90
    },
    {
      "midi": 40,
      "hit": false,
      "t": 194874.5020000004,
      "d": 226.11377083332627,
      "v": 127
    },
    {
      "midi": 45,
      "hit": false,
      "t": 195085.37214583528,
      "d": 447.1463333332795,
      "v": 97
    },
    {
      "midi": 52,
      "hit": false,
      "t": 195095.53456250194,
      "d": 447.1463333332795,
      "v": 90
    },
    {
      "midi": 57,
      "hit": false,
      "t": 195105.6969791686,
      "d": 193.08591666666325,
      "v": 100
    },
    {
      "midi": 61,
      "hit": false,
      "t": 195115.85939583526,
      "d": 193.08591666666325,
      "v": 92
    },
    {
      "midi": 45,
      "hit": false,
      "t": 195118.40000000037,
      "d": 599.5825833333365,
      "v": 127
    },
    {
      "midi": 64,
      "hit": false,
      "t": 195126.02181250192,
      "d": 193.08591666666325,
      "v": 83
    },
    {
      "midi": 64,
      "hit": false,
      "t": 195326.72954166858,
      "d": 238.81679166664253,
      "v": 82
    },
    {
      "midi": 61,
      "hit": false,
      "t": 195334.35135416858,
      "d": 238.81679166664253,
      "v": 81
    },
    {
      "midi": 57,
      "hit": false,
      "t": 195344.51377083524,
      "d": 223.57316666663974,
      "v": 80
    },
    {
      "midi": 45,
      "hit": false,
      "t": 195593.49297916857,
      "d": 442.0651249999646,
      "v": 88
    },
    {
      "midi": 52,
      "hit": false,
      "t": 195596.03358333523,
      "d": 467.47116666665534,
      "v": 92
    },
    {
      "midi": 57,
      "hit": false,
      "t": 195598.5741875019,
      "d": 444.60572916665114,
      "v": 117
    },
    {
      "midi": 61,
      "hit": false,
      "t": 195601.11479166854,
      "d": 436.98391666664975,
      "v": 122
    },
    {
      "midi": 64,
      "hit": false,
      "t": 195603.6553958352,
      "d": 452.22754166668165,
      "v": 126
    },
    {
      "midi": 45,
      "hit": false,
      "t": 195850.0940000004,
      "d": 217.2216562500107,
      "v": 127
    },
    {
      "midi": 45,
      "hit": false,
      "t": 196071.1265625019,
      "d": 231.19497916667024,
      "v": 95
    },
    {
      "midi": 52,
      "hit": false,
      "t": 196081.28897916854,
      "d": 208.32954166666605,
      "v": 88
    },
    {
      "midi": 57,
      "hit": false,
      "t": 196091.4513958352,
      "d": 193.08591666666325,
      "v": 98
    },
    {
      "midi": 40,
      "hit": false,
      "t": 196093.9920000004,
      "d": 224.8434687500121,
      "v": 127
    },
    {
      "midi": 61,
      "hit": false,
      "t": 196101.61381250186,
      "d": 436.98391666670796,
      "v": 90
    },
    {
      "midi": 64,
      "hit": false,
      "t": 196110.5059270852,
      "d": 452.22754166668165,
      "v": 83
    },
    {
      "midi": 57,
      "hit": false,
      "t": 196330.26818750188,
      "d": 193.08591666669236,
      "v": 85
    },
    {
      "midi": 37,
      "hit": false,
      "t": 196337.89000000042,
      "d": 91.46174999998766,
      "v": 127
    },
    {
      "midi": 52,
      "hit": false,
      "t": 196342.97120833522,
      "d": 193.08591666669236,
      "v": 71
    },
    {
      "midi": 45,
      "hit": false,
      "t": 196355.67422916857,
      "d": 193.08591666666325,
      "v": 72
    },
    {
      "midi": 45,
      "hit": false,
      "t": 196558.9225625019,
      "d": 452.22754166665254,
      "v": 88
    },
    {
      "midi": 52,
      "hit": false,
      "t": 196561.46316666855,
      "d": 452.22754166665254,
      "v": 92
    },
    {
      "midi": 57,
      "hit": false,
      "t": 196564.00377083523,
      "d": 208.32954166666605,
      "v": 117
    },
    {
      "midi": 61,
      "hit": false,
      "t": 196566.5443750019,
      "d": 215.95135416666744,
      "v": 122
    },
    {
      "midi": 64,
      "hit": false,
      "t": 196569.08497916855,
      "d": 198.16712500000722,
      "v": 126
    },
    {
      "midi": 35,
      "hit": false,
      "t": 196581.7880000004,
      "d": 487.7960000000021,
      "v": 127
    },
    {
      "midi": 64,
      "hit": false,
      "t": 196800.27995833522,
      "d": 185.46410416666185,
      "v": 104
    },
    {
      "midi": 61,
      "hit": false,
      "t": 196810.44237500188,
      "d": 177.84229166666046,
      "v": 98
    },
    {
      "midi": 57,
      "hit": false,
      "t": 196823.14539583522,
      "d": 193.08591666663415,
      "v": 90
    },
    {
      "midi": 61,
      "hit": false,
      "t": 196825.68599999978,
      "d": 127.03020833333721,
      "v": 127
    },
    {
      "midi": 45,
      "hit": false,
      "t": 197036.5561458352,
      "d": 447.1463333332795,
      "v": 97
    },
    {
      "midi": 57,
      "hit": false,
      "t": 197039.09674999976,
      "d": 3782.959604166652,
      "v": 127
    },
    {
      "midi": 61,
      "hit": false,
      "t": 197039.09674999976,
      "d": 3785.5002083333093,
      "v": 127
    },
    {
      "midi": 64,
      "hit": false,
      "t": 197041.63735416642,
      "d": 3765.1753749999916,
      "v": 127
    },
    {
      "midi": 52,
      "hit": false,
      "t": 197046.71856250186,
      "d": 447.1463333332795,
      "v": 90
    },
    {
      "midi": 57,
      "hit": false,
      "t": 197056.88097916852,
      "d": 193.08591666666325,
      "v": 100
    },
    {
      "midi": 61,
      "hit": false,
      "t": 197067.04339583518,
      "d": 193.08591666666325,
      "v": 92
    },
    {
      "midi": 85,
      "hit": false,
      "t": 197069.58399999977,
      "d": 2322.112208333332,
      "v": 127
    },
    {
      "midi": 88,
      "hit": false,
      "t": 197069.58399999977,
      "d": 2336.0855312499916,
      "v": 127
    },
    {
      "midi": 76,
      "hit": false,
      "t": 197069.58399999977,
      "d": 2385.6273125000007,
      "v": 127
    },
    {
      "midi": 57,
      "hit": false,
      "t": 197069.58399999977,
      "d": 3719.4445000000414,
      "v": 127
    },
    {
      "midi": 64,
      "hit": false,
      "t": 197069.58399999977,
      "d": 3728.336614583386,
      "v": 127
    },
    {
      "midi": 61,
      "hit": false,
      "t": 197069.58399999977,
      "d": 3749.931750000047,
      "v": 127
    },
    {
      "midi": 61,
      "hit": false,
      "t": 197069.5839999998,
      "d": 124.48960416667978,
      "v": 127
    },
    {
      "midi": 45,
      "hit": false,
      "t": 197069.5840000004,
      "d": 577.9874479166756,
      "v": 127
    },
    {
      "midi": 64,
      "hit": false,
      "t": 197077.20581250184,
      "d": 193.08591666666325,
      "v": 83
    },
    {
      "midi": 64,
      "hit": false,
      "t": 197277.9135416685,
      "d": 238.81679166664253,
      "v": 82
    },
    {
      "midi": 61,
      "hit": false,
      "t": 197285.5353541685,
      "d": 238.81679166664253,
      "v": 81
    },
    {
      "midi": 57,
      "hit": false,
      "t": 197295.69777083516,
      "d": 223.57316666663974,
      "v": 80
    },
    {
      "midi": 61,
      "hit": false,
      "t": 197313.4819999998,
      "d": 114.32718749999185,
      "v": 127
    },
    {
      "midi": 45,
      "hit": false,
      "t": 197544.6769791685,
      "d": 442.0651249999646,
      "v": 88
    },
    {
      "midi": 52,
      "hit": false,
      "t": 197547.21758333515,
      "d": 467.47116666665534,
      "v": 92
    },
    {
      "midi": 57,
      "hit": false,
      "t": 197549.7581875018,
      "d": 444.60572916665114,
      "v": 117
    },
    {
      "midi": 61,
      "hit": false,
      "t": 197552.29879166847,
      "d": 436.98391666664975,
      "v": 122
    },
    {
      "midi": 64,
      "hit": false,
      "t": 197554.83939583512,
      "d": 452.22754166668165,
      "v": 126
    },
    {
      "midi": 61,
      "hit": false,
      "t": 197557.3799999998,
      "d": 120.67869791667908,
      "v": 127
    },
    {
      "midi": 61,
      "hit": false,
      "t": 197801.27799999982,
      "d": 119.40839583333582,
      "v": 127
    },
    {
      "midi": 45,
      "hit": false,
      "t": 197801.27800000043,
      "d": 232.4652812500135,
      "v": 127
    },
    {
      "midi": 45,
      "hit": false,
      "t": 198022.3105625018,
      "d": 231.19497916667024,
      "v": 95
    },
    {
      "midi": 52,
      "hit": false,
      "t": 198032.47297916847,
      "d": 208.32954166666605,
      "v": 88
    },
    {
      "midi": 57,
      "hit": false,
      "t": 198042.63539583512,
      "d": 193.08591666666325,
      "v": 98
    },
    {
      "midi": 61,
      "hit": false,
      "t": 198045.17599999983,
      "d": 118.13809374999255,
      "v": 127
    },
    {
      "midi": 40,
      "hit": false,
      "t": 198045.17600000044,
      "d": 641.5025520833442,
      "v": 127
    },
    {
      "midi": 61,
      "hit": false,
      "t": 198052.79781250178,
      "d": 436.98391666670796,
      "v": 90
    },
    {
      "midi": 64,
      "hit": false,
      "t": 198061.68992708513,
      "d": 452.22754166668165,
      "v": 83
    },
    {
      "midi": 57,
      "hit": false,
      "t": 198281.4521875018,
      "d": 193.08591666669236,
      "v": 85
    },
    {
      "midi": 61,
      "hit": false,
      "t": 198289.07399999982,
      "d": 121.94899999999325,
      "v": 127
    },
    {
      "midi": 52,
      "hit": false,
      "t": 198294.15520833514,
      "d": 193.08591666669236,
      "v": 71
    },
    {
      "midi": 45,
      "hit": false,
      "t": 198306.8582291685,
      "d": 193.08591666666325,
      "v": 72
    },
    {
      "midi": 45,
      "hit": false,
      "t": 198510.1065625018,
      "d": 452.22754166665254,
      "v": 88
    },
    {
      "midi": 52,
      "hit": false,
      "t": 198512.64716666847,
      "d": 452.22754166665254,
      "v": 92
    },
    {
      "midi": 57,
      "hit": false,
      "t": 198515.18777083515,
      "d": 208.32954166666605,
      "v": 117
    },
    {
      "midi": 61,
      "hit": false,
      "t": 198517.7283750018,
      "d": 215.95135416666744,
      "v": 122
    },
    {
      "midi": 64,
      "hit": false,
      "t": 198520.26897916847,
      "d": 198.16712500000722,
      "v": 126
    },
    {
      "midi": 64,
      "hit": false,
      "t": 198751.46395833514,
      "d": 185.46410416666185,
      "v": 104
    },
    {
      "midi": 61,
      "hit": false,
      "t": 198761.6263750018,
      "d": 177.84229166666046,
      "v": 98
    },
    {
      "midi": 57,
      "hit": false,
      "t": 198774.32939583514,
      "d": 193.08591666663415,
      "v": 90
    },
    {
      "midi": 61,
      "hit": false,
      "t": 198776.86999999982,
      "d": 109.24597916667699,
      "v": 127
    },
    {
      "midi": 40,
      "hit": false,
      "t": 198776.87000000046,
      "d": 224.8434687500121,
      "v": 127
    },
    {
      "midi": 45,
      "hit": false,
      "t": 198987.74014583512,
      "d": 447.1463333332795,
      "v": 97
    },
    {
      "midi": 52,
      "hit": false,
      "t": 198997.90256250178,
      "d": 447.1463333332795,
      "v": 90
    },
    {
      "midi": 57,
      "hit": false,
      "t": 199008.06497916844,
      "d": 193.08591666666325,
      "v": 100
    },
    {
      "midi": 61,
      "hit": false,
      "t": 199018.2273958351,
      "d": 193.08591666666325,
      "v": 92
    },
    {
      "midi": 61,
      "hit": false,
      "t": 199020.76799999984,
      "d": 118.13809374999255,
      "v": 127
    },
    {
      "midi": 45,
      "hit": false,
      "t": 199020.76800000048,
      "d": 590.6904687499919,
      "v": 127
    },
    {
      "midi": 64,
      "hit": false,
      "t": 199028.38981250176,
      "d": 193.08591666666325,
      "v": 83
    },
    {
      "midi": 64,
      "hit": false,
      "t": 199229.09754166842,
      "d": 238.81679166664253,
      "v": 82
    },
    {
      "midi": 61,
      "hit": false,
      "t": 199236.71935416842,
      "d": 238.81679166664253,
      "v": 81
    },
    {
      "midi": 57,
      "hit": false,
      "t": 199246.88177083508,
      "d": 223.57316666663974,
      "v": 80
    },
    {
      "midi": 61,
      "hit": false,
      "t": 199264.66599999982,
      "d": 110.51628124999115,
      "v": 127
    },
    {
      "midi": 73,
      "hit": false,
      "t": 199464.10342708312,
      "d": 400.14515625001513,
      "v": 112
    },
    {
      "midi": 85,
      "hit": false,
      "t": 199476.80644791646,
      "d": 368.3876041666663,
      "v": 127
    },
    {
      "midi": 81,
      "hit": false,
      "t": 199483.15795833312,
      "d": 370.9282083333528,
      "v": 127
    },
    {
      "midi": 45,
      "hit": false,
      "t": 199495.8609791684,
      "d": 442.0651249999646,
      "v": 88
    },
    {
      "midi": 52,
      "hit": false,
      "t": 199498.40158333507,
      "d": 467.47116666665534,
      "v": 92
    },
    {
      "midi": 57,
      "hit": false,
      "t": 199500.94218750173,
      "d": 444.60572916665114,
      "v": 117
    },
    {
      "midi": 61,
      "hit": false,
      "t": 199503.4827916684,
      "d": 436.98391666664975,
      "v": 122
    },
    {
      "midi": 64,
      "hit": false,
      "t": 199506.02339583504,
      "d": 452.22754166668165,
      "v": 126
    },
    {
      "midi": 61,
      "hit": false,
      "t": 199508.5639999998,
      "d": 105.43507291667629,
      "v": 127
    },
    {
      "midi": 61,
      "hit": false,
      "t": 199752.46199999982,
      "d": 143.54413541665417,
      "v": 127
    },
    {
      "midi": 45,
      "hit": false,
      "t": 199752.46200000047,
      "d": 240.0870937499858,
      "v": 127
    },
    {
      "midi": 74,
      "hit": false,
      "t": 199925.22308333314,
      "d": 453.4978437499958,
      "v": 100
    },
    {
      "midi": 83,
      "hit": false,
      "t": 199940.46670833314,
      "d": 396.33425000001444,
      "v": 127
    },
    {
      "midi": 86,
      "hit": false,
      "t": 199940.46670833314,
      "d": 402.68576041667257,
      "v": 127
    },
    {
      "midi": 45,
      "hit": false,
      "t": 199973.49456250173,
      "d": 231.19497916667024,
      "v": 95
    },
    {
      "midi": 52,
      "hit": false,
      "t": 199983.6569791684,
      "d": 208.32954166666605,
      "v": 88
    },
    {
      "midi": 57,
      "hit": false,
      "t": 199993.81939583505,
      "d": 193.08591666666325,
      "v": 98
    },
    {
      "midi": 59,
      "hit": false,
      "t": 199996.3599999998,
      "d": 194.35621875000652,
      "v": 127
    },
    {
      "midi": 40,
      "hit": false,
      "t": 199996.36000000045,
      "d": 532.2565729166672,
      "v": 127
    },
    {
      "midi": 61,
      "hit": false,
      "t": 200003.9818125017,
      "d": 436.98391666670796,
      "v": 90
    },
    {
      "midi": 64,
      "hit": false,
      "t": 200012.87392708505,
      "d": 452.22754166668165,
      "v": 83
    },
    {
      "midi": 57,
      "hit": false,
      "t": 200232.63618750172,
      "d": 193.08591666669236,
      "v": 85
    },
    {
      "midi": 57,
      "hit": false,
      "t": 200240.25799999983,
      "d": 393.7936458333279,
      "v": 127
    },
    {
      "midi": 52,
      "hit": false,
      "t": 200245.33920833506,
      "d": 193.08591666669236,
      "v": 71
    },
    {
      "midi": 45,
      "hit": false,
      "t": 200258.0422291684,
      "d": 193.08591666666325,
      "v": 72
    },
    {
      "midi": 88,
      "hit": false,
      "t": 200416.82998958314,
      "d": 450.9572395833384,
      "v": 127
    },
    {
      "midi": 76,
      "hit": false,
      "t": 200416.82998958314,
      "d": 462.3899583333405,
      "v": 127
    },
    {
      "midi": 85,
      "hit": false,
      "t": 200419.3705937498,
      "d": 447.1463333333377,
      "v": 127
    },
    {
      "midi": 45,
      "hit": false,
      "t": 200461.29056250173,
      "d": 452.22754166665254,
      "v": 88
    },
    {
      "midi": 52,
      "hit": false,
      "t": 200463.8311666684,
      "d": 452.22754166665254,
      "v": 92
    },
    {
      "midi": 57,
      "hit": false,
      "t": 200466.37177083507,
      "d": 208.32954166666605,
      "v": 117
    },
    {
      "midi": 61,
      "hit": false,
      "t": 200468.91237500173,
      "d": 215.95135416666744,
      "v": 122
    },
    {
      "midi": 64,
      "hit": false,
      "t": 200471.4529791684,
      "d": 198.16712500000722,
      "v": 126
    },
    {
      "midi": 45,
      "hit": false,
      "t": 200484.15600000045,
      "d": 233.73558333332767,
      "v": 127
    },
    {
      "midi": 64,
      "hit": false,
      "t": 200702.64795833506,
      "d": 185.46410416666185,
      "v": 104
    },
    {
      "midi": 61,
      "hit": false,
      "t": 200712.81037500172,
      "d": 177.84229166666046,
      "v": 98
    },
    {
      "midi": 57,
      "hit": false,
      "t": 200725.51339583506,
      "d": 193.08591666663415,
      "v": 90
    },
    {
      "midi": 62,
      "hit": false,
      "t": 200728.05399999983,
      "d": 92.73205208333093,
      "v": 127
    },
    {
      "midi": 40,
      "hit": false,
      "t": 200728.05400000044,
      "d": 221.0325625000114,
      "v": 127
    },
    {
      "midi": 62,
      "hit": false,
      "t": 200899.54478124983,
      "d": 3851.5559166666644,
      "v": 127
    },
    {
      "midi": 57,
      "hit": false,
      "t": 200900.81508333317,
      "d": 3842.6638020833198,
      "v": 127
    },
    {
      "midi": 57,
      "hit": false,
      "t": 200904.62598958306,
      "d": 3438.707739583275,
      "v": 94
    },
    {
      "midi": 66,
      "hit": false,
      "t": 200904.62598958318,
      "d": 3846.4747083333205,
      "v": 127
    },
    {
      "midi": 62,
      "hit": false,
      "t": 200908.43689583306,
      "d": 3446.329552083276,
      "v": 100
    },
    {
      "midi": 66,
      "hit": false,
      "t": 200918.59931249972,
      "d": 3433.62653124996,
      "v": 127
    },
    {
      "midi": 50,
      "hit": false,
      "t": 200938.92414583504,
      "d": 447.1463333332795,
      "v": 97
    },
    {
      "midi": 86,
      "hit": false,
      "t": 200945.27565624984,
      "d": 3913.8007187499898,
      "v": 100
    },
    {
      "midi": 81,
      "hit": false,
      "t": 200947.8162604165,
      "d": 3908.719510416675,
      "v": 112
    },
    {
      "midi": 54,
      "hit": false,
      "t": 200949.0865625017,
      "d": 447.1463333332795,
      "v": 90
    },
    {
      "midi": 57,
      "hit": false,
      "t": 200959.24897916836,
      "d": 193.08591666666325,
      "v": 100
    },
    {
      "midi": 62,
      "hit": false,
      "t": 200969.41139583502,
      "d": 193.08591666666325,
      "v": 92
    },
    {
      "midi": 62,
      "hit": false,
      "t": 200971.95199999982,
      "d": 90.1914479166735,
      "v": 127
    },
    {
      "midi": 38,
      "hit": false,
      "t": 200971.95200000046,
      "d": 612.2856041666528,
      "v": 127
    },
    {
      "midi": 66,
      "hit": false,
      "t": 200979.57381250168,
      "d": 193.08591666666325,
      "v": 83
    },
    {
      "midi": 66,
      "hit": false,
      "t": 201180.28154166834,
      "d": 238.81679166664253,
      "v": 82
    },
    {
      "midi": 62,
      "hit": false,
      "t": 201187.90335416835,
      "d": 238.81679166664253,
      "v": 81
    },
    {
      "midi": 57,
      "hit": false,
      "t": 201198.065770835,
      "d": 223.57316666663974,
      "v": 80
    },
    {
      "midi": 62,
      "hit": false,
      "t": 201215.84999999983,
      "d": 92.73205208333093,
      "v": 127
    },
    {
      "midi": 50,
      "hit": false,
      "t": 201447.04497916833,
      "d": 442.0651249999646,
      "v": 88
    },
    {
      "midi": 54,
      "hit": false,
      "t": 201449.585583335,
      "d": 467.47116666665534,
      "v": 92
    },
    {
      "midi": 57,
      "hit": false,
      "t": 201452.12618750165,
      "d": 444.60572916665114,
      "v": 117
    },
    {
      "midi": 62,
      "hit": false,
      "t": 201454.6667916683,
      "d": 436.98391666664975,
      "v": 122
    },
    {
      "midi": 66,
      "hit": false,
      "t": 201457.20739583496,
      "d": 452.22754166668165,
      "v": 126
    },
    {
      "midi": 62,
      "hit": false,
      "t": 201459.74799999982,
      "d": 100.35386458333232,
      "v": 127
    },
    {
      "midi": 62,
      "hit": false,
      "t": 201703.6459999998,
      "d": 96.54295833333163,
      "v": 127
    },
    {
      "midi": 38,
      "hit": false,
      "t": 201703.64600000044,
      "d": 193.08591666666325,
      "v": 127
    },
    {
      "midi": 50,
      "hit": false,
      "t": 201924.67856250165,
      "d": 231.19497916667024,
      "v": 95
    },
    {
      "midi": 54,
      "hit": false,
      "t": 201934.8409791683,
      "d": 208.32954166666605,
      "v": 88
    },
    {
      "midi": 57,
      "hit": false,
      "t": 201945.00339583497,
      "d": 193.08591666666325,
      "v": 98
    },
    {
      "midi": 62,
      "hit": false,
      "t": 201947.5439999998,
      "d": 114.32718749999185,
      "v": 127
    },
    {
      "midi": 33,
      "hit": false,
      "t": 201947.54400000043,
      "d": 612.2856041666528,
      "v": 127
    },
    {
      "midi": 62,
      "hit": false,
      "t": 201955.16581250163,
      "d": 436.98391666670796,
      "v": 90
    },
    {
      "midi": 66,
      "hit": false,
      "t": 201964.05792708497,
      "d": 452.22754166668165,
      "v": 83
    },
    {
      "midi": 57,
      "hit": false,
      "t": 202183.82018750164,
      "d": 193.08591666669236,
      "v": 85
    },
    {
      "midi": 62,
      "hit": false,
      "t": 202191.44199999978,
      "d": 107.97567708333372,
      "v": 127
    },
    {
      "midi": 54,
      "hit": false,
      "t": 202196.52320833498,
      "d": 193.08591666669236,
      "v": 71
    },
    {
      "midi": 50,
      "hit": false,
      "t": 202209.22622916833,
      "d": 193.08591666666325,
      "v": 72
    },
    {
      "midi": 50,
      "hit": false,
      "t": 202412.47456250165,
      "d": 452.22754166665254,
      "v": 88
    },
    {
      "midi": 54,
      "hit": false,
      "t": 202415.0151666683,
      "d": 452.22754166665254,
      "v": 92
    },
    {
      "midi": 57,
      "hit": false,
      "t": 202417.555770835,
      "d": 208.32954166666605,
      "v": 117
    },
    {
      "midi": 62,
      "hit": false,
      "t": 202420.09637500165,
      "d": 215.95135416666744,
      "v": 122
    },
    {
      "midi": 66,
      "hit": false,
      "t": 202422.6369791683,
      "d": 198.16712500000722,
      "v": 126
    },
    {
      "midi": 62,
      "hit": false,
      "t": 202435.33999999976,
      "d": 113.05688541667769,
      "v": 127
    },
    {
      "midi": 66,
      "hit": false,
      "t": 202653.83195833498,
      "d": 185.46410416666185,
      "v": 104
    },
    {
      "midi": 62,
      "hit": false,
      "t": 202663.99437500164,
      "d": 177.84229166666046,
      "v": 98
    },
    {
      "midi": 57,
      "hit": false,
      "t": 202676.69739583498,
      "d": 193.08591666663415,
      "v": 90
    },
    {
      "midi": 62,
      "hit": false,
      "t": 202679.23799999978,
      "d": 101.62416666667559,
      "v": 127
    },
    {
      "midi": 33,
      "hit": false,
      "t": 202679.23800000042,
      "d": 235.00588541667094,
      "v": 127
    },
    {
      "midi": 50,
      "hit": false,
      "t": 202890.10814583497,
      "d": 447.1463333332795,
      "v": 97
    },
    {
      "midi": 54,
      "hit": false,
      "t": 202900.27056250162,
      "d": 447.1463333332795,
      "v": 90
    },
    {
      "midi": 57,
      "hit": false,
      "t": 202910.43297916828,
      "d": 193.08591666666325,
      "v": 100
    },
    {
      "midi": 62,
      "hit": false,
      "t": 202920.59539583494,
      "d": 193.08591666666325,
      "v": 92
    },
    {
      "midi": 62,
      "hit": false,
      "t": 202923.1359999998,
      "d": 97.8132604166749,
      "v": 127
    },
    {
      "midi": 38,
      "hit": false,
      "t": 202923.13600000044,
      "d": 556.3923124999856,
      "v": 127
    },
    {
      "midi": 66,
      "hit": false,
      "t": 202930.7578125016,
      "d": 193.08591666666325,
      "v": 83
    },
    {
      "midi": 66,
      "hit": false,
      "t": 203131.46554166827,
      "d": 238.81679166664253,
      "v": 82
    },
    {
      "midi": 62,
      "hit": false,
      "t": 203139.08735416827,
      "d": 238.81679166664253,
      "v": 81
    },
    {
      "midi": 57,
      "hit": false,
      "t": 203149.24977083493,
      "d": 223.57316666663974,
      "v": 80
    },
    {
      "midi": 62,
      "hit": false,
      "t": 203167.0339999998,
      "d": 101.62416666667559,
      "v": 127
    },
    {
      "midi": 50,
      "hit": false,
      "t": 203398.22897916826,
      "d": 442.0651249999646,
      "v": 88
    },
    {
      "midi": 54,
      "hit": false,
      "t": 203400.7695833349,
      "d": 467.47116666665534,
      "v": 92
    },
    {
      "midi": 57,
      "hit": false,
      "t": 203403.31018750157,
      "d": 444.60572916665114,
      "v": 117
    },
    {
      "midi": 62,
      "hit": false,
      "t": 203405.85079166823,
      "d": 436.98391666664975,
      "v": 122
    },
    {
      "midi": 66,
      "hit": false,
      "t": 203408.3913958349,
      "d": 452.22754166668165,
      "v": 126
    },
    {
      "midi": 62,
      "hit": false,
      "t": 203410.93199999983,
      "d": 110.51628124999115,
      "v": 127
    },
    {
      "midi": 62,
      "hit": false,
      "t": 203654.8299999998,
      "d": 113.05688541667769,
      "v": 127
    },
    {
      "midi": 38,
      "hit": false,
      "t": 203654.83000000042,
      "d": 201.97803125000792,
      "v": 127
    },
    {
      "midi": 50,
      "hit": false,
      "t": 203875.86256250157,
      "d": 231.19497916667024,
      "v": 95
    },
    {
      "midi": 54,
      "hit": false,
      "t": 203886.02497916823,
      "d": 208.32954166666605,
      "v": 88
    },
    {
      "midi": 57,
      "hit": false,
      "t": 203896.1873958349,
      "d": 193.08591666666325,
      "v": 98
    },
    {
      "midi": 62,
      "hit": false,
      "t": 203898.72799999983,
      "d": 443.335427083337,
      "v": 127
    },
    {
      "midi": 33,
      "hit": false,
      "t": 203898.72800000044,
      "d": 508.12083333334886,
      "v": 127
    },
    {
      "midi": 62,
      "hit": false,
      "t": 203906.34981250155,
      "d": 436.98391666670796,
      "v": 90
    },
    {
      "midi": 66,
      "hit": false,
      "t": 203915.2419270849,
      "d": 452.22754166668165,
      "v": 83
    },
    {
      "midi": 57,
      "hit": false,
      "t": 204135.00418750156,
      "d": 193.08591666669236,
      "v": 85
    },
    {
      "midi": 54,
      "hit": false,
      "t": 204147.7072083349,
      "d": 193.08591666669236,
      "v": 71
    },
    {
      "midi": 50,
      "hit": false,
      "t": 204160.41022916825,
      "d": 193.08591666666325,
      "v": 72
    },
    {
      "midi": 50,
      "hit": false,
      "t": 204363.65856250157,
      "d": 452.22754166665254,
      "v": 88
    },
    {
      "midi": 54,
      "hit": false,
      "t": 204366.19916666823,
      "d": 452.22754166665254,
      "v": 92
    },
    {
      "midi": 57,
      "hit": false,
      "t": 204368.73977083492,
      "d": 208.32954166666605,
      "v": 117
    },
    {
      "midi": 62,
      "hit": false,
      "t": 204371.28037500157,
      "d": 215.95135416666744,
      "v": 122
    },
    {
      "midi": 66,
      "hit": false,
      "t": 204373.82097916823,
      "d": 198.16712500000722,
      "v": 126
    },
    {
      "midi": 61,
      "hit": false,
      "t": 204386.52399999983,
      "d": 158.78776041665697,
      "v": 127
    },
    {
      "midi": 38,
      "hit": false,
      "t": 204386.52400000044,
      "d": 223.57316666666884,
      "v": 127
    },
    {
      "midi": 66,
      "hit": false,
      "t": 204605.0159583349,
      "d": 185.46410416666185,
      "v": 104
    },
    {
      "midi": 62,
      "hit": false,
      "t": 204615.17837500156,
      "d": 177.84229166666046,
      "v": 98
    },
    {
      "midi": 57,
      "hit": false,
      "t": 204627.8813958349,
      "d": 193.08591666663415,
      "v": 90
    },
    {
      "midi": 62,
      "hit": false,
      "t": 204630.42199999982,
      "d": 137.19262499999604,
      "v": 127
    },
    {
      "midi": 39,
      "hit": false,
      "t": 204630.42200000046,
      "d": 241.35739583332906,
      "v": 127
    },
    {
      "midi": 64,
      "hit": false,
      "t": 204810.804895833,
      "d": 3851.555916666606,
      "v": 127
    },
    {
      "midi": 59,
      "hit": false,
      "t": 204813.34549999965,
      "d": 3850.285614583292,
      "v": 127
    },
    {
      "midi": 68,
      "hit": false,
      "t": 204815.8861041663,
      "d": 3831.2310833332886,
      "v": 127
    },
    {
      "midi": 80,
      "hit": false,
      "t": 204824.77821874982,
      "d": 2689.229510416684,
      "v": 69
    },
    {
      "midi": 68,
      "hit": false,
      "t": 204833.67033333317,
      "d": 3902.3679999999877,
      "v": 127
    },
    {
      "midi": 59,
      "hit": false,
      "t": 204836.21093749983,
      "d": 3902.3679999999877,
      "v": 127
    },
    {
      "midi": 76,
      "hit": false,
      "t": 204837.48123958317,
      "d": 2690.4998124999984,
      "v": 68
    },
    {
      "midi": 40,
      "hit": false,
      "t": 204841.2921458349,
      "d": 447.1463333332795,
      "v": 80
    },
    {
      "midi": 47,
      "hit": false,
      "t": 204851.45456250155,
      "d": 447.1463333332795,
      "v": 90
    },
    {
      "midi": 52,
      "hit": false,
      "t": 204861.6169791682,
      "d": 193.08591666666325,
      "v": 83
    },
    {
      "midi": 56,
      "hit": false,
      "t": 204871.77939583486,
      "d": 193.08591666666325,
      "v": 92
    },
    {
      "midi": 64,
      "hit": false,
      "t": 204874.3199999998,
      "d": 97.8132604166749,
      "v": 127
    },
    {
      "midi": 40,
      "hit": false,
      "t": 204874.32000000044,
      "d": 566.5547291666735,
      "v": 127
    },
    {
      "midi": 59,
      "hit": false,
      "t": 204881.94181250152,
      "d": 193.08591666666325,
      "v": 83
    },
    {
      "midi": 59,
      "hit": false,
      "t": 205082.6495416682,
      "d": 238.81679166664253,
      "v": 82
    },
    {
      "midi": 56,
      "hit": false,
      "t": 205090.2713541682,
      "d": 238.81679166664253,
      "v": 81
    },
    {
      "midi": 52,
      "hit": false,
      "t": 205100.43377083485,
      "d": 223.57316666663974,
      "v": 66
    },
    {
      "midi": 64,
      "hit": false,
      "t": 205118.21799999982,
      "d": 118.13809374999255,
      "v": 127
    },
    {
      "midi": 40,
      "hit": false,
      "t": 205349.41297916818,
      "d": 442.0651249999646,
      "v": 73
    },
    {
      "midi": 47,
      "hit": false,
      "t": 205351.95358333483,
      "d": 467.47116666665534,
      "v": 92
    },
    {
      "midi": 52,
      "hit": false,
      "t": 205354.4941875015,
      "d": 444.60572916665114,
      "v": 97
    },
    {
      "midi": 56,
      "hit": false,
      "t": 205357.03479166815,
      "d": 436.98391666664975,
      "v": 122
    },
    {
      "midi": 59,
      "hit": false,
      "t": 205359.5753958348,
      "d": 452.22754166668165,
      "v": 126
    },
    {
      "midi": 64,
      "hit": false,
      "t": 205362.1159999998,
      "d": 317.57552083334303,
      "v": 127
    },
    {
      "midi": 40,
      "hit": false,
      "t": 205606.01400000046,
      "d": 219.76226041666814,
      "v": 127
    },
    {
      "midi": 40,
      "hit": false,
      "t": 205827.0465625015,
      "d": 231.19497916667024,
      "v": 79
    },
    {
      "midi": 47,
      "hit": false,
      "t": 205837.20897916815,
      "d": 208.32954166666605,
      "v": 88
    },
    {
      "midi": 52,
      "hit": false,
      "t": 205847.3713958348,
      "d": 193.08591666666325,
      "v": 81
    },
    {
      "midi": 64,
      "hit": false,
      "t": 205849.9119999998,
      "d": 327.73793750000186,
      "v": 127
    },
    {
      "midi": 35,
      "hit": false,
      "t": 205849.91200000048,
      "d": 570.3656354166742,
      "v": 127
    },
    {
      "midi": 56,
      "hit": false,
      "t": 205857.53381250147,
      "d": 436.98391666670796,
      "v": 90
    },
    {
      "midi": 59,
      "hit": false,
      "t": 205866.4259270848,
      "d": 452.22754166668165,
      "v": 83
    },
    {
      "midi": 52,
      "hit": false,
      "t": 206086.18818750148,
      "d": 193.08591666669236,
      "v": 70
    },
    {
      "midi": 47,
      "hit": false,
      "t": 206098.89120833483,
      "d": 193.08591666669236,
      "v": 71
    },
    {
      "midi": 40,
      "hit": false,
      "t": 206111.59422916817,
      "d": 193.08591666666325,
      "v": 60
    },
    {
      "midi": 40,
      "hit": false,
      "t": 206314.8425625015,
      "d": 452.22754166665254,
      "v": 73
    },
    {
      "midi": 47,
      "hit": false,
      "t": 206317.38316666815,
      "d": 452.22754166665254,
      "v": 92
    },
    {
      "midi": 52,
      "hit": false,
      "t": 206319.92377083484,
      "d": 208.32954166666605,
      "v": 97
    },
    {
      "midi": 56,
      "hit": false,
      "t": 206322.4643750015,
      "d": 215.95135416666744,
      "v": 122
    },
    {
      "midi": 59,
      "hit": false,
      "t": 206325.00497916815,
      "d": 198.16712500000722,
      "v": 126
    },
    {
      "midi": 64,
      "hit": false,
      "t": 206337.7079999998,
      "d": 104.16477083333302,
      "v": 127
    },
    {
      "midi": 59,
      "hit": false,
      "t": 206556.19995833482,
      "d": 185.46410416666185,
      "v": 104
    },
    {
      "midi": 56,
      "hit": false,
      "t": 206566.36237500148,
      "d": 177.84229166666046,
      "v": 98
    },
    {
      "midi": 52,
      "hit": false,
      "t": 206579.06539583483,
      "d": 193.08591666663415,
      "v": 75
    },
    {
      "midi": 64,
      "hit": false,
      "t": 206581.6059999998,
      "d": 99.08356249998906,
      "v": 127
    },
    {
      "midi": 35,
      "hit": false,
      "t": 206581.6060000005,
      "d": 222.30286458332557,
      "v": 127
    },
    {
      "midi": 40,
      "hit": false,
      "t": 206792.4761458348,
      "d": 447.1463333332795,
      "v": 80
    },
    {
      "midi": 47,
      "hit": false,
      "t": 206802.63856250147,
      "d": 447.1463333332795,
      "v": 90
    },
    {
      "midi": 52,
      "hit": false,
      "t": 206812.80097916813,
      "d": 193.08591666666325,
      "v": 83
    },
    {
      "midi": 56,
      "hit": false,
      "t": 206822.96339583478,
      "d": 193.08591666666325,
      "v": 92
    },
    {
      "midi": 64,
      "hit": false,
      "t": 206825.50399999978,
      "d": 105.43507291667629,
      "v": 127
    },
    {
      "midi": 40,
      "hit": false,
      "t": 206825.50400000048,
      "d": 584.3389583333337,
      "v": 127
    },
    {
      "midi": 59,
      "hit": false,
      "t": 206833.12581250144,
      "d": 193.08591666666325,
      "v": 83
    },
    {
      "midi": 59,
      "hit": false,
      "t": 207033.8335416681,
      "d": 238.81679166664253,
      "v": 82
    },
    {
      "midi": 56,
      "hit": false,
      "t": 207041.4553541681,
      "d": 238.81679166664253,
      "v": 81
    },
    {
      "midi": 52,
      "hit": false,
      "t": 207051.61777083477,
      "d": 223.57316666663974,
      "v": 66
    },
    {
      "midi": 64,
      "hit": false,
      "t": 207069.4019999998,
      "d": 100.35386458333232,
      "v": 127
    },
    {
      "midi": 40,
      "hit": false,
      "t": 207300.5969791681,
      "d": 442.0651249999646,
      "v": 73
    },
    {
      "midi": 47,
      "hit": false,
      "t": 207303.13758333476,
      "d": 467.47116666665534,
      "v": 92
    },
    {
      "midi": 52,
      "hit": false,
      "t": 207305.6781875014,
      "d": 444.60572916665114,
      "v": 97
    },
    {
      "midi": 56,
      "hit": false,
      "t": 207308.21879166807,
      "d": 436.98391666664975,
      "v": 122
    },
    {
      "midi": 59,
      "hit": false,
      "t": 207310.75939583473,
      "d": 452.22754166668165,
      "v": 126
    },
    {
      "midi": 64,
      "hit": false,
      "t": 207313.29999999978,
      "d": 229.92467708332697,
      "v": 127
    },
    {
      "midi": 40,
      "hit": false,
      "t": 207557.19800000047,
      "d": 224.8434687500121,
      "v": 127
    },
    {
      "midi": 40,
      "hit": false,
      "t": 207778.2305625014,
      "d": 231.19497916667024,
      "v": 79
    },
    {
      "midi": 47,
      "hit": false,
      "t": 207788.39297916807,
      "d": 208.32954166666605,
      "v": 88
    },
    {
      "midi": 52,
      "hit": false,
      "t": 207798.55539583473,
      "d": 193.08591666666325,
      "v": 81
    },
    {
      "midi": 64,
      "hit": false,
      "t": 207801.0959999998,
      "d": 654.2055729166605,
      "v": 127
    },
    {
      "midi": 35,
      "hit": false,
      "t": 207801.09600000049,
      "d": 417.92938541667536,
      "v": 127
    },
    {
      "midi": 56,
      "hit": false,
      "t": 207808.7178125014,
      "d": 436.98391666670796,
      "v": 90
    },
    {
      "midi": 59,
      "hit": false,
      "t": 207817.60992708473,
      "d": 452.22754166668165,
      "v": 83
    },
    {
      "midi": 52,
      "hit": false,
      "t": 208037.3721875014,
      "d": 193.08591666669236,
      "v": 70
    },
    {
      "midi": 47,
      "hit": false,
      "t": 208050.07520833475,
      "d": 193.08591666669236,
      "v": 71
    },
    {
      "midi": 40,
      "hit": false,
      "t": 208062.7782291681,
      "d": 193.08591666666325,
      "v": 60
    },
    {
      "midi": 40,
      "hit": false,
      "t": 208266.0265625014,
      "d": 452.22754166665254,
      "v": 73
    },
    {
      "midi": 47,
      "hit": false,
      "t": 208268.56716666807,
      "d": 452.22754166665254,
      "v": 92
    },
    {
      "midi": 52,
      "hit": false,
      "t": 208271.10777083476,
      "d": 208.32954166666605,
      "v": 97
    },
    {
      "midi": 56,
      "hit": false,
      "t": 208273.64837500142,
      "d": 215.95135416666744,
      "v": 122
    },
    {
      "midi": 59,
      "hit": false,
      "t": 208276.18897916807,
      "d": 198.16712500000722,
      "v": 126
    },
    {
      "midi": 40,
      "hit": false,
      "t": 208288.8920000005,
      "d": 242.62769791667233,
      "v": 127
    },
    {
      "midi": 59,
      "hit": false,
      "t": 208507.38395833474,
      "d": 185.46410416666185,
      "v": 104
    },
    {
      "midi": 56,
      "hit": false,
      "t": 208517.5463750014,
      "d": 177.84229166666046,
      "v": 98
    },
    {
      "midi": 52,
      "hit": false,
      "t": 208530.24939583475,
      "d": 193.08591666663415,
      "v": 75
    },
    {
      "midi": 62,
      "hit": false,
      "t": 208532.78999999978,
      "d": 101.62416666667559,
      "v": 127
    },
    {
      "midi": 44,
      "hit": false,
      "t": 208532.7900000005,
      "d": 199.43742708332138,
      "v": 127
    },
    {
      "midi": 61,
      "hit": false,
      "t": 208720.79470833315,
      "d": 1951.1840000000084,
      "v": 127
    },
    {
      "midi": 57,
      "hit": false,
      "t": 208722.0650104165,
      "d": 1951.1840000000084,
      "v": 127
    },
    {
      "midi": 64,
      "hit": false,
      "t": 208724.60561458315,
      "d": 13.973322916659527,
      "v": 127
    },
    {
      "midi": 45,
      "hit": false,
      "t": 208743.66014583473,
      "d": 447.1463333332795,
      "v": 97
    },
    {
      "midi": 52,
      "hit": false,
      "t": 208753.8225625014,
      "d": 447.1463333332795,
      "v": 90
    },
    {
      "midi": 61,
      "hit": false,
      "t": 208758.90377083293,
      "d": 1880.0470833333675,
      "v": 127
    },
    {
      "midi": 64,
      "hit": false,
      "t": 208763.98497916627,
      "d": 3123.6728229166765,
      "v": 127
    },
    {
      "midi": 57,
      "hit": false,
      "t": 208763.98497916805,
      "d": 193.08591666666325,
      "v": 100
    },
    {
      "midi": 57,
      "hit": false,
      "t": 208765.2552812496,
      "d": 1947.3730937500077,
      "v": 127
    },
    {
      "midi": 61,
      "hit": false,
      "t": 208774.1473958347,
      "d": 193.08591666666325,
      "v": 92
    },
    {
      "midi": 62,
      "hit": false,
      "t": 208776.6879999998,
      "d": 243.8979999999865,
      "v": 127
    },
    {
      "midi": 45,
      "hit": false,
      "t": 208776.6880000005,
      "d": 635.151041666657,
      "v": 127
    },
    {
      "midi": 64,
      "hit": false,
      "t": 208784.30981250136,
      "d": 193.08591666666325,
      "v": 83
    },
    {
      "midi": 64,
      "hit": false,
      "t": 208985.01754166803,
      "d": 238.81679166664253,
      "v": 82
    },
    {
      "midi": 61,
      "hit": false,
      "t": 208992.63935416803,
      "d": 238.81679166664253,
      "v": 81
    },
    {
      "midi": 57,
      "hit": false,
      "t": 209002.8017708347,
      "d": 223.57316666663974,
      "v": 80
    },
    {
      "midi": 61,
      "hit": false,
      "t": 209020.58599999978,
      "d": 243.8979999999865,
      "v": 127
    },
    {
      "midi": 45,
      "hit": false,
      "t": 209251.78097916802,
      "d": 442.0651249999646,
      "v": 88
    },
    {
      "midi": 52,
      "hit": false,
      "t": 209254.32158333468,
      "d": 467.47116666665534,
      "v": 92
    },
    {
      "midi": 57,
      "hit": false,
      "t": 209256.86218750133,
      "d": 444.60572916665114,
      "v": 117
    },
    {
      "midi": 61,
      "hit": false,
      "t": 209259.402791668,
      "d": 436.98391666664975,
      "v": 122
    },
    {
      "midi": 64,
      "hit": false,
      "t": 209261.94339583465,
      "d": 452.22754166668165,
      "v": 126
    },
    {
      "midi": 45,
      "hit": false,
      "t": 209508.38200000048,
      "d": 215.95135416666744,
      "v": 127
    },
    {
      "midi": 45,
      "hit": false,
      "t": 209729.41456250133,
      "d": 231.19497916667024,
      "v": 95
    },
    {
      "midi": 52,
      "hit": false,
      "t": 209739.576979168,
      "d": 208.32954166666605,
      "v": 88
    },
    {
      "midi": 57,
      "hit": false,
      "t": 209749.73939583465,
      "d": 193.08591666666325,
      "v": 98
    },
    {
      "midi": 40,
      "hit": false,
      "t": 209752.28000000046,
      "d": 483.9850937500014,
      "v": 127
    },
    {
      "midi": 61,
      "hit": false,
      "t": 209759.9018125013,
      "d": 436.98391666670796,
      "v": 90
    },
    {
      "midi": 64,
      "hit": false,
      "t": 209768.79392708465,
      "d": 452.22754166668165,
      "v": 83
    },
    {
      "midi": 57,
      "hit": false,
      "t": 209988.55618750132,
      "d": 193.08591666669236,
      "v": 85
    },
    {
      "midi": 52,
      "hit": false,
      "t": 210001.25920833467,
      "d": 193.08591666669236,
      "v": 71
    },
    {
      "midi": 45,
      "hit": false,
      "t": 210013.962229168,
      "d": 193.08591666666325,
      "v": 72
    },
    {
      "midi": 45,
      "hit": false,
      "t": 210217.21056250134,
      "d": 452.22754166665254,
      "v": 88
    },
    {
      "midi": 52,
      "hit": false,
      "t": 210219.751166668,
      "d": 452.22754166665254,
      "v": 92
    },
    {
      "midi": 57,
      "hit": false,
      "t": 210222.29177083468,
      "d": 208.32954166666605,
      "v": 117
    },
    {
      "midi": 61,
      "hit": false,
      "t": 210224.83237500134,
      "d": 215.95135416666744,
      "v": 122
    },
    {
      "midi": 64,
      "hit": false,
      "t": 210227.372979168,
      "d": 198.16712500000722,
      "v": 126
    },
    {
      "midi": 38,
      "hit": false,
      "t": 210240.07600000047,
      "d": 231.19497916667024,
      "v": 127
    },
    {
      "midi": 64,
      "hit": false,
      "t": 210458.56795833466,
      "d": 185.46410416666185,
      "v": 104
    },
    {
      "midi": 61,
      "hit": false,
      "t": 210468.73037500132,
      "d": 177.84229166666046,
      "v": 98
    },
    {
      "midi": 57,
      "hit": false,
      "t": 210481.43339583467,
      "d": 193.08591666663415,
      "v": 90
    },
    {
      "midi": 39,
      "hit": false,
      "t": 210483.97400000048,
      "d": 226.11377083332627,
      "v": 127
    },
    {
      "midi": 56,
      "hit": false,
      "t": 210664.35689583316,
      "d": 1951.1840000000084,
      "v": 127
    },
    {
      "midi": 64,
      "hit": false,
      "t": 210670.70840624982,
      "d": 5.081208333343966,
      "v": 127
    },
    {
      "midi": 59,
      "hit": false,
      "t": 210677.0599166663,
      "d": 1242.3554374999658,
      "v": 112
    },
    {
      "midi": 59,
      "hit": false,
      "t": 210677.0599166665,
      "d": 1951.1840000000084,
      "v": 127
    },
    {
      "midi": 40,
      "hit": false,
      "t": 210694.84414583465,
      "d": 447.1463333332795,
      "v": 80
    },
    {
      "midi": 47,
      "hit": false,
      "t": 210705.0065625013,
      "d": 447.1463333332795,
      "v": 75
    },
    {
      "midi": 52,
      "hit": false,
      "t": 210715.16897916797,
      "d": 193.08591666666325,
      "v": 69
    },
    {
      "midi": 56,
      "hit": false,
      "t": 210725.33139583463,
      "d": 193.08591666666325,
      "v": 92
    },
    {
      "midi": 40,
      "hit": false,
      "t": 210727.87200000047,
      "d": 599.5825833333365,
      "v": 127
    },
    {
      "midi": 59,
      "hit": false,
      "t": 210735.49381250128,
      "d": 193.08591666666325,
      "v": 83
    },
    {
      "midi": 59,
      "hit": false,
      "t": 210936.20154166795,
      "d": 238.81679166664253,
      "v": 82
    },
    {
      "midi": 56,
      "hit": false,
      "t": 210943.82335416795,
      "d": 238.81679166664253,
      "v": 81
    },
    {
      "midi": 52,
      "hit": false,
      "t": 210953.9857708346,
      "d": 223.57316666663974,
      "v": 55
    },
    {
      "midi": 40,
      "hit": false,
      "t": 211202.96497916794,
      "d": 442.0651249999646,
      "v": 73
    },
    {
      "midi": 47,
      "hit": false,
      "t": 211205.5055833346,
      "d": 467.47116666665534,
      "v": 76
    },
    {
      "midi": 52,
      "hit": false,
      "t": 211208.04618750126,
      "d": 444.60572916665114,
      "v": 80
    },
    {
      "midi": 56,
      "hit": false,
      "t": 211210.5867916679,
      "d": 436.98391666664975,
      "v": 122
    },
    {
      "midi": 59,
      "hit": false,
      "t": 211213.12739583457,
      "d": 452.22754166668165,
      "v": 126
    },
    {
      "midi": 40,
      "hit": false,
      "t": 211459.5660000005,
      "d": 217.2216562500107,
      "v": 127
    },
    {
      "midi": 40,
      "hit": false,
      "t": 211680.59856250125,
      "d": 231.19497916667024,
      "v": 79
    },
    {
      "midi": 47,
      "hit": false,
      "t": 211690.7609791679,
      "d": 208.32954166666605,
      "v": 73
    },
    {
      "midi": 52,
      "hit": false,
      "t": 211700.92339583457,
      "d": 193.08591666666325,
      "v": 67
    },
    {
      "midi": 35,
      "hit": false,
      "t": 211703.4640000005,
      "d": 224.8434687500121,
      "v": 127
    },
    {
      "midi": 56,
      "hit": false,
      "t": 211711.08581250123,
      "d": 436.98391666670796,
      "v": 90
    },
    {
      "midi": 59,
      "hit": false,
      "t": 211719.97792708458,
      "d": 452.22754166668165,
      "v": 83
    },
    {
      "midi": 52,
      "hit": false,
      "t": 211939.74018750124,
      "d": 193.08591666669236,
      "v": 58
    },
    {
      "midi": 40,
      "hit": false,
      "t": 211947.36200000052,
      "d": 279.46645833330695,
      "v": 127
    },
    {
      "midi": 47,
      "hit": false,
      "t": 211952.4432083346,
      "d": 193.08591666669236,
      "v": 59
    },
    {
      "midi": 40,
      "hit": false,
      "t": 211965.14622916793,
      "d": 193.08591666666325,
      "v": 60
    },
    {
      "midi": 40,
      "hit": false,
      "t": 212168.39456250126,
      "d": 452.22754166665254,
      "v": 73
    },
    {
      "midi": 47,
      "hit": false,
      "t": 212170.9351666679,
      "d": 452.22754166665254,
      "v": 76
    },
    {
      "midi": 52,
      "hit": false,
      "t": 212173.4757708346,
      "d": 208.32954166666605,
      "v": 80
    },
    {
      "midi": 56,
      "hit": false,
      "t": 212176.01637500126,
      "d": 215.95135416666744,
      "v": 122
    },
    {
      "midi": 59,
      "hit": false,
      "t": 212178.55697916792,
      "d": 198.16712500000722,
      "v": 126
    },
    {
      "midi": 42,
      "hit": false,
      "t": 212191.2600000005,
      "d": 223.57316666663974,
      "v": 127
    },
    {
      "midi": 59,
      "hit": false,
      "t": 212409.7519583346,
      "d": 185.46410416666185,
      "v": 104
    },
    {
      "midi": 56,
      "hit": false,
      "t": 212419.91437500124,
      "d": 177.84229166666046,
      "v": 98
    },
    {
      "midi": 61,
      "hit": false,
      "t": 212424.9955833331,
      "d": 73.67752083332743,
      "v": 127
    },
    {
      "midi": 52,
      "hit": false,
      "t": 212432.6173958346,
      "d": 193.08591666663415,
      "v": 62
    },
    {
      "midi": 40,
      "hit": false,
      "t": 212435.1580000005,
      "d": 215.95135416666744,
      "v": 127
    },
    {
      "midi": 61,
      "hit": false,
      "t": 212616.81119791628,
      "d": 3837.582593750005,
      "v": 127
    },
    {
      "midi": 57,
      "hit": false,
      "t": 212618.08149999962,
      "d": 3821.068666666659,
      "v": 127
    },
    {
      "midi": 64,
      "hit": false,
      "t": 212619.35180208297,
      "d": 3818.5280624999723,
      "v": 127
    },
    {
      "midi": 85,
      "hit": false,
      "t": 212632.0548229165,
      "d": 2438.9799999999814,
      "v": 127
    },
    {
      "midi": 88,
      "hit": false,
      "t": 212634.59542708317,
      "d": 2438.9799999999814,
      "v": 127
    },
    {
      "midi": 76,
      "hit": false,
      "t": 212635.86572916651,
      "d": 2438.9799999999814,
      "v": 127
    },
    {
      "midi": 45,
      "hit": false,
      "t": 212646.02814583457,
      "d": 447.1463333332795,
      "v": 97
    },
    {
      "midi": 52,
      "hit": false,
      "t": 212656.19056250123,
      "d": 447.1463333332795,
      "v": 90
    },
    {
      "midi": 61,
      "hit": false,
      "t": 212661.27177083318,
      "d": 3788.040812500054,
      "v": 127
    },
    {
      "midi": 57,
      "hit": false,
      "t": 212663.81237499983,
      "d": 3765.175375000079,
      "v": 127
    },
    {
      "midi": 64,
      "hit": false,
      "t": 212663.81237499983,
      "d": 3771.526885416737,
      "v": 127
    },
    {
      "midi": 57,
      "hit": false,
      "t": 212666.3529791679,
      "d": 193.08591666666325,
      "v": 100
    },
    {
      "midi": 61,
      "hit": false,
      "t": 212668.8935833331,
      "d": 81.29933333332883,
      "v": 127
    },
    {
      "midi": 61,
      "hit": false,
      "t": 212676.51539583455,
      "d": 193.08591666666325,
      "v": 92
    },
    {
      "midi": 45,
      "hit": false,
      "t": 212679.05600000048,
      "d": 577.9874479166756,
      "v": 127
    },
    {
      "midi": 64,
      "hit": false,
      "t": 212686.6778125012,
      "d": 193.08591666666325,
      "v": 83
    },
    {
      "midi": 64,
      "hit": false,
      "t": 212887.38554166787,
      "d": 238.81679166664253,
      "v": 82
    },
    {
      "midi": 61,
      "hit": false,
      "t": 212895.00735416787,
      "d": 238.81679166664253,
      "v": 81
    },
    {
      "midi": 57,
      "hit": false,
      "t": 212905.16977083453,
      "d": 223.57316666663974,
      "v": 80
    },
    {
      "midi": 61,
      "hit": false,
      "t": 212922.95399999977,
      "d": 77.48842708332813,
      "v": 127
    },
    {
      "midi": 45,
      "hit": false,
      "t": 213154.14897916786,
      "d": 442.0651249999646,
      "v": 88
    },
    {
      "midi": 52,
      "hit": false,
      "t": 213156.68958333452,
      "d": 467.47116666665534,
      "v": 92
    },
    {
      "midi": 57,
      "hit": false,
      "t": 213159.23018750118,
      "d": 444.60572916665114,
      "v": 117
    },
    {
      "midi": 61,
      "hit": false,
      "t": 213161.77079166783,
      "d": 436.98391666664975,
      "v": 122
    },
    {
      "midi": 64,
      "hit": false,
      "t": 213164.3113958345,
      "d": 452.22754166668165,
      "v": 126
    },
    {
      "midi": 61,
      "hit": false,
      "t": 213166.85199999975,
      "d": 83.83993749998626,
      "v": 127
    },
    {
      "midi": 61,
      "hit": false,
      "t": 213410.74999999974,
      "d": 87.65084374998696,
      "v": 127
    },
    {
      "midi": 45,
      "hit": false,
      "t": 213410.7500000005,
      "d": 232.4652812500135,
      "v": 127
    },
    {
      "midi": 45,
      "hit": false,
      "t": 213631.78256250118,
      "d": 231.19497916667024,
      "v": 95
    },
    {
      "midi": 52,
      "hit": false,
      "t": 213641.94497916783,
      "d": 208.32954166666605,
      "v": 88
    },
    {
      "midi": 57,
      "hit": false,
      "t": 213652.1073958345,
      "d": 193.08591666666325,
      "v": 98
    },
    {
      "midi": 61,
      "hit": false,
      "t": 213654.64799999972,
      "d": 92.73205208333093,
      "v": 127
    },
    {
      "midi": 40,
      "hit": false,
      "t": 213654.6480000005,
      "d": 641.5025520833442,
      "v": 127
    },
    {
      "midi": 61,
      "hit": false,
      "t": 213662.26981250115,
      "d": 436.98391666670796,
      "v": 90
    },
    {
      "midi": 64,
      "hit": false,
      "t": 213671.1619270845,
      "d": 452.22754166668165,
      "v": 83
    },
    {
      "midi": 57,
      "hit": false,
      "t": 213890.92418750116,
      "d": 193.08591666669236,
      "v": 85
    },
    {
      "midi": 61,
      "hit": false,
      "t": 213898.5459999997,
      "d": 356.9548854166642,
      "v": 127
    },
    {
      "midi": 52,
      "hit": false,
      "t": 213903.6272083345,
      "d": 193.08591666669236,
      "v": 71
    },
    {
      "midi": 45,
      "hit": false,
      "t": 213916.33022916786,
      "d": 193.08591666666325,
      "v": 72
    },
    {
      "midi": 45,
      "hit": false,
      "t": 214119.57856250118,
      "d": 452.22754166665254,
      "v": 88
    },
    {
      "midi": 52,
      "hit": false,
      "t": 214122.11916666784,
      "d": 452.22754166665254,
      "v": 92
    },
    {
      "midi": 57,
      "hit": false,
      "t": 214124.65977083452,
      "d": 208.32954166666605,
      "v": 117
    },
    {
      "midi": 61,
      "hit": false,
      "t": 214127.20037500118,
      "d": 215.95135416666744,
      "v": 122
    },
    {
      "midi": 64,
      "hit": false,
      "t": 214129.74097916784,
      "d": 198.16712500000722,
      "v": 126
    },
    {
      "midi": 64,
      "hit": false,
      "t": 214360.9359583345,
      "d": 185.46410416666185,
      "v": 104
    },
    {
      "midi": 61,
      "hit": false,
      "t": 214371.09837500117,
      "d": 177.84229166666046,
      "v": 98
    },
    {
      "midi": 57,
      "hit": false,
      "t": 214383.8013958345,
      "d": 193.08591666663415,
      "v": 90
    },
    {
      "midi": 61,
      "hit": false,
      "t": 214386.3419999997,
      "d": 81.29933333332883,
      "v": 127
    },
    {
      "midi": 40,
      "hit": false,
      "t": 214386.34200000053,
      "d": 224.8434687500121,
      "v": 127
    },
    {
      "midi": 45,
      "hit": false,
      "t": 214597.2121458345,
      "d": 447.1463333332795,
      "v": 97
    },
    {
      "midi": 52,
      "hit": false,
      "t": 214607.37456250115,
      "d": 447.1463333332795,
      "v": 90
    },
    {
      "midi": 57,
      "hit": false,
      "t": 214617.5369791678,
      "d": 193.08591666666325,
      "v": 100
    },
    {
      "midi": 61,
      "hit": false,
      "t": 214627.69939583447,
      "d": 193.08591666666325,
      "v": 92
    },
    {
      "midi": 61,
      "hit": false,
      "t": 214630.2399999997,
      "d": 76.21812500001397,
      "v": 127
    },
    {
      "midi": 45,
      "hit": false,
      "t": 214630.24000000054,
      "d": 590.6904687499919,
      "v": 127
    },
    {
      "midi": 64,
      "hit": false,
      "t": 214637.86181250113,
      "d": 193.08591666666325,
      "v": 83
    },
    {
      "midi": 64,
      "hit": false,
      "t": 214838.5695416678,
      "d": 238.81679166664253,
      "v": 82
    },
    {
      "midi": 61,
      "hit": false,
      "t": 214846.1913541678,
      "d": 238.81679166664253,
      "v": 81
    },
    {
      "midi": 57,
      "hit": false,
      "t": 214856.35377083445,
      "d": 223.57316666663974,
      "v": 80
    },
    {
      "midi": 61,
      "hit": false,
      "t": 214874.13799999972,
      "d": 73.67752083332743,
      "v": 127
    },
    {
      "midi": 73,
      "hit": false,
      "t": 215074.8457291665,
      "d": 487.7960000000312,
      "v": 127
    },
    {
      "midi": 85,
      "hit": false,
      "t": 215087.54874999984,
      "d": 487.7960000000312,
      "v": 127
    },
    {
      "midi": 81,
      "hit": false,
      "t": 215088.81905208318,
      "d": 487.7960000000312,
      "v": 127
    },
    {
      "midi": 45,
      "hit": false,
      "t": 215105.33297916778,
      "d": 442.0651249999646,
      "v": 88
    },
    {
      "midi": 52,
      "hit": false,
      "t": 215107.87358333444,
      "d": 467.47116666665534,
      "v": 92
    },
    {
      "midi": 57,
      "hit": false,
      "t": 215110.4141875011,
      "d": 444.60572916665114,
      "v": 117
    },
    {
      "midi": 61,
      "hit": false,
      "t": 215112.95479166775,
      "d": 436.98391666664975,
      "v": 122
    },
    {
      "midi": 64,
      "hit": false,
      "t": 215115.4953958344,
      "d": 452.22754166668165,
      "v": 126
    },
    {
      "midi": 61,
      "hit": false,
      "t": 215118.0359999997,
      "d": 74.9478229166707,
      "v": 127
    },
    {
      "midi": 61,
      "hit": false,
      "t": 215361.93399999972,
      "d": 106.70537499999045,
      "v": 127
    },
    {
      "midi": 45,
      "hit": false,
      "t": 215361.93400000053,
      "d": 240.0870937499858,
      "v": 127
    },
    {
      "midi": 74,
      "hit": false,
      "t": 215580.42595833322,
      "d": 487.7960000000312,
      "v": 127
    },
    {
      "midi": 45,
      "hit": false,
      "t": 215582.9665625011,
      "d": 231.19497916667024,
      "v": 95
    },
    {
      "midi": 86,
      "hit": false,
      "t": 215586.77746874987,
      "d": 487.7960000000312,
      "v": 127
    },
    {
      "midi": 83,
      "hit": false,
      "t": 215588.04777083322,
      "d": 487.7960000000312,
      "v": 127
    },
    {
      "midi": 52,
      "hit": false,
      "t": 215593.12897916776,
      "d": 208.32954166666605,
      "v": 88
    },
    {
      "midi": 57,
      "hit": false,
      "t": 215603.2913958344,
      "d": 193.08591666666325,
      "v": 98
    },
    {
      "midi": 59,
      "hit": false,
      "t": 215605.8319999997,
      "d": 209.5998437500093,
      "v": 127
    },
    {
      "midi": 40,
      "hit": false,
      "t": 215605.83200000052,
      "d": 532.2565729166672,
      "v": 127
    },
    {
      "midi": 61,
      "hit": false,
      "t": 215613.45381250107,
      "d": 436.98391666670796,
      "v": 90
    },
    {
      "midi": 64,
      "hit": false,
      "t": 215622.34592708442,
      "d": 452.22754166668165,
      "v": 83
    },
    {
      "midi": 57,
      "hit": false,
      "t": 215842.1081875011,
      "d": 193.08591666669236,
      "v": 85
    },
    {
      "midi": 57,
      "hit": false,
      "t": 215849.72999999972,
      "d": 365.84700000000885,
      "v": 127
    },
    {
      "midi": 52,
      "hit": false,
      "t": 215854.81120833443,
      "d": 193.08591666669236,
      "v": 71
    },
    {
      "midi": 45,
      "hit": false,
      "t": 215867.51422916778,
      "d": 193.08591666666325,
      "v": 72
    },
    {
      "midi": 85,
      "hit": false,
      "t": 216058.05954166656,
      "d": 487.7960000000312,
      "v": 127
    },
    {
      "midi": 76,
      "hit": false,
      "t": 216061.87044791656,
      "d": 487.7960000000312,
      "v": 127
    },
    {
      "midi": 88,
      "hit": false,
      "t": 216063.1407499999,
      "d": 487.7960000000312,
      "v": 127
    },
    {
      "midi": 45,
      "hit": false,
      "t": 216070.7625625011,
      "d": 452.22754166665254,
      "v": 88
    },
    {
      "midi": 52,
      "hit": false,
      "t": 216073.30316666776,
      "d": 452.22754166665254,
      "v": 92
    },
    {
      "midi": 57,
      "hit": false,
      "t": 216075.84377083444,
      "d": 208.32954166666605,
      "v": 117
    },
    {
      "midi": 61,
      "hit": false,
      "t": 216078.3843750011,
      "d": 215.95135416666744,
      "v": 122
    },
    {
      "midi": 64,
      "hit": false,
      "t": 216080.92497916776,
      "d": 198.16712500000722,
      "v": 126
    },
    {
      "midi": 45,
      "hit": false,
      "t": 216093.62800000052,
      "d": 233.73558333332767,
      "v": 127
    },
    {
      "midi": 64,
      "hit": false,
      "t": 216312.11995833443,
      "d": 185.46410416666185,
      "v": 104
    },
    {
      "midi": 61,
      "hit": false,
      "t": 216322.2823750011,
      "d": 177.84229166666046,
      "v": 98
    },
    {
      "midi": 57,
      "hit": false,
      "t": 216334.98539583443,
      "d": 193.08591666663415,
      "v": 90
    },
    {
      "midi": 61,
      "hit": false,
      "t": 216337.52599999972,
      "d": 110.51628124999115,
      "v": 127
    },
    {
      "midi": 40,
      "hit": false,
      "t": 216337.5260000005,
      "d": 221.0325625000114,
      "v": 127
    },
    {
      "midi": 62,
      "hit": false,
      "t": 216517.90889583295,
      "d": 3784.229906249995,
      "v": 112
    },
    {
      "midi": 57,
      "hit": false,
      "t": 216520.4494999996,
      "d": 3770.2565833333356,
      "v": 127
    },
    {
      "midi": 57,
      "hit": false,
      "t": 216525.53070833324,
      "d": 3821.068666666659,
      "v": 127
    },
    {
      "midi": 62,
      "hit": false,
      "t": 216526.8010104166,
      "d": 3835.0419895833184,
      "v": 112
    },
    {
      "midi": 66,
      "hit": false,
      "t": 216528.0713124996,
      "d": 3782.959604166681,
      "v": 127
    },
    {
      "midi": 66,
      "hit": false,
      "t": 216530.6119166666,
      "d": 3823.6092708333163,
      "v": 127
    },
    {
      "midi": 78,
      "hit": false,
      "t": 216542.0446354166,
      "d": 2438.9799999999814,
      "v": 127
    },
    {
      "midi": 50,
      "hit": false,
      "t": 216548.3961458344,
      "d": 447.1463333332795,
      "v": 97
    },
    {
      "midi": 86,
      "hit": false,
      "t": 216553.4773541666,
      "d": 2438.9799999999814,
      "v": 127
    },
    {
      "midi": 54,
      "hit": false,
      "t": 216558.55856250107,
      "d": 447.1463333332795,
      "v": 90
    },
    {
      "midi": 90,
      "hit": false,
      "t": 216559.82886458325,
      "d": 2438.9799999999814,
      "v": 127
    },
    {
      "midi": 57,
      "hit": false,
      "t": 216568.72097916773,
      "d": 193.08591666666325,
      "v": 100
    },
    {
      "midi": 62,
      "hit": false,
      "t": 216578.8833958344,
      "d": 193.08591666666325,
      "v": 92
    },
    {
      "midi": 62,
      "hit": false,
      "t": 216581.4239999997,
      "d": 91.46174999998766,
      "v": 127
    },
    {
      "midi": 38,
      "hit": false,
      "t": 216581.42400000052,
      "d": 612.2856041666528,
      "v": 127
    },
    {
      "midi": 66,
      "hit": false,
      "t": 216589.04581250105,
      "d": 193.08591666666325,
      "v": 83
    },
    {
      "midi": 66,
      "hit": false,
      "t": 216789.7535416677,
      "d": 238.81679166664253,
      "v": 82
    },
    {
      "midi": 62,
      "hit": false,
      "t": 216797.3753541677,
      "d": 238.81679166664253,
      "v": 81
    },
    {
      "midi": 57,
      "hit": false,
      "t": 216807.53777083437,
      "d": 223.57316666663974,
      "v": 80
    },
    {
      "midi": 62,
      "hit": false,
      "t": 216825.3219999997,
      "d": 90.1914479166735,
      "v": 127
    },
    {
      "midi": 50,
      "hit": false,
      "t": 217056.5169791677,
      "d": 442.0651249999646,
      "v": 88
    },
    {
      "midi": 54,
      "hit": false,
      "t": 217059.05758333436,
      "d": 467.47116666665534,
      "v": 92
    },
    {
      "midi": 57,
      "hit": false,
      "t": 217061.59818750102,
      "d": 444.60572916665114,
      "v": 117
    },
    {
      "midi": 62,
      "hit": false,
      "t": 217064.13879166768,
      "d": 436.98391666664975,
      "v": 122
    },
    {
      "midi": 66,
      "hit": false,
      "t": 217066.67939583433,
      "d": 452.22754166668165,
      "v": 126
    },
    {
      "midi": 62,
      "hit": false,
      "t": 217069.2199999997,
      "d": 91.46174999998766,
      "v": 127
    },
    {
      "midi": 62,
      "hit": false,
      "t": 217313.1179999997,
      "d": 91.46174999998766,
      "v": 127
    },
    {
      "midi": 38,
      "hit": false,
      "t": 217313.1180000005,
      "d": 193.08591666666325,
      "v": 127
    },
    {
      "midi": 50,
      "hit": false,
      "t": 217534.15056250102,
      "d": 231.19497916667024,
      "v": 95
    },
    {
      "midi": 54,
      "hit": false,
      "t": 217544.31297916768,
      "d": 208.32954166666605,
      "v": 88
    },
    {
      "midi": 57,
      "hit": false,
      "t": 217554.47539583434,
      "d": 193.08591666666325,
      "v": 98
    },
    {
      "midi": 62,
      "hit": false,
      "t": 217557.01599999968,
      "d": 87.65084374998696,
      "v": 127
    },
    {
      "midi": 33,
      "hit": false,
      "t": 217557.0160000005,
      "d": 612.2856041666528,
      "v": 127
    },
    {
      "midi": 62,
      "hit": false,
      "t": 217564.637812501,
      "d": 436.98391666670796,
      "v": 90
    },
    {
      "midi": 66,
      "hit": false,
      "t": 217573.52992708434,
      "d": 452.22754166668165,
      "v": 83
    },
    {
      "midi": 57,
      "hit": false,
      "t": 217793.292187501,
      "d": 193.08591666669236,
      "v": 85
    },
    {
      "midi": 62,
      "hit": false,
      "t": 217800.91399999967,
      "d": 87.65084374998696,
      "v": 127
    },
    {
      "midi": 54,
      "hit": false,
      "t": 217805.99520833435,
      "d": 193.08591666669236,
      "v": 71
    },
    {
      "midi": 50,
      "hit": false,
      "t": 217818.6982291677,
      "d": 193.08591666666325,
      "v": 72
    },
    {
      "midi": 50,
      "hit": false,
      "t": 218021.94656250102,
      "d": 452.22754166665254,
      "v": 88
    },
    {
      "midi": 54,
      "hit": false,
      "t": 218024.48716666768,
      "d": 452.22754166665254,
      "v": 92
    },
    {
      "midi": 57,
      "hit": false,
      "t": 218027.02777083436,
      "d": 208.32954166666605,
      "v": 117
    },
    {
      "midi": 62,
      "hit": false,
      "t": 218029.56837500102,
      "d": 215.95135416666744,
      "v": 122
    },
    {
      "midi": 66,
      "hit": false,
      "t": 218032.10897916768,
      "d": 198.16712500000722,
      "v": 126
    },
    {
      "midi": 62,
      "hit": false,
      "t": 218044.81199999966,
      "d": 82.5696354166721,
      "v": 127
    },
    {
      "midi": 66,
      "hit": false,
      "t": 218263.30395833435,
      "d": 185.46410416666185,
      "v": 104
    },
    {
      "midi": 62,
      "hit": false,
      "t": 218273.466375001,
      "d": 177.84229166666046,
      "v": 98
    },
    {
      "midi": 57,
      "hit": false,
      "t": 218286.16939583435,
      "d": 193.08591666663415,
      "v": 90
    },
    {
      "midi": 62,
      "hit": false,
      "t": 218288.70999999967,
      "d": 83.83993749998626,
      "v": 127
    },
    {
      "midi": 33,
      "hit": false,
      "t": 218288.7100000005,
      "d": 235.00588541667094,
      "v": 127
    },
    {
      "midi": 50,
      "hit": false,
      "t": 218499.58014583433,
      "d": 447.1463333332795,
      "v": 97
    },
    {
      "midi": 54,
      "hit": false,
      "t": 218509.742562501,
      "d": 447.1463333332795,
      "v": 90
    },
    {
      "midi": 57,
      "hit": false,
      "t": 218519.90497916765,
      "d": 193.08591666666325,
      "v": 100
    },
    {
      "midi": 62,
      "hit": false,
      "t": 218530.0673958343,
      "d": 193.08591666666325,
      "v": 92
    },
    {
      "midi": 62,
      "hit": false,
      "t": 218532.60799999966,
      "d": 82.5696354166721,
      "v": 127
    },
    {
      "midi": 38,
      "hit": false,
      "t": 218532.6080000005,
      "d": 556.3923124999856,
      "v": 127
    },
    {
      "midi": 66,
      "hit": false,
      "t": 218540.22981250097,
      "d": 193.08591666666325,
      "v": 83
    },
    {
      "midi": 66,
      "hit": false,
      "t": 218740.93754166763,
      "d": 238.81679166664253,
      "v": 82
    },
    {
      "midi": 62,
      "hit": false,
      "t": 218748.55935416764,
      "d": 238.81679166664253,
      "v": 81
    },
    {
      "midi": 57,
      "hit": false,
      "t": 218758.7217708343,
      "d": 223.57316666663974,
      "v": 80
    },
    {
      "midi": 62,
      "hit": false,
      "t": 218776.50599999967,
      "d": 80.02903124998556,
      "v": 127
    },
    {
      "midi": 77,
      "hit": false,
      "t": 218992.45735416657,
      "d": 506.8505312500056,
      "v": 127
    },
    {
      "midi": 89,
      "hit": false,
      "t": 218996.26826041657,
      "d": 411.5778749999881,
      "v": 127
    },
    {
      "midi": 85,
      "hit": false,
      "t": 218998.80886458323,
      "d": 424.2808958333335,
      "v": 127
    },
    {
      "midi": 50,
      "hit": false,
      "t": 219007.70097916762,
      "d": 442.0651249999646,
      "v": 88
    },
    {
      "midi": 54,
      "hit": false,
      "t": 219010.24158333428,
      "d": 467.47116666665534,
      "v": 92
    },
    {
      "midi": 57,
      "hit": false,
      "t": 219012.78218750094,
      "d": 444.60572916665114,
      "v": 117
    },
    {
      "midi": 62,
      "hit": false,
      "t": 219015.3227916676,
      "d": 436.98391666664975,
      "v": 122
    },
    {
      "midi": 66,
      "hit": false,
      "t": 219017.86339583425,
      "d": 452.22754166668165,
      "v": 126
    },
    {
      "midi": 62,
      "hit": false,
      "t": 219020.40399999966,
      "d": 77.48842708332813,
      "v": 127
    },
    {
      "midi": 62,
      "hit": false,
      "t": 219264.30199999965,
      "d": 82.5696354166721,
      "v": 127
    },
    {
      "midi": 38,
      "hit": false,
      "t": 219264.3020000005,
      "d": 201.97803125000792,
      "v": 127
    },
    {
      "midi": 50,
      "hit": false,
      "t": 219485.33456250094,
      "d": 231.19497916667024,
      "v": 95
    },
    {
      "midi": 78,
      "hit": false,
      "t": 219487.87516666658,
      "d": 487.7960000000021,
      "v": 127
    },
    {
      "midi": 54,
      "hit": false,
      "t": 219495.4969791676,
      "d": 208.32954166666605,
      "v": 88
    },
    {
      "midi": 86,
      "hit": false,
      "t": 219501.84848958324,
      "d": 487.7960000000021,
      "v": 127
    },
    {
      "midi": 90,
      "hit": false,
      "t": 219503.11879166658,
      "d": 487.7960000000021,
      "v": 127
    },
    {
      "midi": 57,
      "hit": false,
      "t": 219505.65939583426,
      "d": 193.08591666666325,
      "v": 98
    },
    {
      "midi": 62,
      "hit": false,
      "t": 219508.19999999966,
      "d": 377.27971875001094,
      "v": 127
    },
    {
      "midi": 33,
      "hit": false,
      "t": 219508.2000000005,
      "d": 508.12083333334886,
      "v": 127
    },
    {
      "midi": 62,
      "hit": false,
      "t": 219515.82181250092,
      "d": 436.98391666670796,
      "v": 90
    },
    {
      "midi": 66,
      "hit": false,
      "t": 219524.71392708426,
      "d": 452.22754166668165,
      "v": 83
    },
    {
      "midi": 57,
      "hit": false,
      "t": 219744.47618750093,
      "d": 193.08591666669236,
      "v": 85
    },
    {
      "midi": 54,
      "hit": false,
      "t": 219757.17920833427,
      "d": 193.08591666669236,
      "v": 71
    },
    {
      "midi": 50,
      "hit": false,
      "t": 219769.88222916762,
      "d": 193.08591666666325,
      "v": 72
    },
    {
      "midi": 79,
      "hit": false,
      "t": 219971.86026041658,
      "d": 487.7960000000021,
      "v": 127
    },
    {
      "midi": 91,
      "hit": false,
      "t": 219971.86026041658,
      "d": 487.7960000000021,
      "v": 127
    },
    {
      "midi": 50,
      "hit": false,
      "t": 219973.13056250094,
      "d": 452.22754166665254,
      "v": 88
    },
    {
      "midi": 54,
      "hit": false,
      "t": 219975.6711666676,
      "d": 452.22754166665254,
      "v": 92
    },
    {
      "midi": 57,
      "hit": false,
      "t": 219978.21177083428,
      "d": 208.32954166666605,
      "v": 117
    },
    {
      "midi": 87,
      "hit": false,
      "t": 219979.48207291658,
      "d": 487.7960000000021,
      "v": 127
    },
    {
      "midi": 62,
      "hit": false,
      "t": 219980.75237500094,
      "d": 215.95135416666744,
      "v": 122
    },
    {
      "midi": 66,
      "hit": false,
      "t": 219983.2929791676,
      "d": 198.16712500000722,
      "v": 126
    },
    {
      "midi": 61,
      "hit": false,
      "t": 219995.99599999966,
      "d": 113.05688541667769,
      "v": 127
    },
    {
      "midi": 38,
      "hit": false,
      "t": 219995.9960000005,
      "d": 223.57316666666884,
      "v": 127
    },
    {
      "midi": 66,
      "hit": false,
      "t": 220214.48795833427,
      "d": 185.46410416666185,
      "v": 104
    },
    {
      "midi": 62,
      "hit": false,
      "t": 220224.65037500093,
      "d": 177.84229166666046,
      "v": 98
    },
    {
      "midi": 57,
      "hit": false,
      "t": 220237.35339583427,
      "d": 193.08591666663415,
      "v": 90
    },
    {
      "midi": 62,
      "hit": false,
      "t": 220239.89399999968,
      "d": 92.73205208333093,
      "v": 120
    },
    {
      "midi": 39,
      "hit": false,
      "t": 220239.89400000052,
      "d": 241.35739583332906,
      "v": 127
    },
    {
      "midi": 59,
      "hit": false,
      "t": 220410.11447916628,
      "d": 1890.2094999999972,
      "v": 127
    },
    {
      "midi": 64,
      "hit": false,
      "t": 220410.11447916628,
      "d": 1891.4798020833405,
      "v": 127
    },
    {
      "midi": 68,
      "hit": false,
      "t": 220411.38478124962,
      "d": 1885.1282916666532,
      "v": 127
    },
    {
      "midi": 56,
      "hit": false,
      "t": 220440.60172916658,
      "d": 1919.4264479166595,
      "v": 127
    },
    {
      "midi": 59,
      "hit": false,
      "t": 220443.14233333324,
      "d": 1915.6155416666588,
      "v": 100
    },
    {
      "midi": 64,
      "hit": false,
      "t": 220445.6829374999,
      "d": 1906.7234270833433,
      "v": 127
    },
    {
      "midi": 80,
      "hit": false,
      "t": 220450.76414583324,
      "d": 1951.1840000000084,
      "v": 127
    },
    {
      "midi": 40,
      "hit": false,
      "t": 220450.76414583426,
      "d": 447.1463333332795,
      "v": 80
    },
    {
      "midi": 88,
      "hit": false,
      "t": 220457.1156562499,
      "d": 1951.1840000000084,
      "v": 127
    },
    {
      "midi": 92,
      "hit": false,
      "t": 220458.38595833324,
      "d": 1951.1840000000084,
      "v": 127
    },
    {
      "midi": 47,
      "hit": false,
      "t": 220460.9265625009,
      "d": 447.1463333332795,
      "v": 90
    },
    {
      "midi": 52,
      "hit": false,
      "t": 220471.08897916757,
      "d": 193.08591666666325,
      "v": 83
    },
    {
      "midi": 56,
      "hit": false,
      "t": 220481.25139583423,
      "d": 193.08591666666325,
      "v": 92
    },
    {
      "midi": 64,
      "hit": false,
      "t": 220483.79199999967,
      "d": 87.65084374998696,
      "v": 127
    },
    {
      "midi": 40,
      "hit": false,
      "t": 220483.7920000005,
      "d": 566.5547291666735,
      "v": 127
    },
    {
      "midi": 59,
      "hit": false,
      "t": 220491.4138125009,
      "d": 193.08591666666325,
      "v": 83
    },
    {
      "midi": 59,
      "hit": false,
      "t": 220692.12154166755,
      "d": 238.81679166664253,
      "v": 82
    },
    {
      "midi": 56,
      "hit": false,
      "t": 220699.74335416756,
      "d": 238.81679166664253,
      "v": 81
    },
    {
      "midi": 52,
      "hit": false,
      "t": 220709.90577083422,
      "d": 223.57316666663974,
      "v": 66
    },
    {
      "midi": 64,
      "hit": false,
      "t": 220727.68999999965,
      "d": 83.83993749998626,
      "v": 127
    },
    {
      "midi": 40,
      "hit": false,
      "t": 220958.88497916755,
      "d": 442.0651249999646,
      "v": 73
    },
    {
      "midi": 47,
      "hit": false,
      "t": 220961.4255833342,
      "d": 467.47116666665534,
      "v": 92
    },
    {
      "midi": 52,
      "hit": false,
      "t": 220963.96618750086,
      "d": 444.60572916665114,
      "v": 97
    },
    {
      "midi": 56,
      "hit": false,
      "t": 220966.50679166752,
      "d": 436.98391666664975,
      "v": 122
    },
    {
      "midi": 59,
      "hit": false,
      "t": 220969.04739583418,
      "d": 452.22754166668165,
      "v": 126
    },
    {
      "midi": 64,
      "hit": false,
      "t": 220971.58799999964,
      "d": 299.7912916666537,
      "v": 127
    },
    {
      "midi": 40,
      "hit": false,
      "t": 221215.48600000053,
      "d": 219.76226041666814,
      "v": 127
    },
    {
      "midi": 40,
      "hit": false,
      "t": 221436.51856250086,
      "d": 231.19497916667024,
      "v": 79
    },
    {
      "midi": 47,
      "hit": false,
      "t": 221446.68097916752,
      "d": 208.32954166666605,
      "v": 88
    },
    {
      "midi": 52,
      "hit": false,
      "t": 221456.84339583418,
      "d": 193.08591666666325,
      "v": 81
    },
    {
      "midi": 64,
      "hit": false,
      "t": 221459.3839999996,
      "d": 86.3805416666728,
      "v": 127
    },
    {
      "midi": 35,
      "hit": false,
      "t": 221459.38400000054,
      "d": 457.3087499999965,
      "v": 127
    },
    {
      "midi": 56,
      "hit": false,
      "t": 221467.00581250084,
      "d": 436.98391666670796,
      "v": 90
    },
    {
      "midi": 59,
      "hit": false,
      "t": 221475.89792708418,
      "d": 452.22754166668165,
      "v": 83
    },
    {
      "midi": 52,
      "hit": false,
      "t": 221695.66018750085,
      "d": 193.08591666669236,
      "v": 70
    },
    {
      "midi": 64,
      "hit": false,
      "t": 221703.28199999963,
      "d": 101.62416666667559,
      "v": 127
    },
    {
      "midi": 47,
      "hit": false,
      "t": 221708.3632083342,
      "d": 193.08591666669236,
      "v": 71
    },
    {
      "midi": 40,
      "hit": false,
      "t": 221721.06622916754,
      "d": 193.08591666666325,
      "v": 60
    },
    {
      "midi": 40,
      "hit": false,
      "t": 221924.31456250086,
      "d": 452.22754166665254,
      "v": 73
    },
    {
      "midi": 47,
      "hit": false,
      "t": 221926.85516666752,
      "d": 452.22754166665254,
      "v": 92
    },
    {
      "midi": 52,
      "hit": false,
      "t": 221929.3957708342,
      "d": 208.32954166666605,
      "v": 97
    },
    {
      "midi": 56,
      "hit": false,
      "t": 221931.93637500086,
      "d": 215.95135416666744,
      "v": 122
    },
    {
      "midi": 59,
      "hit": false,
      "t": 221934.47697916752,
      "d": 198.16712500000722,
      "v": 126
    },
    {
      "midi": 64,
      "hit": false,
      "t": 221947.17999999964,
      "d": 359.4954895833216,
      "v": 127
    },
    {
      "midi": 40,
      "hit": false,
      "t": 221947.18000000055,
      "d": 213.41075000001,
      "v": 127
    },
    {
      "midi": 59,
      "hit": false,
      "t": 222165.6719583342,
      "d": 185.46410416666185,
      "v": 104
    },
    {
      "midi": 56,
      "hit": false,
      "t": 222175.83437500085,
      "d": 177.84229166666046,
      "v": 98
    },
    {
      "midi": 52,
      "hit": false,
      "t": 222188.5373958342,
      "d": 193.08591666663415,
      "v": 75
    },
    {
      "midi": 39,
      "hit": false,
      "t": 222191.07800000056,
      "d": 222.30286458332557,
      "v": 127
    },
    {
      "midi": 54,
      "hit": false,
      "t": 222386.70452083324,
      "d": 2013.4288020833628,
      "v": 127
    },
    {
      "midi": 66,
      "hit": false,
      "t": 222391.7857291663,
      "d": 1857.1816458333342,
      "v": 127
    },
    {
      "midi": 62,
      "hit": false,
      "t": 222391.7857291663,
      "d": 1868.6143645833363,
      "v": 120
    },
    {
      "midi": 57,
      "hit": false,
      "t": 222391.7857291663,
      "d": 1877.506479166681,
      "v": 127
    },
    {
      "midi": 57,
      "hit": false,
      "t": 222398.13723958324,
      "d": 1921.967052083346,
      "v": 120
    },
    {
      "midi": 62,
      "hit": false,
      "t": 222400.6778437499,
      "d": 1961.3464166667254,
      "v": 112
    },
    {
      "midi": 50,
      "hit": false,
      "t": 222401.94814583418,
      "d": 447.1463333332795,
      "v": 97
    },
    {
      "midi": 78,
      "hit": false,
      "t": 222404.4887499999,
      "d": 1951.1840000000375,
      "v": 127
    },
    {
      "midi": 86,
      "hit": false,
      "t": 222409.56995833325,
      "d": 1951.1840000000375,
      "v": 127
    },
    {
      "midi": 54,
      "hit": false,
      "t": 222412.11056250083,
      "d": 447.1463333332795,
      "v": 90
    },
    {
      "midi": 90,
      "hit": false,
      "t": 222413.38086458325,
      "d": 1951.1840000000375,
      "v": 127
    },
    {
      "midi": 57,
      "hit": false,
      "t": 222422.2729791675,
      "d": 193.08591666666325,
      "v": 100
    },
    {
      "midi": 62,
      "hit": false,
      "t": 222432.43539583415,
      "d": 193.08591666666325,
      "v": 92
    },
    {
      "midi": 62,
      "hit": false,
      "t": 222434.97599999965,
      "d": 88.92114583333023,
      "v": 127
    },
    {
      "midi": 38,
      "hit": false,
      "t": 222434.97600000055,
      "d": 584.3389583333337,
      "v": 127
    },
    {
      "midi": 66,
      "hit": false,
      "t": 222442.5978125008,
      "d": 193.08591666666325,
      "v": 83
    },
    {
      "midi": 66,
      "hit": false,
      "t": 222643.30554166748,
      "d": 238.81679166664253,
      "v": 82
    },
    {
      "midi": 62,
      "hit": false,
      "t": 222650.92735416748,
      "d": 238.81679166664253,
      "v": 81
    },
    {
      "midi": 57,
      "hit": false,
      "t": 222661.08977083414,
      "d": 223.57316666663974,
      "v": 80
    },
    {
      "midi": 62,
      "hit": false,
      "t": 222678.87399999963,
      "d": 87.65084374998696,
      "v": 127
    },
    {
      "midi": 50,
      "hit": false,
      "t": 222910.06897916747,
      "d": 442.0651249999646,
      "v": 88
    },
    {
      "midi": 54,
      "hit": false,
      "t": 222912.60958333412,
      "d": 467.47116666665534,
      "v": 92
    },
    {
      "midi": 57,
      "hit": false,
      "t": 222915.15018750078,
      "d": 444.60572916665114,
      "v": 117
    },
    {
      "midi": 62,
      "hit": false,
      "t": 222917.69079166744,
      "d": 436.98391666664975,
      "v": 122
    },
    {
      "midi": 66,
      "hit": false,
      "t": 222920.2313958341,
      "d": 452.22754166668165,
      "v": 126
    },
    {
      "midi": 62,
      "hit": false,
      "t": 222922.77199999962,
      "d": 257.8713229166751,
      "v": 127
    },
    {
      "midi": 38,
      "hit": false,
      "t": 223166.67000000054,
      "d": 224.8434687500121,
      "v": 127
    },
    {
      "midi": 50,
      "hit": false,
      "t": 223387.70256250078,
      "d": 231.19497916667024,
      "v": 95
    },
    {
      "midi": 54,
      "hit": false,
      "t": 223397.86497916744,
      "d": 208.32954166666605,
      "v": 88
    },
    {
      "midi": 57,
      "hit": false,
      "t": 223408.0273958341,
      "d": 193.08591666666325,
      "v": 98
    },
    {
      "midi": 61,
      "hit": false,
      "t": 223410.56799999962,
      "d": 571.6359374999884,
      "v": 127
    },
    {
      "midi": 33,
      "hit": false,
      "t": 223410.56800000055,
      "d": 417.92938541667536,
      "v": 127
    },
    {
      "midi": 62,
      "hit": false,
      "t": 223418.18981250076,
      "d": 436.98391666670796,
      "v": 90
    },
    {
      "midi": 66,
      "hit": false,
      "t": 223427.0819270841,
      "d": 452.22754166668165,
      "v": 83
    },
    {
      "midi": 57,
      "hit": false,
      "t": 223646.84418750077,
      "d": 193.08591666669236,
      "v": 85
    },
    {
      "midi": 54,
      "hit": false,
      "t": 223659.54720833412,
      "d": 193.08591666669236,
      "v": 71
    },
    {
      "midi": 50,
      "hit": false,
      "t": 223672.25022916746,
      "d": 193.08591666666325,
      "v": 72
    },
    {
      "midi": 50,
      "hit": false,
      "t": 223875.49856250078,
      "d": 452.22754166665254,
      "v": 88
    },
    {
      "midi": 54,
      "hit": false,
      "t": 223878.03916666744,
      "d": 452.22754166665254,
      "v": 92
    },
    {
      "midi": 57,
      "hit": false,
      "t": 223880.57977083413,
      "d": 208.32954166666605,
      "v": 117
    },
    {
      "midi": 62,
      "hit": false,
      "t": 223883.12037500078,
      "d": 215.95135416666744,
      "v": 122
    },
    {
      "midi": 66,
      "hit": false,
      "t": 223885.66097916744,
      "d": 198.16712500000722,
      "v": 126
    },
    {
      "midi": 66,
      "hit": false,
      "t": 224116.8559583341,
      "d": 185.46410416666185,
      "v": 104
    },
    {
      "midi": 62,
      "hit": false,
      "t": 224127.01837500077,
      "d": 177.84229166666046,
      "v": 98
    },
    {
      "midi": 57,
      "hit": false,
      "t": 224139.72139583412,
      "d": 193.08591666663415,
      "v": 90
    },
    {
      "midi": 59,
      "hit": false,
      "t": 224142.2619999996,
      "d": 82.5696354166721,
      "v": 127
    },
    {
      "midi": 33,
      "hit": false,
      "t": 224142.26200000057,
      "d": 274.3852499999921,
      "v": 127
    },
    {
      "midi": 69,
      "hit": false,
      "t": 224325.18549999993,
      "d": 3902.3680000000168,
      "v": 127
    },
    {
      "midi": 81,
      "hit": false,
      "t": 224326.45580208328,
      "d": 3902.3680000000168,
      "v": 127
    },
    {
      "midi": 85,
      "hit": false,
      "t": 224328.99640624993,
      "d": 3902.3680000000168,
      "v": 127
    },
    {
      "midi": 88,
      "hit": false,
      "t": 224330.26670833328,
      "d": 3902.3680000000168,
      "v": 127
    },
    {
      "midi": 57,
      "hit": false,
      "t": 224348.05093749965,
      "d": 2468.1969479165564,
      "v": 97
    },
    {
      "midi": 45,
      "hit": false,
      "t": 224353.1321458341,
      "d": 447.1463333332795,
      "v": 97
    },
    {
      "midi": 61,
      "hit": false,
      "t": 224355.67274999965,
      "d": 2460.575135416555,
      "v": 127
    },
    {
      "midi": 64,
      "hit": false,
      "t": 224355.67274999965,
      "d": 2484.7108749999024,
      "v": 127
    },
    {
      "midi": 52,
      "hit": false,
      "t": 224363.29456250076,
      "d": 447.1463333332795,
      "v": 90
    },
    {
      "midi": 57,
      "hit": false,
      "t": 224373.45697916741,
      "d": 193.08591666666325,
      "v": 100
    },
    {
      "midi": 52,
      "hit": false,
      "t": 224378.53818749994,
      "d": 3788.040812499996,
      "v": 97
    },
    {
      "midi": 61,
      "hit": false,
      "t": 224382.34909374994,
      "d": 3766.445677083335,
      "v": 112
    },
    {
      "midi": 61,
      "hit": false,
      "t": 224383.61939583407,
      "d": 193.08591666666325,
      "v": 92
    },
    {
      "midi": 57,
      "hit": false,
      "t": 224384.8896979166,
      "d": 3763.9050729166775,
      "v": 100
    },
    {
      "midi": 59,
      "hit": false,
      "t": 224386.15999999963,
      "d": 223.57316666666884,
      "v": 127
    },
    {
      "midi": 45,
      "hit": false,
      "t": 224386.16000000056,
      "d": 635.1510416666861,
      "v": 127
    },
    {
      "midi": 64,
      "hit": false,
      "t": 224393.78181250073,
      "d": 193.08591666666325,
      "v": 83
    },
    {
      "midi": 64,
      "hit": false,
      "t": 224594.4895416674,
      "d": 238.81679166664253,
      "v": 82
    },
    {
      "midi": 61,
      "hit": false,
      "t": 224602.1113541674,
      "d": 238.81679166664253,
      "v": 81
    },
    {
      "midi": 57,
      "hit": false,
      "t": 224612.27377083406,
      "d": 223.57316666663974,
      "v": 80
    },
    {
      "midi": 57,
      "hit": false,
      "t": 224630.05799999964,
      "d": 208.32954166666605,
      "v": 127
    },
    {
      "midi": 45,
      "hit": false,
      "t": 224861.2529791674,
      "d": 442.0651249999646,
      "v": 88
    },
    {
      "midi": 52,
      "hit": false,
      "t": 224863.79358333405,
      "d": 467.47116666665534,
      "v": 92
    },
    {
      "midi": 57,
      "hit": false,
      "t": 224866.3341875007,
      "d": 444.60572916665114,
      "v": 117
    },
    {
      "midi": 61,
      "hit": false,
      "t": 224868.87479166736,
      "d": 436.98391666664975,
      "v": 122
    },
    {
      "midi": 64,
      "hit": false,
      "t": 224871.41539583402,
      "d": 452.22754166668165,
      "v": 126
    },
    {
      "midi": 45,
      "hit": false,
      "t": 225117.85400000057,
      "d": 215.95135416666744,
      "v": 127
    },
    {
      "midi": 45,
      "hit": false,
      "t": 225338.8865625007,
      "d": 231.19497916667024,
      "v": 95
    },
    {
      "midi": 52,
      "hit": false,
      "t": 225349.04897916736,
      "d": 208.32954166666605,
      "v": 88
    },
    {
      "midi": 57,
      "hit": false,
      "t": 225359.21139583402,
      "d": 193.08591666666325,
      "v": 98
    },
    {
      "midi": 40,
      "hit": false,
      "t": 225361.75200000056,
      "d": 548.7705000000133,
      "v": 127
    },
    {
      "midi": 61,
      "hit": false,
      "t": 225369.37381250068,
      "d": 436.98391666670796,
      "v": 90
    },
    {
      "midi": 64,
      "hit": false,
      "t": 225378.26592708402,
      "d": 452.22754166668165,
      "v": 83
    },
    {
      "midi": 57,
      "hit": false,
      "t": 225598.0281875007,
      "d": 193.08591666669236,
      "v": 85
    },
    {
      "midi": 52,
      "hit": false,
      "t": 225610.73120833404,
      "d": 193.08591666669236,
      "v": 71
    },
    {
      "midi": 45,
      "hit": false,
      "t": 225623.43422916738,
      "d": 193.08591666666325,
      "v": 72
    },
    {
      "midi": 45,
      "hit": false,
      "t": 225826.6825625007,
      "d": 452.22754166665254,
      "v": 88
    },
    {
      "midi": 52,
      "hit": false,
      "t": 225829.22316666736,
      "d": 452.22754166665254,
      "v": 92
    },
    {
      "midi": 57,
      "hit": false,
      "t": 225831.76377083405,
      "d": 208.32954166666605,
      "v": 117
    },
    {
      "midi": 61,
      "hit": false,
      "t": 225834.3043750007,
      "d": 215.95135416666744,
      "v": 122
    },
    {
      "midi": 64,
      "hit": false,
      "t": 225836.84497916736,
      "d": 198.16712500000722,
      "v": 126
    },
    {
      "midi": 64,
      "hit": false,
      "t": 226068.03995833403,
      "d": 185.46410416666185,
      "v": 104
    },
    {
      "midi": 61,
      "hit": false,
      "t": 226078.2023750007,
      "d": 177.84229166666046,
      "v": 98
    },
    {
      "midi": 57,
      "hit": false,
      "t": 226090.90539583404,
      "d": 193.08591666663415,
      "v": 90
    },
    {
      "midi": 40,
      "hit": false,
      "t": 226093.44600000058,
      "d": 226.11377083332627,
      "v": 127
    },
    {
      "midi": 45,
      "hit": false,
      "t": 226304.31614583402,
      "d": 447.1463333332795,
      "v": 97
    },
    {
      "midi": 52,
      "hit": false,
      "t": 226314.47856250068,
      "d": 447.1463333332795,
      "v": 90
    },
    {
      "midi": 57,
      "hit": false,
      "t": 226324.64097916734,
      "d": 193.08591666666325,
      "v": 100
    },
    {
      "midi": 61,
      "hit": false,
      "t": 226334.803395834,
      "d": 193.08591666666325,
      "v": 92
    },
    {
      "midi": 45,
      "hit": false,
      "t": 226337.34400000056,
      "d": 599.5825833333365,
      "v": 127
    },
    {
      "midi": 64,
      "hit": false,
      "t": 226344.96581250065,
      "d": 193.08591666666325,
      "v": 83
    },
    {
      "midi": 64,
      "hit": false,
      "t": 226545.67354166732,
      "d": 238.81679166664253,
      "v": 82
    },
    {
      "midi": 61,
      "hit": false,
      "t": 226553.29535416732,
      "d": 238.81679166664253,
      "v": 81
    },
    {
      "midi": 57,
      "hit": false,
      "t": 226563.45777083398,
      "d": 223.57316666663974,
      "v": 80
    },
    {
      "midi": 45,
      "hit": false,
      "t": 226812.4369791673,
      "d": 442.0651249999646,
      "v": 88
    },
    {
      "midi": 52,
      "hit": false,
      "t": 226814.97758333397,
      "d": 467.47116666665534,
      "v": 92
    },
    {
      "midi": 57,
      "hit": false,
      "t": 226817.51818750062,
      "d": 444.60572916665114,
      "v": 117
    },
    {
      "midi": 61,
      "hit": false,
      "t": 226820.05879166728,
      "d": 436.98391666664975,
      "v": 122
    },
    {
      "midi": 64,
      "hit": false,
      "t": 226822.59939583394,
      "d": 452.22754166668165,
      "v": 126
    },
    {
      "midi": 45,
      "hit": false,
      "t": 227069.03800000058,
      "d": 217.2216562500107,
      "v": 127
    },
    {
      "midi": 45,
      "hit": false,
      "t": 227290.07056250062,
      "d": 231.19497916667024,
      "v": 95
    },
    {
      "midi": 52,
      "hit": false,
      "t": 227300.23297916728,
      "d": 208.32954166666605,
      "v": 88
    },
    {
      "midi": 57,
      "hit": false,
      "t": 227310.39539583394,
      "d": 193.08591666666325,
      "v": 98
    },
    {
      "midi": 40,
      "hit": false,
      "t": 227312.9360000006,
      "d": 224.8434687500121,
      "v": 127
    },
    {
      "midi": 61,
      "hit": false,
      "t": 227320.5578125006,
      "d": 436.98391666670796,
      "v": 90
    },
    {
      "midi": 64,
      "hit": false,
      "t": 227329.44992708394,
      "d": 452.22754166668165,
      "v": 83
    },
    {
      "midi": 57,
      "hit": false,
      "t": 227549.2121875006,
      "d": 193.08591666669236,
      "v": 85
    },
    {
      "midi": 37,
      "hit": false,
      "t": 227556.8340000006,
      "d": 91.46174999998766,
      "v": 127
    },
    {
      "midi": 52,
      "hit": false,
      "t": 227561.91520833396,
      "d": 193.08591666669236,
      "v": 71
    },
    {
      "midi": 45,
      "hit": false,
      "t": 227574.6182291673,
      "d": 193.08591666666325,
      "v": 72
    },
    {
      "midi": 45,
      "hit": false,
      "t": 227777.86656250063,
      "d": 452.22754166665254,
      "v": 88
    },
    {
      "midi": 52,
      "hit": false,
      "t": 227780.40716666728,
      "d": 452.22754166665254,
      "v": 92
    },
    {
      "midi": 57,
      "hit": false,
      "t": 227782.94777083397,
      "d": 208.32954166666605,
      "v": 117
    },
    {
      "midi": 61,
      "hit": false,
      "t": 227785.48837500063,
      "d": 215.95135416666744,
      "v": 122
    },
    {
      "midi": 64,
      "hit": false,
      "t": 227788.02897916728,
      "d": 198.16712500000722,
      "v": 126
    },
    {
      "midi": 35,
      "hit": false,
      "t": 227800.7320000006,
      "d": 487.7960000000021,
      "v": 127
    },
    {
      "midi": 64,
      "hit": false,
      "t": 228019.22395833395,
      "d": 185.46410416666185,
      "v": 104
    },
    {
      "midi": 61,
      "hit": false,
      "t": 228029.3863750006,
      "d": 177.84229166666046,
      "v": 98
    },
    {
      "midi": 57,
      "hit": false,
      "t": 228042.08939583396,
      "d": 193.08591666663415,
      "v": 90
    },
    {
      "midi": 61,
      "hit": false,
      "t": 228044.62999999963,
      "d": 127.03020833333721,
      "v": 127
    },
    {
      "midi": 45,
      "hit": false,
      "t": 228255.50014583394,
      "d": 447.1463333332795,
      "v": 97
    },
    {
      "midi": 57,
      "hit": false,
      "t": 228258.04074999955,
      "d": 3782.959604166652,
      "v": 127
    },
    {
      "midi": 61,
      "hit": false,
      "t": 228258.04074999955,
      "d": 3785.5002083333093,
      "v": 127
    },
    {
      "midi": 64,
      "hit": false,
      "t": 228260.5813541662,
      "d": 3765.1753749999916,
      "v": 127
    },
    {
      "midi": 52,
      "hit": false,
      "t": 228265.6625625006,
      "d": 447.1463333332795,
      "v": 90
    },
    {
      "midi": 57,
      "hit": false,
      "t": 228275.82497916726,
      "d": 193.08591666666325,
      "v": 100
    },
    {
      "midi": 61,
      "hit": false,
      "t": 228285.98739583392,
      "d": 193.08591666666325,
      "v": 92
    },
    {
      "midi": 61,
      "hit": false,
      "t": 228288.52799999964,
      "d": 124.48960416667978,
      "v": 127
    },
    {
      "midi": 85,
      "hit": false,
      "t": 228288.52799999996,
      "d": 2322.112208333332,
      "v": 127
    },
    {
      "midi": 88,
      "hit": false,
      "t": 228288.52799999996,
      "d": 2336.0855312499916,
      "v": 127
    },
    {
      "midi": 76,
      "hit": false,
      "t": 228288.52799999996,
      "d": 2385.6273125000007,
      "v": 127
    },
    {
      "midi": 57,
      "hit": false,
      "t": 228288.52799999996,
      "d": 3719.4445000000414,
      "v": 127
    },
    {
      "midi": 64,
      "hit": false,
      "t": 228288.52799999996,
      "d": 3728.336614583386,
      "v": 127
    },
    {
      "midi": 61,
      "hit": false,
      "t": 228288.52799999996,
      "d": 3749.931750000047,
      "v": 127
    },
    {
      "midi": 45,
      "hit": false,
      "t": 228288.5280000006,
      "d": 577.9874479166756,
      "v": 127
    },
    {
      "midi": 64,
      "hit": false,
      "t": 228296.14981250057,
      "d": 193.08591666666325,
      "v": 83
    },
    {
      "midi": 64,
      "hit": false,
      "t": 228496.85754166724,
      "d": 238.81679166664253,
      "v": 82
    },
    {
      "midi": 61,
      "hit": false,
      "t": 228504.47935416724,
      "d": 238.81679166664253,
      "v": 81
    },
    {
      "midi": 57,
      "hit": false,
      "t": 228514.6417708339,
      "d": 223.57316666663974,
      "v": 80
    },
    {
      "midi": 61,
      "hit": false,
      "t": 228532.42599999966,
      "d": 114.32718749999185,
      "v": 127
    },
    {
      "midi": 45,
      "hit": false,
      "t": 228763.62097916723,
      "d": 442.0651249999646,
      "v": 88
    },
    {
      "midi": 52,
      "hit": false,
      "t": 228766.1615833339,
      "d": 467.47116666665534,
      "v": 92
    },
    {
      "midi": 57,
      "hit": false,
      "t": 228768.70218750054,
      "d": 444.60572916665114,
      "v": 117
    },
    {
      "midi": 61,
      "hit": false,
      "t": 228771.2427916672,
      "d": 436.98391666664975,
      "v": 122
    },
    {
      "midi": 64,
      "hit": false,
      "t": 228773.78339583386,
      "d": 452.22754166668165,
      "v": 126
    },
    {
      "midi": 61,
      "hit": false,
      "t": 228776.32399999964,
      "d": 120.67869791667908,
      "v": 127
    },
    {
      "midi": 61,
      "hit": false,
      "t": 229020.22199999966,
      "d": 119.40839583333582,
      "v": 127
    },
    {
      "midi": 45,
      "hit": false,
      "t": 229020.22200000062,
      "d": 232.4652812500135,
      "v": 127
    },
    {
      "midi": 45,
      "hit": false,
      "t": 229241.25456250054,
      "d": 231.19497916667024,
      "v": 95
    },
    {
      "midi": 52,
      "hit": false,
      "t": 229251.4169791672,
      "d": 208.32954166666605,
      "v": 88
    },
    {
      "midi": 57,
      "hit": false,
      "t": 229261.57939583386,
      "d": 193.08591666666325,
      "v": 98
    },
    {
      "midi": 61,
      "hit": false,
      "t": 229264.11999999968,
      "d": 118.13809374999255,
      "v": 127
    },
    {
      "midi": 40,
      "hit": false,
      "t": 229264.12000000064,
      "d": 641.5025520833442,
      "v": 127
    },
    {
      "midi": 61,
      "hit": false,
      "t": 229271.74181250052,
      "d": 436.98391666670796,
      "v": 90
    },
    {
      "midi": 64,
      "hit": false,
      "t": 229280.63392708387,
      "d": 452.22754166668165,
      "v": 83
    },
    {
      "midi": 57,
      "hit": false,
      "t": 229500.39618750053,
      "d": 193.08591666669236,
      "v": 85
    },
    {
      "midi": 61,
      "hit": false,
      "t": 229508.01799999966,
      "d": 121.94899999999325,
      "v": 127
    },
    {
      "midi": 52,
      "hit": false,
      "t": 229513.09920833388,
      "d": 193.08591666669236,
      "v": 71
    },
    {
      "midi": 45,
      "hit": false,
      "t": 229525.80222916722,
      "d": 193.08591666666325,
      "v": 72
    },
    {
      "midi": 45,
      "hit": false,
      "t": 229729.05056250055,
      "d": 452.22754166665254,
      "v": 88
    },
    {
      "midi": 52,
      "hit": false,
      "t": 229731.5911666672,
      "d": 452.22754166665254,
      "v": 92
    },
    {
      "midi": 57,
      "hit": false,
      "t": 229734.1317708339,
      "d": 208.32954166666605,
      "v": 117
    },
    {
      "midi": 61,
      "hit": false,
      "t": 229736.67237500055,
      "d": 215.95135416666744,
      "v": 122
    },
    {
      "midi": 64,
      "hit": false,
      "t": 229739.2129791672,
      "d": 198.16712500000722,
      "v": 126
    },
    {
      "midi": 64,
      "hit": false,
      "t": 229970.40795833388,
      "d": 185.46410416666185,
      "v": 104
    },
    {
      "midi": 61,
      "hit": false,
      "t": 229980.57037500053,
      "d": 177.84229166666046,
      "v": 98
    },
    {
      "midi": 57,
      "hit": false,
      "t": 229993.27339583388,
      "d": 193.08591666663415,
      "v": 90
    },
    {
      "midi": 61,
      "hit": false,
      "t": 229995.81399999966,
      "d": 109.24597916667699,
      "v": 127
    },
    {
      "midi": 40,
      "hit": false,
      "t": 229995.81400000065,
      "d": 224.8434687500121,
      "v": 127
    },
    {
      "midi": 45,
      "hit": false,
      "t": 230206.68414583386,
      "d": 447.1463333332795,
      "v": 97
    },
    {
      "midi": 52,
      "hit": false,
      "t": 230216.84656250052,
      "d": 447.1463333332795,
      "v": 90
    },
    {
      "midi": 57,
      "hit": false,
      "t": 230227.00897916718,
      "d": 193.08591666666325,
      "v": 100
    },
    {
      "midi": 61,
      "hit": false,
      "t": 230237.17139583384,
      "d": 193.08591666666325,
      "v": 92
    },
    {
      "midi": 61,
      "hit": false,
      "t": 230239.71199999968,
      "d": 118.13809374999255,
      "v": 127
    },
    {
      "midi": 45,
      "hit": false,
      "t": 230239.71200000067,
      "d": 590.6904687499919,
      "v": 127
    },
    {
      "midi": 64,
      "hit": false,
      "t": 230247.3338125005,
      "d": 193.08591666666325,
      "v": 83
    },
    {
      "midi": 64,
      "hit": false,
      "t": 230448.04154166716,
      "d": 238.81679166664253,
      "v": 82
    },
    {
      "midi": 61,
      "hit": false,
      "t": 230455.66335416716,
      "d": 238.81679166664253,
      "v": 81
    },
    {
      "midi": 57,
      "hit": false,
      "t": 230465.82577083382,
      "d": 223.57316666663974,
      "v": 80
    },
    {
      "midi": 61,
      "hit": false,
      "t": 230483.60999999967,
      "d": 110.51628124999115,
      "v": 127
    },
    {
      "midi": 73,
      "hit": false,
      "t": 230683.0474270833,
      "d": 400.14515625001513,
      "v": 112
    },
    {
      "midi": 85,
      "hit": false,
      "t": 230695.75044791665,
      "d": 368.3876041666663,
      "v": 127
    },
    {
      "midi": 81,
      "hit": false,
      "t": 230702.1019583333,
      "d": 370.9282083333528,
      "v": 127
    },
    {
      "midi": 45,
      "hit": false,
      "t": 230714.80497916715,
      "d": 442.0651249999646,
      "v": 88
    },
    {
      "midi": 52,
      "hit": false,
      "t": 230717.3455833338,
      "d": 467.47116666665534,
      "v": 92
    },
    {
      "midi": 57,
      "hit": false,
      "t": 230719.88618750047,
      "d": 444.60572916665114,
      "v": 117
    },
    {
      "midi": 61,
      "hit": false,
      "t": 230722.42679166712,
      "d": 436.98391666664975,
      "v": 122
    },
    {
      "midi": 64,
      "hit": false,
      "t": 230724.96739583378,
      "d": 452.22754166668165,
      "v": 126
    },
    {
      "midi": 61,
      "hit": false,
      "t": 230727.50799999965,
      "d": 105.43507291667629,
      "v": 127
    },
    {
      "midi": 61,
      "hit": false,
      "t": 230971.40599999967,
      "d": 143.54413541665417,
      "v": 127
    },
    {
      "midi": 45,
      "hit": false,
      "t": 230971.40600000066,
      "d": 240.0870937499858,
      "v": 127
    },
    {
      "midi": 74,
      "hit": false,
      "t": 231144.16708333333,
      "d": 453.4978437499958,
      "v": 100
    },
    {
      "midi": 83,
      "hit": false,
      "t": 231159.41070833334,
      "d": 396.33425000001444,
      "v": 127
    },
    {
      "midi": 86,
      "hit": false,
      "t": 231159.41070833334,
      "d": 402.68576041667257,
      "v": 127
    },
    {
      "midi": 45,
      "hit": false,
      "t": 231192.43856250047,
      "d": 231.19497916667024,
      "v": 95
    },
    {
      "midi": 52,
      "hit": false,
      "t": 231202.60097916712,
      "d": 208.32954166666605,
      "v": 88
    },
    {
      "midi": 57,
      "hit": false,
      "t": 231212.76339583378,
      "d": 193.08591666666325,
      "v": 98
    },
    {
      "midi": 59,
      "hit": false,
      "t": 231215.30399999965,
      "d": 194.35621875000652,
      "v": 127
    },
    {
      "midi": 40,
      "hit": false,
      "t": 231215.30400000064,
      "d": 532.2565729166672,
      "v": 127
    },
    {
      "midi": 61,
      "hit": false,
      "t": 231222.92581250044,
      "d": 436.98391666670796,
      "v": 90
    },
    {
      "midi": 64,
      "hit": false,
      "t": 231231.8179270838,
      "d": 452.22754166668165,
      "v": 83
    },
    {
      "midi": 57,
      "hit": false,
      "t": 231451.58018750045,
      "d": 193.08591666669236,
      "v": 85
    },
    {
      "midi": 57,
      "hit": false,
      "t": 231459.20199999967,
      "d": 393.7936458333279,
      "v": 127
    },
    {
      "midi": 52,
      "hit": false,
      "t": 231464.2832083338,
      "d": 193.08591666669236,
      "v": 71
    },
    {
      "midi": 45,
      "hit": false,
      "t": 231476.98622916715,
      "d": 193.08591666666325,
      "v": 72
    },
    {
      "midi": 88,
      "hit": false,
      "t": 231635.77398958334,
      "d": 450.9572395833384,
      "v": 127
    },
    {
      "midi": 76,
      "hit": false,
      "t": 231635.77398958334,
      "d": 462.3899583333405,
      "v": 127
    },
    {
      "midi": 85,
      "hit": false,
      "t": 231638.31459375,
      "d": 447.1463333333377,
      "v": 127
    },
    {
      "midi": 45,
      "hit": false,
      "t": 231680.23456250047,
      "d": 452.22754166665254,
      "v": 88
    },
    {
      "midi": 52,
      "hit": false,
      "t": 231682.77516666712,
      "d": 452.22754166665254,
      "v": 92
    },
    {
      "midi": 57,
      "hit": false,
      "t": 231685.3157708338,
      "d": 208.32954166666605,
      "v": 117
    },
    {
      "midi": 61,
      "hit": false,
      "t": 231687.85637500047,
      "d": 215.95135416666744,
      "v": 122
    },
    {
      "midi": 64,
      "hit": false,
      "t": 231690.39697916713,
      "d": 198.16712500000722,
      "v": 126
    },
    {
      "midi": 45,
      "hit": false,
      "t": 231703.10000000065,
      "d": 233.73558333332767,
      "v": 127
    },
    {
      "midi": 64,
      "hit": false,
      "t": 231921.5919583338,
      "d": 185.46410416666185,
      "v": 104
    },
    {
      "midi": 61,
      "hit": false,
      "t": 231931.75437500046,
      "d": 177.84229166666046,
      "v": 98
    },
    {
      "midi": 57,
      "hit": false,
      "t": 231944.4573958338,
      "d": 193.08591666663415,
      "v": 90
    },
    {
      "midi": 62,
      "hit": false,
      "t": 231946.99799999967,
      "d": 92.73205208333093,
      "v": 127
    },
    {
      "midi": 40,
      "hit": false,
      "t": 231946.99800000063,
      "d": 221.0325625000114,
      "v": 127
    },
    {
      "midi": 62,
      "hit": false,
      "t": 232118.48878125002,
      "d": 3851.5559166666644,
      "v": 127
    },
    {
      "midi": 57,
      "hit": false,
      "t": 232119.75908333337,
      "d": 3842.6638020833198,
      "v": 127
    },
    {
      "midi": 57,
      "hit": false,
      "t": 232123.56998958284,
      "d": 3438.707739583275,
      "v": 94
    },
    {
      "midi": 66,
      "hit": false,
      "t": 232123.56998958337,
      "d": 3846.4747083333205,
      "v": 127
    },
    {
      "midi": 62,
      "hit": false,
      "t": 232127.38089583284,
      "d": 3446.329552083276,
      "v": 100
    },
    {
      "midi": 66,
      "hit": false,
      "t": 232137.5433124995,
      "d": 3433.62653124996,
      "v": 127
    },
    {
      "midi": 50,
      "hit": false,
      "t": 232157.86814583378,
      "d": 447.1463333332795,
      "v": 97
    },
    {
      "midi": 86,
      "hit": false,
      "t": 232164.21965625003,
      "d": 3913.8007187499898,
      "v": 100
    },
    {
      "midi": 81,
      "hit": false,
      "t": 232166.7602604167,
      "d": 3908.719510416675,
      "v": 112
    },
    {
      "midi": 54,
      "hit": false,
      "t": 232168.03056250044,
      "d": 447.1463333332795,
      "v": 90
    },
    {
      "midi": 57,
      "hit": false,
      "t": 232178.1929791671,
      "d": 193.08591666666325,
      "v": 100
    },
    {
      "midi": 62,
      "hit": false,
      "t": 232188.35539583376,
      "d": 193.08591666666325,
      "v": 92
    },
    {
      "midi": 62,
      "hit": false,
      "t": 232190.89599999966,
      "d": 90.1914479166735,
      "v": 127
    },
    {
      "midi": 38,
      "hit": false,
      "t": 232190.89600000065,
      "d": 612.2856041666528,
      "v": 127
    },
    {
      "midi": 66,
      "hit": false,
      "t": 232198.51781250042,
      "d": 193.08591666666325,
      "v": 83
    },
    {
      "midi": 66,
      "hit": false,
      "t": 232399.22554166708,
      "d": 238.81679166664253,
      "v": 82
    },
    {
      "midi": 62,
      "hit": false,
      "t": 232406.84735416708,
      "d": 238.81679166664253,
      "v": 81
    },
    {
      "midi": 57,
      "hit": false,
      "t": 232417.00977083374,
      "d": 223.57316666663974,
      "v": 80
    },
    {
      "midi": 62,
      "hit": false,
      "t": 232434.79399999967,
      "d": 92.73205208333093,
      "v": 127
    },
    {
      "midi": 50,
      "hit": false,
      "t": 232665.98897916707,
      "d": 442.0651249999646,
      "v": 88
    },
    {
      "midi": 54,
      "hit": false,
      "t": 232668.52958333373,
      "d": 467.47116666665534,
      "v": 92
    },
    {
      "midi": 57,
      "hit": false,
      "t": 232671.0701875004,
      "d": 444.60572916665114,
      "v": 117
    },
    {
      "midi": 62,
      "hit": false,
      "t": 232673.61079166704,
      "d": 436.98391666664975,
      "v": 122
    },
    {
      "midi": 66,
      "hit": false,
      "t": 232676.1513958337,
      "d": 452.22754166668165,
      "v": 126
    },
    {
      "midi": 62,
      "hit": false,
      "t": 232678.69199999966,
      "d": 100.35386458333232,
      "v": 127
    },
    {
      "midi": 62,
      "hit": false,
      "t": 232922.58999999965,
      "d": 96.54295833333163,
      "v": 127
    },
    {
      "midi": 38,
      "hit": false,
      "t": 232922.59000000064,
      "d": 193.08591666666325,
      "v": 127
    },
    {
      "midi": 50,
      "hit": false,
      "t": 233143.6225625004,
      "d": 231.19497916667024,
      "v": 95
    },
    {
      "midi": 54,
      "hit": false,
      "t": 233153.78497916705,
      "d": 208.32954166666605,
      "v": 88
    },
    {
      "midi": 57,
      "hit": false,
      "t": 233163.9473958337,
      "d": 193.08591666666325,
      "v": 98
    },
    {
      "midi": 62,
      "hit": false,
      "t": 233166.48799999963,
      "d": 114.32718749999185,
      "v": 127
    },
    {
      "midi": 33,
      "hit": false,
      "t": 233166.48800000062,
      "d": 612.2856041666528,
      "v": 127
    },
    {
      "midi": 62,
      "hit": false,
      "t": 233174.10981250036,
      "d": 436.98391666670796,
      "v": 90
    },
    {
      "midi": 66,
      "hit": false,
      "t": 233183.0019270837,
      "d": 452.22754166668165,
      "v": 83
    },
    {
      "midi": 57,
      "hit": false,
      "t": 233402.76418750038,
      "d": 193.08591666669236,
      "v": 85
    },
    {
      "midi": 62,
      "hit": false,
      "t": 233410.38599999962,
      "d": 107.97567708333372,
      "v": 127
    },
    {
      "midi": 54,
      "hit": false,
      "t": 233415.46720833372,
      "d": 193.08591666669236,
      "v": 71
    },
    {
      "midi": 50,
      "hit": false,
      "t": 233428.17022916707,
      "d": 193.08591666666325,
      "v": 72
    },
    {
      "midi": 50,
      "hit": false,
      "t": 233631.4185625004,
      "d": 452.22754166665254,
      "v": 88
    },
    {
      "midi": 54,
      "hit": false,
      "t": 233633.95916666705,
      "d": 452.22754166665254,
      "v": 92
    },
    {
      "midi": 57,
      "hit": false,
      "t": 233636.49977083373,
      "d": 208.32954166666605,
      "v": 117
    },
    {
      "midi": 62,
      "hit": false,
      "t": 233639.0403750004,
      "d": 215.95135416666744,
      "v": 122
    },
    {
      "midi": 66,
      "hit": false,
      "t": 233641.58097916705,
      "d": 198.16712500000722,
      "v": 126
    },
    {
      "midi": 62,
      "hit": false,
      "t": 233654.2839999996,
      "d": 113.05688541667769,
      "v": 127
    },
    {
      "midi": 66,
      "hit": false,
      "t": 233872.77595833372,
      "d": 185.46410416666185,
      "v": 104
    },
    {
      "midi": 62,
      "hit": false,
      "t": 233882.93837500038,
      "d": 177.84229166666046,
      "v": 98
    },
    {
      "midi": 57,
      "hit": false,
      "t": 233895.64139583372,
      "d": 193.08591666663415,
      "v": 90
    },
    {
      "midi": 62,
      "hit": false,
      "t": 233898.18199999962,
      "d": 101.62416666667559,
      "v": 127
    },
    {
      "midi": 33,
      "hit": false,
      "t": 233898.1820000006,
      "d": 235.00588541667094,
      "v": 127
    },
    {
      "midi": 50,
      "hit": false,
      "t": 234109.0521458337,
      "d": 447.1463333332795,
      "v": 97
    },
    {
      "midi": 54,
      "hit": false,
      "t": 234119.21456250036,
      "d": 447.1463333332795,
      "v": 90
    },
    {
      "midi": 57,
      "hit": false,
      "t": 234129.37697916702,
      "d": 193.08591666666325,
      "v": 100
    },
    {
      "midi": 62,
      "hit": false,
      "t": 234139.53939583368,
      "d": 193.08591666666325,
      "v": 92
    },
    {
      "midi": 62,
      "hit": false,
      "t": 234142.07999999964,
      "d": 97.8132604166749,
      "v": 127
    },
    {
      "midi": 38,
      "hit": false,
      "t": 234142.08000000063,
      "d": 556.3923124999856,
      "v": 127
    },
    {
      "midi": 66,
      "hit": false,
      "t": 234149.70181250034,
      "d": 193.08591666666325,
      "v": 83
    },
    {
      "midi": 66,
      "hit": false,
      "t": 234350.409541667,
      "d": 238.81679166664253,
      "v": 82
    },
    {
      "midi": 62,
      "hit": false,
      "t": 234358.031354167,
      "d": 238.81679166664253,
      "v": 81
    },
    {
      "midi": 57,
      "hit": false,
      "t": 234368.19377083366,
      "d": 223.57316666663974,
      "v": 80
    },
    {
      "midi": 62,
      "hit": false,
      "t": 234385.97799999965,
      "d": 101.62416666667559,
      "v": 127
    },
    {
      "midi": 50,
      "hit": false,
      "t": 234617.172979167,
      "d": 442.0651249999646,
      "v": 88
    },
    {
      "midi": 54,
      "hit": false,
      "t": 234619.71358333365,
      "d": 467.47116666665534,
      "v": 92
    },
    {
      "midi": 57,
      "hit": false,
      "t": 234622.2541875003,
      "d": 444.60572916665114,
      "v": 117
    },
    {
      "midi": 62,
      "hit": false,
      "t": 234624.79479166697,
      "d": 436.98391666664975,
      "v": 122
    },
    {
      "midi": 66,
      "hit": false,
      "t": 234627.33539583362,
      "d": 452.22754166668165,
      "v": 126
    },
    {
      "midi": 62,
      "hit": false,
      "t": 234629.87599999967,
      "d": 110.51628124999115,
      "v": 127
    },
    {
      "midi": 62,
      "hit": false,
      "t": 234873.77399999966,
      "d": 113.05688541667769,
      "v": 127
    },
    {
      "midi": 38,
      "hit": false,
      "t": 234873.77400000062,
      "d": 201.97803125000792,
      "v": 127
    },
    {
      "midi": 50,
      "hit": false,
      "t": 235094.8065625003,
      "d": 231.19497916667024,
      "v": 95
    },
    {
      "midi": 54,
      "hit": false,
      "t": 235104.96897916697,
      "d": 208.32954166666605,
      "v": 88
    },
    {
      "midi": 57,
      "hit": false,
      "t": 235115.13139583362,
      "d": 193.08591666666325,
      "v": 98
    },
    {
      "midi": 62,
      "hit": false,
      "t": 235117.67199999967,
      "d": 443.335427083337,
      "v": 127
    },
    {
      "midi": 33,
      "hit": false,
      "t": 235117.67200000063,
      "d": 508.12083333334886,
      "v": 127
    },
    {
      "midi": 62,
      "hit": false,
      "t": 235125.29381250028,
      "d": 436.98391666670796,
      "v": 90
    },
    {
      "midi": 66,
      "hit": false,
      "t": 235134.18592708363,
      "d": 452.22754166668165,
      "v": 83
    },
    {
      "midi": 57,
      "hit": false,
      "t": 235353.9481875003,
      "d": 193.08591666669236,
      "v": 85
    },
    {
      "midi": 54,
      "hit": false,
      "t": 235366.65120833364,
      "d": 193.08591666669236,
      "v": 71
    },
    {
      "midi": 50,
      "hit": false,
      "t": 235379.354229167,
      "d": 193.08591666666325,
      "v": 72
    },
    {
      "midi": 50,
      "hit": false,
      "t": 235582.6025625003,
      "d": 452.22754166665254,
      "v": 88
    },
    {
      "midi": 54,
      "hit": false,
      "t": 235585.14316666697,
      "d": 452.22754166665254,
      "v": 92
    },
    {
      "midi": 57,
      "hit": false,
      "t": 235587.68377083365,
      "d": 208.32954166666605,
      "v": 117
    },
    {
      "midi": 62,
      "hit": false,
      "t": 235590.2243750003,
      "d": 215.95135416666744,
      "v": 122
    },
    {
      "midi": 66,
      "hit": false,
      "t": 235592.76497916697,
      "d": 198.16712500000722,
      "v": 126
    },
    {
      "midi": 61,
      "hit": false,
      "t": 235605.46799999967,
      "d": 158.78776041665697,
      "v": 127
    },
    {
      "midi": 38,
      "hit": false,
      "t": 235605.46800000063,
      "d": 223.57316666666884,
      "v": 127
    },
    {
      "midi": 66,
      "hit": false,
      "t": 235823.95995833364,
      "d": 185.46410416666185,
      "v": 104
    },
    {
      "midi": 62,
      "hit": false,
      "t": 235834.1223750003,
      "d": 177.84229166666046,
      "v": 98
    },
    {
      "midi": 57,
      "hit": false,
      "t": 235846.82539583364,
      "d": 193.08591666663415,
      "v": 90
    },
    {
      "midi": 62,
      "hit": false,
      "t": 235849.36599999966,
      "d": 137.19262499999604,
      "v": 127
    },
    {
      "midi": 39,
      "hit": false,
      "t": 235849.36600000065,
      "d": 241.35739583332906,
      "v": 127
    },
    {
      "midi": 64,
      "hit": false,
      "t": 236029.74889583277,
      "d": 3851.555916666606,
      "v": 127
    },
    {
      "midi": 59,
      "hit": false,
      "t": 236032.28949999943,
      "d": 3850.285614583292,
      "v": 127
    },
    {
      "midi": 68,
      "hit": false,
      "t": 236034.8301041661,
      "d": 3831.2310833332886,
      "v": 127
    },
    {
      "midi": 80,
      "hit": false,
      "t": 236043.72221875002,
      "d": 2689.229510416684,
      "v": 69
    },
    {
      "midi": 68,
      "hit": false,
      "t": 236052.61433333336,
      "d": 3902.3679999999877,
      "v": 127
    },
    {
      "midi": 59,
      "hit": false,
      "t": 236055.15493750002,
      "d": 3902.3679999999877,
      "v": 127
    },
    {
      "midi": 76,
      "hit": false,
      "t": 236056.42523958336,
      "d": 2690.4998124999984,
      "v": 68
    },
    {
      "midi": 40,
      "hit": false,
      "t": 236060.23614583362,
      "d": 447.1463333332795,
      "v": 80
    },
    {
      "midi": 47,
      "hit": false,
      "t": 236070.39856250028,
      "d": 447.1463333332795,
      "v": 90
    },
    {
      "midi": 52,
      "hit": false,
      "t": 236080.56097916694,
      "d": 193.08591666666325,
      "v": 83
    },
    {
      "midi": 56,
      "hit": false,
      "t": 236090.7233958336,
      "d": 193.08591666666325,
      "v": 92
    },
    {
      "midi": 64,
      "hit": false,
      "t": 236093.26399999965,
      "d": 97.8132604166749,
      "v": 127
    },
    {
      "midi": 40,
      "hit": false,
      "t": 236093.26400000064,
      "d": 566.5547291666735,
      "v": 127
    },
    {
      "midi": 59,
      "hit": false,
      "t": 236100.88581250026,
      "d": 193.08591666666325,
      "v": 83
    },
    {
      "midi": 59,
      "hit": false,
      "t": 236301.59354166692,
      "d": 238.81679166664253,
      "v": 82
    },
    {
      "midi": 56,
      "hit": false,
      "t": 236309.21535416692,
      "d": 238.81679166664253,
      "v": 81
    },
    {
      "midi": 52,
      "hit": false,
      "t": 236319.37777083358,
      "d": 223.57316666663974,
      "v": 66
    },
    {
      "midi": 64,
      "hit": false,
      "t": 236337.16199999966,
      "d": 118.13809374999255,
      "v": 127
    },
    {
      "midi": 40,
      "hit": false,
      "t": 236568.3569791669,
      "d": 442.0651249999646,
      "v": 73
    },
    {
      "midi": 47,
      "hit": false,
      "t": 236570.89758333357,
      "d": 467.47116666665534,
      "v": 92
    },
    {
      "midi": 52,
      "hit": false,
      "t": 236573.43818750023,
      "d": 444.60572916665114,
      "v": 97
    },
    {
      "midi": 56,
      "hit": false,
      "t": 236575.9787916669,
      "d": 436.98391666664975,
      "v": 122
    },
    {
      "midi": 59,
      "hit": false,
      "t": 236578.51939583354,
      "d": 452.22754166668165,
      "v": 126
    },
    {
      "midi": 64,
      "hit": false,
      "t": 236581.05999999965,
      "d": 317.57552083334303,
      "v": 127
    },
    {
      "midi": 40,
      "hit": false,
      "t": 236824.95800000065,
      "d": 219.76226041666814,
      "v": 127
    },
    {
      "midi": 40,
      "hit": false,
      "t": 237045.99056250023,
      "d": 231.19497916667024,
      "v": 79
    },
    {
      "midi": 47,
      "hit": false,
      "t": 237056.1529791669,
      "d": 208.32954166666605,
      "v": 88
    },
    {
      "midi": 52,
      "hit": false,
      "t": 237066.31539583355,
      "d": 193.08591666666325,
      "v": 81
    },
    {
      "midi": 64,
      "hit": false,
      "t": 237068.85599999965,
      "d": 327.73793750000186,
      "v": 127
    },
    {
      "midi": 35,
      "hit": false,
      "t": 237068.85600000067,
      "d": 570.3656354166742,
      "v": 127
    },
    {
      "midi": 56,
      "hit": false,
      "t": 237076.4778125002,
      "d": 436.98391666670796,
      "v": 90
    },
    {
      "midi": 59,
      "hit": false,
      "t": 237085.36992708355,
      "d": 452.22754166668165,
      "v": 83
    },
    {
      "midi": 52,
      "hit": false,
      "t": 237305.13218750022,
      "d": 193.08591666669236,
      "v": 70
    },
    {
      "midi": 47,
      "hit": false,
      "t": 237317.83520833356,
      "d": 193.08591666669236,
      "v": 71
    },
    {
      "midi": 40,
      "hit": false,
      "t": 237330.5382291669,
      "d": 193.08591666666325,
      "v": 60
    },
    {
      "midi": 40,
      "hit": false,
      "t": 237533.78656250023,
      "d": 452.22754166665254,
      "v": 73
    },
    {
      "midi": 47,
      "hit": false,
      "t": 237536.3271666669,
      "d": 452.22754166665254,
      "v": 92
    },
    {
      "midi": 52,
      "hit": false,
      "t": 237538.86777083357,
      "d": 208.32954166666605,
      "v": 97
    },
    {
      "midi": 56,
      "hit": false,
      "t": 237541.40837500023,
      "d": 215.95135416666744,
      "v": 122
    },
    {
      "midi": 59,
      "hit": false,
      "t": 237543.9489791669,
      "d": 198.16712500000722,
      "v": 126
    },
    {
      "midi": 64,
      "hit": false,
      "t": 237556.65199999965,
      "d": 104.16477083333302,
      "v": 127
    },
    {
      "midi": 59,
      "hit": false,
      "t": 237775.14395833356,
      "d": 185.46410416666185,
      "v": 104
    },
    {
      "midi": 56,
      "hit": false,
      "t": 237785.30637500022,
      "d": 177.84229166666046,
      "v": 98
    },
    {
      "midi": 52,
      "hit": false,
      "t": 237798.00939583356,
      "d": 193.08591666663415,
      "v": 75
    },
    {
      "midi": 64,
      "hit": false,
      "t": 237800.54999999964,
      "d": 99.08356249998906,
      "v": 127
    },
    {
      "midi": 35,
      "hit": false,
      "t": 237800.5500000007,
      "d": 222.30286458332557,
      "v": 127
    },
    {
      "midi": 40,
      "hit": false,
      "t": 238011.42014583354,
      "d": 447.1463333332795,
      "v": 80
    },
    {
      "midi": 47,
      "hit": false,
      "t": 238021.5825625002,
      "d": 447.1463333332795,
      "v": 90
    },
    {
      "midi": 52,
      "hit": false,
      "t": 238031.74497916686,
      "d": 193.08591666666325,
      "v": 83
    },
    {
      "midi": 56,
      "hit": false,
      "t": 238041.90739583352,
      "d": 193.08591666666325,
      "v": 92
    },
    {
      "midi": 64,
      "hit": false,
      "t": 238044.44799999963,
      "d": 105.43507291667629,
      "v": 127
    },
    {
      "midi": 40,
      "hit": false,
      "t": 238044.44800000067,
      "d": 584.3389583333337,
      "v": 127
    },
    {
      "midi": 59,
      "hit": false,
      "t": 238052.06981250018,
      "d": 193.08591666666325,
      "v": 83
    },
    {
      "midi": 59,
      "hit": false,
      "t": 238252.77754166684,
      "d": 238.81679166664253,
      "v": 82
    },
    {
      "midi": 56,
      "hit": false,
      "t": 238260.39935416685,
      "d": 238.81679166664253,
      "v": 81
    },
    {
      "midi": 52,
      "hit": false,
      "t": 238270.5617708335,
      "d": 223.57316666663974,
      "v": 66
    },
    {
      "midi": 64,
      "hit": false,
      "t": 238288.34599999964,
      "d": 100.35386458333232,
      "v": 127
    },
    {
      "midi": 40,
      "hit": false,
      "t": 238519.54097916684,
      "d": 442.0651249999646,
      "v": 73
    },
    {
      "midi": 47,
      "hit": false,
      "t": 238522.0815833335,
      "d": 467.47116666665534,
      "v": 92
    },
    {
      "midi": 52,
      "hit": false,
      "t": 238524.62218750015,
      "d": 444.60572916665114,
      "v": 97
    },
    {
      "midi": 56,
      "hit": false,
      "t": 238527.1627916668,
      "d": 436.98391666664975,
      "v": 122
    },
    {
      "midi": 59,
      "hit": false,
      "t": 238529.70339583347,
      "d": 452.22754166668165,
      "v": 126
    },
    {
      "midi": 64,
      "hit": false,
      "t": 238532.24399999963,
      "d": 229.92467708332697,
      "v": 127
    },
    {
      "midi": 40,
      "hit": false,
      "t": 238776.14200000066,
      "d": 224.8434687500121,
      "v": 127
    },
    {
      "midi": 40,
      "hit": false,
      "t": 238997.17456250015,
      "d": 231.19497916667024,
      "v": 79
    },
    {
      "midi": 47,
      "hit": false,
      "t": 239007.3369791668,
      "d": 208.32954166666605,
      "v": 88
    },
    {
      "midi": 52,
      "hit": false,
      "t": 239017.49939583347,
      "d": 193.08591666666325,
      "v": 81
    },
    {
      "midi": 64,
      "hit": false,
      "t": 239020.03999999963,
      "d": 654.2055729166605,
      "v": 127
    },
    {
      "midi": 35,
      "hit": false,
      "t": 239020.04000000068,
      "d": 417.92938541667536,
      "v": 127
    },
    {
      "midi": 56,
      "hit": false,
      "t": 239027.66181250013,
      "d": 436.98391666670796,
      "v": 90
    },
    {
      "midi": 59,
      "hit": false,
      "t": 239036.55392708347,
      "d": 452.22754166668165,
      "v": 83
    },
    {
      "midi": 52,
      "hit": false,
      "t": 239256.31618750014,
      "d": 193.08591666669236,
      "v": 70
    },
    {
      "midi": 47,
      "hit": false,
      "t": 239269.01920833348,
      "d": 193.08591666669236,
      "v": 71
    },
    {
      "midi": 40,
      "hit": false,
      "t": 239281.72222916683,
      "d": 193.08591666666325,
      "v": 60
    },
    {
      "midi": 40,
      "hit": false,
      "t": 239484.97056250015,
      "d": 452.22754166665254,
      "v": 73
    },
    {
      "midi": 47,
      "hit": false,
      "t": 239487.5111666668,
      "d": 452.22754166665254,
      "v": 92
    },
    {
      "midi": 52,
      "hit": false,
      "t": 239490.0517708335,
      "d": 208.32954166666605,
      "v": 97
    },
    {
      "midi": 56,
      "hit": false,
      "t": 239492.59237500015,
      "d": 215.95135416666744,
      "v": 122
    },
    {
      "midi": 59,
      "hit": false,
      "t": 239495.1329791668,
      "d": 198.16712500000722,
      "v": 126
    },
    {
      "midi": 40,
      "hit": false,
      "t": 239507.83600000068,
      "d": 242.62769791667233,
      "v": 127
    },
    {
      "midi": 59,
      "hit": false,
      "t": 239726.32795833348,
      "d": 185.46410416666185,
      "v": 104
    },
    {
      "midi": 56,
      "hit": false,
      "t": 239736.49037500014,
      "d": 177.84229166666046,
      "v": 98
    },
    {
      "midi": 52,
      "hit": false,
      "t": 239749.19339583348,
      "d": 193.08591666663415,
      "v": 75
    },
    {
      "midi": 62,
      "hit": false,
      "t": 239751.73399999962,
      "d": 101.62416666667559,
      "v": 127
    },
    {
      "midi": 44,
      "hit": false,
      "t": 239751.7340000007,
      "d": 199.43742708332138,
      "v": 127
    },
    {
      "midi": 61,
      "hit": false,
      "t": 239939.73870833335,
      "d": 1951.1840000000084,
      "v": 127
    },
    {
      "midi": 57,
      "hit": false,
      "t": 239941.0090104167,
      "d": 1951.1840000000084,
      "v": 127
    },
    {
      "midi": 64,
      "hit": false,
      "t": 239943.54961458335,
      "d": 13.973322916659527,
      "v": 127
    },
    {
      "midi": 45,
      "hit": false,
      "t": 239962.60414583347,
      "d": 447.1463333332795,
      "v": 97
    },
    {
      "midi": 52,
      "hit": false,
      "t": 239972.76656250012,
      "d": 447.1463333332795,
      "v": 90
    },
    {
      "midi": 61,
      "hit": false,
      "t": 239977.8477708327,
      "d": 1880.0470833333675,
      "v": 127
    },
    {
      "midi": 64,
      "hit": false,
      "t": 239982.92897916606,
      "d": 3123.6728229166765,
      "v": 127
    },
    {
      "midi": 57,
      "hit": false,
      "t": 239982.92897916678,
      "d": 193.08591666666325,
      "v": 100
    },
    {
      "midi": 57,
      "hit": false,
      "t": 239984.1992812494,
      "d": 1947.3730937500077,
      "v": 127
    },
    {
      "midi": 61,
      "hit": false,
      "t": 239993.09139583344,
      "d": 193.08591666666325,
      "v": 92
    },
    {
      "midi": 62,
      "hit": false,
      "t": 239995.63199999963,
      "d": 243.8979999999865,
      "v": 127
    },
    {
      "midi": 45,
      "hit": false,
      "t": 239995.63200000068,
      "d": 635.151041666657,
      "v": 127
    },
    {
      "midi": 64,
      "hit": false,
      "t": 240003.2538125001,
      "d": 193.08591666666325,
      "v": 83
    },
    {
      "midi": 64,
      "hit": false,
      "t": 240203.96154166677,
      "d": 238.81679166664253,
      "v": 82
    },
    {
      "midi": 61,
      "hit": false,
      "t": 240211.58335416677,
      "d": 238.81679166664253,
      "v": 81
    },
    {
      "midi": 57,
      "hit": false,
      "t": 240221.74577083343,
      "d": 223.57316666663974,
      "v": 80
    },
    {
      "midi": 61,
      "hit": false,
      "t": 240239.52999999962,
      "d": 243.8979999999865,
      "v": 127
    },
    {
      "midi": 45,
      "hit": false,
      "t": 240470.72497916676,
      "d": 442.0651249999646,
      "v": 88
    },
    {
      "midi": 52,
      "hit": false,
      "t": 240473.2655833334,
      "d": 467.47116666665534,
      "v": 92
    },
    {
      "midi": 57,
      "hit": false,
      "t": 240475.80618750007,
      "d": 444.60572916665114,
      "v": 117
    },
    {
      "midi": 61,
      "hit": false,
      "t": 240478.34679166673,
      "d": 436.98391666664975,
      "v": 122
    },
    {
      "midi": 64,
      "hit": false,
      "t": 240480.8873958334,
      "d": 452.22754166668165,
      "v": 126
    },
    {
      "midi": 45,
      "hit": false,
      "t": 240727.32600000067,
      "d": 215.95135416666744,
      "v": 127
    },
    {
      "midi": 45,
      "hit": false,
      "t": 240948.35856250007,
      "d": 231.19497916667024,
      "v": 95
    },
    {
      "midi": 52,
      "hit": false,
      "t": 240958.52097916673,
      "d": 208.32954166666605,
      "v": 88
    },
    {
      "midi": 57,
      "hit": false,
      "t": 240968.6833958334,
      "d": 193.08591666666325,
      "v": 98
    },
    {
      "midi": 40,
      "hit": false,
      "t": 240971.22400000066,
      "d": 483.9850937500014,
      "v": 127
    },
    {
      "midi": 61,
      "hit": false,
      "t": 240978.84581250005,
      "d": 436.98391666670796,
      "v": 90
    },
    {
      "midi": 64,
      "hit": false,
      "t": 240987.7379270834,
      "d": 452.22754166668165,
      "v": 83
    },
    {
      "midi": 57,
      "hit": false,
      "t": 241207.50018750006,
      "d": 193.08591666669236,
      "v": 85
    },
    {
      "midi": 52,
      "hit": false,
      "t": 241220.2032083334,
      "d": 193.08591666669236,
      "v": 71
    },
    {
      "midi": 45,
      "hit": false,
      "t": 241232.90622916675,
      "d": 193.08591666666325,
      "v": 72
    },
    {
      "midi": 45,
      "hit": false,
      "t": 241436.15456250007,
      "d": 452.22754166665254,
      "v": 88
    },
    {
      "midi": 52,
      "hit": false,
      "t": 241438.69516666673,
      "d": 452.22754166665254,
      "v": 92
    },
    {
      "midi": 57,
      "hit": false,
      "t": 241441.23577083342,
      "d": 208.32954166666605,
      "v": 117
    },
    {
      "midi": 61,
      "hit": false,
      "t": 241443.77637500007,
      "d": 215.95135416666744,
      "v": 122
    },
    {
      "midi": 64,
      "hit": false,
      "t": 241446.31697916673,
      "d": 198.16712500000722,
      "v": 126
    },
    {
      "midi": 38,
      "hit": false,
      "t": 241459.02000000066,
      "d": 231.19497916667024,
      "v": 127
    },
    {
      "midi": 64,
      "hit": false,
      "t": 241677.5119583334,
      "d": 185.46410416666185,
      "v": 104
    },
    {
      "midi": 61,
      "hit": false,
      "t": 241687.67437500006,
      "d": 177.84229166666046,
      "v": 98
    },
    {
      "midi": 57,
      "hit": false,
      "t": 241700.3773958334,
      "d": 193.08591666663415,
      "v": 90
    },
    {
      "midi": 39,
      "hit": false,
      "t": 241702.91800000067,
      "d": 226.11377083332627,
      "v": 127
    },
    {
      "midi": 56,
      "hit": false,
      "t": 241883.30089583335,
      "d": 1951.1840000000084,
      "v": 127
    },
    {
      "midi": 64,
      "hit": false,
      "t": 241889.65240625,
      "d": 5.081208333343966,
      "v": 127
    },
    {
      "midi": 59,
      "hit": false,
      "t": 241896.0039166661,
      "d": 1242.3554374999658,
      "v": 112
    },
    {
      "midi": 59,
      "hit": false,
      "t": 241896.0039166667,
      "d": 1951.1840000000084,
      "v": 127
    },
    {
      "midi": 40,
      "hit": false,
      "t": 241913.7881458334,
      "d": 447.1463333332795,
      "v": 80
    },
    {
      "midi": 47,
      "hit": false,
      "t": 241923.95056250005,
      "d": 447.1463333332795,
      "v": 75
    },
    {
      "midi": 52,
      "hit": false,
      "t": 241934.1129791667,
      "d": 193.08591666666325,
      "v": 69
    },
    {
      "midi": 56,
      "hit": false,
      "t": 241944.27539583336,
      "d": 193.08591666666325,
      "v": 92
    },
    {
      "midi": 40,
      "hit": false,
      "t": 241946.81600000066,
      "d": 599.5825833333365,
      "v": 127
    },
    {
      "midi": 59,
      "hit": false,
      "t": 241954.43781250002,
      "d": 193.08591666666325,
      "v": 83
    },
    {
      "midi": 59,
      "hit": false,
      "t": 242155.1455416667,
      "d": 238.81679166664253,
      "v": 82
    },
    {
      "midi": 56,
      "hit": false,
      "t": 242162.7673541667,
      "d": 238.81679166664253,
      "v": 81
    },
    {
      "midi": 52,
      "hit": false,
      "t": 242172.92977083335,
      "d": 223.57316666663974,
      "v": 55
    },
    {
      "midi": 40,
      "hit": false,
      "t": 242421.90897916668,
      "d": 442.0651249999646,
      "v": 73
    },
    {
      "midi": 47,
      "hit": false,
      "t": 242424.44958333333,
      "d": 467.47116666665534,
      "v": 76
    },
    {
      "midi": 52,
      "hit": false,
      "t": 242426.9901875,
      "d": 444.60572916665114,
      "v": 80
    },
    {
      "midi": 56,
      "hit": false,
      "t": 242429.53079166665,
      "d": 436.98391666664975,
      "v": 122
    },
    {
      "midi": 59,
      "hit": false,
      "t": 242432.0713958333,
      "d": 452.22754166668165,
      "v": 126
    },
    {
      "midi": 40,
      "hit": false,
      "t": 242678.51000000068,
      "d": 217.2216562500107,
      "v": 127
    },
    {
      "midi": 40,
      "hit": false,
      "t": 242899.5425625,
      "d": 231.19497916667024,
      "v": 79
    },
    {
      "midi": 47,
      "hit": false,
      "t": 242909.70497916665,
      "d": 208.32954166666605,
      "v": 73
    },
    {
      "midi": 52,
      "hit": false,
      "t": 242919.8673958333,
      "d": 193.08591666666325,
      "v": 67
    },
    {
      "midi": 35,
      "hit": false,
      "t": 242922.4080000007,
      "d": 224.8434687500121,
      "v": 127
    },
    {
      "midi": 56,
      "hit": false,
      "t": 242930.02981249997,
      "d": 436.98391666670796,
      "v": 90
    },
    {
      "midi": 59,
      "hit": false,
      "t": 242938.9219270833,
      "d": 452.22754166668165,
      "v": 83
    },
    {
      "midi": 52,
      "hit": false,
      "t": 243158.68418749998,
      "d": 193.08591666669236,
      "v": 58
    },
    {
      "midi": 40,
      "hit": false,
      "t": 243166.3060000007,
      "d": 279.46645833330695,
      "v": 127
    },
    {
      "midi": 47,
      "hit": false,
      "t": 243171.38720833333,
      "d": 193.08591666669236,
      "v": 59
    },
    {
      "midi": 40,
      "hit": false,
      "t": 243184.09022916667,
      "d": 193.08591666666325,
      "v": 60
    },
    {
      "midi": 40,
      "hit": false,
      "t": 243387.3385625,
      "d": 452.22754166665254,
      "v": 73
    },
    {
      "midi": 47,
      "hit": false,
      "t": 243389.87916666665,
      "d": 452.22754166665254,
      "v": 76
    },
    {
      "midi": 52,
      "hit": false,
      "t": 243392.41977083334,
      "d": 208.32954166666605,
      "v": 80
    },
    {
      "midi": 56,
      "hit": false,
      "t": 243394.960375,
      "d": 215.95135416666744,
      "v": 122
    },
    {
      "midi": 59,
      "hit": false,
      "t": 243397.50097916665,
      "d": 198.16712500000722,
      "v": 126
    },
    {
      "midi": 42,
      "hit": false,
      "t": 243410.2040000007,
      "d": 223.57316666663974,
      "v": 127
    },
    {
      "midi": 59,
      "hit": false,
      "t": 243628.69595833332,
      "d": 185.46410416666185,
      "v": 104
    },
    {
      "midi": 56,
      "hit": false,
      "t": 243638.85837499998,
      "d": 177.84229166666046,
      "v": 98
    },
    {
      "midi": 61,
      "hit": false,
      "t": 243643.93958333295,
      "d": 73.67752083332743,
      "v": 127
    },
    {
      "midi": 52,
      "hit": false,
      "t": 243651.56139583333,
      "d": 193.08591666663415,
      "v": 62
    },
    {
      "midi": 40,
      "hit": false,
      "t": 243654.10200000068,
      "d": 215.95135416666744,
      "v": 127
    },
    {
      "midi": 61,
      "hit": false,
      "t": 243835.75519791606,
      "d": 3837.582593750034,
      "v": 127
    },
    {
      "midi": 57,
      "hit": false,
      "t": 243837.0254999994,
      "d": 3821.068666666688,
      "v": 127
    },
    {
      "midi": 64,
      "hit": false,
      "t": 243838.29580208275,
      "d": 3818.5280625000014,
      "v": 127
    },
    {
      "midi": 85,
      "hit": false,
      "t": 243850.9988229167,
      "d": 2438.9799999999814,
      "v": 127
    },
    {
      "midi": 88,
      "hit": false,
      "t": 243853.53942708336,
      "d": 2438.9799999999814,
      "v": 127
    },
    {
      "midi": 76,
      "hit": false,
      "t": 243854.8097291667,
      "d": 2438.9799999999814,
      "v": 127
    },
    {
      "midi": 61,
      "hit": false,
      "t": 243880.21577083337,
      "d": 3788.0408124999667,
      "v": 127
    },
    {
      "midi": 57,
      "hit": false,
      "t": 243882.75637500003,
      "d": 3765.1753749999916,
      "v": 127
    },
    {
      "midi": 64,
      "hit": false,
      "t": 243882.75637500003,
      "d": 3771.5268854166497,
      "v": 127
    },
    {
      "midi": 61,
      "hit": false,
      "t": 243887.83758333293,
      "d": 81.29933333332883,
      "v": 127
    }
  ]
}