{
  "jsonPath": "Unknown/Unknown/Isis Gee/too-far-from-here.json",
  "path": "Unknown\\Unknown\\Isis Gee\\Too Far From Here.mid",
  "name": "Too Far From Here",
  "difficulty": "Advanced",
  "bpm": 75,
  "notes": [
    {
      "midi": 43,
      "hit": false,
      "t": 3200,
      "d": 3200,
      "v": 74
    },
    {
      "midi": 43,
      "hit": false,
      "t": 3200,
      "d": 6200,
      "v": 70
    },
    {
      "midi": 50,
      "hit": false,
      "t": 3600,
      "d": 1600,
      "v": 67
    },
    {
      "midi": 55,
      "hit": false,
      "t": 4000,
      "d": 1200,
      "v": 84
    },
    {
      "midi": 59,
      "hit": false,
      "t": 4400,
      "d": 800,
      "v": 75
    },
    {
      "midi": 62,
      "hit": false,
      "t": 4800,
      "d": 800,
      "v": 70
    },
    {
      "midi": 50,
      "hit": false,
      "t": 5200,
      "d": 1200,
      "v": 4
    },
    {
      "midi": 55,
      "hit": false,
      "t": 5200,
      "d": 1200,
      "v": 82
    },
    {
      "midi": 59,
      "hit": false,
      "t": 5600,
      "d": 800,
      "v": 84
    },
    {
      "midi": 62,
      "hit": false,
      "t": 6000,
      "d": 1600,
      "v": 71
    },
    {
      "midi": 43,
      "hit": false,
      "t": 6400,
      "d": 3200,
      "v": 82
    },
    {
      "midi": 50,
      "hit": false,
      "t": 6800,
      "d": 2800,
      "v": 66
    },
    {
      "midi": 55,
      "hit": false,
      "t": 7200,
      "d": 1200,
      "v": 66
    },
    {
      "midi": 59,
      "hit": false,
      "t": 7600,
      "d": 800,
      "v": 77
    },
    {
      "midi": 62,
      "hit": false,
      "t": 8000,
      "d": 800,
      "v": 67
    },
    {
      "midi": 55,
      "hit": false,
      "t": 8400,
      "d": 1200,
      "v": 86
    },
    {
      "midi": 59,
      "hit": false,
      "t": 8800,
      "d": 800,
      "v": 72
    },
    {
      "midi": 62,
      "hit": false,
      "t": 9200,
      "d": 400,
      "v": 71
    },
    {
      "midi": 43,
      "hit": false,
      "t": 9600,
      "d": 1966.666666666666,
      "v": 70
    },
    {
      "midi": 43,
      "hit": false,
      "t": 9600,
      "d": 6200,
      "v": 70
    },
    {
      "midi": 47,
      "hit": false,
      "t": 10000,
      "d": 666.6666666666661,
      "v": 70
    },
    {
      "midi": 50,
      "hit": false,
      "t": 10400,
      "d": 679.1666666666661,
      "v": 70
    },
    {
      "midi": 47,
      "hit": false,
      "t": 10800,
      "d": 666.6666666666661,
      "v": 70
    },
    {
      "midi": 55,
      "hit": false,
      "t": 11200,
      "d": 545.8333333333339,
      "v": 70
    },
    {
      "midi": 50,
      "hit": false,
      "t": 11600,
      "d": 652.0833333333339,
      "v": 70
    },
    {
      "midi": 47,
      "hit": false,
      "t": 12000,
      "d": 666.6666666666661,
      "v": 70
    },
    {
      "midi": 50,
      "hit": false,
      "t": 12400,
      "d": 572.9166666666661,
      "v": 70
    },
    {
      "midi": 43,
      "hit": false,
      "t": 12800,
      "d": 1745.833333333334,
      "v": 70
    },
    {
      "midi": 47,
      "hit": false,
      "t": 13200,
      "d": 666.6666666666661,
      "v": 70
    },
    {
      "midi": 50,
      "hit": false,
      "t": 13600,
      "d": 639.5833333333339,
      "v": 70
    },
    {
      "midi": 47,
      "hit": false,
      "t": 14000,
      "d": 691.6666666666679,
      "v": 70
    },
    {
      "midi": 55,
      "hit": false,
      "t": 14400,
      "d": 533.3333333333358,
      "v": 70
    },
    {
      "midi": 50,
      "hit": false,
      "t": 14800.000000000002,
      "d": 652.0833333333339,
      "v": 70
    },
    {
      "midi": 47,
      "hit": false,
      "t": 15200.000000000002,
      "d": 652.0833333333339,
      "v": 70
    },
    {
      "midi": 50,
      "hit": false,
      "t": 15600.000000000002,
      "d": 400,
      "v": 70
    },
    {
      "midi": 43,
      "hit": false,
      "t": 16000,
      "d": 3200,
      "v": 70
    },
    {
      "midi": 43,
      "hit": false,
      "t": 16000.000000000002,
      "d": 799.9999999999982,
      "v": 71
    },
    {
      "midi": 47,
      "hit": false,
      "t": 16400,
      "d": 800,
      "v": 71
    },
    {
      "midi": 50,
      "hit": false,
      "t": 16800,
      "d": 1200,
      "v": 71
    },
    {
      "midi": 55,
      "hit": false,
      "t": 17200,
      "d": 800,
      "v": 71
    },
    {
      "midi": 59,
      "hit": false,
      "t": 17600,
      "d": 800,
      "v": 71
    },
    {
      "midi": 50,
      "hit": false,
      "t": 18000,
      "d": 1200,
      "v": 65
    },
    {
      "midi": 55,
      "hit": false,
      "t": 18400,
      "d": 800,
      "v": 71
    },
    {
      "midi": 59,
      "hit": false,
      "t": 18800,
      "d": 400,
      "v": 71
    },
    {
      "midi": 43,
      "hit": false,
      "t": 19200,
      "d": 3200,
      "v": 71
    },
    {
      "midi": 43,
      "hit": false,
      "t": 19200,
      "d": 3200,
      "v": 70
    },
    {
      "midi": 55,
      "hit": false,
      "t": 19600,
      "d": 2800,
      "v": 65
    },
    {
      "midi": 59,
      "hit": false,
      "t": 20000,
      "d": 1200,
      "v": 71
    },
    {
      "midi": 64,
      "hit": false,
      "t": 20400,
      "d": 800,
      "v": 71
    },
    {
      "midi": 67,
      "hit": false,
      "t": 20800,
      "d": 800,
      "v": 71
    },
    {
      "midi": 59,
      "hit": false,
      "t": 21200,
      "d": 1200,
      "v": 71
    },
    {
      "midi": 64,
      "hit": false,
      "t": 21600,
      "d": 400,
      "v": 71
    },
    {
      "midi": 67,
      "hit": false,
      "t": 22000,
      "d": 400,
      "v": 71
    },
    {
      "midi": 47,
      "hit": false,
      "t": 22400,
      "d": 800,
      "v": 71
    },
    {
      "midi": 35,
      "hit": false,
      "t": 22400,
      "d": 3200,
      "v": 70
    },
    {
      "midi": 50,
      "hit": false,
      "t": 22800,
      "d": 800,
      "v": 71
    },
    {
      "midi": 54,
      "hit": false,
      "t": 23200,
      "d": 1200,
      "v": 71
    },
    {
      "midi": 59,
      "hit": false,
      "t": 23600,
      "d": 800,
      "v": 71
    },
    {
      "midi": 62,
      "hit": false,
      "t": 24000,
      "d": 800,
      "v": 71
    },
    {
      "midi": 54,
      "hit": false,
      "t": 24400,
      "d": 1200,
      "v": 65
    },
    {
      "midi": 59,
      "hit": false,
      "t": 24800,
      "d": 800,
      "v": 71
    },
    {
      "midi": 62,
      "hit": false,
      "t": 25200,
      "d": 400,
      "v": 71
    },
    {
      "midi": 48,
      "hit": false,
      "t": 25600,
      "d": 566.6666666666679,
      "v": 71
    },
    {
      "midi": 60,
      "hit": false,
      "t": 25600,
      "d": 2145.833333333332,
      "v": 71
    },
    {
      "midi": 64,
      "hit": false,
      "t": 25600,
      "d": 2466.666666666668,
      "v": 71
    },
    {
      "midi": 36,
      "hit": false,
      "t": 25600,
      "d": 3200,
      "v": 70
    },
    {
      "midi": 55,
      "hit": false,
      "t": 26000,
      "d": 506.25,
      "v": 71
    },
    {
      "midi": 52,
      "hit": false,
      "t": 26400,
      "d": 533.3333333333321,
      "v": 71
    },
    {
      "midi": 55,
      "hit": false,
      "t": 26800,
      "d": 506.25,
      "v": 71
    },
    {
      "midi": 48,
      "hit": false,
      "t": 27200,
      "d": 506.25,
      "v": 71
    },
    {
      "midi": 55,
      "hit": false,
      "t": 27600,
      "d": 545.8333333333358,
      "v": 71
    },
    {
      "midi": 60,
      "hit": false,
      "t": 28000,
      "d": 306.25000000000364,
      "v": 71
    },
    {
      "midi": 52,
      "hit": false,
      "t": 28000,
      "d": 400.00000000000364,
      "v": 71
    },
    {
      "midi": 62,
      "hit": false,
      "t": 28200.000000000004,
      "d": 372.9166666666679,
      "v": 71
    },
    {
      "midi": 55,
      "hit": false,
      "t": 28400.000000000004,
      "d": 400,
      "v": 68
    },
    {
      "midi": 64,
      "hit": false,
      "t": 28400.000000000004,
      "d": 400,
      "v": 71
    },
    {
      "midi": 43,
      "hit": false,
      "t": 28800,
      "d": 3200,
      "v": 70
    },
    {
      "midi": 43,
      "hit": false,
      "t": 28800.000000000004,
      "d": 800,
      "v": 71
    },
    {
      "midi": 55,
      "hit": false,
      "t": 28800.000000000004,
      "d": 1612.5,
      "v": 71
    },
    {
      "midi": 59,
      "hit": false,
      "t": 28800.000000000004,
      "d": 1612.5,
      "v": 71
    },
    {
      "midi": 50,
      "hit": false,
      "t": 29200.000000000004,
      "d": 800,
      "v": 63
    },
    {
      "midi": 47,
      "hit": false,
      "t": 29600.000000000004,
      "d": 812.5,
      "v": 71
    },
    {
      "midi": 50,
      "hit": false,
      "t": 30000.000000000004,
      "d": 800,
      "v": 71
    },
    {
      "midi": 43,
      "hit": false,
      "t": 30412.500000000004,
      "d": 787.5,
      "v": 71
    },
    {
      "midi": 55,
      "hit": false,
      "t": 30412.500000000004,
      "d": 787.5,
      "v": 71
    },
    {
      "midi": 50,
      "hit": false,
      "t": 30800.000000000004,
      "d": 800,
      "v": 71
    },
    {
      "midi": 57,
      "hit": false,
      "t": 30800.000000000004,
      "d": 800,
      "v": 71
    },
    {
      "midi": 47,
      "hit": false,
      "t": 31200.000000000004,
      "d": 800,
      "v": 71
    },
    {
      "midi": 59,
      "hit": false,
      "t": 31200.000000000004,
      "d": 800,
      "v": 71
    },
    {
      "midi": 50,
      "hit": false,
      "t": 31600.000000000004,
      "d": 400,
      "v": 71
    },
    {
      "midi": 62,
      "hit": false,
      "t": 31600.000000000004,
      "d": 400,
      "v": 71
    },
    {
      "midi": 38,
      "hit": false,
      "t": 32000,
      "d": 3200,
      "v": 70
    },
    {
      "midi": 50,
      "hit": false,
      "t": 32000.000000000004,
      "d": 725,
      "v": 72
    },
    {
      "midi": 66,
      "hit": false,
      "t": 32000.000000000004,
      "d": 1091.6666666666606,
      "v": 72
    },
    {
      "midi": 62,
      "hit": false,
      "t": 32000.000000000004,
      "d": 1145.8333333333248,
      "v": 72
    },
    {
      "midi": 57,
      "hit": false,
      "t": 32400.000000000004,
      "d": 691.6666666666606,
      "v": 58
    },
    {
      "midi": 54,
      "hit": false,
      "t": 32800,
      "d": 706.2499999999927,
      "v": 72
    },
    {
      "midi": 69,
      "hit": false,
      "t": 32800,
      "d": 799.9999999999927,
      "v": 72
    },
    {
      "midi": 57,
      "hit": false,
      "t": 33199.99999999999,
      "d": 679.1666666666642,
      "v": 72
    },
    {
      "midi": 62,
      "hit": false,
      "t": 33599.99999999999,
      "d": 666.6666666666642,
      "v": 72
    },
    {
      "midi": 50,
      "hit": false,
      "t": 33599.99999999999,
      "d": 679.1666666666642,
      "v": 71
    },
    {
      "midi": 57,
      "hit": false,
      "t": 33999.99999999999,
      "d": 706.25,
      "v": 67
    },
    {
      "midi": 64,
      "hit": false,
      "t": 33999.99999999999,
      "d": 706.25,
      "v": 72
    },
    {
      "midi": 54,
      "hit": false,
      "t": 34399.99999999999,
      "d": 679.1666666666642,
      "v": 72
    },
    {
      "midi": 66,
      "hit": false,
      "t": 34399.99999999999,
      "d": 691.6666666666642,
      "v": 72
    },
    {
      "midi": 57,
      "hit": false,
      "t": 34799.99999999999,
      "d": 400,
      "v": 72
    },
    {
      "midi": 69,
      "hit": false,
      "t": 34799.99999999999,
      "d": 400,
      "v": 72
    },
    {
      "midi": 52,
      "hit": false,
      "t": 35199.99999999999,
      "d": 800,
      "v": 71
    },
    {
      "midi": 40,
      "hit": false,
      "t": 35200,
      "d": 3200,
      "v": 70
    },
    {
      "midi": 55,
      "hit": false,
      "t": 35599.99999999999,
      "d": 800,
      "v": 71
    },
    {
      "midi": 59,
      "hit": false,
      "t": 35999.99999999999,
      "d": 1200,
      "v": 71
    },
    {
      "midi": 64,
      "hit": false,
      "t": 36399.99999999999,
      "d": 800,
      "v": 71
    },
    {
      "midi": 67,
      "hit": false,
      "t": 36799.99999999999,
      "d": 800,
      "v": 71
    },
    {
      "midi": 59,
      "hit": false,
      "t": 37199.99999999999,
      "d": 1200,
      "v": 65
    },
    {
      "midi": 64,
      "hit": false,
      "t": 37599.99999999999,
      "d": 800,
      "v": 71
    },
    {
      "midi": 67,
      "hit": false,
      "t": 37999.99999999999,
      "d": 400,
      "v": 71
    },
    {
      "midi": 47,
      "hit": false,
      "t": 38399.99999999999,
      "d": 3200,
      "v": 71
    },
    {
      "midi": 35,
      "hit": false,
      "t": 38400,
      "d": 3200,
      "v": 70
    },
    {
      "midi": 50,
      "hit": false,
      "t": 38799.99999999999,
      "d": 2800,
      "v": 65
    },
    {
      "midi": 54,
      "hit": false,
      "t": 39199.99999999999,
      "d": 1200,
      "v": 71
    },
    {
      "midi": 59,
      "hit": false,
      "t": 39599.99999999999,
      "d": 800,
      "v": 71
    },
    {
      "midi": 62,
      "hit": false,
      "t": 39999.99999999999,
      "d": 800,
      "v": 71
    },
    {
      "midi": 54,
      "hit": false,
      "t": 40399.99999999999,
      "d": 1200,
      "v": 71
    },
    {
      "midi": 59,
      "hit": false,
      "t": 40799.99999999999,
      "d": 400,
      "v": 71
    },
    {
      "midi": 62,
      "hit": false,
      "t": 41199.99999999999,
      "d": 400,
      "v": 71
    },
    {
      "midi": 52,
      "hit": false,
      "t": 41599.99999999999,
      "d": 800,
      "v": 71
    },
    {
      "midi": 64,
      "hit": false,
      "t": 41599.99999999999,
      "d": 1612.5,
      "v": 71
    },
    {
      "midi": 67,
      "hit": false,
      "t": 41599.99999999999,
      "d": 1612.5,
      "v": 71
    },
    {
      "midi": 40,
      "hit": false,
      "t": 41600,
      "d": 3200,
      "v": 70
    },
    {
      "midi": 59,
      "hit": false,
      "t": 41999.99999999999,
      "d": 800,
      "v": 63
    },
    {
      "midi": 55,
      "hit": false,
      "t": 42399.99999999999,
      "d": 812.5,
      "v": 71
    },
    {
      "midi": 59,
      "hit": false,
      "t": 42799.99999999999,
      "d": 800,
      "v": 71
    },
    {
      "midi": 52,
      "hit": false,
      "t": 43212.49999999999,
      "d": 787.5,
      "v": 71
    },
    {
      "midi": 64,
      "hit": false,
      "t": 43212.49999999999,
      "d": 787.5,
      "v": 71
    },
    {
      "midi": 59,
      "hit": false,
      "t": 43599.99999999999,
      "d": 800,
      "v": 71
    },
    {
      "midi": 66,
      "hit": false,
      "t": 43599.99999999999,
      "d": 800,
      "v": 71
    },
    {
      "midi": 55,
      "hit": false,
      "t": 43999.99999999999,
      "d": 800,
      "v": 71
    },
    {
      "midi": 67,
      "hit": false,
      "t": 43999.99999999999,
      "d": 800,
      "v": 71
    },
    {
      "midi": 59,
      "hit": false,
      "t": 44399.99999999999,
      "d": 400,
      "v": 71
    },
    {
      "midi": 71,
      "hit": false,
      "t": 44399.99999999999,
      "d": 400,
      "v": 71
    },
    {
      "midi": 47,
      "hit": false,
      "t": 44799.99999999999,
      "d": 566.6666666666642,
      "v": 71
    },
    {
      "midi": 59,
      "hit": false,
      "t": 44799.99999999999,
      "d": 2145.8333333333358,
      "v": 71
    },
    {
      "midi": 62,
      "hit": false,
      "t": 44799.99999999999,
      "d": 2466.6666666666642,
      "v": 71
    },
    {
      "midi": 35,
      "hit": false,
      "t": 44800,
      "d": 3200,
      "v": 70
    },
    {
      "midi": 54,
      "hit": false,
      "t": 45199.99999999999,
      "d": 506.25,
      "v": 71
    },
    {
      "midi": 50,
      "hit": false,
      "t": 45599.99999999999,
      "d": 533.3333333333358,
      "v": 71
    },
    {
      "midi": 54,
      "hit": false,
      "t": 45999.99999999999,
      "d": 506.25,
      "v": 71
    },
    {
      "midi": 47,
      "hit": false,
      "t": 46399.99999999999,
      "d": 506.25,
      "v": 71
    },
    {
      "midi": 54,
      "hit": false,
      "t": 46799.99999999999,
      "d": 545.8333333333285,
      "v": 71
    },
    {
      "midi": 59,
      "hit": false,
      "t": 47199.99999999999,
      "d": 306.2499999999927,
      "v": 71
    },
    {
      "midi": 50,
      "hit": false,
      "t": 47199.99999999999,
      "d": 399.9999999999927,
      "v": 71
    },
    {
      "midi": 61,
      "hit": false,
      "t": 47399.999999999985,
      "d": 372.91666666666424,
      "v": 71
    },
    {
      "midi": 54,
      "hit": false,
      "t": 47599.999999999985,
      "d": 400,
      "v": 68
    },
    {
      "midi": 62,
      "hit": false,
      "t": 47599.999999999985,
      "d": 400,
      "v": 71
    },
    {
      "midi": 50,
      "hit": false,
      "t": 47999.999999999985,
      "d": 2800,
      "v": 70
    },
    {
      "midi": 38,
      "hit": false,
      "t": 48000,
      "d": 6200,
      "v": 70
    },
    {
      "midi": 54,
      "hit": false,
      "t": 48399.999999999985,
      "d": 2800,
      "v": 70
    },
    {
      "midi": 57,
      "hit": false,
      "t": 48799.999999999985,
      "d": 800,
      "v": 70
    },
    {
      "midi": 62,
      "hit": false,
      "t": 49199.999999999985,
      "d": 706.25,
      "v": 70
    },
    {
      "midi": 66,
      "hit": false,
      "t": 49599.999999999985,
      "d": 800,
      "v": 70
    },
    {
      "midi": 57,
      "hit": false,
      "t": 49999.999999999985,
      "d": 745.8333333333358,
      "v": 70
    },
    {
      "midi": 62,
      "hit": false,
      "t": 50399.999999999985,
      "d": 733.3333333333358,
      "v": 70
    },
    {
      "midi": 66,
      "hit": false,
      "t": 50799.999999999985,
      "d": 1879.1666666666642,
      "v": 70
    },
    {
      "midi": 50,
      "hit": false,
      "t": 51199.999999999985,
      "d": 3200,
      "v": 70
    },
    {
      "midi": 54,
      "hit": false,
      "t": 51599.999999999985,
      "d": 2800,
      "v": 70
    },
    {
      "midi": 57,
      "hit": false,
      "t": 51999.999999999985,
      "d": 800,
      "v": 70
    },
    {
      "midi": 62,
      "hit": false,
      "t": 52399.999999999985,
      "d": 718.75,
      "v": 70
    },
    {
      "midi": 66,
      "hit": false,
      "t": 52799.999999999985,
      "d": 800,
      "v": 70
    },
    {
      "midi": 57,
      "hit": false,
      "t": 53199.999999999985,
      "d": 1106.25,
      "v": 70
    },
    {
      "midi": 62,
      "hit": false,
      "t": 53599.999999999985,
      "d": 745.8333333333358,
      "v": 70
    },
    {
      "midi": 66,
      "hit": false,
      "t": 53999.999999999985,
      "d": 400,
      "v": 70
    },
    {
      "midi": 43,
      "hit": false,
      "t": 54399.999999999985,
      "d": 3200,
      "v": 71
    },
    {
      "midi": 43,
      "hit": false,
      "t": 54400,
      "d": 3200,
      "v": 70
    },
    {
      "midi": 47,
      "hit": false,
      "t": 54799.999999999985,
      "d": 800,
      "v": 71
    },
    {
      "midi": 50,
      "hit": false,
      "t": 55199.999999999985,
      "d": 800,
      "v": 71
    },
    {
      "midi": 47,
      "hit": false,
      "t": 55599.999999999985,
      "d": 800,
      "v": 68
    },
    {
      "midi": 55,
      "hit": false,
      "t": 55999.999999999985,
      "d": 800,
      "v": 71
    },
    {
      "midi": 50,
      "hit": false,
      "t": 56399.999999999985,
      "d": 800,
      "v": 69
    },
    {
      "midi": 47,
      "hit": false,
      "t": 56799.999999999985,
      "d": 800,
      "v": 71
    },
    {
      "midi": 50,
      "hit": false,
      "t": 57199.999999999985,
      "d": 400,
      "v": 71
    },
    {
      "midi": 50,
      "hit": false,
      "t": 57599.999999999985,
      "d": 800,
      "v": 71
    },
    {
      "midi": 38,
      "hit": false,
      "t": 57600,
      "d": 3200,
      "v": 70
    },
    {
      "midi": 54,
      "hit": false,
      "t": 57999.999999999985,
      "d": 800,
      "v": 71
    },
    {
      "midi": 57,
      "hit": false,
      "t": 58399.999999999985,
      "d": 1200,
      "v": 71
    },
    {
      "midi": 62,
      "hit": false,
      "t": 58799.999999999985,
      "d": 800,
      "v": 71
    },
    {
      "midi": 66,
      "hit": false,
      "t": 59199.999999999985,
      "d": 800,
      "v": 71
    },
    {
      "midi": 57,
      "hit": false,
      "t": 59599.999999999985,
      "d": 1200,
      "v": 65
    },
    {
      "midi": 62,
      "hit": false,
      "t": 59999.999999999985,
      "d": 800,
      "v": 71
    },
    {
      "midi": 66,
      "hit": false,
      "t": 60399.999999999985,
      "d": 400,
      "v": 71
    },
    {
      "midi": 52,
      "hit": false,
      "t": 60799.999999999985,
      "d": 3200,
      "v": 71
    },
    {
      "midi": 40,
      "hit": false,
      "t": 60800,
      "d": 3200,
      "v": 70
    },
    {
      "midi": 55,
      "hit": false,
      "t": 61199.999999999985,
      "d": 2800,
      "v": 65
    },
    {
      "midi": 59,
      "hit": false,
      "t": 61599.999999999985,
      "d": 1200,
      "v": 71
    },
    {
      "midi": 64,
      "hit": false,
      "t": 61999.999999999985,
      "d": 800,
      "v": 71
    },
    {
      "midi": 67,
      "hit": false,
      "t": 62399.999999999985,
      "d": 800,
      "v": 71
    },
    {
      "midi": 59,
      "hit": false,
      "t": 62799.999999999985,
      "d": 1200,
      "v": 71
    },
    {
      "midi": 64,
      "hit": false,
      "t": 63199.999999999985,
      "d": 400,
      "v": 71
    },
    {
      "midi": 67,
      "hit": false,
      "t": 63599.999999999985,
      "d": 400,
      "v": 71
    },
    {
      "midi": 47,
      "hit": false,
      "t": 63999.999999999985,
      "d": 800,
      "v": 71
    },
    {
      "midi": 35,
      "hit": false,
      "t": 64000,
      "d": 3200,
      "v": 70
    },
    {
      "midi": 50,
      "hit": false,
      "t": 64399.999999999985,
      "d": 800,
      "v": 71
    },
    {
      "midi": 54,
      "hit": false,
      "t": 64799.999999999985,
      "d": 1200,
      "v": 71
    },
    {
      "midi": 59,
      "hit": false,
      "t": 65199.999999999985,
      "d": 800,
      "v": 71
    },
    {
      "midi": 62,
      "hit": false,
      "t": 65599.99999999999,
      "d": 800,
      "v": 71
    },
    {
      "midi": 54,
      "hit": false,
      "t": 65999.99999999999,
      "d": 1200,
      "v": 65
    },
    {
      "midi": 59,
      "hit": false,
      "t": 66399.99999999999,
      "d": 800,
      "v": 71
    },
    {
      "midi": 62,
      "hit": false,
      "t": 66799.99999999999,
      "d": 400,
      "v": 71
    },
    {
      "midi": 52,
      "hit": false,
      "t": 67199.99999999999,
      "d": 800,
      "v": 71
    },
    {
      "midi": 64,
      "hit": false,
      "t": 67199.99999999999,
      "d": 1612.5,
      "v": 71
    },
    {
      "midi": 67,
      "hit": false,
      "t": 67199.99999999999,
      "d": 1612.5,
      "v": 71
    },
    {
      "midi": 40,
      "hit": false,
      "t": 67200,
      "d": 3200,
      "v": 70
    },
    {
      "midi": 59,
      "hit": false,
      "t": 67599.99999999999,
      "d": 800,
      "v": 63
    },
    {
      "midi": 55,
      "hit": false,
      "t": 67999.99999999999,
      "d": 812.5,
      "v": 71
    },
    {
      "midi": 59,
      "hit": false,
      "t": 68399.99999999999,
      "d": 800,
      "v": 71
    },
    {
      "midi": 52,
      "hit": false,
      "t": 68812.49999999999,
      "d": 787.5,
      "v": 71
    },
    {
      "midi": 64,
      "hit": false,
      "t": 68812.49999999999,
      "d": 787.5,
      "v": 71
    },
    {
      "midi": 59,
      "hit": false,
      "t": 69199.99999999999,
      "d": 800,
      "v": 71
    },
    {
      "midi": 66,
      "hit": false,
      "t": 69199.99999999999,
      "d": 800,
      "v": 71
    },
    {
      "midi": 55,
      "hit": false,
      "t": 69599.99999999999,
      "d": 800,
      "v": 71
    },
    {
      "midi": 67,
      "hit": false,
      "t": 69599.99999999999,
      "d": 800,
      "v": 71
    },
    {
      "midi": 59,
      "hit": false,
      "t": 69999.99999999999,
      "d": 400,
      "v": 71
    },
    {
      "midi": 71,
      "hit": false,
      "t": 69999.99999999999,
      "d": 400,
      "v": 71
    },
    {
      "midi": 48,
      "hit": false,
      "t": 70399.99999999999,
      "d": 800,
      "v": 71
    },
    {
      "midi": 36,
      "hit": false,
      "t": 70400,
      "d": 3200,
      "v": 70
    },
    {
      "midi": 52,
      "hit": false,
      "t": 70799.99999999999,
      "d": 800,
      "v": 71
    },
    {
      "midi": 55,
      "hit": false,
      "t": 71199.99999999999,
      "d": 1200,
      "v": 71
    },
    {
      "midi": 60,
      "hit": false,
      "t": 71599.99999999999,
      "d": 800,
      "v": 71
    },
    {
      "midi": 64,
      "hit": false,
      "t": 71999.99999999999,
      "d": 800,
      "v": 71
    },
    {
      "midi": 55,
      "hit": false,
      "t": 72399.99999999999,
      "d": 1200,
      "v": 65
    },
    {
      "midi": 60,
      "hit": false,
      "t": 72799.99999999999,
      "d": 800,
      "v": 71
    },
    {
      "midi": 64,
      "hit": false,
      "t": 73199.99999999999,
      "d": 400,
      "v": 71
    },
    {
      "midi": 45,
      "hit": false,
      "t": 73599.99999999999,
      "d": 3200,
      "v": 71
    },
    {
      "midi": 45,
      "hit": false,
      "t": 73600,
      "d": 3200,
      "v": 70
    },
    {
      "midi": 48,
      "hit": false,
      "t": 73999.99999999999,
      "d": 800,
      "v": 71
    },
    {
      "midi": 52,
      "hit": false,
      "t": 74399.99999999999,
      "d": 800,
      "v": 71
    },
    {
      "midi": 48,
      "hit": false,
      "t": 74799.99999999999,
      "d": 800,
      "v": 68
    },
    {
      "midi": 57,
      "hit": false,
      "t": 75199.99999999999,
      "d": 800,
      "v": 71
    },
    {
      "midi": 52,
      "hit": false,
      "t": 75599.99999999999,
      "d": 800,
      "v": 69
    },
    {
      "midi": 48,
      "hit": false,
      "t": 75999.99999999999,
      "d": 800,
      "v": 71
    },
    {
      "midi": 52,
      "hit": false,
      "t": 76399.99999999999,
      "d": 400,
      "v": 71
    },
    {
      "midi": 50,
      "hit": false,
      "t": 76799.99999999999,
      "d": 566.6666666666715,
      "v": 71
    },
    {
      "midi": 62,
      "hit": false,
      "t": 76799.99999999999,
      "d": 2145.8333333333285,
      "v": 71
    },
    {
      "midi": 66,
      "hit": false,
      "t": 76799.99999999999,
      "d": 2466.6666666666715,
      "v": 71
    },
    {
      "midi": 38,
      "hit": false,
      "t": 76800,
      "d": 3200,
      "v": 70
    },
    {
      "midi": 57,
      "hit": false,
      "t": 77199.99999999999,
      "d": 506.25,
      "v": 71
    },
    {
      "midi": 54,
      "hit": false,
      "t": 77599.99999999999,
      "d": 533.3333333333285,
      "v": 71
    },
    {
      "midi": 57,
      "hit": false,
      "t": 77999.99999999999,
      "d": 506.25,
      "v": 71
    },
    {
      "midi": 50,
      "hit": false,
      "t": 78399.99999999999,
      "d": 506.25,
      "v": 71
    },
    {
      "midi": 57,
      "hit": false,
      "t": 78799.99999999999,
      "d": 545.833333333343,
      "v": 71
    },
    {
      "midi": 62,
      "hit": false,
      "t": 79199.99999999999,
      "d": 306.25000000001455,
      "v": 71
    },
    {
      "midi": 54,
      "hit": false,
      "t": 79199.99999999999,
      "d": 400.00000000001455,
      "v": 71
    },
    {
      "midi": 64,
      "hit": false,
      "t": 79400,
      "d": 372.9166666666715,
      "v": 71
    },
    {
      "midi": 57,
      "hit": false,
      "t": 79600,
      "d": 400,
      "v": 68
    },
    {
      "midi": 66,
      "hit": false,
      "t": 79600,
      "d": 400,
      "v": 71
    },
    {
      "midi": 50,
      "hit": false,
      "t": 80000,
      "d": 800,
      "v": 71
    },
    {
      "midi": 62,
      "hit": false,
      "t": 80000,
      "d": 1612.5,
      "v": 71
    },
    {
      "midi": 66,
      "hit": false,
      "t": 80000,
      "d": 1612.5,
      "v": 71
    },
    {
      "midi": 38,
      "hit": false,
      "t": 80000,
      "d": 3200,
      "v": 70
    },
    {
      "midi": 57,
      "hit": false,
      "t": 80400,
      "d": 800,
      "v": 63
    },
    {
      "midi": 54,
      "hit": false,
      "t": 80800,
      "d": 812.5,
      "v": 71
    },
    {
      "midi": 57,
      "hit": false,
      "t": 81200,
      "d": 800,
      "v": 71
    },
    {
      "midi": 50,
      "hit": false,
      "t": 81612.5,
      "d": 787.5,
      "v": 71
    },
    {
      "midi": 62,
      "hit": false,
      "t": 81612.5,
      "d": 787.5,
      "v": 71
    },
    {
      "midi": 57,
      "hit": false,
      "t": 82000,
      "d": 800,
      "v": 71
    },
    {
      "midi": 64,
      "hit": false,
      "t": 82000,
      "d": 800,
      "v": 71
    },
    {
      "midi": 54,
      "hit": false,
      "t": 82400,
      "d": 800,
      "v": 71
    },
    {
      "midi": 66,
      "hit": false,
      "t": 82400,
      "d": 800,
      "v": 71
    },
    {
      "midi": 57,
      "hit": false,
      "t": 82800,
      "d": 400,
      "v": 71
    },
    {
      "midi": 69,
      "hit": false,
      "t": 82800,
      "d": 400,
      "v": 71
    },
    {
      "midi": 43,
      "hit": false,
      "t": 83200,
      "d": 566.6666666666715,
      "v": 71
    },
    {
      "midi": 55,
      "hit": false,
      "t": 83200,
      "d": 2145.8333333333285,
      "v": 71
    },
    {
      "midi": 59,
      "hit": false,
      "t": 83200,
      "d": 2466.6666666666715,
      "v": 71
    },
    {
      "midi": 43,
      "hit": false,
      "t": 83200,
      "d": 3200,
      "v": 70
    },
    {
      "midi": 50,
      "hit": false,
      "t": 83600,
      "d": 506.25,
      "v": 71
    },
    {
      "midi": 47,
      "hit": false,
      "t": 84000,
      "d": 533.3333333333285,
      "v": 71
    },
    {
      "midi": 50,
      "hit": false,
      "t": 84400,
      "d": 506.25,
      "v": 71
    },
    {
      "midi": 43,
      "hit": false,
      "t": 84800,
      "d": 506.25,
      "v": 71
    },
    {
      "midi": 50,
      "hit": false,
      "t": 85200,
      "d": 545.833333333343,
      "v": 71
    },
    {
      "midi": 55,
      "hit": false,
      "t": 85600,
      "d": 306.25000000001455,
      "v": 71
    },
    {
      "midi": 47,
      "hit": false,
      "t": 85600,
      "d": 400.00000000001455,
      "v": 71
    },
    {
      "midi": 57,
      "hit": false,
      "t": 85800.00000000001,
      "d": 372.9166666666715,
      "v": 71
    },
    {
      "midi": 50,
      "hit": false,
      "t": 86000.00000000001,
      "d": 400,
      "v": 68
    },
    {
      "midi": 59,
      "hit": false,
      "t": 86000.00000000001,
      "d": 400,
      "v": 71
    },
    {
      "midi": 40,
      "hit": false,
      "t": 86400,
      "d": 3200,
      "v": 70
    },
    {
      "midi": 52,
      "hit": false,
      "t": 86400.00000000001,
      "d": 725,
      "v": 72
    },
    {
      "midi": 67,
      "hit": false,
      "t": 86400.00000000001,
      "d": 1091.6666666666715,
      "v": 72
    },
    {
      "midi": 64,
      "hit": false,
      "t": 86400.00000000001,
      "d": 1145.833333333343,
      "v": 72
    },
    {
      "midi": 59,
      "hit": false,
      "t": 86800.00000000001,
      "d": 691.6666666666715,
      "v": 58
    },
    {
      "midi": 55,
      "hit": false,
      "t": 87200.00000000001,
      "d": 706.2500000000146,
      "v": 72
    },
    {
      "midi": 71,
      "hit": false,
      "t": 87200.00000000001,
      "d": 800.0000000000146,
      "v": 72
    },
    {
      "midi": 59,
      "hit": false,
      "t": 87600.00000000003,
      "d": 679.1666666666715,
      "v": 72
    },
    {
      "midi": 64,
      "hit": false,
      "t": 88000.00000000003,
      "d": 666.6666666666715,
      "v": 72
    },
    {
      "midi": 52,
      "hit": false,
      "t": 88000.00000000003,
      "d": 679.1666666666715,
      "v": 71
    },
    {
      "midi": 59,
      "hit": false,
      "t": 88400.00000000003,
      "d": 706.25,
      "v": 67
    },
    {
      "midi": 66,
      "hit": false,
      "t": 88400.00000000003,
      "d": 706.25,
      "v": 72
    },
    {
      "midi": 55,
      "hit": false,
      "t": 88800.00000000003,
      "d": 679.1666666666715,
      "v": 72
    },
    {
      "midi": 67,
      "hit": false,
      "t": 88800.00000000003,
      "d": 691.6666666666715,
      "v": 72
    },
    {
      "midi": 59,
      "hit": false,
      "t": 89200.00000000003,
      "d": 400,
      "v": 72
    },
    {
      "midi": 71,
      "hit": false,
      "t": 89200.00000000003,
      "d": 400,
      "v": 72
    },
    {
      "midi": 35,
      "hit": false,
      "t": 89600,
      "d": 3200,
      "v": 70
    },
    {
      "midi": 47,
      "hit": false,
      "t": 89600.00000000003,
      "d": 566.6666666666715,
      "v": 71
    },
    {
      "midi": 59,
      "hit": false,
      "t": 89600.00000000003,
      "d": 2145.8333333333285,
      "v": 71
    },
    {
      "midi": 62,
      "hit": false,
      "t": 89600.00000000003,
      "d": 2466.6666666666715,
      "v": 71
    },
    {
      "midi": 54,
      "hit": false,
      "t": 90000.00000000003,
      "d": 506.25,
      "v": 71
    },
    {
      "midi": 50,
      "hit": false,
      "t": 90400.00000000003,
      "d": 533.3333333333285,
      "v": 71
    },
    {
      "midi": 54,
      "hit": false,
      "t": 90800.00000000003,
      "d": 506.25,
      "v": 71
    },
    {
      "midi": 47,
      "hit": false,
      "t": 91200.00000000003,
      "d": 506.25,
      "v": 71
    },
    {
      "midi": 54,
      "hit": false,
      "t": 91600.00000000003,
      "d": 545.833333333343,
      "v": 71
    },
    {
      "midi": 59,
      "hit": false,
      "t": 92000.00000000003,
      "d": 306.25000000001455,
      "v": 71
    },
    {
      "midi": 50,
      "hit": false,
      "t": 92000.00000000003,
      "d": 400.00000000001455,
      "v": 71
    },
    {
      "midi": 61,
      "hit": false,
      "t": 92200.00000000004,
      "d": 372.9166666666715,
      "v": 71
    },
    {
      "midi": 54,
      "hit": false,
      "t": 92400.00000000004,
      "d": 400,
      "v": 68
    },
    {
      "midi": 62,
      "hit": false,
      "t": 92400.00000000004,
      "d": 400,
      "v": 71
    },
    {
      "midi": 36,
      "hit": false,
      "t": 92800,
      "d": 3200,
      "v": 70
    },
    {
      "midi": 48,
      "hit": false,
      "t": 92800.00000000004,
      "d": 725,
      "v": 72
    },
    {
      "midi": 64,
      "hit": false,
      "t": 92800.00000000004,
      "d": 1091.6666666666715,
      "v": 72
    },
    {
      "midi": 60,
      "hit": false,
      "t": 92800.00000000004,
      "d": 1145.833333333343,
      "v": 72
    },
    {
      "midi": 55,
      "hit": false,
      "t": 93200.00000000004,
      "d": 691.6666666666715,
      "v": 58
    },
    {
      "midi": 52,
      "hit": false,
      "t": 93600.00000000004,
      "d": 706.2500000000146,
      "v": 72
    },
    {
      "midi": 67,
      "hit": false,
      "t": 93600.00000000004,
      "d": 800.0000000000146,
      "v": 72
    },
    {
      "midi": 55,
      "hit": false,
      "t": 94000.00000000006,
      "d": 679.1666666666715,
      "v": 72
    },
    {
      "midi": 60,
      "hit": false,
      "t": 94400.00000000006,
      "d": 666.6666666666715,
      "v": 72
    },
    {
      "midi": 48,
      "hit": false,
      "t": 94400.00000000006,
      "d": 679.1666666666715,
      "v": 71
    },
    {
      "midi": 55,
      "hit": false,
      "t": 94800.00000000006,
      "d": 706.25,
      "v": 67
    },
    {
      "midi": 62,
      "hit": false,
      "t": 94800.00000000006,
      "d": 706.25,
      "v": 72
    },
    {
      "midi": 52,
      "hit": false,
      "t": 95200.00000000006,
      "d": 679.1666666666715,
      "v": 72
    },
    {
      "midi": 64,
      "hit": false,
      "t": 95200.00000000006,
      "d": 691.6666666666715,
      "v": 72
    },
    {
      "midi": 55,
      "hit": false,
      "t": 95600.00000000006,
      "d": 400,
      "v": 72
    },
    {
      "midi": 67,
      "hit": false,
      "t": 95600.00000000006,
      "d": 400,
      "v": 72
    },
    {
      "midi": 43,
      "hit": false,
      "t": 96000,
      "d": 3200,
      "v": 70
    },
    {
      "midi": 43,
      "hit": false,
      "t": 96000.00000000006,
      "d": 3200,
      "v": 71
    },
    {
      "midi": 47,
      "hit": false,
      "t": 96400.00000000006,
      "d": 2800,
      "v": 65
    },
    {
      "midi": 50,
      "hit": false,
      "t": 96800.00000000006,
      "d": 1200,
      "v": 71
    },
    {
      "midi": 55,
      "hit": false,
      "t": 97200.00000000006,
      "d": 800,
      "v": 71
    },
    {
      "midi": 59,
      "hit": false,
      "t": 97600.00000000006,
      "d": 800,
      "v": 71
    },
    {
      "midi": 50,
      "hit": false,
      "t": 98000.00000000006,
      "d": 1200,
      "v": 71
    },
    {
      "midi": 55,
      "hit": false,
      "t": 98400.00000000006,
      "d": 400,
      "v": 71
    },
    {
      "midi": 59,
      "hit": false,
      "t": 98800.00000000006,
      "d": 400,
      "v": 71
    },
    {
      "midi": 40,
      "hit": false,
      "t": 99200,
      "d": 3200,
      "v": 70
    },
    {
      "midi": 52,
      "hit": false,
      "t": 99200.00000000006,
      "d": 725,
      "v": 72
    },
    {
      "midi": 67,
      "hit": false,
      "t": 99200.00000000006,
      "d": 1091.6666666666715,
      "v": 72
    },
    {
      "midi": 64,
      "hit": false,
      "t": 99200.00000000006,
      "d": 1145.833333333343,
      "v": 72
    },
    {
      "midi": 59,
      "hit": false,
      "t": 99600.00000000006,
      "d": 691.6666666666715,
      "v": 58
    },
    {
      "midi": 55,
      "hit": false,
      "t": 100000.00000000006,
      "d": 706.2500000000146,
      "v": 72
    },
    {
      "midi": 71,
      "hit": false,
      "t": 100000.00000000006,
      "d": 800.0000000000146,
      "v": 72
    },
    {
      "midi": 59,
      "hit": false,
      "t": 100400.00000000007,
      "d": 679.1666666666715,
      "v": 72
    },
    {
      "midi": 64,
      "hit": false,
      "t": 100800.00000000007,
      "d": 666.6666666666715,
      "v": 72
    },
    {
      "midi": 52,
      "hit": false,
      "t": 100800.00000000007,
      "d": 679.1666666666715,
      "v": 71
    },
    {
      "midi": 59,
      "hit": false,
      "t": 101200.00000000007,
      "d": 706.25,
      "v": 67
    },
    {
      "midi": 66,
      "hit": false,
      "t": 101200.00000000007,
      "d": 706.25,
      "v": 72
    },
    {
      "midi": 55,
      "hit": false,
      "t": 101600.00000000007,
      "d": 679.1666666666715,
      "v": 72
    },
    {
      "midi": 67,
      "hit": false,
      "t": 101600.00000000007,
      "d": 691.6666666666715,
      "v": 72
    },
    {
      "midi": 59,
      "hit": false,
      "t": 102000.00000000007,
      "d": 400,
      "v": 72
    },
    {
      "midi": 71,
      "hit": false,
      "t": 102000.00000000007,
      "d": 400,
      "v": 72
    },
    {
      "midi": 35,
      "hit": false,
      "t": 102400,
      "d": 3200,
      "v": 70
    },
    {
      "midi": 47,
      "hit": false,
      "t": 102400.00000000007,
      "d": 566.6666666666715,
      "v": 71
    },
    {
      "midi": 59,
      "hit": false,
      "t": 102400.00000000007,
      "d": 2145.8333333333285,
      "v": 71
    },
    {
      "midi": 62,
      "hit": false,
      "t": 102400.00000000007,
      "d": 2466.6666666666715,
      "v": 71
    },
    {
      "midi": 54,
      "hit": false,
      "t": 102800.00000000007,
      "d": 506.25,
      "v": 71
    },
    {
      "midi": 50,
      "hit": false,
      "t": 103200.00000000007,
      "d": 533.3333333333285,
      "v": 71
    },
    {
      "midi": 54,
      "hit": false,
      "t": 103600.00000000007,
      "d": 506.25,
      "v": 71
    },
    {
      "midi": 47,
      "hit": false,
      "t": 104000.00000000007,
      "d": 506.25,
      "v": 71
    },
    {
      "midi": 54,
      "hit": false,
      "t": 104400.00000000007,
      "d": 545.833333333343,
      "v": 71
    },
    {
      "midi": 59,
      "hit": false,
      "t": 104800.00000000007,
      "d": 306.25000000001455,
      "v": 71
    },
    {
      "midi": 50,
      "hit": false,
      "t": 104800.00000000007,
      "d": 400.00000000001455,
      "v": 71
    },
    {
      "midi": 61,
      "hit": false,
      "t": 105000.00000000009,
      "d": 372.9166666666715,
      "v": 71
    },
    {
      "midi": 54,
      "hit": false,
      "t": 105200.00000000009,
      "d": 400,
      "v": 68
    },
    {
      "midi": 62,
      "hit": false,
      "t": 105200.00000000009,
      "d": 400,
      "v": 71
    },
    {
      "midi": 36,
      "hit": false,
      "t": 105600,
      "d": 3200,
      "v": 70
    },
    {
      "midi": 48,
      "hit": false,
      "t": 105600.00000000009,
      "d": 800,
      "v": 71
    },
    {
      "midi": 60,
      "hit": false,
      "t": 105600.00000000009,
      "d": 1612.5,
      "v": 71
    },
    {
      "midi": 64,
      "hit": false,
      "t": 105600.00000000009,
      "d": 1612.5,
      "v": 71
    },
    {
      "midi": 55,
      "hit": false,
      "t": 106000.00000000009,
      "d": 800,
      "v": 63
    },
    {
      "midi": 52,
      "hit": false,
      "t": 106400.00000000009,
      "d": 812.5,
      "v": 71
    },
    {
      "midi": 55,
      "hit": false,
      "t": 106800.00000000009,
      "d": 800,
      "v": 71
    },
    {
      "midi": 48,
      "hit": false,
      "t": 107212.50000000009,
      "d": 787.5,
      "v": 71
    },
    {
      "midi": 60,
      "hit": false,
      "t": 107212.50000000009,
      "d": 787.5,
      "v": 71
    },
    {
      "midi": 55,
      "hit": false,
      "t": 107600.00000000009,
      "d": 800,
      "v": 71
    },
    {
      "midi": 62,
      "hit": false,
      "t": 107600.00000000009,
      "d": 800,
      "v": 71
    },
    {
      "midi": 52,
      "hit": false,
      "t": 108000.00000000009,
      "d": 800,
      "v": 71
    },
    {
      "midi": 64,
      "hit": false,
      "t": 108000.00000000009,
      "d": 800,
      "v": 71
    },
    {
      "midi": 55,
      "hit": false,
      "t": 108400.00000000009,
      "d": 400,
      "v": 71
    },
    {
      "midi": 67,
      "hit": false,
      "t": 108400.00000000009,
      "d": 400,
      "v": 71
    },
    {
      "midi": 43,
      "hit": false,
      "t": 108800,
      "d": 3200,
      "v": 70
    },
    {
      "midi": 43,
      "hit": false,
      "t": 108800.00000000009,
      "d": 3200,
      "v": 71
    },
    {
      "midi": 47,
      "hit": false,
      "t": 109200.00000000009,
      "d": 2800,
      "v": 65
    },
    {
      "midi": 50,
      "hit": false,
      "t": 109600.00000000009,
      "d": 1200,
      "v": 71
    },
    {
      "midi": 55,
      "hit": false,
      "t": 110000.00000000009,
      "d": 800,
      "v": 71
    },
    {
      "midi": 59,
      "hit": false,
      "t": 110400.00000000009,
      "d": 800,
      "v": 71
    },
    {
      "midi": 50,
      "hit": false,
      "t": 110800.00000000009,
      "d": 1200,
      "v": 71
    },
    {
      "midi": 55,
      "hit": false,
      "t": 111200.00000000009,
      "d": 400,
      "v": 71
    },
    {
      "midi": 59,
      "hit": false,
      "t": 111600.00000000009,
      "d": 400,
      "v": 71
    },
    {
      "midi": 40,
      "hit": false,
      "t": 112000,
      "d": 3200,
      "v": 70
    },
    {
      "midi": 52,
      "hit": false,
      "t": 112000.00000000009,
      "d": 800,
      "v": 71
    },
    {
      "midi": 55,
      "hit": false,
      "t": 112400.00000000009,
      "d": 800,
      "v": 71
    },
    {
      "midi": 59,
      "hit": false,
      "t": 112800.00000000009,
      "d": 1200,
      "v": 71
    },
    {
      "midi": 64,
      "hit": false,
      "t": 113200.00000000009,
      "d": 800,
      "v": 71
    },
    {
      "midi": 67,
      "hit": false,
      "t": 113600.00000000009,
      "d": 800,
      "v": 71
    },
    {
      "midi": 59,
      "hit": false,
      "t": 114000.00000000009,
      "d": 1200,
      "v": 65
    },
    {
      "midi": 64,
      "hit": false,
      "t": 114400.00000000009,
      "d": 800,
      "v": 71
    },
    {
      "midi": 67,
      "hit": false,
      "t": 114800.00000000009,
      "d": 400,
      "v": 71
    },
    {
      "midi": 36,
      "hit": false,
      "t": 115200,
      "d": 3200,
      "v": 70
    },
    {
      "midi": 48,
      "hit": false,
      "t": 115200.00000000009,
      "d": 800,
      "v": 71
    },
    {
      "midi": 52,
      "hit": false,
      "t": 115600.00000000009,
      "d": 800,
      "v": 71
    },
    {
      "midi": 55,
      "hit": false,
      "t": 116000.00000000009,
      "d": 1200,
      "v": 71
    },
    {
      "midi": 60,
      "hit": false,
      "t": 116400.00000000009,
      "d": 800,
      "v": 71
    },
    {
      "midi": 64,
      "hit": false,
      "t": 116800.00000000009,
      "d": 800,
      "v": 71
    },
    {
      "midi": 55,
      "hit": false,
      "t": 117200.00000000009,
      "d": 1200,
      "v": 65
    },
    {
      "midi": 60,
      "hit": false,
      "t": 117600.00000000009,
      "d": 800,
      "v": 71
    },
    {
      "midi": 64,
      "hit": false,
      "t": 118000.00000000009,
      "d": 400,
      "v": 71
    },
    {
      "midi": 38,
      "hit": false,
      "t": 118400,
      "d": 3200,
      "v": 70
    },
    {
      "midi": 50,
      "hit": false,
      "t": 118400.00000000009,
      "d": 800,
      "v": 71
    },
    {
      "midi": 62,
      "hit": false,
      "t": 118400.00000000009,
      "d": 1612.5,
      "v": 71
    },
    {
      "midi": 66,
      "hit": false,
      "t": 118400.00000000009,
      "d": 1612.5,
      "v": 71
    },
    {
      "midi": 57,
      "hit": false,
      "t": 118800.00000000009,
      "d": 800,
      "v": 63
    },
    {
      "midi": 54,
      "hit": false,
      "t": 119200.00000000009,
      "d": 812.5,
      "v": 71
    },
    {
      "midi": 57,
      "hit": false,
      "t": 119600.00000000009,
      "d": 800,
      "v": 71
    },
    {
      "midi": 50,
      "hit": false,
      "t": 120012.50000000009,
      "d": 787.5,
      "v": 71
    },
    {
      "midi": 62,
      "hit": false,
      "t": 120012.50000000009,
      "d": 787.5,
      "v": 71
    },
    {
      "midi": 57,
      "hit": false,
      "t": 120400.00000000009,
      "d": 800,
      "v": 71
    },
    {
      "midi": 64,
      "hit": false,
      "t": 120400.00000000009,
      "d": 800,
      "v": 71
    },
    {
      "midi": 54,
      "hit": false,
      "t": 120800.00000000009,
      "d": 800,
      "v": 71
    },
    {
      "midi": 66,
      "hit": false,
      "t": 120800.00000000009,
      "d": 800,
      "v": 71
    },
    {
      "midi": 57,
      "hit": false,
      "t": 121200.00000000009,
      "d": 400,
      "v": 71
    },
    {
      "midi": 69,
      "hit": false,
      "t": 121200.00000000009,
      "d": 400,
      "v": 71
    },
    {
      "midi": 36,
      "hit": false,
      "t": 121600,
      "d": 3200,
      "v": 70
    },
    {
      "midi": 48,
      "hit": false,
      "t": 121600.00000000009,
      "d": 800,
      "v": 71
    },
    {
      "midi": 60,
      "hit": false,
      "t": 121600.00000000009,
      "d": 1612.5,
      "v": 71
    },
    {
      "midi": 64,
      "hit": false,
      "t": 121600.00000000009,
      "d": 1612.5,
      "v": 71
    },
    {
      "midi": 55,
      "hit": false,
      "t": 122000.00000000009,
      "d": 800,
      "v": 63
    },
    {
      "midi": 52,
      "hit": false,
      "t": 122400.00000000009,
      "d": 812.5,
      "v": 71
    },
    {
      "midi": 55,
      "hit": false,
      "t": 122800.00000000009,
      "d": 800,
      "v": 71
    },
    {
      "midi": 48,
      "hit": false,
      "t": 123212.50000000009,
      "d": 787.5,
      "v": 71
    },
    {
      "midi": 60,
      "hit": false,
      "t": 123212.50000000009,
      "d": 787.5,
      "v": 71
    },
    {
      "midi": 55,
      "hit": false,
      "t": 123600.00000000009,
      "d": 800,
      "v": 71
    },
    {
      "midi": 62,
      "hit": false,
      "t": 123600.00000000009,
      "d": 800,
      "v": 71
    },
    {
      "midi": 52,
      "hit": false,
      "t": 124000.00000000009,
      "d": 800,
      "v": 71
    },
    {
      "midi": 64,
      "hit": false,
      "t": 124000.00000000009,
      "d": 800,
      "v": 71
    },
    {
      "midi": 55,
      "hit": false,
      "t": 124400.00000000009,
      "d": 400,
      "v": 71
    },
    {
      "midi": 67,
      "hit": false,
      "t": 124400.00000000009,
      "d": 400,
      "v": 71
    },
    {
      "midi": 43,
      "hit": false,
      "t": 124800,
      "d": 3200,
      "v": 70
    },
    {
      "midi": 43,
      "hit": false,
      "t": 124800.00000000009,
      "d": 800,
      "v": 71
    },
    {
      "midi": 64,
      "hit": false,
      "t": 124800.00000000009,
      "d": 1612.5,
      "v": 71
    },
    {
      "midi": 67,
      "hit": false,
      "t": 124800.00000000009,
      "d": 1612.5,
      "v": 71
    },
    {
      "midi": 59,
      "hit": false,
      "t": 125200.00000000009,
      "d": 800,
      "v": 63
    },
    {
      "midi": 55,
      "hit": false,
      "t": 125600.00000000009,
      "d": 812.5,
      "v": 71
    },
    {
      "midi": 59,
      "hit": false,
      "t": 126000.00000000009,
      "d": 800,
      "v": 71
    },
    {
      "midi": 43,
      "hit": false,
      "t": 126412.50000000009,
      "d": 787.5,
      "v": 71
    },
    {
      "midi": 64,
      "hit": false,
      "t": 126412.50000000009,
      "d": 787.5,
      "v": 71
    },
    {
      "midi": 59,
      "hit": false,
      "t": 126800.00000000009,
      "d": 800,
      "v": 71
    },
    {
      "midi": 66,
      "hit": false,
      "t": 126800.00000000009,
      "d": 800,
      "v": 71
    },
    {
      "midi": 55,
      "hit": false,
      "t": 127200.00000000009,
      "d": 800,
      "v": 71
    },
    {
      "midi": 67,
      "hit": false,
      "t": 127200.00000000009,
      "d": 800,
      "v": 71
    },
    {
      "midi": 59,
      "hit": false,
      "t": 127600.00000000009,
      "d": 400,
      "v": 71
    },
    {
      "midi": 71,
      "hit": false,
      "t": 127600.00000000009,
      "d": 400,
      "v": 71
    },
    {
      "midi": 36,
      "hit": false,
      "t": 128000,
      "d": 3200,
      "v": 70
    },
    {
      "midi": 48,
      "hit": false,
      "t": 128000.00000000009,
      "d": 800,
      "v": 71
    },
    {
      "midi": 60,
      "hit": false,
      "t": 128000.00000000009,
      "d": 1612.5,
      "v": 71
    },
    {
      "midi": 64,
      "hit": false,
      "t": 128000.00000000009,
      "d": 1612.5,
      "v": 71
    },
    {
      "midi": 55,
      "hit": false,
      "t": 128400.00000000009,
      "d": 800,
      "v": 63
    },
    {
      "midi": 52,
      "hit": false,
      "t": 128800.00000000009,
      "d": 812.5,
      "v": 71
    },
    {
      "midi": 55,
      "hit": false,
      "t": 129200.00000000009,
      "d": 800,
      "v": 71
    },
    {
      "midi": 48,
      "hit": false,
      "t": 129612.50000000009,
      "d": 787.5,
      "v": 71
    },
    {
      "midi": 60,
      "hit": false,
      "t": 129612.50000000009,
      "d": 787.5,
      "v": 71
    },
    {
      "midi": 55,
      "hit": false,
      "t": 130000.00000000009,
      "d": 800,
      "v": 71
    },
    {
      "midi": 62,
      "hit": false,
      "t": 130000.00000000009,
      "d": 800,
      "v": 71
    },
    {
      "midi": 52,
      "hit": false,
      "t": 130400.00000000009,
      "d": 800,
      "v": 71
    },
    {
      "midi": 64,
      "hit": false,
      "t": 130400.00000000009,
      "d": 800,
      "v": 71
    },
    {
      "midi": 55,
      "hit": false,
      "t": 130800.00000000009,
      "d": 400,
      "v": 71
    },
    {
      "midi": 67,
      "hit": false,
      "t": 130800.00000000009,
      "d": 400,
      "v": 71
    },
    {
      "midi": 38,
      "hit": false,
      "t": 131200,
      "d": 3200,
      "v": 70
    },
    {
      "midi": 50,
      "hit": false,
      "t": 131200.0000000001,
      "d": 566.666666666657,
      "v": 71
    },
    {
      "midi": 62,
      "hit": false,
      "t": 131200.0000000001,
      "d": 2145.833333333343,
      "v": 71
    },
    {
      "midi": 66,
      "hit": false,
      "t": 131200.0000000001,
      "d": 2466.666666666657,
      "v": 71
    },
    {
      "midi": 57,
      "hit": false,
      "t": 131600.0000000001,
      "d": 506.25,
      "v": 71
    },
    {
      "midi": 54,
      "hit": false,
      "t": 132000.0000000001,
      "d": 533.333333333343,
      "v": 71
    },
    {
      "midi": 57,
      "hit": false,
      "t": 132400.0000000001,
      "d": 506.25,
      "v": 71
    },
    {
      "midi": 50,
      "hit": false,
      "t": 132800.0000000001,
      "d": 506.25,
      "v": 71
    },
    {
      "midi": 57,
      "hit": false,
      "t": 133200.0000000001,
      "d": 545.8333333333139,
      "v": 71
    },
    {
      "midi": 62,
      "hit": false,
      "t": 133600.0000000001,
      "d": 306.2499999999709,
      "v": 71
    },
    {
      "midi": 54,
      "hit": false,
      "t": 133600.0000000001,
      "d": 399.9999999999709,
      "v": 71
    },
    {
      "midi": 64,
      "hit": false,
      "t": 133800.00000000006,
      "d": 372.91666666665697,
      "v": 71
    },
    {
      "midi": 57,
      "hit": false,
      "t": 134000.00000000006,
      "d": 400,
      "v": 68
    },
    {
      "midi": 66,
      "hit": false,
      "t": 134000.00000000006,
      "d": 400,
      "v": 71
    },
    {
      "midi": 43,
      "hit": false,
      "t": 134400,
      "d": 3200,
      "v": 70
    },
    {
      "midi": 43,
      "hit": false,
      "t": 134400.00000000006,
      "d": 566.666666666657,
      "v": 71
    },
    {
      "midi": 55,
      "hit": false,
      "t": 134400.00000000006,
      "d": 2145.833333333343,
      "v": 71
    },
    {
      "midi": 59,
      "hit": false,
      "t": 134400.00000000006,
      "d": 2466.666666666657,
      "v": 71
    },
    {
      "midi": 50,
      "hit": false,
      "t": 134800.00000000006,
      "d": 506.25,
      "v": 71
    },
    {
      "midi": 47,
      "hit": false,
      "t": 135200.00000000006,
      "d": 533.333333333343,
      "v": 71
    },
    {
      "midi": 50,
      "hit": false,
      "t": 135600.00000000006,
      "d": 506.25,
      "v": 71
    },
    {
      "midi": 43,
      "hit": false,
      "t": 136000.00000000006,
      "d": 506.25,
      "v": 71
    },
    {
      "midi": 50,
      "hit": false,
      "t": 136400.00000000006,
      "d": 545.8333333333139,
      "v": 71
    },
    {
      "midi": 55,
      "hit": false,
      "t": 136800.00000000006,
      "d": 306.2499999999709,
      "v": 71
    },
    {
      "midi": 47,
      "hit": false,
      "t": 136800.00000000006,
      "d": 399.9999999999709,
      "v": 71
    },
    {
      "midi": 57,
      "hit": false,
      "t": 137000.00000000003,
      "d": 372.91666666665697,
      "v": 71
    },
    {
      "midi": 50,
      "hit": false,
      "t": 137200.00000000003,
      "d": 400,
      "v": 68
    },
    {
      "midi": 59,
      "hit": false,
      "t": 137200.00000000003,
      "d": 400,
      "v": 71
    },
    {
      "midi": 43,
      "hit": false,
      "t": 137600,
      "d": 3200,
      "v": 70
    },
    {
      "midi": 43,
      "hit": false,
      "t": 137600.00000000003,
      "d": 800,
      "v": 71
    },
    {
      "midi": 55,
      "hit": false,
      "t": 138000.00000000003,
      "d": 800,
      "v": 71
    },
    {
      "midi": 59,
      "hit": false,
      "t": 138400.00000000003,
      "d": 1200,
      "v": 71
    },
    {
      "midi": 64,
      "hit": false,
      "t": 138800.00000000003,
      "d": 800,
      "v": 71
    },
    {
      "midi": 67,
      "hit": false,
      "t": 139200.00000000003,
      "d": 800,
      "v": 71
    },
    {
      "midi": 59,
      "hit": false,
      "t": 139600.00000000003,
      "d": 1200,
      "v": 65
    },
    {
      "midi": 64,
      "hit": false,
      "t": 140000.00000000003,
      "d": 800,
      "v": 71
    },
    {
      "midi": 67,
      "hit": false,
      "t": 140400.00000000003,
      "d": 400,
      "v": 71
    },
    {
      "midi": 35,
      "hit": false,
      "t": 140800,
      "d": 3200,
      "v": 70
    },
    {
      "midi": 47,
      "hit": false,
      "t": 140800.00000000003,
      "d": 800,
      "v": 71
    },
    {
      "midi": 50,
      "hit": false,
      "t": 141200.00000000003,
      "d": 800,
      "v": 71
    },
    {
      "midi": 54,
      "hit": false,
      "t": 141600.00000000003,
      "d": 1200,
      "v": 71
    },
    {
      "midi": 59,
      "hit": false,
      "t": 142000.00000000003,
      "d": 800,
      "v": 71
    },
    {
      "midi": 62,
      "hit": false,
      "t": 142400.00000000003,
      "d": 800,
      "v": 71
    },
    {
      "midi": 54,
      "hit": false,
      "t": 142800.00000000003,
      "d": 1200,
      "v": 65
    },
    {
      "midi": 59,
      "hit": false,
      "t": 143200.00000000003,
      "d": 800,
      "v": 71
    },
    {
      "midi": 62,
      "hit": false,
      "t": 143600.00000000003,
      "d": 400,
      "v": 71
    },
    {
      "midi": 36,
      "hit": false,
      "t": 144000,
      "d": 3200,
      "v": 70
    },
    {
      "midi": 48,
      "hit": false,
      "t": 144000.00000000003,
      "d": 800,
      "v": 71
    },
    {
      "midi": 52,
      "hit": false,
      "t": 144400.00000000003,
      "d": 800,
      "v": 71
    },
    {
      "midi": 55,
      "hit": false,
      "t": 144800.00000000003,
      "d": 1200,
      "v": 71
    },
    {
      "midi": 60,
      "hit": false,
      "t": 145200.00000000003,
      "d": 800,
      "v": 71
    },
    {
      "midi": 64,
      "hit": false,
      "t": 145600.00000000003,
      "d": 800,
      "v": 71
    },
    {
      "midi": 55,
      "hit": false,
      "t": 146000.00000000003,
      "d": 1200,
      "v": 65
    },
    {
      "midi": 60,
      "hit": false,
      "t": 146400.00000000003,
      "d": 800,
      "v": 71
    },
    {
      "midi": 64,
      "hit": false,
      "t": 146800.00000000003,
      "d": 400,
      "v": 71
    },
    {
      "midi": 43,
      "hit": false,
      "t": 147200,
      "d": 3200,
      "v": 70
    },
    {
      "midi": 43,
      "hit": false,
      "t": 147200.00000000003,
      "d": 800,
      "v": 71
    },
    {
      "midi": 55,
      "hit": false,
      "t": 147200.00000000003,
      "d": 1612.5,
      "v": 71
    },
    {
      "midi": 59,
      "hit": false,
      "t": 147200.00000000003,
      "d": 1612.5,
      "v": 71
    },
    {
      "midi": 50,
      "hit": false,
      "t": 147600.00000000003,
      "d": 800,
      "v": 63
    },
    {
      "midi": 47,
      "hit": false,
      "t": 148000.00000000003,
      "d": 812.5,
      "v": 71
    },
    {
      "midi": 50,
      "hit": false,
      "t": 148400.00000000003,
      "d": 800,
      "v": 71
    },
    {
      "midi": 43,
      "hit": false,
      "t": 148812.50000000003,
      "d": 787.5,
      "v": 71
    },
    {
      "midi": 55,
      "hit": false,
      "t": 148812.50000000003,
      "d": 787.5,
      "v": 71
    },
    {
      "midi": 50,
      "hit": false,
      "t": 149200.00000000003,
      "d": 800,
      "v": 71
    },
    {
      "midi": 57,
      "hit": false,
      "t": 149200.00000000003,
      "d": 800,
      "v": 71
    },
    {
      "midi": 47,
      "hit": false,
      "t": 149600.00000000003,
      "d": 800,
      "v": 71
    },
    {
      "midi": 59,
      "hit": false,
      "t": 149600.00000000003,
      "d": 800,
      "v": 71
    },
    {
      "midi": 50,
      "hit": false,
      "t": 150000.00000000003,
      "d": 400,
      "v": 71
    },
    {
      "midi": 62,
      "hit": false,
      "t": 150000.00000000003,
      "d": 400,
      "v": 71
    },
    {
      "midi": 38,
      "hit": false,
      "t": 150400,
      "d": 3200,
      "v": 70
    },
    {
      "midi": 50,
      "hit": false,
      "t": 150400.00000000003,
      "d": 566.666666666657,
      "v": 71
    },
    {
      "midi": 62,
      "hit": false,
      "t": 150400.00000000003,
      "d": 2145.833333333343,
      "v": 71
    },
    {
      "midi": 66,
      "hit": false,
      "t": 150400.00000000003,
      "d": 2466.666666666657,
      "v": 71
    },
    {
      "midi": 57,
      "hit": false,
      "t": 150800.00000000003,
      "d": 506.25,
      "v": 71
    },
    {
      "midi": 54,
      "hit": false,
      "t": 151200.00000000003,
      "d": 533.333333333343,
      "v": 71
    },
    {
      "midi": 57,
      "hit": false,
      "t": 151600.00000000003,
      "d": 506.25,
      "v": 71
    },
    {
      "midi": 50,
      "hit": false,
      "t": 152000.00000000003,
      "d": 506.25,
      "v": 71
    },
    {
      "midi": 57,
      "hit": false,
      "t": 152400.00000000003,
      "d": 545.8333333333139,
      "v": 71
    },
    {
      "midi": 62,
      "hit": false,
      "t": 152800.00000000003,
      "d": 306.2499999999709,
      "v": 71
    },
    {
      "midi": 54,
      "hit": false,
      "t": 152800.00000000003,
      "d": 399.9999999999709,
      "v": 71
    },
    {
      "midi": 64,
      "hit": false,
      "t": 153000,
      "d": 372.91666666665697,
      "v": 71
    },
    {
      "midi": 57,
      "hit": false,
      "t": 153200,
      "d": 400,
      "v": 68
    },
    {
      "midi": 66,
      "hit": false,
      "t": 153200,
      "d": 400,
      "v": 71
    },
    {
      "midi": 52,
      "hit": false,
      "t": 153600,
      "d": 566.666666666657,
      "v": 71
    },
    {
      "midi": 64,
      "hit": false,
      "t": 153600,
      "d": 2145.833333333343,
      "v": 71
    },
    {
      "midi": 67,
      "hit": false,
      "t": 153600,
      "d": 2466.666666666657,
      "v": 71
    },
    {
      "midi": 40,
      "hit": false,
      "t": 153600,
      "d": 3200,
      "v": 70
    },
    {
      "midi": 59,
      "hit": false,
      "t": 154000,
      "d": 506.25,
      "v": 71
    },
    {
      "midi": 55,
      "hit": false,
      "t": 154400,
      "d": 533.333333333343,
      "v": 71
    },
    {
      "midi": 59,
      "hit": false,
      "t": 154800,
      "d": 506.25,
      "v": 71
    },
    {
      "midi": 52,
      "hit": false,
      "t": 155200,
      "d": 506.25,
      "v": 71
    },
    {
      "midi": 59,
      "hit": false,
      "t": 155600,
      "d": 545.8333333333139,
      "v": 71
    },
    {
      "midi": 64,
      "hit": false,
      "t": 156000,
      "d": 306.2499999999709,
      "v": 71
    },
    {
      "midi": 55,
      "hit": false,
      "t": 156000,
      "d": 399.9999999999709,
      "v": 71
    },
    {
      "midi": 66,
      "hit": false,
      "t": 156199.99999999997,
      "d": 372.91666666665697,
      "v": 71
    },
    {
      "midi": 59,
      "hit": false,
      "t": 156399.99999999997,
      "d": 400,
      "v": 68
    },
    {
      "midi": 67,
      "hit": false,
      "t": 156399.99999999997,
      "d": 400,
      "v": 71
    },
    {
      "midi": 47,
      "hit": false,
      "t": 156799.99999999997,
      "d": 725,
      "v": 72
    },
    {
      "midi": 62,
      "hit": false,
      "t": 156799.99999999997,
      "d": 1091.666666666657,
      "v": 72
    },
    {
      "midi": 59,
      "hit": false,
      "t": 156799.99999999997,
      "d": 1145.833333333314,
      "v": 72
    },
    {
      "midi": 35,
      "hit": false,
      "t": 156800,
      "d": 3200,
      "v": 70
    },
    {
      "midi": 54,
      "hit": false,
      "t": 157199.99999999997,
      "d": 691.666666666657,
      "v": 58
    },
    {
      "midi": 50,
      "hit": false,
      "t": 157599.99999999997,
      "d": 706.2499999999709,
      "v": 72
    },
    {
      "midi": 66,
      "hit": false,
      "t": 157599.99999999997,
      "d": 799.9999999999709,
      "v": 72
    },
    {
      "midi": 54,
      "hit": false,
      "t": 157999.99999999994,
      "d": 679.166666666657,
      "v": 72
    },
    {
      "midi": 59,
      "hit": false,
      "t": 158399.99999999994,
      "d": 666.666666666657,
      "v": 72
    },
    {
      "midi": 47,
      "hit": false,
      "t": 158399.99999999994,
      "d": 679.166666666657,
      "v": 71
    },
    {
      "midi": 54,
      "hit": false,
      "t": 158799.99999999994,
      "d": 706.25,
      "v": 67
    },
    {
      "midi": 61,
      "hit": false,
      "t": 158799.99999999994,
      "d": 706.25,
      "v": 72
    },
    {
      "midi": 50,
      "hit": false,
      "t": 159199.99999999994,
      "d": 679.166666666657,
      "v": 72
    },
    {
      "midi": 62,
      "hit": false,
      "t": 159199.99999999994,
      "d": 691.666666666657,
      "v": 72
    },
    {
      "midi": 54,
      "hit": false,
      "t": 159599.99999999994,
      "d": 400,
      "v": 72
    },
    {
      "midi": 66,
      "hit": false,
      "t": 159599.99999999994,
      "d": 400,
      "v": 72
    },
    {
      "midi": 52,
      "hit": false,
      "t": 159999.99999999994,
      "d": 3200,
      "v": 71
    },
    {
      "midi": 40,
      "hit": false,
      "t": 160000,
      "d": 3200,
      "v": 70
    },
    {
      "midi": 55,
      "hit": false,
      "t": 160399.99999999994,
      "d": 800,
      "v": 71
    },
    {
      "midi": 59,
      "hit": false,
      "t": 160799.99999999994,
      "d": 800,
      "v": 71
    },
    {
      "midi": 55,
      "hit": false,
      "t": 161199.99999999994,
      "d": 800,
      "v": 68
    },
    {
      "midi": 64,
      "hit": false,
      "t": 161599.99999999994,
      "d": 800,
      "v": 71
    },
    {
      "midi": 59,
      "hit": false,
      "t": 161999.99999999994,
      "d": 800,
      "v": 69
    },
    {
      "midi": 55,
      "hit": false,
      "t": 162399.99999999994,
      "d": 800,
      "v": 71
    },
    {
      "midi": 59,
      "hit": false,
      "t": 162799.99999999994,
      "d": 400,
      "v": 71
    },
    {
      "midi": 48,
      "hit": false,
      "t": 163199.99999999994,
      "d": 725,
      "v": 72
    },
    {
      "midi": 64,
      "hit": false,
      "t": 163199.99999999994,
      "d": 1091.666666666657,
      "v": 72
    },
    {
      "midi": 60,
      "hit": false,
      "t": 163199.99999999994,
      "d": 1145.833333333314,
      "v": 72
    },
    {
      "midi": 36,
      "hit": false,
      "t": 163200,
      "d": 3200,
      "v": 70
    },
    {
      "midi": 55,
      "hit": false,
      "t": 163599.99999999994,
      "d": 691.666666666657,
      "v": 58
    },
    {
      "midi": 52,
      "hit": false,
      "t": 163999.99999999994,
      "d": 706.2499999999709,
      "v": 72
    },
    {
      "midi": 67,
      "hit": false,
      "t": 163999.99999999994,
      "d": 799.9999999999709,
      "v": 72
    },
    {
      "midi": 55,
      "hit": false,
      "t": 164399.9999999999,
      "d": 679.166666666657,
      "v": 72
    },
    {
      "midi": 60,
      "hit": false,
      "t": 164799.9999999999,
      "d": 666.666666666657,
      "v": 72
    },
    {
      "midi": 48,
      "hit": false,
      "t": 164799.9999999999,
      "d": 679.166666666657,
      "v": 71
    },
    {
      "midi": 55,
      "hit": false,
      "t": 165199.9999999999,
      "d": 706.25,
      "v": 67
    },
    {
      "midi": 62,
      "hit": false,
      "t": 165199.9999999999,
      "d": 706.25,
      "v": 72
    },
    {
      "midi": 52,
      "hit": false,
      "t": 165599.9999999999,
      "d": 679.166666666657,
      "v": 72
    },
    {
      "midi": 64,
      "hit": false,
      "t": 165599.9999999999,
      "d": 691.666666666657,
      "v": 72
    },
    {
      "midi": 55,
      "hit": false,
      "t": 165999.9999999999,
      "d": 400,
      "v": 72
    },
    {
      "midi": 67,
      "hit": false,
      "t": 165999.9999999999,
      "d": 400,
      "v": 72
    },
    {
      "midi": 45,
      "hit": false,
      "t": 166399.9999999999,
      "d": 566.666666666657,
      "v": 71
    },
    {
      "midi": 57,
      "hit": false,
      "t": 166399.9999999999,
      "d": 2145.833333333343,
      "v": 71
    },
    {
      "midi": 60,
      "hit": false,
      "t": 166399.9999999999,
      "d": 2466.666666666657,
      "v": 71
    },
    {
      "midi": 45,
      "hit": false,
      "t": 166400,
      "d": 3200,
      "v": 70
    },
    {
      "midi": 52,
      "hit": false,
      "t": 166799.9999999999,
      "d": 506.25,
      "v": 71
    },
    {
      "midi": 48,
      "hit": false,
      "t": 167199.9999999999,
      "d": 533.333333333343,
      "v": 71
    },
    {
      "midi": 52,
      "hit": false,
      "t": 167599.9999999999,
      "d": 506.25,
      "v": 71
    },
    {
      "midi": 45,
      "hit": false,
      "t": 167999.9999999999,
      "d": 506.25,
      "v": 71
    },
    {
      "midi": 52,
      "hit": false,
      "t": 168399.9999999999,
      "d": 545.8333333333139,
      "v": 71
    },
    {
      "midi": 57,
      "hit": false,
      "t": 168799.9999999999,
      "d": 306.2499999999709,
      "v": 71
    },
    {
      "midi": 48,
      "hit": false,
      "t": 168799.9999999999,
      "d": 399.9999999999709,
      "v": 71
    },
    {
      "midi": 59,
      "hit": false,
      "t": 168999.99999999988,
      "d": 372.91666666665697,
      "v": 71
    },
    {
      "midi": 52,
      "hit": false,
      "t": 169199.99999999988,
      "d": 400,
      "v": 68
    },
    {
      "midi": 60,
      "hit": false,
      "t": 169199.99999999988,
      "d": 400,
      "v": 71
    },
    {
      "midi": 50,
      "hit": false,
      "t": 169599.99999999988,
      "d": 3200,
      "v": 71
    },
    {
      "midi": 38,
      "hit": false,
      "t": 169600,
      "d": 3200,
      "v": 70
    },
    {
      "midi": 54,
      "hit": false,
      "t": 169999.99999999988,
      "d": 800,
      "v": 71
    },
    {
      "midi": 57,
      "hit": false,
      "t": 170399.99999999988,
      "d": 800,
      "v": 71
    },
    {
      "midi": 54,
      "hit": false,
      "t": 170799.99999999988,
      "d": 800,
      "v": 68
    },
    {
      "midi": 62,
      "hit": false,
      "t": 171199.99999999988,
      "d": 800,
      "v": 71
    },
    {
      "midi": 57,
      "hit": false,
      "t": 171599.99999999988,
      "d": 800,
      "v": 69
    },
    {
      "midi": 54,
      "hit": false,
      "t": 171999.99999999988,
      "d": 800,
      "v": 71
    },
    {
      "midi": 57,
      "hit": false,
      "t": 172399.99999999988,
      "d": 400,
      "v": 71
    },
    {
      "midi": 43,
      "hit": false,
      "t": 172799.99999999988,
      "d": 800,
      "v": 71
    },
    {
      "midi": 55,
      "hit": false,
      "t": 172799.99999999988,
      "d": 1612.5,
      "v": 71
    },
    {
      "midi": 59,
      "hit": false,
      "t": 172799.99999999988,
      "d": 1612.5,
      "v": 71
    },
    {
      "midi": 43,
      "hit": false,
      "t": 172800,
      "d": 3200,
      "v": 70
    },
    {
      "midi": 50,
      "hit": false,
      "t": 173199.99999999988,
      "d": 800,
      "v": 63
    },
    {
      "midi": 47,
      "hit": false,
      "t": 173599.99999999988,
      "d": 812.5,
      "v": 71
    },
    {
      "midi": 50,
      "hit": false,
      "t": 173999.99999999988,
      "d": 800,
      "v": 71
    },
    {
      "midi": 43,
      "hit": false,
      "t": 174412.49999999988,
      "d": 787.5,
      "v": 71
    },
    {
      "midi": 55,
      "hit": false,
      "t": 174412.49999999988,
      "d": 787.5,
      "v": 71
    },
    {
      "midi": 50,
      "hit": false,
      "t": 174799.99999999988,
      "d": 800,
      "v": 71
    },
    {
      "midi": 57,
      "hit": false,
      "t": 174799.99999999988,
      "d": 800,
      "v": 71
    },
    {
      "midi": 47,
      "hit": false,
      "t": 175199.99999999988,
      "d": 800,
      "v": 71
    },
    {
      "midi": 59,
      "hit": false,
      "t": 175199.99999999988,
      "d": 800,
      "v": 71
    },
    {
      "midi": 50,
      "hit": false,
      "t": 175599.99999999988,
      "d": 400,
      "v": 71
    },
    {
      "midi": 62,
      "hit": false,
      "t": 175599.99999999988,
      "d": 400,
      "v": 71
    },
    {
      "midi": 52,
      "hit": false,
      "t": 175999.99999999988,
      "d": 725,
      "v": 72
    },
    {
      "midi": 67,
      "hit": false,
      "t": 175999.99999999988,
      "d": 1091.666666666657,
      "v": 72
    },
    {
      "midi": 64,
      "hit": false,
      "t": 175999.99999999988,
      "d": 1145.833333333314,
      "v": 72
    },
    {
      "midi": 40,
      "hit": false,
      "t": 176000,
      "d": 3200,
      "v": 70
    },
    {
      "midi": 59,
      "hit": false,
      "t": 176399.99999999988,
      "d": 691.666666666657,
      "v": 58
    },
    {
      "midi": 55,
      "hit": false,
      "t": 176799.99999999988,
      "d": 706.2499999999709,
      "v": 72
    },
    {
      "midi": 71,
      "hit": false,
      "t": 176799.99999999988,
      "d": 799.9999999999709,
      "v": 72
    },
    {
      "midi": 59,
      "hit": false,
      "t": 177199.99999999985,
      "d": 679.166666666657,
      "v": 72
    },
    {
      "midi": 64,
      "hit": false,
      "t": 177599.99999999985,
      "d": 666.666666666657,
      "v": 72
    },
    {
      "midi": 52,
      "hit": false,
      "t": 177599.99999999985,
      "d": 679.166666666657,
      "v": 71
    },
    {
      "midi": 59,
      "hit": false,
      "t": 177999.99999999985,
      "d": 706.25,
      "v": 67
    },
    {
      "midi": 66,
      "hit": false,
      "t": 177999.99999999985,
      "d": 706.25,
      "v": 72
    },
    {
      "midi": 55,
      "hit": false,
      "t": 178399.99999999985,
      "d": 679.166666666657,
      "v": 72
    },
    {
      "midi": 67,
      "hit": false,
      "t": 178399.99999999985,
      "d": 691.666666666657,
      "v": 72
    },
    {
      "midi": 59,
      "hit": false,
      "t": 178799.99999999985,
      "d": 400,
      "v": 72
    },
    {
      "midi": 71,
      "hit": false,
      "t": 178799.99999999985,
      "d": 400,
      "v": 72
    },
    {
      "midi": 47,
      "hit": false,
      "t": 179199.99999999985,
      "d": 800,
      "v": 71
    },
    {
      "midi": 35,
      "hit": false,
      "t": 179200,
      "d": 3200,
      "v": 70
    },
    {
      "midi": 50,
      "hit": false,
      "t": 179599.99999999985,
      "d": 800,
      "v": 71
    },
    {
      "midi": 54,
      "hit": false,
      "t": 179999.99999999985,
      "d": 1200,
      "v": 71
    },
    {
      "midi": 59,
      "hit": false,
      "t": 180399.99999999985,
      "d": 800,
      "v": 71
    },
    {
      "midi": 62,
      "hit": false,
      "t": 180799.99999999985,
      "d": 800,
      "v": 71
    },
    {
      "midi": 54,
      "hit": false,
      "t": 181199.99999999985,
      "d": 1200,
      "v": 65
    },
    {
      "midi": 59,
      "hit": false,
      "t": 181599.99999999985,
      "d": 800,
      "v": 71
    },
    {
      "midi": 62,
      "hit": false,
      "t": 181999.99999999985,
      "d": 400,
      "v": 71
    },
    {
      "midi": 48,
      "hit": false,
      "t": 182399.99999999985,
      "d": 566.666666666657,
      "v": 71
    },
    {
      "midi": 60,
      "hit": false,
      "t": 182399.99999999985,
      "d": 2145.833333333343,
      "v": 71
    },
    {
      "midi": 64,
      "hit": false,
      "t": 182399.99999999985,
      "d": 2466.666666666657,
      "v": 71
    },
    {
      "midi": 36,
      "hit": false,
      "t": 182400,
      "d": 3200,
      "v": 70
    },
    {
      "midi": 55,
      "hit": false,
      "t": 182799.99999999985,
      "d": 506.25,
      "v": 71
    },
    {
      "midi": 52,
      "hit": false,
      "t": 183199.99999999985,
      "d": 533.333333333343,
      "v": 71
    },
    {
      "midi": 55,
      "hit": false,
      "t": 183599.99999999985,
      "d": 506.25,
      "v": 71
    },
    {
      "midi": 48,
      "hit": false,
      "t": 183999.99999999985,
      "d": 506.25,
      "v": 71
    },
    {
      "midi": 55,
      "hit": false,
      "t": 184399.99999999985,
      "d": 545.8333333333139,
      "v": 71
    },
    {
      "midi": 60,
      "hit": false,
      "t": 184799.99999999985,
      "d": 306.2499999999709,
      "v": 71
    },
    {
      "midi": 52,
      "hit": false,
      "t": 184799.99999999985,
      "d": 399.9999999999709,
      "v": 71
    },
    {
      "midi": 62,
      "hit": false,
      "t": 184999.99999999983,
      "d": 372.91666666665697,
      "v": 71
    },
    {
      "midi": 55,
      "hit": false,
      "t": 185199.99999999983,
      "d": 400,
      "v": 68
    },
    {
      "midi": 64,
      "hit": false,
      "t": 185199.99999999983,
      "d": 400,
      "v": 71
    },
    {
      "midi": 43,
      "hit": false,
      "t": 185599.99999999983,
      "d": 725,
      "v": 72
    },
    {
      "midi": 59,
      "hit": false,
      "t": 185599.99999999983,
      "d": 1091.666666666657,
      "v": 72
    },
    {
      "midi": 55,
      "hit": false,
      "t": 185599.99999999983,
      "d": 1145.833333333314,
      "v": 72
    },
    {
      "midi": 43,
      "hit": false,
      "t": 185600,
      "d": 3200,
      "v": 70
    },
    {
      "midi": 50,
      "hit": false,
      "t": 185999.99999999983,
      "d": 691.666666666657,
      "v": 58
    },
    {
      "midi": 47,
      "hit": false,
      "t": 186399.99999999983,
      "d": 706.2499999999709,
      "v": 72
    },
    {
      "midi": 62,
      "hit": false,
      "t": 186399.99999999983,
      "d": 799.9999999999709,
      "v": 72
    },
    {
      "midi": 50,
      "hit": false,
      "t": 186799.9999999998,
      "d": 679.166666666657,
      "v": 72
    },
    {
      "midi": 55,
      "hit": false,
      "t": 187199.9999999998,
      "d": 666.666666666657,
      "v": 72
    },
    {
      "midi": 43,
      "hit": false,
      "t": 187199.9999999998,
      "d": 679.166666666657,
      "v": 71
    },
    {
      "midi": 50,
      "hit": false,
      "t": 187599.9999999998,
      "d": 706.25,
      "v": 67
    },
    {
      "midi": 57,
      "hit": false,
      "t": 187599.9999999998,
      "d": 706.25,
      "v": 72
    },
    {
      "midi": 47,
      "hit": false,
      "t": 187999.9999999998,
      "d": 679.166666666657,
      "v": 72
    },
    {
      "midi": 59,
      "hit": false,
      "t": 187999.9999999998,
      "d": 691.666666666657,
      "v": 72
    },
    {
      "midi": 50,
      "hit": false,
      "t": 188399.9999999998,
      "d": 400,
      "v": 72
    },
    {
      "midi": 62,
      "hit": false,
      "t": 188399.9999999998,
      "d": 400,
      "v": 72
    },
    {
      "midi": 52,
      "hit": false,
      "t": 188799.9999999998,
      "d": 3200,
      "v": 71
    },
    {
      "midi": 40,
      "hit": false,
      "t": 188800,
      "d": 3200,
      "v": 70
    },
    {
      "midi": 55,
      "hit": false,
      "t": 189199.9999999998,
      "d": 800,
      "v": 71
    },
    {
      "midi": 59,
      "hit": false,
      "t": 189599.9999999998,
      "d": 800,
      "v": 71
    },
    {
      "midi": 55,
      "hit": false,
      "t": 189999.9999999998,
      "d": 800,
      "v": 68
    },
    {
      "midi": 64,
      "hit": false,
      "t": 190399.9999999998,
      "d": 800,
      "v": 71
    },
    {
      "midi": 59,
      "hit": false,
      "t": 190799.9999999998,
      "d": 800,
      "v": 69
    },
    {
      "midi": 55,
      "hit": false,
      "t": 191199.9999999998,
      "d": 800,
      "v": 71
    },
    {
      "midi": 59,
      "hit": false,
      "t": 191599.9999999998,
      "d": 400,
      "v": 71
    },
    {
      "midi": 47,
      "hit": false,
      "t": 191999.9999999998,
      "d": 725,
      "v": 72
    },
    {
      "midi": 62,
      "hit": false,
      "t": 191999.9999999998,
      "d": 1091.666666666657,
      "v": 72
    },
    {
      "midi": 59,
      "hit": false,
      "t": 191999.9999999998,
      "d": 1145.833333333314,
      "v": 72
    },
    {
      "midi": 35,
      "hit": false,
      "t": 192000,
      "d": 3200,
      "v": 70
    },
    {
      "midi": 54,
      "hit": false,
      "t": 192399.9999999998,
      "d": 691.666666666657,
      "v": 58
    },
    {
      "midi": 50,
      "hit": false,
      "t": 192799.9999999998,
      "d": 706.2499999999709,
      "v": 72
    },
    {
      "midi": 66,
      "hit": false,
      "t": 192799.9999999998,
      "d": 799.9999999999709,
      "v": 72
    },
    {
      "midi": 54,
      "hit": false,
      "t": 193199.99999999977,
      "d": 679.166666666657,
      "v": 72
    },
    {
      "midi": 59,
      "hit": false,
      "t": 193599.99999999977,
      "d": 666.666666666657,
      "v": 72
    },
    {
      "midi": 47,
      "hit": false,
      "t": 193599.99999999977,
      "d": 679.166666666657,
      "v": 71
    },
    {
      "midi": 54,
      "hit": false,
      "t": 193999.99999999977,
      "d": 706.25,
      "v": 67
    },
    {
      "midi": 61,
      "hit": false,
      "t": 193999.99999999977,
      "d": 706.25,
      "v": 72
    },
    {
      "midi": 50,
      "hit": false,
      "t": 194399.99999999977,
      "d": 679.166666666657,
      "v": 72
    },
    {
      "midi": 62,
      "hit": false,
      "t": 194399.99999999977,
      "d": 691.666666666657,
      "v": 72
    },
    {
      "midi": 54,
      "hit": false,
      "t": 194799.99999999977,
      "d": 400,
      "v": 72
    },
    {
      "midi": 66,
      "hit": false,
      "t": 194799.99999999977,
      "d": 400,
      "v": 72
    },
    {
      "midi": 48,
      "hit": false,
      "t": 195199.99999999977,
      "d": 566.666666666657,
      "v": 71
    },
    {
      "midi": 60,
      "hit": false,
      "t": 195199.99999999977,
      "d": 2145.833333333343,
      "v": 71
    },
    {
      "midi": 64,
      "hit": false,
      "t": 195199.99999999977,
      "d": 2466.666666666657,
      "v": 71
    },
    {
      "midi": 36,
      "hit": false,
      "t": 195200,
      "d": 3200,
      "v": 70
    },
    {
      "midi": 55,
      "hit": false,
      "t": 195599.99999999977,
      "d": 506.25,
      "v": 71
    },
    {
      "midi": 52,
      "hit": false,
      "t": 195999.99999999977,
      "d": 533.333333333343,
      "v": 71
    },
    {
      "midi": 55,
      "hit": false,
      "t": 196399.99999999977,
      "d": 506.25,
      "v": 71
    },
    {
      "midi": 48,
      "hit": false,
      "t": 196799.99999999977,
      "d": 506.25,
      "v": 71
    },
    {
      "midi": 55,
      "hit": false,
      "t": 197199.99999999977,
      "d": 545.8333333333139,
      "v": 71
    },
    {
      "midi": 60,
      "hit": false,
      "t": 197599.99999999977,
      "d": 306.2499999999709,
      "v": 71
    },
    {
      "midi": 52,
      "hit": false,
      "t": 197599.99999999977,
      "d": 399.9999999999709,
      "v": 71
    },
    {
      "midi": 62,
      "hit": false,
      "t": 197799.99999999974,
      "d": 372.91666666665697,
      "v": 71
    },
    {
      "midi": 55,
      "hit": false,
      "t": 197999.99999999974,
      "d": 400,
      "v": 68
    },
    {
      "midi": 64,
      "hit": false,
      "t": 197999.99999999974,
      "d": 400,
      "v": 71
    },
    {
      "midi": 43,
      "hit": false,
      "t": 198399.99999999974,
      "d": 800,
      "v": 71
    },
    {
      "midi": 55,
      "hit": false,
      "t": 198399.99999999974,
      "d": 1612.5,
      "v": 71
    },
    {
      "midi": 59,
      "hit": false,
      "t": 198399.99999999974,
      "d": 1612.5,
      "v": 71
    },
    {
      "midi": 43,
      "hit": false,
      "t": 198400,
      "d": 3200,
      "v": 70
    },
    {
      "midi": 50,
      "hit": false,
      "t": 198799.99999999974,
      "d": 800,
      "v": 63
    },
    {
      "midi": 47,
      "hit": false,
      "t": 199199.99999999974,
      "d": 812.5,
      "v": 71
    },
    {
      "midi": 50,
      "hit": false,
      "t": 199599.99999999974,
      "d": 800,
      "v": 71
    },
    {
      "midi": 43,
      "hit": false,
      "t": 200012.49999999974,
      "d": 787.5,
      "v": 71
    },
    {
      "midi": 55,
      "hit": false,
      "t": 200012.49999999974,
      "d": 787.5,
      "v": 71
    },
    {
      "midi": 50,
      "hit": false,
      "t": 200399.99999999974,
      "d": 800,
      "v": 71
    },
    {
      "midi": 57,
      "hit": false,
      "t": 200399.99999999974,
      "d": 800,
      "v": 71
    },
    {
      "midi": 47,
      "hit": false,
      "t": 200799.99999999974,
      "d": 800,
      "v": 71
    },
    {
      "midi": 59,
      "hit": false,
      "t": 200799.99999999974,
      "d": 800,
      "v": 71
    },
    {
      "midi": 50,
      "hit": false,
      "t": 201199.99999999974,
      "d": 400,
      "v": 71
    },
    {
      "midi": 62,
      "hit": false,
      "t": 201199.99999999974,
      "d": 400,
      "v": 71
    },
    {
      "midi": 52,
      "hit": false,
      "t": 201599.99999999974,
      "d": 725,
      "v": 72
    },
    {
      "midi": 67,
      "hit": false,
      "t": 201599.99999999974,
      "d": 1091.666666666657,
      "v": 72
    },
    {
      "midi": 64,
      "hit": false,
      "t": 201599.99999999974,
      "d": 1145.833333333314,
      "v": 72
    },
    {
      "midi": 40,
      "hit": false,
      "t": 201600,
      "d": 3200,
      "v": 70
    },
    {
      "midi": 59,
      "hit": false,
      "t": 201999.99999999974,
      "d": 691.666666666657,
      "v": 58
    },
    {
      "midi": 55,
      "hit": false,
      "t": 202399.99999999974,
      "d": 706.2499999999709,
      "v": 72
    },
    {
      "midi": 71,
      "hit": false,
      "t": 202399.99999999974,
      "d": 799.9999999999709,
      "v": 72
    },
    {
      "midi": 59,
      "hit": false,
      "t": 202799.9999999997,
      "d": 679.166666666657,
      "v": 72
    },
    {
      "midi": 64,
      "hit": false,
      "t": 203199.9999999997,
      "d": 666.666666666657,
      "v": 72
    },
    {
      "midi": 52,
      "hit": false,
      "t": 203199.9999999997,
      "d": 679.166666666657,
      "v": 71
    },
    {
      "midi": 59,
      "hit": false,
      "t": 203599.9999999997,
      "d": 706.25,
      "v": 67
    },
    {
      "midi": 66,
      "hit": false,
      "t": 203599.9999999997,
      "d": 706.25,
      "v": 72
    },
    {
      "midi": 55,
      "hit": false,
      "t": 203999.9999999997,
      "d": 679.166666666657,
      "v": 72
    },
    {
      "midi": 67,
      "hit": false,
      "t": 203999.9999999997,
      "d": 691.666666666657,
      "v": 72
    },
    {
      "midi": 59,
      "hit": false,
      "t": 204399.9999999997,
      "d": 400,
      "v": 72
    },
    {
      "midi": 71,
      "hit": false,
      "t": 204399.9999999997,
      "d": 400,
      "v": 72
    },
    {
      "midi": 48,
      "hit": false,
      "t": 204799.9999999997,
      "d": 3200,
      "v": 71
    },
    {
      "midi": 36,
      "hit": false,
      "t": 204800,
      "d": 3200,
      "v": 70
    },
    {
      "midi": 52,
      "hit": false,
      "t": 205199.9999999997,
      "d": 800,
      "v": 71
    },
    {
      "midi": 55,
      "hit": false,
      "t": 205599.9999999997,
      "d": 800,
      "v": 71
    },
    {
      "midi": 52,
      "hit": false,
      "t": 205999.9999999997,
      "d": 800,
      "v": 68
    },
    {
      "midi": 60,
      "hit": false,
      "t": 206399.9999999997,
      "d": 800,
      "v": 71
    },
    {
      "midi": 55,
      "hit": false,
      "t": 206799.9999999997,
      "d": 800,
      "v": 69
    },
    {
      "midi": 52,
      "hit": false,
      "t": 207199.9999999997,
      "d": 800,
      "v": 71
    },
    {
      "midi": 55,
      "hit": false,
      "t": 207599.9999999997,
      "d": 400,
      "v": 71
    },
    {
      "midi": 50,
      "hit": false,
      "t": 207999.9999999997,
      "d": 800,
      "v": 71
    },
    {
      "midi": 38,
      "hit": false,
      "t": 208000,
      "d": 3200,
      "v": 70
    },
    {
      "midi": 54,
      "hit": false,
      "t": 208399.9999999997,
      "d": 800,
      "v": 71
    },
    {
      "midi": 57,
      "hit": false,
      "t": 208799.9999999997,
      "d": 1200,
      "v": 71
    },
    {
      "midi": 62,
      "hit": false,
      "t": 209199.9999999997,
      "d": 800,
      "v": 71
    },
    {
      "midi": 66,
      "hit": false,
      "t": 209599.9999999997,
      "d": 800,
      "v": 71
    },
    {
      "midi": 57,
      "hit": false,
      "t": 209999.9999999997,
      "d": 1200,
      "v": 65
    },
    {
      "midi": 62,
      "hit": false,
      "t": 210399.9999999997,
      "d": 800,
      "v": 71
    },
    {
      "midi": 66,
      "hit": false,
      "t": 210799.9999999997,
      "d": 400,
      "v": 71
    },
    {
      "midi": 48,
      "hit": false,
      "t": 211199.9999999997,
      "d": 725,
      "v": 72
    },
    {
      "midi": 64,
      "hit": false,
      "t": 211199.9999999997,
      "d": 1091.666666666657,
      "v": 72
    },
    {
      "midi": 60,
      "hit": false,
      "t": 211199.9999999997,
      "d": 1145.833333333314,
      "v": 72
    },
    {
      "midi": 36,
      "hit": false,
      "t": 211200,
      "d": 3200,
      "v": 70
    },
    {
      "midi": 55,
      "hit": false,
      "t": 211599.9999999997,
      "d": 691.666666666657,
      "v": 58
    },
    {
      "midi": 52,
      "hit": false,
      "t": 211999.9999999997,
      "d": 706.2499999999709,
      "v": 72
    },
    {
      "midi": 67,
      "hit": false,
      "t": 211999.9999999997,
      "d": 799.9999999999709,
      "v": 72
    },
    {
      "midi": 55,
      "hit": false,
      "t": 212399.99999999968,
      "d": 679.166666666657,
      "v": 72
    },
    {
      "midi": 60,
      "hit": false,
      "t": 212799.99999999968,
      "d": 666.666666666657,
      "v": 72
    },
    {
      "midi": 48,
      "hit": false,
      "t": 212799.99999999968,
      "d": 679.166666666657,
      "v": 71
    },
    {
      "midi": 55,
      "hit": false,
      "t": 213199.99999999968,
      "d": 706.25,
      "v": 67
    },
    {
      "midi": 62,
      "hit": false,
      "t": 213199.99999999968,
      "d": 706.25,
      "v": 72
    },
    {
      "midi": 52,
      "hit": false,
      "t": 213599.99999999968,
      "d": 679.166666666657,
      "v": 72
    },
    {
      "midi": 64,
      "hit": false,
      "t": 213599.99999999968,
      "d": 691.666666666657,
      "v": 72
    },
    {
      "midi": 55,
      "hit": false,
      "t": 213999.99999999968,
      "d": 400,
      "v": 72
    },
    {
      "midi": 67,
      "hit": false,
      "t": 213999.99999999968,
      "d": 400,
      "v": 72
    },
    {
      "midi": 43,
      "hit": false,
      "t": 214399.99999999968,
      "d": 3200,
      "v": 71
    },
    {
      "midi": 43,
      "hit": false,
      "t": 214400,
      "d": 3200,
      "v": 70
    },
    {
      "midi": 55,
      "hit": false,
      "t": 214799.99999999968,
      "d": 2800,
      "v": 65
    },
    {
      "midi": 59,
      "hit": false,
      "t": 215199.99999999968,
      "d": 1200,
      "v": 71
    },
    {
      "midi": 64,
      "hit": false,
      "t": 215599.99999999968,
      "d": 800,
      "v": 71
    },
    {
      "midi": 67,
      "hit": false,
      "t": 215999.99999999968,
      "d": 800,
      "v": 71
    },
    {
      "midi": 59,
      "hit": false,
      "t": 216399.99999999968,
      "d": 1200,
      "v": 71
    },
    {
      "midi": 64,
      "hit": false,
      "t": 216799.99999999968,
      "d": 400,
      "v": 71
    },
    {
      "midi": 67,
      "hit": false,
      "t": 217199.99999999968,
      "d": 400,
      "v": 71
    },
    {
      "midi": 48,
      "hit": false,
      "t": 217599.99999999968,
      "d": 725,
      "v": 72
    },
    {
      "midi": 64,
      "hit": false,
      "t": 217599.99999999968,
      "d": 1091.666666666657,
      "v": 72
    },
    {
      "midi": 60,
      "hit": false,
      "t": 217599.99999999968,
      "d": 1145.833333333314,
      "v": 72
    },
    {
      "midi": 36,
      "hit": false,
      "t": 217600,
      "d": 3200,
      "v": 70
    },
    {
      "midi": 55,
      "hit": false,
      "t": 217999.99999999968,
      "d": 691.666666666657,
      "v": 58
    },
    {
      "midi": 52,
      "hit": false,
      "t": 218399.99999999968,
      "d": 706.2499999999709,
      "v": 72
    },
    {
      "midi": 67,
      "hit": false,
      "t": 218399.99999999968,
      "d": 799.9999999999709,
      "v": 72
    },
    {
      "midi": 55,
      "hit": false,
      "t": 218799.99999999965,
      "d": 679.166666666657,
      "v": 72
    },
    {
      "midi": 60,
      "hit": false,
      "t": 219199.99999999965,
      "d": 666.666666666657,
      "v": 72
    },
    {
      "midi": 48,
      "hit": false,
      "t": 219199.99999999965,
      "d": 679.166666666657,
      "v": 71
    },
    {
      "midi": 55,
      "hit": false,
      "t": 219599.99999999965,
      "d": 706.25,
      "v": 67
    },
    {
      "midi": 62,
      "hit": false,
      "t": 219599.99999999965,
      "d": 706.25,
      "v": 72
    },
    {
      "midi": 52,
      "hit": false,
      "t": 219999.99999999965,
      "d": 679.166666666657,
      "v": 72
    },
    {
      "midi": 64,
      "hit": false,
      "t": 219999.99999999965,
      "d": 691.666666666657,
      "v": 72
    },
    {
      "midi": 55,
      "hit": false,
      "t": 220399.99999999965,
      "d": 400,
      "v": 72
    },
    {
      "midi": 67,
      "hit": false,
      "t": 220399.99999999965,
      "d": 400,
      "v": 72
    },
    {
      "midi": 50,
      "hit": false,
      "t": 220799.99999999965,
      "d": 725,
      "v": 72
    },
    {
      "midi": 66,
      "hit": false,
      "t": 220799.99999999965,
      "d": 1091.666666666657,
      "v": 72
    },
    {
      "midi": 62,
      "hit": false,
      "t": 220799.99999999965,
      "d": 1145.833333333314,
      "v": 72
    },
    {
      "midi": 38,
      "hit": false,
      "t": 220800,
      "d": 3200,
      "v": 70
    },
    {
      "midi": 57,
      "hit": false,
      "t": 221199.99999999965,
      "d": 691.666666666657,
      "v": 58
    },
    {
      "midi": 54,
      "hit": false,
      "t": 221599.99999999965,
      "d": 706.2499999999709,
      "v": 72
    },
    {
      "midi": 69,
      "hit": false,
      "t": 221599.99999999965,
      "d": 799.9999999999709,
      "v": 72
    },
    {
      "midi": 57,
      "hit": false,
      "t": 221999.99999999962,
      "d": 679.166666666657,
      "v": 72
    },
    {
      "midi": 62,
      "hit": false,
      "t": 222399.99999999962,
      "d": 666.666666666657,
      "v": 72
    },
    {
      "midi": 50,
      "hit": false,
      "t": 222399.99999999962,
      "d": 679.166666666657,
      "v": 71
    },
    {
      "midi": 57,
      "hit": false,
      "t": 222799.99999999962,
      "d": 706.25,
      "v": 67
    },
    {
      "midi": 64,
      "hit": false,
      "t": 222799.99999999962,
      "d": 706.25,
      "v": 72
    },
    {
      "midi": 54,
      "hit": false,
      "t": 223199.99999999962,
      "d": 679.166666666657,
      "v": 72
    },
    {
      "midi": 66,
      "hit": false,
      "t": 223199.99999999962,
      "d": 691.666666666657,
      "v": 72
    },
    {
      "midi": 57,
      "hit": false,
      "t": 223599.99999999962,
      "d": 400,
      "v": 72
    },
    {
      "midi": 69,
      "hit": false,
      "t": 223599.99999999962,
      "d": 400,
      "v": 72
    },
    {
      "midi": 43,
      "hit": false,
      "t": 223999.99999999962,
      "d": 800,
      "v": 71
    },
    {
      "midi": 55,
      "hit": false,
      "t": 223999.99999999962,
      "d": 1612.5,
      "v": 71
    },
    {
      "midi": 59,
      "hit": false,
      "t": 223999.99999999962,
      "d": 1612.5,
      "v": 71
    },
    {
      "midi": 43,
      "hit": false,
      "t": 224000,
      "d": 3200,
      "v": 70
    },
    {
      "midi": 50,
      "hit": false,
      "t": 224399.99999999962,
      "d": 800,
      "v": 63
    },
    {
      "midi": 47,
      "hit": false,
      "t": 224799.99999999962,
      "d": 812.5,
      "v": 71
    },
    {
      "midi": 50,
      "hit": false,
      "t": 225199.99999999962,
      "d": 800,
      "v": 71
    },
    {
      "midi": 43,
      "hit": false,
      "t": 225612.49999999962,
      "d": 787.5,
      "v": 71
    },
    {
      "midi": 55,
      "hit": false,
      "t": 225612.49999999962,
      "d": 787.5,
      "v": 71
    },
    {
      "midi": 50,
      "hit": false,
      "t": 225999.99999999962,
      "d": 800,
      "v": 71
    },
    {
      "midi": 57,
      "hit": false,
      "t": 225999.99999999962,
      "d": 800,
      "v": 71
    },
    {
      "midi": 47,
      "hit": false,
      "t": 226399.99999999962,
      "d": 800,
      "v": 71
    },
    {
      "midi": 59,
      "hit": false,
      "t": 226399.99999999962,
      "d": 800,
      "v": 71
    },
    {
      "midi": 50,
      "hit": false,
      "t": 226799.99999999962,
      "d": 400,
      "v": 71
    },
    {
      "midi": 62,
      "hit": false,
      "t": 226799.99999999962,
      "d": 400,
      "v": 71
    },
    {
      "midi": 43,
      "hit": false,
      "t": 227199.99999999962,
      "d": 800,
      "v": 71
    },
    {
      "midi": 43,
      "hit": false,
      "t": 227200,
      "d": 3200,
      "v": 70
    },
    {
      "midi": 55,
      "hit": false,
      "t": 227599.99999999962,
      "d": 800,
      "v": 71
    },
    {
      "midi": 59,
      "hit": false,
      "t": 227999.99999999962,
      "d": 1200,
      "v": 71
    },
    {
      "midi": 64,
      "hit": false,
      "t": 228399.99999999962,
      "d": 800,
      "v": 71
    },
    {
      "midi": 67,
      "hit": false,
      "t": 228799.99999999962,
      "d": 800,
      "v": 71
    },
    {
      "midi": 59,
      "hit": false,
      "t": 229199.99999999962,
      "d": 1200,
      "v": 65
    },
    {
      "midi": 64,
      "hit": false,
      "t": 229599.99999999962,
      "d": 800,
      "v": 71
    },
    {
      "midi": 67,
      "hit": false,
      "t": 229999.99999999962,
      "d": 400,
      "v": 71
    },
    {
      "midi": 47,
      "hit": false,
      "t": 230399.99999999962,
      "d": 800,
      "v": 71
    },
    {
      "midi": 35,
      "hit": false,
      "t": 230400,
      "d": 3200,
      "v": 70
    },
    {
      "midi": 50,
      "hit": false,
      "t": 230799.99999999962,
      "d": 800,
      "v": 71
    },
    {
      "midi": 54,
      "hit": false,
      "t": 231199.99999999962,
      "d": 1200,
      "v": 71
    },
    {
      "midi": 59,
      "hit": false,
      "t": 231599.99999999962,
      "d": 800,
      "v": 71
    },
    {
      "midi": 62,
      "hit": false,
      "t": 231999.99999999962,
      "d": 800,
      "v": 71
    },
    {
      "midi": 54,
      "hit": false,
      "t": 232399.99999999962,
      "d": 1200,
      "v": 65
    },
    {
      "midi": 59,
      "hit": false,
      "t": 232799.99999999962,
      "d": 800,
      "v": 71
    },
    {
      "midi": 62,
      "hit": false,
      "t": 233199.99999999962,
      "d": 400,
      "v": 71
    },
    {
      "midi": 48,
      "hit": false,
      "t": 233599.99999999962,
      "d": 800,
      "v": 71
    },
    {
      "midi": 60,
      "hit": false,
      "t": 233599.99999999962,
      "d": 1612.5,
      "v": 71
    },
    {
      "midi": 64,
      "hit": false,
      "t": 233599.99999999962,
      "d": 1612.5,
      "v": 71
    },
    {
      "midi": 36,
      "hit": false,
      "t": 233600,
      "d": 3200,
      "v": 70
    },
    {
      "midi": 55,
      "hit": false,
      "t": 233999.99999999962,
      "d": 800,
      "v": 63
    },
    {
      "midi": 52,
      "hit": false,
      "t": 234399.99999999962,
      "d": 812.5,
      "v": 71
    },
    {
      "midi": 55,
      "hit": false,
      "t": 234799.99999999962,
      "d": 800,
      "v": 71
    },
    {
      "midi": 48,
      "hit": false,
      "t": 235212.49999999962,
      "d": 787.5,
      "v": 71
    },
    {
      "midi": 60,
      "hit": false,
      "t": 235212.49999999962,
      "d": 787.5,
      "v": 71
    },
    {
      "midi": 55,
      "hit": false,
      "t": 235599.99999999962,
      "d": 800,
      "v": 71
    },
    {
      "midi": 62,
      "hit": false,
      "t": 235599.99999999962,
      "d": 800,
      "v": 71
    },
    {
      "midi": 52,
      "hit": false,
      "t": 235999.99999999962,
      "d": 800,
      "v": 71
    },
    {
      "midi": 64,
      "hit": false,
      "t": 235999.99999999962,
      "d": 800,
      "v": 71
    },
    {
      "midi": 55,
      "hit": false,
      "t": 236399.99999999962,
      "d": 400,
      "v": 71
    },
    {
      "midi": 67,
      "hit": false,
      "t": 236399.99999999962,
      "d": 400,
      "v": 71
    },
    {
      "midi": 48,
      "hit": false,
      "t": 236799.99999999962,
      "d": 725,
      "v": 72
    },
    {
      "midi": 64,
      "hit": false,
      "t": 236799.99999999962,
      "d": 1091.666666666657,
      "v": 72
    },
    {
      "midi": 60,
      "hit": false,
      "t": 236799.99999999962,
      "d": 1145.833333333314,
      "v": 72
    },
    {
      "midi": 36,
      "hit": false,
      "t": 236800,
      "d": 3200,
      "v": 70
    },
    {
      "midi": 55,
      "hit": false,
      "t": 237199.99999999962,
      "d": 691.666666666657,
      "v": 58
    },
    {
      "midi": 52,
      "hit": false,
      "t": 237599.99999999962,
      "d": 706.2499999999709,
      "v": 72
    },
    {
      "midi": 67,
      "hit": false,
      "t": 237599.99999999962,
      "d": 799.9999999999709,
      "v": 72
    },
    {
      "midi": 55,
      "hit": false,
      "t": 237999.9999999996,
      "d": 679.166666666657,
      "v": 72
    },
    {
      "midi": 60,
      "hit": false,
      "t": 238399.9999999996,
      "d": 666.666666666657,
      "v": 72
    },
    {
      "midi": 48,
      "hit": false,
      "t": 238399.9999999996,
      "d": 679.166666666657,
      "v": 71
    },
    {
      "midi": 55,
      "hit": false,
      "t": 238799.9999999996,
      "d": 706.25,
      "v": 67
    },
    {
      "midi": 62,
      "hit": false,
      "t": 238799.9999999996,
      "d": 706.25,
      "v": 72
    },
    {
      "midi": 52,
      "hit": false,
      "t": 239199.9999999996,
      "d": 679.166666666657,
      "v": 72
    },
    {
      "midi": 64,
      "hit": false,
      "t": 239199.9999999996,
      "d": 691.666666666657,
      "v": 72
    },
    {
      "midi": 55,
      "hit": false,
      "t": 239599.9999999996,
      "d": 400,
      "v": 72
    },
    {
      "midi": 67,
      "hit": false,
      "t": 239599.9999999996,
      "d": 400,
      "v": 72
    },
    {
      "midi": 50,
      "hit": false,
      "t": 239999.9999999996,
      "d": 3200,
      "v": 71
    },
    {
      "midi": 38,
      "hit": false,
      "t": 240000,
      "d": 3200,
      "v": 70
    },
    {
      "midi": 54,
      "hit": false,
      "t": 240399.9999999996,
      "d": 2800,
      "v": 65
    },
    {
      "midi": 57,
      "hit": false,
      "t": 240799.9999999996,
      "d": 1200,
      "v": 71
    },
    {
      "midi": 62,
      "hit": false,
      "t": 241199.9999999996,
      "d": 800,
      "v": 71
    },
    {
      "midi": 66,
      "hit": false,
      "t": 241599.9999999996,
      "d": 800,
      "v": 71
    },
    {
      "midi": 57,
      "hit": false,
      "t": 241999.9999999996,
      "d": 1200,
      "v": 71
    },
    {
      "midi": 62,
      "hit": false,
      "t": 242399.9999999996,
      "d": 400,
      "v": 71
    },
    {
      "midi": 66,
      "hit": false,
      "t": 242799.9999999996,
      "d": 400,
      "v": 71
    },
    {
      "midi": 48,
      "hit": false,
      "t": 243199.9999999996,
      "d": 3200,
      "v": 71
    },
    {
      "midi": 36,
      "hit": false,
      "t": 243200,
      "d": 3200,
      "v": 70
    },
    {
      "midi": 52,
      "hit": false,
      "t": 243599.9999999996,
      "d": 800,
      "v": 71
    },
    {
      "midi": 55,
      "hit": false,
      "t": 243999.9999999996,
      "d": 800,
      "v": 71
    },
    {
      "midi": 52,
      "hit": false,
      "t": 244399.9999999996,
      "d": 800,
      "v": 68
    },
    {
      "midi": 60,
      "hit": false,
      "t": 244799.9999999996,
      "d": 800,
      "v": 71
    },
    {
      "midi": 55,
      "hit": false,
      "t": 245199.9999999996,
      "d": 800,
      "v": 69
    },
    {
      "midi": 52,
      "hit": false,
      "t": 245599.9999999996,
      "d": 800,
      "v": 71
    },
    {
      "midi": 55,
      "hit": false,
      "t": 245999.9999999996,
      "d": 400,
      "v": 71
    },
    {
      "midi": 52,
      "hit": false,
      "t": 246399.9999999996,
      "d": 3200,
      "v": 71
    },
    {
      "midi": 40,
      "hit": false,
      "t": 246400,
      "d": 3200,
      "v": 70
    },
    {
      "midi": 55,
      "hit": false,
      "t": 246799.9999999996,
      "d": 2800,
      "v": 65
    },
    {
      "midi": 59,
      "hit": false,
      "t": 247199.9999999996,
      "d": 1200,
      "v": 71
    },
    {
      "midi": 64,
      "hit": false,
      "t": 247599.9999999996,
      "d": 800,
      "v": 71
    },
    {
      "midi": 67,
      "hit": false,
      "t": 247999.9999999996,
      "d": 800,
      "v": 71
    },
    {
      "midi": 59,
      "hit": false,
      "t": 248399.9999999996,
      "d": 1200,
      "v": 71
    },
    {
      "midi": 64,
      "hit": false,
      "t": 248799.9999999996,
      "d": 400,
      "v": 71
    },
    {
      "midi": 67,
      "hit": false,
      "t": 249199.9999999996,
      "d": 400,
      "v": 71
    },
    {
      "midi": 48,
      "hit": false,
      "t": 249599.9999999996,
      "d": 800,
      "v": 71
    },
    {
      "midi": 60,
      "hit": false,
      "t": 249599.9999999996,
      "d": 1612.5,
      "v": 71
    },
    {
      "midi": 64,
      "hit": false,
      "t": 249599.9999999996,
      "d": 1612.5,
      "v": 71
    },
    {
      "midi": 36,
      "hit": false,
      "t": 249600,
      "d": 3200,
      "v": 70
    },
    {
      "midi": 55,
      "hit": false,
      "t": 249999.9999999996,
      "d": 800,
      "v": 63
    },
    {
      "midi": 52,
      "hit": false,
      "t": 250399.9999999996,
      "d": 812.5,
      "v": 71
    },
    {
      "midi": 55,
      "hit": false,
      "t": 250799.9999999996,
      "d": 800,
      "v": 71
    },
    {
      "midi": 48,
      "hit": false,
      "t": 251212.4999999996,
      "d": 787.5,
      "v": 71
    },
    {
      "midi": 60,
      "hit": false,
      "t": 251212.4999999996,
      "d": 787.5,
      "v": 71
    },
    {
      "midi": 55,
      "hit": false,
      "t": 251599.9999999996,
      "d": 800,
      "v": 71
    },
    {
      "midi": 62,
      "hit": false,
      "t": 251599.9999999996,
      "d": 800,
      "v": 71
    },
    {
      "midi": 52,
      "hit": false,
      "t": 251999.9999999996,
      "d": 800,
      "v": 71
    },
    {
      "midi": 64,
      "hit": false,
      "t": 251999.9999999996,
      "d": 800,
      "v": 71
    },
    {
      "midi": 55,
      "hit": false,
      "t": 252399.9999999996,
      "d": 400,
      "v": 71
    },
    {
      "midi": 67,
      "hit": false,
      "t": 252399.9999999996,
      "d": 400,
      "v": 71
    },
    {
      "midi": 50,
      "hit": false,
      "t": 252799.9999999996,
      "d": 3200,
      "v": 71
    },
    {
      "midi": 38,
      "hit": false,
      "t": 252800,
      "d": 3200,
      "v": 70
    },
    {
      "midi": 54,
      "hit": false,
      "t": 253199.9999999996,
      "d": 2800,
      "v": 65
    },
    {
      "midi": 57,
      "hit": false,
      "t": 253599.9999999996,
      "d": 1200,
      "v": 71
    },
    {
      "midi": 62,
      "hit": false,
      "t": 253999.9999999996,
      "d": 800,
      "v": 71
    },
    {
      "midi": 66,
      "hit": false,
      "t": 254399.9999999996,
      "d": 800,
      "v": 71
    },
    {
      "midi": 57,
      "hit": false,
      "t": 254799.9999999996,
      "d": 1200,
      "v": 71
    },
    {
      "midi": 62,
      "hit": false,
      "t": 255199.9999999996,
      "d": 400,
      "v": 71
    },
    {
      "midi": 66,
      "hit": false,
      "t": 255599.9999999996,
      "d": 400,
      "v": 71
    },
    {
      "midi": 43,
      "hit": false,
      "t": 255999.9999999996,
      "d": 800,
      "v": 71
    },
    {
      "midi": 55,
      "hit": false,
      "t": 255999.9999999996,
      "d": 1612.5,
      "v": 71
    },
    {
      "midi": 59,
      "hit": false,
      "t": 255999.9999999996,
      "d": 1612.5,
      "v": 71
    },
    {
      "midi": 43,
      "hit": false,
      "t": 256000,
      "d": 3200,
      "v": 70
    },
    {
      "midi": 50,
      "hit": false,
      "t": 256399.9999999996,
      "d": 800,
      "v": 63
    },
    {
      "midi": 47,
      "hit": false,
      "t": 256799.9999999996,
      "d": 812.5,
      "v": 71
    },
    {
      "midi": 50,
      "hit": false,
      "t": 257199.9999999996,
      "d": 800,
      "v": 71
    },
    {
      "midi": 43,
      "hit": false,
      "t": 257612.4999999996,
      "d": 787.5,
      "v": 71
    },
    {
      "midi": 55,
      "hit": false,
      "t": 257612.4999999996,
      "d": 787.5,
      "v": 71
    },
    {
      "midi": 50,
      "hit": false,
      "t": 257999.9999999996,
      "d": 800,
      "v": 71
    },
    {
      "midi": 57,
      "hit": false,
      "t": 257999.9999999996,
      "d": 800,
      "v": 71
    },
    {
      "midi": 47,
      "hit": false,
      "t": 258399.9999999996,
      "d": 800,
      "v": 71
    },
    {
      "midi": 59,
      "hit": false,
      "t": 258399.9999999996,
      "d": 800,
      "v": 71
    },
    {
      "midi": 50,
      "hit": false,
      "t": 258799.9999999996,
      "d": 400,
      "v": 71
    },
    {
      "midi": 62,
      "hit": false,
      "t": 258799.9999999996,
      "d": 400,
      "v": 71
    },
    {
      "midi": 43,
      "hit": false,
      "t": 259199.9999999996,
      "d": 800,
      "v": 71
    },
    {
      "midi": 64,
      "hit": false,
      "t": 259199.9999999996,
      "d": 1612.5,
      "v": 71
    },
    {
      "midi": 67,
      "hit": false,
      "t": 259199.9999999996,
      "d": 1612.5,
      "v": 71
    },
    {
      "midi": 43,
      "hit": false,
      "t": 259200,
      "d": 3200,
      "v": 70
    },
    {
      "midi": 59,
      "hit": false,
      "t": 259599.9999999996,
      "d": 800,
      "v": 63
    },
    {
      "midi": 55,
      "hit": false,
      "t": 259999.9999999996,
      "d": 812.5,
      "v": 71
    },
    {
      "midi": 59,
      "hit": false,
      "t": 260399.9999999996,
      "d": 800,
      "v": 71
    },
    {
      "midi": 43,
      "hit": false,
      "t": 260812.4999999996,
      "d": 787.5,
      "v": 71
    },
    {
      "midi": 64,
      "hit": false,
      "t": 260812.4999999996,
      "d": 787.5,
      "v": 71
    },
    {
      "midi": 59,
      "hit": false,
      "t": 261199.9999999996,
      "d": 800,
      "v": 71
    },
    {
      "midi": 66,
      "hit": false,
      "t": 261199.9999999996,
      "d": 800,
      "v": 71
    },
    {
      "midi": 55,
      "hit": false,
      "t": 261599.9999999996,
      "d": 800,
      "v": 71
    },
    {
      "midi": 67,
      "hit": false,
      "t": 261599.9999999996,
      "d": 800,
      "v": 71
    },
    {
      "midi": 59,
      "hit": false,
      "t": 261999.9999999996,
      "d": 400,
      "v": 71
    },
    {
      "midi": 71,
      "hit": false,
      "t": 261999.9999999996,
      "d": 400,
      "v": 71
    },
    {
      "midi": 47,
      "hit": false,
      "t": 262399.9999999996,
      "d": 3200,
      "v": 71
    },
    {
      "midi": 35,
      "hit": false,
      "t": 262400,
      "d": 3200,
      "v": 70
    },
    {
      "midi": 50,
      "hit": false,
      "t": 262799.9999999996,
      "d": 800,
      "v": 71
    },
    {
      "midi": 54,
      "hit": false,
      "t": 263199.9999999996,
      "d": 800,
      "v": 71
    },
    {
      "midi": 50,
      "hit": false,
      "t": 263599.9999999996,
      "d": 800,
      "v": 68
    },
    {
      "midi": 59,
      "hit": false,
      "t": 263999.9999999996,
      "d": 800,
      "v": 71
    },
    {
      "midi": 54,
      "hit": false,
      "t": 264399.9999999996,
      "d": 800,
      "v": 69
    },
    {
      "midi": 50,
      "hit": false,
      "t": 264799.9999999996,
      "d": 800,
      "v": 71
    },
    {
      "midi": 54,
      "hit": false,
      "t": 265199.9999999996,
      "d": 400,
      "v": 71
    },
    {
      "midi": 48,
      "hit": false,
      "t": 265599.9999999996,
      "d": 3200,
      "v": 71
    },
    {
      "midi": 36,
      "hit": false,
      "t": 265600,
      "d": 3200,
      "v": 70
    },
    {
      "midi": 52,
      "hit": false,
      "t": 265999.9999999996,
      "d": 2800,
      "v": 65
    },
    {
      "midi": 55,
      "hit": false,
      "t": 266399.9999999996,
      "d": 1200,
      "v": 71
    },
    {
      "midi": 60,
      "hit": false,
      "t": 266799.9999999996,
      "d": 800,
      "v": 71
    },
    {
      "midi": 64,
      "hit": false,
      "t": 267199.9999999996,
      "d": 800,
      "v": 71
    },
    {
      "midi": 55,
      "hit": false,
      "t": 267599.9999999996,
      "d": 1200,
      "v": 71
    },
    {
      "midi": 60,
      "hit": false,
      "t": 267999.9999999996,
      "d": 400,
      "v": 71
    },
    {
      "midi": 64,
      "hit": false,
      "t": 268399.9999999996,
      "d": 400,
      "v": 71
    },
    {
      "midi": 43,
      "hit": false,
      "t": 268799.9999999996,
      "d": 3200,
      "v": 71
    },
    {
      "midi": 43,
      "hit": false,
      "t": 268800,
      "d": 3200,
      "v": 70
    },
    {
      "midi": 47,
      "hit": false,
      "t": 269199.9999999996,
      "d": 800,
      "v": 71
    },
    {
      "midi": 50,
      "hit": false,
      "t": 269599.9999999996,
      "d": 800,
      "v": 71
    },
    {
      "midi": 47,
      "hit": false,
      "t": 269999.9999999996,
      "d": 800,
      "v": 68
    },
    {
      "midi": 55,
      "hit": false,
      "t": 270399.9999999996,
      "d": 800,
      "v": 71
    },
    {
      "midi": 50,
      "hit": false,
      "t": 270799.9999999996,
      "d": 800,
      "v": 69
    },
    {
      "midi": 47,
      "hit": false,
      "t": 271199.9999999996,
      "d": 800,
      "v": 71
    },
    {
      "midi": 50,
      "hit": false,
      "t": 271599.9999999996,
      "d": 400,
      "v": 71
    },
    {
      "midi": 43,
      "hit": false,
      "t": 271999.9999999996,
      "d": 725,
      "v": 72
    },
    {
      "midi": 67,
      "hit": false,
      "t": 271999.9999999996,
      "d": 1091.666666666686,
      "v": 72
    },
    {
      "midi": 64,
      "hit": false,
      "t": 271999.9999999996,
      "d": 1145.8333333333721,
      "v": 72
    },
    {
      "midi": 43,
      "hit": false,
      "t": 272000,
      "d": 3200,
      "v": 70
    },
    {
      "midi": 59,
      "hit": false,
      "t": 272399.9999999996,
      "d": 691.6666666666861,
      "v": 58
    },
    {
      "midi": 55,
      "hit": false,
      "t": 272799.9999999996,
      "d": 706.2500000000582,
      "v": 72
    },
    {
      "midi": 71,
      "hit": false,
      "t": 272799.9999999996,
      "d": 800.0000000000582,
      "v": 72
    },
    {
      "midi": 59,
      "hit": false,
      "t": 273199.99999999965,
      "d": 679.1666666666861,
      "v": 72
    },
    {
      "midi": 64,
      "hit": false,
      "t": 273599.99999999965,
      "d": 666.6666666666861,
      "v": 72
    },
    {
      "midi": 43,
      "hit": false,
      "t": 273599.99999999965,
      "d": 679.1666666666861,
      "v": 71
    },
    {
      "midi": 59,
      "hit": false,
      "t": 273999.99999999965,
      "d": 706.25,
      "v": 67
    },
    {
      "midi": 66,
      "hit": false,
      "t": 273999.99999999965,
      "d": 706.25,
      "v": 72
    },
    {
      "midi": 55,
      "hit": false,
      "t": 274399.99999999965,
      "d": 679.1666666666861,
      "v": 72
    },
    {
      "midi": 67,
      "hit": false,
      "t": 274399.99999999965,
      "d": 691.6666666666861,
      "v": 72
    },
    {
      "midi": 59,
      "hit": false,
      "t": 274799.99999999965,
      "d": 400,
      "v": 72
    },
    {
      "midi": 71,
      "hit": false,
      "t": 274799.99999999965,
      "d": 400,
      "v": 72
    },
    {
      "midi": 47,
      "hit": false,
      "t": 275199.99999999965,
      "d": 3200,
      "v": 71
    },
    {
      "midi": 35,
      "hit": false,
      "t": 275200,
      "d": 3200,
      "v": 70
    },
    {
      "midi": 50,
      "hit": false,
      "t": 275599.99999999965,
      "d": 800,
      "v": 71
    },
    {
      "midi": 54,
      "hit": false,
      "t": 275999.99999999965,
      "d": 800,
      "v": 71
    },
    {
      "midi": 50,
      "hit": false,
      "t": 276399.99999999965,
      "d": 800,
      "v": 68
    },
    {
      "midi": 59,
      "hit": false,
      "t": 276799.99999999965,
      "d": 800,
      "v": 71
    },
    {
      "midi": 54,
      "hit": false,
      "t": 277199.99999999965,
      "d": 800,
      "v": 69
    },
    {
      "midi": 50,
      "hit": false,
      "t": 277599.99999999965,
      "d": 800,
      "v": 71
    },
    {
      "midi": 54,
      "hit": false,
      "t": 277999.99999999965,
      "d": 400,
      "v": 71
    },
    {
      "midi": 48,
      "hit": false,
      "t": 278399.99999999965,
      "d": 3200,
      "v": 71
    },
    {
      "midi": 36,
      "hit": false,
      "t": 278400,
      "d": 3200,
      "v": 70
    },
    {
      "midi": 52,
      "hit": false,
      "t": 278799.99999999965,
      "d": 2800,
      "v": 65
    },
    {
      "midi": 55,
      "hit": false,
      "t": 279199.99999999965,
      "d": 1200,
      "v": 71
    },
    {
      "midi": 60,
      "hit": false,
      "t": 279599.99999999965,
      "d": 800,
      "v": 71
    },
    {
      "midi": 64,
      "hit": false,
      "t": 279999.99999999965,
      "d": 800,
      "v": 71
    },
    {
      "midi": 55,
      "hit": false,
      "t": 280399.99999999965,
      "d": 1200,
      "v": 71
    },
    {
      "midi": 60,
      "hit": false,
      "t": 280799.99999999965,
      "d": 400,
      "v": 71
    },
    {
      "midi": 64,
      "hit": false,
      "t": 281199.99999999965,
      "d": 400,
      "v": 71
    },
    {
      "midi": 48,
      "hit": false,
      "t": 281599.99999999965,
      "d": 800,
      "v": 71
    },
    {
      "midi": 36,
      "hit": false,
      "t": 281600,
      "d": 3200,
      "v": 70
    },
    {
      "midi": 52,
      "hit": false,
      "t": 281999.99999999965,
      "d": 800,
      "v": 71
    },
    {
      "midi": 55,
      "hit": false,
      "t": 282399.99999999965,
      "d": 1200,
      "v": 71
    },
    {
      "midi": 60,
      "hit": false,
      "t": 282799.99999999965,
      "d": 800,
      "v": 71
    },
    {
      "midi": 64,
      "hit": false,
      "t": 283199.99999999965,
      "d": 800,
      "v": 71
    },
    {
      "midi": 55,
      "hit": false,
      "t": 283599.99999999965,
      "d": 1200,
      "v": 65
    },
    {
      "midi": 60,
      "hit": false,
      "t": 283999.99999999965,
      "d": 800,
      "v": 71
    },
    {
      "midi": 64,
      "hit": false,
      "t": 284399.99999999965,
      "d": 400,
      "v": 71
    },
    {
      "midi": 43,
      "hit": false,
      "t": 284799.99999999965,
      "d": 800,
      "v": 71
    },
    {
      "midi": 43,
      "hit": false,
      "t": 284800,
      "d": 3200,
      "v": 70
    },
    {
      "midi": 47,
      "hit": false,
      "t": 285199.99999999965,
      "d": 800,
      "v": 71
    },
    {
      "midi": 50,
      "hit": false,
      "t": 285599.99999999965,
      "d": 1200,
      "v": 71
    },
    {
      "midi": 55,
      "hit": false,
      "t": 285999.99999999965,
      "d": 800,
      "v": 71
    },
    {
      "midi": 59,
      "hit": false,
      "t": 286399.99999999965,
      "d": 800,
      "v": 71
    },
    {
      "midi": 50,
      "hit": false,
      "t": 286799.99999999965,
      "d": 1200,
      "v": 65
    },
    {
      "midi": 55,
      "hit": false,
      "t": 287199.99999999965,
      "d": 800,
      "v": 71
    },
    {
      "midi": 59,
      "hit": false,
      "t": 287599.99999999965,
      "d": 400,
      "v": 71
    },
    {
      "midi": 43,
      "hit": false,
      "t": 287999.99999999965,
      "d": 3200,
      "v": 71
    },
    {
      "midi": 43,
      "hit": false,
      "t": 288000,
      "d": 3200,
      "v": 70
    },
    {
      "midi": 47,
      "hit": false,
      "t": 288399.99999999965,
      "d": 800,
      "v": 71
    },
    {
      "midi": 50,
      "hit": false,
      "t": 288799.99999999965,
      "d": 800,
      "v": 71
    },
    {
      "midi": 47,
      "hit": false,
      "t": 289199.99999999965,
      "d": 800,
      "v": 68
    },
    {
      "midi": 55,
      "hit": false,
      "t": 289599.99999999965,
      "d": 800,
      "v": 71
    },
    {
      "midi": 50,
      "hit": false,
      "t": 289999.99999999965,
      "d": 800,
      "v": 69
    },
    {
      "midi": 47,
      "hit": false,
      "t": 290399.99999999965,
      "d": 800,
      "v": 71
    },
    {
      "midi": 50,
      "hit": false,
      "t": 290799.99999999965,
      "d": 400,
      "v": 71
    },
    {
      "midi": 43,
      "hit": false,
      "t": 291199.99999999965,
      "d": 6012.5,
      "v": 79
    },
    {
      "midi": 43,
      "hit": false,
      "t": 291200,
      "d": 6225,
      "v": 66
    },
    {
      "midi": 47,
      "hit": false,
      "t": 291599.99999999965,
      "d": 5618.75,
      "v": 67
    },
    {
      "midi": 50,
      "hit": false,
      "t": 291999.99999999965,
      "d": 5245.833333333314,
      "v": 69
    },
    {
      "midi": 55,
      "hit": false,
      "t": 292399.99999999965,
      "d": 518.75,
      "v": 72
    },
    {
      "midi": 62,
      "hit": false,
      "t": 292799.99999999965,
      "d": 466.66666666668607,
      "v": 69
    },
    {
      "midi": 55,
      "hit": false,
      "t": 293199.99999999965,
      "d": 4025,
      "v": 70
    },
    {
      "midi": 59,
      "hit": false,
      "t": 293599.99999999965,
      "d": 3591.666666666686,
      "v": 77
    },
    {
      "midi": 62,
      "hit": false,
      "t": 293999.99999999965,
      "d": 3225,
      "v": 70
    },
    {
      "midi": 67,
      "hit": false,
      "t": 294399.99999999965,
      "d": 2825,
      "v": 69
    }
  ]
}