{
  "jsonPath": "Rock/Soft Rock/Kenny Rogers/the-gambler.json",
  "path": "Rock\\Soft Rock\\Kenny Rogers\\The Gambler.mid",
  "name": "The Gambler",
  "difficulty": "Advanced",
  "bpm": 89.9999550000225,
  "notes": [
    {
      "midi": 51,
      "hit": false,
      "t": 2666.668,
      "d": 205.5556583333332,
      "v": 106
    },
    {
      "midi": 55,
      "hit": false,
      "t": 2833.33475,
      "d": 211.11121666666622,
      "v": 87
    },
    {
      "midi": 58,
      "hit": false,
      "t": 3000.0015,
      "d": 180.55564583333307,
      "v": 98
    },
    {
      "midi": 63,
      "hit": false,
      "t": 3166.6682499999997,
      "d": 208.33343749999995,
      "v": 106
    },
    {
      "midi": 51,
      "hit": false,
      "t": 3333.3349999999996,
      "d": 119.44450416666677,
      "v": 80
    },
    {
      "midi": 58,
      "hit": false,
      "t": 3500.00175,
      "d": 152.77785416666666,
      "v": 92
    },
    {
      "midi": 55,
      "hit": false,
      "t": 3666.6684999999998,
      "d": 191.6667625,
      "v": 83
    },
    {
      "midi": 58,
      "hit": false,
      "t": 3833.3352499999996,
      "d": 119.44450416666677,
      "v": 90
    },
    {
      "midi": 51,
      "hit": false,
      "t": 4000.002,
      "d": 700.0003499999998,
      "v": 98
    },
    {
      "midi": 56,
      "hit": false,
      "t": 4666.669,
      "d": 244.44456666666701,
      "v": 85
    },
    {
      "midi": 60,
      "hit": false,
      "t": 5000.0025000000005,
      "d": 141.66673749999973,
      "v": 94
    },
    {
      "midi": 51,
      "hit": false,
      "t": 5333.336,
      "d": 341.66683750000084,
      "v": 110
    },
    {
      "midi": 55,
      "hit": false,
      "t": 5666.669500000001,
      "d": 219.44455416666733,
      "v": 87
    },
    {
      "midi": 58,
      "hit": false,
      "t": 5833.336250000001,
      "d": 166.66675000000032,
      "v": 87
    },
    {
      "midi": 63,
      "hit": false,
      "t": 6000.0030000000015,
      "d": 186.11120416666654,
      "v": 90
    },
    {
      "midi": 58,
      "hit": false,
      "t": 6166.669750000002,
      "d": 163.88897083333268,
      "v": 79
    },
    {
      "midi": 55,
      "hit": false,
      "t": 6333.336500000001,
      "d": 191.6667625,
      "v": 86
    },
    {
      "midi": 58,
      "hit": false,
      "t": 6500.003250000002,
      "d": 116.66672500000004,
      "v": 90
    },
    {
      "midi": 44,
      "hit": false,
      "t": 6666.670000000002,
      "d": 613.8891958333325,
      "v": 106
    },
    {
      "midi": 51,
      "hit": false,
      "t": 6833.336750000001,
      "d": 175.00008750000052,
      "v": 115
    },
    {
      "midi": 56,
      "hit": false,
      "t": 7000.003500000002,
      "d": 197.22232083333347,
      "v": 82
    },
    {
      "midi": 60,
      "hit": false,
      "t": 7166.670250000002,
      "d": 172.22230833333288,
      "v": 92
    },
    {
      "midi": 63,
      "hit": false,
      "t": 7333.337000000001,
      "d": 294.4445916666664,
      "v": 81
    },
    {
      "midi": 58,
      "hit": false,
      "t": 7666.670500000001,
      "d": 161.11119166666685,
      "v": 92
    },
    {
      "midi": 63,
      "hit": false,
      "t": 8000.004000000001,
      "d": 1880.5564958333325,
      "v": 86
    },
    {
      "midi": 67,
      "hit": false,
      "t": 8000.004000000001,
      "d": 1888.8898333333327,
      "v": 85
    },
    {
      "midi": 51,
      "hit": false,
      "t": 8000.004000000001,
      "d": 1938.889858333332,
      "v": 90
    },
    {
      "midi": 58,
      "hit": false,
      "t": 8000.004000000001,
      "d": 1938.889858333332,
      "v": 86
    },
    {
      "midi": 68,
      "hit": false,
      "t": 10666.672,
      "d": 486.1113541666655,
      "v": 83
    },
    {
      "midi": 72,
      "hit": false,
      "t": 10666.672,
      "d": 486.1113541666655,
      "v": 85
    },
    {
      "midi": 63,
      "hit": false,
      "t": 10666.672,
      "d": 491.66691249999894,
      "v": 73
    },
    {
      "midi": 60,
      "hit": false,
      "t": 10666.672,
      "d": 494.4446916666657,
      "v": 82
    },
    {
      "midi": 56,
      "hit": false,
      "t": 10666.672,
      "d": 502.7780291666659,
      "v": 81
    },
    {
      "midi": 58,
      "hit": false,
      "t": 12000.006000000001,
      "d": 1055.556083333333,
      "v": 57
    },
    {
      "midi": 67,
      "hit": false,
      "t": 12000.006000000001,
      "d": 1058.3338624999997,
      "v": 83
    },
    {
      "midi": 51,
      "hit": false,
      "t": 12000.006000000001,
      "d": 1072.2227583333333,
      "v": 85
    },
    {
      "midi": 70,
      "hit": false,
      "t": 12000.006000000001,
      "d": 1072.2227583333333,
      "v": 65
    },
    {
      "midi": 63,
      "hit": false,
      "t": 12000.006000000001,
      "d": 1077.7783166666668,
      "v": 70
    },
    {
      "midi": 67,
      "hit": false,
      "t": 13333.340000000002,
      "d": 2394.445641666667,
      "v": 85
    },
    {
      "midi": 51,
      "hit": false,
      "t": 13333.340000000002,
      "d": 2397.223420833334,
      "v": 94
    },
    {
      "midi": 70,
      "hit": false,
      "t": 13333.340000000002,
      "d": 2397.223420833334,
      "v": 76
    },
    {
      "midi": 63,
      "hit": false,
      "t": 13333.340000000002,
      "d": 2400.0012000000006,
      "v": 76
    },
    {
      "midi": 58,
      "hit": false,
      "t": 13333.340000000002,
      "d": 2402.7789791666673,
      "v": 80
    },
    {
      "midi": 67,
      "hit": false,
      "t": 16000.008000000003,
      "d": 327.77794166666536,
      "v": 82
    },
    {
      "midi": 63,
      "hit": false,
      "t": 16000.008000000003,
      "d": 341.666837499999,
      "v": 78
    },
    {
      "midi": 51,
      "hit": false,
      "t": 16000.008000000003,
      "d": 361.11129166666615,
      "v": 80
    },
    {
      "midi": 58,
      "hit": false,
      "t": 16000.008000000003,
      "d": 377.77796666666654,
      "v": 80
    },
    {
      "midi": 65,
      "hit": false,
      "t": 17333.342000000004,
      "d": 697.2225708333317,
      "v": 85
    },
    {
      "midi": 70,
      "hit": false,
      "t": 17333.342000000004,
      "d": 711.1114666666654,
      "v": 73
    },
    {
      "midi": 62,
      "hit": false,
      "t": 17333.342000000004,
      "d": 719.4448041666656,
      "v": 78
    },
    {
      "midi": 58,
      "hit": false,
      "t": 17333.342000000004,
      "d": 786.1115041666671,
      "v": 86
    },
    {
      "midi": 58,
      "hit": false,
      "t": 18666.676000000003,
      "d": 1730.5564208333344,
      "v": 71
    },
    {
      "midi": 67,
      "hit": false,
      "t": 18666.676000000003,
      "d": 1730.5564208333344,
      "v": 79
    },
    {
      "midi": 63,
      "hit": false,
      "t": 18666.676000000003,
      "d": 1741.6675375000013,
      "v": 80
    },
    {
      "midi": 51,
      "hit": false,
      "t": 18666.676000000003,
      "d": 1763.8897708333352,
      "v": 81
    },
    {
      "midi": 70,
      "hit": false,
      "t": 18666.676000000003,
      "d": 1772.2231083333354,
      "v": 61
    },
    {
      "midi": 63,
      "hit": false,
      "t": 21333.344000000005,
      "d": 416.666874999999,
      "v": 76
    },
    {
      "midi": 60,
      "hit": false,
      "t": 21333.344000000005,
      "d": 441.6668874999996,
      "v": 83
    },
    {
      "midi": 72,
      "hit": false,
      "t": 21333.344000000005,
      "d": 475.00023750000037,
      "v": 87
    },
    {
      "midi": 56,
      "hit": false,
      "t": 21333.344000000005,
      "d": 480.55579583333383,
      "v": 66
    },
    {
      "midi": 68,
      "hit": false,
      "t": 21333.344000000005,
      "d": 480.55579583333383,
      "v": 81
    },
    {
      "midi": 58,
      "hit": false,
      "t": 22666.678000000007,
      "d": 1080.5560958333335,
      "v": 82
    },
    {
      "midi": 67,
      "hit": false,
      "t": 22666.678000000007,
      "d": 1080.5560958333335,
      "v": 66
    },
    {
      "midi": 51,
      "hit": false,
      "t": 22666.678000000007,
      "d": 1083.3338750000003,
      "v": 92
    },
    {
      "midi": 63,
      "hit": false,
      "t": 22666.678000000007,
      "d": 1086.111654166667,
      "v": 71
    },
    {
      "midi": 70,
      "hit": false,
      "t": 22666.678000000007,
      "d": 1091.6672125000005,
      "v": 77
    },
    {
      "midi": 63,
      "hit": false,
      "t": 24000.012000000006,
      "d": 583.3336249999993,
      "v": 74
    },
    {
      "midi": 60,
      "hit": false,
      "t": 24000.012000000006,
      "d": 588.8891833333328,
      "v": 92
    },
    {
      "midi": 72,
      "hit": false,
      "t": 24000.012000000006,
      "d": 600.0002999999997,
      "v": 94
    },
    {
      "midi": 68,
      "hit": false,
      "t": 24000.012000000006,
      "d": 608.3336374999999,
      "v": 86
    },
    {
      "midi": 56,
      "hit": false,
      "t": 24000.012000000006,
      "d": 619.4447541666668,
      "v": 85
    },
    {
      "midi": 67,
      "hit": false,
      "t": 25333.346000000005,
      "d": 558.3336124999987,
      "v": 82
    },
    {
      "midi": 70,
      "hit": false,
      "t": 25333.346000000005,
      "d": 566.6669499999989,
      "v": 67
    },
    {
      "midi": 63,
      "hit": false,
      "t": 25333.346000000005,
      "d": 583.3336249999993,
      "v": 79
    },
    {
      "midi": 58,
      "hit": false,
      "t": 25333.346000000005,
      "d": 591.6669624999995,
      "v": 70
    },
    {
      "midi": 51,
      "hit": false,
      "t": 25333.346000000005,
      "d": 611.1114166666666,
      "v": 89
    },
    {
      "midi": 58,
      "hit": false,
      "t": 26666.680000000004,
      "d": 772.2226083333335,
      "v": 85
    },
    {
      "midi": 62,
      "hit": false,
      "t": 26666.680000000004,
      "d": 786.1115041666671,
      "v": 82
    },
    {
      "midi": 65,
      "hit": false,
      "t": 26666.680000000004,
      "d": 797.2226208333341,
      "v": 90
    },
    {
      "midi": 70,
      "hit": false,
      "t": 26666.680000000004,
      "d": 850.000425000002,
      "v": 83
    },
    {
      "midi": 58,
      "hit": false,
      "t": 28000.014000000006,
      "d": 1127.778341666668,
      "v": 73
    },
    {
      "midi": 63,
      "hit": false,
      "t": 28000.014000000006,
      "d": 1163.8894708333355,
      "v": 82
    },
    {
      "midi": 67,
      "hit": false,
      "t": 28000.014000000006,
      "d": 1180.556145833336,
      "v": 85
    },
    {
      "midi": 51,
      "hit": false,
      "t": 28000.014000000006,
      "d": 1200.000600000003,
      "v": 80
    },
    {
      "midi": 63,
      "hit": false,
      "t": 29333.34800000001,
      "d": 1880.5564958333343,
      "v": 86
    },
    {
      "midi": 67,
      "hit": false,
      "t": 29333.34800000001,
      "d": 1888.8898333333345,
      "v": 85
    },
    {
      "midi": 51,
      "hit": false,
      "t": 29333.34800000001,
      "d": 1938.8898583333357,
      "v": 90
    },
    {
      "midi": 58,
      "hit": false,
      "t": 29333.34800000001,
      "d": 1938.8898583333357,
      "v": 86
    },
    {
      "midi": 68,
      "hit": false,
      "t": 32000.01600000001,
      "d": 486.1113541666673,
      "v": 83
    },
    {
      "midi": 72,
      "hit": false,
      "t": 32000.01600000001,
      "d": 486.1113541666673,
      "v": 85
    },
    {
      "midi": 63,
      "hit": false,
      "t": 32000.01600000001,
      "d": 491.66691250000076,
      "v": 73
    },
    {
      "midi": 60,
      "hit": false,
      "t": 32000.01600000001,
      "d": 494.4446916666675,
      "v": 82
    },
    {
      "midi": 56,
      "hit": false,
      "t": 32000.01600000001,
      "d": 502.7780291666677,
      "v": 81
    },
    {
      "midi": 58,
      "hit": false,
      "t": 33333.35000000001,
      "d": 1055.5560833333366,
      "v": 57
    },
    {
      "midi": 67,
      "hit": false,
      "t": 33333.35000000001,
      "d": 1058.3338625000033,
      "v": 83
    },
    {
      "midi": 51,
      "hit": false,
      "t": 33333.35000000001,
      "d": 1072.222758333337,
      "v": 85
    },
    {
      "midi": 70,
      "hit": false,
      "t": 33333.35000000001,
      "d": 1072.222758333337,
      "v": 65
    },
    {
      "midi": 63,
      "hit": false,
      "t": 33333.35000000001,
      "d": 1077.7783166666704,
      "v": 70
    },
    {
      "midi": 67,
      "hit": false,
      "t": 34666.684000000016,
      "d": 2394.4456416666726,
      "v": 85
    },
    {
      "midi": 51,
      "hit": false,
      "t": 34666.684000000016,
      "d": 2397.2234208333393,
      "v": 94
    },
    {
      "midi": 70,
      "hit": false,
      "t": 34666.684000000016,
      "d": 2397.2234208333393,
      "v": 76
    },
    {
      "midi": 63,
      "hit": false,
      "t": 34666.684000000016,
      "d": 2400.001200000006,
      "v": 76
    },
    {
      "midi": 58,
      "hit": false,
      "t": 34666.684000000016,
      "d": 2402.778979166673,
      "v": 80
    },
    {
      "midi": 67,
      "hit": false,
      "t": 37333.35200000002,
      "d": 327.7779416666672,
      "v": 82
    },
    {
      "midi": 63,
      "hit": false,
      "t": 37333.35200000002,
      "d": 341.66683750000084,
      "v": 78
    },
    {
      "midi": 51,
      "hit": false,
      "t": 37333.35200000002,
      "d": 361.11129166666797,
      "v": 80
    },
    {
      "midi": 58,
      "hit": false,
      "t": 37333.35200000002,
      "d": 377.77796666666836,
      "v": 80
    },
    {
      "midi": 65,
      "hit": false,
      "t": 38666.68600000002,
      "d": 697.2225708333353,
      "v": 85
    },
    {
      "midi": 70,
      "hit": false,
      "t": 38666.68600000002,
      "d": 711.111466666669,
      "v": 73
    },
    {
      "midi": 62,
      "hit": false,
      "t": 38666.68600000002,
      "d": 719.4448041666692,
      "v": 78
    },
    {
      "midi": 58,
      "hit": false,
      "t": 38666.68600000002,
      "d": 786.1115041666708,
      "v": 86
    },
    {
      "midi": 58,
      "hit": false,
      "t": 40000.020000000026,
      "d": 1730.5564208333308,
      "v": 71
    },
    {
      "midi": 67,
      "hit": false,
      "t": 40000.020000000026,
      "d": 1730.5564208333308,
      "v": 79
    },
    {
      "midi": 63,
      "hit": false,
      "t": 40000.020000000026,
      "d": 1741.6675374999977,
      "v": 80
    },
    {
      "midi": 51,
      "hit": false,
      "t": 40000.020000000026,
      "d": 1763.8897708333316,
      "v": 81
    },
    {
      "midi": 70,
      "hit": false,
      "t": 40000.020000000026,
      "d": 1772.2231083333318,
      "v": 61
    },
    {
      "midi": 63,
      "hit": false,
      "t": 42666.688000000024,
      "d": 416.6668750000026,
      "v": 76
    },
    {
      "midi": 60,
      "hit": false,
      "t": 42666.688000000024,
      "d": 441.6668875000032,
      "v": 83
    },
    {
      "midi": 72,
      "hit": false,
      "t": 42666.688000000024,
      "d": 475.000237500004,
      "v": 87
    },
    {
      "midi": 56,
      "hit": false,
      "t": 42666.688000000024,
      "d": 480.55579583333747,
      "v": 66
    },
    {
      "midi": 68,
      "hit": false,
      "t": 42666.688000000024,
      "d": 480.55579583333747,
      "v": 81
    },
    {
      "midi": 58,
      "hit": false,
      "t": 44000.022000000026,
      "d": 1080.55609583333,
      "v": 82
    },
    {
      "midi": 67,
      "hit": false,
      "t": 44000.022000000026,
      "d": 1080.55609583333,
      "v": 66
    },
    {
      "midi": 51,
      "hit": false,
      "t": 44000.022000000026,
      "d": 1083.3338749999966,
      "v": 92
    },
    {
      "midi": 63,
      "hit": false,
      "t": 44000.022000000026,
      "d": 1086.1116541666634,
      "v": 71
    },
    {
      "midi": 70,
      "hit": false,
      "t": 44000.022000000026,
      "d": 1091.6672124999968,
      "v": 77
    },
    {
      "midi": 63,
      "hit": false,
      "t": 45333.35600000003,
      "d": 583.3336249999993,
      "v": 74
    },
    {
      "midi": 60,
      "hit": false,
      "t": 45333.35600000003,
      "d": 588.8891833333328,
      "v": 92
    },
    {
      "midi": 72,
      "hit": false,
      "t": 45333.35600000003,
      "d": 600.0002999999997,
      "v": 94
    },
    {
      "midi": 68,
      "hit": false,
      "t": 45333.35600000003,
      "d": 608.3336374999999,
      "v": 86
    },
    {
      "midi": 56,
      "hit": false,
      "t": 45333.35600000003,
      "d": 619.4447541666668,
      "v": 85
    },
    {
      "midi": 67,
      "hit": false,
      "t": 46666.69000000003,
      "d": 558.333612500006,
      "v": 82
    },
    {
      "midi": 70,
      "hit": false,
      "t": 46666.69000000003,
      "d": 566.6669500000062,
      "v": 67
    },
    {
      "midi": 63,
      "hit": false,
      "t": 46666.69000000003,
      "d": 583.3336250000066,
      "v": 79
    },
    {
      "midi": 58,
      "hit": false,
      "t": 46666.69000000003,
      "d": 591.6669625000068,
      "v": 70
    },
    {
      "midi": 51,
      "hit": false,
      "t": 46666.69000000003,
      "d": 611.1114166666739,
      "v": 89
    },
    {
      "midi": 58,
      "hit": false,
      "t": 48000.02400000004,
      "d": 772.2226083333371,
      "v": 85
    },
    {
      "midi": 62,
      "hit": false,
      "t": 48000.02400000004,
      "d": 786.1115041666708,
      "v": 82
    },
    {
      "midi": 65,
      "hit": false,
      "t": 48000.02400000004,
      "d": 797.2226208333377,
      "v": 90
    },
    {
      "midi": 70,
      "hit": false,
      "t": 48000.02400000004,
      "d": 850.0004250000056,
      "v": 83
    },
    {
      "midi": 58,
      "hit": false,
      "t": 49333.358000000044,
      "d": 1127.7783416666643,
      "v": 73
    },
    {
      "midi": 63,
      "hit": false,
      "t": 49333.358000000044,
      "d": 1163.8894708333319,
      "v": 82
    },
    {
      "midi": 67,
      "hit": false,
      "t": 49333.358000000044,
      "d": 1180.5561458333323,
      "v": 85
    },
    {
      "midi": 51,
      "hit": false,
      "t": 49333.358000000044,
      "d": 1200.0005999999994,
      "v": 80
    },
    {
      "midi": 51,
      "hit": false,
      "t": 50666.69200000005,
      "d": 1208.3339375000069,
      "v": 119
    },
    {
      "midi": 63,
      "hit": false,
      "t": 51000.02550000005,
      "d": 180.55564583333762,
      "v": 106
    },
    {
      "midi": 65,
      "hit": false,
      "t": 51166.69225000005,
      "d": 133.33340000000317,
      "v": 106
    },
    {
      "midi": 67,
      "hit": false,
      "t": 51333.359000000055,
      "d": 152.7778541666703,
      "v": 102
    },
    {
      "midi": 65,
      "hit": false,
      "t": 51500.02575000006,
      "d": 161.11119166666322,
      "v": 90
    },
    {
      "midi": 63,
      "hit": false,
      "t": 51666.692500000056,
      "d": 216.66677499999787,
      "v": 110
    },
    {
      "midi": 63,
      "hit": false,
      "t": 52000.026000000056,
      "d": 1880.5564958333343,
      "v": 86
    },
    {
      "midi": 67,
      "hit": false,
      "t": 52000.026000000056,
      "d": 1888.8898333333345,
      "v": 85
    },
    {
      "midi": 51,
      "hit": false,
      "t": 52000.026000000056,
      "d": 1938.8898583333357,
      "v": 90
    },
    {
      "midi": 58,
      "hit": false,
      "t": 52000.026000000056,
      "d": 1938.8898583333357,
      "v": 86
    },
    {
      "midi": 68,
      "hit": false,
      "t": 54666.69400000006,
      "d": 486.11135416667094,
      "v": 83
    },
    {
      "midi": 72,
      "hit": false,
      "t": 54666.69400000006,
      "d": 486.11135416667094,
      "v": 85
    },
    {
      "midi": 63,
      "hit": false,
      "t": 54666.69400000006,
      "d": 491.6669125000044,
      "v": 73
    },
    {
      "midi": 60,
      "hit": false,
      "t": 54666.69400000006,
      "d": 494.44469166667113,
      "v": 82
    },
    {
      "midi": 56,
      "hit": false,
      "t": 54666.69400000006,
      "d": 502.77802916667133,
      "v": 81
    },
    {
      "midi": 58,
      "hit": false,
      "t": 56000.028000000064,
      "d": 1055.5560833333366,
      "v": 57
    },
    {
      "midi": 67,
      "hit": false,
      "t": 56000.028000000064,
      "d": 1058.3338625000033,
      "v": 83
    },
    {
      "midi": 51,
      "hit": false,
      "t": 56000.028000000064,
      "d": 1072.222758333337,
      "v": 85
    },
    {
      "midi": 70,
      "hit": false,
      "t": 56000.028000000064,
      "d": 1072.222758333337,
      "v": 65
    },
    {
      "midi": 63,
      "hit": false,
      "t": 56000.028000000064,
      "d": 1077.7783166666704,
      "v": 70
    },
    {
      "midi": 67,
      "hit": false,
      "t": 57333.36200000007,
      "d": 2394.4456416666726,
      "v": 85
    },
    {
      "midi": 51,
      "hit": false,
      "t": 57333.36200000007,
      "d": 2397.2234208333393,
      "v": 94
    },
    {
      "midi": 70,
      "hit": false,
      "t": 57333.36200000007,
      "d": 2397.2234208333393,
      "v": 76
    },
    {
      "midi": 63,
      "hit": false,
      "t": 57333.36200000007,
      "d": 2400.001200000006,
      "v": 76
    },
    {
      "midi": 58,
      "hit": false,
      "t": 57333.36200000007,
      "d": 2402.778979166673,
      "v": 80
    },
    {
      "midi": 67,
      "hit": false,
      "t": 60000.03000000007,
      "d": 327.7779416666672,
      "v": 82
    },
    {
      "midi": 63,
      "hit": false,
      "t": 60000.03000000007,
      "d": 341.66683750000084,
      "v": 78
    },
    {
      "midi": 51,
      "hit": false,
      "t": 60000.03000000007,
      "d": 361.11129166666797,
      "v": 80
    },
    {
      "midi": 58,
      "hit": false,
      "t": 60000.03000000007,
      "d": 377.77796666666836,
      "v": 80
    },
    {
      "midi": 65,
      "hit": false,
      "t": 61333.364000000074,
      "d": 697.2225708333353,
      "v": 85
    },
    {
      "midi": 70,
      "hit": false,
      "t": 61333.364000000074,
      "d": 711.111466666669,
      "v": 73
    },
    {
      "midi": 62,
      "hit": false,
      "t": 61333.364000000074,
      "d": 719.4448041666692,
      "v": 78
    },
    {
      "midi": 58,
      "hit": false,
      "t": 61333.364000000074,
      "d": 786.1115041666708,
      "v": 86
    },
    {
      "midi": 58,
      "hit": false,
      "t": 62666.69800000008,
      "d": 1730.5564208333308,
      "v": 71
    },
    {
      "midi": 67,
      "hit": false,
      "t": 62666.69800000008,
      "d": 1730.5564208333308,
      "v": 79
    },
    {
      "midi": 63,
      "hit": false,
      "t": 62666.69800000008,
      "d": 1741.6675374999977,
      "v": 80
    },
    {
      "midi": 51,
      "hit": false,
      "t": 62666.69800000008,
      "d": 1763.8897708333316,
      "v": 81
    },
    {
      "midi": 70,
      "hit": false,
      "t": 62666.69800000008,
      "d": 1772.2231083333318,
      "v": 61
    },
    {
      "midi": 63,
      "hit": false,
      "t": 65333.366000000075,
      "d": 416.66687499998807,
      "v": 76
    },
    {
      "midi": 60,
      "hit": false,
      "t": 65333.366000000075,
      "d": 441.6668874999814,
      "v": 83
    },
    {
      "midi": 72,
      "hit": false,
      "t": 65333.366000000075,
      "d": 475.0002374999822,
      "v": 87
    },
    {
      "midi": 56,
      "hit": false,
      "t": 65333.366000000075,
      "d": 480.55579583331564,
      "v": 66
    },
    {
      "midi": 68,
      "hit": false,
      "t": 65333.366000000075,
      "d": 480.55579583331564,
      "v": 81
    },
    {
      "midi": 58,
      "hit": false,
      "t": 66666.70000000006,
      "d": 1080.5560958333372,
      "v": 82
    },
    {
      "midi": 67,
      "hit": false,
      "t": 66666.70000000006,
      "d": 1080.5560958333372,
      "v": 66
    },
    {
      "midi": 51,
      "hit": false,
      "t": 66666.70000000006,
      "d": 1083.3338749999966,
      "v": 92
    },
    {
      "midi": 63,
      "hit": false,
      "t": 66666.70000000006,
      "d": 1086.111654166656,
      "v": 71
    },
    {
      "midi": 70,
      "hit": false,
      "t": 66666.70000000006,
      "d": 1091.6672124999895,
      "v": 77
    },
    {
      "midi": 63,
      "hit": false,
      "t": 68000.03400000004,
      "d": 583.3336249999993,
      "v": 74
    },
    {
      "midi": 60,
      "hit": false,
      "t": 68000.03400000004,
      "d": 588.8891833333328,
      "v": 92
    },
    {
      "midi": 72,
      "hit": false,
      "t": 68000.03400000004,
      "d": 600.0002999999997,
      "v": 94
    },
    {
      "midi": 68,
      "hit": false,
      "t": 68000.03400000004,
      "d": 608.3336374999926,
      "v": 86
    },
    {
      "midi": 56,
      "hit": false,
      "t": 68000.03400000004,
      "d": 619.4447541666595,
      "v": 85
    },
    {
      "midi": 67,
      "hit": false,
      "t": 69333.36800000003,
      "d": 558.3336124999914,
      "v": 82
    },
    {
      "midi": 70,
      "hit": false,
      "t": 69333.36800000003,
      "d": 566.6669499999844,
      "v": 67
    },
    {
      "midi": 63,
      "hit": false,
      "t": 69333.36800000003,
      "d": 583.3336249999847,
      "v": 79
    },
    {
      "midi": 58,
      "hit": false,
      "t": 69333.36800000003,
      "d": 591.6669624999777,
      "v": 70
    },
    {
      "midi": 51,
      "hit": false,
      "t": 69333.36800000003,
      "d": 611.1114166666375,
      "v": 89
    },
    {
      "midi": 58,
      "hit": false,
      "t": 70666.702,
      "d": 772.2226083333226,
      "v": 85
    },
    {
      "midi": 62,
      "hit": false,
      "t": 70666.702,
      "d": 786.111504166649,
      "v": 82
    },
    {
      "midi": 65,
      "hit": false,
      "t": 70666.702,
      "d": 797.2226208333159,
      "v": 90
    },
    {
      "midi": 70,
      "hit": false,
      "t": 70666.702,
      "d": 850.0004249999765,
      "v": 83
    },
    {
      "midi": 58,
      "hit": false,
      "t": 72000.03599999998,
      "d": 1127.7783416666643,
      "v": 73
    },
    {
      "midi": 63,
      "hit": false,
      "t": 72000.03599999998,
      "d": 1163.8894708333246,
      "v": 82
    },
    {
      "midi": 67,
      "hit": false,
      "t": 72000.03599999998,
      "d": 1180.556145833325,
      "v": 85
    },
    {
      "midi": 51,
      "hit": false,
      "t": 72000.03599999998,
      "d": 1200.0005999999848,
      "v": 80
    },
    {
      "midi": 58,
      "hit": false,
      "t": 73333.36999999997,
      "d": 516.6669249999977,
      "v": 123
    },
    {
      "midi": 51,
      "hit": false,
      "t": 73333.36999999997,
      "d": 611.1114166666666,
      "v": 127
    },
    {
      "midi": 67,
      "hit": false,
      "t": 73666.70349999996,
      "d": 361.11129166667524,
      "v": 123
    },
    {
      "midi": 63,
      "hit": false,
      "t": 73666.70349999996,
      "d": 375.00018750000163,
      "v": 127
    },
    {
      "midi": 70,
      "hit": false,
      "t": 73666.70349999996,
      "d": 450.00022499999614,
      "v": 127
    },
    {
      "midi": 58,
      "hit": false,
      "t": 74000.03699999997,
      "d": 113.88894583332876,
      "v": 119
    },
    {
      "midi": 63,
      "hit": false,
      "t": 74333.37049999996,
      "d": 97.22227083332837,
      "v": 119
    },
    {
      "midi": 70,
      "hit": false,
      "t": 74333.37049999996,
      "d": 113.88894583332876,
      "v": 123
    },
    {
      "midi": 68,
      "hit": false,
      "t": 74333.37049999996,
      "d": 122.22228333332168,
      "v": 127
    },
    {
      "midi": 51,
      "hit": false,
      "t": 74666.70399999995,
      "d": 683.3336750000017,
      "v": 123
    },
    {
      "midi": 67,
      "hit": false,
      "t": 75000.03749999996,
      "d": 161.1111916666705,
      "v": 115
    },
    {
      "midi": 63,
      "hit": false,
      "t": 75000.03749999996,
      "d": 208.33343749999767,
      "v": 119
    },
    {
      "midi": 70,
      "hit": false,
      "t": 75000.03749999996,
      "d": 225.00011249999807,
      "v": 127
    },
    {
      "midi": 65,
      "hit": false,
      "t": 75333.37099999996,
      "d": 361.1112916666607,
      "v": 127
    },
    {
      "midi": 70,
      "hit": false,
      "t": 75333.37099999996,
      "d": 380.55574583332054,
      "v": 123
    },
    {
      "midi": 63,
      "hit": false,
      "t": 75666.70449999995,
      "d": 119.44450416666223,
      "v": 127
    },
    {
      "midi": 44,
      "hit": false,
      "t": 76000.03799999994,
      "d": 861.111541666658,
      "v": 119
    },
    {
      "midi": 56,
      "hit": false,
      "t": 76333.37149999994,
      "d": 438.8891083333292,
      "v": 119
    },
    {
      "midi": 60,
      "hit": false,
      "t": 76333.37149999994,
      "d": 552.778054166658,
      "v": 123
    },
    {
      "midi": 63,
      "hit": false,
      "t": 76333.37149999994,
      "d": 633.3336499999859,
      "v": 127
    },
    {
      "midi": 56,
      "hit": false,
      "t": 76833.37174999993,
      "d": 155.55563333332248,
      "v": 119
    },
    {
      "midi": 58,
      "hit": false,
      "t": 77000.03849999992,
      "d": 108.3333874999953,
      "v": 127
    },
    {
      "midi": 63,
      "hit": false,
      "t": 77000.03849999992,
      "d": 144.44451666665555,
      "v": 115
    },
    {
      "midi": 51,
      "hit": false,
      "t": 77333.37199999992,
      "d": 883.3337749999628,
      "v": 123
    },
    {
      "midi": 67,
      "hit": false,
      "t": 77666.70549999991,
      "d": 369.4446291666536,
      "v": 119
    },
    {
      "midi": 70,
      "hit": false,
      "t": 77666.70549999991,
      "d": 411.1113166666473,
      "v": 123
    },
    {
      "midi": 63,
      "hit": false,
      "t": 77666.70549999991,
      "d": 413.8890958333068,
      "v": 123
    },
    {
      "midi": 58,
      "hit": false,
      "t": 78000.0389999999,
      "d": 108.33338749998074,
      "v": 115
    },
    {
      "midi": 65,
      "hit": false,
      "t": 78166.70574999988,
      "d": 169.44452916666341,
      "v": 127
    },
    {
      "midi": 70,
      "hit": false,
      "t": 78166.70574999988,
      "d": 225.00011249999807,
      "v": 123
    },
    {
      "midi": 63,
      "hit": false,
      "t": 78333.37249999988,
      "d": 147.22229583332955,
      "v": 127
    },
    {
      "midi": 44,
      "hit": false,
      "t": 78666.70599999987,
      "d": 819.4448541666643,
      "v": 115
    },
    {
      "midi": 56,
      "hit": false,
      "t": 79000.03949999987,
      "d": 369.44462916666816,
      "v": 127
    },
    {
      "midi": 60,
      "hit": false,
      "t": 79000.03949999987,
      "d": 469.44467916667054,
      "v": 127
    },
    {
      "midi": 63,
      "hit": false,
      "t": 79000.03949999987,
      "d": 488.8891333333304,
      "v": 127
    },
    {
      "midi": 63,
      "hit": false,
      "t": 79500.03974999987,
      "d": 50.00002500000119,
      "v": 61
    },
    {
      "midi": 56,
      "hit": false,
      "t": 79500.03974999987,
      "d": 100.00005000000237,
      "v": 119
    },
    {
      "midi": 58,
      "hit": false,
      "t": 79666.70649999987,
      "d": 108.3333874999953,
      "v": 123
    },
    {
      "midi": 63,
      "hit": false,
      "t": 79666.70649999987,
      "d": 141.6667374999961,
      "v": 123
    },
    {
      "midi": 58,
      "hit": false,
      "t": 80000.03999999986,
      "d": 416.66687499999534,
      "v": 123
    },
    {
      "midi": 51,
      "hit": false,
      "t": 80000.03999999986,
      "d": 2027.778791666613,
      "v": 123
    },
    {
      "midi": 67,
      "hit": false,
      "t": 80333.37349999986,
      "d": 352.7779541666532,
      "v": 119
    },
    {
      "midi": 70,
      "hit": false,
      "t": 80333.37349999986,
      "d": 380.55574583332054,
      "v": 127
    },
    {
      "midi": 63,
      "hit": false,
      "t": 80333.37349999986,
      "d": 388.88908333331347,
      "v": 123
    },
    {
      "midi": 58,
      "hit": false,
      "t": 80666.70699999985,
      "d": 175.00008749998233,
      "v": 119
    },
    {
      "midi": 65,
      "hit": false,
      "t": 80833.37374999984,
      "d": 172.22230833332287,
      "v": 127
    },
    {
      "midi": 70,
      "hit": false,
      "t": 80833.37374999984,
      "d": 202.77787916664965,
      "v": 127
    },
    {
      "midi": 58,
      "hit": false,
      "t": 81333.37399999982,
      "d": 280.5556958333327,
      "v": 85
    },
    {
      "midi": 63,
      "hit": false,
      "t": 81333.37399999982,
      "d": 438.8891083333292,
      "v": 119
    },
    {
      "midi": 70,
      "hit": false,
      "t": 81333.37399999982,
      "d": 469.444679166656,
      "v": 119
    },
    {
      "midi": 67,
      "hit": false,
      "t": 81333.37399999982,
      "d": 600.0002999999851,
      "v": 115
    },
    {
      "midi": 58,
      "hit": false,
      "t": 81666.70749999981,
      "d": 277.7779166666587,
      "v": 123
    },
    {
      "midi": 63,
      "hit": false,
      "t": 82000.04099999981,
      "d": 141.6667374999961,
      "v": 127
    },
    {
      "midi": 53,
      "hit": false,
      "t": 82666.7079999998,
      "d": 933.3337999999931,
      "v": 119
    },
    {
      "midi": 46,
      "hit": false,
      "t": 82666.7079999998,
      "d": 941.667137499986,
      "v": 123
    },
    {
      "midi": 58,
      "hit": false,
      "t": 83000.04149999979,
      "d": 111.1111666666693,
      "v": 127
    },
    {
      "midi": 65,
      "hit": false,
      "t": 83000.04149999979,
      "d": 111.1111666666693,
      "v": 127
    },
    {
      "midi": 62,
      "hit": false,
      "t": 83000.04149999979,
      "d": 138.88895833333663,
      "v": 127
    },
    {
      "midi": 63,
      "hit": false,
      "t": 83333.3749999998,
      "d": 61.11114166666812,
      "v": 127
    },
    {
      "midi": 60,
      "hit": false,
      "t": 83333.3749999998,
      "d": 69.44447916666104,
      "v": 127
    },
    {
      "midi": 65,
      "hit": false,
      "t": 83333.3749999998,
      "d": 75.0000374999945,
      "v": 127
    },
    {
      "midi": 58,
      "hit": false,
      "t": 83500.04174999979,
      "d": 186.11120416664926,
      "v": 119
    },
    {
      "midi": 62,
      "hit": false,
      "t": 83500.04174999979,
      "d": 197.2223208333162,
      "v": 127
    },
    {
      "midi": 65,
      "hit": false,
      "t": 83500.04174999979,
      "d": 238.8890083333099,
      "v": 119
    },
    {
      "midi": 53,
      "hit": false,
      "t": 83666.70849999978,
      "d": 111.1111666666402,
      "v": 127
    },
    {
      "midi": 63,
      "hit": false,
      "t": 84000.04199999975,
      "d": 152.77785416666302,
      "v": 87
    },
    {
      "midi": 70,
      "hit": false,
      "t": 84000.04199999975,
      "d": 152.77785416666302,
      "v": 85
    },
    {
      "midi": 67,
      "hit": false,
      "t": 84000.04199999975,
      "d": 163.88897083332995,
      "v": 89
    },
    {
      "midi": 58,
      "hit": false,
      "t": 84000.04199999975,
      "d": 466.666899999982,
      "v": 123
    },
    {
      "midi": 51,
      "hit": false,
      "t": 84000.04199999975,
      "d": 491.6669124999753,
      "v": 127
    },
    {
      "midi": 63,
      "hit": false,
      "t": 84333.37549999975,
      "d": 138.88895833332208,
      "v": 123
    },
    {
      "midi": 67,
      "hit": false,
      "t": 84333.37549999975,
      "d": 150.000074999989,
      "v": 123
    },
    {
      "midi": 70,
      "hit": false,
      "t": 84333.37549999975,
      "d": 152.77785416664847,
      "v": 123
    },
    {
      "midi": 65,
      "hit": false,
      "t": 84666.70899999973,
      "d": 525.0002625000052,
      "v": 123
    },
    {
      "midi": 68,
      "hit": false,
      "t": 84666.70899999973,
      "d": 530.5558208333387,
      "v": 127
    },
    {
      "midi": 70,
      "hit": false,
      "t": 84666.70899999973,
      "d": 536.1113791666721,
      "v": 123
    },
    {
      "midi": 67,
      "hit": false,
      "t": 85333.37599999973,
      "d": 411.11131666667643,
      "v": 106
    },
    {
      "midi": 63,
      "hit": false,
      "t": 85333.37599999973,
      "d": 572.2225083333469,
      "v": 119
    },
    {
      "midi": 70,
      "hit": false,
      "t": 85333.37599999973,
      "d": 575.0002875000064,
      "v": 115
    },
    {
      "midi": 51,
      "hit": false,
      "t": 85333.37599999973,
      "d": 669.4447791666607,
      "v": 119
    },
    {
      "midi": 58,
      "hit": false,
      "t": 85666.70949999974,
      "d": 238.889008333339,
      "v": 123
    },
    {
      "midi": 65,
      "hit": false,
      "t": 86000.04299999973,
      "d": 350.00017499999376,
      "v": 127
    },
    {
      "midi": 70,
      "hit": false,
      "t": 86000.04299999973,
      "d": 377.7779666666611,
      "v": 123
    },
    {
      "midi": 63,
      "hit": false,
      "t": 86333.37649999972,
      "d": 111.1111666666693,
      "v": 127
    },
    {
      "midi": 44,
      "hit": false,
      "t": 86666.70999999972,
      "d": 766.6670499999746,
      "v": 123
    },
    {
      "midi": 56,
      "hit": false,
      "t": 87000.04349999971,
      "d": 241.66678749999846,
      "v": 123
    },
    {
      "midi": 60,
      "hit": false,
      "t": 87000.04349999971,
      "d": 366.66684999999416,
      "v": 127
    },
    {
      "midi": 63,
      "hit": false,
      "t": 87000.04349999971,
      "d": 419.4446541666548,
      "v": 123
    },
    {
      "midi": 56,
      "hit": false,
      "t": 87333.3769999997,
      "d": 113.88894583331421,
      "v": 106
    },
    {
      "midi": 58,
      "hit": false,
      "t": 87500.04374999968,
      "d": 138.88895833333663,
      "v": 127
    },
    {
      "midi": 63,
      "hit": false,
      "t": 87500.04374999968,
      "d": 222.2223333333386,
      "v": 127
    },
    {
      "midi": 58,
      "hit": false,
      "t": 88000.04399999967,
      "d": 255.5556833333394,
      "v": 66
    },
    {
      "midi": 51,
      "hit": false,
      "t": 88000.04399999967,
      "d": 1038.8894083333143,
      "v": 102
    },
    {
      "midi": 63,
      "hit": false,
      "t": 88333.37749999968,
      "d": 375.0001874999871,
      "v": 123
    },
    {
      "midi": 67,
      "hit": false,
      "t": 88333.37749999968,
      "d": 405.55575833331386,
      "v": 127
    },
    {
      "midi": 70,
      "hit": false,
      "t": 88333.37749999968,
      "d": 447.2224458333076,
      "v": 127
    },
    {
      "midi": 58,
      "hit": false,
      "t": 88666.71099999968,
      "d": 194.44454166664218,
      "v": 123
    },
    {
      "midi": 63,
      "hit": false,
      "t": 88833.37774999965,
      "d": 138.88895833333663,
      "v": 123
    },
    {
      "midi": 58,
      "hit": false,
      "t": 89000.04449999965,
      "d": 108.3333874999953,
      "v": 123
    },
    {
      "midi": 51,
      "hit": false,
      "t": 89333.37799999965,
      "d": 561.1113916666509,
      "v": 127
    },
    {
      "midi": 67,
      "hit": false,
      "t": 89666.71149999964,
      "d": 205.55565833332366,
      "v": 123
    },
    {
      "midi": 63,
      "hit": false,
      "t": 89666.71149999964,
      "d": 241.6667874999839,
      "v": 119
    },
    {
      "midi": 70,
      "hit": false,
      "t": 89666.71149999964,
      "d": 272.2223583333107,
      "v": 123
    },
    {
      "midi": 63,
      "hit": false,
      "t": 90000.0449999996,
      "d": 269.4445791666658,
      "v": 115
    },
    {
      "midi": 68,
      "hit": false,
      "t": 90000.0449999996,
      "d": 286.1112541666662,
      "v": 106
    },
    {
      "midi": 70,
      "hit": false,
      "t": 90000.0449999996,
      "d": 302.7779291666666,
      "v": 82
    },
    {
      "midi": 68,
      "hit": false,
      "t": 90333.3784999996,
      "d": 241.66678749999846,
      "v": 127
    },
    {
      "midi": 63,
      "hit": false,
      "t": 90333.3784999996,
      "d": 252.7779041666654,
      "v": 123
    },
    {
      "midi": 70,
      "hit": false,
      "t": 90333.3784999996,
      "d": 283.3334749999922,
      "v": 127
    },
    {
      "midi": 51,
      "hit": false,
      "t": 90666.71199999959,
      "d": 800.0003999999899,
      "v": 127
    },
    {
      "midi": 67,
      "hit": false,
      "t": 91000.04549999959,
      "d": 175.00008749999688,
      "v": 110
    },
    {
      "midi": 63,
      "hit": false,
      "t": 91000.04549999959,
      "d": 311.1112666666595,
      "v": 110
    },
    {
      "midi": 70,
      "hit": false,
      "t": 91000.04549999959,
      "d": 552.778054166658,
      "v": 119
    },
    {
      "midi": 65,
      "hit": false,
      "t": 91333.37899999958,
      "d": 177.7778666666709,
      "v": 123
    },
    {
      "midi": 63,
      "hit": false,
      "t": 91500.04574999958,
      "d": 136.11117916666262,
      "v": 127
    },
    {
      "midi": 53,
      "hit": false,
      "t": 91833.37924999958,
      "d": 105.55560833333584,
      "v": 115
    },
    {
      "midi": 46,
      "hit": false,
      "t": 92000.04599999958,
      "d": 794.4448416666419,
      "v": 127
    },
    {
      "midi": 58,
      "hit": false,
      "t": 92333.37949999957,
      "d": 386.111304166654,
      "v": 123
    },
    {
      "midi": 62,
      "hit": false,
      "t": 92333.37949999957,
      "d": 477.7780166666489,
      "v": 127
    },
    {
      "midi": 65,
      "hit": false,
      "t": 92333.37949999957,
      "d": 588.8891833333182,
      "v": 127
    },
    {
      "midi": 53,
      "hit": false,
      "t": 92666.71299999957,
      "d": 155.55563333332248,
      "v": 110
    },
    {
      "midi": 58,
      "hit": false,
      "t": 92833.37974999956,
      "d": 205.55565833333822,
      "v": 123
    },
    {
      "midi": 62,
      "hit": false,
      "t": 93000.04649999956,
      "d": 108.3333874999953,
      "v": 127
    },
    {
      "midi": 58,
      "hit": false,
      "t": 93333.37999999955,
      "d": 980.5560458332911,
      "v": 123
    },
    {
      "midi": 51,
      "hit": false,
      "t": 93333.37999999955,
      "d": 2397.2234208332666,
      "v": 119
    },
    {
      "midi": 75,
      "hit": false,
      "t": 93666.71349999955,
      "d": 105.55560833333584,
      "v": 127
    },
    {
      "midi": 67,
      "hit": false,
      "t": 93666.71349999955,
      "d": 119.44450416666223,
      "v": 127
    },
    {
      "midi": 75,
      "hit": false,
      "t": 93833.38024999954,
      "d": 86.11115416666144,
      "v": 73
    },
    {
      "midi": 70,
      "hit": false,
      "t": 94166.71374999953,
      "d": 86.11115416666144,
      "v": 127
    },
    {
      "midi": 75,
      "hit": false,
      "t": 94166.71374999953,
      "d": 94.44449166665436,
      "v": 127
    },
    {
      "midi": 75,
      "hit": false,
      "t": 94666.71399999951,
      "d": 83.33337500000198,
      "v": 127
    },
    {
      "midi": 67,
      "hit": false,
      "t": 94666.71399999951,
      "d": 105.55560833333584,
      "v": 127
    },
    {
      "midi": 58,
      "hit": false,
      "t": 95000.04749999952,
      "d": 369.4446291666536,
      "v": 119
    },
    {
      "midi": 67,
      "hit": false,
      "t": 95333.38099999951,
      "d": 133.33339999998861,
      "v": 119
    },
    {
      "midi": 63,
      "hit": false,
      "t": 95333.38099999951,
      "d": 147.222295833315,
      "v": 123
    },
    {
      "midi": 70,
      "hit": false,
      "t": 95333.38099999951,
      "d": 147.222295833315,
      "v": 123
    },
    {
      "midi": 65,
      "hit": false,
      "t": 95666.71449999949,
      "d": 175.00008749999688,
      "v": 127
    },
    {
      "midi": 70,
      "hit": false,
      "t": 95666.71449999949,
      "d": 208.33343749999767,
      "v": 127
    },
    {
      "midi": 63,
      "hit": false,
      "t": 96000.04799999949,
      "d": 261.11124166667287,
      "v": 94
    },
    {
      "midi": 70,
      "hit": false,
      "t": 96000.04799999949,
      "d": 491.6669125000044,
      "v": 102
    },
    {
      "midi": 67,
      "hit": false,
      "t": 96000.04799999949,
      "d": 502.77802916667133,
      "v": 90
    },
    {
      "midi": 58,
      "hit": false,
      "t": 96000.04799999949,
      "d": 836.1115291666647,
      "v": 90
    },
    {
      "midi": 51,
      "hit": false,
      "t": 96000.04799999949,
      "d": 1138.8894583333167,
      "v": 106
    },
    {
      "midi": 67,
      "hit": false,
      "t": 96666.71499999949,
      "d": 177.77786666665634,
      "v": 106
    },
    {
      "midi": 63,
      "hit": false,
      "t": 96666.71499999949,
      "d": 188.88898333332327,
      "v": 123
    },
    {
      "midi": 70,
      "hit": false,
      "t": 96666.71499999949,
      "d": 219.44455416665005,
      "v": 123
    },
    {
      "midi": 65,
      "hit": false,
      "t": 97000.04849999947,
      "d": 172.22230833333742,
      "v": 123
    },
    {
      "midi": 70,
      "hit": false,
      "t": 97000.04849999947,
      "d": 177.7778666666709,
      "v": 123
    },
    {
      "midi": 63,
      "hit": false,
      "t": 97333.38199999946,
      "d": 413.8890958333359,
      "v": 102
    },
    {
      "midi": 70,
      "hit": false,
      "t": 97333.38199999946,
      "d": 458.3335625000036,
      "v": 119
    },
    {
      "midi": 67,
      "hit": false,
      "t": 97333.38199999946,
      "d": 530.5558208333387,
      "v": 115
    },
    {
      "midi": 51,
      "hit": false,
      "t": 97333.38199999946,
      "d": 994.4449416666612,
      "v": 102
    },
    {
      "midi": 58,
      "hit": false,
      "t": 97666.71549999947,
      "d": 347.22239583331975,
      "v": 123
    },
    {
      "midi": 63,
      "hit": false,
      "t": 98000.04899999946,
      "d": 308.33348750000005,
      "v": 127
    },
    {
      "midi": 64,
      "hit": false,
      "t": 98666.71599999945,
      "d": 1880.556495833327,
      "v": 86
    },
    {
      "midi": 68,
      "hit": false,
      "t": 98666.71599999945,
      "d": 1888.88983333332,
      "v": 85
    },
    {
      "midi": 52,
      "hit": false,
      "t": 98666.71599999945,
      "d": 1938.8898583333212,
      "v": 90
    },
    {
      "midi": 59,
      "hit": false,
      "t": 98666.71599999945,
      "d": 1938.8898583333212,
      "v": 86
    },
    {
      "midi": 69,
      "hit": false,
      "t": 101333.38399999942,
      "d": 486.11135416667094,
      "v": 83
    },
    {
      "midi": 73,
      "hit": false,
      "t": 101333.38399999942,
      "d": 486.11135416667094,
      "v": 85
    },
    {
      "midi": 64,
      "hit": false,
      "t": 101333.38399999942,
      "d": 491.6669125000044,
      "v": 73
    },
    {
      "midi": 61,
      "hit": false,
      "t": 101333.38399999942,
      "d": 494.44469166666386,
      "v": 82
    },
    {
      "midi": 57,
      "hit": false,
      "t": 101333.38399999942,
      "d": 502.7780291666568,
      "v": 81
    },
    {
      "midi": 59,
      "hit": false,
      "t": 102666.71799999941,
      "d": 1055.5560833333293,
      "v": 57
    },
    {
      "midi": 68,
      "hit": false,
      "t": 102666.71799999941,
      "d": 1058.3338624999888,
      "v": 83
    },
    {
      "midi": 52,
      "hit": false,
      "t": 102666.71799999941,
      "d": 1072.2227583333151,
      "v": 85
    },
    {
      "midi": 71,
      "hit": false,
      "t": 102666.71799999941,
      "d": 1072.2227583333151,
      "v": 65
    },
    {
      "midi": 64,
      "hit": false,
      "t": 102666.71799999941,
      "d": 1077.7783166666486,
      "v": 70
    },
    {
      "midi": 68,
      "hit": false,
      "t": 104000.0519999994,
      "d": 2394.4456416666653,
      "v": 85
    },
    {
      "midi": 52,
      "hit": false,
      "t": 104000.0519999994,
      "d": 2397.223420833325,
      "v": 94
    },
    {
      "midi": 71,
      "hit": false,
      "t": 104000.0519999994,
      "d": 2397.223420833325,
      "v": 76
    },
    {
      "midi": 64,
      "hit": false,
      "t": 104000.0519999994,
      "d": 2400.0011999999842,
      "v": 76
    },
    {
      "midi": 59,
      "hit": false,
      "t": 104000.0519999994,
      "d": 2402.7789791666437,
      "v": 80
    },
    {
      "midi": 68,
      "hit": false,
      "t": 106666.71999999938,
      "d": 327.7779416666599,
      "v": 82
    },
    {
      "midi": 64,
      "hit": false,
      "t": 106666.71999999938,
      "d": 341.6668374999863,
      "v": 78
    },
    {
      "midi": 52,
      "hit": false,
      "t": 106666.71999999938,
      "d": 361.11129166664614,
      "v": 80
    },
    {
      "midi": 59,
      "hit": false,
      "t": 106666.71999999938,
      "d": 377.77796666664653,
      "v": 80
    },
    {
      "midi": 66,
      "hit": false,
      "t": 108000.05399999935,
      "d": 697.2225708333281,
      "v": 85
    },
    {
      "midi": 71,
      "hit": false,
      "t": 108000.05399999935,
      "d": 711.1114666666545,
      "v": 73
    },
    {
      "midi": 63,
      "hit": false,
      "t": 108000.05399999935,
      "d": 719.4448041666474,
      "v": 78
    },
    {
      "midi": 59,
      "hit": false,
      "t": 108000.05399999935,
      "d": 786.1115041666344,
      "v": 86
    },
    {
      "midi": 59,
      "hit": false,
      "t": 109333.38799999932,
      "d": 1730.556420833338,
      "v": 71
    },
    {
      "midi": 68,
      "hit": false,
      "t": 109333.38799999932,
      "d": 1730.556420833338,
      "v": 79
    },
    {
      "midi": 64,
      "hit": false,
      "t": 109333.38799999932,
      "d": 1741.667537500005,
      "v": 80
    },
    {
      "midi": 52,
      "hit": false,
      "t": 109333.38799999932,
      "d": 1763.8897708333388,
      "v": 81
    },
    {
      "midi": 71,
      "hit": false,
      "t": 109333.38799999932,
      "d": 1772.2231083333318,
      "v": 61
    },
    {
      "midi": 64,
      "hit": false,
      "t": 112000.05599999933,
      "d": 416.66687499999534,
      "v": 76
    },
    {
      "midi": 61,
      "hit": false,
      "t": 112000.05599999933,
      "d": 441.66688749998866,
      "v": 83
    },
    {
      "midi": 73,
      "hit": false,
      "t": 112000.05599999933,
      "d": 475.00023749998945,
      "v": 87
    },
    {
      "midi": 57,
      "hit": false,
      "t": 112000.05599999933,
      "d": 480.5557958333229,
      "v": 66
    },
    {
      "midi": 69,
      "hit": false,
      "t": 112000.05599999933,
      "d": 480.5557958333229,
      "v": 81
    },
    {
      "midi": 59,
      "hit": false,
      "t": 113333.38999999932,
      "d": 1080.5560958333372,
      "v": 82
    },
    {
      "midi": 68,
      "hit": false,
      "t": 113333.38999999932,
      "d": 1080.5560958333372,
      "v": 66
    },
    {
      "midi": 52,
      "hit": false,
      "t": 113333.38999999932,
      "d": 1083.3338749999966,
      "v": 92
    },
    {
      "midi": 64,
      "hit": false,
      "t": 113333.38999999932,
      "d": 1086.111654166656,
      "v": 71
    },
    {
      "midi": 71,
      "hit": false,
      "t": 113333.38999999932,
      "d": 1091.6672124999895,
      "v": 77
    },
    {
      "midi": 64,
      "hit": false,
      "t": 114666.7239999993,
      "d": 583.3336249999993,
      "v": 74
    },
    {
      "midi": 61,
      "hit": false,
      "t": 114666.7239999993,
      "d": 588.8891833333328,
      "v": 92
    },
    {
      "midi": 73,
      "hit": false,
      "t": 114666.7239999993,
      "d": 600.0002999999997,
      "v": 94
    },
    {
      "midi": 69,
      "hit": false,
      "t": 114666.7239999993,
      "d": 608.3336374999926,
      "v": 86
    },
    {
      "midi": 57,
      "hit": false,
      "t": 114666.7239999993,
      "d": 619.4447541666595,
      "v": 85
    },
    {
      "midi": 68,
      "hit": false,
      "t": 116000.05799999929,
      "d": 558.3336124999914,
      "v": 82
    },
    {
      "midi": 71,
      "hit": false,
      "t": 116000.05799999929,
      "d": 566.6669499999844,
      "v": 67
    },
    {
      "midi": 64,
      "hit": false,
      "t": 116000.05799999929,
      "d": 583.3336249999847,
      "v": 79
    },
    {
      "midi": 59,
      "hit": false,
      "t": 116000.05799999929,
      "d": 591.6669624999777,
      "v": 70
    },
    {
      "midi": 52,
      "hit": false,
      "t": 116000.05799999929,
      "d": 611.1114166666375,
      "v": 89
    },
    {
      "midi": 59,
      "hit": false,
      "t": 117333.39199999926,
      "d": 772.2226083333226,
      "v": 85
    },
    {
      "midi": 63,
      "hit": false,
      "t": 117333.39199999926,
      "d": 786.111504166649,
      "v": 82
    },
    {
      "midi": 66,
      "hit": false,
      "t": 117333.39199999926,
      "d": 797.2226208333159,
      "v": 90
    },
    {
      "midi": 71,
      "hit": false,
      "t": 117333.39199999926,
      "d": 850.0004249999765,
      "v": 83
    },
    {
      "midi": 59,
      "hit": false,
      "t": 118666.72599999924,
      "d": 1127.7783416666643,
      "v": 73
    },
    {
      "midi": 64,
      "hit": false,
      "t": 118666.72599999924,
      "d": 1163.8894708333246,
      "v": 82
    },
    {
      "midi": 68,
      "hit": false,
      "t": 118666.72599999924,
      "d": 1180.556145833325,
      "v": 85
    },
    {
      "midi": 52,
      "hit": false,
      "t": 118666.72599999924,
      "d": 1200.0005999999848,
      "v": 80
    },
    {
      "midi": 64,
      "hit": false,
      "t": 120000.05999999923,
      "d": 1880.556495833327,
      "v": 86
    },
    {
      "midi": 68,
      "hit": false,
      "t": 120000.05999999923,
      "d": 1888.88983333332,
      "v": 85
    },
    {
      "midi": 52,
      "hit": false,
      "t": 120000.05999999923,
      "d": 1938.8898583333212,
      "v": 90
    },
    {
      "midi": 59,
      "hit": false,
      "t": 120000.05999999923,
      "d": 1938.8898583333212,
      "v": 86
    },
    {
      "midi": 69,
      "hit": false,
      "t": 122666.7279999992,
      "d": 486.11135416667094,
      "v": 83
    },
    {
      "midi": 73,
      "hit": false,
      "t": 122666.7279999992,
      "d": 486.11135416667094,
      "v": 85
    },
    {
      "midi": 64,
      "hit": false,
      "t": 122666.7279999992,
      "d": 491.6669125000044,
      "v": 73
    },
    {
      "midi": 61,
      "hit": false,
      "t": 122666.7279999992,
      "d": 494.44469166666386,
      "v": 82
    },
    {
      "midi": 57,
      "hit": false,
      "t": 122666.7279999992,
      "d": 502.7780291666568,
      "v": 81
    },
    {
      "midi": 59,
      "hit": false,
      "t": 124000.06199999919,
      "d": 1055.5560833333293,
      "v": 57
    },
    {
      "midi": 68,
      "hit": false,
      "t": 124000.06199999919,
      "d": 1058.3338624999888,
      "v": 83
    },
    {
      "midi": 52,
      "hit": false,
      "t": 124000.06199999919,
      "d": 1072.2227583333151,
      "v": 85
    },
    {
      "midi": 71,
      "hit": false,
      "t": 124000.06199999919,
      "d": 1072.2227583333151,
      "v": 65
    },
    {
      "midi": 64,
      "hit": false,
      "t": 124000.06199999919,
      "d": 1077.7783166666486,
      "v": 70
    },
    {
      "midi": 68,
      "hit": false,
      "t": 125333.39599999918,
      "d": 2394.4456416666653,
      "v": 85
    },
    {
      "midi": 52,
      "hit": false,
      "t": 125333.39599999918,
      "d": 2397.223420833325,
      "v": 94
    },
    {
      "midi": 71,
      "hit": false,
      "t": 125333.39599999918,
      "d": 2397.223420833325,
      "v": 76
    },
    {
      "midi": 64,
      "hit": false,
      "t": 125333.39599999918,
      "d": 2400.0011999999842,
      "v": 76
    },
    {
      "midi": 59,
      "hit": false,
      "t": 125333.39599999918,
      "d": 2402.7789791666437,
      "v": 80
    },
    {
      "midi": 68,
      "hit": false,
      "t": 128000.06399999915,
      "d": 327.7779416666599,
      "v": 82
    },
    {
      "midi": 64,
      "hit": false,
      "t": 128000.06399999915,
      "d": 341.6668374999863,
      "v": 78
    },
    {
      "midi": 52,
      "hit": false,
      "t": 128000.06399999915,
      "d": 361.11129166664614,
      "v": 80
    },
    {
      "midi": 59,
      "hit": false,
      "t": 128000.06399999915,
      "d": 377.77796666664653,
      "v": 80
    },
    {
      "midi": 66,
      "hit": false,
      "t": 129333.39799999913,
      "d": 697.2225708333281,
      "v": 85
    },
    {
      "midi": 71,
      "hit": false,
      "t": 129333.39799999913,
      "d": 711.1114666666545,
      "v": 73
    },
    {
      "midi": 63,
      "hit": false,
      "t": 129333.39799999913,
      "d": 719.4448041666474,
      "v": 78
    },
    {
      "midi": 59,
      "hit": false,
      "t": 129333.39799999913,
      "d": 786.1115041666344,
      "v": 86
    },
    {
      "midi": 68,
      "hit": false,
      "t": 130666.7319999991,
      "d": 1980.556545833344,
      "v": 110
    },
    {
      "midi": 64,
      "hit": false,
      "t": 130666.7319999991,
      "d": 2011.1121166666708,
      "v": 127
    },
    {
      "midi": 52,
      "hit": false,
      "t": 130666.7319999991,
      "d": 2030.5565708333306,
      "v": 119
    },
    {
      "midi": 59,
      "hit": false,
      "t": 130666.7319999991,
      "d": 2080.5565958333173,
      "v": 119
    },
    {
      "midi": 57,
      "hit": false,
      "t": 133333.39999999906,
      "d": 722.2225833333214,
      "v": 89
    },
    {
      "midi": 61,
      "hit": false,
      "t": 133333.39999999906,
      "d": 747.2225958333293,
      "v": 86
    },
    {
      "midi": 64,
      "hit": false,
      "t": 133333.39999999906,
      "d": 752.7781541666482,
      "v": 94
    },
    {
      "midi": 45,
      "hit": false,
      "t": 133333.39999999906,
      "d": 755.5559333333222,
      "v": 102
    },
    {
      "midi": 59,
      "hit": false,
      "t": 134666.73399999907,
      "d": 713.8892458333285,
      "v": 98
    },
    {
      "midi": 64,
      "hit": false,
      "t": 134666.73399999907,
      "d": 733.3336999999883,
      "v": 92
    },
    {
      "midi": 52,
      "hit": false,
      "t": 134666.73399999907,
      "d": 755.5559333333222,
      "v": 82
    },
    {
      "midi": 56,
      "hit": false,
      "t": 134666.73399999907,
      "d": 769.4448291666631,
      "v": 86
    },
    {
      "midi": 61,
      "hit": false,
      "t": 136000.06799999907,
      "d": 830.5559708333167,
      "v": 90
    },
    {
      "midi": 64,
      "hit": false,
      "t": 136000.06799999907,
      "d": 838.8893083333096,
      "v": 92
    },
    {
      "midi": 57,
      "hit": false,
      "t": 136000.06799999907,
      "d": 852.7782041666505,
      "v": 89
    },
    {
      "midi": 45,
      "hit": false,
      "t": 136000.06799999907,
      "d": 855.5559833333245,
      "v": 106
    },
    {
      "midi": 59,
      "hit": false,
      "t": 137333.40199999907,
      "d": 766.6670499999891,
      "v": 92
    },
    {
      "midi": 64,
      "hit": false,
      "t": 137333.40199999907,
      "d": 775.000387499982,
      "v": 85
    },
    {
      "midi": 56,
      "hit": false,
      "t": 137333.40199999907,
      "d": 794.4448416666419,
      "v": 82
    },
    {
      "midi": 52,
      "hit": false,
      "t": 137333.40199999907,
      "d": 844.4448666666285,
      "v": 83
    },
    {
      "midi": 59,
      "hit": false,
      "t": 138666.73599999901,
      "d": 772.222608333308,
      "v": 86
    },
    {
      "midi": 63,
      "hit": false,
      "t": 138666.73599999901,
      "d": 777.7781666666269,
      "v": 90
    },
    {
      "midi": 54,
      "hit": false,
      "t": 138666.73599999901,
      "d": 786.1115041666199,
      "v": 87
    },
    {
      "midi": 47,
      "hit": false,
      "t": 138666.73599999901,
      "d": 825.0004124999396,
      "v": 115
    },
    {
      "midi": 64,
      "hit": false,
      "t": 140166.73674999896,
      "d": 77.77781666666851,
      "v": 115
    },
    {
      "midi": 76,
      "hit": false,
      "t": 140166.73674999896,
      "d": 83.33337499998743,
      "v": 123
    },
    {
      "midi": 64,
      "hit": false,
      "t": 140333.40349999894,
      "d": 69.44447916667559,
      "v": 98
    },
    {
      "midi": 76,
      "hit": false,
      "t": 140333.40349999894,
      "d": 80.55559583334252,
      "v": 102
    },
    {
      "midi": 76,
      "hit": false,
      "t": 140500.07024999894,
      "d": 63.888920833327575,
      "v": 119
    },
    {
      "midi": 64,
      "hit": false,
      "t": 140500.07024999894,
      "d": 66.66670000000158,
      "v": 106
    },
    {
      "midi": 64,
      "hit": false,
      "t": 140666.73699999895,
      "d": 66.66670000000158,
      "v": 123
    },
    {
      "midi": 76,
      "hit": false,
      "t": 140666.73699999895,
      "d": 69.44447916667559,
      "v": 127
    },
    {
      "midi": 64,
      "hit": false,
      "t": 140833.40374999895,
      "d": 63.888920833327575,
      "v": 127
    },
    {
      "midi": 76,
      "hit": false,
      "t": 140833.40374999895,
      "d": 69.44447916664649,
      "v": 127
    },
    {
      "midi": 64,
      "hit": false,
      "t": 141000.07049999892,
      "d": 66.66670000000158,
      "v": 127
    },
    {
      "midi": 76,
      "hit": false,
      "t": 141000.07049999892,
      "d": 77.77781666666851,
      "v": 127
    },
    {
      "midi": 64,
      "hit": false,
      "t": 141166.73724999893,
      "d": 52.777804166660644,
      "v": 127
    },
    {
      "midi": 76,
      "hit": false,
      "t": 141166.73724999893,
      "d": 61.111141666653566,
      "v": 127
    },
    {
      "midi": 59,
      "hit": false,
      "t": 141333.4039999989,
      "d": 516.6669249999977,
      "v": 123
    },
    {
      "midi": 52,
      "hit": false,
      "t": 141333.4039999989,
      "d": 611.1114166666521,
      "v": 127
    },
    {
      "midi": 68,
      "hit": false,
      "t": 141666.7374999989,
      "d": 361.1112916666316,
      "v": 123
    },
    {
      "midi": 64,
      "hit": false,
      "t": 141666.7374999989,
      "d": 375.0001874999725,
      "v": 127
    },
    {
      "midi": 71,
      "hit": false,
      "t": 141666.7374999989,
      "d": 450.00022499996703,
      "v": 127
    },
    {
      "midi": 59,
      "hit": false,
      "t": 142000.0709999989,
      "d": 113.88894583331421,
      "v": 119
    },
    {
      "midi": 64,
      "hit": false,
      "t": 142333.40449999887,
      "d": 97.22227083332837,
      "v": 119
    },
    {
      "midi": 71,
      "hit": false,
      "t": 142333.40449999887,
      "d": 113.88894583331421,
      "v": 123
    },
    {
      "midi": 69,
      "hit": false,
      "t": 142333.40449999887,
      "d": 122.22228333330713,
      "v": 127
    },
    {
      "midi": 52,
      "hit": false,
      "t": 142666.73799999885,
      "d": 683.3336749999726,
      "v": 123
    },
    {
      "midi": 68,
      "hit": false,
      "t": 143000.07149999886,
      "d": 161.11119166665594,
      "v": 115
    },
    {
      "midi": 64,
      "hit": false,
      "t": 143000.07149999886,
      "d": 208.33343749999767,
      "v": 119
    },
    {
      "midi": 71,
      "hit": false,
      "t": 143000.07149999886,
      "d": 225.00011249998352,
      "v": 127
    },
    {
      "midi": 66,
      "hit": false,
      "t": 143333.40499999883,
      "d": 361.1112916666316,
      "v": 127
    },
    {
      "midi": 71,
      "hit": false,
      "t": 143333.40499999883,
      "d": 380.55574583329144,
      "v": 123
    },
    {
      "midi": 64,
      "hit": false,
      "t": 143666.7384999988,
      "d": 119.44450416663312,
      "v": 127
    },
    {
      "midi": 45,
      "hit": false,
      "t": 144000.0719999988,
      "d": 861.1115416666435,
      "v": 119
    },
    {
      "midi": 57,
      "hit": false,
      "t": 144333.4054999988,
      "d": 438.8891083333292,
      "v": 119
    },
    {
      "midi": 61,
      "hit": false,
      "t": 144333.4054999988,
      "d": 552.7780541666434,
      "v": 123
    },
    {
      "midi": 64,
      "hit": false,
      "t": 144333.4054999988,
      "d": 633.3336499999859,
      "v": 127
    },
    {
      "midi": 57,
      "hit": false,
      "t": 144833.40574999878,
      "d": 155.55563333333703,
      "v": 119
    },
    {
      "midi": 59,
      "hit": false,
      "t": 145000.0724999988,
      "d": 108.3333874999953,
      "v": 127
    },
    {
      "midi": 64,
      "hit": false,
      "t": 145000.0724999988,
      "d": 144.4445166666701,
      "v": 115
    },
    {
      "midi": 52,
      "hit": false,
      "t": 145333.40599999877,
      "d": 883.3337750000064,
      "v": 123
    },
    {
      "midi": 68,
      "hit": false,
      "t": 145666.73949999877,
      "d": 369.4446291666827,
      "v": 119
    },
    {
      "midi": 71,
      "hit": false,
      "t": 145666.73949999877,
      "d": 411.11131666667643,
      "v": 123
    },
    {
      "midi": 64,
      "hit": false,
      "t": 145666.73949999877,
      "d": 413.88909583335044,
      "v": 123
    },
    {
      "midi": 59,
      "hit": false,
      "t": 146000.07299999878,
      "d": 108.3333874999953,
      "v": 115
    },
    {
      "midi": 66,
      "hit": false,
      "t": 146166.7397499988,
      "d": 169.44452916664886,
      "v": 127
    },
    {
      "midi": 71,
      "hit": false,
      "t": 146166.7397499988,
      "d": 225.00011249998352,
      "v": 123
    },
    {
      "midi": 64,
      "hit": false,
      "t": 146333.40649999876,
      "d": 147.2222958333441,
      "v": 127
    },
    {
      "midi": 45,
      "hit": false,
      "t": 146666.73999999877,
      "d": 819.4448541666789,
      "v": 115
    },
    {
      "midi": 57,
      "hit": false,
      "t": 147000.07349999878,
      "d": 369.4446291666827,
      "v": 127
    },
    {
      "midi": 61,
      "hit": false,
      "t": 147000.07349999878,
      "d": 469.4446791666851,
      "v": 127
    },
    {
      "midi": 64,
      "hit": false,
      "t": 147000.07349999878,
      "d": 488.88913333334494,
      "v": 127
    },
    {
      "midi": 64,
      "hit": false,
      "t": 147500.0737499988,
      "d": 50.000024999986636,
      "v": 61
    },
    {
      "midi": 57,
      "hit": false,
      "t": 147500.0737499988,
      "d": 100.00004999997327,
      "v": 119
    },
    {
      "midi": 59,
      "hit": false,
      "t": 147666.74049999876,
      "d": 108.3333874999953,
      "v": 123
    },
    {
      "midi": 64,
      "hit": false,
      "t": 147666.74049999876,
      "d": 141.6667374999961,
      "v": 123
    },
    {
      "midi": 59,
      "hit": false,
      "t": 148000.07399999874,
      "d": 416.66687499999534,
      "v": 123
    },
    {
      "midi": 52,
      "hit": false,
      "t": 148000.07399999874,
      "d": 2027.778791666613,
      "v": 123
    },
    {
      "midi": 68,
      "hit": false,
      "t": 148333.40749999875,
      "d": 352.77795416666777,
      "v": 119
    },
    {
      "midi": 71,
      "hit": false,
      "t": 148333.40749999875,
      "d": 380.55574583332054,
      "v": 127
    },
    {
      "midi": 64,
      "hit": false,
      "t": 148333.40749999875,
      "d": 388.88908333331347,
      "v": 123
    },
    {
      "midi": 59,
      "hit": false,
      "t": 148666.74099999876,
      "d": 175.00008749996778,
      "v": 119
    },
    {
      "midi": 66,
      "hit": false,
      "t": 148833.40774999873,
      "d": 172.22230833332287,
      "v": 127
    },
    {
      "midi": 71,
      "hit": false,
      "t": 148833.40774999873,
      "d": 202.77787916664965,
      "v": 127
    },
    {
      "midi": 59,
      "hit": false,
      "t": 149333.40799999872,
      "d": 280.5556958333473,
      "v": 85
    },
    {
      "midi": 64,
      "hit": false,
      "t": 149333.40799999872,
      "d": 438.8891083333292,
      "v": 119
    },
    {
      "midi": 71,
      "hit": false,
      "t": 149333.40799999872,
      "d": 469.444679166656,
      "v": 119
    },
    {
      "midi": 68,
      "hit": false,
      "t": 149333.40799999872,
      "d": 600.0002999999851,
      "v": 115
    },
    {
      "midi": 59,
      "hit": false,
      "t": 149666.74149999872,
      "d": 277.77791666664416,
      "v": 123
    },
    {
      "midi": 64,
      "hit": false,
      "t": 150000.0749999987,
      "d": 141.6667374999961,
      "v": 127
    },
    {
      "midi": 54,
      "hit": false,
      "t": 150666.7419999987,
      "d": 933.3337999999058,
      "v": 119
    },
    {
      "midi": 47,
      "hit": false,
      "t": 150666.7419999987,
      "d": 941.6671374998987,
      "v": 123
    },
    {
      "midi": 59,
      "hit": false,
      "t": 151000.07549999867,
      "d": 111.1111666666693,
      "v": 127
    },
    {
      "midi": 66,
      "hit": false,
      "t": 151000.07549999867,
      "d": 111.1111666666693,
      "v": 127
    },
    {
      "midi": 63,
      "hit": false,
      "t": 151000.07549999867,
      "d": 138.88895833332208,
      "v": 127
    },
    {
      "midi": 64,
      "hit": false,
      "t": 151333.40899999865,
      "d": 61.111141666653566,
      "v": 127
    },
    {
      "midi": 61,
      "hit": false,
      "t": 151333.40899999865,
      "d": 69.44447916664649,
      "v": 127
    },
    {
      "midi": 66,
      "hit": false,
      "t": 151333.40899999865,
      "d": 75.0000374999654,
      "v": 127
    },
    {
      "midi": 59,
      "hit": false,
      "t": 151500.07574999862,
      "d": 186.1112041666347,
      "v": 119
    },
    {
      "midi": 63,
      "hit": false,
      "t": 151500.07574999862,
      "d": 197.22232083330164,
      "v": 127
    },
    {
      "midi": 66,
      "hit": false,
      "t": 151500.07574999862,
      "d": 238.88900833329535,
      "v": 119
    },
    {
      "midi": 54,
      "hit": false,
      "t": 151666.7424999986,
      "d": 111.1111666666693,
      "v": 127
    },
    {
      "midi": 64,
      "hit": false,
      "t": 152000.0759999986,
      "d": 152.77785416666302,
      "v": 87
    },
    {
      "midi": 71,
      "hit": false,
      "t": 152000.0759999986,
      "d": 152.77785416666302,
      "v": 85
    },
    {
      "midi": 68,
      "hit": false,
      "t": 152000.0759999986,
      "d": 163.88897083332995,
      "v": 89
    },
    {
      "midi": 59,
      "hit": false,
      "t": 152000.0759999986,
      "d": 466.6669000000111,
      "v": 123
    },
    {
      "midi": 52,
      "hit": false,
      "t": 152000.0759999986,
      "d": 491.66691249998985,
      "v": 127
    },
    {
      "midi": 64,
      "hit": false,
      "t": 152333.4094999986,
      "d": 138.88895833332208,
      "v": 123
    },
    {
      "midi": 68,
      "hit": false,
      "t": 152333.4094999986,
      "d": 150.000074999989,
      "v": 123
    },
    {
      "midi": 71,
      "hit": false,
      "t": 152333.4094999986,
      "d": 152.77785416666302,
      "v": 123
    },
    {
      "midi": 66,
      "hit": false,
      "t": 152666.7429999986,
      "d": 525.0002624999906,
      "v": 123
    },
    {
      "midi": 69,
      "hit": false,
      "t": 152666.7429999986,
      "d": 530.5558208333096,
      "v": 127
    },
    {
      "midi": 71,
      "hit": false,
      "t": 152666.7429999986,
      "d": 536.1113791666285,
      "v": 123
    },
    {
      "midi": 68,
      "hit": false,
      "t": 153333.40999999855,
      "d": 411.1113166666473,
      "v": 106
    },
    {
      "midi": 64,
      "hit": false,
      "t": 153333.40999999855,
      "d": 572.2225083333033,
      "v": 119
    },
    {
      "midi": 71,
      "hit": false,
      "t": 153333.40999999855,
      "d": 575.0002874999773,
      "v": 115
    },
    {
      "midi": 52,
      "hit": false,
      "t": 153333.40999999855,
      "d": 669.4447791666316,
      "v": 119
    },
    {
      "midi": 59,
      "hit": false,
      "t": 153666.74349999853,
      "d": 238.88900833332445,
      "v": 123
    },
    {
      "midi": 66,
      "hit": false,
      "t": 154000.0769999985,
      "d": 350.00017499999376,
      "v": 127
    },
    {
      "midi": 71,
      "hit": false,
      "t": 154000.0769999985,
      "d": 377.77796666664653,
      "v": 123
    },
    {
      "midi": 64,
      "hit": false,
      "t": 154333.4104999985,
      "d": 111.1111666666402,
      "v": 127
    },
    {
      "midi": 45,
      "hit": false,
      "t": 154666.7439999985,
      "d": 766.6670500000182,
      "v": 123
    },
    {
      "midi": 57,
      "hit": false,
      "t": 155000.0774999985,
      "d": 241.66678749999846,
      "v": 123
    },
    {
      "midi": 61,
      "hit": false,
      "t": 155000.0774999985,
      "d": 366.6668500000087,
      "v": 127
    },
    {
      "midi": 64,
      "hit": false,
      "t": 155000.0774999985,
      "d": 419.44465416666935,
      "v": 123
    },
    {
      "midi": 57,
      "hit": false,
      "t": 155333.4109999985,
      "d": 113.88894583334331,
      "v": 106
    },
    {
      "midi": 59,
      "hit": false,
      "t": 155500.0777499985,
      "d": 138.88895833332208,
      "v": 127
    },
    {
      "midi": 64,
      "hit": false,
      "t": 155500.0777499985,
      "d": 222.2223333333095,
      "v": 127
    },
    {
      "midi": 59,
      "hit": false,
      "t": 156000.0779999985,
      "d": 255.5556833333394,
      "v": 66
    },
    {
      "midi": 52,
      "hit": false,
      "t": 156000.0779999985,
      "d": 1038.8894083332852,
      "v": 102
    },
    {
      "midi": 64,
      "hit": false,
      "t": 156333.4114999985,
      "d": 375.00018750000163,
      "v": 123
    },
    {
      "midi": 68,
      "hit": false,
      "t": 156333.4114999985,
      "d": 405.5557583333284,
      "v": 127
    },
    {
      "midi": 71,
      "hit": false,
      "t": 156333.4114999985,
      "d": 447.2224458333221,
      "v": 127
    },
    {
      "midi": 59,
      "hit": false,
      "t": 156666.7449999985,
      "d": 194.44454166662763,
      "v": 123
    },
    {
      "midi": 64,
      "hit": false,
      "t": 156833.4117499985,
      "d": 138.88895833332208,
      "v": 123
    },
    {
      "midi": 59,
      "hit": false,
      "t": 157000.07849999846,
      "d": 108.3333874999953,
      "v": 123
    },
    {
      "midi": 52,
      "hit": false,
      "t": 157333.41199999847,
      "d": 561.1113916666945,
      "v": 127
    },
    {
      "midi": 68,
      "hit": false,
      "t": 157666.74549999848,
      "d": 205.55565833335277,
      "v": 123
    },
    {
      "midi": 64,
      "hit": false,
      "t": 157666.74549999848,
      "d": 241.66678750002757,
      "v": 119
    },
    {
      "midi": 71,
      "hit": false,
      "t": 157666.74549999848,
      "d": 272.22235833335435,
      "v": 123
    },
    {
      "midi": 64,
      "hit": false,
      "t": 158000.0789999985,
      "d": 269.44457916668034,
      "v": 115
    },
    {
      "midi": 69,
      "hit": false,
      "t": 158000.0789999985,
      "d": 286.1112541666662,
      "v": 106
    },
    {
      "midi": 71,
      "hit": false,
      "t": 158000.0789999985,
      "d": 302.77792916665203,
      "v": 82
    },
    {
      "midi": 69,
      "hit": false,
      "t": 158333.4124999985,
      "d": 241.66678749999846,
      "v": 127
    },
    {
      "midi": 64,
      "hit": false,
      "t": 158333.4124999985,
      "d": 252.7779041666654,
      "v": 123
    },
    {
      "midi": 71,
      "hit": false,
      "t": 158333.4124999985,
      "d": 283.3334749999922,
      "v": 127
    },
    {
      "midi": 52,
      "hit": false,
      "t": 158666.74599999847,
      "d": 800.000400000019,
      "v": 127
    },
    {
      "midi": 68,
      "hit": false,
      "t": 159000.07949999848,
      "d": 175.00008749999688,
      "v": 110
    },
    {
      "midi": 64,
      "hit": false,
      "t": 159000.07949999848,
      "d": 311.11126666667406,
      "v": 110
    },
    {
      "midi": 71,
      "hit": false,
      "t": 159000.07949999848,
      "d": 552.7780541666725,
      "v": 119
    },
    {
      "midi": 66,
      "hit": false,
      "t": 159333.4129999985,
      "d": 177.7778666666709,
      "v": 123
    },
    {
      "midi": 64,
      "hit": false,
      "t": 159500.0797499985,
      "d": 136.11117916664807,
      "v": 127
    },
    {
      "midi": 54,
      "hit": false,
      "t": 159833.41324999847,
      "d": 105.55560833332129,
      "v": 115
    },
    {
      "midi": 47,
      "hit": false,
      "t": 160000.07999999844,
      "d": 794.444841666671,
      "v": 127
    },
    {
      "midi": 59,
      "hit": false,
      "t": 160333.41349999845,
      "d": 386.11130416666856,
      "v": 123
    },
    {
      "midi": 63,
      "hit": false,
      "t": 160333.41349999845,
      "d": 477.7780166666489,
      "v": 127
    },
    {
      "midi": 66,
      "hit": false,
      "t": 160333.41349999845,
      "d": 588.8891833333182,
      "v": 127
    },
    {
      "midi": 54,
      "hit": false,
      "t": 160666.74699999846,
      "d": 155.55563333330792,
      "v": 110
    },
    {
      "midi": 59,
      "hit": false,
      "t": 160833.41374999844,
      "d": 205.55565833332366,
      "v": 123
    },
    {
      "midi": 63,
      "hit": false,
      "t": 161000.08049999844,
      "d": 108.3333874999953,
      "v": 127
    },
    {
      "midi": 52,
      "hit": false,
      "t": 161333.41399999842,
      "d": 1330.5562208333286,
      "v": 115
    },
    {
      "midi": 64,
      "hit": false,
      "t": 161333.41399999842,
      "d": 1330.5562208333286,
      "v": 127
    },
    {
      "midi": 68,
      "hit": false,
      "t": 161333.41399999842,
      "d": 1330.5562208333286,
      "v": 102
    },
    {
      "midi": 59,
      "hit": false,
      "t": 161333.41399999842,
      "d": 1333.3340000000026,
      "v": 115
    },
    {
      "midi": 64,
      "hit": false,
      "t": 164333.41549999843,
      "d": 88.88893333333544,
      "v": 123
    },
    {
      "midi": 64,
      "hit": false,
      "t": 164500.08224999844,
      "d": 141.6667374999961,
      "v": 127
    },
    {
      "midi": 61,
      "hit": false,
      "t": 164666.74899999844,
      "d": 341.66683750000084,
      "v": 119
    },
    {
      "midi": 59,
      "hit": false,
      "t": 165000.08249999845,
      "d": 1100.000549999997,
      "v": 127
    },
    {
      "midi": 68,
      "hit": false,
      "t": 167000.08349999844,
      "d": 88.88893333333544,
      "v": 127
    },
    {
      "midi": 68,
      "hit": false,
      "t": 167166.75024999844,
      "d": 100.00005000000237,
      "v": 119
    },
    {
      "midi": 66,
      "hit": false,
      "t": 167333.41699999844,
      "d": 313.88904583331896,
      "v": 119
    },
    {
      "midi": 64,
      "hit": false,
      "t": 167666.75049999842,
      "d": 1802.7786791666585,
      "v": 115
    },
    {
      "midi": 59,
      "hit": false,
      "t": 172166.7527499984,
      "d": 1058.3338624999742,
      "v": 102
    },
    {
      "midi": 66,
      "hit": false,
      "t": 172333.41949999842,
      "d": 930.55602083329,
      "v": 106
    },
    {
      "midi": 71,
      "hit": false,
      "t": 172500.08624999842,
      "d": 538.8891583333316,
      "v": 106
    },
    {
      "midi": 75,
      "hit": false,
      "t": 172666.75299999843,
      "d": 155.55563333333703,
      "v": 85
    },
    {
      "midi": 78,
      "hit": false,
      "t": 172833.41974999843,
      "d": 216.6667749999906,
      "v": 92
    },
    {
      "midi": 75,
      "hit": false,
      "t": 173000.08649999843,
      "d": 205.55565833329456,
      "v": 119
    },
    {
      "midi": 71,
      "hit": false,
      "t": 173166.7532499984,
      "d": 102.77782916661818,
      "v": 106
    },
    {
      "midi": 68,
      "hit": false,
      "t": 173333.41999999835,
      "d": 397.2224208333355,
      "v": 89
    },
    {
      "midi": 64,
      "hit": false,
      "t": 173333.41999999835,
      "d": 405.5557583333284,
      "v": 89
    },
    {
      "midi": 59,
      "hit": false,
      "t": 173333.41999999835,
      "d": 444.4446666666481,
      "v": 87
    },
    {
      "midi": 61,
      "hit": false,
      "t": 174000.08699999834,
      "d": 330.5557208333339,
      "v": 89
    },
    {
      "midi": 57,
      "hit": false,
      "t": 174000.08699999834,
      "d": 355.5557333333418,
      "v": 85
    },
    {
      "midi": 64,
      "hit": false,
      "t": 174000.08699999834,
      "d": 355.5557333333418,
      "v": 92
    },
    {
      "midi": 59,
      "hit": false,
      "t": 174666.75399999833,
      "d": 644.4447666666529,
      "v": 82
    },
    {
      "midi": 56,
      "hit": false,
      "t": 174666.75399999833,
      "d": 672.2225583333347,
      "v": 73
    },
    {
      "midi": 64,
      "hit": false,
      "t": 174666.75399999833,
      "d": 686.1114541666757,
      "v": 82
    },
    {
      "midi": 57,
      "hit": false,
      "t": 176000.08799999836,
      "d": 775.0003875000111,
      "v": 82
    },
    {
      "midi": 61,
      "hit": false,
      "t": 176000.08799999836,
      "d": 786.1115041666781,
      "v": 81
    },
    {
      "midi": 64,
      "hit": false,
      "t": 176000.08799999836,
      "d": 802.7781791666639,
      "v": 80
    },
    {
      "midi": 64,
      "hit": false,
      "t": 177333.42199999836,
      "d": 1000.0005000000237,
      "v": 71
    },
    {
      "midi": 59,
      "hit": false,
      "t": 177333.42199999836,
      "d": 1019.4449541666836,
      "v": 70
    },
    {
      "midi": 68,
      "hit": false,
      "t": 177333.42199999836,
      "d": 1025.0005125000025,
      "v": 68
    },
    {
      "midi": 68,
      "hit": false,
      "t": 178666.75599999836,
      "d": 394.4446416666615,
      "v": 85
    },
    {
      "midi": 64,
      "hit": false,
      "t": 178666.75599999836,
      "d": 400.0001999999804,
      "v": 80
    },
    {
      "midi": 59,
      "hit": false,
      "t": 178666.75599999836,
      "d": 441.6668874999741,
      "v": 80
    },
    {
      "midi": 57,
      "hit": false,
      "t": 179333.42299999835,
      "d": 297.2223708333331,
      "v": 81
    },
    {
      "midi": 61,
      "hit": false,
      "t": 179333.42299999835,
      "d": 311.11126666667406,
      "v": 81
    },
    {
      "midi": 64,
      "hit": false,
      "t": 179333.42299999835,
      "d": 344.44461666667485,
      "v": 70
    },
    {
      "midi": 68,
      "hit": false,
      "t": 180000.08999999837,
      "d": 833.3337499999907,
      "v": 76
    },
    {
      "midi": 64,
      "hit": false,
      "t": 180000.08999999837,
      "d": 855.5559833333245,
      "v": 73
    },
    {
      "midi": 59,
      "hit": false,
      "t": 180000.08999999837,
      "d": 894.4448916666443,
      "v": 63
    },
    {
      "midi": 63,
      "hit": false,
      "t": 181333.42399999834,
      "d": 894.4448916666734,
      "v": 82
    },
    {
      "midi": 54,
      "hit": false,
      "t": 181333.42399999834,
      "d": 902.7782291666663,
      "v": 67
    },
    {
      "midi": 66,
      "hit": false,
      "t": 181333.42399999834,
      "d": 913.8893458333332,
      "v": 69
    },
    {
      "midi": 59,
      "hit": false,
      "t": 181333.42399999834,
      "d": 919.4449041666521,
      "v": 79
    },
    {
      "midi": 47,
      "hit": false,
      "t": 181333.42399999834,
      "d": 933.3337999999931,
      "v": 85
    },
    {
      "midi": 59,
      "hit": false,
      "t": 184000.09199999835,
      "d": 516.6669249999977,
      "v": 123
    },
    {
      "midi": 52,
      "hit": false,
      "t": 184000.09199999835,
      "d": 611.1114166666521,
      "v": 127
    },
    {
      "midi": 68,
      "hit": false,
      "t": 184333.42549999835,
      "d": 361.1112916666316,
      "v": 123
    },
    {
      "midi": 64,
      "hit": false,
      "t": 184333.42549999835,
      "d": 375.0001874999725,
      "v": 127
    },
    {
      "midi": 71,
      "hit": false,
      "t": 184333.42549999835,
      "d": 450.00022499996703,
      "v": 127
    },
    {
      "midi": 59,
      "hit": false,
      "t": 184666.75899999833,
      "d": 113.88894583331421,
      "v": 119
    },
    {
      "midi": 64,
      "hit": false,
      "t": 185000.0924999983,
      "d": 97.22227083332837,
      "v": 119
    },
    {
      "midi": 71,
      "hit": false,
      "t": 185000.0924999983,
      "d": 113.88894583331421,
      "v": 123
    },
    {
      "midi": 69,
      "hit": false,
      "t": 185000.0924999983,
      "d": 122.22228333330713,
      "v": 127
    },
    {
      "midi": 52,
      "hit": false,
      "t": 185333.4259999983,
      "d": 683.3336749999726,
      "v": 123
    },
    {
      "midi": 68,
      "hit": false,
      "t": 185666.7594999983,
      "d": 161.11119166665594,
      "v": 115
    },
    {
      "midi": 64,
      "hit": false,
      "t": 185666.7594999983,
      "d": 208.33343749999767,
      "v": 119
    },
    {
      "midi": 71,
      "hit": false,
      "t": 185666.7594999983,
      "d": 225.00011249998352,
      "v": 127
    },
    {
      "midi": 66,
      "hit": false,
      "t": 186000.09299999828,
      "d": 361.1112916666316,
      "v": 127
    },
    {
      "midi": 71,
      "hit": false,
      "t": 186000.09299999828,
      "d": 380.55574583329144,
      "v": 123
    },
    {
      "midi": 64,
      "hit": false,
      "t": 186333.42649999826,
      "d": 119.44450416663312,
      "v": 127
    },
    {
      "midi": 45,
      "hit": false,
      "t": 186666.75999999823,
      "d": 861.1115416666435,
      "v": 119
    },
    {
      "midi": 57,
      "hit": false,
      "t": 187000.09349999824,
      "d": 438.8891083333292,
      "v": 119
    },
    {
      "midi": 61,
      "hit": false,
      "t": 187000.09349999824,
      "d": 552.7780541666434,
      "v": 123
    },
    {
      "midi": 64,
      "hit": false,
      "t": 187000.09349999824,
      "d": 633.3336499999859,
      "v": 127
    },
    {
      "midi": 57,
      "hit": false,
      "t": 187500.09374999822,
      "d": 155.55563333333703,
      "v": 119
    },
    {
      "midi": 59,
      "hit": false,
      "t": 187666.76049999823,
      "d": 108.3333874999953,
      "v": 127
    },
    {
      "midi": 64,
      "hit": false,
      "t": 187666.76049999823,
      "d": 144.4445166666701,
      "v": 115
    },
    {
      "midi": 52,
      "hit": false,
      "t": 188000.0939999982,
      "d": 883.3337750000064,
      "v": 123
    },
    {
      "midi": 68,
      "hit": false,
      "t": 188333.42749999822,
      "d": 369.4446291666827,
      "v": 119
    },
    {
      "midi": 71,
      "hit": false,
      "t": 188333.42749999822,
      "d": 411.11131666667643,
      "v": 123
    },
    {
      "midi": 64,
      "hit": false,
      "t": 188333.42749999822,
      "d": 413.88909583335044,
      "v": 123
    },
    {
      "midi": 59,
      "hit": false,
      "t": 188666.76099999822,
      "d": 108.3333874999953,
      "v": 115
    },
    {
      "midi": 66,
      "hit": false,
      "t": 188833.42774999823,
      "d": 169.44452916664886,
      "v": 127
    },
    {
      "midi": 71,
      "hit": false,
      "t": 188833.42774999823,
      "d": 225.00011249998352,
      "v": 123
    },
    {
      "midi": 64,
      "hit": false,
      "t": 189000.0944999982,
      "d": 147.2222958333441,
      "v": 127
    },
    {
      "midi": 45,
      "hit": false,
      "t": 189333.4279999982,
      "d": 819.4448541666789,
      "v": 115
    },
    {
      "midi": 57,
      "hit": false,
      "t": 189666.76149999822,
      "d": 369.4446291666827,
      "v": 127
    },
    {
      "midi": 61,
      "hit": false,
      "t": 189666.76149999822,
      "d": 469.4446791666851,
      "v": 127
    },
    {
      "midi": 64,
      "hit": false,
      "t": 189666.76149999822,
      "d": 488.88913333334494,
      "v": 127
    },
    {
      "midi": 64,
      "hit": false,
      "t": 190166.76174999823,
      "d": 50.000024999986636,
      "v": 61
    },
    {
      "midi": 57,
      "hit": false,
      "t": 190166.76174999823,
      "d": 100.00004999997327,
      "v": 119
    },
    {
      "midi": 59,
      "hit": false,
      "t": 190333.4284999982,
      "d": 108.3333874999953,
      "v": 123
    },
    {
      "midi": 64,
      "hit": false,
      "t": 190333.4284999982,
      "d": 141.6667374999961,
      "v": 123
    },
    {
      "midi": 59,
      "hit": false,
      "t": 190666.76199999818,
      "d": 416.66687499999534,
      "v": 123
    },
    {
      "midi": 52,
      "hit": false,
      "t": 190666.76199999818,
      "d": 2027.778791666613,
      "v": 123
    },
    {
      "midi": 68,
      "hit": false,
      "t": 191000.0954999982,
      "d": 352.77795416666777,
      "v": 119
    },
    {
      "midi": 71,
      "hit": false,
      "t": 191000.0954999982,
      "d": 380.55574583332054,
      "v": 127
    },
    {
      "midi": 64,
      "hit": false,
      "t": 191000.0954999982,
      "d": 388.88908333331347,
      "v": 123
    },
    {
      "midi": 59,
      "hit": false,
      "t": 191333.4289999982,
      "d": 175.00008749996778,
      "v": 119
    },
    {
      "midi": 66,
      "hit": false,
      "t": 191500.09574999817,
      "d": 172.22230833332287,
      "v": 127
    },
    {
      "midi": 71,
      "hit": false,
      "t": 191500.09574999817,
      "d": 202.77787916664965,
      "v": 127
    },
    {
      "midi": 59,
      "hit": false,
      "t": 192000.09599999816,
      "d": 280.5556958333473,
      "v": 85
    },
    {
      "midi": 64,
      "hit": false,
      "t": 192000.09599999816,
      "d": 438.8891083333292,
      "v": 119
    },
    {
      "midi": 71,
      "hit": false,
      "t": 192000.09599999816,
      "d": 469.444679166656,
      "v": 119
    },
    {
      "midi": 68,
      "hit": false,
      "t": 192000.09599999816,
      "d": 600.0002999999851,
      "v": 115
    },
    {
      "midi": 59,
      "hit": false,
      "t": 192333.42949999816,
      "d": 277.77791666664416,
      "v": 123
    },
    {
      "midi": 64,
      "hit": false,
      "t": 192666.76299999814,
      "d": 141.6667374999961,
      "v": 127
    },
    {
      "midi": 54,
      "hit": false,
      "t": 193333.42999999813,
      "d": 933.3337999999058,
      "v": 119
    },
    {
      "midi": 47,
      "hit": false,
      "t": 193333.42999999813,
      "d": 941.6671374998987,
      "v": 123
    },
    {
      "midi": 59,
      "hit": false,
      "t": 193666.7634999981,
      "d": 111.1111666666693,
      "v": 127
    },
    {
      "midi": 66,
      "hit": false,
      "t": 193666.7634999981,
      "d": 111.1111666666693,
      "v": 127
    },
    {
      "midi": 63,
      "hit": false,
      "t": 193666.7634999981,
      "d": 138.88895833332208,
      "v": 127
    },
    {
      "midi": 64,
      "hit": false,
      "t": 194000.0969999981,
      "d": 61.111141666653566,
      "v": 127
    },
    {
      "midi": 61,
      "hit": false,
      "t": 194000.0969999981,
      "d": 69.44447916664649,
      "v": 127
    },
    {
      "midi": 66,
      "hit": false,
      "t": 194000.0969999981,
      "d": 75.0000374999654,
      "v": 127
    },
    {
      "midi": 59,
      "hit": false,
      "t": 194166.76374999806,
      "d": 186.1112041666347,
      "v": 119
    },
    {
      "midi": 63,
      "hit": false,
      "t": 194166.76374999806,
      "d": 197.22232083330164,
      "v": 127
    },
    {
      "midi": 66,
      "hit": false,
      "t": 194166.76374999806,
      "d": 238.88900833329535,
      "v": 119
    },
    {
      "midi": 54,
      "hit": false,
      "t": 194333.43049999804,
      "d": 111.1111666666693,
      "v": 127
    },
    {
      "midi": 64,
      "hit": false,
      "t": 194666.76399999805,
      "d": 152.77785416666302,
      "v": 87
    },
    {
      "midi": 71,
      "hit": false,
      "t": 194666.76399999805,
      "d": 152.77785416666302,
      "v": 85
    },
    {
      "midi": 68,
      "hit": false,
      "t": 194666.76399999805,
      "d": 163.88897083332995,
      "v": 89
    },
    {
      "midi": 59,
      "hit": false,
      "t": 194666.76399999805,
      "d": 466.6669000000111,
      "v": 123
    },
    {
      "midi": 52,
      "hit": false,
      "t": 194666.76399999805,
      "d": 491.66691249998985,
      "v": 127
    },
    {
      "midi": 64,
      "hit": false,
      "t": 195000.09749999805,
      "d": 138.88895833332208,
      "v": 123
    },
    {
      "midi": 68,
      "hit": false,
      "t": 195000.09749999805,
      "d": 150.000074999989,
      "v": 123
    },
    {
      "midi": 71,
      "hit": false,
      "t": 195000.09749999805,
      "d": 152.77785416666302,
      "v": 123
    },
    {
      "midi": 66,
      "hit": false,
      "t": 195333.43099999803,
      "d": 525.0002624999906,
      "v": 123
    },
    {
      "midi": 69,
      "hit": false,
      "t": 195333.43099999803,
      "d": 530.5558208333096,
      "v": 127
    },
    {
      "midi": 71,
      "hit": false,
      "t": 195333.43099999803,
      "d": 536.1113791666285,
      "v": 123
    },
    {
      "midi": 68,
      "hit": false,
      "t": 196000.097999998,
      "d": 411.1113166666473,
      "v": 106
    },
    {
      "midi": 64,
      "hit": false,
      "t": 196000.097999998,
      "d": 572.2225083333033,
      "v": 119
    },
    {
      "midi": 71,
      "hit": false,
      "t": 196000.097999998,
      "d": 575.0002874999773,
      "v": 115
    },
    {
      "midi": 52,
      "hit": false,
      "t": 196000.097999998,
      "d": 669.4447791666316,
      "v": 119
    },
    {
      "midi": 59,
      "hit": false,
      "t": 196333.43149999797,
      "d": 238.88900833332445,
      "v": 123
    },
    {
      "midi": 66,
      "hit": false,
      "t": 196666.76499999795,
      "d": 350.00017499999376,
      "v": 127
    },
    {
      "midi": 71,
      "hit": false,
      "t": 196666.76499999795,
      "d": 377.77796666664653,
      "v": 123
    },
    {
      "midi": 64,
      "hit": false,
      "t": 197000.09849999796,
      "d": 111.1111666666402,
      "v": 127
    },
    {
      "midi": 45,
      "hit": false,
      "t": 197333.43199999793,
      "d": 766.6670500000182,
      "v": 123
    },
    {
      "midi": 57,
      "hit": false,
      "t": 197666.76549999794,
      "d": 241.66678749999846,
      "v": 123
    },
    {
      "midi": 61,
      "hit": false,
      "t": 197666.76549999794,
      "d": 366.6668500000087,
      "v": 127
    },
    {
      "midi": 64,
      "hit": false,
      "t": 197666.76549999794,
      "d": 419.44465416666935,
      "v": 123
    },
    {
      "midi": 57,
      "hit": false,
      "t": 198000.09899999795,
      "d": 113.88894583334331,
      "v": 106
    },
    {
      "midi": 59,
      "hit": false,
      "t": 198166.76574999795,
      "d": 138.88895833332208,
      "v": 127
    },
    {
      "midi": 64,
      "hit": false,
      "t": 198166.76574999795,
      "d": 222.2223333333095,
      "v": 127
    },
    {
      "midi": 59,
      "hit": false,
      "t": 198666.76599999794,
      "d": 255.5556833333394,
      "v": 66
    },
    {
      "midi": 52,
      "hit": false,
      "t": 198666.76599999794,
      "d": 1038.8894083332852,
      "v": 102
    },
    {
      "midi": 64,
      "hit": false,
      "t": 199000.09949999794,
      "d": 375.00018750000163,
      "v": 123
    },
    {
      "midi": 68,
      "hit": false,
      "t": 199000.09949999794,
      "d": 405.5557583333284,
      "v": 127
    },
    {
      "midi": 71,
      "hit": false,
      "t": 199000.09949999794,
      "d": 447.2224458333221,
      "v": 127
    },
    {
      "midi": 59,
      "hit": false,
      "t": 199333.43299999795,
      "d": 194.44454166662763,
      "v": 123
    },
    {
      "midi": 64,
      "hit": false,
      "t": 199500.09974999793,
      "d": 138.88895833332208,
      "v": 123
    },
    {
      "midi": 59,
      "hit": false,
      "t": 199666.7664999979,
      "d": 108.3333874999953,
      "v": 123
    },
    {
      "midi": 52,
      "hit": false,
      "t": 200000.0999999979,
      "d": 561.1113916666945,
      "v": 127
    },
    {
      "midi": 68,
      "hit": false,
      "t": 200333.43349999792,
      "d": 205.55565833335277,
      "v": 123
    },
    {
      "midi": 64,
      "hit": false,
      "t": 200333.43349999792,
      "d": 241.66678750002757,
      "v": 119
    },
    {
      "midi": 71,
      "hit": false,
      "t": 200333.43349999792,
      "d": 272.22235833335435,
      "v": 123
    },
    {
      "midi": 64,
      "hit": false,
      "t": 200666.76699999796,
      "d": 269.44457916668034,
      "v": 115
    },
    {
      "midi": 69,
      "hit": false,
      "t": 200666.76699999796,
      "d": 286.1112541666662,
      "v": 106
    },
    {
      "midi": 71,
      "hit": false,
      "t": 200666.76699999796,
      "d": 302.77792916665203,
      "v": 82
    },
    {
      "midi": 69,
      "hit": false,
      "t": 201000.10049999793,
      "d": 241.66678749999846,
      "v": 127
    },
    {
      "midi": 64,
      "hit": false,
      "t": 201000.10049999793,
      "d": 252.7779041666654,
      "v": 123
    },
    {
      "midi": 71,
      "hit": false,
      "t": 201000.10049999793,
      "d": 283.3334749999922,
      "v": 127
    },
    {
      "midi": 52,
      "hit": false,
      "t": 201333.4339999979,
      "d": 800.000400000019,
      "v": 127
    },
    {
      "midi": 68,
      "hit": false,
      "t": 201666.76749999792,
      "d": 175.00008749999688,
      "v": 110
    },
    {
      "midi": 64,
      "hit": false,
      "t": 201666.76749999792,
      "d": 311.11126666667406,
      "v": 110
    },
    {
      "midi": 71,
      "hit": false,
      "t": 201666.76749999792,
      "d": 552.7780541666725,
      "v": 119
    },
    {
      "midi": 66,
      "hit": false,
      "t": 202000.10099999793,
      "d": 177.7778666666709,
      "v": 123
    },
    {
      "midi": 64,
      "hit": false,
      "t": 202166.76774999793,
      "d": 136.11117916664807,
      "v": 127
    },
    {
      "midi": 54,
      "hit": false,
      "t": 202500.1012499979,
      "d": 105.55560833335039,
      "v": 115
    },
    {
      "midi": 47,
      "hit": false,
      "t": 202666.76799999792,
      "d": 688.8892333333497,
      "v": 123
    },
    {
      "midi": 63,
      "hit": false,
      "t": 203000.10149999792,
      "d": 216.6667749999906,
      "v": 110
    },
    {
      "midi": 54,
      "hit": false,
      "t": 203000.10149999792,
      "d": 275.00013749999925,
      "v": 106
    },
    {
      "midi": 66,
      "hit": false,
      "t": 203000.10149999792,
      "d": 352.77795416666777,
      "v": 123
    },
    {
      "midi": 71,
      "hit": false,
      "t": 203000.10149999792,
      "d": 577.7780666666804,
      "v": 123
    },
    {
      "midi": 63,
      "hit": false,
      "t": 203333.43499999793,
      "d": 200.00010000000475,
      "v": 119
    },
    {
      "midi": 66,
      "hit": false,
      "t": 203500.10174999794,
      "d": 94.44449166665436,
      "v": 106
    },
    {
      "midi": 66,
      "hit": false,
      "t": 203666.7684999979,
      "d": 41.666687499993714,
      "v": 102
    },
    {
      "midi": 71,
      "hit": false,
      "t": 203666.7684999979,
      "d": 113.88894583331421,
      "v": 119
    },
    {
      "midi": 64,
      "hit": false,
      "t": 203833.43524999788,
      "d": 4247.224345833325,
      "v": 127
    },
    {
      "midi": 68,
      "hit": false,
      "t": 203833.43524999788,
      "d": 4313.891045833327,
      "v": 127
    },
    {
      "midi": 52,
      "hit": false,
      "t": 203833.43524999788,
      "d": 4563.891170833318,
      "v": 127
    },
    {
      "midi": 71,
      "hit": false,
      "t": 203833.43524999788,
      "d": 4577.780066666659,
      "v": 127
    }
  ]
}