{
  "jsonPath": "Pop/New Wave Pop/Miami Sound Machine/bad-boy.json",
  "path": "Pop\\New Wave Pop\\Miami Sound Machine\\Bad Boy.mid",
  "name": "Bad Boy",
  "difficulty": "Advanced",
  "bpm": 184.00053973491654,
  "notes": [
    {
      "midi": 62,
      "hit": false,
      "t": 14347.784000000001,
      "d": 2313.1725625000017,
      "v": 96
    },
    {
      "midi": 43,
      "hit": false,
      "t": 14347.784000000001,
      "d": 2340.346395833336,
      "v": 89
    },
    {
      "midi": 31,
      "hit": false,
      "t": 14347.784000000001,
      "d": 2343.7431250000027,
      "v": 95
    },
    {
      "midi": 58,
      "hit": false,
      "t": 14347.784000000001,
      "d": 2353.933312500003,
      "v": 101
    },
    {
      "midi": 55,
      "hit": false,
      "t": 14347.784000000001,
      "d": 2432.058083333335,
      "v": 96
    },
    {
      "midi": 56,
      "hit": false,
      "t": 16953.07527083334,
      "d": 2347.1398541666676,
      "v": 99
    },
    {
      "midi": 60,
      "hit": false,
      "t": 16956.472000000005,
      "d": 2347.1398541666676,
      "v": 96
    },
    {
      "midi": 63,
      "hit": false,
      "t": 16956.472000000005,
      "d": 2391.2973333333357,
      "v": 96
    },
    {
      "midi": 34,
      "hit": false,
      "t": 16959.868729166672,
      "d": 2357.330041666668,
      "v": 101
    },
    {
      "midi": 46,
      "hit": false,
      "t": 16959.868729166672,
      "d": 2398.0907916666692,
      "v": 89
    },
    {
      "midi": 36,
      "hit": false,
      "t": 19561.76327083334,
      "d": 2588.3076250000013,
      "v": 88
    },
    {
      "midi": 55,
      "hit": false,
      "t": 19568.556729166674,
      "d": 2449.041729166667,
      "v": 95
    },
    {
      "midi": 58,
      "hit": false,
      "t": 19568.556729166674,
      "d": 2527.1664999999994,
      "v": 101
    },
    {
      "midi": 63,
      "hit": false,
      "t": 19568.556729166674,
      "d": 2527.1664999999994,
      "v": 99
    },
    {
      "midi": 48,
      "hit": false,
      "t": 19568.556729166674,
      "d": 2567.9272500000006,
      "v": 83
    },
    {
      "midi": 55,
      "hit": false,
      "t": 22173.84800000001,
      "d": 2503.3893958333356,
      "v": 90
    },
    {
      "midi": 41,
      "hit": false,
      "t": 22184.03818750001,
      "d": 2530.5632291666698,
      "v": 92
    },
    {
      "midi": 58,
      "hit": false,
      "t": 22187.434916666676,
      "d": 2476.2155625000014,
      "v": 119
    },
    {
      "midi": 63,
      "hit": false,
      "t": 22194.22837500001,
      "d": 2479.612291666668,
      "v": 121
    },
    {
      "midi": 58,
      "hit": false,
      "t": 24785.932729166678,
      "d": 2415.0744374999995,
      "v": 96
    },
    {
      "midi": 63,
      "hit": false,
      "t": 24789.329458333345,
      "d": 2445.6450000000004,
      "v": 90
    },
    {
      "midi": 55,
      "hit": false,
      "t": 24792.72618750001,
      "d": 2398.0907916666656,
      "v": 86
    },
    {
      "midi": 56,
      "hit": false,
      "t": 27398.017458333346,
      "d": 1701.7613125000025,
      "v": 92
    },
    {
      "midi": 59,
      "hit": false,
      "t": 27404.81091666668,
      "d": 1657.6038333333345,
      "v": 100
    },
    {
      "midi": 63,
      "hit": false,
      "t": 27408.207645833347,
      "d": 1803.6631875000057,
      "v": 92
    },
    {
      "midi": 54,
      "hit": false,
      "t": 27411.604375000014,
      "d": 1742.5220625000038,
      "v": 93
    },
    {
      "midi": 56,
      "hit": false,
      "t": 29378.31056250002,
      "d": 540.0799374999988,
      "v": 97
    },
    {
      "midi": 61,
      "hit": false,
      "t": 29381.707291666688,
      "d": 594.4276041666672,
      "v": 96
    },
    {
      "midi": 53,
      "hit": false,
      "t": 29385.104020833354,
      "d": 546.8733958333323,
      "v": 93
    },
    {
      "midi": 63,
      "hit": false,
      "t": 30020.292375000023,
      "d": 2194.2870416666665,
      "v": 85
    },
    {
      "midi": 58,
      "hit": false,
      "t": 30023.68910416669,
      "d": 2245.237979166668,
      "v": 101
    },
    {
      "midi": 55,
      "hit": false,
      "t": 30027.085833333356,
      "d": 2218.064145833334,
      "v": 91
    },
    {
      "midi": 56,
      "hit": false,
      "t": 32615.393458333358,
      "d": 1222.8224999999984,
      "v": 54
    },
    {
      "midi": 59,
      "hit": false,
      "t": 32632.37710416669,
      "d": 1222.8224999999948,
      "v": 102
    },
    {
      "midi": 54,
      "hit": false,
      "t": 32635.77383333336,
      "d": 1199.0453958333346,
      "v": 84
    },
    {
      "midi": 63,
      "hit": false,
      "t": 32642.56729166669,
      "d": 1229.6159583333247,
      "v": 102
    },
    {
      "midi": 56,
      "hit": false,
      "t": 33926.530916666685,
      "d": 112.09206249999988,
      "v": 119
    },
    {
      "midi": 53,
      "hit": false,
      "t": 33933.32437500002,
      "d": 98.50514583333279,
      "v": 107
    },
    {
      "midi": 58,
      "hit": false,
      "t": 33933.32437500002,
      "d": 108.69533333332947,
      "v": 123
    },
    {
      "midi": 61,
      "hit": false,
      "t": 33933.32437500002,
      "d": 118.88552083332615,
      "v": 119
    },
    {
      "midi": 61,
      "hit": false,
      "t": 34259.410375000014,
      "d": 122.28224999999657,
      "v": 119
    },
    {
      "midi": 53,
      "hit": false,
      "t": 34259.410375000014,
      "d": 129.0757083333301,
      "v": 104
    },
    {
      "midi": 58,
      "hit": false,
      "t": 34259.410375000014,
      "d": 135.86916666666366,
      "v": 123
    },
    {
      "midi": 56,
      "hit": false,
      "t": 34259.410375000014,
      "d": 142.6626249999972,
      "v": 121
    },
    {
      "midi": 56,
      "hit": false,
      "t": 34582.09964583335,
      "d": 142.66262499998993,
      "v": 123
    },
    {
      "midi": 60,
      "hit": false,
      "t": 34585.49637500001,
      "d": 149.45608333332348,
      "v": 115
    },
    {
      "midi": 51,
      "hit": false,
      "t": 34588.89310416667,
      "d": 135.86916666666366,
      "v": 123
    },
    {
      "midi": 60,
      "hit": false,
      "t": 34897.99545833333,
      "d": 173.23318749999453,
      "v": 117
    },
    {
      "midi": 56,
      "hit": false,
      "t": 34901.392187499994,
      "d": 146.05935416666762,
      "v": 127
    },
    {
      "midi": 51,
      "hit": false,
      "t": 34901.392187499994,
      "d": 183.4233749999985,
      "v": 127
    },
    {
      "midi": 58,
      "hit": false,
      "t": 35220.684729166656,
      "d": 2415.074437499992,
      "v": 96
    },
    {
      "midi": 63,
      "hit": false,
      "t": 35224.08145833332,
      "d": 2445.644999999997,
      "v": 90
    },
    {
      "midi": 55,
      "hit": false,
      "t": 35227.47818749998,
      "d": 2398.0907916666692,
      "v": 86
    },
    {
      "midi": 56,
      "hit": false,
      "t": 37832.769458333314,
      "d": 1701.7613124999916,
      "v": 92
    },
    {
      "midi": 59,
      "hit": false,
      "t": 37839.56291666665,
      "d": 1657.6038333333272,
      "v": 100
    },
    {
      "midi": 63,
      "hit": false,
      "t": 37842.95964583331,
      "d": 1803.6631874999948,
      "v": 92
    },
    {
      "midi": 54,
      "hit": false,
      "t": 37846.356374999974,
      "d": 1742.5220625000002,
      "v": 93
    },
    {
      "midi": 56,
      "hit": false,
      "t": 39813.062562499974,
      "d": 540.0799374999915,
      "v": 97
    },
    {
      "midi": 61,
      "hit": false,
      "t": 39816.45929166664,
      "d": 594.4276041666599,
      "v": 96
    },
    {
      "midi": 53,
      "hit": false,
      "t": 39819.8560208333,
      "d": 546.8733958333323,
      "v": 93
    },
    {
      "midi": 63,
      "hit": false,
      "t": 40455.04437499996,
      "d": 2194.287041666663,
      "v": 85
    },
    {
      "midi": 58,
      "hit": false,
      "t": 40458.441104166624,
      "d": 2245.237979166661,
      "v": 101
    },
    {
      "midi": 55,
      "hit": false,
      "t": 40461.83783333329,
      "d": 2218.064145833334,
      "v": 91
    },
    {
      "midi": 56,
      "hit": false,
      "t": 43050.14545833329,
      "d": 1222.8224999999875,
      "v": 54
    },
    {
      "midi": 59,
      "hit": false,
      "t": 43067.12910416662,
      "d": 1222.8224999999875,
      "v": 102
    },
    {
      "midi": 54,
      "hit": false,
      "t": 43070.52583333328,
      "d": 1199.045395833331,
      "v": 84
    },
    {
      "midi": 63,
      "hit": false,
      "t": 43077.319291666616,
      "d": 1229.615958333321,
      "v": 102
    },
    {
      "midi": 56,
      "hit": false,
      "t": 44361.282916666605,
      "d": 112.09206249999988,
      "v": 119
    },
    {
      "midi": 53,
      "hit": false,
      "t": 44368.07637499994,
      "d": 98.50514583333279,
      "v": 107
    },
    {
      "midi": 58,
      "hit": false,
      "t": 44368.07637499994,
      "d": 108.69533333332947,
      "v": 123
    },
    {
      "midi": 61,
      "hit": false,
      "t": 44368.07637499994,
      "d": 118.88552083332615,
      "v": 119
    },
    {
      "midi": 61,
      "hit": false,
      "t": 44694.162374999934,
      "d": 122.28224999999657,
      "v": 119
    },
    {
      "midi": 53,
      "hit": false,
      "t": 44694.162374999934,
      "d": 129.0757083333301,
      "v": 104
    },
    {
      "midi": 58,
      "hit": false,
      "t": 44694.162374999934,
      "d": 135.86916666666366,
      "v": 123
    },
    {
      "midi": 56,
      "hit": false,
      "t": 44694.162374999934,
      "d": 142.6626249999972,
      "v": 121
    },
    {
      "midi": 56,
      "hit": false,
      "t": 45016.85164583327,
      "d": 142.66262499998993,
      "v": 123
    },
    {
      "midi": 60,
      "hit": false,
      "t": 45020.24837499993,
      "d": 149.45608333332348,
      "v": 115
    },
    {
      "midi": 51,
      "hit": false,
      "t": 45023.64510416659,
      "d": 135.86916666666366,
      "v": 123
    },
    {
      "midi": 60,
      "hit": false,
      "t": 45332.74745833325,
      "d": 173.23318749999453,
      "v": 117
    },
    {
      "midi": 56,
      "hit": false,
      "t": 45336.144187499915,
      "d": 146.05935416666762,
      "v": 127
    },
    {
      "midi": 51,
      "hit": false,
      "t": 45336.144187499915,
      "d": 183.4233749999985,
      "v": 127
    },
    {
      "midi": 58,
      "hit": false,
      "t": 45669.023645833244,
      "d": 2367.5202291666574,
      "v": 110
    },
    {
      "midi": 62,
      "hit": false,
      "t": 45672.42037499991,
      "d": 2343.7431249999936,
      "v": 101
    },
    {
      "midi": 65,
      "hit": false,
      "t": 45672.42037499991,
      "d": 2401.487520833325,
      "v": 102
    },
    {
      "midi": 55,
      "hit": false,
      "t": 45672.42037499991,
      "d": 2520.3730416666585,
      "v": 98
    },
    {
      "midi": 43,
      "hit": false,
      "t": 45675.81710416657,
      "d": 2584.910895833331,
      "v": 95
    },
    {
      "midi": 60,
      "hit": false,
      "t": 48274.31491666657,
      "d": 2211.2706875000003,
      "v": 98
    },
    {
      "midi": 56,
      "hit": false,
      "t": 48274.31491666657,
      "d": 2231.651062500001,
      "v": 101
    },
    {
      "midi": 46,
      "hit": false,
      "t": 48274.31491666657,
      "d": 2561.133791666667,
      "v": 97
    },
    {
      "midi": 63,
      "hit": false,
      "t": 48281.1083749999,
      "d": 2248.634708333331,
      "v": 92
    },
    {
      "midi": 58,
      "hit": false,
      "t": 50876.20945833324,
      "d": 3271.05018749999,
      "v": 96
    },
    {
      "midi": 63,
      "hit": false,
      "t": 50883.00291666657,
      "d": 3260.8599999999933,
      "v": 96
    },
    {
      "midi": 55,
      "hit": false,
      "t": 50886.39964583323,
      "d": 3264.2567291666564,
      "v": 88
    },
    {
      "midi": 67,
      "hit": false,
      "t": 50889.796374999896,
      "d": 3260.8599999999933,
      "v": 93
    },
    {
      "midi": 48,
      "hit": false,
      "t": 50899.98656249989,
      "d": 3267.653458333327,
      "v": 92
    },
    {
      "midi": 62,
      "hit": false,
      "t": 56086.791999999885,
      "d": 2313.1725624999963,
      "v": 96
    },
    {
      "midi": 43,
      "hit": false,
      "t": 56086.791999999885,
      "d": 2340.3463958333305,
      "v": 89
    },
    {
      "midi": 31,
      "hit": false,
      "t": 56086.791999999885,
      "d": 2343.7431249999936,
      "v": 95
    },
    {
      "midi": 58,
      "hit": false,
      "t": 56086.791999999885,
      "d": 2353.9333124999903,
      "v": 101
    },
    {
      "midi": 55,
      "hit": false,
      "t": 56086.791999999885,
      "d": 2432.0580833333224,
      "v": 96
    },
    {
      "midi": 56,
      "hit": false,
      "t": 58692.08327083321,
      "d": 2347.1398541666567,
      "v": 99
    },
    {
      "midi": 60,
      "hit": false,
      "t": 58695.47999999987,
      "d": 2347.1398541666567,
      "v": 96
    },
    {
      "midi": 63,
      "hit": false,
      "t": 58695.47999999987,
      "d": 2391.297333333321,
      "v": 96
    },
    {
      "midi": 34,
      "hit": false,
      "t": 58698.876729166535,
      "d": 2357.3300416666607,
      "v": 101
    },
    {
      "midi": 46,
      "hit": false,
      "t": 58698.876729166535,
      "d": 2398.0907916666547,
      "v": 89
    },
    {
      "midi": 36,
      "hit": false,
      "t": 61300.77127083319,
      "d": 2588.3076250000013,
      "v": 88
    },
    {
      "midi": 55,
      "hit": false,
      "t": 61307.56472916652,
      "d": 2449.041729166667,
      "v": 95
    },
    {
      "midi": 58,
      "hit": false,
      "t": 61307.56472916652,
      "d": 2527.1664999999994,
      "v": 101
    },
    {
      "midi": 63,
      "hit": false,
      "t": 61307.56472916652,
      "d": 2527.1664999999994,
      "v": 99
    },
    {
      "midi": 48,
      "hit": false,
      "t": 61307.56472916652,
      "d": 2567.9272500000006,
      "v": 83
    },
    {
      "midi": 55,
      "hit": false,
      "t": 63912.855999999854,
      "d": 2503.389395833321,
      "v": 90
    },
    {
      "midi": 41,
      "hit": false,
      "t": 63923.04618749985,
      "d": 2530.5632291666625,
      "v": 92
    },
    {
      "midi": 58,
      "hit": false,
      "t": 63926.442916666514,
      "d": 2476.215562499994,
      "v": 119
    },
    {
      "midi": 63,
      "hit": false,
      "t": 63933.23637499985,
      "d": 2479.6122916666645,
      "v": 121
    },
    {
      "midi": 58,
      "hit": false,
      "t": 66524.94072916651,
      "d": 2415.074437499992,
      "v": 96
    },
    {
      "midi": 63,
      "hit": false,
      "t": 66528.33745833318,
      "d": 2445.6449999999895,
      "v": 90
    },
    {
      "midi": 55,
      "hit": false,
      "t": 66531.73418749984,
      "d": 2398.090791666662,
      "v": 86
    },
    {
      "midi": 56,
      "hit": false,
      "t": 69137.02545833317,
      "d": 1701.7613124999916,
      "v": 92
    },
    {
      "midi": 59,
      "hit": false,
      "t": 69143.8189166665,
      "d": 1657.6038333333272,
      "v": 100
    },
    {
      "midi": 63,
      "hit": false,
      "t": 69147.21564583316,
      "d": 1803.663187500002,
      "v": 92
    },
    {
      "midi": 54,
      "hit": false,
      "t": 69150.61237499982,
      "d": 1742.5220625000075,
      "v": 93
    },
    {
      "midi": 56,
      "hit": false,
      "t": 71117.31856249983,
      "d": 540.0799374999915,
      "v": 97
    },
    {
      "midi": 61,
      "hit": false,
      "t": 71120.71529166649,
      "d": 594.4276041666599,
      "v": 96
    },
    {
      "midi": 53,
      "hit": false,
      "t": 71124.11202083316,
      "d": 546.8733958333323,
      "v": 93
    },
    {
      "midi": 63,
      "hit": false,
      "t": 71759.30037499982,
      "d": 2194.2870416666556,
      "v": 85
    },
    {
      "midi": 58,
      "hit": false,
      "t": 71762.69710416648,
      "d": 2245.237979166661,
      "v": 101
    },
    {
      "midi": 55,
      "hit": false,
      "t": 71766.09383333314,
      "d": 2218.0641458333266,
      "v": 91
    },
    {
      "midi": 56,
      "hit": false,
      "t": 74354.40145833314,
      "d": 1222.8224999999802,
      "v": 54
    },
    {
      "midi": 59,
      "hit": false,
      "t": 74371.38510416647,
      "d": 1222.8224999999802,
      "v": 102
    },
    {
      "midi": 54,
      "hit": false,
      "t": 74374.78183333314,
      "d": 1199.0453958333237,
      "v": 84
    },
    {
      "midi": 63,
      "hit": false,
      "t": 74381.57529166646,
      "d": 1229.615958333321,
      "v": 102
    },
    {
      "midi": 56,
      "hit": false,
      "t": 75665.53891666645,
      "d": 112.09206249998533,
      "v": 119
    },
    {
      "midi": 53,
      "hit": false,
      "t": 75672.33237499978,
      "d": 98.50514583333279,
      "v": 107
    },
    {
      "midi": 58,
      "hit": false,
      "t": 75672.33237499978,
      "d": 108.6953333333222,
      "v": 123
    },
    {
      "midi": 61,
      "hit": false,
      "t": 75672.33237499978,
      "d": 118.88552083332615,
      "v": 119
    },
    {
      "midi": 61,
      "hit": false,
      "t": 75998.41837499978,
      "d": 122.28225000000384,
      "v": 119
    },
    {
      "midi": 53,
      "hit": false,
      "t": 75998.41837499978,
      "d": 129.0757083333301,
      "v": 104
    },
    {
      "midi": 58,
      "hit": false,
      "t": 75998.41837499978,
      "d": 135.86916666665638,
      "v": 123
    },
    {
      "midi": 56,
      "hit": false,
      "t": 75998.41837499978,
      "d": 142.66262499998265,
      "v": 121
    },
    {
      "midi": 56,
      "hit": false,
      "t": 76321.1076458331,
      "d": 142.6626249999972,
      "v": 123
    },
    {
      "midi": 60,
      "hit": false,
      "t": 76324.50437499976,
      "d": 149.45608333333803,
      "v": 115
    },
    {
      "midi": 51,
      "hit": false,
      "t": 76327.90110416642,
      "d": 135.86916666667094,
      "v": 123
    },
    {
      "midi": 60,
      "hit": false,
      "t": 76637.0034583331,
      "d": 173.23318749999453,
      "v": 117
    },
    {
      "midi": 56,
      "hit": false,
      "t": 76640.40018749976,
      "d": 146.05935416666034,
      "v": 127
    },
    {
      "midi": 51,
      "hit": false,
      "t": 76640.40018749976,
      "d": 183.4233749999985,
      "v": 127
    },
    {
      "midi": 58,
      "hit": false,
      "t": 76959.69272916643,
      "d": 2415.074437499992,
      "v": 96
    },
    {
      "midi": 63,
      "hit": false,
      "t": 76963.0894583331,
      "d": 2445.6449999999895,
      "v": 90
    },
    {
      "midi": 55,
      "hit": false,
      "t": 76966.48618749976,
      "d": 2398.090791666662,
      "v": 86
    },
    {
      "midi": 56,
      "hit": false,
      "t": 79571.77745833309,
      "d": 1701.7613124999916,
      "v": 92
    },
    {
      "midi": 59,
      "hit": false,
      "t": 79578.57091666642,
      "d": 1657.6038333333272,
      "v": 100
    },
    {
      "midi": 63,
      "hit": false,
      "t": 79581.96764583308,
      "d": 1803.663187500002,
      "v": 92
    },
    {
      "midi": 54,
      "hit": false,
      "t": 79585.36437499974,
      "d": 1742.5220625000075,
      "v": 93
    },
    {
      "midi": 56,
      "hit": false,
      "t": 81552.07056249975,
      "d": 540.0799374999915,
      "v": 97
    },
    {
      "midi": 61,
      "hit": false,
      "t": 81555.46729166641,
      "d": 594.4276041666599,
      "v": 96
    },
    {
      "midi": 53,
      "hit": false,
      "t": 81558.86402083308,
      "d": 546.8733958333323,
      "v": 93
    },
    {
      "midi": 63,
      "hit": false,
      "t": 82194.05237499974,
      "d": 2194.2870416666556,
      "v": 85
    },
    {
      "midi": 58,
      "hit": false,
      "t": 82197.4491041664,
      "d": 2245.237979166661,
      "v": 101
    },
    {
      "midi": 55,
      "hit": false,
      "t": 82200.84583333306,
      "d": 2218.0641458333266,
      "v": 91
    },
    {
      "midi": 56,
      "hit": false,
      "t": 84789.15345833306,
      "d": 1222.8224999999802,
      "v": 54
    },
    {
      "midi": 59,
      "hit": false,
      "t": 84806.1371041664,
      "d": 1222.8224999999802,
      "v": 102
    },
    {
      "midi": 54,
      "hit": false,
      "t": 84809.53383333306,
      "d": 1199.0453958333237,
      "v": 84
    },
    {
      "midi": 63,
      "hit": false,
      "t": 84816.32729166638,
      "d": 1229.615958333321,
      "v": 102
    },
    {
      "midi": 56,
      "hit": false,
      "t": 86100.29091666637,
      "d": 112.09206249998533,
      "v": 119
    },
    {
      "midi": 53,
      "hit": false,
      "t": 86107.0843749997,
      "d": 98.50514583333279,
      "v": 107
    },
    {
      "midi": 58,
      "hit": false,
      "t": 86107.0843749997,
      "d": 108.6953333333222,
      "v": 123
    },
    {
      "midi": 61,
      "hit": false,
      "t": 86107.0843749997,
      "d": 118.88552083332615,
      "v": 119
    },
    {
      "midi": 61,
      "hit": false,
      "t": 86433.1703749997,
      "d": 122.28225000000384,
      "v": 119
    },
    {
      "midi": 53,
      "hit": false,
      "t": 86433.1703749997,
      "d": 129.0757083333301,
      "v": 104
    },
    {
      "midi": 58,
      "hit": false,
      "t": 86433.1703749997,
      "d": 135.86916666665638,
      "v": 123
    },
    {
      "midi": 56,
      "hit": false,
      "t": 86433.1703749997,
      "d": 142.66262499998265,
      "v": 121
    },
    {
      "midi": 56,
      "hit": false,
      "t": 86755.85964583301,
      "d": 142.6626249999972,
      "v": 123
    },
    {
      "midi": 60,
      "hit": false,
      "t": 86759.25637499968,
      "d": 149.45608333333803,
      "v": 115
    },
    {
      "midi": 51,
      "hit": false,
      "t": 86762.65310416634,
      "d": 135.86916666667094,
      "v": 123
    },
    {
      "midi": 60,
      "hit": false,
      "t": 87071.75545833302,
      "d": 173.23318749999453,
      "v": 117
    },
    {
      "midi": 56,
      "hit": false,
      "t": 87075.15218749968,
      "d": 146.05935416666034,
      "v": 127
    },
    {
      "midi": 51,
      "hit": false,
      "t": 87075.15218749968,
      "d": 183.4233749999985,
      "v": 127
    },
    {
      "midi": 58,
      "hit": false,
      "t": 87408.03164583302,
      "d": 2367.52022916665,
      "v": 110
    },
    {
      "midi": 62,
      "hit": false,
      "t": 87411.42837499968,
      "d": 2343.7431249999936,
      "v": 101
    },
    {
      "midi": 65,
      "hit": false,
      "t": 87411.42837499968,
      "d": 2401.487520833325,
      "v": 102
    },
    {
      "midi": 55,
      "hit": false,
      "t": 87411.42837499968,
      "d": 2520.3730416666513,
      "v": 98
    },
    {
      "midi": 43,
      "hit": false,
      "t": 87414.82510416635,
      "d": 2584.9108958333236,
      "v": 95
    },
    {
      "midi": 60,
      "hit": false,
      "t": 90013.32291666634,
      "d": 2211.270687499986,
      "v": 98
    },
    {
      "midi": 56,
      "hit": false,
      "t": 90013.32291666634,
      "d": 2231.651062499979,
      "v": 101
    },
    {
      "midi": 46,
      "hit": false,
      "t": 90013.32291666634,
      "d": 2561.1337916666525,
      "v": 97
    },
    {
      "midi": 63,
      "hit": false,
      "t": 90020.11637499966,
      "d": 2248.634708333324,
      "v": 92
    },
    {
      "midi": 58,
      "hit": false,
      "t": 92615.21745833299,
      "d": 3271.05018749999,
      "v": 96
    },
    {
      "midi": 63,
      "hit": false,
      "t": 92622.01091666632,
      "d": 3260.8600000000006,
      "v": 96
    },
    {
      "midi": 55,
      "hit": false,
      "t": 92625.40764583298,
      "d": 3264.2567291666637,
      "v": 88
    },
    {
      "midi": 67,
      "hit": false,
      "t": 92628.80437499964,
      "d": 3260.8600000000006,
      "v": 93
    },
    {
      "midi": 48,
      "hit": false,
      "t": 92638.99456249965,
      "d": 3267.653458333327,
      "v": 92
    },
    {
      "midi": 62,
      "hit": false,
      "t": 97825.79999999964,
      "d": 2313.1725624999963,
      "v": 96
    },
    {
      "midi": 43,
      "hit": false,
      "t": 97825.79999999964,
      "d": 2340.3463958333305,
      "v": 89
    },
    {
      "midi": 31,
      "hit": false,
      "t": 97825.79999999964,
      "d": 2343.7431249999936,
      "v": 95
    },
    {
      "midi": 58,
      "hit": false,
      "t": 97825.79999999964,
      "d": 2353.9333124999976,
      "v": 101
    },
    {
      "midi": 55,
      "hit": false,
      "t": 97825.79999999964,
      "d": 2432.058083333337,
      "v": 96
    },
    {
      "midi": 56,
      "hit": false,
      "t": 100431.09127083297,
      "d": 2347.1398541666567,
      "v": 99
    },
    {
      "midi": 60,
      "hit": false,
      "t": 100434.48799999963,
      "d": 2347.1398541666567,
      "v": 96
    },
    {
      "midi": 63,
      "hit": false,
      "t": 100434.48799999963,
      "d": 2391.297333333321,
      "v": 96
    },
    {
      "midi": 34,
      "hit": false,
      "t": 100437.8847291663,
      "d": 2357.3300416666607,
      "v": 101
    },
    {
      "midi": 46,
      "hit": false,
      "t": 100437.8847291663,
      "d": 2398.090791666662,
      "v": 89
    },
    {
      "midi": 36,
      "hit": false,
      "t": 103039.77927083297,
      "d": 2588.3076250000013,
      "v": 88
    },
    {
      "midi": 55,
      "hit": false,
      "t": 103046.57272916629,
      "d": 2449.041729166667,
      "v": 95
    },
    {
      "midi": 58,
      "hit": false,
      "t": 103046.57272916629,
      "d": 2527.1665000000066,
      "v": 101
    },
    {
      "midi": 63,
      "hit": false,
      "t": 103046.57272916629,
      "d": 2527.1665000000066,
      "v": 99
    },
    {
      "midi": 48,
      "hit": false,
      "t": 103046.57272916629,
      "d": 2567.927250000008,
      "v": 83
    },
    {
      "midi": 55,
      "hit": false,
      "t": 105651.86399999964,
      "d": 2503.389395833321,
      "v": 90
    },
    {
      "midi": 41,
      "hit": false,
      "t": 105662.05418749964,
      "d": 2530.563229166655,
      "v": 92
    },
    {
      "midi": 58,
      "hit": false,
      "t": 105665.4509166663,
      "d": 2476.215562499987,
      "v": 119
    },
    {
      "midi": 63,
      "hit": false,
      "t": 105672.24437499963,
      "d": 2479.6122916666645,
      "v": 121
    },
    {
      "midi": 63,
      "hit": false,
      "t": 108267.34545833296,
      "d": 417.7976875000022,
      "v": 106
    },
    {
      "midi": 70,
      "hit": false,
      "t": 108270.74218749962,
      "d": 414.4009583333391,
      "v": 102
    },
    {
      "midi": 67,
      "hit": false,
      "t": 108270.74218749962,
      "d": 424.59114583334303,
      "v": 98
    },
    {
      "midi": 63,
      "hit": false,
      "t": 108800.63193749964,
      "d": 98.50514583333279,
      "v": 108
    },
    {
      "midi": 67,
      "hit": false,
      "t": 108800.63193749964,
      "d": 118.88552083332615,
      "v": 101
    },
    {
      "midi": 70,
      "hit": false,
      "t": 108800.63193749964,
      "d": 125.67897916665243,
      "v": 104
    },
    {
      "midi": 63,
      "hit": false,
      "t": 109116.52774999963,
      "d": 115.48879166666302,
      "v": 104
    },
    {
      "midi": 70,
      "hit": false,
      "t": 109116.52774999963,
      "d": 125.67897916666698,
      "v": 106
    },
    {
      "midi": 67,
      "hit": false,
      "t": 109116.52774999963,
      "d": 129.0757083333301,
      "v": 98
    },
    {
      "midi": 63,
      "hit": false,
      "t": 109446.01047916629,
      "d": 1097.1435208333278,
      "v": 110
    },
    {
      "midi": 67,
      "hit": false,
      "t": 109446.01047916629,
      "d": 1103.936979166654,
      "v": 102
    },
    {
      "midi": 70,
      "hit": false,
      "t": 109449.40720833295,
      "d": 1100.540249999991,
      "v": 110
    },
    {
      "midi": 70,
      "hit": false,
      "t": 110879.43018749962,
      "d": 441.5747916666587,
      "v": 94
    },
    {
      "midi": 66,
      "hit": false,
      "t": 110879.43018749962,
      "d": 472.14535416665603,
      "v": 102
    },
    {
      "midi": 62,
      "hit": false,
      "t": 110882.82691666628,
      "d": 468.7486249999929,
      "v": 89
    },
    {
      "midi": 70,
      "hit": false,
      "t": 111412.71666666627,
      "d": 387.22712499999034,
      "v": 99
    },
    {
      "midi": 66,
      "hit": false,
      "t": 111416.11339583293,
      "d": 383.8303958333272,
      "v": 97
    },
    {
      "midi": 62,
      "hit": false,
      "t": 111416.11339583293,
      "d": 387.22712499999034,
      "v": 92
    },
    {
      "midi": 70,
      "hit": false,
      "t": 112187.17091666625,
      "d": 458.5584375000035,
      "v": 99
    },
    {
      "midi": 66,
      "hit": false,
      "t": 112187.17091666625,
      "d": 472.1453541666706,
      "v": 110
    },
    {
      "midi": 62,
      "hit": false,
      "t": 112190.56764583291,
      "d": 478.9388125000114,
      "v": 92
    },
    {
      "midi": 70,
      "hit": false,
      "t": 112723.85412499959,
      "d": 417.79768749998766,
      "v": 104
    },
    {
      "midi": 66,
      "hit": false,
      "t": 112723.85412499959,
      "d": 421.1944166666508,
      "v": 102
    },
    {
      "midi": 62,
      "hit": false,
      "t": 112730.64758333292,
      "d": 431.38460416665475,
      "v": 93
    },
    {
      "midi": 63,
      "hit": false,
      "t": 113494.91164583291,
      "d": 397.4173124999943,
      "v": 112
    },
    {
      "midi": 60,
      "hit": false,
      "t": 113494.91164583291,
      "d": 407.60749999999825,
      "v": 90
    },
    {
      "midi": 70,
      "hit": false,
      "t": 113498.30837499957,
      "d": 377.03693750000093,
      "v": 110
    },
    {
      "midi": 60,
      "hit": false,
      "t": 113994.23083333291,
      "d": 142.66262499998265,
      "v": 85
    },
    {
      "midi": 63,
      "hit": false,
      "t": 113997.62756249958,
      "d": 132.47243749999325,
      "v": 106
    },
    {
      "midi": 70,
      "hit": false,
      "t": 113997.62756249958,
      "d": 149.45608333332348,
      "v": 101
    },
    {
      "midi": 63,
      "hit": false,
      "t": 114320.3168333329,
      "d": 152.85281250000116,
      "v": 108
    },
    {
      "midi": 70,
      "hit": false,
      "t": 114320.3168333329,
      "d": 156.2495416666643,
      "v": 102
    },
    {
      "midi": 60,
      "hit": false,
      "t": 114323.71356249956,
      "d": 173.23318749999453,
      "v": 88
    },
    {
      "midi": 70,
      "hit": false,
      "t": 114643.00610416621,
      "d": 1141.3010000000068,
      "v": 102
    },
    {
      "midi": 63,
      "hit": false,
      "t": 114643.00610416621,
      "d": 1168.474833333341,
      "v": 106
    },
    {
      "midi": 60,
      "hit": false,
      "t": 114643.00610416621,
      "d": 1182.061750000008,
      "v": 89
    },
    {
      "midi": 63,
      "hit": false,
      "t": 116100.20291666623,
      "d": 417.79768749998766,
      "v": 89
    },
    {
      "midi": 65,
      "hit": false,
      "t": 116103.59964583289,
      "d": 434.7813333333179,
      "v": 93
    },
    {
      "midi": 70,
      "hit": false,
      "t": 116106.99637499955,
      "d": 421.19441666666535,
      "v": 94
    },
    {
      "midi": 60,
      "hit": false,
      "t": 116106.99637499955,
      "d": 424.5911458333285,
      "v": 80
    },
    {
      "midi": 65,
      "hit": false,
      "t": 116606.31556249954,
      "d": 417.79768749998766,
      "v": 100
    },
    {
      "midi": 70,
      "hit": false,
      "t": 116609.7122916662,
      "d": 404.21077083332057,
      "v": 92
    },
    {
      "midi": 63,
      "hit": false,
      "t": 116613.10902083287,
      "d": 394.02058333333116,
      "v": 102
    },
    {
      "midi": 60,
      "hit": false,
      "t": 116613.10902083287,
      "d": 400.81404166665743,
      "v": 93
    },
    {
      "midi": 63,
      "hit": false,
      "t": 117384.1665416662,
      "d": 489.12899999998626,
      "v": 90
    },
    {
      "midi": 70,
      "hit": false,
      "t": 117387.56327083286,
      "d": 482.33554166666,
      "v": 96
    },
    {
      "midi": 60,
      "hit": false,
      "t": 117390.95999999953,
      "d": 495.9224583333271,
      "v": 93
    },
    {
      "midi": 65,
      "hit": false,
      "t": 117390.95999999953,
      "d": 495.9224583333271,
      "v": 97
    },
    {
      "midi": 63,
      "hit": false,
      "t": 117944.62685416618,
      "d": 380.4336666666495,
      "v": 101
    },
    {
      "midi": 65,
      "hit": false,
      "t": 117944.62685416618,
      "d": 400.8140416666429,
      "v": 101
    },
    {
      "midi": 60,
      "hit": false,
      "t": 117948.02358333285,
      "d": 370.2434791666601,
      "v": 95
    },
    {
      "midi": 70,
      "hit": false,
      "t": 117948.02358333285,
      "d": 397.41731249997974,
      "v": 101
    },
    {
      "midi": 63,
      "hit": false,
      "t": 118702.09745833282,
      "d": 417.7976875000022,
      "v": 106
    },
    {
      "midi": 70,
      "hit": false,
      "t": 118705.49418749948,
      "d": 414.4009583333391,
      "v": 102
    },
    {
      "midi": 67,
      "hit": false,
      "t": 118705.49418749948,
      "d": 424.59114583334303,
      "v": 98
    },
    {
      "midi": 63,
      "hit": false,
      "t": 119235.3839374995,
      "d": 98.50514583333279,
      "v": 108
    },
    {
      "midi": 67,
      "hit": false,
      "t": 119235.3839374995,
      "d": 118.88552083332615,
      "v": 101
    },
    {
      "midi": 70,
      "hit": false,
      "t": 119235.3839374995,
      "d": 125.67897916665243,
      "v": 104
    },
    {
      "midi": 63,
      "hit": false,
      "t": 119551.27974999949,
      "d": 115.48879166666302,
      "v": 104
    },
    {
      "midi": 70,
      "hit": false,
      "t": 119551.27974999949,
      "d": 125.67897916666698,
      "v": 106
    },
    {
      "midi": 67,
      "hit": false,
      "t": 119551.27974999949,
      "d": 129.0757083333301,
      "v": 98
    },
    {
      "midi": 63,
      "hit": false,
      "t": 119880.76247916615,
      "d": 1097.1435208333278,
      "v": 110
    },
    {
      "midi": 67,
      "hit": false,
      "t": 119880.76247916615,
      "d": 1103.936979166654,
      "v": 102
    },
    {
      "midi": 70,
      "hit": false,
      "t": 119884.15920833281,
      "d": 1100.540249999991,
      "v": 110
    },
    {
      "midi": 70,
      "hit": false,
      "t": 121314.18218749948,
      "d": 441.5747916666587,
      "v": 94
    },
    {
      "midi": 66,
      "hit": false,
      "t": 121314.18218749948,
      "d": 472.14535416665603,
      "v": 102
    },
    {
      "midi": 62,
      "hit": false,
      "t": 121317.57891666614,
      "d": 468.7486249999929,
      "v": 89
    },
    {
      "midi": 70,
      "hit": false,
      "t": 121847.46866666613,
      "d": 387.22712499999034,
      "v": 99
    },
    {
      "midi": 66,
      "hit": false,
      "t": 121850.86539583279,
      "d": 383.8303958333272,
      "v": 97
    },
    {
      "midi": 62,
      "hit": false,
      "t": 121850.86539583279,
      "d": 387.22712499999034,
      "v": 92
    },
    {
      "midi": 70,
      "hit": false,
      "t": 122621.92291666611,
      "d": 458.5584375000035,
      "v": 99
    },
    {
      "midi": 66,
      "hit": false,
      "t": 122621.92291666611,
      "d": 472.1453541666706,
      "v": 110
    },
    {
      "midi": 62,
      "hit": false,
      "t": 122625.31964583277,
      "d": 478.9388125000114,
      "v": 92
    },
    {
      "midi": 70,
      "hit": false,
      "t": 123158.60612499945,
      "d": 417.79768749998766,
      "v": 104
    },
    {
      "midi": 66,
      "hit": false,
      "t": 123158.60612499945,
      "d": 421.1944166666508,
      "v": 102
    },
    {
      "midi": 62,
      "hit": false,
      "t": 123165.39958333278,
      "d": 431.38460416665475,
      "v": 93
    },
    {
      "midi": 63,
      "hit": false,
      "t": 123929.66364583277,
      "d": 397.4173124999943,
      "v": 112
    },
    {
      "midi": 60,
      "hit": false,
      "t": 123929.66364583277,
      "d": 407.60749999999825,
      "v": 90
    },
    {
      "midi": 70,
      "hit": false,
      "t": 123933.06037499943,
      "d": 377.03693750000093,
      "v": 110
    },
    {
      "midi": 60,
      "hit": false,
      "t": 124428.98283333278,
      "d": 142.66262499998265,
      "v": 85
    },
    {
      "midi": 63,
      "hit": false,
      "t": 124432.37956249944,
      "d": 132.47243749999325,
      "v": 106
    },
    {
      "midi": 70,
      "hit": false,
      "t": 124432.37956249944,
      "d": 149.45608333332348,
      "v": 101
    },
    {
      "midi": 63,
      "hit": false,
      "t": 124755.06883333276,
      "d": 152.85281250000116,
      "v": 108
    },
    {
      "midi": 70,
      "hit": false,
      "t": 124755.06883333276,
      "d": 156.2495416666643,
      "v": 102
    },
    {
      "midi": 60,
      "hit": false,
      "t": 124758.46556249942,
      "d": 173.23318749999453,
      "v": 88
    },
    {
      "midi": 70,
      "hit": false,
      "t": 125077.75810416607,
      "d": 1141.3010000000068,
      "v": 102
    },
    {
      "midi": 63,
      "hit": false,
      "t": 125077.75810416607,
      "d": 1168.474833333341,
      "v": 106
    },
    {
      "midi": 60,
      "hit": false,
      "t": 125077.75810416607,
      "d": 1182.061750000008,
      "v": 89
    },
    {
      "midi": 63,
      "hit": false,
      "t": 126534.95491666609,
      "d": 417.79768749998766,
      "v": 89
    },
    {
      "midi": 65,
      "hit": false,
      "t": 126538.35164583275,
      "d": 434.7813333333179,
      "v": 93
    },
    {
      "midi": 70,
      "hit": false,
      "t": 126541.74837499941,
      "d": 421.19441666666535,
      "v": 94
    },
    {
      "midi": 60,
      "hit": false,
      "t": 126541.74837499941,
      "d": 424.5911458333285,
      "v": 80
    },
    {
      "midi": 65,
      "hit": false,
      "t": 127041.0675624994,
      "d": 417.79768749998766,
      "v": 100
    },
    {
      "midi": 70,
      "hit": false,
      "t": 127044.46429166607,
      "d": 404.21077083332057,
      "v": 92
    },
    {
      "midi": 63,
      "hit": false,
      "t": 127047.86102083273,
      "d": 394.02058333333116,
      "v": 102
    },
    {
      "midi": 60,
      "hit": false,
      "t": 127047.86102083273,
      "d": 400.81404166665743,
      "v": 93
    },
    {
      "midi": 63,
      "hit": false,
      "t": 127818.91854166606,
      "d": 489.12899999998626,
      "v": 90
    },
    {
      "midi": 70,
      "hit": false,
      "t": 127822.31527083273,
      "d": 482.33554166666,
      "v": 96
    },
    {
      "midi": 60,
      "hit": false,
      "t": 127825.71199999939,
      "d": 495.9224583333271,
      "v": 93
    },
    {
      "midi": 65,
      "hit": false,
      "t": 127825.71199999939,
      "d": 495.9224583333271,
      "v": 97
    },
    {
      "midi": 63,
      "hit": false,
      "t": 128379.37885416605,
      "d": 380.4336666666495,
      "v": 101
    },
    {
      "midi": 65,
      "hit": false,
      "t": 128379.37885416605,
      "d": 400.8140416666429,
      "v": 101
    },
    {
      "midi": 60,
      "hit": false,
      "t": 128382.77558333271,
      "d": 370.2434791666601,
      "v": 95
    },
    {
      "midi": 70,
      "hit": false,
      "t": 128382.77558333271,
      "d": 397.41731249997974,
      "v": 101
    },
    {
      "midi": 58,
      "hit": false,
      "t": 129147.03964583269,
      "d": 2367.520229166679,
      "v": 110
    },
    {
      "midi": 62,
      "hit": false,
      "t": 129150.43637499935,
      "d": 2343.743125000008,
      "v": 101
    },
    {
      "midi": 65,
      "hit": false,
      "t": 129150.43637499935,
      "d": 2401.487520833354,
      "v": 102
    },
    {
      "midi": 55,
      "hit": false,
      "t": 129150.43637499935,
      "d": 2520.373041666695,
      "v": 98
    },
    {
      "midi": 43,
      "hit": false,
      "t": 129153.83310416601,
      "d": 2584.9108958333527,
      "v": 95
    },
    {
      "midi": 60,
      "hit": false,
      "t": 131752.33091666602,
      "d": 2211.270687499986,
      "v": 98
    },
    {
      "midi": 56,
      "hit": false,
      "t": 131752.33091666602,
      "d": 2231.6510624999937,
      "v": 101
    },
    {
      "midi": 46,
      "hit": false,
      "t": 131752.33091666602,
      "d": 2561.1337916666525,
      "v": 97
    },
    {
      "midi": 63,
      "hit": false,
      "t": 131759.12437499934,
      "d": 2248.634708333324,
      "v": 92
    },
    {
      "midi": 58,
      "hit": false,
      "t": 134354.22545833266,
      "d": 3271.050187500019,
      "v": 96
    },
    {
      "midi": 63,
      "hit": false,
      "t": 134361.01891666598,
      "d": 3260.860000000015,
      "v": 96
    },
    {
      "midi": 55,
      "hit": false,
      "t": 134364.41564583266,
      "d": 3264.256729166693,
      "v": 88
    },
    {
      "midi": 67,
      "hit": false,
      "t": 134367.81237499934,
      "d": 3260.860000000015,
      "v": 93
    },
    {
      "midi": 48,
      "hit": false,
      "t": 134378.00256249934,
      "d": 3267.6534583333414,
      "v": 92
    },
    {
      "midi": 62,
      "hit": false,
      "t": 139564.80799999935,
      "d": 2313.1725624999963,
      "v": 96
    },
    {
      "midi": 43,
      "hit": false,
      "t": 139564.80799999935,
      "d": 2340.3463958333305,
      "v": 89
    },
    {
      "midi": 31,
      "hit": false,
      "t": 139564.80799999935,
      "d": 2343.743125000008,
      "v": 95
    },
    {
      "midi": 58,
      "hit": false,
      "t": 139564.80799999935,
      "d": 2353.933312500012,
      "v": 101
    },
    {
      "midi": 55,
      "hit": false,
      "t": 139564.80799999935,
      "d": 2432.058083333337,
      "v": 96
    },
    {
      "midi": 56,
      "hit": false,
      "t": 142170.0992708327,
      "d": 2347.139854166686,
      "v": 99
    },
    {
      "midi": 60,
      "hit": false,
      "t": 142173.49599999937,
      "d": 2347.139854166686,
      "v": 96
    },
    {
      "midi": 63,
      "hit": false,
      "t": 142173.49599999937,
      "d": 2391.2973333333503,
      "v": 96
    },
    {
      "midi": 34,
      "hit": false,
      "t": 142176.89272916605,
      "d": 2357.3300416666607,
      "v": 101
    },
    {
      "midi": 46,
      "hit": false,
      "t": 142176.89272916605,
      "d": 2398.0907916666765,
      "v": 89
    },
    {
      "midi": 36,
      "hit": false,
      "t": 144778.78727083272,
      "d": 2588.3076249999576,
      "v": 88
    },
    {
      "midi": 55,
      "hit": false,
      "t": 144785.58072916605,
      "d": 2449.041729166667,
      "v": 95
    },
    {
      "midi": 58,
      "hit": false,
      "t": 144785.58072916605,
      "d": 2527.166499999992,
      "v": 101
    },
    {
      "midi": 63,
      "hit": false,
      "t": 144785.58072916605,
      "d": 2527.166499999992,
      "v": 99
    },
    {
      "midi": 48,
      "hit": false,
      "t": 144785.58072916605,
      "d": 2567.927249999979,
      "v": 83
    },
    {
      "midi": 55,
      "hit": false,
      "t": 147390.87199999933,
      "d": 2503.3893958333647,
      "v": 90
    },
    {
      "midi": 41,
      "hit": false,
      "t": 147401.06218749934,
      "d": 2530.563229166699,
      "v": 92
    },
    {
      "midi": 58,
      "hit": false,
      "t": 147404.45891666602,
      "d": 2476.2155625000014,
      "v": 119
    },
    {
      "midi": 63,
      "hit": false,
      "t": 147411.25237499934,
      "d": 2479.612291666679,
      "v": 121
    },
    {
      "midi": 63,
      "hit": false,
      "t": 150006.3534583327,
      "d": 417.79768750001676,
      "v": 106
    },
    {
      "midi": 70,
      "hit": false,
      "t": 150009.7501874994,
      "d": 414.4009583333391,
      "v": 102
    },
    {
      "midi": 67,
      "hit": false,
      "t": 150009.7501874994,
      "d": 424.59114583334303,
      "v": 98
    },
    {
      "midi": 63,
      "hit": false,
      "t": 150539.6399374994,
      "d": 98.50514583333279,
      "v": 108
    },
    {
      "midi": 67,
      "hit": false,
      "t": 150539.6399374994,
      "d": 118.8855208333407,
      "v": 101
    },
    {
      "midi": 70,
      "hit": false,
      "t": 150539.6399374994,
      "d": 125.67897916666698,
      "v": 104
    },
    {
      "midi": 63,
      "hit": false,
      "t": 150855.5357499994,
      "d": 115.48879166666302,
      "v": 104
    },
    {
      "midi": 70,
      "hit": false,
      "t": 150855.5357499994,
      "d": 125.67897916666698,
      "v": 106
    },
    {
      "midi": 67,
      "hit": false,
      "t": 150855.5357499994,
      "d": 129.07570833334466,
      "v": 98
    },
    {
      "midi": 63,
      "hit": false,
      "t": 151185.0184791661,
      "d": 1097.1435208333423,
      "v": 110
    },
    {
      "midi": 67,
      "hit": false,
      "t": 151185.0184791661,
      "d": 1103.9369791666686,
      "v": 102
    },
    {
      "midi": 70,
      "hit": false,
      "t": 151188.41520833276,
      "d": 1100.540249999991,
      "v": 110
    },
    {
      "midi": 70,
      "hit": false,
      "t": 152618.4381874994,
      "d": 441.57479166667326,
      "v": 94
    },
    {
      "midi": 66,
      "hit": false,
      "t": 152618.4381874994,
      "d": 472.14535416668514,
      "v": 102
    },
    {
      "midi": 62,
      "hit": false,
      "t": 152621.8349166661,
      "d": 468.74862500000745,
      "v": 89
    },
    {
      "midi": 70,
      "hit": false,
      "t": 153151.7246666661,
      "d": 387.2271250000049,
      "v": 99
    },
    {
      "midi": 66,
      "hit": false,
      "t": 153155.12139583277,
      "d": 383.8303958333272,
      "v": 97
    },
    {
      "midi": 62,
      "hit": false,
      "t": 153155.12139583277,
      "d": 387.2271250000049,
      "v": 92
    },
    {
      "midi": 70,
      "hit": false,
      "t": 153926.1789166661,
      "d": 458.5584375000035,
      "v": 99
    },
    {
      "midi": 66,
      "hit": false,
      "t": 153926.1789166661,
      "d": 472.14535416665603,
      "v": 110
    },
    {
      "midi": 62,
      "hit": false,
      "t": 153929.57564583278,
      "d": 478.9388124999823,
      "v": 92
    },
    {
      "midi": 70,
      "hit": false,
      "t": 154462.86212499943,
      "d": 417.79768749998766,
      "v": 104
    },
    {
      "midi": 66,
      "hit": false,
      "t": 154462.86212499943,
      "d": 421.19441666666535,
      "v": 102
    },
    {
      "midi": 62,
      "hit": false,
      "t": 154469.65558333276,
      "d": 431.3846041666693,
      "v": 93
    },
    {
      "midi": 63,
      "hit": false,
      "t": 155233.91964583276,
      "d": 397.41731250000885,
      "v": 112
    },
    {
      "midi": 60,
      "hit": false,
      "t": 155233.91964583276,
      "d": 407.6075000000128,
      "v": 90
    },
    {
      "midi": 70,
      "hit": false,
      "t": 155237.31637499944,
      "d": 377.03693750000093,
      "v": 110
    },
    {
      "midi": 60,
      "hit": false,
      "t": 155733.23883333278,
      "d": 142.6626249999972,
      "v": 85
    },
    {
      "midi": 63,
      "hit": false,
      "t": 155736.63556249946,
      "d": 132.47243749999325,
      "v": 106
    },
    {
      "midi": 70,
      "hit": false,
      "t": 155736.63556249946,
      "d": 149.45608333332348,
      "v": 101
    },
    {
      "midi": 63,
      "hit": false,
      "t": 156059.3248333328,
      "d": 152.85281250000116,
      "v": 108
    },
    {
      "midi": 70,
      "hit": false,
      "t": 156059.3248333328,
      "d": 156.24954166667885,
      "v": 102
    },
    {
      "midi": 60,
      "hit": false,
      "t": 156062.72156249947,
      "d": 173.23318750000908,
      "v": 88
    },
    {
      "midi": 70,
      "hit": false,
      "t": 156382.01410416616,
      "d": 1141.3010000000068,
      "v": 102
    },
    {
      "midi": 63,
      "hit": false,
      "t": 156382.01410416616,
      "d": 1168.474833333341,
      "v": 106
    },
    {
      "midi": 60,
      "hit": false,
      "t": 156382.01410416616,
      "d": 1182.0617499999935,
      "v": 89
    },
    {
      "midi": 63,
      "hit": false,
      "t": 157839.21091666614,
      "d": 417.79768750001676,
      "v": 89
    },
    {
      "midi": 65,
      "hit": false,
      "t": 157842.60764583282,
      "d": 434.781333333347,
      "v": 93
    },
    {
      "midi": 70,
      "hit": false,
      "t": 157846.0043749995,
      "d": 421.19441666666535,
      "v": 94
    },
    {
      "midi": 60,
      "hit": false,
      "t": 157846.0043749995,
      "d": 424.59114583334303,
      "v": 80
    },
    {
      "midi": 65,
      "hit": false,
      "t": 158345.32356249948,
      "d": 417.79768750001676,
      "v": 100
    },
    {
      "midi": 70,
      "hit": false,
      "t": 158348.72029166616,
      "d": 404.2107708333351,
      "v": 92
    },
    {
      "midi": 63,
      "hit": false,
      "t": 158352.11702083284,
      "d": 394.02058333333116,
      "v": 102
    },
    {
      "midi": 60,
      "hit": false,
      "t": 158352.11702083284,
      "d": 400.81404166665743,
      "v": 93
    },
    {
      "midi": 63,
      "hit": false,
      "t": 159123.17454166617,
      "d": 489.12900000004447,
      "v": 90
    },
    {
      "midi": 70,
      "hit": false,
      "t": 159126.57127083285,
      "d": 482.3355416666891,
      "v": 96
    },
    {
      "midi": 60,
      "hit": false,
      "t": 159129.96799999953,
      "d": 495.92245833334164,
      "v": 93
    },
    {
      "midi": 65,
      "hit": false,
      "t": 159129.96799999953,
      "d": 495.92245833334164,
      "v": 97
    },
    {
      "midi": 63,
      "hit": false,
      "t": 159683.63485416622,
      "d": 380.4336666666786,
      "v": 101
    },
    {
      "midi": 65,
      "hit": false,
      "t": 159683.63485416622,
      "d": 400.81404166668653,
      "v": 101
    },
    {
      "midi": 60,
      "hit": false,
      "t": 159687.0315833329,
      "d": 370.24347916667466,
      "v": 95
    },
    {
      "midi": 70,
      "hit": false,
      "t": 159687.0315833329,
      "d": 397.41731250000885,
      "v": 101
    },
    {
      "midi": 63,
      "hit": false,
      "t": 160441.1054583329,
      "d": 417.79768750001676,
      "v": 106
    },
    {
      "midi": 70,
      "hit": false,
      "t": 160444.50218749957,
      "d": 414.4009583333391,
      "v": 102
    },
    {
      "midi": 67,
      "hit": false,
      "t": 160444.50218749957,
      "d": 424.59114583334303,
      "v": 98
    },
    {
      "midi": 63,
      "hit": false,
      "t": 160974.39193749957,
      "d": 98.50514583333279,
      "v": 108
    },
    {
      "midi": 67,
      "hit": false,
      "t": 160974.39193749957,
      "d": 118.8855208333407,
      "v": 101
    },
    {
      "midi": 70,
      "hit": false,
      "t": 160974.39193749957,
      "d": 125.67897916666698,
      "v": 104
    },
    {
      "midi": 63,
      "hit": false,
      "t": 161290.28774999958,
      "d": 115.48879166666302,
      "v": 104
    },
    {
      "midi": 70,
      "hit": false,
      "t": 161290.28774999958,
      "d": 125.67897916666698,
      "v": 106
    },
    {
      "midi": 67,
      "hit": false,
      "t": 161290.28774999958,
      "d": 129.07570833334466,
      "v": 98
    },
    {
      "midi": 63,
      "hit": false,
      "t": 161619.77047916627,
      "d": 1097.1435208333423,
      "v": 110
    },
    {
      "midi": 67,
      "hit": false,
      "t": 161619.77047916627,
      "d": 1103.9369791666686,
      "v": 102
    },
    {
      "midi": 70,
      "hit": false,
      "t": 161623.16720833295,
      "d": 1100.540249999991,
      "v": 110
    },
    {
      "midi": 70,
      "hit": false,
      "t": 163053.1901874996,
      "d": 441.57479166667326,
      "v": 94
    },
    {
      "midi": 66,
      "hit": false,
      "t": 163053.1901874996,
      "d": 472.14535416668514,
      "v": 102
    },
    {
      "midi": 62,
      "hit": false,
      "t": 163056.58691666627,
      "d": 468.74862500000745,
      "v": 89
    },
    {
      "midi": 70,
      "hit": false,
      "t": 163586.47666666628,
      "d": 387.2271250000049,
      "v": 99
    },
    {
      "midi": 66,
      "hit": false,
      "t": 163589.87339583295,
      "d": 383.8303958333272,
      "v": 97
    },
    {
      "midi": 62,
      "hit": false,
      "t": 163589.87339583295,
      "d": 387.2271250000049,
      "v": 92
    },
    {
      "midi": 70,
      "hit": false,
      "t": 164360.9309166663,
      "d": 458.5584375000035,
      "v": 99
    },
    {
      "midi": 66,
      "hit": false,
      "t": 164360.9309166663,
      "d": 472.14535416665603,
      "v": 110
    },
    {
      "midi": 62,
      "hit": false,
      "t": 164364.32764583296,
      "d": 478.9388124999823,
      "v": 92
    },
    {
      "midi": 70,
      "hit": false,
      "t": 164897.6141249996,
      "d": 417.79768749998766,
      "v": 104
    },
    {
      "midi": 66,
      "hit": false,
      "t": 164897.6141249996,
      "d": 421.19441666666535,
      "v": 102
    },
    {
      "midi": 62,
      "hit": false,
      "t": 164904.40758333294,
      "d": 431.3846041666693,
      "v": 93
    },
    {
      "midi": 63,
      "hit": false,
      "t": 165668.67164583295,
      "d": 397.41731250000885,
      "v": 112
    },
    {
      "midi": 60,
      "hit": false,
      "t": 165668.67164583295,
      "d": 407.6075000000128,
      "v": 90
    },
    {
      "midi": 70,
      "hit": false,
      "t": 165672.06837499962,
      "d": 377.03693750000093,
      "v": 110
    },
    {
      "midi": 60,
      "hit": false,
      "t": 166167.99083333297,
      "d": 142.6626249999972,
      "v": 85
    },
    {
      "midi": 63,
      "hit": false,
      "t": 166171.38756249964,
      "d": 132.47243749999325,
      "v": 106
    },
    {
      "midi": 70,
      "hit": false,
      "t": 166171.38756249964,
      "d": 149.45608333332348,
      "v": 101
    },
    {
      "midi": 63,
      "hit": false,
      "t": 166494.07683333298,
      "d": 152.85281250000116,
      "v": 108
    },
    {
      "midi": 70,
      "hit": false,
      "t": 166494.07683333298,
      "d": 156.24954166667885,
      "v": 102
    },
    {
      "midi": 60,
      "hit": false,
      "t": 166497.47356249965,
      "d": 173.23318750000908,
      "v": 88
    },
    {
      "midi": 70,
      "hit": false,
      "t": 166816.76610416634,
      "d": 1141.3010000000068,
      "v": 102
    },
    {
      "midi": 63,
      "hit": false,
      "t": 166816.76610416634,
      "d": 1168.474833333341,
      "v": 106
    },
    {
      "midi": 60,
      "hit": false,
      "t": 166816.76610416634,
      "d": 1182.0617499999935,
      "v": 89
    },
    {
      "midi": 63,
      "hit": false,
      "t": 168273.96291666632,
      "d": 417.79768750001676,
      "v": 89
    },
    {
      "midi": 65,
      "hit": false,
      "t": 168277.359645833,
      "d": 434.781333333347,
      "v": 93
    },
    {
      "midi": 70,
      "hit": false,
      "t": 168280.75637499968,
      "d": 421.19441666666535,
      "v": 94
    },
    {
      "midi": 60,
      "hit": false,
      "t": 168280.75637499968,
      "d": 424.59114583334303,
      "v": 80
    },
    {
      "midi": 65,
      "hit": false,
      "t": 168780.07556249967,
      "d": 417.79768750001676,
      "v": 100
    },
    {
      "midi": 70,
      "hit": false,
      "t": 168783.47229166634,
      "d": 404.2107708333351,
      "v": 92
    },
    {
      "midi": 63,
      "hit": false,
      "t": 168786.86902083302,
      "d": 394.02058333333116,
      "v": 102
    },
    {
      "midi": 60,
      "hit": false,
      "t": 168786.86902083302,
      "d": 400.81404166665743,
      "v": 93
    },
    {
      "midi": 63,
      "hit": false,
      "t": 169557.92654166635,
      "d": 489.12900000004447,
      "v": 90
    },
    {
      "midi": 70,
      "hit": false,
      "t": 169561.32327083303,
      "d": 482.3355416666891,
      "v": 96
    },
    {
      "midi": 60,
      "hit": false,
      "t": 169564.7199999997,
      "d": 495.92245833334164,
      "v": 93
    },
    {
      "midi": 65,
      "hit": false,
      "t": 169564.7199999997,
      "d": 495.92245833334164,
      "v": 97
    },
    {
      "midi": 63,
      "hit": false,
      "t": 170118.3868541664,
      "d": 380.4336666666786,
      "v": 101
    },
    {
      "midi": 65,
      "hit": false,
      "t": 170118.3868541664,
      "d": 400.81404166668653,
      "v": 101
    },
    {
      "midi": 60,
      "hit": false,
      "t": 170121.78358333308,
      "d": 370.24347916667466,
      "v": 95
    },
    {
      "midi": 70,
      "hit": false,
      "t": 170121.78358333308,
      "d": 397.41731250000885,
      "v": 101
    },
    {
      "midi": 63,
      "hit": false,
      "t": 170875.85745833308,
      "d": 417.79768750001676,
      "v": 106
    },
    {
      "midi": 70,
      "hit": false,
      "t": 170879.25418749976,
      "d": 414.4009583333391,
      "v": 102
    },
    {
      "midi": 67,
      "hit": false,
      "t": 170879.25418749976,
      "d": 424.59114583334303,
      "v": 98
    },
    {
      "midi": 63,
      "hit": false,
      "t": 171409.14393749976,
      "d": 98.50514583333279,
      "v": 108
    },
    {
      "midi": 67,
      "hit": false,
      "t": 171409.14393749976,
      "d": 118.8855208333407,
      "v": 101
    },
    {
      "midi": 70,
      "hit": false,
      "t": 171409.14393749976,
      "d": 125.67897916666698,
      "v": 104
    },
    {
      "midi": 63,
      "hit": false,
      "t": 171725.03974999976,
      "d": 115.48879166666302,
      "v": 104
    },
    {
      "midi": 70,
      "hit": false,
      "t": 171725.03974999976,
      "d": 125.67897916666698,
      "v": 106
    },
    {
      "midi": 67,
      "hit": false,
      "t": 171725.03974999976,
      "d": 129.07570833334466,
      "v": 98
    },
    {
      "midi": 63,
      "hit": false,
      "t": 172054.52247916645,
      "d": 1097.1435208333423,
      "v": 110
    },
    {
      "midi": 67,
      "hit": false,
      "t": 172054.52247916645,
      "d": 1103.9369791666686,
      "v": 102
    },
    {
      "midi": 70,
      "hit": false,
      "t": 172057.91920833313,
      "d": 1100.540249999991,
      "v": 110
    },
    {
      "midi": 70,
      "hit": false,
      "t": 173487.94218749978,
      "d": 441.57479166667326,
      "v": 94
    },
    {
      "midi": 66,
      "hit": false,
      "t": 173487.94218749978,
      "d": 472.14535416668514,
      "v": 102
    },
    {
      "midi": 62,
      "hit": false,
      "t": 173491.33891666646,
      "d": 468.74862500000745,
      "v": 89
    },
    {
      "midi": 70,
      "hit": false,
      "t": 174021.22866666646,
      "d": 387.2271250000049,
      "v": 99
    },
    {
      "midi": 66,
      "hit": false,
      "t": 174024.62539583314,
      "d": 383.8303958333272,
      "v": 97
    },
    {
      "midi": 62,
      "hit": false,
      "t": 174024.62539583314,
      "d": 387.2271250000049,
      "v": 92
    },
    {
      "midi": 70,
      "hit": false,
      "t": 174795.68291666647,
      "d": 458.5584375000035,
      "v": 99
    },
    {
      "midi": 66,
      "hit": false,
      "t": 174795.68291666647,
      "d": 472.14535416665603,
      "v": 110
    },
    {
      "midi": 62,
      "hit": false,
      "t": 174799.07964583315,
      "d": 478.9388124999823,
      "v": 92
    },
    {
      "midi": 70,
      "hit": false,
      "t": 175332.3661249998,
      "d": 417.79768749998766,
      "v": 104
    },
    {
      "midi": 66,
      "hit": false,
      "t": 175332.3661249998,
      "d": 421.19441666666535,
      "v": 102
    },
    {
      "midi": 62,
      "hit": false,
      "t": 175339.15958333312,
      "d": 431.3846041666693,
      "v": 93
    },
    {
      "midi": 63,
      "hit": false,
      "t": 176103.42364583313,
      "d": 397.41731250000885,
      "v": 112
    },
    {
      "midi": 60,
      "hit": false,
      "t": 176103.42364583313,
      "d": 407.6075000000128,
      "v": 90
    },
    {
      "midi": 70,
      "hit": false,
      "t": 176106.8203749998,
      "d": 377.03693750000093,
      "v": 110
    },
    {
      "midi": 60,
      "hit": false,
      "t": 176602.74283333315,
      "d": 142.6626249999972,
      "v": 85
    },
    {
      "midi": 63,
      "hit": false,
      "t": 176606.13956249983,
      "d": 132.47243749999325,
      "v": 106
    },
    {
      "midi": 70,
      "hit": false,
      "t": 176606.13956249983,
      "d": 149.45608333332348,
      "v": 101
    },
    {
      "midi": 63,
      "hit": false,
      "t": 176928.82883333316,
      "d": 152.85281250000116,
      "v": 108
    },
    {
      "midi": 70,
      "hit": false,
      "t": 176928.82883333316,
      "d": 156.24954166667885,
      "v": 102
    },
    {
      "midi": 60,
      "hit": false,
      "t": 176932.22556249984,
      "d": 173.23318750000908,
      "v": 88
    },
    {
      "midi": 70,
      "hit": false,
      "t": 177251.51810416652,
      "d": 1141.3010000000068,
      "v": 102
    },
    {
      "midi": 63,
      "hit": false,
      "t": 177251.51810416652,
      "d": 1168.474833333341,
      "v": 106
    },
    {
      "midi": 60,
      "hit": false,
      "t": 177251.51810416652,
      "d": 1182.0617499999935,
      "v": 89
    },
    {
      "midi": 63,
      "hit": false,
      "t": 178708.7149166665,
      "d": 417.79768750001676,
      "v": 89
    },
    {
      "midi": 65,
      "hit": false,
      "t": 178712.11164583318,
      "d": 434.781333333347,
      "v": 93
    },
    {
      "midi": 70,
      "hit": false,
      "t": 178715.50837499986,
      "d": 421.19441666666535,
      "v": 94
    },
    {
      "midi": 60,
      "hit": false,
      "t": 178715.50837499986,
      "d": 424.59114583334303,
      "v": 80
    },
    {
      "midi": 65,
      "hit": false,
      "t": 179214.82756249985,
      "d": 417.79768750001676,
      "v": 100
    },
    {
      "midi": 70,
      "hit": false,
      "t": 179218.22429166653,
      "d": 404.2107708333351,
      "v": 92
    },
    {
      "midi": 63,
      "hit": false,
      "t": 179221.6210208332,
      "d": 394.02058333333116,
      "v": 102
    },
    {
      "midi": 60,
      "hit": false,
      "t": 179221.6210208332,
      "d": 400.81404166665743,
      "v": 93
    },
    {
      "midi": 63,
      "hit": false,
      "t": 179992.67854166654,
      "d": 489.12900000004447,
      "v": 90
    },
    {
      "midi": 70,
      "hit": false,
      "t": 179996.07527083321,
      "d": 482.3355416666891,
      "v": 96
    },
    {
      "midi": 60,
      "hit": false,
      "t": 179999.4719999999,
      "d": 495.92245833334164,
      "v": 93
    },
    {
      "midi": 65,
      "hit": false,
      "t": 179999.4719999999,
      "d": 495.92245833334164,
      "v": 97
    },
    {
      "midi": 63,
      "hit": false,
      "t": 180553.13885416658,
      "d": 380.4336666666786,
      "v": 101
    },
    {
      "midi": 65,
      "hit": false,
      "t": 180553.13885416658,
      "d": 400.81404166668653,
      "v": 101
    },
    {
      "midi": 60,
      "hit": false,
      "t": 180556.53558333326,
      "d": 370.24347916667466,
      "v": 95
    },
    {
      "midi": 70,
      "hit": false,
      "t": 180556.53558333326,
      "d": 397.41731250000885,
      "v": 101
    },
    {
      "midi": 63,
      "hit": false,
      "t": 181310.60945833326,
      "d": 417.79768750001676,
      "v": 106
    },
    {
      "midi": 70,
      "hit": false,
      "t": 181314.00618749994,
      "d": 414.4009583333391,
      "v": 102
    },
    {
      "midi": 67,
      "hit": false,
      "t": 181314.00618749994,
      "d": 424.59114583334303,
      "v": 98
    },
    {
      "midi": 63,
      "hit": false,
      "t": 181843.89593749994,
      "d": 98.50514583333279,
      "v": 108
    },
    {
      "midi": 67,
      "hit": false,
      "t": 181843.89593749994,
      "d": 118.8855208333407,
      "v": 101
    },
    {
      "midi": 70,
      "hit": false,
      "t": 181843.89593749994,
      "d": 125.67897916666698,
      "v": 104
    },
    {
      "midi": 63,
      "hit": false,
      "t": 182159.79174999995,
      "d": 115.48879166666302,
      "v": 104
    },
    {
      "midi": 70,
      "hit": false,
      "t": 182159.79174999995,
      "d": 125.67897916666698,
      "v": 106
    },
    {
      "midi": 67,
      "hit": false,
      "t": 182159.79174999995,
      "d": 129.07570833334466,
      "v": 98
    },
    {
      "midi": 63,
      "hit": false,
      "t": 182489.27447916663,
      "d": 1097.1435208333423,
      "v": 110
    },
    {
      "midi": 67,
      "hit": false,
      "t": 182489.27447916663,
      "d": 1103.9369791666686,
      "v": 102
    },
    {
      "midi": 70,
      "hit": false,
      "t": 182492.6712083333,
      "d": 1100.540249999991,
      "v": 110
    },
    {
      "midi": 70,
      "hit": false,
      "t": 183922.69418749996,
      "d": 441.57479166667326,
      "v": 94
    },
    {
      "midi": 66,
      "hit": false,
      "t": 183922.69418749996,
      "d": 472.14535416668514,
      "v": 102
    },
    {
      "midi": 62,
      "hit": false,
      "t": 183926.09091666664,
      "d": 468.74862500000745,
      "v": 89
    },
    {
      "midi": 70,
      "hit": false,
      "t": 184455.98066666664,
      "d": 387.2271250000049,
      "v": 99
    },
    {
      "midi": 66,
      "hit": false,
      "t": 184459.37739583332,
      "d": 383.8303958333272,
      "v": 97
    },
    {
      "midi": 62,
      "hit": false,
      "t": 184459.37739583332,
      "d": 387.2271250000049,
      "v": 92
    },
    {
      "midi": 70,
      "hit": false,
      "t": 185230.43491666665,
      "d": 458.5584375000035,
      "v": 99
    },
    {
      "midi": 66,
      "hit": false,
      "t": 185230.43491666665,
      "d": 472.14535416665603,
      "v": 110
    },
    {
      "midi": 62,
      "hit": false,
      "t": 185233.83164583333,
      "d": 478.9388124999823,
      "v": 92
    },
    {
      "midi": 70,
      "hit": false,
      "t": 185767.11812499998,
      "d": 417.79768749998766,
      "v": 104
    },
    {
      "midi": 66,
      "hit": false,
      "t": 185767.11812499998,
      "d": 421.19441666666535,
      "v": 102
    },
    {
      "midi": 62,
      "hit": false,
      "t": 185773.9115833333,
      "d": 431.3846041666693,
      "v": 93
    },
    {
      "midi": 63,
      "hit": false,
      "t": 186538.1756458333,
      "d": 397.41731250000885,
      "v": 112
    },
    {
      "midi": 60,
      "hit": false,
      "t": 186538.1756458333,
      "d": 407.6075000000128,
      "v": 90
    },
    {
      "midi": 70,
      "hit": false,
      "t": 186541.572375,
      "d": 377.03693750000093,
      "v": 110
    },
    {
      "midi": 60,
      "hit": false,
      "t": 187037.49483333333,
      "d": 142.6626249999972,
      "v": 85
    },
    {
      "midi": 63,
      "hit": false,
      "t": 187040.8915625,
      "d": 132.47243749999325,
      "v": 106
    },
    {
      "midi": 70,
      "hit": false,
      "t": 187040.8915625,
      "d": 149.45608333332348,
      "v": 101
    },
    {
      "midi": 63,
      "hit": false,
      "t": 187363.58083333334,
      "d": 152.85281250000116,
      "v": 108
    },
    {
      "midi": 70,
      "hit": false,
      "t": 187363.58083333334,
      "d": 156.24954166667885,
      "v": 102
    },
    {
      "midi": 60,
      "hit": false,
      "t": 187366.97756250002,
      "d": 173.23318750000908,
      "v": 88
    },
    {
      "midi": 70,
      "hit": false,
      "t": 187686.2701041667,
      "d": 1141.3010000000068,
      "v": 102
    },
    {
      "midi": 63,
      "hit": false,
      "t": 187686.2701041667,
      "d": 1168.474833333341,
      "v": 106
    },
    {
      "midi": 60,
      "hit": false,
      "t": 187686.2701041667,
      "d": 1182.0617499999935,
      "v": 89
    },
    {
      "midi": 63,
      "hit": false,
      "t": 189143.4669166667,
      "d": 417.79768750001676,
      "v": 89
    },
    {
      "midi": 65,
      "hit": false,
      "t": 189146.86364583336,
      "d": 434.781333333347,
      "v": 93
    },
    {
      "midi": 70,
      "hit": false,
      "t": 189150.26037500004,
      "d": 421.19441666666535,
      "v": 94
    },
    {
      "midi": 60,
      "hit": false,
      "t": 189150.26037500004,
      "d": 424.59114583334303,
      "v": 80
    },
    {
      "midi": 65,
      "hit": false,
      "t": 189649.57956250003,
      "d": 417.79768750001676,
      "v": 100
    },
    {
      "midi": 70,
      "hit": false,
      "t": 189652.9762916667,
      "d": 404.2107708333351,
      "v": 92
    },
    {
      "midi": 63,
      "hit": false,
      "t": 189656.3730208334,
      "d": 394.02058333333116,
      "v": 102
    },
    {
      "midi": 60,
      "hit": false,
      "t": 189656.3730208334,
      "d": 400.81404166665743,
      "v": 93
    },
    {
      "midi": 63,
      "hit": false,
      "t": 190427.43054166672,
      "d": 489.12900000004447,
      "v": 90
    },
    {
      "midi": 70,
      "hit": false,
      "t": 190430.8272708334,
      "d": 482.3355416666891,
      "v": 96
    },
    {
      "midi": 60,
      "hit": false,
      "t": 190434.22400000007,
      "d": 495.92245833334164,
      "v": 93
    },
    {
      "midi": 65,
      "hit": false,
      "t": 190434.22400000007,
      "d": 495.92245833334164,
      "v": 97
    },
    {
      "midi": 63,
      "hit": false,
      "t": 190987.89085416676,
      "d": 380.4336666666786,
      "v": 101
    },
    {
      "midi": 65,
      "hit": false,
      "t": 190987.89085416676,
      "d": 400.81404166668653,
      "v": 101
    },
    {
      "midi": 60,
      "hit": false,
      "t": 190991.28758333344,
      "d": 370.24347916667466,
      "v": 95
    },
    {
      "midi": 70,
      "hit": false,
      "t": 190991.28758333344,
      "d": 397.41731250000885,
      "v": 101
    },
    {
      "midi": 63,
      "hit": false,
      "t": 191745.36145833344,
      "d": 417.79768750001676,
      "v": 106
    },
    {
      "midi": 70,
      "hit": false,
      "t": 191748.75818750012,
      "d": 414.4009583333391,
      "v": 102
    },
    {
      "midi": 67,
      "hit": false,
      "t": 191748.75818750012,
      "d": 424.59114583334303,
      "v": 98
    },
    {
      "midi": 63,
      "hit": false,
      "t": 192278.64793750012,
      "d": 98.50514583333279,
      "v": 108
    },
    {
      "midi": 67,
      "hit": false,
      "t": 192278.64793750012,
      "d": 118.8855208333407,
      "v": 101
    },
    {
      "midi": 70,
      "hit": false,
      "t": 192278.64793750012,
      "d": 125.67897916666698,
      "v": 104
    },
    {
      "midi": 63,
      "hit": false,
      "t": 192594.54375000013,
      "d": 115.48879166666302,
      "v": 104
    },
    {
      "midi": 70,
      "hit": false,
      "t": 192594.54375000013,
      "d": 125.67897916666698,
      "v": 106
    },
    {
      "midi": 67,
      "hit": false,
      "t": 192594.54375000013,
      "d": 129.07570833334466,
      "v": 98
    },
    {
      "midi": 63,
      "hit": false,
      "t": 192924.02647916682,
      "d": 1097.1435208333423,
      "v": 110
    },
    {
      "midi": 67,
      "hit": false,
      "t": 192924.02647916682,
      "d": 1103.9369791666686,
      "v": 102
    },
    {
      "midi": 70,
      "hit": false,
      "t": 192927.4232083335,
      "d": 1100.540249999991,
      "v": 110
    },
    {
      "midi": 70,
      "hit": false,
      "t": 194357.44618750014,
      "d": 441.57479166667326,
      "v": 94
    },
    {
      "midi": 66,
      "hit": false,
      "t": 194357.44618750014,
      "d": 472.14535416668514,
      "v": 102
    },
    {
      "midi": 62,
      "hit": false,
      "t": 194360.84291666682,
      "d": 468.74862500000745,
      "v": 89
    },
    {
      "midi": 70,
      "hit": false,
      "t": 194890.73266666682,
      "d": 387.2271250000049,
      "v": 99
    },
    {
      "midi": 66,
      "hit": false,
      "t": 194894.1293958335,
      "d": 383.8303958333272,
      "v": 97
    },
    {
      "midi": 62,
      "hit": false,
      "t": 194894.1293958335,
      "d": 387.2271250000049,
      "v": 92
    },
    {
      "midi": 70,
      "hit": false,
      "t": 195665.18691666683,
      "d": 458.5584375000035,
      "v": 99
    },
    {
      "midi": 66,
      "hit": false,
      "t": 195665.18691666683,
      "d": 472.14535416665603,
      "v": 110
    },
    {
      "midi": 62,
      "hit": false,
      "t": 195668.5836458335,
      "d": 478.9388124999823,
      "v": 92
    },
    {
      "midi": 70,
      "hit": false,
      "t": 196201.87012500016,
      "d": 417.79768749998766,
      "v": 104
    },
    {
      "midi": 66,
      "hit": false,
      "t": 196201.87012500016,
      "d": 421.19441666666535,
      "v": 102
    },
    {
      "midi": 62,
      "hit": false,
      "t": 196208.6635833335,
      "d": 431.3846041666693,
      "v": 93
    },
    {
      "midi": 63,
      "hit": false,
      "t": 196972.9276458335,
      "d": 397.41731250000885,
      "v": 112
    },
    {
      "midi": 60,
      "hit": false,
      "t": 196972.9276458335,
      "d": 407.6075000000128,
      "v": 90
    },
    {
      "midi": 70,
      "hit": false,
      "t": 196976.32437500017,
      "d": 377.03693750000093,
      "v": 110
    },
    {
      "midi": 60,
      "hit": false,
      "t": 197472.2468333335,
      "d": 142.6626250000263,
      "v": 85
    },
    {
      "midi": 63,
      "hit": false,
      "t": 197475.6435625002,
      "d": 132.47243750002235,
      "v": 106
    },
    {
      "midi": 70,
      "hit": false,
      "t": 197475.6435625002,
      "d": 149.45608333335258,
      "v": 101
    },
    {
      "midi": 63,
      "hit": false,
      "t": 197798.33283333355,
      "d": 152.85281250000116,
      "v": 108
    },
    {
      "midi": 70,
      "hit": false,
      "t": 197798.33283333355,
      "d": 156.24954166667885,
      "v": 102
    },
    {
      "midi": 60,
      "hit": false,
      "t": 197801.72956250023,
      "d": 173.23318750000908,
      "v": 88
    },
    {
      "midi": 70,
      "hit": false,
      "t": 198121.02210416688,
      "d": 1141.3010000000068,
      "v": 102
    },
    {
      "midi": 63,
      "hit": false,
      "t": 198121.02210416688,
      "d": 1168.474833333341,
      "v": 106
    },
    {
      "midi": 60,
      "hit": false,
      "t": 198121.02210416688,
      "d": 1182.0617499999935,
      "v": 89
    },
    {
      "midi": 63,
      "hit": false,
      "t": 199578.21891666687,
      "d": 417.79768750001676,
      "v": 89
    },
    {
      "midi": 65,
      "hit": false,
      "t": 199581.61564583355,
      "d": 434.781333333347,
      "v": 93
    },
    {
      "midi": 70,
      "hit": false,
      "t": 199585.01237500022,
      "d": 421.19441666666535,
      "v": 94
    },
    {
      "midi": 60,
      "hit": false,
      "t": 199585.01237500022,
      "d": 424.59114583334303,
      "v": 80
    },
    {
      "midi": 65,
      "hit": false,
      "t": 200084.3315625002,
      "d": 417.79768750007497,
      "v": 100
    },
    {
      "midi": 70,
      "hit": false,
      "t": 200087.7282916669,
      "d": 404.2107708333933,
      "v": 92
    },
    {
      "midi": 63,
      "hit": false,
      "t": 200091.12502083357,
      "d": 394.02058333336026,
      "v": 102
    },
    {
      "midi": 60,
      "hit": false,
      "t": 200091.12502083357,
      "d": 400.81404166671564,
      "v": 93
    },
    {
      "midi": 63,
      "hit": false,
      "t": 200862.182541667,
      "d": 489.12900000004447,
      "v": 90
    },
    {
      "midi": 70,
      "hit": false,
      "t": 200865.57927083367,
      "d": 482.3355416666891,
      "v": 96
    },
    {
      "midi": 60,
      "hit": false,
      "t": 200868.97600000034,
      "d": 495.92245833334164,
      "v": 93
    },
    {
      "midi": 65,
      "hit": false,
      "t": 200868.97600000034,
      "d": 495.92245833334164,
      "v": 97
    },
    {
      "midi": 63,
      "hit": false,
      "t": 201422.642854167,
      "d": 380.4336666666495,
      "v": 101
    },
    {
      "midi": 65,
      "hit": false,
      "t": 201422.642854167,
      "d": 400.81404166665743,
      "v": 101
    },
    {
      "midi": 60,
      "hit": false,
      "t": 201426.03958333368,
      "d": 370.24347916664556,
      "v": 95
    },
    {
      "midi": 70,
      "hit": false,
      "t": 201426.03958333368,
      "d": 397.41731249997974,
      "v": 101
    }
  ]
}