{
  "jsonPath": "Unknown/Unknown/Semprini/barcarolle-no6-from-the-months-2003-digital-remaster.json",
  "path": "Unknown\\Unknown\\Semprini\\Barcarolle (No6 from The Months) (2003 Digital Remaster).mid",
  "name": "Barcarolle (No6 from The Months) (2003 Digital Remaster)",
  "difficulty": "Advanced",
  "bpm": 120,
  "notes": [
    {
      "midi": 43,
      "hit": false,
      "t": 5.208333333333333,
      "d": 500.00000000000006,
      "v": 30
    },
    {
      "midi": 50,
      "hit": false,
      "t": 515.625,
      "d": 166.66666666666663,
      "v": 46
    },
    {
      "midi": 62,
      "hit": false,
      "t": 1072.9166666666665,
      "d": 270.83333333333326,
      "v": 29
    },
    {
      "midi": 55,
      "hit": false,
      "t": 1093.7499999999998,
      "d": 229.16666666666674,
      "v": 20
    },
    {
      "midi": 58,
      "hit": false,
      "t": 1093.7499999999998,
      "d": 463.54166666666674,
      "v": 11
    },
    {
      "midi": 43,
      "hit": false,
      "t": 2322.9166666666665,
      "d": 244.79166666666652,
      "v": 24
    },
    {
      "midi": 50,
      "hit": false,
      "t": 2843.7499999999995,
      "d": 312.5,
      "v": 33
    },
    {
      "midi": 62,
      "hit": false,
      "t": 3468.7499999999995,
      "d": 239.58333333333303,
      "v": 27
    },
    {
      "midi": 58,
      "hit": false,
      "t": 3479.166666666666,
      "d": 651.0416666666661,
      "v": 11
    },
    {
      "midi": 55,
      "hit": false,
      "t": 3489.5833333333326,
      "d": 677.0833333333326,
      "v": 32
    },
    {
      "midi": 62,
      "hit": false,
      "t": 3958.3333333333326,
      "d": 338.5416666666656,
      "v": 59
    },
    {
      "midi": 64,
      "hit": false,
      "t": 4296.874999999998,
      "d": 307.29166666666697,
      "v": 62
    },
    {
      "midi": 66,
      "hit": false,
      "t": 4562.499999999998,
      "d": 291.66666666666606,
      "v": 63
    },
    {
      "midi": 67,
      "hit": false,
      "t": 4812.499999999998,
      "d": 328.1249999999991,
      "v": 73
    },
    {
      "midi": 43,
      "hit": false,
      "t": 4848.958333333331,
      "d": 182.29166666666606,
      "v": 27
    },
    {
      "midi": 69,
      "hit": false,
      "t": 5052.08333333333,
      "d": 307.29166666666697,
      "v": 66
    },
    {
      "midi": 70,
      "hit": false,
      "t": 5296.874999999997,
      "d": 286.45833333333394,
      "v": 75
    },
    {
      "midi": 50,
      "hit": false,
      "t": 5312.499999999997,
      "d": 718.75,
      "v": 36
    },
    {
      "midi": 72,
      "hit": false,
      "t": 5541.666666666664,
      "d": 302.08333333333303,
      "v": 85
    },
    {
      "midi": 74,
      "hit": false,
      "t": 5791.666666666664,
      "d": 291.66666666666697,
      "v": 87
    },
    {
      "midi": 62,
      "hit": false,
      "t": 5812.499999999997,
      "d": 156.25,
      "v": 36
    },
    {
      "midi": 58,
      "hit": false,
      "t": 5812.499999999997,
      "d": 208.33333333333303,
      "v": 28
    },
    {
      "midi": 55,
      "hit": false,
      "t": 5833.33333333333,
      "d": 166.66666666666697,
      "v": 27
    },
    {
      "midi": 79,
      "hit": false,
      "t": 6057.291666666664,
      "d": 328.1250000000009,
      "v": 88
    },
    {
      "midi": 78,
      "hit": false,
      "t": 6312.499999999998,
      "d": 312.5000000000009,
      "v": 68
    },
    {
      "midi": 45,
      "hit": false,
      "t": 6322.916666666665,
      "d": 520.8333333333339,
      "v": 35
    },
    {
      "midi": 79,
      "hit": false,
      "t": 6567.708333333332,
      "d": 369.79166666666697,
      "v": 57
    },
    {
      "midi": 74,
      "hit": false,
      "t": 6890.624999999999,
      "d": 989.5833333333339,
      "v": 49
    },
    {
      "midi": 46,
      "hit": false,
      "t": 6927.083333333332,
      "d": 229.16666666666697,
      "v": 23
    },
    {
      "midi": 55,
      "hit": false,
      "t": 7458.333333333333,
      "d": 385.41666666666697,
      "v": 27
    },
    {
      "midi": 67,
      "hit": false,
      "t": 8036.458333333333,
      "d": 171.8749999999991,
      "v": 14
    },
    {
      "midi": 62,
      "hit": false,
      "t": 8046.875,
      "d": 151.04166666666606,
      "v": 24
    },
    {
      "midi": 74,
      "hit": false,
      "t": 8411.458333333332,
      "d": 135.41666666666606,
      "v": 59
    },
    {
      "midi": 63,
      "hit": false,
      "t": 8593.749999999998,
      "d": 510.41666666666606,
      "v": 40
    },
    {
      "midi": 67,
      "hit": false,
      "t": 8718.749999999998,
      "d": 93.75,
      "v": 25
    },
    {
      "midi": 48,
      "hit": false,
      "t": 8734.374999999998,
      "d": 322.91666666666606,
      "v": 30
    },
    {
      "midi": 69,
      "hit": false,
      "t": 8749.999999999998,
      "d": 364.5833333333321,
      "v": 59
    },
    {
      "midi": 72,
      "hit": false,
      "t": 9031.249999999998,
      "d": 302.0833333333321,
      "v": 67
    },
    {
      "midi": 50,
      "hit": false,
      "t": 9317.70833333333,
      "d": 161.45833333333212,
      "v": 29
    },
    {
      "midi": 70,
      "hit": false,
      "t": 9317.70833333333,
      "d": 1463.5416666666679,
      "v": 50
    },
    {
      "midi": 62,
      "hit": false,
      "t": 9343.749999999996,
      "d": 281.25,
      "v": 36
    },
    {
      "midi": 67,
      "hit": false,
      "t": 9354.166666666662,
      "d": 885.4166666666697,
      "v": 34
    },
    {
      "midi": 63,
      "hit": false,
      "t": 9593.749999999996,
      "d": 239.58333333333394,
      "v": 61
    },
    {
      "midi": 61,
      "hit": false,
      "t": 9885.416666666664,
      "d": 328.1250000000018,
      "v": 53
    },
    {
      "midi": 58,
      "hit": false,
      "t": 9937.499999999998,
      "d": 302.08333333333394,
      "v": 15
    },
    {
      "midi": 55,
      "hit": false,
      "t": 9958.333333333332,
      "d": 348.95833333333394,
      "v": 17
    },
    {
      "midi": 63,
      "hit": false,
      "t": 10171.875,
      "d": 312.5,
      "v": 46
    },
    {
      "midi": 62,
      "hit": false,
      "t": 10572.916666666666,
      "d": 270.8333333333321,
      "v": 30
    },
    {
      "midi": 58,
      "hit": false,
      "t": 10598.958333333332,
      "d": 302.0833333333321,
      "v": 11
    },
    {
      "midi": 55,
      "hit": false,
      "t": 10645.833333333332,
      "d": 276.04166666666606,
      "v": 18
    },
    {
      "midi": 70,
      "hit": false,
      "t": 10968.749999999998,
      "d": 281.25,
      "v": 51
    },
    {
      "midi": 60,
      "hit": false,
      "t": 11270.833333333332,
      "d": 401.04166666666424,
      "v": 30
    },
    {
      "midi": 66,
      "hit": false,
      "t": 11322.916666666666,
      "d": 401.04166666666424,
      "v": 34
    },
    {
      "midi": 50,
      "hit": false,
      "t": 11348.958333333332,
      "d": 567.7083333333321,
      "v": 21
    },
    {
      "midi": 69,
      "hit": false,
      "t": 11604.166666666664,
      "d": 458.33333333333394,
      "v": 31
    },
    {
      "midi": 58,
      "hit": false,
      "t": 11911.45833333333,
      "d": 1739.5833333333358,
      "v": 21
    },
    {
      "midi": 67,
      "hit": false,
      "t": 11942.70833333333,
      "d": 1447.9166666666697,
      "v": 36
    },
    {
      "midi": 43,
      "hit": false,
      "t": 11963.541666666664,
      "d": 2036.4583333333358,
      "v": 25
    },
    {
      "midi": 51,
      "hit": false,
      "t": 12223.958333333332,
      "d": 338.54166666666606,
      "v": 40
    },
    {
      "midi": 49,
      "hit": false,
      "t": 12536.458333333332,
      "d": 380.20833333333394,
      "v": 33
    },
    {
      "midi": 51,
      "hit": false,
      "t": 12911.458333333332,
      "d": 494.7916666666679,
      "v": 22
    },
    {
      "midi": 50,
      "hit": false,
      "t": 13390.625,
      "d": 1213.5416666666679,
      "v": 22
    },
    {
      "midi": 62,
      "hit": false,
      "t": 13729.166666666666,
      "d": 437.5,
      "v": 46
    },
    {
      "midi": 64,
      "hit": false,
      "t": 14098.958333333334,
      "d": 348.95833333333394,
      "v": 56
    },
    {
      "midi": 60,
      "hit": false,
      "t": 14109.375,
      "d": 541.6666666666679,
      "v": 19
    },
    {
      "midi": 66,
      "hit": false,
      "t": 14395.833333333334,
      "d": 291.6666666666679,
      "v": 58
    },
    {
      "midi": 58,
      "hit": false,
      "t": 14682.291666666668,
      "d": 104.16666666666788,
      "v": 20
    },
    {
      "midi": 43,
      "hit": false,
      "t": 14687.500000000002,
      "d": 135.41666666666788,
      "v": 20
    },
    {
      "midi": 67,
      "hit": false,
      "t": 14687.500000000002,
      "d": 166.66666666666788,
      "v": 68
    },
    {
      "midi": 69,
      "hit": false,
      "t": 14973.958333333336,
      "d": 286.45833333333394,
      "v": 62
    },
    {
      "midi": 70,
      "hit": false,
      "t": 15229.16666666667,
      "d": 276.04166666666606,
      "v": 75
    },
    {
      "midi": 50,
      "hit": false,
      "t": 15307.29166666667,
      "d": 411.4583333333321,
      "v": 21
    },
    {
      "midi": 72,
      "hit": false,
      "t": 15479.16666666667,
      "d": 333.3333333333321,
      "v": 80
    },
    {
      "midi": 74,
      "hit": false,
      "t": 15765.625000000002,
      "d": 281.2499999999982,
      "v": 80
    },
    {
      "midi": 58,
      "hit": false,
      "t": 15776.041666666668,
      "d": 234.37499999999818,
      "v": 20
    },
    {
      "midi": 55,
      "hit": false,
      "t": 15781.250000000002,
      "d": 166.66666666666606,
      "v": 21
    },
    {
      "midi": 62,
      "hit": false,
      "t": 15781.250000000002,
      "d": 208.33333333333212,
      "v": 28
    },
    {
      "midi": 79,
      "hit": false,
      "t": 16062.5,
      "d": 125,
      "v": 83
    },
    {
      "midi": 65,
      "hit": false,
      "t": 16260.416666666666,
      "d": 390.6249999999982,
      "v": 24
    },
    {
      "midi": 72,
      "hit": false,
      "t": 16348.958333333332,
      "d": 515.6249999999964,
      "v": 29
    },
    {
      "midi": 75,
      "hit": false,
      "t": 16395.833333333332,
      "d": 499.99999999999636,
      "v": 39
    },
    {
      "midi": 45,
      "hit": false,
      "t": 16447.916666666664,
      "d": 317.7083333333321,
      "v": 17
    },
    {
      "midi": 77,
      "hit": false,
      "t": 16479.166666666664,
      "d": 239.58333333333212,
      "v": 62
    },
    {
      "midi": 79,
      "hit": false,
      "t": 16828.124999999996,
      "d": 62.5,
      "v": 69
    },
    {
      "midi": 65,
      "hit": false,
      "t": 17083.33333333333,
      "d": 515.625,
      "v": 35
    },
    {
      "midi": 46,
      "hit": false,
      "t": 17140.624999999996,
      "d": 432.29166666666424,
      "v": 16
    },
    {
      "midi": 70,
      "hit": false,
      "t": 17145.83333333333,
      "d": 1020.8333333333321,
      "v": 29
    },
    {
      "midi": 74,
      "hit": false,
      "t": 17229.16666666666,
      "d": 1515.6249999999964,
      "v": 57
    },
    {
      "midi": 53,
      "hit": false,
      "t": 17854.16666666666,
      "d": 312.5,
      "v": 57
    },
    {
      "midi": 65,
      "hit": false,
      "t": 18416.66666666666,
      "d": 213.54166666666424,
      "v": 44
    },
    {
      "midi": 58,
      "hit": false,
      "t": 18437.499999999993,
      "d": 286.4583333333321,
      "v": 24
    },
    {
      "midi": 62,
      "hit": false,
      "t": 18458.333333333325,
      "d": 182.29166666666788,
      "v": 30
    },
    {
      "midi": 77,
      "hit": false,
      "t": 18749.99999999999,
      "d": 109.375,
      "v": 81
    },
    {
      "midi": 63,
      "hit": false,
      "t": 18958.33333333332,
      "d": 395.8333333333321,
      "v": 46
    },
    {
      "midi": 70,
      "hit": false,
      "t": 19052.08333333332,
      "d": 130.20833333333212,
      "v": 20
    },
    {
      "midi": 74,
      "hit": false,
      "t": 19093.74999999999,
      "d": 52.08333333333212,
      "v": 57
    },
    {
      "midi": 43,
      "hit": false,
      "t": 19130.20833333332,
      "d": 458.3333333333321,
      "v": 31
    },
    {
      "midi": 75,
      "hit": false,
      "t": 19145.83333333332,
      "d": 244.79166666666424,
      "v": 73
    },
    {
      "midi": 77,
      "hit": false,
      "t": 19447.916666666653,
      "d": 41.66666666666788,
      "v": 74
    },
    {
      "midi": 63,
      "hit": false,
      "t": 19619.791666666653,
      "d": 354.1666666666679,
      "v": 51
    },
    {
      "midi": 69,
      "hit": false,
      "t": 19718.749999999985,
      "d": 427.0833333333321,
      "v": 28
    },
    {
      "midi": 45,
      "hit": false,
      "t": 19760.416666666653,
      "d": 250,
      "v": 32
    },
    {
      "midi": 72,
      "hit": false,
      "t": 19776.041666666653,
      "d": 1052.0833333333285,
      "v": 64
    },
    {
      "midi": 57,
      "hit": false,
      "t": 20302.083333333318,
      "d": 380.2083333333321,
      "v": 26
    },
    {
      "midi": 67,
      "hit": false,
      "t": 20864.583333333314,
      "d": 166.66666666666424,
      "v": 34
    },
    {
      "midi": 63,
      "hit": false,
      "t": 20885.416666666646,
      "d": 197.91666666666424,
      "v": 30
    },
    {
      "midi": 60,
      "hit": false,
      "t": 20901.041666666646,
      "d": 197.91666666666424,
      "v": 22
    },
    {
      "midi": 75,
      "hit": false,
      "t": 21218.749999999978,
      "d": 83.33333333333212,
      "v": 55
    },
    {
      "midi": 62,
      "hit": false,
      "t": 21458.33333333331,
      "d": 83.33333333333212,
      "v": 26
    },
    {
      "midi": 69,
      "hit": false,
      "t": 21552.08333333331,
      "d": 385.41666666666424,
      "v": 11
    },
    {
      "midi": 72,
      "hit": false,
      "t": 21609.374999999978,
      "d": 463.54166666666424,
      "v": 40
    },
    {
      "midi": 42,
      "hit": false,
      "t": 21666.666666666642,
      "d": 307.29166666666424,
      "v": 23
    },
    {
      "midi": 62,
      "hit": false,
      "t": 21692.70833333331,
      "d": 151.04166666666424,
      "v": 2
    },
    {
      "midi": 74,
      "hit": false,
      "t": 21697.916666666642,
      "d": 166.66666666666424,
      "v": 49
    },
    {
      "midi": 75,
      "hit": false,
      "t": 21999.999999999975,
      "d": 93.75,
      "v": 54
    },
    {
      "midi": 62,
      "hit": false,
      "t": 22182.291666666642,
      "d": 432.29166666666424,
      "v": 36
    },
    {
      "midi": 67,
      "hit": false,
      "t": 22255.20833333331,
      "d": 557.2916666666642,
      "v": 30
    },
    {
      "midi": 70,
      "hit": false,
      "t": 22307.291666666642,
      "d": 1442.7083333333321,
      "v": 38
    },
    {
      "midi": 43,
      "hit": false,
      "t": 22312.499999999975,
      "d": 281.25,
      "v": 22
    },
    {
      "midi": 50,
      "hit": false,
      "t": 22880.208333333307,
      "d": 88.54166666666788,
      "v": 28
    },
    {
      "midi": 58,
      "hit": false,
      "t": 23494.791666666642,
      "d": 463.54166666666424,
      "v": 13
    },
    {
      "midi": 62,
      "hit": false,
      "t": 23505.20833333331,
      "d": 432.29166666666424,
      "v": 18
    },
    {
      "midi": 55,
      "hit": false,
      "t": 23510.416666666642,
      "d": 401.04166666666424,
      "v": 17
    },
    {
      "midi": 74,
      "hit": false,
      "t": 23911.458333333307,
      "d": 380.2083333333321,
      "v": 50
    },
    {
      "midi": 63,
      "hit": false,
      "t": 24151.04166666664,
      "d": 515.6250000000036,
      "v": 29
    },
    {
      "midi": 69,
      "hit": false,
      "t": 24244.79166666664,
      "d": 250.00000000000364,
      "v": 17
    },
    {
      "midi": 72,
      "hit": false,
      "t": 24302.083333333307,
      "d": 385.4166666666679,
      "v": 60
    },
    {
      "midi": 48,
      "hit": false,
      "t": 24312.499999999975,
      "d": 526.0416666666642,
      "v": 27
    },
    {
      "midi": 74,
      "hit": false,
      "t": 24624.999999999975,
      "d": 78.125,
      "v": 78
    },
    {
      "midi": 62,
      "hit": false,
      "t": 24802.083333333307,
      "d": 338.54166666666424,
      "v": 37
    },
    {
      "midi": 67,
      "hit": false,
      "t": 24864.583333333307,
      "d": 312.5,
      "v": 40
    },
    {
      "midi": 72,
      "hit": false,
      "t": 24895.833333333307,
      "d": 260.41666666666424,
      "v": 68
    },
    {
      "midi": 50,
      "hit": false,
      "t": 24932.29166666664,
      "d": 2578.1249999999964,
      "v": 29
    },
    {
      "midi": 70,
      "hit": false,
      "t": 25166.66666666664,
      "d": 52.08333333333576,
      "v": 65
    },
    {
      "midi": 69,
      "hit": false,
      "t": 25453.124999999975,
      "d": 291.66666666666424,
      "v": 52
    },
    {
      "midi": 58,
      "hit": false,
      "t": 25458.333333333307,
      "d": 255.20833333333212,
      "v": 31
    },
    {
      "midi": 62,
      "hit": false,
      "t": 25479.16666666664,
      "d": 281.25,
      "v": 54
    },
    {
      "midi": 67,
      "hit": false,
      "t": 25744.79166666664,
      "d": 442.7083333333321,
      "v": 55
    },
    {
      "midi": 61,
      "hit": false,
      "t": 26124.99999999997,
      "d": 635.4166666666679,
      "v": 28
    },
    {
      "midi": 70,
      "hit": false,
      "t": 26124.99999999997,
      "d": 1109.375,
      "v": 44
    },
    {
      "midi": 64,
      "hit": false,
      "t": 26161.458333333303,
      "d": 723.9583333333358,
      "v": 26
    },
    {
      "midi": 63,
      "hit": false,
      "t": 26906.249999999975,
      "d": 802.0833333333285,
      "v": 18
    },
    {
      "midi": 66,
      "hit": false,
      "t": 26921.874999999975,
      "d": 593.7499999999927,
      "v": 15
    },
    {
      "midi": 60,
      "hit": false,
      "t": 26927.083333333307,
      "d": 1057.2916666666642,
      "v": 19
    },
    {
      "midi": 69,
      "hit": false,
      "t": 27317.708333333303,
      "d": 416.6666666666679,
      "v": 26
    },
    {
      "midi": 62,
      "hit": false,
      "t": 27682.291666666635,
      "d": 1364.5833333333321,
      "v": 21
    },
    {
      "midi": 67,
      "hit": false,
      "t": 27682.291666666635,
      "d": 1619.7916666666679,
      "v": 22
    },
    {
      "midi": 55,
      "hit": false,
      "t": 27697.916666666635,
      "d": 281.25000000000364,
      "v": 22
    },
    {
      "midi": 58,
      "hit": false,
      "t": 28005.208333333303,
      "d": 312.5,
      "v": 22
    },
    {
      "midi": 55,
      "hit": false,
      "t": 28338.541666666635,
      "d": 296.875,
      "v": 20
    },
    {
      "midi": 50,
      "hit": false,
      "t": 28749.999999999967,
      "d": 307.2916666666679,
      "v": 25
    },
    {
      "midi": 43,
      "hit": false,
      "t": 29208.333333333303,
      "d": 151.04166666666788,
      "v": 22
    },
    {
      "midi": 67,
      "hit": false,
      "t": 29895.833333333303,
      "d": 458.3333333333321,
      "v": 38
    },
    {
      "midi": 69,
      "hit": false,
      "t": 30276.041666666635,
      "d": 348.9583333333321,
      "v": 48
    },
    {
      "midi": 70,
      "hit": false,
      "t": 30562.499999999967,
      "d": 312.5,
      "v": 56
    },
    {
      "midi": 72,
      "hit": false,
      "t": 30843.749999999967,
      "d": 343.75000000000364,
      "v": 68
    },
    {
      "midi": 51,
      "hit": false,
      "t": 30906.249999999967,
      "d": 307.2916666666715,
      "v": 25
    },
    {
      "midi": 74,
      "hit": false,
      "t": 31114.583333333303,
      "d": 307.2916666666679,
      "v": 80
    },
    {
      "midi": 75,
      "hit": false,
      "t": 31369.79166666664,
      "d": 312.5,
      "v": 77
    },
    {
      "midi": 65,
      "hit": false,
      "t": 31406.24999999997,
      "d": 1239.5833333333394,
      "v": 32
    },
    {
      "midi": 77,
      "hit": false,
      "t": 31624.99999999997,
      "d": 322.9166666666715,
      "v": 85
    },
    {
      "midi": 79,
      "hit": false,
      "t": 31864.583333333307,
      "d": 328.12500000000364,
      "v": 78
    },
    {
      "midi": 60,
      "hit": false,
      "t": 31906.249999999975,
      "d": 750.0000000000036,
      "v": 22
    },
    {
      "midi": 57,
      "hit": false,
      "t": 31921.874999999975,
      "d": 713.5416666666679,
      "v": 27
    },
    {
      "midi": 53,
      "hit": false,
      "t": 31937.499999999975,
      "d": 760.4166666666715,
      "v": 19
    },
    {
      "midi": 81,
      "hit": false,
      "t": 32119.791666666642,
      "d": 333.3333333333321,
      "v": 63
    },
    {
      "midi": 82,
      "hit": false,
      "t": 32427.083333333307,
      "d": 343.7500000000073,
      "v": 55
    },
    {
      "midi": 84,
      "hit": false,
      "t": 32749.999999999978,
      "d": 453.125,
      "v": 64
    },
    {
      "midi": 77,
      "hit": false,
      "t": 33140.62499999998,
      "d": 1114.5833333333285,
      "v": 45
    },
    {
      "midi": 50,
      "hit": false,
      "t": 33177.083333333314,
      "d": 312.4999999999927,
      "v": 27
    },
    {
      "midi": 65,
      "hit": false,
      "t": 33703.12499999997,
      "d": 98.95833333333576,
      "v": 20
    },
    {
      "midi": 62,
      "hit": false,
      "t": 34239.58333333331,
      "d": 312.5,
      "v": 27
    },
    {
      "midi": 58,
      "hit": false,
      "t": 34244.79166666664,
      "d": 468.75,
      "v": 14
    },
    {
      "midi": 53,
      "hit": false,
      "t": 34260.41666666664,
      "d": 291.66666666666424,
      "v": 34
    },
    {
      "midi": 77,
      "hit": false,
      "t": 34526.04166666664,
      "d": 380.2083333333285,
      "v": 73
    },
    {
      "midi": 79,
      "hit": false,
      "t": 34802.08333333331,
      "d": 312.5,
      "v": 83
    },
    {
      "midi": 82,
      "hit": false,
      "t": 35062.49999999997,
      "d": 416.6666666666715,
      "v": 67
    },
    {
      "midi": 75,
      "hit": false,
      "t": 35427.08333333331,
      "d": 968.7499999999927,
      "v": 48
    },
    {
      "midi": 48,
      "hit": false,
      "t": 35432.29166666664,
      "d": 276.04166666666424,
      "v": 20
    },
    {
      "midi": 65,
      "hit": false,
      "t": 35921.87499999997,
      "d": 244.79166666666424,
      "v": 27
    },
    {
      "midi": 63,
      "hit": false,
      "t": 36406.24999999996,
      "d": 364.5833333333285,
      "v": 28
    },
    {
      "midi": 57,
      "hit": false,
      "t": 36427.0833333333,
      "d": 447.91666666666424,
      "v": 16
    },
    {
      "midi": 53,
      "hit": false,
      "t": 36453.12499999996,
      "d": 369.79166666666424,
      "v": 38
    },
    {
      "midi": 75,
      "hit": false,
      "t": 36729.16666666663,
      "d": 343.7500000000073,
      "v": 49
    },
    {
      "midi": 77,
      "hit": false,
      "t": 37052.0833333333,
      "d": 369.7916666666715,
      "v": 46
    },
    {
      "midi": 81,
      "hit": false,
      "t": 37359.37499999997,
      "d": 375,
      "v": 48
    },
    {
      "midi": 46,
      "hit": false,
      "t": 37723.95833333331,
      "d": 250,
      "v": 24
    },
    {
      "midi": 74,
      "hit": false,
      "t": 37723.95833333331,
      "d": 578.125,
      "v": 48
    },
    {
      "midi": 65,
      "hit": false,
      "t": 38208.33333333331,
      "d": 187.5,
      "v": 25
    },
    {
      "midi": 58,
      "hit": false,
      "t": 38786.45833333331,
      "d": 624.9999999999927,
      "v": 13
    },
    {
      "midi": 62,
      "hit": false,
      "t": 38791.66666666664,
      "d": 255.20833333332848,
      "v": 25
    },
    {
      "midi": 53,
      "hit": false,
      "t": 38802.08333333331,
      "d": 302.0833333333285,
      "v": 27
    },
    {
      "midi": 67,
      "hit": false,
      "t": 39135.416666666635,
      "d": 312.4999999999927,
      "v": 39
    },
    {
      "midi": 69,
      "hit": false,
      "t": 39421.87499999996,
      "d": 265.625,
      "v": 51
    },
    {
      "midi": 70,
      "hit": false,
      "t": 39666.66666666663,
      "d": 250,
      "v": 59
    },
    {
      "midi": 72,
      "hit": false,
      "t": 39921.87499999996,
      "d": 328.1250000000073,
      "v": 59
    },
    {
      "midi": 51,
      "hit": false,
      "t": 39927.0833333333,
      "d": 260.4166666666715,
      "v": 34
    },
    {
      "midi": 74,
      "hit": false,
      "t": 40187.49999999997,
      "d": 286.45833333333576,
      "v": 83
    },
    {
      "midi": 75,
      "hit": false,
      "t": 40421.87499999997,
      "d": 296.8750000000073,
      "v": 83
    },
    {
      "midi": 65,
      "hit": false,
      "t": 40442.70833333331,
      "d": 1244.791666666657,
      "v": 47
    },
    {
      "midi": 77,
      "hit": false,
      "t": 40666.66666666664,
      "d": 307.2916666666715,
      "v": 87
    },
    {
      "midi": 79,
      "hit": false,
      "t": 40916.66666666664,
      "d": 369.79166666666424,
      "v": 91
    },
    {
      "midi": 57,
      "hit": false,
      "t": 40937.49999999998,
      "d": 817.7083333333212,
      "v": 26
    },
    {
      "midi": 53,
      "hit": false,
      "t": 40942.708333333314,
      "d": 817.7083333333212,
      "v": 55
    },
    {
      "midi": 60,
      "hit": false,
      "t": 40947.91666666665,
      "d": 791.6666666666497,
      "v": 32
    },
    {
      "midi": 81,
      "hit": false,
      "t": 41197.91666666664,
      "d": 385.41666666665697,
      "v": 91
    },
    {
      "midi": 82,
      "hit": false,
      "t": 41484.37499999997,
      "d": 390.625,
      "v": 77
    },
    {
      "midi": 84,
      "hit": false,
      "t": 41812.49999999997,
      "d": 432.2916666666715,
      "v": 87
    },
    {
      "midi": 74,
      "hit": false,
      "t": 42208.33333333331,
      "d": 947.9166666666642,
      "v": 78
    },
    {
      "midi": 50,
      "hit": false,
      "t": 42223.95833333331,
      "d": 234.375,
      "v": 39
    },
    {
      "midi": 66,
      "hit": false,
      "t": 42749.99999999997,
      "d": 510.41666666666424,
      "v": 47
    },
    {
      "midi": 62,
      "hit": false,
      "t": 43260.416666666635,
      "d": 281.25,
      "v": 51
    },
    {
      "midi": 54,
      "hit": false,
      "t": 43270.8333333333,
      "d": 255.20833333333576,
      "v": 42
    },
    {
      "midi": 57,
      "hit": false,
      "t": 43270.8333333333,
      "d": 296.875,
      "v": 36
    },
    {
      "midi": 74,
      "hit": false,
      "t": 43520.8333333333,
      "d": 369.79166666666424,
      "v": 89
    },
    {
      "midi": 76,
      "hit": false,
      "t": 43802.0833333333,
      "d": 348.9583333333285,
      "v": 86
    },
    {
      "midi": 78,
      "hit": false,
      "t": 44046.87499999996,
      "d": 401.04166666666424,
      "v": 86
    },
    {
      "midi": 79,
      "hit": false,
      "t": 44385.41666666663,
      "d": 833.3333333333358,
      "v": 89
    },
    {
      "midi": 50,
      "hit": false,
      "t": 44401.04166666663,
      "d": 395.83333333333576,
      "v": 46
    },
    {
      "midi": 62,
      "hit": false,
      "t": 44901.04166666663,
      "d": 593.75,
      "v": 51
    },
    {
      "midi": 58,
      "hit": false,
      "t": 45348.9583333333,
      "d": 427.0833333333285,
      "v": 41
    },
    {
      "midi": 55,
      "hit": false,
      "t": 45359.37499999996,
      "d": 416.66666666666424,
      "v": 50
    },
    {
      "midi": 74,
      "hit": false,
      "t": 45614.58333333329,
      "d": 395.83333333333576,
      "v": 82
    },
    {
      "midi": 72,
      "hit": false,
      "t": 45947.91666666663,
      "d": 322.9166666666715,
      "v": 78
    },
    {
      "midi": 70,
      "hit": false,
      "t": 46218.74999999996,
      "d": 322.9166666666715,
      "v": 67
    },
    {
      "midi": 78,
      "hit": false,
      "t": 46520.8333333333,
      "d": 947.9166666666642,
      "v": 68
    },
    {
      "midi": 50,
      "hit": false,
      "t": 46536.4583333333,
      "d": 375,
      "v": 39
    },
    {
      "midi": 62,
      "hit": false,
      "t": 47015.62499999996,
      "d": 505.20833333333576,
      "v": 37
    },
    {
      "midi": 60,
      "hit": false,
      "t": 47552.0833333333,
      "d": 859.375,
      "v": 27
    },
    {
      "midi": 57,
      "hit": false,
      "t": 47583.3333333333,
      "d": 718.75,
      "v": 15
    },
    {
      "midi": 72,
      "hit": false,
      "t": 47874.99999999996,
      "d": 364.58333333333576,
      "v": 47
    },
    {
      "midi": 70,
      "hit": false,
      "t": 48192.7083333333,
      "d": 286.4583333333285,
      "v": 50
    },
    {
      "midi": 69,
      "hit": false,
      "t": 48468.74999999996,
      "d": 208.33333333332848,
      "v": 57
    },
    {
      "midi": 79,
      "hit": false,
      "t": 48734.374999999956,
      "d": 354.1666666666715,
      "v": 67
    },
    {
      "midi": 50,
      "hit": false,
      "t": 48744.79166666662,
      "d": 651.0416666666715,
      "v": 35
    },
    {
      "midi": 74,
      "hit": false,
      "t": 49083.33333333329,
      "d": 93.75,
      "v": 62
    },
    {
      "midi": 75,
      "hit": false,
      "t": 49218.749999999956,
      "d": 119.79166666666424,
      "v": 52
    },
    {
      "midi": 74,
      "hit": false,
      "t": 49291.66666666662,
      "d": 114.58333333333576,
      "v": 60
    },
    {
      "midi": 62,
      "hit": false,
      "t": 49374.999999999956,
      "d": 1947.9166666666642,
      "v": 42
    },
    {
      "midi": 73,
      "hit": false,
      "t": 49390.624999999956,
      "d": 307.29166666666424,
      "v": 64
    },
    {
      "midi": 74,
      "hit": false,
      "t": 49656.249999999956,
      "d": 302.08333333333576,
      "v": 74
    },
    {
      "midi": 58,
      "hit": false,
      "t": 49916.66666666662,
      "d": 859.375,
      "v": 20
    },
    {
      "midi": 55,
      "hit": false,
      "t": 49937.499999999956,
      "d": 796.875,
      "v": 30
    },
    {
      "midi": 75,
      "hit": false,
      "t": 49942.70833333329,
      "d": 354.16666666666424,
      "v": 58
    },
    {
      "midi": 74,
      "hit": false,
      "t": 50249.999999999956,
      "d": 328.125,
      "v": 58
    },
    {
      "midi": 70,
      "hit": false,
      "t": 50562.499999999956,
      "d": 369.79166666666424,
      "v": 49
    },
    {
      "midi": 67,
      "hit": false,
      "t": 50890.624999999956,
      "d": 536.4583333333285,
      "v": 44
    },
    {
      "midi": 50,
      "hit": false,
      "t": 51067.708333333285,
      "d": 421.875,
      "v": 14
    },
    {
      "midi": 57,
      "hit": false,
      "t": 51291.66666666662,
      "d": 260.41666666666424,
      "v": 20
    },
    {
      "midi": 74,
      "hit": false,
      "t": 51307.29166666662,
      "d": 630.2083333333285,
      "v": 52
    },
    {
      "midi": 67,
      "hit": false,
      "t": 51812.49999999995,
      "d": 447.91666666666424,
      "v": 46
    },
    {
      "midi": 74,
      "hit": false,
      "t": 52276.04166666661,
      "d": 1093.7500000000146,
      "v": 50
    },
    {
      "midi": 66,
      "hit": false,
      "t": 52281.24999999995,
      "d": 395.83333333334303,
      "v": 28
    },
    {
      "midi": 63,
      "hit": false,
      "t": 52671.874999999956,
      "d": 333.33333333334303,
      "v": 44
    },
    {
      "midi": 62,
      "hit": false,
      "t": 53041.666666666635,
      "d": 135.41666666666424,
      "v": 46
    },
    {
      "midi": 62,
      "hit": false,
      "t": 53359.37499999996,
      "d": 364.5833333333285,
      "v": 47
    },
    {
      "midi": 60,
      "hit": false,
      "t": 53385.41666666663,
      "d": 302.08333333333576,
      "v": 35
    },
    {
      "midi": 64,
      "hit": false,
      "t": 53703.12499999996,
      "d": 416.66666666666424,
      "v": 54
    },
    {
      "midi": 58,
      "hit": false,
      "t": 53713.54166666663,
      "d": 328.125,
      "v": 19
    },
    {
      "midi": 66,
      "hit": false,
      "t": 54088.54166666663,
      "d": 442.70833333333576,
      "v": 40
    },
    {
      "midi": 57,
      "hit": false,
      "t": 54124.99999999996,
      "d": 250,
      "v": 24
    },
    {
      "midi": 67,
      "hit": false,
      "t": 54453.12499999996,
      "d": 385.41666666666424,
      "v": 41
    },
    {
      "midi": 43,
      "hit": false,
      "t": 54468.74999999996,
      "d": 234.375,
      "v": 33
    },
    {
      "midi": 69,
      "hit": false,
      "t": 54760.41666666663,
      "d": 333.33333333333576,
      "v": 48
    },
    {
      "midi": 70,
      "hit": false,
      "t": 55041.66666666663,
      "d": 333.33333333333576,
      "v": 59
    },
    {
      "midi": 50,
      "hit": false,
      "t": 55072.91666666663,
      "d": 515.625,
      "v": 42
    },
    {
      "midi": 72,
      "hit": false,
      "t": 55333.3333333333,
      "d": 312.5,
      "v": 72
    },
    {
      "midi": 74,
      "hit": false,
      "t": 55598.95833333329,
      "d": 286.45833333334303,
      "v": 74
    },
    {
      "midi": 58,
      "hit": false,
      "t": 55619.79166666663,
      "d": 223.95833333333576,
      "v": 23
    },
    {
      "midi": 62,
      "hit": false,
      "t": 55635.41666666663,
      "d": 161.45833333333576,
      "v": 27
    },
    {
      "midi": 55,
      "hit": false,
      "t": 55640.62499999996,
      "d": 171.875,
      "v": 26
    },
    {
      "midi": 79,
      "hit": false,
      "t": 55864.5833333333,
      "d": 328.125,
      "v": 79
    },
    {
      "midi": 78,
      "hit": false,
      "t": 56135.416666666635,
      "d": 348.9583333333285,
      "v": 66
    },
    {
      "midi": 45,
      "hit": false,
      "t": 56145.8333333333,
      "d": 395.8333333333285,
      "v": 28
    },
    {
      "midi": 79,
      "hit": false,
      "t": 56442.7083333333,
      "d": 411.4583333333285,
      "v": 66
    },
    {
      "midi": 46,
      "hit": false,
      "t": 56807.29166666663,
      "d": 291.66666666666424,
      "v": 17
    },
    {
      "midi": 74,
      "hit": false,
      "t": 56812.49999999996,
      "d": 1020.8333333333285,
      "v": 49
    },
    {
      "midi": 55,
      "hit": false,
      "t": 57395.83333333329,
      "d": 93.75,
      "v": 33
    },
    {
      "midi": 67,
      "hit": false,
      "t": 57937.499999999956,
      "d": 125,
      "v": 31
    },
    {
      "midi": 62,
      "hit": false,
      "t": 57958.33333333329,
      "d": 161.45833333332848,
      "v": 21
    },
    {
      "midi": 74,
      "hit": false,
      "t": 58244.79166666662,
      "d": 151.04166666666424,
      "v": 69
    },
    {
      "midi": 63,
      "hit": false,
      "t": 58468.74999999995,
      "d": 593.75,
      "v": 33
    },
    {
      "midi": 67,
      "hit": false,
      "t": 58562.49999999995,
      "d": 208.33333333332848,
      "v": 33
    },
    {
      "midi": 69,
      "hit": false,
      "t": 58619.79166666661,
      "d": 380.20833333333576,
      "v": 49
    },
    {
      "midi": 48,
      "hit": false,
      "t": 58630.20833333328,
      "d": 401.0416666666715,
      "v": 27
    },
    {
      "midi": 72,
      "hit": false,
      "t": 58947.91666666661,
      "d": 312.5,
      "v": 53
    },
    {
      "midi": 62,
      "hit": false,
      "t": 59187.49999999995,
      "d": 265.6249999999927,
      "v": 28
    },
    {
      "midi": 50,
      "hit": false,
      "t": 59244.79166666661,
      "d": 151.04166666666424,
      "v": 34
    },
    {
      "midi": 67,
      "hit": false,
      "t": 59249.99999999995,
      "d": 458.3333333333212,
      "v": 26
    },
    {
      "midi": 70,
      "hit": false,
      "t": 59291.66666666661,
      "d": 1244.791666666657,
      "v": 41
    },
    {
      "midi": 63,
      "hit": false,
      "t": 59541.666666666606,
      "d": 203.125,
      "v": 58
    },
    {
      "midi": 58,
      "hit": false,
      "t": 59864.58333333327,
      "d": 255.20833333333576,
      "v": 25
    },
    {
      "midi": 61,
      "hit": false,
      "t": 59864.58333333327,
      "d": 322.9166666666715,
      "v": 46
    },
    {
      "midi": 55,
      "hit": false,
      "t": 59869.791666666606,
      "d": 296.875,
      "v": 37
    },
    {
      "midi": 63,
      "hit": false,
      "t": 60187.49999999994,
      "d": 322.91666666666424,
      "v": 49
    },
    {
      "midi": 62,
      "hit": false,
      "t": 60635.416666666606,
      "d": 276.04166666666424,
      "v": 36
    },
    {
      "midi": 58,
      "hit": false,
      "t": 60651.041666666606,
      "d": 276.04166666666424,
      "v": 5
    },
    {
      "midi": 55,
      "hit": false,
      "t": 60666.666666666606,
      "d": 234.375,
      "v": 22
    },
    {
      "midi": 70,
      "hit": false,
      "t": 61041.666666666606,
      "d": 322.91666666666424,
      "v": 36
    },
    {
      "midi": 66,
      "hit": false,
      "t": 61385.416666666606,
      "d": 359.375,
      "v": 30
    },
    {
      "midi": 50,
      "hit": false,
      "t": 61401.041666666606,
      "d": 395.83333333333576,
      "v": 24
    },
    {
      "midi": 60,
      "hit": false,
      "t": 61406.24999999994,
      "d": 359.375,
      "v": 22
    },
    {
      "midi": 69,
      "hit": false,
      "t": 61703.12499999994,
      "d": 432.2916666666715,
      "v": 34
    },
    {
      "midi": 58,
      "hit": false,
      "t": 62015.62499999994,
      "d": 1729.1666666666715,
      "v": 20
    },
    {
      "midi": 43,
      "hit": false,
      "t": 62052.08333333328,
      "d": 2109.3750000000073,
      "v": 27
    },
    {
      "midi": 67,
      "hit": false,
      "t": 62057.29166666661,
      "d": 1651.0416666666642,
      "v": 31
    },
    {
      "midi": 51,
      "hit": false,
      "t": 62328.12499999995,
      "d": 348.95833333333576,
      "v": 41
    },
    {
      "midi": 49,
      "hit": false,
      "t": 62677.083333333285,
      "d": 338.54166666666424,
      "v": 35
    },
    {
      "midi": 51,
      "hit": false,
      "t": 63052.083333333285,
      "d": 442.7083333333285,
      "v": 24
    },
    {
      "midi": 50,
      "hit": false,
      "t": 63510.41666666661,
      "d": 1432.291666666686,
      "v": 24
    },
    {
      "midi": 62,
      "hit": false,
      "t": 63921.87499999995,
      "d": 385.4166666666715,
      "v": 38
    },
    {
      "midi": 64,
      "hit": false,
      "t": 64270.833333333285,
      "d": 354.1666666666715,
      "v": 53
    },
    {
      "midi": 60,
      "hit": false,
      "t": 64281.24999999995,
      "d": 567.708333333343,
      "v": 29
    },
    {
      "midi": 66,
      "hit": false,
      "t": 64578.124999999956,
      "d": 286.45833333333576,
      "v": 56
    },
    {
      "midi": 58,
      "hit": false,
      "t": 64869.79166666663,
      "d": 104.16666666667152,
      "v": 32
    },
    {
      "midi": 67,
      "hit": false,
      "t": 64874.99999999996,
      "d": 166.66666666667152,
      "v": 60
    },
    {
      "midi": 43,
      "hit": false,
      "t": 64895.8333333333,
      "d": 145.83333333333576,
      "v": 25
    },
    {
      "midi": 69,
      "hit": false,
      "t": 65166.666666666635,
      "d": 322.91666666666424,
      "v": 63
    },
    {
      "midi": 70,
      "hit": false,
      "t": 65447.916666666635,
      "d": 307.29166666666424,
      "v": 74
    },
    {
      "midi": 50,
      "hit": false,
      "t": 65479.166666666635,
      "d": 583.3333333333358,
      "v": 33
    },
    {
      "midi": 72,
      "hit": false,
      "t": 65729.16666666663,
      "d": 317.70833333334303,
      "v": 81
    },
    {
      "midi": 74,
      "hit": false,
      "t": 65989.5833333333,
      "d": 260.41666666668607,
      "v": 86
    },
    {
      "midi": 55,
      "hit": false,
      "t": 66015.62499999997,
      "d": 182.29166666667152,
      "v": 38
    },
    {
      "midi": 62,
      "hit": false,
      "t": 66020.8333333333,
      "d": 203.12500000001455,
      "v": 40
    },
    {
      "midi": 58,
      "hit": false,
      "t": 66020.8333333333,
      "d": 250.00000000001455,
      "v": 24
    },
    {
      "midi": 79,
      "hit": false,
      "t": 66302.08333333331,
      "d": 104.16666666667152,
      "v": 87
    },
    {
      "midi": 65,
      "hit": false,
      "t": 66489.58333333331,
      "d": 385.41666666668607,
      "v": 35
    },
    {
      "midi": 72,
      "hit": false,
      "t": 66562.49999999999,
      "d": 552.0833333333576,
      "v": 35
    },
    {
      "midi": 75,
      "hit": false,
      "t": 66593.74999999999,
      "d": 317.70833333334303,
      "v": 51
    },
    {
      "midi": 45,
      "hit": false,
      "t": 66651.04166666666,
      "d": 453.12500000001455,
      "v": 33
    },
    {
      "midi": 77,
      "hit": false,
      "t": 66661.45833333333,
      "d": 265.625,
      "v": 77
    },
    {
      "midi": 79,
      "hit": false,
      "t": 67015.625,
      "d": 98.95833333334303,
      "v": 83
    },
    {
      "midi": 65,
      "hit": false,
      "t": 67265.62500000001,
      "d": 447.9166666666715,
      "v": 32
    },
    {
      "midi": 70,
      "hit": false,
      "t": 67307.29166666669,
      "d": 1046.875,
      "v": 42
    },
    {
      "midi": 46,
      "hit": false,
      "t": 67343.75000000001,
      "d": 312.5,
      "v": 28
    },
    {
      "midi": 74,
      "hit": false,
      "t": 67375.00000000001,
      "d": 1453.124999999971,
      "v": 74
    },
    {
      "midi": 53,
      "hit": false,
      "t": 67963.54166666669,
      "d": 427.0833333333285,
      "v": 73
    },
    {
      "midi": 65,
      "hit": false,
      "t": 68500.00000000001,
      "d": 182.29166666665697,
      "v": 55
    },
    {
      "midi": 62,
      "hit": false,
      "t": 68505.20833333334,
      "d": 213.54166666665697,
      "v": 53
    },
    {
      "midi": 58,
      "hit": false,
      "t": 68505.20833333334,
      "d": 281.24999999998545,
      "v": 46
    },
    {
      "midi": 77,
      "hit": false,
      "t": 68807.29166666666,
      "d": 93.75,
      "v": 82
    },
    {
      "midi": 63,
      "hit": false,
      "t": 68989.58333333333,
      "d": 374.99999999998545,
      "v": 58
    },
    {
      "midi": 70,
      "hit": false,
      "t": 69083.33333333333,
      "d": 447.91666666665697,
      "v": 25
    },
    {
      "midi": 74,
      "hit": false,
      "t": 69151.04166666666,
      "d": 98.95833333332848,
      "v": 37
    },
    {
      "midi": 75,
      "hit": false,
      "t": 69197.91666666666,
      "d": 239.58333333332848,
      "v": 75
    },
    {
      "midi": 43,
      "hit": false,
      "t": 69218.74999999999,
      "d": 312.5,
      "v": 36
    },
    {
      "midi": 77,
      "hit": false,
      "t": 69520.83333333331,
      "d": 46.875,
      "v": 78
    },
    {
      "midi": 63,
      "hit": false,
      "t": 69703.12499999999,
      "d": 395.83333333334303,
      "v": 40
    },
    {
      "midi": 69,
      "hit": false,
      "t": 69781.24999999999,
      "d": 489.58333333334303,
      "v": 35
    },
    {
      "midi": 45,
      "hit": false,
      "t": 69807.29166666666,
      "d": 244.79166666667152,
      "v": 22
    },
    {
      "midi": 72,
      "hit": false,
      "t": 69833.33333333333,
      "d": 1062.5000000000146,
      "v": 62
    },
    {
      "midi": 57,
      "hit": false,
      "t": 70375,
      "d": 447.9166666666715,
      "v": 38
    },
    {
      "midi": 60,
      "hit": false,
      "t": 70984.37500000001,
      "d": 234.375,
      "v": 27
    },
    {
      "midi": 67,
      "hit": false,
      "t": 70989.58333333334,
      "d": 187.5,
      "v": 37
    },
    {
      "midi": 63,
      "hit": false,
      "t": 70989.58333333334,
      "d": 270.83333333334303,
      "v": 34
    },
    {
      "midi": 75,
      "hit": false,
      "t": 71364.58333333336,
      "d": 140.625,
      "v": 52
    },
    {
      "midi": 62,
      "hit": false,
      "t": 71557.29166666669,
      "d": 421.87500000001455,
      "v": 24
    },
    {
      "midi": 69,
      "hit": false,
      "t": 71656.25000000001,
      "d": 427.0833333333576,
      "v": 11
    },
    {
      "midi": 72,
      "hit": false,
      "t": 71729.16666666669,
      "d": 489.5833333333576,
      "v": 33
    },
    {
      "midi": 42,
      "hit": false,
      "t": 71802.08333333336,
      "d": 343.75000000001455,
      "v": 27
    },
    {
      "midi": 74,
      "hit": false,
      "t": 71812.50000000003,
      "d": 166.66666666667152,
      "v": 49
    },
    {
      "midi": 75,
      "hit": false,
      "t": 72135.4166666667,
      "d": 83.33333333334303,
      "v": 46
    },
    {
      "midi": 62,
      "hit": false,
      "t": 72312.50000000004,
      "d": 484.37499999998545,
      "v": 32
    },
    {
      "midi": 67,
      "hit": false,
      "t": 72385.41666666672,
      "d": 958.3333333333139,
      "v": 33
    },
    {
      "midi": 70,
      "hit": false,
      "t": 72432.29166666672,
      "d": 1395.8333333333285,
      "v": 36
    },
    {
      "midi": 43,
      "hit": false,
      "t": 72453.12500000004,
      "d": 276.04166666665697,
      "v": 29
    },
    {
      "midi": 50,
      "hit": false,
      "t": 73036.45833333336,
      "d": 338.5416666666715,
      "v": 35
    },
    {
      "midi": 62,
      "hit": false,
      "t": 73651.0416666667,
      "d": 463.54166666668607,
      "v": 32
    },
    {
      "midi": 58,
      "hit": false,
      "t": 73661.45833333337,
      "d": 442.70833333334303,
      "v": 14
    },
    {
      "midi": 55,
      "hit": false,
      "t": 73671.87500000004,
      "d": 416.6666666666715,
      "v": 17
    },
    {
      "midi": 74,
      "hit": false,
      "t": 74031.25000000004,
      "d": 364.5833333333285,
      "v": 59
    },
    {
      "midi": 63,
      "hit": false,
      "t": 74291.66666666672,
      "d": 520.8333333333285,
      "v": 35
    },
    {
      "midi": 69,
      "hit": false,
      "t": 74359.37500000004,
      "d": 322.9166666666715,
      "v": 31
    },
    {
      "midi": 48,
      "hit": false,
      "t": 74395.83333333337,
      "d": 682.291666666657,
      "v": 28
    },
    {
      "midi": 72,
      "hit": false,
      "t": 74427.08333333337,
      "d": 395.8333333333285,
      "v": 58
    },
    {
      "midi": 74,
      "hit": false,
      "t": 74750.00000000004,
      "d": 67.70833333332848,
      "v": 76
    },
    {
      "midi": 62,
      "hit": false,
      "t": 74906.25000000003,
      "d": 427.0833333333285,
      "v": 39
    },
    {
      "midi": 67,
      "hit": false,
      "t": 74968.75000000003,
      "d": 395.8333333333285,
      "v": 47
    },
    {
      "midi": 50,
      "hit": false,
      "t": 75062.50000000003,
      "d": 2781.2499999999563,
      "v": 34
    },
    {
      "midi": 72,
      "hit": false,
      "t": 75067.70833333336,
      "d": 296.875,
      "v": 71
    },
    {
      "midi": 70,
      "hit": false,
      "t": 75364.58333333336,
      "d": 72.91666666667152,
      "v": 62
    },
    {
      "midi": 69,
      "hit": false,
      "t": 75677.08333333336,
      "d": 385.4166666666424,
      "v": 48
    },
    {
      "midi": 62,
      "hit": false,
      "t": 75682.29166666669,
      "d": 270.8333333333285,
      "v": 45
    },
    {
      "midi": 58,
      "hit": false,
      "t": 75682.29166666669,
      "d": 276.04166666665697,
      "v": 29
    },
    {
      "midi": 67,
      "hit": false,
      "t": 76026.04166666667,
      "d": 494.79166666665697,
      "v": 50
    },
    {
      "midi": 70,
      "hit": false,
      "t": 76463.54166666667,
      "d": 1338.5416666666424,
      "v": 39
    },
    {
      "midi": 61,
      "hit": false,
      "t": 76484.375,
      "d": 656.2499999999854,
      "v": 36
    },
    {
      "midi": 64,
      "hit": false,
      "t": 76484.375,
      "d": 911.4583333333139,
      "v": 24
    },
    {
      "midi": 66,
      "hit": false,
      "t": 77385.41666666666,
      "d": 598.9583333333285,
      "v": 12
    },
    {
      "midi": 63,
      "hit": false,
      "t": 77390.62499999999,
      "d": 666.6666666666715,
      "v": 25
    },
    {
      "midi": 60,
      "hit": false,
      "t": 77411.45833333331,
      "d": 442.70833333334303,
      "v": 15
    },
    {
      "midi": 69,
      "hit": false,
      "t": 77874.99999999999,
      "d": 520.833333333343,
      "v": 20
    },
    {
      "midi": 50,
      "hit": false,
      "t": 78322.91666666666,
      "d": 234.375,
      "v": 20
    },
    {
      "midi": 59,
      "hit": false,
      "t": 78348.95833333333,
      "d": 203.125,
      "v": 20
    },
    {
      "midi": 67,
      "hit": false,
      "t": 78364.58333333333,
      "d": 364.5833333333285,
      "v": 24
    },
    {
      "midi": 62,
      "hit": false,
      "t": 78375,
      "d": 281.24999999998545,
      "v": 19
    },
    {
      "midi": 43,
      "hit": false,
      "t": 78880.20833333333,
      "d": 72.91666666667152,
      "v": 15
    },
    {
      "midi": 50,
      "hit": false,
      "t": 78880.20833333333,
      "d": 78.125,
      "v": 17
    },
    {
      "midi": 74,
      "hit": false,
      "t": 79197.91666666666,
      "d": 583.333333333343,
      "v": 48
    },
    {
      "midi": 71,
      "hit": false,
      "t": 79213.54166666666,
      "d": 130.20833333332848,
      "v": 27
    },
    {
      "midi": 50,
      "hit": false,
      "t": 79479.16666666666,
      "d": 88.54166666667152,
      "v": 26
    },
    {
      "midi": 55,
      "hit": false,
      "t": 79489.58333333333,
      "d": 67.70833333332848,
      "v": 31
    },
    {
      "midi": 71,
      "hit": false,
      "t": 79739.58333333333,
      "d": 270.8333333333285,
      "v": 58
    },
    {
      "midi": 67,
      "hit": false,
      "t": 79739.58333333333,
      "d": 531.25,
      "v": 38
    },
    {
      "midi": 43,
      "hit": false,
      "t": 79958.33333333333,
      "d": 52.08333333332848,
      "v": 45
    },
    {
      "midi": 50,
      "hit": false,
      "t": 79958.33333333333,
      "d": 62.5,
      "v": 39
    },
    {
      "midi": 74,
      "hit": false,
      "t": 80223.95833333333,
      "d": 468.75,
      "v": 76
    },
    {
      "midi": 71,
      "hit": false,
      "t": 80229.16666666666,
      "d": 354.1666666666715,
      "v": 66
    },
    {
      "midi": 54,
      "hit": false,
      "t": 80437.5,
      "d": 177.08333333332848,
      "v": 43
    },
    {
      "midi": 50,
      "hit": false,
      "t": 80442.70833333333,
      "d": 182.29166666667152,
      "v": 42
    },
    {
      "midi": 62,
      "hit": false,
      "t": 80447.91666666666,
      "d": 135.41666666667152,
      "v": 34
    },
    {
      "midi": 76,
      "hit": false,
      "t": 80697.91666666666,
      "d": 291.6666666666715,
      "v": 64
    },
    {
      "midi": 72,
      "hit": false,
      "t": 80697.91666666666,
      "d": 338.5416666666715,
      "v": 65
    },
    {
      "midi": 43,
      "hit": false,
      "t": 80932.29166666666,
      "d": 104.16666666667152,
      "v": 50
    },
    {
      "midi": 50,
      "hit": false,
      "t": 80942.70833333333,
      "d": 67.70833333332848,
      "v": 55
    },
    {
      "midi": 66,
      "hit": false,
      "t": 81130.20833333333,
      "d": 151.04166666667152,
      "v": 45
    },
    {
      "midi": 69,
      "hit": false,
      "t": 81140.625,
      "d": 192.70833333332848,
      "v": 60
    },
    {
      "midi": 71,
      "hit": false,
      "t": 81364.58333333333,
      "d": 213.5416666666424,
      "v": 75
    },
    {
      "midi": 67,
      "hit": false,
      "t": 81364.58333333333,
      "d": 265.6249999999709,
      "v": 63
    },
    {
      "midi": 62,
      "hit": false,
      "t": 81369.79166666666,
      "d": 156.24999999998545,
      "v": 50
    },
    {
      "midi": 54,
      "hit": false,
      "t": 81374.99999999999,
      "d": 187.49999999998545,
      "v": 46
    },
    {
      "midi": 50,
      "hit": false,
      "t": 81395.83333333331,
      "d": 187.49999999998545,
      "v": 46
    },
    {
      "midi": 72,
      "hit": false,
      "t": 81598.9583333333,
      "d": 369.7916666666715,
      "v": 78
    },
    {
      "midi": 69,
      "hit": false,
      "t": 81604.16666666663,
      "d": 526.0416666666861,
      "v": 62
    },
    {
      "midi": 43,
      "hit": false,
      "t": 81838.54166666664,
      "d": 114.58333333332848,
      "v": 56
    },
    {
      "midi": 50,
      "hit": false,
      "t": 81843.74999999997,
      "d": 135.41666666667152,
      "v": 50
    },
    {
      "midi": 72,
      "hit": false,
      "t": 82052.08333333331,
      "d": 437.50000000001455,
      "v": 55
    },
    {
      "midi": 76,
      "hit": false,
      "t": 82057.29166666664,
      "d": 473.95833333334303,
      "v": 75
    },
    {
      "midi": 62,
      "hit": false,
      "t": 82291.66666666664,
      "d": 140.62500000001455,
      "v": 51
    },
    {
      "midi": 50,
      "hit": false,
      "t": 82302.08333333331,
      "d": 192.70833333334303,
      "v": 35
    },
    {
      "midi": 55,
      "hit": false,
      "t": 82328.12499999999,
      "d": 151.04166666667152,
      "v": 41
    },
    {
      "midi": 74,
      "hit": false,
      "t": 82510.41666666666,
      "d": 208.33333333332848,
      "v": 81
    },
    {
      "midi": 71,
      "hit": false,
      "t": 82515.62499999999,
      "d": 203.125,
      "v": 70
    },
    {
      "midi": 50,
      "hit": false,
      "t": 82739.58333333331,
      "d": 192.70833333332848,
      "v": 62
    },
    {
      "midi": 43,
      "hit": false,
      "t": 82755.20833333331,
      "d": 182.29166666665697,
      "v": 51
    },
    {
      "midi": 79,
      "hit": false,
      "t": 82953.12499999997,
      "d": 598.958333333343,
      "v": 94
    },
    {
      "midi": 76,
      "hit": false,
      "t": 82963.54166666664,
      "d": 369.7916666666715,
      "v": 63
    },
    {
      "midi": 50,
      "hit": false,
      "t": 83187.49999999997,
      "d": 192.70833333334303,
      "v": 44
    },
    {
      "midi": 62,
      "hit": false,
      "t": 83197.91666666664,
      "d": 109.375,
      "v": 36
    },
    {
      "midi": 55,
      "hit": false,
      "t": 83197.91666666664,
      "d": 151.04166666667152,
      "v": 49
    },
    {
      "midi": 74,
      "hit": false,
      "t": 83447.91666666664,
      "d": 484.37500000001455,
      "v": 73
    },
    {
      "midi": 78,
      "hit": false,
      "t": 83447.91666666664,
      "d": 505.2083333333576,
      "v": 83
    },
    {
      "midi": 43,
      "hit": false,
      "t": 83697.91666666664,
      "d": 156.25,
      "v": 42
    },
    {
      "midi": 50,
      "hit": false,
      "t": 83703.12499999997,
      "d": 161.45833333334303,
      "v": 52
    },
    {
      "midi": 76,
      "hit": false,
      "t": 83932.29166666666,
      "d": 182.29166666667152,
      "v": 68
    },
    {
      "midi": 72,
      "hit": false,
      "t": 83942.70833333333,
      "d": 437.5,
      "v": 55
    },
    {
      "midi": 62,
      "hit": false,
      "t": 84161.45833333333,
      "d": 83.33333333332848,
      "v": 43
    },
    {
      "midi": 54,
      "hit": false,
      "t": 84166.66666666666,
      "d": 88.54166666667152,
      "v": 42
    },
    {
      "midi": 50,
      "hit": false,
      "t": 84177.08333333333,
      "d": 119.79166666667152,
      "v": 34
    },
    {
      "midi": 71,
      "hit": false,
      "t": 84380.20833333333,
      "d": 354.16666666665697,
      "v": 69
    },
    {
      "midi": 74,
      "hit": false,
      "t": 84380.20833333333,
      "d": 421.87499999998545,
      "v": 82
    },
    {
      "midi": 43,
      "hit": false,
      "t": 84614.58333333333,
      "d": 171.87499999998545,
      "v": 47
    },
    {
      "midi": 50,
      "hit": false,
      "t": 84619.79166666666,
      "d": 166.66666666665697,
      "v": 55
    },
    {
      "midi": 66,
      "hit": false,
      "t": 84833.33333333331,
      "d": 140.625,
      "v": 55
    },
    {
      "midi": 69,
      "hit": false,
      "t": 84833.33333333331,
      "d": 213.54166666665697,
      "v": 67
    },
    {
      "midi": 71,
      "hit": false,
      "t": 85041.66666666664,
      "d": 208.33333333332848,
      "v": 84
    },
    {
      "midi": 67,
      "hit": false,
      "t": 85052.0833333333,
      "d": 411.4583333333285,
      "v": 63
    },
    {
      "midi": 62,
      "hit": false,
      "t": 85057.29166666663,
      "d": 130.20833333332848,
      "v": 47
    },
    {
      "midi": 54,
      "hit": false,
      "t": 85062.49999999996,
      "d": 166.66666666667152,
      "v": 47
    },
    {
      "midi": 50,
      "hit": false,
      "t": 85062.49999999996,
      "d": 177.08333333334303,
      "v": 38
    },
    {
      "midi": 69,
      "hit": false,
      "t": 85260.41666666664,
      "d": 369.79166666665697,
      "v": 66
    },
    {
      "midi": 72,
      "hit": false,
      "t": 85265.62499999997,
      "d": 401.0416666666715,
      "v": 79
    },
    {
      "midi": 50,
      "hit": false,
      "t": 85484.37499999996,
      "d": 187.50000000001455,
      "v": 68
    },
    {
      "midi": 43,
      "hit": false,
      "t": 85505.2083333333,
      "d": 151.04166666667152,
      "v": 50
    },
    {
      "midi": 73,
      "hit": false,
      "t": 85677.0833333333,
      "d": 401.04166666668607,
      "v": 70
    },
    {
      "midi": 70,
      "hit": false,
      "t": 85687.49999999997,
      "d": 526.0416666666715,
      "v": 58
    },
    {
      "midi": 62,
      "hit": false,
      "t": 85937.49999999997,
      "d": 161.45833333334303,
      "v": 42
    },
    {
      "midi": 55,
      "hit": false,
      "t": 85947.91666666664,
      "d": 182.29166666667152,
      "v": 41
    },
    {
      "midi": 50,
      "hit": false,
      "t": 85947.91666666664,
      "d": 197.91666666667152,
      "v": 40
    },
    {
      "midi": 74,
      "hit": false,
      "t": 86171.87499999999,
      "d": 223.95833333331393,
      "v": 67
    },
    {
      "midi": 71,
      "hit": false,
      "t": 86177.08333333331,
      "d": 213.54166666665697,
      "v": 54
    },
    {
      "midi": 50,
      "hit": false,
      "t": 86437.49999999997,
      "d": 72.91666666667152,
      "v": 47
    },
    {
      "midi": 43,
      "hit": false,
      "t": 86442.7083333333,
      "d": 57.29166666667152,
      "v": 40
    },
    {
      "midi": 62,
      "hit": false,
      "t": 86697.91666666664,
      "d": 291.6666666666715,
      "v": 70
    },
    {
      "midi": 74,
      "hit": false,
      "t": 86708.33333333331,
      "d": 166.66666666665697,
      "v": 73
    },
    {
      "midi": 71,
      "hit": false,
      "t": 86708.33333333331,
      "d": 192.70833333332848,
      "v": 63
    },
    {
      "midi": 55,
      "hit": false,
      "t": 86947.91666666664,
      "d": 338.5416666666715,
      "v": 70
    },
    {
      "midi": 71,
      "hit": false,
      "t": 87229.16666666664,
      "d": 197.91666666667152,
      "v": 84
    },
    {
      "midi": 59,
      "hit": false,
      "t": 87239.58333333331,
      "d": 125,
      "v": 57
    },
    {
      "midi": 67,
      "hit": false,
      "t": 87244.79166666664,
      "d": 156.25,
      "v": 52
    },
    {
      "midi": 50,
      "hit": false,
      "t": 87479.16666666664,
      "d": 52.083333333343035,
      "v": 71
    },
    {
      "midi": 43,
      "hit": false,
      "t": 87505.20833333331,
      "d": 62.5,
      "v": 33
    },
    {
      "midi": 74,
      "hit": false,
      "t": 87749.99999999999,
      "d": 369.7916666666715,
      "v": 82
    },
    {
      "midi": 62,
      "hit": false,
      "t": 87760.41666666666,
      "d": 312.5,
      "v": 56
    },
    {
      "midi": 71,
      "hit": false,
      "t": 87770.83333333333,
      "d": 348.9583333333285,
      "v": 59
    },
    {
      "midi": 55,
      "hit": false,
      "t": 87989.58333333333,
      "d": 380.2083333333285,
      "v": 84
    },
    {
      "midi": 76,
      "hit": false,
      "t": 88229.16666666666,
      "d": 203.125,
      "v": 66
    },
    {
      "midi": 72,
      "hit": false,
      "t": 88229.16666666666,
      "d": 239.58333333334303,
      "v": 59
    },
    {
      "midi": 64,
      "hit": false,
      "t": 88239.58333333333,
      "d": 416.6666666666715,
      "v": 61
    },
    {
      "midi": 43,
      "hit": false,
      "t": 88458.33333333333,
      "d": 46.875,
      "v": 67
    },
    {
      "midi": 52,
      "hit": false,
      "t": 88489.58333333333,
      "d": 62.5,
      "v": 40
    },
    {
      "midi": 69,
      "hit": false,
      "t": 88677.08333333333,
      "d": 302.0833333333285,
      "v": 68
    },
    {
      "midi": 66,
      "hit": false,
      "t": 88682.29166666666,
      "d": 171.875,
      "v": 58
    },
    {
      "midi": 67,
      "hit": false,
      "t": 88916.66666666666,
      "d": 182.29166666667152,
      "v": 63
    },
    {
      "midi": 71,
      "hit": false,
      "t": 88916.66666666666,
      "d": 302.0833333333285,
      "v": 88
    },
    {
      "midi": 63,
      "hit": false,
      "t": 88916.66666666666,
      "d": 359.375,
      "v": 86
    },
    {
      "midi": 72,
      "hit": false,
      "t": 89145.83333333333,
      "d": 229.16666666665697,
      "v": 79
    },
    {
      "midi": 69,
      "hit": false,
      "t": 89151.04166666666,
      "d": 218.75,
      "v": 45
    },
    {
      "midi": 62,
      "hit": false,
      "t": 89171.87499999999,
      "d": 208.33333333332848,
      "v": 30
    },
    {
      "midi": 57,
      "hit": false,
      "t": 89380.20833333331,
      "d": 46.875,
      "v": 61
    },
    {
      "midi": 55,
      "hit": false,
      "t": 89385.41666666664,
      "d": 72.91666666667152,
      "v": 32
    },
    {
      "midi": 76,
      "hit": false,
      "t": 89593.74999999999,
      "d": 244.7916666666424,
      "v": 78
    },
    {
      "midi": 72,
      "hit": false,
      "t": 89598.95833333331,
      "d": 276.0416666666424,
      "v": 58
    },
    {
      "midi": 64,
      "hit": false,
      "t": 89604.16666666664,
      "d": 276.0416666666424,
      "v": 70
    },
    {
      "midi": 66,
      "hit": false,
      "t": 89802.0833333333,
      "d": 296.8749999999709,
      "v": 53
    },
    {
      "midi": 74,
      "hit": false,
      "t": 90036.45833333328,
      "d": 265.6249999999709,
      "v": 79
    },
    {
      "midi": 71,
      "hit": false,
      "t": 90041.66666666661,
      "d": 270.83333333331393,
      "v": 72
    },
    {
      "midi": 62,
      "hit": false,
      "t": 90046.87499999994,
      "d": 234.37499999998545,
      "v": 58
    },
    {
      "midi": 67,
      "hit": false,
      "t": 90281.24999999993,
      "d": 46.875,
      "v": 70
    },
    {
      "midi": 79,
      "hit": false,
      "t": 90526.0416666666,
      "d": 187.5,
      "v": 79
    },
    {
      "midi": 67,
      "hit": false,
      "t": 90541.6666666666,
      "d": 177.08333333332848,
      "v": 44
    },
    {
      "midi": 76,
      "hit": false,
      "t": 90546.87499999993,
      "d": 197.91666666667152,
      "v": 29
    },
    {
      "midi": 58,
      "hit": false,
      "t": 90791.6666666666,
      "d": 364.5833333333285,
      "v": 62
    },
    {
      "midi": 78,
      "hit": false,
      "t": 90973.95833333327,
      "d": 244.79166666665697,
      "v": 73
    },
    {
      "midi": 74,
      "hit": false,
      "t": 90979.1666666666,
      "d": 156.25,
      "v": 61
    },
    {
      "midi": 66,
      "hit": false,
      "t": 90979.1666666666,
      "d": 270.8333333333285,
      "v": 55
    },
    {
      "midi": 59,
      "hit": false,
      "t": 91218.74999999993,
      "d": 72.91666666667152,
      "v": 65
    },
    {
      "midi": 76,
      "hit": false,
      "t": 91447.9166666666,
      "d": 354.1666666666715,
      "v": 72
    },
    {
      "midi": 64,
      "hit": false,
      "t": 91463.5416666666,
      "d": 354.1666666666715,
      "v": 56
    },
    {
      "midi": 72,
      "hit": false,
      "t": 91463.5416666666,
      "d": 479.1666666666715,
      "v": 57
    },
    {
      "midi": 56,
      "hit": false,
      "t": 91697.9166666666,
      "d": 401.0416666666715,
      "v": 72
    },
    {
      "midi": 71,
      "hit": false,
      "t": 91927.08333333327,
      "d": 197.91666666667152,
      "v": 72
    },
    {
      "midi": 74,
      "hit": false,
      "t": 91932.2916666666,
      "d": 223.95833333334303,
      "v": 83
    },
    {
      "midi": 62,
      "hit": false,
      "t": 91932.2916666666,
      "d": 270.83333333334303,
      "v": 65
    },
    {
      "midi": 57,
      "hit": false,
      "t": 92177.08333333327,
      "d": 72.91666666667152,
      "v": 73
    },
    {
      "midi": 69,
      "hit": false,
      "t": 92411.45833333327,
      "d": 161.45833333332848,
      "v": 71
    },
    {
      "midi": 57,
      "hit": false,
      "t": 92421.87499999994,
      "d": 98.95833333332848,
      "v": 63
    },
    {
      "midi": 66,
      "hit": false,
      "t": 92427.08333333327,
      "d": 260.4166666666715,
      "v": 59
    },
    {
      "midi": 59,
      "hit": false,
      "t": 92645.83333333327,
      "d": 114.58333333334303,
      "v": 79
    },
    {
      "midi": 71,
      "hit": false,
      "t": 92645.83333333327,
      "d": 145.83333333334303,
      "v": 89
    },
    {
      "midi": 67,
      "hit": false,
      "t": 92656.24999999994,
      "d": 114.58333333334303,
      "v": 67
    },
    {
      "midi": 51,
      "hit": false,
      "t": 92661.45833333327,
      "d": 421.875,
      "v": 63
    },
    {
      "midi": 69,
      "hit": false,
      "t": 92874.99999999994,
      "d": 177.08333333332848,
      "v": 63
    },
    {
      "midi": 72,
      "hit": false,
      "t": 92874.99999999994,
      "d": 208.33333333332848,
      "v": 85
    },
    {
      "midi": 60,
      "hit": false,
      "t": 92890.62499999994,
      "d": 151.04166666667152,
      "v": 59
    },
    {
      "midi": 50,
      "hit": false,
      "t": 93098.95833333327,
      "d": 145.83333333332848,
      "v": 77
    },
    {
      "midi": 76,
      "hit": false,
      "t": 93328.12499999993,
      "d": 312.5,
      "v": 83
    },
    {
      "midi": 72,
      "hit": false,
      "t": 93328.12499999993,
      "d": 510.4166666666715,
      "v": 71
    },
    {
      "midi": 64,
      "hit": false,
      "t": 93333.33333333326,
      "d": 322.9166666666715,
      "v": 74
    },
    {
      "midi": 42,
      "hit": false,
      "t": 93552.08333333326,
      "d": 343.75000000001455,
      "v": 85
    },
    {
      "midi": 62,
      "hit": false,
      "t": 93791.6666666666,
      "d": 46.875,
      "v": 78
    },
    {
      "midi": 71,
      "hit": false,
      "t": 93791.6666666666,
      "d": 93.75,
      "v": 76
    },
    {
      "midi": 74,
      "hit": false,
      "t": 93791.6666666666,
      "d": 145.83333333334303,
      "v": 88
    },
    {
      "midi": 71,
      "hit": false,
      "t": 94052.08333333328,
      "d": 67.70833333331393,
      "v": 86
    },
    {
      "midi": 74,
      "hit": false,
      "t": 94052.08333333328,
      "d": 119.79166666664241,
      "v": 82
    },
    {
      "midi": 67,
      "hit": false,
      "t": 94057.29166666661,
      "d": 67.70833333331393,
      "v": 79
    },
    {
      "midi": 43,
      "hit": false,
      "t": 94062.49999999994,
      "d": 36.45833333332848,
      "v": 87
    },
    {
      "midi": 79,
      "hit": false,
      "t": 94390.62499999993,
      "d": 843.7500000000146,
      "v": 103
    },
    {
      "midi": 67,
      "hit": false,
      "t": 94401.0416666666,
      "d": 802.083333333343,
      "v": 85
    },
    {
      "midi": 71,
      "hit": false,
      "t": 94401.0416666666,
      "d": 802.083333333343,
      "v": 91
    },
    {
      "midi": 64,
      "hit": false,
      "t": 94406.24999999993,
      "d": 817.708333333343,
      "v": 84
    },
    {
      "midi": 52,
      "hit": false,
      "t": 94411.45833333326,
      "d": 552.083333333343,
      "v": 84
    },
    {
      "midi": 55,
      "hit": false,
      "t": 94937.49999999993,
      "d": 447.91666666668607,
      "v": 89
    },
    {
      "midi": 76,
      "hit": false,
      "t": 95192.70833333327,
      "d": 192.70833333334303,
      "v": 85
    },
    {
      "midi": 66,
      "hit": false,
      "t": 95421.87499999994,
      "d": 78.12499999998545,
      "v": 78
    },
    {
      "midi": 78,
      "hit": false,
      "t": 95427.08333333327,
      "d": 98.95833333332848,
      "v": 85
    },
    {
      "midi": 62,
      "hit": false,
      "t": 95437.49999999994,
      "d": 41.666666666656965,
      "v": 76
    },
    {
      "midi": 59,
      "hit": false,
      "t": 95442.70833333327,
      "d": 36.45833333332848,
      "v": 74
    },
    {
      "midi": 71,
      "hit": false,
      "t": 95458.33333333327,
      "d": 57.291666666656965,
      "v": 51
    },
    {
      "midi": 59,
      "hit": false,
      "t": 95651.0416666666,
      "d": 41.66666666667152,
      "v": 81
    },
    {
      "midi": 66,
      "hit": false,
      "t": 95651.0416666666,
      "d": 114.58333333332848,
      "v": 70
    },
    {
      "midi": 54,
      "hit": false,
      "t": 95656.24999999993,
      "d": 36.458333333343035,
      "v": 88
    },
    {
      "midi": 71,
      "hit": false,
      "t": 95656.24999999993,
      "d": 125,
      "v": 78
    },
    {
      "midi": 50,
      "hit": false,
      "t": 95666.6666666666,
      "d": 46.875,
      "v": 66
    },
    {
      "midi": 76,
      "hit": false,
      "t": 95947.9166666666,
      "d": 765.6249999999709,
      "v": 94
    },
    {
      "midi": 67,
      "hit": false,
      "t": 95953.12499999993,
      "d": 749.9999999999709,
      "v": 83
    },
    {
      "midi": 55,
      "hit": false,
      "t": 95958.33333333326,
      "d": 630.2083333333139,
      "v": 79
    },
    {
      "midi": 60,
      "hit": false,
      "t": 95958.33333333326,
      "d": 729.1666666666424,
      "v": 91
    },
    {
      "midi": 64,
      "hit": false,
      "t": 95958.33333333326,
      "d": 776.0416666666424,
      "v": 93
    },
    {
      "midi": 48,
      "hit": false,
      "t": 95963.54166666658,
      "d": 494.79166666665697,
      "v": 79
    },
    {
      "midi": 52,
      "hit": false,
      "t": 96421.87499999991,
      "d": 369.79166666665697,
      "v": 91
    },
    {
      "midi": 72,
      "hit": false,
      "t": 96656.2499999999,
      "d": 208.33333333334303,
      "v": 85
    },
    {
      "midi": 74,
      "hit": false,
      "t": 96885.41666666657,
      "d": 114.58333333334303,
      "v": 95
    },
    {
      "midi": 62,
      "hit": false,
      "t": 96895.83333333324,
      "d": 52.083333333343035,
      "v": 75
    },
    {
      "midi": 67,
      "hit": false,
      "t": 96895.83333333324,
      "d": 67.70833333334303,
      "v": 68
    },
    {
      "midi": 59,
      "hit": false,
      "t": 96895.83333333324,
      "d": 104.16666666667152,
      "v": 74
    },
    {
      "midi": 55,
      "hit": false,
      "t": 96906.24999999991,
      "d": 52.083333333343035,
      "v": 76
    },
    {
      "midi": 67,
      "hit": false,
      "t": 97114.58333333324,
      "d": 145.83333333332848,
      "v": 83
    },
    {
      "midi": 74,
      "hit": false,
      "t": 97421.8749999999,
      "d": 442.70833333334303,
      "v": 81
    },
    {
      "midi": 59,
      "hit": false,
      "t": 97427.08333333323,
      "d": 239.58333333334303,
      "v": 48
    },
    {
      "midi": 47,
      "hit": false,
      "t": 97437.4999999999,
      "d": 291.6666666666715,
      "v": 37
    },
    {
      "midi": 62,
      "hit": false,
      "t": 97437.4999999999,
      "d": 322.9166666666715,
      "v": 46
    },
    {
      "midi": 67,
      "hit": false,
      "t": 97437.4999999999,
      "d": 671.8750000000146,
      "v": 47
    },
    {
      "midi": 46,
      "hit": false,
      "t": 97999.99999999991,
      "d": 312.49999999998545,
      "v": 48
    },
    {
      "midi": 58,
      "hit": false,
      "t": 98005.20833333324,
      "d": 255.20833333332848,
      "v": 55
    },
    {
      "midi": 73,
      "hit": false,
      "t": 98239.58333333324,
      "d": 171.87499999998545,
      "v": 78
    },
    {
      "midi": 61,
      "hit": false,
      "t": 98255.20833333324,
      "d": 78.12499999998545,
      "v": 77
    },
    {
      "midi": 72,
      "hit": false,
      "t": 98536.45833333323,
      "d": 328.1249999999709,
      "v": 89
    },
    {
      "midi": 50,
      "hit": false,
      "t": 98541.66666666656,
      "d": 244.79166666665697,
      "v": 28
    },
    {
      "midi": 57,
      "hit": false,
      "t": 98546.87499999988,
      "d": 281.24999999998545,
      "v": 53
    },
    {
      "midi": 60,
      "hit": false,
      "t": 98546.87499999988,
      "d": 333.33333333331393,
      "v": 64
    },
    {
      "midi": 45,
      "hit": false,
      "t": 98552.08333333321,
      "d": 255.20833333332848,
      "v": 33
    },
    {
      "midi": 56,
      "hit": false,
      "t": 99026.04166666653,
      "d": 83.33333333332848,
      "v": 75
    },
    {
      "midi": 71,
      "hit": false,
      "t": 99031.24999999985,
      "d": 67.70833333332848,
      "v": 89
    },
    {
      "midi": 44,
      "hit": false,
      "t": 99036.45833333318,
      "d": 46.875,
      "v": 65
    },
    {
      "midi": 59,
      "hit": false,
      "t": 99036.45833333318,
      "d": 46.875,
      "v": 63
    },
    {
      "midi": 65,
      "hit": false,
      "t": 99046.87499999985,
      "d": 46.875,
      "v": 48
    },
    {
      "midi": 73,
      "hit": false,
      "t": 99223.95833333318,
      "d": 62.5,
      "v": 32
    },
    {
      "midi": 77,
      "hit": false,
      "t": 99312.49999999985,
      "d": 161.45833333334303,
      "v": 98
    },
    {
      "midi": 65,
      "hit": false,
      "t": 99322.91666666653,
      "d": 140.625,
      "v": 75
    },
    {
      "midi": 59,
      "hit": false,
      "t": 99328.12499999985,
      "d": 109.375,
      "v": 69
    },
    {
      "midi": 68,
      "hit": false,
      "t": 99328.12499999985,
      "d": 192.70833333334303,
      "v": 52
    },
    {
      "midi": 56,
      "hit": false,
      "t": 99338.54166666653,
      "d": 140.625,
      "v": 47
    },
    {
      "midi": 47,
      "hit": false,
      "t": 99354.16666666653,
      "d": 67.70833333332848,
      "v": 38
    },
    {
      "midi": 76,
      "hit": false,
      "t": 99593.74999999987,
      "d": 145.83333333331393,
      "v": 83
    },
    {
      "midi": 60,
      "hit": false,
      "t": 99598.9583333332,
      "d": 223.95833333331393,
      "v": 59
    },
    {
      "midi": 64,
      "hit": false,
      "t": 99604.16666666653,
      "d": 166.66666666665697,
      "v": 80
    },
    {
      "midi": 48,
      "hit": false,
      "t": 99624.99999999985,
      "d": 145.83333333332848,
      "v": 38
    },
    {
      "midi": 57,
      "hit": false,
      "t": 99624.99999999985,
      "d": 296.87499999998545,
      "v": 41
    },
    {
      "midi": 69,
      "hit": false,
      "t": 99635.41666666653,
      "d": 98.95833333332848,
      "v": 45
    },
    {
      "midi": 69,
      "hit": false,
      "t": 99828.12499999984,
      "d": 286.45833333334303,
      "v": 70
    },
    {
      "midi": 50,
      "hit": false,
      "t": 99916.66666666651,
      "d": 734.375,
      "v": 44
    },
    {
      "midi": 55,
      "hit": false,
      "t": 99968.74999999984,
      "d": 239.58333333334303,
      "v": 39
    },
    {
      "midi": 59,
      "hit": false,
      "t": 100067.70833333318,
      "d": 338.54166666665697,
      "v": 52
    },
    {
      "midi": 74,
      "hit": false,
      "t": 100083.33333333318,
      "d": 395.8333333333285,
      "v": 79
    },
    {
      "midi": 62,
      "hit": false,
      "t": 100114.58333333318,
      "d": 161.45833333332848,
      "v": 24
    },
    {
      "midi": 67,
      "hit": false,
      "t": 100119.79166666651,
      "d": 250,
      "v": 41
    },
    {
      "midi": 55,
      "hit": false,
      "t": 100359.37499999984,
      "d": 437.5,
      "v": 92
    },
    {
      "midi": 62,
      "hit": false,
      "t": 100765.62499999984,
      "d": 1182.2916666666715,
      "v": 70
    },
    {
      "midi": 71,
      "hit": false,
      "t": 101031.24999999984,
      "d": 307.2916666666715,
      "v": 78
    },
    {
      "midi": 69,
      "hit": false,
      "t": 101343.74999999984,
      "d": 270.8333333333285,
      "v": 59
    },
    {
      "midi": 60,
      "hit": false,
      "t": 101348.95833333317,
      "d": 307.2916666666715,
      "v": 50
    },
    {
      "midi": 66,
      "hit": false,
      "t": 101354.1666666665,
      "d": 244.79166666667152,
      "v": 31
    },
    {
      "midi": 50,
      "hit": false,
      "t": 101380.20833333317,
      "d": 260.4166666666715,
      "v": 40
    },
    {
      "midi": 71,
      "hit": false,
      "t": 101630.20833333317,
      "d": 98.95833333334303,
      "v": 64
    },
    {
      "midi": 67,
      "hit": false,
      "t": 101895.83333333318,
      "d": 52.08333333332848,
      "v": 63
    },
    {
      "midi": 59,
      "hit": false,
      "t": 101895.83333333318,
      "d": 67.70833333332848,
      "v": 33
    },
    {
      "midi": 55,
      "hit": false,
      "t": 101911.45833333318,
      "d": 52.08333333332848,
      "v": 55
    },
    {
      "midi": 59,
      "hit": false,
      "t": 102187.49999999984,
      "d": 52.08333333332848,
      "v": 60
    },
    {
      "midi": 71,
      "hit": false,
      "t": 102187.49999999984,
      "d": 52.08333333332848,
      "v": 74
    },
    {
      "midi": 62,
      "hit": false,
      "t": 102192.70833333317,
      "d": 130.20833333332848,
      "v": 82
    },
    {
      "midi": 74,
      "hit": false,
      "t": 102192.70833333317,
      "d": 140.625,
      "v": 101
    },
    {
      "midi": 55,
      "hit": false,
      "t": 102192.70833333317,
      "d": 218.75,
      "v": 59
    },
    {
      "midi": 67,
      "hit": false,
      "t": 102197.9166666665,
      "d": 62.5,
      "v": 73
    },
    {
      "midi": 52,
      "hit": false,
      "t": 102442.70833333317,
      "d": 515.6250000000146,
      "v": 57
    },
    {
      "midi": 71,
      "hit": false,
      "t": 102499.99999999984,
      "d": 661.458333333343,
      "v": 83
    },
    {
      "midi": 79,
      "hit": false,
      "t": 102499.99999999984,
      "d": 677.083333333343,
      "v": 104
    },
    {
      "midi": 64,
      "hit": false,
      "t": 102499.99999999984,
      "d": 770.833333333343,
      "v": 72
    },
    {
      "midi": 59,
      "hit": false,
      "t": 102510.41666666651,
      "d": 708.333333333343,
      "v": 34
    },
    {
      "midi": 67,
      "hit": false,
      "t": 102510.41666666651,
      "d": 812.5,
      "v": 65
    },
    {
      "midi": 55,
      "hit": false,
      "t": 103057.29166666651,
      "d": 411.4583333333285,
      "v": 75
    },
    {
      "midi": 76,
      "hit": false,
      "t": 103322.91666666651,
      "d": 218.75,
      "v": 86
    },
    {
      "midi": 71,
      "hit": false,
      "t": 103567.70833333317,
      "d": 57.291666666656965,
      "v": 59
    },
    {
      "midi": 78,
      "hit": false,
      "t": 103567.70833333317,
      "d": 109.37499999998545,
      "v": 84
    },
    {
      "midi": 66,
      "hit": false,
      "t": 103572.9166666665,
      "d": 67.70833333332848,
      "v": 66
    },
    {
      "midi": 59,
      "hit": false,
      "t": 103583.33333333317,
      "d": 36.45833333332848,
      "v": 70
    },
    {
      "midi": 62,
      "hit": false,
      "t": 103583.33333333317,
      "d": 46.87499999998545,
      "v": 74
    },
    {
      "midi": 59,
      "hit": false,
      "t": 103822.91666666648,
      "d": 52.08333333332848,
      "v": 74
    },
    {
      "midi": 54,
      "hit": false,
      "t": 103822.91666666648,
      "d": 62.5,
      "v": 76
    },
    {
      "midi": 71,
      "hit": false,
      "t": 103822.91666666648,
      "d": 119.79166666667152,
      "v": 85
    },
    {
      "midi": 66,
      "hit": false,
      "t": 103822.91666666648,
      "d": 125,
      "v": 70
    },
    {
      "midi": 50,
      "hit": false,
      "t": 103843.74999999981,
      "d": 57.29166666667152,
      "v": 46
    },
    {
      "midi": 76,
      "hit": false,
      "t": 104114.58333333315,
      "d": 744.7916666666715,
      "v": 86
    },
    {
      "midi": 64,
      "hit": false,
      "t": 104114.58333333315,
      "d": 802.083333333343,
      "v": 62
    },
    {
      "midi": 55,
      "hit": false,
      "t": 104124.99999999983,
      "d": 697.9166666666715,
      "v": 54
    },
    {
      "midi": 67,
      "hit": false,
      "t": 104124.99999999983,
      "d": 760.4166666666715,
      "v": 66
    },
    {
      "midi": 60,
      "hit": false,
      "t": 104124.99999999983,
      "d": 770.833333333343,
      "v": 62
    },
    {
      "midi": 48,
      "hit": false,
      "t": 104135.4166666665,
      "d": 484.375,
      "v": 42
    },
    {
      "midi": 52,
      "hit": false,
      "t": 104614.58333333317,
      "d": 453.125,
      "v": 67
    },
    {
      "midi": 72,
      "hit": false,
      "t": 104895.83333333317,
      "d": 229.16666666667152,
      "v": 77
    },
    {
      "midi": 74,
      "hit": false,
      "t": 105135.41666666651,
      "d": 156.24999999998545,
      "v": 84
    },
    {
      "midi": 67,
      "hit": false,
      "t": 105140.62499999984,
      "d": 78.12499999998545,
      "v": 48
    },
    {
      "midi": 55,
      "hit": false,
      "t": 105145.83333333317,
      "d": 145.83333333332848,
      "v": 42
    },
    {
      "midi": 59,
      "hit": false,
      "t": 105145.83333333317,
      "d": 166.66666666665697,
      "v": 44
    },
    {
      "midi": 62,
      "hit": false,
      "t": 105151.0416666665,
      "d": 67.70833333332848,
      "v": 62
    },
    {
      "midi": 67,
      "hit": false,
      "t": 105406.24999999983,
      "d": 145.83333333332848,
      "v": 90
    },
    {
      "midi": 59,
      "hit": false,
      "t": 105718.74999999983,
      "d": 406.24999999998545,
      "v": 68
    },
    {
      "midi": 74,
      "hit": false,
      "t": 105723.95833333315,
      "d": 557.291666666657,
      "v": 87
    },
    {
      "midi": 67,
      "hit": false,
      "t": 105723.95833333315,
      "d": 776.041666666657,
      "v": 67
    },
    {
      "midi": 62,
      "hit": false,
      "t": 105729.16666666648,
      "d": 583.3333333333285,
      "v": 72
    },
    {
      "midi": 47,
      "hit": false,
      "t": 105739.58333333315,
      "d": 406.24999999998545,
      "v": 50
    },
    {
      "midi": 58,
      "hit": false,
      "t": 106265.62499999981,
      "d": 359.375,
      "v": 69
    },
    {
      "midi": 46,
      "hit": false,
      "t": 106281.24999999981,
      "d": 281.25,
      "v": 63
    },
    {
      "midi": 61,
      "hit": false,
      "t": 106562.49999999981,
      "d": 72.91666666667152,
      "v": 83
    },
    {
      "midi": 73,
      "hit": false,
      "t": 106562.49999999981,
      "d": 145.83333333334303,
      "v": 81
    },
    {
      "midi": 61,
      "hit": false,
      "t": 106880.20833333315,
      "d": 390.62499999998545,
      "v": 77
    },
    {
      "midi": 76,
      "hit": false,
      "t": 106880.20833333315,
      "d": 541.6666666666424,
      "v": 84
    },
    {
      "midi": 64,
      "hit": false,
      "t": 106880.20833333315,
      "d": 557.2916666666424,
      "v": 87
    },
    {
      "midi": 55,
      "hit": false,
      "t": 106885.41666666648,
      "d": 250,
      "v": 64
    },
    {
      "midi": 49,
      "hit": false,
      "t": 106885.41666666648,
      "d": 380.2083333333285,
      "v": 36
    },
    {
      "midi": 70,
      "hit": false,
      "t": 106885.41666666648,
      "d": 437.49999999998545,
      "v": 67
    },
    {
      "midi": 69,
      "hit": false,
      "t": 107348.95833333314,
      "d": 229.16666666665697,
      "v": 72
    },
    {
      "midi": 60,
      "hit": false,
      "t": 107354.16666666647,
      "d": 208.33333333332848,
      "v": 79
    },
    {
      "midi": 48,
      "hit": false,
      "t": 107364.58333333314,
      "d": 161.45833333332848,
      "v": 61
    },
    {
      "midi": 54,
      "hit": false,
      "t": 107369.79166666647,
      "d": 187.5,
      "v": 68
    },
    {
      "midi": 63,
      "hit": false,
      "t": 107583.33333333312,
      "d": 62.5,
      "v": 88
    },
    {
      "midi": 75,
      "hit": false,
      "t": 107583.33333333312,
      "d": 145.83333333332848,
      "v": 85
    },
    {
      "midi": 63,
      "hit": false,
      "t": 107812.49999999978,
      "d": 338.54166666665697,
      "v": 88
    },
    {
      "midi": 78,
      "hit": false,
      "t": 107812.49999999978,
      "d": 541.6666666666279,
      "v": 95
    },
    {
      "midi": 66,
      "hit": false,
      "t": 107817.70833333311,
      "d": 499.9999999999709,
      "v": 77
    },
    {
      "midi": 72,
      "hit": false,
      "t": 107822.91666666644,
      "d": 213.54166666667152,
      "v": 72
    },
    {
      "midi": 57,
      "hit": false,
      "t": 107822.91666666644,
      "d": 223.95833333334303,
      "v": 63
    },
    {
      "midi": 51,
      "hit": false,
      "t": 107822.91666666644,
      "d": 307.2916666666715,
      "v": 52
    },
    {
      "midi": 62,
      "hit": false,
      "t": 108218.74999999977,
      "d": 203.12499999998545,
      "v": 91
    },
    {
      "midi": 71,
      "hit": false,
      "t": 108223.9583333331,
      "d": 197.91666666665697,
      "v": 87
    },
    {
      "midi": 50,
      "hit": false,
      "t": 108229.16666666642,
      "d": 130.20833333331393,
      "v": 76
    },
    {
      "midi": 56,
      "hit": false,
      "t": 108229.16666666642,
      "d": 156.24999999998545,
      "v": 65
    },
    {
      "midi": 77,
      "hit": false,
      "t": 108427.08333333308,
      "d": 83.33333333332848,
      "v": 94
    },
    {
      "midi": 65,
      "hit": false,
      "t": 108432.29166666641,
      "d": 46.875,
      "v": 85
    },
    {
      "midi": 53,
      "hit": false,
      "t": 108578.12499999974,
      "d": 390.625,
      "v": 91
    },
    {
      "midi": 59,
      "hit": false,
      "t": 108614.58333333307,
      "d": 338.5416666666715,
      "v": 69
    },
    {
      "midi": 65,
      "hit": false,
      "t": 108630.20833333307,
      "d": 307.2916666666715,
      "v": 79
    },
    {
      "midi": 68,
      "hit": false,
      "t": 108640.62499999974,
      "d": 447.9166666666715,
      "v": 90
    },
    {
      "midi": 80,
      "hit": false,
      "t": 108640.62499999974,
      "d": 515.625,
      "v": 97
    },
    {
      "midi": 74,
      "hit": false,
      "t": 108651.04166666641,
      "d": 265.625,
      "v": 88
    },
    {
      "midi": 73,
      "hit": false,
      "t": 109031.24999999974,
      "d": 250,
      "v": 71
    },
    {
      "midi": 64,
      "hit": false,
      "t": 109046.87499999974,
      "d": 208.33333333332848,
      "v": 89
    },
    {
      "midi": 52,
      "hit": false,
      "t": 109057.29166666641,
      "d": 119.79166666665697,
      "v": 80
    },
    {
      "midi": 58,
      "hit": false,
      "t": 109057.29166666641,
      "d": 135.41666666665697,
      "v": 61
    },
    {
      "midi": 79,
      "hit": false,
      "t": 109239.58333333307,
      "d": 109.375,
      "v": 103
    },
    {
      "midi": 67,
      "hit": false,
      "t": 109244.7916666664,
      "d": 41.66666666667152,
      "v": 84
    },
    {
      "midi": 55,
      "hit": false,
      "t": 109364.58333333307,
      "d": 249.99999999998545,
      "v": 80
    },
    {
      "midi": 70,
      "hit": false,
      "t": 109416.6666666664,
      "d": 270.83333333331393,
      "v": 60
    },
    {
      "midi": 61,
      "hit": false,
      "t": 109453.12499999972,
      "d": 234.37499999998545,
      "v": 74
    },
    {
      "midi": 73,
      "hit": false,
      "t": 109499.99999999972,
      "d": 177.08333333331393,
      "v": 66
    },
    {
      "midi": 64,
      "hit": false,
      "t": 109536.45833333305,
      "d": 161.45833333331393,
      "v": 76
    },
    {
      "midi": 76,
      "hit": false,
      "t": 109598.95833333305,
      "d": 130.20833333331393,
      "v": 65
    },
    {
      "midi": 67,
      "hit": false,
      "t": 109619.79166666638,
      "d": 151.04166666665697,
      "v": 46
    },
    {
      "midi": 82,
      "hit": false,
      "t": 109640.62499999971,
      "d": 187.5,
      "v": 86
    },
    {
      "midi": 58,
      "hit": false,
      "t": 109874.99999999971,
      "d": 119.79166666668607,
      "v": 55
    },
    {
      "midi": 73,
      "hit": false,
      "t": 109921.87499999971,
      "d": 83.33333333335759,
      "v": 53
    },
    {
      "midi": 64,
      "hit": false,
      "t": 109932.29166666638,
      "d": 52.083333333343035,
      "v": 59
    },
    {
      "midi": 67,
      "hit": false,
      "t": 109958.33333333305,
      "d": 57.29166666668607,
      "v": 53
    },
    {
      "midi": 76,
      "hit": false,
      "t": 109973.95833333305,
      "d": 98.95833333334303,
      "v": 51
    },
    {
      "midi": 70,
      "hit": false,
      "t": 110015.62499999974,
      "d": 104.16666666665697,
      "v": 69
    },
    {
      "midi": 79,
      "hit": false,
      "t": 110020.83333333307,
      "d": 46.875,
      "v": 72
    },
    {
      "midi": 85,
      "hit": false,
      "t": 110041.6666666664,
      "d": 156.25,
      "v": 90
    },
    {
      "midi": 61,
      "hit": false,
      "t": 110229.1666666664,
      "d": 62.5,
      "v": 48
    },
    {
      "midi": 76,
      "hit": false,
      "t": 110255.20833333307,
      "d": 57.29166666667152,
      "v": 58
    },
    {
      "midi": 67,
      "hit": false,
      "t": 110270.83333333307,
      "d": 52.083333333343035,
      "v": 56
    },
    {
      "midi": 79,
      "hit": false,
      "t": 110302.08333333307,
      "d": 57.29166666667152,
      "v": 51
    },
    {
      "midi": 70,
      "hit": false,
      "t": 110322.91666666641,
      "d": 52.08333333332848,
      "v": 42
    },
    {
      "midi": 82,
      "hit": false,
      "t": 110343.74999999974,
      "d": 57.29166666667152,
      "v": 80
    },
    {
      "midi": 73,
      "hit": false,
      "t": 110343.74999999974,
      "d": 83.33333333332848,
      "v": 72
    },
    {
      "midi": 88,
      "hit": false,
      "t": 110364.58333333307,
      "d": 41.66666666667152,
      "v": 91
    },
    {
      "midi": 79,
      "hit": false,
      "t": 110520.83333333307,
      "d": 62.5,
      "v": 80
    },
    {
      "midi": 70,
      "hit": false,
      "t": 110546.87499999974,
      "d": 83.33333333332848,
      "v": 45
    },
    {
      "midi": 64,
      "hit": false,
      "t": 110562.49999999974,
      "d": 57.291666666656965,
      "v": 32
    },
    {
      "midi": 82,
      "hit": false,
      "t": 110583.33333333307,
      "d": 52.08333333332848,
      "v": 44
    },
    {
      "midi": 85,
      "hit": false,
      "t": 110598.95833333307,
      "d": 36.45833333332848,
      "v": 73
    },
    {
      "midi": 76,
      "hit": false,
      "t": 110614.58333333307,
      "d": 62.5,
      "v": 69
    },
    {
      "midi": 73,
      "hit": false,
      "t": 110614.58333333307,
      "d": 72.91666666667152,
      "v": 29
    },
    {
      "midi": 91,
      "hit": false,
      "t": 110619.7916666664,
      "d": 41.66666666667152,
      "v": 80
    },
    {
      "midi": 82,
      "hit": false,
      "t": 110781.24999999974,
      "d": 46.875,
      "v": 76
    },
    {
      "midi": 73,
      "hit": false,
      "t": 110822.91666666641,
      "d": 52.08333333332848,
      "v": 41
    },
    {
      "midi": 85,
      "hit": false,
      "t": 110828.12499999974,
      "d": 46.875,
      "v": 48
    },
    {
      "midi": 88,
      "hit": false,
      "t": 110864.58333333307,
      "d": 41.66666666667152,
      "v": 67
    },
    {
      "midi": 94,
      "hit": false,
      "t": 110880.20833333307,
      "d": 62.5,
      "v": 83
    },
    {
      "midi": 79,
      "hit": false,
      "t": 110895.83333333307,
      "d": 41.66666666667152,
      "v": 75
    },
    {
      "midi": 85,
      "hit": false,
      "t": 111041.6666666664,
      "d": 83.33333333334303,
      "v": 64
    },
    {
      "midi": 70,
      "hit": false,
      "t": 111052.08333333307,
      "d": 62.5,
      "v": 53
    },
    {
      "midi": 88,
      "hit": false,
      "t": 111114.58333333307,
      "d": 67.70833333332848,
      "v": 39
    },
    {
      "midi": 76,
      "hit": false,
      "t": 111124.99999999974,
      "d": 62.49999999998545,
      "v": 32
    },
    {
      "midi": 79,
      "hit": false,
      "t": 111140.62499999974,
      "d": 57.291666666656965,
      "v": 36
    },
    {
      "midi": 91,
      "hit": false,
      "t": 111156.24999999974,
      "d": 46.87499999998545,
      "v": 59
    },
    {
      "midi": 82,
      "hit": false,
      "t": 111171.87499999974,
      "d": 62.49999999998545,
      "v": 65
    },
    {
      "midi": 97,
      "hit": false,
      "t": 111177.08333333307,
      "d": 98.95833333332848,
      "v": 81
    },
    {
      "midi": 73,
      "hit": false,
      "t": 111343.74999999972,
      "d": 135.41666666665697,
      "v": 47
    },
    {
      "midi": 79,
      "hit": false,
      "t": 111411.45833333305,
      "d": 62.5,
      "v": 50
    },
    {
      "midi": 88,
      "hit": false,
      "t": 111427.08333333305,
      "d": 62.5,
      "v": 54
    },
    {
      "midi": 91,
      "hit": false,
      "t": 111458.33333333305,
      "d": 98.95833333332848,
      "v": 57
    },
    {
      "midi": 82,
      "hit": false,
      "t": 111463.54166666638,
      "d": 78.125,
      "v": 54
    },
    {
      "midi": 94,
      "hit": false,
      "t": 111520.83333333305,
      "d": 109.37499999998545,
      "v": 65
    },
    {
      "midi": 85,
      "hit": false,
      "t": 111557.29166666638,
      "d": 281.24999999998545,
      "v": 52
    },
    {
      "midi": 100,
      "hit": false,
      "t": 111578.12499999971,
      "d": 52.08333333332848,
      "v": 95
    },
    {
      "midi": 76,
      "hit": false,
      "t": 111932.29166666637,
      "d": 1687.5,
      "v": 45
    },
    {
      "midi": 79,
      "hit": false,
      "t": 111958.33333333304,
      "d": 890.6249999999854,
      "v": 59
    },
    {
      "midi": 82,
      "hit": false,
      "t": 111999.99999999971,
      "d": 979.166666666657,
      "v": 52
    },
    {
      "midi": 85,
      "hit": false,
      "t": 112041.66666666638,
      "d": 864.5833333333139,
      "v": 55
    },
    {
      "midi": 88,
      "hit": false,
      "t": 112124.99999999971,
      "d": 489.58333333331393,
      "v": 72
    },
    {
      "midi": 91,
      "hit": false,
      "t": 112192.70833333304,
      "d": 328.12499999998545,
      "v": 66
    },
    {
      "midi": 94,
      "hit": false,
      "t": 112260.41666666637,
      "d": 260.41666666665697,
      "v": 57
    },
    {
      "midi": 97,
      "hit": false,
      "t": 112328.1249999997,
      "d": 208.33333333332848,
      "v": 52
    },
    {
      "midi": 103,
      "hit": false,
      "t": 112442.70833333302,
      "d": 161.45833333332848,
      "v": 78
    },
    {
      "midi": 52,
      "hit": false,
      "t": 115385.41666666637,
      "d": 734.375,
      "v": 80
    },
    {
      "midi": 49,
      "hit": false,
      "t": 116010.41666666637,
      "d": 468.75000000001455,
      "v": 75
    },
    {
      "midi": 46,
      "hit": false,
      "t": 116406.24999999971,
      "d": 473.9583333333285,
      "v": 77
    },
    {
      "midi": 45,
      "hit": false,
      "t": 116843.74999999971,
      "d": 1177.0833333333285,
      "v": 67
    },
    {
      "midi": 43,
      "hit": false,
      "t": 117822.91666666637,
      "d": 1562.5,
      "v": 76
    },
    {
      "midi": 42,
      "hit": false,
      "t": 119145.83333333304,
      "d": 4916.666666666686,
      "v": 76
    },
    {
      "midi": 50,
      "hit": false,
      "t": 120291.66666666637,
      "d": 2947.916666666686,
      "v": 35
    },
    {
      "midi": 57,
      "hit": false,
      "t": 120374.9999999997,
      "d": 2557.291666666686,
      "v": 37
    },
    {
      "midi": 62,
      "hit": false,
      "t": 120499.9999999997,
      "d": 98.95833333334303,
      "v": 17
    },
    {
      "midi": 69,
      "hit": false,
      "t": 120541.66666666637,
      "d": 385.41666666668607,
      "v": 35
    },
    {
      "midi": 72,
      "hit": false,
      "t": 120609.37499999971,
      "d": 546.8750000000146,
      "v": 39
    },
    {
      "midi": 74,
      "hit": false,
      "t": 120697.91666666638,
      "d": 1088.5416666666715,
      "v": 67
    },
    {
      "midi": 62,
      "hit": false,
      "t": 124015.62499999972,
      "d": 640.625,
      "v": 26
    },
    {
      "midi": 64,
      "hit": false,
      "t": 124630.20833333305,
      "d": 510.41666666665697,
      "v": 31
    },
    {
      "midi": 66,
      "hit": false,
      "t": 125057.29166666638,
      "d": 453.12499999998545,
      "v": 31
    },
    {
      "midi": 67,
      "hit": false,
      "t": 125427.08333333304,
      "d": 401.04166666665697,
      "v": 35
    },
    {
      "midi": 43,
      "hit": false,
      "t": 125473.95833333304,
      "d": 255.20833333332848,
      "v": 18
    },
    {
      "midi": 69,
      "hit": false,
      "t": 125744.79166666637,
      "d": 359.375,
      "v": 38
    },
    {
      "midi": 70,
      "hit": false,
      "t": 126041.66666666637,
      "d": 375,
      "v": 52
    },
    {
      "midi": 50,
      "hit": false,
      "t": 126098.95833333304,
      "d": 359.375,
      "v": 26
    },
    {
      "midi": 72,
      "hit": false,
      "t": 126338.54166666637,
      "d": 369.7916666666715,
      "v": 67
    },
    {
      "midi": 58,
      "hit": false,
      "t": 126619.79166666637,
      "d": 192.70833333334303,
      "v": 20
    },
    {
      "midi": 62,
      "hit": false,
      "t": 126635.41666666637,
      "d": 281.25000000001455,
      "v": 23
    },
    {
      "midi": 55,
      "hit": false,
      "t": 126645.83333333304,
      "d": 458.33333333334303,
      "v": 19
    },
    {
      "midi": 74,
      "hit": false,
      "t": 126666.66666666637,
      "d": 375.00000000001455,
      "v": 71
    },
    {
      "midi": 79,
      "hit": false,
      "t": 127015.62499999971,
      "d": 427.08333333334303,
      "v": 55
    },
    {
      "midi": 58,
      "hit": false,
      "t": 127031.24999999971,
      "d": 416.6666666666715,
      "v": 62
    },
    {
      "midi": 78,
      "hit": false,
      "t": 127416.66666666638,
      "d": 401.0416666666715,
      "v": 50
    },
    {
      "midi": 57,
      "hit": false,
      "t": 127432.29166666638,
      "d": 390.625,
      "v": 70
    },
    {
      "midi": 55,
      "hit": false,
      "t": 127755.20833333305,
      "d": 192.70833333332848,
      "v": 87
    },
    {
      "midi": 79,
      "hit": false,
      "t": 127770.83333333305,
      "d": 442.7083333333285,
      "v": 73
    },
    {
      "midi": 46,
      "hit": false,
      "t": 127979.16666666638,
      "d": 484.375,
      "v": 42
    },
    {
      "midi": 50,
      "hit": false,
      "t": 128010.41666666638,
      "d": 427.0833333333285,
      "v": 53
    },
    {
      "midi": 54,
      "hit": false,
      "t": 128093.74999999971,
      "d": 380.20833333334303,
      "v": 85
    },
    {
      "midi": 74,
      "hit": false,
      "t": 128135.41666666638,
      "d": 1593.75,
      "v": 62
    },
    {
      "midi": 55,
      "hit": false,
      "t": 128416.66666666638,
      "d": 343.75,
      "v": 85
    },
    {
      "midi": 58,
      "hit": false,
      "t": 128718.74999999972,
      "d": 374.99999999998545,
      "v": 69
    },
    {
      "midi": 60,
      "hit": false,
      "t": 129031.24999999971,
      "d": 385.4166666666715,
      "v": 67
    },
    {
      "midi": 62,
      "hit": false,
      "t": 129447.91666666638,
      "d": 562.5,
      "v": 52
    },
    {
      "midi": 74,
      "hit": false,
      "t": 129854.16666666638,
      "d": 432.29166666665697,
      "v": 68
    },
    {
      "midi": 63,
      "hit": false,
      "t": 130114.58333333305,
      "d": 562.4999999999854,
      "v": 41
    },
    {
      "midi": 67,
      "hit": false,
      "t": 130213.54166666638,
      "d": 401.04166666665697,
      "v": 34
    },
    {
      "midi": 69,
      "hit": false,
      "t": 130265.62499999971,
      "d": 411.4583333333285,
      "v": 61
    },
    {
      "midi": 48,
      "hit": false,
      "t": 130291.66666666637,
      "d": 421.875,
      "v": 26
    },
    {
      "midi": 72,
      "hit": false,
      "t": 130572.91666666637,
      "d": 395.8333333333285,
      "v": 64
    },
    {
      "midi": 62,
      "hit": false,
      "t": 130807.29166666637,
      "d": 572.916666666657,
      "v": 19
    },
    {
      "midi": 67,
      "hit": false,
      "t": 130843.7499999997,
      "d": 1250.0000000000146,
      "v": 43
    },
    {
      "midi": 50,
      "hit": false,
      "t": 130869.79166666637,
      "d": 182.29166666665697,
      "v": 30
    },
    {
      "midi": 70,
      "hit": false,
      "t": 130890.6249999997,
      "d": 1760.4166666667006,
      "v": 55
    },
    {
      "midi": 63,
      "hit": false,
      "t": 131161.45833333302,
      "d": 343.75,
      "v": 65
    },
    {
      "midi": 61,
      "hit": false,
      "t": 131510.41666666637,
      "d": 437.5000000000291,
      "v": 58
    },
    {
      "midi": 58,
      "hit": false,
      "t": 131531.2499999997,
      "d": 364.58333333334303,
      "v": 25
    },
    {
      "midi": 55,
      "hit": false,
      "t": 131531.2499999997,
      "d": 411.45833333334303,
      "v": 21
    },
    {
      "midi": 63,
      "hit": false,
      "t": 131854.16666666637,
      "d": 354.16666666668607,
      "v": 58
    },
    {
      "midi": 62,
      "hit": false,
      "t": 132343.7499999997,
      "d": 364.58333333334303,
      "v": 39
    },
    {
      "midi": 58,
      "hit": false,
      "t": 132354.16666666637,
      "d": 390.6250000000291,
      "v": 16
    },
    {
      "midi": 55,
      "hit": false,
      "t": 132354.16666666637,
      "d": 458.33333333337214,
      "v": 26
    },
    {
      "midi": 70,
      "hit": false,
      "t": 132765.62499999974,
      "d": 348.95833333334303,
      "v": 43
    },
    {
      "midi": 60,
      "hit": false,
      "t": 133083.33333333308,
      "d": 432.29166666665697,
      "v": 22
    },
    {
      "midi": 66,
      "hit": false,
      "t": 133130.20833333308,
      "d": 416.66666666665697,
      "v": 37
    },
    {
      "midi": 50,
      "hit": false,
      "t": 133145.83333333308,
      "d": 453.125,
      "v": 34
    },
    {
      "midi": 69,
      "hit": false,
      "t": 133432.2916666664,
      "d": 515.6250000000291,
      "v": 35
    },
    {
      "midi": 58,
      "hit": false,
      "t": 133770.83333333308,
      "d": 1703.124999999971,
      "v": 18
    },
    {
      "midi": 67,
      "hit": false,
      "t": 133791.66666666642,
      "d": 1437.499999999971,
      "v": 33
    },
    {
      "midi": 43,
      "hit": false,
      "t": 133807.29166666642,
      "d": 2463.541666666657,
      "v": 33
    },
    {
      "midi": 51,
      "hit": false,
      "t": 134098.95833333308,
      "d": 380.20833333334303,
      "v": 41
    },
    {
      "midi": 49,
      "hit": false,
      "t": 134427.08333333308,
      "d": 406.25,
      "v": 36
    },
    {
      "midi": 51,
      "hit": false,
      "t": 134802.08333333308,
      "d": 473.95833333331393,
      "v": 26
    },
    {
      "midi": 50,
      "hit": false,
      "t": 135255.20833333305,
      "d": 1067.7083333333721,
      "v": 30
    },
    {
      "midi": 62,
      "hit": false,
      "t": 135557.2916666664,
      "d": 453.1250000000291,
      "v": 39
    },
    {
      "midi": 64,
      "hit": false,
      "t": 135958.33333333308,
      "d": 375,
      "v": 48
    },
    {
      "midi": 60,
      "hit": false,
      "t": 135963.54166666642,
      "d": 572.916666666657,
      "v": 26
    },
    {
      "midi": 66,
      "hit": false,
      "t": 136260.41666666642,
      "d": 333.33333333334303,
      "v": 50
    },
    {
      "midi": 58,
      "hit": false,
      "t": 136572.91666666642,
      "d": 130.20833333334303,
      "v": 25
    },
    {
      "midi": 67,
      "hit": false,
      "t": 136578.12499999977,
      "d": 218.75,
      "v": 57
    },
    {
      "midi": 43,
      "hit": false,
      "t": 136619.79166666642,
      "d": 104.16666666668607,
      "v": 36
    },
    {
      "midi": 69,
      "hit": false,
      "t": 136895.8333333331,
      "d": 369.79166666665697,
      "v": 68
    },
    {
      "midi": 70,
      "hit": false,
      "t": 137203.12499999977,
      "d": 328.125,
      "v": 68
    },
    {
      "midi": 50,
      "hit": false,
      "t": 137249.99999999977,
      "d": 692.708333333343,
      "v": 26
    },
    {
      "midi": 72,
      "hit": false,
      "t": 137484.37499999977,
      "d": 390.625,
      "v": 79
    },
    {
      "midi": 55,
      "hit": false,
      "t": 137802.0833333331,
      "d": 234.375,
      "v": 10
    },
    {
      "midi": 58,
      "hit": false,
      "t": 137807.29166666645,
      "d": 239.58333333331393,
      "v": 18
    },
    {
      "midi": 74,
      "hit": false,
      "t": 137833.3333333331,
      "d": 364.58333333334303,
      "v": 66
    },
    {
      "midi": 62,
      "hit": false,
      "t": 137895.8333333331,
      "d": 93.75,
      "v": 32
    },
    {
      "midi": 79,
      "hit": false,
      "t": 138192.7083333331,
      "d": 62.5,
      "v": 66
    },
    {
      "midi": 58,
      "hit": false,
      "t": 138208.3333333331,
      "d": 244.79166666665697,
      "v": 47
    },
    {
      "midi": 65,
      "hit": false,
      "t": 138427.0833333331,
      "d": 369.79166666662786,
      "v": 27
    },
    {
      "midi": 72,
      "hit": false,
      "t": 138510.41666666642,
      "d": 322.91666666665697,
      "v": 35
    },
    {
      "midi": 45,
      "hit": false,
      "t": 138526.04166666642,
      "d": 223.95833333331393,
      "v": 35
    },
    {
      "midi": 75,
      "hit": false,
      "t": 138536.45833333308,
      "d": 468.75,
      "v": 39
    },
    {
      "midi": 57,
      "hit": false,
      "t": 138604.16666666642,
      "d": 343.75,
      "v": 69
    },
    {
      "midi": 77,
      "hit": false,
      "t": 138630.20833333308,
      "d": 197.91666666665697,
      "v": 54
    },
    {
      "midi": 55,
      "hit": false,
      "t": 138937.49999999974,
      "d": 192.70833333334303,
      "v": 76
    },
    {
      "midi": 79,
      "hit": false,
      "t": 138942.70833333308,
      "d": 52.083333333343035,
      "v": 62
    },
    {
      "midi": 65,
      "hit": false,
      "t": 139161.45833333308,
      "d": 687.5,
      "v": 36
    },
    {
      "midi": 53,
      "hit": false,
      "t": 139208.33333333308,
      "d": 328.125,
      "v": 69
    },
    {
      "midi": 70,
      "hit": false,
      "t": 139229.16666666642,
      "d": 1395.833333333314,
      "v": 33
    },
    {
      "midi": 46,
      "hit": false,
      "t": 139244.79166666642,
      "d": 291.66666666665697,
      "v": 33
    },
    {
      "midi": 74,
      "hit": false,
      "t": 139276.04166666642,
      "d": 1302.083333333314,
      "v": 56
    },
    {
      "midi": 55,
      "hit": false,
      "t": 139536.45833333308,
      "d": 312.5,
      "v": 71
    },
    {
      "midi": 58,
      "hit": false,
      "t": 139817.70833333308,
      "d": 994.791666666657,
      "v": 56
    },
    {
      "midi": 62,
      "hit": false,
      "t": 140114.58333333308,
      "d": 421.875,
      "v": 70
    },
    {
      "midi": 65,
      "hit": false,
      "t": 140515.62499999974,
      "d": 187.5,
      "v": 72
    },
    {
      "midi": 77,
      "hit": false,
      "t": 140822.9166666664,
      "d": 88.54166666665697,
      "v": 87
    },
    {
      "midi": 63,
      "hit": false,
      "t": 141015.6249999997,
      "d": 364.58333333331393,
      "v": 46
    },
    {
      "midi": 70,
      "hit": false,
      "t": 141093.7499999997,
      "d": 499.9999999999709,
      "v": 35
    },
    {
      "midi": 74,
      "hit": false,
      "t": 141140.6249999997,
      "d": 229.16666666665697,
      "v": 60
    },
    {
      "midi": 43,
      "hit": false,
      "t": 141197.91666666637,
      "d": 526.041666666657,
      "v": 40
    },
    {
      "midi": 75,
      "hit": false,
      "t": 141208.33333333302,
      "d": 250,
      "v": 73
    },
    {
      "midi": 77,
      "hit": false,
      "t": 141552.08333333302,
      "d": 46.875,
      "v": 68
    },
    {
      "midi": 63,
      "hit": false,
      "t": 141739.58333333302,
      "d": 421.8749999999709,
      "v": 30
    },
    {
      "midi": 45,
      "hit": false,
      "t": 141791.66666666637,
      "d": 239.58333333331393,
      "v": 30
    },
    {
      "midi": 69,
      "hit": false,
      "t": 141817.70833333302,
      "d": 739.5833333332848,
      "v": 32
    },
    {
      "midi": 72,
      "hit": false,
      "t": 141911.45833333302,
      "d": 1177.0833333332848,
      "v": 54
    },
    {
      "midi": 55,
      "hit": false,
      "t": 142281.24999999965,
      "d": 244.79166666665697,
      "v": 27
    },
    {
      "midi": 57,
      "hit": false,
      "t": 142583.33333333296,
      "d": 291.66666666665697,
      "v": 34
    },
    {
      "midi": 60,
      "hit": false,
      "t": 142880.20833333296,
      "d": 307.29166666668607,
      "v": 42
    },
    {
      "midi": 63,
      "hit": false,
      "t": 143213.5416666663,
      "d": 286.45833333334303,
      "v": 41
    },
    {
      "midi": 75,
      "hit": false,
      "t": 143515.62499999965,
      "d": 151.04166666665697,
      "v": 50
    },
    {
      "midi": 62,
      "hit": false,
      "t": 143718.74999999965,
      "d": 411.45833333334303,
      "v": 24
    },
    {
      "midi": 69,
      "hit": false,
      "t": 143812.49999999965,
      "d": 531.2500000000291,
      "v": 22
    },
    {
      "midi": 72,
      "hit": false,
      "t": 143895.833333333,
      "d": 536.458333333343,
      "v": 39
    },
    {
      "midi": 42,
      "hit": false,
      "t": 143937.49999999965,
      "d": 447.91666666668607,
      "v": 26
    },
    {
      "midi": 74,
      "hit": false,
      "t": 143989.583333333,
      "d": 208.33333333334303,
      "v": 44
    },
    {
      "midi": 75,
      "hit": false,
      "t": 144374.99999999968,
      "d": 83.33333333331393,
      "v": 43
    },
    {
      "midi": 62,
      "hit": false,
      "t": 144593.74999999965,
      "d": 489.58333333334303,
      "v": 29
    },
    {
      "midi": 67,
      "hit": false,
      "t": 144666.6666666663,
      "d": 802.083333333343,
      "v": 29
    },
    {
      "midi": 43,
      "hit": false,
      "t": 144723.95833333296,
      "d": 494.79166666668607,
      "v": 24
    },
    {
      "midi": 70,
      "hit": false,
      "t": 144723.95833333296,
      "d": 1182.291666666686,
      "v": 38
    },
    {
      "midi": 50,
      "hit": false,
      "t": 145031.24999999965,
      "d": 114.58333333334303,
      "v": 41
    },
    {
      "midi": 55,
      "hit": false,
      "t": 145348.958333333,
      "d": 208.33333333331393,
      "v": 44
    },
    {
      "midi": 58,
      "hit": false,
      "t": 145640.62499999965,
      "d": 291.66666666665697,
      "v": 38
    },
    {
      "midi": 62,
      "hit": false,
      "t": 145953.12499999965,
      "d": 291.66666666665697,
      "v": 48
    },
    {
      "midi": 74,
      "hit": false,
      "t": 146229.1666666663,
      "d": 182.29166666665697,
      "v": 72
    },
    {
      "midi": 63,
      "hit": false,
      "t": 146416.6666666663,
      "d": 583.333333333343,
      "v": 43
    },
    {
      "midi": 69,
      "hit": false,
      "t": 146489.58333333296,
      "d": 322.91666666668607,
      "v": 34
    },
    {
      "midi": 72,
      "hit": false,
      "t": 146520.83333333296,
      "d": 385.41666666668607,
      "v": 73
    },
    {
      "midi": 48,
      "hit": false,
      "t": 146536.45833333296,
      "d": 661.458333333343,
      "v": 32
    },
    {
      "midi": 74,
      "hit": false,
      "t": 146838.5416666663,
      "d": 109.375,
      "v": 79
    },
    {
      "midi": 62,
      "hit": false,
      "t": 147041.6666666663,
      "d": 406.25,
      "v": 38
    },
    {
      "midi": 67,
      "hit": false,
      "t": 147119.7916666663,
      "d": 375,
      "v": 38
    },
    {
      "midi": 72,
      "hit": false,
      "t": 147182.2916666663,
      "d": 281.25,
      "v": 63
    },
    {
      "midi": 50,
      "hit": false,
      "t": 147187.49999999965,
      "d": 2734.3749999999127,
      "v": 40
    },
    {
      "midi": 70,
      "hit": false,
      "t": 147505.20833333296,
      "d": 52.083333333343035,
      "v": 55
    },
    {
      "midi": 69,
      "hit": false,
      "t": 147833.33333333296,
      "d": 369.79166666665697,
      "v": 42
    },
    {
      "midi": 58,
      "hit": false,
      "t": 147869.7916666663,
      "d": 265.625,
      "v": 22
    },
    {
      "midi": 62,
      "hit": false,
      "t": 147906.24999999965,
      "d": 270.83333333331393,
      "v": 45
    },
    {
      "midi": 67,
      "hit": false,
      "t": 148187.49999999962,
      "d": 447.91666666665697,
      "v": 44
    },
    {
      "midi": 70,
      "hit": false,
      "t": 148572.91666666628,
      "d": 1312.4999999999418,
      "v": 38
    },
    {
      "midi": 64,
      "hit": false,
      "t": 148624.99999999962,
      "d": 822.9166666666279,
      "v": 19
    },
    {
      "midi": 61,
      "hit": false,
      "t": 148677.08333333294,
      "d": 604.166666666657,
      "v": 32
    },
    {
      "midi": 63,
      "hit": false,
      "t": 149458.3333333329,
      "d": 656.25,
      "v": 15
    },
    {
      "midi": 66,
      "hit": false,
      "t": 149468.74999999956,
      "d": 609.375,
      "v": 14
    },
    {
      "midi": 60,
      "hit": false,
      "t": 149494.79166666622,
      "d": 1239.5833333333721,
      "v": 20
    },
    {
      "midi": 69,
      "hit": false,
      "t": 149947.91666666622,
      "d": 531.2500000000291,
      "v": 20
    },
    {
      "midi": 67,
      "hit": false,
      "t": 150411.4583333329,
      "d": 1609.375000000029,
      "v": 23
    },
    {
      "midi": 62,
      "hit": false,
      "t": 150416.66666666625,
      "d": 1302.083333333343,
      "v": 10
    },
    {
      "midi": 55,
      "hit": false,
      "t": 150442.7083333329,
      "d": 291.66666666668607,
      "v": 19
    },
    {
      "midi": 58,
      "hit": false,
      "t": 150786.45833333294,
      "d": 322.91666666665697,
      "v": 15
    },
    {
      "midi": 55,
      "hit": false,
      "t": 151135.41666666625,
      "d": 291.66666666665697,
      "v": 21
    },
    {
      "midi": 50,
      "hit": false,
      "t": 151447.91666666625,
      "d": 354.16666666668607,
      "v": 26
    },
    {
      "midi": 43,
      "hit": false,
      "t": 151916.66666666628,
      "d": 822.916666666657,
      "v": 21
    },
    {
      "midi": 67,
      "hit": false,
      "t": 152593.7499999996,
      "d": 473.95833333334303,
      "v": 23
    },
    {
      "midi": 69,
      "hit": false,
      "t": 152984.3749999996,
      "d": 390.625,
      "v": 38
    },
    {
      "midi": 70,
      "hit": false,
      "t": 153302.08333333294,
      "d": 354.16666666665697,
      "v": 55
    },
    {
      "midi": 72,
      "hit": false,
      "t": 153609.3749999996,
      "d": 390.6250000000291,
      "v": 63
    },
    {
      "midi": 51,
      "hit": false,
      "t": 153677.08333333294,
      "d": 369.79166666668607,
      "v": 23
    },
    {
      "midi": 74,
      "hit": false,
      "t": 153916.66666666628,
      "d": 354.16666666668607,
      "v": 80
    },
    {
      "midi": 75,
      "hit": false,
      "t": 154203.12499999962,
      "d": 369.79166666668607,
      "v": 81
    },
    {
      "midi": 65,
      "hit": false,
      "t": 154234.37499999962,
      "d": 1744.7916666667152,
      "v": 29
    },
    {
      "midi": 77,
      "hit": false,
      "t": 154494.7916666663,
      "d": 354.16666666665697,
      "v": 87
    },
    {
      "midi": 53,
      "hit": false,
      "t": 154770.83333333296,
      "d": 1229.1666666667152,
      "v": 39
    },
    {
      "midi": 79,
      "hit": false,
      "t": 154781.24999999962,
      "d": 385.41666666668607,
      "v": 79
    },
    {
      "midi": 57,
      "hit": false,
      "t": 154781.24999999962,
      "d": 1197.9166666667152,
      "v": 20
    },
    {
      "midi": 60,
      "hit": false,
      "t": 154781.24999999962,
      "d": 1208.3333333333721,
      "v": 24
    },
    {
      "midi": 81,
      "hit": false,
      "t": 155109.37499999962,
      "d": 380.20833333337214,
      "v": 71
    },
    {
      "midi": 82,
      "hit": false,
      "t": 155458.333333333,
      "d": 416.66666666668607,
      "v": 52
    },
    {
      "midi": 84,
      "hit": false,
      "t": 155854.16666666634,
      "d": 604.1666666666861,
      "v": 59
    },
    {
      "midi": 50,
      "hit": false,
      "t": 156343.74999999968,
      "d": 979.1666666666861,
      "v": 35
    },
    {
      "midi": 77,
      "hit": false,
      "t": 156343.74999999968,
      "d": 1354.166666666686,
      "v": 44
    },
    {
      "midi": 53,
      "hit": false,
      "t": 156708.33333333302,
      "d": 359.375,
      "v": 70
    },
    {
      "midi": 58,
      "hit": false,
      "t": 157020.83333333302,
      "d": 395.83333333334303,
      "v": 46
    },
    {
      "midi": 62,
      "hit": false,
      "t": 157317.70833333302,
      "d": 395.83333333334303,
      "v": 58
    },
    {
      "midi": 65,
      "hit": false,
      "t": 157718.7499999997,
      "d": 1000.0000000000291,
      "v": 61
    },
    {
      "midi": 77,
      "hit": false,
      "t": 158124.9999999997,
      "d": 437.5000000000291,
      "v": 68
    },
    {
      "midi": 58,
      "hit": false,
      "t": 158473.95833333305,
      "d": 307.29166666668607,
      "v": 31
    },
    {
      "midi": 79,
      "hit": false,
      "t": 158473.95833333305,
      "d": 401.0416666667152,
      "v": 84
    },
    {
      "midi": 62,
      "hit": false,
      "t": 158520.83333333305,
      "d": 197.91666666668607,
      "v": 31
    },
    {
      "midi": 53,
      "hit": false,
      "t": 158526.0416666664,
      "d": 265.6250000000291,
      "v": 44
    },
    {
      "midi": 82,
      "hit": false,
      "t": 158786.45833333308,
      "d": 484.375,
      "v": 69
    },
    {
      "midi": 48,
      "hit": false,
      "t": 159166.66666666642,
      "d": 510.41666666665697,
      "v": 22
    },
    {
      "midi": 75,
      "hit": false,
      "t": 159166.66666666642,
      "d": 1375,
      "v": 50
    },
    {
      "midi": 53,
      "hit": false,
      "t": 159484.37499999974,
      "d": 354.16666666668607,
      "v": 71
    },
    {
      "midi": 57,
      "hit": false,
      "t": 159822.91666666642,
      "d": 276.04166666665697,
      "v": 57
    },
    {
      "midi": 63,
      "hit": false,
      "t": 160104.16666666642,
      "d": 302.08333333334303,
      "v": 72
    },
    {
      "midi": 65,
      "hit": false,
      "t": 160494.79166666642,
      "d": 458.33333333334303,
      "v": 55
    },
    {
      "midi": 75,
      "hit": false,
      "t": 160874.99999999977,
      "d": 572.916666666657,
      "v": 55
    },
    {
      "midi": 63,
      "hit": false,
      "t": 161260.41666666642,
      "d": 187.5,
      "v": 27
    },
    {
      "midi": 77,
      "hit": false,
      "t": 161260.41666666642,
      "d": 489.58333333334303,
      "v": 55
    },
    {
      "midi": 57,
      "hit": false,
      "t": 161328.12499999977,
      "d": 156.25,
      "v": 5
    },
    {
      "midi": 81,
      "hit": false,
      "t": 161604.16666666642,
      "d": 541.6666666666861,
      "v": 46
    },
    {
      "midi": 46,
      "hit": false,
      "t": 161999.99999999977,
      "d": 520.8333333333721,
      "v": 20
    },
    {
      "midi": 74,
      "hit": false,
      "t": 162036.4583333331,
      "d": 1343.750000000029,
      "v": 46
    },
    {
      "midi": 53,
      "hit": false,
      "t": 162453.1249999998,
      "d": 104.16666666668607,
      "v": 6
    },
    {
      "midi": 58,
      "hit": false,
      "t": 162749.99999999983,
      "d": 182.29166666665697,
      "v": 11
    },
    {
      "midi": 62,
      "hit": false,
      "t": 163098.95833333314,
      "d": 125,
      "v": 16
    },
    {
      "midi": 65,
      "hit": false,
      "t": 163531.2499999998,
      "d": 333.33333333334303,
      "v": 19
    },
    {
      "midi": 67,
      "hit": false,
      "t": 164031.2499999998,
      "d": 489.58333333331393,
      "v": 27
    },
    {
      "midi": 69,
      "hit": false,
      "t": 164416.66666666645,
      "d": 354.16666666668607,
      "v": 34
    },
    {
      "midi": 62,
      "hit": false,
      "t": 164427.0833333331,
      "d": 213.54166666668607,
      "v": 16
    },
    {
      "midi": 58,
      "hit": false,
      "t": 164437.49999999977,
      "d": 312.5000000000291,
      "v": 8
    },
    {
      "midi": 53,
      "hit": false,
      "t": 164458.3333333331,
      "d": 161.45833333334303,
      "v": 29
    },
    {
      "midi": 70,
      "hit": false,
      "t": 164723.95833333314,
      "d": 354.16666666665697,
      "v": 49
    },
    {
      "midi": 72,
      "hit": false,
      "t": 165036.45833333314,
      "d": 380.20833333331393,
      "v": 55
    },
    {
      "midi": 51,
      "hit": false,
      "t": 165078.1249999998,
      "d": 406.25,
      "v": 23
    },
    {
      "midi": 74,
      "hit": false,
      "t": 165343.7499999998,
      "d": 343.75,
      "v": 79
    },
    {
      "midi": 75,
      "hit": false,
      "t": 165635.41666666645,
      "d": 343.7500000000291,
      "v": 80
    },
    {
      "midi": 65,
      "hit": false,
      "t": 165682.29166666645,
      "d": 1265.625,
      "v": 32
    },
    {
      "midi": 77,
      "hit": false,
      "t": 165911.45833333314,
      "d": 359.3749999999709,
      "v": 89
    },
    {
      "midi": 79,
      "hit": false,
      "t": 166208.33333333314,
      "d": 354.16666666662786,
      "v": 91
    },
    {
      "midi": 60,
      "hit": false,
      "t": 166208.33333333314,
      "d": 781.2499999999709,
      "v": 28
    },
    {
      "midi": 57,
      "hit": false,
      "t": 166218.7499999998,
      "d": 760.416666666657,
      "v": 19
    },
    {
      "midi": 53,
      "hit": false,
      "t": 166229.16666666645,
      "d": 802.0833333333139,
      "v": 34
    },
    {
      "midi": 81,
      "hit": false,
      "t": 166489.5833333331,
      "d": 359.375,
      "v": 88
    },
    {
      "midi": 82,
      "hit": false,
      "t": 166786.4583333331,
      "d": 432.29166666665697,
      "v": 73
    },
    {
      "midi": 84,
      "hit": false,
      "t": 167145.8333333331,
      "d": 458.33333333331393,
      "v": 76
    },
    {
      "midi": 50,
      "hit": false,
      "t": 167453.12499999977,
      "d": 671.8749999999709,
      "v": 28
    },
    {
      "midi": 74,
      "hit": false,
      "t": 167510.41666666642,
      "d": 1145.833333333314,
      "v": 66
    },
    {
      "midi": 54,
      "hit": false,
      "t": 167802.08333333308,
      "d": 307.29166666665697,
      "v": 49
    },
    {
      "midi": 57,
      "hit": false,
      "t": 168093.74999999974,
      "d": 255.20833333334303,
      "v": 48
    },
    {
      "midi": 62,
      "hit": false,
      "t": 168374.99999999974,
      "d": 265.625,
      "v": 53
    },
    {
      "midi": 66,
      "hit": false,
      "t": 168656.24999999974,
      "d": 307.29166666665697,
      "v": 41
    },
    {
      "midi": 74,
      "hit": false,
      "t": 168947.9166666664,
      "d": 380.20833333334303,
      "v": 78
    },
    {
      "midi": 76,
      "hit": false,
      "t": 169234.37499999974,
      "d": 406.2499999999709,
      "v": 73
    },
    {
      "midi": 57,
      "hit": false,
      "t": 169281.24999999974,
      "d": 104.16666666665697,
      "v": 20
    },
    {
      "midi": 62,
      "hit": false,
      "t": 169291.6666666664,
      "d": 93.75,
      "v": 22
    },
    {
      "midi": 78,
      "hit": false,
      "t": 169505.20833333305,
      "d": 390.6249999999709,
      "v": 76
    },
    {
      "midi": 50,
      "hit": false,
      "t": 169802.08333333302,
      "d": 515.625,
      "v": 34
    },
    {
      "midi": 79,
      "hit": false,
      "t": 169807.29166666637,
      "d": 1437.5,
      "v": 84
    },
    {
      "midi": 55,
      "hit": false,
      "t": 170088.54166666637,
      "d": 307.29166666665697,
      "v": 46
    },
    {
      "midi": 58,
      "hit": false,
      "t": 170322.91666666637,
      "d": 260.41666666665697,
      "v": 42
    },
    {
      "midi": 62,
      "hit": false,
      "t": 170598.95833333302,
      "d": 307.29166666665697,
      "v": 47
    },
    {
      "midi": 67,
      "hit": false,
      "t": 170927.08333333302,
      "d": 614.583333333343,
      "v": 58
    },
    {
      "midi": 74,
      "hit": false,
      "t": 171249.9999999997,
      "d": 385.41666666665697,
      "v": 70
    },
    {
      "midi": 72,
      "hit": false,
      "t": 171552.08333333302,
      "d": 385.41666666668607,
      "v": 68
    },
    {
      "midi": 62,
      "hit": false,
      "t": 171562.49999999968,
      "d": 296.8750000000291,
      "v": 31
    },
    {
      "midi": 55,
      "hit": false,
      "t": 171598.95833333302,
      "d": 88.54166666668607,
      "v": 19
    },
    {
      "midi": 70,
      "hit": false,
      "t": 171822.91666666637,
      "d": 343.7500000000291,
      "v": 64
    },
    {
      "midi": 50,
      "hit": false,
      "t": 172098.95833333305,
      "d": 843.75,
      "v": 31
    },
    {
      "midi": 78,
      "hit": false,
      "t": 172114.58333333305,
      "d": 1708.333333333314,
      "v": 54
    },
    {
      "midi": 54,
      "hit": false,
      "t": 172385.4166666664,
      "d": 515.625,
      "v": 45
    },
    {
      "midi": 57,
      "hit": false,
      "t": 172697.9166666664,
      "d": 291.66666666665697,
      "v": 44
    },
    {
      "midi": 62,
      "hit": false,
      "t": 172989.58333333305,
      "d": 348.95833333331393,
      "v": 40
    },
    {
      "midi": 66,
      "hit": false,
      "t": 173312.4999999997,
      "d": 359.375,
      "v": 29
    },
    {
      "midi": 72,
      "hit": false,
      "t": 173604.16666666637,
      "d": 411.45833333334303,
      "v": 54
    },
    {
      "midi": 62,
      "hit": false,
      "t": 173880.20833333302,
      "d": 291.66666666668607,
      "v": 18
    },
    {
      "midi": 60,
      "hit": false,
      "t": 173890.62499999968,
      "d": 125.0000000000291,
      "v": 10
    },
    {
      "midi": 57,
      "hit": false,
      "t": 173895.83333333302,
      "d": 140.6250000000291,
      "v": 10
    },
    {
      "midi": 70,
      "hit": false,
      "t": 173916.66666666637,
      "d": 322.91666666668607,
      "v": 49
    },
    {
      "midi": 69,
      "hit": false,
      "t": 174192.70833333305,
      "d": 286.45833333334303,
      "v": 57
    },
    {
      "midi": 50,
      "hit": false,
      "t": 174411.45833333305,
      "d": 2250.000000000029,
      "v": 30
    },
    {
      "midi": 79,
      "hit": false,
      "t": 174479.1666666664,
      "d": 270.83333333334303,
      "v": 63
    },
    {
      "midi": 55,
      "hit": false,
      "t": 174744.7916666664,
      "d": 1276.041666666657,
      "v": 31
    },
    {
      "midi": 74,
      "hit": false,
      "t": 174749.99999999974,
      "d": 88.54166666665697,
      "v": 50
    },
    {
      "midi": 75,
      "hit": false,
      "t": 174859.37499999974,
      "d": 145.83333333331393,
      "v": 50
    },
    {
      "midi": 74,
      "hit": false,
      "t": 174947.9166666664,
      "d": 135.41666666668607,
      "v": 63
    },
    {
      "midi": 58,
      "hit": false,
      "t": 175072.9166666664,
      "d": 984.375,
      "v": 27
    },
    {
      "midi": 73,
      "hit": false,
      "t": 175078.12499999974,
      "d": 328.1250000000291,
      "v": 58
    },
    {
      "midi": 74,
      "hit": false,
      "t": 175369.79166666642,
      "d": 369.79166666665697,
      "v": 66
    },
    {
      "midi": 62,
      "hit": false,
      "t": 175421.87499999977,
      "d": 572.9166666666279,
      "v": 23
    },
    {
      "midi": 75,
      "hit": false,
      "t": 175729.16666666642,
      "d": 442.70833333331393,
      "v": 44
    },
    {
      "midi": 67,
      "hit": false,
      "t": 175765.62499999974,
      "d": 630.208333333343,
      "v": 16
    },
    {
      "midi": 74,
      "hit": false,
      "t": 176109.37499999974,
      "d": 359.375,
      "v": 46
    },
    {
      "midi": 70,
      "hit": false,
      "t": 176427.08333333308,
      "d": 390.625,
      "v": 36
    },
    {
      "midi": 62,
      "hit": false,
      "t": 176505.20833333308,
      "d": 171.875,
      "v": 6
    },
    {
      "midi": 55,
      "hit": false,
      "t": 176505.20833333308,
      "d": 302.08333333334303,
      "v": 10
    },
    {
      "midi": 58,
      "hit": false,
      "t": 176505.20833333308,
      "d": 317.70833333334303,
      "v": 10
    },
    {
      "midi": 67,
      "hit": false,
      "t": 176723.95833333308,
      "d": 526.041666666657,
      "v": 36
    },
    {
      "midi": 50,
      "hit": false,
      "t": 176927.08333333308,
      "d": 437.5,
      "v": 21
    },
    {
      "midi": 57,
      "hit": false,
      "t": 177124.99999999974,
      "d": 291.66666666668607,
      "v": 15
    },
    {
      "midi": 74,
      "hit": false,
      "t": 177145.83333333308,
      "d": 697.9166666666861,
      "v": 49
    },
    {
      "midi": 67,
      "hit": false,
      "t": 177578.12499999977,
      "d": 500,
      "v": 33
    },
    {
      "midi": 66,
      "hit": false,
      "t": 178046.87499999977,
      "d": 468.75,
      "v": 39
    },
    {
      "midi": 74,
      "hit": false,
      "t": 178062.49999999977,
      "d": 1192.7083333333721,
      "v": 33
    },
    {
      "midi": 63,
      "hit": false,
      "t": 178494.79166666642,
      "d": 375.0000000000291,
      "v": 49
    },
    {
      "midi": 62,
      "hit": false,
      "t": 178885.41666666645,
      "d": 203.125,
      "v": 51
    },
    {
      "midi": 62,
      "hit": false,
      "t": 179244.79166666645,
      "d": 411.45833333334303,
      "v": 55
    },
    {
      "midi": 60,
      "hit": false,
      "t": 179249.9999999998,
      "d": 380.20833333334303,
      "v": 29
    },
    {
      "midi": 64,
      "hit": false,
      "t": 179635.41666666648,
      "d": 380.2083333332848,
      "v": 64
    },
    {
      "midi": 58,
      "hit": false,
      "t": 179645.83333333314,
      "d": 213.54166666665697,
      "v": 25
    },
    {
      "midi": 66,
      "hit": false,
      "t": 179963.54166666645,
      "d": 442.70833333331393,
      "v": 62
    },
    {
      "midi": 57,
      "hit": false,
      "t": 180005.2083333331,
      "d": 182.29166666665697,
      "v": 35
    },
    {
      "midi": 67,
      "hit": false,
      "t": 180291.66666666642,
      "d": 401.04166666668607,
      "v": 71
    },
    {
      "midi": 43,
      "hit": false,
      "t": 180338.54166666642,
      "d": 234.375,
      "v": 30
    },
    {
      "midi": 69,
      "hit": false,
      "t": 180593.74999999977,
      "d": 359.375,
      "v": 63
    },
    {
      "midi": 70,
      "hit": false,
      "t": 180880.2083333331,
      "d": 348.95833333331393,
      "v": 72
    },
    {
      "midi": 50,
      "hit": false,
      "t": 180895.8333333331,
      "d": 994.7916666666279,
      "v": 37
    },
    {
      "midi": 72,
      "hit": false,
      "t": 181182.29166666642,
      "d": 375,
      "v": 81
    },
    {
      "midi": 74,
      "hit": false,
      "t": 181494.79166666642,
      "d": 369.79166666665697,
      "v": 75
    },
    {
      "midi": 62,
      "hit": false,
      "t": 181499.99999999977,
      "d": 296.8749999999709,
      "v": 35
    },
    {
      "midi": 55,
      "hit": false,
      "t": 181499.99999999977,
      "d": 437.4999999999709,
      "v": 29
    },
    {
      "midi": 58,
      "hit": false,
      "t": 181510.41666666642,
      "d": 119.79166666665697,
      "v": 20
    },
    {
      "midi": 79,
      "hit": false,
      "t": 181848.95833333308,
      "d": 432.29166666665697,
      "v": 57
    },
    {
      "midi": 58,
      "hit": false,
      "t": 181859.37499999974,
      "d": 375,
      "v": 55
    },
    {
      "midi": 78,
      "hit": false,
      "t": 182234.37499999974,
      "d": 427.08333333331393,
      "v": 56
    },
    {
      "midi": 57,
      "hit": false,
      "t": 182239.58333333308,
      "d": 385.41666666662786,
      "v": 65
    },
    {
      "midi": 55,
      "hit": false,
      "t": 182557.2916666664,
      "d": 145.83333333331393,
      "v": 75
    },
    {
      "midi": 79,
      "hit": false,
      "t": 182583.33333333305,
      "d": 395.83333333331393,
      "v": 55
    },
    {
      "midi": 46,
      "hit": false,
      "t": 182781.2499999997,
      "d": 499.9999999999709,
      "v": 35
    },
    {
      "midi": 50,
      "hit": false,
      "t": 182822.91666666637,
      "d": 463.54166666665697,
      "v": 34
    },
    {
      "midi": 54,
      "hit": false,
      "t": 182890.6249999997,
      "d": 348.95833333331393,
      "v": 67
    },
    {
      "midi": 74,
      "hit": false,
      "t": 182927.08333333302,
      "d": 1614.5833333333721,
      "v": 55
    },
    {
      "midi": 55,
      "hit": false,
      "t": 183255.20833333302,
      "d": 364.58333333334303,
      "v": 69
    },
    {
      "midi": 58,
      "hit": false,
      "t": 183572.91666666637,
      "d": 421.8750000000291,
      "v": 44
    },
    {
      "midi": 60,
      "hit": false,
      "t": 183906.2499999997,
      "d": 453.1250000000291,
      "v": 42
    },
    {
      "midi": 62,
      "hit": false,
      "t": 184364.58333333308,
      "d": 484.3749999999709,
      "v": 36
    },
    {
      "midi": 74,
      "hit": false,
      "t": 184776.0416666664,
      "d": 270.83333333331393,
      "v": 50
    },
    {
      "midi": 63,
      "hit": false,
      "t": 185005.20833333305,
      "d": 614.5833333332848,
      "v": 29
    },
    {
      "midi": 67,
      "hit": false,
      "t": 185124.9999999997,
      "d": 328.1249999999709,
      "v": 25
    },
    {
      "midi": 48,
      "hit": false,
      "t": 185156.2499999997,
      "d": 489.5833333332848,
      "v": 14
    },
    {
      "midi": 69,
      "hit": false,
      "t": 185182.29166666637,
      "d": 359.3749999999709,
      "v": 43
    },
    {
      "midi": 72,
      "hit": false,
      "t": 185484.37499999968,
      "d": 354.16666666665697,
      "v": 42
    },
    {
      "midi": 62,
      "hit": false,
      "t": 185739.583333333,
      "d": 307.29166666668607,
      "v": 11
    },
    {
      "midi": 50,
      "hit": false,
      "t": 185770.833333333,
      "d": 213.54166666668607,
      "v": 31
    },
    {
      "midi": 67,
      "hit": false,
      "t": 185770.833333333,
      "d": 1322.916666666657,
      "v": 26
    },
    {
      "midi": 70,
      "hit": false,
      "t": 185817.708333333,
      "d": 1697.9166666666279,
      "v": 37
    },
    {
      "midi": 63,
      "hit": false,
      "t": 186093.74999999968,
      "d": 322.91666666665697,
      "v": 64
    },
    {
      "midi": 61,
      "hit": false,
      "t": 186442.708333333,
      "d": 390.625,
      "v": 52
    },
    {
      "midi": 58,
      "hit": false,
      "t": 186447.91666666634,
      "d": 343.75,
      "v": 22
    },
    {
      "midi": 55,
      "hit": false,
      "t": 186463.54166666634,
      "d": 354.16666666665697,
      "v": 11
    },
    {
      "midi": 63,
      "hit": false,
      "t": 186770.833333333,
      "d": 364.58333333331393,
      "v": 40
    },
    {
      "midi": 62,
      "hit": false,
      "t": 187255.20833333296,
      "d": 338.54166666665697,
      "v": 35
    },
    {
      "midi": 58,
      "hit": false,
      "t": 187265.62499999962,
      "d": 343.75,
      "v": 5
    },
    {
      "midi": 55,
      "hit": false,
      "t": 187276.04166666628,
      "d": 270.83333333334303,
      "v": 11
    },
    {
      "midi": 70,
      "hit": false,
      "t": 187682.29166666628,
      "d": 348.95833333334303,
      "v": 36
    },
    {
      "midi": 66,
      "hit": false,
      "t": 188031.24999999962,
      "d": 374.9999999999709,
      "v": 31
    },
    {
      "midi": 60,
      "hit": false,
      "t": 188052.08333333296,
      "d": 458.3333333332848,
      "v": 33
    },
    {
      "midi": 50,
      "hit": false,
      "t": 188062.49999999962,
      "d": 567.7083333332848,
      "v": 28
    },
    {
      "midi": 69,
      "hit": false,
      "t": 188380.20833333294,
      "d": 546.8749999999709,
      "v": 36
    },
    {
      "midi": 58,
      "hit": false,
      "t": 188729.16666666625,
      "d": 2130.208333333314,
      "v": 22
    },
    {
      "midi": 67,
      "hit": false,
      "t": 188755.2083333329,
      "d": 1729.166666666657,
      "v": 27
    },
    {
      "midi": 43,
      "hit": false,
      "t": 188760.41666666625,
      "d": 2645.833333333285,
      "v": 22
    },
    {
      "midi": 51,
      "hit": false,
      "t": 189046.87499999956,
      "d": 375,
      "v": 33
    },
    {
      "midi": 49,
      "hit": false,
      "t": 189406.24999999956,
      "d": 333.33333333331393,
      "v": 23
    },
    {
      "midi": 51,
      "hit": false,
      "t": 189739.58333333288,
      "d": 458.33333333334303,
      "v": 28
    },
    {
      "midi": 50,
      "hit": false,
      "t": 190213.54166666622,
      "d": 1526.041666666657,
      "v": 30
    },
    {
      "midi": 62,
      "hit": false,
      "t": 190697.91666666622,
      "d": 427.08333333334303,
      "v": 47
    },
    {
      "midi": 64,
      "hit": false,
      "t": 191072.91666666622,
      "d": 369.79166666665697,
      "v": 58
    },
    {
      "midi": 60,
      "hit": false,
      "t": 191078.12499999956,
      "d": 374.9999999999709,
      "v": 30
    },
    {
      "midi": 66,
      "hit": false,
      "t": 191380.20833333288,
      "d": 328.125,
      "v": 56
    },
    {
      "midi": 67,
      "hit": false,
      "t": 191697.9166666662,
      "d": 161.45833333334303,
      "v": 56
    },
    {
      "midi": 58,
      "hit": false,
      "t": 191703.12499999953,
      "d": 93.75,
      "v": 36
    },
    {
      "midi": 43,
      "hit": false,
      "t": 191729.16666666622,
      "d": 161.45833333331393,
      "v": 36
    },
    {
      "midi": 69,
      "hit": false,
      "t": 191999.99999999953,
      "d": 333.33333333331393,
      "v": 58
    },
    {
      "midi": 70,
      "hit": false,
      "t": 192291.6666666662,
      "d": 291.66666666665697,
      "v": 67
    },
    {
      "midi": 50,
      "hit": false,
      "t": 192322.9166666662,
      "d": 677.083333333343,
      "v": 33
    },
    {
      "midi": 72,
      "hit": false,
      "t": 192583.33333333285,
      "d": 369.79166666668607,
      "v": 69
    },
    {
      "midi": 58,
      "hit": false,
      "t": 192864.58333333285,
      "d": 234.375,
      "v": 19
    },
    {
      "midi": 55,
      "hit": false,
      "t": 192869.7916666662,
      "d": 213.54166666665697,
      "v": 22
    },
    {
      "midi": 62,
      "hit": false,
      "t": 192874.99999999953,
      "d": 166.66666666665697,
      "v": 36
    },
    {
      "midi": 74,
      "hit": false,
      "t": 192916.6666666662,
      "d": 255.20833333331393,
      "v": 65
    },
    {
      "midi": 79,
      "hit": false,
      "t": 193270.83333333285,
      "d": 62.5,
      "v": 55
    },
    {
      "midi": 58,
      "hit": false,
      "t": 193276.0416666662,
      "d": 218.75,
      "v": 62
    },
    {
      "midi": 65,
      "hit": false,
      "t": 193479.1666666662,
      "d": 364.58333333334303,
      "v": 15
    },
    {
      "midi": 45,
      "hit": false,
      "t": 193552.08333333285,
      "d": 192.70833333337214,
      "v": 44
    },
    {
      "midi": 72,
      "hit": false,
      "t": 193552.08333333285,
      "d": 406.25,
      "v": 24
    },
    {
      "midi": 75,
      "hit": false,
      "t": 193567.70833333285,
      "d": 463.54166666668607,
      "v": 33
    },
    {
      "midi": 57,
      "hit": false,
      "t": 193666.6666666662,
      "d": 328.125,
      "v": 63
    },
    {
      "midi": 77,
      "hit": false,
      "t": 193677.08333333288,
      "d": 192.70833333331393,
      "v": 59
    },
    {
      "midi": 79,
      "hit": false,
      "t": 193979.1666666662,
      "d": 62.5,
      "v": 73
    },
    {
      "midi": 55,
      "hit": false,
      "t": 194010.4166666662,
      "d": 140.625,
      "v": 62
    },
    {
      "midi": 65,
      "hit": false,
      "t": 194171.87499999953,
      "d": 401.04166666665697,
      "v": 31
    },
    {
      "midi": 70,
      "hit": false,
      "t": 194239.58333333288,
      "d": 213.54166666665697,
      "v": 47
    },
    {
      "midi": 46,
      "hit": false,
      "t": 194291.66666666622,
      "d": 395.8333333332848,
      "v": 33
    },
    {
      "midi": 74,
      "hit": false,
      "t": 194354.16666666622,
      "d": 307.29166666662786,
      "v": 73
    },
    {
      "midi": 53,
      "hit": false,
      "t": 194395.83333333288,
      "d": 380.2083333332848,
      "v": 86
    },
    {
      "midi": 55,
      "hit": false,
      "t": 194760.41666666616,
      "d": 239.58333333334303,
      "v": 72
    },
    {
      "midi": 58,
      "hit": false,
      "t": 195052.08333333285,
      "d": 234.375,
      "v": 55
    },
    {
      "midi": 62,
      "hit": false,
      "t": 195348.95833333285,
      "d": 338.54166666665697,
      "v": 75
    },
    {
      "midi": 65,
      "hit": false,
      "t": 195718.7499999995,
      "d": 166.66666666665697,
      "v": 69
    },
    {
      "midi": 77,
      "hit": false,
      "t": 195989.58333333282,
      "d": 52.083333333343035,
      "v": 75
    },
    {
      "midi": 63,
      "hit": false,
      "t": 196140.6249999995,
      "d": 427.08333333334303,
      "v": 52
    },
    {
      "midi": 70,
      "hit": false,
      "t": 196208.33333333285,
      "d": 489.58333333334303,
      "v": 46
    },
    {
      "midi": 74,
      "hit": false,
      "t": 196281.2499999995,
      "d": 312.5,
      "v": 57
    },
    {
      "midi": 43,
      "hit": false,
      "t": 196343.7499999995,
      "d": 546.8750000000291,
      "v": 42
    },
    {
      "midi": 75,
      "hit": false,
      "t": 196380.20833333285,
      "d": 234.375,
      "v": 79
    },
    {
      "midi": 77,
      "hit": false,
      "t": 196713.5416666662,
      "d": 41.666666666656965,
      "v": 63
    },
    {
      "midi": 63,
      "hit": false,
      "t": 196854.1666666662,
      "d": 645.833333333343,
      "v": 61
    },
    {
      "midi": 69,
      "hit": false,
      "t": 196947.9166666662,
      "d": 864.583333333343,
      "v": 41
    },
    {
      "midi": 45,
      "hit": false,
      "t": 196979.1666666662,
      "d": 364.58333333334303,
      "v": 39
    },
    {
      "midi": 72,
      "hit": false,
      "t": 197026.0416666662,
      "d": 1244.791666666657,
      "v": 73
    },
    {
      "midi": 55,
      "hit": false,
      "t": 197328.12499999953,
      "d": 307.29166666665697,
      "v": 63
    },
    {
      "midi": 57,
      "hit": false,
      "t": 197640.62499999953,
      "d": 348.95833333331393,
      "v": 67
    },
    {
      "midi": 60,
      "hit": false,
      "t": 197932.2916666662,
      "d": 437.5,
      "v": 75
    },
    {
      "midi": 63,
      "hit": false,
      "t": 198354.1666666662,
      "d": 359.375,
      "v": 69
    },
    {
      "midi": 75,
      "hit": false,
      "t": 198671.87499999953,
      "d": 140.625,
      "v": 66
    },
    {
      "midi": 62,
      "hit": false,
      "t": 198833.33333333288,
      "d": 463.54166666665697,
      "v": 41
    },
    {
      "midi": 69,
      "hit": false,
      "t": 198906.24999999953,
      "d": 536.458333333343,
      "v": 31
    },
    {
      "midi": 72,
      "hit": false,
      "t": 198989.58333333288,
      "d": 562.5,
      "v": 49
    },
    {
      "midi": 42,
      "hit": false,
      "t": 199031.24999999953,
      "d": 359.375,
      "v": 34
    },
    {
      "midi": 74,
      "hit": false,
      "t": 199046.87499999953,
      "d": 255.20833333334303,
      "v": 64
    },
    {
      "midi": 75,
      "hit": false,
      "t": 199442.70833333288,
      "d": 130.20833333334303,
      "v": 55
    },
    {
      "midi": 62,
      "hit": false,
      "t": 199624.99999999956,
      "d": 656.2499999999709,
      "v": 35
    },
    {
      "midi": 67,
      "hit": false,
      "t": 199713.54166666622,
      "d": 916.666666666657,
      "v": 28
    },
    {
      "midi": 43,
      "hit": false,
      "t": 199723.95833333288,
      "d": 557.291666666657,
      "v": 30
    },
    {
      "midi": 70,
      "hit": false,
      "t": 199760.41666666622,
      "d": 1375,
      "v": 48
    },
    {
      "midi": 50,
      "hit": false,
      "t": 200036.45833333288,
      "d": 276.04166666665697,
      "v": 48
    },
    {
      "midi": 55,
      "hit": false,
      "t": 200348.95833333288,
      "d": 276.04166666665697,
      "v": 60
    },
    {
      "midi": 58,
      "hit": false,
      "t": 200635.41666666622,
      "d": 411.45833333334303,
      "v": 56
    },
    {
      "midi": 62,
      "hit": false,
      "t": 201010.41666666622,
      "d": 395.83333333334303,
      "v": 67
    },
    {
      "midi": 74,
      "hit": false,
      "t": 201296.87499999956,
      "d": 286.45833333334303,
      "v": 61
    },
    {
      "midi": 63,
      "hit": false,
      "t": 201421.87499999956,
      "d": 635.4166666666861,
      "v": 49
    },
    {
      "midi": 69,
      "hit": false,
      "t": 201536.4583333329,
      "d": 380.20833333334303,
      "v": 42
    },
    {
      "midi": 72,
      "hit": false,
      "t": 201604.16666666625,
      "d": 390.625,
      "v": 68
    },
    {
      "midi": 48,
      "hit": false,
      "t": 201614.5833333329,
      "d": 677.083333333343,
      "v": 25
    },
    {
      "midi": 74,
      "hit": false,
      "t": 201911.4583333329,
      "d": 114.58333333334303,
      "v": 80
    },
    {
      "midi": 62,
      "hit": false,
      "t": 202098.9583333329,
      "d": 494.79166666665697,
      "v": 39
    },
    {
      "midi": 67,
      "hit": false,
      "t": 202197.91666666625,
      "d": 395.83333333331393,
      "v": 36
    },
    {
      "midi": 72,
      "hit": false,
      "t": 202249.9999999996,
      "d": 354.16666666662786,
      "v": 66
    },
    {
      "midi": 50,
      "hit": false,
      "t": 202265.6249999996,
      "d": 2906.2499999999127,
      "v": 41
    },
    {
      "midi": 70,
      "hit": false,
      "t": 202562.49999999956,
      "d": 83.33333333331393,
      "v": 74
    },
    {
      "midi": 58,
      "hit": false,
      "t": 202927.08333333288,
      "d": 359.375,
      "v": 33
    },
    {
      "midi": 69,
      "hit": false,
      "t": 202927.08333333288,
      "d": 401.04166666665697,
      "v": 46
    },
    {
      "midi": 62,
      "hit": false,
      "t": 202958.33333333288,
      "d": 286.45833333334303,
      "v": 59
    },
    {
      "midi": 67,
      "hit": false,
      "t": 203270.83333333288,
      "d": 494.79166666662786,
      "v": 55
    },
    {
      "midi": 70,
      "hit": false,
      "t": 203666.6666666662,
      "d": 1213.541666666657,
      "v": 47
    },
    {
      "midi": 64,
      "hit": false,
      "t": 203708.33333333285,
      "d": 869.791666666657,
      "v": 29
    },
    {
      "midi": 61,
      "hit": false,
      "t": 203739.58333333285,
      "d": 604.166666666657,
      "v": 38
    },
    {
      "midi": 66,
      "hit": false,
      "t": 204489.58333333285,
      "d": 562.5,
      "v": 19
    },
    {
      "midi": 63,
      "hit": false,
      "t": 204489.58333333285,
      "d": 796.8749999999709,
      "v": 24
    },
    {
      "midi": 60,
      "hit": false,
      "t": 204499.9999999995,
      "d": 1072.916666666657,
      "v": 26
    },
    {
      "midi": 69,
      "hit": false,
      "t": 204937.4999999995,
      "d": 453.125,
      "v": 27
    },
    {
      "midi": 55,
      "hit": false,
      "t": 205312.49999999948,
      "d": 276.04166666668607,
      "v": 11
    },
    {
      "midi": 67,
      "hit": false,
      "t": 205317.70833333282,
      "d": 1109.375000000029,
      "v": 26
    },
    {
      "midi": 62,
      "hit": false,
      "t": 205322.91666666616,
      "d": 984.375,
      "v": 17
    },
    {
      "midi": 58,
      "hit": false,
      "t": 205645.83333333282,
      "d": 281.25,
      "v": 13
    },
    {
      "midi": 55,
      "hit": false,
      "t": 205989.58333333282,
      "d": 239.58333333334303,
      "v": 22
    },
    {
      "midi": 50,
      "hit": false,
      "t": 206343.7499999995,
      "d": 93.75,
      "v": 17
    },
    {
      "midi": 43,
      "hit": false,
      "t": 206807.29166666616,
      "d": 921.875,
      "v": 25
    },
    {
      "midi": 82,
      "hit": false,
      "t": 207307.29166666616,
      "d": 651.0416666666861,
      "v": 37
    },
    {
      "midi": 91,
      "hit": false,
      "t": 207692.70833333282,
      "d": 98.95833333334303,
      "v": 20
    },
    {
      "midi": 50,
      "hit": false,
      "t": 207692.70833333282,
      "d": 848.9583333334012,
      "v": 23
    },
    {
      "midi": 86,
      "hit": false,
      "t": 207713.54166666616,
      "d": 98.95833333334303,
      "v": 31
    },
    {
      "midi": 81,
      "hit": false,
      "t": 208031.2499999995,
      "d": 473.95833333337214,
      "v": 49
    },
    {
      "midi": 87,
      "hit": false,
      "t": 208354.1666666662,
      "d": 250.0000000000291,
      "v": 34
    },
    {
      "midi": 90,
      "hit": false,
      "t": 208354.1666666662,
      "d": 281.2500000000291,
      "v": 37
    },
    {
      "midi": 84,
      "hit": false,
      "t": 208369.7916666662,
      "d": 192.70833333337214,
      "v": 38
    },
    {
      "midi": 43,
      "hit": false,
      "t": 208374.99999999953,
      "d": 1895.8333333332848,
      "v": 31
    },
    {
      "midi": 79,
      "hit": false,
      "t": 208661.45833333288,
      "d": 244.79166666665697,
      "v": 59
    },
    {
      "midi": 87,
      "hit": false,
      "t": 208958.33333333288,
      "d": 281.2499999999709,
      "v": 47
    },
    {
      "midi": 81,
      "hit": false,
      "t": 208968.74999999953,
      "d": 234.3749999999709,
      "v": 42
    },
    {
      "midi": 50,
      "hit": false,
      "t": 208979.1666666662,
      "d": 1833.333333333314,
      "v": 34
    },
    {
      "midi": 84,
      "hit": false,
      "t": 208989.58333333285,
      "d": 218.75,
      "v": 43
    },
    {
      "midi": 78,
      "hit": false,
      "t": 209229.1666666662,
      "d": 223.95833333331393,
      "v": 63
    },
    {
      "midi": 86,
      "hit": false,
      "t": 209520.83333333285,
      "d": 83.33333333331393,
      "v": 58
    },
    {
      "midi": 84,
      "hit": false,
      "t": 209546.8749999995,
      "d": 57.291666666656965,
      "v": 49
    },
    {
      "midi": 81,
      "hit": false,
      "t": 209546.8749999995,
      "d": 67.70833333331393,
      "v": 30
    },
    {
      "midi": 75,
      "hit": false,
      "t": 209791.66666666616,
      "d": 192.70833333334303,
      "v": 56
    },
    {
      "midi": 78,
      "hit": false,
      "t": 210088.54166666616,
      "d": 244.79166666665697,
      "v": 53
    },
    {
      "midi": 84,
      "hit": false,
      "t": 210104.16666666616,
      "d": 156.25,
      "v": 69
    },
    {
      "midi": 81,
      "hit": false,
      "t": 210114.58333333282,
      "d": 156.25,
      "v": 48
    },
    {
      "midi": 74,
      "hit": false,
      "t": 210374.99999999948,
      "d": 395.83333333337214,
      "v": 76
    },
    {
      "midi": 82,
      "hit": false,
      "t": 210645.83333333282,
      "d": 307.29166666668607,
      "v": 54
    },
    {
      "midi": 75,
      "hit": false,
      "t": 210666.66666666616,
      "d": 239.58333333334303,
      "v": 38
    },
    {
      "midi": 43,
      "hit": false,
      "t": 210671.8749999995,
      "d": 963.541666666657,
      "v": 35
    },
    {
      "midi": 79,
      "hit": false,
      "t": 210677.08333333285,
      "d": 197.91666666665697,
      "v": 53
    },
    {
      "midi": 72,
      "hit": false,
      "t": 210937.4999999995,
      "d": 401.04166666665697,
      "v": 51
    },
    {
      "midi": 81,
      "hit": false,
      "t": 211223.95833333282,
      "d": 151.04166666668607,
      "v": 40
    },
    {
      "midi": 78,
      "hit": false,
      "t": 211229.16666666616,
      "d": 281.25,
      "v": 43
    },
    {
      "midi": 50,
      "hit": false,
      "t": 211229.16666666616,
      "d": 458.33333333331393,
      "v": 37
    },
    {
      "midi": 70,
      "hit": false,
      "t": 211494.79166666616,
      "d": 166.66666666665697,
      "v": 40
    },
    {
      "midi": 79,
      "hit": false,
      "t": 211791.66666666613,
      "d": 125,
      "v": 49
    },
    {
      "midi": 74,
      "hit": false,
      "t": 211796.87499999948,
      "d": 72.91666666665697,
      "v": 43
    },
    {
      "midi": 70,
      "hit": false,
      "t": 212057.29166666613,
      "d": 244.79166666665697,
      "v": 53
    },
    {
      "midi": 69,
      "hit": false,
      "t": 212348.9583333328,
      "d": 281.2500000000291,
      "v": 46
    },
    {
      "midi": 74,
      "hit": false,
      "t": 212348.9583333328,
      "d": 609.3750000000291,
      "v": 56
    },
    {
      "midi": 72,
      "hit": false,
      "t": 212364.5833333328,
      "d": 546.8750000000291,
      "v": 36
    },
    {
      "midi": 62,
      "hit": false,
      "t": 212380.2083333328,
      "d": 562.5000000000291,
      "v": 27
    },
    {
      "midi": 55,
      "hit": false,
      "t": 212416.66666666613,
      "d": 546.8750000000291,
      "v": 15
    },
    {
      "midi": 67,
      "hit": false,
      "t": 212624.99999999948,
      "d": 281.25,
      "v": 65
    },
    {
      "midi": 66,
      "hit": false,
      "t": 212906.24999999948,
      "d": 385.41666666668607,
      "v": 60
    },
    {
      "midi": 67,
      "hit": false,
      "t": 213192.70833333282,
      "d": 343.7500000000291,
      "v": 65
    },
    {
      "midi": 38,
      "hit": false,
      "t": 213359.3749999995,
      "d": 234.375,
      "v": 31
    },
    {
      "midi": 68,
      "hit": false,
      "t": 213484.3749999995,
      "d": 354.16666666668607,
      "v": 47
    },
    {
      "midi": 50,
      "hit": false,
      "t": 213499.9999999995,
      "d": 192.70833333334303,
      "v": 27
    },
    {
      "midi": 60,
      "hit": false,
      "t": 213505.20833333285,
      "d": 447.91666666668607,
      "v": 34
    },
    {
      "midi": 62,
      "hit": false,
      "t": 213505.20833333285,
      "d": 453.1250000000291,
      "v": 29
    },
    {
      "midi": 69,
      "hit": false,
      "t": 213791.6666666662,
      "d": 265.6250000000291,
      "v": 43
    },
    {
      "midi": 54,
      "hit": false,
      "t": 214057.29166666622,
      "d": 614.5833333333721,
      "v": 55
    },
    {
      "midi": 58,
      "hit": false,
      "t": 214312.49999999956,
      "d": 286.45833333334303,
      "v": 61
    },
    {
      "midi": 57,
      "hit": false,
      "t": 214604.16666666625,
      "d": 291.66666666665697,
      "v": 57
    },
    {
      "midi": 62,
      "hit": false,
      "t": 214609.3749999996,
      "d": 645.8333333333139,
      "v": 47
    },
    {
      "midi": 60,
      "hit": false,
      "t": 214619.79166666625,
      "d": 1161.458333333343,
      "v": 34
    },
    {
      "midi": 55,
      "hit": false,
      "t": 214885.41666666625,
      "d": 270.83333333331393,
      "v": 56
    },
    {
      "midi": 54,
      "hit": false,
      "t": 215171.87499999956,
      "d": 317.70833333334303,
      "v": 58
    },
    {
      "midi": 52,
      "hit": false,
      "t": 215489.5833333329,
      "d": 286.45833333334303,
      "v": 52
    },
    {
      "midi": 58,
      "hit": false,
      "t": 215770.8333333329,
      "d": 312.5000000000291,
      "v": 26
    },
    {
      "midi": 62,
      "hit": false,
      "t": 215770.8333333329,
      "d": 328.1250000000291,
      "v": 46
    },
    {
      "midi": 54,
      "hit": false,
      "t": 215781.2499999996,
      "d": 250,
      "v": 42
    },
    {
      "midi": 55,
      "hit": false,
      "t": 216067.70833333294,
      "d": 416.66666666665697,
      "v": 46
    },
    {
      "midi": 50,
      "hit": false,
      "t": 216458.33333333294,
      "d": 760.4166666666861,
      "v": 41
    },
    {
      "midi": 43,
      "hit": false,
      "t": 216468.7499999996,
      "d": 781.2500000000291,
      "v": 25
    },
    {
      "midi": 70,
      "hit": false,
      "t": 216770.83333333294,
      "d": 541.6666666666861,
      "v": 42
    },
    {
      "midi": 79,
      "hit": false,
      "t": 217135.41666666628,
      "d": 197.91666666668607,
      "v": 59
    },
    {
      "midi": 74,
      "hit": false,
      "t": 217156.24999999962,
      "d": 83.33333333334303,
      "v": 27
    },
    {
      "midi": 69,
      "hit": false,
      "t": 217437.49999999962,
      "d": 364.58333333331393,
      "v": 42
    },
    {
      "midi": 74,
      "hit": false,
      "t": 217718.74999999962,
      "d": 67.70833333331393,
      "v": 26
    },
    {
      "midi": 72,
      "hit": false,
      "t": 217718.74999999962,
      "d": 83.33333333331393,
      "v": 20
    },
    {
      "midi": 78,
      "hit": false,
      "t": 217718.74999999962,
      "d": 229.16666666665697,
      "v": 54
    },
    {
      "midi": 31,
      "hit": false,
      "t": 217776.04166666628,
      "d": 1859.374999999971,
      "v": 33
    },
    {
      "midi": 67,
      "hit": false,
      "t": 218020.83333333294,
      "d": 281.25,
      "v": 45
    },
    {
      "midi": 75,
      "hit": false,
      "t": 218286.45833333294,
      "d": 296.875,
      "v": 48
    },
    {
      "midi": 69,
      "hit": false,
      "t": 218302.08333333294,
      "d": 234.375,
      "v": 28
    },
    {
      "midi": 72,
      "hit": false,
      "t": 218307.29166666628,
      "d": 104.16666666665697,
      "v": 28
    },
    {
      "midi": 38,
      "hit": false,
      "t": 218333.33333333294,
      "d": 1895.833333333343,
      "v": 28
    },
    {
      "midi": 66,
      "hit": false,
      "t": 218557.29166666628,
      "d": 369.79166666665697,
      "v": 47
    },
    {
      "midi": 69,
      "hit": false,
      "t": 218833.33333333294,
      "d": 109.375,
      "v": 27
    },
    {
      "midi": 72,
      "hit": false,
      "t": 218843.7499999996,
      "d": 88.54166666668607,
      "v": 28
    },
    {
      "midi": 74,
      "hit": false,
      "t": 218843.7499999996,
      "d": 135.41666666668607,
      "v": 60
    },
    {
      "midi": 63,
      "hit": false,
      "t": 219088.54166666628,
      "d": 276.04166666665697,
      "v": 52
    },
    {
      "midi": 66,
      "hit": false,
      "t": 219385.41666666628,
      "d": 296.8749999999709,
      "v": 30
    },
    {
      "midi": 69,
      "hit": false,
      "t": 219395.83333333294,
      "d": 125,
      "v": 23
    },
    {
      "midi": 72,
      "hit": false,
      "t": 219395.83333333294,
      "d": 213.54166666665697,
      "v": 46
    },
    {
      "midi": 62,
      "hit": false,
      "t": 219687.4999999996,
      "d": 348.95833333334303,
      "v": 49
    },
    {
      "midi": 67,
      "hit": false,
      "t": 219994.79166666625,
      "d": 250.0000000000291,
      "v": 30
    },
    {
      "midi": 64,
      "hit": false,
      "t": 219999.9999999996,
      "d": 291.66666666668607,
      "v": 34
    },
    {
      "midi": 70,
      "hit": false,
      "t": 219999.9999999996,
      "d": 354.16666666668607,
      "v": 32
    },
    {
      "midi": 31,
      "hit": false,
      "t": 220005.20833333294,
      "d": 984.375,
      "v": 36
    },
    {
      "midi": 60,
      "hit": false,
      "t": 220343.74999999962,
      "d": 375,
      "v": 41
    },
    {
      "midi": 69,
      "hit": false,
      "t": 220614.58333333296,
      "d": 119.79166666665697,
      "v": 35
    },
    {
      "midi": 66,
      "hit": false,
      "t": 220614.58333333296,
      "d": 166.66666666665697,
      "v": 25
    },
    {
      "midi": 63,
      "hit": false,
      "t": 220624.99999999962,
      "d": 187.5,
      "v": 36
    },
    {
      "midi": 38,
      "hit": false,
      "t": 220645.83333333296,
      "d": 541.666666666657,
      "v": 33
    },
    {
      "midi": 58,
      "hit": false,
      "t": 220885.41666666628,
      "d": 260.41666666665697,
      "v": 32
    },
    {
      "midi": 62,
      "hit": false,
      "t": 221151.04166666628,
      "d": 78.125,
      "v": 38
    },
    {
      "midi": 67,
      "hit": false,
      "t": 221151.04166666628,
      "d": 78.125,
      "v": 38
    },
    {
      "midi": 58,
      "hit": false,
      "t": 221395.83333333294,
      "d": 171.875,
      "v": 43
    },
    {
      "midi": 43,
      "hit": false,
      "t": 221583.33333333294,
      "d": 734.3750000000582,
      "v": 5
    },
    {
      "midi": 62,
      "hit": false,
      "t": 221713.54166666628,
      "d": 713.5416666667152,
      "v": 39
    },
    {
      "midi": 60,
      "hit": false,
      "t": 221718.74999999962,
      "d": 651.0416666667152,
      "v": 30
    },
    {
      "midi": 57,
      "hit": false,
      "t": 221723.95833333296,
      "d": 265.625,
      "v": 31
    },
    {
      "midi": 50,
      "hit": false,
      "t": 221755.20833333296,
      "d": 557.2916666666861,
      "v": 24
    },
    {
      "midi": 55,
      "hit": false,
      "t": 222015.62499999962,
      "d": 291.66666666668607,
      "v": 54
    },
    {
      "midi": 54,
      "hit": false,
      "t": 222317.708333333,
      "d": 255.20833333334303,
      "v": 72
    },
    {
      "midi": 55,
      "hit": false,
      "t": 222604.16666666634,
      "d": 67.70833333334303,
      "v": 65
    },
    {
      "midi": 31,
      "hit": false,
      "t": 222708.33333333302,
      "d": 958.3333333334012,
      "v": 26
    },
    {
      "midi": 56,
      "hit": false,
      "t": 222895.83333333302,
      "d": 348.95833333337214,
      "v": 48
    },
    {
      "midi": 38,
      "hit": false,
      "t": 222901.04166666637,
      "d": 750.0000000000582,
      "v": 36
    },
    {
      "midi": 50,
      "hit": false,
      "t": 222906.2499999997,
      "d": 317.70833333334303,
      "v": 9
    },
    {
      "midi": 48,
      "hit": false,
      "t": 222916.66666666637,
      "d": 296.875,
      "v": 18
    },
    {
      "midi": 57,
      "hit": false,
      "t": 223218.7499999997,
      "d": 546.8750000000582,
      "v": 38
    },
    {
      "midi": 42,
      "hit": false,
      "t": 223541.66666666642,
      "d": 406.2500000000291,
      "v": 42
    },
    {
      "midi": 46,
      "hit": false,
      "t": 223927.0833333331,
      "d": 359.375,
      "v": 38
    },
    {
      "midi": 45,
      "hit": false,
      "t": 224270.8333333331,
      "d": 281.25,
      "v": 43
    },
    {
      "midi": 50,
      "hit": false,
      "t": 224281.24999999977,
      "d": 1734.375,
      "v": 41
    },
    {
      "midi": 48,
      "hit": false,
      "t": 224302.0833333331,
      "d": 1583.333333333314,
      "v": 15
    },
    {
      "midi": 43,
      "hit": false,
      "t": 224552.0833333331,
      "d": 281.25,
      "v": 54
    },
    {
      "midi": 42,
      "hit": false,
      "t": 224833.3333333331,
      "d": 312.5,
      "v": 46
    },
    {
      "midi": 40,
      "hit": false,
      "t": 225135.41666666645,
      "d": 369.79166666665697,
      "v": 56
    },
    {
      "midi": 42,
      "hit": false,
      "t": 225489.5833333331,
      "d": 369.79166666665697,
      "v": 33
    },
    {
      "midi": 43,
      "hit": false,
      "t": 225859.37499999977,
      "d": 526.0416666666861,
      "v": 34
    },
    {
      "midi": 31,
      "hit": false,
      "t": 226380.2083333331,
      "d": 942.708333333343,
      "v": 27
    },
    {
      "midi": 38,
      "hit": false,
      "t": 227041.66666666645,
      "d": 723.9583333333139,
      "v": 23
    },
    {
      "midi": 42,
      "hit": false,
      "t": 227348.9583333331,
      "d": 369.79166666665697,
      "v": 21
    },
    {
      "midi": 50,
      "hit": false,
      "t": 227395.8333333331,
      "d": 250,
      "v": 29
    },
    {
      "midi": 48,
      "hit": false,
      "t": 227395.8333333331,
      "d": 557.291666666657,
      "v": 17
    },
    {
      "midi": 31,
      "hit": false,
      "t": 227729.16666666642,
      "d": 552.0833333333721,
      "v": 30
    },
    {
      "midi": 43,
      "hit": false,
      "t": 228005.2083333331,
      "d": 223.95833333334303,
      "v": 32
    },
    {
      "midi": 50,
      "hit": false,
      "t": 228010.41666666645,
      "d": 218.75,
      "v": 37
    },
    {
      "midi": 46,
      "hit": false,
      "t": 228010.41666666645,
      "d": 369.79166666668607,
      "v": 30
    },
    {
      "midi": 38,
      "hit": false,
      "t": 228286.45833333314,
      "d": 499.9999999999709,
      "v": 27
    },
    {
      "midi": 45,
      "hit": false,
      "t": 228546.8749999998,
      "d": 182.29166666665697,
      "v": 28
    },
    {
      "midi": 54,
      "hit": false,
      "t": 228546.8749999998,
      "d": 276.04166666662786,
      "v": 43
    },
    {
      "midi": 50,
      "hit": false,
      "t": 228572.91666666645,
      "d": 166.66666666665697,
      "v": 18
    },
    {
      "midi": 31,
      "hit": false,
      "t": 228812.49999999977,
      "d": 479.16666666668607,
      "v": 30
    },
    {
      "midi": 46,
      "hit": false,
      "t": 229078.12499999977,
      "d": 192.70833333334303,
      "v": 36
    },
    {
      "midi": 55,
      "hit": false,
      "t": 229083.3333333331,
      "d": 177.08333333334303,
      "v": 46
    },
    {
      "midi": 50,
      "hit": false,
      "t": 229098.9583333331,
      "d": 171.875,
      "v": 37
    },
    {
      "midi": 38,
      "hit": false,
      "t": 229328.1249999998,
      "d": 453.1250000000291,
      "v": 43
    },
    {
      "midi": 57,
      "hit": false,
      "t": 229562.4999999998,
      "d": 192.70833333334303,
      "v": 43
    },
    {
      "midi": 50,
      "hit": false,
      "t": 229572.91666666645,
      "d": 187.5000000000291,
      "v": 55
    },
    {
      "midi": 54,
      "hit": false,
      "t": 229593.7499999998,
      "d": 145.83333333334303,
      "v": 52
    },
    {
      "midi": 31,
      "hit": false,
      "t": 229796.87499999983,
      "d": 395.83333333337214,
      "v": 48
    },
    {
      "midi": 58,
      "hit": false,
      "t": 230041.6666666665,
      "d": 223.95833333337214,
      "v": 43
    },
    {
      "midi": 50,
      "hit": false,
      "t": 230057.2916666665,
      "d": 114.58333333334303,
      "v": 44
    },
    {
      "midi": 55,
      "hit": false,
      "t": 230062.49999999985,
      "d": 166.66666666668607,
      "v": 44
    },
    {
      "midi": 38,
      "hit": false,
      "t": 230291.66666666654,
      "d": 343.7500000000291,
      "v": 43
    },
    {
      "midi": 62,
      "hit": false,
      "t": 230520.83333333323,
      "d": 104.16666666668607,
      "v": 47
    },
    {
      "midi": 54,
      "hit": false,
      "t": 230520.83333333323,
      "d": 135.41666666668607,
      "v": 47
    },
    {
      "midi": 60,
      "hit": false,
      "t": 230536.45833333323,
      "d": 83.33333333334303,
      "v": 28
    },
    {
      "midi": 31,
      "hit": false,
      "t": 230723.95833333326,
      "d": 67.70833333334303,
      "v": 41
    },
    {
      "midi": 67,
      "hit": false,
      "t": 230989.58333333326,
      "d": 104.16666666665697,
      "v": 43
    },
    {
      "midi": 58,
      "hit": false,
      "t": 230989.58333333326,
      "d": 197.91666666665697,
      "v": 28
    },
    {
      "midi": 62,
      "hit": false,
      "t": 230999.9999999999,
      "d": 72.91666666665697,
      "v": 25
    },
    {
      "midi": 50,
      "hit": false,
      "t": 231276.04166666657,
      "d": 645.833333333343,
      "v": 39
    },
    {
      "midi": 54,
      "hit": false,
      "t": 231526.04166666657,
      "d": 270.83333333334303,
      "v": 48
    },
    {
      "midi": 62,
      "hit": false,
      "t": 231541.66666666657,
      "d": 203.125,
      "v": 40
    },
    {
      "midi": 60,
      "hit": false,
      "t": 231557.29166666657,
      "d": 286.45833333334303,
      "v": 39
    },
    {
      "midi": 43,
      "hit": false,
      "t": 231802.08333333326,
      "d": 489.58333333334303,
      "v": 49
    },
    {
      "midi": 62,
      "hit": false,
      "t": 232031.2499999999,
      "d": 161.45833333334303,
      "v": 60
    },
    {
      "midi": 55,
      "hit": false,
      "t": 232031.2499999999,
      "d": 166.66666666668607,
      "v": 60
    },
    {
      "midi": 58,
      "hit": false,
      "t": 232036.45833333326,
      "d": 197.91666666668607,
      "v": 34
    },
    {
      "midi": 50,
      "hit": false,
      "t": 232291.6666666666,
      "d": 432.29166666668607,
      "v": 65
    },
    {
      "midi": 62,
      "hit": false,
      "t": 232499.99999999994,
      "d": 78.125,
      "v": 55
    },
    {
      "midi": 57,
      "hit": false,
      "t": 232499.99999999994,
      "d": 109.375,
      "v": 54
    },
    {
      "midi": 66,
      "hit": false,
      "t": 232499.99999999994,
      "d": 208.33333333334303,
      "v": 53
    },
    {
      "midi": 43,
      "hit": false,
      "t": 232723.95833333328,
      "d": 359.375,
      "v": 54
    },
    {
      "midi": 58,
      "hit": false,
      "t": 232942.70833333328,
      "d": 145.83333333334303,
      "v": 49
    },
    {
      "midi": 67,
      "hit": false,
      "t": 232942.70833333328,
      "d": 156.25,
      "v": 69
    },
    {
      "midi": 62,
      "hit": false,
      "t": 232958.33333333328,
      "d": 78.125,
      "v": 51
    },
    {
      "midi": 50,
      "hit": false,
      "t": 233161.45833333328,
      "d": 453.1250000000291,
      "v": 50
    },
    {
      "midi": 69,
      "hit": false,
      "t": 233374.99999999997,
      "d": 156.25,
      "v": 57
    },
    {
      "midi": 62,
      "hit": false,
      "t": 233385.41666666663,
      "d": 125,
      "v": 52
    },
    {
      "midi": 66,
      "hit": false,
      "t": 233385.41666666663,
      "d": 140.625,
      "v": 43
    },
    {
      "midi": 43,
      "hit": false,
      "t": 233624.99999999997,
      "d": 572.916666666657,
      "v": 45
    },
    {
      "midi": 70,
      "hit": false,
      "t": 233791.66666666663,
      "d": 130.20833333334303,
      "v": 61
    },
    {
      "midi": 67,
      "hit": false,
      "t": 233807.29166666663,
      "d": 62.5,
      "v": 50
    },
    {
      "midi": 62,
      "hit": false,
      "t": 233812.49999999997,
      "d": 72.91666666665697,
      "v": 35
    },
    {
      "midi": 50,
      "hit": false,
      "t": 234015.62499999997,
      "d": 427.08333333331393,
      "v": 56
    },
    {
      "midi": 74,
      "hit": false,
      "t": 234213.54166666663,
      "d": 135.41666666665697,
      "v": 73
    },
    {
      "midi": 66,
      "hit": false,
      "t": 234218.74999999997,
      "d": 124.9999999999709,
      "v": 41
    },
    {
      "midi": 72,
      "hit": false,
      "t": 234229.16666666663,
      "d": 72.91666666665697,
      "v": 46
    },
    {
      "midi": 43,
      "hit": false,
      "t": 234442.70833333328,
      "d": 442.70833333331393,
      "v": 60
    },
    {
      "midi": 70,
      "hit": false,
      "t": 234651.04166666663,
      "d": 161.45833333331393,
      "v": 50
    },
    {
      "midi": 79,
      "hit": false,
      "t": 234661.45833333328,
      "d": 125,
      "v": 78
    },
    {
      "midi": 74,
      "hit": false,
      "t": 234682.29166666663,
      "d": 57.291666666656965,
      "v": 53
    },
    {
      "midi": 50,
      "hit": false,
      "t": 234885.4166666666,
      "d": 395.83333333334303,
      "v": 67
    },
    {
      "midi": 66,
      "hit": false,
      "t": 235083.33333333328,
      "d": 151.04166666665697,
      "v": 59
    },
    {
      "midi": 74,
      "hit": false,
      "t": 235093.74999999994,
      "d": 125,
      "v": 76
    },
    {
      "midi": 72,
      "hit": false,
      "t": 235104.1666666666,
      "d": 62.5,
      "v": 56
    },
    {
      "midi": 43,
      "hit": false,
      "t": 235317.70833333328,
      "d": 343.7500000000291,
      "v": 48
    },
    {
      "midi": 67,
      "hit": false,
      "t": 235468.74999999997,
      "d": 187.5,
      "v": 38
    },
    {
      "midi": 70,
      "hit": false,
      "t": 235499.99999999997,
      "d": 229.16666666668607,
      "v": 41
    },
    {
      "midi": 79,
      "hit": false,
      "t": 235526.04166666663,
      "d": 125,
      "v": 79
    },
    {
      "midi": 74,
      "hit": false,
      "t": 235526.04166666663,
      "d": 151.04166666668607,
      "v": 63
    },
    {
      "midi": 50,
      "hit": false,
      "t": 235750,
      "d": 411.45833333334303,
      "v": 59
    },
    {
      "midi": 66,
      "hit": false,
      "t": 235942.70833333334,
      "d": 218.75,
      "v": 41
    },
    {
      "midi": 72,
      "hit": false,
      "t": 235963.5416666667,
      "d": 98.95833333334303,
      "v": 44
    },
    {
      "midi": 74,
      "hit": false,
      "t": 235963.5416666667,
      "d": 171.875,
      "v": 58
    },
    {
      "midi": 43,
      "hit": false,
      "t": 236203.125,
      "d": 187.5,
      "v": 41
    },
    {
      "midi": 67,
      "hit": false,
      "t": 236343.75,
      "d": 78.125,
      "v": 32
    },
    {
      "midi": 70,
      "hit": false,
      "t": 236395.83333333334,
      "d": 67.70833333334303,
      "v": 34
    },
    {
      "midi": 74,
      "hit": false,
      "t": 236437.5,
      "d": 57.29166666668607,
      "v": 34
    },
    {
      "midi": 79,
      "hit": false,
      "t": 236458.33333333334,
      "d": 57.29166666668607,
      "v": 56
    },
    {
      "midi": 62,
      "hit": false,
      "t": 236703.12500000003,
      "d": 223.95833333337214,
      "v": 49
    },
    {
      "midi": 78,
      "hit": false,
      "t": 236864.58333333337,
      "d": 78.1250000000291,
      "v": 50
    },
    {
      "midi": 86,
      "hit": false,
      "t": 236869.79166666672,
      "d": 140.6250000000291,
      "v": 55
    },
    {
      "midi": 84,
      "hit": false,
      "t": 236875.00000000006,
      "d": 72.91666666668607,
      "v": 48
    },
    {
      "midi": 55,
      "hit": false,
      "t": 237088.54166666674,
      "d": 281.2499999999709,
      "v": 43
    },
    {
      "midi": 79,
      "hit": false,
      "t": 237192.7083333334,
      "d": 265.625,
      "v": 23
    },
    {
      "midi": 82,
      "hit": false,
      "t": 237239.5833333334,
      "d": 281.25,
      "v": 43
    },
    {
      "midi": 86,
      "hit": false,
      "t": 237296.87500000006,
      "d": 140.625,
      "v": 41
    },
    {
      "midi": 91,
      "hit": false,
      "t": 237312.50000000006,
      "d": 62.5,
      "v": 56
    },
    {
      "midi": 62,
      "hit": false,
      "t": 237520.8333333334,
      "d": 791.6666666667152,
      "v": 48
    },
    {
      "midi": 78,
      "hit": false,
      "t": 237708.3333333334,
      "d": 114.58333333334303,
      "v": 42
    },
    {
      "midi": 84,
      "hit": false,
      "t": 237723.9583333334,
      "d": 62.5,
      "v": 47
    },
    {
      "midi": 86,
      "hit": false,
      "t": 237723.9583333334,
      "d": 83.33333333334303,
      "v": 43
    },
    {
      "midi": 55,
      "hit": false,
      "t": 238000.0000000001,
      "d": 286.45833333337214,
      "v": 27
    },
    {
      "midi": 79,
      "hit": false,
      "t": 238083.33333333343,
      "d": 406.2500000000291,
      "v": 30
    },
    {
      "midi": 82,
      "hit": false,
      "t": 238156.25000000012,
      "d": 359.3750000000291,
      "v": 26
    },
    {
      "midi": 86,
      "hit": false,
      "t": 238234.37500000012,
      "d": 291.66666666668607,
      "v": 35
    },
    {
      "midi": 91,
      "hit": false,
      "t": 238348.95833333346,
      "d": 161.45833333334303,
      "v": 37
    },
    {
      "midi": 74,
      "hit": false,
      "t": 238640.62500000015,
      "d": 265.625,
      "v": 44
    },
    {
      "midi": 67,
      "hit": false,
      "t": 238666.6666666668,
      "d": 114.58333333334303,
      "v": 27
    },
    {
      "midi": 79,
      "hit": false,
      "t": 238927.0833333335,
      "d": 208.33333333334303,
      "v": 46
    },
    {
      "midi": 82,
      "hit": false,
      "t": 238963.54166666683,
      "d": 223.95833333334303,
      "v": 36
    },
    {
      "midi": 86,
      "hit": false,
      "t": 239005.2083333335,
      "d": 192.70833333334303,
      "v": 37
    },
    {
      "midi": 91,
      "hit": false,
      "t": 239020.8333333335,
      "d": 166.66666666668607,
      "v": 49
    },
    {
      "midi": 74,
      "hit": false,
      "t": 239260.41666666683,
      "d": 249.9999999999709,
      "v": 50
    },
    {
      "midi": 67,
      "hit": false,
      "t": 239270.8333333335,
      "d": 239.58333333331393,
      "v": 38
    },
    {
      "midi": 79,
      "hit": false,
      "t": 239437.50000000015,
      "d": 166.66666666665697,
      "v": 45
    },
    {
      "midi": 82,
      "hit": false,
      "t": 239484.37500000015,
      "d": 182.29166666665697,
      "v": 43
    },
    {
      "midi": 86,
      "hit": false,
      "t": 239520.83333333346,
      "d": 182.29166666668607,
      "v": 45
    },
    {
      "midi": 91,
      "hit": false,
      "t": 239541.6666666668,
      "d": 161.45833333334303,
      "v": 47
    },
    {
      "midi": 74,
      "hit": false,
      "t": 239755.2083333335,
      "d": 166.66666666668607,
      "v": 58
    },
    {
      "midi": 67,
      "hit": false,
      "t": 239770.8333333335,
      "d": 182.29166666668607,
      "v": 47
    },
    {
      "midi": 79,
      "hit": false,
      "t": 239885.41666666683,
      "d": 135.41666666668607,
      "v": 48
    },
    {
      "midi": 82,
      "hit": false,
      "t": 239916.66666666683,
      "d": 166.66666666668607,
      "v": 46
    },
    {
      "midi": 86,
      "hit": false,
      "t": 239953.12500000017,
      "d": 171.875,
      "v": 47
    },
    {
      "midi": 91,
      "hit": false,
      "t": 239973.95833333352,
      "d": 140.625,
      "v": 49
    },
    {
      "midi": 74,
      "hit": false,
      "t": 240177.08333333352,
      "d": 93.75,
      "v": 55
    },
    {
      "midi": 67,
      "hit": false,
      "t": 240187.50000000017,
      "d": 119.79166666668607,
      "v": 38
    },
    {
      "midi": 79,
      "hit": false,
      "t": 240317.70833333352,
      "d": 119.79166666665697,
      "v": 38
    },
    {
      "midi": 82,
      "hit": false,
      "t": 240354.16666666686,
      "d": 177.08333333331393,
      "v": 28
    },
    {
      "midi": 86,
      "hit": false,
      "t": 240401.04166666686,
      "d": 166.66666666665697,
      "v": 43
    },
    {
      "midi": 91,
      "hit": false,
      "t": 240427.08333333352,
      "d": 151.04166666665697,
      "v": 50
    },
    {
      "midi": 74,
      "hit": false,
      "t": 240619.79166666683,
      "d": 78.125,
      "v": 48
    },
    {
      "midi": 67,
      "hit": false,
      "t": 240640.62500000017,
      "d": 109.375,
      "v": 27
    },
    {
      "midi": 79,
      "hit": false,
      "t": 240760.41666666683,
      "d": 78.125,
      "v": 41
    },
    {
      "midi": 82,
      "hit": false,
      "t": 240807.29166666683,
      "d": 135.41666666665697,
      "v": 33
    },
    {
      "midi": 86,
      "hit": false,
      "t": 240848.9583333335,
      "d": 135.41666666665697,
      "v": 33
    },
    {
      "midi": 91,
      "hit": false,
      "t": 240880.2083333335,
      "d": 119.79166666665697,
      "v": 43
    },
    {
      "midi": 74,
      "hit": false,
      "t": 241098.9583333335,
      "d": 161.45833333334303,
      "v": 27
    },
    {
      "midi": 67,
      "hit": false,
      "t": 241135.41666666683,
      "d": 135.41666666665697,
      "v": 17
    },
    {
      "midi": 79,
      "hit": false,
      "t": 241239.5833333335,
      "d": 83.33333333334303,
      "v": 26
    },
    {
      "midi": 82,
      "hit": false,
      "t": 241307.29166666683,
      "d": 119.79166666665697,
      "v": 22
    },
    {
      "midi": 86,
      "hit": false,
      "t": 241354.16666666683,
      "d": 187.5,
      "v": 30
    },
    {
      "midi": 91,
      "hit": false,
      "t": 241442.7083333335,
      "d": 151.04166666668607,
      "v": 32
    },
    {
      "midi": 74,
      "hit": false,
      "t": 241671.87500000017,
      "d": 156.25,
      "v": 20
    },
    {
      "midi": 67,
      "hit": false,
      "t": 241671.87500000017,
      "d": 218.75,
      "v": 18
    },
    {
      "midi": 79,
      "hit": false,
      "t": 241812.50000000017,
      "d": 98.95833333334303,
      "v": 28
    },
    {
      "midi": 82,
      "hit": false,
      "t": 241895.83333333352,
      "d": 135.41666666665697,
      "v": 20
    },
    {
      "midi": 86,
      "hit": false,
      "t": 242036.45833333352,
      "d": 192.70833333334303,
      "v": 5
    },
    {
      "midi": 91,
      "hit": false,
      "t": 242098.95833333352,
      "d": 177.08333333334303,
      "v": 22
    },
    {
      "midi": 74,
      "hit": false,
      "t": 242390.6250000002,
      "d": 3338.541666666715,
      "v": 17
    },
    {
      "midi": 67,
      "hit": false,
      "t": 242442.70833333355,
      "d": 3541.666666666715,
      "v": 6
    },
    {
      "midi": 79,
      "hit": false,
      "t": 242765.6250000002,
      "d": 1755.2083333333721,
      "v": 16
    },
    {
      "midi": 82,
      "hit": false,
      "t": 242911.45833333355,
      "d": 1666.6666666667152,
      "v": 19
    },
    {
      "midi": 86,
      "hit": false,
      "t": 243104.1666666669,
      "d": 1437.500000000029,
      "v": 25
    },
    {
      "midi": 91,
      "hit": false,
      "t": 243510.4166666669,
      "d": 958.333333333343,
      "v": 27
    }
  ]
}