{
  "jsonPath": "Jazz/Vocal Jazz/Lou Rawls/see-you-when-i-git-there.json",
  "path": "Jazz\\Vocal Jazz\\Lou Rawls\\See You When I Git There.mid",
  "name": "See You When I Git There",
  "difficulty": "Advanced",
  "bpm": 124.000248000496,
  "notes": [
    {
      "midi": 43,
      "hit": false,
      "t": 2895.1555,
      "d": 85.68531249999978,
      "v": 100
    },
    {
      "midi": 59,
      "hit": false,
      "t": 2900.1958124999996,
      "d": 113.91106249999984,
      "v": 91
    },
    {
      "midi": 55,
      "hit": false,
      "t": 2900.1958124999996,
      "d": 118.95137499999964,
      "v": 101
    },
    {
      "midi": 53,
      "hit": false,
      "t": 2900.1958124999996,
      "d": 146.16906249999965,
      "v": 91
    },
    {
      "midi": 62,
      "hit": false,
      "t": 2900.1958124999996,
      "d": 146.16906249999965,
      "v": 103
    },
    {
      "midi": 43,
      "hit": false,
      "t": 3245.9612499999994,
      "d": 141.12874999999985,
      "v": 100
    },
    {
      "midi": 63,
      "hit": false,
      "t": 3245.9612499999994,
      "d": 178.42706249999992,
      "v": 104
    },
    {
      "midi": 55,
      "hit": false,
      "t": 3247.9773749999995,
      "d": 131.0481249999998,
      "v": 91
    },
    {
      "midi": 59,
      "hit": false,
      "t": 3247.9773749999995,
      "d": 151.2093749999999,
      "v": 91
    },
    {
      "midi": 53,
      "hit": false,
      "t": 3253.0176874999993,
      "d": 131.0481249999998,
      "v": 82
    },
    {
      "midi": 55,
      "hit": false,
      "t": 3578.6218749999994,
      "d": 143.1448750000004,
      "v": 100
    },
    {
      "midi": 59,
      "hit": false,
      "t": 3578.6218749999994,
      "d": 173.38675000000057,
      "v": 99
    },
    {
      "midi": 65,
      "hit": false,
      "t": 3580.6379999999995,
      "d": 161.29000000000042,
      "v": 109
    },
    {
      "midi": 43,
      "hit": false,
      "t": 3583.6621874999996,
      "d": 146.1690625000001,
      "v": 99
    },
    {
      "midi": 53,
      "hit": false,
      "t": 3583.6621874999996,
      "d": 173.38675000000012,
      "v": 91
    },
    {
      "midi": 60,
      "hit": false,
      "t": 3865.9196875,
      "d": 1587.6984375000002,
      "v": 91
    },
    {
      "midi": 56,
      "hit": false,
      "t": 3865.9196875,
      "d": 1633.0612499999997,
      "v": 91
    },
    {
      "midi": 55,
      "hit": false,
      "t": 3865.9196875,
      "d": 1640.1176875,
      "v": 100
    },
    {
      "midi": 63,
      "hit": false,
      "t": 3865.9196875,
      "d": 1650.1983124999997,
      "v": 105
    },
    {
      "midi": 44,
      "hit": false,
      "t": 3865.9196875,
      "d": 1670.3595624999998,
      "v": 99
    },
    {
      "midi": 63,
      "hit": false,
      "t": 5559.4646875,
      "d": 248.99143749999985,
      "v": 100
    },
    {
      "midi": 44,
      "hit": false,
      "t": 5559.4646875,
      "d": 932.4578124999998,
      "v": 83
    },
    {
      "midi": 55,
      "hit": false,
      "t": 5559.4646875,
      "d": 1134.0703125,
      "v": 83
    },
    {
      "midi": 56,
      "hit": false,
      "t": 5559.4646875,
      "d": 1134.0703125,
      "v": 91
    },
    {
      "midi": 60,
      "hit": false,
      "t": 5559.4646875,
      "d": 1134.0703125,
      "v": 82
    },
    {
      "midi": 65,
      "hit": false,
      "t": 5811.4803125,
      "d": 922.3771875000002,
      "v": 100
    },
    {
      "midi": 44,
      "hit": false,
      "t": 6527.2046875,
      "d": 546.3698750000003,
      "v": 86
    },
    {
      "midi": 63,
      "hit": false,
      "t": 6764.099375,
      "d": 889.1111250000013,
      "v": 95
    },
    {
      "midi": 55,
      "hit": false,
      "t": 6764.099375,
      "d": 892.1353125000014,
      "v": 77
    },
    {
      "midi": 60,
      "hit": false,
      "t": 6766.1155,
      "d": 890.1191875000013,
      "v": 79
    },
    {
      "midi": 56,
      "hit": false,
      "t": 6769.1396875,
      "d": 897.1756250000008,
      "v": 73
    },
    {
      "midi": 44,
      "hit": false,
      "t": 7134.0583125,
      "d": 456.65231250000033,
      "v": 76
    },
    {
      "midi": 58,
      "hit": false,
      "t": 7733.855500000001,
      "d": 1424.3923124999992,
      "v": 89
    },
    {
      "midi": 54,
      "hit": false,
      "t": 7733.855500000001,
      "d": 1454.634187499999,
      "v": 89
    },
    {
      "midi": 62,
      "hit": false,
      "t": 7736.879687500001,
      "d": 1164.3121874999997,
      "v": 101
    },
    {
      "midi": 50,
      "hit": false,
      "t": 7736.879687500001,
      "d": 1567.5371874999983,
      "v": 73
    },
    {
      "midi": 38,
      "hit": false,
      "t": 7738.895812500001,
      "d": 1757.052937499997,
      "v": 86
    },
    {
      "midi": 62,
      "hit": false,
      "t": 8941.514375,
      "d": 1660.2789374999957,
      "v": 78
    },
    {
      "midi": 58,
      "hit": false,
      "t": 9185.4655,
      "d": 1396.1665624999969,
      "v": 64
    },
    {
      "midi": 50,
      "hit": false,
      "t": 9422.360187499999,
      "d": 226.81406249999964,
      "v": 69
    },
    {
      "midi": 38,
      "hit": false,
      "t": 9672.359687499998,
      "d": 902.2159374999992,
      "v": 69
    },
    {
      "midi": 50,
      "hit": false,
      "t": 9674.375812499999,
      "d": 255.03981249999924,
      "v": 91
    },
    {
      "midi": 50,
      "hit": false,
      "t": 10035.262187499999,
      "d": 216.73343749999913,
      "v": 82
    },
    {
      "midi": 50,
      "hit": false,
      "t": 10388.084062499998,
      "d": 236.89468749999833,
      "v": 91
    },
    {
      "midi": 43,
      "hit": false,
      "t": 10637.075499999997,
      "d": 85.68531249999978,
      "v": 100
    },
    {
      "midi": 59,
      "hit": false,
      "t": 10642.115812499997,
      "d": 113.91106250000121,
      "v": 91
    },
    {
      "midi": 55,
      "hit": false,
      "t": 10642.115812499997,
      "d": 118.95137500000055,
      "v": 101
    },
    {
      "midi": 53,
      "hit": false,
      "t": 10642.115812499997,
      "d": 146.16906250000102,
      "v": 91
    },
    {
      "midi": 62,
      "hit": false,
      "t": 10642.115812499997,
      "d": 146.16906250000102,
      "v": 103
    },
    {
      "midi": 43,
      "hit": false,
      "t": 10987.881249999997,
      "d": 141.12874999999804,
      "v": 100
    },
    {
      "midi": 63,
      "hit": false,
      "t": 10987.881249999997,
      "d": 178.427062499999,
      "v": 104
    },
    {
      "midi": 55,
      "hit": false,
      "t": 10989.897374999997,
      "d": 131.04812499999935,
      "v": 91
    },
    {
      "midi": 59,
      "hit": false,
      "t": 10989.897374999997,
      "d": 151.20937499999854,
      "v": 91
    },
    {
      "midi": 53,
      "hit": false,
      "t": 10994.937687499996,
      "d": 131.04812499999935,
      "v": 82
    },
    {
      "midi": 55,
      "hit": false,
      "t": 11320.541874999995,
      "d": 143.14487499999996,
      "v": 100
    },
    {
      "midi": 59,
      "hit": false,
      "t": 11320.541874999995,
      "d": 173.38675000000148,
      "v": 99
    },
    {
      "midi": 65,
      "hit": false,
      "t": 11322.557999999995,
      "d": 161.29000000000087,
      "v": 109
    },
    {
      "midi": 43,
      "hit": false,
      "t": 11325.582187499995,
      "d": 146.16906250000102,
      "v": 99
    },
    {
      "midi": 53,
      "hit": false,
      "t": 11325.582187499995,
      "d": 173.38675000000148,
      "v": 91
    },
    {
      "midi": 60,
      "hit": false,
      "t": 11607.839687499996,
      "d": 1587.6984374999993,
      "v": 91
    },
    {
      "midi": 56,
      "hit": false,
      "t": 11607.839687499996,
      "d": 1633.0612499999988,
      "v": 91
    },
    {
      "midi": 55,
      "hit": false,
      "t": 11607.839687499996,
      "d": 1640.1176874999983,
      "v": 100
    },
    {
      "midi": 63,
      "hit": false,
      "t": 11607.839687499996,
      "d": 1650.1983124999988,
      "v": 105
    },
    {
      "midi": 44,
      "hit": false,
      "t": 11607.839687499996,
      "d": 1670.359562499998,
      "v": 99
    },
    {
      "midi": 63,
      "hit": false,
      "t": 13301.384687499994,
      "d": 248.99143750000076,
      "v": 100
    },
    {
      "midi": 44,
      "hit": false,
      "t": 13301.384687499994,
      "d": 932.4578125000007,
      "v": 83
    },
    {
      "midi": 55,
      "hit": false,
      "t": 13301.384687499994,
      "d": 1134.0703125000018,
      "v": 83
    },
    {
      "midi": 56,
      "hit": false,
      "t": 13301.384687499994,
      "d": 1134.0703125000018,
      "v": 91
    },
    {
      "midi": 60,
      "hit": false,
      "t": 13301.384687499994,
      "d": 1134.0703125000018,
      "v": 82
    },
    {
      "midi": 65,
      "hit": false,
      "t": 13553.400312499994,
      "d": 922.377187500002,
      "v": 100
    },
    {
      "midi": 44,
      "hit": false,
      "t": 14269.124687499996,
      "d": 546.3698750000003,
      "v": 86
    },
    {
      "midi": 55,
      "hit": false,
      "t": 14506.019374999996,
      "d": 690.5228124999994,
      "v": 77
    },
    {
      "midi": 63,
      "hit": false,
      "t": 14506.019374999996,
      "d": 889.1111249999994,
      "v": 95
    },
    {
      "midi": 60,
      "hit": false,
      "t": 14508.035499999996,
      "d": 890.1191874999986,
      "v": 69
    },
    {
      "midi": 56,
      "hit": false,
      "t": 14511.059687499996,
      "d": 897.1756249999999,
      "v": 69
    },
    {
      "midi": 44,
      "hit": false,
      "t": 14875.978312499996,
      "d": 456.65231250000033,
      "v": 76
    },
    {
      "midi": 55,
      "hit": false,
      "t": 15236.864687499996,
      "d": 257.05593749999935,
      "v": 93
    },
    {
      "midi": 58,
      "hit": false,
      "t": 15475.775499999996,
      "d": 1424.3923125000001,
      "v": 89
    },
    {
      "midi": 54,
      "hit": false,
      "t": 15475.775499999996,
      "d": 1454.6341874999998,
      "v": 93
    },
    {
      "midi": 62,
      "hit": false,
      "t": 15478.799687499995,
      "d": 1164.3121874999997,
      "v": 104
    },
    {
      "midi": 50,
      "hit": false,
      "t": 15478.799687499995,
      "d": 1567.537187500002,
      "v": 73
    },
    {
      "midi": 38,
      "hit": false,
      "t": 15480.815812499995,
      "d": 1757.0529375000024,
      "v": 86
    },
    {
      "midi": 62,
      "hit": false,
      "t": 16685.450499999995,
      "d": 1661.2869999999966,
      "v": 81
    },
    {
      "midi": 58,
      "hit": false,
      "t": 16927.385499999997,
      "d": 1396.166562499995,
      "v": 64
    },
    {
      "midi": 50,
      "hit": false,
      "t": 17164.280187499997,
      "d": 226.81406250000146,
      "v": 69
    },
    {
      "midi": 38,
      "hit": false,
      "t": 17414.2796875,
      "d": 902.2159374999937,
      "v": 69
    },
    {
      "midi": 50,
      "hit": false,
      "t": 17416.295812499997,
      "d": 255.03981249999924,
      "v": 91
    },
    {
      "midi": 50,
      "hit": false,
      "t": 17777.182187499995,
      "d": 216.73343749999913,
      "v": 82
    },
    {
      "midi": 50,
      "hit": false,
      "t": 18130.004062499993,
      "d": 236.89468750000015,
      "v": 91
    },
    {
      "midi": 43,
      "hit": false,
      "t": 18378.995499999994,
      "d": 85.6853125000016,
      "v": 100
    },
    {
      "midi": 59,
      "hit": false,
      "t": 18384.035812499995,
      "d": 113.91106249999939,
      "v": 91
    },
    {
      "midi": 55,
      "hit": false,
      "t": 18384.035812499995,
      "d": 118.95137500000055,
      "v": 101
    },
    {
      "midi": 53,
      "hit": false,
      "t": 18384.035812499995,
      "d": 146.16906250000102,
      "v": 91
    },
    {
      "midi": 62,
      "hit": false,
      "t": 18384.035812499995,
      "d": 146.16906250000102,
      "v": 103
    },
    {
      "midi": 43,
      "hit": false,
      "t": 18729.801249999997,
      "d": 141.12874999999985,
      "v": 100
    },
    {
      "midi": 63,
      "hit": false,
      "t": 18729.801249999997,
      "d": 178.427062499999,
      "v": 104
    },
    {
      "midi": 55,
      "hit": false,
      "t": 18731.817374999995,
      "d": 131.04812500000116,
      "v": 91
    },
    {
      "midi": 59,
      "hit": false,
      "t": 18731.817374999995,
      "d": 151.20937500000218,
      "v": 91
    },
    {
      "midi": 53,
      "hit": false,
      "t": 18736.857687499996,
      "d": 131.04812500000116,
      "v": 82
    },
    {
      "midi": 55,
      "hit": false,
      "t": 19062.461874999997,
      "d": 143.14487499999814,
      "v": 100
    },
    {
      "midi": 59,
      "hit": false,
      "t": 19062.461874999997,
      "d": 173.38674999999785,
      "v": 99
    },
    {
      "midi": 65,
      "hit": false,
      "t": 19064.477999999996,
      "d": 161.29000000000087,
      "v": 109
    },
    {
      "midi": 43,
      "hit": false,
      "t": 19067.502187499995,
      "d": 146.16906250000102,
      "v": 99
    },
    {
      "midi": 53,
      "hit": false,
      "t": 19067.502187499995,
      "d": 173.38675000000148,
      "v": 91
    },
    {
      "midi": 60,
      "hit": false,
      "t": 19349.759687499994,
      "d": 1587.6984374999993,
      "v": 91
    },
    {
      "midi": 56,
      "hit": false,
      "t": 19349.759687499994,
      "d": 1633.0612499999988,
      "v": 91
    },
    {
      "midi": 55,
      "hit": false,
      "t": 19349.759687499994,
      "d": 1640.1176874999983,
      "v": 100
    },
    {
      "midi": 63,
      "hit": false,
      "t": 19349.759687499994,
      "d": 1650.198312499997,
      "v": 105
    },
    {
      "midi": 44,
      "hit": false,
      "t": 19349.759687499994,
      "d": 1670.359562499998,
      "v": 99
    },
    {
      "midi": 63,
      "hit": false,
      "t": 21043.304687499993,
      "d": 248.99143750000076,
      "v": 100
    },
    {
      "midi": 44,
      "hit": false,
      "t": 21043.304687499993,
      "d": 932.4578125000007,
      "v": 83
    },
    {
      "midi": 56,
      "hit": false,
      "t": 21043.304687499993,
      "d": 1436.4890625000007,
      "v": 91
    },
    {
      "midi": 55,
      "hit": false,
      "t": 21043.304687499993,
      "d": 1461.6906249999993,
      "v": 83
    },
    {
      "midi": 60,
      "hit": false,
      "t": 21043.304687499993,
      "d": 1461.6906249999993,
      "v": 82
    },
    {
      "midi": 65,
      "hit": false,
      "t": 21295.320312499993,
      "d": 1199.5943750000006,
      "v": 100
    },
    {
      "midi": 44,
      "hit": false,
      "t": 22011.044687499994,
      "d": 1184.4734374999898,
      "v": 86
    },
    {
      "midi": 63,
      "hit": false,
      "t": 22552.374249999993,
      "d": 307.4590624999946,
      "v": 100
    },
    {
      "midi": 55,
      "hit": false,
      "t": 22555.398437499993,
      "d": 289.3139374999955,
      "v": 82
    },
    {
      "midi": 56,
      "hit": false,
      "t": 22557.41456249999,
      "d": 255.03981249999924,
      "v": 76
    },
    {
      "midi": 60,
      "hit": false,
      "t": 22557.41456249999,
      "d": 280.2413749999978,
      "v": 82
    },
    {
      "midi": 56,
      "hit": false,
      "t": 22905.196124999988,
      "d": 302.41874999999345,
      "v": 82
    },
    {
      "midi": 60,
      "hit": false,
      "t": 22905.196124999988,
      "d": 320.5638749999889,
      "v": 73
    },
    {
      "midi": 55,
      "hit": false,
      "t": 22908.220312499987,
      "d": 324.5961249999891,
      "v": 82
    },
    {
      "midi": 65,
      "hit": false,
      "t": 22910.236437499985,
      "d": 295.36231249999764,
      "v": 93
    },
    {
      "midi": 54,
      "hit": false,
      "t": 23217.69549999998,
      "d": 2419.349999999995,
      "v": 89
    },
    {
      "midi": 58,
      "hit": false,
      "t": 23217.69549999998,
      "d": 2419.349999999995,
      "v": 89
    },
    {
      "midi": 50,
      "hit": false,
      "t": 23220.71968749998,
      "d": 2419.349999999995,
      "v": 73
    },
    {
      "midi": 62,
      "hit": false,
      "t": 23220.71968749998,
      "d": 2419.349999999995,
      "v": 101
    },
    {
      "midi": 38,
      "hit": false,
      "t": 23222.735812499977,
      "d": 2419.349999999995,
      "v": 86
    },
    {
      "midi": 38,
      "hit": false,
      "t": 25650.1503125,
      "d": 27.217687500000466,
      "v": 91
    },
    {
      "midi": 43,
      "hit": false,
      "t": 26120.915499999974,
      "d": 85.6853125000016,
      "v": 100
    },
    {
      "midi": 59,
      "hit": false,
      "t": 26125.955812499975,
      "d": 113.91106249999939,
      "v": 91
    },
    {
      "midi": 55,
      "hit": false,
      "t": 26125.955812499975,
      "d": 118.95137500000055,
      "v": 101
    },
    {
      "midi": 53,
      "hit": false,
      "t": 26125.955812499975,
      "d": 146.16906250000102,
      "v": 91
    },
    {
      "midi": 62,
      "hit": false,
      "t": 26125.955812499975,
      "d": 146.16906250000102,
      "v": 103
    },
    {
      "midi": 43,
      "hit": false,
      "t": 26471.721249999977,
      "d": 141.12874999999985,
      "v": 100
    },
    {
      "midi": 63,
      "hit": false,
      "t": 26471.721249999977,
      "d": 178.427062499999,
      "v": 104
    },
    {
      "midi": 55,
      "hit": false,
      "t": 26473.737374999975,
      "d": 131.04812500000116,
      "v": 91
    },
    {
      "midi": 59,
      "hit": false,
      "t": 26473.737374999975,
      "d": 151.20937500000218,
      "v": 91
    },
    {
      "midi": 53,
      "hit": false,
      "t": 26478.777687499976,
      "d": 131.04812500000116,
      "v": 82
    },
    {
      "midi": 55,
      "hit": false,
      "t": 26804.381874999977,
      "d": 143.14487499999814,
      "v": 100
    },
    {
      "midi": 59,
      "hit": false,
      "t": 26804.381874999977,
      "d": 173.38674999999785,
      "v": 99
    },
    {
      "midi": 65,
      "hit": false,
      "t": 26806.397999999976,
      "d": 161.29000000000087,
      "v": 109
    },
    {
      "midi": 43,
      "hit": false,
      "t": 26809.422187499975,
      "d": 146.16906250000102,
      "v": 99
    },
    {
      "midi": 53,
      "hit": false,
      "t": 26809.422187499975,
      "d": 173.38675000000148,
      "v": 91
    },
    {
      "midi": 63,
      "hit": false,
      "t": 27091.679687499975,
      "d": 919.3529999999992,
      "v": 105
    },
    {
      "midi": 56,
      "hit": false,
      "t": 27091.679687499975,
      "d": 929.4336249999978,
      "v": 91
    },
    {
      "midi": 60,
      "hit": false,
      "t": 27091.679687499975,
      "d": 1587.6984374999956,
      "v": 91
    },
    {
      "midi": 55,
      "hit": false,
      "t": 27091.679687499975,
      "d": 1640.1176874999946,
      "v": 100
    },
    {
      "midi": 44,
      "hit": false,
      "t": 27091.679687499975,
      "d": 1670.3595624999944,
      "v": 99
    },
    {
      "midi": 56,
      "hit": false,
      "t": 28059.419687499972,
      "d": 2580.639999999996,
      "v": 83
    },
    {
      "midi": 63,
      "hit": false,
      "t": 28061.43581249997,
      "d": 2590.720624999998,
      "v": 100
    },
    {
      "midi": 72,
      "hit": false,
      "t": 28066.476124999972,
      "d": 2600.801249999997,
      "v": 100
    },
    {
      "midi": 67,
      "hit": false,
      "t": 28180.38718749997,
      "d": 2481.8498749999962,
      "v": 69
    },
    {
      "midi": 44,
      "hit": false,
      "t": 29752.964687499967,
      "d": 546.3698750000003,
      "v": 86
    },
    {
      "midi": 44,
      "hit": false,
      "t": 30359.818312499967,
      "d": 456.65231250000215,
      "v": 76
    },
    {
      "midi": 55,
      "hit": false,
      "t": 30720.70468749997,
      "d": 226.81406250000146,
      "v": 91
    },
    {
      "midi": 56,
      "hit": false,
      "t": 30720.70468749997,
      "d": 231.85437500000262,
      "v": 91
    },
    {
      "midi": 60,
      "hit": false,
      "t": 30720.70468749997,
      "d": 236.89468750000378,
      "v": 100
    },
    {
      "midi": 63,
      "hit": false,
      "t": 30720.70468749997,
      "d": 252.015625,
      "v": 91
    },
    {
      "midi": 58,
      "hit": false,
      "t": 30959.61549999997,
      "d": 2570.55937499999,
      "v": 89
    },
    {
      "midi": 54,
      "hit": false,
      "t": 30959.61549999997,
      "d": 2646.1640624999854,
      "v": 93
    },
    {
      "midi": 62,
      "hit": false,
      "t": 30962.63968749997,
      "d": 2520.1562499999927,
      "v": 101
    },
    {
      "midi": 50,
      "hit": false,
      "t": 30962.63968749997,
      "d": 2570.55937499999,
      "v": 73
    },
    {
      "midi": 38,
      "hit": false,
      "t": 30964.65581249997,
      "d": 1757.0529375000006,
      "v": 86
    },
    {
      "midi": 38,
      "hit": false,
      "t": 32898.119687499966,
      "d": 902.2159374999901,
      "v": 69
    },
    {
      "midi": 50,
      "hit": false,
      "t": 33625.94081249995,
      "d": 224.79793749999953,
      "v": 100
    },
    {
      "midi": 43,
      "hit": false,
      "t": 33862.83549999995,
      "d": 85.68531249999796,
      "v": 100
    },
    {
      "midi": 59,
      "hit": false,
      "t": 33867.87581249995,
      "d": 113.91106249999575,
      "v": 91
    },
    {
      "midi": 55,
      "hit": false,
      "t": 33867.87581249995,
      "d": 118.95137499999691,
      "v": 101
    },
    {
      "midi": 53,
      "hit": false,
      "t": 33867.87581249995,
      "d": 146.16906249999738,
      "v": 91
    },
    {
      "midi": 62,
      "hit": false,
      "t": 33867.87581249995,
      "d": 146.16906249999738,
      "v": 103
    },
    {
      "midi": 43,
      "hit": false,
      "t": 34213.64124999995,
      "d": 141.1287500000035,
      "v": 100
    },
    {
      "midi": 63,
      "hit": false,
      "t": 34213.64124999995,
      "d": 178.427062499999,
      "v": 104
    },
    {
      "midi": 55,
      "hit": false,
      "t": 34215.65737499995,
      "d": 131.04812500000116,
      "v": 91
    },
    {
      "midi": 59,
      "hit": false,
      "t": 34215.65737499995,
      "d": 151.20937499999854,
      "v": 91
    },
    {
      "midi": 53,
      "hit": false,
      "t": 34220.69768749995,
      "d": 131.04812500000116,
      "v": 82
    },
    {
      "midi": 55,
      "hit": false,
      "t": 34546.30187499995,
      "d": 143.14487499999814,
      "v": 100
    },
    {
      "midi": 59,
      "hit": false,
      "t": 34546.30187499995,
      "d": 173.38674999999785,
      "v": 99
    },
    {
      "midi": 65,
      "hit": false,
      "t": 34548.31799999995,
      "d": 161.2899999999936,
      "v": 109
    },
    {
      "midi": 43,
      "hit": false,
      "t": 34551.34218749995,
      "d": 146.16906249999738,
      "v": 99
    },
    {
      "midi": 53,
      "hit": false,
      "t": 34551.34218749995,
      "d": 173.38674999999785,
      "v": 91
    },
    {
      "midi": 44,
      "hit": false,
      "t": 34833.59968749995,
      "d": 1670.3595625000016,
      "v": 99
    },
    {
      "midi": 56,
      "hit": false,
      "t": 34833.59968749995,
      "d": 3427.412500000006,
      "v": 91
    },
    {
      "midi": 60,
      "hit": false,
      "t": 34833.59968749995,
      "d": 3427.412500000006,
      "v": 91
    },
    {
      "midi": 63,
      "hit": false,
      "t": 34833.59968749995,
      "d": 3427.412500000006,
      "v": 105
    },
    {
      "midi": 55,
      "hit": false,
      "t": 34833.59968749995,
      "d": 3429.4286250000077,
      "v": 100
    },
    {
      "midi": 44,
      "hit": false,
      "t": 36527.144687499946,
      "d": 932.4578125000044,
      "v": 83
    },
    {
      "midi": 65,
      "hit": false,
      "t": 36554.362374999946,
      "d": 103.8304375000007,
      "v": 100
    },
    {
      "midi": 67,
      "hit": false,
      "t": 36658.19281249995,
      "d": 107.86268750000454,
      "v": 82
    },
    {
      "midi": 65,
      "hit": false,
      "t": 36761.01518749995,
      "d": 1481.8518750000003,
      "v": 71
    },
    {
      "midi": 44,
      "hit": false,
      "t": 37494.88468749995,
      "d": 546.3698749999967,
      "v": 86
    },
    {
      "midi": 44,
      "hit": false,
      "t": 38101.73831249995,
      "d": 456.65231250000943,
      "v": 76
    },
    {
      "midi": 56,
      "hit": false,
      "t": 38459.60049999996,
      "d": 236.8946874999965,
      "v": 91
    },
    {
      "midi": 60,
      "hit": false,
      "t": 38459.60049999996,
      "d": 236.8946874999965,
      "v": 91
    },
    {
      "midi": 63,
      "hit": false,
      "t": 38459.60049999996,
      "d": 255.03981249999924,
      "v": 91
    },
    {
      "midi": 55,
      "hit": false,
      "t": 38462.624687499956,
      "d": 257.05593750000116,
      "v": 93
    },
    {
      "midi": 58,
      "hit": false,
      "t": 38701.535499999954,
      "d": 1424.3923125000001,
      "v": 89
    },
    {
      "midi": 54,
      "hit": false,
      "t": 38701.535499999954,
      "d": 1454.6341874999998,
      "v": 93
    },
    {
      "midi": 62,
      "hit": false,
      "t": 38704.559687499954,
      "d": 1164.312187500007,
      "v": 104
    },
    {
      "midi": 50,
      "hit": false,
      "t": 38704.559687499954,
      "d": 1567.5371874999983,
      "v": 73
    },
    {
      "midi": 38,
      "hit": false,
      "t": 38706.575812499956,
      "d": 1757.052937499997,
      "v": 86
    },
    {
      "midi": 62,
      "hit": false,
      "t": 39911.21049999996,
      "d": 1661.2869999999893,
      "v": 81
    },
    {
      "midi": 58,
      "hit": false,
      "t": 40153.145499999955,
      "d": 1396.166562499995,
      "v": 64
    },
    {
      "midi": 50,
      "hit": false,
      "t": 40390.04018749995,
      "d": 226.81406250000146,
      "v": 69
    },
    {
      "midi": 38,
      "hit": false,
      "t": 40640.03968749995,
      "d": 902.2159374999974,
      "v": 69
    },
    {
      "midi": 50,
      "hit": false,
      "t": 40642.05581249995,
      "d": 658.2648124999978,
      "v": 81
    },
    {
      "midi": 50,
      "hit": false,
      "t": 41355.76406249995,
      "d": 236.8946874999965,
      "v": 91
    },
    {
      "midi": 43,
      "hit": false,
      "t": 41604.75549999994,
      "d": 85.68531249999796,
      "v": 100
    },
    {
      "midi": 59,
      "hit": false,
      "t": 41609.79581249994,
      "d": 113.91106249999575,
      "v": 91
    },
    {
      "midi": 55,
      "hit": false,
      "t": 41609.79581249994,
      "d": 118.95137499999691,
      "v": 101
    },
    {
      "midi": 53,
      "hit": false,
      "t": 41609.79581249994,
      "d": 146.16906249999738,
      "v": 91
    },
    {
      "midi": 62,
      "hit": false,
      "t": 41609.79581249994,
      "d": 146.16906249999738,
      "v": 103
    },
    {
      "midi": 43,
      "hit": false,
      "t": 41955.56124999994,
      "d": 141.1287500000035,
      "v": 100
    },
    {
      "midi": 63,
      "hit": false,
      "t": 41955.56124999994,
      "d": 178.427062499999,
      "v": 104
    },
    {
      "midi": 55,
      "hit": false,
      "t": 41957.57737499994,
      "d": 131.04812500000116,
      "v": 91
    },
    {
      "midi": 59,
      "hit": false,
      "t": 41957.57737499994,
      "d": 151.20937499999854,
      "v": 91
    },
    {
      "midi": 53,
      "hit": false,
      "t": 41962.617687499944,
      "d": 131.04812500000116,
      "v": 82
    },
    {
      "midi": 55,
      "hit": false,
      "t": 42288.22187499994,
      "d": 143.14487499999814,
      "v": 100
    },
    {
      "midi": 59,
      "hit": false,
      "t": 42288.22187499994,
      "d": 173.38674999999785,
      "v": 99
    },
    {
      "midi": 65,
      "hit": false,
      "t": 42290.23799999994,
      "d": 161.2899999999936,
      "v": 109
    },
    {
      "midi": 43,
      "hit": false,
      "t": 42293.26218749994,
      "d": 146.16906249999738,
      "v": 99
    },
    {
      "midi": 53,
      "hit": false,
      "t": 42293.26218749994,
      "d": 173.38674999999785,
      "v": 91
    },
    {
      "midi": 60,
      "hit": false,
      "t": 42575.51968749994,
      "d": 1587.698437500003,
      "v": 91
    },
    {
      "midi": 56,
      "hit": false,
      "t": 42575.51968749994,
      "d": 1633.061250000006,
      "v": 91
    },
    {
      "midi": 55,
      "hit": false,
      "t": 42575.51968749994,
      "d": 1640.1176875000092,
      "v": 100
    },
    {
      "midi": 63,
      "hit": false,
      "t": 42575.51968749994,
      "d": 1650.1983125000115,
      "v": 105
    },
    {
      "midi": 44,
      "hit": false,
      "t": 42575.51968749994,
      "d": 1670.359562500009,
      "v": 99
    },
    {
      "midi": 60,
      "hit": false,
      "t": 44266.040499999945,
      "d": 224.79793749999953,
      "v": 91
    },
    {
      "midi": 44,
      "hit": false,
      "t": 44269.064687499944,
      "d": 932.4578125000044,
      "v": 83
    },
    {
      "midi": 65,
      "hit": false,
      "t": 44497.89487499995,
      "d": 887.0950000000084,
      "v": 100
    },
    {
      "midi": 60,
      "hit": false,
      "t": 44505.95937499995,
      "d": 884.0708125000092,
      "v": 82
    },
    {
      "midi": 55,
      "hit": false,
      "t": 44510.99968749995,
      "d": 853.8289375000022,
      "v": 72
    },
    {
      "midi": 56,
      "hit": false,
      "t": 44510.99968749995,
      "d": 868.9498750000057,
      "v": 82
    },
    {
      "midi": 44,
      "hit": false,
      "t": 45236.80468749995,
      "d": 1184.473437500019,
      "v": 86
    },
    {
      "midi": 63,
      "hit": false,
      "t": 45475.715499999955,
      "d": 930.4416875000097,
      "v": 100
    },
    {
      "midi": 56,
      "hit": false,
      "t": 45478.739687499954,
      "d": 899.1917500000054,
      "v": 82
    },
    {
      "midi": 55,
      "hit": false,
      "t": 45480.755812499956,
      "d": 892.1353125000023,
      "v": 72
    },
    {
      "midi": 60,
      "hit": false,
      "t": 45480.755812499956,
      "d": 910.2804375000051,
      "v": 82
    },
    {
      "midi": 54,
      "hit": false,
      "t": 46443.45549999997,
      "d": 1512.09375,
      "v": 94
    },
    {
      "midi": 58,
      "hit": false,
      "t": 46443.45549999997,
      "d": 1512.09375,
      "v": 89
    },
    {
      "midi": 50,
      "hit": false,
      "t": 46446.47968749997,
      "d": 1512.09375,
      "v": 73
    },
    {
      "midi": 62,
      "hit": false,
      "t": 46446.47968749997,
      "d": 1512.09375,
      "v": 101
    },
    {
      "midi": 38,
      "hit": false,
      "t": 46448.49581249997,
      "d": 1898.1816875000004,
      "v": 86
    },
    {
      "midi": 62,
      "hit": false,
      "t": 48129.94406249997,
      "d": 241.93499999999767,
      "v": 91
    },
    {
      "midi": 54,
      "hit": false,
      "t": 48129.94406249997,
      "d": 248.99143750000076,
      "v": 82
    },
    {
      "midi": 58,
      "hit": false,
      "t": 48129.94406249997,
      "d": 267.1365625000035,
      "v": 100
    },
    {
      "midi": 59,
      "hit": false,
      "t": 48376.91937499997,
      "d": 907.2562500000058,
      "v": 100
    },
    {
      "midi": 43,
      "hit": false,
      "t": 48378.93549999997,
      "d": 814.5145000000048,
      "v": 91
    },
    {
      "midi": 62,
      "hit": false,
      "t": 48381.95968749997,
      "d": 904.2320625000066,
      "v": 100
    },
    {
      "midi": 53,
      "hit": false,
      "t": 48381.95968749997,
      "d": 912.296562500007,
      "v": 91
    },
    {
      "midi": 53,
      "hit": false,
      "t": 49334.57874999998,
      "d": 246.9753125000061,
      "v": 82
    },
    {
      "midi": 59,
      "hit": false,
      "t": 49334.57874999998,
      "d": 246.9753125000061,
      "v": 91
    },
    {
      "midi": 62,
      "hit": false,
      "t": 49334.57874999998,
      "d": 246.9753125000061,
      "v": 96
    },
    {
      "midi": 43,
      "hit": false,
      "t": 49341.63518749998,
      "d": 209.67700000000332,
      "v": 83
    },
    {
      "midi": 62,
      "hit": false,
      "t": 49704.537687499986,
      "d": 186.49156249999942,
      "v": 100
    },
    {
      "midi": 43,
      "hit": false,
      "t": 49707.561874999985,
      "d": 196.57218750000175,
      "v": 82
    },
    {
      "midi": 59,
      "hit": false,
      "t": 49709.57799999999,
      "d": 189.51574999999866,
      "v": 91
    },
    {
      "midi": 67,
      "hit": false,
      "t": 49712.602187499986,
      "d": 173.38674999999785,
      "v": 95
    },
    {
      "midi": 38,
      "hit": false,
      "t": 49838.61,
      "d": 80.6449999999968,
      "v": 59
    },
    {
      "midi": 38,
      "hit": false,
      "t": 49959.5775,
      "d": 80.6449999999968,
      "v": 68
    },
    {
      "midi": 62,
      "hit": false,
      "t": 50055.343437499985,
      "d": 262.0962500000023,
      "v": 100
    },
    {
      "midi": 43,
      "hit": false,
      "t": 50067.44018749999,
      "d": 244.95918749999691,
      "v": 82
    },
    {
      "midi": 59,
      "hit": false,
      "t": 50317.43968749999,
      "d": 7.056437500003085,
      "v": 87
    },
    {
      "midi": 48,
      "hit": false,
      "t": 50317.43968749999,
      "d": 2696.567187499997,
      "v": 79
    },
    {
      "midi": 55,
      "hit": false,
      "t": 50317.43968749999,
      "d": 2696.567187499997,
      "v": 94
    },
    {
      "midi": 60,
      "hit": false,
      "t": 50317.43968749999,
      "d": 2696.567187499997,
      "v": 91
    },
    {
      "midi": 64,
      "hit": false,
      "t": 50317.43968749999,
      "d": 2696.567187499997,
      "v": 105
    },
    {
      "midi": 38,
      "hit": false,
      "t": 50806.35,
      "d": 80.6449999999968,
      "v": 68
    },
    {
      "midi": 88,
      "hit": false,
      "t": 51256.95393749999,
      "d": 1925.3993749999936,
      "v": 91
    },
    {
      "midi": 84,
      "hit": false,
      "t": 51514.00987499999,
      "d": 98.79012499999953,
      "v": 73
    },
    {
      "midi": 86,
      "hit": false,
      "t": 51612.79999999999,
      "d": 1579.6339374999952,
      "v": 91
    },
    {
      "midi": 38,
      "hit": false,
      "t": 51774.09,
      "d": 80.6449999999968,
      "v": 68
    },
    {
      "midi": 81,
      "hit": false,
      "t": 51881.95268749999,
      "d": 95.76593750000029,
      "v": 73
    },
    {
      "midi": 83,
      "hit": false,
      "t": 51980.742812499986,
      "d": 1176.4089374999967,
      "v": 82
    },
    {
      "midi": 79,
      "hit": false,
      "t": 52247.87937499999,
      "d": 143.14487499999814,
      "v": 73
    },
    {
      "midi": 81,
      "hit": false,
      "t": 52343.64531249999,
      "d": 826.6112499999945,
      "v": 82
    },
    {
      "midi": 38,
      "hit": false,
      "t": 52741.829999999994,
      "d": 80.6449999999968,
      "v": 68
    },
    {
      "midi": 43,
      "hit": false,
      "t": 53217.63549999998,
      "d": 186.49156249999942,
      "v": 100
    },
    {
      "midi": 53,
      "hit": false,
      "t": 53222.67581249998,
      "d": 196.57218750000175,
      "v": 91
    },
    {
      "midi": 62,
      "hit": false,
      "t": 53222.67581249998,
      "d": 196.57218750000175,
      "v": 103
    },
    {
      "midi": 59,
      "hit": false,
      "t": 53222.67581249998,
      "d": 214.71731250000448,
      "v": 91
    },
    {
      "midi": 55,
      "hit": false,
      "t": 53222.67581249998,
      "d": 219.75762500000565,
      "v": 101
    },
    {
      "midi": 43,
      "hit": false,
      "t": 53568.44124999999,
      "d": 141.1287500000035,
      "v": 100
    },
    {
      "midi": 63,
      "hit": false,
      "t": 53568.44124999999,
      "d": 228.83018750000338,
      "v": 104
    },
    {
      "midi": 55,
      "hit": false,
      "t": 53570.45737499999,
      "d": 181.45124999999825,
      "v": 91
    },
    {
      "midi": 59,
      "hit": false,
      "t": 53570.45737499999,
      "d": 204.63668749999488,
      "v": 91
    },
    {
      "midi": 53,
      "hit": false,
      "t": 53575.49768749999,
      "d": 206.6528124999968,
      "v": 82
    },
    {
      "midi": 38,
      "hit": false,
      "t": 53709.56999999999,
      "d": 80.6449999999968,
      "v": 68
    },
    {
      "midi": 55,
      "hit": false,
      "t": 53901.10187499999,
      "d": 193.54799999999523,
      "v": 100
    },
    {
      "midi": 59,
      "hit": false,
      "t": 53901.10187499999,
      "d": 223.78987499999494,
      "v": 99
    },
    {
      "midi": 65,
      "hit": false,
      "t": 53903.117999999995,
      "d": 236.8946874999965,
      "v": 99
    },
    {
      "midi": 43,
      "hit": false,
      "t": 53906.142187499994,
      "d": 146.16906249999738,
      "v": 99
    },
    {
      "midi": 53,
      "hit": false,
      "t": 53906.142187499994,
      "d": 223.78987499999494,
      "v": 91
    },
    {
      "midi": 56,
      "hit": false,
      "t": 54185.375499999995,
      "d": 3452.614062499997,
      "v": 93
    },
    {
      "midi": 60,
      "hit": false,
      "t": 54185.375499999995,
      "d": 3452.614062499997,
      "v": 89
    },
    {
      "midi": 55,
      "hit": false,
      "t": 54188.399687499994,
      "d": 856.8531250000015,
      "v": 99
    },
    {
      "midi": 63,
      "hit": false,
      "t": 54188.399687499994,
      "d": 3452.614062499997,
      "v": 101
    },
    {
      "midi": 44,
      "hit": false,
      "t": 54190.415812499996,
      "d": 1757.052937499997,
      "v": 86
    },
    {
      "midi": 38,
      "hit": false,
      "t": 54677.30999999999,
      "d": 80.6449999999968,
      "v": 68
    },
    {
      "midi": 67,
      "hit": false,
      "t": 54901.09987499999,
      "d": 2721.7687499999956,
      "v": 65
    },
    {
      "midi": 55,
      "hit": false,
      "t": 55158.155812499994,
      "d": 267.1365625000035,
      "v": 91
    },
    {
      "midi": 55,
      "hit": false,
      "t": 55505.937374999994,
      "d": 2155.2376249999943,
      "v": 93
    },
    {
      "midi": 38,
      "hit": false,
      "t": 55645.04999999999,
      "d": 80.6449999999968,
      "v": 68
    },
    {
      "midi": 44,
      "hit": false,
      "t": 56123.87968749999,
      "d": 1764.109375,
      "v": 69
    },
    {
      "midi": 38,
      "hit": false,
      "t": 56612.789999999986,
      "d": 80.6449999999968,
      "v": 68
    },
    {
      "midi": 38,
      "hit": false,
      "t": 57580.529999999984,
      "d": 80.6449999999968,
      "v": 68
    },
    {
      "midi": 56,
      "hit": false,
      "t": 57807.344062499986,
      "d": 284.2736250000089,
      "v": 91
    },
    {
      "midi": 63,
      "hit": false,
      "t": 57809.36018749999,
      "d": 252.01562500000728,
      "v": 101
    },
    {
      "midi": 67,
      "hit": false,
      "t": 57809.36018749999,
      "d": 280.24137500000506,
      "v": 96
    },
    {
      "midi": 60,
      "hit": false,
      "t": 57809.36018749999,
      "d": 290.3220000000074,
      "v": 82
    },
    {
      "midi": 50,
      "hit": false,
      "t": 58059.35968749999,
      "d": 1670.3595625000016,
      "v": 99
    },
    {
      "midi": 62,
      "hit": false,
      "t": 58059.35968749999,
      "d": 2822.574999999997,
      "v": 95
    },
    {
      "midi": 66,
      "hit": false,
      "t": 58059.35968749999,
      "d": 2822.574999999997,
      "v": 102
    },
    {
      "midi": 58,
      "hit": false,
      "t": 58059.35968749999,
      "d": 2847.7765624999956,
      "v": 91
    },
    {
      "midi": 38,
      "hit": false,
      "t": 58548.26999999998,
      "d": 80.6449999999968,
      "v": 68
    },
    {
      "midi": 38,
      "hit": false,
      "t": 59516.00999999998,
      "d": 80.6449999999968,
      "v": 68
    },
    {
      "midi": 50,
      "hit": false,
      "t": 59752.90468749999,
      "d": 932.4578124999971,
      "v": 83
    },
    {
      "midi": 38,
      "hit": false,
      "t": 60483.74999999998,
      "d": 80.6449999999968,
      "v": 68
    },
    {
      "midi": 50,
      "hit": false,
      "t": 60720.64468749999,
      "d": 231.85437500000262,
      "v": 86
    },
    {
      "midi": 43,
      "hit": false,
      "t": 60959.555499999995,
      "d": 186.49156249999942,
      "v": 100
    },
    {
      "midi": 53,
      "hit": false,
      "t": 60964.595812499996,
      "d": 196.57218750000175,
      "v": 91
    },
    {
      "midi": 62,
      "hit": false,
      "t": 60964.595812499996,
      "d": 196.57218750000175,
      "v": 103
    },
    {
      "midi": 59,
      "hit": false,
      "t": 60964.595812499996,
      "d": 214.71731250000448,
      "v": 91
    },
    {
      "midi": 55,
      "hit": false,
      "t": 60964.595812499996,
      "d": 219.75762500000565,
      "v": 101
    },
    {
      "midi": 43,
      "hit": false,
      "t": 61310.36125,
      "d": 141.1287500000035,
      "v": 100
    },
    {
      "midi": 63,
      "hit": false,
      "t": 61310.36125,
      "d": 228.83018750000338,
      "v": 104
    },
    {
      "midi": 55,
      "hit": false,
      "t": 61312.377375000004,
      "d": 181.45124999999825,
      "v": 91
    },
    {
      "midi": 59,
      "hit": false,
      "t": 61312.377375000004,
      "d": 204.63668749999488,
      "v": 91
    },
    {
      "midi": 53,
      "hit": false,
      "t": 61317.417687500005,
      "d": 206.6528124999968,
      "v": 82
    },
    {
      "midi": 38,
      "hit": false,
      "t": 61451.489999999976,
      "d": 80.6449999999968,
      "v": 68
    },
    {
      "midi": 55,
      "hit": false,
      "t": 61643.021875000006,
      "d": 193.54799999999523,
      "v": 100
    },
    {
      "midi": 59,
      "hit": false,
      "t": 61643.021875000006,
      "d": 223.78987499999494,
      "v": 99
    },
    {
      "midi": 65,
      "hit": false,
      "t": 61645.03800000001,
      "d": 236.8946874999965,
      "v": 99
    },
    {
      "midi": 43,
      "hit": false,
      "t": 61648.06218750001,
      "d": 146.16906249999738,
      "v": 99
    },
    {
      "midi": 53,
      "hit": false,
      "t": 61648.06218750001,
      "d": 223.78987499999494,
      "v": 91
    },
    {
      "midi": 60,
      "hit": false,
      "t": 61927.29550000001,
      "d": 1587.698437500003,
      "v": 89
    },
    {
      "midi": 56,
      "hit": false,
      "t": 61927.29550000001,
      "d": 1663.3031249999985,
      "v": 93
    },
    {
      "midi": 63,
      "hit": false,
      "t": 61930.31968750001,
      "d": 1587.698437500003,
      "v": 101
    },
    {
      "midi": 55,
      "hit": false,
      "t": 61930.31968750001,
      "d": 1638.1015625,
      "v": 99
    },
    {
      "midi": 44,
      "hit": false,
      "t": 61932.33581250001,
      "d": 1757.052937499997,
      "v": 86
    },
    {
      "midi": 38,
      "hit": false,
      "t": 62419.229999999974,
      "d": 80.6449999999968,
      "v": 68
    },
    {
      "midi": 38,
      "hit": false,
      "t": 63386.96999999997,
      "d": 80.6449999999968,
      "v": 68
    },
    {
      "midi": 55,
      "hit": false,
      "t": 63623.864687500005,
      "d": 1095.7639374999999,
      "v": 82
    },
    {
      "midi": 67,
      "hit": false,
      "t": 63625.88081250001,
      "d": 249.99949999999808,
      "v": 91
    },
    {
      "midi": 56,
      "hit": false,
      "t": 63625.88081250001,
      "d": 1088.7074999999968,
      "v": 82
    },
    {
      "midi": 60,
      "hit": false,
      "t": 63625.88081250001,
      "d": 1101.8123124999984,
      "v": 91
    },
    {
      "midi": 65,
      "hit": false,
      "t": 63865.7996875,
      "d": 856.8531250000015,
      "v": 82
    },
    {
      "midi": 44,
      "hit": false,
      "t": 63865.7996875,
      "d": 1764.1093749999927,
      "v": 69
    },
    {
      "midi": 38,
      "hit": false,
      "t": 64354.70999999997,
      "d": 80.6449999999968,
      "v": 68
    },
    {
      "midi": 60,
      "hit": false,
      "t": 64828.49937500001,
      "d": 670.361562500002,
      "v": 73
    },
    {
      "midi": 56,
      "hit": false,
      "t": 64828.49937500001,
      "d": 705.6437500000029,
      "v": 65
    },
    {
      "midi": 63,
      "hit": false,
      "t": 64830.51550000001,
      "d": 673.3857500000013,
      "v": 83
    },
    {
      "midi": 55,
      "hit": false,
      "t": 64835.55581250001,
      "d": 693.5469999999987,
      "v": 65
    },
    {
      "midi": 38,
      "hit": false,
      "t": 65322.44999999997,
      "d": 80.6449999999968,
      "v": 68
    },
    {
      "midi": 56,
      "hit": false,
      "t": 65549.2640625,
      "d": 284.2736249999725,
      "v": 78
    },
    {
      "midi": 63,
      "hit": false,
      "t": 65551.2801875,
      "d": 252.01562499998545,
      "v": 86
    },
    {
      "midi": 67,
      "hit": false,
      "t": 65551.2801875,
      "d": 280.24137499998324,
      "v": 86
    },
    {
      "midi": 60,
      "hit": false,
      "t": 65551.2801875,
      "d": 290.321999999971,
      "v": 82
    },
    {
      "midi": 58,
      "hit": false,
      "t": 65801.27968749999,
      "d": 1864.9156249999796,
      "v": 91
    },
    {
      "midi": 62,
      "hit": false,
      "t": 65801.27968749999,
      "d": 1864.9156249999796,
      "v": 95
    },
    {
      "midi": 66,
      "hit": false,
      "t": 65801.27968749999,
      "d": 1864.9156249999796,
      "v": 102
    },
    {
      "midi": 50,
      "hit": false,
      "t": 65801.27968749999,
      "d": 1897.1736249999813,
      "v": 99
    },
    {
      "midi": 38,
      "hit": false,
      "t": 66290.18999999996,
      "d": 80.64500000000407,
      "v": 68
    },
    {
      "midi": 38,
      "hit": false,
      "t": 67257.92999999996,
      "d": 80.64500000000407,
      "v": 68
    },
    {
      "midi": 59,
      "hit": false,
      "t": 67731.71937499997,
      "d": 707.6598749999976,
      "v": 91
    },
    {
      "midi": 62,
      "hit": false,
      "t": 67731.71937499997,
      "d": 717.7404999999999,
      "v": 82
    },
    {
      "midi": 55,
      "hit": false,
      "t": 67733.73549999997,
      "d": 690.5228124999994,
      "v": 91
    },
    {
      "midi": 43,
      "hit": false,
      "t": 67733.73549999997,
      "d": 1869.95593750001,
      "v": 82
    },
    {
      "midi": 67,
      "hit": false,
      "t": 67736.75968749997,
      "d": 907.2562500000058,
      "v": 89
    },
    {
      "midi": 38,
      "hit": false,
      "t": 68225.66999999997,
      "d": 80.64500000000407,
      "v": 68
    },
    {
      "midi": 59,
      "hit": false,
      "t": 68474.66143749998,
      "d": 1192.5379375000048,
      "v": 81
    },
    {
      "midi": 71,
      "hit": false,
      "t": 68724.66093749998,
      "d": 944.5545624999941,
      "v": 100
    },
    {
      "midi": 67,
      "hit": false,
      "t": 69072.44249999998,
      "d": 621.9745625000069,
      "v": 91
    },
    {
      "midi": 38,
      "hit": false,
      "t": 69193.40999999997,
      "d": 80.64500000000407,
      "v": 68
    },
    {
      "midi": 64,
      "hit": false,
      "t": 69405.10312499998,
      "d": 262.0962500000023,
      "v": 73
    },
    {
      "midi": 48,
      "hit": false,
      "t": 69672.23968749998,
      "d": 1134.0703125,
      "v": 79
    },
    {
      "midi": 59,
      "hit": false,
      "t": 69672.23968749998,
      "d": 3402.2109375,
      "v": 87
    },
    {
      "midi": 60,
      "hit": false,
      "t": 69672.23968749998,
      "d": 3402.2109375,
      "v": 91
    },
    {
      "midi": 55,
      "hit": false,
      "t": 69672.23968749998,
      "d": 3427.412500000006,
      "v": 94
    },
    {
      "midi": 64,
      "hit": false,
      "t": 69672.23968749998,
      "d": 3427.412500000006,
      "v": 105
    },
    {
      "midi": 38,
      "hit": false,
      "t": 70161.14999999998,
      "d": 80.64500000000407,
      "v": 68
    },
    {
      "midi": 48,
      "hit": false,
      "t": 70881.91468749999,
      "d": 637.0954999999958,
      "v": 74
    },
    {
      "midi": 38,
      "hit": false,
      "t": 71128.88999999998,
      "d": 80.64500000000407,
      "v": 68
    },
    {
      "midi": 48,
      "hit": false,
      "t": 71607.71968749998,
      "d": 1265.1184375000012,
      "v": 72
    },
    {
      "midi": 38,
      "hit": false,
      "t": 72096.62999999999,
      "d": 80.64500000000407,
      "v": 68
    },
    {
      "midi": 48,
      "hit": false,
      "t": 72955.49924999998,
      "d": 75.60468750000291,
      "v": 81
    },
    {
      "midi": 48,
      "hit": false,
      "t": 73056.30549999999,
      "d": 423.3862499999959,
      "v": 100
    },
    {
      "midi": 38,
      "hit": false,
      "t": 73064.37,
      "d": 80.64500000000407,
      "v": 68
    },
    {
      "midi": 60,
      "hit": false,
      "t": 73293.20018749998,
      "d": 272.17687500000466,
      "v": 73
    },
    {
      "midi": 55,
      "hit": false,
      "t": 73303.28081249999,
      "d": 204.63668749999488,
      "v": 79
    },
    {
      "midi": 64,
      "hit": false,
      "t": 73303.28081249999,
      "d": 270.16074999999546,
      "v": 74
    },
    {
      "midi": 58,
      "hit": false,
      "t": 73540.17549999998,
      "d": 1864.9156250000087,
      "v": 93
    },
    {
      "midi": 62,
      "hit": false,
      "t": 73540.17549999998,
      "d": 1864.9156250000087,
      "v": 89
    },
    {
      "midi": 55,
      "hit": false,
      "t": 73543.19968749999,
      "d": 1864.9156250000087,
      "v": 99
    },
    {
      "midi": 65,
      "hit": false,
      "t": 73543.19968749999,
      "d": 1864.9156250000087,
      "v": 101
    },
    {
      "midi": 48,
      "hit": false,
      "t": 73545.21581249998,
      "d": 1757.0529375000042,
      "v": 86
    },
    {
      "midi": 38,
      "hit": false,
      "t": 74032.11,
      "d": 80.64500000000407,
      "v": 68
    },
    {
      "midi": 38,
      "hit": false,
      "t": 74999.85,
      "d": 80.64500000000407,
      "v": 68
    },
    {
      "midi": 55,
      "hit": false,
      "t": 75473.639375,
      "d": 1542.3356249999924,
      "v": 100
    },
    {
      "midi": 58,
      "hit": false,
      "t": 75473.639375,
      "d": 1562.496874999997,
      "v": 91
    },
    {
      "midi": 64,
      "hit": false,
      "t": 75473.639375,
      "d": 1562.496874999997,
      "v": 97
    },
    {
      "midi": 60,
      "hit": false,
      "t": 75475.6555,
      "d": 1567.5371874999983,
      "v": 100
    },
    {
      "midi": 48,
      "hit": false,
      "t": 75478.6796875,
      "d": 781.2484375000058,
      "v": 69
    },
    {
      "midi": 38,
      "hit": false,
      "t": 75967.59000000001,
      "d": 80.64500000000407,
      "v": 68
    },
    {
      "midi": 48,
      "hit": false,
      "t": 76448.4358125,
      "d": 285.28168749999895,
      "v": 73
    },
    {
      "midi": 50,
      "hit": false,
      "t": 76811.3383125,
      "d": 282.25749999999243,
      "v": 82
    },
    {
      "midi": 38,
      "hit": false,
      "t": 76935.33000000002,
      "d": 80.64500000000407,
      "v": 68
    },
    {
      "midi": 52,
      "hit": false,
      "t": 77157.10375,
      "d": 277.2171875000058,
      "v": 82
    },
    {
      "midi": 72,
      "hit": false,
      "t": 77409.119375,
      "d": 1766.1255000000092,
      "v": 101
    },
    {
      "midi": 69,
      "hit": false,
      "t": 77409.119375,
      "d": 1771.1658125000104,
      "v": 92
    },
    {
      "midi": 76,
      "hit": false,
      "t": 77411.13549999999,
      "d": 1743.94812500001,
      "v": 92
    },
    {
      "midi": 65,
      "hit": false,
      "t": 77411.13549999999,
      "d": 1772.1738750000222,
      "v": 92
    },
    {
      "midi": 41,
      "hit": false,
      "t": 77414.1596875,
      "d": 1871.972062500019,
      "v": 99
    },
    {
      "midi": 38,
      "hit": false,
      "t": 77903.07000000002,
      "d": 80.64500000000407,
      "v": 68
    },
    {
      "midi": 64,
      "hit": false,
      "t": 78136.9405,
      "d": 1116.9332500000164,
      "v": 91
    },
    {
      "midi": 38,
      "hit": false,
      "t": 78870.81000000003,
      "d": 80.64500000000407,
      "v": 68
    },
    {
      "midi": 71,
      "hit": false,
      "t": 79339.55906250002,
      "d": 1874.9962499999965,
      "v": 96
    },
    {
      "midi": 74,
      "hit": false,
      "t": 79339.55906250002,
      "d": 1882.0526874999923,
      "v": 93
    },
    {
      "midi": 67,
      "hit": false,
      "t": 79344.59937500002,
      "d": 1854.8349999999919,
      "v": 92
    },
    {
      "midi": 64,
      "hit": false,
      "t": 79346.61550000001,
      "d": 1847.778562499996,
      "v": 92
    },
    {
      "midi": 40,
      "hit": false,
      "t": 79346.61550000001,
      "d": 1857.8591874999984,
      "v": 99
    },
    {
      "midi": 38,
      "hit": false,
      "t": 79838.55000000003,
      "d": 80.64500000000407,
      "v": 68
    },
    {
      "midi": 62,
      "hit": false,
      "t": 80075.44468750001,
      "d": 1108.8687499999942,
      "v": 91
    },
    {
      "midi": 38,
      "hit": false,
      "t": 80806.29000000004,
      "d": 80.64500000000407,
      "v": 68
    },
    {
      "midi": 69,
      "hit": false,
      "t": 81280.07937500002,
      "d": 924.393312500004,
      "v": 92
    },
    {
      "midi": 72,
      "hit": false,
      "t": 81280.07937500002,
      "d": 1766.1255000000092,
      "v": 101
    },
    {
      "midi": 65,
      "hit": false,
      "t": 81282.09550000001,
      "d": 1431.4487500000105,
      "v": 92
    },
    {
      "midi": 76,
      "hit": false,
      "t": 81282.09550000001,
      "d": 1743.94812500001,
      "v": 92
    },
    {
      "midi": 41,
      "hit": false,
      "t": 81285.11968750002,
      "d": 1871.9720625000045,
      "v": 99
    },
    {
      "midi": 38,
      "hit": false,
      "t": 81774.03000000004,
      "d": 80.64500000000407,
      "v": 68
    },
    {
      "midi": 69,
      "hit": false,
      "t": 82249.83550000002,
      "d": 945.5626250000059,
      "v": 91
    },
    {
      "midi": 64,
      "hit": false,
      "t": 82733.70550000003,
      "d": 463.7087499999907,
      "v": 73
    },
    {
      "midi": 38,
      "hit": false,
      "t": 82741.77000000005,
      "d": 80.64500000000407,
      "v": 68
    },
    {
      "midi": 71,
      "hit": false,
      "t": 83210.51906250001,
      "d": 1874.9962499999965,
      "v": 96
    },
    {
      "midi": 74,
      "hit": false,
      "t": 83210.51906250001,
      "d": 1882.0526874999923,
      "v": 93
    },
    {
      "midi": 67,
      "hit": false,
      "t": 83215.55937500001,
      "d": 1854.8349999999919,
      "v": 92
    },
    {
      "midi": 64,
      "hit": false,
      "t": 83217.5755,
      "d": 882.0546875,
      "v": 92
    },
    {
      "midi": 40,
      "hit": false,
      "t": 83217.5755,
      "d": 1857.8591874999984,
      "v": 99
    },
    {
      "midi": 38,
      "hit": false,
      "t": 83709.51000000005,
      "d": 80.64500000000407,
      "v": 68
    },
    {
      "midi": 64,
      "hit": false,
      "t": 84183.299375,
      "d": 919.3530000000028,
      "v": 78
    },
    {
      "midi": 72,
      "hit": false,
      "t": 84674.22581250001,
      "d": 451.6119999999937,
      "v": 90
    },
    {
      "midi": 38,
      "hit": false,
      "t": 84677.25000000006,
      "d": 80.64500000000407,
      "v": 68
    },
    {
      "midi": 69,
      "hit": false,
      "t": 85151.03937500001,
      "d": 924.393312500004,
      "v": 92
    },
    {
      "midi": 72,
      "hit": false,
      "t": 85151.03937500001,
      "d": 1640.1176875000092,
      "v": 101
    },
    {
      "midi": 65,
      "hit": false,
      "t": 85153.0555,
      "d": 1431.4487500000105,
      "v": 92
    },
    {
      "midi": 76,
      "hit": false,
      "t": 85153.0555,
      "d": 1743.94812500001,
      "v": 92
    },
    {
      "midi": 41,
      "hit": false,
      "t": 85156.07968750001,
      "d": 1871.9720625000045,
      "v": 99
    },
    {
      "midi": 38,
      "hit": false,
      "t": 85644.99000000006,
      "d": 80.64500000000407,
      "v": 68
    },
    {
      "midi": 69,
      "hit": false,
      "t": 86120.79550000001,
      "d": 693.5470000000059,
      "v": 91
    },
    {
      "midi": 64,
      "hit": false,
      "t": 86604.66550000002,
      "d": 463.70875000000524,
      "v": 73
    },
    {
      "midi": 38,
      "hit": false,
      "t": 86612.73000000007,
      "d": 80.64500000000407,
      "v": 68
    },
    {
      "midi": 69,
      "hit": false,
      "t": 86851.64081250002,
      "d": 201.6125000000029,
      "v": 91
    },
    {
      "midi": 72,
      "hit": false,
      "t": 86851.64081250002,
      "d": 216.7334375000064,
      "v": 87
    },
    {
      "midi": 66,
      "hit": false,
      "t": 87081.47906250002,
      "d": 1874.9962499999965,
      "v": 96
    },
    {
      "midi": 69,
      "hit": false,
      "t": 87081.47906250002,
      "d": 1882.0526874999923,
      "v": 93
    },
    {
      "midi": 64,
      "hit": false,
      "t": 87086.51937500002,
      "d": 1854.8349999999919,
      "v": 92
    },
    {
      "midi": 38,
      "hit": false,
      "t": 87088.53550000001,
      "d": 1857.8591874999984,
      "v": 99
    },
    {
      "midi": 60,
      "hit": false,
      "t": 87088.53550000001,
      "d": 1864.9156249999942,
      "v": 92
    },
    {
      "midi": 38,
      "hit": false,
      "t": 87580.47000000007,
      "d": 80.64500000000407,
      "v": 68
    },
    {
      "midi": 57,
      "hit": false,
      "t": 88419.17800000001,
      "d": 557.4585624999891,
      "v": 91
    },
    {
      "midi": 38,
      "hit": false,
      "t": 88548.21000000008,
      "d": 80.64500000000407,
      "v": 68
    },
    {
      "midi": 65,
      "hit": false,
      "t": 89021.999375,
      "d": 1141.1267499999813,
      "v": 100
    },
    {
      "midi": 72,
      "hit": false,
      "t": 89027.0396875,
      "d": 1144.1509374999732,
      "v": 91
    },
    {
      "midi": 60,
      "hit": false,
      "t": 89029.0558125,
      "d": 1118.9493749999965,
      "v": 91
    },
    {
      "midi": 43,
      "hit": false,
      "t": 89029.0558125,
      "d": 1127.0138749999896,
      "v": 82
    },
    {
      "midi": 69,
      "hit": false,
      "t": 89037.12031249999,
      "d": 1120.9654999999912,
      "v": 91
    },
    {
      "midi": 38,
      "hit": false,
      "t": 89515.95000000008,
      "d": 80.64500000000407,
      "v": 68
    },
    {
      "midi": 60,
      "hit": false,
      "t": 90228.65018749997,
      "d": 285.28168749999895,
      "v": 82
    },
    {
      "midi": 65,
      "hit": false,
      "t": 90233.69049999997,
      "d": 282.25749999999243,
      "v": 91
    },
    {
      "midi": 43,
      "hit": false,
      "t": 90236.71468749997,
      "d": 264.112374999997,
      "v": 82
    },
    {
      "midi": 69,
      "hit": false,
      "t": 90238.73081249997,
      "d": 285.2816874999844,
      "v": 91
    },
    {
      "midi": 38,
      "hit": false,
      "t": 90483.69000000009,
      "d": 80.64500000000407,
      "v": 68
    },
    {
      "midi": 69,
      "hit": false,
      "t": 90604.65749999996,
      "d": 329.63643749999756,
      "v": 100
    },
    {
      "midi": 72,
      "hit": false,
      "t": 90604.65749999996,
      "d": 329.63643749999756,
      "v": 91
    },
    {
      "midi": 43,
      "hit": false,
      "t": 90606.67362499995,
      "d": 255.03981250000652,
      "v": 69
    },
    {
      "midi": 65,
      "hit": false,
      "t": 90609.69781249996,
      "d": 317.5396875000006,
      "v": 82
    },
    {
      "midi": 62,
      "hit": false,
      "t": 90957.47937499995,
      "d": 498.99093749999884,
      "v": 90
    },
    {
      "midi": 71,
      "hit": false,
      "t": 90957.47937499995,
      "d": 544.3537499999948,
      "v": 100
    },
    {
      "midi": 67,
      "hit": false,
      "t": 90957.47937499995,
      "d": 546.3698749999894,
      "v": 100
    },
    {
      "midi": 74,
      "hit": false,
      "t": 90957.47937499995,
      "d": 556.4504999999917,
      "v": 97
    },
    {
      "midi": 43,
      "hit": false,
      "t": 90964.53581249995,
      "d": 401.2088749999966,
      "v": 82
    },
    {
      "midi": 38,
      "hit": false,
      "t": 90967.5600000001,
      "d": 62.49987499999406,
      "v": 59
    },
    {
      "midi": 38,
      "hit": false,
      "t": 91088.5275000001,
      "d": 85.68531250000524,
      "v": 68
    },
    {
      "midi": 38,
      "hit": false,
      "t": 91209.4950000001,
      "d": 65.52406250000058,
      "v": 55
    },
    {
      "midi": 38,
      "hit": false,
      "t": 91330.4625000001,
      "d": 80.64500000000407,
      "v": 68
    },
    {
      "midi": 38,
      "hit": false,
      "t": 91451.4300000001,
      "d": 60.48374999999942,
      "v": 68
    },
    {
      "midi": 43,
      "hit": false,
      "t": 91927.23549999994,
      "d": 85.68531250000524,
      "v": 100
    },
    {
      "midi": 59,
      "hit": false,
      "t": 91932.27581249994,
      "d": 113.91106250000303,
      "v": 91
    },
    {
      "midi": 55,
      "hit": false,
      "t": 91932.27581249994,
      "d": 118.95137500000419,
      "v": 101
    },
    {
      "midi": 53,
      "hit": false,
      "t": 91932.27581249994,
      "d": 146.16906250000466,
      "v": 91
    },
    {
      "midi": 62,
      "hit": false,
      "t": 91932.27581249994,
      "d": 146.16906250000466,
      "v": 103
    },
    {
      "midi": 43,
      "hit": false,
      "t": 92278.04124999994,
      "d": 141.1287500000035,
      "v": 100
    },
    {
      "midi": 63,
      "hit": false,
      "t": 92278.04124999994,
      "d": 178.4270625000063,
      "v": 104
    },
    {
      "midi": 55,
      "hit": false,
      "t": 92280.05737499993,
      "d": 131.04812500000116,
      "v": 91
    },
    {
      "midi": 59,
      "hit": false,
      "t": 92280.05737499993,
      "d": 151.20937500000582,
      "v": 91
    },
    {
      "midi": 53,
      "hit": false,
      "t": 92285.09768749993,
      "d": 131.04812500000116,
      "v": 82
    },
    {
      "midi": 55,
      "hit": false,
      "t": 92610.70187499994,
      "d": 143.14487499999814,
      "v": 100
    },
    {
      "midi": 59,
      "hit": false,
      "t": 92610.70187499994,
      "d": 173.38674999999057,
      "v": 99
    },
    {
      "midi": 65,
      "hit": false,
      "t": 92612.71799999994,
      "d": 161.2899999999936,
      "v": 109
    },
    {
      "midi": 43,
      "hit": false,
      "t": 92615.74218749994,
      "d": 146.1690624999901,
      "v": 99
    },
    {
      "midi": 53,
      "hit": false,
      "t": 92615.74218749994,
      "d": 173.38674999999057,
      "v": 91
    },
    {
      "midi": 63,
      "hit": false,
      "t": 92897.99968749993,
      "d": 919.3530000000028,
      "v": 105
    },
    {
      "midi": 56,
      "hit": false,
      "t": 92897.99968749993,
      "d": 929.4336250000051,
      "v": 91
    },
    {
      "midi": 60,
      "hit": false,
      "t": 92897.99968749993,
      "d": 932.4578125000116,
      "v": 91
    },
    {
      "midi": 55,
      "hit": false,
      "t": 92897.99968749993,
      "d": 1640.1176874999946,
      "v": 100
    },
    {
      "midi": 44,
      "hit": false,
      "t": 92897.99968749993,
      "d": 1670.3595625000016,
      "v": 99
    },
    {
      "midi": 38,
      "hit": false,
      "t": 93386.91000000009,
      "d": 80.64500000000407,
      "v": 68
    },
    {
      "midi": 56,
      "hit": false,
      "t": 93865.73968749994,
      "d": 2580.6399999999994,
      "v": 83
    },
    {
      "midi": 63,
      "hit": false,
      "t": 93867.75581249993,
      "d": 2590.7206250000017,
      "v": 100
    },
    {
      "midi": 60,
      "hit": false,
      "t": 93867.75581249993,
      "d": 2649.1882500000065,
      "v": 73
    },
    {
      "midi": 67,
      "hit": false,
      "t": 93872.79612499994,
      "d": 2600.801250000004,
      "v": 100
    },
    {
      "midi": 38,
      "hit": false,
      "t": 94354.6500000001,
      "d": 80.64500000000407,
      "v": 68
    },
    {
      "midi": 38,
      "hit": false,
      "t": 95322.3900000001,
      "d": 80.64500000000407,
      "v": 68
    },
    {
      "midi": 44,
      "hit": false,
      "t": 95559.28468749994,
      "d": 546.369875000004,
      "v": 86
    },
    {
      "midi": 44,
      "hit": false,
      "t": 96166.13831249994,
      "d": 456.6523124999949,
      "v": 76
    },
    {
      "midi": 38,
      "hit": false,
      "t": 96290.1300000001,
      "d": 80.64500000000407,
      "v": 68
    },
    {
      "midi": 55,
      "hit": false,
      "t": 96527.02468749994,
      "d": 226.81406249999418,
      "v": 91
    },
    {
      "midi": 56,
      "hit": false,
      "t": 96527.02468749994,
      "d": 231.85437499999534,
      "v": 91
    },
    {
      "midi": 60,
      "hit": false,
      "t": 96527.02468749994,
      "d": 236.8946874999965,
      "v": 100
    },
    {
      "midi": 63,
      "hit": false,
      "t": 96527.02468749994,
      "d": 252.01562499998545,
      "v": 91
    },
    {
      "midi": 58,
      "hit": false,
      "t": 96765.93549999993,
      "d": 2570.559374999997,
      "v": 89
    },
    {
      "midi": 54,
      "hit": false,
      "t": 96765.93549999993,
      "d": 2646.1640625,
      "v": 93
    },
    {
      "midi": 62,
      "hit": false,
      "t": 96768.95968749994,
      "d": 2520.1562499999854,
      "v": 101
    },
    {
      "midi": 50,
      "hit": false,
      "t": 96768.95968749994,
      "d": 2570.559374999997,
      "v": 73
    },
    {
      "midi": 38,
      "hit": false,
      "t": 96770.97581249994,
      "d": 1757.0529374999896,
      "v": 86
    },
    {
      "midi": 38,
      "hit": false,
      "t": 97257.87000000011,
      "d": 80.64500000000407,
      "v": 68
    },
    {
      "midi": 38,
      "hit": false,
      "t": 98225.61000000012,
      "d": 80.64500000000407,
      "v": 68
    },
    {
      "midi": 38,
      "hit": false,
      "t": 98704.43968749992,
      "d": 902.2159375000192,
      "v": 69
    },
    {
      "midi": 38,
      "hit": false,
      "t": 99193.35000000012,
      "d": 80.64500000000407,
      "v": 68
    },
    {
      "midi": 50,
      "hit": false,
      "t": 99432.26081249994,
      "d": 224.79793749999953,
      "v": 100
    },
    {
      "midi": 43,
      "hit": false,
      "t": 99669.15549999994,
      "d": 85.68531250000524,
      "v": 100
    },
    {
      "midi": 59,
      "hit": false,
      "t": 99674.19581249994,
      "d": 239.91887500000303,
      "v": 91
    },
    {
      "midi": 55,
      "hit": false,
      "t": 99674.19581249994,
      "d": 244.9591875000042,
      "v": 101
    },
    {
      "midi": 53,
      "hit": false,
      "t": 99674.19581249994,
      "d": 246.97531249999884,
      "v": 91
    },
    {
      "midi": 62,
      "hit": false,
      "t": 99674.19581249994,
      "d": 246.97531249999884,
      "v": 103
    },
    {
      "midi": 43,
      "hit": false,
      "t": 100019.96124999993,
      "d": 141.12874999998894,
      "v": 100
    },
    {
      "midi": 63,
      "hit": false,
      "t": 100019.96124999993,
      "d": 254.03174999999464,
      "v": 104
    },
    {
      "midi": 55,
      "hit": false,
      "t": 100021.97737499993,
      "d": 231.85437499999534,
      "v": 91
    },
    {
      "midi": 59,
      "hit": false,
      "t": 100021.97737499993,
      "d": 252.015625,
      "v": 91
    },
    {
      "midi": 53,
      "hit": false,
      "t": 100027.01768749993,
      "d": 257.05593750000116,
      "v": 82
    },
    {
      "midi": 38,
      "hit": false,
      "t": 100161.09000000013,
      "d": 80.64500000000407,
      "v": 68
    },
    {
      "midi": 55,
      "hit": false,
      "t": 100352.62187499994,
      "d": 218.74956250000105,
      "v": 90
    },
    {
      "midi": 59,
      "hit": false,
      "t": 100352.62187499994,
      "d": 248.99143749999348,
      "v": 99
    },
    {
      "midi": 65,
      "hit": false,
      "t": 100354.63799999993,
      "d": 239.91887500000303,
      "v": 99
    },
    {
      "midi": 43,
      "hit": false,
      "t": 100357.66218749994,
      "d": 146.16906250000466,
      "v": 99
    },
    {
      "midi": 53,
      "hit": false,
      "t": 100357.66218749994,
      "d": 223.7898750000022,
      "v": 91
    },
    {
      "midi": 44,
      "hit": false,
      "t": 100639.91968749993,
      "d": 1670.3595625000016,
      "v": 99
    },
    {
      "midi": 63,
      "hit": false,
      "t": 100639.91968749993,
      "d": 2847.776562500003,
      "v": 105
    },
    {
      "midi": 56,
      "hit": false,
      "t": 100639.91968749993,
      "d": 3427.4124999999913,
      "v": 91
    },
    {
      "midi": 60,
      "hit": false,
      "t": 100639.91968749993,
      "d": 3427.4124999999913,
      "v": 91
    },
    {
      "midi": 55,
      "hit": false,
      "t": 100639.91968749993,
      "d": 3429.428624999986,
      "v": 100
    },
    {
      "midi": 38,
      "hit": false,
      "t": 101128.83000000013,
      "d": 80.64500000000407,
      "v": 68
    },
    {
      "midi": 38,
      "hit": false,
      "t": 102096.57000000014,
      "d": 80.64500000000407,
      "v": 68
    },
    {
      "midi": 44,
      "hit": false,
      "t": 102333.46468749993,
      "d": 932.4578125000116,
      "v": 83
    },
    {
      "midi": 65,
      "hit": false,
      "t": 102360.68237499993,
      "d": 103.8304375000007,
      "v": 100
    },
    {
      "midi": 67,
      "hit": false,
      "t": 102464.51281249993,
      "d": 107.86268750000454,
      "v": 82
    },
    {
      "midi": 65,
      "hit": false,
      "t": 102567.33518749994,
      "d": 1481.851874999993,
      "v": 71
    },
    {
      "midi": 38,
      "hit": false,
      "t": 103064.31000000014,
      "d": 80.64500000000407,
      "v": 68
    },
    {
      "midi": 44,
      "hit": false,
      "t": 103301.20468749994,
      "d": 546.3698749999894,
      "v": 86
    },
    {
      "midi": 63,
      "hit": false,
      "t": 103538.09937499993,
      "d": 687.4986249999929,
      "v": 89
    },
    {
      "midi": 44,
      "hit": false,
      "t": 103908.05831249992,
      "d": 456.6523124999949,
      "v": 76
    },
    {
      "midi": 38,
      "hit": false,
      "t": 104032.05000000015,
      "d": 80.64500000000407,
      "v": 68
    },
    {
      "midi": 56,
      "hit": false,
      "t": 104265.92049999992,
      "d": 236.8946874999965,
      "v": 91
    },
    {
      "midi": 60,
      "hit": false,
      "t": 104265.92049999992,
      "d": 236.8946874999965,
      "v": 91
    },
    {
      "midi": 63,
      "hit": false,
      "t": 104265.92049999992,
      "d": 255.03981249999197,
      "v": 91
    },
    {
      "midi": 55,
      "hit": false,
      "t": 104268.94468749993,
      "d": 257.0559374999866,
      "v": 93
    },
    {
      "midi": 58,
      "hit": false,
      "t": 104507.85549999992,
      "d": 1424.3923125000001,
      "v": 89
    },
    {
      "midi": 54,
      "hit": false,
      "t": 104507.85549999992,
      "d": 1454.634187500007,
      "v": 93
    },
    {
      "midi": 62,
      "hit": false,
      "t": 104510.87968749992,
      "d": 1164.3121874999924,
      "v": 104
    },
    {
      "midi": 50,
      "hit": false,
      "t": 104510.87968749992,
      "d": 1567.5371874999983,
      "v": 73
    },
    {
      "midi": 38,
      "hit": false,
      "t": 104512.89581249992,
      "d": 1757.0529375000042,
      "v": 86
    },
    {
      "midi": 38,
      "hit": false,
      "t": 104999.79000000015,
      "d": 80.64500000000407,
      "v": 68
    },
    {
      "midi": 62,
      "hit": false,
      "t": 105717.53049999992,
      "d": 1661.286999999982,
      "v": 81
    },
    {
      "midi": 58,
      "hit": false,
      "t": 105959.46549999992,
      "d": 1396.1665624999878,
      "v": 64
    },
    {
      "midi": 38,
      "hit": false,
      "t": 105967.53000000016,
      "d": 80.64500000000407,
      "v": 68
    },
    {
      "midi": 50,
      "hit": false,
      "t": 106196.36018749993,
      "d": 226.81406249999418,
      "v": 69
    },
    {
      "midi": 38,
      "hit": false,
      "t": 106446.35968749992,
      "d": 902.2159374999901,
      "v": 69
    },
    {
      "midi": 50,
      "hit": false,
      "t": 106448.37581249991,
      "d": 658.2648124999978,
      "v": 81
    },
    {
      "midi": 38,
      "hit": false,
      "t": 106935.27000000016,
      "d": 80.64500000000407,
      "v": 68
    },
    {
      "midi": 50,
      "hit": false,
      "t": 107162.08406249991,
      "d": 236.8946874999965,
      "v": 91
    },
    {
      "midi": 43,
      "hit": false,
      "t": 107411.0754999999,
      "d": 85.68531250000524,
      "v": 100
    },
    {
      "midi": 59,
      "hit": false,
      "t": 107416.1158124999,
      "d": 239.91887500000303,
      "v": 91
    },
    {
      "midi": 55,
      "hit": false,
      "t": 107416.1158124999,
      "d": 244.9591875000042,
      "v": 101
    },
    {
      "midi": 53,
      "hit": false,
      "t": 107416.1158124999,
      "d": 246.97531249999884,
      "v": 91
    },
    {
      "midi": 62,
      "hit": false,
      "t": 107416.1158124999,
      "d": 246.97531249999884,
      "v": 103
    },
    {
      "midi": 43,
      "hit": false,
      "t": 107761.8812499999,
      "d": 141.12874999998894,
      "v": 100
    },
    {
      "midi": 63,
      "hit": false,
      "t": 107761.8812499999,
      "d": 254.03174999999464,
      "v": 104
    },
    {
      "midi": 55,
      "hit": false,
      "t": 107763.8973749999,
      "d": 231.85437499999534,
      "v": 91
    },
    {
      "midi": 59,
      "hit": false,
      "t": 107763.8973749999,
      "d": 252.015625,
      "v": 91
    },
    {
      "midi": 53,
      "hit": false,
      "t": 107768.9376874999,
      "d": 257.05593750000116,
      "v": 82
    },
    {
      "midi": 38,
      "hit": false,
      "t": 107903.01000000017,
      "d": 80.64500000000407,
      "v": 68
    },
    {
      "midi": 55,
      "hit": false,
      "t": 108094.54187499991,
      "d": 218.74956250000105,
      "v": 90
    },
    {
      "midi": 59,
      "hit": false,
      "t": 108094.54187499991,
      "d": 248.99143749999348,
      "v": 99
    },
    {
      "midi": 65,
      "hit": false,
      "t": 108096.5579999999,
      "d": 239.91887500000303,
      "v": 99
    },
    {
      "midi": 43,
      "hit": false,
      "t": 108099.58218749991,
      "d": 146.16906250000466,
      "v": 99
    },
    {
      "midi": 53,
      "hit": false,
      "t": 108099.58218749991,
      "d": 223.7898750000022,
      "v": 91
    },
    {
      "midi": 60,
      "hit": false,
      "t": 108381.8396874999,
      "d": 1587.698437500003,
      "v": 91
    },
    {
      "midi": 56,
      "hit": false,
      "t": 108381.8396874999,
      "d": 1633.0612499999988,
      "v": 91
    },
    {
      "midi": 55,
      "hit": false,
      "t": 108381.8396874999,
      "d": 1640.1176874999946,
      "v": 100
    },
    {
      "midi": 63,
      "hit": false,
      "t": 108381.8396874999,
      "d": 1650.198312499997,
      "v": 105
    },
    {
      "midi": 44,
      "hit": false,
      "t": 108381.8396874999,
      "d": 1670.3595625000016,
      "v": 99
    },
    {
      "midi": 38,
      "hit": false,
      "t": 108870.75000000017,
      "d": 80.64500000000407,
      "v": 68
    },
    {
      "midi": 38,
      "hit": false,
      "t": 109838.49000000018,
      "d": 80.64500000000407,
      "v": 68
    },
    {
      "midi": 60,
      "hit": false,
      "t": 110072.36049999991,
      "d": 224.79793749999953,
      "v": 91
    },
    {
      "midi": 44,
      "hit": false,
      "t": 110075.38468749991,
      "d": 932.4578124999825,
      "v": 83
    },
    {
      "midi": 65,
      "hit": false,
      "t": 110304.2148749999,
      "d": 887.0949999999866,
      "v": 100
    },
    {
      "midi": 60,
      "hit": false,
      "t": 110312.2793749999,
      "d": 884.0708124999946,
      "v": 82
    },
    {
      "midi": 55,
      "hit": false,
      "t": 110317.3196874999,
      "d": 853.8289374999877,
      "v": 72
    },
    {
      "midi": 56,
      "hit": false,
      "t": 110317.3196874999,
      "d": 868.9498749999912,
      "v": 82
    },
    {
      "midi": 38,
      "hit": false,
      "t": 110806.23000000019,
      "d": 80.64500000000407,
      "v": 68
    },
    {
      "midi": 44,
      "hit": false,
      "t": 111043.12468749989,
      "d": 1184.4734375000116,
      "v": 86
    },
    {
      "midi": 63,
      "hit": false,
      "t": 111282.0354999999,
      "d": 930.4416875000024,
      "v": 100
    },
    {
      "midi": 56,
      "hit": false,
      "t": 111285.0596874999,
      "d": 899.1917499999981,
      "v": 82
    },
    {
      "midi": 55,
      "hit": false,
      "t": 111287.0758124999,
      "d": 892.1353125000023,
      "v": 72
    },
    {
      "midi": 60,
      "hit": false,
      "t": 111287.0758124999,
      "d": 910.2804374999978,
      "v": 82
    },
    {
      "midi": 38,
      "hit": false,
      "t": 111773.97000000019,
      "d": 80.64500000000407,
      "v": 68
    },
    {
      "midi": 54,
      "hit": false,
      "t": 112249.7754999999,
      "d": 1512.09375,
      "v": 94
    },
    {
      "midi": 58,
      "hit": false,
      "t": 112249.7754999999,
      "d": 1512.09375,
      "v": 89
    },
    {
      "midi": 50,
      "hit": false,
      "t": 112252.79968749991,
      "d": 1512.09375,
      "v": 73
    },
    {
      "midi": 62,
      "hit": false,
      "t": 112252.79968749991,
      "d": 1512.09375,
      "v": 101
    },
    {
      "midi": 38,
      "hit": false,
      "t": 112254.8158124999,
      "d": 1898.1816875000077,
      "v": 86
    },
    {
      "midi": 38,
      "hit": false,
      "t": 112741.7100000002,
      "d": 80.64500000000407,
      "v": 68
    },
    {
      "midi": 38,
      "hit": false,
      "t": 113709.4500000002,
      "d": 80.64500000000407,
      "v": 68
    },
    {
      "midi": 62,
      "hit": false,
      "t": 113936.2640624999,
      "d": 241.93500000001222,
      "v": 91
    },
    {
      "midi": 54,
      "hit": false,
      "t": 113936.2640624999,
      "d": 248.99143750000803,
      "v": 82
    },
    {
      "midi": 58,
      "hit": false,
      "t": 113936.2640624999,
      "d": 267.13656250001804,
      "v": 100
    },
    {
      "midi": 59,
      "hit": false,
      "t": 114183.23937499992,
      "d": 907.2562500000058,
      "v": 100
    },
    {
      "midi": 43,
      "hit": false,
      "t": 114185.25549999991,
      "d": 814.5145000000048,
      "v": 91
    },
    {
      "midi": 62,
      "hit": false,
      "t": 114188.27968749992,
      "d": 904.2320624999993,
      "v": 100
    },
    {
      "midi": 53,
      "hit": false,
      "t": 114188.27968749992,
      "d": 912.2965624999924,
      "v": 91
    },
    {
      "midi": 38,
      "hit": false,
      "t": 114677.1900000002,
      "d": 80.64500000000407,
      "v": 68
    },
    {
      "midi": 53,
      "hit": false,
      "t": 115140.8987499999,
      "d": 246.97531249999884,
      "v": 82
    },
    {
      "midi": 59,
      "hit": false,
      "t": 115140.8987499999,
      "d": 246.97531249999884,
      "v": 91
    },
    {
      "midi": 62,
      "hit": false,
      "t": 115140.8987499999,
      "d": 246.97531249999884,
      "v": 96
    },
    {
      "midi": 43,
      "hit": false,
      "t": 115147.9551874999,
      "d": 209.67699999999604,
      "v": 83
    },
    {
      "midi": 62,
      "hit": false,
      "t": 115510.8576874999,
      "d": 186.49156250001397,
      "v": 100
    },
    {
      "midi": 43,
      "hit": false,
      "t": 115513.8818749999,
      "d": 196.57218750000175,
      "v": 82
    },
    {
      "midi": 59,
      "hit": false,
      "t": 115515.8979999999,
      "d": 189.51575000000594,
      "v": 91
    },
    {
      "midi": 67,
      "hit": false,
      "t": 115518.9221874999,
      "d": 173.38675000000512,
      "v": 95
    },
    {
      "midi": 38,
      "hit": false,
      "t": 115644.93000000021,
      "d": 80.64500000000407,
      "v": 68
    },
    {
      "midi": 62,
      "hit": false,
      "t": 115861.66343749991,
      "d": 262.0962500000023,
      "v": 100
    },
    {
      "midi": 43,
      "hit": false,
      "t": 115873.76018749991,
      "d": 244.9591875000042,
      "v": 82
    },
    {
      "midi": 59,
      "hit": false,
      "t": 116123.75968749991,
      "d": 7.056437499995809,
      "v": 87
    },
    {
      "midi": 48,
      "hit": false,
      "t": 116123.75968749991,
      "d": 1134.0703125,
      "v": 79
    },
    {
      "midi": 60,
      "hit": false,
      "t": 116123.75968749991,
      "d": 3402.2109375,
      "v": 91
    },
    {
      "midi": 55,
      "hit": false,
      "t": 116123.75968749991,
      "d": 3427.412500000006,
      "v": 94
    },
    {
      "midi": 64,
      "hit": false,
      "t": 116123.75968749991,
      "d": 3427.412500000006,
      "v": 105
    },
    {
      "midi": 38,
      "hit": false,
      "t": 116612.67000000022,
      "d": 80.64500000000407,
      "v": 68
    },
    {
      "midi": 48,
      "hit": false,
      "t": 117333.43468749992,
      "d": 637.0954999999958,
      "v": 74
    },
    {
      "midi": 38,
      "hit": false,
      "t": 117580.41000000022,
      "d": 80.64500000000407,
      "v": 68
    },
    {
      "midi": 48,
      "hit": false,
      "t": 118059.23968749991,
      "d": 1265.1184375000012,
      "v": 72
    },
    {
      "midi": 38,
      "hit": false,
      "t": 118548.15000000023,
      "d": 80.64500000000407,
      "v": 68
    },
    {
      "midi": 48,
      "hit": false,
      "t": 119407.01924999991,
      "d": 75.60468750000291,
      "v": 81
    },
    {
      "midi": 48,
      "hit": false,
      "t": 119507.82549999992,
      "d": 423.3862499999959,
      "v": 100
    },
    {
      "midi": 38,
      "hit": false,
      "t": 119515.89000000023,
      "d": 80.64500000000407,
      "v": 68
    },
    {
      "midi": 60,
      "hit": false,
      "t": 119744.72018749992,
      "d": 272.17687500000466,
      "v": 73
    },
    {
      "midi": 55,
      "hit": false,
      "t": 119754.80081249992,
      "d": 204.63668749999488,
      "v": 79
    },
    {
      "midi": 64,
      "hit": false,
      "t": 119754.80081249992,
      "d": 270.16074999999546,
      "v": 74
    },
    {
      "midi": 58,
      "hit": false,
      "t": 119991.69549999991,
      "d": 1864.9156250000087,
      "v": 93
    },
    {
      "midi": 62,
      "hit": false,
      "t": 119991.69549999991,
      "d": 1864.9156250000087,
      "v": 89
    },
    {
      "midi": 55,
      "hit": false,
      "t": 119994.71968749992,
      "d": 1864.9156250000087,
      "v": 99
    },
    {
      "midi": 65,
      "hit": false,
      "t": 119994.71968749992,
      "d": 1864.9156250000087,
      "v": 101
    },
    {
      "midi": 48,
      "hit": false,
      "t": 119996.73581249992,
      "d": 1757.0529375000042,
      "v": 86
    },
    {
      "midi": 38,
      "hit": false,
      "t": 120483.63000000024,
      "d": 80.64500000000407,
      "v": 68
    },
    {
      "midi": 38,
      "hit": false,
      "t": 121451.37000000024,
      "d": 80.64500000000407,
      "v": 68
    },
    {
      "midi": 55,
      "hit": false,
      "t": 121925.15937499993,
      "d": 1542.3356249999924,
      "v": 100
    },
    {
      "midi": 58,
      "hit": false,
      "t": 121925.15937499993,
      "d": 1562.496874999997,
      "v": 91
    },
    {
      "midi": 64,
      "hit": false,
      "t": 121925.15937499993,
      "d": 1562.496874999997,
      "v": 97
    },
    {
      "midi": 60,
      "hit": false,
      "t": 121927.17549999992,
      "d": 1567.5371874999983,
      "v": 100
    },
    {
      "midi": 48,
      "hit": false,
      "t": 121930.19968749993,
      "d": 781.2484375000058,
      "v": 69
    },
    {
      "midi": 38,
      "hit": false,
      "t": 122419.11000000025,
      "d": 80.64500000000407,
      "v": 68
    },
    {
      "midi": 48,
      "hit": false,
      "t": 122899.95581249993,
      "d": 285.28168749999895,
      "v": 73
    },
    {
      "midi": 50,
      "hit": false,
      "t": 123262.85831249993,
      "d": 282.25749999999243,
      "v": 82
    },
    {
      "midi": 38,
      "hit": false,
      "t": 123386.85000000025,
      "d": 80.64500000000407,
      "v": 68
    },
    {
      "midi": 52,
      "hit": false,
      "t": 123608.62374999993,
      "d": 277.2171875000058,
      "v": 82
    },
    {
      "midi": 72,
      "hit": false,
      "t": 123860.63937499993,
      "d": 1766.1255000000092,
      "v": 101
    },
    {
      "midi": 69,
      "hit": false,
      "t": 123860.63937499993,
      "d": 1771.1658125000104,
      "v": 92
    },
    {
      "midi": 76,
      "hit": false,
      "t": 123862.65549999992,
      "d": 1743.94812500001,
      "v": 92
    },
    {
      "midi": 65,
      "hit": false,
      "t": 123862.65549999992,
      "d": 1772.1738750000222,
      "v": 92
    },
    {
      "midi": 41,
      "hit": false,
      "t": 123865.67968749993,
      "d": 1871.972062500019,
      "v": 99
    },
    {
      "midi": 38,
      "hit": false,
      "t": 124354.59000000026,
      "d": 80.64500000000407,
      "v": 68
    },
    {
      "midi": 64,
      "hit": false,
      "t": 124588.46049999993,
      "d": 1116.9332500000164,
      "v": 91
    },
    {
      "midi": 38,
      "hit": false,
      "t": 125322.33000000026,
      "d": 80.64500000000407,
      "v": 68
    },
    {
      "midi": 71,
      "hit": false,
      "t": 125791.07906249995,
      "d": 1874.9962499999965,
      "v": 96
    },
    {
      "midi": 74,
      "hit": false,
      "t": 125791.07906249995,
      "d": 1882.0526874999923,
      "v": 93
    },
    {
      "midi": 67,
      "hit": false,
      "t": 125796.11937499995,
      "d": 1854.8349999999919,
      "v": 92
    },
    {
      "midi": 64,
      "hit": false,
      "t": 125798.13549999995,
      "d": 1847.778562499996,
      "v": 92
    },
    {
      "midi": 40,
      "hit": false,
      "t": 125798.13549999995,
      "d": 1857.8591874999984,
      "v": 99
    },
    {
      "midi": 38,
      "hit": false,
      "t": 126290.07000000027,
      "d": 80.64500000000407,
      "v": 68
    },
    {
      "midi": 62,
      "hit": false,
      "t": 126526.96468749995,
      "d": 1108.8687499999942,
      "v": 91
    },
    {
      "midi": 38,
      "hit": false,
      "t": 127257.81000000027,
      "d": 80.64500000000407,
      "v": 68
    },
    {
      "midi": 69,
      "hit": false,
      "t": 127731.59937499995,
      "d": 924.393312500004,
      "v": 92
    },
    {
      "midi": 72,
      "hit": false,
      "t": 127731.59937499995,
      "d": 1766.1255000000092,
      "v": 101
    },
    {
      "midi": 65,
      "hit": false,
      "t": 127733.61549999994,
      "d": 1431.4487500000105,
      "v": 92
    },
    {
      "midi": 76,
      "hit": false,
      "t": 127733.61549999994,
      "d": 1743.94812500001,
      "v": 92
    },
    {
      "midi": 41,
      "hit": false,
      "t": 127736.63968749995,
      "d": 1871.9720625000045,
      "v": 99
    },
    {
      "midi": 38,
      "hit": false,
      "t": 128225.55000000028,
      "d": 80.64500000000407,
      "v": 68
    },
    {
      "midi": 69,
      "hit": false,
      "t": 128701.35549999995,
      "d": 945.5626250000059,
      "v": 91
    },
    {
      "midi": 64,
      "hit": false,
      "t": 129185.22549999996,
      "d": 463.7087499999907,
      "v": 73
    },
    {
      "midi": 38,
      "hit": false,
      "t": 129193.29000000028,
      "d": 80.64500000000407,
      "v": 68
    },
    {
      "midi": 71,
      "hit": false,
      "t": 129662.03906249994,
      "d": 1874.9962499999965,
      "v": 96
    },
    {
      "midi": 74,
      "hit": false,
      "t": 129662.03906249994,
      "d": 1882.0526874999923,
      "v": 93
    },
    {
      "midi": 67,
      "hit": false,
      "t": 129667.07937499994,
      "d": 1854.8349999999919,
      "v": 92
    },
    {
      "midi": 64,
      "hit": false,
      "t": 129669.09549999994,
      "d": 882.0546875,
      "v": 92
    },
    {
      "midi": 40,
      "hit": false,
      "t": 129669.09549999994,
      "d": 1857.8591874999984,
      "v": 99
    },
    {
      "midi": 38,
      "hit": false,
      "t": 130161.03000000029,
      "d": 80.64500000000407,
      "v": 68
    },
    {
      "midi": 64,
      "hit": false,
      "t": 130634.81937499993,
      "d": 919.3530000000028,
      "v": 78
    },
    {
      "midi": 72,
      "hit": false,
      "t": 131125.74581249992,
      "d": 451.6120000000228,
      "v": 90
    },
    {
      "midi": 38,
      "hit": false,
      "t": 131128.77000000028,
      "d": 80.64499999998952,
      "v": 68
    },
    {
      "midi": 69,
      "hit": false,
      "t": 131602.55937499995,
      "d": 924.393312500004,
      "v": 92
    },
    {
      "midi": 72,
      "hit": false,
      "t": 131602.55937499995,
      "d": 1640.1176875000237,
      "v": 101
    },
    {
      "midi": 65,
      "hit": false,
      "t": 131604.57549999995,
      "d": 1431.4487500000105,
      "v": 92
    },
    {
      "midi": 76,
      "hit": false,
      "t": 131604.57549999995,
      "d": 1743.9481250000536,
      "v": 92
    },
    {
      "midi": 41,
      "hit": false,
      "t": 131607.59968749995,
      "d": 1871.9720625000482,
      "v": 99
    },
    {
      "midi": 38,
      "hit": false,
      "t": 132096.51000000027,
      "d": 80.64499999998952,
      "v": 68
    },
    {
      "midi": 69,
      "hit": false,
      "t": 132572.31549999997,
      "d": 693.5470000000205,
      "v": 91
    },
    {
      "midi": 64,
      "hit": false,
      "t": 133056.18549999996,
      "d": 463.7087500000489,
      "v": 73
    },
    {
      "midi": 38,
      "hit": false,
      "t": 133064.25000000026,
      "d": 80.64499999998952,
      "v": 68
    },
    {
      "midi": 69,
      "hit": false,
      "t": 133303.1608125,
      "d": 201.61250000001746,
      "v": 91
    },
    {
      "midi": 72,
      "hit": false,
      "t": 133303.1608125,
      "d": 216.73343750002095,
      "v": 87
    },
    {
      "midi": 66,
      "hit": false,
      "t": 133532.99906250002,
      "d": 1874.9962499999965,
      "v": 96
    },
    {
      "midi": 69,
      "hit": false,
      "t": 133532.99906250002,
      "d": 1882.0526874999923,
      "v": 93
    },
    {
      "midi": 64,
      "hit": false,
      "t": 133538.03937500002,
      "d": 1854.8349999999919,
      "v": 92
    },
    {
      "midi": 38,
      "hit": false,
      "t": 133540.05550000002,
      "d": 1857.8591874999984,
      "v": 99
    },
    {
      "midi": 60,
      "hit": false,
      "t": 133540.05550000002,
      "d": 1864.9156249999942,
      "v": 92
    },
    {
      "midi": 38,
      "hit": false,
      "t": 134031.99000000025,
      "d": 80.64499999998952,
      "v": 68
    },
    {
      "midi": 57,
      "hit": false,
      "t": 134870.698,
      "d": 557.4585625000182,
      "v": 91
    },
    {
      "midi": 38,
      "hit": false,
      "t": 134999.73000000024,
      "d": 80.64499999998952,
      "v": 68
    },
    {
      "midi": 65,
      "hit": false,
      "t": 135473.51937500003,
      "d": 1141.1267499999958,
      "v": 100
    },
    {
      "midi": 72,
      "hit": false,
      "t": 135478.55968750003,
      "d": 1144.1509375000023,
      "v": 91
    },
    {
      "midi": 60,
      "hit": false,
      "t": 135480.57581250003,
      "d": 1118.9493749999965,
      "v": 91
    },
    {
      "midi": 43,
      "hit": false,
      "t": 135480.57581250003,
      "d": 1127.0138750000042,
      "v": 82
    },
    {
      "midi": 69,
      "hit": false,
      "t": 135488.64031250004,
      "d": 1120.9654999999912,
      "v": 91
    },
    {
      "midi": 38,
      "hit": false,
      "t": 135967.47000000023,
      "d": 80.64499999998952,
      "v": 68
    },
    {
      "midi": 60,
      "hit": false,
      "t": 136680.17018750004,
      "d": 285.2816875000135,
      "v": 82
    },
    {
      "midi": 65,
      "hit": false,
      "t": 136685.21050000004,
      "d": 282.257500000007,
      "v": 91
    },
    {
      "midi": 43,
      "hit": false,
      "t": 136688.23468750005,
      "d": 264.112374999997,
      "v": 82
    },
    {
      "midi": 69,
      "hit": false,
      "t": 136690.25081250005,
      "d": 285.2816875000135,
      "v": 91
    },
    {
      "midi": 38,
      "hit": false,
      "t": 136935.21000000022,
      "d": 80.64499999998952,
      "v": 68
    },
    {
      "midi": 69,
      "hit": false,
      "t": 137056.17750000005,
      "d": 329.636437499983,
      "v": 100
    },
    {
      "midi": 72,
      "hit": false,
      "t": 137056.17750000005,
      "d": 329.636437499983,
      "v": 91
    },
    {
      "midi": 43,
      "hit": false,
      "t": 137058.19362500004,
      "d": 255.03981250000652,
      "v": 69
    },
    {
      "midi": 65,
      "hit": false,
      "t": 137061.21781250005,
      "d": 317.53968749998603,
      "v": 82
    },
    {
      "midi": 62,
      "hit": false,
      "t": 137408.99937500004,
      "d": 1864.9156249999942,
      "v": 90
    },
    {
      "midi": 67,
      "hit": false,
      "t": 137408.99937500004,
      "d": 1864.9156249999942,
      "v": 100
    },
    {
      "midi": 71,
      "hit": false,
      "t": 137408.99937500004,
      "d": 1864.9156249999942,
      "v": 100
    },
    {
      "midi": 74,
      "hit": false,
      "t": 137408.99937500004,
      "d": 1864.9156249999942,
      "v": 97
    },
    {
      "midi": 43,
      "hit": false,
      "t": 137416.05581250004,
      "d": 1864.9156249999942,
      "v": 82
    },
    {
      "midi": 38,
      "hit": false,
      "t": 137902.95000000022,
      "d": 80.64499999998952,
      "v": 68
    },
    {
      "midi": 38,
      "hit": false,
      "t": 138386.8200000002,
      "d": 52.419250000006286,
      "v": 38
    },
    {
      "midi": 38,
      "hit": false,
      "t": 138507.7875000002,
      "d": 50.40312500001164,
      "v": 49
    },
    {
      "midi": 38,
      "hit": false,
      "t": 138628.7550000002,
      "d": 57.45956250000745,
      "v": 59
    },
    {
      "midi": 38,
      "hit": false,
      "t": 138749.7225000002,
      "d": 57.45956250000745,
      "v": 65
    },
    {
      "midi": 38,
      "hit": false,
      "t": 138870.6900000002,
      "d": 57.45956250000745,
      "v": 71
    },
    {
      "midi": 38,
      "hit": false,
      "t": 138991.6575000002,
      "d": 57.45956250000745,
      "v": 59
    },
    {
      "midi": 59,
      "hit": false,
      "t": 139104.56050000005,
      "d": 229.8382499999716,
      "v": 85
    },
    {
      "midi": 55,
      "hit": false,
      "t": 139344.47937500002,
      "d": 1864.9156250000233,
      "v": 94
    },
    {
      "midi": 59,
      "hit": false,
      "t": 139344.47937500002,
      "d": 1864.9156250000233,
      "v": 86
    },
    {
      "midi": 60,
      "hit": false,
      "t": 139344.47937500002,
      "d": 1864.9156250000233,
      "v": 88
    },
    {
      "midi": 64,
      "hit": false,
      "t": 139344.47937500002,
      "d": 1864.9156250000233,
      "v": 103
    },
    {
      "midi": 48,
      "hit": false,
      "t": 139349.51968750003,
      "d": 680.4421875000116,
      "v": 79
    },
    {
      "midi": 38,
      "hit": false,
      "t": 139838.43000000023,
      "d": 80.64499999998952,
      "v": 68
    },
    {
      "midi": 48,
      "hit": false,
      "t": 140072.30050000004,
      "d": 897.1756250000035,
      "v": 73
    },
    {
      "midi": 38,
      "hit": false,
      "t": 140806.17000000022,
      "d": 80.64499999998952,
      "v": 68
    },
    {
      "midi": 43,
      "hit": false,
      "t": 141038.02437500004,
      "d": 241.93500000002678,
      "v": 73
    },
    {
      "midi": 69,
      "hit": false,
      "t": 141276.93518750006,
      "d": 1804.4318749999802,
      "v": 101
    },
    {
      "midi": 60,
      "hit": false,
      "t": 141279.95937500006,
      "d": 428.42656249998254,
      "v": 92
    },
    {
      "midi": 64,
      "hit": false,
      "t": 141281.97550000006,
      "d": 1774.1899999999732,
      "v": 91
    },
    {
      "midi": 41,
      "hit": false,
      "t": 141284.99968750007,
      "d": 1864.915624999965,
      "v": 72
    },
    {
      "midi": 65,
      "hit": false,
      "t": 141287.01581250006,
      "d": 1772.1738749999786,
      "v": 91
    },
    {
      "midi": 60,
      "hit": false,
      "t": 141760.80518750005,
      "d": 461.69262499999604,
      "v": 80
    },
    {
      "midi": 38,
      "hit": false,
      "t": 141773.9100000002,
      "d": 80.64499999998952,
      "v": 68
    },
    {
      "midi": 48,
      "hit": false,
      "t": 142007.78050000005,
      "d": 735.8856249999953,
      "v": 73
    },
    {
      "midi": 60,
      "hit": false,
      "t": 142252.73968750006,
      "d": 221.77374999999302,
      "v": 86
    },
    {
      "midi": 57,
      "hit": false,
      "t": 142491.65050000005,
      "d": 257.05593750000116,
      "v": 61
    },
    {
      "midi": 60,
      "hit": false,
      "t": 142733.58550000004,
      "d": 241.93499999999767,
      "v": 85
    },
    {
      "midi": 38,
      "hit": false,
      "t": 142741.6500000002,
      "d": 80.64499999998952,
      "v": 68
    },
    {
      "midi": 48,
      "hit": false,
      "t": 142958.38343750004,
      "d": 233.87049999999,
      "v": 69
    },
    {
      "midi": 57,
      "hit": false,
      "t": 142980.56081250004,
      "d": 234.87856250000186,
      "v": 65
    },
    {
      "midi": 60,
      "hit": false,
      "t": 143215.43937500005,
      "d": 1864.9156250000233,
      "v": 88
    },
    {
      "midi": 64,
      "hit": false,
      "t": 143215.43937500005,
      "d": 1864.9156250000233,
      "v": 103
    },
    {
      "midi": 67,
      "hit": false,
      "t": 143215.43937500005,
      "d": 1864.9156250000233,
      "v": 94
    },
    {
      "midi": 71,
      "hit": false,
      "t": 143215.43937500005,
      "d": 1864.9156250000233,
      "v": 86
    },
    {
      "midi": 48,
      "hit": false,
      "t": 143220.47968750005,
      "d": 680.4421875000116,
      "v": 79
    },
    {
      "midi": 38,
      "hit": false,
      "t": 143709.3900000002,
      "d": 80.64499999998952,
      "v": 68
    },
    {
      "midi": 48,
      "hit": false,
      "t": 143943.26050000006,
      "d": 897.1756250000035,
      "v": 73
    },
    {
      "midi": 38,
      "hit": false,
      "t": 144677.13000000018,
      "d": 80.64499999998952,
      "v": 68
    },
    {
      "midi": 43,
      "hit": false,
      "t": 144908.98437500006,
      "d": 241.93500000002678,
      "v": 73
    },
    {
      "midi": 69,
      "hit": false,
      "t": 145147.89518750008,
      "d": 1804.4318749999802,
      "v": 101
    },
    {
      "midi": 60,
      "hit": false,
      "t": 145150.91937500008,
      "d": 428.42656249998254,
      "v": 88
    },
    {
      "midi": 64,
      "hit": false,
      "t": 145152.93550000008,
      "d": 1774.1899999999732,
      "v": 91
    },
    {
      "midi": 41,
      "hit": false,
      "t": 145155.9596875001,
      "d": 1864.915624999965,
      "v": 72
    },
    {
      "midi": 65,
      "hit": false,
      "t": 145157.97581250008,
      "d": 1772.1738749999786,
      "v": 91
    },
    {
      "midi": 60,
      "hit": false,
      "t": 145631.76518750007,
      "d": 461.69262499999604,
      "v": 80
    },
    {
      "midi": 38,
      "hit": false,
      "t": 145644.87000000017,
      "d": 80.64499999998952,
      "v": 68
    },
    {
      "midi": 48,
      "hit": false,
      "t": 145878.74050000007,
      "d": 735.8856249999953,
      "v": 73
    },
    {
      "midi": 57,
      "hit": false,
      "t": 145881.76468750008,
      "d": 1199.594374999986,
      "v": 73
    },
    {
      "midi": 60,
      "hit": false,
      "t": 146120.67550000007,
      "d": 481.8538750000007,
      "v": 91
    },
    {
      "midi": 62,
      "hit": false,
      "t": 146609.58581250007,
      "d": 481.8538750000007,
      "v": 91
    },
    {
      "midi": 38,
      "hit": false,
      "t": 146612.61000000016,
      "d": 80.64499999998952,
      "v": 68
    },
    {
      "midi": 48,
      "hit": false,
      "t": 146829.34343750007,
      "d": 233.87049999999,
      "v": 69
    },
    {
      "midi": 60,
      "hit": false,
      "t": 147086.39937500007,
      "d": 1864.9156250000233,
      "v": 88
    },
    {
      "midi": 64,
      "hit": false,
      "t": 147086.39937500007,
      "d": 1864.9156250000233,
      "v": 103
    },
    {
      "midi": 67,
      "hit": false,
      "t": 147086.39937500007,
      "d": 1864.9156250000233,
      "v": 94
    },
    {
      "midi": 71,
      "hit": false,
      "t": 147086.39937500007,
      "d": 1864.9156250000233,
      "v": 86
    },
    {
      "midi": 48,
      "hit": false,
      "t": 147091.43968750007,
      "d": 680.4421875000116,
      "v": 79
    },
    {
      "midi": 38,
      "hit": false,
      "t": 147580.35000000015,
      "d": 80.64499999998952,
      "v": 68
    },
    {
      "midi": 48,
      "hit": false,
      "t": 147814.22050000008,
      "d": 897.1756250000035,
      "v": 73
    },
    {
      "midi": 38,
      "hit": false,
      "t": 148548.09000000014,
      "d": 80.64499999998952,
      "v": 68
    },
    {
      "midi": 43,
      "hit": false,
      "t": 148779.94437500008,
      "d": 241.93500000002678,
      "v": 73
    },
    {
      "midi": 69,
      "hit": false,
      "t": 149018.8551875001,
      "d": 1804.4318749999802,
      "v": 101
    },
    {
      "midi": 60,
      "hit": false,
      "t": 149021.8793750001,
      "d": 428.42656249998254,
      "v": 92
    },
    {
      "midi": 64,
      "hit": false,
      "t": 149023.8955000001,
      "d": 1774.1899999999732,
      "v": 91
    },
    {
      "midi": 41,
      "hit": false,
      "t": 149026.9196875001,
      "d": 1864.915624999965,
      "v": 72
    },
    {
      "midi": 65,
      "hit": false,
      "t": 149028.9358125001,
      "d": 1772.1738749999786,
      "v": 91
    },
    {
      "midi": 60,
      "hit": false,
      "t": 149502.7251875001,
      "d": 461.69262499999604,
      "v": 80
    },
    {
      "midi": 38,
      "hit": false,
      "t": 149515.83000000013,
      "d": 80.64499999998952,
      "v": 68
    },
    {
      "midi": 48,
      "hit": false,
      "t": 149749.7005000001,
      "d": 735.8856249999953,
      "v": 73
    },
    {
      "midi": 60,
      "hit": false,
      "t": 149994.6596875001,
      "d": 221.77374999999302,
      "v": 86
    },
    {
      "midi": 57,
      "hit": false,
      "t": 150233.5705000001,
      "d": 257.05593750000116,
      "v": 61
    },
    {
      "midi": 62,
      "hit": false,
      "t": 150475.5055000001,
      "d": 241.93499999999767,
      "v": 85
    },
    {
      "midi": 38,
      "hit": false,
      "t": 150483.57000000012,
      "d": 80.64499999998952,
      "v": 68
    },
    {
      "midi": 48,
      "hit": false,
      "t": 150700.3034375001,
      "d": 233.87049999999,
      "v": 69
    },
    {
      "midi": 60,
      "hit": false,
      "t": 150722.4808125001,
      "d": 234.87856250000186,
      "v": 65
    },
    {
      "midi": 60,
      "hit": false,
      "t": 150957.3593750001,
      "d": 1864.9156250000233,
      "v": 88
    },
    {
      "midi": 64,
      "hit": false,
      "t": 150957.3593750001,
      "d": 1864.9156250000233,
      "v": 103
    },
    {
      "midi": 67,
      "hit": false,
      "t": 150957.3593750001,
      "d": 1864.9156250000233,
      "v": 94
    },
    {
      "midi": 71,
      "hit": false,
      "t": 150957.3593750001,
      "d": 1864.9156250000233,
      "v": 86
    },
    {
      "midi": 48,
      "hit": false,
      "t": 150962.3996875001,
      "d": 680.4421875000116,
      "v": 79
    },
    {
      "midi": 38,
      "hit": false,
      "t": 151451.3100000001,
      "d": 80.64499999998952,
      "v": 68
    },
    {
      "midi": 48,
      "hit": false,
      "t": 151685.1805000001,
      "d": 897.1756250000035,
      "v": 73
    },
    {
      "midi": 38,
      "hit": false,
      "t": 152419.0500000001,
      "d": 80.64499999998952,
      "v": 68
    },
    {
      "midi": 43,
      "hit": false,
      "t": 152650.9043750001,
      "d": 241.93500000002678,
      "v": 73
    },
    {
      "midi": 69,
      "hit": false,
      "t": 152889.81518750012,
      "d": 1804.4318749999802,
      "v": 101
    },
    {
      "midi": 60,
      "hit": false,
      "t": 152892.83937500013,
      "d": 428.42656249998254,
      "v": 88
    },
    {
      "midi": 64,
      "hit": false,
      "t": 152894.85550000012,
      "d": 1774.1899999999732,
      "v": 91
    },
    {
      "midi": 41,
      "hit": false,
      "t": 152897.87968750013,
      "d": 1864.915624999965,
      "v": 72
    },
    {
      "midi": 65,
      "hit": false,
      "t": 152899.89581250012,
      "d": 1772.1738749999786,
      "v": 91
    },
    {
      "midi": 60,
      "hit": false,
      "t": 153373.68518750012,
      "d": 461.69262499999604,
      "v": 80
    },
    {
      "midi": 38,
      "hit": false,
      "t": 153386.7900000001,
      "d": 80.64499999998952,
      "v": 68
    },
    {
      "midi": 48,
      "hit": false,
      "t": 153620.66050000011,
      "d": 735.8856249999953,
      "v": 73
    },
    {
      "midi": 57,
      "hit": false,
      "t": 153623.68468750012,
      "d": 1199.594374999986,
      "v": 73
    },
    {
      "midi": 60,
      "hit": false,
      "t": 153862.5955000001,
      "d": 481.8538750000007,
      "v": 91
    },
    {
      "midi": 62,
      "hit": false,
      "t": 154351.5058125001,
      "d": 481.8538750000007,
      "v": 91
    },
    {
      "midi": 38,
      "hit": false,
      "t": 154354.5300000001,
      "d": 80.64499999998952,
      "v": 68
    },
    {
      "midi": 48,
      "hit": false,
      "t": 154571.2634375001,
      "d": 233.87049999999,
      "v": 69
    },
    {
      "midi": 60,
      "hit": false,
      "t": 154828.3193750001,
      "d": 1864.9156250000233,
      "v": 88
    },
    {
      "midi": 64,
      "hit": false,
      "t": 154828.3193750001,
      "d": 1864.9156250000233,
      "v": 103
    },
    {
      "midi": 67,
      "hit": false,
      "t": 154828.3193750001,
      "d": 1864.9156250000233,
      "v": 94
    },
    {
      "midi": 71,
      "hit": false,
      "t": 154828.3193750001,
      "d": 1864.9156250000233,
      "v": 86
    },
    {
      "midi": 48,
      "hit": false,
      "t": 154833.3596875001,
      "d": 680.4421875000116,
      "v": 79
    },
    {
      "midi": 38,
      "hit": false,
      "t": 155322.27000000008,
      "d": 80.64499999998952,
      "v": 68
    },
    {
      "midi": 48,
      "hit": false,
      "t": 155556.14050000013,
      "d": 897.1756250000035,
      "v": 73
    },
    {
      "midi": 38,
      "hit": false,
      "t": 156290.01000000007,
      "d": 80.64499999998952,
      "v": 68
    },
    {
      "midi": 43,
      "hit": false,
      "t": 156521.86437500012,
      "d": 241.93500000002678,
      "v": 73
    },
    {
      "midi": 69,
      "hit": false,
      "t": 156760.77518750014,
      "d": 1804.4318749999802,
      "v": 101
    },
    {
      "midi": 60,
      "hit": false,
      "t": 156763.79937500015,
      "d": 428.42656249998254,
      "v": 92
    },
    {
      "midi": 64,
      "hit": false,
      "t": 156765.81550000014,
      "d": 1774.1899999999732,
      "v": 91
    },
    {
      "midi": 41,
      "hit": false,
      "t": 156768.83968750015,
      "d": 1864.915624999965,
      "v": 72
    },
    {
      "midi": 65,
      "hit": false,
      "t": 156770.85581250014,
      "d": 1772.1738749999786,
      "v": 91
    },
    {
      "midi": 60,
      "hit": false,
      "t": 157244.64518750014,
      "d": 461.69262499999604,
      "v": 80
    },
    {
      "midi": 38,
      "hit": false,
      "t": 157257.75000000006,
      "d": 80.64499999998952,
      "v": 68
    },
    {
      "midi": 48,
      "hit": false,
      "t": 157491.62050000014,
      "d": 735.8856249999953,
      "v": 73
    },
    {
      "midi": 60,
      "hit": false,
      "t": 157736.57968750014,
      "d": 221.77374999999302,
      "v": 86
    },
    {
      "midi": 57,
      "hit": false,
      "t": 157975.49050000013,
      "d": 257.05593750000116,
      "v": 61
    },
    {
      "midi": 62,
      "hit": false,
      "t": 158217.42550000013,
      "d": 241.93499999999767,
      "v": 85
    },
    {
      "midi": 38,
      "hit": false,
      "t": 158225.49000000005,
      "d": 80.64499999998952,
      "v": 68
    },
    {
      "midi": 48,
      "hit": false,
      "t": 158442.22343750013,
      "d": 233.87049999999,
      "v": 69
    },
    {
      "midi": 60,
      "hit": false,
      "t": 158464.40081250013,
      "d": 234.87856250000186,
      "v": 65
    },
    {
      "midi": 60,
      "hit": false,
      "t": 158699.27937500013,
      "d": 1864.9156250000233,
      "v": 88
    },
    {
      "midi": 64,
      "hit": false,
      "t": 158699.27937500013,
      "d": 1864.9156250000233,
      "v": 103
    },
    {
      "midi": 67,
      "hit": false,
      "t": 158699.27937500013,
      "d": 1864.9156250000233,
      "v": 94
    },
    {
      "midi": 71,
      "hit": false,
      "t": 158699.27937500013,
      "d": 1864.9156250000233,
      "v": 86
    },
    {
      "midi": 48,
      "hit": false,
      "t": 158704.31968750013,
      "d": 680.4421875000116,
      "v": 79
    },
    {
      "midi": 38,
      "hit": false,
      "t": 159193.23000000004,
      "d": 80.64499999998952,
      "v": 68
    },
    {
      "midi": 48,
      "hit": false,
      "t": 159427.10050000015,
      "d": 897.1756250000035,
      "v": 73
    },
    {
      "midi": 38,
      "hit": false,
      "t": 160160.97000000003,
      "d": 80.64499999998952,
      "v": 68
    },
    {
      "midi": 43,
      "hit": false,
      "t": 160392.82437500014,
      "d": 241.93500000002678,
      "v": 73
    },
    {
      "midi": 69,
      "hit": false,
      "t": 160631.73518750016,
      "d": 604.8374999999942,
      "v": 101
    },
    {
      "midi": 72,
      "hit": false,
      "t": 160634.75937500017,
      "d": 579.6359374999884,
      "v": 92
    },
    {
      "midi": 64,
      "hit": false,
      "t": 160636.77550000016,
      "d": 604.8374999999942,
      "v": 91
    },
    {
      "midi": 41,
      "hit": false,
      "t": 160639.79968750017,
      "d": 604.8374999999942,
      "v": 72
    },
    {
      "midi": 65,
      "hit": false,
      "t": 160641.81581250016,
      "d": 604.8374999999942,
      "v": 91
    },
    {
      "midi": 38,
      "hit": false,
      "t": 160644.84000000003,
      "d": 62.499875000008615,
      "v": 59
    },
    {
      "midi": 38,
      "hit": false,
      "t": 160765.80750000002,
      "d": 85.68531249999069,
      "v": 68
    },
    {
      "midi": 38,
      "hit": false,
      "t": 160886.77500000002,
      "d": 65.52406249998603,
      "v": 55
    },
    {
      "midi": 38,
      "hit": false,
      "t": 161007.74250000002,
      "d": 80.64499999998952,
      "v": 68
    },
    {
      "midi": 38,
      "hit": false,
      "t": 161128.71000000002,
      "d": 60.48375000001397,
      "v": 68
    },
    {
      "midi": 43,
      "hit": false,
      "t": 161604.51550000015,
      "d": 85.68531249999069,
      "v": 100
    },
    {
      "midi": 59,
      "hit": false,
      "t": 161609.55581250016,
      "d": 113.91106250000303,
      "v": 91
    },
    {
      "midi": 55,
      "hit": false,
      "t": 161609.55581250016,
      "d": 118.95137500000419,
      "v": 101
    },
    {
      "midi": 53,
      "hit": false,
      "t": 161609.55581250016,
      "d": 146.16906250000466,
      "v": 91
    },
    {
      "midi": 62,
      "hit": false,
      "t": 161609.55581250016,
      "d": 146.16906250000466,
      "v": 103
    },
    {
      "midi": 43,
      "hit": false,
      "t": 161955.32125000015,
      "d": 141.1287500000035,
      "v": 100
    },
    {
      "midi": 63,
      "hit": false,
      "t": 161955.32125000015,
      "d": 178.4270625000063,
      "v": 104
    },
    {
      "midi": 55,
      "hit": false,
      "t": 161957.33737500015,
      "d": 131.04812500000116,
      "v": 91
    },
    {
      "midi": 59,
      "hit": false,
      "t": 161957.33737500015,
      "d": 151.20937500000582,
      "v": 91
    },
    {
      "midi": 53,
      "hit": false,
      "t": 161962.37768750015,
      "d": 131.04812500000116,
      "v": 82
    },
    {
      "midi": 55,
      "hit": false,
      "t": 162287.98187500017,
      "d": 143.14487499999814,
      "v": 100
    },
    {
      "midi": 59,
      "hit": false,
      "t": 162287.98187500017,
      "d": 173.38675000000512,
      "v": 99
    },
    {
      "midi": 65,
      "hit": false,
      "t": 162289.99800000017,
      "d": 161.29000000000815,
      "v": 109
    },
    {
      "midi": 43,
      "hit": false,
      "t": 162293.02218750017,
      "d": 146.16906250000466,
      "v": 99
    },
    {
      "midi": 53,
      "hit": false,
      "t": 162293.02218750017,
      "d": 173.38675000000512,
      "v": 91
    },
    {
      "midi": 63,
      "hit": false,
      "t": 162575.27968750018,
      "d": 919.3530000000028,
      "v": 105
    },
    {
      "midi": 56,
      "hit": false,
      "t": 162575.27968750018,
      "d": 929.4336250000051,
      "v": 91
    },
    {
      "midi": 60,
      "hit": false,
      "t": 162575.27968750018,
      "d": 1587.6984374999884,
      "v": 91
    },
    {
      "midi": 55,
      "hit": false,
      "t": 162575.27968750018,
      "d": 1640.1176874999946,
      "v": 100
    },
    {
      "midi": 44,
      "hit": false,
      "t": 162575.27968750018,
      "d": 1670.3595625000016,
      "v": 99
    },
    {
      "midi": 38,
      "hit": false,
      "t": 163064.19000000003,
      "d": 80.64499999998952,
      "v": 68
    },
    {
      "midi": 56,
      "hit": false,
      "t": 163543.01968750017,
      "d": 2580.640000000043,
      "v": 83
    },
    {
      "midi": 63,
      "hit": false,
      "t": 163545.03581250017,
      "d": 2590.7206250000454,
      "v": 100
    },
    {
      "midi": 72,
      "hit": false,
      "t": 163550.07612500017,
      "d": 2600.8012500000477,
      "v": 100
    },
    {
      "midi": 67,
      "hit": false,
      "t": 163663.98718750017,
      "d": 2481.8498750000435,
      "v": 69
    },
    {
      "midi": 38,
      "hit": false,
      "t": 164031.93000000002,
      "d": 80.64499999998952,
      "v": 68
    },
    {
      "midi": 38,
      "hit": false,
      "t": 164999.67,
      "d": 80.64499999998952,
      "v": 68
    },
    {
      "midi": 44,
      "hit": false,
      "t": 165236.56468750018,
      "d": 546.369875000004,
      "v": 86
    },
    {
      "midi": 44,
      "hit": false,
      "t": 165843.4183125002,
      "d": 456.6523124999949,
      "v": 76
    },
    {
      "midi": 38,
      "hit": false,
      "t": 165967.41,
      "d": 80.64499999998952,
      "v": 68
    },
    {
      "midi": 55,
      "hit": false,
      "t": 166204.3046875002,
      "d": 226.81406249999418,
      "v": 91
    },
    {
      "midi": 56,
      "hit": false,
      "t": 166204.3046875002,
      "d": 231.85437499999534,
      "v": 91
    },
    {
      "midi": 60,
      "hit": false,
      "t": 166204.3046875002,
      "d": 236.8946874999965,
      "v": 100
    },
    {
      "midi": 63,
      "hit": false,
      "t": 166204.3046875002,
      "d": 252.015625,
      "v": 91
    },
    {
      "midi": 58,
      "hit": false,
      "t": 166443.2155000002,
      "d": 2570.5593750000116,
      "v": 89
    },
    {
      "midi": 54,
      "hit": false,
      "t": 166443.2155000002,
      "d": 2646.164062500029,
      "v": 93
    },
    {
      "midi": 62,
      "hit": false,
      "t": 166446.2396875002,
      "d": 2520.15625,
      "v": 101
    },
    {
      "midi": 50,
      "hit": false,
      "t": 166446.2396875002,
      "d": 2570.5593750000116,
      "v": 73
    },
    {
      "midi": 38,
      "hit": false,
      "t": 166448.2558125002,
      "d": 1757.0529375000042,
      "v": 86
    },
    {
      "midi": 38,
      "hit": false,
      "t": 166935.15,
      "d": 80.64499999998952,
      "v": 68
    },
    {
      "midi": 38,
      "hit": false,
      "t": 167902.88999999998,
      "d": 80.64499999998952,
      "v": 68
    },
    {
      "midi": 38,
      "hit": false,
      "t": 168381.7196875002,
      "d": 902.2159375000047,
      "v": 69
    },
    {
      "midi": 38,
      "hit": false,
      "t": 168870.62999999998,
      "d": 80.64499999998952,
      "v": 68
    },
    {
      "midi": 50,
      "hit": false,
      "t": 169109.54081250023,
      "d": 224.79793749999953,
      "v": 100
    },
    {
      "midi": 43,
      "hit": false,
      "t": 169346.43550000023,
      "d": 85.68531249999069,
      "v": 100
    },
    {
      "midi": 59,
      "hit": false,
      "t": 169351.47581250023,
      "d": 113.91106250000303,
      "v": 91
    },
    {
      "midi": 55,
      "hit": false,
      "t": 169351.47581250023,
      "d": 118.95137500000419,
      "v": 101
    },
    {
      "midi": 53,
      "hit": false,
      "t": 169351.47581250023,
      "d": 146.16906250000466,
      "v": 91
    },
    {
      "midi": 62,
      "hit": false,
      "t": 169351.47581250023,
      "d": 146.16906250000466,
      "v": 103
    },
    {
      "midi": 43,
      "hit": false,
      "t": 169697.24125000022,
      "d": 141.1287500000035,
      "v": 100
    },
    {
      "midi": 63,
      "hit": false,
      "t": 169697.24125000022,
      "d": 178.4270625000063,
      "v": 104
    },
    {
      "midi": 55,
      "hit": false,
      "t": 169699.25737500022,
      "d": 131.04812500000116,
      "v": 91
    },
    {
      "midi": 59,
      "hit": false,
      "t": 169699.25737500022,
      "d": 151.20937500000582,
      "v": 91
    },
    {
      "midi": 53,
      "hit": false,
      "t": 169704.29768750022,
      "d": 131.04812500000116,
      "v": 82
    },
    {
      "midi": 38,
      "hit": false,
      "t": 169838.36999999997,
      "d": 80.64499999998952,
      "v": 68
    },
    {
      "midi": 55,
      "hit": false,
      "t": 170029.90187500024,
      "d": 143.14487499999814,
      "v": 100
    },
    {
      "midi": 59,
      "hit": false,
      "t": 170029.90187500024,
      "d": 173.38675000000512,
      "v": 99
    },
    {
      "midi": 65,
      "hit": false,
      "t": 170031.91800000024,
      "d": 161.29000000000815,
      "v": 109
    },
    {
      "midi": 43,
      "hit": false,
      "t": 170034.94218750024,
      "d": 146.16906250000466,
      "v": 99
    },
    {
      "midi": 53,
      "hit": false,
      "t": 170034.94218750024,
      "d": 173.38675000000512,
      "v": 91
    },
    {
      "midi": 44,
      "hit": false,
      "t": 170317.19968750025,
      "d": 1670.3595625000016,
      "v": 99
    },
    {
      "midi": 56,
      "hit": false,
      "t": 170317.19968750025,
      "d": 3427.412500000035,
      "v": 91
    },
    {
      "midi": 60,
      "hit": false,
      "t": 170317.19968750025,
      "d": 3427.412500000035,
      "v": 91
    },
    {
      "midi": 63,
      "hit": false,
      "t": 170317.19968750025,
      "d": 3427.412500000035,
      "v": 105
    },
    {
      "midi": 55,
      "hit": false,
      "t": 170317.19968750025,
      "d": 3429.4286250000296,
      "v": 100
    },
    {
      "midi": 38,
      "hit": false,
      "t": 170806.10999999996,
      "d": 80.64499999998952,
      "v": 68
    },
    {
      "midi": 38,
      "hit": false,
      "t": 171773.84999999995,
      "d": 80.64499999998952,
      "v": 68
    },
    {
      "midi": 44,
      "hit": false,
      "t": 172010.74468750026,
      "d": 932.4578124999825,
      "v": 83
    },
    {
      "midi": 65,
      "hit": false,
      "t": 172037.96237500026,
      "d": 103.8304375000007,
      "v": 100
    },
    {
      "midi": 67,
      "hit": false,
      "t": 172141.79281250027,
      "d": 107.86268749998999,
      "v": 82
    },
    {
      "midi": 65,
      "hit": false,
      "t": 172244.61518750025,
      "d": 1481.8518750000221,
      "v": 71
    },
    {
      "midi": 38,
      "hit": false,
      "t": 172741.58999999994,
      "d": 80.64499999998952,
      "v": 68
    },
    {
      "midi": 44,
      "hit": false,
      "t": 172978.48468750025,
      "d": 546.369875000004,
      "v": 86
    },
    {
      "midi": 44,
      "hit": false,
      "t": 173585.33831250027,
      "d": 456.6523124999949,
      "v": 76
    },
    {
      "midi": 38,
      "hit": false,
      "t": 173709.32999999993,
      "d": 80.64499999998952,
      "v": 68
    },
    {
      "midi": 56,
      "hit": false,
      "t": 173943.20050000027,
      "d": 236.8946874999965,
      "v": 91
    },
    {
      "midi": 60,
      "hit": false,
      "t": 173943.20050000027,
      "d": 236.8946874999965,
      "v": 91
    },
    {
      "midi": 63,
      "hit": false,
      "t": 173943.20050000027,
      "d": 255.03981250000652,
      "v": 91
    },
    {
      "midi": 55,
      "hit": false,
      "t": 173946.22468750027,
      "d": 257.05593750000116,
      "v": 93
    },
    {
      "midi": 58,
      "hit": false,
      "t": 174185.13550000027,
      "d": 1424.3923125000147,
      "v": 89
    },
    {
      "midi": 54,
      "hit": false,
      "t": 174185.13550000027,
      "d": 1454.6341875000217,
      "v": 93
    },
    {
      "midi": 62,
      "hit": false,
      "t": 174188.15968750027,
      "d": 1164.312187500007,
      "v": 104
    },
    {
      "midi": 50,
      "hit": false,
      "t": 174188.15968750027,
      "d": 1567.5371875000128,
      "v": 73
    },
    {
      "midi": 38,
      "hit": false,
      "t": 174190.17581250027,
      "d": 1757.0529375000042,
      "v": 86
    },
    {
      "midi": 38,
      "hit": false,
      "t": 174677.06999999992,
      "d": 80.64499999998952,
      "v": 68
    },
    {
      "midi": 62,
      "hit": false,
      "t": 175394.81050000028,
      "d": 1661.2870000000403,
      "v": 81
    },
    {
      "midi": 58,
      "hit": false,
      "t": 175636.74550000028,
      "d": 1396.1665625000314,
      "v": 64
    },
    {
      "midi": 38,
      "hit": false,
      "t": 175644.8099999999,
      "d": 80.64499999998952,
      "v": 68
    },
    {
      "midi": 50,
      "hit": false,
      "t": 175873.64018750028,
      "d": 226.81406249999418,
      "v": 69
    },
    {
      "midi": 38,
      "hit": false,
      "t": 176123.63968750028,
      "d": 902.2159375000338,
      "v": 69
    },
    {
      "midi": 50,
      "hit": false,
      "t": 176125.65581250028,
      "d": 658.2648125000123,
      "v": 81
    },
    {
      "midi": 38,
      "hit": false,
      "t": 176612.5499999999,
      "d": 80.64499999998952,
      "v": 68
    },
    {
      "midi": 50,
      "hit": false,
      "t": 176839.3640625003,
      "d": 236.8946875000256,
      "v": 91
    },
    {
      "midi": 43,
      "hit": false,
      "t": 177088.35550000033,
      "d": 85.68531249999069,
      "v": 100
    },
    {
      "midi": 59,
      "hit": false,
      "t": 177093.39581250033,
      "d": 113.91106250000303,
      "v": 91
    },
    {
      "midi": 55,
      "hit": false,
      "t": 177093.39581250033,
      "d": 118.95137500000419,
      "v": 101
    },
    {
      "midi": 53,
      "hit": false,
      "t": 177093.39581250033,
      "d": 146.16906250000466,
      "v": 91
    },
    {
      "midi": 62,
      "hit": false,
      "t": 177093.39581250033,
      "d": 146.16906250000466,
      "v": 103
    },
    {
      "midi": 43,
      "hit": false,
      "t": 177439.16125000032,
      "d": 141.1287500000035,
      "v": 100
    },
    {
      "midi": 63,
      "hit": false,
      "t": 177439.16125000032,
      "d": 178.4270625000063,
      "v": 104
    },
    {
      "midi": 55,
      "hit": false,
      "t": 177441.17737500032,
      "d": 131.04812500000116,
      "v": 91
    },
    {
      "midi": 59,
      "hit": false,
      "t": 177441.17737500032,
      "d": 151.20937500000582,
      "v": 91
    },
    {
      "midi": 53,
      "hit": false,
      "t": 177446.21768750032,
      "d": 131.04812500000116,
      "v": 82
    },
    {
      "midi": 38,
      "hit": false,
      "t": 177580.2899999999,
      "d": 80.64499999998952,
      "v": 68
    },
    {
      "midi": 55,
      "hit": false,
      "t": 177771.82187500034,
      "d": 143.14487499999814,
      "v": 100
    },
    {
      "midi": 59,
      "hit": false,
      "t": 177771.82187500034,
      "d": 173.38675000000512,
      "v": 99
    },
    {
      "midi": 65,
      "hit": false,
      "t": 177773.83800000034,
      "d": 161.29000000000815,
      "v": 109
    },
    {
      "midi": 43,
      "hit": false,
      "t": 177776.86218750034,
      "d": 146.16906250000466,
      "v": 99
    },
    {
      "midi": 53,
      "hit": false,
      "t": 177776.86218750034,
      "d": 173.38675000000512,
      "v": 91
    },
    {
      "midi": 60,
      "hit": false,
      "t": 178059.11968750035,
      "d": 1587.6984374999884,
      "v": 91
    },
    {
      "midi": 56,
      "hit": false,
      "t": 178059.11968750035,
      "d": 1633.0612499999988,
      "v": 91
    },
    {
      "midi": 55,
      "hit": false,
      "t": 178059.11968750035,
      "d": 1640.1176874999946,
      "v": 100
    },
    {
      "midi": 63,
      "hit": false,
      "t": 178059.11968750035,
      "d": 1650.198312499997,
      "v": 105
    },
    {
      "midi": 44,
      "hit": false,
      "t": 178059.11968750035,
      "d": 1670.3595625000016,
      "v": 99
    },
    {
      "midi": 38,
      "hit": false,
      "t": 178548.02999999988,
      "d": 80.64499999998952,
      "v": 68
    },
    {
      "midi": 38,
      "hit": false,
      "t": 179515.76999999987,
      "d": 80.64499999998952,
      "v": 68
    },
    {
      "midi": 60,
      "hit": false,
      "t": 179749.64050000036,
      "d": 224.79793749999953,
      "v": 91
    },
    {
      "midi": 44,
      "hit": false,
      "t": 179752.66468750036,
      "d": 932.4578125000116,
      "v": 83
    },
    {
      "midi": 65,
      "hit": false,
      "t": 179981.49487500035,
      "d": 887.0950000000303,
      "v": 100
    },
    {
      "midi": 60,
      "hit": false,
      "t": 179989.55937500036,
      "d": 884.0708125000237,
      "v": 82
    },
    {
      "midi": 55,
      "hit": false,
      "t": 179994.59968750036,
      "d": 853.8289375000168,
      "v": 72
    },
    {
      "midi": 56,
      "hit": false,
      "t": 179994.59968750036,
      "d": 868.9498750000203,
      "v": 82
    },
    {
      "midi": 38,
      "hit": false,
      "t": 180483.50999999986,
      "d": 80.64499999998952,
      "v": 68
    },
    {
      "midi": 44,
      "hit": false,
      "t": 180720.40468750038,
      "d": 1184.4734375000116,
      "v": 86
    },
    {
      "midi": 63,
      "hit": false,
      "t": 180959.31550000038,
      "d": 930.441687500017,
      "v": 100
    },
    {
      "midi": 56,
      "hit": false,
      "t": 180962.33968750038,
      "d": 899.1917499999981,
      "v": 82
    },
    {
      "midi": 55,
      "hit": false,
      "t": 180964.35581250038,
      "d": 892.1353125000023,
      "v": 72
    },
    {
      "midi": 60,
      "hit": false,
      "t": 180964.35581250038,
      "d": 910.2804375000123,
      "v": 82
    },
    {
      "midi": 38,
      "hit": false,
      "t": 181451.24999999985,
      "d": 80.64499999998952,
      "v": 68
    },
    {
      "midi": 54,
      "hit": false,
      "t": 181927.0555000004,
      "d": 1512.09375,
      "v": 94
    },
    {
      "midi": 58,
      "hit": false,
      "t": 181927.0555000004,
      "d": 1512.09375,
      "v": 89
    },
    {
      "midi": 50,
      "hit": false,
      "t": 181930.0796875004,
      "d": 1512.09375,
      "v": 73
    },
    {
      "midi": 62,
      "hit": false,
      "t": 181930.0796875004,
      "d": 1512.09375,
      "v": 101
    },
    {
      "midi": 38,
      "hit": false,
      "t": 181932.0958125004,
      "d": 1898.1816875000077,
      "v": 86
    },
    {
      "midi": 38,
      "hit": false,
      "t": 182418.98999999985,
      "d": 80.64499999998952,
      "v": 68
    },
    {
      "midi": 38,
      "hit": false,
      "t": 183386.72999999984,
      "d": 80.64499999998952,
      "v": 68
    },
    {
      "midi": 62,
      "hit": false,
      "t": 183613.5440625004,
      "d": 241.93499999999767,
      "v": 91
    },
    {
      "midi": 54,
      "hit": false,
      "t": 183613.5440625004,
      "d": 248.99143749999348,
      "v": 82
    },
    {
      "midi": 58,
      "hit": false,
      "t": 183613.5440625004,
      "d": 267.1365625000035,
      "v": 100
    },
    {
      "midi": 59,
      "hit": false,
      "t": 183860.5193750004,
      "d": 907.2562500000058,
      "v": 100
    },
    {
      "midi": 43,
      "hit": false,
      "t": 183862.5355000004,
      "d": 814.5145000000193,
      "v": 91
    },
    {
      "midi": 62,
      "hit": false,
      "t": 183865.5596875004,
      "d": 904.2320624999993,
      "v": 100
    },
    {
      "midi": 53,
      "hit": false,
      "t": 183865.5596875004,
      "d": 912.296562500007,
      "v": 91
    },
    {
      "midi": 38,
      "hit": false,
      "t": 184354.46999999983,
      "d": 80.64499999998952,
      "v": 68
    },
    {
      "midi": 53,
      "hit": false,
      "t": 184818.17875000043,
      "d": 246.97531249999884,
      "v": 82
    },
    {
      "midi": 59,
      "hit": false,
      "t": 184818.17875000043,
      "d": 246.97531249999884,
      "v": 91
    },
    {
      "midi": 62,
      "hit": false,
      "t": 184818.17875000043,
      "d": 246.97531249999884,
      "v": 96
    },
    {
      "midi": 43,
      "hit": false,
      "t": 184825.23518750042,
      "d": 209.67699999999604,
      "v": 83
    },
    {
      "midi": 62,
      "hit": false,
      "t": 185188.13768750042,
      "d": 186.49156250001397,
      "v": 100
    },
    {
      "midi": 43,
      "hit": false,
      "t": 185191.16187500043,
      "d": 196.5721875000163,
      "v": 82
    },
    {
      "midi": 59,
      "hit": false,
      "t": 185193.17800000042,
      "d": 189.5157500000205,
      "v": 91
    },
    {
      "midi": 67,
      "hit": false,
      "t": 185196.20218750043,
      "d": 173.38675000000512,
      "v": 95
    },
    {
      "midi": 38,
      "hit": false,
      "t": 185322.20999999982,
      "d": 80.64499999998952,
      "v": 47
    },
    {
      "midi": 38,
      "hit": false,
      "t": 185443.17749999982,
      "d": 80.64499999998952,
      "v": 68
    },
    {
      "midi": 62,
      "hit": false,
      "t": 185538.94343750045,
      "d": 262.0962500000023,
      "v": 100
    },
    {
      "midi": 43,
      "hit": false,
      "t": 185551.04018750045,
      "d": 244.9591875000042,
      "v": 82
    },
    {
      "midi": 38,
      "hit": false,
      "t": 185564.14499999981,
      "d": 80.64499999998952,
      "v": 64
    },
    {
      "midi": 38,
      "hit": false,
      "t": 185685.1124999998,
      "d": 80.64499999998952,
      "v": 68
    },
    {
      "midi": 59,
      "hit": false,
      "t": 185801.03968750045,
      "d": 7.056437499995809,
      "v": 87
    },
    {
      "midi": 48,
      "hit": false,
      "t": 185801.03968750045,
      "d": 1134.0703125,
      "v": 79
    },
    {
      "midi": 60,
      "hit": false,
      "t": 185801.03968750045,
      "d": 3402.210937500029,
      "v": 91
    },
    {
      "midi": 55,
      "hit": false,
      "t": 185801.03968750045,
      "d": 3427.412500000035,
      "v": 94
    },
    {
      "midi": 64,
      "hit": false,
      "t": 185801.03968750045,
      "d": 3427.412500000035,
      "v": 105
    },
    {
      "midi": 38,
      "hit": false,
      "t": 186289.9499999998,
      "d": 80.64499999998952,
      "v": 68
    },
    {
      "midi": 88,
      "hit": false,
      "t": 186768.77968750044,
      "d": 246.97531249999884,
      "v": 100
    },
    {
      "midi": 48,
      "hit": false,
      "t": 187010.71468750044,
      "d": 637.0955000000249,
      "v": 74
    },
    {
      "midi": 84,
      "hit": false,
      "t": 187027.85175000044,
      "d": 126.0078125,
      "v": 82
    },
    {
      "midi": 86,
      "hit": false,
      "t": 187116.56125000044,
      "d": 272.17687500000466,
      "v": 91
    },
    {
      "midi": 38,
      "hit": false,
      "t": 187257.6899999998,
      "d": 80.64499999998952,
      "v": 68
    },
    {
      "midi": 81,
      "hit": false,
      "t": 187393.77843750044,
      "d": 117.94331250002142,
      "v": 82
    },
    {
      "midi": 83,
      "hit": false,
      "t": 187481.47987500046,
      "d": 272.17687500000466,
      "v": 91
    },
    {
      "midi": 79,
      "hit": false,
      "t": 187736.51968750046,
      "d": 115.92718749999767,
      "v": 82
    },
    {
      "midi": 48,
      "hit": false,
      "t": 187736.51968750046,
      "d": 1265.1184375000012,
      "v": 72
    },
    {
      "midi": 81,
      "hit": false,
      "t": 187824.22112500045,
      "d": 305.44293750001816,
      "v": 73
    },
    {
      "midi": 76,
      "hit": false,
      "t": 188129.66406250047,
      "d": 67.54018750000978,
      "v": 69
    },
    {
      "midi": 79,
      "hit": false,
      "t": 188192.16393750047,
      "d": 960.6835624999949,
      "v": 82
    },
    {
      "midi": 38,
      "hit": false,
      "t": 188225.4299999998,
      "d": 80.64499999998952,
      "v": 68
    },
    {
      "midi": 48,
      "hit": false,
      "t": 189084.29925000048,
      "d": 75.60468749998836,
      "v": 81
    },
    {
      "midi": 48,
      "hit": false,
      "t": 189185.10550000047,
      "d": 423.3862500000396,
      "v": 100
    },
    {
      "midi": 38,
      "hit": false,
      "t": 189193.16999999978,
      "d": 80.64499999998952,
      "v": 68
    },
    {
      "midi": 60,
      "hit": false,
      "t": 189422.0001875005,
      "d": 272.17687500003376,
      "v": 73
    },
    {
      "midi": 55,
      "hit": false,
      "t": 189432.0808125005,
      "d": 204.63668750002398,
      "v": 79
    },
    {
      "midi": 64,
      "hit": false,
      "t": 189432.0808125005,
      "d": 270.1607500000391,
      "v": 74
    },
    {
      "midi": 58,
      "hit": false,
      "t": 189668.97550000052,
      "d": 1864.9156249999942,
      "v": 93
    },
    {
      "midi": 62,
      "hit": false,
      "t": 189668.97550000052,
      "d": 1864.9156249999942,
      "v": 89
    },
    {
      "midi": 55,
      "hit": false,
      "t": 189671.99968750053,
      "d": 1864.9156249999942,
      "v": 99
    },
    {
      "midi": 65,
      "hit": false,
      "t": 189671.99968750053,
      "d": 1864.9156249999942,
      "v": 101
    },
    {
      "midi": 48,
      "hit": false,
      "t": 189674.01581250053,
      "d": 1757.0529375000042,
      "v": 86
    },
    {
      "midi": 38,
      "hit": false,
      "t": 190160.90999999977,
      "d": 80.64499999998952,
      "v": 68
    },
    {
      "midi": 38,
      "hit": false,
      "t": 191128.64999999976,
      "d": 80.64499999998952,
      "v": 68
    },
    {
      "midi": 55,
      "hit": false,
      "t": 191602.4393750005,
      "d": 1542.335625000036,
      "v": 100
    },
    {
      "midi": 58,
      "hit": false,
      "t": 191602.4393750005,
      "d": 1562.4968750000407,
      "v": 91
    },
    {
      "midi": 64,
      "hit": false,
      "t": 191602.4393750005,
      "d": 1562.4968750000407,
      "v": 97
    },
    {
      "midi": 60,
      "hit": false,
      "t": 191604.4555000005,
      "d": 1567.537187500042,
      "v": 100
    },
    {
      "midi": 48,
      "hit": false,
      "t": 191607.4796875005,
      "d": 781.2484375000058,
      "v": 69
    },
    {
      "midi": 38,
      "hit": false,
      "t": 192096.38999999975,
      "d": 80.64499999998952,
      "v": 68
    },
    {
      "midi": 48,
      "hit": false,
      "t": 192577.23581250053,
      "d": 285.2816875000135,
      "v": 73
    },
    {
      "midi": 50,
      "hit": false,
      "t": 192940.13831250055,
      "d": 282.257500000007,
      "v": 82
    },
    {
      "midi": 38,
      "hit": false,
      "t": 193064.12999999974,
      "d": 80.64499999998952,
      "v": 68
    },
    {
      "midi": 52,
      "hit": false,
      "t": 193285.90375000055,
      "d": 277.2171875000058,
      "v": 82
    },
    {
      "midi": 72,
      "hit": false,
      "t": 193537.91937500055,
      "d": 1766.1255000000237,
      "v": 101
    },
    {
      "midi": 69,
      "hit": false,
      "t": 193537.91937500055,
      "d": 1771.165812500025,
      "v": 92
    },
    {
      "midi": 76,
      "hit": false,
      "t": 193539.93550000055,
      "d": 1743.9481250000244,
      "v": 92
    },
    {
      "midi": 65,
      "hit": false,
      "t": 193539.93550000055,
      "d": 1772.1738750000368,
      "v": 92
    },
    {
      "midi": 41,
      "hit": false,
      "t": 193542.95968750055,
      "d": 1871.972062500019,
      "v": 99
    },
    {
      "midi": 38,
      "hit": false,
      "t": 194031.86999999973,
      "d": 80.64499999998952,
      "v": 68
    },
    {
      "midi": 64,
      "hit": false,
      "t": 194265.74050000057,
      "d": 1116.9332500000019,
      "v": 91
    },
    {
      "midi": 38,
      "hit": false,
      "t": 194999.60999999972,
      "d": 80.64499999998952,
      "v": 68
    },
    {
      "midi": 71,
      "hit": false,
      "t": 195468.35906250056,
      "d": 1874.9962499999965,
      "v": 96
    },
    {
      "midi": 74,
      "hit": false,
      "t": 195468.35906250056,
      "d": 1882.0526874999923,
      "v": 93
    },
    {
      "midi": 67,
      "hit": false,
      "t": 195473.39937500056,
      "d": 1854.8349999999919,
      "v": 92
    },
    {
      "midi": 64,
      "hit": false,
      "t": 195475.41550000056,
      "d": 1847.778562499996,
      "v": 92
    },
    {
      "midi": 40,
      "hit": false,
      "t": 195475.41550000056,
      "d": 1857.8591874999984,
      "v": 99
    },
    {
      "midi": 38,
      "hit": false,
      "t": 195967.34999999971,
      "d": 80.64499999998952,
      "v": 68
    },
    {
      "midi": 62,
      "hit": false,
      "t": 196204.24468750056,
      "d": 1108.8687499999942,
      "v": 91
    },
    {
      "midi": 38,
      "hit": false,
      "t": 196935.0899999997,
      "d": 80.64499999998952,
      "v": 68
    },
    {
      "midi": 69,
      "hit": false,
      "t": 197408.87937500054,
      "d": 924.393312500004,
      "v": 92
    },
    {
      "midi": 72,
      "hit": false,
      "t": 197408.87937500054,
      "d": 1766.1255000000237,
      "v": 101
    },
    {
      "midi": 65,
      "hit": false,
      "t": 197410.89550000054,
      "d": 1431.4487500000105,
      "v": 92
    },
    {
      "midi": 76,
      "hit": false,
      "t": 197410.89550000054,
      "d": 1743.9481250000244,
      "v": 92
    },
    {
      "midi": 41,
      "hit": false,
      "t": 197413.91968750054,
      "d": 1871.972062500019,
      "v": 99
    },
    {
      "midi": 38,
      "hit": false,
      "t": 197902.8299999997,
      "d": 80.64499999998952,
      "v": 68
    },
    {
      "midi": 69,
      "hit": false,
      "t": 198378.63550000056,
      "d": 945.5626249999914,
      "v": 91
    },
    {
      "midi": 64,
      "hit": false,
      "t": 198862.50550000055,
      "d": 463.7087499999907,
      "v": 73
    },
    {
      "midi": 38,
      "hit": false,
      "t": 198870.5699999997,
      "d": 80.64499999998952,
      "v": 68
    },
    {
      "midi": 71,
      "hit": false,
      "t": 199339.31906250055,
      "d": 1874.9962499999965,
      "v": 96
    },
    {
      "midi": 74,
      "hit": false,
      "t": 199339.31906250055,
      "d": 1882.0526874999923,
      "v": 93
    },
    {
      "midi": 67,
      "hit": false,
      "t": 199344.35937500055,
      "d": 1854.8349999999919,
      "v": 92
    },
    {
      "midi": 64,
      "hit": false,
      "t": 199346.37550000055,
      "d": 882.0546875,
      "v": 92
    },
    {
      "midi": 40,
      "hit": false,
      "t": 199346.37550000055,
      "d": 1857.8591874999984,
      "v": 99
    },
    {
      "midi": 38,
      "hit": false,
      "t": 199838.30999999968,
      "d": 80.64499999998952,
      "v": 68
    },
    {
      "midi": 64,
      "hit": false,
      "t": 200312.09937500054,
      "d": 919.3530000000028,
      "v": 78
    },
    {
      "midi": 72,
      "hit": false,
      "t": 200803.02581250053,
      "d": 451.6120000000228,
      "v": 90
    },
    {
      "midi": 38,
      "hit": false,
      "t": 200806.04999999967,
      "d": 80.64499999998952,
      "v": 68
    },
    {
      "midi": 69,
      "hit": false,
      "t": 201279.83937500056,
      "d": 924.393312500004,
      "v": 92
    },
    {
      "midi": 72,
      "hit": false,
      "t": 201279.83937500056,
      "d": 1640.1176875000237,
      "v": 101
    },
    {
      "midi": 65,
      "hit": false,
      "t": 201281.85550000056,
      "d": 1431.4487500000105,
      "v": 92
    },
    {
      "midi": 76,
      "hit": false,
      "t": 201281.85550000056,
      "d": 1743.9481250000536,
      "v": 92
    },
    {
      "midi": 41,
      "hit": false,
      "t": 201284.87968750056,
      "d": 1871.9720625000482,
      "v": 99
    },
    {
      "midi": 38,
      "hit": false,
      "t": 201773.78999999966,
      "d": 80.64499999998952,
      "v": 68
    },
    {
      "midi": 69,
      "hit": false,
      "t": 202249.59550000058,
      "d": 693.5470000000205,
      "v": 91
    },
    {
      "midi": 64,
      "hit": false,
      "t": 202733.46550000057,
      "d": 463.7087500000489,
      "v": 73
    },
    {
      "midi": 38,
      "hit": false,
      "t": 202741.52999999965,
      "d": 80.64499999998952,
      "v": 68
    },
    {
      "midi": 69,
      "hit": false,
      "t": 202980.4408125006,
      "d": 201.61250000001746,
      "v": 91
    },
    {
      "midi": 72,
      "hit": false,
      "t": 202980.4408125006,
      "d": 216.73343750002095,
      "v": 87
    },
    {
      "midi": 66,
      "hit": false,
      "t": 203210.27906250063,
      "d": 1874.9962499999965,
      "v": 96
    },
    {
      "midi": 69,
      "hit": false,
      "t": 203210.27906250063,
      "d": 1882.0526874999923,
      "v": 93
    },
    {
      "midi": 64,
      "hit": false,
      "t": 203215.31937500063,
      "d": 1854.8349999999919,
      "v": 92
    },
    {
      "midi": 38,
      "hit": false,
      "t": 203217.33550000063,
      "d": 1857.8591874999984,
      "v": 99
    },
    {
      "midi": 60,
      "hit": false,
      "t": 203217.33550000063,
      "d": 1864.9156249999942,
      "v": 92
    },
    {
      "midi": 38,
      "hit": false,
      "t": 203709.26999999964,
      "d": 80.64499999998952,
      "v": 68
    },
    {
      "midi": 57,
      "hit": false,
      "t": 204547.9780000006,
      "d": 557.4585625000182,
      "v": 91
    },
    {
      "midi": 38,
      "hit": false,
      "t": 204677.00999999963,
      "d": 80.64499999998952,
      "v": 68
    },
    {
      "midi": 65,
      "hit": false,
      "t": 205150.79937500064,
      "d": 1141.1267499999958,
      "v": 100
    },
    {
      "midi": 72,
      "hit": false,
      "t": 205155.83968750064,
      "d": 1144.1509375000023,
      "v": 91
    },
    {
      "midi": 60,
      "hit": false,
      "t": 205157.85581250064,
      "d": 1118.9493749999965,
      "v": 91
    },
    {
      "midi": 43,
      "hit": false,
      "t": 205157.85581250064,
      "d": 1127.0138750000042,
      "v": 82
    },
    {
      "midi": 69,
      "hit": false,
      "t": 205165.92031250065,
      "d": 1120.9654999999912,
      "v": 91
    },
    {
      "midi": 38,
      "hit": false,
      "t": 205644.74999999962,
      "d": 80.64499999998952,
      "v": 68
    },
    {
      "midi": 60,
      "hit": false,
      "t": 206357.45018750065,
      "d": 285.2816875000135,
      "v": 82
    },
    {
      "midi": 65,
      "hit": false,
      "t": 206362.49050000065,
      "d": 282.257500000007,
      "v": 91
    },
    {
      "midi": 43,
      "hit": false,
      "t": 206365.51468750066,
      "d": 264.112374999997,
      "v": 82
    },
    {
      "midi": 69,
      "hit": false,
      "t": 206367.53081250066,
      "d": 285.2816875000135,
      "v": 91
    },
    {
      "midi": 38,
      "hit": false,
      "t": 206612.4899999996,
      "d": 80.64499999998952,
      "v": 68
    },
    {
      "midi": 69,
      "hit": false,
      "t": 206733.45750000066,
      "d": 329.636437499983,
      "v": 100
    },
    {
      "midi": 72,
      "hit": false,
      "t": 206733.45750000066,
      "d": 329.636437499983,
      "v": 91
    },
    {
      "midi": 43,
      "hit": false,
      "t": 206735.47362500065,
      "d": 255.03981250000652,
      "v": 69
    },
    {
      "midi": 65,
      "hit": false,
      "t": 206738.49781250066,
      "d": 317.53968749998603,
      "v": 82
    },
    {
      "midi": 62,
      "hit": false,
      "t": 207086.27937500065,
      "d": 1864.9156249999942,
      "v": 90
    },
    {
      "midi": 67,
      "hit": false,
      "t": 207086.27937500065,
      "d": 1864.9156249999942,
      "v": 100
    },
    {
      "midi": 71,
      "hit": false,
      "t": 207086.27937500065,
      "d": 1864.9156249999942,
      "v": 100
    },
    {
      "midi": 74,
      "hit": false,
      "t": 207086.27937500065,
      "d": 1864.9156249999942,
      "v": 97
    },
    {
      "midi": 43,
      "hit": false,
      "t": 207093.33581250065,
      "d": 1864.9156249999942,
      "v": 82
    },
    {
      "midi": 38,
      "hit": false,
      "t": 207580.2299999996,
      "d": 80.64499999998952,
      "v": 68
    },
    {
      "midi": 38,
      "hit": false,
      "t": 208547.9699999996,
      "d": 80.64499999998952,
      "v": 68
    },
    {
      "midi": 59,
      "hit": false,
      "t": 208781.84050000066,
      "d": 229.8382499999716,
      "v": 85
    },
    {
      "midi": 55,
      "hit": false,
      "t": 209021.75937500063,
      "d": 1864.9156250000233,
      "v": 94
    },
    {
      "midi": 59,
      "hit": false,
      "t": 209021.75937500063,
      "d": 1864.9156250000233,
      "v": 86
    },
    {
      "midi": 60,
      "hit": false,
      "t": 209021.75937500063,
      "d": 1864.9156250000233,
      "v": 88
    },
    {
      "midi": 64,
      "hit": false,
      "t": 209021.75937500063,
      "d": 1864.9156250000233,
      "v": 103
    },
    {
      "midi": 48,
      "hit": false,
      "t": 209026.79968750064,
      "d": 680.4421875000116,
      "v": 79
    },
    {
      "midi": 38,
      "hit": false,
      "t": 209515.70999999958,
      "d": 80.64499999998952,
      "v": 68
    },
    {
      "midi": 48,
      "hit": false,
      "t": 209749.58050000065,
      "d": 897.1756250000035,
      "v": 73
    },
    {
      "midi": 38,
      "hit": false,
      "t": 210483.44999999958,
      "d": 80.64499999998952,
      "v": 68
    },
    {
      "midi": 43,
      "hit": false,
      "t": 210715.30437500065,
      "d": 241.93500000002678,
      "v": 73
    },
    {
      "midi": 69,
      "hit": false,
      "t": 210954.21518750067,
      "d": 1804.4318749999802,
      "v": 101
    },
    {
      "midi": 60,
      "hit": false,
      "t": 210957.23937500067,
      "d": 428.42656249998254,
      "v": 92
    },
    {
      "midi": 64,
      "hit": false,
      "t": 210959.25550000067,
      "d": 1774.1899999999732,
      "v": 91
    },
    {
      "midi": 41,
      "hit": false,
      "t": 210962.27968750068,
      "d": 1864.915624999965,
      "v": 72
    },
    {
      "midi": 65,
      "hit": false,
      "t": 210964.29581250067,
      "d": 1772.1738749999786,
      "v": 91
    },
    {
      "midi": 60,
      "hit": false,
      "t": 211438.08518750066,
      "d": 461.69262499999604,
      "v": 80
    },
    {
      "midi": 38,
      "hit": false,
      "t": 211451.18999999957,
      "d": 80.64499999998952,
      "v": 68
    },
    {
      "midi": 48,
      "hit": false,
      "t": 211685.06050000066,
      "d": 735.8856249999953,
      "v": 73
    },
    {
      "midi": 60,
      "hit": false,
      "t": 211930.01968750067,
      "d": 221.77374999999302,
      "v": 86
    },
    {
      "midi": 57,
      "hit": false,
      "t": 212168.93050000066,
      "d": 257.05593750000116,
      "v": 61
    },
    {
      "midi": 60,
      "hit": false,
      "t": 212410.86550000065,
      "d": 241.93499999999767,
      "v": 85
    },
    {
      "midi": 38,
      "hit": false,
      "t": 212418.92999999956,
      "d": 80.64499999998952,
      "v": 68
    },
    {
      "midi": 48,
      "hit": false,
      "t": 212635.66343750065,
      "d": 233.87049999999,
      "v": 69
    },
    {
      "midi": 57,
      "hit": false,
      "t": 212657.84081250065,
      "d": 234.87856250000186,
      "v": 65
    },
    {
      "midi": 60,
      "hit": false,
      "t": 212892.71937500066,
      "d": 1864.9156250000233,
      "v": 88
    },
    {
      "midi": 64,
      "hit": false,
      "t": 212892.71937500066,
      "d": 1864.9156250000233,
      "v": 103
    },
    {
      "midi": 67,
      "hit": false,
      "t": 212892.71937500066,
      "d": 1864.9156250000233,
      "v": 94
    },
    {
      "midi": 71,
      "hit": false,
      "t": 212892.71937500066,
      "d": 1864.9156250000233,
      "v": 86
    },
    {
      "midi": 48,
      "hit": false,
      "t": 212897.75968750066,
      "d": 680.4421875000116,
      "v": 79
    },
    {
      "midi": 38,
      "hit": false,
      "t": 213386.66999999955,
      "d": 80.64499999998952,
      "v": 68
    },
    {
      "midi": 48,
      "hit": false,
      "t": 213620.54050000067,
      "d": 897.1756250000035,
      "v": 73
    },
    {
      "midi": 38,
      "hit": false,
      "t": 214354.40999999954,
      "d": 80.64499999998952,
      "v": 68
    },
    {
      "midi": 43,
      "hit": false,
      "t": 214586.26437500067,
      "d": 241.93500000002678,
      "v": 73
    },
    {
      "midi": 69,
      "hit": false,
      "t": 214825.1751875007,
      "d": 1804.4318749999802,
      "v": 101
    },
    {
      "midi": 60,
      "hit": false,
      "t": 214828.1993750007,
      "d": 428.42656249998254,
      "v": 88
    },
    {
      "midi": 64,
      "hit": false,
      "t": 214830.2155000007,
      "d": 1774.1899999999732,
      "v": 91
    },
    {
      "midi": 41,
      "hit": false,
      "t": 214833.2396875007,
      "d": 1864.915624999965,
      "v": 72
    },
    {
      "midi": 65,
      "hit": false,
      "t": 214835.2558125007,
      "d": 1772.1738749999786,
      "v": 91
    },
    {
      "midi": 60,
      "hit": false,
      "t": 215309.04518750068,
      "d": 461.69262499999604,
      "v": 80
    },
    {
      "midi": 38,
      "hit": false,
      "t": 215322.14999999953,
      "d": 80.64499999998952,
      "v": 68
    },
    {
      "midi": 48,
      "hit": false,
      "t": 215556.02050000068,
      "d": 735.8856249999953,
      "v": 73
    },
    {
      "midi": 57,
      "hit": false,
      "t": 215559.0446875007,
      "d": 1199.594374999986,
      "v": 73
    },
    {
      "midi": 60,
      "hit": false,
      "t": 215797.95550000068,
      "d": 481.8538750000007,
      "v": 91
    },
    {
      "midi": 62,
      "hit": false,
      "t": 216286.86581250068,
      "d": 481.8538750000007,
      "v": 91
    },
    {
      "midi": 38,
      "hit": false,
      "t": 216289.88999999952,
      "d": 80.64499999998952,
      "v": 68
    },
    {
      "midi": 48,
      "hit": false,
      "t": 216506.62343750068,
      "d": 233.87049999999,
      "v": 69
    },
    {
      "midi": 60,
      "hit": false,
      "t": 216763.67937500068,
      "d": 1864.9156250000233,
      "v": 88
    },
    {
      "midi": 64,
      "hit": false,
      "t": 216763.67937500068,
      "d": 1864.9156250000233,
      "v": 103
    },
    {
      "midi": 67,
      "hit": false,
      "t": 216763.67937500068,
      "d": 1864.9156250000233,
      "v": 94
    },
    {
      "midi": 71,
      "hit": false,
      "t": 216763.67937500068,
      "d": 1864.9156250000233,
      "v": 86
    },
    {
      "midi": 48,
      "hit": false,
      "t": 216768.71968750068,
      "d": 680.4421875000116,
      "v": 79
    },
    {
      "midi": 38,
      "hit": false,
      "t": 217257.6299999995,
      "d": 80.64499999998952,
      "v": 68
    },
    {
      "midi": 48,
      "hit": false,
      "t": 217491.5005000007,
      "d": 897.1756250000035,
      "v": 73
    },
    {
      "midi": 38,
      "hit": false,
      "t": 218225.3699999995,
      "d": 80.64499999998952,
      "v": 68
    },
    {
      "midi": 43,
      "hit": false,
      "t": 218457.2243750007,
      "d": 241.93500000002678,
      "v": 73
    },
    {
      "midi": 69,
      "hit": false,
      "t": 218696.1351875007,
      "d": 1804.4318749999802,
      "v": 101
    },
    {
      "midi": 60,
      "hit": false,
      "t": 218699.15937500072,
      "d": 428.42656249998254,
      "v": 92
    },
    {
      "midi": 64,
      "hit": false,
      "t": 218701.1755000007,
      "d": 1774.1899999999732,
      "v": 91
    },
    {
      "midi": 41,
      "hit": false,
      "t": 218704.19968750072,
      "d": 1864.915624999965,
      "v": 72
    },
    {
      "midi": 65,
      "hit": false,
      "t": 218706.2158125007,
      "d": 1772.1738749999786,
      "v": 91
    },
    {
      "midi": 60,
      "hit": false,
      "t": 219180.0051875007,
      "d": 461.69262499999604,
      "v": 80
    },
    {
      "midi": 38,
      "hit": false,
      "t": 219193.1099999995,
      "d": 80.64499999998952,
      "v": 68
    },
    {
      "midi": 48,
      "hit": false,
      "t": 219426.9805000007,
      "d": 735.8856249999953,
      "v": 73
    },
    {
      "midi": 60,
      "hit": false,
      "t": 219671.9396875007,
      "d": 221.77374999999302,
      "v": 86
    },
    {
      "midi": 57,
      "hit": false,
      "t": 219910.8505000007,
      "d": 257.05593750000116,
      "v": 61
    },
    {
      "midi": 62,
      "hit": false,
      "t": 220152.7855000007,
      "d": 241.93499999999767,
      "v": 85
    },
    {
      "midi": 38,
      "hit": false,
      "t": 220160.84999999948,
      "d": 80.64499999998952,
      "v": 68
    },
    {
      "midi": 48,
      "hit": false,
      "t": 220377.5834375007,
      "d": 233.87049999999,
      "v": 69
    },
    {
      "midi": 60,
      "hit": false,
      "t": 220399.7608125007,
      "d": 234.87856250000186,
      "v": 65
    },
    {
      "midi": 60,
      "hit": false,
      "t": 220634.6393750007,
      "d": 1864.9156250000233,
      "v": 88
    },
    {
      "midi": 64,
      "hit": false,
      "t": 220634.6393750007,
      "d": 1864.9156250000233,
      "v": 103
    },
    {
      "midi": 67,
      "hit": false,
      "t": 220634.6393750007,
      "d": 1864.9156250000233,
      "v": 94
    },
    {
      "midi": 71,
      "hit": false,
      "t": 220634.6393750007,
      "d": 1864.9156250000233,
      "v": 86
    },
    {
      "midi": 48,
      "hit": false,
      "t": 220639.6796875007,
      "d": 680.4421875000116,
      "v": 79
    },
    {
      "midi": 38,
      "hit": false,
      "t": 221128.58999999947,
      "d": 80.64499999998952,
      "v": 68
    },
    {
      "midi": 48,
      "hit": false,
      "t": 221362.4605000007,
      "d": 897.1756250000035,
      "v": 73
    },
    {
      "midi": 38,
      "hit": false,
      "t": 222096.32999999946,
      "d": 80.64499999998952,
      "v": 68
    },
    {
      "midi": 43,
      "hit": false,
      "t": 222328.1843750007,
      "d": 241.93500000002678,
      "v": 73
    },
    {
      "midi": 69,
      "hit": false,
      "t": 222567.09518750073,
      "d": 1804.4318749999802,
      "v": 101
    },
    {
      "midi": 60,
      "hit": false,
      "t": 222570.11937500074,
      "d": 428.42656249998254,
      "v": 88
    },
    {
      "midi": 64,
      "hit": false,
      "t": 222572.13550000073,
      "d": 1774.1899999999732,
      "v": 91
    },
    {
      "midi": 41,
      "hit": false,
      "t": 222575.15968750074,
      "d": 1864.915624999965,
      "v": 72
    },
    {
      "midi": 65,
      "hit": false,
      "t": 222577.17581250073,
      "d": 1772.1738749999786,
      "v": 91
    },
    {
      "midi": 60,
      "hit": false,
      "t": 223050.96518750073,
      "d": 461.69262499999604,
      "v": 80
    },
    {
      "midi": 38,
      "hit": false,
      "t": 223064.06999999945,
      "d": 80.64499999998952,
      "v": 68
    },
    {
      "midi": 48,
      "hit": false,
      "t": 223297.94050000072,
      "d": 735.8856249999953,
      "v": 73
    },
    {
      "midi": 57,
      "hit": false,
      "t": 223300.96468750073,
      "d": 1199.594374999986,
      "v": 73
    },
    {
      "midi": 60,
      "hit": false,
      "t": 223539.87550000072,
      "d": 481.8538750000007,
      "v": 91
    },
    {
      "midi": 62,
      "hit": false,
      "t": 224028.78581250072,
      "d": 481.8538750000007,
      "v": 91
    },
    {
      "midi": 38,
      "hit": false,
      "t": 224031.80999999944,
      "d": 80.64499999998952,
      "v": 68
    },
    {
      "midi": 48,
      "hit": false,
      "t": 224248.54343750072,
      "d": 233.87049999999,
      "v": 69
    },
    {
      "midi": 60,
      "hit": false,
      "t": 224505.59937500072,
      "d": 1864.9156250000233,
      "v": 88
    },
    {
      "midi": 64,
      "hit": false,
      "t": 224505.59937500072,
      "d": 1864.9156250000233,
      "v": 103
    },
    {
      "midi": 67,
      "hit": false,
      "t": 224505.59937500072,
      "d": 1864.9156250000233,
      "v": 94
    },
    {
      "midi": 71,
      "hit": false,
      "t": 224505.59937500072,
      "d": 1864.9156250000233,
      "v": 86
    },
    {
      "midi": 48,
      "hit": false,
      "t": 224510.63968750072,
      "d": 680.4421875000116,
      "v": 79
    },
    {
      "midi": 38,
      "hit": false,
      "t": 224999.54999999944,
      "d": 80.64499999998952,
      "v": 68
    },
    {
      "midi": 48,
      "hit": false,
      "t": 225233.42050000074,
      "d": 897.1756250000035,
      "v": 73
    },
    {
      "midi": 38,
      "hit": false,
      "t": 225967.28999999943,
      "d": 80.64499999998952,
      "v": 68
    },
    {
      "midi": 43,
      "hit": false,
      "t": 226199.14437500073,
      "d": 241.93500000002678,
      "v": 73
    },
    {
      "midi": 69,
      "hit": false,
      "t": 226438.05518750075,
      "d": 1804.4318749999802,
      "v": 101
    },
    {
      "midi": 60,
      "hit": false,
      "t": 226441.07937500076,
      "d": 428.42656249998254,
      "v": 92
    },
    {
      "midi": 64,
      "hit": false,
      "t": 226443.09550000075,
      "d": 1774.1899999999732,
      "v": 91
    },
    {
      "midi": 41,
      "hit": false,
      "t": 226446.11968750076,
      "d": 1864.915624999965,
      "v": 72
    },
    {
      "midi": 65,
      "hit": false,
      "t": 226448.13581250075,
      "d": 1772.1738749999786,
      "v": 91
    },
    {
      "midi": 60,
      "hit": false,
      "t": 226921.92518750075,
      "d": 461.69262499999604,
      "v": 80
    },
    {
      "midi": 38,
      "hit": false,
      "t": 226935.02999999942,
      "d": 80.64499999998952,
      "v": 68
    },
    {
      "midi": 48,
      "hit": false,
      "t": 227168.90050000075,
      "d": 735.8856249999953,
      "v": 73
    },
    {
      "midi": 60,
      "hit": false,
      "t": 227413.85968750075,
      "d": 221.77374999999302,
      "v": 86
    },
    {
      "midi": 57,
      "hit": false,
      "t": 227652.77050000074,
      "d": 257.05593750000116,
      "v": 61
    },
    {
      "midi": 62,
      "hit": false,
      "t": 227894.70550000074,
      "d": 241.93499999999767,
      "v": 85
    },
    {
      "midi": 38,
      "hit": false,
      "t": 227902.7699999994,
      "d": 80.64499999998952,
      "v": 68
    },
    {
      "midi": 48,
      "hit": false,
      "t": 228119.50343750074,
      "d": 233.87049999999,
      "v": 69
    },
    {
      "midi": 60,
      "hit": false,
      "t": 228141.68081250074,
      "d": 234.87856250000186,
      "v": 65
    },
    {
      "midi": 60,
      "hit": false,
      "t": 228376.55937500074,
      "d": 1864.9156250000233,
      "v": 88
    },
    {
      "midi": 64,
      "hit": false,
      "t": 228376.55937500074,
      "d": 1864.9156250000233,
      "v": 103
    },
    {
      "midi": 67,
      "hit": false,
      "t": 228376.55937500074,
      "d": 1864.9156250000233,
      "v": 94
    },
    {
      "midi": 71,
      "hit": false,
      "t": 228376.55937500074,
      "d": 1864.9156250000233,
      "v": 86
    },
    {
      "midi": 48,
      "hit": false,
      "t": 228381.59968750074,
      "d": 680.4421875000116,
      "v": 79
    },
    {
      "midi": 38,
      "hit": false,
      "t": 228870.5099999994,
      "d": 80.64499999998952,
      "v": 68
    },
    {
      "midi": 48,
      "hit": false,
      "t": 229104.38050000076,
      "d": 897.1756250000035,
      "v": 73
    },
    {
      "midi": 38,
      "hit": false,
      "t": 229838.2499999994,
      "d": 80.64499999998952,
      "v": 68
    },
    {
      "midi": 43,
      "hit": false,
      "t": 230070.10437500075,
      "d": 241.93500000002678,
      "v": 73
    },
    {
      "midi": 69,
      "hit": false,
      "t": 230309.01518750077,
      "d": 1804.4318749999802,
      "v": 101
    },
    {
      "midi": 60,
      "hit": false,
      "t": 230312.03937500078,
      "d": 428.42656249998254,
      "v": 88
    },
    {
      "midi": 64,
      "hit": false,
      "t": 230314.05550000077,
      "d": 1774.1899999999732,
      "v": 91
    },
    {
      "midi": 41,
      "hit": false,
      "t": 230317.07968750078,
      "d": 1864.915624999965,
      "v": 72
    },
    {
      "midi": 65,
      "hit": false,
      "t": 230319.09581250077,
      "d": 1772.1738749999786,
      "v": 91
    },
    {
      "midi": 60,
      "hit": false,
      "t": 230792.88518750077,
      "d": 461.69262499999604,
      "v": 80
    },
    {
      "midi": 38,
      "hit": false,
      "t": 230805.98999999938,
      "d": 80.64499999998952,
      "v": 68
    },
    {
      "midi": 48,
      "hit": false,
      "t": 231039.86050000077,
      "d": 735.8856249999953,
      "v": 73
    },
    {
      "midi": 57,
      "hit": false,
      "t": 231042.88468750077,
      "d": 1199.594374999986,
      "v": 73
    },
    {
      "midi": 60,
      "hit": false,
      "t": 231281.79550000076,
      "d": 481.8538750000007,
      "v": 91
    },
    {
      "midi": 62,
      "hit": false,
      "t": 231770.70581250076,
      "d": 481.8538750000007,
      "v": 91
    },
    {
      "midi": 38,
      "hit": false,
      "t": 231773.72999999937,
      "d": 80.64499999998952,
      "v": 68
    },
    {
      "midi": 48,
      "hit": false,
      "t": 231990.46343750076,
      "d": 233.87049999999,
      "v": 69
    },
    {
      "midi": 60,
      "hit": false,
      "t": 232247.51937500076,
      "d": 1864.9156250000233,
      "v": 88
    },
    {
      "midi": 64,
      "hit": false,
      "t": 232247.51937500076,
      "d": 1864.9156250000233,
      "v": 103
    },
    {
      "midi": 67,
      "hit": false,
      "t": 232247.51937500076,
      "d": 1864.9156250000233,
      "v": 94
    },
    {
      "midi": 71,
      "hit": false,
      "t": 232247.51937500076,
      "d": 1864.9156250000233,
      "v": 86
    },
    {
      "midi": 48,
      "hit": false,
      "t": 232252.55968750076,
      "d": 680.4421875000116,
      "v": 79
    },
    {
      "midi": 38,
      "hit": false,
      "t": 232741.46999999936,
      "d": 80.64499999998952,
      "v": 68
    },
    {
      "midi": 48,
      "hit": false,
      "t": 232975.34050000078,
      "d": 897.1756250000035,
      "v": 73
    },
    {
      "midi": 38,
      "hit": false,
      "t": 233709.20999999935,
      "d": 80.64499999998952,
      "v": 68
    },
    {
      "midi": 43,
      "hit": false,
      "t": 233941.06437500077,
      "d": 241.93500000002678,
      "v": 73
    },
    {
      "midi": 69,
      "hit": false,
      "t": 234179.9751875008,
      "d": 1804.4318749999802,
      "v": 101
    },
    {
      "midi": 60,
      "hit": false,
      "t": 234182.9993750008,
      "d": 428.42656249998254,
      "v": 92
    },
    {
      "midi": 64,
      "hit": false,
      "t": 234185.0155000008,
      "d": 1774.1899999999732,
      "v": 91
    },
    {
      "midi": 41,
      "hit": false,
      "t": 234188.0396875008,
      "d": 1864.915624999965,
      "v": 72
    },
    {
      "midi": 65,
      "hit": false,
      "t": 234190.0558125008,
      "d": 1772.1738749999786,
      "v": 91
    },
    {
      "midi": 60,
      "hit": false,
      "t": 234663.8451875008,
      "d": 461.69262499999604,
      "v": 80
    },
    {
      "midi": 38,
      "hit": false,
      "t": 234676.94999999934,
      "d": 80.64499999998952,
      "v": 68
    },
    {
      "midi": 48,
      "hit": false,
      "t": 234910.8205000008,
      "d": 735.8856249999953,
      "v": 73
    },
    {
      "midi": 60,
      "hit": false,
      "t": 235155.7796875008,
      "d": 221.77374999999302,
      "v": 86
    },
    {
      "midi": 57,
      "hit": false,
      "t": 235394.69050000078,
      "d": 257.05593750000116,
      "v": 61
    },
    {
      "midi": 60,
      "hit": false,
      "t": 235636.62550000078,
      "d": 241.93499999999767,
      "v": 85
    },
    {
      "midi": 38,
      "hit": false,
      "t": 235644.68999999933,
      "d": 80.64499999998952,
      "v": 68
    },
    {
      "midi": 48,
      "hit": false,
      "t": 235861.42343750078,
      "d": 233.87049999999,
      "v": 69
    },
    {
      "midi": 57,
      "hit": false,
      "t": 235883.60081250078,
      "d": 234.87856250000186,
      "v": 65
    },
    {
      "midi": 60,
      "hit": false,
      "t": 236118.47937500078,
      "d": 1864.9156250000233,
      "v": 88
    },
    {
      "midi": 64,
      "hit": false,
      "t": 236118.47937500078,
      "d": 1864.9156250000233,
      "v": 103
    },
    {
      "midi": 67,
      "hit": false,
      "t": 236118.47937500078,
      "d": 1864.9156250000233,
      "v": 94
    },
    {
      "midi": 71,
      "hit": false,
      "t": 236118.47937500078,
      "d": 1864.9156250000233,
      "v": 86
    },
    {
      "midi": 48,
      "hit": false,
      "t": 236123.51968750078,
      "d": 680.4421875000116,
      "v": 79
    },
    {
      "midi": 38,
      "hit": false,
      "t": 236612.42999999932,
      "d": 80.64499999998952,
      "v": 68
    },
    {
      "midi": 48,
      "hit": false,
      "t": 236846.3005000008,
      "d": 897.1756250000035,
      "v": 73
    },
    {
      "midi": 38,
      "hit": false,
      "t": 237580.1699999993,
      "d": 80.64499999998952,
      "v": 68
    },
    {
      "midi": 43,
      "hit": false,
      "t": 237812.0243750008,
      "d": 241.93500000002678,
      "v": 73
    },
    {
      "midi": 69,
      "hit": false,
      "t": 238050.9351875008,
      "d": 1804.4318749999802,
      "v": 101
    },
    {
      "midi": 60,
      "hit": false,
      "t": 238053.95937500082,
      "d": 428.42656249998254,
      "v": 88
    },
    {
      "midi": 64,
      "hit": false,
      "t": 238055.97550000082,
      "d": 1774.1899999999732,
      "v": 91
    },
    {
      "midi": 41,
      "hit": false,
      "t": 238058.99968750082,
      "d": 1864.915624999965,
      "v": 72
    },
    {
      "midi": 65,
      "hit": false,
      "t": 238061.01581250082,
      "d": 1772.1738749999786,
      "v": 91
    },
    {
      "midi": 60,
      "hit": false,
      "t": 238534.8051875008,
      "d": 461.69262499999604,
      "v": 80
    },
    {
      "midi": 38,
      "hit": false,
      "t": 238547.9099999993,
      "d": 80.64499999998952,
      "v": 68
    },
    {
      "midi": 48,
      "hit": false,
      "t": 238781.7805000008,
      "d": 735.8856249999953,
      "v": 73
    },
    {
      "midi": 57,
      "hit": false,
      "t": 238784.80468750081,
      "d": 1199.594374999986,
      "v": 73
    },
    {
      "midi": 60,
      "hit": false,
      "t": 239023.7155000008,
      "d": 481.8538750000007,
      "v": 91
    },
    {
      "midi": 62,
      "hit": false,
      "t": 239512.6258125008,
      "d": 481.8538750000007,
      "v": 91
    },
    {
      "midi": 38,
      "hit": false,
      "t": 239515.6499999993,
      "d": 80.64499999998952,
      "v": 68
    },
    {
      "midi": 48,
      "hit": false,
      "t": 239732.3834375008,
      "d": 233.87049999999,
      "v": 69
    },
    {
      "midi": 60,
      "hit": false,
      "t": 239989.4393750008,
      "d": 1864.9156250000233,
      "v": 88
    },
    {
      "midi": 64,
      "hit": false,
      "t": 239989.4393750008,
      "d": 1864.9156250000233,
      "v": 103
    },
    {
      "midi": 67,
      "hit": false,
      "t": 239989.4393750008,
      "d": 1864.9156250000233,
      "v": 94
    },
    {
      "midi": 71,
      "hit": false,
      "t": 239989.4393750008,
      "d": 1864.9156250000233,
      "v": 86
    },
    {
      "midi": 48,
      "hit": false,
      "t": 239994.4796875008,
      "d": 680.4421875000116,
      "v": 79
    },
    {
      "midi": 38,
      "hit": false,
      "t": 240483.3899999993,
      "d": 80.64499999998952,
      "v": 68
    },
    {
      "midi": 48,
      "hit": false,
      "t": 240717.26050000082,
      "d": 897.1756250000035,
      "v": 73
    },
    {
      "midi": 38,
      "hit": false,
      "t": 241451.12999999928,
      "d": 80.64499999998952,
      "v": 68
    },
    {
      "midi": 43,
      "hit": false,
      "t": 241682.98437500081,
      "d": 241.93500000002678,
      "v": 73
    },
    {
      "midi": 69,
      "hit": false,
      "t": 241921.89518750084,
      "d": 1804.4318749999802,
      "v": 101
    },
    {
      "midi": 60,
      "hit": false,
      "t": 241924.91937500084,
      "d": 428.42656249998254,
      "v": 92
    },
    {
      "midi": 64,
      "hit": false,
      "t": 241926.93550000084,
      "d": 1774.1899999999732,
      "v": 91
    },
    {
      "midi": 41,
      "hit": false,
      "t": 241929.95968750084,
      "d": 1864.915624999965,
      "v": 72
    },
    {
      "midi": 65,
      "hit": false,
      "t": 241931.97581250084,
      "d": 1772.1738749999786,
      "v": 91
    },
    {
      "midi": 60,
      "hit": false,
      "t": 242405.76518750083,
      "d": 461.69262499999604,
      "v": 80
    },
    {
      "midi": 38,
      "hit": false,
      "t": 242418.86999999927,
      "d": 80.64499999998952,
      "v": 68
    },
    {
      "midi": 48,
      "hit": false,
      "t": 242652.74050000083,
      "d": 735.8856249999953,
      "v": 73
    },
    {
      "midi": 60,
      "hit": false,
      "t": 242897.69968750083,
      "d": 221.77374999999302,
      "v": 86
    },
    {
      "midi": 57,
      "hit": false,
      "t": 243136.61050000082,
      "d": 257.05593750000116,
      "v": 61
    },
    {
      "midi": 62,
      "hit": false,
      "t": 243378.54550000082,
      "d": 241.93499999999767,
      "v": 85
    },
    {
      "midi": 38,
      "hit": false,
      "t": 243386.60999999926,
      "d": 80.64499999998952,
      "v": 68
    },
    {
      "midi": 48,
      "hit": false,
      "t": 243603.34343750082,
      "d": 233.87049999999,
      "v": 69
    },
    {
      "midi": 60,
      "hit": false,
      "t": 243625.52081250082,
      "d": 234.87856250000186,
      "v": 65
    },
    {
      "midi": 60,
      "hit": false,
      "t": 243860.39937500082,
      "d": 1864.9156250000233,
      "v": 88
    },
    {
      "midi": 64,
      "hit": false,
      "t": 243860.39937500082,
      "d": 1864.9156250000233,
      "v": 103
    },
    {
      "midi": 67,
      "hit": false,
      "t": 243860.39937500082,
      "d": 1864.9156250000233,
      "v": 94
    },
    {
      "midi": 71,
      "hit": false,
      "t": 243860.39937500082,
      "d": 1864.9156250000233,
      "v": 86
    },
    {
      "midi": 48,
      "hit": false,
      "t": 243865.43968750082,
      "d": 680.4421875000116,
      "v": 79
    },
    {
      "midi": 38,
      "hit": false,
      "t": 244354.34999999925,
      "d": 80.64499999998952,
      "v": 68
    },
    {
      "midi": 48,
      "hit": false,
      "t": 244588.22050000084,
      "d": 897.1756250000035,
      "v": 73
    },
    {
      "midi": 38,
      "hit": false,
      "t": 245322.08999999924,
      "d": 80.64499999998952,
      "v": 68
    },
    {
      "midi": 43,
      "hit": false,
      "t": 245553.94437500084,
      "d": 241.93500000002678,
      "v": 73
    },
    {
      "midi": 69,
      "hit": false,
      "t": 245792.85518750086,
      "d": 1804.4318749999802,
      "v": 101
    },
    {
      "midi": 60,
      "hit": false,
      "t": 245795.87937500086,
      "d": 428.42656249998254,
      "v": 88
    },
    {
      "midi": 64,
      "hit": false,
      "t": 245797.89550000086,
      "d": 1774.1899999999732,
      "v": 91
    },
    {
      "midi": 41,
      "hit": false,
      "t": 245800.91968750086,
      "d": 1864.915624999965,
      "v": 72
    },
    {
      "midi": 65,
      "hit": false,
      "t": 245802.93581250086,
      "d": 1772.1738749999786,
      "v": 91
    },
    {
      "midi": 60,
      "hit": false,
      "t": 246276.72518750085,
      "d": 461.69262499999604,
      "v": 80
    },
    {
      "midi": 38,
      "hit": false,
      "t": 246289.82999999923,
      "d": 80.64499999998952,
      "v": 68
    },
    {
      "midi": 48,
      "hit": false,
      "t": 246523.70050000085,
      "d": 735.8856249999953,
      "v": 73
    },
    {
      "midi": 57,
      "hit": false,
      "t": 246526.72468750086,
      "d": 1199.594374999986,
      "v": 73
    },
    {
      "midi": 60,
      "hit": false,
      "t": 246765.63550000085,
      "d": 481.8538750000007,
      "v": 91
    },
    {
      "midi": 62,
      "hit": false,
      "t": 247254.54581250084,
      "d": 481.8538750000007,
      "v": 91
    },
    {
      "midi": 38,
      "hit": false,
      "t": 247257.56999999922,
      "d": 80.64499999998952,
      "v": 68
    },
    {
      "midi": 48,
      "hit": false,
      "t": 247474.30343750084,
      "d": 233.87049999999,
      "v": 69
    },
    {
      "midi": 60,
      "hit": false,
      "t": 247731.35937500084,
      "d": 1864.9156250000233,
      "v": 88
    },
    {
      "midi": 64,
      "hit": false,
      "t": 247731.35937500084,
      "d": 1864.9156250000233,
      "v": 103
    },
    {
      "midi": 67,
      "hit": false,
      "t": 247731.35937500084,
      "d": 1864.9156250000233,
      "v": 94
    },
    {
      "midi": 71,
      "hit": false,
      "t": 247731.35937500084,
      "d": 1864.9156250000233,
      "v": 86
    },
    {
      "midi": 48,
      "hit": false,
      "t": 247736.39968750085,
      "d": 680.4421874999825,
      "v": 79
    },
    {
      "midi": 38,
      "hit": false,
      "t": 248225.3099999992,
      "d": 80.64499999998952,
      "v": 68
    },
    {
      "midi": 48,
      "hit": false,
      "t": 248459.18050000083,
      "d": 897.1756250000326,
      "v": 73
    },
    {
      "midi": 38,
      "hit": false,
      "t": 249193.0499999992,
      "d": 80.64499999998952,
      "v": 68
    },
    {
      "midi": 43,
      "hit": false,
      "t": 249424.90437500086,
      "d": 241.93500000002678,
      "v": 73
    },
    {
      "midi": 69,
      "hit": false,
      "t": 249663.81518750088,
      "d": 1804.4318750000384,
      "v": 101
    },
    {
      "midi": 60,
      "hit": false,
      "t": 249666.83937500088,
      "d": 428.42656250001164,
      "v": 92
    },
    {
      "midi": 64,
      "hit": false,
      "t": 249668.85550000088,
      "d": 1774.1900000000314,
      "v": 91
    },
    {
      "midi": 41,
      "hit": false,
      "t": 249671.87968750088,
      "d": 1864.9156250000524,
      "v": 72
    },
    {
      "midi": 65,
      "hit": false,
      "t": 249673.89581250088,
      "d": 1772.1738750000368,
      "v": 91
    },
    {
      "midi": 60,
      "hit": false,
      "t": 250147.6851875009,
      "d": 461.69262499999604,
      "v": 80
    },
    {
      "midi": 38,
      "hit": false,
      "t": 250160.7899999992,
      "d": 80.64500000001863,
      "v": 68
    },
    {
      "midi": 48,
      "hit": false,
      "t": 250394.6605000009,
      "d": 735.8856250000244,
      "v": 73
    },
    {
      "midi": 60,
      "hit": false,
      "t": 250639.6196875009,
      "d": 221.77374999999302,
      "v": 86
    },
    {
      "midi": 57,
      "hit": false,
      "t": 250878.5305000009,
      "d": 257.05593750003027,
      "v": 61
    },
    {
      "midi": 62,
      "hit": false,
      "t": 251120.46550000092,
      "d": 241.93499999999767,
      "v": 85
    },
    {
      "midi": 38,
      "hit": false,
      "t": 251128.52999999918,
      "d": 80.64499999998952,
      "v": 68
    },
    {
      "midi": 48,
      "hit": false,
      "t": 251345.26343750092,
      "d": 233.8705000000191,
      "v": 69
    },
    {
      "midi": 60,
      "hit": false,
      "t": 251367.44081250092,
      "d": 234.87856250003097,
      "v": 65
    },
    {
      "midi": 60,
      "hit": false,
      "t": 251602.31937500095,
      "d": 1864.9156249999942,
      "v": 88
    },
    {
      "midi": 64,
      "hit": false,
      "t": 251602.31937500095,
      "d": 1864.9156249999942,
      "v": 103
    },
    {
      "midi": 67,
      "hit": false,
      "t": 251602.31937500095,
      "d": 1864.9156249999942,
      "v": 94
    },
    {
      "midi": 71,
      "hit": false,
      "t": 251602.31937500095,
      "d": 1864.9156249999942,
      "v": 86
    },
    {
      "midi": 48,
      "hit": false,
      "t": 251607.35968750095,
      "d": 680.4421875000116,
      "v": 79
    },
    {
      "midi": 38,
      "hit": false,
      "t": 252096.26999999917,
      "d": 80.64500000001863,
      "v": 68
    },
    {
      "midi": 48,
      "hit": false,
      "t": 252330.14050000097,
      "d": 897.1756249999744,
      "v": 73
    },
    {
      "midi": 38,
      "hit": false,
      "t": 253064.0099999992,
      "d": 80.64499999998952,
      "v": 68
    },
    {
      "midi": 43,
      "hit": false,
      "t": 253295.86437500094,
      "d": 241.93500000002678,
      "v": 73
    },
    {
      "midi": 69,
      "hit": false,
      "t": 253534.77518750096,
      "d": 1804.4318750000966,
      "v": 101
    },
    {
      "midi": 60,
      "hit": false,
      "t": 253537.79937500096,
      "d": 428.42656250001164,
      "v": 88
    },
    {
      "midi": 64,
      "hit": false,
      "t": 253539.81550000096,
      "d": 1774.1900000000896,
      "v": 91
    },
    {
      "midi": 41,
      "hit": false,
      "t": 253542.83968750096,
      "d": 1864.9156250000815,
      "v": 72
    },
    {
      "midi": 65,
      "hit": false,
      "t": 253544.85581250096,
      "d": 1772.173875000095,
      "v": 91
    },
    {
      "midi": 60,
      "hit": false,
      "t": 254018.64518750098,
      "d": 461.69262500005425,
      "v": 80
    },
    {
      "midi": 38,
      "hit": false,
      "t": 254031.7499999992,
      "d": 80.64499999998952,
      "v": 68
    },
    {
      "midi": 48,
      "hit": false,
      "t": 254265.620500001,
      "d": 735.8856250000244,
      "v": 73
    },
    {
      "midi": 57,
      "hit": false,
      "t": 254268.64468750102,
      "d": 1199.5943750000442,
      "v": 73
    },
    {
      "midi": 60,
      "hit": false,
      "t": 254507.55550000104,
      "d": 481.8538750000007,
      "v": 91
    },
    {
      "midi": 62,
      "hit": false,
      "t": 254996.46581250103,
      "d": 481.8538750000298,
      "v": 91
    },
    {
      "midi": 38,
      "hit": false,
      "t": 254999.4899999992,
      "d": 80.64500000001863,
      "v": 68
    },
    {
      "midi": 48,
      "hit": false,
      "t": 255216.22343750103,
      "d": 233.8705000000191,
      "v": 69
    },
    {
      "midi": 60,
      "hit": false,
      "t": 255473.27937500106,
      "d": 1864.9156250000233,
      "v": 88
    },
    {
      "midi": 64,
      "hit": false,
      "t": 255473.27937500106,
      "d": 1864.9156250000233,
      "v": 103
    },
    {
      "midi": 67,
      "hit": false,
      "t": 255473.27937500106,
      "d": 1864.9156250000233,
      "v": 94
    },
    {
      "midi": 71,
      "hit": false,
      "t": 255473.27937500106,
      "d": 1864.9156250000233,
      "v": 86
    },
    {
      "midi": 48,
      "hit": false,
      "t": 255478.31968750106,
      "d": 680.4421875000116,
      "v": 79
    },
    {
      "midi": 38,
      "hit": false,
      "t": 255967.22999999922,
      "d": 80.64500000001863,
      "v": 68
    },
    {
      "midi": 48,
      "hit": false,
      "t": 256201.10050000108,
      "d": 897.1756250000035,
      "v": 73
    },
    {
      "midi": 38,
      "hit": false,
      "t": 256934.96999999924,
      "d": 80.64499999998952,
      "v": 68
    },
    {
      "midi": 43,
      "hit": false,
      "t": 257166.82437500107,
      "d": 241.93500000002678,
      "v": 73
    },
    {
      "midi": 69,
      "hit": false,
      "t": 257405.7351875011,
      "d": 1804.4318750000093,
      "v": 101
    },
    {
      "midi": 60,
      "hit": false,
      "t": 257408.7593750011,
      "d": 428.42656249998254,
      "v": 92
    },
    {
      "midi": 64,
      "hit": false,
      "t": 257410.7755000011,
      "d": 1774.1900000000023,
      "v": 91
    },
    {
      "midi": 41,
      "hit": false,
      "t": 257413.7996875011,
      "d": 1864.9156250000233,
      "v": 72
    },
    {
      "midi": 65,
      "hit": false,
      "t": 257415.8158125011,
      "d": 1772.1738750000077,
      "v": 91
    },
    {
      "midi": 60,
      "hit": false,
      "t": 257889.6051875011,
      "d": 461.69262499999604,
      "v": 80
    },
    {
      "midi": 38,
      "hit": false,
      "t": 257902.70999999924,
      "d": 80.64499999998952,
      "v": 68
    },
    {
      "midi": 48,
      "hit": false,
      "t": 258136.5805000011,
      "d": 735.8856250000244,
      "v": 73
    },
    {
      "midi": 60,
      "hit": false,
      "t": 258381.5396875011,
      "d": 221.77374999999302,
      "v": 86
    },
    {
      "midi": 57,
      "hit": false,
      "t": 258620.45050000108,
      "d": 257.05593750003027,
      "v": 61
    },
    {
      "midi": 60,
      "hit": false,
      "t": 258862.3855000011,
      "d": 241.93499999999767,
      "v": 85
    },
    {
      "midi": 38,
      "hit": false,
      "t": 258870.44999999925,
      "d": 80.64499999998952,
      "v": 68
    },
    {
      "midi": 48,
      "hit": false,
      "t": 259087.1834375011,
      "d": 233.8705000000191,
      "v": 69
    },
    {
      "midi": 57,
      "hit": false,
      "t": 259109.3608125011,
      "d": 234.87856250003097,
      "v": 65
    },
    {
      "midi": 60,
      "hit": false,
      "t": 259344.23937500114,
      "d": 1864.9156250000524,
      "v": 88
    },
    {
      "midi": 64,
      "hit": false,
      "t": 259344.23937500114,
      "d": 1864.9156250000524,
      "v": 103
    },
    {
      "midi": 67,
      "hit": false,
      "t": 259344.23937500114,
      "d": 1864.9156250000524,
      "v": 94
    },
    {
      "midi": 71,
      "hit": false,
      "t": 259344.23937500114,
      "d": 1864.9156250000524,
      "v": 86
    },
    {
      "midi": 48,
      "hit": false,
      "t": 259349.27968750114,
      "d": 680.4421875000116,
      "v": 79
    },
    {
      "midi": 38,
      "hit": false,
      "t": 259838.18999999927,
      "d": 80.64499999998952,
      "v": 68
    },
    {
      "midi": 48,
      "hit": false,
      "t": 260072.06050000116,
      "d": 897.1756250000035,
      "v": 73
    },
    {
      "midi": 38,
      "hit": false,
      "t": 260805.92999999927,
      "d": 80.64500000001863,
      "v": 68
    },
    {
      "midi": 43,
      "hit": false,
      "t": 261037.78437500118,
      "d": 241.93500000002678,
      "v": 73
    },
    {
      "midi": 69,
      "hit": false,
      "t": 261276.6951875012,
      "d": 1804.4318750000675,
      "v": 101
    },
    {
      "midi": 60,
      "hit": false,
      "t": 261279.7193750012,
      "d": 428.42656250001164,
      "v": 88
    },
    {
      "midi": 64,
      "hit": false,
      "t": 261281.7355000012,
      "d": 1774.1900000000314,
      "v": 91
    },
    {
      "midi": 41,
      "hit": false,
      "t": 261284.7596875012,
      "d": 1864.9156250000524,
      "v": 72
    },
    {
      "midi": 65,
      "hit": false,
      "t": 261286.7758125012,
      "d": 1772.1738750000368,
      "v": 91
    },
    {
      "midi": 60,
      "hit": false,
      "t": 261760.56518750123,
      "d": 461.69262500005425,
      "v": 80
    },
    {
      "midi": 38,
      "hit": false,
      "t": 261773.66999999929,
      "d": 80.64500000001863,
      "v": 68
    },
    {
      "midi": 48,
      "hit": false,
      "t": 262007.54050000123,
      "d": 735.8856249999953,
      "v": 73
    },
    {
      "midi": 57,
      "hit": false,
      "t": 262010.56468750123,
      "d": 1199.594374999986,
      "v": 73
    },
    {
      "midi": 60,
      "hit": false,
      "t": 262249.4755000013,
      "d": 481.8538749999716,
      "v": 91
    },
    {
      "midi": 62,
      "hit": false,
      "t": 262738.38581250125,
      "d": 481.8538749999134,
      "v": 91
    },
    {
      "midi": 38,
      "hit": false,
      "t": 262741.40999999933,
      "d": 80.64500000001863,
      "v": 68
    },
    {
      "midi": 48,
      "hit": false,
      "t": 262958.1434375012,
      "d": 233.8705000000191,
      "v": 69
    },
    {
      "midi": 60,
      "hit": false,
      "t": 263215.1993750012,
      "d": 1864.9156249999069,
      "v": 88
    },
    {
      "midi": 64,
      "hit": false,
      "t": 263215.1993750012,
      "d": 1864.9156249999069,
      "v": 103
    },
    {
      "midi": 67,
      "hit": false,
      "t": 263215.1993750012,
      "d": 1864.9156249999069,
      "v": 94
    },
    {
      "midi": 71,
      "hit": false,
      "t": 263215.1993750012,
      "d": 1864.9156249999069,
      "v": 86
    },
    {
      "midi": 48,
      "hit": false,
      "t": 263220.23968750116,
      "d": 680.4421875000116,
      "v": 79
    },
    {
      "midi": 38,
      "hit": false,
      "t": 263709.1499999993,
      "d": 80.64500000001863,
      "v": 68
    },
    {
      "midi": 48,
      "hit": false,
      "t": 263943.02050000115,
      "d": 897.1756250000326,
      "v": 73
    },
    {
      "midi": 38,
      "hit": false,
      "t": 264676.8899999994,
      "d": 80.64500000001863,
      "v": 68
    },
    {
      "midi": 43,
      "hit": false,
      "t": 264908.7443750012,
      "d": 241.93499999993946,
      "v": 73
    },
    {
      "midi": 69,
      "hit": false,
      "t": 265147.6551875011,
      "d": 1804.4318750000093,
      "v": 101
    },
    {
      "midi": 60,
      "hit": false,
      "t": 265150.6793750011,
      "d": 428.42656250006985,
      "v": 92
    },
    {
      "midi": 64,
      "hit": false,
      "t": 265152.69550000114,
      "d": 1774.1899999999441,
      "v": 91
    },
    {
      "midi": 41,
      "hit": false,
      "t": 265155.71968750114,
      "d": 1864.915624999965,
      "v": 72
    },
    {
      "midi": 65,
      "hit": false,
      "t": 265157.73581250117,
      "d": 1772.1738749999204,
      "v": 91
    },
    {
      "midi": 60,
      "hit": false,
      "t": 265631.52518750116,
      "d": 461.69262499996694,
      "v": 80
    },
    {
      "midi": 38,
      "hit": false,
      "t": 265644.6299999994,
      "d": 80.64499999996042,
      "v": 68
    },
    {
      "midi": 48,
      "hit": false,
      "t": 265878.50050000113,
      "d": 735.8856249999953,
      "v": 73
    },
    {
      "midi": 60,
      "hit": false,
      "t": 266123.45968750113,
      "d": 221.77374999999302,
      "v": 86
    },
    {
      "midi": 57,
      "hit": false,
      "t": 266362.3705000011,
      "d": 257.05593749997206,
      "v": 61
    },
    {
      "midi": 62,
      "hit": false,
      "t": 266604.3055000011,
      "d": 241.93499999999767,
      "v": 85
    },
    {
      "midi": 38,
      "hit": false,
      "t": 266612.3699999994,
      "d": 80.64500000001863,
      "v": 68
    },
    {
      "midi": 48,
      "hit": false,
      "t": 266829.1034375011,
      "d": 233.87049999996088,
      "v": 69
    },
    {
      "midi": 60,
      "hit": false,
      "t": 266851.2808125011,
      "d": 234.87856250000186,
      "v": 65
    }
  ]
}