{
  "jsonPath": "Jazz/Contemporary Vocal Jazz/John Stevens/this-love-album-version.json",
  "path": "Jazz\\Contemporary Vocal Jazz\\John Stevens\\This Love (Album Version).mid",
  "name": "This Love (Album Version)",
  "difficulty": "Advanced",
  "bpm": 120,
  "notes": [
    {
      "midi": 70,
      "hit": false,
      "t": 4859.375,
      "d": 1276.041666666666,
      "v": 82
    },
    {
      "midi": 43,
      "hit": false,
      "t": 4864.583333333333,
      "d": 1255.208333333333,
      "v": 85
    },
    {
      "midi": 55,
      "hit": false,
      "t": 4864.583333333333,
      "d": 1270.833333333333,
      "v": 83
    },
    {
      "midi": 67,
      "hit": false,
      "t": 4864.583333333333,
      "d": 1270.833333333333,
      "v": 90
    },
    {
      "midi": 62,
      "hit": false,
      "t": 4864.583333333333,
      "d": 1276.041666666666,
      "v": 81
    },
    {
      "midi": 67,
      "hit": false,
      "t": 6145.833333333332,
      "d": 229.16666666666697,
      "v": 101
    },
    {
      "midi": 70,
      "hit": false,
      "t": 6145.833333333332,
      "d": 250,
      "v": 96
    },
    {
      "midi": 62,
      "hit": false,
      "t": 6145.833333333332,
      "d": 260.41666666666697,
      "v": 79
    },
    {
      "midi": 53,
      "hit": false,
      "t": 6145.833333333332,
      "d": 302.08333333333394,
      "v": 85
    },
    {
      "midi": 41,
      "hit": false,
      "t": 6145.833333333332,
      "d": 333.33333333333394,
      "v": 87
    },
    {
      "midi": 67,
      "hit": false,
      "t": 6562.499999999999,
      "d": 1187.5,
      "v": 94
    },
    {
      "midi": 39,
      "hit": false,
      "t": 6562.499999999999,
      "d": 1270.833333333333,
      "v": 96
    },
    {
      "midi": 63,
      "hit": false,
      "t": 6562.499999999999,
      "d": 1286.458333333333,
      "v": 89
    },
    {
      "midi": 51,
      "hit": false,
      "t": 6562.499999999999,
      "d": 1328.125,
      "v": 75
    },
    {
      "midi": 70,
      "hit": false,
      "t": 6567.708333333332,
      "d": 1244.791666666667,
      "v": 75
    },
    {
      "midi": 41,
      "hit": false,
      "t": 8270.833333333334,
      "d": 3234.375,
      "v": 88
    },
    {
      "midi": 53,
      "hit": false,
      "t": 8270.833333333334,
      "d": 3401.041666666666,
      "v": 90
    },
    {
      "midi": 58,
      "hit": false,
      "t": 8270.833333333334,
      "d": 3401.041666666666,
      "v": 102
    },
    {
      "midi": 65,
      "hit": false,
      "t": 8270.833333333334,
      "d": 3401.041666666666,
      "v": 88
    },
    {
      "midi": 62,
      "hit": false,
      "t": 8270.833333333334,
      "d": 3406.25,
      "v": 86
    },
    {
      "midi": 70,
      "hit": false,
      "t": 8270.833333333334,
      "d": 3406.25,
      "v": 104
    },
    {
      "midi": 65,
      "hit": false,
      "t": 11687.5,
      "d": 2911.458333333332,
      "v": 96
    },
    {
      "midi": 69,
      "hit": false,
      "t": 11687.5,
      "d": 2911.458333333332,
      "v": 103
    },
    {
      "midi": 63,
      "hit": false,
      "t": 11687.5,
      "d": 2932.291666666666,
      "v": 86
    },
    {
      "midi": 60,
      "hit": false,
      "t": 11687.5,
      "d": 2963.541666666666,
      "v": 99
    },
    {
      "midi": 41,
      "hit": false,
      "t": 11687.5,
      "d": 3041.666666666666,
      "v": 86
    },
    {
      "midi": 53,
      "hit": false,
      "t": 11687.5,
      "d": 3109.375,
      "v": 94
    },
    {
      "midi": 70,
      "hit": false,
      "t": 15098.958333333334,
      "d": 458.33333333333394,
      "v": 94
    },
    {
      "midi": 58,
      "hit": false,
      "t": 15098.958333333334,
      "d": 515.625,
      "v": 82
    },
    {
      "midi": 65,
      "hit": false,
      "t": 15104.166666666668,
      "d": 437.5,
      "v": 87
    },
    {
      "midi": 62,
      "hit": false,
      "t": 15104.166666666668,
      "d": 479.16666666666606,
      "v": 83
    },
    {
      "midi": 46,
      "hit": false,
      "t": 15104.166666666668,
      "d": 6364.583333333325,
      "v": 96
    },
    {
      "midi": 70,
      "hit": false,
      "t": 15947.916666666668,
      "d": 468.75,
      "v": 75
    },
    {
      "midi": 58,
      "hit": false,
      "t": 15947.916666666668,
      "d": 479.1666666666679,
      "v": 87
    },
    {
      "midi": 65,
      "hit": false,
      "t": 15953.125000000002,
      "d": 421.875,
      "v": 79
    },
    {
      "midi": 62,
      "hit": false,
      "t": 15953.125000000002,
      "d": 442.70833333333394,
      "v": 80
    },
    {
      "midi": 62,
      "hit": false,
      "t": 16796.875000000004,
      "d": 453.12499999999636,
      "v": 79
    },
    {
      "midi": 58,
      "hit": false,
      "t": 16796.875000000004,
      "d": 520.8333333333285,
      "v": 75
    },
    {
      "midi": 65,
      "hit": false,
      "t": 16802.083333333336,
      "d": 427.0833333333321,
      "v": 87
    },
    {
      "midi": 70,
      "hit": false,
      "t": 16802.083333333336,
      "d": 447.91666666666424,
      "v": 84
    },
    {
      "midi": 65,
      "hit": false,
      "t": 17651.041666666664,
      "d": 411.4583333333321,
      "v": 91
    },
    {
      "midi": 62,
      "hit": false,
      "t": 17651.041666666664,
      "d": 447.91666666666424,
      "v": 83
    },
    {
      "midi": 70,
      "hit": false,
      "t": 17651.041666666664,
      "d": 479.16666666666424,
      "v": 86
    },
    {
      "midi": 58,
      "hit": false,
      "t": 17651.041666666664,
      "d": 489.5833333333321,
      "v": 84
    },
    {
      "midi": 58,
      "hit": false,
      "t": 18499.999999999996,
      "d": 447.91666666666424,
      "v": 87
    },
    {
      "midi": 70,
      "hit": false,
      "t": 18499.999999999996,
      "d": 447.91666666666424,
      "v": 87
    },
    {
      "midi": 65,
      "hit": false,
      "t": 18505.20833333333,
      "d": 375,
      "v": 86
    },
    {
      "midi": 62,
      "hit": false,
      "t": 18505.20833333333,
      "d": 395.8333333333321,
      "v": 83
    },
    {
      "midi": 65,
      "hit": false,
      "t": 19354.16666666666,
      "d": 375,
      "v": 85
    },
    {
      "midi": 62,
      "hit": false,
      "t": 19354.16666666666,
      "d": 385.4166666666679,
      "v": 81
    },
    {
      "midi": 70,
      "hit": false,
      "t": 19354.16666666666,
      "d": 416.6666666666679,
      "v": 84
    },
    {
      "midi": 58,
      "hit": false,
      "t": 19354.16666666666,
      "d": 489.58333333333576,
      "v": 86
    },
    {
      "midi": 65,
      "hit": false,
      "t": 20208.33333333333,
      "d": 375,
      "v": 88
    },
    {
      "midi": 62,
      "hit": false,
      "t": 20208.33333333333,
      "d": 395.8333333333321,
      "v": 82
    },
    {
      "midi": 70,
      "hit": false,
      "t": 20208.33333333333,
      "d": 416.66666666666424,
      "v": 89
    },
    {
      "midi": 58,
      "hit": false,
      "t": 20208.33333333333,
      "d": 458.3333333333321,
      "v": 75
    },
    {
      "midi": 58,
      "hit": false,
      "t": 21062.499999999993,
      "d": 848.9583333333358,
      "v": 86
    },
    {
      "midi": 62,
      "hit": false,
      "t": 21062.499999999993,
      "d": 848.9583333333358,
      "v": 81
    },
    {
      "midi": 65,
      "hit": false,
      "t": 21062.499999999993,
      "d": 848.9583333333358,
      "v": 87
    },
    {
      "midi": 70,
      "hit": false,
      "t": 21062.499999999993,
      "d": 848.9583333333358,
      "v": 87
    },
    {
      "midi": 41,
      "hit": false,
      "t": 21489.58333333333,
      "d": 416.6666666666679,
      "v": 87
    },
    {
      "midi": 65,
      "hit": false,
      "t": 21916.66666666666,
      "d": 453.125,
      "v": 92
    },
    {
      "midi": 70,
      "hit": false,
      "t": 21916.66666666666,
      "d": 458.3333333333321,
      "v": 91
    },
    {
      "midi": 62,
      "hit": false,
      "t": 21916.66666666666,
      "d": 520.8333333333321,
      "v": 88
    },
    {
      "midi": 58,
      "hit": false,
      "t": 21916.66666666666,
      "d": 526.0416666666642,
      "v": 100
    },
    {
      "midi": 46,
      "hit": false,
      "t": 21916.66666666666,
      "d": 3166.6666666666497,
      "v": 104
    },
    {
      "midi": 62,
      "hit": false,
      "t": 22760.416666666657,
      "d": 453.12499999999636,
      "v": 79
    },
    {
      "midi": 58,
      "hit": false,
      "t": 22760.416666666657,
      "d": 489.5833333333321,
      "v": 75
    },
    {
      "midi": 65,
      "hit": false,
      "t": 22765.62499999999,
      "d": 442.7083333333321,
      "v": 79
    },
    {
      "midi": 70,
      "hit": false,
      "t": 22765.62499999999,
      "d": 473.9583333333321,
      "v": 91
    },
    {
      "midi": 58,
      "hit": false,
      "t": 23598.95833333332,
      "d": 526.0416666666606,
      "v": 79
    },
    {
      "midi": 65,
      "hit": false,
      "t": 23604.166666666653,
      "d": 395.8333333333321,
      "v": 82
    },
    {
      "midi": 70,
      "hit": false,
      "t": 23604.166666666653,
      "d": 416.66666666666424,
      "v": 89
    },
    {
      "midi": 62,
      "hit": false,
      "t": 23604.166666666653,
      "d": 453.12499999999636,
      "v": 79
    },
    {
      "midi": 58,
      "hit": false,
      "t": 24442.708333333314,
      "d": 348.9583333333285,
      "v": 82
    },
    {
      "midi": 70,
      "hit": false,
      "t": 24447.916666666646,
      "d": 317.7083333333321,
      "v": 87
    },
    {
      "midi": 62,
      "hit": false,
      "t": 24447.916666666646,
      "d": 322.91666666666424,
      "v": 83
    },
    {
      "midi": 65,
      "hit": false,
      "t": 24447.916666666646,
      "d": 322.91666666666424,
      "v": 87
    },
    {
      "midi": 69,
      "hit": false,
      "t": 25291.666666666642,
      "d": 453.125,
      "v": 97
    },
    {
      "midi": 65,
      "hit": false,
      "t": 25291.666666666642,
      "d": 494.7916666666679,
      "v": 87
    },
    {
      "midi": 60,
      "hit": false,
      "t": 25291.666666666642,
      "d": 531.25,
      "v": 101
    },
    {
      "midi": 45,
      "hit": false,
      "t": 25291.666666666642,
      "d": 3270.833333333332,
      "v": 88
    },
    {
      "midi": 69,
      "hit": false,
      "t": 26124.999999999975,
      "d": 427.0833333333321,
      "v": 101
    },
    {
      "midi": 60,
      "hit": false,
      "t": 26124.999999999975,
      "d": 432.29166666666424,
      "v": 92
    },
    {
      "midi": 65,
      "hit": false,
      "t": 26124.999999999975,
      "d": 499.99999999999636,
      "v": 94
    },
    {
      "midi": 69,
      "hit": false,
      "t": 26979.16666666664,
      "d": 453.125,
      "v": 88
    },
    {
      "midi": 60,
      "hit": false,
      "t": 26979.16666666664,
      "d": 458.3333333333321,
      "v": 87
    },
    {
      "midi": 65,
      "hit": false,
      "t": 26979.16666666664,
      "d": 463.54166666666424,
      "v": 90
    },
    {
      "midi": 69,
      "hit": false,
      "t": 27828.12499999997,
      "d": 432.2916666666679,
      "v": 96
    },
    {
      "midi": 65,
      "hit": false,
      "t": 27828.12499999997,
      "d": 463.5416666666679,
      "v": 90
    },
    {
      "midi": 60,
      "hit": false,
      "t": 27828.12499999997,
      "d": 505.20833333333576,
      "v": 91
    },
    {
      "midi": 63,
      "hit": false,
      "t": 28682.291666666642,
      "d": 458.3333333333321,
      "v": 91
    },
    {
      "midi": 60,
      "hit": false,
      "t": 28682.291666666642,
      "d": 536.4583333333321,
      "v": 91
    },
    {
      "midi": 55,
      "hit": false,
      "t": 28682.291666666642,
      "d": 2994.7916666666642,
      "v": 75
    },
    {
      "midi": 43,
      "hit": false,
      "t": 28682.291666666642,
      "d": 3031.2499999999964,
      "v": 79
    },
    {
      "midi": 67,
      "hit": false,
      "t": 28687.499999999975,
      "d": 447.9166666666679,
      "v": 90
    },
    {
      "midi": 67,
      "hit": false,
      "t": 29520.833333333307,
      "d": 458.3333333333321,
      "v": 87
    },
    {
      "midi": 63,
      "hit": false,
      "t": 29520.833333333307,
      "d": 479.16666666666424,
      "v": 83
    },
    {
      "midi": 60,
      "hit": false,
      "t": 29520.833333333307,
      "d": 499.99999999999636,
      "v": 83
    },
    {
      "midi": 67,
      "hit": false,
      "t": 30359.37499999997,
      "d": 432.2916666666679,
      "v": 87
    },
    {
      "midi": 63,
      "hit": false,
      "t": 30359.37499999997,
      "d": 442.70833333333576,
      "v": 84
    },
    {
      "midi": 60,
      "hit": false,
      "t": 30359.37499999997,
      "d": 468.75000000000364,
      "v": 87
    },
    {
      "midi": 63,
      "hit": false,
      "t": 31208.333333333307,
      "d": 390.625,
      "v": 87
    },
    {
      "midi": 60,
      "hit": false,
      "t": 31208.333333333307,
      "d": 437.5,
      "v": 94
    },
    {
      "midi": 67,
      "hit": false,
      "t": 31208.333333333307,
      "d": 437.5,
      "v": 87
    },
    {
      "midi": 70,
      "hit": false,
      "t": 32046.874999999975,
      "d": 463.54166666666424,
      "v": 92
    },
    {
      "midi": 58,
      "hit": false,
      "t": 32046.874999999975,
      "d": 468.74999999999636,
      "v": 86
    },
    {
      "midi": 62,
      "hit": false,
      "t": 32052.083333333307,
      "d": 395.8333333333321,
      "v": 82
    },
    {
      "midi": 65,
      "hit": false,
      "t": 32052.083333333307,
      "d": 395.8333333333321,
      "v": 85
    },
    {
      "midi": 41,
      "hit": false,
      "t": 32052.083333333307,
      "d": 1406.2499999999927,
      "v": 79
    },
    {
      "midi": 53,
      "hit": false,
      "t": 32052.083333333307,
      "d": 1421.8749999999927,
      "v": 79
    },
    {
      "midi": 58,
      "hit": false,
      "t": 32885.416666666635,
      "d": 364.58333333333576,
      "v": 78
    },
    {
      "midi": 70,
      "hit": false,
      "t": 32890.62499999997,
      "d": 322.91666666666424,
      "v": 94
    },
    {
      "midi": 62,
      "hit": false,
      "t": 32890.62499999997,
      "d": 338.54166666666424,
      "v": 80
    },
    {
      "midi": 65,
      "hit": false,
      "t": 32890.62499999997,
      "d": 369.79166666666424,
      "v": 90
    },
    {
      "midi": 63,
      "hit": false,
      "t": 33723.9583333333,
      "d": 546.875,
      "v": 80
    },
    {
      "midi": 53,
      "hit": false,
      "t": 33723.9583333333,
      "d": 1723.9583333333358,
      "v": 85
    },
    {
      "midi": 69,
      "hit": false,
      "t": 33729.166666666635,
      "d": 479.16666666666424,
      "v": 96
    },
    {
      "midi": 65,
      "hit": false,
      "t": 33729.166666666635,
      "d": 510.41666666666424,
      "v": 90
    },
    {
      "midi": 60,
      "hit": false,
      "t": 33729.166666666635,
      "d": 552.0833333333285,
      "v": 90
    },
    {
      "midi": 41,
      "hit": false,
      "t": 33729.166666666635,
      "d": 1583.3333333333285,
      "v": 83
    },
    {
      "midi": 63,
      "hit": false,
      "t": 34572.91666666663,
      "d": 375.0000000000073,
      "v": 80
    },
    {
      "midi": 65,
      "hit": false,
      "t": 34578.12499999996,
      "d": 364.58333333333576,
      "v": 83
    },
    {
      "midi": 69,
      "hit": false,
      "t": 34578.12499999996,
      "d": 364.58333333333576,
      "v": 99
    },
    {
      "midi": 60,
      "hit": false,
      "t": 34578.12499999996,
      "d": 442.70833333333576,
      "v": 91
    },
    {
      "midi": 58,
      "hit": false,
      "t": 35421.87499999996,
      "d": 802.0833333333358,
      "v": 89
    },
    {
      "midi": 46,
      "hit": false,
      "t": 35421.87499999996,
      "d": 3338.5416666666715,
      "v": 96
    },
    {
      "midi": 62,
      "hit": false,
      "t": 35427.0833333333,
      "d": 796.875,
      "v": 85
    },
    {
      "midi": 65,
      "hit": false,
      "t": 35427.0833333333,
      "d": 796.875,
      "v": 92
    },
    {
      "midi": 70,
      "hit": false,
      "t": 35427.0833333333,
      "d": 796.875,
      "v": 104
    },
    {
      "midi": 58,
      "hit": false,
      "t": 36270.8333333333,
      "d": 812.5,
      "v": 80
    },
    {
      "midi": 62,
      "hit": false,
      "t": 36270.8333333333,
      "d": 812.5,
      "v": 80
    },
    {
      "midi": 65,
      "hit": false,
      "t": 36270.8333333333,
      "d": 812.5,
      "v": 87
    },
    {
      "midi": 70,
      "hit": false,
      "t": 36270.8333333333,
      "d": 812.5,
      "v": 89
    },
    {
      "midi": 65,
      "hit": false,
      "t": 37109.37499999996,
      "d": 822.9166666666642,
      "v": 85
    },
    {
      "midi": 58,
      "hit": false,
      "t": 37109.37499999996,
      "d": 828.125,
      "v": 84
    },
    {
      "midi": 62,
      "hit": false,
      "t": 37109.37499999996,
      "d": 828.125,
      "v": 82
    },
    {
      "midi": 70,
      "hit": false,
      "t": 37109.37499999996,
      "d": 828.125,
      "v": 86
    },
    {
      "midi": 58,
      "hit": false,
      "t": 37958.3333333333,
      "d": 822.9166666666715,
      "v": 87
    },
    {
      "midi": 62,
      "hit": false,
      "t": 37958.3333333333,
      "d": 822.9166666666715,
      "v": 86
    },
    {
      "midi": 70,
      "hit": false,
      "t": 37958.3333333333,
      "d": 822.9166666666715,
      "v": 94
    },
    {
      "midi": 65,
      "hit": false,
      "t": 37958.3333333333,
      "d": 828.1250000000073,
      "v": 91
    },
    {
      "midi": 69,
      "hit": false,
      "t": 38812.49999999997,
      "d": 416.66666666666424,
      "v": 91
    },
    {
      "midi": 60,
      "hit": false,
      "t": 38812.49999999997,
      "d": 484.375,
      "v": 96
    },
    {
      "midi": 65,
      "hit": false,
      "t": 38812.49999999997,
      "d": 484.375,
      "v": 96
    },
    {
      "midi": 45,
      "hit": false,
      "t": 38812.49999999997,
      "d": 2947.9166666666715,
      "v": 87
    },
    {
      "midi": 65,
      "hit": false,
      "t": 39645.83333333331,
      "d": 390.625,
      "v": 87
    },
    {
      "midi": 69,
      "hit": false,
      "t": 39645.83333333331,
      "d": 390.625,
      "v": 91
    },
    {
      "midi": 60,
      "hit": false,
      "t": 39645.83333333331,
      "d": 458.33333333333576,
      "v": 90
    },
    {
      "midi": 65,
      "hit": false,
      "t": 40494.79166666664,
      "d": 421.875,
      "v": 87
    },
    {
      "midi": 69,
      "hit": false,
      "t": 40499.99999999998,
      "d": 385.41666666666424,
      "v": 94
    },
    {
      "midi": 60,
      "hit": false,
      "t": 40499.99999999998,
      "d": 395.8333333333285,
      "v": 88
    },
    {
      "midi": 69,
      "hit": false,
      "t": 41348.95833333331,
      "d": 390.625,
      "v": 92
    },
    {
      "midi": 65,
      "hit": false,
      "t": 41348.95833333331,
      "d": 421.875,
      "v": 87
    },
    {
      "midi": 60,
      "hit": false,
      "t": 41348.95833333331,
      "d": 463.54166666666424,
      "v": 92
    },
    {
      "midi": 63,
      "hit": false,
      "t": 42192.70833333331,
      "d": 437.5,
      "v": 102
    },
    {
      "midi": 60,
      "hit": false,
      "t": 42192.70833333331,
      "d": 494.79166666666424,
      "v": 86
    },
    {
      "midi": 36,
      "hit": false,
      "t": 42192.70833333331,
      "d": 1005.2083333333285,
      "v": 86
    },
    {
      "midi": 48,
      "hit": false,
      "t": 42192.70833333331,
      "d": 1078.1249999999927,
      "v": 80
    },
    {
      "midi": 67,
      "hit": false,
      "t": 42197.91666666664,
      "d": 421.875,
      "v": 94
    },
    {
      "midi": 60,
      "hit": false,
      "t": 43026.041666666635,
      "d": 135.41666666666424,
      "v": 88
    },
    {
      "midi": 63,
      "hit": false,
      "t": 43026.041666666635,
      "d": 140.625,
      "v": 86
    },
    {
      "midi": 67,
      "hit": false,
      "t": 43026.041666666635,
      "d": 171.875,
      "v": 92
    },
    {
      "midi": 38,
      "hit": false,
      "t": 43453.12499999996,
      "d": 416.6666666666715,
      "v": 86
    },
    {
      "midi": 62,
      "hit": false,
      "t": 43453.12499999996,
      "d": 416.6666666666715,
      "v": 83
    },
    {
      "midi": 50,
      "hit": false,
      "t": 43453.12499999996,
      "d": 421.8750000000073,
      "v": 75
    },
    {
      "midi": 65,
      "hit": false,
      "t": 43453.12499999996,
      "d": 421.8750000000073,
      "v": 96
    },
    {
      "midi": 69,
      "hit": false,
      "t": 43453.12499999996,
      "d": 421.8750000000073,
      "v": 83
    },
    {
      "midi": 70,
      "hit": false,
      "t": 43874.99999999997,
      "d": 463.54166666666424,
      "v": 89
    },
    {
      "midi": 67,
      "hit": false,
      "t": 43874.99999999997,
      "d": 484.375,
      "v": 99
    },
    {
      "midi": 63,
      "hit": false,
      "t": 43874.99999999997,
      "d": 505.20833333333576,
      "v": 102
    },
    {
      "midi": 51,
      "hit": false,
      "t": 43874.99999999997,
      "d": 1250,
      "v": 82
    },
    {
      "midi": 39,
      "hit": false,
      "t": 43874.99999999997,
      "d": 1677.0833333333358,
      "v": 91
    },
    {
      "midi": 67,
      "hit": false,
      "t": 44723.95833333331,
      "d": 296.875,
      "v": 88
    },
    {
      "midi": 70,
      "hit": false,
      "t": 44723.95833333331,
      "d": 322.91666666666424,
      "v": 86
    },
    {
      "midi": 63,
      "hit": false,
      "t": 44723.95833333331,
      "d": 380.2083333333285,
      "v": 82
    },
    {
      "midi": 70,
      "hit": false,
      "t": 45567.70833333331,
      "d": 416.6666666666715,
      "v": 91
    },
    {
      "midi": 58,
      "hit": false,
      "t": 45567.70833333331,
      "d": 500,
      "v": 100
    },
    {
      "midi": 53,
      "hit": false,
      "t": 45567.70833333331,
      "d": 1468.75,
      "v": 81
    },
    {
      "midi": 41,
      "hit": false,
      "t": 45567.70833333331,
      "d": 1682.2916666666642,
      "v": 81
    },
    {
      "midi": 65,
      "hit": false,
      "t": 45572.91666666664,
      "d": 427.08333333333576,
      "v": 90
    },
    {
      "midi": 62,
      "hit": false,
      "t": 45572.91666666664,
      "d": 453.125,
      "v": 90
    },
    {
      "midi": 65,
      "hit": false,
      "t": 46411.45833333331,
      "d": 296.875,
      "v": 82
    },
    {
      "midi": 70,
      "hit": false,
      "t": 46411.45833333331,
      "d": 296.875,
      "v": 76
    },
    {
      "midi": 62,
      "hit": false,
      "t": 46411.45833333331,
      "d": 307.29166666666424,
      "v": 82
    },
    {
      "midi": 58,
      "hit": false,
      "t": 46411.45833333331,
      "d": 322.91666666666424,
      "v": 83
    },
    {
      "midi": 69,
      "hit": false,
      "t": 47255.20833333331,
      "d": 317.70833333333576,
      "v": 97
    },
    {
      "midi": 65,
      "hit": false,
      "t": 47255.20833333331,
      "d": 359.375,
      "v": 90
    },
    {
      "midi": 53,
      "hit": false,
      "t": 47255.20833333331,
      "d": 369.79166666666424,
      "v": 88
    },
    {
      "midi": 41,
      "hit": false,
      "t": 47255.20833333331,
      "d": 385.41666666666424,
      "v": 81
    },
    {
      "midi": 60,
      "hit": false,
      "t": 47255.20833333331,
      "d": 442.7083333333285,
      "v": 94
    },
    {
      "midi": 62,
      "hit": false,
      "t": 48104.166666666635,
      "d": 364.5833333333285,
      "v": 92
    },
    {
      "midi": 69,
      "hit": false,
      "t": 48104.166666666635,
      "d": 364.5833333333285,
      "v": 92
    },
    {
      "midi": 60,
      "hit": false,
      "t": 48104.166666666635,
      "d": 369.79166666666424,
      "v": 92
    },
    {
      "midi": 66,
      "hit": false,
      "t": 48104.166666666635,
      "d": 390.625,
      "v": 86
    },
    {
      "midi": 42,
      "hit": false,
      "t": 48104.166666666635,
      "d": 395.83333333333576,
      "v": 84
    },
    {
      "midi": 54,
      "hit": false,
      "t": 48104.166666666635,
      "d": 473.95833333333576,
      "v": 87
    },
    {
      "midi": 70,
      "hit": false,
      "t": 48953.12499999997,
      "d": 406.25,
      "v": 87
    },
    {
      "midi": 67,
      "hit": false,
      "t": 48953.12499999997,
      "d": 421.875,
      "v": 94
    },
    {
      "midi": 62,
      "hit": false,
      "t": 48953.12499999997,
      "d": 432.29166666666424,
      "v": 85
    },
    {
      "midi": 43,
      "hit": false,
      "t": 48953.12499999997,
      "d": 3031.2499999999927,
      "v": 83
    },
    {
      "midi": 55,
      "hit": false,
      "t": 48953.12499999997,
      "d": 3104.166666666657,
      "v": 79
    },
    {
      "midi": 70,
      "hit": false,
      "t": 49791.666666666635,
      "d": 432.29166666666424,
      "v": 84
    },
    {
      "midi": 62,
      "hit": false,
      "t": 49791.666666666635,
      "d": 453.125,
      "v": 80
    },
    {
      "midi": 67,
      "hit": false,
      "t": 49791.666666666635,
      "d": 484.375,
      "v": 88
    },
    {
      "midi": 70,
      "hit": false,
      "t": 50645.8333333333,
      "d": 385.41666666666424,
      "v": 82
    },
    {
      "midi": 67,
      "hit": false,
      "t": 50645.8333333333,
      "d": 401.04166666666424,
      "v": 88
    },
    {
      "midi": 62,
      "hit": false,
      "t": 50645.8333333333,
      "d": 442.7083333333285,
      "v": 79
    },
    {
      "midi": 70,
      "hit": false,
      "t": 51494.79166666663,
      "d": 411.45833333333576,
      "v": 86
    },
    {
      "midi": 67,
      "hit": false,
      "t": 51499.99999999996,
      "d": 447.91666666666424,
      "v": 90
    },
    {
      "midi": 62,
      "hit": false,
      "t": 51499.99999999996,
      "d": 479.16666666666424,
      "v": 86
    },
    {
      "midi": 65,
      "hit": false,
      "t": 52333.33333333329,
      "d": 515.6250000000073,
      "v": 99
    },
    {
      "midi": 41,
      "hit": false,
      "t": 52333.33333333329,
      "d": 3197.916666666686,
      "v": 82
    },
    {
      "midi": 53,
      "hit": false,
      "t": 52333.33333333329,
      "d": 3270.8333333333503,
      "v": 83
    },
    {
      "midi": 70,
      "hit": false,
      "t": 52338.54166666663,
      "d": 494.7916666666715,
      "v": 91
    },
    {
      "midi": 62,
      "hit": false,
      "t": 52338.54166666663,
      "d": 515.6250000000073,
      "v": 85
    },
    {
      "midi": 70,
      "hit": false,
      "t": 53171.87499999997,
      "d": 453.125,
      "v": 80
    },
    {
      "midi": 65,
      "hit": false,
      "t": 53171.87499999997,
      "d": 500,
      "v": 92
    },
    {
      "midi": 62,
      "hit": false,
      "t": 53171.87499999997,
      "d": 567.7083333333358,
      "v": 80
    },
    {
      "midi": 65,
      "hit": false,
      "t": 54020.83333333331,
      "d": 463.5416666666715,
      "v": 90
    },
    {
      "midi": 70,
      "hit": false,
      "t": 54026.04166666664,
      "d": 453.125,
      "v": 84
    },
    {
      "midi": 62,
      "hit": false,
      "t": 54026.04166666664,
      "d": 536.4583333333358,
      "v": 80
    },
    {
      "midi": 70,
      "hit": false,
      "t": 54880.208333333314,
      "d": 354.16666666666424,
      "v": 82
    },
    {
      "midi": 65,
      "hit": false,
      "t": 54880.208333333314,
      "d": 411.4583333333285,
      "v": 94
    },
    {
      "midi": 62,
      "hit": false,
      "t": 54880.208333333314,
      "d": 427.0833333333285,
      "v": 85
    },
    {
      "midi": 70,
      "hit": false,
      "t": 55729.16666666664,
      "d": 458.33333333334303,
      "v": 87
    },
    {
      "midi": 63,
      "hit": false,
      "t": 55729.16666666664,
      "d": 463.5416666666788,
      "v": 92
    },
    {
      "midi": 60,
      "hit": false,
      "t": 55729.16666666664,
      "d": 536.458333333343,
      "v": 91
    },
    {
      "midi": 48,
      "hit": false,
      "t": 55729.16666666664,
      "d": 3125,
      "v": 91
    },
    {
      "midi": 67,
      "hit": false,
      "t": 55734.37499999998,
      "d": 447.9166666666715,
      "v": 90
    },
    {
      "midi": 67,
      "hit": false,
      "t": 56583.33333333332,
      "d": 541.6666666666642,
      "v": 91
    },
    {
      "midi": 63,
      "hit": false,
      "t": 56583.33333333332,
      "d": 557.2916666666642,
      "v": 79
    },
    {
      "midi": 70,
      "hit": false,
      "t": 56583.33333333332,
      "d": 557.2916666666642,
      "v": 86
    },
    {
      "midi": 60,
      "hit": false,
      "t": 56583.33333333332,
      "d": 578.125,
      "v": 76
    },
    {
      "midi": 36,
      "hit": false,
      "t": 57421.874999999985,
      "d": 1682.291666666657,
      "v": 92
    },
    {
      "midi": 70,
      "hit": false,
      "t": 57427.08333333332,
      "d": 484.375,
      "v": 87
    },
    {
      "midi": 63,
      "hit": false,
      "t": 57427.08333333332,
      "d": 494.79166666666424,
      "v": 82
    },
    {
      "midi": 67,
      "hit": false,
      "t": 57427.08333333332,
      "d": 494.79166666666424,
      "v": 87
    },
    {
      "midi": 60,
      "hit": false,
      "t": 57427.08333333332,
      "d": 536.4583333333285,
      "v": 81
    },
    {
      "midi": 67,
      "hit": false,
      "t": 58270.833333333314,
      "d": 322.91666666666424,
      "v": 90
    },
    {
      "midi": 70,
      "hit": false,
      "t": 58270.833333333314,
      "d": 343.75,
      "v": 82
    },
    {
      "midi": 63,
      "hit": false,
      "t": 58270.833333333314,
      "d": 354.16666666666424,
      "v": 84
    },
    {
      "midi": 60,
      "hit": false,
      "t": 58270.833333333314,
      "d": 427.0833333333285,
      "v": 80
    },
    {
      "midi": 60,
      "hit": false,
      "t": 59114.58333333331,
      "d": 468.7500000000073,
      "v": 88
    },
    {
      "midi": 38,
      "hit": false,
      "t": 59114.58333333331,
      "d": 1578.1250000000146,
      "v": 81
    },
    {
      "midi": 69,
      "hit": false,
      "t": 59119.79166666664,
      "d": 385.4166666666715,
      "v": 88
    },
    {
      "midi": 67,
      "hit": false,
      "t": 59119.79166666664,
      "d": 432.2916666666715,
      "v": 94
    },
    {
      "midi": 62,
      "hit": false,
      "t": 59119.79166666664,
      "d": 463.5416666666715,
      "v": 87
    },
    {
      "midi": 50,
      "hit": false,
      "t": 59119.79166666664,
      "d": 1500.0000000000146,
      "v": 75
    },
    {
      "midi": 67,
      "hit": false,
      "t": 59963.54166666665,
      "d": 453.125,
      "v": 94
    },
    {
      "midi": 69,
      "hit": false,
      "t": 59963.54166666665,
      "d": 473.95833333333576,
      "v": 88
    },
    {
      "midi": 60,
      "hit": false,
      "t": 59963.54166666665,
      "d": 494.7916666666715,
      "v": 90
    },
    {
      "midi": 62,
      "hit": false,
      "t": 59963.54166666665,
      "d": 510.4166666666715,
      "v": 86
    },
    {
      "midi": 66,
      "hit": false,
      "t": 60807.29166666666,
      "d": 520.8333333333358,
      "v": 87
    },
    {
      "midi": 69,
      "hit": false,
      "t": 60812.49999999999,
      "d": 479.16666666666424,
      "v": 103
    },
    {
      "midi": 62,
      "hit": false,
      "t": 60812.49999999999,
      "d": 500,
      "v": 91
    },
    {
      "midi": 60,
      "hit": false,
      "t": 60812.49999999999,
      "d": 541.6666666666642,
      "v": 92
    },
    {
      "midi": 50,
      "hit": false,
      "t": 60812.49999999999,
      "d": 1578.125,
      "v": 75
    },
    {
      "midi": 38,
      "hit": false,
      "t": 60812.49999999999,
      "d": 1682.2916666666715,
      "v": 82
    },
    {
      "midi": 66,
      "hit": false,
      "t": 61656.24999999999,
      "d": 406.25,
      "v": 75
    },
    {
      "midi": 60,
      "hit": false,
      "t": 61661.45833333333,
      "d": 411.4583333333285,
      "v": 87
    },
    {
      "midi": 69,
      "hit": false,
      "t": 61661.45833333333,
      "d": 411.4583333333285,
      "v": 96
    },
    {
      "midi": 62,
      "hit": false,
      "t": 61661.45833333333,
      "d": 432.29166666666424,
      "v": 81
    },
    {
      "midi": 62,
      "hit": false,
      "t": 62500,
      "d": 453.125,
      "v": 83
    },
    {
      "midi": 67,
      "hit": false,
      "t": 62500,
      "d": 468.75,
      "v": 91
    },
    {
      "midi": 43,
      "hit": false,
      "t": 62500,
      "d": 3140.625,
      "v": 96
    },
    {
      "midi": 58,
      "hit": false,
      "t": 62505.208333333336,
      "d": 473.9583333333285,
      "v": 79
    },
    {
      "midi": 67,
      "hit": false,
      "t": 63348.95833333333,
      "d": 572.9166666666642,
      "v": 88
    },
    {
      "midi": 62,
      "hit": false,
      "t": 63348.95833333333,
      "d": 588.5416666666642,
      "v": 82
    },
    {
      "midi": 70,
      "hit": false,
      "t": 63348.95833333333,
      "d": 588.5416666666642,
      "v": 83
    },
    {
      "midi": 58,
      "hit": false,
      "t": 63348.95833333333,
      "d": 651.0416666666642,
      "v": 98
    },
    {
      "midi": 55,
      "hit": false,
      "t": 63770.83333333333,
      "d": 1828.125,
      "v": 75
    },
    {
      "midi": 70,
      "hit": false,
      "t": 64187.49999999999,
      "d": 463.54166666666424,
      "v": 84
    },
    {
      "midi": 67,
      "hit": false,
      "t": 64187.49999999999,
      "d": 468.75,
      "v": 82
    },
    {
      "midi": 62,
      "hit": false,
      "t": 64187.49999999999,
      "d": 489.58333333333576,
      "v": 81
    },
    {
      "midi": 58,
      "hit": false,
      "t": 64187.49999999999,
      "d": 562.5,
      "v": 89
    },
    {
      "midi": 62,
      "hit": false,
      "t": 65041.66666666666,
      "d": 421.875,
      "v": 78
    },
    {
      "midi": 67,
      "hit": false,
      "t": 65041.66666666666,
      "d": 427.08333333333576,
      "v": 86
    },
    {
      "midi": 70,
      "hit": false,
      "t": 65041.66666666666,
      "d": 427.08333333333576,
      "v": 75
    },
    {
      "midi": 58,
      "hit": false,
      "t": 65041.66666666666,
      "d": 520.833333333343,
      "v": 75
    },
    {
      "midi": 70,
      "hit": false,
      "t": 65890.625,
      "d": 484.375,
      "v": 86
    },
    {
      "midi": 58,
      "hit": false,
      "t": 65890.625,
      "d": 562.5,
      "v": 84
    },
    {
      "midi": 53,
      "hit": false,
      "t": 65890.625,
      "d": 3213.5416666666424,
      "v": 88
    },
    {
      "midi": 67,
      "hit": false,
      "t": 65895.83333333333,
      "d": 447.9166666666715,
      "v": 81
    },
    {
      "midi": 62,
      "hit": false,
      "t": 65895.83333333333,
      "d": 463.5416666666715,
      "v": 80
    },
    {
      "midi": 41,
      "hit": false,
      "t": 65895.83333333333,
      "d": 3124.9999999999854,
      "v": 83
    },
    {
      "midi": 67,
      "hit": false,
      "t": 66729.16666666667,
      "d": 401.04166666665697,
      "v": 88
    },
    {
      "midi": 70,
      "hit": false,
      "t": 66729.16666666667,
      "d": 458.3333333333285,
      "v": 89
    },
    {
      "midi": 58,
      "hit": false,
      "t": 66729.16666666667,
      "d": 500,
      "v": 87
    },
    {
      "midi": 62,
      "hit": false,
      "t": 66734.375,
      "d": 395.8333333333285,
      "v": 85
    },
    {
      "midi": 67,
      "hit": false,
      "t": 67572.91666666667,
      "d": 395.8333333333285,
      "v": 87
    },
    {
      "midi": 70,
      "hit": false,
      "t": 67572.91666666667,
      "d": 427.0833333333285,
      "v": 82
    },
    {
      "midi": 58,
      "hit": false,
      "t": 67572.91666666667,
      "d": 479.16666666665697,
      "v": 82
    },
    {
      "midi": 62,
      "hit": false,
      "t": 67578.125,
      "d": 385.4166666666715,
      "v": 81
    },
    {
      "midi": 62,
      "hit": false,
      "t": 68421.875,
      "d": 348.9583333333285,
      "v": 83
    },
    {
      "midi": 67,
      "hit": false,
      "t": 68421.875,
      "d": 348.9583333333285,
      "v": 79
    },
    {
      "midi": 58,
      "hit": false,
      "t": 68421.875,
      "d": 385.41666666665697,
      "v": 82
    },
    {
      "midi": 70,
      "hit": false,
      "t": 68421.875,
      "d": 453.12499999998545,
      "v": 82
    },
    {
      "midi": 63,
      "hit": false,
      "t": 69265.62499999997,
      "d": 453.125,
      "v": 98
    },
    {
      "midi": 36,
      "hit": false,
      "t": 69265.62499999997,
      "d": 3380.2083333333285,
      "v": 91
    },
    {
      "midi": 67,
      "hit": false,
      "t": 69270.8333333333,
      "d": 416.6666666666715,
      "v": 91
    },
    {
      "midi": 60,
      "hit": false,
      "t": 69270.8333333333,
      "d": 489.58333333334303,
      "v": 101
    },
    {
      "midi": 48,
      "hit": false,
      "t": 69270.8333333333,
      "d": 2401.041666666686,
      "v": 92
    },
    {
      "midi": 67,
      "hit": false,
      "t": 70114.58333333331,
      "d": 500,
      "v": 90
    },
    {
      "midi": 63,
      "hit": false,
      "t": 70114.58333333331,
      "d": 505.2083333333285,
      "v": 87
    },
    {
      "midi": 60,
      "hit": false,
      "t": 70114.58333333331,
      "d": 531.25,
      "v": 88
    },
    {
      "midi": 67,
      "hit": false,
      "t": 70958.33333333331,
      "d": 520.8333333333285,
      "v": 90
    },
    {
      "midi": 60,
      "hit": false,
      "t": 70958.33333333331,
      "d": 536.4583333333285,
      "v": 88
    },
    {
      "midi": 63,
      "hit": false,
      "t": 70958.33333333331,
      "d": 578.125,
      "v": 91
    },
    {
      "midi": 63,
      "hit": false,
      "t": 71802.08333333331,
      "d": 447.91666666665697,
      "v": 87
    },
    {
      "midi": 48,
      "hit": false,
      "t": 71802.08333333331,
      "d": 541.666666666657,
      "v": 83
    },
    {
      "midi": 67,
      "hit": false,
      "t": 71807.29166666664,
      "d": 442.7083333333285,
      "v": 92
    },
    {
      "midi": 60,
      "hit": false,
      "t": 71807.29166666664,
      "d": 463.54166666665697,
      "v": 96
    },
    {
      "midi": 67,
      "hit": false,
      "t": 72651.04166666663,
      "d": 505.2083333333285,
      "v": 97
    },
    {
      "midi": 38,
      "hit": false,
      "t": 72651.04166666663,
      "d": 1557.2916666666715,
      "v": 90
    },
    {
      "midi": 50,
      "hit": false,
      "t": 72651.04166666663,
      "d": 1578.125,
      "v": 75
    },
    {
      "midi": 62,
      "hit": false,
      "t": 72656.24999999996,
      "d": 500,
      "v": 103
    },
    {
      "midi": 60,
      "hit": false,
      "t": 72656.24999999996,
      "d": 505.2083333333285,
      "v": 99
    },
    {
      "midi": 67,
      "hit": false,
      "t": 73499.99999999996,
      "d": 421.875,
      "v": 92
    },
    {
      "midi": 62,
      "hit": false,
      "t": 73505.20833333328,
      "d": 416.6666666666715,
      "v": 90
    },
    {
      "midi": 60,
      "hit": false,
      "t": 73505.20833333328,
      "d": 473.95833333334303,
      "v": 94
    },
    {
      "midi": 69,
      "hit": false,
      "t": 74354.16666666663,
      "d": 427.08333333334303,
      "v": 90
    },
    {
      "midi": 62,
      "hit": false,
      "t": 74354.16666666663,
      "d": 442.70833333334303,
      "v": 88
    },
    {
      "midi": 66,
      "hit": false,
      "t": 74354.16666666663,
      "d": 484.37500000001455,
      "v": 84
    },
    {
      "midi": 60,
      "hit": false,
      "t": 74354.16666666663,
      "d": 510.41666666668607,
      "v": 94
    },
    {
      "midi": 38,
      "hit": false,
      "t": 74354.16666666663,
      "d": 1234.3750000000146,
      "v": 87
    },
    {
      "midi": 50,
      "hit": false,
      "t": 74354.16666666663,
      "d": 1322.9166666666715,
      "v": 75
    },
    {
      "midi": 66,
      "hit": false,
      "t": 75197.91666666664,
      "d": 848.9583333333139,
      "v": 76
    },
    {
      "midi": 60,
      "hit": false,
      "t": 75203.12499999997,
      "d": 838.541666666657,
      "v": 94
    },
    {
      "midi": 62,
      "hit": false,
      "t": 75203.12499999997,
      "d": 838.541666666657,
      "v": 78
    },
    {
      "midi": 69,
      "hit": false,
      "t": 75203.12499999997,
      "d": 838.541666666657,
      "v": 96
    },
    {
      "midi": 38,
      "hit": false,
      "t": 75624.99999999997,
      "d": 416.66666666665697,
      "v": 90
    },
    {
      "midi": 70,
      "hit": false,
      "t": 76046.87499999996,
      "d": 812.5,
      "v": 91
    },
    {
      "midi": 62,
      "hit": false,
      "t": 76052.08333333328,
      "d": 807.2916666666715,
      "v": 94
    },
    {
      "midi": 65,
      "hit": false,
      "t": 76052.08333333328,
      "d": 807.2916666666715,
      "v": 99
    },
    {
      "midi": 67,
      "hit": false,
      "t": 76052.08333333328,
      "d": 807.2916666666715,
      "v": 94
    },
    {
      "midi": 55,
      "hit": false,
      "t": 76895.83333333328,
      "d": 812.5,
      "v": 75
    },
    {
      "midi": 62,
      "hit": false,
      "t": 76901.04166666661,
      "d": 807.2916666666715,
      "v": 85
    },
    {
      "midi": 65,
      "hit": false,
      "t": 76901.04166666661,
      "d": 807.2916666666715,
      "v": 99
    },
    {
      "midi": 67,
      "hit": false,
      "t": 76901.04166666661,
      "d": 807.2916666666715,
      "v": 94
    },
    {
      "midi": 70,
      "hit": false,
      "t": 76901.04166666661,
      "d": 807.2916666666715,
      "v": 89
    },
    {
      "midi": 43,
      "hit": false,
      "t": 77322.91666666661,
      "d": 385.4166666666715,
      "v": 82
    },
    {
      "midi": 70,
      "hit": false,
      "t": 77744.79166666661,
      "d": 437.5,
      "v": 91
    },
    {
      "midi": 67,
      "hit": false,
      "t": 77744.79166666661,
      "d": 442.7083333333285,
      "v": 97
    },
    {
      "midi": 63,
      "hit": false,
      "t": 77744.79166666661,
      "d": 510.41666666665697,
      "v": 100
    },
    {
      "midi": 39,
      "hit": false,
      "t": 77744.79166666661,
      "d": 1177.0833333333285,
      "v": 98
    },
    {
      "midi": 51,
      "hit": false,
      "t": 78161.45833333328,
      "d": 859.3749999999854,
      "v": 94
    },
    {
      "midi": 67,
      "hit": false,
      "t": 78583.33333333327,
      "d": 442.7083333333285,
      "v": 94
    },
    {
      "midi": 70,
      "hit": false,
      "t": 78583.33333333327,
      "d": 458.3333333333285,
      "v": 89
    },
    {
      "midi": 63,
      "hit": false,
      "t": 78583.33333333327,
      "d": 489.5833333333285,
      "v": 84
    },
    {
      "midi": 39,
      "hit": false,
      "t": 78999.99999999994,
      "d": 265.62499999998545,
      "v": 87
    },
    {
      "midi": 69,
      "hit": false,
      "t": 79421.87499999993,
      "d": 520.833333333343,
      "v": 86
    },
    {
      "midi": 65,
      "hit": false,
      "t": 79421.87499999993,
      "d": 531.2500000000146,
      "v": 96
    },
    {
      "midi": 60,
      "hit": false,
      "t": 79421.87499999993,
      "d": 604.1666666666861,
      "v": 94
    },
    {
      "midi": 41,
      "hit": false,
      "t": 79421.87499999993,
      "d": 1276.041666666686,
      "v": 82
    },
    {
      "midi": 60,
      "hit": false,
      "t": 80270.83333333328,
      "d": 479.16666666665697,
      "v": 92
    },
    {
      "midi": 69,
      "hit": false,
      "t": 80270.83333333328,
      "d": 479.16666666665697,
      "v": 90
    },
    {
      "midi": 65,
      "hit": false,
      "t": 80270.83333333328,
      "d": 489.5833333333285,
      "v": 94
    },
    {
      "midi": 53,
      "hit": false,
      "t": 80692.70833333328,
      "d": 359.375,
      "v": 99
    },
    {
      "midi": 70,
      "hit": false,
      "t": 81109.37499999994,
      "d": 526.0416666666715,
      "v": 104
    },
    {
      "midi": 65,
      "hit": false,
      "t": 81109.37499999994,
      "d": 536.458333333343,
      "v": 101
    },
    {
      "midi": 46,
      "hit": false,
      "t": 81109.37499999994,
      "d": 817.708333333343,
      "v": 104
    },
    {
      "midi": 62,
      "hit": false,
      "t": 81114.58333333327,
      "d": 593.7500000000146,
      "v": 92
    },
    {
      "midi": 45,
      "hit": false,
      "t": 81947.91666666661,
      "d": 468.74999999998545,
      "v": 99
    },
    {
      "midi": 65,
      "hit": false,
      "t": 81947.91666666661,
      "d": 489.58333333331393,
      "v": 99
    },
    {
      "midi": 60,
      "hit": false,
      "t": 81953.12499999994,
      "d": 416.66666666665697,
      "v": 104
    },
    {
      "midi": 69,
      "hit": false,
      "t": 81953.12499999994,
      "d": 421.87499999998545,
      "v": 101
    },
    {
      "midi": 65,
      "hit": false,
      "t": 82791.66666666658,
      "d": 526.0416666666715,
      "v": 94
    },
    {
      "midi": 67,
      "hit": false,
      "t": 82791.66666666658,
      "d": 526.0416666666715,
      "v": 91
    },
    {
      "midi": 70,
      "hit": false,
      "t": 82791.66666666658,
      "d": 531.25,
      "v": 87
    },
    {
      "midi": 62,
      "hit": false,
      "t": 82791.66666666658,
      "d": 734.375,
      "v": 86
    },
    {
      "midi": 43,
      "hit": false,
      "t": 82791.66666666658,
      "d": 1192.7083333333285,
      "v": 90
    },
    {
      "midi": 55,
      "hit": false,
      "t": 82791.66666666658,
      "d": 1296.875,
      "v": 82
    },
    {
      "midi": 70,
      "hit": false,
      "t": 83630.20833333326,
      "d": 468.75,
      "v": 87
    },
    {
      "midi": 65,
      "hit": false,
      "t": 83635.41666666658,
      "d": 463.5416666666715,
      "v": 92
    },
    {
      "midi": 67,
      "hit": false,
      "t": 83635.41666666658,
      "d": 479.1666666666715,
      "v": 90
    },
    {
      "midi": 62,
      "hit": false,
      "t": 83635.41666666658,
      "d": 494.7916666666715,
      "v": 81
    },
    {
      "midi": 43,
      "hit": false,
      "t": 84057.29166666658,
      "d": 151.04166666667152,
      "v": 92
    },
    {
      "midi": 65,
      "hit": false,
      "t": 84473.95833333326,
      "d": 526.041666666657,
      "v": 97
    },
    {
      "midi": 53,
      "hit": false,
      "t": 84473.95833333326,
      "d": 1307.2916666666715,
      "v": 92
    },
    {
      "midi": 69,
      "hit": false,
      "t": 84479.16666666658,
      "d": 500,
      "v": 90
    },
    {
      "midi": 60,
      "hit": false,
      "t": 84479.16666666658,
      "d": 536.4583333333285,
      "v": 101
    },
    {
      "midi": 41,
      "hit": false,
      "t": 84479.16666666658,
      "d": 1208.3333333333285,
      "v": 81
    },
    {
      "midi": 60,
      "hit": false,
      "t": 85317.70833333324,
      "d": 411.45833333334303,
      "v": 92
    },
    {
      "midi": 65,
      "hit": false,
      "t": 85317.70833333324,
      "d": 432.29166666668607,
      "v": 91
    },
    {
      "midi": 69,
      "hit": false,
      "t": 85317.70833333324,
      "d": 505.2083333333576,
      "v": 91
    },
    {
      "midi": 41,
      "hit": false,
      "t": 85739.58333333326,
      "d": 416.6666666666715,
      "v": 76
    },
    {
      "midi": 70,
      "hit": false,
      "t": 86166.6666666666,
      "d": 453.125,
      "v": 94
    },
    {
      "midi": 67,
      "hit": false,
      "t": 86166.6666666666,
      "d": 458.3333333333285,
      "v": 92
    },
    {
      "midi": 63,
      "hit": false,
      "t": 86166.6666666666,
      "d": 536.4583333333285,
      "v": 82
    },
    {
      "midi": 39,
      "hit": false,
      "t": 86166.6666666666,
      "d": 1125,
      "v": 102
    },
    {
      "midi": 70,
      "hit": false,
      "t": 86999.99999999993,
      "d": 343.75,
      "v": 91
    },
    {
      "midi": 67,
      "hit": false,
      "t": 86999.99999999993,
      "d": 364.5833333333285,
      "v": 96
    },
    {
      "midi": 63,
      "hit": false,
      "t": 86999.99999999993,
      "d": 510.41666666665697,
      "v": 78
    },
    {
      "midi": 39,
      "hit": false,
      "t": 87416.66666666658,
      "d": 380.2083333333285,
      "v": 91
    },
    {
      "midi": 58,
      "hit": false,
      "t": 87838.54166666657,
      "d": 390.62499999998545,
      "v": 98
    },
    {
      "midi": 70,
      "hit": false,
      "t": 87843.7499999999,
      "d": 364.5833333333285,
      "v": 100
    },
    {
      "midi": 62,
      "hit": false,
      "t": 87843.7499999999,
      "d": 385.41666666665697,
      "v": 88
    },
    {
      "midi": 46,
      "hit": false,
      "t": 87843.7499999999,
      "d": 546.875,
      "v": 104
    },
    {
      "midi": 65,
      "hit": false,
      "t": 87848.95833333323,
      "d": 390.625,
      "v": 94
    },
    {
      "midi": 60,
      "hit": false,
      "t": 88687.4999999999,
      "d": 406.24999999998545,
      "v": 104
    },
    {
      "midi": 45,
      "hit": false,
      "t": 88687.4999999999,
      "d": 416.66666666665697,
      "v": 104
    },
    {
      "midi": 65,
      "hit": false,
      "t": 88687.4999999999,
      "d": 442.7083333333285,
      "v": 96
    },
    {
      "midi": 69,
      "hit": false,
      "t": 88692.70833333323,
      "d": 395.8333333333285,
      "v": 94
    },
    {
      "midi": 70,
      "hit": false,
      "t": 89536.45833333323,
      "d": 526.041666666657,
      "v": 89
    },
    {
      "midi": 65,
      "hit": false,
      "t": 89536.45833333323,
      "d": 557.291666666657,
      "v": 97
    },
    {
      "midi": 43,
      "hit": false,
      "t": 89536.45833333323,
      "d": 1140.6249999999854,
      "v": 94
    },
    {
      "midi": 55,
      "hit": false,
      "t": 89536.45833333323,
      "d": 1286.458333333314,
      "v": 90
    },
    {
      "midi": 67,
      "hit": false,
      "t": 89541.66666666656,
      "d": 552.0833333333285,
      "v": 94
    },
    {
      "midi": 62,
      "hit": false,
      "t": 89541.66666666656,
      "d": 588.541666666657,
      "v": 90
    },
    {
      "midi": 65,
      "hit": false,
      "t": 90380.20833333321,
      "d": 411.4583333333285,
      "v": 96
    },
    {
      "midi": 67,
      "hit": false,
      "t": 90380.20833333321,
      "d": 427.0833333333285,
      "v": 91
    },
    {
      "midi": 70,
      "hit": false,
      "t": 90380.20833333321,
      "d": 515.625,
      "v": 86
    },
    {
      "midi": 62,
      "hit": false,
      "t": 90385.41666666654,
      "d": 406.25,
      "v": 86
    },
    {
      "midi": 43,
      "hit": false,
      "t": 90796.87499999987,
      "d": 171.87500000001455,
      "v": 87
    },
    {
      "midi": 63,
      "hit": false,
      "t": 91218.74999999988,
      "d": 552.083333333343,
      "v": 100
    },
    {
      "midi": 39,
      "hit": false,
      "t": 91218.74999999988,
      "d": 1281.25,
      "v": 94
    },
    {
      "midi": 67,
      "hit": false,
      "t": 91223.95833333321,
      "d": 473.95833333334303,
      "v": 103
    },
    {
      "midi": 70,
      "hit": false,
      "t": 91223.95833333321,
      "d": 473.95833333334303,
      "v": 96
    },
    {
      "midi": 67,
      "hit": false,
      "t": 92057.29166666656,
      "d": 369.7916666666715,
      "v": 96
    },
    {
      "midi": 70,
      "hit": false,
      "t": 92057.29166666656,
      "d": 406.25,
      "v": 92
    },
    {
      "midi": 63,
      "hit": false,
      "t": 92057.29166666656,
      "d": 411.4583333333285,
      "v": 94
    },
    {
      "midi": 51,
      "hit": false,
      "t": 92479.16666666656,
      "d": 93.75,
      "v": 92
    },
    {
      "midi": 65,
      "hit": false,
      "t": 92895.83333333321,
      "d": 505.2083333333285,
      "v": 101
    },
    {
      "midi": 69,
      "hit": false,
      "t": 92895.83333333321,
      "d": 546.875,
      "v": 90
    },
    {
      "midi": 60,
      "hit": false,
      "t": 92895.83333333321,
      "d": 723.9583333333285,
      "v": 97
    },
    {
      "midi": 41,
      "hit": false,
      "t": 92895.83333333321,
      "d": 1083.3333333333285,
      "v": 83
    },
    {
      "midi": 53,
      "hit": false,
      "t": 92895.83333333321,
      "d": 1296.875,
      "v": 81
    },
    {
      "midi": 60,
      "hit": false,
      "t": 93744.79166666654,
      "d": 421.875,
      "v": 94
    },
    {
      "midi": 69,
      "hit": false,
      "t": 93744.79166666654,
      "d": 432.2916666666715,
      "v": 91
    },
    {
      "midi": 65,
      "hit": false,
      "t": 93744.79166666654,
      "d": 453.125,
      "v": 99
    },
    {
      "midi": 41,
      "hit": false,
      "t": 94166.66666666654,
      "d": 250,
      "v": 81
    },
    {
      "midi": 70,
      "hit": false,
      "t": 94583.33333333321,
      "d": 500,
      "v": 102
    },
    {
      "midi": 65,
      "hit": false,
      "t": 94583.33333333321,
      "d": 520.8333333333285,
      "v": 99
    },
    {
      "midi": 62,
      "hit": false,
      "t": 94583.33333333321,
      "d": 562.5,
      "v": 83
    },
    {
      "midi": 46,
      "hit": false,
      "t": 94583.33333333321,
      "d": 838.541666666657,
      "v": 104
    },
    {
      "midi": 45,
      "hit": false,
      "t": 95421.87499999987,
      "d": 411.4583333333285,
      "v": 92
    },
    {
      "midi": 60,
      "hit": false,
      "t": 95421.87499999987,
      "d": 421.875,
      "v": 101
    },
    {
      "midi": 69,
      "hit": false,
      "t": 95421.87499999987,
      "d": 432.2916666666715,
      "v": 97
    },
    {
      "midi": 65,
      "hit": false,
      "t": 95421.87499999987,
      "d": 453.125,
      "v": 99
    },
    {
      "midi": 65,
      "hit": false,
      "t": 96260.41666666654,
      "d": 489.5833333333285,
      "v": 96
    },
    {
      "midi": 70,
      "hit": false,
      "t": 96260.41666666654,
      "d": 510.41666666665697,
      "v": 83
    },
    {
      "midi": 43,
      "hit": false,
      "t": 96260.41666666654,
      "d": 1166.6666666666424,
      "v": 86
    },
    {
      "midi": 67,
      "hit": false,
      "t": 96265.62499999987,
      "d": 489.5833333333285,
      "v": 91
    },
    {
      "midi": 62,
      "hit": false,
      "t": 96265.62499999987,
      "d": 567.7083333333285,
      "v": 83
    },
    {
      "midi": 55,
      "hit": false,
      "t": 96265.62499999987,
      "d": 1380.208333333314,
      "v": 85
    },
    {
      "midi": 65,
      "hit": false,
      "t": 97104.16666666653,
      "d": 520.8333333333285,
      "v": 92
    },
    {
      "midi": 70,
      "hit": false,
      "t": 97104.16666666653,
      "d": 520.8333333333285,
      "v": 82
    },
    {
      "midi": 67,
      "hit": false,
      "t": 97109.37499999985,
      "d": 515.625,
      "v": 88
    },
    {
      "midi": 62,
      "hit": false,
      "t": 97109.37499999985,
      "d": 578.125,
      "v": 86
    },
    {
      "midi": 43,
      "hit": false,
      "t": 97531.24999999985,
      "d": 177.08333333332848,
      "v": 90
    },
    {
      "midi": 53,
      "hit": false,
      "t": 97947.91666666651,
      "d": 1333.333333333314,
      "v": 86
    },
    {
      "midi": 69,
      "hit": false,
      "t": 97953.12499999984,
      "d": 494.7916666666715,
      "v": 85
    },
    {
      "midi": 65,
      "hit": false,
      "t": 97953.12499999984,
      "d": 546.875,
      "v": 97
    },
    {
      "midi": 60,
      "hit": false,
      "t": 97953.12499999984,
      "d": 567.7083333333285,
      "v": 97
    },
    {
      "midi": 41,
      "hit": false,
      "t": 97953.12499999984,
      "d": 1166.666666666657,
      "v": 79
    },
    {
      "midi": 60,
      "hit": false,
      "t": 98791.6666666665,
      "d": 822.916666666657,
      "v": 86
    },
    {
      "midi": 69,
      "hit": false,
      "t": 98791.6666666665,
      "d": 843.7499999999854,
      "v": 94
    },
    {
      "midi": 65,
      "hit": false,
      "t": 98791.6666666665,
      "d": 848.9583333333139,
      "v": 96
    },
    {
      "midi": 41,
      "hit": false,
      "t": 99218.74999999983,
      "d": 421.87499999998545,
      "v": 80
    },
    {
      "midi": 67,
      "hit": false,
      "t": 99645.83333333314,
      "d": 473.9583333333285,
      "v": 86
    },
    {
      "midi": 63,
      "hit": false,
      "t": 99645.83333333314,
      "d": 479.16666666665697,
      "v": 92
    },
    {
      "midi": 70,
      "hit": false,
      "t": 99645.83333333314,
      "d": 499.99999999998545,
      "v": 100
    },
    {
      "midi": 58,
      "hit": false,
      "t": 99645.83333333314,
      "d": 578.1249999999854,
      "v": 102
    },
    {
      "midi": 39,
      "hit": false,
      "t": 99645.83333333314,
      "d": 1166.6666666666424,
      "v": 89
    },
    {
      "midi": 51,
      "hit": false,
      "t": 99645.83333333314,
      "d": 1385.4166666666424,
      "v": 80
    },
    {
      "midi": 63,
      "hit": false,
      "t": 100479.16666666645,
      "d": 395.8333333333285,
      "v": 84
    },
    {
      "midi": 67,
      "hit": false,
      "t": 100484.37499999978,
      "d": 328.125,
      "v": 86
    },
    {
      "midi": 70,
      "hit": false,
      "t": 100484.37499999978,
      "d": 364.5833333333285,
      "v": 82
    },
    {
      "midi": 58,
      "hit": false,
      "t": 100484.37499999978,
      "d": 447.9166666666715,
      "v": 98
    },
    {
      "midi": 39,
      "hit": false,
      "t": 100906.24999999978,
      "d": 203.125,
      "v": 78
    },
    {
      "midi": 70,
      "hit": false,
      "t": 101328.12499999978,
      "d": 427.0833333333285,
      "v": 91
    },
    {
      "midi": 58,
      "hit": false,
      "t": 101328.12499999978,
      "d": 437.5,
      "v": 102
    },
    {
      "midi": 46,
      "hit": false,
      "t": 101328.12499999978,
      "d": 812.5,
      "v": 104
    },
    {
      "midi": 62,
      "hit": false,
      "t": 101333.33333333311,
      "d": 432.2916666666715,
      "v": 90
    },
    {
      "midi": 65,
      "hit": false,
      "t": 101333.33333333311,
      "d": 505.20833333334303,
      "v": 91
    },
    {
      "midi": 45,
      "hit": false,
      "t": 102171.87499999978,
      "d": 401.04166666665697,
      "v": 101
    },
    {
      "midi": 60,
      "hit": false,
      "t": 102177.08333333311,
      "d": 401.04166666665697,
      "v": 97
    },
    {
      "midi": 69,
      "hit": false,
      "t": 102177.08333333311,
      "d": 427.0833333333285,
      "v": 99
    },
    {
      "midi": 65,
      "hit": false,
      "t": 102177.08333333311,
      "d": 468.75,
      "v": 103
    },
    {
      "midi": 67,
      "hit": false,
      "t": 103020.83333333311,
      "d": 583.3333333333285,
      "v": 96
    },
    {
      "midi": 70,
      "hit": false,
      "t": 103020.83333333311,
      "d": 583.3333333333285,
      "v": 92
    },
    {
      "midi": 65,
      "hit": false,
      "t": 103020.83333333311,
      "d": 640.625,
      "v": 99
    },
    {
      "midi": 62,
      "hit": false,
      "t": 103020.83333333311,
      "d": 656.25,
      "v": 94
    },
    {
      "midi": 43,
      "hit": false,
      "t": 103020.83333333311,
      "d": 1244.791666666657,
      "v": 88
    },
    {
      "midi": 65,
      "hit": false,
      "t": 103854.16666666644,
      "d": 427.0833333333285,
      "v": 99
    },
    {
      "midi": 62,
      "hit": false,
      "t": 103859.37499999977,
      "d": 432.2916666666715,
      "v": 86
    },
    {
      "midi": 67,
      "hit": false,
      "t": 103859.37499999977,
      "d": 432.2916666666715,
      "v": 91
    },
    {
      "midi": 70,
      "hit": false,
      "t": 103859.37499999977,
      "d": 515.625,
      "v": 89
    },
    {
      "midi": 55,
      "hit": false,
      "t": 104276.04166666644,
      "d": 130.20833333332848,
      "v": 97
    },
    {
      "midi": 63,
      "hit": false,
      "t": 104687.49999999977,
      "d": 828.1249999999854,
      "v": 91
    },
    {
      "midi": 67,
      "hit": false,
      "t": 104692.7083333331,
      "d": 822.916666666657,
      "v": 92
    },
    {
      "midi": 70,
      "hit": false,
      "t": 104692.7083333331,
      "d": 822.916666666657,
      "v": 83
    },
    {
      "midi": 75,
      "hit": false,
      "t": 104692.7083333331,
      "d": 822.916666666657,
      "v": 89
    },
    {
      "midi": 39,
      "hit": false,
      "t": 104697.91666666642,
      "d": 1093.75,
      "v": 98
    },
    {
      "midi": 51,
      "hit": false,
      "t": 105104.16666666642,
      "d": 411.4583333333285,
      "v": 75
    },
    {
      "midi": 63,
      "hit": false,
      "t": 105526.04166666642,
      "d": 822.9166666666715,
      "v": 100
    },
    {
      "midi": 67,
      "hit": false,
      "t": 105526.04166666642,
      "d": 822.9166666666715,
      "v": 96
    },
    {
      "midi": 70,
      "hit": false,
      "t": 105526.04166666642,
      "d": 822.9166666666715,
      "v": 92
    },
    {
      "midi": 39,
      "hit": false,
      "t": 105942.7083333331,
      "d": 411.4583333333285,
      "v": 86
    },
    {
      "midi": 65,
      "hit": false,
      "t": 106359.37499999975,
      "d": 598.958333333343,
      "v": 96
    },
    {
      "midi": 69,
      "hit": false,
      "t": 106364.58333333308,
      "d": 552.083333333343,
      "v": 97
    },
    {
      "midi": 60,
      "hit": false,
      "t": 106364.58333333308,
      "d": 656.2500000000146,
      "v": 103
    },
    {
      "midi": 41,
      "hit": false,
      "t": 106364.58333333308,
      "d": 1468.75,
      "v": 75
    },
    {
      "midi": 65,
      "hit": false,
      "t": 107197.91666666642,
      "d": 489.5833333333285,
      "v": 88
    },
    {
      "midi": 60,
      "hit": false,
      "t": 107203.12499999975,
      "d": 447.9166666666715,
      "v": 101
    },
    {
      "midi": 69,
      "hit": false,
      "t": 107203.12499999975,
      "d": 479.1666666666715,
      "v": 91
    },
    {
      "midi": 53,
      "hit": false,
      "t": 107624.99999999975,
      "d": 348.9583333333285,
      "v": 104
    },
    {
      "midi": 65,
      "hit": false,
      "t": 108036.45833333308,
      "d": 526.041666666657,
      "v": 92
    },
    {
      "midi": 70,
      "hit": false,
      "t": 108041.66666666641,
      "d": 500,
      "v": 104
    },
    {
      "midi": 62,
      "hit": false,
      "t": 108041.66666666641,
      "d": 593.75,
      "v": 75
    },
    {
      "midi": 46,
      "hit": false,
      "t": 108041.66666666641,
      "d": 859.375,
      "v": 104
    },
    {
      "midi": 45,
      "hit": false,
      "t": 108869.79166666641,
      "d": 411.4583333333285,
      "v": 99
    },
    {
      "midi": 60,
      "hit": false,
      "t": 108874.99999999974,
      "d": 395.8333333333285,
      "v": 101
    },
    {
      "midi": 69,
      "hit": false,
      "t": 108874.99999999974,
      "d": 411.4583333333285,
      "v": 104
    },
    {
      "midi": 65,
      "hit": false,
      "t": 108874.99999999974,
      "d": 479.16666666665697,
      "v": 104
    },
    {
      "midi": 65,
      "hit": false,
      "t": 109708.33333333307,
      "d": 515.625,
      "v": 99
    },
    {
      "midi": 70,
      "hit": false,
      "t": 109708.33333333307,
      "d": 520.8333333333285,
      "v": 89
    },
    {
      "midi": 43,
      "hit": false,
      "t": 109708.33333333307,
      "d": 1187.4999999999854,
      "v": 83
    },
    {
      "midi": 67,
      "hit": false,
      "t": 109713.5416666664,
      "d": 515.625,
      "v": 91
    },
    {
      "midi": 62,
      "hit": false,
      "t": 109713.5416666664,
      "d": 578.125,
      "v": 91
    },
    {
      "midi": 55,
      "hit": false,
      "t": 109713.5416666664,
      "d": 1328.1249999999854,
      "v": 75
    },
    {
      "midi": 67,
      "hit": false,
      "t": 110546.87499999972,
      "d": 505.2083333333285,
      "v": 88
    },
    {
      "midi": 70,
      "hit": false,
      "t": 110552.08333333305,
      "d": 489.5833333333285,
      "v": 75
    },
    {
      "midi": 65,
      "hit": false,
      "t": 110552.08333333305,
      "d": 500,
      "v": 97
    },
    {
      "midi": 62,
      "hit": false,
      "t": 110552.08333333305,
      "d": 567.7083333333285,
      "v": 88
    },
    {
      "midi": 43,
      "hit": false,
      "t": 110973.95833333305,
      "d": 359.375,
      "v": 81
    },
    {
      "midi": 69,
      "hit": false,
      "t": 111390.62499999971,
      "d": 557.2916666666715,
      "v": 92
    },
    {
      "midi": 65,
      "hit": false,
      "t": 111390.62499999971,
      "d": 578.125,
      "v": 103
    },
    {
      "midi": 60,
      "hit": false,
      "t": 111390.62499999971,
      "d": 593.75,
      "v": 96
    },
    {
      "midi": 41,
      "hit": false,
      "t": 111390.62499999971,
      "d": 1109.375,
      "v": 91
    },
    {
      "midi": 53,
      "hit": false,
      "t": 111796.87499999971,
      "d": 911.458333333343,
      "v": 75
    },
    {
      "midi": 60,
      "hit": false,
      "t": 112218.74999999971,
      "d": 427.08333333334303,
      "v": 92
    },
    {
      "midi": 65,
      "hit": false,
      "t": 112218.74999999971,
      "d": 427.08333333334303,
      "v": 85
    },
    {
      "midi": 69,
      "hit": false,
      "t": 112218.74999999971,
      "d": 447.9166666666715,
      "v": 88
    },
    {
      "midi": 41,
      "hit": false,
      "t": 112635.41666666638,
      "d": 156.25,
      "v": 81
    },
    {
      "midi": 39,
      "hit": false,
      "t": 113052.08333333304,
      "d": 1114.5833333333285,
      "v": 89
    },
    {
      "midi": 67,
      "hit": false,
      "t": 113057.29166666637,
      "d": 484.375,
      "v": 96
    },
    {
      "midi": 70,
      "hit": false,
      "t": 113057.29166666637,
      "d": 526.0416666666715,
      "v": 89
    },
    {
      "midi": 63,
      "hit": false,
      "t": 113057.29166666637,
      "d": 531.25,
      "v": 102
    },
    {
      "midi": 51,
      "hit": false,
      "t": 113473.95833333304,
      "d": 802.0833333333285,
      "v": 75
    },
    {
      "midi": 67,
      "hit": false,
      "t": 113890.6249999997,
      "d": 354.1666666666715,
      "v": 92
    },
    {
      "midi": 70,
      "hit": false,
      "t": 113890.6249999997,
      "d": 380.20833333334303,
      "v": 89
    },
    {
      "midi": 63,
      "hit": false,
      "t": 113890.6249999997,
      "d": 406.25,
      "v": 94
    },
    {
      "midi": 39,
      "hit": false,
      "t": 114302.08333333302,
      "d": 302.0833333333285,
      "v": 80
    },
    {
      "midi": 70,
      "hit": false,
      "t": 114729.16666666635,
      "d": 541.6666666666715,
      "v": 104
    },
    {
      "midi": 65,
      "hit": false,
      "t": 114729.16666666635,
      "d": 583.333333333343,
      "v": 92
    },
    {
      "midi": 62,
      "hit": false,
      "t": 114729.16666666635,
      "d": 614.583333333343,
      "v": 90
    },
    {
      "midi": 46,
      "hit": false,
      "t": 114729.16666666635,
      "d": 833.333333333343,
      "v": 100
    },
    {
      "midi": 60,
      "hit": false,
      "t": 115572.91666666637,
      "d": 427.08333333334303,
      "v": 88
    },
    {
      "midi": 69,
      "hit": false,
      "t": 115572.91666666637,
      "d": 427.08333333334303,
      "v": 104
    },
    {
      "midi": 45,
      "hit": false,
      "t": 115572.91666666637,
      "d": 458.33333333334303,
      "v": 104
    },
    {
      "midi": 65,
      "hit": false,
      "t": 115572.91666666637,
      "d": 505.20833333334303,
      "v": 97
    },
    {
      "midi": 43,
      "hit": false,
      "t": 116411.45833333305,
      "d": 1130.208333333343,
      "v": 81
    },
    {
      "midi": 70,
      "hit": false,
      "t": 116416.66666666638,
      "d": 505.20833333334303,
      "v": 92
    },
    {
      "midi": 67,
      "hit": false,
      "t": 116416.66666666638,
      "d": 515.6250000000146,
      "v": 94
    },
    {
      "midi": 65,
      "hit": false,
      "t": 116416.66666666638,
      "d": 536.458333333343,
      "v": 101
    },
    {
      "midi": 62,
      "hit": false,
      "t": 116416.66666666638,
      "d": 598.958333333343,
      "v": 90
    },
    {
      "midi": 55,
      "hit": false,
      "t": 116416.66666666638,
      "d": 1328.1250000000146,
      "v": 87
    },
    {
      "midi": 65,
      "hit": false,
      "t": 117249.99999999972,
      "d": 427.08333333334303,
      "v": 96
    },
    {
      "midi": 62,
      "hit": false,
      "t": 117249.99999999972,
      "d": 432.2916666666715,
      "v": 91
    },
    {
      "midi": 67,
      "hit": false,
      "t": 117249.99999999972,
      "d": 453.125,
      "v": 90
    },
    {
      "midi": 70,
      "hit": false,
      "t": 117249.99999999972,
      "d": 510.4166666666715,
      "v": 91
    },
    {
      "midi": 43,
      "hit": false,
      "t": 117666.6666666664,
      "d": 161.45833333332848,
      "v": 86
    },
    {
      "midi": 67,
      "hit": false,
      "t": 118083.33333333305,
      "d": 526.0416666666715,
      "v": 96
    },
    {
      "midi": 70,
      "hit": false,
      "t": 118083.33333333305,
      "d": 541.6666666666715,
      "v": 84
    },
    {
      "midi": 75,
      "hit": false,
      "t": 118083.33333333305,
      "d": 541.6666666666715,
      "v": 86
    },
    {
      "midi": 63,
      "hit": false,
      "t": 118083.33333333305,
      "d": 619.7916666666715,
      "v": 91
    },
    {
      "midi": 39,
      "hit": false,
      "t": 118083.33333333305,
      "d": 1130.208333333343,
      "v": 100
    },
    {
      "midi": 51,
      "hit": false,
      "t": 118499.99999999972,
      "d": 755.208333333343,
      "v": 75
    },
    {
      "midi": 67,
      "hit": false,
      "t": 118916.6666666664,
      "d": 270.8333333333285,
      "v": 94
    },
    {
      "midi": 63,
      "hit": false,
      "t": 118916.6666666664,
      "d": 338.5416666666715,
      "v": 89
    },
    {
      "midi": 75,
      "hit": false,
      "t": 118916.6666666664,
      "d": 348.95833333334303,
      "v": 84
    },
    {
      "midi": 70,
      "hit": false,
      "t": 118916.6666666664,
      "d": 364.58333333334303,
      "v": 86
    },
    {
      "midi": 39,
      "hit": false,
      "t": 119333.33333333307,
      "d": 171.875,
      "v": 91
    },
    {
      "midi": 65,
      "hit": false,
      "t": 119749.99999999972,
      "d": 604.1666666666715,
      "v": 99
    },
    {
      "midi": 69,
      "hit": false,
      "t": 119749.99999999972,
      "d": 619.7916666666715,
      "v": 99
    },
    {
      "midi": 72,
      "hit": false,
      "t": 119749.99999999972,
      "d": 640.625,
      "v": 104
    },
    {
      "midi": 41,
      "hit": false,
      "t": 119749.99999999972,
      "d": 1005.2083333333285,
      "v": 85
    },
    {
      "midi": 53,
      "hit": false,
      "t": 120171.87499999972,
      "d": 802.0833333333285,
      "v": 75
    },
    {
      "midi": 65,
      "hit": false,
      "t": 120593.74999999972,
      "d": 520.8333333333139,
      "v": 82
    },
    {
      "midi": 69,
      "hit": false,
      "t": 120593.74999999972,
      "d": 562.4999999999854,
      "v": 90
    },
    {
      "midi": 72,
      "hit": false,
      "t": 120593.74999999972,
      "d": 588.541666666657,
      "v": 96
    },
    {
      "midi": 41,
      "hit": false,
      "t": 121010.41666666638,
      "d": 296.875,
      "v": 75
    },
    {
      "midi": 53,
      "hit": false,
      "t": 121015.62499999971,
      "d": 307.2916666666715,
      "v": 103
    },
    {
      "midi": 46,
      "hit": false,
      "t": 121421.87499999971,
      "d": 828.125,
      "v": 104
    },
    {
      "midi": 65,
      "hit": false,
      "t": 121421.87499999971,
      "d": 828.125,
      "v": 94
    },
    {
      "midi": 70,
      "hit": false,
      "t": 121427.08333333304,
      "d": 822.9166666666715,
      "v": 104
    },
    {
      "midi": 74,
      "hit": false,
      "t": 121427.08333333304,
      "d": 828.125,
      "v": 92
    },
    {
      "midi": 69,
      "hit": false,
      "t": 122265.62499999971,
      "d": 447.91666666665697,
      "v": 99
    },
    {
      "midi": 45,
      "hit": false,
      "t": 122265.62499999971,
      "d": 526.041666666657,
      "v": 94
    },
    {
      "midi": 72,
      "hit": false,
      "t": 122270.83333333304,
      "d": 473.9583333333285,
      "v": 104
    },
    {
      "midi": 65,
      "hit": false,
      "t": 122270.83333333304,
      "d": 520.8333333333285,
      "v": 99
    },
    {
      "midi": 57,
      "hit": false,
      "t": 122682.29166666637,
      "d": 93.75,
      "v": 94
    },
    {
      "midi": 67,
      "hit": false,
      "t": 123104.16666666637,
      "d": 484.375,
      "v": 91
    },
    {
      "midi": 70,
      "hit": false,
      "t": 123104.16666666637,
      "d": 494.7916666666715,
      "v": 104
    },
    {
      "midi": 65,
      "hit": false,
      "t": 123104.16666666637,
      "d": 567.708333333343,
      "v": 90
    },
    {
      "midi": 43,
      "hit": false,
      "t": 123104.16666666637,
      "d": 1005.208333333343,
      "v": 85
    },
    {
      "midi": 55,
      "hit": false,
      "t": 123520.83333333304,
      "d": 822.9166666666715,
      "v": 75
    },
    {
      "midi": 70,
      "hit": false,
      "t": 123937.49999999971,
      "d": 458.33333333334303,
      "v": 89
    },
    {
      "midi": 67,
      "hit": false,
      "t": 123942.70833333304,
      "d": 442.70833333334303,
      "v": 97
    },
    {
      "midi": 65,
      "hit": false,
      "t": 123942.70833333304,
      "d": 536.458333333343,
      "v": 97
    },
    {
      "midi": 43,
      "hit": false,
      "t": 124359.37499999971,
      "d": 281.25,
      "v": 75
    },
    {
      "midi": 55,
      "hit": false,
      "t": 124359.37499999971,
      "d": 328.125,
      "v": 88
    },
    {
      "midi": 72,
      "hit": false,
      "t": 124770.83333333304,
      "d": 484.375,
      "v": 99
    },
    {
      "midi": 69,
      "hit": false,
      "t": 124770.83333333304,
      "d": 500,
      "v": 91
    },
    {
      "midi": 65,
      "hit": false,
      "t": 124770.83333333304,
      "d": 572.9166666666715,
      "v": 91
    },
    {
      "midi": 41,
      "hit": false,
      "t": 124770.83333333304,
      "d": 1083.333333333343,
      "v": 87
    },
    {
      "midi": 53,
      "hit": false,
      "t": 125187.49999999971,
      "d": 885.4166666666715,
      "v": 75
    },
    {
      "midi": 69,
      "hit": false,
      "t": 125604.16666666638,
      "d": 437.5,
      "v": 99
    },
    {
      "midi": 65,
      "hit": false,
      "t": 125609.37499999971,
      "d": 442.70833333334303,
      "v": 88
    },
    {
      "midi": 72,
      "hit": false,
      "t": 125609.37499999971,
      "d": 442.70833333334303,
      "v": 91
    },
    {
      "midi": 41,
      "hit": false,
      "t": 126026.04166666638,
      "d": 125,
      "v": 75
    },
    {
      "midi": 75,
      "hit": false,
      "t": 126442.70833333304,
      "d": 473.9583333333285,
      "v": 87
    },
    {
      "midi": 63,
      "hit": false,
      "t": 126442.70833333304,
      "d": 578.125,
      "v": 104
    },
    {
      "midi": 39,
      "hit": false,
      "t": 126442.70833333304,
      "d": 1244.7916666666424,
      "v": 104
    },
    {
      "midi": 67,
      "hit": false,
      "t": 126447.91666666637,
      "d": 447.9166666666715,
      "v": 99
    },
    {
      "midi": 70,
      "hit": false,
      "t": 126447.91666666637,
      "d": 494.7916666666715,
      "v": 91
    },
    {
      "midi": 75,
      "hit": false,
      "t": 127276.04166666637,
      "d": 369.79166666665697,
      "v": 89
    },
    {
      "midi": 70,
      "hit": false,
      "t": 127276.04166666637,
      "d": 374.99999999998545,
      "v": 80
    },
    {
      "midi": 67,
      "hit": false,
      "t": 127281.2499999997,
      "d": 364.5833333333285,
      "v": 92
    },
    {
      "midi": 63,
      "hit": false,
      "t": 127281.2499999997,
      "d": 468.74999999998545,
      "v": 89
    },
    {
      "midi": 51,
      "hit": false,
      "t": 127692.70833333301,
      "d": 125,
      "v": 94
    },
    {
      "midi": 65,
      "hit": false,
      "t": 128114.58333333301,
      "d": 437.5,
      "v": 99
    },
    {
      "midi": 70,
      "hit": false,
      "t": 128114.58333333301,
      "d": 437.5,
      "v": 96
    },
    {
      "midi": 74,
      "hit": false,
      "t": 128119.79166666634,
      "d": 416.6666666666715,
      "v": 103
    },
    {
      "midi": 62,
      "hit": false,
      "t": 128119.79166666634,
      "d": 505.20833333334303,
      "v": 83
    },
    {
      "midi": 46,
      "hit": false,
      "t": 128119.79166666634,
      "d": 1026.0416666666715,
      "v": 104
    },
    {
      "midi": 74,
      "hit": false,
      "t": 128953.12499999968,
      "d": 619.7916666666715,
      "v": 90
    },
    {
      "midi": 70,
      "hit": false,
      "t": 128953.12499999968,
      "d": 625,
      "v": 86
    },
    {
      "midi": 65,
      "hit": false,
      "t": 128958.33333333301,
      "d": 651.0416666666715,
      "v": 101
    },
    {
      "midi": 62,
      "hit": false,
      "t": 128958.33333333301,
      "d": 692.708333333343,
      "v": 83
    },
    {
      "midi": 46,
      "hit": false,
      "t": 129374.99999999968,
      "d": 1374.9999999999854,
      "v": 91
    },
    {
      "midi": 62,
      "hit": false,
      "t": 129791.66666666635,
      "d": 567.7083333333285,
      "v": 82
    },
    {
      "midi": 65,
      "hit": false,
      "t": 129791.66666666635,
      "d": 567.7083333333285,
      "v": 91
    },
    {
      "midi": 70,
      "hit": false,
      "t": 129791.66666666635,
      "d": 588.541666666657,
      "v": 79
    },
    {
      "midi": 74,
      "hit": false,
      "t": 129796.87499999968,
      "d": 515.625,
      "v": 97
    },
    {
      "midi": 58,
      "hit": false,
      "t": 130213.54166666635,
      "d": 859.3749999999854,
      "v": 104
    },
    {
      "midi": 70,
      "hit": false,
      "t": 130630.20833333301,
      "d": 473.9583333333285,
      "v": 82
    },
    {
      "midi": 74,
      "hit": false,
      "t": 130635.41666666634,
      "d": 406.25,
      "v": 85
    },
    {
      "midi": 62,
      "hit": false,
      "t": 130635.41666666634,
      "d": 484.375,
      "v": 81
    },
    {
      "midi": 65,
      "hit": false,
      "t": 130635.41666666634,
      "d": 484.375,
      "v": 91
    },
    {
      "midi": 46,
      "hit": false,
      "t": 131057.29166666634,
      "d": 359.375,
      "v": 104
    },
    {
      "midi": 69,
      "hit": false,
      "t": 131473.95833333302,
      "d": 546.875,
      "v": 90
    },
    {
      "midi": 65,
      "hit": false,
      "t": 131473.95833333302,
      "d": 593.75,
      "v": 97
    },
    {
      "midi": 72,
      "hit": false,
      "t": 131479.16666666637,
      "d": 520.8333333333139,
      "v": 96
    },
    {
      "midi": 41,
      "hit": false,
      "t": 131479.16666666637,
      "d": 1036.458333333314,
      "v": 96
    },
    {
      "midi": 53,
      "hit": false,
      "t": 131895.83333333302,
      "d": 687.5,
      "v": 81
    },
    {
      "midi": 65,
      "hit": false,
      "t": 132312.49999999968,
      "d": 411.45833333334303,
      "v": 92
    },
    {
      "midi": 60,
      "hit": false,
      "t": 132317.70833333302,
      "d": 395.83333333334303,
      "v": 83
    },
    {
      "midi": 72,
      "hit": false,
      "t": 132317.70833333302,
      "d": 453.125,
      "v": 92
    },
    {
      "midi": 69,
      "hit": false,
      "t": 132317.70833333302,
      "d": 484.375,
      "v": 85
    },
    {
      "midi": 41,
      "hit": false,
      "t": 132734.37499999968,
      "d": 281.25,
      "v": 83
    },
    {
      "midi": 72,
      "hit": false,
      "t": 133156.24999999968,
      "d": 447.91666666665697,
      "v": 101
    },
    {
      "midi": 66,
      "hit": false,
      "t": 133156.24999999968,
      "d": 531.25,
      "v": 86
    },
    {
      "midi": 69,
      "hit": false,
      "t": 133156.24999999968,
      "d": 531.25,
      "v": 85
    },
    {
      "midi": 62,
      "hit": false,
      "t": 133156.24999999968,
      "d": 677.083333333343,
      "v": 86
    },
    {
      "midi": 42,
      "hit": false,
      "t": 133156.24999999968,
      "d": 1046.875000000029,
      "v": 104
    },
    {
      "midi": 54,
      "hit": false,
      "t": 133578.12499999968,
      "d": 812.5000000000291,
      "v": 82
    },
    {
      "midi": 66,
      "hit": false,
      "t": 133994.79166666637,
      "d": 406.25,
      "v": 84
    },
    {
      "midi": 72,
      "hit": false,
      "t": 133999.9999999997,
      "d": 348.95833333334303,
      "v": 97
    },
    {
      "midi": 69,
      "hit": false,
      "t": 133999.9999999997,
      "d": 359.375,
      "v": 88
    },
    {
      "midi": 62,
      "hit": false,
      "t": 133999.9999999997,
      "d": 416.66666666665697,
      "v": 90
    },
    {
      "midi": 42,
      "hit": false,
      "t": 134416.66666666637,
      "d": 291.66666666665697,
      "v": 75
    },
    {
      "midi": 62,
      "hit": false,
      "t": 134838.54166666637,
      "d": 1125,
      "v": 83
    },
    {
      "midi": 70,
      "hit": false,
      "t": 134838.54166666637,
      "d": 1250,
      "v": 94
    },
    {
      "midi": 67,
      "hit": false,
      "t": 134838.54166666637,
      "d": 1255.208333333343,
      "v": 87
    },
    {
      "midi": 43,
      "hit": false,
      "t": 134838.54166666637,
      "d": 2078.125,
      "v": 96
    },
    {
      "midi": 65,
      "hit": false,
      "t": 134843.7499999997,
      "d": 1234.375,
      "v": 88
    },
    {
      "midi": 55,
      "hit": false,
      "t": 135687.4999999997,
      "d": 1213.541666666657,
      "v": 91
    },
    {
      "midi": 62,
      "hit": false,
      "t": 136104.16666666637,
      "d": 411.45833333334303,
      "v": 75
    },
    {
      "midi": 62,
      "hit": false,
      "t": 136526.04166666637,
      "d": 828.125,
      "v": 76
    },
    {
      "midi": 65,
      "hit": false,
      "t": 136526.04166666637,
      "d": 828.125,
      "v": 88
    },
    {
      "midi": 67,
      "hit": false,
      "t": 136526.04166666637,
      "d": 828.125,
      "v": 85
    },
    {
      "midi": 70,
      "hit": false,
      "t": 136526.04166666637,
      "d": 828.125,
      "v": 75
    },
    {
      "midi": 69,
      "hit": false,
      "t": 137369.79166666637,
      "d": 838.5416666666861,
      "v": 88
    },
    {
      "midi": 41,
      "hit": false,
      "t": 137374.9999999997,
      "d": 833.333333333343,
      "v": 81
    },
    {
      "midi": 53,
      "hit": false,
      "t": 137374.9999999997,
      "d": 833.333333333343,
      "v": 80
    },
    {
      "midi": 60,
      "hit": false,
      "t": 137374.9999999997,
      "d": 833.333333333343,
      "v": 88
    },
    {
      "midi": 65,
      "hit": false,
      "t": 137374.9999999997,
      "d": 833.333333333343,
      "v": 88
    },
    {
      "midi": 72,
      "hit": false,
      "t": 137374.9999999997,
      "d": 833.333333333343,
      "v": 96
    },
    {
      "midi": 67,
      "hit": false,
      "t": 138218.7499999997,
      "d": 572.9166666667152,
      "v": 90
    },
    {
      "midi": 63,
      "hit": false,
      "t": 138218.7499999997,
      "d": 614.5833333333721,
      "v": 78
    },
    {
      "midi": 51,
      "hit": false,
      "t": 138218.7499999997,
      "d": 3364.5833333334012,
      "v": 78
    },
    {
      "midi": 39,
      "hit": false,
      "t": 138218.7499999997,
      "d": 3395.8333333334012,
      "v": 89
    },
    {
      "midi": 75,
      "hit": false,
      "t": 138223.95833333305,
      "d": 546.8750000000291,
      "v": 91
    },
    {
      "midi": 70,
      "hit": false,
      "t": 138223.95833333305,
      "d": 578.1250000000291,
      "v": 87
    },
    {
      "midi": 63,
      "hit": false,
      "t": 139062.49999999974,
      "d": 375,
      "v": 75
    },
    {
      "midi": 70,
      "hit": false,
      "t": 139062.49999999974,
      "d": 520.833333333343,
      "v": 75
    },
    {
      "midi": 67,
      "hit": false,
      "t": 139067.70833333308,
      "d": 473.95833333334303,
      "v": 85
    },
    {
      "midi": 63,
      "hit": false,
      "t": 139489.58333333308,
      "d": 385.41666666665697,
      "v": 75
    },
    {
      "midi": 67,
      "hit": false,
      "t": 139916.6666666664,
      "d": 557.2916666666861,
      "v": 80
    },
    {
      "midi": 70,
      "hit": false,
      "t": 140343.74999999974,
      "d": 343.75,
      "v": 80
    },
    {
      "midi": 75,
      "hit": false,
      "t": 140770.83333333308,
      "d": 208.33333333334303,
      "v": 100
    },
    {
      "midi": 70,
      "hit": false,
      "t": 140979.16666666642,
      "d": 192.70833333334303,
      "v": 91
    },
    {
      "midi": 67,
      "hit": false,
      "t": 141192.7083333331,
      "d": 213.54166666665697,
      "v": 85
    },
    {
      "midi": 63,
      "hit": false,
      "t": 141406.24999999977,
      "d": 192.70833333334303,
      "v": 84
    },
    {
      "midi": 65,
      "hit": false,
      "t": 141624.99999999977,
      "d": 447.91666666668607,
      "v": 92
    },
    {
      "midi": 70,
      "hit": false,
      "t": 141624.99999999977,
      "d": 453.1250000000291,
      "v": 91
    },
    {
      "midi": 62,
      "hit": false,
      "t": 141624.99999999977,
      "d": 515.6250000000291,
      "v": 88
    },
    {
      "midi": 58,
      "hit": false,
      "t": 141624.99999999977,
      "d": 520.8333333333721,
      "v": 100
    },
    {
      "midi": 46,
      "hit": false,
      "t": 141624.99999999977,
      "d": 3151.0416666667443,
      "v": 104
    },
    {
      "midi": 62,
      "hit": false,
      "t": 142463.54166666648,
      "d": 453.125,
      "v": 79
    },
    {
      "midi": 58,
      "hit": false,
      "t": 142463.54166666648,
      "d": 484.375,
      "v": 75
    },
    {
      "midi": 65,
      "hit": false,
      "t": 142468.74999999983,
      "d": 437.5,
      "v": 79
    },
    {
      "midi": 70,
      "hit": false,
      "t": 142468.74999999983,
      "d": 468.75,
      "v": 91
    },
    {
      "midi": 58,
      "hit": false,
      "t": 143296.87499999983,
      "d": 526.0416666666861,
      "v": 79
    },
    {
      "midi": 65,
      "hit": false,
      "t": 143302.08333333317,
      "d": 401.04166666665697,
      "v": 82
    },
    {
      "midi": 70,
      "hit": false,
      "t": 143302.08333333317,
      "d": 421.875,
      "v": 89
    },
    {
      "midi": 62,
      "hit": false,
      "t": 143302.08333333317,
      "d": 453.125,
      "v": 79
    },
    {
      "midi": 70,
      "hit": false,
      "t": 144145.83333333317,
      "d": 312.5,
      "v": 87
    },
    {
      "midi": 62,
      "hit": false,
      "t": 144145.83333333317,
      "d": 317.70833333334303,
      "v": 83
    },
    {
      "midi": 65,
      "hit": false,
      "t": 144145.83333333317,
      "d": 317.70833333334303,
      "v": 87
    },
    {
      "midi": 58,
      "hit": false,
      "t": 144145.83333333317,
      "d": 338.54166666668607,
      "v": 82
    },
    {
      "midi": 69,
      "hit": false,
      "t": 144984.37499999985,
      "d": 453.125,
      "v": 97
    },
    {
      "midi": 65,
      "hit": false,
      "t": 144984.37499999985,
      "d": 494.79166666665697,
      "v": 87
    },
    {
      "midi": 60,
      "hit": false,
      "t": 144984.37499999985,
      "d": 531.25,
      "v": 101
    },
    {
      "midi": 45,
      "hit": false,
      "t": 144984.37499999985,
      "d": 3250.000000000029,
      "v": 88
    },
    {
      "midi": 65,
      "hit": false,
      "t": 145817.7083333332,
      "d": 500.0000000000291,
      "v": 94
    },
    {
      "midi": 69,
      "hit": false,
      "t": 145822.91666666654,
      "d": 421.875,
      "v": 101
    },
    {
      "midi": 60,
      "hit": false,
      "t": 145822.91666666654,
      "d": 427.08333333334303,
      "v": 92
    },
    {
      "midi": 69,
      "hit": false,
      "t": 146666.66666666657,
      "d": 442.70833333334303,
      "v": 88
    },
    {
      "midi": 60,
      "hit": false,
      "t": 146666.66666666657,
      "d": 453.125,
      "v": 87
    },
    {
      "midi": 65,
      "hit": false,
      "t": 146666.66666666657,
      "d": 458.33333333334303,
      "v": 90
    },
    {
      "midi": 69,
      "hit": false,
      "t": 147505.20833333326,
      "d": 432.29166666665697,
      "v": 96
    },
    {
      "midi": 65,
      "hit": false,
      "t": 147505.20833333326,
      "d": 458.33333333331393,
      "v": 90
    },
    {
      "midi": 60,
      "hit": false,
      "t": 147505.20833333326,
      "d": 499.9999999999709,
      "v": 91
    },
    {
      "midi": 63,
      "hit": false,
      "t": 148354.16666666654,
      "d": 458.33333333334303,
      "v": 91
    },
    {
      "midi": 60,
      "hit": false,
      "t": 148354.16666666654,
      "d": 541.6666666666861,
      "v": 91
    },
    {
      "midi": 43,
      "hit": false,
      "t": 148354.16666666654,
      "d": 3031.250000000058,
      "v": 79
    },
    {
      "midi": 67,
      "hit": false,
      "t": 148359.37499999988,
      "d": 453.125,
      "v": 90
    },
    {
      "midi": 55,
      "hit": false,
      "t": 148359.37499999988,
      "d": 2994.791666666715,
      "v": 75
    },
    {
      "midi": 67,
      "hit": false,
      "t": 149197.91666666657,
      "d": 458.33333333334303,
      "v": 87
    },
    {
      "midi": 63,
      "hit": false,
      "t": 149197.91666666657,
      "d": 473.95833333334303,
      "v": 83
    },
    {
      "midi": 60,
      "hit": false,
      "t": 149197.91666666657,
      "d": 494.79166666668607,
      "v": 83
    },
    {
      "midi": 63,
      "hit": false,
      "t": 150031.2499999999,
      "d": 447.91666666668607,
      "v": 84
    },
    {
      "midi": 67,
      "hit": false,
      "t": 150036.45833333326,
      "d": 437.5,
      "v": 87
    },
    {
      "midi": 60,
      "hit": false,
      "t": 150036.45833333326,
      "d": 468.75,
      "v": 87
    },
    {
      "midi": 63,
      "hit": false,
      "t": 150880.20833333326,
      "d": 390.625,
      "v": 87
    },
    {
      "midi": 60,
      "hit": false,
      "t": 150885.4166666666,
      "d": 432.29166666665697,
      "v": 94
    },
    {
      "midi": 67,
      "hit": false,
      "t": 150885.4166666666,
      "d": 432.29166666665697,
      "v": 87
    },
    {
      "midi": 70,
      "hit": false,
      "t": 151723.95833333326,
      "d": 453.125,
      "v": 92
    },
    {
      "midi": 58,
      "hit": false,
      "t": 151723.95833333326,
      "d": 463.54166666665697,
      "v": 86
    },
    {
      "midi": 53,
      "hit": false,
      "t": 151723.95833333326,
      "d": 1427.083333333343,
      "v": 79
    },
    {
      "midi": 62,
      "hit": false,
      "t": 151729.1666666666,
      "d": 390.625,
      "v": 82
    },
    {
      "midi": 65,
      "hit": false,
      "t": 151729.1666666666,
      "d": 390.625,
      "v": 85
    },
    {
      "midi": 41,
      "hit": false,
      "t": 151729.1666666666,
      "d": 1401.041666666657,
      "v": 79
    },
    {
      "midi": 70,
      "hit": false,
      "t": 152562.4999999999,
      "d": 322.91666666665697,
      "v": 94
    },
    {
      "midi": 62,
      "hit": false,
      "t": 152562.4999999999,
      "d": 343.75,
      "v": 80
    },
    {
      "midi": 58,
      "hit": false,
      "t": 152562.4999999999,
      "d": 359.375,
      "v": 78
    },
    {
      "midi": 65,
      "hit": false,
      "t": 152562.4999999999,
      "d": 375,
      "v": 90
    },
    {
      "midi": 69,
      "hit": false,
      "t": 153401.0416666666,
      "d": 479.16666666665697,
      "v": 96
    },
    {
      "midi": 63,
      "hit": false,
      "t": 153401.0416666666,
      "d": 536.4583333333139,
      "v": 80
    },
    {
      "midi": 41,
      "hit": false,
      "t": 153401.0416666666,
      "d": 1578.125,
      "v": 83
    },
    {
      "midi": 53,
      "hit": false,
      "t": 153401.0416666666,
      "d": 1708.333333333343,
      "v": 85
    },
    {
      "midi": 65,
      "hit": false,
      "t": 153406.24999999994,
      "d": 505.20833333331393,
      "v": 90
    },
    {
      "midi": 60,
      "hit": false,
      "t": 153406.24999999994,
      "d": 546.8749999999709,
      "v": 90
    },
    {
      "midi": 65,
      "hit": false,
      "t": 154239.58333333326,
      "d": 369.79166666668607,
      "v": 83
    },
    {
      "midi": 63,
      "hit": false,
      "t": 154239.58333333326,
      "d": 375.0000000000291,
      "v": 80
    },
    {
      "midi": 60,
      "hit": false,
      "t": 154239.58333333326,
      "d": 447.91666666668607,
      "v": 91
    },
    {
      "midi": 69,
      "hit": false,
      "t": 154244.7916666666,
      "d": 364.58333333334303,
      "v": 99
    },
    {
      "midi": 58,
      "hit": false,
      "t": 155083.33333333326,
      "d": 802.0833333333721,
      "v": 89
    },
    {
      "midi": 46,
      "hit": false,
      "t": 155083.33333333326,
      "d": 3338.541666666686,
      "v": 96
    },
    {
      "midi": 62,
      "hit": false,
      "t": 155088.5416666666,
      "d": 796.8750000000291,
      "v": 85
    },
    {
      "midi": 65,
      "hit": false,
      "t": 155088.5416666666,
      "d": 796.8750000000291,
      "v": 92
    },
    {
      "midi": 70,
      "hit": false,
      "t": 155088.5416666666,
      "d": 796.8750000000291,
      "v": 104
    },
    {
      "midi": 58,
      "hit": false,
      "t": 155932.29166666663,
      "d": 812.5,
      "v": 80
    },
    {
      "midi": 62,
      "hit": false,
      "t": 155932.29166666663,
      "d": 812.5,
      "v": 80
    },
    {
      "midi": 70,
      "hit": false,
      "t": 155932.29166666663,
      "d": 812.5,
      "v": 89
    },
    {
      "midi": 65,
      "hit": false,
      "t": 155937.49999999997,
      "d": 807.291666666657,
      "v": 87
    },
    {
      "midi": 65,
      "hit": false,
      "t": 156770.83333333328,
      "d": 822.916666666657,
      "v": 85
    },
    {
      "midi": 58,
      "hit": false,
      "t": 156770.83333333328,
      "d": 828.125,
      "v": 84
    },
    {
      "midi": 62,
      "hit": false,
      "t": 156770.83333333328,
      "d": 828.125,
      "v": 82
    },
    {
      "midi": 70,
      "hit": false,
      "t": 156770.83333333328,
      "d": 828.125,
      "v": 86
    },
    {
      "midi": 58,
      "hit": false,
      "t": 157624.99999999994,
      "d": 817.708333333343,
      "v": 87
    },
    {
      "midi": 62,
      "hit": false,
      "t": 157624.99999999994,
      "d": 817.708333333343,
      "v": 86
    },
    {
      "midi": 70,
      "hit": false,
      "t": 157624.99999999994,
      "d": 817.708333333343,
      "v": 94
    },
    {
      "midi": 65,
      "hit": false,
      "t": 157624.99999999994,
      "d": 822.9166666666861,
      "v": 91
    },
    {
      "midi": 69,
      "hit": false,
      "t": 158473.95833333328,
      "d": 416.66666666665697,
      "v": 91
    },
    {
      "midi": 60,
      "hit": false,
      "t": 158473.95833333328,
      "d": 484.375,
      "v": 96
    },
    {
      "midi": 65,
      "hit": false,
      "t": 158473.95833333328,
      "d": 484.375,
      "v": 96
    },
    {
      "midi": 45,
      "hit": false,
      "t": 158473.95833333328,
      "d": 2942.708333333314,
      "v": 87
    },
    {
      "midi": 65,
      "hit": false,
      "t": 159312.49999999994,
      "d": 385.41666666665697,
      "v": 87
    },
    {
      "midi": 69,
      "hit": false,
      "t": 159312.49999999994,
      "d": 385.41666666665697,
      "v": 91
    },
    {
      "midi": 60,
      "hit": false,
      "t": 159312.49999999994,
      "d": 453.125,
      "v": 90
    },
    {
      "midi": 69,
      "hit": false,
      "t": 160156.24999999994,
      "d": 385.41666666665697,
      "v": 94
    },
    {
      "midi": 60,
      "hit": false,
      "t": 160156.24999999994,
      "d": 395.83333333331393,
      "v": 88
    },
    {
      "midi": 65,
      "hit": false,
      "t": 160156.24999999994,
      "d": 427.08333333331393,
      "v": 87
    },
    {
      "midi": 69,
      "hit": false,
      "t": 160999.9999999999,
      "d": 395.83333333334303,
      "v": 92
    },
    {
      "midi": 65,
      "hit": false,
      "t": 161005.20833333326,
      "d": 421.875,
      "v": 87
    },
    {
      "midi": 60,
      "hit": false,
      "t": 161005.20833333326,
      "d": 463.54166666665697,
      "v": 92
    },
    {
      "midi": 63,
      "hit": false,
      "t": 161848.95833333326,
      "d": 432.29166666665697,
      "v": 102
    },
    {
      "midi": 60,
      "hit": false,
      "t": 161848.95833333326,
      "d": 484.375,
      "v": 86
    },
    {
      "midi": 48,
      "hit": false,
      "t": 161848.95833333326,
      "d": 1072.916666666686,
      "v": 80
    },
    {
      "midi": 36,
      "hit": false,
      "t": 161848.95833333326,
      "d": 1229.166666666686,
      "v": 86
    },
    {
      "midi": 67,
      "hit": false,
      "t": 161854.1666666666,
      "d": 416.66666666665697,
      "v": 94
    },
    {
      "midi": 60,
      "hit": false,
      "t": 162682.2916666666,
      "d": 130.20833333334303,
      "v": 88
    },
    {
      "midi": 63,
      "hit": false,
      "t": 162682.2916666666,
      "d": 135.41666666668607,
      "v": 86
    },
    {
      "midi": 67,
      "hit": false,
      "t": 162682.2916666666,
      "d": 166.66666666668607,
      "v": 92
    },
    {
      "midi": 65,
      "hit": false,
      "t": 163098.95833333328,
      "d": 421.8750000000291,
      "v": 96
    },
    {
      "midi": 38,
      "hit": false,
      "t": 163104.16666666663,
      "d": 416.66666666668607,
      "v": 86
    },
    {
      "midi": 50,
      "hit": false,
      "t": 163104.16666666663,
      "d": 416.66666666668607,
      "v": 75
    },
    {
      "midi": 62,
      "hit": false,
      "t": 163104.16666666663,
      "d": 416.66666666668607,
      "v": 83
    },
    {
      "midi": 69,
      "hit": false,
      "t": 163104.16666666663,
      "d": 416.66666666668607,
      "v": 83
    },
    {
      "midi": 63,
      "hit": false,
      "t": 163520.8333333333,
      "d": 505.20833333334303,
      "v": 102
    },
    {
      "midi": 70,
      "hit": false,
      "t": 163526.04166666666,
      "d": 463.54166666665697,
      "v": 89
    },
    {
      "midi": 67,
      "hit": false,
      "t": 163526.04166666666,
      "d": 484.375,
      "v": 99
    },
    {
      "midi": 51,
      "hit": false,
      "t": 163526.04166666666,
      "d": 1244.791666666657,
      "v": 82
    },
    {
      "midi": 39,
      "hit": false,
      "t": 163526.04166666666,
      "d": 1671.875,
      "v": 91
    },
    {
      "midi": 67,
      "hit": false,
      "t": 164369.79166666666,
      "d": 296.875,
      "v": 88
    },
    {
      "midi": 70,
      "hit": false,
      "t": 164369.79166666666,
      "d": 322.91666666665697,
      "v": 86
    },
    {
      "midi": 63,
      "hit": false,
      "t": 164375,
      "d": 374.9999999999709,
      "v": 82
    },
    {
      "midi": 53,
      "hit": false,
      "t": 165208.33333333334,
      "d": 1458.333333333314,
      "v": 81
    },
    {
      "midi": 70,
      "hit": false,
      "t": 165213.5416666667,
      "d": 411.45833333334303,
      "v": 91
    },
    {
      "midi": 58,
      "hit": false,
      "t": 165213.5416666667,
      "d": 494.79166666665697,
      "v": 100
    },
    {
      "midi": 41,
      "hit": false,
      "t": 165213.5416666667,
      "d": 1666.6666666666279,
      "v": 81
    },
    {
      "midi": 65,
      "hit": false,
      "t": 165218.75000000003,
      "d": 421.875,
      "v": 90
    },
    {
      "midi": 62,
      "hit": false,
      "t": 165218.75000000003,
      "d": 447.91666666665697,
      "v": 90
    },
    {
      "midi": 70,
      "hit": false,
      "t": 166046.875,
      "d": 291.66666666665697,
      "v": 76
    },
    {
      "midi": 65,
      "hit": false,
      "t": 166046.875,
      "d": 302.08333333331393,
      "v": 82
    },
    {
      "midi": 62,
      "hit": false,
      "t": 166046.875,
      "d": 307.29166666665697,
      "v": 82
    },
    {
      "midi": 58,
      "hit": false,
      "t": 166046.875,
      "d": 328.125,
      "v": 83
    },
    {
      "midi": 65,
      "hit": false,
      "t": 166890.62499999997,
      "d": 359.375,
      "v": 90
    },
    {
      "midi": 53,
      "hit": false,
      "t": 166890.62499999997,
      "d": 369.79166666665697,
      "v": 88
    },
    {
      "midi": 69,
      "hit": false,
      "t": 166895.8333333333,
      "d": 312.5,
      "v": 97
    },
    {
      "midi": 41,
      "hit": false,
      "t": 166895.8333333333,
      "d": 374.9999999999709,
      "v": 81
    },
    {
      "midi": 60,
      "hit": false,
      "t": 166895.8333333333,
      "d": 432.29166666662786,
      "v": 94
    },
    {
      "midi": 60,
      "hit": false,
      "t": 167739.58333333326,
      "d": 364.58333333334303,
      "v": 92
    },
    {
      "midi": 62,
      "hit": false,
      "t": 167739.58333333326,
      "d": 364.58333333334303,
      "v": 92
    },
    {
      "midi": 69,
      "hit": false,
      "t": 167739.58333333326,
      "d": 364.58333333334303,
      "v": 92
    },
    {
      "midi": 66,
      "hit": false,
      "t": 167739.58333333326,
      "d": 385.41666666668607,
      "v": 86
    },
    {
      "midi": 42,
      "hit": false,
      "t": 167739.58333333326,
      "d": 390.6250000000291,
      "v": 84
    },
    {
      "midi": 54,
      "hit": false,
      "t": 167739.58333333326,
      "d": 468.7500000000291,
      "v": 87
    },
    {
      "midi": 70,
      "hit": false,
      "t": 168583.33333333328,
      "d": 416.66666666668607,
      "v": 87
    },
    {
      "midi": 67,
      "hit": false,
      "t": 168583.33333333328,
      "d": 432.29166666668607,
      "v": 94
    },
    {
      "midi": 62,
      "hit": false,
      "t": 168583.33333333328,
      "d": 437.5000000000291,
      "v": 85
    },
    {
      "midi": 43,
      "hit": false,
      "t": 168583.33333333328,
      "d": 3015.625000000029,
      "v": 83
    },
    {
      "midi": 55,
      "hit": false,
      "t": 168583.33333333328,
      "d": 3083.333333333372,
      "v": 79
    },
    {
      "midi": 70,
      "hit": false,
      "t": 169416.66666666666,
      "d": 427.08333333334303,
      "v": 84
    },
    {
      "midi": 62,
      "hit": false,
      "t": 169421.875,
      "d": 442.70833333334303,
      "v": 80
    },
    {
      "midi": 67,
      "hit": false,
      "t": 169421.875,
      "d": 473.95833333334303,
      "v": 88
    },
    {
      "midi": 70,
      "hit": false,
      "t": 170255.20833333334,
      "d": 390.625,
      "v": 82
    },
    {
      "midi": 67,
      "hit": false,
      "t": 170255.20833333334,
      "d": 406.25,
      "v": 88
    },
    {
      "midi": 62,
      "hit": false,
      "t": 170260.4166666667,
      "d": 442.70833333331393,
      "v": 79
    },
    {
      "midi": 70,
      "hit": false,
      "t": 171104.16666666666,
      "d": 411.45833333334303,
      "v": 86
    },
    {
      "midi": 67,
      "hit": false,
      "t": 171104.16666666666,
      "d": 453.125,
      "v": 90
    },
    {
      "midi": 62,
      "hit": false,
      "t": 171104.16666666666,
      "d": 484.375,
      "v": 86
    },
    {
      "midi": 53,
      "hit": false,
      "t": 171947.91666666666,
      "d": 3234.375000000029,
      "v": 83
    },
    {
      "midi": 65,
      "hit": false,
      "t": 171953.125,
      "d": 515.6250000000291,
      "v": 99
    },
    {
      "midi": 41,
      "hit": false,
      "t": 171953.125,
      "d": 3156.250000000029,
      "v": 82
    },
    {
      "midi": 70,
      "hit": false,
      "t": 171958.33333333334,
      "d": 494.79166666668607,
      "v": 91
    },
    {
      "midi": 62,
      "hit": false,
      "t": 171958.33333333334,
      "d": 515.6250000000291,
      "v": 85
    },
    {
      "midi": 70,
      "hit": false,
      "t": 172786.45833333337,
      "d": 442.70833333334303,
      "v": 80
    },
    {
      "midi": 65,
      "hit": false,
      "t": 172786.45833333337,
      "d": 484.375,
      "v": 92
    },
    {
      "midi": 62,
      "hit": false,
      "t": 172786.45833333337,
      "d": 557.291666666657,
      "v": 80
    },
    {
      "midi": 70,
      "hit": false,
      "t": 173625.00000000003,
      "d": 447.91666666665697,
      "v": 84
    },
    {
      "midi": 65,
      "hit": false,
      "t": 173625.00000000003,
      "d": 453.125,
      "v": 90
    },
    {
      "midi": 62,
      "hit": false,
      "t": 173625.00000000003,
      "d": 531.25,
      "v": 80
    },
    {
      "midi": 70,
      "hit": false,
      "t": 174463.5416666667,
      "d": 348.95833333334303,
      "v": 82
    },
    {
      "midi": 65,
      "hit": false,
      "t": 174463.5416666667,
      "d": 406.25,
      "v": 94
    },
    {
      "midi": 62,
      "hit": false,
      "t": 174463.5416666667,
      "d": 421.875,
      "v": 85
    },
    {
      "midi": 63,
      "hit": false,
      "t": 175307.2916666667,
      "d": 463.54166666668607,
      "v": 92
    },
    {
      "midi": 67,
      "hit": false,
      "t": 175312.50000000003,
      "d": 447.91666666665697,
      "v": 90
    },
    {
      "midi": 70,
      "hit": false,
      "t": 175312.50000000003,
      "d": 453.125,
      "v": 87
    },
    {
      "midi": 60,
      "hit": false,
      "t": 175312.50000000003,
      "d": 526.0416666666861,
      "v": 91
    },
    {
      "midi": 48,
      "hit": false,
      "t": 175312.50000000003,
      "d": 3109.375000000029,
      "v": 91
    },
    {
      "midi": 63,
      "hit": false,
      "t": 176151.04166666672,
      "d": 557.291666666657,
      "v": 79
    },
    {
      "midi": 67,
      "hit": false,
      "t": 176156.25000000006,
      "d": 541.666666666657,
      "v": 91
    },
    {
      "midi": 70,
      "hit": false,
      "t": 176156.25000000006,
      "d": 552.0833333333139,
      "v": 86
    },
    {
      "midi": 60,
      "hit": false,
      "t": 176156.25000000006,
      "d": 572.916666666657,
      "v": 76
    },
    {
      "midi": 70,
      "hit": false,
      "t": 177000.00000000006,
      "d": 479.16666666665697,
      "v": 87
    },
    {
      "midi": 63,
      "hit": false,
      "t": 177000.00000000006,
      "d": 494.79166666665697,
      "v": 82
    },
    {
      "midi": 67,
      "hit": false,
      "t": 177000.00000000006,
      "d": 494.79166666665697,
      "v": 87
    },
    {
      "midi": 60,
      "hit": false,
      "t": 177000.00000000006,
      "d": 536.4583333333139,
      "v": 81
    },
    {
      "midi": 36,
      "hit": false,
      "t": 177000.00000000006,
      "d": 1666.666666666657,
      "v": 92
    },
    {
      "midi": 70,
      "hit": false,
      "t": 177838.54166666672,
      "d": 343.75,
      "v": 82
    },
    {
      "midi": 63,
      "hit": false,
      "t": 177838.54166666672,
      "d": 359.375,
      "v": 84
    },
    {
      "midi": 60,
      "hit": false,
      "t": 177838.54166666672,
      "d": 427.08333333334303,
      "v": 80
    },
    {
      "midi": 67,
      "hit": false,
      "t": 177843.75000000006,
      "d": 322.91666666665697,
      "v": 90
    },
    {
      "midi": 60,
      "hit": false,
      "t": 178682.29166666672,
      "d": 463.54166666665697,
      "v": 88
    },
    {
      "midi": 69,
      "hit": false,
      "t": 178687.50000000006,
      "d": 390.625,
      "v": 88
    },
    {
      "midi": 67,
      "hit": false,
      "t": 178687.50000000006,
      "d": 432.29166666665697,
      "v": 94
    },
    {
      "midi": 62,
      "hit": false,
      "t": 178687.50000000006,
      "d": 458.33333333331393,
      "v": 87
    },
    {
      "midi": 50,
      "hit": false,
      "t": 178687.50000000006,
      "d": 1494.791666666686,
      "v": 75
    },
    {
      "midi": 38,
      "hit": false,
      "t": 178687.50000000006,
      "d": 1572.916666666686,
      "v": 81
    },
    {
      "midi": 67,
      "hit": false,
      "t": 179526.04166666672,
      "d": 453.125,
      "v": 94
    },
    {
      "midi": 69,
      "hit": false,
      "t": 179531.25000000006,
      "d": 468.75,
      "v": 88
    },
    {
      "midi": 60,
      "hit": false,
      "t": 179531.25000000006,
      "d": 489.58333333334303,
      "v": 90
    },
    {
      "midi": 62,
      "hit": false,
      "t": 179531.25000000006,
      "d": 505.20833333334303,
      "v": 86
    },
    {
      "midi": 62,
      "hit": false,
      "t": 180375.0000000001,
      "d": 500.0000000000291,
      "v": 91
    },
    {
      "midi": 66,
      "hit": false,
      "t": 180375.0000000001,
      "d": 520.8333333333721,
      "v": 87
    },
    {
      "midi": 60,
      "hit": false,
      "t": 180375.0000000001,
      "d": 546.8750000000291,
      "v": 92
    },
    {
      "midi": 38,
      "hit": false,
      "t": 180375.0000000001,
      "d": 1567.7083333334012,
      "v": 82
    },
    {
      "midi": 50,
      "hit": false,
      "t": 180375.0000000001,
      "d": 1578.1250000000582,
      "v": 75
    },
    {
      "midi": 69,
      "hit": false,
      "t": 180380.20833333343,
      "d": 473.95833333334303,
      "v": 103
    },
    {
      "midi": 66,
      "hit": false,
      "t": 181223.95833333346,
      "d": 395.83333333334303,
      "v": 75
    },
    {
      "midi": 60,
      "hit": false,
      "t": 181223.95833333346,
      "d": 411.45833333334303,
      "v": 87
    },
    {
      "midi": 69,
      "hit": false,
      "t": 181223.95833333346,
      "d": 411.45833333334303,
      "v": 96
    },
    {
      "midi": 62,
      "hit": false,
      "t": 181223.95833333346,
      "d": 432.29166666668607,
      "v": 81
    },
    {
      "midi": 65,
      "hit": false,
      "t": 182062.50000000015,
      "d": 807.2916666666861,
      "v": 99
    },
    {
      "midi": 70,
      "hit": false,
      "t": 182062.50000000015,
      "d": 812.5000000000291,
      "v": 91
    },
    {
      "midi": 62,
      "hit": false,
      "t": 182067.7083333335,
      "d": 802.083333333343,
      "v": 94
    },
    {
      "midi": 67,
      "hit": false,
      "t": 182067.7083333335,
      "d": 807.2916666666861,
      "v": 94
    },
    {
      "midi": 55,
      "hit": false,
      "t": 182911.45833333352,
      "d": 802.083333333343,
      "v": 75
    },
    {
      "midi": 65,
      "hit": false,
      "t": 182911.45833333352,
      "d": 807.2916666666861,
      "v": 99
    },
    {
      "midi": 67,
      "hit": false,
      "t": 182916.66666666686,
      "d": 796.875,
      "v": 94
    },
    {
      "midi": 62,
      "hit": false,
      "t": 182916.66666666686,
      "d": 802.083333333343,
      "v": 85
    },
    {
      "midi": 70,
      "hit": false,
      "t": 182916.66666666686,
      "d": 802.083333333343,
      "v": 89
    },
    {
      "midi": 43,
      "hit": false,
      "t": 183333.33333333352,
      "d": 380.20833333334303,
      "v": 82
    },
    {
      "midi": 63,
      "hit": false,
      "t": 183750.0000000002,
      "d": 515.6250000000291,
      "v": 100
    },
    {
      "midi": 70,
      "hit": false,
      "t": 183755.20833333355,
      "d": 432.29166666668607,
      "v": 91
    },
    {
      "midi": 67,
      "hit": false,
      "t": 183755.20833333355,
      "d": 437.5000000000291,
      "v": 97
    },
    {
      "midi": 39,
      "hit": false,
      "t": 183755.20833333355,
      "d": 1171.875,
      "v": 98
    },
    {
      "midi": 51,
      "hit": false,
      "t": 184166.6666666669,
      "d": 864.583333333343,
      "v": 94
    },
    {
      "midi": 67,
      "hit": false,
      "t": 184588.5416666669,
      "d": 447.91666666668607,
      "v": 94
    },
    {
      "midi": 70,
      "hit": false,
      "t": 184588.5416666669,
      "d": 458.33333333334303,
      "v": 89
    },
    {
      "midi": 63,
      "hit": false,
      "t": 184588.5416666669,
      "d": 489.58333333334303,
      "v": 84
    },
    {
      "midi": 39,
      "hit": false,
      "t": 185010.4166666669,
      "d": 260.41666666668607,
      "v": 87
    },
    {
      "midi": 69,
      "hit": false,
      "t": 185427.08333333358,
      "d": 520.833333333343,
      "v": 86
    },
    {
      "midi": 65,
      "hit": false,
      "t": 185427.08333333358,
      "d": 531.25,
      "v": 96
    },
    {
      "midi": 41,
      "hit": false,
      "t": 185427.08333333358,
      "d": 1270.833333333343,
      "v": 82
    },
    {
      "midi": 60,
      "hit": false,
      "t": 185432.29166666692,
      "d": 598.9583333333139,
      "v": 94
    },
    {
      "midi": 60,
      "hit": false,
      "t": 186270.83333333358,
      "d": 479.16666666668607,
      "v": 92
    },
    {
      "midi": 69,
      "hit": false,
      "t": 186270.83333333358,
      "d": 479.16666666668607,
      "v": 90
    },
    {
      "midi": 65,
      "hit": false,
      "t": 186270.83333333358,
      "d": 489.58333333334303,
      "v": 94
    },
    {
      "midi": 53,
      "hit": false,
      "t": 186692.70833333358,
      "d": 354.16666666668607,
      "v": 99
    },
    {
      "midi": 70,
      "hit": false,
      "t": 187104.16666666695,
      "d": 526.0416666666861,
      "v": 104
    },
    {
      "midi": 65,
      "hit": false,
      "t": 187104.16666666695,
      "d": 541.6666666666861,
      "v": 101
    },
    {
      "midi": 46,
      "hit": false,
      "t": 187104.16666666695,
      "d": 817.708333333343,
      "v": 104
    },
    {
      "midi": 62,
      "hit": false,
      "t": 187109.3750000003,
      "d": 598.958333333343,
      "v": 92
    },
    {
      "midi": 45,
      "hit": false,
      "t": 187942.70833333363,
      "d": 468.75,
      "v": 99
    },
    {
      "midi": 60,
      "hit": false,
      "t": 187947.91666666698,
      "d": 416.66666666665697,
      "v": 104
    },
    {
      "midi": 69,
      "hit": false,
      "t": 187947.91666666698,
      "d": 427.08333333331393,
      "v": 101
    },
    {
      "midi": 65,
      "hit": false,
      "t": 187947.91666666698,
      "d": 489.58333333331393,
      "v": 99
    },
    {
      "midi": 65,
      "hit": false,
      "t": 188786.45833333363,
      "d": 526.041666666657,
      "v": 94
    },
    {
      "midi": 43,
      "hit": false,
      "t": 188786.45833333363,
      "d": 1192.708333333343,
      "v": 90
    },
    {
      "midi": 67,
      "hit": false,
      "t": 188791.66666666698,
      "d": 520.8333333333139,
      "v": 91
    },
    {
      "midi": 70,
      "hit": false,
      "t": 188791.66666666698,
      "d": 520.8333333333139,
      "v": 87
    },
    {
      "midi": 62,
      "hit": false,
      "t": 188791.66666666698,
      "d": 604.166666666657,
      "v": 86
    },
    {
      "midi": 55,
      "hit": false,
      "t": 188791.66666666698,
      "d": 1291.666666666686,
      "v": 82
    },
    {
      "midi": 70,
      "hit": false,
      "t": 189625.0000000003,
      "d": 463.5416666667152,
      "v": 87
    },
    {
      "midi": 65,
      "hit": false,
      "t": 189630.20833333363,
      "d": 458.33333333337214,
      "v": 92
    },
    {
      "midi": 67,
      "hit": false,
      "t": 189630.20833333363,
      "d": 479.1666666667152,
      "v": 90
    },
    {
      "midi": 62,
      "hit": false,
      "t": 189630.20833333363,
      "d": 494.7916666667152,
      "v": 81
    },
    {
      "midi": 43,
      "hit": false,
      "t": 190046.87500000032,
      "d": 151.04166666668607,
      "v": 92
    },
    {
      "midi": 65,
      "hit": false,
      "t": 190463.541666667,
      "d": 526.0416666666861,
      "v": 97
    },
    {
      "midi": 69,
      "hit": false,
      "t": 190468.75000000035,
      "d": 500,
      "v": 90
    },
    {
      "midi": 60,
      "hit": false,
      "t": 190468.75000000035,
      "d": 531.25,
      "v": 101
    },
    {
      "midi": 41,
      "hit": false,
      "t": 190468.75000000035,
      "d": 1203.125,
      "v": 81
    },
    {
      "midi": 53,
      "hit": false,
      "t": 190468.75000000035,
      "d": 1302.083333333343,
      "v": 92
    },
    {
      "midi": 60,
      "hit": false,
      "t": 191312.50000000035,
      "d": 411.45833333334303,
      "v": 92
    },
    {
      "midi": 65,
      "hit": false,
      "t": 191312.50000000035,
      "d": 432.29166666668607,
      "v": 91
    },
    {
      "midi": 69,
      "hit": false,
      "t": 191312.50000000035,
      "d": 500,
      "v": 91
    },
    {
      "midi": 41,
      "hit": false,
      "t": 191729.16666666704,
      "d": 416.66666666665697,
      "v": 76
    },
    {
      "midi": 70,
      "hit": false,
      "t": 192151.04166666704,
      "d": 458.33333333334303,
      "v": 94
    },
    {
      "midi": 63,
      "hit": false,
      "t": 192151.04166666704,
      "d": 541.666666666657,
      "v": 82
    },
    {
      "midi": 39,
      "hit": false,
      "t": 192151.04166666704,
      "d": 1125,
      "v": 102
    },
    {
      "midi": 67,
      "hit": false,
      "t": 192156.25000000038,
      "d": 463.54166666665697,
      "v": 92
    },
    {
      "midi": 70,
      "hit": false,
      "t": 192989.5833333337,
      "d": 343.75,
      "v": 91
    },
    {
      "midi": 67,
      "hit": false,
      "t": 192989.5833333337,
      "d": 364.58333333334303,
      "v": 96
    },
    {
      "midi": 63,
      "hit": false,
      "t": 192994.79166666704,
      "d": 505.20833333331393,
      "v": 78
    },
    {
      "midi": 39,
      "hit": false,
      "t": 193411.4583333337,
      "d": 380.20833333331393,
      "v": 91
    },
    {
      "midi": 70,
      "hit": false,
      "t": 193833.33333333366,
      "d": 369.79166666668607,
      "v": 100
    },
    {
      "midi": 58,
      "hit": false,
      "t": 193833.33333333366,
      "d": 385.41666666668607,
      "v": 98
    },
    {
      "midi": 62,
      "hit": false,
      "t": 193833.33333333366,
      "d": 385.41666666668607,
      "v": 88
    },
    {
      "midi": 65,
      "hit": false,
      "t": 193833.33333333366,
      "d": 395.83333333334303,
      "v": 94
    },
    {
      "midi": 46,
      "hit": false,
      "t": 193833.33333333366,
      "d": 541.6666666666861,
      "v": 104
    },
    {
      "midi": 60,
      "hit": false,
      "t": 194677.08333333366,
      "d": 401.04166666665697,
      "v": 104
    },
    {
      "midi": 65,
      "hit": false,
      "t": 194677.08333333366,
      "d": 442.70833333331393,
      "v": 96
    },
    {
      "midi": 69,
      "hit": false,
      "t": 194682.291666667,
      "d": 395.83333333331393,
      "v": 94
    },
    {
      "midi": 45,
      "hit": false,
      "t": 194682.291666667,
      "d": 406.2499999999709,
      "v": 104
    },
    {
      "midi": 70,
      "hit": false,
      "t": 195520.83333333366,
      "d": 526.041666666657,
      "v": 89
    },
    {
      "midi": 65,
      "hit": false,
      "t": 195520.83333333366,
      "d": 557.291666666657,
      "v": 97
    },
    {
      "midi": 67,
      "hit": false,
      "t": 195520.83333333366,
      "d": 557.291666666657,
      "v": 94
    },
    {
      "midi": 62,
      "hit": false,
      "t": 195520.83333333366,
      "d": 598.9583333333139,
      "v": 90
    },
    {
      "midi": 43,
      "hit": false,
      "t": 195520.83333333366,
      "d": 1140.624999999971,
      "v": 94
    },
    {
      "midi": 55,
      "hit": false,
      "t": 195520.83333333366,
      "d": 1281.249999999971,
      "v": 90
    },
    {
      "midi": 65,
      "hit": false,
      "t": 196364.58333333363,
      "d": 411.45833333334303,
      "v": 96
    },
    {
      "midi": 62,
      "hit": false,
      "t": 196369.79166666698,
      "d": 401.04166666665697,
      "v": 86
    },
    {
      "midi": 67,
      "hit": false,
      "t": 196369.79166666698,
      "d": 421.875,
      "v": 91
    },
    {
      "midi": 70,
      "hit": false,
      "t": 196369.79166666698,
      "d": 510.41666666665697,
      "v": 86
    },
    {
      "midi": 43,
      "hit": false,
      "t": 196786.45833333363,
      "d": 161.45833333334303,
      "v": 87
    },
    {
      "midi": 67,
      "hit": false,
      "t": 197203.1250000003,
      "d": 479.16666666665697,
      "v": 103
    },
    {
      "midi": 70,
      "hit": false,
      "t": 197203.1250000003,
      "d": 479.16666666665697,
      "v": 96
    },
    {
      "midi": 63,
      "hit": false,
      "t": 197203.1250000003,
      "d": 546.875,
      "v": 100
    },
    {
      "midi": 39,
      "hit": false,
      "t": 197203.1250000003,
      "d": 1276.041666666686,
      "v": 94
    },
    {
      "midi": 67,
      "hit": false,
      "t": 198036.45833333363,
      "d": 375,
      "v": 96
    },
    {
      "midi": 70,
      "hit": false,
      "t": 198036.45833333363,
      "d": 406.25,
      "v": 92
    },
    {
      "midi": 63,
      "hit": false,
      "t": 198036.45833333363,
      "d": 411.45833333334303,
      "v": 94
    },
    {
      "midi": 51,
      "hit": false,
      "t": 198458.33333333363,
      "d": 88.54166666668607,
      "v": 92
    },
    {
      "midi": 53,
      "hit": false,
      "t": 198869.791666667,
      "d": 1296.875000000029,
      "v": 81
    },
    {
      "midi": 65,
      "hit": false,
      "t": 198875.00000000035,
      "d": 500,
      "v": 101
    },
    {
      "midi": 69,
      "hit": false,
      "t": 198875.00000000035,
      "d": 546.875,
      "v": 90
    },
    {
      "midi": 60,
      "hit": false,
      "t": 198875.00000000035,
      "d": 562.5,
      "v": 97
    },
    {
      "midi": 41,
      "hit": false,
      "t": 198875.00000000035,
      "d": 1072.916666666657,
      "v": 83
    },
    {
      "midi": 60,
      "hit": false,
      "t": 199718.75000000035,
      "d": 421.875,
      "v": 94
    },
    {
      "midi": 69,
      "hit": false,
      "t": 199718.75000000035,
      "d": 427.08333333334303,
      "v": 91
    },
    {
      "midi": 65,
      "hit": false,
      "t": 199718.75000000035,
      "d": 453.1250000000291,
      "v": 99
    },
    {
      "midi": 41,
      "hit": false,
      "t": 200140.62500000035,
      "d": 244.79166666668607,
      "v": 81
    },
    {
      "midi": 70,
      "hit": false,
      "t": 200552.08333333372,
      "d": 505.20833333334303,
      "v": 102
    },
    {
      "midi": 46,
      "hit": false,
      "t": 200552.08333333372,
      "d": 843.7500000000291,
      "v": 104
    },
    {
      "midi": 65,
      "hit": false,
      "t": 200557.29166666706,
      "d": 510.41666666665697,
      "v": 99
    },
    {
      "midi": 62,
      "hit": false,
      "t": 200557.29166666706,
      "d": 557.291666666657,
      "v": 83
    },
    {
      "midi": 45,
      "hit": false,
      "t": 201390.6250000004,
      "d": 411.45833333334303,
      "v": 92
    },
    {
      "midi": 60,
      "hit": false,
      "t": 201395.83333333375,
      "d": 416.66666666665697,
      "v": 101
    },
    {
      "midi": 69,
      "hit": false,
      "t": 201395.83333333375,
      "d": 432.29166666665697,
      "v": 97
    },
    {
      "midi": 65,
      "hit": false,
      "t": 201395.83333333375,
      "d": 442.70833333331393,
      "v": 99
    },
    {
      "midi": 65,
      "hit": false,
      "t": 202229.16666666706,
      "d": 484.375,
      "v": 96
    },
    {
      "midi": 70,
      "hit": false,
      "t": 202229.16666666706,
      "d": 510.41666666665697,
      "v": 83
    },
    {
      "midi": 43,
      "hit": false,
      "t": 202229.16666666706,
      "d": 1161.458333333314,
      "v": 86
    },
    {
      "midi": 55,
      "hit": false,
      "t": 202229.16666666706,
      "d": 1374.999999999971,
      "v": 85
    },
    {
      "midi": 67,
      "hit": false,
      "t": 202234.3750000004,
      "d": 489.58333333331393,
      "v": 91
    },
    {
      "midi": 62,
      "hit": false,
      "t": 202234.3750000004,
      "d": 562.4999999999709,
      "v": 83
    },
    {
      "midi": 65,
      "hit": false,
      "t": 203072.91666666704,
      "d": 510.41666666665697,
      "v": 92
    },
    {
      "midi": 67,
      "hit": false,
      "t": 203072.91666666704,
      "d": 515.625,
      "v": 88
    },
    {
      "midi": 70,
      "hit": false,
      "t": 203072.91666666704,
      "d": 520.833333333343,
      "v": 82
    },
    {
      "midi": 62,
      "hit": false,
      "t": 203072.91666666704,
      "d": 578.125,
      "v": 86
    },
    {
      "midi": 43,
      "hit": false,
      "t": 203494.79166666704,
      "d": 177.08333333334303,
      "v": 90
    },
    {
      "midi": 53,
      "hit": false,
      "t": 203911.4583333337,
      "d": 1328.125000000029,
      "v": 86
    },
    {
      "midi": 69,
      "hit": false,
      "t": 203916.66666666704,
      "d": 489.58333333334303,
      "v": 85
    },
    {
      "midi": 65,
      "hit": false,
      "t": 203916.66666666704,
      "d": 541.6666666666861,
      "v": 97
    },
    {
      "midi": 60,
      "hit": false,
      "t": 203916.66666666704,
      "d": 557.2916666666861,
      "v": 97
    },
    {
      "midi": 41,
      "hit": false,
      "t": 203916.66666666704,
      "d": 1161.458333333343,
      "v": 79
    },
    {
      "midi": 60,
      "hit": false,
      "t": 204750.00000000038,
      "d": 822.9166666666861,
      "v": 86
    },
    {
      "midi": 65,
      "hit": false,
      "t": 204750.00000000038,
      "d": 848.9583333333721,
      "v": 96
    },
    {
      "midi": 69,
      "hit": false,
      "t": 204750.00000000038,
      "d": 848.9583333333721,
      "v": 94
    },
    {
      "midi": 41,
      "hit": false,
      "t": 205177.08333333372,
      "d": 421.8750000000291,
      "v": 80
    },
    {
      "midi": 67,
      "hit": false,
      "t": 205604.1666666671,
      "d": 468.75,
      "v": 86
    },
    {
      "midi": 63,
      "hit": false,
      "t": 205604.1666666671,
      "d": 479.16666666665697,
      "v": 92
    },
    {
      "midi": 70,
      "hit": false,
      "t": 205604.1666666671,
      "d": 494.79166666665697,
      "v": 100
    },
    {
      "midi": 58,
      "hit": false,
      "t": 205604.1666666671,
      "d": 572.916666666657,
      "v": 102
    },
    {
      "midi": 39,
      "hit": false,
      "t": 205604.1666666671,
      "d": 1166.666666666657,
      "v": 89
    },
    {
      "midi": 51,
      "hit": false,
      "t": 205604.1666666671,
      "d": 1385.416666666657,
      "v": 80
    },
    {
      "midi": 67,
      "hit": false,
      "t": 206442.70833333375,
      "d": 328.125,
      "v": 86
    },
    {
      "midi": 70,
      "hit": false,
      "t": 206442.70833333375,
      "d": 364.58333333334303,
      "v": 82
    },
    {
      "midi": 63,
      "hit": false,
      "t": 206442.70833333375,
      "d": 390.625,
      "v": 84
    },
    {
      "midi": 58,
      "hit": false,
      "t": 206442.70833333375,
      "d": 447.91666666665697,
      "v": 98
    },
    {
      "midi": 39,
      "hit": false,
      "t": 206864.58333333375,
      "d": 197.91666666665697,
      "v": 78
    },
    {
      "midi": 58,
      "hit": false,
      "t": 207281.2500000004,
      "d": 437.5,
      "v": 102
    },
    {
      "midi": 46,
      "hit": false,
      "t": 207281.2500000004,
      "d": 807.291666666657,
      "v": 104
    },
    {
      "midi": 70,
      "hit": false,
      "t": 207286.45833333375,
      "d": 421.875,
      "v": 91
    },
    {
      "midi": 62,
      "hit": false,
      "t": 207286.45833333375,
      "d": 432.29166666665697,
      "v": 90
    },
    {
      "midi": 65,
      "hit": false,
      "t": 207286.45833333375,
      "d": 505.20833333331393,
      "v": 91
    },
    {
      "midi": 45,
      "hit": false,
      "t": 208125.0000000004,
      "d": 401.04166666665697,
      "v": 101
    },
    {
      "midi": 60,
      "hit": false,
      "t": 208125.0000000004,
      "d": 406.25,
      "v": 97
    },
    {
      "midi": 65,
      "hit": false,
      "t": 208125.0000000004,
      "d": 479.16666666665697,
      "v": 103
    },
    {
      "midi": 69,
      "hit": false,
      "t": 208130.20833333375,
      "d": 432.29166666665697,
      "v": 99
    },
    {
      "midi": 70,
      "hit": false,
      "t": 208968.75000000038,
      "d": 593.75,
      "v": 92
    },
    {
      "midi": 65,
      "hit": false,
      "t": 208968.75000000038,
      "d": 645.833333333343,
      "v": 99
    },
    {
      "midi": 43,
      "hit": false,
      "t": 208968.75000000038,
      "d": 1244.791666666657,
      "v": 88
    },
    {
      "midi": 67,
      "hit": false,
      "t": 208973.95833333372,
      "d": 588.541666666657,
      "v": 96
    },
    {
      "midi": 62,
      "hit": false,
      "t": 208973.95833333372,
      "d": 651.041666666657,
      "v": 94
    },
    {
      "midi": 65,
      "hit": false,
      "t": 209812.50000000038,
      "d": 416.66666666665697,
      "v": 99
    },
    {
      "midi": 62,
      "hit": false,
      "t": 209812.50000000038,
      "d": 427.08333333331393,
      "v": 86
    },
    {
      "midi": 67,
      "hit": false,
      "t": 209812.50000000038,
      "d": 437.4999999999709,
      "v": 91
    },
    {
      "midi": 70,
      "hit": false,
      "t": 209812.50000000038,
      "d": 510.41666666662786,
      "v": 89
    },
    {
      "midi": 55,
      "hit": false,
      "t": 210229.16666666704,
      "d": 130.20833333331393,
      "v": 97
    },
    {
      "midi": 63,
      "hit": false,
      "t": 210645.83333333366,
      "d": 817.708333333343,
      "v": 91
    },
    {
      "midi": 67,
      "hit": false,
      "t": 210645.83333333366,
      "d": 817.708333333343,
      "v": 92
    },
    {
      "midi": 70,
      "hit": false,
      "t": 210645.83333333366,
      "d": 817.708333333343,
      "v": 83
    },
    {
      "midi": 75,
      "hit": false,
      "t": 210645.83333333366,
      "d": 817.708333333343,
      "v": 89
    },
    {
      "midi": 39,
      "hit": false,
      "t": 210645.83333333366,
      "d": 1093.75,
      "v": 98
    },
    {
      "midi": 51,
      "hit": false,
      "t": 211057.291666667,
      "d": 406.25,
      "v": 75
    },
    {
      "midi": 63,
      "hit": false,
      "t": 211479.166666667,
      "d": 817.7083333333139,
      "v": 100
    },
    {
      "midi": 67,
      "hit": false,
      "t": 211479.166666667,
      "d": 822.916666666657,
      "v": 96
    },
    {
      "midi": 70,
      "hit": false,
      "t": 211479.166666667,
      "d": 822.916666666657,
      "v": 92
    },
    {
      "midi": 39,
      "hit": false,
      "t": 211895.83333333366,
      "d": 411.45833333334303,
      "v": 86
    },
    {
      "midi": 69,
      "hit": false,
      "t": 212312.50000000035,
      "d": 552.0833333333139,
      "v": 97
    },
    {
      "midi": 65,
      "hit": false,
      "t": 212312.50000000035,
      "d": 593.7499999999709,
      "v": 96
    },
    {
      "midi": 60,
      "hit": false,
      "t": 212312.50000000035,
      "d": 661.4583333333139,
      "v": 103
    },
    {
      "midi": 41,
      "hit": false,
      "t": 212312.50000000035,
      "d": 1473.958333333314,
      "v": 75
    },
    {
      "midi": 60,
      "hit": false,
      "t": 213151.041666667,
      "d": 453.125,
      "v": 101
    },
    {
      "midi": 69,
      "hit": false,
      "t": 213151.041666667,
      "d": 479.16666666665697,
      "v": 91
    },
    {
      "midi": 65,
      "hit": false,
      "t": 213151.041666667,
      "d": 489.58333333331393,
      "v": 88
    },
    {
      "midi": 53,
      "hit": false,
      "t": 213572.916666667,
      "d": 354.16666666665697,
      "v": 104
    },
    {
      "midi": 70,
      "hit": false,
      "t": 213989.58333333366,
      "d": 500,
      "v": 104
    },
    {
      "midi": 65,
      "hit": false,
      "t": 213989.58333333366,
      "d": 520.833333333343,
      "v": 92
    },
    {
      "midi": 46,
      "hit": false,
      "t": 213989.58333333366,
      "d": 864.5833333333139,
      "v": 104
    },
    {
      "midi": 62,
      "hit": false,
      "t": 213994.791666667,
      "d": 588.541666666657,
      "v": 75
    },
    {
      "midi": 45,
      "hit": false,
      "t": 214822.91666666698,
      "d": 411.45833333334303,
      "v": 99
    },
    {
      "midi": 69,
      "hit": false,
      "t": 214822.91666666698,
      "d": 416.66666666668607,
      "v": 104
    },
    {
      "midi": 65,
      "hit": false,
      "t": 214822.91666666698,
      "d": 489.58333333334303,
      "v": 104
    },
    {
      "midi": 60,
      "hit": false,
      "t": 214828.12500000032,
      "d": 390.625,
      "v": 101
    },
    {
      "midi": 70,
      "hit": false,
      "t": 215661.45833333366,
      "d": 515.6250000000291,
      "v": 89
    },
    {
      "midi": 43,
      "hit": false,
      "t": 215661.45833333366,
      "d": 1187.500000000029,
      "v": 83
    },
    {
      "midi": 65,
      "hit": false,
      "t": 215666.666666667,
      "d": 505.20833333334303,
      "v": 99
    },
    {
      "midi": 67,
      "hit": false,
      "t": 215666.666666667,
      "d": 520.833333333343,
      "v": 91
    },
    {
      "midi": 62,
      "hit": false,
      "t": 215666.666666667,
      "d": 572.9166666666861,
      "v": 91
    },
    {
      "midi": 55,
      "hit": false,
      "t": 215666.666666667,
      "d": 1328.125,
      "v": 75
    },
    {
      "midi": 70,
      "hit": false,
      "t": 216500.00000000035,
      "d": 494.79166666665697,
      "v": 75
    },
    {
      "midi": 65,
      "hit": false,
      "t": 216500.00000000035,
      "d": 505.20833333331393,
      "v": 97
    },
    {
      "midi": 67,
      "hit": false,
      "t": 216500.00000000035,
      "d": 505.20833333331393,
      "v": 88
    },
    {
      "midi": 62,
      "hit": false,
      "t": 216505.2083333337,
      "d": 562.4999999999709,
      "v": 88
    },
    {
      "midi": 43,
      "hit": false,
      "t": 216921.87500000035,
      "d": 364.58333333331393,
      "v": 81
    },
    {
      "midi": 69,
      "hit": false,
      "t": 217338.541666667,
      "d": 562.4999999999709,
      "v": 92
    },
    {
      "midi": 65,
      "hit": false,
      "t": 217338.541666667,
      "d": 583.3333333333139,
      "v": 103
    },
    {
      "midi": 60,
      "hit": false,
      "t": 217338.541666667,
      "d": 604.166666666657,
      "v": 96
    },
    {
      "midi": 41,
      "hit": false,
      "t": 217338.541666667,
      "d": 1114.583333333314,
      "v": 91
    },
    {
      "midi": 53,
      "hit": false,
      "t": 217750.00000000032,
      "d": 916.6666666666279,
      "v": 75
    },
    {
      "midi": 60,
      "hit": false,
      "t": 218171.87500000032,
      "d": 427.08333333331393,
      "v": 92
    },
    {
      "midi": 65,
      "hit": false,
      "t": 218171.87500000032,
      "d": 427.08333333331393,
      "v": 85
    },
    {
      "midi": 69,
      "hit": false,
      "t": 218171.87500000032,
      "d": 453.1249999999709,
      "v": 88
    },
    {
      "midi": 41,
      "hit": false,
      "t": 218588.54166666698,
      "d": 156.2499999999709,
      "v": 81
    },
    {
      "midi": 67,
      "hit": false,
      "t": 219010.41666666695,
      "d": 484.375,
      "v": 96
    },
    {
      "midi": 70,
      "hit": false,
      "t": 219010.41666666695,
      "d": 526.041666666657,
      "v": 89
    },
    {
      "midi": 63,
      "hit": false,
      "t": 219010.41666666695,
      "d": 531.25,
      "v": 102
    },
    {
      "midi": 39,
      "hit": false,
      "t": 219010.41666666695,
      "d": 1109.375,
      "v": 89
    },
    {
      "midi": 51,
      "hit": false,
      "t": 219421.8750000003,
      "d": 807.291666666657,
      "v": 75
    },
    {
      "midi": 67,
      "hit": false,
      "t": 219843.7500000003,
      "d": 354.16666666665697,
      "v": 92
    },
    {
      "midi": 70,
      "hit": false,
      "t": 219843.7500000003,
      "d": 380.20833333331393,
      "v": 89
    },
    {
      "midi": 63,
      "hit": false,
      "t": 219843.7500000003,
      "d": 406.25,
      "v": 94
    },
    {
      "midi": 39,
      "hit": false,
      "t": 220260.41666666695,
      "d": 302.08333333334303,
      "v": 80
    },
    {
      "midi": 70,
      "hit": false,
      "t": 220677.0833333336,
      "d": 546.875,
      "v": 104
    },
    {
      "midi": 65,
      "hit": false,
      "t": 220677.0833333336,
      "d": 588.541666666657,
      "v": 92
    },
    {
      "midi": 62,
      "hit": false,
      "t": 220682.29166666695,
      "d": 614.5833333333139,
      "v": 90
    },
    {
      "midi": 46,
      "hit": false,
      "t": 220682.29166666695,
      "d": 838.5416666666279,
      "v": 100
    },
    {
      "midi": 65,
      "hit": false,
      "t": 221520.83333333358,
      "d": 510.41666666665697,
      "v": 97
    },
    {
      "midi": 60,
      "hit": false,
      "t": 221526.04166666692,
      "d": 432.29166666665697,
      "v": 88
    },
    {
      "midi": 69,
      "hit": false,
      "t": 221526.04166666692,
      "d": 432.29166666665697,
      "v": 104
    },
    {
      "midi": 45,
      "hit": false,
      "t": 221526.04166666692,
      "d": 458.33333333331393,
      "v": 104
    },
    {
      "midi": 65,
      "hit": false,
      "t": 222364.58333333355,
      "d": 541.666666666657,
      "v": 101
    },
    {
      "midi": 43,
      "hit": false,
      "t": 222364.58333333355,
      "d": 1130.208333333343,
      "v": 81
    },
    {
      "midi": 55,
      "hit": false,
      "t": 222364.58333333355,
      "d": 1333.3333333333721,
      "v": 87
    },
    {
      "midi": 70,
      "hit": false,
      "t": 222369.7916666669,
      "d": 505.20833333331393,
      "v": 92
    },
    {
      "midi": 67,
      "hit": false,
      "t": 222369.7916666669,
      "d": 515.6249999999709,
      "v": 94
    },
    {
      "midi": 62,
      "hit": false,
      "t": 222369.7916666669,
      "d": 598.9583333333139,
      "v": 90
    },
    {
      "midi": 65,
      "hit": false,
      "t": 223203.1250000002,
      "d": 427.08333333337214,
      "v": 96
    },
    {
      "midi": 67,
      "hit": false,
      "t": 223203.1250000002,
      "d": 453.1250000000582,
      "v": 90
    },
    {
      "midi": 70,
      "hit": false,
      "t": 223203.1250000002,
      "d": 510.4166666667152,
      "v": 91
    },
    {
      "midi": 62,
      "hit": false,
      "t": 223208.33333333355,
      "d": 427.08333333337214,
      "v": 91
    },
    {
      "midi": 43,
      "hit": false,
      "t": 223625.00000000023,
      "d": 156.2500000000291,
      "v": 86
    },
    {
      "midi": 75,
      "hit": false,
      "t": 224036.4583333336,
      "d": 541.6666666666861,
      "v": 86
    },
    {
      "midi": 70,
      "hit": false,
      "t": 224036.4583333336,
      "d": 546.8750000000291,
      "v": 84
    },
    {
      "midi": 63,
      "hit": false,
      "t": 224036.4583333336,
      "d": 625.0000000000291,
      "v": 91
    },
    {
      "midi": 67,
      "hit": false,
      "t": 224041.66666666695,
      "d": 520.833333333343,
      "v": 96
    },
    {
      "midi": 39,
      "hit": false,
      "t": 224041.66666666695,
      "d": 1125.000000000029,
      "v": 100
    },
    {
      "midi": 51,
      "hit": false,
      "t": 224453.1250000003,
      "d": 755.208333333343,
      "v": 75
    },
    {
      "midi": 70,
      "hit": false,
      "t": 224869.79166666698,
      "d": 364.58333333331393,
      "v": 86
    },
    {
      "midi": 67,
      "hit": false,
      "t": 224875.00000000032,
      "d": 265.625,
      "v": 94
    },
    {
      "midi": 63,
      "hit": false,
      "t": 224875.00000000032,
      "d": 333.33333333331393,
      "v": 89
    },
    {
      "midi": 75,
      "hit": false,
      "t": 224875.00000000032,
      "d": 348.95833333331393,
      "v": 84
    },
    {
      "midi": 39,
      "hit": false,
      "t": 225286.45833333363,
      "d": 171.875,
      "v": 91
    },
    {
      "midi": 65,
      "hit": false,
      "t": 225708.33333333363,
      "d": 604.1666666666861,
      "v": 99
    },
    {
      "midi": 69,
      "hit": false,
      "t": 225708.33333333363,
      "d": 614.583333333343,
      "v": 99
    },
    {
      "midi": 72,
      "hit": false,
      "t": 225708.33333333363,
      "d": 635.4166666666861,
      "v": 104
    },
    {
      "midi": 41,
      "hit": false,
      "t": 225708.33333333363,
      "d": 1000.0000000000291,
      "v": 85
    },
    {
      "midi": 53,
      "hit": false,
      "t": 226125.00000000032,
      "d": 796.875,
      "v": 75
    },
    {
      "midi": 69,
      "hit": false,
      "t": 226546.87500000032,
      "d": 562.5,
      "v": 90
    },
    {
      "midi": 65,
      "hit": false,
      "t": 226552.08333333366,
      "d": 515.625,
      "v": 82
    },
    {
      "midi": 72,
      "hit": false,
      "t": 226552.08333333366,
      "d": 583.3333333333139,
      "v": 96
    },
    {
      "midi": 41,
      "hit": false,
      "t": 226968.75000000032,
      "d": 286.45833333331393,
      "v": 75
    },
    {
      "midi": 53,
      "hit": false,
      "t": 226968.75000000032,
      "d": 307.29166666665697,
      "v": 103
    },
    {
      "midi": 46,
      "hit": false,
      "t": 227375.00000000032,
      "d": 833.333333333343,
      "v": 104
    },
    {
      "midi": 65,
      "hit": false,
      "t": 227375.00000000032,
      "d": 833.333333333343,
      "v": 94
    },
    {
      "midi": 70,
      "hit": false,
      "t": 227380.20833333366,
      "d": 828.125,
      "v": 104
    },
    {
      "midi": 74,
      "hit": false,
      "t": 227380.20833333366,
      "d": 828.125,
      "v": 92
    },
    {
      "midi": 69,
      "hit": false,
      "t": 228218.75000000032,
      "d": 447.91666666668607,
      "v": 99
    },
    {
      "midi": 45,
      "hit": false,
      "t": 228218.75000000032,
      "d": 531.2500000000291,
      "v": 94
    },
    {
      "midi": 72,
      "hit": false,
      "t": 228223.95833333366,
      "d": 473.95833333334303,
      "v": 104
    },
    {
      "midi": 65,
      "hit": false,
      "t": 228223.95833333366,
      "d": 526.0416666666861,
      "v": 99
    },
    {
      "midi": 57,
      "hit": false,
      "t": 228640.62500000035,
      "d": 88.54166666665697,
      "v": 94
    },
    {
      "midi": 43,
      "hit": false,
      "t": 229057.291666667,
      "d": 1005.208333333343,
      "v": 85
    },
    {
      "midi": 67,
      "hit": false,
      "t": 229062.50000000035,
      "d": 484.375,
      "v": 91
    },
    {
      "midi": 70,
      "hit": false,
      "t": 229062.50000000035,
      "d": 489.58333333334303,
      "v": 104
    },
    {
      "midi": 65,
      "hit": false,
      "t": 229062.50000000035,
      "d": 567.708333333343,
      "v": 90
    },
    {
      "midi": 55,
      "hit": false,
      "t": 229479.166666667,
      "d": 817.708333333343,
      "v": 75
    },
    {
      "midi": 67,
      "hit": false,
      "t": 229895.8333333337,
      "d": 442.70833333334303,
      "v": 97
    },
    {
      "midi": 70,
      "hit": false,
      "t": 229895.8333333337,
      "d": 458.33333333334303,
      "v": 89
    },
    {
      "midi": 65,
      "hit": false,
      "t": 229895.8333333337,
      "d": 536.458333333343,
      "v": 97
    },
    {
      "midi": 43,
      "hit": false,
      "t": 230317.7083333337,
      "d": 281.25,
      "v": 75
    },
    {
      "midi": 55,
      "hit": false,
      "t": 230317.7083333337,
      "d": 328.125,
      "v": 88
    },
    {
      "midi": 72,
      "hit": false,
      "t": 230729.16666666704,
      "d": 484.3750000000291,
      "v": 99
    },
    {
      "midi": 69,
      "hit": false,
      "t": 230729.16666666704,
      "d": 500.0000000000291,
      "v": 91
    },
    {
      "midi": 65,
      "hit": false,
      "t": 230729.16666666704,
      "d": 567.7083333333721,
      "v": 91
    },
    {
      "midi": 41,
      "hit": false,
      "t": 230729.16666666704,
      "d": 1078.125000000029,
      "v": 87
    },
    {
      "midi": 53,
      "hit": false,
      "t": 231145.83333333372,
      "d": 880.208333333343,
      "v": 75
    },
    {
      "midi": 69,
      "hit": false,
      "t": 231562.5000000004,
      "d": 432.29166666665697,
      "v": 99
    },
    {
      "midi": 65,
      "hit": false,
      "t": 231562.5000000004,
      "d": 447.91666666665697,
      "v": 88
    },
    {
      "midi": 72,
      "hit": false,
      "t": 231562.5000000004,
      "d": 447.91666666665697,
      "v": 91
    },
    {
      "midi": 41,
      "hit": false,
      "t": 231979.16666666706,
      "d": 125,
      "v": 75
    },
    {
      "midi": 75,
      "hit": false,
      "t": 232395.83333333375,
      "d": 479.16666666668607,
      "v": 87
    },
    {
      "midi": 63,
      "hit": false,
      "t": 232395.83333333375,
      "d": 578.1250000000291,
      "v": 104
    },
    {
      "midi": 39,
      "hit": false,
      "t": 232395.83333333375,
      "d": 1250,
      "v": 104
    },
    {
      "midi": 67,
      "hit": false,
      "t": 232401.0416666671,
      "d": 453.125,
      "v": 99
    },
    {
      "midi": 70,
      "hit": false,
      "t": 232401.0416666671,
      "d": 494.79166666668607,
      "v": 91
    },
    {
      "midi": 67,
      "hit": false,
      "t": 233234.37500000044,
      "d": 369.79166666665697,
      "v": 92
    },
    {
      "midi": 70,
      "hit": false,
      "t": 233234.37500000044,
      "d": 369.79166666665697,
      "v": 80
    },
    {
      "midi": 75,
      "hit": false,
      "t": 233234.37500000044,
      "d": 369.79166666665697,
      "v": 89
    },
    {
      "midi": 63,
      "hit": false,
      "t": 233234.37500000044,
      "d": 473.95833333331393,
      "v": 89
    },
    {
      "midi": 51,
      "hit": false,
      "t": 233645.83333333375,
      "d": 125,
      "v": 94
    },
    {
      "midi": 74,
      "hit": false,
      "t": 234072.9166666671,
      "d": 421.875,
      "v": 103
    },
    {
      "midi": 65,
      "hit": false,
      "t": 234072.9166666671,
      "d": 432.29166666665697,
      "v": 99
    },
    {
      "midi": 70,
      "hit": false,
      "t": 234072.9166666671,
      "d": 432.29166666665697,
      "v": 96
    },
    {
      "midi": 62,
      "hit": false,
      "t": 234072.9166666671,
      "d": 505.20833333331393,
      "v": 83
    },
    {
      "midi": 46,
      "hit": false,
      "t": 234072.9166666671,
      "d": 1026.041666666657,
      "v": 104
    },
    {
      "midi": 70,
      "hit": false,
      "t": 234906.2500000004,
      "d": 625.0000000000291,
      "v": 86
    },
    {
      "midi": 74,
      "hit": false,
      "t": 234911.45833333375,
      "d": 614.583333333343,
      "v": 90
    },
    {
      "midi": 65,
      "hit": false,
      "t": 234911.45833333375,
      "d": 651.0416666666861,
      "v": 101
    },
    {
      "midi": 62,
      "hit": false,
      "t": 234911.45833333375,
      "d": 692.708333333343,
      "v": 83
    },
    {
      "midi": 46,
      "hit": false,
      "t": 235333.33333333375,
      "d": 1369.7916666667152,
      "v": 91
    },
    {
      "midi": 74,
      "hit": false,
      "t": 235750.00000000044,
      "d": 520.833333333343,
      "v": 97
    },
    {
      "midi": 62,
      "hit": false,
      "t": 235750.00000000044,
      "d": 567.708333333343,
      "v": 82
    },
    {
      "midi": 65,
      "hit": false,
      "t": 235750.00000000044,
      "d": 567.708333333343,
      "v": 91
    },
    {
      "midi": 70,
      "hit": false,
      "t": 235750.00000000044,
      "d": 583.333333333343,
      "v": 79
    },
    {
      "midi": 58,
      "hit": false,
      "t": 236171.87500000044,
      "d": 859.3750000000291,
      "v": 104
    },
    {
      "midi": 74,
      "hit": false,
      "t": 236588.54166666712,
      "d": 411.45833333334303,
      "v": 85
    },
    {
      "midi": 70,
      "hit": false,
      "t": 236588.54166666712,
      "d": 473.95833333334303,
      "v": 82
    },
    {
      "midi": 62,
      "hit": false,
      "t": 236593.75000000047,
      "d": 479.16666666665697,
      "v": 81
    },
    {
      "midi": 65,
      "hit": false,
      "t": 236593.75000000047,
      "d": 479.16666666665697,
      "v": 91
    },
    {
      "midi": 46,
      "hit": false,
      "t": 237015.62500000047,
      "d": 354.16666666665697,
      "v": 104
    },
    {
      "midi": 65,
      "hit": false,
      "t": 237432.29166666712,
      "d": 838.541666666657,
      "v": 97
    },
    {
      "midi": 67,
      "hit": false,
      "t": 237432.29166666712,
      "d": 838.541666666657,
      "v": 90
    },
    {
      "midi": 72,
      "hit": false,
      "t": 237432.29166666712,
      "d": 838.541666666657,
      "v": 96
    },
    {
      "midi": 36,
      "hit": false,
      "t": 237432.29166666712,
      "d": 1145.833333333343,
      "v": 96
    },
    {
      "midi": 60,
      "hit": false,
      "t": 237437.50000000047,
      "d": 833.3333333333139,
      "v": 96
    },
    {
      "midi": 48,
      "hit": false,
      "t": 237854.16666666712,
      "d": 1260.416666666686,
      "v": 81
    },
    {
      "midi": 65,
      "hit": false,
      "t": 238270.83333333378,
      "d": 843.7500000000291,
      "v": 92
    },
    {
      "midi": 72,
      "hit": false,
      "t": 238276.04166666712,
      "d": 833.333333333343,
      "v": 92
    },
    {
      "midi": 60,
      "hit": false,
      "t": 238276.04166666712,
      "d": 838.5416666666861,
      "v": 83
    },
    {
      "midi": 67,
      "hit": false,
      "t": 238276.04166666712,
      "d": 838.5416666666861,
      "v": 85
    },
    {
      "midi": 36,
      "hit": false,
      "t": 238697.91666666712,
      "d": 411.45833333334303,
      "v": 83
    },
    {
      "midi": 60,
      "hit": false,
      "t": 239119.79166666715,
      "d": 708.333333333343,
      "v": 104
    },
    {
      "midi": 48,
      "hit": false,
      "t": 239119.79166666715,
      "d": 713.5416666666861,
      "v": 82
    },
    {
      "midi": 67,
      "hit": false,
      "t": 239119.79166666715,
      "d": 713.5416666666861,
      "v": 86
    },
    {
      "midi": 72,
      "hit": false,
      "t": 239125.0000000005,
      "d": 703.125,
      "v": 101
    },
    {
      "midi": 64,
      "hit": false,
      "t": 239125.0000000005,
      "d": 708.333333333343,
      "v": 86
    },
    {
      "midi": 47,
      "hit": false,
      "t": 239973.95833333384,
      "d": 708.333333333343,
      "v": 75
    },
    {
      "midi": 71,
      "hit": false,
      "t": 239979.16666666718,
      "d": 697.916666666657,
      "v": 97
    },
    {
      "midi": 59,
      "hit": false,
      "t": 239979.16666666718,
      "d": 703.125,
      "v": 90
    },
    {
      "midi": 62,
      "hit": false,
      "t": 239979.16666666718,
      "d": 703.125,
      "v": 84
    },
    {
      "midi": 67,
      "hit": false,
      "t": 239979.16666666718,
      "d": 703.125,
      "v": 88
    },
    {
      "midi": 64,
      "hit": false,
      "t": 240828.12500000052,
      "d": 796.875,
      "v": 94
    },
    {
      "midi": 67,
      "hit": false,
      "t": 240828.12500000052,
      "d": 796.875,
      "v": 99
    },
    {
      "midi": 69,
      "hit": false,
      "t": 240828.12500000052,
      "d": 796.875,
      "v": 94
    },
    {
      "midi": 72,
      "hit": false,
      "t": 240828.12500000052,
      "d": 796.875,
      "v": 91
    },
    {
      "midi": 69,
      "hit": false,
      "t": 241666.66666666718,
      "d": 796.875,
      "v": 94
    },
    {
      "midi": 57,
      "hit": false,
      "t": 241666.66666666718,
      "d": 802.083333333343,
      "v": 75
    },
    {
      "midi": 64,
      "hit": false,
      "t": 241666.66666666718,
      "d": 802.083333333343,
      "v": 85
    },
    {
      "midi": 67,
      "hit": false,
      "t": 241666.66666666718,
      "d": 802.083333333343,
      "v": 99
    },
    {
      "midi": 72,
      "hit": false,
      "t": 241666.66666666718,
      "d": 802.083333333343,
      "v": 89
    },
    {
      "midi": 45,
      "hit": false,
      "t": 242083.33333333384,
      "d": 380.20833333334303,
      "v": 82
    },
    {
      "midi": 72,
      "hit": false,
      "t": 242500.00000000052,
      "d": 437.5000000000291,
      "v": 91
    },
    {
      "midi": 65,
      "hit": false,
      "t": 242500.00000000052,
      "d": 515.6250000000291,
      "v": 100
    },
    {
      "midi": 69,
      "hit": false,
      "t": 242505.20833333387,
      "d": 437.5000000000291,
      "v": 97
    },
    {
      "midi": 41,
      "hit": false,
      "t": 242505.20833333387,
      "d": 1166.666666666686,
      "v": 98
    },
    {
      "midi": 53,
      "hit": false,
      "t": 242916.6666666672,
      "d": 854.1666666666861,
      "v": 94
    },
    {
      "midi": 69,
      "hit": false,
      "t": 243338.5416666672,
      "d": 442.70833333334303,
      "v": 94
    },
    {
      "midi": 72,
      "hit": false,
      "t": 243338.5416666672,
      "d": 453.125,
      "v": 89
    },
    {
      "midi": 65,
      "hit": false,
      "t": 243338.5416666672,
      "d": 484.375,
      "v": 84
    },
    {
      "midi": 41,
      "hit": false,
      "t": 243755.2083333339,
      "d": 265.6249999999709,
      "v": 87
    },
    {
      "midi": 71,
      "hit": false,
      "t": 244171.87500000055,
      "d": 515.6250000000291,
      "v": 86
    },
    {
      "midi": 67,
      "hit": false,
      "t": 244171.87500000055,
      "d": 526.0416666666861,
      "v": 96
    },
    {
      "midi": 43,
      "hit": false,
      "t": 244171.87500000055,
      "d": 1265.625,
      "v": 82
    },
    {
      "midi": 62,
      "hit": false,
      "t": 244177.0833333339,
      "d": 593.75,
      "v": 94
    },
    {
      "midi": 62,
      "hit": false,
      "t": 245015.62500000055,
      "d": 468.75,
      "v": 92
    },
    {
      "midi": 71,
      "hit": false,
      "t": 245015.62500000055,
      "d": 479.16666666665697,
      "v": 90
    },
    {
      "midi": 67,
      "hit": false,
      "t": 245015.62500000055,
      "d": 484.375,
      "v": 94
    },
    {
      "midi": 55,
      "hit": false,
      "t": 245437.50000000055,
      "d": 354.16666666665697,
      "v": 99
    },
    {
      "midi": 72,
      "hit": false,
      "t": 245848.95833333387,
      "d": 526.041666666657,
      "v": 104
    },
    {
      "midi": 67,
      "hit": false,
      "t": 245848.95833333387,
      "d": 536.4583333333139,
      "v": 101
    },
    {
      "midi": 48,
      "hit": false,
      "t": 245848.95833333387,
      "d": 812.4999999999709,
      "v": 104
    },
    {
      "midi": 64,
      "hit": false,
      "t": 245854.1666666672,
      "d": 593.7499999999709,
      "v": 92
    },
    {
      "midi": 47,
      "hit": false,
      "t": 246682.29166666718,
      "d": 463.5416666667152,
      "v": 99
    },
    {
      "midi": 62,
      "hit": false,
      "t": 246687.50000000052,
      "d": 416.66666666668607,
      "v": 104
    },
    {
      "midi": 71,
      "hit": false,
      "t": 246687.50000000052,
      "d": 421.8750000000291,
      "v": 101
    },
    {
      "midi": 67,
      "hit": false,
      "t": 246687.50000000052,
      "d": 484.3750000000291,
      "v": 99
    },
    {
      "midi": 67,
      "hit": false,
      "t": 247520.8333333339,
      "d": 526.041666666657,
      "v": 94
    },
    {
      "midi": 69,
      "hit": false,
      "t": 247520.8333333339,
      "d": 526.041666666657,
      "v": 91
    },
    {
      "midi": 72,
      "hit": false,
      "t": 247520.8333333339,
      "d": 531.25,
      "v": 87
    },
    {
      "midi": 64,
      "hit": false,
      "t": 247520.8333333339,
      "d": 609.375,
      "v": 86
    },
    {
      "midi": 45,
      "hit": false,
      "t": 247520.8333333339,
      "d": 1192.708333333343,
      "v": 90
    },
    {
      "midi": 57,
      "hit": false,
      "t": 247520.8333333339,
      "d": 1296.875,
      "v": 82
    },
    {
      "midi": 67,
      "hit": false,
      "t": 248364.5833333339,
      "d": 458.33333333334303,
      "v": 92
    },
    {
      "midi": 72,
      "hit": false,
      "t": 248364.5833333339,
      "d": 458.33333333334303,
      "v": 87
    },
    {
      "midi": 69,
      "hit": false,
      "t": 248364.5833333339,
      "d": 479.16666666668607,
      "v": 90
    },
    {
      "midi": 64,
      "hit": false,
      "t": 248364.5833333339,
      "d": 489.58333333334303,
      "v": 81
    },
    {
      "midi": 45,
      "hit": false,
      "t": 248786.4583333339,
      "d": 145.83333333334303,
      "v": 92
    },
    {
      "midi": 71,
      "hit": false,
      "t": 249197.91666666724,
      "d": 494.79166666665697,
      "v": 90
    },
    {
      "midi": 67,
      "hit": false,
      "t": 249197.91666666724,
      "d": 515.625,
      "v": 97
    },
    {
      "midi": 43,
      "hit": false,
      "t": 249197.91666666724,
      "d": 1197.916666666686,
      "v": 81
    },
    {
      "midi": 55,
      "hit": false,
      "t": 249197.91666666724,
      "d": 1286.458333333314,
      "v": 92
    },
    {
      "midi": 62,
      "hit": false,
      "t": 249203.12500000058,
      "d": 526.041666666657,
      "v": 101
    },
    {
      "midi": 67,
      "hit": false,
      "t": 250026.04166666724,
      "d": 432.29166666665697,
      "v": 91
    },
    {
      "midi": 62,
      "hit": false,
      "t": 250031.25000000058,
      "d": 406.25,
      "v": 92
    },
    {
      "midi": 71,
      "hit": false,
      "t": 250031.25000000058,
      "d": 494.79166666662786,
      "v": 91
    },
    {
      "midi": 43,
      "hit": false,
      "t": 250447.91666666724,
      "d": 411.45833333331393,
      "v": 76
    },
    {
      "midi": 41,
      "hit": false,
      "t": 250864.5833333339,
      "d": 1114.583333333343,
      "v": 102
    },
    {
      "midi": 72,
      "hit": false,
      "t": 250869.79166666724,
      "d": 453.125,
      "v": 94
    },
    {
      "midi": 69,
      "hit": false,
      "t": 250869.79166666724,
      "d": 458.33333333334303,
      "v": 92
    },
    {
      "midi": 65,
      "hit": false,
      "t": 250869.79166666724,
      "d": 536.458333333343,
      "v": 82
    },
    {
      "midi": 72,
      "hit": false,
      "t": 251697.91666666724,
      "d": 338.54166666665697,
      "v": 91
    },
    {
      "midi": 69,
      "hit": false,
      "t": 251697.91666666724,
      "d": 359.375,
      "v": 96
    },
    {
      "midi": 65,
      "hit": false,
      "t": 251697.91666666724,
      "d": 505.20833333331393,
      "v": 78
    },
    {
      "midi": 41,
      "hit": false,
      "t": 252114.5833333339,
      "d": 375,
      "v": 91
    },
    {
      "midi": 60,
      "hit": false,
      "t": 252531.25000000055,
      "d": 385.41666666668607,
      "v": 98
    },
    {
      "midi": 64,
      "hit": false,
      "t": 252531.25000000055,
      "d": 385.41666666668607,
      "v": 88
    },
    {
      "midi": 72,
      "hit": false,
      "t": 252536.4583333339,
      "d": 369.79166666668607,
      "v": 100
    },
    {
      "midi": 67,
      "hit": false,
      "t": 252536.4583333339,
      "d": 395.83333333334303,
      "v": 94
    },
    {
      "midi": 48,
      "hit": false,
      "t": 252536.4583333339,
      "d": 546.875,
      "v": 104
    },
    {
      "midi": 62,
      "hit": false,
      "t": 253380.2083333339,
      "d": 395.83333333334303,
      "v": 104
    },
    {
      "midi": 71,
      "hit": false,
      "t": 253380.2083333339,
      "d": 395.83333333334303,
      "v": 94
    },
    {
      "midi": 47,
      "hit": false,
      "t": 253380.2083333339,
      "d": 411.45833333334303,
      "v": 104
    },
    {
      "midi": 67,
      "hit": false,
      "t": 253380.2083333339,
      "d": 432.29166666668607,
      "v": 96
    },
    {
      "midi": 45,
      "hit": false,
      "t": 254223.95833333393,
      "d": 1130.208333333314,
      "v": 94
    },
    {
      "midi": 72,
      "hit": false,
      "t": 254229.16666666727,
      "d": 515.625,
      "v": 89
    },
    {
      "midi": 67,
      "hit": false,
      "t": 254229.16666666727,
      "d": 541.666666666657,
      "v": 97
    },
    {
      "midi": 69,
      "hit": false,
      "t": 254229.16666666727,
      "d": 541.666666666657,
      "v": 94
    },
    {
      "midi": 64,
      "hit": false,
      "t": 254229.16666666727,
      "d": 583.3333333333139,
      "v": 90
    },
    {
      "midi": 57,
      "hit": false,
      "t": 254229.16666666727,
      "d": 1270.833333333314,
      "v": 90
    },
    {
      "midi": 64,
      "hit": false,
      "t": 255062.50000000058,
      "d": 401.04166666665697,
      "v": 86
    },
    {
      "midi": 67,
      "hit": false,
      "t": 255062.50000000058,
      "d": 406.25,
      "v": 96
    },
    {
      "midi": 69,
      "hit": false,
      "t": 255062.50000000058,
      "d": 416.66666666665697,
      "v": 91
    },
    {
      "midi": 72,
      "hit": false,
      "t": 255062.50000000058,
      "d": 510.41666666665697,
      "v": 86
    },
    {
      "midi": 45,
      "hit": false,
      "t": 255479.16666666724,
      "d": 166.66666666665697,
      "v": 87
    },
    {
      "midi": 72,
      "hit": false,
      "t": 255895.8333333339,
      "d": 479.16666666665697,
      "v": 96
    },
    {
      "midi": 65,
      "hit": false,
      "t": 255895.8333333339,
      "d": 546.875,
      "v": 100
    },
    {
      "midi": 41,
      "hit": false,
      "t": 255895.8333333339,
      "d": 1276.041666666657,
      "v": 94
    },
    {
      "midi": 69,
      "hit": false,
      "t": 255901.04166666724,
      "d": 473.95833333331393,
      "v": 103
    },
    {
      "midi": 69,
      "hit": false,
      "t": 256729.16666666724,
      "d": 369.79166666665697,
      "v": 96
    },
    {
      "midi": 72,
      "hit": false,
      "t": 256729.16666666724,
      "d": 401.04166666665697,
      "v": 92
    },
    {
      "midi": 65,
      "hit": false,
      "t": 256729.16666666724,
      "d": 406.25,
      "v": 94
    },
    {
      "midi": 53,
      "hit": false,
      "t": 257145.8333333339,
      "d": 93.75,
      "v": 92
    },
    {
      "midi": 67,
      "hit": false,
      "t": 257562.50000000055,
      "d": 505.20833333331393,
      "v": 101
    },
    {
      "midi": 71,
      "hit": false,
      "t": 257562.50000000055,
      "d": 546.8749999999709,
      "v": 90
    },
    {
      "midi": 62,
      "hit": false,
      "t": 257562.50000000055,
      "d": 562.4999999999709,
      "v": 97
    },
    {
      "midi": 43,
      "hit": false,
      "t": 257562.50000000055,
      "d": 1072.916666666657,
      "v": 83
    },
    {
      "midi": 55,
      "hit": false,
      "t": 257562.50000000055,
      "d": 1291.666666666686,
      "v": 81
    },
    {
      "midi": 71,
      "hit": false,
      "t": 258406.25000000052,
      "d": 427.08333333337214,
      "v": 91
    },
    {
      "midi": 67,
      "hit": false,
      "t": 258406.25000000052,
      "d": 447.9166666667152,
      "v": 99
    },
    {
      "midi": 62,
      "hit": false,
      "t": 258411.45833333387,
      "d": 416.66666666668607,
      "v": 94
    },
    {
      "midi": 43,
      "hit": false,
      "t": 258828.12500000055,
      "d": 244.79166666668607,
      "v": 81
    },
    {
      "midi": 72,
      "hit": false,
      "t": 259239.5833333339,
      "d": 500,
      "v": 102
    },
    {
      "midi": 67,
      "hit": false,
      "t": 259239.5833333339,
      "d": 510.41666666665697,
      "v": 99
    },
    {
      "midi": 64,
      "hit": false,
      "t": 259239.5833333339,
      "d": 557.291666666657,
      "v": 83
    },
    {
      "midi": 48,
      "hit": false,
      "t": 259239.5833333339,
      "d": 843.75,
      "v": 104
    },
    {
      "midi": 47,
      "hit": false,
      "t": 260078.12500000055,
      "d": 406.2500000000291,
      "v": 92
    },
    {
      "midi": 62,
      "hit": false,
      "t": 260078.12500000055,
      "d": 421.8750000000291,
      "v": 101
    },
    {
      "midi": 71,
      "hit": false,
      "t": 260078.12500000055,
      "d": 432.29166666668607,
      "v": 97
    },
    {
      "midi": 67,
      "hit": false,
      "t": 260078.12500000055,
      "d": 442.70833333334303,
      "v": 99
    },
    {
      "midi": 67,
      "hit": false,
      "t": 260916.66666666724,
      "d": 479.16666666665697,
      "v": 96
    },
    {
      "midi": 69,
      "hit": false,
      "t": 260916.66666666724,
      "d": 489.58333333331393,
      "v": 91
    },
    {
      "midi": 72,
      "hit": false,
      "t": 260916.66666666724,
      "d": 505.20833333331393,
      "v": 83
    },
    {
      "midi": 64,
      "hit": false,
      "t": 260916.66666666724,
      "d": 562.4999999999709,
      "v": 83
    },
    {
      "midi": 45,
      "hit": false,
      "t": 260916.66666666724,
      "d": 1156.25,
      "v": 86
    },
    {
      "midi": 57,
      "hit": false,
      "t": 260916.66666666724,
      "d": 1364.583333333343,
      "v": 85
    },
    {
      "midi": 67,
      "hit": false,
      "t": 261750.00000000055,
      "d": 510.41666666665697,
      "v": 92
    },
    {
      "midi": 72,
      "hit": false,
      "t": 261750.00000000055,
      "d": 520.833333333343,
      "v": 82
    },
    {
      "midi": 69,
      "hit": false,
      "t": 261755.2083333339,
      "d": 515.625,
      "v": 88
    },
    {
      "midi": 64,
      "hit": false,
      "t": 261755.2083333339,
      "d": 578.125,
      "v": 86
    },
    {
      "midi": 45,
      "hit": false,
      "t": 262177.0833333339,
      "d": 182.29166666668607,
      "v": 90
    },
    {
      "midi": 71,
      "hit": false,
      "t": 262588.54166666727,
      "d": 489.58333333337214,
      "v": 85
    },
    {
      "midi": 67,
      "hit": false,
      "t": 262588.54166666727,
      "d": 546.8750000000582,
      "v": 97
    },
    {
      "midi": 62,
      "hit": false,
      "t": 262588.54166666727,
      "d": 557.2916666667443,
      "v": 97
    },
    {
      "midi": 43,
      "hit": false,
      "t": 262588.54166666727,
      "d": 1151.041666666686,
      "v": 79
    },
    {
      "midi": 55,
      "hit": false,
      "t": 262588.54166666727,
      "d": 1312.5,
      "v": 86
    },
    {
      "midi": 67,
      "hit": false,
      "t": 263416.6666666673,
      "d": 833.3333333332557,
      "v": 96
    },
    {
      "midi": 62,
      "hit": false,
      "t": 263421.87500000064,
      "d": 807.2916666666279,
      "v": 86
    },
    {
      "midi": 71,
      "hit": false,
      "t": 263421.87500000064,
      "d": 828.1249999999418,
      "v": 94
    },
    {
      "midi": 43,
      "hit": false,
      "t": 263838.54166666727,
      "d": 411.45833333331393,
      "v": 80
    },
    {
      "midi": 65,
      "hit": false,
      "t": 264255.2083333339,
      "d": 479.16666666662786,
      "v": 92
    },
    {
      "midi": 60,
      "hit": false,
      "t": 264255.2083333339,
      "d": 578.1249999999418,
      "v": 102
    },
    {
      "midi": 41,
      "hit": false,
      "t": 264255.2083333339,
      "d": 1156.2499999998836,
      "v": 89
    },
    {
      "midi": 69,
      "hit": false,
      "t": 264260.4166666672,
      "d": 468.75,
      "v": 86
    },
    {
      "midi": 72,
      "hit": false,
      "t": 264260.4166666672,
      "d": 494.79166666662786,
      "v": 100
    },
    {
      "midi": 53,
      "hit": false,
      "t": 264260.4166666672,
      "d": 1369.7916666666279,
      "v": 80
    },
    {
      "midi": 65,
      "hit": false,
      "t": 265088.54166666715,
      "d": 390.625,
      "v": 84
    },
    {
      "midi": 69,
      "hit": false,
      "t": 265093.75000000047,
      "d": 317.70833333331393,
      "v": 86
    },
    {
      "midi": 72,
      "hit": false,
      "t": 265093.75000000047,
      "d": 359.375,
      "v": 82
    },
    {
      "midi": 60,
      "hit": false,
      "t": 265093.75000000047,
      "d": 442.70833333337214,
      "v": 98
    },
    {
      "midi": 41,
      "hit": false,
      "t": 265510.41666666715,
      "d": 197.91666666668607,
      "v": 78
    },
    {
      "midi": 72,
      "hit": false,
      "t": 265927.08333333384,
      "d": 427.08333333331393,
      "v": 91
    },
    {
      "midi": 60,
      "hit": false,
      "t": 265927.08333333384,
      "d": 432.29166666662786,
      "v": 102
    },
    {
      "midi": 48,
      "hit": false,
      "t": 265927.08333333384,
      "d": 802.0833333333139,
      "v": 104
    },
    {
      "midi": 64,
      "hit": false,
      "t": 265932.29166666715,
      "d": 427.08333333331393,
      "v": 90
    },
    {
      "midi": 67,
      "hit": false,
      "t": 265932.29166666715,
      "d": 505.20833333331393,
      "v": 91
    },
    {
      "midi": 47,
      "hit": false,
      "t": 266770.83333333384,
      "d": 395.83333333337214,
      "v": 101
    },
    {
      "midi": 62,
      "hit": false,
      "t": 266770.83333333384,
      "d": 401.04166666668607,
      "v": 97
    },
    {
      "midi": 71,
      "hit": false,
      "t": 266770.83333333384,
      "d": 432.29166666668607,
      "v": 99
    },
    {
      "midi": 67,
      "hit": false,
      "t": 266770.83333333384,
      "d": 473.95833333337214,
      "v": 103
    }
  ]
}