{
  "jsonPath": "Rock/Indorock/The East  West Rockers/itll-be-me.json",
  "path": "Rock\\Indorock\\The East  West Rockers\\Itll Be Me.mid",
  "name": "Itll Be Me",
  "difficulty": "Advanced",
  "bpm": 120,
  "notes": [
    {
      "midi": 89,
      "hit": false,
      "t": 6402.179674999999,
      "d": 25.362341666666907,
      "v": 68
    },
    {
      "midi": 88,
      "hit": false,
      "t": 6434.7883999999995,
      "d": 25.362341666666907,
      "v": 77
    },
    {
      "midi": 86,
      "hit": false,
      "t": 6467.3971249999995,
      "d": 25.362341666666907,
      "v": 68
    },
    {
      "midi": 84,
      "hit": false,
      "t": 6496.382658333333,
      "d": 21.739150000000336,
      "v": 82
    },
    {
      "midi": 83,
      "hit": false,
      "t": 6539.860958333334,
      "d": 21.739149999999427,
      "v": 84
    },
    {
      "midi": 81,
      "hit": false,
      "t": 6550.730533333333,
      "d": 25.362341666665998,
      "v": 88
    },
    {
      "midi": 79,
      "hit": false,
      "t": 6568.846491666666,
      "d": 25.362341666665998,
      "v": 85
    },
    {
      "midi": 77,
      "hit": false,
      "t": 6590.585641666666,
      "d": 25.362341666666907,
      "v": 74
    },
    {
      "midi": 76,
      "hit": false,
      "t": 6619.571174999999,
      "d": 25.362341666666907,
      "v": 45
    },
    {
      "midi": 59,
      "hit": false,
      "t": 6956.527999999999,
      "d": 184.78277499999967,
      "v": 59
    },
    {
      "midi": 43,
      "hit": false,
      "t": 6956.527999999999,
      "d": 195.6523499999994,
      "v": 72
    },
    {
      "midi": 55,
      "hit": false,
      "t": 6956.527999999999,
      "d": 195.6523499999994,
      "v": 56
    },
    {
      "midi": 47,
      "hit": false,
      "t": 6956.527999999999,
      "d": 221.0146916666663,
      "v": 52
    },
    {
      "midi": 60,
      "hit": false,
      "t": 8695.66,
      "d": 123.18851666666706,
      "v": 72
    },
    {
      "midi": 55,
      "hit": false,
      "t": 8695.66,
      "d": 141.30447500000082,
      "v": 67
    },
    {
      "midi": 64,
      "hit": false,
      "t": 8695.66,
      "d": 155.7972416666671,
      "v": 70
    },
    {
      "midi": 48,
      "hit": false,
      "t": 8695.66,
      "d": 173.91320000000087,
      "v": 65
    },
    {
      "midi": 43,
      "hit": false,
      "t": 8695.66,
      "d": 333.33363333333546,
      "v": 54
    },
    {
      "midi": 60,
      "hit": false,
      "t": 8913.051500000001,
      "d": 79.71021666666638,
      "v": 46
    },
    {
      "midi": 48,
      "hit": false,
      "t": 8913.051500000001,
      "d": 83.33340833333386,
      "v": 75
    },
    {
      "midi": 55,
      "hit": false,
      "t": 8913.051500000001,
      "d": 86.95660000000134,
      "v": 60
    },
    {
      "midi": 64,
      "hit": false,
      "t": 8913.051500000001,
      "d": 101.44936666666763,
      "v": 63
    },
    {
      "midi": 70,
      "hit": false,
      "t": 8913.051500000001,
      "d": 268.11618333333354,
      "v": 63
    },
    {
      "midi": 43,
      "hit": false,
      "t": 9130.443000000001,
      "d": 97.82617500000015,
      "v": 51
    },
    {
      "midi": 48,
      "hit": false,
      "t": 9130.443000000001,
      "d": 119.56532499999958,
      "v": 69
    },
    {
      "midi": 55,
      "hit": false,
      "t": 9130.443000000001,
      "d": 123.18851666666706,
      "v": 55
    },
    {
      "midi": 64,
      "hit": false,
      "t": 9130.443000000001,
      "d": 152.17404999999962,
      "v": 60
    },
    {
      "midi": 60,
      "hit": false,
      "t": 9130.443000000001,
      "d": 163.04362500000025,
      "v": 63
    },
    {
      "midi": 60,
      "hit": false,
      "t": 9347.8345,
      "d": 130.4349000000002,
      "v": 62
    },
    {
      "midi": 55,
      "hit": false,
      "t": 9347.8345,
      "d": 144.92766666666648,
      "v": 49
    },
    {
      "midi": 64,
      "hit": false,
      "t": 9347.8345,
      "d": 163.04362500000025,
      "v": 60
    },
    {
      "midi": 70,
      "hit": false,
      "t": 9347.8345,
      "d": 264.49299166666606,
      "v": 55
    },
    {
      "midi": 48,
      "hit": false,
      "t": 9347.8345,
      "d": 311.5944833333324,
      "v": 61
    },
    {
      "midi": 43,
      "hit": false,
      "t": 9347.8345,
      "d": 322.464058333333,
      "v": 54
    },
    {
      "midi": 60,
      "hit": false,
      "t": 9565.226,
      "d": 123.18851666666706,
      "v": 56
    },
    {
      "midi": 55,
      "hit": false,
      "t": 9565.226,
      "d": 137.68128333333334,
      "v": 53
    },
    {
      "midi": 64,
      "hit": false,
      "t": 9565.226,
      "d": 163.04362500000025,
      "v": 60
    },
    {
      "midi": 43,
      "hit": false,
      "t": 9782.6175,
      "d": 76.08702500000072,
      "v": 45
    },
    {
      "midi": 48,
      "hit": false,
      "t": 9782.6175,
      "d": 83.33340833333386,
      "v": 49
    },
    {
      "midi": 60,
      "hit": false,
      "t": 9782.6175,
      "d": 108.69575000000077,
      "v": 56
    },
    {
      "midi": 55,
      "hit": false,
      "t": 9782.6175,
      "d": 115.94213333333391,
      "v": 52
    },
    {
      "midi": 64,
      "hit": false,
      "t": 9782.6175,
      "d": 141.30447500000082,
      "v": 51
    },
    {
      "midi": 70,
      "hit": false,
      "t": 9782.6175,
      "d": 260.8698000000022,
      "v": 49
    },
    {
      "midi": 60,
      "hit": false,
      "t": 10000.009000000002,
      "d": 105.07255833333329,
      "v": 53
    },
    {
      "midi": 55,
      "hit": false,
      "t": 10000.009000000002,
      "d": 108.69575000000077,
      "v": 50
    },
    {
      "midi": 64,
      "hit": false,
      "t": 10000.009000000002,
      "d": 130.4349000000002,
      "v": 46
    },
    {
      "midi": 48,
      "hit": false,
      "t": 10000.009000000002,
      "d": 141.30447500000082,
      "v": 74
    },
    {
      "midi": 43,
      "hit": false,
      "t": 10000.009000000002,
      "d": 326.0872500000023,
      "v": 46
    },
    {
      "midi": 48,
      "hit": false,
      "t": 10217.400500000003,
      "d": 76.08702500000072,
      "v": 58
    },
    {
      "midi": 60,
      "hit": false,
      "t": 10217.400500000003,
      "d": 112.31894166666825,
      "v": 62
    },
    {
      "midi": 70,
      "hit": false,
      "t": 10217.400500000003,
      "d": 282.60895000000164,
      "v": 46
    },
    {
      "midi": 64,
      "hit": false,
      "t": 10217.400500000003,
      "d": 293.47852500000226,
      "v": 57
    },
    {
      "midi": 55,
      "hit": false,
      "t": 10217.400500000003,
      "d": 387.68150833333675,
      "v": 58
    },
    {
      "midi": 60,
      "hit": false,
      "t": 10434.792000000005,
      "d": 152.17405000000144,
      "v": 45
    },
    {
      "midi": 48,
      "hit": false,
      "t": 10434.792000000005,
      "d": 163.04362500000207,
      "v": 66
    },
    {
      "midi": 43,
      "hit": false,
      "t": 10434.792000000005,
      "d": 293.47852500000226,
      "v": 46
    },
    {
      "midi": 48,
      "hit": false,
      "t": 10652.183500000006,
      "d": 76.08702500000072,
      "v": 53
    },
    {
      "midi": 60,
      "hit": false,
      "t": 10652.183500000006,
      "d": 119.5653250000014,
      "v": 56
    },
    {
      "midi": 55,
      "hit": false,
      "t": 10652.183500000006,
      "d": 137.68128333333516,
      "v": 56
    },
    {
      "midi": 64,
      "hit": false,
      "t": 10652.183500000006,
      "d": 141.30447500000264,
      "v": 59
    },
    {
      "midi": 70,
      "hit": false,
      "t": 10652.183500000006,
      "d": 253.6234166666709,
      "v": 47
    },
    {
      "midi": 43,
      "hit": false,
      "t": 10869.57500000001,
      "d": 94.20298333333449,
      "v": 46
    },
    {
      "midi": 60,
      "hit": false,
      "t": 10869.57500000001,
      "d": 101.44936666666763,
      "v": 54
    },
    {
      "midi": 55,
      "hit": false,
      "t": 10869.57500000001,
      "d": 105.07255833333511,
      "v": 56
    },
    {
      "midi": 64,
      "hit": false,
      "t": 10869.57500000001,
      "d": 115.94213333333573,
      "v": 60
    },
    {
      "midi": 48,
      "hit": false,
      "t": 10869.57500000001,
      "d": 163.04362500000207,
      "v": 72
    },
    {
      "midi": 48,
      "hit": false,
      "t": 11086.966500000011,
      "d": 83.33340833333386,
      "v": 63
    },
    {
      "midi": 70,
      "hit": false,
      "t": 11086.966500000011,
      "d": 297.1017166666661,
      "v": 49
    },
    {
      "midi": 55,
      "hit": false,
      "t": 11086.966500000011,
      "d": 318.84086666666553,
      "v": 54
    },
    {
      "midi": 64,
      "hit": false,
      "t": 11086.966500000011,
      "d": 318.84086666666553,
      "v": 65
    },
    {
      "midi": 60,
      "hit": false,
      "t": 11086.966500000011,
      "d": 329.71044166666616,
      "v": 56
    },
    {
      "midi": 43,
      "hit": false,
      "t": 11086.966500000011,
      "d": 355.07278333333306,
      "v": 50
    },
    {
      "midi": 48,
      "hit": false,
      "t": 11304.358000000011,
      "d": 152.17404999999962,
      "v": 61
    },
    {
      "midi": 48,
      "hit": false,
      "t": 11521.74950000001,
      "d": 83.33340833333386,
      "v": 68
    },
    {
      "midi": 43,
      "hit": false,
      "t": 11521.74950000001,
      "d": 94.20298333333449,
      "v": 49
    },
    {
      "midi": 70,
      "hit": false,
      "t": 11521.74950000001,
      "d": 94.20298333333449,
      "v": 52
    },
    {
      "midi": 60,
      "hit": false,
      "t": 11521.74950000001,
      "d": 115.94213333333391,
      "v": 45
    },
    {
      "midi": 55,
      "hit": false,
      "t": 11521.74950000001,
      "d": 141.30447500000082,
      "v": 49
    },
    {
      "midi": 64,
      "hit": false,
      "t": 11521.74950000001,
      "d": 159.42043333333459,
      "v": 53
    },
    {
      "midi": 70,
      "hit": false,
      "t": 11739.141000000012,
      "d": 72.46383333333324,
      "v": 64
    },
    {
      "midi": 55,
      "hit": false,
      "t": 11739.141000000012,
      "d": 119.56532499999958,
      "v": 64
    },
    {
      "midi": 48,
      "hit": false,
      "t": 11739.141000000012,
      "d": 141.304474999999,
      "v": 70
    },
    {
      "midi": 43,
      "hit": false,
      "t": 11739.141000000012,
      "d": 173.91319999999905,
      "v": 48
    },
    {
      "midi": 64,
      "hit": false,
      "t": 11739.141000000012,
      "d": 384.05831666666745,
      "v": 70
    },
    {
      "midi": 60,
      "hit": false,
      "t": 11739.141000000012,
      "d": 394.9278916666681,
      "v": 58
    },
    {
      "midi": 70,
      "hit": false,
      "t": 11956.532500000012,
      "d": 36.23191666666753,
      "v": 42
    },
    {
      "midi": 43,
      "hit": false,
      "t": 11956.532500000012,
      "d": 119.5653250000014,
      "v": 45
    },
    {
      "midi": 55,
      "hit": false,
      "t": 11956.532500000012,
      "d": 181.15958333333583,
      "v": 72
    },
    {
      "midi": 48,
      "hit": false,
      "t": 11956.532500000012,
      "d": 188.40596666666897,
      "v": 48
    },
    {
      "midi": 60,
      "hit": false,
      "t": 12173.924000000014,
      "d": 123.18851666666706,
      "v": 72
    },
    {
      "midi": 55,
      "hit": false,
      "t": 12173.924000000014,
      "d": 141.30447500000082,
      "v": 67
    },
    {
      "midi": 64,
      "hit": false,
      "t": 12173.924000000014,
      "d": 155.7972416666671,
      "v": 70
    },
    {
      "midi": 48,
      "hit": false,
      "t": 12173.924000000014,
      "d": 173.91320000000087,
      "v": 65
    },
    {
      "midi": 43,
      "hit": false,
      "t": 12173.924000000014,
      "d": 333.33363333333546,
      "v": 54
    },
    {
      "midi": 70,
      "hit": false,
      "t": 12391.315500000015,
      "d": 79.71021666666638,
      "v": 74
    },
    {
      "midi": 48,
      "hit": false,
      "t": 12391.315500000015,
      "d": 83.33340833333386,
      "v": 75
    },
    {
      "midi": 55,
      "hit": false,
      "t": 12391.315500000015,
      "d": 152.17405000000144,
      "v": 60
    },
    {
      "midi": 60,
      "hit": false,
      "t": 12391.315500000015,
      "d": 152.17405000000144,
      "v": 46
    },
    {
      "midi": 64,
      "hit": false,
      "t": 12391.315500000015,
      "d": 173.91320000000087,
      "v": 63
    },
    {
      "midi": 70,
      "hit": false,
      "t": 12608.707000000017,
      "d": 65.2174500000001,
      "v": 62
    },
    {
      "midi": 43,
      "hit": false,
      "t": 12608.707000000017,
      "d": 97.82617500000015,
      "v": 51
    },
    {
      "midi": 48,
      "hit": false,
      "t": 12608.707000000017,
      "d": 119.56532499999958,
      "v": 69
    },
    {
      "midi": 55,
      "hit": false,
      "t": 12608.707000000017,
      "d": 123.18851666666706,
      "v": 55
    },
    {
      "midi": 64,
      "hit": false,
      "t": 12608.707000000017,
      "d": 152.17404999999962,
      "v": 60
    },
    {
      "midi": 60,
      "hit": false,
      "t": 12608.707000000017,
      "d": 163.04362500000025,
      "v": 63
    },
    {
      "midi": 70,
      "hit": false,
      "t": 12826.098500000016,
      "d": 83.33340833333386,
      "v": 59
    },
    {
      "midi": 55,
      "hit": false,
      "t": 12826.098500000016,
      "d": 144.92766666666648,
      "v": 49
    },
    {
      "midi": 64,
      "hit": false,
      "t": 12826.098500000016,
      "d": 163.04362500000025,
      "v": 60
    },
    {
      "midi": 60,
      "hit": false,
      "t": 12826.098500000016,
      "d": 173.91320000000087,
      "v": 62
    },
    {
      "midi": 48,
      "hit": false,
      "t": 12826.098500000016,
      "d": 184.7827750000015,
      "v": 61
    },
    {
      "midi": 43,
      "hit": false,
      "t": 12826.098500000016,
      "d": 195.65235000000212,
      "v": 54
    },
    {
      "midi": 62,
      "hit": false,
      "t": 13043.490000000018,
      "d": 123.18851666666706,
      "v": 72
    },
    {
      "midi": 57,
      "hit": false,
      "t": 13043.490000000018,
      "d": 141.30447500000082,
      "v": 67
    },
    {
      "midi": 66,
      "hit": false,
      "t": 13043.490000000018,
      "d": 155.7972416666671,
      "v": 70
    },
    {
      "midi": 50,
      "hit": false,
      "t": 13043.490000000018,
      "d": 173.91320000000087,
      "v": 65
    },
    {
      "midi": 69,
      "hit": false,
      "t": 13043.490000000018,
      "d": 271.739375000001,
      "v": 75
    },
    {
      "midi": 45,
      "hit": false,
      "t": 13043.490000000018,
      "d": 333.33363333333546,
      "v": 54
    },
    {
      "midi": 62,
      "hit": false,
      "t": 13260.88150000002,
      "d": 79.71021666666638,
      "v": 46
    },
    {
      "midi": 50,
      "hit": false,
      "t": 13260.88150000002,
      "d": 83.33340833333386,
      "v": 75
    },
    {
      "midi": 57,
      "hit": false,
      "t": 13260.88150000002,
      "d": 86.95660000000134,
      "v": 60
    },
    {
      "midi": 66,
      "hit": false,
      "t": 13260.88150000002,
      "d": 101.44936666666763,
      "v": 63
    },
    {
      "midi": 45,
      "hit": false,
      "t": 13478.27300000002,
      "d": 97.82617500000015,
      "v": 51
    },
    {
      "midi": 50,
      "hit": false,
      "t": 13478.27300000002,
      "d": 119.56532499999958,
      "v": 69
    },
    {
      "midi": 57,
      "hit": false,
      "t": 13478.27300000002,
      "d": 123.18851666666706,
      "v": 55
    },
    {
      "midi": 66,
      "hit": false,
      "t": 13478.27300000002,
      "d": 152.17404999999962,
      "v": 60
    },
    {
      "midi": 62,
      "hit": false,
      "t": 13478.27300000002,
      "d": 163.04362500000025,
      "v": 63
    },
    {
      "midi": 69,
      "hit": false,
      "t": 13478.27300000002,
      "d": 376.8119333333325,
      "v": 55
    },
    {
      "midi": 62,
      "hit": false,
      "t": 13695.664500000019,
      "d": 130.4349000000002,
      "v": 62
    },
    {
      "midi": 57,
      "hit": false,
      "t": 13695.664500000019,
      "d": 144.92766666666648,
      "v": 49
    },
    {
      "midi": 66,
      "hit": false,
      "t": 13695.664500000019,
      "d": 163.04362500000025,
      "v": 60
    },
    {
      "midi": 50,
      "hit": false,
      "t": 13695.664500000019,
      "d": 311.5944833333324,
      "v": 61
    },
    {
      "midi": 45,
      "hit": false,
      "t": 13695.664500000019,
      "d": 322.464058333333,
      "v": 54
    },
    {
      "midi": 62,
      "hit": false,
      "t": 13913.056000000019,
      "d": 123.18851666666706,
      "v": 56
    },
    {
      "midi": 57,
      "hit": false,
      "t": 13913.056000000019,
      "d": 137.68128333333334,
      "v": 53
    },
    {
      "midi": 66,
      "hit": false,
      "t": 13913.056000000019,
      "d": 163.04362500000025,
      "v": 60
    },
    {
      "midi": 45,
      "hit": false,
      "t": 14130.447500000018,
      "d": 76.08702500000072,
      "v": 45
    },
    {
      "midi": 50,
      "hit": false,
      "t": 14130.447500000018,
      "d": 83.33340833333386,
      "v": 49
    },
    {
      "midi": 62,
      "hit": false,
      "t": 14130.447500000018,
      "d": 108.69575000000077,
      "v": 56
    },
    {
      "midi": 57,
      "hit": false,
      "t": 14130.447500000018,
      "d": 115.94213333333391,
      "v": 52
    },
    {
      "midi": 66,
      "hit": false,
      "t": 14130.447500000018,
      "d": 141.30447500000082,
      "v": 51
    },
    {
      "midi": 69,
      "hit": false,
      "t": 14130.447500000018,
      "d": 373.18874166666865,
      "v": 84
    },
    {
      "midi": 62,
      "hit": false,
      "t": 14347.83900000002,
      "d": 105.07255833333329,
      "v": 53
    },
    {
      "midi": 57,
      "hit": false,
      "t": 14347.83900000002,
      "d": 108.69575000000077,
      "v": 50
    },
    {
      "midi": 66,
      "hit": false,
      "t": 14347.83900000002,
      "d": 130.4349000000002,
      "v": 46
    },
    {
      "midi": 50,
      "hit": false,
      "t": 14347.83900000002,
      "d": 141.30447500000082,
      "v": 74
    },
    {
      "midi": 45,
      "hit": false,
      "t": 14347.83900000002,
      "d": 326.0872500000005,
      "v": 46
    },
    {
      "midi": 50,
      "hit": false,
      "t": 14565.23050000002,
      "d": 76.08702500000072,
      "v": 58
    },
    {
      "midi": 62,
      "hit": false,
      "t": 14565.23050000002,
      "d": 112.31894166666825,
      "v": 62
    },
    {
      "midi": 66,
      "hit": false,
      "t": 14565.23050000002,
      "d": 293.47852500000226,
      "v": 57
    },
    {
      "midi": 57,
      "hit": false,
      "t": 14565.23050000002,
      "d": 387.68150833333675,
      "v": 58
    },
    {
      "midi": 69,
      "hit": false,
      "t": 14565.23050000002,
      "d": 431.1598083333374,
      "v": 55
    },
    {
      "midi": 62,
      "hit": false,
      "t": 14782.622000000021,
      "d": 152.17405000000144,
      "v": 45
    },
    {
      "midi": 50,
      "hit": false,
      "t": 14782.622000000021,
      "d": 163.04362500000207,
      "v": 66
    },
    {
      "midi": 45,
      "hit": false,
      "t": 14782.622000000021,
      "d": 293.4785250000041,
      "v": 46
    },
    {
      "midi": 50,
      "hit": false,
      "t": 15000.013500000025,
      "d": 76.08702500000072,
      "v": 53
    },
    {
      "midi": 62,
      "hit": false,
      "t": 15000.013500000025,
      "d": 119.5653250000014,
      "v": 56
    },
    {
      "midi": 57,
      "hit": false,
      "t": 15000.013500000025,
      "d": 137.68128333333516,
      "v": 56
    },
    {
      "midi": 66,
      "hit": false,
      "t": 15000.013500000025,
      "d": 141.30447500000264,
      "v": 59
    },
    {
      "midi": 45,
      "hit": false,
      "t": 15217.405000000028,
      "d": 94.20298333333267,
      "v": 46
    },
    {
      "midi": 62,
      "hit": false,
      "t": 15217.405000000028,
      "d": 101.44936666666581,
      "v": 54
    },
    {
      "midi": 57,
      "hit": false,
      "t": 15217.405000000028,
      "d": 105.07255833333329,
      "v": 56
    },
    {
      "midi": 66,
      "hit": false,
      "t": 15217.405000000028,
      "d": 115.94213333333391,
      "v": 60
    },
    {
      "midi": 50,
      "hit": false,
      "t": 15217.405000000028,
      "d": 163.04362500000025,
      "v": 72
    },
    {
      "midi": 69,
      "hit": false,
      "t": 15217.405000000028,
      "d": 481.8844916666658,
      "v": 59
    },
    {
      "midi": 50,
      "hit": false,
      "t": 15434.796500000028,
      "d": 83.33340833333386,
      "v": 63
    },
    {
      "midi": 57,
      "hit": false,
      "t": 15434.796500000028,
      "d": 318.84086666666553,
      "v": 54
    },
    {
      "midi": 66,
      "hit": false,
      "t": 15434.796500000028,
      "d": 318.84086666666553,
      "v": 65
    },
    {
      "midi": 62,
      "hit": false,
      "t": 15434.796500000028,
      "d": 329.71044166666616,
      "v": 56
    },
    {
      "midi": 45,
      "hit": false,
      "t": 15434.796500000028,
      "d": 355.07278333333306,
      "v": 50
    },
    {
      "midi": 50,
      "hit": false,
      "t": 15652.188000000027,
      "d": 152.17404999999962,
      "v": 61
    },
    {
      "midi": 69,
      "hit": false,
      "t": 15869.579500000027,
      "d": 79.71021666666638,
      "v": 76
    },
    {
      "midi": 50,
      "hit": false,
      "t": 15869.579500000027,
      "d": 83.33340833333386,
      "v": 68
    },
    {
      "midi": 45,
      "hit": false,
      "t": 15869.579500000027,
      "d": 94.20298333333449,
      "v": 49
    },
    {
      "midi": 62,
      "hit": false,
      "t": 15869.579500000027,
      "d": 115.94213333333391,
      "v": 45
    },
    {
      "midi": 57,
      "hit": false,
      "t": 15869.579500000027,
      "d": 141.30447500000082,
      "v": 49
    },
    {
      "midi": 66,
      "hit": false,
      "t": 15869.579500000027,
      "d": 159.42043333333459,
      "v": 53
    },
    {
      "midi": 69,
      "hit": false,
      "t": 16086.971000000029,
      "d": 72.46383333333324,
      "v": 59
    },
    {
      "midi": 57,
      "hit": false,
      "t": 16086.971000000029,
      "d": 119.56532499999958,
      "v": 64
    },
    {
      "midi": 50,
      "hit": false,
      "t": 16086.971000000029,
      "d": 141.304474999999,
      "v": 70
    },
    {
      "midi": 45,
      "hit": false,
      "t": 16086.971000000029,
      "d": 173.91319999999905,
      "v": 48
    },
    {
      "midi": 66,
      "hit": false,
      "t": 16086.971000000029,
      "d": 384.05831666666745,
      "v": 70
    },
    {
      "midi": 62,
      "hit": false,
      "t": 16086.971000000029,
      "d": 394.9278916666681,
      "v": 58
    },
    {
      "midi": 45,
      "hit": false,
      "t": 16304.362500000028,
      "d": 119.56532499999958,
      "v": 45
    },
    {
      "midi": 69,
      "hit": false,
      "t": 16304.362500000028,
      "d": 141.30447500000082,
      "v": 59
    },
    {
      "midi": 57,
      "hit": false,
      "t": 16304.362500000028,
      "d": 181.159583333334,
      "v": 72
    },
    {
      "midi": 50,
      "hit": false,
      "t": 16304.362500000028,
      "d": 188.40596666666897,
      "v": 48
    },
    {
      "midi": 59,
      "hit": false,
      "t": 16521.75400000003,
      "d": 123.18851666666524,
      "v": 72
    },
    {
      "midi": 55,
      "hit": false,
      "t": 16521.75400000003,
      "d": 141.30447499999718,
      "v": 67
    },
    {
      "midi": 62,
      "hit": false,
      "t": 16521.75400000003,
      "d": 155.79724166666347,
      "v": 70
    },
    {
      "midi": 43,
      "hit": false,
      "t": 16521.75400000003,
      "d": 173.9131999999954,
      "v": 60
    },
    {
      "midi": 50,
      "hit": false,
      "t": 16521.75400000003,
      "d": 333.33363333332454,
      "v": 54
    },
    {
      "midi": 59,
      "hit": false,
      "t": 16739.145500000024,
      "d": 79.71021666666638,
      "v": 46
    },
    {
      "midi": 43,
      "hit": false,
      "t": 16739.145500000024,
      "d": 83.33340833333205,
      "v": 69
    },
    {
      "midi": 55,
      "hit": false,
      "t": 16739.145500000024,
      "d": 86.9565999999977,
      "v": 60
    },
    {
      "midi": 62,
      "hit": false,
      "t": 16739.145500000024,
      "d": 101.44936666666399,
      "v": 63
    },
    {
      "midi": 77,
      "hit": false,
      "t": 16739.145500000024,
      "d": 326.08724999999686,
      "v": 68
    },
    {
      "midi": 50,
      "hit": false,
      "t": 16956.537000000022,
      "d": 97.82617499999833,
      "v": 51
    },
    {
      "midi": 43,
      "hit": false,
      "t": 16956.537000000022,
      "d": 119.56532499999958,
      "v": 64
    },
    {
      "midi": 55,
      "hit": false,
      "t": 16956.537000000022,
      "d": 123.18851666666524,
      "v": 55
    },
    {
      "midi": 62,
      "hit": false,
      "t": 16956.537000000022,
      "d": 152.1740499999978,
      "v": 60
    },
    {
      "midi": 59,
      "hit": false,
      "t": 16956.537000000022,
      "d": 163.04362499999843,
      "v": 63
    },
    {
      "midi": 59,
      "hit": false,
      "t": 17173.92850000002,
      "d": 130.4349000000002,
      "v": 62
    },
    {
      "midi": 55,
      "hit": false,
      "t": 17173.92850000002,
      "d": 144.92766666666648,
      "v": 49
    },
    {
      "midi": 62,
      "hit": false,
      "t": 17173.92850000002,
      "d": 163.04362499999843,
      "v": 60
    },
    {
      "midi": 77,
      "hit": false,
      "t": 17173.92850000002,
      "d": 278.98575833333234,
      "v": 59
    },
    {
      "midi": 43,
      "hit": false,
      "t": 17173.92850000002,
      "d": 311.5944833333306,
      "v": 56
    },
    {
      "midi": 50,
      "hit": false,
      "t": 17173.92850000002,
      "d": 322.4640583333312,
      "v": 54
    },
    {
      "midi": 59,
      "hit": false,
      "t": 17391.320000000018,
      "d": 123.18851666666524,
      "v": 56
    },
    {
      "midi": 55,
      "hit": false,
      "t": 17391.320000000018,
      "d": 137.68128333333152,
      "v": 53
    },
    {
      "midi": 62,
      "hit": false,
      "t": 17391.320000000018,
      "d": 163.04362499999843,
      "v": 60
    },
    {
      "midi": 50,
      "hit": false,
      "t": 17608.711500000016,
      "d": 76.08702500000072,
      "v": 45
    },
    {
      "midi": 43,
      "hit": false,
      "t": 17608.711500000016,
      "d": 83.33340833333568,
      "v": 46
    },
    {
      "midi": 59,
      "hit": false,
      "t": 17608.711500000016,
      "d": 108.69575000000259,
      "v": 56
    },
    {
      "midi": 55,
      "hit": false,
      "t": 17608.711500000016,
      "d": 115.94213333333755,
      "v": 52
    },
    {
      "midi": 62,
      "hit": false,
      "t": 17608.711500000016,
      "d": 141.30447500000446,
      "v": 51
    },
    {
      "midi": 77,
      "hit": false,
      "t": 17608.711500000016,
      "d": 322.46405833333847,
      "v": 53
    },
    {
      "midi": 59,
      "hit": false,
      "t": 17826.10300000002,
      "d": 105.07255833333329,
      "v": 53
    },
    {
      "midi": 55,
      "hit": false,
      "t": 17826.10300000002,
      "d": 108.69574999999895,
      "v": 50
    },
    {
      "midi": 62,
      "hit": false,
      "t": 17826.10300000002,
      "d": 130.4349000000002,
      "v": 46
    },
    {
      "midi": 43,
      "hit": false,
      "t": 17826.10300000002,
      "d": 141.30447500000082,
      "v": 68
    },
    {
      "midi": 50,
      "hit": false,
      "t": 17826.10300000002,
      "d": 326.0872500000005,
      "v": 46
    },
    {
      "midi": 43,
      "hit": false,
      "t": 18043.494500000023,
      "d": 76.08702500000072,
      "v": 54
    },
    {
      "midi": 59,
      "hit": false,
      "t": 18043.494500000023,
      "d": 112.31894166666461,
      "v": 62
    },
    {
      "midi": 62,
      "hit": false,
      "t": 18043.494500000023,
      "d": 293.4785249999986,
      "v": 57
    },
    {
      "midi": 55,
      "hit": false,
      "t": 18043.494500000023,
      "d": 387.6815083333313,
      "v": 58
    },
    {
      "midi": 77,
      "hit": false,
      "t": 18260.88600000002,
      "d": 119.56532499999958,
      "v": 55
    },
    {
      "midi": 59,
      "hit": false,
      "t": 18260.88600000002,
      "d": 152.1740499999978,
      "v": 45
    },
    {
      "midi": 43,
      "hit": false,
      "t": 18260.88600000002,
      "d": 163.04362499999843,
      "v": 61
    },
    {
      "midi": 50,
      "hit": false,
      "t": 18260.88600000002,
      "d": 293.47852500000226,
      "v": 46
    },
    {
      "midi": 43,
      "hit": false,
      "t": 18478.277500000022,
      "d": 76.08702500000072,
      "v": 49
    },
    {
      "midi": 59,
      "hit": false,
      "t": 18478.277500000022,
      "d": 119.56532499999958,
      "v": 56
    },
    {
      "midi": 55,
      "hit": false,
      "t": 18478.277500000022,
      "d": 137.68128333333152,
      "v": 56
    },
    {
      "midi": 62,
      "hit": false,
      "t": 18478.277500000022,
      "d": 141.30447499999718,
      "v": 59
    },
    {
      "midi": 77,
      "hit": false,
      "t": 18478.277500000022,
      "d": 344.20320833333244,
      "v": 55
    },
    {
      "midi": 50,
      "hit": false,
      "t": 18695.66900000002,
      "d": 94.20298333333267,
      "v": 46
    },
    {
      "midi": 59,
      "hit": false,
      "t": 18695.66900000002,
      "d": 101.44936666666763,
      "v": 54
    },
    {
      "midi": 55,
      "hit": false,
      "t": 18695.66900000002,
      "d": 105.07255833333329,
      "v": 56
    },
    {
      "midi": 62,
      "hit": false,
      "t": 18695.66900000002,
      "d": 115.94213333333391,
      "v": 60
    },
    {
      "midi": 43,
      "hit": false,
      "t": 18695.66900000002,
      "d": 163.04362500000207,
      "v": 66
    },
    {
      "midi": 43,
      "hit": false,
      "t": 18913.06050000002,
      "d": 83.33340833333205,
      "v": 58
    },
    {
      "midi": 55,
      "hit": false,
      "t": 18913.06050000002,
      "d": 318.84086666666553,
      "v": 54
    },
    {
      "midi": 62,
      "hit": false,
      "t": 18913.06050000002,
      "d": 318.84086666666553,
      "v": 65
    },
    {
      "midi": 59,
      "hit": false,
      "t": 18913.06050000002,
      "d": 329.71044166666616,
      "v": 56
    },
    {
      "midi": 50,
      "hit": false,
      "t": 18913.06050000002,
      "d": 355.07278333333306,
      "v": 50
    },
    {
      "midi": 77,
      "hit": false,
      "t": 18913.06050000002,
      "d": 355.07278333333306,
      "v": 59
    },
    {
      "midi": 43,
      "hit": false,
      "t": 19130.45200000002,
      "d": 152.17405000000144,
      "v": 56
    },
    {
      "midi": 77,
      "hit": false,
      "t": 19347.84350000002,
      "d": 76.08702500000072,
      "v": 63
    },
    {
      "midi": 43,
      "hit": false,
      "t": 19347.84350000002,
      "d": 83.33340833333568,
      "v": 63
    },
    {
      "midi": 50,
      "hit": false,
      "t": 19347.84350000002,
      "d": 94.2029833333363,
      "v": 49
    },
    {
      "midi": 59,
      "hit": false,
      "t": 19347.84350000002,
      "d": 115.94213333333755,
      "v": 45
    },
    {
      "midi": 55,
      "hit": false,
      "t": 19347.84350000002,
      "d": 141.30447500000446,
      "v": 49
    },
    {
      "midi": 62,
      "hit": false,
      "t": 19347.84350000002,
      "d": 159.4204333333364,
      "v": 53
    },
    {
      "midi": 77,
      "hit": false,
      "t": 19565.235000000022,
      "d": 76.08702500000072,
      "v": 66
    },
    {
      "midi": 55,
      "hit": false,
      "t": 19565.235000000022,
      "d": 119.56532499999958,
      "v": 64
    },
    {
      "midi": 43,
      "hit": false,
      "t": 19565.235000000022,
      "d": 141.30447500000082,
      "v": 65
    },
    {
      "midi": 50,
      "hit": false,
      "t": 19565.235000000022,
      "d": 173.91319999999905,
      "v": 48
    },
    {
      "midi": 62,
      "hit": false,
      "t": 19565.235000000022,
      "d": 384.05831666666563,
      "v": 70
    },
    {
      "midi": 59,
      "hit": false,
      "t": 19565.235000000022,
      "d": 394.92789166666626,
      "v": 58
    },
    {
      "midi": 77,
      "hit": false,
      "t": 19782.62650000002,
      "d": 94.20298333333267,
      "v": 61
    },
    {
      "midi": 50,
      "hit": false,
      "t": 19782.62650000002,
      "d": 119.56532499999958,
      "v": 45
    },
    {
      "midi": 55,
      "hit": false,
      "t": 19782.62650000002,
      "d": 181.159583333334,
      "v": 72
    },
    {
      "midi": 43,
      "hit": false,
      "t": 19782.62650000002,
      "d": 188.40596666666897,
      "v": 45
    },
    {
      "midi": 59,
      "hit": false,
      "t": 20000.018000000022,
      "d": 123.18851666666524,
      "v": 72
    },
    {
      "midi": 55,
      "hit": false,
      "t": 20000.018000000022,
      "d": 141.30447499999718,
      "v": 67
    },
    {
      "midi": 62,
      "hit": false,
      "t": 20000.018000000022,
      "d": 155.79724166666347,
      "v": 70
    },
    {
      "midi": 43,
      "hit": false,
      "t": 20000.018000000022,
      "d": 173.9131999999954,
      "v": 60
    },
    {
      "midi": 77,
      "hit": false,
      "t": 20000.018000000022,
      "d": 300.7249083333263,
      "v": 79
    },
    {
      "midi": 50,
      "hit": false,
      "t": 20000.018000000022,
      "d": 333.33363333332454,
      "v": 54
    },
    {
      "midi": 59,
      "hit": false,
      "t": 20217.409500000016,
      "d": 79.71021666666638,
      "v": 46
    },
    {
      "midi": 43,
      "hit": false,
      "t": 20217.409500000016,
      "d": 83.33340833333205,
      "v": 69
    },
    {
      "midi": 55,
      "hit": false,
      "t": 20217.409500000016,
      "d": 86.9565999999977,
      "v": 60
    },
    {
      "midi": 62,
      "hit": false,
      "t": 20217.409500000016,
      "d": 101.44936666666399,
      "v": 63
    },
    {
      "midi": 50,
      "hit": false,
      "t": 20434.801000000014,
      "d": 97.82617499999833,
      "v": 51
    },
    {
      "midi": 43,
      "hit": false,
      "t": 20434.801000000014,
      "d": 119.56532499999958,
      "v": 64
    },
    {
      "midi": 55,
      "hit": false,
      "t": 20434.801000000014,
      "d": 123.18851666666524,
      "v": 55
    },
    {
      "midi": 62,
      "hit": false,
      "t": 20434.801000000014,
      "d": 152.1740499999978,
      "v": 60
    },
    {
      "midi": 59,
      "hit": false,
      "t": 20434.801000000014,
      "d": 163.04362499999843,
      "v": 63
    },
    {
      "midi": 77,
      "hit": false,
      "t": 20434.801000000014,
      "d": 282.608949999998,
      "v": 63
    },
    {
      "midi": 59,
      "hit": false,
      "t": 20652.192500000012,
      "d": 130.4349000000002,
      "v": 62
    },
    {
      "midi": 55,
      "hit": false,
      "t": 20652.192500000012,
      "d": 144.92766666666648,
      "v": 49
    },
    {
      "midi": 62,
      "hit": false,
      "t": 20652.192500000012,
      "d": 163.04362499999843,
      "v": 60
    },
    {
      "midi": 43,
      "hit": false,
      "t": 20652.192500000012,
      "d": 311.5944833333306,
      "v": 56
    },
    {
      "midi": 50,
      "hit": false,
      "t": 20652.192500000012,
      "d": 322.4640583333312,
      "v": 54
    },
    {
      "midi": 77,
      "hit": false,
      "t": 20869.58400000001,
      "d": 83.33340833333205,
      "v": 76
    },
    {
      "midi": 59,
      "hit": false,
      "t": 20869.58400000001,
      "d": 123.18851666666524,
      "v": 56
    },
    {
      "midi": 55,
      "hit": false,
      "t": 20869.58400000001,
      "d": 137.68128333333152,
      "v": 53
    },
    {
      "midi": 62,
      "hit": false,
      "t": 20869.58400000001,
      "d": 163.04362499999843,
      "v": 60
    },
    {
      "midi": 77,
      "hit": false,
      "t": 21086.975500000008,
      "d": 54.347874999999476,
      "v": 55
    },
    {
      "midi": 50,
      "hit": false,
      "t": 21086.975500000008,
      "d": 76.08702500000072,
      "v": 45
    },
    {
      "midi": 43,
      "hit": false,
      "t": 21086.975500000008,
      "d": 83.33340833333568,
      "v": 46
    },
    {
      "midi": 59,
      "hit": false,
      "t": 21086.975500000008,
      "d": 108.69575000000259,
      "v": 56
    },
    {
      "midi": 55,
      "hit": false,
      "t": 21086.975500000008,
      "d": 115.94213333333755,
      "v": 52
    },
    {
      "midi": 62,
      "hit": false,
      "t": 21086.975500000008,
      "d": 141.30447500000446,
      "v": 51
    },
    {
      "midi": 59,
      "hit": false,
      "t": 21304.367000000013,
      "d": 105.07255833333329,
      "v": 53
    },
    {
      "midi": 55,
      "hit": false,
      "t": 21304.367000000013,
      "d": 108.69574999999895,
      "v": 50
    },
    {
      "midi": 62,
      "hit": false,
      "t": 21304.367000000013,
      "d": 130.4349000000002,
      "v": 46
    },
    {
      "midi": 43,
      "hit": false,
      "t": 21304.367000000013,
      "d": 141.30447500000082,
      "v": 68
    },
    {
      "midi": 77,
      "hit": false,
      "t": 21304.367000000013,
      "d": 304.3481000000029,
      "v": 70
    },
    {
      "midi": 50,
      "hit": false,
      "t": 21304.367000000013,
      "d": 326.08725000000413,
      "v": 46
    },
    {
      "midi": 43,
      "hit": false,
      "t": 21521.758500000014,
      "d": 76.08702500000072,
      "v": 54
    },
    {
      "midi": 59,
      "hit": false,
      "t": 21521.758500000014,
      "d": 112.31894166666825,
      "v": 62
    },
    {
      "midi": 62,
      "hit": false,
      "t": 21521.758500000014,
      "d": 293.47852500000226,
      "v": 57
    },
    {
      "midi": 55,
      "hit": false,
      "t": 21521.758500000014,
      "d": 387.68150833333857,
      "v": 58
    },
    {
      "midi": 59,
      "hit": false,
      "t": 21739.150000000016,
      "d": 152.17405000000144,
      "v": 45
    },
    {
      "midi": 43,
      "hit": false,
      "t": 21739.150000000016,
      "d": 163.04362500000207,
      "v": 61
    },
    {
      "midi": 50,
      "hit": false,
      "t": 21739.150000000016,
      "d": 293.4785250000059,
      "v": 46
    },
    {
      "midi": 77,
      "hit": false,
      "t": 21739.150000000016,
      "d": 326.08725000000413,
      "v": 63
    },
    {
      "midi": 43,
      "hit": false,
      "t": 21956.54150000002,
      "d": 76.08702500000072,
      "v": 49
    },
    {
      "midi": 59,
      "hit": false,
      "t": 21956.54150000002,
      "d": 119.56532499999958,
      "v": 56
    },
    {
      "midi": 55,
      "hit": false,
      "t": 21956.54150000002,
      "d": 137.68128333333152,
      "v": 56
    },
    {
      "midi": 62,
      "hit": false,
      "t": 21956.54150000002,
      "d": 141.30447499999718,
      "v": 59
    },
    {
      "midi": 50,
      "hit": false,
      "t": 22173.93300000002,
      "d": 94.20298333333267,
      "v": 46
    },
    {
      "midi": 59,
      "hit": false,
      "t": 22173.93300000002,
      "d": 101.44936666666763,
      "v": 54
    },
    {
      "midi": 55,
      "hit": false,
      "t": 22173.93300000002,
      "d": 105.07255833333329,
      "v": 56
    },
    {
      "midi": 62,
      "hit": false,
      "t": 22173.93300000002,
      "d": 115.94213333333391,
      "v": 60
    },
    {
      "midi": 43,
      "hit": false,
      "t": 22173.93300000002,
      "d": 163.04362500000207,
      "v": 66
    },
    {
      "midi": 77,
      "hit": false,
      "t": 22173.93300000002,
      "d": 358.6959749999987,
      "v": 68
    },
    {
      "midi": 43,
      "hit": false,
      "t": 22391.32450000002,
      "d": 83.33340833333205,
      "v": 58
    },
    {
      "midi": 55,
      "hit": false,
      "t": 22391.32450000002,
      "d": 318.84086666666553,
      "v": 54
    },
    {
      "midi": 62,
      "hit": false,
      "t": 22391.32450000002,
      "d": 318.84086666666553,
      "v": 65
    },
    {
      "midi": 59,
      "hit": false,
      "t": 22391.32450000002,
      "d": 329.71044166666616,
      "v": 56
    },
    {
      "midi": 50,
      "hit": false,
      "t": 22391.32450000002,
      "d": 355.07278333333306,
      "v": 50
    },
    {
      "midi": 77,
      "hit": false,
      "t": 22608.71600000002,
      "d": 86.95660000000134,
      "v": 62
    },
    {
      "midi": 43,
      "hit": false,
      "t": 22608.71600000002,
      "d": 152.17405000000144,
      "v": 56
    },
    {
      "midi": 43,
      "hit": false,
      "t": 22826.10750000002,
      "d": 83.33340833333205,
      "v": 63
    },
    {
      "midi": 50,
      "hit": false,
      "t": 22826.10750000002,
      "d": 94.20298333333267,
      "v": 49
    },
    {
      "midi": 77,
      "hit": false,
      "t": 22826.10750000002,
      "d": 97.82617499999833,
      "v": 54
    },
    {
      "midi": 59,
      "hit": false,
      "t": 22826.10750000002,
      "d": 115.94213333333028,
      "v": 45
    },
    {
      "midi": 55,
      "hit": false,
      "t": 22826.10750000002,
      "d": 141.30447499999718,
      "v": 49
    },
    {
      "midi": 62,
      "hit": false,
      "t": 22826.10750000002,
      "d": 159.42043333332913,
      "v": 53
    },
    {
      "midi": 77,
      "hit": false,
      "t": 23043.499000000014,
      "d": 90.579791666667,
      "v": 56
    },
    {
      "midi": 55,
      "hit": false,
      "t": 23043.499000000014,
      "d": 119.56532499999958,
      "v": 64
    },
    {
      "midi": 43,
      "hit": false,
      "t": 23043.499000000014,
      "d": 141.30447500000082,
      "v": 65
    },
    {
      "midi": 50,
      "hit": false,
      "t": 23043.499000000014,
      "d": 173.91319999999905,
      "v": 48
    },
    {
      "midi": 62,
      "hit": false,
      "t": 23043.499000000014,
      "d": 384.05831666666563,
      "v": 70
    },
    {
      "midi": 59,
      "hit": false,
      "t": 23043.499000000014,
      "d": 394.92789166666626,
      "v": 58
    },
    {
      "midi": 50,
      "hit": false,
      "t": 23260.890500000012,
      "d": 119.56532499999958,
      "v": 45
    },
    {
      "midi": 55,
      "hit": false,
      "t": 23260.890500000012,
      "d": 181.159583333334,
      "v": 72
    },
    {
      "midi": 43,
      "hit": false,
      "t": 23260.890500000012,
      "d": 188.40596666666897,
      "v": 45
    },
    {
      "midi": 77,
      "hit": false,
      "t": 23260.890500000012,
      "d": 188.40596666666897,
      "v": 63
    },
    {
      "midi": 60,
      "hit": false,
      "t": 23478.282000000014,
      "d": 123.18851666666524,
      "v": 72
    },
    {
      "midi": 55,
      "hit": false,
      "t": 23478.282000000014,
      "d": 141.30447499999718,
      "v": 67
    },
    {
      "midi": 64,
      "hit": false,
      "t": 23478.282000000014,
      "d": 155.79724166666347,
      "v": 70
    },
    {
      "midi": 48,
      "hit": false,
      "t": 23478.282000000014,
      "d": 173.9131999999954,
      "v": 65
    },
    {
      "midi": 70,
      "hit": false,
      "t": 23478.282000000014,
      "d": 311.59448333332693,
      "v": 60
    },
    {
      "midi": 43,
      "hit": false,
      "t": 23478.282000000014,
      "d": 333.3336333333282,
      "v": 54
    },
    {
      "midi": 60,
      "hit": false,
      "t": 23695.673500000008,
      "d": 79.71021666666638,
      "v": 46
    },
    {
      "midi": 48,
      "hit": false,
      "t": 23695.673500000008,
      "d": 83.33340833333205,
      "v": 75
    },
    {
      "midi": 55,
      "hit": false,
      "t": 23695.673500000008,
      "d": 86.9565999999977,
      "v": 60
    },
    {
      "midi": 64,
      "hit": false,
      "t": 23695.673500000008,
      "d": 101.44936666666763,
      "v": 63
    },
    {
      "midi": 43,
      "hit": false,
      "t": 23913.06500000001,
      "d": 97.82617499999833,
      "v": 51
    },
    {
      "midi": 48,
      "hit": false,
      "t": 23913.06500000001,
      "d": 119.56532499999958,
      "v": 69
    },
    {
      "midi": 55,
      "hit": false,
      "t": 23913.06500000001,
      "d": 123.18851666666524,
      "v": 55
    },
    {
      "midi": 64,
      "hit": false,
      "t": 23913.06500000001,
      "d": 152.1740499999978,
      "v": 60
    },
    {
      "midi": 60,
      "hit": false,
      "t": 23913.06500000001,
      "d": 163.04362499999843,
      "v": 63
    },
    {
      "midi": 70,
      "hit": false,
      "t": 23913.06500000001,
      "d": 271.7393749999974,
      "v": 62
    },
    {
      "midi": 60,
      "hit": false,
      "t": 24130.456500000008,
      "d": 130.4349000000002,
      "v": 62
    },
    {
      "midi": 55,
      "hit": false,
      "t": 24130.456500000008,
      "d": 144.92766666666648,
      "v": 49
    },
    {
      "midi": 64,
      "hit": false,
      "t": 24130.456500000008,
      "d": 163.04362499999843,
      "v": 60
    },
    {
      "midi": 48,
      "hit": false,
      "t": 24130.456500000008,
      "d": 311.5944833333342,
      "v": 61
    },
    {
      "midi": 43,
      "hit": false,
      "t": 24130.456500000008,
      "d": 322.46405833333483,
      "v": 54
    },
    {
      "midi": 70,
      "hit": false,
      "t": 24347.848000000005,
      "d": 86.95660000000134,
      "v": 58
    },
    {
      "midi": 60,
      "hit": false,
      "t": 24347.848000000005,
      "d": 123.18851666666887,
      "v": 56
    },
    {
      "midi": 55,
      "hit": false,
      "t": 24347.848000000005,
      "d": 137.68128333333516,
      "v": 53
    },
    {
      "midi": 64,
      "hit": false,
      "t": 24347.848000000005,
      "d": 163.04362500000207,
      "v": 60
    },
    {
      "midi": 70,
      "hit": false,
      "t": 24565.239500000007,
      "d": 50.724683333333815,
      "v": 55
    },
    {
      "midi": 43,
      "hit": false,
      "t": 24565.239500000007,
      "d": 76.08702500000072,
      "v": 45
    },
    {
      "midi": 48,
      "hit": false,
      "t": 24565.239500000007,
      "d": 83.33340833333568,
      "v": 49
    },
    {
      "midi": 60,
      "hit": false,
      "t": 24565.239500000007,
      "d": 108.69575000000259,
      "v": 56
    },
    {
      "midi": 55,
      "hit": false,
      "t": 24565.239500000007,
      "d": 115.94213333333755,
      "v": 52
    },
    {
      "midi": 64,
      "hit": false,
      "t": 24565.239500000007,
      "d": 141.30447500000446,
      "v": 51
    },
    {
      "midi": 60,
      "hit": false,
      "t": 24782.631000000012,
      "d": 105.07255833333329,
      "v": 53
    },
    {
      "midi": 55,
      "hit": false,
      "t": 24782.631000000012,
      "d": 108.69574999999895,
      "v": 50
    },
    {
      "midi": 64,
      "hit": false,
      "t": 24782.631000000012,
      "d": 130.4349000000002,
      "v": 46
    },
    {
      "midi": 48,
      "hit": false,
      "t": 24782.631000000012,
      "d": 141.30447500000082,
      "v": 74
    },
    {
      "midi": 43,
      "hit": false,
      "t": 24782.631000000012,
      "d": 326.0872500000005,
      "v": 46
    },
    {
      "midi": 70,
      "hit": false,
      "t": 24782.631000000012,
      "d": 326.0872500000005,
      "v": 70
    },
    {
      "midi": 48,
      "hit": false,
      "t": 25000.022500000014,
      "d": 76.08702500000072,
      "v": 58
    },
    {
      "midi": 60,
      "hit": false,
      "t": 25000.022500000014,
      "d": 112.31894166666461,
      "v": 62
    },
    {
      "midi": 64,
      "hit": false,
      "t": 25000.022500000014,
      "d": 293.4785249999986,
      "v": 57
    },
    {
      "midi": 55,
      "hit": false,
      "t": 25000.022500000014,
      "d": 387.68150833333493,
      "v": 58
    },
    {
      "midi": 70,
      "hit": false,
      "t": 25217.41400000001,
      "d": 105.07255833333329,
      "v": 52
    },
    {
      "midi": 60,
      "hit": false,
      "t": 25217.41400000001,
      "d": 152.17405000000144,
      "v": 45
    },
    {
      "midi": 48,
      "hit": false,
      "t": 25217.41400000001,
      "d": 163.04362500000207,
      "v": 66
    },
    {
      "midi": 43,
      "hit": false,
      "t": 25217.41400000001,
      "d": 293.4785250000059,
      "v": 46
    },
    {
      "midi": 48,
      "hit": false,
      "t": 25434.805500000017,
      "d": 76.08702500000072,
      "v": 53
    },
    {
      "midi": 70,
      "hit": false,
      "t": 25434.805500000017,
      "d": 79.71021666666638,
      "v": 63
    },
    {
      "midi": 60,
      "hit": false,
      "t": 25434.805500000017,
      "d": 119.56532499999958,
      "v": 56
    },
    {
      "midi": 55,
      "hit": false,
      "t": 25434.805500000017,
      "d": 137.68128333333152,
      "v": 56
    },
    {
      "midi": 64,
      "hit": false,
      "t": 25434.805500000017,
      "d": 141.30447499999718,
      "v": 59
    },
    {
      "midi": 70,
      "hit": false,
      "t": 25652.197000000015,
      "d": 39.85510833333319,
      "v": 54
    },
    {
      "midi": 43,
      "hit": false,
      "t": 25652.197000000015,
      "d": 94.20298333333267,
      "v": 46
    },
    {
      "midi": 60,
      "hit": false,
      "t": 25652.197000000015,
      "d": 101.44936666666763,
      "v": 54
    },
    {
      "midi": 55,
      "hit": false,
      "t": 25652.197000000015,
      "d": 105.07255833333329,
      "v": 56
    },
    {
      "midi": 64,
      "hit": false,
      "t": 25652.197000000015,
      "d": 115.94213333333391,
      "v": 60
    },
    {
      "midi": 48,
      "hit": false,
      "t": 25652.197000000015,
      "d": 163.04362500000207,
      "v": 72
    },
    {
      "midi": 48,
      "hit": false,
      "t": 25869.588500000016,
      "d": 83.33340833333205,
      "v": 63
    },
    {
      "midi": 55,
      "hit": false,
      "t": 25869.588500000016,
      "d": 318.84086666666553,
      "v": 54
    },
    {
      "midi": 64,
      "hit": false,
      "t": 25869.588500000016,
      "d": 318.84086666666553,
      "v": 65
    },
    {
      "midi": 60,
      "hit": false,
      "t": 25869.588500000016,
      "d": 329.71044166666616,
      "v": 56
    },
    {
      "midi": 43,
      "hit": false,
      "t": 25869.588500000016,
      "d": 355.07278333333306,
      "v": 50
    },
    {
      "midi": 70,
      "hit": false,
      "t": 25869.588500000016,
      "d": 387.6815083333313,
      "v": 68
    },
    {
      "midi": 48,
      "hit": false,
      "t": 26086.980000000014,
      "d": 152.17405000000144,
      "v": 61
    },
    {
      "midi": 48,
      "hit": false,
      "t": 26304.371500000016,
      "d": 83.33340833333205,
      "v": 68
    },
    {
      "midi": 43,
      "hit": false,
      "t": 26304.371500000016,
      "d": 94.20298333333267,
      "v": 49
    },
    {
      "midi": 70,
      "hit": false,
      "t": 26304.371500000016,
      "d": 94.20298333333267,
      "v": 64
    },
    {
      "midi": 60,
      "hit": false,
      "t": 26304.371500000016,
      "d": 115.94213333333391,
      "v": 45
    },
    {
      "midi": 55,
      "hit": false,
      "t": 26304.371500000016,
      "d": 141.30447500000082,
      "v": 49
    },
    {
      "midi": 64,
      "hit": false,
      "t": 26304.371500000016,
      "d": 159.42043333333277,
      "v": 53
    },
    {
      "midi": 70,
      "hit": false,
      "t": 26521.763000000014,
      "d": 76.08702500000072,
      "v": 52
    },
    {
      "midi": 55,
      "hit": false,
      "t": 26521.763000000014,
      "d": 119.56532499999958,
      "v": 64
    },
    {
      "midi": 48,
      "hit": false,
      "t": 26521.763000000014,
      "d": 141.30447500000082,
      "v": 70
    },
    {
      "midi": 43,
      "hit": false,
      "t": 26521.763000000014,
      "d": 173.91319999999905,
      "v": 48
    },
    {
      "midi": 64,
      "hit": false,
      "t": 26521.763000000014,
      "d": 384.05831666666563,
      "v": 70
    },
    {
      "midi": 60,
      "hit": false,
      "t": 26521.763000000014,
      "d": 394.92789166666626,
      "v": 58
    },
    {
      "midi": 70,
      "hit": false,
      "t": 26739.15450000001,
      "d": 61.59425833333444,
      "v": 57
    },
    {
      "midi": 43,
      "hit": false,
      "t": 26739.15450000001,
      "d": 119.56532499999958,
      "v": 45
    },
    {
      "midi": 55,
      "hit": false,
      "t": 26739.15450000001,
      "d": 181.159583333334,
      "v": 72
    },
    {
      "midi": 48,
      "hit": false,
      "t": 26739.15450000001,
      "d": 188.40596666666897,
      "v": 48
    },
    {
      "midi": 70,
      "hit": false,
      "t": 26956.546000000013,
      "d": 72.46383333333506,
      "v": 68
    },
    {
      "midi": 60,
      "hit": false,
      "t": 26956.546000000013,
      "d": 123.18851666666887,
      "v": 72
    },
    {
      "midi": 55,
      "hit": false,
      "t": 26956.546000000013,
      "d": 141.30447500000082,
      "v": 67
    },
    {
      "midi": 64,
      "hit": false,
      "t": 26956.546000000013,
      "d": 155.7972416666671,
      "v": 70
    },
    {
      "midi": 48,
      "hit": false,
      "t": 26956.546000000013,
      "d": 173.91319999999905,
      "v": 65
    },
    {
      "midi": 43,
      "hit": false,
      "t": 26956.546000000013,
      "d": 333.3336333333318,
      "v": 54
    },
    {
      "midi": 70,
      "hit": false,
      "t": 27173.93750000001,
      "d": 76.08702500000072,
      "v": 65
    },
    {
      "midi": 48,
      "hit": false,
      "t": 27173.93750000001,
      "d": 83.33340833333568,
      "v": 75
    },
    {
      "midi": 55,
      "hit": false,
      "t": 27173.93750000001,
      "d": 152.17405000000144,
      "v": 60
    },
    {
      "midi": 60,
      "hit": false,
      "t": 27173.93750000001,
      "d": 152.17405000000144,
      "v": 46
    },
    {
      "midi": 64,
      "hit": false,
      "t": 27173.93750000001,
      "d": 173.9132000000027,
      "v": 63
    },
    {
      "midi": 70,
      "hit": false,
      "t": 27391.329000000012,
      "d": 65.2174500000001,
      "v": 65
    },
    {
      "midi": 43,
      "hit": false,
      "t": 27391.329000000012,
      "d": 97.82617499999833,
      "v": 51
    },
    {
      "midi": 48,
      "hit": false,
      "t": 27391.329000000012,
      "d": 119.56532499999958,
      "v": 69
    },
    {
      "midi": 55,
      "hit": false,
      "t": 27391.329000000012,
      "d": 123.18851666666524,
      "v": 55
    },
    {
      "midi": 64,
      "hit": false,
      "t": 27391.329000000012,
      "d": 152.1740499999978,
      "v": 60
    },
    {
      "midi": 60,
      "hit": false,
      "t": 27391.329000000012,
      "d": 163.04362499999843,
      "v": 63
    },
    {
      "midi": 70,
      "hit": false,
      "t": 27608.72050000001,
      "d": 115.94213333333391,
      "v": 58
    },
    {
      "midi": 55,
      "hit": false,
      "t": 27608.72050000001,
      "d": 144.92766666666648,
      "v": 49
    },
    {
      "midi": 64,
      "hit": false,
      "t": 27608.72050000001,
      "d": 163.04362499999843,
      "v": 60
    },
    {
      "midi": 60,
      "hit": false,
      "t": 27608.72050000001,
      "d": 173.91319999999905,
      "v": 62
    },
    {
      "midi": 48,
      "hit": false,
      "t": 27608.72050000001,
      "d": 184.78277499999967,
      "v": 61
    },
    {
      "midi": 43,
      "hit": false,
      "t": 27608.72050000001,
      "d": 195.6523500000003,
      "v": 54
    },
    {
      "midi": 62,
      "hit": false,
      "t": 27826.112000000012,
      "d": 123.18851666666524,
      "v": 72
    },
    {
      "midi": 57,
      "hit": false,
      "t": 27826.112000000012,
      "d": 141.30447499999718,
      "v": 67
    },
    {
      "midi": 66,
      "hit": false,
      "t": 27826.112000000012,
      "d": 155.79724166666347,
      "v": 70
    },
    {
      "midi": 50,
      "hit": false,
      "t": 27826.112000000012,
      "d": 173.9131999999954,
      "v": 65
    },
    {
      "midi": 74,
      "hit": false,
      "t": 27826.112000000012,
      "d": 304.348099999992,
      "v": 63
    },
    {
      "midi": 45,
      "hit": false,
      "t": 27826.112000000012,
      "d": 333.33363333332454,
      "v": 54
    },
    {
      "midi": 62,
      "hit": false,
      "t": 28043.503500000006,
      "d": 79.71021666666638,
      "v": 46
    },
    {
      "midi": 50,
      "hit": false,
      "t": 28043.503500000006,
      "d": 83.33340833333205,
      "v": 75
    },
    {
      "midi": 57,
      "hit": false,
      "t": 28043.503500000006,
      "d": 86.9565999999977,
      "v": 60
    },
    {
      "midi": 66,
      "hit": false,
      "t": 28043.503500000006,
      "d": 101.44936666666399,
      "v": 63
    },
    {
      "midi": 45,
      "hit": false,
      "t": 28260.895000000004,
      "d": 97.82617499999833,
      "v": 51
    },
    {
      "midi": 50,
      "hit": false,
      "t": 28260.895000000004,
      "d": 119.56532499999958,
      "v": 69
    },
    {
      "midi": 57,
      "hit": false,
      "t": 28260.895000000004,
      "d": 123.18851666666524,
      "v": 55
    },
    {
      "midi": 66,
      "hit": false,
      "t": 28260.895000000004,
      "d": 152.1740499999978,
      "v": 60
    },
    {
      "midi": 62,
      "hit": false,
      "t": 28260.895000000004,
      "d": 163.04362499999843,
      "v": 63
    },
    {
      "midi": 74,
      "hit": false,
      "t": 28260.895000000004,
      "d": 333.3336333333318,
      "v": 58
    },
    {
      "midi": 62,
      "hit": false,
      "t": 28478.286500000002,
      "d": 130.4349000000002,
      "v": 62
    },
    {
      "midi": 57,
      "hit": false,
      "t": 28478.286500000002,
      "d": 144.92766666666648,
      "v": 49
    },
    {
      "midi": 66,
      "hit": false,
      "t": 28478.286500000002,
      "d": 163.04362499999843,
      "v": 60
    },
    {
      "midi": 50,
      "hit": false,
      "t": 28478.286500000002,
      "d": 311.5944833333306,
      "v": 61
    },
    {
      "midi": 45,
      "hit": false,
      "t": 28478.286500000002,
      "d": 322.4640583333312,
      "v": 54
    },
    {
      "midi": 74,
      "hit": false,
      "t": 28695.678,
      "d": 83.33340833333205,
      "v": 59
    },
    {
      "midi": 62,
      "hit": false,
      "t": 28695.678,
      "d": 123.18851666666524,
      "v": 56
    },
    {
      "midi": 57,
      "hit": false,
      "t": 28695.678,
      "d": 137.68128333333152,
      "v": 53
    },
    {
      "midi": 66,
      "hit": false,
      "t": 28695.678,
      "d": 163.04362499999843,
      "v": 60
    },
    {
      "midi": 45,
      "hit": false,
      "t": 28913.069499999998,
      "d": 76.08702500000072,
      "v": 45
    },
    {
      "midi": 50,
      "hit": false,
      "t": 28913.069499999998,
      "d": 83.33340833333568,
      "v": 49
    },
    {
      "midi": 62,
      "hit": false,
      "t": 28913.069499999998,
      "d": 108.69575000000259,
      "v": 56
    },
    {
      "midi": 57,
      "hit": false,
      "t": 28913.069499999998,
      "d": 115.94213333333755,
      "v": 52
    },
    {
      "midi": 66,
      "hit": false,
      "t": 28913.069499999998,
      "d": 141.30447500000446,
      "v": 51
    },
    {
      "midi": 74,
      "hit": false,
      "t": 28913.069499999998,
      "d": 318.8408666666728,
      "v": 61
    },
    {
      "midi": 62,
      "hit": false,
      "t": 29130.461000000003,
      "d": 105.07255833333329,
      "v": 53
    },
    {
      "midi": 57,
      "hit": false,
      "t": 29130.461000000003,
      "d": 108.69574999999895,
      "v": 50
    },
    {
      "midi": 66,
      "hit": false,
      "t": 29130.461000000003,
      "d": 130.4349000000002,
      "v": 46
    },
    {
      "midi": 50,
      "hit": false,
      "t": 29130.461000000003,
      "d": 141.30447500000082,
      "v": 74
    },
    {
      "midi": 45,
      "hit": false,
      "t": 29130.461000000003,
      "d": 326.0872500000005,
      "v": 46
    },
    {
      "midi": 50,
      "hit": false,
      "t": 29347.852500000005,
      "d": 76.08702500000072,
      "v": 58
    },
    {
      "midi": 62,
      "hit": false,
      "t": 29347.852500000005,
      "d": 112.31894166666461,
      "v": 62
    },
    {
      "midi": 66,
      "hit": false,
      "t": 29347.852500000005,
      "d": 293.4785249999986,
      "v": 57
    },
    {
      "midi": 74,
      "hit": false,
      "t": 29347.852500000005,
      "d": 322.4640583333312,
      "v": 63
    },
    {
      "midi": 57,
      "hit": false,
      "t": 29347.852500000005,
      "d": 387.68150833333493,
      "v": 58
    },
    {
      "midi": 62,
      "hit": false,
      "t": 29565.244000000002,
      "d": 152.17405000000144,
      "v": 45
    },
    {
      "midi": 50,
      "hit": false,
      "t": 29565.244000000002,
      "d": 163.04362500000207,
      "v": 66
    },
    {
      "midi": 45,
      "hit": false,
      "t": 29565.244000000002,
      "d": 293.4785250000059,
      "v": 46
    },
    {
      "midi": 50,
      "hit": false,
      "t": 29782.635500000008,
      "d": 76.08702500000072,
      "v": 53
    },
    {
      "midi": 74,
      "hit": false,
      "t": 29782.635500000008,
      "d": 76.08702500000072,
      "v": 60
    },
    {
      "midi": 62,
      "hit": false,
      "t": 29782.635500000008,
      "d": 119.56532499999958,
      "v": 56
    },
    {
      "midi": 57,
      "hit": false,
      "t": 29782.635500000008,
      "d": 137.68128333333152,
      "v": 56
    },
    {
      "midi": 66,
      "hit": false,
      "t": 29782.635500000008,
      "d": 141.30447499999718,
      "v": 59
    },
    {
      "midi": 45,
      "hit": false,
      "t": 30000.027000000006,
      "d": 94.20298333333267,
      "v": 46
    },
    {
      "midi": 62,
      "hit": false,
      "t": 30000.027000000006,
      "d": 101.44936666666763,
      "v": 54
    },
    {
      "midi": 57,
      "hit": false,
      "t": 30000.027000000006,
      "d": 105.07255833333329,
      "v": 56
    },
    {
      "midi": 66,
      "hit": false,
      "t": 30000.027000000006,
      "d": 115.94213333333391,
      "v": 60
    },
    {
      "midi": 50,
      "hit": false,
      "t": 30000.027000000006,
      "d": 163.04362500000207,
      "v": 72
    },
    {
      "midi": 74,
      "hit": false,
      "t": 30000.027000000006,
      "d": 289.8553333333366,
      "v": 66
    },
    {
      "midi": 50,
      "hit": false,
      "t": 30217.418500000007,
      "d": 83.33340833333568,
      "v": 63
    },
    {
      "midi": 57,
      "hit": false,
      "t": 30217.418500000007,
      "d": 318.84086666666917,
      "v": 54
    },
    {
      "midi": 66,
      "hit": false,
      "t": 30217.418500000007,
      "d": 318.84086666666917,
      "v": 65
    },
    {
      "midi": 62,
      "hit": false,
      "t": 30217.418500000007,
      "d": 329.7104416666698,
      "v": 56
    },
    {
      "midi": 45,
      "hit": false,
      "t": 30217.418500000007,
      "d": 355.0727833333367,
      "v": 50
    },
    {
      "midi": 74,
      "hit": false,
      "t": 30434.81000000001,
      "d": 79.71021666666638,
      "v": 62
    },
    {
      "midi": 50,
      "hit": false,
      "t": 30434.81000000001,
      "d": 152.17405000000144,
      "v": 61
    },
    {
      "midi": 74,
      "hit": false,
      "t": 30652.20150000001,
      "d": 47.10149166666815,
      "v": 63
    },
    {
      "midi": 50,
      "hit": false,
      "t": 30652.20150000001,
      "d": 83.33340833333568,
      "v": 68
    },
    {
      "midi": 45,
      "hit": false,
      "t": 30652.20150000001,
      "d": 94.2029833333363,
      "v": 49
    },
    {
      "midi": 62,
      "hit": false,
      "t": 30652.20150000001,
      "d": 115.94213333333755,
      "v": 45
    },
    {
      "midi": 57,
      "hit": false,
      "t": 30652.20150000001,
      "d": 141.30447500000446,
      "v": 49
    },
    {
      "midi": 66,
      "hit": false,
      "t": 30652.20150000001,
      "d": 159.4204333333364,
      "v": 53
    },
    {
      "midi": 57,
      "hit": false,
      "t": 30869.59300000001,
      "d": 119.56532499999958,
      "v": 64
    },
    {
      "midi": 50,
      "hit": false,
      "t": 30869.59300000001,
      "d": 141.30447500000082,
      "v": 70
    },
    {
      "midi": 45,
      "hit": false,
      "t": 30869.59300000001,
      "d": 173.91319999999905,
      "v": 48
    },
    {
      "midi": 74,
      "hit": false,
      "t": 30869.59300000001,
      "d": 351.44959166666376,
      "v": 78
    },
    {
      "midi": 66,
      "hit": false,
      "t": 30869.59300000001,
      "d": 384.058316666662,
      "v": 70
    },
    {
      "midi": 62,
      "hit": false,
      "t": 30869.59300000001,
      "d": 394.9278916666626,
      "v": 58
    },
    {
      "midi": 45,
      "hit": false,
      "t": 31086.98450000001,
      "d": 119.56532499999958,
      "v": 45
    },
    {
      "midi": 57,
      "hit": false,
      "t": 31086.98450000001,
      "d": 181.15958333333037,
      "v": 72
    },
    {
      "midi": 50,
      "hit": false,
      "t": 31086.98450000001,
      "d": 188.40596666666534,
      "v": 48
    },
    {
      "midi": 59,
      "hit": false,
      "t": 31304.376000000007,
      "d": 123.18851666666524,
      "v": 72
    },
    {
      "midi": 71,
      "hit": false,
      "t": 31304.376000000007,
      "d": 126.8117083333309,
      "v": 84
    },
    {
      "midi": 55,
      "hit": false,
      "t": 31304.376000000007,
      "d": 141.30447499999718,
      "v": 67
    },
    {
      "midi": 62,
      "hit": false,
      "t": 31304.376000000007,
      "d": 155.79724166666347,
      "v": 70
    },
    {
      "midi": 43,
      "hit": false,
      "t": 31304.376000000007,
      "d": 173.9131999999954,
      "v": 60
    },
    {
      "midi": 50,
      "hit": false,
      "t": 31304.376000000007,
      "d": 333.33363333332454,
      "v": 54
    },
    {
      "midi": 59,
      "hit": false,
      "t": 31521.7675,
      "d": 79.71021666666638,
      "v": 46
    },
    {
      "midi": 43,
      "hit": false,
      "t": 31521.7675,
      "d": 83.33340833333205,
      "v": 69
    },
    {
      "midi": 55,
      "hit": false,
      "t": 31521.7675,
      "d": 86.9565999999977,
      "v": 60
    },
    {
      "midi": 62,
      "hit": false,
      "t": 31521.7675,
      "d": 101.44936666666399,
      "v": 63
    },
    {
      "midi": 65,
      "hit": false,
      "t": 31521.7675,
      "d": 362.3191666666644,
      "v": 75
    },
    {
      "midi": 50,
      "hit": false,
      "t": 31739.159,
      "d": 97.82617499999833,
      "v": 51
    },
    {
      "midi": 43,
      "hit": false,
      "t": 31739.159,
      "d": 119.56532499999958,
      "v": 64
    },
    {
      "midi": 55,
      "hit": false,
      "t": 31739.159,
      "d": 123.18851666666524,
      "v": 55
    },
    {
      "midi": 62,
      "hit": false,
      "t": 31739.159,
      "d": 152.17405000000144,
      "v": 60
    },
    {
      "midi": 59,
      "hit": false,
      "t": 31739.159,
      "d": 163.04362500000207,
      "v": 63
    },
    {
      "midi": 59,
      "hit": false,
      "t": 31956.5505,
      "d": 130.4349000000002,
      "v": 62
    },
    {
      "midi": 55,
      "hit": false,
      "t": 31956.5505,
      "d": 144.92766666666648,
      "v": 49
    },
    {
      "midi": 62,
      "hit": false,
      "t": 31956.5505,
      "d": 163.04362499999843,
      "v": 60
    },
    {
      "midi": 43,
      "hit": false,
      "t": 31956.5505,
      "d": 311.5944833333306,
      "v": 56
    },
    {
      "midi": 50,
      "hit": false,
      "t": 31956.5505,
      "d": 322.4640583333312,
      "v": 54
    },
    {
      "midi": 71,
      "hit": false,
      "t": 31956.5505,
      "d": 416.66704166666386,
      "v": 64
    },
    {
      "midi": 59,
      "hit": false,
      "t": 32173.942,
      "d": 123.18851666666524,
      "v": 56
    },
    {
      "midi": 55,
      "hit": false,
      "t": 32173.942,
      "d": 137.68128333333152,
      "v": 53
    },
    {
      "midi": 62,
      "hit": false,
      "t": 32173.942,
      "d": 163.04362499999843,
      "v": 60
    },
    {
      "midi": 50,
      "hit": false,
      "t": 32391.333499999997,
      "d": 76.08702500000072,
      "v": 45
    },
    {
      "midi": 43,
      "hit": false,
      "t": 32391.333499999997,
      "d": 83.33340833333568,
      "v": 46
    },
    {
      "midi": 65,
      "hit": false,
      "t": 32391.333499999997,
      "d": 94.2029833333363,
      "v": 60
    },
    {
      "midi": 59,
      "hit": false,
      "t": 32391.333499999997,
      "d": 108.69575000000259,
      "v": 56
    },
    {
      "midi": 55,
      "hit": false,
      "t": 32391.333499999997,
      "d": 115.94213333333755,
      "v": 52
    },
    {
      "midi": 62,
      "hit": false,
      "t": 32391.333499999997,
      "d": 141.30447500000446,
      "v": 51
    },
    {
      "midi": 59,
      "hit": false,
      "t": 32608.725000000002,
      "d": 105.07255833333329,
      "v": 53
    },
    {
      "midi": 55,
      "hit": false,
      "t": 32608.725000000002,
      "d": 108.69574999999895,
      "v": 50
    },
    {
      "midi": 65,
      "hit": false,
      "t": 32608.725000000002,
      "d": 119.56532499999958,
      "v": 66
    },
    {
      "midi": 62,
      "hit": false,
      "t": 32608.725000000002,
      "d": 130.4349000000002,
      "v": 46
    },
    {
      "midi": 43,
      "hit": false,
      "t": 32608.725000000002,
      "d": 141.30447500000082,
      "v": 68
    },
    {
      "midi": 50,
      "hit": false,
      "t": 32608.725000000002,
      "d": 326.0872499999932,
      "v": 46
    },
    {
      "midi": 65,
      "hit": false,
      "t": 32826.116500000004,
      "d": 65.21744999999646,
      "v": 41
    },
    {
      "midi": 43,
      "hit": false,
      "t": 32826.116500000004,
      "d": 76.08702499999345,
      "v": 54
    },
    {
      "midi": 59,
      "hit": false,
      "t": 32826.116500000004,
      "d": 112.31894166665734,
      "v": 62
    },
    {
      "midi": 62,
      "hit": false,
      "t": 32826.116500000004,
      "d": 293.47852499999135,
      "v": 57
    },
    {
      "midi": 55,
      "hit": false,
      "t": 32826.116500000004,
      "d": 387.6815083333204,
      "v": 58
    },
    {
      "midi": 59,
      "hit": false,
      "t": 33043.507999999994,
      "d": 152.17405000000144,
      "v": 45
    },
    {
      "midi": 71,
      "hit": false,
      "t": 33043.507999999994,
      "d": 155.7972416666671,
      "v": 60
    },
    {
      "midi": 43,
      "hit": false,
      "t": 33043.507999999994,
      "d": 163.04362499999843,
      "v": 61
    },
    {
      "midi": 50,
      "hit": false,
      "t": 33043.507999999994,
      "d": 293.4785249999986,
      "v": 46
    },
    {
      "midi": 43,
      "hit": false,
      "t": 33260.89949999999,
      "d": 76.08702500000072,
      "v": 49
    },
    {
      "midi": 65,
      "hit": false,
      "t": 33260.89949999999,
      "d": 76.08702500000072,
      "v": 67
    },
    {
      "midi": 59,
      "hit": false,
      "t": 33260.89949999999,
      "d": 119.56532500000321,
      "v": 56
    },
    {
      "midi": 55,
      "hit": false,
      "t": 33260.89949999999,
      "d": 137.6812833333388,
      "v": 56
    },
    {
      "midi": 62,
      "hit": false,
      "t": 33260.89949999999,
      "d": 141.30447500000446,
      "v": 59
    },
    {
      "midi": 65,
      "hit": false,
      "t": 33478.291,
      "d": 90.57979166666337,
      "v": 66
    },
    {
      "midi": 50,
      "hit": false,
      "t": 33478.291,
      "d": 94.20298333332903,
      "v": 46
    },
    {
      "midi": 59,
      "hit": false,
      "t": 33478.291,
      "d": 101.44936666666035,
      "v": 54
    },
    {
      "midi": 55,
      "hit": false,
      "t": 33478.291,
      "d": 105.07255833332601,
      "v": 56
    },
    {
      "midi": 62,
      "hit": false,
      "t": 33478.291,
      "d": 115.942133333323,
      "v": 60
    },
    {
      "midi": 43,
      "hit": false,
      "t": 33478.291,
      "d": 163.04362499999115,
      "v": 66
    },
    {
      "midi": 43,
      "hit": false,
      "t": 33695.68249999999,
      "d": 83.33340833333205,
      "v": 58
    },
    {
      "midi": 55,
      "hit": false,
      "t": 33695.68249999999,
      "d": 318.84086666666553,
      "v": 54
    },
    {
      "midi": 62,
      "hit": false,
      "t": 33695.68249999999,
      "d": 318.84086666666553,
      "v": 65
    },
    {
      "midi": 71,
      "hit": false,
      "t": 33695.68249999999,
      "d": 318.84086666666553,
      "v": 70
    },
    {
      "midi": 59,
      "hit": false,
      "t": 33695.68249999999,
      "d": 329.7104416666625,
      "v": 56
    },
    {
      "midi": 50,
      "hit": false,
      "t": 33695.68249999999,
      "d": 355.0727833333294,
      "v": 50
    },
    {
      "midi": 43,
      "hit": false,
      "t": 33913.073999999986,
      "d": 152.17405000000144,
      "v": 56
    },
    {
      "midi": 43,
      "hit": false,
      "t": 34130.465499999984,
      "d": 83.33340833333205,
      "v": 63
    },
    {
      "midi": 65,
      "hit": false,
      "t": 34130.465499999984,
      "d": 86.9565999999977,
      "v": 79
    },
    {
      "midi": 50,
      "hit": false,
      "t": 34130.465499999984,
      "d": 94.20298333332903,
      "v": 49
    },
    {
      "midi": 59,
      "hit": false,
      "t": 34130.465499999984,
      "d": 115.94213333333028,
      "v": 45
    },
    {
      "midi": 55,
      "hit": false,
      "t": 34130.465499999984,
      "d": 141.30447499999718,
      "v": 49
    },
    {
      "midi": 62,
      "hit": false,
      "t": 34130.465499999984,
      "d": 159.42043333333277,
      "v": 53
    },
    {
      "midi": 65,
      "hit": false,
      "t": 34347.85699999998,
      "d": 97.82617500000197,
      "v": 76
    },
    {
      "midi": 55,
      "hit": false,
      "t": 34347.85699999998,
      "d": 119.56532500000321,
      "v": 64
    },
    {
      "midi": 43,
      "hit": false,
      "t": 34347.85699999998,
      "d": 141.30447500000446,
      "v": 65
    },
    {
      "midi": 50,
      "hit": false,
      "t": 34347.85699999998,
      "d": 173.9132000000027,
      "v": 48
    },
    {
      "midi": 62,
      "hit": false,
      "t": 34347.85699999998,
      "d": 384.05831666667655,
      "v": 70
    },
    {
      "midi": 59,
      "hit": false,
      "t": 34347.85699999998,
      "d": 394.92789166667353,
      "v": 58
    },
    {
      "midi": 65,
      "hit": false,
      "t": 34565.24849999999,
      "d": 79.71021666666638,
      "v": 58
    },
    {
      "midi": 50,
      "hit": false,
      "t": 34565.24849999999,
      "d": 119.56532500000321,
      "v": 45
    },
    {
      "midi": 55,
      "hit": false,
      "t": 34565.24849999999,
      "d": 181.159583333334,
      "v": 72
    },
    {
      "midi": 43,
      "hit": false,
      "t": 34565.24849999999,
      "d": 188.40596666666534,
      "v": 45
    },
    {
      "midi": 72,
      "hit": false,
      "t": 34782.639999999985,
      "d": 50.724683333333815,
      "v": 53
    },
    {
      "midi": 70,
      "hit": false,
      "t": 34782.639999999985,
      "d": 112.31894166666461,
      "v": 55
    },
    {
      "midi": 60,
      "hit": false,
      "t": 34782.639999999985,
      "d": 123.1885166666616,
      "v": 72
    },
    {
      "midi": 55,
      "hit": false,
      "t": 34782.639999999985,
      "d": 141.30447499999718,
      "v": 67
    },
    {
      "midi": 64,
      "hit": false,
      "t": 34782.639999999985,
      "d": 155.7972416666671,
      "v": 70
    },
    {
      "midi": 48,
      "hit": false,
      "t": 34782.639999999985,
      "d": 173.9132000000027,
      "v": 65
    },
    {
      "midi": 43,
      "hit": false,
      "t": 34782.639999999985,
      "d": 333.33363333333546,
      "v": 54
    },
    {
      "midi": 72,
      "hit": false,
      "t": 35000.03149999999,
      "d": 43.47830000000249,
      "v": 69
    },
    {
      "midi": 60,
      "hit": false,
      "t": 35000.03149999999,
      "d": 79.71021666666638,
      "v": 46
    },
    {
      "midi": 48,
      "hit": false,
      "t": 35000.03149999999,
      "d": 83.33340833333205,
      "v": 75
    },
    {
      "midi": 55,
      "hit": false,
      "t": 35000.03149999999,
      "d": 86.9565999999977,
      "v": 60
    },
    {
      "midi": 64,
      "hit": false,
      "t": 35000.03149999999,
      "d": 101.44936666666763,
      "v": 63
    },
    {
      "midi": 70,
      "hit": false,
      "t": 35000.03149999999,
      "d": 112.31894166666461,
      "v": 51
    },
    {
      "midi": 43,
      "hit": false,
      "t": 35217.42299999999,
      "d": 97.82617500000197,
      "v": 51
    },
    {
      "midi": 48,
      "hit": false,
      "t": 35217.42299999999,
      "d": 119.56532500000321,
      "v": 69
    },
    {
      "midi": 55,
      "hit": false,
      "t": 35217.42299999999,
      "d": 123.18851666666887,
      "v": 55
    },
    {
      "midi": 64,
      "hit": false,
      "t": 35217.42299999999,
      "d": 152.17405000000144,
      "v": 60
    },
    {
      "midi": 60,
      "hit": false,
      "t": 35217.42299999999,
      "d": 163.04362499999843,
      "v": 63
    },
    {
      "midi": 72,
      "hit": false,
      "t": 35217.42299999999,
      "d": 286.2321416666673,
      "v": 72
    },
    {
      "midi": 70,
      "hit": false,
      "t": 35217.42299999999,
      "d": 315.2176749999999,
      "v": 66
    },
    {
      "midi": 60,
      "hit": false,
      "t": 35434.814499999986,
      "d": 130.4349000000002,
      "v": 62
    },
    {
      "midi": 55,
      "hit": false,
      "t": 35434.814499999986,
      "d": 144.92766666667012,
      "v": 49
    },
    {
      "midi": 64,
      "hit": false,
      "t": 35434.814499999986,
      "d": 163.0436250000057,
      "v": 60
    },
    {
      "midi": 48,
      "hit": false,
      "t": 35434.814499999986,
      "d": 311.5944833333415,
      "v": 61
    },
    {
      "midi": 43,
      "hit": false,
      "t": 35434.814499999986,
      "d": 322.46405833333847,
      "v": 54
    },
    {
      "midi": 72,
      "hit": false,
      "t": 35652.20599999999,
      "d": 43.47830000000249,
      "v": 52
    },
    {
      "midi": 70,
      "hit": false,
      "t": 35652.20599999999,
      "d": 90.57979166667064,
      "v": 53
    },
    {
      "midi": 60,
      "hit": false,
      "t": 35652.20599999999,
      "d": 123.18851666666887,
      "v": 56
    },
    {
      "midi": 55,
      "hit": false,
      "t": 35652.20599999999,
      "d": 137.6812833333388,
      "v": 53
    },
    {
      "midi": 64,
      "hit": false,
      "t": 35652.20599999999,
      "d": 163.0436250000057,
      "v": 60
    },
    {
      "midi": 72,
      "hit": false,
      "t": 35869.597499999996,
      "d": 43.47830000000249,
      "v": 55
    },
    {
      "midi": 43,
      "hit": false,
      "t": 35869.597499999996,
      "d": 76.08702500000072,
      "v": 45
    },
    {
      "midi": 48,
      "hit": false,
      "t": 35869.597499999996,
      "d": 83.33340833333205,
      "v": 49
    },
    {
      "midi": 60,
      "hit": false,
      "t": 35869.597499999996,
      "d": 108.69574999999895,
      "v": 56
    },
    {
      "midi": 70,
      "hit": false,
      "t": 35869.597499999996,
      "d": 108.69574999999895,
      "v": 55
    },
    {
      "midi": 55,
      "hit": false,
      "t": 35869.597499999996,
      "d": 115.94213333333028,
      "v": 52
    },
    {
      "midi": 64,
      "hit": false,
      "t": 35869.597499999996,
      "d": 141.30447499999718,
      "v": 51
    },
    {
      "midi": 60,
      "hit": false,
      "t": 36086.988999999994,
      "d": 105.07255833333329,
      "v": 53
    },
    {
      "midi": 55,
      "hit": false,
      "t": 36086.988999999994,
      "d": 108.69574999999895,
      "v": 50
    },
    {
      "midi": 64,
      "hit": false,
      "t": 36086.988999999994,
      "d": 130.4349000000002,
      "v": 46
    },
    {
      "midi": 48,
      "hit": false,
      "t": 36086.988999999994,
      "d": 141.30447499999718,
      "v": 74
    },
    {
      "midi": 72,
      "hit": false,
      "t": 36086.988999999994,
      "d": 289.85533333333296,
      "v": 63
    },
    {
      "midi": 70,
      "hit": false,
      "t": 36086.988999999994,
      "d": 318.84086666666553,
      "v": 51
    },
    {
      "midi": 43,
      "hit": false,
      "t": 36086.988999999994,
      "d": 326.08724999999686,
      "v": 46
    },
    {
      "midi": 48,
      "hit": false,
      "t": 36304.38049999999,
      "d": 76.08702500000072,
      "v": 58
    },
    {
      "midi": 60,
      "hit": false,
      "t": 36304.38049999999,
      "d": 112.31894166666461,
      "v": 62
    },
    {
      "midi": 64,
      "hit": false,
      "t": 36304.38049999999,
      "d": 293.4785249999986,
      "v": 57
    },
    {
      "midi": 55,
      "hit": false,
      "t": 36304.38049999999,
      "d": 387.68150833332766,
      "v": 58
    },
    {
      "midi": 72,
      "hit": false,
      "t": 36521.77199999999,
      "d": 54.347874999999476,
      "v": 56
    },
    {
      "midi": 70,
      "hit": false,
      "t": 36521.77199999999,
      "d": 105.07255833333329,
      "v": 55
    },
    {
      "midi": 60,
      "hit": false,
      "t": 36521.77199999999,
      "d": 152.17405000000144,
      "v": 45
    },
    {
      "midi": 48,
      "hit": false,
      "t": 36521.77199999999,
      "d": 163.04362499999843,
      "v": 66
    },
    {
      "midi": 43,
      "hit": false,
      "t": 36521.77199999999,
      "d": 293.4785249999986,
      "v": 46
    },
    {
      "midi": 72,
      "hit": false,
      "t": 36739.16349999999,
      "d": 39.85510833333683,
      "v": 67
    },
    {
      "midi": 48,
      "hit": false,
      "t": 36739.16349999999,
      "d": 76.08702500000072,
      "v": 53
    },
    {
      "midi": 70,
      "hit": false,
      "t": 36739.16349999999,
      "d": 97.82617500000197,
      "v": 54
    },
    {
      "midi": 60,
      "hit": false,
      "t": 36739.16349999999,
      "d": 119.56532500000321,
      "v": 56
    },
    {
      "midi": 55,
      "hit": false,
      "t": 36739.16349999999,
      "d": 137.6812833333388,
      "v": 56
    },
    {
      "midi": 64,
      "hit": false,
      "t": 36739.16349999999,
      "d": 141.30447500000446,
      "v": 59
    },
    {
      "midi": 72,
      "hit": false,
      "t": 36956.55499999999,
      "d": 43.47830000000249,
      "v": 72
    },
    {
      "midi": 70,
      "hit": false,
      "t": 36956.55499999999,
      "d": 79.71021666666638,
      "v": 53
    },
    {
      "midi": 43,
      "hit": false,
      "t": 36956.55499999999,
      "d": 94.2029833333363,
      "v": 46
    },
    {
      "midi": 60,
      "hit": false,
      "t": 36956.55499999999,
      "d": 101.44936666666763,
      "v": 54
    },
    {
      "midi": 55,
      "hit": false,
      "t": 36956.55499999999,
      "d": 105.07255833333329,
      "v": 56
    },
    {
      "midi": 64,
      "hit": false,
      "t": 36956.55499999999,
      "d": 115.94213333333028,
      "v": 60
    },
    {
      "midi": 48,
      "hit": false,
      "t": 36956.55499999999,
      "d": 163.04362499999843,
      "v": 72
    },
    {
      "midi": 48,
      "hit": false,
      "t": 37173.94649999999,
      "d": 83.33340833333205,
      "v": 63
    },
    {
      "midi": 55,
      "hit": false,
      "t": 37173.94649999999,
      "d": 318.84086666666553,
      "v": 54
    },
    {
      "midi": 64,
      "hit": false,
      "t": 37173.94649999999,
      "d": 318.84086666666553,
      "v": 65
    },
    {
      "midi": 60,
      "hit": false,
      "t": 37173.94649999999,
      "d": 329.7104416666625,
      "v": 56
    },
    {
      "midi": 43,
      "hit": false,
      "t": 37173.94649999999,
      "d": 355.0727833333294,
      "v": 50
    },
    {
      "midi": 72,
      "hit": false,
      "t": 37173.94649999999,
      "d": 358.6959749999951,
      "v": 71
    },
    {
      "midi": 70,
      "hit": false,
      "t": 37173.94649999999,
      "d": 369.5655499999921,
      "v": 66
    },
    {
      "midi": 48,
      "hit": false,
      "t": 37391.33799999999,
      "d": 152.17404999999417,
      "v": 61
    },
    {
      "midi": 72,
      "hit": false,
      "t": 37608.72949999998,
      "d": 47.10149166666815,
      "v": 56
    },
    {
      "midi": 48,
      "hit": false,
      "t": 37608.72949999998,
      "d": 83.33340833333205,
      "v": 68
    },
    {
      "midi": 70,
      "hit": false,
      "t": 37608.72949999998,
      "d": 86.9565999999977,
      "v": 52
    },
    {
      "midi": 43,
      "hit": false,
      "t": 37608.72949999998,
      "d": 94.20298333332903,
      "v": 49
    },
    {
      "midi": 60,
      "hit": false,
      "t": 37608.72949999998,
      "d": 115.94213333333028,
      "v": 45
    },
    {
      "midi": 55,
      "hit": false,
      "t": 37608.72949999998,
      "d": 141.30447499999718,
      "v": 49
    },
    {
      "midi": 64,
      "hit": false,
      "t": 37608.72949999998,
      "d": 159.42043333333277,
      "v": 53
    },
    {
      "midi": 55,
      "hit": false,
      "t": 37826.12099999998,
      "d": 119.56532500000321,
      "v": 64
    },
    {
      "midi": 48,
      "hit": false,
      "t": 37826.12099999998,
      "d": 141.30447500000446,
      "v": 70
    },
    {
      "midi": 43,
      "hit": false,
      "t": 37826.12099999998,
      "d": 173.9132000000027,
      "v": 48
    },
    {
      "midi": 72,
      "hit": false,
      "t": 37826.12099999998,
      "d": 253.62341666666907,
      "v": 66
    },
    {
      "midi": 70,
      "hit": false,
      "t": 37826.12099999998,
      "d": 257.24660833333473,
      "v": 51
    },
    {
      "midi": 64,
      "hit": false,
      "t": 37826.12099999998,
      "d": 384.05831666666927,
      "v": 70
    },
    {
      "midi": 60,
      "hit": false,
      "t": 37826.12099999998,
      "d": 394.92789166666626,
      "v": 58
    },
    {
      "midi": 43,
      "hit": false,
      "t": 38043.51249999998,
      "d": 119.56532499999594,
      "v": 45
    },
    {
      "midi": 55,
      "hit": false,
      "t": 38043.51249999998,
      "d": 181.15958333332674,
      "v": 72
    },
    {
      "midi": 48,
      "hit": false,
      "t": 38043.51249999998,
      "d": 188.40596666665806,
      "v": 48
    },
    {
      "midi": 59,
      "hit": false,
      "t": 38260.90399999997,
      "d": 123.18851666666887,
      "v": 72
    },
    {
      "midi": 55,
      "hit": false,
      "t": 38260.90399999997,
      "d": 141.30447500000446,
      "v": 67
    },
    {
      "midi": 62,
      "hit": false,
      "t": 38260.90399999997,
      "d": 155.79724166667438,
      "v": 70
    },
    {
      "midi": 43,
      "hit": false,
      "t": 38260.90399999997,
      "d": 173.91320000000997,
      "v": 60
    },
    {
      "midi": 50,
      "hit": false,
      "t": 38260.90399999997,
      "d": 333.33363333335,
      "v": 54
    },
    {
      "midi": 59,
      "hit": false,
      "t": 38478.295499999986,
      "d": 79.71021666666638,
      "v": 46
    },
    {
      "midi": 43,
      "hit": false,
      "t": 38478.295499999986,
      "d": 83.33340833333205,
      "v": 69
    },
    {
      "midi": 55,
      "hit": false,
      "t": 38478.295499999986,
      "d": 86.9565999999977,
      "v": 60
    },
    {
      "midi": 62,
      "hit": false,
      "t": 38478.295499999986,
      "d": 101.44936666666763,
      "v": 63
    },
    {
      "midi": 50,
      "hit": false,
      "t": 38695.68699999999,
      "d": 97.82617500000197,
      "v": 51
    },
    {
      "midi": 43,
      "hit": false,
      "t": 38695.68699999999,
      "d": 119.56532500000321,
      "v": 64
    },
    {
      "midi": 55,
      "hit": false,
      "t": 38695.68699999999,
      "d": 123.18851666666887,
      "v": 55
    },
    {
      "midi": 62,
      "hit": false,
      "t": 38695.68699999999,
      "d": 152.17405000000144,
      "v": 60
    },
    {
      "midi": 59,
      "hit": false,
      "t": 38695.68699999999,
      "d": 163.04362499999843,
      "v": 63
    },
    {
      "midi": 77,
      "hit": false,
      "t": 38695.68699999999,
      "d": 264.49299166666606,
      "v": 60
    },
    {
      "midi": 74,
      "hit": false,
      "t": 38695.68699999999,
      "d": 268.1161833333317,
      "v": 60
    },
    {
      "midi": 59,
      "hit": false,
      "t": 38913.07849999999,
      "d": 130.4349000000002,
      "v": 62
    },
    {
      "midi": 55,
      "hit": false,
      "t": 38913.07849999999,
      "d": 144.92766666667012,
      "v": 49
    },
    {
      "midi": 62,
      "hit": false,
      "t": 38913.07849999999,
      "d": 163.0436250000057,
      "v": 60
    },
    {
      "midi": 43,
      "hit": false,
      "t": 38913.07849999999,
      "d": 311.5944833333415,
      "v": 56
    },
    {
      "midi": 50,
      "hit": false,
      "t": 38913.07849999999,
      "d": 322.46405833333847,
      "v": 54
    },
    {
      "midi": 77,
      "hit": false,
      "t": 39130.469999999994,
      "d": 50.724683333333815,
      "v": 67
    },
    {
      "midi": 74,
      "hit": false,
      "t": 39130.469999999994,
      "d": 54.347874999999476,
      "v": 53
    },
    {
      "midi": 59,
      "hit": false,
      "t": 39130.469999999994,
      "d": 123.18851666666887,
      "v": 56
    },
    {
      "midi": 55,
      "hit": false,
      "t": 39130.469999999994,
      "d": 137.6812833333388,
      "v": 53
    },
    {
      "midi": 62,
      "hit": false,
      "t": 39130.469999999994,
      "d": 163.0436250000057,
      "v": 60
    },
    {
      "midi": 50,
      "hit": false,
      "t": 39347.8615,
      "d": 76.08702500000072,
      "v": 45
    },
    {
      "midi": 43,
      "hit": false,
      "t": 39347.8615,
      "d": 83.33340833333205,
      "v": 46
    },
    {
      "midi": 59,
      "hit": false,
      "t": 39347.8615,
      "d": 108.69574999999895,
      "v": 56
    },
    {
      "midi": 55,
      "hit": false,
      "t": 39347.8615,
      "d": 115.94213333333028,
      "v": 52
    },
    {
      "midi": 62,
      "hit": false,
      "t": 39347.8615,
      "d": 141.30447499999718,
      "v": 51
    },
    {
      "midi": 74,
      "hit": false,
      "t": 39347.8615,
      "d": 333.3336333333282,
      "v": 66
    },
    {
      "midi": 77,
      "hit": false,
      "t": 39347.8615,
      "d": 340.5800166666595,
      "v": 72
    },
    {
      "midi": 59,
      "hit": false,
      "t": 39565.253,
      "d": 105.07255833333329,
      "v": 53
    },
    {
      "midi": 55,
      "hit": false,
      "t": 39565.253,
      "d": 108.69574999999895,
      "v": 50
    },
    {
      "midi": 62,
      "hit": false,
      "t": 39565.253,
      "d": 130.43489999999292,
      "v": 46
    },
    {
      "midi": 43,
      "hit": false,
      "t": 39565.253,
      "d": 141.3044749999899,
      "v": 68
    },
    {
      "midi": 50,
      "hit": false,
      "t": 39565.253,
      "d": 326.0872499999896,
      "v": 46
    },
    {
      "midi": 74,
      "hit": false,
      "t": 39782.64449999999,
      "d": 50.724683333333815,
      "v": 41
    },
    {
      "midi": 43,
      "hit": false,
      "t": 39782.64449999999,
      "d": 76.08702500000072,
      "v": 54
    },
    {
      "midi": 77,
      "hit": false,
      "t": 39782.64449999999,
      "d": 79.71021666666638,
      "v": 55
    },
    {
      "midi": 59,
      "hit": false,
      "t": 39782.64449999999,
      "d": 112.31894166666461,
      "v": 62
    },
    {
      "midi": 62,
      "hit": false,
      "t": 39782.64449999999,
      "d": 293.4785249999986,
      "v": 57
    },
    {
      "midi": 55,
      "hit": false,
      "t": 39782.64449999999,
      "d": 387.68150833332766,
      "v": 58
    },
    {
      "midi": 74,
      "hit": false,
      "t": 40000.035999999986,
      "d": 47.10149166666815,
      "v": 49
    },
    {
      "midi": 77,
      "hit": false,
      "t": 40000.035999999986,
      "d": 79.71021666666638,
      "v": 78
    },
    {
      "midi": 59,
      "hit": false,
      "t": 40000.035999999986,
      "d": 152.17405000000144,
      "v": 45
    },
    {
      "midi": 43,
      "hit": false,
      "t": 40000.035999999986,
      "d": 163.04362499999843,
      "v": 61
    },
    {
      "midi": 50,
      "hit": false,
      "t": 40000.035999999986,
      "d": 293.4785249999986,
      "v": 46
    },
    {
      "midi": 43,
      "hit": false,
      "t": 40217.42749999998,
      "d": 76.08702500000072,
      "v": 49
    },
    {
      "midi": 59,
      "hit": false,
      "t": 40217.42749999998,
      "d": 119.56532500000321,
      "v": 56
    },
    {
      "midi": 55,
      "hit": false,
      "t": 40217.42749999998,
      "d": 137.6812833333388,
      "v": 56
    },
    {
      "midi": 62,
      "hit": false,
      "t": 40217.42749999998,
      "d": 141.30447500000446,
      "v": 59
    },
    {
      "midi": 74,
      "hit": false,
      "t": 40217.42749999998,
      "d": 293.4785250000059,
      "v": 62
    },
    {
      "midi": 77,
      "hit": false,
      "t": 40217.42749999998,
      "d": 311.5944833333415,
      "v": 68
    },
    {
      "midi": 50,
      "hit": false,
      "t": 40434.81899999999,
      "d": 94.2029833333363,
      "v": 46
    },
    {
      "midi": 59,
      "hit": false,
      "t": 40434.81899999999,
      "d": 101.44936666666763,
      "v": 54
    },
    {
      "midi": 55,
      "hit": false,
      "t": 40434.81899999999,
      "d": 105.07255833333329,
      "v": 56
    },
    {
      "midi": 62,
      "hit": false,
      "t": 40434.81899999999,
      "d": 115.94213333333028,
      "v": 60
    },
    {
      "midi": 43,
      "hit": false,
      "t": 40434.81899999999,
      "d": 163.04362499999843,
      "v": 66
    },
    {
      "midi": 74,
      "hit": false,
      "t": 40652.21049999999,
      "d": 47.10149166666815,
      "v": 41
    },
    {
      "midi": 77,
      "hit": false,
      "t": 40652.21049999999,
      "d": 61.594258333338075,
      "v": 58
    },
    {
      "midi": 43,
      "hit": false,
      "t": 40652.21049999999,
      "d": 83.33340833333932,
      "v": 58
    },
    {
      "midi": 55,
      "hit": false,
      "t": 40652.21049999999,
      "d": 318.8408666666728,
      "v": 54
    },
    {
      "midi": 62,
      "hit": false,
      "t": 40652.21049999999,
      "d": 318.8408666666728,
      "v": 65
    },
    {
      "midi": 59,
      "hit": false,
      "t": 40652.21049999999,
      "d": 329.7104416666698,
      "v": 56
    },
    {
      "midi": 50,
      "hit": false,
      "t": 40652.21049999999,
      "d": 355.0727833333367,
      "v": 50
    },
    {
      "midi": 74,
      "hit": false,
      "t": 40869.60199999999,
      "d": 86.9565999999977,
      "v": 57
    },
    {
      "midi": 77,
      "hit": false,
      "t": 40869.60199999999,
      "d": 105.07255833333329,
      "v": 71
    },
    {
      "midi": 43,
      "hit": false,
      "t": 40869.60199999999,
      "d": 152.17405000000144,
      "v": 56
    },
    {
      "midi": 74,
      "hit": false,
      "t": 41086.99349999999,
      "d": 54.347874999999476,
      "v": 49
    },
    {
      "midi": 77,
      "hit": false,
      "t": 41086.99349999999,
      "d": 79.71021666666638,
      "v": 56
    },
    {
      "midi": 43,
      "hit": false,
      "t": 41086.99349999999,
      "d": 83.33340833333205,
      "v": 63
    },
    {
      "midi": 50,
      "hit": false,
      "t": 41086.99349999999,
      "d": 94.20298333332903,
      "v": 49
    },
    {
      "midi": 59,
      "hit": false,
      "t": 41086.99349999999,
      "d": 115.94213333333028,
      "v": 45
    },
    {
      "midi": 55,
      "hit": false,
      "t": 41086.99349999999,
      "d": 141.30447499999718,
      "v": 49
    },
    {
      "midi": 62,
      "hit": false,
      "t": 41086.99349999999,
      "d": 159.42043333333277,
      "v": 53
    },
    {
      "midi": 74,
      "hit": false,
      "t": 41304.38499999999,
      "d": 47.10149166666815,
      "v": 59
    },
    {
      "midi": 77,
      "hit": false,
      "t": 41304.38499999999,
      "d": 76.08702500000072,
      "v": 68
    },
    {
      "midi": 55,
      "hit": false,
      "t": 41304.38499999999,
      "d": 119.56532500000321,
      "v": 64
    },
    {
      "midi": 43,
      "hit": false,
      "t": 41304.38499999999,
      "d": 141.30447500000446,
      "v": 65
    },
    {
      "midi": 50,
      "hit": false,
      "t": 41304.38499999999,
      "d": 173.9132000000027,
      "v": 48
    },
    {
      "midi": 62,
      "hit": false,
      "t": 41304.38499999999,
      "d": 384.05831666667655,
      "v": 70
    },
    {
      "midi": 59,
      "hit": false,
      "t": 41304.38499999999,
      "d": 394.92789166667353,
      "v": 58
    },
    {
      "midi": 74,
      "hit": false,
      "t": 41521.77649999999,
      "d": 76.08702500000072,
      "v": 52
    },
    {
      "midi": 50,
      "hit": false,
      "t": 41521.77649999999,
      "d": 119.56532500000321,
      "v": 45
    },
    {
      "midi": 77,
      "hit": false,
      "t": 41521.77649999999,
      "d": 123.18851666666887,
      "v": 59
    },
    {
      "midi": 55,
      "hit": false,
      "t": 41521.77649999999,
      "d": 181.159583333334,
      "v": 72
    },
    {
      "midi": 43,
      "hit": false,
      "t": 41521.77649999999,
      "d": 188.40596666666534,
      "v": 45
    },
    {
      "midi": 60,
      "hit": false,
      "t": 41739.16799999999,
      "d": 123.18851666666887,
      "v": 72
    },
    {
      "midi": 55,
      "hit": false,
      "t": 41739.16799999999,
      "d": 141.30447500000446,
      "v": 67
    },
    {
      "midi": 64,
      "hit": false,
      "t": 41739.16799999999,
      "d": 155.79724166667438,
      "v": 70
    },
    {
      "midi": 48,
      "hit": false,
      "t": 41739.16799999999,
      "d": 173.91320000000997,
      "v": 65
    },
    {
      "midi": 72,
      "hit": false,
      "t": 41739.16799999999,
      "d": 268.11618333334627,
      "v": 56
    },
    {
      "midi": 76,
      "hit": false,
      "t": 41739.16799999999,
      "d": 293.4785250000132,
      "v": 74
    },
    {
      "midi": 43,
      "hit": false,
      "t": 41739.16799999999,
      "d": 333.33363333335,
      "v": 54
    },
    {
      "midi": 60,
      "hit": false,
      "t": 41956.5595,
      "d": 79.71021666666638,
      "v": 46
    },
    {
      "midi": 48,
      "hit": false,
      "t": 41956.5595,
      "d": 83.33340833333205,
      "v": 75
    },
    {
      "midi": 55,
      "hit": false,
      "t": 41956.5595,
      "d": 86.9565999999977,
      "v": 60
    },
    {
      "midi": 64,
      "hit": false,
      "t": 41956.5595,
      "d": 101.44936666666763,
      "v": 63
    },
    {
      "midi": 43,
      "hit": false,
      "t": 42173.95100000001,
      "d": 97.82617500000197,
      "v": 51
    },
    {
      "midi": 48,
      "hit": false,
      "t": 42173.95100000001,
      "d": 119.56532500000321,
      "v": 69
    },
    {
      "midi": 55,
      "hit": false,
      "t": 42173.95100000001,
      "d": 123.18851666666887,
      "v": 55
    },
    {
      "midi": 64,
      "hit": false,
      "t": 42173.95100000001,
      "d": 152.17405000000144,
      "v": 60
    },
    {
      "midi": 60,
      "hit": false,
      "t": 42173.95100000001,
      "d": 163.04362499999843,
      "v": 63
    },
    {
      "midi": 72,
      "hit": false,
      "t": 42173.95100000001,
      "d": 275.36256666666304,
      "v": 63
    },
    {
      "midi": 76,
      "hit": false,
      "t": 42173.95100000001,
      "d": 297.1017166666643,
      "v": 64
    },
    {
      "midi": 60,
      "hit": false,
      "t": 42391.342500000006,
      "d": 130.4349000000002,
      "v": 62
    },
    {
      "midi": 55,
      "hit": false,
      "t": 42391.342500000006,
      "d": 144.92766666667012,
      "v": 49
    },
    {
      "midi": 64,
      "hit": false,
      "t": 42391.342500000006,
      "d": 163.0436250000057,
      "v": 60
    },
    {
      "midi": 48,
      "hit": false,
      "t": 42391.342500000006,
      "d": 311.5944833333342,
      "v": 61
    },
    {
      "midi": 43,
      "hit": false,
      "t": 42391.342500000006,
      "d": 322.4640583333312,
      "v": 54
    },
    {
      "midi": 72,
      "hit": false,
      "t": 42608.73400000001,
      "d": 50.724683333333815,
      "v": 51
    },
    {
      "midi": 76,
      "hit": false,
      "t": 42608.73400000001,
      "d": 83.33340833333205,
      "v": 60
    },
    {
      "midi": 60,
      "hit": false,
      "t": 42608.73400000001,
      "d": 123.1885166666616,
      "v": 56
    },
    {
      "midi": 55,
      "hit": false,
      "t": 42608.73400000001,
      "d": 137.68128333333152,
      "v": 53
    },
    {
      "midi": 64,
      "hit": false,
      "t": 42608.73400000001,
      "d": 163.04362499999843,
      "v": 60
    },
    {
      "midi": 43,
      "hit": false,
      "t": 42826.12550000001,
      "d": 76.08702500000072,
      "v": 45
    },
    {
      "midi": 48,
      "hit": false,
      "t": 42826.12550000001,
      "d": 83.33340833333205,
      "v": 49
    },
    {
      "midi": 60,
      "hit": false,
      "t": 42826.12550000001,
      "d": 108.69574999999895,
      "v": 56
    },
    {
      "midi": 55,
      "hit": false,
      "t": 42826.12550000001,
      "d": 115.94213333333028,
      "v": 52
    },
    {
      "midi": 64,
      "hit": false,
      "t": 42826.12550000001,
      "d": 141.30447499999718,
      "v": 51
    },
    {
      "midi": 72,
      "hit": false,
      "t": 42826.12550000001,
      "d": 253.6234166666618,
      "v": 70
    },
    {
      "midi": 76,
      "hit": false,
      "t": 42826.12550000001,
      "d": 286.23214166666,
      "v": 62
    },
    {
      "midi": 60,
      "hit": false,
      "t": 43043.51700000001,
      "d": 105.07255833332601,
      "v": 53
    },
    {
      "midi": 55,
      "hit": false,
      "t": 43043.51700000001,
      "d": 108.69574999999168,
      "v": 50
    },
    {
      "midi": 64,
      "hit": false,
      "t": 43043.51700000001,
      "d": 130.43489999999292,
      "v": 46
    },
    {
      "midi": 48,
      "hit": false,
      "t": 43043.51700000001,
      "d": 141.3044749999899,
      "v": 74
    },
    {
      "midi": 43,
      "hit": false,
      "t": 43043.51700000001,
      "d": 326.0872499999896,
      "v": 46
    },
    {
      "midi": 72,
      "hit": false,
      "t": 43260.9085,
      "d": 68.8406416666694,
      "v": 57
    },
    {
      "midi": 48,
      "hit": false,
      "t": 43260.9085,
      "d": 76.08702500000072,
      "v": 58
    },
    {
      "midi": 60,
      "hit": false,
      "t": 43260.9085,
      "d": 112.31894166666461,
      "v": 62
    },
    {
      "midi": 64,
      "hit": false,
      "t": 43260.9085,
      "d": 293.4785249999986,
      "v": 57
    },
    {
      "midi": 76,
      "hit": false,
      "t": 43260.9085,
      "d": 369.56554999999935,
      "v": 57
    },
    {
      "midi": 55,
      "hit": false,
      "t": 43260.9085,
      "d": 387.68150833332766,
      "v": 58
    },
    {
      "midi": 60,
      "hit": false,
      "t": 43478.299999999996,
      "d": 152.17405000000144,
      "v": 45
    },
    {
      "midi": 48,
      "hit": false,
      "t": 43478.299999999996,
      "d": 163.04362499999843,
      "v": 66
    },
    {
      "midi": 72,
      "hit": false,
      "t": 43478.299999999996,
      "d": 202.89873333332798,
      "v": 28
    },
    {
      "midi": 43,
      "hit": false,
      "t": 43478.299999999996,
      "d": 293.4785249999986,
      "v": 46
    },
    {
      "midi": 48,
      "hit": false,
      "t": 43695.69149999999,
      "d": 76.08702500000072,
      "v": 53
    },
    {
      "midi": 72,
      "hit": false,
      "t": 43695.69149999999,
      "d": 97.82617500000197,
      "v": 55
    },
    {
      "midi": 76,
      "hit": false,
      "t": 43695.69149999999,
      "d": 105.07255833333329,
      "v": 55
    },
    {
      "midi": 60,
      "hit": false,
      "t": 43695.69149999999,
      "d": 119.56532500000321,
      "v": 56
    },
    {
      "midi": 55,
      "hit": false,
      "t": 43695.69149999999,
      "d": 137.6812833333388,
      "v": 56
    },
    {
      "midi": 64,
      "hit": false,
      "t": 43695.69149999999,
      "d": 141.30447500000446,
      "v": 59
    },
    {
      "midi": 43,
      "hit": false,
      "t": 43913.083,
      "d": 94.2029833333363,
      "v": 46
    },
    {
      "midi": 60,
      "hit": false,
      "t": 43913.083,
      "d": 101.44936666666763,
      "v": 54
    },
    {
      "midi": 55,
      "hit": false,
      "t": 43913.083,
      "d": 105.07255833333329,
      "v": 56
    },
    {
      "midi": 64,
      "hit": false,
      "t": 43913.083,
      "d": 115.94213333333028,
      "v": 60
    },
    {
      "midi": 48,
      "hit": false,
      "t": 43913.083,
      "d": 163.04362499999843,
      "v": 72
    },
    {
      "midi": 72,
      "hit": false,
      "t": 43913.083,
      "d": 275.36256666666304,
      "v": 62
    },
    {
      "midi": 76,
      "hit": false,
      "t": 43913.083,
      "d": 278.9857583333287,
      "v": 48
    },
    {
      "midi": 48,
      "hit": false,
      "t": 44130.4745,
      "d": 83.33340833333205,
      "v": 63
    },
    {
      "midi": 55,
      "hit": false,
      "t": 44130.4745,
      "d": 318.84086666666553,
      "v": 54
    },
    {
      "midi": 64,
      "hit": false,
      "t": 44130.4745,
      "d": 318.84086666666553,
      "v": 65
    },
    {
      "midi": 60,
      "hit": false,
      "t": 44130.4745,
      "d": 329.7104416666625,
      "v": 56
    },
    {
      "midi": 43,
      "hit": false,
      "t": 44130.4745,
      "d": 355.0727833333294,
      "v": 50
    },
    {
      "midi": 72,
      "hit": false,
      "t": 44347.865999999995,
      "d": 105.07255833333329,
      "v": 54
    },
    {
      "midi": 76,
      "hit": false,
      "t": 44347.865999999995,
      "d": 119.56532499999594,
      "v": 55
    },
    {
      "midi": 48,
      "hit": false,
      "t": 44347.865999999995,
      "d": 152.17405000000144,
      "v": 61
    },
    {
      "midi": 72,
      "hit": false,
      "t": 44565.25749999999,
      "d": 57.97106666666514,
      "v": 50
    },
    {
      "midi": 76,
      "hit": false,
      "t": 44565.25749999999,
      "d": 68.84064166666212,
      "v": 49
    },
    {
      "midi": 48,
      "hit": false,
      "t": 44565.25749999999,
      "d": 83.33340833333205,
      "v": 68
    },
    {
      "midi": 43,
      "hit": false,
      "t": 44565.25749999999,
      "d": 94.20298333332903,
      "v": 49
    },
    {
      "midi": 60,
      "hit": false,
      "t": 44565.25749999999,
      "d": 115.94213333333028,
      "v": 45
    },
    {
      "midi": 55,
      "hit": false,
      "t": 44565.25749999999,
      "d": 141.30447499999718,
      "v": 49
    },
    {
      "midi": 64,
      "hit": false,
      "t": 44565.25749999999,
      "d": 159.42043333333277,
      "v": 53
    },
    {
      "midi": 55,
      "hit": false,
      "t": 44782.64899999999,
      "d": 119.56532500000321,
      "v": 64
    },
    {
      "midi": 48,
      "hit": false,
      "t": 44782.64899999999,
      "d": 141.30447500000446,
      "v": 70
    },
    {
      "midi": 43,
      "hit": false,
      "t": 44782.64899999999,
      "d": 173.9132000000027,
      "v": 48
    },
    {
      "midi": 72,
      "hit": false,
      "t": 44782.64899999999,
      "d": 297.10171666667156,
      "v": 70
    },
    {
      "midi": 76,
      "hit": false,
      "t": 44782.64899999999,
      "d": 300.7249083333372,
      "v": 67
    },
    {
      "midi": 64,
      "hit": false,
      "t": 44782.64899999999,
      "d": 384.05831666666927,
      "v": 70
    },
    {
      "midi": 60,
      "hit": false,
      "t": 44782.64899999999,
      "d": 394.92789166666626,
      "v": 58
    },
    {
      "midi": 43,
      "hit": false,
      "t": 45000.040499999996,
      "d": 119.56532499999594,
      "v": 45
    },
    {
      "midi": 55,
      "hit": false,
      "t": 45000.040499999996,
      "d": 181.15958333332674,
      "v": 72
    },
    {
      "midi": 48,
      "hit": false,
      "t": 45000.040499999996,
      "d": 188.40596666665806,
      "v": 48
    },
    {
      "midi": 62,
      "hit": false,
      "t": 45217.431999999986,
      "d": 123.18851666666887,
      "v": 72
    },
    {
      "midi": 57,
      "hit": false,
      "t": 45217.431999999986,
      "d": 141.30447500000446,
      "v": 67
    },
    {
      "midi": 66,
      "hit": false,
      "t": 45217.431999999986,
      "d": 155.79724166667438,
      "v": 70
    },
    {
      "midi": 50,
      "hit": false,
      "t": 45217.431999999986,
      "d": 173.91320000000997,
      "v": 65
    },
    {
      "midi": 78,
      "hit": false,
      "t": 45217.431999999986,
      "d": 231.88426666668238,
      "v": 48
    },
    {
      "midi": 74,
      "hit": false,
      "t": 45217.431999999986,
      "d": 253.62341666668362,
      "v": 49
    },
    {
      "midi": 45,
      "hit": false,
      "t": 45217.431999999986,
      "d": 333.3336333333573,
      "v": 54
    },
    {
      "midi": 62,
      "hit": false,
      "t": 45434.8235,
      "d": 79.71021666667366,
      "v": 46
    },
    {
      "midi": 50,
      "hit": false,
      "t": 45434.8235,
      "d": 83.33340833333932,
      "v": 75
    },
    {
      "midi": 57,
      "hit": false,
      "t": 45434.8235,
      "d": 86.95660000000498,
      "v": 60
    },
    {
      "midi": 66,
      "hit": false,
      "t": 45434.8235,
      "d": 101.4493666666749,
      "v": 63
    },
    {
      "midi": 45,
      "hit": false,
      "t": 45652.21500000001,
      "d": 97.82617500000197,
      "v": 51
    },
    {
      "midi": 50,
      "hit": false,
      "t": 45652.21500000001,
      "d": 119.56532500000321,
      "v": 69
    },
    {
      "midi": 57,
      "hit": false,
      "t": 45652.21500000001,
      "d": 123.18851666666887,
      "v": 55
    },
    {
      "midi": 66,
      "hit": false,
      "t": 45652.21500000001,
      "d": 152.17405000000144,
      "v": 60
    },
    {
      "midi": 62,
      "hit": false,
      "t": 45652.21500000001,
      "d": 163.04362499999843,
      "v": 63
    },
    {
      "midi": 74,
      "hit": false,
      "t": 45652.21500000001,
      "d": 318.84086666666553,
      "v": 54
    },
    {
      "midi": 78,
      "hit": false,
      "t": 45652.21500000001,
      "d": 326.08724999999686,
      "v": 58
    },
    {
      "midi": 62,
      "hit": false,
      "t": 45869.60650000001,
      "d": 130.4349000000002,
      "v": 62
    },
    {
      "midi": 57,
      "hit": false,
      "t": 45869.60650000001,
      "d": 144.92766666667012,
      "v": 49
    },
    {
      "midi": 66,
      "hit": false,
      "t": 45869.60650000001,
      "d": 163.0436250000057,
      "v": 60
    },
    {
      "midi": 50,
      "hit": false,
      "t": 45869.60650000001,
      "d": 311.5944833333415,
      "v": 61
    },
    {
      "midi": 45,
      "hit": false,
      "t": 45869.60650000001,
      "d": 322.46405833333847,
      "v": 54
    },
    {
      "midi": 74,
      "hit": false,
      "t": 46086.998000000014,
      "d": 54.347874999999476,
      "v": 42
    },
    {
      "midi": 78,
      "hit": false,
      "t": 46086.998000000014,
      "d": 79.71021666666638,
      "v": 54
    },
    {
      "midi": 62,
      "hit": false,
      "t": 46086.998000000014,
      "d": 123.18851666666887,
      "v": 56
    },
    {
      "midi": 57,
      "hit": false,
      "t": 46086.998000000014,
      "d": 137.6812833333388,
      "v": 53
    },
    {
      "midi": 66,
      "hit": false,
      "t": 46086.998000000014,
      "d": 163.0436250000057,
      "v": 60
    },
    {
      "midi": 45,
      "hit": false,
      "t": 46304.38950000002,
      "d": 76.08702500000072,
      "v": 45
    },
    {
      "midi": 50,
      "hit": false,
      "t": 46304.38950000002,
      "d": 83.33340833333205,
      "v": 49
    },
    {
      "midi": 62,
      "hit": false,
      "t": 46304.38950000002,
      "d": 108.69574999999895,
      "v": 56
    },
    {
      "midi": 57,
      "hit": false,
      "t": 46304.38950000002,
      "d": 115.94213333333028,
      "v": 52
    },
    {
      "midi": 66,
      "hit": false,
      "t": 46304.38950000002,
      "d": 141.30447499999718,
      "v": 51
    },
    {
      "midi": 78,
      "hit": false,
      "t": 46304.38950000002,
      "d": 286.2321416666673,
      "v": 62
    },
    {
      "midi": 74,
      "hit": false,
      "t": 46304.38950000002,
      "d": 315.2176749999999,
      "v": 51
    },
    {
      "midi": 62,
      "hit": false,
      "t": 46521.78100000002,
      "d": 105.07255833333329,
      "v": 53
    },
    {
      "midi": 57,
      "hit": false,
      "t": 46521.78100000002,
      "d": 108.69574999999895,
      "v": 50
    },
    {
      "midi": 66,
      "hit": false,
      "t": 46521.78100000002,
      "d": 130.4349000000002,
      "v": 46
    },
    {
      "midi": 50,
      "hit": false,
      "t": 46521.78100000002,
      "d": 141.30447499999718,
      "v": 74
    },
    {
      "midi": 45,
      "hit": false,
      "t": 46521.78100000002,
      "d": 326.08724999999686,
      "v": 46
    },
    {
      "midi": 50,
      "hit": false,
      "t": 46739.172500000015,
      "d": 76.08702500000072,
      "v": 58
    },
    {
      "midi": 62,
      "hit": false,
      "t": 46739.172500000015,
      "d": 112.31894166666461,
      "v": 62
    },
    {
      "midi": 66,
      "hit": false,
      "t": 46739.172500000015,
      "d": 293.4785249999986,
      "v": 57
    },
    {
      "midi": 78,
      "hit": false,
      "t": 46739.172500000015,
      "d": 315.2176749999999,
      "v": 74
    },
    {
      "midi": 57,
      "hit": false,
      "t": 46739.172500000015,
      "d": 387.68150833332766,
      "v": 58
    },
    {
      "midi": 74,
      "hit": false,
      "t": 46739.172500000015,
      "d": 1851.4509416666551,
      "v": 47
    },
    {
      "midi": 62,
      "hit": false,
      "t": 46956.56400000001,
      "d": 152.17405000000144,
      "v": 45
    },
    {
      "midi": 50,
      "hit": false,
      "t": 46956.56400000001,
      "d": 163.04362499999843,
      "v": 66
    },
    {
      "midi": 45,
      "hit": false,
      "t": 46956.56400000001,
      "d": 293.4785249999986,
      "v": 46
    },
    {
      "midi": 78,
      "hit": false,
      "t": 47173.95550000001,
      "d": 72.46383333333506,
      "v": 55
    },
    {
      "midi": 50,
      "hit": false,
      "t": 47173.95550000001,
      "d": 76.08702500000072,
      "v": 53
    },
    {
      "midi": 62,
      "hit": false,
      "t": 47173.95550000001,
      "d": 119.56532500000321,
      "v": 56
    },
    {
      "midi": 57,
      "hit": false,
      "t": 47173.95550000001,
      "d": 137.6812833333388,
      "v": 56
    },
    {
      "midi": 66,
      "hit": false,
      "t": 47173.95550000001,
      "d": 141.30447500000446,
      "v": 59
    },
    {
      "midi": 78,
      "hit": false,
      "t": 47391.347000000016,
      "d": 86.9565999999977,
      "v": 51
    },
    {
      "midi": 45,
      "hit": false,
      "t": 47391.347000000016,
      "d": 94.20298333332903,
      "v": 46
    },
    {
      "midi": 62,
      "hit": false,
      "t": 47391.347000000016,
      "d": 101.44936666666035,
      "v": 54
    },
    {
      "midi": 57,
      "hit": false,
      "t": 47391.347000000016,
      "d": 105.07255833332601,
      "v": 56
    },
    {
      "midi": 66,
      "hit": false,
      "t": 47391.347000000016,
      "d": 115.942133333323,
      "v": 60
    },
    {
      "midi": 50,
      "hit": false,
      "t": 47391.347000000016,
      "d": 163.04362499999115,
      "v": 72
    },
    {
      "midi": 78,
      "hit": false,
      "t": 47608.73850000001,
      "d": 76.08702500000072,
      "v": 73
    },
    {
      "midi": 50,
      "hit": false,
      "t": 47608.73850000001,
      "d": 83.33340833333205,
      "v": 63
    },
    {
      "midi": 57,
      "hit": false,
      "t": 47608.73850000001,
      "d": 318.84086666666553,
      "v": 54
    },
    {
      "midi": 66,
      "hit": false,
      "t": 47608.73850000001,
      "d": 318.84086666666553,
      "v": 65
    },
    {
      "midi": 62,
      "hit": false,
      "t": 47608.73850000001,
      "d": 329.7104416666625,
      "v": 56
    },
    {
      "midi": 45,
      "hit": false,
      "t": 47608.73850000001,
      "d": 355.0727833333294,
      "v": 50
    },
    {
      "midi": 50,
      "hit": false,
      "t": 47826.130000000005,
      "d": 152.17405000000144,
      "v": 61
    },
    {
      "midi": 50,
      "hit": false,
      "t": 48043.5215,
      "d": 83.33340833333205,
      "v": 68
    },
    {
      "midi": 78,
      "hit": false,
      "t": 48043.5215,
      "d": 90.57979166666337,
      "v": 52
    },
    {
      "midi": 45,
      "hit": false,
      "t": 48043.5215,
      "d": 94.20298333332903,
      "v": 49
    },
    {
      "midi": 62,
      "hit": false,
      "t": 48043.5215,
      "d": 115.94213333333028,
      "v": 45
    },
    {
      "midi": 57,
      "hit": false,
      "t": 48043.5215,
      "d": 141.30447499999718,
      "v": 49
    },
    {
      "midi": 66,
      "hit": false,
      "t": 48043.5215,
      "d": 159.42043333333277,
      "v": 53
    },
    {
      "midi": 78,
      "hit": false,
      "t": 48260.913,
      "d": 47.10149166666815,
      "v": 47
    },
    {
      "midi": 57,
      "hit": false,
      "t": 48260.913,
      "d": 119.56532500000321,
      "v": 64
    },
    {
      "midi": 50,
      "hit": false,
      "t": 48260.913,
      "d": 141.30447500000446,
      "v": 70
    },
    {
      "midi": 45,
      "hit": false,
      "t": 48260.913,
      "d": 173.9132000000027,
      "v": 48
    },
    {
      "midi": 66,
      "hit": false,
      "t": 48260.913,
      "d": 384.05831666666927,
      "v": 70
    },
    {
      "midi": 62,
      "hit": false,
      "t": 48260.913,
      "d": 394.92789166666626,
      "v": 58
    },
    {
      "midi": 78,
      "hit": false,
      "t": 48478.304500000006,
      "d": 79.71021666666638,
      "v": 80
    },
    {
      "midi": 45,
      "hit": false,
      "t": 48478.304500000006,
      "d": 119.56532499999594,
      "v": 45
    },
    {
      "midi": 57,
      "hit": false,
      "t": 48478.304500000006,
      "d": 181.15958333332674,
      "v": 72
    },
    {
      "midi": 50,
      "hit": false,
      "t": 48478.304500000006,
      "d": 188.40596666665806,
      "v": 48
    },
    {
      "midi": 59,
      "hit": false,
      "t": 48695.695999999996,
      "d": 123.18851666666887,
      "v": 72
    },
    {
      "midi": 55,
      "hit": false,
      "t": 48695.695999999996,
      "d": 141.30447500000446,
      "v": 67
    },
    {
      "midi": 62,
      "hit": false,
      "t": 48695.695999999996,
      "d": 155.79724166667438,
      "v": 70
    },
    {
      "midi": 43,
      "hit": false,
      "t": 48695.695999999996,
      "d": 173.91320000000997,
      "v": 60
    },
    {
      "midi": 77,
      "hit": false,
      "t": 48695.695999999996,
      "d": 282.6089500000089,
      "v": 56
    },
    {
      "midi": 74,
      "hit": false,
      "t": 48695.695999999996,
      "d": 289.85533333334024,
      "v": 56
    },
    {
      "midi": 50,
      "hit": false,
      "t": 48695.695999999996,
      "d": 333.33363333334273,
      "v": 54
    },
    {
      "midi": 59,
      "hit": false,
      "t": 48913.08750000001,
      "d": 79.71021666665911,
      "v": 46
    },
    {
      "midi": 43,
      "hit": false,
      "t": 48913.08750000001,
      "d": 83.33340833332477,
      "v": 69
    },
    {
      "midi": 55,
      "hit": false,
      "t": 48913.08750000001,
      "d": 86.95659999999043,
      "v": 60
    },
    {
      "midi": 62,
      "hit": false,
      "t": 48913.08750000001,
      "d": 101.44936666666035,
      "v": 63
    },
    {
      "midi": 50,
      "hit": false,
      "t": 49130.47900000001,
      "d": 97.82617500000197,
      "v": 51
    },
    {
      "midi": 43,
      "hit": false,
      "t": 49130.47900000001,
      "d": 119.56532500000321,
      "v": 64
    },
    {
      "midi": 55,
      "hit": false,
      "t": 49130.47900000001,
      "d": 123.18851666666887,
      "v": 55
    },
    {
      "midi": 62,
      "hit": false,
      "t": 49130.47900000001,
      "d": 152.17405000000144,
      "v": 60
    },
    {
      "midi": 59,
      "hit": false,
      "t": 49130.47900000001,
      "d": 163.04362499999843,
      "v": 63
    },
    {
      "midi": 74,
      "hit": false,
      "t": 49130.47900000001,
      "d": 311.5944833333342,
      "v": 52
    },
    {
      "midi": 77,
      "hit": false,
      "t": 49130.47900000001,
      "d": 318.84086666666553,
      "v": 59
    },
    {
      "midi": 59,
      "hit": false,
      "t": 49347.870500000005,
      "d": 130.4349000000002,
      "v": 62
    },
    {
      "midi": 55,
      "hit": false,
      "t": 49347.870500000005,
      "d": 144.92766666667012,
      "v": 49
    },
    {
      "midi": 62,
      "hit": false,
      "t": 49347.870500000005,
      "d": 163.0436250000057,
      "v": 60
    },
    {
      "midi": 43,
      "hit": false,
      "t": 49347.870500000005,
      "d": 311.5944833333415,
      "v": 56
    },
    {
      "midi": 50,
      "hit": false,
      "t": 49347.870500000005,
      "d": 322.46405833333847,
      "v": 54
    },
    {
      "midi": 74,
      "hit": false,
      "t": 49565.26200000001,
      "d": 47.10149166666815,
      "v": 39
    },
    {
      "midi": 77,
      "hit": false,
      "t": 49565.26200000001,
      "d": 76.08702500000072,
      "v": 61
    },
    {
      "midi": 59,
      "hit": false,
      "t": 49565.26200000001,
      "d": 123.18851666666887,
      "v": 56
    },
    {
      "midi": 55,
      "hit": false,
      "t": 49565.26200000001,
      "d": 137.6812833333388,
      "v": 53
    },
    {
      "midi": 62,
      "hit": false,
      "t": 49565.26200000001,
      "d": 163.0436250000057,
      "v": 60
    },
    {
      "midi": 50,
      "hit": false,
      "t": 49782.653500000015,
      "d": 76.08702500000072,
      "v": 45
    },
    {
      "midi": 43,
      "hit": false,
      "t": 49782.653500000015,
      "d": 83.33340833333205,
      "v": 46
    },
    {
      "midi": 59,
      "hit": false,
      "t": 49782.653500000015,
      "d": 108.69574999999895,
      "v": 56
    },
    {
      "midi": 55,
      "hit": false,
      "t": 49782.653500000015,
      "d": 115.94213333333028,
      "v": 52
    },
    {
      "midi": 62,
      "hit": false,
      "t": 49782.653500000015,
      "d": 141.30447499999718,
      "v": 51
    },
    {
      "midi": 74,
      "hit": false,
      "t": 49782.653500000015,
      "d": 333.3336333333282,
      "v": 49
    },
    {
      "midi": 77,
      "hit": false,
      "t": 49782.653500000015,
      "d": 347.8263999999981,
      "v": 57
    },
    {
      "midi": 59,
      "hit": false,
      "t": 50000.04500000001,
      "d": 105.07255833333329,
      "v": 53
    },
    {
      "midi": 55,
      "hit": false,
      "t": 50000.04500000001,
      "d": 108.69574999999895,
      "v": 50
    },
    {
      "midi": 62,
      "hit": false,
      "t": 50000.04500000001,
      "d": 130.4349000000002,
      "v": 46
    },
    {
      "midi": 43,
      "hit": false,
      "t": 50000.04500000001,
      "d": 141.30447499999718,
      "v": 68
    },
    {
      "midi": 50,
      "hit": false,
      "t": 50000.04500000001,
      "d": 326.08724999999686,
      "v": 46
    },
    {
      "midi": 43,
      "hit": false,
      "t": 50217.43650000001,
      "d": 76.08702500000072,
      "v": 54
    },
    {
      "midi": 59,
      "hit": false,
      "t": 50217.43650000001,
      "d": 112.31894166666461,
      "v": 62
    },
    {
      "midi": 62,
      "hit": false,
      "t": 50217.43650000001,
      "d": 293.4785249999986,
      "v": 57
    },
    {
      "midi": 74,
      "hit": false,
      "t": 50217.43650000001,
      "d": 322.4640583333312,
      "v": 47
    },
    {
      "midi": 77,
      "hit": false,
      "t": 50217.43650000001,
      "d": 329.7104416666625,
      "v": 50
    },
    {
      "midi": 55,
      "hit": false,
      "t": 50217.43650000001,
      "d": 387.68150833332766,
      "v": 58
    },
    {
      "midi": 59,
      "hit": false,
      "t": 50434.82800000001,
      "d": 152.17405000000144,
      "v": 45
    },
    {
      "midi": 43,
      "hit": false,
      "t": 50434.82800000001,
      "d": 163.04362499999843,
      "v": 61
    },
    {
      "midi": 50,
      "hit": false,
      "t": 50434.82800000001,
      "d": 293.4785249999986,
      "v": 46
    },
    {
      "midi": 43,
      "hit": false,
      "t": 50652.21950000001,
      "d": 76.08702500000072,
      "v": 49
    },
    {
      "midi": 59,
      "hit": false,
      "t": 50652.21950000001,
      "d": 119.56532500000321,
      "v": 56
    },
    {
      "midi": 55,
      "hit": false,
      "t": 50652.21950000001,
      "d": 137.6812833333388,
      "v": 56
    },
    {
      "midi": 62,
      "hit": false,
      "t": 50652.21950000001,
      "d": 141.30447500000446,
      "v": 59
    },
    {
      "midi": 74,
      "hit": false,
      "t": 50652.21950000001,
      "d": 253.62341666666907,
      "v": 52
    },
    {
      "midi": 77,
      "hit": false,
      "t": 50652.21950000001,
      "d": 275.3625666666703,
      "v": 72
    },
    {
      "midi": 50,
      "hit": false,
      "t": 50869.61100000001,
      "d": 94.20298333332903,
      "v": 46
    },
    {
      "midi": 59,
      "hit": false,
      "t": 50869.61100000001,
      "d": 101.44936666666035,
      "v": 54
    },
    {
      "midi": 55,
      "hit": false,
      "t": 50869.61100000001,
      "d": 105.07255833332601,
      "v": 56
    },
    {
      "midi": 62,
      "hit": false,
      "t": 50869.61100000001,
      "d": 115.942133333323,
      "v": 60
    },
    {
      "midi": 43,
      "hit": false,
      "t": 50869.61100000001,
      "d": 163.04362499999115,
      "v": 66
    },
    {
      "midi": 43,
      "hit": false,
      "t": 51087.0025,
      "d": 83.33340833333205,
      "v": 58
    },
    {
      "midi": 74,
      "hit": false,
      "t": 51087.0025,
      "d": 300.72490833332995,
      "v": 48
    },
    {
      "midi": 55,
      "hit": false,
      "t": 51087.0025,
      "d": 318.84086666666553,
      "v": 54
    },
    {
      "midi": 62,
      "hit": false,
      "t": 51087.0025,
      "d": 318.84086666666553,
      "v": 65
    },
    {
      "midi": 59,
      "hit": false,
      "t": 51087.0025,
      "d": 329.7104416666625,
      "v": 56
    },
    {
      "midi": 50,
      "hit": false,
      "t": 51087.0025,
      "d": 355.0727833333294,
      "v": 50
    },
    {
      "midi": 77,
      "hit": false,
      "t": 51087.0025,
      "d": 442.02938333332713,
      "v": 66
    },
    {
      "midi": 43,
      "hit": false,
      "t": 51304.394,
      "d": 152.17405000000144,
      "v": 56
    },
    {
      "midi": 43,
      "hit": false,
      "t": 51521.7855,
      "d": 83.33340833333205,
      "v": 63
    },
    {
      "midi": 50,
      "hit": false,
      "t": 51521.7855,
      "d": 94.20298333332903,
      "v": 49
    },
    {
      "midi": 59,
      "hit": false,
      "t": 51521.7855,
      "d": 115.94213333333028,
      "v": 45
    },
    {
      "midi": 55,
      "hit": false,
      "t": 51521.7855,
      "d": 141.30447499999718,
      "v": 49
    },
    {
      "midi": 62,
      "hit": false,
      "t": 51521.7855,
      "d": 159.42043333333277,
      "v": 53
    },
    {
      "midi": 74,
      "hit": false,
      "t": 51521.7855,
      "d": 235.5074583333335,
      "v": 76
    },
    {
      "midi": 55,
      "hit": false,
      "t": 51739.176999999996,
      "d": 119.56532500000321,
      "v": 64
    },
    {
      "midi": 43,
      "hit": false,
      "t": 51739.176999999996,
      "d": 141.30447500000446,
      "v": 65
    },
    {
      "midi": 50,
      "hit": false,
      "t": 51739.176999999996,
      "d": 173.9132000000027,
      "v": 48
    },
    {
      "midi": 77,
      "hit": false,
      "t": 51739.176999999996,
      "d": 213.76830833333952,
      "v": 60
    },
    {
      "midi": 62,
      "hit": false,
      "t": 51739.176999999996,
      "d": 384.05831666667655,
      "v": 70
    },
    {
      "midi": 59,
      "hit": false,
      "t": 51739.176999999996,
      "d": 394.92789166667353,
      "v": 58
    },
    {
      "midi": 50,
      "hit": false,
      "t": 51956.5685,
      "d": 119.56532500000321,
      "v": 45
    },
    {
      "midi": 74,
      "hit": false,
      "t": 51956.5685,
      "d": 148.55085833333578,
      "v": 66
    },
    {
      "midi": 55,
      "hit": false,
      "t": 51956.5685,
      "d": 181.159583333334,
      "v": 72
    },
    {
      "midi": 43,
      "hit": false,
      "t": 51956.5685,
      "d": 188.40596666666534,
      "v": 45
    },
    {
      "midi": 60,
      "hit": false,
      "t": 52173.96,
      "d": 123.18851666666887,
      "v": 72
    },
    {
      "midi": 55,
      "hit": false,
      "t": 52173.96,
      "d": 141.30447500000446,
      "v": 67
    },
    {
      "midi": 64,
      "hit": false,
      "t": 52173.96,
      "d": 155.79724166667438,
      "v": 70
    },
    {
      "midi": 48,
      "hit": false,
      "t": 52173.96,
      "d": 173.91320000000997,
      "v": 65
    },
    {
      "midi": 70,
      "hit": false,
      "t": 52173.96,
      "d": 173.91320000000997,
      "v": 58
    },
    {
      "midi": 43,
      "hit": false,
      "t": 52173.96,
      "d": 333.33363333335,
      "v": 54
    },
    {
      "midi": 60,
      "hit": false,
      "t": 52391.35150000001,
      "d": 79.71021666666638,
      "v": 46
    },
    {
      "midi": 48,
      "hit": false,
      "t": 52391.35150000001,
      "d": 83.33340833333205,
      "v": 75
    },
    {
      "midi": 55,
      "hit": false,
      "t": 52391.35150000001,
      "d": 86.9565999999977,
      "v": 60
    },
    {
      "midi": 64,
      "hit": false,
      "t": 52391.35150000001,
      "d": 101.44936666666763,
      "v": 63
    },
    {
      "midi": 67,
      "hit": false,
      "t": 52391.35150000001,
      "d": 213.76830833333952,
      "v": 53
    },
    {
      "midi": 43,
      "hit": false,
      "t": 52608.74300000002,
      "d": 97.82617500000197,
      "v": 51
    },
    {
      "midi": 48,
      "hit": false,
      "t": 52608.74300000002,
      "d": 119.56532500000321,
      "v": 69
    },
    {
      "midi": 55,
      "hit": false,
      "t": 52608.74300000002,
      "d": 123.18851666666887,
      "v": 55
    },
    {
      "midi": 64,
      "hit": false,
      "t": 52608.74300000002,
      "d": 152.17405000000144,
      "v": 60
    },
    {
      "midi": 60,
      "hit": false,
      "t": 52608.74300000002,
      "d": 163.04362499999843,
      "v": 63
    },
    {
      "midi": 70,
      "hit": false,
      "t": 52608.74300000002,
      "d": 221.01469166666357,
      "v": 62
    },
    {
      "midi": 60,
      "hit": false,
      "t": 52826.134500000015,
      "d": 130.4349000000002,
      "v": 62
    },
    {
      "midi": 55,
      "hit": false,
      "t": 52826.134500000015,
      "d": 144.92766666667012,
      "v": 49
    },
    {
      "midi": 64,
      "hit": false,
      "t": 52826.134500000015,
      "d": 163.0436250000057,
      "v": 60
    },
    {
      "midi": 67,
      "hit": false,
      "t": 52826.134500000015,
      "d": 184.78277500000695,
      "v": 47
    },
    {
      "midi": 48,
      "hit": false,
      "t": 52826.134500000015,
      "d": 311.5944833333415,
      "v": 61
    },
    {
      "midi": 43,
      "hit": false,
      "t": 52826.134500000015,
      "d": 322.46405833333847,
      "v": 54
    },
    {
      "midi": 60,
      "hit": false,
      "t": 53043.52600000002,
      "d": 123.18851666666887,
      "v": 56
    },
    {
      "midi": 55,
      "hit": false,
      "t": 53043.52600000002,
      "d": 137.6812833333388,
      "v": 53
    },
    {
      "midi": 64,
      "hit": false,
      "t": 53043.52600000002,
      "d": 163.0436250000057,
      "v": 60
    },
    {
      "midi": 70,
      "hit": false,
      "t": 53043.52600000002,
      "d": 199.2755416666696,
      "v": 64
    },
    {
      "midi": 43,
      "hit": false,
      "t": 53260.917500000025,
      "d": 76.08702500000072,
      "v": 45
    },
    {
      "midi": 48,
      "hit": false,
      "t": 53260.917500000025,
      "d": 83.33340833333205,
      "v": 49
    },
    {
      "midi": 60,
      "hit": false,
      "t": 53260.917500000025,
      "d": 108.69574999999895,
      "v": 56
    },
    {
      "midi": 55,
      "hit": false,
      "t": 53260.917500000025,
      "d": 115.94213333333028,
      "v": 52
    },
    {
      "midi": 64,
      "hit": false,
      "t": 53260.917500000025,
      "d": 141.30447499999718,
      "v": 51
    },
    {
      "midi": 67,
      "hit": false,
      "t": 53260.917500000025,
      "d": 181.159583333334,
      "v": 49
    },
    {
      "midi": 60,
      "hit": false,
      "t": 53478.30900000002,
      "d": 105.07255833333329,
      "v": 53
    },
    {
      "midi": 55,
      "hit": false,
      "t": 53478.30900000002,
      "d": 108.69574999999895,
      "v": 50
    },
    {
      "midi": 64,
      "hit": false,
      "t": 53478.30900000002,
      "d": 130.4349000000002,
      "v": 46
    },
    {
      "midi": 48,
      "hit": false,
      "t": 53478.30900000002,
      "d": 141.30447499999718,
      "v": 74
    },
    {
      "midi": 70,
      "hit": false,
      "t": 53478.30900000002,
      "d": 195.65234999999666,
      "v": 59
    },
    {
      "midi": 43,
      "hit": false,
      "t": 53478.30900000002,
      "d": 326.08724999999686,
      "v": 46
    },
    {
      "midi": 48,
      "hit": false,
      "t": 53695.70050000002,
      "d": 76.08702500000072,
      "v": 58
    },
    {
      "midi": 60,
      "hit": false,
      "t": 53695.70050000002,
      "d": 112.31894166666461,
      "v": 62
    },
    {
      "midi": 67,
      "hit": false,
      "t": 53695.70050000002,
      "d": 202.89873333332798,
      "v": 50
    },
    {
      "midi": 64,
      "hit": false,
      "t": 53695.70050000002,
      "d": 293.4785249999986,
      "v": 57
    },
    {
      "midi": 55,
      "hit": false,
      "t": 53695.70050000002,
      "d": 387.68150833332766,
      "v": 58
    },
    {
      "midi": 60,
      "hit": false,
      "t": 53913.09200000002,
      "d": 152.17405000000144,
      "v": 45
    },
    {
      "midi": 48,
      "hit": false,
      "t": 53913.09200000002,
      "d": 163.04362499999843,
      "v": 66
    },
    {
      "midi": 70,
      "hit": false,
      "t": 53913.09200000002,
      "d": 213.76830833333224,
      "v": 60
    },
    {
      "midi": 43,
      "hit": false,
      "t": 53913.09200000002,
      "d": 293.4785249999986,
      "v": 46
    },
    {
      "midi": 48,
      "hit": false,
      "t": 54130.48350000002,
      "d": 76.08702500000072,
      "v": 53
    },
    {
      "midi": 60,
      "hit": false,
      "t": 54130.48350000002,
      "d": 119.56532500000321,
      "v": 56
    },
    {
      "midi": 55,
      "hit": false,
      "t": 54130.48350000002,
      "d": 137.6812833333388,
      "v": 56
    },
    {
      "midi": 64,
      "hit": false,
      "t": 54130.48350000002,
      "d": 141.30447500000446,
      "v": 59
    },
    {
      "midi": 67,
      "hit": false,
      "t": 54130.48350000002,
      "d": 192.02915833333827,
      "v": 48
    },
    {
      "midi": 43,
      "hit": false,
      "t": 54347.87500000002,
      "d": 94.2029833333363,
      "v": 46
    },
    {
      "midi": 60,
      "hit": false,
      "t": 54347.87500000002,
      "d": 101.44936666666763,
      "v": 54
    },
    {
      "midi": 55,
      "hit": false,
      "t": 54347.87500000002,
      "d": 105.07255833333329,
      "v": 56
    },
    {
      "midi": 64,
      "hit": false,
      "t": 54347.87500000002,
      "d": 115.94213333333028,
      "v": 60
    },
    {
      "midi": 48,
      "hit": false,
      "t": 54347.87500000002,
      "d": 163.04362499999843,
      "v": 72
    },
    {
      "midi": 70,
      "hit": false,
      "t": 54347.87500000002,
      "d": 217.3914999999979,
      "v": 60
    },
    {
      "midi": 48,
      "hit": false,
      "t": 54565.26650000002,
      "d": 83.33340833333205,
      "v": 63
    },
    {
      "midi": 67,
      "hit": false,
      "t": 54565.26650000002,
      "d": 199.27554166666232,
      "v": 49
    },
    {
      "midi": 55,
      "hit": false,
      "t": 54565.26650000002,
      "d": 318.84086666666553,
      "v": 54
    },
    {
      "midi": 64,
      "hit": false,
      "t": 54565.26650000002,
      "d": 318.84086666666553,
      "v": 65
    },
    {
      "midi": 60,
      "hit": false,
      "t": 54565.26650000002,
      "d": 329.7104416666625,
      "v": 56
    },
    {
      "midi": 43,
      "hit": false,
      "t": 54565.26650000002,
      "d": 355.0727833333294,
      "v": 50
    },
    {
      "midi": 48,
      "hit": false,
      "t": 54782.65800000002,
      "d": 152.17405000000144,
      "v": 61
    },
    {
      "midi": 70,
      "hit": false,
      "t": 54782.65800000002,
      "d": 202.89873333333526,
      "v": 63
    },
    {
      "midi": 48,
      "hit": false,
      "t": 55000.04950000002,
      "d": 83.33340833333205,
      "v": 68
    },
    {
      "midi": 43,
      "hit": false,
      "t": 55000.04950000002,
      "d": 94.20298333332903,
      "v": 49
    },
    {
      "midi": 60,
      "hit": false,
      "t": 55000.04950000002,
      "d": 115.94213333333028,
      "v": 45
    },
    {
      "midi": 55,
      "hit": false,
      "t": 55000.04950000002,
      "d": 141.30447499999718,
      "v": 49
    },
    {
      "midi": 64,
      "hit": false,
      "t": 55000.04950000002,
      "d": 159.42043333333277,
      "v": 53
    },
    {
      "midi": 67,
      "hit": false,
      "t": 55000.04950000002,
      "d": 210.14511666666658,
      "v": 52
    },
    {
      "midi": 55,
      "hit": false,
      "t": 55217.44100000002,
      "d": 119.56532500000321,
      "v": 64
    },
    {
      "midi": 70,
      "hit": false,
      "t": 55217.44100000002,
      "d": 123.18851666666887,
      "v": 60
    },
    {
      "midi": 48,
      "hit": false,
      "t": 55217.44100000002,
      "d": 141.30447500000446,
      "v": 70
    },
    {
      "midi": 43,
      "hit": false,
      "t": 55217.44100000002,
      "d": 173.9132000000027,
      "v": 48
    },
    {
      "midi": 64,
      "hit": false,
      "t": 55217.44100000002,
      "d": 384.05831666667655,
      "v": 70
    },
    {
      "midi": 60,
      "hit": false,
      "t": 55217.44100000002,
      "d": 394.92789166667353,
      "v": 58
    },
    {
      "midi": 43,
      "hit": false,
      "t": 55434.832500000026,
      "d": 119.56532500000321,
      "v": 45
    },
    {
      "midi": 70,
      "hit": false,
      "t": 55434.832500000026,
      "d": 123.18851666666887,
      "v": 51
    },
    {
      "midi": 55,
      "hit": false,
      "t": 55434.832500000026,
      "d": 181.159583333334,
      "v": 72
    },
    {
      "midi": 48,
      "hit": false,
      "t": 55434.832500000026,
      "d": 188.40596666666534,
      "v": 48
    },
    {
      "midi": 60,
      "hit": false,
      "t": 55652.224000000024,
      "d": 123.18851666666887,
      "v": 72
    },
    {
      "midi": 70,
      "hit": false,
      "t": 55652.224000000024,
      "d": 137.6812833333388,
      "v": 59
    },
    {
      "midi": 55,
      "hit": false,
      "t": 55652.224000000024,
      "d": 141.30447500000446,
      "v": 67
    },
    {
      "midi": 64,
      "hit": false,
      "t": 55652.224000000024,
      "d": 155.79724166667438,
      "v": 70
    },
    {
      "midi": 48,
      "hit": false,
      "t": 55652.224000000024,
      "d": 173.91320000000997,
      "v": 65
    },
    {
      "midi": 43,
      "hit": false,
      "t": 55652.224000000024,
      "d": 333.33363333334273,
      "v": 54
    },
    {
      "midi": 48,
      "hit": false,
      "t": 55869.615500000036,
      "d": 83.33340833333205,
      "v": 75
    },
    {
      "midi": 55,
      "hit": false,
      "t": 55869.615500000036,
      "d": 152.17404999999417,
      "v": 60
    },
    {
      "midi": 60,
      "hit": false,
      "t": 55869.615500000036,
      "d": 152.17404999999417,
      "v": 46
    },
    {
      "midi": 64,
      "hit": false,
      "t": 55869.615500000036,
      "d": 173.9131999999954,
      "v": 63
    },
    {
      "midi": 67,
      "hit": false,
      "t": 55869.615500000036,
      "d": 239.13064999999915,
      "v": 55
    },
    {
      "midi": 43,
      "hit": false,
      "t": 56087.007000000034,
      "d": 97.82617500000197,
      "v": 51
    },
    {
      "midi": 70,
      "hit": false,
      "t": 56087.007000000034,
      "d": 108.69574999999895,
      "v": 53
    },
    {
      "midi": 48,
      "hit": false,
      "t": 56087.007000000034,
      "d": 119.56532499999594,
      "v": 69
    },
    {
      "midi": 55,
      "hit": false,
      "t": 56087.007000000034,
      "d": 123.1885166666616,
      "v": 55
    },
    {
      "midi": 64,
      "hit": false,
      "t": 56087.007000000034,
      "d": 152.17404999999417,
      "v": 60
    },
    {
      "midi": 60,
      "hit": false,
      "t": 56087.007000000034,
      "d": 163.04362499999115,
      "v": 63
    },
    {
      "midi": 70,
      "hit": false,
      "t": 56304.398500000025,
      "d": 137.68128333333152,
      "v": 63
    },
    {
      "midi": 55,
      "hit": false,
      "t": 56304.398500000025,
      "d": 144.92766666666284,
      "v": 49
    },
    {
      "midi": 64,
      "hit": false,
      "t": 56304.398500000025,
      "d": 163.04362499999843,
      "v": 60
    },
    {
      "midi": 60,
      "hit": false,
      "t": 56304.398500000025,
      "d": 173.9131999999954,
      "v": 62
    },
    {
      "midi": 48,
      "hit": false,
      "t": 56304.398500000025,
      "d": 184.7827749999924,
      "v": 61
    },
    {
      "midi": 43,
      "hit": false,
      "t": 56304.398500000025,
      "d": 195.65234999998938,
      "v": 54
    },
    {
      "midi": 62,
      "hit": false,
      "t": 56521.790000000015,
      "d": 123.18851666666887,
      "v": 72
    },
    {
      "midi": 57,
      "hit": false,
      "t": 56521.790000000015,
      "d": 141.30447500000446,
      "v": 67
    },
    {
      "midi": 66,
      "hit": false,
      "t": 56521.790000000015,
      "d": 155.79724166667438,
      "v": 70
    },
    {
      "midi": 50,
      "hit": false,
      "t": 56521.790000000015,
      "d": 173.91320000000997,
      "v": 65
    },
    {
      "midi": 45,
      "hit": false,
      "t": 56521.790000000015,
      "d": 333.33363333335,
      "v": 54
    },
    {
      "midi": 69,
      "hit": false,
      "t": 56521.790000000015,
      "d": 692.0296083333524,
      "v": 70
    },
    {
      "midi": 62,
      "hit": false,
      "t": 56739.18150000003,
      "d": 79.71021666666638,
      "v": 46
    },
    {
      "midi": 50,
      "hit": false,
      "t": 56739.18150000003,
      "d": 83.33340833333205,
      "v": 75
    },
    {
      "midi": 74,
      "hit": false,
      "t": 56739.18150000003,
      "d": 83.33340833333205,
      "v": 51
    },
    {
      "midi": 57,
      "hit": false,
      "t": 56739.18150000003,
      "d": 86.9565999999977,
      "v": 60
    },
    {
      "midi": 66,
      "hit": false,
      "t": 56739.18150000003,
      "d": 101.44936666666763,
      "v": 63
    },
    {
      "midi": 45,
      "hit": false,
      "t": 56956.57300000003,
      "d": 97.82617500000197,
      "v": 51
    },
    {
      "midi": 50,
      "hit": false,
      "t": 56956.57300000003,
      "d": 119.56532500000321,
      "v": 69
    },
    {
      "midi": 57,
      "hit": false,
      "t": 56956.57300000003,
      "d": 123.18851666666887,
      "v": 55
    },
    {
      "midi": 66,
      "hit": false,
      "t": 56956.57300000003,
      "d": 152.17405000000144,
      "v": 60
    },
    {
      "midi": 62,
      "hit": false,
      "t": 56956.57300000003,
      "d": 163.04362499999843,
      "v": 63
    },
    {
      "midi": 74,
      "hit": false,
      "t": 56956.57300000003,
      "d": 442.0293833333344,
      "v": 68
    },
    {
      "midi": 62,
      "hit": false,
      "t": 57173.96450000003,
      "d": 130.4349000000002,
      "v": 62
    },
    {
      "midi": 57,
      "hit": false,
      "t": 57173.96450000003,
      "d": 144.92766666667012,
      "v": 49
    },
    {
      "midi": 66,
      "hit": false,
      "t": 57173.96450000003,
      "d": 163.0436250000057,
      "v": 60
    },
    {
      "midi": 50,
      "hit": false,
      "t": 57173.96450000003,
      "d": 311.5944833333342,
      "v": 61
    },
    {
      "midi": 45,
      "hit": false,
      "t": 57173.96450000003,
      "d": 322.4640583333312,
      "v": 54
    },
    {
      "midi": 62,
      "hit": false,
      "t": 57391.356000000036,
      "d": 123.1885166666616,
      "v": 56
    },
    {
      "midi": 57,
      "hit": false,
      "t": 57391.356000000036,
      "d": 137.68128333333152,
      "v": 53
    },
    {
      "midi": 66,
      "hit": false,
      "t": 57391.356000000036,
      "d": 163.04362499999843,
      "v": 60
    },
    {
      "midi": 69,
      "hit": false,
      "t": 57391.356000000036,
      "d": 264.49299166666606,
      "v": 75
    },
    {
      "midi": 45,
      "hit": false,
      "t": 57608.747500000034,
      "d": 76.08702500000072,
      "v": 45
    },
    {
      "midi": 50,
      "hit": false,
      "t": 57608.747500000034,
      "d": 83.33340833333205,
      "v": 49
    },
    {
      "midi": 62,
      "hit": false,
      "t": 57608.747500000034,
      "d": 108.69574999999895,
      "v": 56
    },
    {
      "midi": 57,
      "hit": false,
      "t": 57608.747500000034,
      "d": 115.94213333333028,
      "v": 52
    },
    {
      "midi": 74,
      "hit": false,
      "t": 57608.747500000034,
      "d": 134.05809166666586,
      "v": 74
    },
    {
      "midi": 66,
      "hit": false,
      "t": 57608.747500000034,
      "d": 141.30447499999718,
      "v": 51
    },
    {
      "midi": 62,
      "hit": false,
      "t": 57826.13900000003,
      "d": 105.07255833333329,
      "v": 53
    },
    {
      "midi": 57,
      "hit": false,
      "t": 57826.13900000003,
      "d": 108.69574999999895,
      "v": 50
    },
    {
      "midi": 74,
      "hit": false,
      "t": 57826.13900000003,
      "d": 126.81170833333454,
      "v": 42
    },
    {
      "midi": 66,
      "hit": false,
      "t": 57826.13900000003,
      "d": 130.4349000000002,
      "v": 46
    },
    {
      "midi": 50,
      "hit": false,
      "t": 57826.13900000003,
      "d": 141.30447499999718,
      "v": 74
    },
    {
      "midi": 45,
      "hit": false,
      "t": 57826.13900000003,
      "d": 326.08724999999686,
      "v": 46
    },
    {
      "midi": 50,
      "hit": false,
      "t": 58043.53050000003,
      "d": 76.08702500000072,
      "v": 58
    },
    {
      "midi": 62,
      "hit": false,
      "t": 58043.53050000003,
      "d": 112.31894166666461,
      "v": 62
    },
    {
      "midi": 66,
      "hit": false,
      "t": 58043.53050000003,
      "d": 293.4785249999986,
      "v": 57
    },
    {
      "midi": 57,
      "hit": false,
      "t": 58043.53050000003,
      "d": 387.68150833332766,
      "v": 58
    },
    {
      "midi": 69,
      "hit": false,
      "t": 58043.53050000003,
      "d": 489.1308749999953,
      "v": 74
    },
    {
      "midi": 62,
      "hit": false,
      "t": 58260.92200000003,
      "d": 152.17405000000144,
      "v": 45
    },
    {
      "midi": 50,
      "hit": false,
      "t": 58260.92200000003,
      "d": 163.04362499999843,
      "v": 66
    },
    {
      "midi": 45,
      "hit": false,
      "t": 58260.92200000003,
      "d": 293.4785249999986,
      "v": 46
    },
    {
      "midi": 50,
      "hit": false,
      "t": 58478.313500000026,
      "d": 76.08702500000072,
      "v": 53
    },
    {
      "midi": 62,
      "hit": false,
      "t": 58478.313500000026,
      "d": 119.56532500000321,
      "v": 56
    },
    {
      "midi": 74,
      "hit": false,
      "t": 58478.313500000026,
      "d": 119.56532500000321,
      "v": 59
    },
    {
      "midi": 57,
      "hit": false,
      "t": 58478.313500000026,
      "d": 137.6812833333388,
      "v": 56
    },
    {
      "midi": 66,
      "hit": false,
      "t": 58478.313500000026,
      "d": 141.30447500000446,
      "v": 59
    },
    {
      "midi": 45,
      "hit": false,
      "t": 58695.70500000003,
      "d": 94.2029833333363,
      "v": 46
    },
    {
      "midi": 62,
      "hit": false,
      "t": 58695.70500000003,
      "d": 101.44936666666763,
      "v": 54
    },
    {
      "midi": 57,
      "hit": false,
      "t": 58695.70500000003,
      "d": 105.07255833333329,
      "v": 56
    },
    {
      "midi": 66,
      "hit": false,
      "t": 58695.70500000003,
      "d": 115.94213333333028,
      "v": 60
    },
    {
      "midi": 50,
      "hit": false,
      "t": 58695.70500000003,
      "d": 163.04362499999843,
      "v": 72
    },
    {
      "midi": 74,
      "hit": false,
      "t": 58695.70500000003,
      "d": 384.058316666662,
      "v": 59
    },
    {
      "midi": 50,
      "hit": false,
      "t": 58913.09650000003,
      "d": 83.33340833333205,
      "v": 63
    },
    {
      "midi": 57,
      "hit": false,
      "t": 58913.09650000003,
      "d": 318.84086666666553,
      "v": 54
    },
    {
      "midi": 66,
      "hit": false,
      "t": 58913.09650000003,
      "d": 318.84086666666553,
      "v": 65
    },
    {
      "midi": 62,
      "hit": false,
      "t": 58913.09650000003,
      "d": 329.7104416666625,
      "v": 56
    },
    {
      "midi": 45,
      "hit": false,
      "t": 58913.09650000003,
      "d": 355.0727833333294,
      "v": 50
    },
    {
      "midi": 50,
      "hit": false,
      "t": 59130.48800000003,
      "d": 152.17405000000144,
      "v": 61
    },
    {
      "midi": 69,
      "hit": false,
      "t": 59130.48800000003,
      "d": 155.7972416666671,
      "v": 79
    },
    {
      "midi": 50,
      "hit": false,
      "t": 59347.879500000025,
      "d": 83.33340833333205,
      "v": 68
    },
    {
      "midi": 45,
      "hit": false,
      "t": 59347.879500000025,
      "d": 94.20298333332903,
      "v": 49
    },
    {
      "midi": 74,
      "hit": false,
      "t": 59347.879500000025,
      "d": 97.82617499999469,
      "v": 64
    },
    {
      "midi": 62,
      "hit": false,
      "t": 59347.879500000025,
      "d": 115.94213333333028,
      "v": 45
    },
    {
      "midi": 57,
      "hit": false,
      "t": 59347.879500000025,
      "d": 141.30447499999718,
      "v": 49
    },
    {
      "midi": 66,
      "hit": false,
      "t": 59347.879500000025,
      "d": 159.42043333333277,
      "v": 53
    },
    {
      "midi": 74,
      "hit": false,
      "t": 59565.27100000002,
      "d": 108.69574999999895,
      "v": 59
    },
    {
      "midi": 57,
      "hit": false,
      "t": 59565.27100000002,
      "d": 119.56532499999594,
      "v": 64
    },
    {
      "midi": 50,
      "hit": false,
      "t": 59565.27100000002,
      "d": 141.30447499999718,
      "v": 70
    },
    {
      "midi": 45,
      "hit": false,
      "t": 59565.27100000002,
      "d": 173.9131999999954,
      "v": 48
    },
    {
      "midi": 66,
      "hit": false,
      "t": 59565.27100000002,
      "d": 384.058316666662,
      "v": 70
    },
    {
      "midi": 62,
      "hit": false,
      "t": 59565.27100000002,
      "d": 394.927891666659,
      "v": 58
    },
    {
      "midi": 74,
      "hit": false,
      "t": 59782.66250000002,
      "d": 90.57979166666337,
      "v": 55
    },
    {
      "midi": 45,
      "hit": false,
      "t": 59782.66250000002,
      "d": 119.56532499999594,
      "v": 45
    },
    {
      "midi": 57,
      "hit": false,
      "t": 59782.66250000002,
      "d": 181.15958333332674,
      "v": 72
    },
    {
      "midi": 50,
      "hit": false,
      "t": 59782.66250000002,
      "d": 188.40596666665806,
      "v": 48
    },
    {
      "midi": 59,
      "hit": false,
      "t": 60000.05400000001,
      "d": 123.18851666666887,
      "v": 72
    },
    {
      "midi": 55,
      "hit": false,
      "t": 60000.05400000001,
      "d": 141.30447500000446,
      "v": 67
    },
    {
      "midi": 62,
      "hit": false,
      "t": 60000.05400000001,
      "d": 155.79724166667438,
      "v": 70
    },
    {
      "midi": 43,
      "hit": false,
      "t": 60000.05400000001,
      "d": 173.91320000000997,
      "v": 60
    },
    {
      "midi": 71,
      "hit": false,
      "t": 60000.05400000001,
      "d": 307.9712916666758,
      "v": 62
    },
    {
      "midi": 50,
      "hit": false,
      "t": 60000.05400000001,
      "d": 333.33363333334273,
      "v": 54
    },
    {
      "midi": 59,
      "hit": false,
      "t": 60217.44550000002,
      "d": 79.71021666666638,
      "v": 46
    },
    {
      "midi": 43,
      "hit": false,
      "t": 60217.44550000002,
      "d": 83.33340833333205,
      "v": 69
    },
    {
      "midi": 55,
      "hit": false,
      "t": 60217.44550000002,
      "d": 86.9565999999977,
      "v": 60
    },
    {
      "midi": 77,
      "hit": false,
      "t": 60217.44550000002,
      "d": 86.9565999999977,
      "v": 72
    },
    {
      "midi": 62,
      "hit": false,
      "t": 60217.44550000002,
      "d": 101.44936666666035,
      "v": 63
    },
    {
      "midi": 50,
      "hit": false,
      "t": 60434.83700000002,
      "d": 97.82617500000197,
      "v": 51
    },
    {
      "midi": 43,
      "hit": false,
      "t": 60434.83700000002,
      "d": 119.56532500000321,
      "v": 64
    },
    {
      "midi": 55,
      "hit": false,
      "t": 60434.83700000002,
      "d": 123.18851666666887,
      "v": 55
    },
    {
      "midi": 62,
      "hit": false,
      "t": 60434.83700000002,
      "d": 152.17405000000144,
      "v": 60
    },
    {
      "midi": 59,
      "hit": false,
      "t": 60434.83700000002,
      "d": 163.04362499999843,
      "v": 63
    },
    {
      "midi": 71,
      "hit": false,
      "t": 60434.83700000002,
      "d": 282.60894999999437,
      "v": 47
    },
    {
      "midi": 77,
      "hit": false,
      "t": 60434.83700000002,
      "d": 365.9423583333264,
      "v": 68
    },
    {
      "midi": 59,
      "hit": false,
      "t": 60652.22850000002,
      "d": 130.43489999999292,
      "v": 62
    },
    {
      "midi": 55,
      "hit": false,
      "t": 60652.22850000002,
      "d": 144.92766666666284,
      "v": 49
    },
    {
      "midi": 62,
      "hit": false,
      "t": 60652.22850000002,
      "d": 163.04362499999843,
      "v": 60
    },
    {
      "midi": 43,
      "hit": false,
      "t": 60652.22850000002,
      "d": 311.5944833333342,
      "v": 56
    },
    {
      "midi": 50,
      "hit": false,
      "t": 60652.22850000002,
      "d": 322.4640583333312,
      "v": 54
    },
    {
      "midi": 71,
      "hit": false,
      "t": 60869.62000000002,
      "d": 119.56532500000321,
      "v": 70
    },
    {
      "midi": 59,
      "hit": false,
      "t": 60869.62000000002,
      "d": 123.18851666666887,
      "v": 56
    },
    {
      "midi": 55,
      "hit": false,
      "t": 60869.62000000002,
      "d": 137.6812833333388,
      "v": 53
    },
    {
      "midi": 62,
      "hit": false,
      "t": 60869.62000000002,
      "d": 163.0436250000057,
      "v": 60
    },
    {
      "midi": 50,
      "hit": false,
      "t": 61087.01150000002,
      "d": 76.08702500000072,
      "v": 45
    },
    {
      "midi": 43,
      "hit": false,
      "t": 61087.01150000002,
      "d": 83.33340833333205,
      "v": 46
    },
    {
      "midi": 77,
      "hit": false,
      "t": 61087.01150000002,
      "d": 83.33340833333205,
      "v": 67
    },
    {
      "midi": 59,
      "hit": false,
      "t": 61087.01150000002,
      "d": 108.69574999999895,
      "v": 56
    },
    {
      "midi": 71,
      "hit": false,
      "t": 61087.01150000002,
      "d": 108.69574999999895,
      "v": 38
    },
    {
      "midi": 55,
      "hit": false,
      "t": 61087.01150000002,
      "d": 115.94213333333028,
      "v": 52
    },
    {
      "midi": 62,
      "hit": false,
      "t": 61087.01150000002,
      "d": 141.30447499999718,
      "v": 51
    },
    {
      "midi": 59,
      "hit": false,
      "t": 61304.40300000002,
      "d": 105.07255833333329,
      "v": 53
    },
    {
      "midi": 55,
      "hit": false,
      "t": 61304.40300000002,
      "d": 108.69574999999895,
      "v": 50
    },
    {
      "midi": 62,
      "hit": false,
      "t": 61304.40300000002,
      "d": 130.4349000000002,
      "v": 46
    },
    {
      "midi": 43,
      "hit": false,
      "t": 61304.40300000002,
      "d": 141.30447499999718,
      "v": 68
    },
    {
      "midi": 71,
      "hit": false,
      "t": 61304.40300000002,
      "d": 289.85533333333296,
      "v": 54
    },
    {
      "midi": 50,
      "hit": false,
      "t": 61304.40300000002,
      "d": 326.08724999999686,
      "v": 46
    },
    {
      "midi": 77,
      "hit": false,
      "t": 61304.40300000002,
      "d": 384.058316666662,
      "v": 66
    },
    {
      "midi": 43,
      "hit": false,
      "t": 61521.79450000002,
      "d": 76.08702500000072,
      "v": 54
    },
    {
      "midi": 59,
      "hit": false,
      "t": 61521.79450000002,
      "d": 112.31894166666461,
      "v": 62
    },
    {
      "midi": 62,
      "hit": false,
      "t": 61521.79450000002,
      "d": 293.4785249999986,
      "v": 57
    },
    {
      "midi": 55,
      "hit": false,
      "t": 61521.79450000002,
      "d": 387.68150833332766,
      "v": 58
    },
    {
      "midi": 71,
      "hit": false,
      "t": 61739.186000000016,
      "d": 76.08702500000072,
      "v": 61
    },
    {
      "midi": 59,
      "hit": false,
      "t": 61739.186000000016,
      "d": 152.17405000000144,
      "v": 45
    },
    {
      "midi": 43,
      "hit": false,
      "t": 61739.186000000016,
      "d": 163.04362499999843,
      "v": 61
    },
    {
      "midi": 50,
      "hit": false,
      "t": 61739.186000000016,
      "d": 293.4785249999986,
      "v": 46
    },
    {
      "midi": 71,
      "hit": false,
      "t": 61956.577500000014,
      "d": 61.5942583333308,
      "v": 58
    },
    {
      "midi": 43,
      "hit": false,
      "t": 61956.577500000014,
      "d": 76.08702500000072,
      "v": 49
    },
    {
      "midi": 77,
      "hit": false,
      "t": 61956.577500000014,
      "d": 97.82617500000197,
      "v": 80
    },
    {
      "midi": 59,
      "hit": false,
      "t": 61956.577500000014,
      "d": 119.56532500000321,
      "v": 56
    },
    {
      "midi": 55,
      "hit": false,
      "t": 61956.577500000014,
      "d": 137.6812833333388,
      "v": 56
    },
    {
      "midi": 62,
      "hit": false,
      "t": 61956.577500000014,
      "d": 141.30447500000446,
      "v": 59
    },
    {
      "midi": 71,
      "hit": false,
      "t": 62173.96900000002,
      "d": 47.10149166666815,
      "v": 50
    },
    {
      "midi": 77,
      "hit": false,
      "t": 62173.96900000002,
      "d": 86.95660000000498,
      "v": 60
    },
    {
      "midi": 50,
      "hit": false,
      "t": 62173.96900000002,
      "d": 94.2029833333363,
      "v": 46
    },
    {
      "midi": 59,
      "hit": false,
      "t": 62173.96900000002,
      "d": 101.44936666666763,
      "v": 54
    },
    {
      "midi": 55,
      "hit": false,
      "t": 62173.96900000002,
      "d": 105.07255833333329,
      "v": 56
    },
    {
      "midi": 62,
      "hit": false,
      "t": 62173.96900000002,
      "d": 115.94213333333028,
      "v": 60
    },
    {
      "midi": 43,
      "hit": false,
      "t": 62173.96900000002,
      "d": 163.04362499999843,
      "v": 66
    },
    {
      "midi": 43,
      "hit": false,
      "t": 62391.36050000002,
      "d": 83.33340833333205,
      "v": 58
    },
    {
      "midi": 71,
      "hit": false,
      "t": 62391.36050000002,
      "d": 307.9712916666613,
      "v": 66
    },
    {
      "midi": 77,
      "hit": false,
      "t": 62391.36050000002,
      "d": 311.59448333332693,
      "v": 51
    },
    {
      "midi": 55,
      "hit": false,
      "t": 62391.36050000002,
      "d": 318.84086666665826,
      "v": 54
    },
    {
      "midi": 62,
      "hit": false,
      "t": 62391.36050000002,
      "d": 318.84086666665826,
      "v": 65
    },
    {
      "midi": 59,
      "hit": false,
      "t": 62391.36050000002,
      "d": 329.71044166665524,
      "v": 56
    },
    {
      "midi": 50,
      "hit": false,
      "t": 62391.36050000002,
      "d": 355.07278333332215,
      "v": 50
    },
    {
      "midi": 43,
      "hit": false,
      "t": 62608.752000000015,
      "d": 152.17404999999417,
      "v": 56
    },
    {
      "midi": 71,
      "hit": false,
      "t": 62826.143500000006,
      "d": 50.724683333333815,
      "v": 55
    },
    {
      "midi": 43,
      "hit": false,
      "t": 62826.143500000006,
      "d": 83.33340833333205,
      "v": 63
    },
    {
      "midi": 50,
      "hit": false,
      "t": 62826.143500000006,
      "d": 94.20298333332903,
      "v": 49
    },
    {
      "midi": 77,
      "hit": false,
      "t": 62826.143500000006,
      "d": 101.44936666666035,
      "v": 60
    },
    {
      "midi": 59,
      "hit": false,
      "t": 62826.143500000006,
      "d": 115.94213333333028,
      "v": 45
    },
    {
      "midi": 55,
      "hit": false,
      "t": 62826.143500000006,
      "d": 141.30447499999718,
      "v": 49
    },
    {
      "midi": 62,
      "hit": false,
      "t": 62826.143500000006,
      "d": 159.42043333333277,
      "v": 53
    },
    {
      "midi": 71,
      "hit": false,
      "t": 63043.535,
      "d": 47.10149166666815,
      "v": 60
    },
    {
      "midi": 77,
      "hit": false,
      "t": 63043.535,
      "d": 97.82617500000197,
      "v": 59
    },
    {
      "midi": 55,
      "hit": false,
      "t": 63043.535,
      "d": 119.56532500000321,
      "v": 64
    },
    {
      "midi": 43,
      "hit": false,
      "t": 63043.535,
      "d": 141.30447500000446,
      "v": 65
    },
    {
      "midi": 50,
      "hit": false,
      "t": 63043.535,
      "d": 173.9132000000027,
      "v": 48
    },
    {
      "midi": 62,
      "hit": false,
      "t": 63043.535,
      "d": 384.05831666667655,
      "v": 70
    },
    {
      "midi": 59,
      "hit": false,
      "t": 63043.535,
      "d": 394.92789166667353,
      "v": 58
    },
    {
      "midi": 71,
      "hit": false,
      "t": 63260.92650000001,
      "d": 50.724683333333815,
      "v": 54
    },
    {
      "midi": 77,
      "hit": false,
      "t": 63260.92650000001,
      "d": 94.2029833333363,
      "v": 63
    },
    {
      "midi": 50,
      "hit": false,
      "t": 63260.92650000001,
      "d": 119.56532500000321,
      "v": 45
    },
    {
      "midi": 55,
      "hit": false,
      "t": 63260.92650000001,
      "d": 181.159583333334,
      "v": 72
    },
    {
      "midi": 43,
      "hit": false,
      "t": 63260.92650000001,
      "d": 188.40596666666534,
      "v": 45
    },
    {
      "midi": 59,
      "hit": false,
      "t": 63478.31800000001,
      "d": 123.18851666666887,
      "v": 72
    },
    {
      "midi": 55,
      "hit": false,
      "t": 63478.31800000001,
      "d": 141.30447500000446,
      "v": 67
    },
    {
      "midi": 62,
      "hit": false,
      "t": 63478.31800000001,
      "d": 155.79724166667438,
      "v": 70
    },
    {
      "midi": 43,
      "hit": false,
      "t": 63478.31800000001,
      "d": 173.91320000000997,
      "v": 60
    },
    {
      "midi": 74,
      "hit": false,
      "t": 63478.31800000001,
      "d": 322.46405833334575,
      "v": 56
    },
    {
      "midi": 71,
      "hit": false,
      "t": 63478.31800000001,
      "d": 326.0872500000114,
      "v": 50
    },
    {
      "midi": 50,
      "hit": false,
      "t": 63478.31800000001,
      "d": 333.33363333334273,
      "v": 54
    },
    {
      "midi": 59,
      "hit": false,
      "t": 63695.70950000002,
      "d": 79.71021666666638,
      "v": 46
    },
    {
      "midi": 43,
      "hit": false,
      "t": 63695.70950000002,
      "d": 83.33340833333205,
      "v": 69
    },
    {
      "midi": 55,
      "hit": false,
      "t": 63695.70950000002,
      "d": 86.9565999999977,
      "v": 60
    },
    {
      "midi": 62,
      "hit": false,
      "t": 63695.70950000002,
      "d": 101.44936666666763,
      "v": 63
    },
    {
      "midi": 50,
      "hit": false,
      "t": 63913.10100000002,
      "d": 97.82617500000197,
      "v": 51
    },
    {
      "midi": 43,
      "hit": false,
      "t": 63913.10100000002,
      "d": 119.56532500000321,
      "v": 64
    },
    {
      "midi": 55,
      "hit": false,
      "t": 63913.10100000002,
      "d": 123.18851666666887,
      "v": 55
    },
    {
      "midi": 62,
      "hit": false,
      "t": 63913.10100000002,
      "d": 152.17405000000144,
      "v": 60
    },
    {
      "midi": 59,
      "hit": false,
      "t": 63913.10100000002,
      "d": 163.04362499999843,
      "v": 63
    },
    {
      "midi": 71,
      "hit": false,
      "t": 63913.10100000002,
      "d": 293.4785249999986,
      "v": 57
    },
    {
      "midi": 74,
      "hit": false,
      "t": 63913.10100000002,
      "d": 311.5944833333342,
      "v": 50
    },
    {
      "midi": 59,
      "hit": false,
      "t": 64130.492500000015,
      "d": 130.4349000000002,
      "v": 62
    },
    {
      "midi": 55,
      "hit": false,
      "t": 64130.492500000015,
      "d": 144.92766666667012,
      "v": 49
    },
    {
      "midi": 62,
      "hit": false,
      "t": 64130.492500000015,
      "d": 163.0436250000057,
      "v": 60
    },
    {
      "midi": 43,
      "hit": false,
      "t": 64130.492500000015,
      "d": 311.5944833333342,
      "v": 56
    },
    {
      "midi": 50,
      "hit": false,
      "t": 64130.492500000015,
      "d": 322.4640583333312,
      "v": 54
    },
    {
      "midi": 71,
      "hit": false,
      "t": 64347.88400000002,
      "d": 57.97106666666514,
      "v": 48
    },
    {
      "midi": 74,
      "hit": false,
      "t": 64347.88400000002,
      "d": 83.33340833333205,
      "v": 53
    },
    {
      "midi": 59,
      "hit": false,
      "t": 64347.88400000002,
      "d": 123.1885166666616,
      "v": 56
    },
    {
      "midi": 55,
      "hit": false,
      "t": 64347.88400000002,
      "d": 137.68128333333152,
      "v": 53
    },
    {
      "midi": 62,
      "hit": false,
      "t": 64347.88400000002,
      "d": 163.04362499999843,
      "v": 60
    },
    {
      "midi": 74,
      "hit": false,
      "t": 64565.27550000002,
      "d": 68.8406416666694,
      "v": 53
    },
    {
      "midi": 50,
      "hit": false,
      "t": 64565.27550000002,
      "d": 76.08702500000072,
      "v": 45
    },
    {
      "midi": 43,
      "hit": false,
      "t": 64565.27550000002,
      "d": 83.33340833333205,
      "v": 46
    },
    {
      "midi": 59,
      "hit": false,
      "t": 64565.27550000002,
      "d": 108.69574999999895,
      "v": 56
    },
    {
      "midi": 55,
      "hit": false,
      "t": 64565.27550000002,
      "d": 115.94213333333028,
      "v": 52
    },
    {
      "midi": 62,
      "hit": false,
      "t": 64565.27550000002,
      "d": 141.30447499999718,
      "v": 51
    },
    {
      "midi": 59,
      "hit": false,
      "t": 64782.667000000016,
      "d": 105.07255833333329,
      "v": 53
    },
    {
      "midi": 55,
      "hit": false,
      "t": 64782.667000000016,
      "d": 108.69574999999895,
      "v": 50
    },
    {
      "midi": 62,
      "hit": false,
      "t": 64782.667000000016,
      "d": 130.4349000000002,
      "v": 46
    },
    {
      "midi": 43,
      "hit": false,
      "t": 64782.667000000016,
      "d": 141.30447499999718,
      "v": 68
    },
    {
      "midi": 50,
      "hit": false,
      "t": 64782.667000000016,
      "d": 326.08724999999686,
      "v": 46
    },
    {
      "midi": 71,
      "hit": false,
      "t": 64782.667000000016,
      "d": 365.9423583333264,
      "v": 52
    },
    {
      "midi": 74,
      "hit": false,
      "t": 64782.667000000016,
      "d": 380.43512499999633,
      "v": 55
    },
    {
      "midi": 43,
      "hit": false,
      "t": 65000.058500000014,
      "d": 76.08702500000072,
      "v": 54
    },
    {
      "midi": 59,
      "hit": false,
      "t": 65000.058500000014,
      "d": 112.31894166666461,
      "v": 62
    },
    {
      "midi": 62,
      "hit": false,
      "t": 65000.058500000014,
      "d": 293.4785249999986,
      "v": 57
    },
    {
      "midi": 55,
      "hit": false,
      "t": 65000.058500000014,
      "d": 387.68150833332766,
      "v": 58
    },
    {
      "midi": 71,
      "hit": false,
      "t": 65217.45000000001,
      "d": 90.57979166667064,
      "v": 50
    },
    {
      "midi": 74,
      "hit": false,
      "t": 65217.45000000001,
      "d": 101.44936666666763,
      "v": 50
    },
    {
      "midi": 59,
      "hit": false,
      "t": 65217.45000000001,
      "d": 152.17405000000144,
      "v": 45
    },
    {
      "midi": 43,
      "hit": false,
      "t": 65217.45000000001,
      "d": 163.04362499999843,
      "v": 61
    },
    {
      "midi": 50,
      "hit": false,
      "t": 65217.45000000001,
      "d": 293.4785249999986,
      "v": 46
    },
    {
      "midi": 71,
      "hit": false,
      "t": 65434.84150000001,
      "d": 61.5942583333308,
      "v": 42
    },
    {
      "midi": 43,
      "hit": false,
      "t": 65434.84150000001,
      "d": 76.08702500000072,
      "v": 49
    },
    {
      "midi": 74,
      "hit": false,
      "t": 65434.84150000001,
      "d": 97.82617500000197,
      "v": 47
    },
    {
      "midi": 59,
      "hit": false,
      "t": 65434.84150000001,
      "d": 119.56532500000321,
      "v": 56
    },
    {
      "midi": 55,
      "hit": false,
      "t": 65434.84150000001,
      "d": 137.6812833333388,
      "v": 56
    },
    {
      "midi": 62,
      "hit": false,
      "t": 65434.84150000001,
      "d": 141.30447500001173,
      "v": 59
    },
    {
      "midi": 50,
      "hit": false,
      "t": 65652.23300000002,
      "d": 94.2029833333363,
      "v": 46
    },
    {
      "midi": 59,
      "hit": false,
      "t": 65652.23300000002,
      "d": 101.44936666666763,
      "v": 54
    },
    {
      "midi": 55,
      "hit": false,
      "t": 65652.23300000002,
      "d": 105.07255833334057,
      "v": 56
    },
    {
      "midi": 71,
      "hit": false,
      "t": 65652.23300000002,
      "d": 108.6957500000135,
      "v": 55
    },
    {
      "midi": 62,
      "hit": false,
      "t": 65652.23300000002,
      "d": 115.94213333334483,
      "v": 60
    },
    {
      "midi": 74,
      "hit": false,
      "t": 65652.23300000002,
      "d": 123.18851666667615,
      "v": 50
    },
    {
      "midi": 43,
      "hit": false,
      "t": 65652.23300000002,
      "d": 163.0436250000057,
      "v": 66
    },
    {
      "midi": 43,
      "hit": false,
      "t": 65869.62450000003,
      "d": 83.33340833333205,
      "v": 58
    },
    {
      "midi": 55,
      "hit": false,
      "t": 65869.62450000003,
      "d": 318.84086666666553,
      "v": 54
    },
    {
      "midi": 62,
      "hit": false,
      "t": 65869.62450000003,
      "d": 318.84086666666553,
      "v": 65
    },
    {
      "midi": 59,
      "hit": false,
      "t": 65869.62450000003,
      "d": 329.7104416666698,
      "v": 56
    },
    {
      "midi": 71,
      "hit": false,
      "t": 65869.62450000003,
      "d": 336.9568250000011,
      "v": 50
    },
    {
      "midi": 74,
      "hit": false,
      "t": 65869.62450000003,
      "d": 336.9568250000011,
      "v": 56
    },
    {
      "midi": 50,
      "hit": false,
      "t": 65869.62450000003,
      "d": 355.0727833333367,
      "v": 50
    },
    {
      "midi": 43,
      "hit": false,
      "t": 66087.01600000003,
      "d": 152.17405000000144,
      "v": 56
    },
    {
      "midi": 71,
      "hit": false,
      "t": 66304.40750000003,
      "d": 65.21744999999646,
      "v": 45
    },
    {
      "midi": 43,
      "hit": false,
      "t": 66304.40750000003,
      "d": 83.33340833333205,
      "v": 63
    },
    {
      "midi": 74,
      "hit": false,
      "t": 66304.40750000003,
      "d": 90.57979166666337,
      "v": 48
    },
    {
      "midi": 50,
      "hit": false,
      "t": 66304.40750000003,
      "d": 94.2029833333363,
      "v": 49
    },
    {
      "midi": 59,
      "hit": false,
      "t": 66304.40750000003,
      "d": 115.94213333333028,
      "v": 45
    },
    {
      "midi": 55,
      "hit": false,
      "t": 66304.40750000003,
      "d": 141.30447499999718,
      "v": 49
    },
    {
      "midi": 62,
      "hit": false,
      "t": 66304.40750000003,
      "d": 159.42043333333277,
      "v": 53
    },
    {
      "midi": 71,
      "hit": false,
      "t": 66521.79900000003,
      "d": 47.10149166666088,
      "v": 45
    },
    {
      "midi": 74,
      "hit": false,
      "t": 66521.79900000003,
      "d": 86.95659999999043,
      "v": 50
    },
    {
      "midi": 55,
      "hit": false,
      "t": 66521.79900000003,
      "d": 119.56532499998866,
      "v": 64
    },
    {
      "midi": 43,
      "hit": false,
      "t": 66521.79900000003,
      "d": 141.30447499998263,
      "v": 65
    },
    {
      "midi": 50,
      "hit": false,
      "t": 66521.79900000003,
      "d": 173.91319999998086,
      "v": 48
    },
    {
      "midi": 62,
      "hit": false,
      "t": 66521.79900000003,
      "d": 384.058316666662,
      "v": 70
    },
    {
      "midi": 59,
      "hit": false,
      "t": 66521.79900000003,
      "d": 394.92789166666626,
      "v": 58
    },
    {
      "midi": 50,
      "hit": false,
      "t": 66739.19050000001,
      "d": 119.56532500000321,
      "v": 45
    },
    {
      "midi": 71,
      "hit": false,
      "t": 66739.19050000001,
      "d": 119.56532500000321,
      "v": 52
    },
    {
      "midi": 74,
      "hit": false,
      "t": 66739.19050000001,
      "d": 137.6812833333388,
      "v": 46
    },
    {
      "midi": 55,
      "hit": false,
      "t": 66739.19050000001,
      "d": 181.15958333335584,
      "v": 72
    },
    {
      "midi": 43,
      "hit": false,
      "t": 66739.19050000001,
      "d": 188.40596666668716,
      "v": 45
    },
    {
      "midi": 60,
      "hit": false,
      "t": 66956.58200000004,
      "d": 123.1885166666616,
      "v": 72
    },
    {
      "midi": 55,
      "hit": false,
      "t": 66956.58200000004,
      "d": 141.30447499999718,
      "v": 67
    },
    {
      "midi": 64,
      "hit": false,
      "t": 66956.58200000004,
      "d": 155.79724166665983,
      "v": 70
    },
    {
      "midi": 48,
      "hit": false,
      "t": 66956.58200000004,
      "d": 173.9131999999954,
      "v": 65
    },
    {
      "midi": 67,
      "hit": false,
      "t": 66956.58200000004,
      "d": 289.8553333333257,
      "v": 49
    },
    {
      "midi": 70,
      "hit": false,
      "t": 66956.58200000004,
      "d": 293.4785249999986,
      "v": 51
    },
    {
      "midi": 43,
      "hit": false,
      "t": 66956.58200000004,
      "d": 333.33363333334273,
      "v": 54
    },
    {
      "midi": 60,
      "hit": false,
      "t": 67173.97350000004,
      "d": 79.71021666667366,
      "v": 46
    },
    {
      "midi": 48,
      "hit": false,
      "t": 67173.97350000004,
      "d": 83.3334083333466,
      "v": 75
    },
    {
      "midi": 55,
      "hit": false,
      "t": 67173.97350000004,
      "d": 86.95660000001953,
      "v": 60
    },
    {
      "midi": 64,
      "hit": false,
      "t": 67173.97350000004,
      "d": 101.44936666668218,
      "v": 63
    },
    {
      "midi": 43,
      "hit": false,
      "t": 67391.36500000005,
      "d": 97.82617499999469,
      "v": 51
    },
    {
      "midi": 48,
      "hit": false,
      "t": 67391.36500000005,
      "d": 119.56532499998866,
      "v": 69
    },
    {
      "midi": 55,
      "hit": false,
      "t": 67391.36500000005,
      "d": 123.1885166666616,
      "v": 55
    },
    {
      "midi": 64,
      "hit": false,
      "t": 67391.36500000005,
      "d": 152.17405000000144,
      "v": 60
    },
    {
      "midi": 60,
      "hit": false,
      "t": 67391.36500000005,
      "d": 163.0436250000057,
      "v": 63
    },
    {
      "midi": 70,
      "hit": false,
      "t": 67391.36500000005,
      "d": 297.1017166666861,
      "v": 65
    },
    {
      "midi": 60,
      "hit": false,
      "t": 67608.75650000006,
      "d": 130.43490000000747,
      "v": 62
    },
    {
      "midi": 55,
      "hit": false,
      "t": 67608.75650000006,
      "d": 144.92766666667012,
      "v": 49
    },
    {
      "midi": 67,
      "hit": false,
      "t": 67608.75650000006,
      "d": 152.17405000000144,
      "v": 22
    },
    {
      "midi": 64,
      "hit": false,
      "t": 67608.75650000006,
      "d": 163.0436250000057,
      "v": 60
    },
    {
      "midi": 48,
      "hit": false,
      "t": 67608.75650000006,
      "d": 311.59448333334876,
      "v": 61
    },
    {
      "midi": 43,
      "hit": false,
      "t": 67608.75650000006,
      "d": 322.464058333353,
      "v": 54
    },
    {
      "midi": 67,
      "hit": false,
      "t": 67826.14800000007,
      "d": 61.594258333338075,
      "v": 38
    },
    {
      "midi": 70,
      "hit": false,
      "t": 67826.14800000007,
      "d": 76.08702500000072,
      "v": 55
    },
    {
      "midi": 60,
      "hit": false,
      "t": 67826.14800000007,
      "d": 123.18851666667615,
      "v": 56
    },
    {
      "midi": 55,
      "hit": false,
      "t": 67826.14800000007,
      "d": 137.6812833333388,
      "v": 53
    },
    {
      "midi": 64,
      "hit": false,
      "t": 67826.14800000007,
      "d": 163.0436250000057,
      "v": 60
    },
    {
      "midi": 43,
      "hit": false,
      "t": 68043.53950000009,
      "d": 76.08702500000072,
      "v": 45
    },
    {
      "midi": 48,
      "hit": false,
      "t": 68043.53950000009,
      "d": 83.33340833333205,
      "v": 49
    },
    {
      "midi": 60,
      "hit": false,
      "t": 68043.53950000009,
      "d": 108.69574999999895,
      "v": 56
    },
    {
      "midi": 55,
      "hit": false,
      "t": 68043.53950000009,
      "d": 115.94213333333028,
      "v": 52
    },
    {
      "midi": 64,
      "hit": false,
      "t": 68043.53950000009,
      "d": 141.30447499999718,
      "v": 51
    },
    {
      "midi": 70,
      "hit": false,
      "t": 68043.53950000009,
      "d": 384.05831666667655,
      "v": 58
    },
    {
      "midi": 60,
      "hit": false,
      "t": 68260.93100000008,
      "d": 105.07255833334057,
      "v": 53
    },
    {
      "midi": 55,
      "hit": false,
      "t": 68260.93100000008,
      "d": 108.6957500000135,
      "v": 50
    },
    {
      "midi": 64,
      "hit": false,
      "t": 68260.93100000008,
      "d": 130.43490000000747,
      "v": 46
    },
    {
      "midi": 48,
      "hit": false,
      "t": 68260.93100000008,
      "d": 141.30447500001173,
      "v": 74
    },
    {
      "midi": 43,
      "hit": false,
      "t": 68260.93100000008,
      "d": 326.0872500000114,
      "v": 46
    },
    {
      "midi": 48,
      "hit": false,
      "t": 68478.3225000001,
      "d": 76.08702500000072,
      "v": 58
    },
    {
      "midi": 67,
      "hit": false,
      "t": 68478.3225000001,
      "d": 90.57979166666337,
      "v": 67
    },
    {
      "midi": 60,
      "hit": false,
      "t": 68478.3225000001,
      "d": 112.31894166667189,
      "v": 62
    },
    {
      "midi": 64,
      "hit": false,
      "t": 68478.3225000001,
      "d": 293.4785250000132,
      "v": 57
    },
    {
      "midi": 55,
      "hit": false,
      "t": 68478.3225000001,
      "d": 387.6815083333495,
      "v": 58
    },
    {
      "midi": 70,
      "hit": false,
      "t": 68695.71400000011,
      "d": 108.69574999999895,
      "v": 65
    },
    {
      "midi": 60,
      "hit": false,
      "t": 68695.71400000011,
      "d": 152.17405000000144,
      "v": 45
    },
    {
      "midi": 48,
      "hit": false,
      "t": 68695.71400000011,
      "d": 163.0436250000057,
      "v": 66
    },
    {
      "midi": 43,
      "hit": false,
      "t": 68695.71400000011,
      "d": 293.4785249999986,
      "v": 46
    },
    {
      "midi": 48,
      "hit": false,
      "t": 68913.1055000001,
      "d": 76.08702500000072,
      "v": 53
    },
    {
      "midi": 60,
      "hit": false,
      "t": 68913.1055000001,
      "d": 119.56532500000321,
      "v": 56
    },
    {
      "midi": 55,
      "hit": false,
      "t": 68913.1055000001,
      "d": 137.6812833333388,
      "v": 56
    },
    {
      "midi": 64,
      "hit": false,
      "t": 68913.1055000001,
      "d": 141.30447500001173,
      "v": 59
    },
    {
      "midi": 70,
      "hit": false,
      "t": 68913.1055000001,
      "d": 260.86980000001495,
      "v": 56
    },
    {
      "midi": 43,
      "hit": false,
      "t": 69130.49700000012,
      "d": 94.2029833333363,
      "v": 46
    },
    {
      "midi": 60,
      "hit": false,
      "t": 69130.49700000012,
      "d": 101.44936666666763,
      "v": 54
    },
    {
      "midi": 55,
      "hit": false,
      "t": 69130.49700000012,
      "d": 105.07255833334057,
      "v": 56
    },
    {
      "midi": 64,
      "hit": false,
      "t": 69130.49700000012,
      "d": 115.94213333334483,
      "v": 60
    },
    {
      "midi": 48,
      "hit": false,
      "t": 69130.49700000012,
      "d": 163.0436250000057,
      "v": 72
    },
    {
      "midi": 48,
      "hit": false,
      "t": 69347.88850000013,
      "d": 83.33340833333205,
      "v": 63
    },
    {
      "midi": 55,
      "hit": false,
      "t": 69347.88850000013,
      "d": 318.84086666666553,
      "v": 54
    },
    {
      "midi": 64,
      "hit": false,
      "t": 69347.88850000013,
      "d": 318.84086666666553,
      "v": 65
    },
    {
      "midi": 60,
      "hit": false,
      "t": 69347.88850000013,
      "d": 329.7104416666698,
      "v": 56
    },
    {
      "midi": 43,
      "hit": false,
      "t": 69347.88850000013,
      "d": 355.0727833333367,
      "v": 50
    },
    {
      "midi": 70,
      "hit": false,
      "t": 69347.88850000013,
      "d": 376.81193333333067,
      "v": 63
    },
    {
      "midi": 48,
      "hit": false,
      "t": 69565.28000000013,
      "d": 152.17405000000144,
      "v": 61
    },
    {
      "midi": 48,
      "hit": false,
      "t": 69782.67150000013,
      "d": 83.33340833333205,
      "v": 68
    },
    {
      "midi": 43,
      "hit": false,
      "t": 69782.67150000013,
      "d": 94.2029833333363,
      "v": 49
    },
    {
      "midi": 67,
      "hit": false,
      "t": 69782.67150000013,
      "d": 101.44936666666763,
      "v": 68
    },
    {
      "midi": 60,
      "hit": false,
      "t": 69782.67150000013,
      "d": 115.94213333333028,
      "v": 45
    },
    {
      "midi": 55,
      "hit": false,
      "t": 69782.67150000013,
      "d": 141.30447499999718,
      "v": 49
    },
    {
      "midi": 64,
      "hit": false,
      "t": 69782.67150000013,
      "d": 159.42043333333277,
      "v": 53
    },
    {
      "midi": 70,
      "hit": false,
      "t": 70000.06300000013,
      "d": 105.07255833334057,
      "v": 55
    },
    {
      "midi": 55,
      "hit": false,
      "t": 70000.06300000013,
      "d": 119.56532500000321,
      "v": 64
    },
    {
      "midi": 48,
      "hit": false,
      "t": 70000.06300000013,
      "d": 141.30447499999718,
      "v": 70
    },
    {
      "midi": 43,
      "hit": false,
      "t": 70000.06300000013,
      "d": 173.9131999999954,
      "v": 48
    },
    {
      "midi": 64,
      "hit": false,
      "t": 70000.06300000013,
      "d": 384.058316666662,
      "v": 70
    },
    {
      "midi": 60,
      "hit": false,
      "t": 70000.06300000013,
      "d": 394.92789166666626,
      "v": 58
    },
    {
      "midi": 70,
      "hit": false,
      "t": 70217.45450000012,
      "d": 101.44936666666763,
      "v": 48
    },
    {
      "midi": 43,
      "hit": false,
      "t": 70217.45450000012,
      "d": 119.56532500000321,
      "v": 45
    },
    {
      "midi": 55,
      "hit": false,
      "t": 70217.45450000012,
      "d": 181.1595833333413,
      "v": 72
    },
    {
      "midi": 48,
      "hit": false,
      "t": 70217.45450000012,
      "d": 188.4059666666726,
      "v": 48
    },
    {
      "midi": 60,
      "hit": false,
      "t": 70434.84600000014,
      "d": 123.1885166666616,
      "v": 72
    },
    {
      "midi": 55,
      "hit": false,
      "t": 70434.84600000014,
      "d": 141.30447499999718,
      "v": 67
    },
    {
      "midi": 64,
      "hit": false,
      "t": 70434.84600000014,
      "d": 155.79724166665983,
      "v": 70
    },
    {
      "midi": 48,
      "hit": false,
      "t": 70434.84600000014,
      "d": 173.9131999999954,
      "v": 65
    },
    {
      "midi": 43,
      "hit": false,
      "t": 70434.84600000014,
      "d": 333.3336333333282,
      "v": 54
    },
    {
      "midi": 48,
      "hit": false,
      "t": 70652.23750000013,
      "d": 83.33340833333205,
      "v": 75
    },
    {
      "midi": 70,
      "hit": false,
      "t": 70652.23750000013,
      "d": 94.2029833333363,
      "v": 47
    },
    {
      "midi": 55,
      "hit": false,
      "t": 70652.23750000013,
      "d": 152.17405000000144,
      "v": 60
    },
    {
      "midi": 60,
      "hit": false,
      "t": 70652.23750000013,
      "d": 152.17405000000144,
      "v": 46
    },
    {
      "midi": 64,
      "hit": false,
      "t": 70652.23750000013,
      "d": 173.9131999999954,
      "v": 63
    },
    {
      "midi": 70,
      "hit": false,
      "t": 70869.62900000013,
      "d": 68.8406416666694,
      "v": 62
    },
    {
      "midi": 43,
      "hit": false,
      "t": 70869.62900000013,
      "d": 97.82617500000924,
      "v": 51
    },
    {
      "midi": 48,
      "hit": false,
      "t": 70869.62900000013,
      "d": 119.56532500000321,
      "v": 69
    },
    {
      "midi": 55,
      "hit": false,
      "t": 70869.62900000013,
      "d": 123.18851666667615,
      "v": 55
    },
    {
      "midi": 64,
      "hit": false,
      "t": 70869.62900000013,
      "d": 152.174050000016,
      "v": 60
    },
    {
      "midi": 60,
      "hit": false,
      "t": 70869.62900000013,
      "d": 163.04362500002026,
      "v": 63
    },
    {
      "midi": 70,
      "hit": false,
      "t": 71087.02050000016,
      "d": 86.95660000000498,
      "v": 58
    },
    {
      "midi": 55,
      "hit": false,
      "t": 71087.02050000016,
      "d": 144.92766666667012,
      "v": 49
    },
    {
      "midi": 64,
      "hit": false,
      "t": 71087.02050000016,
      "d": 163.0436250000057,
      "v": 60
    },
    {
      "midi": 60,
      "hit": false,
      "t": 71087.02050000016,
      "d": 173.91320000000997,
      "v": 62
    },
    {
      "midi": 48,
      "hit": false,
      "t": 71087.02050000016,
      "d": 184.78277500001423,
      "v": 61
    },
    {
      "midi": 43,
      "hit": false,
      "t": 71087.02050000016,
      "d": 195.6523500000185,
      "v": 54
    },
    {
      "midi": 62,
      "hit": false,
      "t": 71304.41200000017,
      "d": 123.1885166666616,
      "v": 72
    },
    {
      "midi": 57,
      "hit": false,
      "t": 71304.41200000017,
      "d": 141.30447499999718,
      "v": 67
    },
    {
      "midi": 66,
      "hit": false,
      "t": 71304.41200000017,
      "d": 155.79724166665983,
      "v": 70
    },
    {
      "midi": 50,
      "hit": false,
      "t": 71304.41200000017,
      "d": 173.9131999999954,
      "v": 65
    },
    {
      "midi": 74,
      "hit": false,
      "t": 71304.41200000017,
      "d": 177.53639166666835,
      "v": 53
    },
    {
      "midi": 45,
      "hit": false,
      "t": 71304.41200000017,
      "d": 333.33363333334273,
      "v": 54
    },
    {
      "midi": 62,
      "hit": false,
      "t": 71521.80350000017,
      "d": 79.71021666667366,
      "v": 46
    },
    {
      "midi": 50,
      "hit": false,
      "t": 71521.80350000017,
      "d": 83.3334083333466,
      "v": 75
    },
    {
      "midi": 57,
      "hit": false,
      "t": 71521.80350000017,
      "d": 86.95660000001953,
      "v": 60
    },
    {
      "midi": 66,
      "hit": false,
      "t": 71521.80350000017,
      "d": 101.44936666668218,
      "v": 63
    },
    {
      "midi": 69,
      "hit": false,
      "t": 71521.80350000017,
      "d": 119.56532500001776,
      "v": 67
    },
    {
      "midi": 45,
      "hit": false,
      "t": 71739.19500000018,
      "d": 97.82617499999469,
      "v": 51
    },
    {
      "midi": 50,
      "hit": false,
      "t": 71739.19500000018,
      "d": 119.56532499998866,
      "v": 69
    },
    {
      "midi": 57,
      "hit": false,
      "t": 71739.19500000018,
      "d": 123.1885166666616,
      "v": 55
    },
    {
      "midi": 66,
      "hit": false,
      "t": 71739.19500000018,
      "d": 152.17405000000144,
      "v": 60
    },
    {
      "midi": 62,
      "hit": false,
      "t": 71739.19500000018,
      "d": 163.0436250000057,
      "v": 63
    },
    {
      "midi": 69,
      "hit": false,
      "t": 71739.19500000018,
      "d": 311.59448333334876,
      "v": 58
    },
    {
      "midi": 62,
      "hit": false,
      "t": 71956.5865000002,
      "d": 130.43490000000747,
      "v": 62
    },
    {
      "midi": 57,
      "hit": false,
      "t": 71956.5865000002,
      "d": 144.92766666667012,
      "v": 49
    },
    {
      "midi": 66,
      "hit": false,
      "t": 71956.5865000002,
      "d": 163.0436250000057,
      "v": 60
    },
    {
      "midi": 50,
      "hit": false,
      "t": 71956.5865000002,
      "d": 311.59448333334876,
      "v": 61
    },
    {
      "midi": 45,
      "hit": false,
      "t": 71956.5865000002,
      "d": 322.464058333353,
      "v": 54
    },
    {
      "midi": 62,
      "hit": false,
      "t": 72173.9780000002,
      "d": 123.18851666667615,
      "v": 56
    },
    {
      "midi": 57,
      "hit": false,
      "t": 72173.9780000002,
      "d": 137.6812833333388,
      "v": 53
    },
    {
      "midi": 66,
      "hit": false,
      "t": 72173.9780000002,
      "d": 163.0436250000057,
      "v": 60
    },
    {
      "midi": 74,
      "hit": false,
      "t": 72173.9780000002,
      "d": 184.78277499999967,
      "v": 48
    },
    {
      "midi": 45,
      "hit": false,
      "t": 72391.3695000002,
      "d": 76.08702500000072,
      "v": 45
    },
    {
      "midi": 50,
      "hit": false,
      "t": 72391.3695000002,
      "d": 83.33340833333205,
      "v": 49
    },
    {
      "midi": 62,
      "hit": false,
      "t": 72391.3695000002,
      "d": 108.69574999999895,
      "v": 56
    },
    {
      "midi": 57,
      "hit": false,
      "t": 72391.3695000002,
      "d": 115.94213333333028,
      "v": 52
    },
    {
      "midi": 66,
      "hit": false,
      "t": 72391.3695000002,
      "d": 141.30447499999718,
      "v": 51
    },
    {
      "midi": 69,
      "hit": false,
      "t": 72391.3695000002,
      "d": 311.5944833333342,
      "v": 63
    },
    {
      "midi": 62,
      "hit": false,
      "t": 72608.7610000002,
      "d": 105.07255833334057,
      "v": 53
    },
    {
      "midi": 57,
      "hit": false,
      "t": 72608.7610000002,
      "d": 108.6957500000135,
      "v": 50
    },
    {
      "midi": 66,
      "hit": false,
      "t": 72608.7610000002,
      "d": 130.43490000000747,
      "v": 46
    },
    {
      "midi": 50,
      "hit": false,
      "t": 72608.7610000002,
      "d": 141.30447500001173,
      "v": 74
    },
    {
      "midi": 45,
      "hit": false,
      "t": 72608.7610000002,
      "d": 326.0872500000114,
      "v": 46
    },
    {
      "midi": 50,
      "hit": false,
      "t": 72826.15250000021,
      "d": 76.08702500000072,
      "v": 58
    },
    {
      "midi": 62,
      "hit": false,
      "t": 72826.15250000021,
      "d": 112.31894166667189,
      "v": 62
    },
    {
      "midi": 66,
      "hit": false,
      "t": 72826.15250000021,
      "d": 293.4785250000132,
      "v": 57
    },
    {
      "midi": 74,
      "hit": false,
      "t": 72826.15250000021,
      "d": 384.0583166666911,
      "v": 51
    },
    {
      "midi": 57,
      "hit": false,
      "t": 72826.15250000021,
      "d": 387.68150833336404,
      "v": 58
    },
    {
      "midi": 62,
      "hit": false,
      "t": 73043.54400000023,
      "d": 152.17405000000144,
      "v": 45
    },
    {
      "midi": 50,
      "hit": false,
      "t": 73043.54400000023,
      "d": 163.0436250000057,
      "v": 66
    },
    {
      "midi": 45,
      "hit": false,
      "t": 73043.54400000023,
      "d": 293.4785250000132,
      "v": 46
    },
    {
      "midi": 50,
      "hit": false,
      "t": 73260.93550000024,
      "d": 76.08702500000072,
      "v": 53
    },
    {
      "midi": 62,
      "hit": false,
      "t": 73260.93550000024,
      "d": 119.56532500000321,
      "v": 56
    },
    {
      "midi": 69,
      "hit": false,
      "t": 73260.93550000024,
      "d": 123.18851666667615,
      "v": 63
    },
    {
      "midi": 57,
      "hit": false,
      "t": 73260.93550000024,
      "d": 137.6812833333388,
      "v": 56
    },
    {
      "midi": 66,
      "hit": false,
      "t": 73260.93550000024,
      "d": 141.30447500001173,
      "v": 59
    },
    {
      "midi": 45,
      "hit": false,
      "t": 73478.32700000025,
      "d": 94.2029833333363,
      "v": 46
    },
    {
      "midi": 62,
      "hit": false,
      "t": 73478.32700000025,
      "d": 101.44936666666763,
      "v": 54
    },
    {
      "midi": 57,
      "hit": false,
      "t": 73478.32700000025,
      "d": 105.07255833334057,
      "v": 56
    },
    {
      "midi": 66,
      "hit": false,
      "t": 73478.32700000025,
      "d": 115.94213333334483,
      "v": 60
    },
    {
      "midi": 69,
      "hit": false,
      "t": 73478.32700000025,
      "d": 152.174050000016,
      "v": 60
    },
    {
      "midi": 50,
      "hit": false,
      "t": 73478.32700000025,
      "d": 163.04362500002026,
      "v": 72
    },
    {
      "midi": 50,
      "hit": false,
      "t": 73695.71850000028,
      "d": 83.33340833333205,
      "v": 63
    },
    {
      "midi": 57,
      "hit": false,
      "t": 73695.71850000028,
      "d": 318.84086666666553,
      "v": 54
    },
    {
      "midi": 66,
      "hit": false,
      "t": 73695.71850000028,
      "d": 318.84086666666553,
      "v": 65
    },
    {
      "midi": 62,
      "hit": false,
      "t": 73695.71850000028,
      "d": 329.7104416666698,
      "v": 56
    },
    {
      "midi": 45,
      "hit": false,
      "t": 73695.71850000028,
      "d": 355.0727833333367,
      "v": 50
    },
    {
      "midi": 74,
      "hit": false,
      "t": 73695.71850000028,
      "d": 387.68150833333493,
      "v": 53
    },
    {
      "midi": 50,
      "hit": false,
      "t": 73913.11000000028,
      "d": 152.17405000000144,
      "v": 61
    },
    {
      "midi": 69,
      "hit": false,
      "t": 74130.50150000027,
      "d": 79.71021666667366,
      "v": 79
    },
    {
      "midi": 50,
      "hit": false,
      "t": 74130.50150000027,
      "d": 83.3334083333466,
      "v": 68
    },
    {
      "midi": 45,
      "hit": false,
      "t": 74130.50150000027,
      "d": 94.20298333335086,
      "v": 49
    },
    {
      "midi": 62,
      "hit": false,
      "t": 74130.50150000027,
      "d": 115.94213333334483,
      "v": 45
    },
    {
      "midi": 57,
      "hit": false,
      "t": 74130.50150000027,
      "d": 141.30447500001173,
      "v": 49
    },
    {
      "midi": 66,
      "hit": false,
      "t": 74130.50150000027,
      "d": 159.42043333334732,
      "v": 53
    },
    {
      "midi": 57,
      "hit": false,
      "t": 74347.89300000029,
      "d": 119.56532500000321,
      "v": 64
    },
    {
      "midi": 50,
      "hit": false,
      "t": 74347.89300000029,
      "d": 141.30447499999718,
      "v": 70
    },
    {
      "midi": 69,
      "hit": false,
      "t": 74347.89300000029,
      "d": 170.29000833333703,
      "v": 66
    },
    {
      "midi": 45,
      "hit": false,
      "t": 74347.89300000029,
      "d": 173.91320000000997,
      "v": 48
    },
    {
      "midi": 66,
      "hit": false,
      "t": 74347.89300000029,
      "d": 384.05831666667655,
      "v": 70
    },
    {
      "midi": 62,
      "hit": false,
      "t": 74347.89300000029,
      "d": 394.9278916666808,
      "v": 58
    },
    {
      "midi": 74,
      "hit": false,
      "t": 74565.2845000003,
      "d": 115.94213333333028,
      "v": 53
    },
    {
      "midi": 45,
      "hit": false,
      "t": 74565.2845000003,
      "d": 119.56532500000321,
      "v": 45
    },
    {
      "midi": 57,
      "hit": false,
      "t": 74565.2845000003,
      "d": 181.1595833333413,
      "v": 72
    },
    {
      "midi": 50,
      "hit": false,
      "t": 74565.2845000003,
      "d": 188.4059666666726,
      "v": 48
    },
    {
      "midi": 59,
      "hit": false,
      "t": 74782.67600000031,
      "d": 123.1885166666616,
      "v": 72
    },
    {
      "midi": 55,
      "hit": false,
      "t": 74782.67600000031,
      "d": 141.30447499999718,
      "v": 67
    },
    {
      "midi": 62,
      "hit": false,
      "t": 74782.67600000031,
      "d": 155.79724166665983,
      "v": 70
    },
    {
      "midi": 43,
      "hit": false,
      "t": 74782.67600000031,
      "d": 173.9131999999954,
      "v": 60
    },
    {
      "midi": 71,
      "hit": false,
      "t": 74782.67600000031,
      "d": 213.76830833332497,
      "v": 60
    },
    {
      "midi": 50,
      "hit": false,
      "t": 74782.67600000031,
      "d": 333.33363333334273,
      "v": 54
    },
    {
      "midi": 59,
      "hit": false,
      "t": 75000.06750000031,
      "d": 79.71021666667366,
      "v": 46
    },
    {
      "midi": 43,
      "hit": false,
      "t": 75000.06750000031,
      "d": 83.3334083333466,
      "v": 69
    },
    {
      "midi": 55,
      "hit": false,
      "t": 75000.06750000031,
      "d": 86.95660000001953,
      "v": 60
    },
    {
      "midi": 62,
      "hit": false,
      "t": 75000.06750000031,
      "d": 101.44936666668218,
      "v": 63
    },
    {
      "midi": 77,
      "hit": false,
      "t": 75000.06750000031,
      "d": 391.3047000000224,
      "v": 58
    },
    {
      "midi": 50,
      "hit": false,
      "t": 75217.45900000032,
      "d": 97.82617499999469,
      "v": 51
    },
    {
      "midi": 43,
      "hit": false,
      "t": 75217.45900000032,
      "d": 119.56532499998866,
      "v": 64
    },
    {
      "midi": 55,
      "hit": false,
      "t": 75217.45900000032,
      "d": 123.1885166666616,
      "v": 55
    },
    {
      "midi": 62,
      "hit": false,
      "t": 75217.45900000032,
      "d": 152.17405000000144,
      "v": 60
    },
    {
      "midi": 59,
      "hit": false,
      "t": 75217.45900000032,
      "d": 163.0436250000057,
      "v": 63
    },
    {
      "midi": 59,
      "hit": false,
      "t": 75434.85050000034,
      "d": 130.43489999999292,
      "v": 62
    },
    {
      "midi": 55,
      "hit": false,
      "t": 75434.85050000034,
      "d": 144.92766666665557,
      "v": 49
    },
    {
      "midi": 62,
      "hit": false,
      "t": 75434.85050000034,
      "d": 163.04362499999115,
      "v": 60
    },
    {
      "midi": 71,
      "hit": false,
      "t": 75434.85050000034,
      "d": 228.26107500000217,
      "v": 52
    },
    {
      "midi": 43,
      "hit": false,
      "t": 75434.85050000034,
      "d": 311.5944833333342,
      "v": 56
    },
    {
      "midi": 50,
      "hit": false,
      "t": 75434.85050000034,
      "d": 322.46405833333847,
      "v": 54
    },
    {
      "midi": 59,
      "hit": false,
      "t": 75652.24200000033,
      "d": 123.18851666667615,
      "v": 56
    },
    {
      "midi": 55,
      "hit": false,
      "t": 75652.24200000033,
      "d": 137.6812833333388,
      "v": 53
    },
    {
      "midi": 62,
      "hit": false,
      "t": 75652.24200000033,
      "d": 163.0436250000057,
      "v": 60
    },
    {
      "midi": 77,
      "hit": false,
      "t": 75652.24200000033,
      "d": 427.53661666667904,
      "v": 68
    },
    {
      "midi": 50,
      "hit": false,
      "t": 75869.63350000035,
      "d": 76.08702500000072,
      "v": 45
    },
    {
      "midi": 43,
      "hit": false,
      "t": 75869.63350000035,
      "d": 83.33340833333205,
      "v": 46
    },
    {
      "midi": 59,
      "hit": false,
      "t": 75869.63350000035,
      "d": 108.69574999999895,
      "v": 56
    },
    {
      "midi": 55,
      "hit": false,
      "t": 75869.63350000035,
      "d": 115.94213333333028,
      "v": 52
    },
    {
      "midi": 62,
      "hit": false,
      "t": 75869.63350000035,
      "d": 141.30447499999718,
      "v": 51
    },
    {
      "midi": 59,
      "hit": false,
      "t": 76087.02500000034,
      "d": 105.07255833334057,
      "v": 53
    },
    {
      "midi": 55,
      "hit": false,
      "t": 76087.02500000034,
      "d": 108.6957500000135,
      "v": 50
    },
    {
      "midi": 62,
      "hit": false,
      "t": 76087.02500000034,
      "d": 130.43490000000747,
      "v": 46
    },
    {
      "midi": 43,
      "hit": false,
      "t": 76087.02500000034,
      "d": 141.30447500001173,
      "v": 68
    },
    {
      "midi": 71,
      "hit": false,
      "t": 76087.02500000034,
      "d": 210.14511666668113,
      "v": 61
    },
    {
      "midi": 50,
      "hit": false,
      "t": 76087.02500000034,
      "d": 326.0872500000114,
      "v": 46
    },
    {
      "midi": 43,
      "hit": false,
      "t": 76304.41650000036,
      "d": 76.08702500000072,
      "v": 54
    },
    {
      "midi": 59,
      "hit": false,
      "t": 76304.41650000036,
      "d": 112.31894166667189,
      "v": 62
    },
    {
      "midi": 62,
      "hit": false,
      "t": 76304.41650000036,
      "d": 293.4785250000132,
      "v": 57
    },
    {
      "midi": 55,
      "hit": false,
      "t": 76304.41650000036,
      "d": 387.6815083333495,
      "v": 58
    },
    {
      "midi": 77,
      "hit": false,
      "t": 76304.41650000036,
      "d": 402.17427500001213,
      "v": 69
    },
    {
      "midi": 59,
      "hit": false,
      "t": 76521.80800000037,
      "d": 152.17405000000144,
      "v": 45
    },
    {
      "midi": 43,
      "hit": false,
      "t": 76521.80800000037,
      "d": 163.0436250000057,
      "v": 61
    },
    {
      "midi": 50,
      "hit": false,
      "t": 76521.80800000037,
      "d": 293.4785249999986,
      "v": 46
    },
    {
      "midi": 43,
      "hit": false,
      "t": 76739.19950000037,
      "d": 76.08702500000072,
      "v": 49
    },
    {
      "midi": 59,
      "hit": false,
      "t": 76739.19950000037,
      "d": 119.56532500000321,
      "v": 56
    },
    {
      "midi": 71,
      "hit": false,
      "t": 76739.19950000037,
      "d": 126.81170833333454,
      "v": 49
    },
    {
      "midi": 55,
      "hit": false,
      "t": 76739.19950000037,
      "d": 137.6812833333388,
      "v": 56
    },
    {
      "midi": 62,
      "hit": false,
      "t": 76739.19950000037,
      "d": 141.30447500001173,
      "v": 59
    },
    {
      "midi": 50,
      "hit": false,
      "t": 76956.59100000038,
      "d": 94.2029833333363,
      "v": 46
    },
    {
      "midi": 59,
      "hit": false,
      "t": 76956.59100000038,
      "d": 101.44936666666763,
      "v": 54
    },
    {
      "midi": 55,
      "hit": false,
      "t": 76956.59100000038,
      "d": 105.07255833334057,
      "v": 56
    },
    {
      "midi": 62,
      "hit": false,
      "t": 76956.59100000038,
      "d": 115.94213333334483,
      "v": 60
    },
    {
      "midi": 43,
      "hit": false,
      "t": 76956.59100000038,
      "d": 163.0436250000057,
      "v": 66
    },
    {
      "midi": 77,
      "hit": false,
      "t": 76956.59100000038,
      "d": 358.69597500000964,
      "v": 77
    },
    {
      "midi": 43,
      "hit": false,
      "t": 77173.98250000039,
      "d": 83.33340833333205,
      "v": 58
    },
    {
      "midi": 55,
      "hit": false,
      "t": 77173.98250000039,
      "d": 318.84086666666553,
      "v": 54
    },
    {
      "midi": 62,
      "hit": false,
      "t": 77173.98250000039,
      "d": 318.84086666666553,
      "v": 65
    },
    {
      "midi": 59,
      "hit": false,
      "t": 77173.98250000039,
      "d": 329.7104416666698,
      "v": 56
    },
    {
      "midi": 50,
      "hit": false,
      "t": 77173.98250000039,
      "d": 355.0727833333367,
      "v": 50
    },
    {
      "midi": 71,
      "hit": false,
      "t": 77391.37400000039,
      "d": 57.97106666666514,
      "v": 59
    },
    {
      "midi": 77,
      "hit": false,
      "t": 77391.37400000039,
      "d": 105.07255833334057,
      "v": 57
    },
    {
      "midi": 43,
      "hit": false,
      "t": 77391.37400000039,
      "d": 152.17405000000144,
      "v": 56
    },
    {
      "midi": 71,
      "hit": false,
      "t": 77608.76550000039,
      "d": 43.47830000000249,
      "v": 63
    },
    {
      "midi": 43,
      "hit": false,
      "t": 77608.76550000039,
      "d": 83.33340833333205,
      "v": 63
    },
    {
      "midi": 50,
      "hit": false,
      "t": 77608.76550000039,
      "d": 94.2029833333363,
      "v": 49
    },
    {
      "midi": 77,
      "hit": false,
      "t": 77608.76550000039,
      "d": 97.82617500000924,
      "v": 54
    },
    {
      "midi": 59,
      "hit": false,
      "t": 77608.76550000039,
      "d": 115.94213333334483,
      "v": 45
    },
    {
      "midi": 55,
      "hit": false,
      "t": 77608.76550000039,
      "d": 141.30447500001173,
      "v": 49
    },
    {
      "midi": 62,
      "hit": false,
      "t": 77608.76550000039,
      "d": 159.42043333334732,
      "v": 53
    },
    {
      "midi": 71,
      "hit": false,
      "t": 77826.1570000004,
      "d": 57.97106666666514,
      "v": 55
    },
    {
      "midi": 77,
      "hit": false,
      "t": 77826.1570000004,
      "d": 94.2029833333363,
      "v": 51
    },
    {
      "midi": 55,
      "hit": false,
      "t": 77826.1570000004,
      "d": 119.56532500000321,
      "v": 64
    },
    {
      "midi": 43,
      "hit": false,
      "t": 77826.1570000004,
      "d": 141.30447499999718,
      "v": 65
    },
    {
      "midi": 50,
      "hit": false,
      "t": 77826.1570000004,
      "d": 173.9131999999954,
      "v": 48
    },
    {
      "midi": 62,
      "hit": false,
      "t": 77826.1570000004,
      "d": 384.058316666662,
      "v": 70
    },
    {
      "midi": 59,
      "hit": false,
      "t": 77826.1570000004,
      "d": 394.92789166666626,
      "v": 58
    },
    {
      "midi": 50,
      "hit": false,
      "t": 78043.5485000004,
      "d": 119.56532500000321,
      "v": 45
    },
    {
      "midi": 71,
      "hit": false,
      "t": 78043.5485000004,
      "d": 134.05809166666586,
      "v": 63
    },
    {
      "midi": 77,
      "hit": false,
      "t": 78043.5485000004,
      "d": 155.79724166665983,
      "v": 52
    },
    {
      "midi": 55,
      "hit": false,
      "t": 78043.5485000004,
      "d": 181.1595833333413,
      "v": 72
    },
    {
      "midi": 43,
      "hit": false,
      "t": 78043.5485000004,
      "d": 188.4059666666726,
      "v": 45
    },
    {
      "midi": 60,
      "hit": false,
      "t": 78260.94000000041,
      "d": 123.1885166666616,
      "v": 72
    },
    {
      "midi": 55,
      "hit": false,
      "t": 78260.94000000041,
      "d": 141.30447499999718,
      "v": 67
    },
    {
      "midi": 64,
      "hit": false,
      "t": 78260.94000000041,
      "d": 155.79724166665983,
      "v": 70
    },
    {
      "midi": 48,
      "hit": false,
      "t": 78260.94000000041,
      "d": 173.9131999999954,
      "v": 65
    },
    {
      "midi": 67,
      "hit": false,
      "t": 78260.94000000041,
      "d": 224.63788333332923,
      "v": 46
    },
    {
      "midi": 43,
      "hit": false,
      "t": 78260.94000000041,
      "d": 333.3336333333282,
      "v": 54
    },
    {
      "midi": 60,
      "hit": false,
      "t": 78478.33150000041,
      "d": 79.71021666665911,
      "v": 46
    },
    {
      "midi": 48,
      "hit": false,
      "t": 78478.33150000041,
      "d": 83.33340833333205,
      "v": 75
    },
    {
      "midi": 55,
      "hit": false,
      "t": 78478.33150000041,
      "d": 86.95660000000498,
      "v": 60
    },
    {
      "midi": 64,
      "hit": false,
      "t": 78478.33150000041,
      "d": 101.44936666666763,
      "v": 63
    },
    {
      "midi": 70,
      "hit": false,
      "t": 78478.33150000041,
      "d": 199.27554166666232,
      "v": 63
    },
    {
      "midi": 43,
      "hit": false,
      "t": 78695.7230000004,
      "d": 97.82617499999469,
      "v": 51
    },
    {
      "midi": 48,
      "hit": false,
      "t": 78695.7230000004,
      "d": 119.56532499998866,
      "v": 69
    },
    {
      "midi": 55,
      "hit": false,
      "t": 78695.7230000004,
      "d": 123.1885166666616,
      "v": 55
    },
    {
      "midi": 64,
      "hit": false,
      "t": 78695.7230000004,
      "d": 152.17405000000144,
      "v": 60
    },
    {
      "midi": 60,
      "hit": false,
      "t": 78695.7230000004,
      "d": 163.0436250000057,
      "v": 63
    },
    {
      "midi": 72,
      "hit": false,
      "t": 78695.7230000004,
      "d": 239.13065000000643,
      "v": 75
    },
    {
      "midi": 60,
      "hit": false,
      "t": 78913.11450000042,
      "d": 130.43489999999292,
      "v": 62
    },
    {
      "midi": 55,
      "hit": false,
      "t": 78913.11450000042,
      "d": 144.92766666665557,
      "v": 49
    },
    {
      "midi": 64,
      "hit": false,
      "t": 78913.11450000042,
      "d": 163.04362499999115,
      "v": 60
    },
    {
      "midi": 48,
      "hit": false,
      "t": 78913.11450000042,
      "d": 311.5944833333342,
      "v": 61
    },
    {
      "midi": 43,
      "hit": false,
      "t": 78913.11450000042,
      "d": 322.46405833333847,
      "v": 54
    },
    {
      "midi": 70,
      "hit": false,
      "t": 78913.11450000042,
      "d": 423.9134250000061,
      "v": 65
    },
    {
      "midi": 60,
      "hit": false,
      "t": 79130.50600000042,
      "d": 123.18851666667615,
      "v": 56
    },
    {
      "midi": 55,
      "hit": false,
      "t": 79130.50600000042,
      "d": 137.6812833333388,
      "v": 53
    },
    {
      "midi": 64,
      "hit": false,
      "t": 79130.50600000042,
      "d": 163.0436250000057,
      "v": 60
    },
    {
      "midi": 43,
      "hit": false,
      "t": 79347.89750000043,
      "d": 76.08702500000072,
      "v": 45
    },
    {
      "midi": 48,
      "hit": false,
      "t": 79347.89750000043,
      "d": 83.33340833333205,
      "v": 49
    },
    {
      "midi": 60,
      "hit": false,
      "t": 79347.89750000043,
      "d": 108.69574999999895,
      "v": 56
    },
    {
      "midi": 55,
      "hit": false,
      "t": 79347.89750000043,
      "d": 115.94213333333028,
      "v": 52
    },
    {
      "midi": 64,
      "hit": false,
      "t": 79347.89750000043,
      "d": 141.30447499999718,
      "v": 51
    },
    {
      "midi": 67,
      "hit": false,
      "t": 79347.89750000043,
      "d": 181.15958333332674,
      "v": 61
    },
    {
      "midi": 60,
      "hit": false,
      "t": 79565.28900000043,
      "d": 105.07255833334057,
      "v": 53
    },
    {
      "midi": 55,
      "hit": false,
      "t": 79565.28900000043,
      "d": 108.6957500000135,
      "v": 50
    },
    {
      "midi": 64,
      "hit": false,
      "t": 79565.28900000043,
      "d": 130.43490000000747,
      "v": 46
    },
    {
      "midi": 48,
      "hit": false,
      "t": 79565.28900000043,
      "d": 141.30447500001173,
      "v": 74
    },
    {
      "midi": 70,
      "hit": false,
      "t": 79565.28900000043,
      "d": 188.4059666666726,
      "v": 54
    },
    {
      "midi": 43,
      "hit": false,
      "t": 79565.28900000043,
      "d": 326.0872500000114,
      "v": 46
    },
    {
      "midi": 48,
      "hit": false,
      "t": 79782.68050000044,
      "d": 76.08702500000072,
      "v": 58
    },
    {
      "midi": 60,
      "hit": false,
      "t": 79782.68050000044,
      "d": 112.31894166667189,
      "v": 62
    },
    {
      "midi": 64,
      "hit": false,
      "t": 79782.68050000044,
      "d": 293.4785250000132,
      "v": 57
    },
    {
      "midi": 55,
      "hit": false,
      "t": 79782.68050000044,
      "d": 387.6815083333495,
      "v": 58
    },
    {
      "midi": 72,
      "hit": false,
      "t": 79782.68050000044,
      "d": 405.79746666668507,
      "v": 54
    },
    {
      "midi": 60,
      "hit": false,
      "t": 80000.07200000045,
      "d": 152.17405000000144,
      "v": 45
    },
    {
      "midi": 48,
      "hit": false,
      "t": 80000.07200000045,
      "d": 163.0436250000057,
      "v": 66
    },
    {
      "midi": 43,
      "hit": false,
      "t": 80000.07200000045,
      "d": 293.4785250000132,
      "v": 46
    },
    {
      "midi": 48,
      "hit": false,
      "t": 80217.46350000046,
      "d": 76.08702500000072,
      "v": 53
    },
    {
      "midi": 60,
      "hit": false,
      "t": 80217.46350000046,
      "d": 119.56532500000321,
      "v": 56
    },
    {
      "midi": 55,
      "hit": false,
      "t": 80217.46350000046,
      "d": 137.6812833333388,
      "v": 56
    },
    {
      "midi": 64,
      "hit": false,
      "t": 80217.46350000046,
      "d": 141.30447500001173,
      "v": 59
    },
    {
      "midi": 67,
      "hit": false,
      "t": 80217.46350000046,
      "d": 181.1595833333413,
      "v": 50
    },
    {
      "midi": 43,
      "hit": false,
      "t": 80434.85500000048,
      "d": 94.2029833333363,
      "v": 46
    },
    {
      "midi": 60,
      "hit": false,
      "t": 80434.85500000048,
      "d": 101.44936666666763,
      "v": 54
    },
    {
      "midi": 55,
      "hit": false,
      "t": 80434.85500000048,
      "d": 105.07255833334057,
      "v": 56
    },
    {
      "midi": 64,
      "hit": false,
      "t": 80434.85500000048,
      "d": 115.94213333334483,
      "v": 60
    },
    {
      "midi": 70,
      "hit": false,
      "t": 80434.85500000048,
      "d": 159.42043333334732,
      "v": 63
    },
    {
      "midi": 48,
      "hit": false,
      "t": 80434.85500000048,
      "d": 163.04362500002026,
      "v": 72
    },
    {
      "midi": 48,
      "hit": false,
      "t": 80652.2465000005,
      "d": 83.33340833333205,
      "v": 63
    },
    {
      "midi": 55,
      "hit": false,
      "t": 80652.2465000005,
      "d": 318.84086666666553,
      "v": 54
    },
    {
      "midi": 64,
      "hit": false,
      "t": 80652.2465000005,
      "d": 318.84086666666553,
      "v": 65
    },
    {
      "midi": 60,
      "hit": false,
      "t": 80652.2465000005,
      "d": 329.7104416666698,
      "v": 56
    },
    {
      "midi": 43,
      "hit": false,
      "t": 80652.2465000005,
      "d": 355.0727833333367,
      "v": 50
    },
    {
      "midi": 72,
      "hit": false,
      "t": 80652.2465000005,
      "d": 398.5510833333392,
      "v": 57
    },
    {
      "midi": 48,
      "hit": false,
      "t": 80869.6380000005,
      "d": 152.17405000000144,
      "v": 61
    },
    {
      "midi": 48,
      "hit": false,
      "t": 81087.02950000051,
      "d": 83.33340833333205,
      "v": 68
    },
    {
      "midi": 43,
      "hit": false,
      "t": 81087.02950000051,
      "d": 94.2029833333363,
      "v": 49
    },
    {
      "midi": 60,
      "hit": false,
      "t": 81087.02950000051,
      "d": 115.94213333333028,
      "v": 45
    },
    {
      "midi": 55,
      "hit": false,
      "t": 81087.02950000051,
      "d": 141.30447499999718,
      "v": 49
    },
    {
      "midi": 64,
      "hit": false,
      "t": 81087.02950000051,
      "d": 159.42043333333277,
      "v": 53
    },
    {
      "midi": 67,
      "hit": false,
      "t": 81087.02950000051,
      "d": 181.15958333332674,
      "v": 56
    },
    {
      "midi": 55,
      "hit": false,
      "t": 81304.42100000051,
      "d": 119.56532500000321,
      "v": 64
    },
    {
      "midi": 48,
      "hit": false,
      "t": 81304.42100000051,
      "d": 141.30447499999718,
      "v": 70
    },
    {
      "midi": 43,
      "hit": false,
      "t": 81304.42100000051,
      "d": 173.9131999999954,
      "v": 48
    },
    {
      "midi": 70,
      "hit": false,
      "t": 81304.42100000051,
      "d": 195.65234999998938,
      "v": 63
    },
    {
      "midi": 64,
      "hit": false,
      "t": 81304.42100000051,
      "d": 384.05831666664744,
      "v": 70
    },
    {
      "midi": 60,
      "hit": false,
      "t": 81304.42100000051,
      "d": 394.9278916666517,
      "v": 58
    },
    {
      "midi": 72,
      "hit": false,
      "t": 81521.8125000005,
      "d": 101.44936666666763,
      "v": 48
    },
    {
      "midi": 43,
      "hit": false,
      "t": 81521.8125000005,
      "d": 119.56532500000321,
      "v": 45
    },
    {
      "midi": 55,
      "hit": false,
      "t": 81521.8125000005,
      "d": 181.1595833333413,
      "v": 72
    },
    {
      "midi": 48,
      "hit": false,
      "t": 81521.8125000005,
      "d": 188.4059666666726,
      "v": 48
    },
    {
      "midi": 59,
      "hit": false,
      "t": 81739.2040000005,
      "d": 123.1885166666616,
      "v": 72
    },
    {
      "midi": 55,
      "hit": false,
      "t": 81739.2040000005,
      "d": 141.30447499999718,
      "v": 67
    },
    {
      "midi": 62,
      "hit": false,
      "t": 81739.2040000005,
      "d": 155.79724166665983,
      "v": 70
    },
    {
      "midi": 43,
      "hit": false,
      "t": 81739.2040000005,
      "d": 173.9131999999954,
      "v": 60
    },
    {
      "midi": 71,
      "hit": false,
      "t": 81739.2040000005,
      "d": 224.63788333332923,
      "v": 75
    },
    {
      "midi": 50,
      "hit": false,
      "t": 81739.2040000005,
      "d": 333.3336333333282,
      "v": 54
    },
    {
      "midi": 59,
      "hit": false,
      "t": 81956.5955000005,
      "d": 79.71021666665911,
      "v": 46
    },
    {
      "midi": 43,
      "hit": false,
      "t": 81956.5955000005,
      "d": 83.33340833333205,
      "v": 69
    },
    {
      "midi": 55,
      "hit": false,
      "t": 81956.5955000005,
      "d": 86.95660000000498,
      "v": 60
    },
    {
      "midi": 62,
      "hit": false,
      "t": 81956.5955000005,
      "d": 101.44936666666763,
      "v": 63
    },
    {
      "midi": 74,
      "hit": false,
      "t": 81956.5955000005,
      "d": 192.029158333331,
      "v": 60
    },
    {
      "midi": 50,
      "hit": false,
      "t": 82173.9870000005,
      "d": 97.82617499999469,
      "v": 51
    },
    {
      "midi": 43,
      "hit": false,
      "t": 82173.9870000005,
      "d": 119.56532499998866,
      "v": 64
    },
    {
      "midi": 55,
      "hit": false,
      "t": 82173.9870000005,
      "d": 123.1885166666616,
      "v": 55
    },
    {
      "midi": 62,
      "hit": false,
      "t": 82173.9870000005,
      "d": 152.17405000000144,
      "v": 60
    },
    {
      "midi": 59,
      "hit": false,
      "t": 82173.9870000005,
      "d": 163.0436250000057,
      "v": 63
    },
    {
      "midi": 77,
      "hit": false,
      "t": 82173.9870000005,
      "d": 199.27554166667687,
      "v": 57
    },
    {
      "midi": 59,
      "hit": false,
      "t": 82391.37850000052,
      "d": 130.43489999999292,
      "v": 62
    },
    {
      "midi": 55,
      "hit": false,
      "t": 82391.37850000052,
      "d": 144.92766666665557,
      "v": 49
    },
    {
      "midi": 62,
      "hit": false,
      "t": 82391.37850000052,
      "d": 163.04362499999115,
      "v": 60
    },
    {
      "midi": 43,
      "hit": false,
      "t": 82391.37850000052,
      "d": 311.5944833333342,
      "v": 56
    },
    {
      "midi": 50,
      "hit": false,
      "t": 82391.37850000052,
      "d": 322.46405833333847,
      "v": 54
    },
    {
      "midi": 74,
      "hit": false,
      "t": 82391.37850000052,
      "d": 413.04385000000184,
      "v": 66
    },
    {
      "midi": 59,
      "hit": false,
      "t": 82608.77000000051,
      "d": 123.18851666667615,
      "v": 56
    },
    {
      "midi": 55,
      "hit": false,
      "t": 82608.77000000051,
      "d": 137.6812833333388,
      "v": 53
    },
    {
      "midi": 62,
      "hit": false,
      "t": 82608.77000000051,
      "d": 163.0436250000057,
      "v": 60
    },
    {
      "midi": 50,
      "hit": false,
      "t": 82826.16150000051,
      "d": 76.08702500000072,
      "v": 45
    },
    {
      "midi": 43,
      "hit": false,
      "t": 82826.16150000051,
      "d": 83.33340833333205,
      "v": 46
    },
    {
      "midi": 59,
      "hit": false,
      "t": 82826.16150000051,
      "d": 108.69574999999895,
      "v": 56
    },
    {
      "midi": 55,
      "hit": false,
      "t": 82826.16150000051,
      "d": 115.94213333333028,
      "v": 52
    },
    {
      "midi": 62,
      "hit": false,
      "t": 82826.16150000051,
      "d": 141.30447499999718,
      "v": 51
    },
    {
      "midi": 71,
      "hit": false,
      "t": 82826.16150000051,
      "d": 231.88426666666055,
      "v": 67
    },
    {
      "midi": 59,
      "hit": false,
      "t": 83043.55300000051,
      "d": 105.07255833332601,
      "v": 53
    },
    {
      "midi": 55,
      "hit": false,
      "t": 83043.55300000051,
      "d": 108.69574999999895,
      "v": 50
    },
    {
      "midi": 62,
      "hit": false,
      "t": 83043.55300000051,
      "d": 130.43489999999292,
      "v": 46
    },
    {
      "midi": 43,
      "hit": false,
      "t": 83043.55300000051,
      "d": 141.30447499999718,
      "v": 68
    },
    {
      "midi": 77,
      "hit": false,
      "t": 83043.55300000051,
      "d": 170.29000833333703,
      "v": 51
    },
    {
      "midi": 50,
      "hit": false,
      "t": 83043.55300000051,
      "d": 326.08724999999686,
      "v": 46
    },
    {
      "midi": 43,
      "hit": false,
      "t": 83260.9445000005,
      "d": 76.08702500000072,
      "v": 54
    },
    {
      "midi": 59,
      "hit": false,
      "t": 83260.9445000005,
      "d": 112.31894166667189,
      "v": 62
    },
    {
      "midi": 62,
      "hit": false,
      "t": 83260.9445000005,
      "d": 293.4785250000132,
      "v": 57
    },
    {
      "midi": 71,
      "hit": false,
      "t": 83260.9445000005,
      "d": 373.18874166668684,
      "v": 58
    },
    {
      "midi": 55,
      "hit": false,
      "t": 83260.9445000005,
      "d": 387.6815083333495,
      "v": 58
    },
    {
      "midi": 59,
      "hit": false,
      "t": 83478.33600000052,
      "d": 152.17405000000144,
      "v": 45
    },
    {
      "midi": 43,
      "hit": false,
      "t": 83478.33600000052,
      "d": 163.0436250000057,
      "v": 61
    },
    {
      "midi": 50,
      "hit": false,
      "t": 83478.33600000052,
      "d": 293.4785249999986,
      "v": 46
    },
    {
      "midi": 43,
      "hit": false,
      "t": 83695.72750000052,
      "d": 76.08702500000072,
      "v": 49
    },
    {
      "midi": 59,
      "hit": false,
      "t": 83695.72750000052,
      "d": 119.56532500000321,
      "v": 56
    },
    {
      "midi": 55,
      "hit": false,
      "t": 83695.72750000052,
      "d": 137.6812833333388,
      "v": 56
    },
    {
      "midi": 62,
      "hit": false,
      "t": 83695.72750000052,
      "d": 141.30447500001173,
      "v": 59
    },
    {
      "midi": 71,
      "hit": false,
      "t": 83695.72750000052,
      "d": 188.4059666666726,
      "v": 63
    },
    {
      "midi": 50,
      "hit": false,
      "t": 83913.11900000053,
      "d": 94.2029833333363,
      "v": 46
    },
    {
      "midi": 59,
      "hit": false,
      "t": 83913.11900000053,
      "d": 101.44936666666763,
      "v": 54
    },
    {
      "midi": 55,
      "hit": false,
      "t": 83913.11900000053,
      "d": 105.07255833334057,
      "v": 56
    },
    {
      "midi": 62,
      "hit": false,
      "t": 83913.11900000053,
      "d": 115.94213333334483,
      "v": 60
    },
    {
      "midi": 77,
      "hit": false,
      "t": 83913.11900000053,
      "d": 144.92766666668467,
      "v": 59
    },
    {
      "midi": 43,
      "hit": false,
      "t": 83913.11900000053,
      "d": 163.04362500002026,
      "v": 66
    },
    {
      "midi": 43,
      "hit": false,
      "t": 84130.51050000056,
      "d": 83.33340833333205,
      "v": 58
    },
    {
      "midi": 55,
      "hit": false,
      "t": 84130.51050000056,
      "d": 318.84086666666553,
      "v": 54
    },
    {
      "midi": 62,
      "hit": false,
      "t": 84130.51050000056,
      "d": 318.84086666666553,
      "v": 65
    },
    {
      "midi": 77,
      "hit": false,
      "t": 84130.51050000056,
      "d": 326.08724999999686,
      "v": 61
    },
    {
      "midi": 59,
      "hit": false,
      "t": 84130.51050000056,
      "d": 329.7104416666698,
      "v": 56
    },
    {
      "midi": 50,
      "hit": false,
      "t": 84130.51050000056,
      "d": 355.0727833333367,
      "v": 50
    },
    {
      "midi": 43,
      "hit": false,
      "t": 84347.90200000055,
      "d": 152.17405000000144,
      "v": 56
    },
    {
      "midi": 43,
      "hit": false,
      "t": 84565.29350000055,
      "d": 83.33340833333205,
      "v": 63
    },
    {
      "midi": 50,
      "hit": false,
      "t": 84565.29350000055,
      "d": 94.2029833333363,
      "v": 49
    },
    {
      "midi": 59,
      "hit": false,
      "t": 84565.29350000055,
      "d": 115.94213333333028,
      "v": 45
    },
    {
      "midi": 55,
      "hit": false,
      "t": 84565.29350000055,
      "d": 141.30447499999718,
      "v": 49
    },
    {
      "midi": 62,
      "hit": false,
      "t": 84565.29350000055,
      "d": 159.42043333333277,
      "v": 53
    },
    {
      "midi": 71,
      "hit": false,
      "t": 84565.29350000055,
      "d": 195.65235000000393,
      "v": 72
    },
    {
      "midi": 77,
      "hit": false,
      "t": 84782.68500000055,
      "d": 115.94213333333028,
      "v": 67
    },
    {
      "midi": 55,
      "hit": false,
      "t": 84782.68500000055,
      "d": 119.56532500000321,
      "v": 64
    },
    {
      "midi": 43,
      "hit": false,
      "t": 84782.68500000055,
      "d": 141.30447499999718,
      "v": 65
    },
    {
      "midi": 50,
      "hit": false,
      "t": 84782.68500000055,
      "d": 173.9131999999954,
      "v": 48
    },
    {
      "midi": 62,
      "hit": false,
      "t": 84782.68500000055,
      "d": 384.058316666662,
      "v": 70
    },
    {
      "midi": 59,
      "hit": false,
      "t": 84782.68500000055,
      "d": 394.92789166666626,
      "v": 58
    },
    {
      "midi": 77,
      "hit": false,
      "t": 85000.07650000055,
      "d": 115.94213333333028,
      "v": 55
    },
    {
      "midi": 50,
      "hit": false,
      "t": 85000.07650000055,
      "d": 119.56532500000321,
      "v": 45
    },
    {
      "midi": 55,
      "hit": false,
      "t": 85000.07650000055,
      "d": 181.1595833333413,
      "v": 72
    },
    {
      "midi": 43,
      "hit": false,
      "t": 85000.07650000055,
      "d": 188.4059666666726,
      "v": 45
    },
    {
      "midi": 60,
      "hit": false,
      "t": 85217.46800000056,
      "d": 123.1885166666616,
      "v": 72
    },
    {
      "midi": 55,
      "hit": false,
      "t": 85217.46800000056,
      "d": 141.30447499999718,
      "v": 67
    },
    {
      "midi": 64,
      "hit": false,
      "t": 85217.46800000056,
      "d": 155.79724166665983,
      "v": 70
    },
    {
      "midi": 48,
      "hit": false,
      "t": 85217.46800000056,
      "d": 173.9131999999954,
      "v": 65
    },
    {
      "midi": 70,
      "hit": false,
      "t": 85217.46800000056,
      "d": 282.60894999999437,
      "v": 53
    },
    {
      "midi": 67,
      "hit": false,
      "t": 85217.46800000056,
      "d": 300.72490833332995,
      "v": 52
    },
    {
      "midi": 43,
      "hit": false,
      "t": 85217.46800000056,
      "d": 333.3336333333282,
      "v": 54
    },
    {
      "midi": 60,
      "hit": false,
      "t": 85434.85950000056,
      "d": 79.71021666665911,
      "v": 46
    },
    {
      "midi": 48,
      "hit": false,
      "t": 85434.85950000056,
      "d": 83.33340833333205,
      "v": 75
    },
    {
      "midi": 55,
      "hit": false,
      "t": 85434.85950000056,
      "d": 86.95660000000498,
      "v": 60
    },
    {
      "midi": 64,
      "hit": false,
      "t": 85434.85950000056,
      "d": 101.44936666666763,
      "v": 63
    },
    {
      "midi": 43,
      "hit": false,
      "t": 85652.25100000056,
      "d": 97.82617499999469,
      "v": 51
    },
    {
      "midi": 48,
      "hit": false,
      "t": 85652.25100000056,
      "d": 119.56532499998866,
      "v": 69
    },
    {
      "midi": 55,
      "hit": false,
      "t": 85652.25100000056,
      "d": 123.1885166666616,
      "v": 55
    },
    {
      "midi": 64,
      "hit": false,
      "t": 85652.25100000056,
      "d": 152.17405000000144,
      "v": 60
    },
    {
      "midi": 60,
      "hit": false,
      "t": 85652.25100000056,
      "d": 163.0436250000057,
      "v": 63
    },
    {
      "midi": 67,
      "hit": false,
      "t": 85652.25100000056,
      "d": 163.0436250000057,
      "v": 27
    },
    {
      "midi": 70,
      "hit": false,
      "t": 85652.25100000056,
      "d": 380.4351250000036,
      "v": 65
    },
    {
      "midi": 60,
      "hit": false,
      "t": 85869.64250000057,
      "d": 130.43489999999292,
      "v": 62
    },
    {
      "midi": 55,
      "hit": false,
      "t": 85869.64250000057,
      "d": 144.92766666665557,
      "v": 49
    },
    {
      "midi": 64,
      "hit": false,
      "t": 85869.64250000057,
      "d": 163.04362499999115,
      "v": 60
    },
    {
      "midi": 48,
      "hit": false,
      "t": 85869.64250000057,
      "d": 311.5944833333342,
      "v": 61
    },
    {
      "midi": 43,
      "hit": false,
      "t": 85869.64250000057,
      "d": 322.46405833333847,
      "v": 54
    },
    {
      "midi": 67,
      "hit": false,
      "t": 86087.03400000057,
      "d": 86.95660000000498,
      "v": 64
    },
    {
      "midi": 60,
      "hit": false,
      "t": 86087.03400000057,
      "d": 123.18851666667615,
      "v": 56
    },
    {
      "midi": 55,
      "hit": false,
      "t": 86087.03400000057,
      "d": 137.6812833333388,
      "v": 53
    },
    {
      "midi": 64,
      "hit": false,
      "t": 86087.03400000057,
      "d": 163.0436250000057,
      "v": 60
    },
    {
      "midi": 43,
      "hit": false,
      "t": 86304.42550000058,
      "d": 76.08702500000072,
      "v": 45
    },
    {
      "midi": 48,
      "hit": false,
      "t": 86304.42550000058,
      "d": 83.33340833333205,
      "v": 49
    },
    {
      "midi": 60,
      "hit": false,
      "t": 86304.42550000058,
      "d": 108.69574999999895,
      "v": 56
    },
    {
      "midi": 55,
      "hit": false,
      "t": 86304.42550000058,
      "d": 115.94213333333028,
      "v": 52
    },
    {
      "midi": 64,
      "hit": false,
      "t": 86304.42550000058,
      "d": 141.30447499999718,
      "v": 51
    },
    {
      "midi": 67,
      "hit": false,
      "t": 86304.42550000058,
      "d": 217.3914999999979,
      "v": 40
    },
    {
      "midi": 70,
      "hit": false,
      "t": 86304.42550000058,
      "d": 373.1887416666723,
      "v": 65
    },
    {
      "midi": 60,
      "hit": false,
      "t": 86521.81700000058,
      "d": 105.07255833334057,
      "v": 53
    },
    {
      "midi": 55,
      "hit": false,
      "t": 86521.81700000058,
      "d": 108.6957500000135,
      "v": 50
    },
    {
      "midi": 64,
      "hit": false,
      "t": 86521.81700000058,
      "d": 130.43490000000747,
      "v": 46
    },
    {
      "midi": 48,
      "hit": false,
      "t": 86521.81700000058,
      "d": 141.30447500001173,
      "v": 74
    },
    {
      "midi": 43,
      "hit": false,
      "t": 86521.81700000058,
      "d": 326.0872500000114,
      "v": 46
    },
    {
      "midi": 67,
      "hit": false,
      "t": 86739.20850000059,
      "d": 61.594258333338075,
      "v": 57
    },
    {
      "midi": 48,
      "hit": false,
      "t": 86739.20850000059,
      "d": 76.08702500000072,
      "v": 58
    },
    {
      "midi": 60,
      "hit": false,
      "t": 86739.20850000059,
      "d": 112.31894166667189,
      "v": 62
    },
    {
      "midi": 64,
      "hit": false,
      "t": 86739.20850000059,
      "d": 293.4785250000132,
      "v": 57
    },
    {
      "midi": 55,
      "hit": false,
      "t": 86739.20850000059,
      "d": 387.6815083333495,
      "v": 58
    },
    {
      "midi": 60,
      "hit": false,
      "t": 86956.6000000006,
      "d": 152.17405000000144,
      "v": 45
    },
    {
      "midi": 48,
      "hit": false,
      "t": 86956.6000000006,
      "d": 163.0436250000057,
      "v": 66
    },
    {
      "midi": 43,
      "hit": false,
      "t": 86956.6000000006,
      "d": 293.4785249999986,
      "v": 46
    },
    {
      "midi": 70,
      "hit": false,
      "t": 86956.6000000006,
      "d": 355.0727833333367,
      "v": 63
    },
    {
      "midi": 48,
      "hit": false,
      "t": 87173.9915000006,
      "d": 76.08702500000072,
      "v": 53
    },
    {
      "midi": 60,
      "hit": false,
      "t": 87173.9915000006,
      "d": 119.56532500000321,
      "v": 56
    },
    {
      "midi": 55,
      "hit": false,
      "t": 87173.9915000006,
      "d": 137.6812833333388,
      "v": 56
    },
    {
      "midi": 64,
      "hit": false,
      "t": 87173.9915000006,
      "d": 141.30447500001173,
      "v": 59
    },
    {
      "midi": 43,
      "hit": false,
      "t": 87391.38300000061,
      "d": 94.2029833333363,
      "v": 46
    },
    {
      "midi": 60,
      "hit": false,
      "t": 87391.38300000061,
      "d": 101.44936666666763,
      "v": 54
    },
    {
      "midi": 55,
      "hit": false,
      "t": 87391.38300000061,
      "d": 105.07255833334057,
      "v": 56
    },
    {
      "midi": 64,
      "hit": false,
      "t": 87391.38300000061,
      "d": 115.94213333334483,
      "v": 60
    },
    {
      "midi": 48,
      "hit": false,
      "t": 87391.38300000061,
      "d": 163.0436250000057,
      "v": 72
    },
    {
      "midi": 70,
      "hit": false,
      "t": 87391.38300000061,
      "d": 271.7393750000192,
      "v": 60
    },
    {
      "midi": 48,
      "hit": false,
      "t": 87608.77450000063,
      "d": 83.3334083333466,
      "v": 63
    },
    {
      "midi": 55,
      "hit": false,
      "t": 87608.77450000063,
      "d": 318.8408666666801,
      "v": 54
    },
    {
      "midi": 64,
      "hit": false,
      "t": 87608.77450000063,
      "d": 318.8408666666801,
      "v": 65
    },
    {
      "midi": 60,
      "hit": false,
      "t": 87608.77450000063,
      "d": 329.71044166668435,
      "v": 56
    },
    {
      "midi": 43,
      "hit": false,
      "t": 87608.77450000063,
      "d": 355.07278333335125,
      "v": 50
    },
    {
      "midi": 70,
      "hit": false,
      "t": 87826.16600000064,
      "d": 137.6812833333388,
      "v": 69
    },
    {
      "midi": 48,
      "hit": false,
      "t": 87826.16600000064,
      "d": 152.17405000000144,
      "v": 61
    },
    {
      "midi": 48,
      "hit": false,
      "t": 88043.55750000064,
      "d": 83.33340833333205,
      "v": 68
    },
    {
      "midi": 43,
      "hit": false,
      "t": 88043.55750000064,
      "d": 94.2029833333363,
      "v": 49
    },
    {
      "midi": 60,
      "hit": false,
      "t": 88043.55750000064,
      "d": 115.94213333333028,
      "v": 45
    },
    {
      "midi": 55,
      "hit": false,
      "t": 88043.55750000064,
      "d": 141.30447499999718,
      "v": 49
    },
    {
      "midi": 67,
      "hit": false,
      "t": 88043.55750000064,
      "d": 155.79724166665983,
      "v": 68
    },
    {
      "midi": 64,
      "hit": false,
      "t": 88043.55750000064,
      "d": 159.42043333333277,
      "v": 53
    },
    {
      "midi": 70,
      "hit": false,
      "t": 88260.94900000063,
      "d": 90.57979166666337,
      "v": 62
    },
    {
      "midi": 55,
      "hit": false,
      "t": 88260.94900000063,
      "d": 119.56532500000321,
      "v": 64
    },
    {
      "midi": 48,
      "hit": false,
      "t": 88260.94900000063,
      "d": 141.30447499999718,
      "v": 70
    },
    {
      "midi": 43,
      "hit": false,
      "t": 88260.94900000063,
      "d": 173.9131999999954,
      "v": 48
    },
    {
      "midi": 64,
      "hit": false,
      "t": 88260.94900000063,
      "d": 384.05831666664744,
      "v": 70
    },
    {
      "midi": 60,
      "hit": false,
      "t": 88260.94900000063,
      "d": 394.9278916666517,
      "v": 58
    },
    {
      "midi": 70,
      "hit": false,
      "t": 88478.34050000063,
      "d": 97.82617499999469,
      "v": 65
    },
    {
      "midi": 43,
      "hit": false,
      "t": 88478.34050000063,
      "d": 119.56532499998866,
      "v": 45
    },
    {
      "midi": 55,
      "hit": false,
      "t": 88478.34050000063,
      "d": 181.15958333332674,
      "v": 72
    },
    {
      "midi": 48,
      "hit": false,
      "t": 88478.34050000063,
      "d": 188.40596666665806,
      "v": 48
    },
    {
      "midi": 62,
      "hit": false,
      "t": 88695.73200000063,
      "d": 123.1885166666616,
      "v": 72
    },
    {
      "midi": 57,
      "hit": false,
      "t": 88695.73200000063,
      "d": 141.30447499999718,
      "v": 67
    },
    {
      "midi": 66,
      "hit": false,
      "t": 88695.73200000063,
      "d": 155.79724166665983,
      "v": 70
    },
    {
      "midi": 50,
      "hit": false,
      "t": 88695.73200000063,
      "d": 173.9131999999954,
      "v": 65
    },
    {
      "midi": 69,
      "hit": false,
      "t": 88695.73200000063,
      "d": 315.2176750000217,
      "v": 71
    },
    {
      "midi": 74,
      "hit": false,
      "t": 88695.73200000063,
      "d": 315.2176750000217,
      "v": 75
    },
    {
      "midi": 45,
      "hit": false,
      "t": 88695.73200000063,
      "d": 333.3336333333573,
      "v": 54
    },
    {
      "midi": 62,
      "hit": false,
      "t": 88913.12350000063,
      "d": 79.71021666667366,
      "v": 46
    },
    {
      "midi": 50,
      "hit": false,
      "t": 88913.12350000063,
      "d": 83.3334083333466,
      "v": 75
    },
    {
      "midi": 57,
      "hit": false,
      "t": 88913.12350000063,
      "d": 86.95660000001953,
      "v": 60
    },
    {
      "midi": 66,
      "hit": false,
      "t": 88913.12350000063,
      "d": 101.44936666669673,
      "v": 63
    },
    {
      "midi": 45,
      "hit": false,
      "t": 89130.51500000065,
      "d": 97.82617499999469,
      "v": 51
    },
    {
      "midi": 50,
      "hit": false,
      "t": 89130.51500000065,
      "d": 119.56532499998866,
      "v": 69
    },
    {
      "midi": 57,
      "hit": false,
      "t": 89130.51500000065,
      "d": 123.1885166666616,
      "v": 55
    },
    {
      "midi": 66,
      "hit": false,
      "t": 89130.51500000065,
      "d": 152.17405000000144,
      "v": 60
    },
    {
      "midi": 62,
      "hit": false,
      "t": 89130.51500000065,
      "d": 163.0436250000057,
      "v": 63
    },
    {
      "midi": 69,
      "hit": false,
      "t": 89130.51500000065,
      "d": 322.464058333353,
      "v": 59
    },
    {
      "midi": 74,
      "hit": false,
      "t": 89130.51500000065,
      "d": 333.3336333333573,
      "v": 51
    },
    {
      "midi": 62,
      "hit": false,
      "t": 89347.90650000067,
      "d": 130.43490000000747,
      "v": 62
    },
    {
      "midi": 57,
      "hit": false,
      "t": 89347.90650000067,
      "d": 144.92766666667012,
      "v": 49
    },
    {
      "midi": 66,
      "hit": false,
      "t": 89347.90650000067,
      "d": 163.0436250000057,
      "v": 60
    },
    {
      "midi": 50,
      "hit": false,
      "t": 89347.90650000067,
      "d": 311.59448333334876,
      "v": 61
    },
    {
      "midi": 45,
      "hit": false,
      "t": 89347.90650000067,
      "d": 322.464058333353,
      "v": 54
    },
    {
      "midi": 69,
      "hit": false,
      "t": 89565.29800000068,
      "d": 65.21744999999646,
      "v": 53
    },
    {
      "midi": 74,
      "hit": false,
      "t": 89565.29800000068,
      "d": 94.2029833333363,
      "v": 58
    },
    {
      "midi": 62,
      "hit": false,
      "t": 89565.29800000068,
      "d": 123.18851666667615,
      "v": 56
    },
    {
      "midi": 57,
      "hit": false,
      "t": 89565.29800000068,
      "d": 137.6812833333388,
      "v": 53
    },
    {
      "midi": 66,
      "hit": false,
      "t": 89565.29800000068,
      "d": 163.0436250000057,
      "v": 60
    },
    {
      "midi": 45,
      "hit": false,
      "t": 89782.68950000069,
      "d": 76.08702500000072,
      "v": 45
    },
    {
      "midi": 50,
      "hit": false,
      "t": 89782.68950000069,
      "d": 83.33340833333205,
      "v": 49
    },
    {
      "midi": 62,
      "hit": false,
      "t": 89782.68950000069,
      "d": 108.69574999999895,
      "v": 56
    },
    {
      "midi": 57,
      "hit": false,
      "t": 89782.68950000069,
      "d": 115.94213333333028,
      "v": 52
    },
    {
      "midi": 66,
      "hit": false,
      "t": 89782.68950000069,
      "d": 141.30447499999718,
      "v": 51
    },
    {
      "midi": 69,
      "hit": false,
      "t": 89782.68950000069,
      "d": 278.985758333336,
      "v": 66
    },
    {
      "midi": 74,
      "hit": false,
      "t": 89782.68950000069,
      "d": 300.72490833332995,
      "v": 66
    },
    {
      "midi": 62,
      "hit": false,
      "t": 90000.08100000069,
      "d": 105.07255833332601,
      "v": 53
    },
    {
      "midi": 57,
      "hit": false,
      "t": 90000.08100000069,
      "d": 108.69574999999895,
      "v": 50
    },
    {
      "midi": 66,
      "hit": false,
      "t": 90000.08100000069,
      "d": 130.43489999999292,
      "v": 46
    },
    {
      "midi": 50,
      "hit": false,
      "t": 90000.08100000069,
      "d": 141.30447499999718,
      "v": 74
    },
    {
      "midi": 45,
      "hit": false,
      "t": 90000.08100000069,
      "d": 326.08724999999686,
      "v": 46
    },
    {
      "midi": 50,
      "hit": false,
      "t": 90217.47250000069,
      "d": 76.08702500000072,
      "v": 58
    },
    {
      "midi": 62,
      "hit": false,
      "t": 90217.47250000069,
      "d": 112.31894166667189,
      "v": 62
    },
    {
      "midi": 66,
      "hit": false,
      "t": 90217.47250000069,
      "d": 293.4785250000132,
      "v": 57
    },
    {
      "midi": 69,
      "hit": false,
      "t": 90217.47250000069,
      "d": 365.94235833334096,
      "v": 63
    },
    {
      "midi": 74,
      "hit": false,
      "t": 90217.47250000069,
      "d": 365.94235833334096,
      "v": 70
    },
    {
      "midi": 57,
      "hit": false,
      "t": 90217.47250000069,
      "d": 387.6815083333495,
      "v": 58
    },
    {
      "midi": 62,
      "hit": false,
      "t": 90434.8640000007,
      "d": 152.17405000000144,
      "v": 45
    },
    {
      "midi": 50,
      "hit": false,
      "t": 90434.8640000007,
      "d": 163.0436250000057,
      "v": 66
    },
    {
      "midi": 45,
      "hit": false,
      "t": 90434.8640000007,
      "d": 293.4785249999986,
      "v": 46
    },
    {
      "midi": 50,
      "hit": false,
      "t": 90652.2555000007,
      "d": 76.08702500000072,
      "v": 53
    },
    {
      "midi": 69,
      "hit": false,
      "t": 90652.2555000007,
      "d": 83.33340833333205,
      "v": 57
    },
    {
      "midi": 74,
      "hit": false,
      "t": 90652.2555000007,
      "d": 97.82617499999469,
      "v": 66
    },
    {
      "midi": 62,
      "hit": false,
      "t": 90652.2555000007,
      "d": 119.56532499998866,
      "v": 56
    },
    {
      "midi": 57,
      "hit": false,
      "t": 90652.2555000007,
      "d": 137.68128333332425,
      "v": 56
    },
    {
      "midi": 66,
      "hit": false,
      "t": 90652.2555000007,
      "d": 141.30447499999718,
      "v": 59
    },
    {
      "midi": 45,
      "hit": false,
      "t": 90869.6470000007,
      "d": 94.2029833333363,
      "v": 46
    },
    {
      "midi": 62,
      "hit": false,
      "t": 90869.6470000007,
      "d": 101.44936666666763,
      "v": 54
    },
    {
      "midi": 57,
      "hit": false,
      "t": 90869.6470000007,
      "d": 105.07255833334057,
      "v": 56
    },
    {
      "midi": 66,
      "hit": false,
      "t": 90869.6470000007,
      "d": 115.94213333334483,
      "v": 60
    },
    {
      "midi": 50,
      "hit": false,
      "t": 90869.6470000007,
      "d": 163.0436250000057,
      "v": 72
    },
    {
      "midi": 69,
      "hit": false,
      "t": 90869.6470000007,
      "d": 326.0872500000114,
      "v": 66
    },
    {
      "midi": 74,
      "hit": false,
      "t": 90869.6470000007,
      "d": 344.203208333347,
      "v": 66
    },
    {
      "midi": 50,
      "hit": false,
      "t": 91087.03850000071,
      "d": 83.33340833333205,
      "v": 63
    },
    {
      "midi": 57,
      "hit": false,
      "t": 91087.03850000071,
      "d": 318.84086666666553,
      "v": 54
    },
    {
      "midi": 66,
      "hit": false,
      "t": 91087.03850000071,
      "d": 318.84086666666553,
      "v": 65
    },
    {
      "midi": 62,
      "hit": false,
      "t": 91087.03850000071,
      "d": 329.7104416666698,
      "v": 56
    },
    {
      "midi": 45,
      "hit": false,
      "t": 91087.03850000071,
      "d": 355.0727833333367,
      "v": 50
    },
    {
      "midi": 69,
      "hit": false,
      "t": 91304.4300000007,
      "d": 57.97106666666514,
      "v": 64
    },
    {
      "midi": 74,
      "hit": false,
      "t": 91304.4300000007,
      "d": 68.8406416666694,
      "v": 72
    },
    {
      "midi": 50,
      "hit": false,
      "t": 91304.4300000007,
      "d": 152.17405000000144,
      "v": 61
    },
    {
      "midi": 69,
      "hit": false,
      "t": 91521.8215000007,
      "d": 36.23191666667117,
      "v": 53
    },
    {
      "midi": 74,
      "hit": false,
      "t": 91521.8215000007,
      "d": 47.10149166667543,
      "v": 68
    },
    {
      "midi": 50,
      "hit": false,
      "t": 91521.8215000007,
      "d": 83.3334083333466,
      "v": 68
    },
    {
      "midi": 45,
      "hit": false,
      "t": 91521.8215000007,
      "d": 94.20298333335086,
      "v": 49
    },
    {
      "midi": 62,
      "hit": false,
      "t": 91521.8215000007,
      "d": 115.94213333334483,
      "v": 45
    },
    {
      "midi": 57,
      "hit": false,
      "t": 91521.8215000007,
      "d": 141.30447500001173,
      "v": 49
    },
    {
      "midi": 66,
      "hit": false,
      "t": 91521.8215000007,
      "d": 159.42043333334732,
      "v": 53
    },
    {
      "midi": 69,
      "hit": false,
      "t": 91739.21300000072,
      "d": 43.47830000000249,
      "v": 66
    },
    {
      "midi": 74,
      "hit": false,
      "t": 91739.21300000072,
      "d": 83.33340833333205,
      "v": 79
    },
    {
      "midi": 57,
      "hit": false,
      "t": 91739.21300000072,
      "d": 119.56532500000321,
      "v": 64
    },
    {
      "midi": 50,
      "hit": false,
      "t": 91739.21300000072,
      "d": 141.30447499999718,
      "v": 70
    },
    {
      "midi": 45,
      "hit": false,
      "t": 91739.21300000072,
      "d": 173.9131999999954,
      "v": 48
    },
    {
      "midi": 66,
      "hit": false,
      "t": 91739.21300000072,
      "d": 384.058316666662,
      "v": 70
    },
    {
      "midi": 62,
      "hit": false,
      "t": 91739.21300000072,
      "d": 394.92789166666626,
      "v": 58
    },
    {
      "midi": 69,
      "hit": false,
      "t": 91956.60450000071,
      "d": 39.855108333329554,
      "v": 74
    },
    {
      "midi": 74,
      "hit": false,
      "t": 91956.60450000071,
      "d": 43.47830000000249,
      "v": 70
    },
    {
      "midi": 45,
      "hit": false,
      "t": 91956.60450000071,
      "d": 119.56532500000321,
      "v": 45
    },
    {
      "midi": 57,
      "hit": false,
      "t": 91956.60450000071,
      "d": 181.1595833333413,
      "v": 72
    },
    {
      "midi": 50,
      "hit": false,
      "t": 91956.60450000071,
      "d": 188.4059666666726,
      "v": 48
    },
    {
      "midi": 59,
      "hit": false,
      "t": 92173.99600000073,
      "d": 123.1885166666616,
      "v": 72
    },
    {
      "midi": 55,
      "hit": false,
      "t": 92173.99600000073,
      "d": 141.30447499999718,
      "v": 67
    },
    {
      "midi": 62,
      "hit": false,
      "t": 92173.99600000073,
      "d": 155.79724166665983,
      "v": 70
    },
    {
      "midi": 43,
      "hit": false,
      "t": 92173.99600000073,
      "d": 173.9131999999954,
      "v": 60
    },
    {
      "midi": 77,
      "hit": false,
      "t": 92173.99600000073,
      "d": 173.9131999999954,
      "v": 75
    },
    {
      "midi": 50,
      "hit": false,
      "t": 92173.99600000073,
      "d": 333.3336333333573,
      "v": 54
    },
    {
      "midi": 59,
      "hit": false,
      "t": 92391.38750000072,
      "d": 79.71021666667366,
      "v": 46
    },
    {
      "midi": 43,
      "hit": false,
      "t": 92391.38750000072,
      "d": 83.3334083333466,
      "v": 69
    },
    {
      "midi": 55,
      "hit": false,
      "t": 92391.38750000072,
      "d": 86.95660000001953,
      "v": 60
    },
    {
      "midi": 71,
      "hit": false,
      "t": 92391.38750000072,
      "d": 90.57979166669247,
      "v": 76
    },
    {
      "midi": 62,
      "hit": false,
      "t": 92391.38750000072,
      "d": 101.44936666669673,
      "v": 63
    },
    {
      "midi": 50,
      "hit": false,
      "t": 92608.77900000075,
      "d": 97.82617499999469,
      "v": 51
    },
    {
      "midi": 43,
      "hit": false,
      "t": 92608.77900000075,
      "d": 119.56532499998866,
      "v": 64
    },
    {
      "midi": 55,
      "hit": false,
      "t": 92608.77900000075,
      "d": 123.1885166666616,
      "v": 55
    },
    {
      "midi": 62,
      "hit": false,
      "t": 92608.77900000075,
      "d": 152.17405000000144,
      "v": 60
    },
    {
      "midi": 59,
      "hit": false,
      "t": 92608.77900000075,
      "d": 163.0436250000057,
      "v": 63
    },
    {
      "midi": 71,
      "hit": false,
      "t": 92608.77900000075,
      "d": 405.7974666666705,
      "v": 64
    },
    {
      "midi": 59,
      "hit": false,
      "t": 92826.17050000076,
      "d": 130.43489999999292,
      "v": 62
    },
    {
      "midi": 55,
      "hit": false,
      "t": 92826.17050000076,
      "d": 144.92766666665557,
      "v": 49
    },
    {
      "midi": 62,
      "hit": false,
      "t": 92826.17050000076,
      "d": 163.04362499999115,
      "v": 60
    },
    {
      "midi": 43,
      "hit": false,
      "t": 92826.17050000076,
      "d": 311.5944833333342,
      "v": 56
    },
    {
      "midi": 50,
      "hit": false,
      "t": 92826.17050000076,
      "d": 322.46405833333847,
      "v": 54
    },
    {
      "midi": 59,
      "hit": false,
      "t": 93043.56200000076,
      "d": 123.18851666667615,
      "v": 56
    },
    {
      "midi": 55,
      "hit": false,
      "t": 93043.56200000076,
      "d": 137.6812833333388,
      "v": 53
    },
    {
      "midi": 62,
      "hit": false,
      "t": 93043.56200000076,
      "d": 163.0436250000057,
      "v": 60
    },
    {
      "midi": 77,
      "hit": false,
      "t": 93043.56200000076,
      "d": 184.78277499999967,
      "v": 66
    },
    {
      "midi": 50,
      "hit": false,
      "t": 93260.95350000076,
      "d": 76.08702500000072,
      "v": 45
    },
    {
      "midi": 71,
      "hit": false,
      "t": 93260.95350000076,
      "d": 79.71021666667366,
      "v": 55
    },
    {
      "midi": 43,
      "hit": false,
      "t": 93260.95350000076,
      "d": 83.3334083333466,
      "v": 46
    },
    {
      "midi": 59,
      "hit": false,
      "t": 93260.95350000076,
      "d": 108.6957500000135,
      "v": 56
    },
    {
      "midi": 55,
      "hit": false,
      "t": 93260.95350000076,
      "d": 115.94213333334483,
      "v": 52
    },
    {
      "midi": 62,
      "hit": false,
      "t": 93260.95350000076,
      "d": 141.30447500001173,
      "v": 51
    },
    {
      "midi": 71,
      "hit": false,
      "t": 93478.34500000077,
      "d": 94.2029833333363,
      "v": 68
    },
    {
      "midi": 59,
      "hit": false,
      "t": 93478.34500000077,
      "d": 105.07255833334057,
      "v": 53
    },
    {
      "midi": 55,
      "hit": false,
      "t": 93478.34500000077,
      "d": 108.6957500000135,
      "v": 50
    },
    {
      "midi": 62,
      "hit": false,
      "t": 93478.34500000077,
      "d": 130.43490000000747,
      "v": 46
    },
    {
      "midi": 43,
      "hit": false,
      "t": 93478.34500000077,
      "d": 141.30447500001173,
      "v": 68
    },
    {
      "midi": 50,
      "hit": false,
      "t": 93478.34500000077,
      "d": 326.0872500000114,
      "v": 46
    },
    {
      "midi": 43,
      "hit": false,
      "t": 93695.73650000078,
      "d": 76.08702500000072,
      "v": 54
    },
    {
      "midi": 59,
      "hit": false,
      "t": 93695.73650000078,
      "d": 112.31894166667189,
      "v": 62
    },
    {
      "midi": 62,
      "hit": false,
      "t": 93695.73650000078,
      "d": 293.4785250000132,
      "v": 57
    },
    {
      "midi": 71,
      "hit": false,
      "t": 93695.73650000078,
      "d": 336.95682500001567,
      "v": 55
    },
    {
      "midi": 77,
      "hit": false,
      "t": 93695.73650000078,
      "d": 340.5800166666886,
      "v": 68
    },
    {
      "midi": 55,
      "hit": false,
      "t": 93695.73650000078,
      "d": 387.68150833336404,
      "v": 58
    },
    {
      "midi": 59,
      "hit": false,
      "t": 93913.1280000008,
      "d": 152.174050000016,
      "v": 45
    },
    {
      "midi": 43,
      "hit": false,
      "t": 93913.1280000008,
      "d": 163.04362500002026,
      "v": 61
    },
    {
      "midi": 50,
      "hit": false,
      "t": 93913.1280000008,
      "d": 293.4785250000132,
      "v": 46
    },
    {
      "midi": 43,
      "hit": false,
      "t": 94130.51950000081,
      "d": 76.08702500000072,
      "v": 49
    },
    {
      "midi": 59,
      "hit": false,
      "t": 94130.51950000081,
      "d": 119.56532500000321,
      "v": 56
    },
    {
      "midi": 55,
      "hit": false,
      "t": 94130.51950000081,
      "d": 137.6812833333388,
      "v": 56
    },
    {
      "midi": 62,
      "hit": false,
      "t": 94130.51950000081,
      "d": 141.30447500001173,
      "v": 59
    },
    {
      "midi": 77,
      "hit": false,
      "t": 94130.51950000081,
      "d": 264.49299166667333,
      "v": 54
    },
    {
      "midi": 71,
      "hit": false,
      "t": 94130.51950000081,
      "d": 271.73937500000466,
      "v": 61
    },
    {
      "midi": 50,
      "hit": false,
      "t": 94347.91100000082,
      "d": 94.20298333332175,
      "v": 46
    },
    {
      "midi": 59,
      "hit": false,
      "t": 94347.91100000082,
      "d": 101.44936666665308,
      "v": 54
    },
    {
      "midi": 55,
      "hit": false,
      "t": 94347.91100000082,
      "d": 105.07255833332601,
      "v": 56
    },
    {
      "midi": 62,
      "hit": false,
      "t": 94347.91100000082,
      "d": 115.94213333333028,
      "v": 60
    },
    {
      "midi": 43,
      "hit": false,
      "t": 94347.91100000082,
      "d": 163.04362499999115,
      "v": 66
    },
    {
      "midi": 43,
      "hit": false,
      "t": 94565.30250000082,
      "d": 83.33340833333205,
      "v": 58
    },
    {
      "midi": 55,
      "hit": false,
      "t": 94565.30250000082,
      "d": 318.84086666666553,
      "v": 54
    },
    {
      "midi": 62,
      "hit": false,
      "t": 94565.30250000082,
      "d": 318.84086666666553,
      "v": 65
    },
    {
      "midi": 59,
      "hit": false,
      "t": 94565.30250000082,
      "d": 329.7104416666698,
      "v": 56
    },
    {
      "midi": 50,
      "hit": false,
      "t": 94565.30250000082,
      "d": 355.0727833333367,
      "v": 50
    },
    {
      "midi": 77,
      "hit": false,
      "t": 94565.30250000082,
      "d": 355.0727833333367,
      "v": 73
    },
    {
      "midi": 71,
      "hit": false,
      "t": 94565.30250000082,
      "d": 358.69597500000964,
      "v": 73
    },
    {
      "midi": 43,
      "hit": false,
      "t": 94782.69400000082,
      "d": 152.174050000016,
      "v": 56
    },
    {
      "midi": 71,
      "hit": false,
      "t": 95000.08550000083,
      "d": 68.8406416666694,
      "v": 57
    },
    {
      "midi": 43,
      "hit": false,
      "t": 95000.08550000083,
      "d": 83.33340833333205,
      "v": 63
    },
    {
      "midi": 77,
      "hit": false,
      "t": 95000.08550000083,
      "d": 90.57979166666337,
      "v": 65
    },
    {
      "midi": 50,
      "hit": false,
      "t": 95000.08550000083,
      "d": 94.2029833333363,
      "v": 49
    },
    {
      "midi": 59,
      "hit": false,
      "t": 95000.08550000083,
      "d": 115.94213333333028,
      "v": 45
    },
    {
      "midi": 55,
      "hit": false,
      "t": 95000.08550000083,
      "d": 141.30447499999718,
      "v": 49
    },
    {
      "midi": 62,
      "hit": false,
      "t": 95000.08550000083,
      "d": 159.42043333333277,
      "v": 53
    },
    {
      "midi": 77,
      "hit": false,
      "t": 95217.47700000083,
      "d": 83.33340833333205,
      "v": 58
    },
    {
      "midi": 71,
      "hit": false,
      "t": 95217.47700000083,
      "d": 90.57979166666337,
      "v": 75
    },
    {
      "midi": 55,
      "hit": false,
      "t": 95217.47700000083,
      "d": 119.56532500000321,
      "v": 64
    },
    {
      "midi": 43,
      "hit": false,
      "t": 95217.47700000083,
      "d": 141.30447499999718,
      "v": 65
    },
    {
      "midi": 50,
      "hit": false,
      "t": 95217.47700000083,
      "d": 173.9131999999954,
      "v": 48
    },
    {
      "midi": 62,
      "hit": false,
      "t": 95217.47700000083,
      "d": 384.05831666667655,
      "v": 70
    },
    {
      "midi": 59,
      "hit": false,
      "t": 95217.47700000083,
      "d": 394.9278916666808,
      "v": 58
    },
    {
      "midi": 77,
      "hit": false,
      "t": 95434.86850000083,
      "d": 86.95660000000498,
      "v": 59
    },
    {
      "midi": 71,
      "hit": false,
      "t": 95434.86850000083,
      "d": 90.57979166667792,
      "v": 62
    },
    {
      "midi": 50,
      "hit": false,
      "t": 95434.86850000083,
      "d": 119.56532500001776,
      "v": 45
    },
    {
      "midi": 55,
      "hit": false,
      "t": 95434.86850000083,
      "d": 181.15958333335584,
      "v": 72
    },
    {
      "midi": 43,
      "hit": false,
      "t": 95434.86850000083,
      "d": 188.40596666668716,
      "v": 45
    },
    {
      "midi": 60,
      "hit": false,
      "t": 95652.26000000085,
      "d": 123.1885166666616,
      "v": 72
    },
    {
      "midi": 70,
      "hit": false,
      "t": 95652.26000000085,
      "d": 123.1885166666616,
      "v": 79
    },
    {
      "midi": 55,
      "hit": false,
      "t": 95652.26000000085,
      "d": 141.30447499999718,
      "v": 67
    },
    {
      "midi": 64,
      "hit": false,
      "t": 95652.26000000085,
      "d": 155.79724166665983,
      "v": 70
    },
    {
      "midi": 48,
      "hit": false,
      "t": 95652.26000000085,
      "d": 173.9131999999954,
      "v": 65
    },
    {
      "midi": 43,
      "hit": false,
      "t": 95652.26000000085,
      "d": 333.3336333333573,
      "v": 54
    },
    {
      "midi": 60,
      "hit": false,
      "t": 95869.65150000085,
      "d": 79.71021666667366,
      "v": 46
    },
    {
      "midi": 48,
      "hit": false,
      "t": 95869.65150000085,
      "d": 83.3334083333466,
      "v": 75
    },
    {
      "midi": 55,
      "hit": false,
      "t": 95869.65150000085,
      "d": 86.95660000001953,
      "v": 60
    },
    {
      "midi": 64,
      "hit": false,
      "t": 95869.65150000085,
      "d": 101.44936666668218,
      "v": 63
    },
    {
      "midi": 76,
      "hit": false,
      "t": 95869.65150000085,
      "d": 105.07255833335512,
      "v": 66
    },
    {
      "midi": 70,
      "hit": false,
      "t": 95869.65150000085,
      "d": 119.56532500003232,
      "v": 43
    },
    {
      "midi": 43,
      "hit": false,
      "t": 96087.04300000088,
      "d": 97.82617499999469,
      "v": 51
    },
    {
      "midi": 48,
      "hit": false,
      "t": 96087.04300000088,
      "d": 119.56532499998866,
      "v": 69
    },
    {
      "midi": 55,
      "hit": false,
      "t": 96087.04300000088,
      "d": 123.1885166666616,
      "v": 55
    },
    {
      "midi": 64,
      "hit": false,
      "t": 96087.04300000088,
      "d": 152.17405000000144,
      "v": 60
    },
    {
      "midi": 60,
      "hit": false,
      "t": 96087.04300000088,
      "d": 163.0436250000057,
      "v": 63
    },
    {
      "midi": 76,
      "hit": false,
      "t": 96087.04300000088,
      "d": 282.6089500000089,
      "v": 55
    },
    {
      "midi": 70,
      "hit": false,
      "t": 96087.04300000088,
      "d": 297.10171666667156,
      "v": 59
    },
    {
      "midi": 60,
      "hit": false,
      "t": 96304.43450000089,
      "d": 130.43489999999292,
      "v": 62
    },
    {
      "midi": 55,
      "hit": false,
      "t": 96304.43450000089,
      "d": 144.92766666665557,
      "v": 49
    },
    {
      "midi": 64,
      "hit": false,
      "t": 96304.43450000089,
      "d": 163.04362499999115,
      "v": 60
    },
    {
      "midi": 48,
      "hit": false,
      "t": 96304.43450000089,
      "d": 311.5944833333342,
      "v": 61
    },
    {
      "midi": 43,
      "hit": false,
      "t": 96304.43450000089,
      "d": 322.46405833333847,
      "v": 54
    },
    {
      "midi": 70,
      "hit": false,
      "t": 96521.82600000089,
      "d": 119.56532500000321,
      "v": 73
    },
    {
      "midi": 60,
      "hit": false,
      "t": 96521.82600000089,
      "d": 123.18851666667615,
      "v": 56
    },
    {
      "midi": 55,
      "hit": false,
      "t": 96521.82600000089,
      "d": 137.6812833333388,
      "v": 53
    },
    {
      "midi": 64,
      "hit": false,
      "t": 96521.82600000089,
      "d": 163.0436250000057,
      "v": 60
    },
    {
      "midi": 76,
      "hit": false,
      "t": 96739.2175000009,
      "d": 50.724683333333815,
      "v": 50
    },
    {
      "midi": 43,
      "hit": false,
      "t": 96739.2175000009,
      "d": 76.08702500000072,
      "v": 45
    },
    {
      "midi": 48,
      "hit": false,
      "t": 96739.2175000009,
      "d": 83.33340833333205,
      "v": 49
    },
    {
      "midi": 70,
      "hit": false,
      "t": 96739.2175000009,
      "d": 105.07255833332601,
      "v": 46
    },
    {
      "midi": 60,
      "hit": false,
      "t": 96739.2175000009,
      "d": 108.69574999999895,
      "v": 56
    },
    {
      "midi": 55,
      "hit": false,
      "t": 96739.2175000009,
      "d": 115.94213333333028,
      "v": 52
    },
    {
      "midi": 64,
      "hit": false,
      "t": 96739.2175000009,
      "d": 141.30447499999718,
      "v": 51
    },
    {
      "midi": 76,
      "hit": false,
      "t": 96956.6090000009,
      "d": 39.855108333329554,
      "v": 40
    },
    {
      "midi": 70,
      "hit": false,
      "t": 96956.6090000009,
      "d": 83.33340833333205,
      "v": 49
    },
    {
      "midi": 60,
      "hit": false,
      "t": 96956.6090000009,
      "d": 105.07255833332601,
      "v": 53
    },
    {
      "midi": 55,
      "hit": false,
      "t": 96956.6090000009,
      "d": 108.69574999999895,
      "v": 50
    },
    {
      "midi": 64,
      "hit": false,
      "t": 96956.6090000009,
      "d": 130.43489999999292,
      "v": 46
    },
    {
      "midi": 48,
      "hit": false,
      "t": 96956.6090000009,
      "d": 141.30447499999718,
      "v": 74
    },
    {
      "midi": 43,
      "hit": false,
      "t": 96956.6090000009,
      "d": 326.08724999999686,
      "v": 46
    },
    {
      "midi": 48,
      "hit": false,
      "t": 97174.0005000009,
      "d": 76.08702500000072,
      "v": 58
    },
    {
      "midi": 60,
      "hit": false,
      "t": 97174.0005000009,
      "d": 112.31894166667189,
      "v": 62
    },
    {
      "midi": 64,
      "hit": false,
      "t": 97174.0005000009,
      "d": 293.4785250000132,
      "v": 57
    },
    {
      "midi": 76,
      "hit": false,
      "t": 97174.0005000009,
      "d": 311.59448333334876,
      "v": 59
    },
    {
      "midi": 70,
      "hit": false,
      "t": 97174.0005000009,
      "d": 340.5800166666886,
      "v": 65
    },
    {
      "midi": 55,
      "hit": false,
      "t": 97174.0005000009,
      "d": 387.68150833336404,
      "v": 58
    },
    {
      "midi": 60,
      "hit": false,
      "t": 97391.39200000091,
      "d": 152.174050000016,
      "v": 45
    },
    {
      "midi": 48,
      "hit": false,
      "t": 97391.39200000091,
      "d": 163.04362500002026,
      "v": 66
    },
    {
      "midi": 43,
      "hit": false,
      "t": 97391.39200000091,
      "d": 293.4785250000132,
      "v": 46
    },
    {
      "midi": 48,
      "hit": false,
      "t": 97608.78350000092,
      "d": 76.08702500000072,
      "v": 53
    },
    {
      "midi": 70,
      "hit": false,
      "t": 97608.78350000092,
      "d": 83.33340833333205,
      "v": 58
    },
    {
      "midi": 60,
      "hit": false,
      "t": 97608.78350000092,
      "d": 119.56532500000321,
      "v": 56
    },
    {
      "midi": 55,
      "hit": false,
      "t": 97608.78350000092,
      "d": 137.6812833333388,
      "v": 56
    },
    {
      "midi": 64,
      "hit": false,
      "t": 97608.78350000092,
      "d": 141.30447500001173,
      "v": 59
    },
    {
      "midi": 43,
      "hit": false,
      "t": 97826.17500000093,
      "d": 94.2029833333363,
      "v": 46
    },
    {
      "midi": 60,
      "hit": false,
      "t": 97826.17500000093,
      "d": 101.44936666666763,
      "v": 54
    },
    {
      "midi": 55,
      "hit": false,
      "t": 97826.17500000093,
      "d": 105.07255833334057,
      "v": 56
    },
    {
      "midi": 64,
      "hit": false,
      "t": 97826.17500000093,
      "d": 115.94213333334483,
      "v": 60
    },
    {
      "midi": 48,
      "hit": false,
      "t": 97826.17500000093,
      "d": 163.0436250000057,
      "v": 72
    },
    {
      "midi": 76,
      "hit": false,
      "t": 97826.17500000093,
      "d": 235.50745833334804,
      "v": 46
    },
    {
      "midi": 70,
      "hit": false,
      "t": 97826.17500000093,
      "d": 278.98575833335053,
      "v": 60
    },
    {
      "midi": 48,
      "hit": false,
      "t": 98043.56650000095,
      "d": 83.33340833333205,
      "v": 63
    },
    {
      "midi": 55,
      "hit": false,
      "t": 98043.56650000095,
      "d": 318.84086666666553,
      "v": 54
    },
    {
      "midi": 64,
      "hit": false,
      "t": 98043.56650000095,
      "d": 318.84086666666553,
      "v": 65
    },
    {
      "midi": 60,
      "hit": false,
      "t": 98043.56650000095,
      "d": 329.7104416666698,
      "v": 56
    },
    {
      "midi": 43,
      "hit": false,
      "t": 98043.56650000095,
      "d": 355.0727833333367,
      "v": 50
    },
    {
      "midi": 76,
      "hit": false,
      "t": 98260.95800000094,
      "d": 57.97106666666514,
      "v": 48
    },
    {
      "midi": 70,
      "hit": false,
      "t": 98260.95800000094,
      "d": 115.94213333334483,
      "v": 66
    },
    {
      "midi": 48,
      "hit": false,
      "t": 98260.95800000094,
      "d": 152.17405000000144,
      "v": 61
    },
    {
      "midi": 48,
      "hit": false,
      "t": 98478.34950000094,
      "d": 83.33340833333205,
      "v": 68
    },
    {
      "midi": 43,
      "hit": false,
      "t": 98478.34950000094,
      "d": 94.2029833333363,
      "v": 49
    },
    {
      "midi": 60,
      "hit": false,
      "t": 98478.34950000094,
      "d": 115.94213333333028,
      "v": 45
    },
    {
      "midi": 55,
      "hit": false,
      "t": 98478.34950000094,
      "d": 141.30447499999718,
      "v": 49
    },
    {
      "midi": 64,
      "hit": false,
      "t": 98478.34950000094,
      "d": 159.42043333333277,
      "v": 53
    },
    {
      "midi": 76,
      "hit": false,
      "t": 98478.34950000094,
      "d": 286.2321416666673,
      "v": 58
    },
    {
      "midi": 70,
      "hit": false,
      "t": 98478.34950000094,
      "d": 318.84086666666553,
      "v": 54
    },
    {
      "midi": 55,
      "hit": false,
      "t": 98695.74100000094,
      "d": 119.56532500000321,
      "v": 64
    },
    {
      "midi": 48,
      "hit": false,
      "t": 98695.74100000094,
      "d": 141.30447499999718,
      "v": 70
    },
    {
      "midi": 43,
      "hit": false,
      "t": 98695.74100000094,
      "d": 173.9131999999954,
      "v": 48
    },
    {
      "midi": 64,
      "hit": false,
      "t": 98695.74100000094,
      "d": 384.058316666662,
      "v": 70
    },
    {
      "midi": 60,
      "hit": false,
      "t": 98695.74100000094,
      "d": 394.92789166666626,
      "v": 58
    },
    {
      "midi": 76,
      "hit": false,
      "t": 98913.13250000094,
      "d": 50.724683333333815,
      "v": 45
    },
    {
      "midi": 70,
      "hit": false,
      "t": 98913.13250000094,
      "d": 112.31894166667189,
      "v": 56
    },
    {
      "midi": 43,
      "hit": false,
      "t": 98913.13250000094,
      "d": 119.56532500000321,
      "v": 45
    },
    {
      "midi": 55,
      "hit": false,
      "t": 98913.13250000094,
      "d": 181.1595833333413,
      "v": 72
    },
    {
      "midi": 48,
      "hit": false,
      "t": 98913.13250000094,
      "d": 188.4059666666726,
      "v": 48
    },
    {
      "midi": 76,
      "hit": false,
      "t": 99130.52400000095,
      "d": 54.34787500000675,
      "v": 44
    },
    {
      "midi": 60,
      "hit": false,
      "t": 99130.52400000095,
      "d": 123.18851666667615,
      "v": 72
    },
    {
      "midi": 70,
      "hit": false,
      "t": 99130.52400000095,
      "d": 123.18851666667615,
      "v": 62
    },
    {
      "midi": 55,
      "hit": false,
      "t": 99130.52400000095,
      "d": 141.30447500001173,
      "v": 67
    },
    {
      "midi": 64,
      "hit": false,
      "t": 99130.52400000095,
      "d": 155.79724166667438,
      "v": 70
    },
    {
      "midi": 48,
      "hit": false,
      "t": 99130.52400000095,
      "d": 173.91320000000997,
      "v": 65
    },
    {
      "midi": 43,
      "hit": false,
      "t": 99130.52400000095,
      "d": 333.33363333334273,
      "v": 54
    },
    {
      "midi": 76,
      "hit": false,
      "t": 99347.91550000096,
      "d": 50.724683333333815,
      "v": 41
    },
    {
      "midi": 48,
      "hit": false,
      "t": 99347.91550000096,
      "d": 83.33340833333205,
      "v": 75
    },
    {
      "midi": 70,
      "hit": false,
      "t": 99347.91550000096,
      "d": 119.56532500000321,
      "v": 62
    },
    {
      "midi": 55,
      "hit": false,
      "t": 99347.91550000096,
      "d": 152.17405000000144,
      "v": 60
    },
    {
      "midi": 60,
      "hit": false,
      "t": 99347.91550000096,
      "d": 152.17405000000144,
      "v": 46
    },
    {
      "midi": 64,
      "hit": false,
      "t": 99347.91550000096,
      "d": 173.9131999999954,
      "v": 63
    },
    {
      "midi": 43,
      "hit": false,
      "t": 99565.30700000096,
      "d": 97.82617499999469,
      "v": 51
    },
    {
      "midi": 48,
      "hit": false,
      "t": 99565.30700000096,
      "d": 119.56532499998866,
      "v": 69
    },
    {
      "midi": 55,
      "hit": false,
      "t": 99565.30700000096,
      "d": 123.1885166666616,
      "v": 55
    },
    {
      "midi": 64,
      "hit": false,
      "t": 99565.30700000096,
      "d": 152.17405000000144,
      "v": 60
    },
    {
      "midi": 60,
      "hit": false,
      "t": 99565.30700000096,
      "d": 163.0436250000057,
      "v": 63
    },
    {
      "midi": 76,
      "hit": false,
      "t": 99565.30700000096,
      "d": 278.98575833335053,
      "v": 50
    },
    {
      "midi": 70,
      "hit": false,
      "t": 99565.30700000096,
      "d": 304.34810000001744,
      "v": 59
    },
    {
      "midi": 55,
      "hit": false,
      "t": 99782.69850000097,
      "d": 144.92766666667012,
      "v": 49
    },
    {
      "midi": 64,
      "hit": false,
      "t": 99782.69850000097,
      "d": 163.0436250000057,
      "v": 60
    },
    {
      "midi": 60,
      "hit": false,
      "t": 99782.69850000097,
      "d": 173.91320000000997,
      "v": 62
    },
    {
      "midi": 48,
      "hit": false,
      "t": 99782.69850000097,
      "d": 184.78277500001423,
      "v": 61
    },
    {
      "midi": 43,
      "hit": false,
      "t": 99782.69850000097,
      "d": 195.6523500000185,
      "v": 54
    },
    {
      "midi": 69,
      "hit": false,
      "t": 100000.09000000099,
      "d": 112.31894166667189,
      "v": 75
    },
    {
      "midi": 62,
      "hit": false,
      "t": 100000.09000000099,
      "d": 123.18851666667615,
      "v": 72
    },
    {
      "midi": 57,
      "hit": false,
      "t": 100000.09000000099,
      "d": 141.30447500001173,
      "v": 67
    },
    {
      "midi": 66,
      "hit": false,
      "t": 100000.09000000099,
      "d": 155.79724166667438,
      "v": 70
    },
    {
      "midi": 50,
      "hit": false,
      "t": 100000.09000000099,
      "d": 173.91320000000997,
      "v": 65
    },
    {
      "midi": 45,
      "hit": false,
      "t": 100000.09000000099,
      "d": 333.3336333333573,
      "v": 54
    },
    {
      "midi": 69,
      "hit": false,
      "t": 100217.481500001,
      "d": 61.594258333338075,
      "v": 51
    },
    {
      "midi": 62,
      "hit": false,
      "t": 100217.481500001,
      "d": 79.71021666667366,
      "v": 46
    },
    {
      "midi": 50,
      "hit": false,
      "t": 100217.481500001,
      "d": 83.3334083333466,
      "v": 75
    },
    {
      "midi": 74,
      "hit": false,
      "t": 100217.481500001,
      "d": 83.3334083333466,
      "v": 63
    },
    {
      "midi": 57,
      "hit": false,
      "t": 100217.481500001,
      "d": 86.95660000001953,
      "v": 60
    },
    {
      "midi": 66,
      "hit": false,
      "t": 100217.481500001,
      "d": 101.44936666668218,
      "v": 63
    },
    {
      "midi": 45,
      "hit": false,
      "t": 100434.87300000101,
      "d": 97.82617499999469,
      "v": 51
    },
    {
      "midi": 50,
      "hit": false,
      "t": 100434.87300000101,
      "d": 119.56532499998866,
      "v": 69
    },
    {
      "midi": 57,
      "hit": false,
      "t": 100434.87300000101,
      "d": 123.1885166666616,
      "v": 55
    },
    {
      "midi": 66,
      "hit": false,
      "t": 100434.87300000101,
      "d": 152.17405000000144,
      "v": 60
    },
    {
      "midi": 62,
      "hit": false,
      "t": 100434.87300000101,
      "d": 163.0436250000057,
      "v": 63
    },
    {
      "midi": 69,
      "hit": false,
      "t": 100434.87300000101,
      "d": 282.6089500000089,
      "v": 66
    },
    {
      "midi": 74,
      "hit": false,
      "t": 100434.87300000101,
      "d": 358.69597500000964,
      "v": 60
    },
    {
      "midi": 62,
      "hit": false,
      "t": 100652.26450000102,
      "d": 130.43489999999292,
      "v": 62
    },
    {
      "midi": 57,
      "hit": false,
      "t": 100652.26450000102,
      "d": 144.92766666667012,
      "v": 49
    },
    {
      "midi": 66,
      "hit": false,
      "t": 100652.26450000102,
      "d": 163.0436250000057,
      "v": 60
    },
    {
      "midi": 50,
      "hit": false,
      "t": 100652.26450000102,
      "d": 311.5944833333342,
      "v": 61
    },
    {
      "midi": 45,
      "hit": false,
      "t": 100652.26450000102,
      "d": 322.46405833333847,
      "v": 54
    },
    {
      "midi": 69,
      "hit": false,
      "t": 100869.65600000104,
      "d": 72.46383333332778,
      "v": 68
    },
    {
      "midi": 62,
      "hit": false,
      "t": 100869.65600000104,
      "d": 123.1885166666616,
      "v": 56
    },
    {
      "midi": 57,
      "hit": false,
      "t": 100869.65600000104,
      "d": 137.68128333332425,
      "v": 53
    },
    {
      "midi": 66,
      "hit": false,
      "t": 100869.65600000104,
      "d": 163.04362499999115,
      "v": 60
    },
    {
      "midi": 45,
      "hit": false,
      "t": 101087.04750000103,
      "d": 76.08702500000072,
      "v": 45
    },
    {
      "midi": 50,
      "hit": false,
      "t": 101087.04750000103,
      "d": 83.33340833333205,
      "v": 49
    },
    {
      "midi": 62,
      "hit": false,
      "t": 101087.04750000103,
      "d": 108.69574999999895,
      "v": 56
    },
    {
      "midi": 57,
      "hit": false,
      "t": 101087.04750000103,
      "d": 115.94213333333028,
      "v": 52
    },
    {
      "midi": 66,
      "hit": false,
      "t": 101087.04750000103,
      "d": 141.30447499999718,
      "v": 51
    },
    {
      "midi": 69,
      "hit": false,
      "t": 101087.04750000103,
      "d": 253.62341666666907,
      "v": 57
    },
    {
      "midi": 74,
      "hit": false,
      "t": 101087.04750000103,
      "d": 373.1887416666723,
      "v": 67
    },
    {
      "midi": 62,
      "hit": false,
      "t": 101304.43900000103,
      "d": 105.07255833334057,
      "v": 53
    },
    {
      "midi": 57,
      "hit": false,
      "t": 101304.43900000103,
      "d": 108.6957500000135,
      "v": 50
    },
    {
      "midi": 66,
      "hit": false,
      "t": 101304.43900000103,
      "d": 130.43490000000747,
      "v": 46
    },
    {
      "midi": 50,
      "hit": false,
      "t": 101304.43900000103,
      "d": 141.30447500001173,
      "v": 74
    },
    {
      "midi": 45,
      "hit": false,
      "t": 101304.43900000103,
      "d": 326.0872500000114,
      "v": 46
    },
    {
      "midi": 50,
      "hit": false,
      "t": 101521.83050000104,
      "d": 76.08702500000072,
      "v": 58
    },
    {
      "midi": 62,
      "hit": false,
      "t": 101521.83050000104,
      "d": 112.31894166667189,
      "v": 62
    },
    {
      "midi": 66,
      "hit": false,
      "t": 101521.83050000104,
      "d": 293.4785250000132,
      "v": 57
    },
    {
      "midi": 69,
      "hit": false,
      "t": 101521.83050000104,
      "d": 362.3191666666826,
      "v": 84
    },
    {
      "midi": 57,
      "hit": false,
      "t": 101521.83050000104,
      "d": 387.6815083333495,
      "v": 58
    },
    {
      "midi": 62,
      "hit": false,
      "t": 101739.22200000106,
      "d": 152.17405000000144,
      "v": 45
    },
    {
      "midi": 50,
      "hit": false,
      "t": 101739.22200000106,
      "d": 163.0436250000057,
      "v": 66
    },
    {
      "midi": 45,
      "hit": false,
      "t": 101739.22200000106,
      "d": 293.4785249999986,
      "v": 46
    },
    {
      "midi": 50,
      "hit": false,
      "t": 101956.61350000105,
      "d": 76.08702500000072,
      "v": 53
    },
    {
      "midi": 62,
      "hit": false,
      "t": 101956.61350000105,
      "d": 119.56532500000321,
      "v": 56
    },
    {
      "midi": 57,
      "hit": false,
      "t": 101956.61350000105,
      "d": 137.6812833333388,
      "v": 56
    },
    {
      "midi": 66,
      "hit": false,
      "t": 101956.61350000105,
      "d": 141.30447500001173,
      "v": 59
    },
    {
      "midi": 74,
      "hit": false,
      "t": 101956.61350000105,
      "d": 192.02915833334555,
      "v": 70
    },
    {
      "midi": 45,
      "hit": false,
      "t": 102174.00500000107,
      "d": 94.2029833333363,
      "v": 46
    },
    {
      "midi": 62,
      "hit": false,
      "t": 102174.00500000107,
      "d": 101.44936666666763,
      "v": 54
    },
    {
      "midi": 57,
      "hit": false,
      "t": 102174.00500000107,
      "d": 105.07255833334057,
      "v": 56
    },
    {
      "midi": 66,
      "hit": false,
      "t": 102174.00500000107,
      "d": 115.94213333334483,
      "v": 60
    },
    {
      "midi": 50,
      "hit": false,
      "t": 102174.00500000107,
      "d": 163.0436250000057,
      "v": 72
    },
    {
      "midi": 69,
      "hit": false,
      "t": 102174.00500000107,
      "d": 376.8119333333452,
      "v": 84
    },
    {
      "midi": 50,
      "hit": false,
      "t": 102391.39650000108,
      "d": 83.33340833333205,
      "v": 63
    },
    {
      "midi": 57,
      "hit": false,
      "t": 102391.39650000108,
      "d": 318.84086666666553,
      "v": 54
    },
    {
      "midi": 66,
      "hit": false,
      "t": 102391.39650000108,
      "d": 318.84086666666553,
      "v": 65
    },
    {
      "midi": 62,
      "hit": false,
      "t": 102391.39650000108,
      "d": 329.7104416666698,
      "v": 56
    },
    {
      "midi": 45,
      "hit": false,
      "t": 102391.39650000108,
      "d": 355.0727833333367,
      "v": 50
    },
    {
      "midi": 74,
      "hit": false,
      "t": 102608.78800000108,
      "d": 108.69574999999895,
      "v": 76
    },
    {
      "midi": 50,
      "hit": false,
      "t": 102608.78800000108,
      "d": 152.17405000000144,
      "v": 61
    },
    {
      "midi": 50,
      "hit": false,
      "t": 102826.17950000108,
      "d": 83.33340833333205,
      "v": 68
    },
    {
      "midi": 45,
      "hit": false,
      "t": 102826.17950000108,
      "d": 94.2029833333363,
      "v": 49
    },
    {
      "midi": 74,
      "hit": false,
      "t": 102826.17950000108,
      "d": 97.82617500000924,
      "v": 71
    },
    {
      "midi": 62,
      "hit": false,
      "t": 102826.17950000108,
      "d": 115.94213333334483,
      "v": 45
    },
    {
      "midi": 57,
      "hit": false,
      "t": 102826.17950000108,
      "d": 141.30447500001173,
      "v": 49
    },
    {
      "midi": 66,
      "hit": false,
      "t": 102826.17950000108,
      "d": 159.42043333334732,
      "v": 53
    },
    {
      "midi": 74,
      "hit": false,
      "t": 103043.57100000109,
      "d": 94.2029833333363,
      "v": 80
    },
    {
      "midi": 57,
      "hit": false,
      "t": 103043.57100000109,
      "d": 119.56532500000321,
      "v": 64
    },
    {
      "midi": 50,
      "hit": false,
      "t": 103043.57100000109,
      "d": 141.30447499999718,
      "v": 70
    },
    {
      "midi": 45,
      "hit": false,
      "t": 103043.57100000109,
      "d": 173.9131999999954,
      "v": 48
    },
    {
      "midi": 66,
      "hit": false,
      "t": 103043.57100000109,
      "d": 384.058316666662,
      "v": 70
    },
    {
      "midi": 62,
      "hit": false,
      "t": 103043.57100000109,
      "d": 394.92789166666626,
      "v": 58
    },
    {
      "midi": 74,
      "hit": false,
      "t": 103260.96250000109,
      "d": 43.47830000000249,
      "v": 59
    },
    {
      "midi": 45,
      "hit": false,
      "t": 103260.96250000109,
      "d": 119.56532500000321,
      "v": 45
    },
    {
      "midi": 57,
      "hit": false,
      "t": 103260.96250000109,
      "d": 181.1595833333413,
      "v": 72
    },
    {
      "midi": 50,
      "hit": false,
      "t": 103260.96250000109,
      "d": 188.4059666666726,
      "v": 48
    },
    {
      "midi": 71,
      "hit": false,
      "t": 103478.3540000011,
      "d": 50.724683333333815,
      "v": 42
    },
    {
      "midi": 74,
      "hit": false,
      "t": 103478.3540000011,
      "d": 57.97106666666514,
      "v": 60
    },
    {
      "midi": 59,
      "hit": false,
      "t": 103478.3540000011,
      "d": 123.1885166666616,
      "v": 72
    },
    {
      "midi": 55,
      "hit": false,
      "t": 103478.3540000011,
      "d": 141.30447499999718,
      "v": 67
    },
    {
      "midi": 62,
      "hit": false,
      "t": 103478.3540000011,
      "d": 155.79724166665983,
      "v": 70
    },
    {
      "midi": 43,
      "hit": false,
      "t": 103478.3540000011,
      "d": 173.9131999999954,
      "v": 60
    },
    {
      "midi": 50,
      "hit": false,
      "t": 103478.3540000011,
      "d": 333.33363333334273,
      "v": 54
    },
    {
      "midi": 71,
      "hit": false,
      "t": 103695.7455000011,
      "d": 43.47830000000249,
      "v": 42
    },
    {
      "midi": 74,
      "hit": false,
      "t": 103695.7455000011,
      "d": 43.47830000000249,
      "v": 56
    },
    {
      "midi": 59,
      "hit": false,
      "t": 103695.7455000011,
      "d": 79.71021666667366,
      "v": 46
    },
    {
      "midi": 43,
      "hit": false,
      "t": 103695.7455000011,
      "d": 83.3334083333466,
      "v": 69
    },
    {
      "midi": 55,
      "hit": false,
      "t": 103695.7455000011,
      "d": 86.95660000001953,
      "v": 60
    },
    {
      "midi": 62,
      "hit": false,
      "t": 103695.7455000011,
      "d": 101.44936666668218,
      "v": 63
    },
    {
      "midi": 50,
      "hit": false,
      "t": 103913.13700000111,
      "d": 97.82617499999469,
      "v": 51
    },
    {
      "midi": 43,
      "hit": false,
      "t": 103913.13700000111,
      "d": 119.56532499998866,
      "v": 64
    },
    {
      "midi": 55,
      "hit": false,
      "t": 103913.13700000111,
      "d": 123.1885166666616,
      "v": 55
    },
    {
      "midi": 62,
      "hit": false,
      "t": 103913.13700000111,
      "d": 152.17405000000144,
      "v": 60
    },
    {
      "midi": 59,
      "hit": false,
      "t": 103913.13700000111,
      "d": 163.0436250000057,
      "v": 63
    },
    {
      "midi": 71,
      "hit": false,
      "t": 103913.13700000111,
      "d": 275.3625666666776,
      "v": 53
    },
    {
      "midi": 74,
      "hit": false,
      "t": 103913.13700000111,
      "d": 289.85533333334024,
      "v": 66
    },
    {
      "midi": 59,
      "hit": false,
      "t": 104130.52850000112,
      "d": 130.43489999999292,
      "v": 62
    },
    {
      "midi": 55,
      "hit": false,
      "t": 104130.52850000112,
      "d": 144.92766666665557,
      "v": 49
    },
    {
      "midi": 62,
      "hit": false,
      "t": 104130.52850000112,
      "d": 163.04362499999115,
      "v": 60
    },
    {
      "midi": 43,
      "hit": false,
      "t": 104130.52850000112,
      "d": 311.5944833333342,
      "v": 56
    },
    {
      "midi": 50,
      "hit": false,
      "t": 104130.52850000112,
      "d": 322.46405833333847,
      "v": 54
    },
    {
      "midi": 71,
      "hit": false,
      "t": 104347.92000000112,
      "d": 50.724683333333815,
      "v": 50
    },
    {
      "midi": 74,
      "hit": false,
      "t": 104347.92000000112,
      "d": 65.21744999999646,
      "v": 61
    },
    {
      "midi": 59,
      "hit": false,
      "t": 104347.92000000112,
      "d": 123.18851666667615,
      "v": 56
    },
    {
      "midi": 55,
      "hit": false,
      "t": 104347.92000000112,
      "d": 137.6812833333388,
      "v": 53
    },
    {
      "midi": 62,
      "hit": false,
      "t": 104347.92000000112,
      "d": 163.0436250000057,
      "v": 60
    },
    {
      "midi": 93,
      "hit": false,
      "t": 104518.21000833446,
      "d": 72.46383333332778,
      "v": 40
    },
    {
      "midi": 71,
      "hit": false,
      "t": 104565.31150000112,
      "d": 50.724683333333815,
      "v": 52
    },
    {
      "midi": 74,
      "hit": false,
      "t": 104565.31150000112,
      "d": 72.46383333332778,
      "v": 66
    },
    {
      "midi": 50,
      "hit": false,
      "t": 104565.31150000112,
      "d": 76.08702500000072,
      "v": 45
    },
    {
      "midi": 43,
      "hit": false,
      "t": 104565.31150000112,
      "d": 83.33340833333205,
      "v": 46
    },
    {
      "midi": 59,
      "hit": false,
      "t": 104565.31150000112,
      "d": 108.69574999999895,
      "v": 56
    },
    {
      "midi": 55,
      "hit": false,
      "t": 104565.31150000112,
      "d": 115.94213333334483,
      "v": 52
    },
    {
      "midi": 62,
      "hit": false,
      "t": 104565.31150000112,
      "d": 141.30447500001173,
      "v": 51
    },
    {
      "midi": 91,
      "hit": false,
      "t": 104616.03618333445,
      "d": 36.23191666667117,
      "v": 57
    },
    {
      "midi": 89,
      "hit": false,
      "t": 104677.63044166779,
      "d": 36.23191666667117,
      "v": 51
    },
    {
      "midi": 88,
      "hit": false,
      "t": 104724.73193333446,
      "d": 39.855108333344106,
      "v": 59
    },
    {
      "midi": 86,
      "hit": false,
      "t": 104753.7174666678,
      "d": 43.47830000000249,
      "v": 49
    },
    {
      "midi": 84,
      "hit": false,
      "t": 104779.07980833447,
      "d": 32.60872499999823,
      "v": 94
    },
    {
      "midi": 59,
      "hit": false,
      "t": 104782.70300000114,
      "d": 105.07255833334057,
      "v": 53
    },
    {
      "midi": 55,
      "hit": false,
      "t": 104782.70300000114,
      "d": 108.6957500000135,
      "v": 50
    },
    {
      "midi": 74,
      "hit": false,
      "t": 104782.70300000114,
      "d": 115.94213333334483,
      "v": 63
    },
    {
      "midi": 62,
      "hit": false,
      "t": 104782.70300000114,
      "d": 130.43490000002203,
      "v": 46
    },
    {
      "midi": 43,
      "hit": false,
      "t": 104782.70300000114,
      "d": 141.3044750000263,
      "v": 68
    },
    {
      "midi": 71,
      "hit": false,
      "t": 104782.70300000114,
      "d": 250.00022500002524,
      "v": 69
    },
    {
      "midi": 50,
      "hit": false,
      "t": 104782.70300000114,
      "d": 326.08725000002596,
      "v": 46
    },
    {
      "midi": 81,
      "hit": false,
      "t": 104844.29725833447,
      "d": 36.23191666667117,
      "v": 79
    },
    {
      "midi": 79,
      "hit": false,
      "t": 104862.4132166678,
      "d": 39.85510833335866,
      "v": 60
    },
    {
      "midi": 77,
      "hit": false,
      "t": 104884.15236666781,
      "d": 36.23191666668572,
      "v": 69
    },
    {
      "midi": 76,
      "hit": false,
      "t": 104905.89151666783,
      "d": 32.60872499999823,
      "v": 63
    },
    {
      "midi": 74,
      "hit": false,
      "t": 104924.00747500117,
      "d": 39.855108333329554,
      "v": 66
    },
    {
      "midi": 43,
      "hit": false,
      "t": 105000.09450000117,
      "d": 76.08702500000072,
      "v": 54
    },
    {
      "midi": 59,
      "hit": false,
      "t": 105000.09450000117,
      "d": 112.31894166667189,
      "v": 62
    },
    {
      "midi": 62,
      "hit": false,
      "t": 105000.09450000117,
      "d": 181.1595833333413,
      "v": 57
    },
    {
      "midi": 55,
      "hit": false,
      "t": 105000.09450000117,
      "d": 311.59448333334876,
      "v": 58
    },
    {
      "midi": 67,
      "hit": false,
      "t": 105217.48600000118,
      "d": 43.47830000000249,
      "v": 52
    },
    {
      "midi": 70,
      "hit": false,
      "t": 105217.48600000118,
      "d": 90.57979166666337,
      "v": 71
    },
    {
      "midi": 60,
      "hit": false,
      "t": 105217.48600000118,
      "d": 152.17405000000144,
      "v": 45
    },
    {
      "midi": 48,
      "hit": false,
      "t": 105217.48600000118,
      "d": 163.0436250000057,
      "v": 66
    },
    {
      "midi": 43,
      "hit": false,
      "t": 105217.48600000118,
      "d": 293.4785250000132,
      "v": 46
    },
    {
      "midi": 48,
      "hit": false,
      "t": 105434.8775000012,
      "d": 76.08702500000072,
      "v": 53
    },
    {
      "midi": 60,
      "hit": false,
      "t": 105434.8775000012,
      "d": 119.56532500000321,
      "v": 56
    },
    {
      "midi": 55,
      "hit": false,
      "t": 105434.8775000012,
      "d": 137.6812833333388,
      "v": 56
    },
    {
      "midi": 64,
      "hit": false,
      "t": 105434.8775000012,
      "d": 141.30447500001173,
      "v": 59
    },
    {
      "midi": 67,
      "hit": false,
      "t": 105434.8775000012,
      "d": 268.11618333334627,
      "v": 61
    },
    {
      "midi": 70,
      "hit": false,
      "t": 105434.8775000012,
      "d": 275.3625666666776,
      "v": 58
    },
    {
      "midi": 43,
      "hit": false,
      "t": 105652.26900000121,
      "d": 94.2029833333363,
      "v": 46
    },
    {
      "midi": 60,
      "hit": false,
      "t": 105652.26900000121,
      "d": 101.44936666666763,
      "v": 54
    },
    {
      "midi": 55,
      "hit": false,
      "t": 105652.26900000121,
      "d": 105.07255833334057,
      "v": 56
    },
    {
      "midi": 64,
      "hit": false,
      "t": 105652.26900000121,
      "d": 115.94213333334483,
      "v": 60
    },
    {
      "midi": 48,
      "hit": false,
      "t": 105652.26900000121,
      "d": 163.0436250000057,
      "v": 72
    },
    {
      "midi": 48,
      "hit": false,
      "t": 105869.66050000122,
      "d": 83.33340833333205,
      "v": 63
    },
    {
      "midi": 67,
      "hit": false,
      "t": 105869.66050000122,
      "d": 282.60894999999437,
      "v": 51
    },
    {
      "midi": 70,
      "hit": false,
      "t": 105869.66050000122,
      "d": 311.5944833333342,
      "v": 66
    },
    {
      "midi": 55,
      "hit": false,
      "t": 105869.66050000122,
      "d": 318.84086666666553,
      "v": 54
    },
    {
      "midi": 64,
      "hit": false,
      "t": 105869.66050000122,
      "d": 318.84086666666553,
      "v": 65
    },
    {
      "midi": 60,
      "hit": false,
      "t": 105869.66050000122,
      "d": 329.7104416666698,
      "v": 56
    },
    {
      "midi": 43,
      "hit": false,
      "t": 105869.66050000122,
      "d": 355.0727833333367,
      "v": 50
    },
    {
      "midi": 48,
      "hit": false,
      "t": 106087.05200000122,
      "d": 152.17405000000144,
      "v": 61
    },
    {
      "midi": 67,
      "hit": false,
      "t": 106304.44350000122,
      "d": 54.34787500000675,
      "v": 44
    },
    {
      "midi": 48,
      "hit": false,
      "t": 106304.44350000122,
      "d": 83.3334083333466,
      "v": 68
    },
    {
      "midi": 43,
      "hit": false,
      "t": 106304.44350000122,
      "d": 94.20298333335086,
      "v": 49
    },
    {
      "midi": 70,
      "hit": false,
      "t": 106304.44350000122,
      "d": 108.6957500000135,
      "v": 62
    },
    {
      "midi": 60,
      "hit": false,
      "t": 106304.44350000122,
      "d": 115.94213333334483,
      "v": 45
    },
    {
      "midi": 55,
      "hit": false,
      "t": 106304.44350000122,
      "d": 141.30447500001173,
      "v": 49
    },
    {
      "midi": 64,
      "hit": false,
      "t": 106304.44350000122,
      "d": 159.42043333334732,
      "v": 53
    },
    {
      "midi": 55,
      "hit": false,
      "t": 106521.83500000123,
      "d": 119.56532500000321,
      "v": 64
    },
    {
      "midi": 48,
      "hit": false,
      "t": 106521.83500000123,
      "d": 141.30447499999718,
      "v": 70
    },
    {
      "midi": 43,
      "hit": false,
      "t": 106521.83500000123,
      "d": 173.9131999999954,
      "v": 48
    },
    {
      "midi": 67,
      "hit": false,
      "t": 106521.83500000123,
      "d": 210.14511666666658,
      "v": 51
    },
    {
      "midi": 70,
      "hit": false,
      "t": 106521.83500000123,
      "d": 221.01469166667084,
      "v": 54
    },
    {
      "midi": 64,
      "hit": false,
      "t": 106521.83500000123,
      "d": 384.058316666662,
      "v": 70
    },
    {
      "midi": 60,
      "hit": false,
      "t": 106521.83500000123,
      "d": 394.92789166666626,
      "v": 58
    },
    {
      "midi": 43,
      "hit": false,
      "t": 106739.22650000123,
      "d": 119.56532500000321,
      "v": 45
    },
    {
      "midi": 55,
      "hit": false,
      "t": 106739.22650000123,
      "d": 181.1595833333413,
      "v": 72
    },
    {
      "midi": 48,
      "hit": false,
      "t": 106739.22650000123,
      "d": 188.4059666666726,
      "v": 48
    },
    {
      "midi": 59,
      "hit": false,
      "t": 106956.61800000124,
      "d": 123.1885166666616,
      "v": 72
    },
    {
      "midi": 55,
      "hit": false,
      "t": 106956.61800000124,
      "d": 141.30447499999718,
      "v": 67
    },
    {
      "midi": 62,
      "hit": false,
      "t": 106956.61800000124,
      "d": 155.79724166665983,
      "v": 70
    },
    {
      "midi": 43,
      "hit": false,
      "t": 106956.61800000124,
      "d": 173.9131999999954,
      "v": 60
    },
    {
      "midi": 74,
      "hit": false,
      "t": 106956.61800000124,
      "d": 293.4785249999986,
      "v": 65
    },
    {
      "midi": 71,
      "hit": false,
      "t": 106956.61800000124,
      "d": 297.10171666667156,
      "v": 53
    },
    {
      "midi": 50,
      "hit": false,
      "t": 106956.61800000124,
      "d": 333.33363333334273,
      "v": 54
    },
    {
      "midi": 59,
      "hit": false,
      "t": 107174.00950000124,
      "d": 79.71021666667366,
      "v": 46
    },
    {
      "midi": 43,
      "hit": false,
      "t": 107174.00950000124,
      "d": 83.3334083333466,
      "v": 69
    },
    {
      "midi": 55,
      "hit": false,
      "t": 107174.00950000124,
      "d": 86.95660000001953,
      "v": 60
    },
    {
      "midi": 62,
      "hit": false,
      "t": 107174.00950000124,
      "d": 101.44936666668218,
      "v": 63
    },
    {
      "midi": 50,
      "hit": false,
      "t": 107391.40100000125,
      "d": 97.82617499999469,
      "v": 51
    },
    {
      "midi": 43,
      "hit": false,
      "t": 107391.40100000125,
      "d": 119.56532499998866,
      "v": 64
    },
    {
      "midi": 55,
      "hit": false,
      "t": 107391.40100000125,
      "d": 123.1885166666616,
      "v": 55
    },
    {
      "midi": 62,
      "hit": false,
      "t": 107391.40100000125,
      "d": 152.17405000000144,
      "v": 60
    },
    {
      "midi": 59,
      "hit": false,
      "t": 107391.40100000125,
      "d": 163.0436250000057,
      "v": 63
    },
    {
      "midi": 74,
      "hit": false,
      "t": 107391.40100000125,
      "d": 278.98575833335053,
      "v": 58
    },
    {
      "midi": 71,
      "hit": false,
      "t": 107391.40100000125,
      "d": 300.7249083333445,
      "v": 62
    },
    {
      "midi": 59,
      "hit": false,
      "t": 107608.79250000126,
      "d": 130.43489999999292,
      "v": 62
    },
    {
      "midi": 55,
      "hit": false,
      "t": 107608.79250000126,
      "d": 144.92766666665557,
      "v": 49
    },
    {
      "midi": 62,
      "hit": false,
      "t": 107608.79250000126,
      "d": 163.04362499999115,
      "v": 60
    },
    {
      "midi": 43,
      "hit": false,
      "t": 107608.79250000126,
      "d": 311.5944833333342,
      "v": 56
    },
    {
      "midi": 50,
      "hit": false,
      "t": 107608.79250000126,
      "d": 322.46405833333847,
      "v": 54
    },
    {
      "midi": 71,
      "hit": false,
      "t": 107826.18400000126,
      "d": 79.71021666667366,
      "v": 50
    },
    {
      "midi": 74,
      "hit": false,
      "t": 107826.18400000126,
      "d": 101.44936666666763,
      "v": 60
    },
    {
      "midi": 59,
      "hit": false,
      "t": 107826.18400000126,
      "d": 123.18851666667615,
      "v": 56
    },
    {
      "midi": 55,
      "hit": false,
      "t": 107826.18400000126,
      "d": 137.6812833333388,
      "v": 53
    },
    {
      "midi": 62,
      "hit": false,
      "t": 107826.18400000126,
      "d": 163.0436250000057,
      "v": 60
    },
    {
      "midi": 50,
      "hit": false,
      "t": 108043.57550000127,
      "d": 76.08702500000072,
      "v": 45
    },
    {
      "midi": 43,
      "hit": false,
      "t": 108043.57550000127,
      "d": 83.33340833333205,
      "v": 46
    },
    {
      "midi": 71,
      "hit": false,
      "t": 108043.57550000127,
      "d": 94.2029833333363,
      "v": 57
    },
    {
      "midi": 74,
      "hit": false,
      "t": 108043.57550000127,
      "d": 94.2029833333363,
      "v": 61
    },
    {
      "midi": 59,
      "hit": false,
      "t": 108043.57550000127,
      "d": 108.69574999999895,
      "v": 56
    },
    {
      "midi": 55,
      "hit": false,
      "t": 108043.57550000127,
      "d": 115.94213333333028,
      "v": 52
    },
    {
      "midi": 62,
      "hit": false,
      "t": 108043.57550000127,
      "d": 141.30447499999718,
      "v": 51
    },
    {
      "midi": 93,
      "hit": false,
      "t": 108246.47423333461,
      "d": 57.97106666666514,
      "v": 40
    },
    {
      "midi": 59,
      "hit": false,
      "t": 108260.96700000127,
      "d": 105.07255833334057,
      "v": 53
    },
    {
      "midi": 55,
      "hit": false,
      "t": 108260.96700000127,
      "d": 108.6957500000135,
      "v": 50
    },
    {
      "midi": 74,
      "hit": false,
      "t": 108260.96700000127,
      "d": 123.1885166666907,
      "v": 64
    },
    {
      "midi": 71,
      "hit": false,
      "t": 108260.96700000127,
      "d": 126.81170833336364,
      "v": 60
    },
    {
      "midi": 62,
      "hit": false,
      "t": 108260.96700000127,
      "d": 130.43490000003658,
      "v": 46
    },
    {
      "midi": 43,
      "hit": false,
      "t": 108260.96700000127,
      "d": 141.30447500004084,
      "v": 68
    },
    {
      "midi": 50,
      "hit": false,
      "t": 108260.96700000127,
      "d": 326.08725000005506,
      "v": 46
    },
    {
      "midi": 91,
      "hit": false,
      "t": 108337.05402500127,
      "d": 36.23191666668572,
      "v": 70
    },
    {
      "midi": 89,
      "hit": false,
      "t": 108366.03955833461,
      "d": 36.23191666670027,
      "v": 66
    },
    {
      "midi": 88,
      "hit": false,
      "t": 108413.14105000132,
      "d": 32.60872499999823,
      "v": 62
    },
    {
      "midi": 86,
      "hit": false,
      "t": 108445.74977500131,
      "d": 32.60872499999823,
      "v": 75
    },
    {
      "midi": 84,
      "hit": false,
      "t": 108478.35850000131,
      "d": 32.60872499999823,
      "v": 91
    },
    {
      "midi": 43,
      "hit": false,
      "t": 108478.35850000131,
      "d": 76.08702500000072,
      "v": 54
    },
    {
      "midi": 59,
      "hit": false,
      "t": 108478.35850000131,
      "d": 112.31894166668644,
      "v": 62
    },
    {
      "midi": 62,
      "hit": false,
      "t": 108478.35850000131,
      "d": 181.15958333335584,
      "v": 57
    },
    {
      "midi": 55,
      "hit": false,
      "t": 108478.35850000131,
      "d": 311.59448333337787,
      "v": 58
    },
    {
      "midi": 83,
      "hit": false,
      "t": 108554.44552500131,
      "d": 32.60872500001278,
      "v": 47
    },
    {
      "midi": 81,
      "hit": false,
      "t": 108558.06871666799,
      "d": 32.60872500001278,
      "v": 80
    },
    {
      "midi": 48,
      "hit": false,
      "t": 108695.75000000134,
      "d": 166.66681666667864,
      "v": 66
    },
    {
      "midi": 60,
      "hit": false,
      "t": 108695.75000000134,
      "d": 177.5363916666829,
      "v": 63
    },
    {
      "midi": 43,
      "hit": false,
      "t": 108695.75000000134,
      "d": 221.0146916666854,
      "v": 46
    },
    {
      "midi": 72,
      "hit": false,
      "t": 108699.37319166801,
      "d": 119.56532500001776,
      "v": 85
    },
    {
      "midi": 52,
      "hit": false,
      "t": 108699.37319166801,
      "d": 163.0436250000057,
      "v": 58
    },
    {
      "midi": 70,
      "hit": false,
      "t": 108710.24276666802,
      "d": 130.43490000000747,
      "v": 50
    },
    {
      "midi": 74,
      "hit": false,
      "t": 110434.88200000135,
      "d": 108.69574999999895,
      "v": 78
    },
    {
      "midi": 59,
      "hit": false,
      "t": 110434.88200000135,
      "d": 123.1885166666616,
      "v": 72
    },
    {
      "midi": 55,
      "hit": false,
      "t": 110434.88200000135,
      "d": 141.30447499999718,
      "v": 67
    },
    {
      "midi": 62,
      "hit": false,
      "t": 110434.88200000135,
      "d": 155.79724166665983,
      "v": 70
    },
    {
      "midi": 43,
      "hit": false,
      "t": 110434.88200000135,
      "d": 173.9131999999954,
      "v": 60
    },
    {
      "midi": 50,
      "hit": false,
      "t": 110434.88200000135,
      "d": 333.33363333334273,
      "v": 54
    },
    {
      "midi": 59,
      "hit": false,
      "t": 110652.27350000135,
      "d": 79.71021666667366,
      "v": 46
    },
    {
      "midi": 43,
      "hit": false,
      "t": 110652.27350000135,
      "d": 83.3334083333466,
      "v": 69
    },
    {
      "midi": 55,
      "hit": false,
      "t": 110652.27350000135,
      "d": 86.95660000001953,
      "v": 60
    },
    {
      "midi": 62,
      "hit": false,
      "t": 110652.27350000135,
      "d": 101.44936666668218,
      "v": 63
    },
    {
      "midi": 71,
      "hit": false,
      "t": 110652.27350000135,
      "d": 326.0872500000114,
      "v": 68
    },
    {
      "midi": 50,
      "hit": false,
      "t": 110869.66500000136,
      "d": 97.82617499999469,
      "v": 51
    },
    {
      "midi": 43,
      "hit": false,
      "t": 110869.66500000136,
      "d": 119.56532500000321,
      "v": 64
    },
    {
      "midi": 55,
      "hit": false,
      "t": 110869.66500000136,
      "d": 123.18851666667615,
      "v": 55
    },
    {
      "midi": 62,
      "hit": false,
      "t": 110869.66500000136,
      "d": 152.174050000016,
      "v": 60
    },
    {
      "midi": 59,
      "hit": false,
      "t": 110869.66500000136,
      "d": 163.04362500002026,
      "v": 63
    },
    {
      "midi": 59,
      "hit": false,
      "t": 111087.05650000139,
      "d": 130.43489999999292,
      "v": 70
    },
    {
      "midi": 55,
      "hit": false,
      "t": 111087.05650000139,
      "d": 144.92766666665557,
      "v": 61
    },
    {
      "midi": 62,
      "hit": false,
      "t": 111087.05650000139,
      "d": 163.04362499999115,
      "v": 60
    },
    {
      "midi": 43,
      "hit": false,
      "t": 111087.05650000139,
      "d": 311.5944833333342,
      "v": 56
    },
    {
      "midi": 50,
      "hit": false,
      "t": 111087.05650000139,
      "d": 322.46405833333847,
      "v": 54
    },
    {
      "midi": 74,
      "hit": false,
      "t": 111087.05650000139,
      "d": 376.81193333333067,
      "v": 67
    },
    {
      "midi": 59,
      "hit": false,
      "t": 111304.44800000139,
      "d": 123.18851666667615,
      "v": 56
    },
    {
      "midi": 55,
      "hit": false,
      "t": 111304.44800000139,
      "d": 137.6812833333388,
      "v": 53
    },
    {
      "midi": 62,
      "hit": false,
      "t": 111304.44800000139,
      "d": 163.0436250000057,
      "v": 60
    },
    {
      "midi": 50,
      "hit": false,
      "t": 111521.8395000014,
      "d": 76.08702500000072,
      "v": 45
    },
    {
      "midi": 43,
      "hit": false,
      "t": 111521.8395000014,
      "d": 83.33340833333205,
      "v": 46
    },
    {
      "midi": 59,
      "hit": false,
      "t": 111521.8395000014,
      "d": 108.69574999999895,
      "v": 56
    },
    {
      "midi": 55,
      "hit": false,
      "t": 111521.8395000014,
      "d": 115.94213333333028,
      "v": 52
    },
    {
      "midi": 62,
      "hit": false,
      "t": 111521.8395000014,
      "d": 141.30447499999718,
      "v": 51
    },
    {
      "midi": 71,
      "hit": false,
      "t": 111521.8395000014,
      "d": 141.30447499999718,
      "v": 64
    },
    {
      "midi": 59,
      "hit": false,
      "t": 111739.2310000014,
      "d": 105.07255833334057,
      "v": 53
    },
    {
      "midi": 55,
      "hit": false,
      "t": 111739.2310000014,
      "d": 108.6957500000135,
      "v": 50
    },
    {
      "midi": 62,
      "hit": false,
      "t": 111739.2310000014,
      "d": 130.43490000000747,
      "v": 46
    },
    {
      "midi": 43,
      "hit": false,
      "t": 111739.2310000014,
      "d": 141.30447500001173,
      "v": 68
    },
    {
      "midi": 74,
      "hit": false,
      "t": 111739.2310000014,
      "d": 213.76830833333952,
      "v": 56
    },
    {
      "midi": 50,
      "hit": false,
      "t": 111739.2310000014,
      "d": 326.0872500000114,
      "v": 46
    },
    {
      "midi": 43,
      "hit": false,
      "t": 111956.62250000141,
      "d": 76.08702500000072,
      "v": 54
    },
    {
      "midi": 59,
      "hit": false,
      "t": 111956.62250000141,
      "d": 112.31894166667189,
      "v": 62
    },
    {
      "midi": 71,
      "hit": false,
      "t": 111956.62250000141,
      "d": 112.31894166667189,
      "v": 45
    },
    {
      "midi": 62,
      "hit": false,
      "t": 111956.62250000141,
      "d": 181.1595833333413,
      "v": 57
    },
    {
      "midi": 74,
      "hit": false,
      "t": 112174.01400000142,
      "d": 90.57979166666337,
      "v": 67
    },
    {
      "midi": 55,
      "hit": false,
      "t": 112174.01400000142,
      "d": 94.2029833333363,
      "v": 67
    },
    {
      "midi": 59,
      "hit": false,
      "t": 112174.01400000142,
      "d": 123.18851666667615,
      "v": 72
    },
    {
      "midi": 62,
      "hit": false,
      "t": 112174.01400000142,
      "d": 155.79724166667438,
      "v": 70
    },
    {
      "midi": 43,
      "hit": false,
      "t": 112174.01400000142,
      "d": 173.91320000000997,
      "v": 60
    },
    {
      "midi": 50,
      "hit": false,
      "t": 112174.01400000142,
      "d": 333.3336333333573,
      "v": 54
    },
    {
      "midi": 74,
      "hit": false,
      "t": 112391.40550000143,
      "d": 54.34787500000675,
      "v": 66
    },
    {
      "midi": 59,
      "hit": false,
      "t": 112391.40550000143,
      "d": 79.71021666667366,
      "v": 46
    },
    {
      "midi": 43,
      "hit": false,
      "t": 112391.40550000143,
      "d": 83.3334083333466,
      "v": 69
    },
    {
      "midi": 55,
      "hit": false,
      "t": 112391.40550000143,
      "d": 86.95660000001953,
      "v": 60
    },
    {
      "midi": 62,
      "hit": false,
      "t": 112391.40550000143,
      "d": 101.44936666668218,
      "v": 63
    },
    {
      "midi": 74,
      "hit": false,
      "t": 112608.79700000145,
      "d": 79.71021666667366,
      "v": 79
    },
    {
      "midi": 50,
      "hit": false,
      "t": 112608.79700000145,
      "d": 97.82617500000924,
      "v": 51
    },
    {
      "midi": 43,
      "hit": false,
      "t": 112608.79700000145,
      "d": 119.56532500000321,
      "v": 64
    },
    {
      "midi": 55,
      "hit": false,
      "t": 112608.79700000145,
      "d": 123.18851666667615,
      "v": 55
    },
    {
      "midi": 62,
      "hit": false,
      "t": 112608.79700000145,
      "d": 152.174050000016,
      "v": 60
    },
    {
      "midi": 59,
      "hit": false,
      "t": 112608.79700000145,
      "d": 163.04362500002026,
      "v": 63
    },
    {
      "midi": 55,
      "hit": false,
      "t": 112826.18850000147,
      "d": 3684.7859250000038,
      "v": 49
    },
    {
      "midi": 50,
      "hit": false,
      "t": 112826.18850000147,
      "d": 3695.655500000008,
      "v": 54
    },
    {
      "midi": 59,
      "hit": false,
      "t": 112826.18850000147,
      "d": 3695.655500000008,
      "v": 62
    },
    {
      "midi": 62,
      "hit": false,
      "t": 112826.18850000147,
      "d": 3706.5250750000123,
      "v": 60
    },
    {
      "midi": 67,
      "hit": false,
      "t": 112826.18850000147,
      "d": 3710.1482666666852,
      "v": 59
    },
    {
      "midi": 43,
      "hit": false,
      "t": 112826.18850000147,
      "d": 3717.3946500000166,
      "v": 56
    }
  ]
}