{
  "jsonPath": "Unknown/Unknown/Israel Philharmonic Orchestra  Walter Weller/2-vltava-the-moldau.json",
  "path": "Unknown\\Unknown\\Israel Philharmonic Orchestra  Walter Weller\\2 Vltava (The Moldau).mid",
  "name": "2 Vltava (The Moldau)",
  "difficulty": "Advanced",
  "bpm": 117.0003451510182,
  "notes": [
    {
      "midi": 63,
      "hit": false,
      "t": 5.341864583333333,
      "d": 256.4095,
      "v": 80
    },
    {
      "midi": 59,
      "hit": false,
      "t": 2307.6855,
      "d": 256.4095000000002,
      "v": 93
    },
    {
      "midi": 76,
      "hit": false,
      "t": 3076.9139999999998,
      "d": 128.20474999999988,
      "v": 69
    },
    {
      "midi": 60,
      "hit": false,
      "t": 3076.914,
      "d": 256.4095000000002,
      "v": 102
    },
    {
      "midi": 74,
      "hit": false,
      "t": 3205.1187499999996,
      "d": 128.20474999999988,
      "v": 72
    },
    {
      "midi": 72,
      "hit": false,
      "t": 3333.3234999999995,
      "d": 128.20474999999988,
      "v": 79
    },
    {
      "midi": 74,
      "hit": false,
      "t": 3461.5282499999994,
      "d": 128.20474999999988,
      "v": 74
    },
    {
      "midi": 72,
      "hit": false,
      "t": 3589.7329999999993,
      "d": 128.20474999999988,
      "v": 75
    },
    {
      "midi": 71,
      "hit": false,
      "t": 3717.937749999999,
      "d": 128.20474999999988,
      "v": 91
    },
    {
      "midi": 72,
      "hit": false,
      "t": 3846.142499999999,
      "d": 128.20474999999988,
      "v": 76
    },
    {
      "midi": 71,
      "hit": false,
      "t": 3974.347249999999,
      "d": 128.20474999999988,
      "v": 73
    },
    {
      "midi": 69,
      "hit": false,
      "t": 4102.551999999999,
      "d": 128.20474999999988,
      "v": 79
    },
    {
      "midi": 71,
      "hit": false,
      "t": 4230.756749999999,
      "d": 128.20474999999988,
      "v": 72
    },
    {
      "midi": 69,
      "hit": false,
      "t": 4358.9614999999985,
      "d": 128.20474999999988,
      "v": 74
    },
    {
      "midi": 67,
      "hit": false,
      "t": 4487.166249999998,
      "d": 128.20474999999988,
      "v": 78
    },
    {
      "midi": 76,
      "hit": false,
      "t": 4615.370999999998,
      "d": 128.20474999999988,
      "v": 55
    },
    {
      "midi": 74,
      "hit": false,
      "t": 4743.575749999998,
      "d": 128.20474999999988,
      "v": 62
    },
    {
      "midi": 72,
      "hit": false,
      "t": 4871.780499999998,
      "d": 128.20474999999988,
      "v": 74
    },
    {
      "midi": 74,
      "hit": false,
      "t": 4999.985249999998,
      "d": 128.20474999999988,
      "v": 72
    },
    {
      "midi": 72,
      "hit": false,
      "t": 5128.189999999998,
      "d": 128.20474999999988,
      "v": 78
    },
    {
      "midi": 71,
      "hit": false,
      "t": 5256.394749999998,
      "d": 128.20474999999988,
      "v": 84
    },
    {
      "midi": 72,
      "hit": false,
      "t": 5384.5994999999975,
      "d": 128.20474999999988,
      "v": 82
    },
    {
      "midi": 71,
      "hit": false,
      "t": 5512.804249999997,
      "d": 128.20474999999988,
      "v": 75
    },
    {
      "midi": 69,
      "hit": false,
      "t": 5641.008999999997,
      "d": 128.20474999999988,
      "v": 74
    },
    {
      "midi": 71,
      "hit": false,
      "t": 5769.213749999997,
      "d": 128.20474999999988,
      "v": 72
    },
    {
      "midi": 69,
      "hit": false,
      "t": 5897.418499999997,
      "d": 128.20474999999988,
      "v": 77
    },
    {
      "midi": 67,
      "hit": false,
      "t": 6025.623249999997,
      "d": 128.20474999999988,
      "v": 80
    },
    {
      "midi": 74,
      "hit": false,
      "t": 6153.827999999997,
      "d": 128.20474999999988,
      "v": 77
    },
    {
      "midi": 72,
      "hit": false,
      "t": 6282.032749999997,
      "d": 128.20474999999988,
      "v": 72
    },
    {
      "midi": 71,
      "hit": false,
      "t": 6410.2374999999965,
      "d": 128.20474999999988,
      "v": 82
    },
    {
      "midi": 69,
      "hit": false,
      "t": 6538.442249999996,
      "d": 128.20474999999988,
      "v": 78
    },
    {
      "midi": 67,
      "hit": false,
      "t": 6666.646999999996,
      "d": 128.20474999999988,
      "v": 76
    },
    {
      "midi": 71,
      "hit": false,
      "t": 6666.647000000001,
      "d": 256.40949999999975,
      "v": 96
    },
    {
      "midi": 62,
      "hit": false,
      "t": 6794.851749999996,
      "d": 128.20474999999988,
      "v": 65
    },
    {
      "midi": 59,
      "hit": false,
      "t": 6923.056499999996,
      "d": 128.20474999999988,
      "v": 84
    },
    {
      "midi": 74,
      "hit": false,
      "t": 6923.056499999996,
      "d": 128.20474999999988,
      "v": 75
    },
    {
      "midi": 71,
      "hit": false,
      "t": 6923.056500000001,
      "d": 256.40949999999975,
      "v": 93
    },
    {
      "midi": 79,
      "hit": false,
      "t": 6923.056500000001,
      "d": 256.40949999999975,
      "v": 89
    },
    {
      "midi": 72,
      "hit": false,
      "t": 7051.261249999996,
      "d": 128.20474999999988,
      "v": 80
    },
    {
      "midi": 71,
      "hit": false,
      "t": 7179.465999999996,
      "d": 128.20474999999988,
      "v": 84
    },
    {
      "midi": 69,
      "hit": false,
      "t": 7307.670749999996,
      "d": 128.20474999999988,
      "v": 71
    },
    {
      "midi": 67,
      "hit": false,
      "t": 7435.875499999996,
      "d": 128.20474999999988,
      "v": 72
    },
    {
      "midi": 62,
      "hit": false,
      "t": 7564.080249999995,
      "d": 128.20474999999988,
      "v": 74
    },
    {
      "midi": 59,
      "hit": false,
      "t": 7692.284999999995,
      "d": 128.20474999999988,
      "v": 76
    },
    {
      "midi": 74,
      "hit": false,
      "t": 7692.284999999995,
      "d": 128.20474999999988,
      "v": 68
    },
    {
      "midi": 72,
      "hit": false,
      "t": 7820.489749999995,
      "d": 128.20474999999988,
      "v": 76
    },
    {
      "midi": 71,
      "hit": false,
      "t": 7948.694499999995,
      "d": 128.20474999999988,
      "v": 77
    },
    {
      "midi": 69,
      "hit": false,
      "t": 8076.899249999995,
      "d": 128.2047500000008,
      "v": 80
    },
    {
      "midi": 67,
      "hit": false,
      "t": 8205.103999999996,
      "d": 128.2047500000008,
      "v": 71
    },
    {
      "midi": 71,
      "hit": false,
      "t": 8205.104,
      "d": 256.40949999999975,
      "v": 86
    },
    {
      "midi": 62,
      "hit": false,
      "t": 8333.308749999997,
      "d": 128.2047500000008,
      "v": 71
    },
    {
      "midi": 59,
      "hit": false,
      "t": 8461.513499999997,
      "d": 128.2047500000008,
      "v": 84
    },
    {
      "midi": 74,
      "hit": false,
      "t": 8461.513499999997,
      "d": 128.2047500000008,
      "v": 68
    },
    {
      "midi": 71,
      "hit": false,
      "t": 8461.5135,
      "d": 256.40949999999975,
      "v": 89
    },
    {
      "midi": 79,
      "hit": false,
      "t": 8461.5135,
      "d": 256.40949999999975,
      "v": 94
    },
    {
      "midi": 72,
      "hit": false,
      "t": 8589.718249999998,
      "d": 128.2047500000008,
      "v": 74
    },
    {
      "midi": 71,
      "hit": false,
      "t": 8717.922999999999,
      "d": 128.2047500000008,
      "v": 80
    },
    {
      "midi": 69,
      "hit": false,
      "t": 8846.12775,
      "d": 128.2047500000008,
      "v": 76
    },
    {
      "midi": 67,
      "hit": false,
      "t": 8974.3325,
      "d": 128.2047500000008,
      "v": 80
    },
    {
      "midi": 62,
      "hit": false,
      "t": 9102.537250000001,
      "d": 128.2047500000008,
      "v": 78
    },
    {
      "midi": 64,
      "hit": false,
      "t": 9230.742000000002,
      "d": 128.2047500000008,
      "v": 70
    },
    {
      "midi": 72,
      "hit": false,
      "t": 9230.742000000002,
      "d": 128.2047500000008,
      "v": 74
    },
    {
      "midi": 71,
      "hit": false,
      "t": 9358.946750000003,
      "d": 128.2047500000008,
      "v": 67
    },
    {
      "midi": 69,
      "hit": false,
      "t": 9487.151500000004,
      "d": 128.2047500000008,
      "v": 74
    },
    {
      "midi": 64,
      "hit": false,
      "t": 9615.356250000004,
      "d": 128.2047500000008,
      "v": 72
    },
    {
      "midi": 69,
      "hit": false,
      "t": 9743.561000000005,
      "d": 128.2047500000008,
      "v": 66
    },
    {
      "midi": 71,
      "hit": false,
      "t": 9871.765750000006,
      "d": 128.2047500000008,
      "v": 74
    },
    {
      "midi": 69,
      "hit": false,
      "t": 9999.9705,
      "d": 256.40949999999975,
      "v": 89
    },
    {
      "midi": 76,
      "hit": false,
      "t": 9999.9705,
      "d": 256.40949999999975,
      "v": 89
    },
    {
      "midi": 72,
      "hit": false,
      "t": 9999.970500000007,
      "d": 128.2047500000008,
      "v": 76
    },
    {
      "midi": 74,
      "hit": false,
      "t": 10128.175250000008,
      "d": 128.2047500000008,
      "v": 69
    },
    {
      "midi": 72,
      "hit": false,
      "t": 10256.380000000008,
      "d": 128.2047500000008,
      "v": 78
    },
    {
      "midi": 71,
      "hit": false,
      "t": 10384.584750000009,
      "d": 128.2047500000008,
      "v": 74
    },
    {
      "midi": 69,
      "hit": false,
      "t": 10512.78950000001,
      "d": 128.2047500000008,
      "v": 74
    },
    {
      "midi": 64,
      "hit": false,
      "t": 10640.99425000001,
      "d": 128.2047500000008,
      "v": 72
    },
    {
      "midi": 69,
      "hit": false,
      "t": 10769.199000000011,
      "d": 128.2047500000008,
      "v": 71
    },
    {
      "midi": 72,
      "hit": false,
      "t": 10769.199000000011,
      "d": 128.2047500000008,
      "v": 69
    },
    {
      "midi": 71,
      "hit": false,
      "t": 10897.403750000012,
      "d": 128.2047500000008,
      "v": 79
    },
    {
      "midi": 69,
      "hit": false,
      "t": 11025.608500000013,
      "d": 128.2047500000008,
      "v": 74
    },
    {
      "midi": 64,
      "hit": false,
      "t": 11153.813250000014,
      "d": 128.2047500000008,
      "v": 76
    },
    {
      "midi": 69,
      "hit": false,
      "t": 11282.018000000015,
      "d": 128.2047500000008,
      "v": 81
    },
    {
      "midi": 71,
      "hit": false,
      "t": 11410.222750000015,
      "d": 128.2047500000008,
      "v": 74
    },
    {
      "midi": 72,
      "hit": false,
      "t": 11538.427500000016,
      "d": 128.2047500000008,
      "v": 77
    },
    {
      "midi": 74,
      "hit": false,
      "t": 11666.632250000017,
      "d": 128.2047500000008,
      "v": 75
    },
    {
      "midi": 72,
      "hit": false,
      "t": 11794.837000000018,
      "d": 128.2047500000008,
      "v": 71
    },
    {
      "midi": 71,
      "hit": false,
      "t": 11923.041750000019,
      "d": 128.2047500000008,
      "v": 71
    },
    {
      "midi": 69,
      "hit": false,
      "t": 12051.24650000002,
      "d": 128.2047500000008,
      "v": 77
    },
    {
      "midi": 64,
      "hit": false,
      "t": 12179.45125000002,
      "d": 128.2047500000008,
      "v": 80
    },
    {
      "midi": 67,
      "hit": false,
      "t": 12307.65600000002,
      "d": 128.2047500000008,
      "v": 69
    },
    {
      "midi": 76,
      "hit": false,
      "t": 12307.65600000002,
      "d": 128.2047500000008,
      "v": 70
    },
    {
      "midi": 72,
      "hit": false,
      "t": 12435.860750000022,
      "d": 128.2047500000008,
      "v": 72
    },
    {
      "midi": 71,
      "hit": false,
      "t": 12564.065500000022,
      "d": 128.2047500000008,
      "v": 72
    },
    {
      "midi": 69,
      "hit": false,
      "t": 12692.270250000023,
      "d": 128.2047500000008,
      "v": 78
    },
    {
      "midi": 76,
      "hit": false,
      "t": 12820.474999999999,
      "d": 256.40949999999975,
      "v": 84
    },
    {
      "midi": 83,
      "hit": false,
      "t": 12820.474999999999,
      "d": 256.40949999999975,
      "v": 97
    },
    {
      "midi": 67,
      "hit": false,
      "t": 12820.475000000024,
      "d": 128.2047500000008,
      "v": 63
    },
    {
      "midi": 66,
      "hit": false,
      "t": 12948.679750000025,
      "d": 128.2047500000008,
      "v": 81
    },
    {
      "midi": 64,
      "hit": false,
      "t": 13076.884500000026,
      "d": 128.2047500000008,
      "v": 67
    },
    {
      "midi": 76,
      "hit": false,
      "t": 13076.884500000026,
      "d": 128.2047500000008,
      "v": 71
    },
    {
      "midi": 72,
      "hit": false,
      "t": 13205.089250000026,
      "d": 128.2047500000008,
      "v": 84
    },
    {
      "midi": 71,
      "hit": false,
      "t": 13333.294000000027,
      "d": 128.2047500000008,
      "v": 80
    },
    {
      "midi": 69,
      "hit": false,
      "t": 13461.498750000028,
      "d": 128.2047500000008,
      "v": 79
    },
    {
      "midi": 67,
      "hit": false,
      "t": 13589.703500000029,
      "d": 128.2047500000008,
      "v": 72
    },
    {
      "midi": 66,
      "hit": false,
      "t": 13717.90825000003,
      "d": 128.2047500000008,
      "v": 69
    },
    {
      "midi": 64,
      "hit": false,
      "t": 13846.11300000003,
      "d": 128.2047500000008,
      "v": 63
    },
    {
      "midi": 76,
      "hit": false,
      "t": 13846.11300000003,
      "d": 128.2047500000008,
      "v": 71
    },
    {
      "midi": 72,
      "hit": false,
      "t": 13974.317750000031,
      "d": 128.2047500000008,
      "v": 75
    },
    {
      "midi": 71,
      "hit": false,
      "t": 14102.522500000032,
      "d": 128.2047500000008,
      "v": 76
    },
    {
      "midi": 69,
      "hit": false,
      "t": 14230.727250000033,
      "d": 128.2047500000008,
      "v": 81
    },
    {
      "midi": 76,
      "hit": false,
      "t": 14358.931999999999,
      "d": 256.40949999999975,
      "v": 81
    },
    {
      "midi": 83,
      "hit": false,
      "t": 14358.931999999999,
      "d": 256.40949999999975,
      "v": 89
    },
    {
      "midi": 67,
      "hit": false,
      "t": 14358.932000000033,
      "d": 128.2047500000008,
      "v": 52
    },
    {
      "midi": 66,
      "hit": false,
      "t": 14487.136750000034,
      "d": 128.2047500000008,
      "v": 66
    },
    {
      "midi": 64,
      "hit": false,
      "t": 14615.341500000035,
      "d": 128.2047500000008,
      "v": 70
    },
    {
      "midi": 76,
      "hit": false,
      "t": 14615.341500000035,
      "d": 128.2047500000008,
      "v": 75
    },
    {
      "midi": 72,
      "hit": false,
      "t": 14743.546250000036,
      "d": 128.2047500000008,
      "v": 78
    },
    {
      "midi": 71,
      "hit": false,
      "t": 14871.751000000037,
      "d": 128.2047500000008,
      "v": 79
    },
    {
      "midi": 69,
      "hit": false,
      "t": 14999.955750000037,
      "d": 128.2047500000008,
      "v": 82
    },
    {
      "midi": 67,
      "hit": false,
      "t": 15128.160500000038,
      "d": 128.2047500000008,
      "v": 77
    },
    {
      "midi": 64,
      "hit": false,
      "t": 15256.365250000039,
      "d": 128.2047500000008,
      "v": 74
    },
    {
      "midi": 59,
      "hit": false,
      "t": 15384.57000000004,
      "d": 128.2047500000008,
      "v": 75
    },
    {
      "midi": 66,
      "hit": false,
      "t": 15384.57000000004,
      "d": 128.2047500000008,
      "v": 69
    },
    {
      "midi": 67,
      "hit": false,
      "t": 15512.77475000004,
      "d": 128.2047500000008,
      "v": 78
    },
    {
      "midi": 66,
      "hit": false,
      "t": 15640.979500000041,
      "d": 128.2047500000008,
      "v": 76
    },
    {
      "midi": 64,
      "hit": false,
      "t": 15769.184250000042,
      "d": 128.2047500000008,
      "v": 82
    },
    {
      "midi": 71,
      "hit": false,
      "t": 15897.389,
      "d": 256.40949999999975,
      "v": 84
    },
    {
      "midi": 66,
      "hit": false,
      "t": 15897.389000000043,
      "d": 128.2047500000008,
      "v": 69
    },
    {
      "midi": 69,
      "hit": false,
      "t": 16025.593750000044,
      "d": 128.2047500000008,
      "v": 79
    },
    {
      "midi": 75,
      "hit": false,
      "t": 16153.798499999999,
      "d": 256.40949999999975,
      "v": 73
    },
    {
      "midi": 72,
      "hit": false,
      "t": 16153.798500000044,
      "d": 128.2047500000008,
      "v": 76
    },
    {
      "midi": 71,
      "hit": false,
      "t": 16282.003250000045,
      "d": 128.2047500000008,
      "v": 76
    },
    {
      "midi": 69,
      "hit": false,
      "t": 16410.208000000046,
      "d": 128.2047500000008,
      "v": 77
    },
    {
      "midi": 67,
      "hit": false,
      "t": 16538.412750000047,
      "d": 128.2047500000008,
      "v": 69
    },
    {
      "midi": 69,
      "hit": false,
      "t": 16666.617500000048,
      "d": 128.2047500000008,
      "v": 74
    },
    {
      "midi": 72,
      "hit": false,
      "t": 16794.82225000005,
      "d": 128.2047500000008,
      "v": 74
    },
    {
      "midi": 71,
      "hit": false,
      "t": 16923.02700000005,
      "d": 128.2047500000008,
      "v": 82
    },
    {
      "midi": 69,
      "hit": false,
      "t": 17051.23175000005,
      "d": 128.2047500000008,
      "v": 76
    },
    {
      "midi": 67,
      "hit": false,
      "t": 17179.43650000005,
      "d": 128.2047500000008,
      "v": 82
    },
    {
      "midi": 66,
      "hit": false,
      "t": 17307.64125000005,
      "d": 128.2047500000008,
      "v": 72
    },
    {
      "midi": 67,
      "hit": false,
      "t": 17435.845999999998,
      "d": 256.4095000000016,
      "v": 89
    },
    {
      "midi": 64,
      "hit": false,
      "t": 17435.846000000052,
      "d": 128.2047500000008,
      "v": 74
    },
    {
      "midi": 67,
      "hit": false,
      "t": 17564.050750000053,
      "d": 128.2047500000008,
      "v": 78
    },
    {
      "midi": 71,
      "hit": false,
      "t": 17692.2555,
      "d": 256.4095000000016,
      "v": 97
    },
    {
      "midi": 71,
      "hit": false,
      "t": 17692.255500000054,
      "d": 128.2047500000008,
      "v": 78
    },
    {
      "midi": 69,
      "hit": false,
      "t": 17820.460250000055,
      "d": 128.2047500000008,
      "v": 84
    },
    {
      "midi": 67,
      "hit": false,
      "t": 17948.665000000055,
      "d": 128.2047500000008,
      "v": 79
    },
    {
      "midi": 66,
      "hit": false,
      "t": 18076.869750000056,
      "d": 128.2047500000008,
      "v": 71
    },
    {
      "midi": 67,
      "hit": false,
      "t": 18205.074500000057,
      "d": 128.2047500000008,
      "v": 71
    },
    {
      "midi": 64,
      "hit": false,
      "t": 18333.279250000058,
      "d": 128.2047500000008,
      "v": 74
    },
    {
      "midi": 63,
      "hit": false,
      "t": 18461.48400000006,
      "d": 128.2047500000008,
      "v": 77
    },
    {
      "midi": 72,
      "hit": false,
      "t": 18461.48400000006,
      "d": 128.2047500000008,
      "v": 76
    },
    {
      "midi": 74,
      "hit": false,
      "t": 18589.68875000006,
      "d": 128.2047500000008,
      "v": 84
    },
    {
      "midi": 72,
      "hit": false,
      "t": 18717.89350000006,
      "d": 128.2047500000008,
      "v": 79
    },
    {
      "midi": 71,
      "hit": false,
      "t": 18846.09825000006,
      "d": 128.2047500000008,
      "v": 79
    },
    {
      "midi": 66,
      "hit": false,
      "t": 18974.303,
      "d": 256.4095000000016,
      "v": 81
    },
    {
      "midi": 72,
      "hit": false,
      "t": 18974.30300000006,
      "d": 128.2047500000008,
      "v": 70
    },
    {
      "midi": 69,
      "hit": false,
      "t": 19102.507750000063,
      "d": 128.2047500000008,
      "v": 77
    },
    {
      "midi": 69,
      "hit": false,
      "t": 19230.7125,
      "d": 256.4095000000016,
      "v": 101
    },
    {
      "midi": 63,
      "hit": false,
      "t": 19230.712500000063,
      "d": 128.2047500000008,
      "v": 51
    },
    {
      "midi": 66,
      "hit": false,
      "t": 19230.712500000063,
      "d": 128.2047500000008,
      "v": 73
    },
    {
      "midi": 64,
      "hit": false,
      "t": 19358.917250000064,
      "d": 128.2047500000008,
      "v": 77
    },
    {
      "midi": 66,
      "hit": false,
      "t": 19487.122000000065,
      "d": 128.2047500000008,
      "v": 78
    },
    {
      "midi": 64,
      "hit": false,
      "t": 19615.326750000066,
      "d": 128.2047500000008,
      "v": 79
    },
    {
      "midi": 66,
      "hit": false,
      "t": 19743.531500000066,
      "d": 128.2047500000008,
      "v": 79
    },
    {
      "midi": 69,
      "hit": false,
      "t": 19871.736250000067,
      "d": 128.2047500000008,
      "v": 78
    },
    {
      "midi": 67,
      "hit": false,
      "t": 19999.941000000068,
      "d": 128.2047500000008,
      "v": 75
    },
    {
      "midi": 71,
      "hit": false,
      "t": 19999.941000000068,
      "d": 128.2047500000008,
      "v": 76
    },
    {
      "midi": 72,
      "hit": false,
      "t": 20128.14575000007,
      "d": 128.2047500000008,
      "v": 84
    },
    {
      "midi": 71,
      "hit": false,
      "t": 20256.35050000007,
      "d": 128.2047500000008,
      "v": 82
    },
    {
      "midi": 69,
      "hit": false,
      "t": 20384.55525000007,
      "d": 128.2047500000008,
      "v": 78
    },
    {
      "midi": 67,
      "hit": false,
      "t": 20512.760000000002,
      "d": 256.4095000000016,
      "v": 89
    },
    {
      "midi": 71,
      "hit": false,
      "t": 20512.76000000007,
      "d": 128.2047500000008,
      "v": 88
    },
    {
      "midi": 67,
      "hit": false,
      "t": 20640.964750000072,
      "d": 128.2047500000008,
      "v": 82
    },
    {
      "midi": 70,
      "hit": false,
      "t": 20769.169500000004,
      "d": 256.4095000000016,
      "v": 93
    },
    {
      "midi": 64,
      "hit": false,
      "t": 20769.169500000073,
      "d": 128.2047500000008,
      "v": 74
    },
    {
      "midi": 67,
      "hit": false,
      "t": 20769.169500000073,
      "d": 128.2047500000008,
      "v": 75
    },
    {
      "midi": 66,
      "hit": false,
      "t": 20897.374250000074,
      "d": 128.2047500000008,
      "v": 79
    },
    {
      "midi": 64,
      "hit": false,
      "t": 21025.579000000074,
      "d": 128.2047500000008,
      "v": 79
    },
    {
      "midi": 63,
      "hit": false,
      "t": 21153.783750000075,
      "d": 128.2047500000008,
      "v": 79
    },
    {
      "midi": 64,
      "hit": false,
      "t": 21281.988500000076,
      "d": 128.2047500000008,
      "v": 76
    },
    {
      "midi": 67,
      "hit": false,
      "t": 21410.193250000077,
      "d": 128.2047500000008,
      "v": 80
    },
    {
      "midi": 71,
      "hit": false,
      "t": 21538.398000000005,
      "d": 256.4095000000016,
      "v": 86
    },
    {
      "midi": 78,
      "hit": false,
      "t": 21538.398000000005,
      "d": 256.4095000000016,
      "v": 87
    },
    {
      "midi": 71,
      "hit": false,
      "t": 21538.398000000077,
      "d": 128.2047500000008,
      "v": 84
    },
    {
      "midi": 63,
      "hit": false,
      "t": 23076.85500000008,
      "d": 128.2047500000008,
      "v": 78
    },
    {
      "midi": 66,
      "hit": false,
      "t": 23076.85500000008,
      "d": 128.2047500000008,
      "v": 76
    },
    {
      "midi": 64,
      "hit": false,
      "t": 23205.05975000008,
      "d": 128.2047500000008,
      "v": 71
    },
    {
      "midi": 67,
      "hit": false,
      "t": 23205.05975000008,
      "d": 128.2047500000008,
      "v": 74
    },
    {
      "midi": 66,
      "hit": false,
      "t": 23333.26450000008,
      "d": 128.2047500000008,
      "v": 74
    },
    {
      "midi": 69,
      "hit": false,
      "t": 23333.26450000008,
      "d": 128.2047500000008,
      "v": 75
    },
    {
      "midi": 67,
      "hit": false,
      "t": 23461.469250000082,
      "d": 128.2047500000008,
      "v": 72
    },
    {
      "midi": 71,
      "hit": false,
      "t": 23461.469250000082,
      "d": 128.2047500000008,
      "v": 84
    },
    {
      "midi": 69,
      "hit": false,
      "t": 23589.674000000083,
      "d": 128.2047500000008,
      "v": 79
    },
    {
      "midi": 72,
      "hit": false,
      "t": 23589.674000000083,
      "d": 128.2047500000008,
      "v": 81
    },
    {
      "midi": 67,
      "hit": false,
      "t": 23717.878750000084,
      "d": 128.2047500000008,
      "v": 76
    },
    {
      "midi": 71,
      "hit": false,
      "t": 23717.878750000084,
      "d": 128.2047500000008,
      "v": 75
    },
    {
      "midi": 69,
      "hit": false,
      "t": 23846.083500000084,
      "d": 128.2047500000008,
      "v": 76
    },
    {
      "midi": 72,
      "hit": false,
      "t": 23846.083500000084,
      "d": 128.2047500000008,
      "v": 74
    },
    {
      "midi": 67,
      "hit": false,
      "t": 23974.288250000085,
      "d": 128.2047500000008,
      "v": 69
    },
    {
      "midi": 71,
      "hit": false,
      "t": 23974.288250000085,
      "d": 128.2047500000008,
      "v": 79
    },
    {
      "midi": 69,
      "hit": false,
      "t": 24102.493000000086,
      "d": 128.2047500000008,
      "v": 71
    },
    {
      "midi": 72,
      "hit": false,
      "t": 24102.493000000086,
      "d": 128.2047500000008,
      "v": 78
    },
    {
      "midi": 67,
      "hit": false,
      "t": 24230.697750000087,
      "d": 128.2047500000008,
      "v": 68
    },
    {
      "midi": 71,
      "hit": false,
      "t": 24230.697750000087,
      "d": 128.2047500000008,
      "v": 79
    },
    {
      "midi": 66,
      "hit": false,
      "t": 24358.902500000087,
      "d": 128.2047500000008,
      "v": 81
    },
    {
      "midi": 69,
      "hit": false,
      "t": 24358.902500000087,
      "d": 128.2047500000008,
      "v": 79
    },
    {
      "midi": 64,
      "hit": false,
      "t": 24487.10725000009,
      "d": 128.2047500000008,
      "v": 72
    },
    {
      "midi": 67,
      "hit": false,
      "t": 24487.10725000009,
      "d": 128.2047500000008,
      "v": 76
    },
    {
      "midi": 63,
      "hit": false,
      "t": 24615.31200000009,
      "d": 256.4095000000016,
      "v": 73
    },
    {
      "midi": 66,
      "hit": false,
      "t": 24615.31200000009,
      "d": 256.4095000000016,
      "v": 77
    },
    {
      "midi": 63,
      "hit": false,
      "t": 24871.72150000009,
      "d": 128.2047500000008,
      "v": 67
    },
    {
      "midi": 66,
      "hit": false,
      "t": 24871.72150000009,
      "d": 128.2047500000008,
      "v": 75
    },
    {
      "midi": 64,
      "hit": false,
      "t": 24999.92625000009,
      "d": 128.2047500000008,
      "v": 70
    },
    {
      "midi": 67,
      "hit": false,
      "t": 24999.92625000009,
      "d": 128.2047500000008,
      "v": 77
    },
    {
      "midi": 66,
      "hit": false,
      "t": 25128.131000000092,
      "d": 128.2047500000008,
      "v": 70
    },
    {
      "midi": 69,
      "hit": false,
      "t": 25128.131000000092,
      "d": 128.2047500000008,
      "v": 77
    },
    {
      "midi": 67,
      "hit": false,
      "t": 25256.335750000093,
      "d": 128.2047500000008,
      "v": 62
    },
    {
      "midi": 71,
      "hit": false,
      "t": 25256.335750000093,
      "d": 128.2047500000008,
      "v": 88
    },
    {
      "midi": 69,
      "hit": false,
      "t": 25384.540500000094,
      "d": 128.2047500000008,
      "v": 75
    },
    {
      "midi": 72,
      "hit": false,
      "t": 25384.540500000094,
      "d": 128.2047500000008,
      "v": 83
    },
    {
      "midi": 71,
      "hit": false,
      "t": 25512.745250000095,
      "d": 128.2047500000008,
      "v": 77
    },
    {
      "midi": 74,
      "hit": false,
      "t": 25512.745250000095,
      "d": 128.2047500000008,
      "v": 84
    },
    {
      "midi": 72,
      "hit": false,
      "t": 25640.950000000095,
      "d": 128.2047500000008,
      "v": 78
    },
    {
      "midi": 76,
      "hit": false,
      "t": 25640.950000000095,
      "d": 128.2047500000008,
      "v": 84
    },
    {
      "midi": 71,
      "hit": false,
      "t": 25769.154750000096,
      "d": 128.2047500000008,
      "v": 77
    },
    {
      "midi": 74,
      "hit": false,
      "t": 25769.154750000096,
      "d": 128.2047500000008,
      "v": 77
    },
    {
      "midi": 69,
      "hit": false,
      "t": 25897.359500000097,
      "d": 128.2047500000008,
      "v": 79
    },
    {
      "midi": 72,
      "hit": false,
      "t": 25897.359500000097,
      "d": 128.2047500000008,
      "v": 81
    },
    {
      "midi": 71,
      "hit": false,
      "t": 26025.564250000098,
      "d": 128.2047500000008,
      "v": 72
    },
    {
      "midi": 74,
      "hit": false,
      "t": 26025.564250000098,
      "d": 128.2047500000008,
      "v": 76
    },
    {
      "midi": 72,
      "hit": false,
      "t": 26153.7690000001,
      "d": 128.2047500000008,
      "v": 74
    },
    {
      "midi": 76,
      "hit": false,
      "t": 26153.7690000001,
      "d": 128.2047500000008,
      "v": 77
    },
    {
      "midi": 71,
      "hit": false,
      "t": 26281.9737500001,
      "d": 128.2047500000008,
      "v": 76
    },
    {
      "midi": 74,
      "hit": false,
      "t": 26281.9737500001,
      "d": 128.2047500000008,
      "v": 75
    },
    {
      "midi": 69,
      "hit": false,
      "t": 26410.1785000001,
      "d": 128.2047500000008,
      "v": 80
    },
    {
      "midi": 72,
      "hit": false,
      "t": 26410.1785000001,
      "d": 128.2047500000008,
      "v": 77
    },
    {
      "midi": 71,
      "hit": false,
      "t": 26538.3832500001,
      "d": 128.2047500000008,
      "v": 76
    },
    {
      "midi": 74,
      "hit": false,
      "t": 26538.3832500001,
      "d": 128.2047500000008,
      "v": 74
    },
    {
      "midi": 69,
      "hit": false,
      "t": 26666.5880000001,
      "d": 128.2047500000008,
      "v": 84
    },
    {
      "midi": 72,
      "hit": false,
      "t": 26666.5880000001,
      "d": 128.2047500000008,
      "v": 80
    },
    {
      "midi": 67,
      "hit": false,
      "t": 26794.792750000102,
      "d": 128.2047500000008,
      "v": 77
    },
    {
      "midi": 71,
      "hit": false,
      "t": 26794.792750000102,
      "d": 128.2047500000008,
      "v": 84
    },
    {
      "midi": 66,
      "hit": false,
      "t": 26922.997500000103,
      "d": 128.2047500000008,
      "v": 81
    },
    {
      "midi": 69,
      "hit": false,
      "t": 26922.997500000103,
      "d": 128.2047500000008,
      "v": 79
    },
    {
      "midi": 67,
      "hit": false,
      "t": 27051.202250000104,
      "d": 128.2047500000008,
      "v": 75
    },
    {
      "midi": 71,
      "hit": false,
      "t": 27051.202250000104,
      "d": 128.2047500000008,
      "v": 75
    },
    {
      "midi": 69,
      "hit": false,
      "t": 27179.407000000105,
      "d": 128.2047500000008,
      "v": 67
    },
    {
      "midi": 72,
      "hit": false,
      "t": 27179.407000000105,
      "d": 128.2047500000008,
      "v": 80
    },
    {
      "midi": 67,
      "hit": false,
      "t": 27307.611750000106,
      "d": 128.2047500000008,
      "v": 79
    },
    {
      "midi": 71,
      "hit": false,
      "t": 27307.611750000106,
      "d": 128.2047500000008,
      "v": 77
    },
    {
      "midi": 66,
      "hit": false,
      "t": 27435.816500000106,
      "d": 128.2047500000008,
      "v": 75
    },
    {
      "midi": 69,
      "hit": false,
      "t": 27435.816500000106,
      "d": 128.2047500000008,
      "v": 76
    },
    {
      "midi": 64,
      "hit": false,
      "t": 27564.021250000107,
      "d": 128.2047500000008,
      "v": 73
    },
    {
      "midi": 67,
      "hit": false,
      "t": 27564.021250000107,
      "d": 128.2047500000008,
      "v": 79
    },
    {
      "midi": 71,
      "hit": false,
      "t": 27692.226000000006,
      "d": 256.4095000000016,
      "v": 94
    },
    {
      "midi": 78,
      "hit": false,
      "t": 27692.226000000006,
      "d": 256.4095000000016,
      "v": 89
    },
    {
      "midi": 63,
      "hit": false,
      "t": 27692.226000000108,
      "d": 128.2047500000008,
      "v": 79
    },
    {
      "midi": 66,
      "hit": false,
      "t": 27692.226000000108,
      "d": 128.2047500000008,
      "v": 73
    },
    {
      "midi": 63,
      "hit": false,
      "t": 28461.45450000011,
      "d": 128.2047500000008,
      "v": 70
    },
    {
      "midi": 66,
      "hit": false,
      "t": 28461.45450000011,
      "d": 128.2047500000008,
      "v": 73
    },
    {
      "midi": 64,
      "hit": false,
      "t": 28589.65925000011,
      "d": 128.2047500000008,
      "v": 73
    },
    {
      "midi": 67,
      "hit": false,
      "t": 28589.65925000011,
      "d": 128.2047500000008,
      "v": 79
    },
    {
      "midi": 66,
      "hit": false,
      "t": 28717.86400000011,
      "d": 128.2047500000008,
      "v": 81
    },
    {
      "midi": 69,
      "hit": false,
      "t": 28717.86400000011,
      "d": 128.2047500000008,
      "v": 81
    },
    {
      "midi": 64,
      "hit": false,
      "t": 28846.06875000011,
      "d": 128.2047500000008,
      "v": 76
    },
    {
      "midi": 67,
      "hit": false,
      "t": 28846.06875000011,
      "d": 128.2047500000008,
      "v": 73
    },
    {
      "midi": 63,
      "hit": false,
      "t": 28974.273500000112,
      "d": 128.2047500000008,
      "v": 69
    },
    {
      "midi": 66,
      "hit": false,
      "t": 28974.273500000112,
      "d": 128.2047500000008,
      "v": 75
    },
    {
      "midi": 64,
      "hit": false,
      "t": 29102.478250000113,
      "d": 128.2047500000008,
      "v": 75
    },
    {
      "midi": 67,
      "hit": false,
      "t": 29102.478250000113,
      "d": 128.2047500000008,
      "v": 78
    },
    {
      "midi": 66,
      "hit": false,
      "t": 29230.683000000114,
      "d": 128.2047500000008,
      "v": 77
    },
    {
      "midi": 69,
      "hit": false,
      "t": 29230.683000000114,
      "d": 128.2047500000008,
      "v": 75
    },
    {
      "midi": 64,
      "hit": false,
      "t": 29358.887750000114,
      "d": 128.2047500000008,
      "v": 68
    },
    {
      "midi": 67,
      "hit": false,
      "t": 29358.887750000114,
      "d": 128.2047500000008,
      "v": 74
    },
    {
      "midi": 62,
      "hit": false,
      "t": 29487.092500000115,
      "d": 128.2047500000008,
      "v": 76
    },
    {
      "midi": 66,
      "hit": false,
      "t": 29487.092500000115,
      "d": 128.2047500000008,
      "v": 69
    },
    {
      "midi": 60,
      "hit": false,
      "t": 29615.297250000116,
      "d": 128.2047500000008,
      "v": 71
    },
    {
      "midi": 64,
      "hit": false,
      "t": 29615.297250000116,
      "d": 128.2047500000008,
      "v": 70
    },
    {
      "midi": 59,
      "hit": false,
      "t": 29743.502000000117,
      "d": 128.2047500000008,
      "v": 79
    },
    {
      "midi": 62,
      "hit": false,
      "t": 29743.502000000117,
      "d": 128.2047500000008,
      "v": 78
    },
    {
      "midi": 57,
      "hit": false,
      "t": 29871.706750000118,
      "d": 128.2047500000008,
      "v": 77
    },
    {
      "midi": 60,
      "hit": false,
      "t": 29871.706750000118,
      "d": 128.2047500000008,
      "v": 79
    },
    {
      "midi": 58,
      "hit": false,
      "t": 29999.91150000012,
      "d": 128.2047500000008,
      "v": 67
    },
    {
      "midi": 61,
      "hit": false,
      "t": 29999.91150000012,
      "d": 128.2047500000008,
      "v": 79
    },
    {
      "midi": 59,
      "hit": false,
      "t": 30128.11625000012,
      "d": 128.2047500000008,
      "v": 72
    },
    {
      "midi": 63,
      "hit": false,
      "t": 30128.11625000012,
      "d": 128.2047500000008,
      "v": 74
    },
    {
      "midi": 61,
      "hit": false,
      "t": 30256.32100000012,
      "d": 128.2047500000008,
      "v": 79
    },
    {
      "midi": 64,
      "hit": false,
      "t": 30256.32100000012,
      "d": 128.2047500000008,
      "v": 74
    },
    {
      "midi": 63,
      "hit": false,
      "t": 30384.52575000012,
      "d": 128.2047500000008,
      "v": 79
    },
    {
      "midi": 66,
      "hit": false,
      "t": 30384.52575000012,
      "d": 128.2047500000008,
      "v": 81
    },
    {
      "midi": 64,
      "hit": false,
      "t": 30512.73050000012,
      "d": 128.2047500000008,
      "v": 79
    },
    {
      "midi": 67,
      "hit": false,
      "t": 30512.73050000012,
      "d": 128.2047500000008,
      "v": 89
    },
    {
      "midi": 66,
      "hit": false,
      "t": 30640.935250000122,
      "d": 128.2047500000008,
      "v": 72
    },
    {
      "midi": 69,
      "hit": false,
      "t": 30640.935250000122,
      "d": 128.2047500000008,
      "v": 80
    },
    {
      "midi": 71,
      "hit": false,
      "t": 30769.140000000007,
      "d": 256.4095000000016,
      "v": 96
    },
    {
      "midi": 78,
      "hit": false,
      "t": 30769.140000000007,
      "d": 256.4095000000016,
      "v": 89
    },
    {
      "midi": 63,
      "hit": false,
      "t": 30769.140000000123,
      "d": 128.2047500000008,
      "v": 75
    },
    {
      "midi": 66,
      "hit": false,
      "t": 30769.140000000123,
      "d": 128.2047500000008,
      "v": 78
    },
    {
      "midi": 63,
      "hit": false,
      "t": 31538.368500000124,
      "d": 128.2047500000008,
      "v": 79
    },
    {
      "midi": 66,
      "hit": false,
      "t": 31538.368500000124,
      "d": 128.2047500000008,
      "v": 79
    },
    {
      "midi": 64,
      "hit": false,
      "t": 31666.573250000125,
      "d": 128.2047500000008,
      "v": 71
    },
    {
      "midi": 67,
      "hit": false,
      "t": 31666.573250000125,
      "d": 128.2047500000008,
      "v": 80
    },
    {
      "midi": 66,
      "hit": false,
      "t": 31794.778000000126,
      "d": 128.2047500000008,
      "v": 78
    },
    {
      "midi": 69,
      "hit": false,
      "t": 31794.778000000126,
      "d": 128.2047500000008,
      "v": 81
    },
    {
      "midi": 64,
      "hit": false,
      "t": 31922.982750000127,
      "d": 128.2047500000008,
      "v": 75
    },
    {
      "midi": 67,
      "hit": false,
      "t": 31922.982750000127,
      "d": 128.2047500000008,
      "v": 75
    },
    {
      "midi": 63,
      "hit": false,
      "t": 32051.187500000127,
      "d": 128.2047500000008,
      "v": 71
    },
    {
      "midi": 66,
      "hit": false,
      "t": 32051.187500000127,
      "d": 128.2047500000008,
      "v": 80
    },
    {
      "midi": 64,
      "hit": false,
      "t": 32179.392250000128,
      "d": 128.2047500000008,
      "v": 72
    },
    {
      "midi": 67,
      "hit": false,
      "t": 32179.392250000128,
      "d": 128.2047500000008,
      "v": 73
    },
    {
      "midi": 66,
      "hit": false,
      "t": 32307.59700000013,
      "d": 128.2047500000008,
      "v": 74
    },
    {
      "midi": 69,
      "hit": false,
      "t": 32307.59700000013,
      "d": 128.2047500000008,
      "v": 79
    },
    {
      "midi": 64,
      "hit": false,
      "t": 32435.80175000013,
      "d": 128.2047500000008,
      "v": 79
    },
    {
      "midi": 67,
      "hit": false,
      "t": 32435.80175000013,
      "d": 128.2047500000008,
      "v": 81
    },
    {
      "midi": 63,
      "hit": false,
      "t": 32564.00650000013,
      "d": 128.2047500000008,
      "v": 79
    },
    {
      "midi": 66,
      "hit": false,
      "t": 32564.00650000013,
      "d": 128.2047500000008,
      "v": 81
    },
    {
      "midi": 64,
      "hit": false,
      "t": 32692.21125000013,
      "d": 128.20474999999715,
      "v": 76
    },
    {
      "midi": 67,
      "hit": false,
      "t": 32692.21125000013,
      "d": 128.20474999999715,
      "v": 79
    },
    {
      "midi": 63,
      "hit": false,
      "t": 32820.41600000013,
      "d": 128.20474999999715,
      "v": 73
    },
    {
      "midi": 66,
      "hit": false,
      "t": 32820.41600000013,
      "d": 128.20474999999715,
      "v": 78
    },
    {
      "midi": 60,
      "hit": false,
      "t": 32948.620750000126,
      "d": 128.20474999999715,
      "v": 79
    },
    {
      "midi": 69,
      "hit": false,
      "t": 32948.620750000126,
      "d": 128.20474999999715,
      "v": 80
    },
    {
      "midi": 59,
      "hit": false,
      "t": 33076.82550000012,
      "d": 128.20474999999715,
      "v": 79
    },
    {
      "midi": 67,
      "hit": false,
      "t": 33076.82550000012,
      "d": 128.20474999999715,
      "v": 79
    },
    {
      "midi": 57,
      "hit": false,
      "t": 33205.03025000012,
      "d": 128.20474999999715,
      "v": 75
    },
    {
      "midi": 66,
      "hit": false,
      "t": 33205.03025000012,
      "d": 128.20474999999715,
      "v": 75
    },
    {
      "midi": 55,
      "hit": false,
      "t": 33333.23500000012,
      "d": 128.20474999999715,
      "v": 79
    },
    {
      "midi": 64,
      "hit": false,
      "t": 33333.23500000012,
      "d": 128.20474999999715,
      "v": 74
    },
    {
      "midi": 57,
      "hit": false,
      "t": 33461.439750000114,
      "d": 128.20474999999715,
      "v": 75
    },
    {
      "midi": 60,
      "hit": false,
      "t": 33461.439750000114,
      "d": 128.20474999999715,
      "v": 91
    },
    {
      "midi": 55,
      "hit": false,
      "t": 33589.64450000011,
      "d": 128.20474999999715,
      "v": 75
    },
    {
      "midi": 59,
      "hit": false,
      "t": 33589.64450000011,
      "d": 128.20474999999715,
      "v": 80
    },
    {
      "midi": 54,
      "hit": false,
      "t": 33717.84925000011,
      "d": 128.20474999999715,
      "v": 74
    },
    {
      "midi": 57,
      "hit": false,
      "t": 33717.84925000011,
      "d": 128.20474999999715,
      "v": 79
    },
    {
      "midi": 52,
      "hit": false,
      "t": 33846.054000000106,
      "d": 256.4095000000016,
      "v": 81
    },
    {
      "midi": 55,
      "hit": false,
      "t": 33846.054000000106,
      "d": 256.4095000000016,
      "v": 76
    }
  ]
}