{
  "jsonPath": "Animes/Soul Hunter MIDI Collection/friends-ending.json",
  "path": "Animes\\Soul Hunter MIDI Collection\\Friends (Ending).mid",
  "name": "Friends (Ending)",
  "difficulty": "Advanced",
  "bpm": 80,
  "notes": [
    {
      "midi": 52,
      "hit": false,
      "t": 187.5,
      "d": 195.3125,
      "v": 83
    },
    {
      "midi": 59,
      "hit": false,
      "t": 375,
      "d": 195.3125,
      "v": 83
    },
    {
      "midi": 66,
      "hit": false,
      "t": 562.5,
      "d": 382.8125,
      "v": 83
    },
    {
      "midi": 64,
      "hit": false,
      "t": 937.5,
      "d": 195.3125,
      "v": 83
    },
    {
      "midi": 59,
      "hit": false,
      "t": 1125,
      "d": 390.625,
      "v": 83
    },
    {
      "midi": 47,
      "hit": false,
      "t": 1500,
      "d": 1350,
      "v": 83
    },
    {
      "midi": 51,
      "hit": false,
      "t": 1687.5,
      "d": 195.3125,
      "v": 83
    },
    {
      "midi": 54,
      "hit": false,
      "t": 1875,
      "d": 195.3125,
      "v": 83
    },
    {
      "midi": 59,
      "hit": false,
      "t": 2062.5,
      "d": 356.25,
      "v": 83
    },
    {
      "midi": 63,
      "hit": false,
      "t": 2437.5,
      "d": 412.5,
      "v": 83
    },
    {
      "midi": 45,
      "hit": false,
      "t": 3000,
      "d": 2700,
      "v": 83
    },
    {
      "midi": 52,
      "hit": false,
      "t": 3187.5,
      "d": 168.75,
      "v": 83
    },
    {
      "midi": 59,
      "hit": false,
      "t": 3375,
      "d": 168.75,
      "v": 83
    },
    {
      "midi": 61,
      "hit": false,
      "t": 3562.5,
      "d": 356.25,
      "v": 83
    },
    {
      "midi": 59,
      "hit": false,
      "t": 3937.5,
      "d": 168.75,
      "v": 83
    },
    {
      "midi": 52,
      "hit": false,
      "t": 4125,
      "d": 1725,
      "v": 83
    },
    {
      "midi": 76,
      "hit": false,
      "t": 6000,
      "d": 1012.5,
      "v": 100
    },
    {
      "midi": 68,
      "hit": false,
      "t": 6000,
      "d": 1350,
      "v": 100
    },
    {
      "midi": 52,
      "hit": false,
      "t": 6187.5,
      "d": 168.75,
      "v": 80
    },
    {
      "midi": 59,
      "hit": false,
      "t": 6375,
      "d": 168.75,
      "v": 80
    },
    {
      "midi": 66,
      "hit": false,
      "t": 6562.5,
      "d": 356.25,
      "v": 80
    },
    {
      "midi": 64,
      "hit": false,
      "t": 6937.5,
      "d": 168.75,
      "v": 80
    },
    {
      "midi": 75,
      "hit": false,
      "t": 7125,
      "d": 168.75,
      "v": 100
    },
    {
      "midi": 59,
      "hit": false,
      "t": 7125,
      "d": 337.5,
      "v": 80
    },
    {
      "midi": 76,
      "hit": false,
      "t": 7312.5,
      "d": 168.75,
      "v": 100
    },
    {
      "midi": 78,
      "hit": false,
      "t": 7500,
      "d": 675,
      "v": 100
    },
    {
      "midi": 75,
      "hit": false,
      "t": 7500,
      "d": 1350,
      "v": 100
    },
    {
      "midi": 71,
      "hit": false,
      "t": 7500,
      "d": 1350,
      "v": 100
    },
    {
      "midi": 47,
      "hit": false,
      "t": 7500,
      "d": 1350,
      "v": 100
    },
    {
      "midi": 51,
      "hit": false,
      "t": 7687.5,
      "d": 168.75,
      "v": 80
    },
    {
      "midi": 54,
      "hit": false,
      "t": 7875,
      "d": 168.75,
      "v": 80
    },
    {
      "midi": 59,
      "hit": false,
      "t": 8062.5,
      "d": 356.25,
      "v": 80
    },
    {
      "midi": 83,
      "hit": false,
      "t": 8250,
      "d": 675,
      "v": 100
    },
    {
      "midi": 63,
      "hit": false,
      "t": 8437.5,
      "d": 525,
      "v": 80
    },
    {
      "midi": 73,
      "hit": false,
      "t": 9000,
      "d": 1012.5,
      "v": 100
    },
    {
      "midi": 83,
      "hit": false,
      "t": 9000,
      "d": 2700,
      "v": 100
    },
    {
      "midi": 76,
      "hit": false,
      "t": 9000,
      "d": 2700,
      "v": 100
    },
    {
      "midi": 45,
      "hit": false,
      "t": 9000,
      "d": 2700,
      "v": 100
    },
    {
      "midi": 52,
      "hit": false,
      "t": 9187.5,
      "d": 168.75,
      "v": 80
    },
    {
      "midi": 59,
      "hit": false,
      "t": 9375,
      "d": 168.75,
      "v": 80
    },
    {
      "midi": 61,
      "hit": false,
      "t": 9562.5,
      "d": 356.25,
      "v": 80
    },
    {
      "midi": 59,
      "hit": false,
      "t": 9937.5,
      "d": 168.75,
      "v": 80
    },
    {
      "midi": 71,
      "hit": false,
      "t": 10125,
      "d": 337.5,
      "v": 100
    },
    {
      "midi": 52,
      "hit": false,
      "t": 10125,
      "d": 1725,
      "v": 80
    },
    {
      "midi": 69,
      "hit": false,
      "t": 10500,
      "d": 1350,
      "v": 100
    },
    {
      "midi": 52,
      "hit": false,
      "t": 12000,
      "d": 337.5,
      "v": 100
    },
    {
      "midi": 56,
      "hit": false,
      "t": 12000,
      "d": 1350,
      "v": 100
    },
    {
      "midi": 59,
      "hit": false,
      "t": 12375,
      "d": 168.75,
      "v": 100
    },
    {
      "midi": 66,
      "hit": false,
      "t": 12562.5,
      "d": 356.25,
      "v": 100
    },
    {
      "midi": 42,
      "hit": false,
      "t": 12750,
      "d": 15.625,
      "v": 100
    },
    {
      "midi": 59,
      "hit": false,
      "t": 12937.5,
      "d": 168.75,
      "v": 100
    },
    {
      "midi": 64,
      "hit": false,
      "t": 12937.5,
      "d": 168.75,
      "v": 100
    },
    {
      "midi": 61,
      "hit": false,
      "t": 13125,
      "d": 168.75,
      "v": 100
    },
    {
      "midi": 59,
      "hit": false,
      "t": 13125,
      "d": 225,
      "v": 100
    },
    {
      "midi": 63,
      "hit": false,
      "t": 13312.5,
      "d": 168.75,
      "v": 100
    },
    {
      "midi": 64,
      "hit": false,
      "t": 13500,
      "d": 337.5,
      "v": 100
    },
    {
      "midi": 52,
      "hit": false,
      "t": 13500,
      "d": 337.5,
      "v": 100
    },
    {
      "midi": 49,
      "hit": false,
      "t": 13500,
      "d": 1350,
      "v": 100
    },
    {
      "midi": 63,
      "hit": false,
      "t": 13875,
      "d": 168.75,
      "v": 100
    },
    {
      "midi": 56,
      "hit": false,
      "t": 13875,
      "d": 337.5,
      "v": 100
    },
    {
      "midi": 64,
      "hit": false,
      "t": 14062.5,
      "d": 356.25,
      "v": 100
    },
    {
      "midi": 42,
      "hit": false,
      "t": 14250,
      "d": 15.625,
      "v": 100
    },
    {
      "midi": 59,
      "hit": false,
      "t": 14250,
      "d": 337.5,
      "v": 100
    },
    {
      "midi": 68,
      "hit": false,
      "t": 14437.5,
      "d": 525,
      "v": 100
    },
    {
      "midi": 54,
      "hit": false,
      "t": 15000,
      "d": 337.5,
      "v": 100
    },
    {
      "midi": 61,
      "hit": false,
      "t": 15000,
      "d": 918.75,
      "v": 100
    },
    {
      "midi": 52,
      "hit": false,
      "t": 15000,
      "d": 1350,
      "v": 100
    },
    {
      "midi": 57,
      "hit": false,
      "t": 15375,
      "d": 168.75,
      "v": 100
    },
    {
      "midi": 64,
      "hit": false,
      "t": 15562.5,
      "d": 356.25,
      "v": 100
    },
    {
      "midi": 42,
      "hit": false,
      "t": 15750,
      "d": 15.625,
      "v": 100
    },
    {
      "midi": 57,
      "hit": false,
      "t": 15937.5,
      "d": 168.75,
      "v": 100
    },
    {
      "midi": 61,
      "hit": false,
      "t": 16125,
      "d": 168.75,
      "v": 100
    },
    {
      "midi": 56,
      "hit": false,
      "t": 16125,
      "d": 168.75,
      "v": 100
    },
    {
      "midi": 57,
      "hit": false,
      "t": 16312.5,
      "d": 37.5,
      "v": 100
    },
    {
      "midi": 64,
      "hit": false,
      "t": 16312.5,
      "d": 168.75,
      "v": 100
    },
    {
      "midi": 63,
      "hit": false,
      "t": 16500,
      "d": 675,
      "v": 100
    },
    {
      "midi": 59,
      "hit": false,
      "t": 16500,
      "d": 675,
      "v": 100
    },
    {
      "midi": 54,
      "hit": false,
      "t": 16500,
      "d": 675,
      "v": 100
    },
    {
      "midi": 47,
      "hit": false,
      "t": 16500,
      "d": 675,
      "v": 100
    },
    {
      "midi": 42,
      "hit": false,
      "t": 17250,
      "d": 15.625,
      "v": 100
    },
    {
      "midi": 61,
      "hit": false,
      "t": 17250,
      "d": 543.75,
      "v": 100
    },
    {
      "midi": 54,
      "hit": false,
      "t": 17250,
      "d": 675,
      "v": 100
    },
    {
      "midi": 57,
      "hit": false,
      "t": 17250,
      "d": 675,
      "v": 100
    },
    {
      "midi": 45,
      "hit": false,
      "t": 17250,
      "d": 675,
      "v": 100
    },
    {
      "midi": 51,
      "hit": false,
      "t": 18000,
      "d": 337.5,
      "v": 100
    },
    {
      "midi": 44,
      "hit": false,
      "t": 18000,
      "d": 1350,
      "v": 100
    },
    {
      "midi": 54,
      "hit": false,
      "t": 18375,
      "d": 168.75,
      "v": 100
    },
    {
      "midi": 59,
      "hit": false,
      "t": 18562.5,
      "d": 356.25,
      "v": 100
    },
    {
      "midi": 42,
      "hit": false,
      "t": 18750,
      "d": 15.625,
      "v": 100
    },
    {
      "midi": 56,
      "hit": false,
      "t": 18937.5,
      "d": 168.75,
      "v": 100
    },
    {
      "midi": 63,
      "hit": false,
      "t": 18937.5,
      "d": 412.5,
      "v": 100
    },
    {
      "midi": 59,
      "hit": false,
      "t": 19125,
      "d": 168.75,
      "v": 100
    },
    {
      "midi": 66,
      "hit": false,
      "t": 19312.5,
      "d": 168.75,
      "v": 100
    },
    {
      "midi": 64,
      "hit": false,
      "t": 19500,
      "d": 337.5,
      "v": 100
    },
    {
      "midi": 52,
      "hit": false,
      "t": 19500,
      "d": 337.5,
      "v": 100
    },
    {
      "midi": 61,
      "hit": false,
      "t": 19500,
      "d": 1350,
      "v": 100
    },
    {
      "midi": 49,
      "hit": false,
      "t": 19500,
      "d": 1350,
      "v": 100
    },
    {
      "midi": 63,
      "hit": false,
      "t": 19875,
      "d": 168.75,
      "v": 100
    },
    {
      "midi": 56,
      "hit": false,
      "t": 19875,
      "d": 337.5,
      "v": 100
    },
    {
      "midi": 64,
      "hit": false,
      "t": 20062.5,
      "d": 356.25,
      "v": 100
    },
    {
      "midi": 42,
      "hit": false,
      "t": 20250,
      "d": 15.625,
      "v": 100
    },
    {
      "midi": 59,
      "hit": false,
      "t": 20250,
      "d": 337.5,
      "v": 100
    },
    {
      "midi": 56,
      "hit": false,
      "t": 20437.5,
      "d": 356.25,
      "v": 100
    },
    {
      "midi": 57,
      "hit": false,
      "t": 20812.5,
      "d": 168.75,
      "v": 100
    },
    {
      "midi": 59,
      "hit": false,
      "t": 21000,
      "d": 337.5,
      "v": 100
    },
    {
      "midi": 54,
      "hit": false,
      "t": 21000,
      "d": 337.5,
      "v": 100
    },
    {
      "midi": 61,
      "hit": false,
      "t": 21375,
      "d": 168.75,
      "v": 100
    },
    {
      "midi": 57,
      "hit": false,
      "t": 21375,
      "d": 168.75,
      "v": 100
    },
    {
      "midi": 57,
      "hit": false,
      "t": 21562.5,
      "d": 356.25,
      "v": 100
    },
    {
      "midi": 64,
      "hit": false,
      "t": 21562.5,
      "d": 356.25,
      "v": 100
    },
    {
      "midi": 42,
      "hit": false,
      "t": 21750,
      "d": 15.625,
      "v": 100
    },
    {
      "midi": 57,
      "hit": false,
      "t": 21937.5,
      "d": 168.75,
      "v": 100
    },
    {
      "midi": 56,
      "hit": false,
      "t": 22125,
      "d": 168.75,
      "v": 100
    },
    {
      "midi": 57,
      "hit": false,
      "t": 22312.5,
      "d": 37.5,
      "v": 100
    },
    {
      "midi": 54,
      "hit": false,
      "t": 22312.5,
      "d": 37.5,
      "v": 100
    },
    {
      "midi": 59,
      "hit": false,
      "t": 22500,
      "d": 675,
      "v": 100
    },
    {
      "midi": 57,
      "hit": false,
      "t": 22500,
      "d": 675,
      "v": 100
    },
    {
      "midi": 64,
      "hit": false,
      "t": 22500,
      "d": 675,
      "v": 100
    },
    {
      "midi": 54,
      "hit": false,
      "t": 22500,
      "d": 675,
      "v": 100
    },
    {
      "midi": 47,
      "hit": false,
      "t": 22500,
      "d": 675,
      "v": 100
    },
    {
      "midi": 42,
      "hit": false,
      "t": 23250,
      "d": 15.625,
      "v": 100
    },
    {
      "midi": 54,
      "hit": false,
      "t": 23250,
      "d": 600,
      "v": 100
    },
    {
      "midi": 59,
      "hit": false,
      "t": 23250,
      "d": 675,
      "v": 100
    },
    {
      "midi": 57,
      "hit": false,
      "t": 23250,
      "d": 675,
      "v": 100
    },
    {
      "midi": 63,
      "hit": false,
      "t": 23250,
      "d": 675,
      "v": 100
    },
    {
      "midi": 47,
      "hit": false,
      "t": 23250,
      "d": 675,
      "v": 100
    },
    {
      "midi": 52,
      "hit": false,
      "t": 24000,
      "d": 337.5,
      "v": 100
    },
    {
      "midi": 56,
      "hit": false,
      "t": 24000,
      "d": 1350,
      "v": 100
    },
    {
      "midi": 59,
      "hit": false,
      "t": 24375,
      "d": 168.75,
      "v": 100
    },
    {
      "midi": 66,
      "hit": false,
      "t": 24562.5,
      "d": 356.25,
      "v": 100
    },
    {
      "midi": 42,
      "hit": false,
      "t": 24750,
      "d": 15.625,
      "v": 100
    },
    {
      "midi": 59,
      "hit": false,
      "t": 24937.5,
      "d": 168.75,
      "v": 100
    },
    {
      "midi": 64,
      "hit": false,
      "t": 24937.5,
      "d": 168.75,
      "v": 100
    },
    {
      "midi": 61,
      "hit": false,
      "t": 25125,
      "d": 168.75,
      "v": 100
    },
    {
      "midi": 59,
      "hit": false,
      "t": 25125,
      "d": 225,
      "v": 100
    },
    {
      "midi": 63,
      "hit": false,
      "t": 25312.5,
      "d": 168.75,
      "v": 100
    },
    {
      "midi": 64,
      "hit": false,
      "t": 25500,
      "d": 337.5,
      "v": 100
    },
    {
      "midi": 52,
      "hit": false,
      "t": 25500,
      "d": 337.5,
      "v": 100
    },
    {
      "midi": 49,
      "hit": false,
      "t": 25500,
      "d": 1350,
      "v": 100
    },
    {
      "midi": 63,
      "hit": false,
      "t": 25875,
      "d": 168.75,
      "v": 100
    },
    {
      "midi": 56,
      "hit": false,
      "t": 25875,
      "d": 337.5,
      "v": 100
    },
    {
      "midi": 64,
      "hit": false,
      "t": 26062.5,
      "d": 356.25,
      "v": 100
    },
    {
      "midi": 42,
      "hit": false,
      "t": 26250,
      "d": 15.625,
      "v": 100
    },
    {
      "midi": 59,
      "hit": false,
      "t": 26250,
      "d": 337.5,
      "v": 100
    },
    {
      "midi": 68,
      "hit": false,
      "t": 26437.5,
      "d": 525,
      "v": 100
    },
    {
      "midi": 54,
      "hit": false,
      "t": 27000,
      "d": 337.5,
      "v": 100
    },
    {
      "midi": 61,
      "hit": false,
      "t": 27000,
      "d": 918.75,
      "v": 100
    },
    {
      "midi": 52,
      "hit": false,
      "t": 27000,
      "d": 1350,
      "v": 100
    },
    {
      "midi": 57,
      "hit": false,
      "t": 27375,
      "d": 168.75,
      "v": 100
    },
    {
      "midi": 64,
      "hit": false,
      "t": 27562.5,
      "d": 356.25,
      "v": 100
    },
    {
      "midi": 42,
      "hit": false,
      "t": 27750,
      "d": 15.625,
      "v": 100
    },
    {
      "midi": 57,
      "hit": false,
      "t": 27937.5,
      "d": 168.75,
      "v": 100
    },
    {
      "midi": 61,
      "hit": false,
      "t": 28125,
      "d": 168.75,
      "v": 100
    },
    {
      "midi": 56,
      "hit": false,
      "t": 28125,
      "d": 168.75,
      "v": 100
    },
    {
      "midi": 57,
      "hit": false,
      "t": 28312.5,
      "d": 37.5,
      "v": 100
    },
    {
      "midi": 64,
      "hit": false,
      "t": 28312.5,
      "d": 168.75,
      "v": 100
    },
    {
      "midi": 69,
      "hit": false,
      "t": 28500,
      "d": 337.5,
      "v": 100
    },
    {
      "midi": 63,
      "hit": false,
      "t": 28500,
      "d": 675,
      "v": 100
    },
    {
      "midi": 54,
      "hit": false,
      "t": 28500,
      "d": 675,
      "v": 100
    },
    {
      "midi": 59,
      "hit": false,
      "t": 28500,
      "d": 675,
      "v": 100
    },
    {
      "midi": 47,
      "hit": false,
      "t": 28500,
      "d": 675,
      "v": 100
    },
    {
      "midi": 68,
      "hit": false,
      "t": 28875,
      "d": 168.75,
      "v": 100
    },
    {
      "midi": 64,
      "hit": false,
      "t": 29062.5,
      "d": 356.25,
      "v": 100
    },
    {
      "midi": 42,
      "hit": false,
      "t": 29250,
      "d": 15.625,
      "v": 100
    },
    {
      "midi": 63,
      "hit": false,
      "t": 29250,
      "d": 675,
      "v": 100
    },
    {
      "midi": 54,
      "hit": false,
      "t": 29250,
      "d": 675,
      "v": 100
    },
    {
      "midi": 57,
      "hit": false,
      "t": 29250,
      "d": 675,
      "v": 100
    },
    {
      "midi": 45,
      "hit": false,
      "t": 29250,
      "d": 675,
      "v": 100
    },
    {
      "midi": 61,
      "hit": false,
      "t": 29437.5,
      "d": 356.25,
      "v": 100
    },
    {
      "midi": 51,
      "hit": false,
      "t": 30000,
      "d": 337.5,
      "v": 100
    },
    {
      "midi": 44,
      "hit": false,
      "t": 30000,
      "d": 1350,
      "v": 100
    },
    {
      "midi": 54,
      "hit": false,
      "t": 30375,
      "d": 168.75,
      "v": 100
    },
    {
      "midi": 59,
      "hit": false,
      "t": 30562.5,
      "d": 356.25,
      "v": 100
    },
    {
      "midi": 42,
      "hit": false,
      "t": 30750,
      "d": 15.625,
      "v": 100
    },
    {
      "midi": 56,
      "hit": false,
      "t": 30937.5,
      "d": 168.75,
      "v": 100
    },
    {
      "midi": 63,
      "hit": false,
      "t": 30937.5,
      "d": 412.5,
      "v": 100
    },
    {
      "midi": 59,
      "hit": false,
      "t": 31125,
      "d": 168.75,
      "v": 100
    },
    {
      "midi": 66,
      "hit": false,
      "t": 31312.5,
      "d": 168.75,
      "v": 100
    },
    {
      "midi": 64,
      "hit": false,
      "t": 31500,
      "d": 337.5,
      "v": 100
    },
    {
      "midi": 52,
      "hit": false,
      "t": 31500,
      "d": 337.5,
      "v": 100
    },
    {
      "midi": 61,
      "hit": false,
      "t": 31500,
      "d": 1350,
      "v": 100
    },
    {
      "midi": 49,
      "hit": false,
      "t": 31500,
      "d": 1350,
      "v": 100
    },
    {
      "midi": 63,
      "hit": false,
      "t": 31875,
      "d": 168.75,
      "v": 100
    },
    {
      "midi": 56,
      "hit": false,
      "t": 31875,
      "d": 337.5,
      "v": 100
    },
    {
      "midi": 64,
      "hit": false,
      "t": 32062.5,
      "d": 356.25,
      "v": 100
    },
    {
      "midi": 42,
      "hit": false,
      "t": 32250,
      "d": 15.625,
      "v": 100
    },
    {
      "midi": 59,
      "hit": false,
      "t": 32250,
      "d": 337.5,
      "v": 100
    },
    {
      "midi": 68,
      "hit": false,
      "t": 32437.5,
      "d": 356.25,
      "v": 100
    },
    {
      "midi": 56,
      "hit": false,
      "t": 32625,
      "d": 225,
      "v": 100
    },
    {
      "midi": 71,
      "hit": false,
      "t": 32812.5,
      "d": 525,
      "v": 100
    },
    {
      "midi": 54,
      "hit": false,
      "t": 33000,
      "d": 337.5,
      "v": 100
    },
    {
      "midi": 61,
      "hit": false,
      "t": 33000,
      "d": 1350,
      "v": 100
    },
    {
      "midi": 66,
      "hit": false,
      "t": 33000,
      "d": 1350,
      "v": 100
    },
    {
      "midi": 57,
      "hit": false,
      "t": 33375,
      "d": 168.75,
      "v": 100
    },
    {
      "midi": 69,
      "hit": false,
      "t": 33375,
      "d": 337.5,
      "v": 100
    },
    {
      "midi": 64,
      "hit": false,
      "t": 33562.5,
      "d": 356.25,
      "v": 100
    },
    {
      "midi": 42,
      "hit": false,
      "t": 33750,
      "d": 15.625,
      "v": 100
    },
    {
      "midi": 69,
      "hit": false,
      "t": 33750,
      "d": 337.5,
      "v": 100
    },
    {
      "midi": 57,
      "hit": false,
      "t": 33937.5,
      "d": 168.75,
      "v": 100
    },
    {
      "midi": 56,
      "hit": false,
      "t": 34125,
      "d": 168.75,
      "v": 100
    },
    {
      "midi": 68,
      "hit": false,
      "t": 34125,
      "d": 337.5,
      "v": 100
    },
    {
      "midi": 57,
      "hit": false,
      "t": 34312.5,
      "d": 37.5,
      "v": 100
    },
    {
      "midi": 66,
      "hit": false,
      "t": 34500,
      "d": 675,
      "v": 100
    },
    {
      "midi": 59,
      "hit": false,
      "t": 34500,
      "d": 675,
      "v": 100
    },
    {
      "midi": 57,
      "hit": false,
      "t": 34500,
      "d": 675,
      "v": 100
    },
    {
      "midi": 64,
      "hit": false,
      "t": 34500,
      "d": 675,
      "v": 100
    },
    {
      "midi": 54,
      "hit": false,
      "t": 34500,
      "d": 675,
      "v": 100
    },
    {
      "midi": 47,
      "hit": false,
      "t": 34500,
      "d": 675,
      "v": 100
    },
    {
      "midi": 42,
      "hit": false,
      "t": 35250,
      "d": 15.625,
      "v": 100
    },
    {
      "midi": 68,
      "hit": false,
      "t": 35250,
      "d": 337.5,
      "v": 100
    },
    {
      "midi": 59,
      "hit": false,
      "t": 35250,
      "d": 675,
      "v": 100
    },
    {
      "midi": 57,
      "hit": false,
      "t": 35250,
      "d": 675,
      "v": 100
    },
    {
      "midi": 54,
      "hit": false,
      "t": 35250,
      "d": 675,
      "v": 100
    },
    {
      "midi": 66,
      "hit": false,
      "t": 35250,
      "d": 675,
      "v": 100
    },
    {
      "midi": 48,
      "hit": false,
      "t": 35250,
      "d": 675,
      "v": 100
    },
    {
      "midi": 63,
      "hit": false,
      "t": 35625,
      "d": 168.75,
      "v": 100
    },
    {
      "midi": 42,
      "hit": false,
      "t": 36000,
      "d": 15.625,
      "v": 80
    },
    {
      "midi": 43,
      "hit": false,
      "t": 36000,
      "d": 15.625,
      "v": 80
    },
    {
      "midi": 64,
      "hit": false,
      "t": 36000,
      "d": 337.5,
      "v": 100
    },
    {
      "midi": 56,
      "hit": false,
      "t": 36000,
      "d": 337.5,
      "v": 100
    },
    {
      "midi": 61,
      "hit": false,
      "t": 36000,
      "d": 337.5,
      "v": 100
    },
    {
      "midi": 73,
      "hit": false,
      "t": 36000,
      "d": 1350,
      "v": 100
    },
    {
      "midi": 49,
      "hit": false,
      "t": 36000,
      "d": 1350,
      "v": 100
    },
    {
      "midi": 42,
      "hit": false,
      "t": 36375,
      "d": 15.625,
      "v": 80
    },
    {
      "midi": 56,
      "hit": false,
      "t": 36375,
      "d": 168.75,
      "v": 100
    },
    {
      "midi": 61,
      "hit": false,
      "t": 36562.5,
      "d": 168.75,
      "v": 100
    },
    {
      "midi": 56,
      "hit": false,
      "t": 36562.5,
      "d": 356.25,
      "v": 100
    },
    {
      "midi": 42,
      "hit": false,
      "t": 36750,
      "d": 15.625,
      "v": 80
    },
    {
      "midi": 38,
      "hit": false,
      "t": 36750,
      "d": 15.625,
      "v": 80
    },
    {
      "midi": 61,
      "hit": false,
      "t": 36750,
      "d": 168.75,
      "v": 100
    },
    {
      "midi": 68,
      "hit": false,
      "t": 36937.5,
      "d": 150,
      "v": 100
    },
    {
      "midi": 56,
      "hit": false,
      "t": 36937.5,
      "d": 525,
      "v": 100
    },
    {
      "midi": 42,
      "hit": false,
      "t": 37125,
      "d": 15.625,
      "v": 80
    },
    {
      "midi": 61,
      "hit": false,
      "t": 37125,
      "d": 168.75,
      "v": 100
    },
    {
      "midi": 64,
      "hit": false,
      "t": 37125,
      "d": 337.5,
      "v": 100
    },
    {
      "midi": 42,
      "hit": false,
      "t": 37500,
      "d": 15.625,
      "v": 80
    },
    {
      "midi": 43,
      "hit": false,
      "t": 37500,
      "d": 15.625,
      "v": 80
    },
    {
      "midi": 66,
      "hit": false,
      "t": 37500,
      "d": 337.5,
      "v": 100
    },
    {
      "midi": 63,
      "hit": false,
      "t": 37500,
      "d": 675,
      "v": 100
    },
    {
      "midi": 75,
      "hit": false,
      "t": 37500,
      "d": 1350,
      "v": 100
    },
    {
      "midi": 56,
      "hit": false,
      "t": 37500,
      "d": 1350,
      "v": 100
    },
    {
      "midi": 51,
      "hit": false,
      "t": 37500,
      "d": 1350,
      "v": 100
    },
    {
      "midi": 42,
      "hit": false,
      "t": 37875,
      "d": 15.625,
      "v": 80
    },
    {
      "midi": 43,
      "hit": false,
      "t": 37875,
      "d": 15.625,
      "v": 80
    },
    {
      "midi": 54,
      "hit": false,
      "t": 37875,
      "d": 337.5,
      "v": 100
    },
    {
      "midi": 42,
      "hit": false,
      "t": 38250,
      "d": 15.625,
      "v": 80
    },
    {
      "midi": 38,
      "hit": false,
      "t": 38250,
      "d": 15.625,
      "v": 80
    },
    {
      "midi": 68,
      "hit": false,
      "t": 38250,
      "d": 337.5,
      "v": 100
    },
    {
      "midi": 59,
      "hit": false,
      "t": 38250,
      "d": 337.5,
      "v": 100
    },
    {
      "midi": 42,
      "hit": false,
      "t": 38625,
      "d": 15.625,
      "v": 80
    },
    {
      "midi": 63,
      "hit": false,
      "t": 38625,
      "d": 168.75,
      "v": 100
    },
    {
      "midi": 42,
      "hit": false,
      "t": 39000,
      "d": 15.625,
      "v": 80
    },
    {
      "midi": 43,
      "hit": false,
      "t": 39000,
      "d": 15.625,
      "v": 80
    },
    {
      "midi": 64,
      "hit": false,
      "t": 39000,
      "d": 337.5,
      "v": 100
    },
    {
      "midi": 52,
      "hit": false,
      "t": 39000,
      "d": 337.5,
      "v": 100
    },
    {
      "midi": 76,
      "hit": false,
      "t": 39000,
      "d": 1350,
      "v": 100
    },
    {
      "midi": 42,
      "hit": false,
      "t": 39375,
      "d": 15.625,
      "v": 80
    },
    {
      "midi": 63,
      "hit": false,
      "t": 39375,
      "d": 168.75,
      "v": 100
    },
    {
      "midi": 59,
      "hit": false,
      "t": 39375,
      "d": 168.75,
      "v": 100
    },
    {
      "midi": 64,
      "hit": false,
      "t": 39562.5,
      "d": 356.25,
      "v": 100
    },
    {
      "midi": 66,
      "hit": false,
      "t": 39562.5,
      "d": 356.25,
      "v": 100
    },
    {
      "midi": 42,
      "hit": false,
      "t": 39750,
      "d": 15.625,
      "v": 80
    },
    {
      "midi": 38,
      "hit": false,
      "t": 39750,
      "d": 15.625,
      "v": 80
    },
    {
      "midi": 64,
      "hit": false,
      "t": 39937.5,
      "d": 168.75,
      "v": 100
    },
    {
      "midi": 68,
      "hit": false,
      "t": 39937.5,
      "d": 412.5,
      "v": 100
    },
    {
      "midi": 42,
      "hit": false,
      "t": 40125,
      "d": 15.625,
      "v": 80
    },
    {
      "midi": 59,
      "hit": false,
      "t": 40125,
      "d": 225,
      "v": 100
    },
    {
      "midi": 42,
      "hit": false,
      "t": 40500,
      "d": 15.625,
      "v": 80
    },
    {
      "midi": 43,
      "hit": false,
      "t": 40500,
      "d": 15.625,
      "v": 80
    },
    {
      "midi": 82,
      "hit": false,
      "t": 40500,
      "d": 84.375,
      "v": 100
    },
    {
      "midi": 61,
      "hit": false,
      "t": 40500,
      "d": 337.5,
      "v": 100
    },
    {
      "midi": 54,
      "hit": false,
      "t": 40500,
      "d": 337.5,
      "v": 100
    },
    {
      "midi": 80,
      "hit": false,
      "t": 40593.75,
      "d": 84.375,
      "v": 100
    },
    {
      "midi": 78,
      "hit": false,
      "t": 40687.5,
      "d": 84.375,
      "v": 100
    },
    {
      "midi": 73,
      "hit": false,
      "t": 40781.25,
      "d": 84.375,
      "v": 100
    },
    {
      "midi": 42,
      "hit": false,
      "t": 40875,
      "d": 15.625,
      "v": 80
    },
    {
      "midi": 43,
      "hit": false,
      "t": 40875,
      "d": 15.625,
      "v": 80
    },
    {
      "midi": 69,
      "hit": false,
      "t": 40875,
      "d": 84.375,
      "v": 100
    },
    {
      "midi": 63,
      "hit": false,
      "t": 40875,
      "d": 168.75,
      "v": 100
    },
    {
      "midi": 56,
      "hit": false,
      "t": 40875,
      "d": 337.5,
      "v": 100
    },
    {
      "midi": 68,
      "hit": false,
      "t": 40968.75,
      "d": 84.375,
      "v": 100
    },
    {
      "midi": 66,
      "hit": false,
      "t": 41062.5,
      "d": 84.375,
      "v": 100
    },
    {
      "midi": 64,
      "hit": false,
      "t": 41062.5,
      "d": 168.75,
      "v": 100
    },
    {
      "midi": 61,
      "hit": false,
      "t": 41156.25,
      "d": 84.375,
      "v": 100
    },
    {
      "midi": 42,
      "hit": false,
      "t": 41250,
      "d": 15.625,
      "v": 80
    },
    {
      "midi": 38,
      "hit": false,
      "t": 41250,
      "d": 15.625,
      "v": 80
    },
    {
      "midi": 58,
      "hit": false,
      "t": 41250,
      "d": 337.5,
      "v": 100
    },
    {
      "midi": 61,
      "hit": false,
      "t": 41437.5,
      "d": 168.75,
      "v": 100
    },
    {
      "midi": 42,
      "hit": false,
      "t": 41625,
      "d": 15.625,
      "v": 80
    },
    {
      "midi": 63,
      "hit": false,
      "t": 41625,
      "d": 168.75,
      "v": 100
    },
    {
      "midi": 64,
      "hit": false,
      "t": 41812.5,
      "d": 168.75,
      "v": 100
    },
    {
      "midi": 42,
      "hit": false,
      "t": 42000,
      "d": 15.625,
      "v": 80
    },
    {
      "midi": 43,
      "hit": false,
      "t": 42000,
      "d": 15.625,
      "v": 80
    },
    {
      "midi": 71,
      "hit": false,
      "t": 42000,
      "d": 337.5,
      "v": 100
    },
    {
      "midi": 64,
      "hit": false,
      "t": 42000,
      "d": 337.5,
      "v": 100
    },
    {
      "midi": 42,
      "hit": false,
      "t": 42375,
      "d": 15.625,
      "v": 80
    },
    {
      "midi": 83,
      "hit": false,
      "t": 42375,
      "d": 168.75,
      "v": 100
    },
    {
      "midi": 52,
      "hit": false,
      "t": 42375,
      "d": 168.75,
      "v": 100
    },
    {
      "midi": 69,
      "hit": false,
      "t": 42375,
      "d": 337.5,
      "v": 100
    },
    {
      "midi": 81,
      "hit": false,
      "t": 42562.5,
      "d": 168.75,
      "v": 100
    },
    {
      "midi": 57,
      "hit": false,
      "t": 42562.5,
      "d": 356.25,
      "v": 100
    },
    {
      "midi": 42,
      "hit": false,
      "t": 42750,
      "d": 15.625,
      "v": 80
    },
    {
      "midi": 38,
      "hit": false,
      "t": 42750,
      "d": 15.625,
      "v": 80
    },
    {
      "midi": 76,
      "hit": false,
      "t": 42750,
      "d": 168.75,
      "v": 100
    },
    {
      "midi": 69,
      "hit": false,
      "t": 42750,
      "d": 337.5,
      "v": 100
    },
    {
      "midi": 73,
      "hit": false,
      "t": 42937.5,
      "d": 168.75,
      "v": 100
    },
    {
      "midi": 61,
      "hit": false,
      "t": 42937.5,
      "d": 412.5,
      "v": 100
    },
    {
      "midi": 42,
      "hit": false,
      "t": 43125,
      "d": 15.625,
      "v": 80
    },
    {
      "midi": 68,
      "hit": false,
      "t": 43125,
      "d": 168.75,
      "v": 100
    },
    {
      "midi": 71,
      "hit": false,
      "t": 43125,
      "d": 168.75,
      "v": 100
    },
    {
      "midi": 69,
      "hit": false,
      "t": 43312.5,
      "d": 525,
      "v": 100
    },
    {
      "midi": 42,
      "hit": false,
      "t": 43500,
      "d": 15.625,
      "v": 80
    },
    {
      "midi": 43,
      "hit": false,
      "t": 43500,
      "d": 15.625,
      "v": 80
    },
    {
      "midi": 64,
      "hit": false,
      "t": 43500,
      "d": 337.5,
      "v": 100
    },
    {
      "midi": 61,
      "hit": false,
      "t": 43500,
      "d": 1350,
      "v": 100
    },
    {
      "midi": 54,
      "hit": false,
      "t": 43500,
      "d": 1350,
      "v": 100
    },
    {
      "midi": 42,
      "hit": false,
      "t": 43875,
      "d": 15.625,
      "v": 80
    },
    {
      "midi": 43,
      "hit": false,
      "t": 43875,
      "d": 15.625,
      "v": 80
    },
    {
      "midi": 68,
      "hit": false,
      "t": 43875,
      "d": 168.75,
      "v": 100
    },
    {
      "midi": 52,
      "hit": false,
      "t": 43875,
      "d": 337.5,
      "v": 100
    },
    {
      "midi": 66,
      "hit": false,
      "t": 44062.5,
      "d": 356.25,
      "v": 100
    },
    {
      "midi": 42,
      "hit": false,
      "t": 44250,
      "d": 15.625,
      "v": 80
    },
    {
      "midi": 38,
      "hit": false,
      "t": 44250,
      "d": 15.625,
      "v": 80
    },
    {
      "midi": 57,
      "hit": false,
      "t": 44250,
      "d": 337.5,
      "v": 100
    },
    {
      "midi": 64,
      "hit": false,
      "t": 44437.5,
      "d": 356.25,
      "v": 100
    },
    {
      "midi": 42,
      "hit": false,
      "t": 44625,
      "d": 15.625,
      "v": 80
    },
    {
      "midi": 66,
      "hit": false,
      "t": 44812.5,
      "d": 2212.5,
      "v": 100
    },
    {
      "midi": 42,
      "hit": false,
      "t": 45000,
      "d": 15.625,
      "v": 80
    },
    {
      "midi": 43,
      "hit": false,
      "t": 45000,
      "d": 15.625,
      "v": 80
    },
    {
      "midi": 64,
      "hit": false,
      "t": 45000,
      "d": 337.5,
      "v": 100
    },
    {
      "midi": 59,
      "hit": false,
      "t": 45000,
      "d": 1350,
      "v": 100
    },
    {
      "midi": 42,
      "hit": false,
      "t": 45375,
      "d": 15.625,
      "v": 80
    },
    {
      "midi": 54,
      "hit": false,
      "t": 45375,
      "d": 168.75,
      "v": 100
    },
    {
      "midi": 57,
      "hit": false,
      "t": 45562.5,
      "d": 356.25,
      "v": 100
    },
    {
      "midi": 42,
      "hit": false,
      "t": 45750,
      "d": 15.625,
      "v": 80
    },
    {
      "midi": 38,
      "hit": false,
      "t": 45750,
      "d": 15.625,
      "v": 80
    },
    {
      "midi": 76,
      "hit": false,
      "t": 45750,
      "d": 337.5,
      "v": 100
    },
    {
      "midi": 61,
      "hit": false,
      "t": 45937.5,
      "d": 412.5,
      "v": 100
    },
    {
      "midi": 42,
      "hit": false,
      "t": 46125,
      "d": 15.625,
      "v": 80
    },
    {
      "midi": 75,
      "hit": false,
      "t": 46125,
      "d": 337.5,
      "v": 100
    },
    {
      "midi": 49,
      "hit": false,
      "t": 46500,
      "d": 15.625,
      "v": 80
    },
    {
      "midi": 75,
      "hit": false,
      "t": 46500,
      "d": 337.5,
      "v": 100
    },
    {
      "midi": 61,
      "hit": false,
      "t": 46500,
      "d": 675,
      "v": 100
    },
    {
      "midi": 57,
      "hit": false,
      "t": 46500,
      "d": 675,
      "v": 100
    },
    {
      "midi": 64,
      "hit": false,
      "t": 46500,
      "d": 675,
      "v": 100
    },
    {
      "midi": 54,
      "hit": false,
      "t": 46500,
      "d": 675,
      "v": 100
    },
    {
      "midi": 47,
      "hit": false,
      "t": 46500,
      "d": 675,
      "v": 100
    },
    {
      "midi": 73,
      "hit": false,
      "t": 46875,
      "d": 337.5,
      "v": 100
    },
    {
      "midi": 64,
      "hit": false,
      "t": 47250,
      "d": 337.5,
      "v": 100
    },
    {
      "midi": 73,
      "hit": false,
      "t": 47250,
      "d": 337.5,
      "v": 100
    },
    {
      "midi": 59,
      "hit": false,
      "t": 47250,
      "d": 675,
      "v": 100
    },
    {
      "midi": 57,
      "hit": false,
      "t": 47250,
      "d": 675,
      "v": 100
    },
    {
      "midi": 54,
      "hit": false,
      "t": 47250,
      "d": 675,
      "v": 100
    },
    {
      "midi": 45,
      "hit": false,
      "t": 47250,
      "d": 675,
      "v": 100
    },
    {
      "midi": 63,
      "hit": false,
      "t": 47625,
      "d": 168.75,
      "v": 100
    },
    {
      "midi": 71,
      "hit": false,
      "t": 47625,
      "d": 337.5,
      "v": 100
    },
    {
      "midi": 42,
      "hit": false,
      "t": 48000,
      "d": 15.625,
      "v": 80
    },
    {
      "midi": 43,
      "hit": false,
      "t": 48000,
      "d": 15.625,
      "v": 80
    },
    {
      "midi": 64,
      "hit": false,
      "t": 48000,
      "d": 918.75,
      "v": 100
    },
    {
      "midi": 56,
      "hit": false,
      "t": 48000,
      "d": 1350,
      "v": 100
    },
    {
      "midi": 44,
      "hit": false,
      "t": 48000,
      "d": 1350,
      "v": 100
    },
    {
      "midi": 42,
      "hit": false,
      "t": 48375,
      "d": 15.625,
      "v": 80
    },
    {
      "midi": 42,
      "hit": false,
      "t": 48750,
      "d": 15.625,
      "v": 80
    },
    {
      "midi": 38,
      "hit": false,
      "t": 48750,
      "d": 15.625,
      "v": 80
    },
    {
      "midi": 59,
      "hit": false,
      "t": 48937.5,
      "d": 168.75,
      "v": 100
    },
    {
      "midi": 42,
      "hit": false,
      "t": 49125,
      "d": 15.625,
      "v": 80
    },
    {
      "midi": 64,
      "hit": false,
      "t": 49125,
      "d": 168.75,
      "v": 100
    },
    {
      "midi": 68,
      "hit": false,
      "t": 49312.5,
      "d": 168.75,
      "v": 100
    },
    {
      "midi": 42,
      "hit": false,
      "t": 49500,
      "d": 15.625,
      "v": 80
    },
    {
      "midi": 43,
      "hit": false,
      "t": 49500,
      "d": 15.625,
      "v": 80
    },
    {
      "midi": 66,
      "hit": false,
      "t": 49500,
      "d": 337.5,
      "v": 100
    },
    {
      "midi": 57,
      "hit": false,
      "t": 49500,
      "d": 1350,
      "v": 100
    },
    {
      "midi": 45,
      "hit": false,
      "t": 49500,
      "d": 1350,
      "v": 100
    },
    {
      "midi": 42,
      "hit": false,
      "t": 49875,
      "d": 15.625,
      "v": 80
    },
    {
      "midi": 43,
      "hit": false,
      "t": 49875,
      "d": 15.625,
      "v": 80
    },
    {
      "midi": 64,
      "hit": false,
      "t": 49875,
      "d": 168.75,
      "v": 100
    },
    {
      "midi": 63,
      "hit": false,
      "t": 50062.5,
      "d": 356.25,
      "v": 100
    },
    {
      "midi": 42,
      "hit": false,
      "t": 50250,
      "d": 15.625,
      "v": 80
    },
    {
      "midi": 38,
      "hit": false,
      "t": 50250,
      "d": 15.625,
      "v": 80
    },
    {
      "midi": 61,
      "hit": false,
      "t": 50437.5,
      "d": 356.25,
      "v": 100
    },
    {
      "midi": 42,
      "hit": false,
      "t": 50625,
      "d": 15.625,
      "v": 80
    },
    {
      "midi": 42,
      "hit": false,
      "t": 51000,
      "d": 15.625,
      "v": 80
    },
    {
      "midi": 43,
      "hit": false,
      "t": 51000,
      "d": 15.625,
      "v": 80
    },
    {
      "midi": 63,
      "hit": false,
      "t": 51000,
      "d": 918.75,
      "v": 100
    },
    {
      "midi": 66,
      "hit": false,
      "t": 51000,
      "d": 1350,
      "v": 100
    },
    {
      "midi": 47,
      "hit": false,
      "t": 51000,
      "d": 1350,
      "v": 100
    },
    {
      "midi": 42,
      "hit": false,
      "t": 51375,
      "d": 15.625,
      "v": 80
    },
    {
      "midi": 59,
      "hit": false,
      "t": 51375,
      "d": 337.5,
      "v": 100
    },
    {
      "midi": 42,
      "hit": false,
      "t": 51750,
      "d": 15.625,
      "v": 80
    },
    {
      "midi": 38,
      "hit": false,
      "t": 51750,
      "d": 15.625,
      "v": 80
    },
    {
      "midi": 54,
      "hit": false,
      "t": 51750,
      "d": 168.75,
      "v": 100
    },
    {
      "midi": 59,
      "hit": false,
      "t": 51937.5,
      "d": 168.75,
      "v": 100
    },
    {
      "midi": 42,
      "hit": false,
      "t": 52125,
      "d": 15.625,
      "v": 80
    },
    {
      "midi": 63,
      "hit": false,
      "t": 52125,
      "d": 168.75,
      "v": 100
    },
    {
      "midi": 71,
      "hit": false,
      "t": 52312.5,
      "d": 37.5,
      "v": 100
    },
    {
      "midi": 63,
      "hit": false,
      "t": 52312.5,
      "d": 37.5,
      "v": 100
    },
    {
      "midi": 42,
      "hit": false,
      "t": 52500,
      "d": 15.625,
      "v": 80
    },
    {
      "midi": 43,
      "hit": false,
      "t": 52500,
      "d": 15.625,
      "v": 80
    },
    {
      "midi": 69,
      "hit": false,
      "t": 52500,
      "d": 675,
      "v": 100
    },
    {
      "midi": 72,
      "hit": false,
      "t": 52500,
      "d": 1350,
      "v": 100
    },
    {
      "midi": 66,
      "hit": false,
      "t": 52500,
      "d": 1350,
      "v": 100
    },
    {
      "midi": 48,
      "hit": false,
      "t": 52500,
      "d": 1350,
      "v": 100
    },
    {
      "midi": 42,
      "hit": false,
      "t": 52875,
      "d": 15.625,
      "v": 80
    },
    {
      "midi": 43,
      "hit": false,
      "t": 52875,
      "d": 15.625,
      "v": 80
    },
    {
      "midi": 60,
      "hit": false,
      "t": 52875,
      "d": 337.5,
      "v": 100
    },
    {
      "midi": 42,
      "hit": false,
      "t": 53250,
      "d": 15.625,
      "v": 80
    },
    {
      "midi": 38,
      "hit": false,
      "t": 53250,
      "d": 15.625,
      "v": 80
    },
    {
      "midi": 56,
      "hit": false,
      "t": 53250,
      "d": 337.5,
      "v": 100
    },
    {
      "midi": 42,
      "hit": false,
      "t": 53625,
      "d": 15.625,
      "v": 80
    },
    {
      "midi": 68,
      "hit": false,
      "t": 53625,
      "d": 131.25,
      "v": 100
    },
    {
      "midi": 42,
      "hit": false,
      "t": 54000,
      "d": 15.625,
      "v": 80
    },
    {
      "midi": 43,
      "hit": false,
      "t": 54000,
      "d": 15.625,
      "v": 80
    },
    {
      "midi": 69,
      "hit": false,
      "t": 54000,
      "d": 337.5,
      "v": 100
    },
    {
      "midi": 73,
      "hit": false,
      "t": 54000,
      "d": 1350,
      "v": 100
    },
    {
      "midi": 45,
      "hit": false,
      "t": 54000,
      "d": 1350,
      "v": 100
    },
    {
      "midi": 42,
      "hit": false,
      "t": 54375,
      "d": 15.625,
      "v": 80
    },
    {
      "midi": 64,
      "hit": false,
      "t": 54375,
      "d": 337.5,
      "v": 100
    },
    {
      "midi": 42,
      "hit": false,
      "t": 54750,
      "d": 15.625,
      "v": 80
    },
    {
      "midi": 38,
      "hit": false,
      "t": 54750,
      "d": 15.625,
      "v": 80
    },
    {
      "midi": 69,
      "hit": false,
      "t": 54750,
      "d": 168.75,
      "v": 100
    },
    {
      "midi": 64,
      "hit": false,
      "t": 54937.5,
      "d": 168.75,
      "v": 100
    },
    {
      "midi": 42,
      "hit": false,
      "t": 55125,
      "d": 15.625,
      "v": 80
    },
    {
      "midi": 71,
      "hit": false,
      "t": 55125,
      "d": 168.75,
      "v": 100
    },
    {
      "midi": 61,
      "hit": false,
      "t": 55125,
      "d": 168.75,
      "v": 100
    },
    {
      "midi": 57,
      "hit": false,
      "t": 55312.5,
      "d": 168.75,
      "v": 100
    },
    {
      "midi": 68,
      "hit": false,
      "t": 55312.5,
      "d": 862.5,
      "v": 100
    },
    {
      "midi": 42,
      "hit": false,
      "t": 55500,
      "d": 15.625,
      "v": 80
    },
    {
      "midi": 43,
      "hit": false,
      "t": 55500,
      "d": 15.625,
      "v": 80
    },
    {
      "midi": 56,
      "hit": false,
      "t": 55500,
      "d": 1350,
      "v": 100
    },
    {
      "midi": 59,
      "hit": false,
      "t": 55500,
      "d": 1350,
      "v": 100
    },
    {
      "midi": 44,
      "hit": false,
      "t": 55500,
      "d": 1350,
      "v": 100
    },
    {
      "midi": 76,
      "hit": false,
      "t": 55500,
      "d": 2850,
      "v": 100
    },
    {
      "midi": 42,
      "hit": false,
      "t": 55875,
      "d": 15.625,
      "v": 80
    },
    {
      "midi": 43,
      "hit": false,
      "t": 55875,
      "d": 15.625,
      "v": 80
    },
    {
      "midi": 42,
      "hit": false,
      "t": 56250,
      "d": 15.625,
      "v": 80
    },
    {
      "midi": 38,
      "hit": false,
      "t": 56250,
      "d": 15.625,
      "v": 80
    },
    {
      "midi": 66,
      "hit": false,
      "t": 56250,
      "d": 337.5,
      "v": 100
    },
    {
      "midi": 42,
      "hit": false,
      "t": 56625,
      "d": 15.625,
      "v": 80
    },
    {
      "midi": 64,
      "hit": false,
      "t": 56625,
      "d": 225,
      "v": 100
    },
    {
      "midi": 42,
      "hit": false,
      "t": 57000,
      "d": 15.625,
      "v": 80
    },
    {
      "midi": 43,
      "hit": false,
      "t": 57000,
      "d": 15.625,
      "v": 80
    },
    {
      "midi": 68,
      "hit": false,
      "t": 57000,
      "d": 337.5,
      "v": 100
    },
    {
      "midi": 57,
      "hit": false,
      "t": 57000,
      "d": 675,
      "v": 100
    },
    {
      "midi": 61,
      "hit": false,
      "t": 57000,
      "d": 675,
      "v": 100
    },
    {
      "midi": 54,
      "hit": false,
      "t": 57000,
      "d": 675,
      "v": 100
    },
    {
      "midi": 64,
      "hit": false,
      "t": 57000,
      "d": 675,
      "v": 100
    },
    {
      "midi": 42,
      "hit": false,
      "t": 57375,
      "d": 15.625,
      "v": 80
    },
    {
      "midi": 69,
      "hit": false,
      "t": 57375,
      "d": 168.75,
      "v": 100
    },
    {
      "midi": 71,
      "hit": false,
      "t": 57562.5,
      "d": 356.25,
      "v": 100
    },
    {
      "midi": 42,
      "hit": false,
      "t": 57750,
      "d": 15.625,
      "v": 80
    },
    {
      "midi": 38,
      "hit": false,
      "t": 57750,
      "d": 15.625,
      "v": 80
    },
    {
      "midi": 69,
      "hit": false,
      "t": 57750,
      "d": 168.75,
      "v": 127
    },
    {
      "midi": 64,
      "hit": false,
      "t": 57937.5,
      "d": 168.75,
      "v": 127
    },
    {
      "midi": 68,
      "hit": false,
      "t": 57937.5,
      "d": 356.25,
      "v": 100
    },
    {
      "midi": 42,
      "hit": false,
      "t": 58125,
      "d": 15.625,
      "v": 80
    },
    {
      "midi": 61,
      "hit": false,
      "t": 58125,
      "d": 168.75,
      "v": 127
    },
    {
      "midi": 57,
      "hit": false,
      "t": 58312.5,
      "d": 168.75,
      "v": 127
    },
    {
      "midi": 66,
      "hit": false,
      "t": 58312.5,
      "d": 693.75,
      "v": 100
    },
    {
      "midi": 42,
      "hit": false,
      "t": 58500,
      "d": 15.625,
      "v": 80
    },
    {
      "midi": 43,
      "hit": false,
      "t": 58500,
      "d": 15.625,
      "v": 80
    },
    {
      "midi": 63,
      "hit": false,
      "t": 58500,
      "d": 675,
      "v": 100
    },
    {
      "midi": 54,
      "hit": false,
      "t": 58500,
      "d": 675,
      "v": 100
    },
    {
      "midi": 47,
      "hit": false,
      "t": 58500,
      "d": 675,
      "v": 100
    },
    {
      "midi": 75,
      "hit": false,
      "t": 58500,
      "d": 1350,
      "v": 100
    },
    {
      "midi": 42,
      "hit": false,
      "t": 58875,
      "d": 15.625,
      "v": 80
    },
    {
      "midi": 43,
      "hit": false,
      "t": 58875,
      "d": 15.625,
      "v": 80
    },
    {
      "midi": 59,
      "hit": false,
      "t": 59062.5,
      "d": 112.5,
      "v": 100
    },
    {
      "midi": 42,
      "hit": false,
      "t": 59250,
      "d": 15.625,
      "v": 80
    },
    {
      "midi": 38,
      "hit": false,
      "t": 59250,
      "d": 15.625,
      "v": 80
    },
    {
      "midi": 64,
      "hit": false,
      "t": 59250,
      "d": 337.5,
      "v": 100
    },
    {
      "midi": 61,
      "hit": false,
      "t": 59250,
      "d": 675,
      "v": 100
    },
    {
      "midi": 54,
      "hit": false,
      "t": 59250,
      "d": 675,
      "v": 100
    },
    {
      "midi": 57,
      "hit": false,
      "t": 59250,
      "d": 675,
      "v": 100
    },
    {
      "midi": 45,
      "hit": false,
      "t": 59250,
      "d": 675,
      "v": 100
    },
    {
      "midi": 42,
      "hit": false,
      "t": 59625,
      "d": 15.625,
      "v": 80
    },
    {
      "midi": 63,
      "hit": false,
      "t": 59625,
      "d": 168.75,
      "v": 100
    },
    {
      "midi": 42,
      "hit": false,
      "t": 60000,
      "d": 15.625,
      "v": 80
    },
    {
      "midi": 43,
      "hit": false,
      "t": 60000,
      "d": 15.625,
      "v": 80
    },
    {
      "midi": 64,
      "hit": false,
      "t": 60000,
      "d": 918.75,
      "v": 100
    },
    {
      "midi": 56,
      "hit": false,
      "t": 60000,
      "d": 1350,
      "v": 100
    },
    {
      "midi": 44,
      "hit": false,
      "t": 60000,
      "d": 1350,
      "v": 100
    },
    {
      "midi": 71,
      "hit": false,
      "t": 60000,
      "d": 2175,
      "v": 100
    },
    {
      "midi": 42,
      "hit": false,
      "t": 60375,
      "d": 15.625,
      "v": 80
    },
    {
      "midi": 42,
      "hit": false,
      "t": 60750,
      "d": 15.625,
      "v": 80
    },
    {
      "midi": 38,
      "hit": false,
      "t": 60750,
      "d": 15.625,
      "v": 80
    },
    {
      "midi": 59,
      "hit": false,
      "t": 60937.5,
      "d": 168.75,
      "v": 100
    },
    {
      "midi": 42,
      "hit": false,
      "t": 61125,
      "d": 15.625,
      "v": 80
    },
    {
      "midi": 64,
      "hit": false,
      "t": 61125,
      "d": 168.75,
      "v": 100
    },
    {
      "midi": 68,
      "hit": false,
      "t": 61312.5,
      "d": 168.75,
      "v": 100
    },
    {
      "midi": 42,
      "hit": false,
      "t": 61500,
      "d": 15.625,
      "v": 80
    },
    {
      "midi": 43,
      "hit": false,
      "t": 61500,
      "d": 15.625,
      "v": 80
    },
    {
      "midi": 66,
      "hit": false,
      "t": 61500,
      "d": 337.5,
      "v": 100
    },
    {
      "midi": 57,
      "hit": false,
      "t": 61500,
      "d": 1350,
      "v": 100
    },
    {
      "midi": 45,
      "hit": false,
      "t": 61500,
      "d": 1350,
      "v": 100
    },
    {
      "midi": 42,
      "hit": false,
      "t": 61875,
      "d": 15.625,
      "v": 80
    },
    {
      "midi": 43,
      "hit": false,
      "t": 61875,
      "d": 15.625,
      "v": 80
    },
    {
      "midi": 64,
      "hit": false,
      "t": 61875,
      "d": 168.75,
      "v": 100
    },
    {
      "midi": 63,
      "hit": false,
      "t": 62062.5,
      "d": 356.25,
      "v": 100
    },
    {
      "midi": 42,
      "hit": false,
      "t": 62250,
      "d": 15.625,
      "v": 80
    },
    {
      "midi": 38,
      "hit": false,
      "t": 62250,
      "d": 15.625,
      "v": 80
    },
    {
      "midi": 76,
      "hit": false,
      "t": 62250,
      "d": 337.5,
      "v": 100
    },
    {
      "midi": 61,
      "hit": false,
      "t": 62437.5,
      "d": 168.75,
      "v": 100
    },
    {
      "midi": 42,
      "hit": false,
      "t": 62625,
      "d": 15.625,
      "v": 80
    },
    {
      "midi": 63,
      "hit": false,
      "t": 62625,
      "d": 187.5,
      "v": 100
    },
    {
      "midi": 75,
      "hit": false,
      "t": 62625,
      "d": 337.5,
      "v": 100
    },
    {
      "midi": 42,
      "hit": false,
      "t": 63000,
      "d": 15.625,
      "v": 80
    },
    {
      "midi": 43,
      "hit": false,
      "t": 63000,
      "d": 15.625,
      "v": 80
    },
    {
      "midi": 63,
      "hit": false,
      "t": 63000,
      "d": 918.75,
      "v": 100
    },
    {
      "midi": 66,
      "hit": false,
      "t": 63000,
      "d": 1350,
      "v": 100
    },
    {
      "midi": 47,
      "hit": false,
      "t": 63000,
      "d": 1350,
      "v": 100
    },
    {
      "midi": 42,
      "hit": false,
      "t": 63375,
      "d": 15.625,
      "v": 80
    },
    {
      "midi": 42,
      "hit": false,
      "t": 63750,
      "d": 15.625,
      "v": 80
    },
    {
      "midi": 38,
      "hit": false,
      "t": 63750,
      "d": 15.625,
      "v": 80
    },
    {
      "midi": 59,
      "hit": false,
      "t": 63937.5,
      "d": 168.75,
      "v": 100
    },
    {
      "midi": 42,
      "hit": false,
      "t": 64125,
      "d": 15.625,
      "v": 80
    },
    {
      "midi": 63,
      "hit": false,
      "t": 64125,
      "d": 168.75,
      "v": 100
    },
    {
      "midi": 71,
      "hit": false,
      "t": 64312.5,
      "d": 37.5,
      "v": 100
    },
    {
      "midi": 42,
      "hit": false,
      "t": 64500,
      "d": 15.625,
      "v": 80
    },
    {
      "midi": 43,
      "hit": false,
      "t": 64500,
      "d": 15.625,
      "v": 80
    },
    {
      "midi": 60,
      "hit": false,
      "t": 64500,
      "d": 337.5,
      "v": 100
    },
    {
      "midi": 69,
      "hit": false,
      "t": 64500,
      "d": 675,
      "v": 100
    },
    {
      "midi": 72,
      "hit": false,
      "t": 64500,
      "d": 1350,
      "v": 100
    },
    {
      "midi": 66,
      "hit": false,
      "t": 64500,
      "d": 1350,
      "v": 100
    },
    {
      "midi": 48,
      "hit": false,
      "t": 64500,
      "d": 1350,
      "v": 100
    },
    {
      "midi": 42,
      "hit": false,
      "t": 64875,
      "d": 15.625,
      "v": 80
    },
    {
      "midi": 43,
      "hit": false,
      "t": 64875,
      "d": 15.625,
      "v": 80
    },
    {
      "midi": 56,
      "hit": false,
      "t": 64875,
      "d": 337.5,
      "v": 100
    },
    {
      "midi": 42,
      "hit": false,
      "t": 65250,
      "d": 15.625,
      "v": 80
    },
    {
      "midi": 38,
      "hit": false,
      "t": 65250,
      "d": 15.625,
      "v": 80
    },
    {
      "midi": 68,
      "hit": false,
      "t": 65250,
      "d": 337.5,
      "v": 100
    },
    {
      "midi": 42,
      "hit": false,
      "t": 65625,
      "d": 15.625,
      "v": 80
    },
    {
      "midi": 69,
      "hit": false,
      "t": 65812.5,
      "d": 937.5,
      "v": 100
    },
    {
      "midi": 42,
      "hit": false,
      "t": 66000,
      "d": 15.625,
      "v": 80
    },
    {
      "midi": 43,
      "hit": false,
      "t": 66000,
      "d": 15.625,
      "v": 80
    },
    {
      "midi": 57,
      "hit": false,
      "t": 66000,
      "d": 1350,
      "v": 100
    },
    {
      "midi": 54,
      "hit": false,
      "t": 66000,
      "d": 1350,
      "v": 100
    },
    {
      "midi": 42,
      "hit": false,
      "t": 66375,
      "d": 15.625,
      "v": 80
    },
    {
      "midi": 76,
      "hit": false,
      "t": 66375,
      "d": 168.75,
      "v": 100
    },
    {
      "midi": 75,
      "hit": false,
      "t": 66562.5,
      "d": 168.75,
      "v": 100
    },
    {
      "midi": 42,
      "hit": false,
      "t": 66750,
      "d": 15.625,
      "v": 80
    },
    {
      "midi": 38,
      "hit": false,
      "t": 66750,
      "d": 15.625,
      "v": 80
    },
    {
      "midi": 71,
      "hit": false,
      "t": 66750,
      "d": 168.75,
      "v": 100
    },
    {
      "midi": 69,
      "hit": false,
      "t": 66750,
      "d": 337.5,
      "v": 100
    },
    {
      "midi": 68,
      "hit": false,
      "t": 66937.5,
      "d": 168.75,
      "v": 100
    },
    {
      "midi": 42,
      "hit": false,
      "t": 67125,
      "d": 15.625,
      "v": 80
    },
    {
      "midi": 71,
      "hit": false,
      "t": 67125,
      "d": 168.75,
      "v": 100
    },
    {
      "midi": 64,
      "hit": false,
      "t": 67125,
      "d": 168.75,
      "v": 100
    },
    {
      "midi": 61,
      "hit": false,
      "t": 67312.5,
      "d": 37.5,
      "v": 100
    },
    {
      "midi": 68,
      "hit": false,
      "t": 67312.5,
      "d": 862.5,
      "v": 100
    },
    {
      "midi": 42,
      "hit": false,
      "t": 67500,
      "d": 15.625,
      "v": 80
    },
    {
      "midi": 43,
      "hit": false,
      "t": 67500,
      "d": 15.625,
      "v": 80
    },
    {
      "midi": 59,
      "hit": false,
      "t": 67500,
      "d": 675,
      "v": 100
    },
    {
      "midi": 63,
      "hit": false,
      "t": 67500,
      "d": 1350,
      "v": 100
    },
    {
      "midi": 56,
      "hit": false,
      "t": 67500,
      "d": 1350,
      "v": 100
    },
    {
      "midi": 44,
      "hit": false,
      "t": 67500,
      "d": 1350,
      "v": 100
    },
    {
      "midi": 42,
      "hit": false,
      "t": 67875,
      "d": 15.625,
      "v": 80
    },
    {
      "midi": 43,
      "hit": false,
      "t": 67875,
      "d": 15.625,
      "v": 80
    },
    {
      "midi": 42,
      "hit": false,
      "t": 68250,
      "d": 15.625,
      "v": 80
    },
    {
      "midi": 38,
      "hit": false,
      "t": 68250,
      "d": 15.625,
      "v": 80
    },
    {
      "midi": 66,
      "hit": false,
      "t": 68250,
      "d": 337.5,
      "v": 100
    },
    {
      "midi": 68,
      "hit": false,
      "t": 68250,
      "d": 675,
      "v": 100
    },
    {
      "midi": 42,
      "hit": false,
      "t": 68625,
      "d": 15.625,
      "v": 80
    },
    {
      "midi": 64,
      "hit": false,
      "t": 68625,
      "d": 337.5,
      "v": 100
    },
    {
      "midi": 42,
      "hit": false,
      "t": 69000,
      "d": 15.625,
      "v": 80
    },
    {
      "midi": 43,
      "hit": false,
      "t": 69000,
      "d": 15.625,
      "v": 80
    },
    {
      "midi": 68,
      "hit": false,
      "t": 69000,
      "d": 337.5,
      "v": 100
    },
    {
      "midi": 61,
      "hit": false,
      "t": 69000,
      "d": 1350,
      "v": 100
    },
    {
      "midi": 45,
      "hit": false,
      "t": 69000,
      "d": 1350,
      "v": 100
    },
    {
      "midi": 71,
      "hit": false,
      "t": 69000,
      "d": 2025,
      "v": 100
    },
    {
      "midi": 42,
      "hit": false,
      "t": 69375,
      "d": 15.625,
      "v": 80
    },
    {
      "midi": 69,
      "hit": false,
      "t": 69375,
      "d": 168.75,
      "v": 100
    },
    {
      "midi": 66,
      "hit": false,
      "t": 69562.5,
      "d": 356.25,
      "v": 100
    },
    {
      "midi": 52,
      "hit": false,
      "t": 69562.5,
      "d": 356.25,
      "v": 100
    },
    {
      "midi": 42,
      "hit": false,
      "t": 69750,
      "d": 15.625,
      "v": 80
    },
    {
      "midi": 38,
      "hit": false,
      "t": 69750,
      "d": 15.625,
      "v": 80
    },
    {
      "midi": 64,
      "hit": false,
      "t": 69937.5,
      "d": 356.25,
      "v": 100
    },
    {
      "midi": 57,
      "hit": false,
      "t": 69937.5,
      "d": 412.5,
      "v": 100
    },
    {
      "midi": 42,
      "hit": false,
      "t": 70125,
      "d": 15.625,
      "v": 80
    },
    {
      "midi": 42,
      "hit": false,
      "t": 70500,
      "d": 15.625,
      "v": 80
    },
    {
      "midi": 43,
      "hit": false,
      "t": 70500,
      "d": 15.625,
      "v": 80
    },
    {
      "midi": 66,
      "hit": false,
      "t": 70500,
      "d": 675,
      "v": 100
    },
    {
      "midi": 63,
      "hit": false,
      "t": 70500,
      "d": 675,
      "v": 100
    },
    {
      "midi": 59,
      "hit": false,
      "t": 70500,
      "d": 675,
      "v": 100
    },
    {
      "midi": 47,
      "hit": false,
      "t": 70500,
      "d": 675,
      "v": 100
    },
    {
      "midi": 42,
      "hit": false,
      "t": 70875,
      "d": 15.625,
      "v": 80
    },
    {
      "midi": 43,
      "hit": false,
      "t": 70875,
      "d": 15.625,
      "v": 80
    },
    {
      "midi": 42,
      "hit": false,
      "t": 71250,
      "d": 15.625,
      "v": 80
    },
    {
      "midi": 38,
      "hit": false,
      "t": 71250,
      "d": 15.625,
      "v": 80
    },
    {
      "midi": 68,
      "hit": false,
      "t": 71250,
      "d": 337.5,
      "v": 100
    },
    {
      "midi": 72,
      "hit": false,
      "t": 71250,
      "d": 675,
      "v": 100
    },
    {
      "midi": 60,
      "hit": false,
      "t": 71250,
      "d": 675,
      "v": 100
    },
    {
      "midi": 66,
      "hit": false,
      "t": 71250,
      "d": 675,
      "v": 100
    },
    {
      "midi": 48,
      "hit": false,
      "t": 71250,
      "d": 675,
      "v": 100
    },
    {
      "midi": 42,
      "hit": false,
      "t": 71625,
      "d": 15.625,
      "v": 80
    },
    {
      "midi": 63,
      "hit": false,
      "t": 71625,
      "d": 168.75,
      "v": 100
    },
    {
      "midi": 42,
      "hit": false,
      "t": 72000,
      "d": 15.625,
      "v": 80
    },
    {
      "midi": 43,
      "hit": false,
      "t": 72000,
      "d": 15.625,
      "v": 80
    },
    {
      "midi": 64,
      "hit": false,
      "t": 72000,
      "d": 675,
      "v": 100
    },
    {
      "midi": 73,
      "hit": false,
      "t": 72000,
      "d": 1350,
      "v": 100
    },
    {
      "midi": 49,
      "hit": false,
      "t": 72000,
      "d": 1350,
      "v": 100
    },
    {
      "midi": 42,
      "hit": false,
      "t": 72375,
      "d": 15.625,
      "v": 80
    },
    {
      "midi": 42,
      "hit": false,
      "t": 72750,
      "d": 15.625,
      "v": 80
    },
    {
      "midi": 38,
      "hit": false,
      "t": 72750,
      "d": 15.625,
      "v": 80
    },
    {
      "midi": 68,
      "hit": false,
      "t": 72750,
      "d": 337.5,
      "v": 100
    },
    {
      "midi": 42,
      "hit": false,
      "t": 73125,
      "d": 15.625,
      "v": 80
    },
    {
      "midi": 61,
      "hit": false,
      "t": 73125,
      "d": 168.75,
      "v": 100
    },
    {
      "midi": 63,
      "hit": false,
      "t": 73312.5,
      "d": 862.5,
      "v": 100
    },
    {
      "midi": 42,
      "hit": false,
      "t": 73500,
      "d": 15.625,
      "v": 80
    },
    {
      "midi": 43,
      "hit": false,
      "t": 73500,
      "d": 15.625,
      "v": 80
    },
    {
      "midi": 75,
      "hit": false,
      "t": 73500,
      "d": 1350,
      "v": 100
    },
    {
      "midi": 60,
      "hit": false,
      "t": 73500,
      "d": 1350,
      "v": 100
    },
    {
      "midi": 48,
      "hit": false,
      "t": 73500,
      "d": 1350,
      "v": 100
    },
    {
      "midi": 42,
      "hit": false,
      "t": 73875,
      "d": 15.625,
      "v": 80
    },
    {
      "midi": 43,
      "hit": false,
      "t": 73875,
      "d": 15.625,
      "v": 80
    },
    {
      "midi": 42,
      "hit": false,
      "t": 74250,
      "d": 15.625,
      "v": 80
    },
    {
      "midi": 38,
      "hit": false,
      "t": 74250,
      "d": 15.625,
      "v": 80
    },
    {
      "midi": 68,
      "hit": false,
      "t": 74250,
      "d": 337.5,
      "v": 100
    },
    {
      "midi": 42,
      "hit": false,
      "t": 74625,
      "d": 15.625,
      "v": 80
    },
    {
      "midi": 63,
      "hit": false,
      "t": 74625,
      "d": 168.75,
      "v": 100
    },
    {
      "midi": 64,
      "hit": false,
      "t": 74812.5,
      "d": 37.5,
      "v": 100
    },
    {
      "midi": 42,
      "hit": false,
      "t": 75000,
      "d": 15.625,
      "v": 80
    },
    {
      "midi": 43,
      "hit": false,
      "t": 75000,
      "d": 15.625,
      "v": 80
    },
    {
      "midi": 64,
      "hit": false,
      "t": 75000,
      "d": 337.5,
      "v": 100
    },
    {
      "midi": 59,
      "hit": false,
      "t": 75000,
      "d": 675,
      "v": 100
    },
    {
      "midi": 68,
      "hit": false,
      "t": 75000,
      "d": 675,
      "v": 100
    },
    {
      "midi": 76,
      "hit": false,
      "t": 75000,
      "d": 1350,
      "v": 100
    },
    {
      "midi": 47,
      "hit": false,
      "t": 75000,
      "d": 1350,
      "v": 100
    },
    {
      "midi": 42,
      "hit": false,
      "t": 75375,
      "d": 15.625,
      "v": 80
    },
    {
      "midi": 63,
      "hit": false,
      "t": 75375,
      "d": 337.5,
      "v": 100
    },
    {
      "midi": 42,
      "hit": false,
      "t": 75750,
      "d": 15.625,
      "v": 80
    },
    {
      "midi": 38,
      "hit": false,
      "t": 75750,
      "d": 15.625,
      "v": 80
    },
    {
      "midi": 64,
      "hit": false,
      "t": 75750,
      "d": 337.5,
      "v": 100
    },
    {
      "midi": 56,
      "hit": false,
      "t": 75750,
      "d": 337.5,
      "v": 100
    },
    {
      "midi": 42,
      "hit": false,
      "t": 76125,
      "d": 15.625,
      "v": 80
    },
    {
      "midi": 68,
      "hit": false,
      "t": 76125,
      "d": 337.5,
      "v": 100
    },
    {
      "midi": 61,
      "hit": false,
      "t": 76125,
      "d": 337.5,
      "v": 100
    },
    {
      "midi": 42,
      "hit": false,
      "t": 76500,
      "d": 15.625,
      "v": 80
    },
    {
      "midi": 43,
      "hit": false,
      "t": 76500,
      "d": 15.625,
      "v": 80
    },
    {
      "midi": 61,
      "hit": false,
      "t": 76500,
      "d": 337.5,
      "v": 100
    },
    {
      "midi": 78,
      "hit": false,
      "t": 76500,
      "d": 1350,
      "v": 100
    },
    {
      "midi": 66,
      "hit": false,
      "t": 76500,
      "d": 1350,
      "v": 100
    },
    {
      "midi": 46,
      "hit": false,
      "t": 76500,
      "d": 1350,
      "v": 100
    },
    {
      "midi": 42,
      "hit": false,
      "t": 76875,
      "d": 15.625,
      "v": 80
    },
    {
      "midi": 43,
      "hit": false,
      "t": 76875,
      "d": 15.625,
      "v": 80
    },
    {
      "midi": 63,
      "hit": false,
      "t": 76875,
      "d": 168.75,
      "v": 100
    },
    {
      "midi": 64,
      "hit": false,
      "t": 77062.5,
      "d": 168.75,
      "v": 100
    },
    {
      "midi": 42,
      "hit": false,
      "t": 77250,
      "d": 15.625,
      "v": 80
    },
    {
      "midi": 38,
      "hit": false,
      "t": 77250,
      "d": 15.625,
      "v": 80
    },
    {
      "midi": 61,
      "hit": false,
      "t": 77437.5,
      "d": 168.75,
      "v": 100
    },
    {
      "midi": 42,
      "hit": false,
      "t": 77625,
      "d": 15.625,
      "v": 80
    },
    {
      "midi": 63,
      "hit": false,
      "t": 77625,
      "d": 168.75,
      "v": 100
    },
    {
      "midi": 64,
      "hit": false,
      "t": 77812.5,
      "d": 168.75,
      "v": 100
    },
    {
      "midi": 42,
      "hit": false,
      "t": 78000,
      "d": 15.625,
      "v": 80
    },
    {
      "midi": 43,
      "hit": false,
      "t": 78000,
      "d": 15.625,
      "v": 80
    },
    {
      "midi": 71,
      "hit": false,
      "t": 78000,
      "d": 337.5,
      "v": 100
    },
    {
      "midi": 81,
      "hit": false,
      "t": 78000,
      "d": 1350,
      "v": 100
    },
    {
      "midi": 64,
      "hit": false,
      "t": 78000,
      "d": 1350,
      "v": 100
    },
    {
      "midi": 57,
      "hit": false,
      "t": 78000,
      "d": 1350,
      "v": 100
    },
    {
      "midi": 61,
      "hit": false,
      "t": 78000,
      "d": 1350,
      "v": 100
    },
    {
      "midi": 45,
      "hit": false,
      "t": 78000,
      "d": 1350,
      "v": 100
    },
    {
      "midi": 42,
      "hit": false,
      "t": 78375,
      "d": 15.625,
      "v": 80
    },
    {
      "midi": 69,
      "hit": false,
      "t": 78375,
      "d": 337.5,
      "v": 100
    },
    {
      "midi": 42,
      "hit": false,
      "t": 78750,
      "d": 15.625,
      "v": 80
    },
    {
      "midi": 38,
      "hit": false,
      "t": 78750,
      "d": 15.625,
      "v": 80
    },
    {
      "midi": 69,
      "hit": false,
      "t": 78750,
      "d": 337.5,
      "v": 100
    },
    {
      "midi": 42,
      "hit": false,
      "t": 79125,
      "d": 15.625,
      "v": 80
    },
    {
      "midi": 68,
      "hit": false,
      "t": 79125,
      "d": 168.75,
      "v": 100
    },
    {
      "midi": 49,
      "hit": false,
      "t": 79500,
      "d": 15.625,
      "v": 80
    },
    {
      "midi": 66,
      "hit": false,
      "t": 79500,
      "d": 337.5,
      "v": 100
    },
    {
      "midi": 83,
      "hit": false,
      "t": 79500,
      "d": 1350,
      "v": 100
    },
    {
      "midi": 59,
      "hit": false,
      "t": 79500,
      "d": 1350,
      "v": 100
    },
    {
      "midi": 47,
      "hit": false,
      "t": 79500,
      "d": 1350,
      "v": 100
    },
    {
      "midi": 64,
      "hit": false,
      "t": 79875,
      "d": 168.75,
      "v": 100
    },
    {
      "midi": 63,
      "hit": false,
      "t": 80062.5,
      "d": 356.25,
      "v": 100
    },
    {
      "midi": 64,
      "hit": false,
      "t": 80437.5,
      "d": 356.25,
      "v": 100
    },
    {
      "midi": 66,
      "hit": false,
      "t": 80812.5,
      "d": 37.5,
      "v": 100
    },
    {
      "midi": 64,
      "hit": false,
      "t": 81000,
      "d": 675,
      "v": 100
    },
    {
      "midi": 56,
      "hit": false,
      "t": 81000,
      "d": 1350,
      "v": 100
    },
    {
      "midi": 59,
      "hit": false,
      "t": 81000,
      "d": 1350,
      "v": 100
    },
    {
      "midi": 40,
      "hit": false,
      "t": 81000,
      "d": 1350,
      "v": 100
    },
    {
      "midi": 76,
      "hit": false,
      "t": 81375,
      "d": 168.75,
      "v": 100
    },
    {
      "midi": 75,
      "hit": false,
      "t": 81562.5,
      "d": 356.25,
      "v": 100
    },
    {
      "midi": 71,
      "hit": false,
      "t": 81937.5,
      "d": 356.25,
      "v": 100
    },
    {
      "midi": 66,
      "hit": false,
      "t": 82312.5,
      "d": 356.25,
      "v": 100
    },
    {
      "midi": 54,
      "hit": false,
      "t": 82500,
      "d": 1350,
      "v": 100
    },
    {
      "midi": 59,
      "hit": false,
      "t": 82500,
      "d": 1350,
      "v": 100
    },
    {
      "midi": 47,
      "hit": false,
      "t": 82500,
      "d": 1350,
      "v": 100
    },
    {
      "midi": 71,
      "hit": false,
      "t": 82687.5,
      "d": 356.25,
      "v": 100
    },
    {
      "midi": 68,
      "hit": false,
      "t": 83062.5,
      "d": 356.25,
      "v": 100
    },
    {
      "midi": 63,
      "hit": false,
      "t": 83437.5,
      "d": 412.5,
      "v": 100
    },
    {
      "midi": 64,
      "hit": false,
      "t": 84000,
      "d": 506.25,
      "v": 100
    },
    {
      "midi": 45,
      "hit": false,
      "t": 84000,
      "d": 2700,
      "v": 100
    },
    {
      "midi": 52,
      "hit": false,
      "t": 84000,
      "d": 3000,
      "v": 100
    },
    {
      "midi": 61,
      "hit": false,
      "t": 84000,
      "d": 3000,
      "v": 100
    },
    {
      "midi": 57,
      "hit": false,
      "t": 84000,
      "d": 3000,
      "v": 100
    },
    {
      "midi": 69,
      "hit": false,
      "t": 84562.5,
      "d": 168.75,
      "v": 100
    },
    {
      "midi": 83,
      "hit": false,
      "t": 84937.5,
      "d": 168.75,
      "v": 100
    },
    {
      "midi": 85,
      "hit": false,
      "t": 85125,
      "d": 168.75,
      "v": 100
    },
    {
      "midi": 90,
      "hit": false,
      "t": 85312.5,
      "d": 1537.5,
      "v": 100
    },
    {
      "midi": 52,
      "hit": false,
      "t": 87000,
      "d": 337.5,
      "v": 100
    },
    {
      "midi": 56,
      "hit": false,
      "t": 87000,
      "d": 1350,
      "v": 100
    },
    {
      "midi": 59,
      "hit": false,
      "t": 87375,
      "d": 168.75,
      "v": 100
    },
    {
      "midi": 66,
      "hit": false,
      "t": 87562.5,
      "d": 356.25,
      "v": 100
    },
    {
      "midi": 42,
      "hit": false,
      "t": 87750,
      "d": 15.625,
      "v": 100
    },
    {
      "midi": 59,
      "hit": false,
      "t": 87937.5,
      "d": 168.75,
      "v": 100
    },
    {
      "midi": 64,
      "hit": false,
      "t": 87937.5,
      "d": 168.75,
      "v": 100
    },
    {
      "midi": 61,
      "hit": false,
      "t": 88125,
      "d": 168.75,
      "v": 100
    },
    {
      "midi": 59,
      "hit": false,
      "t": 88125,
      "d": 168.75,
      "v": 100
    },
    {
      "midi": 63,
      "hit": false,
      "t": 88312.5,
      "d": 168.75,
      "v": 100
    },
    {
      "midi": 64,
      "hit": false,
      "t": 88500,
      "d": 337.5,
      "v": 100
    },
    {
      "midi": 52,
      "hit": false,
      "t": 88500,
      "d": 337.5,
      "v": 100
    },
    {
      "midi": 49,
      "hit": false,
      "t": 88500,
      "d": 1350,
      "v": 100
    },
    {
      "midi": 63,
      "hit": false,
      "t": 88875,
      "d": 168.75,
      "v": 100
    },
    {
      "midi": 56,
      "hit": false,
      "t": 88875,
      "d": 337.5,
      "v": 100
    },
    {
      "midi": 64,
      "hit": false,
      "t": 89062.5,
      "d": 356.25,
      "v": 100
    },
    {
      "midi": 42,
      "hit": false,
      "t": 89250,
      "d": 15.625,
      "v": 100
    },
    {
      "midi": 59,
      "hit": false,
      "t": 89250,
      "d": 337.5,
      "v": 100
    },
    {
      "midi": 68,
      "hit": false,
      "t": 89437.5,
      "d": 525,
      "v": 100
    },
    {
      "midi": 54,
      "hit": false,
      "t": 90000,
      "d": 337.5,
      "v": 100
    },
    {
      "midi": 61,
      "hit": false,
      "t": 90000,
      "d": 751.5625,
      "v": 100
    },
    {
      "midi": 52,
      "hit": false,
      "t": 90000,
      "d": 1350,
      "v": 100
    },
    {
      "midi": 56,
      "hit": false,
      "t": 90375,
      "d": 168.75,
      "v": 100
    },
    {
      "midi": 57,
      "hit": false,
      "t": 90562.5,
      "d": 356.25,
      "v": 100
    },
    {
      "midi": 42,
      "hit": false,
      "t": 90750,
      "d": 15.625,
      "v": 100
    },
    {
      "midi": 57,
      "hit": false,
      "t": 90937.5,
      "d": 168.75,
      "v": 100
    },
    {
      "midi": 61,
      "hit": false,
      "t": 91125,
      "d": 168.75,
      "v": 100
    },
    {
      "midi": 64,
      "hit": false,
      "t": 91312.5,
      "d": 150,
      "v": 100
    },
    {
      "midi": 63,
      "hit": false,
      "t": 91500,
      "d": 675,
      "v": 100
    },
    {
      "midi": 54,
      "hit": false,
      "t": 91500,
      "d": 675,
      "v": 100
    },
    {
      "midi": 59,
      "hit": false,
      "t": 91500,
      "d": 675,
      "v": 100
    },
    {
      "midi": 47,
      "hit": false,
      "t": 91500,
      "d": 675,
      "v": 100
    },
    {
      "midi": 42,
      "hit": false,
      "t": 92250,
      "d": 15.625,
      "v": 100
    },
    {
      "midi": 61,
      "hit": false,
      "t": 92250,
      "d": 543.75,
      "v": 100
    },
    {
      "midi": 54,
      "hit": false,
      "t": 92250,
      "d": 675,
      "v": 100
    },
    {
      "midi": 57,
      "hit": false,
      "t": 92250,
      "d": 675,
      "v": 100
    },
    {
      "midi": 45,
      "hit": false,
      "t": 92250,
      "d": 675,
      "v": 100
    },
    {
      "midi": 51,
      "hit": false,
      "t": 93000,
      "d": 337.5,
      "v": 100
    },
    {
      "midi": 44,
      "hit": false,
      "t": 93000,
      "d": 1350,
      "v": 100
    },
    {
      "midi": 54,
      "hit": false,
      "t": 93375,
      "d": 168.75,
      "v": 100
    },
    {
      "midi": 83,
      "hit": false,
      "t": 93375,
      "d": 168.75,
      "v": 100
    },
    {
      "midi": 75,
      "hit": false,
      "t": 93562.5,
      "d": 168.75,
      "v": 100
    },
    {
      "midi": 59,
      "hit": false,
      "t": 93562.5,
      "d": 189.0625,
      "v": 100
    },
    {
      "midi": 42,
      "hit": false,
      "t": 93750,
      "d": 15.625,
      "v": 100
    },
    {
      "midi": 56,
      "hit": false,
      "t": 93937.5,
      "d": 168.75,
      "v": 100
    },
    {
      "midi": 80,
      "hit": false,
      "t": 93937.5,
      "d": 168.75,
      "v": 100
    },
    {
      "midi": 63,
      "hit": false,
      "t": 93937.5,
      "d": 412.5,
      "v": 100
    },
    {
      "midi": 59,
      "hit": false,
      "t": 94125,
      "d": 168.75,
      "v": 100
    },
    {
      "midi": 71,
      "hit": false,
      "t": 94125,
      "d": 168.75,
      "v": 100
    },
    {
      "midi": 66,
      "hit": false,
      "t": 94312.5,
      "d": 168.75,
      "v": 100
    },
    {
      "midi": 76,
      "hit": false,
      "t": 94500,
      "d": 168.75,
      "v": 100
    },
    {
      "midi": 64,
      "hit": false,
      "t": 94500,
      "d": 337.5,
      "v": 100
    },
    {
      "midi": 61,
      "hit": false,
      "t": 94500,
      "d": 1350,
      "v": 100
    },
    {
      "midi": 49,
      "hit": false,
      "t": 94500,
      "d": 1350,
      "v": 100
    },
    {
      "midi": 68,
      "hit": false,
      "t": 94687.5,
      "d": 168.75,
      "v": 100
    },
    {
      "midi": 63,
      "hit": false,
      "t": 94875,
      "d": 168.75,
      "v": 100
    },
    {
      "midi": 73,
      "hit": false,
      "t": 95062.5,
      "d": 168.75,
      "v": 100
    },
    {
      "midi": 42,
      "hit": false,
      "t": 95250,
      "d": 15.625,
      "v": 100
    },
    {
      "midi": 64,
      "hit": false,
      "t": 95250,
      "d": 168.75,
      "v": 100
    },
    {
      "midi": 56,
      "hit": false,
      "t": 95437.5,
      "d": 356.25,
      "v": 100
    },
    {
      "midi": 57,
      "hit": false,
      "t": 95812.5,
      "d": 168.75,
      "v": 100
    },
    {
      "midi": 59,
      "hit": false,
      "t": 96000,
      "d": 337.5,
      "v": 100
    },
    {
      "midi": 54,
      "hit": false,
      "t": 96000,
      "d": 337.5,
      "v": 100
    },
    {
      "midi": 61,
      "hit": false,
      "t": 96375,
      "d": 168.75,
      "v": 100
    },
    {
      "midi": 57,
      "hit": false,
      "t": 96375,
      "d": 168.75,
      "v": 100
    },
    {
      "midi": 83,
      "hit": false,
      "t": 96375,
      "d": 168.75,
      "v": 100
    },
    {
      "midi": 73,
      "hit": false,
      "t": 96562.5,
      "d": 168.75,
      "v": 100
    },
    {
      "midi": 57,
      "hit": false,
      "t": 96562.5,
      "d": 356.25,
      "v": 100
    },
    {
      "midi": 64,
      "hit": false,
      "t": 96562.5,
      "d": 356.25,
      "v": 100
    },
    {
      "midi": 42,
      "hit": false,
      "t": 96750,
      "d": 15.625,
      "v": 100
    },
    {
      "midi": 57,
      "hit": false,
      "t": 96937.5,
      "d": 168.75,
      "v": 100
    },
    {
      "midi": 76,
      "hit": false,
      "t": 96937.5,
      "d": 168.75,
      "v": 100
    },
    {
      "midi": 56,
      "hit": false,
      "t": 97125,
      "d": 168.75,
      "v": 100
    },
    {
      "midi": 69,
      "hit": false,
      "t": 97125,
      "d": 168.75,
      "v": 100
    },
    {
      "midi": 57,
      "hit": false,
      "t": 97312.5,
      "d": 37.5,
      "v": 100
    },
    {
      "midi": 54,
      "hit": false,
      "t": 97312.5,
      "d": 37.5,
      "v": 100
    },
    {
      "midi": 73,
      "hit": false,
      "t": 97500,
      "d": 168.75,
      "v": 100
    },
    {
      "midi": 61,
      "hit": false,
      "t": 97500,
      "d": 675,
      "v": 100
    },
    {
      "midi": 59,
      "hit": false,
      "t": 97500,
      "d": 675,
      "v": 100
    },
    {
      "midi": 57,
      "hit": false,
      "t": 97500,
      "d": 675,
      "v": 100
    },
    {
      "midi": 54,
      "hit": false,
      "t": 97500,
      "d": 675,
      "v": 100
    },
    {
      "midi": 47,
      "hit": false,
      "t": 97500,
      "d": 675,
      "v": 100
    },
    {
      "midi": 71,
      "hit": false,
      "t": 97687.5,
      "d": 168.75,
      "v": 100
    },
    {
      "midi": 69,
      "hit": false,
      "t": 97875,
      "d": 168.75,
      "v": 100
    },
    {
      "midi": 64,
      "hit": false,
      "t": 98062.5,
      "d": 112.5,
      "v": 100
    },
    {
      "midi": 42,
      "hit": false,
      "t": 98250,
      "d": 15.625,
      "v": 100
    },
    {
      "midi": 63,
      "hit": false,
      "t": 98250,
      "d": 337.5,
      "v": 100
    },
    {
      "midi": 54,
      "hit": false,
      "t": 98250,
      "d": 600,
      "v": 100
    },
    {
      "midi": 59,
      "hit": false,
      "t": 98250,
      "d": 675,
      "v": 100
    },
    {
      "midi": 57,
      "hit": false,
      "t": 98250,
      "d": 675,
      "v": 100
    },
    {
      "midi": 47,
      "hit": false,
      "t": 98250,
      "d": 675,
      "v": 100
    },
    {
      "midi": 71,
      "hit": false,
      "t": 98625,
      "d": 337.5,
      "v": 100
    },
    {
      "midi": 52,
      "hit": false,
      "t": 99000,
      "d": 168.75,
      "v": 100
    },
    {
      "midi": 56,
      "hit": false,
      "t": 99000,
      "d": 1350,
      "v": 100
    },
    {
      "midi": 59,
      "hit": false,
      "t": 99187.5,
      "d": 168.75,
      "v": 100
    },
    {
      "midi": 59,
      "hit": false,
      "t": 99375,
      "d": 168.75,
      "v": 100
    },
    {
      "midi": 66,
      "hit": false,
      "t": 99375,
      "d": 168.75,
      "v": 100
    },
    {
      "midi": 66,
      "hit": false,
      "t": 99562.5,
      "d": 356.25,
      "v": 100
    },
    {
      "midi": 68,
      "hit": false,
      "t": 99562.5,
      "d": 862.5,
      "v": 100
    },
    {
      "midi": 42,
      "hit": false,
      "t": 99750,
      "d": 15.625,
      "v": 100
    },
    {
      "midi": 59,
      "hit": false,
      "t": 99937.5,
      "d": 168.75,
      "v": 100
    },
    {
      "midi": 64,
      "hit": false,
      "t": 99937.5,
      "d": 168.75,
      "v": 100
    },
    {
      "midi": 61,
      "hit": false,
      "t": 100125,
      "d": 168.75,
      "v": 100
    },
    {
      "midi": 59,
      "hit": false,
      "t": 100125,
      "d": 168.75,
      "v": 100
    },
    {
      "midi": 63,
      "hit": false,
      "t": 100312.5,
      "d": 168.75,
      "v": 100
    },
    {
      "midi": 64,
      "hit": false,
      "t": 100500,
      "d": 337.5,
      "v": 100
    },
    {
      "midi": 52,
      "hit": false,
      "t": 100500,
      "d": 337.5,
      "v": 100
    },
    {
      "midi": 49,
      "hit": false,
      "t": 100500,
      "d": 1350,
      "v": 100
    },
    {
      "midi": 63,
      "hit": false,
      "t": 100875,
      "d": 168.75,
      "v": 100
    },
    {
      "midi": 56,
      "hit": false,
      "t": 100875,
      "d": 337.5,
      "v": 100
    },
    {
      "midi": 64,
      "hit": false,
      "t": 101062.5,
      "d": 356.25,
      "v": 100
    },
    {
      "midi": 42,
      "hit": false,
      "t": 101250,
      "d": 15.625,
      "v": 100
    },
    {
      "midi": 59,
      "hit": false,
      "t": 101250,
      "d": 337.5,
      "v": 100
    },
    {
      "midi": 68,
      "hit": false,
      "t": 101437.5,
      "d": 525,
      "v": 100
    },
    {
      "midi": 54,
      "hit": false,
      "t": 102000,
      "d": 168.75,
      "v": 100
    },
    {
      "midi": 61,
      "hit": false,
      "t": 102000,
      "d": 751.5625,
      "v": 100
    },
    {
      "midi": 52,
      "hit": false,
      "t": 102000,
      "d": 1350,
      "v": 100
    },
    {
      "midi": 56,
      "hit": false,
      "t": 102187.5,
      "d": 168.75,
      "v": 100
    },
    {
      "midi": 57,
      "hit": false,
      "t": 102375,
      "d": 168.75,
      "v": 100
    },
    {
      "midi": 64,
      "hit": false,
      "t": 102562.5,
      "d": 356.25,
      "v": 100
    },
    {
      "midi": 42,
      "hit": false,
      "t": 102750,
      "d": 15.625,
      "v": 100
    },
    {
      "midi": 57,
      "hit": false,
      "t": 102937.5,
      "d": 168.75,
      "v": 100
    },
    {
      "midi": 61,
      "hit": false,
      "t": 103125,
      "d": 168.75,
      "v": 100
    },
    {
      "midi": 56,
      "hit": false,
      "t": 103125,
      "d": 168.75,
      "v": 100
    },
    {
      "midi": 57,
      "hit": false,
      "t": 103312.5,
      "d": 37.5,
      "v": 100
    },
    {
      "midi": 64,
      "hit": false,
      "t": 103312.5,
      "d": 168.75,
      "v": 100
    },
    {
      "midi": 69,
      "hit": false,
      "t": 103500,
      "d": 337.5,
      "v": 100
    },
    {
      "midi": 63,
      "hit": false,
      "t": 103500,
      "d": 675,
      "v": 100
    },
    {
      "midi": 54,
      "hit": false,
      "t": 103500,
      "d": 675,
      "v": 100
    },
    {
      "midi": 59,
      "hit": false,
      "t": 103500,
      "d": 675,
      "v": 100
    },
    {
      "midi": 47,
      "hit": false,
      "t": 103500,
      "d": 675,
      "v": 100
    },
    {
      "midi": 68,
      "hit": false,
      "t": 103875,
      "d": 168.75,
      "v": 100
    },
    {
      "midi": 64,
      "hit": false,
      "t": 104062.5,
      "d": 356.25,
      "v": 100
    },
    {
      "midi": 42,
      "hit": false,
      "t": 104250,
      "d": 15.625,
      "v": 100
    },
    {
      "midi": 54,
      "hit": false,
      "t": 104250,
      "d": 675,
      "v": 100
    },
    {
      "midi": 57,
      "hit": false,
      "t": 104250,
      "d": 675,
      "v": 100
    },
    {
      "midi": 45,
      "hit": false,
      "t": 104250,
      "d": 675,
      "v": 100
    },
    {
      "midi": 61,
      "hit": false,
      "t": 104437.5,
      "d": 356.25,
      "v": 100
    },
    {
      "midi": 51,
      "hit": false,
      "t": 105000,
      "d": 337.5,
      "v": 100
    },
    {
      "midi": 44,
      "hit": false,
      "t": 105000,
      "d": 1350,
      "v": 100
    },
    {
      "midi": 52,
      "hit": false,
      "t": 105375,
      "d": 168.75,
      "v": 100
    },
    {
      "midi": 59,
      "hit": false,
      "t": 105562.5,
      "d": 189.0625,
      "v": 100
    },
    {
      "midi": 42,
      "hit": false,
      "t": 105750,
      "d": 15.625,
      "v": 100
    },
    {
      "midi": 56,
      "hit": false,
      "t": 105937.5,
      "d": 168.75,
      "v": 100
    },
    {
      "midi": 66,
      "hit": false,
      "t": 105937.5,
      "d": 168.75,
      "v": 100
    },
    {
      "midi": 63,
      "hit": false,
      "t": 105937.5,
      "d": 412.5,
      "v": 100
    },
    {
      "midi": 59,
      "hit": false,
      "t": 106125,
      "d": 168.75,
      "v": 100
    },
    {
      "midi": 78,
      "hit": false,
      "t": 106125,
      "d": 168.75,
      "v": 100
    },
    {
      "midi": 66,
      "hit": false,
      "t": 106312.5,
      "d": 168.75,
      "v": 100
    },
    {
      "midi": 64,
      "hit": false,
      "t": 106500,
      "d": 337.5,
      "v": 100
    },
    {
      "midi": 52,
      "hit": false,
      "t": 106500,
      "d": 337.5,
      "v": 100
    },
    {
      "midi": 71,
      "hit": false,
      "t": 106500,
      "d": 918.75,
      "v": 100
    },
    {
      "midi": 61,
      "hit": false,
      "t": 106500,
      "d": 1350,
      "v": 100
    },
    {
      "midi": 49,
      "hit": false,
      "t": 106500,
      "d": 1350,
      "v": 100
    },
    {
      "midi": 63,
      "hit": false,
      "t": 106875,
      "d": 168.75,
      "v": 100
    },
    {
      "midi": 56,
      "hit": false,
      "t": 106875,
      "d": 337.5,
      "v": 100
    },
    {
      "midi": 64,
      "hit": false,
      "t": 107062.5,
      "d": 356.25,
      "v": 100
    },
    {
      "midi": 42,
      "hit": false,
      "t": 107250,
      "d": 15.625,
      "v": 100
    },
    {
      "midi": 59,
      "hit": false,
      "t": 107250,
      "d": 337.5,
      "v": 100
    },
    {
      "midi": 68,
      "hit": false,
      "t": 107437.5,
      "d": 356.25,
      "v": 100
    },
    {
      "midi": 56,
      "hit": false,
      "t": 107625,
      "d": 225,
      "v": 100
    },
    {
      "midi": 71,
      "hit": false,
      "t": 107812.5,
      "d": 525,
      "v": 100
    },
    {
      "midi": 54,
      "hit": false,
      "t": 108000,
      "d": 337.5,
      "v": 100
    },
    {
      "midi": 66,
      "hit": false,
      "t": 108000,
      "d": 1350,
      "v": 100
    },
    {
      "midi": 69,
      "hit": false,
      "t": 108375,
      "d": 131.25,
      "v": 100
    },
    {
      "midi": 57,
      "hit": false,
      "t": 108375,
      "d": 168.75,
      "v": 100
    },
    {
      "midi": 69,
      "hit": false,
      "t": 108562.5,
      "d": 150,
      "v": 100
    },
    {
      "midi": 64,
      "hit": false,
      "t": 108562.5,
      "d": 356.25,
      "v": 100
    },
    {
      "midi": 42,
      "hit": false,
      "t": 108750,
      "d": 15.625,
      "v": 100
    },
    {
      "midi": 69,
      "hit": false,
      "t": 108750,
      "d": 168.75,
      "v": 100
    },
    {
      "midi": 57,
      "hit": false,
      "t": 108937.5,
      "d": 168.75,
      "v": 100
    },
    {
      "midi": 61,
      "hit": false,
      "t": 108937.5,
      "d": 412.5,
      "v": 100
    },
    {
      "midi": 56,
      "hit": false,
      "t": 109125,
      "d": 168.75,
      "v": 100
    },
    {
      "midi": 68,
      "hit": false,
      "t": 109125,
      "d": 337.5,
      "v": 100
    },
    {
      "midi": 57,
      "hit": false,
      "t": 109312.5,
      "d": 37.5,
      "v": 100
    },
    {
      "midi": 66,
      "hit": false,
      "t": 109500,
      "d": 675,
      "v": 100
    },
    {
      "midi": 57,
      "hit": false,
      "t": 109500,
      "d": 675,
      "v": 100
    },
    {
      "midi": 59,
      "hit": false,
      "t": 109500,
      "d": 675,
      "v": 100
    },
    {
      "midi": 54,
      "hit": false,
      "t": 109500,
      "d": 675,
      "v": 100
    },
    {
      "midi": 64,
      "hit": false,
      "t": 109500,
      "d": 675,
      "v": 100
    },
    {
      "midi": 47,
      "hit": false,
      "t": 109500,
      "d": 675,
      "v": 100
    },
    {
      "midi": 42,
      "hit": false,
      "t": 110250,
      "d": 15.625,
      "v": 100
    },
    {
      "midi": 68,
      "hit": false,
      "t": 110250,
      "d": 337.5,
      "v": 100
    },
    {
      "midi": 59,
      "hit": false,
      "t": 110250,
      "d": 675,
      "v": 100
    },
    {
      "midi": 57,
      "hit": false,
      "t": 110250,
      "d": 675,
      "v": 100
    },
    {
      "midi": 54,
      "hit": false,
      "t": 110250,
      "d": 675,
      "v": 100
    },
    {
      "midi": 66,
      "hit": false,
      "t": 110250,
      "d": 675,
      "v": 100
    },
    {
      "midi": 48,
      "hit": false,
      "t": 110250,
      "d": 675,
      "v": 100
    },
    {
      "midi": 63,
      "hit": false,
      "t": 110625,
      "d": 168.75,
      "v": 100
    },
    {
      "midi": 42,
      "hit": false,
      "t": 111000,
      "d": 15.625,
      "v": 80
    },
    {
      "midi": 43,
      "hit": false,
      "t": 111000,
      "d": 15.625,
      "v": 80
    },
    {
      "midi": 61,
      "hit": false,
      "t": 111000,
      "d": 337.5,
      "v": 100
    },
    {
      "midi": 56,
      "hit": false,
      "t": 111000,
      "d": 337.5,
      "v": 100
    },
    {
      "midi": 64,
      "hit": false,
      "t": 111000,
      "d": 337.5,
      "v": 100
    },
    {
      "midi": 73,
      "hit": false,
      "t": 111000,
      "d": 1350,
      "v": 100
    },
    {
      "midi": 49,
      "hit": false,
      "t": 111000,
      "d": 1350,
      "v": 100
    },
    {
      "midi": 42,
      "hit": false,
      "t": 111375,
      "d": 15.625,
      "v": 80
    },
    {
      "midi": 52,
      "hit": false,
      "t": 111375,
      "d": 168.75,
      "v": 100
    },
    {
      "midi": 56,
      "hit": false,
      "t": 111562.5,
      "d": 356.25,
      "v": 100
    },
    {
      "midi": 61,
      "hit": false,
      "t": 111562.5,
      "d": 356.25,
      "v": 100
    },
    {
      "midi": 42,
      "hit": false,
      "t": 111750,
      "d": 15.625,
      "v": 80
    },
    {
      "midi": 38,
      "hit": false,
      "t": 111750,
      "d": 15.625,
      "v": 80
    },
    {
      "midi": 68,
      "hit": false,
      "t": 111750,
      "d": 337.5,
      "v": 100
    },
    {
      "midi": 64,
      "hit": false,
      "t": 111937.5,
      "d": 525,
      "v": 100
    },
    {
      "midi": 42,
      "hit": false,
      "t": 112125,
      "d": 15.625,
      "v": 80
    },
    {
      "midi": 61,
      "hit": false,
      "t": 112125,
      "d": 168.75,
      "v": 100
    },
    {
      "midi": 42,
      "hit": false,
      "t": 112500,
      "d": 15.625,
      "v": 80
    },
    {
      "midi": 43,
      "hit": false,
      "t": 112500,
      "d": 15.625,
      "v": 80
    },
    {
      "midi": 66,
      "hit": false,
      "t": 112500,
      "d": 337.5,
      "v": 100
    },
    {
      "midi": 63,
      "hit": false,
      "t": 112500,
      "d": 675,
      "v": 100
    },
    {
      "midi": 75,
      "hit": false,
      "t": 112500,
      "d": 1350,
      "v": 100
    },
    {
      "midi": 56,
      "hit": false,
      "t": 112500,
      "d": 1350,
      "v": 100
    },
    {
      "midi": 51,
      "hit": false,
      "t": 112500,
      "d": 1350,
      "v": 100
    },
    {
      "midi": 42,
      "hit": false,
      "t": 112875,
      "d": 15.625,
      "v": 80
    },
    {
      "midi": 43,
      "hit": false,
      "t": 112875,
      "d": 15.625,
      "v": 80
    },
    {
      "midi": 54,
      "hit": false,
      "t": 112875,
      "d": 168.75,
      "v": 100
    },
    {
      "midi": 59,
      "hit": false,
      "t": 113062.5,
      "d": 356.25,
      "v": 100
    },
    {
      "midi": 42,
      "hit": false,
      "t": 113250,
      "d": 15.625,
      "v": 80
    },
    {
      "midi": 38,
      "hit": false,
      "t": 113250,
      "d": 15.625,
      "v": 80
    },
    {
      "midi": 68,
      "hit": false,
      "t": 113250,
      "d": 337.5,
      "v": 100
    },
    {
      "midi": 66,
      "hit": false,
      "t": 113437.5,
      "d": 412.5,
      "v": 100
    },
    {
      "midi": 42,
      "hit": false,
      "t": 113625,
      "d": 15.625,
      "v": 80
    },
    {
      "midi": 63,
      "hit": false,
      "t": 113625,
      "d": 168.75,
      "v": 100
    },
    {
      "midi": 42,
      "hit": false,
      "t": 114000,
      "d": 15.625,
      "v": 80
    },
    {
      "midi": 43,
      "hit": false,
      "t": 114000,
      "d": 15.625,
      "v": 80
    },
    {
      "midi": 64,
      "hit": false,
      "t": 114000,
      "d": 337.5,
      "v": 100
    },
    {
      "midi": 68,
      "hit": false,
      "t": 114000,
      "d": 337.5,
      "v": 100
    },
    {
      "midi": 76,
      "hit": false,
      "t": 114000,
      "d": 1350,
      "v": 100
    },
    {
      "midi": 52,
      "hit": false,
      "t": 114000,
      "d": 1350,
      "v": 100
    },
    {
      "midi": 42,
      "hit": false,
      "t": 114375,
      "d": 15.625,
      "v": 80
    },
    {
      "midi": 63,
      "hit": false,
      "t": 114375,
      "d": 168.75,
      "v": 100
    },
    {
      "midi": 59,
      "hit": false,
      "t": 114375,
      "d": 168.75,
      "v": 100
    },
    {
      "midi": 64,
      "hit": false,
      "t": 114562.5,
      "d": 356.25,
      "v": 100
    },
    {
      "midi": 66,
      "hit": false,
      "t": 114562.5,
      "d": 356.25,
      "v": 100
    },
    {
      "midi": 42,
      "hit": false,
      "t": 114750,
      "d": 15.625,
      "v": 80
    },
    {
      "midi": 38,
      "hit": false,
      "t": 114750,
      "d": 15.625,
      "v": 80
    },
    {
      "midi": 64,
      "hit": false,
      "t": 114937.5,
      "d": 168.75,
      "v": 100
    },
    {
      "midi": 68,
      "hit": false,
      "t": 114937.5,
      "d": 412.5,
      "v": 100
    },
    {
      "midi": 42,
      "hit": false,
      "t": 115125,
      "d": 15.625,
      "v": 80
    },
    {
      "midi": 59,
      "hit": false,
      "t": 115125,
      "d": 168.75,
      "v": 100
    },
    {
      "midi": 42,
      "hit": false,
      "t": 115500,
      "d": 15.625,
      "v": 80
    },
    {
      "midi": 43,
      "hit": false,
      "t": 115500,
      "d": 15.625,
      "v": 80
    },
    {
      "midi": 92,
      "hit": false,
      "t": 115500,
      "d": 112.5,
      "v": 100
    },
    {
      "midi": 61,
      "hit": false,
      "t": 115500,
      "d": 337.5,
      "v": 100
    },
    {
      "midi": 78,
      "hit": false,
      "t": 115500,
      "d": 1350,
      "v": 100
    },
    {
      "midi": 70,
      "hit": false,
      "t": 115500,
      "d": 1350,
      "v": 100
    },
    {
      "midi": 66,
      "hit": false,
      "t": 115500,
      "d": 1350,
      "v": 100
    },
    {
      "midi": 54,
      "hit": false,
      "t": 115500,
      "d": 1350,
      "v": 100
    },
    {
      "midi": 88,
      "hit": false,
      "t": 115625,
      "d": 112.5,
      "v": 100
    },
    {
      "midi": 85,
      "hit": false,
      "t": 115750,
      "d": 112.5,
      "v": 100
    },
    {
      "midi": 42,
      "hit": false,
      "t": 115875,
      "d": 15.625,
      "v": 80
    },
    {
      "midi": 43,
      "hit": false,
      "t": 115875,
      "d": 15.625,
      "v": 80
    },
    {
      "midi": 63,
      "hit": false,
      "t": 115875,
      "d": 168.75,
      "v": 100
    },
    {
      "midi": 80,
      "hit": false,
      "t": 115875,
      "d": 337.5,
      "v": 100
    },
    {
      "midi": 64,
      "hit": false,
      "t": 116062.5,
      "d": 168.75,
      "v": 100
    },
    {
      "midi": 42,
      "hit": false,
      "t": 116250,
      "d": 15.625,
      "v": 80
    },
    {
      "midi": 38,
      "hit": false,
      "t": 116250,
      "d": 15.625,
      "v": 80
    },
    {
      "midi": 68,
      "hit": false,
      "t": 116250,
      "d": 337.5,
      "v": 100
    },
    {
      "midi": 61,
      "hit": false,
      "t": 116437.5,
      "d": 168.75,
      "v": 100
    },
    {
      "midi": 42,
      "hit": false,
      "t": 116625,
      "d": 15.625,
      "v": 80
    },
    {
      "midi": 63,
      "hit": false,
      "t": 116625,
      "d": 168.75,
      "v": 100
    },
    {
      "midi": 64,
      "hit": false,
      "t": 116812.5,
      "d": 150,
      "v": 100
    },
    {
      "midi": 42,
      "hit": false,
      "t": 117000,
      "d": 15.625,
      "v": 80
    },
    {
      "midi": 43,
      "hit": false,
      "t": 117000,
      "d": 15.625,
      "v": 80
    },
    {
      "midi": 71,
      "hit": false,
      "t": 117000,
      "d": 337.5,
      "v": 100
    },
    {
      "midi": 57,
      "hit": false,
      "t": 117000,
      "d": 1350,
      "v": 100
    },
    {
      "midi": 61,
      "hit": false,
      "t": 117000,
      "d": 1350,
      "v": 100
    },
    {
      "midi": 42,
      "hit": false,
      "t": 117375,
      "d": 15.625,
      "v": 80
    },
    {
      "midi": 69,
      "hit": false,
      "t": 117375,
      "d": 131.25,
      "v": 100
    },
    {
      "midi": 83,
      "hit": false,
      "t": 117375,
      "d": 168.75,
      "v": 100
    },
    {
      "midi": 81,
      "hit": false,
      "t": 117562.5,
      "d": 168.75,
      "v": 100
    },
    {
      "midi": 64,
      "hit": false,
      "t": 117562.5,
      "d": 356.25,
      "v": 100
    },
    {
      "midi": 42,
      "hit": false,
      "t": 117750,
      "d": 15.625,
      "v": 80
    },
    {
      "midi": 38,
      "hit": false,
      "t": 117750,
      "d": 15.625,
      "v": 80
    },
    {
      "midi": 76,
      "hit": false,
      "t": 117750,
      "d": 168.75,
      "v": 100
    },
    {
      "midi": 69,
      "hit": false,
      "t": 117937.5,
      "d": 150,
      "v": 100
    },
    {
      "midi": 73,
      "hit": false,
      "t": 117937.5,
      "d": 168.75,
      "v": 100
    },
    {
      "midi": 42,
      "hit": false,
      "t": 118125,
      "d": 15.625,
      "v": 80
    },
    {
      "midi": 68,
      "hit": false,
      "t": 118125,
      "d": 168.75,
      "v": 100
    },
    {
      "midi": 71,
      "hit": false,
      "t": 118125,
      "d": 168.75,
      "v": 100
    },
    {
      "midi": 69,
      "hit": false,
      "t": 118312.5,
      "d": 150,
      "v": 100
    },
    {
      "midi": 42,
      "hit": false,
      "t": 118500,
      "d": 15.625,
      "v": 80
    },
    {
      "midi": 43,
      "hit": false,
      "t": 118500,
      "d": 15.625,
      "v": 80
    },
    {
      "midi": 69,
      "hit": false,
      "t": 118500,
      "d": 337.5,
      "v": 100
    },
    {
      "midi": 54,
      "hit": false,
      "t": 118500,
      "d": 1350,
      "v": 100
    },
    {
      "midi": 42,
      "hit": false,
      "t": 118875,
      "d": 15.625,
      "v": 80
    },
    {
      "midi": 43,
      "hit": false,
      "t": 118875,
      "d": 15.625,
      "v": 80
    },
    {
      "midi": 68,
      "hit": false,
      "t": 118875,
      "d": 168.75,
      "v": 100
    },
    {
      "midi": 57,
      "hit": false,
      "t": 119062.5,
      "d": 168.75,
      "v": 100
    },
    {
      "midi": 66,
      "hit": false,
      "t": 119062.5,
      "d": 356.25,
      "v": 100
    },
    {
      "midi": 42,
      "hit": false,
      "t": 119250,
      "d": 15.625,
      "v": 80
    },
    {
      "midi": 38,
      "hit": false,
      "t": 119250,
      "d": 15.625,
      "v": 80
    },
    {
      "midi": 57,
      "hit": false,
      "t": 119250,
      "d": 168.75,
      "v": 100
    },
    {
      "midi": 59,
      "hit": false,
      "t": 119437.5,
      "d": 168.75,
      "v": 100
    },
    {
      "midi": 64,
      "hit": false,
      "t": 119437.5,
      "d": 356.25,
      "v": 100
    },
    {
      "midi": 42,
      "hit": false,
      "t": 119625,
      "d": 15.625,
      "v": 80
    },
    {
      "midi": 61,
      "hit": false,
      "t": 119625,
      "d": 168.75,
      "v": 100
    },
    {
      "midi": 66,
      "hit": false,
      "t": 119812.5,
      "d": 168.75,
      "v": 100
    },
    {
      "midi": 42,
      "hit": false,
      "t": 120000,
      "d": 15.625,
      "v": 80
    },
    {
      "midi": 43,
      "hit": false,
      "t": 120000,
      "d": 15.625,
      "v": 80
    },
    {
      "midi": 57,
      "hit": false,
      "t": 120000,
      "d": 1350,
      "v": 100
    },
    {
      "midi": 61,
      "hit": false,
      "t": 120000,
      "d": 1350,
      "v": 100
    },
    {
      "midi": 54,
      "hit": false,
      "t": 120000,
      "d": 1350,
      "v": 100
    },
    {
      "midi": 64,
      "hit": false,
      "t": 120000,
      "d": 1350,
      "v": 100
    },
    {
      "midi": 59,
      "hit": false,
      "t": 120000,
      "d": 1350,
      "v": 100
    },
    {
      "midi": 42,
      "hit": false,
      "t": 120375,
      "d": 15.625,
      "v": 80
    },
    {
      "midi": 42,
      "hit": false,
      "t": 120750,
      "d": 15.625,
      "v": 80
    },
    {
      "midi": 38,
      "hit": false,
      "t": 120750,
      "d": 15.625,
      "v": 80
    },
    {
      "midi": 76,
      "hit": false,
      "t": 120750,
      "d": 337.5,
      "v": 100
    },
    {
      "midi": 42,
      "hit": false,
      "t": 121125,
      "d": 15.625,
      "v": 80
    },
    {
      "midi": 75,
      "hit": false,
      "t": 121125,
      "d": 337.5,
      "v": 100
    },
    {
      "midi": 49,
      "hit": false,
      "t": 121500,
      "d": 15.625,
      "v": 80
    },
    {
      "midi": 75,
      "hit": false,
      "t": 121500,
      "d": 337.5,
      "v": 100
    },
    {
      "midi": 57,
      "hit": false,
      "t": 121500,
      "d": 675,
      "v": 100
    },
    {
      "midi": 61,
      "hit": false,
      "t": 121500,
      "d": 675,
      "v": 100
    },
    {
      "midi": 54,
      "hit": false,
      "t": 121500,
      "d": 675,
      "v": 100
    },
    {
      "midi": 64,
      "hit": false,
      "t": 121500,
      "d": 675,
      "v": 100
    },
    {
      "midi": 47,
      "hit": false,
      "t": 121500,
      "d": 675,
      "v": 100
    },
    {
      "midi": 73,
      "hit": false,
      "t": 121875,
      "d": 337.5,
      "v": 100
    },
    {
      "midi": 64,
      "hit": false,
      "t": 122250,
      "d": 337.5,
      "v": 100
    },
    {
      "midi": 73,
      "hit": false,
      "t": 122250,
      "d": 337.5,
      "v": 100
    },
    {
      "midi": 57,
      "hit": false,
      "t": 122250,
      "d": 675,
      "v": 100
    },
    {
      "midi": 59,
      "hit": false,
      "t": 122250,
      "d": 675,
      "v": 100
    },
    {
      "midi": 54,
      "hit": false,
      "t": 122250,
      "d": 675,
      "v": 100
    },
    {
      "midi": 45,
      "hit": false,
      "t": 122250,
      "d": 675,
      "v": 100
    },
    {
      "midi": 63,
      "hit": false,
      "t": 122625,
      "d": 168.75,
      "v": 100
    },
    {
      "midi": 71,
      "hit": false,
      "t": 122625,
      "d": 337.5,
      "v": 100
    },
    {
      "midi": 42,
      "hit": false,
      "t": 123000,
      "d": 15.625,
      "v": 80
    },
    {
      "midi": 43,
      "hit": false,
      "t": 123000,
      "d": 15.625,
      "v": 80
    },
    {
      "midi": 64,
      "hit": false,
      "t": 123000,
      "d": 751.5625,
      "v": 100
    },
    {
      "midi": 56,
      "hit": false,
      "t": 123000,
      "d": 1350,
      "v": 100
    },
    {
      "midi": 44,
      "hit": false,
      "t": 123000,
      "d": 1350,
      "v": 100
    },
    {
      "midi": 42,
      "hit": false,
      "t": 123375,
      "d": 15.625,
      "v": 80
    },
    {
      "midi": 42,
      "hit": false,
      "t": 123750,
      "d": 15.625,
      "v": 80
    },
    {
      "midi": 38,
      "hit": false,
      "t": 123750,
      "d": 15.625,
      "v": 80
    },
    {
      "midi": 59,
      "hit": false,
      "t": 123937.5,
      "d": 168.75,
      "v": 100
    },
    {
      "midi": 42,
      "hit": false,
      "t": 124125,
      "d": 15.625,
      "v": 80
    },
    {
      "midi": 64,
      "hit": false,
      "t": 124125,
      "d": 168.75,
      "v": 100
    },
    {
      "midi": 68,
      "hit": false,
      "t": 124312.5,
      "d": 168.75,
      "v": 100
    },
    {
      "midi": 42,
      "hit": false,
      "t": 124500,
      "d": 15.625,
      "v": 80
    },
    {
      "midi": 43,
      "hit": false,
      "t": 124500,
      "d": 15.625,
      "v": 80
    },
    {
      "midi": 66,
      "hit": false,
      "t": 124500,
      "d": 337.5,
      "v": 100
    },
    {
      "midi": 57,
      "hit": false,
      "t": 124500,
      "d": 1350,
      "v": 100
    },
    {
      "midi": 45,
      "hit": false,
      "t": 124500,
      "d": 1350,
      "v": 100
    },
    {
      "midi": 42,
      "hit": false,
      "t": 124875,
      "d": 15.625,
      "v": 80
    },
    {
      "midi": 43,
      "hit": false,
      "t": 124875,
      "d": 15.625,
      "v": 80
    },
    {
      "midi": 64,
      "hit": false,
      "t": 124875,
      "d": 168.75,
      "v": 100
    },
    {
      "midi": 63,
      "hit": false,
      "t": 125062.5,
      "d": 356.25,
      "v": 100
    },
    {
      "midi": 42,
      "hit": false,
      "t": 125250,
      "d": 15.625,
      "v": 80
    },
    {
      "midi": 38,
      "hit": false,
      "t": 125250,
      "d": 15.625,
      "v": 80
    },
    {
      "midi": 61,
      "hit": false,
      "t": 125437.5,
      "d": 356.25,
      "v": 100
    },
    {
      "midi": 42,
      "hit": false,
      "t": 125625,
      "d": 15.625,
      "v": 80
    },
    {
      "midi": 42,
      "hit": false,
      "t": 126000,
      "d": 15.625,
      "v": 80
    },
    {
      "midi": 43,
      "hit": false,
      "t": 126000,
      "d": 15.625,
      "v": 80
    },
    {
      "midi": 63,
      "hit": false,
      "t": 126000,
      "d": 751.5625,
      "v": 100
    },
    {
      "midi": 66,
      "hit": false,
      "t": 126000,
      "d": 1350,
      "v": 100
    },
    {
      "midi": 47,
      "hit": false,
      "t": 126000,
      "d": 1350,
      "v": 100
    },
    {
      "midi": 42,
      "hit": false,
      "t": 126375,
      "d": 15.625,
      "v": 80
    },
    {
      "midi": 42,
      "hit": false,
      "t": 126750,
      "d": 15.625,
      "v": 80
    },
    {
      "midi": 38,
      "hit": false,
      "t": 126750,
      "d": 15.625,
      "v": 80
    },
    {
      "midi": 59,
      "hit": false,
      "t": 126937.5,
      "d": 168.75,
      "v": 100
    },
    {
      "midi": 42,
      "hit": false,
      "t": 127125,
      "d": 15.625,
      "v": 80
    },
    {
      "midi": 63,
      "hit": false,
      "t": 127125,
      "d": 168.75,
      "v": 100
    },
    {
      "midi": 71,
      "hit": false,
      "t": 127312.5,
      "d": 37.5,
      "v": 100
    },
    {
      "midi": 42,
      "hit": false,
      "t": 127500,
      "d": 15.625,
      "v": 80
    },
    {
      "midi": 43,
      "hit": false,
      "t": 127500,
      "d": 15.625,
      "v": 80
    },
    {
      "midi": 69,
      "hit": false,
      "t": 127500,
      "d": 675,
      "v": 100
    },
    {
      "midi": 72,
      "hit": false,
      "t": 127500,
      "d": 1350,
      "v": 100
    },
    {
      "midi": 60,
      "hit": false,
      "t": 127500,
      "d": 1350,
      "v": 100
    },
    {
      "midi": 66,
      "hit": false,
      "t": 127500,
      "d": 1350,
      "v": 100
    },
    {
      "midi": 48,
      "hit": false,
      "t": 127500,
      "d": 1350,
      "v": 100
    },
    {
      "midi": 42,
      "hit": false,
      "t": 127875,
      "d": 15.625,
      "v": 80
    },
    {
      "midi": 43,
      "hit": false,
      "t": 127875,
      "d": 15.625,
      "v": 80
    },
    {
      "midi": 42,
      "hit": false,
      "t": 128250,
      "d": 15.625,
      "v": 80
    },
    {
      "midi": 38,
      "hit": false,
      "t": 128250,
      "d": 15.625,
      "v": 80
    },
    {
      "midi": 68,
      "hit": false,
      "t": 128250,
      "d": 506.25,
      "v": 100
    },
    {
      "midi": 42,
      "hit": false,
      "t": 128625,
      "d": 15.625,
      "v": 80
    },
    {
      "midi": 42,
      "hit": false,
      "t": 129000,
      "d": 15.625,
      "v": 80
    },
    {
      "midi": 43,
      "hit": false,
      "t": 129000,
      "d": 15.625,
      "v": 80
    },
    {
      "midi": 69,
      "hit": false,
      "t": 129000,
      "d": 337.5,
      "v": 100
    },
    {
      "midi": 73,
      "hit": false,
      "t": 129000,
      "d": 1350,
      "v": 100
    },
    {
      "midi": 45,
      "hit": false,
      "t": 129000,
      "d": 1350,
      "v": 100
    },
    {
      "midi": 42,
      "hit": false,
      "t": 129375,
      "d": 15.625,
      "v": 80
    },
    {
      "midi": 64,
      "hit": false,
      "t": 129375,
      "d": 337.5,
      "v": 100
    },
    {
      "midi": 42,
      "hit": false,
      "t": 129750,
      "d": 15.625,
      "v": 80
    },
    {
      "midi": 38,
      "hit": false,
      "t": 129750,
      "d": 15.625,
      "v": 80
    },
    {
      "midi": 69,
      "hit": false,
      "t": 129750,
      "d": 168.75,
      "v": 100
    },
    {
      "midi": 64,
      "hit": false,
      "t": 129937.5,
      "d": 168.75,
      "v": 100
    },
    {
      "midi": 42,
      "hit": false,
      "t": 130125,
      "d": 15.625,
      "v": 80
    },
    {
      "midi": 71,
      "hit": false,
      "t": 130125,
      "d": 168.75,
      "v": 100
    },
    {
      "midi": 61,
      "hit": false,
      "t": 130125,
      "d": 168.75,
      "v": 100
    },
    {
      "midi": 57,
      "hit": false,
      "t": 130312.5,
      "d": 168.75,
      "v": 100
    },
    {
      "midi": 68,
      "hit": false,
      "t": 130312.5,
      "d": 862.5,
      "v": 100
    },
    {
      "midi": 42,
      "hit": false,
      "t": 130500,
      "d": 15.625,
      "v": 80
    },
    {
      "midi": 43,
      "hit": false,
      "t": 130500,
      "d": 15.625,
      "v": 80
    },
    {
      "midi": 56,
      "hit": false,
      "t": 130500,
      "d": 1350,
      "v": 100
    },
    {
      "midi": 59,
      "hit": false,
      "t": 130500,
      "d": 1350,
      "v": 100
    },
    {
      "midi": 44,
      "hit": false,
      "t": 130500,
      "d": 1350,
      "v": 100
    },
    {
      "midi": 76,
      "hit": false,
      "t": 130500,
      "d": 2850,
      "v": 100
    },
    {
      "midi": 42,
      "hit": false,
      "t": 130875,
      "d": 15.625,
      "v": 80
    },
    {
      "midi": 43,
      "hit": false,
      "t": 130875,
      "d": 15.625,
      "v": 80
    },
    {
      "midi": 42,
      "hit": false,
      "t": 131250,
      "d": 15.625,
      "v": 80
    },
    {
      "midi": 38,
      "hit": false,
      "t": 131250,
      "d": 15.625,
      "v": 80
    },
    {
      "midi": 66,
      "hit": false,
      "t": 131250,
      "d": 337.5,
      "v": 100
    },
    {
      "midi": 42,
      "hit": false,
      "t": 131625,
      "d": 15.625,
      "v": 80
    },
    {
      "midi": 64,
      "hit": false,
      "t": 131625,
      "d": 225,
      "v": 100
    },
    {
      "midi": 42,
      "hit": false,
      "t": 132000,
      "d": 15.625,
      "v": 80
    },
    {
      "midi": 43,
      "hit": false,
      "t": 132000,
      "d": 15.625,
      "v": 80
    },
    {
      "midi": 68,
      "hit": false,
      "t": 132000,
      "d": 337.5,
      "v": 100
    },
    {
      "midi": 57,
      "hit": false,
      "t": 132000,
      "d": 675,
      "v": 100
    },
    {
      "midi": 61,
      "hit": false,
      "t": 132000,
      "d": 675,
      "v": 100
    },
    {
      "midi": 54,
      "hit": false,
      "t": 132000,
      "d": 675,
      "v": 100
    },
    {
      "midi": 64,
      "hit": false,
      "t": 132000,
      "d": 675,
      "v": 100
    },
    {
      "midi": 42,
      "hit": false,
      "t": 132375,
      "d": 15.625,
      "v": 80
    },
    {
      "midi": 69,
      "hit": false,
      "t": 132375,
      "d": 168.75,
      "v": 100
    },
    {
      "midi": 71,
      "hit": false,
      "t": 132562.5,
      "d": 356.25,
      "v": 100
    },
    {
      "midi": 42,
      "hit": false,
      "t": 132750,
      "d": 15.625,
      "v": 80
    },
    {
      "midi": 38,
      "hit": false,
      "t": 132750,
      "d": 15.625,
      "v": 80
    },
    {
      "midi": 69,
      "hit": false,
      "t": 132750,
      "d": 168.75,
      "v": 100
    },
    {
      "midi": 64,
      "hit": false,
      "t": 132937.5,
      "d": 168.75,
      "v": 100
    },
    {
      "midi": 68,
      "hit": false,
      "t": 132937.5,
      "d": 356.25,
      "v": 100
    },
    {
      "midi": 42,
      "hit": false,
      "t": 133125,
      "d": 15.625,
      "v": 80
    },
    {
      "midi": 61,
      "hit": false,
      "t": 133125,
      "d": 168.75,
      "v": 100
    },
    {
      "midi": 57,
      "hit": false,
      "t": 133312.5,
      "d": 168.75,
      "v": 100
    },
    {
      "midi": 66,
      "hit": false,
      "t": 133312.5,
      "d": 693.75,
      "v": 100
    },
    {
      "midi": 42,
      "hit": false,
      "t": 133500,
      "d": 15.625,
      "v": 80
    },
    {
      "midi": 43,
      "hit": false,
      "t": 133500,
      "d": 15.625,
      "v": 80
    },
    {
      "midi": 63,
      "hit": false,
      "t": 133500,
      "d": 675,
      "v": 100
    },
    {
      "midi": 54,
      "hit": false,
      "t": 133500,
      "d": 675,
      "v": 100
    },
    {
      "midi": 47,
      "hit": false,
      "t": 133500,
      "d": 675,
      "v": 100
    },
    {
      "midi": 75,
      "hit": false,
      "t": 133500,
      "d": 1350,
      "v": 100
    },
    {
      "midi": 42,
      "hit": false,
      "t": 133875,
      "d": 15.625,
      "v": 80
    },
    {
      "midi": 43,
      "hit": false,
      "t": 133875,
      "d": 15.625,
      "v": 80
    },
    {
      "midi": 59,
      "hit": false,
      "t": 134062.5,
      "d": 112.5,
      "v": 100
    },
    {
      "midi": 42,
      "hit": false,
      "t": 134250,
      "d": 15.625,
      "v": 80
    },
    {
      "midi": 38,
      "hit": false,
      "t": 134250,
      "d": 15.625,
      "v": 80
    },
    {
      "midi": 64,
      "hit": false,
      "t": 134250,
      "d": 337.5,
      "v": 100
    },
    {
      "midi": 61,
      "hit": false,
      "t": 134250,
      "d": 675,
      "v": 100
    },
    {
      "midi": 54,
      "hit": false,
      "t": 134250,
      "d": 675,
      "v": 100
    },
    {
      "midi": 57,
      "hit": false,
      "t": 134250,
      "d": 675,
      "v": 100
    },
    {
      "midi": 45,
      "hit": false,
      "t": 134250,
      "d": 675,
      "v": 100
    },
    {
      "midi": 42,
      "hit": false,
      "t": 134625,
      "d": 15.625,
      "v": 80
    },
    {
      "midi": 63,
      "hit": false,
      "t": 134625,
      "d": 168.75,
      "v": 100
    },
    {
      "midi": 42,
      "hit": false,
      "t": 135000,
      "d": 15.625,
      "v": 80
    },
    {
      "midi": 43,
      "hit": false,
      "t": 135000,
      "d": 15.625,
      "v": 80
    },
    {
      "midi": 64,
      "hit": false,
      "t": 135000,
      "d": 751.5625,
      "v": 100
    },
    {
      "midi": 83,
      "hit": false,
      "t": 135000,
      "d": 1350,
      "v": 100
    },
    {
      "midi": 56,
      "hit": false,
      "t": 135000,
      "d": 1350,
      "v": 100
    },
    {
      "midi": 44,
      "hit": false,
      "t": 135000,
      "d": 1350,
      "v": 100
    },
    {
      "midi": 42,
      "hit": false,
      "t": 135375,
      "d": 15.625,
      "v": 80
    },
    {
      "midi": 42,
      "hit": false,
      "t": 135750,
      "d": 15.625,
      "v": 80
    },
    {
      "midi": 38,
      "hit": false,
      "t": 135750,
      "d": 15.625,
      "v": 80
    },
    {
      "midi": 59,
      "hit": false,
      "t": 135937.5,
      "d": 168.75,
      "v": 100
    },
    {
      "midi": 42,
      "hit": false,
      "t": 136125,
      "d": 15.625,
      "v": 80
    },
    {
      "midi": 64,
      "hit": false,
      "t": 136125,
      "d": 168.75,
      "v": 100
    },
    {
      "midi": 68,
      "hit": false,
      "t": 136312.5,
      "d": 168.75,
      "v": 100
    },
    {
      "midi": 42,
      "hit": false,
      "t": 136500,
      "d": 15.625,
      "v": 80
    },
    {
      "midi": 43,
      "hit": false,
      "t": 136500,
      "d": 15.625,
      "v": 80
    },
    {
      "midi": 66,
      "hit": false,
      "t": 136500,
      "d": 337.5,
      "v": 100
    },
    {
      "midi": 57,
      "hit": false,
      "t": 136500,
      "d": 1350,
      "v": 100
    },
    {
      "midi": 45,
      "hit": false,
      "t": 136500,
      "d": 1350,
      "v": 100
    },
    {
      "midi": 42,
      "hit": false,
      "t": 136875,
      "d": 15.625,
      "v": 80
    },
    {
      "midi": 43,
      "hit": false,
      "t": 136875,
      "d": 15.625,
      "v": 80
    },
    {
      "midi": 64,
      "hit": false,
      "t": 136875,
      "d": 168.75,
      "v": 100
    },
    {
      "midi": 63,
      "hit": false,
      "t": 137062.5,
      "d": 356.25,
      "v": 100
    },
    {
      "midi": 42,
      "hit": false,
      "t": 137250,
      "d": 15.625,
      "v": 80
    },
    {
      "midi": 38,
      "hit": false,
      "t": 137250,
      "d": 15.625,
      "v": 80
    },
    {
      "midi": 88,
      "hit": false,
      "t": 137250,
      "d": 337.5,
      "v": 100
    },
    {
      "midi": 61,
      "hit": false,
      "t": 137437.5,
      "d": 168.75,
      "v": 100
    },
    {
      "midi": 42,
      "hit": false,
      "t": 137625,
      "d": 15.625,
      "v": 80
    },
    {
      "midi": 63,
      "hit": false,
      "t": 137625,
      "d": 187.5,
      "v": 100
    },
    {
      "midi": 87,
      "hit": false,
      "t": 137625,
      "d": 337.5,
      "v": 100
    },
    {
      "midi": 42,
      "hit": false,
      "t": 138000,
      "d": 15.625,
      "v": 80
    },
    {
      "midi": 43,
      "hit": false,
      "t": 138000,
      "d": 15.625,
      "v": 80
    },
    {
      "midi": 63,
      "hit": false,
      "t": 138000,
      "d": 751.5625,
      "v": 100
    },
    {
      "midi": 83,
      "hit": false,
      "t": 138000,
      "d": 1350,
      "v": 100
    },
    {
      "midi": 66,
      "hit": false,
      "t": 138000,
      "d": 1350,
      "v": 100
    },
    {
      "midi": 47,
      "hit": false,
      "t": 138000,
      "d": 1350,
      "v": 100
    },
    {
      "midi": 42,
      "hit": false,
      "t": 138375,
      "d": 15.625,
      "v": 80
    },
    {
      "midi": 42,
      "hit": false,
      "t": 138750,
      "d": 15.625,
      "v": 80
    },
    {
      "midi": 38,
      "hit": false,
      "t": 138750,
      "d": 15.625,
      "v": 80
    },
    {
      "midi": 59,
      "hit": false,
      "t": 138937.5,
      "d": 168.75,
      "v": 100
    },
    {
      "midi": 42,
      "hit": false,
      "t": 139125,
      "d": 15.625,
      "v": 80
    },
    {
      "midi": 63,
      "hit": false,
      "t": 139125,
      "d": 168.75,
      "v": 100
    },
    {
      "midi": 71,
      "hit": false,
      "t": 139312.5,
      "d": 168.75,
      "v": 100
    },
    {
      "midi": 42,
      "hit": false,
      "t": 139500,
      "d": 15.625,
      "v": 80
    },
    {
      "midi": 43,
      "hit": false,
      "t": 139500,
      "d": 15.625,
      "v": 80
    },
    {
      "midi": 69,
      "hit": false,
      "t": 139500,
      "d": 675,
      "v": 100
    },
    {
      "midi": 84,
      "hit": false,
      "t": 139500,
      "d": 1350,
      "v": 100
    },
    {
      "midi": 66,
      "hit": false,
      "t": 139500,
      "d": 1350,
      "v": 100
    },
    {
      "midi": 60,
      "hit": false,
      "t": 139500,
      "d": 1350,
      "v": 100
    },
    {
      "midi": 48,
      "hit": false,
      "t": 139500,
      "d": 1350,
      "v": 100
    },
    {
      "midi": 42,
      "hit": false,
      "t": 139875,
      "d": 15.625,
      "v": 80
    },
    {
      "midi": 43,
      "hit": false,
      "t": 139875,
      "d": 15.625,
      "v": 80
    },
    {
      "midi": 42,
      "hit": false,
      "t": 140250,
      "d": 15.625,
      "v": 80
    },
    {
      "midi": 38,
      "hit": false,
      "t": 140250,
      "d": 15.625,
      "v": 80
    },
    {
      "midi": 68,
      "hit": false,
      "t": 140250,
      "d": 506.25,
      "v": 100
    },
    {
      "midi": 42,
      "hit": false,
      "t": 140625,
      "d": 15.625,
      "v": 80
    },
    {
      "midi": 69,
      "hit": false,
      "t": 140812.5,
      "d": 937.5,
      "v": 100
    },
    {
      "midi": 42,
      "hit": false,
      "t": 141000,
      "d": 15.625,
      "v": 80
    },
    {
      "midi": 43,
      "hit": false,
      "t": 141000,
      "d": 15.625,
      "v": 80
    },
    {
      "midi": 57,
      "hit": false,
      "t": 141000,
      "d": 1350,
      "v": 100
    },
    {
      "midi": 61,
      "hit": false,
      "t": 141000,
      "d": 1350,
      "v": 100
    },
    {
      "midi": 54,
      "hit": false,
      "t": 141000,
      "d": 1350,
      "v": 100
    },
    {
      "midi": 64,
      "hit": false,
      "t": 141000,
      "d": 1350,
      "v": 100
    },
    {
      "midi": 42,
      "hit": false,
      "t": 141375,
      "d": 15.625,
      "v": 80
    },
    {
      "midi": 88,
      "hit": false,
      "t": 141375,
      "d": 168.75,
      "v": 100
    },
    {
      "midi": 87,
      "hit": false,
      "t": 141562.5,
      "d": 168.75,
      "v": 100
    },
    {
      "midi": 42,
      "hit": false,
      "t": 141750,
      "d": 15.625,
      "v": 80
    },
    {
      "midi": 38,
      "hit": false,
      "t": 141750,
      "d": 15.625,
      "v": 80
    },
    {
      "midi": 83,
      "hit": false,
      "t": 141750,
      "d": 168.75,
      "v": 100
    },
    {
      "midi": 69,
      "hit": false,
      "t": 141750,
      "d": 337.5,
      "v": 100
    },
    {
      "midi": 80,
      "hit": false,
      "t": 141937.5,
      "d": 168.75,
      "v": 100
    },
    {
      "midi": 42,
      "hit": false,
      "t": 142125,
      "d": 15.625,
      "v": 80
    },
    {
      "midi": 71,
      "hit": false,
      "t": 142125,
      "d": 168.75,
      "v": 100
    },
    {
      "midi": 76,
      "hit": false,
      "t": 142125,
      "d": 168.75,
      "v": 100
    },
    {
      "midi": 73,
      "hit": false,
      "t": 142312.5,
      "d": 168.75,
      "v": 100
    },
    {
      "midi": 68,
      "hit": false,
      "t": 142312.5,
      "d": 862.5,
      "v": 100
    },
    {
      "midi": 42,
      "hit": false,
      "t": 142500,
      "d": 15.625,
      "v": 80
    },
    {
      "midi": 43,
      "hit": false,
      "t": 142500,
      "d": 15.625,
      "v": 80
    },
    {
      "midi": 71,
      "hit": false,
      "t": 142500,
      "d": 675,
      "v": 100
    },
    {
      "midi": 63,
      "hit": false,
      "t": 142500,
      "d": 1350,
      "v": 100
    },
    {
      "midi": 56,
      "hit": false,
      "t": 142500,
      "d": 1350,
      "v": 100
    },
    {
      "midi": 59,
      "hit": false,
      "t": 142500,
      "d": 1350,
      "v": 100
    },
    {
      "midi": 44,
      "hit": false,
      "t": 142500,
      "d": 1350,
      "v": 100
    },
    {
      "midi": 42,
      "hit": false,
      "t": 142875,
      "d": 15.625,
      "v": 80
    },
    {
      "midi": 43,
      "hit": false,
      "t": 142875,
      "d": 15.625,
      "v": 80
    },
    {
      "midi": 42,
      "hit": false,
      "t": 143250,
      "d": 15.625,
      "v": 80
    },
    {
      "midi": 38,
      "hit": false,
      "t": 143250,
      "d": 15.625,
      "v": 80
    },
    {
      "midi": 66,
      "hit": false,
      "t": 143250,
      "d": 337.5,
      "v": 100
    },
    {
      "midi": 80,
      "hit": false,
      "t": 143250,
      "d": 675,
      "v": 100
    },
    {
      "midi": 71,
      "hit": false,
      "t": 143250,
      "d": 675,
      "v": 100
    },
    {
      "midi": 42,
      "hit": false,
      "t": 143625,
      "d": 15.625,
      "v": 80
    },
    {
      "midi": 64,
      "hit": false,
      "t": 143625,
      "d": 337.5,
      "v": 100
    },
    {
      "midi": 42,
      "hit": false,
      "t": 144000,
      "d": 15.625,
      "v": 80
    },
    {
      "midi": 43,
      "hit": false,
      "t": 144000,
      "d": 15.625,
      "v": 80
    },
    {
      "midi": 68,
      "hit": false,
      "t": 144000,
      "d": 337.5,
      "v": 100
    },
    {
      "midi": 76,
      "hit": false,
      "t": 144000,
      "d": 675,
      "v": 100
    },
    {
      "midi": 57,
      "hit": false,
      "t": 144000,
      "d": 1350,
      "v": 100
    },
    {
      "midi": 61,
      "hit": false,
      "t": 144000,
      "d": 1350,
      "v": 100
    },
    {
      "midi": 45,
      "hit": false,
      "t": 144000,
      "d": 1350,
      "v": 100
    },
    {
      "midi": 83,
      "hit": false,
      "t": 144000,
      "d": 2025,
      "v": 100
    },
    {
      "midi": 42,
      "hit": false,
      "t": 144375,
      "d": 15.625,
      "v": 80
    },
    {
      "midi": 69,
      "hit": false,
      "t": 144375,
      "d": 168.75,
      "v": 100
    },
    {
      "midi": 66,
      "hit": false,
      "t": 144562.5,
      "d": 356.25,
      "v": 100
    },
    {
      "midi": 42,
      "hit": false,
      "t": 144750,
      "d": 15.625,
      "v": 80
    },
    {
      "midi": 38,
      "hit": false,
      "t": 144750,
      "d": 15.625,
      "v": 80
    },
    {
      "midi": 75,
      "hit": false,
      "t": 144750,
      "d": 675,
      "v": 100
    },
    {
      "midi": 64,
      "hit": false,
      "t": 144937.5,
      "d": 356.25,
      "v": 100
    },
    {
      "midi": 42,
      "hit": false,
      "t": 145125,
      "d": 15.625,
      "v": 80
    },
    {
      "midi": 42,
      "hit": false,
      "t": 145500,
      "d": 15.625,
      "v": 80
    },
    {
      "midi": 43,
      "hit": false,
      "t": 145500,
      "d": 15.625,
      "v": 80
    },
    {
      "midi": 66,
      "hit": false,
      "t": 145500,
      "d": 675,
      "v": 100
    },
    {
      "midi": 71,
      "hit": false,
      "t": 145500,
      "d": 675,
      "v": 100
    },
    {
      "midi": 59,
      "hit": false,
      "t": 145500,
      "d": 675,
      "v": 100
    },
    {
      "midi": 63,
      "hit": false,
      "t": 145500,
      "d": 675,
      "v": 100
    },
    {
      "midi": 47,
      "hit": false,
      "t": 145500,
      "d": 675,
      "v": 100
    },
    {
      "midi": 42,
      "hit": false,
      "t": 145875,
      "d": 15.625,
      "v": 80
    },
    {
      "midi": 43,
      "hit": false,
      "t": 145875,
      "d": 15.625,
      "v": 80
    },
    {
      "midi": 42,
      "hit": false,
      "t": 146250,
      "d": 15.625,
      "v": 80
    },
    {
      "midi": 38,
      "hit": false,
      "t": 146250,
      "d": 15.625,
      "v": 80
    },
    {
      "midi": 68,
      "hit": false,
      "t": 146250,
      "d": 337.5,
      "v": 100
    },
    {
      "midi": 72,
      "hit": false,
      "t": 146250,
      "d": 675,
      "v": 100
    },
    {
      "midi": 84,
      "hit": false,
      "t": 146250,
      "d": 675,
      "v": 100
    },
    {
      "midi": 66,
      "hit": false,
      "t": 146250,
      "d": 675,
      "v": 100
    },
    {
      "midi": 60,
      "hit": false,
      "t": 146250,
      "d": 675,
      "v": 100
    },
    {
      "midi": 48,
      "hit": false,
      "t": 146250,
      "d": 675,
      "v": 100
    },
    {
      "midi": 42,
      "hit": false,
      "t": 146625,
      "d": 15.625,
      "v": 80
    },
    {
      "midi": 63,
      "hit": false,
      "t": 146625,
      "d": 168.75,
      "v": 100
    },
    {
      "midi": 42,
      "hit": false,
      "t": 147000,
      "d": 15.625,
      "v": 80
    },
    {
      "midi": 43,
      "hit": false,
      "t": 147000,
      "d": 15.625,
      "v": 80
    },
    {
      "midi": 64,
      "hit": false,
      "t": 147000,
      "d": 675,
      "v": 100
    },
    {
      "midi": 73,
      "hit": false,
      "t": 147000,
      "d": 1350,
      "v": 100
    },
    {
      "midi": 49,
      "hit": false,
      "t": 147000,
      "d": 1350,
      "v": 100
    },
    {
      "midi": 42,
      "hit": false,
      "t": 147375,
      "d": 15.625,
      "v": 80
    },
    {
      "midi": 42,
      "hit": false,
      "t": 147750,
      "d": 15.625,
      "v": 80
    },
    {
      "midi": 38,
      "hit": false,
      "t": 147750,
      "d": 15.625,
      "v": 80
    },
    {
      "midi": 68,
      "hit": false,
      "t": 147750,
      "d": 337.5,
      "v": 100
    },
    {
      "midi": 42,
      "hit": false,
      "t": 148125,
      "d": 15.625,
      "v": 80
    },
    {
      "midi": 61,
      "hit": false,
      "t": 148125,
      "d": 168.75,
      "v": 100
    },
    {
      "midi": 63,
      "hit": false,
      "t": 148312.5,
      "d": 862.5,
      "v": 100
    },
    {
      "midi": 42,
      "hit": false,
      "t": 148500,
      "d": 15.625,
      "v": 80
    },
    {
      "midi": 43,
      "hit": false,
      "t": 148500,
      "d": 15.625,
      "v": 80
    },
    {
      "midi": 75,
      "hit": false,
      "t": 148500,
      "d": 1350,
      "v": 100
    },
    {
      "midi": 60,
      "hit": false,
      "t": 148500,
      "d": 1350,
      "v": 100
    },
    {
      "midi": 48,
      "hit": false,
      "t": 148500,
      "d": 1350,
      "v": 100
    },
    {
      "midi": 42,
      "hit": false,
      "t": 148875,
      "d": 15.625,
      "v": 80
    },
    {
      "midi": 43,
      "hit": false,
      "t": 148875,
      "d": 15.625,
      "v": 80
    },
    {
      "midi": 42,
      "hit": false,
      "t": 149250,
      "d": 15.625,
      "v": 80
    },
    {
      "midi": 38,
      "hit": false,
      "t": 149250,
      "d": 15.625,
      "v": 80
    },
    {
      "midi": 68,
      "hit": false,
      "t": 149250,
      "d": 337.5,
      "v": 100
    },
    {
      "midi": 42,
      "hit": false,
      "t": 149625,
      "d": 15.625,
      "v": 80
    },
    {
      "midi": 63,
      "hit": false,
      "t": 149625,
      "d": 168.75,
      "v": 100
    },
    {
      "midi": 64,
      "hit": false,
      "t": 149812.5,
      "d": 37.5,
      "v": 100
    },
    {
      "midi": 42,
      "hit": false,
      "t": 150000,
      "d": 15.625,
      "v": 80
    },
    {
      "midi": 43,
      "hit": false,
      "t": 150000,
      "d": 15.625,
      "v": 80
    },
    {
      "midi": 64,
      "hit": false,
      "t": 150000,
      "d": 337.5,
      "v": 100
    },
    {
      "midi": 59,
      "hit": false,
      "t": 150000,
      "d": 675,
      "v": 100
    },
    {
      "midi": 68,
      "hit": false,
      "t": 150000,
      "d": 675,
      "v": 100
    },
    {
      "midi": 76,
      "hit": false,
      "t": 150000,
      "d": 1350,
      "v": 100
    },
    {
      "midi": 47,
      "hit": false,
      "t": 150000,
      "d": 1350,
      "v": 100
    },
    {
      "midi": 42,
      "hit": false,
      "t": 150375,
      "d": 15.625,
      "v": 80
    },
    {
      "midi": 63,
      "hit": false,
      "t": 150375,
      "d": 337.5,
      "v": 100
    },
    {
      "midi": 42,
      "hit": false,
      "t": 150750,
      "d": 15.625,
      "v": 80
    },
    {
      "midi": 38,
      "hit": false,
      "t": 150750,
      "d": 15.625,
      "v": 80
    },
    {
      "midi": 64,
      "hit": false,
      "t": 150750,
      "d": 337.5,
      "v": 100
    },
    {
      "midi": 56,
      "hit": false,
      "t": 150750,
      "d": 337.5,
      "v": 100
    },
    {
      "midi": 42,
      "hit": false,
      "t": 151125,
      "d": 15.625,
      "v": 80
    },
    {
      "midi": 68,
      "hit": false,
      "t": 151125,
      "d": 337.5,
      "v": 100
    },
    {
      "midi": 61,
      "hit": false,
      "t": 151125,
      "d": 337.5,
      "v": 100
    },
    {
      "midi": 42,
      "hit": false,
      "t": 151500,
      "d": 15.625,
      "v": 80
    },
    {
      "midi": 43,
      "hit": false,
      "t": 151500,
      "d": 15.625,
      "v": 80
    },
    {
      "midi": 61,
      "hit": false,
      "t": 151500,
      "d": 337.5,
      "v": 100
    },
    {
      "midi": 78,
      "hit": false,
      "t": 151500,
      "d": 1350,
      "v": 100
    },
    {
      "midi": 66,
      "hit": false,
      "t": 151500,
      "d": 1350,
      "v": 100
    },
    {
      "midi": 58,
      "hit": false,
      "t": 151500,
      "d": 1350,
      "v": 100
    },
    {
      "midi": 46,
      "hit": false,
      "t": 151500,
      "d": 1350,
      "v": 100
    },
    {
      "midi": 42,
      "hit": false,
      "t": 151875,
      "d": 15.625,
      "v": 80
    },
    {
      "midi": 43,
      "hit": false,
      "t": 151875,
      "d": 15.625,
      "v": 80
    },
    {
      "midi": 63,
      "hit": false,
      "t": 151875,
      "d": 168.75,
      "v": 100
    },
    {
      "midi": 64,
      "hit": false,
      "t": 152062.5,
      "d": 168.75,
      "v": 100
    },
    {
      "midi": 42,
      "hit": false,
      "t": 152250,
      "d": 15.625,
      "v": 80
    },
    {
      "midi": 38,
      "hit": false,
      "t": 152250,
      "d": 15.625,
      "v": 80
    },
    {
      "midi": 61,
      "hit": false,
      "t": 152437.5,
      "d": 168.75,
      "v": 100
    },
    {
      "midi": 42,
      "hit": false,
      "t": 152625,
      "d": 15.625,
      "v": 80
    },
    {
      "midi": 63,
      "hit": false,
      "t": 152625,
      "d": 168.75,
      "v": 100
    },
    {
      "midi": 64,
      "hit": false,
      "t": 152812.5,
      "d": 168.75,
      "v": 100
    },
    {
      "midi": 42,
      "hit": false,
      "t": 153000,
      "d": 15.625,
      "v": 80
    },
    {
      "midi": 43,
      "hit": false,
      "t": 153000,
      "d": 15.625,
      "v": 80
    },
    {
      "midi": 71,
      "hit": false,
      "t": 153000,
      "d": 337.5,
      "v": 100
    },
    {
      "midi": 81,
      "hit": false,
      "t": 153000,
      "d": 1350,
      "v": 100
    },
    {
      "midi": 64,
      "hit": false,
      "t": 153000,
      "d": 1350,
      "v": 100
    },
    {
      "midi": 57,
      "hit": false,
      "t": 153000,
      "d": 1350,
      "v": 100
    },
    {
      "midi": 61,
      "hit": false,
      "t": 153000,
      "d": 1350,
      "v": 100
    },
    {
      "midi": 45,
      "hit": false,
      "t": 153000,
      "d": 1350,
      "v": 100
    },
    {
      "midi": 42,
      "hit": false,
      "t": 153375,
      "d": 15.625,
      "v": 80
    },
    {
      "midi": 69,
      "hit": false,
      "t": 153375,
      "d": 337.5,
      "v": 100
    },
    {
      "midi": 42,
      "hit": false,
      "t": 153750,
      "d": 15.625,
      "v": 80
    },
    {
      "midi": 38,
      "hit": false,
      "t": 153750,
      "d": 15.625,
      "v": 80
    },
    {
      "midi": 69,
      "hit": false,
      "t": 153750,
      "d": 337.5,
      "v": 100
    },
    {
      "midi": 42,
      "hit": false,
      "t": 154125,
      "d": 15.625,
      "v": 80
    },
    {
      "midi": 68,
      "hit": false,
      "t": 154125,
      "d": 168.75,
      "v": 100
    },
    {
      "midi": 49,
      "hit": false,
      "t": 154500,
      "d": 15.625,
      "v": 80
    },
    {
      "midi": 66,
      "hit": false,
      "t": 154500,
      "d": 337.5,
      "v": 100
    },
    {
      "midi": 83,
      "hit": false,
      "t": 154500,
      "d": 1350,
      "v": 100
    },
    {
      "midi": 59,
      "hit": false,
      "t": 154500,
      "d": 1350,
      "v": 100
    },
    {
      "midi": 47,
      "hit": false,
      "t": 154500,
      "d": 1350,
      "v": 100
    },
    {
      "midi": 64,
      "hit": false,
      "t": 154875,
      "d": 168.75,
      "v": 100
    },
    {
      "midi": 63,
      "hit": false,
      "t": 155062.5,
      "d": 356.25,
      "v": 100
    },
    {
      "midi": 64,
      "hit": false,
      "t": 155437.5,
      "d": 356.25,
      "v": 100
    },
    {
      "midi": 66,
      "hit": false,
      "t": 155812.5,
      "d": 37.5,
      "v": 100
    },
    {
      "midi": 42,
      "hit": false,
      "t": 156000,
      "d": 15.625,
      "v": 80
    },
    {
      "midi": 43,
      "hit": false,
      "t": 156000,
      "d": 15.625,
      "v": 80
    },
    {
      "midi": 64,
      "hit": false,
      "t": 156000,
      "d": 675,
      "v": 100
    },
    {
      "midi": 59,
      "hit": false,
      "t": 156000,
      "d": 675,
      "v": 100
    },
    {
      "midi": 68,
      "hit": false,
      "t": 156000,
      "d": 1350,
      "v": 100
    },
    {
      "midi": 44,
      "hit": false,
      "t": 156000,
      "d": 1350,
      "v": 100
    },
    {
      "midi": 56,
      "hit": false,
      "t": 156000,
      "d": 1350,
      "v": 100
    },
    {
      "midi": 42,
      "hit": false,
      "t": 156375,
      "d": 15.625,
      "v": 80
    },
    {
      "midi": 42,
      "hit": false,
      "t": 156750,
      "d": 15.625,
      "v": 80
    },
    {
      "midi": 38,
      "hit": false,
      "t": 156750,
      "d": 15.625,
      "v": 80
    },
    {
      "midi": 66,
      "hit": false,
      "t": 156750,
      "d": 675,
      "v": 127
    },
    {
      "midi": 42,
      "hit": false,
      "t": 157125,
      "d": 15.625,
      "v": 80
    },
    {
      "midi": 42,
      "hit": false,
      "t": 157500,
      "d": 15.625,
      "v": 80
    },
    {
      "midi": 43,
      "hit": false,
      "t": 157500,
      "d": 15.625,
      "v": 80
    },
    {
      "midi": 64,
      "hit": false,
      "t": 157500,
      "d": 506.25,
      "v": 100
    },
    {
      "midi": 73,
      "hit": false,
      "t": 157500,
      "d": 1350,
      "v": 100
    },
    {
      "midi": 45,
      "hit": false,
      "t": 157500,
      "d": 1350,
      "v": 100
    },
    {
      "midi": 61,
      "hit": false,
      "t": 157500,
      "d": 1350,
      "v": 100
    },
    {
      "midi": 42,
      "hit": false,
      "t": 157875,
      "d": 15.625,
      "v": 80
    },
    {
      "midi": 43,
      "hit": false,
      "t": 157875,
      "d": 15.625,
      "v": 80
    },
    {
      "midi": 63,
      "hit": false,
      "t": 158062.5,
      "d": 525,
      "v": 127
    },
    {
      "midi": 42,
      "hit": false,
      "t": 158250,
      "d": 15.625,
      "v": 80
    },
    {
      "midi": 38,
      "hit": false,
      "t": 158250,
      "d": 15.625,
      "v": 80
    },
    {
      "midi": 42,
      "hit": false,
      "t": 158625,
      "d": 15.625,
      "v": 80
    },
    {
      "midi": 64,
      "hit": false,
      "t": 158625,
      "d": 225,
      "v": 127
    },
    {
      "midi": 42,
      "hit": false,
      "t": 159000,
      "d": 15.625,
      "v": 80
    },
    {
      "midi": 43,
      "hit": false,
      "t": 159000,
      "d": 15.625,
      "v": 80
    },
    {
      "midi": 61,
      "hit": false,
      "t": 159000,
      "d": 675,
      "v": 100
    },
    {
      "midi": 70,
      "hit": false,
      "t": 159000,
      "d": 1350,
      "v": 100
    },
    {
      "midi": 46,
      "hit": false,
      "t": 159000,
      "d": 1350,
      "v": 100
    },
    {
      "midi": 58,
      "hit": false,
      "t": 159000,
      "d": 1350,
      "v": 100
    },
    {
      "midi": 42,
      "hit": false,
      "t": 159375,
      "d": 15.625,
      "v": 80
    },
    {
      "midi": 42,
      "hit": false,
      "t": 159750,
      "d": 15.625,
      "v": 80
    },
    {
      "midi": 38,
      "hit": false,
      "t": 159750,
      "d": 15.625,
      "v": 80
    },
    {
      "midi": 68,
      "hit": false,
      "t": 159750,
      "d": 675,
      "v": 127
    },
    {
      "midi": 42,
      "hit": false,
      "t": 160125,
      "d": 15.625,
      "v": 80
    },
    {
      "midi": 42,
      "hit": false,
      "t": 160500,
      "d": 15.625,
      "v": 80
    },
    {
      "midi": 43,
      "hit": false,
      "t": 160500,
      "d": 15.625,
      "v": 80
    },
    {
      "midi": 66,
      "hit": false,
      "t": 160500,
      "d": 506.25,
      "v": 127
    },
    {
      "midi": 71,
      "hit": false,
      "t": 160500,
      "d": 1350,
      "v": 100
    },
    {
      "midi": 47,
      "hit": false,
      "t": 160500,
      "d": 1350,
      "v": 100
    },
    {
      "midi": 59,
      "hit": false,
      "t": 160500,
      "d": 1350,
      "v": 100
    },
    {
      "midi": 63,
      "hit": false,
      "t": 160500,
      "d": 1350,
      "v": 100
    },
    {
      "midi": 42,
      "hit": false,
      "t": 160875,
      "d": 15.625,
      "v": 80
    },
    {
      "midi": 43,
      "hit": false,
      "t": 160875,
      "d": 15.625,
      "v": 80
    },
    {
      "midi": 64,
      "hit": false,
      "t": 161062.5,
      "d": 525,
      "v": 127
    },
    {
      "midi": 42,
      "hit": false,
      "t": 161250,
      "d": 15.625,
      "v": 80
    },
    {
      "midi": 38,
      "hit": false,
      "t": 161250,
      "d": 15.625,
      "v": 80
    },
    {
      "midi": 42,
      "hit": false,
      "t": 161625,
      "d": 15.625,
      "v": 80
    },
    {
      "midi": 66,
      "hit": false,
      "t": 161625,
      "d": 337.5,
      "v": 127
    },
    {
      "midi": 42,
      "hit": false,
      "t": 162000,
      "d": 15.625,
      "v": 80
    },
    {
      "midi": 43,
      "hit": false,
      "t": 162000,
      "d": 15.625,
      "v": 80
    },
    {
      "midi": 63,
      "hit": false,
      "t": 162000,
      "d": 675,
      "v": 100
    },
    {
      "midi": 72,
      "hit": false,
      "t": 162000,
      "d": 1350,
      "v": 100
    },
    {
      "midi": 48,
      "hit": false,
      "t": 162000,
      "d": 1350,
      "v": 100
    },
    {
      "midi": 60,
      "hit": false,
      "t": 162000,
      "d": 1350,
      "v": 100
    },
    {
      "midi": 42,
      "hit": false,
      "t": 162375,
      "d": 15.625,
      "v": 80
    },
    {
      "midi": 42,
      "hit": false,
      "t": 162750,
      "d": 15.625,
      "v": 80
    },
    {
      "midi": 38,
      "hit": false,
      "t": 162750,
      "d": 15.625,
      "v": 80
    },
    {
      "midi": 71,
      "hit": false,
      "t": 162750,
      "d": 675,
      "v": 127
    },
    {
      "midi": 42,
      "hit": false,
      "t": 163125,
      "d": 15.625,
      "v": 80
    },
    {
      "midi": 42,
      "hit": false,
      "t": 163500,
      "d": 15.625,
      "v": 80
    },
    {
      "midi": 43,
      "hit": false,
      "t": 163500,
      "d": 15.625,
      "v": 80
    },
    {
      "midi": 69,
      "hit": false,
      "t": 163500,
      "d": 506.25,
      "v": 127
    },
    {
      "midi": 73,
      "hit": false,
      "t": 163500,
      "d": 1350,
      "v": 100
    },
    {
      "midi": 49,
      "hit": false,
      "t": 163500,
      "d": 1350,
      "v": 100
    },
    {
      "midi": 61,
      "hit": false,
      "t": 163500,
      "d": 1350,
      "v": 100
    },
    {
      "midi": 64,
      "hit": false,
      "t": 163500,
      "d": 1350,
      "v": 100
    },
    {
      "midi": 42,
      "hit": false,
      "t": 163875,
      "d": 15.625,
      "v": 80
    },
    {
      "midi": 43,
      "hit": false,
      "t": 163875,
      "d": 15.625,
      "v": 80
    },
    {
      "midi": 68,
      "hit": false,
      "t": 164062.5,
      "d": 168.75,
      "v": 127
    },
    {
      "midi": 42,
      "hit": false,
      "t": 164250,
      "d": 15.625,
      "v": 80
    },
    {
      "midi": 38,
      "hit": false,
      "t": 164250,
      "d": 15.625,
      "v": 80
    },
    {
      "midi": 42,
      "hit": false,
      "t": 164625,
      "d": 15.625,
      "v": 80
    },
    {
      "midi": 68,
      "hit": false,
      "t": 164625,
      "d": 168.75,
      "v": 100
    },
    {
      "midi": 69,
      "hit": false,
      "t": 164812.5,
      "d": 168.75,
      "v": 100
    },
    {
      "midi": 42,
      "hit": false,
      "t": 165000,
      "d": 15.625,
      "v": 80
    },
    {
      "midi": 43,
      "hit": false,
      "t": 165000,
      "d": 15.625,
      "v": 80
    },
    {
      "midi": 71,
      "hit": false,
      "t": 165000,
      "d": 506.25,
      "v": 100
    },
    {
      "midi": 75,
      "hit": false,
      "t": 165000,
      "d": 1350,
      "v": 100
    },
    {
      "midi": 51,
      "hit": false,
      "t": 165000,
      "d": 1350,
      "v": 100
    },
    {
      "midi": 69,
      "hit": false,
      "t": 165000,
      "d": 1350,
      "v": 100
    },
    {
      "midi": 63,
      "hit": false,
      "t": 165000,
      "d": 1350,
      "v": 100
    },
    {
      "midi": 66,
      "hit": false,
      "t": 165000,
      "d": 1350,
      "v": 100
    },
    {
      "midi": 42,
      "hit": false,
      "t": 165375,
      "d": 15.625,
      "v": 80
    },
    {
      "midi": 73,
      "hit": false,
      "t": 165562.5,
      "d": 525,
      "v": 100
    },
    {
      "midi": 42,
      "hit": false,
      "t": 165750,
      "d": 15.625,
      "v": 80
    },
    {
      "midi": 38,
      "hit": false,
      "t": 165750,
      "d": 15.625,
      "v": 80
    },
    {
      "midi": 42,
      "hit": false,
      "t": 166125,
      "d": 15.625,
      "v": 80
    },
    {
      "midi": 71,
      "hit": false,
      "t": 166125,
      "d": 337.5,
      "v": 100
    },
    {
      "midi": 42,
      "hit": false,
      "t": 166500,
      "d": 15.625,
      "v": 80
    },
    {
      "midi": 43,
      "hit": false,
      "t": 166500,
      "d": 15.625,
      "v": 80
    },
    {
      "midi": 69,
      "hit": false,
      "t": 166500,
      "d": 506.25,
      "v": 100
    },
    {
      "midi": 73,
      "hit": false,
      "t": 166500,
      "d": 1350,
      "v": 100
    },
    {
      "midi": 49,
      "hit": false,
      "t": 166500,
      "d": 1350,
      "v": 100
    },
    {
      "midi": 61,
      "hit": false,
      "t": 166500,
      "d": 1350,
      "v": 100
    },
    {
      "midi": 42,
      "hit": false,
      "t": 166875,
      "d": 15.625,
      "v": 80
    },
    {
      "midi": 43,
      "hit": false,
      "t": 166875,
      "d": 15.625,
      "v": 80
    },
    {
      "midi": 64,
      "hit": false,
      "t": 167062.5,
      "d": 525,
      "v": 100
    },
    {
      "midi": 42,
      "hit": false,
      "t": 167250,
      "d": 15.625,
      "v": 80
    },
    {
      "midi": 38,
      "hit": false,
      "t": 167250,
      "d": 15.625,
      "v": 80
    },
    {
      "midi": 42,
      "hit": false,
      "t": 167625,
      "d": 15.625,
      "v": 80
    },
    {
      "midi": 64,
      "hit": false,
      "t": 167625,
      "d": 168.75,
      "v": 100
    },
    {
      "midi": 66,
      "hit": false,
      "t": 167812.5,
      "d": 168.75,
      "v": 100
    },
    {
      "midi": 42,
      "hit": false,
      "t": 168000,
      "d": 15.625,
      "v": 80
    },
    {
      "midi": 43,
      "hit": false,
      "t": 168000,
      "d": 15.625,
      "v": 80
    },
    {
      "midi": 67,
      "hit": false,
      "t": 168000,
      "d": 506.25,
      "v": 100
    },
    {
      "midi": 72,
      "hit": false,
      "t": 168000,
      "d": 1350,
      "v": 100
    },
    {
      "midi": 48,
      "hit": false,
      "t": 168000,
      "d": 1350,
      "v": 100
    },
    {
      "midi": 60,
      "hit": false,
      "t": 168000,
      "d": 1350,
      "v": 100
    },
    {
      "midi": 64,
      "hit": false,
      "t": 168000,
      "d": 1350,
      "v": 100
    },
    {
      "midi": 42,
      "hit": false,
      "t": 168375,
      "d": 15.625,
      "v": 80
    },
    {
      "midi": 69,
      "hit": false,
      "t": 168562.5,
      "d": 525,
      "v": 100
    },
    {
      "midi": 42,
      "hit": false,
      "t": 168750,
      "d": 15.625,
      "v": 80
    },
    {
      "midi": 38,
      "hit": false,
      "t": 168750,
      "d": 15.625,
      "v": 80
    },
    {
      "midi": 42,
      "hit": false,
      "t": 169125,
      "d": 15.625,
      "v": 80
    },
    {
      "midi": 71,
      "hit": false,
      "t": 169125,
      "d": 375,
      "v": 100
    },
    {
      "midi": 42,
      "hit": false,
      "t": 169500,
      "d": 15.625,
      "v": 80
    },
    {
      "midi": 43,
      "hit": false,
      "t": 169500,
      "d": 15.625,
      "v": 80
    },
    {
      "midi": 67,
      "hit": false,
      "t": 169500,
      "d": 506.25,
      "v": 100
    },
    {
      "midi": 71,
      "hit": false,
      "t": 169500,
      "d": 1350,
      "v": 100
    },
    {
      "midi": 47,
      "hit": false,
      "t": 169500,
      "d": 1350,
      "v": 100
    },
    {
      "midi": 59,
      "hit": false,
      "t": 169500,
      "d": 1350,
      "v": 100
    },
    {
      "midi": 42,
      "hit": false,
      "t": 169875,
      "d": 15.625,
      "v": 80
    },
    {
      "midi": 43,
      "hit": false,
      "t": 169875,
      "d": 15.625,
      "v": 80
    },
    {
      "midi": 62,
      "hit": false,
      "t": 170062.5,
      "d": 862.5,
      "v": 100
    },
    {
      "midi": 42,
      "hit": false,
      "t": 170250,
      "d": 15.625,
      "v": 80
    },
    {
      "midi": 38,
      "hit": false,
      "t": 170250,
      "d": 15.625,
      "v": 80
    },
    {
      "midi": 42,
      "hit": false,
      "t": 170625,
      "d": 15.625,
      "v": 80
    },
    {
      "midi": 42,
      "hit": false,
      "t": 171000,
      "d": 15.625,
      "v": 80
    },
    {
      "midi": 43,
      "hit": false,
      "t": 171000,
      "d": 15.625,
      "v": 80
    },
    {
      "midi": 61,
      "hit": false,
      "t": 171000,
      "d": 506.25,
      "v": 100
    },
    {
      "midi": 69,
      "hit": false,
      "t": 171000,
      "d": 1350,
      "v": 100
    },
    {
      "midi": 45,
      "hit": false,
      "t": 171000,
      "d": 1350,
      "v": 100
    },
    {
      "midi": 57,
      "hit": false,
      "t": 171000,
      "d": 1350,
      "v": 100
    },
    {
      "midi": 42,
      "hit": false,
      "t": 171375,
      "d": 15.625,
      "v": 80
    },
    {
      "midi": 63,
      "hit": false,
      "t": 171562.5,
      "d": 525,
      "v": 127
    },
    {
      "midi": 42,
      "hit": false,
      "t": 171750,
      "d": 15.625,
      "v": 80
    },
    {
      "midi": 38,
      "hit": false,
      "t": 171750,
      "d": 15.625,
      "v": 80
    },
    {
      "midi": 42,
      "hit": false,
      "t": 172125,
      "d": 15.625,
      "v": 80
    },
    {
      "midi": 64,
      "hit": false,
      "t": 172125,
      "d": 225,
      "v": 127
    },
    {
      "midi": 42,
      "hit": false,
      "t": 172500,
      "d": 15.625,
      "v": 80
    },
    {
      "midi": 43,
      "hit": false,
      "t": 172500,
      "d": 15.625,
      "v": 80
    },
    {
      "midi": 63,
      "hit": false,
      "t": 172500,
      "d": 506.25,
      "v": 100
    },
    {
      "midi": 69,
      "hit": false,
      "t": 172500,
      "d": 1350,
      "v": 100
    },
    {
      "midi": 45,
      "hit": false,
      "t": 172500,
      "d": 1350,
      "v": 100
    },
    {
      "midi": 59,
      "hit": false,
      "t": 172500,
      "d": 1350,
      "v": 100
    },
    {
      "midi": 42,
      "hit": false,
      "t": 172875,
      "d": 15.625,
      "v": 80
    },
    {
      "midi": 43,
      "hit": false,
      "t": 172875,
      "d": 15.625,
      "v": 80
    },
    {
      "midi": 64,
      "hit": false,
      "t": 173062.5,
      "d": 525,
      "v": 127
    },
    {
      "midi": 42,
      "hit": false,
      "t": 173250,
      "d": 15.625,
      "v": 80
    },
    {
      "midi": 38,
      "hit": false,
      "t": 173250,
      "d": 15.625,
      "v": 80
    },
    {
      "midi": 42,
      "hit": false,
      "t": 173625,
      "d": 15.625,
      "v": 80
    },
    {
      "midi": 66,
      "hit": false,
      "t": 173625,
      "d": 225,
      "v": 127
    },
    {
      "midi": 42,
      "hit": false,
      "t": 174000,
      "d": 15.625,
      "v": 80
    },
    {
      "midi": 43,
      "hit": false,
      "t": 174000,
      "d": 15.625,
      "v": 80
    },
    {
      "midi": 63,
      "hit": false,
      "t": 174000,
      "d": 506.25,
      "v": 100
    },
    {
      "midi": 68,
      "hit": false,
      "t": 174000,
      "d": 1350,
      "v": 100
    },
    {
      "midi": 44,
      "hit": false,
      "t": 174000,
      "d": 1350,
      "v": 100
    },
    {
      "midi": 56,
      "hit": false,
      "t": 174000,
      "d": 1350,
      "v": 100
    },
    {
      "midi": 59,
      "hit": false,
      "t": 174000,
      "d": 1350,
      "v": 100
    },
    {
      "midi": 42,
      "hit": false,
      "t": 174375,
      "d": 15.625,
      "v": 80
    },
    {
      "midi": 64,
      "hit": false,
      "t": 174562.5,
      "d": 525,
      "v": 127
    },
    {
      "midi": 42,
      "hit": false,
      "t": 174750,
      "d": 15.625,
      "v": 80
    },
    {
      "midi": 38,
      "hit": false,
      "t": 174750,
      "d": 15.625,
      "v": 80
    },
    {
      "midi": 42,
      "hit": false,
      "t": 175125,
      "d": 15.625,
      "v": 80
    },
    {
      "midi": 66,
      "hit": false,
      "t": 175125,
      "d": 337.5,
      "v": 127
    },
    {
      "midi": 42,
      "hit": false,
      "t": 175500,
      "d": 15.625,
      "v": 80
    },
    {
      "midi": 43,
      "hit": false,
      "t": 175500,
      "d": 15.625,
      "v": 80
    },
    {
      "midi": 68,
      "hit": false,
      "t": 175500,
      "d": 918.75,
      "v": 127
    },
    {
      "midi": 73,
      "hit": false,
      "t": 175500,
      "d": 1350,
      "v": 100
    },
    {
      "midi": 49,
      "hit": false,
      "t": 175500,
      "d": 1350,
      "v": 100
    },
    {
      "midi": 56,
      "hit": false,
      "t": 175500,
      "d": 1350,
      "v": 100
    },
    {
      "midi": 61,
      "hit": false,
      "t": 175500,
      "d": 1350,
      "v": 100
    },
    {
      "midi": 42,
      "hit": false,
      "t": 175875,
      "d": 15.625,
      "v": 80
    },
    {
      "midi": 43,
      "hit": false,
      "t": 175875,
      "d": 15.625,
      "v": 80
    },
    {
      "midi": 42,
      "hit": false,
      "t": 176250,
      "d": 15.625,
      "v": 80
    },
    {
      "midi": 38,
      "hit": false,
      "t": 176250,
      "d": 15.625,
      "v": 80
    },
    {
      "midi": 59,
      "hit": false,
      "t": 176437.5,
      "d": 168.75,
      "v": 100
    },
    {
      "midi": 42,
      "hit": false,
      "t": 176625,
      "d": 15.625,
      "v": 80
    },
    {
      "midi": 64,
      "hit": false,
      "t": 176625,
      "d": 168.75,
      "v": 100
    },
    {
      "midi": 68,
      "hit": false,
      "t": 176812.5,
      "d": 168.75,
      "v": 100
    },
    {
      "midi": 42,
      "hit": false,
      "t": 177000,
      "d": 15.625,
      "v": 80
    },
    {
      "midi": 43,
      "hit": false,
      "t": 177000,
      "d": 15.625,
      "v": 80
    },
    {
      "midi": 69,
      "hit": false,
      "t": 177000,
      "d": 506.25,
      "v": 100
    },
    {
      "midi": 57,
      "hit": false,
      "t": 177000,
      "d": 1350,
      "v": 100
    },
    {
      "midi": 61,
      "hit": false,
      "t": 177000,
      "d": 1350,
      "v": 100
    },
    {
      "midi": 54,
      "hit": false,
      "t": 177000,
      "d": 1350,
      "v": 100
    },
    {
      "midi": 42,
      "hit": false,
      "t": 177375,
      "d": 15.625,
      "v": 80
    },
    {
      "midi": 68,
      "hit": false,
      "t": 177562.5,
      "d": 525,
      "v": 100
    },
    {
      "midi": 42,
      "hit": false,
      "t": 177750,
      "d": 15.625,
      "v": 80
    },
    {
      "midi": 38,
      "hit": false,
      "t": 177750,
      "d": 15.625,
      "v": 80
    },
    {
      "midi": 42,
      "hit": false,
      "t": 178125,
      "d": 15.625,
      "v": 80
    },
    {
      "midi": 66,
      "hit": false,
      "t": 178125,
      "d": 168.75,
      "v": 100
    },
    {
      "midi": 64,
      "hit": false,
      "t": 178312.5,
      "d": 37.5,
      "v": 100
    },
    {
      "midi": 42,
      "hit": false,
      "t": 178500,
      "d": 15.625,
      "v": 80
    },
    {
      "midi": 43,
      "hit": false,
      "t": 178500,
      "d": 15.625,
      "v": 80
    },
    {
      "midi": 64,
      "hit": false,
      "t": 178500,
      "d": 168.75,
      "v": 127
    },
    {
      "midi": 66,
      "hit": false,
      "t": 178500,
      "d": 1350,
      "v": 100
    },
    {
      "midi": 57,
      "hit": false,
      "t": 178687.5,
      "d": 168.75,
      "v": 127
    },
    {
      "midi": 42,
      "hit": false,
      "t": 178875,
      "d": 15.625,
      "v": 80
    },
    {
      "midi": 43,
      "hit": false,
      "t": 178875,
      "d": 15.625,
      "v": 80
    },
    {
      "midi": 56,
      "hit": false,
      "t": 178875,
      "d": 168.75,
      "v": 127
    },
    {
      "midi": 57,
      "hit": false,
      "t": 179062.5,
      "d": 168.75,
      "v": 127
    },
    {
      "midi": 42,
      "hit": false,
      "t": 179250,
      "d": 15.625,
      "v": 80
    },
    {
      "midi": 38,
      "hit": false,
      "t": 179250,
      "d": 15.625,
      "v": 80
    },
    {
      "midi": 64,
      "hit": false,
      "t": 179250,
      "d": 225,
      "v": 100
    },
    {
      "midi": 57,
      "hit": false,
      "t": 179250,
      "d": 675,
      "v": 100
    },
    {
      "midi": 61,
      "hit": false,
      "t": 179250,
      "d": 675,
      "v": 100
    },
    {
      "midi": 54,
      "hit": false,
      "t": 179250,
      "d": 675,
      "v": 100
    },
    {
      "midi": 63,
      "hit": false,
      "t": 179500,
      "d": 225,
      "v": 100
    },
    {
      "midi": 42,
      "hit": false,
      "t": 179625,
      "d": 15.625,
      "v": 80
    },
    {
      "midi": 64,
      "hit": false,
      "t": 179750,
      "d": 175,
      "v": 100
    },
    {
      "midi": 42,
      "hit": false,
      "t": 180000,
      "d": 15.625,
      "v": 80
    },
    {
      "midi": 43,
      "hit": false,
      "t": 180000,
      "d": 15.625,
      "v": 80
    },
    {
      "midi": 71,
      "hit": false,
      "t": 180000,
      "d": 918.75,
      "v": 100
    },
    {
      "midi": 47,
      "hit": false,
      "t": 180000,
      "d": 1350,
      "v": 100
    },
    {
      "midi": 66,
      "hit": false,
      "t": 180000,
      "d": 1350,
      "v": 100
    },
    {
      "midi": 59,
      "hit": false,
      "t": 180000,
      "d": 1350,
      "v": 100
    },
    {
      "midi": 63,
      "hit": false,
      "t": 180000,
      "d": 1350,
      "v": 100
    },
    {
      "midi": 42,
      "hit": false,
      "t": 180375,
      "d": 15.625,
      "v": 80
    },
    {
      "midi": 42,
      "hit": false,
      "t": 180750,
      "d": 15.625,
      "v": 80
    },
    {
      "midi": 38,
      "hit": false,
      "t": 180750,
      "d": 15.625,
      "v": 80
    },
    {
      "midi": 73,
      "hit": false,
      "t": 180937.5,
      "d": 356.25,
      "v": 100
    },
    {
      "midi": 42,
      "hit": false,
      "t": 181125,
      "d": 15.625,
      "v": 80
    },
    {
      "midi": 73,
      "hit": false,
      "t": 181312.5,
      "d": 168.75,
      "v": 100
    },
    {
      "midi": 42,
      "hit": false,
      "t": 181500,
      "d": 15.625,
      "v": 80
    },
    {
      "midi": 43,
      "hit": false,
      "t": 181500,
      "d": 15.625,
      "v": 80
    },
    {
      "midi": 71,
      "hit": false,
      "t": 181500,
      "d": 675,
      "v": 100
    },
    {
      "midi": 47,
      "hit": false,
      "t": 181500,
      "d": 675,
      "v": 100
    },
    {
      "midi": 66,
      "hit": false,
      "t": 181500,
      "d": 675,
      "v": 100
    },
    {
      "midi": 59,
      "hit": false,
      "t": 181500,
      "d": 675,
      "v": 100
    },
    {
      "midi": 63,
      "hit": false,
      "t": 181500,
      "d": 675,
      "v": 100
    },
    {
      "midi": 42,
      "hit": false,
      "t": 181875,
      "d": 15.625,
      "v": 80
    },
    {
      "midi": 43,
      "hit": false,
      "t": 181875,
      "d": 15.625,
      "v": 80
    },
    {
      "midi": 42,
      "hit": false,
      "t": 182250,
      "d": 15.625,
      "v": 80
    },
    {
      "midi": 38,
      "hit": false,
      "t": 182250,
      "d": 15.625,
      "v": 80
    },
    {
      "midi": 64,
      "hit": false,
      "t": 182250,
      "d": 337.5,
      "v": 100
    },
    {
      "midi": 69,
      "hit": false,
      "t": 182250,
      "d": 675,
      "v": 100
    },
    {
      "midi": 45,
      "hit": false,
      "t": 182250,
      "d": 675,
      "v": 100
    },
    {
      "midi": 66,
      "hit": false,
      "t": 182250,
      "d": 675,
      "v": 100
    },
    {
      "midi": 57,
      "hit": false,
      "t": 182250,
      "d": 675,
      "v": 100
    },
    {
      "midi": 42,
      "hit": false,
      "t": 182625,
      "d": 15.625,
      "v": 80
    },
    {
      "midi": 63,
      "hit": false,
      "t": 182625,
      "d": 168.75,
      "v": 100
    },
    {
      "midi": 43,
      "hit": false,
      "t": 183000,
      "d": 15.625,
      "v": 80
    },
    {
      "midi": 49,
      "hit": false,
      "t": 183000,
      "d": 15.625,
      "v": 80
    },
    {
      "midi": 42,
      "hit": false,
      "t": 183000,
      "d": 15.625,
      "v": 80
    },
    {
      "midi": 64,
      "hit": false,
      "t": 183000,
      "d": 918.75,
      "v": 100
    },
    {
      "midi": 56,
      "hit": false,
      "t": 183000,
      "d": 1350,
      "v": 100
    },
    {
      "midi": 44,
      "hit": false,
      "t": 183000,
      "d": 1350,
      "v": 100
    },
    {
      "midi": 42,
      "hit": false,
      "t": 183375,
      "d": 15.625,
      "v": 80
    },
    {
      "midi": 42,
      "hit": false,
      "t": 183750,
      "d": 15.625,
      "v": 80
    },
    {
      "midi": 38,
      "hit": false,
      "t": 183750,
      "d": 15.625,
      "v": 80
    },
    {
      "midi": 59,
      "hit": false,
      "t": 183937.5,
      "d": 168.75,
      "v": 100
    },
    {
      "midi": 42,
      "hit": false,
      "t": 184125,
      "d": 15.625,
      "v": 80
    },
    {
      "midi": 64,
      "hit": false,
      "t": 184125,
      "d": 168.75,
      "v": 100
    },
    {
      "midi": 68,
      "hit": false,
      "t": 184312.5,
      "d": 168.75,
      "v": 100
    },
    {
      "midi": 42,
      "hit": false,
      "t": 184500,
      "d": 15.625,
      "v": 80
    },
    {
      "midi": 43,
      "hit": false,
      "t": 184500,
      "d": 15.625,
      "v": 80
    },
    {
      "midi": 66,
      "hit": false,
      "t": 184500,
      "d": 337.5,
      "v": 100
    },
    {
      "midi": 57,
      "hit": false,
      "t": 184500,
      "d": 1350,
      "v": 100
    },
    {
      "midi": 45,
      "hit": false,
      "t": 184500,
      "d": 1350,
      "v": 100
    },
    {
      "midi": 42,
      "hit": false,
      "t": 184875,
      "d": 15.625,
      "v": 80
    },
    {
      "midi": 43,
      "hit": false,
      "t": 184875,
      "d": 15.625,
      "v": 80
    },
    {
      "midi": 64,
      "hit": false,
      "t": 184875,
      "d": 168.75,
      "v": 100
    },
    {
      "midi": 63,
      "hit": false,
      "t": 185062.5,
      "d": 356.25,
      "v": 100
    },
    {
      "midi": 42,
      "hit": false,
      "t": 185250,
      "d": 15.625,
      "v": 80
    },
    {
      "midi": 38,
      "hit": false,
      "t": 185250,
      "d": 15.625,
      "v": 80
    },
    {
      "midi": 61,
      "hit": false,
      "t": 185437.5,
      "d": 356.25,
      "v": 100
    },
    {
      "midi": 42,
      "hit": false,
      "t": 185625,
      "d": 15.625,
      "v": 80
    },
    {
      "midi": 42,
      "hit": false,
      "t": 186000,
      "d": 15.625,
      "v": 80
    },
    {
      "midi": 43,
      "hit": false,
      "t": 186000,
      "d": 15.625,
      "v": 80
    },
    {
      "midi": 63,
      "hit": false,
      "t": 186000,
      "d": 918.75,
      "v": 100
    },
    {
      "midi": 66,
      "hit": false,
      "t": 186000,
      "d": 1350,
      "v": 100
    },
    {
      "midi": 47,
      "hit": false,
      "t": 186000,
      "d": 1350,
      "v": 100
    },
    {
      "midi": 42,
      "hit": false,
      "t": 186375,
      "d": 15.625,
      "v": 80
    },
    {
      "midi": 42,
      "hit": false,
      "t": 186750,
      "d": 15.625,
      "v": 80
    },
    {
      "midi": 38,
      "hit": false,
      "t": 186750,
      "d": 15.625,
      "v": 80
    },
    {
      "midi": 59,
      "hit": false,
      "t": 186937.5,
      "d": 168.75,
      "v": 100
    },
    {
      "midi": 42,
      "hit": false,
      "t": 187125,
      "d": 15.625,
      "v": 80
    },
    {
      "midi": 63,
      "hit": false,
      "t": 187125,
      "d": 168.75,
      "v": 100
    },
    {
      "midi": 71,
      "hit": false,
      "t": 187312.5,
      "d": 37.5,
      "v": 100
    },
    {
      "midi": 42,
      "hit": false,
      "t": 187500,
      "d": 15.625,
      "v": 80
    },
    {
      "midi": 43,
      "hit": false,
      "t": 187500,
      "d": 15.625,
      "v": 80
    },
    {
      "midi": 69,
      "hit": false,
      "t": 187500,
      "d": 675,
      "v": 100
    },
    {
      "midi": 72,
      "hit": false,
      "t": 187500,
      "d": 1350,
      "v": 100
    },
    {
      "midi": 60,
      "hit": false,
      "t": 187500,
      "d": 1350,
      "v": 100
    },
    {
      "midi": 66,
      "hit": false,
      "t": 187500,
      "d": 1350,
      "v": 100
    },
    {
      "midi": 48,
      "hit": false,
      "t": 187500,
      "d": 1350,
      "v": 100
    },
    {
      "midi": 42,
      "hit": false,
      "t": 187875,
      "d": 15.625,
      "v": 80
    },
    {
      "midi": 43,
      "hit": false,
      "t": 187875,
      "d": 15.625,
      "v": 80
    },
    {
      "midi": 42,
      "hit": false,
      "t": 188250,
      "d": 15.625,
      "v": 80
    },
    {
      "midi": 38,
      "hit": false,
      "t": 188250,
      "d": 15.625,
      "v": 80
    },
    {
      "midi": 68,
      "hit": false,
      "t": 188250,
      "d": 506.25,
      "v": 100
    },
    {
      "midi": 42,
      "hit": false,
      "t": 188625,
      "d": 15.625,
      "v": 80
    },
    {
      "midi": 42,
      "hit": false,
      "t": 189000,
      "d": 15.625,
      "v": 80
    },
    {
      "midi": 43,
      "hit": false,
      "t": 189000,
      "d": 15.625,
      "v": 80
    },
    {
      "midi": 69,
      "hit": false,
      "t": 189000,
      "d": 337.5,
      "v": 127
    },
    {
      "midi": 73,
      "hit": false,
      "t": 189000,
      "d": 1350,
      "v": 100
    },
    {
      "midi": 45,
      "hit": false,
      "t": 189000,
      "d": 1350,
      "v": 100
    },
    {
      "midi": 42,
      "hit": false,
      "t": 189375,
      "d": 15.625,
      "v": 80
    },
    {
      "midi": 64,
      "hit": false,
      "t": 189375,
      "d": 337.5,
      "v": 127
    },
    {
      "midi": 42,
      "hit": false,
      "t": 189750,
      "d": 15.625,
      "v": 80
    },
    {
      "midi": 38,
      "hit": false,
      "t": 189750,
      "d": 15.625,
      "v": 80
    },
    {
      "midi": 69,
      "hit": false,
      "t": 189750,
      "d": 168.75,
      "v": 127
    },
    {
      "midi": 64,
      "hit": false,
      "t": 189937.5,
      "d": 168.75,
      "v": 127
    },
    {
      "midi": 42,
      "hit": false,
      "t": 190125,
      "d": 15.625,
      "v": 80
    },
    {
      "midi": 71,
      "hit": false,
      "t": 190125,
      "d": 168.75,
      "v": 100
    },
    {
      "midi": 61,
      "hit": false,
      "t": 190125,
      "d": 168.75,
      "v": 127
    },
    {
      "midi": 57,
      "hit": false,
      "t": 190312.5,
      "d": 168.75,
      "v": 127
    },
    {
      "midi": 68,
      "hit": false,
      "t": 190312.5,
      "d": 862.5,
      "v": 100
    },
    {
      "midi": 42,
      "hit": false,
      "t": 190500,
      "d": 15.625,
      "v": 80
    },
    {
      "midi": 43,
      "hit": false,
      "t": 190500,
      "d": 15.625,
      "v": 80
    },
    {
      "midi": 76,
      "hit": false,
      "t": 190500,
      "d": 1350,
      "v": 100
    },
    {
      "midi": 56,
      "hit": false,
      "t": 190500,
      "d": 1350,
      "v": 100
    },
    {
      "midi": 59,
      "hit": false,
      "t": 190500,
      "d": 1350,
      "v": 100
    },
    {
      "midi": 44,
      "hit": false,
      "t": 190500,
      "d": 1350,
      "v": 100
    },
    {
      "midi": 42,
      "hit": false,
      "t": 190875,
      "d": 15.625,
      "v": 80
    },
    {
      "midi": 43,
      "hit": false,
      "t": 190875,
      "d": 15.625,
      "v": 80
    },
    {
      "midi": 42,
      "hit": false,
      "t": 191250,
      "d": 15.625,
      "v": 80
    },
    {
      "midi": 38,
      "hit": false,
      "t": 191250,
      "d": 15.625,
      "v": 80
    },
    {
      "midi": 66,
      "hit": false,
      "t": 191250,
      "d": 337.5,
      "v": 100
    },
    {
      "midi": 42,
      "hit": false,
      "t": 191625,
      "d": 15.625,
      "v": 80
    },
    {
      "midi": 64,
      "hit": false,
      "t": 191625,
      "d": 225,
      "v": 100
    },
    {
      "midi": 42,
      "hit": false,
      "t": 192000,
      "d": 15.625,
      "v": 80
    },
    {
      "midi": 43,
      "hit": false,
      "t": 192000,
      "d": 15.625,
      "v": 80
    },
    {
      "midi": 68,
      "hit": false,
      "t": 192000,
      "d": 337.5,
      "v": 100
    },
    {
      "midi": 57,
      "hit": false,
      "t": 192000,
      "d": 675,
      "v": 100
    },
    {
      "midi": 61,
      "hit": false,
      "t": 192000,
      "d": 675,
      "v": 100
    },
    {
      "midi": 54,
      "hit": false,
      "t": 192000,
      "d": 675,
      "v": 100
    },
    {
      "midi": 64,
      "hit": false,
      "t": 192000,
      "d": 675,
      "v": 100
    },
    {
      "midi": 76,
      "hit": false,
      "t": 192000,
      "d": 1350,
      "v": 100
    },
    {
      "midi": 42,
      "hit": false,
      "t": 192375,
      "d": 15.625,
      "v": 80
    },
    {
      "midi": 69,
      "hit": false,
      "t": 192375,
      "d": 168.75,
      "v": 100
    },
    {
      "midi": 71,
      "hit": false,
      "t": 192562.5,
      "d": 356.25,
      "v": 100
    },
    {
      "midi": 42,
      "hit": false,
      "t": 192750,
      "d": 15.625,
      "v": 80
    },
    {
      "midi": 38,
      "hit": false,
      "t": 192750,
      "d": 15.625,
      "v": 80
    },
    {
      "midi": 69,
      "hit": false,
      "t": 192750,
      "d": 168.75,
      "v": 100
    },
    {
      "midi": 64,
      "hit": false,
      "t": 192937.5,
      "d": 168.75,
      "v": 100
    },
    {
      "midi": 68,
      "hit": false,
      "t": 192937.5,
      "d": 356.25,
      "v": 100
    },
    {
      "midi": 42,
      "hit": false,
      "t": 193125,
      "d": 15.625,
      "v": 80
    },
    {
      "midi": 61,
      "hit": false,
      "t": 193125,
      "d": 168.75,
      "v": 100
    },
    {
      "midi": 57,
      "hit": false,
      "t": 193312.5,
      "d": 168.75,
      "v": 100
    },
    {
      "midi": 66,
      "hit": false,
      "t": 193312.5,
      "d": 693.75,
      "v": 100
    },
    {
      "midi": 42,
      "hit": false,
      "t": 193500,
      "d": 15.625,
      "v": 80
    },
    {
      "midi": 43,
      "hit": false,
      "t": 193500,
      "d": 15.625,
      "v": 80
    },
    {
      "midi": 75,
      "hit": false,
      "t": 193500,
      "d": 675,
      "v": 100
    },
    {
      "midi": 63,
      "hit": false,
      "t": 193500,
      "d": 675,
      "v": 100
    },
    {
      "midi": 54,
      "hit": false,
      "t": 193500,
      "d": 675,
      "v": 100
    },
    {
      "midi": 47,
      "hit": false,
      "t": 193500,
      "d": 675,
      "v": 100
    },
    {
      "midi": 42,
      "hit": false,
      "t": 193875,
      "d": 15.625,
      "v": 80
    },
    {
      "midi": 43,
      "hit": false,
      "t": 193875,
      "d": 15.625,
      "v": 80
    },
    {
      "midi": 59,
      "hit": false,
      "t": 194062.5,
      "d": 112.5,
      "v": 100
    },
    {
      "midi": 42,
      "hit": false,
      "t": 194250,
      "d": 15.625,
      "v": 80
    },
    {
      "midi": 38,
      "hit": false,
      "t": 194250,
      "d": 15.625,
      "v": 80
    },
    {
      "midi": 64,
      "hit": false,
      "t": 194250,
      "d": 337.5,
      "v": 100
    },
    {
      "midi": 73,
      "hit": false,
      "t": 194250,
      "d": 675,
      "v": 100
    },
    {
      "midi": 61,
      "hit": false,
      "t": 194250,
      "d": 675,
      "v": 100
    },
    {
      "midi": 54,
      "hit": false,
      "t": 194250,
      "d": 675,
      "v": 100
    },
    {
      "midi": 57,
      "hit": false,
      "t": 194250,
      "d": 675,
      "v": 100
    },
    {
      "midi": 45,
      "hit": false,
      "t": 194250,
      "d": 675,
      "v": 100
    },
    {
      "midi": 42,
      "hit": false,
      "t": 194625,
      "d": 15.625,
      "v": 80
    },
    {
      "midi": 63,
      "hit": false,
      "t": 194625,
      "d": 168.75,
      "v": 100
    },
    {
      "midi": 42,
      "hit": false,
      "t": 195000,
      "d": 15.625,
      "v": 80
    },
    {
      "midi": 43,
      "hit": false,
      "t": 195000,
      "d": 15.625,
      "v": 80
    },
    {
      "midi": 64,
      "hit": false,
      "t": 195000,
      "d": 918.75,
      "v": 100
    },
    {
      "midi": 83,
      "hit": false,
      "t": 195000,
      "d": 1350,
      "v": 100
    },
    {
      "midi": 56,
      "hit": false,
      "t": 195000,
      "d": 1350,
      "v": 100
    },
    {
      "midi": 44,
      "hit": false,
      "t": 195000,
      "d": 1350,
      "v": 100
    },
    {
      "midi": 42,
      "hit": false,
      "t": 195375,
      "d": 15.625,
      "v": 80
    },
    {
      "midi": 42,
      "hit": false,
      "t": 195750,
      "d": 15.625,
      "v": 80
    },
    {
      "midi": 38,
      "hit": false,
      "t": 195750,
      "d": 15.625,
      "v": 80
    },
    {
      "midi": 59,
      "hit": false,
      "t": 195937.5,
      "d": 168.75,
      "v": 100
    },
    {
      "midi": 42,
      "hit": false,
      "t": 196125,
      "d": 15.625,
      "v": 80
    },
    {
      "midi": 64,
      "hit": false,
      "t": 196125,
      "d": 168.75,
      "v": 100
    },
    {
      "midi": 68,
      "hit": false,
      "t": 196312.5,
      "d": 168.75,
      "v": 100
    },
    {
      "midi": 42,
      "hit": false,
      "t": 196500,
      "d": 15.625,
      "v": 80
    },
    {
      "midi": 43,
      "hit": false,
      "t": 196500,
      "d": 15.625,
      "v": 80
    },
    {
      "midi": 66,
      "hit": false,
      "t": 196500,
      "d": 337.5,
      "v": 100
    },
    {
      "midi": 57,
      "hit": false,
      "t": 196500,
      "d": 1350,
      "v": 100
    },
    {
      "midi": 45,
      "hit": false,
      "t": 196500,
      "d": 1350,
      "v": 100
    },
    {
      "midi": 42,
      "hit": false,
      "t": 196875,
      "d": 15.625,
      "v": 80
    },
    {
      "midi": 43,
      "hit": false,
      "t": 196875,
      "d": 15.625,
      "v": 80
    },
    {
      "midi": 64,
      "hit": false,
      "t": 196875,
      "d": 168.75,
      "v": 100
    },
    {
      "midi": 63,
      "hit": false,
      "t": 197062.5,
      "d": 356.25,
      "v": 100
    },
    {
      "midi": 42,
      "hit": false,
      "t": 197250,
      "d": 15.625,
      "v": 80
    },
    {
      "midi": 38,
      "hit": false,
      "t": 197250,
      "d": 15.625,
      "v": 80
    },
    {
      "midi": 88,
      "hit": false,
      "t": 197250,
      "d": 337.5,
      "v": 100
    },
    {
      "midi": 61,
      "hit": false,
      "t": 197437.5,
      "d": 168.75,
      "v": 100
    },
    {
      "midi": 42,
      "hit": false,
      "t": 197625,
      "d": 15.625,
      "v": 80
    },
    {
      "midi": 63,
      "hit": false,
      "t": 197625,
      "d": 187.5,
      "v": 100
    },
    {
      "midi": 87,
      "hit": false,
      "t": 197625,
      "d": 337.5,
      "v": 100
    },
    {
      "midi": 42,
      "hit": false,
      "t": 198000,
      "d": 15.625,
      "v": 80
    },
    {
      "midi": 43,
      "hit": false,
      "t": 198000,
      "d": 15.625,
      "v": 80
    },
    {
      "midi": 63,
      "hit": false,
      "t": 198000,
      "d": 918.75,
      "v": 100
    },
    {
      "midi": 83,
      "hit": false,
      "t": 198000,
      "d": 1350,
      "v": 100
    },
    {
      "midi": 66,
      "hit": false,
      "t": 198000,
      "d": 1350,
      "v": 100
    },
    {
      "midi": 47,
      "hit": false,
      "t": 198000,
      "d": 1350,
      "v": 100
    },
    {
      "midi": 42,
      "hit": false,
      "t": 198375,
      "d": 15.625,
      "v": 80
    },
    {
      "midi": 42,
      "hit": false,
      "t": 198750,
      "d": 15.625,
      "v": 80
    },
    {
      "midi": 38,
      "hit": false,
      "t": 198750,
      "d": 15.625,
      "v": 80
    },
    {
      "midi": 59,
      "hit": false,
      "t": 198937.5,
      "d": 168.75,
      "v": 100
    },
    {
      "midi": 42,
      "hit": false,
      "t": 199125,
      "d": 15.625,
      "v": 80
    },
    {
      "midi": 63,
      "hit": false,
      "t": 199125,
      "d": 168.75,
      "v": 100
    },
    {
      "midi": 71,
      "hit": false,
      "t": 199312.5,
      "d": 168.75,
      "v": 100
    },
    {
      "midi": 42,
      "hit": false,
      "t": 199500,
      "d": 15.625,
      "v": 80
    },
    {
      "midi": 43,
      "hit": false,
      "t": 199500,
      "d": 15.625,
      "v": 80
    },
    {
      "midi": 69,
      "hit": false,
      "t": 199500,
      "d": 675,
      "v": 100
    },
    {
      "midi": 84,
      "hit": false,
      "t": 199500,
      "d": 1350,
      "v": 100
    },
    {
      "midi": 60,
      "hit": false,
      "t": 199500,
      "d": 1350,
      "v": 100
    },
    {
      "midi": 66,
      "hit": false,
      "t": 199500,
      "d": 1350,
      "v": 100
    },
    {
      "midi": 48,
      "hit": false,
      "t": 199500,
      "d": 1350,
      "v": 100
    },
    {
      "midi": 42,
      "hit": false,
      "t": 199875,
      "d": 15.625,
      "v": 80
    },
    {
      "midi": 43,
      "hit": false,
      "t": 199875,
      "d": 15.625,
      "v": 80
    },
    {
      "midi": 42,
      "hit": false,
      "t": 200250,
      "d": 15.625,
      "v": 80
    },
    {
      "midi": 38,
      "hit": false,
      "t": 200250,
      "d": 15.625,
      "v": 80
    },
    {
      "midi": 68,
      "hit": false,
      "t": 200250,
      "d": 506.25,
      "v": 100
    },
    {
      "midi": 42,
      "hit": false,
      "t": 200625,
      "d": 15.625,
      "v": 80
    },
    {
      "midi": 69,
      "hit": false,
      "t": 200812.5,
      "d": 937.5,
      "v": 100
    },
    {
      "midi": 42,
      "hit": false,
      "t": 201000,
      "d": 15.625,
      "v": 80
    },
    {
      "midi": 43,
      "hit": false,
      "t": 201000,
      "d": 15.625,
      "v": 80
    },
    {
      "midi": 57,
      "hit": false,
      "t": 201000,
      "d": 1350,
      "v": 100
    },
    {
      "midi": 61,
      "hit": false,
      "t": 201000,
      "d": 1350,
      "v": 100
    },
    {
      "midi": 54,
      "hit": false,
      "t": 201000,
      "d": 1350,
      "v": 100
    },
    {
      "midi": 64,
      "hit": false,
      "t": 201000,
      "d": 1350,
      "v": 100
    },
    {
      "midi": 42,
      "hit": false,
      "t": 201375,
      "d": 15.625,
      "v": 80
    },
    {
      "midi": 88,
      "hit": false,
      "t": 201375,
      "d": 168.75,
      "v": 100
    },
    {
      "midi": 87,
      "hit": false,
      "t": 201562.5,
      "d": 168.75,
      "v": 100
    },
    {
      "midi": 42,
      "hit": false,
      "t": 201750,
      "d": 15.625,
      "v": 80
    },
    {
      "midi": 38,
      "hit": false,
      "t": 201750,
      "d": 15.625,
      "v": 80
    },
    {
      "midi": 83,
      "hit": false,
      "t": 201750,
      "d": 168.75,
      "v": 100
    },
    {
      "midi": 69,
      "hit": false,
      "t": 201750,
      "d": 337.5,
      "v": 100
    },
    {
      "midi": 80,
      "hit": false,
      "t": 201937.5,
      "d": 168.75,
      "v": 100
    },
    {
      "midi": 42,
      "hit": false,
      "t": 202125,
      "d": 15.625,
      "v": 80
    },
    {
      "midi": 71,
      "hit": false,
      "t": 202125,
      "d": 168.75,
      "v": 100
    },
    {
      "midi": 76,
      "hit": false,
      "t": 202125,
      "d": 168.75,
      "v": 100
    },
    {
      "midi": 73,
      "hit": false,
      "t": 202312.5,
      "d": 168.75,
      "v": 100
    },
    {
      "midi": 68,
      "hit": false,
      "t": 202312.5,
      "d": 862.5,
      "v": 100
    },
    {
      "midi": 42,
      "hit": false,
      "t": 202500,
      "d": 15.625,
      "v": 80
    },
    {
      "midi": 43,
      "hit": false,
      "t": 202500,
      "d": 15.625,
      "v": 80
    },
    {
      "midi": 71,
      "hit": false,
      "t": 202500,
      "d": 675,
      "v": 100
    },
    {
      "midi": 63,
      "hit": false,
      "t": 202500,
      "d": 1350,
      "v": 100
    },
    {
      "midi": 56,
      "hit": false,
      "t": 202500,
      "d": 1350,
      "v": 100
    },
    {
      "midi": 59,
      "hit": false,
      "t": 202500,
      "d": 1350,
      "v": 100
    },
    {
      "midi": 44,
      "hit": false,
      "t": 202500,
      "d": 1350,
      "v": 100
    },
    {
      "midi": 42,
      "hit": false,
      "t": 202875,
      "d": 15.625,
      "v": 80
    },
    {
      "midi": 43,
      "hit": false,
      "t": 202875,
      "d": 15.625,
      "v": 80
    },
    {
      "midi": 42,
      "hit": false,
      "t": 203250,
      "d": 15.625,
      "v": 80
    },
    {
      "midi": 38,
      "hit": false,
      "t": 203250,
      "d": 15.625,
      "v": 80
    },
    {
      "midi": 66,
      "hit": false,
      "t": 203250,
      "d": 337.5,
      "v": 100
    },
    {
      "midi": 80,
      "hit": false,
      "t": 203250,
      "d": 675,
      "v": 100
    },
    {
      "midi": 42,
      "hit": false,
      "t": 203625,
      "d": 15.625,
      "v": 80
    },
    {
      "midi": 64,
      "hit": false,
      "t": 203625,
      "d": 337.5,
      "v": 100
    },
    {
      "midi": 42,
      "hit": false,
      "t": 204000,
      "d": 15.625,
      "v": 80
    },
    {
      "midi": 43,
      "hit": false,
      "t": 204000,
      "d": 15.625,
      "v": 80
    },
    {
      "midi": 68,
      "hit": false,
      "t": 204000,
      "d": 337.5,
      "v": 100
    },
    {
      "midi": 57,
      "hit": false,
      "t": 204000,
      "d": 1350,
      "v": 100
    },
    {
      "midi": 61,
      "hit": false,
      "t": 204000,
      "d": 1350,
      "v": 100
    },
    {
      "midi": 45,
      "hit": false,
      "t": 204000,
      "d": 1350,
      "v": 100
    },
    {
      "midi": 83,
      "hit": false,
      "t": 204000,
      "d": 2025,
      "v": 100
    },
    {
      "midi": 42,
      "hit": false,
      "t": 204375,
      "d": 15.625,
      "v": 80
    },
    {
      "midi": 69,
      "hit": false,
      "t": 204375,
      "d": 168.75,
      "v": 100
    },
    {
      "midi": 66,
      "hit": false,
      "t": 204562.5,
      "d": 356.25,
      "v": 100
    },
    {
      "midi": 42,
      "hit": false,
      "t": 204750,
      "d": 15.625,
      "v": 80
    },
    {
      "midi": 38,
      "hit": false,
      "t": 204750,
      "d": 15.625,
      "v": 80
    },
    {
      "midi": 64,
      "hit": false,
      "t": 204937.5,
      "d": 356.25,
      "v": 100
    },
    {
      "midi": 42,
      "hit": false,
      "t": 205125,
      "d": 15.625,
      "v": 80
    },
    {
      "midi": 42,
      "hit": false,
      "t": 205500,
      "d": 15.625,
      "v": 80
    },
    {
      "midi": 43,
      "hit": false,
      "t": 205500,
      "d": 15.625,
      "v": 80
    },
    {
      "midi": 66,
      "hit": false,
      "t": 205500,
      "d": 675,
      "v": 100
    },
    {
      "midi": 59,
      "hit": false,
      "t": 205500,
      "d": 675,
      "v": 100
    },
    {
      "midi": 63,
      "hit": false,
      "t": 205500,
      "d": 675,
      "v": 100
    },
    {
      "midi": 47,
      "hit": false,
      "t": 205500,
      "d": 675,
      "v": 100
    },
    {
      "midi": 42,
      "hit": false,
      "t": 205875,
      "d": 15.625,
      "v": 80
    },
    {
      "midi": 43,
      "hit": false,
      "t": 205875,
      "d": 15.625,
      "v": 80
    },
    {
      "midi": 42,
      "hit": false,
      "t": 206250,
      "d": 15.625,
      "v": 80
    },
    {
      "midi": 38,
      "hit": false,
      "t": 206250,
      "d": 15.625,
      "v": 80
    },
    {
      "midi": 68,
      "hit": false,
      "t": 206250,
      "d": 337.5,
      "v": 100
    },
    {
      "midi": 84,
      "hit": false,
      "t": 206250,
      "d": 675,
      "v": 100
    },
    {
      "midi": 66,
      "hit": false,
      "t": 206250,
      "d": 675,
      "v": 100
    },
    {
      "midi": 60,
      "hit": false,
      "t": 206250,
      "d": 675,
      "v": 100
    },
    {
      "midi": 48,
      "hit": false,
      "t": 206250,
      "d": 675,
      "v": 100
    },
    {
      "midi": 42,
      "hit": false,
      "t": 206625,
      "d": 15.625,
      "v": 80
    },
    {
      "midi": 63,
      "hit": false,
      "t": 206625,
      "d": 168.75,
      "v": 100
    },
    {
      "midi": 42,
      "hit": false,
      "t": 207000,
      "d": 15.625,
      "v": 80
    },
    {
      "midi": 43,
      "hit": false,
      "t": 207000,
      "d": 15.625,
      "v": 80
    },
    {
      "midi": 64,
      "hit": false,
      "t": 207000,
      "d": 675,
      "v": 100
    },
    {
      "midi": 73,
      "hit": false,
      "t": 207000,
      "d": 1350,
      "v": 100
    },
    {
      "midi": 49,
      "hit": false,
      "t": 207000,
      "d": 1350,
      "v": 100
    },
    {
      "midi": 42,
      "hit": false,
      "t": 207375,
      "d": 15.625,
      "v": 80
    },
    {
      "midi": 42,
      "hit": false,
      "t": 207750,
      "d": 15.625,
      "v": 80
    },
    {
      "midi": 38,
      "hit": false,
      "t": 207750,
      "d": 15.625,
      "v": 80
    },
    {
      "midi": 68,
      "hit": false,
      "t": 207750,
      "d": 337.5,
      "v": 100
    },
    {
      "midi": 42,
      "hit": false,
      "t": 208125,
      "d": 15.625,
      "v": 80
    },
    {
      "midi": 61,
      "hit": false,
      "t": 208125,
      "d": 168.75,
      "v": 100
    },
    {
      "midi": 63,
      "hit": false,
      "t": 208312.5,
      "d": 862.5,
      "v": 100
    },
    {
      "midi": 42,
      "hit": false,
      "t": 208500,
      "d": 15.625,
      "v": 80
    },
    {
      "midi": 43,
      "hit": false,
      "t": 208500,
      "d": 15.625,
      "v": 80
    },
    {
      "midi": 75,
      "hit": false,
      "t": 208500,
      "d": 1350,
      "v": 100
    },
    {
      "midi": 60,
      "hit": false,
      "t": 208500,
      "d": 1350,
      "v": 100
    },
    {
      "midi": 48,
      "hit": false,
      "t": 208500,
      "d": 1350,
      "v": 100
    },
    {
      "midi": 42,
      "hit": false,
      "t": 208875,
      "d": 15.625,
      "v": 80
    },
    {
      "midi": 43,
      "hit": false,
      "t": 208875,
      "d": 15.625,
      "v": 80
    },
    {
      "midi": 42,
      "hit": false,
      "t": 209250,
      "d": 15.625,
      "v": 80
    },
    {
      "midi": 38,
      "hit": false,
      "t": 209250,
      "d": 15.625,
      "v": 80
    },
    {
      "midi": 68,
      "hit": false,
      "t": 209250,
      "d": 337.5,
      "v": 100
    },
    {
      "midi": 42,
      "hit": false,
      "t": 209625,
      "d": 15.625,
      "v": 80
    },
    {
      "midi": 63,
      "hit": false,
      "t": 209625,
      "d": 168.75,
      "v": 100
    },
    {
      "midi": 64,
      "hit": false,
      "t": 209812.5,
      "d": 37.5,
      "v": 100
    },
    {
      "midi": 42,
      "hit": false,
      "t": 210000,
      "d": 15.625,
      "v": 80
    },
    {
      "midi": 43,
      "hit": false,
      "t": 210000,
      "d": 15.625,
      "v": 80
    },
    {
      "midi": 64,
      "hit": false,
      "t": 210000,
      "d": 337.5,
      "v": 100
    },
    {
      "midi": 59,
      "hit": false,
      "t": 210000,
      "d": 675,
      "v": 100
    },
    {
      "midi": 68,
      "hit": false,
      "t": 210000,
      "d": 675,
      "v": 100
    },
    {
      "midi": 76,
      "hit": false,
      "t": 210000,
      "d": 1350,
      "v": 100
    },
    {
      "midi": 47,
      "hit": false,
      "t": 210000,
      "d": 1350,
      "v": 100
    },
    {
      "midi": 42,
      "hit": false,
      "t": 210375,
      "d": 15.625,
      "v": 80
    },
    {
      "midi": 63,
      "hit": false,
      "t": 210375,
      "d": 337.5,
      "v": 100
    },
    {
      "midi": 42,
      "hit": false,
      "t": 210750,
      "d": 15.625,
      "v": 80
    },
    {
      "midi": 38,
      "hit": false,
      "t": 210750,
      "d": 15.625,
      "v": 80
    },
    {
      "midi": 64,
      "hit": false,
      "t": 210750,
      "d": 337.5,
      "v": 100
    },
    {
      "midi": 56,
      "hit": false,
      "t": 210750,
      "d": 337.5,
      "v": 100
    },
    {
      "midi": 42,
      "hit": false,
      "t": 211125,
      "d": 15.625,
      "v": 80
    },
    {
      "midi": 68,
      "hit": false,
      "t": 211125,
      "d": 337.5,
      "v": 100
    },
    {
      "midi": 61,
      "hit": false,
      "t": 211125,
      "d": 337.5,
      "v": 100
    },
    {
      "midi": 42,
      "hit": false,
      "t": 211500,
      "d": 15.625,
      "v": 80
    },
    {
      "midi": 43,
      "hit": false,
      "t": 211500,
      "d": 15.625,
      "v": 80
    },
    {
      "midi": 61,
      "hit": false,
      "t": 211500,
      "d": 337.5,
      "v": 100
    },
    {
      "midi": 78,
      "hit": false,
      "t": 211500,
      "d": 1350,
      "v": 100
    },
    {
      "midi": 58,
      "hit": false,
      "t": 211500,
      "d": 1350,
      "v": 100
    },
    {
      "midi": 66,
      "hit": false,
      "t": 211500,
      "d": 1350,
      "v": 100
    },
    {
      "midi": 46,
      "hit": false,
      "t": 211500,
      "d": 1350,
      "v": 100
    },
    {
      "midi": 42,
      "hit": false,
      "t": 211875,
      "d": 15.625,
      "v": 80
    },
    {
      "midi": 43,
      "hit": false,
      "t": 211875,
      "d": 15.625,
      "v": 80
    },
    {
      "midi": 63,
      "hit": false,
      "t": 211875,
      "d": 168.75,
      "v": 100
    },
    {
      "midi": 64,
      "hit": false,
      "t": 212062.5,
      "d": 168.75,
      "v": 100
    },
    {
      "midi": 42,
      "hit": false,
      "t": 212250,
      "d": 15.625,
      "v": 80
    },
    {
      "midi": 38,
      "hit": false,
      "t": 212250,
      "d": 15.625,
      "v": 80
    },
    {
      "midi": 61,
      "hit": false,
      "t": 212437.5,
      "d": 168.75,
      "v": 100
    },
    {
      "midi": 42,
      "hit": false,
      "t": 212625,
      "d": 15.625,
      "v": 80
    },
    {
      "midi": 63,
      "hit": false,
      "t": 212625,
      "d": 168.75,
      "v": 100
    },
    {
      "midi": 64,
      "hit": false,
      "t": 212812.5,
      "d": 168.75,
      "v": 100
    },
    {
      "midi": 42,
      "hit": false,
      "t": 213000,
      "d": 15.625,
      "v": 80
    },
    {
      "midi": 43,
      "hit": false,
      "t": 213000,
      "d": 15.625,
      "v": 80
    },
    {
      "midi": 71,
      "hit": false,
      "t": 213000,
      "d": 337.5,
      "v": 100
    },
    {
      "midi": 81,
      "hit": false,
      "t": 213000,
      "d": 1350,
      "v": 100
    },
    {
      "midi": 64,
      "hit": false,
      "t": 213000,
      "d": 1350,
      "v": 100
    },
    {
      "midi": 57,
      "hit": false,
      "t": 213000,
      "d": 1350,
      "v": 100
    },
    {
      "midi": 61,
      "hit": false,
      "t": 213000,
      "d": 1350,
      "v": 100
    },
    {
      "midi": 45,
      "hit": false,
      "t": 213000,
      "d": 1350,
      "v": 100
    },
    {
      "midi": 42,
      "hit": false,
      "t": 213375,
      "d": 15.625,
      "v": 80
    },
    {
      "midi": 69,
      "hit": false,
      "t": 213375,
      "d": 337.5,
      "v": 100
    },
    {
      "midi": 42,
      "hit": false,
      "t": 213750,
      "d": 15.625,
      "v": 80
    },
    {
      "midi": 38,
      "hit": false,
      "t": 213750,
      "d": 15.625,
      "v": 80
    },
    {
      "midi": 69,
      "hit": false,
      "t": 213750,
      "d": 337.5,
      "v": 100
    },
    {
      "midi": 42,
      "hit": false,
      "t": 214125,
      "d": 15.625,
      "v": 80
    },
    {
      "midi": 68,
      "hit": false,
      "t": 214125,
      "d": 168.75,
      "v": 100
    },
    {
      "midi": 49,
      "hit": false,
      "t": 214500,
      "d": 15.625,
      "v": 80
    },
    {
      "midi": 66,
      "hit": false,
      "t": 214500,
      "d": 337.5,
      "v": 100
    },
    {
      "midi": 83,
      "hit": false,
      "t": 214500,
      "d": 1350,
      "v": 100
    },
    {
      "midi": 59,
      "hit": false,
      "t": 214500,
      "d": 1350,
      "v": 100
    },
    {
      "midi": 47,
      "hit": false,
      "t": 214500,
      "d": 1350,
      "v": 100
    },
    {
      "midi": 64,
      "hit": false,
      "t": 214875,
      "d": 168.75,
      "v": 100
    },
    {
      "midi": 63,
      "hit": false,
      "t": 215062.5,
      "d": 356.25,
      "v": 100
    },
    {
      "midi": 64,
      "hit": false,
      "t": 215437.5,
      "d": 356.25,
      "v": 100
    },
    {
      "midi": 66,
      "hit": false,
      "t": 215812.5,
      "d": 37.5,
      "v": 100
    },
    {
      "midi": 42,
      "hit": false,
      "t": 216000,
      "d": 15.625,
      "v": 80
    },
    {
      "midi": 43,
      "hit": false,
      "t": 216000,
      "d": 15.625,
      "v": 80
    },
    {
      "midi": 80,
      "hit": false,
      "t": 216000,
      "d": 1350,
      "v": 100
    },
    {
      "midi": 64,
      "hit": false,
      "t": 216000,
      "d": 2700,
      "v": 100
    },
    {
      "midi": 59,
      "hit": false,
      "t": 216000,
      "d": 2700,
      "v": 100
    },
    {
      "midi": 56,
      "hit": false,
      "t": 216000,
      "d": 2700,
      "v": 100
    },
    {
      "midi": 52,
      "hit": false,
      "t": 216000,
      "d": 2700,
      "v": 100
    },
    {
      "midi": 40,
      "hit": false,
      "t": 216000,
      "d": 2700,
      "v": 100
    },
    {
      "midi": 42,
      "hit": false,
      "t": 216375,
      "d": 15.625,
      "v": 80
    },
    {
      "midi": 42,
      "hit": false,
      "t": 216750,
      "d": 15.625,
      "v": 80
    },
    {
      "midi": 38,
      "hit": false,
      "t": 216750,
      "d": 15.625,
      "v": 80
    },
    {
      "midi": 42,
      "hit": false,
      "t": 217125,
      "d": 15.625,
      "v": 80
    },
    {
      "midi": 42,
      "hit": false,
      "t": 217500,
      "d": 15.625,
      "v": 80
    },
    {
      "midi": 43,
      "hit": false,
      "t": 217500,
      "d": 15.625,
      "v": 80
    },
    {
      "midi": 42,
      "hit": false,
      "t": 217875,
      "d": 15.625,
      "v": 80
    },
    {
      "midi": 43,
      "hit": false,
      "t": 217875,
      "d": 15.625,
      "v": 80
    },
    {
      "midi": 42,
      "hit": false,
      "t": 218250,
      "d": 15.625,
      "v": 80
    },
    {
      "midi": 38,
      "hit": false,
      "t": 218250,
      "d": 15.625,
      "v": 80
    },
    {
      "midi": 61,
      "hit": false,
      "t": 218437.5,
      "d": 168.75,
      "v": 100
    },
    {
      "midi": 42,
      "hit": false,
      "t": 218625,
      "d": 15.625,
      "v": 80
    },
    {
      "midi": 63,
      "hit": false,
      "t": 218625,
      "d": 168.75,
      "v": 100
    },
    {
      "midi": 64,
      "hit": false,
      "t": 218812.5,
      "d": 168.75,
      "v": 100
    },
    {
      "midi": 42,
      "hit": false,
      "t": 219000,
      "d": 15.625,
      "v": 80
    },
    {
      "midi": 43,
      "hit": false,
      "t": 219000,
      "d": 15.625,
      "v": 80
    },
    {
      "midi": 71,
      "hit": false,
      "t": 219000,
      "d": 337.5,
      "v": 100
    },
    {
      "midi": 61,
      "hit": false,
      "t": 219000,
      "d": 1350,
      "v": 100
    },
    {
      "midi": 64,
      "hit": false,
      "t": 219000,
      "d": 1350,
      "v": 100
    },
    {
      "midi": 57,
      "hit": false,
      "t": 219000,
      "d": 1350,
      "v": 100
    },
    {
      "midi": 81,
      "hit": false,
      "t": 219000,
      "d": 1350,
      "v": 100
    },
    {
      "midi": 45,
      "hit": false,
      "t": 219000,
      "d": 1350,
      "v": 100
    },
    {
      "midi": 42,
      "hit": false,
      "t": 219375,
      "d": 15.625,
      "v": 80
    },
    {
      "midi": 69,
      "hit": false,
      "t": 219375,
      "d": 337.5,
      "v": 100
    },
    {
      "midi": 42,
      "hit": false,
      "t": 219750,
      "d": 15.625,
      "v": 80
    },
    {
      "midi": 38,
      "hit": false,
      "t": 219750,
      "d": 15.625,
      "v": 80
    },
    {
      "midi": 69,
      "hit": false,
      "t": 219750,
      "d": 337.5,
      "v": 100
    },
    {
      "midi": 42,
      "hit": false,
      "t": 220125,
      "d": 15.625,
      "v": 80
    },
    {
      "midi": 68,
      "hit": false,
      "t": 220125,
      "d": 168.75,
      "v": 100
    },
    {
      "midi": 49,
      "hit": false,
      "t": 220500,
      "d": 15.625,
      "v": 80
    },
    {
      "midi": 66,
      "hit": false,
      "t": 220500,
      "d": 337.5,
      "v": 100
    },
    {
      "midi": 59,
      "hit": false,
      "t": 220500,
      "d": 1350,
      "v": 100
    },
    {
      "midi": 83,
      "hit": false,
      "t": 220500,
      "d": 1350,
      "v": 100
    },
    {
      "midi": 47,
      "hit": false,
      "t": 220500,
      "d": 1350,
      "v": 100
    },
    {
      "midi": 64,
      "hit": false,
      "t": 220875,
      "d": 168.75,
      "v": 100
    },
    {
      "midi": 63,
      "hit": false,
      "t": 221062.5,
      "d": 356.25,
      "v": 100
    },
    {
      "midi": 64,
      "hit": false,
      "t": 221437.5,
      "d": 356.25,
      "v": 100
    },
    {
      "midi": 66,
      "hit": false,
      "t": 221812.5,
      "d": 37.5,
      "v": 100
    },
    {
      "midi": 56,
      "hit": false,
      "t": 222000,
      "d": 1350,
      "v": 100
    },
    {
      "midi": 64,
      "hit": false,
      "t": 222000,
      "d": 1350,
      "v": 100
    },
    {
      "midi": 59,
      "hit": false,
      "t": 222000,
      "d": 1350,
      "v": 100
    },
    {
      "midi": 40,
      "hit": false,
      "t": 222000,
      "d": 2700,
      "v": 100
    },
    {
      "midi": 76,
      "hit": false,
      "t": 222375,
      "d": 168.75,
      "v": 100
    },
    {
      "midi": 75,
      "hit": false,
      "t": 222562.5,
      "d": 356.25,
      "v": 100
    },
    {
      "midi": 71,
      "hit": false,
      "t": 222937.5,
      "d": 356.25,
      "v": 100
    },
    {
      "midi": 66,
      "hit": false,
      "t": 223312.5,
      "d": 356.25,
      "v": 100
    },
    {
      "midi": 54,
      "hit": false,
      "t": 223500,
      "d": 1350,
      "v": 100
    },
    {
      "midi": 59,
      "hit": false,
      "t": 223500,
      "d": 1350,
      "v": 100
    },
    {
      "midi": 71,
      "hit": false,
      "t": 223687.5,
      "d": 356.25,
      "v": 100
    },
    {
      "midi": 68,
      "hit": false,
      "t": 224062.5,
      "d": 356.25,
      "v": 100
    },
    {
      "midi": 63,
      "hit": false,
      "t": 224437.5,
      "d": 412.5,
      "v": 100
    },
    {
      "midi": 64,
      "hit": false,
      "t": 225000,
      "d": 578.5708499999892,
      "v": 100
    },
    {
      "midi": 45,
      "hit": false,
      "t": 225000,
      "d": 3957.1419999999925,
      "v": 100
    },
    {
      "midi": 52,
      "hit": false,
      "t": 225000,
      "d": 7257.141999999993,
      "v": 85
    },
    {
      "midi": 61,
      "hit": false,
      "t": 225000,
      "d": 7257.141999999993,
      "v": 85
    },
    {
      "midi": 57,
      "hit": false,
      "t": 225000,
      "d": 7257.141999999993,
      "v": 85
    },
    {
      "midi": 69,
      "hit": false,
      "t": 225642.8565,
      "d": 192.85694999998668,
      "v": 100
    },
    {
      "midi": 71,
      "hit": false,
      "t": 226107.142,
      "d": 225,
      "v": 100
    },
    {
      "midi": 73,
      "hit": false,
      "t": 226357.142,
      "d": 225,
      "v": 100
    },
    {
      "midi": 78,
      "hit": false,
      "t": 226607.142,
      "d": 225,
      "v": 100
    },
    {
      "midi": 83,
      "hit": false,
      "t": 227157.142,
      "d": 270,
      "v": 100
    },
    {
      "midi": 85,
      "hit": false,
      "t": 227457.142,
      "d": 270,
      "v": 100
    },
    {
      "midi": 90,
      "hit": false,
      "t": 227757.142,
      "d": 270,
      "v": 100
    },
    {
      "midi": 85,
      "hit": false,
      "t": 228432.142,
      "d": 337.5,
      "v": 100
    },
    {
      "midi": 90,
      "hit": false,
      "t": 228807.142,
      "d": 712.5,
      "v": 100
    },
    {
      "midi": 97,
      "hit": false,
      "t": 229557.142,
      "d": 3800,
      "v": 100
    }
  ]
}