{
  "jsonPath": "Rock/Album Rock/Paul McCartney/lady-madonna.json",
  "path": "Rock\\Album Rock\\Paul McCartney\\Lady Madonna.mid",
  "name": "Lady Madonna",
  "difficulty": "Advanced",
  "bpm": 112.00005973336519,
  "notes": [
    {
      "midi": 64,
      "hit": false,
      "t": 2142.856,
      "d": 39.06247916666689,
      "v": 85
    },
    {
      "midi": 69,
      "hit": false,
      "t": 2142.856,
      "d": 41.85265625000011,
      "v": 104
    },
    {
      "midi": 72,
      "hit": false,
      "t": 2145.6461770833334,
      "d": 19.531239583333445,
      "v": 80
    },
    {
      "midi": 73,
      "hit": false,
      "t": 2145.6461770833334,
      "d": 64.17407291666677,
      "v": 126
    },
    {
      "midi": 33,
      "hit": false,
      "t": 2145.6461770833334,
      "d": 206.47310416666687,
      "v": 120
    },
    {
      "midi": 45,
      "hit": false,
      "t": 2410.713,
      "d": 234.37487499999997,
      "v": 117
    },
    {
      "midi": 64,
      "hit": false,
      "t": 2410.713,
      "d": 351.5623125000002,
      "v": 110
    },
    {
      "midi": 73,
      "hit": false,
      "t": 2410.713,
      "d": 412.94620833333374,
      "v": 127
    },
    {
      "midi": 69,
      "hit": false,
      "t": 2413.5031770833334,
      "d": 424.1069166666671,
      "v": 117
    },
    {
      "midi": 37,
      "hit": false,
      "t": 2678.57,
      "d": 248.32576041666744,
      "v": 127
    },
    {
      "midi": 64,
      "hit": false,
      "t": 2854.3511562500007,
      "d": 83.70531250000022,
      "v": 64
    },
    {
      "midi": 67,
      "hit": false,
      "t": 2946.427000000001,
      "d": 108.8169062500001,
      "v": 117
    },
    {
      "midi": 49,
      "hit": false,
      "t": 2946.427000000001,
      "d": 186.94186458333343,
      "v": 127
    },
    {
      "midi": 64,
      "hit": false,
      "t": 2949.2171770833343,
      "d": 114.397260416667,
      "v": 83
    },
    {
      "midi": 72,
      "hit": false,
      "t": 2949.2171770833343,
      "d": 150.6695625000002,
      "v": 120
    },
    {
      "midi": 67,
      "hit": false,
      "t": 3214.284000000001,
      "d": 75.3347812500001,
      "v": 104
    },
    {
      "midi": 62,
      "hit": false,
      "t": 3214.284000000001,
      "d": 83.70531250000022,
      "v": 99
    },
    {
      "midi": 71,
      "hit": false,
      "t": 3214.284000000001,
      "d": 103.23655208333366,
      "v": 110
    },
    {
      "midi": 38,
      "hit": false,
      "t": 3214.284000000001,
      "d": 212.05345833333377,
      "v": 125
    },
    {
      "midi": 50,
      "hit": false,
      "t": 3482.1410000000014,
      "d": 181.36151041666653,
      "v": 125
    },
    {
      "midi": 62,
      "hit": false,
      "t": 3482.1410000000014,
      "d": 351.5623125000002,
      "v": 110
    },
    {
      "midi": 66,
      "hit": false,
      "t": 3482.1410000000014,
      "d": 354.3524895833334,
      "v": 126
    },
    {
      "midi": 69,
      "hit": false,
      "t": 3482.1410000000014,
      "d": 368.30337499999996,
      "v": 120
    },
    {
      "midi": 38,
      "hit": false,
      "t": 3749.9980000000014,
      "d": 253.90611458333342,
      "v": 125
    },
    {
      "midi": 62,
      "hit": false,
      "t": 3928.5693333333347,
      "d": 58.59371874999988,
      "v": 120
    },
    {
      "midi": 66,
      "hit": false,
      "t": 3931.359510416668,
      "d": 55.80354166666666,
      "v": 126
    },
    {
      "midi": 69,
      "hit": false,
      "t": 3931.359510416668,
      "d": 64.17407291666677,
      "v": 120
    },
    {
      "midi": 50,
      "hit": false,
      "t": 4017.8550000000014,
      "d": 189.7320416666671,
      "v": 126
    },
    {
      "midi": 64,
      "hit": false,
      "t": 4196.426333333335,
      "d": 198.10257291666676,
      "v": 85
    },
    {
      "midi": 72,
      "hit": false,
      "t": 4277.341468750002,
      "d": 50.22318749999977,
      "v": 90
    },
    {
      "midi": 73,
      "hit": false,
      "t": 4285.712000000001,
      "d": 114.39726041666654,
      "v": 126
    },
    {
      "midi": 69,
      "hit": false,
      "t": 4288.502177083335,
      "d": 97.65619791666722,
      "v": 101
    },
    {
      "midi": 33,
      "hit": false,
      "t": 4288.502177083335,
      "d": 239.95522916666687,
      "v": 120
    },
    {
      "midi": 64,
      "hit": false,
      "t": 4553.569000000001,
      "d": 119.97761458333298,
      "v": 101
    },
    {
      "midi": 45,
      "hit": false,
      "t": 4553.569000000001,
      "d": 172.99097916666688,
      "v": 125
    },
    {
      "midi": 69,
      "hit": false,
      "t": 4556.3591770833345,
      "d": 117.18743749999976,
      "v": 104
    },
    {
      "midi": 73,
      "hit": false,
      "t": 4556.3591770833345,
      "d": 131.13832291666677,
      "v": 124
    },
    {
      "midi": 71,
      "hit": false,
      "t": 4821.426000000001,
      "d": 2.7901770833332193,
      "v": 79
    },
    {
      "midi": 64,
      "hit": false,
      "t": 4821.426000000001,
      "d": 89.28566666666666,
      "v": 107
    },
    {
      "midi": 67,
      "hit": false,
      "t": 4821.426000000001,
      "d": 92.07584374999988,
      "v": 110
    },
    {
      "midi": 72,
      "hit": false,
      "t": 4824.2161770833345,
      "d": 119.97761458333298,
      "v": 94
    },
    {
      "midi": 37,
      "hit": false,
      "t": 4824.2161770833345,
      "d": 217.6338124999993,
      "v": 124
    },
    {
      "midi": 64,
      "hit": false,
      "t": 5089.283,
      "d": 103.23655208333366,
      "v": 107
    },
    {
      "midi": 67,
      "hit": false,
      "t": 5089.283,
      "d": 114.39726041666745,
      "v": 110
    },
    {
      "midi": 71,
      "hit": false,
      "t": 5089.283,
      "d": 119.97761458333389,
      "v": 104
    },
    {
      "midi": 49,
      "hit": false,
      "t": 5089.283,
      "d": 181.36151041666744,
      "v": 127
    },
    {
      "midi": 38,
      "hit": false,
      "t": 5357.140000000001,
      "d": 262.27664583333353,
      "v": 123
    },
    {
      "midi": 62,
      "hit": false,
      "t": 5357.140000000001,
      "d": 647.3210833333333,
      "v": 104
    },
    {
      "midi": 66,
      "hit": false,
      "t": 5357.140000000001,
      "d": 647.3210833333333,
      "v": 126
    },
    {
      "midi": 69,
      "hit": false,
      "t": 5357.140000000001,
      "d": 658.481791666667,
      "v": 120
    },
    {
      "midi": 50,
      "hit": false,
      "t": 5624.997000000001,
      "d": 206.47310416666642,
      "v": 126
    },
    {
      "midi": 38,
      "hit": false,
      "t": 5892.854000000001,
      "d": 265.06682291666675,
      "v": 125
    },
    {
      "midi": 69,
      "hit": false,
      "t": 6071.425333333335,
      "d": 50.22318749999977,
      "v": 120
    },
    {
      "midi": 62,
      "hit": false,
      "t": 6071.425333333335,
      "d": 55.803541666666206,
      "v": 117
    },
    {
      "midi": 66,
      "hit": false,
      "t": 6071.425333333335,
      "d": 55.803541666666206,
      "v": 127
    },
    {
      "midi": 50,
      "hit": false,
      "t": 6160.711000000001,
      "d": 114.39726041666654,
      "v": 123
    },
    {
      "midi": 64,
      "hit": false,
      "t": 6339.2823333333345,
      "d": 200.89274999999907,
      "v": 99
    },
    {
      "midi": 72,
      "hit": false,
      "t": 6422.987645833335,
      "d": 58.593718749999425,
      "v": 94
    },
    {
      "midi": 73,
      "hit": false,
      "t": 6428.568000000001,
      "d": 106.02672916666597,
      "v": 127
    },
    {
      "midi": 33,
      "hit": false,
      "t": 6428.568000000001,
      "d": 248.32576041666562,
      "v": 113
    },
    {
      "midi": 69,
      "hit": false,
      "t": 6431.358177083334,
      "d": 133.92849999999908,
      "v": 101
    },
    {
      "midi": 73,
      "hit": false,
      "t": 6696.425,
      "d": 136.7186770833332,
      "v": 126
    },
    {
      "midi": 45,
      "hit": false,
      "t": 6696.425,
      "d": 198.10257291666676,
      "v": 123
    },
    {
      "midi": 64,
      "hit": false,
      "t": 6699.215177083333,
      "d": 128.34814583333355,
      "v": 99
    },
    {
      "midi": 69,
      "hit": false,
      "t": 6699.215177083333,
      "d": 131.13832291666677,
      "v": 107
    },
    {
      "midi": 64,
      "hit": false,
      "t": 6964.282,
      "d": 89.28566666666666,
      "v": 113
    },
    {
      "midi": 67,
      "hit": false,
      "t": 6964.282,
      "d": 103.23655208333366,
      "v": 110
    },
    {
      "midi": 72,
      "hit": false,
      "t": 6964.282,
      "d": 117.18743750000067,
      "v": 110
    },
    {
      "midi": 37,
      "hit": false,
      "t": 6964.282,
      "d": 228.794520833334,
      "v": 114
    },
    {
      "midi": 64,
      "hit": false,
      "t": 7232.139000000001,
      "d": 94.8660208333331,
      "v": 107
    },
    {
      "midi": 67,
      "hit": false,
      "t": 7232.139000000001,
      "d": 117.18743749999976,
      "v": 104
    },
    {
      "midi": 71,
      "hit": false,
      "t": 7232.139000000001,
      "d": 122.7677916666662,
      "v": 113
    },
    {
      "midi": 49,
      "hit": false,
      "t": 7232.139000000001,
      "d": 175.78115624999919,
      "v": 126
    },
    {
      "midi": 38,
      "hit": false,
      "t": 7499.996,
      "d": 270.6471770833332,
      "v": 120
    },
    {
      "midi": 62,
      "hit": false,
      "t": 7499.996,
      "d": 426.89709374999984,
      "v": 99
    },
    {
      "midi": 66,
      "hit": false,
      "t": 7499.996,
      "d": 432.4774479166663,
      "v": 126
    },
    {
      "midi": 69,
      "hit": false,
      "t": 7499.996,
      "d": 452.0086874999997,
      "v": 107
    },
    {
      "midi": 50,
      "hit": false,
      "t": 7767.853,
      "d": 198.10257291666676,
      "v": 125
    },
    {
      "midi": 62,
      "hit": false,
      "t": 8035.71,
      "d": 351.5623124999993,
      "v": 101
    },
    {
      "midi": 69,
      "hit": false,
      "t": 8035.71,
      "d": 393.4149687499985,
      "v": 117
    },
    {
      "midi": 40,
      "hit": false,
      "t": 8038.500177083333,
      "d": 267.85699999999997,
      "v": 126
    },
    {
      "midi": 64,
      "hit": false,
      "t": 8038.500177083333,
      "d": 373.88372916666594,
      "v": 120
    },
    {
      "midi": 52,
      "hit": false,
      "t": 8303.567,
      "d": 178.5713333333333,
      "v": 120
    },
    {
      "midi": 41,
      "hit": false,
      "t": 8571.423999999999,
      "d": 318.08018750000156,
      "v": 120
    },
    {
      "midi": 64,
      "hit": false,
      "t": 8574.214177083333,
      "d": 147.879385416667,
      "v": 107
    },
    {
      "midi": 60,
      "hit": false,
      "t": 8574.214177083333,
      "d": 401.78549999999996,
      "v": 107
    },
    {
      "midi": 65,
      "hit": false,
      "t": 8574.214177083333,
      "d": 426.89709374999984,
      "v": 113
    },
    {
      "midi": 69,
      "hit": false,
      "t": 8574.214177083333,
      "d": 488.2809895833343,
      "v": 113
    },
    {
      "midi": 53,
      "hit": false,
      "t": 8839.281,
      "d": 195.31239583333263,
      "v": 120
    },
    {
      "midi": 43,
      "hit": false,
      "t": 9107.138,
      "d": 332.03107291666674,
      "v": 117
    },
    {
      "midi": 62,
      "hit": false,
      "t": 9107.138,
      "d": 382.2542604166665,
      "v": 99
    },
    {
      "midi": 67,
      "hit": false,
      "t": 9107.138,
      "d": 426.89709374999984,
      "v": 120
    },
    {
      "midi": 71,
      "hit": false,
      "t": 9107.138,
      "d": 446.4283333333333,
      "v": 104
    },
    {
      "midi": 55,
      "hit": false,
      "t": 9374.995,
      "d": 220.4239895833325,
      "v": 117
    },
    {
      "midi": 72,
      "hit": false,
      "t": 9637.271645833333,
      "d": 131.13832291666768,
      "v": 107
    },
    {
      "midi": 45,
      "hit": false,
      "t": 9642.851999999999,
      "d": 256.6962916666671,
      "v": 110
    },
    {
      "midi": 64,
      "hit": false,
      "t": 9645.642177083333,
      "d": 756.1379895833325,
      "v": 90
    },
    {
      "midi": 69,
      "hit": false,
      "t": 9645.642177083333,
      "d": 775.6692291666659,
      "v": 113
    },
    {
      "midi": 73,
      "hit": false,
      "t": 9729.347489583333,
      "d": 680.8032083333328,
      "v": 92
    },
    {
      "midi": 57,
      "hit": false,
      "t": 9910.708999999999,
      "d": 242.7454062500001,
      "v": 120
    },
    {
      "midi": 45,
      "hit": false,
      "t": 10178.565999999999,
      "d": 214.84363541666607,
      "v": 120
    },
    {
      "midi": 45,
      "hit": false,
      "t": 10446.422999999999,
      "d": 131.13832291666586,
      "v": 92
    },
    {
      "midi": 69,
      "hit": false,
      "t": 10714.279999999999,
      "d": 39.06247916666689,
      "v": 104
    },
    {
      "midi": 72,
      "hit": false,
      "t": 10717.070177083333,
      "d": 16.741062499999316,
      "v": 80
    },
    {
      "midi": 64,
      "hit": false,
      "t": 10717.070177083333,
      "d": 33.48212499999863,
      "v": 85
    },
    {
      "midi": 73,
      "hit": false,
      "t": 10717.070177083333,
      "d": 64.17407291666677,
      "v": 126
    },
    {
      "midi": 33,
      "hit": false,
      "t": 10717.070177083333,
      "d": 206.47310416666733,
      "v": 120
    },
    {
      "midi": 73,
      "hit": false,
      "t": 10982.137,
      "d": 410.1560312500005,
      "v": 127
    },
    {
      "midi": 45,
      "hit": false,
      "t": 10984.927177083335,
      "d": 234.37487499999952,
      "v": 117
    },
    {
      "midi": 64,
      "hit": false,
      "t": 10984.927177083335,
      "d": 348.77213541666606,
      "v": 110
    },
    {
      "midi": 69,
      "hit": false,
      "t": 10984.927177083335,
      "d": 424.1069166666657,
      "v": 117
    },
    {
      "midi": 37,
      "hit": false,
      "t": 11249.994,
      "d": 248.32576041666653,
      "v": 127
    },
    {
      "midi": 64,
      "hit": false,
      "t": 11428.565333333334,
      "d": 80.91513541666609,
      "v": 64
    },
    {
      "midi": 67,
      "hit": false,
      "t": 11517.851,
      "d": 111.60708333333423,
      "v": 117
    },
    {
      "midi": 49,
      "hit": false,
      "t": 11517.851,
      "d": 186.94186458333388,
      "v": 127
    },
    {
      "midi": 64,
      "hit": false,
      "t": 11520.641177083335,
      "d": 114.39726041666654,
      "v": 83
    },
    {
      "midi": 72,
      "hit": false,
      "t": 11520.641177083335,
      "d": 147.879385416667,
      "v": 120
    },
    {
      "midi": 67,
      "hit": false,
      "t": 11785.708,
      "d": 72.54460416666734,
      "v": 104
    },
    {
      "midi": 38,
      "hit": false,
      "t": 11785.708,
      "d": 212.05345833333377,
      "v": 125
    },
    {
      "midi": 62,
      "hit": false,
      "t": 11788.498177083335,
      "d": 80.91513541666609,
      "v": 99
    },
    {
      "midi": 71,
      "hit": false,
      "t": 11788.498177083335,
      "d": 97.6561979166654,
      "v": 110
    },
    {
      "midi": 50,
      "hit": false,
      "t": 12056.355177083335,
      "d": 178.5713333333333,
      "v": 125
    },
    {
      "midi": 62,
      "hit": false,
      "t": 12056.355177083335,
      "d": 348.77213541666606,
      "v": 110
    },
    {
      "midi": 66,
      "hit": false,
      "t": 12056.355177083335,
      "d": 348.77213541666606,
      "v": 126
    },
    {
      "midi": 69,
      "hit": false,
      "t": 12056.355177083335,
      "d": 362.72302083333307,
      "v": 120
    },
    {
      "midi": 38,
      "hit": false,
      "t": 12324.212177083335,
      "d": 251.11593749999884,
      "v": 125
    },
    {
      "midi": 62,
      "hit": false,
      "t": 12499.993333333334,
      "d": 58.593718750000335,
      "v": 120
    },
    {
      "midi": 66,
      "hit": false,
      "t": 12499.993333333334,
      "d": 58.593718750000335,
      "v": 126
    },
    {
      "midi": 69,
      "hit": false,
      "t": 12499.993333333334,
      "d": 64.17407291666677,
      "v": 120
    },
    {
      "midi": 50,
      "hit": false,
      "t": 12589.279,
      "d": 189.7320416666662,
      "v": 126
    },
    {
      "midi": 64,
      "hit": false,
      "t": 12767.850333333334,
      "d": 198.10257291666676,
      "v": 85
    },
    {
      "midi": 72,
      "hit": false,
      "t": 12851.555645833334,
      "d": 50.22318749999977,
      "v": 90
    },
    {
      "midi": 69,
      "hit": false,
      "t": 12857.136,
      "d": 103.23655208333366,
      "v": 101
    },
    {
      "midi": 73,
      "hit": false,
      "t": 12857.136,
      "d": 114.39726041666654,
      "v": 126
    },
    {
      "midi": 33,
      "hit": false,
      "t": 12859.926177083335,
      "d": 242.74540624999827,
      "v": 120
    },
    {
      "midi": 64,
      "hit": false,
      "t": 13124.993,
      "d": 117.18743750000067,
      "v": 101
    },
    {
      "midi": 69,
      "hit": false,
      "t": 13124.993,
      "d": 119.9776145833348,
      "v": 104
    },
    {
      "midi": 45,
      "hit": false,
      "t": 13124.993,
      "d": 175.781156250001,
      "v": 125
    },
    {
      "midi": 73,
      "hit": false,
      "t": 13127.783177083335,
      "d": 128.34814583333355,
      "v": 124
    },
    {
      "midi": 71,
      "hit": false,
      "t": 13395.640177083334,
      "d": 2.790177083334129,
      "v": 79
    },
    {
      "midi": 64,
      "hit": false,
      "t": 13395.640177083334,
      "d": 83.70531250000022,
      "v": 107
    },
    {
      "midi": 67,
      "hit": false,
      "t": 13395.640177083334,
      "d": 89.28566666666666,
      "v": 110
    },
    {
      "midi": 72,
      "hit": false,
      "t": 13395.640177083334,
      "d": 122.76779166666711,
      "v": 94
    },
    {
      "midi": 37,
      "hit": false,
      "t": 13398.430354166669,
      "d": 212.05345833333377,
      "v": 124
    },
    {
      "midi": 49,
      "hit": false,
      "t": 13660.707000000002,
      "d": 178.57133333333513,
      "v": 127
    },
    {
      "midi": 64,
      "hit": false,
      "t": 13663.497177083336,
      "d": 97.65619791666722,
      "v": 107
    },
    {
      "midi": 67,
      "hit": false,
      "t": 13663.497177083336,
      "d": 111.60708333333423,
      "v": 110
    },
    {
      "midi": 71,
      "hit": false,
      "t": 13663.497177083336,
      "d": 119.9776145833348,
      "v": 104
    },
    {
      "midi": 38,
      "hit": false,
      "t": 13928.564000000004,
      "d": 265.06682291666766,
      "v": 123
    },
    {
      "midi": 62,
      "hit": false,
      "t": 13928.564000000004,
      "d": 647.321083333336,
      "v": 104
    },
    {
      "midi": 69,
      "hit": false,
      "t": 13928.564000000004,
      "d": 658.4817916666689,
      "v": 120
    },
    {
      "midi": 66,
      "hit": false,
      "t": 13931.354177083338,
      "d": 644.5309062500019,
      "v": 126
    },
    {
      "midi": 50,
      "hit": false,
      "t": 14196.421000000006,
      "d": 209.26328124999964,
      "v": 126
    },
    {
      "midi": 38,
      "hit": false,
      "t": 14464.278000000006,
      "d": 265.06682291666766,
      "v": 125
    },
    {
      "midi": 69,
      "hit": false,
      "t": 14642.849333333339,
      "d": 50.223187500001586,
      "v": 120
    },
    {
      "midi": 62,
      "hit": false,
      "t": 14642.849333333339,
      "d": 55.803541666668025,
      "v": 117
    },
    {
      "midi": 66,
      "hit": false,
      "t": 14645.639510416673,
      "d": 53.013364583333896,
      "v": 127
    },
    {
      "midi": 50,
      "hit": false,
      "t": 14732.135000000007,
      "d": 114.39726041666654,
      "v": 123
    },
    {
      "midi": 64,
      "hit": false,
      "t": 14910.70633333334,
      "d": 200.8927500000009,
      "v": 99
    },
    {
      "midi": 72,
      "hit": false,
      "t": 14994.411645833341,
      "d": 55.803541666666206,
      "v": 94
    },
    {
      "midi": 73,
      "hit": false,
      "t": 14999.992000000007,
      "d": 108.8169062500001,
      "v": 127
    },
    {
      "midi": 69,
      "hit": false,
      "t": 14999.992000000007,
      "d": 136.71867708333411,
      "v": 101
    },
    {
      "midi": 33,
      "hit": false,
      "t": 14999.992000000007,
      "d": 248.32576041666834,
      "v": 113
    },
    {
      "midi": 64,
      "hit": false,
      "t": 15270.639177083343,
      "d": 131.13832291666586,
      "v": 99
    },
    {
      "midi": 69,
      "hit": false,
      "t": 15270.639177083343,
      "d": 133.92849999999999,
      "v": 107
    },
    {
      "midi": 73,
      "hit": false,
      "t": 15270.639177083343,
      "d": 133.92849999999999,
      "v": 126
    },
    {
      "midi": 45,
      "hit": false,
      "t": 15270.639177083343,
      "d": 198.10257291666676,
      "v": 123
    },
    {
      "midi": 64,
      "hit": false,
      "t": 15538.496177083343,
      "d": 83.70531250000022,
      "v": 113
    },
    {
      "midi": 67,
      "hit": false,
      "t": 15538.496177083343,
      "d": 103.23655208333366,
      "v": 110
    },
    {
      "midi": 72,
      "hit": false,
      "t": 15538.496177083343,
      "d": 114.39726041666654,
      "v": 110
    },
    {
      "midi": 37,
      "hit": false,
      "t": 15538.496177083343,
      "d": 226.00434375000077,
      "v": 114
    },
    {
      "midi": 49,
      "hit": false,
      "t": 15803.563000000011,
      "d": 172.9909791666687,
      "v": 126
    },
    {
      "midi": 64,
      "hit": false,
      "t": 15806.353177083345,
      "d": 92.07584375000079,
      "v": 107
    },
    {
      "midi": 67,
      "hit": false,
      "t": 15806.353177083345,
      "d": 117.18743750000067,
      "v": 104
    },
    {
      "midi": 71,
      "hit": false,
      "t": 15806.353177083345,
      "d": 119.9776145833348,
      "v": 113
    },
    {
      "midi": 38,
      "hit": false,
      "t": 16074.210177083347,
      "d": 267.85699999999997,
      "v": 120
    },
    {
      "midi": 62,
      "hit": false,
      "t": 16074.210177083347,
      "d": 424.10691666666753,
      "v": 99
    },
    {
      "midi": 66,
      "hit": false,
      "t": 16074.210177083347,
      "d": 429.6872708333358,
      "v": 126
    },
    {
      "midi": 69,
      "hit": false,
      "t": 16074.210177083347,
      "d": 449.2185104166674,
      "v": 107
    },
    {
      "midi": 50,
      "hit": false,
      "t": 16339.277000000013,
      "d": 198.10257291666858,
      "v": 125
    },
    {
      "midi": 62,
      "hit": false,
      "t": 16607.134000000016,
      "d": 351.562312500002,
      "v": 101
    },
    {
      "midi": 69,
      "hit": false,
      "t": 16607.134000000016,
      "d": 396.20514583333716,
      "v": 117
    },
    {
      "midi": 40,
      "hit": false,
      "t": 16609.92417708335,
      "d": 267.85699999999997,
      "v": 126
    },
    {
      "midi": 64,
      "hit": false,
      "t": 16609.92417708335,
      "d": 376.6739062500019,
      "v": 120
    },
    {
      "midi": 52,
      "hit": false,
      "t": 16874.991000000016,
      "d": 178.57133333333695,
      "v": 120
    },
    {
      "midi": 64,
      "hit": false,
      "t": 17145.638177083354,
      "d": 147.8793854166688,
      "v": 107
    },
    {
      "midi": 41,
      "hit": false,
      "t": 17145.638177083354,
      "d": 318.0801875000034,
      "v": 120
    },
    {
      "midi": 65,
      "hit": false,
      "t": 17145.638177083354,
      "d": 426.89709375000166,
      "v": 113
    },
    {
      "midi": 60,
      "hit": false,
      "t": 17148.42835416669,
      "d": 398.99532291666765,
      "v": 107
    },
    {
      "midi": 69,
      "hit": false,
      "t": 17148.42835416669,
      "d": 485.4908125000002,
      "v": 113
    },
    {
      "midi": 53,
      "hit": false,
      "t": 17413.495177083358,
      "d": 195.3123958333308,
      "v": 120
    },
    {
      "midi": 43,
      "hit": false,
      "t": 17681.352177083354,
      "d": 329.2408958333326,
      "v": 117
    },
    {
      "midi": 62,
      "hit": false,
      "t": 17681.352177083354,
      "d": 379.4640833333324,
      "v": 99
    },
    {
      "midi": 67,
      "hit": false,
      "t": 17681.352177083354,
      "d": 424.10691666666753,
      "v": 120
    },
    {
      "midi": 71,
      "hit": false,
      "t": 17681.352177083354,
      "d": 443.63815624999916,
      "v": 104
    },
    {
      "midi": 55,
      "hit": false,
      "t": 17946.41900000002,
      "d": 220.42398958333433,
      "v": 117
    },
    {
      "midi": 72,
      "hit": false,
      "t": 18208.695645833355,
      "d": 128.34814583333355,
      "v": 107
    },
    {
      "midi": 45,
      "hit": false,
      "t": 18214.276000000023,
      "d": 256.6962916666671,
      "v": 110
    },
    {
      "midi": 69,
      "hit": false,
      "t": 18214.276000000023,
      "d": 781.2495833333342,
      "v": 113
    },
    {
      "midi": 64,
      "hit": false,
      "t": 18217.066177083358,
      "d": 753.3478125000001,
      "v": 90
    },
    {
      "midi": 73,
      "hit": false,
      "t": 18303.56166666669,
      "d": 678.0130312500005,
      "v": 92
    },
    {
      "midi": 57,
      "hit": false,
      "t": 18482.133000000023,
      "d": 245.53558333333422,
      "v": 120
    },
    {
      "midi": 45,
      "hit": false,
      "t": 18749.990000000023,
      "d": 214.84363541666607,
      "v": 120
    },
    {
      "midi": 45,
      "hit": false,
      "t": 19017.847000000023,
      "d": 131.13832291666768,
      "v": 92
    },
    {
      "midi": 64,
      "hit": false,
      "t": 19288.494177083357,
      "d": 33.48212500000227,
      "v": 85
    },
    {
      "midi": 69,
      "hit": false,
      "t": 19288.494177083357,
      "d": 36.2723020833364,
      "v": 104
    },
    {
      "midi": 73,
      "hit": false,
      "t": 19288.494177083357,
      "d": 64.17407291667041,
      "v": 126
    },
    {
      "midi": 72,
      "hit": false,
      "t": 19291.28435416669,
      "d": 13.950885416667006,
      "v": 80
    },
    {
      "midi": 33,
      "hit": false,
      "t": 19291.28435416669,
      "d": 203.68292708333684,
      "v": 120
    },
    {
      "midi": 45,
      "hit": false,
      "t": 19556.35117708336,
      "d": 231.5846979166672,
      "v": 117
    },
    {
      "midi": 64,
      "hit": false,
      "t": 19556.35117708336,
      "d": 348.7721354166679,
      "v": 110
    },
    {
      "midi": 73,
      "hit": false,
      "t": 19556.35117708336,
      "d": 410.1560312500005,
      "v": 127
    },
    {
      "midi": 69,
      "hit": false,
      "t": 19559.141354166695,
      "d": 421.3167395833334,
      "v": 117
    },
    {
      "midi": 37,
      "hit": false,
      "t": 19824.20817708336,
      "d": 245.53558333333422,
      "v": 127
    },
    {
      "midi": 64,
      "hit": false,
      "t": 19997.19915625003,
      "d": 83.7053124999984,
      "v": 64
    },
    {
      "midi": 67,
      "hit": false,
      "t": 20089.275000000027,
      "d": 111.60708333333241,
      "v": 117
    },
    {
      "midi": 64,
      "hit": false,
      "t": 20089.275000000027,
      "d": 114.39726041666654,
      "v": 83
    },
    {
      "midi": 72,
      "hit": false,
      "t": 20089.275000000027,
      "d": 153.45973958333343,
      "v": 120
    },
    {
      "midi": 49,
      "hit": false,
      "t": 20089.275000000027,
      "d": 189.7320416666662,
      "v": 127
    },
    {
      "midi": 67,
      "hit": false,
      "t": 20357.132000000027,
      "d": 75.33478124999965,
      "v": 104
    },
    {
      "midi": 38,
      "hit": false,
      "t": 20357.132000000027,
      "d": 212.0534583333283,
      "v": 125
    },
    {
      "midi": 62,
      "hit": false,
      "t": 20359.92217708336,
      "d": 80.91513541666427,
      "v": 99
    },
    {
      "midi": 71,
      "hit": false,
      "t": 20359.92217708336,
      "d": 100.4463749999959,
      "v": 110
    },
    {
      "midi": 50,
      "hit": false,
      "t": 20624.989000000023,
      "d": 181.36151041666744,
      "v": 125
    },
    {
      "midi": 66,
      "hit": false,
      "t": 20624.989000000023,
      "d": 351.562312500002,
      "v": 126
    },
    {
      "midi": 69,
      "hit": false,
      "t": 20624.989000000023,
      "d": 365.513197916669,
      "v": 120
    },
    {
      "midi": 62,
      "hit": false,
      "t": 20627.779177083357,
      "d": 348.7721354166679,
      "v": 110
    },
    {
      "midi": 38,
      "hit": false,
      "t": 20895.636177083357,
      "d": 251.1159375000061,
      "v": 125
    },
    {
      "midi": 62,
      "hit": false,
      "t": 21071.41733333336,
      "d": 58.593718750002154,
      "v": 120
    },
    {
      "midi": 66,
      "hit": false,
      "t": 21074.207510416694,
      "d": 55.803541666668025,
      "v": 126
    },
    {
      "midi": 69,
      "hit": false,
      "t": 21074.207510416694,
      "d": 61.38389583333628,
      "v": 120
    },
    {
      "midi": 50,
      "hit": false,
      "t": 21163.493177083365,
      "d": 186.94186458333206,
      "v": 126
    },
    {
      "midi": 64,
      "hit": false,
      "t": 21339.274333333364,
      "d": 195.31239583333445,
      "v": 85
    },
    {
      "midi": 72,
      "hit": false,
      "t": 21420.18946875003,
      "d": 50.22318749999977,
      "v": 90
    },
    {
      "midi": 69,
      "hit": false,
      "t": 21431.350177083365,
      "d": 100.44637499999953,
      "v": 101
    },
    {
      "midi": 73,
      "hit": false,
      "t": 21431.350177083365,
      "d": 111.60708333333241,
      "v": 126
    },
    {
      "midi": 33,
      "hit": false,
      "t": 21434.1403541667,
      "d": 237.16505208333183,
      "v": 120
    },
    {
      "midi": 64,
      "hit": false,
      "t": 21699.207177083365,
      "d": 117.18743750000067,
      "v": 101
    },
    {
      "midi": 69,
      "hit": false,
      "t": 21699.207177083365,
      "d": 117.18743750000067,
      "v": 104
    },
    {
      "midi": 73,
      "hit": false,
      "t": 21699.207177083365,
      "d": 128.34814583333355,
      "v": 124
    },
    {
      "midi": 45,
      "hit": false,
      "t": 21699.207177083365,
      "d": 170.20080208333457,
      "v": 125
    },
    {
      "midi": 71,
      "hit": false,
      "t": 21964.274000000034,
      "d": 2.790177083334129,
      "v": 79
    },
    {
      "midi": 64,
      "hit": false,
      "t": 21964.274000000034,
      "d": 89.28566666666666,
      "v": 107
    },
    {
      "midi": 67,
      "hit": false,
      "t": 21964.274000000034,
      "d": 92.07584375000079,
      "v": 110
    },
    {
      "midi": 72,
      "hit": false,
      "t": 21967.064177083368,
      "d": 122.76779166666529,
      "v": 94
    },
    {
      "midi": 37,
      "hit": false,
      "t": 21967.064177083368,
      "d": 217.6338125000002,
      "v": 124
    },
    {
      "midi": 64,
      "hit": false,
      "t": 22232.131000000034,
      "d": 103.23655208333366,
      "v": 107
    },
    {
      "midi": 67,
      "hit": false,
      "t": 22232.131000000034,
      "d": 117.18743750000067,
      "v": 110
    },
    {
      "midi": 71,
      "hit": false,
      "t": 22232.131000000034,
      "d": 122.76779166666893,
      "v": 104
    },
    {
      "midi": 49,
      "hit": false,
      "t": 22232.131000000034,
      "d": 181.36151041666744,
      "v": 127
    },
    {
      "midi": 38,
      "hit": false,
      "t": 22499.988000000034,
      "d": 265.06682291666584,
      "v": 123
    },
    {
      "midi": 62,
      "hit": false,
      "t": 22499.988000000034,
      "d": 644.5309062500019,
      "v": 104
    },
    {
      "midi": 69,
      "hit": false,
      "t": 22499.988000000034,
      "d": 658.4817916666689,
      "v": 120
    },
    {
      "midi": 66,
      "hit": false,
      "t": 22502.778177083368,
      "d": 641.7407291666677,
      "v": 126
    },
    {
      "midi": 50,
      "hit": false,
      "t": 22770.635177083368,
      "d": 203.6829270833332,
      "v": 126
    },
    {
      "midi": 38,
      "hit": false,
      "t": 23038.492177083368,
      "d": 262.276645833339,
      "v": 125
    },
    {
      "midi": 69,
      "hit": false,
      "t": 23214.27333333337,
      "d": 50.22318749999977,
      "v": 120
    },
    {
      "midi": 62,
      "hit": false,
      "t": 23214.27333333337,
      "d": 53.013364583333896,
      "v": 117
    },
    {
      "midi": 66,
      "hit": false,
      "t": 23214.27333333337,
      "d": 55.803541666668025,
      "v": 127
    },
    {
      "midi": 50,
      "hit": false,
      "t": 23303.55900000004,
      "d": 114.39726041666654,
      "v": 123
    },
    {
      "midi": 64,
      "hit": false,
      "t": 23482.130333333374,
      "d": 200.89274999999907,
      "v": 99
    },
    {
      "midi": 72,
      "hit": false,
      "t": 23565.835645833373,
      "d": 58.593718749998516,
      "v": 94
    },
    {
      "midi": 73,
      "hit": false,
      "t": 23574.20617708337,
      "d": 106.02672916666779,
      "v": 127
    },
    {
      "midi": 69,
      "hit": false,
      "t": 23574.20617708337,
      "d": 133.9285000000018,
      "v": 101
    },
    {
      "midi": 33,
      "hit": false,
      "t": 23574.20617708337,
      "d": 245.53558333333422,
      "v": 113
    },
    {
      "midi": 69,
      "hit": false,
      "t": 23839.273000000037,
      "d": 136.71867708333593,
      "v": 107
    },
    {
      "midi": 73,
      "hit": false,
      "t": 23839.273000000037,
      "d": 139.50885416667006,
      "v": 126
    },
    {
      "midi": 45,
      "hit": false,
      "t": 23839.273000000037,
      "d": 200.8927500000027,
      "v": 123
    },
    {
      "midi": 64,
      "hit": false,
      "t": 23842.06317708337,
      "d": 128.34814583333355,
      "v": 99
    },
    {
      "midi": 64,
      "hit": false,
      "t": 24107.13000000004,
      "d": 89.28566666666666,
      "v": 113
    },
    {
      "midi": 67,
      "hit": false,
      "t": 24107.13000000004,
      "d": 103.23655208333366,
      "v": 110
    },
    {
      "midi": 72,
      "hit": false,
      "t": 24107.13000000004,
      "d": 114.39726041666654,
      "v": 110
    },
    {
      "midi": 37,
      "hit": false,
      "t": 24109.920177083375,
      "d": 226.00434374999895,
      "v": 114
    },
    {
      "midi": 64,
      "hit": false,
      "t": 24374.98700000004,
      "d": 94.86602083333491,
      "v": 107
    },
    {
      "midi": 67,
      "hit": false,
      "t": 24374.98700000004,
      "d": 117.18743750000067,
      "v": 104
    },
    {
      "midi": 71,
      "hit": false,
      "t": 24374.98700000004,
      "d": 122.76779166666893,
      "v": 113
    },
    {
      "midi": 49,
      "hit": false,
      "t": 24374.98700000004,
      "d": 175.78115625000282,
      "v": 126
    },
    {
      "midi": 38,
      "hit": false,
      "t": 24645.63417708338,
      "d": 267.85699999999997,
      "v": 120
    },
    {
      "midi": 62,
      "hit": false,
      "t": 24645.63417708338,
      "d": 424.10691666666753,
      "v": 99
    },
    {
      "midi": 66,
      "hit": false,
      "t": 24645.63417708338,
      "d": 426.89709375000166,
      "v": 126
    },
    {
      "midi": 69,
      "hit": false,
      "t": 24645.63417708338,
      "d": 449.2185104166674,
      "v": 107
    },
    {
      "midi": 50,
      "hit": false,
      "t": 24913.49117708338,
      "d": 195.31239583333445,
      "v": 125
    },
    {
      "midi": 62,
      "hit": false,
      "t": 25181.34817708338,
      "d": 348.7721354166679,
      "v": 101
    },
    {
      "midi": 69,
      "hit": false,
      "t": 25181.34817708338,
      "d": 393.414968750003,
      "v": 117
    },
    {
      "midi": 40,
      "hit": false,
      "t": 25184.138354166713,
      "d": 265.06682291666584,
      "v": 126
    },
    {
      "midi": 64,
      "hit": false,
      "t": 25184.138354166713,
      "d": 373.88372916666776,
      "v": 120
    },
    {
      "midi": 52,
      "hit": false,
      "t": 25449.20517708338,
      "d": 175.78115625000282,
      "v": 120
    },
    {
      "midi": 41,
      "hit": false,
      "t": 25714.272000000048,
      "d": 320.87036458333387,
      "v": 120
    },
    {
      "midi": 64,
      "hit": false,
      "t": 25717.062177083382,
      "d": 147.87938541666517,
      "v": 107
    },
    {
      "midi": 60,
      "hit": false,
      "t": 25717.062177083382,
      "d": 401.78549999999814,
      "v": 107
    },
    {
      "midi": 65,
      "hit": false,
      "t": 25717.062177083382,
      "d": 426.897093749998,
      "v": 113
    },
    {
      "midi": 69,
      "hit": false,
      "t": 25717.062177083382,
      "d": 488.28098958333067,
      "v": 113
    },
    {
      "midi": 53,
      "hit": false,
      "t": 25982.129000000048,
      "d": 195.3123958333308,
      "v": 120
    },
    {
      "midi": 62,
      "hit": false,
      "t": 26249.986000000048,
      "d": 385.04443750000064,
      "v": 99
    },
    {
      "midi": 67,
      "hit": false,
      "t": 26249.986000000048,
      "d": 426.89709375000166,
      "v": 120
    },
    {
      "midi": 71,
      "hit": false,
      "t": 26249.986000000048,
      "d": 446.4283333333333,
      "v": 104
    },
    {
      "midi": 43,
      "hit": false,
      "t": 26252.776177083382,
      "d": 329.2408958333326,
      "v": 117
    },
    {
      "midi": 55,
      "hit": false,
      "t": 26517.843000000048,
      "d": 217.6338125000002,
      "v": 117
    },
    {
      "midi": 72,
      "hit": false,
      "t": 26780.119645833383,
      "d": 131.13832291666404,
      "v": 107
    },
    {
      "midi": 45,
      "hit": false,
      "t": 26788.490177083382,
      "d": 253.90611458333296,
      "v": 110
    },
    {
      "midi": 64,
      "hit": false,
      "t": 26788.490177083382,
      "d": 756.1379895833306,
      "v": 90
    },
    {
      "midi": 69,
      "hit": false,
      "t": 26788.490177083382,
      "d": 775.6692291666623,
      "v": 113
    },
    {
      "midi": 73,
      "hit": false,
      "t": 26872.19548958338,
      "d": 683.5933854166651,
      "v": 92
    },
    {
      "midi": 57,
      "hit": false,
      "t": 27056.347177083382,
      "d": 239.95522916666596,
      "v": 120
    },
    {
      "midi": 45,
      "hit": false,
      "t": 27324.204177083382,
      "d": 212.05345833333195,
      "v": 120
    },
    {
      "midi": 45,
      "hit": false,
      "t": 27589.271000000044,
      "d": 131.13832291666768,
      "v": 92
    },
    {
      "midi": 57,
      "hit": false,
      "t": 27857.128000000044,
      "d": 1397.8787187499984,
      "v": 66
    },
    {
      "midi": 38,
      "hit": false,
      "t": 27859.91817708338,
      "d": 304.12930208333273,
      "v": 104
    },
    {
      "midi": 60,
      "hit": false,
      "t": 27859.91817708338,
      "d": 429.68727083333215,
      "v": 85
    },
    {
      "midi": 62,
      "hit": false,
      "t": 27859.91817708338,
      "d": 585.9371874999961,
      "v": 74
    },
    {
      "midi": 65,
      "hit": false,
      "t": 27859.91817708338,
      "d": 2156.806885416667,
      "v": 79
    },
    {
      "midi": 50,
      "hit": false,
      "t": 28124.985000000044,
      "d": 251.11593749999884,
      "v": 113
    },
    {
      "midi": 36,
      "hit": false,
      "t": 28395.632177083375,
      "d": 267.85699999999997,
      "v": 117
    },
    {
      "midi": 60,
      "hit": false,
      "t": 28395.632177083375,
      "d": 424.10691666666753,
      "v": 74
    },
    {
      "midi": 48,
      "hit": false,
      "t": 28660.69900000004,
      "d": 228.79452083333672,
      "v": 113
    },
    {
      "midi": 35,
      "hit": false,
      "t": 28931.34617708338,
      "d": 276.2275312499987,
      "v": 107
    },
    {
      "midi": 59,
      "hit": false,
      "t": 28931.34617708338,
      "d": 566.4059479166644,
      "v": 82
    },
    {
      "midi": 47,
      "hit": false,
      "t": 29196.413000000044,
      "d": 220.4239895833307,
      "v": 123
    },
    {
      "midi": 33,
      "hit": false,
      "t": 29467.060177083375,
      "d": 265.0668229166695,
      "v": 113
    },
    {
      "midi": 57,
      "hit": false,
      "t": 29467.060177083375,
      "d": 404.5756770833359,
      "v": 107
    },
    {
      "midi": 45,
      "hit": false,
      "t": 29732.127000000044,
      "d": 234.37487500000134,
      "v": 110
    },
    {
      "midi": 31,
      "hit": false,
      "t": 29999.984000000044,
      "d": 256.6962916666671,
      "v": 99
    },
    {
      "midi": 55,
      "hit": false,
      "t": 29999.984000000044,
      "d": 867.7450729166667,
      "v": 92
    },
    {
      "midi": 59,
      "hit": false,
      "t": 30002.774177083378,
      "d": 1925.2221875000068,
      "v": 94
    },
    {
      "midi": 62,
      "hit": false,
      "t": 30002.774177083378,
      "d": 2101.003343750006,
      "v": 92
    },
    {
      "midi": 43,
      "hit": false,
      "t": 30270.631177083378,
      "d": 239.95522916666596,
      "v": 120
    },
    {
      "midi": 31,
      "hit": false,
      "t": 30538.488177083378,
      "d": 828.6825937500034,
      "v": 117
    },
    {
      "midi": 43,
      "hit": false,
      "t": 30803.555000000044,
      "d": 315.29001041666925,
      "v": 117
    },
    {
      "midi": 55,
      "hit": false,
      "t": 31074.202177083378,
      "d": 878.9057812500068,
      "v": 113
    },
    {
      "midi": 43,
      "hit": false,
      "t": 31339.269000000048,
      "d": 251.11593750000247,
      "v": 123
    },
    {
      "midi": 31,
      "hit": false,
      "t": 31607.12600000005,
      "d": 231.5846979166672,
      "v": 123
    },
    {
      "midi": 43,
      "hit": false,
      "t": 31874.98300000005,
      "d": 214.84363541666607,
      "v": 125
    },
    {
      "midi": 36,
      "hit": false,
      "t": 32145.630177083385,
      "d": 345.98195833333375,
      "v": 113
    },
    {
      "midi": 60,
      "hit": false,
      "t": 32145.630177083385,
      "d": 463.1693958333344,
      "v": 101
    },
    {
      "midi": 55,
      "hit": false,
      "t": 32145.630177083385,
      "d": 1210.9368541666663,
      "v": 90
    },
    {
      "midi": 64,
      "hit": false,
      "t": 32145.630177083385,
      "d": 2017.298031250004,
      "v": 94
    },
    {
      "midi": 48,
      "hit": false,
      "t": 32413.487177083385,
      "d": 239.9552291666696,
      "v": 123
    },
    {
      "midi": 35,
      "hit": false,
      "t": 32681.34417708339,
      "d": 267.8570000000036,
      "v": 117
    },
    {
      "midi": 59,
      "hit": false,
      "t": 32681.34417708339,
      "d": 396.20514583333716,
      "v": 82
    },
    {
      "midi": 47,
      "hit": false,
      "t": 32946.41100000006,
      "d": 253.90611458333296,
      "v": 123
    },
    {
      "midi": 33,
      "hit": false,
      "t": 33214.268000000055,
      "d": 270.64717708333046,
      "v": 123
    },
    {
      "midi": 57,
      "hit": false,
      "t": 33214.268000000055,
      "d": 566.4059479166608,
      "v": 75
    },
    {
      "midi": 45,
      "hit": false,
      "t": 33482.12500000005,
      "d": 228.79452083333308,
      "v": 120
    },
    {
      "midi": 31,
      "hit": false,
      "t": 33749.98200000005,
      "d": 259.4864687500012,
      "v": 120
    },
    {
      "midi": 55,
      "hit": false,
      "t": 33749.98200000005,
      "d": 351.56231250000565,
      "v": 101
    },
    {
      "midi": 43,
      "hit": false,
      "t": 34020.629177083385,
      "d": 234.37487500000134,
      "v": 123
    },
    {
      "midi": 52,
      "hit": false,
      "t": 34288.48617708339,
      "d": 1263.9502187499893,
      "v": 88
    },
    {
      "midi": 57,
      "hit": false,
      "t": 34288.48617708339,
      "d": 1609.9321770833194,
      "v": 90
    },
    {
      "midi": 60,
      "hit": false,
      "t": 34288.48617708339,
      "d": 2056.3605104166563,
      "v": 83
    },
    {
      "midi": 33,
      "hit": false,
      "t": 34291.27635416672,
      "d": 242.74540624999645,
      "v": 125
    },
    {
      "midi": 45,
      "hit": false,
      "t": 34556.343177083385,
      "d": 248.3257604166647,
      "v": 120
    },
    {
      "midi": 35,
      "hit": false,
      "t": 34824.20017708338,
      "d": 234.37487500000134,
      "v": 123
    },
    {
      "midi": 47,
      "hit": false,
      "t": 35089.26700000005,
      "d": 251.11593749999884,
      "v": 125
    },
    {
      "midi": 36,
      "hit": false,
      "t": 35357.12400000005,
      "d": 237.1650520833282,
      "v": 123
    },
    {
      "midi": 48,
      "hit": false,
      "t": 35624.98100000004,
      "d": 242.74540624999645,
      "v": 125
    },
    {
      "midi": 40,
      "hit": false,
      "t": 35895.628177083374,
      "d": 326.45071875000576,
      "v": 107
    },
    {
      "midi": 52,
      "hit": false,
      "t": 36160.69500000004,
      "d": 212.05345833333558,
      "v": 120
    },
    {
      "midi": 60,
      "hit": false,
      "t": 36431.34217708338,
      "d": 426.8970937500053,
      "v": 85
    },
    {
      "midi": 57,
      "hit": false,
      "t": 36431.34217708338,
      "d": 1397.8787187499984,
      "v": 66
    },
    {
      "midi": 65,
      "hit": false,
      "t": 36431.34217708338,
      "d": 2159.5970625000045,
      "v": 79
    },
    {
      "midi": 38,
      "hit": false,
      "t": 36434.132354166715,
      "d": 298.54894791667175,
      "v": 104
    },
    {
      "midi": 62,
      "hit": false,
      "t": 36434.132354166715,
      "d": 580.3568333333387,
      "v": 74
    },
    {
      "midi": 50,
      "hit": false,
      "t": 36699.199177083385,
      "d": 245.53558333333785,
      "v": 113
    },
    {
      "midi": 36,
      "hit": false,
      "t": 36967.05617708339,
      "d": 267.85699999999633,
      "v": 117
    },
    {
      "midi": 60,
      "hit": false,
      "t": 36967.05617708339,
      "d": 424.1069166666639,
      "v": 74
    },
    {
      "midi": 48,
      "hit": false,
      "t": 37232.12300000005,
      "d": 228.79452083333308,
      "v": 113
    },
    {
      "midi": 35,
      "hit": false,
      "t": 37499.98000000005,
      "d": 279.01770833333285,
      "v": 107
    },
    {
      "midi": 59,
      "hit": false,
      "t": 37499.98000000005,
      "d": 569.1961250000022,
      "v": 82
    },
    {
      "midi": 47,
      "hit": false,
      "t": 37770.62717708338,
      "d": 214.8436354166697,
      "v": 123
    },
    {
      "midi": 57,
      "hit": false,
      "t": 38038.48417708338,
      "d": 404.57567708333954,
      "v": 107
    },
    {
      "midi": 33,
      "hit": false,
      "t": 38041.274354166715,
      "d": 262.27664583333535,
      "v": 113
    },
    {
      "midi": 45,
      "hit": false,
      "t": 38303.55100000005,
      "d": 237.16505208333547,
      "v": 110
    },
    {
      "midi": 31,
      "hit": false,
      "t": 38574.19817708339,
      "d": 251.11593749999884,
      "v": 99
    },
    {
      "midi": 55,
      "hit": false,
      "t": 38574.19817708339,
      "d": 864.9548958333253,
      "v": 92
    },
    {
      "midi": 59,
      "hit": false,
      "t": 38576.98835416672,
      "d": 1922.4320104166545,
      "v": 94
    },
    {
      "midi": 62,
      "hit": false,
      "t": 38576.98835416672,
      "d": 2098.213166666661,
      "v": 92
    },
    {
      "midi": 43,
      "hit": false,
      "t": 38839.26500000005,
      "d": 242.74540624999645,
      "v": 120
    },
    {
      "midi": 31,
      "hit": false,
      "t": 39107.12200000005,
      "d": 834.2629479166644,
      "v": 117
    },
    {
      "midi": 43,
      "hit": false,
      "t": 39374.97900000005,
      "d": 318.0801874999961,
      "v": 117
    },
    {
      "midi": 55,
      "hit": false,
      "t": 39645.62617708338,
      "d": 878.9057812499959,
      "v": 113
    },
    {
      "midi": 43,
      "hit": false,
      "t": 39910.69300000004,
      "d": 253.90611458333296,
      "v": 123
    },
    {
      "midi": 31,
      "hit": false,
      "t": 40181.34017708337,
      "d": 228.79452083333308,
      "v": 123
    },
    {
      "midi": 43,
      "hit": false,
      "t": 40446.40700000004,
      "d": 217.63381250000384,
      "v": 125
    },
    {
      "midi": 64,
      "hit": false,
      "t": 40717.05417708338,
      "d": 940.2896770833322,
      "v": 101
    },
    {
      "midi": 36,
      "hit": false,
      "t": 40719.844354166715,
      "d": 934.709322916664,
      "v": 103
    },
    {
      "midi": 60,
      "hit": false,
      "t": 40719.844354166715,
      "d": 937.4994999999981,
      "v": 110
    },
    {
      "midi": 48,
      "hit": false,
      "t": 40719.844354166715,
      "d": 940.2896770833322,
      "v": 101
    },
    {
      "midi": 55,
      "hit": false,
      "t": 40719.844354166715,
      "d": 951.4503854166687,
      "v": 105
    },
    {
      "midi": 35,
      "hit": false,
      "t": 41791.272354166715,
      "d": 929.128968750003,
      "v": 100
    },
    {
      "midi": 47,
      "hit": false,
      "t": 41794.06253125005,
      "d": 926.3387916666688,
      "v": 106
    },
    {
      "midi": 65,
      "hit": false,
      "t": 41794.06253125005,
      "d": 959.8209166666711,
      "v": 104
    },
    {
      "midi": 57,
      "hit": false,
      "t": 41794.06253125005,
      "d": 968.1914479166735,
      "v": 102
    },
    {
      "midi": 59,
      "hit": false,
      "t": 41794.06253125005,
      "d": 982.1423333333369,
      "v": 108
    },
    {
      "midi": 62,
      "hit": false,
      "t": 41794.06253125005,
      "d": 1015.6244583333391,
      "v": 108
    },
    {
      "midi": 52,
      "hit": false,
      "t": 42859.91017708339,
      "d": 870.5352500000008,
      "v": 106
    },
    {
      "midi": 40,
      "hit": false,
      "t": 42862.70035416672,
      "d": 892.8566666666666,
      "v": 108
    },
    {
      "midi": 57,
      "hit": false,
      "t": 42862.70035416672,
      "d": 982.1423333333369,
      "v": 104
    },
    {
      "midi": 59,
      "hit": false,
      "t": 42862.70035416672,
      "d": 998.8833958333344,
      "v": 117
    },
    {
      "midi": 64,
      "hit": false,
      "t": 42862.70035416672,
      "d": 1001.6735729166685,
      "v": 117
    },
    {
      "midi": 40,
      "hit": false,
      "t": 43931.33817708339,
      "d": 945.8700312500005,
      "v": 120
    },
    {
      "midi": 56,
      "hit": false,
      "t": 43934.12835416672,
      "d": 870.5352500000008,
      "v": 114
    },
    {
      "midi": 28,
      "hit": false,
      "t": 43934.12835416672,
      "d": 934.709322916664,
      "v": 108
    },
    {
      "midi": 64,
      "hit": false,
      "t": 43934.12835416672,
      "d": 957.0307395833297,
      "v": 110
    },
    {
      "midi": 59,
      "hit": false,
      "t": 43934.12835416672,
      "d": 959.8209166666638,
      "v": 109
    },
    {
      "midi": 64,
      "hit": false,
      "t": 45002.76617708339,
      "d": 33.482124999994994,
      "v": 85
    },
    {
      "midi": 69,
      "hit": false,
      "t": 45002.76617708339,
      "d": 36.27230208332912,
      "v": 104
    },
    {
      "midi": 73,
      "hit": false,
      "t": 45002.76617708339,
      "d": 64.17407291666314,
      "v": 126
    },
    {
      "midi": 33,
      "hit": false,
      "t": 45002.76617708339,
      "d": 203.6829270833332,
      "v": 120
    },
    {
      "midi": 72,
      "hit": false,
      "t": 45005.55635416672,
      "d": 13.950885416663368,
      "v": 80
    },
    {
      "midi": 45,
      "hit": false,
      "t": 45270.623177083384,
      "d": 234.37487500000134,
      "v": 117
    },
    {
      "midi": 73,
      "hit": false,
      "t": 45270.623177083384,
      "d": 407.36585416667367,
      "v": 127
    },
    {
      "midi": 64,
      "hit": false,
      "t": 45273.41335416672,
      "d": 345.9819583333374,
      "v": 110
    },
    {
      "midi": 69,
      "hit": false,
      "t": 45273.41335416672,
      "d": 421.31673958333704,
      "v": 117
    },
    {
      "midi": 37,
      "hit": false,
      "t": 45538.48017708339,
      "d": 245.53558333333058,
      "v": 127
    },
    {
      "midi": 64,
      "hit": false,
      "t": 45714.26133333339,
      "d": 80.91513541666791,
      "v": 64
    },
    {
      "midi": 67,
      "hit": false,
      "t": 45806.33717708339,
      "d": 108.81690625000192,
      "v": 117
    },
    {
      "midi": 64,
      "hit": false,
      "t": 45806.33717708339,
      "d": 111.60708333333605,
      "v": 83
    },
    {
      "midi": 72,
      "hit": false,
      "t": 45806.33717708339,
      "d": 150.6695624999993,
      "v": 120
    },
    {
      "midi": 49,
      "hit": false,
      "t": 45806.33717708339,
      "d": 184.15168750000157,
      "v": 127
    },
    {
      "midi": 38,
      "hit": false,
      "t": 46071.40400000006,
      "d": 212.05345833333558,
      "v": 125
    },
    {
      "midi": 67,
      "hit": false,
      "t": 46074.194177083395,
      "d": 72.54460416666552,
      "v": 104
    },
    {
      "midi": 62,
      "hit": false,
      "t": 46074.194177083395,
      "d": 80.91513541666791,
      "v": 99
    },
    {
      "midi": 71,
      "hit": false,
      "t": 46074.194177083395,
      "d": 100.44637499999953,
      "v": 110
    },
    {
      "midi": 50,
      "hit": false,
      "t": 46339.261000000064,
      "d": 181.36151041666744,
      "v": 125
    },
    {
      "midi": 69,
      "hit": false,
      "t": 46339.261000000064,
      "d": 368.30337500000314,
      "v": 120
    },
    {
      "midi": 62,
      "hit": false,
      "t": 46342.0511770834,
      "d": 348.7721354166715,
      "v": 110
    },
    {
      "midi": 66,
      "hit": false,
      "t": 46342.0511770834,
      "d": 348.7721354166715,
      "v": 126
    },
    {
      "midi": 38,
      "hit": false,
      "t": 46609.9081770834,
      "d": 251.1159375000061,
      "v": 125
    },
    {
      "midi": 62,
      "hit": false,
      "t": 46785.6893333334,
      "d": 58.593718750002154,
      "v": 120
    },
    {
      "midi": 66,
      "hit": false,
      "t": 46785.6893333334,
      "d": 58.593718750002154,
      "v": 126
    },
    {
      "midi": 69,
      "hit": false,
      "t": 46788.479510416735,
      "d": 64.17407291667041,
      "v": 120
    },
    {
      "midi": 50,
      "hit": false,
      "t": 46874.97500000007,
      "d": 189.73204166666983,
      "v": 126
    },
    {
      "midi": 64,
      "hit": false,
      "t": 47053.546333333405,
      "d": 195.3123958333381,
      "v": 85
    },
    {
      "midi": 72,
      "hit": false,
      "t": 47137.25164583341,
      "d": 50.22318749999977,
      "v": 90
    },
    {
      "midi": 73,
      "hit": false,
      "t": 47145.62217708341,
      "d": 111.60708333333605,
      "v": 126
    },
    {
      "midi": 69,
      "hit": false,
      "t": 47148.41235416674,
      "d": 94.86602083333128,
      "v": 101
    },
    {
      "midi": 33,
      "hit": false,
      "t": 47148.41235416674,
      "d": 239.9552291666696,
      "v": 120
    },
    {
      "midi": 64,
      "hit": false,
      "t": 47413.47917708341,
      "d": 117.18743750000431,
      "v": 101
    },
    {
      "midi": 69,
      "hit": false,
      "t": 47416.26935416675,
      "d": 114.39726041667018,
      "v": 104
    },
    {
      "midi": 73,
      "hit": false,
      "t": 47416.26935416675,
      "d": 128.34814583333355,
      "v": 124
    },
    {
      "midi": 45,
      "hit": false,
      "t": 47416.26935416675,
      "d": 170.20080208333093,
      "v": 125
    },
    {
      "midi": 71,
      "hit": false,
      "t": 47681.33617708341,
      "d": 5.580354166668258,
      "v": 79
    },
    {
      "midi": 64,
      "hit": false,
      "t": 47681.33617708341,
      "d": 86.49548958333617,
      "v": 107
    },
    {
      "midi": 67,
      "hit": false,
      "t": 47681.33617708341,
      "d": 89.2856666666703,
      "v": 110
    },
    {
      "midi": 72,
      "hit": false,
      "t": 47684.12635416674,
      "d": 119.97761458333844,
      "v": 94
    },
    {
      "midi": 37,
      "hit": false,
      "t": 47684.12635416674,
      "d": 214.8436354166697,
      "v": 124
    },
    {
      "midi": 64,
      "hit": false,
      "t": 47949.19317708341,
      "d": 100.44637499999953,
      "v": 107
    },
    {
      "midi": 67,
      "hit": false,
      "t": 47949.19317708341,
      "d": 111.60708333333605,
      "v": 110
    },
    {
      "midi": 71,
      "hit": false,
      "t": 47949.19317708341,
      "d": 117.18743750000431,
      "v": 104
    },
    {
      "midi": 49,
      "hit": false,
      "t": 47949.19317708341,
      "d": 175.78115625000646,
      "v": 127
    },
    {
      "midi": 38,
      "hit": false,
      "t": 48217.050177083416,
      "d": 259.4864687500012,
      "v": 123
    },
    {
      "midi": 62,
      "hit": false,
      "t": 48219.84035416675,
      "d": 638.9505520833409,
      "v": 104
    },
    {
      "midi": 66,
      "hit": false,
      "t": 48219.84035416675,
      "d": 638.9505520833409,
      "v": 126
    },
    {
      "midi": 69,
      "hit": false,
      "t": 48219.84035416675,
      "d": 647.3210833333433,
      "v": 120
    },
    {
      "midi": 50,
      "hit": false,
      "t": 48482.117000000086,
      "d": 209.26328125000146,
      "v": 126
    },
    {
      "midi": 38,
      "hit": false,
      "t": 48749.97400000009,
      "d": 265.06682291667676,
      "v": 125
    },
    {
      "midi": 69,
      "hit": false,
      "t": 48928.54533333343,
      "d": 50.22318749999977,
      "v": 120
    },
    {
      "midi": 62,
      "hit": false,
      "t": 48931.335510416764,
      "d": 50.22318749999977,
      "v": 117
    },
    {
      "midi": 66,
      "hit": false,
      "t": 48931.335510416764,
      "d": 53.013364583333896,
      "v": 127
    },
    {
      "midi": 50,
      "hit": false,
      "t": 49020.621177083434,
      "d": 111.60708333333605,
      "v": 123
    },
    {
      "midi": 64,
      "hit": false,
      "t": 49196.40233333343,
      "d": 198.10257291667222,
      "v": 99
    },
    {
      "midi": 72,
      "hit": false,
      "t": 49280.107645833436,
      "d": 58.593718750002154,
      "v": 94
    },
    {
      "midi": 73,
      "hit": false,
      "t": 49288.47817708344,
      "d": 106.02672916666779,
      "v": 127
    },
    {
      "midi": 69,
      "hit": false,
      "t": 49288.47817708344,
      "d": 133.9285000000018,
      "v": 101
    },
    {
      "midi": 33,
      "hit": false,
      "t": 49288.47817708344,
      "d": 245.53558333333785,
      "v": 113
    },
    {
      "midi": 73,
      "hit": false,
      "t": 49556.33517708344,
      "d": 136.71867708333593,
      "v": 126
    },
    {
      "midi": 45,
      "hit": false,
      "t": 49556.33517708344,
      "d": 198.10257291667222,
      "v": 123
    },
    {
      "midi": 64,
      "hit": false,
      "t": 49559.125354166776,
      "d": 128.34814583333355,
      "v": 99
    },
    {
      "midi": 69,
      "hit": false,
      "t": 49559.125354166776,
      "d": 131.13832291666768,
      "v": 107
    },
    {
      "midi": 67,
      "hit": false,
      "t": 49824.192177083445,
      "d": 103.23655208333366,
      "v": 110
    },
    {
      "midi": 72,
      "hit": false,
      "t": 49824.192177083445,
      "d": 111.60708333333605,
      "v": 110
    },
    {
      "midi": 64,
      "hit": false,
      "t": 49826.98235416678,
      "d": 83.70531250000204,
      "v": 113
    },
    {
      "midi": 37,
      "hit": false,
      "t": 49826.98235416678,
      "d": 220.42398958333797,
      "v": 114
    },
    {
      "midi": 64,
      "hit": false,
      "t": 50089.259000000115,
      "d": 94.86602083333128,
      "v": 107
    },
    {
      "midi": 67,
      "hit": false,
      "t": 50089.259000000115,
      "d": 117.18743749999703,
      "v": 104
    },
    {
      "midi": 49,
      "hit": false,
      "t": 50089.259000000115,
      "d": 175.78115624999919,
      "v": 126
    },
    {
      "midi": 71,
      "hit": false,
      "t": 50092.04917708345,
      "d": 119.97761458333116,
      "v": 113
    },
    {
      "midi": 38,
      "hit": false,
      "t": 50357.11600000011,
      "d": 270.64717708333774,
      "v": 120
    },
    {
      "midi": 66,
      "hit": false,
      "t": 50357.11600000011,
      "d": 432.47744791667355,
      "v": 126
    },
    {
      "midi": 62,
      "hit": false,
      "t": 50359.906177083445,
      "d": 424.10691666667117,
      "v": 99
    },
    {
      "midi": 69,
      "hit": false,
      "t": 50359.906177083445,
      "d": 449.21851041667105,
      "v": 107
    },
    {
      "midi": 50,
      "hit": false,
      "t": 50624.973000000115,
      "d": 198.10257291666494,
      "v": 125
    },
    {
      "midi": 62,
      "hit": false,
      "t": 50895.620177083445,
      "d": 348.7721354166715,
      "v": 101
    },
    {
      "midi": 40,
      "hit": false,
      "t": 50898.41035416678,
      "d": 267.8570000000036,
      "v": 126
    },
    {
      "midi": 64,
      "hit": false,
      "t": 50898.41035416678,
      "d": 371.0935520833373,
      "v": 120
    },
    {
      "midi": 69,
      "hit": false,
      "t": 50898.41035416678,
      "d": 387.83461458333477,
      "v": 117
    },
    {
      "midi": 52,
      "hit": false,
      "t": 51163.47717708345,
      "d": 175.78115624999919,
      "v": 120
    },
    {
      "midi": 64,
      "hit": false,
      "t": 51434.12435416678,
      "d": 145.08920833333104,
      "v": 107
    },
    {
      "midi": 41,
      "hit": false,
      "t": 51434.12435416678,
      "d": 315.29001041666197,
      "v": 120
    },
    {
      "midi": 60,
      "hit": false,
      "t": 51434.12435416678,
      "d": 398.995322916664,
      "v": 107
    },
    {
      "midi": 65,
      "hit": false,
      "t": 51434.12435416678,
      "d": 421.31673958332976,
      "v": 113
    },
    {
      "midi": 69,
      "hit": false,
      "t": 51436.91453125011,
      "d": 482.70063541666605,
      "v": 113
    },
    {
      "midi": 53,
      "hit": false,
      "t": 51699.19117708344,
      "d": 192.52221875000396,
      "v": 120
    },
    {
      "midi": 43,
      "hit": false,
      "t": 51967.048177083445,
      "d": 326.45071875000576,
      "v": 117
    },
    {
      "midi": 62,
      "hit": false,
      "t": 51967.048177083445,
      "d": 379.46408333333966,
      "v": 99
    },
    {
      "midi": 67,
      "hit": false,
      "t": 51967.048177083445,
      "d": 424.10691666667117,
      "v": 120
    },
    {
      "midi": 71,
      "hit": false,
      "t": 51967.048177083445,
      "d": 443.6381562500028,
      "v": 104
    },
    {
      "midi": 55,
      "hit": false,
      "t": 52232.115000000114,
      "d": 220.4239895833307,
      "v": 117
    },
    {
      "midi": 72,
      "hit": false,
      "t": 52494.39164583344,
      "d": 128.34814583334082,
      "v": 107
    },
    {
      "midi": 45,
      "hit": false,
      "t": 52499.97200000011,
      "d": 259.4864687500085,
      "v": 110
    },
    {
      "midi": 64,
      "hit": false,
      "t": 52502.762177083445,
      "d": 756.1379895833525,
      "v": 90
    },
    {
      "midi": 69,
      "hit": false,
      "t": 52502.762177083445,
      "d": 778.4594062500255,
      "v": 113
    },
    {
      "midi": 73,
      "hit": false,
      "t": 52586.46748958345,
      "d": 683.5933854166869,
      "v": 92
    },
    {
      "midi": 57,
      "hit": false,
      "t": 52770.619177083456,
      "d": 239.9552291666696,
      "v": 120
    },
    {
      "midi": 45,
      "hit": false,
      "t": 53038.47617708346,
      "d": 212.05345833333558,
      "v": 120
    },
    {
      "midi": 45,
      "hit": false,
      "t": 53306.33317708347,
      "d": 128.34814583333355,
      "v": 92
    },
    {
      "midi": 64,
      "hit": false,
      "t": 53574.190177083474,
      "d": 36.27230208332912,
      "v": 85
    },
    {
      "midi": 69,
      "hit": false,
      "t": 53574.190177083474,
      "d": 36.27230208332912,
      "v": 104
    },
    {
      "midi": 72,
      "hit": false,
      "t": 53576.98035416681,
      "d": 13.950885416663368,
      "v": 80
    },
    {
      "midi": 73,
      "hit": false,
      "t": 53576.98035416681,
      "d": 61.38389583332901,
      "v": 126
    },
    {
      "midi": 33,
      "hit": false,
      "t": 53576.98035416681,
      "d": 200.89274999999907,
      "v": 120
    },
    {
      "midi": 45,
      "hit": false,
      "t": 53842.04717708347,
      "d": 234.37487500000134,
      "v": 117
    },
    {
      "midi": 64,
      "hit": false,
      "t": 53842.04717708347,
      "d": 348.7721354166715,
      "v": 110
    },
    {
      "midi": 73,
      "hit": false,
      "t": 53842.04717708347,
      "d": 410.1560312500078,
      "v": 127
    },
    {
      "midi": 69,
      "hit": false,
      "t": 53844.837354166804,
      "d": 421.31673958333704,
      "v": 117
    },
    {
      "midi": 37,
      "hit": false,
      "t": 54107.11400000014,
      "d": 248.3257604166647,
      "v": 127
    },
    {
      "midi": 64,
      "hit": false,
      "t": 54285.68533333347,
      "d": 83.70531249999476,
      "v": 64
    },
    {
      "midi": 67,
      "hit": false,
      "t": 54374.971000000136,
      "d": 111.60708333333605,
      "v": 117
    },
    {
      "midi": 49,
      "hit": false,
      "t": 54374.971000000136,
      "d": 186.94186458334298,
      "v": 127
    },
    {
      "midi": 64,
      "hit": false,
      "t": 54377.76117708347,
      "d": 114.39726041667018,
      "v": 83
    },
    {
      "midi": 72,
      "hit": false,
      "t": 54377.76117708347,
      "d": 150.66956250000658,
      "v": 120
    },
    {
      "midi": 67,
      "hit": false,
      "t": 54648.408354166815,
      "d": 66.96424999999726,
      "v": 104
    },
    {
      "midi": 62,
      "hit": false,
      "t": 54648.408354166815,
      "d": 78.12495833333378,
      "v": 99
    },
    {
      "midi": 71,
      "hit": false,
      "t": 54648.408354166815,
      "d": 94.86602083333128,
      "v": 110
    },
    {
      "midi": 38,
      "hit": false,
      "t": 54648.408354166815,
      "d": 206.47310416666733,
      "v": 125
    },
    {
      "midi": 50,
      "hit": false,
      "t": 54913.475177083485,
      "d": 178.5713333333333,
      "v": 125
    },
    {
      "midi": 62,
      "hit": false,
      "t": 54916.26535416682,
      "d": 345.9819583333301,
      "v": 110
    },
    {
      "midi": 66,
      "hit": false,
      "t": 54916.26535416682,
      "d": 348.77213541666424,
      "v": 126
    },
    {
      "midi": 69,
      "hit": false,
      "t": 54916.26535416682,
      "d": 359.93284375000076,
      "v": 120
    },
    {
      "midi": 38,
      "hit": false,
      "t": 55184.122354166815,
      "d": 248.32576041667926,
      "v": 125
    },
    {
      "midi": 62,
      "hit": false,
      "t": 55357.11333333349,
      "d": 58.593718750002154,
      "v": 120
    },
    {
      "midi": 66,
      "hit": false,
      "t": 55357.11333333349,
      "d": 58.593718750002154,
      "v": 126
    },
    {
      "midi": 69,
      "hit": false,
      "t": 55357.11333333349,
      "d": 66.96425000000454,
      "v": 120
    },
    {
      "midi": 50,
      "hit": false,
      "t": 55449.18917708349,
      "d": 184.15168750000157,
      "v": 126
    },
    {
      "midi": 64,
      "hit": false,
      "t": 55624.97033333349,
      "d": 195.3123958333381,
      "v": 85
    },
    {
      "midi": 72,
      "hit": false,
      "t": 55705.88546875016,
      "d": 50.22318749999977,
      "v": 90
    },
    {
      "midi": 69,
      "hit": false,
      "t": 55717.046177083495,
      "d": 97.6561979166654,
      "v": 101
    },
    {
      "midi": 73,
      "hit": false,
      "t": 55717.046177083495,
      "d": 111.60708333333605,
      "v": 126
    },
    {
      "midi": 33,
      "hit": false,
      "t": 55717.046177083495,
      "d": 242.74540625000373,
      "v": 120
    },
    {
      "midi": 64,
      "hit": false,
      "t": 55984.9031770835,
      "d": 117.18743749999703,
      "v": 101
    },
    {
      "midi": 69,
      "hit": false,
      "t": 55984.9031770835,
      "d": 119.97761458333116,
      "v": 104
    },
    {
      "midi": 73,
      "hit": false,
      "t": 55984.9031770835,
      "d": 131.13832291666768,
      "v": 124
    },
    {
      "midi": 45,
      "hit": false,
      "t": 55984.9031770835,
      "d": 172.99097916666506,
      "v": 125
    },
    {
      "midi": 71,
      "hit": false,
      "t": 56249.97000000016,
      "d": 5.580354166668258,
      "v": 79
    },
    {
      "midi": 64,
      "hit": false,
      "t": 56252.760177083495,
      "d": 86.49548958333617,
      "v": 107
    },
    {
      "midi": 67,
      "hit": false,
      "t": 56252.760177083495,
      "d": 89.2856666666703,
      "v": 110
    },
    {
      "midi": 72,
      "hit": false,
      "t": 56252.760177083495,
      "d": 122.76779166667257,
      "v": 94
    },
    {
      "midi": 37,
      "hit": false,
      "t": 56252.760177083495,
      "d": 217.63381250000384,
      "v": 124
    },
    {
      "midi": 49,
      "hit": false,
      "t": 56520.6171770835,
      "d": 178.5713333333333,
      "v": 127
    },
    {
      "midi": 64,
      "hit": false,
      "t": 56523.40735416683,
      "d": 97.6561979166654,
      "v": 107
    },
    {
      "midi": 67,
      "hit": false,
      "t": 56523.40735416683,
      "d": 111.60708333332877,
      "v": 110
    },
    {
      "midi": 71,
      "hit": false,
      "t": 56523.40735416683,
      "d": 117.18743749999703,
      "v": 104
    },
    {
      "midi": 38,
      "hit": false,
      "t": 56788.4741770835,
      "d": 262.27664583333535,
      "v": 123
    },
    {
      "midi": 62,
      "hit": false,
      "t": 56788.4741770835,
      "d": 644.5309062500091,
      "v": 104
    },
    {
      "midi": 69,
      "hit": false,
      "t": 56788.4741770835,
      "d": 652.9014375000115,
      "v": 120
    },
    {
      "midi": 66,
      "hit": false,
      "t": 56791.26435416684,
      "d": 641.740729166675,
      "v": 126
    },
    {
      "midi": 50,
      "hit": false,
      "t": 57056.331177083506,
      "d": 206.47310416666733,
      "v": 126
    },
    {
      "midi": 38,
      "hit": false,
      "t": 57324.18817708351,
      "d": 262.2766458333426,
      "v": 125
    },
    {
      "midi": 69,
      "hit": false,
      "t": 57499.969333333516,
      "d": 47.43301041666564,
      "v": 120
    },
    {
      "midi": 62,
      "hit": false,
      "t": 57499.969333333516,
      "d": 53.013364583333896,
      "v": 117
    },
    {
      "midi": 66,
      "hit": false,
      "t": 57499.969333333516,
      "d": 55.803541666668025,
      "v": 127
    },
    {
      "midi": 50,
      "hit": false,
      "t": 57589.25500000019,
      "d": 114.39726041667018,
      "v": 123
    },
    {
      "midi": 64,
      "hit": false,
      "t": 57767.82633333352,
      "d": 200.89275000000634,
      "v": 99
    },
    {
      "midi": 72,
      "hit": false,
      "t": 57851.53164583352,
      "d": 58.593718750002154,
      "v": 94
    },
    {
      "midi": 73,
      "hit": false,
      "t": 57857.11200000019,
      "d": 108.81690625000192,
      "v": 127
    },
    {
      "midi": 69,
      "hit": false,
      "t": 57859.902177083524,
      "d": 133.9285000000018,
      "v": 101
    },
    {
      "midi": 33,
      "hit": false,
      "t": 57859.902177083524,
      "d": 245.53558333333785,
      "v": 113
    },
    {
      "midi": 45,
      "hit": false,
      "t": 58124.969000000194,
      "d": 200.89275000000634,
      "v": 123
    },
    {
      "midi": 64,
      "hit": false,
      "t": 58127.75917708353,
      "d": 128.34814583333355,
      "v": 99
    },
    {
      "midi": 69,
      "hit": false,
      "t": 58127.75917708353,
      "d": 133.9285000000018,
      "v": 107
    },
    {
      "midi": 73,
      "hit": false,
      "t": 58127.75917708353,
      "d": 136.71867708333593,
      "v": 126
    },
    {
      "midi": 67,
      "hit": false,
      "t": 58395.61617708353,
      "d": 100.44637499999953,
      "v": 110
    },
    {
      "midi": 64,
      "hit": false,
      "t": 58398.406354166866,
      "d": 80.91513541666791,
      "v": 113
    },
    {
      "midi": 72,
      "hit": false,
      "t": 58398.406354166866,
      "d": 111.60708333332877,
      "v": 110
    },
    {
      "midi": 37,
      "hit": false,
      "t": 58398.406354166866,
      "d": 223.21416666666482,
      "v": 114
    },
    {
      "midi": 64,
      "hit": false,
      "t": 58663.47317708353,
      "d": 92.07584375000442,
      "v": 107
    },
    {
      "midi": 49,
      "hit": false,
      "t": 58663.47317708353,
      "d": 172.99097916667233,
      "v": 126
    },
    {
      "midi": 67,
      "hit": false,
      "t": 58666.26335416686,
      "d": 114.39726041667018,
      "v": 104
    },
    {
      "midi": 71,
      "hit": false,
      "t": 58666.26335416686,
      "d": 119.97761458333844,
      "v": 113
    },
    {
      "midi": 38,
      "hit": false,
      "t": 58931.33017708353,
      "d": 270.64717708333774,
      "v": 120
    },
    {
      "midi": 62,
      "hit": false,
      "t": 58934.120354166866,
      "d": 421.31673958333704,
      "v": 99
    },
    {
      "midi": 66,
      "hit": false,
      "t": 58934.120354166866,
      "d": 424.10691666667117,
      "v": 126
    },
    {
      "midi": 69,
      "hit": false,
      "t": 58934.120354166866,
      "d": 446.4283333333369,
      "v": 107
    },
    {
      "midi": 50,
      "hit": false,
      "t": 59199.187177083535,
      "d": 195.3123958333308,
      "v": 125
    },
    {
      "midi": 40,
      "hit": false,
      "t": 59467.04417708353,
      "d": 267.8570000000036,
      "v": 126
    },
    {
      "midi": 62,
      "hit": false,
      "t": 59467.04417708353,
      "d": 348.7721354166715,
      "v": 101
    },
    {
      "midi": 64,
      "hit": false,
      "t": 59467.04417708353,
      "d": 373.8837291666714,
      "v": 120
    },
    {
      "midi": 69,
      "hit": false,
      "t": 59467.04417708353,
      "d": 393.414968750003,
      "v": 117
    },
    {
      "midi": 52,
      "hit": false,
      "t": 59732.1110000002,
      "d": 178.5713333333333,
      "v": 120
    },
    {
      "midi": 64,
      "hit": false,
      "t": 60002.75817708353,
      "d": 147.87938541666517,
      "v": 107
    },
    {
      "midi": 41,
      "hit": false,
      "t": 60002.75817708353,
      "d": 318.0801874999961,
      "v": 120
    },
    {
      "midi": 65,
      "hit": false,
      "t": 60002.75817708353,
      "d": 426.897093749998,
      "v": 113
    },
    {
      "midi": 60,
      "hit": false,
      "t": 60005.548354166865,
      "d": 398.995322916664,
      "v": 107
    },
    {
      "midi": 69,
      "hit": false,
      "t": 60005.548354166865,
      "d": 482.70063541666605,
      "v": 113
    },
    {
      "midi": 53,
      "hit": false,
      "t": 60270.61517708353,
      "d": 195.3123958333381,
      "v": 120
    },
    {
      "midi": 62,
      "hit": false,
      "t": 60538.47217708353,
      "d": 379.46408333333966,
      "v": 99
    },
    {
      "midi": 43,
      "hit": false,
      "t": 60541.262354166865,
      "d": 326.45071875000576,
      "v": 117
    },
    {
      "midi": 67,
      "hit": false,
      "t": 60541.262354166865,
      "d": 421.31673958333704,
      "v": 120
    },
    {
      "midi": 71,
      "hit": false,
      "t": 60541.262354166865,
      "d": 440.84797916666867,
      "v": 104
    },
    {
      "midi": 55,
      "hit": false,
      "t": 60806.329177083535,
      "d": 217.63381249999657,
      "v": 117
    },
    {
      "midi": 72,
      "hit": false,
      "t": 61065.81564583353,
      "d": 131.13832291667495,
      "v": 107
    },
    {
      "midi": 45,
      "hit": false,
      "t": 61074.18617708353,
      "d": 253.90611458334024,
      "v": 110
    },
    {
      "midi": 64,
      "hit": false,
      "t": 61076.976354166865,
      "d": 750.5576354166769,
      "v": 90
    },
    {
      "midi": 69,
      "hit": false,
      "t": 61076.976354166865,
      "d": 772.8790520833427,
      "v": 113
    },
    {
      "midi": 73,
      "hit": false,
      "t": 61160.68166666687,
      "d": 680.8032083333383,
      "v": 92
    },
    {
      "midi": 57,
      "hit": false,
      "t": 61339.25300000021,
      "d": 245.53558333333058,
      "v": 120
    },
    {
      "midi": 45,
      "hit": false,
      "t": 61607.110000000204,
      "d": 214.8436354166697,
      "v": 120
    },
    {
      "midi": 45,
      "hit": false,
      "t": 61874.96700000021,
      "d": 128.34814583333355,
      "v": 92
    },
    {
      "midi": 38,
      "hit": false,
      "t": 62148.40435416687,
      "d": 301.3391250000059,
      "v": 104
    },
    {
      "midi": 60,
      "hit": false,
      "t": 62148.40435416687,
      "d": 424.10691666667117,
      "v": 85
    },
    {
      "midi": 62,
      "hit": false,
      "t": 62148.40435416687,
      "d": 583.1470104166729,
      "v": 74
    },
    {
      "midi": 57,
      "hit": false,
      "t": 62148.40435416687,
      "d": 1392.2983645833374,
      "v": 66
    },
    {
      "midi": 65,
      "hit": false,
      "t": 62148.40435416687,
      "d": 2156.8068854166777,
      "v": 79
    },
    {
      "midi": 50,
      "hit": false,
      "t": 62413.47117708354,
      "d": 248.32576041667198,
      "v": 113
    },
    {
      "midi": 36,
      "hit": false,
      "t": 62684.11835416688,
      "d": 265.0668229166622,
      "v": 117
    },
    {
      "midi": 60,
      "hit": false,
      "t": 62684.11835416688,
      "d": 421.31673958332976,
      "v": 74
    },
    {
      "midi": 48,
      "hit": false,
      "t": 62949.18517708354,
      "d": 223.21416666666482,
      "v": 113
    },
    {
      "midi": 35,
      "hit": false,
      "t": 63214.252000000204,
      "d": 276.227531250006,
      "v": 107
    },
    {
      "midi": 59,
      "hit": false,
      "t": 63214.252000000204,
      "d": 569.1961250000095,
      "v": 82
    },
    {
      "midi": 47,
      "hit": false,
      "t": 63482.10900000021,
      "d": 220.42398958333797,
      "v": 123
    },
    {
      "midi": 33,
      "hit": false,
      "t": 63752.756177083545,
      "d": 267.8570000000036,
      "v": 113
    },
    {
      "midi": 57,
      "hit": false,
      "t": 63752.756177083545,
      "d": 401.7855000000054,
      "v": 107
    },
    {
      "midi": 45,
      "hit": false,
      "t": 64023.40335416688,
      "d": 228.79452083333308,
      "v": 110
    },
    {
      "midi": 31,
      "hit": false,
      "t": 64291.26035416688,
      "d": 251.1159375000061,
      "v": 99
    },
    {
      "midi": 55,
      "hit": false,
      "t": 64291.26035416688,
      "d": 862.1647187500057,
      "v": 92
    },
    {
      "midi": 62,
      "hit": false,
      "t": 64291.26035416688,
      "d": 2098.2131666666974,
      "v": 92
    },
    {
      "midi": 59,
      "hit": false,
      "t": 64294.050531250214,
      "d": 1922.432010416691,
      "v": 94
    },
    {
      "midi": 43,
      "hit": false,
      "t": 64556.32717708355,
      "d": 237.16505208333547,
      "v": 120
    },
    {
      "midi": 31,
      "hit": false,
      "t": 64824.18417708355,
      "d": 831.4727708333303,
      "v": 117
    },
    {
      "midi": 43,
      "hit": false,
      "t": 65089.25100000022,
      "d": 315.29001041666197,
      "v": 117
    },
    {
      "midi": 55,
      "hit": false,
      "t": 65357.10800000022,
      "d": 881.6959583333592,
      "v": 113
    },
    {
      "midi": 43,
      "hit": false,
      "t": 65624.96500000021,
      "d": 253.90611458334024,
      "v": 123
    },
    {
      "midi": 31,
      "hit": false,
      "t": 65895.61217708356,
      "d": 228.79452083334036,
      "v": 123
    },
    {
      "midi": 43,
      "hit": false,
      "t": 66160.67900000024,
      "d": 214.843635416677,
      "v": 125
    },
    {
      "midi": 55,
      "hit": false,
      "t": 66431.32617708358,
      "d": 1210.9368541666481,
      "v": 90
    },
    {
      "midi": 64,
      "hit": false,
      "t": 66431.32617708358,
      "d": 2020.0882083333127,
      "v": 94
    },
    {
      "midi": 36,
      "hit": false,
      "t": 66434.11635416691,
      "d": 343.1917812499887,
      "v": 113
    },
    {
      "midi": 60,
      "hit": false,
      "t": 66434.11635416691,
      "d": 460.379218749993,
      "v": 101
    },
    {
      "midi": 48,
      "hit": false,
      "t": 66699.18317708357,
      "d": 242.74540625000373,
      "v": 123
    },
    {
      "midi": 35,
      "hit": false,
      "t": 66967.04017708357,
      "d": 267.85699999998906,
      "v": 117
    },
    {
      "midi": 59,
      "hit": false,
      "t": 66967.04017708357,
      "d": 396.2051458333153,
      "v": 82
    },
    {
      "midi": 47,
      "hit": false,
      "t": 67232.10700000024,
      "d": 253.9061145833257,
      "v": 123
    },
    {
      "midi": 33,
      "hit": false,
      "t": 67499.96400000023,
      "d": 270.64717708333046,
      "v": 123
    },
    {
      "midi": 57,
      "hit": false,
      "t": 67499.96400000023,
      "d": 566.4059479166608,
      "v": 75
    },
    {
      "midi": 45,
      "hit": false,
      "t": 67767.82100000023,
      "d": 228.7945208333258,
      "v": 120
    },
    {
      "midi": 55,
      "hit": false,
      "t": 68038.46817708356,
      "d": 351.56231249999837,
      "v": 101
    },
    {
      "midi": 31,
      "hit": false,
      "t": 68041.25835416689,
      "d": 253.90611458334024,
      "v": 120
    },
    {
      "midi": 43,
      "hit": false,
      "t": 68303.53500000022,
      "d": 237.16505208333547,
      "v": 123
    },
    {
      "midi": 33,
      "hit": false,
      "t": 68576.9723541669,
      "d": 242.74540625000373,
      "v": 125
    },
    {
      "midi": 52,
      "hit": false,
      "t": 68576.9723541669,
      "d": 1261.160041666677,
      "v": 88
    },
    {
      "midi": 57,
      "hit": false,
      "t": 68576.9723541669,
      "d": 1609.932177083334,
      "v": 90
    },
    {
      "midi": 60,
      "hit": false,
      "t": 68576.9723541669,
      "d": 2053.5703333333367,
      "v": 83
    },
    {
      "midi": 45,
      "hit": false,
      "t": 68839.24900000023,
      "d": 251.11593749999884,
      "v": 120
    },
    {
      "midi": 35,
      "hit": false,
      "t": 69109.89617708356,
      "d": 237.16505208333547,
      "v": 123
    },
    {
      "midi": 47,
      "hit": false,
      "t": 69374.96300000022,
      "d": 253.90611458334024,
      "v": 125
    },
    {
      "midi": 36,
      "hit": false,
      "t": 69645.61017708357,
      "d": 234.37487500000861,
      "v": 123
    },
    {
      "midi": 48,
      "hit": false,
      "t": 69913.46717708357,
      "d": 239.95522916666232,
      "v": 125
    },
    {
      "midi": 40,
      "hit": false,
      "t": 70184.1143541669,
      "d": 323.6605416666571,
      "v": 107
    },
    {
      "midi": 52,
      "hit": false,
      "t": 70446.39100000022,
      "d": 214.843635416677,
      "v": 120
    },
    {
      "midi": 60,
      "hit": false,
      "t": 70717.03817708357,
      "d": 429.6872708333249,
      "v": 85
    },
    {
      "midi": 62,
      "hit": false,
      "t": 70717.03817708357,
      "d": 583.1470104166656,
      "v": 74
    },
    {
      "midi": 57,
      "hit": false,
      "t": 70717.03817708357,
      "d": 1397.8787187499838,
      "v": 66
    },
    {
      "midi": 65,
      "hit": false,
      "t": 70717.03817708357,
      "d": 2156.8068854166195,
      "v": 79
    },
    {
      "midi": 38,
      "hit": false,
      "t": 70719.8283541669,
      "d": 301.3391249999986,
      "v": 104
    },
    {
      "midi": 50,
      "hit": false,
      "t": 70982.10500000023,
      "d": 248.32576041665743,
      "v": 113
    },
    {
      "midi": 36,
      "hit": false,
      "t": 71252.75217708356,
      "d": 270.64717708333046,
      "v": 117
    },
    {
      "midi": 60,
      "hit": false,
      "t": 71252.75217708356,
      "d": 424.1069166666566,
      "v": 74
    },
    {
      "midi": 48,
      "hit": false,
      "t": 71520.60917708356,
      "d": 226.0043437499844,
      "v": 113
    },
    {
      "midi": 35,
      "hit": false,
      "t": 71788.46617708355,
      "d": 276.2275312499987,
      "v": 107
    },
    {
      "midi": 59,
      "hit": false,
      "t": 71788.46617708355,
      "d": 566.4059479166463,
      "v": 82
    },
    {
      "midi": 47,
      "hit": false,
      "t": 72053.53300000021,
      "d": 220.4239895833307,
      "v": 123
    },
    {
      "midi": 33,
      "hit": false,
      "t": 72326.97035416687,
      "d": 262.2766458333208,
      "v": 113
    },
    {
      "midi": 57,
      "hit": false,
      "t": 72326.97035416687,
      "d": 401.7854999999836,
      "v": 107
    },
    {
      "midi": 45,
      "hit": false,
      "t": 72592.03717708352,
      "d": 234.37487500000861,
      "v": 110
    },
    {
      "midi": 31,
      "hit": false,
      "t": 72859.89417708352,
      "d": 251.11593749999884,
      "v": 99
    },
    {
      "midi": 55,
      "hit": false,
      "t": 72859.89417708352,
      "d": 862.1647187499912,
      "v": 92
    },
    {
      "midi": 59,
      "hit": false,
      "t": 72862.68435416685,
      "d": 1922.432010416669,
      "v": 94
    },
    {
      "midi": 62,
      "hit": false,
      "t": 72862.68435416685,
      "d": 2098.2131666666683,
      "v": 92
    },
    {
      "midi": 43,
      "hit": false,
      "t": 73124.96100000018,
      "d": 242.74540625000373,
      "v": 120
    },
    {
      "midi": 31,
      "hit": false,
      "t": 73395.60817708352,
      "d": 828.6825937499962,
      "v": 117
    },
    {
      "midi": 43,
      "hit": false,
      "t": 73663.46517708352,
      "d": 315.29001041666197,
      "v": 117
    },
    {
      "midi": 55,
      "hit": false,
      "t": 73931.32217708351,
      "d": 878.9057812500105,
      "v": 113
    },
    {
      "midi": 43,
      "hit": false,
      "t": 74199.17917708351,
      "d": 248.32576041667198,
      "v": 123
    },
    {
      "midi": 31,
      "hit": false,
      "t": 74464.24600000019,
      "d": 231.5846979166672,
      "v": 123
    },
    {
      "midi": 43,
      "hit": false,
      "t": 74732.10300000019,
      "d": 217.6338124999893,
      "v": 125
    },
    {
      "midi": 64,
      "hit": false,
      "t": 75002.75017708352,
      "d": 943.0798541666591,
      "v": 101
    },
    {
      "midi": 55,
      "hit": false,
      "t": 75002.75017708352,
      "d": 957.0307395833224,
      "v": 105
    },
    {
      "midi": 36,
      "hit": false,
      "t": 75005.54035416685,
      "d": 937.4995000000054,
      "v": 103
    },
    {
      "midi": 48,
      "hit": false,
      "t": 75005.54035416685,
      "d": 940.2896770833322,
      "v": 101
    },
    {
      "midi": 60,
      "hit": false,
      "t": 75005.54035416685,
      "d": 940.2896770833322,
      "v": 110
    },
    {
      "midi": 35,
      "hit": false,
      "t": 76076.96835416685,
      "d": 926.3387916666543,
      "v": 100
    },
    {
      "midi": 47,
      "hit": false,
      "t": 76079.75853125018,
      "d": 923.5486145833274,
      "v": 106
    },
    {
      "midi": 65,
      "hit": false,
      "t": 76079.75853125018,
      "d": 959.8209166666638,
      "v": 104
    },
    {
      "midi": 57,
      "hit": false,
      "t": 76079.75853125018,
      "d": 968.191447916659,
      "v": 102
    },
    {
      "midi": 59,
      "hit": false,
      "t": 76079.75853125018,
      "d": 984.9325104166637,
      "v": 108
    },
    {
      "midi": 62,
      "hit": false,
      "t": 76079.75853125018,
      "d": 1015.6244583333319,
      "v": 108
    },
    {
      "midi": 52,
      "hit": false,
      "t": 77151.18653125018,
      "d": 867.7450729166594,
      "v": 106
    },
    {
      "midi": 40,
      "hit": false,
      "t": 77151.18653125018,
      "d": 892.8566666666593,
      "v": 108
    },
    {
      "midi": 57,
      "hit": false,
      "t": 77151.18653125018,
      "d": 979.3521562499955,
      "v": 104
    },
    {
      "midi": 59,
      "hit": false,
      "t": 77151.18653125018,
      "d": 993.3030416666588,
      "v": 117
    },
    {
      "midi": 64,
      "hit": false,
      "t": 77151.18653125018,
      "d": 998.8833958333271,
      "v": 117
    },
    {
      "midi": 28,
      "hit": false,
      "t": 78217.03417708351,
      "d": 937.4994999999908,
      "v": 108
    },
    {
      "midi": 40,
      "hit": false,
      "t": 78217.03417708351,
      "d": 945.8700312499859,
      "v": 120
    },
    {
      "midi": 64,
      "hit": false,
      "t": 78217.03417708351,
      "d": 959.8209166666493,
      "v": 110
    },
    {
      "midi": 59,
      "hit": false,
      "t": 78217.03417708351,
      "d": 962.6110937499761,
      "v": 109
    },
    {
      "midi": 56,
      "hit": false,
      "t": 78219.82435416683,
      "d": 870.5352500000008,
      "v": 114
    },
    {
      "midi": 69,
      "hit": false,
      "t": 79288.46217708348,
      "d": 36.27230208332185,
      "v": 104
    },
    {
      "midi": 72,
      "hit": false,
      "t": 79291.2523541668,
      "d": 16.741062500004773,
      "v": 80
    },
    {
      "midi": 64,
      "hit": false,
      "t": 79291.2523541668,
      "d": 30.69194791666814,
      "v": 85
    },
    {
      "midi": 73,
      "hit": false,
      "t": 79291.2523541668,
      "d": 61.38389583332173,
      "v": 126
    },
    {
      "midi": 33,
      "hit": false,
      "t": 79291.2523541668,
      "d": 200.89274999998452,
      "v": 120
    },
    {
      "midi": 45,
      "hit": false,
      "t": 79556.31917708345,
      "d": 234.37487499999406,
      "v": 117
    },
    {
      "midi": 64,
      "hit": false,
      "t": 79556.31917708345,
      "d": 345.98195833331556,
      "v": 110
    },
    {
      "midi": 73,
      "hit": false,
      "t": 79556.31917708345,
      "d": 410.1560312499787,
      "v": 127
    },
    {
      "midi": 69,
      "hit": false,
      "t": 79559.10935416678,
      "d": 421.3167395833152,
      "v": 117
    },
    {
      "midi": 37,
      "hit": false,
      "t": 79824.17617708344,
      "d": 245.53558333331603,
      "v": 127
    },
    {
      "midi": 64,
      "hit": false,
      "t": 79999.95733333343,
      "d": 80.91513541666791,
      "v": 64
    },
    {
      "midi": 67,
      "hit": false,
      "t": 80089.24300000009,
      "d": 111.6070833333215,
      "v": 117
    },
    {
      "midi": 72,
      "hit": false,
      "t": 80089.24300000009,
      "d": 153.4597395833116,
      "v": 120
    },
    {
      "midi": 49,
      "hit": false,
      "t": 80089.24300000009,
      "d": 189.732041666648,
      "v": 127
    },
    {
      "midi": 64,
      "hit": false,
      "t": 80092.03317708342,
      "d": 111.6070833333215,
      "v": 83
    },
    {
      "midi": 67,
      "hit": false,
      "t": 80357.10000000006,
      "d": 75.33478124999965,
      "v": 104
    },
    {
      "midi": 38,
      "hit": false,
      "t": 80357.10000000006,
      "d": 209.26328125000873,
      "v": 125
    },
    {
      "midi": 62,
      "hit": false,
      "t": 80359.89017708339,
      "d": 83.70531250000931,
      "v": 99
    },
    {
      "midi": 71,
      "hit": false,
      "t": 80359.89017708339,
      "d": 100.44637500001409,
      "v": 110
    },
    {
      "midi": 50,
      "hit": false,
      "t": 80624.95700000007,
      "d": 181.36151041666744,
      "v": 125
    },
    {
      "midi": 69,
      "hit": false,
      "t": 80624.95700000007,
      "d": 365.51319791666174,
      "v": 120
    },
    {
      "midi": 62,
      "hit": false,
      "t": 80627.7471770834,
      "d": 348.7721354166715,
      "v": 110
    },
    {
      "midi": 66,
      "hit": false,
      "t": 80627.7471770834,
      "d": 348.7721354166715,
      "v": 126
    },
    {
      "midi": 38,
      "hit": false,
      "t": 80895.6041770834,
      "d": 251.11593749999884,
      "v": 125
    },
    {
      "midi": 62,
      "hit": false,
      "t": 81071.3853333334,
      "d": 58.59371874999488,
      "v": 120
    },
    {
      "midi": 66,
      "hit": false,
      "t": 81071.3853333334,
      "d": 58.59371874999488,
      "v": 126
    },
    {
      "midi": 69,
      "hit": false,
      "t": 81074.17551041672,
      "d": 61.38389583333628,
      "v": 120
    },
    {
      "midi": 50,
      "hit": false,
      "t": 81163.4611770834,
      "d": 186.9418645833357,
      "v": 126
    },
    {
      "midi": 64,
      "hit": false,
      "t": 81339.2423333334,
      "d": 195.31239583334536,
      "v": 85
    },
    {
      "midi": 72,
      "hit": false,
      "t": 81422.94764583341,
      "d": 50.22318749999977,
      "v": 90
    },
    {
      "midi": 69,
      "hit": false,
      "t": 81434.10835416675,
      "d": 94.86602083333128,
      "v": 101
    },
    {
      "midi": 73,
      "hit": false,
      "t": 81434.10835416675,
      "d": 108.81690624999464,
      "v": 126
    },
    {
      "midi": 33,
      "hit": false,
      "t": 81434.10835416675,
      "d": 237.16505208332092,
      "v": 120
    },
    {
      "midi": 64,
      "hit": false,
      "t": 81699.1751770834,
      "d": 117.18743749998976,
      "v": 101
    },
    {
      "midi": 45,
      "hit": false,
      "t": 81699.1751770834,
      "d": 170.20080208331638,
      "v": 125
    },
    {
      "midi": 69,
      "hit": false,
      "t": 81701.96535416672,
      "d": 114.3972604166629,
      "v": 104
    },
    {
      "midi": 73,
      "hit": false,
      "t": 81701.96535416672,
      "d": 128.34814583332627,
      "v": 124
    },
    {
      "midi": 71,
      "hit": false,
      "t": 81964.24200000004,
      "d": 5.580354166653706,
      "v": 79
    },
    {
      "midi": 64,
      "hit": false,
      "t": 81967.03217708337,
      "d": 86.49548958332161,
      "v": 107
    },
    {
      "midi": 67,
      "hit": false,
      "t": 81967.03217708337,
      "d": 89.28566666664847,
      "v": 110
    },
    {
      "midi": 72,
      "hit": false,
      "t": 81967.03217708337,
      "d": 122.76779166664346,
      "v": 94
    },
    {
      "midi": 37,
      "hit": false,
      "t": 81967.03217708337,
      "d": 217.63381249997474,
      "v": 124
    },
    {
      "midi": 64,
      "hit": false,
      "t": 82232.09900000002,
      "d": 103.23655208332639,
      "v": 107
    },
    {
      "midi": 71,
      "hit": false,
      "t": 82232.09900000002,
      "d": 122.76779166665801,
      "v": 104
    },
    {
      "midi": 49,
      "hit": false,
      "t": 82232.09900000002,
      "d": 181.3615104166529,
      "v": 127
    },
    {
      "midi": 67,
      "hit": false,
      "t": 82234.88917708334,
      "d": 114.3972604166629,
      "v": 110
    },
    {
      "midi": 38,
      "hit": false,
      "t": 82499.956,
      "d": 265.0668229166622,
      "v": 123
    },
    {
      "midi": 69,
      "hit": false,
      "t": 82499.956,
      "d": 658.4817916666652,
      "v": 120
    },
    {
      "midi": 62,
      "hit": false,
      "t": 82502.74617708333,
      "d": 641.740729166675,
      "v": 104
    },
    {
      "midi": 66,
      "hit": false,
      "t": 82502.74617708333,
      "d": 641.740729166675,
      "v": 126
    },
    {
      "midi": 50,
      "hit": false,
      "t": 82770.60317708334,
      "d": 203.68292708334047,
      "v": 126
    },
    {
      "midi": 38,
      "hit": false,
      "t": 83038.46017708334,
      "d": 262.2766458333208,
      "v": 125
    },
    {
      "midi": 69,
      "hit": false,
      "t": 83214.24133333334,
      "d": 50.22318749999977,
      "v": 120
    },
    {
      "midi": 62,
      "hit": false,
      "t": 83214.24133333334,
      "d": 53.01336458332662,
      "v": 117
    },
    {
      "midi": 66,
      "hit": false,
      "t": 83214.24133333334,
      "d": 55.80354166665347,
      "v": 127
    },
    {
      "midi": 50,
      "hit": false,
      "t": 83303.52699999999,
      "d": 114.3972604166629,
      "v": 123
    },
    {
      "midi": 64,
      "hit": false,
      "t": 83482.09833333331,
      "d": 198.10257291665766,
      "v": 99
    },
    {
      "midi": 72,
      "hit": false,
      "t": 83563.01346874998,
      "d": 61.38389583333628,
      "v": 94
    },
    {
      "midi": 73,
      "hit": false,
      "t": 83574.17417708332,
      "d": 103.23655208332639,
      "v": 127
    },
    {
      "midi": 69,
      "hit": false,
      "t": 83574.17417708332,
      "d": 133.92849999997998,
      "v": 101
    },
    {
      "midi": 33,
      "hit": false,
      "t": 83574.17417708332,
      "d": 245.53558333331603,
      "v": 113
    },
    {
      "midi": 73,
      "hit": false,
      "t": 83839.24099999997,
      "d": 139.50885416664823,
      "v": 126
    },
    {
      "midi": 45,
      "hit": false,
      "t": 83839.24099999997,
      "d": 198.1025729166431,
      "v": 123
    },
    {
      "midi": 64,
      "hit": false,
      "t": 83842.03117708329,
      "d": 131.13832291666768,
      "v": 99
    },
    {
      "midi": 69,
      "hit": false,
      "t": 83842.03117708329,
      "d": 133.92849999999453,
      "v": 107
    },
    {
      "midi": 67,
      "hit": false,
      "t": 84107.09799999994,
      "d": 106.02672916666779,
      "v": 110
    },
    {
      "midi": 72,
      "hit": false,
      "t": 84107.09799999994,
      "d": 114.3972604166629,
      "v": 110
    },
    {
      "midi": 64,
      "hit": false,
      "t": 84109.88817708327,
      "d": 86.49548958333617,
      "v": 113
    },
    {
      "midi": 37,
      "hit": false,
      "t": 84109.88817708327,
      "d": 226.00434374999895,
      "v": 114
    },
    {
      "midi": 64,
      "hit": false,
      "t": 84374.95499999993,
      "d": 94.86602083333128,
      "v": 107
    },
    {
      "midi": 67,
      "hit": false,
      "t": 84374.95499999993,
      "d": 117.18743750000431,
      "v": 104
    },
    {
      "midi": 49,
      "hit": false,
      "t": 84374.95499999993,
      "d": 175.78115624999919,
      "v": 126
    },
    {
      "midi": 71,
      "hit": false,
      "t": 84377.74517708326,
      "d": 119.97761458334571,
      "v": 113
    },
    {
      "midi": 38,
      "hit": false,
      "t": 84645.60217708326,
      "d": 270.6471770833159,
      "v": 120
    },
    {
      "midi": 62,
      "hit": false,
      "t": 84645.60217708326,
      "d": 424.10691666664206,
      "v": 99
    },
    {
      "midi": 66,
      "hit": false,
      "t": 84645.60217708326,
      "d": 426.8970937499689,
      "v": 126
    },
    {
      "midi": 69,
      "hit": false,
      "t": 84648.39235416659,
      "d": 446.4283333333151,
      "v": 107
    },
    {
      "midi": 50,
      "hit": false,
      "t": 84913.45917708325,
      "d": 195.31239583331626,
      "v": 125
    },
    {
      "midi": 62,
      "hit": false,
      "t": 85181.31617708324,
      "d": 348.7721354166424,
      "v": 101
    },
    {
      "midi": 40,
      "hit": false,
      "t": 85184.10635416656,
      "d": 267.85699999998906,
      "v": 126
    },
    {
      "midi": 64,
      "hit": false,
      "t": 85184.10635416656,
      "d": 371.09355208331544,
      "v": 120
    },
    {
      "midi": 69,
      "hit": false,
      "t": 85184.10635416656,
      "d": 387.8346145833202,
      "v": 117
    },
    {
      "midi": 52,
      "hit": false,
      "t": 85449.17317708323,
      "d": 175.78115624998463,
      "v": 120
    },
    {
      "midi": 64,
      "hit": false,
      "t": 85717.03017708322,
      "d": 147.8793854166579,
      "v": 107
    },
    {
      "midi": 41,
      "hit": false,
      "t": 85717.03017708322,
      "d": 315.29001041666197,
      "v": 120
    },
    {
      "midi": 65,
      "hit": false,
      "t": 85717.03017708322,
      "d": 426.897093749998,
      "v": 113
    },
    {
      "midi": 60,
      "hit": false,
      "t": 85719.82035416654,
      "d": 398.9953229166713,
      "v": 107
    },
    {
      "midi": 69,
      "hit": false,
      "t": 85719.82035416654,
      "d": 485.49081250000745,
      "v": 113
    },
    {
      "midi": 53,
      "hit": false,
      "t": 85982.09699999988,
      "d": 198.10257291667222,
      "v": 120
    },
    {
      "midi": 62,
      "hit": false,
      "t": 86249.95399999988,
      "d": 382.2542604166665,
      "v": 99
    },
    {
      "midi": 43,
      "hit": false,
      "t": 86252.74417708321,
      "d": 329.2408958333399,
      "v": 117
    },
    {
      "midi": 67,
      "hit": false,
      "t": 86252.74417708321,
      "d": 424.10691666667117,
      "v": 120
    },
    {
      "midi": 71,
      "hit": false,
      "t": 86252.74417708321,
      "d": 443.6381562500028,
      "v": 104
    },
    {
      "midi": 55,
      "hit": false,
      "t": 86520.60117708321,
      "d": 217.63381250000384,
      "v": 117
    },
    {
      "midi": 72,
      "hit": false,
      "t": 86780.08764583322,
      "d": 131.13832291665312,
      "v": 107
    },
    {
      "midi": 45,
      "hit": false,
      "t": 86788.45817708322,
      "d": 256.69629166665254,
      "v": 110
    },
    {
      "midi": 69,
      "hit": false,
      "t": 86788.45817708322,
      "d": 778.4594062499964,
      "v": 113
    },
    {
      "midi": 64,
      "hit": false,
      "t": 86791.24835416654,
      "d": 753.3478124999965,
      "v": 90
    },
    {
      "midi": 73,
      "hit": false,
      "t": 86872.16348958321,
      "d": 683.5933854166651,
      "v": 92
    },
    {
      "midi": 57,
      "hit": false,
      "t": 87056.3151770832,
      "d": 242.74540625000373,
      "v": 120
    },
    {
      "midi": 45,
      "hit": false,
      "t": 87324.17217708321,
      "d": 209.26328124999418,
      "v": 120
    },
    {
      "midi": 45,
      "hit": false,
      "t": 87589.23899999988,
      "d": 131.13832291666768,
      "v": 92
    },
    {
      "midi": 64,
      "hit": false,
      "t": 87859.88617708322,
      "d": 36.27230208332185,
      "v": 85
    },
    {
      "midi": 69,
      "hit": false,
      "t": 87859.88617708322,
      "d": 39.0624791666487,
      "v": 104
    },
    {
      "midi": 73,
      "hit": false,
      "t": 87859.88617708322,
      "d": 64.17407291664858,
      "v": 126
    },
    {
      "midi": 33,
      "hit": false,
      "t": 87859.88617708322,
      "d": 203.68292708331137,
      "v": 120
    },
    {
      "midi": 72,
      "hit": false,
      "t": 87862.67635416654,
      "d": 13.950885416663368,
      "v": 80
    },
    {
      "midi": 73,
      "hit": false,
      "t": 88124.95299999986,
      "d": 412.94620833330555,
      "v": 127
    },
    {
      "midi": 45,
      "hit": false,
      "t": 88127.74317708319,
      "d": 234.37487499999406,
      "v": 117
    },
    {
      "midi": 64,
      "hit": false,
      "t": 88127.74317708319,
      "d": 345.98195833331556,
      "v": 110
    },
    {
      "midi": 69,
      "hit": false,
      "t": 88127.74317708319,
      "d": 424.10691666664206,
      "v": 117
    },
    {
      "midi": 37,
      "hit": false,
      "t": 88395.60017708318,
      "d": 245.53558333331603,
      "v": 127
    },
    {
      "midi": 64,
      "hit": false,
      "t": 88571.38133333316,
      "d": 80.91513541666791,
      "v": 64
    },
    {
      "midi": 49,
      "hit": false,
      "t": 88663.45717708317,
      "d": 184.1516874999943,
      "v": 127
    },
    {
      "midi": 67,
      "hit": false,
      "t": 88666.2473541665,
      "d": 106.02672916666779,
      "v": 117
    },
    {
      "midi": 64,
      "hit": false,
      "t": 88666.2473541665,
      "d": 108.81690624999464,
      "v": 83
    },
    {
      "midi": 72,
      "hit": false,
      "t": 88666.2473541665,
      "d": 145.08920833333104,
      "v": 120
    },
    {
      "midi": 67,
      "hit": false,
      "t": 88931.31417708316,
      "d": 72.54460416665825,
      "v": 104
    },
    {
      "midi": 62,
      "hit": false,
      "t": 88931.31417708316,
      "d": 83.70531249999476,
      "v": 99
    },
    {
      "midi": 38,
      "hit": false,
      "t": 88931.31417708316,
      "d": 209.26328124999418,
      "v": 125
    },
    {
      "midi": 71,
      "hit": false,
      "t": 88934.10435416648,
      "d": 97.65619791667268,
      "v": 110
    },
    {
      "midi": 50,
      "hit": false,
      "t": 89199.17117708315,
      "d": 178.57133333332604,
      "v": 125
    },
    {
      "midi": 62,
      "hit": false,
      "t": 89201.96135416647,
      "d": 343.1917812499887,
      "v": 110
    },
    {
      "midi": 66,
      "hit": false,
      "t": 89201.96135416647,
      "d": 345.98195833331556,
      "v": 126
    },
    {
      "midi": 69,
      "hit": false,
      "t": 89201.96135416647,
      "d": 362.72302083332033,
      "v": 120
    },
    {
      "midi": 38,
      "hit": false,
      "t": 89467.02817708314,
      "d": 251.11593749999884,
      "v": 125
    },
    {
      "midi": 62,
      "hit": false,
      "t": 89645.59951041646,
      "d": 55.803541666668025,
      "v": 120
    },
    {
      "midi": 66,
      "hit": false,
      "t": 89645.59951041646,
      "d": 55.803541666668025,
      "v": 126
    },
    {
      "midi": 69,
      "hit": false,
      "t": 89645.59951041646,
      "d": 61.38389583333628,
      "v": 120
    },
    {
      "midi": 50,
      "hit": false,
      "t": 89732.0949999998,
      "d": 189.7320416666771,
      "v": 126
    },
    {
      "midi": 64,
      "hit": false,
      "t": 89910.66633333314,
      "d": 198.10257291667222,
      "v": 85
    },
    {
      "midi": 72,
      "hit": false,
      "t": 89994.37164583315,
      "d": 50.22318749999977,
      "v": 90
    },
    {
      "midi": 73,
      "hit": false,
      "t": 89999.95199999982,
      "d": 114.3972604166629,
      "v": 126
    },
    {
      "midi": 69,
      "hit": false,
      "t": 90002.74217708314,
      "d": 97.65619791667268,
      "v": 101
    },
    {
      "midi": 33,
      "hit": false,
      "t": 90002.74217708314,
      "d": 242.74540625000373,
      "v": 120
    },
    {
      "midi": 64,
      "hit": false,
      "t": 90270.59917708315,
      "d": 117.18743749998976,
      "v": 101
    },
    {
      "midi": 69,
      "hit": false,
      "t": 90273.38935416647,
      "d": 114.3972604166629,
      "v": 104
    },
    {
      "midi": 73,
      "hit": false,
      "t": 90273.38935416647,
      "d": 128.34814583332627,
      "v": 124
    },
    {
      "midi": 45,
      "hit": false,
      "t": 90273.38935416647,
      "d": 170.20080208333093,
      "v": 125
    },
    {
      "midi": 71,
      "hit": false,
      "t": 90541.24635416648,
      "d": 2.790177083326853,
      "v": 79
    },
    {
      "midi": 64,
      "hit": false,
      "t": 90541.24635416648,
      "d": 80.91513541665336,
      "v": 107
    },
    {
      "midi": 67,
      "hit": false,
      "t": 90541.24635416648,
      "d": 86.49548958332161,
      "v": 110
    },
    {
      "midi": 72,
      "hit": false,
      "t": 90541.24635416648,
      "d": 119.97761458331661,
      "v": 94
    },
    {
      "midi": 37,
      "hit": false,
      "t": 90541.24635416648,
      "d": 214.84363541664788,
      "v": 124
    },
    {
      "midi": 49,
      "hit": false,
      "t": 90806.31317708312,
      "d": 175.78115624999919,
      "v": 127
    },
    {
      "midi": 64,
      "hit": false,
      "t": 90809.10335416645,
      "d": 97.65619791667268,
      "v": 107
    },
    {
      "midi": 67,
      "hit": false,
      "t": 90809.10335416645,
      "d": 108.8169062500092,
      "v": 110
    },
    {
      "midi": 71,
      "hit": false,
      "t": 90809.10335416645,
      "d": 117.18743750000431,
      "v": 104
    },
    {
      "midi": 38,
      "hit": false,
      "t": 91074.17017708313,
      "d": 262.27664583333535,
      "v": 123
    },
    {
      "midi": 62,
      "hit": false,
      "t": 91074.17017708313,
      "d": 644.5309062500019,
      "v": 104
    },
    {
      "midi": 66,
      "hit": false,
      "t": 91074.17017708313,
      "d": 644.5309062500019,
      "v": 126
    },
    {
      "midi": 69,
      "hit": false,
      "t": 91074.17017708313,
      "d": 655.6916145833384,
      "v": 120
    },
    {
      "midi": 50,
      "hit": false,
      "t": 91344.81735416646,
      "d": 203.68292708334047,
      "v": 126
    },
    {
      "midi": 38,
      "hit": false,
      "t": 91609.88417708314,
      "d": 259.48646874999395,
      "v": 125
    },
    {
      "midi": 69,
      "hit": false,
      "t": 91788.45551041646,
      "d": 47.433010416672914,
      "v": 120
    },
    {
      "midi": 62,
      "hit": false,
      "t": 91788.45551041646,
      "d": 53.01336458334117,
      "v": 117
    },
    {
      "midi": 66,
      "hit": false,
      "t": 91788.45551041646,
      "d": 53.01336458334117,
      "v": 127
    },
    {
      "midi": 50,
      "hit": false,
      "t": 91874.9509999998,
      "d": 114.3972604166629,
      "v": 123
    },
    {
      "midi": 64,
      "hit": false,
      "t": 92053.52233333312,
      "d": 200.89274999998452,
      "v": 99
    },
    {
      "midi": 72,
      "hit": false,
      "t": 92137.22764583312,
      "d": 58.59371874999488,
      "v": 94
    },
    {
      "midi": 73,
      "hit": false,
      "t": 92145.59817708311,
      "d": 106.02672916666779,
      "v": 127
    },
    {
      "midi": 33,
      "hit": false,
      "t": 92145.59817708311,
      "d": 245.53558333333058,
      "v": 113
    },
    {
      "midi": 69,
      "hit": false,
      "t": 92148.38835416644,
      "d": 131.13832291666768,
      "v": 101
    },
    {
      "midi": 45,
      "hit": false,
      "t": 92413.45517708312,
      "d": 198.1025729166431,
      "v": 123
    },
    {
      "midi": 64,
      "hit": false,
      "t": 92416.24535416644,
      "d": 128.34814583332627,
      "v": 99
    },
    {
      "midi": 69,
      "hit": false,
      "t": 92416.24535416644,
      "d": 131.13832291665312,
      "v": 107
    },
    {
      "midi": 73,
      "hit": false,
      "t": 92416.24535416644,
      "d": 133.92849999997998,
      "v": 126
    },
    {
      "midi": 67,
      "hit": false,
      "t": 92681.31217708309,
      "d": 103.23655208332639,
      "v": 110
    },
    {
      "midi": 64,
      "hit": false,
      "t": 92684.10235416642,
      "d": 83.70531249999476,
      "v": 113
    },
    {
      "midi": 72,
      "hit": false,
      "t": 92684.10235416642,
      "d": 108.81690624999464,
      "v": 110
    },
    {
      "midi": 37,
      "hit": false,
      "t": 92684.10235416642,
      "d": 220.4239895833307,
      "v": 114
    },
    {
      "midi": 64,
      "hit": false,
      "t": 92949.16917708308,
      "d": 89.28566666666302,
      "v": 107
    },
    {
      "midi": 49,
      "hit": false,
      "t": 92949.16917708308,
      "d": 172.99097916665778,
      "v": 126
    },
    {
      "midi": 67,
      "hit": false,
      "t": 92951.9593541664,
      "d": 114.3972604166629,
      "v": 104
    },
    {
      "midi": 71,
      "hit": false,
      "t": 92951.9593541664,
      "d": 119.97761458333116,
      "v": 113
    },
    {
      "midi": 38,
      "hit": false,
      "t": 93217.02617708307,
      "d": 267.85699999998906,
      "v": 120
    },
    {
      "midi": 62,
      "hit": false,
      "t": 93217.02617708307,
      "d": 424.1069166666566,
      "v": 99
    },
    {
      "midi": 66,
      "hit": false,
      "t": 93217.02617708307,
      "d": 429.6872708333249,
      "v": 126
    },
    {
      "midi": 69,
      "hit": false,
      "t": 93217.02617708307,
      "d": 449.2185104166565,
      "v": 107
    },
    {
      "midi": 50,
      "hit": false,
      "t": 93482.09299999973,
      "d": 198.10257291665766,
      "v": 125
    },
    {
      "midi": 62,
      "hit": false,
      "t": 93749.94999999972,
      "d": 351.5623124999838,
      "v": 101
    },
    {
      "midi": 40,
      "hit": false,
      "t": 93752.74017708305,
      "d": 270.64717708333046,
      "v": 126
    },
    {
      "midi": 64,
      "hit": false,
      "t": 93752.74017708305,
      "d": 376.6739062499837,
      "v": 120
    },
    {
      "midi": 69,
      "hit": false,
      "t": 93752.74017708305,
      "d": 393.4149687499885,
      "v": 117
    },
    {
      "midi": 52,
      "hit": false,
      "t": 94020.59717708305,
      "d": 175.78115624998463,
      "v": 120
    },
    {
      "midi": 64,
      "hit": false,
      "t": 94291.24435416637,
      "d": 142.2990312500042,
      "v": 107
    },
    {
      "midi": 41,
      "hit": false,
      "t": 94291.24435416637,
      "d": 315.2900104166765,
      "v": 120
    },
    {
      "midi": 60,
      "hit": false,
      "t": 94291.24435416637,
      "d": 398.9953229166713,
      "v": 107
    },
    {
      "midi": 65,
      "hit": false,
      "t": 94291.24435416637,
      "d": 424.10691666667117,
      "v": 113
    },
    {
      "midi": 69,
      "hit": false,
      "t": 94291.24435416637,
      "d": 485.49081250000745,
      "v": 113
    },
    {
      "midi": 53,
      "hit": false,
      "t": 94559.10135416637,
      "d": 192.52221875000396,
      "v": 120
    },
    {
      "midi": 62,
      "hit": false,
      "t": 94824.16817708305,
      "d": 379.4640833333251,
      "v": 99
    },
    {
      "midi": 43,
      "hit": false,
      "t": 94826.95835416637,
      "d": 326.4507187499985,
      "v": 117
    },
    {
      "midi": 67,
      "hit": false,
      "t": 94826.95835416637,
      "d": 421.31673958332976,
      "v": 120
    },
    {
      "midi": 71,
      "hit": false,
      "t": 94826.95835416637,
      "d": 440.8479791666614,
      "v": 104
    },
    {
      "midi": 55,
      "hit": false,
      "t": 95089.23499999971,
      "d": 220.4239895833307,
      "v": 117
    },
    {
      "midi": 72,
      "hit": false,
      "t": 95351.51164583304,
      "d": 131.13832291666768,
      "v": 107
    },
    {
      "midi": 45,
      "hit": false,
      "t": 95357.09199999971,
      "d": 256.6962916666671,
      "v": 110
    },
    {
      "midi": 64,
      "hit": false,
      "t": 95359.88217708304,
      "d": 753.3478124999965,
      "v": 90
    },
    {
      "midi": 69,
      "hit": false,
      "t": 95359.88217708304,
      "d": 775.6692291666695,
      "v": 113
    },
    {
      "midi": 73,
      "hit": false,
      "t": 95446.37766666638,
      "d": 678.0130312499969,
      "v": 92
    },
    {
      "midi": 57,
      "hit": false,
      "t": 95624.94899999972,
      "d": 245.53558333333058,
      "v": 120
    },
    {
      "midi": 45,
      "hit": false,
      "t": 95895.59617708305,
      "d": 209.26328124999418,
      "v": 120
    },
    {
      "midi": 45,
      "hit": false,
      "t": 96163.45317708304,
      "d": 128.34814583332627,
      "v": 92
    },
    {
      "midi": 60,
      "hit": false,
      "t": 96434.10035416637,
      "d": 424.10691666667117,
      "v": 85
    },
    {
      "midi": 62,
      "hit": false,
      "t": 96434.10035416637,
      "d": 580.3568333333533,
      "v": 74
    },
    {
      "midi": 57,
      "hit": false,
      "t": 96434.10035416637,
      "d": 1395.088541666686,
      "v": 66
    },
    {
      "midi": 65,
      "hit": false,
      "t": 96434.10035416637,
      "d": 2154.0167083333363,
      "v": 79
    },
    {
      "midi": 38,
      "hit": false,
      "t": 96436.8905312497,
      "d": 298.54894791667175,
      "v": 104
    },
    {
      "midi": 50,
      "hit": false,
      "t": 96699.16717708303,
      "d": 245.53558333334513,
      "v": 113
    },
    {
      "midi": 36,
      "hit": false,
      "t": 96967.02417708305,
      "d": 267.8570000000036,
      "v": 117
    },
    {
      "midi": 60,
      "hit": false,
      "t": 96967.02417708305,
      "d": 424.10691666667117,
      "v": 74
    },
    {
      "midi": 48,
      "hit": false,
      "t": 97232.09099999972,
      "d": 228.7945208333258,
      "v": 113
    },
    {
      "midi": 35,
      "hit": false,
      "t": 97499.94799999971,
      "d": 279.0177083333401,
      "v": 107
    },
    {
      "midi": 59,
      "hit": false,
      "t": 97499.94799999971,
      "d": 566.4059479166754,
      "v": 82
    },
    {
      "midi": 47,
      "hit": false,
      "t": 97767.80499999972,
      "d": 217.63381250000384,
      "v": 123
    },
    {
      "midi": 33,
      "hit": false,
      "t": 98041.24235416639,
      "d": 265.0668229166622,
      "v": 113
    },
    {
      "midi": 57,
      "hit": false,
      "t": 98041.24235416639,
      "d": 401.7854999999836,
      "v": 107
    },
    {
      "midi": 45,
      "hit": false,
      "t": 98309.09935416638,
      "d": 228.7945208333258,
      "v": 110
    },
    {
      "midi": 31,
      "hit": false,
      "t": 98576.95635416637,
      "d": 251.11593749999884,
      "v": 99
    },
    {
      "midi": 55,
      "hit": false,
      "t": 98576.95635416637,
      "d": 859.3745416666643,
      "v": 92
    },
    {
      "midi": 59,
      "hit": false,
      "t": 98576.95635416637,
      "d": 1922.432010416669,
      "v": 94
    },
    {
      "midi": 62,
      "hit": false,
      "t": 98576.95635416637,
      "d": 2095.4229895833414,
      "v": 92
    },
    {
      "midi": 43,
      "hit": false,
      "t": 98839.2329999997,
      "d": 242.74540625000373,
      "v": 120
    },
    {
      "midi": 31,
      "hit": false,
      "t": 99109.88017708303,
      "d": 831.4727708333376,
      "v": 117
    },
    {
      "midi": 43,
      "hit": false,
      "t": 99374.9469999997,
      "d": 318.0801875000034,
      "v": 117
    },
    {
      "midi": 55,
      "hit": false,
      "t": 99645.59417708302,
      "d": 878.9057812500105,
      "v": 113
    },
    {
      "midi": 43,
      "hit": false,
      "t": 99910.6609999997,
      "d": 253.90611458334024,
      "v": 123
    },
    {
      "midi": 31,
      "hit": false,
      "t": 100181.30817708305,
      "d": 226.00434374999895,
      "v": 123
    },
    {
      "midi": 43,
      "hit": false,
      "t": 100446.37499999971,
      "d": 214.84363541666244,
      "v": 125
    },
    {
      "midi": 36,
      "hit": false,
      "t": 100717.02217708304,
      "d": 345.9819583333301,
      "v": 113
    },
    {
      "midi": 55,
      "hit": false,
      "t": 100717.02217708304,
      "d": 1213.7270312499895,
      "v": 90
    },
    {
      "midi": 64,
      "hit": false,
      "t": 100717.02217708304,
      "d": 2020.0882083333272,
      "v": 94
    },
    {
      "midi": 60,
      "hit": false,
      "t": 100719.81235416637,
      "d": 460.37921875000757,
      "v": 101
    },
    {
      "midi": 48,
      "hit": false,
      "t": 100982.0889999997,
      "d": 242.74540625000373,
      "v": 123
    },
    {
      "midi": 35,
      "hit": false,
      "t": 101252.73617708303,
      "d": 270.64717708333046,
      "v": 117
    },
    {
      "midi": 59,
      "hit": false,
      "t": 101252.73617708303,
      "d": 398.99532291665673,
      "v": 82
    },
    {
      "midi": 47,
      "hit": false,
      "t": 101520.59317708304,
      "d": 253.9061145833257,
      "v": 123
    },
    {
      "midi": 33,
      "hit": false,
      "t": 101788.45017708302,
      "d": 267.8570000000036,
      "v": 123
    },
    {
      "midi": 57,
      "hit": false,
      "t": 101788.45017708302,
      "d": 563.615770833334,
      "v": 75
    },
    {
      "midi": 45,
      "hit": false,
      "t": 102053.5169999997,
      "d": 226.00434374999895,
      "v": 120
    },
    {
      "midi": 55,
      "hit": false,
      "t": 102324.16417708303,
      "d": 351.56231249999837,
      "v": 101
    },
    {
      "midi": 31,
      "hit": false,
      "t": 102326.95435416636,
      "d": 253.90611458334024,
      "v": 120
    },
    {
      "midi": 43,
      "hit": false,
      "t": 102589.2309999997,
      "d": 237.16505208333547,
      "v": 123
    },
    {
      "midi": 52,
      "hit": false,
      "t": 102859.87817708302,
      "d": 1263.9502187500038,
      "v": 88
    },
    {
      "midi": 57,
      "hit": false,
      "t": 102859.87817708302,
      "d": 1609.9321770833194,
      "v": 90
    },
    {
      "midi": 60,
      "hit": false,
      "t": 102859.87817708302,
      "d": 2056.3605104166636,
      "v": 83
    },
    {
      "midi": 33,
      "hit": false,
      "t": 102862.66835416635,
      "d": 242.74540625000373,
      "v": 125
    },
    {
      "midi": 45,
      "hit": false,
      "t": 103124.94499999969,
      "d": 251.11593749999884,
      "v": 120
    },
    {
      "midi": 35,
      "hit": false,
      "t": 103395.59217708302,
      "d": 237.16505208333547,
      "v": 123
    },
    {
      "midi": 47,
      "hit": false,
      "t": 103663.44917708302,
      "d": 251.11593749999884,
      "v": 125
    },
    {
      "midi": 36,
      "hit": false,
      "t": 103931.30617708302,
      "d": 234.37487500000861,
      "v": 123
    },
    {
      "midi": 48,
      "hit": false,
      "t": 104199.16317708303,
      "d": 239.95522916666232,
      "v": 125
    },
    {
      "midi": 40,
      "hit": false,
      "t": 104467.02017708302,
      "d": 326.4507187499985,
      "v": 107
    },
    {
      "midi": 52,
      "hit": false,
      "t": 104732.08699999968,
      "d": 214.843635416677,
      "v": 120
    },
    {
      "midi": 60,
      "hit": false,
      "t": 105002.73417708302,
      "d": 429.6872708333249,
      "v": 85
    },
    {
      "midi": 62,
      "hit": false,
      "t": 105002.73417708302,
      "d": 585.937187500007,
      "v": 74
    },
    {
      "midi": 57,
      "hit": false,
      "t": 105002.73417708302,
      "d": 1397.8787187499838,
      "v": 66
    },
    {
      "midi": 65,
      "hit": false,
      "t": 105002.73417708302,
      "d": 2156.8068854166486,
      "v": 79
    },
    {
      "midi": 38,
      "hit": false,
      "t": 105005.52435416635,
      "d": 301.3391249999986,
      "v": 104
    },
    {
      "midi": 50,
      "hit": false,
      "t": 105270.59117708301,
      "d": 248.32576041667198,
      "v": 113
    },
    {
      "midi": 36,
      "hit": false,
      "t": 105541.23835416636,
      "d": 267.8570000000036,
      "v": 117
    },
    {
      "midi": 60,
      "hit": false,
      "t": 105541.23835416636,
      "d": 421.31673958332976,
      "v": 74
    },
    {
      "midi": 48,
      "hit": false,
      "t": 105806.30517708304,
      "d": 223.21416666665755,
      "v": 113
    },
    {
      "midi": 35,
      "hit": false,
      "t": 106074.16217708302,
      "d": 273.4373541666573,
      "v": 107
    },
    {
      "midi": 59,
      "hit": false,
      "t": 106074.16217708302,
      "d": 566.4059479166463,
      "v": 82
    },
    {
      "midi": 47,
      "hit": false,
      "t": 106339.22899999969,
      "d": 217.6338124999893,
      "v": 123
    },
    {
      "midi": 33,
      "hit": false,
      "t": 106609.876177083,
      "d": 265.0668229166622,
      "v": 113
    },
    {
      "midi": 57,
      "hit": false,
      "t": 106609.876177083,
      "d": 404.575677083325,
      "v": 107
    },
    {
      "midi": 45,
      "hit": false,
      "t": 106877.73317708299,
      "d": 234.37487500000861,
      "v": 110
    },
    {
      "midi": 31,
      "hit": false,
      "t": 107148.38035416634,
      "d": 251.11593749999884,
      "v": 99
    },
    {
      "midi": 55,
      "hit": false,
      "t": 107148.38035416634,
      "d": 862.1647187499912,
      "v": 92
    },
    {
      "midi": 59,
      "hit": false,
      "t": 107148.38035416634,
      "d": 1925.2221875000105,
      "v": 94
    },
    {
      "midi": 62,
      "hit": false,
      "t": 107148.38035416634,
      "d": 2098.213166666683,
      "v": 92
    },
    {
      "midi": 43,
      "hit": false,
      "t": 107413.447177083,
      "d": 239.95522916666232,
      "v": 120
    },
    {
      "midi": 31,
      "hit": false,
      "t": 107684.09435416633,
      "d": 828.6825937500107,
      "v": 117
    },
    {
      "midi": 43,
      "hit": false,
      "t": 107949.16117708299,
      "d": 312.49983333334967,
      "v": 117
    },
    {
      "midi": 55,
      "hit": false,
      "t": 108214.22799999967,
      "d": 881.6959583333519,
      "v": 113
    },
    {
      "midi": 43,
      "hit": false,
      "t": 108482.08499999967,
      "d": 251.11593749999884,
      "v": 123
    },
    {
      "midi": 31,
      "hit": false,
      "t": 108749.94199999968,
      "d": 231.5846979166672,
      "v": 123
    },
    {
      "midi": 43,
      "hit": false,
      "t": 109017.79899999968,
      "d": 217.63381250000384,
      "v": 125
    },
    {
      "midi": 64,
      "hit": false,
      "t": 109291.23635416635,
      "d": 940.2896770833177,
      "v": 101
    },
    {
      "midi": 55,
      "hit": false,
      "t": 109291.23635416635,
      "d": 954.240562499981,
      "v": 105
    },
    {
      "midi": 36,
      "hit": false,
      "t": 109294.02653124968,
      "d": 934.709322916664,
      "v": 103
    },
    {
      "midi": 48,
      "hit": false,
      "t": 109294.02653124968,
      "d": 937.4994999999908,
      "v": 101
    },
    {
      "midi": 60,
      "hit": false,
      "t": 109294.02653124968,
      "d": 937.4994999999908,
      "v": 110
    },
    {
      "midi": 35,
      "hit": false,
      "t": 110359.874177083,
      "d": 931.9191458333225,
      "v": 100
    },
    {
      "midi": 47,
      "hit": false,
      "t": 110362.66435416632,
      "d": 929.1289687499957,
      "v": 106
    },
    {
      "midi": 65,
      "hit": false,
      "t": 110362.66435416632,
      "d": 959.8209166666638,
      "v": 104
    },
    {
      "midi": 57,
      "hit": false,
      "t": 110362.66435416632,
      "d": 970.9816250000003,
      "v": 102
    },
    {
      "midi": 59,
      "hit": false,
      "t": 110362.66435416632,
      "d": 987.7226875000051,
      "v": 108
    },
    {
      "midi": 62,
      "hit": false,
      "t": 110365.45453124965,
      "d": 1015.6244583333464,
      "v": 108
    },
    {
      "midi": 52,
      "hit": false,
      "t": 111434.09235416632,
      "d": 870.5352499999863,
      "v": 106
    },
    {
      "midi": 40,
      "hit": false,
      "t": 111436.88253124965,
      "d": 892.8566666666593,
      "v": 108
    },
    {
      "midi": 57,
      "hit": false,
      "t": 111436.88253124965,
      "d": 976.561979166654,
      "v": 104
    },
    {
      "midi": 59,
      "hit": false,
      "t": 111436.88253124965,
      "d": 996.0932187499857,
      "v": 117
    },
    {
      "midi": 64,
      "hit": false,
      "t": 111436.88253124965,
      "d": 998.8833958333125,
      "v": 117
    },
    {
      "midi": 40,
      "hit": false,
      "t": 112499.93999999962,
      "d": 951.4503854166542,
      "v": 120
    },
    {
      "midi": 56,
      "hit": false,
      "t": 112502.73017708295,
      "d": 873.3254270833277,
      "v": 114
    },
    {
      "midi": 28,
      "hit": false,
      "t": 112502.73017708295,
      "d": 937.4994999999908,
      "v": 108
    },
    {
      "midi": 64,
      "hit": false,
      "t": 112502.73017708295,
      "d": 959.8209166666638,
      "v": 110
    },
    {
      "midi": 59,
      "hit": false,
      "t": 112502.73017708295,
      "d": 962.6110937499907,
      "v": 109
    },
    {
      "midi": 64,
      "hit": false,
      "t": 113576.94835416628,
      "d": 30.69194791665359,
      "v": 85
    },
    {
      "midi": 69,
      "hit": false,
      "t": 113576.94835416628,
      "d": 33.48212499998044,
      "v": 104
    },
    {
      "midi": 72,
      "hit": false,
      "t": 113579.7385312496,
      "d": 13.950885416663368,
      "v": 80
    },
    {
      "midi": 73,
      "hit": false,
      "t": 113579.7385312496,
      "d": 58.593718749980326,
      "v": 126
    },
    {
      "midi": 33,
      "hit": false,
      "t": 113579.7385312496,
      "d": 198.1025729166431,
      "v": 120
    },
    {
      "midi": 73,
      "hit": false,
      "t": 113839.22499999958,
      "d": 412.9462083333201,
      "v": 127
    },
    {
      "midi": 45,
      "hit": false,
      "t": 113842.01517708291,
      "d": 234.37487499999406,
      "v": 117
    },
    {
      "midi": 64,
      "hit": false,
      "t": 113842.01517708291,
      "d": 348.77213541665697,
      "v": 110
    },
    {
      "midi": 69,
      "hit": false,
      "t": 113842.01517708291,
      "d": 424.1069166666566,
      "v": 117
    },
    {
      "midi": 37,
      "hit": false,
      "t": 114107.08199999957,
      "d": 248.32576041665743,
      "v": 127
    },
    {
      "midi": 64,
      "hit": false,
      "t": 114285.6533333329,
      "d": 80.91513541666791,
      "v": 64
    },
    {
      "midi": 67,
      "hit": false,
      "t": 114374.93899999956,
      "d": 111.6070833333215,
      "v": 117
    },
    {
      "midi": 49,
      "hit": false,
      "t": 114374.93899999956,
      "d": 186.94186458332115,
      "v": 127
    },
    {
      "midi": 64,
      "hit": false,
      "t": 114377.72917708289,
      "d": 114.3972604166629,
      "v": 83
    },
    {
      "midi": 72,
      "hit": false,
      "t": 114377.72917708289,
      "d": 150.6695624999993,
      "v": 120
    },
    {
      "midi": 38,
      "hit": false,
      "t": 114645.58617708288,
      "d": 206.47310416666733,
      "v": 125
    },
    {
      "midi": 67,
      "hit": false,
      "t": 114648.3763541662,
      "d": 66.96425000000454,
      "v": 104
    },
    {
      "midi": 62,
      "hit": false,
      "t": 114648.3763541662,
      "d": 78.12495833334106,
      "v": 99
    },
    {
      "midi": 71,
      "hit": false,
      "t": 114648.3763541662,
      "d": 97.65619791667268,
      "v": 110
    },
    {
      "midi": 50,
      "hit": false,
      "t": 114913.44317708288,
      "d": 178.57133333332604,
      "v": 125
    },
    {
      "midi": 62,
      "hit": false,
      "t": 114916.23335416621,
      "d": 345.9819583333301,
      "v": 110
    },
    {
      "midi": 66,
      "hit": false,
      "t": 114916.23335416621,
      "d": 348.77213541665697,
      "v": 126
    },
    {
      "midi": 69,
      "hit": false,
      "t": 114916.23335416621,
      "d": 359.9328437499935,
      "v": 120
    },
    {
      "midi": 38,
      "hit": false,
      "t": 115181.30017708287,
      "d": 251.11593749999884,
      "v": 125
    },
    {
      "midi": 62,
      "hit": false,
      "t": 115357.08133333287,
      "d": 55.803541666668025,
      "v": 120
    },
    {
      "midi": 66,
      "hit": false,
      "t": 115357.08133333287,
      "d": 58.59371874999488,
      "v": 126
    },
    {
      "midi": 69,
      "hit": false,
      "t": 115357.08133333287,
      "d": 64.17407291666314,
      "v": 120
    },
    {
      "midi": 50,
      "hit": false,
      "t": 115449.15717708287,
      "d": 184.1516874999943,
      "v": 126
    },
    {
      "midi": 64,
      "hit": false,
      "t": 115624.93833333287,
      "d": 198.1025729166431,
      "v": 85
    },
    {
      "midi": 72,
      "hit": false,
      "t": 115708.64364583287,
      "d": 47.43301041665836,
      "v": 90
    },
    {
      "midi": 69,
      "hit": false,
      "t": 115717.01417708286,
      "d": 97.65619791665813,
      "v": 101
    },
    {
      "midi": 73,
      "hit": false,
      "t": 115717.01417708286,
      "d": 111.6070833333215,
      "v": 126
    },
    {
      "midi": 33,
      "hit": false,
      "t": 115717.01417708286,
      "d": 242.74540624998917,
      "v": 120
    },
    {
      "midi": 64,
      "hit": false,
      "t": 115984.87117708285,
      "d": 114.3972604166629,
      "v": 101
    },
    {
      "midi": 69,
      "hit": false,
      "t": 115984.87117708285,
      "d": 119.97761458333116,
      "v": 104
    },
    {
      "midi": 73,
      "hit": false,
      "t": 115984.87117708285,
      "d": 131.13832291666768,
      "v": 124
    },
    {
      "midi": 45,
      "hit": false,
      "t": 115984.87117708285,
      "d": 172.99097916667233,
      "v": 125
    },
    {
      "midi": 71,
      "hit": false,
      "t": 116249.93799999953,
      "d": 5.580354166653706,
      "v": 79
    },
    {
      "midi": 64,
      "hit": false,
      "t": 116252.72817708286,
      "d": 86.49548958332161,
      "v": 107
    },
    {
      "midi": 67,
      "hit": false,
      "t": 116252.72817708286,
      "d": 89.28566666664847,
      "v": 110
    },
    {
      "midi": 72,
      "hit": false,
      "t": 116252.72817708286,
      "d": 122.76779166664346,
      "v": 94
    },
    {
      "midi": 37,
      "hit": false,
      "t": 116252.72817708286,
      "d": 217.63381249997474,
      "v": 124
    },
    {
      "midi": 64,
      "hit": false,
      "t": 116520.58517708283,
      "d": 100.44637499999953,
      "v": 107
    },
    {
      "midi": 49,
      "hit": false,
      "t": 116520.58517708283,
      "d": 175.78115624999919,
      "v": 127
    },
    {
      "midi": 67,
      "hit": false,
      "t": 116523.37535416616,
      "d": 111.60708333333605,
      "v": 110
    },
    {
      "midi": 71,
      "hit": false,
      "t": 116523.37535416616,
      "d": 117.18743750000431,
      "v": 104
    },
    {
      "midi": 38,
      "hit": false,
      "t": 116788.44217708283,
      "d": 262.27664583333535,
      "v": 123
    },
    {
      "midi": 62,
      "hit": false,
      "t": 116788.44217708283,
      "d": 641.740729166675,
      "v": 104
    },
    {
      "midi": 66,
      "hit": false,
      "t": 116788.44217708283,
      "d": 644.5309062500019,
      "v": 126
    },
    {
      "midi": 69,
      "hit": false,
      "t": 116788.44217708283,
      "d": 652.901437499997,
      "v": 120
    },
    {
      "midi": 50,
      "hit": false,
      "t": 117056.29917708284,
      "d": 206.47310416666733,
      "v": 126
    },
    {
      "midi": 38,
      "hit": false,
      "t": 117324.15617708284,
      "d": 262.2766458333208,
      "v": 125
    },
    {
      "midi": 69,
      "hit": false,
      "t": 117499.93733333283,
      "d": 47.433010416672914,
      "v": 120
    },
    {
      "midi": 62,
      "hit": false,
      "t": 117499.93733333283,
      "d": 53.01336458334117,
      "v": 117
    },
    {
      "midi": 66,
      "hit": false,
      "t": 117499.93733333283,
      "d": 55.803541666668025,
      "v": 127
    },
    {
      "midi": 50,
      "hit": false,
      "t": 117592.01317708283,
      "d": 111.60708333333605,
      "v": 123
    },
    {
      "midi": 64,
      "hit": false,
      "t": 117767.79433333283,
      "d": 200.89274999999907,
      "v": 99
    },
    {
      "midi": 72,
      "hit": false,
      "t": 117848.7094687495,
      "d": 61.38389583333628,
      "v": 94
    },
    {
      "midi": 73,
      "hit": false,
      "t": 117859.87017708283,
      "d": 106.02672916666779,
      "v": 127
    },
    {
      "midi": 69,
      "hit": false,
      "t": 117859.87017708283,
      "d": 133.92849999999453,
      "v": 101
    },
    {
      "midi": 33,
      "hit": false,
      "t": 117859.87017708283,
      "d": 245.53558333333058,
      "v": 113
    },
    {
      "midi": 45,
      "hit": false,
      "t": 118124.9369999995,
      "d": 200.89274999999907,
      "v": 123
    },
    {
      "midi": 64,
      "hit": false,
      "t": 118127.72717708282,
      "d": 131.13832291666768,
      "v": 99
    },
    {
      "midi": 69,
      "hit": false,
      "t": 118127.72717708282,
      "d": 131.13832291666768,
      "v": 107
    },
    {
      "midi": 73,
      "hit": false,
      "t": 118127.72717708282,
      "d": 136.71867708333593,
      "v": 126
    },
    {
      "midi": 67,
      "hit": false,
      "t": 118395.58417708283,
      "d": 100.44637499999953,
      "v": 110
    },
    {
      "midi": 64,
      "hit": false,
      "t": 118398.37435416615,
      "d": 80.91513541666791,
      "v": 113
    },
    {
      "midi": 72,
      "hit": false,
      "t": 118398.37435416615,
      "d": 111.60708333333605,
      "v": 110
    },
    {
      "midi": 37,
      "hit": false,
      "t": 118398.37435416615,
      "d": 223.2141666666721,
      "v": 114
    },
    {
      "midi": 64,
      "hit": false,
      "t": 118663.44117708283,
      "d": 92.07584374998987,
      "v": 107
    },
    {
      "midi": 67,
      "hit": false,
      "t": 118663.44117708283,
      "d": 114.3972604166629,
      "v": 104
    },
    {
      "midi": 49,
      "hit": false,
      "t": 118663.44117708283,
      "d": 172.99097916665778,
      "v": 126
    },
    {
      "midi": 71,
      "hit": false,
      "t": 118666.23135416616,
      "d": 117.18743750000431,
      "v": 113
    },
    {
      "midi": 38,
      "hit": false,
      "t": 118931.29817708282,
      "d": 270.6471770833159,
      "v": 120
    },
    {
      "midi": 62,
      "hit": false,
      "t": 118934.08835416615,
      "d": 421.3167395833152,
      "v": 99
    },
    {
      "midi": 66,
      "hit": false,
      "t": 118934.08835416615,
      "d": 424.10691666664206,
      "v": 126
    },
    {
      "midi": 69,
      "hit": false,
      "t": 118934.08835416615,
      "d": 446.4283333333151,
      "v": 107
    },
    {
      "midi": 50,
      "hit": false,
      "t": 119199.15517708281,
      "d": 195.31239583331626,
      "v": 125
    },
    {
      "midi": 62,
      "hit": false,
      "t": 119467.0121770828,
      "d": 348.77213541665697,
      "v": 101
    },
    {
      "midi": 69,
      "hit": false,
      "t": 119467.0121770828,
      "d": 393.4149687499885,
      "v": 117
    },
    {
      "midi": 40,
      "hit": false,
      "t": 119469.80235416612,
      "d": 265.0668229166622,
      "v": 126
    },
    {
      "midi": 64,
      "hit": false,
      "t": 119469.80235416612,
      "d": 373.88372916665685,
      "v": 120
    },
    {
      "midi": 52,
      "hit": false,
      "t": 119732.07899999946,
      "d": 178.57133333332604,
      "v": 120
    },
    {
      "midi": 41,
      "hit": false,
      "t": 120002.72617708279,
      "d": 318.0801874999888,
      "v": 120
    },
    {
      "midi": 65,
      "hit": false,
      "t": 120002.72617708279,
      "d": 426.89709374998347,
      "v": 113
    },
    {
      "midi": 64,
      "hit": false,
      "t": 120005.51635416612,
      "d": 145.08920833333104,
      "v": 107
    },
    {
      "midi": 60,
      "hit": false,
      "t": 120005.51635416612,
      "d": 398.99532291665673,
      "v": 107
    },
    {
      "midi": 69,
      "hit": false,
      "t": 120005.51635416612,
      "d": 482.70063541666605,
      "v": 113
    },
    {
      "midi": 53,
      "hit": false,
      "t": 120270.58317708278,
      "d": 195.3123958333308,
      "v": 120
    },
    {
      "midi": 43,
      "hit": false,
      "t": 120541.23035416611,
      "d": 326.4507187499985,
      "v": 117
    },
    {
      "midi": 62,
      "hit": false,
      "t": 120541.23035416611,
      "d": 376.67390624999825,
      "v": 99
    },
    {
      "midi": 67,
      "hit": false,
      "t": 120541.23035416611,
      "d": 421.31673958332976,
      "v": 120
    },
    {
      "midi": 71,
      "hit": false,
      "t": 120541.23035416611,
      "d": 440.8479791666614,
      "v": 104
    },
    {
      "midi": 55,
      "hit": false,
      "t": 120806.29717708277,
      "d": 217.63381250000384,
      "v": 117
    },
    {
      "midi": 45,
      "hit": false,
      "t": 121076.9443541661,
      "d": 2.790177083326853,
      "v": 120
    },
    {
      "midi": 73,
      "hit": false,
      "t": 121076.9443541661,
      "d": 58.59371874999488,
      "v": 126
    },
    {
      "midi": 69,
      "hit": false,
      "t": 121076.9443541661,
      "d": 69.7544270833314,
      "v": 113
    },
    {
      "midi": 73,
      "hit": false,
      "t": 121339.22099999944,
      "d": 318.0801874999888,
      "v": 127
    },
    {
      "midi": 57,
      "hit": false,
      "t": 121342.01117708276,
      "d": 156.24991666666756,
      "v": 113
    },
    {
      "midi": 69,
      "hit": false,
      "t": 121342.01117708276,
      "d": 326.4507187499985,
      "v": 117
    },
    {
      "midi": 45,
      "hit": false,
      "t": 121607.07799999943,
      "d": 231.5846979166672,
      "v": 123
    },
    {
      "midi": 73,
      "hit": false,
      "t": 121785.64933333277,
      "d": 69.7544270833314,
      "v": 127
    },
    {
      "midi": 57,
      "hit": false,
      "t": 121785.64933333277,
      "d": 290.1784166666621,
      "v": 117
    },
    {
      "midi": 69,
      "hit": false,
      "t": 121788.4395104161,
      "d": 78.12495833334106,
      "v": 120
    },
    {
      "midi": 64,
      "hit": false,
      "t": 121874.93499999943,
      "d": 161.83027083333582,
      "v": 110
    },
    {
      "midi": 71,
      "hit": false,
      "t": 122148.3723541661,
      "d": 94.86602083333128,
      "v": 117
    },
    {
      "midi": 74,
      "hit": false,
      "t": 122148.3723541661,
      "d": 94.86602083333128,
      "v": 110
    },
    {
      "midi": 47,
      "hit": false,
      "t": 122148.3723541661,
      "d": 212.05345833333558,
      "v": 120
    },
    {
      "midi": 71,
      "hit": false,
      "t": 122413.43917708276,
      "d": 128.34814583332627,
      "v": 104
    },
    {
      "midi": 74,
      "hit": false,
      "t": 122413.43917708276,
      "d": 145.08920833333104,
      "v": 101
    },
    {
      "midi": 59,
      "hit": false,
      "t": 122413.43917708276,
      "d": 161.83027083333582,
      "v": 120
    },
    {
      "midi": 74,
      "hit": false,
      "t": 122589.22033333276,
      "d": 122.76779166667257,
      "v": 54
    },
    {
      "midi": 71,
      "hit": false,
      "t": 122589.22033333276,
      "d": 131.13832291666768,
      "v": 53
    },
    {
      "midi": 47,
      "hit": false,
      "t": 122681.29617708277,
      "d": 265.0668229166622,
      "v": 117
    },
    {
      "midi": 71,
      "hit": false,
      "t": 122857.07733333277,
      "d": 92.07584374998987,
      "v": 120
    },
    {
      "midi": 74,
      "hit": false,
      "t": 122857.07733333277,
      "d": 94.86602083331672,
      "v": 123
    },
    {
      "midi": 47,
      "hit": false,
      "t": 122949.15317708276,
      "d": 61.38389583332173,
      "v": 61
    },
    {
      "midi": 69,
      "hit": false,
      "t": 122949.15317708276,
      "d": 136.71867708332138,
      "v": 117
    },
    {
      "midi": 59,
      "hit": false,
      "t": 122949.15317708276,
      "d": 223.21416666665755,
      "v": 120
    },
    {
      "midi": 75,
      "hit": false,
      "t": 123217.01017708275,
      "d": 69.7544270833314,
      "v": 127
    },
    {
      "midi": 72,
      "hit": false,
      "t": 123217.01017708275,
      "d": 78.1249583333265,
      "v": 120
    },
    {
      "midi": 48,
      "hit": false,
      "t": 123217.01017708275,
      "d": 103.23655208332639,
      "v": 110
    },
    {
      "midi": 60,
      "hit": false,
      "t": 123303.50566666607,
      "d": 80.91513541666791,
      "v": 113
    },
    {
      "midi": 48,
      "hit": false,
      "t": 123482.07699999941,
      "d": 92.07584374998987,
      "v": 90
    },
    {
      "midi": 72,
      "hit": false,
      "t": 123484.86717708273,
      "d": 97.65619791665813,
      "v": 120
    },
    {
      "midi": 60,
      "hit": false,
      "t": 123484.86717708273,
      "d": 100.44637499998498,
      "v": 110
    },
    {
      "midi": 75,
      "hit": false,
      "t": 123484.86717708273,
      "d": 100.44637499998498,
      "v": 127
    },
    {
      "midi": 47,
      "hit": false,
      "t": 123752.72417708272,
      "d": 83.70531249999476,
      "v": 101
    },
    {
      "midi": 71,
      "hit": false,
      "t": 123752.72417708272,
      "d": 92.07584374998987,
      "v": 120
    },
    {
      "midi": 59,
      "hit": false,
      "t": 123752.72417708272,
      "d": 94.86602083331672,
      "v": 94
    },
    {
      "midi": 74,
      "hit": false,
      "t": 123752.72417708272,
      "d": 100.44637499998498,
      "v": 125
    },
    {
      "midi": 45,
      "hit": false,
      "t": 124023.37135416604,
      "d": 1196.9859687499993,
      "v": 113
    },
    {
      "midi": 57,
      "hit": false,
      "t": 124023.37135416604,
      "d": 1236.0484479166626,
      "v": 107
    },
    {
      "midi": 73,
      "hit": false,
      "t": 124023.37135416604,
      "d": 1238.8386249999894,
      "v": 127
    },
    {
      "midi": 69,
      "hit": false,
      "t": 124026.16153124937,
      "d": 1244.4189791666577,
      "v": 113
    },
    {
      "midi": 64,
      "hit": false,
      "t": 125359.86617708269,
      "d": 69.7544270833314,
      "v": 113
    },
    {
      "midi": 69,
      "hit": false,
      "t": 125359.86617708269,
      "d": 72.54460416665825,
      "v": 123
    },
    {
      "midi": 73,
      "hit": false,
      "t": 125359.86617708269,
      "d": 80.91513541665336,
      "v": 127
    },
    {
      "midi": 45,
      "hit": false,
      "t": 125359.86617708269,
      "d": 181.3615104166529,
      "v": 123
    },
    {
      "midi": 64,
      "hit": false,
      "t": 125624.93299999934,
      "d": 315.2900104166474,
      "v": 107
    },
    {
      "midi": 69,
      "hit": false,
      "t": 125624.93299999934,
      "d": 326.45071874998393,
      "v": 123
    },
    {
      "midi": 57,
      "hit": false,
      "t": 125627.72317708266,
      "d": 164.62044791666267,
      "v": 110
    },
    {
      "midi": 73,
      "hit": false,
      "t": 125627.72317708266,
      "d": 323.6605416666571,
      "v": 127
    },
    {
      "midi": 45,
      "hit": false,
      "t": 125895.58017708265,
      "d": 245.53558333333058,
      "v": 125
    },
    {
      "midi": 73,
      "hit": false,
      "t": 126071.36133333265,
      "d": 58.59371874999488,
      "v": 127
    },
    {
      "midi": 69,
      "hit": false,
      "t": 126074.15151041598,
      "d": 66.96425000000454,
      "v": 120
    },
    {
      "midi": 64,
      "hit": false,
      "t": 126163.43717708265,
      "d": 92.07584375000442,
      "v": 113
    },
    {
      "midi": 57,
      "hit": false,
      "t": 126163.43717708265,
      "d": 203.68292708334047,
      "v": 123
    },
    {
      "midi": 74,
      "hit": false,
      "t": 126428.50399999933,
      "d": 75.3347812499851,
      "v": 125
    },
    {
      "midi": 71,
      "hit": false,
      "t": 126431.29417708266,
      "d": 64.17407291666314,
      "v": 123
    },
    {
      "midi": 47,
      "hit": false,
      "t": 126431.29417708266,
      "d": 234.37487499999406,
      "v": 117
    },
    {
      "midi": 59,
      "hit": false,
      "t": 126699.15117708265,
      "d": 175.78115624999919,
      "v": 117
    },
    {
      "midi": 74,
      "hit": false,
      "t": 126699.15117708265,
      "d": 315.29001041666197,
      "v": 125
    },
    {
      "midi": 71,
      "hit": false,
      "t": 126699.15117708265,
      "d": 318.0801874999888,
      "v": 125
    },
    {
      "midi": 47,
      "hit": false,
      "t": 126964.21799999931,
      "d": 382.25426041665196,
      "v": 117
    },
    {
      "midi": 71,
      "hit": false,
      "t": 127142.78933333264,
      "d": 66.96425000000454,
      "v": 123
    },
    {
      "midi": 74,
      "hit": false,
      "t": 127142.78933333264,
      "d": 69.7544270833314,
      "v": 126
    },
    {
      "midi": 69,
      "hit": false,
      "t": 127232.0749999993,
      "d": 108.81690624999464,
      "v": 117
    },
    {
      "midi": 59,
      "hit": false,
      "t": 127232.0749999993,
      "d": 172.99097916665778,
      "v": 123
    },
    {
      "midi": 75,
      "hit": false,
      "t": 127502.72217708263,
      "d": 66.96425000000454,
      "v": 127
    },
    {
      "midi": 72,
      "hit": false,
      "t": 127502.72217708263,
      "d": 72.5446041666728,
      "v": 123
    },
    {
      "midi": 60,
      "hit": false,
      "t": 127502.72217708263,
      "d": 86.49548958333617,
      "v": 113
    },
    {
      "midi": 48,
      "hit": false,
      "t": 127502.72217708263,
      "d": 106.02672916666779,
      "v": 83
    },
    {
      "midi": 60,
      "hit": false,
      "t": 127773.36935416596,
      "d": 80.91513541666791,
      "v": 113
    },
    {
      "midi": 72,
      "hit": false,
      "t": 127773.36935416596,
      "d": 83.70531249999476,
      "v": 120
    },
    {
      "midi": 48,
      "hit": false,
      "t": 127773.36935416596,
      "d": 92.07584374998987,
      "v": 99
    },
    {
      "midi": 75,
      "hit": false,
      "t": 127773.36935416596,
      "d": 92.07584374998987,
      "v": 127
    },
    {
      "midi": 71,
      "hit": false,
      "t": 128038.43617708262,
      "d": 89.28566666666302,
      "v": 120
    },
    {
      "midi": 74,
      "hit": false,
      "t": 128038.43617708262,
      "d": 111.6070833333215,
      "v": 120
    },
    {
      "midi": 47,
      "hit": false,
      "t": 128041.22635416595,
      "d": 86.49548958333617,
      "v": 94
    },
    {
      "midi": 59,
      "hit": false,
      "t": 128041.22635416595,
      "d": 94.86602083333128,
      "v": 101
    },
    {
      "midi": 45,
      "hit": false,
      "t": 128309.08335416594,
      "d": 6671.3134062499885,
      "v": 104
    },
    {
      "midi": 57,
      "hit": false,
      "t": 128309.08335416594,
      "d": 6674.10358333333,
      "v": 101
    },
    {
      "midi": 73,
      "hit": false,
      "t": 128311.87353124926,
      "d": 6662.942875000008,
      "v": 124
    },
    {
      "midi": 81,
      "hit": false,
      "t": 128311.87353124926,
      "d": 6662.942875000008,
      "v": 117
    },
    {
      "midi": 69,
      "hit": false,
      "t": 128311.87353124926,
      "d": 6671.313406250003,
      "v": 110
    },
    {
      "midi": 76,
      "hit": false,
      "t": 128311.87353124926,
      "d": 6682.4741145833395,
      "v": 113
    }
  ]
}