{
  "jsonPath": "Jazz/Jazz Funk/Gerald Albright/if-you-dont-know-me-by-now.json",
  "path": "Jazz\\Jazz Funk\\Gerald Albright\\If You Dont Know Me By Now.mid",
  "name": "If You Dont Know Me By Now",
  "difficulty": "Advanced",
  "bpm": 99.97017556428999,
  "notes": [
    {
      "midi": 60,
      "hit": false,
      "t": 3601.0739999999996,
      "d": 168.80034375000014,
      "v": 88
    },
    {
      "midi": 55,
      "hit": false,
      "t": 3601.0739999999996,
      "d": 200.059666666667,
      "v": 70
    },
    {
      "midi": 64,
      "hit": false,
      "t": 3601.0739999999996,
      "d": 200.059666666667,
      "v": 79
    },
    {
      "midi": 48,
      "hit": false,
      "t": 3601.0739999999996,
      "d": 1606.7291979166666,
      "v": 61
    },
    {
      "midi": 36,
      "hit": false,
      "t": 3601.0739999999996,
      "d": 2894.613302083333,
      "v": 61
    },
    {
      "midi": 60,
      "hit": false,
      "t": 4201.253,
      "d": 125.03729166666653,
      "v": 61
    },
    {
      "midi": 55,
      "hit": false,
      "t": 4201.253,
      "d": 156.2966145833334,
      "v": 61
    },
    {
      "midi": 64,
      "hit": false,
      "t": 4201.253,
      "d": 156.2966145833334,
      "v": 61
    },
    {
      "midi": 60,
      "hit": false,
      "t": 4801.432,
      "d": 87.5261041666663,
      "v": 61
    },
    {
      "midi": 55,
      "hit": false,
      "t": 4801.432,
      "d": 118.78542708333316,
      "v": 57
    },
    {
      "midi": 64,
      "hit": false,
      "t": 4801.432,
      "d": 118.78542708333316,
      "v": 61
    },
    {
      "midi": 43,
      "hit": false,
      "t": 5201.551333333333,
      "d": 250.07458333333398,
      "v": 61
    },
    {
      "midi": 60,
      "hit": false,
      "t": 5401.611,
      "d": 325.09695833333353,
      "v": 88
    },
    {
      "midi": 55,
      "hit": false,
      "t": 5401.611,
      "d": 331.3488229166669,
      "v": 88
    },
    {
      "midi": 64,
      "hit": false,
      "t": 5401.611,
      "d": 331.3488229166669,
      "v": 88
    },
    {
      "midi": 48,
      "hit": false,
      "t": 5401.611,
      "d": 675.2013749999996,
      "v": 61
    },
    {
      "midi": 55,
      "hit": false,
      "t": 6001.79,
      "d": 175.0522083333326,
      "v": 70
    },
    {
      "midi": 60,
      "hit": false,
      "t": 6001.79,
      "d": 218.8152604166662,
      "v": 88
    },
    {
      "midi": 64,
      "hit": false,
      "t": 6001.79,
      "d": 225.06712499999958,
      "v": 79
    },
    {
      "midi": 67,
      "hit": false,
      "t": 6001.79,
      "d": 243.8227187499997,
      "v": 88
    },
    {
      "midi": 48,
      "hit": false,
      "t": 6401.909333333333,
      "d": 250.07458333333307,
      "v": 53
    },
    {
      "midi": 69,
      "hit": false,
      "t": 6601.968999999999,
      "d": 68.7705104166671,
      "v": 79
    },
    {
      "midi": 47,
      "hit": false,
      "t": 7002.088333333333,
      "d": 100.02983333333304,
      "v": 61
    },
    {
      "midi": 55,
      "hit": false,
      "t": 7202.148,
      "d": 268.8301770833332,
      "v": 61
    },
    {
      "midi": 59,
      "hit": false,
      "t": 7202.148,
      "d": 275.08204166666656,
      "v": 70
    },
    {
      "midi": 62,
      "hit": false,
      "t": 7202.148,
      "d": 743.9718854166667,
      "v": 70
    },
    {
      "midi": 64,
      "hit": false,
      "t": 7202.148,
      "d": 743.9718854166667,
      "v": 70
    },
    {
      "midi": 67,
      "hit": false,
      "t": 7202.148,
      "d": 800.2386666666671,
      "v": 70
    },
    {
      "midi": 40,
      "hit": false,
      "t": 7202.148,
      "d": 3038.4061875000016,
      "v": 61
    },
    {
      "midi": 55,
      "hit": false,
      "t": 7802.327,
      "d": 118.78542708333316,
      "v": 53
    },
    {
      "midi": 59,
      "hit": false,
      "t": 7802.327,
      "d": 118.78542708333316,
      "v": 53
    },
    {
      "midi": 47,
      "hit": false,
      "t": 8202.446333333333,
      "d": 243.8227187499997,
      "v": 45
    },
    {
      "midi": 62,
      "hit": false,
      "t": 8402.506,
      "d": 56.26678125000035,
      "v": 45
    },
    {
      "midi": 71,
      "hit": false,
      "t": 8402.506,
      "d": 68.7705104166671,
      "v": 53
    },
    {
      "midi": 67,
      "hit": false,
      "t": 8402.506,
      "d": 75.02237500000047,
      "v": 37
    },
    {
      "midi": 52,
      "hit": false,
      "t": 8402.506,
      "d": 656.4457812500023,
      "v": 29
    },
    {
      "midi": 64,
      "hit": false,
      "t": 8802.625333333333,
      "d": 100.02983333333395,
      "v": 88
    },
    {
      "midi": 69,
      "hit": false,
      "t": 8802.625333333333,
      "d": 181.3040729166678,
      "v": 97
    },
    {
      "midi": 72,
      "hit": false,
      "t": 8802.625333333333,
      "d": 225.0671250000014,
      "v": 88
    },
    {
      "midi": 67,
      "hit": false,
      "t": 9002.685000000001,
      "d": 387.61560416666725,
      "v": 57
    },
    {
      "midi": 62,
      "hit": false,
      "t": 9002.685000000001,
      "d": 400.119333333334,
      "v": 53
    },
    {
      "midi": 71,
      "hit": false,
      "t": 9002.685000000001,
      "d": 400.119333333334,
      "v": 70
    },
    {
      "midi": 47,
      "hit": false,
      "t": 9402.804333333335,
      "d": 268.8301770833332,
      "v": 49
    },
    {
      "midi": 52,
      "hit": false,
      "t": 9602.864000000001,
      "d": 6.251864583333372,
      "v": 13
    },
    {
      "midi": 71,
      "hit": false,
      "t": 9602.864000000001,
      "d": 31.25932291666686,
      "v": 61
    },
    {
      "midi": 67,
      "hit": false,
      "t": 9602.864000000001,
      "d": 212.56339583333465,
      "v": 70
    },
    {
      "midi": 62,
      "hit": false,
      "t": 9602.864000000001,
      "d": 225.0671250000014,
      "v": 70
    },
    {
      "midi": 74,
      "hit": false,
      "t": 9602.864000000001,
      "d": 575.1715416666666,
      "v": 79
    },
    {
      "midi": 52,
      "hit": false,
      "t": 10002.983333333335,
      "d": 268.8301770833332,
      "v": 49
    },
    {
      "midi": 67,
      "hit": false,
      "t": 10203.043000000001,
      "d": 56.26678125000035,
      "v": 70
    },
    {
      "midi": 62,
      "hit": false,
      "t": 10203.043000000001,
      "d": 75.02237500000047,
      "v": 70
    },
    {
      "midi": 71,
      "hit": false,
      "t": 10203.043000000001,
      "d": 75.02237500000047,
      "v": 79
    },
    {
      "midi": 40,
      "hit": false,
      "t": 10603.162333333335,
      "d": 81.27423958333384,
      "v": 70
    },
    {
      "midi": 62,
      "hit": false,
      "t": 10803.222000000003,
      "d": 256.32644791666644,
      "v": 79
    },
    {
      "midi": 67,
      "hit": false,
      "t": 10803.222000000003,
      "d": 343.85255208333365,
      "v": 88
    },
    {
      "midi": 71,
      "hit": false,
      "t": 10803.222000000003,
      "d": 400.119333333334,
      "v": 79
    },
    {
      "midi": 41,
      "hit": false,
      "t": 10803.222000000003,
      "d": 3013.3987291666745,
      "v": 61
    },
    {
      "midi": 65,
      "hit": false,
      "t": 11203.341333333337,
      "d": 68.7705104166671,
      "v": 57
    },
    {
      "midi": 60,
      "hit": false,
      "t": 11203.341333333337,
      "d": 75.02237500000047,
      "v": 57
    },
    {
      "midi": 69,
      "hit": false,
      "t": 11203.341333333337,
      "d": 81.27423958333384,
      "v": 45
    },
    {
      "midi": 65,
      "hit": false,
      "t": 11403.401000000005,
      "d": 43.763052083333605,
      "v": 67
    },
    {
      "midi": 60,
      "hit": false,
      "t": 11403.401000000005,
      "d": 50.01491666666698,
      "v": 63
    },
    {
      "midi": 69,
      "hit": false,
      "t": 11403.401000000005,
      "d": 50.01491666666698,
      "v": 80
    },
    {
      "midi": 65,
      "hit": false,
      "t": 11803.52033333334,
      "d": 43.763052083333605,
      "v": 80
    },
    {
      "midi": 60,
      "hit": false,
      "t": 11803.52033333334,
      "d": 62.51864583333372,
      "v": 67
    },
    {
      "midi": 69,
      "hit": false,
      "t": 11803.52033333334,
      "d": 62.51864583333372,
      "v": 80
    },
    {
      "midi": 60,
      "hit": false,
      "t": 12003.580000000007,
      "d": 268.8301770833332,
      "v": 80
    },
    {
      "midi": 69,
      "hit": false,
      "t": 12003.580000000007,
      "d": 343.85255208333365,
      "v": 80
    },
    {
      "midi": 65,
      "hit": false,
      "t": 12003.580000000007,
      "d": 362.60814583333377,
      "v": 89
    },
    {
      "midi": 53,
      "hit": false,
      "t": 12003.580000000007,
      "d": 1594.2254687500044,
      "v": 51
    },
    {
      "midi": 67,
      "hit": false,
      "t": 12403.699333333341,
      "d": 43.763052083333605,
      "v": 71
    },
    {
      "midi": 71,
      "hit": false,
      "t": 12403.699333333341,
      "d": 50.01491666666698,
      "v": 67
    },
    {
      "midi": 62,
      "hit": false,
      "t": 12403.699333333341,
      "d": 62.51864583333372,
      "v": 67
    },
    {
      "midi": 62,
      "hit": false,
      "t": 12603.75900000001,
      "d": 287.5857708333333,
      "v": 89
    },
    {
      "midi": 67,
      "hit": false,
      "t": 12603.75900000001,
      "d": 375.1118750000005,
      "v": 107
    },
    {
      "midi": 71,
      "hit": false,
      "t": 12603.75900000001,
      "d": 393.8674687500006,
      "v": 98
    },
    {
      "midi": 65,
      "hit": false,
      "t": 13003.878333333343,
      "d": 50.01491666666698,
      "v": 59
    },
    {
      "midi": 60,
      "hit": false,
      "t": 13003.878333333343,
      "d": 56.26678125000035,
      "v": 47
    },
    {
      "midi": 69,
      "hit": false,
      "t": 13003.878333333343,
      "d": 62.51864583333372,
      "v": 67
    },
    {
      "midi": 60,
      "hit": false,
      "t": 13203.938000000011,
      "d": 662.6976458333338,
      "v": 80
    },
    {
      "midi": 65,
      "hit": false,
      "t": 13203.938000000011,
      "d": 775.2312083333345,
      "v": 98
    },
    {
      "midi": 69,
      "hit": false,
      "t": 13203.938000000011,
      "d": 781.4830729166679,
      "v": 89
    },
    {
      "midi": 48,
      "hit": false,
      "t": 13604.057333333345,
      "d": 256.32644791666644,
      "v": 71
    },
    {
      "midi": 53,
      "hit": false,
      "t": 13804.117000000011,
      "d": 125.03729166666744,
      "v": 71
    },
    {
      "midi": 60,
      "hit": false,
      "t": 14004.176666666679,
      "d": 68.7705104166671,
      "v": 71
    },
    {
      "midi": 53,
      "hit": false,
      "t": 14204.236333333347,
      "d": 62.51864583333372,
      "v": 71
    },
    {
      "midi": 56,
      "hit": false,
      "t": 14404.296000000015,
      "d": 356.3562812500004,
      "v": 98
    },
    {
      "midi": 41,
      "hit": false,
      "t": 14404.296000000015,
      "d": 687.7051041666673,
      "v": 80
    },
    {
      "midi": 59,
      "hit": false,
      "t": 14404.296000000015,
      "d": 731.4681562500009,
      "v": 98
    },
    {
      "midi": 62,
      "hit": false,
      "t": 14404.296000000015,
      "d": 775.2312083333345,
      "v": 98
    },
    {
      "midi": 65,
      "hit": false,
      "t": 14404.296000000015,
      "d": 793.9868020833346,
      "v": 89
    },
    {
      "midi": 56,
      "hit": false,
      "t": 15004.475000000015,
      "d": 181.3040729166678,
      "v": 43
    },
    {
      "midi": 41,
      "hit": false,
      "t": 15404.594333333349,
      "d": 93.77796875000058,
      "v": 71
    },
    {
      "midi": 41,
      "hit": false,
      "t": 15604.654000000017,
      "d": 62.51864583333372,
      "v": 67
    },
    {
      "midi": 67,
      "hit": false,
      "t": 15604.654000000017,
      "d": 200.0596666666679,
      "v": 80
    },
    {
      "midi": 65,
      "hit": false,
      "t": 15804.713666666685,
      "d": 168.80034374999923,
      "v": 89
    },
    {
      "midi": 64,
      "hit": false,
      "t": 16004.77333333335,
      "d": 50.01491666666698,
      "v": 71
    },
    {
      "midi": 60,
      "hit": false,
      "t": 16204.833000000019,
      "d": 31.25932291666686,
      "v": 71
    },
    {
      "midi": 59,
      "hit": false,
      "t": 16204.833000000019,
      "d": 337.6006875000003,
      "v": 89
    },
    {
      "midi": 62,
      "hit": false,
      "t": 16204.833000000019,
      "d": 356.3562812500004,
      "v": 98
    },
    {
      "midi": 56,
      "hit": false,
      "t": 16204.833000000019,
      "d": 387.61560416666725,
      "v": 89
    },
    {
      "midi": 65,
      "hit": false,
      "t": 16204.833000000019,
      "d": 612.6827291666687,
      "v": 98
    },
    {
      "midi": 35,
      "hit": false,
      "t": 16204.833000000019,
      "d": 1256.624781250006,
      "v": 80
    },
    {
      "midi": 53,
      "hit": false,
      "t": 16805.01200000002,
      "d": 150.04475000000093,
      "v": 80
    },
    {
      "midi": 59,
      "hit": false,
      "t": 16805.01200000002,
      "d": 156.2966145833343,
      "v": 80
    },
    {
      "midi": 56,
      "hit": false,
      "t": 16805.01200000002,
      "d": 175.05220833333442,
      "v": 80
    },
    {
      "midi": 62,
      "hit": false,
      "t": 16805.01200000002,
      "d": 187.55593750000116,
      "v": 63
    },
    {
      "midi": 47,
      "hit": false,
      "t": 17205.131333333356,
      "d": 293.8376354166685,
      "v": 80
    },
    {
      "midi": 59,
      "hit": false,
      "t": 17405.191000000024,
      "d": 262.57831250000163,
      "v": 98
    },
    {
      "midi": 62,
      "hit": false,
      "t": 17405.191000000024,
      "d": 287.5857708333351,
      "v": 89
    },
    {
      "midi": 53,
      "hit": false,
      "t": 17405.191000000024,
      "d": 293.8376354166685,
      "v": 80
    },
    {
      "midi": 56,
      "hit": false,
      "t": 17405.191000000024,
      "d": 306.34136458333523,
      "v": 80
    },
    {
      "midi": 65,
      "hit": false,
      "t": 17405.191000000024,
      "d": 637.690187500004,
      "v": 98
    },
    {
      "midi": 35,
      "hit": false,
      "t": 17805.31033333336,
      "d": 87.52610416666721,
      "v": 89
    },
    {
      "midi": 60,
      "hit": false,
      "t": 18005.370000000028,
      "d": 131.28915625000081,
      "v": 70
    },
    {
      "midi": 55,
      "hit": false,
      "t": 18005.370000000028,
      "d": 143.79288541666756,
      "v": 61
    },
    {
      "midi": 64,
      "hit": false,
      "t": 18005.370000000028,
      "d": 143.79288541666756,
      "v": 79
    },
    {
      "midi": 36,
      "hit": false,
      "t": 18005.370000000028,
      "d": 2900.8651666666738,
      "v": 79
    },
    {
      "midi": 60,
      "hit": false,
      "t": 18605.549000000028,
      "d": 68.7705104166671,
      "v": 57
    },
    {
      "midi": 55,
      "hit": false,
      "t": 18605.549000000028,
      "d": 93.77796875000058,
      "v": 49
    },
    {
      "midi": 64,
      "hit": false,
      "t": 18605.549000000028,
      "d": 93.77796875000058,
      "v": 57
    },
    {
      "midi": 60,
      "hit": false,
      "t": 19205.72800000003,
      "d": 68.7705104166671,
      "v": 57
    },
    {
      "midi": 64,
      "hit": false,
      "t": 19205.72800000003,
      "d": 87.52610416666721,
      "v": 57
    },
    {
      "midi": 55,
      "hit": false,
      "t": 19205.72800000003,
      "d": 93.77796875000058,
      "v": 53
    },
    {
      "midi": 43,
      "hit": false,
      "t": 19605.84733333336,
      "d": 231.31898958333477,
      "v": 61
    },
    {
      "midi": 64,
      "hit": false,
      "t": 19805.90700000003,
      "d": 381.3637395833357,
      "v": 88
    },
    {
      "midi": 60,
      "hit": false,
      "t": 19805.90700000003,
      "d": 387.6156041666691,
      "v": 88
    },
    {
      "midi": 55,
      "hit": false,
      "t": 19805.90700000003,
      "d": 400.1193333333358,
      "v": 79
    },
    {
      "midi": 48,
      "hit": false,
      "t": 19805.90700000003,
      "d": 637.690187500004,
      "v": 70
    },
    {
      "midi": 60,
      "hit": false,
      "t": 20406.086000000032,
      "d": 181.3040729166678,
      "v": 70
    },
    {
      "midi": 64,
      "hit": false,
      "t": 20406.086000000032,
      "d": 181.3040729166678,
      "v": 79
    },
    {
      "midi": 55,
      "hit": false,
      "t": 20406.086000000032,
      "d": 187.55593750000116,
      "v": 70
    },
    {
      "midi": 67,
      "hit": false,
      "t": 20406.086000000032,
      "d": 225.0671250000014,
      "v": 79
    },
    {
      "midi": 48,
      "hit": false,
      "t": 20806.205333333368,
      "d": 293.8376354166685,
      "v": 61
    },
    {
      "midi": 69,
      "hit": false,
      "t": 21006.265000000036,
      "d": 68.7705104166671,
      "v": 97
    },
    {
      "midi": 39,
      "hit": false,
      "t": 21406.384333333368,
      "d": 118.78542708333407,
      "v": 70
    },
    {
      "midi": 59,
      "hit": false,
      "t": 21606.444000000036,
      "d": 312.59322916666497,
      "v": 70
    },
    {
      "midi": 55,
      "hit": false,
      "t": 21606.444000000036,
      "d": 350.1044166666652,
      "v": 61
    },
    {
      "midi": 64,
      "hit": false,
      "t": 21606.444000000036,
      "d": 756.4756145833344,
      "v": 70
    },
    {
      "midi": 67,
      "hit": false,
      "t": 21606.444000000036,
      "d": 781.4830729166679,
      "v": 70
    },
    {
      "midi": 40,
      "hit": false,
      "t": 21606.444000000036,
      "d": 2944.6282187500146,
      "v": 70
    },
    {
      "midi": 55,
      "hit": false,
      "t": 22206.623000000036,
      "d": 125.03729166666744,
      "v": 49
    },
    {
      "midi": 59,
      "hit": false,
      "t": 22206.623000000036,
      "d": 131.28915625000081,
      "v": 49
    },
    {
      "midi": 47,
      "hit": false,
      "t": 22606.74233333337,
      "d": 256.32644791666826,
      "v": 49
    },
    {
      "midi": 71,
      "hit": false,
      "t": 22806.80200000004,
      "d": 50.01491666666698,
      "v": 57
    },
    {
      "midi": 62,
      "hit": false,
      "t": 22806.80200000004,
      "d": 56.26678125000035,
      "v": 49
    },
    {
      "midi": 67,
      "hit": false,
      "t": 22806.80200000004,
      "d": 62.51864583333372,
      "v": 45
    },
    {
      "midi": 52,
      "hit": false,
      "t": 22806.80200000004,
      "d": 106.28169791666733,
      "v": 37
    },
    {
      "midi": 64,
      "hit": false,
      "t": 23206.921333333376,
      "d": 93.77796875000058,
      "v": 88
    },
    {
      "midi": 69,
      "hit": false,
      "t": 23206.921333333376,
      "d": 175.05220833333442,
      "v": 88
    },
    {
      "midi": 72,
      "hit": false,
      "t": 23206.921333333376,
      "d": 243.8227187500015,
      "v": 88
    },
    {
      "midi": 52,
      "hit": false,
      "t": 23406.981000000043,
      "d": 356.3562812500022,
      "v": 37
    },
    {
      "midi": 71,
      "hit": false,
      "t": 23406.981000000043,
      "d": 393.86746875000244,
      "v": 61
    },
    {
      "midi": 67,
      "hit": false,
      "t": 23406.981000000043,
      "d": 400.1193333333358,
      "v": 53
    },
    {
      "midi": 62,
      "hit": false,
      "t": 23406.981000000043,
      "d": 412.62306250000256,
      "v": 53
    },
    {
      "midi": 47,
      "hit": false,
      "t": 23807.10033333338,
      "d": 237.57085416666814,
      "v": 45
    },
    {
      "midi": 71,
      "hit": false,
      "t": 24007.160000000047,
      "d": 143.79288541666756,
      "v": 70
    },
    {
      "midi": 52,
      "hit": false,
      "t": 24007.160000000047,
      "d": 162.54847916666768,
      "v": 41
    },
    {
      "midi": 67,
      "hit": false,
      "t": 24007.160000000047,
      "d": 200.0596666666679,
      "v": 79
    },
    {
      "midi": 62,
      "hit": false,
      "t": 24007.160000000047,
      "d": 206.31153125000128,
      "v": 61
    },
    {
      "midi": 74,
      "hit": false,
      "t": 24007.160000000047,
      "d": 568.9196770833369,
      "v": 97
    },
    {
      "midi": 52,
      "hit": false,
      "t": 24407.279333333383,
      "d": 175.05220833333442,
      "v": 45
    },
    {
      "midi": 62,
      "hit": false,
      "t": 24607.33900000005,
      "d": 68.7705104166671,
      "v": 79
    },
    {
      "midi": 67,
      "hit": false,
      "t": 24607.33900000005,
      "d": 68.7705104166671,
      "v": 88
    },
    {
      "midi": 71,
      "hit": false,
      "t": 24607.33900000005,
      "d": 75.02237500000047,
      "v": 79
    },
    {
      "midi": 40,
      "hit": false,
      "t": 25007.458333333383,
      "d": 87.52610416666721,
      "v": 70
    },
    {
      "midi": 62,
      "hit": false,
      "t": 25207.51800000005,
      "d": 256.32644791666826,
      "v": 97
    },
    {
      "midi": 67,
      "hit": false,
      "t": 25207.51800000005,
      "d": 387.6156041666691,
      "v": 88
    },
    {
      "midi": 71,
      "hit": false,
      "t": 25207.51800000005,
      "d": 437.63052083333605,
      "v": 88
    },
    {
      "midi": 41,
      "hit": false,
      "t": 25207.51800000005,
      "d": 2994.6431354166707,
      "v": 70
    },
    {
      "midi": 60,
      "hit": false,
      "t": 25607.637333333387,
      "d": 62.51864583333372,
      "v": 25
    },
    {
      "midi": 65,
      "hit": false,
      "t": 25607.637333333387,
      "d": 75.02237500000047,
      "v": 49
    },
    {
      "midi": 69,
      "hit": false,
      "t": 25607.637333333387,
      "d": 93.77796875000058,
      "v": 57
    },
    {
      "midi": 65,
      "hit": false,
      "t": 25807.697000000055,
      "d": 43.763052083333605,
      "v": 57
    },
    {
      "midi": 60,
      "hit": false,
      "t": 25807.697000000055,
      "d": 50.01491666666698,
      "v": 41
    },
    {
      "midi": 69,
      "hit": false,
      "t": 25807.697000000055,
      "d": 50.01491666666698,
      "v": 57
    },
    {
      "midi": 69,
      "hit": false,
      "t": 26207.816333333387,
      "d": 56.26678125000035,
      "v": 49
    },
    {
      "midi": 65,
      "hit": false,
      "t": 26207.816333333387,
      "d": 62.51864583333372,
      "v": 53
    },
    {
      "midi": 60,
      "hit": false,
      "t": 26207.816333333387,
      "d": 75.02237500000047,
      "v": 45
    },
    {
      "midi": 60,
      "hit": false,
      "t": 26407.876000000055,
      "d": 300.0894999999982,
      "v": 70
    },
    {
      "midi": 69,
      "hit": false,
      "t": 26407.876000000055,
      "d": 343.85255208333183,
      "v": 70
    },
    {
      "midi": 65,
      "hit": false,
      "t": 26407.876000000055,
      "d": 375.1118749999987,
      "v": 70
    },
    {
      "midi": 62,
      "hit": false,
      "t": 26807.995333333387,
      "d": 50.01491666666698,
      "v": 49
    },
    {
      "midi": 67,
      "hit": false,
      "t": 26807.995333333387,
      "d": 50.01491666666698,
      "v": 61
    },
    {
      "midi": 71,
      "hit": false,
      "t": 26807.995333333387,
      "d": 62.51864583333372,
      "v": 57
    },
    {
      "midi": 62,
      "hit": false,
      "t": 27008.055000000055,
      "d": 312.59322916666497,
      "v": 79
    },
    {
      "midi": 67,
      "hit": false,
      "t": 27008.055000000055,
      "d": 387.61560416666543,
      "v": 97
    },
    {
      "midi": 71,
      "hit": false,
      "t": 27008.055000000055,
      "d": 418.8749270833323,
      "v": 97
    },
    {
      "midi": 53,
      "hit": false,
      "t": 27008.055000000055,
      "d": 994.0464687499989,
      "v": 49
    },
    {
      "midi": 60,
      "hit": false,
      "t": 27408.174333333387,
      "d": 50.01491666666698,
      "v": 29
    },
    {
      "midi": 69,
      "hit": false,
      "t": 27408.174333333387,
      "d": 87.52610416666721,
      "v": 61
    },
    {
      "midi": 65,
      "hit": false,
      "t": 27408.174333333387,
      "d": 100.02983333333395,
      "v": 70
    },
    {
      "midi": 60,
      "hit": false,
      "t": 27608.234000000055,
      "d": 637.6901875000003,
      "v": 70
    },
    {
      "midi": 65,
      "hit": false,
      "t": 27608.234000000055,
      "d": 775.2312083333345,
      "v": 79
    },
    {
      "midi": 69,
      "hit": false,
      "t": 27608.234000000055,
      "d": 775.2312083333345,
      "v": 79
    },
    {
      "midi": 48,
      "hit": false,
      "t": 28008.353333333387,
      "d": 231.31898958333477,
      "v": 53
    },
    {
      "midi": 53,
      "hit": false,
      "t": 28208.413000000055,
      "d": 112.5335625000007,
      "v": 57
    },
    {
      "midi": 60,
      "hit": false,
      "t": 28408.472666666723,
      "d": 75.02237500000047,
      "v": 53
    },
    {
      "midi": 53,
      "hit": false,
      "t": 28608.53233333339,
      "d": 62.51864583333372,
      "v": 61
    },
    {
      "midi": 56,
      "hit": false,
      "t": 28808.59200000006,
      "d": 300.08950000000186,
      "v": 79
    },
    {
      "midi": 41,
      "hit": false,
      "t": 28808.59200000006,
      "d": 587.675270833337,
      "v": 61
    },
    {
      "midi": 62,
      "hit": false,
      "t": 28808.59200000006,
      "d": 712.7125625000044,
      "v": 79
    },
    {
      "midi": 59,
      "hit": false,
      "t": 28808.59200000006,
      "d": 731.4681562500045,
      "v": 88
    },
    {
      "midi": 65,
      "hit": false,
      "t": 28808.59200000006,
      "d": 737.7200208333379,
      "v": 88
    },
    {
      "midi": 56,
      "hit": false,
      "t": 29408.771000000062,
      "d": 193.80780208333454,
      "v": 49
    },
    {
      "midi": 41,
      "hit": false,
      "t": 29808.8903333334,
      "d": 81.27423958333384,
      "v": 61
    },
    {
      "midi": 67,
      "hit": false,
      "t": 30008.950000000066,
      "d": 212.56339583333465,
      "v": 79
    },
    {
      "midi": 65,
      "hit": false,
      "t": 30209.009666666734,
      "d": 156.2966145833343,
      "v": 70
    },
    {
      "midi": 64,
      "hit": false,
      "t": 30409.069333333402,
      "d": 56.26678125000035,
      "v": 70
    },
    {
      "midi": 59,
      "hit": false,
      "t": 30609.12900000007,
      "d": 406.37119791666555,
      "v": 88
    },
    {
      "midi": 56,
      "hit": false,
      "t": 30609.12900000007,
      "d": 425.12679166666567,
      "v": 79
    },
    {
      "midi": 65,
      "hit": false,
      "t": 30609.12900000007,
      "d": 650.1939166666671,
      "v": 88
    },
    {
      "midi": 62,
      "hit": false,
      "t": 30609.12900000007,
      "d": 831.4979895833349,
      "v": 88
    },
    {
      "midi": 35,
      "hit": false,
      "t": 30609.12900000007,
      "d": 1212.8617291666706,
      "v": 57
    },
    {
      "midi": 56,
      "hit": false,
      "t": 31209.30800000007,
      "d": 243.8227187500015,
      "v": 49
    },
    {
      "midi": 59,
      "hit": false,
      "t": 31209.30800000007,
      "d": 243.8227187500015,
      "v": 61
    },
    {
      "midi": 53,
      "hit": false,
      "t": 31209.30800000007,
      "d": 250.07458333333489,
      "v": 53
    },
    {
      "midi": 47,
      "hit": false,
      "t": 31609.427333333406,
      "d": 268.830177083335,
      "v": 61
    },
    {
      "midi": 59,
      "hit": false,
      "t": 31809.487000000074,
      "d": 293.8376354166685,
      "v": 79
    },
    {
      "midi": 62,
      "hit": false,
      "t": 31809.487000000074,
      "d": 318.845093750002,
      "v": 70
    },
    {
      "midi": 53,
      "hit": false,
      "t": 31809.487000000074,
      "d": 331.3488229166687,
      "v": 70
    },
    {
      "midi": 56,
      "hit": false,
      "t": 31809.487000000074,
      "d": 331.3488229166687,
      "v": 61
    },
    {
      "midi": 65,
      "hit": false,
      "t": 31809.487000000074,
      "d": 631.4383229166706,
      "v": 79
    },
    {
      "midi": 35,
      "hit": false,
      "t": 32209.60633333341,
      "d": 93.77796875000058,
      "v": 79
    },
    {
      "midi": 64,
      "hit": false,
      "t": 32409.666000000077,
      "d": 125.03729166666744,
      "v": 61
    },
    {
      "midi": 55,
      "hit": false,
      "t": 32409.666000000077,
      "d": 131.28915625000081,
      "v": 57
    },
    {
      "midi": 60,
      "hit": false,
      "t": 32409.666000000077,
      "d": 131.28915625000081,
      "v": 79
    },
    {
      "midi": 36,
      "hit": false,
      "t": 32409.666000000077,
      "d": 2763.3241458333505,
      "v": 79
    },
    {
      "midi": 60,
      "hit": false,
      "t": 33009.84500000008,
      "d": 81.27423958333384,
      "v": 57
    },
    {
      "midi": 55,
      "hit": false,
      "t": 33009.84500000008,
      "d": 93.77796875000058,
      "v": 53
    },
    {
      "midi": 64,
      "hit": false,
      "t": 33009.84500000008,
      "d": 93.77796875000058,
      "v": 57
    },
    {
      "midi": 60,
      "hit": false,
      "t": 33610.024000000085,
      "d": 62.51864583333372,
      "v": 57
    },
    {
      "midi": 64,
      "hit": false,
      "t": 33610.024000000085,
      "d": 75.02237500000047,
      "v": 61
    },
    {
      "midi": 55,
      "hit": false,
      "t": 33610.024000000085,
      "d": 81.27423958333384,
      "v": 53
    },
    {
      "midi": 43,
      "hit": false,
      "t": 34010.14333333342,
      "d": 212.56339583333465,
      "v": 70
    },
    {
      "midi": 60,
      "hit": false,
      "t": 34210.20300000009,
      "d": 81.27423958333384,
      "v": 70
    },
    {
      "midi": 55,
      "hit": false,
      "t": 34210.20300000009,
      "d": 118.78542708333407,
      "v": 70
    },
    {
      "midi": 64,
      "hit": false,
      "t": 34210.20300000009,
      "d": 118.78542708333407,
      "v": 79
    },
    {
      "midi": 48,
      "hit": false,
      "t": 34210.20300000009,
      "d": 1000.2983333333395,
      "v": 61
    },
    {
      "midi": 60,
      "hit": false,
      "t": 34810.38200000009,
      "d": 68.7705104166671,
      "v": 79
    },
    {
      "midi": 64,
      "hit": false,
      "t": 34810.38200000009,
      "d": 68.7705104166671,
      "v": 70
    },
    {
      "midi": 55,
      "hit": false,
      "t": 34810.38200000009,
      "d": 93.77796875000058,
      "v": 70
    },
    {
      "midi": 43,
      "hit": false,
      "t": 35210.50133333343,
      "d": 225.0671250000014,
      "v": 70
    },
    {
      "midi": 36,
      "hit": false,
      "t": 35410.561000000096,
      "d": 200.0596666666679,
      "v": 70
    },
    {
      "midi": 55,
      "hit": false,
      "t": 35410.561000000096,
      "d": 225.0671250000014,
      "v": 88
    },
    {
      "midi": 64,
      "hit": false,
      "t": 35410.561000000096,
      "d": 637.690187500004,
      "v": 88
    },
    {
      "midi": 57,
      "hit": false,
      "t": 35610.620666666764,
      "d": 187.55593750000116,
      "v": 79
    },
    {
      "midi": 38,
      "hit": false,
      "t": 35610.620666666764,
      "d": 218.81526041666802,
      "v": 70
    },
    {
      "midi": 58,
      "hit": false,
      "t": 35810.68033333343,
      "d": 206.31153125000128,
      "v": 70
    },
    {
      "midi": 39,
      "hit": false,
      "t": 35810.68033333343,
      "d": 212.56339583333465,
      "v": 88
    },
    {
      "midi": 55,
      "hit": false,
      "t": 36010.7400000001,
      "d": 181.3040729166678,
      "v": 70
    },
    {
      "midi": 59,
      "hit": false,
      "t": 36010.7400000001,
      "d": 181.3040729166678,
      "v": 70
    },
    {
      "midi": 62,
      "hit": false,
      "t": 36010.7400000001,
      "d": 1381.6620729166752,
      "v": 61
    },
    {
      "midi": 40,
      "hit": false,
      "t": 36010.7400000001,
      "d": 3000.8950000000186,
      "v": 61
    },
    {
      "midi": 59,
      "hit": false,
      "t": 36610.9190000001,
      "d": 62.51864583333372,
      "v": 61
    },
    {
      "midi": 55,
      "hit": false,
      "t": 36610.9190000001,
      "d": 81.27423958333384,
      "v": 57
    },
    {
      "midi": 55,
      "hit": false,
      "t": 37211.09800000011,
      "d": 156.2966145833343,
      "v": 53
    },
    {
      "midi": 59,
      "hit": false,
      "t": 37211.09800000011,
      "d": 156.2966145833343,
      "v": 70
    },
    {
      "midi": 47,
      "hit": false,
      "t": 37611.21733333344,
      "d": 231.31898958333477,
      "v": 61
    },
    {
      "midi": 62,
      "hit": false,
      "t": 37811.27700000011,
      "d": 262.57831250000163,
      "v": 79
    },
    {
      "midi": 71,
      "hit": false,
      "t": 37811.27700000011,
      "d": 337.6006875000021,
      "v": 88
    },
    {
      "midi": 67,
      "hit": false,
      "t": 37811.27700000011,
      "d": 381.3637395833357,
      "v": 61
    },
    {
      "midi": 52,
      "hit": false,
      "t": 37811.27700000011,
      "d": 950.2834166666726,
      "v": 70
    },
    {
      "midi": 64,
      "hit": false,
      "t": 38211.39633333345,
      "d": 118.78542708333407,
      "v": 70
    },
    {
      "midi": 69,
      "hit": false,
      "t": 38211.39633333345,
      "d": 181.3040729166678,
      "v": 79
    },
    {
      "midi": 72,
      "hit": false,
      "t": 38211.39633333345,
      "d": 206.31153125000128,
      "v": 70
    },
    {
      "midi": 71,
      "hit": false,
      "t": 38411.456000000115,
      "d": 331.3488229166687,
      "v": 70
    },
    {
      "midi": 67,
      "hit": false,
      "t": 38411.456000000115,
      "d": 337.6006875000021,
      "v": 88
    },
    {
      "midi": 62,
      "hit": false,
      "t": 38411.456000000115,
      "d": 375.1118750000023,
      "v": 79
    },
    {
      "midi": 47,
      "hit": false,
      "t": 38811.57533333345,
      "d": 256.32644791666826,
      "v": 57
    },
    {
      "midi": 52,
      "hit": false,
      "t": 39011.63500000012,
      "d": 56.26678125000035,
      "v": 57
    },
    {
      "midi": 74,
      "hit": false,
      "t": 39011.63500000012,
      "d": 268.830177083335,
      "v": 88
    },
    {
      "midi": 67,
      "hit": false,
      "t": 39011.63500000012,
      "d": 281.33390625000175,
      "v": 88
    },
    {
      "midi": 71,
      "hit": false,
      "t": 39011.63500000012,
      "d": 281.33390625000175,
      "v": 88
    },
    {
      "midi": 62,
      "hit": false,
      "t": 39011.63500000012,
      "d": 318.845093750002,
      "v": 79
    },
    {
      "midi": 40,
      "hit": false,
      "t": 39411.754333333454,
      "d": 93.77796875000058,
      "v": 70
    },
    {
      "midi": 65,
      "hit": false,
      "t": 39611.81400000012,
      "d": 193.80780208333454,
      "v": 79
    },
    {
      "midi": 69,
      "hit": false,
      "t": 39611.81400000012,
      "d": 200.0596666666679,
      "v": 79
    },
    {
      "midi": 60,
      "hit": false,
      "t": 39611.81400000012,
      "d": 206.31153125000128,
      "v": 70
    },
    {
      "midi": 72,
      "hit": false,
      "t": 39611.81400000012,
      "d": 1838.0481875000114,
      "v": 88
    },
    {
      "midi": 41,
      "hit": false,
      "t": 39611.81400000012,
      "d": 3013.3987291666854,
      "v": 70
    },
    {
      "midi": 60,
      "hit": false,
      "t": 40211.993000000126,
      "d": 68.7705104166671,
      "v": 53
    },
    {
      "midi": 65,
      "hit": false,
      "t": 40211.993000000126,
      "d": 75.02237500000047,
      "v": 53
    },
    {
      "midi": 69,
      "hit": false,
      "t": 40211.993000000126,
      "d": 87.52610416666721,
      "v": 53
    },
    {
      "midi": 65,
      "hit": false,
      "t": 40812.17200000013,
      "d": 56.26678125000035,
      "v": 57
    },
    {
      "midi": 60,
      "hit": false,
      "t": 40812.17200000013,
      "d": 75.02237500000047,
      "v": 61
    },
    {
      "midi": 69,
      "hit": false,
      "t": 40812.17200000013,
      "d": 75.02237500000047,
      "v": 57
    },
    {
      "midi": 48,
      "hit": false,
      "t": 41212.291333333465,
      "d": 793.9868020833383,
      "v": 61
    },
    {
      "midi": 60,
      "hit": false,
      "t": 41412.35100000013,
      "d": 187.55593750000116,
      "v": 57
    },
    {
      "midi": 69,
      "hit": false,
      "t": 41412.35100000013,
      "d": 400.1193333333358,
      "v": 61
    },
    {
      "midi": 53,
      "hit": false,
      "t": 41412.35100000013,
      "d": 1037.8095208333398,
      "v": 70
    },
    {
      "midi": 65,
      "hit": false,
      "t": 41412.35100000013,
      "d": 1412.921395833342,
      "v": 88
    },
    {
      "midi": 62,
      "hit": false,
      "t": 41812.47033333347,
      "d": 125.03729166666744,
      "v": 57
    },
    {
      "midi": 70,
      "hit": false,
      "t": 41812.47033333347,
      "d": 193.80780208333454,
      "v": 53
    },
    {
      "midi": 60,
      "hit": false,
      "t": 42012.53000000014,
      "d": 600.1790000000037,
      "v": 61
    },
    {
      "midi": 69,
      "hit": false,
      "t": 42012.53000000014,
      "d": 787.7349375000049,
      "v": 79
    },
    {
      "midi": 48,
      "hit": false,
      "t": 42412.64933333347,
      "d": 256.32644791666826,
      "v": 70
    },
    {
      "midi": 53,
      "hit": false,
      "t": 42612.70900000014,
      "d": 118.78542708333407,
      "v": 70
    },
    {
      "midi": 60,
      "hit": false,
      "t": 42812.76866666681,
      "d": 231.31898958333477,
      "v": 70
    },
    {
      "midi": 41,
      "hit": false,
      "t": 43012.82833333348,
      "d": 93.77796875000058,
      "v": 79
    },
    {
      "midi": 67,
      "hit": false,
      "t": 43012.82833333348,
      "d": 200.0596666666679,
      "v": 79
    },
    {
      "midi": 65,
      "hit": false,
      "t": 43212.888000000145,
      "d": 262.57831250000163,
      "v": 79
    },
    {
      "midi": 60,
      "hit": false,
      "t": 43212.888000000145,
      "d": 268.830177083335,
      "v": 88
    },
    {
      "midi": 43,
      "hit": false,
      "t": 43212.888000000145,
      "d": 750.2237500000047,
      "v": 70
    },
    {
      "midi": 69,
      "hit": false,
      "t": 43212.888000000145,
      "d": 1194.106135416674,
      "v": 70
    },
    {
      "midi": 65,
      "hit": false,
      "t": 43813.06700000015,
      "d": 150.04475000000093,
      "v": 57
    },
    {
      "midi": 60,
      "hit": false,
      "t": 43813.06700000015,
      "d": 175.05220833333442,
      "v": 57
    },
    {
      "midi": 65,
      "hit": false,
      "t": 44413.24600000015,
      "d": 56.26678125000035,
      "v": 70
    },
    {
      "midi": 60,
      "hit": false,
      "t": 44413.24600000015,
      "d": 81.27423958333384,
      "v": 70
    },
    {
      "midi": 38,
      "hit": false,
      "t": 44813.36533333349,
      "d": 237.57085416666814,
      "v": 88
    },
    {
      "midi": 60,
      "hit": false,
      "t": 45013.425000000156,
      "d": 256.32644791666826,
      "v": 79
    },
    {
      "midi": 72,
      "hit": false,
      "t": 45013.425000000156,
      "d": 256.32644791666826,
      "v": 88
    },
    {
      "midi": 69,
      "hit": false,
      "t": 45013.425000000156,
      "d": 275.0820416666684,
      "v": 88
    },
    {
      "midi": 65,
      "hit": false,
      "t": 45013.425000000156,
      "d": 287.5857708333351,
      "v": 79
    },
    {
      "midi": 31,
      "hit": false,
      "t": 45013.425000000156,
      "d": 312.5932291666686,
      "v": 57
    },
    {
      "midi": 67,
      "hit": false,
      "t": 45613.60400000016,
      "d": 212.56339583333465,
      "v": 97
    },
    {
      "midi": 71,
      "hit": false,
      "t": 45613.60400000016,
      "d": 243.8227187500015,
      "v": 88
    },
    {
      "midi": 33,
      "hit": false,
      "t": 45613.60400000016,
      "d": 262.57831250000163,
      "v": 88
    },
    {
      "midi": 62,
      "hit": false,
      "t": 45613.60400000016,
      "d": 268.830177083335,
      "v": 79
    },
    {
      "midi": 35,
      "hit": false,
      "t": 46213.78300000016,
      "d": 200.0596666666679,
      "v": 57
    },
    {
      "midi": 65,
      "hit": false,
      "t": 46213.78300000016,
      "d": 200.0596666666679,
      "v": 88
    },
    {
      "midi": 69,
      "hit": false,
      "t": 46213.78300000016,
      "d": 225.0671250000014,
      "v": 79
    },
    {
      "midi": 60,
      "hit": false,
      "t": 46213.78300000016,
      "d": 268.830177083335,
      "v": 88
    },
    {
      "midi": 47,
      "hit": false,
      "t": 46213.78300000016,
      "d": 287.5857708333351,
      "v": 70
    },
    {
      "midi": 43,
      "hit": false,
      "t": 46613.9023333335,
      "d": 243.8227187500015,
      "v": 79
    },
    {
      "midi": 60,
      "hit": false,
      "t": 46813.96200000017,
      "d": 156.2966145833343,
      "v": 88
    },
    {
      "midi": 55,
      "hit": false,
      "t": 46813.96200000017,
      "d": 168.80034375000105,
      "v": 61
    },
    {
      "midi": 64,
      "hit": false,
      "t": 46813.96200000017,
      "d": 1287.8841041666747,
      "v": 70
    },
    {
      "midi": 48,
      "hit": false,
      "t": 46813.96200000017,
      "d": 1362.9064791666751,
      "v": 61
    },
    {
      "midi": 67,
      "hit": false,
      "t": 46813.96200000017,
      "d": 1800.5370000000112,
      "v": 88
    },
    {
      "midi": 36,
      "hit": false,
      "t": 46813.96200000017,
      "d": 2900.8651666666847,
      "v": 61
    },
    {
      "midi": 55,
      "hit": false,
      "t": 47414.14100000017,
      "d": 87.52610416666721,
      "v": 57
    },
    {
      "midi": 60,
      "hit": false,
      "t": 47414.14100000017,
      "d": 93.77796875000058,
      "v": 61
    },
    {
      "midi": 55,
      "hit": false,
      "t": 48014.320000000174,
      "d": 87.52610416666721,
      "v": 61
    },
    {
      "midi": 60,
      "hit": false,
      "t": 48014.320000000174,
      "d": 93.77796875000058,
      "v": 61
    },
    {
      "midi": 48,
      "hit": false,
      "t": 48414.43933333351,
      "d": 1244.121052083341,
      "v": 57
    },
    {
      "midi": 55,
      "hit": false,
      "t": 48614.49900000018,
      "d": 250.07458333333489,
      "v": 61
    },
    {
      "midi": 60,
      "hit": false,
      "t": 48614.49900000018,
      "d": 387.6156041666691,
      "v": 79
    },
    {
      "midi": 64,
      "hit": false,
      "t": 48614.49900000018,
      "d": 393.86746875000244,
      "v": 79
    },
    {
      "midi": 57,
      "hit": false,
      "t": 49014.618333333514,
      "d": 100.02983333333395,
      "v": 57
    },
    {
      "midi": 62,
      "hit": false,
      "t": 49014.618333333514,
      "d": 193.80780208333454,
      "v": 70
    },
    {
      "midi": 65,
      "hit": false,
      "t": 49014.618333333514,
      "d": 243.8227187500015,
      "v": 70
    },
    {
      "midi": 55,
      "hit": false,
      "t": 49214.67800000018,
      "d": 443.8823854166694,
      "v": 70
    },
    {
      "midi": 60,
      "hit": false,
      "t": 49214.67800000018,
      "d": 612.6827291666705,
      "v": 79
    },
    {
      "midi": 64,
      "hit": false,
      "t": 49214.67800000018,
      "d": 1000.2983333333395,
      "v": 70
    },
    {
      "midi": 43,
      "hit": false,
      "t": 49614.79733333352,
      "d": 206.31153125000128,
      "v": 70
    },
    {
      "midi": 48,
      "hit": false,
      "t": 49814.857000000186,
      "d": 206.31153125000128,
      "v": 49
    },
    {
      "midi": 55,
      "hit": false,
      "t": 49814.857000000186,
      "d": 212.56339583333465,
      "v": 79
    },
    {
      "midi": 36,
      "hit": false,
      "t": 49814.857000000186,
      "d": 218.81526041666802,
      "v": 70
    },
    {
      "midi": 38,
      "hit": false,
      "t": 50014.91666666685,
      "d": 162.54847916666768,
      "v": 79
    },
    {
      "midi": 57,
      "hit": false,
      "t": 50014.91666666685,
      "d": 162.54847916666768,
      "v": 79
    },
    {
      "midi": 40,
      "hit": false,
      "t": 50214.97633333352,
      "d": 62.51864583333372,
      "v": 70
    },
    {
      "midi": 58,
      "hit": false,
      "t": 50214.97633333352,
      "d": 93.77796875000058,
      "v": 79
    },
    {
      "midi": 55,
      "hit": false,
      "t": 50415.03600000019,
      "d": 268.830177083335,
      "v": 79
    },
    {
      "midi": 59,
      "hit": false,
      "t": 50415.03600000019,
      "d": 275.0820416666684,
      "v": 79
    },
    {
      "midi": 40,
      "hit": false,
      "t": 50415.03600000019,
      "d": 1231.6173229166743,
      "v": 79
    },
    {
      "midi": 62,
      "hit": false,
      "t": 50415.03600000019,
      "d": 1237.8691875000077,
      "v": 88
    },
    {
      "midi": 59,
      "hit": false,
      "t": 51015.21500000019,
      "d": 87.52610416666721,
      "v": 70
    },
    {
      "midi": 55,
      "hit": false,
      "t": 51015.21500000019,
      "d": 112.5335625000007,
      "v": 57
    },
    {
      "midi": 59,
      "hit": false,
      "t": 51615.3940000002,
      "d": 81.27423958333384,
      "v": 70
    },
    {
      "midi": 55,
      "hit": false,
      "t": 51615.3940000002,
      "d": 93.77796875000058,
      "v": 57
    },
    {
      "midi": 47,
      "hit": false,
      "t": 52015.51333333353,
      "d": 75.02237500000047,
      "v": 70
    },
    {
      "midi": 62,
      "hit": false,
      "t": 52215.5730000002,
      "d": 87.52610416666721,
      "v": 61
    },
    {
      "midi": 67,
      "hit": false,
      "t": 52215.5730000002,
      "d": 100.02983333333395,
      "v": 79
    },
    {
      "midi": 71,
      "hit": false,
      "t": 52215.5730000002,
      "d": 100.02983333333395,
      "v": 88
    },
    {
      "midi": 40,
      "hit": false,
      "t": 52215.5730000002,
      "d": 1062.8169791666733,
      "v": 61
    },
    {
      "midi": 64,
      "hit": false,
      "t": 52615.692333333536,
      "d": 106.28169791666733,
      "v": 79
    },
    {
      "midi": 69,
      "hit": false,
      "t": 52615.692333333536,
      "d": 162.54847916666768,
      "v": 97
    },
    {
      "midi": 72,
      "hit": false,
      "t": 52615.692333333536,
      "d": 212.56339583333465,
      "v": 70
    },
    {
      "midi": 67,
      "hit": false,
      "t": 52815.752000000204,
      "d": 331.3488229166687,
      "v": 79
    },
    {
      "midi": 71,
      "hit": false,
      "t": 52815.752000000204,
      "d": 331.3488229166687,
      "v": 70
    },
    {
      "midi": 62,
      "hit": false,
      "t": 52815.752000000204,
      "d": 643.9420520833373,
      "v": 70
    },
    {
      "midi": 47,
      "hit": false,
      "t": 53215.87133333354,
      "d": 225.0671250000014,
      "v": 53
    },
    {
      "midi": 55,
      "hit": false,
      "t": 53415.93100000021,
      "d": 62.51864583333372,
      "v": 53
    },
    {
      "midi": 71,
      "hit": false,
      "t": 53415.93100000021,
      "d": 343.85255208333547,
      "v": 88
    },
    {
      "midi": 74,
      "hit": false,
      "t": 53415.93100000021,
      "d": 343.85255208333547,
      "v": 97
    },
    {
      "midi": 67,
      "hit": false,
      "t": 53415.93100000021,
      "d": 350.10441666666884,
      "v": 88
    },
    {
      "midi": 40,
      "hit": false,
      "t": 53816.050333333544,
      "d": 68.7705104166671,
      "v": 57
    },
    {
      "midi": 62,
      "hit": false,
      "t": 53816.050333333544,
      "d": 87.52610416666721,
      "v": 57
    },
    {
      "midi": 60,
      "hit": false,
      "t": 54016.11000000021,
      "d": 212.56339583333465,
      "v": 79
    },
    {
      "midi": 65,
      "hit": false,
      "t": 54016.11000000021,
      "d": 231.31898958333477,
      "v": 79
    },
    {
      "midi": 69,
      "hit": false,
      "t": 54016.11000000021,
      "d": 256.32644791666826,
      "v": 61
    },
    {
      "midi": 72,
      "hit": false,
      "t": 54016.11000000021,
      "d": 1844.3000520833448,
      "v": 61
    },
    {
      "midi": 41,
      "hit": false,
      "t": 54016.11000000021,
      "d": 2957.131947916685,
      "v": 53
    },
    {
      "midi": 65,
      "hit": false,
      "t": 54616.289000000215,
      "d": 43.763052083333605,
      "v": 61
    },
    {
      "midi": 60,
      "hit": false,
      "t": 54616.289000000215,
      "d": 62.51864583333372,
      "v": 57
    },
    {
      "midi": 69,
      "hit": false,
      "t": 54616.289000000215,
      "d": 68.7705104166671,
      "v": 57
    },
    {
      "midi": 65,
      "hit": false,
      "t": 55216.46800000022,
      "d": 68.7705104166671,
      "v": 70
    },
    {
      "midi": 60,
      "hit": false,
      "t": 55216.46800000022,
      "d": 87.52610416666721,
      "v": 70
    },
    {
      "midi": 69,
      "hit": false,
      "t": 55216.46800000022,
      "d": 87.52610416666721,
      "v": 61
    },
    {
      "midi": 48,
      "hit": false,
      "t": 55616.587333333555,
      "d": 662.6976458333374,
      "v": 57
    },
    {
      "midi": 60,
      "hit": false,
      "t": 55816.64700000022,
      "d": 100.02983333333395,
      "v": 70
    },
    {
      "midi": 69,
      "hit": false,
      "t": 55816.64700000022,
      "d": 131.28915625000081,
      "v": 61
    },
    {
      "midi": 65,
      "hit": false,
      "t": 55816.64700000022,
      "d": 143.79288541666756,
      "v": 79
    },
    {
      "midi": 53,
      "hit": false,
      "t": 55816.64700000022,
      "d": 931.5278229166724,
      "v": 57
    },
    {
      "midi": 62,
      "hit": false,
      "t": 56216.76633333356,
      "d": 106.28169791666733,
      "v": 61
    },
    {
      "midi": 70,
      "hit": false,
      "t": 56216.76633333356,
      "d": 162.54847916666768,
      "v": 79
    },
    {
      "midi": 65,
      "hit": false,
      "t": 56216.76633333356,
      "d": 168.80034375000105,
      "v": 70
    },
    {
      "midi": 60,
      "hit": false,
      "t": 56416.82600000023,
      "d": 487.645437500003,
      "v": 61
    },
    {
      "midi": 65,
      "hit": false,
      "t": 56416.82600000023,
      "d": 731.4681562500045,
      "v": 61
    },
    {
      "midi": 69,
      "hit": false,
      "t": 56416.82600000023,
      "d": 743.9718854166713,
      "v": 70
    },
    {
      "midi": 48,
      "hit": false,
      "t": 56816.94533333356,
      "d": 231.31898958333477,
      "v": 61
    },
    {
      "midi": 53,
      "hit": false,
      "t": 57017.00500000023,
      "d": 118.78542708333407,
      "v": 70
    },
    {
      "midi": 60,
      "hit": false,
      "t": 57217.0646666669,
      "d": 156.2966145833343,
      "v": 70
    },
    {
      "midi": 41,
      "hit": false,
      "t": 57417.124333333566,
      "d": 100.02983333333395,
      "v": 70
    },
    {
      "midi": 67,
      "hit": false,
      "t": 57417.124333333566,
      "d": 181.3040729166678,
      "v": 88
    },
    {
      "midi": 65,
      "hit": false,
      "t": 57617.184000000234,
      "d": 275.0820416666684,
      "v": 88
    },
    {
      "midi": 60,
      "hit": false,
      "t": 57617.184000000234,
      "d": 287.5857708333351,
      "v": 79
    },
    {
      "midi": 43,
      "hit": false,
      "t": 57617.184000000234,
      "d": 1206.6098645833408,
      "v": 61
    },
    {
      "midi": 69,
      "hit": false,
      "t": 57617.184000000234,
      "d": 1319.1434270833415,
      "v": 79
    },
    {
      "midi": 65,
      "hit": false,
      "t": 58217.36300000024,
      "d": 131.28915625000081,
      "v": 53
    },
    {
      "midi": 60,
      "hit": false,
      "t": 58217.36300000024,
      "d": 143.79288541666756,
      "v": 57
    },
    {
      "midi": 65,
      "hit": false,
      "t": 58817.54200000024,
      "d": 112.5335625000007,
      "v": 79
    },
    {
      "midi": 60,
      "hit": false,
      "t": 58817.54200000024,
      "d": 131.28915625000081,
      "v": 70
    },
    {
      "midi": 38,
      "hit": false,
      "t": 59217.66133333358,
      "d": 256.32644791666826,
      "v": 79
    },
    {
      "midi": 32,
      "hit": false,
      "t": 59417.721000000245,
      "d": 6.251864583333372,
      "v": 13
    },
    {
      "midi": 62,
      "hit": false,
      "t": 59417.721000000245,
      "d": 337.6006875000021,
      "v": 79
    },
    {
      "midi": 67,
      "hit": false,
      "t": 59417.721000000245,
      "d": 343.85255208333547,
      "v": 79
    },
    {
      "midi": 59,
      "hit": false,
      "t": 59417.721000000245,
      "d": 350.10441666666884,
      "v": 70
    },
    {
      "midi": 71,
      "hit": false,
      "t": 59417.721000000245,
      "d": 1200.3580000000075,
      "v": 79
    },
    {
      "midi": 31,
      "hit": false,
      "t": 59417.721000000245,
      "d": 1300.3878333333414,
      "v": 37
    },
    {
      "midi": 59,
      "hit": false,
      "t": 60017.90000000025,
      "d": 87.52610416666721,
      "v": 70
    },
    {
      "midi": 62,
      "hit": false,
      "t": 60017.90000000025,
      "d": 93.77796875000058,
      "v": 61
    },
    {
      "midi": 67,
      "hit": false,
      "t": 60017.90000000025,
      "d": 112.5335625000007,
      "v": 70
    },
    {
      "midi": 59,
      "hit": false,
      "t": 60618.07900000025,
      "d": 81.27423958333384,
      "v": 88
    },
    {
      "midi": 67,
      "hit": false,
      "t": 60618.07900000025,
      "d": 106.28169791666733,
      "v": 79
    },
    {
      "midi": 43,
      "hit": false,
      "t": 60618.07900000025,
      "d": 112.5335625000007,
      "v": 79
    },
    {
      "midi": 62,
      "hit": false,
      "t": 60618.07900000025,
      "d": 118.78542708333407,
      "v": 79
    },
    {
      "midi": 29,
      "hit": false,
      "t": 61018.19833333359,
      "d": 68.7705104166671,
      "v": 88
    },
    {
      "midi": 41,
      "hit": false,
      "t": 61018.19833333359,
      "d": 68.7705104166671,
      "v": 70
    },
    {
      "midi": 55,
      "hit": false,
      "t": 61218.258000000256,
      "d": 237.57085416666814,
      "v": 79
    },
    {
      "midi": 62,
      "hit": false,
      "t": 61218.258000000256,
      "d": 237.57085416666814,
      "v": 70
    },
    {
      "midi": 58,
      "hit": false,
      "t": 61218.258000000256,
      "d": 243.8227187500015,
      "v": 88
    },
    {
      "midi": 65,
      "hit": false,
      "t": 61218.258000000256,
      "d": 1819.2925937500113,
      "v": 79
    },
    {
      "midi": 27,
      "hit": false,
      "t": 61218.258000000256,
      "d": 3019.6505937500187,
      "v": 88
    },
    {
      "midi": 55,
      "hit": false,
      "t": 61818.43700000026,
      "d": 100.02983333333395,
      "v": 57
    },
    {
      "midi": 62,
      "hit": false,
      "t": 61818.43700000026,
      "d": 112.5335625000007,
      "v": 70
    },
    {
      "midi": 58,
      "hit": false,
      "t": 61818.43700000026,
      "d": 125.03729166666744,
      "v": 61
    },
    {
      "midi": 55,
      "hit": false,
      "t": 62418.616000000264,
      "d": 81.27423958333384,
      "v": 70
    },
    {
      "midi": 58,
      "hit": false,
      "t": 62418.616000000264,
      "d": 81.27423958333384,
      "v": 57
    },
    {
      "midi": 62,
      "hit": false,
      "t": 62418.616000000264,
      "d": 81.27423958333384,
      "v": 70
    },
    {
      "midi": 34,
      "hit": false,
      "t": 62818.7353333336,
      "d": 243.8227187500015,
      "v": 70
    },
    {
      "midi": 55,
      "hit": false,
      "t": 63018.79500000027,
      "d": 206.31153125000128,
      "v": 61
    },
    {
      "midi": 60,
      "hit": false,
      "t": 63018.79500000027,
      "d": 212.56339583333465,
      "v": 79
    },
    {
      "midi": 58,
      "hit": false,
      "t": 63018.79500000027,
      "d": 231.31898958333477,
      "v": 70
    },
    {
      "midi": 39,
      "hit": false,
      "t": 63018.79500000027,
      "d": 1294.135968750008,
      "v": 88
    },
    {
      "midi": 63,
      "hit": false,
      "t": 63018.79500000027,
      "d": 1531.7068229166762,
      "v": 70
    },
    {
      "midi": 60,
      "hit": false,
      "t": 63618.97400000027,
      "d": 87.52610416666721,
      "v": 70
    },
    {
      "midi": 58,
      "hit": false,
      "t": 63618.97400000027,
      "d": 93.77796875000058,
      "v": 57
    },
    {
      "midi": 55,
      "hit": false,
      "t": 63618.97400000027,
      "d": 106.28169791666733,
      "v": 57
    },
    {
      "midi": 55,
      "hit": false,
      "t": 64219.153000000275,
      "d": 175.05220833333442,
      "v": 61
    },
    {
      "midi": 58,
      "hit": false,
      "t": 64219.153000000275,
      "d": 312.5932291666686,
      "v": 57
    },
    {
      "midi": 60,
      "hit": false,
      "t": 64219.153000000275,
      "d": 325.09695833333535,
      "v": 70
    },
    {
      "midi": 55,
      "hit": false,
      "t": 64619.27233333361,
      "d": 93.77796875000058,
      "v": 57
    },
    {
      "midi": 39,
      "hit": false,
      "t": 64619.27233333361,
      "d": 262.57831250000163,
      "v": 61
    },
    {
      "midi": 60,
      "hit": false,
      "t": 64819.33200000028,
      "d": 250.07458333333489,
      "v": 79
    },
    {
      "midi": 55,
      "hit": false,
      "t": 64819.33200000028,
      "d": 256.32644791666826,
      "v": 79
    },
    {
      "midi": 56,
      "hit": false,
      "t": 64819.33200000028,
      "d": 281.33390625000175,
      "v": 70
    },
    {
      "midi": 32,
      "hit": false,
      "t": 64819.33200000028,
      "d": 3082.169239583345,
      "v": 79
    },
    {
      "midi": 63,
      "hit": false,
      "t": 64819.33200000028,
      "d": 3188.4509375000125,
      "v": 79
    },
    {
      "midi": 55,
      "hit": false,
      "t": 65419.51100000028,
      "d": 200.05966666666063,
      "v": 53
    },
    {
      "midi": 60,
      "hit": false,
      "t": 65419.51100000028,
      "d": 218.81526041666075,
      "v": 61
    },
    {
      "midi": 56,
      "hit": false,
      "t": 65419.51100000028,
      "d": 231.3189895833275,
      "v": 57
    },
    {
      "midi": 60,
      "hit": false,
      "t": 66019.69000000028,
      "d": 275.0820416666684,
      "v": 70
    },
    {
      "midi": 56,
      "hit": false,
      "t": 66019.69000000028,
      "d": 287.5857708333351,
      "v": 57
    },
    {
      "midi": 55,
      "hit": false,
      "t": 66019.69000000028,
      "d": 293.8376354166685,
      "v": 70
    },
    {
      "midi": 39,
      "hit": false,
      "t": 66419.80933333361,
      "d": 1444.180718750009,
      "v": 61
    },
    {
      "midi": 60,
      "hit": false,
      "t": 66619.86900000028,
      "d": 262.57831250000163,
      "v": 79
    },
    {
      "midi": 53,
      "hit": false,
      "t": 66619.86900000028,
      "d": 268.830177083335,
      "v": 61
    },
    {
      "midi": 56,
      "hit": false,
      "t": 66619.86900000028,
      "d": 275.0820416666684,
      "v": 70
    },
    {
      "midi": 48,
      "hit": false,
      "t": 66619.86900000028,
      "d": 743.9718854166713,
      "v": 53
    },
    {
      "midi": 53,
      "hit": false,
      "t": 67220.04800000029,
      "d": 187.55593750000116,
      "v": 57
    },
    {
      "midi": 60,
      "hit": false,
      "t": 67220.04800000029,
      "d": 206.31153125000128,
      "v": 70
    },
    {
      "midi": 56,
      "hit": false,
      "t": 67220.04800000029,
      "d": 218.81526041666802,
      "v": 57
    },
    {
      "midi": 48,
      "hit": false,
      "t": 67820.22700000029,
      "d": 75.02237500000047,
      "v": 45
    },
    {
      "midi": 60,
      "hit": false,
      "t": 67820.22700000029,
      "d": 187.55593750000116,
      "v": 79
    },
    {
      "midi": 53,
      "hit": false,
      "t": 67820.22700000029,
      "d": 225.0671250000014,
      "v": 57
    },
    {
      "midi": 56,
      "hit": false,
      "t": 67820.22700000029,
      "d": 225.0671250000014,
      "v": 61
    },
    {
      "midi": 31,
      "hit": false,
      "t": 68220.34633333363,
      "d": 112.5335625000007,
      "v": 61
    },
    {
      "midi": 53,
      "hit": false,
      "t": 68420.4060000003,
      "d": 200.0596666666679,
      "v": 61
    },
    {
      "midi": 60,
      "hit": false,
      "t": 68420.4060000003,
      "d": 212.56339583333465,
      "v": 79
    },
    {
      "midi": 56,
      "hit": false,
      "t": 68420.4060000003,
      "d": 225.0671250000014,
      "v": 61
    },
    {
      "midi": 29,
      "hit": false,
      "t": 68420.4060000003,
      "d": 1131.5874895833404,
      "v": 70
    },
    {
      "midi": 65,
      "hit": false,
      "t": 68420.4060000003,
      "d": 1356.6546145833418,
      "v": 70
    },
    {
      "midi": 60,
      "hit": false,
      "t": 69020.5850000003,
      "d": 137.5410208333342,
      "v": 79
    },
    {
      "midi": 53,
      "hit": false,
      "t": 69020.5850000003,
      "d": 143.79288541666756,
      "v": 53
    },
    {
      "midi": 56,
      "hit": false,
      "t": 69020.5850000003,
      "d": 175.05220833333442,
      "v": 57
    },
    {
      "midi": 44,
      "hit": false,
      "t": 69620.7640000003,
      "d": 62.51864583333372,
      "v": 45
    },
    {
      "midi": 53,
      "hit": false,
      "t": 69620.7640000003,
      "d": 143.79288541666756,
      "v": 53
    },
    {
      "midi": 60,
      "hit": false,
      "t": 69620.7640000003,
      "d": 143.79288541666756,
      "v": 79
    },
    {
      "midi": 56,
      "hit": false,
      "t": 69620.7640000003,
      "d": 162.54847916666768,
      "v": 61
    },
    {
      "midi": 48,
      "hit": false,
      "t": 70020.88333333364,
      "d": 1406.6695312500087,
      "v": 61
    },
    {
      "midi": 60,
      "hit": false,
      "t": 70220.9430000003,
      "d": 243.8227187500015,
      "v": 79
    },
    {
      "midi": 65,
      "hit": false,
      "t": 70220.9430000003,
      "d": 250.07458333333489,
      "v": 88
    },
    {
      "midi": 56,
      "hit": false,
      "t": 70220.9430000003,
      "d": 262.57831250000163,
      "v": 70
    },
    {
      "midi": 41,
      "hit": false,
      "t": 70220.9430000003,
      "d": 1169.0986770833406,
      "v": 61
    },
    {
      "midi": 68,
      "hit": false,
      "t": 70220.9430000003,
      "d": 1344.150885416675,
      "v": 79
    },
    {
      "midi": 56,
      "hit": false,
      "t": 70821.12200000031,
      "d": 118.78542708333407,
      "v": 61
    },
    {
      "midi": 60,
      "hit": false,
      "t": 70821.12200000031,
      "d": 118.78542708333407,
      "v": 70
    },
    {
      "midi": 65,
      "hit": false,
      "t": 70821.12200000031,
      "d": 143.79288541666756,
      "v": 79
    },
    {
      "midi": 53,
      "hit": false,
      "t": 71421.30100000031,
      "d": 43.763052083333605,
      "v": 57
    },
    {
      "midi": 56,
      "hit": false,
      "t": 71421.30100000031,
      "d": 131.28915625000081,
      "v": 70
    },
    {
      "midi": 60,
      "hit": false,
      "t": 71421.30100000031,
      "d": 268.830177083335,
      "v": 79
    },
    {
      "midi": 65,
      "hit": false,
      "t": 71421.30100000031,
      "d": 318.845093750002,
      "v": 70
    },
    {
      "midi": 56,
      "hit": false,
      "t": 71821.42033333365,
      "d": 43.763052083333605,
      "v": 61
    },
    {
      "midi": 38,
      "hit": false,
      "t": 71821.42033333365,
      "d": 262.57831250000163,
      "v": 79
    },
    {
      "midi": 60,
      "hit": false,
      "t": 72021.48000000032,
      "d": 237.57085416666814,
      "v": 70
    },
    {
      "midi": 65,
      "hit": false,
      "t": 72021.48000000032,
      "d": 237.57085416666814,
      "v": 79
    },
    {
      "midi": 57,
      "hit": false,
      "t": 72021.48000000032,
      "d": 256.32644791666826,
      "v": 57
    },
    {
      "midi": 31,
      "hit": false,
      "t": 72021.48000000032,
      "d": 3025.902458333352,
      "v": 53
    },
    {
      "midi": 57,
      "hit": false,
      "t": 72621.65900000032,
      "d": 268.830177083335,
      "v": 61
    },
    {
      "midi": 60,
      "hit": false,
      "t": 72621.65900000032,
      "d": 268.830177083335,
      "v": 79
    },
    {
      "midi": 65,
      "hit": false,
      "t": 72621.65900000032,
      "d": 287.5857708333351,
      "v": 88
    },
    {
      "midi": 60,
      "hit": false,
      "t": 73221.83800000032,
      "d": 275.0820416666684,
      "v": 88
    },
    {
      "midi": 57,
      "hit": false,
      "t": 73221.83800000032,
      "d": 287.5857708333351,
      "v": 88
    },
    {
      "midi": 65,
      "hit": false,
      "t": 73221.83800000032,
      "d": 287.5857708333351,
      "v": 97
    },
    {
      "midi": 38,
      "hit": false,
      "t": 73621.95733333366,
      "d": 231.31898958333477,
      "v": 88
    },
    {
      "midi": 59,
      "hit": false,
      "t": 73822.01700000033,
      "d": 250.07458333333489,
      "v": 88
    },
    {
      "midi": 62,
      "hit": false,
      "t": 73822.01700000033,
      "d": 256.32644791666826,
      "v": 88
    },
    {
      "midi": 67,
      "hit": false,
      "t": 73822.01700000033,
      "d": 262.57831250000163,
      "v": 97
    },
    {
      "midi": 43,
      "hit": false,
      "t": 73822.01700000033,
      "d": 1281.6322395833413,
      "v": 61
    },
    {
      "midi": 59,
      "hit": false,
      "t": 74422.19600000033,
      "d": 250.07458333333489,
      "v": 79
    },
    {
      "midi": 62,
      "hit": false,
      "t": 74422.19600000033,
      "d": 256.32644791666826,
      "v": 97
    },
    {
      "midi": 67,
      "hit": false,
      "t": 74422.19600000033,
      "d": 262.57831250000163,
      "v": 88
    },
    {
      "midi": 62,
      "hit": false,
      "t": 75022.37500000033,
      "d": 250.07458333333489,
      "v": 88
    },
    {
      "midi": 59,
      "hit": false,
      "t": 75022.37500000033,
      "d": 256.32644791666826,
      "v": 97
    },
    {
      "midi": 67,
      "hit": false,
      "t": 75022.37500000033,
      "d": 268.830177083335,
      "v": 88
    },
    {
      "midi": 43,
      "hit": false,
      "t": 75422.49433333367,
      "d": 231.31898958333477,
      "v": 88
    },
    {
      "midi": 60,
      "hit": false,
      "t": 75622.55400000034,
      "d": 237.57085416666814,
      "v": 70
    },
    {
      "midi": 55,
      "hit": false,
      "t": 75622.55400000034,
      "d": 243.8227187500015,
      "v": 70
    },
    {
      "midi": 64,
      "hit": false,
      "t": 75622.55400000034,
      "d": 243.8227187500015,
      "v": 79
    },
    {
      "midi": 36,
      "hit": false,
      "t": 75622.55400000034,
      "d": 2957.131947916685,
      "v": 88
    },
    {
      "midi": 60,
      "hit": false,
      "t": 76222.73300000034,
      "d": 187.55593750000116,
      "v": 70
    },
    {
      "midi": 55,
      "hit": false,
      "t": 76222.73300000034,
      "d": 206.31153125000128,
      "v": 61
    },
    {
      "midi": 64,
      "hit": false,
      "t": 76222.73300000034,
      "d": 212.56339583333465,
      "v": 61
    },
    {
      "midi": 60,
      "hit": false,
      "t": 76822.91200000035,
      "d": 212.56339583333465,
      "v": 61
    },
    {
      "midi": 55,
      "hit": false,
      "t": 76822.91200000035,
      "d": 231.31898958333477,
      "v": 61
    },
    {
      "midi": 64,
      "hit": false,
      "t": 76822.91200000035,
      "d": 231.31898958333477,
      "v": 70
    },
    {
      "midi": 60,
      "hit": false,
      "t": 77423.09100000035,
      "d": 331.3488229166687,
      "v": 88
    },
    {
      "midi": 64,
      "hit": false,
      "t": 77423.09100000035,
      "d": 343.85255208333547,
      "v": 79
    },
    {
      "midi": 55,
      "hit": false,
      "t": 77423.09100000035,
      "d": 350.10441666666884,
      "v": 79
    },
    {
      "midi": 48,
      "hit": false,
      "t": 77423.09100000035,
      "d": 618.9345937500038,
      "v": 61
    },
    {
      "midi": 55,
      "hit": false,
      "t": 78023.27000000035,
      "d": 231.31898958333477,
      "v": 70
    },
    {
      "midi": 64,
      "hit": false,
      "t": 78023.27000000035,
      "d": 237.57085416666814,
      "v": 88
    },
    {
      "midi": 60,
      "hit": false,
      "t": 78023.27000000035,
      "d": 256.32644791666826,
      "v": 79
    },
    {
      "midi": 67,
      "hit": false,
      "t": 78023.27000000035,
      "d": 268.830177083335,
      "v": 88
    },
    {
      "midi": 48,
      "hit": false,
      "t": 78423.38933333369,
      "d": 231.31898958333477,
      "v": 61
    },
    {
      "midi": 69,
      "hit": false,
      "t": 78623.44900000036,
      "d": 87.52610416666721,
      "v": 79
    },
    {
      "midi": 39,
      "hit": false,
      "t": 79023.5683333337,
      "d": 137.5410208333342,
      "v": 79
    },
    {
      "midi": 59,
      "hit": false,
      "t": 79223.62800000036,
      "d": 262.57831250000163,
      "v": 70
    },
    {
      "midi": 55,
      "hit": false,
      "t": 79223.62800000036,
      "d": 275.0820416666684,
      "v": 57
    },
    {
      "midi": 62,
      "hit": false,
      "t": 79223.62800000036,
      "d": 806.490531250005,
      "v": 79
    },
    {
      "midi": 64,
      "hit": false,
      "t": 79223.62800000036,
      "d": 825.2461250000051,
      "v": 79
    },
    {
      "midi": 67,
      "hit": false,
      "t": 79223.62800000036,
      "d": 837.7498541666719,
      "v": 79
    },
    {
      "midi": 40,
      "hit": false,
      "t": 79223.62800000036,
      "d": 1544.210552083343,
      "v": 61
    },
    {
      "midi": 55,
      "hit": false,
      "t": 79823.80700000036,
      "d": 156.2966145833343,
      "v": 61
    },
    {
      "midi": 59,
      "hit": false,
      "t": 79823.80700000036,
      "d": 168.80034375000105,
      "v": 70
    },
    {
      "midi": 47,
      "hit": false,
      "t": 80223.9263333337,
      "d": 262.57831250000163,
      "v": 57
    },
    {
      "midi": 67,
      "hit": false,
      "t": 80423.98600000037,
      "d": 68.7705104166671,
      "v": 61
    },
    {
      "midi": 71,
      "hit": false,
      "t": 80423.98600000037,
      "d": 68.7705104166671,
      "v": 70
    },
    {
      "midi": 62,
      "hit": false,
      "t": 80423.98600000037,
      "d": 75.02237500000047,
      "v": 61
    },
    {
      "midi": 52,
      "hit": false,
      "t": 80423.98600000037,
      "d": 343.85255208333547,
      "v": 53
    },
    {
      "midi": 64,
      "hit": false,
      "t": 80824.1053333337,
      "d": 131.28915625000081,
      "v": 88
    },
    {
      "midi": 69,
      "hit": false,
      "t": 80824.1053333337,
      "d": 181.3040729166678,
      "v": 97
    },
    {
      "midi": 72,
      "hit": false,
      "t": 80824.1053333337,
      "d": 243.8227187500015,
      "v": 97
    },
    {
      "midi": 67,
      "hit": false,
      "t": 81024.16500000037,
      "d": 356.3562812500022,
      "v": 70
    },
    {
      "midi": 71,
      "hit": false,
      "t": 81024.16500000037,
      "d": 356.3562812500022,
      "v": 70
    },
    {
      "midi": 62,
      "hit": false,
      "t": 81024.16500000037,
      "d": 368.86001041666896,
      "v": 70
    },
    {
      "midi": 40,
      "hit": false,
      "t": 81024.16500000037,
      "d": 1194.106135416674,
      "v": 70
    },
    {
      "midi": 71,
      "hit": false,
      "t": 81624.34400000038,
      "d": 212.56339583333465,
      "v": 88
    },
    {
      "midi": 62,
      "hit": false,
      "t": 81624.34400000038,
      "d": 250.07458333333489,
      "v": 88
    },
    {
      "midi": 67,
      "hit": false,
      "t": 81624.34400000038,
      "d": 256.32644791666826,
      "v": 88
    },
    {
      "midi": 74,
      "hit": false,
      "t": 81624.34400000038,
      "d": 593.9271354166704,
      "v": 97
    },
    {
      "midi": 52,
      "hit": false,
      "t": 82024.46333333371,
      "d": 237.57085416666814,
      "v": 57
    },
    {
      "midi": 62,
      "hit": false,
      "t": 82224.52300000038,
      "d": 50.01491666666698,
      "v": 79
    },
    {
      "midi": 67,
      "hit": false,
      "t": 82224.52300000038,
      "d": 50.01491666666698,
      "v": 53
    },
    {
      "midi": 71,
      "hit": false,
      "t": 82224.52300000038,
      "d": 75.02237500000047,
      "v": 97
    },
    {
      "midi": 40,
      "hit": false,
      "t": 82624.64233333372,
      "d": 87.52610416666721,
      "v": 70
    },
    {
      "midi": 62,
      "hit": false,
      "t": 82824.70200000038,
      "d": 256.32644791666826,
      "v": 88
    },
    {
      "midi": 67,
      "hit": false,
      "t": 82824.70200000038,
      "d": 356.3562812500022,
      "v": 88
    },
    {
      "midi": 71,
      "hit": false,
      "t": 82824.70200000038,
      "d": 412.62306250000256,
      "v": 88
    },
    {
      "midi": 41,
      "hit": false,
      "t": 82824.70200000038,
      "d": 2932.1244895833515,
      "v": 61
    },
    {
      "midi": 65,
      "hit": false,
      "t": 83224.82133333372,
      "d": 81.27423958333384,
      "v": 53
    },
    {
      "midi": 60,
      "hit": false,
      "t": 83224.82133333372,
      "d": 87.52610416666721,
      "v": 57
    },
    {
      "midi": 69,
      "hit": false,
      "t": 83224.82133333372,
      "d": 87.52610416666721,
      "v": 61
    },
    {
      "midi": 65,
      "hit": false,
      "t": 83424.88100000039,
      "d": 37.51118750000023,
      "v": 53
    },
    {
      "midi": 69,
      "hit": false,
      "t": 83424.88100000039,
      "d": 43.763052083333605,
      "v": 57
    },
    {
      "midi": 60,
      "hit": false,
      "t": 83424.88100000039,
      "d": 50.01491666666698,
      "v": 53
    },
    {
      "midi": 65,
      "hit": false,
      "t": 83825.00033333372,
      "d": 43.763052083333605,
      "v": 53
    },
    {
      "midi": 60,
      "hit": false,
      "t": 83825.00033333372,
      "d": 56.26678125000035,
      "v": 53
    },
    {
      "midi": 69,
      "hit": false,
      "t": 83825.00033333372,
      "d": 56.26678125000035,
      "v": 53
    },
    {
      "midi": 60,
      "hit": false,
      "t": 84025.06000000039,
      "d": 268.830177083335,
      "v": 79
    },
    {
      "midi": 69,
      "hit": false,
      "t": 84025.06000000039,
      "d": 350.10441666666884,
      "v": 57
    },
    {
      "midi": 65,
      "hit": false,
      "t": 84025.06000000039,
      "d": 368.86001041666896,
      "v": 79
    },
    {
      "midi": 67,
      "hit": false,
      "t": 84425.17933333373,
      "d": 43.763052083333605,
      "v": 70
    },
    {
      "midi": 71,
      "hit": false,
      "t": 84425.17933333373,
      "d": 50.01491666666698,
      "v": 57
    },
    {
      "midi": 62,
      "hit": false,
      "t": 84425.17933333373,
      "d": 62.51864583333372,
      "v": 57
    },
    {
      "midi": 62,
      "hit": false,
      "t": 84625.2390000004,
      "d": 268.830177083335,
      "v": 88
    },
    {
      "midi": 67,
      "hit": false,
      "t": 84625.2390000004,
      "d": 343.85255208333547,
      "v": 88
    },
    {
      "midi": 71,
      "hit": false,
      "t": 84625.2390000004,
      "d": 387.6156041666691,
      "v": 88
    },
    {
      "midi": 53,
      "hit": false,
      "t": 84625.2390000004,
      "d": 994.0464687500062,
      "v": 45
    },
    {
      "midi": 60,
      "hit": false,
      "t": 85025.35833333373,
      "d": 56.26678125000035,
      "v": 37
    },
    {
      "midi": 69,
      "hit": false,
      "t": 85025.35833333373,
      "d": 81.27423958333384,
      "v": 57
    },
    {
      "midi": 65,
      "hit": false,
      "t": 85025.35833333373,
      "d": 93.77796875000058,
      "v": 57
    },
    {
      "midi": 60,
      "hit": false,
      "t": 85225.4180000004,
      "d": 662.6976458333374,
      "v": 79
    },
    {
      "midi": 65,
      "hit": false,
      "t": 85225.4180000004,
      "d": 781.4830729166715,
      "v": 88
    },
    {
      "midi": 69,
      "hit": false,
      "t": 85225.4180000004,
      "d": 781.4830729166715,
      "v": 70
    },
    {
      "midi": 48,
      "hit": false,
      "t": 85625.53733333373,
      "d": 250.07458333333489,
      "v": 45
    },
    {
      "midi": 53,
      "hit": false,
      "t": 85825.5970000004,
      "d": 131.28915625000081,
      "v": 70
    },
    {
      "midi": 60,
      "hit": false,
      "t": 86025.65666666707,
      "d": 75.02237500000047,
      "v": 70
    },
    {
      "midi": 48,
      "hit": false,
      "t": 86225.71633333374,
      "d": 62.51864583333372,
      "v": 70
    },
    {
      "midi": 56,
      "hit": false,
      "t": 86425.7760000004,
      "d": 268.830177083335,
      "v": 79
    },
    {
      "midi": 41,
      "hit": false,
      "t": 86425.7760000004,
      "d": 637.690187500004,
      "v": 70
    },
    {
      "midi": 59,
      "hit": false,
      "t": 86425.7760000004,
      "d": 731.4681562500045,
      "v": 88
    },
    {
      "midi": 62,
      "hit": false,
      "t": 86425.7760000004,
      "d": 750.2237500000047,
      "v": 88
    },
    {
      "midi": 65,
      "hit": false,
      "t": 86425.7760000004,
      "d": 750.2237500000047,
      "v": 79
    },
    {
      "midi": 56,
      "hit": false,
      "t": 87025.95500000041,
      "d": 131.28915625000081,
      "v": 53
    },
    {
      "midi": 41,
      "hit": false,
      "t": 87426.07433333375,
      "d": 81.27423958333384,
      "v": 61
    },
    {
      "midi": 67,
      "hit": false,
      "t": 87626.13400000041,
      "d": 193.80780208333454,
      "v": 88
    },
    {
      "midi": 65,
      "hit": false,
      "t": 87826.19366666708,
      "d": 162.54847916666768,
      "v": 97
    },
    {
      "midi": 64,
      "hit": false,
      "t": 88026.25333333375,
      "d": 50.01491666666698,
      "v": 70
    },
    {
      "midi": 56,
      "hit": false,
      "t": 88226.31300000042,
      "d": 387.6156041666691,
      "v": 79
    },
    {
      "midi": 59,
      "hit": false,
      "t": 88226.31300000042,
      "d": 412.62306250000256,
      "v": 88
    },
    {
      "midi": 62,
      "hit": false,
      "t": 88226.31300000042,
      "d": 418.87492708333593,
      "v": 88
    },
    {
      "midi": 65,
      "hit": false,
      "t": 88226.31300000042,
      "d": 631.4383229166706,
      "v": 88
    },
    {
      "midi": 35,
      "hit": false,
      "t": 88226.31300000042,
      "d": 1287.8841041666747,
      "v": 70
    },
    {
      "midi": 53,
      "hit": false,
      "t": 88826.49200000042,
      "d": 200.0596666666679,
      "v": 61
    },
    {
      "midi": 59,
      "hit": false,
      "t": 88826.49200000042,
      "d": 200.0596666666679,
      "v": 70
    },
    {
      "midi": 56,
      "hit": false,
      "t": 88826.49200000042,
      "d": 212.56339583333465,
      "v": 61
    },
    {
      "midi": 62,
      "hit": false,
      "t": 88826.49200000042,
      "d": 231.31898958333477,
      "v": 41
    },
    {
      "midi": 47,
      "hit": false,
      "t": 89226.61133333376,
      "d": 293.8376354166685,
      "v": 70
    },
    {
      "midi": 59,
      "hit": false,
      "t": 89426.67100000042,
      "d": 293.8376354166685,
      "v": 79
    },
    {
      "midi": 53,
      "hit": false,
      "t": 89426.67100000042,
      "d": 312.5932291666686,
      "v": 70
    },
    {
      "midi": 62,
      "hit": false,
      "t": 89426.67100000042,
      "d": 318.845093750002,
      "v": 79
    },
    {
      "midi": 56,
      "hit": false,
      "t": 89426.67100000042,
      "d": 325.09695833333535,
      "v": 70
    },
    {
      "midi": 65,
      "hit": false,
      "t": 89426.67100000042,
      "d": 625.1864583333372,
      "v": 79
    },
    {
      "midi": 35,
      "hit": false,
      "t": 89826.79033333376,
      "d": 100.02983333333395,
      "v": 79
    },
    {
      "midi": 55,
      "hit": false,
      "t": 90026.85000000043,
      "d": 137.5410208333342,
      "v": 70
    },
    {
      "midi": 60,
      "hit": false,
      "t": 90026.85000000043,
      "d": 137.5410208333342,
      "v": 70
    },
    {
      "midi": 64,
      "hit": false,
      "t": 90026.85000000043,
      "d": 156.2966145833343,
      "v": 79
    },
    {
      "midi": 36,
      "hit": false,
      "t": 90026.85000000043,
      "d": 2957.131947916685,
      "v": 70
    },
    {
      "midi": 60,
      "hit": false,
      "t": 90627.02900000043,
      "d": 75.02237500000047,
      "v": 53
    },
    {
      "midi": 55,
      "hit": false,
      "t": 90627.02900000043,
      "d": 81.27423958333384,
      "v": 49
    },
    {
      "midi": 64,
      "hit": false,
      "t": 90627.02900000043,
      "d": 93.77796875000058,
      "v": 57
    },
    {
      "midi": 60,
      "hit": false,
      "t": 91227.20800000044,
      "d": 68.7705104166671,
      "v": 57
    },
    {
      "midi": 55,
      "hit": false,
      "t": 91227.20800000044,
      "d": 87.52610416666721,
      "v": 57
    },
    {
      "midi": 64,
      "hit": false,
      "t": 91227.20800000044,
      "d": 87.52610416666721,
      "v": 61
    },
    {
      "midi": 64,
      "hit": false,
      "t": 91827.38700000044,
      "d": 375.1118750000023,
      "v": 88
    },
    {
      "midi": 60,
      "hit": false,
      "t": 91827.38700000044,
      "d": 387.6156041666691,
      "v": 79
    },
    {
      "midi": 55,
      "hit": false,
      "t": 91827.38700000044,
      "d": 400.1193333333358,
      "v": 79
    },
    {
      "midi": 48,
      "hit": false,
      "t": 91827.38700000044,
      "d": 656.4457812500041,
      "v": 53
    },
    {
      "midi": 64,
      "hit": false,
      "t": 92427.56600000044,
      "d": 225.0671250000014,
      "v": 79
    },
    {
      "midi": 55,
      "hit": false,
      "t": 92427.56600000044,
      "d": 231.31898958333477,
      "v": 70
    },
    {
      "midi": 60,
      "hit": false,
      "t": 92427.56600000044,
      "d": 243.8227187500015,
      "v": 79
    },
    {
      "midi": 67,
      "hit": false,
      "t": 92427.56600000044,
      "d": 275.0820416666684,
      "v": 79
    },
    {
      "midi": 48,
      "hit": false,
      "t": 92827.68533333378,
      "d": 268.830177083335,
      "v": 61
    },
    {
      "midi": 69,
      "hit": false,
      "t": 93027.74500000045,
      "d": 106.28169791666733,
      "v": 97
    },
    {
      "midi": 36,
      "hit": false,
      "t": 93427.86433333378,
      "d": 81.27423958333384,
      "v": 70
    },
    {
      "midi": 59,
      "hit": false,
      "t": 93627.92400000045,
      "d": 350.10441666666884,
      "v": 79
    },
    {
      "midi": 55,
      "hit": false,
      "t": 93627.92400000045,
      "d": 381.3637395833357,
      "v": 61
    },
    {
      "midi": 64,
      "hit": false,
      "t": 93627.92400000045,
      "d": 693.9569687500043,
      "v": 79
    },
    {
      "midi": 67,
      "hit": false,
      "t": 93627.92400000045,
      "d": 693.9569687500043,
      "v": 79
    },
    {
      "midi": 40,
      "hit": false,
      "t": 93627.92400000045,
      "d": 3257.221447916687,
      "v": 61
    },
    {
      "midi": 55,
      "hit": false,
      "t": 94228.10300000045,
      "d": 93.77796875000058,
      "v": 49
    },
    {
      "midi": 59,
      "hit": false,
      "t": 94228.10300000045,
      "d": 93.77796875000058,
      "v": 53
    },
    {
      "midi": 52,
      "hit": false,
      "t": 94628.22233333379,
      "d": 343.85255208333547,
      "v": 37
    },
    {
      "midi": 62,
      "hit": false,
      "t": 94828.28200000046,
      "d": 62.51864583333372,
      "v": 45
    },
    {
      "midi": 71,
      "hit": false,
      "t": 94828.28200000046,
      "d": 62.51864583333372,
      "v": 53
    },
    {
      "midi": 67,
      "hit": false,
      "t": 94828.28200000046,
      "d": 75.02237500000047,
      "v": 57
    },
    {
      "midi": 64,
      "hit": false,
      "t": 95228.4013333338,
      "d": 106.28169791666733,
      "v": 88
    },
    {
      "midi": 69,
      "hit": false,
      "t": 95228.4013333338,
      "d": 187.55593750000116,
      "v": 88
    },
    {
      "midi": 72,
      "hit": false,
      "t": 95228.4013333338,
      "d": 256.32644791666826,
      "v": 88
    },
    {
      "midi": 71,
      "hit": false,
      "t": 95428.46100000046,
      "d": 318.845093750002,
      "v": 70
    },
    {
      "midi": 67,
      "hit": false,
      "t": 95428.46100000046,
      "d": 337.6006875000021,
      "v": 61
    },
    {
      "midi": 62,
      "hit": false,
      "t": 95428.46100000046,
      "d": 375.1118750000023,
      "v": 61
    },
    {
      "midi": 52,
      "hit": false,
      "t": 95428.46100000046,
      "d": 418.87492708333593,
      "v": 49
    },
    {
      "midi": 71,
      "hit": false,
      "t": 96028.64000000047,
      "d": 225.0671250000014,
      "v": 79
    },
    {
      "midi": 67,
      "hit": false,
      "t": 96028.64000000047,
      "d": 256.32644791666826,
      "v": 88
    },
    {
      "midi": 74,
      "hit": false,
      "t": 96028.64000000047,
      "d": 550.1640833333367,
      "v": 88
    },
    {
      "midi": 52,
      "hit": false,
      "t": 96428.7593333338,
      "d": 231.31898958333477,
      "v": 29
    },
    {
      "midi": 67,
      "hit": false,
      "t": 96628.81900000047,
      "d": 150.04475000000093,
      "v": 88
    },
    {
      "midi": 71,
      "hit": false,
      "t": 96628.81900000047,
      "d": 150.04475000000093,
      "v": 79
    },
    {
      "midi": 62,
      "hit": false,
      "t": 96628.81900000047,
      "d": 187.55593750000116,
      "v": 79
    },
    {
      "midi": 52,
      "hit": false,
      "t": 97028.9383333338,
      "d": 68.7705104166671,
      "v": 61
    },
    {
      "midi": 62,
      "hit": false,
      "t": 97228.99800000047,
      "d": 225.0671250000014,
      "v": 79
    },
    {
      "midi": 67,
      "hit": false,
      "t": 97228.99800000047,
      "d": 325.09695833333535,
      "v": 88
    },
    {
      "midi": 71,
      "hit": false,
      "t": 97228.99800000047,
      "d": 400.1193333333358,
      "v": 97
    },
    {
      "midi": 41,
      "hit": false,
      "t": 97228.99800000047,
      "d": 3207.20653125002,
      "v": 70
    },
    {
      "midi": 60,
      "hit": false,
      "t": 97629.11733333381,
      "d": 81.27423958333384,
      "v": 45
    },
    {
      "midi": 65,
      "hit": false,
      "t": 97629.11733333381,
      "d": 106.28169791666733,
      "v": 53
    },
    {
      "midi": 69,
      "hit": false,
      "t": 97629.11733333381,
      "d": 106.28169791666733,
      "v": 53
    },
    {
      "midi": 60,
      "hit": false,
      "t": 97829.17700000048,
      "d": 68.7705104166671,
      "v": 53
    },
    {
      "midi": 69,
      "hit": false,
      "t": 97829.17700000048,
      "d": 81.27423958333384,
      "v": 49
    },
    {
      "midi": 65,
      "hit": false,
      "t": 97829.17700000048,
      "d": 93.77796875000058,
      "v": 53
    },
    {
      "midi": 60,
      "hit": false,
      "t": 98229.29633333381,
      "d": 56.26678125000035,
      "v": 37
    },
    {
      "midi": 65,
      "hit": false,
      "t": 98229.29633333381,
      "d": 68.7705104166671,
      "v": 49
    },
    {
      "midi": 69,
      "hit": false,
      "t": 98229.29633333381,
      "d": 87.52610416666721,
      "v": 53
    },
    {
      "midi": 60,
      "hit": false,
      "t": 98429.35600000048,
      "d": 256.32644791666826,
      "v": 70
    },
    {
      "midi": 69,
      "hit": false,
      "t": 98429.35600000048,
      "d": 337.6006875000021,
      "v": 70
    },
    {
      "midi": 65,
      "hit": false,
      "t": 98429.35600000048,
      "d": 362.6081458333356,
      "v": 70
    },
    {
      "midi": 67,
      "hit": false,
      "t": 98829.47533333382,
      "d": 62.51864583333372,
      "v": 37
    },
    {
      "midi": 62,
      "hit": false,
      "t": 98829.47533333382,
      "d": 68.7705104166671,
      "v": 45
    },
    {
      "midi": 71,
      "hit": false,
      "t": 98829.47533333382,
      "d": 75.02237500000047,
      "v": 61
    },
    {
      "midi": 62,
      "hit": false,
      "t": 99029.53500000048,
      "d": 268.830177083335,
      "v": 88
    },
    {
      "midi": 67,
      "hit": false,
      "t": 99029.53500000048,
      "d": 343.85255208333547,
      "v": 88
    },
    {
      "midi": 71,
      "hit": false,
      "t": 99029.53500000048,
      "d": 412.62306250000256,
      "v": 97
    },
    {
      "midi": 53,
      "hit": false,
      "t": 99029.53500000048,
      "d": 618.9345937500038,
      "v": 29
    },
    {
      "midi": 60,
      "hit": false,
      "t": 99429.65433333382,
      "d": 81.27423958333384,
      "v": 45
    },
    {
      "midi": 69,
      "hit": false,
      "t": 99429.65433333382,
      "d": 100.02983333333395,
      "v": 57
    },
    {
      "midi": 65,
      "hit": false,
      "t": 99429.65433333382,
      "d": 118.78542708333407,
      "v": 53
    },
    {
      "midi": 60,
      "hit": false,
      "t": 99629.71400000049,
      "d": 725.2162916666712,
      "v": 61
    },
    {
      "midi": 69,
      "hit": false,
      "t": 99629.71400000049,
      "d": 844.0017187500052,
      "v": 61
    },
    {
      "midi": 65,
      "hit": false,
      "t": 99629.71400000049,
      "d": 850.2535833333386,
      "v": 61
    },
    {
      "midi": 53,
      "hit": false,
      "t": 100229.89300000049,
      "d": 212.56339583333465,
      "v": 57
    },
    {
      "midi": 60,
      "hit": false,
      "t": 100429.95266666716,
      "d": 68.7705104166671,
      "v": 70
    },
    {
      "midi": 46,
      "hit": false,
      "t": 100630.01233333383,
      "d": 37.51118750000023,
      "v": 24
    },
    {
      "midi": 48,
      "hit": false,
      "t": 100630.01233333383,
      "d": 56.26678125000035,
      "v": 61
    },
    {
      "midi": 56,
      "hit": false,
      "t": 100830.0720000005,
      "d": 293.8376354166685,
      "v": 79
    },
    {
      "midi": 41,
      "hit": false,
      "t": 100830.0720000005,
      "d": 650.1939166666707,
      "v": 70
    },
    {
      "midi": 59,
      "hit": false,
      "t": 100830.0720000005,
      "d": 700.2088333333377,
      "v": 79
    },
    {
      "midi": 65,
      "hit": false,
      "t": 100830.0720000005,
      "d": 712.7125625000044,
      "v": 70
    },
    {
      "midi": 62,
      "hit": false,
      "t": 100830.0720000005,
      "d": 725.2162916666712,
      "v": 79
    },
    {
      "midi": 56,
      "hit": false,
      "t": 101430.2510000005,
      "d": 137.5410208333342,
      "v": 49
    },
    {
      "midi": 41,
      "hit": false,
      "t": 101830.37033333383,
      "d": 50.01491666666698,
      "v": 45
    },
    {
      "midi": 67,
      "hit": false,
      "t": 102030.4300000005,
      "d": 212.56339583333465,
      "v": 61
    },
    {
      "midi": 65,
      "hit": false,
      "t": 102230.48966666717,
      "d": 156.2966145833343,
      "v": 70
    },
    {
      "midi": 64,
      "hit": false,
      "t": 102430.54933333384,
      "d": 43.763052083333605,
      "v": 69
    },
    {
      "midi": 56,
      "hit": false,
      "t": 102630.6090000005,
      "d": 431.3786562500027,
      "v": 70
    },
    {
      "midi": 59,
      "hit": false,
      "t": 102630.6090000005,
      "d": 437.63052083333605,
      "v": 88
    },
    {
      "midi": 62,
      "hit": false,
      "t": 102630.6090000005,
      "d": 481.39357291666965,
      "v": 88
    },
    {
      "midi": 65,
      "hit": false,
      "t": 102630.6090000005,
      "d": 706.460697916671,
      "v": 88
    },
    {
      "midi": 35,
      "hit": false,
      "t": 102630.6090000005,
      "d": 1219.1135937500076,
      "v": 61
    },
    {
      "midi": 59,
      "hit": false,
      "t": 103230.78800000051,
      "d": 193.80780208333454,
      "v": 53
    },
    {
      "midi": 56,
      "hit": false,
      "t": 103230.78800000051,
      "d": 200.0596666666679,
      "v": 45
    },
    {
      "midi": 53,
      "hit": false,
      "t": 103230.78800000051,
      "d": 206.31153125000128,
      "v": 41
    },
    {
      "midi": 62,
      "hit": false,
      "t": 103230.78800000051,
      "d": 231.31898958333477,
      "v": 13
    },
    {
      "midi": 47,
      "hit": false,
      "t": 103630.90733333385,
      "d": 268.830177083335,
      "v": 53
    },
    {
      "midi": 59,
      "hit": false,
      "t": 103830.96700000051,
      "d": 262.57831250000163,
      "v": 70
    },
    {
      "midi": 62,
      "hit": false,
      "t": 103830.96700000051,
      "d": 281.33390625000175,
      "v": 79
    },
    {
      "midi": 53,
      "hit": false,
      "t": 103830.96700000051,
      "d": 293.8376354166685,
      "v": 61
    },
    {
      "midi": 56,
      "hit": false,
      "t": 103830.96700000051,
      "d": 300.08950000000186,
      "v": 57
    },
    {
      "midi": 65,
      "hit": false,
      "t": 103830.96700000051,
      "d": 618.9345937500038,
      "v": 79
    },
    {
      "midi": 35,
      "hit": false,
      "t": 104231.08633333385,
      "d": 87.52610416666721,
      "v": 97
    },
    {
      "midi": 60,
      "hit": false,
      "t": 104431.14600000052,
      "d": 150.04475000000093,
      "v": 79
    },
    {
      "midi": 64,
      "hit": false,
      "t": 104431.14600000052,
      "d": 150.04475000000093,
      "v": 70
    },
    {
      "midi": 55,
      "hit": false,
      "t": 104431.14600000052,
      "d": 156.2966145833343,
      "v": 61
    },
    {
      "midi": 36,
      "hit": false,
      "t": 104431.14600000052,
      "d": 2707.05736458335,
      "v": 79
    },
    {
      "midi": 60,
      "hit": false,
      "t": 105031.32500000052,
      "d": 100.02983333333395,
      "v": 53
    },
    {
      "midi": 64,
      "hit": false,
      "t": 105031.32500000052,
      "d": 100.02983333333395,
      "v": 53
    },
    {
      "midi": 55,
      "hit": false,
      "t": 105031.32500000052,
      "d": 106.28169791666733,
      "v": 41
    },
    {
      "midi": 60,
      "hit": false,
      "t": 105631.50400000052,
      "d": 56.26678125000035,
      "v": 61
    },
    {
      "midi": 64,
      "hit": false,
      "t": 105631.50400000052,
      "d": 56.26678125000035,
      "v": 61
    },
    {
      "midi": 55,
      "hit": false,
      "t": 105631.50400000052,
      "d": 75.02237500000047,
      "v": 53
    },
    {
      "midi": 43,
      "hit": false,
      "t": 106031.62333333386,
      "d": 237.57085416666814,
      "v": 61
    },
    {
      "midi": 55,
      "hit": false,
      "t": 106231.68300000053,
      "d": 231.31898958333477,
      "v": 88
    },
    {
      "midi": 64,
      "hit": false,
      "t": 106231.68300000053,
      "d": 556.4159479166701,
      "v": 97
    },
    {
      "midi": 60,
      "hit": false,
      "t": 106231.68300000053,
      "d": 706.460697916671,
      "v": 97
    },
    {
      "midi": 48,
      "hit": false,
      "t": 106231.68300000053,
      "d": 944.0315520833392,
      "v": 61
    },
    {
      "midi": 57,
      "hit": false,
      "t": 106631.80233333386,
      "d": 93.77796875000058,
      "v": 57
    },
    {
      "midi": 65,
      "hit": false,
      "t": 106631.80233333386,
      "d": 237.57085416666814,
      "v": 79
    },
    {
      "midi": 64,
      "hit": false,
      "t": 106831.86200000053,
      "d": 200.0596666666679,
      "v": 70
    },
    {
      "midi": 55,
      "hit": false,
      "t": 106831.86200000053,
      "d": 243.8227187500015,
      "v": 70
    },
    {
      "midi": 43,
      "hit": false,
      "t": 107231.98133333387,
      "d": 206.31153125000128,
      "v": 70
    },
    {
      "midi": 36,
      "hit": false,
      "t": 107432.04100000054,
      "d": 212.56339583333465,
      "v": 70
    },
    {
      "midi": 55,
      "hit": false,
      "t": 107432.04100000054,
      "d": 218.81526041666802,
      "v": 88
    },
    {
      "midi": 64,
      "hit": false,
      "t": 107432.04100000054,
      "d": 456.38611458333617,
      "v": 88
    },
    {
      "midi": 38,
      "hit": false,
      "t": 107632.1006666672,
      "d": 168.80034375000105,
      "v": 70
    },
    {
      "midi": 57,
      "hit": false,
      "t": 107632.1006666672,
      "d": 262.57831250000163,
      "v": 79
    },
    {
      "midi": 40,
      "hit": false,
      "t": 107832.16033333387,
      "d": 68.7705104166671,
      "v": 79
    },
    {
      "midi": 58,
      "hit": false,
      "t": 107832.16033333387,
      "d": 175.05220833333442,
      "v": 61
    },
    {
      "midi": 55,
      "hit": false,
      "t": 108032.22000000054,
      "d": 237.57085416666814,
      "v": 79
    },
    {
      "midi": 59,
      "hit": false,
      "t": 108032.22000000054,
      "d": 612.6827291666705,
      "v": 79
    },
    {
      "midi": 62,
      "hit": false,
      "t": 108032.22000000054,
      "d": 643.9420520833373,
      "v": 88
    },
    {
      "midi": 40,
      "hit": false,
      "t": 108032.22000000054,
      "d": 1162.8468125000072,
      "v": 70
    },
    {
      "midi": 55,
      "hit": false,
      "t": 108632.39900000054,
      "d": 93.77796875000058,
      "v": 53
    },
    {
      "midi": 47,
      "hit": false,
      "t": 109032.51833333388,
      "d": 256.32644791666826,
      "v": 45
    },
    {
      "midi": 55,
      "hit": false,
      "t": 109232.57800000055,
      "d": 62.51864583333372,
      "v": 53
    },
    {
      "midi": 62,
      "hit": false,
      "t": 109232.57800000055,
      "d": 75.02237500000047,
      "v": 61
    },
    {
      "midi": 71,
      "hit": false,
      "t": 109232.57800000055,
      "d": 75.02237500000047,
      "v": 79
    },
    {
      "midi": 67,
      "hit": false,
      "t": 109232.57800000055,
      "d": 87.52610416666721,
      "v": 61
    },
    {
      "midi": 72,
      "hit": false,
      "t": 109632.69733333388,
      "d": 125.03729166666744,
      "v": 88
    },
    {
      "midi": 69,
      "hit": false,
      "t": 109632.69733333388,
      "d": 162.54847916666768,
      "v": 79
    },
    {
      "midi": 64,
      "hit": false,
      "t": 109632.69733333388,
      "d": 168.80034375000105,
      "v": 70
    },
    {
      "midi": 47,
      "hit": false,
      "t": 109632.69733333388,
      "d": 225.0671250000014,
      "v": 70
    },
    {
      "midi": 74,
      "hit": false,
      "t": 109832.75700000055,
      "d": 293.8376354166685,
      "v": 88
    },
    {
      "midi": 67,
      "hit": false,
      "t": 109832.75700000055,
      "d": 368.86001041666896,
      "v": 79
    },
    {
      "midi": 71,
      "hit": false,
      "t": 109832.75700000055,
      "d": 375.1118750000023,
      "v": 70
    },
    {
      "midi": 40,
      "hit": false,
      "t": 109832.75700000055,
      "d": 1144.091218750007,
      "v": 70
    },
    {
      "midi": 64,
      "hit": false,
      "t": 110232.87633333389,
      "d": 56.26678125000035,
      "v": 57
    },
    {
      "midi": 69,
      "hit": false,
      "t": 110232.87633333389,
      "d": 162.54847916666768,
      "v": 70
    },
    {
      "midi": 72,
      "hit": false,
      "t": 110232.87633333389,
      "d": 200.0596666666679,
      "v": 61
    },
    {
      "midi": 71,
      "hit": false,
      "t": 110432.93600000055,
      "d": 543.9122187500034,
      "v": 70
    },
    {
      "midi": 62,
      "hit": false,
      "t": 110432.93600000055,
      "d": 606.4308645833371,
      "v": 79
    },
    {
      "midi": 67,
      "hit": false,
      "t": 110432.93600000055,
      "d": 956.5352812500059,
      "v": 79
    },
    {
      "midi": 47,
      "hit": false,
      "t": 110632.99566666722,
      "d": 262.57831250000163,
      "v": 57
    },
    {
      "midi": 55,
      "hit": false,
      "t": 111033.11500000056,
      "d": 87.52610416666721,
      "v": 61
    },
    {
      "midi": 71,
      "hit": false,
      "t": 111033.11500000056,
      "d": 381.3637395833357,
      "v": 70
    },
    {
      "midi": 74,
      "hit": false,
      "t": 111033.11500000056,
      "d": 381.3637395833357,
      "v": 97
    },
    {
      "midi": 40,
      "hit": false,
      "t": 111433.2343333339,
      "d": 87.52610416666721,
      "v": 70
    },
    {
      "midi": 62,
      "hit": false,
      "t": 111433.2343333339,
      "d": 93.77796875000058,
      "v": 53
    },
    {
      "midi": 60,
      "hit": false,
      "t": 111633.29400000056,
      "d": 675.2013750000042,
      "v": 79
    },
    {
      "midi": 65,
      "hit": false,
      "t": 111633.29400000056,
      "d": 818.9942604166718,
      "v": 88
    },
    {
      "midi": 69,
      "hit": false,
      "t": 111633.29400000056,
      "d": 856.505447916672,
      "v": 79
    },
    {
      "midi": 72,
      "hit": false,
      "t": 111633.29400000056,
      "d": 856.505447916672,
      "v": 88
    },
    {
      "midi": 41,
      "hit": false,
      "t": 111633.29400000056,
      "d": 1206.6098645833408,
      "v": 70
    },
    {
      "midi": 57,
      "hit": false,
      "t": 112233.47300000057,
      "d": 368.86001041666896,
      "v": 53
    },
    {
      "midi": 60,
      "hit": false,
      "t": 112433.53266666723,
      "d": 150.04475000000093,
      "v": 53
    },
    {
      "midi": 65,
      "hit": false,
      "t": 112633.5923333339,
      "d": 100.02983333333395,
      "v": 70
    },
    {
      "midi": 57,
      "hit": false,
      "t": 112833.65200000057,
      "d": 81.27423958333384,
      "v": 57
    },
    {
      "midi": 67,
      "hit": false,
      "t": 112833.65200000057,
      "d": 131.28915625000081,
      "v": 88
    },
    {
      "midi": 60,
      "hit": false,
      "t": 113033.71166666724,
      "d": 168.80034375000105,
      "v": 57
    },
    {
      "midi": 67,
      "hit": false,
      "t": 113233.7713333339,
      "d": 68.7705104166671,
      "v": 88
    },
    {
      "midi": 48,
      "hit": false,
      "t": 113233.7713333339,
      "d": 756.475614583338,
      "v": 57
    },
    {
      "midi": 69,
      "hit": false,
      "t": 113433.83100000057,
      "d": 418.87492708333593,
      "v": 97
    },
    {
      "midi": 57,
      "hit": false,
      "t": 113433.83100000057,
      "d": 1037.8095208333398,
      "v": 49
    },
    {
      "midi": 41,
      "hit": false,
      "t": 113433.83100000057,
      "d": 1194.106135416674,
      "v": 70
    },
    {
      "midi": 67,
      "hit": false,
      "t": 113833.95033333391,
      "d": 212.56339583333465,
      "v": 70
    },
    {
      "midi": 60,
      "hit": false,
      "t": 114034.01000000058,
      "d": 675.2013750000042,
      "v": 57
    },
    {
      "midi": 65,
      "hit": false,
      "t": 114034.01000000058,
      "d": 781.4830729166715,
      "v": 70
    },
    {
      "midi": 48,
      "hit": false,
      "t": 114434.12933333391,
      "d": 250.07458333333489,
      "v": 61
    },
    {
      "midi": 57,
      "hit": false,
      "t": 114634.18900000058,
      "d": 106.28169791666733,
      "v": 70
    },
    {
      "midi": 60,
      "hit": false,
      "t": 114834.24866666725,
      "d": 162.54847916666768,
      "v": 79
    },
    {
      "midi": 60,
      "hit": false,
      "t": 115034.30833333392,
      "d": 25.00745833333349,
      "v": 33
    },
    {
      "midi": 41,
      "hit": false,
      "t": 115034.30833333392,
      "d": 93.77796875000058,
      "v": 70
    },
    {
      "midi": 65,
      "hit": false,
      "t": 115034.30833333392,
      "d": 106.28169791666733,
      "v": 88
    },
    {
      "midi": 65,
      "hit": false,
      "t": 115234.36800000058,
      "d": 375.1118750000023,
      "v": 97
    },
    {
      "midi": 60,
      "hit": false,
      "t": 115234.36800000058,
      "d": 393.86746875000244,
      "v": 88
    },
    {
      "midi": 43,
      "hit": false,
      "t": 115234.36800000058,
      "d": 1069.0688437500066,
      "v": 61
    },
    {
      "midi": 69,
      "hit": false,
      "t": 115234.36800000058,
      "d": 1194.106135416674,
      "v": 97
    },
    {
      "midi": 65,
      "hit": false,
      "t": 115834.54700000059,
      "d": 100.02983333333395,
      "v": 57
    },
    {
      "midi": 60,
      "hit": false,
      "t": 115834.54700000059,
      "d": 125.03729166666744,
      "v": 53
    },
    {
      "midi": 65,
      "hit": false,
      "t": 116434.72600000059,
      "d": 56.26678125000035,
      "v": 61
    },
    {
      "midi": 60,
      "hit": false,
      "t": 116434.72600000059,
      "d": 81.27423958333384,
      "v": 61
    },
    {
      "midi": 38,
      "hit": false,
      "t": 116834.84533333393,
      "d": 237.57085416666814,
      "v": 88
    },
    {
      "midi": 59,
      "hit": false,
      "t": 117034.9050000006,
      "d": 43.763052083333605,
      "v": 53
    },
    {
      "midi": 60,
      "hit": false,
      "t": 117034.9050000006,
      "d": 243.8227187500015,
      "v": 70
    },
    {
      "midi": 72,
      "hit": false,
      "t": 117034.9050000006,
      "d": 287.5857708333351,
      "v": 88
    },
    {
      "midi": 31,
      "hit": false,
      "t": 117034.9050000006,
      "d": 312.5932291666686,
      "v": 57
    },
    {
      "midi": 69,
      "hit": false,
      "t": 117034.9050000006,
      "d": 343.85255208333547,
      "v": 88
    },
    {
      "midi": 65,
      "hit": false,
      "t": 117034.9050000006,
      "d": 568.9196770833369,
      "v": 88
    },
    {
      "midi": 33,
      "hit": false,
      "t": 117635.0840000006,
      "d": 287.5857708333351,
      "v": 79
    },
    {
      "midi": 62,
      "hit": false,
      "t": 117635.0840000006,
      "d": 306.34136458333523,
      "v": 70
    },
    {
      "midi": 67,
      "hit": false,
      "t": 117635.0840000006,
      "d": 543.9122187500034,
      "v": 88
    },
    {
      "midi": 71,
      "hit": false,
      "t": 117635.0840000006,
      "d": 612.6827291666705,
      "v": 88
    },
    {
      "midi": 65,
      "hit": false,
      "t": 118235.2630000006,
      "d": 243.8227187500015,
      "v": 88
    },
    {
      "midi": 69,
      "hit": false,
      "t": 118235.2630000006,
      "d": 243.8227187500015,
      "v": 79
    },
    {
      "midi": 35,
      "hit": false,
      "t": 118235.2630000006,
      "d": 262.57831250000163,
      "v": 79
    },
    {
      "midi": 60,
      "hit": false,
      "t": 118235.2630000006,
      "d": 312.5932291666686,
      "v": 88
    },
    {
      "midi": 43,
      "hit": false,
      "t": 118635.38233333394,
      "d": 193.80780208333454,
      "v": 79
    },
    {
      "midi": 55,
      "hit": false,
      "t": 118835.4420000006,
      "d": 393.86746875000244,
      "v": 57
    },
    {
      "midi": 60,
      "hit": false,
      "t": 118835.4420000006,
      "d": 656.4457812500041,
      "v": 88
    },
    {
      "midi": 64,
      "hit": false,
      "t": 118835.4420000006,
      "d": 675.2013750000042,
      "v": 79
    },
    {
      "midi": 67,
      "hit": false,
      "t": 118835.4420000006,
      "d": 1844.3000520833448,
      "v": 88
    },
    {
      "midi": 36,
      "hit": false,
      "t": 118835.4420000006,
      "d": 2775.8278750000172,
      "v": 70
    },
    {
      "midi": 55,
      "hit": false,
      "t": 119435.62100000061,
      "d": 81.27423958333384,
      "v": 61
    },
    {
      "midi": 60,
      "hit": false,
      "t": 120035.80000000061,
      "d": 43.763052083333605,
      "v": 61
    },
    {
      "midi": 64,
      "hit": false,
      "t": 120035.80000000061,
      "d": 50.01491666666698,
      "v": 57
    },
    {
      "midi": 55,
      "hit": false,
      "t": 120035.80000000061,
      "d": 75.02237500000047,
      "v": 57
    },
    {
      "midi": 43,
      "hit": false,
      "t": 120435.91933333395,
      "d": 243.8227187500015,
      "v": 61
    },
    {
      "midi": 55,
      "hit": false,
      "t": 120635.97900000062,
      "d": 175.05220833333442,
      "v": 70
    },
    {
      "midi": 64,
      "hit": false,
      "t": 120635.97900000062,
      "d": 406.3711979166692,
      "v": 79
    },
    {
      "midi": 60,
      "hit": false,
      "t": 120635.97900000062,
      "d": 556.4159479166701,
      "v": 79
    },
    {
      "midi": 48,
      "hit": false,
      "t": 120635.97900000062,
      "d": 919.0240937500057,
      "v": 70
    },
    {
      "midi": 57,
      "hit": false,
      "t": 121036.09833333395,
      "d": 106.28169791666733,
      "v": 53
    },
    {
      "midi": 65,
      "hit": false,
      "t": 121036.09833333395,
      "d": 256.32644791666826,
      "v": 61
    },
    {
      "midi": 64,
      "hit": false,
      "t": 121236.15800000062,
      "d": 206.31153125000128,
      "v": 88
    },
    {
      "midi": 60,
      "hit": false,
      "t": 121236.15800000062,
      "d": 218.81526041666802,
      "v": 70
    },
    {
      "midi": 55,
      "hit": false,
      "t": 121236.15800000062,
      "d": 287.5857708333351,
      "v": 70
    },
    {
      "midi": 43,
      "hit": false,
      "t": 121636.27733333396,
      "d": 225.0671250000014,
      "v": 61
    },
    {
      "midi": 55,
      "hit": false,
      "t": 121836.33700000063,
      "d": 218.81526041666802,
      "v": 79
    },
    {
      "midi": 64,
      "hit": false,
      "t": 121836.33700000063,
      "d": 400.1193333333358,
      "v": 88
    },
    {
      "midi": 36,
      "hit": false,
      "t": 121836.33700000063,
      "d": 412.62306250000256,
      "v": 79
    },
    {
      "midi": 57,
      "hit": false,
      "t": 122036.3966666673,
      "d": 237.57085416666814,
      "v": 88
    },
    {
      "midi": 58,
      "hit": false,
      "t": 122236.45633333396,
      "d": 168.80034375000105,
      "v": 88
    },
    {
      "midi": 38,
      "hit": false,
      "t": 122236.45633333396,
      "d": 193.80780208333454,
      "v": 88
    },
    {
      "midi": 55,
      "hit": false,
      "t": 122436.51600000063,
      "d": 331.3488229166687,
      "v": 88
    },
    {
      "midi": 59,
      "hit": false,
      "t": 122436.51600000063,
      "d": 337.6006875000021,
      "v": 79
    },
    {
      "midi": 40,
      "hit": false,
      "t": 122436.51600000063,
      "d": 825.2461250000051,
      "v": 70
    },
    {
      "midi": 62,
      "hit": false,
      "t": 122436.51600000063,
      "d": 1237.8691875000077,
      "v": 88
    },
    {
      "midi": 59,
      "hit": false,
      "t": 123036.69500000063,
      "d": 75.02237500000047,
      "v": 57
    },
    {
      "midi": 55,
      "hit": false,
      "t": 123036.69500000063,
      "d": 100.02983333333395,
      "v": 57
    },
    {
      "midi": 59,
      "hit": false,
      "t": 123636.87400000064,
      "d": 75.02237500000047,
      "v": 61
    },
    {
      "midi": 55,
      "hit": false,
      "t": 123636.87400000064,
      "d": 93.77796875000058,
      "v": 57
    },
    {
      "midi": 47,
      "hit": false,
      "t": 124036.99333333397,
      "d": 225.0671250000014,
      "v": 70
    },
    {
      "midi": 62,
      "hit": false,
      "t": 124237.05300000064,
      "d": 106.28169791666733,
      "v": 79
    },
    {
      "midi": 67,
      "hit": false,
      "t": 124237.05300000064,
      "d": 125.03729166666744,
      "v": 88
    },
    {
      "midi": 71,
      "hit": false,
      "t": 124237.05300000064,
      "d": 125.03729166666744,
      "v": 79
    },
    {
      "midi": 40,
      "hit": false,
      "t": 124237.05300000064,
      "d": 1356.6546145833418,
      "v": 49
    },
    {
      "midi": 64,
      "hit": false,
      "t": 124637.17233333398,
      "d": 93.77796875000058,
      "v": 70
    },
    {
      "midi": 69,
      "hit": false,
      "t": 124637.17233333398,
      "d": 150.04475000000093,
      "v": 88
    },
    {
      "midi": 72,
      "hit": false,
      "t": 124637.17233333398,
      "d": 218.81526041666802,
      "v": 88
    },
    {
      "midi": 71,
      "hit": false,
      "t": 124837.23200000064,
      "d": 456.38611458333617,
      "v": 79
    },
    {
      "midi": 62,
      "hit": false,
      "t": 124837.23200000064,
      "d": 675.2013750000042,
      "v": 79
    },
    {
      "midi": 67,
      "hit": false,
      "t": 124837.23200000064,
      "d": 912.7722291666723,
      "v": 79
    },
    {
      "midi": 55,
      "hit": false,
      "t": 125237.35133333398,
      "d": 381.3637395833357,
      "v": 45
    },
    {
      "midi": 74,
      "hit": false,
      "t": 125437.41100000065,
      "d": 281.33390625000175,
      "v": 88
    },
    {
      "midi": 71,
      "hit": false,
      "t": 125437.41100000065,
      "d": 300.08950000000186,
      "v": 88
    },
    {
      "midi": 40,
      "hit": false,
      "t": 125837.53033333398,
      "d": 93.77796875000058,
      "v": 61
    },
    {
      "midi": 65,
      "hit": false,
      "t": 126037.59000000065,
      "d": 206.31153125000128,
      "v": 79
    },
    {
      "midi": 60,
      "hit": false,
      "t": 126037.59000000065,
      "d": 212.56339583333465,
      "v": 70
    },
    {
      "midi": 69,
      "hit": false,
      "t": 126037.59000000065,
      "d": 237.57085416666814,
      "v": 79
    },
    {
      "midi": 72,
      "hit": false,
      "t": 126037.59000000065,
      "d": 1850.5519166666782,
      "v": 88
    },
    {
      "midi": 41,
      "hit": false,
      "t": 126037.59000000065,
      "d": 3000.8950000000186,
      "v": 61
    },
    {
      "midi": 60,
      "hit": false,
      "t": 126637.76900000066,
      "d": 56.26678125000035,
      "v": 57
    },
    {
      "midi": 65,
      "hit": false,
      "t": 126637.76900000066,
      "d": 62.51864583333372,
      "v": 61
    },
    {
      "midi": 69,
      "hit": false,
      "t": 126637.76900000066,
      "d": 62.51864583333372,
      "v": 61
    },
    {
      "midi": 65,
      "hit": false,
      "t": 127237.94800000066,
      "d": 43.763052083333605,
      "v": 79
    },
    {
      "midi": 60,
      "hit": false,
      "t": 127237.94800000066,
      "d": 56.26678125000035,
      "v": 70
    },
    {
      "midi": 69,
      "hit": false,
      "t": 127237.94800000066,
      "d": 62.51864583333372,
      "v": 70
    },
    {
      "midi": 48,
      "hit": false,
      "t": 127638.067333334,
      "d": 687.7051041666709,
      "v": 57
    },
    {
      "midi": 60,
      "hit": false,
      "t": 127838.12700000066,
      "d": 143.79288541666756,
      "v": 70
    },
    {
      "midi": 69,
      "hit": false,
      "t": 127838.12700000066,
      "d": 156.2966145833343,
      "v": 79
    },
    {
      "midi": 65,
      "hit": false,
      "t": 127838.12700000066,
      "d": 175.05220833333442,
      "v": 79
    },
    {
      "midi": 53,
      "hit": false,
      "t": 127838.12700000066,
      "d": 994.0464687500062,
      "v": 53
    },
    {
      "midi": 62,
      "hit": false,
      "t": 128238.246333334,
      "d": 112.5335625000007,
      "v": 61
    },
    {
      "midi": 65,
      "hit": false,
      "t": 128238.246333334,
      "d": 156.2966145833343,
      "v": 61
    },
    {
      "midi": 70,
      "hit": false,
      "t": 128238.246333334,
      "d": 168.80034375000105,
      "v": 79
    },
    {
      "midi": 65,
      "hit": false,
      "t": 128438.30600000067,
      "d": 512.6528958333365,
      "v": 70
    },
    {
      "midi": 60,
      "hit": false,
      "t": 128438.30600000067,
      "d": 600.1790000000037,
      "v": 61
    },
    {
      "midi": 69,
      "hit": false,
      "t": 128438.30600000067,
      "d": 781.4830729166715,
      "v": 61
    },
    {
      "midi": 48,
      "hit": false,
      "t": 128838.425333334,
      "d": 275.0820416666684,
      "v": 53
    },
    {
      "midi": 53,
      "hit": false,
      "t": 129038.48500000067,
      "d": 162.54847916666768,
      "v": 61
    },
    {
      "midi": 60,
      "hit": false,
      "t": 129238.54466666734,
      "d": 125.03729166666744,
      "v": 79
    },
    {
      "midi": 41,
      "hit": false,
      "t": 129438.604333334,
      "d": 87.52610416666721,
      "v": 70
    },
    {
      "midi": 65,
      "hit": false,
      "t": 129438.604333334,
      "d": 100.02983333333395,
      "v": 88
    },
    {
      "midi": 65,
      "hit": false,
      "t": 129638.66400000067,
      "d": 318.845093750002,
      "v": 97
    },
    {
      "midi": 60,
      "hit": false,
      "t": 129638.66400000067,
      "d": 368.86001041666896,
      "v": 88
    },
    {
      "midi": 43,
      "hit": false,
      "t": 129638.66400000067,
      "d": 1131.5874895833404,
      "v": 61
    },
    {
      "midi": 69,
      "hit": false,
      "t": 129638.66400000067,
      "d": 1206.6098645833408,
      "v": 97
    },
    {
      "midi": 65,
      "hit": false,
      "t": 130238.84300000068,
      "d": 93.77796875000058,
      "v": 57
    },
    {
      "midi": 60,
      "hit": false,
      "t": 130238.84300000068,
      "d": 100.02983333333395,
      "v": 61
    },
    {
      "midi": 65,
      "hit": false,
      "t": 130839.02200000068,
      "d": 68.7705104166671,
      "v": 70
    },
    {
      "midi": 60,
      "hit": false,
      "t": 130839.02200000068,
      "d": 106.28169791666733,
      "v": 61
    },
    {
      "midi": 38,
      "hit": false,
      "t": 131239.141333334,
      "d": 200.0596666666679,
      "v": 88
    },
    {
      "midi": 67,
      "hit": false,
      "t": 131439.20100000067,
      "d": 268.83017708332045,
      "v": 79
    },
    {
      "midi": 62,
      "hit": false,
      "t": 131439.20100000067,
      "d": 306.3413645833207,
      "v": 88
    },
    {
      "midi": 59,
      "hit": false,
      "t": 131439.20100000067,
      "d": 325.09695833330625,
      "v": 79
    },
    {
      "midi": 31,
      "hit": false,
      "t": 131439.20100000067,
      "d": 462.63797916664043,
      "v": 88
    },
    {
      "midi": 71,
      "hit": false,
      "t": 131439.20100000067,
      "d": 1206.609864583268,
      "v": 88
    },
    {
      "midi": 59,
      "hit": false,
      "t": 132039.38000000064,
      "d": 112.5335625000007,
      "v": 61
    },
    {
      "midi": 62,
      "hit": false,
      "t": 132039.38000000064,
      "d": 112.5335625000007,
      "v": 70
    },
    {
      "midi": 67,
      "hit": false,
      "t": 132039.38000000064,
      "d": 131.28915624998626,
      "v": 70
    },
    {
      "midi": 50,
      "hit": false,
      "t": 132439.49933333395,
      "d": 256.3264479166537,
      "v": 57
    },
    {
      "midi": 43,
      "hit": false,
      "t": 132639.55900000062,
      "d": 62.51864583330462,
      "v": 57
    },
    {
      "midi": 59,
      "hit": false,
      "t": 132639.55900000062,
      "d": 162.54847916663857,
      "v": 61
    },
    {
      "midi": 67,
      "hit": false,
      "t": 132639.55900000062,
      "d": 350.10441666663974,
      "v": 79
    },
    {
      "midi": 62,
      "hit": false,
      "t": 132639.55900000062,
      "d": 368.8600104166253,
      "v": 61
    },
    {
      "midi": 59,
      "hit": false,
      "t": 133039.6783333339,
      "d": 68.77051041665254,
      "v": 53
    },
    {
      "midi": 62,
      "hit": false,
      "t": 133239.73800000054,
      "d": 268.83017708332045,
      "v": 79
    },
    {
      "midi": 58,
      "hit": false,
      "t": 133239.73800000054,
      "d": 275.08204166663927,
      "v": 88
    },
    {
      "midi": 67,
      "hit": false,
      "t": 133239.73800000054,
      "d": 1269.1285104166018,
      "v": 79
    },
    {
      "midi": 39,
      "hit": false,
      "t": 133239.73800000054,
      "d": 3063.4136458331195,
      "v": 88
    },
    {
      "midi": 62,
      "hit": false,
      "t": 133839.91700000048,
      "d": 87.52610416666721,
      "v": 57
    },
    {
      "midi": 58,
      "hit": false,
      "t": 133839.91700000048,
      "d": 100.02983333333395,
      "v": 53
    },
    {
      "midi": 62,
      "hit": false,
      "t": 134440.09600000049,
      "d": 100.02983333330485,
      "v": 61
    },
    {
      "midi": 58,
      "hit": false,
      "t": 134440.09600000049,
      "d": 143.7928854166239,
      "v": 57
    },
    {
      "midi": 46,
      "hit": false,
      "t": 134840.21533333376,
      "d": 1469.1881770832115,
      "v": 61
    },
    {
      "midi": 55,
      "hit": false,
      "t": 135040.27500000043,
      "d": 168.8003437499865,
      "v": 79
    },
    {
      "midi": 58,
      "hit": false,
      "t": 135040.27500000043,
      "d": 187.55593749997206,
      "v": 70
    },
    {
      "midi": 62,
      "hit": false,
      "t": 135040.27500000043,
      "d": 187.55593749997206,
      "v": 70
    },
    {
      "midi": 65,
      "hit": false,
      "t": 135040.27500000043,
      "d": 193.80780208329088,
      "v": 79
    },
    {
      "midi": 50,
      "hit": false,
      "t": 135040.27500000043,
      "d": 1244.1210520832392,
      "v": 57
    },
    {
      "midi": 58,
      "hit": false,
      "t": 135640.45400000038,
      "d": 131.28915624998626,
      "v": 61
    },
    {
      "midi": 62,
      "hit": false,
      "t": 135640.45400000038,
      "d": 131.28915624998626,
      "v": 57
    },
    {
      "midi": 65,
      "hit": false,
      "t": 135640.45400000038,
      "d": 131.28915624998626,
      "v": 57
    },
    {
      "midi": 55,
      "hit": false,
      "t": 135640.45400000038,
      "d": 137.54102083330508,
      "v": 57
    },
    {
      "midi": 55,
      "hit": false,
      "t": 136240.63300000035,
      "d": 187.55593749994296,
      "v": 61
    },
    {
      "midi": 62,
      "hit": false,
      "t": 136240.63300000035,
      "d": 325.09695833327714,
      "v": 61
    },
    {
      "midi": 58,
      "hit": false,
      "t": 136240.63300000035,
      "d": 343.8525520832627,
      "v": 70
    },
    {
      "midi": 65,
      "hit": false,
      "t": 136240.63300000035,
      "d": 400.1193333332485,
      "v": 61
    },
    {
      "midi": 55,
      "hit": false,
      "t": 136640.7523333336,
      "d": 100.02983333333395,
      "v": 61
    },
    {
      "midi": 39,
      "hit": false,
      "t": 136640.7523333336,
      "d": 243.82271874998696,
      "v": 70
    },
    {
      "midi": 56,
      "hit": false,
      "t": 136840.81200000027,
      "d": 268.83017708332045,
      "v": 70
    },
    {
      "midi": 60,
      "hit": false,
      "t": 136840.81200000027,
      "d": 281.3339062499872,
      "v": 79
    },
    {
      "midi": 55,
      "hit": false,
      "t": 136840.81200000027,
      "d": 287.585770833306,
      "v": 61
    },
    {
      "midi": 63,
      "hit": false,
      "t": 136840.81200000027,
      "d": 287.585770833306,
      "v": 61
    },
    {
      "midi": 32,
      "hit": false,
      "t": 136840.81200000027,
      "d": 3125.9322916664823,
      "v": 88
    },
    {
      "midi": 60,
      "hit": false,
      "t": 137440.99100000024,
      "d": 181.30407291665324,
      "v": 70
    },
    {
      "midi": 63,
      "hit": false,
      "t": 137440.99100000024,
      "d": 181.30407291665324,
      "v": 57
    },
    {
      "midi": 55,
      "hit": false,
      "t": 137440.99100000024,
      "d": 231.31898958332022,
      "v": 49
    },
    {
      "midi": 56,
      "hit": false,
      "t": 137440.99100000024,
      "d": 243.82271874998696,
      "v": 53
    },
    {
      "midi": 60,
      "hit": false,
      "t": 138041.17000000022,
      "d": 231.31898958332022,
      "v": 79
    },
    {
      "midi": 63,
      "hit": false,
      "t": 138041.17000000022,
      "d": 243.82271874998696,
      "v": 70
    },
    {
      "midi": 55,
      "hit": false,
      "t": 138041.17000000022,
      "d": 256.3264479166537,
      "v": 61
    },
    {
      "midi": 56,
      "hit": false,
      "t": 138041.17000000022,
      "d": 268.83017708332045,
      "v": 70
    },
    {
      "midi": 39,
      "hit": false,
      "t": 138441.28933333352,
      "d": 1462.9363124999218,
      "v": 70
    },
    {
      "midi": 60,
      "hit": false,
      "t": 138641.3490000002,
      "d": 231.31898958332022,
      "v": 79
    },
    {
      "midi": 63,
      "hit": false,
      "t": 138641.3490000002,
      "d": 256.3264479166537,
      "v": 70
    },
    {
      "midi": 56,
      "hit": false,
      "t": 138641.3490000002,
      "d": 262.5783124999725,
      "v": 70
    },
    {
      "midi": 53,
      "hit": false,
      "t": 138641.3490000002,
      "d": 287.585770833306,
      "v": 70
    },
    {
      "midi": 48,
      "hit": false,
      "t": 138641.3490000002,
      "d": 743.9718854166276,
      "v": 53
    },
    {
      "midi": 60,
      "hit": false,
      "t": 139241.52800000017,
      "d": 187.55593749997206,
      "v": 79
    },
    {
      "midi": 63,
      "hit": false,
      "t": 139241.52800000017,
      "d": 193.80780208329088,
      "v": 61
    },
    {
      "midi": 56,
      "hit": false,
      "t": 139241.52800000017,
      "d": 206.31153124995762,
      "v": 61
    },
    {
      "midi": 53,
      "hit": false,
      "t": 139241.52800000017,
      "d": 218.81526041662437,
      "v": 61
    },
    {
      "midi": 48,
      "hit": false,
      "t": 139841.7070000001,
      "d": 75.02237500000047,
      "v": 57
    },
    {
      "midi": 53,
      "hit": false,
      "t": 139841.7070000001,
      "d": 106.28169791665277,
      "v": 70
    },
    {
      "midi": 60,
      "hit": false,
      "t": 139841.7070000001,
      "d": 162.54847916663857,
      "v": 79
    },
    {
      "midi": 56,
      "hit": false,
      "t": 139841.7070000001,
      "d": 168.8003437499574,
      "v": 61
    },
    {
      "midi": 63,
      "hit": false,
      "t": 139841.7070000001,
      "d": 212.56339583327645,
      "v": 70
    },
    {
      "midi": 53,
      "hit": false,
      "t": 140041.76666666672,
      "d": 106.28169791665277,
      "v": 61
    },
    {
      "midi": 31,
      "hit": false,
      "t": 140241.82633333336,
      "d": 106.28169791665277,
      "v": 88
    },
    {
      "midi": 60,
      "hit": false,
      "t": 140441.886,
      "d": 200.0596666666679,
      "v": 88
    },
    {
      "midi": 53,
      "hit": false,
      "t": 140441.886,
      "d": 206.31153124998673,
      "v": 79
    },
    {
      "midi": 56,
      "hit": false,
      "t": 140441.886,
      "d": 231.31898958332022,
      "v": 70
    },
    {
      "midi": 29,
      "hit": false,
      "t": 140441.886,
      "d": 1187.8542708332825,
      "v": 88
    },
    {
      "midi": 65,
      "hit": false,
      "t": 140441.886,
      "d": 1275.3803749999206,
      "v": 79
    },
    {
      "midi": 53,
      "hit": false,
      "t": 141042.06499999997,
      "d": 68.77051041665254,
      "v": 57
    },
    {
      "midi": 60,
      "hit": false,
      "t": 141042.06499999997,
      "d": 143.792885416653,
      "v": 79
    },
    {
      "midi": 56,
      "hit": false,
      "t": 141042.06499999997,
      "d": 175.05220833330532,
      "v": 57
    },
    {
      "midi": 41,
      "hit": false,
      "t": 141642.24399999995,
      "d": 56.2667812499858,
      "v": 49
    },
    {
      "midi": 53,
      "hit": false,
      "t": 141642.24399999995,
      "d": 106.28169791662367,
      "v": 57
    },
    {
      "midi": 60,
      "hit": false,
      "t": 141642.24399999995,
      "d": 131.28915624995716,
      "v": 79
    },
    {
      "midi": 56,
      "hit": false,
      "t": 141642.24399999995,
      "d": 137.54102083327598,
      "v": 61
    },
    {
      "midi": 48,
      "hit": false,
      "t": 142042.36333333323,
      "d": 1437.9288541666174,
      "v": 70
    },
    {
      "midi": 56,
      "hit": false,
      "t": 142242.4229999999,
      "d": 262.57831250000163,
      "v": 70
    },
    {
      "midi": 60,
      "hit": false,
      "t": 142242.4229999999,
      "d": 275.0820416666684,
      "v": 79
    },
    {
      "midi": 65,
      "hit": false,
      "t": 142242.4229999999,
      "d": 281.3339062499872,
      "v": 88
    },
    {
      "midi": 41,
      "hit": false,
      "t": 142242.4229999999,
      "d": 1187.8542708332825,
      "v": 70
    },
    {
      "midi": 68,
      "hit": false,
      "t": 142242.4229999999,
      "d": 1738.0183541665901,
      "v": 88
    },
    {
      "midi": 65,
      "hit": false,
      "t": 142842.60199999987,
      "d": 200.0596666666679,
      "v": 79
    },
    {
      "midi": 60,
      "hit": false,
      "t": 142842.60199999987,
      "d": 218.81526041665347,
      "v": 79
    },
    {
      "midi": 56,
      "hit": false,
      "t": 142842.60199999987,
      "d": 225.0671249999723,
      "v": 61
    },
    {
      "midi": 53,
      "hit": false,
      "t": 143442.78099999984,
      "d": 50.01491666666698,
      "v": 70
    },
    {
      "midi": 56,
      "hit": false,
      "t": 143442.78099999984,
      "d": 125.03729166666744,
      "v": 70
    },
    {
      "midi": 60,
      "hit": false,
      "t": 143442.78099999984,
      "d": 306.3413645833207,
      "v": 79
    },
    {
      "midi": 65,
      "hit": false,
      "t": 143442.78099999984,
      "d": 350.10441666663974,
      "v": 79
    },
    {
      "midi": 56,
      "hit": false,
      "t": 143842.90033333315,
      "d": 112.5335625000007,
      "v": 57
    },
    {
      "midi": 38,
      "hit": false,
      "t": 143842.90033333315,
      "d": 218.81526041662437,
      "v": 70
    },
    {
      "midi": 65,
      "hit": false,
      "t": 144042.9599999998,
      "d": 231.31898958332022,
      "v": 79
    },
    {
      "midi": 60,
      "hit": false,
      "t": 144042.9599999998,
      "d": 250.07458333330578,
      "v": 79
    },
    {
      "midi": 57,
      "hit": false,
      "t": 144042.9599999998,
      "d": 275.08204166663927,
      "v": 61
    },
    {
      "midi": 31,
      "hit": false,
      "t": 144042.9599999998,
      "d": 3075.9173749998445,
      "v": 88
    },
    {
      "midi": 57,
      "hit": false,
      "t": 144643.13899999976,
      "d": 268.83017708332045,
      "v": 61
    },
    {
      "midi": 60,
      "hit": false,
      "t": 144643.13899999976,
      "d": 268.83017708332045,
      "v": 88
    },
    {
      "midi": 65,
      "hit": false,
      "t": 144643.13899999976,
      "d": 268.83017708332045,
      "v": 79
    },
    {
      "midi": 65,
      "hit": false,
      "t": 145243.31799999974,
      "d": 268.83017708332045,
      "v": 79
    },
    {
      "midi": 60,
      "hit": false,
      "t": 145243.31799999974,
      "d": 281.3339062499872,
      "v": 88
    },
    {
      "midi": 57,
      "hit": false,
      "t": 145243.31799999974,
      "d": 287.585770833306,
      "v": 79
    },
    {
      "midi": 38,
      "hit": false,
      "t": 145643.43733333304,
      "d": 225.0671250000014,
      "v": 79
    },
    {
      "midi": 62,
      "hit": false,
      "t": 145843.4969999997,
      "d": 268.83017708332045,
      "v": 88
    },
    {
      "midi": 59,
      "hit": false,
      "t": 145843.4969999997,
      "d": 275.08204166663927,
      "v": 79
    },
    {
      "midi": 67,
      "hit": false,
      "t": 145843.4969999997,
      "d": 318.8450937499583,
      "v": 88
    },
    {
      "midi": 43,
      "hit": false,
      "t": 145843.4969999997,
      "d": 1344.1508854165731,
      "v": 79
    },
    {
      "midi": 62,
      "hit": false,
      "t": 146443.67599999966,
      "d": 206.31153124998673,
      "v": 88
    },
    {
      "midi": 67,
      "hit": false,
      "t": 146443.67599999966,
      "d": 225.0671249999723,
      "v": 79
    },
    {
      "midi": 59,
      "hit": false,
      "t": 146443.67599999966,
      "d": 250.07458333330578,
      "v": 70
    },
    {
      "midi": 59,
      "hit": false,
      "t": 147043.85499999963,
      "d": 275.08204166663927,
      "v": 79
    },
    {
      "midi": 67,
      "hit": false,
      "t": 147043.85499999963,
      "d": 400.1193333333067,
      "v": 88
    },
    {
      "midi": 62,
      "hit": false,
      "t": 147043.85499999963,
      "d": 581.42340624996,
      "v": 79
    },
    {
      "midi": 43,
      "hit": false,
      "t": 147443.97433333294,
      "d": 237.57085416663904,
      "v": 79
    },
    {
      "midi": 64,
      "hit": false,
      "t": 147644.03399999958,
      "d": 187.55593750000116,
      "v": 79
    },
    {
      "midi": 55,
      "hit": false,
      "t": 147644.03399999958,
      "d": 193.80780208331998,
      "v": 88
    },
    {
      "midi": 60,
      "hit": false,
      "t": 147644.03399999958,
      "d": 193.80780208331998,
      "v": 61
    },
    {
      "midi": 36,
      "hit": false,
      "t": 147644.03399999958,
      "d": 2900.86516666651,
      "v": 53
    },
    {
      "midi": 60,
      "hit": false,
      "t": 148244.21299999955,
      "d": 206.31153124998673,
      "v": 88
    },
    {
      "midi": 55,
      "hit": false,
      "t": 148244.21299999955,
      "d": 212.56339583330555,
      "v": 70
    },
    {
      "midi": 64,
      "hit": false,
      "t": 148244.21299999955,
      "d": 212.56339583330555,
      "v": 70
    },
    {
      "midi": 60,
      "hit": false,
      "t": 148844.39199999953,
      "d": 193.80780208331998,
      "v": 79
    },
    {
      "midi": 55,
      "hit": false,
      "t": 148844.39199999953,
      "d": 206.31153124998673,
      "v": 70
    },
    {
      "midi": 64,
      "hit": false,
      "t": 148844.39199999953,
      "d": 206.31153124998673,
      "v": 70
    },
    {
      "midi": 64,
      "hit": false,
      "t": 149444.5709999995,
      "d": 243.82271874998696,
      "v": 88
    },
    {
      "midi": 55,
      "hit": false,
      "t": 149444.5709999995,
      "d": 268.83017708332045,
      "v": 79
    },
    {
      "midi": 60,
      "hit": false,
      "t": 149444.5709999995,
      "d": 275.08204166663927,
      "v": 88
    },
    {
      "midi": 48,
      "hit": false,
      "t": 149444.5709999995,
      "d": 643.9420520832937,
      "v": 57
    },
    {
      "midi": 55,
      "hit": false,
      "t": 150044.74999999948,
      "d": 150.04474999997183,
      "v": 79
    },
    {
      "midi": 60,
      "hit": false,
      "t": 150044.74999999948,
      "d": 187.55593749997206,
      "v": 88
    },
    {
      "midi": 64,
      "hit": false,
      "t": 150044.74999999948,
      "d": 200.0596666666388,
      "v": 79
    },
    {
      "midi": 67,
      "hit": false,
      "t": 150044.74999999948,
      "d": 218.81526041662437,
      "v": 88
    },
    {
      "midi": 48,
      "hit": false,
      "t": 150444.86933333275,
      "d": 200.0596666666679,
      "v": 70
    },
    {
      "midi": 69,
      "hit": false,
      "t": 150644.92899999942,
      "d": 75.02237500000047,
      "v": 97
    },
    {
      "midi": 39,
      "hit": false,
      "t": 151045.04833333276,
      "d": 106.28169791665277,
      "v": 79
    },
    {
      "midi": 55,
      "hit": false,
      "t": 151245.1079999994,
      "d": 250.07458333333489,
      "v": 79
    },
    {
      "midi": 59,
      "hit": false,
      "t": 151245.1079999994,
      "d": 250.07458333333489,
      "v": 79
    },
    {
      "midi": 64,
      "hit": false,
      "t": 151245.1079999994,
      "d": 844.0017187499616,
      "v": 88
    },
    {
      "midi": 67,
      "hit": false,
      "t": 151245.1079999994,
      "d": 875.2610416666139,
      "v": 88
    },
    {
      "midi": 40,
      "hit": false,
      "t": 151245.1079999994,
      "d": 3007.1468645831337,
      "v": 79
    },
    {
      "midi": 55,
      "hit": false,
      "t": 151845.2869999994,
      "d": 162.54847916663857,
      "v": 70
    },
    {
      "midi": 59,
      "hit": false,
      "t": 151845.2869999994,
      "d": 162.54847916663857,
      "v": 61
    },
    {
      "midi": 47,
      "hit": false,
      "t": 152245.40633333268,
      "d": 231.31898958332022,
      "v": 57
    },
    {
      "midi": 67,
      "hit": false,
      "t": 152445.46599999935,
      "d": 68.77051041665254,
      "v": 70
    },
    {
      "midi": 71,
      "hit": false,
      "t": 152445.46599999935,
      "d": 68.77051041665254,
      "v": 70
    },
    {
      "midi": 62,
      "hit": false,
      "t": 152445.46599999935,
      "d": 75.02237499997136,
      "v": 79
    },
    {
      "midi": 52,
      "hit": false,
      "t": 152445.46599999935,
      "d": 293.83763541662483,
      "v": 49
    },
    {
      "midi": 64,
      "hit": false,
      "t": 152845.58533333262,
      "d": 118.78542708331952,
      "v": 97
    },
    {
      "midi": 69,
      "hit": false,
      "t": 152845.58533333262,
      "d": 187.55593749997206,
      "v": 97
    },
    {
      "midi": 72,
      "hit": false,
      "t": 152845.58533333262,
      "d": 225.0671249999723,
      "v": 88
    },
    {
      "midi": 67,
      "hit": false,
      "t": 153045.64499999926,
      "d": 300.08950000000186,
      "v": 79
    },
    {
      "midi": 71,
      "hit": false,
      "t": 153045.64499999926,
      "d": 325.09695833333535,
      "v": 79
    },
    {
      "midi": 52,
      "hit": false,
      "t": 153045.64499999926,
      "d": 331.34882291665417,
      "v": 49
    },
    {
      "midi": 62,
      "hit": false,
      "t": 153045.64499999926,
      "d": 337.600687499973,
      "v": 70
    },
    {
      "midi": 47,
      "hit": false,
      "t": 153445.76433333257,
      "d": 243.82271874998696,
      "v": 53
    },
    {
      "midi": 71,
      "hit": false,
      "t": 153645.82399999924,
      "d": 6.25186458331882,
      "v": 13
    },
    {
      "midi": 62,
      "hit": false,
      "t": 153645.82399999924,
      "d": 268.83017708332045,
      "v": 88
    },
    {
      "midi": 67,
      "hit": false,
      "t": 153645.82399999924,
      "d": 281.3339062499872,
      "v": 97
    },
    {
      "midi": 74,
      "hit": false,
      "t": 153645.82399999924,
      "d": 587.6752708333079,
      "v": 97
    },
    {
      "midi": 52,
      "hit": false,
      "t": 154045.94333333254,
      "d": 218.81526041665347,
      "v": 61
    },
    {
      "midi": 62,
      "hit": false,
      "t": 154246.0029999992,
      "d": 56.2667812499858,
      "v": 88
    },
    {
      "midi": 67,
      "hit": false,
      "t": 154246.0029999992,
      "d": 68.77051041665254,
      "v": 79
    },
    {
      "midi": 71,
      "hit": false,
      "t": 154246.0029999992,
      "d": 81.27423958331929,
      "v": 88
    },
    {
      "midi": 40,
      "hit": false,
      "t": 154646.12233333252,
      "d": 75.02237500000047,
      "v": 70
    },
    {
      "midi": 62,
      "hit": false,
      "t": 154846.1819999992,
      "d": 262.57831250000163,
      "v": 79
    },
    {
      "midi": 67,
      "hit": false,
      "t": 154846.1819999992,
      "d": 331.34882291665417,
      "v": 97
    },
    {
      "midi": 71,
      "hit": false,
      "t": 154846.1819999992,
      "d": 387.61560416663997,
      "v": 97
    },
    {
      "midi": 41,
      "hit": false,
      "t": 154846.1819999992,
      "d": 2969.635677083046,
      "v": 61
    },
    {
      "midi": 60,
      "hit": false,
      "t": 155246.3013333325,
      "d": 93.77796874998603,
      "v": 57
    },
    {
      "midi": 65,
      "hit": false,
      "t": 155246.3013333325,
      "d": 93.77796874998603,
      "v": 49
    },
    {
      "midi": 69,
      "hit": false,
      "t": 155246.3013333325,
      "d": 100.02983333330485,
      "v": 61
    },
    {
      "midi": 65,
      "hit": false,
      "t": 155446.36099999913,
      "d": 37.51118750000023,
      "v": 70
    },
    {
      "midi": 69,
      "hit": false,
      "t": 155446.36099999913,
      "d": 50.01491666666698,
      "v": 70
    },
    {
      "midi": 60,
      "hit": false,
      "t": 155446.36099999913,
      "d": 56.2667812499858,
      "v": 61
    },
    {
      "midi": 65,
      "hit": false,
      "t": 155846.48033333244,
      "d": 43.76305208331905,
      "v": 79
    },
    {
      "midi": 69,
      "hit": false,
      "t": 155846.48033333244,
      "d": 50.01491666663787,
      "v": 70
    },
    {
      "midi": 60,
      "hit": false,
      "t": 155846.48033333244,
      "d": 68.77051041662344,
      "v": 70
    },
    {
      "midi": 60,
      "hit": false,
      "t": 156046.53999999905,
      "d": 262.57831250000163,
      "v": 79
    },
    {
      "midi": 69,
      "hit": false,
      "t": 156046.53999999905,
      "d": 331.34882291665417,
      "v": 88
    },
    {
      "midi": 65,
      "hit": false,
      "t": 156046.53999999905,
      "d": 356.35628124998766,
      "v": 88
    },
    {
      "midi": 53,
      "hit": false,
      "t": 156046.53999999905,
      "d": 1581.721739583183,
      "v": 33
    },
    {
      "midi": 67,
      "hit": false,
      "t": 156446.65933333235,
      "d": 50.01491666666698,
      "v": 61
    },
    {
      "midi": 62,
      "hit": false,
      "t": 156446.65933333235,
      "d": 62.51864583333372,
      "v": 53
    },
    {
      "midi": 71,
      "hit": false,
      "t": 156446.65933333235,
      "d": 68.77051041665254,
      "v": 70
    },
    {
      "midi": 62,
      "hit": false,
      "t": 156646.718999999,
      "d": 318.8450937499874,
      "v": 88
    },
    {
      "midi": 67,
      "hit": false,
      "t": 156646.718999999,
      "d": 368.8600104166544,
      "v": 97
    },
    {
      "midi": 71,
      "hit": false,
      "t": 156646.718999999,
      "d": 406.37119791662553,
      "v": 88
    },
    {
      "midi": 48,
      "hit": false,
      "t": 156646.718999999,
      "d": 1156.594947916572,
      "v": 57
    },
    {
      "midi": 60,
      "hit": false,
      "t": 157046.8383333323,
      "d": 50.01491666663787,
      "v": 26
    },
    {
      "midi": 69,
      "hit": false,
      "t": 157046.8383333323,
      "d": 106.28169791662367,
      "v": 61
    },
    {
      "midi": 65,
      "hit": false,
      "t": 157046.8383333323,
      "d": 112.53356249994249,
      "v": 57
    },
    {
      "midi": 60,
      "hit": false,
      "t": 157246.8979999989,
      "d": 662.6976458332792,
      "v": 79
    },
    {
      "midi": 65,
      "hit": false,
      "t": 157246.8979999989,
      "d": 762.7274791665841,
      "v": 88
    },
    {
      "midi": 69,
      "hit": false,
      "t": 157246.8979999989,
      "d": 762.7274791665841,
      "v": 79
    },
    {
      "midi": 53,
      "hit": false,
      "t": 157847.07699999888,
      "d": 93.77796874995693,
      "v": 57
    },
    {
      "midi": 60,
      "hit": false,
      "t": 158047.1366666655,
      "d": 81.27423958331929,
      "v": 61
    },
    {
      "midi": 48,
      "hit": false,
      "t": 158247.19633333213,
      "d": 68.77051041665254,
      "v": 70
    },
    {
      "midi": 56,
      "hit": false,
      "t": 158447.25599999877,
      "d": 331.34882291665417,
      "v": 70
    },
    {
      "midi": 41,
      "hit": false,
      "t": 158447.25599999877,
      "d": 625.1864583333081,
      "v": 70
    },
    {
      "midi": 59,
      "hit": false,
      "t": 158447.25599999877,
      "d": 712.7125624999753,
      "v": 79
    },
    {
      "midi": 62,
      "hit": false,
      "t": 158447.25599999877,
      "d": 775.231208333309,
      "v": 88
    },
    {
      "midi": 65,
      "hit": false,
      "t": 158447.25599999877,
      "d": 1219.113593749964,
      "v": 88
    },
    {
      "midi": 56,
      "hit": false,
      "t": 159047.43499999875,
      "d": 187.55593750000116,
      "v": 53
    },
    {
      "midi": 41,
      "hit": false,
      "t": 159447.55433333208,
      "d": 112.5335625000007,
      "v": 57
    },
    {
      "midi": 59,
      "hit": false,
      "t": 159647.61399999875,
      "d": 18.755593749985565,
      "v": 37
    },
    {
      "midi": 56,
      "hit": false,
      "t": 159647.61399999875,
      "d": 93.77796874998603,
      "v": 49
    },
    {
      "midi": 67,
      "hit": false,
      "t": 159647.61399999875,
      "d": 150.04474999997183,
      "v": 79
    },
    {
      "midi": 65,
      "hit": false,
      "t": 159847.6736666654,
      "d": 150.04475000000093,
      "v": 88
    },
    {
      "midi": 64,
      "hit": false,
      "t": 160047.73333333206,
      "d": 56.2667812499858,
      "v": 88
    },
    {
      "midi": 59,
      "hit": false,
      "t": 160247.7929999987,
      "d": 425.1267916666402,
      "v": 88
    },
    {
      "midi": 56,
      "hit": false,
      "t": 160247.7929999987,
      "d": 443.88238541662577,
      "v": 79
    },
    {
      "midi": 62,
      "hit": false,
      "t": 160247.7929999987,
      "d": 818.9942604165699,
      "v": 88
    },
    {
      "midi": 65,
      "hit": false,
      "t": 160247.7929999987,
      "d": 818.9942604165699,
      "v": 88
    },
    {
      "midi": 35,
      "hit": false,
      "t": 160247.7929999987,
      "d": 1281.6322395832103,
      "v": 61
    },
    {
      "midi": 56,
      "hit": false,
      "t": 160847.97199999864,
      "d": 193.80780208331998,
      "v": 45
    },
    {
      "midi": 59,
      "hit": false,
      "t": 160847.97199999864,
      "d": 193.80780208331998,
      "v": 57
    },
    {
      "midi": 53,
      "hit": false,
      "t": 160847.97199999864,
      "d": 200.0596666666388,
      "v": 53
    },
    {
      "midi": 47,
      "hit": false,
      "t": 161248.09133333192,
      "d": 293.83763541665394,
      "v": 57
    },
    {
      "midi": 53,
      "hit": false,
      "t": 161448.1509999986,
      "d": 206.31153124998673,
      "v": 70
    },
    {
      "midi": 59,
      "hit": false,
      "t": 161448.1509999986,
      "d": 300.08949999997276,
      "v": 79
    },
    {
      "midi": 62,
      "hit": false,
      "t": 161448.1509999986,
      "d": 306.3413645832916,
      "v": 79
    },
    {
      "midi": 56,
      "hit": false,
      "t": 161448.1509999986,
      "d": 331.34882291662507,
      "v": 61
    },
    {
      "midi": 65,
      "hit": false,
      "t": 161448.1509999986,
      "d": 637.6901874999166,
      "v": 70
    },
    {
      "midi": 35,
      "hit": false,
      "t": 161848.27033333186,
      "d": 93.77796874998603,
      "v": 88
    },
    {
      "midi": 60,
      "hit": false,
      "t": 162048.3299999985,
      "d": 168.8003437499865,
      "v": 79
    },
    {
      "midi": 55,
      "hit": false,
      "t": 162048.3299999985,
      "d": 181.30407291665324,
      "v": 61
    },
    {
      "midi": 64,
      "hit": false,
      "t": 162048.3299999985,
      "d": 193.80780208331998,
      "v": 70
    },
    {
      "midi": 36,
      "hit": false,
      "t": 162048.3299999985,
      "d": 2950.880083333177,
      "v": 79
    },
    {
      "midi": 60,
      "hit": false,
      "t": 162648.50899999848,
      "d": 112.5335625000007,
      "v": 53
    },
    {
      "midi": 55,
      "hit": false,
      "t": 162648.50899999848,
      "d": 131.28915624998626,
      "v": 57
    },
    {
      "midi": 64,
      "hit": false,
      "t": 162648.50899999848,
      "d": 131.28915624998626,
      "v": 57
    },
    {
      "midi": 60,
      "hit": false,
      "t": 163248.68799999845,
      "d": 75.02237500000047,
      "v": 70
    },
    {
      "midi": 64,
      "hit": false,
      "t": 163248.68799999845,
      "d": 93.77796874998603,
      "v": 70
    },
    {
      "midi": 55,
      "hit": false,
      "t": 163248.68799999845,
      "d": 106.28169791665277,
      "v": 61
    },
    {
      "midi": 43,
      "hit": false,
      "t": 163648.80733333176,
      "d": 231.31898958332022,
      "v": 70
    },
    {
      "midi": 60,
      "hit": false,
      "t": 163848.86699999843,
      "d": 356.35628124998766,
      "v": 88
    },
    {
      "midi": 64,
      "hit": false,
      "t": 163848.86699999843,
      "d": 368.8600104166544,
      "v": 97
    },
    {
      "midi": 55,
      "hit": false,
      "t": 163848.86699999843,
      "d": 393.8674687499879,
      "v": 79
    },
    {
      "midi": 48,
      "hit": false,
      "t": 163848.86699999843,
      "d": 668.9495104166272,
      "v": 61
    },
    {
      "midi": 64,
      "hit": false,
      "t": 164449.0459999984,
      "d": 212.56339583330555,
      "v": 79
    },
    {
      "midi": 55,
      "hit": false,
      "t": 164449.0459999984,
      "d": 231.3189895832911,
      "v": 61
    },
    {
      "midi": 60,
      "hit": false,
      "t": 164449.0459999984,
      "d": 300.08949999994365,
      "v": 79
    },
    {
      "midi": 67,
      "hit": false,
      "t": 164449.0459999984,
      "d": 312.5932291666104,
      "v": 88
    },
    {
      "midi": 48,
      "hit": false,
      "t": 164849.16533333168,
      "d": 268.83017708332045,
      "v": 70
    },
    {
      "midi": 69,
      "hit": false,
      "t": 165049.22499999835,
      "d": 106.28169791665277,
      "v": 97
    },
    {
      "midi": 57,
      "hit": false,
      "t": 165049.22499999835,
      "d": 150.04474999997183,
      "v": 79
    },
    {
      "midi": 47,
      "hit": false,
      "t": 165449.34433333165,
      "d": 100.02983333333395,
      "v": 70
    },
    {
      "midi": 59,
      "hit": false,
      "t": 165649.40399999832,
      "d": 293.83763541665394,
      "v": 70
    },
    {
      "midi": 55,
      "hit": false,
      "t": 165649.40399999832,
      "d": 350.10441666663974,
      "v": 57
    },
    {
      "midi": 64,
      "hit": false,
      "t": 165649.40399999832,
      "d": 731.4681562499318,
      "v": 79
    },
    {
      "midi": 62,
      "hit": false,
      "t": 165649.40399999832,
      "d": 750.2237499999173,
      "v": 79
    },
    {
      "midi": 67,
      "hit": false,
      "t": 165649.40399999832,
      "d": 793.9868020832364,
      "v": 70
    },
    {
      "midi": 40,
      "hit": false,
      "t": 165649.40399999832,
      "d": 1769.2776770831551,
      "v": 70
    },
    {
      "midi": 55,
      "hit": false,
      "t": 166249.58299999827,
      "d": 131.28915624998626,
      "v": 49
    },
    {
      "midi": 59,
      "hit": false,
      "t": 166249.58299999827,
      "d": 131.28915624998626,
      "v": 57
    },
    {
      "midi": 47,
      "hit": false,
      "t": 166649.70233333154,
      "d": 268.83017708332045,
      "v": 57
    },
    {
      "midi": 71,
      "hit": false,
      "t": 166849.7619999982,
      "d": 50.01491666666698,
      "v": 70
    },
    {
      "midi": 62,
      "hit": false,
      "t": 166849.7619999982,
      "d": 62.51864583333372,
      "v": 41
    },
    {
      "midi": 67,
      "hit": false,
      "t": 166849.7619999982,
      "d": 75.02237499997136,
      "v": 45
    },
    {
      "midi": 52,
      "hit": false,
      "t": 166849.7619999982,
      "d": 487.6454374999448,
      "v": 41
    },
    {
      "midi": 64,
      "hit": false,
      "t": 167249.88133333152,
      "d": 118.78542708329041,
      "v": 88
    },
    {
      "midi": 69,
      "hit": false,
      "t": 167249.88133333152,
      "d": 181.30407291662414,
      "v": 97
    },
    {
      "midi": 72,
      "hit": false,
      "t": 167249.88133333152,
      "d": 250.07458333327668,
      "v": 88
    },
    {
      "midi": 62,
      "hit": false,
      "t": 167449.94099999813,
      "d": 487.645437500003,
      "v": 70
    },
    {
      "midi": 71,
      "hit": false,
      "t": 167449.94099999813,
      "d": 1019.0539270833251,
      "v": 70
    },
    {
      "midi": 67,
      "hit": false,
      "t": 167449.94099999813,
      "d": 1069.068843749992,
      "v": 53
    },
    {
      "midi": 40,
      "hit": false,
      "t": 167850.06033333146,
      "d": 1244.1210520832974,
      "v": 70
    },
    {
      "midi": 62,
      "hit": false,
      "t": 168050.11999999813,
      "d": 475.1417083333072,
      "v": 70
    },
    {
      "midi": 74,
      "hit": false,
      "t": 168050.11999999813,
      "d": 662.6976458333083,
      "v": 79
    },
    {
      "midi": 67,
      "hit": false,
      "t": 168650.2989999981,
      "d": 481.3935729166551,
      "v": 79
    },
    {
      "midi": 62,
      "hit": false,
      "t": 168650.2989999981,
      "d": 487.6454374999739,
      "v": 61
    },
    {
      "midi": 71,
      "hit": false,
      "t": 168650.2989999981,
      "d": 506.4010312499595,
      "v": 79
    },
    {
      "midi": 52,
      "hit": false,
      "t": 169050.41833333144,
      "d": 243.82271874992875,
      "v": 57
    },
    {
      "midi": 62,
      "hit": false,
      "t": 169250.47799999805,
      "d": 262.5783124999725,
      "v": 79
    },
    {
      "midi": 67,
      "hit": false,
      "t": 169250.47799999805,
      "d": 350.10441666663974,
      "v": 88
    },
    {
      "midi": 71,
      "hit": false,
      "t": 169250.47799999805,
      "d": 425.1267916666402,
      "v": 97
    },
    {
      "midi": 41,
      "hit": false,
      "t": 169250.47799999805,
      "d": 2994.643135416438,
      "v": 70
    },
    {
      "midi": 60,
      "hit": false,
      "t": 169650.59733333136,
      "d": 75.02237500000047,
      "v": 53
    },
    {
      "midi": 65,
      "hit": false,
      "t": 169650.59733333136,
      "d": 75.02237500000047,
      "v": 57
    },
    {
      "midi": 69,
      "hit": false,
      "t": 169650.59733333136,
      "d": 93.77796874998603,
      "v": 70
    },
    {
      "midi": 65,
      "hit": false,
      "t": 169850.656999998,
      "d": 62.51864583333372,
      "v": 57
    },
    {
      "midi": 60,
      "hit": false,
      "t": 169850.656999998,
      "d": 75.02237500000047,
      "v": 61
    },
    {
      "midi": 69,
      "hit": false,
      "t": 169850.656999998,
      "d": 75.02237500000047,
      "v": 61
    },
    {
      "midi": 60,
      "hit": false,
      "t": 170250.77633333133,
      "d": 75.02237500000047,
      "v": 49
    },
    {
      "midi": 65,
      "hit": false,
      "t": 170250.77633333133,
      "d": 81.27423958331929,
      "v": 57
    },
    {
      "midi": 69,
      "hit": false,
      "t": 170250.77633333133,
      "d": 87.5261041666381,
      "v": 61
    },
    {
      "midi": 60,
      "hit": false,
      "t": 170450.83599999797,
      "d": 268.83017708332045,
      "v": 79
    },
    {
      "midi": 69,
      "hit": false,
      "t": 170450.83599999797,
      "d": 350.10441666663974,
      "v": 79
    },
    {
      "midi": 65,
      "hit": false,
      "t": 170450.83599999797,
      "d": 362.6081458333065,
      "v": 88
    },
    {
      "midi": 67,
      "hit": false,
      "t": 170850.95533333128,
      "d": 68.77051041665254,
      "v": 61
    },
    {
      "midi": 62,
      "hit": false,
      "t": 170850.95533333128,
      "d": 87.5261041666381,
      "v": 57
    },
    {
      "midi": 71,
      "hit": false,
      "t": 170850.95533333128,
      "d": 87.5261041666381,
      "v": 57
    },
    {
      "midi": 62,
      "hit": false,
      "t": 171051.01499999792,
      "d": 293.83763541665394,
      "v": 88
    },
    {
      "midi": 67,
      "hit": false,
      "t": 171051.01499999792,
      "d": 362.6081458333065,
      "v": 97
    },
    {
      "midi": 71,
      "hit": false,
      "t": 171051.01499999792,
      "d": 393.8674687499588,
      "v": 97
    },
    {
      "midi": 60,
      "hit": false,
      "t": 171451.1343333312,
      "d": 56.2667812499858,
      "v": 53
    },
    {
      "midi": 65,
      "hit": false,
      "t": 171451.1343333312,
      "d": 112.5335624999716,
      "v": 57
    },
    {
      "midi": 69,
      "hit": false,
      "t": 171451.1343333312,
      "d": 125.03729166663834,
      "v": 57
    },
    {
      "midi": 48,
      "hit": false,
      "t": 171451.1343333312,
      "d": 919.024093749933,
      "v": 70
    },
    {
      "midi": 60,
      "hit": false,
      "t": 171651.19399999783,
      "d": 687.7051041666418,
      "v": 70
    },
    {
      "midi": 65,
      "hit": false,
      "t": 171651.19399999783,
      "d": 881.5129062499327,
      "v": 79
    },
    {
      "midi": 69,
      "hit": false,
      "t": 171651.19399999783,
      "d": 887.7647708332515,
      "v": 79
    },
    {
      "midi": 57,
      "hit": false,
      "t": 172251.3729999978,
      "d": 200.0596666666388,
      "v": 57
    },
    {
      "midi": 60,
      "hit": false,
      "t": 172451.43266666445,
      "d": 125.03729166663834,
      "v": 53
    },
    {
      "midi": 48,
      "hit": false,
      "t": 172651.4923333311,
      "d": 181.30407291665324,
      "v": 70
    },
    {
      "midi": 41,
      "hit": false,
      "t": 172851.55199999773,
      "d": 481.3935729166551,
      "v": 70
    },
    {
      "midi": 56,
      "hit": false,
      "t": 172851.55199999773,
      "d": 850.2535833333095,
      "v": 79
    },
    {
      "midi": 59,
      "hit": false,
      "t": 172851.55199999773,
      "d": 1094.0763020832965,
      "v": 70
    },
    {
      "midi": 62,
      "hit": false,
      "t": 172851.55199999773,
      "d": 1119.08376041663,
      "v": 88
    },
    {
      "midi": 65,
      "hit": false,
      "t": 172851.55199999773,
      "d": 1119.08376041663,
      "v": 79
    },
    {
      "midi": 41,
      "hit": false,
      "t": 173451.7309999977,
      "d": 175.05220833333442,
      "v": 70
    },
    {
      "midi": 41,
      "hit": false,
      "t": 173851.85033333104,
      "d": 75.02237500000047,
      "v": 61
    },
    {
      "midi": 67,
      "hit": false,
      "t": 174051.90999999768,
      "d": 212.56339583333465,
      "v": 79
    },
    {
      "midi": 65,
      "hit": false,
      "t": 174251.96966666434,
      "d": 150.04475000000093,
      "v": 79
    },
    {
      "midi": 64,
      "hit": false,
      "t": 174452.029333331,
      "d": 43.76305208331905,
      "v": 70
    },
    {
      "midi": 59,
      "hit": false,
      "t": 174652.08899999765,
      "d": 381.36373958332115,
      "v": 88
    },
    {
      "midi": 62,
      "hit": false,
      "t": 174652.08899999765,
      "d": 400.1193333333067,
      "v": 88
    },
    {
      "midi": 56,
      "hit": false,
      "t": 174652.08899999765,
      "d": 437.63052083330695,
      "v": 79
    },
    {
      "midi": 65,
      "hit": false,
      "t": 174652.08899999765,
      "d": 931.5278229166288,
      "v": 61
    },
    {
      "midi": 35,
      "hit": false,
      "t": 174652.08899999765,
      "d": 994.0464687499334,
      "v": 61
    },
    {
      "midi": 53,
      "hit": false,
      "t": 175252.26799999762,
      "d": 312.5932291666686,
      "v": 57
    },
    {
      "midi": 59,
      "hit": false,
      "t": 175252.26799999762,
      "d": 337.600687499973,
      "v": 70
    },
    {
      "midi": 56,
      "hit": false,
      "t": 175252.26799999762,
      "d": 343.8525520832918,
      "v": 61
    },
    {
      "midi": 62,
      "hit": false,
      "t": 175252.26799999762,
      "d": 343.8525520832918,
      "v": 49
    },
    {
      "midi": 47,
      "hit": false,
      "t": 175652.3873333309,
      "d": 700.2088333332795,
      "v": 70
    },
    {
      "midi": 53,
      "hit": false,
      "t": 175852.44699999757,
      "d": 143.792885416653,
      "v": 88
    },
    {
      "midi": 53,
      "hit": false,
      "t": 176052.5066666642,
      "d": 75.02237500000047,
      "v": 57
    },
    {
      "midi": 56,
      "hit": false,
      "t": 176052.5066666642,
      "d": 156.29661458331975,
      "v": 97
    },
    {
      "midi": 35,
      "hit": false,
      "t": 176252.56633333085,
      "d": 87.52610416666721,
      "v": 70
    },
    {
      "midi": 65,
      "hit": false,
      "t": 176252.56633333085,
      "d": 181.30407291665324,
      "v": 97
    },
    {
      "midi": 60,
      "hit": false,
      "t": 176452.6259999975,
      "d": 187.55593750000116,
      "v": 88
    },
    {
      "midi": 64,
      "hit": false,
      "t": 176452.6259999975,
      "d": 200.0596666666679,
      "v": 79
    },
    {
      "midi": 55,
      "hit": false,
      "t": 176452.6259999975,
      "d": 206.31153124998673,
      "v": 88
    },
    {
      "midi": 36,
      "hit": false,
      "t": 176452.6259999975,
      "d": 2963.3838124998147,
      "v": 88
    },
    {
      "midi": 60,
      "hit": false,
      "t": 177052.80499999746,
      "d": 150.04475000000093,
      "v": 79
    },
    {
      "midi": 64,
      "hit": false,
      "t": 177052.80499999746,
      "d": 150.04475000000093,
      "v": 79
    },
    {
      "midi": 55,
      "hit": false,
      "t": 177052.80499999746,
      "d": 168.8003437499865,
      "v": 61
    },
    {
      "midi": 60,
      "hit": false,
      "t": 177652.98399999744,
      "d": 181.30407291665324,
      "v": 88
    },
    {
      "midi": 64,
      "hit": false,
      "t": 177652.98399999744,
      "d": 181.30407291665324,
      "v": 88
    },
    {
      "midi": 55,
      "hit": false,
      "t": 177652.98399999744,
      "d": 206.31153124998673,
      "v": 70
    },
    {
      "midi": 43,
      "hit": false,
      "t": 178053.10333333074,
      "d": 225.0671250000014,
      "v": 88
    },
    {
      "midi": 60,
      "hit": false,
      "t": 178253.1629999974,
      "d": 343.8525520833209,
      "v": 88
    },
    {
      "midi": 64,
      "hit": false,
      "t": 178253.1629999974,
      "d": 350.10441666663974,
      "v": 88
    },
    {
      "midi": 55,
      "hit": false,
      "t": 178253.1629999974,
      "d": 381.36373958329204,
      "v": 88
    },
    {
      "midi": 48,
      "hit": false,
      "t": 178253.1629999974,
      "d": 681.4532395832648,
      "v": 70
    },
    {
      "midi": 55,
      "hit": false,
      "t": 178853.34199999736,
      "d": 156.29661458331975,
      "v": 70
    },
    {
      "midi": 60,
      "hit": false,
      "t": 178853.34199999736,
      "d": 200.0596666666388,
      "v": 88
    },
    {
      "midi": 64,
      "hit": false,
      "t": 178853.34199999736,
      "d": 206.31153124995762,
      "v": 79
    },
    {
      "midi": 67,
      "hit": false,
      "t": 178853.34199999736,
      "d": 231.3189895832911,
      "v": 88
    },
    {
      "midi": 48,
      "hit": false,
      "t": 179253.46133333063,
      "d": 468.88984374998836,
      "v": 57
    },
    {
      "midi": 69,
      "hit": false,
      "t": 179453.5209999973,
      "d": 81.27423958331929,
      "v": 79
    },
    {
      "midi": 39,
      "hit": false,
      "t": 179853.6403333306,
      "d": 125.03729166666744,
      "v": 79
    },
    {
      "midi": 55,
      "hit": false,
      "t": 180053.69999999728,
      "d": 318.8450937499874,
      "v": 79
    },
    {
      "midi": 64,
      "hit": false,
      "t": 180053.69999999728,
      "d": 700.2088333333086,
      "v": 88
    },
    {
      "midi": 59,
      "hit": false,
      "t": 180053.69999999728,
      "d": 743.9718854166276,
      "v": 79
    },
    {
      "midi": 62,
      "hit": false,
      "t": 180053.69999999728,
      "d": 762.7274791666132,
      "v": 79
    },
    {
      "midi": 67,
      "hit": false,
      "t": 180053.69999999728,
      "d": 793.9868020832655,
      "v": 88
    },
    {
      "midi": 40,
      "hit": false,
      "t": 180053.69999999728,
      "d": 2994.643135416438,
      "v": 79
    },
    {
      "midi": 55,
      "hit": false,
      "t": 180653.87899999725,
      "d": 118.78542708331952,
      "v": 61
    },
    {
      "midi": 47,
      "hit": false,
      "t": 181053.99833333053,
      "d": 250.07458333333489,
      "v": 57
    },
    {
      "midi": 71,
      "hit": false,
      "t": 181254.0579999972,
      "d": 68.77051041665254,
      "v": 70
    },
    {
      "midi": 62,
      "hit": false,
      "t": 181254.0579999972,
      "d": 75.02237499997136,
      "v": 53
    },
    {
      "midi": 67,
      "hit": false,
      "t": 181254.0579999972,
      "d": 75.02237499997136,
      "v": 45
    },
    {
      "midi": 52,
      "hit": false,
      "t": 181254.0579999972,
      "d": 537.6603541666118,
      "v": 53
    },
    {
      "midi": 64,
      "hit": false,
      "t": 181654.1773333305,
      "d": 93.77796874998603,
      "v": 88
    },
    {
      "midi": 69,
      "hit": false,
      "t": 181654.1773333305,
      "d": 168.8003437499574,
      "v": 88
    },
    {
      "midi": 72,
      "hit": false,
      "t": 181654.1773333305,
      "d": 250.07458333327668,
      "v": 97
    },
    {
      "midi": 67,
      "hit": false,
      "t": 181854.2369999971,
      "d": 512.6528958333365,
      "v": 70
    },
    {
      "midi": 71,
      "hit": false,
      "t": 181854.2369999971,
      "d": 518.9047604166553,
      "v": 70
    },
    {
      "midi": 62,
      "hit": false,
      "t": 181854.2369999971,
      "d": 700.2088333333086,
      "v": 61
    },
    {
      "midi": 47,
      "hit": false,
      "t": 182254.35633333045,
      "d": 606.4308645832643,
      "v": 45
    },
    {
      "midi": 71,
      "hit": false,
      "t": 182454.4159999971,
      "d": 256.3264479166537,
      "v": 70
    },
    {
      "midi": 67,
      "hit": false,
      "t": 182454.4159999971,
      "d": 281.3339062499872,
      "v": 70
    },
    {
      "midi": 74,
      "hit": false,
      "t": 182454.4159999971,
      "d": 593.9271354166267,
      "v": 88
    },
    {
      "midi": 52,
      "hit": false,
      "t": 182854.5353333304,
      "d": 281.3339062499581,
      "v": 53
    },
    {
      "midi": 62,
      "hit": false,
      "t": 183054.59499999703,
      "d": 62.51864583333372,
      "v": 79
    },
    {
      "midi": 67,
      "hit": false,
      "t": 183054.59499999703,
      "d": 62.51864583333372,
      "v": 88
    },
    {
      "midi": 71,
      "hit": false,
      "t": 183054.59499999703,
      "d": 75.02237500000047,
      "v": 79
    },
    {
      "midi": 40,
      "hit": false,
      "t": 183454.71433333034,
      "d": 62.51864583333372,
      "v": 70
    },
    {
      "midi": 62,
      "hit": false,
      "t": 183654.773999997,
      "d": 262.57831250000163,
      "v": 88
    },
    {
      "midi": 67,
      "hit": false,
      "t": 183654.773999997,
      "d": 356.35628124998766,
      "v": 88
    },
    {
      "midi": 71,
      "hit": false,
      "t": 183654.773999997,
      "d": 412.62306249997346,
      "v": 97
    },
    {
      "midi": 41,
      "hit": false,
      "t": 183654.773999997,
      "d": 3007.1468645830464,
      "v": 70
    },
    {
      "midi": 60,
      "hit": false,
      "t": 184054.8933333303,
      "d": 68.77051041665254,
      "v": 57
    },
    {
      "midi": 65,
      "hit": false,
      "t": 184054.8933333303,
      "d": 75.02237499997136,
      "v": 57
    },
    {
      "midi": 69,
      "hit": false,
      "t": 184054.8933333303,
      "d": 81.27423958329018,
      "v": 61
    },
    {
      "midi": 65,
      "hit": false,
      "t": 184254.95299999692,
      "d": 31.25932291665231,
      "v": 57
    },
    {
      "midi": 60,
      "hit": false,
      "t": 184254.95299999692,
      "d": 50.01491666663787,
      "v": 53
    },
    {
      "midi": 69,
      "hit": false,
      "t": 184254.95299999692,
      "d": 50.01491666663787,
      "v": 70
    },
    {
      "midi": 60,
      "hit": false,
      "t": 184655.07233333023,
      "d": 43.76305208331905,
      "v": 41
    },
    {
      "midi": 65,
      "hit": false,
      "t": 184655.07233333023,
      "d": 43.76305208331905,
      "v": 57
    },
    {
      "midi": 69,
      "hit": false,
      "t": 184655.07233333023,
      "d": 62.51864583330462,
      "v": 57
    },
    {
      "midi": 60,
      "hit": false,
      "t": 184855.13199999687,
      "d": 281.3339062499872,
      "v": 70
    },
    {
      "midi": 65,
      "hit": false,
      "t": 184855.13199999687,
      "d": 368.8600104166544,
      "v": 79
    },
    {
      "midi": 69,
      "hit": false,
      "t": 184855.13199999687,
      "d": 368.8600104166544,
      "v": 70
    },
    {
      "midi": 67,
      "hit": false,
      "t": 185255.25133333018,
      "d": 43.76305208331905,
      "v": 41
    },
    {
      "midi": 62,
      "hit": false,
      "t": 185255.25133333018,
      "d": 50.01491666663787,
      "v": 41
    },
    {
      "midi": 71,
      "hit": false,
      "t": 185255.25133333018,
      "d": 56.26678124995669,
      "v": 61
    },
    {
      "midi": 62,
      "hit": false,
      "t": 185455.3109999968,
      "d": 262.57831250000163,
      "v": 79
    },
    {
      "midi": 67,
      "hit": false,
      "t": 185455.3109999968,
      "d": 350.10441666666884,
      "v": 97
    },
    {
      "midi": 71,
      "hit": false,
      "t": 185455.3109999968,
      "d": 406.37119791665464,
      "v": 79
    },
    {
      "midi": 53,
      "hit": false,
      "t": 185455.3109999968,
      "d": 1000.2983333333104,
      "v": 57
    },
    {
      "midi": 69,
      "hit": false,
      "t": 185855.43033333012,
      "d": 68.77051041665254,
      "v": 53
    },
    {
      "midi": 60,
      "hit": false,
      "t": 185855.43033333012,
      "d": 75.02237499997136,
      "v": 41
    },
    {
      "midi": 65,
      "hit": false,
      "t": 185855.43033333012,
      "d": 87.5261041666381,
      "v": 53
    },
    {
      "midi": 60,
      "hit": false,
      "t": 186055.48999999676,
      "d": 650.1939166666125,
      "v": 70
    },
    {
      "midi": 65,
      "hit": false,
      "t": 186055.48999999676,
      "d": 775.2312083332799,
      "v": 61
    },
    {
      "midi": 69,
      "hit": false,
      "t": 186055.48999999676,
      "d": 781.4830729165988,
      "v": 79
    },
    {
      "midi": 48,
      "hit": false,
      "t": 186455.6093333301,
      "d": 250.07458333327668,
      "v": 61
    },
    {
      "midi": 53,
      "hit": false,
      "t": 186655.66899999673,
      "d": 112.5335624999716,
      "v": 57
    },
    {
      "midi": 60,
      "hit": false,
      "t": 186855.72866666334,
      "d": 56.2667812499858,
      "v": 53
    },
    {
      "midi": 53,
      "hit": false,
      "t": 187055.78833332998,
      "d": 75.02237500000047,
      "v": 61
    },
    {
      "midi": 56,
      "hit": false,
      "t": 187255.84799999665,
      "d": 275.0820416666684,
      "v": 88
    },
    {
      "midi": 41,
      "hit": false,
      "t": 187255.84799999665,
      "d": 593.9271354166558,
      "v": 70
    },
    {
      "midi": 59,
      "hit": false,
      "t": 187255.84799999665,
      "d": 612.6827291666414,
      "v": 88
    },
    {
      "midi": 62,
      "hit": false,
      "t": 187255.84799999665,
      "d": 687.7051041666418,
      "v": 88
    },
    {
      "midi": 65,
      "hit": false,
      "t": 187255.84799999665,
      "d": 706.4606979166274,
      "v": 88
    },
    {
      "midi": 56,
      "hit": false,
      "t": 187856.02699999663,
      "d": 125.03729166663834,
      "v": 53
    },
    {
      "midi": 41,
      "hit": false,
      "t": 188256.14633332993,
      "d": 62.51864583333372,
      "v": 61
    },
    {
      "midi": 67,
      "hit": false,
      "t": 188456.2059999966,
      "d": 212.56339583333465,
      "v": 70
    },
    {
      "midi": 65,
      "hit": false,
      "t": 188656.26566666327,
      "d": 143.792885416653,
      "v": 70
    },
    {
      "midi": 64,
      "hit": false,
      "t": 188856.3253333299,
      "d": 50.01491666666698,
      "v": 61
    },
    {
      "midi": 59,
      "hit": false,
      "t": 189056.38499999655,
      "d": 375.1118750000023,
      "v": 88
    },
    {
      "midi": 56,
      "hit": false,
      "t": 189056.38499999655,
      "d": 387.6156041666691,
      "v": 88
    },
    {
      "midi": 62,
      "hit": false,
      "t": 189056.38499999655,
      "d": 406.37119791665464,
      "v": 97
    },
    {
      "midi": 65,
      "hit": false,
      "t": 189056.38499999655,
      "d": 600.1789999999746,
      "v": 88
    },
    {
      "midi": 35,
      "hit": false,
      "t": 189056.38499999655,
      "d": 1244.1210520832683,
      "v": 70
    },
    {
      "midi": 59,
      "hit": false,
      "t": 189656.56399999652,
      "d": 118.78542708331952,
      "v": 79
    },
    {
      "midi": 53,
      "hit": false,
      "t": 189656.56399999652,
      "d": 162.54847916663857,
      "v": 70
    },
    {
      "midi": 56,
      "hit": false,
      "t": 189656.56399999652,
      "d": 162.54847916663857,
      "v": 61
    },
    {
      "midi": 62,
      "hit": false,
      "t": 189656.56399999652,
      "d": 162.54847916663857,
      "v": 57
    },
    {
      "midi": 47,
      "hit": false,
      "t": 190056.68333332983,
      "d": 325.09695833330625,
      "v": 70
    },
    {
      "midi": 59,
      "hit": false,
      "t": 190256.7429999965,
      "d": 312.5932291666395,
      "v": 79
    },
    {
      "midi": 62,
      "hit": false,
      "t": 190256.7429999965,
      "d": 325.09695833330625,
      "v": 70
    },
    {
      "midi": 53,
      "hit": false,
      "t": 190256.7429999965,
      "d": 331.34882291662507,
      "v": 70
    },
    {
      "midi": 56,
      "hit": false,
      "t": 190256.7429999965,
      "d": 337.6006874999439,
      "v": 70
    },
    {
      "midi": 65,
      "hit": false,
      "t": 190256.7429999965,
      "d": 631.4383229165687,
      "v": 79
    },
    {
      "midi": 35,
      "hit": false,
      "t": 190656.86233332977,
      "d": 87.52610416666721,
      "v": 88
    },
    {
      "midi": 60,
      "hit": false,
      "t": 190856.9219999964,
      "d": 150.04474999997183,
      "v": 79
    },
    {
      "midi": 64,
      "hit": false,
      "t": 190856.9219999964,
      "d": 150.04474999997183,
      "v": 79
    },
    {
      "midi": 55,
      "hit": false,
      "t": 190856.9219999964,
      "d": 162.54847916663857,
      "v": 61
    },
    {
      "midi": 36,
      "hit": false,
      "t": 190856.9219999964,
      "d": 2969.6356770831626,
      "v": 88
    },
    {
      "midi": 60,
      "hit": false,
      "t": 191457.1009999964,
      "d": 131.28915624998626,
      "v": 61
    },
    {
      "midi": 55,
      "hit": false,
      "t": 191457.1009999964,
      "d": 156.29661458331975,
      "v": 57
    },
    {
      "midi": 64,
      "hit": false,
      "t": 191457.1009999964,
      "d": 156.29661458331975,
      "v": 57
    },
    {
      "midi": 60,
      "hit": false,
      "t": 192057.27999999636,
      "d": 93.77796874998603,
      "v": 61
    },
    {
      "midi": 64,
      "hit": false,
      "t": 192057.27999999636,
      "d": 112.5335624999716,
      "v": 61
    },
    {
      "midi": 55,
      "hit": false,
      "t": 192057.27999999636,
      "d": 125.03729166663834,
      "v": 53
    },
    {
      "midi": 43,
      "hit": false,
      "t": 192457.39933332967,
      "d": 231.31898958332022,
      "v": 70
    },
    {
      "midi": 64,
      "hit": false,
      "t": 192657.45899999634,
      "d": 250.07458333330578,
      "v": 79
    },
    {
      "midi": 60,
      "hit": false,
      "t": 192657.45899999634,
      "d": 268.83017708329135,
      "v": 88
    },
    {
      "midi": 55,
      "hit": false,
      "t": 192657.45899999634,
      "d": 281.3339062499581,
      "v": 79
    },
    {
      "midi": 48,
      "hit": false,
      "t": 192657.45899999634,
      "d": 675.201374999946,
      "v": 61
    },
    {
      "midi": 55,
      "hit": false,
      "t": 193257.63799999628,
      "d": 143.792885416653,
      "v": 79
    },
    {
      "midi": 60,
      "hit": false,
      "t": 193257.63799999628,
      "d": 175.05220833330532,
      "v": 88
    },
    {
      "midi": 64,
      "hit": false,
      "t": 193257.63799999628,
      "d": 175.05220833330532,
      "v": 79
    },
    {
      "midi": 67,
      "hit": false,
      "t": 193257.63799999628,
      "d": 200.0596666666388,
      "v": 79
    },
    {
      "midi": 48,
      "hit": false,
      "t": 193657.7573333296,
      "d": 412.62306249994435,
      "v": 70
    },
    {
      "midi": 69,
      "hit": false,
      "t": 193857.81699999623,
      "d": 68.77051041665254,
      "v": 79
    },
    {
      "midi": 39,
      "hit": false,
      "t": 194257.93633332953,
      "d": 143.792885416653,
      "v": 79
    },
    {
      "midi": 55,
      "hit": false,
      "t": 194457.99599999617,
      "d": 256.3264479166537,
      "v": 57
    },
    {
      "midi": 59,
      "hit": false,
      "t": 194457.99599999617,
      "d": 262.5783124999725,
      "v": 61
    },
    {
      "midi": 64,
      "hit": false,
      "t": 194457.99599999617,
      "d": 637.6901874999749,
      "v": 70
    },
    {
      "midi": 67,
      "hit": false,
      "t": 194457.99599999617,
      "d": 656.4457812499604,
      "v": 79
    },
    {
      "midi": 62,
      "hit": false,
      "t": 194457.99599999617,
      "d": 675.201374999946,
      "v": 70
    },
    {
      "midi": 40,
      "hit": false,
      "t": 194457.99599999617,
      "d": 3007.1468645830755,
      "v": 70
    },
    {
      "midi": 57,
      "hit": false,
      "t": 195058.17499999615,
      "d": 25.00745833333349,
      "v": 13
    },
    {
      "midi": 55,
      "hit": false,
      "t": 195058.17499999615,
      "d": 81.27423958329018,
      "v": 37
    },
    {
      "midi": 59,
      "hit": false,
      "t": 195058.17499999615,
      "d": 100.02983333327575,
      "v": 53
    },
    {
      "midi": 47,
      "hit": false,
      "t": 195458.29433332942,
      "d": 256.3264479166537,
      "v": 57
    },
    {
      "midi": 67,
      "hit": false,
      "t": 195658.3539999961,
      "d": 56.2667812499858,
      "v": 61
    },
    {
      "midi": 71,
      "hit": false,
      "t": 195658.3539999961,
      "d": 68.77051041665254,
      "v": 79
    },
    {
      "midi": 62,
      "hit": false,
      "t": 195658.3539999961,
      "d": 75.02237499997136,
      "v": 61
    },
    {
      "midi": 52,
      "hit": false,
      "t": 195658.3539999961,
      "d": 250.07458333330578,
      "v": 45
    },
    {
      "midi": 71,
      "hit": false,
      "t": 196058.4733333294,
      "d": 25.00745833333349,
      "v": 61
    },
    {
      "midi": 64,
      "hit": false,
      "t": 196058.4733333294,
      "d": 106.28169791665277,
      "v": 97
    },
    {
      "midi": 69,
      "hit": false,
      "t": 196058.4733333294,
      "d": 187.55593749997206,
      "v": 97
    },
    {
      "midi": 72,
      "hit": false,
      "t": 196058.4733333294,
      "d": 231.3189895832911,
      "v": 88
    },
    {
      "midi": 67,
      "hit": false,
      "t": 196258.53299999604,
      "d": 300.08949999997276,
      "v": 79
    },
    {
      "midi": 71,
      "hit": false,
      "t": 196258.53299999604,
      "d": 300.08949999997276,
      "v": 70
    },
    {
      "midi": 52,
      "hit": false,
      "t": 196258.53299999604,
      "d": 356.35628124995856,
      "v": 49
    },
    {
      "midi": 62,
      "hit": false,
      "t": 196258.53299999604,
      "d": 537.6603541666118,
      "v": 57
    },
    {
      "midi": 47,
      "hit": false,
      "t": 196658.65233332932,
      "d": 237.57085416666814,
      "v": 45
    },
    {
      "midi": 67,
      "hit": false,
      "t": 196858.71199999598,
      "d": 187.55593750000116,
      "v": 70
    },
    {
      "midi": 52,
      "hit": false,
      "t": 196858.71199999598,
      "d": 343.8525520833209,
      "v": 49
    },
    {
      "midi": 74,
      "hit": false,
      "t": 196858.71199999598,
      "d": 568.9196770832932,
      "v": 79
    },
    {
      "midi": 47,
      "hit": false,
      "t": 197258.8313333293,
      "d": 243.82271874995786,
      "v": 37
    },
    {
      "midi": 52,
      "hit": false,
      "t": 197458.89099999593,
      "d": 56.2667812499858,
      "v": 49
    },
    {
      "midi": 62,
      "hit": false,
      "t": 197458.89099999593,
      "d": 56.2667812499858,
      "v": 88
    },
    {
      "midi": 67,
      "hit": false,
      "t": 197458.89099999593,
      "d": 75.02237499997136,
      "v": 88
    },
    {
      "midi": 71,
      "hit": false,
      "t": 197458.89099999593,
      "d": 81.27423958329018,
      "v": 79
    },
    {
      "midi": 40,
      "hit": false,
      "t": 197859.0103333292,
      "d": 81.27423958331929,
      "v": 79
    },
    {
      "midi": 62,
      "hit": false,
      "t": 198059.06999999585,
      "d": 250.07458333333489,
      "v": 88
    },
    {
      "midi": 67,
      "hit": false,
      "t": 198059.06999999585,
      "d": 356.35628124998766,
      "v": 97
    },
    {
      "midi": 71,
      "hit": false,
      "t": 198059.06999999585,
      "d": 400.1193333333067,
      "v": 97
    },
    {
      "midi": 41,
      "hit": false,
      "t": 198059.06999999585,
      "d": 3007.1468645830464,
      "v": 79
    },
    {
      "midi": 65,
      "hit": false,
      "t": 198459.18933332915,
      "d": 68.77051041665254,
      "v": 57
    },
    {
      "midi": 60,
      "hit": false,
      "t": 198459.18933332915,
      "d": 81.27423958331929,
      "v": 53
    },
    {
      "midi": 69,
      "hit": false,
      "t": 198459.18933332915,
      "d": 87.5261041666381,
      "v": 61
    },
    {
      "midi": 60,
      "hit": false,
      "t": 198659.2489999958,
      "d": 50.01491666666698,
      "v": 45
    },
    {
      "midi": 65,
      "hit": false,
      "t": 198659.2489999958,
      "d": 50.01491666666698,
      "v": 57
    },
    {
      "midi": 69,
      "hit": false,
      "t": 198659.2489999958,
      "d": 68.77051041665254,
      "v": 61
    },
    {
      "midi": 60,
      "hit": false,
      "t": 199059.3683333291,
      "d": 43.76305208331905,
      "v": 37
    },
    {
      "midi": 65,
      "hit": false,
      "t": 199059.3683333291,
      "d": 62.51864583330462,
      "v": 57
    },
    {
      "midi": 69,
      "hit": false,
      "t": 199059.3683333291,
      "d": 68.77051041662344,
      "v": 49
    },
    {
      "midi": 60,
      "hit": false,
      "t": 199259.4279999957,
      "d": 250.07458333333489,
      "v": 70
    },
    {
      "midi": 69,
      "hit": false,
      "t": 199259.4279999957,
      "d": 331.34882291665417,
      "v": 70
    },
    {
      "midi": 65,
      "hit": false,
      "t": 199259.4279999957,
      "d": 356.35628124998766,
      "v": 70
    },
    {
      "midi": 67,
      "hit": false,
      "t": 199659.547333329,
      "d": 31.25932291665231,
      "v": 57
    },
    {
      "midi": 62,
      "hit": false,
      "t": 199659.547333329,
      "d": 56.2667812499858,
      "v": 41
    },
    {
      "midi": 71,
      "hit": false,
      "t": 199659.547333329,
      "d": 62.51864583330462,
      "v": 57
    },
    {
      "midi": 62,
      "hit": false,
      "t": 199859.60699999565,
      "d": 306.3413645833207,
      "v": 79
    },
    {
      "midi": 67,
      "hit": false,
      "t": 199859.60699999565,
      "d": 343.8525520833209,
      "v": 88
    },
    {
      "midi": 71,
      "hit": false,
      "t": 199859.60699999565,
      "d": 393.8674687499879,
      "v": 88
    },
    {
      "midi": 53,
      "hit": false,
      "t": 199859.60699999565,
      "d": 1019.0539270832669,
      "v": 49
    },
    {
      "midi": 69,
      "hit": false,
      "t": 200259.72633332896,
      "d": 68.77051041665254,
      "v": 49
    },
    {
      "midi": 65,
      "hit": false,
      "t": 200259.72633332896,
      "d": 75.02237499997136,
      "v": 57
    },
    {
      "midi": 60,
      "hit": false,
      "t": 200459.7859999956,
      "d": 656.4457812499604,
      "v": 70
    },
    {
      "midi": 65,
      "hit": false,
      "t": 200459.7859999956,
      "d": 793.9868020832655,
      "v": 79
    },
    {
      "midi": 69,
      "hit": false,
      "t": 200459.7859999956,
      "d": 793.9868020832655,
      "v": 79
    },
    {
      "midi": 48,
      "hit": false,
      "t": 200859.90533332893,
      "d": 218.81526041662437,
      "v": 61
    },
    {
      "midi": 53,
      "hit": false,
      "t": 201059.96499999557,
      "d": 125.03729166663834,
      "v": 57
    },
    {
      "midi": 60,
      "hit": false,
      "t": 201260.02466666218,
      "d": 68.77051041665254,
      "v": 53
    },
    {
      "midi": 53,
      "hit": false,
      "t": 201460.08433332882,
      "d": 75.02237500000047,
      "v": 70
    },
    {
      "midi": 56,
      "hit": false,
      "t": 201660.14399999546,
      "d": 256.3264479166537,
      "v": 79
    },
    {
      "midi": 41,
      "hit": false,
      "t": 201660.14399999546,
      "d": 612.6827291666414,
      "v": 70
    },
    {
      "midi": 59,
      "hit": false,
      "t": 201660.14399999546,
      "d": 618.9345937499602,
      "v": 88
    },
    {
      "midi": 62,
      "hit": false,
      "t": 201660.14399999546,
      "d": 637.6901874999458,
      "v": 79
    },
    {
      "midi": 65,
      "hit": false,
      "t": 201660.14399999546,
      "d": 687.7051041666127,
      "v": 79
    },
    {
      "midi": 56,
      "hit": false,
      "t": 202260.32299999543,
      "d": 93.77796874995693,
      "v": 70
    },
    {
      "midi": 41,
      "hit": false,
      "t": 202660.4423333287,
      "d": 62.51864583333372,
      "v": 70
    },
    {
      "midi": 67,
      "hit": false,
      "t": 202860.50199999538,
      "d": 206.31153124998673,
      "v": 88
    },
    {
      "midi": 65,
      "hit": false,
      "t": 203060.56166666205,
      "d": 150.04474999997183,
      "v": 70
    },
    {
      "midi": 64,
      "hit": false,
      "t": 203260.6213333287,
      "d": 37.51118750000023,
      "v": 68
    },
    {
      "midi": 59,
      "hit": false,
      "t": 203460.68099999535,
      "d": 325.09695833330625,
      "v": 79
    },
    {
      "midi": 62,
      "hit": false,
      "t": 203460.68099999535,
      "d": 331.34882291662507,
      "v": 88
    },
    {
      "midi": 56,
      "hit": false,
      "t": 203460.68099999535,
      "d": 350.10441666661063,
      "v": 88
    },
    {
      "midi": 35,
      "hit": false,
      "t": 203460.68099999535,
      "d": 531.4084895832639,
      "v": 79
    },
    {
      "midi": 65,
      "hit": false,
      "t": 203460.68099999535,
      "d": 625.1864583332499,
      "v": 97
    },
    {
      "midi": 59,
      "hit": false,
      "t": 204060.85999999527,
      "d": 125.03729166666744,
      "v": 70
    },
    {
      "midi": 53,
      "hit": false,
      "t": 204060.85999999527,
      "d": 143.792885416653,
      "v": 61
    },
    {
      "midi": 62,
      "hit": false,
      "t": 204060.85999999527,
      "d": 143.792885416653,
      "v": 53
    },
    {
      "midi": 56,
      "hit": false,
      "t": 204060.85999999527,
      "d": 150.04474999997183,
      "v": 61
    },
    {
      "midi": 47,
      "hit": false,
      "t": 204661.03899999525,
      "d": 106.28169791665277,
      "v": 61
    },
    {
      "midi": 56,
      "hit": false,
      "t": 204661.03899999525,
      "d": 356.35628124998766,
      "v": 70
    },
    {
      "midi": 62,
      "hit": false,
      "t": 204661.03899999525,
      "d": 362.6081458333065,
      "v": 70
    },
    {
      "midi": 59,
      "hit": false,
      "t": 204661.03899999525,
      "d": 368.8600104166253,
      "v": 79
    },
    {
      "midi": 65,
      "hit": false,
      "t": 204661.03899999525,
      "d": 600.1789999999455,
      "v": 70
    },
    {
      "midi": 35,
      "hit": false,
      "t": 205061.15833332852,
      "d": 75.02237500000047,
      "v": 79
    },
    {
      "midi": 53,
      "hit": false,
      "t": 205061.15833332852,
      "d": 100.02983333333395,
      "v": 70
    },
    {
      "midi": 55,
      "hit": false,
      "t": 205261.2179999952,
      "d": 150.04475000000093,
      "v": 70
    },
    {
      "midi": 60,
      "hit": false,
      "t": 205261.2179999952,
      "d": 150.04475000000093,
      "v": 79
    },
    {
      "midi": 64,
      "hit": false,
      "t": 205261.2179999952,
      "d": 162.54847916666768,
      "v": 79
    },
    {
      "midi": 36,
      "hit": false,
      "t": 205261.2179999952,
      "d": 2932.1244895832497,
      "v": 79
    },
    {
      "midi": 60,
      "hit": false,
      "t": 205861.3969999952,
      "d": 75.02237500000047,
      "v": 61
    },
    {
      "midi": 64,
      "hit": false,
      "t": 205861.3969999952,
      "d": 87.52610416666721,
      "v": 61
    },
    {
      "midi": 55,
      "hit": false,
      "t": 205861.3969999952,
      "d": 93.77796874998603,
      "v": 61
    },
    {
      "midi": 60,
      "hit": false,
      "t": 206461.57599999517,
      "d": 62.51864583333372,
      "v": 70
    },
    {
      "midi": 64,
      "hit": false,
      "t": 206461.57599999517,
      "d": 75.02237500000047,
      "v": 61
    },
    {
      "midi": 55,
      "hit": false,
      "t": 206461.57599999517,
      "d": 87.52610416666721,
      "v": 70
    },
    {
      "midi": 43,
      "hit": false,
      "t": 206861.6953333285,
      "d": 243.82271874998696,
      "v": 70
    },
    {
      "midi": 64,
      "hit": false,
      "t": 207061.75499999517,
      "d": 375.1118749999732,
      "v": 88
    },
    {
      "midi": 60,
      "hit": false,
      "t": 207061.75499999517,
      "d": 387.61560416663997,
      "v": 97
    },
    {
      "midi": 55,
      "hit": false,
      "t": 207061.75499999517,
      "d": 400.1193333333067,
      "v": 88
    },
    {
      "midi": 48,
      "hit": false,
      "t": 207061.75499999517,
      "d": 687.7051041666418,
      "v": 61
    },
    {
      "midi": 64,
      "hit": false,
      "t": 207661.93399999515,
      "d": 187.55593750000116,
      "v": 70
    },
    {
      "midi": 55,
      "hit": false,
      "t": 207661.93399999515,
      "d": 206.31153124998673,
      "v": 70
    },
    {
      "midi": 60,
      "hit": false,
      "t": 207661.93399999515,
      "d": 206.31153124998673,
      "v": 79
    },
    {
      "midi": 67,
      "hit": false,
      "t": 207661.93399999515,
      "d": 250.07458333330578,
      "v": 79
    },
    {
      "midi": 48,
      "hit": false,
      "t": 208062.05333332845,
      "d": 456.3861145832925,
      "v": 61
    },
    {
      "midi": 69,
      "hit": false,
      "t": 208262.1129999951,
      "d": 68.77051041665254,
      "v": 97
    },
    {
      "midi": 39,
      "hit": false,
      "t": 208662.2323333284,
      "d": 137.5410208333342,
      "v": 79
    },
    {
      "midi": 55,
      "hit": false,
      "t": 208862.29199999504,
      "d": 306.3413645833207,
      "v": 70
    },
    {
      "midi": 59,
      "hit": false,
      "t": 208862.29199999504,
      "d": 362.6081458333065,
      "v": 79
    },
    {
      "midi": 62,
      "hit": false,
      "t": 208862.29199999504,
      "d": 750.2237499999756,
      "v": 79
    },
    {
      "midi": 64,
      "hit": false,
      "t": 208862.29199999504,
      "d": 762.7274791666132,
      "v": 79
    },
    {
      "midi": 67,
      "hit": false,
      "t": 208862.29199999504,
      "d": 781.4830729165988,
      "v": 79
    },
    {
      "midi": 40,
      "hit": false,
      "t": 208862.29199999504,
      "d": 1581.7217395832122,
      "v": 79
    },
    {
      "midi": 55,
      "hit": false,
      "t": 209462.470999995,
      "d": 156.29661458331975,
      "v": 57
    },
    {
      "midi": 59,
      "hit": false,
      "t": 209462.470999995,
      "d": 175.05220833330532,
      "v": 57
    },
    {
      "midi": 47,
      "hit": false,
      "t": 209862.5903333283,
      "d": 262.57831250000163,
      "v": 45
    },
    {
      "midi": 71,
      "hit": false,
      "t": 210062.64999999496,
      "d": 50.01491666666698,
      "v": 70
    },
    {
      "midi": 67,
      "hit": false,
      "t": 210062.64999999496,
      "d": 68.77051041665254,
      "v": 45
    },
    {
      "midi": 62,
      "hit": false,
      "t": 210062.64999999496,
      "d": 75.02237499997136,
      "v": 53
    },
    {
      "midi": 52,
      "hit": false,
      "t": 210062.64999999496,
      "d": 393.8674687499588,
      "v": 49
    },
    {
      "midi": 71,
      "hit": false,
      "t": 210462.76933332824,
      "d": 6.25186458331882,
      "v": 13
    },
    {
      "midi": 45,
      "hit": false,
      "t": 210462.76933332824,
      "d": 18.755593749985565,
      "v": 13
    },
    {
      "midi": 64,
      "hit": false,
      "t": 210462.76933332824,
      "d": 112.5335624999716,
      "v": 79
    },
    {
      "midi": 69,
      "hit": false,
      "t": 210462.76933332824,
      "d": 187.55593749997206,
      "v": 97
    },
    {
      "midi": 47,
      "hit": false,
      "t": 210462.76933332824,
      "d": 212.56339583330555,
      "v": 49
    },
    {
      "midi": 72,
      "hit": false,
      "t": 210462.76933332824,
      "d": 250.07458333330578,
      "v": 70
    },
    {
      "midi": 67,
      "hit": false,
      "t": 210662.82899999488,
      "d": 343.8525520833209,
      "v": 79
    },
    {
      "midi": 71,
      "hit": false,
      "t": 210662.82899999488,
      "d": 356.35628124998766,
      "v": 70
    },
    {
      "midi": 62,
      "hit": false,
      "t": 210662.82899999488,
      "d": 375.1118749999732,
      "v": 70
    },
    {
      "midi": 40,
      "hit": false,
      "t": 210662.82899999488,
      "d": 1031.5576562499336,
      "v": 70
    },
    {
      "midi": 71,
      "hit": false,
      "t": 211263.00799999485,
      "d": 162.54847916666768,
      "v": 88
    },
    {
      "midi": 67,
      "hit": false,
      "t": 211263.00799999485,
      "d": 243.82271874998696,
      "v": 88
    },
    {
      "midi": 74,
      "hit": false,
      "t": 211263.00799999485,
      "d": 531.4084895832639,
      "v": 88
    },
    {
      "midi": 52,
      "hit": false,
      "t": 211663.12733332816,
      "d": 112.5335624999716,
      "v": 61
    },
    {
      "midi": 71,
      "hit": false,
      "t": 211863.18699999477,
      "d": 68.77051041665254,
      "v": 79
    },
    {
      "midi": 67,
      "hit": false,
      "t": 211863.18699999477,
      "d": 75.02237499997136,
      "v": 88
    },
    {
      "midi": 62,
      "hit": false,
      "t": 211863.18699999477,
      "d": 81.27423958329018,
      "v": 79
    },
    {
      "midi": 40,
      "hit": false,
      "t": 212263.30633332804,
      "d": 87.52610416666721,
      "v": 61
    },
    {
      "midi": 62,
      "hit": false,
      "t": 212463.3659999947,
      "d": 243.82271874998696,
      "v": 88
    },
    {
      "midi": 67,
      "hit": false,
      "t": 212463.3659999947,
      "d": 343.8525520833209,
      "v": 88
    },
    {
      "midi": 71,
      "hit": false,
      "t": 212463.3659999947,
      "d": 381.36373958332115,
      "v": 97
    },
    {
      "midi": 41,
      "hit": false,
      "t": 212463.3659999947,
      "d": 2988.39127083309,
      "v": 70
    },
    {
      "midi": 65,
      "hit": false,
      "t": 212863.48533332802,
      "d": 68.77051041665254,
      "v": 61
    },
    {
      "midi": 60,
      "hit": false,
      "t": 212863.48533332802,
      "d": 81.27423958331929,
      "v": 57
    },
    {
      "midi": 69,
      "hit": false,
      "t": 212863.48533332802,
      "d": 87.5261041666381,
      "v": 61
    },
    {
      "midi": 60,
      "hit": false,
      "t": 213063.54499999466,
      "d": 43.76305208331905,
      "v": 49
    },
    {
      "midi": 65,
      "hit": false,
      "t": 213063.54499999466,
      "d": 50.01491666663787,
      "v": 57
    },
    {
      "midi": 69,
      "hit": false,
      "t": 213063.54499999466,
      "d": 56.26678124995669,
      "v": 70
    },
    {
      "midi": 65,
      "hit": false,
      "t": 213463.66433332794,
      "d": 43.76305208331905,
      "v": 53
    },
    {
      "midi": 60,
      "hit": false,
      "t": 213463.66433332794,
      "d": 56.2667812499858,
      "v": 33
    },
    {
      "midi": 69,
      "hit": false,
      "t": 213463.66433332794,
      "d": 62.51864583330462,
      "v": 57
    },
    {
      "midi": 53,
      "hit": false,
      "t": 213663.72399999457,
      "d": 62.51864583333372,
      "v": 13
    },
    {
      "midi": 60,
      "hit": false,
      "t": 213663.72399999457,
      "d": 287.5857708333351,
      "v": 70
    },
    {
      "midi": 69,
      "hit": false,
      "t": 213663.72399999457,
      "d": 337.6006875000021,
      "v": 79
    },
    {
      "midi": 65,
      "hit": false,
      "t": 213663.72399999457,
      "d": 362.6081458333356,
      "v": 79
    },
    {
      "midi": 62,
      "hit": false,
      "t": 214063.8433333279,
      "d": 25.00745833333349,
      "v": 22
    },
    {
      "midi": 67,
      "hit": false,
      "t": 214063.8433333279,
      "d": 37.51118750000023,
      "v": 61
    },
    {
      "midi": 71,
      "hit": false,
      "t": 214063.8433333279,
      "d": 62.51864583333372,
      "v": 57
    },
    {
      "midi": 62,
      "hit": false,
      "t": 214263.90299999458,
      "d": 412.62306249997346,
      "v": 79
    },
    {
      "midi": 67,
      "hit": false,
      "t": 214263.90299999458,
      "d": 556.4159479166265,
      "v": 88
    },
    {
      "midi": 71,
      "hit": false,
      "t": 214263.90299999458,
      "d": 606.4308645832643,
      "v": 97
    },
    {
      "midi": 48,
      "hit": false,
      "t": 214263.90299999458,
      "d": 1181.6024062499055,
      "v": 61
    },
    {
      "midi": 53,
      "hit": false,
      "t": 214664.02233332788,
      "d": 550.1640833332785,
      "v": 49
    },
    {
      "midi": 65,
      "hit": false,
      "t": 214864.08199999452,
      "d": 612.6827291666123,
      "v": 79
    },
    {
      "midi": 69,
      "hit": false,
      "t": 214864.08199999452,
      "d": 618.9345937499311,
      "v": 70
    },
    {
      "midi": 60,
      "hit": false,
      "t": 214864.08199999452,
      "d": 643.9420520832646,
      "v": 79
    },
    {
      "midi": 53,
      "hit": false,
      "t": 215464.26099999447,
      "d": 75.02237499997136,
      "v": 53
    },
    {
      "midi": 48,
      "hit": false,
      "t": 215864.38033332778,
      "d": 68.77051041665254,
      "v": 61
    },
    {
      "midi": 56,
      "hit": false,
      "t": 216064.4399999944,
      "d": 1087.8244374999776,
      "v": 79
    },
    {
      "midi": 41,
      "hit": false,
      "t": 216064.4399999944,
      "d": 1181.6024062499637,
      "v": 70
    },
    {
      "midi": 60,
      "hit": false,
      "t": 216064.4399999944,
      "d": 1269.1285104166018,
      "v": 88
    },
    {
      "midi": 63,
      "hit": false,
      "t": 216064.4399999944,
      "d": 1356.65461458324,
      "v": 79
    },
    {
      "midi": 67,
      "hit": false,
      "t": 216064.4399999944,
      "d": 1813.0407291665324,
      "v": 88
    },
    {
      "midi": 51,
      "hit": false,
      "t": 216664.61899999442,
      "d": 293.83763541665394,
      "v": 28
    },
    {
      "midi": 48,
      "hit": false,
      "t": 217064.73833332772,
      "d": 225.0671249999723,
      "v": 61
    },
    {
      "midi": 51,
      "hit": false,
      "t": 217264.79799999436,
      "d": 100.02983333330485,
      "v": 70
    },
    {
      "midi": 56,
      "hit": false,
      "t": 217464.85766666097,
      "d": 250.07458333333489,
      "v": 70
    },
    {
      "midi": 63,
      "hit": false,
      "t": 217664.91733332764,
      "d": 168.8003437499865,
      "v": 70
    },
    {
      "midi": 34,
      "hit": false,
      "t": 217864.97699999428,
      "d": 600.1789999999746,
      "v": 57
    },
    {
      "midi": 56,
      "hit": false,
      "t": 217864.97699999428,
      "d": 906.5203645832953,
      "v": 79
    },
    {
      "midi": 60,
      "hit": false,
      "t": 217864.97699999428,
      "d": 1200.3579999999492,
      "v": 53
    },
    {
      "midi": 62,
      "hit": false,
      "t": 217864.97699999428,
      "d": 1200.3579999999492,
      "v": 88
    },
    {
      "midi": 65,
      "hit": false,
      "t": 217864.97699999428,
      "d": 1200.3579999999492,
      "v": 70
    },
    {
      "midi": 55,
      "hit": false,
      "t": 219903.0848541609,
      "d": 668.9495104166563,
      "v": 61
    },
    {
      "midi": 60,
      "hit": false,
      "t": 219903.0848541609,
      "d": 850.2535833333095,
      "v": 61
    },
    {
      "midi": 64,
      "hit": false,
      "t": 219903.0848541609,
      "d": 1006.5501979166293,
      "v": 70
    },
    {
      "midi": 36,
      "hit": false,
      "t": 219903.0848541609,
      "d": 4038.7045208333,
      "v": 81
    }
  ]
}