{
  "jsonPath": "Pop/Classic Uk Pop/The Flying Pickets/sign-your-name.json",
  "path": "Pop\\Classic Uk Pop\\The Flying Pickets\\Sign Your Name.mid",
  "name": "Sign Your Name",
  "difficulty": "Intermediate",
  "bpm": 109.00172586065946,
  "notes": [
    {
      "midi": 61,
      "hit": false,
      "t": 24225.533854166664,
      "d": 693.796354166665,
      "v": 41
    },
    {
      "midi": 65,
      "hit": false,
      "t": 24225.533854166664,
      "d": 693.796354166665,
      "v": 65
    },
    {
      "midi": 68,
      "hit": false,
      "t": 24225.533854166664,
      "d": 693.796354166665,
      "v": 42
    },
    {
      "midi": 61,
      "hit": false,
      "t": 26398.664583333328,
      "d": 361.2328125000022,
      "v": 52
    },
    {
      "midi": 71,
      "hit": false,
      "t": 26398.664583333328,
      "d": 366.96666666666715,
      "v": 61
    },
    {
      "midi": 66,
      "hit": false,
      "t": 26398.664583333328,
      "d": 372.7005208333321,
      "v": 61
    },
    {
      "midi": 61,
      "hit": false,
      "t": 27528.23385416666,
      "d": 1089.4322916666642,
      "v": 44
    },
    {
      "midi": 65,
      "hit": false,
      "t": 27528.23385416666,
      "d": 1089.4322916666642,
      "v": 63
    },
    {
      "midi": 68,
      "hit": false,
      "t": 27528.23385416666,
      "d": 1089.4322916666642,
      "v": 61
    },
    {
      "midi": 61,
      "hit": false,
      "t": 28617.666145833326,
      "d": 1508.0036458333343,
      "v": 41
    },
    {
      "midi": 66,
      "hit": false,
      "t": 28623.39999999999,
      "d": 1536.67291666667,
      "v": 50
    },
    {
      "midi": 69,
      "hit": false,
      "t": 28623.39999999999,
      "d": 1548.1406250000036,
      "v": 44
    },
    {
      "midi": 61,
      "hit": false,
      "t": 33021.266145833324,
      "d": 510.3130208333314,
      "v": 46
    },
    {
      "midi": 65,
      "hit": false,
      "t": 33021.266145833324,
      "d": 516.046875,
      "v": 66
    },
    {
      "midi": 68,
      "hit": false,
      "t": 33021.266145833324,
      "d": 533.2484374999985,
      "v": 55
    },
    {
      "midi": 61,
      "hit": false,
      "t": 35223.06614583332,
      "d": 361.23281249999854,
      "v": 50
    },
    {
      "midi": 71,
      "hit": false,
      "t": 35223.06614583332,
      "d": 366.96666666666715,
      "v": 53
    },
    {
      "midi": 66,
      "hit": false,
      "t": 35223.06614583332,
      "d": 384.1682291666657,
      "v": 64
    },
    {
      "midi": 61,
      "hit": false,
      "t": 36346.90156249999,
      "d": 389.9020833333416,
      "v": 37
    },
    {
      "midi": 65,
      "hit": false,
      "t": 36346.90156249999,
      "d": 407.1036458333401,
      "v": 57
    },
    {
      "midi": 68,
      "hit": false,
      "t": 36346.90156249999,
      "d": 418.57135416667006,
      "v": 51
    },
    {
      "midi": 61,
      "hit": false,
      "t": 37424.86614583332,
      "d": 3061.878125000003,
      "v": 50
    },
    {
      "midi": 66,
      "hit": false,
      "t": 37424.86614583332,
      "d": 3090.5473958333387,
      "v": 60
    },
    {
      "midi": 69,
      "hit": false,
      "t": 37424.86614583332,
      "d": 3096.2812500000073,
      "v": 59
    },
    {
      "midi": 65,
      "hit": false,
      "t": 41828.46614583333,
      "d": 636.4578125000044,
      "v": 61
    },
    {
      "midi": 61,
      "hit": false,
      "t": 41828.46614583333,
      "d": 642.191666666673,
      "v": 41
    },
    {
      "midi": 68,
      "hit": false,
      "t": 41828.46614583333,
      "d": 665.1270833333401,
      "v": 52
    },
    {
      "midi": 71,
      "hit": false,
      "t": 44030.26614583334,
      "d": 516.0468749999927,
      "v": 49
    },
    {
      "midi": 66,
      "hit": false,
      "t": 44030.26614583334,
      "d": 527.5145833333227,
      "v": 57
    },
    {
      "midi": 61,
      "hit": false,
      "t": 44030.26614583334,
      "d": 556.1838541666584,
      "v": 41
    },
    {
      "midi": 65,
      "hit": false,
      "t": 45154.1015625,
      "d": 389.9020833333416,
      "v": 57
    },
    {
      "midi": 61,
      "hit": false,
      "t": 45154.1015625,
      "d": 412.83750000000873,
      "v": 43
    },
    {
      "midi": 68,
      "hit": false,
      "t": 45154.1015625,
      "d": 430.0390625000073,
      "v": 65
    },
    {
      "midi": 61,
      "hit": false,
      "t": 46226.33229166667,
      "d": 3239.6276041666715,
      "v": 50
    },
    {
      "midi": 69,
      "hit": false,
      "t": 46226.33229166667,
      "d": 3262.5630208333387,
      "v": 52
    },
    {
      "midi": 66,
      "hit": false,
      "t": 46226.33229166667,
      "d": 3274.0307291666686,
      "v": 56
    },
    {
      "midi": 65,
      "hit": false,
      "t": 50629.93229166667,
      "d": 739.6671874999956,
      "v": 59
    },
    {
      "midi": 61,
      "hit": false,
      "t": 50629.93229166667,
      "d": 751.1348958333256,
      "v": 44
    },
    {
      "midi": 68,
      "hit": false,
      "t": 50629.93229166667,
      "d": 774.0703124999927,
      "v": 56
    },
    {
      "midi": 65,
      "hit": false,
      "t": 52825.9984375,
      "d": 521.7807291666686,
      "v": 65
    },
    {
      "midi": 71,
      "hit": false,
      "t": 52831.73229166667,
      "d": 498.84531250000146,
      "v": 60
    },
    {
      "midi": 61,
      "hit": false,
      "t": 52831.73229166667,
      "d": 550.4499999999971,
      "v": 48
    },
    {
      "midi": 61,
      "hit": false,
      "t": 53921.16458333333,
      "d": 3193.75677083333,
      "v": 41
    },
    {
      "midi": 68,
      "hit": false,
      "t": 53921.16458333333,
      "d": 3193.75677083333,
      "v": 47
    },
    {
      "midi": 65,
      "hit": false,
      "t": 53921.16458333333,
      "d": 3210.9583333333285,
      "v": 44
    },
    {
      "midi": 66,
      "hit": false,
      "t": 57235.33229166666,
      "d": 1198.3755208333314,
      "v": 58
    },
    {
      "midi": 69,
      "hit": false,
      "t": 57235.33229166666,
      "d": 1198.3755208333314,
      "v": 52
    },
    {
      "midi": 61,
      "hit": false,
      "t": 57235.33229166666,
      "d": 1204.109375,
      "v": 61
    },
    {
      "midi": 71,
      "hit": false,
      "t": 61644.666145833326,
      "d": 911.6828125000029,
      "v": 59
    },
    {
      "midi": 63,
      "hit": false,
      "t": 61644.666145833326,
      "d": 928.8843750000015,
      "v": 60
    },
    {
      "midi": 66,
      "hit": false,
      "t": 61650.399999999994,
      "d": 923.1505208333328,
      "v": 62
    },
    {
      "midi": 66,
      "hit": false,
      "t": 66042.53229166666,
      "d": 1118.1015625,
      "v": 56
    },
    {
      "midi": 69,
      "hit": false,
      "t": 66042.53229166666,
      "d": 1118.1015625,
      "v": 53
    },
    {
      "midi": 61,
      "hit": false,
      "t": 66042.53229166666,
      "d": 1141.0369791666599,
      "v": 63
    },
    {
      "midi": 71,
      "hit": false,
      "t": 70446.13229166667,
      "d": 1077.9645833333343,
      "v": 65
    },
    {
      "midi": 66,
      "hit": false,
      "t": 70446.13229166667,
      "d": 1083.698437500003,
      "v": 64
    },
    {
      "midi": 63,
      "hit": false,
      "t": 70446.13229166667,
      "d": 1095.1661458333401,
      "v": 56
    },
    {
      "midi": 71,
      "hit": false,
      "t": 74855.46614583333,
      "d": 728.1994791666802,
      "v": 56
    },
    {
      "midi": 68,
      "hit": false,
      "t": 74855.46614583333,
      "d": 739.6671875000175,
      "v": 65
    },
    {
      "midi": 64,
      "hit": false,
      "t": 74855.46614583333,
      "d": 745.4010416666861,
      "v": 69
    },
    {
      "midi": 71,
      "hit": false,
      "t": 77057.26614583335,
      "d": 2029.784375000003,
      "v": 58
    },
    {
      "midi": 68,
      "hit": false,
      "t": 77057.26614583335,
      "d": 2041.2520833333401,
      "v": 62
    },
    {
      "midi": 65,
      "hit": false,
      "t": 77057.26614583335,
      "d": 2069.9213541666686,
      "v": 68
    },
    {
      "midi": 61,
      "hit": false,
      "t": 79270.53385416669,
      "d": 693.7963541666686,
      "v": 41
    },
    {
      "midi": 65,
      "hit": false,
      "t": 79270.53385416669,
      "d": 693.7963541666686,
      "v": 65
    },
    {
      "midi": 68,
      "hit": false,
      "t": 79270.53385416669,
      "d": 693.7963541666686,
      "v": 42
    },
    {
      "midi": 61,
      "hit": false,
      "t": 81443.66458333336,
      "d": 361.2328125000058,
      "v": 52
    },
    {
      "midi": 71,
      "hit": false,
      "t": 81443.66458333336,
      "d": 366.9666666666744,
      "v": 61
    },
    {
      "midi": 66,
      "hit": false,
      "t": 81443.66458333336,
      "d": 372.70052083334303,
      "v": 61
    },
    {
      "midi": 61,
      "hit": false,
      "t": 82573.2338541667,
      "d": 1089.4322916666715,
      "v": 44
    },
    {
      "midi": 65,
      "hit": false,
      "t": 82573.2338541667,
      "d": 1089.4322916666715,
      "v": 63
    },
    {
      "midi": 68,
      "hit": false,
      "t": 82573.2338541667,
      "d": 1089.4322916666715,
      "v": 61
    },
    {
      "midi": 61,
      "hit": false,
      "t": 83662.66614583337,
      "d": 1508.0036458333343,
      "v": 41
    },
    {
      "midi": 66,
      "hit": false,
      "t": 83668.40000000004,
      "d": 1536.6729166666628,
      "v": 50
    },
    {
      "midi": 69,
      "hit": false,
      "t": 83668.40000000004,
      "d": 1548.140625,
      "v": 44
    },
    {
      "midi": 61,
      "hit": false,
      "t": 88066.26614583338,
      "d": 516.046875,
      "v": 46
    },
    {
      "midi": 65,
      "hit": false,
      "t": 88066.26614583338,
      "d": 521.7807291666686,
      "v": 66
    },
    {
      "midi": 68,
      "hit": false,
      "t": 88066.26614583338,
      "d": 538.9822916666744,
      "v": 55
    },
    {
      "midi": 61,
      "hit": false,
      "t": 90268.06614583338,
      "d": 361.23281249999127,
      "v": 50
    },
    {
      "midi": 71,
      "hit": false,
      "t": 90268.06614583338,
      "d": 366.9666666666599,
      "v": 53
    },
    {
      "midi": 66,
      "hit": false,
      "t": 90268.06614583338,
      "d": 384.1682291666657,
      "v": 64
    },
    {
      "midi": 61,
      "hit": false,
      "t": 91391.90156250005,
      "d": 389.9020833333343,
      "v": 37
    },
    {
      "midi": 65,
      "hit": false,
      "t": 91391.90156250005,
      "d": 407.1036458333401,
      "v": 57
    },
    {
      "midi": 68,
      "hit": false,
      "t": 91391.90156250005,
      "d": 418.57135416667734,
      "v": 51
    },
    {
      "midi": 61,
      "hit": false,
      "t": 92469.8661458334,
      "d": 3061.878125000003,
      "v": 50
    },
    {
      "midi": 66,
      "hit": false,
      "t": 92469.8661458334,
      "d": 3090.5473958333314,
      "v": 60
    },
    {
      "midi": 69,
      "hit": false,
      "t": 92469.8661458334,
      "d": 3096.28125,
      "v": 59
    },
    {
      "midi": 65,
      "hit": false,
      "t": 96873.4661458334,
      "d": 636.4578124999971,
      "v": 61
    },
    {
      "midi": 61,
      "hit": false,
      "t": 96873.4661458334,
      "d": 642.1916666666657,
      "v": 41
    },
    {
      "midi": 68,
      "hit": false,
      "t": 96873.4661458334,
      "d": 665.1270833333256,
      "v": 52
    },
    {
      "midi": 71,
      "hit": false,
      "t": 99075.26614583339,
      "d": 516.0468750000146,
      "v": 49
    },
    {
      "midi": 66,
      "hit": false,
      "t": 99075.26614583339,
      "d": 527.5145833333518,
      "v": 57
    },
    {
      "midi": 61,
      "hit": false,
      "t": 99075.26614583339,
      "d": 556.1838541666802,
      "v": 41
    },
    {
      "midi": 65,
      "hit": false,
      "t": 100199.10156250007,
      "d": 389.90208333331975,
      "v": 57
    },
    {
      "midi": 61,
      "hit": false,
      "t": 100199.10156250007,
      "d": 412.8374999999796,
      "v": 43
    },
    {
      "midi": 68,
      "hit": false,
      "t": 100199.10156250007,
      "d": 430.03906249998545,
      "v": 65
    },
    {
      "midi": 61,
      "hit": false,
      "t": 101271.33229166672,
      "d": 3239.627604166657,
      "v": 50
    },
    {
      "midi": 69,
      "hit": false,
      "t": 101271.33229166672,
      "d": 3262.563020833317,
      "v": 52
    },
    {
      "midi": 66,
      "hit": false,
      "t": 101271.33229166672,
      "d": 3274.030729166654,
      "v": 56
    },
    {
      "midi": 65,
      "hit": false,
      "t": 105674.93229166672,
      "d": 739.6671875000029,
      "v": 59
    },
    {
      "midi": 61,
      "hit": false,
      "t": 105674.93229166672,
      "d": 751.1348958333401,
      "v": 44
    },
    {
      "midi": 68,
      "hit": false,
      "t": 105674.93229166672,
      "d": 774.0703125,
      "v": 56
    },
    {
      "midi": 71,
      "hit": false,
      "t": 107876.73229166672,
      "d": 504.5791666666628,
      "v": 60
    },
    {
      "midi": 65,
      "hit": false,
      "t": 107876.73229166672,
      "d": 516.046875,
      "v": 65
    },
    {
      "midi": 61,
      "hit": false,
      "t": 107876.73229166672,
      "d": 556.1838541666657,
      "v": 48
    },
    {
      "midi": 61,
      "hit": false,
      "t": 108966.16458333339,
      "d": 3199.490625000006,
      "v": 41
    },
    {
      "midi": 68,
      "hit": false,
      "t": 108966.16458333339,
      "d": 3199.490625000006,
      "v": 47
    },
    {
      "midi": 65,
      "hit": false,
      "t": 108966.16458333339,
      "d": 3216.6921875000116,
      "v": 44
    },
    {
      "midi": 66,
      "hit": false,
      "t": 112286.0661458334,
      "d": 1198.3755208333314,
      "v": 58
    },
    {
      "midi": 69,
      "hit": false,
      "t": 112286.0661458334,
      "d": 1198.3755208333314,
      "v": 52
    },
    {
      "midi": 61,
      "hit": false,
      "t": 112291.80000000008,
      "d": 1198.3755208333314,
      "v": 61
    },
    {
      "midi": 71,
      "hit": false,
      "t": 116689.66614583341,
      "d": 911.6828124999884,
      "v": 59
    },
    {
      "midi": 63,
      "hit": false,
      "t": 116689.66614583341,
      "d": 928.8843749999942,
      "v": 60
    },
    {
      "midi": 66,
      "hit": false,
      "t": 116689.66614583341,
      "d": 928.8843749999942,
      "v": 62
    },
    {
      "midi": 66,
      "hit": false,
      "t": 121087.53229166675,
      "d": 1118.1015625,
      "v": 56
    },
    {
      "midi": 69,
      "hit": false,
      "t": 121087.53229166675,
      "d": 1118.1015625,
      "v": 53
    },
    {
      "midi": 61,
      "hit": false,
      "t": 121087.53229166675,
      "d": 1141.0369791666599,
      "v": 63
    },
    {
      "midi": 71,
      "hit": false,
      "t": 125491.13229166676,
      "d": 1077.9645833333343,
      "v": 65
    },
    {
      "midi": 66,
      "hit": false,
      "t": 125491.13229166676,
      "d": 1083.698437500003,
      "v": 64
    },
    {
      "midi": 63,
      "hit": false,
      "t": 125491.13229166676,
      "d": 1095.1661458333401,
      "v": 56
    },
    {
      "midi": 71,
      "hit": false,
      "t": 129900.46614583342,
      "d": 722.4656250000116,
      "v": 56
    },
    {
      "midi": 64,
      "hit": false,
      "t": 129900.46614583342,
      "d": 739.6671875000175,
      "v": 69
    },
    {
      "midi": 68,
      "hit": false,
      "t": 129900.46614583342,
      "d": 739.6671875000175,
      "v": 65
    },
    {
      "midi": 71,
      "hit": false,
      "t": 132102.26614583342,
      "d": 2029.7843750000175,
      "v": 58
    },
    {
      "midi": 68,
      "hit": false,
      "t": 132102.26614583342,
      "d": 2041.2520833333547,
      "v": 62
    },
    {
      "midi": 65,
      "hit": false,
      "t": 132102.26614583342,
      "d": 2069.9213541666977,
      "v": 68
    },
    {
      "midi": 66,
      "hit": false,
      "t": 134292.59843750013,
      "d": 756.8687500000233,
      "v": 55
    },
    {
      "midi": 74,
      "hit": false,
      "t": 134292.59843750013,
      "d": 756.8687500000233,
      "v": 77
    },
    {
      "midi": 69,
      "hit": false,
      "t": 134292.59843750013,
      "d": 785.5380208333663,
      "v": 71
    },
    {
      "midi": 64,
      "hit": false,
      "t": 136494.39843750017,
      "d": 573.385416666657,
      "v": 62
    },
    {
      "midi": 69,
      "hit": false,
      "t": 136494.39843750017,
      "d": 596.3208333333314,
      "v": 69
    },
    {
      "midi": 73,
      "hit": false,
      "t": 136494.39843750017,
      "d": 602.0546875,
      "v": 69
    },
    {
      "midi": 65,
      "hit": false,
      "t": 138696.19843750016,
      "d": 693.7963541666686,
      "v": 66
    },
    {
      "midi": 68,
      "hit": false,
      "t": 138696.19843750016,
      "d": 710.9979166666744,
      "v": 69
    },
    {
      "midi": 73,
      "hit": false,
      "t": 138696.19843750016,
      "d": 722.4656250000116,
      "v": 70
    },
    {
      "midi": 66,
      "hit": false,
      "t": 140892.2645833335,
      "d": 527.5145833333372,
      "v": 61
    },
    {
      "midi": 73,
      "hit": false,
      "t": 140897.99843750018,
      "d": 2075.6552083333663,
      "v": 77
    },
    {
      "midi": 69,
      "hit": false,
      "t": 140897.99843750018,
      "d": 2098.5906250000407,
      "v": 59
    },
    {
      "midi": 64,
      "hit": false,
      "t": 141448.4484375002,
      "d": 561.9177083333489,
      "v": 80
    },
    {
      "midi": 62,
      "hit": false,
      "t": 142004.63229166687,
      "d": 579.1192708333547,
      "v": 61
    },
    {
      "midi": 61,
      "hit": false,
      "t": 142555.08229166688,
      "d": 533.2484375000058,
      "v": 69
    },
    {
      "midi": 66,
      "hit": false,
      "t": 143076.86302083355,
      "d": 1077.9645833333489,
      "v": 65
    },
    {
      "midi": 74,
      "hit": false,
      "t": 143076.86302083355,
      "d": 1123.8354166666686,
      "v": 76
    },
    {
      "midi": 69,
      "hit": false,
      "t": 143076.86302083355,
      "d": 1163.9723958333489,
      "v": 71
    },
    {
      "midi": 64,
      "hit": false,
      "t": 145301.59843750024,
      "d": 716.731770833343,
      "v": 57
    },
    {
      "midi": 73,
      "hit": false,
      "t": 145301.59843750024,
      "d": 779.8041666666686,
      "v": 65
    },
    {
      "midi": 69,
      "hit": false,
      "t": 145301.59843750024,
      "d": 791.2718750000058,
      "v": 63
    },
    {
      "midi": 73,
      "hit": false,
      "t": 147480.4630208336,
      "d": 946.0859375,
      "v": 60
    },
    {
      "midi": 80,
      "hit": false,
      "t": 147480.4630208336,
      "d": 957.5536458333372,
      "v": 61
    },
    {
      "midi": 77,
      "hit": false,
      "t": 147480.4630208336,
      "d": 963.2875000000058,
      "v": 50
    },
    {
      "midi": 69,
      "hit": false,
      "t": 151906.99843750027,
      "d": 430.0390625,
      "v": 59
    },
    {
      "midi": 66,
      "hit": false,
      "t": 151906.99843750027,
      "d": 452.9744791666744,
      "v": 54
    },
    {
      "midi": 74,
      "hit": false,
      "t": 151906.99843750027,
      "d": 458.70833333334303,
      "v": 70
    },
    {
      "midi": 76,
      "hit": false,
      "t": 153283.12343750027,
      "d": 263.7572916666686,
      "v": 74
    },
    {
      "midi": 78,
      "hit": false,
      "t": 153564.08229166694,
      "d": 263.7572916666686,
      "v": 74
    },
    {
      "midi": 80,
      "hit": false,
      "t": 153839.30729166695,
      "d": 103.20937500000582,
      "v": 72
    },
    {
      "midi": 76,
      "hit": false,
      "t": 154108.79843750029,
      "d": 722.4656249999825,
      "v": 70
    },
    {
      "midi": 81,
      "hit": false,
      "t": 154108.79843750029,
      "d": 733.9333333333198,
      "v": 71
    },
    {
      "midi": 73,
      "hit": false,
      "t": 154108.79843750029,
      "d": 756.8687499999942,
      "v": 62
    },
    {
      "midi": 80,
      "hit": false,
      "t": 156310.59843750027,
      "d": 533.2484375000058,
      "v": 65
    },
    {
      "midi": 77,
      "hit": false,
      "t": 156310.59843750027,
      "d": 538.9822916666744,
      "v": 69
    },
    {
      "midi": 73,
      "hit": false,
      "t": 156310.59843750027,
      "d": 561.9177083333489,
      "v": 53
    },
    {
      "midi": 73,
      "hit": false,
      "t": 158506.66458333362,
      "d": 1932.3088541667094,
      "v": 51
    },
    {
      "midi": 81,
      "hit": false,
      "t": 158506.66458333362,
      "d": 1932.3088541667094,
      "v": 62
    },
    {
      "midi": 54,
      "hit": false,
      "t": 158512.3984375003,
      "d": 533.2484375000058,
      "v": 57
    },
    {
      "midi": 78,
      "hit": false,
      "t": 158512.3984375003,
      "d": 1938.042708333378,
      "v": 57
    },
    {
      "midi": 52,
      "hit": false,
      "t": 159028.4453125003,
      "d": 584.8531250000233,
      "v": 65
    },
    {
      "midi": 50,
      "hit": false,
      "t": 159584.62916666697,
      "d": 590.5869791666919,
      "v": 68
    },
    {
      "midi": 49,
      "hit": false,
      "t": 160146.54687500032,
      "d": 579.1192708333547,
      "v": 60
    },
    {
      "midi": 78,
      "hit": false,
      "t": 160719.932291667,
      "d": 395.63593750001746,
      "v": 60
    },
    {
      "midi": 74,
      "hit": false,
      "t": 160725.66614583367,
      "d": 384.16822916668025,
      "v": 53
    },
    {
      "midi": 69,
      "hit": false,
      "t": 160737.133854167,
      "d": 344.03125,
      "v": 53
    },
    {
      "midi": 73,
      "hit": false,
      "t": 162915.99843750036,
      "d": 401.36979166665697,
      "v": 62
    },
    {
      "midi": 81,
      "hit": false,
      "t": 162915.99843750036,
      "d": 412.8374999999942,
      "v": 69
    },
    {
      "midi": 76,
      "hit": false,
      "t": 162915.99843750036,
      "d": 418.5713541666628,
      "v": 73
    },
    {
      "midi": 49,
      "hit": false,
      "t": 165117.79843750034,
      "d": 487.37760416665697,
      "v": 59
    },
    {
      "midi": 77,
      "hit": false,
      "t": 165117.79843750034,
      "d": 7454.010416666715,
      "v": 63
    },
    {
      "midi": 80,
      "hit": false,
      "t": 165117.79843750034,
      "d": 7454.010416666715,
      "v": 52
    },
    {
      "midi": 73,
      "hit": false,
      "t": 165117.79843750034,
      "d": 7476.94583333339,
      "v": 55
    },
    {
      "midi": 50,
      "hit": false,
      "t": 165656.780729167,
      "d": 332.5635416666919,
      "v": 67
    },
    {
      "midi": 49,
      "hit": false,
      "t": 165949.207291667,
      "d": 229.35416666668607,
      "v": 70
    },
    {
      "midi": 50,
      "hit": false,
      "t": 166493.92343750034,
      "d": 189.21718750000582,
      "v": 68
    },
    {
      "midi": 49,
      "hit": false,
      "t": 167319.59843750036,
      "d": 498.8453124999942,
      "v": 74
    },
    {
      "midi": 50,
      "hit": false,
      "t": 167864.31458333367,
      "d": 292.42656250001164,
      "v": 66
    },
    {
      "midi": 49,
      "hit": false,
      "t": 168156.7411458337,
      "d": 189.21718750000582,
      "v": 73
    },
    {
      "midi": 50,
      "hit": false,
      "t": 168707.1911458337,
      "d": 172.015625,
      "v": 75
    },
    {
      "midi": 49,
      "hit": false,
      "t": 169509.93072916704,
      "d": 510.3130208333314,
      "v": 74
    },
    {
      "midi": 50,
      "hit": false,
      "t": 170048.91302083372,
      "d": 280.9588541666744,
      "v": 74
    },
    {
      "midi": 49,
      "hit": false,
      "t": 170341.33958333373,
      "d": 246.5557291666628,
      "v": 74
    },
    {
      "midi": 50,
      "hit": false,
      "t": 170908.99114583372,
      "d": 194.95104166667443,
      "v": 74
    },
    {
      "midi": 49,
      "hit": false,
      "t": 171453.70729166706,
      "d": 212.15260416668025,
      "v": 74
    },
    {
      "midi": 49,
      "hit": false,
      "t": 172824.0984375004,
      "d": 120.41093750001164,
      "v": 74
    },
    {
      "midi": 73,
      "hit": false,
      "t": 172824.0984375004,
      "d": 120.41093750001164,
      "v": 60
    },
    {
      "midi": 77,
      "hit": false,
      "t": 172824.0984375004,
      "d": 126.14479166668025,
      "v": 74
    },
    {
      "midi": 80,
      "hit": false,
      "t": 172824.0984375004,
      "d": 126.14479166668025,
      "v": 67
    },
    {
      "midi": 80,
      "hit": false,
      "t": 173099.3234375004,
      "d": 103.20937500000582,
      "v": 69
    },
    {
      "midi": 77,
      "hit": false,
      "t": 173099.3234375004,
      "d": 108.94322916667443,
      "v": 74
    },
    {
      "midi": 49,
      "hit": false,
      "t": 173099.3234375004,
      "d": 120.41093750001164,
      "v": 74
    },
    {
      "midi": 73,
      "hit": false,
      "t": 173099.3234375004,
      "d": 126.14479166668025,
      "v": 69
    },
    {
      "midi": 49,
      "hit": false,
      "t": 173374.5484375004,
      "d": 177.7494791666686,
      "v": 74
    },
    {
      "midi": 73,
      "hit": false,
      "t": 173374.5484375004,
      "d": 349.7651041666686,
      "v": 76
    },
    {
      "midi": 77,
      "hit": false,
      "t": 173374.5484375004,
      "d": 361.2328125000058,
      "v": 96
    },
    {
      "midi": 80,
      "hit": false,
      "t": 173374.5484375004,
      "d": 361.2328125000058,
      "v": 78
    },
    {
      "midi": 61,
      "hit": false,
      "t": 195965.93385416706,
      "d": 693.7963541666686,
      "v": 41
    },
    {
      "midi": 65,
      "hit": false,
      "t": 195965.93385416706,
      "d": 693.7963541666686,
      "v": 65
    },
    {
      "midi": 68,
      "hit": false,
      "t": 195965.93385416706,
      "d": 693.7963541666686,
      "v": 42
    },
    {
      "midi": 61,
      "hit": false,
      "t": 198139.06458333373,
      "d": 361.2328124999767,
      "v": 52
    },
    {
      "midi": 71,
      "hit": false,
      "t": 198139.06458333373,
      "d": 366.9666666666453,
      "v": 61
    },
    {
      "midi": 66,
      "hit": false,
      "t": 198139.06458333373,
      "d": 372.70052083331393,
      "v": 61
    },
    {
      "midi": 61,
      "hit": false,
      "t": 199268.63385416704,
      "d": 1089.432291666657,
      "v": 44
    },
    {
      "midi": 65,
      "hit": false,
      "t": 199268.63385416704,
      "d": 1089.432291666657,
      "v": 63
    },
    {
      "midi": 68,
      "hit": false,
      "t": 199268.63385416704,
      "d": 1089.432291666657,
      "v": 61
    },
    {
      "midi": 61,
      "hit": false,
      "t": 200363.80000000037,
      "d": 1502.2697916666511,
      "v": 41
    },
    {
      "midi": 66,
      "hit": false,
      "t": 200363.80000000037,
      "d": 1536.6729166666628,
      "v": 50
    },
    {
      "midi": 69,
      "hit": false,
      "t": 200363.80000000037,
      "d": 1548.140625,
      "v": 44
    },
    {
      "midi": 61,
      "hit": false,
      "t": 204761.6661458337,
      "d": 516.046875,
      "v": 46
    },
    {
      "midi": 65,
      "hit": false,
      "t": 204761.6661458337,
      "d": 521.7807291666686,
      "v": 66
    },
    {
      "midi": 68,
      "hit": false,
      "t": 204761.6661458337,
      "d": 538.9822916666744,
      "v": 55
    },
    {
      "midi": 61,
      "hit": false,
      "t": 206963.46614583372,
      "d": 361.2328125000058,
      "v": 50
    },
    {
      "midi": 71,
      "hit": false,
      "t": 206963.46614583372,
      "d": 366.9666666666744,
      "v": 53
    },
    {
      "midi": 66,
      "hit": false,
      "t": 206963.46614583372,
      "d": 384.16822916668025,
      "v": 64
    },
    {
      "midi": 61,
      "hit": false,
      "t": 208087.3015625004,
      "d": 389.90208333331975,
      "v": 37
    },
    {
      "midi": 65,
      "hit": false,
      "t": 208087.3015625004,
      "d": 407.1036458333256,
      "v": 57
    },
    {
      "midi": 68,
      "hit": false,
      "t": 208087.3015625004,
      "d": 418.5713541666628,
      "v": 51
    },
    {
      "midi": 61,
      "hit": false,
      "t": 209165.2661458337,
      "d": 3061.8781249999884,
      "v": 50
    },
    {
      "midi": 66,
      "hit": false,
      "t": 209165.2661458337,
      "d": 3090.5473958333314,
      "v": 60
    },
    {
      "midi": 69,
      "hit": false,
      "t": 209165.2661458337,
      "d": 3096.28125,
      "v": 59
    },
    {
      "midi": 61,
      "hit": false,
      "t": 213568.86614583372,
      "d": 642.1916666666802,
      "v": 41
    },
    {
      "midi": 68,
      "hit": false,
      "t": 213568.86614583372,
      "d": 665.1270833333547,
      "v": 52
    },
    {
      "midi": 65,
      "hit": false,
      "t": 213574.60000000038,
      "d": 630.723958333343,
      "v": 61
    },
    {
      "midi": 71,
      "hit": false,
      "t": 215770.66614583373,
      "d": 516.046875,
      "v": 49
    },
    {
      "midi": 66,
      "hit": false,
      "t": 215770.66614583373,
      "d": 527.5145833333372,
      "v": 57
    },
    {
      "midi": 61,
      "hit": false,
      "t": 215770.66614583373,
      "d": 556.1838541666802,
      "v": 41
    },
    {
      "midi": 65,
      "hit": false,
      "t": 216894.5015625004,
      "d": 389.90208333334886,
      "v": 57
    },
    {
      "midi": 61,
      "hit": false,
      "t": 216894.5015625004,
      "d": 412.8375000000233,
      "v": 43
    },
    {
      "midi": 68,
      "hit": false,
      "t": 216894.5015625004,
      "d": 430.0390625000291,
      "v": 65
    },
    {
      "midi": 66,
      "hit": false,
      "t": 228975.73229166708,
      "d": 1198.3755208333314,
      "v": 58
    },
    {
      "midi": 69,
      "hit": false,
      "t": 228975.73229166708,
      "d": 1198.3755208333314,
      "v": 52
    },
    {
      "midi": 61,
      "hit": false,
      "t": 228975.73229166708,
      "d": 1204.109375,
      "v": 61
    },
    {
      "midi": 71,
      "hit": false,
      "t": 233385.06614583373,
      "d": 911.6828124999884,
      "v": 59
    },
    {
      "midi": 63,
      "hit": false,
      "t": 233385.06614583373,
      "d": 928.8843749999942,
      "v": 60
    },
    {
      "midi": 66,
      "hit": false,
      "t": 233385.06614583373,
      "d": 928.8843749999942,
      "v": 62
    },
    {
      "midi": 66,
      "hit": false,
      "t": 237782.93229166706,
      "d": 1118.1015625,
      "v": 56
    },
    {
      "midi": 69,
      "hit": false,
      "t": 237782.93229166706,
      "d": 1118.1015625,
      "v": 53
    },
    {
      "midi": 61,
      "hit": false,
      "t": 237782.93229166706,
      "d": 1141.0369791666744,
      "v": 63
    },
    {
      "midi": 71,
      "hit": false,
      "t": 242186.53229166707,
      "d": 1077.9645833333198,
      "v": 65
    },
    {
      "midi": 66,
      "hit": false,
      "t": 242186.53229166707,
      "d": 1083.6984374999884,
      "v": 64
    },
    {
      "midi": 63,
      "hit": false,
      "t": 242186.53229166707,
      "d": 1095.1661458333256,
      "v": 56
    },
    {
      "midi": 66,
      "hit": false,
      "t": 246584.3984375004,
      "d": 1198.3755208333314,
      "v": 58
    },
    {
      "midi": 69,
      "hit": false,
      "t": 246584.3984375004,
      "d": 1198.3755208333314,
      "v": 52
    },
    {
      "midi": 61,
      "hit": false,
      "t": 246584.3984375004,
      "d": 1209.8432291666686,
      "v": 61
    },
    {
      "midi": 71,
      "hit": false,
      "t": 250999.46614583372,
      "d": 905.9489583333198,
      "v": 59
    },
    {
      "midi": 63,
      "hit": false,
      "t": 250999.46614583372,
      "d": 923.1505208333256,
      "v": 60
    },
    {
      "midi": 66,
      "hit": false,
      "t": 250999.46614583372,
      "d": 923.1505208333256,
      "v": 62
    },
    {
      "midi": 66,
      "hit": false,
      "t": 255397.33229166706,
      "d": 1118.1015625,
      "v": 56
    },
    {
      "midi": 69,
      "hit": false,
      "t": 255397.33229166706,
      "d": 1118.1015625,
      "v": 53
    },
    {
      "midi": 61,
      "hit": false,
      "t": 255397.33229166706,
      "d": 1141.0369791666744,
      "v": 63
    },
    {
      "midi": 71,
      "hit": false,
      "t": 259800.93229166706,
      "d": 1077.9645833333198,
      "v": 65
    },
    {
      "midi": 66,
      "hit": false,
      "t": 259800.93229166706,
      "d": 1083.6984374999884,
      "v": 64
    },
    {
      "midi": 63,
      "hit": false,
      "t": 259800.93229166706,
      "d": 1095.1661458333256,
      "v": 56
    },
    {
      "midi": 66,
      "hit": false,
      "t": 264204.532291667,
      "d": 1198.3755208333605,
      "v": 58
    },
    {
      "midi": 69,
      "hit": false,
      "t": 264204.532291667,
      "d": 1198.3755208333605,
      "v": 52
    },
    {
      "midi": 61,
      "hit": false,
      "t": 264204.532291667,
      "d": 1204.109375,
      "v": 61
    },
    {
      "midi": 63,
      "hit": false,
      "t": 268613.8661458337,
      "d": 928.8843749999651,
      "v": 60
    },
    {
      "midi": 71,
      "hit": false,
      "t": 268619.6000000003,
      "d": 905.9489583333489,
      "v": 59
    },
    {
      "midi": 66,
      "hit": false,
      "t": 268619.6000000003,
      "d": 923.1505208333256,
      "v": 62
    },
    {
      "midi": 66,
      "hit": false,
      "t": 273011.73229166697,
      "d": 1118.1015625,
      "v": 56
    },
    {
      "midi": 69,
      "hit": false,
      "t": 273011.73229166697,
      "d": 1118.1015625,
      "v": 53
    },
    {
      "midi": 61,
      "hit": false,
      "t": 273011.73229166697,
      "d": 1141.0369791666744,
      "v": 63
    }
  ]
}