{
  "jsonPath": "Animes/Initial D MIDI Collection/rage-you-dreams.json",
  "path": "Animes\\Initial D MIDI Collection\\Rage You Dreams.mid",
  "name": "Rage You Dreams",
  "difficulty": "Advanced",
  "bpm": 100,
  "notes": [
    {
      "midi": 67,
      "hit": false,
      "t": 3170.726,
      "d": 365.85300000000007,
      "v": 100
    },
    {
      "midi": 70,
      "hit": false,
      "t": 3536.579,
      "d": 365.85300000000007,
      "v": 100
    },
    {
      "midi": 72,
      "hit": false,
      "t": 3902.4320000000002,
      "d": 487.80399999999963,
      "v": 100
    },
    {
      "midi": 63,
      "hit": false,
      "t": 3902.4320000000002,
      "d": 487.80399999999963,
      "v": 100
    },
    {
      "midi": 60,
      "hit": false,
      "t": 3902.4320000000002,
      "d": 487.80399999999963,
      "v": 100
    },
    {
      "midi": 48,
      "hit": false,
      "t": 3902.4320000000002,
      "d": 731.7059999999997,
      "v": 100
    },
    {
      "midi": 72,
      "hit": false,
      "t": 3902.4320000000002,
      "d": 121.95100000000002,
      "v": 100
    },
    {
      "midi": 72,
      "hit": false,
      "t": 4024.3830000000003,
      "d": 121.95099999999957,
      "v": 100
    },
    {
      "midi": 55,
      "hit": false,
      "t": 4146.334,
      "d": 487.8040000000001,
      "v": 100
    },
    {
      "midi": 79,
      "hit": false,
      "t": 4146.334,
      "d": 121.95100000000002,
      "v": 100
    },
    {
      "midi": 79,
      "hit": false,
      "t": 4268.285,
      "d": 121.95100000000002,
      "v": 100
    },
    {
      "midi": 72,
      "hit": false,
      "t": 4390.236,
      "d": 243.90200000000004,
      "v": 100
    },
    {
      "midi": 63,
      "hit": false,
      "t": 4390.236,
      "d": 487.8040000000001,
      "v": 100
    },
    {
      "midi": 75,
      "hit": false,
      "t": 4390.236,
      "d": 121.95100000000002,
      "v": 100
    },
    {
      "midi": 75,
      "hit": false,
      "t": 4512.187,
      "d": 121.95100000000002,
      "v": 100
    },
    {
      "midi": 75,
      "hit": false,
      "t": 4634.138,
      "d": 243.90200000000004,
      "v": 100
    },
    {
      "midi": 60,
      "hit": false,
      "t": 4634.138,
      "d": 243.90200000000004,
      "v": 100
    },
    {
      "midi": 82,
      "hit": false,
      "t": 4634.138,
      "d": 121.95100000000002,
      "v": 100
    },
    {
      "midi": 82,
      "hit": false,
      "t": 4756.089,
      "d": 121.95100000000002,
      "v": 100
    },
    {
      "midi": 72,
      "hit": false,
      "t": 4878.04,
      "d": 731.7060000000001,
      "v": 100
    },
    {
      "midi": 56,
      "hit": false,
      "t": 4878.04,
      "d": 487.8040000000001,
      "v": 100
    },
    {
      "midi": 44,
      "hit": false,
      "t": 4878.04,
      "d": 731.7060000000001,
      "v": 100
    },
    {
      "midi": 84,
      "hit": false,
      "t": 4878.04,
      "d": 121.95100000000002,
      "v": 100
    },
    {
      "midi": 84,
      "hit": false,
      "t": 4999.991,
      "d": 121.95100000000002,
      "v": 100
    },
    {
      "midi": 51,
      "hit": false,
      "t": 5121.942,
      "d": 487.8040000000001,
      "v": 100
    },
    {
      "midi": 80,
      "hit": false,
      "t": 5121.942,
      "d": 121.95100000000002,
      "v": 100
    },
    {
      "midi": 80,
      "hit": false,
      "t": 5243.893,
      "d": 121.95100000000002,
      "v": 100
    },
    {
      "midi": 63,
      "hit": false,
      "t": 5365.844,
      "d": 487.8040000000001,
      "v": 100
    },
    {
      "midi": 75,
      "hit": false,
      "t": 5365.844,
      "d": 121.95100000000002,
      "v": 100
    },
    {
      "midi": 75,
      "hit": false,
      "t": 5487.795,
      "d": 121.95100000000002,
      "v": 100
    },
    {
      "midi": 75,
      "hit": false,
      "t": 5609.746,
      "d": 243.90200000000004,
      "v": 100
    },
    {
      "midi": 60,
      "hit": false,
      "t": 5609.746,
      "d": 243.90200000000004,
      "v": 100
    },
    {
      "midi": 72,
      "hit": false,
      "t": 5609.746,
      "d": 121.95100000000002,
      "v": 100
    },
    {
      "midi": 72,
      "hit": false,
      "t": 5731.697,
      "d": 121.95100000000002,
      "v": 100
    },
    {
      "midi": 74,
      "hit": false,
      "t": 5853.648,
      "d": 487.8040000000001,
      "v": 100
    },
    {
      "midi": 58,
      "hit": false,
      "t": 5853.648,
      "d": 487.8040000000001,
      "v": 100
    },
    {
      "midi": 46,
      "hit": false,
      "t": 5853.648,
      "d": 731.7060000000001,
      "v": 100
    },
    {
      "midi": 70,
      "hit": false,
      "t": 5853.648,
      "d": 121.95100000000002,
      "v": 100
    },
    {
      "midi": 70,
      "hit": false,
      "t": 5975.599,
      "d": 121.95100000000002,
      "v": 100
    },
    {
      "midi": 55,
      "hit": false,
      "t": 6097.55,
      "d": 487.8040000000001,
      "v": 100
    },
    {
      "midi": 74,
      "hit": false,
      "t": 6097.55,
      "d": 121.95100000000002,
      "v": 100
    },
    {
      "midi": 74,
      "hit": false,
      "t": 6219.501,
      "d": 121.95100000000002,
      "v": 100
    },
    {
      "midi": 70,
      "hit": false,
      "t": 6341.452,
      "d": 243.90200000000004,
      "v": 100
    },
    {
      "midi": 65,
      "hit": false,
      "t": 6341.452,
      "d": 487.8040000000001,
      "v": 100
    },
    {
      "midi": 70,
      "hit": false,
      "t": 6341.452,
      "d": 121.95100000000002,
      "v": 100
    },
    {
      "midi": 70,
      "hit": false,
      "t": 6463.403,
      "d": 121.95100000000002,
      "v": 100
    },
    {
      "midi": 67,
      "hit": false,
      "t": 6585.354,
      "d": 243.90200000000004,
      "v": 100
    },
    {
      "midi": 62,
      "hit": false,
      "t": 6585.354,
      "d": 243.90200000000004,
      "v": 100
    },
    {
      "midi": 79,
      "hit": false,
      "t": 6585.354,
      "d": 121.95100000000002,
      "v": 100
    },
    {
      "midi": 79,
      "hit": false,
      "t": 6707.305,
      "d": 121.95100000000002,
      "v": 100
    },
    {
      "midi": 70,
      "hit": false,
      "t": 6829.256,
      "d": 487.8040000000001,
      "v": 100
    },
    {
      "midi": 58,
      "hit": false,
      "t": 6829.256,
      "d": 487.8040000000001,
      "v": 100
    },
    {
      "midi": 43,
      "hit": false,
      "t": 6829.256,
      "d": 731.7060000000001,
      "v": 100
    },
    {
      "midi": 79,
      "hit": false,
      "t": 6829.256,
      "d": 121.95100000000002,
      "v": 100
    },
    {
      "midi": 79,
      "hit": false,
      "t": 6951.207,
      "d": 121.95100000000002,
      "v": 100
    },
    {
      "midi": 55,
      "hit": false,
      "t": 7073.158,
      "d": 487.8040000000001,
      "v": 100
    },
    {
      "midi": 79,
      "hit": false,
      "t": 7073.158,
      "d": 121.95100000000002,
      "v": 100
    },
    {
      "midi": 79,
      "hit": false,
      "t": 7195.109,
      "d": 121.95100000000002,
      "v": 100
    },
    {
      "midi": 68,
      "hit": false,
      "t": 7317.06,
      "d": 243.90200000000004,
      "v": 100
    },
    {
      "midi": 62,
      "hit": false,
      "t": 7317.06,
      "d": 487.8040000000001,
      "v": 100
    },
    {
      "midi": 74,
      "hit": false,
      "t": 7317.06,
      "d": 121.95100000000002,
      "v": 100
    },
    {
      "midi": 74,
      "hit": false,
      "t": 7439.011,
      "d": 121.95100000000002,
      "v": 100
    },
    {
      "midi": 70,
      "hit": false,
      "t": 7560.962,
      "d": 243.90200000000004,
      "v": 100
    },
    {
      "midi": 58,
      "hit": false,
      "t": 7560.962,
      "d": 243.90200000000004,
      "v": 100
    },
    {
      "midi": 79,
      "hit": false,
      "t": 7560.962,
      "d": 121.95100000000002,
      "v": 100
    },
    {
      "midi": 79,
      "hit": false,
      "t": 7682.9130000000005,
      "d": 121.95100000000002,
      "v": 100
    },
    {
      "midi": 68,
      "hit": false,
      "t": 7804.8640000000005,
      "d": 487.8039999999992,
      "v": 100
    },
    {
      "midi": 72,
      "hit": false,
      "t": 7804.8640000000005,
      "d": 487.8039999999992,
      "v": 100
    },
    {
      "midi": 56,
      "hit": false,
      "t": 7804.8640000000005,
      "d": 487.8039999999992,
      "v": 100
    },
    {
      "midi": 44,
      "hit": false,
      "t": 7804.8640000000005,
      "d": 853.6569999999983,
      "v": 100
    },
    {
      "midi": 72,
      "hit": false,
      "t": 7804.8640000000005,
      "d": 121.95100000000002,
      "v": 100
    },
    {
      "midi": 72,
      "hit": false,
      "t": 7926.8150000000005,
      "d": 121.95100000000002,
      "v": 100
    },
    {
      "midi": 51,
      "hit": false,
      "t": 8048.7660000000005,
      "d": 487.8039999999992,
      "v": 100
    },
    {
      "midi": 68,
      "hit": false,
      "t": 8048.7660000000005,
      "d": 121.95100000000002,
      "v": 100
    },
    {
      "midi": 68,
      "hit": false,
      "t": 8170.717000000001,
      "d": 121.95099999999911,
      "v": 100
    },
    {
      "midi": 63,
      "hit": false,
      "t": 8292.668,
      "d": 487.8040000000001,
      "v": 100
    },
    {
      "midi": 63,
      "hit": false,
      "t": 8292.668,
      "d": 487.80399999999827,
      "v": 100
    },
    {
      "midi": 72,
      "hit": false,
      "t": 8292.668,
      "d": 121.95099999999911,
      "v": 100
    },
    {
      "midi": 72,
      "hit": false,
      "t": 8414.618999999999,
      "d": 121.95099999999911,
      "v": 100
    },
    {
      "midi": 77,
      "hit": false,
      "t": 8536.569999999998,
      "d": 121.95099999999911,
      "v": 100
    },
    {
      "midi": 72,
      "hit": false,
      "t": 8536.57,
      "d": 243.90200000000004,
      "v": 100
    },
    {
      "midi": 60,
      "hit": false,
      "t": 8536.57,
      "d": 243.90199999999822,
      "v": 100
    },
    {
      "midi": 77,
      "hit": false,
      "t": 8658.520999999997,
      "d": 121.95099999999911,
      "v": 100
    },
    {
      "midi": 77,
      "hit": false,
      "t": 8780.471999999996,
      "d": 121.95099999999911,
      "v": 100
    },
    {
      "midi": 53,
      "hit": false,
      "t": 8780.471999999998,
      "d": 487.8040000000001,
      "v": 100
    },
    {
      "midi": 41,
      "hit": false,
      "t": 8780.471999999998,
      "d": 731.7060000000001,
      "v": 100
    },
    {
      "midi": 65,
      "hit": false,
      "t": 8780.472,
      "d": 487.8040000000001,
      "v": 100
    },
    {
      "midi": 77,
      "hit": false,
      "t": 8902.422999999995,
      "d": 121.95099999999911,
      "v": 100
    },
    {
      "midi": 77,
      "hit": false,
      "t": 9024.373999999994,
      "d": 121.95099999999911,
      "v": 100
    },
    {
      "midi": 48,
      "hit": false,
      "t": 9024.373999999998,
      "d": 487.8040000000001,
      "v": 100
    },
    {
      "midi": 77,
      "hit": false,
      "t": 9146.324999999993,
      "d": 121.95099999999911,
      "v": 100
    },
    {
      "midi": 72,
      "hit": false,
      "t": 9268.275999999993,
      "d": 121.95099999999911,
      "v": 100
    },
    {
      "midi": 60,
      "hit": false,
      "t": 9268.275999999998,
      "d": 487.8040000000001,
      "v": 100
    },
    {
      "midi": 63,
      "hit": false,
      "t": 9268.276,
      "d": 243.90200000000004,
      "v": 100
    },
    {
      "midi": 72,
      "hit": false,
      "t": 9390.226999999992,
      "d": 121.95099999999911,
      "v": 100
    },
    {
      "midi": 77,
      "hit": false,
      "t": 9512.17799999999,
      "d": 121.95099999999911,
      "v": 100
    },
    {
      "midi": 56,
      "hit": false,
      "t": 9512.177999999998,
      "d": 243.90200000000004,
      "v": 100
    },
    {
      "midi": 65,
      "hit": false,
      "t": 9512.178,
      "d": 243.90200000000004,
      "v": 100
    },
    {
      "midi": 77,
      "hit": false,
      "t": 9634.12899999999,
      "d": 121.95099999999911,
      "v": 100
    },
    {
      "midi": 67,
      "hit": false,
      "t": 9756.079999999989,
      "d": 121.95099999999911,
      "v": 100
    },
    {
      "midi": 55,
      "hit": false,
      "t": 9756.079999999998,
      "d": 487.8040000000001,
      "v": 100
    },
    {
      "midi": 43,
      "hit": false,
      "t": 9756.079999999998,
      "d": 1585.3629999999994,
      "v": 100
    },
    {
      "midi": 67,
      "hit": false,
      "t": 9756.08,
      "d": 487.8040000000001,
      "v": 100
    },
    {
      "midi": 67,
      "hit": false,
      "t": 9878.030999999988,
      "d": 121.95099999999911,
      "v": 100
    },
    {
      "midi": 70,
      "hit": false,
      "t": 9999.981999999987,
      "d": 121.95099999999911,
      "v": 100
    },
    {
      "midi": 58,
      "hit": false,
      "t": 9999.981999999998,
      "d": 487.8040000000001,
      "v": 100
    },
    {
      "midi": 70,
      "hit": false,
      "t": 10121.932999999986,
      "d": 121.95099999999911,
      "v": 100
    },
    {
      "midi": 74,
      "hit": false,
      "t": 10243.883999999985,
      "d": 121.95099999999911,
      "v": 100
    },
    {
      "midi": 62,
      "hit": false,
      "t": 10243.883999999998,
      "d": 487.8040000000001,
      "v": 100
    },
    {
      "midi": 74,
      "hit": false,
      "t": 10243.884,
      "d": 243.90200000000004,
      "v": 100
    },
    {
      "midi": 74,
      "hit": false,
      "t": 10365.834999999985,
      "d": 121.95099999999911,
      "v": 100
    },
    {
      "midi": 79,
      "hit": false,
      "t": 10487.785999999984,
      "d": 121.95099999999911,
      "v": 100
    },
    {
      "midi": 65,
      "hit": false,
      "t": 10487.785999999998,
      "d": 487.8040000000001,
      "v": 100
    },
    {
      "midi": 70,
      "hit": false,
      "t": 10487.786,
      "d": 243.90200000000004,
      "v": 100
    },
    {
      "midi": 79,
      "hit": false,
      "t": 10609.736999999983,
      "d": 121.95099999999911,
      "v": 100
    },
    {
      "midi": 82,
      "hit": false,
      "t": 10731.687999999982,
      "d": 121.95099999999911,
      "v": 100
    },
    {
      "midi": 67,
      "hit": false,
      "t": 10731.687999999998,
      "d": 487.8040000000001,
      "v": 100
    },
    {
      "midi": 70,
      "hit": false,
      "t": 10731.688,
      "d": 487.8040000000001,
      "v": 100
    },
    {
      "midi": 82,
      "hit": false,
      "t": 10853.638999999981,
      "d": 121.95099999999911,
      "v": 100
    },
    {
      "midi": 79,
      "hit": false,
      "t": 10975.58999999998,
      "d": 121.95099999999911,
      "v": 100
    },
    {
      "midi": 62,
      "hit": false,
      "t": 10975.589999999998,
      "d": 487.80399999999827,
      "v": 100
    },
    {
      "midi": 79,
      "hit": false,
      "t": 11097.54099999998,
      "d": 121.95099999999911,
      "v": 100
    },
    {
      "midi": 74,
      "hit": false,
      "t": 11219.491999999978,
      "d": 121.95099999999911,
      "v": 100
    },
    {
      "midi": 58,
      "hit": false,
      "t": 11219.491999999998,
      "d": 487.80399999999645,
      "v": 100
    },
    {
      "midi": 67,
      "hit": false,
      "t": 11219.492,
      "d": 243.90200000000004,
      "v": 100
    },
    {
      "midi": 74,
      "hit": false,
      "t": 11341.442999999977,
      "d": 121.95099999999911,
      "v": 100
    },
    {
      "midi": 70,
      "hit": false,
      "t": 11463.393999999977,
      "d": 121.95099999999911,
      "v": 100
    },
    {
      "midi": 55,
      "hit": false,
      "t": 11463.393999999997,
      "d": 121.95099999999911,
      "v": 100
    },
    {
      "midi": 70,
      "hit": false,
      "t": 11463.394,
      "d": 243.90200000000004,
      "v": 100
    },
    {
      "midi": 70,
      "hit": false,
      "t": 11585.344999999976,
      "d": 121.95099999999911,
      "v": 100
    },
    {
      "midi": 72,
      "hit": false,
      "t": 11707.295999999975,
      "d": 121.95099999999911,
      "v": 100
    },
    {
      "midi": 63,
      "hit": false,
      "t": 11707.295999999995,
      "d": 487.8040000000001,
      "v": 100
    },
    {
      "midi": 60,
      "hit": false,
      "t": 11707.295999999995,
      "d": 487.8040000000001,
      "v": 100
    },
    {
      "midi": 48,
      "hit": false,
      "t": 11707.295999999995,
      "d": 731.7060000000001,
      "v": 100
    },
    {
      "midi": 72,
      "hit": false,
      "t": 11707.296,
      "d": 487.8040000000001,
      "v": 100
    },
    {
      "midi": 72,
      "hit": false,
      "t": 11829.246999999974,
      "d": 121.95099999999911,
      "v": 100
    },
    {
      "midi": 79,
      "hit": false,
      "t": 11951.197999999973,
      "d": 121.95099999999911,
      "v": 100
    },
    {
      "midi": 55,
      "hit": false,
      "t": 11951.197999999995,
      "d": 487.8040000000001,
      "v": 100
    },
    {
      "midi": 79,
      "hit": false,
      "t": 12073.148999999972,
      "d": 121.95099999999911,
      "v": 100
    },
    {
      "midi": 75,
      "hit": false,
      "t": 12195.099999999971,
      "d": 121.95099999999911,
      "v": 100
    },
    {
      "midi": 63,
      "hit": false,
      "t": 12195.099999999995,
      "d": 487.8040000000001,
      "v": 100
    },
    {
      "midi": 72,
      "hit": false,
      "t": 12195.1,
      "d": 243.90200000000004,
      "v": 100
    },
    {
      "midi": 75,
      "hit": false,
      "t": 12317.05099999997,
      "d": 121.95099999999911,
      "v": 100
    },
    {
      "midi": 82,
      "hit": false,
      "t": 12439.00199999997,
      "d": 121.95099999999911,
      "v": 100
    },
    {
      "midi": 60,
      "hit": false,
      "t": 12439.001999999995,
      "d": 243.90200000000004,
      "v": 100
    },
    {
      "midi": 75,
      "hit": false,
      "t": 12439.002,
      "d": 243.90200000000004,
      "v": 100
    },
    {
      "midi": 82,
      "hit": false,
      "t": 12560.952999999969,
      "d": 121.95099999999911,
      "v": 100
    },
    {
      "midi": 84,
      "hit": false,
      "t": 12682.903999999968,
      "d": 121.95099999999911,
      "v": 100
    },
    {
      "midi": 56,
      "hit": false,
      "t": 12682.903999999995,
      "d": 487.8040000000001,
      "v": 100
    },
    {
      "midi": 44,
      "hit": false,
      "t": 12682.903999999995,
      "d": 731.7060000000001,
      "v": 100
    },
    {
      "midi": 72,
      "hit": false,
      "t": 12682.904,
      "d": 731.7060000000001,
      "v": 100
    },
    {
      "midi": 84,
      "hit": false,
      "t": 12804.854999999967,
      "d": 121.95099999999911,
      "v": 100
    },
    {
      "midi": 80,
      "hit": false,
      "t": 12926.805999999966,
      "d": 121.95099999999911,
      "v": 100
    },
    {
      "midi": 51,
      "hit": false,
      "t": 12926.805999999995,
      "d": 487.8040000000001,
      "v": 100
    },
    {
      "midi": 80,
      "hit": false,
      "t": 13048.756999999965,
      "d": 121.95099999999911,
      "v": 100
    },
    {
      "midi": 75,
      "hit": false,
      "t": 13170.707999999964,
      "d": 121.95099999999911,
      "v": 100
    },
    {
      "midi": 63,
      "hit": false,
      "t": 13170.707999999995,
      "d": 487.8040000000001,
      "v": 100
    },
    {
      "midi": 75,
      "hit": false,
      "t": 13292.658999999963,
      "d": 121.95099999999911,
      "v": 100
    },
    {
      "midi": 72,
      "hit": false,
      "t": 13414.609999999962,
      "d": 121.95099999999911,
      "v": 100
    },
    {
      "midi": 60,
      "hit": false,
      "t": 13414.609999999995,
      "d": 243.90200000000004,
      "v": 100
    },
    {
      "midi": 75,
      "hit": false,
      "t": 13414.61,
      "d": 243.90200000000004,
      "v": 100
    },
    {
      "midi": 72,
      "hit": false,
      "t": 13536.560999999961,
      "d": 121.95099999999911,
      "v": 100
    },
    {
      "midi": 70,
      "hit": false,
      "t": 13658.51199999996,
      "d": 121.95099999999911,
      "v": 100
    },
    {
      "midi": 58,
      "hit": false,
      "t": 13658.511999999995,
      "d": 487.8040000000001,
      "v": 100
    },
    {
      "midi": 46,
      "hit": false,
      "t": 13658.511999999995,
      "d": 731.7060000000001,
      "v": 100
    },
    {
      "midi": 74,
      "hit": false,
      "t": 13658.512,
      "d": 243.90200000000004,
      "v": 100
    },
    {
      "midi": 70,
      "hit": false,
      "t": 13780.46299999996,
      "d": 121.95099999999911,
      "v": 100
    },
    {
      "midi": 74,
      "hit": false,
      "t": 13902.413999999959,
      "d": 121.95099999999911,
      "v": 100
    },
    {
      "midi": 55,
      "hit": false,
      "t": 13902.413999999995,
      "d": 487.8040000000001,
      "v": 100
    },
    {
      "midi": 70,
      "hit": false,
      "t": 13902.414,
      "d": 243.90200000000004,
      "v": 100
    },
    {
      "midi": 74,
      "hit": false,
      "t": 14024.364999999958,
      "d": 121.95099999999911,
      "v": 100
    },
    {
      "midi": 70,
      "hit": false,
      "t": 14146.315999999957,
      "d": 121.95099999999911,
      "v": 100
    },
    {
      "midi": 65,
      "hit": false,
      "t": 14146.315999999995,
      "d": 487.8040000000001,
      "v": 100
    },
    {
      "midi": 70,
      "hit": false,
      "t": 14146.316,
      "d": 243.90200000000004,
      "v": 100
    },
    {
      "midi": 70,
      "hit": false,
      "t": 14268.266999999956,
      "d": 121.95099999999911,
      "v": 100
    },
    {
      "midi": 79,
      "hit": false,
      "t": 14390.217999999955,
      "d": 121.95099999999911,
      "v": 100
    },
    {
      "midi": 62,
      "hit": false,
      "t": 14390.217999999995,
      "d": 243.90200000000004,
      "v": 100
    },
    {
      "midi": 67,
      "hit": false,
      "t": 14390.218,
      "d": 243.90200000000004,
      "v": 100
    },
    {
      "midi": 79,
      "hit": false,
      "t": 14512.168999999954,
      "d": 121.95099999999911,
      "v": 100
    },
    {
      "midi": 79,
      "hit": false,
      "t": 14634.119999999954,
      "d": 121.95099999999911,
      "v": 100
    },
    {
      "midi": 58,
      "hit": false,
      "t": 14634.119999999995,
      "d": 487.8040000000001,
      "v": 100
    },
    {
      "midi": 43,
      "hit": false,
      "t": 14634.119999999995,
      "d": 731.7060000000001,
      "v": 100
    },
    {
      "midi": 70,
      "hit": false,
      "t": 14634.12,
      "d": 487.8040000000001,
      "v": 100
    },
    {
      "midi": 79,
      "hit": false,
      "t": 14756.070999999953,
      "d": 121.95099999999911,
      "v": 100
    },
    {
      "midi": 79,
      "hit": false,
      "t": 14878.021999999952,
      "d": 121.95099999999911,
      "v": 100
    },
    {
      "midi": 55,
      "hit": false,
      "t": 14878.021999999995,
      "d": 487.8040000000001,
      "v": 100
    },
    {
      "midi": 79,
      "hit": false,
      "t": 14999.97299999995,
      "d": 121.95099999999911,
      "v": 100
    },
    {
      "midi": 74,
      "hit": false,
      "t": 15121.92399999995,
      "d": 121.95099999999911,
      "v": 100
    },
    {
      "midi": 62,
      "hit": false,
      "t": 15121.923999999995,
      "d": 487.8040000000001,
      "v": 100
    },
    {
      "midi": 67,
      "hit": false,
      "t": 15121.924,
      "d": 487.8040000000001,
      "v": 100
    },
    {
      "midi": 74,
      "hit": false,
      "t": 15243.874999999949,
      "d": 121.95099999999911,
      "v": 100
    },
    {
      "midi": 79,
      "hit": false,
      "t": 15365.825999999948,
      "d": 121.95099999999911,
      "v": 100
    },
    {
      "midi": 58,
      "hit": false,
      "t": 15365.825999999995,
      "d": 243.90200000000004,
      "v": 100
    },
    {
      "midi": 79,
      "hit": false,
      "t": 15487.776999999947,
      "d": 121.95099999999911,
      "v": 100
    },
    {
      "midi": 65,
      "hit": false,
      "t": 15609.727999999946,
      "d": 121.95099999999911,
      "v": 100
    },
    {
      "midi": 63,
      "hit": false,
      "t": 15609.727999999996,
      "d": 365.85299999999916,
      "v": 100
    },
    {
      "midi": 41,
      "hit": false,
      "t": 15609.727999999996,
      "d": 731.7059999999983,
      "v": 100
    },
    {
      "midi": 68,
      "hit": false,
      "t": 15609.728000000001,
      "d": 731.7060000000001,
      "v": 100
    },
    {
      "midi": 58,
      "hit": false,
      "t": 15731.678999999946,
      "d": 121.95099999999911,
      "v": 100
    },
    {
      "midi": 65,
      "hit": false,
      "t": 15853.629999999945,
      "d": 121.95099999999911,
      "v": 100
    },
    {
      "midi": 51,
      "hit": false,
      "t": 15853.629999999996,
      "d": 365.85299999999916,
      "v": 100
    },
    {
      "midi": 70,
      "hit": false,
      "t": 15975.580999999944,
      "d": 121.95099999999911,
      "v": 100
    },
    {
      "midi": 60,
      "hit": false,
      "t": 15975.580999999995,
      "d": 365.85299999999916,
      "v": 100
    },
    {
      "midi": 65,
      "hit": false,
      "t": 16097.531999999943,
      "d": 121.95099999999911,
      "v": 100
    },
    {
      "midi": 70,
      "hit": false,
      "t": 16219.482999999942,
      "d": 121.95099999999911,
      "v": 100
    },
    {
      "midi": 51,
      "hit": false,
      "t": 16219.482999999995,
      "d": 365.85299999999734,
      "v": 100
    },
    {
      "midi": 77,
      "hit": false,
      "t": 16341.433999999941,
      "d": 121.95099999999911,
      "v": 100
    },
    {
      "midi": 56,
      "hit": false,
      "t": 16341.433999999994,
      "d": 365.85299999999916,
      "v": 100
    },
    {
      "midi": 68,
      "hit": false,
      "t": 16341.434000000001,
      "d": 243.90199999999822,
      "v": 100
    },
    {
      "midi": 82,
      "hit": false,
      "t": 16463.38499999994,
      "d": 121.95100000000093,
      "v": 100
    },
    {
      "midi": 82,
      "hit": false,
      "t": 16585.33599999994,
      "d": 121.95100000000093,
      "v": 100
    },
    {
      "midi": 58,
      "hit": false,
      "t": 16585.335999999992,
      "d": 365.8530000000028,
      "v": 100
    },
    {
      "midi": 53,
      "hit": false,
      "t": 16585.335999999992,
      "d": 487.8040000000037,
      "v": 100
    },
    {
      "midi": 46,
      "hit": false,
      "t": 16585.335999999992,
      "d": 731.706000000002,
      "v": 100
    },
    {
      "midi": 70,
      "hit": false,
      "t": 16585.336,
      "d": 487.8040000000001,
      "v": 100
    },
    {
      "midi": 82,
      "hit": false,
      "t": 16707.286999999942,
      "d": 121.95100000000093,
      "v": 100
    },
    {
      "midi": 82,
      "hit": false,
      "t": 16829.237999999943,
      "d": 121.95100000000093,
      "v": 100
    },
    {
      "midi": 56,
      "hit": false,
      "t": 16829.237999999994,
      "d": 487.8040000000001,
      "v": 100
    },
    {
      "midi": 82,
      "hit": false,
      "t": 16951.188999999944,
      "d": 121.95100000000093,
      "v": 100
    },
    {
      "midi": 77,
      "hit": false,
      "t": 17073.139999999945,
      "d": 121.95100000000093,
      "v": 100
    },
    {
      "midi": 60,
      "hit": false,
      "t": 17073.139999999996,
      "d": 487.80399999999645,
      "v": 100
    },
    {
      "midi": 70,
      "hit": false,
      "t": 17073.14,
      "d": 487.8040000000001,
      "v": 100
    },
    {
      "midi": 77,
      "hit": false,
      "t": 17195.090999999946,
      "d": 121.95100000000093,
      "v": 100
    },
    {
      "midi": 79,
      "hit": false,
      "t": 17317.041999999947,
      "d": 121.95100000000093,
      "v": 100
    },
    {
      "midi": 56,
      "hit": false,
      "t": 17317.041999999994,
      "d": 243.90199999999822,
      "v": 100
    },
    {
      "midi": 79,
      "hit": false,
      "t": 17438.992999999948,
      "d": 121.95100000000093,
      "v": 100
    },
    {
      "midi": 75,
      "hit": false,
      "t": 17560.94399999995,
      "d": 121.95100000000093,
      "v": 100
    },
    {
      "midi": 51,
      "hit": false,
      "t": 17560.943999999992,
      "d": 853.6569999999992,
      "v": 100
    },
    {
      "midi": 75,
      "hit": false,
      "t": 17560.944,
      "d": 731.7059999999983,
      "v": 100
    },
    {
      "midi": 56,
      "hit": false,
      "t": 17804.84599999999,
      "d": 487.8040000000001,
      "v": 100
    },
    {
      "midi": 58,
      "hit": false,
      "t": 17926.79699999999,
      "d": 487.8040000000001,
      "v": 100
    },
    {
      "midi": 68,
      "hit": false,
      "t": 18170.69899999999,
      "d": 487.8040000000001,
      "v": 100
    },
    {
      "midi": 70,
      "hit": false,
      "t": 18292.64999999999,
      "d": 487.8040000000001,
      "v": 100
    },
    {
      "midi": 75,
      "hit": false,
      "t": 18292.649999999998,
      "d": 243.90199999999822,
      "v": 100
    },
    {
      "midi": 51,
      "hit": false,
      "t": 18536.551999999992,
      "d": 1951.2159999999967,
      "v": 100
    },
    {
      "midi": 65,
      "hit": false,
      "t": 18536.551999999992,
      "d": 1951.2159999999967,
      "v": 100
    },
    {
      "midi": 75,
      "hit": false,
      "t": 18536.551999999996,
      "d": 975.6080000000002,
      "v": 100
    },
    {
      "midi": 67,
      "hit": false,
      "t": 18556.877166666658,
      "d": 1951.2159999999967,
      "v": 100
    },
    {
      "midi": 79,
      "hit": false,
      "t": 19024.356,
      "d": 2439.0200000000004,
      "v": 127
    },
    {
      "midi": 67,
      "hit": false,
      "t": 19024.356,
      "d": 2439.0200000000004,
      "v": 90
    },
    {
      "midi": 33,
      "hit": false,
      "t": 19512.16,
      "d": 1.0162583333330986,
      "v": 127
    },
    {
      "midi": 40,
      "hit": false,
      "t": 19634.111,
      "d": 1.0162583333330986,
      "v": 100
    },
    {
      "midi": 40,
      "hit": false,
      "t": 19878.013,
      "d": 1.0162583333330986,
      "v": 40
    },
    {
      "midi": 36,
      "hit": false,
      "t": 19999.963999999996,
      "d": 1463.4120000000112,
      "v": 100
    },
    {
      "midi": 40,
      "hit": false,
      "t": 19999.964,
      "d": 1.0162583333330986,
      "v": 100
    },
    {
      "midi": 39,
      "hit": false,
      "t": 20060.939499999997,
      "d": 182.9265000000014,
      "v": 100
    },
    {
      "midi": 41,
      "hit": false,
      "t": 20121.914999999997,
      "d": 182.9265000000014,
      "v": 100
    },
    {
      "midi": 43,
      "hit": false,
      "t": 20182.890499999998,
      "d": 182.9265000000014,
      "v": 100
    },
    {
      "midi": 46,
      "hit": false,
      "t": 20243.865999999998,
      "d": 182.9265000000014,
      "v": 100
    },
    {
      "midi": 48,
      "hit": false,
      "t": 20304.8415,
      "d": 182.9265000000014,
      "v": 100
    },
    {
      "midi": 51,
      "hit": false,
      "t": 20365.817,
      "d": 182.9265000000014,
      "v": 100
    },
    {
      "midi": 40,
      "hit": false,
      "t": 20365.817,
      "d": 1.0162583333330986,
      "v": 100
    },
    {
      "midi": 53,
      "hit": false,
      "t": 20426.7925,
      "d": 182.9265000000014,
      "v": 100
    },
    {
      "midi": 55,
      "hit": false,
      "t": 20487.768,
      "d": 182.9265000000014,
      "v": 100
    },
    {
      "midi": 40,
      "hit": false,
      "t": 20487.768,
      "d": 1.0162583333330986,
      "v": 100
    },
    {
      "midi": 58,
      "hit": false,
      "t": 20548.7435,
      "d": 182.9265000000014,
      "v": 100
    },
    {
      "midi": 60,
      "hit": false,
      "t": 20609.719,
      "d": 182.9265000000014,
      "v": 100
    },
    {
      "midi": 40,
      "hit": false,
      "t": 20609.719,
      "d": 1.0162583333330986,
      "v": 100
    },
    {
      "midi": 63,
      "hit": false,
      "t": 20670.6945,
      "d": 182.9265000000014,
      "v": 100
    },
    {
      "midi": 65,
      "hit": false,
      "t": 20731.670000000002,
      "d": 182.9265000000014,
      "v": 100
    },
    {
      "midi": 40,
      "hit": false,
      "t": 20731.670000000002,
      "d": 1.0162583333330986,
      "v": 100
    },
    {
      "midi": 67,
      "hit": false,
      "t": 20792.645500000002,
      "d": 182.9265000000014,
      "v": 100
    },
    {
      "midi": 70,
      "hit": false,
      "t": 20853.621000000003,
      "d": 182.9265000000014,
      "v": 100
    },
    {
      "midi": 72,
      "hit": false,
      "t": 20914.596500000003,
      "d": 182.9265000000014,
      "v": 100
    },
    {
      "midi": 40,
      "hit": false,
      "t": 20975.572,
      "d": 1.0162583333330986,
      "v": 100
    },
    {
      "midi": 75,
      "hit": false,
      "t": 20975.572000000004,
      "d": 182.9265000000014,
      "v": 100
    },
    {
      "midi": 77,
      "hit": false,
      "t": 21036.547500000004,
      "d": 182.9265000000014,
      "v": 100
    },
    {
      "midi": 79,
      "hit": false,
      "t": 21097.523000000005,
      "d": 182.9265000000014,
      "v": 100
    },
    {
      "midi": 82,
      "hit": false,
      "t": 21158.498500000005,
      "d": 182.9265000000014,
      "v": 100
    },
    {
      "midi": 40,
      "hit": false,
      "t": 21219.474,
      "d": 1.0162583333330986,
      "v": 100
    },
    {
      "midi": 84,
      "hit": false,
      "t": 21219.474000000006,
      "d": 182.9265000000014,
      "v": 100
    },
    {
      "midi": 87,
      "hit": false,
      "t": 21280.449500000006,
      "d": 182.9265000000014,
      "v": 100
    },
    {
      "midi": 40,
      "hit": false,
      "t": 21341.425,
      "d": 1.0162583333330986,
      "v": 100
    },
    {
      "midi": 89,
      "hit": false,
      "t": 21341.425000000007,
      "d": 182.9265000000014,
      "v": 100
    },
    {
      "midi": 91,
      "hit": false,
      "t": 21402.400500000007,
      "d": 182.9265000000014,
      "v": 100
    },
    {
      "midi": 72,
      "hit": false,
      "t": 21463.37599999995,
      "d": 121.95100000000093,
      "v": 100
    },
    {
      "midi": 48,
      "hit": false,
      "t": 21463.376,
      "d": 975.6080000000002,
      "v": 100
    },
    {
      "midi": 55,
      "hit": false,
      "t": 21463.376,
      "d": 975.6080000000002,
      "v": 100
    },
    {
      "midi": 72,
      "hit": false,
      "t": 21463.376,
      "d": 487.80399999996735,
      "v": 100
    },
    {
      "midi": 67,
      "hit": false,
      "t": 21463.376,
      "d": 487.80399999996735,
      "v": 100
    },
    {
      "midi": 63,
      "hit": false,
      "t": 21463.376,
      "d": 487.80399999996735,
      "v": 100
    },
    {
      "midi": 36,
      "hit": false,
      "t": 21463.376,
      "d": 243.90199999999822,
      "v": 100
    },
    {
      "midi": 33,
      "hit": false,
      "t": 21463.376,
      "d": 1.0162583333330986,
      "v": 127
    },
    {
      "midi": 42,
      "hit": false,
      "t": 21463.376,
      "d": 1.0162583333330986,
      "v": 100
    },
    {
      "midi": 57,
      "hit": false,
      "t": 21463.376,
      "d": 1.0162583333330986,
      "v": 100
    },
    {
      "midi": 54,
      "hit": false,
      "t": 21463.376,
      "d": 1.0162583333330986,
      "v": 80
    },
    {
      "midi": 84,
      "hit": false,
      "t": 21463.376000000007,
      "d": 243.90200000000186,
      "v": 100
    },
    {
      "midi": 79,
      "hit": false,
      "t": 21463.376000000007,
      "d": 243.90200000000186,
      "v": 100
    },
    {
      "midi": 75,
      "hit": false,
      "t": 21463.376000000007,
      "d": 243.90200000000186,
      "v": 100
    },
    {
      "midi": 72,
      "hit": false,
      "t": 21585.32699999995,
      "d": 121.95100000000093,
      "v": 100
    },
    {
      "midi": 72,
      "hit": false,
      "t": 21585.327,
      "d": 121.95100000000093,
      "v": 100
    },
    {
      "midi": 67,
      "hit": false,
      "t": 21585.327,
      "d": 121.95100000000093,
      "v": 100
    },
    {
      "midi": 63,
      "hit": false,
      "t": 21585.327,
      "d": 121.95100000000093,
      "v": 100
    },
    {
      "midi": 54,
      "hit": false,
      "t": 21585.327,
      "d": 1.0162583333330986,
      "v": 60
    },
    {
      "midi": 79,
      "hit": false,
      "t": 21707.27799999995,
      "d": 121.95100000000093,
      "v": 100
    },
    {
      "midi": 36,
      "hit": false,
      "t": 21707.278,
      "d": 243.90199999999822,
      "v": 100
    },
    {
      "midi": 46,
      "hit": false,
      "t": 21707.278,
      "d": 1.0162583333330986,
      "v": 100
    },
    {
      "midi": 72,
      "hit": false,
      "t": 21707.278000000002,
      "d": 121.95100000000093,
      "v": 100
    },
    {
      "midi": 67,
      "hit": false,
      "t": 21707.278000000002,
      "d": 121.95100000000093,
      "v": 100
    },
    {
      "midi": 63,
      "hit": false,
      "t": 21707.278000000002,
      "d": 121.95100000000093,
      "v": 100
    },
    {
      "midi": 54,
      "hit": false,
      "t": 21707.278000000002,
      "d": 1.0162583333330986,
      "v": 60
    },
    {
      "midi": 79,
      "hit": false,
      "t": 21829.228999999952,
      "d": 121.95100000000093,
      "v": 100
    },
    {
      "midi": 44,
      "hit": false,
      "t": 21829.229,
      "d": 1.0162583333330986,
      "v": 100
    },
    {
      "midi": 54,
      "hit": false,
      "t": 21829.229000000003,
      "d": 1.0162583333330986,
      "v": 60
    },
    {
      "midi": 75,
      "hit": false,
      "t": 21951.179999999953,
      "d": 121.95100000000093,
      "v": 100
    },
    {
      "midi": 72,
      "hit": false,
      "t": 21951.179999999968,
      "d": 60.975499999985914,
      "v": 100
    },
    {
      "midi": 67,
      "hit": false,
      "t": 21951.179999999968,
      "d": 60.975499999985914,
      "v": 100
    },
    {
      "midi": 63,
      "hit": false,
      "t": 21951.179999999968,
      "d": 60.975499999985914,
      "v": 100
    },
    {
      "midi": 36,
      "hit": false,
      "t": 21951.179999999997,
      "d": 243.90199999999822,
      "v": 100
    },
    {
      "midi": 33,
      "hit": false,
      "t": 21951.18,
      "d": 1.0162583333330986,
      "v": 127
    },
    {
      "midi": 40,
      "hit": false,
      "t": 21951.18,
      "d": 1.0162583333330986,
      "v": 100
    },
    {
      "midi": 46,
      "hit": false,
      "t": 21951.18,
      "d": 1.0162583333330986,
      "v": 100
    },
    {
      "midi": 72,
      "hit": false,
      "t": 21951.180000000004,
      "d": 121.95100000000093,
      "v": 100
    },
    {
      "midi": 67,
      "hit": false,
      "t": 21951.180000000004,
      "d": 121.95100000000093,
      "v": 100
    },
    {
      "midi": 63,
      "hit": false,
      "t": 21951.180000000004,
      "d": 121.95100000000093,
      "v": 100
    },
    {
      "midi": 54,
      "hit": false,
      "t": 21951.180000000004,
      "d": 1.0162583333330986,
      "v": 80
    },
    {
      "midi": 84,
      "hit": false,
      "t": 21951.180000000008,
      "d": 243.90199999999822,
      "v": 100
    },
    {
      "midi": 79,
      "hit": false,
      "t": 21951.180000000008,
      "d": 243.90199999999822,
      "v": 100
    },
    {
      "midi": 75,
      "hit": false,
      "t": 21951.180000000008,
      "d": 243.90199999999822,
      "v": 100
    },
    {
      "midi": 72,
      "hit": false,
      "t": 22073.13099999995,
      "d": 60.975500000000466,
      "v": 100
    },
    {
      "midi": 67,
      "hit": false,
      "t": 22073.13099999995,
      "d": 60.975500000000466,
      "v": 100
    },
    {
      "midi": 63,
      "hit": false,
      "t": 22073.13099999995,
      "d": 60.975500000000466,
      "v": 100
    },
    {
      "midi": 75,
      "hit": false,
      "t": 22073.130999999954,
      "d": 121.95100000000093,
      "v": 100
    },
    {
      "midi": 44,
      "hit": false,
      "t": 22073.131,
      "d": 1.0162583333330986,
      "v": 100
    },
    {
      "midi": 54,
      "hit": false,
      "t": 22073.131000000005,
      "d": 1.0162583333330986,
      "v": 60
    },
    {
      "midi": 72,
      "hit": false,
      "t": 22195.081999999937,
      "d": 60.975500000000466,
      "v": 100
    },
    {
      "midi": 67,
      "hit": false,
      "t": 22195.081999999937,
      "d": 60.975500000000466,
      "v": 100
    },
    {
      "midi": 63,
      "hit": false,
      "t": 22195.081999999937,
      "d": 60.975500000000466,
      "v": 100
    },
    {
      "midi": 82,
      "hit": false,
      "t": 22195.081999999955,
      "d": 121.95100000000093,
      "v": 100
    },
    {
      "midi": 36,
      "hit": false,
      "t": 22195.081999999995,
      "d": 60.975500000000466,
      "v": 100
    },
    {
      "midi": 46,
      "hit": false,
      "t": 22195.082000000002,
      "d": 1.0162583333330986,
      "v": 100
    },
    {
      "midi": 84,
      "hit": false,
      "t": 22195.082000000006,
      "d": 30.487750000000233,
      "v": 100
    },
    {
      "midi": 79,
      "hit": false,
      "t": 22195.082000000006,
      "d": 30.487750000000233,
      "v": 100
    },
    {
      "midi": 72,
      "hit": false,
      "t": 22195.082000000006,
      "d": 121.95100000000093,
      "v": 100
    },
    {
      "midi": 67,
      "hit": false,
      "t": 22195.082000000006,
      "d": 121.95100000000093,
      "v": 100
    },
    {
      "midi": 63,
      "hit": false,
      "t": 22195.082000000006,
      "d": 121.95100000000093,
      "v": 100
    },
    {
      "midi": 54,
      "hit": false,
      "t": 22195.082000000006,
      "d": 1.0162583333330986,
      "v": 60
    },
    {
      "midi": 72,
      "hit": false,
      "t": 22317.032999999938,
      "d": 60.975500000000466,
      "v": 100
    },
    {
      "midi": 67,
      "hit": false,
      "t": 22317.032999999938,
      "d": 60.975500000000466,
      "v": 100
    },
    {
      "midi": 63,
      "hit": false,
      "t": 22317.032999999938,
      "d": 60.975500000000466,
      "v": 100
    },
    {
      "midi": 82,
      "hit": false,
      "t": 22317.032999999956,
      "d": 121.95100000000093,
      "v": 100
    },
    {
      "midi": 32,
      "hit": false,
      "t": 22317.032999999996,
      "d": 243.90199999999822,
      "v": 100
    },
    {
      "midi": 44,
      "hit": false,
      "t": 22317.033000000003,
      "d": 1.0162583333330986,
      "v": 100
    },
    {
      "midi": 84,
      "hit": false,
      "t": 22317.033000000007,
      "d": 243.90199999999822,
      "v": 100
    },
    {
      "midi": 80,
      "hit": false,
      "t": 22317.033000000007,
      "d": 243.90199999999822,
      "v": 100
    },
    {
      "midi": 75,
      "hit": false,
      "t": 22317.033000000007,
      "d": 243.90199999999822,
      "v": 100
    },
    {
      "midi": 54,
      "hit": false,
      "t": 22317.033000000007,
      "d": 1.0162583333330986,
      "v": 60
    },
    {
      "midi": 68,
      "hit": false,
      "t": 22438.98399999994,
      "d": 60.975499999985914,
      "v": 100
    },
    {
      "midi": 63,
      "hit": false,
      "t": 22438.98399999994,
      "d": 60.975499999985914,
      "v": 100
    },
    {
      "midi": 60,
      "hit": false,
      "t": 22438.98399999994,
      "d": 60.975499999985914,
      "v": 100
    },
    {
      "midi": 84,
      "hit": false,
      "t": 22438.983999999957,
      "d": 121.95100000000093,
      "v": 100
    },
    {
      "midi": 44,
      "hit": false,
      "t": 22438.984,
      "d": 975.6080000000002,
      "v": 100
    },
    {
      "midi": 51,
      "hit": false,
      "t": 22438.984,
      "d": 975.6080000000002,
      "v": 100
    },
    {
      "midi": 33,
      "hit": false,
      "t": 22438.984000000004,
      "d": 1.0162583333330986,
      "v": 127
    },
    {
      "midi": 42,
      "hit": false,
      "t": 22438.984000000004,
      "d": 1.0162583333330986,
      "v": 100
    },
    {
      "midi": 68,
      "hit": false,
      "t": 22438.984000000008,
      "d": 121.95100000000093,
      "v": 100
    },
    {
      "midi": 63,
      "hit": false,
      "t": 22438.984000000008,
      "d": 121.95100000000093,
      "v": 100
    },
    {
      "midi": 60,
      "hit": false,
      "t": 22438.984000000008,
      "d": 121.95100000000093,
      "v": 100
    },
    {
      "midi": 54,
      "hit": false,
      "t": 22438.984000000008,
      "d": 1.0162583333330986,
      "v": 80
    },
    {
      "midi": 68,
      "hit": false,
      "t": 22560.93499999992,
      "d": 60.975500000000466,
      "v": 100
    },
    {
      "midi": 63,
      "hit": false,
      "t": 22560.93499999992,
      "d": 60.975500000000466,
      "v": 100
    },
    {
      "midi": 60,
      "hit": false,
      "t": 22560.93499999992,
      "d": 60.975500000000466,
      "v": 100
    },
    {
      "midi": 84,
      "hit": false,
      "t": 22560.934999999958,
      "d": 121.95100000000093,
      "v": 100
    },
    {
      "midi": 32,
      "hit": false,
      "t": 22560.934999999994,
      "d": 121.95100000000093,
      "v": 100
    },
    {
      "midi": 84,
      "hit": false,
      "t": 22560.935000000005,
      "d": 121.95100000000093,
      "v": 100
    },
    {
      "midi": 80,
      "hit": false,
      "t": 22560.935000000005,
      "d": 121.95100000000093,
      "v": 100
    },
    {
      "midi": 75,
      "hit": false,
      "t": 22560.935000000005,
      "d": 121.95100000000093,
      "v": 100
    },
    {
      "midi": 68,
      "hit": false,
      "t": 22560.93500000001,
      "d": 121.95100000000093,
      "v": 100
    },
    {
      "midi": 63,
      "hit": false,
      "t": 22560.93500000001,
      "d": 121.95100000000093,
      "v": 100
    },
    {
      "midi": 60,
      "hit": false,
      "t": 22560.93500000001,
      "d": 121.95100000000093,
      "v": 100
    },
    {
      "midi": 54,
      "hit": false,
      "t": 22560.93500000001,
      "d": 1.0162583333330986,
      "v": 60
    },
    {
      "midi": 68,
      "hit": false,
      "t": 22682.885999999908,
      "d": 60.975500000000466,
      "v": 100
    },
    {
      "midi": 63,
      "hit": false,
      "t": 22682.885999999908,
      "d": 60.975500000000466,
      "v": 100
    },
    {
      "midi": 60,
      "hit": false,
      "t": 22682.885999999908,
      "d": 60.975500000000466,
      "v": 100
    },
    {
      "midi": 80,
      "hit": false,
      "t": 22682.88599999996,
      "d": 121.95100000000093,
      "v": 100
    },
    {
      "midi": 32,
      "hit": false,
      "t": 22682.885999999995,
      "d": 243.90199999999822,
      "v": 100
    },
    {
      "midi": 46,
      "hit": false,
      "t": 22682.886000000002,
      "d": 1.0162583333330986,
      "v": 100
    },
    {
      "midi": 84,
      "hit": false,
      "t": 22682.886000000006,
      "d": 243.90199999999822,
      "v": 100
    },
    {
      "midi": 80,
      "hit": false,
      "t": 22682.886000000006,
      "d": 243.90199999999822,
      "v": 100
    },
    {
      "midi": 75,
      "hit": false,
      "t": 22682.886000000006,
      "d": 243.90199999999822,
      "v": 100
    },
    {
      "midi": 54,
      "hit": false,
      "t": 22682.88600000001,
      "d": 1.0162583333330986,
      "v": 60
    },
    {
      "midi": 68,
      "hit": false,
      "t": 22804.83699999991,
      "d": 60.975500000000466,
      "v": 100
    },
    {
      "midi": 63,
      "hit": false,
      "t": 22804.83699999991,
      "d": 60.975500000000466,
      "v": 100
    },
    {
      "midi": 60,
      "hit": false,
      "t": 22804.83699999991,
      "d": 60.975500000000466,
      "v": 100
    },
    {
      "midi": 80,
      "hit": false,
      "t": 22804.83699999996,
      "d": 121.95100000000093,
      "v": 100
    },
    {
      "midi": 44,
      "hit": false,
      "t": 22804.837000000003,
      "d": 1.0162583333330986,
      "v": 100
    },
    {
      "midi": 68,
      "hit": false,
      "t": 22804.83700000001,
      "d": 121.95100000000093,
      "v": 100
    },
    {
      "midi": 63,
      "hit": false,
      "t": 22804.83700000001,
      "d": 121.95100000000093,
      "v": 100
    },
    {
      "midi": 60,
      "hit": false,
      "t": 22804.83700000001,
      "d": 121.95100000000093,
      "v": 100
    },
    {
      "midi": 54,
      "hit": false,
      "t": 22804.83700000001,
      "d": 1.0162583333330986,
      "v": 60
    },
    {
      "midi": 68,
      "hit": false,
      "t": 22926.78799999991,
      "d": 243.90199999996912,
      "v": 100
    },
    {
      "midi": 63,
      "hit": false,
      "t": 22926.78799999991,
      "d": 243.90199999996912,
      "v": 100
    },
    {
      "midi": 60,
      "hit": false,
      "t": 22926.78799999991,
      "d": 243.90199999996912,
      "v": 100
    },
    {
      "midi": 75,
      "hit": false,
      "t": 22926.78799999996,
      "d": 121.95100000000093,
      "v": 100
    },
    {
      "midi": 32,
      "hit": false,
      "t": 22926.787999999993,
      "d": 243.90199999999822,
      "v": 100
    },
    {
      "midi": 84,
      "hit": false,
      "t": 22926.788000000004,
      "d": 243.90199999999822,
      "v": 100
    },
    {
      "midi": 80,
      "hit": false,
      "t": 22926.788000000004,
      "d": 243.90199999999822,
      "v": 100
    },
    {
      "midi": 75,
      "hit": false,
      "t": 22926.788000000004,
      "d": 243.90199999999822,
      "v": 100
    },
    {
      "midi": 33,
      "hit": false,
      "t": 22926.788000000004,
      "d": 1.0162583333330986,
      "v": 127
    },
    {
      "midi": 40,
      "hit": false,
      "t": 22926.788000000004,
      "d": 1.0162583333330986,
      "v": 100
    },
    {
      "midi": 46,
      "hit": false,
      "t": 22926.788000000004,
      "d": 1.0162583333330986,
      "v": 100
    },
    {
      "midi": 54,
      "hit": false,
      "t": 22926.78800000001,
      "d": 1.0162583333330986,
      "v": 80
    },
    {
      "midi": 75,
      "hit": false,
      "t": 23048.73899999996,
      "d": 121.95100000000093,
      "v": 100
    },
    {
      "midi": 44,
      "hit": false,
      "t": 23048.739000000005,
      "d": 1.0162583333330986,
      "v": 100
    },
    {
      "midi": 54,
      "hit": false,
      "t": 23048.739000000012,
      "d": 1.0162583333330986,
      "v": 60
    },
    {
      "midi": 68,
      "hit": false,
      "t": 23170.68999999988,
      "d": 60.975500000000466,
      "v": 100
    },
    {
      "midi": 63,
      "hit": false,
      "t": 23170.68999999988,
      "d": 60.975500000000466,
      "v": 100
    },
    {
      "midi": 60,
      "hit": false,
      "t": 23170.68999999988,
      "d": 60.975500000000466,
      "v": 100
    },
    {
      "midi": 72,
      "hit": false,
      "t": 23170.689999999962,
      "d": 121.95100000000093,
      "v": 100
    },
    {
      "midi": 32,
      "hit": false,
      "t": 23170.68999999999,
      "d": 243.90199999999822,
      "v": 100
    },
    {
      "midi": 84,
      "hit": false,
      "t": 23170.690000000002,
      "d": 243.90199999999822,
      "v": 100
    },
    {
      "midi": 80,
      "hit": false,
      "t": 23170.690000000002,
      "d": 243.90199999999822,
      "v": 100
    },
    {
      "midi": 75,
      "hit": false,
      "t": 23170.690000000002,
      "d": 243.90199999999822,
      "v": 100
    },
    {
      "midi": 40,
      "hit": false,
      "t": 23170.690000000006,
      "d": 1.0162583333330986,
      "v": 40
    },
    {
      "midi": 46,
      "hit": false,
      "t": 23170.690000000006,
      "d": 1.0162583333330986,
      "v": 100
    },
    {
      "midi": 54,
      "hit": false,
      "t": 23170.690000000013,
      "d": 1.0162583333330986,
      "v": 60
    },
    {
      "midi": 68,
      "hit": false,
      "t": 23292.64099999988,
      "d": 60.975500000000466,
      "v": 100
    },
    {
      "midi": 63,
      "hit": false,
      "t": 23292.64099999988,
      "d": 60.975500000000466,
      "v": 100
    },
    {
      "midi": 60,
      "hit": false,
      "t": 23292.64099999988,
      "d": 60.975500000000466,
      "v": 100
    },
    {
      "midi": 72,
      "hit": false,
      "t": 23292.640999999963,
      "d": 121.95100000000093,
      "v": 100
    },
    {
      "midi": 40,
      "hit": false,
      "t": 23292.641000000007,
      "d": 1.0162583333330986,
      "v": 100
    },
    {
      "midi": 44,
      "hit": false,
      "t": 23292.641000000007,
      "d": 1.0162583333330986,
      "v": 100
    },
    {
      "midi": 54,
      "hit": false,
      "t": 23292.641000000014,
      "d": 1.0162583333330986,
      "v": 60
    },
    {
      "midi": 70,
      "hit": false,
      "t": 23414.59199999988,
      "d": 487.80399999996735,
      "v": 100
    },
    {
      "midi": 65,
      "hit": false,
      "t": 23414.59199999988,
      "d": 487.80399999996735,
      "v": 100
    },
    {
      "midi": 62,
      "hit": false,
      "t": 23414.59199999988,
      "d": 487.80399999996735,
      "v": 100
    },
    {
      "midi": 70,
      "hit": false,
      "t": 23414.591999999964,
      "d": 121.95100000000093,
      "v": 100
    },
    {
      "midi": 34,
      "hit": false,
      "t": 23414.59199999999,
      "d": 243.90199999999822,
      "v": 100
    },
    {
      "midi": 86,
      "hit": false,
      "t": 23414.592,
      "d": 243.90199999999822,
      "v": 100
    },
    {
      "midi": 82,
      "hit": false,
      "t": 23414.592,
      "d": 243.90199999999822,
      "v": 100
    },
    {
      "midi": 77,
      "hit": false,
      "t": 23414.592,
      "d": 243.90199999999822,
      "v": 100
    },
    {
      "midi": 46,
      "hit": false,
      "t": 23414.592,
      "d": 975.6080000000002,
      "v": 100
    },
    {
      "midi": 53,
      "hit": false,
      "t": 23414.592,
      "d": 975.6080000000002,
      "v": 100
    },
    {
      "midi": 33,
      "hit": false,
      "t": 23414.592000000008,
      "d": 1.0162583333330986,
      "v": 127
    },
    {
      "midi": 42,
      "hit": false,
      "t": 23414.592000000008,
      "d": 1.0162583333330986,
      "v": 100
    },
    {
      "midi": 54,
      "hit": false,
      "t": 23414.592000000015,
      "d": 1.0162583333330986,
      "v": 80
    },
    {
      "midi": 70,
      "hit": false,
      "t": 23536.542999999965,
      "d": 121.95100000000093,
      "v": 100
    },
    {
      "midi": 70,
      "hit": false,
      "t": 23536.543000000012,
      "d": 121.95100000000093,
      "v": 100
    },
    {
      "midi": 65,
      "hit": false,
      "t": 23536.543000000012,
      "d": 121.95100000000093,
      "v": 100
    },
    {
      "midi": 62,
      "hit": false,
      "t": 23536.543000000012,
      "d": 121.95100000000093,
      "v": 100
    },
    {
      "midi": 54,
      "hit": false,
      "t": 23536.543000000016,
      "d": 1.0162583333330986,
      "v": 60
    },
    {
      "midi": 74,
      "hit": false,
      "t": 23658.493999999966,
      "d": 121.95100000000093,
      "v": 100
    },
    {
      "midi": 34,
      "hit": false,
      "t": 23658.493999999988,
      "d": 243.90199999999822,
      "v": 100
    },
    {
      "midi": 46,
      "hit": false,
      "t": 23658.494000000006,
      "d": 1.0162583333330986,
      "v": 100
    },
    {
      "midi": 70,
      "hit": false,
      "t": 23658.494000000013,
      "d": 121.95100000000093,
      "v": 100
    },
    {
      "midi": 65,
      "hit": false,
      "t": 23658.494000000013,
      "d": 121.95100000000093,
      "v": 100
    },
    {
      "midi": 62,
      "hit": false,
      "t": 23658.494000000013,
      "d": 121.95100000000093,
      "v": 100
    },
    {
      "midi": 54,
      "hit": false,
      "t": 23658.494000000017,
      "d": 1.0162583333330986,
      "v": 60
    },
    {
      "midi": 74,
      "hit": false,
      "t": 23780.444999999967,
      "d": 121.95100000000093,
      "v": 100
    },
    {
      "midi": 44,
      "hit": false,
      "t": 23780.445000000007,
      "d": 1.0162583333330986,
      "v": 100
    },
    {
      "midi": 54,
      "hit": false,
      "t": 23780.445000000018,
      "d": 1.0162583333330986,
      "v": 60
    },
    {
      "midi": 70,
      "hit": false,
      "t": 23902.395999999848,
      "d": 60.975499999985914,
      "v": 100
    },
    {
      "midi": 65,
      "hit": false,
      "t": 23902.395999999848,
      "d": 60.975499999985914,
      "v": 100
    },
    {
      "midi": 62,
      "hit": false,
      "t": 23902.395999999848,
      "d": 60.975499999985914,
      "v": 100
    },
    {
      "midi": 70,
      "hit": false,
      "t": 23902.395999999968,
      "d": 121.95100000000093,
      "v": 100
    },
    {
      "midi": 34,
      "hit": false,
      "t": 23902.395999999986,
      "d": 243.90199999999822,
      "v": 100
    },
    {
      "midi": 82,
      "hit": false,
      "t": 23902.395999999997,
      "d": 243.90199999999822,
      "v": 100
    },
    {
      "midi": 77,
      "hit": false,
      "t": 23902.395999999997,
      "d": 243.90199999999822,
      "v": 100
    },
    {
      "midi": 33,
      "hit": false,
      "t": 23902.396000000008,
      "d": 1.0162583333330986,
      "v": 127
    },
    {
      "midi": 40,
      "hit": false,
      "t": 23902.396000000008,
      "d": 1.0162583333330986,
      "v": 100
    },
    {
      "midi": 46,
      "hit": false,
      "t": 23902.396000000008,
      "d": 1.0162583333330986,
      "v": 100
    },
    {
      "midi": 70,
      "hit": false,
      "t": 23902.396000000015,
      "d": 121.95100000000093,
      "v": 100
    },
    {
      "midi": 65,
      "hit": false,
      "t": 23902.396000000015,
      "d": 121.95100000000093,
      "v": 100
    },
    {
      "midi": 62,
      "hit": false,
      "t": 23902.396000000015,
      "d": 121.95100000000093,
      "v": 100
    },
    {
      "midi": 54,
      "hit": false,
      "t": 23902.39600000002,
      "d": 1.0162583333330986,
      "v": 80
    },
    {
      "midi": 70,
      "hit": false,
      "t": 24024.34699999983,
      "d": 60.975500000000466,
      "v": 100
    },
    {
      "midi": 65,
      "hit": false,
      "t": 24024.34699999983,
      "d": 60.975500000000466,
      "v": 100
    },
    {
      "midi": 62,
      "hit": false,
      "t": 24024.34699999983,
      "d": 60.975500000000466,
      "v": 100
    },
    {
      "midi": 70,
      "hit": false,
      "t": 24024.34699999997,
      "d": 121.95100000000093,
      "v": 100
    },
    {
      "midi": 44,
      "hit": false,
      "t": 24024.34700000001,
      "d": 1.0162583333330986,
      "v": 100
    },
    {
      "midi": 54,
      "hit": false,
      "t": 24024.34700000002,
      "d": 1.0162583333330986,
      "v": 60
    },
    {
      "midi": 70,
      "hit": false,
      "t": 24146.297999999817,
      "d": 60.975500000000466,
      "v": 100
    },
    {
      "midi": 65,
      "hit": false,
      "t": 24146.297999999817,
      "d": 60.975500000000466,
      "v": 100
    },
    {
      "midi": 62,
      "hit": false,
      "t": 24146.297999999817,
      "d": 60.975500000000466,
      "v": 100
    },
    {
      "midi": 79,
      "hit": false,
      "t": 24146.29799999997,
      "d": 121.95100000000093,
      "v": 100
    },
    {
      "midi": 34,
      "hit": false,
      "t": 24146.297999999984,
      "d": 71.13808333333509,
      "v": 100
    },
    {
      "midi": 77,
      "hit": false,
      "t": 24146.297999999995,
      "d": 40.650333333334856,
      "v": 100
    },
    {
      "midi": 82,
      "hit": false,
      "t": 24146.297999999995,
      "d": 40.650333333334856,
      "v": 100
    },
    {
      "midi": 46,
      "hit": false,
      "t": 24146.29800000001,
      "d": 1.0162583333330986,
      "v": 100
    },
    {
      "midi": 70,
      "hit": false,
      "t": 24146.298000000017,
      "d": 121.95100000000093,
      "v": 100
    },
    {
      "midi": 65,
      "hit": false,
      "t": 24146.298000000017,
      "d": 121.95100000000093,
      "v": 100
    },
    {
      "midi": 62,
      "hit": false,
      "t": 24146.298000000017,
      "d": 121.95100000000093,
      "v": 100
    },
    {
      "midi": 54,
      "hit": false,
      "t": 24146.29800000002,
      "d": 1.0162583333330986,
      "v": 60
    },
    {
      "midi": 70,
      "hit": false,
      "t": 24268.248999999818,
      "d": 60.975500000000466,
      "v": 100
    },
    {
      "midi": 65,
      "hit": false,
      "t": 24268.248999999818,
      "d": 60.975500000000466,
      "v": 100
    },
    {
      "midi": 62,
      "hit": false,
      "t": 24268.248999999818,
      "d": 60.975500000000466,
      "v": 100
    },
    {
      "midi": 79,
      "hit": false,
      "t": 24268.24899999997,
      "d": 121.95100000000093,
      "v": 100
    },
    {
      "midi": 31,
      "hit": false,
      "t": 24268.248999999985,
      "d": 243.90199999999822,
      "v": 100
    },
    {
      "midi": 82,
      "hit": false,
      "t": 24268.248999999996,
      "d": 243.90199999999822,
      "v": 100
    },
    {
      "midi": 77,
      "hit": false,
      "t": 24268.248999999996,
      "d": 243.90199999999822,
      "v": 100
    },
    {
      "midi": 74,
      "hit": false,
      "t": 24268.248999999996,
      "d": 325.2026666666643,
      "v": 100
    },
    {
      "midi": 44,
      "hit": false,
      "t": 24268.24900000001,
      "d": 1.0162583333330986,
      "v": 100
    },
    {
      "midi": 54,
      "hit": false,
      "t": 24268.24900000002,
      "d": 1.0162583333330986,
      "v": 60
    },
    {
      "midi": 67,
      "hit": false,
      "t": 24390.19999999982,
      "d": 60.975499999985914,
      "v": 100
    },
    {
      "midi": 62,
      "hit": false,
      "t": 24390.19999999982,
      "d": 60.975499999985914,
      "v": 100
    },
    {
      "midi": 58,
      "hit": false,
      "t": 24390.19999999982,
      "d": 60.975499999985914,
      "v": 100
    },
    {
      "midi": 79,
      "hit": false,
      "t": 24390.19999999997,
      "d": 121.95100000000093,
      "v": 100
    },
    {
      "midi": 50,
      "hit": false,
      "t": 24390.2,
      "d": 975.6080000000002,
      "v": 100
    },
    {
      "midi": 43,
      "hit": false,
      "t": 24390.2,
      "d": 975.6080000000002,
      "v": 100
    },
    {
      "midi": 33,
      "hit": false,
      "t": 24390.20000000001,
      "d": 1.0162583333330986,
      "v": 127
    },
    {
      "midi": 42,
      "hit": false,
      "t": 24390.20000000001,
      "d": 1.0162583333330986,
      "v": 100
    },
    {
      "midi": 67,
      "hit": false,
      "t": 24390.20000000002,
      "d": 121.95100000000093,
      "v": 100
    },
    {
      "midi": 63,
      "hit": false,
      "t": 24390.20000000002,
      "d": 121.95100000000093,
      "v": 100
    },
    {
      "midi": 58,
      "hit": false,
      "t": 24390.20000000002,
      "d": 121.95100000000093,
      "v": 100
    },
    {
      "midi": 54,
      "hit": false,
      "t": 24390.200000000023,
      "d": 1.0162583333330986,
      "v": 80
    },
    {
      "midi": 67,
      "hit": false,
      "t": 24512.1509999998,
      "d": 60.975500000000466,
      "v": 100
    },
    {
      "midi": 62,
      "hit": false,
      "t": 24512.1509999998,
      "d": 60.975500000000466,
      "v": 100
    },
    {
      "midi": 58,
      "hit": false,
      "t": 24512.1509999998,
      "d": 60.975500000000466,
      "v": 100
    },
    {
      "midi": 79,
      "hit": false,
      "t": 24512.150999999973,
      "d": 121.95100000000093,
      "v": 100
    },
    {
      "midi": 31,
      "hit": false,
      "t": 24512.150999999983,
      "d": 121.95100000000093,
      "v": 100
    },
    {
      "midi": 67,
      "hit": false,
      "t": 24512.15100000002,
      "d": 121.95100000000093,
      "v": 100
    },
    {
      "midi": 63,
      "hit": false,
      "t": 24512.15100000002,
      "d": 121.95100000000093,
      "v": 100
    },
    {
      "midi": 58,
      "hit": false,
      "t": 24512.15100000002,
      "d": 121.95100000000093,
      "v": 100
    },
    {
      "midi": 54,
      "hit": false,
      "t": 24512.151000000023,
      "d": 1.0162583333330986,
      "v": 60
    },
    {
      "midi": 67,
      "hit": false,
      "t": 24634.101999999788,
      "d": 60.975500000000466,
      "v": 100
    },
    {
      "midi": 62,
      "hit": false,
      "t": 24634.101999999788,
      "d": 60.975500000000466,
      "v": 100
    },
    {
      "midi": 58,
      "hit": false,
      "t": 24634.101999999788,
      "d": 60.975500000000466,
      "v": 100
    },
    {
      "midi": 79,
      "hit": false,
      "t": 24634.101999999973,
      "d": 121.95100000000093,
      "v": 100
    },
    {
      "midi": 31,
      "hit": false,
      "t": 24634.101999999984,
      "d": 243.90199999999822,
      "v": 100
    },
    {
      "midi": 74,
      "hit": false,
      "t": 24634.101999999995,
      "d": 243.90199999999822,
      "v": 100
    },
    {
      "midi": 82,
      "hit": false,
      "t": 24634.101999999995,
      "d": 243.90199999999822,
      "v": 100
    },
    {
      "midi": 77,
      "hit": false,
      "t": 24634.101999999995,
      "d": 243.90199999999822,
      "v": 100
    },
    {
      "midi": 46,
      "hit": false,
      "t": 24634.10200000001,
      "d": 1.0162583333330986,
      "v": 100
    },
    {
      "midi": 54,
      "hit": false,
      "t": 24634.102000000024,
      "d": 1.0162583333330986,
      "v": 60
    },
    {
      "midi": 67,
      "hit": false,
      "t": 24756.05299999979,
      "d": 60.975500000000466,
      "v": 100
    },
    {
      "midi": 62,
      "hit": false,
      "t": 24756.05299999979,
      "d": 60.975500000000466,
      "v": 100
    },
    {
      "midi": 58,
      "hit": false,
      "t": 24756.05299999979,
      "d": 60.975500000000466,
      "v": 100
    },
    {
      "midi": 79,
      "hit": false,
      "t": 24756.052999999974,
      "d": 121.95100000000093,
      "v": 100
    },
    {
      "midi": 44,
      "hit": false,
      "t": 24756.05300000001,
      "d": 1.0162583333330986,
      "v": 100
    },
    {
      "midi": 67,
      "hit": false,
      "t": 24756.05300000002,
      "d": 121.95100000000093,
      "v": 100
    },
    {
      "midi": 63,
      "hit": false,
      "t": 24756.05300000002,
      "d": 121.95100000000093,
      "v": 100
    },
    {
      "midi": 58,
      "hit": false,
      "t": 24756.05300000002,
      "d": 121.95100000000093,
      "v": 100
    },
    {
      "midi": 54,
      "hit": false,
      "t": 24756.053000000025,
      "d": 1.0162583333330986,
      "v": 60
    },
    {
      "midi": 67,
      "hit": false,
      "t": 24878.00399999979,
      "d": 243.90199999996912,
      "v": 100
    },
    {
      "midi": 62,
      "hit": false,
      "t": 24878.00399999979,
      "d": 243.90199999996912,
      "v": 100
    },
    {
      "midi": 58,
      "hit": false,
      "t": 24878.00399999979,
      "d": 243.90199999996912,
      "v": 100
    },
    {
      "midi": 74,
      "hit": false,
      "t": 24878.003999999975,
      "d": 121.95100000000093,
      "v": 100
    },
    {
      "midi": 29,
      "hit": false,
      "t": 24878.003999999983,
      "d": 243.90199999999822,
      "v": 100
    },
    {
      "midi": 74,
      "hit": false,
      "t": 24878.003999999994,
      "d": 243.90199999999822,
      "v": 100
    },
    {
      "midi": 79,
      "hit": false,
      "t": 24878.003999999994,
      "d": 243.90199999999822,
      "v": 100
    },
    {
      "midi": 77,
      "hit": false,
      "t": 24878.003999999994,
      "d": 243.90199999999822,
      "v": 100
    },
    {
      "midi": 33,
      "hit": false,
      "t": 24878.00400000001,
      "d": 1.0162583333330986,
      "v": 127
    },
    {
      "midi": 40,
      "hit": false,
      "t": 24878.00400000001,
      "d": 1.0162583333330986,
      "v": 100
    },
    {
      "midi": 46,
      "hit": false,
      "t": 24878.00400000001,
      "d": 1.0162583333330986,
      "v": 100
    },
    {
      "midi": 54,
      "hit": false,
      "t": 24878.004000000026,
      "d": 1.0162583333330986,
      "v": 80
    },
    {
      "midi": 74,
      "hit": false,
      "t": 24999.954999999976,
      "d": 121.95100000000093,
      "v": 100
    },
    {
      "midi": 44,
      "hit": false,
      "t": 24999.955000000013,
      "d": 1.0162583333330986,
      "v": 100
    },
    {
      "midi": 54,
      "hit": false,
      "t": 24999.955000000027,
      "d": 1.0162583333330986,
      "v": 60
    },
    {
      "midi": 67,
      "hit": false,
      "t": 25121.90599999976,
      "d": 60.975500000000466,
      "v": 100
    },
    {
      "midi": 62,
      "hit": false,
      "t": 25121.90599999976,
      "d": 60.975500000000466,
      "v": 100
    },
    {
      "midi": 58,
      "hit": false,
      "t": 25121.90599999976,
      "d": 60.975500000000466,
      "v": 100
    },
    {
      "midi": 79,
      "hit": false,
      "t": 25121.905999999977,
      "d": 121.95100000000093,
      "v": 100
    },
    {
      "midi": 31,
      "hit": false,
      "t": 25121.90599999998,
      "d": 243.90199999999822,
      "v": 100
    },
    {
      "midi": 74,
      "hit": false,
      "t": 25121.90599999999,
      "d": 243.90199999999822,
      "v": 100
    },
    {
      "midi": 82,
      "hit": false,
      "t": 25121.90599999999,
      "d": 243.90199999999822,
      "v": 100
    },
    {
      "midi": 77,
      "hit": false,
      "t": 25121.90599999999,
      "d": 243.90199999999822,
      "v": 100
    },
    {
      "midi": 40,
      "hit": false,
      "t": 25121.906000000014,
      "d": 1.0162583333330986,
      "v": 40
    },
    {
      "midi": 46,
      "hit": false,
      "t": 25121.906000000014,
      "d": 1.0162583333330986,
      "v": 100
    },
    {
      "midi": 54,
      "hit": false,
      "t": 25121.906000000028,
      "d": 1.0162583333330986,
      "v": 60
    },
    {
      "midi": 67,
      "hit": false,
      "t": 25243.85699999976,
      "d": 60.975500000000466,
      "v": 100
    },
    {
      "midi": 62,
      "hit": false,
      "t": 25243.85699999976,
      "d": 60.975500000000466,
      "v": 100
    },
    {
      "midi": 58,
      "hit": false,
      "t": 25243.85699999976,
      "d": 60.975500000000466,
      "v": 100
    },
    {
      "midi": 79,
      "hit": false,
      "t": 25243.856999999978,
      "d": 121.95100000000093,
      "v": 100
    },
    {
      "midi": 40,
      "hit": false,
      "t": 25243.857000000015,
      "d": 1.0162583333330986,
      "v": 100
    },
    {
      "midi": 44,
      "hit": false,
      "t": 25243.857000000015,
      "d": 1.0162583333330986,
      "v": 100
    },
    {
      "midi": 54,
      "hit": false,
      "t": 25243.85700000003,
      "d": 1.0162583333330986,
      "v": 60
    },
    {
      "midi": 68,
      "hit": false,
      "t": 25365.80799999976,
      "d": 487.80399999996735,
      "v": 100
    },
    {
      "midi": 63,
      "hit": false,
      "t": 25365.80799999976,
      "d": 487.80399999996735,
      "v": 100
    },
    {
      "midi": 60,
      "hit": false,
      "t": 25365.80799999976,
      "d": 487.80399999996735,
      "v": 100
    },
    {
      "midi": 72,
      "hit": false,
      "t": 25365.80799999998,
      "d": 121.95100000000093,
      "v": 100
    },
    {
      "midi": 32,
      "hit": false,
      "t": 25365.80799999998,
      "d": 243.90199999999822,
      "v": 100
    },
    {
      "midi": 80,
      "hit": false,
      "t": 25365.80799999999,
      "d": 243.90199999999822,
      "v": 100
    },
    {
      "midi": 75,
      "hit": false,
      "t": 25365.80799999999,
      "d": 243.90199999999822,
      "v": 100
    },
    {
      "midi": 72,
      "hit": false,
      "t": 25365.80799999999,
      "d": 243.90199999999822,
      "v": 100
    },
    {
      "midi": 44,
      "hit": false,
      "t": 25365.808,
      "d": 975.6080000000002,
      "v": 100
    },
    {
      "midi": 51,
      "hit": false,
      "t": 25365.808,
      "d": 975.6080000000002,
      "v": 100
    },
    {
      "midi": 33,
      "hit": false,
      "t": 25365.808000000015,
      "d": 1.0162583333330986,
      "v": 127
    },
    {
      "midi": 42,
      "hit": false,
      "t": 25365.808000000015,
      "d": 1.0162583333330986,
      "v": 100
    },
    {
      "midi": 54,
      "hit": false,
      "t": 25365.80800000003,
      "d": 1.0162583333330986,
      "v": 80
    },
    {
      "midi": 72,
      "hit": false,
      "t": 25487.75899999998,
      "d": 121.95100000000093,
      "v": 100
    },
    {
      "midi": 68,
      "hit": false,
      "t": 25487.759000000024,
      "d": 121.95100000000093,
      "v": 100
    },
    {
      "midi": 63,
      "hit": false,
      "t": 25487.759000000024,
      "d": 121.95100000000093,
      "v": 100
    },
    {
      "midi": 60,
      "hit": false,
      "t": 25487.759000000024,
      "d": 121.95100000000093,
      "v": 100
    },
    {
      "midi": 54,
      "hit": false,
      "t": 25487.75900000003,
      "d": 1.0162583333330986,
      "v": 60
    },
    {
      "midi": 32,
      "hit": false,
      "t": 25609.709999999977,
      "d": 243.90199999999822,
      "v": 100
    },
    {
      "midi": 68,
      "hit": false,
      "t": 25609.70999999998,
      "d": 121.95100000000093,
      "v": 100
    },
    {
      "midi": 46,
      "hit": false,
      "t": 25609.710000000014,
      "d": 1.0162583333330986,
      "v": 100
    },
    {
      "midi": 68,
      "hit": false,
      "t": 25609.710000000025,
      "d": 121.95100000000093,
      "v": 100
    },
    {
      "midi": 63,
      "hit": false,
      "t": 25609.710000000025,
      "d": 121.95100000000093,
      "v": 100
    },
    {
      "midi": 60,
      "hit": false,
      "t": 25609.710000000025,
      "d": 121.95100000000093,
      "v": 100
    },
    {
      "midi": 54,
      "hit": false,
      "t": 25609.710000000032,
      "d": 1.0162583333330986,
      "v": 60
    },
    {
      "midi": 68,
      "hit": false,
      "t": 25731.660999999982,
      "d": 121.95100000000093,
      "v": 100
    },
    {
      "midi": 44,
      "hit": false,
      "t": 25731.661000000015,
      "d": 1.0162583333330986,
      "v": 100
    },
    {
      "midi": 54,
      "hit": false,
      "t": 25731.661000000033,
      "d": 1.0162583333330986,
      "v": 60
    },
    {
      "midi": 68,
      "hit": false,
      "t": 25853.611999999728,
      "d": 60.975499999985914,
      "v": 100
    },
    {
      "midi": 63,
      "hit": false,
      "t": 25853.611999999728,
      "d": 60.975499999985914,
      "v": 100
    },
    {
      "midi": 60,
      "hit": false,
      "t": 25853.611999999728,
      "d": 60.975499999985914,
      "v": 100
    },
    {
      "midi": 32,
      "hit": false,
      "t": 25853.611999999976,
      "d": 243.90199999999822,
      "v": 100
    },
    {
      "midi": 72,
      "hit": false,
      "t": 25853.611999999983,
      "d": 121.95100000000093,
      "v": 100
    },
    {
      "midi": 80,
      "hit": false,
      "t": 25853.611999999986,
      "d": 243.90199999999822,
      "v": 100
    },
    {
      "midi": 75,
      "hit": false,
      "t": 25853.611999999986,
      "d": 243.90199999999822,
      "v": 100
    },
    {
      "midi": 72,
      "hit": false,
      "t": 25853.611999999986,
      "d": 243.90199999999822,
      "v": 100
    },
    {
      "midi": 33,
      "hit": false,
      "t": 25853.612000000016,
      "d": 1.0162583333330986,
      "v": 127
    },
    {
      "midi": 40,
      "hit": false,
      "t": 25853.612000000016,
      "d": 1.0162583333330986,
      "v": 100
    },
    {
      "midi": 46,
      "hit": false,
      "t": 25853.612000000016,
      "d": 1.0162583333330986,
      "v": 100
    },
    {
      "midi": 68,
      "hit": false,
      "t": 25853.612000000026,
      "d": 121.95100000000093,
      "v": 100
    },
    {
      "midi": 63,
      "hit": false,
      "t": 25853.612000000026,
      "d": 121.95100000000093,
      "v": 100
    },
    {
      "midi": 60,
      "hit": false,
      "t": 25853.612000000026,
      "d": 121.95100000000093,
      "v": 100
    },
    {
      "midi": 54,
      "hit": false,
      "t": 25853.612000000034,
      "d": 1.0162583333330986,
      "v": 80
    },
    {
      "midi": 68,
      "hit": false,
      "t": 25975.56299999971,
      "d": 60.975500000000466,
      "v": 100
    },
    {
      "midi": 63,
      "hit": false,
      "t": 25975.56299999971,
      "d": 60.975500000000466,
      "v": 100
    },
    {
      "midi": 60,
      "hit": false,
      "t": 25975.56299999971,
      "d": 60.975500000000466,
      "v": 100
    },
    {
      "midi": 72,
      "hit": false,
      "t": 25975.562999999984,
      "d": 121.95100000000093,
      "v": 100
    },
    {
      "midi": 44,
      "hit": false,
      "t": 25975.563000000016,
      "d": 1.0162583333330986,
      "v": 100
    },
    {
      "midi": 54,
      "hit": false,
      "t": 25975.563000000035,
      "d": 1.0162583333330986,
      "v": 60
    },
    {
      "midi": 68,
      "hit": false,
      "t": 26097.513999999697,
      "d": 60.975500000000466,
      "v": 100
    },
    {
      "midi": 63,
      "hit": false,
      "t": 26097.513999999697,
      "d": 60.975500000000466,
      "v": 100
    },
    {
      "midi": 60,
      "hit": false,
      "t": 26097.513999999697,
      "d": 60.975500000000466,
      "v": 100
    },
    {
      "midi": 32,
      "hit": false,
      "t": 26097.513999999974,
      "d": 71.13808333333509,
      "v": 100
    },
    {
      "midi": 77,
      "hit": false,
      "t": 26097.513999999985,
      "d": 121.95100000000093,
      "v": 100
    },
    {
      "midi": 46,
      "hit": false,
      "t": 26097.514000000017,
      "d": 1.0162583333330986,
      "v": 100
    },
    {
      "midi": 68,
      "hit": false,
      "t": 26097.51400000003,
      "d": 121.95100000000093,
      "v": 100
    },
    {
      "midi": 63,
      "hit": false,
      "t": 26097.51400000003,
      "d": 121.95100000000093,
      "v": 100
    },
    {
      "midi": 60,
      "hit": false,
      "t": 26097.51400000003,
      "d": 121.95100000000093,
      "v": 100
    },
    {
      "midi": 54,
      "hit": false,
      "t": 26097.514000000036,
      "d": 1.0162583333330986,
      "v": 60
    },
    {
      "midi": 68,
      "hit": false,
      "t": 26219.4649999997,
      "d": 60.975500000000466,
      "v": 100
    },
    {
      "midi": 63,
      "hit": false,
      "t": 26219.4649999997,
      "d": 60.975500000000466,
      "v": 100
    },
    {
      "midi": 60,
      "hit": false,
      "t": 26219.4649999997,
      "d": 60.975500000000466,
      "v": 100
    },
    {
      "midi": 29,
      "hit": false,
      "t": 26219.464999999975,
      "d": 243.90199999999822,
      "v": 100
    },
    {
      "midi": 77,
      "hit": false,
      "t": 26219.464999999986,
      "d": 365.85299999999916,
      "v": 100
    },
    {
      "midi": 75,
      "hit": false,
      "t": 26219.464999999986,
      "d": 365.85299999999916,
      "v": 100
    },
    {
      "midi": 72,
      "hit": false,
      "t": 26219.464999999986,
      "d": 365.85299999999916,
      "v": 100
    },
    {
      "midi": 77,
      "hit": false,
      "t": 26219.464999999986,
      "d": 121.95100000000093,
      "v": 100
    },
    {
      "midi": 44,
      "hit": false,
      "t": 26219.46500000002,
      "d": 1.0162583333330986,
      "v": 100
    },
    {
      "midi": 54,
      "hit": false,
      "t": 26219.465000000037,
      "d": 1.0162583333330986,
      "v": 60
    },
    {
      "midi": 68,
      "hit": false,
      "t": 26341.4159999997,
      "d": 60.975499999985914,
      "v": 100
    },
    {
      "midi": 63,
      "hit": false,
      "t": 26341.4159999997,
      "d": 60.975499999985914,
      "v": 100
    },
    {
      "midi": 60,
      "hit": false,
      "t": 26341.4159999997,
      "d": 60.975499999985914,
      "v": 100
    },
    {
      "midi": 77,
      "hit": false,
      "t": 26341.415999999987,
      "d": 121.95100000000093,
      "v": 100
    },
    {
      "midi": 48,
      "hit": false,
      "t": 26341.416,
      "d": 975.6080000000002,
      "v": 100
    },
    {
      "midi": 41,
      "hit": false,
      "t": 26341.416,
      "d": 975.6080000000002,
      "v": 100
    },
    {
      "midi": 33,
      "hit": false,
      "t": 26341.41600000002,
      "d": 1.0162583333330986,
      "v": 127
    },
    {
      "midi": 42,
      "hit": false,
      "t": 26341.41600000002,
      "d": 1.0162583333330986,
      "v": 100
    },
    {
      "midi": 68,
      "hit": false,
      "t": 26341.41600000003,
      "d": 121.95100000000093,
      "v": 100
    },
    {
      "midi": 63,
      "hit": false,
      "t": 26341.41600000003,
      "d": 121.95100000000093,
      "v": 100
    },
    {
      "midi": 60,
      "hit": false,
      "t": 26341.41600000003,
      "d": 121.95100000000093,
      "v": 100
    },
    {
      "midi": 54,
      "hit": false,
      "t": 26341.416000000037,
      "d": 1.0162583333330986,
      "v": 80
    },
    {
      "midi": 68,
      "hit": false,
      "t": 26463.366999999682,
      "d": 60.975500000000466,
      "v": 100
    },
    {
      "midi": 63,
      "hit": false,
      "t": 26463.366999999682,
      "d": 60.975500000000466,
      "v": 100
    },
    {
      "midi": 60,
      "hit": false,
      "t": 26463.366999999682,
      "d": 60.975500000000466,
      "v": 100
    },
    {
      "midi": 29,
      "hit": false,
      "t": 26463.366999999973,
      "d": 121.95100000000093,
      "v": 100
    },
    {
      "midi": 77,
      "hit": false,
      "t": 26463.366999999987,
      "d": 121.95100000000093,
      "v": 100
    },
    {
      "midi": 68,
      "hit": false,
      "t": 26463.36700000003,
      "d": 121.95100000000093,
      "v": 100
    },
    {
      "midi": 63,
      "hit": false,
      "t": 26463.36700000003,
      "d": 121.95100000000093,
      "v": 100
    },
    {
      "midi": 60,
      "hit": false,
      "t": 26463.36700000003,
      "d": 121.95100000000093,
      "v": 100
    },
    {
      "midi": 54,
      "hit": false,
      "t": 26463.36700000004,
      "d": 1.0162583333330986,
      "v": 60
    },
    {
      "midi": 68,
      "hit": false,
      "t": 26585.31799999967,
      "d": 60.975500000000466,
      "v": 100
    },
    {
      "midi": 63,
      "hit": false,
      "t": 26585.31799999967,
      "d": 60.975500000000466,
      "v": 100
    },
    {
      "midi": 60,
      "hit": false,
      "t": 26585.31799999967,
      "d": 60.975500000000466,
      "v": 100
    },
    {
      "midi": 29,
      "hit": false,
      "t": 26585.317999999974,
      "d": 243.90199999999822,
      "v": 100
    },
    {
      "midi": 77,
      "hit": false,
      "t": 26585.317999999985,
      "d": 243.90199999999822,
      "v": 100
    },
    {
      "midi": 75,
      "hit": false,
      "t": 26585.317999999985,
      "d": 243.90199999999822,
      "v": 100
    },
    {
      "midi": 72,
      "hit": false,
      "t": 26585.317999999985,
      "d": 243.90199999999822,
      "v": 100
    },
    {
      "midi": 77,
      "hit": false,
      "t": 26585.31799999999,
      "d": 121.95100000000093,
      "v": 100
    },
    {
      "midi": 46,
      "hit": false,
      "t": 26585.318000000017,
      "d": 1.0162583333330986,
      "v": 100
    },
    {
      "midi": 54,
      "hit": false,
      "t": 26585.31800000004,
      "d": 1.0162583333330986,
      "v": 60
    },
    {
      "midi": 68,
      "hit": false,
      "t": 26707.26899999967,
      "d": 60.975500000000466,
      "v": 100
    },
    {
      "midi": 63,
      "hit": false,
      "t": 26707.26899999967,
      "d": 60.975500000000466,
      "v": 100
    },
    {
      "midi": 60,
      "hit": false,
      "t": 26707.26899999967,
      "d": 60.975500000000466,
      "v": 100
    },
    {
      "midi": 77,
      "hit": false,
      "t": 26707.26899999999,
      "d": 121.95100000000093,
      "v": 100
    },
    {
      "midi": 44,
      "hit": false,
      "t": 26707.26900000002,
      "d": 1.0162583333330986,
      "v": 100
    },
    {
      "midi": 68,
      "hit": false,
      "t": 26707.269000000033,
      "d": 121.95100000000093,
      "v": 100
    },
    {
      "midi": 63,
      "hit": false,
      "t": 26707.269000000033,
      "d": 121.95100000000093,
      "v": 100
    },
    {
      "midi": 60,
      "hit": false,
      "t": 26707.269000000033,
      "d": 121.95100000000093,
      "v": 100
    },
    {
      "midi": 54,
      "hit": false,
      "t": 26707.26900000004,
      "d": 1.0162583333330986,
      "v": 60
    },
    {
      "midi": 68,
      "hit": false,
      "t": 26829.21999999967,
      "d": 243.90199999996912,
      "v": 100
    },
    {
      "midi": 63,
      "hit": false,
      "t": 26829.21999999967,
      "d": 243.90199999996912,
      "v": 100
    },
    {
      "midi": 60,
      "hit": false,
      "t": 26829.21999999967,
      "d": 243.90199999996912,
      "v": 100
    },
    {
      "midi": 26,
      "hit": false,
      "t": 26829.219999999972,
      "d": 243.90199999999822,
      "v": 100
    },
    {
      "midi": 75,
      "hit": false,
      "t": 26829.219999999983,
      "d": 243.90199999999822,
      "v": 100
    },
    {
      "midi": 72,
      "hit": false,
      "t": 26829.219999999983,
      "d": 243.90199999999822,
      "v": 100
    },
    {
      "midi": 68,
      "hit": false,
      "t": 26829.219999999983,
      "d": 243.90199999999822,
      "v": 100
    },
    {
      "midi": 72,
      "hit": false,
      "t": 26829.21999999999,
      "d": 121.95100000000093,
      "v": 100
    },
    {
      "midi": 33,
      "hit": false,
      "t": 26829.22000000002,
      "d": 1.0162583333330986,
      "v": 127
    },
    {
      "midi": 40,
      "hit": false,
      "t": 26829.22000000002,
      "d": 1.0162583333330986,
      "v": 100
    },
    {
      "midi": 46,
      "hit": false,
      "t": 26829.22000000002,
      "d": 1.0162583333330986,
      "v": 100
    },
    {
      "midi": 54,
      "hit": false,
      "t": 26829.22000000004,
      "d": 1.0162583333330986,
      "v": 80
    },
    {
      "midi": 72,
      "hit": false,
      "t": 26951.17099999999,
      "d": 121.95100000000093,
      "v": 100
    },
    {
      "midi": 44,
      "hit": false,
      "t": 26951.17100000002,
      "d": 1.0162583333330986,
      "v": 100
    },
    {
      "midi": 54,
      "hit": false,
      "t": 26951.171000000042,
      "d": 1.0162583333330986,
      "v": 60
    },
    {
      "midi": 68,
      "hit": false,
      "t": 27073.12199999964,
      "d": 60.975500000000466,
      "v": 100
    },
    {
      "midi": 63,
      "hit": false,
      "t": 27073.12199999964,
      "d": 60.975500000000466,
      "v": 100
    },
    {
      "midi": 60,
      "hit": false,
      "t": 27073.12199999964,
      "d": 60.975500000000466,
      "v": 100
    },
    {
      "midi": 29,
      "hit": false,
      "t": 27073.12199999997,
      "d": 243.90199999999822,
      "v": 100
    },
    {
      "midi": 77,
      "hit": false,
      "t": 27073.12199999998,
      "d": 243.90199999999822,
      "v": 100
    },
    {
      "midi": 75,
      "hit": false,
      "t": 27073.12199999998,
      "d": 243.90199999999822,
      "v": 100
    },
    {
      "midi": 72,
      "hit": false,
      "t": 27073.12199999998,
      "d": 243.90199999999822,
      "v": 100
    },
    {
      "midi": 77,
      "hit": false,
      "t": 27073.121999999992,
      "d": 121.95100000000093,
      "v": 100
    },
    {
      "midi": 40,
      "hit": false,
      "t": 27073.12200000002,
      "d": 1.0162583333330986,
      "v": 40
    },
    {
      "midi": 46,
      "hit": false,
      "t": 27073.12200000002,
      "d": 1.0162583333330986,
      "v": 100
    },
    {
      "midi": 54,
      "hit": false,
      "t": 27073.122000000043,
      "d": 1.0162583333330986,
      "v": 60
    },
    {
      "midi": 68,
      "hit": false,
      "t": 27195.07299999964,
      "d": 60.975500000000466,
      "v": 100
    },
    {
      "midi": 63,
      "hit": false,
      "t": 27195.07299999964,
      "d": 60.975500000000466,
      "v": 100
    },
    {
      "midi": 60,
      "hit": false,
      "t": 27195.07299999964,
      "d": 60.975500000000466,
      "v": 100
    },
    {
      "midi": 77,
      "hit": false,
      "t": 27195.072999999993,
      "d": 121.95100000000093,
      "v": 100
    },
    {
      "midi": 40,
      "hit": false,
      "t": 27195.073000000022,
      "d": 1.0162583333330986,
      "v": 100
    },
    {
      "midi": 44,
      "hit": false,
      "t": 27195.073000000022,
      "d": 1.0162583333330986,
      "v": 100
    },
    {
      "midi": 54,
      "hit": false,
      "t": 27195.073000000044,
      "d": 1.0162583333330986,
      "v": 60
    },
    {
      "midi": 67,
      "hit": false,
      "t": 27317.02399999964,
      "d": 487.80399999996735,
      "v": 100
    },
    {
      "midi": 62,
      "hit": false,
      "t": 27317.02399999964,
      "d": 487.80399999996735,
      "v": 100
    },
    {
      "midi": 58,
      "hit": false,
      "t": 27317.02399999964,
      "d": 487.80399999996735,
      "v": 100
    },
    {
      "midi": 31,
      "hit": false,
      "t": 27317.02399999997,
      "d": 243.90199999999822,
      "v": 100
    },
    {
      "midi": 79,
      "hit": false,
      "t": 27317.02399999998,
      "d": 243.90199999999822,
      "v": 100
    },
    {
      "midi": 74,
      "hit": false,
      "t": 27317.02399999998,
      "d": 243.90199999999822,
      "v": 100
    },
    {
      "midi": 70,
      "hit": false,
      "t": 27317.02399999998,
      "d": 243.90199999999822,
      "v": 100
    },
    {
      "midi": 67,
      "hit": false,
      "t": 27317.023999999994,
      "d": 121.95100000000093,
      "v": 100
    },
    {
      "midi": 50,
      "hit": false,
      "t": 27317.024,
      "d": 975.6080000000002,
      "v": 100
    },
    {
      "midi": 43,
      "hit": false,
      "t": 27317.024,
      "d": 975.6080000000002,
      "v": 100
    },
    {
      "midi": 33,
      "hit": false,
      "t": 27317.024000000023,
      "d": 1.0162583333330986,
      "v": 127
    },
    {
      "midi": 42,
      "hit": false,
      "t": 27317.024000000023,
      "d": 1.0162583333330986,
      "v": 100
    },
    {
      "midi": 54,
      "hit": false,
      "t": 27317.024000000045,
      "d": 1.0162583333330986,
      "v": 80
    },
    {
      "midi": 67,
      "hit": false,
      "t": 27438.974999999995,
      "d": 121.95100000000093,
      "v": 100
    },
    {
      "midi": 67,
      "hit": false,
      "t": 27438.975000000035,
      "d": 121.95100000000093,
      "v": 100
    },
    {
      "midi": 62,
      "hit": false,
      "t": 27438.975000000035,
      "d": 121.95100000000093,
      "v": 100
    },
    {
      "midi": 58,
      "hit": false,
      "t": 27438.975000000035,
      "d": 121.95100000000093,
      "v": 100
    },
    {
      "midi": 54,
      "hit": false,
      "t": 27438.975000000046,
      "d": 1.0162583333330986,
      "v": 60
    },
    {
      "midi": 31,
      "hit": false,
      "t": 27560.925999999967,
      "d": 243.90199999999822,
      "v": 100
    },
    {
      "midi": 70,
      "hit": false,
      "t": 27560.925999999996,
      "d": 121.95100000000093,
      "v": 100
    },
    {
      "midi": 46,
      "hit": false,
      "t": 27560.92600000002,
      "d": 1.0162583333330986,
      "v": 100
    },
    {
      "midi": 67,
      "hit": false,
      "t": 27560.926000000036,
      "d": 121.95100000000093,
      "v": 100
    },
    {
      "midi": 62,
      "hit": false,
      "t": 27560.926000000036,
      "d": 121.95100000000093,
      "v": 100
    },
    {
      "midi": 58,
      "hit": false,
      "t": 27560.926000000036,
      "d": 121.95100000000093,
      "v": 100
    },
    {
      "midi": 54,
      "hit": false,
      "t": 27560.926000000047,
      "d": 1.0162583333330986,
      "v": 60
    },
    {
      "midi": 70,
      "hit": false,
      "t": 27682.876999999997,
      "d": 121.95100000000093,
      "v": 100
    },
    {
      "midi": 44,
      "hit": false,
      "t": 27682.877000000022,
      "d": 1.0162583333330986,
      "v": 100
    },
    {
      "midi": 54,
      "hit": false,
      "t": 27682.877000000048,
      "d": 1.0162583333330986,
      "v": 60
    },
    {
      "midi": 67,
      "hit": false,
      "t": 27804.82799999961,
      "d": 60.975499999985914,
      "v": 100
    },
    {
      "midi": 62,
      "hit": false,
      "t": 27804.82799999961,
      "d": 60.975499999985914,
      "v": 100
    },
    {
      "midi": 58,
      "hit": false,
      "t": 27804.82799999961,
      "d": 60.975499999985914,
      "v": 100
    },
    {
      "midi": 31,
      "hit": false,
      "t": 27804.827999999965,
      "d": 243.90199999999822,
      "v": 100
    },
    {
      "midi": 79,
      "hit": false,
      "t": 27804.827999999976,
      "d": 243.90199999999822,
      "v": 100
    },
    {
      "midi": 74,
      "hit": false,
      "t": 27804.827999999976,
      "d": 243.90199999999822,
      "v": 100
    },
    {
      "midi": 82,
      "hit": false,
      "t": 27804.827999999976,
      "d": 243.90199999999822,
      "v": 100
    },
    {
      "midi": 74,
      "hit": false,
      "t": 27804.827999999998,
      "d": 121.95100000000093,
      "v": 100
    },
    {
      "midi": 33,
      "hit": false,
      "t": 27804.828000000023,
      "d": 1.0162583333330986,
      "v": 127
    },
    {
      "midi": 40,
      "hit": false,
      "t": 27804.828000000023,
      "d": 1.0162583333330986,
      "v": 100
    },
    {
      "midi": 46,
      "hit": false,
      "t": 27804.828000000023,
      "d": 1.0162583333330986,
      "v": 100
    },
    {
      "midi": 67,
      "hit": false,
      "t": 27804.828000000038,
      "d": 121.95100000000093,
      "v": 100
    },
    {
      "midi": 62,
      "hit": false,
      "t": 27804.828000000038,
      "d": 121.95100000000093,
      "v": 100
    },
    {
      "midi": 58,
      "hit": false,
      "t": 27804.828000000038,
      "d": 121.95100000000093,
      "v": 100
    },
    {
      "midi": 54,
      "hit": false,
      "t": 27804.82800000005,
      "d": 1.0162583333330986,
      "v": 80
    },
    {
      "midi": 67,
      "hit": false,
      "t": 27926.77899999959,
      "d": 60.975500000000466,
      "v": 100
    },
    {
      "midi": 62,
      "hit": false,
      "t": 27926.77899999959,
      "d": 60.975500000000466,
      "v": 100
    },
    {
      "midi": 58,
      "hit": false,
      "t": 27926.77899999959,
      "d": 60.975500000000466,
      "v": 100
    },
    {
      "midi": 74,
      "hit": false,
      "t": 27926.779,
      "d": 121.95100000000093,
      "v": 100
    },
    {
      "midi": 44,
      "hit": false,
      "t": 27926.779000000024,
      "d": 1.0162583333330986,
      "v": 100
    },
    {
      "midi": 54,
      "hit": false,
      "t": 27926.77900000005,
      "d": 1.0162583333330986,
      "v": 60
    },
    {
      "midi": 67,
      "hit": false,
      "t": 28048.729999999578,
      "d": 60.975500000000466,
      "v": 100
    },
    {
      "midi": 62,
      "hit": false,
      "t": 28048.729999999578,
      "d": 60.975500000000466,
      "v": 100
    },
    {
      "midi": 58,
      "hit": false,
      "t": 28048.729999999578,
      "d": 60.975500000000466,
      "v": 100
    },
    {
      "midi": 31,
      "hit": false,
      "t": 28048.729999999963,
      "d": 71.13808333333509,
      "v": 100
    },
    {
      "midi": 79,
      "hit": false,
      "t": 28048.73,
      "d": 121.95100000000093,
      "v": 100
    },
    {
      "midi": 46,
      "hit": false,
      "t": 28048.730000000025,
      "d": 1.0162583333330986,
      "v": 100
    },
    {
      "midi": 67,
      "hit": false,
      "t": 28048.73000000004,
      "d": 121.95100000000093,
      "v": 100
    },
    {
      "midi": 62,
      "hit": false,
      "t": 28048.73000000004,
      "d": 121.95100000000093,
      "v": 100
    },
    {
      "midi": 58,
      "hit": false,
      "t": 28048.73000000004,
      "d": 121.95100000000093,
      "v": 100
    },
    {
      "midi": 54,
      "hit": false,
      "t": 28048.73000000005,
      "d": 1.0162583333330986,
      "v": 60
    },
    {
      "midi": 67,
      "hit": false,
      "t": 28170.68099999958,
      "d": 60.975500000000466,
      "v": 100
    },
    {
      "midi": 62,
      "hit": false,
      "t": 28170.68099999958,
      "d": 60.975500000000466,
      "v": 100
    },
    {
      "midi": 58,
      "hit": false,
      "t": 28170.68099999958,
      "d": 60.975500000000466,
      "v": 100
    },
    {
      "midi": 34,
      "hit": false,
      "t": 28170.680999999964,
      "d": 243.90199999999822,
      "v": 100
    },
    {
      "midi": 82,
      "hit": false,
      "t": 28170.680999999975,
      "d": 365.85299999999916,
      "v": 100
    },
    {
      "midi": 79,
      "hit": false,
      "t": 28170.680999999975,
      "d": 365.85299999999916,
      "v": 100
    },
    {
      "midi": 74,
      "hit": false,
      "t": 28170.680999999975,
      "d": 365.85299999999916,
      "v": 100
    },
    {
      "midi": 79,
      "hit": false,
      "t": 28170.681,
      "d": 121.95100000000093,
      "v": 100
    },
    {
      "midi": 44,
      "hit": false,
      "t": 28170.681000000026,
      "d": 1.0162583333330986,
      "v": 100
    },
    {
      "midi": 54,
      "hit": false,
      "t": 28170.68100000005,
      "d": 1.0162583333330986,
      "v": 60
    },
    {
      "midi": 70,
      "hit": false,
      "t": 28292.63199999958,
      "d": 60.975499999985914,
      "v": 100
    },
    {
      "midi": 65,
      "hit": false,
      "t": 28292.63199999958,
      "d": 60.975499999985914,
      "v": 100
    },
    {
      "midi": 62,
      "hit": false,
      "t": 28292.63199999958,
      "d": 60.975499999985914,
      "v": 100
    },
    {
      "midi": 46,
      "hit": false,
      "t": 28292.632,
      "d": 975.6080000000002,
      "v": 100
    },
    {
      "midi": 53,
      "hit": false,
      "t": 28292.632,
      "d": 975.6080000000002,
      "v": 100
    },
    {
      "midi": 82,
      "hit": false,
      "t": 28292.632,
      "d": 121.95100000000093,
      "v": 100
    },
    {
      "midi": 33,
      "hit": false,
      "t": 28292.632000000027,
      "d": 1.0162583333330986,
      "v": 127
    },
    {
      "midi": 42,
      "hit": false,
      "t": 28292.632000000027,
      "d": 1.0162583333330986,
      "v": 100
    },
    {
      "midi": 70,
      "hit": false,
      "t": 28292.63200000004,
      "d": 121.95100000000093,
      "v": 100
    },
    {
      "midi": 65,
      "hit": false,
      "t": 28292.63200000004,
      "d": 121.95100000000093,
      "v": 100
    },
    {
      "midi": 62,
      "hit": false,
      "t": 28292.63200000004,
      "d": 121.95100000000093,
      "v": 100
    },
    {
      "midi": 54,
      "hit": false,
      "t": 28292.632000000052,
      "d": 1.0162583333330986,
      "v": 80
    },
    {
      "midi": 70,
      "hit": false,
      "t": 28414.582999999562,
      "d": 60.975500000000466,
      "v": 100
    },
    {
      "midi": 65,
      "hit": false,
      "t": 28414.582999999562,
      "d": 60.975500000000466,
      "v": 100
    },
    {
      "midi": 62,
      "hit": false,
      "t": 28414.582999999562,
      "d": 60.975500000000466,
      "v": 100
    },
    {
      "midi": 34,
      "hit": false,
      "t": 28414.582999999962,
      "d": 121.95100000000093,
      "v": 100
    },
    {
      "midi": 82,
      "hit": false,
      "t": 28414.583000000002,
      "d": 121.95100000000093,
      "v": 100
    },
    {
      "midi": 70,
      "hit": false,
      "t": 28414.583000000042,
      "d": 121.95100000000093,
      "v": 100
    },
    {
      "midi": 65,
      "hit": false,
      "t": 28414.583000000042,
      "d": 121.95100000000093,
      "v": 100
    },
    {
      "midi": 62,
      "hit": false,
      "t": 28414.583000000042,
      "d": 121.95100000000093,
      "v": 100
    },
    {
      "midi": 54,
      "hit": false,
      "t": 28414.583000000053,
      "d": 1.0162583333330986,
      "v": 60
    },
    {
      "midi": 70,
      "hit": false,
      "t": 28536.53399999955,
      "d": 60.975500000000466,
      "v": 100
    },
    {
      "midi": 65,
      "hit": false,
      "t": 28536.53399999955,
      "d": 60.975500000000466,
      "v": 100
    },
    {
      "midi": 62,
      "hit": false,
      "t": 28536.53399999955,
      "d": 60.975500000000466,
      "v": 100
    },
    {
      "midi": 34,
      "hit": false,
      "t": 28536.533999999963,
      "d": 243.90199999999822,
      "v": 100
    },
    {
      "midi": 82,
      "hit": false,
      "t": 28536.533999999974,
      "d": 243.90199999999822,
      "v": 100
    },
    {
      "midi": 79,
      "hit": false,
      "t": 28536.533999999974,
      "d": 243.90199999999822,
      "v": 100
    },
    {
      "midi": 74,
      "hit": false,
      "t": 28536.533999999974,
      "d": 243.90199999999822,
      "v": 100
    },
    {
      "midi": 79,
      "hit": false,
      "t": 28536.534000000003,
      "d": 121.95100000000093,
      "v": 100
    },
    {
      "midi": 46,
      "hit": false,
      "t": 28536.534000000025,
      "d": 1.0162583333330986,
      "v": 100
    },
    {
      "midi": 54,
      "hit": false,
      "t": 28536.534000000054,
      "d": 1.0162583333330986,
      "v": 60
    },
    {
      "midi": 70,
      "hit": false,
      "t": 28658.48499999955,
      "d": 60.975500000000466,
      "v": 100
    },
    {
      "midi": 65,
      "hit": false,
      "t": 28658.48499999955,
      "d": 60.975500000000466,
      "v": 100
    },
    {
      "midi": 62,
      "hit": false,
      "t": 28658.48499999955,
      "d": 60.975500000000466,
      "v": 100
    },
    {
      "midi": 79,
      "hit": false,
      "t": 28658.485000000004,
      "d": 121.95100000000093,
      "v": 100
    },
    {
      "midi": 44,
      "hit": false,
      "t": 28658.485000000026,
      "d": 1.0162583333330986,
      "v": 100
    },
    {
      "midi": 70,
      "hit": false,
      "t": 28658.485000000044,
      "d": 121.95100000000093,
      "v": 100
    },
    {
      "midi": 65,
      "hit": false,
      "t": 28658.485000000044,
      "d": 121.95100000000093,
      "v": 100
    },
    {
      "midi": 62,
      "hit": false,
      "t": 28658.485000000044,
      "d": 121.95100000000093,
      "v": 100
    },
    {
      "midi": 54,
      "hit": false,
      "t": 28658.485000000055,
      "d": 1.0162583333330986,
      "v": 60
    },
    {
      "midi": 70,
      "hit": false,
      "t": 28780.43599999955,
      "d": 243.90199999996912,
      "v": 100
    },
    {
      "midi": 65,
      "hit": false,
      "t": 28780.43599999955,
      "d": 243.90199999996912,
      "v": 100
    },
    {
      "midi": 62,
      "hit": false,
      "t": 28780.43599999955,
      "d": 243.90199999996912,
      "v": 100
    },
    {
      "midi": 31,
      "hit": false,
      "t": 28780.43599999996,
      "d": 243.90199999999822,
      "v": 100
    },
    {
      "midi": 79,
      "hit": false,
      "t": 28780.435999999972,
      "d": 243.90199999999822,
      "v": 100
    },
    {
      "midi": 74,
      "hit": false,
      "t": 28780.435999999972,
      "d": 243.90199999999822,
      "v": 100
    },
    {
      "midi": 70,
      "hit": false,
      "t": 28780.435999999972,
      "d": 243.90199999999822,
      "v": 100
    },
    {
      "midi": 74,
      "hit": false,
      "t": 28780.436000000005,
      "d": 121.95100000000093,
      "v": 100
    },
    {
      "midi": 33,
      "hit": false,
      "t": 28780.436000000027,
      "d": 1.0162583333330986,
      "v": 127
    },
    {
      "midi": 40,
      "hit": false,
      "t": 28780.436000000027,
      "d": 1.0162583333330986,
      "v": 100
    },
    {
      "midi": 46,
      "hit": false,
      "t": 28780.436000000027,
      "d": 1.0162583333330986,
      "v": 100
    },
    {
      "midi": 57,
      "hit": false,
      "t": 28780.436000000027,
      "d": 1.0162583333330986,
      "v": 100
    },
    {
      "midi": 54,
      "hit": false,
      "t": 28780.436000000056,
      "d": 1.0162583333330986,
      "v": 80
    },
    {
      "midi": 74,
      "hit": false,
      "t": 28902.387000000006,
      "d": 121.95100000000093,
      "v": 100
    },
    {
      "midi": 44,
      "hit": false,
      "t": 28902.387000000028,
      "d": 1.0162583333330986,
      "v": 100
    },
    {
      "midi": 54,
      "hit": false,
      "t": 28902.387000000057,
      "d": 1.0162583333330986,
      "v": 60
    },
    {
      "midi": 70,
      "hit": false,
      "t": 29024.33799999952,
      "d": 60.975500000000466,
      "v": 100
    },
    {
      "midi": 65,
      "hit": false,
      "t": 29024.33799999952,
      "d": 60.975500000000466,
      "v": 100
    },
    {
      "midi": 62,
      "hit": false,
      "t": 29024.33799999952,
      "d": 60.975500000000466,
      "v": 100
    },
    {
      "midi": 34,
      "hit": false,
      "t": 29024.33799999996,
      "d": 243.90199999999822,
      "v": 100
    },
    {
      "midi": 82,
      "hit": false,
      "t": 29024.33799999997,
      "d": 243.90199999999822,
      "v": 100
    },
    {
      "midi": 79,
      "hit": false,
      "t": 29024.33799999997,
      "d": 243.90199999999822,
      "v": 100
    },
    {
      "midi": 74,
      "hit": false,
      "t": 29024.33799999997,
      "d": 243.90199999999822,
      "v": 100
    },
    {
      "midi": 70,
      "hit": false,
      "t": 29024.338000000007,
      "d": 121.95100000000093,
      "v": 100
    },
    {
      "midi": 40,
      "hit": false,
      "t": 29024.33800000003,
      "d": 1.0162583333330986,
      "v": 100
    },
    {
      "midi": 46,
      "hit": false,
      "t": 29024.33800000003,
      "d": 1.0162583333330986,
      "v": 100
    },
    {
      "midi": 54,
      "hit": false,
      "t": 29024.338000000058,
      "d": 1.0162583333330986,
      "v": 60
    },
    {
      "midi": 70,
      "hit": false,
      "t": 29146.28899999952,
      "d": 60.975500000000466,
      "v": 100
    },
    {
      "midi": 65,
      "hit": false,
      "t": 29146.28899999952,
      "d": 60.975500000000466,
      "v": 100
    },
    {
      "midi": 62,
      "hit": false,
      "t": 29146.28899999952,
      "d": 60.975500000000466,
      "v": 100
    },
    {
      "midi": 70,
      "hit": false,
      "t": 29146.289000000008,
      "d": 121.95100000000093,
      "v": 100
    },
    {
      "midi": 40,
      "hit": false,
      "t": 29146.28900000003,
      "d": 1.0162583333330986,
      "v": 100
    },
    {
      "midi": 44,
      "hit": false,
      "t": 29146.28900000003,
      "d": 1.0162583333330986,
      "v": 100
    },
    {
      "midi": 54,
      "hit": false,
      "t": 29146.28900000006,
      "d": 1.0162583333330986,
      "v": 60
    },
    {
      "midi": 72,
      "hit": false,
      "t": 29268.23999999952,
      "d": 487.80399999996735,
      "v": 100
    },
    {
      "midi": 67,
      "hit": false,
      "t": 29268.23999999952,
      "d": 487.80399999996735,
      "v": 100
    },
    {
      "midi": 63,
      "hit": false,
      "t": 29268.23999999952,
      "d": 487.80399999996735,
      "v": 100
    },
    {
      "midi": 36,
      "hit": false,
      "t": 29268.239999999958,
      "d": 243.90199999999822,
      "v": 100
    },
    {
      "midi": 84,
      "hit": false,
      "t": 29268.23999999997,
      "d": 243.90199999999822,
      "v": 100
    },
    {
      "midi": 79,
      "hit": false,
      "t": 29268.23999999997,
      "d": 243.90199999999822,
      "v": 100
    },
    {
      "midi": 75,
      "hit": false,
      "t": 29268.23999999997,
      "d": 243.90199999999822,
      "v": 100
    },
    {
      "midi": 48,
      "hit": false,
      "t": 29268.24,
      "d": 975.6080000000002,
      "v": 100
    },
    {
      "midi": 55,
      "hit": false,
      "t": 29268.24,
      "d": 975.6080000000002,
      "v": 100
    },
    {
      "midi": 72,
      "hit": false,
      "t": 29268.24000000001,
      "d": 121.95100000000093,
      "v": 100
    },
    {
      "midi": 33,
      "hit": false,
      "t": 29268.24000000003,
      "d": 1.0162583333330986,
      "v": 127
    },
    {
      "midi": 42,
      "hit": false,
      "t": 29268.24000000003,
      "d": 1.0162583333330986,
      "v": 100
    },
    {
      "midi": 57,
      "hit": false,
      "t": 29268.24000000003,
      "d": 1.0162583333330986,
      "v": 100
    },
    {
      "midi": 54,
      "hit": false,
      "t": 29268.24000000006,
      "d": 1.0162583333330986,
      "v": 80
    },
    {
      "midi": 72,
      "hit": false,
      "t": 29390.19100000001,
      "d": 121.95100000000093,
      "v": 100
    },
    {
      "midi": 72,
      "hit": false,
      "t": 29390.191000000046,
      "d": 121.95100000000093,
      "v": 100
    },
    {
      "midi": 67,
      "hit": false,
      "t": 29390.191000000046,
      "d": 121.95100000000093,
      "v": 100
    },
    {
      "midi": 63,
      "hit": false,
      "t": 29390.191000000046,
      "d": 121.95100000000093,
      "v": 100
    },
    {
      "midi": 54,
      "hit": false,
      "t": 29390.19100000006,
      "d": 1.0162583333330986,
      "v": 60
    },
    {
      "midi": 36,
      "hit": false,
      "t": 29512.141999999956,
      "d": 243.90199999999822,
      "v": 100
    },
    {
      "midi": 79,
      "hit": false,
      "t": 29512.14200000001,
      "d": 121.95100000000093,
      "v": 100
    },
    {
      "midi": 46,
      "hit": false,
      "t": 29512.14200000003,
      "d": 1.0162583333330986,
      "v": 100
    },
    {
      "midi": 72,
      "hit": false,
      "t": 29512.142000000047,
      "d": 121.95100000000093,
      "v": 100
    },
    {
      "midi": 67,
      "hit": false,
      "t": 29512.142000000047,
      "d": 121.95100000000093,
      "v": 100
    },
    {
      "midi": 63,
      "hit": false,
      "t": 29512.142000000047,
      "d": 121.95100000000093,
      "v": 100
    },
    {
      "midi": 54,
      "hit": false,
      "t": 29512.14200000006,
      "d": 1.0162583333330986,
      "v": 60
    },
    {
      "midi": 79,
      "hit": false,
      "t": 29634.09300000001,
      "d": 121.95100000000093,
      "v": 100
    },
    {
      "midi": 44,
      "hit": false,
      "t": 29634.09300000003,
      "d": 1.0162583333330986,
      "v": 100
    },
    {
      "midi": 54,
      "hit": false,
      "t": 29634.093000000063,
      "d": 1.0162583333330986,
      "v": 60
    },
    {
      "midi": 72,
      "hit": false,
      "t": 29756.04399999949,
      "d": 60.975499999985914,
      "v": 100
    },
    {
      "midi": 67,
      "hit": false,
      "t": 29756.04399999949,
      "d": 60.975499999985914,
      "v": 100
    },
    {
      "midi": 63,
      "hit": false,
      "t": 29756.04399999949,
      "d": 60.975499999985914,
      "v": 100
    },
    {
      "midi": 36,
      "hit": false,
      "t": 29756.043999999954,
      "d": 243.90199999999822,
      "v": 100
    },
    {
      "midi": 84,
      "hit": false,
      "t": 29756.043999999965,
      "d": 243.90199999999822,
      "v": 100
    },
    {
      "midi": 79,
      "hit": false,
      "t": 29756.043999999965,
      "d": 243.90199999999822,
      "v": 100
    },
    {
      "midi": 75,
      "hit": false,
      "t": 29756.043999999965,
      "d": 243.90199999999822,
      "v": 100
    },
    {
      "midi": 75,
      "hit": false,
      "t": 29756.044000000013,
      "d": 121.95100000000093,
      "v": 100
    },
    {
      "midi": 33,
      "hit": false,
      "t": 29756.04400000003,
      "d": 1.0162583333330986,
      "v": 127
    },
    {
      "midi": 40,
      "hit": false,
      "t": 29756.04400000003,
      "d": 1.0162583333330986,
      "v": 100
    },
    {
      "midi": 46,
      "hit": false,
      "t": 29756.04400000003,
      "d": 1.0162583333330986,
      "v": 100
    },
    {
      "midi": 72,
      "hit": false,
      "t": 29756.04400000005,
      "d": 121.95100000000093,
      "v": 100
    },
    {
      "midi": 67,
      "hit": false,
      "t": 29756.04400000005,
      "d": 121.95100000000093,
      "v": 100
    },
    {
      "midi": 63,
      "hit": false,
      "t": 29756.04400000005,
      "d": 121.95100000000093,
      "v": 100
    },
    {
      "midi": 54,
      "hit": false,
      "t": 29756.044000000064,
      "d": 1.0162583333330986,
      "v": 80
    },
    {
      "midi": 72,
      "hit": false,
      "t": 29877.99499999947,
      "d": 60.975500000000466,
      "v": 100
    },
    {
      "midi": 67,
      "hit": false,
      "t": 29877.99499999947,
      "d": 60.975500000000466,
      "v": 100
    },
    {
      "midi": 63,
      "hit": false,
      "t": 29877.99499999947,
      "d": 60.975500000000466,
      "v": 100
    },
    {
      "midi": 75,
      "hit": false,
      "t": 29877.995000000014,
      "d": 121.95100000000093,
      "v": 100
    },
    {
      "midi": 44,
      "hit": false,
      "t": 29877.99500000003,
      "d": 1.0162583333330986,
      "v": 100
    },
    {
      "midi": 54,
      "hit": false,
      "t": 29877.995000000064,
      "d": 1.0162583333330986,
      "v": 60
    },
    {
      "midi": 72,
      "hit": false,
      "t": 29999.945999999458,
      "d": 60.975500000000466,
      "v": 100
    },
    {
      "midi": 67,
      "hit": false,
      "t": 29999.945999999458,
      "d": 60.975500000000466,
      "v": 100
    },
    {
      "midi": 63,
      "hit": false,
      "t": 29999.945999999458,
      "d": 60.975500000000466,
      "v": 100
    },
    {
      "midi": 36,
      "hit": false,
      "t": 29999.945999999953,
      "d": 71.13808333333509,
      "v": 100
    },
    {
      "midi": 84,
      "hit": false,
      "t": 29999.945999999964,
      "d": 30.487750000000233,
      "v": 100
    },
    {
      "midi": 79,
      "hit": false,
      "t": 29999.945999999964,
      "d": 30.487750000000233,
      "v": 100
    },
    {
      "midi": 82,
      "hit": false,
      "t": 29999.946000000014,
      "d": 121.95100000000093,
      "v": 100
    },
    {
      "midi": 46,
      "hit": false,
      "t": 29999.946000000033,
      "d": 1.0162583333330986,
      "v": 100
    },
    {
      "midi": 72,
      "hit": false,
      "t": 29999.94600000005,
      "d": 121.95100000000093,
      "v": 100
    },
    {
      "midi": 67,
      "hit": false,
      "t": 29999.94600000005,
      "d": 121.95100000000093,
      "v": 100
    },
    {
      "midi": 63,
      "hit": false,
      "t": 29999.94600000005,
      "d": 121.95100000000093,
      "v": 100
    },
    {
      "midi": 54,
      "hit": false,
      "t": 29999.946000000065,
      "d": 1.0162583333330986,
      "v": 60
    },
    {
      "midi": 72,
      "hit": false,
      "t": 30121.89699999946,
      "d": 60.975500000000466,
      "v": 100
    },
    {
      "midi": 67,
      "hit": false,
      "t": 30121.89699999946,
      "d": 60.975500000000466,
      "v": 100
    },
    {
      "midi": 63,
      "hit": false,
      "t": 30121.89699999946,
      "d": 60.975500000000466,
      "v": 100
    },
    {
      "midi": 32,
      "hit": false,
      "t": 30121.896999999954,
      "d": 243.90199999999822,
      "v": 100
    },
    {
      "midi": 84,
      "hit": false,
      "t": 30121.896999999964,
      "d": 243.90199999999822,
      "v": 100
    },
    {
      "midi": 80,
      "hit": false,
      "t": 30121.896999999964,
      "d": 243.90199999999822,
      "v": 100
    },
    {
      "midi": 75,
      "hit": false,
      "t": 30121.896999999964,
      "d": 243.90199999999822,
      "v": 100
    },
    {
      "midi": 82,
      "hit": false,
      "t": 30121.897000000015,
      "d": 121.95100000000093,
      "v": 100
    },
    {
      "midi": 44,
      "hit": false,
      "t": 30121.897000000034,
      "d": 1.0162583333330986,
      "v": 100
    },
    {
      "midi": 54,
      "hit": false,
      "t": 30121.897000000066,
      "d": 1.0162583333330986,
      "v": 60
    },
    {
      "midi": 68,
      "hit": false,
      "t": 30243.84799999946,
      "d": 60.975499999985914,
      "v": 100
    },
    {
      "midi": 63,
      "hit": false,
      "t": 30243.84799999946,
      "d": 60.975499999985914,
      "v": 100
    },
    {
      "midi": 60,
      "hit": false,
      "t": 30243.84799999946,
      "d": 60.975499999985914,
      "v": 100
    },
    {
      "midi": 44,
      "hit": false,
      "t": 30243.848,
      "d": 975.6080000000002,
      "v": 100
    },
    {
      "midi": 51,
      "hit": false,
      "t": 30243.848,
      "d": 975.6080000000002,
      "v": 100
    },
    {
      "midi": 84,
      "hit": false,
      "t": 30243.848000000016,
      "d": 121.95100000000093,
      "v": 100
    },
    {
      "midi": 33,
      "hit": false,
      "t": 30243.848000000035,
      "d": 1.0162583333330986,
      "v": 127
    },
    {
      "midi": 42,
      "hit": false,
      "t": 30243.848000000035,
      "d": 1.0162583333330986,
      "v": 100
    },
    {
      "midi": 68,
      "hit": false,
      "t": 30243.848000000053,
      "d": 121.95100000000093,
      "v": 100
    },
    {
      "midi": 63,
      "hit": false,
      "t": 30243.848000000053,
      "d": 121.95100000000093,
      "v": 100
    },
    {
      "midi": 60,
      "hit": false,
      "t": 30243.848000000053,
      "d": 121.95100000000093,
      "v": 100
    },
    {
      "midi": 54,
      "hit": false,
      "t": 30243.848000000067,
      "d": 1.0162583333330986,
      "v": 80
    },
    {
      "midi": 68,
      "hit": false,
      "t": 30365.798999999442,
      "d": 60.975500000000466,
      "v": 100
    },
    {
      "midi": 63,
      "hit": false,
      "t": 30365.798999999442,
      "d": 60.975500000000466,
      "v": 100
    },
    {
      "midi": 60,
      "hit": false,
      "t": 30365.798999999442,
      "d": 60.975500000000466,
      "v": 100
    },
    {
      "midi": 32,
      "hit": false,
      "t": 30365.79899999995,
      "d": 121.95100000000093,
      "v": 100
    },
    {
      "midi": 84,
      "hit": false,
      "t": 30365.798999999963,
      "d": 121.95100000000093,
      "v": 100
    },
    {
      "midi": 80,
      "hit": false,
      "t": 30365.798999999963,
      "d": 121.95100000000093,
      "v": 100
    },
    {
      "midi": 75,
      "hit": false,
      "t": 30365.798999999963,
      "d": 121.95100000000093,
      "v": 100
    },
    {
      "midi": 84,
      "hit": false,
      "t": 30365.799000000017,
      "d": 121.95100000000093,
      "v": 100
    },
    {
      "midi": 68,
      "hit": false,
      "t": 30365.799000000054,
      "d": 121.95100000000093,
      "v": 100
    },
    {
      "midi": 63,
      "hit": false,
      "t": 30365.799000000054,
      "d": 121.95100000000093,
      "v": 100
    },
    {
      "midi": 60,
      "hit": false,
      "t": 30365.799000000054,
      "d": 121.95100000000093,
      "v": 100
    },
    {
      "midi": 54,
      "hit": false,
      "t": 30365.79900000007,
      "d": 1.0162583333330986,
      "v": 60
    },
    {
      "midi": 68,
      "hit": false,
      "t": 30487.74999999943,
      "d": 60.975500000000466,
      "v": 100
    },
    {
      "midi": 63,
      "hit": false,
      "t": 30487.74999999943,
      "d": 60.975500000000466,
      "v": 100
    },
    {
      "midi": 60,
      "hit": false,
      "t": 30487.74999999943,
      "d": 60.975500000000466,
      "v": 100
    },
    {
      "midi": 32,
      "hit": false,
      "t": 30487.749999999953,
      "d": 243.90199999999822,
      "v": 100
    },
    {
      "midi": 84,
      "hit": false,
      "t": 30487.749999999964,
      "d": 243.90199999999822,
      "v": 100
    },
    {
      "midi": 80,
      "hit": false,
      "t": 30487.749999999964,
      "d": 243.90199999999822,
      "v": 100
    },
    {
      "midi": 75,
      "hit": false,
      "t": 30487.749999999964,
      "d": 243.90199999999822,
      "v": 100
    },
    {
      "midi": 80,
      "hit": false,
      "t": 30487.75000000002,
      "d": 121.95100000000093,
      "v": 100
    },
    {
      "midi": 46,
      "hit": false,
      "t": 30487.750000000033,
      "d": 1.0162583333330986,
      "v": 100
    },
    {
      "midi": 54,
      "hit": false,
      "t": 30487.75000000007,
      "d": 1.0162583333330986,
      "v": 60
    },
    {
      "midi": 68,
      "hit": false,
      "t": 30609.70099999943,
      "d": 60.975500000000466,
      "v": 100
    },
    {
      "midi": 63,
      "hit": false,
      "t": 30609.70099999943,
      "d": 60.975500000000466,
      "v": 100
    },
    {
      "midi": 60,
      "hit": false,
      "t": 30609.70099999943,
      "d": 60.975500000000466,
      "v": 100
    },
    {
      "midi": 80,
      "hit": false,
      "t": 30609.70100000002,
      "d": 121.95100000000093,
      "v": 100
    },
    {
      "midi": 44,
      "hit": false,
      "t": 30609.701000000034,
      "d": 1.0162583333330986,
      "v": 100
    },
    {
      "midi": 68,
      "hit": false,
      "t": 30609.701000000056,
      "d": 121.95100000000093,
      "v": 100
    },
    {
      "midi": 63,
      "hit": false,
      "t": 30609.701000000056,
      "d": 121.95100000000093,
      "v": 100
    },
    {
      "midi": 60,
      "hit": false,
      "t": 30609.701000000056,
      "d": 121.95100000000093,
      "v": 100
    },
    {
      "midi": 54,
      "hit": false,
      "t": 30609.70100000007,
      "d": 1.0162583333330986,
      "v": 60
    },
    {
      "midi": 68,
      "hit": false,
      "t": 30731.65199999943,
      "d": 243.90199999996912,
      "v": 100
    },
    {
      "midi": 63,
      "hit": false,
      "t": 30731.65199999943,
      "d": 243.90199999996912,
      "v": 100
    },
    {
      "midi": 60,
      "hit": false,
      "t": 30731.65199999943,
      "d": 243.90199999996912,
      "v": 100
    },
    {
      "midi": 32,
      "hit": false,
      "t": 30731.65199999995,
      "d": 243.90199999999822,
      "v": 100
    },
    {
      "midi": 84,
      "hit": false,
      "t": 30731.651999999962,
      "d": 243.90199999999822,
      "v": 100
    },
    {
      "midi": 80,
      "hit": false,
      "t": 30731.651999999962,
      "d": 243.90199999999822,
      "v": 100
    },
    {
      "midi": 75,
      "hit": false,
      "t": 30731.651999999962,
      "d": 243.90199999999822,
      "v": 100
    },
    {
      "midi": 75,
      "hit": false,
      "t": 30731.65200000002,
      "d": 121.95100000000093,
      "v": 100
    },
    {
      "midi": 33,
      "hit": false,
      "t": 30731.652000000035,
      "d": 1.0162583333330986,
      "v": 127
    },
    {
      "midi": 40,
      "hit": false,
      "t": 30731.652000000035,
      "d": 1.0162583333330986,
      "v": 100
    },
    {
      "midi": 46,
      "hit": false,
      "t": 30731.652000000035,
      "d": 1.0162583333330986,
      "v": 100
    },
    {
      "midi": 54,
      "hit": false,
      "t": 30731.65200000007,
      "d": 1.0162583333330986,
      "v": 80
    },
    {
      "midi": 75,
      "hit": false,
      "t": 30853.60300000002,
      "d": 121.95100000000093,
      "v": 100
    },
    {
      "midi": 44,
      "hit": false,
      "t": 30853.603000000036,
      "d": 1.0162583333330986,
      "v": 100
    },
    {
      "midi": 54,
      "hit": false,
      "t": 30853.603000000072,
      "d": 1.0162583333330986,
      "v": 60
    },
    {
      "midi": 68,
      "hit": false,
      "t": 30975.5539999994,
      "d": 60.975500000000466,
      "v": 100
    },
    {
      "midi": 63,
      "hit": false,
      "t": 30975.5539999994,
      "d": 60.975500000000466,
      "v": 100
    },
    {
      "midi": 60,
      "hit": false,
      "t": 30975.5539999994,
      "d": 60.975500000000466,
      "v": 100
    },
    {
      "midi": 32,
      "hit": false,
      "t": 30975.55399999995,
      "d": 243.90199999999822,
      "v": 100
    },
    {
      "midi": 84,
      "hit": false,
      "t": 30975.55399999996,
      "d": 243.90199999999822,
      "v": 100
    },
    {
      "midi": 80,
      "hit": false,
      "t": 30975.55399999996,
      "d": 243.90199999999822,
      "v": 100
    },
    {
      "midi": 75,
      "hit": false,
      "t": 30975.55399999996,
      "d": 243.90199999999822,
      "v": 100
    },
    {
      "midi": 72,
      "hit": false,
      "t": 30975.554000000022,
      "d": 121.95100000000093,
      "v": 100
    },
    {
      "midi": 40,
      "hit": false,
      "t": 30975.554000000036,
      "d": 1.0162583333330986,
      "v": 40
    },
    {
      "midi": 46,
      "hit": false,
      "t": 30975.554000000036,
      "d": 1.0162583333330986,
      "v": 100
    },
    {
      "midi": 54,
      "hit": false,
      "t": 30975.554000000073,
      "d": 1.0162583333330986,
      "v": 60
    },
    {
      "midi": 68,
      "hit": false,
      "t": 31097.5049999994,
      "d": 60.975500000000466,
      "v": 100
    },
    {
      "midi": 63,
      "hit": false,
      "t": 31097.5049999994,
      "d": 60.975500000000466,
      "v": 100
    },
    {
      "midi": 60,
      "hit": false,
      "t": 31097.5049999994,
      "d": 60.975500000000466,
      "v": 100
    },
    {
      "midi": 72,
      "hit": false,
      "t": 31097.505000000023,
      "d": 121.95100000000093,
      "v": 100
    },
    {
      "midi": 40,
      "hit": false,
      "t": 31097.505000000037,
      "d": 1.0162583333330986,
      "v": 100
    },
    {
      "midi": 44,
      "hit": false,
      "t": 31097.505000000037,
      "d": 1.0162583333330986,
      "v": 100
    },
    {
      "midi": 54,
      "hit": false,
      "t": 31097.505000000074,
      "d": 1.0162583333330986,
      "v": 60
    },
    {
      "midi": 70,
      "hit": false,
      "t": 31219.4559999994,
      "d": 487.80399999996735,
      "v": 100
    },
    {
      "midi": 65,
      "hit": false,
      "t": 31219.4559999994,
      "d": 487.80399999996735,
      "v": 100
    },
    {
      "midi": 62,
      "hit": false,
      "t": 31219.4559999994,
      "d": 487.80399999996735,
      "v": 100
    },
    {
      "midi": 34,
      "hit": false,
      "t": 31219.455999999947,
      "d": 243.90199999999822,
      "v": 100
    },
    {
      "midi": 86,
      "hit": false,
      "t": 31219.45599999996,
      "d": 243.90199999999822,
      "v": 100
    },
    {
      "midi": 82,
      "hit": false,
      "t": 31219.45599999996,
      "d": 243.90199999999822,
      "v": 100
    },
    {
      "midi": 77,
      "hit": false,
      "t": 31219.45599999996,
      "d": 243.90199999999822,
      "v": 100
    },
    {
      "midi": 46,
      "hit": false,
      "t": 31219.456000000002,
      "d": 975.6080000000002,
      "v": 100
    },
    {
      "midi": 53,
      "hit": false,
      "t": 31219.456000000002,
      "d": 975.6080000000002,
      "v": 100
    },
    {
      "midi": 70,
      "hit": false,
      "t": 31219.456000000024,
      "d": 121.95100000000093,
      "v": 100
    },
    {
      "midi": 33,
      "hit": false,
      "t": 31219.45600000004,
      "d": 1.0162583333330986,
      "v": 127
    },
    {
      "midi": 42,
      "hit": false,
      "t": 31219.45600000004,
      "d": 1.0162583333330986,
      "v": 100
    },
    {
      "midi": 54,
      "hit": false,
      "t": 31219.456000000075,
      "d": 1.0162583333330986,
      "v": 80
    },
    {
      "midi": 70,
      "hit": false,
      "t": 31341.407000000025,
      "d": 121.95100000000093,
      "v": 100
    },
    {
      "midi": 70,
      "hit": false,
      "t": 31341.407000000057,
      "d": 121.95100000000093,
      "v": 100
    },
    {
      "midi": 65,
      "hit": false,
      "t": 31341.407000000057,
      "d": 121.95100000000093,
      "v": 100
    },
    {
      "midi": 62,
      "hit": false,
      "t": 31341.407000000057,
      "d": 121.95100000000093,
      "v": 100
    },
    {
      "midi": 54,
      "hit": false,
      "t": 31341.407000000076,
      "d": 1.0162583333330986,
      "v": 60
    },
    {
      "midi": 34,
      "hit": false,
      "t": 31463.357999999946,
      "d": 243.90199999999822,
      "v": 100
    },
    {
      "midi": 74,
      "hit": false,
      "t": 31463.358000000026,
      "d": 121.95100000000093,
      "v": 100
    },
    {
      "midi": 46,
      "hit": false,
      "t": 31463.358000000037,
      "d": 1.0162583333330986,
      "v": 100
    },
    {
      "midi": 70,
      "hit": false,
      "t": 31463.35800000006,
      "d": 121.95100000000093,
      "v": 100
    },
    {
      "midi": 65,
      "hit": false,
      "t": 31463.35800000006,
      "d": 121.95100000000093,
      "v": 100
    },
    {
      "midi": 62,
      "hit": false,
      "t": 31463.35800000006,
      "d": 121.95100000000093,
      "v": 100
    },
    {
      "midi": 54,
      "hit": false,
      "t": 31463.358000000077,
      "d": 1.0162583333330986,
      "v": 60
    },
    {
      "midi": 74,
      "hit": false,
      "t": 31585.309000000027,
      "d": 121.95100000000093,
      "v": 100
    },
    {
      "midi": 44,
      "hit": false,
      "t": 31585.309000000037,
      "d": 1.0162583333330986,
      "v": 100
    },
    {
      "midi": 54,
      "hit": false,
      "t": 31585.309000000078,
      "d": 1.0162583333330986,
      "v": 60
    },
    {
      "midi": 70,
      "hit": false,
      "t": 31707.25999999937,
      "d": 60.975499999985914,
      "v": 100
    },
    {
      "midi": 65,
      "hit": false,
      "t": 31707.25999999937,
      "d": 60.975499999985914,
      "v": 100
    },
    {
      "midi": 62,
      "hit": false,
      "t": 31707.25999999937,
      "d": 60.975499999985914,
      "v": 100
    },
    {
      "midi": 34,
      "hit": false,
      "t": 31707.259999999944,
      "d": 243.90199999999822,
      "v": 100
    },
    {
      "midi": 82,
      "hit": false,
      "t": 31707.259999999955,
      "d": 243.90199999999822,
      "v": 100
    },
    {
      "midi": 77,
      "hit": false,
      "t": 31707.259999999955,
      "d": 243.90199999999822,
      "v": 100
    },
    {
      "midi": 70,
      "hit": false,
      "t": 31707.260000000028,
      "d": 121.95100000000093,
      "v": 100
    },
    {
      "midi": 33,
      "hit": false,
      "t": 31707.26000000004,
      "d": 1.0162583333330986,
      "v": 127
    },
    {
      "midi": 40,
      "hit": false,
      "t": 31707.26000000004,
      "d": 1.0162583333330986,
      "v": 100
    },
    {
      "midi": 46,
      "hit": false,
      "t": 31707.26000000004,
      "d": 1.0162583333330986,
      "v": 100
    },
    {
      "midi": 70,
      "hit": false,
      "t": 31707.26000000006,
      "d": 121.95100000000093,
      "v": 100
    },
    {
      "midi": 65,
      "hit": false,
      "t": 31707.26000000006,
      "d": 121.95100000000093,
      "v": 100
    },
    {
      "midi": 62,
      "hit": false,
      "t": 31707.26000000006,
      "d": 121.95100000000093,
      "v": 100
    },
    {
      "midi": 54,
      "hit": false,
      "t": 31707.26000000008,
      "d": 1.0162583333330986,
      "v": 80
    },
    {
      "midi": 70,
      "hit": false,
      "t": 31829.21099999935,
      "d": 60.975500000000466,
      "v": 100
    },
    {
      "midi": 65,
      "hit": false,
      "t": 31829.21099999935,
      "d": 60.975500000000466,
      "v": 100
    },
    {
      "midi": 62,
      "hit": false,
      "t": 31829.21099999935,
      "d": 60.975500000000466,
      "v": 100
    },
    {
      "midi": 70,
      "hit": false,
      "t": 31829.21100000003,
      "d": 121.95100000000093,
      "v": 100
    },
    {
      "midi": 44,
      "hit": false,
      "t": 31829.21100000004,
      "d": 1.0162583333330986,
      "v": 100
    },
    {
      "midi": 54,
      "hit": false,
      "t": 31829.21100000008,
      "d": 1.0162583333330986,
      "v": 60
    },
    {
      "midi": 70,
      "hit": false,
      "t": 31951.161999999338,
      "d": 60.975500000000466,
      "v": 100
    },
    {
      "midi": 65,
      "hit": false,
      "t": 31951.161999999338,
      "d": 60.975500000000466,
      "v": 100
    },
    {
      "midi": 62,
      "hit": false,
      "t": 31951.161999999338,
      "d": 60.975500000000466,
      "v": 100
    },
    {
      "midi": 34,
      "hit": false,
      "t": 31951.161999999942,
      "d": 71.13808333333509,
      "v": 100
    },
    {
      "midi": 77,
      "hit": false,
      "t": 31951.161999999953,
      "d": 40.650333333334856,
      "v": 100
    },
    {
      "midi": 82,
      "hit": false,
      "t": 31951.161999999953,
      "d": 40.650333333334856,
      "v": 100
    },
    {
      "midi": 79,
      "hit": false,
      "t": 31951.16200000003,
      "d": 121.95100000000093,
      "v": 100
    },
    {
      "midi": 46,
      "hit": false,
      "t": 31951.16200000004,
      "d": 1.0162583333330986,
      "v": 100
    },
    {
      "midi": 70,
      "hit": false,
      "t": 31951.162000000062,
      "d": 121.95100000000093,
      "v": 100
    },
    {
      "midi": 65,
      "hit": false,
      "t": 31951.162000000062,
      "d": 121.95100000000093,
      "v": 100
    },
    {
      "midi": 62,
      "hit": false,
      "t": 31951.162000000062,
      "d": 121.95100000000093,
      "v": 100
    },
    {
      "midi": 54,
      "hit": false,
      "t": 31951.16200000008,
      "d": 1.0162583333330986,
      "v": 60
    },
    {
      "midi": 70,
      "hit": false,
      "t": 32073.11299999934,
      "d": 60.975500000000466,
      "v": 100
    },
    {
      "midi": 65,
      "hit": false,
      "t": 32073.11299999934,
      "d": 60.975500000000466,
      "v": 100
    },
    {
      "midi": 62,
      "hit": false,
      "t": 32073.11299999934,
      "d": 60.975500000000466,
      "v": 100
    },
    {
      "midi": 31,
      "hit": false,
      "t": 32073.112999999943,
      "d": 243.90199999999822,
      "v": 100
    },
    {
      "midi": 82,
      "hit": false,
      "t": 32073.112999999954,
      "d": 243.90199999999822,
      "v": 100
    },
    {
      "midi": 77,
      "hit": false,
      "t": 32073.112999999954,
      "d": 243.90199999999822,
      "v": 100
    },
    {
      "midi": 74,
      "hit": false,
      "t": 32073.112999999954,
      "d": 325.2026666666643,
      "v": 100
    },
    {
      "midi": 79,
      "hit": false,
      "t": 32073.11300000003,
      "d": 121.95100000000093,
      "v": 100
    },
    {
      "midi": 44,
      "hit": false,
      "t": 32073.11300000004,
      "d": 1.0162583333330986,
      "v": 100
    },
    {
      "midi": 40,
      "hit": false,
      "t": 32073.11300000004,
      "d": 1.0162583333330986,
      "v": 100
    },
    {
      "midi": 54,
      "hit": false,
      "t": 32073.11300000008,
      "d": 1.0162583333330986,
      "v": 60
    },
    {
      "midi": 67,
      "hit": false,
      "t": 32195.06399999934,
      "d": 60.975499999985914,
      "v": 100
    },
    {
      "midi": 62,
      "hit": false,
      "t": 32195.06399999934,
      "d": 60.975499999985914,
      "v": 100
    },
    {
      "midi": 58,
      "hit": false,
      "t": 32195.06399999934,
      "d": 60.975499999985914,
      "v": 100
    },
    {
      "midi": 50,
      "hit": false,
      "t": 32195.064000000002,
      "d": 975.6079999999965,
      "v": 100
    },
    {
      "midi": 43,
      "hit": false,
      "t": 32195.064000000002,
      "d": 975.6079999999965,
      "v": 100
    },
    {
      "midi": 79,
      "hit": false,
      "t": 32195.06400000003,
      "d": 121.95100000000093,
      "v": 100
    },
    {
      "midi": 33,
      "hit": false,
      "t": 32195.064000000042,
      "d": 1.0162583333330986,
      "v": 127
    },
    {
      "midi": 42,
      "hit": false,
      "t": 32195.064000000042,
      "d": 1.0162583333330986,
      "v": 100
    },
    {
      "midi": 67,
      "hit": false,
      "t": 32195.064000000064,
      "d": 121.95100000000093,
      "v": 100
    },
    {
      "midi": 63,
      "hit": false,
      "t": 32195.064000000064,
      "d": 121.95100000000093,
      "v": 100
    },
    {
      "midi": 58,
      "hit": false,
      "t": 32195.064000000064,
      "d": 121.95100000000093,
      "v": 100
    },
    {
      "midi": 54,
      "hit": false,
      "t": 32195.064000000082,
      "d": 1.0162583333330986,
      "v": 80
    },
    {
      "midi": 67,
      "hit": false,
      "t": 32317.014999999323,
      "d": 60.975500000000466,
      "v": 100
    },
    {
      "midi": 62,
      "hit": false,
      "t": 32317.014999999323,
      "d": 60.975500000000466,
      "v": 100
    },
    {
      "midi": 58,
      "hit": false,
      "t": 32317.014999999323,
      "d": 60.975500000000466,
      "v": 100
    },
    {
      "midi": 31,
      "hit": false,
      "t": 32317.01499999994,
      "d": 121.95100000000093,
      "v": 100
    },
    {
      "midi": 79,
      "hit": false,
      "t": 32317.015000000032,
      "d": 121.95100000000093,
      "v": 100
    },
    {
      "midi": 40,
      "hit": false,
      "t": 32317.015000000043,
      "d": 1.0162583333330986,
      "v": 100
    },
    {
      "midi": 67,
      "hit": false,
      "t": 32317.015000000065,
      "d": 121.95100000000093,
      "v": 100
    },
    {
      "midi": 63,
      "hit": false,
      "t": 32317.015000000065,
      "d": 121.95100000000093,
      "v": 100
    },
    {
      "midi": 58,
      "hit": false,
      "t": 32317.015000000065,
      "d": 121.95100000000093,
      "v": 100
    },
    {
      "midi": 54,
      "hit": false,
      "t": 32317.015000000083,
      "d": 1.0162583333330986,
      "v": 60
    },
    {
      "midi": 67,
      "hit": false,
      "t": 32438.96599999931,
      "d": 60.975500000000466,
      "v": 100
    },
    {
      "midi": 62,
      "hit": false,
      "t": 32438.96599999931,
      "d": 60.975500000000466,
      "v": 100
    },
    {
      "midi": 58,
      "hit": false,
      "t": 32438.96599999931,
      "d": 60.975500000000466,
      "v": 100
    },
    {
      "midi": 31,
      "hit": false,
      "t": 32438.965999999942,
      "d": 243.90199999999822,
      "v": 100
    },
    {
      "midi": 74,
      "hit": false,
      "t": 32438.965999999953,
      "d": 243.90199999999822,
      "v": 100
    },
    {
      "midi": 82,
      "hit": false,
      "t": 32438.965999999953,
      "d": 243.90199999999822,
      "v": 100
    },
    {
      "midi": 77,
      "hit": false,
      "t": 32438.965999999953,
      "d": 243.90199999999822,
      "v": 100
    },
    {
      "midi": 79,
      "hit": false,
      "t": 32438.966000000033,
      "d": 121.95100000000093,
      "v": 100
    },
    {
      "midi": 46,
      "hit": false,
      "t": 32438.966000000044,
      "d": 1.0162583333330986,
      "v": 100
    },
    {
      "midi": 54,
      "hit": false,
      "t": 32438.966000000084,
      "d": 1.0162583333330986,
      "v": 60
    },
    {
      "midi": 67,
      "hit": false,
      "t": 32560.91699999931,
      "d": 60.975500000000466,
      "v": 100
    },
    {
      "midi": 62,
      "hit": false,
      "t": 32560.91699999931,
      "d": 60.975500000000466,
      "v": 100
    },
    {
      "midi": 58,
      "hit": false,
      "t": 32560.91699999931,
      "d": 60.975500000000466,
      "v": 100
    },
    {
      "midi": 79,
      "hit": false,
      "t": 32560.917000000034,
      "d": 121.95100000000093,
      "v": 100
    },
    {
      "midi": 44,
      "hit": false,
      "t": 32560.917000000045,
      "d": 1.0162583333330986,
      "v": 100
    },
    {
      "midi": 67,
      "hit": false,
      "t": 32560.917000000067,
      "d": 121.95100000000093,
      "v": 100
    },
    {
      "midi": 63,
      "hit": false,
      "t": 32560.917000000067,
      "d": 121.95100000000093,
      "v": 100
    },
    {
      "midi": 58,
      "hit": false,
      "t": 32560.917000000067,
      "d": 121.95100000000093,
      "v": 100
    },
    {
      "midi": 54,
      "hit": false,
      "t": 32560.917000000085,
      "d": 1.0162583333330986,
      "v": 60
    },
    {
      "midi": 67,
      "hit": false,
      "t": 32682.86799999931,
      "d": 243.9019999999582,
      "v": 100
    },
    {
      "midi": 62,
      "hit": false,
      "t": 32682.86799999931,
      "d": 243.9019999999582,
      "v": 100
    },
    {
      "midi": 58,
      "hit": false,
      "t": 32682.86799999931,
      "d": 243.9019999999582,
      "v": 100
    },
    {
      "midi": 31,
      "hit": false,
      "t": 32682.86799999994,
      "d": 243.90199999999822,
      "v": 100
    },
    {
      "midi": 74,
      "hit": false,
      "t": 32682.86799999995,
      "d": 243.90200000000186,
      "v": 100
    },
    {
      "midi": 79,
      "hit": false,
      "t": 32682.86799999995,
      "d": 243.90200000000186,
      "v": 100
    },
    {
      "midi": 77,
      "hit": false,
      "t": 32682.86799999995,
      "d": 243.90200000000186,
      "v": 100
    },
    {
      "midi": 74,
      "hit": false,
      "t": 32682.868000000035,
      "d": 121.9509999999973,
      "v": 100
    },
    {
      "midi": 33,
      "hit": false,
      "t": 32682.868000000046,
      "d": 1.0162583333330986,
      "v": 127
    },
    {
      "midi": 40,
      "hit": false,
      "t": 32682.868000000046,
      "d": 1.0162583333330986,
      "v": 100
    },
    {
      "midi": 46,
      "hit": false,
      "t": 32682.868000000046,
      "d": 1.0162583333330986,
      "v": 100
    },
    {
      "midi": 54,
      "hit": false,
      "t": 32682.868000000086,
      "d": 1.0162583333330986,
      "v": 80
    },
    {
      "midi": 74,
      "hit": false,
      "t": 32804.81900000003,
      "d": 121.95100000000093,
      "v": 100
    },
    {
      "midi": 44,
      "hit": false,
      "t": 32804.81900000005,
      "d": 1.0162583333367365,
      "v": 100
    },
    {
      "midi": 54,
      "hit": false,
      "t": 32804.81900000008,
      "d": 1.0162583333367365,
      "v": 60
    },
    {
      "midi": 67,
      "hit": false,
      "t": 32926.76999999927,
      "d": 60.975500000000466,
      "v": 100
    },
    {
      "midi": 62,
      "hit": false,
      "t": 32926.76999999927,
      "d": 60.975500000000466,
      "v": 100
    },
    {
      "midi": 58,
      "hit": false,
      "t": 32926.76999999927,
      "d": 60.975500000000466,
      "v": 100
    },
    {
      "midi": 31,
      "hit": false,
      "t": 32926.76999999994,
      "d": 243.90200000000186,
      "v": 100
    },
    {
      "midi": 74,
      "hit": false,
      "t": 32926.76999999995,
      "d": 243.90200000000186,
      "v": 100
    },
    {
      "midi": 82,
      "hit": false,
      "t": 32926.76999999995,
      "d": 243.90200000000186,
      "v": 100
    },
    {
      "midi": 77,
      "hit": false,
      "t": 32926.76999999995,
      "d": 243.90200000000186,
      "v": 100
    },
    {
      "midi": 79,
      "hit": false,
      "t": 32926.77000000003,
      "d": 121.95100000000093,
      "v": 100
    },
    {
      "midi": 40,
      "hit": false,
      "t": 32926.77000000005,
      "d": 1.0162583333367365,
      "v": 40
    },
    {
      "midi": 46,
      "hit": false,
      "t": 32926.77000000005,
      "d": 1.0162583333367365,
      "v": 100
    },
    {
      "midi": 54,
      "hit": false,
      "t": 32926.770000000084,
      "d": 1.0162583333367365,
      "v": 60
    },
    {
      "midi": 67,
      "hit": false,
      "t": 33048.72099999927,
      "d": 60.975500000000466,
      "v": 100
    },
    {
      "midi": 62,
      "hit": false,
      "t": 33048.72099999927,
      "d": 60.975500000000466,
      "v": 100
    },
    {
      "midi": 58,
      "hit": false,
      "t": 33048.72099999927,
      "d": 60.975500000000466,
      "v": 100
    },
    {
      "midi": 79,
      "hit": false,
      "t": 33048.721000000034,
      "d": 121.95100000000093,
      "v": 100
    },
    {
      "midi": 40,
      "hit": false,
      "t": 33048.72100000005,
      "d": 1.0162583333367365,
      "v": 100
    },
    {
      "midi": 44,
      "hit": false,
      "t": 33048.72100000005,
      "d": 1.0162583333367365,
      "v": 100
    },
    {
      "midi": 54,
      "hit": false,
      "t": 33048.721000000085,
      "d": 1.0162583333367365,
      "v": 60
    },
    {
      "midi": 68,
      "hit": false,
      "t": 33170.67199999927,
      "d": 487.80399999993824,
      "v": 100
    },
    {
      "midi": 63,
      "hit": false,
      "t": 33170.67199999927,
      "d": 487.80399999993824,
      "v": 100
    },
    {
      "midi": 60,
      "hit": false,
      "t": 33170.67199999927,
      "d": 487.80399999993824,
      "v": 100
    },
    {
      "midi": 29,
      "hit": false,
      "t": 33170.67199999994,
      "d": 243.90200000000186,
      "v": 100
    },
    {
      "midi": 80,
      "hit": false,
      "t": 33170.671999999955,
      "d": 243.90200000000186,
      "v": 100
    },
    {
      "midi": 75,
      "hit": false,
      "t": 33170.671999999955,
      "d": 243.90200000000186,
      "v": 100
    },
    {
      "midi": 72,
      "hit": false,
      "t": 33170.671999999955,
      "d": 243.90200000000186,
      "v": 100
    },
    {
      "midi": 41,
      "hit": false,
      "t": 33170.672,
      "d": 975.6080000000002,
      "v": 100
    },
    {
      "midi": 48,
      "hit": false,
      "t": 33170.672,
      "d": 975.6080000000002,
      "v": 100
    },
    {
      "midi": 65,
      "hit": false,
      "t": 33170.672000000035,
      "d": 121.95100000000093,
      "v": 100
    },
    {
      "midi": 33,
      "hit": false,
      "t": 33170.67200000005,
      "d": 1.0162583333367365,
      "v": 127
    },
    {
      "midi": 42,
      "hit": false,
      "t": 33170.67200000005,
      "d": 1.0162583333367365,
      "v": 100
    },
    {
      "midi": 54,
      "hit": false,
      "t": 33170.672000000086,
      "d": 1.0162583333367365,
      "v": 80
    },
    {
      "midi": 58,
      "hit": false,
      "t": 33292.623000000036,
      "d": 121.95100000000093,
      "v": 100
    },
    {
      "midi": 60,
      "hit": false,
      "t": 33292.623000000065,
      "d": 121.95100000000093,
      "v": 100
    },
    {
      "midi": 63,
      "hit": false,
      "t": 33292.623000000065,
      "d": 121.95100000000093,
      "v": 100
    },
    {
      "midi": 68,
      "hit": false,
      "t": 33292.623000000065,
      "d": 121.95100000000093,
      "v": 100
    },
    {
      "midi": 54,
      "hit": false,
      "t": 33292.62300000009,
      "d": 1.0162583333367365,
      "v": 60
    },
    {
      "midi": 29,
      "hit": false,
      "t": 33414.57399999994,
      "d": 243.90200000000186,
      "v": 100
    },
    {
      "midi": 65,
      "hit": false,
      "t": 33414.57400000004,
      "d": 121.95100000000093,
      "v": 100
    },
    {
      "midi": 46,
      "hit": false,
      "t": 33414.57400000005,
      "d": 1.0162583333367365,
      "v": 100
    },
    {
      "midi": 68,
      "hit": false,
      "t": 33414.574000000066,
      "d": 121.95100000000093,
      "v": 100
    },
    {
      "midi": 63,
      "hit": false,
      "t": 33414.574000000066,
      "d": 121.95100000000093,
      "v": 100
    },
    {
      "midi": 60,
      "hit": false,
      "t": 33414.574000000066,
      "d": 121.95100000000093,
      "v": 100
    },
    {
      "midi": 54,
      "hit": false,
      "t": 33414.57400000009,
      "d": 1.0162583333367365,
      "v": 60
    },
    {
      "midi": 70,
      "hit": false,
      "t": 33536.52500000004,
      "d": 121.95100000000093,
      "v": 100
    },
    {
      "midi": 44,
      "hit": false,
      "t": 33536.52500000005,
      "d": 1.0162583333367365,
      "v": 100
    },
    {
      "midi": 54,
      "hit": false,
      "t": 33536.52500000009,
      "d": 1.0162583333367365,
      "v": 60
    },
    {
      "midi": 68,
      "hit": false,
      "t": 33658.47599999921,
      "d": 60.975499999985914,
      "v": 100
    },
    {
      "midi": 63,
      "hit": false,
      "t": 33658.47599999921,
      "d": 60.975499999985914,
      "v": 100
    },
    {
      "midi": 60,
      "hit": false,
      "t": 33658.47599999921,
      "d": 60.975499999985914,
      "v": 100
    },
    {
      "midi": 29,
      "hit": false,
      "t": 33658.475999999944,
      "d": 243.90200000000186,
      "v": 100
    },
    {
      "midi": 80,
      "hit": false,
      "t": 33658.47599999996,
      "d": 243.90200000000186,
      "v": 100
    },
    {
      "midi": 75,
      "hit": false,
      "t": 33658.47599999996,
      "d": 243.90200000000186,
      "v": 100
    },
    {
      "midi": 72,
      "hit": false,
      "t": 33658.47599999996,
      "d": 243.90200000000186,
      "v": 100
    },
    {
      "midi": 65,
      "hit": false,
      "t": 33658.47600000004,
      "d": 121.95100000000093,
      "v": 100
    },
    {
      "midi": 33,
      "hit": false,
      "t": 33658.47600000005,
      "d": 1.0162583333367365,
      "v": 127
    },
    {
      "midi": 46,
      "hit": false,
      "t": 33658.47600000005,
      "d": 1.0162583333367365,
      "v": 100
    },
    {
      "midi": 40,
      "hit": false,
      "t": 33658.47600000005,
      "d": 1.0162583333367365,
      "v": 100
    },
    {
      "midi": 68,
      "hit": false,
      "t": 33658.47600000007,
      "d": 121.95100000000093,
      "v": 100
    },
    {
      "midi": 63,
      "hit": false,
      "t": 33658.47600000007,
      "d": 121.95100000000093,
      "v": 100
    },
    {
      "midi": 60,
      "hit": false,
      "t": 33658.47600000007,
      "d": 121.95100000000093,
      "v": 100
    },
    {
      "midi": 54,
      "hit": false,
      "t": 33658.47600000009,
      "d": 1.0162583333367365,
      "v": 80
    },
    {
      "midi": 68,
      "hit": false,
      "t": 33780.42699999919,
      "d": 60.97549999999319,
      "v": 100
    },
    {
      "midi": 63,
      "hit": false,
      "t": 33780.42699999919,
      "d": 60.97549999999319,
      "v": 100
    },
    {
      "midi": 60,
      "hit": false,
      "t": 33780.42699999919,
      "d": 60.97549999999319,
      "v": 100
    },
    {
      "midi": 70,
      "hit": false,
      "t": 33780.42700000004,
      "d": 121.95100000000093,
      "v": 100
    },
    {
      "midi": 44,
      "hit": false,
      "t": 33780.427000000054,
      "d": 1.0162583333367365,
      "v": 100
    },
    {
      "midi": 54,
      "hit": false,
      "t": 33780.42700000009,
      "d": 1.0162583333367365,
      "v": 60
    },
    {
      "midi": 68,
      "hit": false,
      "t": 33902.37799999917,
      "d": 60.975500000000466,
      "v": 100
    },
    {
      "midi": 63,
      "hit": false,
      "t": 33902.37799999917,
      "d": 60.975500000000466,
      "v": 100
    },
    {
      "midi": 60,
      "hit": false,
      "t": 33902.37799999917,
      "d": 60.975500000000466,
      "v": 100
    },
    {
      "midi": 29,
      "hit": false,
      "t": 33902.377999999946,
      "d": 71.13808333333145,
      "v": 100
    },
    {
      "midi": 77,
      "hit": false,
      "t": 33902.37800000004,
      "d": 121.95100000000093,
      "v": 100
    },
    {
      "midi": 46,
      "hit": false,
      "t": 33902.378000000055,
      "d": 1.0162583333367365,
      "v": 100
    },
    {
      "midi": 68,
      "hit": false,
      "t": 33902.37800000007,
      "d": 121.95100000000093,
      "v": 100
    },
    {
      "midi": 63,
      "hit": false,
      "t": 33902.37800000007,
      "d": 121.95100000000093,
      "v": 100
    },
    {
      "midi": 60,
      "hit": false,
      "t": 33902.37800000007,
      "d": 121.95100000000093,
      "v": 100
    },
    {
      "midi": 54,
      "hit": false,
      "t": 33902.37800000009,
      "d": 1.0162583333367365,
      "v": 60
    },
    {
      "midi": 68,
      "hit": false,
      "t": 34024.32899999917,
      "d": 60.975500000000466,
      "v": 100
    },
    {
      "midi": 63,
      "hit": false,
      "t": 34024.32899999917,
      "d": 60.975500000000466,
      "v": 100
    },
    {
      "midi": 60,
      "hit": false,
      "t": 34024.32899999917,
      "d": 60.975500000000466,
      "v": 100
    },
    {
      "midi": 34,
      "hit": false,
      "t": 34024.32899999995,
      "d": 243.90200000000186,
      "v": 100
    },
    {
      "midi": 82,
      "hit": false,
      "t": 34024.32899999996,
      "d": 365.8530000000028,
      "v": 100
    },
    {
      "midi": 77,
      "hit": false,
      "t": 34024.32899999996,
      "d": 365.8530000000028,
      "v": 100
    },
    {
      "midi": 74,
      "hit": false,
      "t": 34024.32899999996,
      "d": 365.8530000000028,
      "v": 100
    },
    {
      "midi": 82,
      "hit": false,
      "t": 34024.32900000004,
      "d": 121.95100000000093,
      "v": 100
    },
    {
      "midi": 44,
      "hit": false,
      "t": 34024.329000000056,
      "d": 1.0162583333367365,
      "v": 100
    },
    {
      "midi": 54,
      "hit": false,
      "t": 34024.32900000009,
      "d": 1.0162583333367365,
      "v": 60
    },
    {
      "midi": 70,
      "hit": false,
      "t": 34146.27999999917,
      "d": 60.975499999985914,
      "v": 100
    },
    {
      "midi": 65,
      "hit": false,
      "t": 34146.27999999917,
      "d": 60.975499999985914,
      "v": 100
    },
    {
      "midi": 62,
      "hit": false,
      "t": 34146.27999999917,
      "d": 60.975499999985914,
      "v": 100
    },
    {
      "midi": 46,
      "hit": false,
      "t": 34146.28,
      "d": 975.6080000000002,
      "v": 100
    },
    {
      "midi": 53,
      "hit": false,
      "t": 34146.28,
      "d": 975.6080000000002,
      "v": 100
    },
    {
      "midi": 82,
      "hit": false,
      "t": 34146.28000000004,
      "d": 121.95100000000093,
      "v": 100
    },
    {
      "midi": 33,
      "hit": false,
      "t": 34146.28000000006,
      "d": 1.0162583333367365,
      "v": 127
    },
    {
      "midi": 42,
      "hit": false,
      "t": 34146.28000000006,
      "d": 1.0162583333367365,
      "v": 100
    },
    {
      "midi": 70,
      "hit": false,
      "t": 34146.28000000007,
      "d": 121.95100000000093,
      "v": 100
    },
    {
      "midi": 65,
      "hit": false,
      "t": 34146.28000000007,
      "d": 121.95100000000093,
      "v": 100
    },
    {
      "midi": 62,
      "hit": false,
      "t": 34146.28000000007,
      "d": 121.95100000000093,
      "v": 100
    },
    {
      "midi": 54,
      "hit": false,
      "t": 34146.28000000009,
      "d": 1.0162583333367365,
      "v": 80
    },
    {
      "midi": 70,
      "hit": false,
      "t": 34268.23099999915,
      "d": 60.97549999999319,
      "v": 100
    },
    {
      "midi": 65,
      "hit": false,
      "t": 34268.23099999915,
      "d": 60.97549999999319,
      "v": 100
    },
    {
      "midi": 62,
      "hit": false,
      "t": 34268.23099999915,
      "d": 60.97549999999319,
      "v": 100
    },
    {
      "midi": 34,
      "hit": false,
      "t": 34268.23099999995,
      "d": 121.95100000000093,
      "v": 100
    },
    {
      "midi": 82,
      "hit": false,
      "t": 34268.23100000004,
      "d": 121.95100000000093,
      "v": 100
    },
    {
      "midi": 70,
      "hit": false,
      "t": 34268.23100000007,
      "d": 121.95100000000093,
      "v": 100
    },
    {
      "midi": 65,
      "hit": false,
      "t": 34268.23100000007,
      "d": 121.95100000000093,
      "v": 100
    },
    {
      "midi": 62,
      "hit": false,
      "t": 34268.23100000007,
      "d": 121.95100000000093,
      "v": 100
    },
    {
      "midi": 54,
      "hit": false,
      "t": 34268.231000000094,
      "d": 1.0162583333367365,
      "v": 60
    },
    {
      "midi": 70,
      "hit": false,
      "t": 34390.18199999913,
      "d": 60.975500000000466,
      "v": 100
    },
    {
      "midi": 65,
      "hit": false,
      "t": 34390.18199999913,
      "d": 60.975500000000466,
      "v": 100
    },
    {
      "midi": 62,
      "hit": false,
      "t": 34390.18199999913,
      "d": 60.975500000000466,
      "v": 100
    },
    {
      "midi": 34,
      "hit": false,
      "t": 34390.18199999995,
      "d": 243.90200000000186,
      "v": 100
    },
    {
      "midi": 82,
      "hit": false,
      "t": 34390.181999999964,
      "d": 243.90200000000186,
      "v": 100
    },
    {
      "midi": 77,
      "hit": false,
      "t": 34390.181999999964,
      "d": 243.90200000000186,
      "v": 100
    },
    {
      "midi": 74,
      "hit": false,
      "t": 34390.181999999964,
      "d": 243.90200000000186,
      "v": 100
    },
    {
      "midi": 82,
      "hit": false,
      "t": 34390.182000000044,
      "d": 121.95100000000093,
      "v": 100
    },
    {
      "midi": 46,
      "hit": false,
      "t": 34390.18200000006,
      "d": 1.0162583333367365,
      "v": 100
    },
    {
      "midi": 54,
      "hit": false,
      "t": 34390.182000000095,
      "d": 1.0162583333367365,
      "v": 60
    },
    {
      "midi": 70,
      "hit": false,
      "t": 34512.13299999913,
      "d": 60.975500000000466,
      "v": 100
    },
    {
      "midi": 65,
      "hit": false,
      "t": 34512.13299999913,
      "d": 60.975500000000466,
      "v": 100
    },
    {
      "midi": 62,
      "hit": false,
      "t": 34512.13299999913,
      "d": 60.975500000000466,
      "v": 100
    },
    {
      "midi": 82,
      "hit": false,
      "t": 34512.133000000045,
      "d": 121.95100000000093,
      "v": 100
    },
    {
      "midi": 44,
      "hit": false,
      "t": 34512.13300000006,
      "d": 1.0162583333367365,
      "v": 100
    },
    {
      "midi": 70,
      "hit": false,
      "t": 34512.133000000074,
      "d": 121.95100000000093,
      "v": 100
    },
    {
      "midi": 65,
      "hit": false,
      "t": 34512.133000000074,
      "d": 121.95100000000093,
      "v": 100
    },
    {
      "midi": 62,
      "hit": false,
      "t": 34512.133000000074,
      "d": 121.95100000000093,
      "v": 100
    },
    {
      "midi": 54,
      "hit": false,
      "t": 34512.133000000096,
      "d": 1.0162583333367365,
      "v": 60
    },
    {
      "midi": 70,
      "hit": false,
      "t": 34634.08399999913,
      "d": 243.9019999999582,
      "v": 100
    },
    {
      "midi": 65,
      "hit": false,
      "t": 34634.08399999913,
      "d": 243.9019999999582,
      "v": 100
    },
    {
      "midi": 62,
      "hit": false,
      "t": 34634.08399999913,
      "d": 243.9019999999582,
      "v": 100
    },
    {
      "midi": 34,
      "hit": false,
      "t": 34634.08399999995,
      "d": 243.90200000000186,
      "v": 100
    },
    {
      "midi": 77,
      "hit": false,
      "t": 34634.083999999966,
      "d": 243.90200000000186,
      "v": 100
    },
    {
      "midi": 74,
      "hit": false,
      "t": 34634.083999999966,
      "d": 243.90200000000186,
      "v": 100
    },
    {
      "midi": 70,
      "hit": false,
      "t": 34634.083999999966,
      "d": 243.90200000000186,
      "v": 100
    },
    {
      "midi": 77,
      "hit": false,
      "t": 34634.084000000046,
      "d": 121.95100000000093,
      "v": 100
    },
    {
      "midi": 33,
      "hit": false,
      "t": 34634.08400000006,
      "d": 1.0162583333367365,
      "v": 127
    },
    {
      "midi": 40,
      "hit": false,
      "t": 34634.08400000006,
      "d": 1.0162583333367365,
      "v": 100
    },
    {
      "midi": 46,
      "hit": false,
      "t": 34634.08400000006,
      "d": 1.0162583333367365,
      "v": 100
    },
    {
      "midi": 54,
      "hit": false,
      "t": 34634.0840000001,
      "d": 1.0162583333367365,
      "v": 80
    },
    {
      "midi": 77,
      "hit": false,
      "t": 34756.03500000005,
      "d": 121.95100000000093,
      "v": 100
    },
    {
      "midi": 44,
      "hit": false,
      "t": 34756.03500000006,
      "d": 1.0162583333367365,
      "v": 100
    },
    {
      "midi": 54,
      "hit": false,
      "t": 34756.0350000001,
      "d": 1.0162583333367365,
      "v": 60
    },
    {
      "midi": 70,
      "hit": false,
      "t": 34877.98599999909,
      "d": 60.975500000000466,
      "v": 100
    },
    {
      "midi": 65,
      "hit": false,
      "t": 34877.98599999909,
      "d": 60.975500000000466,
      "v": 100
    },
    {
      "midi": 62,
      "hit": false,
      "t": 34877.98599999909,
      "d": 60.975500000000466,
      "v": 100
    },
    {
      "midi": 34,
      "hit": false,
      "t": 34877.98599999995,
      "d": 243.90200000000186,
      "v": 100
    },
    {
      "midi": 79,
      "hit": false,
      "t": 34877.98599999997,
      "d": 243.90200000000186,
      "v": 100
    },
    {
      "midi": 77,
      "hit": false,
      "t": 34877.98599999997,
      "d": 243.90200000000186,
      "v": 100
    },
    {
      "midi": 74,
      "hit": false,
      "t": 34877.98599999997,
      "d": 243.90200000000186,
      "v": 100
    },
    {
      "midi": 79,
      "hit": false,
      "t": 34877.98600000005,
      "d": 121.95100000000093,
      "v": 100
    },
    {
      "midi": 40,
      "hit": false,
      "t": 34877.98600000006,
      "d": 1.0162583333367365,
      "v": 40
    },
    {
      "midi": 46,
      "hit": false,
      "t": 34877.98600000006,
      "d": 1.0162583333367365,
      "v": 100
    },
    {
      "midi": 54,
      "hit": false,
      "t": 34877.9860000001,
      "d": 1.0162583333367365,
      "v": 60
    },
    {
      "midi": 70,
      "hit": false,
      "t": 34999.93699999909,
      "d": 60.975500000000466,
      "v": 100
    },
    {
      "midi": 65,
      "hit": false,
      "t": 34999.93699999909,
      "d": 60.975500000000466,
      "v": 100
    },
    {
      "midi": 62,
      "hit": false,
      "t": 34999.93699999909,
      "d": 60.975500000000466,
      "v": 100
    },
    {
      "midi": 79,
      "hit": false,
      "t": 34999.93700000005,
      "d": 121.95100000000093,
      "v": 100
    },
    {
      "midi": 40,
      "hit": false,
      "t": 34999.93700000006,
      "d": 1.0162583333367365,
      "v": 100
    },
    {
      "midi": 44,
      "hit": false,
      "t": 34999.93700000006,
      "d": 1.0162583333367365,
      "v": 100
    },
    {
      "midi": 54,
      "hit": false,
      "t": 34999.9370000001,
      "d": 1.0162583333367365,
      "v": 60
    },
    {
      "midi": 67,
      "hit": false,
      "t": 35121.88799999909,
      "d": 487.80399999993824,
      "v": 100
    },
    {
      "midi": 58,
      "hit": false,
      "t": 35121.88799999909,
      "d": 487.80399999993824,
      "v": 100
    },
    {
      "midi": 63,
      "hit": false,
      "t": 35121.88799999909,
      "d": 487.80399999993824,
      "v": 100
    },
    {
      "midi": 39,
      "hit": false,
      "t": 35121.887999999955,
      "d": 243.90200000000186,
      "v": 100
    },
    {
      "midi": 79,
      "hit": false,
      "t": 35121.88799999997,
      "d": 243.90200000000186,
      "v": 100
    },
    {
      "midi": 75,
      "hit": false,
      "t": 35121.88799999997,
      "d": 243.90200000000186,
      "v": 100
    },
    {
      "midi": 70,
      "hit": false,
      "t": 35121.88799999997,
      "d": 243.90200000000186,
      "v": 100
    },
    {
      "midi": 39,
      "hit": false,
      "t": 35121.888,
      "d": 1219.510000000002,
      "v": 100
    },
    {
      "midi": 46,
      "hit": false,
      "t": 35121.888,
      "d": 1219.510000000002,
      "v": 100
    },
    {
      "midi": 75,
      "hit": false,
      "t": 35121.88800000005,
      "d": 121.95100000000093,
      "v": 100
    },
    {
      "midi": 33,
      "hit": false,
      "t": 35121.888000000064,
      "d": 1.0162583333367365,
      "v": 127
    },
    {
      "midi": 42,
      "hit": false,
      "t": 35121.888000000064,
      "d": 1.0162583333367365,
      "v": 100
    },
    {
      "midi": 54,
      "hit": false,
      "t": 35121.8880000001,
      "d": 1.0162583333367365,
      "v": 80
    },
    {
      "midi": 40,
      "hit": false,
      "t": 35243.839000000065,
      "d": 1.0162583333367365,
      "v": 100
    },
    {
      "midi": 67,
      "hit": false,
      "t": 35243.83900000007,
      "d": 121.95100000000093,
      "v": 100
    },
    {
      "midi": 63,
      "hit": false,
      "t": 35243.83900000007,
      "d": 121.95100000000093,
      "v": 100
    },
    {
      "midi": 58,
      "hit": false,
      "t": 35243.83900000007,
      "d": 121.95100000000093,
      "v": 100
    },
    {
      "midi": 54,
      "hit": false,
      "t": 35243.8390000001,
      "d": 1.0162583333367365,
      "v": 60
    },
    {
      "midi": 39,
      "hit": false,
      "t": 35365.78999999996,
      "d": 20.325166666669247,
      "v": 100
    },
    {
      "midi": 46,
      "hit": false,
      "t": 35365.790000000066,
      "d": 1.0162583333367365,
      "v": 100
    },
    {
      "midi": 67,
      "hit": false,
      "t": 35365.79000000007,
      "d": 121.95100000000093,
      "v": 100
    },
    {
      "midi": 63,
      "hit": false,
      "t": 35365.79000000007,
      "d": 121.95100000000093,
      "v": 100
    },
    {
      "midi": 58,
      "hit": false,
      "t": 35365.79000000007,
      "d": 121.95100000000093,
      "v": 100
    },
    {
      "midi": 54,
      "hit": false,
      "t": 35365.7900000001,
      "d": 1.0162583333367365,
      "v": 60
    },
    {
      "midi": 39,
      "hit": false,
      "t": 35487.74099999996,
      "d": 243.90200000000186,
      "v": 100
    },
    {
      "midi": 79,
      "hit": false,
      "t": 35487.74099999997,
      "d": 243.90200000000186,
      "v": 100
    },
    {
      "midi": 75,
      "hit": false,
      "t": 35487.74099999997,
      "d": 243.90200000000186,
      "v": 100
    },
    {
      "midi": 70,
      "hit": false,
      "t": 35487.74099999997,
      "d": 243.90200000000186,
      "v": 100
    },
    {
      "midi": 44,
      "hit": false,
      "t": 35487.74100000007,
      "d": 1.0162583333367365,
      "v": 100
    },
    {
      "midi": 40,
      "hit": false,
      "t": 35487.74100000007,
      "d": 1.0162583333367365,
      "v": 100
    },
    {
      "midi": 54,
      "hit": false,
      "t": 35487.741000000104,
      "d": 1.0162583333367365,
      "v": 60
    },
    {
      "midi": 67,
      "hit": false,
      "t": 35609.69199999903,
      "d": 60.975499999985914,
      "v": 100
    },
    {
      "midi": 58,
      "hit": false,
      "t": 35609.69199999903,
      "d": 60.975499999985914,
      "v": 100
    },
    {
      "midi": 63,
      "hit": false,
      "t": 35609.69199999903,
      "d": 60.975499999985914,
      "v": 100
    },
    {
      "midi": 33,
      "hit": false,
      "t": 35609.69200000007,
      "d": 1.0162583333367365,
      "v": 127
    },
    {
      "midi": 46,
      "hit": false,
      "t": 35609.69200000007,
      "d": 1.0162583333367365,
      "v": 100
    },
    {
      "midi": 67,
      "hit": false,
      "t": 35609.692000000075,
      "d": 121.95100000000093,
      "v": 100
    },
    {
      "midi": 63,
      "hit": false,
      "t": 35609.692000000075,
      "d": 121.95100000000093,
      "v": 100
    },
    {
      "midi": 58,
      "hit": false,
      "t": 35609.692000000075,
      "d": 121.95100000000093,
      "v": 100
    },
    {
      "midi": 41,
      "hit": false,
      "t": 35609.692000000105,
      "d": 1.0162583333367365,
      "v": 80
    },
    {
      "midi": 54,
      "hit": false,
      "t": 35609.692000000105,
      "d": 1.0162583333367365,
      "v": 80
    },
    {
      "midi": 67,
      "hit": false,
      "t": 35731.64299999901,
      "d": 60.97549999999319,
      "v": 100
    },
    {
      "midi": 58,
      "hit": false,
      "t": 35731.64299999901,
      "d": 60.97549999999319,
      "v": 100
    },
    {
      "midi": 63,
      "hit": false,
      "t": 35731.64299999901,
      "d": 60.97549999999319,
      "v": 100
    },
    {
      "midi": 39,
      "hit": false,
      "t": 35731.64299999996,
      "d": 20.325166666669247,
      "v": 100
    },
    {
      "midi": 44,
      "hit": false,
      "t": 35731.64300000007,
      "d": 1.0162583333367365,
      "v": 100
    },
    {
      "midi": 67,
      "hit": false,
      "t": 35731.64300000008,
      "d": 121.95100000000093,
      "v": 100
    },
    {
      "midi": 63,
      "hit": false,
      "t": 35731.64300000008,
      "d": 121.95100000000093,
      "v": 100
    },
    {
      "midi": 58,
      "hit": false,
      "t": 35731.64300000008,
      "d": 121.95100000000093,
      "v": 100
    },
    {
      "midi": 54,
      "hit": false,
      "t": 35731.643000000106,
      "d": 1.0162583333367365,
      "v": 60
    },
    {
      "midi": 67,
      "hit": false,
      "t": 35853.593999998986,
      "d": 60.975500000000466,
      "v": 100
    },
    {
      "midi": 58,
      "hit": false,
      "t": 35853.593999998986,
      "d": 60.975500000000466,
      "v": 100
    },
    {
      "midi": 63,
      "hit": false,
      "t": 35853.593999998986,
      "d": 60.975500000000466,
      "v": 100
    },
    {
      "midi": 39,
      "hit": false,
      "t": 35853.59399999996,
      "d": 243.90200000000186,
      "v": 100
    },
    {
      "midi": 79,
      "hit": false,
      "t": 35853.593999999975,
      "d": 243.90200000000186,
      "v": 100
    },
    {
      "midi": 75,
      "hit": false,
      "t": 35853.593999999975,
      "d": 243.90200000000186,
      "v": 100
    },
    {
      "midi": 70,
      "hit": false,
      "t": 35853.593999999975,
      "d": 243.90200000000186,
      "v": 100
    },
    {
      "midi": 46,
      "hit": false,
      "t": 35853.59400000007,
      "d": 1.0162583333367365,
      "v": 100
    },
    {
      "midi": 40,
      "hit": false,
      "t": 35853.59400000007,
      "d": 1.0162583333367365,
      "v": 100
    },
    {
      "midi": 54,
      "hit": false,
      "t": 35853.59400000011,
      "d": 1.0162583333367365,
      "v": 60
    },
    {
      "midi": 67,
      "hit": false,
      "t": 35975.54499999899,
      "d": 60.975500000000466,
      "v": 100
    },
    {
      "midi": 58,
      "hit": false,
      "t": 35975.54499999899,
      "d": 60.975500000000466,
      "v": 100
    },
    {
      "midi": 63,
      "hit": false,
      "t": 35975.54499999899,
      "d": 60.975500000000466,
      "v": 100
    },
    {
      "midi": 44,
      "hit": false,
      "t": 35975.54500000007,
      "d": 1.0162583333367365,
      "v": 100
    },
    {
      "midi": 67,
      "hit": false,
      "t": 35975.54500000008,
      "d": 121.95100000000093,
      "v": 100
    },
    {
      "midi": 63,
      "hit": false,
      "t": 35975.54500000008,
      "d": 121.95100000000093,
      "v": 100
    },
    {
      "midi": 58,
      "hit": false,
      "t": 35975.54500000008,
      "d": 121.95100000000093,
      "v": 100
    },
    {
      "midi": 41,
      "hit": false,
      "t": 35975.54500000011,
      "d": 1.0162583333367365,
      "v": 80
    },
    {
      "midi": 54,
      "hit": false,
      "t": 35975.54500000011,
      "d": 1.0162583333367365,
      "v": 60
    },
    {
      "midi": 67,
      "hit": false,
      "t": 36097.49599999899,
      "d": 60.975499999985914,
      "v": 100
    },
    {
      "midi": 58,
      "hit": false,
      "t": 36097.49599999899,
      "d": 60.975499999985914,
      "v": 100
    },
    {
      "midi": 63,
      "hit": false,
      "t": 36097.49599999899,
      "d": 60.975499999985914,
      "v": 100
    },
    {
      "midi": 39,
      "hit": false,
      "t": 36097.49599999996,
      "d": 20.325166666669247,
      "v": 100
    },
    {
      "midi": 33,
      "hit": false,
      "t": 36097.49600000007,
      "d": 1.0162583333367365,
      "v": 127
    },
    {
      "midi": 42,
      "hit": false,
      "t": 36097.49600000007,
      "d": 1.0162583333367365,
      "v": 100
    },
    {
      "midi": 40,
      "hit": false,
      "t": 36097.49600000007,
      "d": 1.0162583333367365,
      "v": 100
    },
    {
      "midi": 67,
      "hit": false,
      "t": 36097.49600000008,
      "d": 121.95100000000093,
      "v": 100
    },
    {
      "midi": 63,
      "hit": false,
      "t": 36097.49600000008,
      "d": 121.95100000000093,
      "v": 100
    },
    {
      "midi": 58,
      "hit": false,
      "t": 36097.49600000008,
      "d": 121.95100000000093,
      "v": 100
    },
    {
      "midi": 54,
      "hit": false,
      "t": 36097.49600000011,
      "d": 1.0162583333367365,
      "v": 80
    },
    {
      "midi": 67,
      "hit": false,
      "t": 36219.44699999897,
      "d": 60.97549999999319,
      "v": 100
    },
    {
      "midi": 58,
      "hit": false,
      "t": 36219.44699999897,
      "d": 60.97549999999319,
      "v": 100
    },
    {
      "midi": 63,
      "hit": false,
      "t": 36219.44699999897,
      "d": 60.97549999999319,
      "v": 100
    },
    {
      "midi": 39,
      "hit": false,
      "t": 36219.446999999964,
      "d": 243.90200000000186,
      "v": 100
    },
    {
      "midi": 79,
      "hit": false,
      "t": 36219.44699999998,
      "d": 243.90200000000186,
      "v": 100
    },
    {
      "midi": 75,
      "hit": false,
      "t": 36219.44699999998,
      "d": 243.90200000000186,
      "v": 100
    },
    {
      "midi": 70,
      "hit": false,
      "t": 36219.44699999998,
      "d": 243.90200000000186,
      "v": 100
    },
    {
      "midi": 41,
      "hit": false,
      "t": 36219.44700000011,
      "d": 1.0162583333367365,
      "v": 80
    },
    {
      "midi": 54,
      "hit": false,
      "t": 36219.44700000011,
      "d": 1.0162583333367365,
      "v": 60
    },
    {
      "midi": 67,
      "hit": false,
      "t": 36341.397999998946,
      "d": 60.975500000000466,
      "v": 100
    },
    {
      "midi": 58,
      "hit": false,
      "t": 36341.397999998946,
      "d": 60.975500000000466,
      "v": 100
    },
    {
      "midi": 63,
      "hit": false,
      "t": 36341.397999998946,
      "d": 60.975500000000466,
      "v": 100
    },
    {
      "midi": 55,
      "hit": false,
      "t": 36341.398,
      "d": 731.7059999998382,
      "v": 100
    },
    {
      "midi": 51,
      "hit": false,
      "t": 36341.398,
      "d": 731.7059999998382,
      "v": 100
    },
    {
      "midi": 46,
      "hit": false,
      "t": 36341.398000000074,
      "d": 1.0162583333367365,
      "v": 100
    },
    {
      "midi": 67,
      "hit": false,
      "t": 36341.39800000008,
      "d": 121.95100000000093,
      "v": 100
    },
    {
      "midi": 63,
      "hit": false,
      "t": 36341.39800000008,
      "d": 121.95100000000093,
      "v": 100
    },
    {
      "midi": 58,
      "hit": false,
      "t": 36341.39800000008,
      "d": 121.95100000000093,
      "v": 100
    },
    {
      "midi": 54,
      "hit": false,
      "t": 36341.39800000011,
      "d": 1.0162583333367365,
      "v": 60
    },
    {
      "midi": 67,
      "hit": false,
      "t": 36463.34899999895,
      "d": 60.975500000000466,
      "v": 100
    },
    {
      "midi": 58,
      "hit": false,
      "t": 36463.34899999895,
      "d": 60.975500000000466,
      "v": 100
    },
    {
      "midi": 63,
      "hit": false,
      "t": 36463.34899999895,
      "d": 60.975500000000466,
      "v": 100
    },
    {
      "midi": 39,
      "hit": false,
      "t": 36463.348999999966,
      "d": 20.325166666669247,
      "v": 100
    },
    {
      "midi": 44,
      "hit": false,
      "t": 36463.349000000075,
      "d": 1.0162583333367365,
      "v": 100
    },
    {
      "midi": 40,
      "hit": false,
      "t": 36463.349000000075,
      "d": 1.0162583333367365,
      "v": 40
    },
    {
      "midi": 67,
      "hit": false,
      "t": 36463.34900000008,
      "d": 121.95100000000093,
      "v": 100
    },
    {
      "midi": 63,
      "hit": false,
      "t": 36463.34900000008,
      "d": 121.95100000000093,
      "v": 100
    },
    {
      "midi": 58,
      "hit": false,
      "t": 36463.34900000008,
      "d": 121.95100000000093,
      "v": 100
    },
    {
      "midi": 54,
      "hit": false,
      "t": 36463.34900000011,
      "d": 1.0162583333367365,
      "v": 60
    },
    {
      "midi": 67,
      "hit": false,
      "t": 36585.29999999895,
      "d": 243.9019999999582,
      "v": 100
    },
    {
      "midi": 58,
      "hit": false,
      "t": 36585.29999999895,
      "d": 243.9019999999582,
      "v": 100
    },
    {
      "midi": 63,
      "hit": false,
      "t": 36585.29999999895,
      "d": 243.9019999999582,
      "v": 100
    },
    {
      "midi": 39,
      "hit": false,
      "t": 36585.29999999997,
      "d": 243.90200000000186,
      "v": 100
    },
    {
      "midi": 79,
      "hit": false,
      "t": 36585.29999999998,
      "d": 243.90200000000186,
      "v": 100
    },
    {
      "midi": 75,
      "hit": false,
      "t": 36585.29999999998,
      "d": 243.90200000000186,
      "v": 100
    },
    {
      "midi": 70,
      "hit": false,
      "t": 36585.29999999998,
      "d": 243.90200000000186,
      "v": 100
    },
    {
      "midi": 33,
      "hit": false,
      "t": 36585.300000000076,
      "d": 1.0162583333367365,
      "v": 127
    },
    {
      "midi": 40,
      "hit": false,
      "t": 36585.300000000076,
      "d": 1.0162583333367365,
      "v": 100
    },
    {
      "midi": 46,
      "hit": false,
      "t": 36585.300000000076,
      "d": 1.0162583333367365,
      "v": 100
    },
    {
      "midi": 57,
      "hit": false,
      "t": 36585.300000000076,
      "d": 1.0162583333367365,
      "v": 100
    },
    {
      "midi": 54,
      "hit": false,
      "t": 36585.30000000011,
      "d": 1.0162583333367365,
      "v": 80
    },
    {
      "midi": 44,
      "hit": false,
      "t": 36707.25100000008,
      "d": 1.0162583333367365,
      "v": 100
    },
    {
      "midi": 54,
      "hit": false,
      "t": 36707.25100000011,
      "d": 1.0162583333367365,
      "v": 60
    },
    {
      "midi": 67,
      "hit": false,
      "t": 36829.201999998906,
      "d": 60.975500000000466,
      "v": 100
    },
    {
      "midi": 58,
      "hit": false,
      "t": 36829.201999998906,
      "d": 60.975500000000466,
      "v": 100
    },
    {
      "midi": 63,
      "hit": false,
      "t": 36829.201999998906,
      "d": 60.975500000000466,
      "v": 100
    },
    {
      "midi": 39,
      "hit": false,
      "t": 36829.20199999997,
      "d": 243.90200000000186,
      "v": 100
    },
    {
      "midi": 79,
      "hit": false,
      "t": 36829.20199999998,
      "d": 243.90200000000186,
      "v": 100
    },
    {
      "midi": 75,
      "hit": false,
      "t": 36829.20199999998,
      "d": 243.90200000000186,
      "v": 100
    },
    {
      "midi": 70,
      "hit": false,
      "t": 36829.20199999998,
      "d": 243.90200000000186,
      "v": 100
    },
    {
      "midi": 40,
      "hit": false,
      "t": 36829.20200000008,
      "d": 1.0162583333367365,
      "v": 40
    },
    {
      "midi": 46,
      "hit": false,
      "t": 36829.20200000008,
      "d": 1.0162583333367365,
      "v": 100
    },
    {
      "midi": 54,
      "hit": false,
      "t": 36829.202000000114,
      "d": 1.0162583333367365,
      "v": 60
    },
    {
      "midi": 67,
      "hit": false,
      "t": 36951.15299999891,
      "d": 60.975500000000466,
      "v": 100
    },
    {
      "midi": 58,
      "hit": false,
      "t": 36951.15299999891,
      "d": 60.975500000000466,
      "v": 100
    },
    {
      "midi": 63,
      "hit": false,
      "t": 36951.15299999891,
      "d": 60.975500000000466,
      "v": 100
    },
    {
      "midi": 40,
      "hit": false,
      "t": 36951.15300000008,
      "d": 1.0162583333367365,
      "v": 100
    },
    {
      "midi": 44,
      "hit": false,
      "t": 36951.15300000008,
      "d": 1.0162583333367365,
      "v": 100
    },
    {
      "midi": 54,
      "hit": false,
      "t": 36951.153000000115,
      "d": 1.0162583333367365,
      "v": 60
    },
    {
      "midi": 67,
      "hit": false,
      "t": 37073.10399999891,
      "d": 487.80399999993824,
      "v": 100
    },
    {
      "midi": 63,
      "hit": false,
      "t": 37073.10399999891,
      "d": 487.80399999993824,
      "v": 100
    },
    {
      "midi": 60,
      "hit": false,
      "t": 37073.10399999891,
      "d": 487.80399999993824,
      "v": 100
    },
    {
      "midi": 48,
      "hit": false,
      "t": 37073.10399999984,
      "d": 487.80399999999645,
      "v": 100
    },
    {
      "midi": 55,
      "hit": false,
      "t": 37073.10399999984,
      "d": 487.80399999999645,
      "v": 100
    },
    {
      "midi": 36,
      "hit": false,
      "t": 37073.10399999997,
      "d": 203.25166666666337,
      "v": 100
    },
    {
      "midi": 72,
      "hit": false,
      "t": 37073.103999999985,
      "d": 365.8530000000028,
      "v": 100
    },
    {
      "midi": 67,
      "hit": false,
      "t": 37073.103999999985,
      "d": 365.8530000000028,
      "v": 100
    },
    {
      "midi": 63,
      "hit": false,
      "t": 37073.103999999985,
      "d": 365.8530000000028,
      "v": 100
    },
    {
      "midi": 60,
      "hit": false,
      "t": 37073.10400000005,
      "d": 121.95100000000093,
      "v": 100
    },
    {
      "midi": 60,
      "hit": false,
      "t": 37073.10400000008,
      "d": 121.95100000000093,
      "v": 100
    },
    {
      "midi": 33,
      "hit": false,
      "t": 37073.10400000008,
      "d": 1.0162583333367365,
      "v": 127
    },
    {
      "midi": 42,
      "hit": false,
      "t": 37073.10400000008,
      "d": 1.0162583333367365,
      "v": 100
    },
    {
      "midi": 57,
      "hit": false,
      "t": 37073.10400000008,
      "d": 1.0162583333367365,
      "v": 100
    },
    {
      "midi": 54,
      "hit": false,
      "t": 37073.104000000116,
      "d": 1.0162583333367365,
      "v": 80
    },
    {
      "midi": 55,
      "hit": false,
      "t": 37195.05500000005,
      "d": 121.95100000000093,
      "v": 100
    },
    {
      "midi": 58,
      "hit": false,
      "t": 37195.05500000008,
      "d": 121.95100000000093,
      "v": 100
    },
    {
      "midi": 54,
      "hit": false,
      "t": 37195.05500000012,
      "d": 1.0162583333367365,
      "v": 60
    },
    {
      "midi": 36,
      "hit": false,
      "t": 37317.005999999965,
      "d": 203.25166666666337,
      "v": 100
    },
    {
      "midi": 67,
      "hit": false,
      "t": 37317.00600000005,
      "d": 121.95100000000093,
      "v": 100
    },
    {
      "midi": 46,
      "hit": false,
      "t": 37317.00600000008,
      "d": 1.0162583333367365,
      "v": 100
    },
    {
      "midi": 54,
      "hit": false,
      "t": 37317.00600000012,
      "d": 1.0162583333367365,
      "v": 60
    },
    {
      "midi": 60,
      "hit": false,
      "t": 37438.95700000005,
      "d": 121.95100000000093,
      "v": 100
    },
    {
      "midi": 60,
      "hit": false,
      "t": 37438.95700000008,
      "d": 121.95100000000093,
      "v": 100
    },
    {
      "midi": 44,
      "hit": false,
      "t": 37438.95700000008,
      "d": 1.0162583333367365,
      "v": 100
    },
    {
      "midi": 54,
      "hit": false,
      "t": 37438.95700000012,
      "d": 1.0162583333367365,
      "v": 60
    },
    {
      "midi": 67,
      "hit": false,
      "t": 37560.907999998846,
      "d": 60.975499999985914,
      "v": 100
    },
    {
      "midi": 63,
      "hit": false,
      "t": 37560.907999998846,
      "d": 60.975499999985914,
      "v": 100
    },
    {
      "midi": 60,
      "hit": false,
      "t": 37560.907999998846,
      "d": 60.975499999985914,
      "v": 100
    },
    {
      "midi": 48,
      "hit": false,
      "t": 37560.907999999836,
      "d": 243.90200000000186,
      "v": 100
    },
    {
      "midi": 36,
      "hit": false,
      "t": 37560.90799999996,
      "d": 203.25166666666337,
      "v": 100
    },
    {
      "midi": 72,
      "hit": false,
      "t": 37560.90799999999,
      "d": 243.90200000000186,
      "v": 100
    },
    {
      "midi": 67,
      "hit": false,
      "t": 37560.90799999999,
      "d": 243.90200000000186,
      "v": 100
    },
    {
      "midi": 63,
      "hit": false,
      "t": 37560.90799999999,
      "d": 243.90200000000186,
      "v": 100
    },
    {
      "midi": 72,
      "hit": false,
      "t": 37560.908000000054,
      "d": 121.95100000000093,
      "v": 100
    },
    {
      "midi": 33,
      "hit": false,
      "t": 37560.90800000008,
      "d": 1.0162583333367365,
      "v": 127
    },
    {
      "midi": 40,
      "hit": false,
      "t": 37560.90800000008,
      "d": 1.0162583333367365,
      "v": 100
    },
    {
      "midi": 46,
      "hit": false,
      "t": 37560.90800000008,
      "d": 1.0162583333367365,
      "v": 100
    },
    {
      "midi": 54,
      "hit": false,
      "t": 37560.90800000012,
      "d": 1.0162583333367365,
      "v": 80
    },
    {
      "midi": 67,
      "hit": false,
      "t": 37682.858999998825,
      "d": 60.97549999999319,
      "v": 100
    },
    {
      "midi": 63,
      "hit": false,
      "t": 37682.858999998825,
      "d": 60.97549999999319,
      "v": 100
    },
    {
      "midi": 60,
      "hit": false,
      "t": 37682.858999998825,
      "d": 60.97549999999319,
      "v": 100
    },
    {
      "midi": 55,
      "hit": false,
      "t": 37682.859000000055,
      "d": 121.95100000000093,
      "v": 100
    },
    {
      "midi": 55,
      "hit": false,
      "t": 37682.859000000084,
      "d": 121.95100000000093,
      "v": 100
    },
    {
      "midi": 44,
      "hit": false,
      "t": 37682.859000000084,
      "d": 1.0162583333367365,
      "v": 100
    },
    {
      "midi": 54,
      "hit": false,
      "t": 37682.85900000012,
      "d": 1.0162583333367365,
      "v": 60
    },
    {
      "midi": 67,
      "hit": false,
      "t": 37804.809999998804,
      "d": 60.975500000000466,
      "v": 100
    },
    {
      "midi": 63,
      "hit": false,
      "t": 37804.809999998804,
      "d": 60.975500000000466,
      "v": 100
    },
    {
      "midi": 60,
      "hit": false,
      "t": 37804.809999998804,
      "d": 60.975500000000466,
      "v": 100
    },
    {
      "midi": 48,
      "hit": false,
      "t": 37804.80999999984,
      "d": 121.95100000000093,
      "v": 100
    },
    {
      "midi": 36,
      "hit": false,
      "t": 37804.809999999954,
      "d": 203.25166666666337,
      "v": 100
    },
    {
      "midi": 60,
      "hit": false,
      "t": 37804.810000000056,
      "d": 121.95100000000093,
      "v": 100
    },
    {
      "midi": 46,
      "hit": false,
      "t": 37804.810000000085,
      "d": 1.0162583333367365,
      "v": 100
    },
    {
      "midi": 54,
      "hit": false,
      "t": 37804.81000000012,
      "d": 1.0162583333367365,
      "v": 60
    },
    {
      "midi": 67,
      "hit": false,
      "t": 37926.760999998805,
      "d": 60.975500000000466,
      "v": 100
    },
    {
      "midi": 63,
      "hit": false,
      "t": 37926.760999998805,
      "d": 60.975500000000466,
      "v": 100
    },
    {
      "midi": 60,
      "hit": false,
      "t": 37926.760999998805,
      "d": 60.975500000000466,
      "v": 100
    },
    {
      "midi": 48,
      "hit": false,
      "t": 37926.76099999984,
      "d": 121.95100000000093,
      "v": 100
    },
    {
      "midi": 72,
      "hit": false,
      "t": 37926.76099999999,
      "d": 121.95100000000093,
      "v": 100
    },
    {
      "midi": 67,
      "hit": false,
      "t": 37926.76099999999,
      "d": 121.95100000000093,
      "v": 100
    },
    {
      "midi": 63,
      "hit": false,
      "t": 37926.76099999999,
      "d": 121.95100000000093,
      "v": 100
    },
    {
      "midi": 67,
      "hit": false,
      "t": 37926.76100000006,
      "d": 121.95100000000093,
      "v": 100
    },
    {
      "midi": 55,
      "hit": false,
      "t": 37926.761000000086,
      "d": 121.95100000000093,
      "v": 100
    },
    {
      "midi": 44,
      "hit": false,
      "t": 37926.761000000086,
      "d": 1.0162583333367365,
      "v": 100
    },
    {
      "midi": 54,
      "hit": false,
      "t": 37926.76100000012,
      "d": 1.0162583333367365,
      "v": 60
    },
    {
      "midi": 67,
      "hit": false,
      "t": 38048.711999998806,
      "d": 60.975499999985914,
      "v": 100
    },
    {
      "midi": 63,
      "hit": false,
      "t": 38048.711999998806,
      "d": 60.975499999985914,
      "v": 100
    },
    {
      "midi": 60,
      "hit": false,
      "t": 38048.711999998806,
      "d": 60.975499999985914,
      "v": 100
    },
    {
      "midi": 48,
      "hit": false,
      "t": 38048.71199999984,
      "d": 121.95100000000093,
      "v": 100
    },
    {
      "midi": 36,
      "hit": false,
      "t": 38048.71199999995,
      "d": 203.25166666666337,
      "v": 100
    },
    {
      "midi": 60,
      "hit": false,
      "t": 38048.71200000006,
      "d": 121.95100000000093,
      "v": 100
    },
    {
      "midi": 33,
      "hit": false,
      "t": 38048.71200000009,
      "d": 1.0162583333367365,
      "v": 127
    },
    {
      "midi": 42,
      "hit": false,
      "t": 38048.71200000009,
      "d": 1.0162583333367365,
      "v": 100
    },
    {
      "midi": 54,
      "hit": false,
      "t": 38048.71200000012,
      "d": 1.0162583333367365,
      "v": 80
    },
    {
      "midi": 67,
      "hit": false,
      "t": 38170.662999998785,
      "d": 60.97549999999319,
      "v": 100
    },
    {
      "midi": 63,
      "hit": false,
      "t": 38170.662999998785,
      "d": 60.97549999999319,
      "v": 100
    },
    {
      "midi": 60,
      "hit": false,
      "t": 38170.662999998785,
      "d": 60.97549999999319,
      "v": 100
    },
    {
      "midi": 48,
      "hit": false,
      "t": 38170.66299999984,
      "d": 121.95100000000093,
      "v": 100
    },
    {
      "midi": 72,
      "hit": false,
      "t": 38170.66299999999,
      "d": 243.90200000000186,
      "v": 100
    },
    {
      "midi": 67,
      "hit": false,
      "t": 38170.66299999999,
      "d": 243.90200000000186,
      "v": 100
    },
    {
      "midi": 63,
      "hit": false,
      "t": 38170.66299999999,
      "d": 243.90200000000186,
      "v": 100
    },
    {
      "midi": 55,
      "hit": false,
      "t": 38170.66300000006,
      "d": 121.95100000000093,
      "v": 100
    },
    {
      "midi": 55,
      "hit": false,
      "t": 38170.66300000009,
      "d": 121.95100000000093,
      "v": 100
    },
    {
      "midi": 54,
      "hit": false,
      "t": 38170.663000000124,
      "d": 1.0162583333367365,
      "v": 60
    },
    {
      "midi": 67,
      "hit": false,
      "t": 38292.613999998764,
      "d": 60.975500000000466,
      "v": 100
    },
    {
      "midi": 63,
      "hit": false,
      "t": 38292.613999998764,
      "d": 60.975500000000466,
      "v": 100
    },
    {
      "midi": 60,
      "hit": false,
      "t": 38292.613999998764,
      "d": 60.975500000000466,
      "v": 100
    },
    {
      "midi": 48,
      "hit": false,
      "t": 38292.61399999984,
      "d": 243.90200000000186,
      "v": 100
    },
    {
      "midi": 36,
      "hit": false,
      "t": 38292.61399999994,
      "d": 203.25166666666337,
      "v": 100
    },
    {
      "midi": 72,
      "hit": false,
      "t": 38292.61400000006,
      "d": 121.95100000000093,
      "v": 100
    },
    {
      "midi": 58,
      "hit": false,
      "t": 38292.61400000009,
      "d": 121.95100000000093,
      "v": 100
    },
    {
      "midi": 46,
      "hit": false,
      "t": 38292.61400000009,
      "d": 1.0162583333367365,
      "v": 100
    },
    {
      "midi": 54,
      "hit": false,
      "t": 38292.614000000125,
      "d": 1.0162583333367365,
      "v": 60
    },
    {
      "midi": 67,
      "hit": false,
      "t": 38414.564999998765,
      "d": 60.975500000000466,
      "v": 100
    },
    {
      "midi": 63,
      "hit": false,
      "t": 38414.564999998765,
      "d": 60.975500000000466,
      "v": 100
    },
    {
      "midi": 60,
      "hit": false,
      "t": 38414.564999998765,
      "d": 60.975500000000466,
      "v": 100
    },
    {
      "midi": 60,
      "hit": false,
      "t": 38414.56500000006,
      "d": 121.95100000000093,
      "v": 100
    },
    {
      "midi": 44,
      "hit": false,
      "t": 38414.56500000009,
      "d": 1.0162583333367365,
      "v": 100
    },
    {
      "midi": 54,
      "hit": false,
      "t": 38414.565000000126,
      "d": 1.0162583333367365,
      "v": 60
    },
    {
      "midi": 67,
      "hit": false,
      "t": 38536.515999998766,
      "d": 243.9019999999582,
      "v": 100
    },
    {
      "midi": 63,
      "hit": false,
      "t": 38536.515999998766,
      "d": 243.9019999999582,
      "v": 100
    },
    {
      "midi": 60,
      "hit": false,
      "t": 38536.515999998766,
      "d": 243.9019999999582,
      "v": 100
    },
    {
      "midi": 48,
      "hit": false,
      "t": 38536.51599999984,
      "d": 243.90200000000186,
      "v": 100
    },
    {
      "midi": 36,
      "hit": false,
      "t": 38536.51599999994,
      "d": 203.25166666666337,
      "v": 100
    },
    {
      "midi": 72,
      "hit": false,
      "t": 38536.515999999996,
      "d": 365.8530000000028,
      "v": 100
    },
    {
      "midi": 67,
      "hit": false,
      "t": 38536.515999999996,
      "d": 365.8530000000028,
      "v": 100
    },
    {
      "midi": 63,
      "hit": false,
      "t": 38536.515999999996,
      "d": 365.8530000000028,
      "v": 100
    },
    {
      "midi": 72,
      "hit": false,
      "t": 38536.51600000006,
      "d": 121.95100000000093,
      "v": 100
    },
    {
      "midi": 60,
      "hit": false,
      "t": 38536.51600000009,
      "d": 121.95100000000093,
      "v": 100
    },
    {
      "midi": 33,
      "hit": false,
      "t": 38536.51600000009,
      "d": 1.0162583333367365,
      "v": 127
    },
    {
      "midi": 40,
      "hit": false,
      "t": 38536.51600000009,
      "d": 1.0162583333367365,
      "v": 100
    },
    {
      "midi": 46,
      "hit": false,
      "t": 38536.51600000009,
      "d": 1.0162583333367365,
      "v": 100
    },
    {
      "midi": 54,
      "hit": false,
      "t": 38536.51600000013,
      "d": 1.0162583333367365,
      "v": 80
    },
    {
      "midi": 60,
      "hit": false,
      "t": 38658.46700000006,
      "d": 121.95100000000093,
      "v": 100
    },
    {
      "midi": 44,
      "hit": false,
      "t": 38658.46700000009,
      "d": 1.0162583333367365,
      "v": 100
    },
    {
      "midi": 54,
      "hit": false,
      "t": 38658.46700000013,
      "d": 1.0162583333367365,
      "v": 60
    },
    {
      "midi": 67,
      "hit": false,
      "t": 38780.417999998725,
      "d": 60.975500000000466,
      "v": 100
    },
    {
      "midi": 63,
      "hit": false,
      "t": 38780.417999998725,
      "d": 60.975500000000466,
      "v": 100
    },
    {
      "midi": 60,
      "hit": false,
      "t": 38780.417999998725,
      "d": 60.975500000000466,
      "v": 100
    },
    {
      "midi": 48,
      "hit": false,
      "t": 38780.417999999845,
      "d": 243.90200000000186,
      "v": 100
    },
    {
      "midi": 36,
      "hit": false,
      "t": 38780.41799999993,
      "d": 203.25166666666337,
      "v": 100
    },
    {
      "midi": 67,
      "hit": false,
      "t": 38780.41800000006,
      "d": 121.95100000000093,
      "v": 100
    },
    {
      "midi": 40,
      "hit": false,
      "t": 38780.41800000009,
      "d": 1.0162583333367365,
      "v": 40
    },
    {
      "midi": 46,
      "hit": false,
      "t": 38780.41800000009,
      "d": 1.0162583333367365,
      "v": 100
    },
    {
      "midi": 54,
      "hit": false,
      "t": 38780.41800000013,
      "d": 1.0162583333367365,
      "v": 60
    },
    {
      "midi": 67,
      "hit": false,
      "t": 38902.368999998725,
      "d": 60.975500000000466,
      "v": 100
    },
    {
      "midi": 63,
      "hit": false,
      "t": 38902.368999998725,
      "d": 60.975500000000466,
      "v": 100
    },
    {
      "midi": 60,
      "hit": false,
      "t": 38902.368999998725,
      "d": 60.975500000000466,
      "v": 100
    },
    {
      "midi": 60,
      "hit": false,
      "t": 38902.369000000064,
      "d": 121.95100000000093,
      "v": 100
    },
    {
      "midi": 40,
      "hit": false,
      "t": 38902.36900000009,
      "d": 1.0162583333367365,
      "v": 100
    },
    {
      "midi": 44,
      "hit": false,
      "t": 38902.36900000009,
      "d": 1.0162583333367365,
      "v": 100
    },
    {
      "midi": 54,
      "hit": false,
      "t": 38902.36900000013,
      "d": 1.0162583333367365,
      "v": 60
    },
    {
      "midi": 67,
      "hit": false,
      "t": 39024.31999999873,
      "d": 487.80399999993824,
      "v": 100
    },
    {
      "midi": 63,
      "hit": false,
      "t": 39024.31999999873,
      "d": 487.80399999993824,
      "v": 100
    },
    {
      "midi": 60,
      "hit": false,
      "t": 39024.31999999873,
      "d": 487.80399999993824,
      "v": 100
    },
    {
      "midi": 48,
      "hit": false,
      "t": 39024.31999999985,
      "d": 487.80399999999645,
      "v": 100
    },
    {
      "midi": 55,
      "hit": false,
      "t": 39024.31999999985,
      "d": 487.80399999999645,
      "v": 100
    },
    {
      "midi": 36,
      "hit": false,
      "t": 39024.31999999993,
      "d": 203.25166666666337,
      "v": 100
    },
    {
      "midi": 72,
      "hit": false,
      "t": 39024.32,
      "d": 365.8530000000028,
      "v": 100
    },
    {
      "midi": 67,
      "hit": false,
      "t": 39024.32,
      "d": 365.8530000000028,
      "v": 100
    },
    {
      "midi": 63,
      "hit": false,
      "t": 39024.32,
      "d": 365.8530000000028,
      "v": 100
    },
    {
      "midi": 60,
      "hit": false,
      "t": 39024.320000000065,
      "d": 121.95100000000093,
      "v": 100
    },
    {
      "midi": 60,
      "hit": false,
      "t": 39024.320000000094,
      "d": 121.95100000000093,
      "v": 100
    },
    {
      "midi": 33,
      "hit": false,
      "t": 39024.320000000094,
      "d": 1.0162583333367365,
      "v": 127
    },
    {
      "midi": 42,
      "hit": false,
      "t": 39024.320000000094,
      "d": 1.0162583333367365,
      "v": 100
    },
    {
      "midi": 54,
      "hit": false,
      "t": 39024.32000000013,
      "d": 1.0162583333367365,
      "v": 80
    },
    {
      "midi": 55,
      "hit": false,
      "t": 39146.271000000066,
      "d": 121.95100000000093,
      "v": 100
    },
    {
      "midi": 58,
      "hit": false,
      "t": 39146.271000000095,
      "d": 121.95100000000093,
      "v": 100
    },
    {
      "midi": 54,
      "hit": false,
      "t": 39146.27100000013,
      "d": 1.0162583333367365,
      "v": 60
    },
    {
      "midi": 36,
      "hit": false,
      "t": 39268.22199999992,
      "d": 203.25166666666337,
      "v": 100
    },
    {
      "midi": 67,
      "hit": false,
      "t": 39268.22200000007,
      "d": 121.95100000000093,
      "v": 100
    },
    {
      "midi": 46,
      "hit": false,
      "t": 39268.222000000096,
      "d": 1.0162583333367365,
      "v": 100
    },
    {
      "midi": 54,
      "hit": false,
      "t": 39268.22200000013,
      "d": 1.0162583333367365,
      "v": 60
    },
    {
      "midi": 60,
      "hit": false,
      "t": 39390.17300000007,
      "d": 121.95100000000093,
      "v": 100
    },
    {
      "midi": 60,
      "hit": false,
      "t": 39390.1730000001,
      "d": 121.95100000000093,
      "v": 100
    },
    {
      "midi": 44,
      "hit": false,
      "t": 39390.1730000001,
      "d": 1.0162583333367365,
      "v": 100
    },
    {
      "midi": 54,
      "hit": false,
      "t": 39390.17300000013,
      "d": 1.0162583333367365,
      "v": 60
    },
    {
      "midi": 67,
      "hit": false,
      "t": 39512.123999998665,
      "d": 60.975499999985914,
      "v": 100
    },
    {
      "midi": 63,
      "hit": false,
      "t": 39512.123999998665,
      "d": 60.975499999985914,
      "v": 100
    },
    {
      "midi": 60,
      "hit": false,
      "t": 39512.123999998665,
      "d": 60.975499999985914,
      "v": 100
    },
    {
      "midi": 48,
      "hit": false,
      "t": 39512.12399999984,
      "d": 243.90200000000186,
      "v": 100
    },
    {
      "midi": 36,
      "hit": false,
      "t": 39512.123999999916,
      "d": 203.25166666666337,
      "v": 100
    },
    {
      "midi": 72,
      "hit": false,
      "t": 39512.124,
      "d": 243.90200000000186,
      "v": 100
    },
    {
      "midi": 67,
      "hit": false,
      "t": 39512.124,
      "d": 243.90200000000186,
      "v": 100
    },
    {
      "midi": 63,
      "hit": false,
      "t": 39512.124,
      "d": 243.90200000000186,
      "v": 100
    },
    {
      "midi": 72,
      "hit": false,
      "t": 39512.12400000007,
      "d": 121.95100000000093,
      "v": 100
    },
    {
      "midi": 33,
      "hit": false,
      "t": 39512.1240000001,
      "d": 1.0162583333367365,
      "v": 127
    },
    {
      "midi": 40,
      "hit": false,
      "t": 39512.1240000001,
      "d": 1.0162583333367365,
      "v": 100
    },
    {
      "midi": 46,
      "hit": false,
      "t": 39512.1240000001,
      "d": 1.0162583333367365,
      "v": 100
    },
    {
      "midi": 54,
      "hit": false,
      "t": 39512.124000000134,
      "d": 1.0162583333367365,
      "v": 80
    },
    {
      "midi": 67,
      "hit": false,
      "t": 39634.074999998644,
      "d": 60.97549999999319,
      "v": 100
    },
    {
      "midi": 63,
      "hit": false,
      "t": 39634.074999998644,
      "d": 60.97549999999319,
      "v": 100
    },
    {
      "midi": 60,
      "hit": false,
      "t": 39634.074999998644,
      "d": 60.97549999999319,
      "v": 100
    },
    {
      "midi": 55,
      "hit": false,
      "t": 39634.07500000007,
      "d": 121.95100000000093,
      "v": 100
    },
    {
      "midi": 55,
      "hit": false,
      "t": 39634.0750000001,
      "d": 121.95100000000093,
      "v": 100
    },
    {
      "midi": 44,
      "hit": false,
      "t": 39634.0750000001,
      "d": 1.0162583333367365,
      "v": 100
    },
    {
      "midi": 54,
      "hit": false,
      "t": 39634.075000000135,
      "d": 1.0162583333367365,
      "v": 60
    },
    {
      "midi": 67,
      "hit": false,
      "t": 39756.02599999862,
      "d": 60.975500000000466,
      "v": 100
    },
    {
      "midi": 63,
      "hit": false,
      "t": 39756.02599999862,
      "d": 60.975500000000466,
      "v": 100
    },
    {
      "midi": 60,
      "hit": false,
      "t": 39756.02599999862,
      "d": 60.975500000000466,
      "v": 100
    },
    {
      "midi": 48,
      "hit": false,
      "t": 39756.025999999845,
      "d": 121.95100000000093,
      "v": 100
    },
    {
      "midi": 36,
      "hit": false,
      "t": 39756.02599999991,
      "d": 203.25166666666337,
      "v": 100
    },
    {
      "midi": 60,
      "hit": false,
      "t": 39756.02600000007,
      "d": 121.95100000000093,
      "v": 100
    },
    {
      "midi": 46,
      "hit": false,
      "t": 39756.0260000001,
      "d": 1.0162583333367365,
      "v": 100
    },
    {
      "midi": 54,
      "hit": false,
      "t": 39756.026000000136,
      "d": 1.0162583333367365,
      "v": 60
    },
    {
      "midi": 67,
      "hit": false,
      "t": 39877.976999998624,
      "d": 60.975500000000466,
      "v": 100
    },
    {
      "midi": 63,
      "hit": false,
      "t": 39877.976999998624,
      "d": 60.975500000000466,
      "v": 100
    },
    {
      "midi": 60,
      "hit": false,
      "t": 39877.976999998624,
      "d": 60.975500000000466,
      "v": 100
    },
    {
      "midi": 48,
      "hit": false,
      "t": 39877.976999999846,
      "d": 121.95100000000093,
      "v": 100
    },
    {
      "midi": 72,
      "hit": false,
      "t": 39877.977000000006,
      "d": 121.95100000000093,
      "v": 100
    },
    {
      "midi": 67,
      "hit": false,
      "t": 39877.977000000006,
      "d": 121.95100000000093,
      "v": 100
    },
    {
      "midi": 63,
      "hit": false,
      "t": 39877.977000000006,
      "d": 121.95100000000093,
      "v": 100
    },
    {
      "midi": 67,
      "hit": false,
      "t": 39877.97700000007,
      "d": 121.95100000000093,
      "v": 100
    },
    {
      "midi": 55,
      "hit": false,
      "t": 39877.9770000001,
      "d": 121.95100000000093,
      "v": 100
    },
    {
      "midi": 44,
      "hit": false,
      "t": 39877.9770000001,
      "d": 1.0162583333367365,
      "v": 100
    },
    {
      "midi": 40,
      "hit": false,
      "t": 39877.9770000001,
      "d": 1.0162583333367365,
      "v": 100
    },
    {
      "midi": 54,
      "hit": false,
      "t": 39877.97700000014,
      "d": 1.0162583333367365,
      "v": 60
    },
    {
      "midi": 67,
      "hit": false,
      "t": 39999.927999998625,
      "d": 60.975499999985914,
      "v": 100
    },
    {
      "midi": 63,
      "hit": false,
      "t": 39999.927999998625,
      "d": 60.975499999985914,
      "v": 100
    },
    {
      "midi": 60,
      "hit": false,
      "t": 39999.927999998625,
      "d": 60.975499999985914,
      "v": 100
    },
    {
      "midi": 48,
      "hit": false,
      "t": 39999.92799999985,
      "d": 121.95100000000093,
      "v": 100
    },
    {
      "midi": 36,
      "hit": false,
      "t": 39999.927999999905,
      "d": 203.25166666666337,
      "v": 100
    },
    {
      "midi": 60,
      "hit": false,
      "t": 39999.92800000007,
      "d": 121.95100000000093,
      "v": 100
    },
    {
      "midi": 33,
      "hit": false,
      "t": 39999.9280000001,
      "d": 1.0162583333367365,
      "v": 127
    },
    {
      "midi": 42,
      "hit": false,
      "t": 39999.9280000001,
      "d": 1.0162583333367365,
      "v": 100
    },
    {
      "midi": 54,
      "hit": false,
      "t": 39999.92800000014,
      "d": 1.0162583333367365,
      "v": 80
    },
    {
      "midi": 67,
      "hit": false,
      "t": 40121.878999998604,
      "d": 60.97549999999319,
      "v": 100
    },
    {
      "midi": 63,
      "hit": false,
      "t": 40121.878999998604,
      "d": 60.97549999999319,
      "v": 100
    },
    {
      "midi": 60,
      "hit": false,
      "t": 40121.878999998604,
      "d": 60.97549999999319,
      "v": 100
    },
    {
      "midi": 48,
      "hit": false,
      "t": 40121.87899999985,
      "d": 121.95100000000093,
      "v": 100
    },
    {
      "midi": 72,
      "hit": false,
      "t": 40121.87900000001,
      "d": 243.90200000000186,
      "v": 100
    },
    {
      "midi": 67,
      "hit": false,
      "t": 40121.87900000001,
      "d": 243.90200000000186,
      "v": 100
    },
    {
      "midi": 63,
      "hit": false,
      "t": 40121.87900000001,
      "d": 243.90200000000186,
      "v": 100
    },
    {
      "midi": 55,
      "hit": false,
      "t": 40121.87900000007,
      "d": 121.95100000000093,
      "v": 100
    },
    {
      "midi": 55,
      "hit": false,
      "t": 40121.8790000001,
      "d": 121.95100000000093,
      "v": 100
    },
    {
      "midi": 40,
      "hit": false,
      "t": 40121.8790000001,
      "d": 1.0162583333367365,
      "v": 100
    },
    {
      "midi": 54,
      "hit": false,
      "t": 40121.87900000014,
      "d": 1.0162583333367365,
      "v": 60
    },
    {
      "midi": 67,
      "hit": false,
      "t": 40243.82999999858,
      "d": 60.975500000000466,
      "v": 100
    },
    {
      "midi": 63,
      "hit": false,
      "t": 40243.82999999858,
      "d": 60.975500000000466,
      "v": 100
    },
    {
      "midi": 60,
      "hit": false,
      "t": 40243.82999999858,
      "d": 60.975500000000466,
      "v": 100
    },
    {
      "midi": 48,
      "hit": false,
      "t": 40243.82999999985,
      "d": 243.90200000000186,
      "v": 100
    },
    {
      "midi": 36,
      "hit": false,
      "t": 40243.8299999999,
      "d": 203.25166666666337,
      "v": 100
    },
    {
      "midi": 72,
      "hit": false,
      "t": 40243.830000000075,
      "d": 121.95100000000093,
      "v": 100
    },
    {
      "midi": 58,
      "hit": false,
      "t": 40243.8300000001,
      "d": 121.95100000000093,
      "v": 100
    },
    {
      "midi": 46,
      "hit": false,
      "t": 40243.8300000001,
      "d": 1.0162583333367365,
      "v": 100
    },
    {
      "midi": 54,
      "hit": false,
      "t": 40243.83000000014,
      "d": 1.0162583333367365,
      "v": 60
    },
    {
      "midi": 67,
      "hit": false,
      "t": 40365.780999998584,
      "d": 60.975500000000466,
      "v": 100
    },
    {
      "midi": 63,
      "hit": false,
      "t": 40365.780999998584,
      "d": 60.975500000000466,
      "v": 100
    },
    {
      "midi": 60,
      "hit": false,
      "t": 40365.780999998584,
      "d": 60.975500000000466,
      "v": 100
    },
    {
      "midi": 60,
      "hit": false,
      "t": 40365.781000000075,
      "d": 121.95100000000093,
      "v": 100
    },
    {
      "midi": 44,
      "hit": false,
      "t": 40365.781000000105,
      "d": 1.0162583333367365,
      "v": 100
    },
    {
      "midi": 54,
      "hit": false,
      "t": 40365.78100000014,
      "d": 1.0162583333367365,
      "v": 60
    },
    {
      "midi": 67,
      "hit": false,
      "t": 40487.731999998585,
      "d": 243.9019999999582,
      "v": 100
    },
    {
      "midi": 63,
      "hit": false,
      "t": 40487.731999998585,
      "d": 243.9019999999582,
      "v": 100
    },
    {
      "midi": 60,
      "hit": false,
      "t": 40487.731999998585,
      "d": 243.9019999999582,
      "v": 100
    },
    {
      "midi": 48,
      "hit": false,
      "t": 40487.73199999985,
      "d": 243.90200000000186,
      "v": 100
    },
    {
      "midi": 36,
      "hit": false,
      "t": 40487.731999999894,
      "d": 203.25166666666337,
      "v": 100
    },
    {
      "midi": 72,
      "hit": false,
      "t": 40487.73200000001,
      "d": 365.8530000000028,
      "v": 100
    },
    {
      "midi": 67,
      "hit": false,
      "t": 40487.73200000001,
      "d": 365.8530000000028,
      "v": 100
    },
    {
      "midi": 63,
      "hit": false,
      "t": 40487.73200000001,
      "d": 365.8530000000028,
      "v": 100
    },
    {
      "midi": 72,
      "hit": false,
      "t": 40487.73200000008,
      "d": 121.95100000000093,
      "v": 100
    },
    {
      "midi": 60,
      "hit": false,
      "t": 40487.732000000105,
      "d": 487.80399999999645,
      "v": 127
    },
    {
      "midi": 33,
      "hit": false,
      "t": 40487.732000000105,
      "d": 1.0162583333367365,
      "v": 127
    },
    {
      "midi": 40,
      "hit": false,
      "t": 40487.732000000105,
      "d": 1.0162583333367365,
      "v": 100
    },
    {
      "midi": 46,
      "hit": false,
      "t": 40487.732000000105,
      "d": 1.0162583333367365,
      "v": 100
    },
    {
      "midi": 54,
      "hit": false,
      "t": 40487.73200000014,
      "d": 1.0162583333367365,
      "v": 80
    },
    {
      "midi": 60,
      "hit": false,
      "t": 40609.68300000008,
      "d": 121.95100000000093,
      "v": 100
    },
    {
      "midi": 44,
      "hit": false,
      "t": 40609.68300000011,
      "d": 1.0162583333367365,
      "v": 100
    },
    {
      "midi": 54,
      "hit": false,
      "t": 40609.68300000014,
      "d": 1.0162583333367365,
      "v": 60
    },
    {
      "midi": 67,
      "hit": false,
      "t": 40731.63399999854,
      "d": 60.975500000000466,
      "v": 100
    },
    {
      "midi": 63,
      "hit": false,
      "t": 40731.63399999854,
      "d": 60.975500000000466,
      "v": 100
    },
    {
      "midi": 60,
      "hit": false,
      "t": 40731.63399999854,
      "d": 60.975500000000466,
      "v": 100
    },
    {
      "midi": 48,
      "hit": false,
      "t": 40731.63399999985,
      "d": 243.90200000000186,
      "v": 100
    },
    {
      "midi": 36,
      "hit": false,
      "t": 40731.63399999989,
      "d": 203.25166666666337,
      "v": 100
    },
    {
      "midi": 67,
      "hit": false,
      "t": 40731.63400000008,
      "d": 121.95100000000093,
      "v": 100
    },
    {
      "midi": 40,
      "hit": false,
      "t": 40731.63400000011,
      "d": 1.0162583333367365,
      "v": 40
    },
    {
      "midi": 46,
      "hit": false,
      "t": 40731.63400000011,
      "d": 1.0162583333367365,
      "v": 100
    },
    {
      "midi": 54,
      "hit": false,
      "t": 40731.634000000144,
      "d": 1.0162583333367365,
      "v": 60
    },
    {
      "midi": 67,
      "hit": false,
      "t": 40853.584999998544,
      "d": 60.975500000000466,
      "v": 100
    },
    {
      "midi": 63,
      "hit": false,
      "t": 40853.584999998544,
      "d": 60.975500000000466,
      "v": 100
    },
    {
      "midi": 60,
      "hit": false,
      "t": 40853.584999998544,
      "d": 60.975500000000466,
      "v": 100
    },
    {
      "midi": 60,
      "hit": false,
      "t": 40853.58500000008,
      "d": 121.95100000000093,
      "v": 100
    },
    {
      "midi": 40,
      "hit": false,
      "t": 40853.58500000011,
      "d": 1.0162583333367365,
      "v": 100
    },
    {
      "midi": 44,
      "hit": false,
      "t": 40853.58500000011,
      "d": 1.0162583333367365,
      "v": 100
    },
    {
      "midi": 54,
      "hit": false,
      "t": 40853.585000000145,
      "d": 1.0162583333367365,
      "v": 60
    },
    {
      "midi": 67,
      "hit": false,
      "t": 40975.535999998545,
      "d": 487.80399999993824,
      "v": 100
    },
    {
      "midi": 63,
      "hit": false,
      "t": 40975.535999998545,
      "d": 487.80399999993824,
      "v": 100
    },
    {
      "midi": 60,
      "hit": false,
      "t": 40975.535999998545,
      "d": 487.80399999993824,
      "v": 100
    },
    {
      "midi": 48,
      "hit": false,
      "t": 40975.535999999855,
      "d": 487.80399999999645,
      "v": 100
    },
    {
      "midi": 55,
      "hit": false,
      "t": 40975.535999999855,
      "d": 487.80399999999645,
      "v": 100
    },
    {
      "midi": 36,
      "hit": false,
      "t": 40975.535999999884,
      "d": 203.25166666666337,
      "v": 100
    },
    {
      "midi": 72,
      "hit": false,
      "t": 40975.536000000015,
      "d": 365.8530000000028,
      "v": 100
    },
    {
      "midi": 67,
      "hit": false,
      "t": 40975.536000000015,
      "d": 365.8530000000028,
      "v": 100
    },
    {
      "midi": 63,
      "hit": false,
      "t": 40975.536000000015,
      "d": 365.8530000000028,
      "v": 100
    },
    {
      "midi": 60,
      "hit": false,
      "t": 40975.53600000008,
      "d": 121.95100000000093,
      "v": 100
    },
    {
      "midi": 60,
      "hit": false,
      "t": 40975.5360000001,
      "d": 121.95100000000093,
      "v": 100
    },
    {
      "midi": 33,
      "hit": false,
      "t": 40975.53600000011,
      "d": 1.0162583333367365,
      "v": 127
    },
    {
      "midi": 42,
      "hit": false,
      "t": 40975.53600000011,
      "d": 1.0162583333367365,
      "v": 100
    },
    {
      "midi": 54,
      "hit": false,
      "t": 40975.536000000146,
      "d": 1.0162583333367365,
      "v": 80
    },
    {
      "midi": 55,
      "hit": false,
      "t": 41097.48700000008,
      "d": 121.95100000000093,
      "v": 100
    },
    {
      "midi": 58,
      "hit": false,
      "t": 41097.4870000001,
      "d": 121.95100000000093,
      "v": 100
    },
    {
      "midi": 54,
      "hit": false,
      "t": 41097.48700000015,
      "d": 1.0162583333367365,
      "v": 60
    },
    {
      "midi": 36,
      "hit": false,
      "t": 41219.43799999988,
      "d": 203.25166666666337,
      "v": 100
    },
    {
      "midi": 67,
      "hit": false,
      "t": 41219.43800000008,
      "d": 121.95100000000093,
      "v": 100
    },
    {
      "midi": 46,
      "hit": false,
      "t": 41219.43800000011,
      "d": 1.0162583333367365,
      "v": 100
    },
    {
      "midi": 54,
      "hit": false,
      "t": 41219.43800000015,
      "d": 1.0162583333367365,
      "v": 60
    },
    {
      "midi": 60,
      "hit": false,
      "t": 41341.38900000008,
      "d": 121.95100000000093,
      "v": 100
    },
    {
      "midi": 60,
      "hit": false,
      "t": 41341.389000000105,
      "d": 121.95100000000093,
      "v": 100
    },
    {
      "midi": 44,
      "hit": false,
      "t": 41341.38900000011,
      "d": 1.0162583333367365,
      "v": 100
    },
    {
      "midi": 54,
      "hit": false,
      "t": 41341.38900000015,
      "d": 1.0162583333367365,
      "v": 60
    },
    {
      "midi": 67,
      "hit": false,
      "t": 41463.33999999848,
      "d": 60.975499999985914,
      "v": 100
    },
    {
      "midi": 63,
      "hit": false,
      "t": 41463.33999999848,
      "d": 60.975499999985914,
      "v": 100
    },
    {
      "midi": 60,
      "hit": false,
      "t": 41463.33999999848,
      "d": 60.975499999985914,
      "v": 100
    },
    {
      "midi": 48,
      "hit": false,
      "t": 41463.33999999985,
      "d": 243.90200000000186,
      "v": 100
    },
    {
      "midi": 36,
      "hit": false,
      "t": 41463.33999999987,
      "d": 203.25166666666337,
      "v": 100
    },
    {
      "midi": 72,
      "hit": false,
      "t": 41463.34000000002,
      "d": 243.90200000000186,
      "v": 100
    },
    {
      "midi": 67,
      "hit": false,
      "t": 41463.34000000002,
      "d": 243.90200000000186,
      "v": 100
    },
    {
      "midi": 63,
      "hit": false,
      "t": 41463.34000000002,
      "d": 243.90200000000186,
      "v": 100
    },
    {
      "midi": 72,
      "hit": false,
      "t": 41463.340000000084,
      "d": 121.95100000000093,
      "v": 100
    },
    {
      "midi": 33,
      "hit": false,
      "t": 41463.34000000011,
      "d": 1.0162583333367365,
      "v": 127
    },
    {
      "midi": 46,
      "hit": false,
      "t": 41463.34000000011,
      "d": 1.0162583333367365,
      "v": 100
    },
    {
      "midi": 40,
      "hit": false,
      "t": 41463.34000000011,
      "d": 1.0162583333367365,
      "v": 100
    },
    {
      "midi": 54,
      "hit": false,
      "t": 41463.34000000015,
      "d": 1.0162583333367365,
      "v": 80
    },
    {
      "midi": 67,
      "hit": false,
      "t": 41585.29099999846,
      "d": 60.97549999999319,
      "v": 100
    },
    {
      "midi": 63,
      "hit": false,
      "t": 41585.29099999846,
      "d": 60.97549999999319,
      "v": 100
    },
    {
      "midi": 60,
      "hit": false,
      "t": 41585.29099999846,
      "d": 60.97549999999319,
      "v": 100
    },
    {
      "midi": 55,
      "hit": false,
      "t": 41585.291000000085,
      "d": 121.95100000000093,
      "v": 100
    },
    {
      "midi": 55,
      "hit": false,
      "t": 41585.29100000011,
      "d": 121.95100000000093,
      "v": 100
    },
    {
      "midi": 44,
      "hit": false,
      "t": 41585.291000000114,
      "d": 1.0162583333367365,
      "v": 100
    },
    {
      "midi": 54,
      "hit": false,
      "t": 41585.29100000015,
      "d": 1.0162583333367365,
      "v": 60
    },
    {
      "midi": 67,
      "hit": false,
      "t": 41707.24199999844,
      "d": 60.975500000000466,
      "v": 100
    },
    {
      "midi": 63,
      "hit": false,
      "t": 41707.24199999844,
      "d": 60.975500000000466,
      "v": 100
    },
    {
      "midi": 60,
      "hit": false,
      "t": 41707.24199999844,
      "d": 60.975500000000466,
      "v": 100
    },
    {
      "midi": 48,
      "hit": false,
      "t": 41707.24199999985,
      "d": 121.95100000000093,
      "v": 100
    },
    {
      "midi": 36,
      "hit": false,
      "t": 41707.24199999987,
      "d": 203.25166666666337,
      "v": 100
    },
    {
      "midi": 60,
      "hit": false,
      "t": 41707.242000000086,
      "d": 121.95100000000093,
      "v": 100
    },
    {
      "midi": 46,
      "hit": false,
      "t": 41707.242000000115,
      "d": 1.0162583333367365,
      "v": 100
    },
    {
      "midi": 54,
      "hit": false,
      "t": 41707.24200000015,
      "d": 1.0162583333367365,
      "v": 60
    },
    {
      "midi": 67,
      "hit": false,
      "t": 41829.19299999844,
      "d": 60.975500000000466,
      "v": 100
    },
    {
      "midi": 63,
      "hit": false,
      "t": 41829.19299999844,
      "d": 60.975500000000466,
      "v": 100
    },
    {
      "midi": 60,
      "hit": false,
      "t": 41829.19299999844,
      "d": 60.975500000000466,
      "v": 100
    },
    {
      "midi": 48,
      "hit": false,
      "t": 41829.192999999854,
      "d": 121.95100000000093,
      "v": 100
    },
    {
      "midi": 72,
      "hit": false,
      "t": 41829.19300000002,
      "d": 121.95100000000093,
      "v": 100
    },
    {
      "midi": 67,
      "hit": false,
      "t": 41829.19300000002,
      "d": 121.95100000000093,
      "v": 100
    },
    {
      "midi": 63,
      "hit": false,
      "t": 41829.19300000002,
      "d": 121.95100000000093,
      "v": 100
    },
    {
      "midi": 67,
      "hit": false,
      "t": 41829.19300000009,
      "d": 121.95100000000093,
      "v": 100
    },
    {
      "midi": 55,
      "hit": false,
      "t": 41829.19300000011,
      "d": 121.95100000000093,
      "v": 100
    },
    {
      "midi": 44,
      "hit": false,
      "t": 41829.193000000116,
      "d": 1.0162583333367365,
      "v": 100
    },
    {
      "midi": 54,
      "hit": false,
      "t": 41829.19300000015,
      "d": 1.0162583333367365,
      "v": 60
    },
    {
      "midi": 67,
      "hit": false,
      "t": 41951.14399999844,
      "d": 60.975499999985914,
      "v": 100
    },
    {
      "midi": 63,
      "hit": false,
      "t": 41951.14399999844,
      "d": 60.975499999985914,
      "v": 100
    },
    {
      "midi": 60,
      "hit": false,
      "t": 41951.14399999844,
      "d": 60.975499999985914,
      "v": 100
    },
    {
      "midi": 48,
      "hit": false,
      "t": 41951.143999999855,
      "d": 121.95100000000093,
      "v": 100
    },
    {
      "midi": 36,
      "hit": false,
      "t": 41951.14399999986,
      "d": 203.25166666666337,
      "v": 100
    },
    {
      "midi": 60,
      "hit": false,
      "t": 41951.14400000009,
      "d": 121.95100000000093,
      "v": 100
    },
    {
      "midi": 33,
      "hit": false,
      "t": 41951.14400000012,
      "d": 1.0162583333367365,
      "v": 127
    },
    {
      "midi": 42,
      "hit": false,
      "t": 41951.14400000012,
      "d": 1.0162583333367365,
      "v": 100
    },
    {
      "midi": 54,
      "hit": false,
      "t": 41951.14400000015,
      "d": 1.0162583333367365,
      "v": 80
    },
    {
      "midi": 67,
      "hit": false,
      "t": 42073.09499999842,
      "d": 60.97549999999319,
      "v": 100
    },
    {
      "midi": 63,
      "hit": false,
      "t": 42073.09499999842,
      "d": 60.97549999999319,
      "v": 100
    },
    {
      "midi": 60,
      "hit": false,
      "t": 42073.09499999842,
      "d": 60.97549999999319,
      "v": 100
    },
    {
      "midi": 48,
      "hit": false,
      "t": 42073.094999999856,
      "d": 121.95100000000093,
      "v": 100
    },
    {
      "midi": 72,
      "hit": false,
      "t": 42073.09500000002,
      "d": 243.90200000000186,
      "v": 100
    },
    {
      "midi": 67,
      "hit": false,
      "t": 42073.09500000002,
      "d": 243.90200000000186,
      "v": 100
    },
    {
      "midi": 63,
      "hit": false,
      "t": 42073.09500000002,
      "d": 243.90200000000186,
      "v": 100
    },
    {
      "midi": 55,
      "hit": false,
      "t": 42073.09500000009,
      "d": 121.95100000000093,
      "v": 100
    },
    {
      "midi": 55,
      "hit": false,
      "t": 42073.09500000011,
      "d": 121.95100000000093,
      "v": 100
    },
    {
      "midi": 54,
      "hit": false,
      "t": 42073.095000000154,
      "d": 1.0162583333367365,
      "v": 60
    },
    {
      "midi": 67,
      "hit": false,
      "t": 42195.0459999984,
      "d": 60.975500000000466,
      "v": 100
    },
    {
      "midi": 63,
      "hit": false,
      "t": 42195.0459999984,
      "d": 60.975500000000466,
      "v": 100
    },
    {
      "midi": 60,
      "hit": false,
      "t": 42195.0459999984,
      "d": 60.975500000000466,
      "v": 100
    },
    {
      "midi": 48,
      "hit": false,
      "t": 42195.04599999986,
      "d": 243.90200000000186,
      "v": 100
    },
    {
      "midi": 36,
      "hit": false,
      "t": 42195.04599999986,
      "d": 203.25166666666337,
      "v": 100
    },
    {
      "midi": 72,
      "hit": false,
      "t": 42195.04600000009,
      "d": 121.95100000000093,
      "v": 100
    },
    {
      "midi": 58,
      "hit": false,
      "t": 42195.04600000011,
      "d": 121.95100000000093,
      "v": 100
    },
    {
      "midi": 46,
      "hit": false,
      "t": 42195.04600000012,
      "d": 1.0162583333367365,
      "v": 100
    },
    {
      "midi": 54,
      "hit": false,
      "t": 42195.046000000155,
      "d": 1.0162583333367365,
      "v": 60
    },
    {
      "midi": 67,
      "hit": false,
      "t": 42316.9969999984,
      "d": 60.975500000000466,
      "v": 100
    },
    {
      "midi": 63,
      "hit": false,
      "t": 42316.9969999984,
      "d": 60.975500000000466,
      "v": 100
    },
    {
      "midi": 60,
      "hit": false,
      "t": 42316.9969999984,
      "d": 60.975500000000466,
      "v": 100
    },
    {
      "midi": 60,
      "hit": false,
      "t": 42316.99700000009,
      "d": 121.95100000000093,
      "v": 100
    },
    {
      "midi": 44,
      "hit": false,
      "t": 42316.99700000012,
      "d": 1.0162583333367365,
      "v": 100
    },
    {
      "midi": 54,
      "hit": false,
      "t": 42316.997000000156,
      "d": 1.0162583333367365,
      "v": 60
    },
    {
      "midi": 67,
      "hit": false,
      "t": 42438.9479999984,
      "d": 243.9019999999582,
      "v": 100
    },
    {
      "midi": 63,
      "hit": false,
      "t": 42438.9479999984,
      "d": 243.9019999999582,
      "v": 100
    },
    {
      "midi": 60,
      "hit": false,
      "t": 42438.9479999984,
      "d": 243.9019999999582,
      "v": 100
    },
    {
      "midi": 36,
      "hit": false,
      "t": 42438.94799999985,
      "d": 203.25166666666337,
      "v": 100
    },
    {
      "midi": 48,
      "hit": false,
      "t": 42438.94799999986,
      "d": 243.90200000000186,
      "v": 100
    },
    {
      "midi": 55,
      "hit": false,
      "t": 42438.94799999986,
      "d": 243.90200000000186,
      "v": 100
    },
    {
      "midi": 72,
      "hit": false,
      "t": 42438.948000000026,
      "d": 365.8530000000028,
      "v": 100
    },
    {
      "midi": 67,
      "hit": false,
      "t": 42438.948000000026,
      "d": 365.8530000000028,
      "v": 100
    },
    {
      "midi": 63,
      "hit": false,
      "t": 42438.948000000026,
      "d": 365.8530000000028,
      "v": 100
    },
    {
      "midi": 72,
      "hit": false,
      "t": 42438.94800000009,
      "d": 121.95100000000093,
      "v": 100
    },
    {
      "midi": 60,
      "hit": false,
      "t": 42438.94800000011,
      "d": 121.95100000000093,
      "v": 100
    },
    {
      "midi": 33,
      "hit": false,
      "t": 42438.94800000012,
      "d": 1.0162583333367365,
      "v": 127
    },
    {
      "midi": 40,
      "hit": false,
      "t": 42438.94800000012,
      "d": 1.0162583333367365,
      "v": 100
    },
    {
      "midi": 46,
      "hit": false,
      "t": 42438.94800000012,
      "d": 1.0162583333367365,
      "v": 100
    },
    {
      "midi": 54,
      "hit": false,
      "t": 42438.94800000016,
      "d": 1.0162583333367365,
      "v": 80
    },
    {
      "midi": 60,
      "hit": false,
      "t": 42560.89900000009,
      "d": 121.95100000000093,
      "v": 100
    },
    {
      "midi": 44,
      "hit": false,
      "t": 42560.89900000012,
      "d": 1.0162583333367365,
      "v": 100
    },
    {
      "midi": 54,
      "hit": false,
      "t": 42560.89900000016,
      "d": 1.0162583333367365,
      "v": 60
    },
    {
      "midi": 67,
      "hit": false,
      "t": 42682.84999999836,
      "d": 60.975500000000466,
      "v": 100
    },
    {
      "midi": 63,
      "hit": false,
      "t": 42682.84999999836,
      "d": 60.975500000000466,
      "v": 100
    },
    {
      "midi": 60,
      "hit": false,
      "t": 42682.84999999836,
      "d": 60.975500000000466,
      "v": 100
    },
    {
      "midi": 36,
      "hit": false,
      "t": 42682.849999999846,
      "d": 203.25166666666337,
      "v": 100
    },
    {
      "midi": 48,
      "hit": false,
      "t": 42682.84999999986,
      "d": 243.90200000000186,
      "v": 100
    },
    {
      "midi": 67,
      "hit": false,
      "t": 42682.85000000009,
      "d": 121.95100000000093,
      "v": 100
    },
    {
      "midi": 40,
      "hit": false,
      "t": 42682.85000000012,
      "d": 1.0162583333367365,
      "v": 40
    },
    {
      "midi": 46,
      "hit": false,
      "t": 42682.85000000012,
      "d": 1.0162583333367365,
      "v": 100
    },
    {
      "midi": 54,
      "hit": false,
      "t": 42682.85000000016,
      "d": 1.0162583333367365,
      "v": 60
    },
    {
      "midi": 67,
      "hit": false,
      "t": 42804.80099999836,
      "d": 60.975500000000466,
      "v": 100
    },
    {
      "midi": 63,
      "hit": false,
      "t": 42804.80099999836,
      "d": 60.975500000000466,
      "v": 100
    },
    {
      "midi": 60,
      "hit": false,
      "t": 42804.80099999836,
      "d": 60.975500000000466,
      "v": 100
    },
    {
      "midi": 60,
      "hit": false,
      "t": 42804.801000000094,
      "d": 121.95100000000093,
      "v": 100
    },
    {
      "midi": 40,
      "hit": false,
      "t": 42804.80100000012,
      "d": 1.0162583333367365,
      "v": 100
    },
    {
      "midi": 44,
      "hit": false,
      "t": 42804.80100000012,
      "d": 1.0162583333367365,
      "v": 100
    },
    {
      "midi": 54,
      "hit": false,
      "t": 42804.80100000016,
      "d": 1.0162583333367365,
      "v": 60
    },
    {
      "midi": 67,
      "hit": false,
      "t": 42926.75199999836,
      "d": 243.90199999997276,
      "v": 100
    },
    {
      "midi": 63,
      "hit": false,
      "t": 42926.75199999836,
      "d": 254.06458333330374,
      "v": 100
    },
    {
      "midi": 60,
      "hit": false,
      "t": 42926.75199999836,
      "d": 264.22716666663473,
      "v": 100
    },
    {
      "midi": 36,
      "hit": false,
      "t": 42926.75199999984,
      "d": 203.25166666666337,
      "v": 100
    },
    {
      "midi": 48,
      "hit": false,
      "t": 42926.75199999986,
      "d": 243.90200000000186,
      "v": 100
    },
    {
      "midi": 55,
      "hit": false,
      "t": 42926.75199999986,
      "d": 243.90200000000186,
      "v": 100
    },
    {
      "midi": 72,
      "hit": false,
      "t": 42926.75200000003,
      "d": 243.90200000000186,
      "v": 100
    },
    {
      "midi": 67,
      "hit": false,
      "t": 42926.75200000003,
      "d": 243.90200000000186,
      "v": 100
    },
    {
      "midi": 63,
      "hit": false,
      "t": 42926.75200000003,
      "d": 243.90200000000186,
      "v": 100
    },
    {
      "midi": 60,
      "hit": false,
      "t": 42926.752000000095,
      "d": 121.95100000000093,
      "v": 100
    },
    {
      "midi": 42,
      "hit": false,
      "t": 42926.752000000124,
      "d": 1.0162583333367365,
      "v": 100
    },
    {
      "midi": 33,
      "hit": false,
      "t": 42926.752000000124,
      "d": 1.0162583333367365,
      "v": 127
    },
    {
      "midi": 57,
      "hit": false,
      "t": 42926.752000000124,
      "d": 1.0162583333367365,
      "v": 100
    },
    {
      "midi": 55,
      "hit": false,
      "t": 43048.703000000096,
      "d": 121.95100000000093,
      "v": 100
    },
    {
      "midi": 40,
      "hit": false,
      "t": 43048.703000000125,
      "d": 1.0162583333367365,
      "v": 100
    },
    {
      "midi": 67,
      "hit": false,
      "t": 43170.6540000001,
      "d": 121.95100000000093,
      "v": 100
    },
    {
      "midi": 46,
      "hit": false,
      "t": 43170.654000000126,
      "d": 1.0162583333367365,
      "v": 100
    },
    {
      "midi": 60,
      "hit": false,
      "t": 43292.6050000001,
      "d": 121.95100000000093,
      "v": 100
    },
    {
      "midi": 44,
      "hit": false,
      "t": 43292.60500000013,
      "d": 1.0162583333367365,
      "v": 100
    },
    {
      "midi": 40,
      "hit": false,
      "t": 43292.60500000013,
      "d": 1.0162583333367365,
      "v": 100
    },
    {
      "midi": 72,
      "hit": false,
      "t": 43414.5560000001,
      "d": 121.95100000000093,
      "v": 100
    },
    {
      "midi": 46,
      "hit": false,
      "t": 43414.55600000013,
      "d": 1.0162583333367365,
      "v": 100
    },
    {
      "midi": 41,
      "hit": false,
      "t": 43414.556000000164,
      "d": 1.0162583333367365,
      "v": 80
    },
    {
      "midi": 55,
      "hit": false,
      "t": 43536.5070000001,
      "d": 121.95100000000093,
      "v": 100
    },
    {
      "midi": 44,
      "hit": false,
      "t": 43536.50700000013,
      "d": 1.0162583333367365,
      "v": 100
    },
    {
      "midi": 60,
      "hit": false,
      "t": 43658.4580000001,
      "d": 121.95100000000093,
      "v": 100
    },
    {
      "midi": 46,
      "hit": false,
      "t": 43658.45800000013,
      "d": 1.0162583333367365,
      "v": 100
    },
    {
      "midi": 40,
      "hit": false,
      "t": 43658.45800000013,
      "d": 1.0162583333367365,
      "v": 100
    },
    {
      "midi": 67,
      "hit": false,
      "t": 43780.4090000001,
      "d": 121.95100000000093,
      "v": 100
    },
    {
      "midi": 44,
      "hit": false,
      "t": 43780.40900000013,
      "d": 1.0162583333367365,
      "v": 100
    },
    {
      "midi": 41,
      "hit": false,
      "t": 43780.40900000017,
      "d": 1.0162583333367365,
      "v": 80
    },
    {
      "midi": 60,
      "hit": false,
      "t": 43902.3600000001,
      "d": 121.95100000000093,
      "v": 100
    },
    {
      "midi": 42,
      "hit": false,
      "t": 43902.36000000013,
      "d": 1.0162583333367365,
      "v": 100
    },
    {
      "midi": 40,
      "hit": false,
      "t": 43902.36000000013,
      "d": 1.0162583333367365,
      "v": 100
    },
    {
      "midi": 55,
      "hit": false,
      "t": 44024.3110000001,
      "d": 121.95100000000093,
      "v": 100
    },
    {
      "midi": 41,
      "hit": false,
      "t": 44024.31100000017,
      "d": 1.0162583333367365,
      "v": 80
    },
    {
      "midi": 55,
      "hit": false,
      "t": 44146.261999999864,
      "d": 731.7059999998382,
      "v": 100
    },
    {
      "midi": 51,
      "hit": false,
      "t": 44146.261999999864,
      "d": 731.7059999998382,
      "v": 100
    },
    {
      "midi": 72,
      "hit": false,
      "t": 44146.262000000104,
      "d": 121.95100000000093,
      "v": 100
    },
    {
      "midi": 46,
      "hit": false,
      "t": 44146.26200000013,
      "d": 1.0162583333367365,
      "v": 100
    },
    {
      "midi": 60,
      "hit": false,
      "t": 44268.213000000105,
      "d": 121.95100000000093,
      "v": 100
    },
    {
      "midi": 44,
      "hit": false,
      "t": 44268.213000000134,
      "d": 1.0162583333367365,
      "v": 100
    },
    {
      "midi": 40,
      "hit": false,
      "t": 44268.213000000134,
      "d": 1.0162583333367365,
      "v": 40
    },
    {
      "midi": 72,
      "hit": false,
      "t": 44390.164000000106,
      "d": 121.95100000000093,
      "v": 100
    },
    {
      "midi": 40,
      "hit": false,
      "t": 44390.164000000135,
      "d": 1.0162583333367365,
      "v": 100
    },
    {
      "midi": 46,
      "hit": false,
      "t": 44390.164000000135,
      "d": 1.0162583333367365,
      "v": 100
    },
    {
      "midi": 57,
      "hit": false,
      "t": 44390.164000000135,
      "d": 1.0162583333367365,
      "v": 100
    },
    {
      "midi": 60,
      "hit": false,
      "t": 44512.11500000011,
      "d": 121.95100000000093,
      "v": 100
    },
    {
      "midi": 44,
      "hit": false,
      "t": 44512.115000000136,
      "d": 1.0162583333367365,
      "v": 100
    },
    {
      "midi": 67,
      "hit": false,
      "t": 44634.06600000011,
      "d": 121.95100000000093,
      "v": 100
    },
    {
      "midi": 40,
      "hit": false,
      "t": 44634.06600000014,
      "d": 1.0162583333367365,
      "v": 40
    },
    {
      "midi": 46,
      "hit": false,
      "t": 44634.06600000014,
      "d": 1.0162583333367365,
      "v": 100
    },
    {
      "midi": 60,
      "hit": false,
      "t": 44756.01700000011,
      "d": 121.95100000000093,
      "v": 100
    },
    {
      "midi": 40,
      "hit": false,
      "t": 44756.01700000014,
      "d": 1.0162583333367365,
      "v": 100
    },
    {
      "midi": 44,
      "hit": false,
      "t": 44756.01700000014,
      "d": 1.0162583333367365,
      "v": 100
    },
    {
      "midi": 67,
      "hit": false,
      "t": 44877.9679999983,
      "d": 487.80399999993824,
      "v": 100
    },
    {
      "midi": 63,
      "hit": false,
      "t": 44877.9679999983,
      "d": 487.80399999993824,
      "v": 100
    },
    {
      "midi": 72,
      "hit": false,
      "t": 44877.9679999983,
      "d": 487.80399999993824,
      "v": 100
    },
    {
      "midi": 55,
      "hit": false,
      "t": 44877.9679999997,
      "d": 487.80399999999645,
      "v": 100
    },
    {
      "midi": 48,
      "hit": false,
      "t": 44877.9679999997,
      "d": 487.80399999999645,
      "v": 100
    },
    {
      "midi": 36,
      "hit": false,
      "t": 44877.96799999983,
      "d": 243.90200000000186,
      "v": 100
    },
    {
      "midi": 72,
      "hit": false,
      "t": 44877.968,
      "d": 243.90200000000186,
      "v": 100
    },
    {
      "midi": 72,
      "hit": false,
      "t": 44877.96800000003,
      "d": 487.80399999999645,
      "v": 100
    },
    {
      "midi": 67,
      "hit": false,
      "t": 44877.96800000003,
      "d": 487.80399999999645,
      "v": 100
    },
    {
      "midi": 63,
      "hit": false,
      "t": 44877.96800000003,
      "d": 487.80399999999645,
      "v": 100
    },
    {
      "midi": 60,
      "hit": false,
      "t": 44877.96800000011,
      "d": 121.95100000000093,
      "v": 100
    },
    {
      "midi": 60,
      "hit": false,
      "t": 44877.96800000012,
      "d": 121.95100000000093,
      "v": 100
    },
    {
      "midi": 33,
      "hit": false,
      "t": 44877.96800000014,
      "d": 1.0162583333367365,
      "v": 127
    },
    {
      "midi": 42,
      "hit": false,
      "t": 44877.96800000014,
      "d": 1.0162583333367365,
      "v": 100
    },
    {
      "midi": 57,
      "hit": false,
      "t": 44877.96800000014,
      "d": 1.0162583333367365,
      "v": 100
    },
    {
      "midi": 55,
      "hit": false,
      "t": 44999.91900000011,
      "d": 121.95100000000093,
      "v": 100
    },
    {
      "midi": 58,
      "hit": false,
      "t": 44999.91900000012,
      "d": 121.95100000000093,
      "v": 100
    },
    {
      "midi": 36,
      "hit": false,
      "t": 45121.869999999835,
      "d": 243.90200000000186,
      "v": 100
    },
    {
      "midi": 72,
      "hit": false,
      "t": 45121.87,
      "d": 243.90200000000186,
      "v": 100
    },
    {
      "midi": 67,
      "hit": false,
      "t": 45121.87000000011,
      "d": 121.95100000000093,
      "v": 100
    },
    {
      "midi": 46,
      "hit": false,
      "t": 45121.87000000014,
      "d": 1.0162583333367365,
      "v": 100
    },
    {
      "midi": 60,
      "hit": false,
      "t": 45243.82100000011,
      "d": 121.95100000000093,
      "v": 100
    },
    {
      "midi": 60,
      "hit": false,
      "t": 45243.82100000012,
      "d": 121.95100000000093,
      "v": 100
    },
    {
      "midi": 44,
      "hit": false,
      "t": 45243.82100000014,
      "d": 1.0162583333367365,
      "v": 100
    },
    {
      "midi": 67,
      "hit": false,
      "t": 45365.77199999824,
      "d": 60.975499999985914,
      "v": 100
    },
    {
      "midi": 63,
      "hit": false,
      "t": 45365.77199999824,
      "d": 60.975499999985914,
      "v": 100
    },
    {
      "midi": 72,
      "hit": false,
      "t": 45365.77199999824,
      "d": 60.975499999985914,
      "v": 100
    },
    {
      "midi": 48,
      "hit": false,
      "t": 45365.7719999997,
      "d": 243.90200000000186,
      "v": 100
    },
    {
      "midi": 36,
      "hit": false,
      "t": 45365.77199999984,
      "d": 243.90200000000186,
      "v": 100
    },
    {
      "midi": 72,
      "hit": false,
      "t": 45365.772000000004,
      "d": 243.90200000000186,
      "v": 100
    },
    {
      "midi": 72,
      "hit": false,
      "t": 45365.77200000011,
      "d": 121.95100000000093,
      "v": 100
    },
    {
      "midi": 33,
      "hit": false,
      "t": 45365.77200000014,
      "d": 1.0162583333367365,
      "v": 127
    },
    {
      "midi": 40,
      "hit": false,
      "t": 45365.77200000014,
      "d": 1.0162583333367365,
      "v": 100
    },
    {
      "midi": 46,
      "hit": false,
      "t": 45365.77200000014,
      "d": 1.0162583333367365,
      "v": 100
    },
    {
      "midi": 67,
      "hit": false,
      "t": 45487.722999998216,
      "d": 60.97549999999319,
      "v": 100
    },
    {
      "midi": 63,
      "hit": false,
      "t": 45487.722999998216,
      "d": 60.97549999999319,
      "v": 100
    },
    {
      "midi": 72,
      "hit": false,
      "t": 45487.722999998216,
      "d": 60.97549999999319,
      "v": 100
    },
    {
      "midi": 55,
      "hit": false,
      "t": 45487.723000000115,
      "d": 121.95100000000093,
      "v": 100
    },
    {
      "midi": 55,
      "hit": false,
      "t": 45487.72300000012,
      "d": 121.95100000000093,
      "v": 100
    },
    {
      "midi": 44,
      "hit": false,
      "t": 45487.723000000144,
      "d": 1.0162583333367365,
      "v": 100
    },
    {
      "midi": 67,
      "hit": false,
      "t": 45609.673999998195,
      "d": 60.975500000000466,
      "v": 100
    },
    {
      "midi": 63,
      "hit": false,
      "t": 45609.673999998195,
      "d": 60.975500000000466,
      "v": 100
    },
    {
      "midi": 72,
      "hit": false,
      "t": 45609.673999998195,
      "d": 60.975500000000466,
      "v": 100
    },
    {
      "midi": 48,
      "hit": false,
      "t": 45609.6739999997,
      "d": 121.95100000000093,
      "v": 100
    },
    {
      "midi": 36,
      "hit": false,
      "t": 45609.67399999984,
      "d": 121.95100000000093,
      "v": 100
    },
    {
      "midi": 72,
      "hit": false,
      "t": 45609.674000000006,
      "d": 121.95100000000093,
      "v": 100
    },
    {
      "midi": 60,
      "hit": false,
      "t": 45609.674000000115,
      "d": 121.95100000000093,
      "v": 100
    },
    {
      "midi": 46,
      "hit": false,
      "t": 45609.674000000145,
      "d": 1.0162583333367365,
      "v": 100
    },
    {
      "midi": 67,
      "hit": false,
      "t": 45731.624999998196,
      "d": 60.975500000000466,
      "v": 100
    },
    {
      "midi": 63,
      "hit": false,
      "t": 45731.624999998196,
      "d": 60.975500000000466,
      "v": 100
    },
    {
      "midi": 72,
      "hit": false,
      "t": 45731.624999998196,
      "d": 60.975500000000466,
      "v": 100
    },
    {
      "midi": 48,
      "hit": false,
      "t": 45731.6249999997,
      "d": 121.95100000000093,
      "v": 100
    },
    {
      "midi": 36,
      "hit": false,
      "t": 45731.62499999984,
      "d": 243.90200000000186,
      "v": 100
    },
    {
      "midi": 72,
      "hit": false,
      "t": 45731.62500000001,
      "d": 243.90200000000186,
      "v": 100
    },
    {
      "midi": 67,
      "hit": false,
      "t": 45731.62500000012,
      "d": 121.95100000000093,
      "v": 100
    },
    {
      "midi": 55,
      "hit": false,
      "t": 45731.625000000124,
      "d": 121.95100000000093,
      "v": 100
    },
    {
      "midi": 44,
      "hit": false,
      "t": 45731.625000000146,
      "d": 1.0162583333367365,
      "v": 100
    },
    {
      "midi": 67,
      "hit": false,
      "t": 45853.5759999982,
      "d": 60.975499999985914,
      "v": 100
    },
    {
      "midi": 63,
      "hit": false,
      "t": 45853.5759999982,
      "d": 60.975499999985914,
      "v": 100
    },
    {
      "midi": 72,
      "hit": false,
      "t": 45853.5759999982,
      "d": 60.975499999985914,
      "v": 100
    },
    {
      "midi": 48,
      "hit": false,
      "t": 45853.5759999997,
      "d": 121.95100000000093,
      "v": 100
    },
    {
      "midi": 60,
      "hit": false,
      "t": 45853.57600000012,
      "d": 121.95100000000093,
      "v": 100
    },
    {
      "midi": 33,
      "hit": false,
      "t": 45853.57600000015,
      "d": 1.0162583333367365,
      "v": 127
    },
    {
      "midi": 42,
      "hit": false,
      "t": 45853.57600000015,
      "d": 1.0162583333367365,
      "v": 100
    },
    {
      "midi": 67,
      "hit": false,
      "t": 45975.526999998176,
      "d": 60.97549999999319,
      "v": 100
    },
    {
      "midi": 63,
      "hit": false,
      "t": 45975.526999998176,
      "d": 60.97549999999319,
      "v": 100
    },
    {
      "midi": 72,
      "hit": false,
      "t": 45975.526999998176,
      "d": 60.97549999999319,
      "v": 100
    },
    {
      "midi": 48,
      "hit": false,
      "t": 45975.5269999997,
      "d": 121.95100000000093,
      "v": 100
    },
    {
      "midi": 36,
      "hit": false,
      "t": 45975.52699999984,
      "d": 121.95100000000093,
      "v": 100
    },
    {
      "midi": 72,
      "hit": false,
      "t": 45975.52700000001,
      "d": 121.95100000000093,
      "v": 100
    },
    {
      "midi": 55,
      "hit": false,
      "t": 45975.52700000012,
      "d": 121.95100000000093,
      "v": 100
    },
    {
      "midi": 55,
      "hit": false,
      "t": 45975.527000000126,
      "d": 121.95100000000093,
      "v": 100
    },
    {
      "midi": 67,
      "hit": false,
      "t": 46097.477999998155,
      "d": 60.975500000000466,
      "v": 100
    },
    {
      "midi": 63,
      "hit": false,
      "t": 46097.477999998155,
      "d": 60.975500000000466,
      "v": 100
    },
    {
      "midi": 72,
      "hit": false,
      "t": 46097.477999998155,
      "d": 60.975500000000466,
      "v": 100
    },
    {
      "midi": 48,
      "hit": false,
      "t": 46097.477999999704,
      "d": 243.90200000000186,
      "v": 100
    },
    {
      "midi": 36,
      "hit": false,
      "t": 46097.47799999984,
      "d": 243.90200000000186,
      "v": 100
    },
    {
      "midi": 72,
      "hit": false,
      "t": 46097.47800000001,
      "d": 243.90200000000186,
      "v": 100
    },
    {
      "midi": 72,
      "hit": false,
      "t": 46097.47800000012,
      "d": 121.95100000000093,
      "v": 100
    },
    {
      "midi": 58,
      "hit": false,
      "t": 46097.47800000013,
      "d": 121.95100000000093,
      "v": 100
    },
    {
      "midi": 46,
      "hit": false,
      "t": 46097.47800000015,
      "d": 1.0162583333367365,
      "v": 100
    },
    {
      "midi": 67,
      "hit": false,
      "t": 46219.428999998156,
      "d": 60.975500000000466,
      "v": 100
    },
    {
      "midi": 63,
      "hit": false,
      "t": 46219.428999998156,
      "d": 60.975500000000466,
      "v": 100
    },
    {
      "midi": 72,
      "hit": false,
      "t": 46219.428999998156,
      "d": 60.975500000000466,
      "v": 100
    },
    {
      "midi": 60,
      "hit": false,
      "t": 46219.42900000012,
      "d": 121.95100000000093,
      "v": 100
    },
    {
      "midi": 44,
      "hit": false,
      "t": 46219.42900000015,
      "d": 1.0162583333367365,
      "v": 100
    },
    {
      "midi": 67,
      "hit": false,
      "t": 46341.37999999816,
      "d": 60.975499999985914,
      "v": 100
    },
    {
      "midi": 63,
      "hit": false,
      "t": 46341.37999999816,
      "d": 60.975499999985914,
      "v": 100
    },
    {
      "midi": 72,
      "hit": false,
      "t": 46341.37999999816,
      "d": 60.975499999985914,
      "v": 100
    },
    {
      "midi": 48,
      "hit": false,
      "t": 46341.379999999706,
      "d": 243.90200000000186,
      "v": 100
    },
    {
      "midi": 55,
      "hit": false,
      "t": 46341.379999999706,
      "d": 243.90200000000186,
      "v": 100
    },
    {
      "midi": 36,
      "hit": false,
      "t": 46341.379999999845,
      "d": 243.90200000000186,
      "v": 100
    },
    {
      "midi": 72,
      "hit": false,
      "t": 46341.38000000001,
      "d": 365.8530000000028,
      "v": 100
    },
    {
      "midi": 72,
      "hit": false,
      "t": 46341.38000000003,
      "d": 487.80399999999645,
      "v": 100
    },
    {
      "midi": 67,
      "hit": false,
      "t": 46341.38000000003,
      "d": 487.80399999999645,
      "v": 100
    },
    {
      "midi": 63,
      "hit": false,
      "t": 46341.38000000003,
      "d": 487.80399999999645,
      "v": 100
    },
    {
      "midi": 72,
      "hit": false,
      "t": 46341.38000000012,
      "d": 121.95100000000093,
      "v": 100
    },
    {
      "midi": 60,
      "hit": false,
      "t": 46341.38000000013,
      "d": 121.95100000000093,
      "v": 100
    },
    {
      "midi": 33,
      "hit": false,
      "t": 46341.38000000015,
      "d": 1.0162583333367365,
      "v": 127
    },
    {
      "midi": 40,
      "hit": false,
      "t": 46341.38000000015,
      "d": 1.0162583333367365,
      "v": 100
    },
    {
      "midi": 46,
      "hit": false,
      "t": 46341.38000000015,
      "d": 1.0162583333367365,
      "v": 100
    },
    {
      "midi": 67,
      "hit": false,
      "t": 46463.330999998136,
      "d": 60.97549999999319,
      "v": 100
    },
    {
      "midi": 63,
      "hit": false,
      "t": 46463.330999998136,
      "d": 60.97549999999319,
      "v": 100
    },
    {
      "midi": 72,
      "hit": false,
      "t": 46463.330999998136,
      "d": 60.97549999999319,
      "v": 100
    },
    {
      "midi": 60,
      "hit": false,
      "t": 46463.33100000012,
      "d": 121.95100000000093,
      "v": 100
    },
    {
      "midi": 44,
      "hit": false,
      "t": 46463.33100000015,
      "d": 1.0162583333367365,
      "v": 100
    },
    {
      "midi": 67,
      "hit": false,
      "t": 46585.281999998115,
      "d": 60.975500000000466,
      "v": 100
    },
    {
      "midi": 63,
      "hit": false,
      "t": 46585.281999998115,
      "d": 60.975500000000466,
      "v": 100
    },
    {
      "midi": 72,
      "hit": false,
      "t": 46585.281999998115,
      "d": 60.975500000000466,
      "v": 100
    },
    {
      "midi": 48,
      "hit": false,
      "t": 46585.28199999971,
      "d": 121.95100000000093,
      "v": 100
    },
    {
      "midi": 36,
      "hit": false,
      "t": 46585.28199999985,
      "d": 243.90200000000186,
      "v": 100
    },
    {
      "midi": 67,
      "hit": false,
      "t": 46585.28200000012,
      "d": 121.95100000000093,
      "v": 100
    },
    {
      "midi": 46,
      "hit": false,
      "t": 46585.28200000015,
      "d": 1.0162583333367365,
      "v": 100
    },
    {
      "midi": 67,
      "hit": false,
      "t": 46707.232999998116,
      "d": 60.975500000000466,
      "v": 100
    },
    {
      "midi": 63,
      "hit": false,
      "t": 46707.232999998116,
      "d": 60.975500000000466,
      "v": 100
    },
    {
      "midi": 72,
      "hit": false,
      "t": 46707.232999998116,
      "d": 60.975500000000466,
      "v": 100
    },
    {
      "midi": 48,
      "hit": false,
      "t": 46707.23299999971,
      "d": 121.95100000000093,
      "v": 100
    },
    {
      "midi": 60,
      "hit": false,
      "t": 46707.233000000124,
      "d": 121.95100000000093,
      "v": 100
    },
    {
      "midi": 44,
      "hit": false,
      "t": 46707.23300000015,
      "d": 1.0162583333367365,
      "v": 100
    },
    {
      "midi": 70,
      "hit": false,
      "t": 46829.18399999812,
      "d": 60.975499999985914,
      "v": 100
    },
    {
      "midi": 75,
      "hit": false,
      "t": 46829.18399999812,
      "d": 60.975499999985914,
      "v": 100
    },
    {
      "midi": 67,
      "hit": false,
      "t": 46829.18399999812,
      "d": 60.975499999985914,
      "v": 100
    },
    {
      "midi": 51,
      "hit": false,
      "t": 46829.18399999971,
      "d": 243.90200000000186,
      "v": 100
    },
    {
      "midi": 39,
      "hit": false,
      "t": 46829.18399999985,
      "d": 243.90200000000186,
      "v": 100
    },
    {
      "midi": 75,
      "hit": false,
      "t": 46829.184000000016,
      "d": 243.90200000000186,
      "v": 100
    },
    {
      "midi": 75,
      "hit": false,
      "t": 46829.18400000002,
      "d": 487.80399999999645,
      "v": 100
    },
    {
      "midi": 70,
      "hit": false,
      "t": 46829.18400000002,
      "d": 487.80399999999645,
      "v": 100
    },
    {
      "midi": 67,
      "hit": false,
      "t": 46829.18400000002,
      "d": 487.80399999999645,
      "v": 100
    },
    {
      "midi": 63,
      "hit": false,
      "t": 46829.184000000125,
      "d": 121.95100000000093,
      "v": 100
    },
    {
      "midi": 60,
      "hit": false,
      "t": 46829.18400000013,
      "d": 121.95100000000093,
      "v": 100
    },
    {
      "midi": 33,
      "hit": false,
      "t": 46829.184000000154,
      "d": 1.0162583333367365,
      "v": 127
    },
    {
      "midi": 42,
      "hit": false,
      "t": 46829.184000000154,
      "d": 1.0162583333367365,
      "v": 100
    },
    {
      "midi": 70,
      "hit": false,
      "t": 46951.134999998096,
      "d": 60.97549999999319,
      "v": 100
    },
    {
      "midi": 75,
      "hit": false,
      "t": 46951.134999998096,
      "d": 60.97549999999319,
      "v": 100
    },
    {
      "midi": 67,
      "hit": false,
      "t": 46951.134999998096,
      "d": 60.97549999999319,
      "v": 100
    },
    {
      "midi": 55,
      "hit": false,
      "t": 46951.135000000126,
      "d": 121.95100000000093,
      "v": 100
    },
    {
      "midi": 58,
      "hit": false,
      "t": 46951.13500000013,
      "d": 121.95100000000093,
      "v": 100
    },
    {
      "midi": 70,
      "hit": false,
      "t": 47073.085999998075,
      "d": 60.975500000000466,
      "v": 100
    },
    {
      "midi": 75,
      "hit": false,
      "t": 47073.085999998075,
      "d": 60.975500000000466,
      "v": 100
    },
    {
      "midi": 67,
      "hit": false,
      "t": 47073.085999998075,
      "d": 60.975500000000466,
      "v": 100
    },
    {
      "midi": 51,
      "hit": false,
      "t": 47073.08599999971,
      "d": 243.90200000000186,
      "v": 100
    },
    {
      "midi": 39,
      "hit": false,
      "t": 47073.08599999985,
      "d": 243.90200000000186,
      "v": 100
    },
    {
      "midi": 75,
      "hit": false,
      "t": 47073.08600000002,
      "d": 243.90200000000186,
      "v": 100
    },
    {
      "midi": 67,
      "hit": false,
      "t": 47073.08600000013,
      "d": 121.95100000000093,
      "v": 100
    },
    {
      "midi": 46,
      "hit": false,
      "t": 47073.086000000156,
      "d": 1.0162583333367365,
      "v": 100
    },
    {
      "midi": 70,
      "hit": false,
      "t": 47195.036999998076,
      "d": 60.975500000000466,
      "v": 100
    },
    {
      "midi": 75,
      "hit": false,
      "t": 47195.036999998076,
      "d": 60.975500000000466,
      "v": 100
    },
    {
      "midi": 67,
      "hit": false,
      "t": 47195.036999998076,
      "d": 60.975500000000466,
      "v": 100
    },
    {
      "midi": 70,
      "hit": false,
      "t": 47195.03700000013,
      "d": 121.95100000000093,
      "v": 100
    },
    {
      "midi": 60,
      "hit": false,
      "t": 47195.037000000135,
      "d": 121.95100000000093,
      "v": 100
    },
    {
      "midi": 44,
      "hit": false,
      "t": 47195.03700000016,
      "d": 1.0162583333367365,
      "v": 100
    },
    {
      "midi": 70,
      "hit": false,
      "t": 47316.98799999808,
      "d": 60.975499999985914,
      "v": 100
    },
    {
      "midi": 75,
      "hit": false,
      "t": 47316.98799999808,
      "d": 60.975499999985914,
      "v": 100
    },
    {
      "midi": 67,
      "hit": false,
      "t": 47316.98799999808,
      "d": 60.975499999985914,
      "v": 100
    },
    {
      "midi": 51,
      "hit": false,
      "t": 47316.987999999714,
      "d": 243.9019999999946,
      "v": 100
    },
    {
      "midi": 58,
      "hit": false,
      "t": 47316.987999999714,
      "d": 243.9019999999946,
      "v": 100
    },
    {
      "midi": 39,
      "hit": false,
      "t": 47316.98799999985,
      "d": 243.90200000000186,
      "v": 100
    },
    {
      "midi": 75,
      "hit": false,
      "t": 47316.98800000002,
      "d": 243.90200000000186,
      "v": 100
    },
    {
      "midi": 67,
      "hit": false,
      "t": 47316.98800000013,
      "d": 121.95100000000093,
      "v": 100
    },
    {
      "midi": 33,
      "hit": false,
      "t": 47316.98800000016,
      "d": 1.0162583333367365,
      "v": 127
    },
    {
      "midi": 40,
      "hit": false,
      "t": 47316.98800000016,
      "d": 1.0162583333367365,
      "v": 100
    },
    {
      "midi": 46,
      "hit": false,
      "t": 47316.98800000016,
      "d": 1.0162583333367365,
      "v": 100
    },
    {
      "midi": 70,
      "hit": false,
      "t": 47438.938999998056,
      "d": 60.97549999999319,
      "v": 100
    },
    {
      "midi": 75,
      "hit": false,
      "t": 47438.938999998056,
      "d": 60.97549999999319,
      "v": 100
    },
    {
      "midi": 67,
      "hit": false,
      "t": 47438.938999998056,
      "d": 60.97549999999319,
      "v": 100
    },
    {
      "midi": 58,
      "hit": false,
      "t": 47438.93900000013,
      "d": 121.95100000000093,
      "v": 100
    },
    {
      "midi": 55,
      "hit": false,
      "t": 47438.93900000014,
      "d": 121.95100000000093,
      "v": 100
    },
    {
      "midi": 44,
      "hit": false,
      "t": 47438.93900000016,
      "d": 1.0162583333367365,
      "v": 100
    },
    {
      "midi": 70,
      "hit": false,
      "t": 47560.889999998035,
      "d": 60.975500000000466,
      "v": 100
    },
    {
      "midi": 75,
      "hit": false,
      "t": 47560.889999998035,
      "d": 60.975500000000466,
      "v": 100
    },
    {
      "midi": 67,
      "hit": false,
      "t": 47560.889999998035,
      "d": 60.975500000000466,
      "v": 100
    },
    {
      "midi": 51,
      "hit": false,
      "t": 47560.88999999971,
      "d": 121.95100000000093,
      "v": 100
    },
    {
      "midi": 39,
      "hit": false,
      "t": 47560.889999999854,
      "d": 121.95100000000093,
      "v": 100
    },
    {
      "midi": 75,
      "hit": false,
      "t": 47560.89000000002,
      "d": 121.95100000000093,
      "v": 100
    },
    {
      "midi": 70,
      "hit": false,
      "t": 47560.89000000013,
      "d": 121.95100000000093,
      "v": 100
    },
    {
      "midi": 46,
      "hit": false,
      "t": 47560.89000000016,
      "d": 1.0162583333367365,
      "v": 100
    },
    {
      "midi": 70,
      "hit": false,
      "t": 47682.840999998036,
      "d": 60.975500000000466,
      "v": 100
    },
    {
      "midi": 75,
      "hit": false,
      "t": 47682.840999998036,
      "d": 60.975500000000466,
      "v": 100
    },
    {
      "midi": 67,
      "hit": false,
      "t": 47682.840999998036,
      "d": 60.975500000000466,
      "v": 100
    },
    {
      "midi": 53,
      "hit": false,
      "t": 47682.84099999971,
      "d": 243.90200000000186,
      "v": 100
    },
    {
      "midi": 60,
      "hit": false,
      "t": 47682.84099999971,
      "d": 243.90200000000186,
      "v": 100
    },
    {
      "midi": 41,
      "hit": false,
      "t": 47682.840999999855,
      "d": 243.90200000000186,
      "v": 100
    },
    {
      "midi": 77,
      "hit": false,
      "t": 47682.84100000002,
      "d": 243.90200000000186,
      "v": 100
    },
    {
      "midi": 67,
      "hit": false,
      "t": 47682.84100000013,
      "d": 121.95100000000093,
      "v": 100
    },
    {
      "midi": 55,
      "hit": false,
      "t": 47682.84100000014,
      "d": 121.95100000000093,
      "v": 100
    },
    {
      "midi": 44,
      "hit": false,
      "t": 47682.84100000016,
      "d": 1.0162583333367365,
      "v": 100
    },
    {
      "midi": 41,
      "hit": false,
      "t": 47682.841000000175,
      "d": 1.0162583333367365,
      "v": 80
    },
    {
      "midi": 72,
      "hit": false,
      "t": 47804.79199999804,
      "d": 60.975499999985914,
      "v": 100
    },
    {
      "midi": 77,
      "hit": false,
      "t": 47804.79199999804,
      "d": 60.975499999985914,
      "v": 100
    },
    {
      "midi": 69,
      "hit": false,
      "t": 47804.79199999804,
      "d": 60.975499999985914,
      "v": 100
    },
    {
      "midi": 77,
      "hit": false,
      "t": 47804.792000000016,
      "d": 487.80399999999645,
      "v": 100
    },
    {
      "midi": 74,
      "hit": false,
      "t": 47804.792000000016,
      "d": 487.80399999999645,
      "v": 100
    },
    {
      "midi": 70,
      "hit": false,
      "t": 47804.792000000016,
      "d": 487.80399999999645,
      "v": 100
    },
    {
      "midi": 65,
      "hit": false,
      "t": 47804.79200000013,
      "d": 121.95100000000093,
      "v": 100
    },
    {
      "midi": 33,
      "hit": false,
      "t": 47804.79200000016,
      "d": 1.0162583333367365,
      "v": 127
    },
    {
      "midi": 42,
      "hit": false,
      "t": 47804.79200000016,
      "d": 1.0162583333367365,
      "v": 100
    },
    {
      "midi": 72,
      "hit": false,
      "t": 47926.742999998016,
      "d": 60.97549999999319,
      "v": 100
    },
    {
      "midi": 77,
      "hit": false,
      "t": 47926.742999998016,
      "d": 60.97549999999319,
      "v": 100
    },
    {
      "midi": 69,
      "hit": false,
      "t": 47926.742999998016,
      "d": 60.97549999999319,
      "v": 100
    },
    {
      "midi": 53,
      "hit": false,
      "t": 47926.74299999971,
      "d": 121.95100000000093,
      "v": 100
    },
    {
      "midi": 41,
      "hit": false,
      "t": 47926.74299999986,
      "d": 121.95100000000093,
      "v": 100
    },
    {
      "midi": 77,
      "hit": false,
      "t": 47926.743000000024,
      "d": 121.95100000000093,
      "v": 100
    },
    {
      "midi": 70,
      "hit": false,
      "t": 47926.74300000013,
      "d": 121.95100000000093,
      "v": 100
    },
    {
      "midi": 55,
      "hit": false,
      "t": 47926.74300000014,
      "d": 121.95100000000093,
      "v": 100
    },
    {
      "midi": 41,
      "hit": false,
      "t": 47926.74300000018,
      "d": 1.0162583333367365,
      "v": 80
    },
    {
      "midi": 72,
      "hit": false,
      "t": 48048.693999997995,
      "d": 60.975500000000466,
      "v": 100
    },
    {
      "midi": 77,
      "hit": false,
      "t": 48048.693999997995,
      "d": 60.975500000000466,
      "v": 100
    },
    {
      "midi": 69,
      "hit": false,
      "t": 48048.693999997995,
      "d": 60.975500000000466,
      "v": 100
    },
    {
      "midi": 53,
      "hit": false,
      "t": 48048.69399999971,
      "d": 243.90200000000186,
      "v": 100
    },
    {
      "midi": 60,
      "hit": false,
      "t": 48048.69399999971,
      "d": 243.90200000000186,
      "v": 100
    },
    {
      "midi": 41,
      "hit": false,
      "t": 48048.69399999986,
      "d": 243.90200000000186,
      "v": 100
    },
    {
      "midi": 77,
      "hit": false,
      "t": 48048.694000000025,
      "d": 121.95100000000093,
      "v": 100
    },
    {
      "midi": 74,
      "hit": false,
      "t": 48048.694000000134,
      "d": 121.95100000000093,
      "v": 100
    },
    {
      "midi": 58,
      "hit": false,
      "t": 48048.69400000014,
      "d": 121.95100000000093,
      "v": 100
    },
    {
      "midi": 46,
      "hit": false,
      "t": 48048.69400000016,
      "d": 1.0162583333367365,
      "v": 100
    },
    {
      "midi": 72,
      "hit": false,
      "t": 48170.644999997996,
      "d": 60.975500000000466,
      "v": 100
    },
    {
      "midi": 77,
      "hit": false,
      "t": 48170.644999997996,
      "d": 60.975500000000466,
      "v": 100
    },
    {
      "midi": 69,
      "hit": false,
      "t": 48170.644999997996,
      "d": 60.975500000000466,
      "v": 100
    },
    {
      "midi": 77,
      "hit": false,
      "t": 48170.645000000135,
      "d": 121.95100000000093,
      "v": 100
    },
    {
      "midi": 44,
      "hit": false,
      "t": 48170.645000000164,
      "d": 1.0162583333367365,
      "v": 100
    },
    {
      "midi": 72,
      "hit": false,
      "t": 48292.595999998,
      "d": 243.9019999999582,
      "v": 100
    },
    {
      "midi": 77,
      "hit": false,
      "t": 48292.595999998,
      "d": 243.9019999999582,
      "v": 100
    },
    {
      "midi": 69,
      "hit": false,
      "t": 48292.595999998,
      "d": 243.9019999999582,
      "v": 100
    },
    {
      "midi": 53,
      "hit": false,
      "t": 48292.595999999714,
      "d": 487.80399999996007,
      "v": 100
    },
    {
      "midi": 60,
      "hit": false,
      "t": 48292.595999999714,
      "d": 487.80399999996007,
      "v": 100
    },
    {
      "midi": 41,
      "hit": false,
      "t": 48292.59599999986,
      "d": 243.90200000000186,
      "v": 100
    },
    {
      "midi": 77,
      "hit": false,
      "t": 48292.59600000003,
      "d": 365.8530000000028,
      "v": 100
    },
    {
      "midi": 65,
      "hit": false,
      "t": 48292.596000000136,
      "d": 121.95100000000093,
      "v": 100
    },
    {
      "midi": 60,
      "hit": false,
      "t": 48292.59600000014,
      "d": 121.95100000000093,
      "v": 100
    },
    {
      "midi": 33,
      "hit": false,
      "t": 48292.596000000165,
      "d": 1.0162583333367365,
      "v": 127
    },
    {
      "midi": 40,
      "hit": false,
      "t": 48292.596000000165,
      "d": 1.0162583333367365,
      "v": 100
    },
    {
      "midi": 46,
      "hit": false,
      "t": 48292.596000000165,
      "d": 1.0162583333367365,
      "v": 100
    },
    {
      "midi": 70,
      "hit": false,
      "t": 48414.54700000014,
      "d": 121.95100000000093,
      "v": 100
    },
    {
      "midi": 44,
      "hit": false,
      "t": 48414.547000000166,
      "d": 1.0162583333367365,
      "v": 100
    },
    {
      "midi": 72,
      "hit": false,
      "t": 48536.497999997955,
      "d": 60.975500000000466,
      "v": 100
    },
    {
      "midi": 77,
      "hit": false,
      "t": 48536.497999997955,
      "d": 60.975500000000466,
      "v": 100
    },
    {
      "midi": 69,
      "hit": false,
      "t": 48536.497999997955,
      "d": 60.975500000000466,
      "v": 100
    },
    {
      "midi": 41,
      "hit": false,
      "t": 48536.49799999986,
      "d": 243.90200000000186,
      "v": 100
    },
    {
      "midi": 74,
      "hit": false,
      "t": 48536.49800000014,
      "d": 121.95100000000093,
      "v": 100
    },
    {
      "midi": 40,
      "hit": false,
      "t": 48536.49800000017,
      "d": 1.0162583333367365,
      "v": 40
    },
    {
      "midi": 46,
      "hit": false,
      "t": 48536.49800000017,
      "d": 1.0162583333367365,
      "v": 100
    },
    {
      "midi": 72,
      "hit": false,
      "t": 48658.448999997956,
      "d": 60.975500000000466,
      "v": 100
    },
    {
      "midi": 77,
      "hit": false,
      "t": 48658.448999997956,
      "d": 60.975500000000466,
      "v": 100
    },
    {
      "midi": 69,
      "hit": false,
      "t": 48658.448999997956,
      "d": 60.975500000000466,
      "v": 100
    },
    {
      "midi": 77,
      "hit": false,
      "t": 48658.44900000014,
      "d": 121.95100000000093,
      "v": 100
    },
    {
      "midi": 40,
      "hit": false,
      "t": 48658.44900000017,
      "d": 1.0162583333367365,
      "v": 100
    },
    {
      "midi": 44,
      "hit": false,
      "t": 48658.44900000017,
      "d": 1.0162583333367365,
      "v": 100
    },
    {
      "midi": 67,
      "hit": false,
      "t": 48780.39999999796,
      "d": 487.80399999993824,
      "v": 100
    },
    {
      "midi": 63,
      "hit": false,
      "t": 48780.39999999796,
      "d": 487.80399999993824,
      "v": 100
    },
    {
      "midi": 72,
      "hit": false,
      "t": 48780.39999999796,
      "d": 487.80399999993824,
      "v": 100
    },
    {
      "midi": 55,
      "hit": false,
      "t": 48780.399999999674,
      "d": 487.80399999999645,
      "v": 100
    },
    {
      "midi": 48,
      "hit": false,
      "t": 48780.399999999674,
      "d": 487.80399999999645,
      "v": 100
    },
    {
      "midi": 36,
      "hit": false,
      "t": 48780.39999999986,
      "d": 243.90200000000186,
      "v": 100
    },
    {
      "midi": 72,
      "hit": false,
      "t": 48780.40000000001,
      "d": 487.80399999999645,
      "v": 100
    },
    {
      "midi": 67,
      "hit": false,
      "t": 48780.40000000001,
      "d": 487.80399999999645,
      "v": 100
    },
    {
      "midi": 63,
      "hit": false,
      "t": 48780.40000000001,
      "d": 487.80399999999645,
      "v": 100
    },
    {
      "midi": 72,
      "hit": false,
      "t": 48780.40000000003,
      "d": 243.90200000000186,
      "v": 100
    },
    {
      "midi": 60,
      "hit": false,
      "t": 48780.40000000014,
      "d": 121.95100000000093,
      "v": 100
    },
    {
      "midi": 60,
      "hit": false,
      "t": 48780.40000000015,
      "d": 121.95100000000093,
      "v": 100
    },
    {
      "midi": 33,
      "hit": false,
      "t": 48780.40000000017,
      "d": 1.0162583333367365,
      "v": 127
    },
    {
      "midi": 42,
      "hit": false,
      "t": 48780.40000000017,
      "d": 1.0162583333367365,
      "v": 100
    },
    {
      "midi": 57,
      "hit": false,
      "t": 48780.40000000017,
      "d": 1.0162583333367365,
      "v": 100
    },
    {
      "midi": 55,
      "hit": false,
      "t": 48902.35100000014,
      "d": 121.95100000000093,
      "v": 100
    },
    {
      "midi": 58,
      "hit": false,
      "t": 48902.35100000015,
      "d": 121.95100000000093,
      "v": 100
    },
    {
      "midi": 36,
      "hit": false,
      "t": 49024.301999999865,
      "d": 243.90200000000186,
      "v": 100
    },
    {
      "midi": 72,
      "hit": false,
      "t": 49024.30200000003,
      "d": 243.90200000000186,
      "v": 100
    },
    {
      "midi": 67,
      "hit": false,
      "t": 49024.30200000014,
      "d": 121.95100000000093,
      "v": 100
    },
    {
      "midi": 46,
      "hit": false,
      "t": 49024.30200000017,
      "d": 1.0162583333367365,
      "v": 100
    },
    {
      "midi": 60,
      "hit": false,
      "t": 49146.25300000014,
      "d": 121.95100000000093,
      "v": 100
    },
    {
      "midi": 60,
      "hit": false,
      "t": 49146.25300000015,
      "d": 121.95100000000093,
      "v": 100
    },
    {
      "midi": 44,
      "hit": false,
      "t": 49146.25300000017,
      "d": 1.0162583333367365,
      "v": 100
    },
    {
      "midi": 67,
      "hit": false,
      "t": 49268.203999997895,
      "d": 60.975499999985914,
      "v": 100
    },
    {
      "midi": 63,
      "hit": false,
      "t": 49268.203999997895,
      "d": 60.975499999985914,
      "v": 100
    },
    {
      "midi": 72,
      "hit": false,
      "t": 49268.203999997895,
      "d": 60.975499999985914,
      "v": 100
    },
    {
      "midi": 48,
      "hit": false,
      "t": 49268.20399999967,
      "d": 243.90200000000186,
      "v": 100
    },
    {
      "midi": 36,
      "hit": false,
      "t": 49268.20399999987,
      "d": 243.90200000000186,
      "v": 100
    },
    {
      "midi": 72,
      "hit": false,
      "t": 49268.204000000034,
      "d": 243.90200000000186,
      "v": 100
    },
    {
      "midi": 72,
      "hit": false,
      "t": 49268.20400000014,
      "d": 121.95100000000093,
      "v": 100
    },
    {
      "midi": 33,
      "hit": false,
      "t": 49268.20400000017,
      "d": 1.0162583333367365,
      "v": 127
    },
    {
      "midi": 40,
      "hit": false,
      "t": 49268.20400000017,
      "d": 1.0162583333367365,
      "v": 100
    },
    {
      "midi": 46,
      "hit": false,
      "t": 49268.20400000017,
      "d": 1.0162583333367365,
      "v": 100
    },
    {
      "midi": 67,
      "hit": false,
      "t": 49390.154999997874,
      "d": 60.97549999999319,
      "v": 100
    },
    {
      "midi": 63,
      "hit": false,
      "t": 49390.154999997874,
      "d": 60.97549999999319,
      "v": 100
    },
    {
      "midi": 72,
      "hit": false,
      "t": 49390.154999997874,
      "d": 60.97549999999319,
      "v": 100
    },
    {
      "midi": 55,
      "hit": false,
      "t": 49390.155000000144,
      "d": 121.95100000000093,
      "v": 100
    },
    {
      "midi": 55,
      "hit": false,
      "t": 49390.15500000015,
      "d": 121.95100000000093,
      "v": 100
    },
    {
      "midi": 44,
      "hit": false,
      "t": 49390.15500000017,
      "d": 1.0162583333367365,
      "v": 100
    },
    {
      "midi": 67,
      "hit": false,
      "t": 49512.10599999785,
      "d": 60.975500000000466,
      "v": 100
    },
    {
      "midi": 63,
      "hit": false,
      "t": 49512.10599999785,
      "d": 60.975500000000466,
      "v": 100
    },
    {
      "midi": 72,
      "hit": false,
      "t": 49512.10599999785,
      "d": 60.975500000000466,
      "v": 100
    },
    {
      "midi": 48,
      "hit": false,
      "t": 49512.10599999967,
      "d": 121.95100000000093,
      "v": 100
    },
    {
      "midi": 36,
      "hit": false,
      "t": 49512.10599999987,
      "d": 121.95100000000093,
      "v": 100
    },
    {
      "midi": 72,
      "hit": false,
      "t": 49512.106000000036,
      "d": 121.95100000000093,
      "v": 100
    },
    {
      "midi": 60,
      "hit": false,
      "t": 49512.106000000145,
      "d": 121.95100000000093,
      "v": 100
    },
    {
      "midi": 46,
      "hit": false,
      "t": 49512.106000000174,
      "d": 1.0162583333367365,
      "v": 100
    },
    {
      "midi": 67,
      "hit": false,
      "t": 49634.056999997854,
      "d": 60.975500000000466,
      "v": 100
    },
    {
      "midi": 63,
      "hit": false,
      "t": 49634.056999997854,
      "d": 60.975500000000466,
      "v": 100
    },
    {
      "midi": 72,
      "hit": false,
      "t": 49634.056999997854,
      "d": 60.975500000000466,
      "v": 100
    },
    {
      "midi": 48,
      "hit": false,
      "t": 49634.05699999967,
      "d": 121.95100000000093,
      "v": 100
    },
    {
      "midi": 36,
      "hit": false,
      "t": 49634.05699999987,
      "d": 243.90200000000186,
      "v": 100
    },
    {
      "midi": 72,
      "hit": false,
      "t": 49634.05700000004,
      "d": 243.90200000000186,
      "v": 100
    },
    {
      "midi": 67,
      "hit": false,
      "t": 49634.057000000146,
      "d": 121.95100000000093,
      "v": 100
    },
    {
      "midi": 55,
      "hit": false,
      "t": 49634.05700000015,
      "d": 121.95100000000093,
      "v": 100
    },
    {
      "midi": 44,
      "hit": false,
      "t": 49634.057000000175,
      "d": 1.0162583333367365,
      "v": 100
    },
    {
      "midi": 41,
      "hit": false,
      "t": 49634.05700000018,
      "d": 1.0162583333367365,
      "v": 100
    },
    {
      "midi": 67,
      "hit": false,
      "t": 49756.007999997855,
      "d": 60.975499999985914,
      "v": 100
    },
    {
      "midi": 63,
      "hit": false,
      "t": 49756.007999997855,
      "d": 60.975499999985914,
      "v": 100
    },
    {
      "midi": 72,
      "hit": false,
      "t": 49756.007999997855,
      "d": 60.975499999985914,
      "v": 100
    },
    {
      "midi": 48,
      "hit": false,
      "t": 49756.007999999674,
      "d": 121.95100000000093,
      "v": 100
    },
    {
      "midi": 60,
      "hit": false,
      "t": 49756.00800000015,
      "d": 121.95100000000093,
      "v": 100
    },
    {
      "midi": 33,
      "hit": false,
      "t": 49756.008000000176,
      "d": 1.0162583333367365,
      "v": 127
    },
    {
      "midi": 42,
      "hit": false,
      "t": 49756.008000000176,
      "d": 1.0162583333367365,
      "v": 100
    },
    {
      "midi": 67,
      "hit": false,
      "t": 49877.958999997834,
      "d": 60.97549999999319,
      "v": 100
    },
    {
      "midi": 63,
      "hit": false,
      "t": 49877.958999997834,
      "d": 60.97549999999319,
      "v": 100
    },
    {
      "midi": 72,
      "hit": false,
      "t": 49877.958999997834,
      "d": 60.97549999999319,
      "v": 100
    },
    {
      "midi": 48,
      "hit": false,
      "t": 49877.958999999675,
      "d": 121.95100000000093,
      "v": 100
    },
    {
      "midi": 36,
      "hit": false,
      "t": 49877.95899999987,
      "d": 121.95100000000093,
      "v": 100
    },
    {
      "midi": 72,
      "hit": false,
      "t": 49877.95900000004,
      "d": 121.95100000000093,
      "v": 100
    },
    {
      "midi": 55,
      "hit": false,
      "t": 49877.95900000015,
      "d": 121.95100000000093,
      "v": 100
    },
    {
      "midi": 55,
      "hit": false,
      "t": 49877.959000000155,
      "d": 121.95100000000093,
      "v": 100
    },
    {
      "midi": 67,
      "hit": false,
      "t": 49999.90999999781,
      "d": 60.975500000000466,
      "v": 100
    },
    {
      "midi": 63,
      "hit": false,
      "t": 49999.90999999781,
      "d": 60.975500000000466,
      "v": 100
    },
    {
      "midi": 72,
      "hit": false,
      "t": 49999.90999999781,
      "d": 60.975500000000466,
      "v": 100
    },
    {
      "midi": 48,
      "hit": false,
      "t": 49999.909999999676,
      "d": 243.90200000000186,
      "v": 100
    },
    {
      "midi": 36,
      "hit": false,
      "t": 49999.90999999987,
      "d": 243.90200000000186,
      "v": 100
    },
    {
      "midi": 72,
      "hit": false,
      "t": 49999.91000000004,
      "d": 243.90200000000186,
      "v": 100
    },
    {
      "midi": 72,
      "hit": false,
      "t": 49999.91000000015,
      "d": 121.95100000000093,
      "v": 100
    },
    {
      "midi": 58,
      "hit": false,
      "t": 49999.910000000156,
      "d": 121.95100000000093,
      "v": 100
    },
    {
      "midi": 46,
      "hit": false,
      "t": 49999.91000000018,
      "d": 1.0162583333367365,
      "v": 100
    },
    {
      "midi": 67,
      "hit": false,
      "t": 50121.860999997814,
      "d": 60.975500000000466,
      "v": 100
    },
    {
      "midi": 63,
      "hit": false,
      "t": 50121.860999997814,
      "d": 60.975500000000466,
      "v": 100
    },
    {
      "midi": 72,
      "hit": false,
      "t": 50121.860999997814,
      "d": 60.975500000000466,
      "v": 100
    },
    {
      "midi": 60,
      "hit": false,
      "t": 50121.86100000015,
      "d": 121.95100000000093,
      "v": 100
    },
    {
      "midi": 44,
      "hit": false,
      "t": 50121.86100000018,
      "d": 1.0162583333367365,
      "v": 100
    },
    {
      "midi": 67,
      "hit": false,
      "t": 50243.811999997815,
      "d": 60.975499999985914,
      "v": 100
    },
    {
      "midi": 63,
      "hit": false,
      "t": 50243.811999997815,
      "d": 60.975499999985914,
      "v": 100
    },
    {
      "midi": 72,
      "hit": false,
      "t": 50243.811999997815,
      "d": 60.975499999985914,
      "v": 100
    },
    {
      "midi": 48,
      "hit": false,
      "t": 50243.81199999968,
      "d": 243.90200000000186,
      "v": 100
    },
    {
      "midi": 55,
      "hit": false,
      "t": 50243.81199999968,
      "d": 243.90200000000186,
      "v": 100
    },
    {
      "midi": 36,
      "hit": false,
      "t": 50243.811999999874,
      "d": 243.90200000000186,
      "v": 100
    },
    {
      "midi": 72,
      "hit": false,
      "t": 50243.812000000005,
      "d": 487.80399999999645,
      "v": 100
    },
    {
      "midi": 67,
      "hit": false,
      "t": 50243.812000000005,
      "d": 487.80399999999645,
      "v": 100
    },
    {
      "midi": 63,
      "hit": false,
      "t": 50243.812000000005,
      "d": 487.80399999999645,
      "v": 100
    },
    {
      "midi": 72,
      "hit": false,
      "t": 50243.81200000004,
      "d": 365.8530000000028,
      "v": 100
    },
    {
      "midi": 72,
      "hit": false,
      "t": 50243.81200000015,
      "d": 121.95100000000093,
      "v": 100
    },
    {
      "midi": 60,
      "hit": false,
      "t": 50243.81200000016,
      "d": 121.95100000000093,
      "v": 100
    },
    {
      "midi": 33,
      "hit": false,
      "t": 50243.81200000018,
      "d": 1.0162583333367365,
      "v": 127
    },
    {
      "midi": 40,
      "hit": false,
      "t": 50243.81200000018,
      "d": 1.0162583333367365,
      "v": 100
    },
    {
      "midi": 46,
      "hit": false,
      "t": 50243.81200000018,
      "d": 1.0162583333367365,
      "v": 100
    },
    {
      "midi": 67,
      "hit": false,
      "t": 50365.762999997794,
      "d": 60.97549999999319,
      "v": 100
    },
    {
      "midi": 63,
      "hit": false,
      "t": 50365.762999997794,
      "d": 60.97549999999319,
      "v": 100
    },
    {
      "midi": 72,
      "hit": false,
      "t": 50365.762999997794,
      "d": 60.97549999999319,
      "v": 100
    },
    {
      "midi": 60,
      "hit": false,
      "t": 50365.76300000015,
      "d": 121.95100000000093,
      "v": 100
    },
    {
      "midi": 44,
      "hit": false,
      "t": 50365.76300000018,
      "d": 1.0162583333367365,
      "v": 100
    },
    {
      "midi": 67,
      "hit": false,
      "t": 50487.71399999777,
      "d": 60.975500000000466,
      "v": 100
    },
    {
      "midi": 63,
      "hit": false,
      "t": 50487.71399999777,
      "d": 60.975500000000466,
      "v": 100
    },
    {
      "midi": 72,
      "hit": false,
      "t": 50487.71399999777,
      "d": 60.975500000000466,
      "v": 100
    },
    {
      "midi": 48,
      "hit": false,
      "t": 50487.71399999968,
      "d": 121.95100000000093,
      "v": 100
    },
    {
      "midi": 36,
      "hit": false,
      "t": 50487.713999999876,
      "d": 243.90200000000186,
      "v": 100
    },
    {
      "midi": 67,
      "hit": false,
      "t": 50487.71400000015,
      "d": 121.95100000000093,
      "v": 100
    },
    {
      "midi": 46,
      "hit": false,
      "t": 50487.71400000018,
      "d": 1.0162583333367365,
      "v": 100
    },
    {
      "midi": 67,
      "hit": false,
      "t": 50609.664999997774,
      "d": 60.975500000000466,
      "v": 100
    },
    {
      "midi": 63,
      "hit": false,
      "t": 50609.664999997774,
      "d": 60.975500000000466,
      "v": 100
    },
    {
      "midi": 72,
      "hit": false,
      "t": 50609.664999997774,
      "d": 60.975500000000466,
      "v": 100
    },
    {
      "midi": 48,
      "hit": false,
      "t": 50609.66499999968,
      "d": 121.95100000000093,
      "v": 100
    },
    {
      "midi": 60,
      "hit": false,
      "t": 50609.665000000154,
      "d": 121.95100000000093,
      "v": 100
    },
    {
      "midi": 44,
      "hit": false,
      "t": 50609.66500000018,
      "d": 1.0162583333367365,
      "v": 100
    },
    {
      "midi": 70,
      "hit": false,
      "t": 50731.615999997775,
      "d": 60.975499999985914,
      "v": 100
    },
    {
      "midi": 75,
      "hit": false,
      "t": 50731.615999997775,
      "d": 60.975499999985914,
      "v": 100
    },
    {
      "midi": 67,
      "hit": false,
      "t": 50731.615999997775,
      "d": 60.975499999985914,
      "v": 100
    },
    {
      "midi": 51,
      "hit": false,
      "t": 50731.61599999968,
      "d": 243.90200000000186,
      "v": 100
    },
    {
      "midi": 39,
      "hit": false,
      "t": 50731.61599999988,
      "d": 243.90200000000186,
      "v": 100
    },
    {
      "midi": 75,
      "hit": false,
      "t": 50731.616,
      "d": 487.80399999999645,
      "v": 100
    },
    {
      "midi": 70,
      "hit": false,
      "t": 50731.616,
      "d": 487.80399999999645,
      "v": 100
    },
    {
      "midi": 67,
      "hit": false,
      "t": 50731.616,
      "d": 487.80399999999645,
      "v": 100
    },
    {
      "midi": 75,
      "hit": false,
      "t": 50731.616000000045,
      "d": 243.90200000000186,
      "v": 100
    },
    {
      "midi": 63,
      "hit": false,
      "t": 50731.616000000155,
      "d": 121.95100000000093,
      "v": 100
    },
    {
      "midi": 60,
      "hit": false,
      "t": 50731.61600000016,
      "d": 121.95100000000093,
      "v": 100
    },
    {
      "midi": 33,
      "hit": false,
      "t": 50731.616000000184,
      "d": 1.0162583333367365,
      "v": 127
    },
    {
      "midi": 42,
      "hit": false,
      "t": 50731.616000000184,
      "d": 1.0162583333367365,
      "v": 100
    },
    {
      "midi": 70,
      "hit": false,
      "t": 50853.566999997754,
      "d": 60.97549999999319,
      "v": 100
    },
    {
      "midi": 75,
      "hit": false,
      "t": 50853.566999997754,
      "d": 60.97549999999319,
      "v": 100
    },
    {
      "midi": 67,
      "hit": false,
      "t": 50853.566999997754,
      "d": 60.97549999999319,
      "v": 100
    },
    {
      "midi": 55,
      "hit": false,
      "t": 50853.567000000156,
      "d": 121.95100000000093,
      "v": 100
    },
    {
      "midi": 58,
      "hit": false,
      "t": 50853.56700000016,
      "d": 121.95100000000093,
      "v": 100
    },
    {
      "midi": 70,
      "hit": false,
      "t": 50975.51799999773,
      "d": 60.975500000000466,
      "v": 100
    },
    {
      "midi": 75,
      "hit": false,
      "t": 50975.51799999773,
      "d": 60.975500000000466,
      "v": 100
    },
    {
      "midi": 67,
      "hit": false,
      "t": 50975.51799999773,
      "d": 60.975500000000466,
      "v": 100
    },
    {
      "midi": 51,
      "hit": false,
      "t": 50975.51799999968,
      "d": 243.90200000000186,
      "v": 100
    },
    {
      "midi": 39,
      "hit": false,
      "t": 50975.51799999988,
      "d": 243.90200000000186,
      "v": 100
    },
    {
      "midi": 75,
      "hit": false,
      "t": 50975.51800000005,
      "d": 243.90200000000186,
      "v": 100
    },
    {
      "midi": 67,
      "hit": false,
      "t": 50975.51800000016,
      "d": 121.95100000000093,
      "v": 100
    },
    {
      "midi": 46,
      "hit": false,
      "t": 50975.518000000186,
      "d": 1.0162583333367365,
      "v": 100
    },
    {
      "midi": 41,
      "hit": false,
      "t": 50975.518000000186,
      "d": 1.0162583333367365,
      "v": 100
    },
    {
      "midi": 70,
      "hit": false,
      "t": 51097.468999997734,
      "d": 60.975500000000466,
      "v": 100
    },
    {
      "midi": 75,
      "hit": false,
      "t": 51097.468999997734,
      "d": 60.975500000000466,
      "v": 100
    },
    {
      "midi": 67,
      "hit": false,
      "t": 51097.468999997734,
      "d": 60.975500000000466,
      "v": 100
    },
    {
      "midi": 70,
      "hit": false,
      "t": 51097.46900000016,
      "d": 121.95100000000093,
      "v": 100
    },
    {
      "midi": 60,
      "hit": false,
      "t": 51097.469000000165,
      "d": 121.95100000000093,
      "v": 100
    },
    {
      "midi": 44,
      "hit": false,
      "t": 51097.46900000019,
      "d": 1.0162583333367365,
      "v": 100
    },
    {
      "midi": 70,
      "hit": false,
      "t": 51219.419999997735,
      "d": 60.975499999985914,
      "v": 100
    },
    {
      "midi": 75,
      "hit": false,
      "t": 51219.419999997735,
      "d": 60.975499999985914,
      "v": 100
    },
    {
      "midi": 67,
      "hit": false,
      "t": 51219.419999997735,
      "d": 60.975499999985914,
      "v": 100
    },
    {
      "midi": 51,
      "hit": false,
      "t": 51219.419999999685,
      "d": 365.85299999995914,
      "v": 100
    },
    {
      "midi": 58,
      "hit": false,
      "t": 51219.419999999685,
      "d": 365.85299999995914,
      "v": 100
    },
    {
      "midi": 39,
      "hit": false,
      "t": 51219.41999999988,
      "d": 243.90200000000186,
      "v": 100
    },
    {
      "midi": 75,
      "hit": false,
      "t": 51219.42000000005,
      "d": 243.90200000000186,
      "v": 100
    },
    {
      "midi": 67,
      "hit": false,
      "t": 51219.42000000016,
      "d": 121.95100000000093,
      "v": 100
    },
    {
      "midi": 33,
      "hit": false,
      "t": 51219.42000000019,
      "d": 1.0162583333367365,
      "v": 127
    },
    {
      "midi": 40,
      "hit": false,
      "t": 51219.42000000019,
      "d": 1.0162583333367365,
      "v": 100
    },
    {
      "midi": 46,
      "hit": false,
      "t": 51219.42000000019,
      "d": 1.0162583333367365,
      "v": 100
    },
    {
      "midi": 41,
      "hit": false,
      "t": 51219.42000000019,
      "d": 1.0162583333367365,
      "v": 100
    },
    {
      "midi": 70,
      "hit": false,
      "t": 51341.370999997715,
      "d": 60.97549999999319,
      "v": 100
    },
    {
      "midi": 75,
      "hit": false,
      "t": 51341.370999997715,
      "d": 60.97549999999319,
      "v": 100
    },
    {
      "midi": 67,
      "hit": false,
      "t": 51341.370999997715,
      "d": 60.97549999999319,
      "v": 100
    },
    {
      "midi": 58,
      "hit": false,
      "t": 51341.37100000016,
      "d": 121.95100000000093,
      "v": 100
    },
    {
      "midi": 55,
      "hit": false,
      "t": 51341.37100000017,
      "d": 121.95100000000093,
      "v": 100
    },
    {
      "midi": 44,
      "hit": false,
      "t": 51341.37100000019,
      "d": 1.0162583333367365,
      "v": 100
    },
    {
      "midi": 70,
      "hit": false,
      "t": 51463.32199999769,
      "d": 60.975500000000466,
      "v": 100
    },
    {
      "midi": 75,
      "hit": false,
      "t": 51463.32199999769,
      "d": 60.975500000000466,
      "v": 100
    },
    {
      "midi": 67,
      "hit": false,
      "t": 51463.32199999769,
      "d": 60.975500000000466,
      "v": 100
    },
    {
      "midi": 39,
      "hit": false,
      "t": 51463.321999999884,
      "d": 121.95100000000093,
      "v": 100
    },
    {
      "midi": 75,
      "hit": false,
      "t": 51463.32200000005,
      "d": 121.95100000000093,
      "v": 100
    },
    {
      "midi": 70,
      "hit": false,
      "t": 51463.32200000016,
      "d": 121.95100000000093,
      "v": 100
    },
    {
      "midi": 46,
      "hit": false,
      "t": 51463.32200000019,
      "d": 1.0162583333367365,
      "v": 100
    },
    {
      "midi": 70,
      "hit": false,
      "t": 51585.272999997695,
      "d": 60.975500000000466,
      "v": 100
    },
    {
      "midi": 75,
      "hit": false,
      "t": 51585.272999997695,
      "d": 60.975500000000466,
      "v": 100
    },
    {
      "midi": 67,
      "hit": false,
      "t": 51585.272999997695,
      "d": 60.975500000000466,
      "v": 100
    },
    {
      "midi": 46,
      "hit": false,
      "t": 51585.272999999645,
      "d": 243.90200000000186,
      "v": 100
    },
    {
      "midi": 53,
      "hit": false,
      "t": 51585.272999999645,
      "d": 243.90200000000186,
      "v": 100
    },
    {
      "midi": 34,
      "hit": false,
      "t": 51585.272999999885,
      "d": 243.90200000000186,
      "v": 100
    },
    {
      "midi": 77,
      "hit": false,
      "t": 51585.27300000005,
      "d": 243.90200000000186,
      "v": 100
    },
    {
      "midi": 67,
      "hit": false,
      "t": 51585.27300000016,
      "d": 121.95100000000093,
      "v": 100
    },
    {
      "midi": 55,
      "hit": false,
      "t": 51585.27300000017,
      "d": 121.95100000000093,
      "v": 100
    },
    {
      "midi": 44,
      "hit": false,
      "t": 51585.27300000019,
      "d": 1.0162583333367365,
      "v": 100
    },
    {
      "midi": 40,
      "hit": false,
      "t": 51585.27300000019,
      "d": 1.0162583333367365,
      "v": 100
    },
    {
      "midi": 65,
      "hit": false,
      "t": 51707.223999997696,
      "d": 60.975499999985914,
      "v": 100
    },
    {
      "midi": 70,
      "hit": false,
      "t": 51707.223999997696,
      "d": 60.975499999985914,
      "v": 100
    },
    {
      "midi": 62,
      "hit": false,
      "t": 51707.223999997696,
      "d": 60.975499999985914,
      "v": 100
    },
    {
      "midi": 77,
      "hit": false,
      "t": 51707.223999999995,
      "d": 487.80399999999645,
      "v": 100
    },
    {
      "midi": 74,
      "hit": false,
      "t": 51707.223999999995,
      "d": 487.80399999999645,
      "v": 100
    },
    {
      "midi": 70,
      "hit": false,
      "t": 51707.223999999995,
      "d": 487.80399999999645,
      "v": 100
    },
    {
      "midi": 65,
      "hit": false,
      "t": 51707.22400000016,
      "d": 121.95100000000093,
      "v": 100
    },
    {
      "midi": 42,
      "hit": false,
      "t": 51707.22400000019,
      "d": 1.0162583333367365,
      "v": 100
    },
    {
      "midi": 33,
      "hit": false,
      "t": 51707.22400000019,
      "d": 1.0162583333367365,
      "v": 127
    },
    {
      "midi": 65,
      "hit": false,
      "t": 51829.174999997675,
      "d": 60.97549999999319,
      "v": 100
    },
    {
      "midi": 70,
      "hit": false,
      "t": 51829.174999997675,
      "d": 60.97549999999319,
      "v": 100
    },
    {
      "midi": 62,
      "hit": false,
      "t": 51829.174999997675,
      "d": 60.97549999999319,
      "v": 100
    },
    {
      "midi": 46,
      "hit": false,
      "t": 51829.17499999965,
      "d": 121.95100000000093,
      "v": 100
    },
    {
      "midi": 34,
      "hit": false,
      "t": 51829.17499999989,
      "d": 121.95100000000093,
      "v": 100
    },
    {
      "midi": 77,
      "hit": false,
      "t": 51829.175000000054,
      "d": 121.95100000000093,
      "v": 100
    },
    {
      "midi": 70,
      "hit": false,
      "t": 51829.17500000016,
      "d": 121.95100000000093,
      "v": 100
    },
    {
      "midi": 55,
      "hit": false,
      "t": 51829.17500000017,
      "d": 121.95100000000093,
      "v": 100
    },
    {
      "midi": 33,
      "hit": false,
      "t": 51829.17500000019,
      "d": 1.0162583333367365,
      "v": 127
    },
    {
      "midi": 65,
      "hit": false,
      "t": 51951.125999997654,
      "d": 60.975500000000466,
      "v": 100
    },
    {
      "midi": 70,
      "hit": false,
      "t": 51951.125999997654,
      "d": 60.975500000000466,
      "v": 100
    },
    {
      "midi": 62,
      "hit": false,
      "t": 51951.125999997654,
      "d": 60.975500000000466,
      "v": 100
    },
    {
      "midi": 46,
      "hit": false,
      "t": 51951.12599999965,
      "d": 121.95100000000093,
      "v": 100
    },
    {
      "midi": 53,
      "hit": false,
      "t": 51951.12599999965,
      "d": 121.95100000000093,
      "v": 100
    },
    {
      "midi": 34,
      "hit": false,
      "t": 51951.12599999989,
      "d": 243.90200000000186,
      "v": 100
    },
    {
      "midi": 77,
      "hit": false,
      "t": 51951.126000000055,
      "d": 121.95100000000093,
      "v": 100
    },
    {
      "midi": 74,
      "hit": false,
      "t": 51951.126000000164,
      "d": 121.95100000000093,
      "v": 100
    },
    {
      "midi": 58,
      "hit": false,
      "t": 51951.12600000017,
      "d": 121.95100000000093,
      "v": 100
    },
    {
      "midi": 46,
      "hit": false,
      "t": 51951.12600000019,
      "d": 1.0162583333367365,
      "v": 100
    },
    {
      "midi": 65,
      "hit": false,
      "t": 52073.076999997655,
      "d": 60.975500000000466,
      "v": 100
    },
    {
      "midi": 70,
      "hit": false,
      "t": 52073.076999997655,
      "d": 60.975500000000466,
      "v": 100
    },
    {
      "midi": 62,
      "hit": false,
      "t": 52073.076999997655,
      "d": 60.975500000000466,
      "v": 100
    },
    {
      "midi": 77,
      "hit": false,
      "t": 52073.077000000165,
      "d": 121.95100000000093,
      "v": 100
    },
    {
      "midi": 44,
      "hit": false,
      "t": 52073.077000000194,
      "d": 1.0162583333367365,
      "v": 100
    },
    {
      "midi": 33,
      "hit": false,
      "t": 52073.077000000194,
      "d": 1.0162583333367365,
      "v": 127
    },
    {
      "midi": 65,
      "hit": false,
      "t": 52195.027999997656,
      "d": 243.9019999999582,
      "v": 100
    },
    {
      "midi": 70,
      "hit": false,
      "t": 52195.027999997656,
      "d": 243.9019999999582,
      "v": 100
    },
    {
      "midi": 62,
      "hit": false,
      "t": 52195.027999997656,
      "d": 243.9019999999582,
      "v": 100
    },
    {
      "midi": 46,
      "hit": false,
      "t": 52195.02799999965,
      "d": 487.80399999999645,
      "v": 100
    },
    {
      "midi": 53,
      "hit": false,
      "t": 52195.02799999965,
      "d": 487.80399999999645,
      "v": 100
    },
    {
      "midi": 34,
      "hit": false,
      "t": 52195.02799999989,
      "d": 243.90200000000186,
      "v": 100
    },
    {
      "midi": 77,
      "hit": false,
      "t": 52195.02800000006,
      "d": 365.8530000000028,
      "v": 100
    },
    {
      "midi": 65,
      "hit": false,
      "t": 52195.028000000166,
      "d": 121.95100000000093,
      "v": 100
    },
    {
      "midi": 60,
      "hit": false,
      "t": 52195.02800000017,
      "d": 121.95100000000093,
      "v": 100
    },
    {
      "midi": 40,
      "hit": false,
      "t": 52195.028000000195,
      "d": 1.0162583333367365,
      "v": 100
    },
    {
      "midi": 46,
      "hit": false,
      "t": 52195.028000000195,
      "d": 1.0162583333367365,
      "v": 100
    },
    {
      "midi": 33,
      "hit": false,
      "t": 52195.028000000195,
      "d": 1.0162583333367365,
      "v": 127
    },
    {
      "midi": 70,
      "hit": false,
      "t": 52316.97900000017,
      "d": 121.95100000000093,
      "v": 100
    },
    {
      "midi": 44,
      "hit": false,
      "t": 52316.979000000196,
      "d": 1.0162583333367365,
      "v": 100
    },
    {
      "midi": 65,
      "hit": false,
      "t": 52438.929999997614,
      "d": 60.975500000000466,
      "v": 100
    },
    {
      "midi": 70,
      "hit": false,
      "t": 52438.929999997614,
      "d": 60.975500000000466,
      "v": 100
    },
    {
      "midi": 62,
      "hit": false,
      "t": 52438.929999997614,
      "d": 60.975500000000466,
      "v": 100
    },
    {
      "midi": 34,
      "hit": false,
      "t": 52438.92999999989,
      "d": 243.90200000000186,
      "v": 100
    },
    {
      "midi": 74,
      "hit": false,
      "t": 52438.93000000017,
      "d": 121.95100000000093,
      "v": 100
    },
    {
      "midi": 40,
      "hit": false,
      "t": 52438.9300000002,
      "d": 1.0162583333367365,
      "v": 100
    },
    {
      "midi": 46,
      "hit": false,
      "t": 52438.9300000002,
      "d": 1.0162583333367365,
      "v": 100
    },
    {
      "midi": 33,
      "hit": false,
      "t": 52438.9300000002,
      "d": 1.0162583333367365,
      "v": 127
    },
    {
      "midi": 65,
      "hit": false,
      "t": 52560.880999997615,
      "d": 60.975500000000466,
      "v": 100
    },
    {
      "midi": 70,
      "hit": false,
      "t": 52560.880999997615,
      "d": 60.975500000000466,
      "v": 100
    },
    {
      "midi": 62,
      "hit": false,
      "t": 52560.880999997615,
      "d": 60.975500000000466,
      "v": 100
    },
    {
      "midi": 77,
      "hit": false,
      "t": 52560.88100000017,
      "d": 121.95100000000093,
      "v": 100
    },
    {
      "midi": 40,
      "hit": false,
      "t": 52560.8810000002,
      "d": 1.0162583333367365,
      "v": 100
    },
    {
      "midi": 44,
      "hit": false,
      "t": 52560.8810000002,
      "d": 1.0162583333367365,
      "v": 100
    },
    {
      "midi": 33,
      "hit": false,
      "t": 52560.8810000002,
      "d": 1.0162583333367365,
      "v": 127
    },
    {
      "midi": 67,
      "hit": false,
      "t": 52682.831999997616,
      "d": 487.80399999993824,
      "v": 100
    },
    {
      "midi": 63,
      "hit": false,
      "t": 52682.831999997616,
      "d": 487.80399999993824,
      "v": 100
    },
    {
      "midi": 72,
      "hit": false,
      "t": 52682.831999997616,
      "d": 487.80399999993824,
      "v": 100
    },
    {
      "midi": 55,
      "hit": false,
      "t": 52682.831999999646,
      "d": 487.80399999999645,
      "v": 100
    },
    {
      "midi": 48,
      "hit": false,
      "t": 52682.831999999646,
      "d": 487.80399999999645,
      "v": 100
    },
    {
      "midi": 36,
      "hit": false,
      "t": 52682.83199999989,
      "d": 243.90200000000186,
      "v": 100
    },
    {
      "midi": 72,
      "hit": false,
      "t": 52682.83199999999,
      "d": 487.80399999999645,
      "v": 100
    },
    {
      "midi": 67,
      "hit": false,
      "t": 52682.83199999999,
      "d": 487.80399999999645,
      "v": 100
    },
    {
      "midi": 63,
      "hit": false,
      "t": 52682.83199999999,
      "d": 487.80399999999645,
      "v": 100
    },
    {
      "midi": 72,
      "hit": false,
      "t": 52682.83200000006,
      "d": 243.90200000000186,
      "v": 100
    },
    {
      "midi": 60,
      "hit": false,
      "t": 52682.83200000017,
      "d": 121.95100000000093,
      "v": 100
    },
    {
      "midi": 60,
      "hit": false,
      "t": 52682.83200000018,
      "d": 121.95100000000093,
      "v": 100
    },
    {
      "midi": 33,
      "hit": false,
      "t": 52682.8320000002,
      "d": 1.0162583333367365,
      "v": 127
    },
    {
      "midi": 42,
      "hit": false,
      "t": 52682.8320000002,
      "d": 1.0162583333367365,
      "v": 100
    },
    {
      "midi": 57,
      "hit": false,
      "t": 52682.8320000002,
      "d": 1.0162583333367365,
      "v": 100
    },
    {
      "midi": 55,
      "hit": false,
      "t": 52804.78300000017,
      "d": 121.95100000000093,
      "v": 100
    },
    {
      "midi": 58,
      "hit": false,
      "t": 52804.78300000018,
      "d": 121.95100000000093,
      "v": 100
    },
    {
      "midi": 36,
      "hit": false,
      "t": 52926.733999999895,
      "d": 243.90200000000186,
      "v": 100
    },
    {
      "midi": 72,
      "hit": false,
      "t": 52926.73400000006,
      "d": 243.90200000000186,
      "v": 100
    },
    {
      "midi": 67,
      "hit": false,
      "t": 52926.73400000017,
      "d": 121.95100000000093,
      "v": 100
    },
    {
      "midi": 46,
      "hit": false,
      "t": 52926.7340000002,
      "d": 1.0162583333367365,
      "v": 100
    },
    {
      "midi": 60,
      "hit": false,
      "t": 53048.68500000017,
      "d": 121.95100000000093,
      "v": 100
    },
    {
      "midi": 60,
      "hit": false,
      "t": 53048.68500000018,
      "d": 121.95100000000093,
      "v": 100
    },
    {
      "midi": 44,
      "hit": false,
      "t": 53048.6850000002,
      "d": 1.0162583333367365,
      "v": 100
    },
    {
      "midi": 67,
      "hit": false,
      "t": 53170.635999997554,
      "d": 60.975499999985914,
      "v": 100
    },
    {
      "midi": 63,
      "hit": false,
      "t": 53170.635999997554,
      "d": 60.975499999985914,
      "v": 100
    },
    {
      "midi": 72,
      "hit": false,
      "t": 53170.635999997554,
      "d": 60.975499999985914,
      "v": 100
    },
    {
      "midi": 48,
      "hit": false,
      "t": 53170.63599999964,
      "d": 243.90200000000186,
      "v": 100
    },
    {
      "midi": 36,
      "hit": false,
      "t": 53170.6359999999,
      "d": 243.90200000000186,
      "v": 100
    },
    {
      "midi": 72,
      "hit": false,
      "t": 53170.636000000064,
      "d": 243.90200000000186,
      "v": 100
    },
    {
      "midi": 72,
      "hit": false,
      "t": 53170.63600000017,
      "d": 121.95100000000093,
      "v": 100
    },
    {
      "midi": 33,
      "hit": false,
      "t": 53170.6360000002,
      "d": 1.0162583333367365,
      "v": 127
    },
    {
      "midi": 40,
      "hit": false,
      "t": 53170.6360000002,
      "d": 1.0162583333367365,
      "v": 100
    },
    {
      "midi": 46,
      "hit": false,
      "t": 53170.6360000002,
      "d": 1.0162583333367365,
      "v": 100
    },
    {
      "midi": 67,
      "hit": false,
      "t": 53292.58699999753,
      "d": 60.97549999999319,
      "v": 100
    },
    {
      "midi": 63,
      "hit": false,
      "t": 53292.58699999753,
      "d": 60.97549999999319,
      "v": 100
    },
    {
      "midi": 72,
      "hit": false,
      "t": 53292.58699999753,
      "d": 60.97549999999319,
      "v": 100
    },
    {
      "midi": 55,
      "hit": false,
      "t": 53292.587000000174,
      "d": 121.95100000000093,
      "v": 100
    },
    {
      "midi": 55,
      "hit": false,
      "t": 53292.58700000018,
      "d": 121.95100000000093,
      "v": 100
    },
    {
      "midi": 44,
      "hit": false,
      "t": 53292.5870000002,
      "d": 1.0162583333367365,
      "v": 100
    },
    {
      "midi": 67,
      "hit": false,
      "t": 53414.53799999751,
      "d": 60.975500000000466,
      "v": 100
    },
    {
      "midi": 63,
      "hit": false,
      "t": 53414.53799999751,
      "d": 60.975500000000466,
      "v": 100
    },
    {
      "midi": 72,
      "hit": false,
      "t": 53414.53799999751,
      "d": 60.975500000000466,
      "v": 100
    },
    {
      "midi": 48,
      "hit": false,
      "t": 53414.537999999644,
      "d": 121.95100000000093,
      "v": 100
    },
    {
      "midi": 36,
      "hit": false,
      "t": 53414.5379999999,
      "d": 121.95100000000093,
      "v": 100
    },
    {
      "midi": 72,
      "hit": false,
      "t": 53414.538000000066,
      "d": 121.95100000000093,
      "v": 100
    },
    {
      "midi": 60,
      "hit": false,
      "t": 53414.538000000175,
      "d": 121.95100000000093,
      "v": 100
    },
    {
      "midi": 46,
      "hit": false,
      "t": 53414.538000000204,
      "d": 1.0162583333367365,
      "v": 100
    },
    {
      "midi": 67,
      "hit": false,
      "t": 53536.48899999751,
      "d": 60.975500000000466,
      "v": 100
    },
    {
      "midi": 63,
      "hit": false,
      "t": 53536.48899999751,
      "d": 60.975500000000466,
      "v": 100
    },
    {
      "midi": 72,
      "hit": false,
      "t": 53536.48899999751,
      "d": 60.975500000000466,
      "v": 100
    },
    {
      "midi": 48,
      "hit": false,
      "t": 53536.488999999645,
      "d": 121.95100000000093,
      "v": 100
    },
    {
      "midi": 36,
      "hit": false,
      "t": 53536.4889999999,
      "d": 243.90200000000186,
      "v": 100
    },
    {
      "midi": 72,
      "hit": false,
      "t": 53536.48900000007,
      "d": 243.90200000000186,
      "v": 100
    },
    {
      "midi": 67,
      "hit": false,
      "t": 53536.489000000176,
      "d": 121.95100000000093,
      "v": 100
    },
    {
      "midi": 55,
      "hit": false,
      "t": 53536.48900000018,
      "d": 121.95100000000093,
      "v": 100
    },
    {
      "midi": 44,
      "hit": false,
      "t": 53536.489000000205,
      "d": 1.0162583333367365,
      "v": 100
    },
    {
      "midi": 67,
      "hit": false,
      "t": 53658.439999997514,
      "d": 60.975499999985914,
      "v": 100
    },
    {
      "midi": 63,
      "hit": false,
      "t": 53658.439999997514,
      "d": 60.975499999985914,
      "v": 100
    },
    {
      "midi": 72,
      "hit": false,
      "t": 53658.439999997514,
      "d": 60.975499999985914,
      "v": 100
    },
    {
      "midi": 48,
      "hit": false,
      "t": 53658.439999999646,
      "d": 121.95100000000093,
      "v": 100
    },
    {
      "midi": 60,
      "hit": false,
      "t": 53658.44000000018,
      "d": 121.95100000000093,
      "v": 100
    },
    {
      "midi": 33,
      "hit": false,
      "t": 53658.440000000206,
      "d": 1.0162583333367365,
      "v": 127
    },
    {
      "midi": 42,
      "hit": false,
      "t": 53658.440000000206,
      "d": 1.0162583333367365,
      "v": 100
    },
    {
      "midi": 67,
      "hit": false,
      "t": 53780.39099999749,
      "d": 60.97549999999319,
      "v": 100
    },
    {
      "midi": 63,
      "hit": false,
      "t": 53780.39099999749,
      "d": 60.97549999999319,
      "v": 100
    },
    {
      "midi": 72,
      "hit": false,
      "t": 53780.39099999749,
      "d": 60.97549999999319,
      "v": 100
    },
    {
      "midi": 48,
      "hit": false,
      "t": 53780.39099999965,
      "d": 121.95100000000093,
      "v": 100
    },
    {
      "midi": 36,
      "hit": false,
      "t": 53780.3909999999,
      "d": 121.95100000000093,
      "v": 100
    },
    {
      "midi": 72,
      "hit": false,
      "t": 53780.39100000007,
      "d": 121.95100000000093,
      "v": 100
    },
    {
      "midi": 55,
      "hit": false,
      "t": 53780.39100000018,
      "d": 121.95100000000093,
      "v": 100
    },
    {
      "midi": 55,
      "hit": false,
      "t": 53780.391000000185,
      "d": 121.95100000000093,
      "v": 100
    },
    {
      "midi": 67,
      "hit": false,
      "t": 53902.34199999747,
      "d": 60.975500000000466,
      "v": 100
    },
    {
      "midi": 63,
      "hit": false,
      "t": 53902.34199999747,
      "d": 60.975500000000466,
      "v": 100
    },
    {
      "midi": 72,
      "hit": false,
      "t": 53902.34199999747,
      "d": 60.975500000000466,
      "v": 100
    },
    {
      "midi": 48,
      "hit": false,
      "t": 53902.34199999965,
      "d": 243.90200000000186,
      "v": 100
    },
    {
      "midi": 36,
      "hit": false,
      "t": 53902.3419999999,
      "d": 243.90200000000186,
      "v": 100
    },
    {
      "midi": 72,
      "hit": false,
      "t": 53902.34200000007,
      "d": 243.90200000000186,
      "v": 100
    },
    {
      "midi": 72,
      "hit": false,
      "t": 53902.34200000018,
      "d": 121.95100000000093,
      "v": 100
    },
    {
      "midi": 58,
      "hit": false,
      "t": 53902.342000000186,
      "d": 121.95100000000093,
      "v": 100
    },
    {
      "midi": 46,
      "hit": false,
      "t": 53902.34200000021,
      "d": 1.0162583333367365,
      "v": 100
    },
    {
      "midi": 67,
      "hit": false,
      "t": 54024.29299999747,
      "d": 60.975500000000466,
      "v": 100
    },
    {
      "midi": 63,
      "hit": false,
      "t": 54024.29299999747,
      "d": 60.975500000000466,
      "v": 100
    },
    {
      "midi": 72,
      "hit": false,
      "t": 54024.29299999747,
      "d": 60.975500000000466,
      "v": 100
    },
    {
      "midi": 60,
      "hit": false,
      "t": 54024.29300000018,
      "d": 121.95100000000093,
      "v": 100
    },
    {
      "midi": 44,
      "hit": false,
      "t": 54024.29300000021,
      "d": 1.0162583333367365,
      "v": 100
    },
    {
      "midi": 67,
      "hit": false,
      "t": 54146.243999997474,
      "d": 60.975499999985914,
      "v": 100
    },
    {
      "midi": 63,
      "hit": false,
      "t": 54146.243999997474,
      "d": 60.975499999985914,
      "v": 100
    },
    {
      "midi": 72,
      "hit": false,
      "t": 54146.243999997474,
      "d": 60.975499999985914,
      "v": 100
    },
    {
      "midi": 48,
      "hit": false,
      "t": 54146.24399999965,
      "d": 243.90200000000186,
      "v": 100
    },
    {
      "midi": 55,
      "hit": false,
      "t": 54146.24399999965,
      "d": 243.90200000000186,
      "v": 100
    },
    {
      "midi": 36,
      "hit": false,
      "t": 54146.243999999904,
      "d": 243.90200000000186,
      "v": 100
    },
    {
      "midi": 72,
      "hit": false,
      "t": 54146.243999999984,
      "d": 487.80399999999645,
      "v": 100
    },
    {
      "midi": 67,
      "hit": false,
      "t": 54146.243999999984,
      "d": 487.80399999999645,
      "v": 100
    },
    {
      "midi": 63,
      "hit": false,
      "t": 54146.243999999984,
      "d": 487.80399999999645,
      "v": 100
    },
    {
      "midi": 72,
      "hit": false,
      "t": 54146.24400000007,
      "d": 365.8530000000028,
      "v": 100
    },
    {
      "midi": 72,
      "hit": false,
      "t": 54146.24400000018,
      "d": 121.95100000000093,
      "v": 100
    },
    {
      "midi": 60,
      "hit": false,
      "t": 54146.24400000019,
      "d": 121.95100000000093,
      "v": 100
    },
    {
      "midi": 33,
      "hit": false,
      "t": 54146.24400000021,
      "d": 1.0162583333367365,
      "v": 127
    },
    {
      "midi": 40,
      "hit": false,
      "t": 54146.24400000021,
      "d": 1.0162583333367365,
      "v": 100
    },
    {
      "midi": 46,
      "hit": false,
      "t": 54146.24400000021,
      "d": 1.0162583333367365,
      "v": 100
    },
    {
      "midi": 67,
      "hit": false,
      "t": 54268.19499999745,
      "d": 60.97549999999319,
      "v": 100
    },
    {
      "midi": 63,
      "hit": false,
      "t": 54268.19499999745,
      "d": 60.97549999999319,
      "v": 100
    },
    {
      "midi": 72,
      "hit": false,
      "t": 54268.19499999745,
      "d": 60.97549999999319,
      "v": 100
    },
    {
      "midi": 60,
      "hit": false,
      "t": 54268.19500000018,
      "d": 121.95100000000093,
      "v": 100
    },
    {
      "midi": 44,
      "hit": false,
      "t": 54268.19500000021,
      "d": 1.0162583333367365,
      "v": 100
    },
    {
      "midi": 67,
      "hit": false,
      "t": 54390.14599999743,
      "d": 60.975500000000466,
      "v": 100
    },
    {
      "midi": 63,
      "hit": false,
      "t": 54390.14599999743,
      "d": 60.975500000000466,
      "v": 100
    },
    {
      "midi": 72,
      "hit": false,
      "t": 54390.14599999743,
      "d": 60.975500000000466,
      "v": 100
    },
    {
      "midi": 48,
      "hit": false,
      "t": 54390.14599999965,
      "d": 121.95100000000093,
      "v": 100
    },
    {
      "midi": 36,
      "hit": false,
      "t": 54390.145999999906,
      "d": 243.90200000000186,
      "v": 100
    },
    {
      "midi": 67,
      "hit": false,
      "t": 54390.14600000018,
      "d": 121.95100000000093,
      "v": 100
    },
    {
      "midi": 46,
      "hit": false,
      "t": 54390.14600000021,
      "d": 1.0162583333367365,
      "v": 100
    },
    {
      "midi": 67,
      "hit": false,
      "t": 54512.09699999743,
      "d": 60.975500000000466,
      "v": 100
    },
    {
      "midi": 63,
      "hit": false,
      "t": 54512.09699999743,
      "d": 60.975500000000466,
      "v": 100
    },
    {
      "midi": 72,
      "hit": false,
      "t": 54512.09699999743,
      "d": 60.975500000000466,
      "v": 100
    },
    {
      "midi": 48,
      "hit": false,
      "t": 54512.09699999965,
      "d": 121.95100000000093,
      "v": 100
    },
    {
      "midi": 60,
      "hit": false,
      "t": 54512.09700000018,
      "d": 121.95100000000093,
      "v": 100
    },
    {
      "midi": 44,
      "hit": false,
      "t": 54512.09700000021,
      "d": 1.0162583333367365,
      "v": 100
    },
    {
      "midi": 70,
      "hit": false,
      "t": 54634.047999997434,
      "d": 60.975499999985914,
      "v": 100
    },
    {
      "midi": 75,
      "hit": false,
      "t": 54634.047999997434,
      "d": 60.975499999985914,
      "v": 100
    },
    {
      "midi": 67,
      "hit": false,
      "t": 54634.047999997434,
      "d": 60.975499999985914,
      "v": 100
    },
    {
      "midi": 51,
      "hit": false,
      "t": 54634.04799999965,
      "d": 243.90200000000186,
      "v": 100
    },
    {
      "midi": 58,
      "hit": false,
      "t": 54634.04799999965,
      "d": 243.90200000000186,
      "v": 100
    },
    {
      "midi": 39,
      "hit": false,
      "t": 54634.04799999991,
      "d": 243.90200000000186,
      "v": 100
    },
    {
      "midi": 75,
      "hit": false,
      "t": 54634.04799999998,
      "d": 487.80399999999645,
      "v": 100
    },
    {
      "midi": 70,
      "hit": false,
      "t": 54634.04799999998,
      "d": 487.80399999999645,
      "v": 100
    },
    {
      "midi": 67,
      "hit": false,
      "t": 54634.04799999998,
      "d": 487.80399999999645,
      "v": 100
    },
    {
      "midi": 75,
      "hit": false,
      "t": 54634.048000000075,
      "d": 243.90200000000186,
      "v": 100
    },
    {
      "midi": 63,
      "hit": false,
      "t": 54634.048000000184,
      "d": 121.95100000000093,
      "v": 100
    },
    {
      "midi": 60,
      "hit": false,
      "t": 54634.04800000019,
      "d": 121.95100000000093,
      "v": 100
    },
    {
      "midi": 33,
      "hit": false,
      "t": 54634.04800000021,
      "d": 1.0162583333367365,
      "v": 127
    },
    {
      "midi": 42,
      "hit": false,
      "t": 54634.04800000021,
      "d": 1.0162583333367365,
      "v": 100
    },
    {
      "midi": 70,
      "hit": false,
      "t": 54755.99899999741,
      "d": 60.97549999999319,
      "v": 100
    },
    {
      "midi": 75,
      "hit": false,
      "t": 54755.99899999741,
      "d": 60.97549999999319,
      "v": 100
    },
    {
      "midi": 67,
      "hit": false,
      "t": 54755.99899999741,
      "d": 60.97549999999319,
      "v": 100
    },
    {
      "midi": 55,
      "hit": false,
      "t": 54755.999000000185,
      "d": 121.95100000000093,
      "v": 100
    },
    {
      "midi": 58,
      "hit": false,
      "t": 54755.99900000019,
      "d": 121.95100000000093,
      "v": 100
    },
    {
      "midi": 70,
      "hit": false,
      "t": 54877.94999999739,
      "d": 60.975500000000466,
      "v": 100
    },
    {
      "midi": 75,
      "hit": false,
      "t": 54877.94999999739,
      "d": 60.975500000000466,
      "v": 100
    },
    {
      "midi": 67,
      "hit": false,
      "t": 54877.94999999739,
      "d": 60.975500000000466,
      "v": 100
    },
    {
      "midi": 51,
      "hit": false,
      "t": 54877.949999999655,
      "d": 243.90200000000186,
      "v": 100
    },
    {
      "midi": 39,
      "hit": false,
      "t": 54877.94999999991,
      "d": 243.90200000000186,
      "v": 100
    },
    {
      "midi": 75,
      "hit": false,
      "t": 54877.95000000008,
      "d": 243.90200000000186,
      "v": 100
    },
    {
      "midi": 67,
      "hit": false,
      "t": 54877.950000000186,
      "d": 121.95100000000093,
      "v": 100
    },
    {
      "midi": 46,
      "hit": false,
      "t": 54877.950000000215,
      "d": 1.0162583333367365,
      "v": 100
    },
    {
      "midi": 70,
      "hit": false,
      "t": 54999.90099999739,
      "d": 60.975500000000466,
      "v": 100
    },
    {
      "midi": 75,
      "hit": false,
      "t": 54999.90099999739,
      "d": 60.975500000000466,
      "v": 100
    },
    {
      "midi": 67,
      "hit": false,
      "t": 54999.90099999739,
      "d": 60.975500000000466,
      "v": 100
    },
    {
      "midi": 70,
      "hit": false,
      "t": 54999.90100000019,
      "d": 121.95100000000093,
      "v": 100
    },
    {
      "midi": 60,
      "hit": false,
      "t": 54999.901000000194,
      "d": 121.95100000000093,
      "v": 100
    },
    {
      "midi": 44,
      "hit": false,
      "t": 54999.901000000216,
      "d": 1.0162583333367365,
      "v": 100
    },
    {
      "midi": 70,
      "hit": false,
      "t": 55121.851999997394,
      "d": 60.975499999985914,
      "v": 100
    },
    {
      "midi": 75,
      "hit": false,
      "t": 55121.851999997394,
      "d": 60.975499999985914,
      "v": 100
    },
    {
      "midi": 67,
      "hit": false,
      "t": 55121.851999997394,
      "d": 60.975499999985914,
      "v": 100
    },
    {
      "midi": 51,
      "hit": false,
      "t": 55121.85199999966,
      "d": 243.9019999999946,
      "v": 100
    },
    {
      "midi": 58,
      "hit": false,
      "t": 55121.85199999966,
      "d": 243.9019999999946,
      "v": 100
    },
    {
      "midi": 39,
      "hit": false,
      "t": 55121.85199999991,
      "d": 243.90200000000186,
      "v": 100
    },
    {
      "midi": 75,
      "hit": false,
      "t": 55121.85200000008,
      "d": 243.90200000000186,
      "v": 100
    },
    {
      "midi": 67,
      "hit": false,
      "t": 55121.85200000019,
      "d": 121.95100000000093,
      "v": 100
    },
    {
      "midi": 33,
      "hit": false,
      "t": 55121.85200000022,
      "d": 1.0162583333367365,
      "v": 127
    },
    {
      "midi": 40,
      "hit": false,
      "t": 55121.85200000022,
      "d": 1.0162583333367365,
      "v": 100
    },
    {
      "midi": 46,
      "hit": false,
      "t": 55121.85200000022,
      "d": 1.0162583333367365,
      "v": 100
    },
    {
      "midi": 70,
      "hit": false,
      "t": 55243.80299999737,
      "d": 60.97549999999319,
      "v": 100
    },
    {
      "midi": 75,
      "hit": false,
      "t": 55243.80299999737,
      "d": 60.97549999999319,
      "v": 100
    },
    {
      "midi": 67,
      "hit": false,
      "t": 55243.80299999737,
      "d": 60.97549999999319,
      "v": 100
    },
    {
      "midi": 58,
      "hit": false,
      "t": 55243.80300000019,
      "d": 121.95100000000093,
      "v": 100
    },
    {
      "midi": 55,
      "hit": false,
      "t": 55243.803000000196,
      "d": 121.95100000000093,
      "v": 100
    },
    {
      "midi": 44,
      "hit": false,
      "t": 55243.80300000022,
      "d": 1.0162583333367365,
      "v": 100
    },
    {
      "midi": 70,
      "hit": false,
      "t": 55365.75399999735,
      "d": 60.975500000000466,
      "v": 100
    },
    {
      "midi": 75,
      "hit": false,
      "t": 55365.75399999735,
      "d": 60.975500000000466,
      "v": 100
    },
    {
      "midi": 67,
      "hit": false,
      "t": 55365.75399999735,
      "d": 60.975500000000466,
      "v": 100
    },
    {
      "midi": 51,
      "hit": false,
      "t": 55365.75399999965,
      "d": 121.95100000000093,
      "v": 100
    },
    {
      "midi": 39,
      "hit": false,
      "t": 55365.75399999991,
      "d": 121.95100000000093,
      "v": 100
    },
    {
      "midi": 75,
      "hit": false,
      "t": 55365.75400000008,
      "d": 121.95100000000093,
      "v": 100
    },
    {
      "midi": 70,
      "hit": false,
      "t": 55365.75400000019,
      "d": 121.95100000000093,
      "v": 100
    },
    {
      "midi": 46,
      "hit": false,
      "t": 55365.75400000022,
      "d": 1.0162583333367365,
      "v": 100
    },
    {
      "midi": 70,
      "hit": false,
      "t": 55487.70499999735,
      "d": 60.975500000000466,
      "v": 100
    },
    {
      "midi": 75,
      "hit": false,
      "t": 55487.70499999735,
      "d": 60.975500000000466,
      "v": 100
    },
    {
      "midi": 67,
      "hit": false,
      "t": 55487.70499999735,
      "d": 60.975500000000466,
      "v": 100
    },
    {
      "midi": 53,
      "hit": false,
      "t": 55487.70499999965,
      "d": 243.90200000000186,
      "v": 100
    },
    {
      "midi": 60,
      "hit": false,
      "t": 55487.70499999965,
      "d": 243.90200000000186,
      "v": 100
    },
    {
      "midi": 41,
      "hit": false,
      "t": 55487.704999999914,
      "d": 243.90200000000186,
      "v": 100
    },
    {
      "midi": 77,
      "hit": false,
      "t": 55487.70500000008,
      "d": 243.90200000000186,
      "v": 100
    },
    {
      "midi": 67,
      "hit": false,
      "t": 55487.70500000019,
      "d": 121.95100000000093,
      "v": 100
    },
    {
      "midi": 55,
      "hit": false,
      "t": 55487.7050000002,
      "d": 121.95100000000093,
      "v": 100
    },
    {
      "midi": 44,
      "hit": false,
      "t": 55487.70500000022,
      "d": 1.0162583333367365,
      "v": 100
    },
    {
      "midi": 72,
      "hit": false,
      "t": 55609.655999997354,
      "d": 60.975499999985914,
      "v": 100
    },
    {
      "midi": 77,
      "hit": false,
      "t": 55609.655999997354,
      "d": 60.975499999985914,
      "v": 100
    },
    {
      "midi": 69,
      "hit": false,
      "t": 55609.655999997354,
      "d": 60.975499999985914,
      "v": 100
    },
    {
      "midi": 77,
      "hit": false,
      "t": 55609.65599999997,
      "d": 487.80399999999645,
      "v": 100
    },
    {
      "midi": 74,
      "hit": false,
      "t": 55609.65599999997,
      "d": 487.80399999999645,
      "v": 100
    },
    {
      "midi": 70,
      "hit": false,
      "t": 55609.65599999997,
      "d": 487.80399999999645,
      "v": 100
    },
    {
      "midi": 65,
      "hit": false,
      "t": 55609.65600000019,
      "d": 121.95100000000093,
      "v": 100
    },
    {
      "midi": 33,
      "hit": false,
      "t": 55609.65600000022,
      "d": 1.0162583333367365,
      "v": 127
    },
    {
      "midi": 42,
      "hit": false,
      "t": 55609.65600000022,
      "d": 1.0162583333367365,
      "v": 100
    },
    {
      "midi": 72,
      "hit": false,
      "t": 55731.60699999733,
      "d": 60.97549999999319,
      "v": 100
    },
    {
      "midi": 77,
      "hit": false,
      "t": 55731.60699999733,
      "d": 60.97549999999319,
      "v": 100
    },
    {
      "midi": 69,
      "hit": false,
      "t": 55731.60699999733,
      "d": 60.97549999999319,
      "v": 100
    },
    {
      "midi": 53,
      "hit": false,
      "t": 55731.606999999654,
      "d": 121.95100000000093,
      "v": 100
    },
    {
      "midi": 41,
      "hit": false,
      "t": 55731.606999999916,
      "d": 121.95100000000093,
      "v": 100
    },
    {
      "midi": 77,
      "hit": false,
      "t": 55731.607000000084,
      "d": 121.95100000000093,
      "v": 100
    },
    {
      "midi": 70,
      "hit": false,
      "t": 55731.60700000019,
      "d": 121.95100000000093,
      "v": 100
    },
    {
      "midi": 55,
      "hit": false,
      "t": 55731.6070000002,
      "d": 121.95100000000093,
      "v": 100
    },
    {
      "midi": 72,
      "hit": false,
      "t": 55853.55799999731,
      "d": 60.975500000000466,
      "v": 100
    },
    {
      "midi": 77,
      "hit": false,
      "t": 55853.55799999731,
      "d": 60.975500000000466,
      "v": 100
    },
    {
      "midi": 69,
      "hit": false,
      "t": 55853.55799999731,
      "d": 60.975500000000466,
      "v": 100
    },
    {
      "midi": 53,
      "hit": false,
      "t": 55853.557999999655,
      "d": 243.90200000000186,
      "v": 100
    },
    {
      "midi": 41,
      "hit": false,
      "t": 55853.55799999992,
      "d": 243.90200000000186,
      "v": 100
    },
    {
      "midi": 77,
      "hit": false,
      "t": 55853.558000000085,
      "d": 121.95100000000093,
      "v": 100
    },
    {
      "midi": 74,
      "hit": false,
      "t": 55853.558000000194,
      "d": 121.95100000000093,
      "v": 100
    },
    {
      "midi": 58,
      "hit": false,
      "t": 55853.5580000002,
      "d": 121.95100000000093,
      "v": 100
    },
    {
      "midi": 46,
      "hit": false,
      "t": 55853.55800000022,
      "d": 1.0162583333367365,
      "v": 100
    },
    {
      "midi": 72,
      "hit": false,
      "t": 55975.50899999731,
      "d": 60.975500000000466,
      "v": 100
    },
    {
      "midi": 77,
      "hit": false,
      "t": 55975.50899999731,
      "d": 60.975500000000466,
      "v": 100
    },
    {
      "midi": 69,
      "hit": false,
      "t": 55975.50899999731,
      "d": 60.975500000000466,
      "v": 100
    },
    {
      "midi": 77,
      "hit": false,
      "t": 55975.509000000195,
      "d": 121.95100000000093,
      "v": 100
    },
    {
      "midi": 44,
      "hit": false,
      "t": 55975.509000000224,
      "d": 1.0162583333367365,
      "v": 100
    },
    {
      "midi": 72,
      "hit": false,
      "t": 56097.459999997314,
      "d": 243.9019999999582,
      "v": 100
    },
    {
      "midi": 77,
      "hit": false,
      "t": 56097.459999997314,
      "d": 243.9019999999582,
      "v": 100
    },
    {
      "midi": 69,
      "hit": false,
      "t": 56097.459999997314,
      "d": 243.9019999999582,
      "v": 100
    },
    {
      "midi": 53,
      "hit": false,
      "t": 56097.45999999966,
      "d": 487.80399999996007,
      "v": 100
    },
    {
      "midi": 60,
      "hit": false,
      "t": 56097.45999999966,
      "d": 487.80399999996007,
      "v": 100
    },
    {
      "midi": 41,
      "hit": false,
      "t": 56097.45999999992,
      "d": 243.90200000000186,
      "v": 100
    },
    {
      "midi": 81,
      "hit": false,
      "t": 56097.45999999997,
      "d": 487.80399999999645,
      "v": 100
    },
    {
      "midi": 77,
      "hit": false,
      "t": 56097.45999999997,
      "d": 487.80399999999645,
      "v": 100
    },
    {
      "midi": 74,
      "hit": false,
      "t": 56097.45999999997,
      "d": 487.80399999999645,
      "v": 100
    },
    {
      "midi": 77,
      "hit": false,
      "t": 56097.46000000009,
      "d": 365.8530000000028,
      "v": 100
    },
    {
      "midi": 65,
      "hit": false,
      "t": 56097.460000000196,
      "d": 121.95100000000093,
      "v": 100
    },
    {
      "midi": 60,
      "hit": false,
      "t": 56097.4600000002,
      "d": 121.95100000000093,
      "v": 100
    },
    {
      "midi": 33,
      "hit": false,
      "t": 56097.460000000225,
      "d": 1.0162583333367365,
      "v": 127
    },
    {
      "midi": 40,
      "hit": false,
      "t": 56097.460000000225,
      "d": 1.0162583333367365,
      "v": 100
    },
    {
      "midi": 46,
      "hit": false,
      "t": 56097.460000000225,
      "d": 1.0162583333367365,
      "v": 100
    },
    {
      "midi": 57,
      "hit": false,
      "t": 56097.460000000225,
      "d": 1.0162583333367365,
      "v": 100
    },
    {
      "midi": 70,
      "hit": false,
      "t": 56219.4110000002,
      "d": 121.95100000000093,
      "v": 100
    },
    {
      "midi": 44,
      "hit": false,
      "t": 56219.411000000226,
      "d": 1.0162583333367365,
      "v": 100
    },
    {
      "midi": 72,
      "hit": false,
      "t": 56341.36199999727,
      "d": 60.975500000000466,
      "v": 100
    },
    {
      "midi": 77,
      "hit": false,
      "t": 56341.36199999727,
      "d": 60.975500000000466,
      "v": 100
    },
    {
      "midi": 69,
      "hit": false,
      "t": 56341.36199999727,
      "d": 60.975500000000466,
      "v": 100
    },
    {
      "midi": 41,
      "hit": false,
      "t": 56341.36199999992,
      "d": 243.90200000000186,
      "v": 100
    },
    {
      "midi": 74,
      "hit": false,
      "t": 56341.3620000002,
      "d": 121.95100000000093,
      "v": 100
    },
    {
      "midi": 40,
      "hit": false,
      "t": 56341.36200000023,
      "d": 1.0162583333367365,
      "v": 40
    },
    {
      "midi": 46,
      "hit": false,
      "t": 56341.36200000023,
      "d": 1.0162583333367365,
      "v": 100
    },
    {
      "midi": 72,
      "hit": false,
      "t": 56463.31299999727,
      "d": 60.975500000000466,
      "v": 100
    },
    {
      "midi": 77,
      "hit": false,
      "t": 56463.31299999727,
      "d": 60.975500000000466,
      "v": 100
    },
    {
      "midi": 69,
      "hit": false,
      "t": 56463.31299999727,
      "d": 60.975500000000466,
      "v": 100
    },
    {
      "midi": 77,
      "hit": false,
      "t": 56463.3130000002,
      "d": 121.95100000000093,
      "v": 100
    },
    {
      "midi": 40,
      "hit": false,
      "t": 56463.31300000023,
      "d": 1.0162583333367365,
      "v": 100
    },
    {
      "midi": 44,
      "hit": false,
      "t": 56463.31300000023,
      "d": 1.0162583333367365,
      "v": 100
    },
    {
      "midi": 63,
      "hit": false,
      "t": 56585.263999997274,
      "d": 487.80399999993824,
      "v": 100
    },
    {
      "midi": 68,
      "hit": false,
      "t": 56585.263999997274,
      "d": 487.80399999993824,
      "v": 100
    },
    {
      "midi": 60,
      "hit": false,
      "t": 56585.263999997274,
      "d": 487.80399999993824,
      "v": 100
    },
    {
      "midi": 44,
      "hit": false,
      "t": 56585.26399999962,
      "d": 853.6569999999992,
      "v": 100
    },
    {
      "midi": 51,
      "hit": false,
      "t": 56585.26399999962,
      "d": 853.6569999999992,
      "v": 100
    },
    {
      "midi": 32,
      "hit": false,
      "t": 56585.26399999992,
      "d": 243.90200000000186,
      "v": 100
    },
    {
      "midi": 80,
      "hit": false,
      "t": 56585.26399999997,
      "d": 487.80399999999645,
      "v": 100
    },
    {
      "midi": 75,
      "hit": false,
      "t": 56585.26399999997,
      "d": 487.80399999999645,
      "v": 100
    },
    {
      "midi": 72,
      "hit": false,
      "t": 56585.26399999997,
      "d": 487.80399999999645,
      "v": 100
    },
    {
      "midi": 75,
      "hit": false,
      "t": 56585.26400000009,
      "d": 243.90200000000186,
      "v": 100
    },
    {
      "midi": 68,
      "hit": false,
      "t": 56585.2640000002,
      "d": 121.95100000000093,
      "v": 100
    },
    {
      "midi": 60,
      "hit": false,
      "t": 56585.26400000021,
      "d": 121.95100000000093,
      "v": 100
    },
    {
      "midi": 33,
      "hit": false,
      "t": 56585.26400000023,
      "d": 1.0162583333367365,
      "v": 127
    },
    {
      "midi": 42,
      "hit": false,
      "t": 56585.26400000023,
      "d": 1.0162583333367365,
      "v": 100
    },
    {
      "midi": 57,
      "hit": false,
      "t": 56585.26400000023,
      "d": 1.0162583333367365,
      "v": 100
    },
    {
      "midi": 60,
      "hit": false,
      "t": 56707.2150000002,
      "d": 121.95100000000093,
      "v": 100
    },
    {
      "midi": 58,
      "hit": false,
      "t": 56707.21500000021,
      "d": 121.95100000000093,
      "v": 100
    },
    {
      "midi": 32,
      "hit": false,
      "t": 56829.165999999925,
      "d": 243.90200000000186,
      "v": 100
    },
    {
      "midi": 75,
      "hit": false,
      "t": 56829.16600000009,
      "d": 243.90200000000186,
      "v": 100
    },
    {
      "midi": 63,
      "hit": false,
      "t": 56829.1660000002,
      "d": 121.95100000000093,
      "v": 100
    },
    {
      "midi": 46,
      "hit": false,
      "t": 56829.16600000023,
      "d": 1.0162583333367365,
      "v": 100
    },
    {
      "midi": 68,
      "hit": false,
      "t": 56951.1170000002,
      "d": 121.95100000000093,
      "v": 100
    },
    {
      "midi": 60,
      "hit": false,
      "t": 56951.11700000021,
      "d": 121.95100000000093,
      "v": 100
    },
    {
      "midi": 44,
      "hit": false,
      "t": 56951.11700000023,
      "d": 1.0162583333367365,
      "v": 100
    },
    {
      "midi": 63,
      "hit": false,
      "t": 57073.06799999721,
      "d": 60.975499999985914,
      "v": 100
    },
    {
      "midi": 68,
      "hit": false,
      "t": 57073.06799999721,
      "d": 60.975499999985914,
      "v": 100
    },
    {
      "midi": 60,
      "hit": false,
      "t": 57073.06799999721,
      "d": 60.975499999985914,
      "v": 100
    },
    {
      "midi": 32,
      "hit": false,
      "t": 57073.06799999993,
      "d": 243.90200000000186,
      "v": 100
    },
    {
      "midi": 75,
      "hit": false,
      "t": 57073.068000000094,
      "d": 243.90200000000186,
      "v": 100
    },
    {
      "midi": 72,
      "hit": false,
      "t": 57073.0680000002,
      "d": 121.95100000000093,
      "v": 100
    },
    {
      "midi": 33,
      "hit": false,
      "t": 57073.06800000023,
      "d": 1.0162583333367365,
      "v": 127
    },
    {
      "midi": 40,
      "hit": false,
      "t": 57073.06800000023,
      "d": 1.0162583333367365,
      "v": 100
    },
    {
      "midi": 46,
      "hit": false,
      "t": 57073.06800000023,
      "d": 1.0162583333367365,
      "v": 100
    },
    {
      "midi": 63,
      "hit": false,
      "t": 57195.01899999719,
      "d": 60.97549999999319,
      "v": 100
    },
    {
      "midi": 68,
      "hit": false,
      "t": 57195.01899999719,
      "d": 60.97549999999319,
      "v": 100
    },
    {
      "midi": 60,
      "hit": false,
      "t": 57195.01899999719,
      "d": 60.97549999999319,
      "v": 100
    },
    {
      "midi": 75,
      "hit": false,
      "t": 57195.019000000204,
      "d": 121.95100000000093,
      "v": 100
    },
    {
      "midi": 55,
      "hit": false,
      "t": 57195.01900000021,
      "d": 121.95100000000093,
      "v": 100
    },
    {
      "midi": 44,
      "hit": false,
      "t": 57195.01900000023,
      "d": 1.0162583333367365,
      "v": 100
    },
    {
      "midi": 63,
      "hit": false,
      "t": 57316.96999999717,
      "d": 60.975500000000466,
      "v": 100
    },
    {
      "midi": 68,
      "hit": false,
      "t": 57316.96999999717,
      "d": 60.975500000000466,
      "v": 100
    },
    {
      "midi": 60,
      "hit": false,
      "t": 57316.96999999717,
      "d": 60.975500000000466,
      "v": 100
    },
    {
      "midi": 32,
      "hit": false,
      "t": 57316.96999999993,
      "d": 121.95100000000093,
      "v": 100
    },
    {
      "midi": 75,
      "hit": false,
      "t": 57316.970000000096,
      "d": 121.95100000000093,
      "v": 100
    },
    {
      "midi": 80,
      "hit": false,
      "t": 57316.970000000205,
      "d": 121.95100000000093,
      "v": 100
    },
    {
      "midi": 46,
      "hit": false,
      "t": 57316.970000000234,
      "d": 1.0162583333367365,
      "v": 100
    },
    {
      "midi": 63,
      "hit": false,
      "t": 57438.92099999717,
      "d": 60.975500000000466,
      "v": 100
    },
    {
      "midi": 68,
      "hit": false,
      "t": 57438.92099999717,
      "d": 60.975500000000466,
      "v": 100
    },
    {
      "midi": 60,
      "hit": false,
      "t": 57438.92099999717,
      "d": 60.975500000000466,
      "v": 100
    },
    {
      "midi": 46,
      "hit": false,
      "t": 57438.92099999962,
      "d": 243.90200000000186,
      "v": 100
    },
    {
      "midi": 34,
      "hit": false,
      "t": 57438.92099999993,
      "d": 243.90200000000186,
      "v": 100
    },
    {
      "midi": 77,
      "hit": false,
      "t": 57438.9210000001,
      "d": 243.90200000000186,
      "v": 100
    },
    {
      "midi": 72,
      "hit": false,
      "t": 57438.921000000206,
      "d": 121.95100000000093,
      "v": 100
    },
    {
      "midi": 55,
      "hit": false,
      "t": 57438.92100000021,
      "d": 121.95100000000093,
      "v": 100
    },
    {
      "midi": 44,
      "hit": false,
      "t": 57438.921000000235,
      "d": 1.0162583333367365,
      "v": 100
    },
    {
      "midi": 65,
      "hit": false,
      "t": 57560.87199999717,
      "d": 60.975499999985914,
      "v": 100
    },
    {
      "midi": 70,
      "hit": false,
      "t": 57560.87199999717,
      "d": 60.975499999985914,
      "v": 100
    },
    {
      "midi": 62,
      "hit": false,
      "t": 57560.87199999717,
      "d": 60.975499999985914,
      "v": 100
    },
    {
      "midi": 77,
      "hit": false,
      "t": 57560.87199999996,
      "d": 487.80399999999645,
      "v": 100
    },
    {
      "midi": 74,
      "hit": false,
      "t": 57560.87199999996,
      "d": 487.80399999999645,
      "v": 100
    },
    {
      "midi": 70,
      "hit": false,
      "t": 57560.87199999996,
      "d": 487.80399999999645,
      "v": 100
    },
    {
      "midi": 77,
      "hit": false,
      "t": 57560.87200000021,
      "d": 121.95100000000093,
      "v": 100
    },
    {
      "midi": 33,
      "hit": false,
      "t": 57560.872000000236,
      "d": 1.0162583333367365,
      "v": 127
    },
    {
      "midi": 42,
      "hit": false,
      "t": 57560.872000000236,
      "d": 1.0162583333367365,
      "v": 100
    },
    {
      "midi": 65,
      "hit": false,
      "t": 57682.82299999715,
      "d": 60.97549999999319,
      "v": 100
    },
    {
      "midi": 70,
      "hit": false,
      "t": 57682.82299999715,
      "d": 60.97549999999319,
      "v": 100
    },
    {
      "midi": 62,
      "hit": false,
      "t": 57682.82299999715,
      "d": 60.97549999999319,
      "v": 100
    },
    {
      "midi": 46,
      "hit": false,
      "t": 57682.82299999962,
      "d": 121.95100000000093,
      "v": 100
    },
    {
      "midi": 34,
      "hit": false,
      "t": 57682.82299999993,
      "d": 121.95100000000093,
      "v": 100
    },
    {
      "midi": 77,
      "hit": false,
      "t": 57682.8230000001,
      "d": 121.95100000000093,
      "v": 100
    },
    {
      "midi": 82,
      "hit": false,
      "t": 57682.82300000021,
      "d": 121.95100000000093,
      "v": 100
    },
    {
      "midi": 55,
      "hit": false,
      "t": 57682.823000000215,
      "d": 121.95100000000093,
      "v": 100
    },
    {
      "midi": 65,
      "hit": false,
      "t": 57804.77399999713,
      "d": 60.975500000000466,
      "v": 100
    },
    {
      "midi": 70,
      "hit": false,
      "t": 57804.77399999713,
      "d": 60.975500000000466,
      "v": 100
    },
    {
      "midi": 62,
      "hit": false,
      "t": 57804.77399999713,
      "d": 60.975500000000466,
      "v": 100
    },
    {
      "midi": 46,
      "hit": false,
      "t": 57804.77399999962,
      "d": 243.90200000000186,
      "v": 100
    },
    {
      "midi": 53,
      "hit": false,
      "t": 57804.77399999962,
      "d": 243.90200000000186,
      "v": 100
    },
    {
      "midi": 34,
      "hit": false,
      "t": 57804.77399999993,
      "d": 243.90200000000186,
      "v": 100
    },
    {
      "midi": 77,
      "hit": false,
      "t": 57804.7740000001,
      "d": 243.90200000000186,
      "v": 100
    },
    {
      "midi": 74,
      "hit": false,
      "t": 57804.77400000021,
      "d": 121.95100000000093,
      "v": 100
    },
    {
      "midi": 58,
      "hit": false,
      "t": 57804.774000000216,
      "d": 121.95100000000093,
      "v": 100
    },
    {
      "midi": 46,
      "hit": false,
      "t": 57804.77400000024,
      "d": 1.0162583333367365,
      "v": 100
    },
    {
      "midi": 65,
      "hit": false,
      "t": 57926.72499999713,
      "d": 60.975500000000466,
      "v": 100
    },
    {
      "midi": 70,
      "hit": false,
      "t": 57926.72499999713,
      "d": 60.975500000000466,
      "v": 100
    },
    {
      "midi": 62,
      "hit": false,
      "t": 57926.72499999713,
      "d": 60.975500000000466,
      "v": 100
    },
    {
      "midi": 70,
      "hit": false,
      "t": 57926.72500000021,
      "d": 121.95100000000093,
      "v": 100
    },
    {
      "midi": 44,
      "hit": false,
      "t": 57926.72500000024,
      "d": 1.0162583333367365,
      "v": 100
    },
    {
      "midi": 65,
      "hit": false,
      "t": 58048.67599999713,
      "d": 121.9509999999791,
      "v": 100
    },
    {
      "midi": 70,
      "hit": false,
      "t": 58048.67599999713,
      "d": 121.9509999999791,
      "v": 100
    },
    {
      "midi": 62,
      "hit": false,
      "t": 58048.67599999713,
      "d": 121.9509999999791,
      "v": 100
    },
    {
      "midi": 46,
      "hit": false,
      "t": 58048.67599999962,
      "d": 487.80399999996007,
      "v": 100
    },
    {
      "midi": 53,
      "hit": false,
      "t": 58048.67599999962,
      "d": 487.80399999996007,
      "v": 100
    },
    {
      "midi": 34,
      "hit": false,
      "t": 58048.675999999934,
      "d": 243.90200000000186,
      "v": 100
    },
    {
      "midi": 75,
      "hit": false,
      "t": 58048.6760000001,
      "d": 243.90200000000186,
      "v": 100
    },
    {
      "midi": 74,
      "hit": false,
      "t": 58048.67600000021,
      "d": 121.95100000000093,
      "v": 100
    },
    {
      "midi": 60,
      "hit": false,
      "t": 58048.67600000022,
      "d": 121.95100000000093,
      "v": 100
    },
    {
      "midi": 33,
      "hit": false,
      "t": 58048.67600000024,
      "d": 1.0162583333367365,
      "v": 127
    },
    {
      "midi": 40,
      "hit": false,
      "t": 58048.67600000024,
      "d": 1.0162583333367365,
      "v": 100
    },
    {
      "midi": 46,
      "hit": false,
      "t": 58048.67600000024,
      "d": 1.0162583333367365,
      "v": 100
    },
    {
      "midi": 65,
      "hit": false,
      "t": 58170.62699999711,
      "d": 121.9509999999791,
      "v": 100
    },
    {
      "midi": 70,
      "hit": false,
      "t": 58170.62699999711,
      "d": 121.9509999999791,
      "v": 100
    },
    {
      "midi": 62,
      "hit": false,
      "t": 58170.62699999711,
      "d": 121.9509999999791,
      "v": 100
    },
    {
      "midi": 77,
      "hit": false,
      "t": 58170.62700000021,
      "d": 121.95100000000093,
      "v": 100
    },
    {
      "midi": 44,
      "hit": false,
      "t": 58170.62700000024,
      "d": 1.0162583333367365,
      "v": 100
    },
    {
      "midi": 65,
      "hit": false,
      "t": 58292.57799999709,
      "d": 60.975500000000466,
      "v": 100
    },
    {
      "midi": 70,
      "hit": false,
      "t": 58292.57799999709,
      "d": 60.975500000000466,
      "v": 100
    },
    {
      "midi": 62,
      "hit": false,
      "t": 58292.57799999709,
      "d": 60.975500000000466,
      "v": 100
    },
    {
      "midi": 34,
      "hit": false,
      "t": 58292.577999999936,
      "d": 243.90200000000186,
      "v": 100
    },
    {
      "midi": 77,
      "hit": false,
      "t": 58292.5780000001,
      "d": 243.90200000000186,
      "v": 100
    },
    {
      "midi": 82,
      "hit": false,
      "t": 58292.57800000021,
      "d": 121.95100000000093,
      "v": 100
    },
    {
      "midi": 46,
      "hit": false,
      "t": 58292.57800000024,
      "d": 1.0162583333367365,
      "v": 100
    },
    {
      "midi": 65,
      "hit": false,
      "t": 58414.52899999709,
      "d": 60.975500000000466,
      "v": 100
    },
    {
      "midi": 70,
      "hit": false,
      "t": 58414.52899999709,
      "d": 60.975500000000466,
      "v": 100
    },
    {
      "midi": 62,
      "hit": false,
      "t": 58414.52899999709,
      "d": 60.975500000000466,
      "v": 100
    },
    {
      "midi": 70,
      "hit": false,
      "t": 58414.52900000021,
      "d": 121.95100000000093,
      "v": 100
    },
    {
      "midi": 44,
      "hit": false,
      "t": 58414.52900000024,
      "d": 1.0162583333367365,
      "v": 100
    },
    {
      "midi": 67,
      "hit": false,
      "t": 58536.47999999709,
      "d": 487.80399999993824,
      "v": 100
    },
    {
      "midi": 63,
      "hit": false,
      "t": 58536.47999999709,
      "d": 487.80399999993824,
      "v": 100
    },
    {
      "midi": 72,
      "hit": false,
      "t": 58536.47999999709,
      "d": 487.80399999993824,
      "v": 100
    },
    {
      "midi": 48,
      "hit": false,
      "t": 58536.47999999958,
      "d": 1951.2160000000003,
      "v": 100
    },
    {
      "midi": 55,
      "hit": false,
      "t": 58536.47999999958,
      "d": 1951.2160000000003,
      "v": 100
    },
    {
      "midi": 36,
      "hit": false,
      "t": 58536.47999999994,
      "d": 243.90200000000186,
      "v": 100
    },
    {
      "midi": 72,
      "hit": false,
      "t": 58536.47999999995,
      "d": 487.80399999999645,
      "v": 100
    },
    {
      "midi": 67,
      "hit": false,
      "t": 58536.47999999995,
      "d": 487.80399999999645,
      "v": 100
    },
    {
      "midi": 63,
      "hit": false,
      "t": 58536.47999999995,
      "d": 487.80399999999645,
      "v": 100
    },
    {
      "midi": 75,
      "hit": false,
      "t": 58536.480000000105,
      "d": 243.90200000000186,
      "v": 100
    },
    {
      "midi": 60,
      "hit": false,
      "t": 58536.480000000214,
      "d": 121.95100000000093,
      "v": 100
    },
    {
      "midi": 33,
      "hit": false,
      "t": 58536.48000000024,
      "d": 1.0162583333367365,
      "v": 127
    },
    {
      "midi": 42,
      "hit": false,
      "t": 58536.48000000024,
      "d": 1.0162583333367365,
      "v": 100
    },
    {
      "midi": 55,
      "hit": false,
      "t": 58658.431000000215,
      "d": 121.95100000000093,
      "v": 100
    },
    {
      "midi": 40,
      "hit": false,
      "t": 58658.431000000244,
      "d": 1.0162583333367365,
      "v": 100
    },
    {
      "midi": 36,
      "hit": false,
      "t": 58780.38199999994,
      "d": 243.90200000000186,
      "v": 100
    },
    {
      "midi": 72,
      "hit": false,
      "t": 58780.38200000011,
      "d": 243.90200000000186,
      "v": 100
    },
    {
      "midi": 63,
      "hit": false,
      "t": 58780.382000000216,
      "d": 121.95100000000093,
      "v": 100
    },
    {
      "midi": 67,
      "hit": false,
      "t": 58780.382000000216,
      "d": 121.95100000000093,
      "v": 100
    },
    {
      "midi": 46,
      "hit": false,
      "t": 58780.382000000245,
      "d": 1.0162583333367365,
      "v": 100
    },
    {
      "midi": 60,
      "hit": false,
      "t": 58902.33300000022,
      "d": 121.95100000000093,
      "v": 100
    },
    {
      "midi": 44,
      "hit": false,
      "t": 58902.333000000246,
      "d": 1.0162583333367365,
      "v": 100
    },
    {
      "midi": 67,
      "hit": false,
      "t": 59024.28399999703,
      "d": 60.975499999985914,
      "v": 100
    },
    {
      "midi": 63,
      "hit": false,
      "t": 59024.28399999703,
      "d": 60.975499999985914,
      "v": 100
    },
    {
      "midi": 72,
      "hit": false,
      "t": 59024.28399999703,
      "d": 60.975499999985914,
      "v": 100
    },
    {
      "midi": 36,
      "hit": false,
      "t": 59024.28399999994,
      "d": 243.90200000000186,
      "v": 100
    },
    {
      "midi": 72,
      "hit": false,
      "t": 59024.28400000011,
      "d": 243.90200000000186,
      "v": 100
    },
    {
      "midi": 63,
      "hit": false,
      "t": 59024.28400000022,
      "d": 121.95100000000093,
      "v": 100
    },
    {
      "midi": 72,
      "hit": false,
      "t": 59024.28400000022,
      "d": 121.95100000000093,
      "v": 100
    },
    {
      "midi": 33,
      "hit": false,
      "t": 59024.28400000025,
      "d": 1.0162583333367365,
      "v": 127
    },
    {
      "midi": 40,
      "hit": false,
      "t": 59024.28400000025,
      "d": 1.0162583333367365,
      "v": 40
    },
    {
      "midi": 46,
      "hit": false,
      "t": 59024.28400000025,
      "d": 1.0162583333367365,
      "v": 100
    },
    {
      "midi": 67,
      "hit": false,
      "t": 59146.23499999701,
      "d": 60.97549999999319,
      "v": 100
    },
    {
      "midi": 63,
      "hit": false,
      "t": 59146.23499999701,
      "d": 60.97549999999319,
      "v": 100
    },
    {
      "midi": 72,
      "hit": false,
      "t": 59146.23499999701,
      "d": 60.97549999999319,
      "v": 100
    },
    {
      "midi": 65,
      "hit": false,
      "t": 59146.23500000022,
      "d": 365.8530000000028,
      "v": 100
    },
    {
      "midi": 55,
      "hit": false,
      "t": 59146.23500000022,
      "d": 121.95100000000093,
      "v": 100
    },
    {
      "midi": 44,
      "hit": false,
      "t": 59146.23500000025,
      "d": 1.0162583333367365,
      "v": 100
    },
    {
      "midi": 67,
      "hit": false,
      "t": 59268.18599999699,
      "d": 60.975500000000466,
      "v": 100
    },
    {
      "midi": 63,
      "hit": false,
      "t": 59268.18599999699,
      "d": 60.975500000000466,
      "v": 100
    },
    {
      "midi": 72,
      "hit": false,
      "t": 59268.18599999699,
      "d": 60.975500000000466,
      "v": 100
    },
    {
      "midi": 36,
      "hit": false,
      "t": 59268.18599999994,
      "d": 121.95100000000093,
      "v": 100
    },
    {
      "midi": 70,
      "hit": false,
      "t": 59268.18600000011,
      "d": 121.95100000000093,
      "v": 100
    },
    {
      "midi": 60,
      "hit": false,
      "t": 59268.18600000022,
      "d": 121.95100000000093,
      "v": 100
    },
    {
      "midi": 46,
      "hit": false,
      "t": 59268.18600000025,
      "d": 1.0162583333367365,
      "v": 100
    },
    {
      "midi": 67,
      "hit": false,
      "t": 59390.13699999699,
      "d": 60.975500000000466,
      "v": 100
    },
    {
      "midi": 63,
      "hit": false,
      "t": 59390.13699999699,
      "d": 60.975500000000466,
      "v": 100
    },
    {
      "midi": 72,
      "hit": false,
      "t": 59390.13699999699,
      "d": 60.975500000000466,
      "v": 100
    },
    {
      "midi": 36,
      "hit": false,
      "t": 59390.136999999944,
      "d": 243.90200000000186,
      "v": 100
    },
    {
      "midi": 72,
      "hit": false,
      "t": 59390.13700000011,
      "d": 853.6569999999992,
      "v": 100
    },
    {
      "midi": 67,
      "hit": false,
      "t": 59390.13700000022,
      "d": 121.95100000000093,
      "v": 100
    },
    {
      "midi": 44,
      "hit": false,
      "t": 59390.13700000025,
      "d": 1.0162583333367365,
      "v": 100
    },
    {
      "midi": 40,
      "hit": false,
      "t": 59390.13700000025,
      "d": 1.0162583333367365,
      "v": 100
    },
    {
      "midi": 67,
      "hit": false,
      "t": 59512.08799999699,
      "d": 60.975499999985914,
      "v": 100
    },
    {
      "midi": 63,
      "hit": false,
      "t": 59512.08799999699,
      "d": 60.975499999985914,
      "v": 100
    },
    {
      "midi": 72,
      "hit": false,
      "t": 59512.08799999699,
      "d": 60.975499999985914,
      "v": 100
    },
    {
      "midi": 70,
      "hit": false,
      "t": 59512.087999999945,
      "d": 487.80399999999645,
      "v": 100
    },
    {
      "midi": 67,
      "hit": false,
      "t": 59512.087999999945,
      "d": 487.80399999999645,
      "v": 100
    },
    {
      "midi": 63,
      "hit": false,
      "t": 59512.087999999945,
      "d": 487.80399999999645,
      "v": 100
    },
    {
      "midi": 63,
      "hit": false,
      "t": 59512.08800000022,
      "d": 121.95100000000093,
      "v": 100
    },
    {
      "midi": 60,
      "hit": false,
      "t": 59512.08800000022,
      "d": 121.95100000000093,
      "v": 100
    },
    {
      "midi": 42,
      "hit": false,
      "t": 59512.08800000025,
      "d": 1.0162583333367365,
      "v": 100
    },
    {
      "midi": 33,
      "hit": false,
      "t": 59512.08800000025,
      "d": 1.0162583333367365,
      "v": 127
    },
    {
      "midi": 67,
      "hit": false,
      "t": 59634.03899999697,
      "d": 60.97549999999319,
      "v": 100
    },
    {
      "midi": 63,
      "hit": false,
      "t": 59634.03899999697,
      "d": 60.97549999999319,
      "v": 100
    },
    {
      "midi": 72,
      "hit": false,
      "t": 59634.03899999697,
      "d": 60.97549999999319,
      "v": 100
    },
    {
      "midi": 36,
      "hit": false,
      "t": 59634.038999999946,
      "d": 121.95100000000093,
      "v": 100
    },
    {
      "midi": 41,
      "hit": false,
      "t": 59634.03900000019,
      "d": 1.0162583333367365,
      "v": 100
    },
    {
      "midi": 60,
      "hit": false,
      "t": 59634.03900000022,
      "d": 121.95100000000093,
      "v": 100
    },
    {
      "midi": 55,
      "hit": false,
      "t": 59634.03900000022,
      "d": 121.95100000000093,
      "v": 100
    },
    {
      "midi": 33,
      "hit": false,
      "t": 59634.03900000025,
      "d": 1.0162583333367365,
      "v": 127
    },
    {
      "midi": 40,
      "hit": false,
      "t": 59634.03900000025,
      "d": 1.0162583333367365,
      "v": 100
    },
    {
      "midi": 67,
      "hit": false,
      "t": 59755.98999999695,
      "d": 60.975500000000466,
      "v": 100
    },
    {
      "midi": 63,
      "hit": false,
      "t": 59755.98999999695,
      "d": 60.975500000000466,
      "v": 100
    },
    {
      "midi": 72,
      "hit": false,
      "t": 59755.98999999695,
      "d": 60.975500000000466,
      "v": 100
    },
    {
      "midi": 36,
      "hit": false,
      "t": 59755.98999999995,
      "d": 243.90200000000186,
      "v": 100
    },
    {
      "midi": 58,
      "hit": false,
      "t": 59755.99000000022,
      "d": 121.95100000000093,
      "v": 100
    },
    {
      "midi": 72,
      "hit": false,
      "t": 59755.99000000022,
      "d": 121.95100000000093,
      "v": 100
    },
    {
      "midi": 46,
      "hit": false,
      "t": 59755.99000000025,
      "d": 1.0162583333367365,
      "v": 100
    },
    {
      "midi": 67,
      "hit": false,
      "t": 59877.94099999695,
      "d": 60.975500000000466,
      "v": 100
    },
    {
      "midi": 63,
      "hit": false,
      "t": 59877.94099999695,
      "d": 60.975500000000466,
      "v": 100
    },
    {
      "midi": 72,
      "hit": false,
      "t": 59877.94099999695,
      "d": 60.975500000000466,
      "v": 100
    },
    {
      "midi": 60,
      "hit": false,
      "t": 59877.941000000224,
      "d": 121.95100000000093,
      "v": 100
    },
    {
      "midi": 44,
      "hit": false,
      "t": 59877.94100000025,
      "d": 1.0162583333367365,
      "v": 100
    },
    {
      "midi": 33,
      "hit": false,
      "t": 59877.94100000025,
      "d": 1.0162583333367365,
      "v": 127
    },
    {
      "midi": 67,
      "hit": false,
      "t": 59999.89199999695,
      "d": 121.9509999999791,
      "v": 100
    },
    {
      "midi": 63,
      "hit": false,
      "t": 59999.89199999695,
      "d": 121.9509999999791,
      "v": 100
    },
    {
      "midi": 72,
      "hit": false,
      "t": 59999.89199999695,
      "d": 121.9509999999791,
      "v": 100
    },
    {
      "midi": 72,
      "hit": false,
      "t": 59999.89199999994,
      "d": 487.80399999999645,
      "v": 100
    },
    {
      "midi": 67,
      "hit": false,
      "t": 59999.89199999994,
      "d": 487.80399999999645,
      "v": 100
    },
    {
      "midi": 63,
      "hit": false,
      "t": 59999.89199999994,
      "d": 487.80399999999645,
      "v": 100
    },
    {
      "midi": 36,
      "hit": false,
      "t": 59999.89199999995,
      "d": 243.90200000000186,
      "v": 100
    },
    {
      "midi": 41,
      "hit": false,
      "t": 59999.892000000196,
      "d": 1.0162583333367365,
      "v": 100
    },
    {
      "midi": 60,
      "hit": false,
      "t": 59999.892000000225,
      "d": 121.95100000000093,
      "v": 100
    },
    {
      "midi": 72,
      "hit": false,
      "t": 59999.892000000225,
      "d": 121.95100000000093,
      "v": 100
    },
    {
      "midi": 40,
      "hit": false,
      "t": 59999.892000000254,
      "d": 1.0162583333367365,
      "v": 100
    },
    {
      "midi": 46,
      "hit": false,
      "t": 59999.892000000254,
      "d": 1.0162583333367365,
      "v": 100
    },
    {
      "midi": 33,
      "hit": false,
      "t": 59999.892000000254,
      "d": 1.0162583333367365,
      "v": 127
    },
    {
      "midi": 57,
      "hit": false,
      "t": 59999.892000000254,
      "d": 1.0162583333367365,
      "v": 100
    },
    {
      "midi": 67,
      "hit": false,
      "t": 60121.84299999693,
      "d": 121.9509999999791,
      "v": 100
    },
    {
      "midi": 63,
      "hit": false,
      "t": 60121.84299999693,
      "d": 121.9509999999791,
      "v": 100
    },
    {
      "midi": 72,
      "hit": false,
      "t": 60121.84299999693,
      "d": 121.9509999999791,
      "v": 100
    },
    {
      "midi": 60,
      "hit": false,
      "t": 60121.843000000226,
      "d": 121.95100000000093,
      "v": 100
    },
    {
      "midi": 44,
      "hit": false,
      "t": 60121.843000000255,
      "d": 1.0162583333367365,
      "v": 100
    },
    {
      "midi": 67,
      "hit": false,
      "t": 60243.79399999691,
      "d": 60.975500000000466,
      "v": 100
    },
    {
      "midi": 63,
      "hit": false,
      "t": 60243.79399999691,
      "d": 60.975500000000466,
      "v": 100
    },
    {
      "midi": 72,
      "hit": false,
      "t": 60243.79399999691,
      "d": 60.975500000000466,
      "v": 100
    },
    {
      "midi": 36,
      "hit": false,
      "t": 60243.79399999995,
      "d": 243.90200000000186,
      "v": 100
    },
    {
      "midi": 67,
      "hit": false,
      "t": 60243.79400000023,
      "d": 121.95100000000093,
      "v": 100
    },
    {
      "midi": 40,
      "hit": false,
      "t": 60243.794000000256,
      "d": 1.0162583333367365,
      "v": 100
    },
    {
      "midi": 46,
      "hit": false,
      "t": 60243.794000000256,
      "d": 1.0162583333367365,
      "v": 100
    },
    {
      "midi": 33,
      "hit": false,
      "t": 60243.794000000256,
      "d": 1.0162583333367365,
      "v": 127
    },
    {
      "midi": 67,
      "hit": false,
      "t": 60365.74499999691,
      "d": 60.975500000000466,
      "v": 100
    },
    {
      "midi": 63,
      "hit": false,
      "t": 60365.74499999691,
      "d": 60.975500000000466,
      "v": 100
    },
    {
      "midi": 72,
      "hit": false,
      "t": 60365.74499999691,
      "d": 60.975500000000466,
      "v": 100
    },
    {
      "midi": 60,
      "hit": false,
      "t": 60365.74500000023,
      "d": 121.95100000000093,
      "v": 100
    },
    {
      "midi": 40,
      "hit": false,
      "t": 60365.74500000026,
      "d": 1.0162583333367365,
      "v": 100
    },
    {
      "midi": 44,
      "hit": false,
      "t": 60365.74500000026,
      "d": 1.0162583333367365,
      "v": 100
    },
    {
      "midi": 33,
      "hit": false,
      "t": 60365.74500000026,
      "d": 1.0162583333367365,
      "v": 127
    },
    {
      "midi": 67,
      "hit": false,
      "t": 60487.69599999691,
      "d": 487.80399999993824,
      "v": 100
    },
    {
      "midi": 63,
      "hit": false,
      "t": 60487.69599999691,
      "d": 487.80399999993824,
      "v": 100
    },
    {
      "midi": 72,
      "hit": false,
      "t": 60487.69599999691,
      "d": 487.80399999993824,
      "v": 100
    },
    {
      "midi": 44,
      "hit": false,
      "t": 60487.69599999958,
      "d": 487.80399999999645,
      "v": 100
    },
    {
      "midi": 51,
      "hit": false,
      "t": 60487.69599999958,
      "d": 487.80399999999645,
      "v": 100
    },
    {
      "midi": 72,
      "hit": false,
      "t": 60487.69599999994,
      "d": 731.7059999999983,
      "v": 100
    },
    {
      "midi": 63,
      "hit": false,
      "t": 60487.69599999994,
      "d": 731.7059999999983,
      "v": 100
    },
    {
      "midi": 68,
      "hit": false,
      "t": 60487.69599999994,
      "d": 731.7059999999983,
      "v": 100
    },
    {
      "midi": 32,
      "hit": false,
      "t": 60487.69599999995,
      "d": 243.90200000000186,
      "v": 100
    },
    {
      "midi": 80,
      "hit": false,
      "t": 60487.69600000011,
      "d": 487.80399999999645,
      "v": 100
    },
    {
      "midi": 72,
      "hit": false,
      "t": 60487.69600000023,
      "d": 365.8530000000028,
      "v": 100
    },
    {
      "midi": 68,
      "hit": false,
      "t": 60487.69600000023,
      "d": 365.8530000000028,
      "v": 100
    },
    {
      "midi": 63,
      "hit": false,
      "t": 60487.69600000023,
      "d": 365.8530000000028,
      "v": 100
    },
    {
      "midi": 33,
      "hit": false,
      "t": 60487.69600000026,
      "d": 1.0162583333367365,
      "v": 127
    },
    {
      "midi": 42,
      "hit": false,
      "t": 60487.69600000026,
      "d": 1.0162583333367365,
      "v": 100
    },
    {
      "midi": 57,
      "hit": false,
      "t": 60487.69600000026,
      "d": 1.0162583333367365,
      "v": 100
    },
    {
      "midi": 32,
      "hit": false,
      "t": 60731.597999999954,
      "d": 243.90200000000186,
      "v": 100
    },
    {
      "midi": 46,
      "hit": false,
      "t": 60731.59800000026,
      "d": 1.0162583333367365,
      "v": 100
    },
    {
      "midi": 72,
      "hit": false,
      "t": 60853.54900000023,
      "d": 121.95100000000093,
      "v": 100
    },
    {
      "midi": 68,
      "hit": false,
      "t": 60853.54900000023,
      "d": 121.95100000000093,
      "v": 100
    },
    {
      "midi": 63,
      "hit": false,
      "t": 60853.54900000023,
      "d": 121.95100000000093,
      "v": 100
    },
    {
      "midi": 44,
      "hit": false,
      "t": 60853.54900000026,
      "d": 1.0162583333367365,
      "v": 100
    },
    {
      "midi": 67,
      "hit": false,
      "t": 60975.49999999685,
      "d": 60.975499999985914,
      "v": 100
    },
    {
      "midi": 63,
      "hit": false,
      "t": 60975.49999999685,
      "d": 60.975499999985914,
      "v": 100
    },
    {
      "midi": 72,
      "hit": false,
      "t": 60975.49999999685,
      "d": 60.975499999985914,
      "v": 100
    },
    {
      "midi": 44,
      "hit": false,
      "t": 60975.49999999958,
      "d": 121.95100000000093,
      "v": 100
    },
    {
      "midi": 32,
      "hit": false,
      "t": 60975.499999999956,
      "d": 243.90200000000186,
      "v": 100
    },
    {
      "midi": 33,
      "hit": false,
      "t": 60975.50000000026,
      "d": 1.0162583333367365,
      "v": 127
    },
    {
      "midi": 40,
      "hit": false,
      "t": 60975.50000000026,
      "d": 1.0162583333367365,
      "v": 100
    },
    {
      "midi": 46,
      "hit": false,
      "t": 60975.50000000026,
      "d": 1.0162583333367365,
      "v": 100
    },
    {
      "midi": 67,
      "hit": false,
      "t": 61097.45099999683,
      "d": 60.97549999999319,
      "v": 100
    },
    {
      "midi": 63,
      "hit": false,
      "t": 61097.45099999683,
      "d": 60.97549999999319,
      "v": 100
    },
    {
      "midi": 72,
      "hit": false,
      "t": 61097.45099999683,
      "d": 60.97549999999319,
      "v": 100
    },
    {
      "midi": 44,
      "hit": false,
      "t": 61097.45099999958,
      "d": 121.95100000000093,
      "v": 100
    },
    {
      "midi": 44,
      "hit": false,
      "t": 61097.45100000026,
      "d": 1.0162583333367365,
      "v": 100
    },
    {
      "midi": 67,
      "hit": false,
      "t": 61219.40199999681,
      "d": 60.975500000000466,
      "v": 100
    },
    {
      "midi": 63,
      "hit": false,
      "t": 61219.40199999681,
      "d": 60.975500000000466,
      "v": 100
    },
    {
      "midi": 72,
      "hit": false,
      "t": 61219.40199999681,
      "d": 60.975500000000466,
      "v": 100
    },
    {
      "midi": 46,
      "hit": false,
      "t": 61219.40199999958,
      "d": 487.80399999999645,
      "v": 100
    },
    {
      "midi": 53,
      "hit": false,
      "t": 61219.40199999958,
      "d": 487.80399999999645,
      "v": 100
    },
    {
      "midi": 74,
      "hit": false,
      "t": 61219.40199999994,
      "d": 1219.510000000002,
      "v": 100
    },
    {
      "midi": 70,
      "hit": false,
      "t": 61219.40199999994,
      "d": 1219.510000000002,
      "v": 100
    },
    {
      "midi": 65,
      "hit": false,
      "t": 61219.40199999994,
      "d": 1219.510000000002,
      "v": 100
    },
    {
      "midi": 32,
      "hit": false,
      "t": 61219.40199999996,
      "d": 121.95100000000093,
      "v": 100
    },
    {
      "midi": 77,
      "hit": false,
      "t": 61219.40200000011,
      "d": 731.7059999999983,
      "v": 100
    },
    {
      "midi": 46,
      "hit": false,
      "t": 61219.402000000264,
      "d": 1.0162583333367365,
      "v": 100
    },
    {
      "midi": 67,
      "hit": false,
      "t": 61341.35299999681,
      "d": 60.975500000000466,
      "v": 100
    },
    {
      "midi": 63,
      "hit": false,
      "t": 61341.35299999681,
      "d": 60.975500000000466,
      "v": 100
    },
    {
      "midi": 72,
      "hit": false,
      "t": 61341.35299999681,
      "d": 60.975500000000466,
      "v": 100
    },
    {
      "midi": 34,
      "hit": false,
      "t": 61341.35299999996,
      "d": 243.90200000000186,
      "v": 100
    },
    {
      "midi": 44,
      "hit": false,
      "t": 61341.353000000265,
      "d": 1.0162583333367365,
      "v": 100
    },
    {
      "midi": 67,
      "hit": false,
      "t": 61463.30399999681,
      "d": 60.975499999985914,
      "v": 100
    },
    {
      "midi": 63,
      "hit": false,
      "t": 61463.30399999681,
      "d": 60.975499999985914,
      "v": 100
    },
    {
      "midi": 72,
      "hit": false,
      "t": 61463.30399999681,
      "d": 60.975499999985914,
      "v": 100
    },
    {
      "midi": 33,
      "hit": false,
      "t": 61463.304000000266,
      "d": 1.0162583333367365,
      "v": 127
    },
    {
      "midi": 42,
      "hit": false,
      "t": 61463.304000000266,
      "d": 1.0162583333367365,
      "v": 100
    },
    {
      "midi": 67,
      "hit": false,
      "t": 61585.25499999679,
      "d": 60.97549999999319,
      "v": 100
    },
    {
      "midi": 63,
      "hit": false,
      "t": 61585.25499999679,
      "d": 60.97549999999319,
      "v": 100
    },
    {
      "midi": 72,
      "hit": false,
      "t": 61585.25499999679,
      "d": 60.97549999999319,
      "v": 100
    },
    {
      "midi": 34,
      "hit": false,
      "t": 61585.25499999996,
      "d": 121.95100000000093,
      "v": 100
    },
    {
      "midi": 67,
      "hit": false,
      "t": 61707.20599999677,
      "d": 60.975500000000466,
      "v": 100
    },
    {
      "midi": 63,
      "hit": false,
      "t": 61707.20599999677,
      "d": 60.975500000000466,
      "v": 100
    },
    {
      "midi": 72,
      "hit": false,
      "t": 61707.20599999677,
      "d": 60.975500000000466,
      "v": 100
    },
    {
      "midi": 46,
      "hit": false,
      "t": 61707.205999999576,
      "d": 121.95100000000093,
      "v": 100
    },
    {
      "midi": 34,
      "hit": false,
      "t": 61707.20599999996,
      "d": 243.90200000000186,
      "v": 100
    },
    {
      "midi": 72,
      "hit": false,
      "t": 61707.20600000023,
      "d": 121.95100000000093,
      "v": 100
    },
    {
      "midi": 68,
      "hit": false,
      "t": 61707.20600000023,
      "d": 121.95100000000093,
      "v": 100
    },
    {
      "midi": 63,
      "hit": false,
      "t": 61707.20600000023,
      "d": 121.95100000000093,
      "v": 100
    },
    {
      "midi": 46,
      "hit": false,
      "t": 61707.20600000027,
      "d": 1.0162583333367365,
      "v": 100
    },
    {
      "midi": 67,
      "hit": false,
      "t": 61829.15699999677,
      "d": 60.975500000000466,
      "v": 100
    },
    {
      "midi": 63,
      "hit": false,
      "t": 61829.15699999677,
      "d": 60.975500000000466,
      "v": 100
    },
    {
      "midi": 72,
      "hit": false,
      "t": 61829.15699999677,
      "d": 60.975500000000466,
      "v": 100
    },
    {
      "midi": 46,
      "hit": false,
      "t": 61829.15699999958,
      "d": 121.95100000000093,
      "v": 100
    },
    {
      "midi": 44,
      "hit": false,
      "t": 61829.15700000027,
      "d": 1.0162583333367365,
      "v": 100
    },
    {
      "midi": 67,
      "hit": false,
      "t": 61951.10799999677,
      "d": 121.9509999999791,
      "v": 100
    },
    {
      "midi": 63,
      "hit": false,
      "t": 61951.10799999677,
      "d": 121.9509999999791,
      "v": 100
    },
    {
      "midi": 72,
      "hit": false,
      "t": 61951.10799999677,
      "d": 121.9509999999791,
      "v": 100
    },
    {
      "midi": 46,
      "hit": false,
      "t": 61951.10799999958,
      "d": 487.80399999996007,
      "v": 100
    },
    {
      "midi": 53,
      "hit": false,
      "t": 61951.10799999958,
      "d": 487.80399999996007,
      "v": 100
    },
    {
      "midi": 34,
      "hit": false,
      "t": 61951.107999999964,
      "d": 243.90200000000186,
      "v": 100
    },
    {
      "midi": 74,
      "hit": false,
      "t": 61951.10800000011,
      "d": 487.80399999999645,
      "v": 100
    },
    {
      "midi": 72,
      "hit": false,
      "t": 61951.10800000023,
      "d": 487.80399999999645,
      "v": 100
    },
    {
      "midi": 68,
      "hit": false,
      "t": 61951.10800000023,
      "d": 487.80399999999645,
      "v": 100
    },
    {
      "midi": 63,
      "hit": false,
      "t": 61951.10800000023,
      "d": 487.80399999999645,
      "v": 100
    },
    {
      "midi": 33,
      "hit": false,
      "t": 61951.10800000027,
      "d": 1.0162583333367365,
      "v": 127
    },
    {
      "midi": 40,
      "hit": false,
      "t": 61951.10800000027,
      "d": 1.0162583333367365,
      "v": 100
    },
    {
      "midi": 46,
      "hit": false,
      "t": 61951.10800000027,
      "d": 1.0162583333367365,
      "v": 100
    },
    {
      "midi": 67,
      "hit": false,
      "t": 62073.05899999675,
      "d": 121.9509999999791,
      "v": 100
    },
    {
      "midi": 63,
      "hit": false,
      "t": 62073.05899999675,
      "d": 121.9509999999791,
      "v": 100
    },
    {
      "midi": 72,
      "hit": false,
      "t": 62073.05899999675,
      "d": 121.9509999999791,
      "v": 100
    },
    {
      "midi": 44,
      "hit": false,
      "t": 62073.05900000027,
      "d": 1.0162583333367365,
      "v": 100
    },
    {
      "midi": 67,
      "hit": false,
      "t": 62195.00999999673,
      "d": 60.975500000000466,
      "v": 100
    },
    {
      "midi": 63,
      "hit": false,
      "t": 62195.00999999673,
      "d": 60.975500000000466,
      "v": 100
    },
    {
      "midi": 72,
      "hit": false,
      "t": 62195.00999999673,
      "d": 60.975500000000466,
      "v": 100
    },
    {
      "midi": 34,
      "hit": false,
      "t": 62195.009999999966,
      "d": 243.90200000000186,
      "v": 100
    },
    {
      "midi": 46,
      "hit": false,
      "t": 62195.01000000027,
      "d": 1.0162583333367365,
      "v": 100
    },
    {
      "midi": 67,
      "hit": false,
      "t": 62316.96099999673,
      "d": 60.975500000000466,
      "v": 100
    },
    {
      "midi": 63,
      "hit": false,
      "t": 62316.96099999673,
      "d": 60.975500000000466,
      "v": 100
    },
    {
      "midi": 72,
      "hit": false,
      "t": 62316.96099999673,
      "d": 60.975500000000466,
      "v": 100
    },
    {
      "midi": 44,
      "hit": false,
      "t": 62316.96100000027,
      "d": 1.0162583333367365,
      "v": 100
    },
    {
      "midi": 67,
      "hit": false,
      "t": 62438.91199999673,
      "d": 487.80399999993824,
      "v": 100
    },
    {
      "midi": 63,
      "hit": false,
      "t": 62438.91199999673,
      "d": 487.80399999993824,
      "v": 100
    },
    {
      "midi": 72,
      "hit": false,
      "t": 62438.91199999673,
      "d": 487.80399999993824,
      "v": 100
    },
    {
      "midi": 43,
      "hit": false,
      "t": 62438.91199999954,
      "d": 487.80399999999645,
      "v": 100
    },
    {
      "midi": 50,
      "hit": false,
      "t": 62438.91199999954,
      "d": 487.80399999999645,
      "v": 100
    },
    {
      "midi": 74,
      "hit": false,
      "t": 62438.91199999994,
      "d": 731.7059999999983,
      "v": 100
    },
    {
      "midi": 70,
      "hit": false,
      "t": 62438.91199999994,
      "d": 731.7059999999983,
      "v": 100
    },
    {
      "midi": 65,
      "hit": false,
      "t": 62438.91199999994,
      "d": 731.7059999999983,
      "v": 100
    },
    {
      "midi": 31,
      "hit": false,
      "t": 62438.91199999997,
      "d": 243.90200000000186,
      "v": 100
    },
    {
      "midi": 70,
      "hit": false,
      "t": 62438.912000000106,
      "d": 487.80399999999645,
      "v": 100
    },
    {
      "midi": 72,
      "hit": false,
      "t": 62438.91200000023,
      "d": 365.8530000000028,
      "v": 100
    },
    {
      "midi": 67,
      "hit": false,
      "t": 62438.91200000023,
      "d": 365.8530000000028,
      "v": 100
    },
    {
      "midi": 63,
      "hit": false,
      "t": 62438.91200000023,
      "d": 365.8530000000028,
      "v": 100
    },
    {
      "midi": 33,
      "hit": false,
      "t": 62438.91200000027,
      "d": 1.0162583333367365,
      "v": 127
    },
    {
      "midi": 42,
      "hit": false,
      "t": 62438.91200000027,
      "d": 1.0162583333367365,
      "v": 100
    },
    {
      "midi": 31,
      "hit": false,
      "t": 62682.81399999997,
      "d": 243.90200000000186,
      "v": 100
    },
    {
      "midi": 46,
      "hit": false,
      "t": 62682.814000000275,
      "d": 1.0162583333367365,
      "v": 100
    },
    {
      "midi": 72,
      "hit": false,
      "t": 62804.76500000023,
      "d": 121.95100000000093,
      "v": 100
    },
    {
      "midi": 67,
      "hit": false,
      "t": 62804.76500000023,
      "d": 121.95100000000093,
      "v": 100
    },
    {
      "midi": 63,
      "hit": false,
      "t": 62804.76500000023,
      "d": 121.95100000000093,
      "v": 100
    },
    {
      "midi": 44,
      "hit": false,
      "t": 62804.765000000276,
      "d": 1.0162583333367365,
      "v": 100
    },
    {
      "midi": 67,
      "hit": false,
      "t": 62926.71599999667,
      "d": 60.975499999985914,
      "v": 100
    },
    {
      "midi": 63,
      "hit": false,
      "t": 62926.71599999667,
      "d": 60.975499999985914,
      "v": 100
    },
    {
      "midi": 72,
      "hit": false,
      "t": 62926.71599999667,
      "d": 60.975499999985914,
      "v": 100
    },
    {
      "midi": 43,
      "hit": false,
      "t": 62926.715999999535,
      "d": 121.95100000000093,
      "v": 100
    },
    {
      "midi": 31,
      "hit": false,
      "t": 62926.71599999997,
      "d": 243.90200000000186,
      "v": 100
    },
    {
      "midi": 77,
      "hit": false,
      "t": 62926.7160000001,
      "d": 243.90200000000186,
      "v": 100
    },
    {
      "midi": 33,
      "hit": false,
      "t": 62926.71600000028,
      "d": 1.0162583333367365,
      "v": 127
    },
    {
      "midi": 40,
      "hit": false,
      "t": 62926.71600000028,
      "d": 1.0162583333367365,
      "v": 100
    },
    {
      "midi": 46,
      "hit": false,
      "t": 62926.71600000028,
      "d": 1.0162583333367365,
      "v": 100
    },
    {
      "midi": 67,
      "hit": false,
      "t": 63048.66699999665,
      "d": 60.97549999999319,
      "v": 100
    },
    {
      "midi": 63,
      "hit": false,
      "t": 63048.66699999665,
      "d": 60.97549999999319,
      "v": 100
    },
    {
      "midi": 72,
      "hit": false,
      "t": 63048.66699999665,
      "d": 60.97549999999319,
      "v": 100
    },
    {
      "midi": 43,
      "hit": false,
      "t": 63048.666999999536,
      "d": 121.95100000000093,
      "v": 100
    },
    {
      "midi": 44,
      "hit": false,
      "t": 63048.66700000028,
      "d": 1.0162583333367365,
      "v": 100
    },
    {
      "midi": 67,
      "hit": false,
      "t": 63170.617999996626,
      "d": 60.975500000000466,
      "v": 100
    },
    {
      "midi": 63,
      "hit": false,
      "t": 63170.617999996626,
      "d": 60.975500000000466,
      "v": 100
    },
    {
      "midi": 72,
      "hit": false,
      "t": 63170.617999996626,
      "d": 60.975500000000466,
      "v": 100
    },
    {
      "midi": 48,
      "hit": false,
      "t": 63170.61799999954,
      "d": 487.80399999999645,
      "v": 100
    },
    {
      "midi": 55,
      "hit": false,
      "t": 63170.61799999954,
      "d": 487.80399999999645,
      "v": 100
    },
    {
      "midi": 72,
      "hit": false,
      "t": 63170.61799999994,
      "d": 731.7059999999983,
      "v": 100
    },
    {
      "midi": 63,
      "hit": false,
      "t": 63170.61799999994,
      "d": 731.7059999999983,
      "v": 100
    },
    {
      "midi": 67,
      "hit": false,
      "t": 63170.61799999994,
      "d": 731.7059999999983,
      "v": 100
    },
    {
      "midi": 31,
      "hit": false,
      "t": 63170.61799999997,
      "d": 121.95100000000093,
      "v": 100
    },
    {
      "midi": 75,
      "hit": false,
      "t": 63170.618000000104,
      "d": 487.80399999999645,
      "v": 100
    },
    {
      "midi": 46,
      "hit": false,
      "t": 63170.61800000028,
      "d": 1.0162583333367365,
      "v": 100
    },
    {
      "midi": 67,
      "hit": false,
      "t": 63292.56899999663,
      "d": 60.975500000000466,
      "v": 100
    },
    {
      "midi": 63,
      "hit": false,
      "t": 63292.56899999663,
      "d": 60.975500000000466,
      "v": 100
    },
    {
      "midi": 72,
      "hit": false,
      "t": 63292.56899999663,
      "d": 60.975500000000466,
      "v": 100
    },
    {
      "midi": 36,
      "hit": false,
      "t": 63292.568999999974,
      "d": 243.90200000000186,
      "v": 100
    },
    {
      "midi": 41,
      "hit": false,
      "t": 63292.5690000002,
      "d": 1.0162583333367365,
      "v": 100
    },
    {
      "midi": 44,
      "hit": false,
      "t": 63292.56900000028,
      "d": 1.0162583333367365,
      "v": 100
    },
    {
      "midi": 67,
      "hit": false,
      "t": 63414.51999999663,
      "d": 60.975499999985914,
      "v": 100
    },
    {
      "midi": 63,
      "hit": false,
      "t": 63414.51999999663,
      "d": 60.975499999985914,
      "v": 100
    },
    {
      "midi": 72,
      "hit": false,
      "t": 63414.51999999663,
      "d": 60.975499999985914,
      "v": 100
    },
    {
      "midi": 33,
      "hit": false,
      "t": 63414.52000000028,
      "d": 1.0162583333367365,
      "v": 127
    },
    {
      "midi": 42,
      "hit": false,
      "t": 63414.52000000028,
      "d": 1.0162583333367365,
      "v": 100
    },
    {
      "midi": 67,
      "hit": false,
      "t": 63536.47099999661,
      "d": 60.97549999999319,
      "v": 100
    },
    {
      "midi": 63,
      "hit": false,
      "t": 63536.47099999661,
      "d": 60.97549999999319,
      "v": 100
    },
    {
      "midi": 72,
      "hit": false,
      "t": 63536.47099999661,
      "d": 60.97549999999319,
      "v": 100
    },
    {
      "midi": 36,
      "hit": false,
      "t": 63536.470999999976,
      "d": 121.95100000000093,
      "v": 100
    },
    {
      "midi": 41,
      "hit": false,
      "t": 63536.4710000002,
      "d": 1.0162583333367365,
      "v": 100
    },
    {
      "midi": 67,
      "hit": false,
      "t": 63658.421999996586,
      "d": 60.975500000000466,
      "v": 100
    },
    {
      "midi": 63,
      "hit": false,
      "t": 63658.421999996586,
      "d": 60.975500000000466,
      "v": 100
    },
    {
      "midi": 72,
      "hit": false,
      "t": 63658.421999996586,
      "d": 60.975500000000466,
      "v": 100
    },
    {
      "midi": 48,
      "hit": false,
      "t": 63658.42199999953,
      "d": 121.95100000000093,
      "v": 100
    },
    {
      "midi": 36,
      "hit": false,
      "t": 63658.42199999998,
      "d": 243.90200000000186,
      "v": 100
    },
    {
      "midi": 67,
      "hit": false,
      "t": 63658.42200000023,
      "d": 121.95100000000093,
      "v": 100
    },
    {
      "midi": 72,
      "hit": false,
      "t": 63658.42200000023,
      "d": 121.95100000000093,
      "v": 100
    },
    {
      "midi": 63,
      "hit": false,
      "t": 63658.42200000023,
      "d": 121.95100000000093,
      "v": 100
    },
    {
      "midi": 46,
      "hit": false,
      "t": 63658.42200000028,
      "d": 1.0162583333367365,
      "v": 100
    },
    {
      "midi": 67,
      "hit": false,
      "t": 63780.37299999659,
      "d": 60.975500000000466,
      "v": 100
    },
    {
      "midi": 63,
      "hit": false,
      "t": 63780.37299999659,
      "d": 60.975500000000466,
      "v": 100
    },
    {
      "midi": 72,
      "hit": false,
      "t": 63780.37299999659,
      "d": 60.975500000000466,
      "v": 100
    },
    {
      "midi": 48,
      "hit": false,
      "t": 63780.372999999534,
      "d": 121.95100000000093,
      "v": 100
    },
    {
      "midi": 44,
      "hit": false,
      "t": 63780.37300000028,
      "d": 1.0162583333367365,
      "v": 100
    },
    {
      "midi": 67,
      "hit": false,
      "t": 63902.32399999659,
      "d": 121.9509999999791,
      "v": 100
    },
    {
      "midi": 63,
      "hit": false,
      "t": 63902.32399999659,
      "d": 121.9509999999791,
      "v": 100
    },
    {
      "midi": 72,
      "hit": false,
      "t": 63902.32399999659,
      "d": 121.9509999999791,
      "v": 100
    },
    {
      "midi": 53,
      "hit": false,
      "t": 63902.323999999535,
      "d": 487.80399999999645,
      "v": 100
    },
    {
      "midi": 46,
      "hit": false,
      "t": 63902.323999999535,
      "d": 487.80399999999645,
      "v": 100
    },
    {
      "midi": 75,
      "hit": false,
      "t": 63902.323999999935,
      "d": 487.80399999999645,
      "v": 100
    },
    {
      "midi": 72,
      "hit": false,
      "t": 63902.323999999935,
      "d": 487.80399999999645,
      "v": 100
    },
    {
      "midi": 65,
      "hit": false,
      "t": 63902.323999999935,
      "d": 487.80399999999645,
      "v": 100
    },
    {
      "midi": 67,
      "hit": false,
      "t": 63902.323999999935,
      "d": 487.80399999999645,
      "v": 100
    },
    {
      "midi": 34,
      "hit": false,
      "t": 63902.32399999998,
      "d": 243.90200000000186,
      "v": 100
    },
    {
      "midi": 77,
      "hit": false,
      "t": 63902.3240000001,
      "d": 243.90200000000186,
      "v": 100
    },
    {
      "midi": 67,
      "hit": false,
      "t": 63902.32400000023,
      "d": 487.80399999999645,
      "v": 100
    },
    {
      "midi": 72,
      "hit": false,
      "t": 63902.32400000023,
      "d": 487.80399999999645,
      "v": 100
    },
    {
      "midi": 63,
      "hit": false,
      "t": 63902.32400000023,
      "d": 487.80399999999645,
      "v": 100
    },
    {
      "midi": 33,
      "hit": false,
      "t": 63902.324000000284,
      "d": 1.0162583333367365,
      "v": 127
    },
    {
      "midi": 40,
      "hit": false,
      "t": 63902.324000000284,
      "d": 1.0162583333367365,
      "v": 100
    },
    {
      "midi": 46,
      "hit": false,
      "t": 63902.324000000284,
      "d": 1.0162583333367365,
      "v": 100
    },
    {
      "midi": 57,
      "hit": false,
      "t": 63902.324000000284,
      "d": 1.0162583333367365,
      "v": 100
    },
    {
      "midi": 67,
      "hit": false,
      "t": 64024.27499999657,
      "d": 121.9509999999791,
      "v": 100
    },
    {
      "midi": 63,
      "hit": false,
      "t": 64024.27499999657,
      "d": 121.9509999999791,
      "v": 100
    },
    {
      "midi": 72,
      "hit": false,
      "t": 64024.27499999657,
      "d": 121.9509999999791,
      "v": 100
    },
    {
      "midi": 44,
      "hit": false,
      "t": 64024.275000000285,
      "d": 1.0162583333367365,
      "v": 100
    },
    {
      "midi": 67,
      "hit": false,
      "t": 64146.225999996546,
      "d": 60.975500000000466,
      "v": 100
    },
    {
      "midi": 63,
      "hit": false,
      "t": 64146.225999996546,
      "d": 60.975500000000466,
      "v": 100
    },
    {
      "midi": 72,
      "hit": false,
      "t": 64146.225999996546,
      "d": 60.975500000000466,
      "v": 100
    },
    {
      "midi": 34,
      "hit": false,
      "t": 64146.22599999998,
      "d": 243.90200000000186,
      "v": 100
    },
    {
      "midi": 79,
      "hit": false,
      "t": 64146.226000000104,
      "d": 243.90200000000186,
      "v": 100
    },
    {
      "midi": 40,
      "hit": false,
      "t": 64146.226000000286,
      "d": 1.0162583333367365,
      "v": 40
    },
    {
      "midi": 46,
      "hit": false,
      "t": 64146.226000000286,
      "d": 1.0162583333367365,
      "v": 100
    },
    {
      "midi": 67,
      "hit": false,
      "t": 64268.17699999655,
      "d": 60.975500000000466,
      "v": 100
    },
    {
      "midi": 63,
      "hit": false,
      "t": 64268.17699999655,
      "d": 60.975500000000466,
      "v": 100
    },
    {
      "midi": 72,
      "hit": false,
      "t": 64268.17699999655,
      "d": 60.975500000000466,
      "v": 100
    },
    {
      "midi": 40,
      "hit": false,
      "t": 64268.17700000029,
      "d": 1.0162583333367365,
      "v": 100
    },
    {
      "midi": 44,
      "hit": false,
      "t": 64268.17700000029,
      "d": 1.0162583333367365,
      "v": 100
    },
    {
      "midi": 67,
      "hit": false,
      "t": 64390.12799999655,
      "d": 487.80399999993824,
      "v": 100
    },
    {
      "midi": 63,
      "hit": false,
      "t": 64390.12799999655,
      "d": 487.80399999993824,
      "v": 100
    },
    {
      "midi": 72,
      "hit": false,
      "t": 64390.12799999655,
      "d": 487.80399999993824,
      "v": 100
    },
    {
      "midi": 44,
      "hit": false,
      "t": 64390.12799999953,
      "d": 487.80399999999645,
      "v": 100
    },
    {
      "midi": 51,
      "hit": false,
      "t": 64390.12799999953,
      "d": 487.80399999999645,
      "v": 100
    },
    {
      "midi": 72,
      "hit": false,
      "t": 64390.12799999993,
      "d": 731.7059999999983,
      "v": 100
    },
    {
      "midi": 63,
      "hit": false,
      "t": 64390.12799999993,
      "d": 731.7059999999983,
      "v": 100
    },
    {
      "midi": 68,
      "hit": false,
      "t": 64390.12799999993,
      "d": 731.7059999999983,
      "v": 100
    },
    {
      "midi": 32,
      "hit": false,
      "t": 64390.12799999998,
      "d": 243.90200000000186,
      "v": 100
    },
    {
      "midi": 80,
      "hit": false,
      "t": 64390.128000000106,
      "d": 487.80399999999645,
      "v": 100
    },
    {
      "midi": 72,
      "hit": false,
      "t": 64390.12800000023,
      "d": 365.8530000000028,
      "v": 100
    },
    {
      "midi": 68,
      "hit": false,
      "t": 64390.12800000023,
      "d": 365.8530000000028,
      "v": 100
    },
    {
      "midi": 63,
      "hit": false,
      "t": 64390.12800000023,
      "d": 365.8530000000028,
      "v": 100
    },
    {
      "midi": 33,
      "hit": false,
      "t": 64390.12800000029,
      "d": 1.0162583333367365,
      "v": 127
    },
    {
      "midi": 42,
      "hit": false,
      "t": 64390.12800000029,
      "d": 1.0162583333367365,
      "v": 100
    },
    {
      "midi": 32,
      "hit": false,
      "t": 64634.029999999984,
      "d": 243.90200000000186,
      "v": 100
    },
    {
      "midi": 46,
      "hit": false,
      "t": 64634.03000000029,
      "d": 1.0162583333367365,
      "v": 100
    },
    {
      "midi": 72,
      "hit": false,
      "t": 64755.98100000023,
      "d": 121.95100000000093,
      "v": 100
    },
    {
      "midi": 68,
      "hit": false,
      "t": 64755.98100000023,
      "d": 121.95100000000093,
      "v": 100
    },
    {
      "midi": 63,
      "hit": false,
      "t": 64755.98100000023,
      "d": 121.95100000000093,
      "v": 100
    },
    {
      "midi": 44,
      "hit": false,
      "t": 64755.98100000029,
      "d": 1.0162583333367365,
      "v": 100
    },
    {
      "midi": 67,
      "hit": false,
      "t": 64877.93199999649,
      "d": 60.975499999985914,
      "v": 100
    },
    {
      "midi": 63,
      "hit": false,
      "t": 64877.93199999649,
      "d": 60.975499999985914,
      "v": 100
    },
    {
      "midi": 72,
      "hit": false,
      "t": 64877.93199999649,
      "d": 60.975499999985914,
      "v": 100
    },
    {
      "midi": 44,
      "hit": false,
      "t": 64877.93199999953,
      "d": 121.95100000000093,
      "v": 100
    },
    {
      "midi": 32,
      "hit": false,
      "t": 64877.931999999986,
      "d": 243.90200000000186,
      "v": 100
    },
    {
      "midi": 33,
      "hit": false,
      "t": 64877.93200000029,
      "d": 1.0162583333367365,
      "v": 127
    },
    {
      "midi": 40,
      "hit": false,
      "t": 64877.93200000029,
      "d": 1.0162583333367365,
      "v": 100
    },
    {
      "midi": 46,
      "hit": false,
      "t": 64877.93200000029,
      "d": 1.0162583333367365,
      "v": 100
    },
    {
      "midi": 67,
      "hit": false,
      "t": 64999.882999996466,
      "d": 60.97549999999319,
      "v": 100
    },
    {
      "midi": 63,
      "hit": false,
      "t": 64999.882999996466,
      "d": 60.97549999999319,
      "v": 100
    },
    {
      "midi": 72,
      "hit": false,
      "t": 64999.882999996466,
      "d": 60.97549999999319,
      "v": 100
    },
    {
      "midi": 44,
      "hit": false,
      "t": 64999.88299999953,
      "d": 121.95100000000093,
      "v": 100
    },
    {
      "midi": 44,
      "hit": false,
      "t": 64999.88300000029,
      "d": 1.0162583333367365,
      "v": 100
    },
    {
      "midi": 67,
      "hit": false,
      "t": 65121.833999996445,
      "d": 60.975500000000466,
      "v": 100
    },
    {
      "midi": 63,
      "hit": false,
      "t": 65121.833999996445,
      "d": 60.975500000000466,
      "v": 100
    },
    {
      "midi": 72,
      "hit": false,
      "t": 65121.833999996445,
      "d": 60.975500000000466,
      "v": 100
    },
    {
      "midi": 46,
      "hit": false,
      "t": 65121.83399999953,
      "d": 487.80399999999645,
      "v": 100
    },
    {
      "midi": 53,
      "hit": false,
      "t": 65121.83399999953,
      "d": 487.80399999999645,
      "v": 100
    },
    {
      "midi": 74,
      "hit": false,
      "t": 65121.83399999993,
      "d": 1219.5099999999948,
      "v": 100
    },
    {
      "midi": 70,
      "hit": false,
      "t": 65121.83399999993,
      "d": 1219.5099999999948,
      "v": 100
    },
    {
      "midi": 65,
      "hit": false,
      "t": 65121.83399999993,
      "d": 1219.5099999999948,
      "v": 100
    },
    {
      "midi": 32,
      "hit": false,
      "t": 65121.83399999999,
      "d": 121.95100000000093,
      "v": 100
    },
    {
      "midi": 77,
      "hit": false,
      "t": 65121.834000000104,
      "d": 731.7060000000056,
      "v": 100
    },
    {
      "midi": 46,
      "hit": false,
      "t": 65121.83400000029,
      "d": 1.0162583333367365,
      "v": 100
    },
    {
      "midi": 67,
      "hit": false,
      "t": 65243.784999996446,
      "d": 60.975500000000466,
      "v": 100
    },
    {
      "midi": 63,
      "hit": false,
      "t": 65243.784999996446,
      "d": 60.975500000000466,
      "v": 100
    },
    {
      "midi": 72,
      "hit": false,
      "t": 65243.784999996446,
      "d": 60.975500000000466,
      "v": 100
    },
    {
      "midi": 34,
      "hit": false,
      "t": 65243.78499999999,
      "d": 243.90200000000186,
      "v": 100
    },
    {
      "midi": 44,
      "hit": false,
      "t": 65243.785000000295,
      "d": 1.0162583333367365,
      "v": 100
    },
    {
      "midi": 67,
      "hit": false,
      "t": 65365.73599999645,
      "d": 60.975499999985914,
      "v": 100
    },
    {
      "midi": 63,
      "hit": false,
      "t": 65365.73599999645,
      "d": 60.975499999985914,
      "v": 100
    },
    {
      "midi": 72,
      "hit": false,
      "t": 65365.73599999645,
      "d": 60.975499999985914,
      "v": 100
    },
    {
      "midi": 33,
      "hit": false,
      "t": 65365.736000000295,
      "d": 1.0162583333367365,
      "v": 127
    },
    {
      "midi": 42,
      "hit": false,
      "t": 65365.736000000295,
      "d": 1.0162583333367365,
      "v": 100
    },
    {
      "midi": 67,
      "hit": false,
      "t": 65487.686999996426,
      "d": 60.97550000001502,
      "v": 100
    },
    {
      "midi": 63,
      "hit": false,
      "t": 65487.686999996426,
      "d": 60.97550000001502,
      "v": 100
    },
    {
      "midi": 72,
      "hit": false,
      "t": 65487.686999996426,
      "d": 60.97550000001502,
      "v": 100
    },
    {
      "midi": 34,
      "hit": false,
      "t": 65487.68699999999,
      "d": 121.95100000000093,
      "v": 100
    },
    {
      "midi": 67,
      "hit": false,
      "t": 65609.63799999657,
      "d": 60.975500000000466,
      "v": 100
    },
    {
      "midi": 63,
      "hit": false,
      "t": 65609.63799999657,
      "d": 60.975500000000466,
      "v": 100
    },
    {
      "midi": 72,
      "hit": false,
      "t": 65609.63799999657,
      "d": 60.975500000000466,
      "v": 100
    },
    {
      "midi": 46,
      "hit": false,
      "t": 65609.63799999953,
      "d": 121.95100000000093,
      "v": 100
    },
    {
      "midi": 34,
      "hit": false,
      "t": 65609.63799999999,
      "d": 243.90200000000186,
      "v": 100
    },
    {
      "midi": 72,
      "hit": false,
      "t": 65609.63800000024,
      "d": 121.95100000000093,
      "v": 100
    },
    {
      "midi": 68,
      "hit": false,
      "t": 65609.63800000024,
      "d": 121.95100000000093,
      "v": 100
    },
    {
      "midi": 63,
      "hit": false,
      "t": 65609.63800000024,
      "d": 121.95100000000093,
      "v": 100
    },
    {
      "midi": 46,
      "hit": false,
      "t": 65609.6380000003,
      "d": 1.0162583333294606,
      "v": 100
    },
    {
      "midi": 67,
      "hit": false,
      "t": 65731.58899999657,
      "d": 60.975500000000466,
      "v": 100
    },
    {
      "midi": 63,
      "hit": false,
      "t": 65731.58899999657,
      "d": 60.975500000000466,
      "v": 100
    },
    {
      "midi": 72,
      "hit": false,
      "t": 65731.58899999657,
      "d": 60.975500000000466,
      "v": 100
    },
    {
      "midi": 46,
      "hit": false,
      "t": 65731.58899999953,
      "d": 121.95100000000093,
      "v": 100
    },
    {
      "midi": 44,
      "hit": false,
      "t": 65731.5890000003,
      "d": 1.0162583333294606,
      "v": 100
    },
    {
      "midi": 67,
      "hit": false,
      "t": 65853.53999999657,
      "d": 121.951000000161,
      "v": 100
    },
    {
      "midi": 63,
      "hit": false,
      "t": 65853.53999999657,
      "d": 121.951000000161,
      "v": 100
    },
    {
      "midi": 72,
      "hit": false,
      "t": 65853.53999999657,
      "d": 121.951000000161,
      "v": 100
    },
    {
      "midi": 53,
      "hit": false,
      "t": 65853.53999999953,
      "d": 487.8040000001638,
      "v": 100
    },
    {
      "midi": 46,
      "hit": false,
      "t": 65853.53999999953,
      "d": 487.8040000001638,
      "v": 100
    },
    {
      "midi": 34,
      "hit": false,
      "t": 65853.54,
      "d": 243.90200000000186,
      "v": 100
    },
    {
      "midi": 74,
      "hit": false,
      "t": 65853.54000000011,
      "d": 487.8040000000037,
      "v": 100
    },
    {
      "midi": 72,
      "hit": false,
      "t": 65853.54000000024,
      "d": 487.8040000000037,
      "v": 100
    },
    {
      "midi": 68,
      "hit": false,
      "t": 65853.54000000024,
      "d": 487.8040000000037,
      "v": 100
    },
    {
      "midi": 63,
      "hit": false,
      "t": 65853.54000000024,
      "d": 487.8040000000037,
      "v": 100
    },
    {
      "midi": 33,
      "hit": false,
      "t": 65853.5400000003,
      "d": 1.0162583333294606,
      "v": 127
    },
    {
      "midi": 40,
      "hit": false,
      "t": 65853.5400000003,
      "d": 1.0162583333294606,
      "v": 100
    },
    {
      "midi": 46,
      "hit": false,
      "t": 65853.5400000003,
      "d": 1.0162583333294606,
      "v": 100
    },
    {
      "midi": 67,
      "hit": false,
      "t": 65975.49099999673,
      "d": 121.9510000001319,
      "v": 100
    },
    {
      "midi": 63,
      "hit": false,
      "t": 65975.49099999673,
      "d": 121.9510000001319,
      "v": 100
    },
    {
      "midi": 72,
      "hit": false,
      "t": 65975.49099999673,
      "d": 121.9510000001319,
      "v": 100
    },
    {
      "midi": 44,
      "hit": false,
      "t": 65975.4910000003,
      "d": 1.0162583333294606,
      "v": 100
    },
    {
      "midi": 67,
      "hit": false,
      "t": 66097.44199999687,
      "d": 60.975500000000466,
      "v": 100
    },
    {
      "midi": 63,
      "hit": false,
      "t": 66097.44199999687,
      "d": 60.975500000000466,
      "v": 100
    },
    {
      "midi": 72,
      "hit": false,
      "t": 66097.44199999687,
      "d": 60.975500000000466,
      "v": 100
    },
    {
      "midi": 34,
      "hit": false,
      "t": 66097.442,
      "d": 243.90200000000186,
      "v": 100
    },
    {
      "midi": 46,
      "hit": false,
      "t": 66097.4420000003,
      "d": 1.0162583333294606,
      "v": 100
    },
    {
      "midi": 67,
      "hit": false,
      "t": 66219.39299999687,
      "d": 60.975500000000466,
      "v": 100
    },
    {
      "midi": 63,
      "hit": false,
      "t": 66219.39299999687,
      "d": 60.975500000000466,
      "v": 100
    },
    {
      "midi": 72,
      "hit": false,
      "t": 66219.39299999687,
      "d": 60.975500000000466,
      "v": 100
    },
    {
      "midi": 44,
      "hit": false,
      "t": 66219.3930000003,
      "d": 1.0162583333294606,
      "v": 100
    },
    {
      "midi": 67,
      "hit": false,
      "t": 66341.34399999687,
      "d": 487.8040000002802,
      "v": 100
    },
    {
      "midi": 63,
      "hit": false,
      "t": 66341.34399999687,
      "d": 487.8040000002802,
      "v": 100
    },
    {
      "midi": 72,
      "hit": false,
      "t": 66341.34399999687,
      "d": 487.8040000002802,
      "v": 100
    },
    {
      "midi": 43,
      "hit": false,
      "t": 66341.34399999969,
      "d": 487.8040000000037,
      "v": 100
    },
    {
      "midi": 50,
      "hit": false,
      "t": 66341.34399999969,
      "d": 487.8040000000037,
      "v": 100
    },
    {
      "midi": 74,
      "hit": false,
      "t": 66341.34399999992,
      "d": 731.7060000000056,
      "v": 100
    },
    {
      "midi": 70,
      "hit": false,
      "t": 66341.34399999992,
      "d": 731.7060000000056,
      "v": 100
    },
    {
      "midi": 65,
      "hit": false,
      "t": 66341.34399999992,
      "d": 731.7060000000056,
      "v": 100
    },
    {
      "midi": 31,
      "hit": false,
      "t": 66341.344,
      "d": 243.90200000000186,
      "v": 100
    },
    {
      "midi": 70,
      "hit": false,
      "t": 66341.34400000011,
      "d": 487.8040000000037,
      "v": 100
    },
    {
      "midi": 72,
      "hit": false,
      "t": 66341.34400000024,
      "d": 365.8530000000028,
      "v": 100
    },
    {
      "midi": 67,
      "hit": false,
      "t": 66341.34400000024,
      "d": 365.8530000000028,
      "v": 100
    },
    {
      "midi": 63,
      "hit": false,
      "t": 66341.34400000024,
      "d": 365.8530000000028,
      "v": 100
    },
    {
      "midi": 33,
      "hit": false,
      "t": 66341.3440000003,
      "d": 1.0162583333294606,
      "v": 127
    },
    {
      "midi": 42,
      "hit": false,
      "t": 66341.3440000003,
      "d": 1.0162583333294606,
      "v": 100
    },
    {
      "midi": 41,
      "hit": false,
      "t": 66463.2950000002,
      "d": 1.0162583333294606,
      "v": 100
    },
    {
      "midi": 31,
      "hit": false,
      "t": 66585.246,
      "d": 243.90200000000186,
      "v": 100
    },
    {
      "midi": 46,
      "hit": false,
      "t": 66585.2460000003,
      "d": 1.0162583333294606,
      "v": 100
    },
    {
      "midi": 72,
      "hit": false,
      "t": 66707.19700000025,
      "d": 121.95100000000093,
      "v": 100
    },
    {
      "midi": 67,
      "hit": false,
      "t": 66707.19700000025,
      "d": 121.95100000000093,
      "v": 100
    },
    {
      "midi": 63,
      "hit": false,
      "t": 66707.19700000025,
      "d": 121.95100000000093,
      "v": 100
    },
    {
      "midi": 44,
      "hit": false,
      "t": 66707.1970000003,
      "d": 1.0162583333294606,
      "v": 100
    },
    {
      "midi": 67,
      "hit": false,
      "t": 66829.14799999715,
      "d": 60.975500000145985,
      "v": 100
    },
    {
      "midi": 63,
      "hit": false,
      "t": 66829.14799999715,
      "d": 60.975500000145985,
      "v": 100
    },
    {
      "midi": 72,
      "hit": false,
      "t": 66829.14799999715,
      "d": 60.975500000145985,
      "v": 100
    },
    {
      "midi": 43,
      "hit": false,
      "t": 66829.1479999997,
      "d": 121.95100000000093,
      "v": 100
    },
    {
      "midi": 31,
      "hit": false,
      "t": 66829.148,
      "d": 243.90200000000186,
      "v": 100
    },
    {
      "midi": 77,
      "hit": false,
      "t": 66829.14800000012,
      "d": 243.90200000000186,
      "v": 100
    },
    {
      "midi": 41,
      "hit": false,
      "t": 66829.1480000002,
      "d": 1.0162583333294606,
      "v": 100
    },
    {
      "midi": 33,
      "hit": false,
      "t": 66829.1480000003,
      "d": 1.0162583333294606,
      "v": 127
    },
    {
      "midi": 40,
      "hit": false,
      "t": 66829.1480000003,
      "d": 1.0162583333294606,
      "v": 100
    },
    {
      "midi": 46,
      "hit": false,
      "t": 66829.1480000003,
      "d": 1.0162583333294606,
      "v": 100
    },
    {
      "midi": 67,
      "hit": false,
      "t": 66951.09899999732,
      "d": 60.97550000001502,
      "v": 100
    },
    {
      "midi": 63,
      "hit": false,
      "t": 66951.09899999732,
      "d": 60.97550000001502,
      "v": 100
    },
    {
      "midi": 72,
      "hit": false,
      "t": 66951.09899999732,
      "d": 60.97550000001502,
      "v": 100
    },
    {
      "midi": 43,
      "hit": false,
      "t": 66951.0989999997,
      "d": 121.95100000000093,
      "v": 100
    },
    {
      "midi": 44,
      "hit": false,
      "t": 66951.09900000031,
      "d": 1.0162583333294606,
      "v": 100
    },
    {
      "midi": 67,
      "hit": false,
      "t": 67073.04999999747,
      "d": 60.975500000000466,
      "v": 100
    },
    {
      "midi": 63,
      "hit": false,
      "t": 67073.04999999747,
      "d": 60.975500000000466,
      "v": 100
    },
    {
      "midi": 72,
      "hit": false,
      "t": 67073.04999999747,
      "d": 60.975500000000466,
      "v": 100
    },
    {
      "midi": 48,
      "hit": false,
      "t": 67073.0499999997,
      "d": 487.8040000000037,
      "v": 100
    },
    {
      "midi": 55,
      "hit": false,
      "t": 67073.0499999997,
      "d": 487.8040000000037,
      "v": 100
    },
    {
      "midi": 72,
      "hit": false,
      "t": 67073.04999999993,
      "d": 731.7060000000056,
      "v": 100
    },
    {
      "midi": 63,
      "hit": false,
      "t": 67073.04999999993,
      "d": 731.7060000000056,
      "v": 100
    },
    {
      "midi": 67,
      "hit": false,
      "t": 67073.04999999993,
      "d": 731.7060000000056,
      "v": 100
    },
    {
      "midi": 31,
      "hit": false,
      "t": 67073.05,
      "d": 121.95100000000093,
      "v": 100
    },
    {
      "midi": 75,
      "hit": false,
      "t": 67073.05000000012,
      "d": 975.6079999999929,
      "v": 100
    },
    {
      "midi": 46,
      "hit": false,
      "t": 67073.05000000031,
      "d": 1.0162583333294606,
      "v": 100
    },
    {
      "midi": 67,
      "hit": false,
      "t": 67195.00099999747,
      "d": 60.975500000000466,
      "v": 100
    },
    {
      "midi": 63,
      "hit": false,
      "t": 67195.00099999747,
      "d": 60.975500000000466,
      "v": 100
    },
    {
      "midi": 72,
      "hit": false,
      "t": 67195.00099999747,
      "d": 60.975500000000466,
      "v": 100
    },
    {
      "midi": 36,
      "hit": false,
      "t": 67195.001,
      "d": 243.90200000000186,
      "v": 100
    },
    {
      "midi": 41,
      "hit": false,
      "t": 67195.00100000021,
      "d": 1.0162583333294606,
      "v": 100
    },
    {
      "midi": 44,
      "hit": false,
      "t": 67195.00100000031,
      "d": 1.0162583333294606,
      "v": 100
    },
    {
      "midi": 67,
      "hit": false,
      "t": 67316.95199999747,
      "d": 60.975500000145985,
      "v": 100
    },
    {
      "midi": 63,
      "hit": false,
      "t": 67316.95199999747,
      "d": 60.975500000145985,
      "v": 100
    },
    {
      "midi": 72,
      "hit": false,
      "t": 67316.95199999747,
      "d": 60.975500000145985,
      "v": 100
    },
    {
      "midi": 33,
      "hit": false,
      "t": 67316.95200000031,
      "d": 1.0162583333294606,
      "v": 127
    },
    {
      "midi": 42,
      "hit": false,
      "t": 67316.95200000031,
      "d": 1.0162583333294606,
      "v": 100
    },
    {
      "midi": 67,
      "hit": false,
      "t": 67438.90299999765,
      "d": 60.97550000001502,
      "v": 100
    },
    {
      "midi": 63,
      "hit": false,
      "t": 67438.90299999765,
      "d": 60.97550000001502,
      "v": 100
    },
    {
      "midi": 72,
      "hit": false,
      "t": 67438.90299999765,
      "d": 60.97550000001502,
      "v": 100
    },
    {
      "midi": 36,
      "hit": false,
      "t": 67438.903,
      "d": 121.95100000000093,
      "v": 100
    },
    {
      "midi": 41,
      "hit": false,
      "t": 67438.90300000021,
      "d": 1.0162583333294606,
      "v": 100
    },
    {
      "midi": 40,
      "hit": false,
      "t": 67438.90300000031,
      "d": 1.0162583333294606,
      "v": 100
    },
    {
      "midi": 67,
      "hit": false,
      "t": 67560.8539999978,
      "d": 60.975500000000466,
      "v": 100
    },
    {
      "midi": 63,
      "hit": false,
      "t": 67560.8539999978,
      "d": 60.975500000000466,
      "v": 100
    },
    {
      "midi": 72,
      "hit": false,
      "t": 67560.8539999978,
      "d": 60.975500000000466,
      "v": 100
    },
    {
      "midi": 48,
      "hit": false,
      "t": 67560.8539999997,
      "d": 121.95100000000093,
      "v": 100
    },
    {
      "midi": 36,
      "hit": false,
      "t": 67560.854,
      "d": 243.90200000000186,
      "v": 100
    },
    {
      "midi": 67,
      "hit": false,
      "t": 67560.85400000025,
      "d": 121.95100000000093,
      "v": 100
    },
    {
      "midi": 72,
      "hit": false,
      "t": 67560.85400000025,
      "d": 121.95100000000093,
      "v": 100
    },
    {
      "midi": 63,
      "hit": false,
      "t": 67560.85400000025,
      "d": 121.95100000000093,
      "v": 100
    },
    {
      "midi": 46,
      "hit": false,
      "t": 67560.85400000031,
      "d": 1.0162583333294606,
      "v": 100
    },
    {
      "midi": 67,
      "hit": false,
      "t": 67682.8049999978,
      "d": 60.975500000000466,
      "v": 100
    },
    {
      "midi": 63,
      "hit": false,
      "t": 67682.8049999978,
      "d": 60.975500000000466,
      "v": 100
    },
    {
      "midi": 72,
      "hit": false,
      "t": 67682.8049999978,
      "d": 60.975500000000466,
      "v": 100
    },
    {
      "midi": 48,
      "hit": false,
      "t": 67682.8049999997,
      "d": 121.95100000000093,
      "v": 100
    },
    {
      "midi": 44,
      "hit": false,
      "t": 67682.80500000031,
      "d": 1.0162583333294606,
      "v": 100
    },
    {
      "midi": 67,
      "hit": false,
      "t": 67804.7559999978,
      "d": 121.951000000161,
      "v": 100
    },
    {
      "midi": 63,
      "hit": false,
      "t": 67804.7559999978,
      "d": 121.951000000161,
      "v": 100
    },
    {
      "midi": 72,
      "hit": false,
      "t": 67804.7559999978,
      "d": 121.951000000161,
      "v": 100
    },
    {
      "midi": 53,
      "hit": false,
      "t": 67804.7559999997,
      "d": 487.8040000000037,
      "v": 100
    },
    {
      "midi": 46,
      "hit": false,
      "t": 67804.7559999997,
      "d": 487.8040000000037,
      "v": 100
    },
    {
      "midi": 75,
      "hit": false,
      "t": 67804.75599999994,
      "d": 487.8040000000037,
      "v": 100
    },
    {
      "midi": 72,
      "hit": false,
      "t": 67804.75599999994,
      "d": 487.8040000000037,
      "v": 100
    },
    {
      "midi": 65,
      "hit": false,
      "t": 67804.75599999994,
      "d": 487.8040000000037,
      "v": 100
    },
    {
      "midi": 67,
      "hit": false,
      "t": 67804.75599999994,
      "d": 487.8040000000037,
      "v": 100
    },
    {
      "midi": 34,
      "hit": false,
      "t": 67804.75600000001,
      "d": 243.90200000000186,
      "v": 100
    },
    {
      "midi": 67,
      "hit": false,
      "t": 67804.75600000026,
      "d": 487.8040000000037,
      "v": 100
    },
    {
      "midi": 72,
      "hit": false,
      "t": 67804.75600000026,
      "d": 487.8040000000037,
      "v": 100
    },
    {
      "midi": 63,
      "hit": false,
      "t": 67804.75600000026,
      "d": 487.8040000000037,
      "v": 100
    },
    {
      "midi": 33,
      "hit": false,
      "t": 67804.75600000031,
      "d": 1.0162583333294606,
      "v": 127
    },
    {
      "midi": 40,
      "hit": false,
      "t": 67804.75600000031,
      "d": 1.0162583333294606,
      "v": 100
    },
    {
      "midi": 46,
      "hit": false,
      "t": 67804.75600000031,
      "d": 1.0162583333294606,
      "v": 100
    },
    {
      "midi": 57,
      "hit": false,
      "t": 67804.75600000031,
      "d": 1.0162583333294606,
      "v": 100
    },
    {
      "midi": 67,
      "hit": false,
      "t": 67926.70699999796,
      "d": 121.9510000001319,
      "v": 100
    },
    {
      "midi": 63,
      "hit": false,
      "t": 67926.70699999796,
      "d": 121.9510000001319,
      "v": 100
    },
    {
      "midi": 72,
      "hit": false,
      "t": 67926.70699999796,
      "d": 121.9510000001319,
      "v": 100
    },
    {
      "midi": 44,
      "hit": false,
      "t": 67926.70700000032,
      "d": 1.0162583333294606,
      "v": 100
    },
    {
      "midi": 67,
      "hit": false,
      "t": 68048.65799999809,
      "d": 60.975500000000466,
      "v": 100
    },
    {
      "midi": 63,
      "hit": false,
      "t": 68048.65799999809,
      "d": 60.975500000000466,
      "v": 100
    },
    {
      "midi": 72,
      "hit": false,
      "t": 68048.65799999809,
      "d": 60.975500000000466,
      "v": 100
    },
    {
      "midi": 34,
      "hit": false,
      "t": 68048.65800000001,
      "d": 243.90200000000186,
      "v": 100
    },
    {
      "midi": 40,
      "hit": false,
      "t": 68048.65800000032,
      "d": 1.0162583333294606,
      "v": 40
    },
    {
      "midi": 46,
      "hit": false,
      "t": 68048.65800000032,
      "d": 1.0162583333294606,
      "v": 100
    },
    {
      "midi": 67,
      "hit": false,
      "t": 68170.60899999809,
      "d": 60.975500000000466,
      "v": 100
    },
    {
      "midi": 63,
      "hit": false,
      "t": 68170.60899999809,
      "d": 60.975500000000466,
      "v": 100
    },
    {
      "midi": 72,
      "hit": false,
      "t": 68170.60899999809,
      "d": 60.975500000000466,
      "v": 100
    },
    {
      "midi": 40,
      "hit": false,
      "t": 68170.60900000032,
      "d": 1.0162583333294606,
      "v": 100
    },
    {
      "midi": 44,
      "hit": false,
      "t": 68170.60900000032,
      "d": 1.0162583333294606,
      "v": 100
    },
    {
      "midi": 67,
      "hit": false,
      "t": 68292.55999999809,
      "d": 487.8040000002802,
      "v": 100
    },
    {
      "midi": 63,
      "hit": false,
      "t": 68292.55999999809,
      "d": 487.8040000002802,
      "v": 100
    },
    {
      "midi": 72,
      "hit": false,
      "t": 68292.55999999809,
      "d": 487.8040000002802,
      "v": 100
    },
    {
      "midi": 44,
      "hit": false,
      "t": 68292.5599999997,
      "d": 487.8040000000037,
      "v": 100
    },
    {
      "midi": 51,
      "hit": false,
      "t": 68292.5599999997,
      "d": 487.8040000000037,
      "v": 100
    },
    {
      "midi": 72,
      "hit": false,
      "t": 68292.55999999994,
      "d": 731.7060000000056,
      "v": 100
    },
    {
      "midi": 63,
      "hit": false,
      "t": 68292.55999999994,
      "d": 731.7060000000056,
      "v": 100
    },
    {
      "midi": 68,
      "hit": false,
      "t": 68292.55999999994,
      "d": 731.7060000000056,
      "v": 100
    },
    {
      "midi": 32,
      "hit": false,
      "t": 68292.56000000001,
      "d": 243.90200000000186,
      "v": 100
    },
    {
      "midi": 80,
      "hit": false,
      "t": 68292.56000000011,
      "d": 487.8040000000037,
      "v": 100
    },
    {
      "midi": 72,
      "hit": false,
      "t": 68292.56000000026,
      "d": 365.8530000000028,
      "v": 100
    },
    {
      "midi": 68,
      "hit": false,
      "t": 68292.56000000026,
      "d": 365.8530000000028,
      "v": 100
    },
    {
      "midi": 63,
      "hit": false,
      "t": 68292.56000000026,
      "d": 365.8530000000028,
      "v": 100
    },
    {
      "midi": 33,
      "hit": false,
      "t": 68292.56000000032,
      "d": 1.0162583333294606,
      "v": 127
    },
    {
      "midi": 42,
      "hit": false,
      "t": 68292.56000000032,
      "d": 1.0162583333294606,
      "v": 100
    },
    {
      "midi": 57,
      "hit": false,
      "t": 68292.56000000032,
      "d": 1.0162583333294606,
      "v": 100
    },
    {
      "midi": 32,
      "hit": false,
      "t": 68536.46200000001,
      "d": 243.90200000000186,
      "v": 100
    },
    {
      "midi": 46,
      "hit": false,
      "t": 68536.46200000032,
      "d": 1.0162583333294606,
      "v": 100
    },
    {
      "midi": 72,
      "hit": false,
      "t": 68658.41300000026,
      "d": 121.95100000000093,
      "v": 100
    },
    {
      "midi": 68,
      "hit": false,
      "t": 68658.41300000026,
      "d": 121.95100000000093,
      "v": 100
    },
    {
      "midi": 63,
      "hit": false,
      "t": 68658.41300000026,
      "d": 121.95100000000093,
      "v": 100
    },
    {
      "midi": 44,
      "hit": false,
      "t": 68658.41300000032,
      "d": 1.0162583333294606,
      "v": 100
    },
    {
      "midi": 67,
      "hit": false,
      "t": 68780.36399999837,
      "d": 60.975500000145985,
      "v": 100
    },
    {
      "midi": 63,
      "hit": false,
      "t": 68780.36399999837,
      "d": 60.975500000145985,
      "v": 100
    },
    {
      "midi": 72,
      "hit": false,
      "t": 68780.36399999837,
      "d": 60.975500000145985,
      "v": 100
    },
    {
      "midi": 44,
      "hit": false,
      "t": 68780.36399999971,
      "d": 121.95100000000093,
      "v": 100
    },
    {
      "midi": 32,
      "hit": false,
      "t": 68780.36400000002,
      "d": 243.90200000000186,
      "v": 100
    },
    {
      "midi": 33,
      "hit": false,
      "t": 68780.36400000032,
      "d": 1.0162583333294606,
      "v": 127
    },
    {
      "midi": 40,
      "hit": false,
      "t": 68780.36400000032,
      "d": 1.0162583333294606,
      "v": 100
    },
    {
      "midi": 46,
      "hit": false,
      "t": 68780.36400000032,
      "d": 1.0162583333294606,
      "v": 100
    },
    {
      "midi": 67,
      "hit": false,
      "t": 68902.31499999855,
      "d": 60.97550000001502,
      "v": 100
    },
    {
      "midi": 63,
      "hit": false,
      "t": 68902.31499999855,
      "d": 60.97550000001502,
      "v": 100
    },
    {
      "midi": 72,
      "hit": false,
      "t": 68902.31499999855,
      "d": 60.97550000001502,
      "v": 100
    },
    {
      "midi": 44,
      "hit": false,
      "t": 68902.31499999971,
      "d": 121.95100000000093,
      "v": 100
    },
    {
      "midi": 44,
      "hit": false,
      "t": 68902.31500000032,
      "d": 1.0162583333294606,
      "v": 100
    },
    {
      "midi": 67,
      "hit": false,
      "t": 69024.2659999987,
      "d": 60.975500000000466,
      "v": 100
    },
    {
      "midi": 63,
      "hit": false,
      "t": 69024.2659999987,
      "d": 60.975500000000466,
      "v": 100
    },
    {
      "midi": 72,
      "hit": false,
      "t": 69024.2659999987,
      "d": 60.975500000000466,
      "v": 100
    },
    {
      "midi": 46,
      "hit": false,
      "t": 69024.26599999971,
      "d": 487.8040000000037,
      "v": 100
    },
    {
      "midi": 53,
      "hit": false,
      "t": 69024.26599999971,
      "d": 487.8040000000037,
      "v": 100
    },
    {
      "midi": 74,
      "hit": false,
      "t": 69024.26599999995,
      "d": 1219.5099999999948,
      "v": 100
    },
    {
      "midi": 70,
      "hit": false,
      "t": 69024.26599999995,
      "d": 1219.5099999999948,
      "v": 100
    },
    {
      "midi": 65,
      "hit": false,
      "t": 69024.26599999995,
      "d": 1219.5099999999948,
      "v": 100
    },
    {
      "midi": 32,
      "hit": false,
      "t": 69024.26600000002,
      "d": 121.95100000000093,
      "v": 100
    },
    {
      "midi": 77,
      "hit": false,
      "t": 69024.26600000012,
      "d": 731.7060000000056,
      "v": 100
    },
    {
      "midi": 46,
      "hit": false,
      "t": 69024.26600000032,
      "d": 1.0162583333294606,
      "v": 100
    },
    {
      "midi": 67,
      "hit": false,
      "t": 69146.2169999987,
      "d": 60.975500000000466,
      "v": 100
    },
    {
      "midi": 63,
      "hit": false,
      "t": 69146.2169999987,
      "d": 60.975500000000466,
      "v": 100
    },
    {
      "midi": 72,
      "hit": false,
      "t": 69146.2169999987,
      "d": 60.975500000000466,
      "v": 100
    },
    {
      "midi": 34,
      "hit": false,
      "t": 69146.21700000002,
      "d": 243.90200000000186,
      "v": 100
    },
    {
      "midi": 44,
      "hit": false,
      "t": 69146.21700000032,
      "d": 1.0162583333294606,
      "v": 100
    },
    {
      "midi": 67,
      "hit": false,
      "t": 69268.1679999987,
      "d": 60.975500000145985,
      "v": 100
    },
    {
      "midi": 63,
      "hit": false,
      "t": 69268.1679999987,
      "d": 60.975500000145985,
      "v": 100
    },
    {
      "midi": 72,
      "hit": false,
      "t": 69268.1679999987,
      "d": 60.975500000145985,
      "v": 100
    },
    {
      "midi": 33,
      "hit": false,
      "t": 69268.16800000033,
      "d": 1.0162583333294606,
      "v": 127
    },
    {
      "midi": 42,
      "hit": false,
      "t": 69268.16800000033,
      "d": 1.0162583333294606,
      "v": 100
    },
    {
      "midi": 67,
      "hit": false,
      "t": 69390.11899999887,
      "d": 60.97550000001502,
      "v": 100
    },
    {
      "midi": 63,
      "hit": false,
      "t": 69390.11899999887,
      "d": 60.97550000001502,
      "v": 100
    },
    {
      "midi": 72,
      "hit": false,
      "t": 69390.11899999887,
      "d": 60.97550000001502,
      "v": 100
    },
    {
      "midi": 34,
      "hit": false,
      "t": 69390.11900000002,
      "d": 121.95100000000093,
      "v": 100
    },
    {
      "midi": 67,
      "hit": false,
      "t": 69512.06999999902,
      "d": 60.975500000000466,
      "v": 100
    },
    {
      "midi": 63,
      "hit": false,
      "t": 69512.06999999902,
      "d": 60.975500000000466,
      "v": 100
    },
    {
      "midi": 72,
      "hit": false,
      "t": 69512.06999999902,
      "d": 60.975500000000466,
      "v": 100
    },
    {
      "midi": 46,
      "hit": false,
      "t": 69512.06999999972,
      "d": 121.95100000000093,
      "v": 100
    },
    {
      "midi": 34,
      "hit": false,
      "t": 69512.07000000002,
      "d": 243.90200000000186,
      "v": 100
    },
    {
      "midi": 72,
      "hit": false,
      "t": 69512.07000000027,
      "d": 121.95100000000093,
      "v": 100
    },
    {
      "midi": 68,
      "hit": false,
      "t": 69512.07000000027,
      "d": 121.95100000000093,
      "v": 100
    },
    {
      "midi": 63,
      "hit": false,
      "t": 69512.07000000027,
      "d": 121.95100000000093,
      "v": 100
    },
    {
      "midi": 46,
      "hit": false,
      "t": 69512.07000000033,
      "d": 1.0162583333294606,
      "v": 100
    },
    {
      "midi": 67,
      "hit": false,
      "t": 69634.02099999902,
      "d": 60.975500000000466,
      "v": 100
    },
    {
      "midi": 63,
      "hit": false,
      "t": 69634.02099999902,
      "d": 60.975500000000466,
      "v": 100
    },
    {
      "midi": 72,
      "hit": false,
      "t": 69634.02099999902,
      "d": 60.975500000000466,
      "v": 100
    },
    {
      "midi": 46,
      "hit": false,
      "t": 69634.02099999972,
      "d": 121.95100000000093,
      "v": 100
    },
    {
      "midi": 44,
      "hit": false,
      "t": 69634.02100000033,
      "d": 1.0162583333294606,
      "v": 100
    },
    {
      "midi": 67,
      "hit": false,
      "t": 69755.97199999902,
      "d": 121.951000000161,
      "v": 100
    },
    {
      "midi": 63,
      "hit": false,
      "t": 69755.97199999902,
      "d": 121.951000000161,
      "v": 100
    },
    {
      "midi": 72,
      "hit": false,
      "t": 69755.97199999902,
      "d": 121.951000000161,
      "v": 100
    },
    {
      "midi": 46,
      "hit": false,
      "t": 69755.97199999972,
      "d": 487.8040000001638,
      "v": 100
    },
    {
      "midi": 53,
      "hit": false,
      "t": 69755.97199999972,
      "d": 487.8040000001638,
      "v": 100
    },
    {
      "midi": 34,
      "hit": false,
      "t": 69755.97200000002,
      "d": 243.90200000000186,
      "v": 100
    },
    {
      "midi": 74,
      "hit": false,
      "t": 69755.97200000013,
      "d": 487.8040000000037,
      "v": 100
    },
    {
      "midi": 72,
      "hit": false,
      "t": 69755.97200000027,
      "d": 487.8040000000037,
      "v": 100
    },
    {
      "midi": 68,
      "hit": false,
      "t": 69755.97200000027,
      "d": 487.8040000000037,
      "v": 100
    },
    {
      "midi": 63,
      "hit": false,
      "t": 69755.97200000027,
      "d": 487.8040000000037,
      "v": 100
    },
    {
      "midi": 33,
      "hit": false,
      "t": 69755.97200000033,
      "d": 1.0162583333294606,
      "v": 127
    },
    {
      "midi": 40,
      "hit": false,
      "t": 69755.97200000033,
      "d": 1.0162583333294606,
      "v": 100
    },
    {
      "midi": 46,
      "hit": false,
      "t": 69755.97200000033,
      "d": 1.0162583333294606,
      "v": 100
    },
    {
      "midi": 67,
      "hit": false,
      "t": 69877.92299999918,
      "d": 121.9510000001319,
      "v": 100
    },
    {
      "midi": 63,
      "hit": false,
      "t": 69877.92299999918,
      "d": 121.9510000001319,
      "v": 100
    },
    {
      "midi": 72,
      "hit": false,
      "t": 69877.92299999918,
      "d": 121.9510000001319,
      "v": 100
    },
    {
      "midi": 44,
      "hit": false,
      "t": 69877.92300000033,
      "d": 1.0162583333294606,
      "v": 100
    },
    {
      "midi": 67,
      "hit": false,
      "t": 69999.87399999931,
      "d": 60.975500000000466,
      "v": 100
    },
    {
      "midi": 63,
      "hit": false,
      "t": 69999.87399999931,
      "d": 60.975500000000466,
      "v": 100
    },
    {
      "midi": 72,
      "hit": false,
      "t": 69999.87399999931,
      "d": 60.975500000000466,
      "v": 100
    },
    {
      "midi": 34,
      "hit": false,
      "t": 69999.87400000003,
      "d": 243.90200000000186,
      "v": 100
    },
    {
      "midi": 46,
      "hit": false,
      "t": 69999.87400000033,
      "d": 1.0162583333294606,
      "v": 100
    },
    {
      "midi": 67,
      "hit": false,
      "t": 70121.82499999931,
      "d": 60.975500000000466,
      "v": 100
    },
    {
      "midi": 63,
      "hit": false,
      "t": 70121.82499999931,
      "d": 60.975500000000466,
      "v": 100
    },
    {
      "midi": 72,
      "hit": false,
      "t": 70121.82499999931,
      "d": 60.975500000000466,
      "v": 100
    },
    {
      "midi": 44,
      "hit": false,
      "t": 70121.82500000033,
      "d": 1.0162583333294606,
      "v": 100
    },
    {
      "midi": 67,
      "hit": false,
      "t": 70243.77599999931,
      "d": 487.8040000002802,
      "v": 100
    },
    {
      "midi": 63,
      "hit": false,
      "t": 70243.77599999931,
      "d": 487.8040000002802,
      "v": 100
    },
    {
      "midi": 72,
      "hit": false,
      "t": 70243.77599999931,
      "d": 487.8040000002802,
      "v": 100
    },
    {
      "midi": 43,
      "hit": false,
      "t": 70243.77599999988,
      "d": 487.8040000000037,
      "v": 100
    },
    {
      "midi": 50,
      "hit": false,
      "t": 70243.77599999988,
      "d": 487.8040000000037,
      "v": 100
    },
    {
      "midi": 74,
      "hit": false,
      "t": 70243.77599999994,
      "d": 731.7060000000056,
      "v": 100
    },
    {
      "midi": 70,
      "hit": false,
      "t": 70243.77599999994,
      "d": 731.7060000000056,
      "v": 100
    },
    {
      "midi": 65,
      "hit": false,
      "t": 70243.77599999994,
      "d": 731.7060000000056,
      "v": 100
    },
    {
      "midi": 31,
      "hit": false,
      "t": 70243.77600000003,
      "d": 243.90200000000186,
      "v": 100
    },
    {
      "midi": 70,
      "hit": false,
      "t": 70243.77600000013,
      "d": 487.8040000000037,
      "v": 100
    },
    {
      "midi": 72,
      "hit": false,
      "t": 70243.77600000027,
      "d": 365.8530000000028,
      "v": 100
    },
    {
      "midi": 67,
      "hit": false,
      "t": 70243.77600000027,
      "d": 365.8530000000028,
      "v": 100
    },
    {
      "midi": 63,
      "hit": false,
      "t": 70243.77600000027,
      "d": 365.8530000000028,
      "v": 100
    },
    {
      "midi": 33,
      "hit": false,
      "t": 70243.77600000033,
      "d": 1.0162583333294606,
      "v": 127
    },
    {
      "midi": 42,
      "hit": false,
      "t": 70243.77600000033,
      "d": 1.0162583333294606,
      "v": 100
    },
    {
      "midi": 31,
      "hit": false,
      "t": 70487.67800000003,
      "d": 243.90200000000186,
      "v": 100
    },
    {
      "midi": 46,
      "hit": false,
      "t": 70487.67800000033,
      "d": 1.0162583333294606,
      "v": 100
    },
    {
      "midi": 72,
      "hit": false,
      "t": 70609.62900000028,
      "d": 121.95100000000093,
      "v": 100
    },
    {
      "midi": 67,
      "hit": false,
      "t": 70609.62900000028,
      "d": 121.95100000000093,
      "v": 100
    },
    {
      "midi": 63,
      "hit": false,
      "t": 70609.62900000028,
      "d": 121.95100000000093,
      "v": 100
    },
    {
      "midi": 44,
      "hit": false,
      "t": 70609.62900000034,
      "d": 1.0162583333294606,
      "v": 100
    },
    {
      "midi": 67,
      "hit": false,
      "t": 70731.5799999996,
      "d": 60.975500000145985,
      "v": 100
    },
    {
      "midi": 63,
      "hit": false,
      "t": 70731.5799999996,
      "d": 60.975500000145985,
      "v": 100
    },
    {
      "midi": 72,
      "hit": false,
      "t": 70731.5799999996,
      "d": 60.975500000145985,
      "v": 100
    },
    {
      "midi": 43,
      "hit": false,
      "t": 70731.57999999989,
      "d": 121.95100000000093,
      "v": 100
    },
    {
      "midi": 31,
      "hit": false,
      "t": 70731.58000000003,
      "d": 243.90200000000186,
      "v": 100
    },
    {
      "midi": 77,
      "hit": false,
      "t": 70731.58000000013,
      "d": 243.90200000000186,
      "v": 100
    },
    {
      "midi": 33,
      "hit": false,
      "t": 70731.58000000034,
      "d": 1.0162583333294606,
      "v": 127
    },
    {
      "midi": 40,
      "hit": false,
      "t": 70731.58000000034,
      "d": 1.0162583333294606,
      "v": 100
    },
    {
      "midi": 46,
      "hit": false,
      "t": 70731.58000000034,
      "d": 1.0162583333294606,
      "v": 100
    },
    {
      "midi": 67,
      "hit": false,
      "t": 70853.53099999977,
      "d": 60.97550000001502,
      "v": 100
    },
    {
      "midi": 63,
      "hit": false,
      "t": 70853.53099999977,
      "d": 60.97550000001502,
      "v": 100
    },
    {
      "midi": 72,
      "hit": false,
      "t": 70853.53099999977,
      "d": 60.97550000001502,
      "v": 100
    },
    {
      "midi": 43,
      "hit": false,
      "t": 70853.53099999989,
      "d": 121.95100000000093,
      "v": 100
    },
    {
      "midi": 44,
      "hit": false,
      "t": 70853.53100000034,
      "d": 1.0162583333294606,
      "v": 100
    },
    {
      "midi": 48,
      "hit": false,
      "t": 70975.48199999989,
      "d": 731.7060000000056,
      "v": 100
    },
    {
      "midi": 55,
      "hit": false,
      "t": 70975.48199999989,
      "d": 731.7060000000056,
      "v": 100
    },
    {
      "midi": 67,
      "hit": false,
      "t": 70975.48199999992,
      "d": 60.975500000000466,
      "v": 100
    },
    {
      "midi": 63,
      "hit": false,
      "t": 70975.48199999992,
      "d": 60.975500000000466,
      "v": 100
    },
    {
      "midi": 72,
      "hit": false,
      "t": 70975.48199999992,
      "d": 60.975500000000466,
      "v": 100
    },
    {
      "midi": 72,
      "hit": false,
      "t": 70975.48199999995,
      "d": 731.7060000000056,
      "v": 100
    },
    {
      "midi": 63,
      "hit": false,
      "t": 70975.48199999995,
      "d": 731.7060000000056,
      "v": 100
    },
    {
      "midi": 67,
      "hit": false,
      "t": 70975.48199999995,
      "d": 731.7060000000056,
      "v": 100
    },
    {
      "midi": 31,
      "hit": false,
      "t": 70975.48200000003,
      "d": 121.95100000000093,
      "v": 100
    },
    {
      "midi": 75,
      "hit": false,
      "t": 70975.48200000013,
      "d": 487.8040000000037,
      "v": 100
    },
    {
      "midi": 46,
      "hit": false,
      "t": 70975.48200000034,
      "d": 1.0162583333294606,
      "v": 100
    },
    {
      "midi": 67,
      "hit": false,
      "t": 71097.43299999992,
      "d": 60.975500000000466,
      "v": 100
    },
    {
      "midi": 63,
      "hit": false,
      "t": 71097.43299999992,
      "d": 60.975500000000466,
      "v": 100
    },
    {
      "midi": 72,
      "hit": false,
      "t": 71097.43299999992,
      "d": 60.975500000000466,
      "v": 100
    },
    {
      "midi": 36,
      "hit": false,
      "t": 71097.43300000003,
      "d": 243.90200000000186,
      "v": 100
    },
    {
      "midi": 41,
      "hit": false,
      "t": 71097.43300000021,
      "d": 1.0162583333294606,
      "v": 100
    },
    {
      "midi": 44,
      "hit": false,
      "t": 71097.43300000034,
      "d": 1.0162583333294606,
      "v": 100
    },
    {
      "midi": 67,
      "hit": false,
      "t": 71219.38399999992,
      "d": 60.975500000145985,
      "v": 100
    },
    {
      "midi": 63,
      "hit": false,
      "t": 71219.38399999992,
      "d": 60.975500000145985,
      "v": 100
    },
    {
      "midi": 72,
      "hit": false,
      "t": 71219.38399999992,
      "d": 60.975500000145985,
      "v": 100
    },
    {
      "midi": 33,
      "hit": false,
      "t": 71219.38400000034,
      "d": 1.0162583333294606,
      "v": 127
    },
    {
      "midi": 42,
      "hit": false,
      "t": 71219.38400000034,
      "d": 1.0162583333294606,
      "v": 100
    },
    {
      "midi": 36,
      "hit": false,
      "t": 71341.33500000004,
      "d": 121.95100000000093,
      "v": 100
    },
    {
      "midi": 67,
      "hit": false,
      "t": 71341.3350000001,
      "d": 60.97550000001502,
      "v": 100
    },
    {
      "midi": 63,
      "hit": false,
      "t": 71341.3350000001,
      "d": 60.97550000001502,
      "v": 100
    },
    {
      "midi": 72,
      "hit": false,
      "t": 71341.3350000001,
      "d": 60.97550000001502,
      "v": 100
    },
    {
      "midi": 41,
      "hit": false,
      "t": 71341.33500000021,
      "d": 1.0162583333294606,
      "v": 100
    },
    {
      "midi": 36,
      "hit": false,
      "t": 71463.28600000004,
      "d": 243.90200000000186,
      "v": 100
    },
    {
      "midi": 72,
      "hit": false,
      "t": 71463.28600000014,
      "d": 243.90200000000186,
      "v": 100
    },
    {
      "midi": 67,
      "hit": false,
      "t": 71463.28600000024,
      "d": 60.975500000000466,
      "v": 100
    },
    {
      "midi": 63,
      "hit": false,
      "t": 71463.28600000024,
      "d": 60.975500000000466,
      "v": 100
    },
    {
      "midi": 72,
      "hit": false,
      "t": 71463.28600000024,
      "d": 60.975500000000466,
      "v": 100
    },
    {
      "midi": 67,
      "hit": false,
      "t": 71463.28600000028,
      "d": 121.95100000000093,
      "v": 100
    },
    {
      "midi": 72,
      "hit": false,
      "t": 71463.28600000028,
      "d": 121.95100000000093,
      "v": 100
    },
    {
      "midi": 63,
      "hit": false,
      "t": 71463.28600000028,
      "d": 121.95100000000093,
      "v": 100
    },
    {
      "midi": 46,
      "hit": false,
      "t": 71463.28600000034,
      "d": 1.0162583333294606,
      "v": 100
    },
    {
      "midi": 67,
      "hit": false,
      "t": 71585.23700000024,
      "d": 60.975500000000466,
      "v": 100
    },
    {
      "midi": 63,
      "hit": false,
      "t": 71585.23700000024,
      "d": 60.975500000000466,
      "v": 100
    },
    {
      "midi": 72,
      "hit": false,
      "t": 71585.23700000024,
      "d": 60.975500000000466,
      "v": 100
    },
    {
      "midi": 44,
      "hit": false,
      "t": 71585.23700000034,
      "d": 1.0162583333294606,
      "v": 100
    },
    {
      "midi": 53,
      "hit": false,
      "t": 71707.1879999999,
      "d": 487.8040000000037,
      "v": 100
    },
    {
      "midi": 46,
      "hit": false,
      "t": 71707.1879999999,
      "d": 487.8040000000037,
      "v": 100
    },
    {
      "midi": 67,
      "hit": false,
      "t": 71707.18799999995,
      "d": 487.8040000000037,
      "v": 100
    },
    {
      "midi": 70,
      "hit": false,
      "t": 71707.18799999995,
      "d": 487.8040000000037,
      "v": 100
    },
    {
      "midi": 63,
      "hit": false,
      "t": 71707.18799999995,
      "d": 487.8040000000037,
      "v": 100
    },
    {
      "midi": 34,
      "hit": false,
      "t": 71707.18800000004,
      "d": 243.90200000000186,
      "v": 100
    },
    {
      "midi": 72,
      "hit": false,
      "t": 71707.18800000014,
      "d": 243.90200000000186,
      "v": 100
    },
    {
      "midi": 67,
      "hit": false,
      "t": 71707.18800000024,
      "d": 121.951000000161,
      "v": 100
    },
    {
      "midi": 63,
      "hit": false,
      "t": 71707.18800000024,
      "d": 121.951000000161,
      "v": 100
    },
    {
      "midi": 72,
      "hit": false,
      "t": 71707.18800000024,
      "d": 121.951000000161,
      "v": 100
    },
    {
      "midi": 67,
      "hit": false,
      "t": 71707.18800000029,
      "d": 487.8040000000037,
      "v": 100
    },
    {
      "midi": 72,
      "hit": false,
      "t": 71707.18800000029,
      "d": 487.8040000000037,
      "v": 100
    },
    {
      "midi": 63,
      "hit": false,
      "t": 71707.18800000029,
      "d": 487.8040000000037,
      "v": 100
    },
    {
      "midi": 33,
      "hit": false,
      "t": 71707.18800000034,
      "d": 1.0162583333294606,
      "v": 127
    },
    {
      "midi": 40,
      "hit": false,
      "t": 71707.18800000034,
      "d": 1.0162583333294606,
      "v": 100
    },
    {
      "midi": 46,
      "hit": false,
      "t": 71707.18800000034,
      "d": 1.0162583333294606,
      "v": 100
    },
    {
      "midi": 57,
      "hit": false,
      "t": 71707.18800000034,
      "d": 1.0162583333294606,
      "v": 100
    },
    {
      "midi": 44,
      "hit": false,
      "t": 71829.13900000034,
      "d": 1.0162583333294606,
      "v": 100
    },
    {
      "midi": 67,
      "hit": false,
      "t": 71829.1390000004,
      "d": 121.9510000001319,
      "v": 100
    },
    {
      "midi": 63,
      "hit": false,
      "t": 71829.1390000004,
      "d": 121.9510000001319,
      "v": 100
    },
    {
      "midi": 72,
      "hit": false,
      "t": 71829.1390000004,
      "d": 121.9510000001319,
      "v": 100
    },
    {
      "midi": 34,
      "hit": false,
      "t": 71951.09000000004,
      "d": 243.90200000000186,
      "v": 100
    },
    {
      "midi": 74,
      "hit": false,
      "t": 71951.09000000014,
      "d": 243.90200000000186,
      "v": 100
    },
    {
      "midi": 40,
      "hit": false,
      "t": 71951.09000000035,
      "d": 1.0162583333294606,
      "v": 40
    },
    {
      "midi": 46,
      "hit": false,
      "t": 71951.09000000035,
      "d": 1.0162583333294606,
      "v": 100
    },
    {
      "midi": 67,
      "hit": false,
      "t": 71951.09000000053,
      "d": 60.975500000000466,
      "v": 100
    },
    {
      "midi": 63,
      "hit": false,
      "t": 71951.09000000053,
      "d": 60.975500000000466,
      "v": 100
    },
    {
      "midi": 72,
      "hit": false,
      "t": 71951.09000000053,
      "d": 60.975500000000466,
      "v": 100
    },
    {
      "midi": 40,
      "hit": false,
      "t": 72073.04100000035,
      "d": 1.0162583333294606,
      "v": 100
    },
    {
      "midi": 44,
      "hit": false,
      "t": 72073.04100000035,
      "d": 1.0162583333294606,
      "v": 100
    },
    {
      "midi": 67,
      "hit": false,
      "t": 72073.04100000054,
      "d": 60.975500000000466,
      "v": 100
    },
    {
      "midi": 63,
      "hit": false,
      "t": 72073.04100000054,
      "d": 60.975500000000466,
      "v": 100
    },
    {
      "midi": 72,
      "hit": false,
      "t": 72073.04100000054,
      "d": 60.975500000000466,
      "v": 100
    },
    {
      "midi": 41,
      "hit": false,
      "t": 72194.9919999999,
      "d": 975.6079999999929,
      "v": 100
    },
    {
      "midi": 48,
      "hit": false,
      "t": 72194.9919999999,
      "d": 975.6079999999929,
      "v": 100
    },
    {
      "midi": 68,
      "hit": false,
      "t": 72194.99199999995,
      "d": 975.6079999999929,
      "v": 100
    },
    {
      "midi": 63,
      "hit": false,
      "t": 72194.99199999995,
      "d": 975.6079999999929,
      "v": 100
    },
    {
      "midi": 60,
      "hit": false,
      "t": 72194.99199999995,
      "d": 975.6079999999929,
      "v": 100
    },
    {
      "midi": 29,
      "hit": false,
      "t": 72194.99200000004,
      "d": 243.90200000000186,
      "v": 100
    },
    {
      "midi": 75,
      "hit": false,
      "t": 72194.99200000014,
      "d": 365.8530000000028,
      "v": 100
    },
    {
      "midi": 68,
      "hit": false,
      "t": 72194.99200000029,
      "d": 365.8530000000028,
      "v": 100
    },
    {
      "midi": 63,
      "hit": false,
      "t": 72194.99200000029,
      "d": 365.8530000000028,
      "v": 100
    },
    {
      "midi": 33,
      "hit": false,
      "t": 72194.99200000035,
      "d": 1.0162583333294606,
      "v": 127
    },
    {
      "midi": 42,
      "hit": false,
      "t": 72194.99200000035,
      "d": 1.0162583333294606,
      "v": 100
    },
    {
      "midi": 57,
      "hit": false,
      "t": 72194.99200000035,
      "d": 1.0162583333294606,
      "v": 100
    },
    {
      "midi": 63,
      "hit": false,
      "t": 72194.99200000054,
      "d": 487.8040000002802,
      "v": 100
    },
    {
      "midi": 68,
      "hit": false,
      "t": 72194.99200000054,
      "d": 487.8040000002802,
      "v": 100
    },
    {
      "midi": 60,
      "hit": false,
      "t": 72194.99200000054,
      "d": 487.8040000002802,
      "v": 100
    },
    {
      "midi": 29,
      "hit": false,
      "t": 72438.89400000004,
      "d": 243.90200000000186,
      "v": 100
    },
    {
      "midi": 46,
      "hit": false,
      "t": 72438.89400000035,
      "d": 1.0162583333294606,
      "v": 100
    },
    {
      "midi": 72,
      "hit": false,
      "t": 72560.84500000015,
      "d": 365.8530000000028,
      "v": 100
    },
    {
      "midi": 68,
      "hit": false,
      "t": 72560.84500000029,
      "d": 121.95100000000093,
      "v": 100
    },
    {
      "midi": 63,
      "hit": false,
      "t": 72560.84500000029,
      "d": 121.95100000000093,
      "v": 100
    },
    {
      "midi": 44,
      "hit": false,
      "t": 72560.84500000035,
      "d": 1.0162583333294606,
      "v": 100
    },
    {
      "midi": 29,
      "hit": false,
      "t": 72682.79600000005,
      "d": 243.90200000000186,
      "v": 100
    },
    {
      "midi": 33,
      "hit": false,
      "t": 72682.79600000035,
      "d": 1.0162583333294606,
      "v": 127
    },
    {
      "midi": 40,
      "hit": false,
      "t": 72682.79600000035,
      "d": 1.0162583333294606,
      "v": 100
    },
    {
      "midi": 46,
      "hit": false,
      "t": 72682.79600000035,
      "d": 1.0162583333294606,
      "v": 100
    },
    {
      "midi": 63,
      "hit": false,
      "t": 72682.79600000082,
      "d": 60.975500000145985,
      "v": 100
    },
    {
      "midi": 68,
      "hit": false,
      "t": 72682.79600000082,
      "d": 60.975500000145985,
      "v": 100
    },
    {
      "midi": 60,
      "hit": false,
      "t": 72682.79600000082,
      "d": 60.975500000145985,
      "v": 100
    },
    {
      "midi": 44,
      "hit": false,
      "t": 72804.74700000035,
      "d": 1.0162583333294606,
      "v": 100
    },
    {
      "midi": 63,
      "hit": false,
      "t": 72804.74700000099,
      "d": 60.97550000001502,
      "v": 100
    },
    {
      "midi": 68,
      "hit": false,
      "t": 72804.74700000099,
      "d": 60.97550000001502,
      "v": 100
    },
    {
      "midi": 60,
      "hit": false,
      "t": 72804.74700000099,
      "d": 60.97550000001502,
      "v": 100
    },
    {
      "midi": 29,
      "hit": false,
      "t": 72926.69800000005,
      "d": 121.95100000000093,
      "v": 100
    },
    {
      "midi": 75,
      "hit": false,
      "t": 72926.69800000015,
      "d": 243.90200000000186,
      "v": 100
    },
    {
      "midi": 46,
      "hit": false,
      "t": 72926.69800000035,
      "d": 1.0162583333294606,
      "v": 100
    },
    {
      "midi": 40,
      "hit": false,
      "t": 72926.69800000035,
      "d": 1.0162583333294606,
      "v": 40
    },
    {
      "midi": 63,
      "hit": false,
      "t": 72926.69800000114,
      "d": 60.975500000000466,
      "v": 100
    },
    {
      "midi": 68,
      "hit": false,
      "t": 72926.69800000114,
      "d": 60.975500000000466,
      "v": 100
    },
    {
      "midi": 60,
      "hit": false,
      "t": 72926.69800000114,
      "d": 60.975500000000466,
      "v": 100
    },
    {
      "midi": 31,
      "hit": false,
      "t": 73048.64900000005,
      "d": 243.90200000000186,
      "v": 100
    },
    {
      "midi": 44,
      "hit": false,
      "t": 73048.64900000035,
      "d": 1.0162583333294606,
      "v": 100
    },
    {
      "midi": 40,
      "hit": false,
      "t": 73048.64900000035,
      "d": 1.0162583333294606,
      "v": 100
    },
    {
      "midi": 63,
      "hit": false,
      "t": 73048.64900000114,
      "d": 60.975500000000466,
      "v": 100
    },
    {
      "midi": 68,
      "hit": false,
      "t": 73048.64900000114,
      "d": 60.975500000000466,
      "v": 100
    },
    {
      "midi": 60,
      "hit": false,
      "t": 73048.64900000114,
      "d": 60.975500000000466,
      "v": 100
    },
    {
      "midi": 43,
      "hit": false,
      "t": 73170.59999999989,
      "d": 975.6079999999929,
      "v": 100
    },
    {
      "midi": 50,
      "hit": false,
      "t": 73170.59999999989,
      "d": 975.6079999999929,
      "v": 100
    },
    {
      "midi": 70,
      "hit": false,
      "t": 73170.59999999995,
      "d": 975.6079999999929,
      "v": 100
    },
    {
      "midi": 62,
      "hit": false,
      "t": 73170.59999999995,
      "d": 975.6079999999929,
      "v": 100
    },
    {
      "midi": 65,
      "hit": false,
      "t": 73170.59999999995,
      "d": 975.6079999999929,
      "v": 100
    },
    {
      "midi": 77,
      "hit": false,
      "t": 73170.60000000015,
      "d": 365.8530000000028,
      "v": 100
    },
    {
      "midi": 70,
      "hit": false,
      "t": 73170.6000000003,
      "d": 365.8530000000028,
      "v": 100
    },
    {
      "midi": 65,
      "hit": false,
      "t": 73170.6000000003,
      "d": 365.8530000000028,
      "v": 100
    },
    {
      "midi": 33,
      "hit": false,
      "t": 73170.60000000036,
      "d": 1.0162583333294606,
      "v": 127
    },
    {
      "midi": 42,
      "hit": false,
      "t": 73170.60000000036,
      "d": 1.0162583333294606,
      "v": 100
    },
    {
      "midi": 57,
      "hit": false,
      "t": 73170.60000000036,
      "d": 1.0162583333294606,
      "v": 100
    },
    {
      "midi": 65,
      "hit": false,
      "t": 73170.60000000114,
      "d": 60.975500000145985,
      "v": 100
    },
    {
      "midi": 70,
      "hit": false,
      "t": 73170.60000000114,
      "d": 60.975500000145985,
      "v": 100
    },
    {
      "midi": 62,
      "hit": false,
      "t": 73170.60000000114,
      "d": 60.975500000145985,
      "v": 100
    },
    {
      "midi": 31,
      "hit": false,
      "t": 73292.55100000005,
      "d": 121.95100000000093,
      "v": 100
    },
    {
      "midi": 65,
      "hit": false,
      "t": 73292.55100000132,
      "d": 60.97550000001502,
      "v": 100
    },
    {
      "midi": 70,
      "hit": false,
      "t": 73292.55100000132,
      "d": 60.97550000001502,
      "v": 100
    },
    {
      "midi": 62,
      "hit": false,
      "t": 73292.55100000132,
      "d": 60.97550000001502,
      "v": 100
    },
    {
      "midi": 31,
      "hit": false,
      "t": 73414.50200000005,
      "d": 243.90200000000186,
      "v": 100
    },
    {
      "midi": 46,
      "hit": false,
      "t": 73414.50200000036,
      "d": 1.0162583333294606,
      "v": 100
    },
    {
      "midi": 65,
      "hit": false,
      "t": 73414.50200000146,
      "d": 60.975500000000466,
      "v": 100
    },
    {
      "midi": 70,
      "hit": false,
      "t": 73414.50200000146,
      "d": 60.975500000000466,
      "v": 100
    },
    {
      "midi": 62,
      "hit": false,
      "t": 73414.50200000146,
      "d": 60.975500000000466,
      "v": 100
    },
    {
      "midi": 74,
      "hit": false,
      "t": 73536.45300000015,
      "d": 365.8530000000028,
      "v": 100
    },
    {
      "midi": 70,
      "hit": false,
      "t": 73536.4530000003,
      "d": 121.95100000000093,
      "v": 100
    },
    {
      "midi": 65,
      "hit": false,
      "t": 73536.4530000003,
      "d": 121.95100000000093,
      "v": 100
    },
    {
      "midi": 44,
      "hit": false,
      "t": 73536.45300000036,
      "d": 1.0162583333294606,
      "v": 100
    },
    {
      "midi": 65,
      "hit": false,
      "t": 73536.45300000146,
      "d": 60.975500000000466,
      "v": 100
    },
    {
      "midi": 70,
      "hit": false,
      "t": 73536.45300000146,
      "d": 60.975500000000466,
      "v": 100
    },
    {
      "midi": 62,
      "hit": false,
      "t": 73536.45300000146,
      "d": 60.975500000000466,
      "v": 100
    },
    {
      "midi": 31,
      "hit": false,
      "t": 73658.40400000005,
      "d": 243.90200000000186,
      "v": 100
    },
    {
      "midi": 33,
      "hit": false,
      "t": 73658.40400000036,
      "d": 1.0162583333294606,
      "v": 127
    },
    {
      "midi": 40,
      "hit": false,
      "t": 73658.40400000036,
      "d": 1.0162583333294606,
      "v": 100
    },
    {
      "midi": 46,
      "hit": false,
      "t": 73658.40400000036,
      "d": 1.0162583333294606,
      "v": 100
    },
    {
      "midi": 65,
      "hit": false,
      "t": 73658.40400000146,
      "d": 121.951000000161,
      "v": 100
    },
    {
      "midi": 70,
      "hit": false,
      "t": 73658.40400000146,
      "d": 121.951000000161,
      "v": 100
    },
    {
      "midi": 62,
      "hit": false,
      "t": 73658.40400000146,
      "d": 121.951000000161,
      "v": 100
    },
    {
      "midi": 44,
      "hit": false,
      "t": 73780.35500000036,
      "d": 1.0162583333294606,
      "v": 100
    },
    {
      "midi": 65,
      "hit": false,
      "t": 73780.35500000163,
      "d": 121.9510000001319,
      "v": 100
    },
    {
      "midi": 70,
      "hit": false,
      "t": 73780.35500000163,
      "d": 121.9510000001319,
      "v": 100
    },
    {
      "midi": 62,
      "hit": false,
      "t": 73780.35500000163,
      "d": 121.9510000001319,
      "v": 100
    },
    {
      "midi": 31,
      "hit": false,
      "t": 73902.30600000006,
      "d": 121.95100000000093,
      "v": 100
    },
    {
      "midi": 77,
      "hit": false,
      "t": 73902.30600000016,
      "d": 243.90200000000186,
      "v": 100
    },
    {
      "midi": 46,
      "hit": false,
      "t": 73902.30600000036,
      "d": 1.0162583333294606,
      "v": 100
    },
    {
      "midi": 40,
      "hit": false,
      "t": 73902.30600000036,
      "d": 1.0162583333294606,
      "v": 40
    },
    {
      "midi": 65,
      "hit": false,
      "t": 73902.30600000176,
      "d": 60.975500000000466,
      "v": 100
    },
    {
      "midi": 70,
      "hit": false,
      "t": 73902.30600000176,
      "d": 60.975500000000466,
      "v": 100
    },
    {
      "midi": 62,
      "hit": false,
      "t": 73902.30600000176,
      "d": 60.975500000000466,
      "v": 100
    },
    {
      "midi": 32,
      "hit": false,
      "t": 74024.25700000006,
      "d": 243.90200000000186,
      "v": 100
    },
    {
      "midi": 44,
      "hit": false,
      "t": 74024.25700000036,
      "d": 1.0162583333294606,
      "v": 100
    },
    {
      "midi": 40,
      "hit": false,
      "t": 74024.25700000036,
      "d": 1.0162583333294606,
      "v": 100
    },
    {
      "midi": 65,
      "hit": false,
      "t": 74024.25700000176,
      "d": 60.975500000000466,
      "v": 100
    },
    {
      "midi": 70,
      "hit": false,
      "t": 74024.25700000176,
      "d": 60.975500000000466,
      "v": 100
    },
    {
      "midi": 62,
      "hit": false,
      "t": 74024.25700000176,
      "d": 60.975500000000466,
      "v": 100
    },
    {
      "midi": 44,
      "hit": false,
      "t": 74146.20799999988,
      "d": 975.6079999999929,
      "v": 100
    },
    {
      "midi": 51,
      "hit": false,
      "t": 74146.20799999988,
      "d": 975.6079999999929,
      "v": 100
    },
    {
      "midi": 63,
      "hit": false,
      "t": 74146.20799999994,
      "d": 975.6079999999929,
      "v": 100
    },
    {
      "midi": 72,
      "hit": false,
      "t": 74146.20799999994,
      "d": 975.6079999999929,
      "v": 100
    },
    {
      "midi": 67,
      "hit": false,
      "t": 74146.20799999994,
      "d": 975.6079999999929,
      "v": 100
    },
    {
      "midi": 79,
      "hit": false,
      "t": 74146.208,
      "d": 2439.020000000004,
      "v": 127
    },
    {
      "midi": 79,
      "hit": false,
      "t": 74146.20800000016,
      "d": 365.8530000000028,
      "v": 100
    },
    {
      "midi": 72,
      "hit": false,
      "t": 74146.2080000003,
      "d": 365.8530000000028,
      "v": 100
    },
    {
      "midi": 67,
      "hit": false,
      "t": 74146.2080000003,
      "d": 365.8530000000028,
      "v": 100
    },
    {
      "midi": 33,
      "hit": false,
      "t": 74146.20800000036,
      "d": 1.0162583333294606,
      "v": 127
    },
    {
      "midi": 42,
      "hit": false,
      "t": 74146.20800000036,
      "d": 1.0162583333294606,
      "v": 100
    },
    {
      "midi": 57,
      "hit": false,
      "t": 74146.20800000036,
      "d": 1.0162583333294606,
      "v": 100
    },
    {
      "midi": 67,
      "hit": false,
      "t": 74146.20800000176,
      "d": 487.8040000002802,
      "v": 100
    },
    {
      "midi": 63,
      "hit": false,
      "t": 74146.20800000176,
      "d": 487.8040000002802,
      "v": 100
    },
    {
      "midi": 72,
      "hit": false,
      "t": 74146.20800000176,
      "d": 487.8040000002802,
      "v": 100
    },
    {
      "midi": 32,
      "hit": false,
      "t": 74268.15900000006,
      "d": 121.95100000000093,
      "v": 100
    },
    {
      "midi": 32,
      "hit": false,
      "t": 74390.11000000006,
      "d": 243.90200000000186,
      "v": 100
    },
    {
      "midi": 46,
      "hit": false,
      "t": 74390.11000000036,
      "d": 1.0162583333294606,
      "v": 100
    },
    {
      "midi": 40,
      "hit": false,
      "t": 74390.11000000036,
      "d": 1.0162583333294606,
      "v": 100
    },
    {
      "midi": 75,
      "hit": false,
      "t": 74512.06100000016,
      "d": 365.8530000000028,
      "v": 100
    },
    {
      "midi": 72,
      "hit": false,
      "t": 74512.0610000003,
      "d": 121.95100000000093,
      "v": 100
    },
    {
      "midi": 67,
      "hit": false,
      "t": 74512.0610000003,
      "d": 121.95100000000093,
      "v": 100
    },
    {
      "midi": 44,
      "hit": false,
      "t": 74512.06100000037,
      "d": 1.0162583333294606,
      "v": 100
    },
    {
      "midi": 32,
      "hit": false,
      "t": 74634.01200000006,
      "d": 243.90200000000186,
      "v": 100
    },
    {
      "midi": 33,
      "hit": false,
      "t": 74634.01200000037,
      "d": 1.0162583333294606,
      "v": 127
    },
    {
      "midi": 40,
      "hit": false,
      "t": 74634.01200000037,
      "d": 1.0162583333294606,
      "v": 100
    },
    {
      "midi": 46,
      "hit": false,
      "t": 74634.01200000037,
      "d": 1.0162583333294606,
      "v": 100
    },
    {
      "midi": 67,
      "hit": false,
      "t": 74634.01200000204,
      "d": 60.975500000145985,
      "v": 100
    },
    {
      "midi": 63,
      "hit": false,
      "t": 74634.01200000204,
      "d": 60.975500000145985,
      "v": 100
    },
    {
      "midi": 72,
      "hit": false,
      "t": 74634.01200000204,
      "d": 60.975500000145985,
      "v": 100
    },
    {
      "midi": 44,
      "hit": false,
      "t": 74755.96300000037,
      "d": 1.0162583333294606,
      "v": 100
    },
    {
      "midi": 67,
      "hit": false,
      "t": 74755.96300000222,
      "d": 60.97550000001502,
      "v": 100
    },
    {
      "midi": 63,
      "hit": false,
      "t": 74755.96300000222,
      "d": 60.97550000001502,
      "v": 100
    },
    {
      "midi": 72,
      "hit": false,
      "t": 74755.96300000222,
      "d": 60.97550000001502,
      "v": 100
    },
    {
      "midi": 32,
      "hit": false,
      "t": 74877.91400000006,
      "d": 121.95100000000093,
      "v": 100
    },
    {
      "midi": 79,
      "hit": false,
      "t": 74877.91400000016,
      "d": 243.90200000000186,
      "v": 100
    },
    {
      "midi": 46,
      "hit": false,
      "t": 74877.91400000037,
      "d": 1.0162583333294606,
      "v": 100
    },
    {
      "midi": 67,
      "hit": false,
      "t": 74877.91400000236,
      "d": 60.975500000000466,
      "v": 100
    },
    {
      "midi": 63,
      "hit": false,
      "t": 74877.91400000236,
      "d": 60.975500000000466,
      "v": 100
    },
    {
      "midi": 72,
      "hit": false,
      "t": 74877.91400000236,
      "d": 60.975500000000466,
      "v": 100
    },
    {
      "midi": 34,
      "hit": false,
      "t": 74999.86500000006,
      "d": 243.90200000000186,
      "v": 100
    },
    {
      "midi": 44,
      "hit": false,
      "t": 74999.86500000037,
      "d": 1.0162583333294606,
      "v": 100
    },
    {
      "midi": 40,
      "hit": false,
      "t": 74999.86500000037,
      "d": 1.0162583333294606,
      "v": 100
    },
    {
      "midi": 67,
      "hit": false,
      "t": 74999.86500000236,
      "d": 60.975500000000466,
      "v": 100
    },
    {
      "midi": 63,
      "hit": false,
      "t": 74999.86500000236,
      "d": 60.975500000000466,
      "v": 100
    },
    {
      "midi": 72,
      "hit": false,
      "t": 74999.86500000236,
      "d": 60.975500000000466,
      "v": 100
    },
    {
      "midi": 46,
      "hit": false,
      "t": 75121.81599999988,
      "d": 975.6080000004004,
      "v": 100
    },
    {
      "midi": 53,
      "hit": false,
      "t": 75121.81599999988,
      "d": 975.6080000004004,
      "v": 100
    },
    {
      "midi": 74,
      "hit": false,
      "t": 75121.81599999993,
      "d": 975.6079999999929,
      "v": 100
    },
    {
      "midi": 65,
      "hit": false,
      "t": 75121.81599999993,
      "d": 975.6079999999929,
      "v": 100
    },
    {
      "midi": 70,
      "hit": false,
      "t": 75121.81599999993,
      "d": 975.6079999999929,
      "v": 100
    },
    {
      "midi": 82,
      "hit": false,
      "t": 75121.81600000017,
      "d": 243.90200000000186,
      "v": 100
    },
    {
      "midi": 74,
      "hit": false,
      "t": 75121.81600000031,
      "d": 365.8530000000028,
      "v": 100
    },
    {
      "midi": 70,
      "hit": false,
      "t": 75121.81600000031,
      "d": 365.8530000000028,
      "v": 100
    },
    {
      "midi": 33,
      "hit": false,
      "t": 75121.81600000037,
      "d": 1.0162583333294606,
      "v": 127
    },
    {
      "midi": 42,
      "hit": false,
      "t": 75121.81600000037,
      "d": 1.0162583333294606,
      "v": 100
    },
    {
      "midi": 65,
      "hit": false,
      "t": 75121.81600000236,
      "d": 60.975500000145985,
      "v": 100
    },
    {
      "midi": 74,
      "hit": false,
      "t": 75121.81600000236,
      "d": 60.975500000145985,
      "v": 100
    },
    {
      "midi": 70,
      "hit": false,
      "t": 75121.81600000236,
      "d": 60.975500000145985,
      "v": 100
    },
    {
      "midi": 34,
      "hit": false,
      "t": 75243.76700000007,
      "d": 121.95100000000093,
      "v": 100
    },
    {
      "midi": 40,
      "hit": false,
      "t": 75243.76700000037,
      "d": 1.0162583333294606,
      "v": 100
    },
    {
      "midi": 65,
      "hit": false,
      "t": 75243.76700000254,
      "d": 60.97550000001502,
      "v": 100
    },
    {
      "midi": 74,
      "hit": false,
      "t": 75243.76700000254,
      "d": 60.97550000001502,
      "v": 100
    },
    {
      "midi": 70,
      "hit": false,
      "t": 75243.76700000254,
      "d": 60.97550000001502,
      "v": 100
    },
    {
      "midi": 34,
      "hit": false,
      "t": 75365.71800000007,
      "d": 243.90200000000186,
      "v": 100
    },
    {
      "midi": 46,
      "hit": false,
      "t": 75365.71800000037,
      "d": 1.0162583333294606,
      "v": 100
    },
    {
      "midi": 65,
      "hit": false,
      "t": 75365.71800000269,
      "d": 60.975500000000466,
      "v": 100
    },
    {
      "midi": 74,
      "hit": false,
      "t": 75365.71800000269,
      "d": 60.975500000000466,
      "v": 100
    },
    {
      "midi": 70,
      "hit": false,
      "t": 75365.71800000269,
      "d": 60.975500000000466,
      "v": 100
    },
    {
      "midi": 74,
      "hit": false,
      "t": 75487.66900000031,
      "d": 121.95100000000093,
      "v": 100
    },
    {
      "midi": 70,
      "hit": false,
      "t": 75487.66900000031,
      "d": 121.95100000000093,
      "v": 100
    },
    {
      "midi": 44,
      "hit": false,
      "t": 75487.66900000037,
      "d": 1.0162583333294606,
      "v": 100
    },
    {
      "midi": 65,
      "hit": false,
      "t": 75487.66900000269,
      "d": 60.975500000000466,
      "v": 100
    },
    {
      "midi": 74,
      "hit": false,
      "t": 75487.66900000269,
      "d": 60.975500000000466,
      "v": 100
    },
    {
      "midi": 70,
      "hit": false,
      "t": 75487.66900000269,
      "d": 60.975500000000466,
      "v": 100
    },
    {
      "midi": 31,
      "hit": false,
      "t": 75609.62000000007,
      "d": 243.90200000000186,
      "v": 100
    },
    {
      "midi": 79,
      "hit": false,
      "t": 75609.62000000017,
      "d": 243.90200000000186,
      "v": 100
    },
    {
      "midi": 75,
      "hit": false,
      "t": 75609.62000000017,
      "d": 243.90200000000186,
      "v": 100
    },
    {
      "midi": 33,
      "hit": false,
      "t": 75609.62000000037,
      "d": 1.0162583333294606,
      "v": 127
    },
    {
      "midi": 40,
      "hit": false,
      "t": 75609.62000000037,
      "d": 1.0162583333294606,
      "v": 100
    },
    {
      "midi": 46,
      "hit": false,
      "t": 75609.62000000037,
      "d": 1.0162583333294606,
      "v": 100
    },
    {
      "midi": 57,
      "hit": false,
      "t": 75609.62000000037,
      "d": 1.0162583333294606,
      "v": 100
    },
    {
      "midi": 65,
      "hit": false,
      "t": 75609.62000000269,
      "d": 121.951000000161,
      "v": 100
    },
    {
      "midi": 74,
      "hit": false,
      "t": 75609.62000000269,
      "d": 121.951000000161,
      "v": 100
    },
    {
      "midi": 70,
      "hit": false,
      "t": 75609.62000000269,
      "d": 121.951000000161,
      "v": 100
    },
    {
      "midi": 44,
      "hit": false,
      "t": 75731.57100000037,
      "d": 1.0162583333294606,
      "v": 100
    },
    {
      "midi": 40,
      "hit": false,
      "t": 75731.57100000037,
      "d": 1.0162583333294606,
      "v": 100
    },
    {
      "midi": 65,
      "hit": false,
      "t": 75731.57100000285,
      "d": 121.9510000001319,
      "v": 100
    },
    {
      "midi": 74,
      "hit": false,
      "t": 75731.57100000285,
      "d": 121.9510000001319,
      "v": 100
    },
    {
      "midi": 70,
      "hit": false,
      "t": 75731.57100000285,
      "d": 121.9510000001319,
      "v": 100
    },
    {
      "midi": 34,
      "hit": false,
      "t": 75853.52200000007,
      "d": 243.90200000000186,
      "v": 100
    },
    {
      "midi": 82,
      "hit": false,
      "t": 75853.52200000017,
      "d": 243.90200000000186,
      "v": 100
    },
    {
      "midi": 79,
      "hit": false,
      "t": 75853.52200000017,
      "d": 243.90200000000186,
      "v": 100
    },
    {
      "midi": 40,
      "hit": false,
      "t": 75853.52200000038,
      "d": 1.0162583333294606,
      "v": 100
    },
    {
      "midi": 46,
      "hit": false,
      "t": 75853.52200000038,
      "d": 1.0162583333294606,
      "v": 100
    },
    {
      "midi": 65,
      "hit": false,
      "t": 75853.52200000298,
      "d": 60.975500000000466,
      "v": 100
    },
    {
      "midi": 74,
      "hit": false,
      "t": 75853.52200000298,
      "d": 60.975500000000466,
      "v": 100
    },
    {
      "midi": 70,
      "hit": false,
      "t": 75853.52200000298,
      "d": 60.975500000000466,
      "v": 100
    },
    {
      "midi": 40,
      "hit": false,
      "t": 75975.47300000038,
      "d": 1.0162583333294606,
      "v": 100
    },
    {
      "midi": 44,
      "hit": false,
      "t": 75975.47300000038,
      "d": 1.0162583333294606,
      "v": 100
    },
    {
      "midi": 65,
      "hit": false,
      "t": 75975.47300000298,
      "d": 60.975500000000466,
      "v": 100
    },
    {
      "midi": 74,
      "hit": false,
      "t": 75975.47300000298,
      "d": 60.975500000000466,
      "v": 100
    },
    {
      "midi": 70,
      "hit": false,
      "t": 75975.47300000298,
      "d": 60.975500000000466,
      "v": 100
    },
    {
      "midi": 84,
      "hit": false,
      "t": 76097.42399999993,
      "d": 243.90200000000186,
      "v": 100
    },
    {
      "midi": 79,
      "hit": false,
      "t": 76097.42399999993,
      "d": 243.90200000000186,
      "v": 100
    },
    {
      "midi": 75,
      "hit": false,
      "t": 76097.42399999993,
      "d": 243.90200000000186,
      "v": 100
    },
    {
      "midi": 36,
      "hit": false,
      "t": 76097.42400000007,
      "d": 243.90200000000186,
      "v": 100
    },
    {
      "midi": 84,
      "hit": false,
      "t": 76097.42400000017,
      "d": 243.90200000000186,
      "v": 100
    },
    {
      "midi": 79,
      "hit": false,
      "t": 76097.42400000017,
      "d": 243.90200000000186,
      "v": 100
    },
    {
      "midi": 54,
      "hit": false,
      "t": 76097.4240000002,
      "d": 1.0162583333294606,
      "v": 80
    },
    {
      "midi": 72,
      "hit": false,
      "t": 76097.42400000023,
      "d": 121.95100000000093,
      "v": 100
    },
    {
      "midi": 48,
      "hit": false,
      "t": 76097.42400000028,
      "d": 975.6079999999929,
      "v": 100
    },
    {
      "midi": 55,
      "hit": false,
      "t": 76097.42400000028,
      "d": 975.6079999999929,
      "v": 100
    },
    {
      "midi": 33,
      "hit": false,
      "t": 76097.42400000038,
      "d": 1.0162583333294606,
      "v": 127
    },
    {
      "midi": 42,
      "hit": false,
      "t": 76097.42400000038,
      "d": 1.0162583333294606,
      "v": 100
    },
    {
      "midi": 57,
      "hit": false,
      "t": 76097.42400000038,
      "d": 1.0162583333294606,
      "v": 100
    },
    {
      "midi": 72,
      "hit": false,
      "t": 76097.42400000298,
      "d": 487.8040000002802,
      "v": 100
    },
    {
      "midi": 67,
      "hit": false,
      "t": 76097.42400000298,
      "d": 487.8040000002802,
      "v": 100
    },
    {
      "midi": 63,
      "hit": false,
      "t": 76097.42400000298,
      "d": 487.8040000002802,
      "v": 100
    },
    {
      "midi": 54,
      "hit": false,
      "t": 76219.3750000002,
      "d": 1.0162583333294606,
      "v": 60
    },
    {
      "midi": 72,
      "hit": false,
      "t": 76219.37500000023,
      "d": 121.95100000000093,
      "v": 100
    },
    {
      "midi": 72,
      "hit": false,
      "t": 76219.37500000032,
      "d": 121.95100000000093,
      "v": 100
    },
    {
      "midi": 67,
      "hit": false,
      "t": 76219.37500000032,
      "d": 121.95100000000093,
      "v": 100
    },
    {
      "midi": 63,
      "hit": false,
      "t": 76219.37500000032,
      "d": 121.95100000000093,
      "v": 100
    },
    {
      "midi": 36,
      "hit": false,
      "t": 76341.32600000007,
      "d": 243.90200000000186,
      "v": 100
    },
    {
      "midi": 54,
      "hit": false,
      "t": 76341.3260000002,
      "d": 1.0162583333294606,
      "v": 60
    },
    {
      "midi": 79,
      "hit": false,
      "t": 76341.32600000023,
      "d": 121.95100000000093,
      "v": 100
    },
    {
      "midi": 72,
      "hit": false,
      "t": 76341.32600000032,
      "d": 121.95100000000093,
      "v": 100
    },
    {
      "midi": 67,
      "hit": false,
      "t": 76341.32600000032,
      "d": 121.95100000000093,
      "v": 100
    },
    {
      "midi": 63,
      "hit": false,
      "t": 76341.32600000032,
      "d": 121.95100000000093,
      "v": 100
    },
    {
      "midi": 46,
      "hit": false,
      "t": 76341.32600000038,
      "d": 1.0162583333294606,
      "v": 100
    },
    {
      "midi": 54,
      "hit": false,
      "t": 76463.2770000002,
      "d": 1.0162583333294606,
      "v": 60
    },
    {
      "midi": 79,
      "hit": false,
      "t": 76463.27700000023,
      "d": 121.95100000000093,
      "v": 100
    },
    {
      "midi": 44,
      "hit": false,
      "t": 76463.27700000038,
      "d": 1.0162583333294606,
      "v": 100
    },
    {
      "midi": 84,
      "hit": false,
      "t": 76585.22799999993,
      "d": 243.90200000000186,
      "v": 100
    },
    {
      "midi": 79,
      "hit": false,
      "t": 76585.22799999993,
      "d": 243.90200000000186,
      "v": 100
    },
    {
      "midi": 75,
      "hit": false,
      "t": 76585.22799999993,
      "d": 243.90200000000186,
      "v": 100
    },
    {
      "midi": 36,
      "hit": false,
      "t": 76585.22800000008,
      "d": 243.90200000000186,
      "v": 100
    },
    {
      "midi": 84,
      "hit": false,
      "t": 76585.22800000018,
      "d": 243.90200000000186,
      "v": 100
    },
    {
      "midi": 79,
      "hit": false,
      "t": 76585.22800000018,
      "d": 243.90200000000186,
      "v": 100
    },
    {
      "midi": 54,
      "hit": false,
      "t": 76585.2280000002,
      "d": 1.0162583333294606,
      "v": 80
    },
    {
      "midi": 75,
      "hit": false,
      "t": 76585.22800000024,
      "d": 121.95100000000093,
      "v": 100
    },
    {
      "midi": 72,
      "hit": false,
      "t": 76585.22800000032,
      "d": 121.95100000000093,
      "v": 100
    },
    {
      "midi": 67,
      "hit": false,
      "t": 76585.22800000032,
      "d": 121.95100000000093,
      "v": 100
    },
    {
      "midi": 63,
      "hit": false,
      "t": 76585.22800000032,
      "d": 121.95100000000093,
      "v": 100
    },
    {
      "midi": 33,
      "hit": false,
      "t": 76585.22800000038,
      "d": 1.0162583333294606,
      "v": 127
    },
    {
      "midi": 40,
      "hit": false,
      "t": 76585.22800000038,
      "d": 1.0162583333294606,
      "v": 100
    },
    {
      "midi": 46,
      "hit": false,
      "t": 76585.22800000038,
      "d": 1.0162583333294606,
      "v": 100
    },
    {
      "midi": 72,
      "hit": false,
      "t": 76585.22800000326,
      "d": 60.975500000145985,
      "v": 100
    },
    {
      "midi": 67,
      "hit": false,
      "t": 76585.22800000326,
      "d": 60.975500000145985,
      "v": 100
    },
    {
      "midi": 63,
      "hit": false,
      "t": 76585.22800000326,
      "d": 60.975500000145985,
      "v": 100
    },
    {
      "midi": 54,
      "hit": false,
      "t": 76707.17900000021,
      "d": 1.0162583333294606,
      "v": 60
    },
    {
      "midi": 75,
      "hit": false,
      "t": 76707.17900000024,
      "d": 121.95100000000093,
      "v": 100
    },
    {
      "midi": 44,
      "hit": false,
      "t": 76707.17900000038,
      "d": 1.0162583333294606,
      "v": 100
    },
    {
      "midi": 72,
      "hit": false,
      "t": 76707.17900000344,
      "d": 60.97550000001502,
      "v": 100
    },
    {
      "midi": 67,
      "hit": false,
      "t": 76707.17900000344,
      "d": 60.97550000001502,
      "v": 100
    },
    {
      "midi": 63,
      "hit": false,
      "t": 76707.17900000344,
      "d": 60.97550000001502,
      "v": 100
    },
    {
      "midi": 84,
      "hit": false,
      "t": 76829.12999999993,
      "d": 30.487750000000233,
      "v": 100
    },
    {
      "midi": 79,
      "hit": false,
      "t": 76829.12999999993,
      "d": 30.487750000000233,
      "v": 100
    },
    {
      "midi": 36,
      "hit": false,
      "t": 76829.13000000008,
      "d": 60.975500000000466,
      "v": 100
    },
    {
      "midi": 87,
      "hit": false,
      "t": 76829.13000000018,
      "d": 121.95100000000093,
      "v": 100
    },
    {
      "midi": 82,
      "hit": false,
      "t": 76829.13000000018,
      "d": 121.95100000000093,
      "v": 100
    },
    {
      "midi": 54,
      "hit": false,
      "t": 76829.13000000021,
      "d": 1.0162583333294606,
      "v": 60
    },
    {
      "midi": 82,
      "hit": false,
      "t": 76829.13000000024,
      "d": 121.95100000000093,
      "v": 100
    },
    {
      "midi": 72,
      "hit": false,
      "t": 76829.13000000032,
      "d": 121.95100000000093,
      "v": 100
    },
    {
      "midi": 67,
      "hit": false,
      "t": 76829.13000000032,
      "d": 121.95100000000093,
      "v": 100
    },
    {
      "midi": 63,
      "hit": false,
      "t": 76829.13000000032,
      "d": 121.95100000000093,
      "v": 100
    },
    {
      "midi": 46,
      "hit": false,
      "t": 76829.13000000038,
      "d": 1.0162583333294606,
      "v": 100
    },
    {
      "midi": 72,
      "hit": false,
      "t": 76829.13000000358,
      "d": 60.975500000000466,
      "v": 100
    },
    {
      "midi": 67,
      "hit": false,
      "t": 76829.13000000358,
      "d": 60.975500000000466,
      "v": 100
    },
    {
      "midi": 63,
      "hit": false,
      "t": 76829.13000000358,
      "d": 60.975500000000466,
      "v": 100
    },
    {
      "midi": 84,
      "hit": false,
      "t": 76951.08099999993,
      "d": 243.90200000000186,
      "v": 100
    },
    {
      "midi": 80,
      "hit": false,
      "t": 76951.08099999993,
      "d": 243.90200000000186,
      "v": 100
    },
    {
      "midi": 75,
      "hit": false,
      "t": 76951.08099999993,
      "d": 243.90200000000186,
      "v": 100
    },
    {
      "midi": 32,
      "hit": false,
      "t": 76951.08100000008,
      "d": 243.90200000000186,
      "v": 100
    },
    {
      "midi": 84,
      "hit": false,
      "t": 76951.08100000018,
      "d": 365.8530000000028,
      "v": 100
    },
    {
      "midi": 80,
      "hit": false,
      "t": 76951.08100000018,
      "d": 365.8530000000028,
      "v": 100
    },
    {
      "midi": 54,
      "hit": false,
      "t": 76951.08100000021,
      "d": 1.0162583333294606,
      "v": 60
    },
    {
      "midi": 82,
      "hit": false,
      "t": 76951.08100000024,
      "d": 121.95100000000093,
      "v": 100
    },
    {
      "midi": 44,
      "hit": false,
      "t": 76951.08100000038,
      "d": 1.0162583333294606,
      "v": 100
    },
    {
      "midi": 72,
      "hit": false,
      "t": 76951.08100000359,
      "d": 60.975500000000466,
      "v": 100
    },
    {
      "midi": 67,
      "hit": false,
      "t": 76951.08100000359,
      "d": 60.975500000000466,
      "v": 100
    },
    {
      "midi": 63,
      "hit": false,
      "t": 76951.08100000359,
      "d": 60.975500000000466,
      "v": 100
    },
    {
      "midi": 54,
      "hit": false,
      "t": 77073.03200000021,
      "d": 1.0162583333294606,
      "v": 80
    },
    {
      "midi": 84,
      "hit": false,
      "t": 77073.03200000024,
      "d": 121.95100000000093,
      "v": 100
    },
    {
      "midi": 44,
      "hit": false,
      "t": 77073.03200000027,
      "d": 975.6079999999929,
      "v": 100
    },
    {
      "midi": 51,
      "hit": false,
      "t": 77073.03200000027,
      "d": 975.6079999999929,
      "v": 100
    },
    {
      "midi": 68,
      "hit": false,
      "t": 77073.03200000033,
      "d": 121.95100000000093,
      "v": 100
    },
    {
      "midi": 63,
      "hit": false,
      "t": 77073.03200000033,
      "d": 121.95100000000093,
      "v": 100
    },
    {
      "midi": 60,
      "hit": false,
      "t": 77073.03200000033,
      "d": 121.95100000000093,
      "v": 100
    },
    {
      "midi": 33,
      "hit": false,
      "t": 77073.03200000038,
      "d": 1.0162583333294606,
      "v": 127
    },
    {
      "midi": 42,
      "hit": false,
      "t": 77073.03200000038,
      "d": 1.0162583333294606,
      "v": 100
    },
    {
      "midi": 68,
      "hit": false,
      "t": 77073.03200000359,
      "d": 60.975500000145985,
      "v": 100
    },
    {
      "midi": 63,
      "hit": false,
      "t": 77073.03200000359,
      "d": 60.975500000145985,
      "v": 100
    },
    {
      "midi": 60,
      "hit": false,
      "t": 77073.03200000359,
      "d": 60.975500000145985,
      "v": 100
    },
    {
      "midi": 84,
      "hit": false,
      "t": 77194.98299999993,
      "d": 121.95100000000093,
      "v": 100
    },
    {
      "midi": 80,
      "hit": false,
      "t": 77194.98299999993,
      "d": 121.95100000000093,
      "v": 100
    },
    {
      "midi": 75,
      "hit": false,
      "t": 77194.98299999993,
      "d": 121.95100000000093,
      "v": 100
    },
    {
      "midi": 32,
      "hit": false,
      "t": 77194.98300000008,
      "d": 121.95100000000093,
      "v": 100
    },
    {
      "midi": 54,
      "hit": false,
      "t": 77194.98300000021,
      "d": 1.0162583333294606,
      "v": 60
    },
    {
      "midi": 84,
      "hit": false,
      "t": 77194.98300000024,
      "d": 121.95100000000093,
      "v": 100
    },
    {
      "midi": 68,
      "hit": false,
      "t": 77194.98300000033,
      "d": 121.95100000000093,
      "v": 100
    },
    {
      "midi": 63,
      "hit": false,
      "t": 77194.98300000033,
      "d": 121.95100000000093,
      "v": 100
    },
    {
      "midi": 60,
      "hit": false,
      "t": 77194.98300000033,
      "d": 121.95100000000093,
      "v": 100
    },
    {
      "midi": 68,
      "hit": false,
      "t": 77194.98300000376,
      "d": 60.97550000001502,
      "v": 100
    },
    {
      "midi": 63,
      "hit": false,
      "t": 77194.98300000376,
      "d": 60.97550000001502,
      "v": 100
    },
    {
      "midi": 60,
      "hit": false,
      "t": 77194.98300000376,
      "d": 60.97550000001502,
      "v": 100
    },
    {
      "midi": 84,
      "hit": false,
      "t": 77316.93399999994,
      "d": 243.90200000000186,
      "v": 100
    },
    {
      "midi": 80,
      "hit": false,
      "t": 77316.93399999994,
      "d": 243.90200000000186,
      "v": 100
    },
    {
      "midi": 75,
      "hit": false,
      "t": 77316.93399999994,
      "d": 243.90200000000186,
      "v": 100
    },
    {
      "midi": 32,
      "hit": false,
      "t": 77316.93400000008,
      "d": 243.90200000000186,
      "v": 100
    },
    {
      "midi": 54,
      "hit": false,
      "t": 77316.93400000021,
      "d": 1.0162583333294606,
      "v": 60
    },
    {
      "midi": 80,
      "hit": false,
      "t": 77316.93400000024,
      "d": 121.95100000000093,
      "v": 100
    },
    {
      "midi": 46,
      "hit": false,
      "t": 77316.93400000039,
      "d": 1.0162583333294606,
      "v": 100
    },
    {
      "midi": 68,
      "hit": false,
      "t": 77316.93400000391,
      "d": 60.975500000000466,
      "v": 100
    },
    {
      "midi": 63,
      "hit": false,
      "t": 77316.93400000391,
      "d": 60.975500000000466,
      "v": 100
    },
    {
      "midi": 60,
      "hit": false,
      "t": 77316.93400000391,
      "d": 60.975500000000466,
      "v": 100
    },
    {
      "midi": 54,
      "hit": false,
      "t": 77438.88500000021,
      "d": 1.0162583333294606,
      "v": 60
    },
    {
      "midi": 80,
      "hit": false,
      "t": 77438.88500000024,
      "d": 121.95100000000093,
      "v": 100
    },
    {
      "midi": 68,
      "hit": false,
      "t": 77438.88500000033,
      "d": 121.95100000000093,
      "v": 100
    },
    {
      "midi": 63,
      "hit": false,
      "t": 77438.88500000033,
      "d": 121.95100000000093,
      "v": 100
    },
    {
      "midi": 60,
      "hit": false,
      "t": 77438.88500000033,
      "d": 121.95100000000093,
      "v": 100
    },
    {
      "midi": 44,
      "hit": false,
      "t": 77438.88500000039,
      "d": 1.0162583333294606,
      "v": 100
    },
    {
      "midi": 68,
      "hit": false,
      "t": 77438.88500000391,
      "d": 60.975500000000466,
      "v": 100
    },
    {
      "midi": 63,
      "hit": false,
      "t": 77438.88500000391,
      "d": 60.975500000000466,
      "v": 100
    },
    {
      "midi": 60,
      "hit": false,
      "t": 77438.88500000391,
      "d": 60.975500000000466,
      "v": 100
    },
    {
      "midi": 84,
      "hit": false,
      "t": 77560.83599999994,
      "d": 243.90200000000186,
      "v": 100
    },
    {
      "midi": 80,
      "hit": false,
      "t": 77560.83599999994,
      "d": 243.90200000000186,
      "v": 100
    },
    {
      "midi": 75,
      "hit": false,
      "t": 77560.83599999994,
      "d": 243.90200000000186,
      "v": 100
    },
    {
      "midi": 32,
      "hit": false,
      "t": 77560.83600000008,
      "d": 243.90200000000186,
      "v": 100
    },
    {
      "midi": 84,
      "hit": false,
      "t": 77560.83600000018,
      "d": 243.90200000000186,
      "v": 100
    },
    {
      "midi": 82,
      "hit": false,
      "t": 77560.83600000018,
      "d": 243.90200000000186,
      "v": 100
    },
    {
      "midi": 54,
      "hit": false,
      "t": 77560.83600000021,
      "d": 1.0162583333294606,
      "v": 80
    },
    {
      "midi": 75,
      "hit": false,
      "t": 77560.83600000024,
      "d": 121.95100000000093,
      "v": 100
    },
    {
      "midi": 33,
      "hit": false,
      "t": 77560.83600000039,
      "d": 1.0162583333294606,
      "v": 127
    },
    {
      "midi": 40,
      "hit": false,
      "t": 77560.83600000039,
      "d": 1.0162583333294606,
      "v": 100
    },
    {
      "midi": 46,
      "hit": false,
      "t": 77560.83600000039,
      "d": 1.0162583333294606,
      "v": 100
    },
    {
      "midi": 68,
      "hit": false,
      "t": 77560.83600000391,
      "d": 243.9020000002929,
      "v": 100
    },
    {
      "midi": 63,
      "hit": false,
      "t": 77560.83600000391,
      "d": 243.9020000002929,
      "v": 100
    },
    {
      "midi": 60,
      "hit": false,
      "t": 77560.83600000391,
      "d": 243.9020000002929,
      "v": 100
    },
    {
      "midi": 54,
      "hit": false,
      "t": 77682.78700000021,
      "d": 1.0162583333294606,
      "v": 60
    },
    {
      "midi": 75,
      "hit": false,
      "t": 77682.78700000024,
      "d": 121.95100000000093,
      "v": 100
    },
    {
      "midi": 44,
      "hit": false,
      "t": 77682.78700000039,
      "d": 1.0162583333294606,
      "v": 100
    },
    {
      "midi": 84,
      "hit": false,
      "t": 77804.73799999994,
      "d": 243.90200000000186,
      "v": 100
    },
    {
      "midi": 80,
      "hit": false,
      "t": 77804.73799999994,
      "d": 243.90200000000186,
      "v": 100
    },
    {
      "midi": 75,
      "hit": false,
      "t": 77804.73799999994,
      "d": 243.90200000000186,
      "v": 100
    },
    {
      "midi": 32,
      "hit": false,
      "t": 77804.73800000008,
      "d": 243.90200000000186,
      "v": 100
    },
    {
      "midi": 87,
      "hit": false,
      "t": 77804.73800000019,
      "d": 243.90200000000186,
      "v": 100
    },
    {
      "midi": 84,
      "hit": false,
      "t": 77804.73800000019,
      "d": 243.90200000000186,
      "v": 100
    },
    {
      "midi": 54,
      "hit": false,
      "t": 77804.73800000022,
      "d": 1.0162583333294606,
      "v": 60
    },
    {
      "midi": 72,
      "hit": false,
      "t": 77804.73800000024,
      "d": 121.95100000000093,
      "v": 100
    },
    {
      "midi": 40,
      "hit": false,
      "t": 77804.73800000039,
      "d": 1.0162583333294606,
      "v": 40
    },
    {
      "midi": 46,
      "hit": false,
      "t": 77804.73800000039,
      "d": 1.0162583333294606,
      "v": 100
    },
    {
      "midi": 68,
      "hit": false,
      "t": 77804.7380000042,
      "d": 60.975500000000466,
      "v": 100
    },
    {
      "midi": 63,
      "hit": false,
      "t": 77804.7380000042,
      "d": 60.975500000000466,
      "v": 100
    },
    {
      "midi": 60,
      "hit": false,
      "t": 77804.7380000042,
      "d": 60.975500000000466,
      "v": 100
    },
    {
      "midi": 54,
      "hit": false,
      "t": 77926.68900000022,
      "d": 1.0162583333294606,
      "v": 60
    },
    {
      "midi": 72,
      "hit": false,
      "t": 77926.68900000025,
      "d": 121.95100000000093,
      "v": 100
    },
    {
      "midi": 40,
      "hit": false,
      "t": 77926.68900000039,
      "d": 1.0162583333294606,
      "v": 100
    },
    {
      "midi": 44,
      "hit": false,
      "t": 77926.68900000039,
      "d": 1.0162583333294606,
      "v": 100
    },
    {
      "midi": 68,
      "hit": false,
      "t": 77926.6890000042,
      "d": 60.975500000000466,
      "v": 100
    },
    {
      "midi": 63,
      "hit": false,
      "t": 77926.6890000042,
      "d": 60.975500000000466,
      "v": 100
    },
    {
      "midi": 60,
      "hit": false,
      "t": 77926.6890000042,
      "d": 60.975500000000466,
      "v": 100
    },
    {
      "midi": 86,
      "hit": false,
      "t": 78048.63999999994,
      "d": 243.90200000000186,
      "v": 100
    },
    {
      "midi": 82,
      "hit": false,
      "t": 78048.63999999994,
      "d": 243.90200000000186,
      "v": 100
    },
    {
      "midi": 77,
      "hit": false,
      "t": 78048.63999999994,
      "d": 243.90200000000186,
      "v": 100
    },
    {
      "midi": 34,
      "hit": false,
      "t": 78048.64000000009,
      "d": 243.90200000000186,
      "v": 100
    },
    {
      "midi": 86,
      "hit": false,
      "t": 78048.64000000019,
      "d": 243.90200000000186,
      "v": 100
    },
    {
      "midi": 82,
      "hit": false,
      "t": 78048.64000000019,
      "d": 243.90200000000186,
      "v": 100
    },
    {
      "midi": 54,
      "hit": false,
      "t": 78048.64000000022,
      "d": 1.0162583333294606,
      "v": 80
    },
    {
      "midi": 70,
      "hit": false,
      "t": 78048.64000000025,
      "d": 121.95100000000093,
      "v": 100
    },
    {
      "midi": 46,
      "hit": false,
      "t": 78048.64000000026,
      "d": 975.6079999999929,
      "v": 100
    },
    {
      "midi": 53,
      "hit": false,
      "t": 78048.64000000026,
      "d": 975.6079999999929,
      "v": 100
    },
    {
      "midi": 33,
      "hit": false,
      "t": 78048.64000000039,
      "d": 1.0162583333294606,
      "v": 127
    },
    {
      "midi": 42,
      "hit": false,
      "t": 78048.64000000039,
      "d": 1.0162583333294606,
      "v": 100
    },
    {
      "midi": 70,
      "hit": false,
      "t": 78048.6400000042,
      "d": 487.8040000002802,
      "v": 100
    },
    {
      "midi": 65,
      "hit": false,
      "t": 78048.6400000042,
      "d": 487.8040000002802,
      "v": 100
    },
    {
      "midi": 62,
      "hit": false,
      "t": 78048.6400000042,
      "d": 487.8040000002802,
      "v": 100
    },
    {
      "midi": 54,
      "hit": false,
      "t": 78170.59100000022,
      "d": 1.0162583333294606,
      "v": 60
    },
    {
      "midi": 70,
      "hit": false,
      "t": 78170.59100000025,
      "d": 121.95100000000093,
      "v": 100
    },
    {
      "midi": 70,
      "hit": false,
      "t": 78170.59100000034,
      "d": 121.95100000000093,
      "v": 100
    },
    {
      "midi": 65,
      "hit": false,
      "t": 78170.59100000034,
      "d": 121.95100000000093,
      "v": 100
    },
    {
      "midi": 62,
      "hit": false,
      "t": 78170.59100000034,
      "d": 121.95100000000093,
      "v": 100
    },
    {
      "midi": 34,
      "hit": false,
      "t": 78292.54200000009,
      "d": 243.90200000000186,
      "v": 100
    },
    {
      "midi": 82,
      "hit": false,
      "t": 78292.54200000019,
      "d": 121.95100000000093,
      "v": 100
    },
    {
      "midi": 79,
      "hit": false,
      "t": 78292.54200000019,
      "d": 121.95100000000093,
      "v": 100
    },
    {
      "midi": 54,
      "hit": false,
      "t": 78292.54200000022,
      "d": 1.0162583333294606,
      "v": 60
    },
    {
      "midi": 74,
      "hit": false,
      "t": 78292.54200000025,
      "d": 121.95100000000093,
      "v": 100
    },
    {
      "midi": 70,
      "hit": false,
      "t": 78292.54200000034,
      "d": 121.95100000000093,
      "v": 100
    },
    {
      "midi": 65,
      "hit": false,
      "t": 78292.54200000034,
      "d": 121.95100000000093,
      "v": 100
    },
    {
      "midi": 62,
      "hit": false,
      "t": 78292.54200000034,
      "d": 121.95100000000093,
      "v": 100
    },
    {
      "midi": 46,
      "hit": false,
      "t": 78292.5420000004,
      "d": 1.0162583333294606,
      "v": 100
    },
    {
      "midi": 54,
      "hit": false,
      "t": 78414.49300000022,
      "d": 1.0162583333294606,
      "v": 60
    },
    {
      "midi": 74,
      "hit": false,
      "t": 78414.49300000025,
      "d": 121.95100000000093,
      "v": 100
    },
    {
      "midi": 44,
      "hit": false,
      "t": 78414.4930000004,
      "d": 1.0162583333294606,
      "v": 100
    },
    {
      "midi": 82,
      "hit": false,
      "t": 78536.44399999994,
      "d": 243.90200000000186,
      "v": 100
    },
    {
      "midi": 77,
      "hit": false,
      "t": 78536.44399999994,
      "d": 243.90200000000186,
      "v": 100
    },
    {
      "midi": 34,
      "hit": false,
      "t": 78536.44400000009,
      "d": 243.90200000000186,
      "v": 100
    },
    {
      "midi": 82,
      "hit": false,
      "t": 78536.44400000019,
      "d": 243.90200000000186,
      "v": 100
    },
    {
      "midi": 79,
      "hit": false,
      "t": 78536.44400000019,
      "d": 243.90200000000186,
      "v": 100
    },
    {
      "midi": 54,
      "hit": false,
      "t": 78536.44400000022,
      "d": 1.0162583333294606,
      "v": 80
    },
    {
      "midi": 70,
      "hit": false,
      "t": 78536.44400000025,
      "d": 121.95100000000093,
      "v": 100
    },
    {
      "midi": 70,
      "hit": false,
      "t": 78536.44400000034,
      "d": 121.95100000000093,
      "v": 100
    },
    {
      "midi": 65,
      "hit": false,
      "t": 78536.44400000034,
      "d": 121.95100000000093,
      "v": 100
    },
    {
      "midi": 62,
      "hit": false,
      "t": 78536.44400000034,
      "d": 121.95100000000093,
      "v": 100
    },
    {
      "midi": 33,
      "hit": false,
      "t": 78536.4440000004,
      "d": 1.0162583333294606,
      "v": 127
    },
    {
      "midi": 40,
      "hit": false,
      "t": 78536.4440000004,
      "d": 1.0162583333294606,
      "v": 100
    },
    {
      "midi": 46,
      "hit": false,
      "t": 78536.4440000004,
      "d": 1.0162583333294606,
      "v": 100
    },
    {
      "midi": 70,
      "hit": false,
      "t": 78536.44400000449,
      "d": 60.975500000145985,
      "v": 100
    },
    {
      "midi": 65,
      "hit": false,
      "t": 78536.44400000449,
      "d": 60.975500000145985,
      "v": 100
    },
    {
      "midi": 62,
      "hit": false,
      "t": 78536.44400000449,
      "d": 60.975500000145985,
      "v": 100
    },
    {
      "midi": 54,
      "hit": false,
      "t": 78658.39500000022,
      "d": 1.0162583333294606,
      "v": 60
    },
    {
      "midi": 70,
      "hit": false,
      "t": 78658.39500000025,
      "d": 121.95100000000093,
      "v": 100
    },
    {
      "midi": 44,
      "hit": false,
      "t": 78658.3950000004,
      "d": 1.0162583333294606,
      "v": 100
    },
    {
      "midi": 70,
      "hit": false,
      "t": 78658.39500000466,
      "d": 60.97550000001502,
      "v": 100
    },
    {
      "midi": 65,
      "hit": false,
      "t": 78658.39500000466,
      "d": 60.97550000001502,
      "v": 100
    },
    {
      "midi": 62,
      "hit": false,
      "t": 78658.39500000466,
      "d": 60.97550000001502,
      "v": 100
    },
    {
      "midi": 77,
      "hit": false,
      "t": 78780.34599999995,
      "d": 40.650333333338494,
      "v": 100
    },
    {
      "midi": 82,
      "hit": false,
      "t": 78780.34599999995,
      "d": 40.650333333338494,
      "v": 100
    },
    {
      "midi": 34,
      "hit": false,
      "t": 78780.34600000009,
      "d": 71.13808333333873,
      "v": 100
    },
    {
      "midi": 79,
      "hit": false,
      "t": 78780.3460000002,
      "d": 121.95100000000093,
      "v": 100
    },
    {
      "midi": 75,
      "hit": false,
      "t": 78780.3460000002,
      "d": 121.95100000000093,
      "v": 100
    },
    {
      "midi": 54,
      "hit": false,
      "t": 78780.34600000022,
      "d": 1.0162583333294606,
      "v": 60
    },
    {
      "midi": 79,
      "hit": false,
      "t": 78780.34600000025,
      "d": 121.95100000000093,
      "v": 100
    },
    {
      "midi": 70,
      "hit": false,
      "t": 78780.34600000034,
      "d": 121.95100000000093,
      "v": 100
    },
    {
      "midi": 65,
      "hit": false,
      "t": 78780.34600000034,
      "d": 121.95100000000093,
      "v": 100
    },
    {
      "midi": 62,
      "hit": false,
      "t": 78780.34600000034,
      "d": 121.95100000000093,
      "v": 100
    },
    {
      "midi": 46,
      "hit": false,
      "t": 78780.3460000004,
      "d": 1.0162583333294606,
      "v": 100
    },
    {
      "midi": 70,
      "hit": false,
      "t": 78780.3460000048,
      "d": 60.975500000000466,
      "v": 100
    },
    {
      "midi": 65,
      "hit": false,
      "t": 78780.3460000048,
      "d": 60.975500000000466,
      "v": 100
    },
    {
      "midi": 62,
      "hit": false,
      "t": 78780.3460000048,
      "d": 60.975500000000466,
      "v": 100
    },
    {
      "midi": 82,
      "hit": false,
      "t": 78902.29699999995,
      "d": 243.90200000000186,
      "v": 100
    },
    {
      "midi": 77,
      "hit": false,
      "t": 78902.29699999995,
      "d": 243.90200000000186,
      "v": 100
    },
    {
      "midi": 74,
      "hit": false,
      "t": 78902.29699999995,
      "d": 325.2026666666643,
      "v": 100
    },
    {
      "midi": 31,
      "hit": false,
      "t": 78902.2970000001,
      "d": 243.90200000000186,
      "v": 100
    },
    {
      "midi": 82,
      "hit": false,
      "t": 78902.2970000002,
      "d": 487.8040000000037,
      "v": 100
    },
    {
      "midi": 79,
      "hit": false,
      "t": 78902.2970000002,
      "d": 487.8040000000037,
      "v": 100
    },
    {
      "midi": 54,
      "hit": false,
      "t": 78902.29700000022,
      "d": 1.0162583333294606,
      "v": 60
    },
    {
      "midi": 79,
      "hit": false,
      "t": 78902.29700000025,
      "d": 121.95100000000093,
      "v": 100
    },
    {
      "midi": 44,
      "hit": false,
      "t": 78902.2970000004,
      "d": 1.0162583333294606,
      "v": 100
    },
    {
      "midi": 70,
      "hit": false,
      "t": 78902.29700000481,
      "d": 60.975500000000466,
      "v": 100
    },
    {
      "midi": 65,
      "hit": false,
      "t": 78902.29700000481,
      "d": 60.975500000000466,
      "v": 100
    },
    {
      "midi": 62,
      "hit": false,
      "t": 78902.29700000481,
      "d": 60.975500000000466,
      "v": 100
    },
    {
      "midi": 54,
      "hit": false,
      "t": 79024.24800000023,
      "d": 1.0162583333294606,
      "v": 80
    },
    {
      "midi": 50,
      "hit": false,
      "t": 79024.24800000025,
      "d": 975.6079999999929,
      "v": 100
    },
    {
      "midi": 43,
      "hit": false,
      "t": 79024.24800000025,
      "d": 975.6079999999929,
      "v": 100
    },
    {
      "midi": 79,
      "hit": false,
      "t": 79024.24800000025,
      "d": 121.95100000000093,
      "v": 100
    },
    {
      "midi": 67,
      "hit": false,
      "t": 79024.24800000034,
      "d": 121.95100000000093,
      "v": 100
    },
    {
      "midi": 63,
      "hit": false,
      "t": 79024.24800000034,
      "d": 121.95100000000093,
      "v": 100
    },
    {
      "midi": 58,
      "hit": false,
      "t": 79024.24800000034,
      "d": 121.95100000000093,
      "v": 100
    },
    {
      "midi": 33,
      "hit": false,
      "t": 79024.2480000004,
      "d": 1.0162583333294606,
      "v": 127
    },
    {
      "midi": 42,
      "hit": false,
      "t": 79024.2480000004,
      "d": 1.0162583333294606,
      "v": 100
    },
    {
      "midi": 67,
      "hit": false,
      "t": 79024.24800000481,
      "d": 60.975500000145985,
      "v": 100
    },
    {
      "midi": 62,
      "hit": false,
      "t": 79024.24800000481,
      "d": 60.975500000145985,
      "v": 100
    },
    {
      "midi": 58,
      "hit": false,
      "t": 79024.24800000481,
      "d": 60.975500000145985,
      "v": 100
    },
    {
      "midi": 31,
      "hit": false,
      "t": 79146.1990000001,
      "d": 121.95100000000093,
      "v": 100
    },
    {
      "midi": 54,
      "hit": false,
      "t": 79146.19900000023,
      "d": 1.0162583333294606,
      "v": 60
    },
    {
      "midi": 79,
      "hit": false,
      "t": 79146.19900000026,
      "d": 121.95100000000093,
      "v": 100
    },
    {
      "midi": 67,
      "hit": false,
      "t": 79146.19900000034,
      "d": 121.95100000000093,
      "v": 100
    },
    {
      "midi": 63,
      "hit": false,
      "t": 79146.19900000034,
      "d": 121.95100000000093,
      "v": 100
    },
    {
      "midi": 58,
      "hit": false,
      "t": 79146.19900000034,
      "d": 121.95100000000093,
      "v": 100
    },
    {
      "midi": 67,
      "hit": false,
      "t": 79146.19900000498,
      "d": 60.97550000001502,
      "v": 100
    },
    {
      "midi": 62,
      "hit": false,
      "t": 79146.19900000498,
      "d": 60.97550000001502,
      "v": 100
    },
    {
      "midi": 58,
      "hit": false,
      "t": 79146.19900000498,
      "d": 60.97550000001502,
      "v": 100
    },
    {
      "midi": 74,
      "hit": false,
      "t": 79268.14999999995,
      "d": 243.90200000000186,
      "v": 100
    },
    {
      "midi": 82,
      "hit": false,
      "t": 79268.14999999995,
      "d": 243.90200000000186,
      "v": 100
    },
    {
      "midi": 77,
      "hit": false,
      "t": 79268.14999999995,
      "d": 243.90200000000186,
      "v": 100
    },
    {
      "midi": 31,
      "hit": false,
      "t": 79268.1500000001,
      "d": 243.90200000000186,
      "v": 100
    },
    {
      "midi": 54,
      "hit": false,
      "t": 79268.15000000023,
      "d": 1.0162583333294606,
      "v": 60
    },
    {
      "midi": 79,
      "hit": false,
      "t": 79268.15000000026,
      "d": 121.95100000000093,
      "v": 100
    },
    {
      "midi": 46,
      "hit": false,
      "t": 79268.1500000004,
      "d": 1.0162583333294606,
      "v": 100
    },
    {
      "midi": 67,
      "hit": false,
      "t": 79268.15000000513,
      "d": 60.975500000000466,
      "v": 100
    },
    {
      "midi": 62,
      "hit": false,
      "t": 79268.15000000513,
      "d": 60.975500000000466,
      "v": 100
    },
    {
      "midi": 58,
      "hit": false,
      "t": 79268.15000000513,
      "d": 60.975500000000466,
      "v": 100
    },
    {
      "midi": 54,
      "hit": false,
      "t": 79390.10100000023,
      "d": 1.0162583333294606,
      "v": 60
    },
    {
      "midi": 79,
      "hit": false,
      "t": 79390.10100000026,
      "d": 121.95100000000093,
      "v": 100
    },
    {
      "midi": 67,
      "hit": false,
      "t": 79390.10100000034,
      "d": 121.95100000000093,
      "v": 100
    },
    {
      "midi": 63,
      "hit": false,
      "t": 79390.10100000034,
      "d": 121.95100000000093,
      "v": 100
    },
    {
      "midi": 58,
      "hit": false,
      "t": 79390.10100000034,
      "d": 121.95100000000093,
      "v": 100
    },
    {
      "midi": 44,
      "hit": false,
      "t": 79390.1010000004,
      "d": 1.0162583333294606,
      "v": 100
    },
    {
      "midi": 67,
      "hit": false,
      "t": 79390.10100000513,
      "d": 60.975500000000466,
      "v": 100
    },
    {
      "midi": 62,
      "hit": false,
      "t": 79390.10100000513,
      "d": 60.975500000000466,
      "v": 100
    },
    {
      "midi": 58,
      "hit": false,
      "t": 79390.10100000513,
      "d": 60.975500000000466,
      "v": 100
    },
    {
      "midi": 74,
      "hit": false,
      "t": 79512.05199999995,
      "d": 243.90200000000186,
      "v": 100
    },
    {
      "midi": 79,
      "hit": false,
      "t": 79512.05199999995,
      "d": 243.90200000000186,
      "v": 100
    },
    {
      "midi": 77,
      "hit": false,
      "t": 79512.05199999995,
      "d": 243.90200000000186,
      "v": 100
    },
    {
      "midi": 29,
      "hit": false,
      "t": 79512.0520000001,
      "d": 243.90200000000186,
      "v": 100
    },
    {
      "midi": 80,
      "hit": false,
      "t": 79512.0520000002,
      "d": 243.90200000000186,
      "v": 100
    },
    {
      "midi": 77,
      "hit": false,
      "t": 79512.0520000002,
      "d": 243.90200000000186,
      "v": 100
    },
    {
      "midi": 54,
      "hit": false,
      "t": 79512.05200000023,
      "d": 1.0162583333294606,
      "v": 80
    },
    {
      "midi": 74,
      "hit": false,
      "t": 79512.05200000026,
      "d": 121.95100000000093,
      "v": 100
    },
    {
      "midi": 33,
      "hit": false,
      "t": 79512.0520000004,
      "d": 1.0162583333294606,
      "v": 127
    },
    {
      "midi": 40,
      "hit": false,
      "t": 79512.0520000004,
      "d": 1.0162583333294606,
      "v": 100
    },
    {
      "midi": 46,
      "hit": false,
      "t": 79512.0520000004,
      "d": 1.0162583333294606,
      "v": 100
    },
    {
      "midi": 67,
      "hit": false,
      "t": 79512.05200000513,
      "d": 243.9020000002929,
      "v": 100
    },
    {
      "midi": 62,
      "hit": false,
      "t": 79512.05200000513,
      "d": 243.9020000002929,
      "v": 100
    },
    {
      "midi": 58,
      "hit": false,
      "t": 79512.05200000513,
      "d": 243.9020000002929,
      "v": 100
    },
    {
      "midi": 54,
      "hit": false,
      "t": 79634.00300000023,
      "d": 1.0162583333294606,
      "v": 60
    },
    {
      "midi": 74,
      "hit": false,
      "t": 79634.00300000026,
      "d": 121.95100000000093,
      "v": 100
    },
    {
      "midi": 44,
      "hit": false,
      "t": 79634.0030000004,
      "d": 1.0162583333294606,
      "v": 100
    },
    {
      "midi": 74,
      "hit": false,
      "t": 79755.95399999995,
      "d": 243.90200000000186,
      "v": 100
    },
    {
      "midi": 82,
      "hit": false,
      "t": 79755.95399999995,
      "d": 243.90200000000186,
      "v": 100
    },
    {
      "midi": 77,
      "hit": false,
      "t": 79755.95399999995,
      "d": 243.90200000000186,
      "v": 100
    },
    {
      "midi": 31,
      "hit": false,
      "t": 79755.9540000001,
      "d": 243.90200000000186,
      "v": 100
    },
    {
      "midi": 82,
      "hit": false,
      "t": 79755.9540000002,
      "d": 243.90200000000186,
      "v": 100
    },
    {
      "midi": 79,
      "hit": false,
      "t": 79755.9540000002,
      "d": 243.90200000000186,
      "v": 100
    },
    {
      "midi": 54,
      "hit": false,
      "t": 79755.95400000023,
      "d": 1.0162583333294606,
      "v": 60
    },
    {
      "midi": 79,
      "hit": false,
      "t": 79755.95400000026,
      "d": 121.95100000000093,
      "v": 100
    },
    {
      "midi": 40,
      "hit": false,
      "t": 79755.9540000004,
      "d": 1.0162583333294606,
      "v": 40
    },
    {
      "midi": 46,
      "hit": false,
      "t": 79755.9540000004,
      "d": 1.0162583333294606,
      "v": 100
    },
    {
      "midi": 67,
      "hit": false,
      "t": 79755.95400000543,
      "d": 60.975500000000466,
      "v": 100
    },
    {
      "midi": 62,
      "hit": false,
      "t": 79755.95400000543,
      "d": 60.975500000000466,
      "v": 100
    },
    {
      "midi": 58,
      "hit": false,
      "t": 79755.95400000543,
      "d": 60.975500000000466,
      "v": 100
    },
    {
      "midi": 54,
      "hit": false,
      "t": 79877.90500000023,
      "d": 1.0162583333294606,
      "v": 60
    },
    {
      "midi": 79,
      "hit": false,
      "t": 79877.90500000026,
      "d": 121.95100000000093,
      "v": 100
    },
    {
      "midi": 40,
      "hit": false,
      "t": 79877.9050000004,
      "d": 1.0162583333294606,
      "v": 100
    },
    {
      "midi": 44,
      "hit": false,
      "t": 79877.9050000004,
      "d": 1.0162583333294606,
      "v": 100
    },
    {
      "midi": 67,
      "hit": false,
      "t": 79877.90500000543,
      "d": 60.975500000000466,
      "v": 100
    },
    {
      "midi": 62,
      "hit": false,
      "t": 79877.90500000543,
      "d": 60.975500000000466,
      "v": 100
    },
    {
      "midi": 58,
      "hit": false,
      "t": 79877.90500000543,
      "d": 60.975500000000466,
      "v": 100
    },
    {
      "midi": 80,
      "hit": false,
      "t": 79999.85599999996,
      "d": 243.90200000000186,
      "v": 100
    },
    {
      "midi": 75,
      "hit": false,
      "t": 79999.85599999996,
      "d": 243.90200000000186,
      "v": 100
    },
    {
      "midi": 72,
      "hit": false,
      "t": 79999.85599999996,
      "d": 243.90200000000186,
      "v": 100
    },
    {
      "midi": 32,
      "hit": false,
      "t": 79999.8560000001,
      "d": 243.90200000000186,
      "v": 100
    },
    {
      "midi": 80,
      "hit": false,
      "t": 79999.8560000002,
      "d": 243.90200000000186,
      "v": 100
    },
    {
      "midi": 75,
      "hit": false,
      "t": 79999.8560000002,
      "d": 243.90200000000186,
      "v": 100
    },
    {
      "midi": 54,
      "hit": false,
      "t": 79999.85600000023,
      "d": 1.0162583333294606,
      "v": 80
    },
    {
      "midi": 44,
      "hit": false,
      "t": 79999.85600000025,
      "d": 975.6079999999929,
      "v": 100
    },
    {
      "midi": 51,
      "hit": false,
      "t": 79999.85600000025,
      "d": 975.6079999999929,
      "v": 100
    },
    {
      "midi": 72,
      "hit": false,
      "t": 79999.85600000026,
      "d": 121.95100000000093,
      "v": 100
    },
    {
      "midi": 33,
      "hit": false,
      "t": 79999.8560000004,
      "d": 1.0162583333294606,
      "v": 127
    },
    {
      "midi": 42,
      "hit": false,
      "t": 79999.8560000004,
      "d": 1.0162583333294606,
      "v": 100
    },
    {
      "midi": 68,
      "hit": false,
      "t": 79999.85600000543,
      "d": 487.8040000002802,
      "v": 100
    },
    {
      "midi": 63,
      "hit": false,
      "t": 79999.85600000543,
      "d": 487.8040000002802,
      "v": 100
    },
    {
      "midi": 60,
      "hit": false,
      "t": 79999.85600000543,
      "d": 487.8040000002802,
      "v": 100
    },
    {
      "midi": 54,
      "hit": false,
      "t": 80121.80700000023,
      "d": 1.0162583333294606,
      "v": 60
    },
    {
      "midi": 72,
      "hit": false,
      "t": 80121.80700000026,
      "d": 121.95100000000093,
      "v": 100
    },
    {
      "midi": 68,
      "hit": false,
      "t": 80121.80700000035,
      "d": 121.95100000000093,
      "v": 100
    },
    {
      "midi": 63,
      "hit": false,
      "t": 80121.80700000035,
      "d": 121.95100000000093,
      "v": 100
    },
    {
      "midi": 60,
      "hit": false,
      "t": 80121.80700000035,
      "d": 121.95100000000093,
      "v": 100
    },
    {
      "midi": 32,
      "hit": false,
      "t": 80243.7580000001,
      "d": 243.90200000000186,
      "v": 100
    },
    {
      "midi": 54,
      "hit": false,
      "t": 80243.75800000023,
      "d": 1.0162583333294606,
      "v": 60
    },
    {
      "midi": 68,
      "hit": false,
      "t": 80243.75800000026,
      "d": 121.95100000000093,
      "v": 100
    },
    {
      "midi": 68,
      "hit": false,
      "t": 80243.75800000035,
      "d": 121.95100000000093,
      "v": 100
    },
    {
      "midi": 63,
      "hit": false,
      "t": 80243.75800000035,
      "d": 121.95100000000093,
      "v": 100
    },
    {
      "midi": 60,
      "hit": false,
      "t": 80243.75800000035,
      "d": 121.95100000000093,
      "v": 100
    },
    {
      "midi": 46,
      "hit": false,
      "t": 80243.75800000041,
      "d": 1.0162583333294606,
      "v": 100
    },
    {
      "midi": 54,
      "hit": false,
      "t": 80365.70900000024,
      "d": 1.0162583333294606,
      "v": 60
    },
    {
      "midi": 68,
      "hit": false,
      "t": 80365.70900000026,
      "d": 121.95100000000093,
      "v": 100
    },
    {
      "midi": 44,
      "hit": false,
      "t": 80365.70900000041,
      "d": 1.0162583333294606,
      "v": 100
    },
    {
      "midi": 80,
      "hit": false,
      "t": 80487.65999999996,
      "d": 243.90200000000186,
      "v": 100
    },
    {
      "midi": 75,
      "hit": false,
      "t": 80487.65999999996,
      "d": 243.90200000000186,
      "v": 100
    },
    {
      "midi": 72,
      "hit": false,
      "t": 80487.65999999996,
      "d": 243.90200000000186,
      "v": 100
    },
    {
      "midi": 32,
      "hit": false,
      "t": 80487.6600000001,
      "d": 243.90200000000186,
      "v": 100
    },
    {
      "midi": 80,
      "hit": false,
      "t": 80487.6600000002,
      "d": 243.90200000000186,
      "v": 100
    },
    {
      "midi": 75,
      "hit": false,
      "t": 80487.6600000002,
      "d": 243.90200000000186,
      "v": 100
    },
    {
      "midi": 54,
      "hit": false,
      "t": 80487.66000000024,
      "d": 1.0162583333294606,
      "v": 80
    },
    {
      "midi": 72,
      "hit": false,
      "t": 80487.66000000027,
      "d": 121.95100000000093,
      "v": 100
    },
    {
      "midi": 68,
      "hit": false,
      "t": 80487.66000000035,
      "d": 121.95100000000093,
      "v": 100
    },
    {
      "midi": 63,
      "hit": false,
      "t": 80487.66000000035,
      "d": 121.95100000000093,
      "v": 100
    },
    {
      "midi": 60,
      "hit": false,
      "t": 80487.66000000035,
      "d": 121.95100000000093,
      "v": 100
    },
    {
      "midi": 33,
      "hit": false,
      "t": 80487.66000000041,
      "d": 1.0162583333294606,
      "v": 127
    },
    {
      "midi": 40,
      "hit": false,
      "t": 80487.66000000041,
      "d": 1.0162583333294606,
      "v": 100
    },
    {
      "midi": 46,
      "hit": false,
      "t": 80487.66000000041,
      "d": 1.0162583333294606,
      "v": 100
    },
    {
      "midi": 68,
      "hit": false,
      "t": 80487.66000000571,
      "d": 60.975500000145985,
      "v": 100
    },
    {
      "midi": 63,
      "hit": false,
      "t": 80487.66000000571,
      "d": 60.975500000145985,
      "v": 100
    },
    {
      "midi": 60,
      "hit": false,
      "t": 80487.66000000571,
      "d": 60.975500000145985,
      "v": 100
    },
    {
      "midi": 54,
      "hit": false,
      "t": 80609.61100000024,
      "d": 1.0162583333294606,
      "v": 60
    },
    {
      "midi": 72,
      "hit": false,
      "t": 80609.61100000027,
      "d": 121.95100000000093,
      "v": 100
    },
    {
      "midi": 44,
      "hit": false,
      "t": 80609.61100000041,
      "d": 1.0162583333294606,
      "v": 100
    },
    {
      "midi": 68,
      "hit": false,
      "t": 80609.61100000588,
      "d": 60.97550000001502,
      "v": 100
    },
    {
      "midi": 63,
      "hit": false,
      "t": 80609.61100000588,
      "d": 60.97550000001502,
      "v": 100
    },
    {
      "midi": 60,
      "hit": false,
      "t": 80609.61100000588,
      "d": 60.97550000001502,
      "v": 100
    },
    {
      "midi": 32,
      "hit": false,
      "t": 80731.5620000001,
      "d": 71.13808333333873,
      "v": 100
    },
    {
      "midi": 82,
      "hit": false,
      "t": 80731.56200000021,
      "d": 121.95100000000093,
      "v": 100
    },
    {
      "midi": 77,
      "hit": false,
      "t": 80731.56200000021,
      "d": 121.95100000000093,
      "v": 100
    },
    {
      "midi": 54,
      "hit": false,
      "t": 80731.56200000024,
      "d": 1.0162583333294606,
      "v": 60
    },
    {
      "midi": 77,
      "hit": false,
      "t": 80731.56200000027,
      "d": 121.95100000000093,
      "v": 100
    },
    {
      "midi": 68,
      "hit": false,
      "t": 80731.56200000035,
      "d": 121.95100000000093,
      "v": 100
    },
    {
      "midi": 63,
      "hit": false,
      "t": 80731.56200000035,
      "d": 121.95100000000093,
      "v": 100
    },
    {
      "midi": 60,
      "hit": false,
      "t": 80731.56200000035,
      "d": 121.95100000000093,
      "v": 100
    },
    {
      "midi": 46,
      "hit": false,
      "t": 80731.56200000041,
      "d": 1.0162583333294606,
      "v": 100
    },
    {
      "midi": 68,
      "hit": false,
      "t": 80731.56200000603,
      "d": 60.975500000000466,
      "v": 100
    },
    {
      "midi": 63,
      "hit": false,
      "t": 80731.56200000603,
      "d": 60.975500000000466,
      "v": 100
    },
    {
      "midi": 60,
      "hit": false,
      "t": 80731.56200000603,
      "d": 60.975500000000466,
      "v": 100
    },
    {
      "midi": 77,
      "hit": false,
      "t": 80853.51299999996,
      "d": 365.8530000000028,
      "v": 100
    },
    {
      "midi": 75,
      "hit": false,
      "t": 80853.51299999996,
      "d": 365.8530000000028,
      "v": 100
    },
    {
      "midi": 72,
      "hit": false,
      "t": 80853.51299999996,
      "d": 365.8530000000028,
      "v": 100
    },
    {
      "midi": 29,
      "hit": false,
      "t": 80853.51300000011,
      "d": 243.90200000000186,
      "v": 100
    },
    {
      "midi": 77,
      "hit": false,
      "t": 80853.51300000021,
      "d": 487.8040000000037,
      "v": 100
    },
    {
      "midi": 72,
      "hit": false,
      "t": 80853.51300000021,
      "d": 487.8040000000037,
      "v": 100
    },
    {
      "midi": 54,
      "hit": false,
      "t": 80853.51300000024,
      "d": 1.0162583333294606,
      "v": 60
    },
    {
      "midi": 77,
      "hit": false,
      "t": 80853.51300000027,
      "d": 121.95100000000093,
      "v": 100
    },
    {
      "midi": 44,
      "hit": false,
      "t": 80853.51300000041,
      "d": 1.0162583333294606,
      "v": 100
    },
    {
      "midi": 68,
      "hit": false,
      "t": 80853.51300000603,
      "d": 60.975500000000466,
      "v": 100
    },
    {
      "midi": 63,
      "hit": false,
      "t": 80853.51300000603,
      "d": 60.975500000000466,
      "v": 100
    },
    {
      "midi": 60,
      "hit": false,
      "t": 80853.51300000603,
      "d": 60.975500000000466,
      "v": 100
    },
    {
      "midi": 48,
      "hit": false,
      "t": 80975.46400000024,
      "d": 975.6079999999929,
      "v": 100
    },
    {
      "midi": 41,
      "hit": false,
      "t": 80975.46400000024,
      "d": 975.6079999999929,
      "v": 100
    },
    {
      "midi": 54,
      "hit": false,
      "t": 80975.46400000024,
      "d": 1.0162583333294606,
      "v": 80
    },
    {
      "midi": 77,
      "hit": false,
      "t": 80975.46400000027,
      "d": 121.95100000000093,
      "v": 100
    },
    {
      "midi": 68,
      "hit": false,
      "t": 80975.46400000036,
      "d": 121.95100000000093,
      "v": 100
    },
    {
      "midi": 63,
      "hit": false,
      "t": 80975.46400000036,
      "d": 121.95100000000093,
      "v": 100
    },
    {
      "midi": 60,
      "hit": false,
      "t": 80975.46400000036,
      "d": 121.95100000000093,
      "v": 100
    },
    {
      "midi": 33,
      "hit": false,
      "t": 80975.46400000041,
      "d": 1.0162583333294606,
      "v": 127
    },
    {
      "midi": 42,
      "hit": false,
      "t": 80975.46400000041,
      "d": 1.0162583333294606,
      "v": 100
    },
    {
      "midi": 68,
      "hit": false,
      "t": 80975.46400000603,
      "d": 60.975500000145985,
      "v": 100
    },
    {
      "midi": 63,
      "hit": false,
      "t": 80975.46400000603,
      "d": 60.975500000145985,
      "v": 100
    },
    {
      "midi": 60,
      "hit": false,
      "t": 80975.46400000603,
      "d": 60.975500000145985,
      "v": 100
    },
    {
      "midi": 29,
      "hit": false,
      "t": 81097.41500000011,
      "d": 121.95100000000093,
      "v": 100
    },
    {
      "midi": 54,
      "hit": false,
      "t": 81097.41500000024,
      "d": 1.0162583333294606,
      "v": 60
    },
    {
      "midi": 77,
      "hit": false,
      "t": 81097.41500000027,
      "d": 121.95100000000093,
      "v": 100
    },
    {
      "midi": 68,
      "hit": false,
      "t": 81097.41500000036,
      "d": 121.95100000000093,
      "v": 100
    },
    {
      "midi": 63,
      "hit": false,
      "t": 81097.41500000036,
      "d": 121.95100000000093,
      "v": 100
    },
    {
      "midi": 60,
      "hit": false,
      "t": 81097.41500000036,
      "d": 121.95100000000093,
      "v": 100
    },
    {
      "midi": 68,
      "hit": false,
      "t": 81097.4150000062,
      "d": 60.97550000001502,
      "v": 100
    },
    {
      "midi": 63,
      "hit": false,
      "t": 81097.4150000062,
      "d": 60.97550000001502,
      "v": 100
    },
    {
      "midi": 60,
      "hit": false,
      "t": 81097.4150000062,
      "d": 60.97550000001502,
      "v": 100
    },
    {
      "midi": 77,
      "hit": false,
      "t": 81219.36599999997,
      "d": 243.90200000000186,
      "v": 100
    },
    {
      "midi": 75,
      "hit": false,
      "t": 81219.36599999997,
      "d": 243.90200000000186,
      "v": 100
    },
    {
      "midi": 72,
      "hit": false,
      "t": 81219.36599999997,
      "d": 243.90200000000186,
      "v": 100
    },
    {
      "midi": 29,
      "hit": false,
      "t": 81219.36600000011,
      "d": 243.90200000000186,
      "v": 100
    },
    {
      "midi": 54,
      "hit": false,
      "t": 81219.36600000024,
      "d": 1.0162583333294606,
      "v": 60
    },
    {
      "midi": 77,
      "hit": false,
      "t": 81219.36600000027,
      "d": 121.95100000000093,
      "v": 100
    },
    {
      "midi": 46,
      "hit": false,
      "t": 81219.36600000042,
      "d": 1.0162583333294606,
      "v": 100
    },
    {
      "midi": 68,
      "hit": false,
      "t": 81219.36600000635,
      "d": 60.975500000000466,
      "v": 100
    },
    {
      "midi": 63,
      "hit": false,
      "t": 81219.36600000635,
      "d": 60.975500000000466,
      "v": 100
    },
    {
      "midi": 60,
      "hit": false,
      "t": 81219.36600000635,
      "d": 60.975500000000466,
      "v": 100
    },
    {
      "midi": 54,
      "hit": false,
      "t": 81341.31700000024,
      "d": 1.0162583333294606,
      "v": 60
    },
    {
      "midi": 77,
      "hit": false,
      "t": 81341.31700000027,
      "d": 121.95100000000093,
      "v": 100
    },
    {
      "midi": 68,
      "hit": false,
      "t": 81341.31700000036,
      "d": 121.95100000000093,
      "v": 100
    },
    {
      "midi": 63,
      "hit": false,
      "t": 81341.31700000036,
      "d": 121.95100000000093,
      "v": 100
    },
    {
      "midi": 60,
      "hit": false,
      "t": 81341.31700000036,
      "d": 121.95100000000093,
      "v": 100
    },
    {
      "midi": 44,
      "hit": false,
      "t": 81341.31700000042,
      "d": 1.0162583333294606,
      "v": 100
    },
    {
      "midi": 68,
      "hit": false,
      "t": 81341.31700000635,
      "d": 60.975500000000466,
      "v": 100
    },
    {
      "midi": 63,
      "hit": false,
      "t": 81341.31700000635,
      "d": 60.975500000000466,
      "v": 100
    },
    {
      "midi": 60,
      "hit": false,
      "t": 81341.31700000635,
      "d": 60.975500000000466,
      "v": 100
    },
    {
      "midi": 75,
      "hit": false,
      "t": 81463.26799999997,
      "d": 243.90200000000186,
      "v": 100
    },
    {
      "midi": 72,
      "hit": false,
      "t": 81463.26799999997,
      "d": 243.90200000000186,
      "v": 100
    },
    {
      "midi": 68,
      "hit": false,
      "t": 81463.26799999997,
      "d": 243.90200000000186,
      "v": 100
    },
    {
      "midi": 26,
      "hit": false,
      "t": 81463.26800000011,
      "d": 243.90200000000186,
      "v": 100
    },
    {
      "midi": 75,
      "hit": false,
      "t": 81463.26800000021,
      "d": 243.90200000000186,
      "v": 100
    },
    {
      "midi": 70,
      "hit": false,
      "t": 81463.26800000021,
      "d": 243.90200000000186,
      "v": 100
    },
    {
      "midi": 54,
      "hit": false,
      "t": 81463.26800000024,
      "d": 1.0162583333294606,
      "v": 80
    },
    {
      "midi": 72,
      "hit": false,
      "t": 81463.26800000027,
      "d": 121.95100000000093,
      "v": 100
    },
    {
      "midi": 33,
      "hit": false,
      "t": 81463.26800000042,
      "d": 1.0162583333294606,
      "v": 127
    },
    {
      "midi": 40,
      "hit": false,
      "t": 81463.26800000042,
      "d": 1.0162583333294606,
      "v": 100
    },
    {
      "midi": 46,
      "hit": false,
      "t": 81463.26800000042,
      "d": 1.0162583333294606,
      "v": 100
    },
    {
      "midi": 68,
      "hit": false,
      "t": 81463.26800000636,
      "d": 243.9020000002929,
      "v": 100
    },
    {
      "midi": 63,
      "hit": false,
      "t": 81463.26800000636,
      "d": 243.9020000002929,
      "v": 100
    },
    {
      "midi": 60,
      "hit": false,
      "t": 81463.26800000636,
      "d": 243.9020000002929,
      "v": 100
    },
    {
      "midi": 54,
      "hit": false,
      "t": 81585.21900000024,
      "d": 1.0162583333294606,
      "v": 60
    },
    {
      "midi": 72,
      "hit": false,
      "t": 81585.21900000027,
      "d": 121.95100000000093,
      "v": 100
    },
    {
      "midi": 44,
      "hit": false,
      "t": 81585.21900000042,
      "d": 1.0162583333294606,
      "v": 100
    },
    {
      "midi": 77,
      "hit": false,
      "t": 81707.16999999997,
      "d": 243.90200000000186,
      "v": 100
    },
    {
      "midi": 75,
      "hit": false,
      "t": 81707.16999999997,
      "d": 243.90200000000186,
      "v": 100
    },
    {
      "midi": 72,
      "hit": false,
      "t": 81707.16999999997,
      "d": 243.90200000000186,
      "v": 100
    },
    {
      "midi": 29,
      "hit": false,
      "t": 81707.17000000011,
      "d": 243.90200000000186,
      "v": 100
    },
    {
      "midi": 77,
      "hit": false,
      "t": 81707.17000000022,
      "d": 243.90200000000186,
      "v": 100
    },
    {
      "midi": 72,
      "hit": false,
      "t": 81707.17000000022,
      "d": 243.90200000000186,
      "v": 100
    },
    {
      "midi": 54,
      "hit": false,
      "t": 81707.17000000025,
      "d": 1.0162583333294606,
      "v": 60
    },
    {
      "midi": 77,
      "hit": false,
      "t": 81707.17000000027,
      "d": 121.95100000000093,
      "v": 100
    },
    {
      "midi": 40,
      "hit": false,
      "t": 81707.17000000042,
      "d": 1.0162583333294606,
      "v": 40
    },
    {
      "midi": 46,
      "hit": false,
      "t": 81707.17000000042,
      "d": 1.0162583333294606,
      "v": 100
    },
    {
      "midi": 68,
      "hit": false,
      "t": 81707.17000000665,
      "d": 60.975500000000466,
      "v": 100
    },
    {
      "midi": 63,
      "hit": false,
      "t": 81707.17000000665,
      "d": 60.975500000000466,
      "v": 100
    },
    {
      "midi": 60,
      "hit": false,
      "t": 81707.17000000665,
      "d": 60.975500000000466,
      "v": 100
    },
    {
      "midi": 54,
      "hit": false,
      "t": 81829.12100000025,
      "d": 1.0162583333294606,
      "v": 60
    },
    {
      "midi": 77,
      "hit": false,
      "t": 81829.12100000028,
      "d": 121.95100000000093,
      "v": 100
    },
    {
      "midi": 40,
      "hit": false,
      "t": 81829.12100000042,
      "d": 1.0162583333294606,
      "v": 100
    },
    {
      "midi": 44,
      "hit": false,
      "t": 81829.12100000042,
      "d": 1.0162583333294606,
      "v": 100
    },
    {
      "midi": 68,
      "hit": false,
      "t": 81829.12100000665,
      "d": 60.975500000000466,
      "v": 100
    },
    {
      "midi": 63,
      "hit": false,
      "t": 81829.12100000665,
      "d": 60.975500000000466,
      "v": 100
    },
    {
      "midi": 60,
      "hit": false,
      "t": 81829.12100000665,
      "d": 60.975500000000466,
      "v": 100
    },
    {
      "midi": 79,
      "hit": false,
      "t": 81951.07199999997,
      "d": 243.90200000000186,
      "v": 100
    },
    {
      "midi": 74,
      "hit": false,
      "t": 81951.07199999997,
      "d": 243.90200000000186,
      "v": 100
    },
    {
      "midi": 70,
      "hit": false,
      "t": 81951.07199999997,
      "d": 243.90200000000186,
      "v": 100
    },
    {
      "midi": 31,
      "hit": false,
      "t": 81951.07200000012,
      "d": 243.90200000000186,
      "v": 100
    },
    {
      "midi": 79,
      "hit": false,
      "t": 81951.07200000022,
      "d": 243.90200000000186,
      "v": 100
    },
    {
      "midi": 74,
      "hit": false,
      "t": 81951.07200000022,
      "d": 243.90200000000186,
      "v": 100
    },
    {
      "midi": 50,
      "hit": false,
      "t": 81951.07200000023,
      "d": 975.6079999999929,
      "v": 100
    },
    {
      "midi": 43,
      "hit": false,
      "t": 81951.07200000023,
      "d": 975.6079999999929,
      "v": 100
    },
    {
      "midi": 54,
      "hit": false,
      "t": 81951.07200000025,
      "d": 1.0162583333294606,
      "v": 80
    },
    {
      "midi": 67,
      "hit": false,
      "t": 81951.07200000028,
      "d": 121.95100000000093,
      "v": 100
    },
    {
      "midi": 33,
      "hit": false,
      "t": 81951.07200000042,
      "d": 1.0162583333294606,
      "v": 127
    },
    {
      "midi": 42,
      "hit": false,
      "t": 81951.07200000042,
      "d": 1.0162583333294606,
      "v": 100
    },
    {
      "midi": 67,
      "hit": false,
      "t": 81951.07200000665,
      "d": 487.8040000002802,
      "v": 100
    },
    {
      "midi": 62,
      "hit": false,
      "t": 81951.07200000665,
      "d": 487.8040000002802,
      "v": 100
    },
    {
      "midi": 58,
      "hit": false,
      "t": 81951.07200000665,
      "d": 487.8040000002802,
      "v": 100
    },
    {
      "midi": 54,
      "hit": false,
      "t": 82073.02300000025,
      "d": 1.0162583333294606,
      "v": 60
    },
    {
      "midi": 67,
      "hit": false,
      "t": 82073.02300000028,
      "d": 121.95100000000093,
      "v": 100
    },
    {
      "midi": 67,
      "hit": false,
      "t": 82073.02300000036,
      "d": 121.95100000000093,
      "v": 100
    },
    {
      "midi": 62,
      "hit": false,
      "t": 82073.02300000036,
      "d": 121.95100000000093,
      "v": 100
    },
    {
      "midi": 58,
      "hit": false,
      "t": 82073.02300000036,
      "d": 121.95100000000093,
      "v": 100
    },
    {
      "midi": 31,
      "hit": false,
      "t": 82194.97400000012,
      "d": 243.90200000000186,
      "v": 100
    },
    {
      "midi": 54,
      "hit": false,
      "t": 82194.97400000025,
      "d": 1.0162583333294606,
      "v": 60
    },
    {
      "midi": 70,
      "hit": false,
      "t": 82194.97400000028,
      "d": 121.95100000000093,
      "v": 100
    },
    {
      "midi": 67,
      "hit": false,
      "t": 82194.97400000037,
      "d": 121.95100000000093,
      "v": 100
    },
    {
      "midi": 62,
      "hit": false,
      "t": 82194.97400000037,
      "d": 121.95100000000093,
      "v": 100
    },
    {
      "midi": 58,
      "hit": false,
      "t": 82194.97400000037,
      "d": 121.95100000000093,
      "v": 100
    },
    {
      "midi": 46,
      "hit": false,
      "t": 82194.97400000042,
      "d": 1.0162583333294606,
      "v": 100
    },
    {
      "midi": 54,
      "hit": false,
      "t": 82316.92500000025,
      "d": 1.0162583333294606,
      "v": 60
    },
    {
      "midi": 70,
      "hit": false,
      "t": 82316.92500000028,
      "d": 121.95100000000093,
      "v": 100
    },
    {
      "midi": 44,
      "hit": false,
      "t": 82316.92500000042,
      "d": 1.0162583333294606,
      "v": 100
    },
    {
      "midi": 79,
      "hit": false,
      "t": 82438.87599999997,
      "d": 243.90200000000186,
      "v": 100
    },
    {
      "midi": 74,
      "hit": false,
      "t": 82438.87599999997,
      "d": 243.90200000000186,
      "v": 100
    },
    {
      "midi": 82,
      "hit": false,
      "t": 82438.87599999997,
      "d": 243.90200000000186,
      "v": 100
    },
    {
      "midi": 31,
      "hit": false,
      "t": 82438.87600000012,
      "d": 243.90200000000186,
      "v": 100
    },
    {
      "midi": 86,
      "hit": false,
      "t": 82438.87600000022,
      "d": 487.8040000000037,
      "v": 100
    },
    {
      "midi": 79,
      "hit": false,
      "t": 82438.87600000022,
      "d": 487.8040000000037,
      "v": 100
    },
    {
      "midi": 54,
      "hit": false,
      "t": 82438.87600000025,
      "d": 1.0162583333294606,
      "v": 80
    },
    {
      "midi": 74,
      "hit": false,
      "t": 82438.87600000028,
      "d": 121.95100000000093,
      "v": 100
    },
    {
      "midi": 67,
      "hit": false,
      "t": 82438.87600000037,
      "d": 121.95100000000093,
      "v": 100
    },
    {
      "midi": 62,
      "hit": false,
      "t": 82438.87600000037,
      "d": 121.95100000000093,
      "v": 100
    },
    {
      "midi": 58,
      "hit": false,
      "t": 82438.87600000037,
      "d": 121.95100000000093,
      "v": 100
    },
    {
      "midi": 33,
      "hit": false,
      "t": 82438.87600000043,
      "d": 1.0162583333294606,
      "v": 127
    },
    {
      "midi": 40,
      "hit": false,
      "t": 82438.87600000043,
      "d": 1.0162583333294606,
      "v": 100
    },
    {
      "midi": 46,
      "hit": false,
      "t": 82438.87600000043,
      "d": 1.0162583333294606,
      "v": 100
    },
    {
      "midi": 67,
      "hit": false,
      "t": 82438.87600000693,
      "d": 60.975500000145985,
      "v": 100
    },
    {
      "midi": 62,
      "hit": false,
      "t": 82438.87600000693,
      "d": 60.975500000145985,
      "v": 100
    },
    {
      "midi": 58,
      "hit": false,
      "t": 82438.87600000693,
      "d": 60.975500000145985,
      "v": 100
    },
    {
      "midi": 54,
      "hit": false,
      "t": 82560.82700000025,
      "d": 1.0162583333294606,
      "v": 60
    },
    {
      "midi": 74,
      "hit": false,
      "t": 82560.82700000028,
      "d": 121.95100000000093,
      "v": 100
    },
    {
      "midi": 44,
      "hit": false,
      "t": 82560.82700000043,
      "d": 1.0162583333294606,
      "v": 100
    },
    {
      "midi": 67,
      "hit": false,
      "t": 82560.8270000071,
      "d": 60.97550000001502,
      "v": 100
    },
    {
      "midi": 62,
      "hit": false,
      "t": 82560.8270000071,
      "d": 60.97550000001502,
      "v": 100
    },
    {
      "midi": 58,
      "hit": false,
      "t": 82560.8270000071,
      "d": 60.97550000001502,
      "v": 100
    },
    {
      "midi": 31,
      "hit": false,
      "t": 82682.77800000012,
      "d": 71.13808333333873,
      "v": 100
    },
    {
      "midi": 54,
      "hit": false,
      "t": 82682.77800000025,
      "d": 1.0162583333294606,
      "v": 60
    },
    {
      "midi": 79,
      "hit": false,
      "t": 82682.77800000028,
      "d": 121.95100000000093,
      "v": 100
    },
    {
      "midi": 67,
      "hit": false,
      "t": 82682.77800000037,
      "d": 121.95100000000093,
      "v": 100
    },
    {
      "midi": 62,
      "hit": false,
      "t": 82682.77800000037,
      "d": 121.95100000000093,
      "v": 100
    },
    {
      "midi": 58,
      "hit": false,
      "t": 82682.77800000037,
      "d": 121.95100000000093,
      "v": 100
    },
    {
      "midi": 46,
      "hit": false,
      "t": 82682.77800000043,
      "d": 1.0162583333294606,
      "v": 100
    },
    {
      "midi": 67,
      "hit": false,
      "t": 82682.77800000725,
      "d": 60.975500000000466,
      "v": 100
    },
    {
      "midi": 62,
      "hit": false,
      "t": 82682.77800000725,
      "d": 60.975500000000466,
      "v": 100
    },
    {
      "midi": 58,
      "hit": false,
      "t": 82682.77800000725,
      "d": 60.975500000000466,
      "v": 100
    },
    {
      "midi": 82,
      "hit": false,
      "t": 82804.72899999998,
      "d": 365.8530000000028,
      "v": 100
    },
    {
      "midi": 79,
      "hit": false,
      "t": 82804.72899999998,
      "d": 365.8530000000028,
      "v": 100
    },
    {
      "midi": 74,
      "hit": false,
      "t": 82804.72899999998,
      "d": 365.8530000000028,
      "v": 100
    },
    {
      "midi": 34,
      "hit": false,
      "t": 82804.72900000012,
      "d": 243.90200000000186,
      "v": 100
    },
    {
      "midi": 54,
      "hit": false,
      "t": 82804.72900000025,
      "d": 1.0162583333294606,
      "v": 60
    },
    {
      "midi": 79,
      "hit": false,
      "t": 82804.72900000028,
      "d": 121.95100000000093,
      "v": 100
    },
    {
      "midi": 44,
      "hit": false,
      "t": 82804.72900000043,
      "d": 1.0162583333294606,
      "v": 100
    },
    {
      "midi": 67,
      "hit": false,
      "t": 82804.72900000725,
      "d": 60.975500000000466,
      "v": 100
    },
    {
      "midi": 62,
      "hit": false,
      "t": 82804.72900000725,
      "d": 60.975500000000466,
      "v": 100
    },
    {
      "midi": 58,
      "hit": false,
      "t": 82804.72900000725,
      "d": 60.975500000000466,
      "v": 100
    },
    {
      "midi": 82,
      "hit": false,
      "t": 82926.68000000023,
      "d": 365.8530000000028,
      "v": 100
    },
    {
      "midi": 74,
      "hit": false,
      "t": 82926.68000000023,
      "d": 365.8530000000028,
      "v": 100
    },
    {
      "midi": 46,
      "hit": false,
      "t": 82926.68000000023,
      "d": 975.6079999999929,
      "v": 100
    },
    {
      "midi": 53,
      "hit": false,
      "t": 82926.68000000023,
      "d": 975.6079999999929,
      "v": 100
    },
    {
      "midi": 54,
      "hit": false,
      "t": 82926.68000000025,
      "d": 1.0162583333294606,
      "v": 80
    },
    {
      "midi": 82,
      "hit": false,
      "t": 82926.68000000028,
      "d": 121.95100000000093,
      "v": 100
    },
    {
      "midi": 70,
      "hit": false,
      "t": 82926.68000000037,
      "d": 121.95100000000093,
      "v": 100
    },
    {
      "midi": 65,
      "hit": false,
      "t": 82926.68000000037,
      "d": 121.95100000000093,
      "v": 100
    },
    {
      "midi": 62,
      "hit": false,
      "t": 82926.68000000037,
      "d": 121.95100000000093,
      "v": 100
    },
    {
      "midi": 33,
      "hit": false,
      "t": 82926.68000000043,
      "d": 1.0162583333294606,
      "v": 127
    },
    {
      "midi": 42,
      "hit": false,
      "t": 82926.68000000043,
      "d": 1.0162583333294606,
      "v": 100
    },
    {
      "midi": 70,
      "hit": false,
      "t": 82926.68000000725,
      "d": 60.975500000145985,
      "v": 100
    },
    {
      "midi": 65,
      "hit": false,
      "t": 82926.68000000725,
      "d": 60.975500000145985,
      "v": 100
    },
    {
      "midi": 62,
      "hit": false,
      "t": 82926.68000000725,
      "d": 60.975500000145985,
      "v": 100
    },
    {
      "midi": 34,
      "hit": false,
      "t": 83048.63100000012,
      "d": 121.95100000000093,
      "v": 100
    },
    {
      "midi": 54,
      "hit": false,
      "t": 83048.63100000026,
      "d": 1.0162583333294606,
      "v": 60
    },
    {
      "midi": 82,
      "hit": false,
      "t": 83048.63100000028,
      "d": 121.95100000000093,
      "v": 100
    },
    {
      "midi": 70,
      "hit": false,
      "t": 83048.63100000037,
      "d": 121.95100000000093,
      "v": 100
    },
    {
      "midi": 65,
      "hit": false,
      "t": 83048.63100000037,
      "d": 121.95100000000093,
      "v": 100
    },
    {
      "midi": 62,
      "hit": false,
      "t": 83048.63100000037,
      "d": 121.95100000000093,
      "v": 100
    },
    {
      "midi": 70,
      "hit": false,
      "t": 83048.63100000743,
      "d": 60.97550000001502,
      "v": 100
    },
    {
      "midi": 65,
      "hit": false,
      "t": 83048.63100000743,
      "d": 60.97550000001502,
      "v": 100
    },
    {
      "midi": 62,
      "hit": false,
      "t": 83048.63100000743,
      "d": 60.97550000001502,
      "v": 100
    },
    {
      "midi": 82,
      "hit": false,
      "t": 83170.58199999998,
      "d": 243.90200000000186,
      "v": 100
    },
    {
      "midi": 79,
      "hit": false,
      "t": 83170.58199999998,
      "d": 243.90200000000186,
      "v": 100
    },
    {
      "midi": 74,
      "hit": false,
      "t": 83170.58199999998,
      "d": 243.90200000000186,
      "v": 100
    },
    {
      "midi": 34,
      "hit": false,
      "t": 83170.58200000013,
      "d": 243.90200000000186,
      "v": 100
    },
    {
      "midi": 54,
      "hit": false,
      "t": 83170.58200000026,
      "d": 1.0162583333294606,
      "v": 60
    },
    {
      "midi": 79,
      "hit": false,
      "t": 83170.58200000029,
      "d": 121.95100000000093,
      "v": 100
    },
    {
      "midi": 46,
      "hit": false,
      "t": 83170.58200000043,
      "d": 1.0162583333294606,
      "v": 100
    },
    {
      "midi": 70,
      "hit": false,
      "t": 83170.58200000758,
      "d": 60.975500000000466,
      "v": 100
    },
    {
      "midi": 65,
      "hit": false,
      "t": 83170.58200000758,
      "d": 60.975500000000466,
      "v": 100
    },
    {
      "midi": 62,
      "hit": false,
      "t": 83170.58200000758,
      "d": 60.975500000000466,
      "v": 100
    },
    {
      "midi": 54,
      "hit": false,
      "t": 83292.53300000026,
      "d": 1.0162583333294606,
      "v": 60
    },
    {
      "midi": 79,
      "hit": false,
      "t": 83292.53300000029,
      "d": 121.95100000000093,
      "v": 100
    },
    {
      "midi": 70,
      "hit": false,
      "t": 83292.53300000037,
      "d": 121.95100000000093,
      "v": 100
    },
    {
      "midi": 65,
      "hit": false,
      "t": 83292.53300000037,
      "d": 121.95100000000093,
      "v": 100
    },
    {
      "midi": 62,
      "hit": false,
      "t": 83292.53300000037,
      "d": 121.95100000000093,
      "v": 100
    },
    {
      "midi": 44,
      "hit": false,
      "t": 83292.53300000043,
      "d": 1.0162583333294606,
      "v": 100
    },
    {
      "midi": 70,
      "hit": false,
      "t": 83292.53300000758,
      "d": 60.975500000000466,
      "v": 100
    },
    {
      "midi": 65,
      "hit": false,
      "t": 83292.53300000758,
      "d": 60.975500000000466,
      "v": 100
    },
    {
      "midi": 62,
      "hit": false,
      "t": 83292.53300000758,
      "d": 60.975500000000466,
      "v": 100
    },
    {
      "midi": 79,
      "hit": false,
      "t": 83414.48399999998,
      "d": 243.90200000000186,
      "v": 100
    },
    {
      "midi": 74,
      "hit": false,
      "t": 83414.48399999998,
      "d": 243.90200000000186,
      "v": 100
    },
    {
      "midi": 70,
      "hit": false,
      "t": 83414.48399999998,
      "d": 243.90200000000186,
      "v": 100
    },
    {
      "midi": 31,
      "hit": false,
      "t": 83414.48400000013,
      "d": 243.90200000000186,
      "v": 100
    },
    {
      "midi": 79,
      "hit": false,
      "t": 83414.48400000023,
      "d": 243.90200000000186,
      "v": 100
    },
    {
      "midi": 75,
      "hit": false,
      "t": 83414.48400000023,
      "d": 243.90200000000186,
      "v": 100
    },
    {
      "midi": 54,
      "hit": false,
      "t": 83414.48400000026,
      "d": 1.0162583333294606,
      "v": 80
    },
    {
      "midi": 74,
      "hit": false,
      "t": 83414.48400000029,
      "d": 121.95100000000093,
      "v": 100
    },
    {
      "midi": 33,
      "hit": false,
      "t": 83414.48400000043,
      "d": 1.0162583333294606,
      "v": 127
    },
    {
      "midi": 40,
      "hit": false,
      "t": 83414.48400000043,
      "d": 1.0162583333294606,
      "v": 100
    },
    {
      "midi": 46,
      "hit": false,
      "t": 83414.48400000043,
      "d": 1.0162583333294606,
      "v": 100
    },
    {
      "midi": 57,
      "hit": false,
      "t": 83414.48400000043,
      "d": 1.0162583333294606,
      "v": 100
    },
    {
      "midi": 70,
      "hit": false,
      "t": 83414.48400000758,
      "d": 243.9020000002929,
      "v": 100
    },
    {
      "midi": 65,
      "hit": false,
      "t": 83414.48400000758,
      "d": 243.9020000002929,
      "v": 100
    },
    {
      "midi": 62,
      "hit": false,
      "t": 83414.48400000758,
      "d": 243.9020000002929,
      "v": 100
    },
    {
      "midi": 54,
      "hit": false,
      "t": 83536.43500000026,
      "d": 1.0162583333294606,
      "v": 60
    },
    {
      "midi": 74,
      "hit": false,
      "t": 83536.43500000029,
      "d": 121.95100000000093,
      "v": 100
    },
    {
      "midi": 44,
      "hit": false,
      "t": 83536.43500000043,
      "d": 1.0162583333294606,
      "v": 100
    },
    {
      "midi": 82,
      "hit": false,
      "t": 83658.38599999998,
      "d": 243.90200000000186,
      "v": 100
    },
    {
      "midi": 79,
      "hit": false,
      "t": 83658.38599999998,
      "d": 243.90200000000186,
      "v": 100
    },
    {
      "midi": 74,
      "hit": false,
      "t": 83658.38599999998,
      "d": 243.90200000000186,
      "v": 100
    },
    {
      "midi": 34,
      "hit": false,
      "t": 83658.38600000013,
      "d": 243.90200000000186,
      "v": 100
    },
    {
      "midi": 82,
      "hit": false,
      "t": 83658.38600000023,
      "d": 243.90200000000186,
      "v": 100
    },
    {
      "midi": 79,
      "hit": false,
      "t": 83658.38600000023,
      "d": 243.90200000000186,
      "v": 100
    },
    {
      "midi": 54,
      "hit": false,
      "t": 83658.38600000026,
      "d": 1.0162583333294606,
      "v": 60
    },
    {
      "midi": 70,
      "hit": false,
      "t": 83658.38600000029,
      "d": 121.95100000000093,
      "v": 100
    },
    {
      "midi": 40,
      "hit": false,
      "t": 83658.38600000044,
      "d": 1.0162583333294606,
      "v": 40
    },
    {
      "midi": 46,
      "hit": false,
      "t": 83658.38600000044,
      "d": 1.0162583333294606,
      "v": 100
    },
    {
      "midi": 70,
      "hit": false,
      "t": 83658.38600000787,
      "d": 60.975500000000466,
      "v": 100
    },
    {
      "midi": 65,
      "hit": false,
      "t": 83658.38600000787,
      "d": 60.975500000000466,
      "v": 100
    },
    {
      "midi": 62,
      "hit": false,
      "t": 83658.38600000787,
      "d": 60.975500000000466,
      "v": 100
    },
    {
      "midi": 54,
      "hit": false,
      "t": 83780.33700000026,
      "d": 1.0162583333294606,
      "v": 60
    },
    {
      "midi": 70,
      "hit": false,
      "t": 83780.33700000029,
      "d": 121.95100000000093,
      "v": 100
    },
    {
      "midi": 40,
      "hit": false,
      "t": 83780.33700000044,
      "d": 1.0162583333294606,
      "v": 100
    },
    {
      "midi": 44,
      "hit": false,
      "t": 83780.33700000044,
      "d": 1.0162583333294606,
      "v": 100
    },
    {
      "midi": 70,
      "hit": false,
      "t": 83780.33700000787,
      "d": 60.975500000000466,
      "v": 100
    },
    {
      "midi": 65,
      "hit": false,
      "t": 83780.33700000787,
      "d": 60.975500000000466,
      "v": 100
    },
    {
      "midi": 62,
      "hit": false,
      "t": 83780.33700000787,
      "d": 60.975500000000466,
      "v": 100
    },
    {
      "midi": 84,
      "hit": false,
      "t": 83902.28799999999,
      "d": 243.90200000000186,
      "v": 100
    },
    {
      "midi": 79,
      "hit": false,
      "t": 83902.28799999999,
      "d": 243.90200000000186,
      "v": 100
    },
    {
      "midi": 75,
      "hit": false,
      "t": 83902.28799999999,
      "d": 243.90200000000186,
      "v": 100
    },
    {
      "midi": 36,
      "hit": false,
      "t": 83902.28800000013,
      "d": 243.90200000000186,
      "v": 100
    },
    {
      "midi": 48,
      "hit": false,
      "t": 83902.28800000022,
      "d": 975.6079999999929,
      "v": 100
    },
    {
      "midi": 55,
      "hit": false,
      "t": 83902.28800000022,
      "d": 975.6079999999929,
      "v": 100
    },
    {
      "midi": 84,
      "hit": false,
      "t": 83902.28800000023,
      "d": 243.90200000000186,
      "v": 100
    },
    {
      "midi": 79,
      "hit": false,
      "t": 83902.28800000023,
      "d": 243.90200000000186,
      "v": 100
    },
    {
      "midi": 54,
      "hit": false,
      "t": 83902.28800000026,
      "d": 1.0162583333294606,
      "v": 80
    },
    {
      "midi": 72,
      "hit": false,
      "t": 83902.28800000029,
      "d": 121.95100000000093,
      "v": 100
    },
    {
      "midi": 33,
      "hit": false,
      "t": 83902.28800000044,
      "d": 1.0162583333294606,
      "v": 127
    },
    {
      "midi": 42,
      "hit": false,
      "t": 83902.28800000044,
      "d": 1.0162583333294606,
      "v": 100
    },
    {
      "midi": 57,
      "hit": false,
      "t": 83902.28800000044,
      "d": 1.0162583333294606,
      "v": 100
    },
    {
      "midi": 72,
      "hit": false,
      "t": 83902.28800000787,
      "d": 487.8040000002802,
      "v": 100
    },
    {
      "midi": 67,
      "hit": false,
      "t": 83902.28800000787,
      "d": 487.8040000002802,
      "v": 100
    },
    {
      "midi": 63,
      "hit": false,
      "t": 83902.28800000787,
      "d": 487.8040000002802,
      "v": 100
    },
    {
      "midi": 54,
      "hit": false,
      "t": 84024.23900000026,
      "d": 1.0162583333294606,
      "v": 60
    },
    {
      "midi": 72,
      "hit": false,
      "t": 84024.23900000029,
      "d": 121.95100000000093,
      "v": 100
    },
    {
      "midi": 72,
      "hit": false,
      "t": 84024.23900000038,
      "d": 121.95100000000093,
      "v": 100
    },
    {
      "midi": 67,
      "hit": false,
      "t": 84024.23900000038,
      "d": 121.95100000000093,
      "v": 100
    },
    {
      "midi": 63,
      "hit": false,
      "t": 84024.23900000038,
      "d": 121.95100000000093,
      "v": 100
    },
    {
      "midi": 36,
      "hit": false,
      "t": 84146.19000000013,
      "d": 243.90200000000186,
      "v": 100
    },
    {
      "midi": 54,
      "hit": false,
      "t": 84146.19000000026,
      "d": 1.0162583333294606,
      "v": 60
    },
    {
      "midi": 79,
      "hit": false,
      "t": 84146.1900000003,
      "d": 121.95100000000093,
      "v": 100
    },
    {
      "midi": 72,
      "hit": false,
      "t": 84146.19000000038,
      "d": 121.95100000000093,
      "v": 100
    },
    {
      "midi": 67,
      "hit": false,
      "t": 84146.19000000038,
      "d": 121.95100000000093,
      "v": 100
    },
    {
      "midi": 63,
      "hit": false,
      "t": 84146.19000000038,
      "d": 121.95100000000093,
      "v": 100
    },
    {
      "midi": 46,
      "hit": false,
      "t": 84146.19000000044,
      "d": 1.0162583333294606,
      "v": 100
    },
    {
      "midi": 54,
      "hit": false,
      "t": 84268.14100000027,
      "d": 1.0162583333294606,
      "v": 60
    },
    {
      "midi": 79,
      "hit": false,
      "t": 84268.1410000003,
      "d": 121.95100000000093,
      "v": 100
    },
    {
      "midi": 44,
      "hit": false,
      "t": 84268.14100000044,
      "d": 1.0162583333294606,
      "v": 100
    },
    {
      "midi": 84,
      "hit": false,
      "t": 84390.09199999999,
      "d": 243.90200000000186,
      "v": 100
    },
    {
      "midi": 79,
      "hit": false,
      "t": 84390.09199999999,
      "d": 243.90200000000186,
      "v": 100
    },
    {
      "midi": 75,
      "hit": false,
      "t": 84390.09199999999,
      "d": 243.90200000000186,
      "v": 100
    },
    {
      "midi": 36,
      "hit": false,
      "t": 84390.09200000014,
      "d": 243.90200000000186,
      "v": 100
    },
    {
      "midi": 84,
      "hit": false,
      "t": 84390.09200000024,
      "d": 243.90200000000186,
      "v": 100
    },
    {
      "midi": 79,
      "hit": false,
      "t": 84390.09200000024,
      "d": 243.90200000000186,
      "v": 100
    },
    {
      "midi": 54,
      "hit": false,
      "t": 84390.09200000027,
      "d": 1.0162583333294606,
      "v": 80
    },
    {
      "midi": 75,
      "hit": false,
      "t": 84390.0920000003,
      "d": 121.95100000000093,
      "v": 100
    },
    {
      "midi": 72,
      "hit": false,
      "t": 84390.09200000038,
      "d": 121.95100000000093,
      "v": 100
    },
    {
      "midi": 67,
      "hit": false,
      "t": 84390.09200000038,
      "d": 121.95100000000093,
      "v": 100
    },
    {
      "midi": 63,
      "hit": false,
      "t": 84390.09200000038,
      "d": 121.95100000000093,
      "v": 100
    },
    {
      "midi": 33,
      "hit": false,
      "t": 84390.09200000044,
      "d": 1.0162583333294606,
      "v": 127
    },
    {
      "midi": 40,
      "hit": false,
      "t": 84390.09200000044,
      "d": 1.0162583333294606,
      "v": 100
    },
    {
      "midi": 46,
      "hit": false,
      "t": 84390.09200000044,
      "d": 1.0162583333294606,
      "v": 100
    },
    {
      "midi": 72,
      "hit": false,
      "t": 84390.09200000815,
      "d": 60.975500000145985,
      "v": 100
    },
    {
      "midi": 67,
      "hit": false,
      "t": 84390.09200000815,
      "d": 60.975500000145985,
      "v": 100
    },
    {
      "midi": 63,
      "hit": false,
      "t": 84390.09200000815,
      "d": 60.975500000145985,
      "v": 100
    },
    {
      "midi": 54,
      "hit": false,
      "t": 84512.04300000027,
      "d": 1.0162583333294606,
      "v": 60
    },
    {
      "midi": 75,
      "hit": false,
      "t": 84512.0430000003,
      "d": 121.95100000000093,
      "v": 100
    },
    {
      "midi": 44,
      "hit": false,
      "t": 84512.04300000044,
      "d": 1.0162583333294606,
      "v": 100
    },
    {
      "midi": 72,
      "hit": false,
      "t": 84512.04300000833,
      "d": 60.97550000001502,
      "v": 100
    },
    {
      "midi": 67,
      "hit": false,
      "t": 84512.04300000833,
      "d": 60.97550000001502,
      "v": 100
    },
    {
      "midi": 63,
      "hit": false,
      "t": 84512.04300000833,
      "d": 60.97550000001502,
      "v": 100
    },
    {
      "midi": 84,
      "hit": false,
      "t": 84633.99399999999,
      "d": 30.487750000000233,
      "v": 100
    },
    {
      "midi": 79,
      "hit": false,
      "t": 84633.99399999999,
      "d": 30.487750000000233,
      "v": 100
    },
    {
      "midi": 36,
      "hit": false,
      "t": 84633.99400000014,
      "d": 71.13808333333873,
      "v": 100
    },
    {
      "midi": 87,
      "hit": false,
      "t": 84633.99400000024,
      "d": 121.95100000000093,
      "v": 100
    },
    {
      "midi": 82,
      "hit": false,
      "t": 84633.99400000024,
      "d": 121.95100000000093,
      "v": 100
    },
    {
      "midi": 54,
      "hit": false,
      "t": 84633.99400000027,
      "d": 1.0162583333294606,
      "v": 60
    },
    {
      "midi": 82,
      "hit": false,
      "t": 84633.9940000003,
      "d": 121.95100000000093,
      "v": 100
    },
    {
      "midi": 72,
      "hit": false,
      "t": 84633.99400000038,
      "d": 121.95100000000093,
      "v": 100
    },
    {
      "midi": 67,
      "hit": false,
      "t": 84633.99400000038,
      "d": 121.95100000000093,
      "v": 100
    },
    {
      "midi": 63,
      "hit": false,
      "t": 84633.99400000038,
      "d": 121.95100000000093,
      "v": 100
    },
    {
      "midi": 46,
      "hit": false,
      "t": 84633.99400000044,
      "d": 1.0162583333294606,
      "v": 100
    },
    {
      "midi": 72,
      "hit": false,
      "t": 84633.99400000848,
      "d": 60.975500000000466,
      "v": 100
    },
    {
      "midi": 67,
      "hit": false,
      "t": 84633.99400000848,
      "d": 60.975500000000466,
      "v": 100
    },
    {
      "midi": 63,
      "hit": false,
      "t": 84633.99400000848,
      "d": 60.975500000000466,
      "v": 100
    },
    {
      "midi": 84,
      "hit": false,
      "t": 84755.94499999999,
      "d": 243.90200000000186,
      "v": 100
    },
    {
      "midi": 80,
      "hit": false,
      "t": 84755.94499999999,
      "d": 243.90200000000186,
      "v": 100
    },
    {
      "midi": 75,
      "hit": false,
      "t": 84755.94499999999,
      "d": 243.90200000000186,
      "v": 100
    },
    {
      "midi": 32,
      "hit": false,
      "t": 84755.94500000014,
      "d": 243.90200000000186,
      "v": 100
    },
    {
      "midi": 84,
      "hit": false,
      "t": 84755.94500000024,
      "d": 365.8530000000028,
      "v": 100
    },
    {
      "midi": 80,
      "hit": false,
      "t": 84755.94500000024,
      "d": 365.8530000000028,
      "v": 100
    },
    {
      "midi": 54,
      "hit": false,
      "t": 84755.94500000027,
      "d": 1.0162583333294606,
      "v": 60
    },
    {
      "midi": 82,
      "hit": false,
      "t": 84755.9450000003,
      "d": 121.95100000000093,
      "v": 100
    },
    {
      "midi": 44,
      "hit": false,
      "t": 84755.94500000044,
      "d": 1.0162583333294606,
      "v": 100
    },
    {
      "midi": 72,
      "hit": false,
      "t": 84755.94500000848,
      "d": 60.975500000000466,
      "v": 100
    },
    {
      "midi": 67,
      "hit": false,
      "t": 84755.94500000848,
      "d": 60.975500000000466,
      "v": 100
    },
    {
      "midi": 63,
      "hit": false,
      "t": 84755.94500000848,
      "d": 60.975500000000466,
      "v": 100
    },
    {
      "midi": 44,
      "hit": false,
      "t": 84877.89600000021,
      "d": 975.6079999999929,
      "v": 100
    },
    {
      "midi": 51,
      "hit": false,
      "t": 84877.89600000021,
      "d": 975.6079999999929,
      "v": 100
    },
    {
      "midi": 54,
      "hit": false,
      "t": 84877.89600000027,
      "d": 1.0162583333294606,
      "v": 80
    },
    {
      "midi": 84,
      "hit": false,
      "t": 84877.8960000003,
      "d": 121.95100000000093,
      "v": 100
    },
    {
      "midi": 68,
      "hit": false,
      "t": 84877.89600000039,
      "d": 121.95100000000093,
      "v": 100
    },
    {
      "midi": 63,
      "hit": false,
      "t": 84877.89600000039,
      "d": 121.95100000000093,
      "v": 100
    },
    {
      "midi": 60,
      "hit": false,
      "t": 84877.89600000039,
      "d": 121.95100000000093,
      "v": 100
    },
    {
      "midi": 33,
      "hit": false,
      "t": 84877.89600000044,
      "d": 1.0162583333294606,
      "v": 127
    },
    {
      "midi": 42,
      "hit": false,
      "t": 84877.89600000044,
      "d": 1.0162583333294606,
      "v": 100
    },
    {
      "midi": 68,
      "hit": false,
      "t": 84877.89600000848,
      "d": 60.975500000145985,
      "v": 100
    },
    {
      "midi": 63,
      "hit": false,
      "t": 84877.89600000848,
      "d": 60.975500000145985,
      "v": 100
    },
    {
      "midi": 60,
      "hit": false,
      "t": 84877.89600000848,
      "d": 60.975500000145985,
      "v": 100
    },
    {
      "midi": 84,
      "hit": false,
      "t": 84999.847,
      "d": 121.95100000000093,
      "v": 100
    },
    {
      "midi": 80,
      "hit": false,
      "t": 84999.847,
      "d": 121.95100000000093,
      "v": 100
    },
    {
      "midi": 75,
      "hit": false,
      "t": 84999.847,
      "d": 121.95100000000093,
      "v": 100
    },
    {
      "midi": 32,
      "hit": false,
      "t": 84999.84700000014,
      "d": 121.95100000000093,
      "v": 100
    },
    {
      "midi": 54,
      "hit": false,
      "t": 84999.84700000027,
      "d": 1.0162583333294606,
      "v": 60
    },
    {
      "midi": 84,
      "hit": false,
      "t": 84999.8470000003,
      "d": 121.95100000000093,
      "v": 100
    },
    {
      "midi": 68,
      "hit": false,
      "t": 84999.84700000039,
      "d": 121.95100000000093,
      "v": 100
    },
    {
      "midi": 63,
      "hit": false,
      "t": 84999.84700000039,
      "d": 121.95100000000093,
      "v": 100
    },
    {
      "midi": 60,
      "hit": false,
      "t": 84999.84700000039,
      "d": 121.95100000000093,
      "v": 100
    },
    {
      "midi": 68,
      "hit": false,
      "t": 84999.84700000865,
      "d": 60.97550000001502,
      "v": 100
    },
    {
      "midi": 63,
      "hit": false,
      "t": 84999.84700000865,
      "d": 60.97550000001502,
      "v": 100
    },
    {
      "midi": 60,
      "hit": false,
      "t": 84999.84700000865,
      "d": 60.97550000001502,
      "v": 100
    },
    {
      "midi": 84,
      "hit": false,
      "t": 85121.798,
      "d": 243.90200000000186,
      "v": 100
    },
    {
      "midi": 80,
      "hit": false,
      "t": 85121.798,
      "d": 243.90200000000186,
      "v": 100
    },
    {
      "midi": 75,
      "hit": false,
      "t": 85121.798,
      "d": 243.90200000000186,
      "v": 100
    },
    {
      "midi": 32,
      "hit": false,
      "t": 85121.79800000014,
      "d": 243.90200000000186,
      "v": 100
    },
    {
      "midi": 54,
      "hit": false,
      "t": 85121.79800000027,
      "d": 1.0162583333294606,
      "v": 60
    },
    {
      "midi": 80,
      "hit": false,
      "t": 85121.7980000003,
      "d": 121.95100000000093,
      "v": 100
    },
    {
      "midi": 46,
      "hit": false,
      "t": 85121.79800000045,
      "d": 1.0162583333294606,
      "v": 100
    },
    {
      "midi": 68,
      "hit": false,
      "t": 85121.7980000088,
      "d": 60.975500000000466,
      "v": 100
    },
    {
      "midi": 63,
      "hit": false,
      "t": 85121.7980000088,
      "d": 60.975500000000466,
      "v": 100
    },
    {
      "midi": 60,
      "hit": false,
      "t": 85121.7980000088,
      "d": 60.975500000000466,
      "v": 100
    },
    {
      "midi": 54,
      "hit": false,
      "t": 85243.74900000027,
      "d": 1.0162583333294606,
      "v": 60
    },
    {
      "midi": 80,
      "hit": false,
      "t": 85243.7490000003,
      "d": 121.95100000000093,
      "v": 100
    },
    {
      "midi": 68,
      "hit": false,
      "t": 85243.74900000039,
      "d": 121.95100000000093,
      "v": 100
    },
    {
      "midi": 63,
      "hit": false,
      "t": 85243.74900000039,
      "d": 121.95100000000093,
      "v": 100
    },
    {
      "midi": 60,
      "hit": false,
      "t": 85243.74900000039,
      "d": 121.95100000000093,
      "v": 100
    },
    {
      "midi": 44,
      "hit": false,
      "t": 85243.74900000045,
      "d": 1.0162583333294606,
      "v": 100
    },
    {
      "midi": 68,
      "hit": false,
      "t": 85243.7490000088,
      "d": 60.975500000000466,
      "v": 100
    },
    {
      "midi": 63,
      "hit": false,
      "t": 85243.7490000088,
      "d": 60.975500000000466,
      "v": 100
    },
    {
      "midi": 60,
      "hit": false,
      "t": 85243.7490000088,
      "d": 60.975500000000466,
      "v": 100
    },
    {
      "midi": 84,
      "hit": false,
      "t": 85365.7,
      "d": 243.90200000000186,
      "v": 100
    },
    {
      "midi": 80,
      "hit": false,
      "t": 85365.7,
      "d": 243.90200000000186,
      "v": 100
    },
    {
      "midi": 75,
      "hit": false,
      "t": 85365.7,
      "d": 243.90200000000186,
      "v": 100
    },
    {
      "midi": 32,
      "hit": false,
      "t": 85365.70000000014,
      "d": 243.90200000000186,
      "v": 100
    },
    {
      "midi": 84,
      "hit": false,
      "t": 85365.70000000024,
      "d": 243.90200000000186,
      "v": 100
    },
    {
      "midi": 82,
      "hit": false,
      "t": 85365.70000000024,
      "d": 243.90200000000186,
      "v": 100
    },
    {
      "midi": 54,
      "hit": false,
      "t": 85365.70000000027,
      "d": 1.0162583333294606,
      "v": 80
    },
    {
      "midi": 75,
      "hit": false,
      "t": 85365.7000000003,
      "d": 121.95100000000093,
      "v": 100
    },
    {
      "midi": 33,
      "hit": false,
      "t": 85365.70000000045,
      "d": 1.0162583333294606,
      "v": 127
    },
    {
      "midi": 40,
      "hit": false,
      "t": 85365.70000000045,
      "d": 1.0162583333294606,
      "v": 100
    },
    {
      "midi": 46,
      "hit": false,
      "t": 85365.70000000045,
      "d": 1.0162583333294606,
      "v": 100
    },
    {
      "midi": 68,
      "hit": false,
      "t": 85365.7000000088,
      "d": 243.9020000002929,
      "v": 100
    },
    {
      "midi": 63,
      "hit": false,
      "t": 85365.7000000088,
      "d": 243.9020000002929,
      "v": 100
    },
    {
      "midi": 60,
      "hit": false,
      "t": 85365.7000000088,
      "d": 243.9020000002929,
      "v": 100
    },
    {
      "midi": 54,
      "hit": false,
      "t": 85487.65100000027,
      "d": 1.0162583333294606,
      "v": 60
    },
    {
      "midi": 75,
      "hit": false,
      "t": 85487.6510000003,
      "d": 121.95100000000093,
      "v": 100
    },
    {
      "midi": 44,
      "hit": false,
      "t": 85487.65100000045,
      "d": 1.0162583333294606,
      "v": 100
    },
    {
      "midi": 84,
      "hit": false,
      "t": 85609.602,
      "d": 243.90200000000186,
      "v": 100
    },
    {
      "midi": 80,
      "hit": false,
      "t": 85609.602,
      "d": 243.90200000000186,
      "v": 100
    },
    {
      "midi": 75,
      "hit": false,
      "t": 85609.602,
      "d": 243.90200000000186,
      "v": 100
    },
    {
      "midi": 32,
      "hit": false,
      "t": 85609.60200000014,
      "d": 243.90200000000186,
      "v": 100
    },
    {
      "midi": 87,
      "hit": false,
      "t": 85609.60200000025,
      "d": 243.90200000000186,
      "v": 100
    },
    {
      "midi": 84,
      "hit": false,
      "t": 85609.60200000025,
      "d": 243.90200000000186,
      "v": 100
    },
    {
      "midi": 54,
      "hit": false,
      "t": 85609.60200000028,
      "d": 1.0162583333294606,
      "v": 60
    },
    {
      "midi": 72,
      "hit": false,
      "t": 85609.6020000003,
      "d": 121.95100000000093,
      "v": 100
    },
    {
      "midi": 40,
      "hit": false,
      "t": 85609.60200000045,
      "d": 1.0162583333294606,
      "v": 40
    },
    {
      "midi": 46,
      "hit": false,
      "t": 85609.60200000045,
      "d": 1.0162583333294606,
      "v": 100
    },
    {
      "midi": 68,
      "hit": false,
      "t": 85609.6020000091,
      "d": 60.975500000000466,
      "v": 100
    },
    {
      "midi": 63,
      "hit": false,
      "t": 85609.6020000091,
      "d": 60.975500000000466,
      "v": 100
    },
    {
      "midi": 60,
      "hit": false,
      "t": 85609.6020000091,
      "d": 60.975500000000466,
      "v": 100
    },
    {
      "midi": 54,
      "hit": false,
      "t": 85731.55300000028,
      "d": 1.0162583333294606,
      "v": 60
    },
    {
      "midi": 72,
      "hit": false,
      "t": 85731.5530000003,
      "d": 121.95100000000093,
      "v": 100
    },
    {
      "midi": 40,
      "hit": false,
      "t": 85731.55300000045,
      "d": 1.0162583333294606,
      "v": 100
    },
    {
      "midi": 44,
      "hit": false,
      "t": 85731.55300000045,
      "d": 1.0162583333294606,
      "v": 100
    },
    {
      "midi": 68,
      "hit": false,
      "t": 85731.5530000091,
      "d": 60.975500000000466,
      "v": 100
    },
    {
      "midi": 63,
      "hit": false,
      "t": 85731.5530000091,
      "d": 60.975500000000466,
      "v": 100
    },
    {
      "midi": 60,
      "hit": false,
      "t": 85731.5530000091,
      "d": 60.975500000000466,
      "v": 100
    },
    {
      "midi": 86,
      "hit": false,
      "t": 85853.504,
      "d": 243.90200000000186,
      "v": 100
    },
    {
      "midi": 82,
      "hit": false,
      "t": 85853.504,
      "d": 243.90200000000186,
      "v": 100
    },
    {
      "midi": 77,
      "hit": false,
      "t": 85853.504,
      "d": 243.90200000000186,
      "v": 100
    },
    {
      "midi": 34,
      "hit": false,
      "t": 85853.50400000015,
      "d": 243.90200000000186,
      "v": 100
    },
    {
      "midi": 46,
      "hit": false,
      "t": 85853.5040000002,
      "d": 975.6079999999929,
      "v": 100
    },
    {
      "midi": 53,
      "hit": false,
      "t": 85853.5040000002,
      "d": 975.6079999999929,
      "v": 100
    },
    {
      "midi": 86,
      "hit": false,
      "t": 85853.50400000025,
      "d": 243.90200000000186,
      "v": 100
    },
    {
      "midi": 82,
      "hit": false,
      "t": 85853.50400000025,
      "d": 243.90200000000186,
      "v": 100
    },
    {
      "midi": 54,
      "hit": false,
      "t": 85853.50400000028,
      "d": 1.0162583333294606,
      "v": 80
    },
    {
      "midi": 70,
      "hit": false,
      "t": 85853.5040000003,
      "d": 121.95100000000093,
      "v": 100
    },
    {
      "midi": 33,
      "hit": false,
      "t": 85853.50400000045,
      "d": 1.0162583333294606,
      "v": 127
    },
    {
      "midi": 42,
      "hit": false,
      "t": 85853.50400000045,
      "d": 1.0162583333294606,
      "v": 100
    },
    {
      "midi": 70,
      "hit": false,
      "t": 85853.5040000091,
      "d": 487.8040000002802,
      "v": 100
    },
    {
      "midi": 65,
      "hit": false,
      "t": 85853.5040000091,
      "d": 487.8040000002802,
      "v": 100
    },
    {
      "midi": 62,
      "hit": false,
      "t": 85853.5040000091,
      "d": 487.8040000002802,
      "v": 100
    },
    {
      "midi": 54,
      "hit": false,
      "t": 85975.45500000028,
      "d": 1.0162583333294606,
      "v": 60
    },
    {
      "midi": 70,
      "hit": false,
      "t": 85975.45500000031,
      "d": 121.95100000000093,
      "v": 100
    },
    {
      "midi": 70,
      "hit": false,
      "t": 85975.4550000004,
      "d": 121.95100000000093,
      "v": 100
    },
    {
      "midi": 65,
      "hit": false,
      "t": 85975.4550000004,
      "d": 121.95100000000093,
      "v": 100
    },
    {
      "midi": 62,
      "hit": false,
      "t": 85975.4550000004,
      "d": 121.95100000000093,
      "v": 100
    },
    {
      "midi": 34,
      "hit": false,
      "t": 86097.40600000015,
      "d": 243.90200000000186,
      "v": 100
    },
    {
      "midi": 82,
      "hit": false,
      "t": 86097.40600000025,
      "d": 121.95100000000093,
      "v": 100
    },
    {
      "midi": 79,
      "hit": false,
      "t": 86097.40600000025,
      "d": 121.95100000000093,
      "v": 100
    },
    {
      "midi": 54,
      "hit": false,
      "t": 86097.40600000028,
      "d": 1.0162583333294606,
      "v": 60
    },
    {
      "midi": 74,
      "hit": false,
      "t": 86097.40600000031,
      "d": 121.95100000000093,
      "v": 100
    },
    {
      "midi": 70,
      "hit": false,
      "t": 86097.4060000004,
      "d": 121.95100000000093,
      "v": 100
    },
    {
      "midi": 65,
      "hit": false,
      "t": 86097.4060000004,
      "d": 121.95100000000093,
      "v": 100
    },
    {
      "midi": 62,
      "hit": false,
      "t": 86097.4060000004,
      "d": 121.95100000000093,
      "v": 100
    },
    {
      "midi": 46,
      "hit": false,
      "t": 86097.40600000045,
      "d": 1.0162583333294606,
      "v": 100
    },
    {
      "midi": 54,
      "hit": false,
      "t": 86219.35700000028,
      "d": 1.0162583333294606,
      "v": 60
    },
    {
      "midi": 74,
      "hit": false,
      "t": 86219.35700000031,
      "d": 121.95100000000093,
      "v": 100
    },
    {
      "midi": 44,
      "hit": false,
      "t": 86219.35700000045,
      "d": 1.0162583333294606,
      "v": 100
    },
    {
      "midi": 82,
      "hit": false,
      "t": 86341.308,
      "d": 243.90200000000186,
      "v": 100
    },
    {
      "midi": 77,
      "hit": false,
      "t": 86341.308,
      "d": 243.90200000000186,
      "v": 100
    },
    {
      "midi": 34,
      "hit": false,
      "t": 86341.30800000015,
      "d": 243.90200000000186,
      "v": 100
    },
    {
      "midi": 82,
      "hit": false,
      "t": 86341.30800000025,
      "d": 243.90200000000186,
      "v": 100
    },
    {
      "midi": 79,
      "hit": false,
      "t": 86341.30800000025,
      "d": 243.90200000000186,
      "v": 100
    },
    {
      "midi": 54,
      "hit": false,
      "t": 86341.30800000028,
      "d": 1.0162583333294606,
      "v": 80
    },
    {
      "midi": 70,
      "hit": false,
      "t": 86341.30800000031,
      "d": 121.95100000000093,
      "v": 100
    },
    {
      "midi": 70,
      "hit": false,
      "t": 86341.3080000004,
      "d": 121.95100000000093,
      "v": 100
    },
    {
      "midi": 65,
      "hit": false,
      "t": 86341.3080000004,
      "d": 121.95100000000093,
      "v": 100
    },
    {
      "midi": 62,
      "hit": false,
      "t": 86341.3080000004,
      "d": 121.95100000000093,
      "v": 100
    },
    {
      "midi": 33,
      "hit": false,
      "t": 86341.30800000046,
      "d": 1.0162583333294606,
      "v": 127
    },
    {
      "midi": 40,
      "hit": false,
      "t": 86341.30800000046,
      "d": 1.0162583333294606,
      "v": 100
    },
    {
      "midi": 46,
      "hit": false,
      "t": 86341.30800000046,
      "d": 1.0162583333294606,
      "v": 100
    },
    {
      "midi": 70,
      "hit": false,
      "t": 86341.30800000938,
      "d": 60.975500000145985,
      "v": 100
    },
    {
      "midi": 65,
      "hit": false,
      "t": 86341.30800000938,
      "d": 60.975500000145985,
      "v": 100
    },
    {
      "midi": 62,
      "hit": false,
      "t": 86341.30800000938,
      "d": 60.975500000145985,
      "v": 100
    },
    {
      "midi": 54,
      "hit": false,
      "t": 86463.25900000028,
      "d": 1.0162583333294606,
      "v": 60
    },
    {
      "midi": 70,
      "hit": false,
      "t": 86463.25900000031,
      "d": 121.95100000000093,
      "v": 100
    },
    {
      "midi": 44,
      "hit": false,
      "t": 86463.25900000046,
      "d": 1.0162583333294606,
      "v": 100
    },
    {
      "midi": 70,
      "hit": false,
      "t": 86463.25900000955,
      "d": 60.97550000001502,
      "v": 100
    },
    {
      "midi": 65,
      "hit": false,
      "t": 86463.25900000955,
      "d": 60.97550000001502,
      "v": 100
    },
    {
      "midi": 62,
      "hit": false,
      "t": 86463.25900000955,
      "d": 60.97550000001502,
      "v": 100
    },
    {
      "midi": 77,
      "hit": false,
      "t": 86585.21,
      "d": 40.650333333338494,
      "v": 100
    },
    {
      "midi": 82,
      "hit": false,
      "t": 86585.21,
      "d": 40.650333333338494,
      "v": 100
    },
    {
      "midi": 34,
      "hit": false,
      "t": 86585.21000000015,
      "d": 71.13808333333873,
      "v": 100
    },
    {
      "midi": 79,
      "hit": false,
      "t": 86585.21000000025,
      "d": 121.95100000000093,
      "v": 100
    },
    {
      "midi": 75,
      "hit": false,
      "t": 86585.21000000025,
      "d": 121.95100000000093,
      "v": 100
    },
    {
      "midi": 54,
      "hit": false,
      "t": 86585.21000000028,
      "d": 1.0162583333294606,
      "v": 60
    },
    {
      "midi": 79,
      "hit": false,
      "t": 86585.21000000031,
      "d": 121.95100000000093,
      "v": 100
    },
    {
      "midi": 70,
      "hit": false,
      "t": 86585.2100000004,
      "d": 121.95100000000093,
      "v": 100
    },
    {
      "midi": 65,
      "hit": false,
      "t": 86585.2100000004,
      "d": 121.95100000000093,
      "v": 100
    },
    {
      "midi": 62,
      "hit": false,
      "t": 86585.2100000004,
      "d": 121.95100000000093,
      "v": 100
    },
    {
      "midi": 46,
      "hit": false,
      "t": 86585.21000000046,
      "d": 1.0162583333294606,
      "v": 100
    },
    {
      "midi": 70,
      "hit": false,
      "t": 86585.2100000097,
      "d": 60.975500000000466,
      "v": 100
    },
    {
      "midi": 65,
      "hit": false,
      "t": 86585.2100000097,
      "d": 60.975500000000466,
      "v": 100
    },
    {
      "midi": 62,
      "hit": false,
      "t": 86585.2100000097,
      "d": 60.975500000000466,
      "v": 100
    },
    {
      "midi": 82,
      "hit": false,
      "t": 86707.16100000001,
      "d": 243.90200000000186,
      "v": 100
    },
    {
      "midi": 77,
      "hit": false,
      "t": 86707.16100000001,
      "d": 243.90200000000186,
      "v": 100
    },
    {
      "midi": 74,
      "hit": false,
      "t": 86707.16100000001,
      "d": 325.2026666666643,
      "v": 100
    },
    {
      "midi": 31,
      "hit": false,
      "t": 86707.16100000015,
      "d": 243.90200000000186,
      "v": 100
    },
    {
      "midi": 82,
      "hit": false,
      "t": 86707.16100000025,
      "d": 487.8040000000037,
      "v": 100
    },
    {
      "midi": 79,
      "hit": false,
      "t": 86707.16100000025,
      "d": 487.8040000000037,
      "v": 100
    },
    {
      "midi": 54,
      "hit": false,
      "t": 86707.16100000028,
      "d": 1.0162583333294606,
      "v": 60
    },
    {
      "midi": 79,
      "hit": false,
      "t": 86707.16100000031,
      "d": 121.95100000000093,
      "v": 100
    },
    {
      "midi": 44,
      "hit": false,
      "t": 86707.16100000046,
      "d": 1.0162583333294606,
      "v": 100
    },
    {
      "midi": 40,
      "hit": false,
      "t": 86707.16100000046,
      "d": 1.0162583333294606,
      "v": 100
    },
    {
      "midi": 70,
      "hit": false,
      "t": 86707.1610000097,
      "d": 60.975500000000466,
      "v": 100
    },
    {
      "midi": 65,
      "hit": false,
      "t": 86707.1610000097,
      "d": 60.975500000000466,
      "v": 100
    },
    {
      "midi": 62,
      "hit": false,
      "t": 86707.1610000097,
      "d": 60.975500000000466,
      "v": 100
    },
    {
      "midi": 50,
      "hit": false,
      "t": 86829.1120000002,
      "d": 975.6079999999929,
      "v": 100
    },
    {
      "midi": 43,
      "hit": false,
      "t": 86829.1120000002,
      "d": 975.6079999999929,
      "v": 100
    },
    {
      "midi": 54,
      "hit": false,
      "t": 86829.11200000028,
      "d": 1.0162583333294606,
      "v": 80
    },
    {
      "midi": 79,
      "hit": false,
      "t": 86829.11200000031,
      "d": 121.95100000000093,
      "v": 100
    },
    {
      "midi": 67,
      "hit": false,
      "t": 86829.1120000004,
      "d": 121.95100000000093,
      "v": 100
    },
    {
      "midi": 63,
      "hit": false,
      "t": 86829.1120000004,
      "d": 121.95100000000093,
      "v": 100
    },
    {
      "midi": 58,
      "hit": false,
      "t": 86829.1120000004,
      "d": 121.95100000000093,
      "v": 100
    },
    {
      "midi": 33,
      "hit": false,
      "t": 86829.11200000046,
      "d": 1.0162583333294606,
      "v": 127
    },
    {
      "midi": 42,
      "hit": false,
      "t": 86829.11200000046,
      "d": 1.0162583333294606,
      "v": 100
    },
    {
      "midi": 67,
      "hit": false,
      "t": 86829.1120000097,
      "d": 60.975500000145985,
      "v": 100
    },
    {
      "midi": 62,
      "hit": false,
      "t": 86829.1120000097,
      "d": 60.975500000145985,
      "v": 100
    },
    {
      "midi": 58,
      "hit": false,
      "t": 86829.1120000097,
      "d": 60.975500000145985,
      "v": 100
    },
    {
      "midi": 31,
      "hit": false,
      "t": 86951.06300000015,
      "d": 121.95100000000093,
      "v": 100
    },
    {
      "midi": 54,
      "hit": false,
      "t": 86951.06300000029,
      "d": 1.0162583333294606,
      "v": 60
    },
    {
      "midi": 79,
      "hit": false,
      "t": 86951.06300000031,
      "d": 121.95100000000093,
      "v": 100
    },
    {
      "midi": 67,
      "hit": false,
      "t": 86951.0630000004,
      "d": 121.95100000000093,
      "v": 100
    },
    {
      "midi": 63,
      "hit": false,
      "t": 86951.0630000004,
      "d": 121.95100000000093,
      "v": 100
    },
    {
      "midi": 58,
      "hit": false,
      "t": 86951.0630000004,
      "d": 121.95100000000093,
      "v": 100
    },
    {
      "midi": 40,
      "hit": false,
      "t": 86951.06300000046,
      "d": 1.0162583333294606,
      "v": 100
    },
    {
      "midi": 67,
      "hit": false,
      "t": 86951.06300000988,
      "d": 60.97550000001502,
      "v": 100
    },
    {
      "midi": 62,
      "hit": false,
      "t": 86951.06300000988,
      "d": 60.97550000001502,
      "v": 100
    },
    {
      "midi": 58,
      "hit": false,
      "t": 86951.06300000988,
      "d": 60.97550000001502,
      "v": 100
    },
    {
      "midi": 74,
      "hit": false,
      "t": 87073.01400000001,
      "d": 243.90200000000186,
      "v": 100
    },
    {
      "midi": 82,
      "hit": false,
      "t": 87073.01400000001,
      "d": 243.90200000000186,
      "v": 100
    },
    {
      "midi": 77,
      "hit": false,
      "t": 87073.01400000001,
      "d": 243.90200000000186,
      "v": 100
    },
    {
      "midi": 31,
      "hit": false,
      "t": 87073.01400000016,
      "d": 243.90200000000186,
      "v": 100
    },
    {
      "midi": 54,
      "hit": false,
      "t": 87073.01400000029,
      "d": 1.0162583333294606,
      "v": 60
    },
    {
      "midi": 79,
      "hit": false,
      "t": 87073.01400000032,
      "d": 121.95100000000093,
      "v": 100
    },
    {
      "midi": 46,
      "hit": false,
      "t": 87073.01400000046,
      "d": 1.0162583333294606,
      "v": 100
    },
    {
      "midi": 67,
      "hit": false,
      "t": 87073.01400001002,
      "d": 60.975500000000466,
      "v": 100
    },
    {
      "midi": 62,
      "hit": false,
      "t": 87073.01400001002,
      "d": 60.975500000000466,
      "v": 100
    },
    {
      "midi": 58,
      "hit": false,
      "t": 87073.01400001002,
      "d": 60.975500000000466,
      "v": 100
    },
    {
      "midi": 54,
      "hit": false,
      "t": 87194.96500000029,
      "d": 1.0162583333294606,
      "v": 60
    },
    {
      "midi": 79,
      "hit": false,
      "t": 87194.96500000032,
      "d": 121.95100000000093,
      "v": 100
    },
    {
      "midi": 67,
      "hit": false,
      "t": 87194.9650000004,
      "d": 121.95100000000093,
      "v": 100
    },
    {
      "midi": 63,
      "hit": false,
      "t": 87194.9650000004,
      "d": 121.95100000000093,
      "v": 100
    },
    {
      "midi": 58,
      "hit": false,
      "t": 87194.9650000004,
      "d": 121.95100000000093,
      "v": 100
    },
    {
      "midi": 44,
      "hit": false,
      "t": 87194.96500000046,
      "d": 1.0162583333294606,
      "v": 100
    },
    {
      "midi": 67,
      "hit": false,
      "t": 87194.96500001002,
      "d": 60.975500000000466,
      "v": 100
    },
    {
      "midi": 62,
      "hit": false,
      "t": 87194.96500001002,
      "d": 60.975500000000466,
      "v": 100
    },
    {
      "midi": 58,
      "hit": false,
      "t": 87194.96500001002,
      "d": 60.975500000000466,
      "v": 100
    },
    {
      "midi": 74,
      "hit": false,
      "t": 87316.91600000001,
      "d": 243.90200000000186,
      "v": 100
    },
    {
      "midi": 79,
      "hit": false,
      "t": 87316.91600000001,
      "d": 243.90200000000186,
      "v": 100
    },
    {
      "midi": 77,
      "hit": false,
      "t": 87316.91600000001,
      "d": 243.90200000000186,
      "v": 100
    },
    {
      "midi": 31,
      "hit": false,
      "t": 87316.91600000016,
      "d": 243.90200000000186,
      "v": 100
    },
    {
      "midi": 80,
      "hit": false,
      "t": 87316.91600000026,
      "d": 243.90200000000186,
      "v": 100
    },
    {
      "midi": 77,
      "hit": false,
      "t": 87316.91600000026,
      "d": 243.90200000000186,
      "v": 100
    },
    {
      "midi": 54,
      "hit": false,
      "t": 87316.91600000029,
      "d": 1.0162583333294606,
      "v": 80
    },
    {
      "midi": 74,
      "hit": false,
      "t": 87316.91600000032,
      "d": 121.95100000000093,
      "v": 100
    },
    {
      "midi": 33,
      "hit": false,
      "t": 87316.91600000046,
      "d": 1.0162583333294606,
      "v": 127
    },
    {
      "midi": 40,
      "hit": false,
      "t": 87316.91600000046,
      "d": 1.0162583333294606,
      "v": 100
    },
    {
      "midi": 46,
      "hit": false,
      "t": 87316.91600000046,
      "d": 1.0162583333294606,
      "v": 100
    },
    {
      "midi": 67,
      "hit": false,
      "t": 87316.91600001002,
      "d": 243.9020000002929,
      "v": 100
    },
    {
      "midi": 62,
      "hit": false,
      "t": 87316.91600001002,
      "d": 243.9020000002929,
      "v": 100
    },
    {
      "midi": 58,
      "hit": false,
      "t": 87316.91600001002,
      "d": 243.9020000002929,
      "v": 100
    },
    {
      "midi": 54,
      "hit": false,
      "t": 87438.86700000029,
      "d": 1.0162583333294606,
      "v": 60
    },
    {
      "midi": 74,
      "hit": false,
      "t": 87438.86700000032,
      "d": 121.95100000000093,
      "v": 100
    },
    {
      "midi": 44,
      "hit": false,
      "t": 87438.86700000046,
      "d": 1.0162583333294606,
      "v": 100
    },
    {
      "midi": 74,
      "hit": false,
      "t": 87560.81800000001,
      "d": 243.90200000000186,
      "v": 100
    },
    {
      "midi": 82,
      "hit": false,
      "t": 87560.81800000001,
      "d": 243.90200000000186,
      "v": 100
    },
    {
      "midi": 77,
      "hit": false,
      "t": 87560.81800000001,
      "d": 243.90200000000186,
      "v": 100
    },
    {
      "midi": 31,
      "hit": false,
      "t": 87560.81800000016,
      "d": 243.90200000000186,
      "v": 100
    },
    {
      "midi": 82,
      "hit": false,
      "t": 87560.81800000026,
      "d": 243.90200000000186,
      "v": 100
    },
    {
      "midi": 79,
      "hit": false,
      "t": 87560.81800000026,
      "d": 243.90200000000186,
      "v": 100
    },
    {
      "midi": 54,
      "hit": false,
      "t": 87560.81800000029,
      "d": 1.0162583333294606,
      "v": 60
    },
    {
      "midi": 79,
      "hit": false,
      "t": 87560.81800000032,
      "d": 121.95100000000093,
      "v": 100
    },
    {
      "midi": 40,
      "hit": false,
      "t": 87560.81800000046,
      "d": 1.0162583333294606,
      "v": 40
    },
    {
      "midi": 46,
      "hit": false,
      "t": 87560.81800000046,
      "d": 1.0162583333294606,
      "v": 100
    },
    {
      "midi": 67,
      "hit": false,
      "t": 87560.81800001032,
      "d": 60.975500000000466,
      "v": 100
    },
    {
      "midi": 62,
      "hit": false,
      "t": 87560.81800001032,
      "d": 60.975500000000466,
      "v": 100
    },
    {
      "midi": 58,
      "hit": false,
      "t": 87560.81800001032,
      "d": 60.975500000000466,
      "v": 100
    },
    {
      "midi": 54,
      "hit": false,
      "t": 87682.76900000029,
      "d": 1.0162583333294606,
      "v": 60
    },
    {
      "midi": 79,
      "hit": false,
      "t": 87682.76900000032,
      "d": 121.95100000000093,
      "v": 100
    },
    {
      "midi": 40,
      "hit": false,
      "t": 87682.76900000047,
      "d": 1.0162583333294606,
      "v": 100
    },
    {
      "midi": 44,
      "hit": false,
      "t": 87682.76900000047,
      "d": 1.0162583333294606,
      "v": 100
    },
    {
      "midi": 67,
      "hit": false,
      "t": 87682.76900001032,
      "d": 60.975500000000466,
      "v": 100
    },
    {
      "midi": 62,
      "hit": false,
      "t": 87682.76900001032,
      "d": 60.975500000000466,
      "v": 100
    },
    {
      "midi": 58,
      "hit": false,
      "t": 87682.76900001032,
      "d": 60.975500000000466,
      "v": 100
    },
    {
      "midi": 80,
      "hit": false,
      "t": 87804.72000000002,
      "d": 243.90200000000186,
      "v": 100
    },
    {
      "midi": 75,
      "hit": false,
      "t": 87804.72000000002,
      "d": 243.90200000000186,
      "v": 100
    },
    {
      "midi": 72,
      "hit": false,
      "t": 87804.72000000002,
      "d": 243.90200000000186,
      "v": 100
    },
    {
      "midi": 29,
      "hit": false,
      "t": 87804.72000000016,
      "d": 243.90200000000186,
      "v": 100
    },
    {
      "midi": 41,
      "hit": false,
      "t": 87804.72000000019,
      "d": 975.6079999999929,
      "v": 100
    },
    {
      "midi": 48,
      "hit": false,
      "t": 87804.72000000019,
      "d": 975.6079999999929,
      "v": 100
    },
    {
      "midi": 80,
      "hit": false,
      "t": 87804.72000000026,
      "d": 243.90200000000186,
      "v": 100
    },
    {
      "midi": 77,
      "hit": false,
      "t": 87804.72000000026,
      "d": 243.90200000000186,
      "v": 100
    },
    {
      "midi": 54,
      "hit": false,
      "t": 87804.72000000029,
      "d": 1.0162583333294606,
      "v": 80
    },
    {
      "midi": 65,
      "hit": false,
      "t": 87804.72000000032,
      "d": 121.95100000000093,
      "v": 100
    },
    {
      "midi": 33,
      "hit": false,
      "t": 87804.72000000047,
      "d": 1.0162583333294606,
      "v": 127
    },
    {
      "midi": 42,
      "hit": false,
      "t": 87804.72000000047,
      "d": 1.0162583333294606,
      "v": 100
    },
    {
      "midi": 68,
      "hit": false,
      "t": 87804.72000001032,
      "d": 487.8040000002802,
      "v": 100
    },
    {
      "midi": 63,
      "hit": false,
      "t": 87804.72000001032,
      "d": 487.8040000002802,
      "v": 100
    },
    {
      "midi": 60,
      "hit": false,
      "t": 87804.72000001032,
      "d": 487.8040000002802,
      "v": 100
    },
    {
      "midi": 54,
      "hit": false,
      "t": 87926.6710000003,
      "d": 1.0162583333294606,
      "v": 60
    },
    {
      "midi": 58,
      "hit": false,
      "t": 87926.67100000032,
      "d": 121.95100000000093,
      "v": 100
    },
    {
      "midi": 60,
      "hit": false,
      "t": 87926.67100000041,
      "d": 121.95100000000093,
      "v": 100
    },
    {
      "midi": 63,
      "hit": false,
      "t": 87926.67100000041,
      "d": 121.95100000000093,
      "v": 100
    },
    {
      "midi": 68,
      "hit": false,
      "t": 87926.67100000041,
      "d": 121.95100000000093,
      "v": 100
    },
    {
      "midi": 29,
      "hit": false,
      "t": 88048.62200000016,
      "d": 243.90200000000186,
      "v": 100
    },
    {
      "midi": 54,
      "hit": false,
      "t": 88048.6220000003,
      "d": 1.0162583333294606,
      "v": 60
    },
    {
      "midi": 65,
      "hit": false,
      "t": 88048.62200000032,
      "d": 121.95100000000093,
      "v": 100
    },
    {
      "midi": 68,
      "hit": false,
      "t": 88048.62200000041,
      "d": 121.95100000000093,
      "v": 100
    },
    {
      "midi": 63,
      "hit": false,
      "t": 88048.62200000041,
      "d": 121.95100000000093,
      "v": 100
    },
    {
      "midi": 60,
      "hit": false,
      "t": 88048.62200000041,
      "d": 121.95100000000093,
      "v": 100
    },
    {
      "midi": 46,
      "hit": false,
      "t": 88048.62200000047,
      "d": 1.0162583333294606,
      "v": 100
    },
    {
      "midi": 54,
      "hit": false,
      "t": 88170.5730000003,
      "d": 1.0162583333294606,
      "v": 60
    },
    {
      "midi": 70,
      "hit": false,
      "t": 88170.57300000032,
      "d": 121.95100000000093,
      "v": 100
    },
    {
      "midi": 44,
      "hit": false,
      "t": 88170.57300000047,
      "d": 1.0162583333294606,
      "v": 100
    },
    {
      "midi": 80,
      "hit": false,
      "t": 88292.52400000002,
      "d": 243.90200000000186,
      "v": 100
    },
    {
      "midi": 75,
      "hit": false,
      "t": 88292.52400000002,
      "d": 243.90200000000186,
      "v": 100
    },
    {
      "midi": 72,
      "hit": false,
      "t": 88292.52400000002,
      "d": 243.90200000000186,
      "v": 100
    },
    {
      "midi": 29,
      "hit": false,
      "t": 88292.52400000016,
      "d": 243.90200000000186,
      "v": 100
    },
    {
      "midi": 80,
      "hit": false,
      "t": 88292.52400000027,
      "d": 243.90200000000186,
      "v": 100
    },
    {
      "midi": 77,
      "hit": false,
      "t": 88292.52400000027,
      "d": 243.90200000000186,
      "v": 100
    },
    {
      "midi": 54,
      "hit": false,
      "t": 88292.5240000003,
      "d": 1.0162583333294606,
      "v": 80
    },
    {
      "midi": 65,
      "hit": false,
      "t": 88292.52400000033,
      "d": 121.95100000000093,
      "v": 100
    },
    {
      "midi": 68,
      "hit": false,
      "t": 88292.52400000041,
      "d": 121.95100000000093,
      "v": 100
    },
    {
      "midi": 63,
      "hit": false,
      "t": 88292.52400000041,
      "d": 121.95100000000093,
      "v": 100
    },
    {
      "midi": 60,
      "hit": false,
      "t": 88292.52400000041,
      "d": 121.95100000000093,
      "v": 100
    },
    {
      "midi": 33,
      "hit": false,
      "t": 88292.52400000047,
      "d": 1.0162583333294606,
      "v": 127
    },
    {
      "midi": 40,
      "hit": false,
      "t": 88292.52400000047,
      "d": 1.0162583333294606,
      "v": 100
    },
    {
      "midi": 46,
      "hit": false,
      "t": 88292.52400000047,
      "d": 1.0162583333294606,
      "v": 100
    },
    {
      "midi": 68,
      "hit": false,
      "t": 88292.5240000106,
      "d": 60.975500000145985,
      "v": 100
    },
    {
      "midi": 63,
      "hit": false,
      "t": 88292.5240000106,
      "d": 60.975500000145985,
      "v": 100
    },
    {
      "midi": 60,
      "hit": false,
      "t": 88292.5240000106,
      "d": 60.975500000145985,
      "v": 100
    },
    {
      "midi": 54,
      "hit": false,
      "t": 88414.4750000003,
      "d": 1.0162583333294606,
      "v": 60
    },
    {
      "midi": 70,
      "hit": false,
      "t": 88414.47500000033,
      "d": 121.95100000000093,
      "v": 100
    },
    {
      "midi": 44,
      "hit": false,
      "t": 88414.47500000047,
      "d": 1.0162583333294606,
      "v": 100
    },
    {
      "midi": 68,
      "hit": false,
      "t": 88414.47500001077,
      "d": 60.97550000001502,
      "v": 100
    },
    {
      "midi": 63,
      "hit": false,
      "t": 88414.47500001077,
      "d": 60.97550000001502,
      "v": 100
    },
    {
      "midi": 60,
      "hit": false,
      "t": 88414.47500001077,
      "d": 60.97550000001502,
      "v": 100
    },
    {
      "midi": 29,
      "hit": false,
      "t": 88536.42600000017,
      "d": 71.13808333333873,
      "v": 100
    },
    {
      "midi": 82,
      "hit": false,
      "t": 88536.42600000027,
      "d": 121.95100000000093,
      "v": 100
    },
    {
      "midi": 79,
      "hit": false,
      "t": 88536.42600000027,
      "d": 121.95100000000093,
      "v": 100
    },
    {
      "midi": 54,
      "hit": false,
      "t": 88536.4260000003,
      "d": 1.0162583333294606,
      "v": 60
    },
    {
      "midi": 77,
      "hit": false,
      "t": 88536.42600000033,
      "d": 121.95100000000093,
      "v": 100
    },
    {
      "midi": 68,
      "hit": false,
      "t": 88536.42600000041,
      "d": 121.95100000000093,
      "v": 100
    },
    {
      "midi": 63,
      "hit": false,
      "t": 88536.42600000041,
      "d": 121.95100000000093,
      "v": 100
    },
    {
      "midi": 60,
      "hit": false,
      "t": 88536.42600000041,
      "d": 121.95100000000093,
      "v": 100
    },
    {
      "midi": 46,
      "hit": false,
      "t": 88536.42600000047,
      "d": 1.0162583333294606,
      "v": 100
    },
    {
      "midi": 68,
      "hit": false,
      "t": 88536.42600001092,
      "d": 60.975500000000466,
      "v": 100
    },
    {
      "midi": 63,
      "hit": false,
      "t": 88536.42600001092,
      "d": 60.975500000000466,
      "v": 100
    },
    {
      "midi": 60,
      "hit": false,
      "t": 88536.42600001092,
      "d": 60.975500000000466,
      "v": 100
    },
    {
      "midi": 82,
      "hit": false,
      "t": 88658.37700000002,
      "d": 365.8530000000028,
      "v": 100
    },
    {
      "midi": 77,
      "hit": false,
      "t": 88658.37700000002,
      "d": 365.8530000000028,
      "v": 100
    },
    {
      "midi": 74,
      "hit": false,
      "t": 88658.37700000002,
      "d": 365.8530000000028,
      "v": 100
    },
    {
      "midi": 34,
      "hit": false,
      "t": 88658.37700000017,
      "d": 243.90200000000186,
      "v": 100
    },
    {
      "midi": 77,
      "hit": false,
      "t": 88658.37700000027,
      "d": 487.8040000000037,
      "v": 100
    },
    {
      "midi": 74,
      "hit": false,
      "t": 88658.37700000027,
      "d": 487.8040000000037,
      "v": 100
    },
    {
      "midi": 54,
      "hit": false,
      "t": 88658.3770000003,
      "d": 1.0162583333294606,
      "v": 60
    },
    {
      "midi": 82,
      "hit": false,
      "t": 88658.37700000033,
      "d": 121.95100000000093,
      "v": 100
    },
    {
      "midi": 44,
      "hit": false,
      "t": 88658.37700000047,
      "d": 1.0162583333294606,
      "v": 100
    },
    {
      "midi": 68,
      "hit": false,
      "t": 88658.37700001092,
      "d": 60.975500000000466,
      "v": 100
    },
    {
      "midi": 63,
      "hit": false,
      "t": 88658.37700001092,
      "d": 60.975500000000466,
      "v": 100
    },
    {
      "midi": 60,
      "hit": false,
      "t": 88658.37700001092,
      "d": 60.975500000000466,
      "v": 100
    },
    {
      "midi": 46,
      "hit": false,
      "t": 88780.32800000018,
      "d": 975.6079999999929,
      "v": 100
    },
    {
      "midi": 53,
      "hit": false,
      "t": 88780.32800000018,
      "d": 975.6079999999929,
      "v": 100
    },
    {
      "midi": 54,
      "hit": false,
      "t": 88780.3280000003,
      "d": 1.0162583333294606,
      "v": 80
    },
    {
      "midi": 82,
      "hit": false,
      "t": 88780.32800000033,
      "d": 121.95100000000093,
      "v": 100
    },
    {
      "midi": 70,
      "hit": false,
      "t": 88780.32800000042,
      "d": 121.95100000000093,
      "v": 100
    },
    {
      "midi": 65,
      "hit": false,
      "t": 88780.32800000042,
      "d": 121.95100000000093,
      "v": 100
    },
    {
      "midi": 62,
      "hit": false,
      "t": 88780.32800000042,
      "d": 121.95100000000093,
      "v": 100
    },
    {
      "midi": 33,
      "hit": false,
      "t": 88780.32800000047,
      "d": 1.0162583333294606,
      "v": 127
    },
    {
      "midi": 42,
      "hit": false,
      "t": 88780.32800000047,
      "d": 1.0162583333294606,
      "v": 100
    },
    {
      "midi": 70,
      "hit": false,
      "t": 88780.32800001092,
      "d": 60.975500000145985,
      "v": 100
    },
    {
      "midi": 65,
      "hit": false,
      "t": 88780.32800001092,
      "d": 60.975500000145985,
      "v": 100
    },
    {
      "midi": 62,
      "hit": false,
      "t": 88780.32800001092,
      "d": 60.975500000145985,
      "v": 100
    },
    {
      "midi": 34,
      "hit": false,
      "t": 88902.27900000017,
      "d": 121.95100000000093,
      "v": 100
    },
    {
      "midi": 54,
      "hit": false,
      "t": 88902.2790000003,
      "d": 1.0162583333294606,
      "v": 60
    },
    {
      "midi": 82,
      "hit": false,
      "t": 88902.27900000033,
      "d": 121.95100000000093,
      "v": 100
    },
    {
      "midi": 70,
      "hit": false,
      "t": 88902.27900000042,
      "d": 121.95100000000093,
      "v": 100
    },
    {
      "midi": 65,
      "hit": false,
      "t": 88902.27900000042,
      "d": 121.95100000000093,
      "v": 100
    },
    {
      "midi": 62,
      "hit": false,
      "t": 88902.27900000042,
      "d": 121.95100000000093,
      "v": 100
    },
    {
      "midi": 70,
      "hit": false,
      "t": 88902.2790000111,
      "d": 60.97550000001502,
      "v": 100
    },
    {
      "midi": 65,
      "hit": false,
      "t": 88902.2790000111,
      "d": 60.97550000001502,
      "v": 100
    },
    {
      "midi": 62,
      "hit": false,
      "t": 88902.2790000111,
      "d": 60.97550000001502,
      "v": 100
    },
    {
      "midi": 82,
      "hit": false,
      "t": 89024.23000000003,
      "d": 243.90200000000186,
      "v": 100
    },
    {
      "midi": 77,
      "hit": false,
      "t": 89024.23000000003,
      "d": 243.90200000000186,
      "v": 100
    },
    {
      "midi": 74,
      "hit": false,
      "t": 89024.23000000003,
      "d": 243.90200000000186,
      "v": 100
    },
    {
      "midi": 34,
      "hit": false,
      "t": 89024.23000000017,
      "d": 243.90200000000186,
      "v": 100
    },
    {
      "midi": 54,
      "hit": false,
      "t": 89024.2300000003,
      "d": 1.0162583333294606,
      "v": 60
    },
    {
      "midi": 82,
      "hit": false,
      "t": 89024.23000000033,
      "d": 121.95100000000093,
      "v": 100
    },
    {
      "midi": 46,
      "hit": false,
      "t": 89024.23000000048,
      "d": 1.0162583333294606,
      "v": 100
    },
    {
      "midi": 70,
      "hit": false,
      "t": 89024.23000001124,
      "d": 60.975500000000466,
      "v": 100
    },
    {
      "midi": 65,
      "hit": false,
      "t": 89024.23000001124,
      "d": 60.975500000000466,
      "v": 100
    },
    {
      "midi": 62,
      "hit": false,
      "t": 89024.23000001124,
      "d": 60.975500000000466,
      "v": 100
    },
    {
      "midi": 54,
      "hit": false,
      "t": 89146.1810000003,
      "d": 1.0162583333294606,
      "v": 60
    },
    {
      "midi": 82,
      "hit": false,
      "t": 89146.18100000033,
      "d": 121.95100000000093,
      "v": 100
    },
    {
      "midi": 70,
      "hit": false,
      "t": 89146.18100000042,
      "d": 121.95100000000093,
      "v": 100
    },
    {
      "midi": 65,
      "hit": false,
      "t": 89146.18100000042,
      "d": 121.95100000000093,
      "v": 100
    },
    {
      "midi": 62,
      "hit": false,
      "t": 89146.18100000042,
      "d": 121.95100000000093,
      "v": 100
    },
    {
      "midi": 44,
      "hit": false,
      "t": 89146.18100000048,
      "d": 1.0162583333294606,
      "v": 100
    },
    {
      "midi": 70,
      "hit": false,
      "t": 89146.18100001125,
      "d": 60.975500000000466,
      "v": 100
    },
    {
      "midi": 65,
      "hit": false,
      "t": 89146.18100001125,
      "d": 60.975500000000466,
      "v": 100
    },
    {
      "midi": 62,
      "hit": false,
      "t": 89146.18100001125,
      "d": 60.975500000000466,
      "v": 100
    },
    {
      "midi": 77,
      "hit": false,
      "t": 89268.13200000003,
      "d": 243.90200000000186,
      "v": 100
    },
    {
      "midi": 74,
      "hit": false,
      "t": 89268.13200000003,
      "d": 243.90200000000186,
      "v": 100
    },
    {
      "midi": 70,
      "hit": false,
      "t": 89268.13200000003,
      "d": 243.90200000000186,
      "v": 100
    },
    {
      "midi": 34,
      "hit": false,
      "t": 89268.13200000017,
      "d": 243.90200000000186,
      "v": 100
    },
    {
      "midi": 77,
      "hit": false,
      "t": 89268.13200000027,
      "d": 243.90200000000186,
      "v": 100
    },
    {
      "midi": 72,
      "hit": false,
      "t": 89268.13200000027,
      "d": 243.90200000000186,
      "v": 100
    },
    {
      "midi": 54,
      "hit": false,
      "t": 89268.1320000003,
      "d": 1.0162583333294606,
      "v": 80
    },
    {
      "midi": 77,
      "hit": false,
      "t": 89268.13200000033,
      "d": 121.95100000000093,
      "v": 100
    },
    {
      "midi": 33,
      "hit": false,
      "t": 89268.13200000048,
      "d": 1.0162583333294606,
      "v": 127
    },
    {
      "midi": 40,
      "hit": false,
      "t": 89268.13200000048,
      "d": 1.0162583333294606,
      "v": 100
    },
    {
      "midi": 46,
      "hit": false,
      "t": 89268.13200000048,
      "d": 1.0162583333294606,
      "v": 100
    },
    {
      "midi": 70,
      "hit": false,
      "t": 89268.13200001125,
      "d": 243.9020000002929,
      "v": 100
    },
    {
      "midi": 65,
      "hit": false,
      "t": 89268.13200001125,
      "d": 243.9020000002929,
      "v": 100
    },
    {
      "midi": 62,
      "hit": false,
      "t": 89268.13200001125,
      "d": 243.9020000002929,
      "v": 100
    },
    {
      "midi": 54,
      "hit": false,
      "t": 89390.0830000003,
      "d": 1.0162583333294606,
      "v": 60
    },
    {
      "midi": 77,
      "hit": false,
      "t": 89390.08300000033,
      "d": 121.95100000000093,
      "v": 100
    },
    {
      "midi": 44,
      "hit": false,
      "t": 89390.08300000048,
      "d": 1.0162583333294606,
      "v": 100
    },
    {
      "midi": 79,
      "hit": false,
      "t": 89512.03400000003,
      "d": 243.90200000000186,
      "v": 100
    },
    {
      "midi": 77,
      "hit": false,
      "t": 89512.03400000003,
      "d": 243.90200000000186,
      "v": 100
    },
    {
      "midi": 74,
      "hit": false,
      "t": 89512.03400000003,
      "d": 243.90200000000186,
      "v": 100
    },
    {
      "midi": 34,
      "hit": false,
      "t": 89512.03400000017,
      "d": 243.90200000000186,
      "v": 100
    },
    {
      "midi": 79,
      "hit": false,
      "t": 89512.03400000028,
      "d": 243.90200000000186,
      "v": 100
    },
    {
      "midi": 74,
      "hit": false,
      "t": 89512.03400000028,
      "d": 243.90200000000186,
      "v": 100
    },
    {
      "midi": 54,
      "hit": false,
      "t": 89512.0340000003,
      "d": 1.0162583333294606,
      "v": 60
    },
    {
      "midi": 79,
      "hit": false,
      "t": 89512.03400000033,
      "d": 121.95100000000093,
      "v": 100
    },
    {
      "midi": 40,
      "hit": false,
      "t": 89512.03400000048,
      "d": 1.0162583333294606,
      "v": 40
    },
    {
      "midi": 46,
      "hit": false,
      "t": 89512.03400000048,
      "d": 1.0162583333294606,
      "v": 100
    },
    {
      "midi": 70,
      "hit": false,
      "t": 89512.03400001154,
      "d": 60.975500000000466,
      "v": 100
    },
    {
      "midi": 65,
      "hit": false,
      "t": 89512.03400001154,
      "d": 60.975500000000466,
      "v": 100
    },
    {
      "midi": 62,
      "hit": false,
      "t": 89512.03400001154,
      "d": 60.975500000000466,
      "v": 100
    },
    {
      "midi": 54,
      "hit": false,
      "t": 89633.9850000003,
      "d": 1.0162583333294606,
      "v": 60
    },
    {
      "midi": 79,
      "hit": false,
      "t": 89633.98500000034,
      "d": 121.95100000000093,
      "v": 100
    },
    {
      "midi": 40,
      "hit": false,
      "t": 89633.98500000048,
      "d": 1.0162583333294606,
      "v": 100
    },
    {
      "midi": 44,
      "hit": false,
      "t": 89633.98500000048,
      "d": 1.0162583333294606,
      "v": 100
    },
    {
      "midi": 70,
      "hit": false,
      "t": 89633.98500001154,
      "d": 60.975500000000466,
      "v": 100
    },
    {
      "midi": 65,
      "hit": false,
      "t": 89633.98500001154,
      "d": 60.975500000000466,
      "v": 100
    },
    {
      "midi": 62,
      "hit": false,
      "t": 89633.98500001154,
      "d": 60.975500000000466,
      "v": 100
    },
    {
      "midi": 79,
      "hit": false,
      "t": 89755.936,
      "d": 1951.2160000000003,
      "v": 120
    },
    {
      "midi": 79,
      "hit": false,
      "t": 89755.93600000003,
      "d": 243.90200000000186,
      "v": 100
    },
    {
      "midi": 75,
      "hit": false,
      "t": 89755.93600000003,
      "d": 243.90200000000186,
      "v": 100
    },
    {
      "midi": 70,
      "hit": false,
      "t": 89755.93600000003,
      "d": 243.90200000000186,
      "v": 100
    },
    {
      "midi": 39,
      "hit": false,
      "t": 89755.93600000018,
      "d": 1219.5099999999948,
      "v": 100
    },
    {
      "midi": 46,
      "hit": false,
      "t": 89755.93600000018,
      "d": 1219.5099999999948,
      "v": 100
    },
    {
      "midi": 27,
      "hit": false,
      "t": 89755.93600000018,
      "d": 243.90200000000186,
      "v": 100
    },
    {
      "midi": 77,
      "hit": false,
      "t": 89755.93600000028,
      "d": 243.90200000000186,
      "v": 100
    },
    {
      "midi": 72,
      "hit": false,
      "t": 89755.93600000028,
      "d": 243.90200000000186,
      "v": 100
    },
    {
      "midi": 54,
      "hit": false,
      "t": 89755.9360000003,
      "d": 1.0162583333294606,
      "v": 80
    },
    {
      "midi": 75,
      "hit": false,
      "t": 89755.93600000034,
      "d": 121.95100000000093,
      "v": 100
    },
    {
      "midi": 33,
      "hit": false,
      "t": 89755.93600000048,
      "d": 1.0162583333294606,
      "v": 127
    },
    {
      "midi": 42,
      "hit": false,
      "t": 89755.93600000048,
      "d": 1.0162583333294606,
      "v": 100
    },
    {
      "midi": 67,
      "hit": false,
      "t": 89755.93600001154,
      "d": 487.8040000002802,
      "v": 100
    },
    {
      "midi": 58,
      "hit": false,
      "t": 89755.93600001154,
      "d": 487.8040000002802,
      "v": 100
    },
    {
      "midi": 63,
      "hit": false,
      "t": 89755.93600001154,
      "d": 487.8040000002802,
      "v": 100
    },
    {
      "midi": 54,
      "hit": false,
      "t": 89877.88700000031,
      "d": 1.0162583333294606,
      "v": 60
    },
    {
      "midi": 67,
      "hit": false,
      "t": 89877.88700000042,
      "d": 121.95100000000093,
      "v": 100
    },
    {
      "midi": 63,
      "hit": false,
      "t": 89877.88700000042,
      "d": 121.95100000000093,
      "v": 100
    },
    {
      "midi": 58,
      "hit": false,
      "t": 89877.88700000042,
      "d": 121.95100000000093,
      "v": 100
    },
    {
      "midi": 40,
      "hit": false,
      "t": 89877.88700000048,
      "d": 1.0162583333294606,
      "v": 100
    },
    {
      "midi": 27,
      "hit": false,
      "t": 89999.83800000018,
      "d": 20.32516666666197,
      "v": 100
    },
    {
      "midi": 75,
      "hit": false,
      "t": 89999.83800000028,
      "d": 121.95100000000093,
      "v": 100
    },
    {
      "midi": 70,
      "hit": false,
      "t": 89999.83800000028,
      "d": 121.95100000000093,
      "v": 100
    },
    {
      "midi": 54,
      "hit": false,
      "t": 89999.83800000031,
      "d": 1.0162583333294606,
      "v": 60
    },
    {
      "midi": 67,
      "hit": false,
      "t": 89999.83800000043,
      "d": 121.95100000000093,
      "v": 100
    },
    {
      "midi": 63,
      "hit": false,
      "t": 89999.83800000043,
      "d": 121.95100000000093,
      "v": 100
    },
    {
      "midi": 58,
      "hit": false,
      "t": 89999.83800000043,
      "d": 121.95100000000093,
      "v": 100
    },
    {
      "midi": 46,
      "hit": false,
      "t": 89999.83800000048,
      "d": 1.0162583333294606,
      "v": 100
    },
    {
      "midi": 40,
      "hit": false,
      "t": 89999.83800000048,
      "d": 1.0162583333294606,
      "v": 40
    },
    {
      "midi": 79,
      "hit": false,
      "t": 90121.78900000003,
      "d": 243.90200000000186,
      "v": 100
    },
    {
      "midi": 75,
      "hit": false,
      "t": 90121.78900000003,
      "d": 243.90200000000186,
      "v": 100
    },
    {
      "midi": 70,
      "hit": false,
      "t": 90121.78900000003,
      "d": 243.90200000000186,
      "v": 100
    },
    {
      "midi": 27,
      "hit": false,
      "t": 90121.78900000018,
      "d": 243.90200000000186,
      "v": 100
    },
    {
      "midi": 75,
      "hit": false,
      "t": 90121.78900000028,
      "d": 975.6079999999929,
      "v": 100
    },
    {
      "midi": 70,
      "hit": false,
      "t": 90121.78900000028,
      "d": 975.6079999999929,
      "v": 100
    },
    {
      "midi": 54,
      "hit": false,
      "t": 90121.78900000031,
      "d": 1.0162583333294606,
      "v": 60
    },
    {
      "midi": 44,
      "hit": false,
      "t": 90121.78900000048,
      "d": 1.0162583333294606,
      "v": 100
    },
    {
      "midi": 40,
      "hit": false,
      "t": 90121.78900000048,
      "d": 1.0162583333294606,
      "v": 100
    },
    {
      "midi": 54,
      "hit": false,
      "t": 90243.74000000031,
      "d": 1.0162583333294606,
      "v": 80
    },
    {
      "midi": 67,
      "hit": false,
      "t": 90243.74000000043,
      "d": 121.95100000000093,
      "v": 100
    },
    {
      "midi": 63,
      "hit": false,
      "t": 90243.74000000043,
      "d": 121.95100000000093,
      "v": 100
    },
    {
      "midi": 58,
      "hit": false,
      "t": 90243.74000000043,
      "d": 121.95100000000093,
      "v": 100
    },
    {
      "midi": 33,
      "hit": false,
      "t": 90243.74000000049,
      "d": 1.0162583333294606,
      "v": 127
    },
    {
      "midi": 46,
      "hit": false,
      "t": 90243.74000000049,
      "d": 1.0162583333294606,
      "v": 100
    },
    {
      "midi": 67,
      "hit": false,
      "t": 90243.74000001182,
      "d": 60.975500000145985,
      "v": 100
    },
    {
      "midi": 58,
      "hit": false,
      "t": 90243.74000001182,
      "d": 60.975500000145985,
      "v": 100
    },
    {
      "midi": 63,
      "hit": false,
      "t": 90243.74000001182,
      "d": 60.975500000145985,
      "v": 100
    },
    {
      "midi": 27,
      "hit": false,
      "t": 90365.69100000018,
      "d": 20.32516666666197,
      "v": 100
    },
    {
      "midi": 54,
      "hit": false,
      "t": 90365.69100000031,
      "d": 1.0162583333294606,
      "v": 60
    },
    {
      "midi": 67,
      "hit": false,
      "t": 90365.69100000043,
      "d": 121.95100000000093,
      "v": 100
    },
    {
      "midi": 63,
      "hit": false,
      "t": 90365.69100000043,
      "d": 121.95100000000093,
      "v": 100
    },
    {
      "midi": 58,
      "hit": false,
      "t": 90365.69100000043,
      "d": 121.95100000000093,
      "v": 100
    },
    {
      "midi": 44,
      "hit": false,
      "t": 90365.69100000049,
      "d": 1.0162583333294606,
      "v": 100
    },
    {
      "midi": 67,
      "hit": false,
      "t": 90365.691000012,
      "d": 60.97550000001502,
      "v": 100
    },
    {
      "midi": 58,
      "hit": false,
      "t": 90365.691000012,
      "d": 60.97550000001502,
      "v": 100
    },
    {
      "midi": 63,
      "hit": false,
      "t": 90365.691000012,
      "d": 60.97550000001502,
      "v": 100
    },
    {
      "midi": 79,
      "hit": false,
      "t": 90487.64200000004,
      "d": 243.90200000000186,
      "v": 100
    },
    {
      "midi": 75,
      "hit": false,
      "t": 90487.64200000004,
      "d": 243.90200000000186,
      "v": 100
    },
    {
      "midi": 70,
      "hit": false,
      "t": 90487.64200000004,
      "d": 243.90200000000186,
      "v": 100
    },
    {
      "midi": 27,
      "hit": false,
      "t": 90487.64200000018,
      "d": 243.90200000000186,
      "v": 100
    },
    {
      "midi": 54,
      "hit": false,
      "t": 90487.64200000031,
      "d": 1.0162583333294606,
      "v": 60
    },
    {
      "midi": 46,
      "hit": false,
      "t": 90487.64200000049,
      "d": 1.0162583333294606,
      "v": 100
    },
    {
      "midi": 40,
      "hit": false,
      "t": 90487.64200000049,
      "d": 1.0162583333294606,
      "v": 100
    },
    {
      "midi": 67,
      "hit": false,
      "t": 90487.64200001214,
      "d": 60.975500000000466,
      "v": 100
    },
    {
      "midi": 58,
      "hit": false,
      "t": 90487.64200001214,
      "d": 60.975500000000466,
      "v": 100
    },
    {
      "midi": 63,
      "hit": false,
      "t": 90487.64200001214,
      "d": 60.975500000000466,
      "v": 100
    },
    {
      "midi": 54,
      "hit": false,
      "t": 90609.59300000031,
      "d": 1.0162583333294606,
      "v": 60
    },
    {
      "midi": 67,
      "hit": false,
      "t": 90609.59300000043,
      "d": 121.95100000000093,
      "v": 100
    },
    {
      "midi": 63,
      "hit": false,
      "t": 90609.59300000043,
      "d": 121.95100000000093,
      "v": 100
    },
    {
      "midi": 58,
      "hit": false,
      "t": 90609.59300000043,
      "d": 121.95100000000093,
      "v": 100
    },
    {
      "midi": 44,
      "hit": false,
      "t": 90609.59300000049,
      "d": 1.0162583333294606,
      "v": 100
    },
    {
      "midi": 67,
      "hit": false,
      "t": 90609.59300001214,
      "d": 60.975500000000466,
      "v": 100
    },
    {
      "midi": 58,
      "hit": false,
      "t": 90609.59300001214,
      "d": 60.975500000000466,
      "v": 100
    },
    {
      "midi": 63,
      "hit": false,
      "t": 90609.59300001214,
      "d": 60.975500000000466,
      "v": 100
    },
    {
      "midi": 27,
      "hit": false,
      "t": 90731.54400000018,
      "d": 20.32516666666197,
      "v": 100
    },
    {
      "midi": 54,
      "hit": false,
      "t": 90731.54400000031,
      "d": 1.0162583333294606,
      "v": 80
    },
    {
      "midi": 67,
      "hit": false,
      "t": 90731.54400000043,
      "d": 121.95100000000093,
      "v": 100
    },
    {
      "midi": 63,
      "hit": false,
      "t": 90731.54400000043,
      "d": 121.95100000000093,
      "v": 100
    },
    {
      "midi": 58,
      "hit": false,
      "t": 90731.54400000043,
      "d": 121.95100000000093,
      "v": 100
    },
    {
      "midi": 42,
      "hit": false,
      "t": 90731.54400000049,
      "d": 1.0162583333294606,
      "v": 100
    },
    {
      "midi": 33,
      "hit": false,
      "t": 90731.54400000049,
      "d": 1.0162583333294606,
      "v": 127
    },
    {
      "midi": 67,
      "hit": false,
      "t": 90731.54400001215,
      "d": 60.975500000145985,
      "v": 100
    },
    {
      "midi": 58,
      "hit": false,
      "t": 90731.54400001215,
      "d": 60.975500000145985,
      "v": 100
    },
    {
      "midi": 63,
      "hit": false,
      "t": 90731.54400001215,
      "d": 60.975500000145985,
      "v": 100
    },
    {
      "midi": 79,
      "hit": false,
      "t": 90853.49500000004,
      "d": 243.90200000000186,
      "v": 100
    },
    {
      "midi": 75,
      "hit": false,
      "t": 90853.49500000004,
      "d": 243.90200000000186,
      "v": 100
    },
    {
      "midi": 70,
      "hit": false,
      "t": 90853.49500000004,
      "d": 243.90200000000186,
      "v": 100
    },
    {
      "midi": 27,
      "hit": false,
      "t": 90853.49500000018,
      "d": 243.90200000000186,
      "v": 100
    },
    {
      "midi": 54,
      "hit": false,
      "t": 90853.49500000032,
      "d": 1.0162583333294606,
      "v": 60
    },
    {
      "midi": 40,
      "hit": false,
      "t": 90853.49500000049,
      "d": 1.0162583333294606,
      "v": 100
    },
    {
      "midi": 67,
      "hit": false,
      "t": 90853.49500001232,
      "d": 60.97550000001502,
      "v": 100
    },
    {
      "midi": 58,
      "hit": false,
      "t": 90853.49500001232,
      "d": 60.97550000001502,
      "v": 100
    },
    {
      "midi": 63,
      "hit": false,
      "t": 90853.49500001232,
      "d": 60.97550000001502,
      "v": 100
    },
    {
      "midi": 55,
      "hit": false,
      "t": 90975.44600000017,
      "d": 731.7060000005004,
      "v": 100
    },
    {
      "midi": 51,
      "hit": false,
      "t": 90975.44600000017,
      "d": 731.7060000005004,
      "v": 100
    },
    {
      "midi": 54,
      "hit": false,
      "t": 90975.44600000032,
      "d": 1.0162583333294606,
      "v": 60
    },
    {
      "midi": 67,
      "hit": false,
      "t": 90975.44600000043,
      "d": 121.95100000000093,
      "v": 100
    },
    {
      "midi": 63,
      "hit": false,
      "t": 90975.44600000043,
      "d": 121.95100000000093,
      "v": 100
    },
    {
      "midi": 58,
      "hit": false,
      "t": 90975.44600000043,
      "d": 121.95100000000093,
      "v": 100
    },
    {
      "midi": 46,
      "hit": false,
      "t": 90975.44600000049,
      "d": 1.0162583333294606,
      "v": 100
    },
    {
      "midi": 67,
      "hit": false,
      "t": 90975.44600001247,
      "d": 60.975500000000466,
      "v": 100
    },
    {
      "midi": 58,
      "hit": false,
      "t": 90975.44600001247,
      "d": 60.975500000000466,
      "v": 100
    },
    {
      "midi": 63,
      "hit": false,
      "t": 90975.44600001247,
      "d": 60.975500000000466,
      "v": 100
    },
    {
      "midi": 27,
      "hit": false,
      "t": 91097.39700000019,
      "d": 20.32516666666197,
      "v": 100
    },
    {
      "midi": 54,
      "hit": false,
      "t": 91097.39700000032,
      "d": 1.0162583333294606,
      "v": 60
    },
    {
      "midi": 67,
      "hit": false,
      "t": 91097.39700000043,
      "d": 121.95100000000093,
      "v": 100
    },
    {
      "midi": 63,
      "hit": false,
      "t": 91097.39700000043,
      "d": 121.95100000000093,
      "v": 100
    },
    {
      "midi": 58,
      "hit": false,
      "t": 91097.39700000043,
      "d": 121.95100000000093,
      "v": 100
    },
    {
      "midi": 44,
      "hit": false,
      "t": 91097.39700000049,
      "d": 1.0162583333294606,
      "v": 100
    },
    {
      "midi": 67,
      "hit": false,
      "t": 91097.39700001247,
      "d": 60.975500000000466,
      "v": 100
    },
    {
      "midi": 58,
      "hit": false,
      "t": 91097.39700001247,
      "d": 60.975500000000466,
      "v": 100
    },
    {
      "midi": 63,
      "hit": false,
      "t": 91097.39700001247,
      "d": 60.975500000000466,
      "v": 100
    },
    {
      "midi": 79,
      "hit": false,
      "t": 91219.34800000004,
      "d": 243.90200000000186,
      "v": 100
    },
    {
      "midi": 75,
      "hit": false,
      "t": 91219.34800000004,
      "d": 243.90200000000186,
      "v": 100
    },
    {
      "midi": 70,
      "hit": false,
      "t": 91219.34800000004,
      "d": 243.90200000000186,
      "v": 100
    },
    {
      "midi": 27,
      "hit": false,
      "t": 91219.34800000019,
      "d": 243.90200000000186,
      "v": 100
    },
    {
      "midi": 79,
      "hit": false,
      "t": 91219.34800000027,
      "d": 243.90200000000186,
      "v": 100
    },
    {
      "midi": 75,
      "hit": false,
      "t": 91219.34800000027,
      "d": 243.90200000000186,
      "v": 100
    },
    {
      "midi": 54,
      "hit": false,
      "t": 91219.34800000032,
      "d": 1.0162583333294606,
      "v": 80
    },
    {
      "midi": 40,
      "hit": false,
      "t": 91219.3480000005,
      "d": 1.0162583333294606,
      "v": 100
    },
    {
      "midi": 46,
      "hit": false,
      "t": 91219.3480000005,
      "d": 1.0162583333294606,
      "v": 100
    },
    {
      "midi": 33,
      "hit": false,
      "t": 91219.3480000005,
      "d": 1.0162583333294606,
      "v": 127
    },
    {
      "midi": 57,
      "hit": false,
      "t": 91219.3480000005,
      "d": 1.0162583333294606,
      "v": 100
    },
    {
      "midi": 67,
      "hit": false,
      "t": 91219.34800001247,
      "d": 243.9020000002929,
      "v": 100
    },
    {
      "midi": 58,
      "hit": false,
      "t": 91219.34800001247,
      "d": 243.9020000002929,
      "v": 100
    },
    {
      "midi": 63,
      "hit": false,
      "t": 91219.34800001247,
      "d": 243.9020000002929,
      "v": 100
    },
    {
      "midi": 54,
      "hit": false,
      "t": 91341.29900000032,
      "d": 1.0162583333294606,
      "v": 60
    },
    {
      "midi": 44,
      "hit": false,
      "t": 91341.2990000005,
      "d": 1.0162583333294606,
      "v": 100
    },
    {
      "midi": 79,
      "hit": false,
      "t": 91463.25000000004,
      "d": 243.90200000000186,
      "v": 100
    },
    {
      "midi": 75,
      "hit": false,
      "t": 91463.25000000004,
      "d": 243.90200000000186,
      "v": 100
    },
    {
      "midi": 70,
      "hit": false,
      "t": 91463.25000000004,
      "d": 243.90200000000186,
      "v": 100
    },
    {
      "midi": 27,
      "hit": false,
      "t": 91463.25000000019,
      "d": 243.90200000000186,
      "v": 100
    },
    {
      "midi": 82,
      "hit": false,
      "t": 91463.25000000028,
      "d": 243.90200000000186,
      "v": 100
    },
    {
      "midi": 79,
      "hit": false,
      "t": 91463.25000000028,
      "d": 243.90200000000186,
      "v": 100
    },
    {
      "midi": 54,
      "hit": false,
      "t": 91463.25000000032,
      "d": 1.0162583333294606,
      "v": 60
    },
    {
      "midi": 40,
      "hit": false,
      "t": 91463.2500000005,
      "d": 1.0162583333294606,
      "v": 100
    },
    {
      "midi": 46,
      "hit": false,
      "t": 91463.2500000005,
      "d": 1.0162583333294606,
      "v": 100
    },
    {
      "midi": 67,
      "hit": false,
      "t": 91463.25000001276,
      "d": 60.975500000000466,
      "v": 100
    },
    {
      "midi": 58,
      "hit": false,
      "t": 91463.25000001276,
      "d": 60.975500000000466,
      "v": 100
    },
    {
      "midi": 63,
      "hit": false,
      "t": 91463.25000001276,
      "d": 60.975500000000466,
      "v": 100
    },
    {
      "midi": 54,
      "hit": false,
      "t": 91585.20100000032,
      "d": 1.0162583333294606,
      "v": 60
    },
    {
      "midi": 40,
      "hit": false,
      "t": 91585.2010000005,
      "d": 1.0162583333294606,
      "v": 100
    },
    {
      "midi": 44,
      "hit": false,
      "t": 91585.2010000005,
      "d": 1.0162583333294606,
      "v": 100
    },
    {
      "midi": 67,
      "hit": false,
      "t": 91585.20100001276,
      "d": 60.975500000000466,
      "v": 100
    },
    {
      "midi": 58,
      "hit": false,
      "t": 91585.20100001276,
      "d": 60.975500000000466,
      "v": 100
    },
    {
      "midi": 63,
      "hit": false,
      "t": 91585.20100001276,
      "d": 60.975500000000466,
      "v": 100
    },
    {
      "midi": 84,
      "hit": false,
      "t": 91707.15200000005,
      "d": 243.90200000000186,
      "v": 100
    },
    {
      "midi": 79,
      "hit": false,
      "t": 91707.15200000005,
      "d": 243.90200000000186,
      "v": 100
    },
    {
      "midi": 75,
      "hit": false,
      "t": 91707.15200000005,
      "d": 243.90200000000186,
      "v": 100
    },
    {
      "midi": 36,
      "hit": false,
      "t": 91707.15200000019,
      "d": 243.90200000000186,
      "v": 100
    },
    {
      "midi": 84,
      "hit": false,
      "t": 91707.15200000028,
      "d": 243.90200000000186,
      "v": 100
    },
    {
      "midi": 79,
      "hit": false,
      "t": 91707.15200000028,
      "d": 243.90200000000186,
      "v": 100
    },
    {
      "midi": 54,
      "hit": false,
      "t": 91707.15200000032,
      "d": 1.0162583333294606,
      "v": 80
    },
    {
      "midi": 72,
      "hit": false,
      "t": 91707.15200000034,
      "d": 121.95100000000093,
      "v": 100
    },
    {
      "midi": 33,
      "hit": false,
      "t": 91707.1520000005,
      "d": 1.0162583333294606,
      "v": 127
    },
    {
      "midi": 42,
      "hit": false,
      "t": 91707.1520000005,
      "d": 1.0162583333294606,
      "v": 100
    },
    {
      "midi": 57,
      "hit": false,
      "t": 91707.1520000005,
      "d": 1.0162583333294606,
      "v": 100
    },
    {
      "midi": 48,
      "hit": false,
      "t": 91707.15200000067,
      "d": 975.6079999999929,
      "v": 100
    },
    {
      "midi": 55,
      "hit": false,
      "t": 91707.15200000067,
      "d": 975.6079999999929,
      "v": 100
    },
    {
      "midi": 72,
      "hit": false,
      "t": 91707.15200001276,
      "d": 487.8040000002802,
      "v": 100
    },
    {
      "midi": 67,
      "hit": false,
      "t": 91707.15200001276,
      "d": 487.8040000002802,
      "v": 100
    },
    {
      "midi": 63,
      "hit": false,
      "t": 91707.15200001276,
      "d": 487.8040000002802,
      "v": 100
    },
    {
      "midi": 54,
      "hit": false,
      "t": 91829.10300000032,
      "d": 1.0162583333294606,
      "v": 60
    },
    {
      "midi": 72,
      "hit": false,
      "t": 91829.10300000034,
      "d": 121.95100000000093,
      "v": 100
    },
    {
      "midi": 72,
      "hit": false,
      "t": 91829.10300000044,
      "d": 121.95100000000093,
      "v": 100
    },
    {
      "midi": 67,
      "hit": false,
      "t": 91829.10300000044,
      "d": 121.95100000000093,
      "v": 100
    },
    {
      "midi": 63,
      "hit": false,
      "t": 91829.10300000044,
      "d": 121.95100000000093,
      "v": 100
    },
    {
      "midi": 36,
      "hit": false,
      "t": 91951.0540000002,
      "d": 243.90200000000186,
      "v": 100
    },
    {
      "midi": 54,
      "hit": false,
      "t": 91951.05400000032,
      "d": 1.0162583333294606,
      "v": 60
    },
    {
      "midi": 79,
      "hit": false,
      "t": 91951.05400000034,
      "d": 121.95100000000093,
      "v": 100
    },
    {
      "midi": 72,
      "hit": false,
      "t": 91951.05400000044,
      "d": 121.95100000000093,
      "v": 100
    },
    {
      "midi": 67,
      "hit": false,
      "t": 91951.05400000044,
      "d": 121.95100000000093,
      "v": 100
    },
    {
      "midi": 63,
      "hit": false,
      "t": 91951.05400000044,
      "d": 121.95100000000093,
      "v": 100
    },
    {
      "midi": 46,
      "hit": false,
      "t": 91951.0540000005,
      "d": 1.0162583333294606,
      "v": 100
    },
    {
      "midi": 54,
      "hit": false,
      "t": 92073.00500000032,
      "d": 1.0162583333294606,
      "v": 60
    },
    {
      "midi": 79,
      "hit": false,
      "t": 92073.00500000034,
      "d": 121.95100000000093,
      "v": 100
    },
    {
      "midi": 44,
      "hit": false,
      "t": 92073.0050000005,
      "d": 1.0162583333294606,
      "v": 100
    },
    {
      "midi": 84,
      "hit": false,
      "t": 92194.95600000005,
      "d": 243.90200000000186,
      "v": 100
    },
    {
      "midi": 79,
      "hit": false,
      "t": 92194.95600000005,
      "d": 243.90200000000186,
      "v": 100
    },
    {
      "midi": 75,
      "hit": false,
      "t": 92194.95600000005,
      "d": 243.90200000000186,
      "v": 100
    },
    {
      "midi": 36,
      "hit": false,
      "t": 92194.9560000002,
      "d": 243.90200000000186,
      "v": 100
    },
    {
      "midi": 84,
      "hit": false,
      "t": 92194.95600000028,
      "d": 243.90200000000186,
      "v": 100
    },
    {
      "midi": 79,
      "hit": false,
      "t": 92194.95600000028,
      "d": 243.90200000000186,
      "v": 100
    },
    {
      "midi": 54,
      "hit": false,
      "t": 92194.95600000033,
      "d": 1.0162583333294606,
      "v": 80
    },
    {
      "midi": 75,
      "hit": false,
      "t": 92194.95600000034,
      "d": 121.95100000000093,
      "v": 100
    },
    {
      "midi": 72,
      "hit": false,
      "t": 92194.95600000044,
      "d": 121.95100000000093,
      "v": 100
    },
    {
      "midi": 67,
      "hit": false,
      "t": 92194.95600000044,
      "d": 121.95100000000093,
      "v": 100
    },
    {
      "midi": 63,
      "hit": false,
      "t": 92194.95600000044,
      "d": 121.95100000000093,
      "v": 100
    },
    {
      "midi": 33,
      "hit": false,
      "t": 92194.9560000005,
      "d": 1.0162583333294606,
      "v": 127
    },
    {
      "midi": 40,
      "hit": false,
      "t": 92194.9560000005,
      "d": 1.0162583333294606,
      "v": 100
    },
    {
      "midi": 46,
      "hit": false,
      "t": 92194.9560000005,
      "d": 1.0162583333294606,
      "v": 100
    },
    {
      "midi": 72,
      "hit": false,
      "t": 92194.95600001304,
      "d": 60.975500000145985,
      "v": 100
    },
    {
      "midi": 67,
      "hit": false,
      "t": 92194.95600001304,
      "d": 60.975500000145985,
      "v": 100
    },
    {
      "midi": 63,
      "hit": false,
      "t": 92194.95600001304,
      "d": 60.975500000145985,
      "v": 100
    },
    {
      "midi": 54,
      "hit": false,
      "t": 92316.90700000033,
      "d": 1.0162583333294606,
      "v": 60
    },
    {
      "midi": 75,
      "hit": false,
      "t": 92316.90700000034,
      "d": 121.95100000000093,
      "v": 100
    },
    {
      "midi": 44,
      "hit": false,
      "t": 92316.9070000005,
      "d": 1.0162583333294606,
      "v": 100
    },
    {
      "midi": 72,
      "hit": false,
      "t": 92316.90700001322,
      "d": 60.97550000001502,
      "v": 100
    },
    {
      "midi": 67,
      "hit": false,
      "t": 92316.90700001322,
      "d": 60.97550000001502,
      "v": 100
    },
    {
      "midi": 63,
      "hit": false,
      "t": 92316.90700001322,
      "d": 60.97550000001502,
      "v": 100
    },
    {
      "midi": 84,
      "hit": false,
      "t": 92438.85800000005,
      "d": 30.487750000000233,
      "v": 100
    },
    {
      "midi": 79,
      "hit": false,
      "t": 92438.85800000005,
      "d": 30.487750000000233,
      "v": 100
    },
    {
      "midi": 36,
      "hit": false,
      "t": 92438.8580000002,
      "d": 60.975500000000466,
      "v": 100
    },
    {
      "midi": 87,
      "hit": false,
      "t": 92438.85800000028,
      "d": 121.95100000000093,
      "v": 100
    },
    {
      "midi": 82,
      "hit": false,
      "t": 92438.85800000028,
      "d": 121.95100000000093,
      "v": 100
    },
    {
      "midi": 54,
      "hit": false,
      "t": 92438.85800000033,
      "d": 1.0162583333294606,
      "v": 60
    },
    {
      "midi": 82,
      "hit": false,
      "t": 92438.85800000034,
      "d": 121.95100000000093,
      "v": 100
    },
    {
      "midi": 72,
      "hit": false,
      "t": 92438.85800000044,
      "d": 121.95100000000093,
      "v": 100
    },
    {
      "midi": 67,
      "hit": false,
      "t": 92438.85800000044,
      "d": 121.95100000000093,
      "v": 100
    },
    {
      "midi": 63,
      "hit": false,
      "t": 92438.85800000044,
      "d": 121.95100000000093,
      "v": 100
    },
    {
      "midi": 46,
      "hit": false,
      "t": 92438.8580000005,
      "d": 1.0162583333294606,
      "v": 100
    },
    {
      "midi": 72,
      "hit": false,
      "t": 92438.85800001337,
      "d": 60.975500000000466,
      "v": 100
    },
    {
      "midi": 67,
      "hit": false,
      "t": 92438.85800001337,
      "d": 60.975500000000466,
      "v": 100
    },
    {
      "midi": 63,
      "hit": false,
      "t": 92438.85800001337,
      "d": 60.975500000000466,
      "v": 100
    },
    {
      "midi": 84,
      "hit": false,
      "t": 92560.80900000005,
      "d": 243.90200000000186,
      "v": 100
    },
    {
      "midi": 80,
      "hit": false,
      "t": 92560.80900000005,
      "d": 243.90200000000186,
      "v": 100
    },
    {
      "midi": 75,
      "hit": false,
      "t": 92560.80900000005,
      "d": 243.90200000000186,
      "v": 100
    },
    {
      "midi": 32,
      "hit": false,
      "t": 92560.8090000002,
      "d": 243.90200000000186,
      "v": 100
    },
    {
      "midi": 84,
      "hit": false,
      "t": 92560.80900000028,
      "d": 365.8530000000028,
      "v": 100
    },
    {
      "midi": 80,
      "hit": false,
      "t": 92560.80900000028,
      "d": 365.8530000000028,
      "v": 100
    },
    {
      "midi": 54,
      "hit": false,
      "t": 92560.80900000033,
      "d": 1.0162583333294606,
      "v": 60
    },
    {
      "midi": 82,
      "hit": false,
      "t": 92560.80900000034,
      "d": 121.95100000000093,
      "v": 100
    },
    {
      "midi": 44,
      "hit": false,
      "t": 92560.8090000005,
      "d": 1.0162583333294606,
      "v": 100
    },
    {
      "midi": 72,
      "hit": false,
      "t": 92560.80900001337,
      "d": 60.975500000000466,
      "v": 100
    },
    {
      "midi": 67,
      "hit": false,
      "t": 92560.80900001337,
      "d": 60.975500000000466,
      "v": 100
    },
    {
      "midi": 63,
      "hit": false,
      "t": 92560.80900001337,
      "d": 60.975500000000466,
      "v": 100
    },
    {
      "midi": 54,
      "hit": false,
      "t": 92682.76000000033,
      "d": 1.0162583333294606,
      "v": 80
    },
    {
      "midi": 84,
      "hit": false,
      "t": 92682.76000000034,
      "d": 121.95100000000093,
      "v": 100
    },
    {
      "midi": 68,
      "hit": false,
      "t": 92682.76000000045,
      "d": 121.95100000000093,
      "v": 100
    },
    {
      "midi": 63,
      "hit": false,
      "t": 92682.76000000045,
      "d": 121.95100000000093,
      "v": 100
    },
    {
      "midi": 60,
      "hit": false,
      "t": 92682.76000000045,
      "d": 121.95100000000093,
      "v": 100
    },
    {
      "midi": 33,
      "hit": false,
      "t": 92682.7600000005,
      "d": 1.0162583333294606,
      "v": 127
    },
    {
      "midi": 42,
      "hit": false,
      "t": 92682.7600000005,
      "d": 1.0162583333294606,
      "v": 100
    },
    {
      "midi": 44,
      "hit": false,
      "t": 92682.76000000066,
      "d": 975.6079999999929,
      "v": 100
    },
    {
      "midi": 51,
      "hit": false,
      "t": 92682.76000000066,
      "d": 975.6079999999929,
      "v": 100
    },
    {
      "midi": 68,
      "hit": false,
      "t": 92682.76000001337,
      "d": 60.975500000145985,
      "v": 100
    },
    {
      "midi": 63,
      "hit": false,
      "t": 92682.76000001337,
      "d": 60.975500000145985,
      "v": 100
    },
    {
      "midi": 60,
      "hit": false,
      "t": 92682.76000001337,
      "d": 60.975500000145985,
      "v": 100
    },
    {
      "midi": 84,
      "hit": false,
      "t": 92804.71100000005,
      "d": 121.95100000000093,
      "v": 100
    },
    {
      "midi": 80,
      "hit": false,
      "t": 92804.71100000005,
      "d": 121.95100000000093,
      "v": 100
    },
    {
      "midi": 75,
      "hit": false,
      "t": 92804.71100000005,
      "d": 121.95100000000093,
      "v": 100
    },
    {
      "midi": 32,
      "hit": false,
      "t": 92804.7110000002,
      "d": 121.95100000000093,
      "v": 100
    },
    {
      "midi": 54,
      "hit": false,
      "t": 92804.71100000033,
      "d": 1.0162583333294606,
      "v": 60
    },
    {
      "midi": 84,
      "hit": false,
      "t": 92804.71100000034,
      "d": 121.95100000000093,
      "v": 100
    },
    {
      "midi": 68,
      "hit": false,
      "t": 92804.71100000045,
      "d": 121.95100000000093,
      "v": 100
    },
    {
      "midi": 63,
      "hit": false,
      "t": 92804.71100000045,
      "d": 121.95100000000093,
      "v": 100
    },
    {
      "midi": 60,
      "hit": false,
      "t": 92804.71100000045,
      "d": 121.95100000000093,
      "v": 100
    },
    {
      "midi": 68,
      "hit": false,
      "t": 92804.71100001354,
      "d": 60.97550000001502,
      "v": 100
    },
    {
      "midi": 63,
      "hit": false,
      "t": 92804.71100001354,
      "d": 60.97550000001502,
      "v": 100
    },
    {
      "midi": 60,
      "hit": false,
      "t": 92804.71100001354,
      "d": 60.97550000001502,
      "v": 100
    },
    {
      "midi": 84,
      "hit": false,
      "t": 92926.66200000005,
      "d": 243.90200000000186,
      "v": 100
    },
    {
      "midi": 80,
      "hit": false,
      "t": 92926.66200000005,
      "d": 243.90200000000186,
      "v": 100
    },
    {
      "midi": 75,
      "hit": false,
      "t": 92926.66200000005,
      "d": 243.90200000000186,
      "v": 100
    },
    {
      "midi": 32,
      "hit": false,
      "t": 92926.6620000002,
      "d": 243.90200000000186,
      "v": 100
    },
    {
      "midi": 54,
      "hit": false,
      "t": 92926.66200000033,
      "d": 1.0162583333294606,
      "v": 60
    },
    {
      "midi": 80,
      "hit": false,
      "t": 92926.66200000035,
      "d": 121.95100000000093,
      "v": 100
    },
    {
      "midi": 46,
      "hit": false,
      "t": 92926.6620000005,
      "d": 1.0162583333294606,
      "v": 100
    },
    {
      "midi": 68,
      "hit": false,
      "t": 92926.66200001369,
      "d": 60.975500000000466,
      "v": 100
    },
    {
      "midi": 63,
      "hit": false,
      "t": 92926.66200001369,
      "d": 60.975500000000466,
      "v": 100
    },
    {
      "midi": 60,
      "hit": false,
      "t": 92926.66200001369,
      "d": 60.975500000000466,
      "v": 100
    },
    {
      "midi": 54,
      "hit": false,
      "t": 93048.61300000033,
      "d": 1.0162583333294606,
      "v": 60
    },
    {
      "midi": 80,
      "hit": false,
      "t": 93048.61300000035,
      "d": 121.95100000000093,
      "v": 100
    },
    {
      "midi": 68,
      "hit": false,
      "t": 93048.61300000045,
      "d": 121.95100000000093,
      "v": 100
    },
    {
      "midi": 63,
      "hit": false,
      "t": 93048.61300000045,
      "d": 121.95100000000093,
      "v": 100
    },
    {
      "midi": 60,
      "hit": false,
      "t": 93048.61300000045,
      "d": 121.95100000000093,
      "v": 100
    },
    {
      "midi": 44,
      "hit": false,
      "t": 93048.6130000005,
      "d": 1.0162583333294606,
      "v": 100
    },
    {
      "midi": 68,
      "hit": false,
      "t": 93048.61300001369,
      "d": 60.975500000000466,
      "v": 100
    },
    {
      "midi": 63,
      "hit": false,
      "t": 93048.61300001369,
      "d": 60.975500000000466,
      "v": 100
    },
    {
      "midi": 60,
      "hit": false,
      "t": 93048.61300001369,
      "d": 60.975500000000466,
      "v": 100
    },
    {
      "midi": 84,
      "hit": false,
      "t": 93170.56400000006,
      "d": 243.90200000000186,
      "v": 100
    },
    {
      "midi": 80,
      "hit": false,
      "t": 93170.56400000006,
      "d": 243.90200000000186,
      "v": 100
    },
    {
      "midi": 75,
      "hit": false,
      "t": 93170.56400000006,
      "d": 243.90200000000186,
      "v": 100
    },
    {
      "midi": 32,
      "hit": false,
      "t": 93170.5640000002,
      "d": 243.90200000000186,
      "v": 100
    },
    {
      "midi": 84,
      "hit": false,
      "t": 93170.56400000029,
      "d": 243.90200000000186,
      "v": 100
    },
    {
      "midi": 82,
      "hit": false,
      "t": 93170.56400000029,
      "d": 243.90200000000186,
      "v": 100
    },
    {
      "midi": 54,
      "hit": false,
      "t": 93170.56400000033,
      "d": 1.0162583333294606,
      "v": 80
    },
    {
      "midi": 75,
      "hit": false,
      "t": 93170.56400000035,
      "d": 121.95100000000093,
      "v": 100
    },
    {
      "midi": 33,
      "hit": false,
      "t": 93170.56400000051,
      "d": 1.0162583333294606,
      "v": 127
    },
    {
      "midi": 40,
      "hit": false,
      "t": 93170.56400000051,
      "d": 1.0162583333294606,
      "v": 100
    },
    {
      "midi": 46,
      "hit": false,
      "t": 93170.56400000051,
      "d": 1.0162583333294606,
      "v": 100
    },
    {
      "midi": 68,
      "hit": false,
      "t": 93170.56400001369,
      "d": 243.9020000002929,
      "v": 100
    },
    {
      "midi": 63,
      "hit": false,
      "t": 93170.56400001369,
      "d": 243.9020000002929,
      "v": 100
    },
    {
      "midi": 60,
      "hit": false,
      "t": 93170.56400001369,
      "d": 243.9020000002929,
      "v": 100
    },
    {
      "midi": 54,
      "hit": false,
      "t": 93292.51500000033,
      "d": 1.0162583333294606,
      "v": 60
    },
    {
      "midi": 75,
      "hit": false,
      "t": 93292.51500000035,
      "d": 121.95100000000093,
      "v": 100
    },
    {
      "midi": 44,
      "hit": false,
      "t": 93292.51500000051,
      "d": 1.0162583333294606,
      "v": 100
    },
    {
      "midi": 84,
      "hit": false,
      "t": 93414.46600000006,
      "d": 243.90200000000186,
      "v": 100
    },
    {
      "midi": 80,
      "hit": false,
      "t": 93414.46600000006,
      "d": 243.90200000000186,
      "v": 100
    },
    {
      "midi": 75,
      "hit": false,
      "t": 93414.46600000006,
      "d": 243.90200000000186,
      "v": 100
    },
    {
      "midi": 32,
      "hit": false,
      "t": 93414.4660000002,
      "d": 243.90200000000186,
      "v": 100
    },
    {
      "midi": 87,
      "hit": false,
      "t": 93414.46600000029,
      "d": 243.90200000000186,
      "v": 100
    },
    {
      "midi": 84,
      "hit": false,
      "t": 93414.46600000029,
      "d": 243.90200000000186,
      "v": 100
    },
    {
      "midi": 54,
      "hit": false,
      "t": 93414.46600000034,
      "d": 1.0162583333294606,
      "v": 60
    },
    {
      "midi": 72,
      "hit": false,
      "t": 93414.46600000035,
      "d": 121.95100000000093,
      "v": 100
    },
    {
      "midi": 40,
      "hit": false,
      "t": 93414.46600000051,
      "d": 1.0162583333294606,
      "v": 40
    },
    {
      "midi": 46,
      "hit": false,
      "t": 93414.46600000051,
      "d": 1.0162583333294606,
      "v": 100
    },
    {
      "midi": 68,
      "hit": false,
      "t": 93414.46600001398,
      "d": 60.975500000000466,
      "v": 100
    },
    {
      "midi": 63,
      "hit": false,
      "t": 93414.46600001398,
      "d": 60.975500000000466,
      "v": 100
    },
    {
      "midi": 60,
      "hit": false,
      "t": 93414.46600001398,
      "d": 60.975500000000466,
      "v": 100
    },
    {
      "midi": 54,
      "hit": false,
      "t": 93536.41700000034,
      "d": 1.0162583333294606,
      "v": 60
    },
    {
      "midi": 72,
      "hit": false,
      "t": 93536.41700000035,
      "d": 121.95100000000093,
      "v": 100
    },
    {
      "midi": 40,
      "hit": false,
      "t": 93536.41700000051,
      "d": 1.0162583333294606,
      "v": 100
    },
    {
      "midi": 44,
      "hit": false,
      "t": 93536.41700000051,
      "d": 1.0162583333294606,
      "v": 100
    },
    {
      "midi": 68,
      "hit": false,
      "t": 93536.41700001399,
      "d": 60.975500000000466,
      "v": 100
    },
    {
      "midi": 63,
      "hit": false,
      "t": 93536.41700001399,
      "d": 60.975500000000466,
      "v": 100
    },
    {
      "midi": 60,
      "hit": false,
      "t": 93536.41700001399,
      "d": 60.975500000000466,
      "v": 100
    },
    {
      "midi": 86,
      "hit": false,
      "t": 93658.36800000006,
      "d": 243.90200000000186,
      "v": 100
    },
    {
      "midi": 82,
      "hit": false,
      "t": 93658.36800000006,
      "d": 243.90200000000186,
      "v": 100
    },
    {
      "midi": 77,
      "hit": false,
      "t": 93658.36800000006,
      "d": 243.90200000000186,
      "v": 100
    },
    {
      "midi": 34,
      "hit": false,
      "t": 93658.3680000002,
      "d": 243.90200000000186,
      "v": 100
    },
    {
      "midi": 86,
      "hit": false,
      "t": 93658.3680000003,
      "d": 243.90200000000186,
      "v": 100
    },
    {
      "midi": 82,
      "hit": false,
      "t": 93658.3680000003,
      "d": 243.90200000000186,
      "v": 100
    },
    {
      "midi": 54,
      "hit": false,
      "t": 93658.36800000034,
      "d": 1.0162583333294606,
      "v": 80
    },
    {
      "midi": 70,
      "hit": false,
      "t": 93658.36800000035,
      "d": 121.95100000000093,
      "v": 100
    },
    {
      "midi": 33,
      "hit": false,
      "t": 93658.36800000051,
      "d": 1.0162583333294606,
      "v": 127
    },
    {
      "midi": 42,
      "hit": false,
      "t": 93658.36800000051,
      "d": 1.0162583333294606,
      "v": 100
    },
    {
      "midi": 46,
      "hit": false,
      "t": 93658.36800000066,
      "d": 975.6079999999929,
      "v": 100
    },
    {
      "midi": 53,
      "hit": false,
      "t": 93658.36800000066,
      "d": 975.6079999999929,
      "v": 100
    },
    {
      "midi": 70,
      "hit": false,
      "t": 93658.36800001399,
      "d": 487.8040000002802,
      "v": 100
    },
    {
      "midi": 65,
      "hit": false,
      "t": 93658.36800001399,
      "d": 487.8040000002802,
      "v": 100
    },
    {
      "midi": 62,
      "hit": false,
      "t": 93658.36800001399,
      "d": 487.8040000002802,
      "v": 100
    },
    {
      "midi": 54,
      "hit": false,
      "t": 93780.31900000034,
      "d": 1.0162583333294606,
      "v": 60
    },
    {
      "midi": 70,
      "hit": false,
      "t": 93780.31900000035,
      "d": 121.95100000000093,
      "v": 100
    },
    {
      "midi": 70,
      "hit": false,
      "t": 93780.31900000045,
      "d": 121.95100000000093,
      "v": 100
    },
    {
      "midi": 65,
      "hit": false,
      "t": 93780.31900000045,
      "d": 121.95100000000093,
      "v": 100
    },
    {
      "midi": 62,
      "hit": false,
      "t": 93780.31900000045,
      "d": 121.95100000000093,
      "v": 100
    },
    {
      "midi": 34,
      "hit": false,
      "t": 93902.27000000021,
      "d": 243.90200000000186,
      "v": 100
    },
    {
      "midi": 82,
      "hit": false,
      "t": 93902.2700000003,
      "d": 121.95100000000093,
      "v": 100
    },
    {
      "midi": 79,
      "hit": false,
      "t": 93902.2700000003,
      "d": 121.95100000000093,
      "v": 100
    },
    {
      "midi": 54,
      "hit": false,
      "t": 93902.27000000034,
      "d": 1.0162583333294606,
      "v": 60
    },
    {
      "midi": 74,
      "hit": false,
      "t": 93902.27000000035,
      "d": 121.95100000000093,
      "v": 100
    },
    {
      "midi": 70,
      "hit": false,
      "t": 93902.27000000046,
      "d": 121.95100000000093,
      "v": 100
    },
    {
      "midi": 65,
      "hit": false,
      "t": 93902.27000000046,
      "d": 121.95100000000093,
      "v": 100
    },
    {
      "midi": 62,
      "hit": false,
      "t": 93902.27000000046,
      "d": 121.95100000000093,
      "v": 100
    },
    {
      "midi": 46,
      "hit": false,
      "t": 93902.27000000051,
      "d": 1.0162583333294606,
      "v": 100
    },
    {
      "midi": 54,
      "hit": false,
      "t": 94024.22100000034,
      "d": 1.0162583333294606,
      "v": 60
    },
    {
      "midi": 74,
      "hit": false,
      "t": 94024.22100000035,
      "d": 121.95100000000093,
      "v": 100
    },
    {
      "midi": 44,
      "hit": false,
      "t": 94024.22100000051,
      "d": 1.0162583333294606,
      "v": 100
    },
    {
      "midi": 82,
      "hit": false,
      "t": 94146.17200000006,
      "d": 243.90200000000186,
      "v": 100
    },
    {
      "midi": 77,
      "hit": false,
      "t": 94146.17200000006,
      "d": 243.90200000000186,
      "v": 100
    },
    {
      "midi": 34,
      "hit": false,
      "t": 94146.17200000021,
      "d": 243.90200000000186,
      "v": 100
    },
    {
      "midi": 82,
      "hit": false,
      "t": 94146.1720000003,
      "d": 243.90200000000186,
      "v": 100
    },
    {
      "midi": 79,
      "hit": false,
      "t": 94146.1720000003,
      "d": 243.90200000000186,
      "v": 100
    },
    {
      "midi": 54,
      "hit": false,
      "t": 94146.17200000034,
      "d": 1.0162583333294606,
      "v": 80
    },
    {
      "midi": 70,
      "hit": false,
      "t": 94146.17200000036,
      "d": 121.95100000000093,
      "v": 100
    },
    {
      "midi": 70,
      "hit": false,
      "t": 94146.17200000046,
      "d": 121.95100000000093,
      "v": 100
    },
    {
      "midi": 65,
      "hit": false,
      "t": 94146.17200000046,
      "d": 121.95100000000093,
      "v": 100
    },
    {
      "midi": 62,
      "hit": false,
      "t": 94146.17200000046,
      "d": 121.95100000000093,
      "v": 100
    },
    {
      "midi": 33,
      "hit": false,
      "t": 94146.17200000052,
      "d": 1.0162583333294606,
      "v": 127
    },
    {
      "midi": 40,
      "hit": false,
      "t": 94146.17200000052,
      "d": 1.0162583333294606,
      "v": 100
    },
    {
      "midi": 46,
      "hit": false,
      "t": 94146.17200000052,
      "d": 1.0162583333294606,
      "v": 100
    },
    {
      "midi": 70,
      "hit": false,
      "t": 94146.17200001427,
      "d": 60.975500000145985,
      "v": 100
    },
    {
      "midi": 65,
      "hit": false,
      "t": 94146.17200001427,
      "d": 60.975500000145985,
      "v": 100
    },
    {
      "midi": 62,
      "hit": false,
      "t": 94146.17200001427,
      "d": 60.975500000145985,
      "v": 100
    },
    {
      "midi": 54,
      "hit": false,
      "t": 94268.12300000034,
      "d": 1.0162583333294606,
      "v": 60
    },
    {
      "midi": 70,
      "hit": false,
      "t": 94268.12300000036,
      "d": 121.95100000000093,
      "v": 100
    },
    {
      "midi": 44,
      "hit": false,
      "t": 94268.12300000052,
      "d": 1.0162583333294606,
      "v": 100
    },
    {
      "midi": 70,
      "hit": false,
      "t": 94268.12300001444,
      "d": 60.97550000001502,
      "v": 100
    },
    {
      "midi": 65,
      "hit": false,
      "t": 94268.12300001444,
      "d": 60.97550000001502,
      "v": 100
    },
    {
      "midi": 62,
      "hit": false,
      "t": 94268.12300001444,
      "d": 60.97550000001502,
      "v": 100
    },
    {
      "midi": 77,
      "hit": false,
      "t": 94390.07400000007,
      "d": 40.650333333338494,
      "v": 100
    },
    {
      "midi": 82,
      "hit": false,
      "t": 94390.07400000007,
      "d": 40.650333333338494,
      "v": 100
    },
    {
      "midi": 34,
      "hit": false,
      "t": 94390.07400000021,
      "d": 71.13808333333873,
      "v": 100
    },
    {
      "midi": 79,
      "hit": false,
      "t": 94390.0740000003,
      "d": 121.95100000000093,
      "v": 100
    },
    {
      "midi": 75,
      "hit": false,
      "t": 94390.0740000003,
      "d": 121.95100000000093,
      "v": 100
    },
    {
      "midi": 54,
      "hit": false,
      "t": 94390.07400000034,
      "d": 1.0162583333294606,
      "v": 60
    },
    {
      "midi": 79,
      "hit": false,
      "t": 94390.07400000036,
      "d": 121.95100000000093,
      "v": 100
    },
    {
      "midi": 70,
      "hit": false,
      "t": 94390.07400000046,
      "d": 121.95100000000093,
      "v": 100
    },
    {
      "midi": 65,
      "hit": false,
      "t": 94390.07400000046,
      "d": 121.95100000000093,
      "v": 100
    },
    {
      "midi": 62,
      "hit": false,
      "t": 94390.07400000046,
      "d": 121.95100000000093,
      "v": 100
    },
    {
      "midi": 46,
      "hit": false,
      "t": 94390.07400000052,
      "d": 1.0162583333294606,
      "v": 100
    },
    {
      "midi": 70,
      "hit": false,
      "t": 94390.07400001459,
      "d": 60.975500000000466,
      "v": 100
    },
    {
      "midi": 65,
      "hit": false,
      "t": 94390.07400001459,
      "d": 60.975500000000466,
      "v": 100
    },
    {
      "midi": 62,
      "hit": false,
      "t": 94390.07400001459,
      "d": 60.975500000000466,
      "v": 100
    },
    {
      "midi": 82,
      "hit": false,
      "t": 94512.02500000007,
      "d": 243.90200000000186,
      "v": 100
    },
    {
      "midi": 77,
      "hit": false,
      "t": 94512.02500000007,
      "d": 243.90200000000186,
      "v": 100
    },
    {
      "midi": 74,
      "hit": false,
      "t": 94512.02500000007,
      "d": 325.2026666666643,
      "v": 100
    },
    {
      "midi": 31,
      "hit": false,
      "t": 94512.02500000021,
      "d": 243.90200000000186,
      "v": 100
    },
    {
      "midi": 82,
      "hit": false,
      "t": 94512.0250000003,
      "d": 487.8040000000037,
      "v": 100
    },
    {
      "midi": 79,
      "hit": false,
      "t": 94512.0250000003,
      "d": 487.8040000000037,
      "v": 100
    },
    {
      "midi": 54,
      "hit": false,
      "t": 94512.02500000034,
      "d": 1.0162583333294606,
      "v": 60
    },
    {
      "midi": 79,
      "hit": false,
      "t": 94512.02500000036,
      "d": 121.95100000000093,
      "v": 100
    },
    {
      "midi": 44,
      "hit": false,
      "t": 94512.02500000052,
      "d": 1.0162583333294606,
      "v": 100
    },
    {
      "midi": 70,
      "hit": false,
      "t": 94512.02500001459,
      "d": 60.975500000000466,
      "v": 100
    },
    {
      "midi": 65,
      "hit": false,
      "t": 94512.02500001459,
      "d": 60.975500000000466,
      "v": 100
    },
    {
      "midi": 62,
      "hit": false,
      "t": 94512.02500001459,
      "d": 60.975500000000466,
      "v": 100
    },
    {
      "midi": 54,
      "hit": false,
      "t": 94633.97600000034,
      "d": 1.0162583333294606,
      "v": 80
    },
    {
      "midi": 79,
      "hit": false,
      "t": 94633.97600000036,
      "d": 121.95100000000093,
      "v": 100
    },
    {
      "midi": 67,
      "hit": false,
      "t": 94633.97600000046,
      "d": 121.95100000000093,
      "v": 100
    },
    {
      "midi": 63,
      "hit": false,
      "t": 94633.97600000046,
      "d": 121.95100000000093,
      "v": 100
    },
    {
      "midi": 58,
      "hit": false,
      "t": 94633.97600000046,
      "d": 121.95100000000093,
      "v": 100
    },
    {
      "midi": 33,
      "hit": false,
      "t": 94633.97600000052,
      "d": 1.0162583333294606,
      "v": 127
    },
    {
      "midi": 42,
      "hit": false,
      "t": 94633.97600000052,
      "d": 1.0162583333294606,
      "v": 100
    },
    {
      "midi": 50,
      "hit": false,
      "t": 94633.97600000065,
      "d": 975.6079999999929,
      "v": 100
    },
    {
      "midi": 43,
      "hit": false,
      "t": 94633.97600000065,
      "d": 975.6079999999929,
      "v": 100
    },
    {
      "midi": 67,
      "hit": false,
      "t": 94633.97600001459,
      "d": 60.975500000145985,
      "v": 100
    },
    {
      "midi": 62,
      "hit": false,
      "t": 94633.97600001459,
      "d": 60.975500000145985,
      "v": 100
    },
    {
      "midi": 58,
      "hit": false,
      "t": 94633.97600001459,
      "d": 60.975500000145985,
      "v": 100
    },
    {
      "midi": 31,
      "hit": false,
      "t": 94755.92700000021,
      "d": 121.95100000000093,
      "v": 100
    },
    {
      "midi": 54,
      "hit": false,
      "t": 94755.92700000035,
      "d": 1.0162583333294606,
      "v": 60
    },
    {
      "midi": 79,
      "hit": false,
      "t": 94755.92700000036,
      "d": 121.95100000000093,
      "v": 100
    },
    {
      "midi": 67,
      "hit": false,
      "t": 94755.92700000046,
      "d": 121.95100000000093,
      "v": 100
    },
    {
      "midi": 63,
      "hit": false,
      "t": 94755.92700000046,
      "d": 121.95100000000093,
      "v": 100
    },
    {
      "midi": 58,
      "hit": false,
      "t": 94755.92700000046,
      "d": 121.95100000000093,
      "v": 100
    },
    {
      "midi": 67,
      "hit": false,
      "t": 94755.92700001477,
      "d": 60.97550000001502,
      "v": 100
    },
    {
      "midi": 62,
      "hit": false,
      "t": 94755.92700001477,
      "d": 60.97550000001502,
      "v": 100
    },
    {
      "midi": 58,
      "hit": false,
      "t": 94755.92700001477,
      "d": 60.97550000001502,
      "v": 100
    },
    {
      "midi": 74,
      "hit": false,
      "t": 94877.87800000007,
      "d": 243.90200000000186,
      "v": 100
    },
    {
      "midi": 82,
      "hit": false,
      "t": 94877.87800000007,
      "d": 243.90200000000186,
      "v": 100
    },
    {
      "midi": 77,
      "hit": false,
      "t": 94877.87800000007,
      "d": 243.90200000000186,
      "v": 100
    },
    {
      "midi": 31,
      "hit": false,
      "t": 94877.87800000022,
      "d": 243.90200000000186,
      "v": 100
    },
    {
      "midi": 54,
      "hit": false,
      "t": 94877.87800000035,
      "d": 1.0162583333294606,
      "v": 60
    },
    {
      "midi": 79,
      "hit": false,
      "t": 94877.87800000036,
      "d": 121.95100000000093,
      "v": 100
    },
    {
      "midi": 46,
      "hit": false,
      "t": 94877.87800000052,
      "d": 1.0162583333294606,
      "v": 100
    },
    {
      "midi": 67,
      "hit": false,
      "t": 94877.87800001491,
      "d": 60.975500000000466,
      "v": 100
    },
    {
      "midi": 62,
      "hit": false,
      "t": 94877.87800001491,
      "d": 60.975500000000466,
      "v": 100
    },
    {
      "midi": 58,
      "hit": false,
      "t": 94877.87800001491,
      "d": 60.975500000000466,
      "v": 100
    },
    {
      "midi": 54,
      "hit": false,
      "t": 94999.82900000035,
      "d": 1.0162583333294606,
      "v": 60
    },
    {
      "midi": 79,
      "hit": false,
      "t": 94999.82900000036,
      "d": 121.95100000000093,
      "v": 100
    },
    {
      "midi": 67,
      "hit": false,
      "t": 94999.82900000046,
      "d": 121.95100000000093,
      "v": 100
    },
    {
      "midi": 63,
      "hit": false,
      "t": 94999.82900000046,
      "d": 121.95100000000093,
      "v": 100
    },
    {
      "midi": 58,
      "hit": false,
      "t": 94999.82900000046,
      "d": 121.95100000000093,
      "v": 100
    },
    {
      "midi": 44,
      "hit": false,
      "t": 94999.82900000052,
      "d": 1.0162583333294606,
      "v": 100
    },
    {
      "midi": 67,
      "hit": false,
      "t": 94999.82900001491,
      "d": 60.975500000000466,
      "v": 100
    },
    {
      "midi": 62,
      "hit": false,
      "t": 94999.82900001491,
      "d": 60.975500000000466,
      "v": 100
    },
    {
      "midi": 58,
      "hit": false,
      "t": 94999.82900001491,
      "d": 60.975500000000466,
      "v": 100
    },
    {
      "midi": 74,
      "hit": false,
      "t": 95121.78000000007,
      "d": 243.90200000000186,
      "v": 100
    },
    {
      "midi": 79,
      "hit": false,
      "t": 95121.78000000007,
      "d": 243.90200000000186,
      "v": 100
    },
    {
      "midi": 77,
      "hit": false,
      "t": 95121.78000000007,
      "d": 243.90200000000186,
      "v": 100
    },
    {
      "midi": 29,
      "hit": false,
      "t": 95121.78000000022,
      "d": 243.90200000000186,
      "v": 100
    },
    {
      "midi": 80,
      "hit": false,
      "t": 95121.7800000003,
      "d": 243.90200000000186,
      "v": 100
    },
    {
      "midi": 77,
      "hit": false,
      "t": 95121.7800000003,
      "d": 243.90200000000186,
      "v": 100
    },
    {
      "midi": 54,
      "hit": false,
      "t": 95121.78000000035,
      "d": 1.0162583333294606,
      "v": 80
    },
    {
      "midi": 74,
      "hit": false,
      "t": 95121.78000000036,
      "d": 121.95100000000093,
      "v": 100
    },
    {
      "midi": 33,
      "hit": false,
      "t": 95121.78000000052,
      "d": 1.0162583333294606,
      "v": 127
    },
    {
      "midi": 40,
      "hit": false,
      "t": 95121.78000000052,
      "d": 1.0162583333294606,
      "v": 100
    },
    {
      "midi": 46,
      "hit": false,
      "t": 95121.78000000052,
      "d": 1.0162583333294606,
      "v": 100
    },
    {
      "midi": 67,
      "hit": false,
      "t": 95121.78000001491,
      "d": 243.9020000002929,
      "v": 100
    },
    {
      "midi": 62,
      "hit": false,
      "t": 95121.78000001491,
      "d": 243.9020000002929,
      "v": 100
    },
    {
      "midi": 58,
      "hit": false,
      "t": 95121.78000001491,
      "d": 243.9020000002929,
      "v": 100
    },
    {
      "midi": 54,
      "hit": false,
      "t": 95243.73100000035,
      "d": 1.0162583333294606,
      "v": 60
    },
    {
      "midi": 74,
      "hit": false,
      "t": 95243.73100000036,
      "d": 121.95100000000093,
      "v": 100
    },
    {
      "midi": 44,
      "hit": false,
      "t": 95243.73100000052,
      "d": 1.0162583333294606,
      "v": 100
    },
    {
      "midi": 74,
      "hit": false,
      "t": 95365.68200000007,
      "d": 243.90200000000186,
      "v": 100
    },
    {
      "midi": 82,
      "hit": false,
      "t": 95365.68200000007,
      "d": 243.90200000000186,
      "v": 100
    },
    {
      "midi": 77,
      "hit": false,
      "t": 95365.68200000007,
      "d": 243.90200000000186,
      "v": 100
    },
    {
      "midi": 31,
      "hit": false,
      "t": 95365.68200000022,
      "d": 243.90200000000186,
      "v": 100
    },
    {
      "midi": 82,
      "hit": false,
      "t": 95365.6820000003,
      "d": 243.90200000000186,
      "v": 100
    },
    {
      "midi": 79,
      "hit": false,
      "t": 95365.6820000003,
      "d": 243.90200000000186,
      "v": 100
    },
    {
      "midi": 54,
      "hit": false,
      "t": 95365.68200000035,
      "d": 1.0162583333294606,
      "v": 60
    },
    {
      "midi": 79,
      "hit": false,
      "t": 95365.68200000036,
      "d": 121.95100000000093,
      "v": 100
    },
    {
      "midi": 40,
      "hit": false,
      "t": 95365.68200000052,
      "d": 1.0162583333294606,
      "v": 40
    },
    {
      "midi": 46,
      "hit": false,
      "t": 95365.68200000052,
      "d": 1.0162583333294606,
      "v": 100
    },
    {
      "midi": 67,
      "hit": false,
      "t": 95365.68200001521,
      "d": 60.975500000000466,
      "v": 100
    },
    {
      "midi": 62,
      "hit": false,
      "t": 95365.68200001521,
      "d": 60.975500000000466,
      "v": 100
    },
    {
      "midi": 58,
      "hit": false,
      "t": 95365.68200001521,
      "d": 60.975500000000466,
      "v": 100
    },
    {
      "midi": 54,
      "hit": false,
      "t": 95487.63300000035,
      "d": 1.0162583333294606,
      "v": 60
    },
    {
      "midi": 79,
      "hit": false,
      "t": 95487.63300000037,
      "d": 121.95100000000093,
      "v": 100
    },
    {
      "midi": 40,
      "hit": false,
      "t": 95487.63300000053,
      "d": 1.0162583333294606,
      "v": 100
    },
    {
      "midi": 44,
      "hit": false,
      "t": 95487.63300000053,
      "d": 1.0162583333294606,
      "v": 100
    },
    {
      "midi": 67,
      "hit": false,
      "t": 95487.63300001521,
      "d": 60.975500000000466,
      "v": 100
    },
    {
      "midi": 62,
      "hit": false,
      "t": 95487.63300001521,
      "d": 60.975500000000466,
      "v": 100
    },
    {
      "midi": 58,
      "hit": false,
      "t": 95487.63300001521,
      "d": 60.975500000000466,
      "v": 100
    },
    {
      "midi": 80,
      "hit": false,
      "t": 95609.58400000008,
      "d": 243.90200000000186,
      "v": 100
    },
    {
      "midi": 75,
      "hit": false,
      "t": 95609.58400000008,
      "d": 243.90200000000186,
      "v": 100
    },
    {
      "midi": 72,
      "hit": false,
      "t": 95609.58400000008,
      "d": 243.90200000000186,
      "v": 100
    },
    {
      "midi": 32,
      "hit": false,
      "t": 95609.58400000022,
      "d": 243.90200000000186,
      "v": 100
    },
    {
      "midi": 80,
      "hit": false,
      "t": 95609.58400000031,
      "d": 243.90200000000186,
      "v": 100
    },
    {
      "midi": 75,
      "hit": false,
      "t": 95609.58400000031,
      "d": 243.90200000000186,
      "v": 100
    },
    {
      "midi": 54,
      "hit": false,
      "t": 95609.58400000035,
      "d": 1.0162583333294606,
      "v": 80
    },
    {
      "midi": 72,
      "hit": false,
      "t": 95609.58400000037,
      "d": 121.95100000000093,
      "v": 100
    },
    {
      "midi": 33,
      "hit": false,
      "t": 95609.58400000053,
      "d": 1.0162583333294606,
      "v": 127
    },
    {
      "midi": 42,
      "hit": false,
      "t": 95609.58400000053,
      "d": 1.0162583333294606,
      "v": 100
    },
    {
      "midi": 44,
      "hit": false,
      "t": 95609.58400000064,
      "d": 975.6079999999929,
      "v": 100
    },
    {
      "midi": 51,
      "hit": false,
      "t": 95609.58400000064,
      "d": 975.6079999999929,
      "v": 100
    },
    {
      "midi": 68,
      "hit": false,
      "t": 95609.58400001521,
      "d": 487.8040000002802,
      "v": 100
    },
    {
      "midi": 63,
      "hit": false,
      "t": 95609.58400001521,
      "d": 487.8040000002802,
      "v": 100
    },
    {
      "midi": 60,
      "hit": false,
      "t": 95609.58400001521,
      "d": 487.8040000002802,
      "v": 100
    },
    {
      "midi": 54,
      "hit": false,
      "t": 95731.53500000035,
      "d": 1.0162583333294606,
      "v": 60
    },
    {
      "midi": 72,
      "hit": false,
      "t": 95731.53500000037,
      "d": 121.95100000000093,
      "v": 100
    },
    {
      "midi": 68,
      "hit": false,
      "t": 95731.53500000047,
      "d": 121.95100000000093,
      "v": 100
    },
    {
      "midi": 63,
      "hit": false,
      "t": 95731.53500000047,
      "d": 121.95100000000093,
      "v": 100
    },
    {
      "midi": 60,
      "hit": false,
      "t": 95731.53500000047,
      "d": 121.95100000000093,
      "v": 100
    },
    {
      "midi": 32,
      "hit": false,
      "t": 95853.48600000022,
      "d": 243.90200000000186,
      "v": 100
    },
    {
      "midi": 54,
      "hit": false,
      "t": 95853.48600000035,
      "d": 1.0162583333294606,
      "v": 60
    },
    {
      "midi": 68,
      "hit": false,
      "t": 95853.48600000037,
      "d": 121.95100000000093,
      "v": 100
    },
    {
      "midi": 68,
      "hit": false,
      "t": 95853.48600000047,
      "d": 121.95100000000093,
      "v": 100
    },
    {
      "midi": 63,
      "hit": false,
      "t": 95853.48600000047,
      "d": 121.95100000000093,
      "v": 100
    },
    {
      "midi": 60,
      "hit": false,
      "t": 95853.48600000047,
      "d": 121.95100000000093,
      "v": 100
    },
    {
      "midi": 46,
      "hit": false,
      "t": 95853.48600000053,
      "d": 1.0162583333294606,
      "v": 100
    },
    {
      "midi": 54,
      "hit": false,
      "t": 95975.43700000035,
      "d": 1.0162583333294606,
      "v": 60
    },
    {
      "midi": 68,
      "hit": false,
      "t": 95975.43700000037,
      "d": 121.95100000000093,
      "v": 100
    },
    {
      "midi": 44,
      "hit": false,
      "t": 95975.43700000053,
      "d": 1.0162583333294606,
      "v": 100
    },
    {
      "midi": 80,
      "hit": false,
      "t": 96097.38800000008,
      "d": 243.90200000000186,
      "v": 100
    },
    {
      "midi": 75,
      "hit": false,
      "t": 96097.38800000008,
      "d": 243.90200000000186,
      "v": 100
    },
    {
      "midi": 72,
      "hit": false,
      "t": 96097.38800000008,
      "d": 243.90200000000186,
      "v": 100
    },
    {
      "midi": 32,
      "hit": false,
      "t": 96097.38800000022,
      "d": 243.90200000000186,
      "v": 100
    },
    {
      "midi": 80,
      "hit": false,
      "t": 96097.38800000031,
      "d": 243.90200000000186,
      "v": 100
    },
    {
      "midi": 75,
      "hit": false,
      "t": 96097.38800000031,
      "d": 243.90200000000186,
      "v": 100
    },
    {
      "midi": 54,
      "hit": false,
      "t": 96097.38800000036,
      "d": 1.0162583333294606,
      "v": 80
    },
    {
      "midi": 72,
      "hit": false,
      "t": 96097.38800000037,
      "d": 121.95100000000093,
      "v": 100
    },
    {
      "midi": 68,
      "hit": false,
      "t": 96097.38800000047,
      "d": 121.95100000000093,
      "v": 100
    },
    {
      "midi": 63,
      "hit": false,
      "t": 96097.38800000047,
      "d": 121.95100000000093,
      "v": 100
    },
    {
      "midi": 60,
      "hit": false,
      "t": 96097.38800000047,
      "d": 121.95100000000093,
      "v": 100
    },
    {
      "midi": 33,
      "hit": false,
      "t": 96097.38800000053,
      "d": 1.0162583333294606,
      "v": 127
    },
    {
      "midi": 40,
      "hit": false,
      "t": 96097.38800000053,
      "d": 1.0162583333294606,
      "v": 100
    },
    {
      "midi": 46,
      "hit": false,
      "t": 96097.38800000053,
      "d": 1.0162583333294606,
      "v": 100
    },
    {
      "midi": 68,
      "hit": false,
      "t": 96097.38800001549,
      "d": 60.975500000145985,
      "v": 100
    },
    {
      "midi": 63,
      "hit": false,
      "t": 96097.38800001549,
      "d": 60.975500000145985,
      "v": 100
    },
    {
      "midi": 60,
      "hit": false,
      "t": 96097.38800001549,
      "d": 60.975500000145985,
      "v": 100
    },
    {
      "midi": 54,
      "hit": false,
      "t": 96219.33900000036,
      "d": 1.0162583333294606,
      "v": 60
    },
    {
      "midi": 72,
      "hit": false,
      "t": 96219.33900000037,
      "d": 121.95100000000093,
      "v": 100
    },
    {
      "midi": 44,
      "hit": false,
      "t": 96219.33900000053,
      "d": 1.0162583333294606,
      "v": 100
    },
    {
      "midi": 68,
      "hit": false,
      "t": 96219.33900001567,
      "d": 60.97550000001502,
      "v": 100
    },
    {
      "midi": 63,
      "hit": false,
      "t": 96219.33900001567,
      "d": 60.97550000001502,
      "v": 100
    },
    {
      "midi": 60,
      "hit": false,
      "t": 96219.33900001567,
      "d": 60.97550000001502,
      "v": 100
    },
    {
      "midi": 32,
      "hit": false,
      "t": 96341.29000000023,
      "d": 71.13808333333873,
      "v": 100
    },
    {
      "midi": 82,
      "hit": false,
      "t": 96341.29000000031,
      "d": 121.95100000000093,
      "v": 100
    },
    {
      "midi": 77,
      "hit": false,
      "t": 96341.29000000031,
      "d": 121.95100000000093,
      "v": 100
    },
    {
      "midi": 54,
      "hit": false,
      "t": 96341.29000000036,
      "d": 1.0162583333294606,
      "v": 60
    },
    {
      "midi": 77,
      "hit": false,
      "t": 96341.29000000037,
      "d": 121.95100000000093,
      "v": 100
    },
    {
      "midi": 68,
      "hit": false,
      "t": 96341.29000000047,
      "d": 121.95100000000093,
      "v": 100
    },
    {
      "midi": 63,
      "hit": false,
      "t": 96341.29000000047,
      "d": 121.95100000000093,
      "v": 100
    },
    {
      "midi": 60,
      "hit": false,
      "t": 96341.29000000047,
      "d": 121.95100000000093,
      "v": 100
    },
    {
      "midi": 46,
      "hit": false,
      "t": 96341.29000000053,
      "d": 1.0162583333294606,
      "v": 100
    },
    {
      "midi": 68,
      "hit": false,
      "t": 96341.29000001581,
      "d": 60.975500000000466,
      "v": 100
    },
    {
      "midi": 63,
      "hit": false,
      "t": 96341.29000001581,
      "d": 60.975500000000466,
      "v": 100
    },
    {
      "midi": 60,
      "hit": false,
      "t": 96341.29000001581,
      "d": 60.975500000000466,
      "v": 100
    },
    {
      "midi": 77,
      "hit": false,
      "t": 96463.24100000008,
      "d": 365.8530000000028,
      "v": 100
    },
    {
      "midi": 75,
      "hit": false,
      "t": 96463.24100000008,
      "d": 365.8530000000028,
      "v": 100
    },
    {
      "midi": 72,
      "hit": false,
      "t": 96463.24100000008,
      "d": 365.8530000000028,
      "v": 100
    },
    {
      "midi": 29,
      "hit": false,
      "t": 96463.24100000023,
      "d": 243.90200000000186,
      "v": 100
    },
    {
      "midi": 77,
      "hit": false,
      "t": 96463.24100000031,
      "d": 487.8040000000037,
      "v": 100
    },
    {
      "midi": 72,
      "hit": false,
      "t": 96463.24100000031,
      "d": 487.8040000000037,
      "v": 100
    },
    {
      "midi": 54,
      "hit": false,
      "t": 96463.24100000036,
      "d": 1.0162583333294606,
      "v": 60
    },
    {
      "midi": 77,
      "hit": false,
      "t": 96463.24100000037,
      "d": 121.95100000000093,
      "v": 100
    },
    {
      "midi": 44,
      "hit": false,
      "t": 96463.24100000053,
      "d": 1.0162583333294606,
      "v": 100
    },
    {
      "midi": 68,
      "hit": false,
      "t": 96463.24100001581,
      "d": 60.975500000000466,
      "v": 100
    },
    {
      "midi": 63,
      "hit": false,
      "t": 96463.24100001581,
      "d": 60.975500000000466,
      "v": 100
    },
    {
      "midi": 60,
      "hit": false,
      "t": 96463.24100001581,
      "d": 60.975500000000466,
      "v": 100
    },
    {
      "midi": 54,
      "hit": false,
      "t": 96585.19200000036,
      "d": 1.0162583333294606,
      "v": 80
    },
    {
      "midi": 77,
      "hit": false,
      "t": 96585.19200000037,
      "d": 121.95100000000093,
      "v": 100
    },
    {
      "midi": 68,
      "hit": false,
      "t": 96585.19200000048,
      "d": 121.95100000000093,
      "v": 100
    },
    {
      "midi": 63,
      "hit": false,
      "t": 96585.19200000048,
      "d": 121.95100000000093,
      "v": 100
    },
    {
      "midi": 60,
      "hit": false,
      "t": 96585.19200000048,
      "d": 121.95100000000093,
      "v": 100
    },
    {
      "midi": 33,
      "hit": false,
      "t": 96585.19200000053,
      "d": 1.0162583333294606,
      "v": 127
    },
    {
      "midi": 42,
      "hit": false,
      "t": 96585.19200000053,
      "d": 1.0162583333294606,
      "v": 100
    },
    {
      "midi": 48,
      "hit": false,
      "t": 96585.19200000064,
      "d": 975.6079999999929,
      "v": 100
    },
    {
      "midi": 41,
      "hit": false,
      "t": 96585.19200000064,
      "d": 975.6079999999929,
      "v": 100
    },
    {
      "midi": 68,
      "hit": false,
      "t": 96585.19200001581,
      "d": 60.975500000145985,
      "v": 100
    },
    {
      "midi": 63,
      "hit": false,
      "t": 96585.19200001581,
      "d": 60.975500000145985,
      "v": 100
    },
    {
      "midi": 60,
      "hit": false,
      "t": 96585.19200001581,
      "d": 60.975500000145985,
      "v": 100
    },
    {
      "midi": 29,
      "hit": false,
      "t": 96707.14300000023,
      "d": 121.95100000000093,
      "v": 100
    },
    {
      "midi": 54,
      "hit": false,
      "t": 96707.14300000036,
      "d": 1.0162583333294606,
      "v": 60
    },
    {
      "midi": 77,
      "hit": false,
      "t": 96707.14300000037,
      "d": 121.95100000000093,
      "v": 100
    },
    {
      "midi": 68,
      "hit": false,
      "t": 96707.14300000048,
      "d": 121.95100000000093,
      "v": 100
    },
    {
      "midi": 63,
      "hit": false,
      "t": 96707.14300000048,
      "d": 121.95100000000093,
      "v": 100
    },
    {
      "midi": 60,
      "hit": false,
      "t": 96707.14300000048,
      "d": 121.95100000000093,
      "v": 100
    },
    {
      "midi": 68,
      "hit": false,
      "t": 96707.14300001599,
      "d": 60.97550000001502,
      "v": 100
    },
    {
      "midi": 63,
      "hit": false,
      "t": 96707.14300001599,
      "d": 60.97550000001502,
      "v": 100
    },
    {
      "midi": 60,
      "hit": false,
      "t": 96707.14300001599,
      "d": 60.97550000001502,
      "v": 100
    },
    {
      "midi": 77,
      "hit": false,
      "t": 96829.09400000008,
      "d": 243.90200000000186,
      "v": 100
    },
    {
      "midi": 75,
      "hit": false,
      "t": 96829.09400000008,
      "d": 243.90200000000186,
      "v": 100
    },
    {
      "midi": 72,
      "hit": false,
      "t": 96829.09400000008,
      "d": 243.90200000000186,
      "v": 100
    },
    {
      "midi": 29,
      "hit": false,
      "t": 96829.09400000023,
      "d": 243.90200000000186,
      "v": 100
    },
    {
      "midi": 54,
      "hit": false,
      "t": 96829.09400000036,
      "d": 1.0162583333294606,
      "v": 60
    },
    {
      "midi": 77,
      "hit": false,
      "t": 96829.09400000038,
      "d": 121.95100000000093,
      "v": 100
    },
    {
      "midi": 46,
      "hit": false,
      "t": 96829.09400000054,
      "d": 1.0162583333294606,
      "v": 100
    },
    {
      "midi": 68,
      "hit": false,
      "t": 96829.09400001614,
      "d": 60.975500000000466,
      "v": 100
    },
    {
      "midi": 63,
      "hit": false,
      "t": 96829.09400001614,
      "d": 60.975500000000466,
      "v": 100
    },
    {
      "midi": 60,
      "hit": false,
      "t": 96829.09400001614,
      "d": 60.975500000000466,
      "v": 100
    },
    {
      "midi": 54,
      "hit": false,
      "t": 96951.04500000036,
      "d": 1.0162583333294606,
      "v": 60
    },
    {
      "midi": 77,
      "hit": false,
      "t": 96951.04500000038,
      "d": 121.95100000000093,
      "v": 100
    },
    {
      "midi": 68,
      "hit": false,
      "t": 96951.04500000048,
      "d": 121.95100000000093,
      "v": 100
    },
    {
      "midi": 63,
      "hit": false,
      "t": 96951.04500000048,
      "d": 121.95100000000093,
      "v": 100
    },
    {
      "midi": 60,
      "hit": false,
      "t": 96951.04500000048,
      "d": 121.95100000000093,
      "v": 100
    },
    {
      "midi": 44,
      "hit": false,
      "t": 96951.04500000054,
      "d": 1.0162583333294606,
      "v": 100
    },
    {
      "midi": 68,
      "hit": false,
      "t": 96951.04500001614,
      "d": 60.975500000000466,
      "v": 100
    },
    {
      "midi": 63,
      "hit": false,
      "t": 96951.04500001614,
      "d": 60.975500000000466,
      "v": 100
    },
    {
      "midi": 60,
      "hit": false,
      "t": 96951.04500001614,
      "d": 60.975500000000466,
      "v": 100
    },
    {
      "midi": 75,
      "hit": false,
      "t": 97072.99600000009,
      "d": 243.90200000000186,
      "v": 100
    },
    {
      "midi": 72,
      "hit": false,
      "t": 97072.99600000009,
      "d": 243.90200000000186,
      "v": 100
    },
    {
      "midi": 68,
      "hit": false,
      "t": 97072.99600000009,
      "d": 243.90200000000186,
      "v": 100
    },
    {
      "midi": 26,
      "hit": false,
      "t": 97072.99600000023,
      "d": 243.90200000000186,
      "v": 100
    },
    {
      "midi": 75,
      "hit": false,
      "t": 97072.99600000032,
      "d": 243.90200000000186,
      "v": 100
    },
    {
      "midi": 70,
      "hit": false,
      "t": 97072.99600000032,
      "d": 243.90200000000186,
      "v": 100
    },
    {
      "midi": 54,
      "hit": false,
      "t": 97072.99600000036,
      "d": 1.0162583333294606,
      "v": 80
    },
    {
      "midi": 72,
      "hit": false,
      "t": 97072.99600000038,
      "d": 121.95100000000093,
      "v": 100
    },
    {
      "midi": 33,
      "hit": false,
      "t": 97072.99600000054,
      "d": 1.0162583333294606,
      "v": 127
    },
    {
      "midi": 40,
      "hit": false,
      "t": 97072.99600000054,
      "d": 1.0162583333294606,
      "v": 100
    },
    {
      "midi": 46,
      "hit": false,
      "t": 97072.99600000054,
      "d": 1.0162583333294606,
      "v": 100
    },
    {
      "midi": 68,
      "hit": false,
      "t": 97072.99600001614,
      "d": 243.9020000002929,
      "v": 100
    },
    {
      "midi": 63,
      "hit": false,
      "t": 97072.99600001614,
      "d": 243.9020000002929,
      "v": 100
    },
    {
      "midi": 60,
      "hit": false,
      "t": 97072.99600001614,
      "d": 243.9020000002929,
      "v": 100
    },
    {
      "midi": 54,
      "hit": false,
      "t": 97194.94700000036,
      "d": 1.0162583333294606,
      "v": 60
    },
    {
      "midi": 72,
      "hit": false,
      "t": 97194.94700000038,
      "d": 121.95100000000093,
      "v": 100
    },
    {
      "midi": 44,
      "hit": false,
      "t": 97194.94700000054,
      "d": 1.0162583333294606,
      "v": 100
    },
    {
      "midi": 77,
      "hit": false,
      "t": 97316.89800000009,
      "d": 243.90200000000186,
      "v": 100
    },
    {
      "midi": 75,
      "hit": false,
      "t": 97316.89800000009,
      "d": 243.90200000000186,
      "v": 100
    },
    {
      "midi": 72,
      "hit": false,
      "t": 97316.89800000009,
      "d": 243.90200000000186,
      "v": 100
    },
    {
      "midi": 29,
      "hit": false,
      "t": 97316.89800000023,
      "d": 243.90200000000186,
      "v": 100
    },
    {
      "midi": 77,
      "hit": false,
      "t": 97316.89800000032,
      "d": 243.90200000000186,
      "v": 100
    },
    {
      "midi": 72,
      "hit": false,
      "t": 97316.89800000032,
      "d": 243.90200000000186,
      "v": 100
    },
    {
      "midi": 54,
      "hit": false,
      "t": 97316.89800000036,
      "d": 1.0162583333294606,
      "v": 60
    },
    {
      "midi": 77,
      "hit": false,
      "t": 97316.89800000038,
      "d": 121.95100000000093,
      "v": 100
    },
    {
      "midi": 40,
      "hit": false,
      "t": 97316.89800000054,
      "d": 1.0162583333294606,
      "v": 40
    },
    {
      "midi": 46,
      "hit": false,
      "t": 97316.89800000054,
      "d": 1.0162583333294606,
      "v": 100
    },
    {
      "midi": 68,
      "hit": false,
      "t": 97316.89800001643,
      "d": 60.975500000000466,
      "v": 100
    },
    {
      "midi": 63,
      "hit": false,
      "t": 97316.89800001643,
      "d": 60.975500000000466,
      "v": 100
    },
    {
      "midi": 60,
      "hit": false,
      "t": 97316.89800001643,
      "d": 60.975500000000466,
      "v": 100
    },
    {
      "midi": 54,
      "hit": false,
      "t": 97438.84900000037,
      "d": 1.0162583333294606,
      "v": 60
    },
    {
      "midi": 77,
      "hit": false,
      "t": 97438.84900000038,
      "d": 121.95100000000093,
      "v": 100
    },
    {
      "midi": 40,
      "hit": false,
      "t": 97438.84900000054,
      "d": 1.0162583333294606,
      "v": 100
    },
    {
      "midi": 44,
      "hit": false,
      "t": 97438.84900000054,
      "d": 1.0162583333294606,
      "v": 100
    },
    {
      "midi": 68,
      "hit": false,
      "t": 97438.84900001643,
      "d": 60.975500000000466,
      "v": 100
    },
    {
      "midi": 63,
      "hit": false,
      "t": 97438.84900001643,
      "d": 60.975500000000466,
      "v": 100
    },
    {
      "midi": 60,
      "hit": false,
      "t": 97438.84900001643,
      "d": 60.975500000000466,
      "v": 100
    },
    {
      "midi": 79,
      "hit": false,
      "t": 97560.80000000009,
      "d": 243.90200000000186,
      "v": 100
    },
    {
      "midi": 74,
      "hit": false,
      "t": 97560.80000000009,
      "d": 243.90200000000186,
      "v": 100
    },
    {
      "midi": 70,
      "hit": false,
      "t": 97560.80000000009,
      "d": 243.90200000000186,
      "v": 100
    },
    {
      "midi": 31,
      "hit": false,
      "t": 97560.80000000024,
      "d": 243.90200000000186,
      "v": 100
    },
    {
      "midi": 79,
      "hit": false,
      "t": 97560.80000000032,
      "d": 243.90200000000186,
      "v": 100
    },
    {
      "midi": 74,
      "hit": false,
      "t": 97560.80000000032,
      "d": 243.90200000000186,
      "v": 100
    },
    {
      "midi": 54,
      "hit": false,
      "t": 97560.80000000037,
      "d": 1.0162583333294606,
      "v": 80
    },
    {
      "midi": 67,
      "hit": false,
      "t": 97560.80000000038,
      "d": 121.95100000000093,
      "v": 100
    },
    {
      "midi": 33,
      "hit": false,
      "t": 97560.80000000054,
      "d": 1.0162583333294606,
      "v": 127
    },
    {
      "midi": 42,
      "hit": false,
      "t": 97560.80000000054,
      "d": 1.0162583333294606,
      "v": 100
    },
    {
      "midi": 50,
      "hit": false,
      "t": 97560.80000000063,
      "d": 975.6079999999929,
      "v": 100
    },
    {
      "midi": 43,
      "hit": false,
      "t": 97560.80000000063,
      "d": 975.6079999999929,
      "v": 100
    },
    {
      "midi": 67,
      "hit": false,
      "t": 97560.80000001643,
      "d": 487.8040000002802,
      "v": 100
    },
    {
      "midi": 62,
      "hit": false,
      "t": 97560.80000001643,
      "d": 487.8040000002802,
      "v": 100
    },
    {
      "midi": 58,
      "hit": false,
      "t": 97560.80000001643,
      "d": 487.8040000002802,
      "v": 100
    },
    {
      "midi": 54,
      "hit": false,
      "t": 97682.75100000037,
      "d": 1.0162583333294606,
      "v": 60
    },
    {
      "midi": 67,
      "hit": false,
      "t": 97682.75100000038,
      "d": 121.95100000000093,
      "v": 100
    },
    {
      "midi": 67,
      "hit": false,
      "t": 97682.75100000048,
      "d": 121.95100000000093,
      "v": 100
    },
    {
      "midi": 62,
      "hit": false,
      "t": 97682.75100000048,
      "d": 121.95100000000093,
      "v": 100
    },
    {
      "midi": 58,
      "hit": false,
      "t": 97682.75100000048,
      "d": 121.95100000000093,
      "v": 100
    },
    {
      "midi": 31,
      "hit": false,
      "t": 97804.70200000024,
      "d": 243.90200000000186,
      "v": 100
    },
    {
      "midi": 54,
      "hit": false,
      "t": 97804.70200000037,
      "d": 1.0162583333294606,
      "v": 60
    },
    {
      "midi": 70,
      "hit": false,
      "t": 97804.70200000038,
      "d": 121.95100000000093,
      "v": 100
    },
    {
      "midi": 67,
      "hit": false,
      "t": 97804.70200000048,
      "d": 121.95100000000093,
      "v": 100
    },
    {
      "midi": 62,
      "hit": false,
      "t": 97804.70200000048,
      "d": 121.95100000000093,
      "v": 100
    },
    {
      "midi": 58,
      "hit": false,
      "t": 97804.70200000048,
      "d": 121.95100000000093,
      "v": 100
    },
    {
      "midi": 46,
      "hit": false,
      "t": 97804.70200000054,
      "d": 1.0162583333294606,
      "v": 100
    },
    {
      "midi": 54,
      "hit": false,
      "t": 97926.65300000037,
      "d": 1.0162583333294606,
      "v": 60
    },
    {
      "midi": 70,
      "hit": false,
      "t": 97926.65300000038,
      "d": 121.95100000000093,
      "v": 100
    },
    {
      "midi": 44,
      "hit": false,
      "t": 97926.65300000054,
      "d": 1.0162583333294606,
      "v": 100
    },
    {
      "midi": 79,
      "hit": false,
      "t": 98048.6040000001,
      "d": 243.90200000000186,
      "v": 100
    },
    {
      "midi": 74,
      "hit": false,
      "t": 98048.6040000001,
      "d": 243.90200000000186,
      "v": 100
    },
    {
      "midi": 82,
      "hit": false,
      "t": 98048.6040000001,
      "d": 243.90200000000186,
      "v": 100
    },
    {
      "midi": 31,
      "hit": false,
      "t": 98048.60400000024,
      "d": 243.90200000000186,
      "v": 100
    },
    {
      "midi": 86,
      "hit": false,
      "t": 98048.60400000033,
      "d": 487.8040000000037,
      "v": 100
    },
    {
      "midi": 79,
      "hit": false,
      "t": 98048.60400000033,
      "d": 487.8040000000037,
      "v": 100
    },
    {
      "midi": 54,
      "hit": false,
      "t": 98048.60400000037,
      "d": 1.0162583333294606,
      "v": 80
    },
    {
      "midi": 74,
      "hit": false,
      "t": 98048.60400000038,
      "d": 121.95100000000093,
      "v": 100
    },
    {
      "midi": 67,
      "hit": false,
      "t": 98048.60400000049,
      "d": 121.95100000000093,
      "v": 100
    },
    {
      "midi": 62,
      "hit": false,
      "t": 98048.60400000049,
      "d": 121.95100000000093,
      "v": 100
    },
    {
      "midi": 58,
      "hit": false,
      "t": 98048.60400000049,
      "d": 121.95100000000093,
      "v": 100
    },
    {
      "midi": 33,
      "hit": false,
      "t": 98048.60400000055,
      "d": 1.0162583333294606,
      "v": 127
    },
    {
      "midi": 40,
      "hit": false,
      "t": 98048.60400000055,
      "d": 1.0162583333294606,
      "v": 100
    },
    {
      "midi": 46,
      "hit": false,
      "t": 98048.60400000055,
      "d": 1.0162583333294606,
      "v": 100
    },
    {
      "midi": 67,
      "hit": false,
      "t": 98048.60400001671,
      "d": 60.975500000145985,
      "v": 100
    },
    {
      "midi": 62,
      "hit": false,
      "t": 98048.60400001671,
      "d": 60.975500000145985,
      "v": 100
    },
    {
      "midi": 58,
      "hit": false,
      "t": 98048.60400001671,
      "d": 60.975500000145985,
      "v": 100
    },
    {
      "midi": 54,
      "hit": false,
      "t": 98170.55500000037,
      "d": 1.0162583333294606,
      "v": 60
    },
    {
      "midi": 74,
      "hit": false,
      "t": 98170.55500000039,
      "d": 121.95100000000093,
      "v": 100
    },
    {
      "midi": 44,
      "hit": false,
      "t": 98170.55500000055,
      "d": 1.0162583333294606,
      "v": 100
    },
    {
      "midi": 67,
      "hit": false,
      "t": 98170.55500001689,
      "d": 60.97550000001502,
      "v": 100
    },
    {
      "midi": 62,
      "hit": false,
      "t": 98170.55500001689,
      "d": 60.97550000001502,
      "v": 100
    },
    {
      "midi": 58,
      "hit": false,
      "t": 98170.55500001689,
      "d": 60.97550000001502,
      "v": 100
    },
    {
      "midi": 31,
      "hit": false,
      "t": 98292.50600000024,
      "d": 71.13808333333873,
      "v": 100
    },
    {
      "midi": 54,
      "hit": false,
      "t": 98292.50600000037,
      "d": 1.0162583333294606,
      "v": 60
    },
    {
      "midi": 79,
      "hit": false,
      "t": 98292.50600000039,
      "d": 121.95100000000093,
      "v": 100
    },
    {
      "midi": 67,
      "hit": false,
      "t": 98292.50600000049,
      "d": 121.95100000000093,
      "v": 100
    },
    {
      "midi": 62,
      "hit": false,
      "t": 98292.50600000049,
      "d": 121.95100000000093,
      "v": 100
    },
    {
      "midi": 58,
      "hit": false,
      "t": 98292.50600000049,
      "d": 121.95100000000093,
      "v": 100
    },
    {
      "midi": 46,
      "hit": false,
      "t": 98292.50600000055,
      "d": 1.0162583333294606,
      "v": 100
    },
    {
      "midi": 67,
      "hit": false,
      "t": 98292.50600001703,
      "d": 60.975500000000466,
      "v": 100
    },
    {
      "midi": 62,
      "hit": false,
      "t": 98292.50600001703,
      "d": 60.975500000000466,
      "v": 100
    },
    {
      "midi": 58,
      "hit": false,
      "t": 98292.50600001703,
      "d": 60.975500000000466,
      "v": 100
    },
    {
      "midi": 82,
      "hit": false,
      "t": 98414.4570000001,
      "d": 365.8530000000028,
      "v": 100
    },
    {
      "midi": 79,
      "hit": false,
      "t": 98414.4570000001,
      "d": 365.8530000000028,
      "v": 100
    },
    {
      "midi": 74,
      "hit": false,
      "t": 98414.4570000001,
      "d": 365.8530000000028,
      "v": 100
    },
    {
      "midi": 34,
      "hit": false,
      "t": 98414.45700000024,
      "d": 243.90200000000186,
      "v": 100
    },
    {
      "midi": 54,
      "hit": false,
      "t": 98414.45700000037,
      "d": 1.0162583333294606,
      "v": 60
    },
    {
      "midi": 79,
      "hit": false,
      "t": 98414.45700000039,
      "d": 121.95100000000093,
      "v": 100
    },
    {
      "midi": 44,
      "hit": false,
      "t": 98414.45700000055,
      "d": 1.0162583333294606,
      "v": 100
    },
    {
      "midi": 67,
      "hit": false,
      "t": 98414.45700001704,
      "d": 60.975500000000466,
      "v": 100
    },
    {
      "midi": 62,
      "hit": false,
      "t": 98414.45700001704,
      "d": 60.975500000000466,
      "v": 100
    },
    {
      "midi": 58,
      "hit": false,
      "t": 98414.45700001704,
      "d": 60.975500000000466,
      "v": 100
    },
    {
      "midi": 82,
      "hit": false,
      "t": 98536.40800000033,
      "d": 365.8530000000028,
      "v": 100
    },
    {
      "midi": 74,
      "hit": false,
      "t": 98536.40800000033,
      "d": 365.8530000000028,
      "v": 100
    },
    {
      "midi": 54,
      "hit": false,
      "t": 98536.40800000037,
      "d": 1.0162583333294606,
      "v": 80
    },
    {
      "midi": 82,
      "hit": false,
      "t": 98536.40800000039,
      "d": 121.95100000000093,
      "v": 100
    },
    {
      "midi": 70,
      "hit": false,
      "t": 98536.40800000049,
      "d": 121.95100000000093,
      "v": 100
    },
    {
      "midi": 65,
      "hit": false,
      "t": 98536.40800000049,
      "d": 121.95100000000093,
      "v": 100
    },
    {
      "midi": 62,
      "hit": false,
      "t": 98536.40800000049,
      "d": 121.95100000000093,
      "v": 100
    },
    {
      "midi": 33,
      "hit": false,
      "t": 98536.40800000055,
      "d": 1.0162583333294606,
      "v": 127
    },
    {
      "midi": 42,
      "hit": false,
      "t": 98536.40800000055,
      "d": 1.0162583333294606,
      "v": 100
    },
    {
      "midi": 46,
      "hit": false,
      "t": 98536.40800000062,
      "d": 975.6079999999929,
      "v": 100
    },
    {
      "midi": 53,
      "hit": false,
      "t": 98536.40800000062,
      "d": 975.6079999999929,
      "v": 100
    },
    {
      "midi": 70,
      "hit": false,
      "t": 98536.40800001704,
      "d": 60.975500000145985,
      "v": 100
    },
    {
      "midi": 65,
      "hit": false,
      "t": 98536.40800001704,
      "d": 60.975500000145985,
      "v": 100
    },
    {
      "midi": 62,
      "hit": false,
      "t": 98536.40800001704,
      "d": 60.975500000145985,
      "v": 100
    },
    {
      "midi": 34,
      "hit": false,
      "t": 98658.35900000024,
      "d": 121.95100000000093,
      "v": 100
    },
    {
      "midi": 54,
      "hit": false,
      "t": 98658.35900000038,
      "d": 1.0162583333294606,
      "v": 60
    },
    {
      "midi": 82,
      "hit": false,
      "t": 98658.35900000039,
      "d": 121.95100000000093,
      "v": 100
    },
    {
      "midi": 70,
      "hit": false,
      "t": 98658.35900000049,
      "d": 121.95100000000093,
      "v": 100
    },
    {
      "midi": 65,
      "hit": false,
      "t": 98658.35900000049,
      "d": 121.95100000000093,
      "v": 100
    },
    {
      "midi": 62,
      "hit": false,
      "t": 98658.35900000049,
      "d": 121.95100000000093,
      "v": 100
    },
    {
      "midi": 70,
      "hit": false,
      "t": 98658.35900001721,
      "d": 60.97550000001502,
      "v": 100
    },
    {
      "midi": 65,
      "hit": false,
      "t": 98658.35900001721,
      "d": 60.97550000001502,
      "v": 100
    },
    {
      "midi": 62,
      "hit": false,
      "t": 98658.35900001721,
      "d": 60.97550000001502,
      "v": 100
    },
    {
      "midi": 82,
      "hit": false,
      "t": 98780.3100000001,
      "d": 243.90200000000186,
      "v": 100
    },
    {
      "midi": 79,
      "hit": false,
      "t": 98780.3100000001,
      "d": 243.90200000000186,
      "v": 100
    },
    {
      "midi": 74,
      "hit": false,
      "t": 98780.3100000001,
      "d": 243.90200000000186,
      "v": 100
    },
    {
      "midi": 34,
      "hit": false,
      "t": 98780.31000000025,
      "d": 243.90200000000186,
      "v": 100
    },
    {
      "midi": 54,
      "hit": false,
      "t": 98780.31000000038,
      "d": 1.0162583333294606,
      "v": 60
    },
    {
      "midi": 79,
      "hit": false,
      "t": 98780.31000000039,
      "d": 121.95100000000093,
      "v": 100
    },
    {
      "midi": 46,
      "hit": false,
      "t": 98780.31000000055,
      "d": 1.0162583333294606,
      "v": 100
    },
    {
      "midi": 70,
      "hit": false,
      "t": 98780.31000001736,
      "d": 60.975500000000466,
      "v": 100
    },
    {
      "midi": 65,
      "hit": false,
      "t": 98780.31000001736,
      "d": 60.975500000000466,
      "v": 100
    },
    {
      "midi": 62,
      "hit": false,
      "t": 98780.31000001736,
      "d": 60.975500000000466,
      "v": 100
    },
    {
      "midi": 54,
      "hit": false,
      "t": 98902.26100000038,
      "d": 1.0162583333294606,
      "v": 60
    },
    {
      "midi": 79,
      "hit": false,
      "t": 98902.26100000039,
      "d": 121.95100000000093,
      "v": 100
    },
    {
      "midi": 70,
      "hit": false,
      "t": 98902.2610000005,
      "d": 121.95100000000093,
      "v": 100
    },
    {
      "midi": 65,
      "hit": false,
      "t": 98902.2610000005,
      "d": 121.95100000000093,
      "v": 100
    },
    {
      "midi": 62,
      "hit": false,
      "t": 98902.2610000005,
      "d": 121.95100000000093,
      "v": 100
    },
    {
      "midi": 44,
      "hit": false,
      "t": 98902.26100000055,
      "d": 1.0162583333294606,
      "v": 100
    },
    {
      "midi": 70,
      "hit": false,
      "t": 98902.26100001736,
      "d": 60.975500000000466,
      "v": 100
    },
    {
      "midi": 65,
      "hit": false,
      "t": 98902.26100001736,
      "d": 60.975500000000466,
      "v": 100
    },
    {
      "midi": 62,
      "hit": false,
      "t": 98902.26100001736,
      "d": 60.975500000000466,
      "v": 100
    },
    {
      "midi": 79,
      "hit": false,
      "t": 99024.2120000001,
      "d": 243.90200000000186,
      "v": 100
    },
    {
      "midi": 74,
      "hit": false,
      "t": 99024.2120000001,
      "d": 243.90200000000186,
      "v": 100
    },
    {
      "midi": 70,
      "hit": false,
      "t": 99024.2120000001,
      "d": 243.90200000000186,
      "v": 100
    },
    {
      "midi": 31,
      "hit": false,
      "t": 99024.21200000025,
      "d": 243.90200000000186,
      "v": 100
    },
    {
      "midi": 79,
      "hit": false,
      "t": 99024.21200000033,
      "d": 243.90200000000186,
      "v": 100
    },
    {
      "midi": 75,
      "hit": false,
      "t": 99024.21200000033,
      "d": 243.90200000000186,
      "v": 100
    },
    {
      "midi": 54,
      "hit": false,
      "t": 99024.21200000038,
      "d": 1.0162583333294606,
      "v": 80
    },
    {
      "midi": 74,
      "hit": false,
      "t": 99024.21200000039,
      "d": 121.95100000000093,
      "v": 100
    },
    {
      "midi": 33,
      "hit": false,
      "t": 99024.21200000055,
      "d": 1.0162583333294606,
      "v": 127
    },
    {
      "midi": 40,
      "hit": false,
      "t": 99024.21200000055,
      "d": 1.0162583333294606,
      "v": 100
    },
    {
      "midi": 46,
      "hit": false,
      "t": 99024.21200000055,
      "d": 1.0162583333294606,
      "v": 100
    },
    {
      "midi": 57,
      "hit": false,
      "t": 99024.21200000055,
      "d": 1.0162583333294606,
      "v": 100
    },
    {
      "midi": 70,
      "hit": false,
      "t": 99024.21200001736,
      "d": 243.9020000002929,
      "v": 100
    },
    {
      "midi": 65,
      "hit": false,
      "t": 99024.21200001736,
      "d": 243.9020000002929,
      "v": 100
    },
    {
      "midi": 62,
      "hit": false,
      "t": 99024.21200001736,
      "d": 243.9020000002929,
      "v": 100
    },
    {
      "midi": 54,
      "hit": false,
      "t": 99146.16300000038,
      "d": 1.0162583333294606,
      "v": 60
    },
    {
      "midi": 74,
      "hit": false,
      "t": 99146.1630000004,
      "d": 121.95100000000093,
      "v": 100
    },
    {
      "midi": 44,
      "hit": false,
      "t": 99146.16300000055,
      "d": 1.0162583333294606,
      "v": 100
    },
    {
      "midi": 82,
      "hit": false,
      "t": 99268.1140000001,
      "d": 243.90200000000186,
      "v": 100
    },
    {
      "midi": 79,
      "hit": false,
      "t": 99268.1140000001,
      "d": 243.90200000000186,
      "v": 100
    },
    {
      "midi": 74,
      "hit": false,
      "t": 99268.1140000001,
      "d": 243.90200000000186,
      "v": 100
    },
    {
      "midi": 34,
      "hit": false,
      "t": 99268.11400000025,
      "d": 243.90200000000186,
      "v": 100
    },
    {
      "midi": 82,
      "hit": false,
      "t": 99268.11400000034,
      "d": 243.90200000000186,
      "v": 100
    },
    {
      "midi": 79,
      "hit": false,
      "t": 99268.11400000034,
      "d": 243.90200000000186,
      "v": 100
    },
    {
      "midi": 54,
      "hit": false,
      "t": 99268.11400000038,
      "d": 1.0162583333294606,
      "v": 60
    },
    {
      "midi": 70,
      "hit": false,
      "t": 99268.1140000004,
      "d": 121.95100000000093,
      "v": 100
    },
    {
      "midi": 40,
      "hit": false,
      "t": 99268.11400000055,
      "d": 1.0162583333294606,
      "v": 40
    },
    {
      "midi": 46,
      "hit": false,
      "t": 99268.11400000055,
      "d": 1.0162583333294606,
      "v": 100
    },
    {
      "midi": 70,
      "hit": false,
      "t": 99268.11400001765,
      "d": 60.975500000000466,
      "v": 100
    },
    {
      "midi": 65,
      "hit": false,
      "t": 99268.11400001765,
      "d": 60.975500000000466,
      "v": 100
    },
    {
      "midi": 62,
      "hit": false,
      "t": 99268.11400001765,
      "d": 60.975500000000466,
      "v": 100
    },
    {
      "midi": 54,
      "hit": false,
      "t": 99390.06500000038,
      "d": 1.0162583333294606,
      "v": 60
    },
    {
      "midi": 70,
      "hit": false,
      "t": 99390.0650000004,
      "d": 121.95100000000093,
      "v": 100
    },
    {
      "midi": 40,
      "hit": false,
      "t": 99390.06500000056,
      "d": 1.0162583333294606,
      "v": 100
    },
    {
      "midi": 44,
      "hit": false,
      "t": 99390.06500000056,
      "d": 1.0162583333294606,
      "v": 100
    },
    {
      "midi": 70,
      "hit": false,
      "t": 99390.06500001765,
      "d": 60.975500000000466,
      "v": 100
    },
    {
      "midi": 65,
      "hit": false,
      "t": 99390.06500001765,
      "d": 60.975500000000466,
      "v": 100
    },
    {
      "midi": 62,
      "hit": false,
      "t": 99390.06500001765,
      "d": 60.975500000000466,
      "v": 100
    },
    {
      "midi": 84,
      "hit": false,
      "t": 99512.0160000001,
      "d": 243.90200000000186,
      "v": 100
    },
    {
      "midi": 79,
      "hit": false,
      "t": 99512.0160000001,
      "d": 243.90200000000186,
      "v": 100
    },
    {
      "midi": 75,
      "hit": false,
      "t": 99512.0160000001,
      "d": 243.90200000000186,
      "v": 100
    },
    {
      "midi": 36,
      "hit": false,
      "t": 99512.01600000025,
      "d": 243.90200000000186,
      "v": 100
    },
    {
      "midi": 84,
      "hit": false,
      "t": 99512.01600000034,
      "d": 243.90200000000186,
      "v": 100
    },
    {
      "midi": 79,
      "hit": false,
      "t": 99512.01600000034,
      "d": 243.90200000000186,
      "v": 100
    },
    {
      "midi": 54,
      "hit": false,
      "t": 99512.01600000038,
      "d": 1.0162583333294606,
      "v": 80
    },
    {
      "midi": 72,
      "hit": false,
      "t": 99512.0160000004,
      "d": 121.95100000000093,
      "v": 100
    },
    {
      "midi": 33,
      "hit": false,
      "t": 99512.01600000056,
      "d": 1.0162583333294606,
      "v": 127
    },
    {
      "midi": 42,
      "hit": false,
      "t": 99512.01600000056,
      "d": 1.0162583333294606,
      "v": 100
    },
    {
      "midi": 57,
      "hit": false,
      "t": 99512.01600000056,
      "d": 1.0162583333294606,
      "v": 100
    },
    {
      "midi": 48,
      "hit": false,
      "t": 99512.01600000061,
      "d": 975.6079999999929,
      "v": 100
    },
    {
      "midi": 55,
      "hit": false,
      "t": 99512.01600000061,
      "d": 975.6079999999929,
      "v": 100
    },
    {
      "midi": 72,
      "hit": false,
      "t": 99512.01600001765,
      "d": 487.8040000002802,
      "v": 100
    },
    {
      "midi": 67,
      "hit": false,
      "t": 99512.01600001765,
      "d": 487.8040000002802,
      "v": 100
    },
    {
      "midi": 63,
      "hit": false,
      "t": 99512.01600001765,
      "d": 487.8040000002802,
      "v": 100
    },
    {
      "midi": 54,
      "hit": false,
      "t": 99633.96700000038,
      "d": 1.0162583333294606,
      "v": 60
    },
    {
      "midi": 72,
      "hit": false,
      "t": 99633.9670000004,
      "d": 121.95100000000093,
      "v": 100
    },
    {
      "midi": 72,
      "hit": false,
      "t": 99633.9670000005,
      "d": 121.95100000000093,
      "v": 100
    },
    {
      "midi": 67,
      "hit": false,
      "t": 99633.9670000005,
      "d": 121.95100000000093,
      "v": 100
    },
    {
      "midi": 63,
      "hit": false,
      "t": 99633.9670000005,
      "d": 121.95100000000093,
      "v": 100
    },
    {
      "midi": 36,
      "hit": false,
      "t": 99755.91800000025,
      "d": 243.90200000000186,
      "v": 100
    },
    {
      "midi": 54,
      "hit": false,
      "t": 99755.91800000038,
      "d": 1.0162583333294606,
      "v": 60
    },
    {
      "midi": 79,
      "hit": false,
      "t": 99755.9180000004,
      "d": 121.95100000000093,
      "v": 100
    },
    {
      "midi": 72,
      "hit": false,
      "t": 99755.9180000005,
      "d": 121.95100000000093,
      "v": 100
    },
    {
      "midi": 67,
      "hit": false,
      "t": 99755.9180000005,
      "d": 121.95100000000093,
      "v": 100
    },
    {
      "midi": 63,
      "hit": false,
      "t": 99755.9180000005,
      "d": 121.95100000000093,
      "v": 100
    },
    {
      "midi": 46,
      "hit": false,
      "t": 99755.91800000056,
      "d": 1.0162583333294606,
      "v": 100
    },
    {
      "midi": 54,
      "hit": false,
      "t": 99877.86900000038,
      "d": 1.0162583333294606,
      "v": 60
    },
    {
      "midi": 79,
      "hit": false,
      "t": 99877.8690000004,
      "d": 121.95100000000093,
      "v": 100
    },
    {
      "midi": 44,
      "hit": false,
      "t": 99877.86900000056,
      "d": 1.0162583333294606,
      "v": 100
    },
    {
      "midi": 84,
      "hit": false,
      "t": 99999.82000000011,
      "d": 243.90200000000186,
      "v": 100
    },
    {
      "midi": 79,
      "hit": false,
      "t": 99999.82000000011,
      "d": 243.90200000000186,
      "v": 100
    },
    {
      "midi": 75,
      "hit": false,
      "t": 99999.82000000011,
      "d": 243.90200000000186,
      "v": 100
    },
    {
      "midi": 36,
      "hit": false,
      "t": 99999.82000000025,
      "d": 243.90200000000186,
      "v": 100
    },
    {
      "midi": 84,
      "hit": false,
      "t": 99999.82000000034,
      "d": 243.90200000000186,
      "v": 100
    },
    {
      "midi": 79,
      "hit": false,
      "t": 99999.82000000034,
      "d": 243.90200000000186,
      "v": 100
    },
    {
      "midi": 54,
      "hit": false,
      "t": 99999.82000000039,
      "d": 1.0162583333294606,
      "v": 80
    },
    {
      "midi": 75,
      "hit": false,
      "t": 99999.8200000004,
      "d": 121.95100000000093,
      "v": 100
    },
    {
      "midi": 72,
      "hit": false,
      "t": 99999.8200000005,
      "d": 121.95100000000093,
      "v": 100
    },
    {
      "midi": 67,
      "hit": false,
      "t": 99999.8200000005,
      "d": 121.95100000000093,
      "v": 100
    },
    {
      "midi": 63,
      "hit": false,
      "t": 99999.8200000005,
      "d": 121.95100000000093,
      "v": 100
    },
    {
      "midi": 33,
      "hit": false,
      "t": 99999.82000000056,
      "d": 1.0162583333294606,
      "v": 127
    },
    {
      "midi": 40,
      "hit": false,
      "t": 99999.82000000056,
      "d": 1.0162583333294606,
      "v": 100
    },
    {
      "midi": 46,
      "hit": false,
      "t": 99999.82000000056,
      "d": 1.0162583333294606,
      "v": 100
    },
    {
      "midi": 72,
      "hit": false,
      "t": 99999.82000001793,
      "d": 60.975500000145985,
      "v": 100
    },
    {
      "midi": 67,
      "hit": false,
      "t": 99999.82000001793,
      "d": 60.975500000145985,
      "v": 100
    },
    {
      "midi": 63,
      "hit": false,
      "t": 99999.82000001793,
      "d": 60.975500000145985,
      "v": 100
    },
    {
      "midi": 54,
      "hit": false,
      "t": 100121.77100000039,
      "d": 1.0162583333294606,
      "v": 60
    },
    {
      "midi": 75,
      "hit": false,
      "t": 100121.7710000004,
      "d": 121.95100000000093,
      "v": 100
    },
    {
      "midi": 44,
      "hit": false,
      "t": 100121.77100000056,
      "d": 1.0162583333294606,
      "v": 100
    },
    {
      "midi": 72,
      "hit": false,
      "t": 100121.77100001811,
      "d": 60.97550000001502,
      "v": 100
    },
    {
      "midi": 67,
      "hit": false,
      "t": 100121.77100001811,
      "d": 60.97550000001502,
      "v": 100
    },
    {
      "midi": 63,
      "hit": false,
      "t": 100121.77100001811,
      "d": 60.97550000001502,
      "v": 100
    },
    {
      "midi": 84,
      "hit": false,
      "t": 100243.72200000011,
      "d": 30.487750000000233,
      "v": 100
    },
    {
      "midi": 79,
      "hit": false,
      "t": 100243.72200000011,
      "d": 30.487750000000233,
      "v": 100
    },
    {
      "midi": 36,
      "hit": false,
      "t": 100243.72200000026,
      "d": 71.13808333333873,
      "v": 100
    },
    {
      "midi": 87,
      "hit": false,
      "t": 100243.72200000034,
      "d": 121.95100000000093,
      "v": 100
    },
    {
      "midi": 82,
      "hit": false,
      "t": 100243.72200000034,
      "d": 121.95100000000093,
      "v": 100
    },
    {
      "midi": 54,
      "hit": false,
      "t": 100243.72200000039,
      "d": 1.0162583333294606,
      "v": 60
    },
    {
      "midi": 82,
      "hit": false,
      "t": 100243.7220000004,
      "d": 121.95100000000093,
      "v": 100
    },
    {
      "midi": 72,
      "hit": false,
      "t": 100243.7220000005,
      "d": 121.95100000000093,
      "v": 100
    },
    {
      "midi": 67,
      "hit": false,
      "t": 100243.7220000005,
      "d": 121.95100000000093,
      "v": 100
    },
    {
      "midi": 63,
      "hit": false,
      "t": 100243.7220000005,
      "d": 121.95100000000093,
      "v": 100
    },
    {
      "midi": 46,
      "hit": false,
      "t": 100243.72200000056,
      "d": 1.0162583333294606,
      "v": 100
    },
    {
      "midi": 72,
      "hit": false,
      "t": 100243.72200001826,
      "d": 60.975500000000466,
      "v": 100
    },
    {
      "midi": 67,
      "hit": false,
      "t": 100243.72200001826,
      "d": 60.975500000000466,
      "v": 100
    },
    {
      "midi": 63,
      "hit": false,
      "t": 100243.72200001826,
      "d": 60.975500000000466,
      "v": 100
    },
    {
      "midi": 84,
      "hit": false,
      "t": 100365.67300000011,
      "d": 243.90200000000186,
      "v": 100
    },
    {
      "midi": 80,
      "hit": false,
      "t": 100365.67300000011,
      "d": 243.90200000000186,
      "v": 100
    },
    {
      "midi": 75,
      "hit": false,
      "t": 100365.67300000011,
      "d": 243.90200000000186,
      "v": 100
    },
    {
      "midi": 32,
      "hit": false,
      "t": 100365.67300000026,
      "d": 243.90200000000186,
      "v": 100
    },
    {
      "midi": 84,
      "hit": false,
      "t": 100365.67300000034,
      "d": 365.8530000000028,
      "v": 100
    },
    {
      "midi": 80,
      "hit": false,
      "t": 100365.67300000034,
      "d": 365.8530000000028,
      "v": 100
    },
    {
      "midi": 54,
      "hit": false,
      "t": 100365.67300000039,
      "d": 1.0162583333294606,
      "v": 60
    },
    {
      "midi": 82,
      "hit": false,
      "t": 100365.6730000004,
      "d": 121.95100000000093,
      "v": 100
    },
    {
      "midi": 44,
      "hit": false,
      "t": 100365.67300000056,
      "d": 1.0162583333294606,
      "v": 100
    },
    {
      "midi": 72,
      "hit": false,
      "t": 100365.67300001826,
      "d": 60.975500000000466,
      "v": 100
    },
    {
      "midi": 67,
      "hit": false,
      "t": 100365.67300001826,
      "d": 60.975500000000466,
      "v": 100
    },
    {
      "midi": 63,
      "hit": false,
      "t": 100365.67300001826,
      "d": 60.975500000000466,
      "v": 100
    },
    {
      "midi": 54,
      "hit": false,
      "t": 100487.62400000039,
      "d": 1.0162583333294606,
      "v": 80
    },
    {
      "midi": 84,
      "hit": false,
      "t": 100487.6240000004,
      "d": 121.95100000000093,
      "v": 100
    },
    {
      "midi": 68,
      "hit": false,
      "t": 100487.6240000005,
      "d": 121.95100000000093,
      "v": 100
    },
    {
      "midi": 63,
      "hit": false,
      "t": 100487.6240000005,
      "d": 121.95100000000093,
      "v": 100
    },
    {
      "midi": 60,
      "hit": false,
      "t": 100487.6240000005,
      "d": 121.95100000000093,
      "v": 100
    },
    {
      "midi": 33,
      "hit": false,
      "t": 100487.62400000056,
      "d": 1.0162583333294606,
      "v": 127
    },
    {
      "midi": 42,
      "hit": false,
      "t": 100487.62400000056,
      "d": 1.0162583333294606,
      "v": 100
    },
    {
      "midi": 44,
      "hit": false,
      "t": 100487.62400000061,
      "d": 975.6079999999929,
      "v": 100
    },
    {
      "midi": 51,
      "hit": false,
      "t": 100487.62400000061,
      "d": 975.6079999999929,
      "v": 100
    },
    {
      "midi": 68,
      "hit": false,
      "t": 100487.62400001826,
      "d": 60.975500000145985,
      "v": 100
    },
    {
      "midi": 63,
      "hit": false,
      "t": 100487.62400001826,
      "d": 60.975500000145985,
      "v": 100
    },
    {
      "midi": 60,
      "hit": false,
      "t": 100487.62400001826,
      "d": 60.975500000145985,
      "v": 100
    },
    {
      "midi": 84,
      "hit": false,
      "t": 100609.57500000011,
      "d": 121.95100000000093,
      "v": 100
    },
    {
      "midi": 80,
      "hit": false,
      "t": 100609.57500000011,
      "d": 121.95100000000093,
      "v": 100
    },
    {
      "midi": 75,
      "hit": false,
      "t": 100609.57500000011,
      "d": 121.95100000000093,
      "v": 100
    },
    {
      "midi": 32,
      "hit": false,
      "t": 100609.57500000026,
      "d": 121.95100000000093,
      "v": 100
    },
    {
      "midi": 54,
      "hit": false,
      "t": 100609.57500000039,
      "d": 1.0162583333294606,
      "v": 60
    },
    {
      "midi": 84,
      "hit": false,
      "t": 100609.5750000004,
      "d": 121.95100000000093,
      "v": 100
    },
    {
      "midi": 68,
      "hit": false,
      "t": 100609.5750000005,
      "d": 121.95100000000093,
      "v": 100
    },
    {
      "midi": 63,
      "hit": false,
      "t": 100609.5750000005,
      "d": 121.95100000000093,
      "v": 100
    },
    {
      "midi": 60,
      "hit": false,
      "t": 100609.5750000005,
      "d": 121.95100000000093,
      "v": 100
    },
    {
      "midi": 68,
      "hit": false,
      "t": 100609.57500001843,
      "d": 60.97550000001502,
      "v": 100
    },
    {
      "midi": 63,
      "hit": false,
      "t": 100609.57500001843,
      "d": 60.97550000001502,
      "v": 100
    },
    {
      "midi": 60,
      "hit": false,
      "t": 100609.57500001843,
      "d": 60.97550000001502,
      "v": 100
    },
    {
      "midi": 84,
      "hit": false,
      "t": 100731.52600000011,
      "d": 243.90200000000186,
      "v": 100
    },
    {
      "midi": 80,
      "hit": false,
      "t": 100731.52600000011,
      "d": 243.90200000000186,
      "v": 100
    },
    {
      "midi": 75,
      "hit": false,
      "t": 100731.52600000011,
      "d": 243.90200000000186,
      "v": 100
    },
    {
      "midi": 32,
      "hit": false,
      "t": 100731.52600000026,
      "d": 243.90200000000186,
      "v": 100
    },
    {
      "midi": 54,
      "hit": false,
      "t": 100731.52600000039,
      "d": 1.0162583333294606,
      "v": 60
    },
    {
      "midi": 80,
      "hit": false,
      "t": 100731.5260000004,
      "d": 121.95100000000093,
      "v": 100
    },
    {
      "midi": 46,
      "hit": false,
      "t": 100731.52600000057,
      "d": 1.0162583333294606,
      "v": 100
    },
    {
      "midi": 68,
      "hit": false,
      "t": 100731.52600001858,
      "d": 60.975500000000466,
      "v": 100
    },
    {
      "midi": 63,
      "hit": false,
      "t": 100731.52600001858,
      "d": 60.975500000000466,
      "v": 100
    },
    {
      "midi": 60,
      "hit": false,
      "t": 100731.52600001858,
      "d": 60.975500000000466,
      "v": 100
    },
    {
      "midi": 54,
      "hit": false,
      "t": 100853.47700000039,
      "d": 1.0162583333294606,
      "v": 60
    },
    {
      "midi": 80,
      "hit": false,
      "t": 100853.4770000004,
      "d": 121.95100000000093,
      "v": 100
    },
    {
      "midi": 68,
      "hit": false,
      "t": 100853.47700000051,
      "d": 121.95100000000093,
      "v": 100
    },
    {
      "midi": 63,
      "hit": false,
      "t": 100853.47700000051,
      "d": 121.95100000000093,
      "v": 100
    },
    {
      "midi": 60,
      "hit": false,
      "t": 100853.47700000051,
      "d": 121.95100000000093,
      "v": 100
    },
    {
      "midi": 44,
      "hit": false,
      "t": 100853.47700000057,
      "d": 1.0162583333294606,
      "v": 100
    },
    {
      "midi": 68,
      "hit": false,
      "t": 100853.47700001858,
      "d": 60.975500000000466,
      "v": 100
    },
    {
      "midi": 63,
      "hit": false,
      "t": 100853.47700001858,
      "d": 60.975500000000466,
      "v": 100
    },
    {
      "midi": 60,
      "hit": false,
      "t": 100853.47700001858,
      "d": 60.975500000000466,
      "v": 100
    },
    {
      "midi": 84,
      "hit": false,
      "t": 100975.42800000012,
      "d": 243.90200000000186,
      "v": 100
    },
    {
      "midi": 80,
      "hit": false,
      "t": 100975.42800000012,
      "d": 243.90200000000186,
      "v": 100
    },
    {
      "midi": 75,
      "hit": false,
      "t": 100975.42800000012,
      "d": 243.90200000000186,
      "v": 100
    },
    {
      "midi": 32,
      "hit": false,
      "t": 100975.42800000026,
      "d": 243.90200000000186,
      "v": 100
    },
    {
      "midi": 84,
      "hit": false,
      "t": 100975.42800000035,
      "d": 243.90200000000186,
      "v": 100
    },
    {
      "midi": 82,
      "hit": false,
      "t": 100975.42800000035,
      "d": 243.90200000000186,
      "v": 100
    },
    {
      "midi": 54,
      "hit": false,
      "t": 100975.4280000004,
      "d": 1.0162583333294606,
      "v": 80
    },
    {
      "midi": 75,
      "hit": false,
      "t": 100975.42800000041,
      "d": 121.95100000000093,
      "v": 100
    },
    {
      "midi": 33,
      "hit": false,
      "t": 100975.42800000057,
      "d": 1.0162583333294606,
      "v": 127
    },
    {
      "midi": 40,
      "hit": false,
      "t": 100975.42800000057,
      "d": 1.0162583333294606,
      "v": 100
    },
    {
      "midi": 46,
      "hit": false,
      "t": 100975.42800000057,
      "d": 1.0162583333294606,
      "v": 100
    },
    {
      "midi": 68,
      "hit": false,
      "t": 100975.42800001858,
      "d": 243.9020000002929,
      "v": 100
    },
    {
      "midi": 63,
      "hit": false,
      "t": 100975.42800001858,
      "d": 243.9020000002929,
      "v": 100
    },
    {
      "midi": 60,
      "hit": false,
      "t": 100975.42800001858,
      "d": 243.9020000002929,
      "v": 100
    },
    {
      "midi": 54,
      "hit": false,
      "t": 101097.3790000004,
      "d": 1.0162583333294606,
      "v": 60
    },
    {
      "midi": 75,
      "hit": false,
      "t": 101097.37900000041,
      "d": 121.95100000000093,
      "v": 100
    },
    {
      "midi": 44,
      "hit": false,
      "t": 101097.37900000057,
      "d": 1.0162583333294606,
      "v": 100
    },
    {
      "midi": 84,
      "hit": false,
      "t": 101219.33000000012,
      "d": 243.90200000000186,
      "v": 100
    },
    {
      "midi": 80,
      "hit": false,
      "t": 101219.33000000012,
      "d": 243.90200000000186,
      "v": 100
    },
    {
      "midi": 75,
      "hit": false,
      "t": 101219.33000000012,
      "d": 243.90200000000186,
      "v": 100
    },
    {
      "midi": 32,
      "hit": false,
      "t": 101219.33000000026,
      "d": 243.90200000000186,
      "v": 100
    },
    {
      "midi": 87,
      "hit": false,
      "t": 101219.33000000035,
      "d": 243.90200000000186,
      "v": 100
    },
    {
      "midi": 84,
      "hit": false,
      "t": 101219.33000000035,
      "d": 243.90200000000186,
      "v": 100
    },
    {
      "midi": 54,
      "hit": false,
      "t": 101219.3300000004,
      "d": 1.0162583333294606,
      "v": 60
    },
    {
      "midi": 72,
      "hit": false,
      "t": 101219.33000000041,
      "d": 121.95100000000093,
      "v": 100
    },
    {
      "midi": 40,
      "hit": false,
      "t": 101219.33000000057,
      "d": 1.0162583333294606,
      "v": 40
    },
    {
      "midi": 46,
      "hit": false,
      "t": 101219.33000000057,
      "d": 1.0162583333294606,
      "v": 100
    },
    {
      "midi": 68,
      "hit": false,
      "t": 101219.33000001888,
      "d": 60.975500000000466,
      "v": 100
    },
    {
      "midi": 63,
      "hit": false,
      "t": 101219.33000001888,
      "d": 60.975500000000466,
      "v": 100
    },
    {
      "midi": 60,
      "hit": false,
      "t": 101219.33000001888,
      "d": 60.975500000000466,
      "v": 100
    },
    {
      "midi": 54,
      "hit": false,
      "t": 101341.2810000004,
      "d": 1.0162583333294606,
      "v": 60
    },
    {
      "midi": 72,
      "hit": false,
      "t": 101341.28100000041,
      "d": 121.95100000000093,
      "v": 100
    },
    {
      "midi": 40,
      "hit": false,
      "t": 101341.28100000057,
      "d": 1.0162583333294606,
      "v": 100
    },
    {
      "midi": 44,
      "hit": false,
      "t": 101341.28100000057,
      "d": 1.0162583333294606,
      "v": 100
    },
    {
      "midi": 68,
      "hit": false,
      "t": 101341.28100001888,
      "d": 60.975500000000466,
      "v": 100
    },
    {
      "midi": 63,
      "hit": false,
      "t": 101341.28100001888,
      "d": 60.975500000000466,
      "v": 100
    },
    {
      "midi": 60,
      "hit": false,
      "t": 101341.28100001888,
      "d": 60.975500000000466,
      "v": 100
    },
    {
      "midi": 86,
      "hit": false,
      "t": 101463.23200000012,
      "d": 243.90200000000186,
      "v": 100
    },
    {
      "midi": 82,
      "hit": false,
      "t": 101463.23200000012,
      "d": 243.90200000000186,
      "v": 100
    },
    {
      "midi": 77,
      "hit": false,
      "t": 101463.23200000012,
      "d": 243.90200000000186,
      "v": 100
    },
    {
      "midi": 34,
      "hit": false,
      "t": 101463.23200000027,
      "d": 243.90200000000186,
      "v": 100
    },
    {
      "midi": 86,
      "hit": false,
      "t": 101463.23200000035,
      "d": 243.90200000000186,
      "v": 100
    },
    {
      "midi": 82,
      "hit": false,
      "t": 101463.23200000035,
      "d": 243.90200000000186,
      "v": 100
    },
    {
      "midi": 54,
      "hit": false,
      "t": 101463.2320000004,
      "d": 1.0162583333294606,
      "v": 80
    },
    {
      "midi": 70,
      "hit": false,
      "t": 101463.23200000041,
      "d": 121.95100000000093,
      "v": 100
    },
    {
      "midi": 33,
      "hit": false,
      "t": 101463.23200000057,
      "d": 1.0162583333294606,
      "v": 127
    },
    {
      "midi": 42,
      "hit": false,
      "t": 101463.23200000057,
      "d": 1.0162583333294606,
      "v": 100
    },
    {
      "midi": 46,
      "hit": false,
      "t": 101463.2320000006,
      "d": 975.6079999999929,
      "v": 100
    },
    {
      "midi": 53,
      "hit": false,
      "t": 101463.2320000006,
      "d": 975.6079999999929,
      "v": 100
    },
    {
      "midi": 70,
      "hit": false,
      "t": 101463.23200001888,
      "d": 487.8040000002802,
      "v": 100
    },
    {
      "midi": 65,
      "hit": false,
      "t": 101463.23200001888,
      "d": 487.8040000002802,
      "v": 100
    },
    {
      "midi": 62,
      "hit": false,
      "t": 101463.23200001888,
      "d": 487.8040000002802,
      "v": 100
    },
    {
      "midi": 54,
      "hit": false,
      "t": 101585.1830000004,
      "d": 1.0162583333294606,
      "v": 60
    },
    {
      "midi": 70,
      "hit": false,
      "t": 101585.18300000041,
      "d": 121.95100000000093,
      "v": 100
    },
    {
      "midi": 70,
      "hit": false,
      "t": 101585.18300000051,
      "d": 121.95100000000093,
      "v": 100
    },
    {
      "midi": 65,
      "hit": false,
      "t": 101585.18300000051,
      "d": 121.95100000000093,
      "v": 100
    },
    {
      "midi": 62,
      "hit": false,
      "t": 101585.18300000051,
      "d": 121.95100000000093,
      "v": 100
    },
    {
      "midi": 34,
      "hit": false,
      "t": 101707.13400000027,
      "d": 243.90200000000186,
      "v": 100
    },
    {
      "midi": 82,
      "hit": false,
      "t": 101707.13400000035,
      "d": 121.95100000000093,
      "v": 100
    },
    {
      "midi": 79,
      "hit": false,
      "t": 101707.13400000035,
      "d": 121.95100000000093,
      "v": 100
    },
    {
      "midi": 54,
      "hit": false,
      "t": 101707.1340000004,
      "d": 1.0162583333294606,
      "v": 60
    },
    {
      "midi": 74,
      "hit": false,
      "t": 101707.13400000041,
      "d": 121.95100000000093,
      "v": 100
    },
    {
      "midi": 70,
      "hit": false,
      "t": 101707.13400000051,
      "d": 121.95100000000093,
      "v": 100
    },
    {
      "midi": 65,
      "hit": false,
      "t": 101707.13400000051,
      "d": 121.95100000000093,
      "v": 100
    },
    {
      "midi": 62,
      "hit": false,
      "t": 101707.13400000051,
      "d": 121.95100000000093,
      "v": 100
    },
    {
      "midi": 46,
      "hit": false,
      "t": 101707.13400000057,
      "d": 1.0162583333294606,
      "v": 100
    },
    {
      "midi": 54,
      "hit": false,
      "t": 101829.0850000004,
      "d": 1.0162583333294606,
      "v": 60
    },
    {
      "midi": 74,
      "hit": false,
      "t": 101829.08500000041,
      "d": 121.95100000000093,
      "v": 100
    },
    {
      "midi": 44,
      "hit": false,
      "t": 101829.08500000057,
      "d": 1.0162583333294606,
      "v": 100
    },
    {
      "midi": 82,
      "hit": false,
      "t": 101951.03600000012,
      "d": 243.90200000000186,
      "v": 100
    },
    {
      "midi": 77,
      "hit": false,
      "t": 101951.03600000012,
      "d": 243.90200000000186,
      "v": 100
    },
    {
      "midi": 34,
      "hit": false,
      "t": 101951.03600000027,
      "d": 243.90200000000186,
      "v": 100
    },
    {
      "midi": 82,
      "hit": false,
      "t": 101951.03600000036,
      "d": 243.90200000000186,
      "v": 100
    },
    {
      "midi": 79,
      "hit": false,
      "t": 101951.03600000036,
      "d": 243.90200000000186,
      "v": 100
    },
    {
      "midi": 54,
      "hit": false,
      "t": 101951.0360000004,
      "d": 1.0162583333294606,
      "v": 80
    },
    {
      "midi": 70,
      "hit": false,
      "t": 101951.03600000041,
      "d": 121.95100000000093,
      "v": 100
    },
    {
      "midi": 70,
      "hit": false,
      "t": 101951.03600000052,
      "d": 121.95100000000093,
      "v": 100
    },
    {
      "midi": 65,
      "hit": false,
      "t": 101951.03600000052,
      "d": 121.95100000000093,
      "v": 100
    },
    {
      "midi": 62,
      "hit": false,
      "t": 101951.03600000052,
      "d": 121.95100000000093,
      "v": 100
    },
    {
      "midi": 33,
      "hit": false,
      "t": 101951.03600000057,
      "d": 1.0162583333294606,
      "v": 127
    },
    {
      "midi": 40,
      "hit": false,
      "t": 101951.03600000057,
      "d": 1.0162583333294606,
      "v": 100
    },
    {
      "midi": 46,
      "hit": false,
      "t": 101951.03600000057,
      "d": 1.0162583333294606,
      "v": 100
    },
    {
      "midi": 70,
      "hit": false,
      "t": 101951.03600001916,
      "d": 60.975500000145985,
      "v": 100
    },
    {
      "midi": 65,
      "hit": false,
      "t": 101951.03600001916,
      "d": 60.975500000145985,
      "v": 100
    },
    {
      "midi": 62,
      "hit": false,
      "t": 101951.03600001916,
      "d": 60.975500000145985,
      "v": 100
    },
    {
      "midi": 54,
      "hit": false,
      "t": 102072.9870000004,
      "d": 1.0162583333294606,
      "v": 60
    },
    {
      "midi": 70,
      "hit": false,
      "t": 102072.98700000042,
      "d": 121.95100000000093,
      "v": 100
    },
    {
      "midi": 44,
      "hit": false,
      "t": 102072.98700000058,
      "d": 1.0162583333294606,
      "v": 100
    },
    {
      "midi": 70,
      "hit": false,
      "t": 102072.98700001933,
      "d": 60.97550000001502,
      "v": 100
    },
    {
      "midi": 65,
      "hit": false,
      "t": 102072.98700001933,
      "d": 60.97550000001502,
      "v": 100
    },
    {
      "midi": 62,
      "hit": false,
      "t": 102072.98700001933,
      "d": 60.97550000001502,
      "v": 100
    },
    {
      "midi": 77,
      "hit": false,
      "t": 102194.93800000013,
      "d": 40.650333333338494,
      "v": 100
    },
    {
      "midi": 82,
      "hit": false,
      "t": 102194.93800000013,
      "d": 40.650333333338494,
      "v": 100
    },
    {
      "midi": 34,
      "hit": false,
      "t": 102194.93800000027,
      "d": 71.13808333333873,
      "v": 100
    },
    {
      "midi": 79,
      "hit": false,
      "t": 102194.93800000036,
      "d": 121.95100000000093,
      "v": 100
    },
    {
      "midi": 75,
      "hit": false,
      "t": 102194.93800000036,
      "d": 121.95100000000093,
      "v": 100
    },
    {
      "midi": 54,
      "hit": false,
      "t": 102194.9380000004,
      "d": 1.0162583333294606,
      "v": 60
    },
    {
      "midi": 79,
      "hit": false,
      "t": 102194.93800000042,
      "d": 121.95100000000093,
      "v": 100
    },
    {
      "midi": 70,
      "hit": false,
      "t": 102194.93800000052,
      "d": 121.95100000000093,
      "v": 100
    },
    {
      "midi": 65,
      "hit": false,
      "t": 102194.93800000052,
      "d": 121.95100000000093,
      "v": 100
    },
    {
      "midi": 62,
      "hit": false,
      "t": 102194.93800000052,
      "d": 121.95100000000093,
      "v": 100
    },
    {
      "midi": 46,
      "hit": false,
      "t": 102194.93800000058,
      "d": 1.0162583333294606,
      "v": 100
    },
    {
      "midi": 70,
      "hit": false,
      "t": 102194.93800001948,
      "d": 60.975500000000466,
      "v": 100
    },
    {
      "midi": 65,
      "hit": false,
      "t": 102194.93800001948,
      "d": 60.975500000000466,
      "v": 100
    },
    {
      "midi": 62,
      "hit": false,
      "t": 102194.93800001948,
      "d": 60.975500000000466,
      "v": 100
    },
    {
      "midi": 82,
      "hit": false,
      "t": 102316.88900000013,
      "d": 243.90200000000186,
      "v": 100
    },
    {
      "midi": 77,
      "hit": false,
      "t": 102316.88900000013,
      "d": 243.90200000000186,
      "v": 100
    },
    {
      "midi": 74,
      "hit": false,
      "t": 102316.88900000013,
      "d": 325.2026666666643,
      "v": 100
    },
    {
      "midi": 31,
      "hit": false,
      "t": 102316.88900000027,
      "d": 243.90200000000186,
      "v": 100
    },
    {
      "midi": 82,
      "hit": false,
      "t": 102316.88900000036,
      "d": 487.8040000000037,
      "v": 100
    },
    {
      "midi": 79,
      "hit": false,
      "t": 102316.88900000036,
      "d": 487.8040000000037,
      "v": 100
    },
    {
      "midi": 54,
      "hit": false,
      "t": 102316.8890000004,
      "d": 1.0162583333294606,
      "v": 60
    },
    {
      "midi": 79,
      "hit": false,
      "t": 102316.88900000042,
      "d": 121.95100000000093,
      "v": 100
    },
    {
      "midi": 44,
      "hit": false,
      "t": 102316.88900000058,
      "d": 1.0162583333294606,
      "v": 100
    },
    {
      "midi": 40,
      "hit": false,
      "t": 102316.88900000058,
      "d": 1.0162583333294606,
      "v": 100
    },
    {
      "midi": 70,
      "hit": false,
      "t": 102316.88900001948,
      "d": 60.975500000000466,
      "v": 100
    },
    {
      "midi": 65,
      "hit": false,
      "t": 102316.88900001948,
      "d": 60.975500000000466,
      "v": 100
    },
    {
      "midi": 62,
      "hit": false,
      "t": 102316.88900001948,
      "d": 60.975500000000466,
      "v": 100
    },
    {
      "midi": 54,
      "hit": false,
      "t": 102438.8400000004,
      "d": 1.0162583333294606,
      "v": 80
    },
    {
      "midi": 79,
      "hit": false,
      "t": 102438.84000000042,
      "d": 121.95100000000093,
      "v": 100
    },
    {
      "midi": 67,
      "hit": false,
      "t": 102438.84000000052,
      "d": 121.95100000000093,
      "v": 100
    },
    {
      "midi": 63,
      "hit": false,
      "t": 102438.84000000052,
      "d": 121.95100000000093,
      "v": 100
    },
    {
      "midi": 58,
      "hit": false,
      "t": 102438.84000000052,
      "d": 121.95100000000093,
      "v": 100
    },
    {
      "midi": 33,
      "hit": false,
      "t": 102438.84000000058,
      "d": 1.0162583333294606,
      "v": 127
    },
    {
      "midi": 42,
      "hit": false,
      "t": 102438.84000000058,
      "d": 1.0162583333294606,
      "v": 100
    },
    {
      "midi": 50,
      "hit": false,
      "t": 102438.8400000006,
      "d": 975.6079999999929,
      "v": 100
    },
    {
      "midi": 43,
      "hit": false,
      "t": 102438.8400000006,
      "d": 975.6079999999929,
      "v": 100
    },
    {
      "midi": 67,
      "hit": false,
      "t": 102438.84000001948,
      "d": 60.975500000145985,
      "v": 100
    },
    {
      "midi": 62,
      "hit": false,
      "t": 102438.84000001948,
      "d": 60.975500000145985,
      "v": 100
    },
    {
      "midi": 58,
      "hit": false,
      "t": 102438.84000001948,
      "d": 60.975500000145985,
      "v": 100
    },
    {
      "midi": 31,
      "hit": false,
      "t": 102560.79100000027,
      "d": 121.95100000000093,
      "v": 100
    },
    {
      "midi": 54,
      "hit": false,
      "t": 102560.7910000004,
      "d": 1.0162583333294606,
      "v": 60
    },
    {
      "midi": 79,
      "hit": false,
      "t": 102560.79100000042,
      "d": 121.95100000000093,
      "v": 100
    },
    {
      "midi": 67,
      "hit": false,
      "t": 102560.79100000052,
      "d": 121.95100000000093,
      "v": 100
    },
    {
      "midi": 63,
      "hit": false,
      "t": 102560.79100000052,
      "d": 121.95100000000093,
      "v": 100
    },
    {
      "midi": 58,
      "hit": false,
      "t": 102560.79100000052,
      "d": 121.95100000000093,
      "v": 100
    },
    {
      "midi": 40,
      "hit": false,
      "t": 102560.79100000058,
      "d": 1.0162583333294606,
      "v": 100
    },
    {
      "midi": 67,
      "hit": false,
      "t": 102560.79100001966,
      "d": 60.97550000001502,
      "v": 100
    },
    {
      "midi": 62,
      "hit": false,
      "t": 102560.79100001966,
      "d": 60.97550000001502,
      "v": 100
    },
    {
      "midi": 58,
      "hit": false,
      "t": 102560.79100001966,
      "d": 60.97550000001502,
      "v": 100
    },
    {
      "midi": 74,
      "hit": false,
      "t": 102682.74200000013,
      "d": 243.90200000000186,
      "v": 100
    },
    {
      "midi": 82,
      "hit": false,
      "t": 102682.74200000013,
      "d": 243.90200000000186,
      "v": 100
    },
    {
      "midi": 77,
      "hit": false,
      "t": 102682.74200000013,
      "d": 243.90200000000186,
      "v": 100
    },
    {
      "midi": 31,
      "hit": false,
      "t": 102682.74200000027,
      "d": 243.90200000000186,
      "v": 100
    },
    {
      "midi": 54,
      "hit": false,
      "t": 102682.7420000004,
      "d": 1.0162583333294606,
      "v": 60
    },
    {
      "midi": 79,
      "hit": false,
      "t": 102682.74200000042,
      "d": 121.95100000000093,
      "v": 100
    },
    {
      "midi": 46,
      "hit": false,
      "t": 102682.74200000058,
      "d": 1.0162583333294606,
      "v": 100
    },
    {
      "midi": 67,
      "hit": false,
      "t": 102682.7420000198,
      "d": 60.975500000000466,
      "v": 100
    },
    {
      "midi": 62,
      "hit": false,
      "t": 102682.7420000198,
      "d": 60.975500000000466,
      "v": 100
    },
    {
      "midi": 58,
      "hit": false,
      "t": 102682.7420000198,
      "d": 60.975500000000466,
      "v": 100
    },
    {
      "midi": 54,
      "hit": false,
      "t": 102804.6930000004,
      "d": 1.0162583333294606,
      "v": 60
    },
    {
      "midi": 79,
      "hit": false,
      "t": 102804.69300000042,
      "d": 121.95100000000093,
      "v": 100
    },
    {
      "midi": 67,
      "hit": false,
      "t": 102804.69300000052,
      "d": 121.95100000000093,
      "v": 100
    },
    {
      "midi": 63,
      "hit": false,
      "t": 102804.69300000052,
      "d": 121.95100000000093,
      "v": 100
    },
    {
      "midi": 58,
      "hit": false,
      "t": 102804.69300000052,
      "d": 121.95100000000093,
      "v": 100
    },
    {
      "midi": 44,
      "hit": false,
      "t": 102804.69300000058,
      "d": 1.0162583333294606,
      "v": 100
    },
    {
      "midi": 67,
      "hit": false,
      "t": 102804.6930000198,
      "d": 60.975500000000466,
      "v": 100
    },
    {
      "midi": 62,
      "hit": false,
      "t": 102804.6930000198,
      "d": 60.975500000000466,
      "v": 100
    },
    {
      "midi": 58,
      "hit": false,
      "t": 102804.6930000198,
      "d": 60.975500000000466,
      "v": 100
    },
    {
      "midi": 74,
      "hit": false,
      "t": 102926.64400000013,
      "d": 243.90200000000186,
      "v": 100
    },
    {
      "midi": 79,
      "hit": false,
      "t": 102926.64400000013,
      "d": 243.90200000000186,
      "v": 100
    },
    {
      "midi": 77,
      "hit": false,
      "t": 102926.64400000013,
      "d": 243.90200000000186,
      "v": 100
    },
    {
      "midi": 31,
      "hit": false,
      "t": 102926.64400000028,
      "d": 243.90200000000186,
      "v": 100
    },
    {
      "midi": 80,
      "hit": false,
      "t": 102926.64400000036,
      "d": 243.90200000000186,
      "v": 100
    },
    {
      "midi": 77,
      "hit": false,
      "t": 102926.64400000036,
      "d": 243.90200000000186,
      "v": 100
    },
    {
      "midi": 54,
      "hit": false,
      "t": 102926.64400000041,
      "d": 1.0162583333294606,
      "v": 80
    },
    {
      "midi": 74,
      "hit": false,
      "t": 102926.64400000042,
      "d": 121.95100000000093,
      "v": 100
    },
    {
      "midi": 33,
      "hit": false,
      "t": 102926.64400000058,
      "d": 1.0162583333294606,
      "v": 127
    },
    {
      "midi": 40,
      "hit": false,
      "t": 102926.64400000058,
      "d": 1.0162583333294606,
      "v": 100
    },
    {
      "midi": 46,
      "hit": false,
      "t": 102926.64400000058,
      "d": 1.0162583333294606,
      "v": 100
    },
    {
      "midi": 67,
      "hit": false,
      "t": 102926.6440000198,
      "d": 243.9020000002929,
      "v": 100
    },
    {
      "midi": 62,
      "hit": false,
      "t": 102926.6440000198,
      "d": 243.9020000002929,
      "v": 100
    },
    {
      "midi": 58,
      "hit": false,
      "t": 102926.6440000198,
      "d": 243.9020000002929,
      "v": 100
    },
    {
      "midi": 54,
      "hit": false,
      "t": 103048.59500000041,
      "d": 1.0162583333294606,
      "v": 60
    },
    {
      "midi": 74,
      "hit": false,
      "t": 103048.59500000042,
      "d": 121.95100000000093,
      "v": 100
    },
    {
      "midi": 44,
      "hit": false,
      "t": 103048.59500000058,
      "d": 1.0162583333294606,
      "v": 100
    },
    {
      "midi": 74,
      "hit": false,
      "t": 103170.54600000013,
      "d": 243.90200000000186,
      "v": 100
    },
    {
      "midi": 82,
      "hit": false,
      "t": 103170.54600000013,
      "d": 243.90200000000186,
      "v": 100
    },
    {
      "midi": 77,
      "hit": false,
      "t": 103170.54600000013,
      "d": 243.90200000000186,
      "v": 100
    },
    {
      "midi": 31,
      "hit": false,
      "t": 103170.54600000028,
      "d": 243.90200000000186,
      "v": 100
    },
    {
      "midi": 82,
      "hit": false,
      "t": 103170.54600000037,
      "d": 243.90200000000186,
      "v": 100
    },
    {
      "midi": 79,
      "hit": false,
      "t": 103170.54600000037,
      "d": 243.90200000000186,
      "v": 100
    },
    {
      "midi": 54,
      "hit": false,
      "t": 103170.54600000041,
      "d": 1.0162583333294606,
      "v": 60
    },
    {
      "midi": 79,
      "hit": false,
      "t": 103170.54600000042,
      "d": 121.95100000000093,
      "v": 100
    },
    {
      "midi": 40,
      "hit": false,
      "t": 103170.54600000058,
      "d": 1.0162583333294606,
      "v": 40
    },
    {
      "midi": 46,
      "hit": false,
      "t": 103170.54600000058,
      "d": 1.0162583333294606,
      "v": 100
    },
    {
      "midi": 67,
      "hit": false,
      "t": 103170.5460000201,
      "d": 60.975500000000466,
      "v": 100
    },
    {
      "midi": 62,
      "hit": false,
      "t": 103170.5460000201,
      "d": 60.975500000000466,
      "v": 100
    },
    {
      "midi": 58,
      "hit": false,
      "t": 103170.5460000201,
      "d": 60.975500000000466,
      "v": 100
    },
    {
      "midi": 54,
      "hit": false,
      "t": 103292.49700000041,
      "d": 1.0162583333294606,
      "v": 60
    },
    {
      "midi": 79,
      "hit": false,
      "t": 103292.49700000043,
      "d": 121.95100000000093,
      "v": 100
    },
    {
      "midi": 40,
      "hit": false,
      "t": 103292.49700000059,
      "d": 1.0162583333294606,
      "v": 100
    },
    {
      "midi": 44,
      "hit": false,
      "t": 103292.49700000059,
      "d": 1.0162583333294606,
      "v": 100
    },
    {
      "midi": 67,
      "hit": false,
      "t": 103292.4970000201,
      "d": 60.975500000000466,
      "v": 100
    },
    {
      "midi": 62,
      "hit": false,
      "t": 103292.4970000201,
      "d": 60.975500000000466,
      "v": 100
    },
    {
      "midi": 58,
      "hit": false,
      "t": 103292.4970000201,
      "d": 60.975500000000466,
      "v": 100
    },
    {
      "midi": 80,
      "hit": false,
      "t": 103414.44800000013,
      "d": 243.90200000000186,
      "v": 100
    },
    {
      "midi": 75,
      "hit": false,
      "t": 103414.44800000013,
      "d": 243.90200000000186,
      "v": 100
    },
    {
      "midi": 72,
      "hit": false,
      "t": 103414.44800000013,
      "d": 243.90200000000186,
      "v": 100
    },
    {
      "midi": 29,
      "hit": false,
      "t": 103414.44800000028,
      "d": 243.90200000000186,
      "v": 100
    },
    {
      "midi": 80,
      "hit": false,
      "t": 103414.44800000037,
      "d": 243.90200000000186,
      "v": 100
    },
    {
      "midi": 77,
      "hit": false,
      "t": 103414.44800000037,
      "d": 243.90200000000186,
      "v": 100
    },
    {
      "midi": 54,
      "hit": false,
      "t": 103414.44800000041,
      "d": 1.0162583333294606,
      "v": 80
    },
    {
      "midi": 65,
      "hit": false,
      "t": 103414.44800000043,
      "d": 121.95100000000093,
      "v": 100
    },
    {
      "midi": 41,
      "hit": false,
      "t": 103414.44800000059,
      "d": 975.6079999999929,
      "v": 100
    },
    {
      "midi": 48,
      "hit": false,
      "t": 103414.44800000059,
      "d": 975.6079999999929,
      "v": 100
    },
    {
      "midi": 33,
      "hit": false,
      "t": 103414.44800000059,
      "d": 1.0162583333294606,
      "v": 127
    },
    {
      "midi": 42,
      "hit": false,
      "t": 103414.44800000059,
      "d": 1.0162583333294606,
      "v": 100
    },
    {
      "midi": 68,
      "hit": false,
      "t": 103414.4480000201,
      "d": 487.8040000002802,
      "v": 100
    },
    {
      "midi": 63,
      "hit": false,
      "t": 103414.4480000201,
      "d": 487.8040000002802,
      "v": 100
    },
    {
      "midi": 60,
      "hit": false,
      "t": 103414.4480000201,
      "d": 487.8040000002802,
      "v": 100
    },
    {
      "midi": 54,
      "hit": false,
      "t": 103536.39900000041,
      "d": 1.0162583333294606,
      "v": 60
    },
    {
      "midi": 58,
      "hit": false,
      "t": 103536.39900000043,
      "d": 121.95100000000093,
      "v": 100
    },
    {
      "midi": 60,
      "hit": false,
      "t": 103536.39900000053,
      "d": 121.95100000000093,
      "v": 100
    },
    {
      "midi": 63,
      "hit": false,
      "t": 103536.39900000053,
      "d": 121.95100000000093,
      "v": 100
    },
    {
      "midi": 68,
      "hit": false,
      "t": 103536.39900000053,
      "d": 121.95100000000093,
      "v": 100
    },
    {
      "midi": 29,
      "hit": false,
      "t": 103658.35000000028,
      "d": 243.90200000000186,
      "v": 100
    },
    {
      "midi": 54,
      "hit": false,
      "t": 103658.35000000041,
      "d": 1.0162583333294606,
      "v": 60
    },
    {
      "midi": 65,
      "hit": false,
      "t": 103658.35000000043,
      "d": 121.95100000000093,
      "v": 100
    },
    {
      "midi": 68,
      "hit": false,
      "t": 103658.35000000053,
      "d": 121.95100000000093,
      "v": 100
    },
    {
      "midi": 63,
      "hit": false,
      "t": 103658.35000000053,
      "d": 121.95100000000093,
      "v": 100
    },
    {
      "midi": 60,
      "hit": false,
      "t": 103658.35000000053,
      "d": 121.95100000000093,
      "v": 100
    },
    {
      "midi": 46,
      "hit": false,
      "t": 103658.35000000059,
      "d": 1.0162583333294606,
      "v": 100
    },
    {
      "midi": 54,
      "hit": false,
      "t": 103780.30100000041,
      "d": 1.0162583333294606,
      "v": 60
    },
    {
      "midi": 70,
      "hit": false,
      "t": 103780.30100000043,
      "d": 121.95100000000093,
      "v": 100
    },
    {
      "midi": 44,
      "hit": false,
      "t": 103780.30100000059,
      "d": 1.0162583333294606,
      "v": 100
    },
    {
      "midi": 80,
      "hit": false,
      "t": 103902.25200000014,
      "d": 243.90200000000186,
      "v": 100
    },
    {
      "midi": 75,
      "hit": false,
      "t": 103902.25200000014,
      "d": 243.90200000000186,
      "v": 100
    },
    {
      "midi": 72,
      "hit": false,
      "t": 103902.25200000014,
      "d": 243.90200000000186,
      "v": 100
    },
    {
      "midi": 29,
      "hit": false,
      "t": 103902.25200000028,
      "d": 243.90200000000186,
      "v": 100
    },
    {
      "midi": 80,
      "hit": false,
      "t": 103902.25200000037,
      "d": 243.90200000000186,
      "v": 100
    },
    {
      "midi": 77,
      "hit": false,
      "t": 103902.25200000037,
      "d": 243.90200000000186,
      "v": 100
    },
    {
      "midi": 54,
      "hit": false,
      "t": 103902.25200000042,
      "d": 1.0162583333294606,
      "v": 80
    },
    {
      "midi": 65,
      "hit": false,
      "t": 103902.25200000043,
      "d": 121.95100000000093,
      "v": 100
    },
    {
      "midi": 68,
      "hit": false,
      "t": 103902.25200000053,
      "d": 121.95100000000093,
      "v": 100
    },
    {
      "midi": 63,
      "hit": false,
      "t": 103902.25200000053,
      "d": 121.95100000000093,
      "v": 100
    },
    {
      "midi": 60,
      "hit": false,
      "t": 103902.25200000053,
      "d": 121.95100000000093,
      "v": 100
    },
    {
      "midi": 33,
      "hit": false,
      "t": 103902.25200000059,
      "d": 1.0162583333294606,
      "v": 127
    },
    {
      "midi": 40,
      "hit": false,
      "t": 103902.25200000059,
      "d": 1.0162583333294606,
      "v": 100
    },
    {
      "midi": 46,
      "hit": false,
      "t": 103902.25200000059,
      "d": 1.0162583333294606,
      "v": 100
    },
    {
      "midi": 68,
      "hit": false,
      "t": 103902.25200002038,
      "d": 60.975500000145985,
      "v": 100
    },
    {
      "midi": 63,
      "hit": false,
      "t": 103902.25200002038,
      "d": 60.975500000145985,
      "v": 100
    },
    {
      "midi": 60,
      "hit": false,
      "t": 103902.25200002038,
      "d": 60.975500000145985,
      "v": 100
    },
    {
      "midi": 54,
      "hit": false,
      "t": 104024.20300000042,
      "d": 1.0162583333294606,
      "v": 60
    },
    {
      "midi": 70,
      "hit": false,
      "t": 104024.20300000043,
      "d": 121.95100000000093,
      "v": 100
    },
    {
      "midi": 44,
      "hit": false,
      "t": 104024.20300000059,
      "d": 1.0162583333294606,
      "v": 100
    },
    {
      "midi": 68,
      "hit": false,
      "t": 104024.20300002056,
      "d": 60.97550000001502,
      "v": 100
    },
    {
      "midi": 63,
      "hit": false,
      "t": 104024.20300002056,
      "d": 60.97550000001502,
      "v": 100
    },
    {
      "midi": 60,
      "hit": false,
      "t": 104024.20300002056,
      "d": 60.97550000001502,
      "v": 100
    },
    {
      "midi": 29,
      "hit": false,
      "t": 104146.15400000029,
      "d": 71.13808333333873,
      "v": 100
    },
    {
      "midi": 82,
      "hit": false,
      "t": 104146.15400000037,
      "d": 121.95100000000093,
      "v": 100
    },
    {
      "midi": 79,
      "hit": false,
      "t": 104146.15400000037,
      "d": 121.95100000000093,
      "v": 100
    },
    {
      "midi": 54,
      "hit": false,
      "t": 104146.15400000042,
      "d": 1.0162583333294606,
      "v": 60
    },
    {
      "midi": 77,
      "hit": false,
      "t": 104146.15400000043,
      "d": 121.95100000000093,
      "v": 100
    },
    {
      "midi": 68,
      "hit": false,
      "t": 104146.15400000053,
      "d": 121.95100000000093,
      "v": 100
    },
    {
      "midi": 63,
      "hit": false,
      "t": 104146.15400000053,
      "d": 121.95100000000093,
      "v": 100
    },
    {
      "midi": 60,
      "hit": false,
      "t": 104146.15400000053,
      "d": 121.95100000000093,
      "v": 100
    },
    {
      "midi": 46,
      "hit": false,
      "t": 104146.15400000059,
      "d": 1.0162583333294606,
      "v": 100
    },
    {
      "midi": 68,
      "hit": false,
      "t": 104146.1540000207,
      "d": 60.975500000000466,
      "v": 100
    },
    {
      "midi": 63,
      "hit": false,
      "t": 104146.1540000207,
      "d": 60.975500000000466,
      "v": 100
    },
    {
      "midi": 60,
      "hit": false,
      "t": 104146.1540000207,
      "d": 60.975500000000466,
      "v": 100
    },
    {
      "midi": 82,
      "hit": false,
      "t": 104268.10500000014,
      "d": 365.8530000000028,
      "v": 100
    },
    {
      "midi": 77,
      "hit": false,
      "t": 104268.10500000014,
      "d": 365.8530000000028,
      "v": 100
    },
    {
      "midi": 74,
      "hit": false,
      "t": 104268.10500000014,
      "d": 365.8530000000028,
      "v": 100
    },
    {
      "midi": 34,
      "hit": false,
      "t": 104268.10500000029,
      "d": 243.90200000000186,
      "v": 100
    },
    {
      "midi": 77,
      "hit": false,
      "t": 104268.10500000037,
      "d": 487.8040000000037,
      "v": 100
    },
    {
      "midi": 74,
      "hit": false,
      "t": 104268.10500000037,
      "d": 487.8040000000037,
      "v": 100
    },
    {
      "midi": 54,
      "hit": false,
      "t": 104268.10500000042,
      "d": 1.0162583333294606,
      "v": 60
    },
    {
      "midi": 82,
      "hit": false,
      "t": 104268.10500000043,
      "d": 121.95100000000093,
      "v": 100
    },
    {
      "midi": 44,
      "hit": false,
      "t": 104268.10500000059,
      "d": 1.0162583333294606,
      "v": 100
    },
    {
      "midi": 68,
      "hit": false,
      "t": 104268.1050000207,
      "d": 60.975500000000466,
      "v": 100
    },
    {
      "midi": 63,
      "hit": false,
      "t": 104268.1050000207,
      "d": 60.975500000000466,
      "v": 100
    },
    {
      "midi": 60,
      "hit": false,
      "t": 104268.1050000207,
      "d": 60.975500000000466,
      "v": 100
    },
    {
      "midi": 54,
      "hit": false,
      "t": 104390.05600000042,
      "d": 1.0162583333294606,
      "v": 80
    },
    {
      "midi": 82,
      "hit": false,
      "t": 104390.05600000043,
      "d": 121.95100000000093,
      "v": 100
    },
    {
      "midi": 70,
      "hit": false,
      "t": 104390.05600000054,
      "d": 121.95100000000093,
      "v": 100
    },
    {
      "midi": 65,
      "hit": false,
      "t": 104390.05600000054,
      "d": 121.95100000000093,
      "v": 100
    },
    {
      "midi": 62,
      "hit": false,
      "t": 104390.05600000054,
      "d": 121.95100000000093,
      "v": 100
    },
    {
      "midi": 46,
      "hit": false,
      "t": 104390.05600000058,
      "d": 975.6079999999929,
      "v": 100
    },
    {
      "midi": 53,
      "hit": false,
      "t": 104390.05600000058,
      "d": 975.6079999999929,
      "v": 100
    },
    {
      "midi": 33,
      "hit": false,
      "t": 104390.0560000006,
      "d": 1.0162583333294606,
      "v": 127
    },
    {
      "midi": 42,
      "hit": false,
      "t": 104390.0560000006,
      "d": 1.0162583333294606,
      "v": 100
    },
    {
      "midi": 70,
      "hit": false,
      "t": 104390.0560000207,
      "d": 60.975500000145985,
      "v": 100
    },
    {
      "midi": 65,
      "hit": false,
      "t": 104390.0560000207,
      "d": 60.975500000145985,
      "v": 100
    },
    {
      "midi": 62,
      "hit": false,
      "t": 104390.0560000207,
      "d": 60.975500000145985,
      "v": 100
    },
    {
      "midi": 34,
      "hit": false,
      "t": 104512.00700000029,
      "d": 121.95100000000093,
      "v": 100
    },
    {
      "midi": 54,
      "hit": false,
      "t": 104512.00700000042,
      "d": 1.0162583333294606,
      "v": 60
    },
    {
      "midi": 82,
      "hit": false,
      "t": 104512.00700000043,
      "d": 121.95100000000093,
      "v": 100
    },
    {
      "midi": 70,
      "hit": false,
      "t": 104512.00700000054,
      "d": 121.95100000000093,
      "v": 100
    },
    {
      "midi": 65,
      "hit": false,
      "t": 104512.00700000054,
      "d": 121.95100000000093,
      "v": 100
    },
    {
      "midi": 62,
      "hit": false,
      "t": 104512.00700000054,
      "d": 121.95100000000093,
      "v": 100
    },
    {
      "midi": 70,
      "hit": false,
      "t": 104512.00700002088,
      "d": 60.97550000001502,
      "v": 100
    },
    {
      "midi": 65,
      "hit": false,
      "t": 104512.00700002088,
      "d": 60.97550000001502,
      "v": 100
    },
    {
      "midi": 62,
      "hit": false,
      "t": 104512.00700002088,
      "d": 60.97550000001502,
      "v": 100
    },
    {
      "midi": 82,
      "hit": false,
      "t": 104633.95800000014,
      "d": 243.90200000000186,
      "v": 100
    },
    {
      "midi": 77,
      "hit": false,
      "t": 104633.95800000014,
      "d": 243.90200000000186,
      "v": 100
    },
    {
      "midi": 74,
      "hit": false,
      "t": 104633.95800000014,
      "d": 243.90200000000186,
      "v": 100
    },
    {
      "midi": 34,
      "hit": false,
      "t": 104633.95800000029,
      "d": 243.90200000000186,
      "v": 100
    },
    {
      "midi": 54,
      "hit": false,
      "t": 104633.95800000042,
      "d": 1.0162583333294606,
      "v": 60
    },
    {
      "midi": 82,
      "hit": false,
      "t": 104633.95800000044,
      "d": 121.95100000000093,
      "v": 100
    },
    {
      "midi": 46,
      "hit": false,
      "t": 104633.9580000006,
      "d": 1.0162583333294606,
      "v": 100
    },
    {
      "midi": 70,
      "hit": false,
      "t": 104633.95800002103,
      "d": 60.975500000000466,
      "v": 100
    },
    {
      "midi": 65,
      "hit": false,
      "t": 104633.95800002103,
      "d": 60.975500000000466,
      "v": 100
    },
    {
      "midi": 62,
      "hit": false,
      "t": 104633.95800002103,
      "d": 60.975500000000466,
      "v": 100
    },
    {
      "midi": 54,
      "hit": false,
      "t": 104755.90900000042,
      "d": 1.0162583333294606,
      "v": 60
    },
    {
      "midi": 82,
      "hit": false,
      "t": 104755.90900000044,
      "d": 121.95100000000093,
      "v": 100
    },
    {
      "midi": 70,
      "hit": false,
      "t": 104755.90900000054,
      "d": 121.95100000000093,
      "v": 100
    },
    {
      "midi": 65,
      "hit": false,
      "t": 104755.90900000054,
      "d": 121.95100000000093,
      "v": 100
    },
    {
      "midi": 62,
      "hit": false,
      "t": 104755.90900000054,
      "d": 121.95100000000093,
      "v": 100
    },
    {
      "midi": 44,
      "hit": false,
      "t": 104755.9090000006,
      "d": 1.0162583333294606,
      "v": 100
    },
    {
      "midi": 70,
      "hit": false,
      "t": 104755.90900002103,
      "d": 60.975500000000466,
      "v": 100
    },
    {
      "midi": 65,
      "hit": false,
      "t": 104755.90900002103,
      "d": 60.975500000000466,
      "v": 100
    },
    {
      "midi": 62,
      "hit": false,
      "t": 104755.90900002103,
      "d": 60.975500000000466,
      "v": 100
    },
    {
      "midi": 77,
      "hit": false,
      "t": 104877.86000000015,
      "d": 243.90200000000186,
      "v": 100
    },
    {
      "midi": 74,
      "hit": false,
      "t": 104877.86000000015,
      "d": 243.90200000000186,
      "v": 100
    },
    {
      "midi": 70,
      "hit": false,
      "t": 104877.86000000015,
      "d": 243.90200000000186,
      "v": 100
    },
    {
      "midi": 34,
      "hit": false,
      "t": 104877.86000000029,
      "d": 243.90200000000186,
      "v": 100
    },
    {
      "midi": 77,
      "hit": false,
      "t": 104877.86000000038,
      "d": 243.90200000000186,
      "v": 100
    },
    {
      "midi": 72,
      "hit": false,
      "t": 104877.86000000038,
      "d": 243.90200000000186,
      "v": 100
    },
    {
      "midi": 54,
      "hit": false,
      "t": 104877.86000000042,
      "d": 1.0162583333294606,
      "v": 80
    },
    {
      "midi": 77,
      "hit": false,
      "t": 104877.86000000044,
      "d": 121.95100000000093,
      "v": 100
    },
    {
      "midi": 33,
      "hit": false,
      "t": 104877.8600000006,
      "d": 1.0162583333294606,
      "v": 127
    },
    {
      "midi": 40,
      "hit": false,
      "t": 104877.8600000006,
      "d": 1.0162583333294606,
      "v": 100
    },
    {
      "midi": 46,
      "hit": false,
      "t": 104877.8600000006,
      "d": 1.0162583333294606,
      "v": 100
    },
    {
      "midi": 70,
      "hit": false,
      "t": 104877.86000002103,
      "d": 243.9020000002929,
      "v": 100
    },
    {
      "midi": 65,
      "hit": false,
      "t": 104877.86000002103,
      "d": 243.9020000002929,
      "v": 100
    },
    {
      "midi": 62,
      "hit": false,
      "t": 104877.86000002103,
      "d": 243.9020000002929,
      "v": 100
    },
    {
      "midi": 54,
      "hit": false,
      "t": 104999.81100000042,
      "d": 1.0162583333294606,
      "v": 60
    },
    {
      "midi": 77,
      "hit": false,
      "t": 104999.81100000044,
      "d": 121.95100000000093,
      "v": 100
    },
    {
      "midi": 44,
      "hit": false,
      "t": 104999.8110000006,
      "d": 1.0162583333294606,
      "v": 100
    },
    {
      "midi": 79,
      "hit": false,
      "t": 105121.76200000015,
      "d": 243.90200000000186,
      "v": 100
    },
    {
      "midi": 77,
      "hit": false,
      "t": 105121.76200000015,
      "d": 243.90200000000186,
      "v": 100
    },
    {
      "midi": 74,
      "hit": false,
      "t": 105121.76200000015,
      "d": 243.90200000000186,
      "v": 100
    },
    {
      "midi": 34,
      "hit": false,
      "t": 105121.7620000003,
      "d": 243.90200000000186,
      "v": 100
    },
    {
      "midi": 79,
      "hit": false,
      "t": 105121.76200000038,
      "d": 243.90200000000186,
      "v": 100
    },
    {
      "midi": 74,
      "hit": false,
      "t": 105121.76200000038,
      "d": 243.90200000000186,
      "v": 100
    },
    {
      "midi": 54,
      "hit": false,
      "t": 105121.76200000042,
      "d": 1.0162583333294606,
      "v": 60
    },
    {
      "midi": 79,
      "hit": false,
      "t": 105121.76200000044,
      "d": 121.95100000000093,
      "v": 100
    },
    {
      "midi": 40,
      "hit": false,
      "t": 105121.7620000006,
      "d": 1.0162583333294606,
      "v": 40
    },
    {
      "midi": 46,
      "hit": false,
      "t": 105121.7620000006,
      "d": 1.0162583333294606,
      "v": 100
    },
    {
      "midi": 70,
      "hit": false,
      "t": 105121.76200002132,
      "d": 60.975500000000466,
      "v": 100
    },
    {
      "midi": 65,
      "hit": false,
      "t": 105121.76200002132,
      "d": 60.975500000000466,
      "v": 100
    },
    {
      "midi": 62,
      "hit": false,
      "t": 105121.76200002132,
      "d": 60.975500000000466,
      "v": 100
    },
    {
      "midi": 54,
      "hit": false,
      "t": 105243.71300000043,
      "d": 1.0162583333294606,
      "v": 60
    },
    {
      "midi": 79,
      "hit": false,
      "t": 105243.71300000044,
      "d": 121.95100000000093,
      "v": 100
    },
    {
      "midi": 40,
      "hit": false,
      "t": 105243.7130000006,
      "d": 1.0162583333294606,
      "v": 100
    },
    {
      "midi": 44,
      "hit": false,
      "t": 105243.7130000006,
      "d": 1.0162583333294606,
      "v": 100
    },
    {
      "midi": 70,
      "hit": false,
      "t": 105243.71300002132,
      "d": 60.975500000000466,
      "v": 100
    },
    {
      "midi": 65,
      "hit": false,
      "t": 105243.71300002132,
      "d": 60.975500000000466,
      "v": 100
    },
    {
      "midi": 62,
      "hit": false,
      "t": 105243.71300002132,
      "d": 60.975500000000466,
      "v": 100
    },
    {
      "midi": 79,
      "hit": false,
      "t": 105365.664,
      "d": 1951.2160000000003,
      "v": 127
    },
    {
      "midi": 79,
      "hit": false,
      "t": 105365.66400000015,
      "d": 243.90200000000186,
      "v": 100
    },
    {
      "midi": 75,
      "hit": false,
      "t": 105365.66400000015,
      "d": 243.90200000000186,
      "v": 100
    },
    {
      "midi": 70,
      "hit": false,
      "t": 105365.66400000015,
      "d": 243.90200000000186,
      "v": 100
    },
    {
      "midi": 27,
      "hit": false,
      "t": 105365.6640000003,
      "d": 243.90200000000186,
      "v": 100
    },
    {
      "midi": 77,
      "hit": false,
      "t": 105365.66400000038,
      "d": 243.90200000000186,
      "v": 100
    },
    {
      "midi": 72,
      "hit": false,
      "t": 105365.66400000038,
      "d": 243.90200000000186,
      "v": 100
    },
    {
      "midi": 54,
      "hit": false,
      "t": 105365.66400000043,
      "d": 1.0162583333294606,
      "v": 80
    },
    {
      "midi": 75,
      "hit": false,
      "t": 105365.66400000044,
      "d": 121.95100000000093,
      "v": 100
    },
    {
      "midi": 39,
      "hit": false,
      "t": 105365.66400000057,
      "d": 1219.5099999999948,
      "v": 100
    },
    {
      "midi": 46,
      "hit": false,
      "t": 105365.66400000057,
      "d": 1219.5099999999948,
      "v": 100
    },
    {
      "midi": 33,
      "hit": false,
      "t": 105365.6640000006,
      "d": 1.0162583333294606,
      "v": 127
    },
    {
      "midi": 42,
      "hit": false,
      "t": 105365.6640000006,
      "d": 1.0162583333294606,
      "v": 100
    },
    {
      "midi": 67,
      "hit": false,
      "t": 105365.66400002132,
      "d": 487.8040000002802,
      "v": 100
    },
    {
      "midi": 58,
      "hit": false,
      "t": 105365.66400002132,
      "d": 487.8040000002802,
      "v": 100
    },
    {
      "midi": 63,
      "hit": false,
      "t": 105365.66400002132,
      "d": 487.8040000002802,
      "v": 100
    },
    {
      "midi": 67,
      "hit": false,
      "t": 105487.61500000054,
      "d": 121.95100000000093,
      "v": 100
    },
    {
      "midi": 63,
      "hit": false,
      "t": 105487.61500000054,
      "d": 121.95100000000093,
      "v": 100
    },
    {
      "midi": 58,
      "hit": false,
      "t": 105487.61500000054,
      "d": 121.95100000000093,
      "v": 100
    },
    {
      "midi": 40,
      "hit": false,
      "t": 105487.6150000006,
      "d": 1.0162583333294606,
      "v": 100
    },
    {
      "midi": 27,
      "hit": false,
      "t": 105609.5660000003,
      "d": 20.32516666666197,
      "v": 100
    },
    {
      "midi": 75,
      "hit": false,
      "t": 105609.56600000038,
      "d": 121.95100000000093,
      "v": 100
    },
    {
      "midi": 70,
      "hit": false,
      "t": 105609.56600000038,
      "d": 121.95100000000093,
      "v": 100
    },
    {
      "midi": 67,
      "hit": false,
      "t": 105609.56600000054,
      "d": 121.95100000000093,
      "v": 100
    },
    {
      "midi": 63,
      "hit": false,
      "t": 105609.56600000054,
      "d": 121.95100000000093,
      "v": 100
    },
    {
      "midi": 58,
      "hit": false,
      "t": 105609.56600000054,
      "d": 121.95100000000093,
      "v": 100
    },
    {
      "midi": 46,
      "hit": false,
      "t": 105609.5660000006,
      "d": 1.0162583333294606,
      "v": 100
    },
    {
      "midi": 27,
      "hit": false,
      "t": 105731.5170000003,
      "d": 243.90200000000186,
      "v": 100
    },
    {
      "midi": 75,
      "hit": false,
      "t": 105731.51700000039,
      "d": 1585.3629999999976,
      "v": 100
    },
    {
      "midi": 70,
      "hit": false,
      "t": 105731.51700000039,
      "d": 1585.3629999999976,
      "v": 100
    },
    {
      "midi": 44,
      "hit": false,
      "t": 105731.5170000006,
      "d": 1.0162583333294606,
      "v": 100
    },
    {
      "midi": 36,
      "hit": false,
      "t": 105853.46800000015,
      "d": 1463.4120000000112,
      "v": 100
    },
    {
      "midi": 67,
      "hit": false,
      "t": 105853.46800000055,
      "d": 121.95100000000093,
      "v": 100
    },
    {
      "midi": 63,
      "hit": false,
      "t": 105853.46800000055,
      "d": 121.95100000000093,
      "v": 100
    },
    {
      "midi": 58,
      "hit": false,
      "t": 105853.46800000055,
      "d": 121.95100000000093,
      "v": 100
    },
    {
      "midi": 46,
      "hit": false,
      "t": 105853.4680000006,
      "d": 1.0162583333294606,
      "v": 100
    },
    {
      "midi": 40,
      "hit": false,
      "t": 105853.4680000006,
      "d": 1.0162583333294606,
      "v": 100
    },
    {
      "midi": 67,
      "hit": false,
      "t": 105853.4680000216,
      "d": 60.975500000145985,
      "v": 100
    },
    {
      "midi": 58,
      "hit": false,
      "t": 105853.4680000216,
      "d": 60.975500000145985,
      "v": 100
    },
    {
      "midi": 63,
      "hit": false,
      "t": 105853.4680000216,
      "d": 60.975500000145985,
      "v": 100
    },
    {
      "midi": 39,
      "hit": false,
      "t": 105914.44350000015,
      "d": 182.9265000000014,
      "v": 100
    },
    {
      "midi": 41,
      "hit": false,
      "t": 105975.41900000015,
      "d": 182.9265000000014,
      "v": 100
    },
    {
      "midi": 27,
      "hit": false,
      "t": 105975.4190000003,
      "d": 20.32516666666197,
      "v": 100
    },
    {
      "midi": 67,
      "hit": false,
      "t": 105975.41900000055,
      "d": 121.95100000000093,
      "v": 100
    },
    {
      "midi": 63,
      "hit": false,
      "t": 105975.41900000055,
      "d": 121.95100000000093,
      "v": 100
    },
    {
      "midi": 58,
      "hit": false,
      "t": 105975.41900000055,
      "d": 121.95100000000093,
      "v": 100
    },
    {
      "midi": 44,
      "hit": false,
      "t": 105975.4190000006,
      "d": 1.0162583333294606,
      "v": 100
    },
    {
      "midi": 67,
      "hit": false,
      "t": 105975.41900002178,
      "d": 60.97550000001502,
      "v": 100
    },
    {
      "midi": 58,
      "hit": false,
      "t": 105975.41900002178,
      "d": 60.97550000001502,
      "v": 100
    },
    {
      "midi": 63,
      "hit": false,
      "t": 105975.41900002178,
      "d": 60.97550000001502,
      "v": 100
    },
    {
      "midi": 43,
      "hit": false,
      "t": 106036.39450000015,
      "d": 182.9265000000014,
      "v": 100
    },
    {
      "midi": 46,
      "hit": false,
      "t": 106097.37000000016,
      "d": 182.9265000000014,
      "v": 100
    },
    {
      "midi": 27,
      "hit": false,
      "t": 106097.3700000003,
      "d": 243.90200000000186,
      "v": 100
    },
    {
      "midi": 46,
      "hit": false,
      "t": 106097.3700000006,
      "d": 1.0162583333294606,
      "v": 100
    },
    {
      "midi": 67,
      "hit": false,
      "t": 106097.37000002193,
      "d": 60.975500000000466,
      "v": 100
    },
    {
      "midi": 58,
      "hit": false,
      "t": 106097.37000002193,
      "d": 60.975500000000466,
      "v": 100
    },
    {
      "midi": 63,
      "hit": false,
      "t": 106097.37000002193,
      "d": 60.975500000000466,
      "v": 100
    },
    {
      "midi": 48,
      "hit": false,
      "t": 106158.34550000016,
      "d": 182.9265000000014,
      "v": 100
    },
    {
      "midi": 51,
      "hit": false,
      "t": 106219.32100000016,
      "d": 182.9265000000014,
      "v": 100
    },
    {
      "midi": 67,
      "hit": false,
      "t": 106219.32100000055,
      "d": 121.95100000000093,
      "v": 100
    },
    {
      "midi": 63,
      "hit": false,
      "t": 106219.32100000055,
      "d": 121.95100000000093,
      "v": 100
    },
    {
      "midi": 58,
      "hit": false,
      "t": 106219.32100000055,
      "d": 121.95100000000093,
      "v": 100
    },
    {
      "midi": 44,
      "hit": false,
      "t": 106219.32100000061,
      "d": 1.0162583333294606,
      "v": 100
    },
    {
      "midi": 40,
      "hit": false,
      "t": 106219.32100000061,
      "d": 1.0162583333294606,
      "v": 100
    },
    {
      "midi": 67,
      "hit": false,
      "t": 106219.32100002193,
      "d": 60.975500000000466,
      "v": 100
    },
    {
      "midi": 58,
      "hit": false,
      "t": 106219.32100002193,
      "d": 60.975500000000466,
      "v": 100
    },
    {
      "midi": 63,
      "hit": false,
      "t": 106219.32100002193,
      "d": 60.975500000000466,
      "v": 100
    },
    {
      "midi": 53,
      "hit": false,
      "t": 106280.29650000016,
      "d": 182.9265000000014,
      "v": 100
    },
    {
      "midi": 40,
      "hit": false,
      "t": 106290.45908333393,
      "d": 1.0162583333294606,
      "v": 100
    },
    {
      "midi": 55,
      "hit": false,
      "t": 106341.27200000016,
      "d": 182.9265000000014,
      "v": 100
    },
    {
      "midi": 27,
      "hit": false,
      "t": 106341.2720000003,
      "d": 20.32516666666197,
      "v": 100
    },
    {
      "midi": 67,
      "hit": false,
      "t": 106341.27200000055,
      "d": 121.95100000000093,
      "v": 100
    },
    {
      "midi": 63,
      "hit": false,
      "t": 106341.27200000055,
      "d": 121.95100000000093,
      "v": 100
    },
    {
      "midi": 58,
      "hit": false,
      "t": 106341.27200000055,
      "d": 121.95100000000093,
      "v": 100
    },
    {
      "midi": 42,
      "hit": false,
      "t": 106341.2720000006,
      "d": 1.0162583333294606,
      "v": 100
    },
    {
      "midi": 40,
      "hit": false,
      "t": 106341.2720000006,
      "d": 1.0162583333294606,
      "v": 100
    },
    {
      "midi": 67,
      "hit": false,
      "t": 106341.27200002193,
      "d": 60.975500000145985,
      "v": 100
    },
    {
      "midi": 58,
      "hit": false,
      "t": 106341.27200002193,
      "d": 60.975500000145985,
      "v": 100
    },
    {
      "midi": 63,
      "hit": false,
      "t": 106341.27200002193,
      "d": 60.975500000145985,
      "v": 100
    },
    {
      "midi": 58,
      "hit": false,
      "t": 106402.24750000016,
      "d": 182.9265000000014,
      "v": 100
    },
    {
      "midi": 60,
      "hit": false,
      "t": 106463.22300000016,
      "d": 182.9265000000014,
      "v": 100
    },
    {
      "midi": 27,
      "hit": false,
      "t": 106463.2230000003,
      "d": 243.90200000000186,
      "v": 100
    },
    {
      "midi": 67,
      "hit": false,
      "t": 106463.2230000221,
      "d": 60.97550000001502,
      "v": 100
    },
    {
      "midi": 58,
      "hit": false,
      "t": 106463.2230000221,
      "d": 60.97550000001502,
      "v": 100
    },
    {
      "midi": 63,
      "hit": false,
      "t": 106463.2230000221,
      "d": 60.97550000001502,
      "v": 100
    },
    {
      "midi": 63,
      "hit": false,
      "t": 106524.19850000016,
      "d": 182.9265000000014,
      "v": 100
    },
    {
      "midi": 65,
      "hit": false,
      "t": 106585.17400000016,
      "d": 182.9265000000014,
      "v": 100
    },
    {
      "midi": 67,
      "hit": false,
      "t": 106585.17400000055,
      "d": 121.95100000000093,
      "v": 100
    },
    {
      "midi": 63,
      "hit": false,
      "t": 106585.17400000055,
      "d": 121.95100000000093,
      "v": 100
    },
    {
      "midi": 58,
      "hit": false,
      "t": 106585.17400000055,
      "d": 121.95100000000093,
      "v": 100
    },
    {
      "midi": 55,
      "hit": false,
      "t": 106585.17400000057,
      "d": 731.7060000005004,
      "v": 100
    },
    {
      "midi": 51,
      "hit": false,
      "t": 106585.17400000057,
      "d": 731.7060000005004,
      "v": 100
    },
    {
      "midi": 46,
      "hit": false,
      "t": 106585.1740000006,
      "d": 1.0162583333294606,
      "v": 100
    },
    {
      "midi": 67,
      "hit": false,
      "t": 106585.17400002225,
      "d": 60.975500000000466,
      "v": 100
    },
    {
      "midi": 58,
      "hit": false,
      "t": 106585.17400002225,
      "d": 60.975500000000466,
      "v": 100
    },
    {
      "midi": 63,
      "hit": false,
      "t": 106585.17400002225,
      "d": 60.975500000000466,
      "v": 100
    },
    {
      "midi": 67,
      "hit": false,
      "t": 106646.14950000016,
      "d": 182.9265000000014,
      "v": 100
    },
    {
      "midi": 70,
      "hit": false,
      "t": 106707.12500000016,
      "d": 182.9265000000014,
      "v": 100
    },
    {
      "midi": 27,
      "hit": false,
      "t": 106707.1250000003,
      "d": 20.32516666666197,
      "v": 100
    },
    {
      "midi": 67,
      "hit": false,
      "t": 106707.12500000055,
      "d": 121.95100000000093,
      "v": 100
    },
    {
      "midi": 63,
      "hit": false,
      "t": 106707.12500000055,
      "d": 121.95100000000093,
      "v": 100
    },
    {
      "midi": 58,
      "hit": false,
      "t": 106707.12500000055,
      "d": 121.95100000000093,
      "v": 100
    },
    {
      "midi": 44,
      "hit": false,
      "t": 106707.1250000006,
      "d": 1.0162583333294606,
      "v": 100
    },
    {
      "midi": 67,
      "hit": false,
      "t": 106707.12500002225,
      "d": 60.975500000000466,
      "v": 100
    },
    {
      "midi": 58,
      "hit": false,
      "t": 106707.12500002225,
      "d": 60.975500000000466,
      "v": 100
    },
    {
      "midi": 63,
      "hit": false,
      "t": 106707.12500002225,
      "d": 60.975500000000466,
      "v": 100
    },
    {
      "midi": 72,
      "hit": false,
      "t": 106768.10050000016,
      "d": 182.9265000000014,
      "v": 100
    },
    {
      "midi": 75,
      "hit": false,
      "t": 106829.07600000016,
      "d": 182.9265000000014,
      "v": 100
    },
    {
      "midi": 27,
      "hit": false,
      "t": 106829.0760000003,
      "d": 243.90200000000186,
      "v": 100
    },
    {
      "midi": 40,
      "hit": false,
      "t": 106829.0760000006,
      "d": 1.0162583333294606,
      "v": 100
    },
    {
      "midi": 46,
      "hit": false,
      "t": 106829.0760000006,
      "d": 1.0162583333294606,
      "v": 100
    },
    {
      "midi": 57,
      "hit": false,
      "t": 106829.0760000006,
      "d": 1.0162583333294606,
      "v": 100
    },
    {
      "midi": 67,
      "hit": false,
      "t": 106829.07600002225,
      "d": 243.9020000002929,
      "v": 100
    },
    {
      "midi": 58,
      "hit": false,
      "t": 106829.07600002225,
      "d": 243.9020000002929,
      "v": 100
    },
    {
      "midi": 63,
      "hit": false,
      "t": 106829.07600002225,
      "d": 243.9020000002929,
      "v": 100
    },
    {
      "midi": 77,
      "hit": false,
      "t": 106890.05150000016,
      "d": 182.9265000000014,
      "v": 100
    },
    {
      "midi": 79,
      "hit": false,
      "t": 106951.02700000016,
      "d": 182.9265000000014,
      "v": 100
    },
    {
      "midi": 44,
      "hit": false,
      "t": 106951.0270000006,
      "d": 1.0162583333294606,
      "v": 100
    },
    {
      "midi": 82,
      "hit": false,
      "t": 107012.00250000016,
      "d": 182.9265000000014,
      "v": 100
    },
    {
      "midi": 84,
      "hit": false,
      "t": 107072.97800000016,
      "d": 182.9265000000014,
      "v": 100
    },
    {
      "midi": 27,
      "hit": false,
      "t": 107072.97800000031,
      "d": 243.90200000000186,
      "v": 100
    },
    {
      "midi": 40,
      "hit": false,
      "t": 107072.9780000006,
      "d": 1.0162583333294606,
      "v": 100
    },
    {
      "midi": 46,
      "hit": false,
      "t": 107072.9780000006,
      "d": 1.0162583333294606,
      "v": 100
    },
    {
      "midi": 67,
      "hit": false,
      "t": 107072.97800002254,
      "d": 60.975500000000466,
      "v": 100
    },
    {
      "midi": 58,
      "hit": false,
      "t": 107072.97800002254,
      "d": 60.975500000000466,
      "v": 100
    },
    {
      "midi": 63,
      "hit": false,
      "t": 107072.97800002254,
      "d": 60.975500000000466,
      "v": 100
    },
    {
      "midi": 87,
      "hit": false,
      "t": 107133.95350000016,
      "d": 182.9265000000014,
      "v": 100
    },
    {
      "midi": 89,
      "hit": false,
      "t": 107194.92900000016,
      "d": 182.9265000000014,
      "v": 100
    },
    {
      "midi": 40,
      "hit": false,
      "t": 107194.9290000006,
      "d": 1.0162583333294606,
      "v": 100
    },
    {
      "midi": 44,
      "hit": false,
      "t": 107194.9290000006,
      "d": 1.0162583333294606,
      "v": 100
    },
    {
      "midi": 67,
      "hit": false,
      "t": 107194.92900002254,
      "d": 60.975500000000466,
      "v": 100
    },
    {
      "midi": 58,
      "hit": false,
      "t": 107194.92900002254,
      "d": 60.975500000000466,
      "v": 100
    },
    {
      "midi": 63,
      "hit": false,
      "t": 107194.92900002254,
      "d": 60.975500000000466,
      "v": 100
    },
    {
      "midi": 91,
      "hit": false,
      "t": 107255.90450000016,
      "d": 182.9265000000014,
      "v": 100
    },
    {
      "midi": 84,
      "hit": false,
      "t": 107316.88000000016,
      "d": 243.90200000000186,
      "v": 100
    },
    {
      "midi": 36,
      "hit": false,
      "t": 107316.88000000031,
      "d": 203.25166666666337,
      "v": 100
    },
    {
      "midi": 54,
      "hit": false,
      "t": 107316.88000000043,
      "d": 1.0162583333294606,
      "v": 80
    },
    {
      "midi": 72,
      "hit": false,
      "t": 107316.88000000044,
      "d": 121.95100000000093,
      "v": 100
    },
    {
      "midi": 60,
      "hit": false,
      "t": 107316.88000000056,
      "d": 121.95100000000093,
      "v": 100
    },
    {
      "midi": 33,
      "hit": false,
      "t": 107316.8800000006,
      "d": 1.0162583333294606,
      "v": 127
    },
    {
      "midi": 42,
      "hit": false,
      "t": 107316.8800000006,
      "d": 1.0162583333294606,
      "v": 100
    },
    {
      "midi": 57,
      "hit": false,
      "t": 107316.8800000006,
      "d": 1.0162583333294606,
      "v": 100
    },
    {
      "midi": 48,
      "hit": false,
      "t": 107316.88000000107,
      "d": 487.8040000000037,
      "v": 100
    },
    {
      "midi": 55,
      "hit": false,
      "t": 107316.88000000107,
      "d": 487.8040000000037,
      "v": 100
    },
    {
      "midi": 67,
      "hit": false,
      "t": 107316.88000002255,
      "d": 487.8040000002802,
      "v": 100
    },
    {
      "midi": 63,
      "hit": false,
      "t": 107316.88000002255,
      "d": 487.8040000002802,
      "v": 100
    },
    {
      "midi": 60,
      "hit": false,
      "t": 107316.88000002255,
      "d": 487.8040000002802,
      "v": 100
    },
    {
      "midi": 54,
      "hit": false,
      "t": 107438.83100000043,
      "d": 1.0162583333294606,
      "v": 60
    },
    {
      "midi": 67,
      "hit": false,
      "t": 107438.83100000044,
      "d": 121.95100000000093,
      "v": 100
    },
    {
      "midi": 58,
      "hit": false,
      "t": 107438.83100000056,
      "d": 121.95100000000093,
      "v": 100
    },
    {
      "midi": 36,
      "hit": false,
      "t": 107560.78200000031,
      "d": 203.25166666666337,
      "v": 100
    },
    {
      "midi": 54,
      "hit": false,
      "t": 107560.78200000043,
      "d": 1.0162583333294606,
      "v": 60
    },
    {
      "midi": 72,
      "hit": false,
      "t": 107560.78200000044,
      "d": 121.95100000000093,
      "v": 100
    },
    {
      "midi": 46,
      "hit": false,
      "t": 107560.7820000006,
      "d": 1.0162583333294606,
      "v": 100
    },
    {
      "midi": 79,
      "hit": false,
      "t": 107682.73300000017,
      "d": 121.95100000000093,
      "v": 100
    },
    {
      "midi": 54,
      "hit": false,
      "t": 107682.73300000043,
      "d": 1.0162583333294606,
      "v": 60
    },
    {
      "midi": 79,
      "hit": false,
      "t": 107682.73300000044,
      "d": 121.95100000000093,
      "v": 100
    },
    {
      "midi": 60,
      "hit": false,
      "t": 107682.73300000056,
      "d": 121.95100000000093,
      "v": 100
    },
    {
      "midi": 44,
      "hit": false,
      "t": 107682.7330000006,
      "d": 1.0162583333294606,
      "v": 100
    },
    {
      "midi": 36,
      "hit": false,
      "t": 107804.68400000031,
      "d": 203.25166666666337,
      "v": 100
    },
    {
      "midi": 54,
      "hit": false,
      "t": 107804.68400000043,
      "d": 1.0162583333294606,
      "v": 80
    },
    {
      "midi": 72,
      "hit": false,
      "t": 107804.68400000044,
      "d": 121.95100000000093,
      "v": 100
    },
    {
      "midi": 33,
      "hit": false,
      "t": 107804.6840000006,
      "d": 1.0162583333294606,
      "v": 127
    },
    {
      "midi": 40,
      "hit": false,
      "t": 107804.6840000006,
      "d": 1.0162583333294606,
      "v": 100
    },
    {
      "midi": 46,
      "hit": false,
      "t": 107804.6840000006,
      "d": 1.0162583333294606,
      "v": 100
    },
    {
      "midi": 48,
      "hit": false,
      "t": 107804.68400000107,
      "d": 243.90200000000186,
      "v": 100
    },
    {
      "midi": 67,
      "hit": false,
      "t": 107804.68400002283,
      "d": 60.975500000145985,
      "v": 100
    },
    {
      "midi": 63,
      "hit": false,
      "t": 107804.68400002283,
      "d": 60.975500000145985,
      "v": 100
    },
    {
      "midi": 60,
      "hit": false,
      "t": 107804.68400002283,
      "d": 60.975500000145985,
      "v": 100
    },
    {
      "midi": 79,
      "hit": false,
      "t": 107926.63500000017,
      "d": 121.95100000000093,
      "v": 100
    },
    {
      "midi": 54,
      "hit": false,
      "t": 107926.63500000043,
      "d": 1.0162583333294606,
      "v": 60
    },
    {
      "midi": 84,
      "hit": false,
      "t": 107926.63500000045,
      "d": 121.95100000000093,
      "v": 100
    },
    {
      "midi": 53,
      "hit": false,
      "t": 107926.63500000056,
      "d": 121.95100000000093,
      "v": 100
    },
    {
      "midi": 44,
      "hit": false,
      "t": 107926.6350000006,
      "d": 1.0162583333294606,
      "v": 100
    },
    {
      "midi": 67,
      "hit": false,
      "t": 107926.635000023,
      "d": 60.97550000001502,
      "v": 100
    },
    {
      "midi": 63,
      "hit": false,
      "t": 107926.635000023,
      "d": 60.97550000001502,
      "v": 100
    },
    {
      "midi": 60,
      "hit": false,
      "t": 107926.635000023,
      "d": 60.97550000001502,
      "v": 100
    },
    {
      "midi": 36,
      "hit": false,
      "t": 108048.58600000032,
      "d": 203.25166666666337,
      "v": 100
    },
    {
      "midi": 54,
      "hit": false,
      "t": 108048.58600000043,
      "d": 1.0162583333294606,
      "v": 60
    },
    {
      "midi": 79,
      "hit": false,
      "t": 108048.58600000045,
      "d": 121.95100000000093,
      "v": 100
    },
    {
      "midi": 46,
      "hit": false,
      "t": 108048.5860000006,
      "d": 1.0162583333294606,
      "v": 100
    },
    {
      "midi": 48,
      "hit": false,
      "t": 108048.58600000107,
      "d": 121.95100000000093,
      "v": 100
    },
    {
      "midi": 67,
      "hit": false,
      "t": 108048.58600002315,
      "d": 60.975500000000466,
      "v": 100
    },
    {
      "midi": 63,
      "hit": false,
      "t": 108048.58600002315,
      "d": 60.975500000000466,
      "v": 100
    },
    {
      "midi": 60,
      "hit": false,
      "t": 108048.58600002315,
      "d": 60.975500000000466,
      "v": 100
    },
    {
      "midi": 79,
      "hit": false,
      "t": 108170.53700000017,
      "d": 121.95100000000093,
      "v": 100
    },
    {
      "midi": 54,
      "hit": false,
      "t": 108170.53700000043,
      "d": 1.0162583333294606,
      "v": 60
    },
    {
      "midi": 72,
      "hit": false,
      "t": 108170.53700000045,
      "d": 121.95100000000093,
      "v": 100
    },
    {
      "midi": 55,
      "hit": false,
      "t": 108170.53700000056,
      "d": 121.95100000000093,
      "v": 100
    },
    {
      "midi": 44,
      "hit": false,
      "t": 108170.53700000061,
      "d": 1.0162583333294606,
      "v": 100
    },
    {
      "midi": 48,
      "hit": false,
      "t": 108170.53700000107,
      "d": 121.95100000000093,
      "v": 100
    },
    {
      "midi": 67,
      "hit": false,
      "t": 108170.53700002315,
      "d": 60.975500000000466,
      "v": 100
    },
    {
      "midi": 63,
      "hit": false,
      "t": 108170.53700002315,
      "d": 60.975500000000466,
      "v": 100
    },
    {
      "midi": 60,
      "hit": false,
      "t": 108170.53700002315,
      "d": 60.975500000000466,
      "v": 100
    },
    {
      "midi": 36,
      "hit": false,
      "t": 108292.48800000032,
      "d": 203.25166666666337,
      "v": 100
    },
    {
      "midi": 54,
      "hit": false,
      "t": 108292.48800000043,
      "d": 1.0162583333294606,
      "v": 80
    },
    {
      "midi": 79,
      "hit": false,
      "t": 108292.48800000045,
      "d": 121.95100000000093,
      "v": 100
    },
    {
      "midi": 33,
      "hit": false,
      "t": 108292.48800000061,
      "d": 1.0162583333294606,
      "v": 127
    },
    {
      "midi": 42,
      "hit": false,
      "t": 108292.48800000061,
      "d": 1.0162583333294606,
      "v": 100
    },
    {
      "midi": 48,
      "hit": false,
      "t": 108292.48800000107,
      "d": 121.95100000000093,
      "v": 100
    },
    {
      "midi": 67,
      "hit": false,
      "t": 108292.48800002315,
      "d": 60.975500000145985,
      "v": 100
    },
    {
      "midi": 63,
      "hit": false,
      "t": 108292.48800002315,
      "d": 60.975500000145985,
      "v": 100
    },
    {
      "midi": 60,
      "hit": false,
      "t": 108292.48800002315,
      "d": 60.975500000145985,
      "v": 100
    },
    {
      "midi": 79,
      "hit": false,
      "t": 108414.43900000017,
      "d": 121.95100000000093,
      "v": 100
    },
    {
      "midi": 54,
      "hit": false,
      "t": 108414.43900000044,
      "d": 1.0162583333294606,
      "v": 60
    },
    {
      "midi": 72,
      "hit": false,
      "t": 108414.43900000045,
      "d": 121.95100000000093,
      "v": 100
    },
    {
      "midi": 55,
      "hit": false,
      "t": 108414.43900000057,
      "d": 121.95100000000093,
      "v": 100
    },
    {
      "midi": 48,
      "hit": false,
      "t": 108414.43900000108,
      "d": 121.95100000000093,
      "v": 100
    },
    {
      "midi": 67,
      "hit": false,
      "t": 108414.43900002333,
      "d": 60.97550000001502,
      "v": 100
    },
    {
      "midi": 63,
      "hit": false,
      "t": 108414.43900002333,
      "d": 60.97550000001502,
      "v": 100
    },
    {
      "midi": 60,
      "hit": false,
      "t": 108414.43900002333,
      "d": 60.97550000001502,
      "v": 100
    },
    {
      "midi": 80,
      "hit": false,
      "t": 108536.39000000017,
      "d": 487.8040000000037,
      "v": 100
    },
    {
      "midi": 36,
      "hit": false,
      "t": 108536.39000000032,
      "d": 203.25166666666337,
      "v": 100
    },
    {
      "midi": 54,
      "hit": false,
      "t": 108536.39000000044,
      "d": 1.0162583333294606,
      "v": 60
    },
    {
      "midi": 75,
      "hit": false,
      "t": 108536.39000000045,
      "d": 121.95100000000093,
      "v": 100
    },
    {
      "midi": 51,
      "hit": false,
      "t": 108536.39000000057,
      "d": 121.95100000000093,
      "v": 100
    },
    {
      "midi": 46,
      "hit": false,
      "t": 108536.39000000061,
      "d": 1.0162583333294606,
      "v": 100
    },
    {
      "midi": 48,
      "hit": false,
      "t": 108536.39000000108,
      "d": 243.90200000000186,
      "v": 100
    },
    {
      "midi": 67,
      "hit": false,
      "t": 108536.39000002347,
      "d": 60.975500000000466,
      "v": 100
    },
    {
      "midi": 63,
      "hit": false,
      "t": 108536.39000002347,
      "d": 60.975500000000466,
      "v": 100
    },
    {
      "midi": 60,
      "hit": false,
      "t": 108536.39000002347,
      "d": 60.975500000000466,
      "v": 100
    },
    {
      "midi": 54,
      "hit": false,
      "t": 108658.34100000044,
      "d": 1.0162583333294606,
      "v": 60
    },
    {
      "midi": 79,
      "hit": false,
      "t": 108658.34100000045,
      "d": 121.95100000000093,
      "v": 100
    },
    {
      "midi": 44,
      "hit": false,
      "t": 108658.34100000061,
      "d": 1.0162583333294606,
      "v": 100
    },
    {
      "midi": 67,
      "hit": false,
      "t": 108658.34100002347,
      "d": 60.975500000000466,
      "v": 100
    },
    {
      "midi": 63,
      "hit": false,
      "t": 108658.34100002347,
      "d": 60.975500000000466,
      "v": 100
    },
    {
      "midi": 60,
      "hit": false,
      "t": 108658.34100002347,
      "d": 60.975500000000466,
      "v": 100
    },
    {
      "midi": 36,
      "hit": false,
      "t": 108780.29200000032,
      "d": 203.25166666666337,
      "v": 100
    },
    {
      "midi": 54,
      "hit": false,
      "t": 108780.29200000044,
      "d": 1.0162583333294606,
      "v": 80
    },
    {
      "midi": 67,
      "hit": false,
      "t": 108780.29200000045,
      "d": 121.95100000000093,
      "v": 100
    },
    {
      "midi": 51,
      "hit": false,
      "t": 108780.29200000057,
      "d": 487.8040000000037,
      "v": 100
    },
    {
      "midi": 33,
      "hit": false,
      "t": 108780.29200000061,
      "d": 1.0162583333294606,
      "v": 127
    },
    {
      "midi": 40,
      "hit": false,
      "t": 108780.29200000061,
      "d": 1.0162583333294606,
      "v": 100
    },
    {
      "midi": 46,
      "hit": false,
      "t": 108780.29200000061,
      "d": 1.0162583333294606,
      "v": 100
    },
    {
      "midi": 48,
      "hit": false,
      "t": 108780.29200000108,
      "d": 243.90200000000186,
      "v": 100
    },
    {
      "midi": 67,
      "hit": false,
      "t": 108780.29200002347,
      "d": 243.9020000002929,
      "v": 100
    },
    {
      "midi": 63,
      "hit": false,
      "t": 108780.29200002347,
      "d": 243.9020000002929,
      "v": 100
    },
    {
      "midi": 60,
      "hit": false,
      "t": 108780.29200002347,
      "d": 243.9020000002929,
      "v": 100
    },
    {
      "midi": 54,
      "hit": false,
      "t": 108902.24300000044,
      "d": 1.0162583333294606,
      "v": 60
    },
    {
      "midi": 72,
      "hit": false,
      "t": 108902.24300000045,
      "d": 121.95100000000093,
      "v": 100
    },
    {
      "midi": 44,
      "hit": false,
      "t": 108902.24300000061,
      "d": 1.0162583333294606,
      "v": 100
    },
    {
      "midi": 82,
      "hit": false,
      "t": 109024.19400000018,
      "d": 243.90200000000186,
      "v": 100
    },
    {
      "midi": 36,
      "hit": false,
      "t": 109024.19400000032,
      "d": 203.25166666666337,
      "v": 100
    },
    {
      "midi": 54,
      "hit": false,
      "t": 109024.19400000044,
      "d": 1.0162583333294606,
      "v": 60
    },
    {
      "midi": 70,
      "hit": false,
      "t": 109024.19400000045,
      "d": 243.90200000000186,
      "v": 127
    },
    {
      "midi": 82,
      "hit": false,
      "t": 109024.19400000045,
      "d": 243.90200000000186,
      "v": 127
    },
    {
      "midi": 40,
      "hit": false,
      "t": 109024.19400000061,
      "d": 1.0162583333294606,
      "v": 40
    },
    {
      "midi": 46,
      "hit": false,
      "t": 109024.19400000061,
      "d": 1.0162583333294606,
      "v": 100
    },
    {
      "midi": 48,
      "hit": false,
      "t": 109024.19400000108,
      "d": 243.90200000000186,
      "v": 100
    },
    {
      "midi": 67,
      "hit": false,
      "t": 109024.19400002377,
      "d": 60.975500000000466,
      "v": 100
    },
    {
      "midi": 63,
      "hit": false,
      "t": 109024.19400002377,
      "d": 60.975500000000466,
      "v": 100
    },
    {
      "midi": 60,
      "hit": false,
      "t": 109024.19400002377,
      "d": 60.975500000000466,
      "v": 100
    },
    {
      "midi": 54,
      "hit": false,
      "t": 109146.14500000044,
      "d": 1.0162583333294606,
      "v": 60
    },
    {
      "midi": 40,
      "hit": false,
      "t": 109146.14500000062,
      "d": 1.0162583333294606,
      "v": 100
    },
    {
      "midi": 44,
      "hit": false,
      "t": 109146.14500000062,
      "d": 1.0162583333294606,
      "v": 100
    },
    {
      "midi": 67,
      "hit": false,
      "t": 109146.14500002377,
      "d": 60.975500000000466,
      "v": 100
    },
    {
      "midi": 63,
      "hit": false,
      "t": 109146.14500002377,
      "d": 60.975500000000466,
      "v": 100
    },
    {
      "midi": 60,
      "hit": false,
      "t": 109146.14500002377,
      "d": 60.975500000000466,
      "v": 100
    },
    {
      "midi": 84,
      "hit": false,
      "t": 109268.09600000018,
      "d": 243.90200000000186,
      "v": 100
    },
    {
      "midi": 36,
      "hit": false,
      "t": 109268.09600000033,
      "d": 203.25166666666337,
      "v": 100
    },
    {
      "midi": 54,
      "hit": false,
      "t": 109268.09600000044,
      "d": 1.0162583333294606,
      "v": 80
    },
    {
      "midi": 84,
      "hit": false,
      "t": 109268.09600000046,
      "d": 243.90200000000186,
      "v": 127
    },
    {
      "midi": 72,
      "hit": false,
      "t": 109268.09600000046,
      "d": 243.90200000000186,
      "v": 127
    },
    {
      "midi": 60,
      "hit": false,
      "t": 109268.09600000057,
      "d": 121.95100000000093,
      "v": 100
    },
    {
      "midi": 33,
      "hit": false,
      "t": 109268.09600000062,
      "d": 1.0162583333294606,
      "v": 127
    },
    {
      "midi": 42,
      "hit": false,
      "t": 109268.09600000062,
      "d": 1.0162583333294606,
      "v": 100
    },
    {
      "midi": 48,
      "hit": false,
      "t": 109268.09600000108,
      "d": 487.8040000000037,
      "v": 100
    },
    {
      "midi": 55,
      "hit": false,
      "t": 109268.09600000108,
      "d": 487.8040000000037,
      "v": 100
    },
    {
      "midi": 67,
      "hit": false,
      "t": 109268.09600002377,
      "d": 487.8040000002802,
      "v": 100
    },
    {
      "midi": 63,
      "hit": false,
      "t": 109268.09600002377,
      "d": 487.8040000002802,
      "v": 100
    },
    {
      "midi": 60,
      "hit": false,
      "t": 109268.09600002377,
      "d": 487.8040000002802,
      "v": 100
    },
    {
      "midi": 54,
      "hit": false,
      "t": 109390.04700000044,
      "d": 1.0162583333294606,
      "v": 60
    },
    {
      "midi": 67,
      "hit": false,
      "t": 109390.04700000046,
      "d": 121.95100000000093,
      "v": 100
    },
    {
      "midi": 58,
      "hit": false,
      "t": 109390.04700000057,
      "d": 121.95100000000093,
      "v": 100
    },
    {
      "midi": 36,
      "hit": false,
      "t": 109511.99800000033,
      "d": 203.25166666666337,
      "v": 100
    },
    {
      "midi": 54,
      "hit": false,
      "t": 109511.99800000044,
      "d": 1.0162583333294606,
      "v": 60
    },
    {
      "midi": 72,
      "hit": false,
      "t": 109511.99800000046,
      "d": 121.95100000000093,
      "v": 100
    },
    {
      "midi": 46,
      "hit": false,
      "t": 109511.99800000062,
      "d": 1.0162583333294606,
      "v": 100
    },
    {
      "midi": 79,
      "hit": false,
      "t": 109633.94900000018,
      "d": 121.95100000000093,
      "v": 100
    },
    {
      "midi": 54,
      "hit": false,
      "t": 109633.94900000044,
      "d": 1.0162583333294606,
      "v": 60
    },
    {
      "midi": 79,
      "hit": false,
      "t": 109633.94900000046,
      "d": 121.95100000000093,
      "v": 100
    },
    {
      "midi": 60,
      "hit": false,
      "t": 109633.94900000058,
      "d": 121.95100000000093,
      "v": 100
    },
    {
      "midi": 44,
      "hit": false,
      "t": 109633.94900000062,
      "d": 1.0162583333294606,
      "v": 100
    },
    {
      "midi": 36,
      "hit": false,
      "t": 109755.90000000033,
      "d": 203.25166666666337,
      "v": 100
    },
    {
      "midi": 54,
      "hit": false,
      "t": 109755.90000000045,
      "d": 1.0162583333294606,
      "v": 80
    },
    {
      "midi": 72,
      "hit": false,
      "t": 109755.90000000046,
      "d": 121.95100000000093,
      "v": 100
    },
    {
      "midi": 33,
      "hit": false,
      "t": 109755.90000000062,
      "d": 1.0162583333294606,
      "v": 127
    },
    {
      "midi": 40,
      "hit": false,
      "t": 109755.90000000062,
      "d": 1.0162583333294606,
      "v": 100
    },
    {
      "midi": 46,
      "hit": false,
      "t": 109755.90000000062,
      "d": 1.0162583333294606,
      "v": 100
    },
    {
      "midi": 48,
      "hit": false,
      "t": 109755.90000000109,
      "d": 243.90200000000186,
      "v": 100
    },
    {
      "midi": 67,
      "hit": false,
      "t": 109755.90000002405,
      "d": 60.975500000145985,
      "v": 100
    },
    {
      "midi": 63,
      "hit": false,
      "t": 109755.90000002405,
      "d": 60.975500000145985,
      "v": 100
    },
    {
      "midi": 60,
      "hit": false,
      "t": 109755.90000002405,
      "d": 60.975500000145985,
      "v": 100
    },
    {
      "midi": 79,
      "hit": false,
      "t": 109877.85100000018,
      "d": 121.95100000000093,
      "v": 100
    },
    {
      "midi": 54,
      "hit": false,
      "t": 109877.85100000045,
      "d": 1.0162583333294606,
      "v": 60
    },
    {
      "midi": 84,
      "hit": false,
      "t": 109877.85100000046,
      "d": 121.95100000000093,
      "v": 100
    },
    {
      "midi": 53,
      "hit": false,
      "t": 109877.85100000058,
      "d": 121.95100000000093,
      "v": 100
    },
    {
      "midi": 44,
      "hit": false,
      "t": 109877.85100000062,
      "d": 1.0162583333294606,
      "v": 100
    },
    {
      "midi": 67,
      "hit": false,
      "t": 109877.85100002422,
      "d": 60.97550000001502,
      "v": 100
    },
    {
      "midi": 63,
      "hit": false,
      "t": 109877.85100002422,
      "d": 60.97550000001502,
      "v": 100
    },
    {
      "midi": 60,
      "hit": false,
      "t": 109877.85100002422,
      "d": 60.97550000001502,
      "v": 100
    },
    {
      "midi": 36,
      "hit": false,
      "t": 109999.80200000033,
      "d": 203.25166666666337,
      "v": 100
    },
    {
      "midi": 54,
      "hit": false,
      "t": 109999.80200000045,
      "d": 1.0162583333294606,
      "v": 60
    },
    {
      "midi": 79,
      "hit": false,
      "t": 109999.80200000046,
      "d": 121.95100000000093,
      "v": 100
    },
    {
      "midi": 46,
      "hit": false,
      "t": 109999.80200000062,
      "d": 1.0162583333294606,
      "v": 100
    },
    {
      "midi": 48,
      "hit": false,
      "t": 109999.80200000109,
      "d": 121.95100000000093,
      "v": 100
    },
    {
      "midi": 67,
      "hit": false,
      "t": 109999.80200002437,
      "d": 60.975500000000466,
      "v": 100
    },
    {
      "midi": 63,
      "hit": false,
      "t": 109999.80200002437,
      "d": 60.975500000000466,
      "v": 100
    },
    {
      "midi": 60,
      "hit": false,
      "t": 109999.80200002437,
      "d": 60.975500000000466,
      "v": 100
    },
    {
      "midi": 79,
      "hit": false,
      "t": 110121.75300000019,
      "d": 121.95100000000093,
      "v": 100
    },
    {
      "midi": 54,
      "hit": false,
      "t": 110121.75300000045,
      "d": 1.0162583333294606,
      "v": 60
    },
    {
      "midi": 72,
      "hit": false,
      "t": 110121.75300000046,
      "d": 121.95100000000093,
      "v": 100
    },
    {
      "midi": 55,
      "hit": false,
      "t": 110121.75300000058,
      "d": 121.95100000000093,
      "v": 100
    },
    {
      "midi": 44,
      "hit": false,
      "t": 110121.75300000062,
      "d": 1.0162583333294606,
      "v": 100
    },
    {
      "midi": 48,
      "hit": false,
      "t": 110121.75300000109,
      "d": 121.95100000000093,
      "v": 100
    },
    {
      "midi": 67,
      "hit": false,
      "t": 110121.75300002437,
      "d": 60.975500000000466,
      "v": 100
    },
    {
      "midi": 63,
      "hit": false,
      "t": 110121.75300002437,
      "d": 60.975500000000466,
      "v": 100
    },
    {
      "midi": 60,
      "hit": false,
      "t": 110121.75300002437,
      "d": 60.975500000000466,
      "v": 100
    },
    {
      "midi": 36,
      "hit": false,
      "t": 110243.70400000033,
      "d": 203.25166666666337,
      "v": 100
    },
    {
      "midi": 54,
      "hit": false,
      "t": 110243.70400000045,
      "d": 1.0162583333294606,
      "v": 80
    },
    {
      "midi": 79,
      "hit": false,
      "t": 110243.70400000046,
      "d": 121.95100000000093,
      "v": 100
    },
    {
      "midi": 33,
      "hit": false,
      "t": 110243.70400000062,
      "d": 1.0162583333294606,
      "v": 127
    },
    {
      "midi": 42,
      "hit": false,
      "t": 110243.70400000062,
      "d": 1.0162583333294606,
      "v": 100
    },
    {
      "midi": 48,
      "hit": false,
      "t": 110243.70400000109,
      "d": 121.95100000000093,
      "v": 100
    },
    {
      "midi": 67,
      "hit": false,
      "t": 110243.70400002437,
      "d": 60.975500000145985,
      "v": 100
    },
    {
      "midi": 63,
      "hit": false,
      "t": 110243.70400002437,
      "d": 60.975500000145985,
      "v": 100
    },
    {
      "midi": 60,
      "hit": false,
      "t": 110243.70400002437,
      "d": 60.975500000145985,
      "v": 100
    },
    {
      "midi": 79,
      "hit": false,
      "t": 110365.65500000019,
      "d": 121.95100000000093,
      "v": 100
    },
    {
      "midi": 54,
      "hit": false,
      "t": 110365.65500000045,
      "d": 1.0162583333294606,
      "v": 60
    },
    {
      "midi": 72,
      "hit": false,
      "t": 110365.65500000046,
      "d": 121.95100000000093,
      "v": 100
    },
    {
      "midi": 55,
      "hit": false,
      "t": 110365.65500000058,
      "d": 121.95100000000093,
      "v": 100
    },
    {
      "midi": 48,
      "hit": false,
      "t": 110365.65500000109,
      "d": 121.95100000000093,
      "v": 100
    },
    {
      "midi": 67,
      "hit": false,
      "t": 110365.65500002455,
      "d": 60.97550000001502,
      "v": 100
    },
    {
      "midi": 63,
      "hit": false,
      "t": 110365.65500002455,
      "d": 60.97550000001502,
      "v": 100
    },
    {
      "midi": 60,
      "hit": false,
      "t": 110365.65500002455,
      "d": 60.97550000001502,
      "v": 100
    },
    {
      "midi": 80,
      "hit": false,
      "t": 110487.60600000019,
      "d": 487.8040000000037,
      "v": 100
    },
    {
      "midi": 36,
      "hit": false,
      "t": 110487.60600000033,
      "d": 203.25166666666337,
      "v": 100
    },
    {
      "midi": 54,
      "hit": false,
      "t": 110487.60600000045,
      "d": 1.0162583333294606,
      "v": 60
    },
    {
      "midi": 75,
      "hit": false,
      "t": 110487.60600000047,
      "d": 121.95100000000093,
      "v": 100
    },
    {
      "midi": 51,
      "hit": false,
      "t": 110487.60600000058,
      "d": 121.95100000000093,
      "v": 100
    },
    {
      "midi": 46,
      "hit": false,
      "t": 110487.60600000063,
      "d": 1.0162583333294606,
      "v": 100
    },
    {
      "midi": 48,
      "hit": false,
      "t": 110487.60600000109,
      "d": 243.90200000000186,
      "v": 100
    },
    {
      "midi": 67,
      "hit": false,
      "t": 110487.6060000247,
      "d": 60.975500000000466,
      "v": 100
    },
    {
      "midi": 63,
      "hit": false,
      "t": 110487.6060000247,
      "d": 60.975500000000466,
      "v": 100
    },
    {
      "midi": 60,
      "hit": false,
      "t": 110487.6060000247,
      "d": 60.975500000000466,
      "v": 100
    },
    {
      "midi": 54,
      "hit": false,
      "t": 110609.55700000045,
      "d": 1.0162583333294606,
      "v": 60
    },
    {
      "midi": 79,
      "hit": false,
      "t": 110609.55700000047,
      "d": 121.95100000000093,
      "v": 100
    },
    {
      "midi": 44,
      "hit": false,
      "t": 110609.55700000063,
      "d": 1.0162583333294606,
      "v": 100
    },
    {
      "midi": 67,
      "hit": false,
      "t": 110609.5570000247,
      "d": 60.975500000000466,
      "v": 100
    },
    {
      "midi": 63,
      "hit": false,
      "t": 110609.5570000247,
      "d": 60.975500000000466,
      "v": 100
    },
    {
      "midi": 60,
      "hit": false,
      "t": 110609.5570000247,
      "d": 60.975500000000466,
      "v": 100
    },
    {
      "midi": 36,
      "hit": false,
      "t": 110731.50800000034,
      "d": 203.25166666666337,
      "v": 100
    },
    {
      "midi": 54,
      "hit": false,
      "t": 110731.50800000045,
      "d": 1.0162583333294606,
      "v": 80
    },
    {
      "midi": 67,
      "hit": false,
      "t": 110731.50800000047,
      "d": 121.95100000000093,
      "v": 100
    },
    {
      "midi": 51,
      "hit": false,
      "t": 110731.50800000058,
      "d": 487.8040000000037,
      "v": 100
    },
    {
      "midi": 33,
      "hit": false,
      "t": 110731.50800000063,
      "d": 1.0162583333294606,
      "v": 127
    },
    {
      "midi": 40,
      "hit": false,
      "t": 110731.50800000063,
      "d": 1.0162583333294606,
      "v": 100
    },
    {
      "midi": 46,
      "hit": false,
      "t": 110731.50800000063,
      "d": 1.0162583333294606,
      "v": 100
    },
    {
      "midi": 48,
      "hit": false,
      "t": 110731.5080000011,
      "d": 243.90200000000186,
      "v": 100
    },
    {
      "midi": 67,
      "hit": false,
      "t": 110731.5080000247,
      "d": 243.9020000002929,
      "v": 100
    },
    {
      "midi": 63,
      "hit": false,
      "t": 110731.5080000247,
      "d": 243.9020000002929,
      "v": 100
    },
    {
      "midi": 60,
      "hit": false,
      "t": 110731.5080000247,
      "d": 243.9020000002929,
      "v": 100
    },
    {
      "midi": 54,
      "hit": false,
      "t": 110853.45900000045,
      "d": 1.0162583333294606,
      "v": 60
    },
    {
      "midi": 72,
      "hit": false,
      "t": 110853.45900000047,
      "d": 121.95100000000093,
      "v": 100
    },
    {
      "midi": 44,
      "hit": false,
      "t": 110853.45900000063,
      "d": 1.0162583333294606,
      "v": 100
    },
    {
      "midi": 82,
      "hit": false,
      "t": 110975.41000000019,
      "d": 243.90200000000186,
      "v": 100
    },
    {
      "midi": 36,
      "hit": false,
      "t": 110975.41000000034,
      "d": 203.25166666666337,
      "v": 100
    },
    {
      "midi": 54,
      "hit": false,
      "t": 110975.41000000045,
      "d": 1.0162583333294606,
      "v": 60
    },
    {
      "midi": 70,
      "hit": false,
      "t": 110975.41000000047,
      "d": 243.90200000000186,
      "v": 127
    },
    {
      "midi": 82,
      "hit": false,
      "t": 110975.41000000047,
      "d": 243.90200000000186,
      "v": 127
    },
    {
      "midi": 40,
      "hit": false,
      "t": 110975.41000000063,
      "d": 1.0162583333294606,
      "v": 40
    },
    {
      "midi": 46,
      "hit": false,
      "t": 110975.41000000063,
      "d": 1.0162583333294606,
      "v": 100
    },
    {
      "midi": 48,
      "hit": false,
      "t": 110975.4100000011,
      "d": 243.90200000000186,
      "v": 100
    },
    {
      "midi": 67,
      "hit": false,
      "t": 110975.41000002499,
      "d": 60.975500000000466,
      "v": 100
    },
    {
      "midi": 63,
      "hit": false,
      "t": 110975.41000002499,
      "d": 60.975500000000466,
      "v": 100
    },
    {
      "midi": 60,
      "hit": false,
      "t": 110975.41000002499,
      "d": 60.975500000000466,
      "v": 100
    },
    {
      "midi": 54,
      "hit": false,
      "t": 111097.36100000046,
      "d": 1.0162583333294606,
      "v": 60
    },
    {
      "midi": 40,
      "hit": false,
      "t": 111097.36100000063,
      "d": 1.0162583333294606,
      "v": 100
    },
    {
      "midi": 44,
      "hit": false,
      "t": 111097.36100000063,
      "d": 1.0162583333294606,
      "v": 100
    },
    {
      "midi": 67,
      "hit": false,
      "t": 111097.36100002499,
      "d": 60.975500000000466,
      "v": 100
    },
    {
      "midi": 63,
      "hit": false,
      "t": 111097.36100002499,
      "d": 60.975500000000466,
      "v": 100
    },
    {
      "midi": 60,
      "hit": false,
      "t": 111097.36100002499,
      "d": 60.975500000000466,
      "v": 100
    },
    {
      "midi": 84,
      "hit": false,
      "t": 111219.3120000002,
      "d": 243.90200000000186,
      "v": 100
    },
    {
      "midi": 36,
      "hit": false,
      "t": 111219.31200000034,
      "d": 203.25166666666337,
      "v": 100
    },
    {
      "midi": 54,
      "hit": false,
      "t": 111219.31200000046,
      "d": 1.0162583333294606,
      "v": 80
    },
    {
      "midi": 84,
      "hit": false,
      "t": 111219.31200000047,
      "d": 243.90200000000186,
      "v": 127
    },
    {
      "midi": 72,
      "hit": false,
      "t": 111219.31200000047,
      "d": 243.90200000000186,
      "v": 127
    },
    {
      "midi": 60,
      "hit": false,
      "t": 111219.31200000059,
      "d": 121.95100000000093,
      "v": 100
    },
    {
      "midi": 33,
      "hit": false,
      "t": 111219.31200000063,
      "d": 1.0162583333294606,
      "v": 127
    },
    {
      "midi": 42,
      "hit": false,
      "t": 111219.31200000063,
      "d": 1.0162583333294606,
      "v": 100
    },
    {
      "midi": 48,
      "hit": false,
      "t": 111219.3120000011,
      "d": 487.8040000000037,
      "v": 100
    },
    {
      "midi": 55,
      "hit": false,
      "t": 111219.3120000011,
      "d": 487.8040000000037,
      "v": 100
    },
    {
      "midi": 67,
      "hit": false,
      "t": 111219.31200002499,
      "d": 487.8040000002802,
      "v": 100
    },
    {
      "midi": 63,
      "hit": false,
      "t": 111219.31200002499,
      "d": 487.8040000002802,
      "v": 100
    },
    {
      "midi": 60,
      "hit": false,
      "t": 111219.31200002499,
      "d": 487.8040000002802,
      "v": 100
    },
    {
      "midi": 54,
      "hit": false,
      "t": 111341.26300000046,
      "d": 1.0162583333294606,
      "v": 60
    },
    {
      "midi": 67,
      "hit": false,
      "t": 111341.26300000047,
      "d": 121.95100000000093,
      "v": 100
    },
    {
      "midi": 58,
      "hit": false,
      "t": 111341.26300000059,
      "d": 121.95100000000093,
      "v": 100
    },
    {
      "midi": 36,
      "hit": false,
      "t": 111463.21400000034,
      "d": 203.25166666666337,
      "v": 100
    },
    {
      "midi": 54,
      "hit": false,
      "t": 111463.21400000046,
      "d": 1.0162583333294606,
      "v": 60
    },
    {
      "midi": 72,
      "hit": false,
      "t": 111463.21400000047,
      "d": 121.95100000000093,
      "v": 100
    },
    {
      "midi": 46,
      "hit": false,
      "t": 111463.21400000063,
      "d": 1.0162583333294606,
      "v": 100
    },
    {
      "midi": 79,
      "hit": false,
      "t": 111585.1650000002,
      "d": 121.95100000000093,
      "v": 100
    },
    {
      "midi": 54,
      "hit": false,
      "t": 111585.16500000046,
      "d": 1.0162583333294606,
      "v": 60
    },
    {
      "midi": 79,
      "hit": false,
      "t": 111585.16500000047,
      "d": 121.95100000000093,
      "v": 100
    },
    {
      "midi": 60,
      "hit": false,
      "t": 111585.16500000059,
      "d": 121.95100000000093,
      "v": 100
    },
    {
      "midi": 44,
      "hit": false,
      "t": 111585.16500000063,
      "d": 1.0162583333294606,
      "v": 100
    },
    {
      "midi": 36,
      "hit": false,
      "t": 111707.11600000034,
      "d": 203.25166666666337,
      "v": 100
    },
    {
      "midi": 54,
      "hit": false,
      "t": 111707.11600000046,
      "d": 1.0162583333294606,
      "v": 80
    },
    {
      "midi": 72,
      "hit": false,
      "t": 111707.11600000047,
      "d": 121.95100000000093,
      "v": 100
    },
    {
      "midi": 33,
      "hit": false,
      "t": 111707.11600000063,
      "d": 1.0162583333294606,
      "v": 127
    },
    {
      "midi": 40,
      "hit": false,
      "t": 111707.11600000063,
      "d": 1.0162583333294606,
      "v": 100
    },
    {
      "midi": 46,
      "hit": false,
      "t": 111707.11600000063,
      "d": 1.0162583333294606,
      "v": 100
    },
    {
      "midi": 48,
      "hit": false,
      "t": 111707.1160000011,
      "d": 243.90200000000186,
      "v": 100
    },
    {
      "midi": 67,
      "hit": false,
      "t": 111707.11600002527,
      "d": 60.975500000145985,
      "v": 100
    },
    {
      "midi": 63,
      "hit": false,
      "t": 111707.11600002527,
      "d": 60.975500000145985,
      "v": 100
    },
    {
      "midi": 60,
      "hit": false,
      "t": 111707.11600002527,
      "d": 60.975500000145985,
      "v": 100
    },
    {
      "midi": 79,
      "hit": false,
      "t": 111829.0670000002,
      "d": 121.95100000000093,
      "v": 100
    },
    {
      "midi": 54,
      "hit": false,
      "t": 111829.06700000046,
      "d": 1.0162583333294606,
      "v": 60
    },
    {
      "midi": 84,
      "hit": false,
      "t": 111829.06700000048,
      "d": 121.95100000000093,
      "v": 100
    },
    {
      "midi": 53,
      "hit": false,
      "t": 111829.06700000059,
      "d": 121.95100000000093,
      "v": 100
    },
    {
      "midi": 44,
      "hit": false,
      "t": 111829.06700000064,
      "d": 1.0162583333294606,
      "v": 100
    },
    {
      "midi": 67,
      "hit": false,
      "t": 111829.06700002545,
      "d": 60.97550000001502,
      "v": 100
    },
    {
      "midi": 63,
      "hit": false,
      "t": 111829.06700002545,
      "d": 60.97550000001502,
      "v": 100
    },
    {
      "midi": 60,
      "hit": false,
      "t": 111829.06700002545,
      "d": 60.97550000001502,
      "v": 100
    },
    {
      "midi": 36,
      "hit": false,
      "t": 111951.01800000035,
      "d": 203.25166666666337,
      "v": 100
    },
    {
      "midi": 54,
      "hit": false,
      "t": 111951.01800000046,
      "d": 1.0162583333294606,
      "v": 60
    },
    {
      "midi": 79,
      "hit": false,
      "t": 111951.01800000048,
      "d": 121.95100000000093,
      "v": 100
    },
    {
      "midi": 46,
      "hit": false,
      "t": 111951.01800000064,
      "d": 1.0162583333294606,
      "v": 100
    },
    {
      "midi": 48,
      "hit": false,
      "t": 111951.0180000011,
      "d": 121.95100000000093,
      "v": 100
    },
    {
      "midi": 67,
      "hit": false,
      "t": 111951.0180000256,
      "d": 60.975500000000466,
      "v": 100
    },
    {
      "midi": 63,
      "hit": false,
      "t": 111951.0180000256,
      "d": 60.975500000000466,
      "v": 100
    },
    {
      "midi": 60,
      "hit": false,
      "t": 111951.0180000256,
      "d": 60.975500000000466,
      "v": 100
    },
    {
      "midi": 79,
      "hit": false,
      "t": 112072.9690000002,
      "d": 121.95100000000093,
      "v": 100
    },
    {
      "midi": 54,
      "hit": false,
      "t": 112072.96900000046,
      "d": 1.0162583333294606,
      "v": 60
    },
    {
      "midi": 72,
      "hit": false,
      "t": 112072.96900000048,
      "d": 121.95100000000093,
      "v": 100
    },
    {
      "midi": 55,
      "hit": false,
      "t": 112072.9690000006,
      "d": 121.95100000000093,
      "v": 100
    },
    {
      "midi": 44,
      "hit": false,
      "t": 112072.96900000064,
      "d": 1.0162583333294606,
      "v": 100
    },
    {
      "midi": 48,
      "hit": false,
      "t": 112072.9690000011,
      "d": 121.95100000000093,
      "v": 100
    },
    {
      "midi": 67,
      "hit": false,
      "t": 112072.9690000256,
      "d": 60.975500000000466,
      "v": 100
    },
    {
      "midi": 63,
      "hit": false,
      "t": 112072.9690000256,
      "d": 60.975500000000466,
      "v": 100
    },
    {
      "midi": 60,
      "hit": false,
      "t": 112072.9690000256,
      "d": 60.975500000000466,
      "v": 100
    },
    {
      "midi": 36,
      "hit": false,
      "t": 112194.92000000035,
      "d": 203.25166666666337,
      "v": 100
    },
    {
      "midi": 54,
      "hit": false,
      "t": 112194.92000000046,
      "d": 1.0162583333294606,
      "v": 80
    },
    {
      "midi": 79,
      "hit": false,
      "t": 112194.92000000048,
      "d": 121.95100000000093,
      "v": 100
    },
    {
      "midi": 33,
      "hit": false,
      "t": 112194.92000000064,
      "d": 1.0162583333294606,
      "v": 127
    },
    {
      "midi": 42,
      "hit": false,
      "t": 112194.92000000064,
      "d": 1.0162583333294606,
      "v": 100
    },
    {
      "midi": 48,
      "hit": false,
      "t": 112194.9200000011,
      "d": 121.95100000000093,
      "v": 100
    },
    {
      "midi": 67,
      "hit": false,
      "t": 112194.9200000256,
      "d": 60.975500000145985,
      "v": 100
    },
    {
      "midi": 63,
      "hit": false,
      "t": 112194.9200000256,
      "d": 60.975500000145985,
      "v": 100
    },
    {
      "midi": 60,
      "hit": false,
      "t": 112194.9200000256,
      "d": 60.975500000145985,
      "v": 100
    },
    {
      "midi": 79,
      "hit": false,
      "t": 112316.8710000002,
      "d": 121.95100000000093,
      "v": 100
    },
    {
      "midi": 54,
      "hit": false,
      "t": 112316.87100000046,
      "d": 1.0162583333294606,
      "v": 60
    },
    {
      "midi": 72,
      "hit": false,
      "t": 112316.87100000048,
      "d": 121.95100000000093,
      "v": 100
    },
    {
      "midi": 55,
      "hit": false,
      "t": 112316.8710000006,
      "d": 121.95100000000093,
      "v": 100
    },
    {
      "midi": 48,
      "hit": false,
      "t": 112316.8710000011,
      "d": 121.95100000000093,
      "v": 100
    },
    {
      "midi": 67,
      "hit": false,
      "t": 112316.87100002577,
      "d": 60.97550000001502,
      "v": 100
    },
    {
      "midi": 63,
      "hit": false,
      "t": 112316.87100002577,
      "d": 60.97550000001502,
      "v": 100
    },
    {
      "midi": 60,
      "hit": false,
      "t": 112316.87100002577,
      "d": 60.97550000001502,
      "v": 100
    },
    {
      "midi": 80,
      "hit": false,
      "t": 112438.8220000002,
      "d": 487.8040000000037,
      "v": 100
    },
    {
      "midi": 36,
      "hit": false,
      "t": 112438.82200000035,
      "d": 203.25166666666337,
      "v": 100
    },
    {
      "midi": 54,
      "hit": false,
      "t": 112438.82200000047,
      "d": 1.0162583333294606,
      "v": 60
    },
    {
      "midi": 75,
      "hit": false,
      "t": 112438.82200000048,
      "d": 121.95100000000093,
      "v": 100
    },
    {
      "midi": 51,
      "hit": false,
      "t": 112438.8220000006,
      "d": 121.95100000000093,
      "v": 100
    },
    {
      "midi": 46,
      "hit": false,
      "t": 112438.82200000064,
      "d": 1.0162583333294606,
      "v": 100
    },
    {
      "midi": 48,
      "hit": false,
      "t": 112438.8220000011,
      "d": 243.90200000000186,
      "v": 100
    },
    {
      "midi": 67,
      "hit": false,
      "t": 112438.82200002592,
      "d": 60.975500000000466,
      "v": 100
    },
    {
      "midi": 63,
      "hit": false,
      "t": 112438.82200002592,
      "d": 60.975500000000466,
      "v": 100
    },
    {
      "midi": 60,
      "hit": false,
      "t": 112438.82200002592,
      "d": 60.975500000000466,
      "v": 100
    },
    {
      "midi": 54,
      "hit": false,
      "t": 112560.77300000047,
      "d": 1.0162583333294606,
      "v": 60
    },
    {
      "midi": 79,
      "hit": false,
      "t": 112560.77300000048,
      "d": 121.95100000000093,
      "v": 100
    },
    {
      "midi": 44,
      "hit": false,
      "t": 112560.77300000064,
      "d": 1.0162583333294606,
      "v": 100
    },
    {
      "midi": 67,
      "hit": false,
      "t": 112560.77300002592,
      "d": 60.975500000000466,
      "v": 100
    },
    {
      "midi": 63,
      "hit": false,
      "t": 112560.77300002592,
      "d": 60.975500000000466,
      "v": 100
    },
    {
      "midi": 60,
      "hit": false,
      "t": 112560.77300002592,
      "d": 60.975500000000466,
      "v": 100
    },
    {
      "midi": 36,
      "hit": false,
      "t": 112682.72400000035,
      "d": 203.25166666666337,
      "v": 100
    },
    {
      "midi": 54,
      "hit": false,
      "t": 112682.72400000047,
      "d": 1.0162583333294606,
      "v": 80
    },
    {
      "midi": 67,
      "hit": false,
      "t": 112682.72400000048,
      "d": 121.95100000000093,
      "v": 100
    },
    {
      "midi": 51,
      "hit": false,
      "t": 112682.7240000006,
      "d": 487.8040000000037,
      "v": 100
    },
    {
      "midi": 33,
      "hit": false,
      "t": 112682.72400000064,
      "d": 1.0162583333294606,
      "v": 127
    },
    {
      "midi": 40,
      "hit": false,
      "t": 112682.72400000064,
      "d": 1.0162583333294606,
      "v": 100
    },
    {
      "midi": 46,
      "hit": false,
      "t": 112682.72400000064,
      "d": 1.0162583333294606,
      "v": 100
    },
    {
      "midi": 48,
      "hit": false,
      "t": 112682.72400000111,
      "d": 243.90200000000186,
      "v": 100
    },
    {
      "midi": 55,
      "hit": false,
      "t": 112682.72400000111,
      "d": 243.90200000000186,
      "v": 100
    },
    {
      "midi": 67,
      "hit": false,
      "t": 112682.72400002592,
      "d": 243.9020000002929,
      "v": 100
    },
    {
      "midi": 63,
      "hit": false,
      "t": 112682.72400002592,
      "d": 243.9020000002929,
      "v": 100
    },
    {
      "midi": 60,
      "hit": false,
      "t": 112682.72400002592,
      "d": 243.9020000002929,
      "v": 100
    },
    {
      "midi": 54,
      "hit": false,
      "t": 112804.67500000047,
      "d": 1.0162583333294606,
      "v": 60
    },
    {
      "midi": 72,
      "hit": false,
      "t": 112804.67500000048,
      "d": 121.95100000000093,
      "v": 100
    },
    {
      "midi": 44,
      "hit": false,
      "t": 112804.67500000064,
      "d": 1.0162583333294606,
      "v": 100
    },
    {
      "midi": 82,
      "hit": false,
      "t": 112926.62600000021,
      "d": 243.90200000000186,
      "v": 100
    },
    {
      "midi": 36,
      "hit": false,
      "t": 112926.62600000035,
      "d": 203.25166666666337,
      "v": 100
    },
    {
      "midi": 54,
      "hit": false,
      "t": 112926.62600000047,
      "d": 1.0162583333294606,
      "v": 60
    },
    {
      "midi": 70,
      "hit": false,
      "t": 112926.62600000048,
      "d": 243.90200000000186,
      "v": 127
    },
    {
      "midi": 82,
      "hit": false,
      "t": 112926.62600000048,
      "d": 243.90200000000186,
      "v": 127
    },
    {
      "midi": 40,
      "hit": false,
      "t": 112926.62600000064,
      "d": 1.0162583333294606,
      "v": 40
    },
    {
      "midi": 46,
      "hit": false,
      "t": 112926.62600000064,
      "d": 1.0162583333294606,
      "v": 100
    },
    {
      "midi": 48,
      "hit": false,
      "t": 112926.62600000111,
      "d": 243.90200000000186,
      "v": 100
    },
    {
      "midi": 67,
      "hit": false,
      "t": 112926.62600002621,
      "d": 60.975500000000466,
      "v": 100
    },
    {
      "midi": 63,
      "hit": false,
      "t": 112926.62600002621,
      "d": 60.975500000000466,
      "v": 100
    },
    {
      "midi": 60,
      "hit": false,
      "t": 112926.62600002621,
      "d": 60.975500000000466,
      "v": 100
    },
    {
      "midi": 54,
      "hit": false,
      "t": 113048.57700000047,
      "d": 1.0162583333294606,
      "v": 60
    },
    {
      "midi": 40,
      "hit": false,
      "t": 113048.57700000065,
      "d": 1.0162583333294606,
      "v": 100
    },
    {
      "midi": 44,
      "hit": false,
      "t": 113048.57700000065,
      "d": 1.0162583333294606,
      "v": 100
    },
    {
      "midi": 67,
      "hit": false,
      "t": 113048.57700002621,
      "d": 60.975500000000466,
      "v": 100
    },
    {
      "midi": 63,
      "hit": false,
      "t": 113048.57700002621,
      "d": 60.975500000000466,
      "v": 100
    },
    {
      "midi": 60,
      "hit": false,
      "t": 113048.57700002621,
      "d": 60.975500000000466,
      "v": 100
    },
    {
      "midi": 84,
      "hit": false,
      "t": 113170.52800000021,
      "d": 243.90200000000186,
      "v": 100
    },
    {
      "midi": 36,
      "hit": false,
      "t": 113170.52800000035,
      "d": 203.25166666666337,
      "v": 100
    },
    {
      "midi": 54,
      "hit": false,
      "t": 113170.52800000047,
      "d": 1.0162583333294606,
      "v": 80
    },
    {
      "midi": 84,
      "hit": false,
      "t": 113170.52800000049,
      "d": 243.90200000000186,
      "v": 127
    },
    {
      "midi": 72,
      "hit": false,
      "t": 113170.52800000049,
      "d": 243.90200000000186,
      "v": 127
    },
    {
      "midi": 60,
      "hit": false,
      "t": 113170.5280000006,
      "d": 121.95100000000093,
      "v": 100
    },
    {
      "midi": 33,
      "hit": false,
      "t": 113170.52800000065,
      "d": 1.0162583333294606,
      "v": 127
    },
    {
      "midi": 42,
      "hit": false,
      "t": 113170.52800000065,
      "d": 1.0162583333294606,
      "v": 100
    },
    {
      "midi": 51,
      "hit": false,
      "t": 113170.52800000111,
      "d": 1219.5099999999948,
      "v": 100
    },
    {
      "midi": 58,
      "hit": false,
      "t": 113170.52800000111,
      "d": 1219.5099999999948,
      "v": 100
    },
    {
      "midi": 67,
      "hit": false,
      "t": 113170.52800002621,
      "d": 487.8040000002802,
      "v": 100
    },
    {
      "midi": 63,
      "hit": false,
      "t": 113170.52800002621,
      "d": 487.8040000002802,
      "v": 100
    },
    {
      "midi": 60,
      "hit": false,
      "t": 113170.52800002621,
      "d": 487.8040000002802,
      "v": 100
    },
    {
      "midi": 54,
      "hit": false,
      "t": 113292.47900000047,
      "d": 1.0162583333294606,
      "v": 60
    },
    {
      "midi": 67,
      "hit": false,
      "t": 113292.47900000049,
      "d": 121.95100000000093,
      "v": 100
    },
    {
      "midi": 58,
      "hit": false,
      "t": 113292.4790000006,
      "d": 121.95100000000093,
      "v": 100
    },
    {
      "midi": 36,
      "hit": false,
      "t": 113414.43000000036,
      "d": 203.25166666666337,
      "v": 100
    },
    {
      "midi": 54,
      "hit": false,
      "t": 113414.43000000047,
      "d": 1.0162583333294606,
      "v": 60
    },
    {
      "midi": 72,
      "hit": false,
      "t": 113414.43000000049,
      "d": 121.95100000000093,
      "v": 100
    },
    {
      "midi": 46,
      "hit": false,
      "t": 113414.43000000065,
      "d": 1.0162583333294606,
      "v": 100
    },
    {
      "midi": 79,
      "hit": false,
      "t": 113536.38100000021,
      "d": 121.95100000000093,
      "v": 100
    },
    {
      "midi": 54,
      "hit": false,
      "t": 113536.38100000047,
      "d": 1.0162583333294606,
      "v": 60
    },
    {
      "midi": 79,
      "hit": false,
      "t": 113536.38100000049,
      "d": 121.95100000000093,
      "v": 100
    },
    {
      "midi": 60,
      "hit": false,
      "t": 113536.3810000006,
      "d": 121.95100000000093,
      "v": 100
    },
    {
      "midi": 44,
      "hit": false,
      "t": 113536.38100000065,
      "d": 1.0162583333294606,
      "v": 100
    },
    {
      "midi": 36,
      "hit": false,
      "t": 113658.33200000036,
      "d": 203.25166666666337,
      "v": 100
    },
    {
      "midi": 54,
      "hit": false,
      "t": 113658.33200000048,
      "d": 1.0162583333294606,
      "v": 80
    },
    {
      "midi": 72,
      "hit": false,
      "t": 113658.33200000049,
      "d": 121.95100000000093,
      "v": 100
    },
    {
      "midi": 33,
      "hit": false,
      "t": 113658.33200000065,
      "d": 1.0162583333294606,
      "v": 127
    },
    {
      "midi": 40,
      "hit": false,
      "t": 113658.33200000065,
      "d": 1.0162583333294606,
      "v": 100
    },
    {
      "midi": 46,
      "hit": false,
      "t": 113658.33200000065,
      "d": 1.0162583333294606,
      "v": 100
    },
    {
      "midi": 67,
      "hit": false,
      "t": 113658.3320000265,
      "d": 60.975500000145985,
      "v": 100
    },
    {
      "midi": 63,
      "hit": false,
      "t": 113658.3320000265,
      "d": 60.975500000145985,
      "v": 100
    },
    {
      "midi": 60,
      "hit": false,
      "t": 113658.3320000265,
      "d": 60.975500000145985,
      "v": 100
    },
    {
      "midi": 79,
      "hit": false,
      "t": 113780.28300000021,
      "d": 121.95100000000093,
      "v": 100
    },
    {
      "midi": 54,
      "hit": false,
      "t": 113780.28300000048,
      "d": 1.0162583333294606,
      "v": 60
    },
    {
      "midi": 84,
      "hit": false,
      "t": 113780.28300000049,
      "d": 121.95100000000093,
      "v": 100
    },
    {
      "midi": 63,
      "hit": false,
      "t": 113780.2830000006,
      "d": 121.95100000000093,
      "v": 100
    },
    {
      "midi": 44,
      "hit": false,
      "t": 113780.28300000065,
      "d": 1.0162583333294606,
      "v": 100
    },
    {
      "midi": 67,
      "hit": false,
      "t": 113780.28300002667,
      "d": 60.97550000001502,
      "v": 100
    },
    {
      "midi": 63,
      "hit": false,
      "t": 113780.28300002667,
      "d": 60.97550000001502,
      "v": 100
    },
    {
      "midi": 60,
      "hit": false,
      "t": 113780.28300002667,
      "d": 60.97550000001502,
      "v": 100
    },
    {
      "midi": 36,
      "hit": false,
      "t": 113902.23400000036,
      "d": 203.25166666666337,
      "v": 100
    },
    {
      "midi": 54,
      "hit": false,
      "t": 113902.23400000048,
      "d": 1.0162583333294606,
      "v": 60
    },
    {
      "midi": 79,
      "hit": false,
      "t": 113902.23400000049,
      "d": 121.95100000000093,
      "v": 100
    },
    {
      "midi": 46,
      "hit": false,
      "t": 113902.23400000065,
      "d": 1.0162583333294606,
      "v": 100
    },
    {
      "midi": 67,
      "hit": false,
      "t": 113902.23400002682,
      "d": 60.975500000000466,
      "v": 100
    },
    {
      "midi": 63,
      "hit": false,
      "t": 113902.23400002682,
      "d": 60.975500000000466,
      "v": 100
    },
    {
      "midi": 60,
      "hit": false,
      "t": 113902.23400002682,
      "d": 60.975500000000466,
      "v": 100
    },
    {
      "midi": 79,
      "hit": false,
      "t": 114024.18500000022,
      "d": 121.95100000000093,
      "v": 100
    },
    {
      "midi": 54,
      "hit": false,
      "t": 114024.18500000048,
      "d": 1.0162583333294606,
      "v": 60
    },
    {
      "midi": 72,
      "hit": false,
      "t": 114024.18500000049,
      "d": 121.95100000000093,
      "v": 100
    },
    {
      "midi": 63,
      "hit": false,
      "t": 114024.18500000061,
      "d": 121.95100000000093,
      "v": 100
    },
    {
      "midi": 44,
      "hit": false,
      "t": 114024.18500000065,
      "d": 1.0162583333294606,
      "v": 100
    },
    {
      "midi": 67,
      "hit": false,
      "t": 114024.18500002682,
      "d": 60.975500000000466,
      "v": 100
    },
    {
      "midi": 63,
      "hit": false,
      "t": 114024.18500002682,
      "d": 60.975500000000466,
      "v": 100
    },
    {
      "midi": 60,
      "hit": false,
      "t": 114024.18500002682,
      "d": 60.975500000000466,
      "v": 100
    },
    {
      "midi": 36,
      "hit": false,
      "t": 114146.13600000036,
      "d": 203.25166666666337,
      "v": 100
    },
    {
      "midi": 54,
      "hit": false,
      "t": 114146.13600000048,
      "d": 1.0162583333294606,
      "v": 80
    },
    {
      "midi": 79,
      "hit": false,
      "t": 114146.1360000005,
      "d": 121.95100000000093,
      "v": 100
    },
    {
      "midi": 33,
      "hit": false,
      "t": 114146.13600000065,
      "d": 1.0162583333294606,
      "v": 127
    },
    {
      "midi": 42,
      "hit": false,
      "t": 114146.13600000065,
      "d": 1.0162583333294606,
      "v": 100
    },
    {
      "midi": 67,
      "hit": false,
      "t": 114146.13600002682,
      "d": 60.975500000145985,
      "v": 100
    },
    {
      "midi": 63,
      "hit": false,
      "t": 114146.13600002682,
      "d": 60.975500000145985,
      "v": 100
    },
    {
      "midi": 60,
      "hit": false,
      "t": 114146.13600002682,
      "d": 60.975500000145985,
      "v": 100
    },
    {
      "midi": 79,
      "hit": false,
      "t": 114268.08700000022,
      "d": 121.95100000000093,
      "v": 100
    },
    {
      "midi": 54,
      "hit": false,
      "t": 114268.08700000048,
      "d": 1.0162583333294606,
      "v": 60
    },
    {
      "midi": 72,
      "hit": false,
      "t": 114268.0870000005,
      "d": 121.95100000000093,
      "v": 100
    },
    {
      "midi": 63,
      "hit": false,
      "t": 114268.08700000061,
      "d": 243.90200000000186,
      "v": 100
    },
    {
      "midi": 67,
      "hit": false,
      "t": 114268.087000027,
      "d": 60.97550000001502,
      "v": 100
    },
    {
      "midi": 63,
      "hit": false,
      "t": 114268.087000027,
      "d": 60.97550000001502,
      "v": 100
    },
    {
      "midi": 60,
      "hit": false,
      "t": 114268.087000027,
      "d": 60.97550000001502,
      "v": 100
    },
    {
      "midi": 80,
      "hit": false,
      "t": 114390.03800000022,
      "d": 487.8040000000037,
      "v": 100
    },
    {
      "midi": 36,
      "hit": false,
      "t": 114390.03800000036,
      "d": 203.25166666666337,
      "v": 100
    },
    {
      "midi": 54,
      "hit": false,
      "t": 114390.03800000048,
      "d": 1.0162583333294606,
      "v": 60
    },
    {
      "midi": 75,
      "hit": false,
      "t": 114390.0380000005,
      "d": 121.95100000000093,
      "v": 100
    },
    {
      "midi": 46,
      "hit": false,
      "t": 114390.03800000066,
      "d": 1.0162583333294606,
      "v": 100
    },
    {
      "midi": 55,
      "hit": false,
      "t": 114390.0380000011,
      "d": 731.7060000005004,
      "v": 100
    },
    {
      "midi": 51,
      "hit": false,
      "t": 114390.0380000011,
      "d": 731.7060000005004,
      "v": 100
    },
    {
      "midi": 67,
      "hit": false,
      "t": 114390.03800002714,
      "d": 60.975500000000466,
      "v": 100
    },
    {
      "midi": 63,
      "hit": false,
      "t": 114390.03800002714,
      "d": 60.975500000000466,
      "v": 100
    },
    {
      "midi": 60,
      "hit": false,
      "t": 114390.03800002714,
      "d": 60.975500000000466,
      "v": 100
    },
    {
      "midi": 54,
      "hit": false,
      "t": 114511.98900000048,
      "d": 1.0162583333294606,
      "v": 60
    },
    {
      "midi": 79,
      "hit": false,
      "t": 114511.9890000005,
      "d": 121.95100000000093,
      "v": 100
    },
    {
      "midi": 63,
      "hit": false,
      "t": 114511.98900000061,
      "d": 609.7550000000047,
      "v": 100
    },
    {
      "midi": 44,
      "hit": false,
      "t": 114511.98900000066,
      "d": 1.0162583333294606,
      "v": 100
    },
    {
      "midi": 67,
      "hit": false,
      "t": 114511.98900002714,
      "d": 60.975500000000466,
      "v": 100
    },
    {
      "midi": 63,
      "hit": false,
      "t": 114511.98900002714,
      "d": 60.975500000000466,
      "v": 100
    },
    {
      "midi": 60,
      "hit": false,
      "t": 114511.98900002714,
      "d": 60.975500000000466,
      "v": 100
    },
    {
      "midi": 36,
      "hit": false,
      "t": 114633.94000000037,
      "d": 203.25166666666337,
      "v": 100
    },
    {
      "midi": 54,
      "hit": false,
      "t": 114633.94000000048,
      "d": 1.0162583333294606,
      "v": 80
    },
    {
      "midi": 67,
      "hit": false,
      "t": 114633.9400000005,
      "d": 121.95100000000093,
      "v": 100
    },
    {
      "midi": 33,
      "hit": false,
      "t": 114633.94000000066,
      "d": 1.0162583333294606,
      "v": 127
    },
    {
      "midi": 40,
      "hit": false,
      "t": 114633.94000000066,
      "d": 1.0162583333294606,
      "v": 100
    },
    {
      "midi": 46,
      "hit": false,
      "t": 114633.94000000066,
      "d": 1.0162583333294606,
      "v": 100
    },
    {
      "midi": 57,
      "hit": false,
      "t": 114633.94000000066,
      "d": 1.0162583333294606,
      "v": 100
    },
    {
      "midi": 67,
      "hit": false,
      "t": 114633.94000002714,
      "d": 243.9020000002929,
      "v": 100
    },
    {
      "midi": 63,
      "hit": false,
      "t": 114633.94000002714,
      "d": 243.9020000002929,
      "v": 100
    },
    {
      "midi": 60,
      "hit": false,
      "t": 114633.94000002714,
      "d": 243.9020000002929,
      "v": 100
    },
    {
      "midi": 54,
      "hit": false,
      "t": 114755.89100000048,
      "d": 1.0162583333294606,
      "v": 60
    },
    {
      "midi": 72,
      "hit": false,
      "t": 114755.8910000005,
      "d": 121.95100000000093,
      "v": 100
    },
    {
      "midi": 44,
      "hit": false,
      "t": 114755.89100000066,
      "d": 1.0162583333294606,
      "v": 100
    },
    {
      "midi": 82,
      "hit": false,
      "t": 114877.84200000022,
      "d": 243.90200000000186,
      "v": 100
    },
    {
      "midi": 36,
      "hit": false,
      "t": 114877.84200000037,
      "d": 203.25166666666337,
      "v": 100
    },
    {
      "midi": 54,
      "hit": false,
      "t": 114877.84200000048,
      "d": 1.0162583333294606,
      "v": 60
    },
    {
      "midi": 70,
      "hit": false,
      "t": 114877.8420000005,
      "d": 243.90200000000186,
      "v": 127
    },
    {
      "midi": 82,
      "hit": false,
      "t": 114877.8420000005,
      "d": 243.90200000000186,
      "v": 127
    },
    {
      "midi": 40,
      "hit": false,
      "t": 114877.84200000066,
      "d": 1.0162583333294606,
      "v": 100
    },
    {
      "midi": 46,
      "hit": false,
      "t": 114877.84200000066,
      "d": 1.0162583333294606,
      "v": 100
    },
    {
      "midi": 67,
      "hit": false,
      "t": 114877.84200002743,
      "d": 60.975500000000466,
      "v": 100
    },
    {
      "midi": 63,
      "hit": false,
      "t": 114877.84200002743,
      "d": 60.975500000000466,
      "v": 100
    },
    {
      "midi": 60,
      "hit": false,
      "t": 114877.84200002743,
      "d": 60.975500000000466,
      "v": 100
    },
    {
      "midi": 54,
      "hit": false,
      "t": 114999.79300000049,
      "d": 1.0162583333294606,
      "v": 60
    },
    {
      "midi": 40,
      "hit": false,
      "t": 114999.79300000066,
      "d": 1.0162583333294606,
      "v": 100
    },
    {
      "midi": 44,
      "hit": false,
      "t": 114999.79300000066,
      "d": 1.0162583333294606,
      "v": 100
    },
    {
      "midi": 67,
      "hit": false,
      "t": 114999.79300002744,
      "d": 60.975500000000466,
      "v": 100
    },
    {
      "midi": 63,
      "hit": false,
      "t": 114999.79300002744,
      "d": 60.975500000000466,
      "v": 100
    },
    {
      "midi": 60,
      "hit": false,
      "t": 114999.79300002744,
      "d": 60.975500000000466,
      "v": 100
    },
    {
      "midi": 84,
      "hit": false,
      "t": 115121.74400000022,
      "d": 243.90200000000186,
      "v": 100
    },
    {
      "midi": 36,
      "hit": false,
      "t": 115121.74400000037,
      "d": 203.25166666666337,
      "v": 100
    },
    {
      "midi": 54,
      "hit": false,
      "t": 115121.74400000049,
      "d": 1.0162583333294606,
      "v": 80
    },
    {
      "midi": 84,
      "hit": false,
      "t": 115121.7440000005,
      "d": 243.90200000000186,
      "v": 127
    },
    {
      "midi": 72,
      "hit": false,
      "t": 115121.7440000005,
      "d": 243.90200000000186,
      "v": 127
    },
    {
      "midi": 60,
      "hit": false,
      "t": 115121.74400000062,
      "d": 121.95100000000093,
      "v": 100
    },
    {
      "midi": 33,
      "hit": false,
      "t": 115121.74400000066,
      "d": 1.0162583333294606,
      "v": 127
    },
    {
      "midi": 42,
      "hit": false,
      "t": 115121.74400000066,
      "d": 1.0162583333294606,
      "v": 100
    },
    {
      "midi": 57,
      "hit": false,
      "t": 115121.74400000066,
      "d": 1.0162583333294606,
      "v": 100
    },
    {
      "midi": 48,
      "hit": false,
      "t": 115121.7440000016,
      "d": 487.8040000000037,
      "v": 100
    },
    {
      "midi": 55,
      "hit": false,
      "t": 115121.7440000016,
      "d": 487.8040000000037,
      "v": 100
    },
    {
      "midi": 67,
      "hit": false,
      "t": 115121.74400002744,
      "d": 487.8040000002802,
      "v": 100
    },
    {
      "midi": 63,
      "hit": false,
      "t": 115121.74400002744,
      "d": 487.8040000002802,
      "v": 100
    },
    {
      "midi": 60,
      "hit": false,
      "t": 115121.74400002744,
      "d": 487.8040000002802,
      "v": 100
    },
    {
      "midi": 54,
      "hit": false,
      "t": 115243.69500000049,
      "d": 1.0162583333294606,
      "v": 60
    },
    {
      "midi": 67,
      "hit": false,
      "t": 115243.6950000005,
      "d": 121.95100000000093,
      "v": 100
    },
    {
      "midi": 58,
      "hit": false,
      "t": 115243.69500000062,
      "d": 121.95100000000093,
      "v": 100
    },
    {
      "midi": 36,
      "hit": false,
      "t": 115365.64600000037,
      "d": 203.25166666666337,
      "v": 100
    },
    {
      "midi": 54,
      "hit": false,
      "t": 115365.64600000049,
      "d": 1.0162583333294606,
      "v": 60
    },
    {
      "midi": 72,
      "hit": false,
      "t": 115365.6460000005,
      "d": 121.95100000000093,
      "v": 100
    },
    {
      "midi": 46,
      "hit": false,
      "t": 115365.64600000066,
      "d": 1.0162583333294606,
      "v": 100
    },
    {
      "midi": 79,
      "hit": false,
      "t": 115487.59700000023,
      "d": 121.95100000000093,
      "v": 100
    },
    {
      "midi": 54,
      "hit": false,
      "t": 115487.59700000049,
      "d": 1.0162583333294606,
      "v": 60
    },
    {
      "midi": 79,
      "hit": false,
      "t": 115487.5970000005,
      "d": 121.95100000000093,
      "v": 100
    },
    {
      "midi": 60,
      "hit": false,
      "t": 115487.59700000062,
      "d": 121.95100000000093,
      "v": 100
    },
    {
      "midi": 44,
      "hit": false,
      "t": 115487.59700000066,
      "d": 1.0162583333294606,
      "v": 100
    },
    {
      "midi": 36,
      "hit": false,
      "t": 115609.54800000037,
      "d": 203.25166666666337,
      "v": 100
    },
    {
      "midi": 54,
      "hit": false,
      "t": 115609.54800000049,
      "d": 1.0162583333294606,
      "v": 80
    },
    {
      "midi": 72,
      "hit": false,
      "t": 115609.5480000005,
      "d": 121.95100000000093,
      "v": 100
    },
    {
      "midi": 33,
      "hit": false,
      "t": 115609.54800000066,
      "d": 1.0162583333294606,
      "v": 127
    },
    {
      "midi": 40,
      "hit": false,
      "t": 115609.54800000066,
      "d": 1.0162583333294606,
      "v": 100
    },
    {
      "midi": 46,
      "hit": false,
      "t": 115609.54800000066,
      "d": 1.0162583333294606,
      "v": 100
    },
    {
      "midi": 48,
      "hit": false,
      "t": 115609.54800000161,
      "d": 243.90200000000186,
      "v": 100
    },
    {
      "midi": 67,
      "hit": false,
      "t": 115609.54800002772,
      "d": 60.975500000145985,
      "v": 100
    },
    {
      "midi": 63,
      "hit": false,
      "t": 115609.54800002772,
      "d": 60.975500000145985,
      "v": 100
    },
    {
      "midi": 60,
      "hit": false,
      "t": 115609.54800002772,
      "d": 60.975500000145985,
      "v": 100
    },
    {
      "midi": 79,
      "hit": false,
      "t": 115731.49900000023,
      "d": 121.95100000000093,
      "v": 100
    },
    {
      "midi": 54,
      "hit": false,
      "t": 115731.49900000049,
      "d": 1.0162583333294606,
      "v": 60
    },
    {
      "midi": 84,
      "hit": false,
      "t": 115731.4990000005,
      "d": 121.95100000000093,
      "v": 100
    },
    {
      "midi": 53,
      "hit": false,
      "t": 115731.49900000062,
      "d": 121.95100000000093,
      "v": 100
    },
    {
      "midi": 44,
      "hit": false,
      "t": 115731.49900000067,
      "d": 1.0162583333294606,
      "v": 100
    },
    {
      "midi": 67,
      "hit": false,
      "t": 115731.49900002789,
      "d": 60.97550000001502,
      "v": 100
    },
    {
      "midi": 63,
      "hit": false,
      "t": 115731.49900002789,
      "d": 60.97550000001502,
      "v": 100
    },
    {
      "midi": 60,
      "hit": false,
      "t": 115731.49900002789,
      "d": 60.97550000001502,
      "v": 100
    },
    {
      "midi": 36,
      "hit": false,
      "t": 115853.45000000038,
      "d": 203.25166666666337,
      "v": 100
    },
    {
      "midi": 54,
      "hit": false,
      "t": 115853.45000000049,
      "d": 1.0162583333294606,
      "v": 60
    },
    {
      "midi": 79,
      "hit": false,
      "t": 115853.4500000005,
      "d": 121.95100000000093,
      "v": 100
    },
    {
      "midi": 46,
      "hit": false,
      "t": 115853.45000000067,
      "d": 1.0162583333294606,
      "v": 100
    },
    {
      "midi": 48,
      "hit": false,
      "t": 115853.45000000161,
      "d": 121.95100000000093,
      "v": 100
    },
    {
      "midi": 67,
      "hit": false,
      "t": 115853.45000002804,
      "d": 60.975500000000466,
      "v": 100
    },
    {
      "midi": 63,
      "hit": false,
      "t": 115853.45000002804,
      "d": 60.975500000000466,
      "v": 100
    },
    {
      "midi": 60,
      "hit": false,
      "t": 115853.45000002804,
      "d": 60.975500000000466,
      "v": 100
    },
    {
      "midi": 79,
      "hit": false,
      "t": 115975.40100000023,
      "d": 121.95100000000093,
      "v": 100
    },
    {
      "midi": 54,
      "hit": false,
      "t": 115975.4010000005,
      "d": 1.0162583333294606,
      "v": 60
    },
    {
      "midi": 72,
      "hit": false,
      "t": 115975.40100000051,
      "d": 121.95100000000093,
      "v": 100
    },
    {
      "midi": 55,
      "hit": false,
      "t": 115975.40100000062,
      "d": 121.95100000000093,
      "v": 100
    },
    {
      "midi": 44,
      "hit": false,
      "t": 115975.40100000067,
      "d": 1.0162583333294606,
      "v": 100
    },
    {
      "midi": 48,
      "hit": false,
      "t": 115975.40100000161,
      "d": 121.95100000000093,
      "v": 100
    },
    {
      "midi": 67,
      "hit": false,
      "t": 115975.40100002804,
      "d": 60.975500000000466,
      "v": 100
    },
    {
      "midi": 63,
      "hit": false,
      "t": 115975.40100002804,
      "d": 60.975500000000466,
      "v": 100
    },
    {
      "midi": 60,
      "hit": false,
      "t": 115975.40100002804,
      "d": 60.975500000000466,
      "v": 100
    },
    {
      "midi": 36,
      "hit": false,
      "t": 116097.35200000038,
      "d": 203.25166666666337,
      "v": 100
    },
    {
      "midi": 54,
      "hit": false,
      "t": 116097.3520000005,
      "d": 1.0162583333294606,
      "v": 80
    },
    {
      "midi": 79,
      "hit": false,
      "t": 116097.35200000051,
      "d": 121.95100000000093,
      "v": 100
    },
    {
      "midi": 33,
      "hit": false,
      "t": 116097.35200000067,
      "d": 1.0162583333294606,
      "v": 127
    },
    {
      "midi": 42,
      "hit": false,
      "t": 116097.35200000067,
      "d": 1.0162583333294606,
      "v": 100
    },
    {
      "midi": 48,
      "hit": false,
      "t": 116097.35200000161,
      "d": 121.95100000000093,
      "v": 100
    },
    {
      "midi": 67,
      "hit": false,
      "t": 116097.35200002804,
      "d": 60.975500000145985,
      "v": 100
    },
    {
      "midi": 63,
      "hit": false,
      "t": 116097.35200002804,
      "d": 60.975500000145985,
      "v": 100
    },
    {
      "midi": 60,
      "hit": false,
      "t": 116097.35200002804,
      "d": 60.975500000145985,
      "v": 100
    },
    {
      "midi": 79,
      "hit": false,
      "t": 116219.30300000023,
      "d": 121.95100000000093,
      "v": 100
    },
    {
      "midi": 54,
      "hit": false,
      "t": 116219.3030000005,
      "d": 1.0162583333294606,
      "v": 60
    },
    {
      "midi": 72,
      "hit": false,
      "t": 116219.30300000051,
      "d": 121.95100000000093,
      "v": 100
    },
    {
      "midi": 55,
      "hit": false,
      "t": 116219.30300000063,
      "d": 121.95100000000093,
      "v": 100
    },
    {
      "midi": 48,
      "hit": false,
      "t": 116219.30300000162,
      "d": 121.95100000000093,
      "v": 100
    },
    {
      "midi": 67,
      "hit": false,
      "t": 116219.30300002822,
      "d": 60.97550000001502,
      "v": 100
    },
    {
      "midi": 63,
      "hit": false,
      "t": 116219.30300002822,
      "d": 60.97550000001502,
      "v": 100
    },
    {
      "midi": 60,
      "hit": false,
      "t": 116219.30300002822,
      "d": 60.97550000001502,
      "v": 100
    },
    {
      "midi": 80,
      "hit": false,
      "t": 116341.25400000023,
      "d": 487.8040000000037,
      "v": 100
    },
    {
      "midi": 36,
      "hit": false,
      "t": 116341.25400000038,
      "d": 203.25166666666337,
      "v": 100
    },
    {
      "midi": 54,
      "hit": false,
      "t": 116341.2540000005,
      "d": 1.0162583333294606,
      "v": 60
    },
    {
      "midi": 75,
      "hit": false,
      "t": 116341.25400000051,
      "d": 121.95100000000093,
      "v": 100
    },
    {
      "midi": 51,
      "hit": false,
      "t": 116341.25400000063,
      "d": 121.95100000000093,
      "v": 100
    },
    {
      "midi": 46,
      "hit": false,
      "t": 116341.25400000067,
      "d": 1.0162583333294606,
      "v": 100
    },
    {
      "midi": 48,
      "hit": false,
      "t": 116341.25400000162,
      "d": 243.90200000000186,
      "v": 100
    },
    {
      "midi": 67,
      "hit": false,
      "t": 116341.25400002836,
      "d": 60.975500000000466,
      "v": 100
    },
    {
      "midi": 63,
      "hit": false,
      "t": 116341.25400002836,
      "d": 60.975500000000466,
      "v": 100
    },
    {
      "midi": 60,
      "hit": false,
      "t": 116341.25400002836,
      "d": 60.975500000000466,
      "v": 100
    },
    {
      "midi": 54,
      "hit": false,
      "t": 116463.2050000005,
      "d": 1.0162583333294606,
      "v": 60
    },
    {
      "midi": 79,
      "hit": false,
      "t": 116463.20500000051,
      "d": 121.95100000000093,
      "v": 100
    },
    {
      "midi": 44,
      "hit": false,
      "t": 116463.20500000067,
      "d": 1.0162583333294606,
      "v": 100
    },
    {
      "midi": 67,
      "hit": false,
      "t": 116463.20500002836,
      "d": 60.975500000000466,
      "v": 100
    },
    {
      "midi": 63,
      "hit": false,
      "t": 116463.20500002836,
      "d": 60.975500000000466,
      "v": 100
    },
    {
      "midi": 60,
      "hit": false,
      "t": 116463.20500002836,
      "d": 60.975500000000466,
      "v": 100
    },
    {
      "midi": 36,
      "hit": false,
      "t": 116585.15600000038,
      "d": 203.25166666666337,
      "v": 100
    },
    {
      "midi": 54,
      "hit": false,
      "t": 116585.1560000005,
      "d": 1.0162583333294606,
      "v": 80
    },
    {
      "midi": 67,
      "hit": false,
      "t": 116585.15600000051,
      "d": 121.95100000000093,
      "v": 100
    },
    {
      "midi": 51,
      "hit": false,
      "t": 116585.15600000063,
      "d": 487.8040000000037,
      "v": 100
    },
    {
      "midi": 33,
      "hit": false,
      "t": 116585.15600000067,
      "d": 1.0162583333294606,
      "v": 127
    },
    {
      "midi": 40,
      "hit": false,
      "t": 116585.15600000067,
      "d": 1.0162583333294606,
      "v": 100
    },
    {
      "midi": 46,
      "hit": false,
      "t": 116585.15600000067,
      "d": 1.0162583333294606,
      "v": 100
    },
    {
      "midi": 48,
      "hit": false,
      "t": 116585.15600000162,
      "d": 243.90200000000186,
      "v": 100
    },
    {
      "midi": 67,
      "hit": false,
      "t": 116585.15600002836,
      "d": 243.9020000002929,
      "v": 100
    },
    {
      "midi": 63,
      "hit": false,
      "t": 116585.15600002836,
      "d": 243.9020000002929,
      "v": 100
    },
    {
      "midi": 60,
      "hit": false,
      "t": 116585.15600002836,
      "d": 243.9020000002929,
      "v": 100
    },
    {
      "midi": 54,
      "hit": false,
      "t": 116707.1070000005,
      "d": 1.0162583333294606,
      "v": 60
    },
    {
      "midi": 72,
      "hit": false,
      "t": 116707.10700000051,
      "d": 121.95100000000093,
      "v": 100
    },
    {
      "midi": 44,
      "hit": false,
      "t": 116707.10700000067,
      "d": 1.0162583333294606,
      "v": 100
    },
    {
      "midi": 82,
      "hit": false,
      "t": 116829.05800000024,
      "d": 243.90200000000186,
      "v": 100
    },
    {
      "midi": 36,
      "hit": false,
      "t": 116829.05800000038,
      "d": 203.25166666666337,
      "v": 100
    },
    {
      "midi": 54,
      "hit": false,
      "t": 116829.0580000005,
      "d": 1.0162583333294606,
      "v": 60
    },
    {
      "midi": 70,
      "hit": false,
      "t": 116829.05800000051,
      "d": 243.90200000000186,
      "v": 127
    },
    {
      "midi": 82,
      "hit": false,
      "t": 116829.05800000051,
      "d": 243.90200000000186,
      "v": 127
    },
    {
      "midi": 40,
      "hit": false,
      "t": 116829.05800000067,
      "d": 1.0162583333294606,
      "v": 40
    },
    {
      "midi": 46,
      "hit": false,
      "t": 116829.05800000067,
      "d": 1.0162583333294606,
      "v": 100
    },
    {
      "midi": 48,
      "hit": false,
      "t": 116829.05800000162,
      "d": 243.90200000000186,
      "v": 100
    },
    {
      "midi": 67,
      "hit": false,
      "t": 116829.05800002866,
      "d": 60.975500000000466,
      "v": 100
    },
    {
      "midi": 63,
      "hit": false,
      "t": 116829.05800002866,
      "d": 60.975500000000466,
      "v": 100
    },
    {
      "midi": 60,
      "hit": false,
      "t": 116829.05800002866,
      "d": 60.975500000000466,
      "v": 100
    },
    {
      "midi": 54,
      "hit": false,
      "t": 116951.0090000005,
      "d": 1.0162583333294606,
      "v": 60
    },
    {
      "midi": 40,
      "hit": false,
      "t": 116951.00900000067,
      "d": 1.0162583333294606,
      "v": 100
    },
    {
      "midi": 44,
      "hit": false,
      "t": 116951.00900000067,
      "d": 1.0162583333294606,
      "v": 100
    },
    {
      "midi": 67,
      "hit": false,
      "t": 116951.00900002866,
      "d": 60.975500000000466,
      "v": 100
    },
    {
      "midi": 63,
      "hit": false,
      "t": 116951.00900002866,
      "d": 60.975500000000466,
      "v": 100
    },
    {
      "midi": 60,
      "hit": false,
      "t": 116951.00900002866,
      "d": 60.975500000000466,
      "v": 100
    },
    {
      "midi": 84,
      "hit": false,
      "t": 117072.96000000024,
      "d": 243.90200000000186,
      "v": 100
    },
    {
      "midi": 36,
      "hit": false,
      "t": 117072.96000000038,
      "d": 203.25166666666337,
      "v": 100
    },
    {
      "midi": 54,
      "hit": false,
      "t": 117072.9600000005,
      "d": 1.0162583333294606,
      "v": 80
    },
    {
      "midi": 84,
      "hit": false,
      "t": 117072.96000000052,
      "d": 243.90200000000186,
      "v": 127
    },
    {
      "midi": 72,
      "hit": false,
      "t": 117072.96000000052,
      "d": 243.90200000000186,
      "v": 127
    },
    {
      "midi": 60,
      "hit": false,
      "t": 117072.96000000063,
      "d": 121.95100000000093,
      "v": 100
    },
    {
      "midi": 33,
      "hit": false,
      "t": 117072.96000000068,
      "d": 1.0162583333294606,
      "v": 127
    },
    {
      "midi": 42,
      "hit": false,
      "t": 117072.96000000068,
      "d": 1.0162583333294606,
      "v": 100
    },
    {
      "midi": 48,
      "hit": false,
      "t": 117072.96000000162,
      "d": 487.8040000000037,
      "v": 100
    },
    {
      "midi": 55,
      "hit": false,
      "t": 117072.96000000162,
      "d": 487.8040000000037,
      "v": 100
    },
    {
      "midi": 67,
      "hit": false,
      "t": 117072.96000002866,
      "d": 487.8040000002802,
      "v": 100
    },
    {
      "midi": 63,
      "hit": false,
      "t": 117072.96000002866,
      "d": 487.8040000002802,
      "v": 100
    },
    {
      "midi": 60,
      "hit": false,
      "t": 117072.96000002866,
      "d": 487.8040000002802,
      "v": 100
    },
    {
      "midi": 54,
      "hit": false,
      "t": 117194.9110000005,
      "d": 1.0162583333294606,
      "v": 60
    },
    {
      "midi": 67,
      "hit": false,
      "t": 117194.91100000052,
      "d": 121.95100000000093,
      "v": 100
    },
    {
      "midi": 58,
      "hit": false,
      "t": 117194.91100000063,
      "d": 121.95100000000093,
      "v": 100
    },
    {
      "midi": 36,
      "hit": false,
      "t": 117316.86200000039,
      "d": 203.25166666666337,
      "v": 100
    },
    {
      "midi": 54,
      "hit": false,
      "t": 117316.8620000005,
      "d": 1.0162583333294606,
      "v": 60
    },
    {
      "midi": 72,
      "hit": false,
      "t": 117316.86200000052,
      "d": 121.95100000000093,
      "v": 100
    },
    {
      "midi": 46,
      "hit": false,
      "t": 117316.86200000068,
      "d": 1.0162583333294606,
      "v": 100
    },
    {
      "midi": 79,
      "hit": false,
      "t": 117438.81300000024,
      "d": 121.95100000000093,
      "v": 100
    },
    {
      "midi": 54,
      "hit": false,
      "t": 117438.8130000005,
      "d": 1.0162583333294606,
      "v": 60
    },
    {
      "midi": 79,
      "hit": false,
      "t": 117438.81300000052,
      "d": 121.95100000000093,
      "v": 100
    },
    {
      "midi": 60,
      "hit": false,
      "t": 117438.81300000063,
      "d": 121.95100000000093,
      "v": 100
    },
    {
      "midi": 44,
      "hit": false,
      "t": 117438.81300000068,
      "d": 1.0162583333294606,
      "v": 100
    },
    {
      "midi": 36,
      "hit": false,
      "t": 117560.76400000039,
      "d": 203.25166666666337,
      "v": 100
    },
    {
      "midi": 54,
      "hit": false,
      "t": 117560.7640000005,
      "d": 1.0162583333294606,
      "v": 80
    },
    {
      "midi": 72,
      "hit": false,
      "t": 117560.76400000052,
      "d": 121.95100000000093,
      "v": 100
    },
    {
      "midi": 33,
      "hit": false,
      "t": 117560.76400000068,
      "d": 1.0162583333294606,
      "v": 127
    },
    {
      "midi": 40,
      "hit": false,
      "t": 117560.76400000068,
      "d": 1.0162583333294606,
      "v": 100
    },
    {
      "midi": 46,
      "hit": false,
      "t": 117560.76400000068,
      "d": 1.0162583333294606,
      "v": 100
    },
    {
      "midi": 48,
      "hit": false,
      "t": 117560.76400000163,
      "d": 243.90200000000186,
      "v": 100
    },
    {
      "midi": 67,
      "hit": false,
      "t": 117560.76400002894,
      "d": 60.975500000145985,
      "v": 100
    },
    {
      "midi": 63,
      "hit": false,
      "t": 117560.76400002894,
      "d": 60.975500000145985,
      "v": 100
    },
    {
      "midi": 60,
      "hit": false,
      "t": 117560.76400002894,
      "d": 60.975500000145985,
      "v": 100
    },
    {
      "midi": 79,
      "hit": false,
      "t": 117682.71500000024,
      "d": 121.95100000000093,
      "v": 100
    },
    {
      "midi": 54,
      "hit": false,
      "t": 117682.7150000005,
      "d": 1.0162583333294606,
      "v": 60
    },
    {
      "midi": 84,
      "hit": false,
      "t": 117682.71500000052,
      "d": 121.95100000000093,
      "v": 100
    },
    {
      "midi": 53,
      "hit": false,
      "t": 117682.71500000064,
      "d": 121.95100000000093,
      "v": 100
    },
    {
      "midi": 44,
      "hit": false,
      "t": 117682.71500000068,
      "d": 1.0162583333294606,
      "v": 100
    },
    {
      "midi": 67,
      "hit": false,
      "t": 117682.71500002911,
      "d": 60.97550000001502,
      "v": 100
    },
    {
      "midi": 63,
      "hit": false,
      "t": 117682.71500002911,
      "d": 60.97550000001502,
      "v": 100
    },
    {
      "midi": 60,
      "hit": false,
      "t": 117682.71500002911,
      "d": 60.97550000001502,
      "v": 100
    },
    {
      "midi": 36,
      "hit": false,
      "t": 117804.66600000039,
      "d": 203.25166666666337,
      "v": 100
    },
    {
      "midi": 54,
      "hit": false,
      "t": 117804.6660000005,
      "d": 1.0162583333294606,
      "v": 60
    },
    {
      "midi": 79,
      "hit": false,
      "t": 117804.66600000052,
      "d": 121.95100000000093,
      "v": 100
    },
    {
      "midi": 46,
      "hit": false,
      "t": 117804.66600000068,
      "d": 1.0162583333294606,
      "v": 100
    },
    {
      "midi": 40,
      "hit": false,
      "t": 117804.66600000068,
      "d": 1.0162583333294606,
      "v": 40
    },
    {
      "midi": 48,
      "hit": false,
      "t": 117804.66600000163,
      "d": 121.95100000000093,
      "v": 100
    },
    {
      "midi": 67,
      "hit": false,
      "t": 117804.66600002926,
      "d": 60.975500000000466,
      "v": 100
    },
    {
      "midi": 63,
      "hit": false,
      "t": 117804.66600002926,
      "d": 60.975500000000466,
      "v": 100
    },
    {
      "midi": 60,
      "hit": false,
      "t": 117804.66600002926,
      "d": 60.975500000000466,
      "v": 100
    },
    {
      "midi": 79,
      "hit": false,
      "t": 117926.61700000025,
      "d": 121.95100000000093,
      "v": 100
    },
    {
      "midi": 54,
      "hit": false,
      "t": 117926.61700000051,
      "d": 1.0162583333294606,
      "v": 60
    },
    {
      "midi": 72,
      "hit": false,
      "t": 117926.61700000052,
      "d": 121.95100000000093,
      "v": 100
    },
    {
      "midi": 55,
      "hit": false,
      "t": 117926.61700000064,
      "d": 121.95100000000093,
      "v": 100
    },
    {
      "midi": 44,
      "hit": false,
      "t": 117926.61700000068,
      "d": 1.0162583333294606,
      "v": 100
    },
    {
      "midi": 40,
      "hit": false,
      "t": 117926.61700000068,
      "d": 1.0162583333294606,
      "v": 100
    },
    {
      "midi": 48,
      "hit": false,
      "t": 117926.61700000163,
      "d": 121.95100000000093,
      "v": 100
    },
    {
      "midi": 67,
      "hit": false,
      "t": 117926.61700002926,
      "d": 60.975500000000466,
      "v": 100
    },
    {
      "midi": 63,
      "hit": false,
      "t": 117926.61700002926,
      "d": 60.975500000000466,
      "v": 100
    },
    {
      "midi": 60,
      "hit": false,
      "t": 117926.61700002926,
      "d": 60.975500000000466,
      "v": 100
    },
    {
      "midi": 36,
      "hit": false,
      "t": 118048.56800000039,
      "d": 203.25166666666337,
      "v": 100
    },
    {
      "midi": 54,
      "hit": false,
      "t": 118048.56800000051,
      "d": 1.0162583333294606,
      "v": 80
    },
    {
      "midi": 79,
      "hit": false,
      "t": 118048.56800000052,
      "d": 121.95100000000093,
      "v": 100
    },
    {
      "midi": 33,
      "hit": false,
      "t": 118048.56800000068,
      "d": 1.0162583333294606,
      "v": 127
    },
    {
      "midi": 42,
      "hit": false,
      "t": 118048.56800000068,
      "d": 1.0162583333294606,
      "v": 100
    },
    {
      "midi": 48,
      "hit": false,
      "t": 118048.56800000163,
      "d": 121.95100000000093,
      "v": 100
    },
    {
      "midi": 67,
      "hit": false,
      "t": 118048.56800002926,
      "d": 60.975500000145985,
      "v": 100
    },
    {
      "midi": 63,
      "hit": false,
      "t": 118048.56800002926,
      "d": 60.975500000145985,
      "v": 100
    },
    {
      "midi": 60,
      "hit": false,
      "t": 118048.56800002926,
      "d": 60.975500000145985,
      "v": 100
    },
    {
      "midi": 79,
      "hit": false,
      "t": 118170.51900000025,
      "d": 121.95100000000093,
      "v": 100
    },
    {
      "midi": 54,
      "hit": false,
      "t": 118170.51900000051,
      "d": 1.0162583333294606,
      "v": 60
    },
    {
      "midi": 72,
      "hit": false,
      "t": 118170.51900000052,
      "d": 121.95100000000093,
      "v": 100
    },
    {
      "midi": 55,
      "hit": false,
      "t": 118170.51900000064,
      "d": 121.95100000000093,
      "v": 100
    },
    {
      "midi": 40,
      "hit": false,
      "t": 118170.51900000068,
      "d": 1.0162583333294606,
      "v": 100
    },
    {
      "midi": 48,
      "hit": false,
      "t": 118170.51900000163,
      "d": 121.95100000000093,
      "v": 100
    },
    {
      "midi": 67,
      "hit": false,
      "t": 118170.51900002944,
      "d": 60.97550000001502,
      "v": 100
    },
    {
      "midi": 63,
      "hit": false,
      "t": 118170.51900002944,
      "d": 60.97550000001502,
      "v": 100
    },
    {
      "midi": 60,
      "hit": false,
      "t": 118170.51900002944,
      "d": 60.97550000001502,
      "v": 100
    },
    {
      "midi": 80,
      "hit": false,
      "t": 118292.47000000025,
      "d": 487.8040000000037,
      "v": 100
    },
    {
      "midi": 36,
      "hit": false,
      "t": 118292.4700000004,
      "d": 203.25166666666337,
      "v": 100
    },
    {
      "midi": 54,
      "hit": false,
      "t": 118292.47000000051,
      "d": 1.0162583333294606,
      "v": 60
    },
    {
      "midi": 75,
      "hit": false,
      "t": 118292.47000000053,
      "d": 121.95100000000093,
      "v": 100
    },
    {
      "midi": 51,
      "hit": false,
      "t": 118292.47000000064,
      "d": 121.95100000000093,
      "v": 100
    },
    {
      "midi": 46,
      "hit": false,
      "t": 118292.47000000069,
      "d": 1.0162583333294606,
      "v": 100
    },
    {
      "midi": 48,
      "hit": false,
      "t": 118292.47000000163,
      "d": 243.90200000000186,
      "v": 100
    },
    {
      "midi": 67,
      "hit": false,
      "t": 118292.47000002959,
      "d": 60.975500000000466,
      "v": 100
    },
    {
      "midi": 63,
      "hit": false,
      "t": 118292.47000002959,
      "d": 60.975500000000466,
      "v": 100
    },
    {
      "midi": 60,
      "hit": false,
      "t": 118292.47000002959,
      "d": 60.975500000000466,
      "v": 100
    },
    {
      "midi": 54,
      "hit": false,
      "t": 118414.42100000051,
      "d": 1.0162583333294606,
      "v": 60
    },
    {
      "midi": 79,
      "hit": false,
      "t": 118414.42100000053,
      "d": 121.95100000000093,
      "v": 100
    },
    {
      "midi": 44,
      "hit": false,
      "t": 118414.42100000069,
      "d": 1.0162583333294606,
      "v": 100
    },
    {
      "midi": 67,
      "hit": false,
      "t": 118414.42100002959,
      "d": 60.975500000000466,
      "v": 100
    },
    {
      "midi": 63,
      "hit": false,
      "t": 118414.42100002959,
      "d": 60.975500000000466,
      "v": 100
    },
    {
      "midi": 60,
      "hit": false,
      "t": 118414.42100002959,
      "d": 60.975500000000466,
      "v": 100
    },
    {
      "midi": 36,
      "hit": false,
      "t": 118536.3720000004,
      "d": 203.25166666666337,
      "v": 100
    },
    {
      "midi": 54,
      "hit": false,
      "t": 118536.37200000051,
      "d": 1.0162583333294606,
      "v": 80
    },
    {
      "midi": 67,
      "hit": false,
      "t": 118536.37200000053,
      "d": 121.95100000000093,
      "v": 100
    },
    {
      "midi": 51,
      "hit": false,
      "t": 118536.37200000064,
      "d": 487.8040000000037,
      "v": 100
    },
    {
      "midi": 33,
      "hit": false,
      "t": 118536.37200000069,
      "d": 1.0162583333294606,
      "v": 127
    },
    {
      "midi": 40,
      "hit": false,
      "t": 118536.37200000069,
      "d": 1.0162583333294606,
      "v": 100
    },
    {
      "midi": 46,
      "hit": false,
      "t": 118536.37200000069,
      "d": 1.0162583333294606,
      "v": 100
    },
    {
      "midi": 48,
      "hit": false,
      "t": 118536.37200000163,
      "d": 243.90200000000186,
      "v": 100
    },
    {
      "midi": 67,
      "hit": false,
      "t": 118536.37200002959,
      "d": 243.9020000002929,
      "v": 100
    },
    {
      "midi": 63,
      "hit": false,
      "t": 118536.37200002959,
      "d": 243.9020000002929,
      "v": 100
    },
    {
      "midi": 60,
      "hit": false,
      "t": 118536.37200002959,
      "d": 243.9020000002929,
      "v": 100
    },
    {
      "midi": 54,
      "hit": false,
      "t": 118658.32300000051,
      "d": 1.0162583333294606,
      "v": 60
    },
    {
      "midi": 72,
      "hit": false,
      "t": 118658.32300000053,
      "d": 121.95100000000093,
      "v": 100
    },
    {
      "midi": 44,
      "hit": false,
      "t": 118658.32300000069,
      "d": 1.0162583333294606,
      "v": 100
    },
    {
      "midi": 82,
      "hit": false,
      "t": 118780.27400000025,
      "d": 243.90200000000186,
      "v": 100
    },
    {
      "midi": 36,
      "hit": false,
      "t": 118780.2740000004,
      "d": 203.25166666666337,
      "v": 100
    },
    {
      "midi": 54,
      "hit": false,
      "t": 118780.27400000051,
      "d": 1.0162583333294606,
      "v": 60
    },
    {
      "midi": 70,
      "hit": false,
      "t": 118780.27400000053,
      "d": 243.90200000000186,
      "v": 127
    },
    {
      "midi": 82,
      "hit": false,
      "t": 118780.27400000053,
      "d": 243.90200000000186,
      "v": 127
    },
    {
      "midi": 40,
      "hit": false,
      "t": 118780.27400000069,
      "d": 1.0162583333294606,
      "v": 100
    },
    {
      "midi": 46,
      "hit": false,
      "t": 118780.27400000069,
      "d": 1.0162583333294606,
      "v": 100
    },
    {
      "midi": 48,
      "hit": false,
      "t": 118780.27400000163,
      "d": 243.90200000000186,
      "v": 100
    },
    {
      "midi": 67,
      "hit": false,
      "t": 118780.27400002988,
      "d": 60.975500000000466,
      "v": 100
    },
    {
      "midi": 63,
      "hit": false,
      "t": 118780.27400002988,
      "d": 60.975500000000466,
      "v": 100
    },
    {
      "midi": 60,
      "hit": false,
      "t": 118780.27400002988,
      "d": 60.975500000000466,
      "v": 100
    },
    {
      "midi": 54,
      "hit": false,
      "t": 118902.22500000052,
      "d": 1.0162583333294606,
      "v": 60
    },
    {
      "midi": 40,
      "hit": false,
      "t": 118902.22500000069,
      "d": 1.0162583333294606,
      "v": 100
    },
    {
      "midi": 44,
      "hit": false,
      "t": 118902.22500000069,
      "d": 1.0162583333294606,
      "v": 100
    },
    {
      "midi": 67,
      "hit": false,
      "t": 118902.22500002988,
      "d": 60.975500000000466,
      "v": 100
    },
    {
      "midi": 63,
      "hit": false,
      "t": 118902.22500002988,
      "d": 60.975500000000466,
      "v": 100
    },
    {
      "midi": 60,
      "hit": false,
      "t": 118902.22500002988,
      "d": 60.975500000000466,
      "v": 100
    },
    {
      "midi": 84,
      "hit": false,
      "t": 119024.17600000025,
      "d": 243.90200000000186,
      "v": 100
    },
    {
      "midi": 36,
      "hit": false,
      "t": 119024.1760000004,
      "d": 203.25166666666337,
      "v": 100
    },
    {
      "midi": 54,
      "hit": false,
      "t": 119024.17600000052,
      "d": 1.0162583333294606,
      "v": 80
    },
    {
      "midi": 84,
      "hit": false,
      "t": 119024.17600000053,
      "d": 243.90200000000186,
      "v": 127
    },
    {
      "midi": 72,
      "hit": false,
      "t": 119024.17600000053,
      "d": 243.90200000000186,
      "v": 127
    },
    {
      "midi": 60,
      "hit": false,
      "t": 119024.17600000065,
      "d": 121.95100000000093,
      "v": 100
    },
    {
      "midi": 33,
      "hit": false,
      "t": 119024.17600000069,
      "d": 1.0162583333294606,
      "v": 127
    },
    {
      "midi": 42,
      "hit": false,
      "t": 119024.17600000069,
      "d": 1.0162583333294606,
      "v": 100
    },
    {
      "midi": 48,
      "hit": false,
      "t": 119024.17600000164,
      "d": 487.8040000000037,
      "v": 100
    },
    {
      "midi": 55,
      "hit": false,
      "t": 119024.17600000164,
      "d": 487.8040000000037,
      "v": 100
    },
    {
      "midi": 67,
      "hit": false,
      "t": 119024.17600002988,
      "d": 487.8040000002802,
      "v": 100
    },
    {
      "midi": 63,
      "hit": false,
      "t": 119024.17600002988,
      "d": 487.8040000002802,
      "v": 100
    },
    {
      "midi": 60,
      "hit": false,
      "t": 119024.17600002988,
      "d": 487.8040000002802,
      "v": 100
    },
    {
      "midi": 54,
      "hit": false,
      "t": 119146.12700000052,
      "d": 1.0162583333294606,
      "v": 60
    },
    {
      "midi": 67,
      "hit": false,
      "t": 119146.12700000053,
      "d": 121.95100000000093,
      "v": 100
    },
    {
      "midi": 58,
      "hit": false,
      "t": 119146.12700000065,
      "d": 121.95100000000093,
      "v": 100
    },
    {
      "midi": 36,
      "hit": false,
      "t": 119268.0780000004,
      "d": 203.25166666666337,
      "v": 100
    },
    {
      "midi": 54,
      "hit": false,
      "t": 119268.07800000052,
      "d": 1.0162583333294606,
      "v": 60
    },
    {
      "midi": 72,
      "hit": false,
      "t": 119268.07800000053,
      "d": 121.95100000000093,
      "v": 100
    },
    {
      "midi": 46,
      "hit": false,
      "t": 119268.07800000069,
      "d": 1.0162583333294606,
      "v": 100
    },
    {
      "midi": 79,
      "hit": false,
      "t": 119390.02900000026,
      "d": 121.95100000000093,
      "v": 100
    },
    {
      "midi": 54,
      "hit": false,
      "t": 119390.02900000052,
      "d": 1.0162583333294606,
      "v": 60
    },
    {
      "midi": 79,
      "hit": false,
      "t": 119390.02900000053,
      "d": 121.95100000000093,
      "v": 100
    },
    {
      "midi": 60,
      "hit": false,
      "t": 119390.02900000065,
      "d": 121.95100000000093,
      "v": 100
    },
    {
      "midi": 44,
      "hit": false,
      "t": 119390.0290000007,
      "d": 1.0162583333294606,
      "v": 100
    },
    {
      "midi": 36,
      "hit": false,
      "t": 119511.9800000004,
      "d": 203.25166666666337,
      "v": 100
    },
    {
      "midi": 54,
      "hit": false,
      "t": 119511.98000000052,
      "d": 1.0162583333294606,
      "v": 80
    },
    {
      "midi": 72,
      "hit": false,
      "t": 119511.98000000053,
      "d": 121.95100000000093,
      "v": 100
    },
    {
      "midi": 33,
      "hit": false,
      "t": 119511.9800000007,
      "d": 1.0162583333294606,
      "v": 127
    },
    {
      "midi": 40,
      "hit": false,
      "t": 119511.9800000007,
      "d": 1.0162583333294606,
      "v": 100
    },
    {
      "midi": 46,
      "hit": false,
      "t": 119511.9800000007,
      "d": 1.0162583333294606,
      "v": 100
    },
    {
      "midi": 48,
      "hit": false,
      "t": 119511.98000000164,
      "d": 243.90200000000186,
      "v": 100
    },
    {
      "midi": 67,
      "hit": false,
      "t": 119511.98000003016,
      "d": 60.975500000145985,
      "v": 100
    },
    {
      "midi": 63,
      "hit": false,
      "t": 119511.98000003016,
      "d": 60.975500000145985,
      "v": 100
    },
    {
      "midi": 60,
      "hit": false,
      "t": 119511.98000003016,
      "d": 60.975500000145985,
      "v": 100
    },
    {
      "midi": 79,
      "hit": false,
      "t": 119633.93100000026,
      "d": 121.95100000000093,
      "v": 100
    },
    {
      "midi": 54,
      "hit": false,
      "t": 119633.93100000052,
      "d": 1.0162583333294606,
      "v": 60
    },
    {
      "midi": 84,
      "hit": false,
      "t": 119633.93100000054,
      "d": 121.95100000000093,
      "v": 100
    },
    {
      "midi": 53,
      "hit": false,
      "t": 119633.93100000065,
      "d": 121.95100000000093,
      "v": 100
    },
    {
      "midi": 44,
      "hit": false,
      "t": 119633.9310000007,
      "d": 1.0162583333294606,
      "v": 100
    },
    {
      "midi": 67,
      "hit": false,
      "t": 119633.93100003034,
      "d": 60.97550000001502,
      "v": 100
    },
    {
      "midi": 63,
      "hit": false,
      "t": 119633.93100003034,
      "d": 60.97550000001502,
      "v": 100
    },
    {
      "midi": 60,
      "hit": false,
      "t": 119633.93100003034,
      "d": 60.97550000001502,
      "v": 100
    },
    {
      "midi": 36,
      "hit": false,
      "t": 119755.8820000004,
      "d": 203.25166666666337,
      "v": 100
    },
    {
      "midi": 54,
      "hit": false,
      "t": 119755.88200000052,
      "d": 1.0162583333294606,
      "v": 60
    },
    {
      "midi": 79,
      "hit": false,
      "t": 119755.88200000054,
      "d": 121.95100000000093,
      "v": 100
    },
    {
      "midi": 46,
      "hit": false,
      "t": 119755.8820000007,
      "d": 1.0162583333294606,
      "v": 100
    },
    {
      "midi": 48,
      "hit": false,
      "t": 119755.88200000164,
      "d": 121.95100000000093,
      "v": 100
    },
    {
      "midi": 67,
      "hit": false,
      "t": 119755.88200003048,
      "d": 60.975500000000466,
      "v": 100
    },
    {
      "midi": 63,
      "hit": false,
      "t": 119755.88200003048,
      "d": 60.975500000000466,
      "v": 100
    },
    {
      "midi": 60,
      "hit": false,
      "t": 119755.88200003048,
      "d": 60.975500000000466,
      "v": 100
    },
    {
      "midi": 79,
      "hit": false,
      "t": 119877.83300000026,
      "d": 121.95100000000093,
      "v": 100
    },
    {
      "midi": 54,
      "hit": false,
      "t": 119877.83300000052,
      "d": 1.0162583333294606,
      "v": 60
    },
    {
      "midi": 72,
      "hit": false,
      "t": 119877.83300000054,
      "d": 121.95100000000093,
      "v": 100
    },
    {
      "midi": 55,
      "hit": false,
      "t": 119877.83300000065,
      "d": 121.95100000000093,
      "v": 100
    },
    {
      "midi": 44,
      "hit": false,
      "t": 119877.8330000007,
      "d": 1.0162583333294606,
      "v": 100
    },
    {
      "midi": 48,
      "hit": false,
      "t": 119877.83300000164,
      "d": 121.95100000000093,
      "v": 100
    },
    {
      "midi": 67,
      "hit": false,
      "t": 119877.83300003048,
      "d": 60.975500000000466,
      "v": 100
    },
    {
      "midi": 63,
      "hit": false,
      "t": 119877.83300003048,
      "d": 60.975500000000466,
      "v": 100
    },
    {
      "midi": 60,
      "hit": false,
      "t": 119877.83300003048,
      "d": 60.975500000000466,
      "v": 100
    },
    {
      "midi": 36,
      "hit": false,
      "t": 119999.7840000004,
      "d": 203.25166666666337,
      "v": 100
    },
    {
      "midi": 54,
      "hit": false,
      "t": 119999.78400000052,
      "d": 1.0162583333294606,
      "v": 80
    },
    {
      "midi": 79,
      "hit": false,
      "t": 119999.78400000054,
      "d": 121.95100000000093,
      "v": 100
    },
    {
      "midi": 33,
      "hit": false,
      "t": 119999.7840000007,
      "d": 1.0162583333294606,
      "v": 127
    },
    {
      "midi": 42,
      "hit": false,
      "t": 119999.7840000007,
      "d": 1.0162583333294606,
      "v": 100
    },
    {
      "midi": 48,
      "hit": false,
      "t": 119999.78400000164,
      "d": 121.95100000000093,
      "v": 100
    },
    {
      "midi": 67,
      "hit": false,
      "t": 119999.78400003049,
      "d": 60.975500000145985,
      "v": 100
    },
    {
      "midi": 63,
      "hit": false,
      "t": 119999.78400003049,
      "d": 60.975500000145985,
      "v": 100
    },
    {
      "midi": 60,
      "hit": false,
      "t": 119999.78400003049,
      "d": 60.975500000145985,
      "v": 100
    },
    {
      "midi": 79,
      "hit": false,
      "t": 120121.73500000026,
      "d": 121.95100000000093,
      "v": 100
    },
    {
      "midi": 54,
      "hit": false,
      "t": 120121.73500000052,
      "d": 1.0162583333294606,
      "v": 60
    },
    {
      "midi": 72,
      "hit": false,
      "t": 120121.73500000054,
      "d": 121.95100000000093,
      "v": 100
    },
    {
      "midi": 55,
      "hit": false,
      "t": 120121.73500000066,
      "d": 121.95100000000093,
      "v": 100
    },
    {
      "midi": 48,
      "hit": false,
      "t": 120121.73500000164,
      "d": 121.95100000000093,
      "v": 100
    },
    {
      "midi": 67,
      "hit": false,
      "t": 120121.73500003066,
      "d": 60.97550000001502,
      "v": 100
    },
    {
      "midi": 63,
      "hit": false,
      "t": 120121.73500003066,
      "d": 60.97550000001502,
      "v": 100
    },
    {
      "midi": 60,
      "hit": false,
      "t": 120121.73500003066,
      "d": 60.97550000001502,
      "v": 100
    },
    {
      "midi": 80,
      "hit": false,
      "t": 120243.68600000026,
      "d": 487.8040000000037,
      "v": 100
    },
    {
      "midi": 36,
      "hit": false,
      "t": 120243.68600000041,
      "d": 203.25166666666337,
      "v": 100
    },
    {
      "midi": 54,
      "hit": false,
      "t": 120243.68600000053,
      "d": 1.0162583333294606,
      "v": 60
    },
    {
      "midi": 75,
      "hit": false,
      "t": 120243.68600000054,
      "d": 121.95100000000093,
      "v": 100
    },
    {
      "midi": 51,
      "hit": false,
      "t": 120243.68600000066,
      "d": 121.95100000000093,
      "v": 100
    },
    {
      "midi": 46,
      "hit": false,
      "t": 120243.6860000007,
      "d": 1.0162583333294606,
      "v": 100
    },
    {
      "midi": 48,
      "hit": false,
      "t": 120243.68600000165,
      "d": 243.90200000000186,
      "v": 100
    },
    {
      "midi": 67,
      "hit": false,
      "t": 120243.68600003081,
      "d": 60.975500000000466,
      "v": 100
    },
    {
      "midi": 63,
      "hit": false,
      "t": 120243.68600003081,
      "d": 60.975500000000466,
      "v": 100
    },
    {
      "midi": 60,
      "hit": false,
      "t": 120243.68600003081,
      "d": 60.975500000000466,
      "v": 100
    },
    {
      "midi": 54,
      "hit": false,
      "t": 120365.63700000053,
      "d": 1.0162583333294606,
      "v": 60
    },
    {
      "midi": 79,
      "hit": false,
      "t": 120365.63700000054,
      "d": 121.95100000000093,
      "v": 100
    },
    {
      "midi": 44,
      "hit": false,
      "t": 120365.6370000007,
      "d": 1.0162583333294606,
      "v": 100
    },
    {
      "midi": 67,
      "hit": false,
      "t": 120365.63700003081,
      "d": 60.975500000000466,
      "v": 100
    },
    {
      "midi": 63,
      "hit": false,
      "t": 120365.63700003081,
      "d": 60.975500000000466,
      "v": 100
    },
    {
      "midi": 60,
      "hit": false,
      "t": 120365.63700003081,
      "d": 60.975500000000466,
      "v": 100
    },
    {
      "midi": 36,
      "hit": false,
      "t": 120487.58800000041,
      "d": 203.25166666666337,
      "v": 100
    },
    {
      "midi": 54,
      "hit": false,
      "t": 120487.58800000053,
      "d": 1.0162583333294606,
      "v": 80
    },
    {
      "midi": 67,
      "hit": false,
      "t": 120487.58800000054,
      "d": 121.95100000000093,
      "v": 100
    },
    {
      "midi": 51,
      "hit": false,
      "t": 120487.58800000066,
      "d": 487.8040000000037,
      "v": 100
    },
    {
      "midi": 33,
      "hit": false,
      "t": 120487.5880000007,
      "d": 1.0162583333294606,
      "v": 127
    },
    {
      "midi": 40,
      "hit": false,
      "t": 120487.5880000007,
      "d": 1.0162583333294606,
      "v": 100
    },
    {
      "midi": 46,
      "hit": false,
      "t": 120487.5880000007,
      "d": 1.0162583333294606,
      "v": 100
    },
    {
      "midi": 48,
      "hit": false,
      "t": 120487.58800000165,
      "d": 243.90200000000186,
      "v": 100
    },
    {
      "midi": 55,
      "hit": false,
      "t": 120487.58800000165,
      "d": 243.90200000000186,
      "v": 100
    },
    {
      "midi": 67,
      "hit": false,
      "t": 120487.58800003081,
      "d": 243.9020000002929,
      "v": 100
    },
    {
      "midi": 63,
      "hit": false,
      "t": 120487.58800003081,
      "d": 243.9020000002929,
      "v": 100
    },
    {
      "midi": 60,
      "hit": false,
      "t": 120487.58800003081,
      "d": 243.9020000002929,
      "v": 100
    },
    {
      "midi": 54,
      "hit": false,
      "t": 120609.53900000053,
      "d": 1.0162583333294606,
      "v": 60
    },
    {
      "midi": 72,
      "hit": false,
      "t": 120609.53900000054,
      "d": 121.95100000000093,
      "v": 100
    },
    {
      "midi": 44,
      "hit": false,
      "t": 120609.5390000007,
      "d": 1.0162583333294606,
      "v": 100
    },
    {
      "midi": 82,
      "hit": false,
      "t": 120731.49000000027,
      "d": 243.90200000000186,
      "v": 100
    },
    {
      "midi": 36,
      "hit": false,
      "t": 120731.49000000041,
      "d": 203.25166666666337,
      "v": 100
    },
    {
      "midi": 54,
      "hit": false,
      "t": 120731.49000000053,
      "d": 1.0162583333294606,
      "v": 60
    },
    {
      "midi": 70,
      "hit": false,
      "t": 120731.49000000054,
      "d": 243.90200000000186,
      "v": 127
    },
    {
      "midi": 82,
      "hit": false,
      "t": 120731.49000000054,
      "d": 243.90200000000186,
      "v": 127
    },
    {
      "midi": 40,
      "hit": false,
      "t": 120731.4900000007,
      "d": 1.0162583333294606,
      "v": 40
    },
    {
      "midi": 46,
      "hit": false,
      "t": 120731.4900000007,
      "d": 1.0162583333294606,
      "v": 100
    },
    {
      "midi": 48,
      "hit": false,
      "t": 120731.49000000165,
      "d": 243.90200000000186,
      "v": 100
    },
    {
      "midi": 67,
      "hit": false,
      "t": 120731.4900000311,
      "d": 60.975500000000466,
      "v": 100
    },
    {
      "midi": 63,
      "hit": false,
      "t": 120731.4900000311,
      "d": 60.975500000000466,
      "v": 100
    },
    {
      "midi": 60,
      "hit": false,
      "t": 120731.4900000311,
      "d": 60.975500000000466,
      "v": 100
    },
    {
      "midi": 54,
      "hit": false,
      "t": 120853.44100000053,
      "d": 1.0162583333294606,
      "v": 60
    },
    {
      "midi": 40,
      "hit": false,
      "t": 120853.4410000007,
      "d": 1.0162583333294606,
      "v": 100
    },
    {
      "midi": 44,
      "hit": false,
      "t": 120853.4410000007,
      "d": 1.0162583333294606,
      "v": 100
    },
    {
      "midi": 67,
      "hit": false,
      "t": 120853.4410000311,
      "d": 60.975500000000466,
      "v": 100
    },
    {
      "midi": 63,
      "hit": false,
      "t": 120853.4410000311,
      "d": 60.975500000000466,
      "v": 100
    },
    {
      "midi": 60,
      "hit": false,
      "t": 120853.4410000311,
      "d": 60.975500000000466,
      "v": 100
    },
    {
      "midi": 84,
      "hit": false,
      "t": 120975.39200000027,
      "d": 243.90200000000186,
      "v": 100
    },
    {
      "midi": 36,
      "hit": false,
      "t": 120975.39200000041,
      "d": 203.25166666666337,
      "v": 100
    },
    {
      "midi": 54,
      "hit": false,
      "t": 120975.39200000053,
      "d": 1.0162583333294606,
      "v": 80
    },
    {
      "midi": 84,
      "hit": false,
      "t": 120975.39200000055,
      "d": 243.90200000000186,
      "v": 127
    },
    {
      "midi": 72,
      "hit": false,
      "t": 120975.39200000055,
      "d": 243.90200000000186,
      "v": 127
    },
    {
      "midi": 33,
      "hit": false,
      "t": 120975.3920000007,
      "d": 1.0162583333294606,
      "v": 127
    },
    {
      "midi": 42,
      "hit": false,
      "t": 120975.3920000007,
      "d": 1.0162583333294606,
      "v": 100
    },
    {
      "midi": 57,
      "hit": false,
      "t": 120975.3920000007,
      "d": 1.0162583333294606,
      "v": 100
    },
    {
      "midi": 51,
      "hit": false,
      "t": 120975.39200000165,
      "d": 487.8040000001638,
      "v": 100
    },
    {
      "midi": 58,
      "hit": false,
      "t": 120975.39200000165,
      "d": 487.8040000001638,
      "v": 100
    },
    {
      "midi": 67,
      "hit": false,
      "t": 120975.3920000311,
      "d": 243.90200000013283,
      "v": 100
    },
    {
      "midi": 63,
      "hit": false,
      "t": 120975.3920000311,
      "d": 243.90200000013283,
      "v": 100
    },
    {
      "midi": 60,
      "hit": false,
      "t": 120975.3920000311,
      "d": 243.90200000013283,
      "v": 100
    },
    {
      "midi": 40,
      "hit": false,
      "t": 121829.0490000007,
      "d": 1.0162583333294606,
      "v": 100
    },
    {
      "midi": 40,
      "hit": false,
      "t": 122072.9510000007,
      "d": 1.0162583333294606,
      "v": 100
    },
    {
      "midi": 40,
      "hit": false,
      "t": 122194.9020000007,
      "d": 1.0162583333294606,
      "v": 100
    },
    {
      "midi": 40,
      "hit": false,
      "t": 122316.8530000007,
      "d": 1.0162583333294606,
      "v": 40
    },
    {
      "midi": 40,
      "hit": false,
      "t": 122438.8040000007,
      "d": 1.0162583333294606,
      "v": 100
    },
    {
      "midi": 40,
      "hit": false,
      "t": 122682.7060000007,
      "d": 1.0162583333294606,
      "v": 100
    },
    {
      "midi": 40,
      "hit": false,
      "t": 122804.6570000007,
      "d": 1.0162583333294606,
      "v": 100
    },
    {
      "midi": 72,
      "hit": false,
      "t": 122926.60800000027,
      "d": 487.8040000000037,
      "v": 100
    },
    {
      "midi": 67,
      "hit": false,
      "t": 122926.60800000027,
      "d": 487.8040000000037,
      "v": 100
    },
    {
      "midi": 63,
      "hit": false,
      "t": 122926.60800000027,
      "d": 487.8040000000037,
      "v": 100
    },
    {
      "midi": 72,
      "hit": false,
      "t": 122926.60800000039,
      "d": 243.90200000000186,
      "v": 100
    },
    {
      "midi": 36,
      "hit": false,
      "t": 122926.60800000041,
      "d": 243.90200000000186,
      "v": 100
    },
    {
      "midi": 60,
      "hit": false,
      "t": 122926.60800000055,
      "d": 121.95100000000093,
      "v": 100
    },
    {
      "midi": 60,
      "hit": false,
      "t": 122926.60800000066,
      "d": 121.95100000000093,
      "v": 100
    },
    {
      "midi": 33,
      "hit": false,
      "t": 122926.6080000007,
      "d": 1.0162583333294606,
      "v": 127
    },
    {
      "midi": 42,
      "hit": false,
      "t": 122926.6080000007,
      "d": 1.0162583333294606,
      "v": 100
    },
    {
      "midi": 57,
      "hit": false,
      "t": 122926.6080000007,
      "d": 1.0162583333294606,
      "v": 100
    },
    {
      "midi": 55,
      "hit": false,
      "t": 122926.60800000181,
      "d": 487.8040000000037,
      "v": 100
    },
    {
      "midi": 48,
      "hit": false,
      "t": 122926.60800000181,
      "d": 487.8040000000037,
      "v": 100
    },
    {
      "midi": 67,
      "hit": false,
      "t": 122926.60800003138,
      "d": 487.8040000002802,
      "v": 100
    },
    {
      "midi": 63,
      "hit": false,
      "t": 122926.60800003138,
      "d": 487.8040000002802,
      "v": 100
    },
    {
      "midi": 72,
      "hit": false,
      "t": 122926.60800003138,
      "d": 487.8040000002802,
      "v": 100
    },
    {
      "midi": 55,
      "hit": false,
      "t": 123048.55900000055,
      "d": 121.95100000000093,
      "v": 100
    },
    {
      "midi": 58,
      "hit": false,
      "t": 123048.55900000066,
      "d": 121.95100000000093,
      "v": 100
    },
    {
      "midi": 72,
      "hit": false,
      "t": 123170.51000000039,
      "d": 243.90200000000186,
      "v": 100
    },
    {
      "midi": 36,
      "hit": false,
      "t": 123170.51000000042,
      "d": 243.90200000000186,
      "v": 100
    },
    {
      "midi": 67,
      "hit": false,
      "t": 123170.51000000055,
      "d": 121.95100000000093,
      "v": 100
    },
    {
      "midi": 46,
      "hit": false,
      "t": 123170.51000000071,
      "d": 1.0162583333294606,
      "v": 100
    },
    {
      "midi": 60,
      "hit": false,
      "t": 123292.46100000055,
      "d": 121.95100000000093,
      "v": 100
    },
    {
      "midi": 60,
      "hit": false,
      "t": 123292.46100000067,
      "d": 121.95100000000093,
      "v": 100
    },
    {
      "midi": 44,
      "hit": false,
      "t": 123292.46100000071,
      "d": 1.0162583333294606,
      "v": 100
    },
    {
      "midi": 72,
      "hit": false,
      "t": 123414.41200000039,
      "d": 243.90200000000186,
      "v": 100
    },
    {
      "midi": 36,
      "hit": false,
      "t": 123414.41200000042,
      "d": 243.90200000000186,
      "v": 100
    },
    {
      "midi": 72,
      "hit": false,
      "t": 123414.41200000055,
      "d": 121.95100000000093,
      "v": 100
    },
    {
      "midi": 33,
      "hit": false,
      "t": 123414.41200000071,
      "d": 1.0162583333294606,
      "v": 127
    },
    {
      "midi": 40,
      "hit": false,
      "t": 123414.41200000071,
      "d": 1.0162583333294606,
      "v": 100
    },
    {
      "midi": 46,
      "hit": false,
      "t": 123414.41200000071,
      "d": 1.0162583333294606,
      "v": 100
    },
    {
      "midi": 48,
      "hit": false,
      "t": 123414.41200000182,
      "d": 243.90200000000186,
      "v": 100
    },
    {
      "midi": 67,
      "hit": false,
      "t": 123414.41200003166,
      "d": 60.975500000145985,
      "v": 100
    },
    {
      "midi": 63,
      "hit": false,
      "t": 123414.41200003166,
      "d": 60.975500000145985,
      "v": 100
    },
    {
      "midi": 72,
      "hit": false,
      "t": 123414.41200003166,
      "d": 60.975500000145985,
      "v": 100
    },
    {
      "midi": 55,
      "hit": false,
      "t": 123536.36300000055,
      "d": 121.95100000000093,
      "v": 100
    },
    {
      "midi": 55,
      "hit": false,
      "t": 123536.36300000067,
      "d": 121.95100000000093,
      "v": 100
    },
    {
      "midi": 44,
      "hit": false,
      "t": 123536.36300000071,
      "d": 1.0162583333294606,
      "v": 100
    },
    {
      "midi": 67,
      "hit": false,
      "t": 123536.36300003184,
      "d": 60.97550000001502,
      "v": 100
    },
    {
      "midi": 63,
      "hit": false,
      "t": 123536.36300003184,
      "d": 60.97550000001502,
      "v": 100
    },
    {
      "midi": 72,
      "hit": false,
      "t": 123536.36300003184,
      "d": 60.97550000001502,
      "v": 100
    },
    {
      "midi": 72,
      "hit": false,
      "t": 123658.31400000039,
      "d": 121.95100000000093,
      "v": 100
    },
    {
      "midi": 36,
      "hit": false,
      "t": 123658.31400000042,
      "d": 121.95100000000093,
      "v": 100
    },
    {
      "midi": 60,
      "hit": false,
      "t": 123658.31400000055,
      "d": 121.95100000000093,
      "v": 100
    },
    {
      "midi": 46,
      "hit": false,
      "t": 123658.31400000071,
      "d": 1.0162583333294606,
      "v": 100
    },
    {
      "midi": 48,
      "hit": false,
      "t": 123658.31400000182,
      "d": 121.95100000000093,
      "v": 100
    },
    {
      "midi": 67,
      "hit": false,
      "t": 123658.31400003198,
      "d": 60.975500000000466,
      "v": 100
    },
    {
      "midi": 63,
      "hit": false,
      "t": 123658.31400003198,
      "d": 60.975500000000466,
      "v": 100
    },
    {
      "midi": 72,
      "hit": false,
      "t": 123658.31400003198,
      "d": 60.975500000000466,
      "v": 100
    },
    {
      "midi": 72,
      "hit": false,
      "t": 123780.26500000039,
      "d": 243.90200000000186,
      "v": 100
    },
    {
      "midi": 36,
      "hit": false,
      "t": 123780.26500000042,
      "d": 243.90200000000186,
      "v": 100
    },
    {
      "midi": 67,
      "hit": false,
      "t": 123780.26500000055,
      "d": 121.95100000000093,
      "v": 100
    },
    {
      "midi": 55,
      "hit": false,
      "t": 123780.26500000067,
      "d": 121.95100000000093,
      "v": 100
    },
    {
      "midi": 44,
      "hit": false,
      "t": 123780.26500000071,
      "d": 1.0162583333294606,
      "v": 100
    },
    {
      "midi": 48,
      "hit": false,
      "t": 123780.26500000182,
      "d": 121.95100000000093,
      "v": 100
    },
    {
      "midi": 67,
      "hit": false,
      "t": 123780.26500003198,
      "d": 60.975500000000466,
      "v": 100
    },
    {
      "midi": 63,
      "hit": false,
      "t": 123780.26500003198,
      "d": 60.975500000000466,
      "v": 100
    },
    {
      "midi": 72,
      "hit": false,
      "t": 123780.26500003198,
      "d": 60.975500000000466,
      "v": 100
    },
    {
      "midi": 60,
      "hit": false,
      "t": 123902.21600000055,
      "d": 121.95100000000093,
      "v": 100
    },
    {
      "midi": 33,
      "hit": false,
      "t": 123902.21600000071,
      "d": 1.0162583333294606,
      "v": 127
    },
    {
      "midi": 42,
      "hit": false,
      "t": 123902.21600000071,
      "d": 1.0162583333294606,
      "v": 100
    },
    {
      "midi": 48,
      "hit": false,
      "t": 123902.21600000182,
      "d": 121.95100000000093,
      "v": 100
    },
    {
      "midi": 67,
      "hit": false,
      "t": 123902.21600003199,
      "d": 60.975500000145985,
      "v": 100
    },
    {
      "midi": 63,
      "hit": false,
      "t": 123902.21600003199,
      "d": 60.975500000145985,
      "v": 100
    },
    {
      "midi": 72,
      "hit": false,
      "t": 123902.21600003199,
      "d": 60.975500000145985,
      "v": 100
    },
    {
      "midi": 72,
      "hit": false,
      "t": 124024.1670000004,
      "d": 121.95100000000093,
      "v": 100
    },
    {
      "midi": 36,
      "hit": false,
      "t": 124024.16700000042,
      "d": 121.95100000000093,
      "v": 100
    },
    {
      "midi": 55,
      "hit": false,
      "t": 124024.16700000055,
      "d": 121.95100000000093,
      "v": 100
    },
    {
      "midi": 55,
      "hit": false,
      "t": 124024.16700000067,
      "d": 121.95100000000093,
      "v": 100
    },
    {
      "midi": 48,
      "hit": false,
      "t": 124024.16700000182,
      "d": 121.95100000000093,
      "v": 100
    },
    {
      "midi": 67,
      "hit": false,
      "t": 124024.16700003216,
      "d": 60.97550000001502,
      "v": 100
    },
    {
      "midi": 63,
      "hit": false,
      "t": 124024.16700003216,
      "d": 60.97550000001502,
      "v": 100
    },
    {
      "midi": 72,
      "hit": false,
      "t": 124024.16700003216,
      "d": 60.97550000001502,
      "v": 100
    },
    {
      "midi": 72,
      "hit": false,
      "t": 124146.1180000004,
      "d": 243.90200000000186,
      "v": 100
    },
    {
      "midi": 36,
      "hit": false,
      "t": 124146.11800000042,
      "d": 243.90200000000186,
      "v": 100
    },
    {
      "midi": 72,
      "hit": false,
      "t": 124146.11800000056,
      "d": 121.95100000000093,
      "v": 100
    },
    {
      "midi": 58,
      "hit": false,
      "t": 124146.11800000067,
      "d": 121.95100000000093,
      "v": 100
    },
    {
      "midi": 46,
      "hit": false,
      "t": 124146.11800000072,
      "d": 1.0162583333294606,
      "v": 100
    },
    {
      "midi": 48,
      "hit": false,
      "t": 124146.11800000182,
      "d": 243.90200000000186,
      "v": 100
    },
    {
      "midi": 67,
      "hit": false,
      "t": 124146.11800003231,
      "d": 60.975500000000466,
      "v": 100
    },
    {
      "midi": 63,
      "hit": false,
      "t": 124146.11800003231,
      "d": 60.975500000000466,
      "v": 100
    },
    {
      "midi": 72,
      "hit": false,
      "t": 124146.11800003231,
      "d": 60.975500000000466,
      "v": 100
    },
    {
      "midi": 60,
      "hit": false,
      "t": 124268.06900000056,
      "d": 121.95100000000093,
      "v": 100
    },
    {
      "midi": 44,
      "hit": false,
      "t": 124268.06900000072,
      "d": 1.0162583333294606,
      "v": 100
    },
    {
      "midi": 67,
      "hit": false,
      "t": 124268.06900003231,
      "d": 60.975500000000466,
      "v": 100
    },
    {
      "midi": 63,
      "hit": false,
      "t": 124268.06900003231,
      "d": 60.975500000000466,
      "v": 100
    },
    {
      "midi": 72,
      "hit": false,
      "t": 124268.06900003231,
      "d": 60.975500000000466,
      "v": 100
    },
    {
      "midi": 72,
      "hit": false,
      "t": 124390.02000000027,
      "d": 487.8040000000037,
      "v": 100
    },
    {
      "midi": 67,
      "hit": false,
      "t": 124390.02000000027,
      "d": 487.8040000000037,
      "v": 100
    },
    {
      "midi": 63,
      "hit": false,
      "t": 124390.02000000027,
      "d": 487.8040000000037,
      "v": 100
    },
    {
      "midi": 72,
      "hit": false,
      "t": 124390.0200000004,
      "d": 365.8530000000028,
      "v": 100
    },
    {
      "midi": 36,
      "hit": false,
      "t": 124390.02000000043,
      "d": 243.90200000000186,
      "v": 100
    },
    {
      "midi": 72,
      "hit": false,
      "t": 124390.02000000056,
      "d": 121.95100000000093,
      "v": 100
    },
    {
      "midi": 60,
      "hit": false,
      "t": 124390.02000000067,
      "d": 121.95100000000093,
      "v": 100
    },
    {
      "midi": 33,
      "hit": false,
      "t": 124390.02000000072,
      "d": 1.0162583333294606,
      "v": 127
    },
    {
      "midi": 40,
      "hit": false,
      "t": 124390.02000000072,
      "d": 1.0162583333294606,
      "v": 100
    },
    {
      "midi": 46,
      "hit": false,
      "t": 124390.02000000072,
      "d": 1.0162583333294606,
      "v": 100
    },
    {
      "midi": 48,
      "hit": false,
      "t": 124390.02000000182,
      "d": 243.90200000000186,
      "v": 100
    },
    {
      "midi": 55,
      "hit": false,
      "t": 124390.02000000182,
      "d": 243.90200000000186,
      "v": 100
    },
    {
      "midi": 67,
      "hit": false,
      "t": 124390.02000003231,
      "d": 60.975500000145985,
      "v": 100
    },
    {
      "midi": 63,
      "hit": false,
      "t": 124390.02000003231,
      "d": 60.975500000145985,
      "v": 100
    },
    {
      "midi": 72,
      "hit": false,
      "t": 124390.02000003231,
      "d": 60.975500000145985,
      "v": 100
    },
    {
      "midi": 60,
      "hit": false,
      "t": 124511.97100000056,
      "d": 121.95100000000093,
      "v": 100
    },
    {
      "midi": 44,
      "hit": false,
      "t": 124511.97100000072,
      "d": 1.0162583333294606,
      "v": 100
    },
    {
      "midi": 67,
      "hit": false,
      "t": 124511.97100003248,
      "d": 60.97550000001502,
      "v": 100
    },
    {
      "midi": 63,
      "hit": false,
      "t": 124511.97100003248,
      "d": 60.97550000001502,
      "v": 100
    },
    {
      "midi": 72,
      "hit": false,
      "t": 124511.97100003248,
      "d": 60.97550000001502,
      "v": 100
    },
    {
      "midi": 36,
      "hit": false,
      "t": 124633.92200000043,
      "d": 243.90200000000186,
      "v": 100
    },
    {
      "midi": 67,
      "hit": false,
      "t": 124633.92200000056,
      "d": 121.95100000000093,
      "v": 100
    },
    {
      "midi": 46,
      "hit": false,
      "t": 124633.92200000072,
      "d": 1.0162583333294606,
      "v": 100
    },
    {
      "midi": 48,
      "hit": false,
      "t": 124633.92200000182,
      "d": 121.95100000000093,
      "v": 100
    },
    {
      "midi": 67,
      "hit": false,
      "t": 124633.92200003263,
      "d": 60.975500000000466,
      "v": 100
    },
    {
      "midi": 63,
      "hit": false,
      "t": 124633.92200003263,
      "d": 60.975500000000466,
      "v": 100
    },
    {
      "midi": 72,
      "hit": false,
      "t": 124633.92200003263,
      "d": 60.975500000000466,
      "v": 100
    },
    {
      "midi": 60,
      "hit": false,
      "t": 124755.87300000056,
      "d": 121.95100000000093,
      "v": 100
    },
    {
      "midi": 44,
      "hit": false,
      "t": 124755.87300000072,
      "d": 1.0162583333294606,
      "v": 100
    },
    {
      "midi": 48,
      "hit": false,
      "t": 124755.87300000183,
      "d": 121.95100000000093,
      "v": 100
    },
    {
      "midi": 67,
      "hit": false,
      "t": 124755.87300003263,
      "d": 60.975500000000466,
      "v": 100
    },
    {
      "midi": 63,
      "hit": false,
      "t": 124755.87300003263,
      "d": 60.975500000000466,
      "v": 100
    },
    {
      "midi": 72,
      "hit": false,
      "t": 124755.87300003263,
      "d": 60.975500000000466,
      "v": 100
    },
    {
      "midi": 75,
      "hit": false,
      "t": 124877.82400000027,
      "d": 487.8040000000037,
      "v": 100
    },
    {
      "midi": 70,
      "hit": false,
      "t": 124877.82400000027,
      "d": 487.8040000000037,
      "v": 100
    },
    {
      "midi": 67,
      "hit": false,
      "t": 124877.82400000027,
      "d": 487.8040000000037,
      "v": 100
    },
    {
      "midi": 75,
      "hit": false,
      "t": 124877.8240000004,
      "d": 243.90200000000186,
      "v": 100
    },
    {
      "midi": 39,
      "hit": false,
      "t": 124877.82400000043,
      "d": 243.90200000000186,
      "v": 100
    },
    {
      "midi": 63,
      "hit": false,
      "t": 124877.82400000056,
      "d": 121.95100000000093,
      "v": 100
    },
    {
      "midi": 60,
      "hit": false,
      "t": 124877.82400000068,
      "d": 121.95100000000093,
      "v": 100
    },
    {
      "midi": 33,
      "hit": false,
      "t": 124877.82400000072,
      "d": 1.0162583333294606,
      "v": 127
    },
    {
      "midi": 42,
      "hit": false,
      "t": 124877.82400000072,
      "d": 1.0162583333294606,
      "v": 100
    },
    {
      "midi": 51,
      "hit": false,
      "t": 124877.82400000183,
      "d": 243.90200000000186,
      "v": 100
    },
    {
      "midi": 70,
      "hit": false,
      "t": 124877.82400003263,
      "d": 60.975500000145985,
      "v": 100
    },
    {
      "midi": 75,
      "hit": false,
      "t": 124877.82400003263,
      "d": 60.975500000145985,
      "v": 100
    },
    {
      "midi": 67,
      "hit": false,
      "t": 124877.82400003263,
      "d": 60.975500000145985,
      "v": 100
    },
    {
      "midi": 55,
      "hit": false,
      "t": 124999.77500000056,
      "d": 121.95100000000093,
      "v": 100
    },
    {
      "midi": 58,
      "hit": false,
      "t": 124999.77500000068,
      "d": 121.95100000000093,
      "v": 100
    },
    {
      "midi": 70,
      "hit": false,
      "t": 124999.77500003281,
      "d": 60.97550000001502,
      "v": 100
    },
    {
      "midi": 75,
      "hit": false,
      "t": 124999.77500003281,
      "d": 60.97550000001502,
      "v": 100
    },
    {
      "midi": 67,
      "hit": false,
      "t": 124999.77500003281,
      "d": 60.97550000001502,
      "v": 100
    },
    {
      "midi": 75,
      "hit": false,
      "t": 125121.7260000004,
      "d": 243.90200000000186,
      "v": 100
    },
    {
      "midi": 39,
      "hit": false,
      "t": 125121.72600000043,
      "d": 243.90200000000186,
      "v": 100
    },
    {
      "midi": 67,
      "hit": false,
      "t": 125121.72600000056,
      "d": 121.95100000000093,
      "v": 100
    },
    {
      "midi": 46,
      "hit": false,
      "t": 125121.72600000072,
      "d": 1.0162583333294606,
      "v": 100
    },
    {
      "midi": 51,
      "hit": false,
      "t": 125121.72600000183,
      "d": 243.90200000000186,
      "v": 100
    },
    {
      "midi": 70,
      "hit": false,
      "t": 125121.72600003296,
      "d": 60.975500000000466,
      "v": 100
    },
    {
      "midi": 75,
      "hit": false,
      "t": 125121.72600003296,
      "d": 60.975500000000466,
      "v": 100
    },
    {
      "midi": 67,
      "hit": false,
      "t": 125121.72600003296,
      "d": 60.975500000000466,
      "v": 100
    },
    {
      "midi": 70,
      "hit": false,
      "t": 125243.67700000056,
      "d": 121.95100000000093,
      "v": 100
    },
    {
      "midi": 60,
      "hit": false,
      "t": 125243.67700000068,
      "d": 121.95100000000093,
      "v": 100
    },
    {
      "midi": 44,
      "hit": false,
      "t": 125243.67700000072,
      "d": 1.0162583333294606,
      "v": 100
    },
    {
      "midi": 70,
      "hit": false,
      "t": 125243.67700003296,
      "d": 60.975500000000466,
      "v": 100
    },
    {
      "midi": 75,
      "hit": false,
      "t": 125243.67700003296,
      "d": 60.975500000000466,
      "v": 100
    },
    {
      "midi": 67,
      "hit": false,
      "t": 125243.67700003296,
      "d": 60.975500000000466,
      "v": 100
    },
    {
      "midi": 75,
      "hit": false,
      "t": 125365.6280000004,
      "d": 243.90200000000186,
      "v": 100
    },
    {
      "midi": 39,
      "hit": false,
      "t": 125365.62800000043,
      "d": 243.90200000000186,
      "v": 100
    },
    {
      "midi": 67,
      "hit": false,
      "t": 125365.62800000056,
      "d": 121.95100000000093,
      "v": 100
    },
    {
      "midi": 33,
      "hit": false,
      "t": 125365.62800000072,
      "d": 1.0162583333294606,
      "v": 127
    },
    {
      "midi": 40,
      "hit": false,
      "t": 125365.62800000072,
      "d": 1.0162583333294606,
      "v": 100
    },
    {
      "midi": 46,
      "hit": false,
      "t": 125365.62800000072,
      "d": 1.0162583333294606,
      "v": 100
    },
    {
      "midi": 51,
      "hit": false,
      "t": 125365.62800000183,
      "d": 243.90200000000186,
      "v": 100
    },
    {
      "midi": 58,
      "hit": false,
      "t": 125365.62800000183,
      "d": 243.90200000000186,
      "v": 100
    },
    {
      "midi": 70,
      "hit": false,
      "t": 125365.62800003296,
      "d": 60.975500000145985,
      "v": 100
    },
    {
      "midi": 75,
      "hit": false,
      "t": 125365.62800003296,
      "d": 60.975500000145985,
      "v": 100
    },
    {
      "midi": 67,
      "hit": false,
      "t": 125365.62800003296,
      "d": 60.975500000145985,
      "v": 100
    },
    {
      "midi": 58,
      "hit": false,
      "t": 125487.57900000057,
      "d": 121.95100000000093,
      "v": 100
    },
    {
      "midi": 55,
      "hit": false,
      "t": 125487.57900000068,
      "d": 121.95100000000093,
      "v": 100
    },
    {
      "midi": 44,
      "hit": false,
      "t": 125487.57900000073,
      "d": 1.0162583333294606,
      "v": 100
    },
    {
      "midi": 70,
      "hit": false,
      "t": 125487.57900003313,
      "d": 60.97550000001502,
      "v": 100
    },
    {
      "midi": 75,
      "hit": false,
      "t": 125487.57900003313,
      "d": 60.97550000001502,
      "v": 100
    },
    {
      "midi": 67,
      "hit": false,
      "t": 125487.57900003313,
      "d": 60.97550000001502,
      "v": 100
    },
    {
      "midi": 75,
      "hit": false,
      "t": 125609.5300000004,
      "d": 121.95100000000093,
      "v": 100
    },
    {
      "midi": 39,
      "hit": false,
      "t": 125609.53000000044,
      "d": 121.95100000000093,
      "v": 100
    },
    {
      "midi": 70,
      "hit": false,
      "t": 125609.53000000057,
      "d": 121.95100000000093,
      "v": 100
    },
    {
      "midi": 46,
      "hit": false,
      "t": 125609.53000000073,
      "d": 1.0162583333294606,
      "v": 100
    },
    {
      "midi": 51,
      "hit": false,
      "t": 125609.53000000183,
      "d": 121.95100000000093,
      "v": 100
    },
    {
      "midi": 70,
      "hit": false,
      "t": 125609.53000003328,
      "d": 60.975500000000466,
      "v": 100
    },
    {
      "midi": 75,
      "hit": false,
      "t": 125609.53000003328,
      "d": 60.975500000000466,
      "v": 100
    },
    {
      "midi": 67,
      "hit": false,
      "t": 125609.53000003328,
      "d": 60.975500000000466,
      "v": 100
    },
    {
      "midi": 77,
      "hit": false,
      "t": 125731.4810000004,
      "d": 243.90200000000186,
      "v": 100
    },
    {
      "midi": 41,
      "hit": false,
      "t": 125731.48100000044,
      "d": 243.90200000000186,
      "v": 100
    },
    {
      "midi": 41,
      "hit": false,
      "t": 125731.48100000052,
      "d": 1.0162583333294606,
      "v": 80
    },
    {
      "midi": 67,
      "hit": false,
      "t": 125731.48100000057,
      "d": 121.95100000000093,
      "v": 100
    },
    {
      "midi": 55,
      "hit": false,
      "t": 125731.48100000068,
      "d": 121.95100000000093,
      "v": 100
    },
    {
      "midi": 44,
      "hit": false,
      "t": 125731.48100000073,
      "d": 1.0162583333294606,
      "v": 100
    },
    {
      "midi": 53,
      "hit": false,
      "t": 125731.48100000183,
      "d": 243.90200000000186,
      "v": 100
    },
    {
      "midi": 60,
      "hit": false,
      "t": 125731.48100000183,
      "d": 243.90200000000186,
      "v": 100
    },
    {
      "midi": 70,
      "hit": false,
      "t": 125731.48100003328,
      "d": 60.975500000000466,
      "v": 100
    },
    {
      "midi": 75,
      "hit": false,
      "t": 125731.48100003328,
      "d": 60.975500000000466,
      "v": 100
    },
    {
      "midi": 67,
      "hit": false,
      "t": 125731.48100003328,
      "d": 60.975500000000466,
      "v": 100
    },
    {
      "midi": 77,
      "hit": false,
      "t": 125853.43200000028,
      "d": 487.8040000000037,
      "v": 100
    },
    {
      "midi": 74,
      "hit": false,
      "t": 125853.43200000028,
      "d": 487.8040000000037,
      "v": 100
    },
    {
      "midi": 70,
      "hit": false,
      "t": 125853.43200000028,
      "d": 487.8040000000037,
      "v": 100
    },
    {
      "midi": 65,
      "hit": false,
      "t": 125853.43200000057,
      "d": 121.95100000000093,
      "v": 100
    },
    {
      "midi": 33,
      "hit": false,
      "t": 125853.43200000073,
      "d": 1.0162583333294606,
      "v": 127
    },
    {
      "midi": 42,
      "hit": false,
      "t": 125853.43200000073,
      "d": 1.0162583333294606,
      "v": 100
    },
    {
      "midi": 72,
      "hit": false,
      "t": 125853.43200003328,
      "d": 60.975500000145985,
      "v": 100
    },
    {
      "midi": 77,
      "hit": false,
      "t": 125853.43200003328,
      "d": 60.975500000145985,
      "v": 100
    },
    {
      "midi": 69,
      "hit": false,
      "t": 125853.43200003328,
      "d": 60.975500000145985,
      "v": 100
    },
    {
      "midi": 77,
      "hit": false,
      "t": 125975.38300000041,
      "d": 121.95100000000093,
      "v": 100
    },
    {
      "midi": 41,
      "hit": false,
      "t": 125975.38300000044,
      "d": 121.95100000000093,
      "v": 100
    },
    {
      "midi": 41,
      "hit": false,
      "t": 125975.38300000053,
      "d": 1.0162583333294606,
      "v": 80
    },
    {
      "midi": 70,
      "hit": false,
      "t": 125975.38300000057,
      "d": 121.95100000000093,
      "v": 100
    },
    {
      "midi": 55,
      "hit": false,
      "t": 125975.38300000069,
      "d": 121.95100000000093,
      "v": 100
    },
    {
      "midi": 53,
      "hit": false,
      "t": 125975.38300000184,
      "d": 121.95100000000093,
      "v": 100
    },
    {
      "midi": 72,
      "hit": false,
      "t": 125975.38300003346,
      "d": 60.97550000001502,
      "v": 100
    },
    {
      "midi": 77,
      "hit": false,
      "t": 125975.38300003346,
      "d": 60.97550000001502,
      "v": 100
    },
    {
      "midi": 69,
      "hit": false,
      "t": 125975.38300003346,
      "d": 60.97550000001502,
      "v": 100
    },
    {
      "midi": 77,
      "hit": false,
      "t": 126097.33400000041,
      "d": 121.95100000000093,
      "v": 100
    },
    {
      "midi": 41,
      "hit": false,
      "t": 126097.33400000044,
      "d": 243.90200000000186,
      "v": 100
    },
    {
      "midi": 74,
      "hit": false,
      "t": 126097.33400000057,
      "d": 121.95100000000093,
      "v": 100
    },
    {
      "midi": 58,
      "hit": false,
      "t": 126097.33400000069,
      "d": 121.95100000000093,
      "v": 100
    },
    {
      "midi": 46,
      "hit": false,
      "t": 126097.33400000073,
      "d": 1.0162583333294606,
      "v": 100
    },
    {
      "midi": 53,
      "hit": false,
      "t": 126097.33400000184,
      "d": 243.90200000000186,
      "v": 100
    },
    {
      "midi": 60,
      "hit": false,
      "t": 126097.33400000184,
      "d": 243.90200000000186,
      "v": 100
    },
    {
      "midi": 72,
      "hit": false,
      "t": 126097.3340000336,
      "d": 60.975500000000466,
      "v": 100
    },
    {
      "midi": 77,
      "hit": false,
      "t": 126097.3340000336,
      "d": 60.975500000000466,
      "v": 100
    },
    {
      "midi": 69,
      "hit": false,
      "t": 126097.3340000336,
      "d": 60.975500000000466,
      "v": 100
    },
    {
      "midi": 77,
      "hit": false,
      "t": 126219.28500000057,
      "d": 121.95100000000093,
      "v": 100
    },
    {
      "midi": 44,
      "hit": false,
      "t": 126219.28500000073,
      "d": 1.0162583333294606,
      "v": 100
    },
    {
      "midi": 72,
      "hit": false,
      "t": 126219.2850000336,
      "d": 60.975500000000466,
      "v": 100
    },
    {
      "midi": 77,
      "hit": false,
      "t": 126219.2850000336,
      "d": 60.975500000000466,
      "v": 100
    },
    {
      "midi": 69,
      "hit": false,
      "t": 126219.2850000336,
      "d": 60.975500000000466,
      "v": 100
    },
    {
      "midi": 77,
      "hit": false,
      "t": 126341.23600000041,
      "d": 365.8530000000028,
      "v": 100
    },
    {
      "midi": 41,
      "hit": false,
      "t": 126341.23600000044,
      "d": 243.90200000000186,
      "v": 100
    },
    {
      "midi": 65,
      "hit": false,
      "t": 126341.23600000057,
      "d": 121.95100000000093,
      "v": 100
    },
    {
      "midi": 60,
      "hit": false,
      "t": 126341.23600000069,
      "d": 121.95100000000093,
      "v": 100
    },
    {
      "midi": 33,
      "hit": false,
      "t": 126341.23600000073,
      "d": 1.0162583333294606,
      "v": 127
    },
    {
      "midi": 40,
      "hit": false,
      "t": 126341.23600000073,
      "d": 1.0162583333294606,
      "v": 100
    },
    {
      "midi": 46,
      "hit": false,
      "t": 126341.23600000073,
      "d": 1.0162583333294606,
      "v": 100
    },
    {
      "midi": 53,
      "hit": false,
      "t": 126341.23600000184,
      "d": 487.8040000001638,
      "v": 100
    },
    {
      "midi": 60,
      "hit": false,
      "t": 126341.23600000184,
      "d": 487.8040000001638,
      "v": 100
    },
    {
      "midi": 72,
      "hit": false,
      "t": 126341.2360000336,
      "d": 243.9020000002929,
      "v": 100
    },
    {
      "midi": 77,
      "hit": false,
      "t": 126341.2360000336,
      "d": 243.9020000002929,
      "v": 100
    },
    {
      "midi": 69,
      "hit": false,
      "t": 126341.2360000336,
      "d": 243.9020000002929,
      "v": 100
    },
    {
      "midi": 70,
      "hit": false,
      "t": 126463.18700000057,
      "d": 121.95100000000093,
      "v": 100
    },
    {
      "midi": 44,
      "hit": false,
      "t": 126463.18700000073,
      "d": 1.0162583333294606,
      "v": 100
    },
    {
      "midi": 41,
      "hit": false,
      "t": 126585.13800000044,
      "d": 243.90200000000186,
      "v": 100
    },
    {
      "midi": 74,
      "hit": false,
      "t": 126585.13800000057,
      "d": 121.95100000000093,
      "v": 100
    },
    {
      "midi": 40,
      "hit": false,
      "t": 126585.13800000073,
      "d": 1.0162583333294606,
      "v": 40
    },
    {
      "midi": 46,
      "hit": false,
      "t": 126585.13800000073,
      "d": 1.0162583333294606,
      "v": 100
    },
    {
      "midi": 72,
      "hit": false,
      "t": 126585.1380000339,
      "d": 60.975500000000466,
      "v": 100
    },
    {
      "midi": 77,
      "hit": false,
      "t": 126585.1380000339,
      "d": 60.975500000000466,
      "v": 100
    },
    {
      "midi": 69,
      "hit": false,
      "t": 126585.1380000339,
      "d": 60.975500000000466,
      "v": 100
    },
    {
      "midi": 77,
      "hit": false,
      "t": 126707.08900000057,
      "d": 121.95100000000093,
      "v": 100
    },
    {
      "midi": 40,
      "hit": false,
      "t": 126707.08900000073,
      "d": 1.0162583333294606,
      "v": 100
    },
    {
      "midi": 44,
      "hit": false,
      "t": 126707.08900000073,
      "d": 1.0162583333294606,
      "v": 100
    },
    {
      "midi": 72,
      "hit": false,
      "t": 126707.0890000339,
      "d": 60.975500000000466,
      "v": 100
    },
    {
      "midi": 77,
      "hit": false,
      "t": 126707.0890000339,
      "d": 60.975500000000466,
      "v": 100
    },
    {
      "midi": 69,
      "hit": false,
      "t": 126707.0890000339,
      "d": 60.975500000000466,
      "v": 100
    },
    {
      "midi": 72,
      "hit": false,
      "t": 126829.04000000028,
      "d": 487.8040000000037,
      "v": 100
    },
    {
      "midi": 67,
      "hit": false,
      "t": 126829.04000000028,
      "d": 487.8040000000037,
      "v": 100
    },
    {
      "midi": 63,
      "hit": false,
      "t": 126829.04000000028,
      "d": 487.8040000000037,
      "v": 100
    },
    {
      "midi": 72,
      "hit": false,
      "t": 126829.04000000042,
      "d": 243.90200000000186,
      "v": 100
    },
    {
      "midi": 36,
      "hit": false,
      "t": 126829.04000000044,
      "d": 243.90200000000186,
      "v": 100
    },
    {
      "midi": 60,
      "hit": false,
      "t": 126829.04000000058,
      "d": 121.95100000000093,
      "v": 100
    },
    {
      "midi": 60,
      "hit": false,
      "t": 126829.04000000069,
      "d": 121.95100000000093,
      "v": 100
    },
    {
      "midi": 33,
      "hit": false,
      "t": 126829.04000000074,
      "d": 1.0162583333294606,
      "v": 127
    },
    {
      "midi": 42,
      "hit": false,
      "t": 126829.04000000074,
      "d": 1.0162583333294606,
      "v": 100
    },
    {
      "midi": 57,
      "hit": false,
      "t": 126829.04000000074,
      "d": 1.0162583333294606,
      "v": 100
    },
    {
      "midi": 55,
      "hit": false,
      "t": 126829.040000002,
      "d": 487.8040000000037,
      "v": 100
    },
    {
      "midi": 48,
      "hit": false,
      "t": 126829.040000002,
      "d": 487.8040000000037,
      "v": 100
    },
    {
      "midi": 67,
      "hit": false,
      "t": 126829.0400000339,
      "d": 487.8040000002802,
      "v": 100
    },
    {
      "midi": 63,
      "hit": false,
      "t": 126829.0400000339,
      "d": 487.8040000002802,
      "v": 100
    },
    {
      "midi": 72,
      "hit": false,
      "t": 126829.0400000339,
      "d": 487.8040000002802,
      "v": 100
    },
    {
      "midi": 55,
      "hit": false,
      "t": 126950.99100000058,
      "d": 121.95100000000093,
      "v": 100
    },
    {
      "midi": 58,
      "hit": false,
      "t": 126950.9910000007,
      "d": 121.95100000000093,
      "v": 100
    },
    {
      "midi": 72,
      "hit": false,
      "t": 127072.94200000042,
      "d": 243.90200000000186,
      "v": 100
    },
    {
      "midi": 36,
      "hit": false,
      "t": 127072.94200000045,
      "d": 243.90200000000186,
      "v": 100
    },
    {
      "midi": 67,
      "hit": false,
      "t": 127072.94200000058,
      "d": 121.95100000000093,
      "v": 100
    },
    {
      "midi": 46,
      "hit": false,
      "t": 127072.94200000074,
      "d": 1.0162583333294606,
      "v": 100
    },
    {
      "midi": 60,
      "hit": false,
      "t": 127194.89300000058,
      "d": 121.95100000000093,
      "v": 100
    },
    {
      "midi": 60,
      "hit": false,
      "t": 127194.8930000007,
      "d": 121.95100000000093,
      "v": 100
    },
    {
      "midi": 44,
      "hit": false,
      "t": 127194.89300000074,
      "d": 1.0162583333294606,
      "v": 100
    },
    {
      "midi": 72,
      "hit": false,
      "t": 127316.84400000042,
      "d": 243.90200000000186,
      "v": 100
    },
    {
      "midi": 36,
      "hit": false,
      "t": 127316.84400000045,
      "d": 243.90200000000186,
      "v": 100
    },
    {
      "midi": 72,
      "hit": false,
      "t": 127316.84400000058,
      "d": 121.95100000000093,
      "v": 100
    },
    {
      "midi": 33,
      "hit": false,
      "t": 127316.84400000074,
      "d": 1.0162583333294606,
      "v": 127
    },
    {
      "midi": 40,
      "hit": false,
      "t": 127316.84400000074,
      "d": 1.0162583333294606,
      "v": 100
    },
    {
      "midi": 46,
      "hit": false,
      "t": 127316.84400000074,
      "d": 1.0162583333294606,
      "v": 100
    },
    {
      "midi": 48,
      "hit": false,
      "t": 127316.844000002,
      "d": 243.90200000000186,
      "v": 100
    },
    {
      "midi": 67,
      "hit": false,
      "t": 127316.84400003418,
      "d": 60.975500000145985,
      "v": 100
    },
    {
      "midi": 63,
      "hit": false,
      "t": 127316.84400003418,
      "d": 60.975500000145985,
      "v": 100
    },
    {
      "midi": 72,
      "hit": false,
      "t": 127316.84400003418,
      "d": 60.975500000145985,
      "v": 100
    },
    {
      "midi": 55,
      "hit": false,
      "t": 127438.79500000058,
      "d": 121.95100000000093,
      "v": 100
    },
    {
      "midi": 55,
      "hit": false,
      "t": 127438.7950000007,
      "d": 121.95100000000093,
      "v": 100
    },
    {
      "midi": 44,
      "hit": false,
      "t": 127438.79500000074,
      "d": 1.0162583333294606,
      "v": 100
    },
    {
      "midi": 67,
      "hit": false,
      "t": 127438.79500003436,
      "d": 60.97550000001502,
      "v": 100
    },
    {
      "midi": 63,
      "hit": false,
      "t": 127438.79500003436,
      "d": 60.97550000001502,
      "v": 100
    },
    {
      "midi": 72,
      "hit": false,
      "t": 127438.79500003436,
      "d": 60.97550000001502,
      "v": 100
    },
    {
      "midi": 72,
      "hit": false,
      "t": 127560.74600000042,
      "d": 121.95100000000093,
      "v": 100
    },
    {
      "midi": 36,
      "hit": false,
      "t": 127560.74600000045,
      "d": 121.95100000000093,
      "v": 100
    },
    {
      "midi": 60,
      "hit": false,
      "t": 127560.74600000058,
      "d": 121.95100000000093,
      "v": 100
    },
    {
      "midi": 46,
      "hit": false,
      "t": 127560.74600000074,
      "d": 1.0162583333294606,
      "v": 100
    },
    {
      "midi": 48,
      "hit": false,
      "t": 127560.74600000201,
      "d": 121.95100000000093,
      "v": 100
    },
    {
      "midi": 67,
      "hit": false,
      "t": 127560.7460000345,
      "d": 60.975500000000466,
      "v": 100
    },
    {
      "midi": 63,
      "hit": false,
      "t": 127560.7460000345,
      "d": 60.975500000000466,
      "v": 100
    },
    {
      "midi": 72,
      "hit": false,
      "t": 127560.7460000345,
      "d": 60.975500000000466,
      "v": 100
    },
    {
      "midi": 72,
      "hit": false,
      "t": 127682.69700000042,
      "d": 243.90200000000186,
      "v": 100
    },
    {
      "midi": 36,
      "hit": false,
      "t": 127682.69700000045,
      "d": 243.90200000000186,
      "v": 100
    },
    {
      "midi": 41,
      "hit": false,
      "t": 127682.69700000052,
      "d": 1.0162583333294606,
      "v": 100
    },
    {
      "midi": 67,
      "hit": false,
      "t": 127682.69700000058,
      "d": 121.95100000000093,
      "v": 100
    },
    {
      "midi": 55,
      "hit": false,
      "t": 127682.6970000007,
      "d": 121.95100000000093,
      "v": 100
    },
    {
      "midi": 44,
      "hit": false,
      "t": 127682.69700000074,
      "d": 1.0162583333294606,
      "v": 100
    },
    {
      "midi": 48,
      "hit": false,
      "t": 127682.69700000201,
      "d": 121.95100000000093,
      "v": 100
    },
    {
      "midi": 67,
      "hit": false,
      "t": 127682.6970000345,
      "d": 60.975500000000466,
      "v": 100
    },
    {
      "midi": 63,
      "hit": false,
      "t": 127682.6970000345,
      "d": 60.975500000000466,
      "v": 100
    },
    {
      "midi": 72,
      "hit": false,
      "t": 127682.6970000345,
      "d": 60.975500000000466,
      "v": 100
    },
    {
      "midi": 60,
      "hit": false,
      "t": 127804.64800000058,
      "d": 121.95100000000093,
      "v": 100
    },
    {
      "midi": 33,
      "hit": false,
      "t": 127804.64800000074,
      "d": 1.0162583333294606,
      "v": 127
    },
    {
      "midi": 42,
      "hit": false,
      "t": 127804.64800000074,
      "d": 1.0162583333294606,
      "v": 100
    },
    {
      "midi": 48,
      "hit": false,
      "t": 127804.64800000201,
      "d": 121.95100000000093,
      "v": 100
    },
    {
      "midi": 67,
      "hit": false,
      "t": 127804.6480000345,
      "d": 60.975500000145985,
      "v": 100
    },
    {
      "midi": 63,
      "hit": false,
      "t": 127804.6480000345,
      "d": 60.975500000145985,
      "v": 100
    },
    {
      "midi": 72,
      "hit": false,
      "t": 127804.6480000345,
      "d": 60.975500000145985,
      "v": 100
    },
    {
      "midi": 72,
      "hit": false,
      "t": 127926.59900000042,
      "d": 121.95100000000093,
      "v": 100
    },
    {
      "midi": 36,
      "hit": false,
      "t": 127926.59900000045,
      "d": 121.95100000000093,
      "v": 100
    },
    {
      "midi": 55,
      "hit": false,
      "t": 127926.59900000058,
      "d": 121.95100000000093,
      "v": 100
    },
    {
      "midi": 55,
      "hit": false,
      "t": 127926.5990000007,
      "d": 121.95100000000093,
      "v": 100
    },
    {
      "midi": 48,
      "hit": false,
      "t": 127926.59900000201,
      "d": 121.95100000000093,
      "v": 100
    },
    {
      "midi": 67,
      "hit": false,
      "t": 127926.59900003468,
      "d": 60.97550000001502,
      "v": 100
    },
    {
      "midi": 63,
      "hit": false,
      "t": 127926.59900003468,
      "d": 60.97550000001502,
      "v": 100
    },
    {
      "midi": 72,
      "hit": false,
      "t": 127926.59900003468,
      "d": 60.97550000001502,
      "v": 100
    },
    {
      "midi": 72,
      "hit": false,
      "t": 128048.55000000042,
      "d": 243.90200000000186,
      "v": 100
    },
    {
      "midi": 36,
      "hit": false,
      "t": 128048.55000000045,
      "d": 243.90200000000186,
      "v": 100
    },
    {
      "midi": 72,
      "hit": false,
      "t": 128048.55000000058,
      "d": 121.95100000000093,
      "v": 100
    },
    {
      "midi": 58,
      "hit": false,
      "t": 128048.5500000007,
      "d": 121.95100000000093,
      "v": 100
    },
    {
      "midi": 46,
      "hit": false,
      "t": 128048.55000000075,
      "d": 1.0162583333294606,
      "v": 100
    },
    {
      "midi": 48,
      "hit": false,
      "t": 128048.55000000201,
      "d": 243.90200000000186,
      "v": 100
    },
    {
      "midi": 67,
      "hit": false,
      "t": 128048.55000003483,
      "d": 60.975500000000466,
      "v": 100
    },
    {
      "midi": 63,
      "hit": false,
      "t": 128048.55000003483,
      "d": 60.975500000000466,
      "v": 100
    },
    {
      "midi": 72,
      "hit": false,
      "t": 128048.55000003483,
      "d": 60.975500000000466,
      "v": 100
    },
    {
      "midi": 60,
      "hit": false,
      "t": 128170.50100000059,
      "d": 121.95100000000093,
      "v": 100
    },
    {
      "midi": 44,
      "hit": false,
      "t": 128170.50100000075,
      "d": 1.0162583333294606,
      "v": 100
    },
    {
      "midi": 67,
      "hit": false,
      "t": 128170.50100003483,
      "d": 60.975500000000466,
      "v": 100
    },
    {
      "midi": 63,
      "hit": false,
      "t": 128170.50100003483,
      "d": 60.975500000000466,
      "v": 100
    },
    {
      "midi": 72,
      "hit": false,
      "t": 128170.50100003483,
      "d": 60.975500000000466,
      "v": 100
    },
    {
      "midi": 72,
      "hit": false,
      "t": 128292.45200000028,
      "d": 487.8040000000037,
      "v": 100
    },
    {
      "midi": 67,
      "hit": false,
      "t": 128292.45200000028,
      "d": 487.8040000000037,
      "v": 100
    },
    {
      "midi": 63,
      "hit": false,
      "t": 128292.45200000028,
      "d": 487.8040000000037,
      "v": 100
    },
    {
      "midi": 72,
      "hit": false,
      "t": 128292.45200000043,
      "d": 365.8530000000028,
      "v": 100
    },
    {
      "midi": 36,
      "hit": false,
      "t": 128292.45200000046,
      "d": 243.90200000000186,
      "v": 100
    },
    {
      "midi": 72,
      "hit": false,
      "t": 128292.45200000059,
      "d": 121.95100000000093,
      "v": 100
    },
    {
      "midi": 60,
      "hit": false,
      "t": 128292.4520000007,
      "d": 121.95100000000093,
      "v": 100
    },
    {
      "midi": 33,
      "hit": false,
      "t": 128292.45200000075,
      "d": 1.0162583333294606,
      "v": 127
    },
    {
      "midi": 40,
      "hit": false,
      "t": 128292.45200000075,
      "d": 1.0162583333294606,
      "v": 100
    },
    {
      "midi": 46,
      "hit": false,
      "t": 128292.45200000075,
      "d": 1.0162583333294606,
      "v": 100
    },
    {
      "midi": 48,
      "hit": false,
      "t": 128292.45200000201,
      "d": 243.90200000000186,
      "v": 100
    },
    {
      "midi": 55,
      "hit": false,
      "t": 128292.45200000201,
      "d": 243.90200000000186,
      "v": 100
    },
    {
      "midi": 67,
      "hit": false,
      "t": 128292.45200003483,
      "d": 60.975500000145985,
      "v": 100
    },
    {
      "midi": 63,
      "hit": false,
      "t": 128292.45200003483,
      "d": 60.975500000145985,
      "v": 100
    },
    {
      "midi": 72,
      "hit": false,
      "t": 128292.45200003483,
      "d": 60.975500000145985,
      "v": 100
    },
    {
      "midi": 60,
      "hit": false,
      "t": 128414.40300000059,
      "d": 121.95100000000093,
      "v": 100
    },
    {
      "midi": 44,
      "hit": false,
      "t": 128414.40300000075,
      "d": 1.0162583333294606,
      "v": 100
    },
    {
      "midi": 67,
      "hit": false,
      "t": 128414.403000035,
      "d": 60.97550000001502,
      "v": 100
    },
    {
      "midi": 63,
      "hit": false,
      "t": 128414.403000035,
      "d": 60.97550000001502,
      "v": 100
    },
    {
      "midi": 72,
      "hit": false,
      "t": 128414.403000035,
      "d": 60.97550000001502,
      "v": 100
    },
    {
      "midi": 36,
      "hit": false,
      "t": 128536.35400000046,
      "d": 243.90200000000186,
      "v": 100
    },
    {
      "midi": 67,
      "hit": false,
      "t": 128536.35400000059,
      "d": 121.95100000000093,
      "v": 100
    },
    {
      "midi": 46,
      "hit": false,
      "t": 128536.35400000075,
      "d": 1.0162583333294606,
      "v": 100
    },
    {
      "midi": 48,
      "hit": false,
      "t": 128536.35400000201,
      "d": 121.95100000000093,
      "v": 100
    },
    {
      "midi": 67,
      "hit": false,
      "t": 128536.35400003515,
      "d": 60.975500000000466,
      "v": 100
    },
    {
      "midi": 63,
      "hit": false,
      "t": 128536.35400003515,
      "d": 60.975500000000466,
      "v": 100
    },
    {
      "midi": 72,
      "hit": false,
      "t": 128536.35400003515,
      "d": 60.975500000000466,
      "v": 100
    },
    {
      "midi": 60,
      "hit": false,
      "t": 128658.30500000059,
      "d": 121.95100000000093,
      "v": 100
    },
    {
      "midi": 44,
      "hit": false,
      "t": 128658.30500000075,
      "d": 1.0162583333294606,
      "v": 100
    },
    {
      "midi": 48,
      "hit": false,
      "t": 128658.30500000202,
      "d": 121.95100000000093,
      "v": 100
    },
    {
      "midi": 67,
      "hit": false,
      "t": 128658.30500003515,
      "d": 60.975500000000466,
      "v": 100
    },
    {
      "midi": 63,
      "hit": false,
      "t": 128658.30500003515,
      "d": 60.975500000000466,
      "v": 100
    },
    {
      "midi": 72,
      "hit": false,
      "t": 128658.30500003515,
      "d": 60.975500000000466,
      "v": 100
    },
    {
      "midi": 75,
      "hit": false,
      "t": 128780.25600000028,
      "d": 487.8040000000037,
      "v": 100
    },
    {
      "midi": 70,
      "hit": false,
      "t": 128780.25600000028,
      "d": 487.8040000000037,
      "v": 100
    },
    {
      "midi": 67,
      "hit": false,
      "t": 128780.25600000028,
      "d": 487.8040000000037,
      "v": 100
    },
    {
      "midi": 75,
      "hit": false,
      "t": 128780.25600000043,
      "d": 243.90200000000186,
      "v": 100
    },
    {
      "midi": 39,
      "hit": false,
      "t": 128780.25600000046,
      "d": 243.90200000000186,
      "v": 100
    },
    {
      "midi": 63,
      "hit": false,
      "t": 128780.25600000059,
      "d": 121.95100000000093,
      "v": 100
    },
    {
      "midi": 60,
      "hit": false,
      "t": 128780.2560000007,
      "d": 121.95100000000093,
      "v": 100
    },
    {
      "midi": 33,
      "hit": false,
      "t": 128780.25600000075,
      "d": 1.0162583333294606,
      "v": 127
    },
    {
      "midi": 42,
      "hit": false,
      "t": 128780.25600000075,
      "d": 1.0162583333294606,
      "v": 100
    },
    {
      "midi": 51,
      "hit": false,
      "t": 128780.25600000202,
      "d": 243.90200000000186,
      "v": 100
    },
    {
      "midi": 70,
      "hit": false,
      "t": 128780.25600003515,
      "d": 60.975500000145985,
      "v": 100
    },
    {
      "midi": 75,
      "hit": false,
      "t": 128780.25600003515,
      "d": 60.975500000145985,
      "v": 100
    },
    {
      "midi": 67,
      "hit": false,
      "t": 128780.25600003515,
      "d": 60.975500000145985,
      "v": 100
    },
    {
      "midi": 55,
      "hit": false,
      "t": 128902.20700000059,
      "d": 121.95100000000093,
      "v": 100
    },
    {
      "midi": 58,
      "hit": false,
      "t": 128902.20700000071,
      "d": 121.95100000000093,
      "v": 100
    },
    {
      "midi": 70,
      "hit": false,
      "t": 128902.20700003533,
      "d": 60.97550000001502,
      "v": 100
    },
    {
      "midi": 75,
      "hit": false,
      "t": 128902.20700003533,
      "d": 60.97550000001502,
      "v": 100
    },
    {
      "midi": 67,
      "hit": false,
      "t": 128902.20700003533,
      "d": 60.97550000001502,
      "v": 100
    },
    {
      "midi": 75,
      "hit": false,
      "t": 129024.15800000043,
      "d": 243.90200000000186,
      "v": 100
    },
    {
      "midi": 39,
      "hit": false,
      "t": 129024.15800000046,
      "d": 243.90200000000186,
      "v": 100
    },
    {
      "midi": 41,
      "hit": false,
      "t": 129024.15800000052,
      "d": 1.0162583333294606,
      "v": 100
    },
    {
      "midi": 67,
      "hit": false,
      "t": 129024.15800000059,
      "d": 121.95100000000093,
      "v": 100
    },
    {
      "midi": 46,
      "hit": false,
      "t": 129024.15800000075,
      "d": 1.0162583333294606,
      "v": 100
    },
    {
      "midi": 51,
      "hit": false,
      "t": 129024.15800000202,
      "d": 243.90200000000186,
      "v": 100
    },
    {
      "midi": 70,
      "hit": false,
      "t": 129024.15800003547,
      "d": 60.975500000000466,
      "v": 100
    },
    {
      "midi": 75,
      "hit": false,
      "t": 129024.15800003547,
      "d": 60.975500000000466,
      "v": 100
    },
    {
      "midi": 67,
      "hit": false,
      "t": 129024.15800003547,
      "d": 60.975500000000466,
      "v": 100
    },
    {
      "midi": 70,
      "hit": false,
      "t": 129146.1090000006,
      "d": 121.95100000000093,
      "v": 100
    },
    {
      "midi": 60,
      "hit": false,
      "t": 129146.10900000071,
      "d": 121.95100000000093,
      "v": 100
    },
    {
      "midi": 44,
      "hit": false,
      "t": 129146.10900000075,
      "d": 1.0162583333294606,
      "v": 100
    },
    {
      "midi": 70,
      "hit": false,
      "t": 129146.10900003547,
      "d": 60.975500000000466,
      "v": 100
    },
    {
      "midi": 75,
      "hit": false,
      "t": 129146.10900003547,
      "d": 60.975500000000466,
      "v": 100
    },
    {
      "midi": 67,
      "hit": false,
      "t": 129146.10900003547,
      "d": 60.975500000000466,
      "v": 100
    },
    {
      "midi": 75,
      "hit": false,
      "t": 129268.06000000043,
      "d": 243.90200000000186,
      "v": 100
    },
    {
      "midi": 39,
      "hit": false,
      "t": 129268.06000000046,
      "d": 243.90200000000186,
      "v": 100
    },
    {
      "midi": 41,
      "hit": false,
      "t": 129268.06000000052,
      "d": 1.0162583333294606,
      "v": 100
    },
    {
      "midi": 67,
      "hit": false,
      "t": 129268.0600000006,
      "d": 121.95100000000093,
      "v": 100
    },
    {
      "midi": 33,
      "hit": false,
      "t": 129268.06000000075,
      "d": 1.0162583333294606,
      "v": 127
    },
    {
      "midi": 40,
      "hit": false,
      "t": 129268.06000000075,
      "d": 1.0162583333294606,
      "v": 100
    },
    {
      "midi": 46,
      "hit": false,
      "t": 129268.06000000075,
      "d": 1.0162583333294606,
      "v": 100
    },
    {
      "midi": 51,
      "hit": false,
      "t": 129268.06000000202,
      "d": 365.85300000016287,
      "v": 100
    },
    {
      "midi": 58,
      "hit": false,
      "t": 129268.06000000202,
      "d": 365.85300000016287,
      "v": 100
    },
    {
      "midi": 70,
      "hit": false,
      "t": 129268.06000003548,
      "d": 60.975500000145985,
      "v": 100
    },
    {
      "midi": 75,
      "hit": false,
      "t": 129268.06000003548,
      "d": 60.975500000145985,
      "v": 100
    },
    {
      "midi": 67,
      "hit": false,
      "t": 129268.06000003548,
      "d": 60.975500000145985,
      "v": 100
    },
    {
      "midi": 58,
      "hit": false,
      "t": 129390.0110000006,
      "d": 121.95100000000093,
      "v": 100
    },
    {
      "midi": 55,
      "hit": false,
      "t": 129390.01100000071,
      "d": 121.95100000000093,
      "v": 100
    },
    {
      "midi": 44,
      "hit": false,
      "t": 129390.01100000076,
      "d": 1.0162583333294606,
      "v": 100
    },
    {
      "midi": 70,
      "hit": false,
      "t": 129390.01100003565,
      "d": 60.97550000001502,
      "v": 100
    },
    {
      "midi": 75,
      "hit": false,
      "t": 129390.01100003565,
      "d": 60.97550000001502,
      "v": 100
    },
    {
      "midi": 67,
      "hit": false,
      "t": 129390.01100003565,
      "d": 60.97550000001502,
      "v": 100
    },
    {
      "midi": 75,
      "hit": false,
      "t": 129511.96200000044,
      "d": 121.95100000000093,
      "v": 100
    },
    {
      "midi": 39,
      "hit": false,
      "t": 129511.96200000047,
      "d": 121.95100000000093,
      "v": 100
    },
    {
      "midi": 70,
      "hit": false,
      "t": 129511.9620000006,
      "d": 121.95100000000093,
      "v": 100
    },
    {
      "midi": 46,
      "hit": false,
      "t": 129511.96200000076,
      "d": 1.0162583333294606,
      "v": 100
    },
    {
      "midi": 70,
      "hit": false,
      "t": 129511.9620000358,
      "d": 60.975500000000466,
      "v": 100
    },
    {
      "midi": 75,
      "hit": false,
      "t": 129511.9620000358,
      "d": 60.975500000000466,
      "v": 100
    },
    {
      "midi": 67,
      "hit": false,
      "t": 129511.9620000358,
      "d": 60.975500000000466,
      "v": 100
    },
    {
      "midi": 77,
      "hit": false,
      "t": 129633.91300000044,
      "d": 243.90200000000186,
      "v": 100
    },
    {
      "midi": 34,
      "hit": false,
      "t": 129633.91300000047,
      "d": 243.90200000000186,
      "v": 100
    },
    {
      "midi": 67,
      "hit": false,
      "t": 129633.9130000006,
      "d": 121.95100000000093,
      "v": 100
    },
    {
      "midi": 55,
      "hit": false,
      "t": 129633.91300000071,
      "d": 121.95100000000093,
      "v": 100
    },
    {
      "midi": 44,
      "hit": false,
      "t": 129633.91300000076,
      "d": 1.0162583333294606,
      "v": 100
    },
    {
      "midi": 40,
      "hit": false,
      "t": 129633.91300000076,
      "d": 1.0162583333294606,
      "v": 100
    },
    {
      "midi": 46,
      "hit": false,
      "t": 129633.91300000218,
      "d": 243.90200000000186,
      "v": 100
    },
    {
      "midi": 53,
      "hit": false,
      "t": 129633.91300000218,
      "d": 243.90200000000186,
      "v": 100
    },
    {
      "midi": 70,
      "hit": false,
      "t": 129633.9130000358,
      "d": 60.975500000000466,
      "v": 100
    },
    {
      "midi": 75,
      "hit": false,
      "t": 129633.9130000358,
      "d": 60.975500000000466,
      "v": 100
    },
    {
      "midi": 67,
      "hit": false,
      "t": 129633.9130000358,
      "d": 60.975500000000466,
      "v": 100
    },
    {
      "midi": 77,
      "hit": false,
      "t": 129755.86400000029,
      "d": 487.8040000000037,
      "v": 100
    },
    {
      "midi": 74,
      "hit": false,
      "t": 129755.86400000029,
      "d": 487.8040000000037,
      "v": 100
    },
    {
      "midi": 70,
      "hit": false,
      "t": 129755.86400000029,
      "d": 487.8040000000037,
      "v": 100
    },
    {
      "midi": 65,
      "hit": false,
      "t": 129755.8640000006,
      "d": 121.95100000000093,
      "v": 100
    },
    {
      "midi": 42,
      "hit": false,
      "t": 129755.86400000076,
      "d": 1.0162583333294606,
      "v": 100
    },
    {
      "midi": 33,
      "hit": false,
      "t": 129755.86400000076,
      "d": 1.0162583333294606,
      "v": 127
    },
    {
      "midi": 65,
      "hit": false,
      "t": 129755.8640000358,
      "d": 60.975500000145985,
      "v": 100
    },
    {
      "midi": 70,
      "hit": false,
      "t": 129755.8640000358,
      "d": 60.975500000145985,
      "v": 100
    },
    {
      "midi": 62,
      "hit": false,
      "t": 129755.8640000358,
      "d": 60.975500000145985,
      "v": 100
    },
    {
      "midi": 77,
      "hit": false,
      "t": 129877.81500000044,
      "d": 121.95100000000093,
      "v": 100
    },
    {
      "midi": 34,
      "hit": false,
      "t": 129877.81500000047,
      "d": 121.95100000000093,
      "v": 100
    },
    {
      "midi": 70,
      "hit": false,
      "t": 129877.8150000006,
      "d": 121.95100000000093,
      "v": 100
    },
    {
      "midi": 55,
      "hit": false,
      "t": 129877.81500000072,
      "d": 121.95100000000093,
      "v": 100
    },
    {
      "midi": 33,
      "hit": false,
      "t": 129877.81500000076,
      "d": 1.0162583333294606,
      "v": 127
    },
    {
      "midi": 46,
      "hit": false,
      "t": 129877.81500000219,
      "d": 121.95100000000093,
      "v": 100
    },
    {
      "midi": 65,
      "hit": false,
      "t": 129877.81500003597,
      "d": 60.97550000001502,
      "v": 100
    },
    {
      "midi": 70,
      "hit": false,
      "t": 129877.81500003597,
      "d": 60.97550000001502,
      "v": 100
    },
    {
      "midi": 62,
      "hit": false,
      "t": 129877.81500003597,
      "d": 60.97550000001502,
      "v": 100
    },
    {
      "midi": 77,
      "hit": false,
      "t": 129999.76600000044,
      "d": 121.95100000000093,
      "v": 100
    },
    {
      "midi": 34,
      "hit": false,
      "t": 129999.76600000047,
      "d": 243.90200000000186,
      "v": 100
    },
    {
      "midi": 74,
      "hit": false,
      "t": 129999.7660000006,
      "d": 121.95100000000093,
      "v": 100
    },
    {
      "midi": 58,
      "hit": false,
      "t": 129999.76600000072,
      "d": 121.95100000000093,
      "v": 100
    },
    {
      "midi": 46,
      "hit": false,
      "t": 129999.76600000076,
      "d": 1.0162583333294606,
      "v": 100
    },
    {
      "midi": 46,
      "hit": false,
      "t": 129999.76600000219,
      "d": 121.95100000000093,
      "v": 100
    },
    {
      "midi": 53,
      "hit": false,
      "t": 129999.76600000219,
      "d": 121.95100000000093,
      "v": 100
    },
    {
      "midi": 65,
      "hit": false,
      "t": 129999.76600003612,
      "d": 60.975500000000466,
      "v": 100
    },
    {
      "midi": 70,
      "hit": false,
      "t": 129999.76600003612,
      "d": 60.975500000000466,
      "v": 100
    },
    {
      "midi": 62,
      "hit": false,
      "t": 129999.76600003612,
      "d": 60.975500000000466,
      "v": 100
    },
    {
      "midi": 77,
      "hit": false,
      "t": 130121.7170000006,
      "d": 121.95100000000093,
      "v": 100
    },
    {
      "midi": 44,
      "hit": false,
      "t": 130121.71700000076,
      "d": 1.0162583333294606,
      "v": 100
    },
    {
      "midi": 33,
      "hit": false,
      "t": 130121.71700000076,
      "d": 1.0162583333294606,
      "v": 127
    },
    {
      "midi": 65,
      "hit": false,
      "t": 130121.71700003612,
      "d": 60.975500000000466,
      "v": 100
    },
    {
      "midi": 70,
      "hit": false,
      "t": 130121.71700003612,
      "d": 60.975500000000466,
      "v": 100
    },
    {
      "midi": 62,
      "hit": false,
      "t": 130121.71700003612,
      "d": 60.975500000000466,
      "v": 100
    },
    {
      "midi": 77,
      "hit": false,
      "t": 130243.66800000044,
      "d": 365.8530000000028,
      "v": 100
    },
    {
      "midi": 34,
      "hit": false,
      "t": 130243.66800000047,
      "d": 243.90200000000186,
      "v": 100
    },
    {
      "midi": 65,
      "hit": false,
      "t": 130243.6680000006,
      "d": 121.95100000000093,
      "v": 100
    },
    {
      "midi": 60,
      "hit": false,
      "t": 130243.66800000072,
      "d": 121.95100000000093,
      "v": 100
    },
    {
      "midi": 40,
      "hit": false,
      "t": 130243.66800000076,
      "d": 1.0162583333294606,
      "v": 100
    },
    {
      "midi": 46,
      "hit": false,
      "t": 130243.66800000076,
      "d": 1.0162583333294606,
      "v": 100
    },
    {
      "midi": 33,
      "hit": false,
      "t": 130243.66800000076,
      "d": 1.0162583333294606,
      "v": 127
    },
    {
      "midi": 46,
      "hit": false,
      "t": 130243.66800000219,
      "d": 487.8040000000037,
      "v": 100
    },
    {
      "midi": 53,
      "hit": false,
      "t": 130243.66800000219,
      "d": 487.8040000000037,
      "v": 100
    },
    {
      "midi": 65,
      "hit": false,
      "t": 130243.66800003612,
      "d": 243.9020000002929,
      "v": 100
    },
    {
      "midi": 70,
      "hit": false,
      "t": 130243.66800003612,
      "d": 243.9020000002929,
      "v": 100
    },
    {
      "midi": 62,
      "hit": false,
      "t": 130243.66800003612,
      "d": 243.9020000002929,
      "v": 100
    },
    {
      "midi": 70,
      "hit": false,
      "t": 130365.6190000006,
      "d": 121.95100000000093,
      "v": 100
    },
    {
      "midi": 44,
      "hit": false,
      "t": 130365.61900000076,
      "d": 1.0162583333294606,
      "v": 100
    },
    {
      "midi": 34,
      "hit": false,
      "t": 130487.57000000047,
      "d": 243.90200000000186,
      "v": 100
    },
    {
      "midi": 74,
      "hit": false,
      "t": 130487.5700000006,
      "d": 121.95100000000093,
      "v": 100
    },
    {
      "midi": 40,
      "hit": false,
      "t": 130487.57000000076,
      "d": 1.0162583333294606,
      "v": 100
    },
    {
      "midi": 46,
      "hit": false,
      "t": 130487.57000000076,
      "d": 1.0162583333294606,
      "v": 100
    },
    {
      "midi": 33,
      "hit": false,
      "t": 130487.57000000076,
      "d": 1.0162583333294606,
      "v": 127
    },
    {
      "midi": 65,
      "hit": false,
      "t": 130487.57000003642,
      "d": 60.975500000000466,
      "v": 100
    },
    {
      "midi": 70,
      "hit": false,
      "t": 130487.57000003642,
      "d": 60.975500000000466,
      "v": 100
    },
    {
      "midi": 62,
      "hit": false,
      "t": 130487.57000003642,
      "d": 60.975500000000466,
      "v": 100
    },
    {
      "midi": 77,
      "hit": false,
      "t": 130609.5210000006,
      "d": 121.95100000000093,
      "v": 100
    },
    {
      "midi": 40,
      "hit": false,
      "t": 130609.52100000076,
      "d": 1.0162583333294606,
      "v": 100
    },
    {
      "midi": 44,
      "hit": false,
      "t": 130609.52100000076,
      "d": 1.0162583333294606,
      "v": 100
    },
    {
      "midi": 33,
      "hit": false,
      "t": 130609.52100000076,
      "d": 1.0162583333294606,
      "v": 127
    },
    {
      "midi": 65,
      "hit": false,
      "t": 130609.52100003642,
      "d": 60.975500000000466,
      "v": 100
    },
    {
      "midi": 70,
      "hit": false,
      "t": 130609.52100003642,
      "d": 60.975500000000466,
      "v": 100
    },
    {
      "midi": 62,
      "hit": false,
      "t": 130609.52100003642,
      "d": 60.975500000000466,
      "v": 100
    },
    {
      "midi": 72,
      "hit": false,
      "t": 130731.4720000003,
      "d": 487.8040000000037,
      "v": 100
    },
    {
      "midi": 67,
      "hit": false,
      "t": 130731.4720000003,
      "d": 487.8040000000037,
      "v": 100
    },
    {
      "midi": 63,
      "hit": false,
      "t": 130731.4720000003,
      "d": 487.8040000000037,
      "v": 100
    },
    {
      "midi": 72,
      "hit": false,
      "t": 130731.47200000045,
      "d": 243.90200000000186,
      "v": 100
    },
    {
      "midi": 36,
      "hit": false,
      "t": 130731.47200000047,
      "d": 243.90200000000186,
      "v": 100
    },
    {
      "midi": 60,
      "hit": false,
      "t": 130731.4720000006,
      "d": 121.95100000000093,
      "v": 100
    },
    {
      "midi": 60,
      "hit": false,
      "t": 130731.47200000072,
      "d": 121.95100000000093,
      "v": 100
    },
    {
      "midi": 33,
      "hit": false,
      "t": 130731.47200000077,
      "d": 1.0162583333294606,
      "v": 127
    },
    {
      "midi": 42,
      "hit": false,
      "t": 130731.47200000077,
      "d": 1.0162583333294606,
      "v": 100
    },
    {
      "midi": 57,
      "hit": false,
      "t": 130731.47200000077,
      "d": 1.0162583333294606,
      "v": 100
    },
    {
      "midi": 55,
      "hit": false,
      "t": 130731.47200000219,
      "d": 487.8040000000037,
      "v": 100
    },
    {
      "midi": 48,
      "hit": false,
      "t": 130731.47200000219,
      "d": 487.8040000000037,
      "v": 100
    },
    {
      "midi": 67,
      "hit": false,
      "t": 130731.47200003642,
      "d": 487.80400000014924,
      "v": 100
    },
    {
      "midi": 63,
      "hit": false,
      "t": 130731.47200003642,
      "d": 487.80400000014924,
      "v": 100
    },
    {
      "midi": 72,
      "hit": false,
      "t": 130731.47200003642,
      "d": 487.80400000014924,
      "v": 100
    },
    {
      "midi": 55,
      "hit": false,
      "t": 130853.4230000006,
      "d": 121.95100000000093,
      "v": 100
    },
    {
      "midi": 58,
      "hit": false,
      "t": 130853.42300000072,
      "d": 121.95100000000093,
      "v": 100
    },
    {
      "midi": 72,
      "hit": false,
      "t": 130975.37400000045,
      "d": 243.90200000000186,
      "v": 100
    },
    {
      "midi": 36,
      "hit": false,
      "t": 130975.37400000048,
      "d": 243.90200000000186,
      "v": 100
    },
    {
      "midi": 67,
      "hit": false,
      "t": 130975.37400000061,
      "d": 121.95099999998638,
      "v": 100
    },
    {
      "midi": 46,
      "hit": false,
      "t": 130975.37400000077,
      "d": 1.0162583333294606,
      "v": 100
    },
    {
      "midi": 60,
      "hit": false,
      "t": 131097.3250000006,
      "d": 121.95100000000093,
      "v": 100
    },
    {
      "midi": 60,
      "hit": false,
      "t": 131097.3250000007,
      "d": 121.95100000000093,
      "v": 100
    },
    {
      "midi": 44,
      "hit": false,
      "t": 131097.32500000077,
      "d": 1.0162583333440125,
      "v": 100
    },
    {
      "midi": 72,
      "hit": false,
      "t": 131219.27600000045,
      "d": 243.90200000000186,
      "v": 100
    },
    {
      "midi": 36,
      "hit": false,
      "t": 131219.27600000048,
      "d": 243.90200000000186,
      "v": 100
    },
    {
      "midi": 72,
      "hit": false,
      "t": 131219.2760000006,
      "d": 121.95100000000093,
      "v": 100
    },
    {
      "midi": 33,
      "hit": false,
      "t": 131219.27600000077,
      "d": 1.0162583333440125,
      "v": 127
    },
    {
      "midi": 40,
      "hit": false,
      "t": 131219.27600000077,
      "d": 1.0162583333440125,
      "v": 100
    },
    {
      "midi": 46,
      "hit": false,
      "t": 131219.27600000077,
      "d": 1.0162583333440125,
      "v": 100
    },
    {
      "midi": 48,
      "hit": false,
      "t": 131219.2760000022,
      "d": 243.90200000000186,
      "v": 100
    },
    {
      "midi": 67,
      "hit": false,
      "t": 131219.27600003657,
      "d": 60.97549999988405,
      "v": 100
    },
    {
      "midi": 63,
      "hit": false,
      "t": 131219.27600003657,
      "d": 60.97549999988405,
      "v": 100
    },
    {
      "midi": 72,
      "hit": false,
      "t": 131219.27600003657,
      "d": 60.97549999988405,
      "v": 100
    },
    {
      "midi": 55,
      "hit": false,
      "t": 131341.2270000006,
      "d": 121.95100000000093,
      "v": 100
    },
    {
      "midi": 55,
      "hit": false,
      "t": 131341.2270000007,
      "d": 121.95100000000093,
      "v": 100
    },
    {
      "midi": 44,
      "hit": false,
      "t": 131341.22700000077,
      "d": 1.0162583333440125,
      "v": 100
    },
    {
      "midi": 67,
      "hit": false,
      "t": 131341.22700003645,
      "d": 60.975500000000466,
      "v": 100
    },
    {
      "midi": 63,
      "hit": false,
      "t": 131341.22700003645,
      "d": 60.975500000000466,
      "v": 100
    },
    {
      "midi": 72,
      "hit": false,
      "t": 131341.22700003645,
      "d": 60.975500000000466,
      "v": 100
    },
    {
      "midi": 72,
      "hit": false,
      "t": 131463.17800000045,
      "d": 121.95100000000093,
      "v": 100
    },
    {
      "midi": 36,
      "hit": false,
      "t": 131463.17800000048,
      "d": 121.95100000000093,
      "v": 100
    },
    {
      "midi": 60,
      "hit": false,
      "t": 131463.1780000006,
      "d": 121.95100000000093,
      "v": 100
    },
    {
      "midi": 46,
      "hit": false,
      "t": 131463.17800000077,
      "d": 1.0162583333440125,
      "v": 100
    },
    {
      "midi": 48,
      "hit": false,
      "t": 131463.1780000022,
      "d": 121.95100000000093,
      "v": 100
    },
    {
      "midi": 67,
      "hit": false,
      "t": 131463.17800003637,
      "d": 60.975500000000466,
      "v": 100
    },
    {
      "midi": 63,
      "hit": false,
      "t": 131463.17800003637,
      "d": 60.975500000000466,
      "v": 100
    },
    {
      "midi": 72,
      "hit": false,
      "t": 131463.17800003637,
      "d": 60.975500000000466,
      "v": 100
    },
    {
      "midi": 72,
      "hit": false,
      "t": 131585.12900000045,
      "d": 243.90200000000186,
      "v": 100
    },
    {
      "midi": 36,
      "hit": false,
      "t": 131585.12900000048,
      "d": 243.90200000000186,
      "v": 100
    },
    {
      "midi": 67,
      "hit": false,
      "t": 131585.1290000006,
      "d": 121.95100000000093,
      "v": 100
    },
    {
      "midi": 55,
      "hit": false,
      "t": 131585.1290000007,
      "d": 121.95100000000093,
      "v": 100
    },
    {
      "midi": 44,
      "hit": false,
      "t": 131585.12900000077,
      "d": 1.0162583333440125,
      "v": 100
    },
    {
      "midi": 48,
      "hit": false,
      "t": 131585.1290000022,
      "d": 121.95100000000093,
      "v": 100
    },
    {
      "midi": 67,
      "hit": false,
      "t": 131585.12900003637,
      "d": 60.975500000000466,
      "v": 100
    },
    {
      "midi": 63,
      "hit": false,
      "t": 131585.12900003637,
      "d": 60.975500000000466,
      "v": 100
    },
    {
      "midi": 72,
      "hit": false,
      "t": 131585.12900003637,
      "d": 60.975500000000466,
      "v": 100
    },
    {
      "midi": 60,
      "hit": false,
      "t": 131707.0800000006,
      "d": 121.95100000000093,
      "v": 100
    },
    {
      "midi": 33,
      "hit": false,
      "t": 131707.08000000077,
      "d": 1.0162583333440125,
      "v": 127
    },
    {
      "midi": 42,
      "hit": false,
      "t": 131707.08000000077,
      "d": 1.0162583333440125,
      "v": 100
    },
    {
      "midi": 48,
      "hit": false,
      "t": 131707.0800000022,
      "d": 121.95100000000093,
      "v": 100
    },
    {
      "midi": 67,
      "hit": false,
      "t": 131707.08000003637,
      "d": 60.97549999988405,
      "v": 100
    },
    {
      "midi": 63,
      "hit": false,
      "t": 131707.08000003637,
      "d": 60.97549999988405,
      "v": 100
    },
    {
      "midi": 72,
      "hit": false,
      "t": 131707.08000003637,
      "d": 60.97549999988405,
      "v": 100
    },
    {
      "midi": 72,
      "hit": false,
      "t": 131829.03100000045,
      "d": 121.95100000000093,
      "v": 100
    },
    {
      "midi": 36,
      "hit": false,
      "t": 131829.03100000048,
      "d": 121.95100000000093,
      "v": 100
    },
    {
      "midi": 55,
      "hit": false,
      "t": 131829.0310000006,
      "d": 121.95100000000093,
      "v": 100
    },
    {
      "midi": 55,
      "hit": false,
      "t": 131829.03100000072,
      "d": 121.95100000000093,
      "v": 100
    },
    {
      "midi": 48,
      "hit": false,
      "t": 131829.0310000022,
      "d": 121.95100000000093,
      "v": 100
    },
    {
      "midi": 67,
      "hit": false,
      "t": 131829.03100003625,
      "d": 60.975500000000466,
      "v": 100
    },
    {
      "midi": 63,
      "hit": false,
      "t": 131829.03100003625,
      "d": 60.975500000000466,
      "v": 100
    },
    {
      "midi": 72,
      "hit": false,
      "t": 131829.03100003625,
      "d": 60.975500000000466,
      "v": 100
    },
    {
      "midi": 72,
      "hit": false,
      "t": 131950.98200000045,
      "d": 243.90200000000186,
      "v": 100
    },
    {
      "midi": 36,
      "hit": false,
      "t": 131950.98200000048,
      "d": 243.90200000000186,
      "v": 100
    },
    {
      "midi": 72,
      "hit": false,
      "t": 131950.9820000006,
      "d": 121.95100000000093,
      "v": 100
    },
    {
      "midi": 58,
      "hit": false,
      "t": 131950.98200000072,
      "d": 121.95100000000093,
      "v": 100
    },
    {
      "midi": 46,
      "hit": false,
      "t": 131950.98200000077,
      "d": 1.0162583333440125,
      "v": 100
    },
    {
      "midi": 48,
      "hit": false,
      "t": 131950.9820000022,
      "d": 243.90200000000186,
      "v": 100
    },
    {
      "midi": 67,
      "hit": false,
      "t": 131950.98200003617,
      "d": 60.975500000000466,
      "v": 100
    },
    {
      "midi": 63,
      "hit": false,
      "t": 131950.98200003617,
      "d": 60.975500000000466,
      "v": 100
    },
    {
      "midi": 72,
      "hit": false,
      "t": 131950.98200003617,
      "d": 60.975500000000466,
      "v": 100
    },
    {
      "midi": 60,
      "hit": false,
      "t": 132072.9330000006,
      "d": 121.95100000000093,
      "v": 100
    },
    {
      "midi": 44,
      "hit": false,
      "t": 132072.93300000078,
      "d": 1.0162583333440125,
      "v": 100
    },
    {
      "midi": 67,
      "hit": false,
      "t": 132072.93300003617,
      "d": 60.975500000000466,
      "v": 100
    },
    {
      "midi": 63,
      "hit": false,
      "t": 132072.93300003617,
      "d": 60.975500000000466,
      "v": 100
    },
    {
      "midi": 72,
      "hit": false,
      "t": 132072.93300003617,
      "d": 60.975500000000466,
      "v": 100
    },
    {
      "midi": 72,
      "hit": false,
      "t": 132194.8840000003,
      "d": 487.8040000000037,
      "v": 100
    },
    {
      "midi": 67,
      "hit": false,
      "t": 132194.8840000003,
      "d": 487.8040000000037,
      "v": 100
    },
    {
      "midi": 63,
      "hit": false,
      "t": 132194.8840000003,
      "d": 487.8040000000037,
      "v": 100
    },
    {
      "midi": 72,
      "hit": false,
      "t": 132194.88400000046,
      "d": 365.8530000000028,
      "v": 100
    },
    {
      "midi": 36,
      "hit": false,
      "t": 132194.8840000005,
      "d": 243.90200000000186,
      "v": 100
    },
    {
      "midi": 72,
      "hit": false,
      "t": 132194.8840000006,
      "d": 121.95100000000093,
      "v": 100
    },
    {
      "midi": 60,
      "hit": false,
      "t": 132194.88400000072,
      "d": 121.95100000000093,
      "v": 100
    },
    {
      "midi": 33,
      "hit": false,
      "t": 132194.88400000078,
      "d": 1.0162583333440125,
      "v": 127
    },
    {
      "midi": 40,
      "hit": false,
      "t": 132194.88400000078,
      "d": 1.0162583333440125,
      "v": 100
    },
    {
      "midi": 46,
      "hit": false,
      "t": 132194.88400000078,
      "d": 1.0162583333440125,
      "v": 100
    },
    {
      "midi": 48,
      "hit": false,
      "t": 132194.8840000022,
      "d": 243.90200000000186,
      "v": 100
    },
    {
      "midi": 55,
      "hit": false,
      "t": 132194.8840000022,
      "d": 243.90200000000186,
      "v": 100
    },
    {
      "midi": 67,
      "hit": false,
      "t": 132194.88400003617,
      "d": 60.97549999988405,
      "v": 100
    },
    {
      "midi": 63,
      "hit": false,
      "t": 132194.88400003617,
      "d": 60.97549999988405,
      "v": 100
    },
    {
      "midi": 72,
      "hit": false,
      "t": 132194.88400003617,
      "d": 60.97549999988405,
      "v": 100
    },
    {
      "midi": 60,
      "hit": false,
      "t": 132316.8350000006,
      "d": 121.95100000000093,
      "v": 100
    },
    {
      "midi": 44,
      "hit": false,
      "t": 132316.83500000078,
      "d": 1.0162583333440125,
      "v": 100
    },
    {
      "midi": 67,
      "hit": false,
      "t": 132316.83500003605,
      "d": 60.975500000000466,
      "v": 100
    },
    {
      "midi": 63,
      "hit": false,
      "t": 132316.83500003605,
      "d": 60.975500000000466,
      "v": 100
    },
    {
      "midi": 72,
      "hit": false,
      "t": 132316.83500003605,
      "d": 60.975500000000466,
      "v": 100
    },
    {
      "midi": 36,
      "hit": false,
      "t": 132438.7860000005,
      "d": 243.90200000000186,
      "v": 100
    },
    {
      "midi": 67,
      "hit": false,
      "t": 132438.7860000006,
      "d": 121.95100000000093,
      "v": 100
    },
    {
      "midi": 46,
      "hit": false,
      "t": 132438.78600000078,
      "d": 1.0162583333440125,
      "v": 100
    },
    {
      "midi": 48,
      "hit": false,
      "t": 132438.7860000022,
      "d": 121.95100000000093,
      "v": 100
    },
    {
      "midi": 67,
      "hit": false,
      "t": 132438.78600003597,
      "d": 60.975500000000466,
      "v": 100
    },
    {
      "midi": 63,
      "hit": false,
      "t": 132438.78600003597,
      "d": 60.975500000000466,
      "v": 100
    },
    {
      "midi": 72,
      "hit": false,
      "t": 132438.78600003597,
      "d": 60.975500000000466,
      "v": 100
    },
    {
      "midi": 60,
      "hit": false,
      "t": 132560.7370000006,
      "d": 121.95100000000093,
      "v": 100
    },
    {
      "midi": 44,
      "hit": false,
      "t": 132560.73700000078,
      "d": 1.0162583333440125,
      "v": 100
    },
    {
      "midi": 48,
      "hit": false,
      "t": 132560.7370000022,
      "d": 121.95100000000093,
      "v": 100
    },
    {
      "midi": 67,
      "hit": false,
      "t": 132560.73700003597,
      "d": 60.975500000000466,
      "v": 100
    },
    {
      "midi": 63,
      "hit": false,
      "t": 132560.73700003597,
      "d": 60.975500000000466,
      "v": 100
    },
    {
      "midi": 72,
      "hit": false,
      "t": 132560.73700003597,
      "d": 60.975500000000466,
      "v": 100
    },
    {
      "midi": 75,
      "hit": false,
      "t": 132682.68800000031,
      "d": 487.8040000000037,
      "v": 100
    },
    {
      "midi": 70,
      "hit": false,
      "t": 132682.68800000031,
      "d": 487.8040000000037,
      "v": 100
    },
    {
      "midi": 67,
      "hit": false,
      "t": 132682.68800000031,
      "d": 487.8040000000037,
      "v": 100
    },
    {
      "midi": 75,
      "hit": false,
      "t": 132682.68800000046,
      "d": 243.90200000000186,
      "v": 100
    },
    {
      "midi": 39,
      "hit": false,
      "t": 132682.6880000005,
      "d": 243.90200000000186,
      "v": 100
    },
    {
      "midi": 63,
      "hit": false,
      "t": 132682.6880000006,
      "d": 121.95100000000093,
      "v": 100
    },
    {
      "midi": 60,
      "hit": false,
      "t": 132682.68800000072,
      "d": 121.95100000000093,
      "v": 100
    },
    {
      "midi": 33,
      "hit": false,
      "t": 132682.68800000078,
      "d": 1.0162583333440125,
      "v": 127
    },
    {
      "midi": 42,
      "hit": false,
      "t": 132682.68800000078,
      "d": 1.0162583333440125,
      "v": 100
    },
    {
      "midi": 51,
      "hit": false,
      "t": 132682.6880000022,
      "d": 243.90200000000186,
      "v": 100
    },
    {
      "midi": 58,
      "hit": false,
      "t": 132682.6880000022,
      "d": 243.90200000000186,
      "v": 100
    },
    {
      "midi": 70,
      "hit": false,
      "t": 132682.68800003597,
      "d": 60.97549999988405,
      "v": 100
    },
    {
      "midi": 75,
      "hit": false,
      "t": 132682.68800003597,
      "d": 60.97549999988405,
      "v": 100
    },
    {
      "midi": 67,
      "hit": false,
      "t": 132682.68800003597,
      "d": 60.97549999988405,
      "v": 100
    },
    {
      "midi": 55,
      "hit": false,
      "t": 132804.6390000006,
      "d": 121.95100000000093,
      "v": 100
    },
    {
      "midi": 58,
      "hit": false,
      "t": 132804.63900000072,
      "d": 121.95100000000093,
      "v": 100
    },
    {
      "midi": 70,
      "hit": false,
      "t": 132804.63900003585,
      "d": 60.975500000000466,
      "v": 100
    },
    {
      "midi": 75,
      "hit": false,
      "t": 132804.63900003585,
      "d": 60.975500000000466,
      "v": 100
    },
    {
      "midi": 67,
      "hit": false,
      "t": 132804.63900003585,
      "d": 60.975500000000466,
      "v": 100
    },
    {
      "midi": 75,
      "hit": false,
      "t": 132926.59000000046,
      "d": 243.90200000000186,
      "v": 100
    },
    {
      "midi": 39,
      "hit": false,
      "t": 132926.5900000005,
      "d": 243.90200000000186,
      "v": 100
    },
    {
      "midi": 67,
      "hit": false,
      "t": 132926.5900000006,
      "d": 121.95100000000093,
      "v": 100
    },
    {
      "midi": 46,
      "hit": false,
      "t": 132926.59000000078,
      "d": 1.0162583333440125,
      "v": 100
    },
    {
      "midi": 51,
      "hit": false,
      "t": 132926.5900000022,
      "d": 243.90200000000186,
      "v": 100
    },
    {
      "midi": 70,
      "hit": false,
      "t": 132926.59000003577,
      "d": 60.975500000000466,
      "v": 100
    },
    {
      "midi": 75,
      "hit": false,
      "t": 132926.59000003577,
      "d": 60.975500000000466,
      "v": 100
    },
    {
      "midi": 67,
      "hit": false,
      "t": 132926.59000003577,
      "d": 60.975500000000466,
      "v": 100
    },
    {
      "midi": 70,
      "hit": false,
      "t": 133048.5410000006,
      "d": 121.95100000000093,
      "v": 100
    },
    {
      "midi": 60,
      "hit": false,
      "t": 133048.54100000073,
      "d": 121.95100000000093,
      "v": 100
    },
    {
      "midi": 44,
      "hit": false,
      "t": 133048.54100000078,
      "d": 1.0162583333440125,
      "v": 100
    },
    {
      "midi": 70,
      "hit": false,
      "t": 133048.54100003577,
      "d": 60.975500000000466,
      "v": 100
    },
    {
      "midi": 75,
      "hit": false,
      "t": 133048.54100003577,
      "d": 60.975500000000466,
      "v": 100
    },
    {
      "midi": 67,
      "hit": false,
      "t": 133048.54100003577,
      "d": 60.975500000000466,
      "v": 100
    },
    {
      "midi": 75,
      "hit": false,
      "t": 133170.49200000046,
      "d": 243.90200000000186,
      "v": 100
    },
    {
      "midi": 39,
      "hit": false,
      "t": 133170.4920000005,
      "d": 243.90200000000186,
      "v": 100
    },
    {
      "midi": 67,
      "hit": false,
      "t": 133170.4920000006,
      "d": 121.95100000000093,
      "v": 100
    },
    {
      "midi": 33,
      "hit": false,
      "t": 133170.49200000078,
      "d": 1.0162583333440125,
      "v": 127
    },
    {
      "midi": 40,
      "hit": false,
      "t": 133170.49200000078,
      "d": 1.0162583333440125,
      "v": 100
    },
    {
      "midi": 46,
      "hit": false,
      "t": 133170.49200000078,
      "d": 1.0162583333440125,
      "v": 100
    },
    {
      "midi": 51,
      "hit": false,
      "t": 133170.4920000022,
      "d": 243.90200000000186,
      "v": 100
    },
    {
      "midi": 58,
      "hit": false,
      "t": 133170.4920000022,
      "d": 243.90200000000186,
      "v": 100
    },
    {
      "midi": 70,
      "hit": false,
      "t": 133170.49200003577,
      "d": 60.97549999988405,
      "v": 100
    },
    {
      "midi": 75,
      "hit": false,
      "t": 133170.49200003577,
      "d": 60.97549999988405,
      "v": 100
    },
    {
      "midi": 67,
      "hit": false,
      "t": 133170.49200003577,
      "d": 60.97549999988405,
      "v": 100
    },
    {
      "midi": 58,
      "hit": false,
      "t": 133292.4430000006,
      "d": 121.95100000000093,
      "v": 100
    },
    {
      "midi": 55,
      "hit": false,
      "t": 133292.44300000073,
      "d": 121.95100000000093,
      "v": 100
    },
    {
      "midi": 44,
      "hit": false,
      "t": 133292.44300000079,
      "d": 1.0162583333440125,
      "v": 100
    },
    {
      "midi": 70,
      "hit": false,
      "t": 133292.44300003565,
      "d": 60.975500000000466,
      "v": 100
    },
    {
      "midi": 75,
      "hit": false,
      "t": 133292.44300003565,
      "d": 60.975500000000466,
      "v": 100
    },
    {
      "midi": 67,
      "hit": false,
      "t": 133292.44300003565,
      "d": 60.975500000000466,
      "v": 100
    },
    {
      "midi": 75,
      "hit": false,
      "t": 133414.39400000047,
      "d": 121.95100000000093,
      "v": 100
    },
    {
      "midi": 39,
      "hit": false,
      "t": 133414.3940000005,
      "d": 121.95100000000093,
      "v": 100
    },
    {
      "midi": 70,
      "hit": false,
      "t": 133414.3940000006,
      "d": 121.95100000000093,
      "v": 100
    },
    {
      "midi": 46,
      "hit": false,
      "t": 133414.3940000008,
      "d": 1.0162583333440125,
      "v": 100
    },
    {
      "midi": 51,
      "hit": false,
      "t": 133414.3940000022,
      "d": 121.95100000000093,
      "v": 100
    },
    {
      "midi": 70,
      "hit": false,
      "t": 133414.39400003557,
      "d": 60.975500000000466,
      "v": 100
    },
    {
      "midi": 75,
      "hit": false,
      "t": 133414.39400003557,
      "d": 60.975500000000466,
      "v": 100
    },
    {
      "midi": 67,
      "hit": false,
      "t": 133414.39400003557,
      "d": 60.975500000000466,
      "v": 100
    },
    {
      "midi": 77,
      "hit": false,
      "t": 133536.34500000047,
      "d": 243.90200000000186,
      "v": 100
    },
    {
      "midi": 41,
      "hit": false,
      "t": 133536.3450000005,
      "d": 243.90200000000186,
      "v": 100
    },
    {
      "midi": 67,
      "hit": false,
      "t": 133536.3450000006,
      "d": 121.95100000000093,
      "v": 100
    },
    {
      "midi": 55,
      "hit": false,
      "t": 133536.34500000073,
      "d": 121.95100000000093,
      "v": 100
    },
    {
      "midi": 44,
      "hit": false,
      "t": 133536.3450000008,
      "d": 1.0162583333440125,
      "v": 100
    },
    {
      "midi": 53,
      "hit": false,
      "t": 133536.3450000022,
      "d": 243.90200000000186,
      "v": 100
    },
    {
      "midi": 60,
      "hit": false,
      "t": 133536.3450000022,
      "d": 243.90200000000186,
      "v": 100
    },
    {
      "midi": 70,
      "hit": false,
      "t": 133536.34500003557,
      "d": 60.975500000000466,
      "v": 100
    },
    {
      "midi": 75,
      "hit": false,
      "t": 133536.34500003557,
      "d": 60.975500000000466,
      "v": 100
    },
    {
      "midi": 67,
      "hit": false,
      "t": 133536.34500003557,
      "d": 60.975500000000466,
      "v": 100
    },
    {
      "midi": 77,
      "hit": false,
      "t": 133658.29600000032,
      "d": 487.8040000000037,
      "v": 100
    },
    {
      "midi": 74,
      "hit": false,
      "t": 133658.29600000032,
      "d": 487.8040000000037,
      "v": 100
    },
    {
      "midi": 70,
      "hit": false,
      "t": 133658.29600000032,
      "d": 487.8040000000037,
      "v": 100
    },
    {
      "midi": 65,
      "hit": false,
      "t": 133658.2960000006,
      "d": 121.95100000000093,
      "v": 100
    },
    {
      "midi": 33,
      "hit": false,
      "t": 133658.2960000008,
      "d": 1.0162583333440125,
      "v": 127
    },
    {
      "midi": 42,
      "hit": false,
      "t": 133658.2960000008,
      "d": 1.0162583333440125,
      "v": 100
    },
    {
      "midi": 72,
      "hit": false,
      "t": 133658.29600003557,
      "d": 60.97549999988405,
      "v": 100
    },
    {
      "midi": 77,
      "hit": false,
      "t": 133658.29600003557,
      "d": 60.97549999988405,
      "v": 100
    },
    {
      "midi": 69,
      "hit": false,
      "t": 133658.29600003557,
      "d": 60.97549999988405,
      "v": 100
    },
    {
      "midi": 77,
      "hit": false,
      "t": 133780.24700000047,
      "d": 121.95100000000093,
      "v": 100
    },
    {
      "midi": 41,
      "hit": false,
      "t": 133780.2470000005,
      "d": 121.95100000000093,
      "v": 100
    },
    {
      "midi": 70,
      "hit": false,
      "t": 133780.2470000006,
      "d": 121.95100000000093,
      "v": 100
    },
    {
      "midi": 55,
      "hit": false,
      "t": 133780.24700000073,
      "d": 121.95100000000093,
      "v": 100
    },
    {
      "midi": 53,
      "hit": false,
      "t": 133780.24700000221,
      "d": 121.95100000000093,
      "v": 100
    },
    {
      "midi": 72,
      "hit": false,
      "t": 133780.24700003545,
      "d": 60.975500000000466,
      "v": 100
    },
    {
      "midi": 77,
      "hit": false,
      "t": 133780.24700003545,
      "d": 60.975500000000466,
      "v": 100
    },
    {
      "midi": 69,
      "hit": false,
      "t": 133780.24700003545,
      "d": 60.975500000000466,
      "v": 100
    },
    {
      "midi": 77,
      "hit": false,
      "t": 133902.19800000047,
      "d": 121.95100000000093,
      "v": 100
    },
    {
      "midi": 41,
      "hit": false,
      "t": 133902.1980000005,
      "d": 243.90200000000186,
      "v": 100
    },
    {
      "midi": 74,
      "hit": false,
      "t": 133902.19800000062,
      "d": 121.95100000000093,
      "v": 100
    },
    {
      "midi": 58,
      "hit": false,
      "t": 133902.19800000073,
      "d": 121.95100000000093,
      "v": 100
    },
    {
      "midi": 46,
      "hit": false,
      "t": 133902.1980000008,
      "d": 1.0162583333440125,
      "v": 100
    },
    {
      "midi": 53,
      "hit": false,
      "t": 133902.19800000222,
      "d": 243.90200000000186,
      "v": 100
    },
    {
      "midi": 72,
      "hit": false,
      "t": 133902.19800003537,
      "d": 60.975500000000466,
      "v": 100
    },
    {
      "midi": 77,
      "hit": false,
      "t": 133902.19800003537,
      "d": 60.975500000000466,
      "v": 100
    },
    {
      "midi": 69,
      "hit": false,
      "t": 133902.19800003537,
      "d": 60.975500000000466,
      "v": 100
    },
    {
      "midi": 77,
      "hit": false,
      "t": 134024.14900000062,
      "d": 121.95100000000093,
      "v": 100
    },
    {
      "midi": 44,
      "hit": false,
      "t": 134024.1490000008,
      "d": 1.0162583333440125,
      "v": 100
    },
    {
      "midi": 72,
      "hit": false,
      "t": 134024.14900003537,
      "d": 60.975500000000466,
      "v": 100
    },
    {
      "midi": 77,
      "hit": false,
      "t": 134024.14900003537,
      "d": 60.975500000000466,
      "v": 100
    },
    {
      "midi": 69,
      "hit": false,
      "t": 134024.14900003537,
      "d": 60.975500000000466,
      "v": 100
    },
    {
      "midi": 81,
      "hit": false,
      "t": 134146.10000000033,
      "d": 487.8040000000037,
      "v": 100
    },
    {
      "midi": 77,
      "hit": false,
      "t": 134146.10000000033,
      "d": 487.8040000000037,
      "v": 100
    },
    {
      "midi": 74,
      "hit": false,
      "t": 134146.10000000033,
      "d": 487.8040000000037,
      "v": 100
    },
    {
      "midi": 77,
      "hit": false,
      "t": 134146.10000000047,
      "d": 365.8530000000028,
      "v": 100
    },
    {
      "midi": 41,
      "hit": false,
      "t": 134146.1000000005,
      "d": 243.90200000000186,
      "v": 100
    },
    {
      "midi": 65,
      "hit": false,
      "t": 134146.10000000062,
      "d": 121.95100000000093,
      "v": 100
    },
    {
      "midi": 60,
      "hit": false,
      "t": 134146.10000000073,
      "d": 121.95100000000093,
      "v": 100
    },
    {
      "midi": 33,
      "hit": false,
      "t": 134146.1000000008,
      "d": 1.0162583333440125,
      "v": 127
    },
    {
      "midi": 40,
      "hit": false,
      "t": 134146.1000000008,
      "d": 1.0162583333440125,
      "v": 100
    },
    {
      "midi": 46,
      "hit": false,
      "t": 134146.1000000008,
      "d": 1.0162583333440125,
      "v": 100
    },
    {
      "midi": 57,
      "hit": false,
      "t": 134146.1000000008,
      "d": 1.0162583333440125,
      "v": 100
    },
    {
      "midi": 53,
      "hit": false,
      "t": 134146.10000000222,
      "d": 487.8040000000037,
      "v": 100
    },
    {
      "midi": 60,
      "hit": false,
      "t": 134146.10000000222,
      "d": 487.8040000000037,
      "v": 100
    },
    {
      "midi": 72,
      "hit": false,
      "t": 134146.10000003537,
      "d": 243.90199999985634,
      "v": 100
    },
    {
      "midi": 77,
      "hit": false,
      "t": 134146.10000003537,
      "d": 243.90199999985634,
      "v": 100
    },
    {
      "midi": 69,
      "hit": false,
      "t": 134146.10000003537,
      "d": 243.90199999985634,
      "v": 100
    },
    {
      "midi": 70,
      "hit": false,
      "t": 134268.05100000062,
      "d": 121.95100000000093,
      "v": 100
    },
    {
      "midi": 44,
      "hit": false,
      "t": 134268.0510000008,
      "d": 1.0162583333440125,
      "v": 100
    },
    {
      "midi": 41,
      "hit": false,
      "t": 134390.0020000005,
      "d": 243.90200000000186,
      "v": 100
    },
    {
      "midi": 74,
      "hit": false,
      "t": 134390.00200000062,
      "d": 121.95100000000093,
      "v": 100
    },
    {
      "midi": 40,
      "hit": false,
      "t": 134390.0020000008,
      "d": 1.0162583333440125,
      "v": 40
    },
    {
      "midi": 46,
      "hit": false,
      "t": 134390.0020000008,
      "d": 1.0162583333440125,
      "v": 100
    },
    {
      "midi": 72,
      "hit": false,
      "t": 134390.00200003522,
      "d": 60.975500000000466,
      "v": 100
    },
    {
      "midi": 77,
      "hit": false,
      "t": 134390.00200003522,
      "d": 60.975500000000466,
      "v": 100
    },
    {
      "midi": 69,
      "hit": false,
      "t": 134390.00200003522,
      "d": 60.975500000000466,
      "v": 100
    },
    {
      "midi": 77,
      "hit": false,
      "t": 134511.95300000062,
      "d": 121.95100000000093,
      "v": 100
    },
    {
      "midi": 40,
      "hit": false,
      "t": 134511.9530000008,
      "d": 1.0162583333440125,
      "v": 100
    },
    {
      "midi": 44,
      "hit": false,
      "t": 134511.9530000008,
      "d": 1.0162583333440125,
      "v": 100
    },
    {
      "midi": 72,
      "hit": false,
      "t": 134511.95300003522,
      "d": 60.975500000000466,
      "v": 100
    },
    {
      "midi": 77,
      "hit": false,
      "t": 134511.95300003522,
      "d": 60.975500000000466,
      "v": 100
    },
    {
      "midi": 69,
      "hit": false,
      "t": 134511.95300003522,
      "d": 60.975500000000466,
      "v": 100
    },
    {
      "midi": 80,
      "hit": false,
      "t": 134633.90400000033,
      "d": 487.8040000000037,
      "v": 100
    },
    {
      "midi": 75,
      "hit": false,
      "t": 134633.90400000033,
      "d": 487.8040000000037,
      "v": 100
    },
    {
      "midi": 72,
      "hit": false,
      "t": 134633.90400000033,
      "d": 487.8040000000037,
      "v": 100
    },
    {
      "midi": 75,
      "hit": false,
      "t": 134633.90400000048,
      "d": 243.90200000000186,
      "v": 100
    },
    {
      "midi": 32,
      "hit": false,
      "t": 134633.9040000005,
      "d": 243.90200000000186,
      "v": 100
    },
    {
      "midi": 68,
      "hit": false,
      "t": 134633.90400000062,
      "d": 121.95100000000093,
      "v": 100
    },
    {
      "midi": 60,
      "hit": false,
      "t": 134633.90400000074,
      "d": 121.95100000000093,
      "v": 100
    },
    {
      "midi": 33,
      "hit": false,
      "t": 134633.9040000008,
      "d": 1.0162583333440125,
      "v": 127
    },
    {
      "midi": 42,
      "hit": false,
      "t": 134633.9040000008,
      "d": 1.0162583333440125,
      "v": 100
    },
    {
      "midi": 57,
      "hit": false,
      "t": 134633.9040000008,
      "d": 1.0162583333440125,
      "v": 100
    },
    {
      "midi": 44,
      "hit": false,
      "t": 134633.90400000222,
      "d": 853.6570000000065,
      "v": 100
    },
    {
      "midi": 51,
      "hit": false,
      "t": 134633.90400000222,
      "d": 853.6570000000065,
      "v": 100
    },
    {
      "midi": 63,
      "hit": false,
      "t": 134633.90400003523,
      "d": 487.8040000000037,
      "v": 100
    },
    {
      "midi": 68,
      "hit": false,
      "t": 134633.90400003523,
      "d": 487.8040000000037,
      "v": 100
    },
    {
      "midi": 60,
      "hit": false,
      "t": 134633.90400003523,
      "d": 487.8040000000037,
      "v": 100
    },
    {
      "midi": 60,
      "hit": false,
      "t": 134755.85500000062,
      "d": 121.95100000000093,
      "v": 100
    },
    {
      "midi": 58,
      "hit": false,
      "t": 134755.85500000074,
      "d": 121.95100000000093,
      "v": 100
    },
    {
      "midi": 75,
      "hit": false,
      "t": 134877.80600000048,
      "d": 243.90200000000186,
      "v": 100
    },
    {
      "midi": 32,
      "hit": false,
      "t": 134877.8060000005,
      "d": 243.90200000000186,
      "v": 100
    },
    {
      "midi": 63,
      "hit": false,
      "t": 134877.80600000062,
      "d": 121.95100000000093,
      "v": 100
    },
    {
      "midi": 46,
      "hit": false,
      "t": 134877.8060000008,
      "d": 1.0162583333440125,
      "v": 100
    },
    {
      "midi": 68,
      "hit": false,
      "t": 134999.75700000062,
      "d": 121.95100000000093,
      "v": 100
    },
    {
      "midi": 60,
      "hit": false,
      "t": 134999.75700000074,
      "d": 121.95100000000093,
      "v": 100
    },
    {
      "midi": 44,
      "hit": false,
      "t": 134999.7570000008,
      "d": 1.0162583333440125,
      "v": 100
    },
    {
      "midi": 75,
      "hit": false,
      "t": 135121.70800000048,
      "d": 243.90200000000186,
      "v": 100
    },
    {
      "midi": 32,
      "hit": false,
      "t": 135121.7080000005,
      "d": 243.90200000000186,
      "v": 100
    },
    {
      "midi": 72,
      "hit": false,
      "t": 135121.70800000062,
      "d": 121.95100000000093,
      "v": 100
    },
    {
      "midi": 33,
      "hit": false,
      "t": 135121.7080000008,
      "d": 1.0162583333440125,
      "v": 127
    },
    {
      "midi": 40,
      "hit": false,
      "t": 135121.7080000008,
      "d": 1.0162583333440125,
      "v": 100
    },
    {
      "midi": 46,
      "hit": false,
      "t": 135121.7080000008,
      "d": 1.0162583333440125,
      "v": 100
    },
    {
      "midi": 63,
      "hit": false,
      "t": 135121.70800003523,
      "d": 60.97549999988405,
      "v": 100
    },
    {
      "midi": 68,
      "hit": false,
      "t": 135121.70800003523,
      "d": 60.97549999988405,
      "v": 100
    },
    {
      "midi": 60,
      "hit": false,
      "t": 135121.70800003523,
      "d": 60.97549999988405,
      "v": 100
    },
    {
      "midi": 75,
      "hit": false,
      "t": 135243.65900000063,
      "d": 121.95100000000093,
      "v": 100
    },
    {
      "midi": 55,
      "hit": false,
      "t": 135243.65900000074,
      "d": 121.95100000000093,
      "v": 100
    },
    {
      "midi": 44,
      "hit": false,
      "t": 135243.6590000008,
      "d": 1.0162583333440125,
      "v": 100
    },
    {
      "midi": 63,
      "hit": false,
      "t": 135243.6590000351,
      "d": 60.975500000000466,
      "v": 100
    },
    {
      "midi": 68,
      "hit": false,
      "t": 135243.6590000351,
      "d": 60.975500000000466,
      "v": 100
    },
    {
      "midi": 60,
      "hit": false,
      "t": 135243.6590000351,
      "d": 60.975500000000466,
      "v": 100
    },
    {
      "midi": 75,
      "hit": false,
      "t": 135365.61000000048,
      "d": 121.95100000000093,
      "v": 100
    },
    {
      "midi": 32,
      "hit": false,
      "t": 135365.6100000005,
      "d": 121.95100000000093,
      "v": 100
    },
    {
      "midi": 80,
      "hit": false,
      "t": 135365.61000000063,
      "d": 121.95100000000093,
      "v": 100
    },
    {
      "midi": 46,
      "hit": false,
      "t": 135365.6100000008,
      "d": 1.0162583333440125,
      "v": 100
    },
    {
      "midi": 63,
      "hit": false,
      "t": 135365.61000003503,
      "d": 60.975500000000466,
      "v": 100
    },
    {
      "midi": 68,
      "hit": false,
      "t": 135365.61000003503,
      "d": 60.975500000000466,
      "v": 100
    },
    {
      "midi": 60,
      "hit": false,
      "t": 135365.61000003503,
      "d": 60.975500000000466,
      "v": 100
    },
    {
      "midi": 77,
      "hit": false,
      "t": 135487.56100000048,
      "d": 243.90200000000186,
      "v": 100
    },
    {
      "midi": 34,
      "hit": false,
      "t": 135487.5610000005,
      "d": 243.90200000000186,
      "v": 100
    },
    {
      "midi": 72,
      "hit": false,
      "t": 135487.56100000063,
      "d": 121.95100000000093,
      "v": 100
    },
    {
      "midi": 55,
      "hit": false,
      "t": 135487.56100000074,
      "d": 121.95100000000093,
      "v": 100
    },
    {
      "midi": 44,
      "hit": false,
      "t": 135487.5610000008,
      "d": 1.0162583333440125,
      "v": 100
    },
    {
      "midi": 46,
      "hit": false,
      "t": 135487.56100000223,
      "d": 243.90200000000186,
      "v": 100
    },
    {
      "midi": 63,
      "hit": false,
      "t": 135487.56100003503,
      "d": 60.975500000000466,
      "v": 100
    },
    {
      "midi": 68,
      "hit": false,
      "t": 135487.56100003503,
      "d": 60.975500000000466,
      "v": 100
    },
    {
      "midi": 60,
      "hit": false,
      "t": 135487.56100003503,
      "d": 60.975500000000466,
      "v": 100
    },
    {
      "midi": 77,
      "hit": false,
      "t": 135609.51200000034,
      "d": 487.8040000000037,
      "v": 100
    },
    {
      "midi": 74,
      "hit": false,
      "t": 135609.51200000034,
      "d": 487.8040000000037,
      "v": 100
    },
    {
      "midi": 70,
      "hit": false,
      "t": 135609.51200000034,
      "d": 487.8040000000037,
      "v": 100
    },
    {
      "midi": 77,
      "hit": false,
      "t": 135609.51200000063,
      "d": 121.95100000000093,
      "v": 100
    },
    {
      "midi": 33,
      "hit": false,
      "t": 135609.5120000008,
      "d": 1.0162583333440125,
      "v": 127
    },
    {
      "midi": 42,
      "hit": false,
      "t": 135609.5120000008,
      "d": 1.0162583333440125,
      "v": 100
    },
    {
      "midi": 65,
      "hit": false,
      "t": 135609.51200003503,
      "d": 60.97549999988405,
      "v": 100
    },
    {
      "midi": 70,
      "hit": false,
      "t": 135609.51200003503,
      "d": 60.97549999988405,
      "v": 100
    },
    {
      "midi": 62,
      "hit": false,
      "t": 135609.51200003503,
      "d": 60.97549999988405,
      "v": 100
    },
    {
      "midi": 77,
      "hit": false,
      "t": 135731.46300000048,
      "d": 121.95100000000093,
      "v": 100
    },
    {
      "midi": 34,
      "hit": false,
      "t": 135731.4630000005,
      "d": 121.95100000000093,
      "v": 100
    },
    {
      "midi": 82,
      "hit": false,
      "t": 135731.46300000063,
      "d": 121.95100000000093,
      "v": 100
    },
    {
      "midi": 55,
      "hit": false,
      "t": 135731.46300000075,
      "d": 121.95100000000093,
      "v": 100
    },
    {
      "midi": 46,
      "hit": false,
      "t": 135731.46300000223,
      "d": 121.95100000000093,
      "v": 100
    },
    {
      "midi": 65,
      "hit": false,
      "t": 135731.4630000349,
      "d": 60.975500000000466,
      "v": 100
    },
    {
      "midi": 70,
      "hit": false,
      "t": 135731.4630000349,
      "d": 60.975500000000466,
      "v": 100
    },
    {
      "midi": 62,
      "hit": false,
      "t": 135731.4630000349,
      "d": 60.975500000000466,
      "v": 100
    },
    {
      "midi": 77,
      "hit": false,
      "t": 135853.41400000048,
      "d": 243.90200000000186,
      "v": 100
    },
    {
      "midi": 34,
      "hit": false,
      "t": 135853.4140000005,
      "d": 243.90200000000186,
      "v": 100
    },
    {
      "midi": 74,
      "hit": false,
      "t": 135853.41400000063,
      "d": 121.95100000000093,
      "v": 100
    },
    {
      "midi": 58,
      "hit": false,
      "t": 135853.41400000075,
      "d": 121.95100000000093,
      "v": 100
    },
    {
      "midi": 46,
      "hit": false,
      "t": 135853.4140000008,
      "d": 1.0162583333440125,
      "v": 100
    },
    {
      "midi": 46,
      "hit": false,
      "t": 135853.41400000223,
      "d": 243.90200000000186,
      "v": 100
    },
    {
      "midi": 53,
      "hit": false,
      "t": 135853.41400000223,
      "d": 243.90200000000186,
      "v": 100
    },
    {
      "midi": 65,
      "hit": false,
      "t": 135853.41400003483,
      "d": 60.975500000000466,
      "v": 100
    },
    {
      "midi": 70,
      "hit": false,
      "t": 135853.41400003483,
      "d": 60.975500000000466,
      "v": 100
    },
    {
      "midi": 62,
      "hit": false,
      "t": 135853.41400003483,
      "d": 60.975500000000466,
      "v": 100
    },
    {
      "midi": 70,
      "hit": false,
      "t": 135975.36500000063,
      "d": 121.95100000000093,
      "v": 100
    },
    {
      "midi": 44,
      "hit": false,
      "t": 135975.3650000008,
      "d": 1.0162583333440125,
      "v": 100
    },
    {
      "midi": 65,
      "hit": false,
      "t": 135975.36500003483,
      "d": 60.975500000000466,
      "v": 100
    },
    {
      "midi": 70,
      "hit": false,
      "t": 135975.36500003483,
      "d": 60.975500000000466,
      "v": 100
    },
    {
      "midi": 62,
      "hit": false,
      "t": 135975.36500003483,
      "d": 60.975500000000466,
      "v": 100
    },
    {
      "midi": 75,
      "hit": false,
      "t": 136097.3160000005,
      "d": 243.90200000000186,
      "v": 100
    },
    {
      "midi": 34,
      "hit": false,
      "t": 136097.31600000052,
      "d": 243.90200000000186,
      "v": 100
    },
    {
      "midi": 74,
      "hit": false,
      "t": 136097.31600000063,
      "d": 121.95100000000093,
      "v": 100
    },
    {
      "midi": 60,
      "hit": false,
      "t": 136097.31600000075,
      "d": 121.95100000000093,
      "v": 100
    },
    {
      "midi": 33,
      "hit": false,
      "t": 136097.3160000008,
      "d": 1.0162583333440125,
      "v": 127
    },
    {
      "midi": 40,
      "hit": false,
      "t": 136097.3160000008,
      "d": 1.0162583333440125,
      "v": 100
    },
    {
      "midi": 46,
      "hit": false,
      "t": 136097.3160000008,
      "d": 1.0162583333440125,
      "v": 100
    },
    {
      "midi": 46,
      "hit": false,
      "t": 136097.31600000223,
      "d": 487.8040000000037,
      "v": 100
    },
    {
      "midi": 53,
      "hit": false,
      "t": 136097.31600000223,
      "d": 487.8040000000037,
      "v": 100
    },
    {
      "midi": 65,
      "hit": false,
      "t": 136097.31600003483,
      "d": 121.95099999991362,
      "v": 100
    },
    {
      "midi": 70,
      "hit": false,
      "t": 136097.31600003483,
      "d": 121.95099999991362,
      "v": 100
    },
    {
      "midi": 62,
      "hit": false,
      "t": 136097.31600003483,
      "d": 121.95099999991362,
      "v": 100
    },
    {
      "midi": 77,
      "hit": false,
      "t": 136219.26700000063,
      "d": 121.95100000000093,
      "v": 100
    },
    {
      "midi": 44,
      "hit": false,
      "t": 136219.2670000008,
      "d": 1.0162583333440125,
      "v": 100
    },
    {
      "midi": 65,
      "hit": false,
      "t": 136219.26700003474,
      "d": 121.95099999994272,
      "v": 100
    },
    {
      "midi": 70,
      "hit": false,
      "t": 136219.26700003474,
      "d": 121.95099999994272,
      "v": 100
    },
    {
      "midi": 62,
      "hit": false,
      "t": 136219.26700003474,
      "d": 121.95099999994272,
      "v": 100
    },
    {
      "midi": 77,
      "hit": false,
      "t": 136341.2180000005,
      "d": 243.90200000000186,
      "v": 100
    },
    {
      "midi": 34,
      "hit": false,
      "t": 136341.21800000052,
      "d": 243.90200000000186,
      "v": 100
    },
    {
      "midi": 82,
      "hit": false,
      "t": 136341.21800000063,
      "d": 121.95100000000093,
      "v": 100
    },
    {
      "midi": 46,
      "hit": false,
      "t": 136341.2180000008,
      "d": 1.0162583333440125,
      "v": 100
    },
    {
      "midi": 65,
      "hit": false,
      "t": 136341.21800003469,
      "d": 60.975500000000466,
      "v": 100
    },
    {
      "midi": 70,
      "hit": false,
      "t": 136341.21800003469,
      "d": 60.975500000000466,
      "v": 100
    },
    {
      "midi": 62,
      "hit": false,
      "t": 136341.21800003469,
      "d": 60.975500000000466,
      "v": 100
    },
    {
      "midi": 70,
      "hit": false,
      "t": 136463.16900000063,
      "d": 121.95100000000093,
      "v": 100
    },
    {
      "midi": 44,
      "hit": false,
      "t": 136463.1690000008,
      "d": 1.0162583333440125,
      "v": 100
    },
    {
      "midi": 65,
      "hit": false,
      "t": 136463.1690000347,
      "d": 60.975500000000466,
      "v": 100
    },
    {
      "midi": 70,
      "hit": false,
      "t": 136463.1690000347,
      "d": 60.975500000000466,
      "v": 100
    },
    {
      "midi": 62,
      "hit": false,
      "t": 136463.1690000347,
      "d": 60.975500000000466,
      "v": 100
    },
    {
      "midi": 72,
      "hit": false,
      "t": 136585.12000000034,
      "d": 487.8040000000037,
      "v": 100
    },
    {
      "midi": 67,
      "hit": false,
      "t": 136585.12000000034,
      "d": 487.8040000000037,
      "v": 100
    },
    {
      "midi": 63,
      "hit": false,
      "t": 136585.12000000034,
      "d": 487.8040000000037,
      "v": 100
    },
    {
      "midi": 75,
      "hit": false,
      "t": 136585.1200000005,
      "d": 243.90200000000186,
      "v": 100
    },
    {
      "midi": 36,
      "hit": false,
      "t": 136585.12000000052,
      "d": 243.90200000000186,
      "v": 100
    },
    {
      "midi": 60,
      "hit": false,
      "t": 136585.12000000064,
      "d": 121.95100000000093,
      "v": 100
    },
    {
      "midi": 33,
      "hit": false,
      "t": 136585.1200000008,
      "d": 1.0162583333440125,
      "v": 127
    },
    {
      "midi": 42,
      "hit": false,
      "t": 136585.1200000008,
      "d": 1.0162583333440125,
      "v": 100
    },
    {
      "midi": 48,
      "hit": false,
      "t": 136585.12000000224,
      "d": 1951.2159999999858,
      "v": 100
    },
    {
      "midi": 55,
      "hit": false,
      "t": 136585.12000000224,
      "d": 1951.2159999999858,
      "v": 100
    },
    {
      "midi": 67,
      "hit": false,
      "t": 136585.1200000347,
      "d": 487.8040000000037,
      "v": 100
    },
    {
      "midi": 63,
      "hit": false,
      "t": 136585.1200000347,
      "d": 487.8040000000037,
      "v": 100
    },
    {
      "midi": 72,
      "hit": false,
      "t": 136585.1200000347,
      "d": 487.8040000000037,
      "v": 100
    },
    {
      "midi": 55,
      "hit": false,
      "t": 136707.07100000064,
      "d": 121.95100000000093,
      "v": 100
    },
    {
      "midi": 40,
      "hit": false,
      "t": 136707.0710000008,
      "d": 1.0162583333440125,
      "v": 100
    },
    {
      "midi": 72,
      "hit": false,
      "t": 136829.0220000005,
      "d": 243.90200000000186,
      "v": 100
    },
    {
      "midi": 36,
      "hit": false,
      "t": 136829.02200000052,
      "d": 243.90200000000186,
      "v": 100
    },
    {
      "midi": 67,
      "hit": false,
      "t": 136829.02200000064,
      "d": 121.95100000000093,
      "v": 100
    },
    {
      "midi": 63,
      "hit": false,
      "t": 136829.02200000075,
      "d": 121.95100000000093,
      "v": 100
    },
    {
      "midi": 46,
      "hit": false,
      "t": 136829.0220000008,
      "d": 1.0162583333440125,
      "v": 100
    },
    {
      "midi": 60,
      "hit": false,
      "t": 136950.97300000064,
      "d": 121.95100000000093,
      "v": 100
    },
    {
      "midi": 44,
      "hit": false,
      "t": 136950.9730000008,
      "d": 1.0162583333440125,
      "v": 100
    },
    {
      "midi": 72,
      "hit": false,
      "t": 137072.9240000005,
      "d": 243.90200000000186,
      "v": 100
    },
    {
      "midi": 36,
      "hit": false,
      "t": 137072.92400000052,
      "d": 243.90200000000186,
      "v": 100
    },
    {
      "midi": 72,
      "hit": false,
      "t": 137072.92400000064,
      "d": 121.95100000000093,
      "v": 100
    },
    {
      "midi": 63,
      "hit": false,
      "t": 137072.92400000076,
      "d": 121.95100000000093,
      "v": 100
    },
    {
      "midi": 33,
      "hit": false,
      "t": 137072.9240000008,
      "d": 1.0162583333440125,
      "v": 127
    },
    {
      "midi": 40,
      "hit": false,
      "t": 137072.9240000008,
      "d": 1.0162583333440125,
      "v": 40
    },
    {
      "midi": 46,
      "hit": false,
      "t": 137072.9240000008,
      "d": 1.0162583333440125,
      "v": 100
    },
    {
      "midi": 67,
      "hit": false,
      "t": 137072.9240000347,
      "d": 60.97549999988405,
      "v": 100
    },
    {
      "midi": 63,
      "hit": false,
      "t": 137072.9240000347,
      "d": 60.97549999988405,
      "v": 100
    },
    {
      "midi": 72,
      "hit": false,
      "t": 137072.9240000347,
      "d": 60.97549999988405,
      "v": 100
    },
    {
      "midi": 55,
      "hit": false,
      "t": 137194.87500000064,
      "d": 121.95100000000093,
      "v": 100
    },
    {
      "midi": 65,
      "hit": false,
      "t": 137194.87500000076,
      "d": 365.8530000000028,
      "v": 100
    },
    {
      "midi": 44,
      "hit": false,
      "t": 137194.87500000081,
      "d": 1.0162583333440125,
      "v": 100
    },
    {
      "midi": 67,
      "hit": false,
      "t": 137194.87500003458,
      "d": 60.975500000000466,
      "v": 100
    },
    {
      "midi": 63,
      "hit": false,
      "t": 137194.87500003458,
      "d": 60.975500000000466,
      "v": 100
    },
    {
      "midi": 72,
      "hit": false,
      "t": 137194.87500003458,
      "d": 60.975500000000466,
      "v": 100
    },
    {
      "midi": 70,
      "hit": false,
      "t": 137316.8260000005,
      "d": 121.95100000000093,
      "v": 100
    },
    {
      "midi": 36,
      "hit": false,
      "t": 137316.82600000052,
      "d": 121.95100000000093,
      "v": 100
    },
    {
      "midi": 60,
      "hit": false,
      "t": 137316.82600000064,
      "d": 121.95100000000093,
      "v": 100
    },
    {
      "midi": 46,
      "hit": false,
      "t": 137316.82600000082,
      "d": 1.0162583333440125,
      "v": 100
    },
    {
      "midi": 67,
      "hit": false,
      "t": 137316.8260000345,
      "d": 60.975500000000466,
      "v": 100
    },
    {
      "midi": 63,
      "hit": false,
      "t": 137316.8260000345,
      "d": 60.975500000000466,
      "v": 100
    },
    {
      "midi": 72,
      "hit": false,
      "t": 137316.8260000345,
      "d": 60.975500000000466,
      "v": 100
    },
    {
      "midi": 72,
      "hit": false,
      "t": 137438.7770000005,
      "d": 853.6570000000065,
      "v": 100
    },
    {
      "midi": 36,
      "hit": false,
      "t": 137438.77700000053,
      "d": 243.90200000000186,
      "v": 100
    },
    {
      "midi": 67,
      "hit": false,
      "t": 137438.77700000064,
      "d": 121.95100000000093,
      "v": 100
    },
    {
      "midi": 44,
      "hit": false,
      "t": 137438.77700000082,
      "d": 1.0162583333440125,
      "v": 100
    },
    {
      "midi": 40,
      "hit": false,
      "t": 137438.77700000082,
      "d": 1.0162583333440125,
      "v": 100
    },
    {
      "midi": 67,
      "hit": false,
      "t": 137438.7770000345,
      "d": 60.975500000000466,
      "v": 100
    },
    {
      "midi": 63,
      "hit": false,
      "t": 137438.7770000345,
      "d": 60.975500000000466,
      "v": 100
    },
    {
      "midi": 72,
      "hit": false,
      "t": 137438.7770000345,
      "d": 60.975500000000466,
      "v": 100
    },
    {
      "midi": 70,
      "hit": false,
      "t": 137560.72800000035,
      "d": 487.8040000000037,
      "v": 100
    },
    {
      "midi": 67,
      "hit": false,
      "t": 137560.72800000035,
      "d": 487.8040000000037,
      "v": 100
    },
    {
      "midi": 63,
      "hit": false,
      "t": 137560.72800000035,
      "d": 487.8040000000037,
      "v": 100
    },
    {
      "midi": 60,
      "hit": false,
      "t": 137560.72800000064,
      "d": 121.95100000000093,
      "v": 100
    },
    {
      "midi": 63,
      "hit": false,
      "t": 137560.72800000076,
      "d": 121.95100000000093,
      "v": 100
    },
    {
      "midi": 42,
      "hit": false,
      "t": 137560.72800000082,
      "d": 1.0162583333440125,
      "v": 100
    },
    {
      "midi": 33,
      "hit": false,
      "t": 137560.72800000082,
      "d": 1.0162583333440125,
      "v": 127
    },
    {
      "midi": 67,
      "hit": false,
      "t": 137560.7280000345,
      "d": 60.97549999988405,
      "v": 100
    },
    {
      "midi": 63,
      "hit": false,
      "t": 137560.7280000345,
      "d": 60.97549999988405,
      "v": 100
    },
    {
      "midi": 72,
      "hit": false,
      "t": 137560.7280000345,
      "d": 60.97549999988405,
      "v": 100
    },
    {
      "midi": 36,
      "hit": false,
      "t": 137682.67900000053,
      "d": 121.95100000000093,
      "v": 100
    },
    {
      "midi": 41,
      "hit": false,
      "t": 137682.67900000053,
      "d": 1.0162583333440125,
      "v": 100
    },
    {
      "midi": 55,
      "hit": false,
      "t": 137682.67900000064,
      "d": 121.95100000000093,
      "v": 100
    },
    {
      "midi": 60,
      "hit": false,
      "t": 137682.67900000076,
      "d": 121.95100000000093,
      "v": 100
    },
    {
      "midi": 33,
      "hit": false,
      "t": 137682.67900000082,
      "d": 1.0162583333440125,
      "v": 127
    },
    {
      "midi": 40,
      "hit": false,
      "t": 137682.67900000082,
      "d": 1.0162583333440125,
      "v": 100
    },
    {
      "midi": 67,
      "hit": false,
      "t": 137682.67900003438,
      "d": 60.975500000000466,
      "v": 100
    },
    {
      "midi": 63,
      "hit": false,
      "t": 137682.67900003438,
      "d": 60.975500000000466,
      "v": 100
    },
    {
      "midi": 72,
      "hit": false,
      "t": 137682.67900003438,
      "d": 60.975500000000466,
      "v": 100
    },
    {
      "midi": 36,
      "hit": false,
      "t": 137804.63000000053,
      "d": 243.90200000000186,
      "v": 100
    },
    {
      "midi": 72,
      "hit": false,
      "t": 137804.63000000064,
      "d": 121.95100000000093,
      "v": 100
    },
    {
      "midi": 58,
      "hit": false,
      "t": 137804.63000000076,
      "d": 121.95100000000093,
      "v": 100
    },
    {
      "midi": 46,
      "hit": false,
      "t": 137804.63000000082,
      "d": 1.0162583333440125,
      "v": 100
    },
    {
      "midi": 67,
      "hit": false,
      "t": 137804.6300000343,
      "d": 60.975500000000466,
      "v": 100
    },
    {
      "midi": 63,
      "hit": false,
      "t": 137804.6300000343,
      "d": 60.975500000000466,
      "v": 100
    },
    {
      "midi": 72,
      "hit": false,
      "t": 137804.6300000343,
      "d": 60.975500000000466,
      "v": 100
    },
    {
      "midi": 60,
      "hit": false,
      "t": 137926.58100000065,
      "d": 121.95100000000093,
      "v": 100
    },
    {
      "midi": 44,
      "hit": false,
      "t": 137926.58100000082,
      "d": 1.0162583333440125,
      "v": 100
    },
    {
      "midi": 33,
      "hit": false,
      "t": 137926.58100000082,
      "d": 1.0162583333440125,
      "v": 127
    },
    {
      "midi": 67,
      "hit": false,
      "t": 137926.5810000343,
      "d": 60.975500000000466,
      "v": 100
    },
    {
      "midi": 63,
      "hit": false,
      "t": 137926.5810000343,
      "d": 60.975500000000466,
      "v": 100
    },
    {
      "midi": 72,
      "hit": false,
      "t": 137926.5810000343,
      "d": 60.975500000000466,
      "v": 100
    },
    {
      "midi": 72,
      "hit": false,
      "t": 138048.53200000036,
      "d": 487.8040000000037,
      "v": 100
    },
    {
      "midi": 67,
      "hit": false,
      "t": 138048.53200000036,
      "d": 487.8040000000037,
      "v": 100
    },
    {
      "midi": 63,
      "hit": false,
      "t": 138048.53200000036,
      "d": 487.8040000000037,
      "v": 100
    },
    {
      "midi": 36,
      "hit": false,
      "t": 138048.53200000053,
      "d": 243.90200000000186,
      "v": 100
    },
    {
      "midi": 41,
      "hit": false,
      "t": 138048.53200000053,
      "d": 1.0162583333440125,
      "v": 100
    },
    {
      "midi": 72,
      "hit": false,
      "t": 138048.53200000065,
      "d": 121.95100000000093,
      "v": 100
    },
    {
      "midi": 60,
      "hit": false,
      "t": 138048.53200000076,
      "d": 121.95100000000093,
      "v": 100
    },
    {
      "midi": 40,
      "hit": false,
      "t": 138048.53200000082,
      "d": 1.0162583333440125,
      "v": 100
    },
    {
      "midi": 46,
      "hit": false,
      "t": 138048.53200000082,
      "d": 1.0162583333440125,
      "v": 100
    },
    {
      "midi": 33,
      "hit": false,
      "t": 138048.53200000082,
      "d": 1.0162583333440125,
      "v": 127
    },
    {
      "midi": 57,
      "hit": false,
      "t": 138048.53200000082,
      "d": 1.0162583333440125,
      "v": 100
    },
    {
      "midi": 67,
      "hit": false,
      "t": 138048.5320000343,
      "d": 121.95099999991362,
      "v": 100
    },
    {
      "midi": 63,
      "hit": false,
      "t": 138048.5320000343,
      "d": 121.95099999991362,
      "v": 100
    },
    {
      "midi": 72,
      "hit": false,
      "t": 138048.5320000343,
      "d": 121.95099999991362,
      "v": 100
    },
    {
      "midi": 60,
      "hit": false,
      "t": 138170.48300000065,
      "d": 121.95100000000093,
      "v": 100
    },
    {
      "midi": 44,
      "hit": false,
      "t": 138170.48300000082,
      "d": 1.0162583333440125,
      "v": 100
    },
    {
      "midi": 67,
      "hit": false,
      "t": 138170.4830000342,
      "d": 121.95099999994272,
      "v": 100
    },
    {
      "midi": 63,
      "hit": false,
      "t": 138170.4830000342,
      "d": 121.95099999994272,
      "v": 100
    },
    {
      "midi": 72,
      "hit": false,
      "t": 138170.4830000342,
      "d": 121.95099999994272,
      "v": 100
    },
    {
      "midi": 36,
      "hit": false,
      "t": 138292.43400000053,
      "d": 243.90200000000186,
      "v": 100
    },
    {
      "midi": 67,
      "hit": false,
      "t": 138292.43400000065,
      "d": 121.95100000000093,
      "v": 100
    },
    {
      "midi": 40,
      "hit": false,
      "t": 138292.43400000082,
      "d": 1.0162583333440125,
      "v": 100
    },
    {
      "midi": 46,
      "hit": false,
      "t": 138292.43400000082,
      "d": 1.0162583333440125,
      "v": 100
    },
    {
      "midi": 33,
      "hit": false,
      "t": 138292.43400000082,
      "d": 1.0162583333440125,
      "v": 127
    },
    {
      "midi": 67,
      "hit": false,
      "t": 138292.43400003415,
      "d": 60.975500000000466,
      "v": 100
    },
    {
      "midi": 63,
      "hit": false,
      "t": 138292.43400003415,
      "d": 60.975500000000466,
      "v": 100
    },
    {
      "midi": 72,
      "hit": false,
      "t": 138292.43400003415,
      "d": 60.975500000000466,
      "v": 100
    },
    {
      "midi": 60,
      "hit": false,
      "t": 138414.38500000065,
      "d": 121.95100000000093,
      "v": 100
    },
    {
      "midi": 40,
      "hit": false,
      "t": 138414.38500000082,
      "d": 1.0162583333440125,
      "v": 100
    },
    {
      "midi": 44,
      "hit": false,
      "t": 138414.38500000082,
      "d": 1.0162583333440125,
      "v": 100
    },
    {
      "midi": 33,
      "hit": false,
      "t": 138414.38500000082,
      "d": 1.0162583333440125,
      "v": 127
    },
    {
      "midi": 67,
      "hit": false,
      "t": 138414.38500003415,
      "d": 60.975500000000466,
      "v": 100
    },
    {
      "midi": 63,
      "hit": false,
      "t": 138414.38500003415,
      "d": 60.975500000000466,
      "v": 100
    },
    {
      "midi": 72,
      "hit": false,
      "t": 138414.38500003415,
      "d": 60.975500000000466,
      "v": 100
    },
    {
      "midi": 75,
      "hit": false,
      "t": 138536.336,
      "d": 731.7060000000056,
      "v": 100
    },
    {
      "midi": 72,
      "hit": false,
      "t": 138536.33600000036,
      "d": 731.7060000000056,
      "v": 100
    },
    {
      "midi": 63,
      "hit": false,
      "t": 138536.33600000036,
      "d": 731.7060000000056,
      "v": 100
    },
    {
      "midi": 68,
      "hit": false,
      "t": 138536.33600000036,
      "d": 731.7060000000056,
      "v": 100
    },
    {
      "midi": 80,
      "hit": false,
      "t": 138536.3360000005,
      "d": 487.8040000000037,
      "v": 100
    },
    {
      "midi": 32,
      "hit": false,
      "t": 138536.33600000053,
      "d": 243.90200000000186,
      "v": 100
    },
    {
      "midi": 72,
      "hit": false,
      "t": 138536.33600000077,
      "d": 365.8530000000028,
      "v": 100
    },
    {
      "midi": 68,
      "hit": false,
      "t": 138536.33600000077,
      "d": 365.8530000000028,
      "v": 100
    },
    {
      "midi": 63,
      "hit": false,
      "t": 138536.33600000077,
      "d": 365.8530000000028,
      "v": 100
    },
    {
      "midi": 33,
      "hit": false,
      "t": 138536.33600000083,
      "d": 1.0162583333440125,
      "v": 127
    },
    {
      "midi": 42,
      "hit": false,
      "t": 138536.33600000083,
      "d": 1.0162583333440125,
      "v": 100
    },
    {
      "midi": 57,
      "hit": false,
      "t": 138536.33600000083,
      "d": 1.0162583333440125,
      "v": 100
    },
    {
      "midi": 44,
      "hit": false,
      "t": 138536.33600000222,
      "d": 487.8040000000037,
      "v": 100
    },
    {
      "midi": 51,
      "hit": false,
      "t": 138536.33600000222,
      "d": 487.8040000000037,
      "v": 100
    },
    {
      "midi": 67,
      "hit": false,
      "t": 138536.33600003415,
      "d": 487.8040000000037,
      "v": 100
    },
    {
      "midi": 63,
      "hit": false,
      "t": 138536.33600003415,
      "d": 487.8040000000037,
      "v": 100
    },
    {
      "midi": 72,
      "hit": false,
      "t": 138536.33600003415,
      "d": 487.8040000000037,
      "v": 100
    },
    {
      "midi": 32,
      "hit": false,
      "t": 138780.23800000054,
      "d": 243.90200000000186,
      "v": 100
    },
    {
      "midi": 46,
      "hit": false,
      "t": 138780.23800000083,
      "d": 1.0162583333440125,
      "v": 100
    },
    {
      "midi": 72,
      "hit": false,
      "t": 138902.18900000077,
      "d": 121.95100000000093,
      "v": 100
    },
    {
      "midi": 68,
      "hit": false,
      "t": 138902.18900000077,
      "d": 121.95100000000093,
      "v": 100
    },
    {
      "midi": 63,
      "hit": false,
      "t": 138902.18900000077,
      "d": 121.95100000000093,
      "v": 100
    },
    {
      "midi": 44,
      "hit": false,
      "t": 138902.18900000083,
      "d": 1.0162583333440125,
      "v": 100
    },
    {
      "midi": 32,
      "hit": false,
      "t": 139024.14000000054,
      "d": 243.90200000000186,
      "v": 100
    },
    {
      "midi": 33,
      "hit": false,
      "t": 139024.14000000083,
      "d": 1.0162583333440125,
      "v": 127
    },
    {
      "midi": 40,
      "hit": false,
      "t": 139024.14000000083,
      "d": 1.0162583333440125,
      "v": 100
    },
    {
      "midi": 46,
      "hit": false,
      "t": 139024.14000000083,
      "d": 1.0162583333440125,
      "v": 100
    },
    {
      "midi": 44,
      "hit": false,
      "t": 139024.14000000223,
      "d": 121.95100000000093,
      "v": 100
    },
    {
      "midi": 67,
      "hit": false,
      "t": 139024.14000003415,
      "d": 60.97549999988405,
      "v": 100
    },
    {
      "midi": 63,
      "hit": false,
      "t": 139024.14000003415,
      "d": 60.97549999988405,
      "v": 100
    },
    {
      "midi": 72,
      "hit": false,
      "t": 139024.14000003415,
      "d": 60.97549999988405,
      "v": 100
    },
    {
      "midi": 44,
      "hit": false,
      "t": 139146.09100000083,
      "d": 1.0162583333440125,
      "v": 100
    },
    {
      "midi": 44,
      "hit": false,
      "t": 139146.09100000223,
      "d": 121.95100000000093,
      "v": 100
    },
    {
      "midi": 67,
      "hit": false,
      "t": 139146.09100003404,
      "d": 60.975500000000466,
      "v": 100
    },
    {
      "midi": 63,
      "hit": false,
      "t": 139146.09100003404,
      "d": 60.975500000000466,
      "v": 100
    },
    {
      "midi": 72,
      "hit": false,
      "t": 139146.09100003404,
      "d": 60.975500000000466,
      "v": 100
    },
    {
      "midi": 74,
      "hit": false,
      "t": 139268.04200000002,
      "d": 1219.5100000000093,
      "v": 100
    },
    {
      "midi": 74,
      "hit": false,
      "t": 139268.04200000037,
      "d": 1219.5100000000093,
      "v": 100
    },
    {
      "midi": 70,
      "hit": false,
      "t": 139268.04200000037,
      "d": 1219.5100000000093,
      "v": 100
    },
    {
      "midi": 65,
      "hit": false,
      "t": 139268.04200000037,
      "d": 1219.5100000000093,
      "v": 100
    },
    {
      "midi": 77,
      "hit": false,
      "t": 139268.0420000005,
      "d": 731.7060000000056,
      "v": 100
    },
    {
      "midi": 32,
      "hit": false,
      "t": 139268.04200000054,
      "d": 121.95100000000093,
      "v": 100
    },
    {
      "midi": 46,
      "hit": false,
      "t": 139268.04200000083,
      "d": 1.0162583333440125,
      "v": 100
    },
    {
      "midi": 46,
      "hit": false,
      "t": 139268.04200000223,
      "d": 487.8040000000037,
      "v": 100
    },
    {
      "midi": 53,
      "hit": false,
      "t": 139268.04200000223,
      "d": 487.8040000000037,
      "v": 100
    },
    {
      "midi": 67,
      "hit": false,
      "t": 139268.04200003395,
      "d": 60.975500000000466,
      "v": 100
    },
    {
      "midi": 63,
      "hit": false,
      "t": 139268.04200003395,
      "d": 60.975500000000466,
      "v": 100
    },
    {
      "midi": 72,
      "hit": false,
      "t": 139268.04200003395,
      "d": 60.975500000000466,
      "v": 100
    },
    {
      "midi": 34,
      "hit": false,
      "t": 139389.99300000054,
      "d": 243.90200000000186,
      "v": 100
    },
    {
      "midi": 44,
      "hit": false,
      "t": 139389.99300000083,
      "d": 1.0162583333440125,
      "v": 100
    },
    {
      "midi": 67,
      "hit": false,
      "t": 139389.99300003395,
      "d": 60.975500000000466,
      "v": 100
    },
    {
      "midi": 63,
      "hit": false,
      "t": 139389.99300003395,
      "d": 60.975500000000466,
      "v": 100
    },
    {
      "midi": 72,
      "hit": false,
      "t": 139389.99300003395,
      "d": 60.975500000000466,
      "v": 100
    },
    {
      "midi": 33,
      "hit": false,
      "t": 139511.94400000083,
      "d": 1.0162583333440125,
      "v": 127
    },
    {
      "midi": 42,
      "hit": false,
      "t": 139511.94400000083,
      "d": 1.0162583333440125,
      "v": 100
    },
    {
      "midi": 67,
      "hit": false,
      "t": 139511.94400003395,
      "d": 60.97549999988405,
      "v": 100
    },
    {
      "midi": 63,
      "hit": false,
      "t": 139511.94400003395,
      "d": 60.97549999988405,
      "v": 100
    },
    {
      "midi": 72,
      "hit": false,
      "t": 139511.94400003395,
      "d": 60.97549999988405,
      "v": 100
    },
    {
      "midi": 34,
      "hit": false,
      "t": 139633.89500000054,
      "d": 121.95100000000093,
      "v": 100
    },
    {
      "midi": 67,
      "hit": false,
      "t": 139633.89500003384,
      "d": 60.975500000000466,
      "v": 100
    },
    {
      "midi": 63,
      "hit": false,
      "t": 139633.89500003384,
      "d": 60.975500000000466,
      "v": 100
    },
    {
      "midi": 72,
      "hit": false,
      "t": 139633.89500003384,
      "d": 60.975500000000466,
      "v": 100
    },
    {
      "midi": 34,
      "hit": false,
      "t": 139755.84600000054,
      "d": 243.90200000000186,
      "v": 100
    },
    {
      "midi": 72,
      "hit": false,
      "t": 139755.84600000078,
      "d": 121.95100000000093,
      "v": 100
    },
    {
      "midi": 68,
      "hit": false,
      "t": 139755.84600000078,
      "d": 121.95100000000093,
      "v": 100
    },
    {
      "midi": 63,
      "hit": false,
      "t": 139755.84600000078,
      "d": 121.95100000000093,
      "v": 100
    },
    {
      "midi": 46,
      "hit": false,
      "t": 139755.84600000083,
      "d": 1.0162583333440125,
      "v": 100
    },
    {
      "midi": 46,
      "hit": false,
      "t": 139755.84600000223,
      "d": 121.95100000000093,
      "v": 100
    },
    {
      "midi": 67,
      "hit": false,
      "t": 139755.84600003375,
      "d": 60.975500000000466,
      "v": 100
    },
    {
      "midi": 63,
      "hit": false,
      "t": 139755.84600003375,
      "d": 60.975500000000466,
      "v": 100
    },
    {
      "midi": 72,
      "hit": false,
      "t": 139755.84600003375,
      "d": 60.975500000000466,
      "v": 100
    },
    {
      "midi": 44,
      "hit": false,
      "t": 139877.79700000084,
      "d": 1.0162583333440125,
      "v": 100
    },
    {
      "midi": 46,
      "hit": false,
      "t": 139877.79700000223,
      "d": 121.95100000000093,
      "v": 100
    },
    {
      "midi": 67,
      "hit": false,
      "t": 139877.79700003375,
      "d": 60.975500000000466,
      "v": 100
    },
    {
      "midi": 63,
      "hit": false,
      "t": 139877.79700003375,
      "d": 60.975500000000466,
      "v": 100
    },
    {
      "midi": 72,
      "hit": false,
      "t": 139877.79700003375,
      "d": 60.975500000000466,
      "v": 100
    },
    {
      "midi": 74,
      "hit": false,
      "t": 139999.74800000052,
      "d": 487.8040000000037,
      "v": 100
    },
    {
      "midi": 34,
      "hit": false,
      "t": 139999.74800000055,
      "d": 243.90200000000186,
      "v": 100
    },
    {
      "midi": 72,
      "hit": false,
      "t": 139999.74800000078,
      "d": 487.8040000000037,
      "v": 100
    },
    {
      "midi": 68,
      "hit": false,
      "t": 139999.74800000078,
      "d": 487.8040000000037,
      "v": 100
    },
    {
      "midi": 63,
      "hit": false,
      "t": 139999.74800000078,
      "d": 487.8040000000037,
      "v": 100
    },
    {
      "midi": 33,
      "hit": false,
      "t": 139999.74800000084,
      "d": 1.0162583333440125,
      "v": 127
    },
    {
      "midi": 40,
      "hit": false,
      "t": 139999.74800000084,
      "d": 1.0162583333440125,
      "v": 100
    },
    {
      "midi": 46,
      "hit": false,
      "t": 139999.74800000084,
      "d": 1.0162583333440125,
      "v": 100
    },
    {
      "midi": 46,
      "hit": false,
      "t": 139999.74800000223,
      "d": 487.8040000000037,
      "v": 100
    },
    {
      "midi": 53,
      "hit": false,
      "t": 139999.74800000223,
      "d": 487.8040000000037,
      "v": 100
    },
    {
      "midi": 67,
      "hit": false,
      "t": 139999.74800003375,
      "d": 121.95099999991362,
      "v": 100
    },
    {
      "midi": 63,
      "hit": false,
      "t": 139999.74800003375,
      "d": 121.95099999991362,
      "v": 100
    },
    {
      "midi": 72,
      "hit": false,
      "t": 139999.74800003375,
      "d": 121.95099999991362,
      "v": 100
    },
    {
      "midi": 44,
      "hit": false,
      "t": 140121.69900000084,
      "d": 1.0162583333440125,
      "v": 100
    },
    {
      "midi": 67,
      "hit": false,
      "t": 140121.69900003367,
      "d": 121.95099999994272,
      "v": 100
    },
    {
      "midi": 63,
      "hit": false,
      "t": 140121.69900003367,
      "d": 121.95099999994272,
      "v": 100
    },
    {
      "midi": 72,
      "hit": false,
      "t": 140121.69900003367,
      "d": 121.95099999994272,
      "v": 100
    },
    {
      "midi": 34,
      "hit": false,
      "t": 140243.65000000055,
      "d": 243.90200000000186,
      "v": 100
    },
    {
      "midi": 46,
      "hit": false,
      "t": 140243.65000000084,
      "d": 1.0162583333440125,
      "v": 100
    },
    {
      "midi": 67,
      "hit": false,
      "t": 140243.6500000336,
      "d": 60.975500000000466,
      "v": 100
    },
    {
      "midi": 63,
      "hit": false,
      "t": 140243.6500000336,
      "d": 60.975500000000466,
      "v": 100
    },
    {
      "midi": 72,
      "hit": false,
      "t": 140243.6500000336,
      "d": 60.975500000000466,
      "v": 100
    },
    {
      "midi": 44,
      "hit": false,
      "t": 140365.60100000084,
      "d": 1.0162583333440125,
      "v": 100
    },
    {
      "midi": 67,
      "hit": false,
      "t": 140365.6010000336,
      "d": 60.975500000000466,
      "v": 100
    },
    {
      "midi": 63,
      "hit": false,
      "t": 140365.6010000336,
      "d": 60.975500000000466,
      "v": 100
    },
    {
      "midi": 72,
      "hit": false,
      "t": 140365.6010000336,
      "d": 60.975500000000466,
      "v": 100
    },
    {
      "midi": 77,
      "hit": false,
      "t": 140487.55200000003,
      "d": 487.8040000000037,
      "v": 100
    },
    {
      "midi": 74,
      "hit": false,
      "t": 140487.55200000037,
      "d": 731.7060000000056,
      "v": 100
    },
    {
      "midi": 70,
      "hit": false,
      "t": 140487.55200000037,
      "d": 731.7060000000056,
      "v": 100
    },
    {
      "midi": 65,
      "hit": false,
      "t": 140487.55200000037,
      "d": 731.7060000000056,
      "v": 100
    },
    {
      "midi": 70,
      "hit": false,
      "t": 140487.55200000052,
      "d": 487.8040000000037,
      "v": 100
    },
    {
      "midi": 31,
      "hit": false,
      "t": 140487.55200000055,
      "d": 243.90200000000186,
      "v": 100
    },
    {
      "midi": 72,
      "hit": false,
      "t": 140487.55200000078,
      "d": 365.8530000000028,
      "v": 100
    },
    {
      "midi": 67,
      "hit": false,
      "t": 140487.55200000078,
      "d": 365.8530000000028,
      "v": 100
    },
    {
      "midi": 63,
      "hit": false,
      "t": 140487.55200000078,
      "d": 365.8530000000028,
      "v": 100
    },
    {
      "midi": 33,
      "hit": false,
      "t": 140487.55200000084,
      "d": 1.0162583333440125,
      "v": 127
    },
    {
      "midi": 42,
      "hit": false,
      "t": 140487.55200000084,
      "d": 1.0162583333440125,
      "v": 100
    },
    {
      "midi": 43,
      "hit": false,
      "t": 140487.55200000224,
      "d": 487.8040000000037,
      "v": 100
    },
    {
      "midi": 50,
      "hit": false,
      "t": 140487.55200000224,
      "d": 487.8040000000037,
      "v": 100
    },
    {
      "midi": 67,
      "hit": false,
      "t": 140487.5520000336,
      "d": 487.8040000000037,
      "v": 100
    },
    {
      "midi": 63,
      "hit": false,
      "t": 140487.5520000336,
      "d": 487.8040000000037,
      "v": 100
    },
    {
      "midi": 72,
      "hit": false,
      "t": 140487.5520000336,
      "d": 487.8040000000037,
      "v": 100
    },
    {
      "midi": 31,
      "hit": false,
      "t": 140731.45400000055,
      "d": 243.90200000000186,
      "v": 100
    },
    {
      "midi": 46,
      "hit": false,
      "t": 140731.45400000084,
      "d": 1.0162583333440125,
      "v": 100
    },
    {
      "midi": 72,
      "hit": false,
      "t": 140853.40500000078,
      "d": 121.95100000000093,
      "v": 100
    },
    {
      "midi": 67,
      "hit": false,
      "t": 140853.40500000078,
      "d": 121.95100000000093,
      "v": 100
    },
    {
      "midi": 63,
      "hit": false,
      "t": 140853.40500000078,
      "d": 121.95100000000093,
      "v": 100
    },
    {
      "midi": 44,
      "hit": false,
      "t": 140853.40500000084,
      "d": 1.0162583333440125,
      "v": 100
    },
    {
      "midi": 70,
      "hit": false,
      "t": 140975.35600000003,
      "d": 243.90200000000186,
      "v": 100
    },
    {
      "midi": 77,
      "hit": false,
      "t": 140975.35600000052,
      "d": 243.90200000000186,
      "v": 100
    },
    {
      "midi": 31,
      "hit": false,
      "t": 140975.35600000055,
      "d": 243.90200000000186,
      "v": 100
    },
    {
      "midi": 33,
      "hit": false,
      "t": 140975.35600000084,
      "d": 1.0162583333440125,
      "v": 127
    },
    {
      "midi": 40,
      "hit": false,
      "t": 140975.35600000084,
      "d": 1.0162583333440125,
      "v": 100
    },
    {
      "midi": 46,
      "hit": false,
      "t": 140975.35600000084,
      "d": 1.0162583333440125,
      "v": 100
    },
    {
      "midi": 43,
      "hit": false,
      "t": 140975.35600000224,
      "d": 121.95100000000093,
      "v": 100
    },
    {
      "midi": 67,
      "hit": false,
      "t": 140975.35600003361,
      "d": 60.97549999988405,
      "v": 100
    },
    {
      "midi": 63,
      "hit": false,
      "t": 140975.35600003361,
      "d": 60.97549999988405,
      "v": 100
    },
    {
      "midi": 72,
      "hit": false,
      "t": 140975.35600003361,
      "d": 60.97549999988405,
      "v": 100
    },
    {
      "midi": 44,
      "hit": false,
      "t": 141097.30700000084,
      "d": 1.0162583333440125,
      "v": 100
    },
    {
      "midi": 43,
      "hit": false,
      "t": 141097.30700000224,
      "d": 121.95100000000093,
      "v": 100
    },
    {
      "midi": 67,
      "hit": false,
      "t": 141097.3070000335,
      "d": 60.975500000000466,
      "v": 100
    },
    {
      "midi": 63,
      "hit": false,
      "t": 141097.3070000335,
      "d": 60.975500000000466,
      "v": 100
    },
    {
      "midi": 72,
      "hit": false,
      "t": 141097.3070000335,
      "d": 60.975500000000466,
      "v": 100
    },
    {
      "midi": 72,
      "hit": false,
      "t": 141219.25800000003,
      "d": 731.7060000000056,
      "v": 100
    },
    {
      "midi": 72,
      "hit": false,
      "t": 141219.25800000038,
      "d": 731.7060000000056,
      "v": 100
    },
    {
      "midi": 63,
      "hit": false,
      "t": 141219.25800000038,
      "d": 731.7060000000056,
      "v": 100
    },
    {
      "midi": 67,
      "hit": false,
      "t": 141219.25800000038,
      "d": 731.7060000000056,
      "v": 100
    },
    {
      "midi": 75,
      "hit": false,
      "t": 141219.25800000053,
      "d": 487.8040000000037,
      "v": 100
    },
    {
      "midi": 31,
      "hit": false,
      "t": 141219.25800000055,
      "d": 121.95100000000093,
      "v": 100
    },
    {
      "midi": 46,
      "hit": false,
      "t": 141219.25800000085,
      "d": 1.0162583333440125,
      "v": 100
    },
    {
      "midi": 48,
      "hit": false,
      "t": 141219.25800000224,
      "d": 487.8040000000037,
      "v": 100
    },
    {
      "midi": 55,
      "hit": false,
      "t": 141219.25800000224,
      "d": 487.8040000000037,
      "v": 100
    },
    {
      "midi": 67,
      "hit": false,
      "t": 141219.2580000334,
      "d": 60.975500000000466,
      "v": 100
    },
    {
      "midi": 63,
      "hit": false,
      "t": 141219.2580000334,
      "d": 60.975500000000466,
      "v": 100
    },
    {
      "midi": 72,
      "hit": false,
      "t": 141219.2580000334,
      "d": 60.975500000000466,
      "v": 100
    },
    {
      "midi": 36,
      "hit": false,
      "t": 141341.20900000056,
      "d": 243.90200000000186,
      "v": 100
    },
    {
      "midi": 41,
      "hit": false,
      "t": 141341.20900000056,
      "d": 1.0162583333440125,
      "v": 100
    },
    {
      "midi": 44,
      "hit": false,
      "t": 141341.20900000085,
      "d": 1.0162583333440125,
      "v": 100
    },
    {
      "midi": 67,
      "hit": false,
      "t": 141341.2090000334,
      "d": 60.975500000000466,
      "v": 100
    },
    {
      "midi": 63,
      "hit": false,
      "t": 141341.2090000334,
      "d": 60.975500000000466,
      "v": 100
    },
    {
      "midi": 72,
      "hit": false,
      "t": 141341.2090000334,
      "d": 60.975500000000466,
      "v": 100
    },
    {
      "midi": 33,
      "hit": false,
      "t": 141463.16000000085,
      "d": 1.0162583333440125,
      "v": 127
    },
    {
      "midi": 42,
      "hit": false,
      "t": 141463.16000000085,
      "d": 1.0162583333440125,
      "v": 100
    },
    {
      "midi": 67,
      "hit": false,
      "t": 141463.16000003341,
      "d": 60.97549999988405,
      "v": 100
    },
    {
      "midi": 63,
      "hit": false,
      "t": 141463.16000003341,
      "d": 60.97549999988405,
      "v": 100
    },
    {
      "midi": 72,
      "hit": false,
      "t": 141463.16000003341,
      "d": 60.97549999988405,
      "v": 100
    },
    {
      "midi": 36,
      "hit": false,
      "t": 141585.11100000056,
      "d": 121.95100000000093,
      "v": 100
    },
    {
      "midi": 41,
      "hit": false,
      "t": 141585.11100000056,
      "d": 1.0162583333440125,
      "v": 100
    },
    {
      "midi": 67,
      "hit": false,
      "t": 141585.1110000333,
      "d": 60.975500000000466,
      "v": 100
    },
    {
      "midi": 63,
      "hit": false,
      "t": 141585.1110000333,
      "d": 60.975500000000466,
      "v": 100
    },
    {
      "midi": 72,
      "hit": false,
      "t": 141585.1110000333,
      "d": 60.975500000000466,
      "v": 100
    },
    {
      "midi": 36,
      "hit": false,
      "t": 141707.06200000056,
      "d": 243.90200000000186,
      "v": 100
    },
    {
      "midi": 67,
      "hit": false,
      "t": 141707.0620000008,
      "d": 121.95100000000093,
      "v": 100
    },
    {
      "midi": 72,
      "hit": false,
      "t": 141707.0620000008,
      "d": 121.95100000000093,
      "v": 100
    },
    {
      "midi": 63,
      "hit": false,
      "t": 141707.0620000008,
      "d": 121.95100000000093,
      "v": 100
    },
    {
      "midi": 46,
      "hit": false,
      "t": 141707.06200000085,
      "d": 1.0162583333440125,
      "v": 100
    },
    {
      "midi": 48,
      "hit": false,
      "t": 141707.06200000225,
      "d": 121.95100000000093,
      "v": 100
    },
    {
      "midi": 67,
      "hit": false,
      "t": 141707.0620000332,
      "d": 60.975500000000466,
      "v": 100
    },
    {
      "midi": 63,
      "hit": false,
      "t": 141707.0620000332,
      "d": 60.975500000000466,
      "v": 100
    },
    {
      "midi": 72,
      "hit": false,
      "t": 141707.0620000332,
      "d": 60.975500000000466,
      "v": 100
    },
    {
      "midi": 44,
      "hit": false,
      "t": 141829.01300000085,
      "d": 1.0162583333440125,
      "v": 100
    },
    {
      "midi": 48,
      "hit": false,
      "t": 141829.01300000225,
      "d": 121.95100000000093,
      "v": 100
    },
    {
      "midi": 67,
      "hit": false,
      "t": 141829.0130000332,
      "d": 60.975500000000466,
      "v": 100
    },
    {
      "midi": 63,
      "hit": false,
      "t": 141829.0130000332,
      "d": 60.975500000000466,
      "v": 100
    },
    {
      "midi": 72,
      "hit": false,
      "t": 141829.0130000332,
      "d": 60.975500000000466,
      "v": 100
    },
    {
      "midi": 74,
      "hit": false,
      "t": 141950.96400000004,
      "d": 487.8040000000037,
      "v": 100
    },
    {
      "midi": 75,
      "hit": false,
      "t": 141950.9640000004,
      "d": 487.8040000000037,
      "v": 100
    },
    {
      "midi": 72,
      "hit": false,
      "t": 141950.9640000004,
      "d": 487.8040000000037,
      "v": 100
    },
    {
      "midi": 65,
      "hit": false,
      "t": 141950.9640000004,
      "d": 487.8040000000037,
      "v": 100
    },
    {
      "midi": 67,
      "hit": false,
      "t": 141950.9640000004,
      "d": 487.8040000000037,
      "v": 100
    },
    {
      "midi": 77,
      "hit": false,
      "t": 141950.96400000053,
      "d": 243.90200000000186,
      "v": 100
    },
    {
      "midi": 34,
      "hit": false,
      "t": 141950.96400000056,
      "d": 243.90200000000186,
      "v": 100
    },
    {
      "midi": 67,
      "hit": false,
      "t": 141950.9640000008,
      "d": 487.8040000000037,
      "v": 100
    },
    {
      "midi": 72,
      "hit": false,
      "t": 141950.9640000008,
      "d": 487.8040000000037,
      "v": 100
    },
    {
      "midi": 63,
      "hit": false,
      "t": 141950.9640000008,
      "d": 487.8040000000037,
      "v": 100
    },
    {
      "midi": 33,
      "hit": false,
      "t": 141950.96400000085,
      "d": 1.0162583333440125,
      "v": 127
    },
    {
      "midi": 40,
      "hit": false,
      "t": 141950.96400000085,
      "d": 1.0162583333440125,
      "v": 100
    },
    {
      "midi": 46,
      "hit": false,
      "t": 141950.96400000085,
      "d": 1.0162583333440125,
      "v": 100
    },
    {
      "midi": 57,
      "hit": false,
      "t": 141950.96400000085,
      "d": 1.0162583333440125,
      "v": 100
    },
    {
      "midi": 53,
      "hit": false,
      "t": 141950.96400000225,
      "d": 487.8040000000037,
      "v": 100
    },
    {
      "midi": 46,
      "hit": false,
      "t": 141950.96400000225,
      "d": 487.8040000000037,
      "v": 100
    },
    {
      "midi": 67,
      "hit": false,
      "t": 141950.96400003321,
      "d": 121.95099999991362,
      "v": 100
    },
    {
      "midi": 63,
      "hit": false,
      "t": 141950.96400003321,
      "d": 121.95099999991362,
      "v": 100
    },
    {
      "midi": 72,
      "hit": false,
      "t": 141950.96400003321,
      "d": 121.95099999991362,
      "v": 100
    },
    {
      "midi": 44,
      "hit": false,
      "t": 142072.91500000085,
      "d": 1.0162583333440125,
      "v": 100
    },
    {
      "midi": 67,
      "hit": false,
      "t": 142072.91500003313,
      "d": 121.95099999994272,
      "v": 100
    },
    {
      "midi": 63,
      "hit": false,
      "t": 142072.91500003313,
      "d": 121.95099999994272,
      "v": 100
    },
    {
      "midi": 72,
      "hit": false,
      "t": 142072.91500003313,
      "d": 121.95099999994272,
      "v": 100
    },
    {
      "midi": 79,
      "hit": false,
      "t": 142194.86600000053,
      "d": 243.90200000000186,
      "v": 100
    },
    {
      "midi": 34,
      "hit": false,
      "t": 142194.86600000056,
      "d": 243.90200000000186,
      "v": 100
    },
    {
      "midi": 40,
      "hit": false,
      "t": 142194.86600000085,
      "d": 1.0162583333440125,
      "v": 40
    },
    {
      "midi": 46,
      "hit": false,
      "t": 142194.86600000085,
      "d": 1.0162583333440125,
      "v": 100
    },
    {
      "midi": 67,
      "hit": false,
      "t": 142194.86600003307,
      "d": 60.975500000000466,
      "v": 100
    },
    {
      "midi": 63,
      "hit": false,
      "t": 142194.86600003307,
      "d": 60.975500000000466,
      "v": 100
    },
    {
      "midi": 72,
      "hit": false,
      "t": 142194.86600003307,
      "d": 60.975500000000466,
      "v": 100
    },
    {
      "midi": 40,
      "hit": false,
      "t": 142316.81700000085,
      "d": 1.0162583333440125,
      "v": 100
    },
    {
      "midi": 44,
      "hit": false,
      "t": 142316.81700000085,
      "d": 1.0162583333440125,
      "v": 100
    },
    {
      "midi": 67,
      "hit": false,
      "t": 142316.81700003307,
      "d": 60.975500000000466,
      "v": 100
    },
    {
      "midi": 63,
      "hit": false,
      "t": 142316.81700003307,
      "d": 60.975500000000466,
      "v": 100
    },
    {
      "midi": 72,
      "hit": false,
      "t": 142316.81700003307,
      "d": 60.975500000000466,
      "v": 100
    },
    {
      "midi": 75,
      "hit": false,
      "t": 142438.76800000004,
      "d": 731.7060000000056,
      "v": 100
    },
    {
      "midi": 72,
      "hit": false,
      "t": 142438.7680000004,
      "d": 731.7060000000056,
      "v": 100
    },
    {
      "midi": 63,
      "hit": false,
      "t": 142438.7680000004,
      "d": 731.7060000000056,
      "v": 100
    },
    {
      "midi": 68,
      "hit": false,
      "t": 142438.7680000004,
      "d": 731.7060000000056,
      "v": 100
    },
    {
      "midi": 80,
      "hit": false,
      "t": 142438.76800000053,
      "d": 487.8040000000037,
      "v": 100
    },
    {
      "midi": 32,
      "hit": false,
      "t": 142438.76800000056,
      "d": 243.90200000000186,
      "v": 100
    },
    {
      "midi": 72,
      "hit": false,
      "t": 142438.7680000008,
      "d": 365.8530000000028,
      "v": 100
    },
    {
      "midi": 68,
      "hit": false,
      "t": 142438.7680000008,
      "d": 365.8530000000028,
      "v": 100
    },
    {
      "midi": 63,
      "hit": false,
      "t": 142438.7680000008,
      "d": 365.8530000000028,
      "v": 100
    },
    {
      "midi": 33,
      "hit": false,
      "t": 142438.76800000085,
      "d": 1.0162583333440125,
      "v": 127
    },
    {
      "midi": 42,
      "hit": false,
      "t": 142438.76800000085,
      "d": 1.0162583333440125,
      "v": 100
    },
    {
      "midi": 44,
      "hit": false,
      "t": 142438.76800000225,
      "d": 487.8040000000037,
      "v": 100
    },
    {
      "midi": 51,
      "hit": false,
      "t": 142438.76800000225,
      "d": 487.8040000000037,
      "v": 100
    },
    {
      "midi": 67,
      "hit": false,
      "t": 142438.76800003307,
      "d": 487.8040000000037,
      "v": 100
    },
    {
      "midi": 63,
      "hit": false,
      "t": 142438.76800003307,
      "d": 487.8040000000037,
      "v": 100
    },
    {
      "midi": 72,
      "hit": false,
      "t": 142438.76800003307,
      "d": 487.8040000000037,
      "v": 100
    },
    {
      "midi": 32,
      "hit": false,
      "t": 142682.67000000057,
      "d": 243.90200000000186,
      "v": 100
    },
    {
      "midi": 46,
      "hit": false,
      "t": 142682.67000000086,
      "d": 1.0162583333440125,
      "v": 100
    },
    {
      "midi": 72,
      "hit": false,
      "t": 142804.6210000008,
      "d": 121.95100000000093,
      "v": 100
    },
    {
      "midi": 68,
      "hit": false,
      "t": 142804.6210000008,
      "d": 121.95100000000093,
      "v": 100
    },
    {
      "midi": 63,
      "hit": false,
      "t": 142804.6210000008,
      "d": 121.95100000000093,
      "v": 100
    },
    {
      "midi": 44,
      "hit": false,
      "t": 142804.62100000086,
      "d": 1.0162583333440125,
      "v": 100
    },
    {
      "midi": 32,
      "hit": false,
      "t": 142926.57200000057,
      "d": 243.90200000000186,
      "v": 100
    },
    {
      "midi": 33,
      "hit": false,
      "t": 142926.57200000086,
      "d": 1.0162583333440125,
      "v": 127
    },
    {
      "midi": 40,
      "hit": false,
      "t": 142926.57200000086,
      "d": 1.0162583333440125,
      "v": 100
    },
    {
      "midi": 46,
      "hit": false,
      "t": 142926.57200000086,
      "d": 1.0162583333440125,
      "v": 100
    },
    {
      "midi": 44,
      "hit": false,
      "t": 142926.57200000226,
      "d": 121.95100000000093,
      "v": 100
    },
    {
      "midi": 67,
      "hit": false,
      "t": 142926.57200003308,
      "d": 60.97549999988405,
      "v": 100
    },
    {
      "midi": 63,
      "hit": false,
      "t": 142926.57200003308,
      "d": 60.97549999988405,
      "v": 100
    },
    {
      "midi": 72,
      "hit": false,
      "t": 142926.57200003308,
      "d": 60.97549999988405,
      "v": 100
    },
    {
      "midi": 44,
      "hit": false,
      "t": 143048.52300000086,
      "d": 1.0162583333440125,
      "v": 100
    },
    {
      "midi": 44,
      "hit": false,
      "t": 143048.52300000226,
      "d": 121.95100000000093,
      "v": 100
    },
    {
      "midi": 67,
      "hit": false,
      "t": 143048.52300003296,
      "d": 60.975500000000466,
      "v": 100
    },
    {
      "midi": 63,
      "hit": false,
      "t": 143048.52300003296,
      "d": 60.975500000000466,
      "v": 100
    },
    {
      "midi": 72,
      "hit": false,
      "t": 143048.52300003296,
      "d": 60.975500000000466,
      "v": 100
    },
    {
      "midi": 74,
      "hit": false,
      "t": 143170.47400000005,
      "d": 1219.5100000000093,
      "v": 100
    },
    {
      "midi": 74,
      "hit": false,
      "t": 143170.4740000004,
      "d": 1219.5100000000093,
      "v": 100
    },
    {
      "midi": 70,
      "hit": false,
      "t": 143170.4740000004,
      "d": 1219.5100000000093,
      "v": 100
    },
    {
      "midi": 65,
      "hit": false,
      "t": 143170.4740000004,
      "d": 1219.5100000000093,
      "v": 100
    },
    {
      "midi": 77,
      "hit": false,
      "t": 143170.47400000054,
      "d": 731.7060000000056,
      "v": 100
    },
    {
      "midi": 32,
      "hit": false,
      "t": 143170.47400000057,
      "d": 121.95100000000093,
      "v": 100
    },
    {
      "midi": 46,
      "hit": false,
      "t": 143170.47400000086,
      "d": 1.0162583333440125,
      "v": 100
    },
    {
      "midi": 46,
      "hit": false,
      "t": 143170.47400000226,
      "d": 487.8040000000037,
      "v": 100
    },
    {
      "midi": 53,
      "hit": false,
      "t": 143170.47400000226,
      "d": 487.8040000000037,
      "v": 100
    },
    {
      "midi": 67,
      "hit": false,
      "t": 143170.47400003287,
      "d": 60.975500000000466,
      "v": 100
    },
    {
      "midi": 63,
      "hit": false,
      "t": 143170.47400003287,
      "d": 60.975500000000466,
      "v": 100
    },
    {
      "midi": 72,
      "hit": false,
      "t": 143170.47400003287,
      "d": 60.975500000000466,
      "v": 100
    },
    {
      "midi": 34,
      "hit": false,
      "t": 143292.42500000057,
      "d": 243.90200000000186,
      "v": 100
    },
    {
      "midi": 44,
      "hit": false,
      "t": 143292.42500000086,
      "d": 1.0162583333440125,
      "v": 100
    },
    {
      "midi": 67,
      "hit": false,
      "t": 143292.42500003288,
      "d": 60.975500000000466,
      "v": 100
    },
    {
      "midi": 63,
      "hit": false,
      "t": 143292.42500003288,
      "d": 60.975500000000466,
      "v": 100
    },
    {
      "midi": 72,
      "hit": false,
      "t": 143292.42500003288,
      "d": 60.975500000000466,
      "v": 100
    },
    {
      "midi": 33,
      "hit": false,
      "t": 143414.37600000086,
      "d": 1.0162583333440125,
      "v": 127
    },
    {
      "midi": 42,
      "hit": false,
      "t": 143414.37600000086,
      "d": 1.0162583333440125,
      "v": 100
    },
    {
      "midi": 67,
      "hit": false,
      "t": 143414.37600003288,
      "d": 60.97549999988405,
      "v": 100
    },
    {
      "midi": 63,
      "hit": false,
      "t": 143414.37600003288,
      "d": 60.97549999988405,
      "v": 100
    },
    {
      "midi": 72,
      "hit": false,
      "t": 143414.37600003288,
      "d": 60.97549999988405,
      "v": 100
    },
    {
      "midi": 34,
      "hit": false,
      "t": 143536.32700000057,
      "d": 121.95100000000093,
      "v": 100
    },
    {
      "midi": 67,
      "hit": false,
      "t": 143536.32700003276,
      "d": 60.975500000000466,
      "v": 100
    },
    {
      "midi": 63,
      "hit": false,
      "t": 143536.32700003276,
      "d": 60.975500000000466,
      "v": 100
    },
    {
      "midi": 72,
      "hit": false,
      "t": 143536.32700003276,
      "d": 60.975500000000466,
      "v": 100
    },
    {
      "midi": 34,
      "hit": false,
      "t": 143658.27800000057,
      "d": 243.90200000000186,
      "v": 100
    },
    {
      "midi": 72,
      "hit": false,
      "t": 143658.2780000008,
      "d": 121.95100000000093,
      "v": 100
    },
    {
      "midi": 68,
      "hit": false,
      "t": 143658.2780000008,
      "d": 121.95100000000093,
      "v": 100
    },
    {
      "midi": 63,
      "hit": false,
      "t": 143658.2780000008,
      "d": 121.95100000000093,
      "v": 100
    },
    {
      "midi": 46,
      "hit": false,
      "t": 143658.27800000086,
      "d": 1.0162583333440125,
      "v": 100
    },
    {
      "midi": 46,
      "hit": false,
      "t": 143658.27800000226,
      "d": 121.95100000000093,
      "v": 100
    },
    {
      "midi": 67,
      "hit": false,
      "t": 143658.27800003267,
      "d": 60.975500000000466,
      "v": 100
    },
    {
      "midi": 63,
      "hit": false,
      "t": 143658.27800003267,
      "d": 60.975500000000466,
      "v": 100
    },
    {
      "midi": 72,
      "hit": false,
      "t": 143658.27800003267,
      "d": 60.975500000000466,
      "v": 100
    },
    {
      "midi": 44,
      "hit": false,
      "t": 143780.22900000087,
      "d": 1.0162583333440125,
      "v": 100
    },
    {
      "midi": 46,
      "hit": false,
      "t": 143780.22900000226,
      "d": 121.95100000000093,
      "v": 100
    },
    {
      "midi": 67,
      "hit": false,
      "t": 143780.22900003268,
      "d": 60.975500000000466,
      "v": 100
    },
    {
      "midi": 63,
      "hit": false,
      "t": 143780.22900003268,
      "d": 60.975500000000466,
      "v": 100
    },
    {
      "midi": 72,
      "hit": false,
      "t": 143780.22900003268,
      "d": 60.975500000000466,
      "v": 100
    },
    {
      "midi": 74,
      "hit": false,
      "t": 143902.18000000055,
      "d": 487.8040000000037,
      "v": 100
    },
    {
      "midi": 34,
      "hit": false,
      "t": 143902.18000000058,
      "d": 243.90200000000186,
      "v": 100
    },
    {
      "midi": 72,
      "hit": false,
      "t": 143902.1800000008,
      "d": 487.8040000000037,
      "v": 100
    },
    {
      "midi": 68,
      "hit": false,
      "t": 143902.1800000008,
      "d": 487.8040000000037,
      "v": 100
    },
    {
      "midi": 63,
      "hit": false,
      "t": 143902.1800000008,
      "d": 487.8040000000037,
      "v": 100
    },
    {
      "midi": 33,
      "hit": false,
      "t": 143902.18000000087,
      "d": 1.0162583333440125,
      "v": 127
    },
    {
      "midi": 40,
      "hit": false,
      "t": 143902.18000000087,
      "d": 1.0162583333440125,
      "v": 100
    },
    {
      "midi": 46,
      "hit": false,
      "t": 143902.18000000087,
      "d": 1.0162583333440125,
      "v": 100
    },
    {
      "midi": 53,
      "hit": false,
      "t": 143902.18000000226,
      "d": 487.8040000000037,
      "v": 100
    },
    {
      "midi": 46,
      "hit": false,
      "t": 143902.18000000226,
      "d": 487.8040000000037,
      "v": 100
    },
    {
      "midi": 67,
      "hit": false,
      "t": 143902.18000003268,
      "d": 121.95099999991362,
      "v": 100
    },
    {
      "midi": 63,
      "hit": false,
      "t": 143902.18000003268,
      "d": 121.95099999991362,
      "v": 100
    },
    {
      "midi": 72,
      "hit": false,
      "t": 143902.18000003268,
      "d": 121.95099999991362,
      "v": 100
    },
    {
      "midi": 44,
      "hit": false,
      "t": 144024.13100000087,
      "d": 1.0162583333440125,
      "v": 100
    },
    {
      "midi": 67,
      "hit": false,
      "t": 144024.1310000326,
      "d": 121.95099999994272,
      "v": 100
    },
    {
      "midi": 63,
      "hit": false,
      "t": 144024.1310000326,
      "d": 121.95099999994272,
      "v": 100
    },
    {
      "midi": 72,
      "hit": false,
      "t": 144024.1310000326,
      "d": 121.95099999994272,
      "v": 100
    },
    {
      "midi": 34,
      "hit": false,
      "t": 144146.08200000058,
      "d": 243.90200000000186,
      "v": 100
    },
    {
      "midi": 46,
      "hit": false,
      "t": 144146.08200000087,
      "d": 1.0162583333440125,
      "v": 100
    },
    {
      "midi": 67,
      "hit": false,
      "t": 144146.08200003253,
      "d": 60.975500000000466,
      "v": 100
    },
    {
      "midi": 63,
      "hit": false,
      "t": 144146.08200003253,
      "d": 60.975500000000466,
      "v": 100
    },
    {
      "midi": 72,
      "hit": false,
      "t": 144146.08200003253,
      "d": 60.975500000000466,
      "v": 100
    },
    {
      "midi": 44,
      "hit": false,
      "t": 144268.03300000087,
      "d": 1.0162583333440125,
      "v": 100
    },
    {
      "midi": 67,
      "hit": false,
      "t": 144268.03300003253,
      "d": 60.975500000000466,
      "v": 100
    },
    {
      "midi": 63,
      "hit": false,
      "t": 144268.03300003253,
      "d": 60.975500000000466,
      "v": 100
    },
    {
      "midi": 72,
      "hit": false,
      "t": 144268.03300003253,
      "d": 60.975500000000466,
      "v": 100
    },
    {
      "midi": 70,
      "hit": false,
      "t": 144389.98400000005,
      "d": 487.8040000000037,
      "v": 100
    },
    {
      "midi": 74,
      "hit": false,
      "t": 144389.9840000004,
      "d": 731.7060000000056,
      "v": 100
    },
    {
      "midi": 70,
      "hit": false,
      "t": 144389.9840000004,
      "d": 731.7060000000056,
      "v": 100
    },
    {
      "midi": 65,
      "hit": false,
      "t": 144389.9840000004,
      "d": 731.7060000000056,
      "v": 100
    },
    {
      "midi": 70,
      "hit": false,
      "t": 144389.98400000055,
      "d": 487.8040000000037,
      "v": 100
    },
    {
      "midi": 31,
      "hit": false,
      "t": 144389.98400000058,
      "d": 243.90200000000186,
      "v": 100
    },
    {
      "midi": 72,
      "hit": false,
      "t": 144389.9840000008,
      "d": 365.8530000000028,
      "v": 100
    },
    {
      "midi": 67,
      "hit": false,
      "t": 144389.9840000008,
      "d": 365.8530000000028,
      "v": 100
    },
    {
      "midi": 63,
      "hit": false,
      "t": 144389.9840000008,
      "d": 365.8530000000028,
      "v": 100
    },
    {
      "midi": 33,
      "hit": false,
      "t": 144389.98400000087,
      "d": 1.0162583333440125,
      "v": 127
    },
    {
      "midi": 42,
      "hit": false,
      "t": 144389.98400000087,
      "d": 1.0162583333440125,
      "v": 100
    },
    {
      "midi": 43,
      "hit": false,
      "t": 144389.98400000227,
      "d": 487.8040000000037,
      "v": 100
    },
    {
      "midi": 50,
      "hit": false,
      "t": 144389.98400000227,
      "d": 487.8040000000037,
      "v": 100
    },
    {
      "midi": 67,
      "hit": false,
      "t": 144389.98400003253,
      "d": 487.8040000000037,
      "v": 100
    },
    {
      "midi": 63,
      "hit": false,
      "t": 144389.98400003253,
      "d": 487.8040000000037,
      "v": 100
    },
    {
      "midi": 72,
      "hit": false,
      "t": 144389.98400003253,
      "d": 487.8040000000037,
      "v": 100
    },
    {
      "midi": 41,
      "hit": false,
      "t": 144511.93500000058,
      "d": 1.0162583333440125,
      "v": 100
    },
    {
      "midi": 31,
      "hit": false,
      "t": 144633.88600000058,
      "d": 243.90200000000186,
      "v": 100
    },
    {
      "midi": 46,
      "hit": false,
      "t": 144633.88600000087,
      "d": 1.0162583333440125,
      "v": 100
    },
    {
      "midi": 72,
      "hit": false,
      "t": 144755.8370000008,
      "d": 121.95100000000093,
      "v": 100
    },
    {
      "midi": 67,
      "hit": false,
      "t": 144755.8370000008,
      "d": 121.95100000000093,
      "v": 100
    },
    {
      "midi": 63,
      "hit": false,
      "t": 144755.8370000008,
      "d": 121.95100000000093,
      "v": 100
    },
    {
      "midi": 44,
      "hit": false,
      "t": 144755.83700000087,
      "d": 1.0162583333440125,
      "v": 100
    },
    {
      "midi": 67,
      "hit": false,
      "t": 144877.78800000006,
      "d": 243.90200000000186,
      "v": 100
    },
    {
      "midi": 77,
      "hit": false,
      "t": 144877.78800000055,
      "d": 243.90200000000186,
      "v": 100
    },
    {
      "midi": 31,
      "hit": false,
      "t": 144877.78800000058,
      "d": 243.90200000000186,
      "v": 100
    },
    {
      "midi": 41,
      "hit": false,
      "t": 144877.78800000058,
      "d": 1.0162583333440125,
      "v": 100
    },
    {
      "midi": 33,
      "hit": false,
      "t": 144877.78800000087,
      "d": 1.0162583333440125,
      "v": 127
    },
    {
      "midi": 40,
      "hit": false,
      "t": 144877.78800000087,
      "d": 1.0162583333440125,
      "v": 100
    },
    {
      "midi": 46,
      "hit": false,
      "t": 144877.78800000087,
      "d": 1.0162583333440125,
      "v": 100
    },
    {
      "midi": 43,
      "hit": false,
      "t": 144877.78800000227,
      "d": 121.95100000000093,
      "v": 100
    },
    {
      "midi": 67,
      "hit": false,
      "t": 144877.78800003254,
      "d": 60.97549999988405,
      "v": 100
    },
    {
      "midi": 63,
      "hit": false,
      "t": 144877.78800003254,
      "d": 60.97549999988405,
      "v": 100
    },
    {
      "midi": 72,
      "hit": false,
      "t": 144877.78800003254,
      "d": 60.97549999988405,
      "v": 100
    },
    {
      "midi": 44,
      "hit": false,
      "t": 144999.73900000087,
      "d": 1.0162583333440125,
      "v": 100
    },
    {
      "midi": 43,
      "hit": false,
      "t": 144999.73900000227,
      "d": 121.95100000000093,
      "v": 100
    },
    {
      "midi": 67,
      "hit": false,
      "t": 144999.73900003242,
      "d": 60.975500000000466,
      "v": 100
    },
    {
      "midi": 63,
      "hit": false,
      "t": 144999.73900003242,
      "d": 60.975500000000466,
      "v": 100
    },
    {
      "midi": 72,
      "hit": false,
      "t": 144999.73900003242,
      "d": 60.975500000000466,
      "v": 100
    },
    {
      "midi": 72,
      "hit": false,
      "t": 145121.69000000006,
      "d": 731.7060000000056,
      "v": 100
    },
    {
      "midi": 72,
      "hit": false,
      "t": 145121.6900000004,
      "d": 731.7060000000056,
      "v": 100
    },
    {
      "midi": 63,
      "hit": false,
      "t": 145121.6900000004,
      "d": 731.7060000000056,
      "v": 100
    },
    {
      "midi": 67,
      "hit": false,
      "t": 145121.6900000004,
      "d": 731.7060000000056,
      "v": 100
    },
    {
      "midi": 75,
      "hit": false,
      "t": 145121.69000000056,
      "d": 975.6080000000075,
      "v": 100
    },
    {
      "midi": 31,
      "hit": false,
      "t": 145121.69000000058,
      "d": 121.95100000000093,
      "v": 100
    },
    {
      "midi": 46,
      "hit": false,
      "t": 145121.69000000088,
      "d": 1.0162583333440125,
      "v": 100
    },
    {
      "midi": 48,
      "hit": false,
      "t": 145121.69000000227,
      "d": 487.8040000000037,
      "v": 100
    },
    {
      "midi": 55,
      "hit": false,
      "t": 145121.69000000227,
      "d": 487.8040000000037,
      "v": 100
    },
    {
      "midi": 67,
      "hit": false,
      "t": 145121.69000003234,
      "d": 60.975500000000466,
      "v": 100
    },
    {
      "midi": 63,
      "hit": false,
      "t": 145121.69000003234,
      "d": 60.975500000000466,
      "v": 100
    },
    {
      "midi": 72,
      "hit": false,
      "t": 145121.69000003234,
      "d": 60.975500000000466,
      "v": 100
    },
    {
      "midi": 36,
      "hit": false,
      "t": 145243.64100000059,
      "d": 243.90200000000186,
      "v": 100
    },
    {
      "midi": 41,
      "hit": false,
      "t": 145243.64100000059,
      "d": 1.0162583333440125,
      "v": 100
    },
    {
      "midi": 44,
      "hit": false,
      "t": 145243.64100000088,
      "d": 1.0162583333440125,
      "v": 100
    },
    {
      "midi": 67,
      "hit": false,
      "t": 145243.64100003234,
      "d": 60.975500000000466,
      "v": 100
    },
    {
      "midi": 63,
      "hit": false,
      "t": 145243.64100003234,
      "d": 60.975500000000466,
      "v": 100
    },
    {
      "midi": 72,
      "hit": false,
      "t": 145243.64100003234,
      "d": 60.975500000000466,
      "v": 100
    },
    {
      "midi": 33,
      "hit": false,
      "t": 145365.59200000088,
      "d": 1.0162583333440125,
      "v": 127
    },
    {
      "midi": 42,
      "hit": false,
      "t": 145365.59200000088,
      "d": 1.0162583333440125,
      "v": 100
    },
    {
      "midi": 67,
      "hit": false,
      "t": 145365.59200003234,
      "d": 60.97549999988405,
      "v": 100
    },
    {
      "midi": 63,
      "hit": false,
      "t": 145365.59200003234,
      "d": 60.97549999988405,
      "v": 100
    },
    {
      "midi": 72,
      "hit": false,
      "t": 145365.59200003234,
      "d": 60.97549999988405,
      "v": 100
    },
    {
      "midi": 36,
      "hit": false,
      "t": 145487.5430000006,
      "d": 121.95100000000093,
      "v": 100
    },
    {
      "midi": 41,
      "hit": false,
      "t": 145487.5430000006,
      "d": 1.0162583333440125,
      "v": 100
    },
    {
      "midi": 40,
      "hit": false,
      "t": 145487.54300000088,
      "d": 1.0162583333440125,
      "v": 100
    },
    {
      "midi": 67,
      "hit": false,
      "t": 145487.54300003222,
      "d": 60.975500000000466,
      "v": 100
    },
    {
      "midi": 63,
      "hit": false,
      "t": 145487.54300003222,
      "d": 60.975500000000466,
      "v": 100
    },
    {
      "midi": 72,
      "hit": false,
      "t": 145487.54300003222,
      "d": 60.975500000000466,
      "v": 100
    },
    {
      "midi": 36,
      "hit": false,
      "t": 145609.4940000006,
      "d": 243.90200000000186,
      "v": 100
    },
    {
      "midi": 67,
      "hit": false,
      "t": 145609.49400000082,
      "d": 121.95100000000093,
      "v": 100
    },
    {
      "midi": 72,
      "hit": false,
      "t": 145609.49400000082,
      "d": 121.95100000000093,
      "v": 100
    },
    {
      "midi": 63,
      "hit": false,
      "t": 145609.49400000082,
      "d": 121.95100000000093,
      "v": 100
    },
    {
      "midi": 46,
      "hit": false,
      "t": 145609.49400000088,
      "d": 1.0162583333440125,
      "v": 100
    },
    {
      "midi": 48,
      "hit": false,
      "t": 145609.49400000228,
      "d": 121.95100000000093,
      "v": 100
    },
    {
      "midi": 67,
      "hit": false,
      "t": 145609.49400003214,
      "d": 60.975500000000466,
      "v": 100
    },
    {
      "midi": 63,
      "hit": false,
      "t": 145609.49400003214,
      "d": 60.975500000000466,
      "v": 100
    },
    {
      "midi": 72,
      "hit": false,
      "t": 145609.49400003214,
      "d": 60.975500000000466,
      "v": 100
    },
    {
      "midi": 44,
      "hit": false,
      "t": 145731.44500000088,
      "d": 1.0162583333440125,
      "v": 100
    },
    {
      "midi": 48,
      "hit": false,
      "t": 145731.44500000228,
      "d": 121.95100000000093,
      "v": 100
    },
    {
      "midi": 67,
      "hit": false,
      "t": 145731.44500003214,
      "d": 60.975500000000466,
      "v": 100
    },
    {
      "midi": 63,
      "hit": false,
      "t": 145731.44500003214,
      "d": 60.975500000000466,
      "v": 100
    },
    {
      "midi": 72,
      "hit": false,
      "t": 145731.44500003214,
      "d": 60.975500000000466,
      "v": 100
    },
    {
      "midi": 74,
      "hit": false,
      "t": 145853.39600000007,
      "d": 487.8040000000037,
      "v": 100
    },
    {
      "midi": 75,
      "hit": false,
      "t": 145853.39600000042,
      "d": 487.8040000000037,
      "v": 100
    },
    {
      "midi": 72,
      "hit": false,
      "t": 145853.39600000042,
      "d": 487.8040000000037,
      "v": 100
    },
    {
      "midi": 65,
      "hit": false,
      "t": 145853.39600000042,
      "d": 487.8040000000037,
      "v": 100
    },
    {
      "midi": 67,
      "hit": false,
      "t": 145853.39600000042,
      "d": 487.8040000000037,
      "v": 100
    },
    {
      "midi": 34,
      "hit": false,
      "t": 145853.3960000006,
      "d": 243.90200000000186,
      "v": 100
    },
    {
      "midi": 67,
      "hit": false,
      "t": 145853.39600000082,
      "d": 487.8040000000037,
      "v": 100
    },
    {
      "midi": 72,
      "hit": false,
      "t": 145853.39600000082,
      "d": 487.8040000000037,
      "v": 100
    },
    {
      "midi": 63,
      "hit": false,
      "t": 145853.39600000082,
      "d": 487.8040000000037,
      "v": 100
    },
    {
      "midi": 33,
      "hit": false,
      "t": 145853.39600000088,
      "d": 1.0162583333440125,
      "v": 127
    },
    {
      "midi": 40,
      "hit": false,
      "t": 145853.39600000088,
      "d": 1.0162583333440125,
      "v": 100
    },
    {
      "midi": 46,
      "hit": false,
      "t": 145853.39600000088,
      "d": 1.0162583333440125,
      "v": 100
    },
    {
      "midi": 57,
      "hit": false,
      "t": 145853.39600000088,
      "d": 1.0162583333440125,
      "v": 100
    },
    {
      "midi": 53,
      "hit": false,
      "t": 145853.39600000228,
      "d": 487.8040000000037,
      "v": 100
    },
    {
      "midi": 46,
      "hit": false,
      "t": 145853.39600000228,
      "d": 487.8040000000037,
      "v": 100
    },
    {
      "midi": 67,
      "hit": false,
      "t": 145853.39600003214,
      "d": 121.95099999991362,
      "v": 100
    },
    {
      "midi": 63,
      "hit": false,
      "t": 145853.39600003214,
      "d": 121.95099999991362,
      "v": 100
    },
    {
      "midi": 72,
      "hit": false,
      "t": 145853.39600003214,
      "d": 121.95099999991362,
      "v": 100
    },
    {
      "midi": 44,
      "hit": false,
      "t": 145975.34700000088,
      "d": 1.0162583333440125,
      "v": 100
    },
    {
      "midi": 67,
      "hit": false,
      "t": 145975.34700003205,
      "d": 121.95099999994272,
      "v": 100
    },
    {
      "midi": 63,
      "hit": false,
      "t": 145975.34700003205,
      "d": 121.95099999994272,
      "v": 100
    },
    {
      "midi": 72,
      "hit": false,
      "t": 145975.34700003205,
      "d": 121.95099999994272,
      "v": 100
    },
    {
      "midi": 34,
      "hit": false,
      "t": 146097.2980000006,
      "d": 243.90200000000186,
      "v": 100
    },
    {
      "midi": 40,
      "hit": false,
      "t": 146097.29800000088,
      "d": 1.0162583333440125,
      "v": 40
    },
    {
      "midi": 46,
      "hit": false,
      "t": 146097.29800000088,
      "d": 1.0162583333440125,
      "v": 100
    },
    {
      "midi": 67,
      "hit": false,
      "t": 146097.298000032,
      "d": 60.975500000000466,
      "v": 100
    },
    {
      "midi": 63,
      "hit": false,
      "t": 146097.298000032,
      "d": 60.975500000000466,
      "v": 100
    },
    {
      "midi": 72,
      "hit": false,
      "t": 146097.298000032,
      "d": 60.975500000000466,
      "v": 100
    },
    {
      "midi": 40,
      "hit": false,
      "t": 146219.24900000088,
      "d": 1.0162583333440125,
      "v": 100
    },
    {
      "midi": 44,
      "hit": false,
      "t": 146219.24900000088,
      "d": 1.0162583333440125,
      "v": 100
    },
    {
      "midi": 67,
      "hit": false,
      "t": 146219.249000032,
      "d": 60.975500000000466,
      "v": 100
    },
    {
      "midi": 63,
      "hit": false,
      "t": 146219.249000032,
      "d": 60.975500000000466,
      "v": 100
    },
    {
      "midi": 72,
      "hit": false,
      "t": 146219.249000032,
      "d": 60.975500000000466,
      "v": 100
    },
    {
      "midi": 75,
      "hit": false,
      "t": 146341.20000000007,
      "d": 731.7060000000056,
      "v": 100
    },
    {
      "midi": 72,
      "hit": false,
      "t": 146341.20000000042,
      "d": 731.7060000000056,
      "v": 100
    },
    {
      "midi": 63,
      "hit": false,
      "t": 146341.20000000042,
      "d": 731.7060000000056,
      "v": 100
    },
    {
      "midi": 68,
      "hit": false,
      "t": 146341.20000000042,
      "d": 731.7060000000056,
      "v": 100
    },
    {
      "midi": 80,
      "hit": false,
      "t": 146341.20000000056,
      "d": 487.8040000000037,
      "v": 100
    },
    {
      "midi": 32,
      "hit": false,
      "t": 146341.2000000006,
      "d": 243.90200000000186,
      "v": 100
    },
    {
      "midi": 72,
      "hit": false,
      "t": 146341.20000000083,
      "d": 365.8530000000028,
      "v": 100
    },
    {
      "midi": 68,
      "hit": false,
      "t": 146341.20000000083,
      "d": 365.8530000000028,
      "v": 100
    },
    {
      "midi": 63,
      "hit": false,
      "t": 146341.20000000083,
      "d": 365.8530000000028,
      "v": 100
    },
    {
      "midi": 33,
      "hit": false,
      "t": 146341.20000000088,
      "d": 1.0162583333440125,
      "v": 127
    },
    {
      "midi": 42,
      "hit": false,
      "t": 146341.20000000088,
      "d": 1.0162583333440125,
      "v": 100
    },
    {
      "midi": 57,
      "hit": false,
      "t": 146341.20000000088,
      "d": 1.0162583333440125,
      "v": 100
    },
    {
      "midi": 44,
      "hit": false,
      "t": 146341.20000000228,
      "d": 487.8040000000037,
      "v": 100
    },
    {
      "midi": 51,
      "hit": false,
      "t": 146341.20000000228,
      "d": 487.8040000000037,
      "v": 100
    },
    {
      "midi": 67,
      "hit": false,
      "t": 146341.200000032,
      "d": 487.8040000000037,
      "v": 100
    },
    {
      "midi": 63,
      "hit": false,
      "t": 146341.200000032,
      "d": 487.8040000000037,
      "v": 100
    },
    {
      "midi": 72,
      "hit": false,
      "t": 146341.200000032,
      "d": 487.8040000000037,
      "v": 100
    },
    {
      "midi": 32,
      "hit": false,
      "t": 146585.1020000006,
      "d": 243.90200000000186,
      "v": 100
    },
    {
      "midi": 46,
      "hit": false,
      "t": 146585.1020000009,
      "d": 1.0162583333440125,
      "v": 100
    },
    {
      "midi": 72,
      "hit": false,
      "t": 146707.05300000083,
      "d": 121.95100000000093,
      "v": 100
    },
    {
      "midi": 68,
      "hit": false,
      "t": 146707.05300000083,
      "d": 121.95100000000093,
      "v": 100
    },
    {
      "midi": 63,
      "hit": false,
      "t": 146707.05300000083,
      "d": 121.95100000000093,
      "v": 100
    },
    {
      "midi": 44,
      "hit": false,
      "t": 146707.0530000009,
      "d": 1.0162583333440125,
      "v": 100
    },
    {
      "midi": 32,
      "hit": false,
      "t": 146829.0040000006,
      "d": 243.90200000000186,
      "v": 100
    },
    {
      "midi": 33,
      "hit": false,
      "t": 146829.0040000009,
      "d": 1.0162583333440125,
      "v": 127
    },
    {
      "midi": 40,
      "hit": false,
      "t": 146829.0040000009,
      "d": 1.0162583333440125,
      "v": 100
    },
    {
      "midi": 46,
      "hit": false,
      "t": 146829.0040000009,
      "d": 1.0162583333440125,
      "v": 100
    },
    {
      "midi": 44,
      "hit": false,
      "t": 146829.0040000023,
      "d": 121.95100000000093,
      "v": 100
    },
    {
      "midi": 67,
      "hit": false,
      "t": 146829.004000032,
      "d": 60.97549999988405,
      "v": 100
    },
    {
      "midi": 63,
      "hit": false,
      "t": 146829.004000032,
      "d": 60.97549999988405,
      "v": 100
    },
    {
      "midi": 72,
      "hit": false,
      "t": 146829.004000032,
      "d": 60.97549999988405,
      "v": 100
    },
    {
      "midi": 44,
      "hit": false,
      "t": 146950.9550000009,
      "d": 1.0162583333440125,
      "v": 100
    },
    {
      "midi": 44,
      "hit": false,
      "t": 146950.9550000023,
      "d": 121.95100000000093,
      "v": 100
    },
    {
      "midi": 67,
      "hit": false,
      "t": 146950.95500003188,
      "d": 60.975500000000466,
      "v": 100
    },
    {
      "midi": 63,
      "hit": false,
      "t": 146950.95500003188,
      "d": 60.975500000000466,
      "v": 100
    },
    {
      "midi": 72,
      "hit": false,
      "t": 146950.95500003188,
      "d": 60.975500000000466,
      "v": 100
    },
    {
      "midi": 74,
      "hit": false,
      "t": 147072.90600000008,
      "d": 1219.5100000000093,
      "v": 100
    },
    {
      "midi": 74,
      "hit": false,
      "t": 147072.90600000042,
      "d": 1219.5100000000093,
      "v": 100
    },
    {
      "midi": 70,
      "hit": false,
      "t": 147072.90600000042,
      "d": 1219.5100000000093,
      "v": 100
    },
    {
      "midi": 65,
      "hit": false,
      "t": 147072.90600000042,
      "d": 1219.5100000000093,
      "v": 100
    },
    {
      "midi": 77,
      "hit": false,
      "t": 147072.90600000057,
      "d": 731.7060000000056,
      "v": 100
    },
    {
      "midi": 32,
      "hit": false,
      "t": 147072.9060000006,
      "d": 121.95100000000093,
      "v": 100
    },
    {
      "midi": 46,
      "hit": false,
      "t": 147072.9060000009,
      "d": 1.0162583333440125,
      "v": 100
    },
    {
      "midi": 46,
      "hit": false,
      "t": 147072.9060000023,
      "d": 487.8040000000037,
      "v": 100
    },
    {
      "midi": 53,
      "hit": false,
      "t": 147072.9060000023,
      "d": 487.8040000000037,
      "v": 100
    },
    {
      "midi": 67,
      "hit": false,
      "t": 147072.9060000318,
      "d": 60.975500000000466,
      "v": 100
    },
    {
      "midi": 63,
      "hit": false,
      "t": 147072.9060000318,
      "d": 60.975500000000466,
      "v": 100
    },
    {
      "midi": 72,
      "hit": false,
      "t": 147072.9060000318,
      "d": 60.975500000000466,
      "v": 100
    },
    {
      "midi": 34,
      "hit": false,
      "t": 147194.8570000006,
      "d": 243.90200000000186,
      "v": 100
    },
    {
      "midi": 44,
      "hit": false,
      "t": 147194.8570000009,
      "d": 1.0162583333440125,
      "v": 100
    },
    {
      "midi": 67,
      "hit": false,
      "t": 147194.8570000318,
      "d": 60.975500000000466,
      "v": 100
    },
    {
      "midi": 63,
      "hit": false,
      "t": 147194.8570000318,
      "d": 60.975500000000466,
      "v": 100
    },
    {
      "midi": 72,
      "hit": false,
      "t": 147194.8570000318,
      "d": 60.975500000000466,
      "v": 100
    },
    {
      "midi": 33,
      "hit": false,
      "t": 147316.8080000009,
      "d": 1.0162583333440125,
      "v": 127
    },
    {
      "midi": 42,
      "hit": false,
      "t": 147316.8080000009,
      "d": 1.0162583333440125,
      "v": 100
    },
    {
      "midi": 67,
      "hit": false,
      "t": 147316.8080000318,
      "d": 60.97549999988405,
      "v": 100
    },
    {
      "midi": 63,
      "hit": false,
      "t": 147316.8080000318,
      "d": 60.97549999988405,
      "v": 100
    },
    {
      "midi": 72,
      "hit": false,
      "t": 147316.8080000318,
      "d": 60.97549999988405,
      "v": 100
    },
    {
      "midi": 34,
      "hit": false,
      "t": 147438.7590000006,
      "d": 121.95100000000093,
      "v": 100
    },
    {
      "midi": 67,
      "hit": false,
      "t": 147438.75900003168,
      "d": 60.975500000000466,
      "v": 100
    },
    {
      "midi": 63,
      "hit": false,
      "t": 147438.75900003168,
      "d": 60.975500000000466,
      "v": 100
    },
    {
      "midi": 72,
      "hit": false,
      "t": 147438.75900003168,
      "d": 60.975500000000466,
      "v": 100
    },
    {
      "midi": 34,
      "hit": false,
      "t": 147560.7100000006,
      "d": 243.90200000000186,
      "v": 100
    },
    {
      "midi": 72,
      "hit": false,
      "t": 147560.71000000084,
      "d": 121.95100000000093,
      "v": 100
    },
    {
      "midi": 68,
      "hit": false,
      "t": 147560.71000000084,
      "d": 121.95100000000093,
      "v": 100
    },
    {
      "midi": 63,
      "hit": false,
      "t": 147560.71000000084,
      "d": 121.95100000000093,
      "v": 100
    },
    {
      "midi": 46,
      "hit": false,
      "t": 147560.7100000009,
      "d": 1.0162583333440125,
      "v": 100
    },
    {
      "midi": 46,
      "hit": false,
      "t": 147560.7100000023,
      "d": 121.95100000000093,
      "v": 100
    },
    {
      "midi": 67,
      "hit": false,
      "t": 147560.7100000316,
      "d": 60.975500000000466,
      "v": 100
    },
    {
      "midi": 63,
      "hit": false,
      "t": 147560.7100000316,
      "d": 60.975500000000466,
      "v": 100
    },
    {
      "midi": 72,
      "hit": false,
      "t": 147560.7100000316,
      "d": 60.975500000000466,
      "v": 100
    },
    {
      "midi": 44,
      "hit": false,
      "t": 147682.6610000009,
      "d": 1.0162583333440125,
      "v": 100
    },
    {
      "midi": 46,
      "hit": false,
      "t": 147682.6610000023,
      "d": 121.95100000000093,
      "v": 100
    },
    {
      "midi": 67,
      "hit": false,
      "t": 147682.6610000316,
      "d": 60.975500000000466,
      "v": 100
    },
    {
      "midi": 63,
      "hit": false,
      "t": 147682.6610000316,
      "d": 60.975500000000466,
      "v": 100
    },
    {
      "midi": 72,
      "hit": false,
      "t": 147682.6610000316,
      "d": 60.975500000000466,
      "v": 100
    },
    {
      "midi": 74,
      "hit": false,
      "t": 147804.61200000058,
      "d": 487.8040000000037,
      "v": 100
    },
    {
      "midi": 34,
      "hit": false,
      "t": 147804.6120000006,
      "d": 243.90200000000186,
      "v": 100
    },
    {
      "midi": 72,
      "hit": false,
      "t": 147804.61200000084,
      "d": 487.8040000000037,
      "v": 100
    },
    {
      "midi": 68,
      "hit": false,
      "t": 147804.61200000084,
      "d": 487.8040000000037,
      "v": 100
    },
    {
      "midi": 63,
      "hit": false,
      "t": 147804.61200000084,
      "d": 487.8040000000037,
      "v": 100
    },
    {
      "midi": 33,
      "hit": false,
      "t": 147804.6120000009,
      "d": 1.0162583333440125,
      "v": 127
    },
    {
      "midi": 40,
      "hit": false,
      "t": 147804.6120000009,
      "d": 1.0162583333440125,
      "v": 100
    },
    {
      "midi": 46,
      "hit": false,
      "t": 147804.6120000009,
      "d": 1.0162583333440125,
      "v": 100
    },
    {
      "midi": 46,
      "hit": false,
      "t": 147804.6120000023,
      "d": 487.8040000000037,
      "v": 100
    },
    {
      "midi": 53,
      "hit": false,
      "t": 147804.6120000023,
      "d": 487.8040000000037,
      "v": 100
    },
    {
      "midi": 67,
      "hit": false,
      "t": 147804.6120000316,
      "d": 121.95099999991362,
      "v": 100
    },
    {
      "midi": 63,
      "hit": false,
      "t": 147804.6120000316,
      "d": 121.95099999991362,
      "v": 100
    },
    {
      "midi": 72,
      "hit": false,
      "t": 147804.6120000316,
      "d": 121.95099999991362,
      "v": 100
    },
    {
      "midi": 44,
      "hit": false,
      "t": 147926.5630000009,
      "d": 1.0162583333440125,
      "v": 100
    },
    {
      "midi": 67,
      "hit": false,
      "t": 147926.5630000315,
      "d": 121.95099999994272,
      "v": 100
    },
    {
      "midi": 63,
      "hit": false,
      "t": 147926.5630000315,
      "d": 121.95099999994272,
      "v": 100
    },
    {
      "midi": 72,
      "hit": false,
      "t": 147926.5630000315,
      "d": 121.95099999994272,
      "v": 100
    },
    {
      "midi": 34,
      "hit": false,
      "t": 148048.5140000006,
      "d": 243.90200000000186,
      "v": 100
    },
    {
      "midi": 46,
      "hit": false,
      "t": 148048.5140000009,
      "d": 1.0162583333440125,
      "v": 100
    },
    {
      "midi": 67,
      "hit": false,
      "t": 148048.51400003146,
      "d": 60.975500000000466,
      "v": 100
    },
    {
      "midi": 63,
      "hit": false,
      "t": 148048.51400003146,
      "d": 60.975500000000466,
      "v": 100
    },
    {
      "midi": 72,
      "hit": false,
      "t": 148048.51400003146,
      "d": 60.975500000000466,
      "v": 100
    },
    {
      "midi": 44,
      "hit": false,
      "t": 148170.4650000009,
      "d": 1.0162583333440125,
      "v": 100
    },
    {
      "midi": 67,
      "hit": false,
      "t": 148170.46500003146,
      "d": 60.975500000000466,
      "v": 100
    },
    {
      "midi": 63,
      "hit": false,
      "t": 148170.46500003146,
      "d": 60.975500000000466,
      "v": 100
    },
    {
      "midi": 72,
      "hit": false,
      "t": 148170.46500003146,
      "d": 60.975500000000466,
      "v": 100
    },
    {
      "midi": 70,
      "hit": false,
      "t": 148292.41600000008,
      "d": 243.90200000000186,
      "v": 100
    },
    {
      "midi": 74,
      "hit": false,
      "t": 148292.41600000043,
      "d": 731.7060000000056,
      "v": 100
    },
    {
      "midi": 70,
      "hit": false,
      "t": 148292.41600000043,
      "d": 731.7060000000056,
      "v": 100
    },
    {
      "midi": 65,
      "hit": false,
      "t": 148292.41600000043,
      "d": 731.7060000000056,
      "v": 100
    },
    {
      "midi": 70,
      "hit": false,
      "t": 148292.41600000058,
      "d": 487.8040000000037,
      "v": 100
    },
    {
      "midi": 31,
      "hit": false,
      "t": 148292.4160000006,
      "d": 243.90200000000186,
      "v": 100
    },
    {
      "midi": 72,
      "hit": false,
      "t": 148292.41600000084,
      "d": 365.8530000000028,
      "v": 100
    },
    {
      "midi": 67,
      "hit": false,
      "t": 148292.41600000084,
      "d": 365.8530000000028,
      "v": 100
    },
    {
      "midi": 63,
      "hit": false,
      "t": 148292.41600000084,
      "d": 365.8530000000028,
      "v": 100
    },
    {
      "midi": 33,
      "hit": false,
      "t": 148292.4160000009,
      "d": 1.0162583333440125,
      "v": 127
    },
    {
      "midi": 42,
      "hit": false,
      "t": 148292.4160000009,
      "d": 1.0162583333440125,
      "v": 100
    },
    {
      "midi": 43,
      "hit": false,
      "t": 148292.4160000023,
      "d": 487.8040000000037,
      "v": 100
    },
    {
      "midi": 50,
      "hit": false,
      "t": 148292.4160000023,
      "d": 487.8040000000037,
      "v": 100
    },
    {
      "midi": 67,
      "hit": false,
      "t": 148292.41600003146,
      "d": 487.8040000000037,
      "v": 100
    },
    {
      "midi": 63,
      "hit": false,
      "t": 148292.41600003146,
      "d": 487.8040000000037,
      "v": 100
    },
    {
      "midi": 72,
      "hit": false,
      "t": 148292.41600003146,
      "d": 487.8040000000037,
      "v": 100
    },
    {
      "midi": 31,
      "hit": false,
      "t": 148536.3180000006,
      "d": 243.90200000000186,
      "v": 100
    },
    {
      "midi": 46,
      "hit": false,
      "t": 148536.3180000009,
      "d": 1.0162583333440125,
      "v": 100
    },
    {
      "midi": 72,
      "hit": false,
      "t": 148658.26900000084,
      "d": 121.95100000000093,
      "v": 100
    },
    {
      "midi": 67,
      "hit": false,
      "t": 148658.26900000084,
      "d": 121.95100000000093,
      "v": 100
    },
    {
      "midi": 63,
      "hit": false,
      "t": 148658.26900000084,
      "d": 121.95100000000093,
      "v": 100
    },
    {
      "midi": 44,
      "hit": false,
      "t": 148658.2690000009,
      "d": 1.0162583333440125,
      "v": 100
    },
    {
      "midi": 70,
      "hit": false,
      "t": 148780.2200000001,
      "d": 243.90200000000186,
      "v": 100
    },
    {
      "midi": 77,
      "hit": false,
      "t": 148780.22000000058,
      "d": 243.90200000000186,
      "v": 100
    },
    {
      "midi": 31,
      "hit": false,
      "t": 148780.2200000006,
      "d": 243.90200000000186,
      "v": 100
    },
    {
      "midi": 33,
      "hit": false,
      "t": 148780.2200000009,
      "d": 1.0162583333440125,
      "v": 127
    },
    {
      "midi": 40,
      "hit": false,
      "t": 148780.2200000009,
      "d": 1.0162583333440125,
      "v": 100
    },
    {
      "midi": 46,
      "hit": false,
      "t": 148780.2200000009,
      "d": 1.0162583333440125,
      "v": 100
    },
    {
      "midi": 43,
      "hit": false,
      "t": 148780.2200000023,
      "d": 121.95100000000093,
      "v": 100
    },
    {
      "midi": 67,
      "hit": false,
      "t": 148780.22000003146,
      "d": 60.97549999988405,
      "v": 100
    },
    {
      "midi": 63,
      "hit": false,
      "t": 148780.22000003146,
      "d": 60.97549999988405,
      "v": 100
    },
    {
      "midi": 72,
      "hit": false,
      "t": 148780.22000003146,
      "d": 60.97549999988405,
      "v": 100
    },
    {
      "midi": 44,
      "hit": false,
      "t": 148902.1710000009,
      "d": 1.0162583333440125,
      "v": 100
    },
    {
      "midi": 43,
      "hit": false,
      "t": 148902.1710000023,
      "d": 121.95100000000093,
      "v": 100
    },
    {
      "midi": 67,
      "hit": false,
      "t": 148902.17100003135,
      "d": 60.975500000000466,
      "v": 100
    },
    {
      "midi": 63,
      "hit": false,
      "t": 148902.17100003135,
      "d": 60.975500000000466,
      "v": 100
    },
    {
      "midi": 72,
      "hit": false,
      "t": 148902.17100003135,
      "d": 60.975500000000466,
      "v": 100
    },
    {
      "midi": 72,
      "hit": false,
      "t": 149024.1220000001,
      "d": 731.7060000000056,
      "v": 100
    },
    {
      "midi": 72,
      "hit": false,
      "t": 149024.12200000044,
      "d": 731.7060000000056,
      "v": 100
    },
    {
      "midi": 63,
      "hit": false,
      "t": 149024.12200000044,
      "d": 731.7060000000056,
      "v": 100
    },
    {
      "midi": 67,
      "hit": false,
      "t": 149024.12200000044,
      "d": 731.7060000000056,
      "v": 100
    },
    {
      "midi": 75,
      "hit": false,
      "t": 149024.12200000059,
      "d": 487.8040000000037,
      "v": 100
    },
    {
      "midi": 31,
      "hit": false,
      "t": 149024.1220000006,
      "d": 121.95100000000093,
      "v": 100
    },
    {
      "midi": 46,
      "hit": false,
      "t": 149024.1220000009,
      "d": 1.0162583333440125,
      "v": 100
    },
    {
      "midi": 48,
      "hit": false,
      "t": 149024.1220000023,
      "d": 731.7060000000056,
      "v": 100
    },
    {
      "midi": 55,
      "hit": false,
      "t": 149024.1220000023,
      "d": 731.7060000000056,
      "v": 100
    },
    {
      "midi": 67,
      "hit": false,
      "t": 149024.12200003126,
      "d": 60.975500000000466,
      "v": 100
    },
    {
      "midi": 63,
      "hit": false,
      "t": 149024.12200003126,
      "d": 60.975500000000466,
      "v": 100
    },
    {
      "midi": 72,
      "hit": false,
      "t": 149024.12200003126,
      "d": 60.975500000000466,
      "v": 100
    },
    {
      "midi": 41,
      "hit": false,
      "t": 149146.0730000006,
      "d": 1.0162583333440125,
      "v": 100
    },
    {
      "midi": 36,
      "hit": false,
      "t": 149146.07300000062,
      "d": 243.90200000000186,
      "v": 100
    },
    {
      "midi": 44,
      "hit": false,
      "t": 149146.0730000009,
      "d": 1.0162583333440125,
      "v": 100
    },
    {
      "midi": 67,
      "hit": false,
      "t": 149146.07300003126,
      "d": 60.975500000000466,
      "v": 100
    },
    {
      "midi": 63,
      "hit": false,
      "t": 149146.07300003126,
      "d": 60.975500000000466,
      "v": 100
    },
    {
      "midi": 72,
      "hit": false,
      "t": 149146.07300003126,
      "d": 60.975500000000466,
      "v": 100
    },
    {
      "midi": 33,
      "hit": false,
      "t": 149268.0240000009,
      "d": 1.0162583333440125,
      "v": 127
    },
    {
      "midi": 42,
      "hit": false,
      "t": 149268.0240000009,
      "d": 1.0162583333440125,
      "v": 100
    },
    {
      "midi": 67,
      "hit": false,
      "t": 149268.02400003126,
      "d": 60.97549999988405,
      "v": 100
    },
    {
      "midi": 63,
      "hit": false,
      "t": 149268.02400003126,
      "d": 60.97549999988405,
      "v": 100
    },
    {
      "midi": 72,
      "hit": false,
      "t": 149268.02400003126,
      "d": 60.97549999988405,
      "v": 100
    },
    {
      "midi": 41,
      "hit": false,
      "t": 149389.9750000006,
      "d": 1.0162583333440125,
      "v": 100
    },
    {
      "midi": 36,
      "hit": false,
      "t": 149389.97500000062,
      "d": 121.95100000000093,
      "v": 100
    },
    {
      "midi": 67,
      "hit": false,
      "t": 149389.97500003115,
      "d": 60.975500000000466,
      "v": 100
    },
    {
      "midi": 63,
      "hit": false,
      "t": 149389.97500003115,
      "d": 60.975500000000466,
      "v": 100
    },
    {
      "midi": 72,
      "hit": false,
      "t": 149389.97500003115,
      "d": 60.975500000000466,
      "v": 100
    },
    {
      "midi": 72,
      "hit": false,
      "t": 149511.9260000006,
      "d": 243.90200000000186,
      "v": 100
    },
    {
      "midi": 36,
      "hit": false,
      "t": 149511.92600000062,
      "d": 243.90200000000186,
      "v": 100
    },
    {
      "midi": 67,
      "hit": false,
      "t": 149511.92600000085,
      "d": 121.95100000000093,
      "v": 100
    },
    {
      "midi": 72,
      "hit": false,
      "t": 149511.92600000085,
      "d": 121.95100000000093,
      "v": 100
    },
    {
      "midi": 63,
      "hit": false,
      "t": 149511.92600000085,
      "d": 121.95100000000093,
      "v": 100
    },
    {
      "midi": 46,
      "hit": false,
      "t": 149511.9260000009,
      "d": 1.0162583333440125,
      "v": 100
    },
    {
      "midi": 67,
      "hit": false,
      "t": 149511.92600003106,
      "d": 60.975500000000466,
      "v": 100
    },
    {
      "midi": 63,
      "hit": false,
      "t": 149511.92600003106,
      "d": 60.975500000000466,
      "v": 100
    },
    {
      "midi": 72,
      "hit": false,
      "t": 149511.92600003106,
      "d": 60.975500000000466,
      "v": 100
    },
    {
      "midi": 44,
      "hit": false,
      "t": 149633.8770000009,
      "d": 1.0162583333440125,
      "v": 100
    },
    {
      "midi": 67,
      "hit": false,
      "t": 149633.87700003106,
      "d": 60.975500000000466,
      "v": 100
    },
    {
      "midi": 63,
      "hit": false,
      "t": 149633.87700003106,
      "d": 60.975500000000466,
      "v": 100
    },
    {
      "midi": 72,
      "hit": false,
      "t": 149633.87700003106,
      "d": 60.975500000000466,
      "v": 100
    },
    {
      "midi": 72,
      "hit": false,
      "t": 149755.8280000001,
      "d": 243.90200000000186,
      "v": 100
    },
    {
      "midi": 67,
      "hit": false,
      "t": 149755.82800000045,
      "d": 487.8040000000037,
      "v": 100
    },
    {
      "midi": 70,
      "hit": false,
      "t": 149755.82800000045,
      "d": 487.8040000000037,
      "v": 100
    },
    {
      "midi": 63,
      "hit": false,
      "t": 149755.82800000045,
      "d": 487.8040000000037,
      "v": 100
    },
    {
      "midi": 72,
      "hit": false,
      "t": 149755.8280000006,
      "d": 243.90200000000186,
      "v": 100
    },
    {
      "midi": 34,
      "hit": false,
      "t": 149755.82800000062,
      "d": 243.90200000000186,
      "v": 100
    },
    {
      "midi": 67,
      "hit": false,
      "t": 149755.82800000085,
      "d": 487.8040000000037,
      "v": 100
    },
    {
      "midi": 72,
      "hit": false,
      "t": 149755.82800000085,
      "d": 487.8040000000037,
      "v": 100
    },
    {
      "midi": 63,
      "hit": false,
      "t": 149755.82800000085,
      "d": 487.8040000000037,
      "v": 100
    },
    {
      "midi": 33,
      "hit": false,
      "t": 149755.8280000009,
      "d": 1.0162583333440125,
      "v": 127
    },
    {
      "midi": 40,
      "hit": false,
      "t": 149755.8280000009,
      "d": 1.0162583333440125,
      "v": 100
    },
    {
      "midi": 46,
      "hit": false,
      "t": 149755.8280000009,
      "d": 1.0162583333440125,
      "v": 100
    },
    {
      "midi": 57,
      "hit": false,
      "t": 149755.8280000009,
      "d": 1.0162583333440125,
      "v": 100
    },
    {
      "midi": 53,
      "hit": false,
      "t": 149755.8280000023,
      "d": 487.8040000000037,
      "v": 100
    },
    {
      "midi": 46,
      "hit": false,
      "t": 149755.8280000023,
      "d": 487.8040000000037,
      "v": 100
    },
    {
      "midi": 67,
      "hit": false,
      "t": 149755.82800003106,
      "d": 121.95099999991362,
      "v": 100
    },
    {
      "midi": 63,
      "hit": false,
      "t": 149755.82800003106,
      "d": 121.95099999991362,
      "v": 100
    },
    {
      "midi": 72,
      "hit": false,
      "t": 149755.82800003106,
      "d": 121.95099999991362,
      "v": 100
    },
    {
      "midi": 44,
      "hit": false,
      "t": 149877.7790000009,
      "d": 1.0162583333440125,
      "v": 100
    },
    {
      "midi": 67,
      "hit": false,
      "t": 149877.77900003098,
      "d": 121.95099999994272,
      "v": 100
    },
    {
      "midi": 63,
      "hit": false,
      "t": 149877.77900003098,
      "d": 121.95099999994272,
      "v": 100
    },
    {
      "midi": 72,
      "hit": false,
      "t": 149877.77900003098,
      "d": 121.95099999994272,
      "v": 100
    },
    {
      "midi": 74,
      "hit": false,
      "t": 149999.7300000001,
      "d": 243.90200000000186,
      "v": 100
    },
    {
      "midi": 74,
      "hit": false,
      "t": 149999.7300000006,
      "d": 243.90200000000186,
      "v": 100
    },
    {
      "midi": 34,
      "hit": false,
      "t": 149999.73000000062,
      "d": 243.90200000000186,
      "v": 100
    },
    {
      "midi": 40,
      "hit": false,
      "t": 149999.7300000009,
      "d": 1.0162583333440125,
      "v": 40
    },
    {
      "midi": 46,
      "hit": false,
      "t": 149999.7300000009,
      "d": 1.0162583333440125,
      "v": 100
    },
    {
      "midi": 67,
      "hit": false,
      "t": 149999.73000003092,
      "d": 60.975500000000466,
      "v": 100
    },
    {
      "midi": 63,
      "hit": false,
      "t": 149999.73000003092,
      "d": 60.975500000000466,
      "v": 100
    },
    {
      "midi": 72,
      "hit": false,
      "t": 149999.73000003092,
      "d": 60.975500000000466,
      "v": 100
    },
    {
      "midi": 40,
      "hit": false,
      "t": 150121.6810000009,
      "d": 1.0162583333440125,
      "v": 100
    },
    {
      "midi": 44,
      "hit": false,
      "t": 150121.6810000009,
      "d": 1.0162583333440125,
      "v": 100
    },
    {
      "midi": 67,
      "hit": false,
      "t": 150121.68100003092,
      "d": 60.975500000000466,
      "v": 100
    },
    {
      "midi": 63,
      "hit": false,
      "t": 150121.68100003092,
      "d": 60.975500000000466,
      "v": 100
    },
    {
      "midi": 72,
      "hit": false,
      "t": 150121.68100003092,
      "d": 60.975500000000466,
      "v": 100
    },
    {
      "midi": 75,
      "hit": false,
      "t": 150243.6320000001,
      "d": 243.90200000000186,
      "v": 100
    },
    {
      "midi": 68,
      "hit": false,
      "t": 150243.63200000045,
      "d": 975.6080000000075,
      "v": 100
    },
    {
      "midi": 63,
      "hit": false,
      "t": 150243.63200000045,
      "d": 975.6080000000075,
      "v": 100
    },
    {
      "midi": 60,
      "hit": false,
      "t": 150243.63200000045,
      "d": 975.6080000000075,
      "v": 100
    },
    {
      "midi": 75,
      "hit": false,
      "t": 150243.6320000006,
      "d": 365.8530000000028,
      "v": 100
    },
    {
      "midi": 29,
      "hit": false,
      "t": 150243.63200000062,
      "d": 243.90200000000186,
      "v": 100
    },
    {
      "midi": 68,
      "hit": false,
      "t": 150243.63200000086,
      "d": 365.8530000000028,
      "v": 100
    },
    {
      "midi": 63,
      "hit": false,
      "t": 150243.63200000086,
      "d": 365.8530000000028,
      "v": 100
    },
    {
      "midi": 33,
      "hit": false,
      "t": 150243.63200000091,
      "d": 1.0162583333440125,
      "v": 127
    },
    {
      "midi": 42,
      "hit": false,
      "t": 150243.63200000091,
      "d": 1.0162583333440125,
      "v": 100
    },
    {
      "midi": 57,
      "hit": false,
      "t": 150243.63200000091,
      "d": 1.0162583333440125,
      "v": 100
    },
    {
      "midi": 41,
      "hit": false,
      "t": 150243.6320000023,
      "d": 975.6080000000075,
      "v": 100
    },
    {
      "midi": 48,
      "hit": false,
      "t": 150243.6320000023,
      "d": 975.6080000000075,
      "v": 100
    },
    {
      "midi": 63,
      "hit": false,
      "t": 150243.63200003092,
      "d": 487.8040000000037,
      "v": 100
    },
    {
      "midi": 68,
      "hit": false,
      "t": 150243.63200003092,
      "d": 487.8040000000037,
      "v": 100
    },
    {
      "midi": 60,
      "hit": false,
      "t": 150243.63200003092,
      "d": 487.8040000000037,
      "v": 100
    },
    {
      "midi": 29,
      "hit": false,
      "t": 150487.53400000063,
      "d": 243.90200000000186,
      "v": 100
    },
    {
      "midi": 46,
      "hit": false,
      "t": 150487.53400000092,
      "d": 1.0162583333440125,
      "v": 100
    },
    {
      "midi": 75,
      "hit": false,
      "t": 150609.4850000001,
      "d": 243.90200000000186,
      "v": 100
    },
    {
      "midi": 72,
      "hit": false,
      "t": 150609.4850000006,
      "d": 365.8530000000028,
      "v": 100
    },
    {
      "midi": 68,
      "hit": false,
      "t": 150609.48500000086,
      "d": 121.95100000000093,
      "v": 100
    },
    {
      "midi": 63,
      "hit": false,
      "t": 150609.48500000086,
      "d": 121.95100000000093,
      "v": 100
    },
    {
      "midi": 44,
      "hit": false,
      "t": 150609.48500000092,
      "d": 1.0162583333440125,
      "v": 100
    },
    {
      "midi": 29,
      "hit": false,
      "t": 150731.43600000063,
      "d": 243.90200000000186,
      "v": 100
    },
    {
      "midi": 33,
      "hit": false,
      "t": 150731.43600000092,
      "d": 1.0162583333440125,
      "v": 127
    },
    {
      "midi": 40,
      "hit": false,
      "t": 150731.43600000092,
      "d": 1.0162583333440125,
      "v": 100
    },
    {
      "midi": 46,
      "hit": false,
      "t": 150731.43600000092,
      "d": 1.0162583333440125,
      "v": 100
    },
    {
      "midi": 63,
      "hit": false,
      "t": 150731.43600003092,
      "d": 60.97549999988405,
      "v": 100
    },
    {
      "midi": 68,
      "hit": false,
      "t": 150731.43600003092,
      "d": 60.97549999988405,
      "v": 100
    },
    {
      "midi": 60,
      "hit": false,
      "t": 150731.43600003092,
      "d": 60.97549999988405,
      "v": 100
    },
    {
      "midi": 44,
      "hit": false,
      "t": 150853.38700000092,
      "d": 1.0162583333440125,
      "v": 100
    },
    {
      "midi": 63,
      "hit": false,
      "t": 150853.3870000308,
      "d": 60.975500000000466,
      "v": 100
    },
    {
      "midi": 68,
      "hit": false,
      "t": 150853.3870000308,
      "d": 60.975500000000466,
      "v": 100
    },
    {
      "midi": 60,
      "hit": false,
      "t": 150853.3870000308,
      "d": 60.975500000000466,
      "v": 100
    },
    {
      "midi": 75,
      "hit": false,
      "t": 150975.3380000001,
      "d": 243.90200000000186,
      "v": 100
    },
    {
      "midi": 75,
      "hit": false,
      "t": 150975.3380000006,
      "d": 243.90200000000186,
      "v": 100
    },
    {
      "midi": 29,
      "hit": false,
      "t": 150975.33800000063,
      "d": 121.95100000000093,
      "v": 100
    },
    {
      "midi": 46,
      "hit": false,
      "t": 150975.33800000092,
      "d": 1.0162583333440125,
      "v": 100
    },
    {
      "midi": 40,
      "hit": false,
      "t": 150975.33800000092,
      "d": 1.0162583333440125,
      "v": 40
    },
    {
      "midi": 63,
      "hit": false,
      "t": 150975.33800003072,
      "d": 60.975500000000466,
      "v": 100
    },
    {
      "midi": 68,
      "hit": false,
      "t": 150975.33800003072,
      "d": 60.975500000000466,
      "v": 100
    },
    {
      "midi": 60,
      "hit": false,
      "t": 150975.33800003072,
      "d": 60.975500000000466,
      "v": 100
    },
    {
      "midi": 31,
      "hit": false,
      "t": 151097.28900000063,
      "d": 243.90200000000186,
      "v": 100
    },
    {
      "midi": 44,
      "hit": false,
      "t": 151097.28900000092,
      "d": 1.0162583333440125,
      "v": 100
    },
    {
      "midi": 40,
      "hit": false,
      "t": 151097.28900000092,
      "d": 1.0162583333440125,
      "v": 100
    },
    {
      "midi": 63,
      "hit": false,
      "t": 151097.28900003072,
      "d": 60.975500000000466,
      "v": 100
    },
    {
      "midi": 68,
      "hit": false,
      "t": 151097.28900003072,
      "d": 60.975500000000466,
      "v": 100
    },
    {
      "midi": 60,
      "hit": false,
      "t": 151097.28900003072,
      "d": 60.975500000000466,
      "v": 100
    },
    {
      "midi": 77,
      "hit": false,
      "t": 151219.2400000001,
      "d": 243.90200000000186,
      "v": 100
    },
    {
      "midi": 70,
      "hit": false,
      "t": 151219.24000000046,
      "d": 975.6080000000075,
      "v": 100
    },
    {
      "midi": 62,
      "hit": false,
      "t": 151219.24000000046,
      "d": 975.6080000000075,
      "v": 100
    },
    {
      "midi": 65,
      "hit": false,
      "t": 151219.24000000046,
      "d": 975.6080000000075,
      "v": 100
    },
    {
      "midi": 77,
      "hit": false,
      "t": 151219.2400000006,
      "d": 365.8530000000028,
      "v": 100
    },
    {
      "midi": 70,
      "hit": false,
      "t": 151219.24000000086,
      "d": 365.8530000000028,
      "v": 100
    },
    {
      "midi": 65,
      "hit": false,
      "t": 151219.24000000086,
      "d": 365.8530000000028,
      "v": 100
    },
    {
      "midi": 33,
      "hit": false,
      "t": 151219.24000000092,
      "d": 1.0162583333440125,
      "v": 127
    },
    {
      "midi": 42,
      "hit": false,
      "t": 151219.24000000092,
      "d": 1.0162583333440125,
      "v": 100
    },
    {
      "midi": 57,
      "hit": false,
      "t": 151219.24000000092,
      "d": 1.0162583333440125,
      "v": 100
    },
    {
      "midi": 43,
      "hit": false,
      "t": 151219.24000000232,
      "d": 975.6080000000075,
      "v": 100
    },
    {
      "midi": 50,
      "hit": false,
      "t": 151219.24000000232,
      "d": 975.6080000000075,
      "v": 100
    },
    {
      "midi": 65,
      "hit": false,
      "t": 151219.24000003072,
      "d": 60.97549999988405,
      "v": 100
    },
    {
      "midi": 70,
      "hit": false,
      "t": 151219.24000003072,
      "d": 60.97549999988405,
      "v": 100
    },
    {
      "midi": 62,
      "hit": false,
      "t": 151219.24000003072,
      "d": 60.97549999988405,
      "v": 100
    },
    {
      "midi": 31,
      "hit": false,
      "t": 151341.19100000063,
      "d": 121.95100000000093,
      "v": 100
    },
    {
      "midi": 65,
      "hit": false,
      "t": 151341.1910000306,
      "d": 60.975500000000466,
      "v": 100
    },
    {
      "midi": 70,
      "hit": false,
      "t": 151341.1910000306,
      "d": 60.975500000000466,
      "v": 100
    },
    {
      "midi": 62,
      "hit": false,
      "t": 151341.1910000306,
      "d": 60.975500000000466,
      "v": 100
    },
    {
      "midi": 31,
      "hit": false,
      "t": 151463.14200000063,
      "d": 243.90200000000186,
      "v": 100
    },
    {
      "midi": 46,
      "hit": false,
      "t": 151463.14200000092,
      "d": 1.0162583333440125,
      "v": 100
    },
    {
      "midi": 65,
      "hit": false,
      "t": 151463.14200003052,
      "d": 60.975500000000466,
      "v": 100
    },
    {
      "midi": 70,
      "hit": false,
      "t": 151463.14200003052,
      "d": 60.975500000000466,
      "v": 100
    },
    {
      "midi": 62,
      "hit": false,
      "t": 151463.14200003052,
      "d": 60.975500000000466,
      "v": 100
    },
    {
      "midi": 77,
      "hit": false,
      "t": 151585.0930000001,
      "d": 243.90200000000186,
      "v": 100
    },
    {
      "midi": 74,
      "hit": false,
      "t": 151585.0930000006,
      "d": 365.8530000000028,
      "v": 100
    },
    {
      "midi": 70,
      "hit": false,
      "t": 151585.09300000087,
      "d": 121.95100000000093,
      "v": 100
    },
    {
      "midi": 65,
      "hit": false,
      "t": 151585.09300000087,
      "d": 121.95100000000093,
      "v": 100
    },
    {
      "midi": 44,
      "hit": false,
      "t": 151585.09300000092,
      "d": 1.0162583333440125,
      "v": 100
    },
    {
      "midi": 65,
      "hit": false,
      "t": 151585.09300003052,
      "d": 60.975500000000466,
      "v": 100
    },
    {
      "midi": 70,
      "hit": false,
      "t": 151585.09300003052,
      "d": 60.975500000000466,
      "v": 100
    },
    {
      "midi": 62,
      "hit": false,
      "t": 151585.09300003052,
      "d": 60.975500000000466,
      "v": 100
    },
    {
      "midi": 31,
      "hit": false,
      "t": 151707.04400000063,
      "d": 243.90200000000186,
      "v": 100
    },
    {
      "midi": 33,
      "hit": false,
      "t": 151707.04400000093,
      "d": 1.0162583333440125,
      "v": 127
    },
    {
      "midi": 40,
      "hit": false,
      "t": 151707.04400000093,
      "d": 1.0162583333440125,
      "v": 100
    },
    {
      "midi": 46,
      "hit": false,
      "t": 151707.04400000093,
      "d": 1.0162583333440125,
      "v": 100
    },
    {
      "midi": 65,
      "hit": false,
      "t": 151707.04400003052,
      "d": 121.95099999991362,
      "v": 100
    },
    {
      "midi": 70,
      "hit": false,
      "t": 151707.04400003052,
      "d": 121.95099999991362,
      "v": 100
    },
    {
      "midi": 62,
      "hit": false,
      "t": 151707.04400003052,
      "d": 121.95099999991362,
      "v": 100
    },
    {
      "midi": 44,
      "hit": false,
      "t": 151828.99500000093,
      "d": 1.0162583333440125,
      "v": 100
    },
    {
      "midi": 65,
      "hit": false,
      "t": 151828.99500003044,
      "d": 121.95099999994272,
      "v": 100
    },
    {
      "midi": 70,
      "hit": false,
      "t": 151828.99500003044,
      "d": 121.95099999994272,
      "v": 100
    },
    {
      "midi": 62,
      "hit": false,
      "t": 151828.99500003044,
      "d": 121.95099999994272,
      "v": 100
    },
    {
      "midi": 77,
      "hit": false,
      "t": 151950.9460000001,
      "d": 243.90200000000186,
      "v": 100
    },
    {
      "midi": 77,
      "hit": false,
      "t": 151950.9460000006,
      "d": 243.90200000000186,
      "v": 100
    },
    {
      "midi": 31,
      "hit": false,
      "t": 151950.94600000064,
      "d": 121.95100000000093,
      "v": 100
    },
    {
      "midi": 46,
      "hit": false,
      "t": 151950.94600000093,
      "d": 1.0162583333440125,
      "v": 100
    },
    {
      "midi": 40,
      "hit": false,
      "t": 151950.94600000093,
      "d": 1.0162583333440125,
      "v": 40
    },
    {
      "midi": 65,
      "hit": false,
      "t": 151950.94600003038,
      "d": 60.975500000000466,
      "v": 100
    },
    {
      "midi": 70,
      "hit": false,
      "t": 151950.94600003038,
      "d": 60.975500000000466,
      "v": 100
    },
    {
      "midi": 62,
      "hit": false,
      "t": 151950.94600003038,
      "d": 60.975500000000466,
      "v": 100
    },
    {
      "midi": 32,
      "hit": false,
      "t": 152072.89700000064,
      "d": 243.90200000000186,
      "v": 100
    },
    {
      "midi": 44,
      "hit": false,
      "t": 152072.89700000093,
      "d": 1.0162583333440125,
      "v": 100
    },
    {
      "midi": 40,
      "hit": false,
      "t": 152072.89700000093,
      "d": 1.0162583333440125,
      "v": 100
    },
    {
      "midi": 65,
      "hit": false,
      "t": 152072.89700003038,
      "d": 60.975500000000466,
      "v": 100
    },
    {
      "midi": 70,
      "hit": false,
      "t": 152072.89700003038,
      "d": 60.975500000000466,
      "v": 100
    },
    {
      "midi": 62,
      "hit": false,
      "t": 152072.89700003038,
      "d": 60.975500000000466,
      "v": 100
    },
    {
      "midi": 79,
      "hit": false,
      "t": 152194.848,
      "d": 2439.0199999999895,
      "v": 127
    },
    {
      "midi": 79,
      "hit": false,
      "t": 152194.84800000011,
      "d": 243.90200000000186,
      "v": 100
    },
    {
      "midi": 63,
      "hit": false,
      "t": 152194.84800000046,
      "d": 975.6080000000075,
      "v": 100
    },
    {
      "midi": 72,
      "hit": false,
      "t": 152194.84800000046,
      "d": 975.6080000000075,
      "v": 100
    },
    {
      "midi": 67,
      "hit": false,
      "t": 152194.84800000046,
      "d": 975.6080000000075,
      "v": 100
    },
    {
      "midi": 79,
      "hit": false,
      "t": 152194.8480000006,
      "d": 365.8530000000028,
      "v": 100
    },
    {
      "midi": 72,
      "hit": false,
      "t": 152194.84800000087,
      "d": 365.8530000000028,
      "v": 100
    },
    {
      "midi": 67,
      "hit": false,
      "t": 152194.84800000087,
      "d": 365.8530000000028,
      "v": 100
    },
    {
      "midi": 33,
      "hit": false,
      "t": 152194.84800000093,
      "d": 1.0162583333440125,
      "v": 127
    },
    {
      "midi": 42,
      "hit": false,
      "t": 152194.84800000093,
      "d": 1.0162583333440125,
      "v": 100
    },
    {
      "midi": 57,
      "hit": false,
      "t": 152194.84800000093,
      "d": 1.0162583333440125,
      "v": 100
    },
    {
      "midi": 44,
      "hit": false,
      "t": 152194.84800000233,
      "d": 975.6080000000075,
      "v": 100
    },
    {
      "midi": 51,
      "hit": false,
      "t": 152194.84800000233,
      "d": 975.6080000000075,
      "v": 100
    },
    {
      "midi": 67,
      "hit": false,
      "t": 152194.84800003038,
      "d": 487.8040000000037,
      "v": 100
    },
    {
      "midi": 63,
      "hit": false,
      "t": 152194.84800003038,
      "d": 487.8040000000037,
      "v": 100
    },
    {
      "midi": 72,
      "hit": false,
      "t": 152194.84800003038,
      "d": 487.8040000000037,
      "v": 100
    },
    {
      "midi": 32,
      "hit": false,
      "t": 152316.79900000064,
      "d": 121.95100000000093,
      "v": 100
    },
    {
      "midi": 32,
      "hit": false,
      "t": 152438.75000000064,
      "d": 243.90200000000186,
      "v": 100
    },
    {
      "midi": 46,
      "hit": false,
      "t": 152438.75000000093,
      "d": 1.0162583333440125,
      "v": 100
    },
    {
      "midi": 40,
      "hit": false,
      "t": 152438.75000000093,
      "d": 1.0162583333440125,
      "v": 100
    },
    {
      "midi": 79,
      "hit": false,
      "t": 152560.70100000012,
      "d": 243.90200000000186,
      "v": 100
    },
    {
      "midi": 75,
      "hit": false,
      "t": 152560.7010000006,
      "d": 365.8530000000028,
      "v": 100
    },
    {
      "midi": 72,
      "hit": false,
      "t": 152560.70100000087,
      "d": 121.95100000000093,
      "v": 100
    },
    {
      "midi": 67,
      "hit": false,
      "t": 152560.70100000087,
      "d": 121.95100000000093,
      "v": 100
    },
    {
      "midi": 44,
      "hit": false,
      "t": 152560.70100000093,
      "d": 1.0162583333440125,
      "v": 100
    },
    {
      "midi": 32,
      "hit": false,
      "t": 152682.65200000064,
      "d": 243.90200000000186,
      "v": 100
    },
    {
      "midi": 33,
      "hit": false,
      "t": 152682.65200000093,
      "d": 1.0162583333440125,
      "v": 127
    },
    {
      "midi": 40,
      "hit": false,
      "t": 152682.65200000093,
      "d": 1.0162583333440125,
      "v": 100
    },
    {
      "midi": 46,
      "hit": false,
      "t": 152682.65200000093,
      "d": 1.0162583333440125,
      "v": 100
    },
    {
      "midi": 67,
      "hit": false,
      "t": 152682.6520000304,
      "d": 60.97549999988405,
      "v": 100
    },
    {
      "midi": 63,
      "hit": false,
      "t": 152682.6520000304,
      "d": 60.97549999988405,
      "v": 100
    },
    {
      "midi": 72,
      "hit": false,
      "t": 152682.6520000304,
      "d": 60.97549999988405,
      "v": 100
    },
    {
      "midi": 44,
      "hit": false,
      "t": 152804.60300000093,
      "d": 1.0162583333440125,
      "v": 100
    },
    {
      "midi": 67,
      "hit": false,
      "t": 152804.60300003027,
      "d": 60.975500000000466,
      "v": 100
    },
    {
      "midi": 63,
      "hit": false,
      "t": 152804.60300003027,
      "d": 60.975500000000466,
      "v": 100
    },
    {
      "midi": 72,
      "hit": false,
      "t": 152804.60300003027,
      "d": 60.975500000000466,
      "v": 100
    },
    {
      "midi": 79,
      "hit": false,
      "t": 152926.55400000012,
      "d": 243.90200000000186,
      "v": 100
    },
    {
      "midi": 79,
      "hit": false,
      "t": 152926.55400000061,
      "d": 243.90200000000186,
      "v": 100
    },
    {
      "midi": 32,
      "hit": false,
      "t": 152926.55400000064,
      "d": 121.95100000000093,
      "v": 100
    },
    {
      "midi": 46,
      "hit": false,
      "t": 152926.55400000094,
      "d": 1.0162583333440125,
      "v": 100
    },
    {
      "midi": 67,
      "hit": false,
      "t": 152926.55400003018,
      "d": 60.975500000000466,
      "v": 100
    },
    {
      "midi": 63,
      "hit": false,
      "t": 152926.55400003018,
      "d": 60.975500000000466,
      "v": 100
    },
    {
      "midi": 72,
      "hit": false,
      "t": 152926.55400003018,
      "d": 60.975500000000466,
      "v": 100
    },
    {
      "midi": 34,
      "hit": false,
      "t": 153048.50500000064,
      "d": 243.90200000000186,
      "v": 100
    },
    {
      "midi": 44,
      "hit": false,
      "t": 153048.50500000094,
      "d": 1.0162583333440125,
      "v": 100
    },
    {
      "midi": 40,
      "hit": false,
      "t": 153048.50500000094,
      "d": 1.0162583333440125,
      "v": 100
    },
    {
      "midi": 67,
      "hit": false,
      "t": 153048.50500003019,
      "d": 60.975500000000466,
      "v": 100
    },
    {
      "midi": 63,
      "hit": false,
      "t": 153048.50500003019,
      "d": 60.975500000000466,
      "v": 100
    },
    {
      "midi": 72,
      "hit": false,
      "t": 153048.50500003019,
      "d": 60.975500000000466,
      "v": 100
    },
    {
      "midi": 82,
      "hit": false,
      "t": 153170.45600000012,
      "d": 243.90200000000186,
      "v": 100
    },
    {
      "midi": 74,
      "hit": false,
      "t": 153170.45600000047,
      "d": 975.6080000000075,
      "v": 100
    },
    {
      "midi": 65,
      "hit": false,
      "t": 153170.45600000047,
      "d": 975.6080000000075,
      "v": 100
    },
    {
      "midi": 70,
      "hit": false,
      "t": 153170.45600000047,
      "d": 975.6080000000075,
      "v": 100
    },
    {
      "midi": 82,
      "hit": false,
      "t": 153170.45600000062,
      "d": 243.90200000000186,
      "v": 100
    },
    {
      "midi": 74,
      "hit": false,
      "t": 153170.45600000088,
      "d": 365.8530000000028,
      "v": 100
    },
    {
      "midi": 70,
      "hit": false,
      "t": 153170.45600000088,
      "d": 365.8530000000028,
      "v": 100
    },
    {
      "midi": 33,
      "hit": false,
      "t": 153170.45600000094,
      "d": 1.0162583333440125,
      "v": 127
    },
    {
      "midi": 42,
      "hit": false,
      "t": 153170.45600000094,
      "d": 1.0162583333440125,
      "v": 100
    },
    {
      "midi": 46,
      "hit": false,
      "t": 153170.45600000233,
      "d": 975.6080000005895,
      "v": 100
    },
    {
      "midi": 53,
      "hit": false,
      "t": 153170.45600000233,
      "d": 975.6080000005895,
      "v": 100
    },
    {
      "midi": 65,
      "hit": false,
      "t": 153170.4560000302,
      "d": 60.97549999988405,
      "v": 100
    },
    {
      "midi": 74,
      "hit": false,
      "t": 153170.4560000302,
      "d": 60.97549999988405,
      "v": 100
    },
    {
      "midi": 70,
      "hit": false,
      "t": 153170.4560000302,
      "d": 60.97549999988405,
      "v": 100
    },
    {
      "midi": 34,
      "hit": false,
      "t": 153292.40700000065,
      "d": 121.95100000000093,
      "v": 100
    },
    {
      "midi": 40,
      "hit": false,
      "t": 153292.40700000094,
      "d": 1.0162583333440125,
      "v": 100
    },
    {
      "midi": 65,
      "hit": false,
      "t": 153292.40700003007,
      "d": 60.975500000000466,
      "v": 100
    },
    {
      "midi": 74,
      "hit": false,
      "t": 153292.40700003007,
      "d": 60.975500000000466,
      "v": 100
    },
    {
      "midi": 70,
      "hit": false,
      "t": 153292.40700003007,
      "d": 60.975500000000466,
      "v": 100
    },
    {
      "midi": 34,
      "hit": false,
      "t": 153414.35800000065,
      "d": 243.90200000000186,
      "v": 100
    },
    {
      "midi": 46,
      "hit": false,
      "t": 153414.35800000094,
      "d": 1.0162583333440125,
      "v": 100
    },
    {
      "midi": 65,
      "hit": false,
      "t": 153414.35800002998,
      "d": 60.975500000000466,
      "v": 100
    },
    {
      "midi": 74,
      "hit": false,
      "t": 153414.35800002998,
      "d": 60.975500000000466,
      "v": 100
    },
    {
      "midi": 70,
      "hit": false,
      "t": 153414.35800002998,
      "d": 60.975500000000466,
      "v": 100
    },
    {
      "midi": 82,
      "hit": false,
      "t": 153536.30900000012,
      "d": 243.90200000000186,
      "v": 100
    },
    {
      "midi": 74,
      "hit": false,
      "t": 153536.30900000088,
      "d": 121.95100000000093,
      "v": 100
    },
    {
      "midi": 70,
      "hit": false,
      "t": 153536.30900000088,
      "d": 121.95100000000093,
      "v": 100
    },
    {
      "midi": 44,
      "hit": false,
      "t": 153536.30900000094,
      "d": 1.0162583333440125,
      "v": 100
    },
    {
      "midi": 65,
      "hit": false,
      "t": 153536.30900002999,
      "d": 60.975500000000466,
      "v": 100
    },
    {
      "midi": 74,
      "hit": false,
      "t": 153536.30900002999,
      "d": 60.975500000000466,
      "v": 100
    },
    {
      "midi": 70,
      "hit": false,
      "t": 153536.30900002999,
      "d": 60.975500000000466,
      "v": 100
    },
    {
      "midi": 79,
      "hit": false,
      "t": 153658.26000000062,
      "d": 243.90200000000186,
      "v": 100
    },
    {
      "midi": 75,
      "hit": false,
      "t": 153658.26000000062,
      "d": 243.90200000000186,
      "v": 100
    },
    {
      "midi": 31,
      "hit": false,
      "t": 153658.26000000065,
      "d": 243.90200000000186,
      "v": 100
    },
    {
      "midi": 33,
      "hit": false,
      "t": 153658.26000000094,
      "d": 1.0162583333440125,
      "v": 127
    },
    {
      "midi": 40,
      "hit": false,
      "t": 153658.26000000094,
      "d": 1.0162583333440125,
      "v": 100
    },
    {
      "midi": 46,
      "hit": false,
      "t": 153658.26000000094,
      "d": 1.0162583333440125,
      "v": 100
    },
    {
      "midi": 57,
      "hit": false,
      "t": 153658.26000000094,
      "d": 1.0162583333440125,
      "v": 100
    },
    {
      "midi": 65,
      "hit": false,
      "t": 153658.26000003,
      "d": 121.95099999991362,
      "v": 100
    },
    {
      "midi": 74,
      "hit": false,
      "t": 153658.26000003,
      "d": 121.95099999991362,
      "v": 100
    },
    {
      "midi": 70,
      "hit": false,
      "t": 153658.26000003,
      "d": 121.95099999991362,
      "v": 100
    },
    {
      "midi": 44,
      "hit": false,
      "t": 153780.21100000094,
      "d": 1.0162583333440125,
      "v": 100
    },
    {
      "midi": 40,
      "hit": false,
      "t": 153780.21100000094,
      "d": 1.0162583333440125,
      "v": 100
    },
    {
      "midi": 65,
      "hit": false,
      "t": 153780.2110000299,
      "d": 121.95099999994272,
      "v": 100
    },
    {
      "midi": 74,
      "hit": false,
      "t": 153780.2110000299,
      "d": 121.95099999994272,
      "v": 100
    },
    {
      "midi": 70,
      "hit": false,
      "t": 153780.2110000299,
      "d": 121.95099999994272,
      "v": 100
    },
    {
      "midi": 82,
      "hit": false,
      "t": 153902.16200000013,
      "d": 243.90200000000186,
      "v": 100
    },
    {
      "midi": 82,
      "hit": false,
      "t": 153902.16200000062,
      "d": 243.90200000000186,
      "v": 100
    },
    {
      "midi": 79,
      "hit": false,
      "t": 153902.16200000062,
      "d": 243.90200000000186,
      "v": 100
    },
    {
      "midi": 34,
      "hit": false,
      "t": 153902.16200000065,
      "d": 243.90200000000186,
      "v": 100
    },
    {
      "midi": 40,
      "hit": false,
      "t": 153902.16200000094,
      "d": 1.0162583333440125,
      "v": 100
    },
    {
      "midi": 46,
      "hit": false,
      "t": 153902.16200000094,
      "d": 1.0162583333440125,
      "v": 100
    },
    {
      "midi": 65,
      "hit": false,
      "t": 153902.16200002984,
      "d": 60.975500000000466,
      "v": 100
    },
    {
      "midi": 74,
      "hit": false,
      "t": 153902.16200002984,
      "d": 60.975500000000466,
      "v": 100
    },
    {
      "midi": 70,
      "hit": false,
      "t": 153902.16200002984,
      "d": 60.975500000000466,
      "v": 100
    },
    {
      "midi": 40,
      "hit": false,
      "t": 154024.11300000094,
      "d": 1.0162583333440125,
      "v": 100
    },
    {
      "midi": 44,
      "hit": false,
      "t": 154024.11300000094,
      "d": 1.0162583333440125,
      "v": 100
    },
    {
      "midi": 65,
      "hit": false,
      "t": 154024.11300002984,
      "d": 60.975500000000466,
      "v": 100
    },
    {
      "midi": 74,
      "hit": false,
      "t": 154024.11300002984,
      "d": 60.975500000000466,
      "v": 100
    },
    {
      "midi": 70,
      "hit": false,
      "t": 154024.11300002984,
      "d": 60.975500000000466,
      "v": 100
    },
    {
      "midi": 84,
      "hit": false,
      "t": 154146.06400000048,
      "d": 243.90200000000186,
      "v": 100
    },
    {
      "midi": 79,
      "hit": false,
      "t": 154146.06400000048,
      "d": 243.90200000000186,
      "v": 100
    },
    {
      "midi": 75,
      "hit": false,
      "t": 154146.06400000048,
      "d": 243.90200000000186,
      "v": 100
    },
    {
      "midi": 54,
      "hit": false,
      "t": 154146.0640000006,
      "d": 1.0162583333440125,
      "v": 80
    },
    {
      "midi": 84,
      "hit": false,
      "t": 154146.06400000062,
      "d": 243.90200000000186,
      "v": 100
    },
    {
      "midi": 79,
      "hit": false,
      "t": 154146.06400000062,
      "d": 243.90200000000186,
      "v": 100
    },
    {
      "midi": 72,
      "hit": false,
      "t": 154146.06400000065,
      "d": 121.95100000000093,
      "v": 100
    },
    {
      "midi": 36,
      "hit": false,
      "t": 154146.06400000065,
      "d": 243.90200000000186,
      "v": 100
    },
    {
      "midi": 33,
      "hit": false,
      "t": 154146.06400000094,
      "d": 1.0162583333440125,
      "v": 127
    },
    {
      "midi": 42,
      "hit": false,
      "t": 154146.06400000094,
      "d": 1.0162583333440125,
      "v": 100
    },
    {
      "midi": 57,
      "hit": false,
      "t": 154146.06400000094,
      "d": 1.0162583333440125,
      "v": 100
    },
    {
      "midi": 48,
      "hit": false,
      "t": 154146.06400000292,
      "d": 975.6080000000075,
      "v": 100
    },
    {
      "midi": 55,
      "hit": false,
      "t": 154146.06400000292,
      "d": 975.6080000000075,
      "v": 100
    },
    {
      "midi": 72,
      "hit": false,
      "t": 154146.06400002984,
      "d": 487.8040000000037,
      "v": 100
    },
    {
      "midi": 67,
      "hit": false,
      "t": 154146.06400002984,
      "d": 487.8040000000037,
      "v": 100
    },
    {
      "midi": 63,
      "hit": false,
      "t": 154146.06400002984,
      "d": 487.8040000000037,
      "v": 100
    },
    {
      "midi": 54,
      "hit": false,
      "t": 154268.0150000006,
      "d": 1.0162583333440125,
      "v": 60
    },
    {
      "midi": 72,
      "hit": false,
      "t": 154268.01500000065,
      "d": 121.95100000000093,
      "v": 100
    },
    {
      "midi": 72,
      "hit": false,
      "t": 154268.0150000009,
      "d": 121.95100000000093,
      "v": 100
    },
    {
      "midi": 67,
      "hit": false,
      "t": 154268.0150000009,
      "d": 121.95100000000093,
      "v": 100
    },
    {
      "midi": 63,
      "hit": false,
      "t": 154268.0150000009,
      "d": 121.95100000000093,
      "v": 100
    },
    {
      "midi": 54,
      "hit": false,
      "t": 154389.9660000006,
      "d": 1.0162583333440125,
      "v": 60
    },
    {
      "midi": 79,
      "hit": false,
      "t": 154389.96600000066,
      "d": 121.95100000000093,
      "v": 100
    },
    {
      "midi": 36,
      "hit": false,
      "t": 154389.96600000066,
      "d": 243.90200000000186,
      "v": 100
    },
    {
      "midi": 72,
      "hit": false,
      "t": 154389.9660000009,
      "d": 121.95100000000093,
      "v": 100
    },
    {
      "midi": 67,
      "hit": false,
      "t": 154389.9660000009,
      "d": 121.95100000000093,
      "v": 100
    },
    {
      "midi": 63,
      "hit": false,
      "t": 154389.9660000009,
      "d": 121.95100000000093,
      "v": 100
    },
    {
      "midi": 46,
      "hit": false,
      "t": 154389.96600000095,
      "d": 1.0162583333440125,
      "v": 100
    },
    {
      "midi": 54,
      "hit": false,
      "t": 154511.9170000006,
      "d": 1.0162583333440125,
      "v": 60
    },
    {
      "midi": 79,
      "hit": false,
      "t": 154511.91700000066,
      "d": 121.95100000000093,
      "v": 100
    },
    {
      "midi": 44,
      "hit": false,
      "t": 154511.91700000095,
      "d": 1.0162583333440125,
      "v": 100
    },
    {
      "midi": 84,
      "hit": false,
      "t": 154633.86800000048,
      "d": 243.90200000000186,
      "v": 100
    },
    {
      "midi": 79,
      "hit": false,
      "t": 154633.86800000048,
      "d": 243.90200000000186,
      "v": 100
    },
    {
      "midi": 75,
      "hit": false,
      "t": 154633.86800000048,
      "d": 243.90200000000186,
      "v": 100
    },
    {
      "midi": 54,
      "hit": false,
      "t": 154633.8680000006,
      "d": 1.0162583333440125,
      "v": 80
    },
    {
      "midi": 84,
      "hit": false,
      "t": 154633.86800000063,
      "d": 243.90200000000186,
      "v": 100
    },
    {
      "midi": 79,
      "hit": false,
      "t": 154633.86800000063,
      "d": 243.90200000000186,
      "v": 100
    },
    {
      "midi": 75,
      "hit": false,
      "t": 154633.86800000066,
      "d": 121.95100000000093,
      "v": 100
    },
    {
      "midi": 36,
      "hit": false,
      "t": 154633.86800000066,
      "d": 243.90200000000186,
      "v": 100
    },
    {
      "midi": 72,
      "hit": false,
      "t": 154633.8680000009,
      "d": 121.95100000000093,
      "v": 100
    },
    {
      "midi": 67,
      "hit": false,
      "t": 154633.8680000009,
      "d": 121.95100000000093,
      "v": 100
    },
    {
      "midi": 63,
      "hit": false,
      "t": 154633.8680000009,
      "d": 121.95100000000093,
      "v": 100
    },
    {
      "midi": 33,
      "hit": false,
      "t": 154633.86800000095,
      "d": 1.0162583333440125,
      "v": 127
    },
    {
      "midi": 40,
      "hit": false,
      "t": 154633.86800000095,
      "d": 1.0162583333440125,
      "v": 100
    },
    {
      "midi": 46,
      "hit": false,
      "t": 154633.86800000095,
      "d": 1.0162583333440125,
      "v": 100
    },
    {
      "midi": 72,
      "hit": false,
      "t": 154633.86800002985,
      "d": 60.97549999988405,
      "v": 100
    },
    {
      "midi": 67,
      "hit": false,
      "t": 154633.86800002985,
      "d": 60.97549999988405,
      "v": 100
    },
    {
      "midi": 63,
      "hit": false,
      "t": 154633.86800002985,
      "d": 60.97549999988405,
      "v": 100
    },
    {
      "midi": 54,
      "hit": false,
      "t": 154755.8190000006,
      "d": 1.0162583333440125,
      "v": 60
    },
    {
      "midi": 75,
      "hit": false,
      "t": 154755.81900000066,
      "d": 121.95100000000093,
      "v": 100
    },
    {
      "midi": 44,
      "hit": false,
      "t": 154755.81900000095,
      "d": 1.0162583333440125,
      "v": 100
    },
    {
      "midi": 72,
      "hit": false,
      "t": 154755.81900002973,
      "d": 60.975500000000466,
      "v": 100
    },
    {
      "midi": 67,
      "hit": false,
      "t": 154755.81900002973,
      "d": 60.975500000000466,
      "v": 100
    },
    {
      "midi": 63,
      "hit": false,
      "t": 154755.81900002973,
      "d": 60.975500000000466,
      "v": 100
    },
    {
      "midi": 84,
      "hit": false,
      "t": 154877.77000000048,
      "d": 30.487750000000233,
      "v": 100
    },
    {
      "midi": 79,
      "hit": false,
      "t": 154877.77000000048,
      "d": 30.487750000000233,
      "v": 100
    },
    {
      "midi": 54,
      "hit": false,
      "t": 154877.7700000006,
      "d": 1.0162583333440125,
      "v": 60
    },
    {
      "midi": 87,
      "hit": false,
      "t": 154877.77000000063,
      "d": 121.95100000000093,
      "v": 100
    },
    {
      "midi": 82,
      "hit": false,
      "t": 154877.77000000063,
      "d": 121.95100000000093,
      "v": 100
    },
    {
      "midi": 82,
      "hit": false,
      "t": 154877.77000000066,
      "d": 121.95100000000093,
      "v": 100
    },
    {
      "midi": 36,
      "hit": false,
      "t": 154877.77000000066,
      "d": 60.975500000000466,
      "v": 100
    },
    {
      "midi": 72,
      "hit": false,
      "t": 154877.7700000009,
      "d": 121.95100000000093,
      "v": 100
    },
    {
      "midi": 67,
      "hit": false,
      "t": 154877.7700000009,
      "d": 121.95100000000093,
      "v": 100
    },
    {
      "midi": 63,
      "hit": false,
      "t": 154877.7700000009,
      "d": 121.95100000000093,
      "v": 100
    },
    {
      "midi": 46,
      "hit": false,
      "t": 154877.77000000095,
      "d": 1.0162583333440125,
      "v": 100
    },
    {
      "midi": 72,
      "hit": false,
      "t": 154877.77000002965,
      "d": 60.975500000000466,
      "v": 100
    },
    {
      "midi": 67,
      "hit": false,
      "t": 154877.77000002965,
      "d": 60.975500000000466,
      "v": 100
    },
    {
      "midi": 63,
      "hit": false,
      "t": 154877.77000002965,
      "d": 60.975500000000466,
      "v": 100
    },
    {
      "midi": 84,
      "hit": false,
      "t": 154999.72100000049,
      "d": 243.90200000000186,
      "v": 100
    },
    {
      "midi": 80,
      "hit": false,
      "t": 154999.72100000049,
      "d": 243.90200000000186,
      "v": 100
    },
    {
      "midi": 75,
      "hit": false,
      "t": 154999.72100000049,
      "d": 243.90200000000186,
      "v": 100
    },
    {
      "midi": 54,
      "hit": false,
      "t": 154999.7210000006,
      "d": 1.0162583333440125,
      "v": 60
    },
    {
      "midi": 84,
      "hit": false,
      "t": 154999.72100000063,
      "d": 365.8530000000028,
      "v": 100
    },
    {
      "midi": 80,
      "hit": false,
      "t": 154999.72100000063,
      "d": 365.8530000000028,
      "v": 100
    },
    {
      "midi": 82,
      "hit": false,
      "t": 154999.72100000066,
      "d": 121.95100000000093,
      "v": 100
    },
    {
      "midi": 32,
      "hit": false,
      "t": 154999.72100000066,
      "d": 243.90200000000186,
      "v": 100
    },
    {
      "midi": 44,
      "hit": false,
      "t": 154999.72100000095,
      "d": 1.0162583333440125,
      "v": 100
    },
    {
      "midi": 72,
      "hit": false,
      "t": 154999.72100002965,
      "d": 60.975500000000466,
      "v": 100
    },
    {
      "midi": 67,
      "hit": false,
      "t": 154999.72100002965,
      "d": 60.975500000000466,
      "v": 100
    },
    {
      "midi": 63,
      "hit": false,
      "t": 154999.72100002965,
      "d": 60.975500000000466,
      "v": 100
    },
    {
      "midi": 54,
      "hit": false,
      "t": 155121.6720000006,
      "d": 1.0162583333440125,
      "v": 80
    },
    {
      "midi": 84,
      "hit": false,
      "t": 155121.67200000066,
      "d": 121.95100000000093,
      "v": 100
    },
    {
      "midi": 68,
      "hit": false,
      "t": 155121.6720000009,
      "d": 121.95100000000093,
      "v": 100
    },
    {
      "midi": 63,
      "hit": false,
      "t": 155121.6720000009,
      "d": 121.95100000000093,
      "v": 100
    },
    {
      "midi": 60,
      "hit": false,
      "t": 155121.6720000009,
      "d": 121.95100000000093,
      "v": 100
    },
    {
      "midi": 33,
      "hit": false,
      "t": 155121.67200000095,
      "d": 1.0162583333440125,
      "v": 127
    },
    {
      "midi": 42,
      "hit": false,
      "t": 155121.67200000095,
      "d": 1.0162583333440125,
      "v": 100
    },
    {
      "midi": 44,
      "hit": false,
      "t": 155121.67200000293,
      "d": 975.6080000000075,
      "v": 100
    },
    {
      "midi": 51,
      "hit": false,
      "t": 155121.67200000293,
      "d": 975.6080000000075,
      "v": 100
    },
    {
      "midi": 68,
      "hit": false,
      "t": 155121.67200002965,
      "d": 60.97549999988405,
      "v": 100
    },
    {
      "midi": 63,
      "hit": false,
      "t": 155121.67200002965,
      "d": 60.97549999988405,
      "v": 100
    },
    {
      "midi": 60,
      "hit": false,
      "t": 155121.67200002965,
      "d": 60.97549999988405,
      "v": 100
    },
    {
      "midi": 84,
      "hit": false,
      "t": 155243.6230000005,
      "d": 121.95100000000093,
      "v": 100
    },
    {
      "midi": 80,
      "hit": false,
      "t": 155243.6230000005,
      "d": 121.95100000000093,
      "v": 100
    },
    {
      "midi": 75,
      "hit": false,
      "t": 155243.6230000005,
      "d": 121.95100000000093,
      "v": 100
    },
    {
      "midi": 54,
      "hit": false,
      "t": 155243.6230000006,
      "d": 1.0162583333440125,
      "v": 60
    },
    {
      "midi": 84,
      "hit": false,
      "t": 155243.62300000066,
      "d": 121.95100000000093,
      "v": 100
    },
    {
      "midi": 32,
      "hit": false,
      "t": 155243.62300000066,
      "d": 121.95100000000093,
      "v": 100
    },
    {
      "midi": 68,
      "hit": false,
      "t": 155243.6230000009,
      "d": 121.95100000000093,
      "v": 100
    },
    {
      "midi": 63,
      "hit": false,
      "t": 155243.6230000009,
      "d": 121.95100000000093,
      "v": 100
    },
    {
      "midi": 60,
      "hit": false,
      "t": 155243.6230000009,
      "d": 121.95100000000093,
      "v": 100
    },
    {
      "midi": 68,
      "hit": false,
      "t": 155243.62300002953,
      "d": 60.975500000000466,
      "v": 100
    },
    {
      "midi": 63,
      "hit": false,
      "t": 155243.62300002953,
      "d": 60.975500000000466,
      "v": 100
    },
    {
      "midi": 60,
      "hit": false,
      "t": 155243.62300002953,
      "d": 60.975500000000466,
      "v": 100
    },
    {
      "midi": 84,
      "hit": false,
      "t": 155365.5740000005,
      "d": 243.90200000000186,
      "v": 100
    },
    {
      "midi": 80,
      "hit": false,
      "t": 155365.5740000005,
      "d": 243.90200000000186,
      "v": 100
    },
    {
      "midi": 75,
      "hit": false,
      "t": 155365.5740000005,
      "d": 243.90200000000186,
      "v": 100
    },
    {
      "midi": 54,
      "hit": false,
      "t": 155365.5740000006,
      "d": 1.0162583333440125,
      "v": 60
    },
    {
      "midi": 80,
      "hit": false,
      "t": 155365.57400000066,
      "d": 121.95100000000093,
      "v": 100
    },
    {
      "midi": 32,
      "hit": false,
      "t": 155365.57400000066,
      "d": 243.90200000000186,
      "v": 100
    },
    {
      "midi": 46,
      "hit": false,
      "t": 155365.57400000095,
      "d": 1.0162583333440125,
      "v": 100
    },
    {
      "midi": 68,
      "hit": false,
      "t": 155365.57400002945,
      "d": 60.975500000000466,
      "v": 100
    },
    {
      "midi": 63,
      "hit": false,
      "t": 155365.57400002945,
      "d": 60.975500000000466,
      "v": 100
    },
    {
      "midi": 60,
      "hit": false,
      "t": 155365.57400002945,
      "d": 60.975500000000466,
      "v": 100
    },
    {
      "midi": 54,
      "hit": false,
      "t": 155487.5250000006,
      "d": 1.0162583333440125,
      "v": 60
    },
    {
      "midi": 80,
      "hit": false,
      "t": 155487.52500000066,
      "d": 121.95100000000093,
      "v": 100
    },
    {
      "midi": 68,
      "hit": false,
      "t": 155487.5250000009,
      "d": 121.95100000000093,
      "v": 100
    },
    {
      "midi": 63,
      "hit": false,
      "t": 155487.5250000009,
      "d": 121.95100000000093,
      "v": 100
    },
    {
      "midi": 60,
      "hit": false,
      "t": 155487.5250000009,
      "d": 121.95100000000093,
      "v": 100
    },
    {
      "midi": 44,
      "hit": false,
      "t": 155487.52500000095,
      "d": 1.0162583333440125,
      "v": 100
    },
    {
      "midi": 68,
      "hit": false,
      "t": 155487.52500002945,
      "d": 60.975500000000466,
      "v": 100
    },
    {
      "midi": 63,
      "hit": false,
      "t": 155487.52500002945,
      "d": 60.975500000000466,
      "v": 100
    },
    {
      "midi": 60,
      "hit": false,
      "t": 155487.52500002945,
      "d": 60.975500000000466,
      "v": 100
    },
    {
      "midi": 84,
      "hit": false,
      "t": 155609.4760000005,
      "d": 243.90200000000186,
      "v": 100
    },
    {
      "midi": 80,
      "hit": false,
      "t": 155609.4760000005,
      "d": 243.90200000000186,
      "v": 100
    },
    {
      "midi": 75,
      "hit": false,
      "t": 155609.4760000005,
      "d": 243.90200000000186,
      "v": 100
    },
    {
      "midi": 54,
      "hit": false,
      "t": 155609.4760000006,
      "d": 1.0162583333440125,
      "v": 80
    },
    {
      "midi": 84,
      "hit": false,
      "t": 155609.47600000064,
      "d": 243.90200000000186,
      "v": 100
    },
    {
      "midi": 82,
      "hit": false,
      "t": 155609.47600000064,
      "d": 243.90200000000186,
      "v": 100
    },
    {
      "midi": 75,
      "hit": false,
      "t": 155609.47600000066,
      "d": 121.95100000000093,
      "v": 100
    },
    {
      "midi": 32,
      "hit": false,
      "t": 155609.47600000066,
      "d": 243.90200000000186,
      "v": 100
    },
    {
      "midi": 33,
      "hit": false,
      "t": 155609.47600000096,
      "d": 1.0162583333440125,
      "v": 127
    },
    {
      "midi": 40,
      "hit": false,
      "t": 155609.47600000096,
      "d": 1.0162583333440125,
      "v": 100
    },
    {
      "midi": 46,
      "hit": false,
      "t": 155609.47600000096,
      "d": 1.0162583333440125,
      "v": 100
    },
    {
      "midi": 68,
      "hit": false,
      "t": 155609.47600002945,
      "d": 243.90199999985634,
      "v": 100
    },
    {
      "midi": 63,
      "hit": false,
      "t": 155609.47600002945,
      "d": 243.90199999985634,
      "v": 100
    },
    {
      "midi": 60,
      "hit": false,
      "t": 155609.47600002945,
      "d": 243.90199999985634,
      "v": 100
    },
    {
      "midi": 54,
      "hit": false,
      "t": 155731.4270000006,
      "d": 1.0162583333440125,
      "v": 60
    },
    {
      "midi": 75,
      "hit": false,
      "t": 155731.42700000067,
      "d": 121.95100000000093,
      "v": 100
    },
    {
      "midi": 44,
      "hit": false,
      "t": 155731.42700000096,
      "d": 1.0162583333440125,
      "v": 100
    },
    {
      "midi": 84,
      "hit": false,
      "t": 155853.3780000005,
      "d": 243.90200000000186,
      "v": 100
    },
    {
      "midi": 80,
      "hit": false,
      "t": 155853.3780000005,
      "d": 243.90200000000186,
      "v": 100
    },
    {
      "midi": 75,
      "hit": false,
      "t": 155853.3780000005,
      "d": 243.90200000000186,
      "v": 100
    },
    {
      "midi": 54,
      "hit": false,
      "t": 155853.3780000006,
      "d": 1.0162583333440125,
      "v": 60
    },
    {
      "midi": 87,
      "hit": false,
      "t": 155853.37800000064,
      "d": 243.90200000000186,
      "v": 100
    },
    {
      "midi": 84,
      "hit": false,
      "t": 155853.37800000064,
      "d": 243.90200000000186,
      "v": 100
    },
    {
      "midi": 72,
      "hit": false,
      "t": 155853.37800000067,
      "d": 121.95100000000093,
      "v": 100
    },
    {
      "midi": 32,
      "hit": false,
      "t": 155853.37800000067,
      "d": 243.90200000000186,
      "v": 100
    },
    {
      "midi": 40,
      "hit": false,
      "t": 155853.37800000096,
      "d": 1.0162583333440125,
      "v": 40
    },
    {
      "midi": 46,
      "hit": false,
      "t": 155853.37800000096,
      "d": 1.0162583333440125,
      "v": 100
    },
    {
      "midi": 68,
      "hit": false,
      "t": 155853.3780000293,
      "d": 60.975500000000466,
      "v": 100
    },
    {
      "midi": 63,
      "hit": false,
      "t": 155853.3780000293,
      "d": 60.975500000000466,
      "v": 100
    },
    {
      "midi": 60,
      "hit": false,
      "t": 155853.3780000293,
      "d": 60.975500000000466,
      "v": 100
    },
    {
      "midi": 54,
      "hit": false,
      "t": 155975.3290000006,
      "d": 1.0162583333440125,
      "v": 60
    },
    {
      "midi": 72,
      "hit": false,
      "t": 155975.32900000067,
      "d": 121.95100000000093,
      "v": 100
    },
    {
      "midi": 40,
      "hit": false,
      "t": 155975.32900000096,
      "d": 1.0162583333440125,
      "v": 100
    },
    {
      "midi": 44,
      "hit": false,
      "t": 155975.32900000096,
      "d": 1.0162583333440125,
      "v": 100
    },
    {
      "midi": 68,
      "hit": false,
      "t": 155975.3290000293,
      "d": 60.975500000000466,
      "v": 100
    },
    {
      "midi": 63,
      "hit": false,
      "t": 155975.3290000293,
      "d": 60.975500000000466,
      "v": 100
    },
    {
      "midi": 60,
      "hit": false,
      "t": 155975.3290000293,
      "d": 60.975500000000466,
      "v": 100
    },
    {
      "midi": 86,
      "hit": false,
      "t": 156097.2800000005,
      "d": 243.90200000000186,
      "v": 100
    },
    {
      "midi": 82,
      "hit": false,
      "t": 156097.2800000005,
      "d": 243.90200000000186,
      "v": 100
    },
    {
      "midi": 77,
      "hit": false,
      "t": 156097.2800000005,
      "d": 243.90200000000186,
      "v": 100
    },
    {
      "midi": 54,
      "hit": false,
      "t": 156097.2800000006,
      "d": 1.0162583333440125,
      "v": 80
    },
    {
      "midi": 86,
      "hit": false,
      "t": 156097.28000000064,
      "d": 243.90200000000186,
      "v": 100
    },
    {
      "midi": 82,
      "hit": false,
      "t": 156097.28000000064,
      "d": 243.90200000000186,
      "v": 100
    },
    {
      "midi": 70,
      "hit": false,
      "t": 156097.28000000067,
      "d": 121.95100000000093,
      "v": 100
    },
    {
      "midi": 34,
      "hit": false,
      "t": 156097.28000000067,
      "d": 243.90200000000186,
      "v": 100
    },
    {
      "midi": 33,
      "hit": false,
      "t": 156097.28000000096,
      "d": 1.0162583333440125,
      "v": 127
    },
    {
      "midi": 42,
      "hit": false,
      "t": 156097.28000000096,
      "d": 1.0162583333440125,
      "v": 100
    },
    {
      "midi": 46,
      "hit": false,
      "t": 156097.28000000294,
      "d": 975.6080000000075,
      "v": 100
    },
    {
      "midi": 53,
      "hit": false,
      "t": 156097.28000000294,
      "d": 975.6080000000075,
      "v": 100
    },
    {
      "midi": 70,
      "hit": false,
      "t": 156097.2800000293,
      "d": 487.8040000000037,
      "v": 100
    },
    {
      "midi": 65,
      "hit": false,
      "t": 156097.2800000293,
      "d": 487.8040000000037,
      "v": 100
    },
    {
      "midi": 62,
      "hit": false,
      "t": 156097.2800000293,
      "d": 487.8040000000037,
      "v": 100
    },
    {
      "midi": 54,
      "hit": false,
      "t": 156219.2310000006,
      "d": 1.0162583333440125,
      "v": 60
    },
    {
      "midi": 70,
      "hit": false,
      "t": 156219.23100000067,
      "d": 121.95100000000093,
      "v": 100
    },
    {
      "midi": 70,
      "hit": false,
      "t": 156219.2310000009,
      "d": 121.95100000000093,
      "v": 100
    },
    {
      "midi": 65,
      "hit": false,
      "t": 156219.2310000009,
      "d": 121.95100000000093,
      "v": 100
    },
    {
      "midi": 62,
      "hit": false,
      "t": 156219.2310000009,
      "d": 121.95100000000093,
      "v": 100
    },
    {
      "midi": 54,
      "hit": false,
      "t": 156341.1820000006,
      "d": 1.0162583333440125,
      "v": 60
    },
    {
      "midi": 82,
      "hit": false,
      "t": 156341.18200000064,
      "d": 121.95100000000093,
      "v": 100
    },
    {
      "midi": 79,
      "hit": false,
      "t": 156341.18200000064,
      "d": 121.95100000000093,
      "v": 100
    },
    {
      "midi": 74,
      "hit": false,
      "t": 156341.18200000067,
      "d": 121.95100000000093,
      "v": 100
    },
    {
      "midi": 34,
      "hit": false,
      "t": 156341.18200000067,
      "d": 243.90200000000186,
      "v": 100
    },
    {
      "midi": 70,
      "hit": false,
      "t": 156341.1820000009,
      "d": 121.95100000000093,
      "v": 100
    },
    {
      "midi": 65,
      "hit": false,
      "t": 156341.1820000009,
      "d": 121.95100000000093,
      "v": 100
    },
    {
      "midi": 62,
      "hit": false,
      "t": 156341.1820000009,
      "d": 121.95100000000093,
      "v": 100
    },
    {
      "midi": 46,
      "hit": false,
      "t": 156341.18200000096,
      "d": 1.0162583333440125,
      "v": 100
    },
    {
      "midi": 54,
      "hit": false,
      "t": 156463.1330000006,
      "d": 1.0162583333440125,
      "v": 60
    },
    {
      "midi": 74,
      "hit": false,
      "t": 156463.13300000067,
      "d": 121.95100000000093,
      "v": 100
    },
    {
      "midi": 44,
      "hit": false,
      "t": 156463.13300000096,
      "d": 1.0162583333440125,
      "v": 100
    },
    {
      "midi": 82,
      "hit": false,
      "t": 156585.0840000005,
      "d": 243.90200000000186,
      "v": 100
    },
    {
      "midi": 77,
      "hit": false,
      "t": 156585.0840000005,
      "d": 243.90200000000186,
      "v": 100
    },
    {
      "midi": 54,
      "hit": false,
      "t": 156585.0840000006,
      "d": 1.0162583333440125,
      "v": 80
    },
    {
      "midi": 82,
      "hit": false,
      "t": 156585.08400000064,
      "d": 243.90200000000186,
      "v": 100
    },
    {
      "midi": 79,
      "hit": false,
      "t": 156585.08400000064,
      "d": 243.90200000000186,
      "v": 100
    },
    {
      "midi": 70,
      "hit": false,
      "t": 156585.08400000067,
      "d": 121.95100000000093,
      "v": 100
    },
    {
      "midi": 34,
      "hit": false,
      "t": 156585.08400000067,
      "d": 243.90200000000186,
      "v": 100
    },
    {
      "midi": 70,
      "hit": false,
      "t": 156585.0840000009,
      "d": 121.95100000000093,
      "v": 100
    },
    {
      "midi": 65,
      "hit": false,
      "t": 156585.0840000009,
      "d": 121.95100000000093,
      "v": 100
    },
    {
      "midi": 62,
      "hit": false,
      "t": 156585.0840000009,
      "d": 121.95100000000093,
      "v": 100
    },
    {
      "midi": 33,
      "hit": false,
      "t": 156585.08400000096,
      "d": 1.0162583333440125,
      "v": 127
    },
    {
      "midi": 40,
      "hit": false,
      "t": 156585.08400000096,
      "d": 1.0162583333440125,
      "v": 100
    },
    {
      "midi": 46,
      "hit": false,
      "t": 156585.08400000096,
      "d": 1.0162583333440125,
      "v": 100
    },
    {
      "midi": 70,
      "hit": false,
      "t": 156585.0840000293,
      "d": 60.97549999988405,
      "v": 100
    },
    {
      "midi": 65,
      "hit": false,
      "t": 156585.0840000293,
      "d": 60.97549999988405,
      "v": 100
    },
    {
      "midi": 62,
      "hit": false,
      "t": 156585.0840000293,
      "d": 60.97549999988405,
      "v": 100
    },
    {
      "midi": 54,
      "hit": false,
      "t": 156707.03500000061,
      "d": 1.0162583333440125,
      "v": 60
    },
    {
      "midi": 70,
      "hit": false,
      "t": 156707.03500000067,
      "d": 121.95100000000093,
      "v": 100
    },
    {
      "midi": 44,
      "hit": false,
      "t": 156707.03500000096,
      "d": 1.0162583333440125,
      "v": 100
    },
    {
      "midi": 70,
      "hit": false,
      "t": 156707.0350000292,
      "d": 60.975500000000466,
      "v": 100
    },
    {
      "midi": 65,
      "hit": false,
      "t": 156707.0350000292,
      "d": 60.975500000000466,
      "v": 100
    },
    {
      "midi": 62,
      "hit": false,
      "t": 156707.0350000292,
      "d": 60.975500000000466,
      "v": 100
    },
    {
      "midi": 77,
      "hit": false,
      "t": 156828.9860000005,
      "d": 40.65033333332394,
      "v": 100
    },
    {
      "midi": 82,
      "hit": false,
      "t": 156828.9860000005,
      "d": 40.65033333332394,
      "v": 100
    },
    {
      "midi": 54,
      "hit": false,
      "t": 156828.98600000062,
      "d": 1.0162583333440125,
      "v": 60
    },
    {
      "midi": 79,
      "hit": false,
      "t": 156828.98600000064,
      "d": 121.95100000000093,
      "v": 100
    },
    {
      "midi": 75,
      "hit": false,
      "t": 156828.98600000064,
      "d": 121.95100000000093,
      "v": 100
    },
    {
      "midi": 79,
      "hit": false,
      "t": 156828.98600000067,
      "d": 121.95100000000093,
      "v": 100
    },
    {
      "midi": 34,
      "hit": false,
      "t": 156828.98600000067,
      "d": 71.13808333332418,
      "v": 100
    },
    {
      "midi": 70,
      "hit": false,
      "t": 156828.9860000009,
      "d": 121.95100000000093,
      "v": 100
    },
    {
      "midi": 65,
      "hit": false,
      "t": 156828.9860000009,
      "d": 121.95100000000093,
      "v": 100
    },
    {
      "midi": 62,
      "hit": false,
      "t": 156828.9860000009,
      "d": 121.95100000000093,
      "v": 100
    },
    {
      "midi": 46,
      "hit": false,
      "t": 156828.98600000096,
      "d": 1.0162583333440125,
      "v": 100
    },
    {
      "midi": 70,
      "hit": false,
      "t": 156828.9860000291,
      "d": 60.975500000000466,
      "v": 100
    },
    {
      "midi": 65,
      "hit": false,
      "t": 156828.9860000291,
      "d": 60.975500000000466,
      "v": 100
    },
    {
      "midi": 62,
      "hit": false,
      "t": 156828.9860000291,
      "d": 60.975500000000466,
      "v": 100
    },
    {
      "midi": 82,
      "hit": false,
      "t": 156950.9370000005,
      "d": 243.90200000000186,
      "v": 100
    },
    {
      "midi": 77,
      "hit": false,
      "t": 156950.9370000005,
      "d": 243.90200000000186,
      "v": 100
    },
    {
      "midi": 74,
      "hit": false,
      "t": 156950.9370000005,
      "d": 325.20266666667885,
      "v": 100
    },
    {
      "midi": 54,
      "hit": false,
      "t": 156950.93700000062,
      "d": 1.0162583333440125,
      "v": 60
    },
    {
      "midi": 82,
      "hit": false,
      "t": 156950.93700000065,
      "d": 487.8040000000037,
      "v": 100
    },
    {
      "midi": 79,
      "hit": false,
      "t": 156950.93700000065,
      "d": 487.8040000000037,
      "v": 100
    },
    {
      "midi": 79,
      "hit": false,
      "t": 156950.93700000067,
      "d": 121.95100000000093,
      "v": 100
    },
    {
      "midi": 31,
      "hit": false,
      "t": 156950.93700000067,
      "d": 243.90200000000186,
      "v": 100
    },
    {
      "midi": 44,
      "hit": false,
      "t": 156950.93700000097,
      "d": 1.0162583333440125,
      "v": 100
    },
    {
      "midi": 70,
      "hit": false,
      "t": 156950.9370000291,
      "d": 60.975500000000466,
      "v": 100
    },
    {
      "midi": 65,
      "hit": false,
      "t": 156950.9370000291,
      "d": 60.975500000000466,
      "v": 100
    },
    {
      "midi": 62,
      "hit": false,
      "t": 156950.9370000291,
      "d": 60.975500000000466,
      "v": 100
    },
    {
      "midi": 54,
      "hit": false,
      "t": 157072.88800000062,
      "d": 1.0162583333440125,
      "v": 80
    },
    {
      "midi": 79,
      "hit": false,
      "t": 157072.88800000068,
      "d": 121.95100000000093,
      "v": 100
    },
    {
      "midi": 67,
      "hit": false,
      "t": 157072.8880000009,
      "d": 121.95100000000093,
      "v": 100
    },
    {
      "midi": 63,
      "hit": false,
      "t": 157072.8880000009,
      "d": 121.95100000000093,
      "v": 100
    },
    {
      "midi": 58,
      "hit": false,
      "t": 157072.8880000009,
      "d": 121.95100000000093,
      "v": 100
    },
    {
      "midi": 33,
      "hit": false,
      "t": 157072.88800000097,
      "d": 1.0162583333440125,
      "v": 127
    },
    {
      "midi": 42,
      "hit": false,
      "t": 157072.88800000097,
      "d": 1.0162583333440125,
      "v": 100
    },
    {
      "midi": 50,
      "hit": false,
      "t": 157072.88800000295,
      "d": 975.6080000000075,
      "v": 100
    },
    {
      "midi": 43,
      "hit": false,
      "t": 157072.88800000295,
      "d": 975.6080000000075,
      "v": 100
    },
    {
      "midi": 67,
      "hit": false,
      "t": 157072.8880000291,
      "d": 60.97549999988405,
      "v": 100
    },
    {
      "midi": 62,
      "hit": false,
      "t": 157072.8880000291,
      "d": 60.97549999988405,
      "v": 100
    },
    {
      "midi": 58,
      "hit": false,
      "t": 157072.8880000291,
      "d": 60.97549999988405,
      "v": 100
    },
    {
      "midi": 54,
      "hit": false,
      "t": 157194.83900000062,
      "d": 1.0162583333440125,
      "v": 60
    },
    {
      "midi": 79,
      "hit": false,
      "t": 157194.83900000068,
      "d": 121.95100000000093,
      "v": 100
    },
    {
      "midi": 31,
      "hit": false,
      "t": 157194.83900000068,
      "d": 121.95100000000093,
      "v": 100
    },
    {
      "midi": 67,
      "hit": false,
      "t": 157194.8390000009,
      "d": 121.95100000000093,
      "v": 100
    },
    {
      "midi": 63,
      "hit": false,
      "t": 157194.8390000009,
      "d": 121.95100000000093,
      "v": 100
    },
    {
      "midi": 58,
      "hit": false,
      "t": 157194.8390000009,
      "d": 121.95100000000093,
      "v": 100
    },
    {
      "midi": 67,
      "hit": false,
      "t": 157194.839000029,
      "d": 60.975500000000466,
      "v": 100
    },
    {
      "midi": 62,
      "hit": false,
      "t": 157194.839000029,
      "d": 60.975500000000466,
      "v": 100
    },
    {
      "midi": 58,
      "hit": false,
      "t": 157194.839000029,
      "d": 60.975500000000466,
      "v": 100
    },
    {
      "midi": 74,
      "hit": false,
      "t": 157316.7900000005,
      "d": 243.90200000000186,
      "v": 100
    },
    {
      "midi": 82,
      "hit": false,
      "t": 157316.7900000005,
      "d": 243.90200000000186,
      "v": 100
    },
    {
      "midi": 77,
      "hit": false,
      "t": 157316.7900000005,
      "d": 243.90200000000186,
      "v": 100
    },
    {
      "midi": 54,
      "hit": false,
      "t": 157316.79000000062,
      "d": 1.0162583333440125,
      "v": 60
    },
    {
      "midi": 79,
      "hit": false,
      "t": 157316.79000000068,
      "d": 121.95100000000093,
      "v": 100
    },
    {
      "midi": 31,
      "hit": false,
      "t": 157316.79000000068,
      "d": 243.90200000000186,
      "v": 100
    },
    {
      "midi": 46,
      "hit": false,
      "t": 157316.79000000097,
      "d": 1.0162583333440125,
      "v": 100
    },
    {
      "midi": 67,
      "hit": false,
      "t": 157316.7900000289,
      "d": 60.975500000000466,
      "v": 100
    },
    {
      "midi": 62,
      "hit": false,
      "t": 157316.7900000289,
      "d": 60.975500000000466,
      "v": 100
    },
    {
      "midi": 58,
      "hit": false,
      "t": 157316.7900000289,
      "d": 60.975500000000466,
      "v": 100
    },
    {
      "midi": 54,
      "hit": false,
      "t": 157438.74100000062,
      "d": 1.0162583333440125,
      "v": 60
    },
    {
      "midi": 79,
      "hit": false,
      "t": 157438.74100000068,
      "d": 121.95100000000093,
      "v": 100
    },
    {
      "midi": 67,
      "hit": false,
      "t": 157438.7410000009,
      "d": 121.95100000000093,
      "v": 100
    },
    {
      "midi": 63,
      "hit": false,
      "t": 157438.7410000009,
      "d": 121.95100000000093,
      "v": 100
    },
    {
      "midi": 58,
      "hit": false,
      "t": 157438.7410000009,
      "d": 121.95100000000093,
      "v": 100
    },
    {
      "midi": 44,
      "hit": false,
      "t": 157438.74100000097,
      "d": 1.0162583333440125,
      "v": 100
    },
    {
      "midi": 67,
      "hit": false,
      "t": 157438.7410000289,
      "d": 60.975500000000466,
      "v": 100
    },
    {
      "midi": 62,
      "hit": false,
      "t": 157438.7410000289,
      "d": 60.975500000000466,
      "v": 100
    },
    {
      "midi": 58,
      "hit": false,
      "t": 157438.7410000289,
      "d": 60.975500000000466,
      "v": 100
    },
    {
      "midi": 74,
      "hit": false,
      "t": 157560.6920000005,
      "d": 243.90200000000186,
      "v": 100
    },
    {
      "midi": 79,
      "hit": false,
      "t": 157560.6920000005,
      "d": 243.90200000000186,
      "v": 100
    },
    {
      "midi": 77,
      "hit": false,
      "t": 157560.6920000005,
      "d": 243.90200000000186,
      "v": 100
    },
    {
      "midi": 54,
      "hit": false,
      "t": 157560.69200000062,
      "d": 1.0162583333440125,
      "v": 80
    },
    {
      "midi": 80,
      "hit": false,
      "t": 157560.69200000065,
      "d": 243.90200000000186,
      "v": 100
    },
    {
      "midi": 77,
      "hit": false,
      "t": 157560.69200000065,
      "d": 243.90200000000186,
      "v": 100
    },
    {
      "midi": 74,
      "hit": false,
      "t": 157560.69200000068,
      "d": 121.95100000000093,
      "v": 100
    },
    {
      "midi": 29,
      "hit": false,
      "t": 157560.69200000068,
      "d": 243.90200000000186,
      "v": 100
    },
    {
      "midi": 33,
      "hit": false,
      "t": 157560.69200000097,
      "d": 1.0162583333440125,
      "v": 127
    },
    {
      "midi": 40,
      "hit": false,
      "t": 157560.69200000097,
      "d": 1.0162583333440125,
      "v": 100
    },
    {
      "midi": 46,
      "hit": false,
      "t": 157560.69200000097,
      "d": 1.0162583333440125,
      "v": 100
    },
    {
      "midi": 67,
      "hit": false,
      "t": 157560.6920000289,
      "d": 243.90199999985634,
      "v": 100
    },
    {
      "midi": 62,
      "hit": false,
      "t": 157560.6920000289,
      "d": 243.90199999985634,
      "v": 100
    },
    {
      "midi": 58,
      "hit": false,
      "t": 157560.6920000289,
      "d": 243.90199999985634,
      "v": 100
    },
    {
      "midi": 54,
      "hit": false,
      "t": 157682.64300000062,
      "d": 1.0162583333440125,
      "v": 60
    },
    {
      "midi": 74,
      "hit": false,
      "t": 157682.64300000068,
      "d": 121.95100000000093,
      "v": 100
    },
    {
      "midi": 44,
      "hit": false,
      "t": 157682.64300000097,
      "d": 1.0162583333440125,
      "v": 100
    },
    {
      "midi": 74,
      "hit": false,
      "t": 157804.5940000005,
      "d": 243.90200000000186,
      "v": 100
    },
    {
      "midi": 82,
      "hit": false,
      "t": 157804.5940000005,
      "d": 243.90200000000186,
      "v": 100
    },
    {
      "midi": 77,
      "hit": false,
      "t": 157804.5940000005,
      "d": 243.90200000000186,
      "v": 100
    },
    {
      "midi": 54,
      "hit": false,
      "t": 157804.59400000062,
      "d": 1.0162583333440125,
      "v": 60
    },
    {
      "midi": 82,
      "hit": false,
      "t": 157804.59400000065,
      "d": 243.90200000000186,
      "v": 100
    },
    {
      "midi": 79,
      "hit": false,
      "t": 157804.59400000065,
      "d": 243.90200000000186,
      "v": 100
    },
    {
      "midi": 79,
      "hit": false,
      "t": 157804.59400000068,
      "d": 121.95100000000093,
      "v": 100
    },
    {
      "midi": 31,
      "hit": false,
      "t": 157804.59400000068,
      "d": 243.90200000000186,
      "v": 100
    },
    {
      "midi": 40,
      "hit": false,
      "t": 157804.59400000097,
      "d": 1.0162583333440125,
      "v": 40
    },
    {
      "midi": 46,
      "hit": false,
      "t": 157804.59400000097,
      "d": 1.0162583333440125,
      "v": 100
    },
    {
      "midi": 67,
      "hit": false,
      "t": 157804.59400002877,
      "d": 60.975500000000466,
      "v": 100
    },
    {
      "midi": 62,
      "hit": false,
      "t": 157804.59400002877,
      "d": 60.975500000000466,
      "v": 100
    },
    {
      "midi": 58,
      "hit": false,
      "t": 157804.59400002877,
      "d": 60.975500000000466,
      "v": 100
    },
    {
      "midi": 54,
      "hit": false,
      "t": 157926.54500000062,
      "d": 1.0162583333440125,
      "v": 60
    },
    {
      "midi": 79,
      "hit": false,
      "t": 157926.54500000068,
      "d": 121.95100000000093,
      "v": 100
    },
    {
      "midi": 40,
      "hit": false,
      "t": 157926.54500000097,
      "d": 1.0162583333440125,
      "v": 100
    },
    {
      "midi": 44,
      "hit": false,
      "t": 157926.54500000097,
      "d": 1.0162583333440125,
      "v": 100
    },
    {
      "midi": 67,
      "hit": false,
      "t": 157926.54500002877,
      "d": 60.975500000000466,
      "v": 100
    },
    {
      "midi": 62,
      "hit": false,
      "t": 157926.54500002877,
      "d": 60.975500000000466,
      "v": 100
    },
    {
      "midi": 58,
      "hit": false,
      "t": 157926.54500002877,
      "d": 60.975500000000466,
      "v": 100
    },
    {
      "midi": 80,
      "hit": false,
      "t": 158048.4960000005,
      "d": 243.90200000000186,
      "v": 100
    },
    {
      "midi": 75,
      "hit": false,
      "t": 158048.4960000005,
      "d": 243.90200000000186,
      "v": 100
    },
    {
      "midi": 72,
      "hit": false,
      "t": 158048.4960000005,
      "d": 243.90200000000186,
      "v": 100
    },
    {
      "midi": 54,
      "hit": false,
      "t": 158048.49600000062,
      "d": 1.0162583333440125,
      "v": 80
    },
    {
      "midi": 80,
      "hit": false,
      "t": 158048.49600000065,
      "d": 243.90200000000186,
      "v": 100
    },
    {
      "midi": 75,
      "hit": false,
      "t": 158048.49600000065,
      "d": 243.90200000000186,
      "v": 100
    },
    {
      "midi": 72,
      "hit": false,
      "t": 158048.49600000068,
      "d": 121.95100000000093,
      "v": 100
    },
    {
      "midi": 32,
      "hit": false,
      "t": 158048.49600000068,
      "d": 243.90200000000186,
      "v": 100
    },
    {
      "midi": 33,
      "hit": false,
      "t": 158048.49600000097,
      "d": 1.0162583333440125,
      "v": 127
    },
    {
      "midi": 42,
      "hit": false,
      "t": 158048.49600000097,
      "d": 1.0162583333440125,
      "v": 100
    },
    {
      "midi": 44,
      "hit": false,
      "t": 158048.49600000295,
      "d": 975.6080000000075,
      "v": 100
    },
    {
      "midi": 51,
      "hit": false,
      "t": 158048.49600000295,
      "d": 975.6080000000075,
      "v": 100
    },
    {
      "midi": 68,
      "hit": false,
      "t": 158048.49600002877,
      "d": 487.8040000000037,
      "v": 100
    },
    {
      "midi": 63,
      "hit": false,
      "t": 158048.49600002877,
      "d": 487.8040000000037,
      "v": 100
    },
    {
      "midi": 60,
      "hit": false,
      "t": 158048.49600002877,
      "d": 487.8040000000037,
      "v": 100
    },
    {
      "midi": 54,
      "hit": false,
      "t": 158170.44700000063,
      "d": 1.0162583333440125,
      "v": 60
    },
    {
      "midi": 72,
      "hit": false,
      "t": 158170.44700000068,
      "d": 121.95100000000093,
      "v": 100
    },
    {
      "midi": 68,
      "hit": false,
      "t": 158170.44700000092,
      "d": 121.95100000000093,
      "v": 100
    },
    {
      "midi": 63,
      "hit": false,
      "t": 158170.44700000092,
      "d": 121.95100000000093,
      "v": 100
    },
    {
      "midi": 60,
      "hit": false,
      "t": 158170.44700000092,
      "d": 121.95100000000093,
      "v": 100
    },
    {
      "midi": 54,
      "hit": false,
      "t": 158292.39800000063,
      "d": 1.0162583333440125,
      "v": 60
    },
    {
      "midi": 68,
      "hit": false,
      "t": 158292.39800000068,
      "d": 121.95100000000093,
      "v": 100
    },
    {
      "midi": 32,
      "hit": false,
      "t": 158292.39800000068,
      "d": 243.90200000000186,
      "v": 100
    },
    {
      "midi": 68,
      "hit": false,
      "t": 158292.39800000092,
      "d": 121.95100000000093,
      "v": 100
    },
    {
      "midi": 63,
      "hit": false,
      "t": 158292.39800000092,
      "d": 121.95100000000093,
      "v": 100
    },
    {
      "midi": 60,
      "hit": false,
      "t": 158292.39800000092,
      "d": 121.95100000000093,
      "v": 100
    },
    {
      "midi": 46,
      "hit": false,
      "t": 158292.39800000098,
      "d": 1.0162583333440125,
      "v": 100
    },
    {
      "midi": 54,
      "hit": false,
      "t": 158414.34900000063,
      "d": 1.0162583333440125,
      "v": 60
    },
    {
      "midi": 68,
      "hit": false,
      "t": 158414.3490000007,
      "d": 121.95100000000093,
      "v": 100
    },
    {
      "midi": 44,
      "hit": false,
      "t": 158414.34900000098,
      "d": 1.0162583333440125,
      "v": 100
    },
    {
      "midi": 80,
      "hit": false,
      "t": 158536.3000000005,
      "d": 243.90200000000186,
      "v": 100
    },
    {
      "midi": 75,
      "hit": false,
      "t": 158536.3000000005,
      "d": 243.90200000000186,
      "v": 100
    },
    {
      "midi": 72,
      "hit": false,
      "t": 158536.3000000005,
      "d": 243.90200000000186,
      "v": 100
    },
    {
      "midi": 54,
      "hit": false,
      "t": 158536.30000000063,
      "d": 1.0162583333440125,
      "v": 80
    },
    {
      "midi": 80,
      "hit": false,
      "t": 158536.30000000066,
      "d": 243.90200000000186,
      "v": 100
    },
    {
      "midi": 75,
      "hit": false,
      "t": 158536.30000000066,
      "d": 243.90200000000186,
      "v": 100
    },
    {
      "midi": 72,
      "hit": false,
      "t": 158536.3000000007,
      "d": 121.95100000000093,
      "v": 100
    },
    {
      "midi": 32,
      "hit": false,
      "t": 158536.3000000007,
      "d": 243.90200000000186,
      "v": 100
    },
    {
      "midi": 68,
      "hit": false,
      "t": 158536.30000000092,
      "d": 121.95100000000093,
      "v": 100
    },
    {
      "midi": 63,
      "hit": false,
      "t": 158536.30000000092,
      "d": 121.95100000000093,
      "v": 100
    },
    {
      "midi": 60,
      "hit": false,
      "t": 158536.30000000092,
      "d": 121.95100000000093,
      "v": 100
    },
    {
      "midi": 33,
      "hit": false,
      "t": 158536.30000000098,
      "d": 1.0162583333440125,
      "v": 127
    },
    {
      "midi": 40,
      "hit": false,
      "t": 158536.30000000098,
      "d": 1.0162583333440125,
      "v": 100
    },
    {
      "midi": 46,
      "hit": false,
      "t": 158536.30000000098,
      "d": 1.0162583333440125,
      "v": 100
    },
    {
      "midi": 68,
      "hit": false,
      "t": 158536.30000002877,
      "d": 60.97549999988405,
      "v": 100
    },
    {
      "midi": 63,
      "hit": false,
      "t": 158536.30000002877,
      "d": 60.97549999988405,
      "v": 100
    },
    {
      "midi": 60,
      "hit": false,
      "t": 158536.30000002877,
      "d": 60.97549999988405,
      "v": 100
    },
    {
      "midi": 54,
      "hit": false,
      "t": 158658.25100000063,
      "d": 1.0162583333440125,
      "v": 60
    },
    {
      "midi": 72,
      "hit": false,
      "t": 158658.2510000007,
      "d": 121.95100000000093,
      "v": 100
    },
    {
      "midi": 44,
      "hit": false,
      "t": 158658.25100000098,
      "d": 1.0162583333440125,
      "v": 100
    },
    {
      "midi": 68,
      "hit": false,
      "t": 158658.25100002866,
      "d": 60.975500000000466,
      "v": 100
    },
    {
      "midi": 63,
      "hit": false,
      "t": 158658.25100002866,
      "d": 60.975500000000466,
      "v": 100
    },
    {
      "midi": 60,
      "hit": false,
      "t": 158658.25100002866,
      "d": 60.975500000000466,
      "v": 100
    },
    {
      "midi": 54,
      "hit": false,
      "t": 158780.20200000063,
      "d": 1.0162583333440125,
      "v": 60
    },
    {
      "midi": 82,
      "hit": false,
      "t": 158780.20200000066,
      "d": 121.95100000000093,
      "v": 100
    },
    {
      "midi": 77,
      "hit": false,
      "t": 158780.20200000066,
      "d": 121.95100000000093,
      "v": 100
    },
    {
      "midi": 77,
      "hit": false,
      "t": 158780.2020000007,
      "d": 121.95100000000093,
      "v": 100
    },
    {
      "midi": 32,
      "hit": false,
      "t": 158780.2020000007,
      "d": 71.13808333332418,
      "v": 100
    },
    {
      "midi": 68,
      "hit": false,
      "t": 158780.20200000092,
      "d": 121.95100000000093,
      "v": 100
    },
    {
      "midi": 63,
      "hit": false,
      "t": 158780.20200000092,
      "d": 121.95100000000093,
      "v": 100
    },
    {
      "midi": 60,
      "hit": false,
      "t": 158780.20200000092,
      "d": 121.95100000000093,
      "v": 100
    },
    {
      "midi": 46,
      "hit": false,
      "t": 158780.20200000098,
      "d": 1.0162583333440125,
      "v": 100
    },
    {
      "midi": 68,
      "hit": false,
      "t": 158780.20200002857,
      "d": 60.975500000000466,
      "v": 100
    },
    {
      "midi": 63,
      "hit": false,
      "t": 158780.20200002857,
      "d": 60.975500000000466,
      "v": 100
    },
    {
      "midi": 60,
      "hit": false,
      "t": 158780.20200002857,
      "d": 60.975500000000466,
      "v": 100
    },
    {
      "midi": 77,
      "hit": false,
      "t": 158902.15300000052,
      "d": 365.8530000000028,
      "v": 100
    },
    {
      "midi": 75,
      "hit": false,
      "t": 158902.15300000052,
      "d": 365.8530000000028,
      "v": 100
    },
    {
      "midi": 72,
      "hit": false,
      "t": 158902.15300000052,
      "d": 365.8530000000028,
      "v": 100
    },
    {
      "midi": 54,
      "hit": false,
      "t": 158902.15300000063,
      "d": 1.0162583333440125,
      "v": 60
    },
    {
      "midi": 77,
      "hit": false,
      "t": 158902.15300000066,
      "d": 487.8040000000037,
      "v": 100
    },
    {
      "midi": 72,
      "hit": false,
      "t": 158902.15300000066,
      "d": 487.8040000000037,
      "v": 100
    },
    {
      "midi": 77,
      "hit": false,
      "t": 158902.1530000007,
      "d": 121.95100000000093,
      "v": 100
    },
    {
      "midi": 29,
      "hit": false,
      "t": 158902.1530000007,
      "d": 243.90200000000186,
      "v": 100
    },
    {
      "midi": 44,
      "hit": false,
      "t": 158902.15300000098,
      "d": 1.0162583333440125,
      "v": 100
    },
    {
      "midi": 68,
      "hit": false,
      "t": 158902.15300002857,
      "d": 60.975500000000466,
      "v": 100
    },
    {
      "midi": 63,
      "hit": false,
      "t": 158902.15300002857,
      "d": 60.975500000000466,
      "v": 100
    },
    {
      "midi": 60,
      "hit": false,
      "t": 158902.15300002857,
      "d": 60.975500000000466,
      "v": 100
    },
    {
      "midi": 54,
      "hit": false,
      "t": 159024.10400000063,
      "d": 1.0162583333440125,
      "v": 80
    },
    {
      "midi": 77,
      "hit": false,
      "t": 159024.1040000007,
      "d": 121.95100000000093,
      "v": 100
    },
    {
      "midi": 68,
      "hit": false,
      "t": 159024.10400000092,
      "d": 121.95100000000093,
      "v": 100
    },
    {
      "midi": 63,
      "hit": false,
      "t": 159024.10400000092,
      "d": 121.95100000000093,
      "v": 100
    },
    {
      "midi": 60,
      "hit": false,
      "t": 159024.10400000092,
      "d": 121.95100000000093,
      "v": 100
    },
    {
      "midi": 33,
      "hit": false,
      "t": 159024.10400000098,
      "d": 1.0162583333440125,
      "v": 127
    },
    {
      "midi": 42,
      "hit": false,
      "t": 159024.10400000098,
      "d": 1.0162583333440125,
      "v": 100
    },
    {
      "midi": 48,
      "hit": false,
      "t": 159024.10400000296,
      "d": 975.6080000000075,
      "v": 100
    },
    {
      "midi": 41,
      "hit": false,
      "t": 159024.10400000296,
      "d": 975.6080000000075,
      "v": 100
    },
    {
      "midi": 68,
      "hit": false,
      "t": 159024.10400002857,
      "d": 60.97549999988405,
      "v": 100
    },
    {
      "midi": 63,
      "hit": false,
      "t": 159024.10400002857,
      "d": 60.97549999988405,
      "v": 100
    },
    {
      "midi": 60,
      "hit": false,
      "t": 159024.10400002857,
      "d": 60.97549999988405,
      "v": 100
    },
    {
      "midi": 54,
      "hit": false,
      "t": 159146.05500000063,
      "d": 1.0162583333440125,
      "v": 60
    },
    {
      "midi": 77,
      "hit": false,
      "t": 159146.0550000007,
      "d": 121.95100000000093,
      "v": 100
    },
    {
      "midi": 29,
      "hit": false,
      "t": 159146.0550000007,
      "d": 121.95100000000093,
      "v": 100
    },
    {
      "midi": 68,
      "hit": false,
      "t": 159146.05500000092,
      "d": 121.95100000000093,
      "v": 100
    },
    {
      "midi": 63,
      "hit": false,
      "t": 159146.05500000092,
      "d": 121.95100000000093,
      "v": 100
    },
    {
      "midi": 60,
      "hit": false,
      "t": 159146.05500000092,
      "d": 121.95100000000093,
      "v": 100
    },
    {
      "midi": 68,
      "hit": false,
      "t": 159146.05500002846,
      "d": 60.975500000000466,
      "v": 100
    },
    {
      "midi": 63,
      "hit": false,
      "t": 159146.05500002846,
      "d": 60.975500000000466,
      "v": 100
    },
    {
      "midi": 60,
      "hit": false,
      "t": 159146.05500002846,
      "d": 60.975500000000466,
      "v": 100
    },
    {
      "midi": 77,
      "hit": false,
      "t": 159268.00600000052,
      "d": 243.90200000000186,
      "v": 100
    },
    {
      "midi": 75,
      "hit": false,
      "t": 159268.00600000052,
      "d": 243.90200000000186,
      "v": 100
    },
    {
      "midi": 72,
      "hit": false,
      "t": 159268.00600000052,
      "d": 243.90200000000186,
      "v": 100
    },
    {
      "midi": 54,
      "hit": false,
      "t": 159268.00600000063,
      "d": 1.0162583333440125,
      "v": 60
    },
    {
      "midi": 77,
      "hit": false,
      "t": 159268.0060000007,
      "d": 121.95100000000093,
      "v": 100
    },
    {
      "midi": 29,
      "hit": false,
      "t": 159268.0060000007,
      "d": 243.90200000000186,
      "v": 100
    },
    {
      "midi": 46,
      "hit": false,
      "t": 159268.00600000098,
      "d": 1.0162583333440125,
      "v": 100
    },
    {
      "midi": 68,
      "hit": false,
      "t": 159268.00600002837,
      "d": 60.975500000000466,
      "v": 100
    },
    {
      "midi": 63,
      "hit": false,
      "t": 159268.00600002837,
      "d": 60.975500000000466,
      "v": 100
    },
    {
      "midi": 60,
      "hit": false,
      "t": 159268.00600002837,
      "d": 60.975500000000466,
      "v": 100
    },
    {
      "midi": 54,
      "hit": false,
      "t": 159389.95700000064,
      "d": 1.0162583333440125,
      "v": 60
    },
    {
      "midi": 77,
      "hit": false,
      "t": 159389.9570000007,
      "d": 121.95100000000093,
      "v": 100
    },
    {
      "midi": 68,
      "hit": false,
      "t": 159389.95700000093,
      "d": 121.95100000000093,
      "v": 100
    },
    {
      "midi": 63,
      "hit": false,
      "t": 159389.95700000093,
      "d": 121.95100000000093,
      "v": 100
    },
    {
      "midi": 60,
      "hit": false,
      "t": 159389.95700000093,
      "d": 121.95100000000093,
      "v": 100
    },
    {
      "midi": 44,
      "hit": false,
      "t": 159389.95700000098,
      "d": 1.0162583333440125,
      "v": 100
    },
    {
      "midi": 68,
      "hit": false,
      "t": 159389.95700002837,
      "d": 60.975500000000466,
      "v": 100
    },
    {
      "midi": 63,
      "hit": false,
      "t": 159389.95700002837,
      "d": 60.975500000000466,
      "v": 100
    },
    {
      "midi": 60,
      "hit": false,
      "t": 159389.95700002837,
      "d": 60.975500000000466,
      "v": 100
    },
    {
      "midi": 75,
      "hit": false,
      "t": 159511.90800000052,
      "d": 243.90200000000186,
      "v": 100
    },
    {
      "midi": 72,
      "hit": false,
      "t": 159511.90800000052,
      "d": 243.90200000000186,
      "v": 100
    },
    {
      "midi": 68,
      "hit": false,
      "t": 159511.90800000052,
      "d": 243.90200000000186,
      "v": 100
    },
    {
      "midi": 54,
      "hit": false,
      "t": 159511.90800000064,
      "d": 1.0162583333440125,
      "v": 80
    },
    {
      "midi": 75,
      "hit": false,
      "t": 159511.90800000067,
      "d": 243.90200000000186,
      "v": 100
    },
    {
      "midi": 70,
      "hit": false,
      "t": 159511.90800000067,
      "d": 243.90200000000186,
      "v": 100
    },
    {
      "midi": 72,
      "hit": false,
      "t": 159511.9080000007,
      "d": 121.95100000000093,
      "v": 100
    },
    {
      "midi": 26,
      "hit": false,
      "t": 159511.9080000007,
      "d": 243.90200000000186,
      "v": 100
    },
    {
      "midi": 33,
      "hit": false,
      "t": 159511.90800000099,
      "d": 1.0162583333440125,
      "v": 127
    },
    {
      "midi": 40,
      "hit": false,
      "t": 159511.90800000099,
      "d": 1.0162583333440125,
      "v": 100
    },
    {
      "midi": 46,
      "hit": false,
      "t": 159511.90800000099,
      "d": 1.0162583333440125,
      "v": 100
    },
    {
      "midi": 68,
      "hit": false,
      "t": 159511.90800002837,
      "d": 243.90199999985634,
      "v": 100
    },
    {
      "midi": 63,
      "hit": false,
      "t": 159511.90800002837,
      "d": 243.90199999985634,
      "v": 100
    },
    {
      "midi": 60,
      "hit": false,
      "t": 159511.90800002837,
      "d": 243.90199999985634,
      "v": 100
    },
    {
      "midi": 54,
      "hit": false,
      "t": 159633.85900000064,
      "d": 1.0162583333440125,
      "v": 60
    },
    {
      "midi": 72,
      "hit": false,
      "t": 159633.8590000007,
      "d": 121.95100000000093,
      "v": 100
    },
    {
      "midi": 44,
      "hit": false,
      "t": 159633.859000001,
      "d": 1.0162583333440125,
      "v": 100
    },
    {
      "midi": 77,
      "hit": false,
      "t": 159755.81000000052,
      "d": 243.90200000000186,
      "v": 100
    },
    {
      "midi": 75,
      "hit": false,
      "t": 159755.81000000052,
      "d": 243.90200000000186,
      "v": 100
    },
    {
      "midi": 72,
      "hit": false,
      "t": 159755.81000000052,
      "d": 243.90200000000186,
      "v": 100
    },
    {
      "midi": 54,
      "hit": false,
      "t": 159755.81000000064,
      "d": 1.0162583333440125,
      "v": 60
    },
    {
      "midi": 77,
      "hit": false,
      "t": 159755.81000000067,
      "d": 243.90200000000186,
      "v": 100
    },
    {
      "midi": 72,
      "hit": false,
      "t": 159755.81000000067,
      "d": 243.90200000000186,
      "v": 100
    },
    {
      "midi": 77,
      "hit": false,
      "t": 159755.8100000007,
      "d": 121.95100000000093,
      "v": 100
    },
    {
      "midi": 29,
      "hit": false,
      "t": 159755.8100000007,
      "d": 243.90200000000186,
      "v": 100
    },
    {
      "midi": 40,
      "hit": false,
      "t": 159755.810000001,
      "d": 1.0162583333440125,
      "v": 40
    },
    {
      "midi": 46,
      "hit": false,
      "t": 159755.810000001,
      "d": 1.0162583333440125,
      "v": 100
    },
    {
      "midi": 68,
      "hit": false,
      "t": 159755.81000002823,
      "d": 60.975500000000466,
      "v": 100
    },
    {
      "midi": 63,
      "hit": false,
      "t": 159755.81000002823,
      "d": 60.975500000000466,
      "v": 100
    },
    {
      "midi": 60,
      "hit": false,
      "t": 159755.81000002823,
      "d": 60.975500000000466,
      "v": 100
    },
    {
      "midi": 54,
      "hit": false,
      "t": 159877.76100000064,
      "d": 1.0162583333440125,
      "v": 60
    },
    {
      "midi": 77,
      "hit": false,
      "t": 159877.7610000007,
      "d": 121.95100000000093,
      "v": 100
    },
    {
      "midi": 40,
      "hit": false,
      "t": 159877.761000001,
      "d": 1.0162583333440125,
      "v": 100
    },
    {
      "midi": 44,
      "hit": false,
      "t": 159877.761000001,
      "d": 1.0162583333440125,
      "v": 100
    },
    {
      "midi": 68,
      "hit": false,
      "t": 159877.76100002823,
      "d": 60.975500000000466,
      "v": 100
    },
    {
      "midi": 63,
      "hit": false,
      "t": 159877.76100002823,
      "d": 60.975500000000466,
      "v": 100
    },
    {
      "midi": 60,
      "hit": false,
      "t": 159877.76100002823,
      "d": 60.975500000000466,
      "v": 100
    },
    {
      "midi": 79,
      "hit": false,
      "t": 159999.71200000052,
      "d": 243.90200000000186,
      "v": 100
    },
    {
      "midi": 74,
      "hit": false,
      "t": 159999.71200000052,
      "d": 243.90200000000186,
      "v": 100
    },
    {
      "midi": 70,
      "hit": false,
      "t": 159999.71200000052,
      "d": 243.90200000000186,
      "v": 100
    },
    {
      "midi": 54,
      "hit": false,
      "t": 159999.71200000064,
      "d": 1.0162583333440125,
      "v": 80
    },
    {
      "midi": 79,
      "hit": false,
      "t": 159999.71200000067,
      "d": 243.90200000000186,
      "v": 100
    },
    {
      "midi": 74,
      "hit": false,
      "t": 159999.71200000067,
      "d": 243.90200000000186,
      "v": 100
    },
    {
      "midi": 67,
      "hit": false,
      "t": 159999.7120000007,
      "d": 121.95100000000093,
      "v": 100
    },
    {
      "midi": 31,
      "hit": false,
      "t": 159999.7120000007,
      "d": 243.90200000000186,
      "v": 100
    },
    {
      "midi": 33,
      "hit": false,
      "t": 159999.712000001,
      "d": 1.0162583333440125,
      "v": 127
    },
    {
      "midi": 42,
      "hit": false,
      "t": 159999.712000001,
      "d": 1.0162583333440125,
      "v": 100
    },
    {
      "midi": 50,
      "hit": false,
      "t": 159999.71200000297,
      "d": 975.6080000000075,
      "v": 100
    },
    {
      "midi": 43,
      "hit": false,
      "t": 159999.71200000297,
      "d": 975.6080000000075,
      "v": 100
    },
    {
      "midi": 67,
      "hit": false,
      "t": 159999.71200002823,
      "d": 487.8040000000037,
      "v": 100
    },
    {
      "midi": 62,
      "hit": false,
      "t": 159999.71200002823,
      "d": 487.8040000000037,
      "v": 100
    },
    {
      "midi": 58,
      "hit": false,
      "t": 159999.71200002823,
      "d": 487.8040000000037,
      "v": 100
    },
    {
      "midi": 54,
      "hit": false,
      "t": 160121.66300000064,
      "d": 1.0162583333440125,
      "v": 60
    },
    {
      "midi": 67,
      "hit": false,
      "t": 160121.6630000007,
      "d": 121.95100000000093,
      "v": 100
    },
    {
      "midi": 67,
      "hit": false,
      "t": 160121.66300000093,
      "d": 121.95100000000093,
      "v": 100
    },
    {
      "midi": 62,
      "hit": false,
      "t": 160121.66300000093,
      "d": 121.95100000000093,
      "v": 100
    },
    {
      "midi": 58,
      "hit": false,
      "t": 160121.66300000093,
      "d": 121.95100000000093,
      "v": 100
    },
    {
      "midi": 54,
      "hit": false,
      "t": 160243.61400000064,
      "d": 1.0162583333440125,
      "v": 60
    },
    {
      "midi": 70,
      "hit": false,
      "t": 160243.6140000007,
      "d": 121.95100000000093,
      "v": 100
    },
    {
      "midi": 31,
      "hit": false,
      "t": 160243.6140000007,
      "d": 243.90200000000186,
      "v": 100
    },
    {
      "midi": 67,
      "hit": false,
      "t": 160243.61400000093,
      "d": 121.95100000000093,
      "v": 100
    },
    {
      "midi": 62,
      "hit": false,
      "t": 160243.61400000093,
      "d": 121.95100000000093,
      "v": 100
    },
    {
      "midi": 58,
      "hit": false,
      "t": 160243.61400000093,
      "d": 121.95100000000093,
      "v": 100
    },
    {
      "midi": 46,
      "hit": false,
      "t": 160243.614000001,
      "d": 1.0162583333440125,
      "v": 100
    },
    {
      "midi": 54,
      "hit": false,
      "t": 160365.56500000064,
      "d": 1.0162583333440125,
      "v": 60
    },
    {
      "midi": 70,
      "hit": false,
      "t": 160365.5650000007,
      "d": 121.95100000000093,
      "v": 100
    },
    {
      "midi": 44,
      "hit": false,
      "t": 160365.565000001,
      "d": 1.0162583333440125,
      "v": 100
    },
    {
      "midi": 79,
      "hit": false,
      "t": 160487.51600000053,
      "d": 243.90200000000186,
      "v": 100
    },
    {
      "midi": 74,
      "hit": false,
      "t": 160487.51600000053,
      "d": 243.90200000000186,
      "v": 100
    },
    {
      "midi": 82,
      "hit": false,
      "t": 160487.51600000053,
      "d": 243.90200000000186,
      "v": 100
    },
    {
      "midi": 54,
      "hit": false,
      "t": 160487.51600000064,
      "d": 1.0162583333440125,
      "v": 80
    },
    {
      "midi": 86,
      "hit": false,
      "t": 160487.51600000067,
      "d": 487.8040000000037,
      "v": 100
    },
    {
      "midi": 79,
      "hit": false,
      "t": 160487.51600000067,
      "d": 487.8040000000037,
      "v": 100
    },
    {
      "midi": 74,
      "hit": false,
      "t": 160487.5160000007,
      "d": 121.95100000000093,
      "v": 100
    },
    {
      "midi": 31,
      "hit": false,
      "t": 160487.5160000007,
      "d": 243.90200000000186,
      "v": 100
    },
    {
      "midi": 67,
      "hit": false,
      "t": 160487.51600000093,
      "d": 121.95100000000093,
      "v": 100
    },
    {
      "midi": 62,
      "hit": false,
      "t": 160487.51600000093,
      "d": 121.95100000000093,
      "v": 100
    },
    {
      "midi": 58,
      "hit": false,
      "t": 160487.51600000093,
      "d": 121.95100000000093,
      "v": 100
    },
    {
      "midi": 33,
      "hit": false,
      "t": 160487.516000001,
      "d": 1.0162583333440125,
      "v": 127
    },
    {
      "midi": 40,
      "hit": false,
      "t": 160487.516000001,
      "d": 1.0162583333440125,
      "v": 100
    },
    {
      "midi": 46,
      "hit": false,
      "t": 160487.516000001,
      "d": 1.0162583333440125,
      "v": 100
    },
    {
      "midi": 67,
      "hit": false,
      "t": 160487.51600002823,
      "d": 60.97549999988405,
      "v": 100
    },
    {
      "midi": 62,
      "hit": false,
      "t": 160487.51600002823,
      "d": 60.97549999988405,
      "v": 100
    },
    {
      "midi": 58,
      "hit": false,
      "t": 160487.51600002823,
      "d": 60.97549999988405,
      "v": 100
    },
    {
      "midi": 54,
      "hit": false,
      "t": 160609.46700000064,
      "d": 1.0162583333440125,
      "v": 60
    },
    {
      "midi": 74,
      "hit": false,
      "t": 160609.4670000007,
      "d": 121.95100000000093,
      "v": 100
    },
    {
      "midi": 44,
      "hit": false,
      "t": 160609.467000001,
      "d": 1.0162583333440125,
      "v": 100
    },
    {
      "midi": 67,
      "hit": false,
      "t": 160609.46700002812,
      "d": 60.975500000000466,
      "v": 100
    },
    {
      "midi": 62,
      "hit": false,
      "t": 160609.46700002812,
      "d": 60.975500000000466,
      "v": 100
    },
    {
      "midi": 58,
      "hit": false,
      "t": 160609.46700002812,
      "d": 60.975500000000466,
      "v": 100
    },
    {
      "midi": 54,
      "hit": false,
      "t": 160731.41800000065,
      "d": 1.0162583333440125,
      "v": 60
    },
    {
      "midi": 79,
      "hit": false,
      "t": 160731.4180000007,
      "d": 121.95100000000093,
      "v": 100
    },
    {
      "midi": 31,
      "hit": false,
      "t": 160731.4180000007,
      "d": 71.13808333332418,
      "v": 100
    },
    {
      "midi": 67,
      "hit": false,
      "t": 160731.41800000094,
      "d": 121.95100000000093,
      "v": 100
    },
    {
      "midi": 62,
      "hit": false,
      "t": 160731.41800000094,
      "d": 121.95100000000093,
      "v": 100
    },
    {
      "midi": 58,
      "hit": false,
      "t": 160731.41800000094,
      "d": 121.95100000000093,
      "v": 100
    },
    {
      "midi": 46,
      "hit": false,
      "t": 160731.418000001,
      "d": 1.0162583333440125,
      "v": 100
    },
    {
      "midi": 67,
      "hit": false,
      "t": 160731.41800002803,
      "d": 60.975500000000466,
      "v": 100
    },
    {
      "midi": 62,
      "hit": false,
      "t": 160731.41800002803,
      "d": 60.975500000000466,
      "v": 100
    },
    {
      "midi": 58,
      "hit": false,
      "t": 160731.41800002803,
      "d": 60.975500000000466,
      "v": 100
    },
    {
      "midi": 82,
      "hit": false,
      "t": 160853.36900000053,
      "d": 365.8530000000028,
      "v": 100
    },
    {
      "midi": 79,
      "hit": false,
      "t": 160853.36900000053,
      "d": 365.8530000000028,
      "v": 100
    },
    {
      "midi": 74,
      "hit": false,
      "t": 160853.36900000053,
      "d": 365.8530000000028,
      "v": 100
    },
    {
      "midi": 54,
      "hit": false,
      "t": 160853.36900000065,
      "d": 1.0162583333440125,
      "v": 60
    },
    {
      "midi": 79,
      "hit": false,
      "t": 160853.3690000007,
      "d": 121.95100000000093,
      "v": 100
    },
    {
      "midi": 34,
      "hit": false,
      "t": 160853.3690000007,
      "d": 243.90200000000186,
      "v": 100
    },
    {
      "midi": 44,
      "hit": false,
      "t": 160853.369000001,
      "d": 1.0162583333440125,
      "v": 100
    },
    {
      "midi": 67,
      "hit": false,
      "t": 160853.36900002803,
      "d": 60.975500000000466,
      "v": 100
    },
    {
      "midi": 62,
      "hit": false,
      "t": 160853.36900002803,
      "d": 60.975500000000466,
      "v": 100
    },
    {
      "midi": 58,
      "hit": false,
      "t": 160853.36900002803,
      "d": 60.975500000000466,
      "v": 100
    },
    {
      "midi": 54,
      "hit": false,
      "t": 160975.32000000065,
      "d": 1.0162583333440125,
      "v": 80
    },
    {
      "midi": 82,
      "hit": false,
      "t": 160975.32000000068,
      "d": 365.8530000000028,
      "v": 100
    },
    {
      "midi": 74,
      "hit": false,
      "t": 160975.32000000068,
      "d": 365.8530000000028,
      "v": 100
    },
    {
      "midi": 82,
      "hit": false,
      "t": 160975.3200000007,
      "d": 121.95100000000093,
      "v": 100
    },
    {
      "midi": 70,
      "hit": false,
      "t": 160975.32000000094,
      "d": 121.95100000000093,
      "v": 100
    },
    {
      "midi": 65,
      "hit": false,
      "t": 160975.32000000094,
      "d": 121.95100000000093,
      "v": 100
    },
    {
      "midi": 62,
      "hit": false,
      "t": 160975.32000000094,
      "d": 121.95100000000093,
      "v": 100
    },
    {
      "midi": 33,
      "hit": false,
      "t": 160975.320000001,
      "d": 1.0162583333440125,
      "v": 127
    },
    {
      "midi": 42,
      "hit": false,
      "t": 160975.320000001,
      "d": 1.0162583333440125,
      "v": 100
    },
    {
      "midi": 46,
      "hit": false,
      "t": 160975.32000000298,
      "d": 975.6080000000075,
      "v": 100
    },
    {
      "midi": 53,
      "hit": false,
      "t": 160975.32000000298,
      "d": 975.6080000000075,
      "v": 100
    },
    {
      "midi": 70,
      "hit": false,
      "t": 160975.32000002803,
      "d": 60.97549999988405,
      "v": 100
    },
    {
      "midi": 65,
      "hit": false,
      "t": 160975.32000002803,
      "d": 60.97549999988405,
      "v": 100
    },
    {
      "midi": 62,
      "hit": false,
      "t": 160975.32000002803,
      "d": 60.97549999988405,
      "v": 100
    },
    {
      "midi": 54,
      "hit": false,
      "t": 161097.27100000065,
      "d": 1.0162583333440125,
      "v": 60
    },
    {
      "midi": 82,
      "hit": false,
      "t": 161097.2710000007,
      "d": 121.95100000000093,
      "v": 100
    },
    {
      "midi": 34,
      "hit": false,
      "t": 161097.2710000007,
      "d": 121.95100000000093,
      "v": 100
    },
    {
      "midi": 70,
      "hit": false,
      "t": 161097.27100000094,
      "d": 121.95100000000093,
      "v": 100
    },
    {
      "midi": 65,
      "hit": false,
      "t": 161097.27100000094,
      "d": 121.95100000000093,
      "v": 100
    },
    {
      "midi": 62,
      "hit": false,
      "t": 161097.27100000094,
      "d": 121.95100000000093,
      "v": 100
    },
    {
      "midi": 70,
      "hit": false,
      "t": 161097.27100002792,
      "d": 60.975500000000466,
      "v": 100
    },
    {
      "midi": 65,
      "hit": false,
      "t": 161097.27100002792,
      "d": 60.975500000000466,
      "v": 100
    },
    {
      "midi": 62,
      "hit": false,
      "t": 161097.27100002792,
      "d": 60.975500000000466,
      "v": 100
    },
    {
      "midi": 82,
      "hit": false,
      "t": 161219.22200000053,
      "d": 243.90200000000186,
      "v": 100
    },
    {
      "midi": 79,
      "hit": false,
      "t": 161219.22200000053,
      "d": 243.90200000000186,
      "v": 100
    },
    {
      "midi": 74,
      "hit": false,
      "t": 161219.22200000053,
      "d": 243.90200000000186,
      "v": 100
    },
    {
      "midi": 54,
      "hit": false,
      "t": 161219.22200000065,
      "d": 1.0162583333440125,
      "v": 60
    },
    {
      "midi": 79,
      "hit": false,
      "t": 161219.2220000007,
      "d": 121.95100000000093,
      "v": 100
    },
    {
      "midi": 34,
      "hit": false,
      "t": 161219.2220000007,
      "d": 243.90200000000186,
      "v": 100
    },
    {
      "midi": 46,
      "hit": false,
      "t": 161219.222000001,
      "d": 1.0162583333440125,
      "v": 100
    },
    {
      "midi": 70,
      "hit": false,
      "t": 161219.22200002783,
      "d": 60.975500000000466,
      "v": 100
    },
    {
      "midi": 65,
      "hit": false,
      "t": 161219.22200002783,
      "d": 60.975500000000466,
      "v": 100
    },
    {
      "midi": 62,
      "hit": false,
      "t": 161219.22200002783,
      "d": 60.975500000000466,
      "v": 100
    },
    {
      "midi": 54,
      "hit": false,
      "t": 161341.17300000065,
      "d": 1.0162583333440125,
      "v": 60
    },
    {
      "midi": 79,
      "hit": false,
      "t": 161341.1730000007,
      "d": 121.95100000000093,
      "v": 100
    },
    {
      "midi": 70,
      "hit": false,
      "t": 161341.17300000094,
      "d": 121.95100000000093,
      "v": 100
    },
    {
      "midi": 65,
      "hit": false,
      "t": 161341.17300000094,
      "d": 121.95100000000093,
      "v": 100
    },
    {
      "midi": 62,
      "hit": false,
      "t": 161341.17300000094,
      "d": 121.95100000000093,
      "v": 100
    },
    {
      "midi": 44,
      "hit": false,
      "t": 161341.173000001,
      "d": 1.0162583333440125,
      "v": 100
    },
    {
      "midi": 70,
      "hit": false,
      "t": 161341.17300002783,
      "d": 60.975500000000466,
      "v": 100
    },
    {
      "midi": 65,
      "hit": false,
      "t": 161341.17300002783,
      "d": 60.975500000000466,
      "v": 100
    },
    {
      "midi": 62,
      "hit": false,
      "t": 161341.17300002783,
      "d": 60.975500000000466,
      "v": 100
    },
    {
      "midi": 79,
      "hit": false,
      "t": 161463.12400000053,
      "d": 243.90200000000186,
      "v": 100
    },
    {
      "midi": 74,
      "hit": false,
      "t": 161463.12400000053,
      "d": 243.90200000000186,
      "v": 100
    },
    {
      "midi": 70,
      "hit": false,
      "t": 161463.12400000053,
      "d": 243.90200000000186,
      "v": 100
    },
    {
      "midi": 54,
      "hit": false,
      "t": 161463.12400000065,
      "d": 1.0162583333440125,
      "v": 80
    },
    {
      "midi": 79,
      "hit": false,
      "t": 161463.12400000068,
      "d": 243.90200000000186,
      "v": 100
    },
    {
      "midi": 75,
      "hit": false,
      "t": 161463.12400000068,
      "d": 243.90200000000186,
      "v": 100
    },
    {
      "midi": 74,
      "hit": false,
      "t": 161463.1240000007,
      "d": 121.95100000000093,
      "v": 100
    },
    {
      "midi": 31,
      "hit": false,
      "t": 161463.1240000007,
      "d": 243.90200000000186,
      "v": 100
    },
    {
      "midi": 33,
      "hit": false,
      "t": 161463.124000001,
      "d": 1.0162583333440125,
      "v": 127
    },
    {
      "midi": 40,
      "hit": false,
      "t": 161463.124000001,
      "d": 1.0162583333440125,
      "v": 100
    },
    {
      "midi": 46,
      "hit": false,
      "t": 161463.124000001,
      "d": 1.0162583333440125,
      "v": 100
    },
    {
      "midi": 57,
      "hit": false,
      "t": 161463.124000001,
      "d": 1.0162583333440125,
      "v": 100
    },
    {
      "midi": 70,
      "hit": false,
      "t": 161463.12400002783,
      "d": 243.90199999985634,
      "v": 100
    },
    {
      "midi": 65,
      "hit": false,
      "t": 161463.12400002783,
      "d": 243.90199999985634,
      "v": 100
    },
    {
      "midi": 62,
      "hit": false,
      "t": 161463.12400002783,
      "d": 243.90199999985634,
      "v": 100
    },
    {
      "midi": 54,
      "hit": false,
      "t": 161585.07500000065,
      "d": 1.0162583333440125,
      "v": 60
    },
    {
      "midi": 74,
      "hit": false,
      "t": 161585.0750000007,
      "d": 121.95100000000093,
      "v": 100
    },
    {
      "midi": 44,
      "hit": false,
      "t": 161585.075000001,
      "d": 1.0162583333440125,
      "v": 100
    },
    {
      "midi": 82,
      "hit": false,
      "t": 161707.02600000054,
      "d": 243.90200000000186,
      "v": 100
    },
    {
      "midi": 79,
      "hit": false,
      "t": 161707.02600000054,
      "d": 243.90200000000186,
      "v": 100
    },
    {
      "midi": 74,
      "hit": false,
      "t": 161707.02600000054,
      "d": 243.90200000000186,
      "v": 100
    },
    {
      "midi": 54,
      "hit": false,
      "t": 161707.02600000065,
      "d": 1.0162583333440125,
      "v": 60
    },
    {
      "midi": 82,
      "hit": false,
      "t": 161707.02600000068,
      "d": 243.90200000000186,
      "v": 100
    },
    {
      "midi": 79,
      "hit": false,
      "t": 161707.02600000068,
      "d": 243.90200000000186,
      "v": 100
    },
    {
      "midi": 70,
      "hit": false,
      "t": 161707.0260000007,
      "d": 121.95100000000093,
      "v": 100
    },
    {
      "midi": 34,
      "hit": false,
      "t": 161707.0260000007,
      "d": 243.90200000000186,
      "v": 100
    },
    {
      "midi": 40,
      "hit": false,
      "t": 161707.026000001,
      "d": 1.0162583333440125,
      "v": 40
    },
    {
      "midi": 46,
      "hit": false,
      "t": 161707.026000001,
      "d": 1.0162583333440125,
      "v": 100
    },
    {
      "midi": 70,
      "hit": false,
      "t": 161707.0260000277,
      "d": 60.975500000000466,
      "v": 100
    },
    {
      "midi": 65,
      "hit": false,
      "t": 161707.0260000277,
      "d": 60.975500000000466,
      "v": 100
    },
    {
      "midi": 62,
      "hit": false,
      "t": 161707.0260000277,
      "d": 60.975500000000466,
      "v": 100
    },
    {
      "midi": 54,
      "hit": false,
      "t": 161828.97700000065,
      "d": 1.0162583333440125,
      "v": 60
    },
    {
      "midi": 70,
      "hit": false,
      "t": 161828.9770000007,
      "d": 121.95100000000093,
      "v": 100
    },
    {
      "midi": 40,
      "hit": false,
      "t": 161828.977000001,
      "d": 1.0162583333440125,
      "v": 100
    },
    {
      "midi": 44,
      "hit": false,
      "t": 161828.977000001,
      "d": 1.0162583333440125,
      "v": 100
    },
    {
      "midi": 70,
      "hit": false,
      "t": 161828.9770000277,
      "d": 60.975500000000466,
      "v": 100
    },
    {
      "midi": 65,
      "hit": false,
      "t": 161828.9770000277,
      "d": 60.975500000000466,
      "v": 100
    },
    {
      "midi": 62,
      "hit": false,
      "t": 161828.9770000277,
      "d": 60.975500000000466,
      "v": 100
    },
    {
      "midi": 84,
      "hit": false,
      "t": 161950.92800000054,
      "d": 243.90200000000186,
      "v": 100
    },
    {
      "midi": 79,
      "hit": false,
      "t": 161950.92800000054,
      "d": 243.90200000000186,
      "v": 100
    },
    {
      "midi": 75,
      "hit": false,
      "t": 161950.92800000054,
      "d": 243.90200000000186,
      "v": 100
    },
    {
      "midi": 54,
      "hit": false,
      "t": 161950.92800000065,
      "d": 1.0162583333440125,
      "v": 80
    },
    {
      "midi": 84,
      "hit": false,
      "t": 161950.92800000068,
      "d": 243.90200000000186,
      "v": 100
    },
    {
      "midi": 79,
      "hit": false,
      "t": 161950.92800000068,
      "d": 243.90200000000186,
      "v": 100
    },
    {
      "midi": 72,
      "hit": false,
      "t": 161950.9280000007,
      "d": 121.95100000000093,
      "v": 100
    },
    {
      "midi": 36,
      "hit": false,
      "t": 161950.9280000007,
      "d": 243.90200000000186,
      "v": 100
    },
    {
      "midi": 33,
      "hit": false,
      "t": 161950.928000001,
      "d": 1.0162583333440125,
      "v": 127
    },
    {
      "midi": 42,
      "hit": false,
      "t": 161950.928000001,
      "d": 1.0162583333440125,
      "v": 100
    },
    {
      "midi": 57,
      "hit": false,
      "t": 161950.928000001,
      "d": 1.0162583333440125,
      "v": 100
    },
    {
      "midi": 48,
      "hit": false,
      "t": 161950.92800000298,
      "d": 975.6080000000075,
      "v": 100
    },
    {
      "midi": 55,
      "hit": false,
      "t": 161950.92800000298,
      "d": 975.6080000000075,
      "v": 100
    },
    {
      "midi": 72,
      "hit": false,
      "t": 161950.9280000277,
      "d": 487.8040000000037,
      "v": 100
    },
    {
      "midi": 67,
      "hit": false,
      "t": 161950.9280000277,
      "d": 487.8040000000037,
      "v": 100
    },
    {
      "midi": 63,
      "hit": false,
      "t": 161950.9280000277,
      "d": 487.8040000000037,
      "v": 100
    },
    {
      "midi": 54,
      "hit": false,
      "t": 162072.87900000066,
      "d": 1.0162583333440125,
      "v": 60
    },
    {
      "midi": 72,
      "hit": false,
      "t": 162072.8790000007,
      "d": 121.95100000000093,
      "v": 100
    },
    {
      "midi": 72,
      "hit": false,
      "t": 162072.87900000095,
      "d": 121.95100000000093,
      "v": 100
    },
    {
      "midi": 67,
      "hit": false,
      "t": 162072.87900000095,
      "d": 121.95100000000093,
      "v": 100
    },
    {
      "midi": 63,
      "hit": false,
      "t": 162072.87900000095,
      "d": 121.95100000000093,
      "v": 100
    },
    {
      "midi": 54,
      "hit": false,
      "t": 162194.83000000066,
      "d": 1.0162583333440125,
      "v": 60
    },
    {
      "midi": 79,
      "hit": false,
      "t": 162194.83000000071,
      "d": 121.95100000000093,
      "v": 100
    },
    {
      "midi": 36,
      "hit": false,
      "t": 162194.83000000071,
      "d": 243.90200000000186,
      "v": 100
    },
    {
      "midi": 72,
      "hit": false,
      "t": 162194.83000000095,
      "d": 121.95100000000093,
      "v": 100
    },
    {
      "midi": 67,
      "hit": false,
      "t": 162194.83000000095,
      "d": 121.95100000000093,
      "v": 100
    },
    {
      "midi": 63,
      "hit": false,
      "t": 162194.83000000095,
      "d": 121.95100000000093,
      "v": 100
    },
    {
      "midi": 46,
      "hit": false,
      "t": 162194.830000001,
      "d": 1.0162583333440125,
      "v": 100
    },
    {
      "midi": 54,
      "hit": false,
      "t": 162316.78100000066,
      "d": 1.0162583333440125,
      "v": 60
    },
    {
      "midi": 79,
      "hit": false,
      "t": 162316.78100000072,
      "d": 121.95100000000093,
      "v": 100
    },
    {
      "midi": 44,
      "hit": false,
      "t": 162316.781000001,
      "d": 1.0162583333440125,
      "v": 100
    },
    {
      "midi": 84,
      "hit": false,
      "t": 162438.73200000054,
      "d": 243.90200000000186,
      "v": 100
    },
    {
      "midi": 79,
      "hit": false,
      "t": 162438.73200000054,
      "d": 243.90200000000186,
      "v": 100
    },
    {
      "midi": 75,
      "hit": false,
      "t": 162438.73200000054,
      "d": 243.90200000000186,
      "v": 100
    },
    {
      "midi": 54,
      "hit": false,
      "t": 162438.73200000066,
      "d": 1.0162583333440125,
      "v": 80
    },
    {
      "midi": 84,
      "hit": false,
      "t": 162438.7320000007,
      "d": 243.90200000000186,
      "v": 100
    },
    {
      "midi": 79,
      "hit": false,
      "t": 162438.7320000007,
      "d": 243.90200000000186,
      "v": 100
    },
    {
      "midi": 75,
      "hit": false,
      "t": 162438.73200000072,
      "d": 121.95100000000093,
      "v": 100
    },
    {
      "midi": 36,
      "hit": false,
      "t": 162438.73200000072,
      "d": 243.90200000000186,
      "v": 100
    },
    {
      "midi": 72,
      "hit": false,
      "t": 162438.73200000095,
      "d": 121.95100000000093,
      "v": 100
    },
    {
      "midi": 67,
      "hit": false,
      "t": 162438.73200000095,
      "d": 121.95100000000093,
      "v": 100
    },
    {
      "midi": 63,
      "hit": false,
      "t": 162438.73200000095,
      "d": 121.95100000000093,
      "v": 100
    },
    {
      "midi": 33,
      "hit": false,
      "t": 162438.732000001,
      "d": 1.0162583333440125,
      "v": 127
    },
    {
      "midi": 40,
      "hit": false,
      "t": 162438.732000001,
      "d": 1.0162583333440125,
      "v": 100
    },
    {
      "midi": 46,
      "hit": false,
      "t": 162438.732000001,
      "d": 1.0162583333440125,
      "v": 100
    },
    {
      "midi": 72,
      "hit": false,
      "t": 162438.7320000277,
      "d": 60.97549999988405,
      "v": 100
    },
    {
      "midi": 67,
      "hit": false,
      "t": 162438.7320000277,
      "d": 60.97549999988405,
      "v": 100
    },
    {
      "midi": 63,
      "hit": false,
      "t": 162438.7320000277,
      "d": 60.97549999988405,
      "v": 100
    },
    {
      "midi": 54,
      "hit": false,
      "t": 162560.68300000066,
      "d": 1.0162583333440125,
      "v": 60
    },
    {
      "midi": 75,
      "hit": false,
      "t": 162560.68300000072,
      "d": 121.95100000000093,
      "v": 100
    },
    {
      "midi": 44,
      "hit": false,
      "t": 162560.683000001,
      "d": 1.0162583333440125,
      "v": 100
    },
    {
      "midi": 72,
      "hit": false,
      "t": 162560.68300002758,
      "d": 60.975500000000466,
      "v": 100
    },
    {
      "midi": 67,
      "hit": false,
      "t": 162560.68300002758,
      "d": 60.975500000000466,
      "v": 100
    },
    {
      "midi": 63,
      "hit": false,
      "t": 162560.68300002758,
      "d": 60.975500000000466,
      "v": 100
    },
    {
      "midi": 84,
      "hit": false,
      "t": 162682.63400000054,
      "d": 30.487750000000233,
      "v": 100
    },
    {
      "midi": 79,
      "hit": false,
      "t": 162682.63400000054,
      "d": 30.487750000000233,
      "v": 100
    },
    {
      "midi": 54,
      "hit": false,
      "t": 162682.63400000066,
      "d": 1.0162583333440125,
      "v": 60
    },
    {
      "midi": 87,
      "hit": false,
      "t": 162682.6340000007,
      "d": 121.95100000000093,
      "v": 100
    },
    {
      "midi": 82,
      "hit": false,
      "t": 162682.6340000007,
      "d": 121.95100000000093,
      "v": 100
    },
    {
      "midi": 82,
      "hit": false,
      "t": 162682.63400000072,
      "d": 121.95100000000093,
      "v": 100
    },
    {
      "midi": 36,
      "hit": false,
      "t": 162682.63400000072,
      "d": 71.13808333332418,
      "v": 100
    },
    {
      "midi": 72,
      "hit": false,
      "t": 162682.63400000095,
      "d": 121.95100000000093,
      "v": 100
    },
    {
      "midi": 67,
      "hit": false,
      "t": 162682.63400000095,
      "d": 121.95100000000093,
      "v": 100
    },
    {
      "midi": 63,
      "hit": false,
      "t": 162682.63400000095,
      "d": 121.95100000000093,
      "v": 100
    },
    {
      "midi": 46,
      "hit": false,
      "t": 162682.634000001,
      "d": 1.0162583333440125,
      "v": 100
    },
    {
      "midi": 72,
      "hit": false,
      "t": 162682.6340000275,
      "d": 60.975500000000466,
      "v": 100
    },
    {
      "midi": 67,
      "hit": false,
      "t": 162682.6340000275,
      "d": 60.975500000000466,
      "v": 100
    },
    {
      "midi": 63,
      "hit": false,
      "t": 162682.6340000275,
      "d": 60.975500000000466,
      "v": 100
    },
    {
      "midi": 84,
      "hit": false,
      "t": 162804.58500000054,
      "d": 243.90200000000186,
      "v": 100
    },
    {
      "midi": 80,
      "hit": false,
      "t": 162804.58500000054,
      "d": 243.90200000000186,
      "v": 100
    },
    {
      "midi": 75,
      "hit": false,
      "t": 162804.58500000054,
      "d": 243.90200000000186,
      "v": 100
    },
    {
      "midi": 54,
      "hit": false,
      "t": 162804.58500000066,
      "d": 1.0162583333440125,
      "v": 60
    },
    {
      "midi": 84,
      "hit": false,
      "t": 162804.5850000007,
      "d": 365.8530000000028,
      "v": 100
    },
    {
      "midi": 80,
      "hit": false,
      "t": 162804.5850000007,
      "d": 365.8530000000028,
      "v": 100
    },
    {
      "midi": 82,
      "hit": false,
      "t": 162804.58500000072,
      "d": 121.95100000000093,
      "v": 100
    },
    {
      "midi": 32,
      "hit": false,
      "t": 162804.58500000072,
      "d": 243.90200000000186,
      "v": 100
    },
    {
      "midi": 44,
      "hit": false,
      "t": 162804.585000001,
      "d": 1.0162583333440125,
      "v": 100
    },
    {
      "midi": 72,
      "hit": false,
      "t": 162804.5850000275,
      "d": 60.975500000000466,
      "v": 100
    },
    {
      "midi": 67,
      "hit": false,
      "t": 162804.5850000275,
      "d": 60.975500000000466,
      "v": 100
    },
    {
      "midi": 63,
      "hit": false,
      "t": 162804.5850000275,
      "d": 60.975500000000466,
      "v": 100
    },
    {
      "midi": 54,
      "hit": false,
      "t": 162926.53600000066,
      "d": 1.0162583333440125,
      "v": 80
    },
    {
      "midi": 84,
      "hit": false,
      "t": 162926.53600000072,
      "d": 121.95100000000093,
      "v": 100
    },
    {
      "midi": 68,
      "hit": false,
      "t": 162926.53600000095,
      "d": 121.95100000000093,
      "v": 100
    },
    {
      "midi": 63,
      "hit": false,
      "t": 162926.53600000095,
      "d": 121.95100000000093,
      "v": 100
    },
    {
      "midi": 60,
      "hit": false,
      "t": 162926.53600000095,
      "d": 121.95100000000093,
      "v": 100
    },
    {
      "midi": 33,
      "hit": false,
      "t": 162926.536000001,
      "d": 1.0162583333440125,
      "v": 127
    },
    {
      "midi": 42,
      "hit": false,
      "t": 162926.536000001,
      "d": 1.0162583333440125,
      "v": 100
    },
    {
      "midi": 44,
      "hit": false,
      "t": 162926.536000003,
      "d": 975.6080000000075,
      "v": 100
    },
    {
      "midi": 51,
      "hit": false,
      "t": 162926.536000003,
      "d": 975.6080000000075,
      "v": 100
    },
    {
      "midi": 68,
      "hit": false,
      "t": 162926.5360000275,
      "d": 60.97549999988405,
      "v": 100
    },
    {
      "midi": 63,
      "hit": false,
      "t": 162926.5360000275,
      "d": 60.97549999988405,
      "v": 100
    },
    {
      "midi": 60,
      "hit": false,
      "t": 162926.5360000275,
      "d": 60.97549999988405,
      "v": 100
    },
    {
      "midi": 84,
      "hit": false,
      "t": 163048.48700000055,
      "d": 121.95100000000093,
      "v": 100
    },
    {
      "midi": 80,
      "hit": false,
      "t": 163048.48700000055,
      "d": 121.95100000000093,
      "v": 100
    },
    {
      "midi": 75,
      "hit": false,
      "t": 163048.48700000055,
      "d": 121.95100000000093,
      "v": 100
    },
    {
      "midi": 54,
      "hit": false,
      "t": 163048.48700000066,
      "d": 1.0162583333440125,
      "v": 60
    },
    {
      "midi": 84,
      "hit": false,
      "t": 163048.48700000072,
      "d": 121.95100000000093,
      "v": 100
    },
    {
      "midi": 32,
      "hit": false,
      "t": 163048.48700000072,
      "d": 121.95100000000093,
      "v": 100
    },
    {
      "midi": 68,
      "hit": false,
      "t": 163048.48700000095,
      "d": 121.95100000000093,
      "v": 100
    },
    {
      "midi": 63,
      "hit": false,
      "t": 163048.48700000095,
      "d": 121.95100000000093,
      "v": 100
    },
    {
      "midi": 60,
      "hit": false,
      "t": 163048.48700000095,
      "d": 121.95100000000093,
      "v": 100
    },
    {
      "midi": 68,
      "hit": false,
      "t": 163048.48700002738,
      "d": 60.975500000000466,
      "v": 100
    },
    {
      "midi": 63,
      "hit": false,
      "t": 163048.48700002738,
      "d": 60.975500000000466,
      "v": 100
    },
    {
      "midi": 60,
      "hit": false,
      "t": 163048.48700002738,
      "d": 60.975500000000466,
      "v": 100
    },
    {
      "midi": 84,
      "hit": false,
      "t": 163170.43800000055,
      "d": 243.90200000000186,
      "v": 100
    },
    {
      "midi": 80,
      "hit": false,
      "t": 163170.43800000055,
      "d": 243.90200000000186,
      "v": 100
    },
    {
      "midi": 75,
      "hit": false,
      "t": 163170.43800000055,
      "d": 243.90200000000186,
      "v": 100
    },
    {
      "midi": 54,
      "hit": false,
      "t": 163170.43800000066,
      "d": 1.0162583333440125,
      "v": 60
    },
    {
      "midi": 80,
      "hit": false,
      "t": 163170.43800000072,
      "d": 121.95100000000093,
      "v": 100
    },
    {
      "midi": 32,
      "hit": false,
      "t": 163170.43800000072,
      "d": 243.90200000000186,
      "v": 100
    },
    {
      "midi": 46,
      "hit": false,
      "t": 163170.438000001,
      "d": 1.0162583333440125,
      "v": 100
    },
    {
      "midi": 68,
      "hit": false,
      "t": 163170.4380000273,
      "d": 60.975500000000466,
      "v": 100
    },
    {
      "midi": 63,
      "hit": false,
      "t": 163170.4380000273,
      "d": 60.975500000000466,
      "v": 100
    },
    {
      "midi": 60,
      "hit": false,
      "t": 163170.4380000273,
      "d": 60.975500000000466,
      "v": 100
    },
    {
      "midi": 54,
      "hit": false,
      "t": 163292.38900000066,
      "d": 1.0162583333440125,
      "v": 60
    },
    {
      "midi": 80,
      "hit": false,
      "t": 163292.38900000072,
      "d": 121.95100000000093,
      "v": 100
    },
    {
      "midi": 68,
      "hit": false,
      "t": 163292.38900000096,
      "d": 121.95100000000093,
      "v": 100
    },
    {
      "midi": 63,
      "hit": false,
      "t": 163292.38900000096,
      "d": 121.95100000000093,
      "v": 100
    },
    {
      "midi": 60,
      "hit": false,
      "t": 163292.38900000096,
      "d": 121.95100000000093,
      "v": 100
    },
    {
      "midi": 44,
      "hit": false,
      "t": 163292.389000001,
      "d": 1.0162583333440125,
      "v": 100
    },
    {
      "midi": 68,
      "hit": false,
      "t": 163292.3890000273,
      "d": 60.975500000000466,
      "v": 100
    },
    {
      "midi": 63,
      "hit": false,
      "t": 163292.3890000273,
      "d": 60.975500000000466,
      "v": 100
    },
    {
      "midi": 60,
      "hit": false,
      "t": 163292.3890000273,
      "d": 60.975500000000466,
      "v": 100
    },
    {
      "midi": 84,
      "hit": false,
      "t": 163414.34000000055,
      "d": 243.90200000000186,
      "v": 100
    },
    {
      "midi": 80,
      "hit": false,
      "t": 163414.34000000055,
      "d": 243.90200000000186,
      "v": 100
    },
    {
      "midi": 75,
      "hit": false,
      "t": 163414.34000000055,
      "d": 243.90200000000186,
      "v": 100
    },
    {
      "midi": 54,
      "hit": false,
      "t": 163414.34000000067,
      "d": 1.0162583333440125,
      "v": 80
    },
    {
      "midi": 84,
      "hit": false,
      "t": 163414.3400000007,
      "d": 243.90200000000186,
      "v": 100
    },
    {
      "midi": 82,
      "hit": false,
      "t": 163414.3400000007,
      "d": 243.90200000000186,
      "v": 100
    },
    {
      "midi": 75,
      "hit": false,
      "t": 163414.34000000072,
      "d": 121.95100000000093,
      "v": 100
    },
    {
      "midi": 32,
      "hit": false,
      "t": 163414.34000000072,
      "d": 243.90200000000186,
      "v": 100
    },
    {
      "midi": 33,
      "hit": false,
      "t": 163414.34000000102,
      "d": 1.0162583333440125,
      "v": 127
    },
    {
      "midi": 40,
      "hit": false,
      "t": 163414.34000000102,
      "d": 1.0162583333440125,
      "v": 100
    },
    {
      "midi": 46,
      "hit": false,
      "t": 163414.34000000102,
      "d": 1.0162583333440125,
      "v": 100
    },
    {
      "midi": 68,
      "hit": false,
      "t": 163414.3400000273,
      "d": 243.90199999985634,
      "v": 100
    },
    {
      "midi": 63,
      "hit": false,
      "t": 163414.3400000273,
      "d": 243.90199999985634,
      "v": 100
    },
    {
      "midi": 60,
      "hit": false,
      "t": 163414.3400000273,
      "d": 243.90199999985634,
      "v": 100
    },
    {
      "midi": 54,
      "hit": false,
      "t": 163536.29100000067,
      "d": 1.0162583333440125,
      "v": 60
    },
    {
      "midi": 75,
      "hit": false,
      "t": 163536.29100000073,
      "d": 121.95100000000093,
      "v": 100
    },
    {
      "midi": 44,
      "hit": false,
      "t": 163536.29100000102,
      "d": 1.0162583333440125,
      "v": 100
    },
    {
      "midi": 84,
      "hit": false,
      "t": 163658.24200000055,
      "d": 243.90200000000186,
      "v": 100
    },
    {
      "midi": 80,
      "hit": false,
      "t": 163658.24200000055,
      "d": 243.90200000000186,
      "v": 100
    },
    {
      "midi": 75,
      "hit": false,
      "t": 163658.24200000055,
      "d": 243.90200000000186,
      "v": 100
    },
    {
      "midi": 54,
      "hit": false,
      "t": 163658.24200000067,
      "d": 1.0162583333440125,
      "v": 60
    },
    {
      "midi": 87,
      "hit": false,
      "t": 163658.2420000007,
      "d": 243.90200000000186,
      "v": 100
    },
    {
      "midi": 84,
      "hit": false,
      "t": 163658.2420000007,
      "d": 243.90200000000186,
      "v": 100
    },
    {
      "midi": 72,
      "hit": false,
      "t": 163658.24200000073,
      "d": 121.95100000000093,
      "v": 100
    },
    {
      "midi": 32,
      "hit": false,
      "t": 163658.24200000073,
      "d": 243.90200000000186,
      "v": 100
    },
    {
      "midi": 40,
      "hit": false,
      "t": 163658.24200000102,
      "d": 1.0162583333440125,
      "v": 40
    },
    {
      "midi": 46,
      "hit": false,
      "t": 163658.24200000102,
      "d": 1.0162583333440125,
      "v": 100
    },
    {
      "midi": 68,
      "hit": false,
      "t": 163658.24200002715,
      "d": 60.975500000000466,
      "v": 100
    },
    {
      "midi": 63,
      "hit": false,
      "t": 163658.24200002715,
      "d": 60.975500000000466,
      "v": 100
    },
    {
      "midi": 60,
      "hit": false,
      "t": 163658.24200002715,
      "d": 60.975500000000466,
      "v": 100
    },
    {
      "midi": 54,
      "hit": false,
      "t": 163780.19300000067,
      "d": 1.0162583333440125,
      "v": 60
    },
    {
      "midi": 72,
      "hit": false,
      "t": 163780.19300000073,
      "d": 121.95100000000093,
      "v": 100
    },
    {
      "midi": 40,
      "hit": false,
      "t": 163780.19300000102,
      "d": 1.0162583333440125,
      "v": 100
    },
    {
      "midi": 44,
      "hit": false,
      "t": 163780.19300000102,
      "d": 1.0162583333440125,
      "v": 100
    },
    {
      "midi": 68,
      "hit": false,
      "t": 163780.19300002715,
      "d": 60.975500000000466,
      "v": 100
    },
    {
      "midi": 63,
      "hit": false,
      "t": 163780.19300002715,
      "d": 60.975500000000466,
      "v": 100
    },
    {
      "midi": 60,
      "hit": false,
      "t": 163780.19300002715,
      "d": 60.975500000000466,
      "v": 100
    },
    {
      "midi": 86,
      "hit": false,
      "t": 163902.14400000055,
      "d": 243.90200000000186,
      "v": 100
    },
    {
      "midi": 82,
      "hit": false,
      "t": 163902.14400000055,
      "d": 243.90200000000186,
      "v": 100
    },
    {
      "midi": 77,
      "hit": false,
      "t": 163902.14400000055,
      "d": 243.90200000000186,
      "v": 100
    },
    {
      "midi": 54,
      "hit": false,
      "t": 163902.14400000067,
      "d": 1.0162583333440125,
      "v": 80
    },
    {
      "midi": 86,
      "hit": false,
      "t": 163902.1440000007,
      "d": 243.90200000000186,
      "v": 100
    },
    {
      "midi": 82,
      "hit": false,
      "t": 163902.1440000007,
      "d": 243.90200000000186,
      "v": 100
    },
    {
      "midi": 70,
      "hit": false,
      "t": 163902.14400000073,
      "d": 121.95100000000093,
      "v": 100
    },
    {
      "midi": 34,
      "hit": false,
      "t": 163902.14400000073,
      "d": 243.90200000000186,
      "v": 100
    },
    {
      "midi": 33,
      "hit": false,
      "t": 163902.14400000102,
      "d": 1.0162583333440125,
      "v": 127
    },
    {
      "midi": 42,
      "hit": false,
      "t": 163902.14400000102,
      "d": 1.0162583333440125,
      "v": 100
    },
    {
      "midi": 46,
      "hit": false,
      "t": 163902.144000003,
      "d": 975.6080000000075,
      "v": 100
    },
    {
      "midi": 53,
      "hit": false,
      "t": 163902.144000003,
      "d": 975.6080000000075,
      "v": 100
    },
    {
      "midi": 70,
      "hit": false,
      "t": 163902.14400002715,
      "d": 487.8040000000037,
      "v": 100
    },
    {
      "midi": 65,
      "hit": false,
      "t": 163902.14400002715,
      "d": 487.8040000000037,
      "v": 100
    },
    {
      "midi": 62,
      "hit": false,
      "t": 163902.14400002715,
      "d": 487.8040000000037,
      "v": 100
    },
    {
      "midi": 54,
      "hit": false,
      "t": 164024.09500000067,
      "d": 1.0162583333440125,
      "v": 60
    },
    {
      "midi": 70,
      "hit": false,
      "t": 164024.09500000073,
      "d": 121.95100000000093,
      "v": 100
    },
    {
      "midi": 70,
      "hit": false,
      "t": 164024.09500000096,
      "d": 121.95100000000093,
      "v": 100
    },
    {
      "midi": 65,
      "hit": false,
      "t": 164024.09500000096,
      "d": 121.95100000000093,
      "v": 100
    },
    {
      "midi": 62,
      "hit": false,
      "t": 164024.09500000096,
      "d": 121.95100000000093,
      "v": 100
    },
    {
      "midi": 54,
      "hit": false,
      "t": 164146.04600000067,
      "d": 1.0162583333440125,
      "v": 60
    },
    {
      "midi": 82,
      "hit": false,
      "t": 164146.0460000007,
      "d": 121.95100000000093,
      "v": 100
    },
    {
      "midi": 79,
      "hit": false,
      "t": 164146.0460000007,
      "d": 121.95100000000093,
      "v": 100
    },
    {
      "midi": 74,
      "hit": false,
      "t": 164146.04600000073,
      "d": 121.95100000000093,
      "v": 100
    },
    {
      "midi": 34,
      "hit": false,
      "t": 164146.04600000073,
      "d": 243.90200000000186,
      "v": 100
    },
    {
      "midi": 70,
      "hit": false,
      "t": 164146.04600000096,
      "d": 121.95100000000093,
      "v": 100
    },
    {
      "midi": 65,
      "hit": false,
      "t": 164146.04600000096,
      "d": 121.95100000000093,
      "v": 100
    },
    {
      "midi": 62,
      "hit": false,
      "t": 164146.04600000096,
      "d": 121.95100000000093,
      "v": 100
    },
    {
      "midi": 46,
      "hit": false,
      "t": 164146.04600000102,
      "d": 1.0162583333440125,
      "v": 100
    },
    {
      "midi": 54,
      "hit": false,
      "t": 164267.99700000067,
      "d": 1.0162583333440125,
      "v": 60
    },
    {
      "midi": 74,
      "hit": false,
      "t": 164267.99700000073,
      "d": 121.95100000000093,
      "v": 100
    },
    {
      "midi": 44,
      "hit": false,
      "t": 164267.99700000102,
      "d": 1.0162583333440125,
      "v": 100
    },
    {
      "midi": 82,
      "hit": false,
      "t": 164389.94800000056,
      "d": 243.90200000000186,
      "v": 100
    },
    {
      "midi": 77,
      "hit": false,
      "t": 164389.94800000056,
      "d": 243.90200000000186,
      "v": 100
    },
    {
      "midi": 54,
      "hit": false,
      "t": 164389.94800000067,
      "d": 1.0162583333440125,
      "v": 80
    },
    {
      "midi": 82,
      "hit": false,
      "t": 164389.9480000007,
      "d": 243.90200000000186,
      "v": 100
    },
    {
      "midi": 79,
      "hit": false,
      "t": 164389.9480000007,
      "d": 243.90200000000186,
      "v": 100
    },
    {
      "midi": 70,
      "hit": false,
      "t": 164389.94800000073,
      "d": 121.95100000000093,
      "v": 100
    },
    {
      "midi": 34,
      "hit": false,
      "t": 164389.94800000073,
      "d": 243.90200000000186,
      "v": 100
    },
    {
      "midi": 70,
      "hit": false,
      "t": 164389.94800000096,
      "d": 121.95100000000093,
      "v": 100
    },
    {
      "midi": 65,
      "hit": false,
      "t": 164389.94800000096,
      "d": 121.95100000000093,
      "v": 100
    },
    {
      "midi": 62,
      "hit": false,
      "t": 164389.94800000096,
      "d": 121.95100000000093,
      "v": 100
    },
    {
      "midi": 33,
      "hit": false,
      "t": 164389.94800000102,
      "d": 1.0162583333440125,
      "v": 127
    },
    {
      "midi": 40,
      "hit": false,
      "t": 164389.94800000102,
      "d": 1.0162583333440125,
      "v": 100
    },
    {
      "midi": 46,
      "hit": false,
      "t": 164389.94800000102,
      "d": 1.0162583333440125,
      "v": 100
    },
    {
      "midi": 70,
      "hit": false,
      "t": 164389.94800002716,
      "d": 60.97549999988405,
      "v": 100
    },
    {
      "midi": 65,
      "hit": false,
      "t": 164389.94800002716,
      "d": 60.97549999988405,
      "v": 100
    },
    {
      "midi": 62,
      "hit": false,
      "t": 164389.94800002716,
      "d": 60.97549999988405,
      "v": 100
    },
    {
      "midi": 54,
      "hit": false,
      "t": 164511.89900000067,
      "d": 1.0162583333440125,
      "v": 60
    },
    {
      "midi": 70,
      "hit": false,
      "t": 164511.89900000073,
      "d": 121.95100000000093,
      "v": 100
    },
    {
      "midi": 44,
      "hit": false,
      "t": 164511.89900000102,
      "d": 1.0162583333440125,
      "v": 100
    },
    {
      "midi": 70,
      "hit": false,
      "t": 164511.89900002704,
      "d": 60.975500000000466,
      "v": 100
    },
    {
      "midi": 65,
      "hit": false,
      "t": 164511.89900002704,
      "d": 60.975500000000466,
      "v": 100
    },
    {
      "midi": 62,
      "hit": false,
      "t": 164511.89900002704,
      "d": 60.975500000000466,
      "v": 100
    },
    {
      "midi": 77,
      "hit": false,
      "t": 164633.85000000056,
      "d": 40.65033333332394,
      "v": 100
    },
    {
      "midi": 82,
      "hit": false,
      "t": 164633.85000000056,
      "d": 40.65033333332394,
      "v": 100
    },
    {
      "midi": 54,
      "hit": false,
      "t": 164633.85000000068,
      "d": 1.0162583333440125,
      "v": 60
    },
    {
      "midi": 79,
      "hit": false,
      "t": 164633.8500000007,
      "d": 121.95100000000093,
      "v": 100
    },
    {
      "midi": 75,
      "hit": false,
      "t": 164633.8500000007,
      "d": 121.95100000000093,
      "v": 100
    },
    {
      "midi": 79,
      "hit": false,
      "t": 164633.85000000073,
      "d": 121.95100000000093,
      "v": 100
    },
    {
      "midi": 34,
      "hit": false,
      "t": 164633.85000000073,
      "d": 71.13808333332418,
      "v": 100
    },
    {
      "midi": 70,
      "hit": false,
      "t": 164633.85000000097,
      "d": 121.95100000000093,
      "v": 100
    },
    {
      "midi": 65,
      "hit": false,
      "t": 164633.85000000097,
      "d": 121.95100000000093,
      "v": 100
    },
    {
      "midi": 62,
      "hit": false,
      "t": 164633.85000000097,
      "d": 121.95100000000093,
      "v": 100
    },
    {
      "midi": 46,
      "hit": false,
      "t": 164633.85000000102,
      "d": 1.0162583333440125,
      "v": 100
    },
    {
      "midi": 70,
      "hit": false,
      "t": 164633.85000002696,
      "d": 60.975500000000466,
      "v": 100
    },
    {
      "midi": 65,
      "hit": false,
      "t": 164633.85000002696,
      "d": 60.975500000000466,
      "v": 100
    },
    {
      "midi": 62,
      "hit": false,
      "t": 164633.85000002696,
      "d": 60.975500000000466,
      "v": 100
    },
    {
      "midi": 82,
      "hit": false,
      "t": 164755.80100000056,
      "d": 243.90200000000186,
      "v": 100
    },
    {
      "midi": 77,
      "hit": false,
      "t": 164755.80100000056,
      "d": 243.90200000000186,
      "v": 100
    },
    {
      "midi": 74,
      "hit": false,
      "t": 164755.80100000056,
      "d": 325.20266666667885,
      "v": 100
    },
    {
      "midi": 54,
      "hit": false,
      "t": 164755.80100000068,
      "d": 1.0162583333440125,
      "v": 60
    },
    {
      "midi": 82,
      "hit": false,
      "t": 164755.8010000007,
      "d": 487.8040000000037,
      "v": 100
    },
    {
      "midi": 79,
      "hit": false,
      "t": 164755.8010000007,
      "d": 487.8040000000037,
      "v": 100
    },
    {
      "midi": 79,
      "hit": false,
      "t": 164755.80100000073,
      "d": 121.95100000000093,
      "v": 100
    },
    {
      "midi": 31,
      "hit": false,
      "t": 164755.80100000073,
      "d": 243.90200000000186,
      "v": 100
    },
    {
      "midi": 44,
      "hit": false,
      "t": 164755.80100000103,
      "d": 1.0162583333440125,
      "v": 100
    },
    {
      "midi": 40,
      "hit": false,
      "t": 164755.80100000103,
      "d": 1.0162583333440125,
      "v": 100
    },
    {
      "midi": 70,
      "hit": false,
      "t": 164755.80100002696,
      "d": 60.975500000000466,
      "v": 100
    },
    {
      "midi": 65,
      "hit": false,
      "t": 164755.80100002696,
      "d": 60.975500000000466,
      "v": 100
    },
    {
      "midi": 62,
      "hit": false,
      "t": 164755.80100002696,
      "d": 60.975500000000466,
      "v": 100
    },
    {
      "midi": 54,
      "hit": false,
      "t": 164877.75200000068,
      "d": 1.0162583333440125,
      "v": 80
    },
    {
      "midi": 79,
      "hit": false,
      "t": 164877.75200000074,
      "d": 121.95100000000093,
      "v": 100
    },
    {
      "midi": 67,
      "hit": false,
      "t": 164877.75200000097,
      "d": 121.95100000000093,
      "v": 100
    },
    {
      "midi": 63,
      "hit": false,
      "t": 164877.75200000097,
      "d": 121.95100000000093,
      "v": 100
    },
    {
      "midi": 58,
      "hit": false,
      "t": 164877.75200000097,
      "d": 121.95100000000093,
      "v": 100
    },
    {
      "midi": 33,
      "hit": false,
      "t": 164877.75200000103,
      "d": 1.0162583333440125,
      "v": 127
    },
    {
      "midi": 42,
      "hit": false,
      "t": 164877.75200000103,
      "d": 1.0162583333440125,
      "v": 100
    },
    {
      "midi": 50,
      "hit": false,
      "t": 164877.752000003,
      "d": 975.6080000000075,
      "v": 100
    },
    {
      "midi": 43,
      "hit": false,
      "t": 164877.752000003,
      "d": 975.6080000000075,
      "v": 100
    },
    {
      "midi": 67,
      "hit": false,
      "t": 164877.75200002696,
      "d": 60.97549999988405,
      "v": 100
    },
    {
      "midi": 62,
      "hit": false,
      "t": 164877.75200002696,
      "d": 60.97549999988405,
      "v": 100
    },
    {
      "midi": 58,
      "hit": false,
      "t": 164877.75200002696,
      "d": 60.97549999988405,
      "v": 100
    },
    {
      "midi": 54,
      "hit": false,
      "t": 164999.70300000068,
      "d": 1.0162583333440125,
      "v": 60
    },
    {
      "midi": 79,
      "hit": false,
      "t": 164999.70300000074,
      "d": 121.95100000000093,
      "v": 100
    },
    {
      "midi": 31,
      "hit": false,
      "t": 164999.70300000074,
      "d": 121.95100000000093,
      "v": 100
    },
    {
      "midi": 67,
      "hit": false,
      "t": 164999.70300000097,
      "d": 121.95100000000093,
      "v": 100
    },
    {
      "midi": 63,
      "hit": false,
      "t": 164999.70300000097,
      "d": 121.95100000000093,
      "v": 100
    },
    {
      "midi": 58,
      "hit": false,
      "t": 164999.70300000097,
      "d": 121.95100000000093,
      "v": 100
    },
    {
      "midi": 40,
      "hit": false,
      "t": 164999.70300000103,
      "d": 1.0162583333440125,
      "v": 100
    },
    {
      "midi": 67,
      "hit": false,
      "t": 164999.70300002684,
      "d": 60.975500000000466,
      "v": 100
    },
    {
      "midi": 62,
      "hit": false,
      "t": 164999.70300002684,
      "d": 60.975500000000466,
      "v": 100
    },
    {
      "midi": 58,
      "hit": false,
      "t": 164999.70300002684,
      "d": 60.975500000000466,
      "v": 100
    },
    {
      "midi": 74,
      "hit": false,
      "t": 165121.65400000056,
      "d": 243.90200000000186,
      "v": 100
    },
    {
      "midi": 82,
      "hit": false,
      "t": 165121.65400000056,
      "d": 243.90200000000186,
      "v": 100
    },
    {
      "midi": 77,
      "hit": false,
      "t": 165121.65400000056,
      "d": 243.90200000000186,
      "v": 100
    },
    {
      "midi": 54,
      "hit": false,
      "t": 165121.65400000068,
      "d": 1.0162583333440125,
      "v": 60
    },
    {
      "midi": 79,
      "hit": false,
      "t": 165121.65400000074,
      "d": 121.95100000000093,
      "v": 100
    },
    {
      "midi": 31,
      "hit": false,
      "t": 165121.65400000074,
      "d": 243.90200000000186,
      "v": 100
    },
    {
      "midi": 46,
      "hit": false,
      "t": 165121.65400000103,
      "d": 1.0162583333440125,
      "v": 100
    },
    {
      "midi": 67,
      "hit": false,
      "t": 165121.65400002676,
      "d": 60.975500000000466,
      "v": 100
    },
    {
      "midi": 62,
      "hit": false,
      "t": 165121.65400002676,
      "d": 60.975500000000466,
      "v": 100
    },
    {
      "midi": 58,
      "hit": false,
      "t": 165121.65400002676,
      "d": 60.975500000000466,
      "v": 100
    },
    {
      "midi": 54,
      "hit": false,
      "t": 165243.60500000068,
      "d": 1.0162583333440125,
      "v": 60
    },
    {
      "midi": 79,
      "hit": false,
      "t": 165243.60500000074,
      "d": 121.95100000000093,
      "v": 100
    },
    {
      "midi": 67,
      "hit": false,
      "t": 165243.60500000097,
      "d": 121.95100000000093,
      "v": 100
    },
    {
      "midi": 63,
      "hit": false,
      "t": 165243.60500000097,
      "d": 121.95100000000093,
      "v": 100
    },
    {
      "midi": 58,
      "hit": false,
      "t": 165243.60500000097,
      "d": 121.95100000000093,
      "v": 100
    },
    {
      "midi": 44,
      "hit": false,
      "t": 165243.60500000103,
      "d": 1.0162583333440125,
      "v": 100
    },
    {
      "midi": 67,
      "hit": false,
      "t": 165243.60500002676,
      "d": 60.975500000000466,
      "v": 100
    },
    {
      "midi": 62,
      "hit": false,
      "t": 165243.60500002676,
      "d": 60.975500000000466,
      "v": 100
    },
    {
      "midi": 58,
      "hit": false,
      "t": 165243.60500002676,
      "d": 60.975500000000466,
      "v": 100
    },
    {
      "midi": 74,
      "hit": false,
      "t": 165365.55600000056,
      "d": 243.90200000000186,
      "v": 100
    },
    {
      "midi": 79,
      "hit": false,
      "t": 165365.55600000056,
      "d": 243.90200000000186,
      "v": 100
    },
    {
      "midi": 77,
      "hit": false,
      "t": 165365.55600000056,
      "d": 243.90200000000186,
      "v": 100
    },
    {
      "midi": 54,
      "hit": false,
      "t": 165365.55600000068,
      "d": 1.0162583333440125,
      "v": 80
    },
    {
      "midi": 80,
      "hit": false,
      "t": 165365.5560000007,
      "d": 243.90200000000186,
      "v": 100
    },
    {
      "midi": 77,
      "hit": false,
      "t": 165365.5560000007,
      "d": 243.90200000000186,
      "v": 100
    },
    {
      "midi": 74,
      "hit": false,
      "t": 165365.55600000074,
      "d": 121.95100000000093,
      "v": 100
    },
    {
      "midi": 31,
      "hit": false,
      "t": 165365.55600000074,
      "d": 243.90200000000186,
      "v": 100
    },
    {
      "midi": 33,
      "hit": false,
      "t": 165365.55600000103,
      "d": 1.0162583333440125,
      "v": 127
    },
    {
      "midi": 40,
      "hit": false,
      "t": 165365.55600000103,
      "d": 1.0162583333440125,
      "v": 100
    },
    {
      "midi": 46,
      "hit": false,
      "t": 165365.55600000103,
      "d": 1.0162583333440125,
      "v": 100
    },
    {
      "midi": 67,
      "hit": false,
      "t": 165365.55600002676,
      "d": 243.90199999985634,
      "v": 100
    },
    {
      "midi": 62,
      "hit": false,
      "t": 165365.55600002676,
      "d": 243.90199999985634,
      "v": 100
    },
    {
      "midi": 58,
      "hit": false,
      "t": 165365.55600002676,
      "d": 243.90199999985634,
      "v": 100
    },
    {
      "midi": 54,
      "hit": false,
      "t": 165487.50700000068,
      "d": 1.0162583333440125,
      "v": 60
    },
    {
      "midi": 74,
      "hit": false,
      "t": 165487.50700000074,
      "d": 121.95100000000093,
      "v": 100
    },
    {
      "midi": 44,
      "hit": false,
      "t": 165487.50700000103,
      "d": 1.0162583333440125,
      "v": 100
    },
    {
      "midi": 74,
      "hit": false,
      "t": 165609.45800000057,
      "d": 243.90200000000186,
      "v": 100
    },
    {
      "midi": 82,
      "hit": false,
      "t": 165609.45800000057,
      "d": 243.90200000000186,
      "v": 100
    },
    {
      "midi": 77,
      "hit": false,
      "t": 165609.45800000057,
      "d": 243.90200000000186,
      "v": 100
    },
    {
      "midi": 54,
      "hit": false,
      "t": 165609.45800000068,
      "d": 1.0162583333440125,
      "v": 60
    },
    {
      "midi": 82,
      "hit": false,
      "t": 165609.4580000007,
      "d": 243.90200000000186,
      "v": 100
    },
    {
      "midi": 79,
      "hit": false,
      "t": 165609.4580000007,
      "d": 243.90200000000186,
      "v": 100
    },
    {
      "midi": 79,
      "hit": false,
      "t": 165609.45800000074,
      "d": 121.95100000000093,
      "v": 100
    },
    {
      "midi": 31,
      "hit": false,
      "t": 165609.45800000074,
      "d": 243.90200000000186,
      "v": 100
    },
    {
      "midi": 40,
      "hit": false,
      "t": 165609.45800000103,
      "d": 1.0162583333440125,
      "v": 40
    },
    {
      "midi": 46,
      "hit": false,
      "t": 165609.45800000103,
      "d": 1.0162583333440125,
      "v": 100
    },
    {
      "midi": 67,
      "hit": false,
      "t": 165609.4580000266,
      "d": 60.975500000000466,
      "v": 100
    },
    {
      "midi": 62,
      "hit": false,
      "t": 165609.4580000266,
      "d": 60.975500000000466,
      "v": 100
    },
    {
      "midi": 58,
      "hit": false,
      "t": 165609.4580000266,
      "d": 60.975500000000466,
      "v": 100
    },
    {
      "midi": 54,
      "hit": false,
      "t": 165731.40900000068,
      "d": 1.0162583333440125,
      "v": 60
    },
    {
      "midi": 79,
      "hit": false,
      "t": 165731.40900000074,
      "d": 121.95100000000093,
      "v": 100
    },
    {
      "midi": 40,
      "hit": false,
      "t": 165731.40900000103,
      "d": 1.0162583333440125,
      "v": 100
    },
    {
      "midi": 44,
      "hit": false,
      "t": 165731.40900000103,
      "d": 1.0162583333440125,
      "v": 100
    },
    {
      "midi": 67,
      "hit": false,
      "t": 165731.40900002662,
      "d": 60.975500000000466,
      "v": 100
    },
    {
      "midi": 62,
      "hit": false,
      "t": 165731.40900002662,
      "d": 60.975500000000466,
      "v": 100
    },
    {
      "midi": 58,
      "hit": false,
      "t": 165731.40900002662,
      "d": 60.975500000000466,
      "v": 100
    },
    {
      "midi": 80,
      "hit": false,
      "t": 165853.36000000057,
      "d": 243.90200000000186,
      "v": 100
    },
    {
      "midi": 75,
      "hit": false,
      "t": 165853.36000000057,
      "d": 243.90200000000186,
      "v": 100
    },
    {
      "midi": 72,
      "hit": false,
      "t": 165853.36000000057,
      "d": 243.90200000000186,
      "v": 100
    },
    {
      "midi": 54,
      "hit": false,
      "t": 165853.36000000068,
      "d": 1.0162583333440125,
      "v": 80
    },
    {
      "midi": 80,
      "hit": false,
      "t": 165853.3600000007,
      "d": 243.90200000000186,
      "v": 100
    },
    {
      "midi": 77,
      "hit": false,
      "t": 165853.3600000007,
      "d": 243.90200000000186,
      "v": 100
    },
    {
      "midi": 65,
      "hit": false,
      "t": 165853.36000000074,
      "d": 121.95100000000093,
      "v": 100
    },
    {
      "midi": 29,
      "hit": false,
      "t": 165853.36000000074,
      "d": 243.90200000000186,
      "v": 100
    },
    {
      "midi": 33,
      "hit": false,
      "t": 165853.36000000103,
      "d": 1.0162583333440125,
      "v": 127
    },
    {
      "midi": 42,
      "hit": false,
      "t": 165853.36000000103,
      "d": 1.0162583333440125,
      "v": 100
    },
    {
      "midi": 41,
      "hit": false,
      "t": 165853.360000003,
      "d": 975.6080000000075,
      "v": 100
    },
    {
      "midi": 48,
      "hit": false,
      "t": 165853.360000003,
      "d": 975.6080000000075,
      "v": 100
    },
    {
      "midi": 68,
      "hit": false,
      "t": 165853.36000002662,
      "d": 487.8040000000037,
      "v": 100
    },
    {
      "midi": 63,
      "hit": false,
      "t": 165853.36000002662,
      "d": 487.8040000000037,
      "v": 100
    },
    {
      "midi": 60,
      "hit": false,
      "t": 165853.36000002662,
      "d": 487.8040000000037,
      "v": 100
    },
    {
      "midi": 54,
      "hit": false,
      "t": 165975.3110000007,
      "d": 1.0162583333440125,
      "v": 60
    },
    {
      "midi": 58,
      "hit": false,
      "t": 165975.31100000074,
      "d": 121.95100000000093,
      "v": 100
    },
    {
      "midi": 60,
      "hit": false,
      "t": 165975.31100000098,
      "d": 121.95100000000093,
      "v": 100
    },
    {
      "midi": 63,
      "hit": false,
      "t": 165975.31100000098,
      "d": 121.95100000000093,
      "v": 100
    },
    {
      "midi": 68,
      "hit": false,
      "t": 165975.31100000098,
      "d": 121.95100000000093,
      "v": 100
    },
    {
      "midi": 54,
      "hit": false,
      "t": 166097.2620000007,
      "d": 1.0162583333440125,
      "v": 60
    },
    {
      "midi": 65,
      "hit": false,
      "t": 166097.26200000074,
      "d": 121.95100000000093,
      "v": 100
    },
    {
      "midi": 29,
      "hit": false,
      "t": 166097.26200000074,
      "d": 243.90200000000186,
      "v": 100
    },
    {
      "midi": 68,
      "hit": false,
      "t": 166097.26200000098,
      "d": 121.95100000000093,
      "v": 100
    },
    {
      "midi": 63,
      "hit": false,
      "t": 166097.26200000098,
      "d": 121.95100000000093,
      "v": 100
    },
    {
      "midi": 60,
      "hit": false,
      "t": 166097.26200000098,
      "d": 121.95100000000093,
      "v": 100
    },
    {
      "midi": 46,
      "hit": false,
      "t": 166097.26200000104,
      "d": 1.0162583333440125,
      "v": 100
    },
    {
      "midi": 54,
      "hit": false,
      "t": 166219.2130000007,
      "d": 1.0162583333440125,
      "v": 60
    },
    {
      "midi": 70,
      "hit": false,
      "t": 166219.21300000075,
      "d": 121.95100000000093,
      "v": 100
    },
    {
      "midi": 44,
      "hit": false,
      "t": 166219.21300000104,
      "d": 1.0162583333440125,
      "v": 100
    },
    {
      "midi": 80,
      "hit": false,
      "t": 166341.16400000057,
      "d": 243.90200000000186,
      "v": 100
    },
    {
      "midi": 75,
      "hit": false,
      "t": 166341.16400000057,
      "d": 243.90200000000186,
      "v": 100
    },
    {
      "midi": 72,
      "hit": false,
      "t": 166341.16400000057,
      "d": 243.90200000000186,
      "v": 100
    },
    {
      "midi": 54,
      "hit": false,
      "t": 166341.1640000007,
      "d": 1.0162583333440125,
      "v": 80
    },
    {
      "midi": 80,
      "hit": false,
      "t": 166341.16400000072,
      "d": 243.90200000000186,
      "v": 100
    },
    {
      "midi": 77,
      "hit": false,
      "t": 166341.16400000072,
      "d": 243.90200000000186,
      "v": 100
    },
    {
      "midi": 65,
      "hit": false,
      "t": 166341.16400000075,
      "d": 121.95100000000093,
      "v": 100
    },
    {
      "midi": 29,
      "hit": false,
      "t": 166341.16400000075,
      "d": 243.90200000000186,
      "v": 100
    },
    {
      "midi": 68,
      "hit": false,
      "t": 166341.16400000098,
      "d": 121.95100000000093,
      "v": 100
    },
    {
      "midi": 63,
      "hit": false,
      "t": 166341.16400000098,
      "d": 121.95100000000093,
      "v": 100
    },
    {
      "midi": 60,
      "hit": false,
      "t": 166341.16400000098,
      "d": 121.95100000000093,
      "v": 100
    },
    {
      "midi": 33,
      "hit": false,
      "t": 166341.16400000104,
      "d": 1.0162583333440125,
      "v": 127
    },
    {
      "midi": 40,
      "hit": false,
      "t": 166341.16400000104,
      "d": 1.0162583333440125,
      "v": 100
    },
    {
      "midi": 46,
      "hit": false,
      "t": 166341.16400000104,
      "d": 1.0162583333440125,
      "v": 100
    },
    {
      "midi": 68,
      "hit": false,
      "t": 166341.16400002662,
      "d": 60.97549999988405,
      "v": 100
    },
    {
      "midi": 63,
      "hit": false,
      "t": 166341.16400002662,
      "d": 60.97549999988405,
      "v": 100
    },
    {
      "midi": 60,
      "hit": false,
      "t": 166341.16400002662,
      "d": 60.97549999988405,
      "v": 100
    },
    {
      "midi": 54,
      "hit": false,
      "t": 166463.1150000007,
      "d": 1.0162583333440125,
      "v": 60
    },
    {
      "midi": 70,
      "hit": false,
      "t": 166463.11500000075,
      "d": 121.95100000000093,
      "v": 100
    },
    {
      "midi": 44,
      "hit": false,
      "t": 166463.11500000104,
      "d": 1.0162583333440125,
      "v": 100
    },
    {
      "midi": 68,
      "hit": false,
      "t": 166463.1150000265,
      "d": 60.975500000000466,
      "v": 100
    },
    {
      "midi": 63,
      "hit": false,
      "t": 166463.1150000265,
      "d": 60.975500000000466,
      "v": 100
    },
    {
      "midi": 60,
      "hit": false,
      "t": 166463.1150000265,
      "d": 60.975500000000466,
      "v": 100
    },
    {
      "midi": 54,
      "hit": false,
      "t": 166585.0660000007,
      "d": 1.0162583333440125,
      "v": 60
    },
    {
      "midi": 82,
      "hit": false,
      "t": 166585.06600000072,
      "d": 121.95100000000093,
      "v": 100
    },
    {
      "midi": 79,
      "hit": false,
      "t": 166585.06600000072,
      "d": 121.95100000000093,
      "v": 100
    },
    {
      "midi": 77,
      "hit": false,
      "t": 166585.06600000075,
      "d": 121.95100000000093,
      "v": 100
    },
    {
      "midi": 29,
      "hit": false,
      "t": 166585.06600000075,
      "d": 71.13808333332418,
      "v": 100
    },
    {
      "midi": 68,
      "hit": false,
      "t": 166585.06600000098,
      "d": 121.95100000000093,
      "v": 100
    },
    {
      "midi": 63,
      "hit": false,
      "t": 166585.06600000098,
      "d": 121.95100000000093,
      "v": 100
    },
    {
      "midi": 60,
      "hit": false,
      "t": 166585.06600000098,
      "d": 121.95100000000093,
      "v": 100
    },
    {
      "midi": 46,
      "hit": false,
      "t": 166585.06600000104,
      "d": 1.0162583333440125,
      "v": 100
    },
    {
      "midi": 68,
      "hit": false,
      "t": 166585.06600002642,
      "d": 60.975500000000466,
      "v": 100
    },
    {
      "midi": 63,
      "hit": false,
      "t": 166585.06600002642,
      "d": 60.975500000000466,
      "v": 100
    },
    {
      "midi": 60,
      "hit": false,
      "t": 166585.06600002642,
      "d": 60.975500000000466,
      "v": 100
    },
    {
      "midi": 82,
      "hit": false,
      "t": 166707.01700000057,
      "d": 365.8530000000028,
      "v": 100
    },
    {
      "midi": 77,
      "hit": false,
      "t": 166707.01700000057,
      "d": 365.8530000000028,
      "v": 100
    },
    {
      "midi": 74,
      "hit": false,
      "t": 166707.01700000057,
      "d": 365.8530000000028,
      "v": 100
    },
    {
      "midi": 54,
      "hit": false,
      "t": 166707.0170000007,
      "d": 1.0162583333440125,
      "v": 60
    },
    {
      "midi": 77,
      "hit": false,
      "t": 166707.01700000072,
      "d": 487.8040000000037,
      "v": 100
    },
    {
      "midi": 74,
      "hit": false,
      "t": 166707.01700000072,
      "d": 487.8040000000037,
      "v": 100
    },
    {
      "midi": 82,
      "hit": false,
      "t": 166707.01700000075,
      "d": 121.95100000000093,
      "v": 100
    },
    {
      "midi": 34,
      "hit": false,
      "t": 166707.01700000075,
      "d": 243.90200000000186,
      "v": 100
    },
    {
      "midi": 44,
      "hit": false,
      "t": 166707.01700000104,
      "d": 1.0162583333440125,
      "v": 100
    },
    {
      "midi": 68,
      "hit": false,
      "t": 166707.01700002642,
      "d": 60.975500000000466,
      "v": 100
    },
    {
      "midi": 63,
      "hit": false,
      "t": 166707.01700002642,
      "d": 60.975500000000466,
      "v": 100
    },
    {
      "midi": 60,
      "hit": false,
      "t": 166707.01700002642,
      "d": 60.975500000000466,
      "v": 100
    },
    {
      "midi": 54,
      "hit": false,
      "t": 166828.9680000007,
      "d": 1.0162583333440125,
      "v": 80
    },
    {
      "midi": 82,
      "hit": false,
      "t": 166828.96800000075,
      "d": 121.95100000000093,
      "v": 100
    },
    {
      "midi": 70,
      "hit": false,
      "t": 166828.96800000098,
      "d": 121.95100000000093,
      "v": 100
    },
    {
      "midi": 65,
      "hit": false,
      "t": 166828.96800000098,
      "d": 121.95100000000093,
      "v": 100
    },
    {
      "midi": 62,
      "hit": false,
      "t": 166828.96800000098,
      "d": 121.95100000000093,
      "v": 100
    },
    {
      "midi": 33,
      "hit": false,
      "t": 166828.96800000104,
      "d": 1.0162583333440125,
      "v": 127
    },
    {
      "midi": 42,
      "hit": false,
      "t": 166828.96800000104,
      "d": 1.0162583333440125,
      "v": 100
    },
    {
      "midi": 46,
      "hit": false,
      "t": 166828.96800000302,
      "d": 975.6080000000075,
      "v": 100
    },
    {
      "midi": 53,
      "hit": false,
      "t": 166828.96800000302,
      "d": 975.6080000000075,
      "v": 100
    },
    {
      "midi": 70,
      "hit": false,
      "t": 166828.96800002642,
      "d": 60.97549999988405,
      "v": 100
    },
    {
      "midi": 65,
      "hit": false,
      "t": 166828.96800002642,
      "d": 60.97549999988405,
      "v": 100
    },
    {
      "midi": 62,
      "hit": false,
      "t": 166828.96800002642,
      "d": 60.97549999988405,
      "v": 100
    },
    {
      "midi": 54,
      "hit": false,
      "t": 166950.9190000007,
      "d": 1.0162583333440125,
      "v": 60
    },
    {
      "midi": 82,
      "hit": false,
      "t": 166950.91900000075,
      "d": 121.95100000000093,
      "v": 100
    },
    {
      "midi": 34,
      "hit": false,
      "t": 166950.91900000075,
      "d": 121.95100000000093,
      "v": 100
    },
    {
      "midi": 70,
      "hit": false,
      "t": 166950.91900000098,
      "d": 121.95100000000093,
      "v": 100
    },
    {
      "midi": 65,
      "hit": false,
      "t": 166950.91900000098,
      "d": 121.95100000000093,
      "v": 100
    },
    {
      "midi": 62,
      "hit": false,
      "t": 166950.91900000098,
      "d": 121.95100000000093,
      "v": 100
    },
    {
      "midi": 70,
      "hit": false,
      "t": 166950.9190000263,
      "d": 60.975500000000466,
      "v": 100
    },
    {
      "midi": 65,
      "hit": false,
      "t": 166950.9190000263,
      "d": 60.975500000000466,
      "v": 100
    },
    {
      "midi": 62,
      "hit": false,
      "t": 166950.9190000263,
      "d": 60.975500000000466,
      "v": 100
    },
    {
      "midi": 82,
      "hit": false,
      "t": 167072.87000000058,
      "d": 243.90200000000186,
      "v": 100
    },
    {
      "midi": 77,
      "hit": false,
      "t": 167072.87000000058,
      "d": 243.90200000000186,
      "v": 100
    },
    {
      "midi": 74,
      "hit": false,
      "t": 167072.87000000058,
      "d": 243.90200000000186,
      "v": 100
    },
    {
      "midi": 54,
      "hit": false,
      "t": 167072.8700000007,
      "d": 1.0162583333440125,
      "v": 60
    },
    {
      "midi": 82,
      "hit": false,
      "t": 167072.87000000075,
      "d": 121.95100000000093,
      "v": 100
    },
    {
      "midi": 34,
      "hit": false,
      "t": 167072.87000000075,
      "d": 243.90200000000186,
      "v": 100
    },
    {
      "midi": 46,
      "hit": false,
      "t": 167072.87000000104,
      "d": 1.0162583333440125,
      "v": 100
    },
    {
      "midi": 70,
      "hit": false,
      "t": 167072.87000002622,
      "d": 60.975500000000466,
      "v": 100
    },
    {
      "midi": 65,
      "hit": false,
      "t": 167072.87000002622,
      "d": 60.975500000000466,
      "v": 100
    },
    {
      "midi": 62,
      "hit": false,
      "t": 167072.87000002622,
      "d": 60.975500000000466,
      "v": 100
    },
    {
      "midi": 54,
      "hit": false,
      "t": 167194.8210000007,
      "d": 1.0162583333440125,
      "v": 60
    },
    {
      "midi": 82,
      "hit": false,
      "t": 167194.82100000075,
      "d": 121.95100000000093,
      "v": 100
    },
    {
      "midi": 70,
      "hit": false,
      "t": 167194.821000001,
      "d": 121.95100000000093,
      "v": 100
    },
    {
      "midi": 65,
      "hit": false,
      "t": 167194.821000001,
      "d": 121.95100000000093,
      "v": 100
    },
    {
      "midi": 62,
      "hit": false,
      "t": 167194.821000001,
      "d": 121.95100000000093,
      "v": 100
    },
    {
      "midi": 44,
      "hit": false,
      "t": 167194.82100000104,
      "d": 1.0162583333440125,
      "v": 100
    },
    {
      "midi": 70,
      "hit": false,
      "t": 167194.82100002622,
      "d": 60.975500000000466,
      "v": 100
    },
    {
      "midi": 65,
      "hit": false,
      "t": 167194.82100002622,
      "d": 60.975500000000466,
      "v": 100
    },
    {
      "midi": 62,
      "hit": false,
      "t": 167194.82100002622,
      "d": 60.975500000000466,
      "v": 100
    },
    {
      "midi": 77,
      "hit": false,
      "t": 167316.77200000058,
      "d": 243.90200000000186,
      "v": 100
    },
    {
      "midi": 74,
      "hit": false,
      "t": 167316.77200000058,
      "d": 243.90200000000186,
      "v": 100
    },
    {
      "midi": 70,
      "hit": false,
      "t": 167316.77200000058,
      "d": 243.90200000000186,
      "v": 100
    },
    {
      "midi": 54,
      "hit": false,
      "t": 167316.7720000007,
      "d": 1.0162583333440125,
      "v": 80
    },
    {
      "midi": 77,
      "hit": false,
      "t": 167316.77200000072,
      "d": 243.90200000000186,
      "v": 100
    },
    {
      "midi": 72,
      "hit": false,
      "t": 167316.77200000072,
      "d": 243.90200000000186,
      "v": 100
    },
    {
      "midi": 77,
      "hit": false,
      "t": 167316.77200000075,
      "d": 121.95100000000093,
      "v": 100
    },
    {
      "midi": 34,
      "hit": false,
      "t": 167316.77200000075,
      "d": 243.90200000000186,
      "v": 100
    },
    {
      "midi": 33,
      "hit": false,
      "t": 167316.77200000104,
      "d": 1.0162583333440125,
      "v": 127
    },
    {
      "midi": 40,
      "hit": false,
      "t": 167316.77200000104,
      "d": 1.0162583333440125,
      "v": 100
    },
    {
      "midi": 46,
      "hit": false,
      "t": 167316.77200000104,
      "d": 1.0162583333440125,
      "v": 100
    },
    {
      "midi": 70,
      "hit": false,
      "t": 167316.77200002622,
      "d": 243.90199999985634,
      "v": 100
    },
    {
      "midi": 65,
      "hit": false,
      "t": 167316.77200002622,
      "d": 243.90199999985634,
      "v": 100
    },
    {
      "midi": 62,
      "hit": false,
      "t": 167316.77200002622,
      "d": 243.90199999985634,
      "v": 100
    },
    {
      "midi": 54,
      "hit": false,
      "t": 167438.7230000007,
      "d": 1.0162583333440125,
      "v": 60
    },
    {
      "midi": 77,
      "hit": false,
      "t": 167438.72300000075,
      "d": 121.95100000000093,
      "v": 100
    },
    {
      "midi": 44,
      "hit": false,
      "t": 167438.72300000105,
      "d": 1.0162583333440125,
      "v": 100
    },
    {
      "midi": 79,
      "hit": false,
      "t": 167560.67400000058,
      "d": 243.90200000000186,
      "v": 100
    },
    {
      "midi": 77,
      "hit": false,
      "t": 167560.67400000058,
      "d": 243.90200000000186,
      "v": 100
    },
    {
      "midi": 74,
      "hit": false,
      "t": 167560.67400000058,
      "d": 243.90200000000186,
      "v": 100
    },
    {
      "midi": 54,
      "hit": false,
      "t": 167560.6740000007,
      "d": 1.0162583333440125,
      "v": 60
    },
    {
      "midi": 79,
      "hit": false,
      "t": 167560.67400000073,
      "d": 243.90200000000186,
      "v": 100
    },
    {
      "midi": 74,
      "hit": false,
      "t": 167560.67400000073,
      "d": 243.90200000000186,
      "v": 100
    },
    {
      "midi": 79,
      "hit": false,
      "t": 167560.67400000076,
      "d": 121.95100000000093,
      "v": 100
    },
    {
      "midi": 34,
      "hit": false,
      "t": 167560.67400000076,
      "d": 243.90200000000186,
      "v": 100
    },
    {
      "midi": 40,
      "hit": false,
      "t": 167560.67400000105,
      "d": 1.0162583333440125,
      "v": 40
    },
    {
      "midi": 46,
      "hit": false,
      "t": 167560.67400000105,
      "d": 1.0162583333440125,
      "v": 100
    },
    {
      "midi": 70,
      "hit": false,
      "t": 167560.67400002608,
      "d": 60.975500000000466,
      "v": 100
    },
    {
      "midi": 65,
      "hit": false,
      "t": 167560.67400002608,
      "d": 60.975500000000466,
      "v": 100
    },
    {
      "midi": 62,
      "hit": false,
      "t": 167560.67400002608,
      "d": 60.975500000000466,
      "v": 100
    },
    {
      "midi": 54,
      "hit": false,
      "t": 167682.6250000007,
      "d": 1.0162583333440125,
      "v": 60
    },
    {
      "midi": 79,
      "hit": false,
      "t": 167682.62500000076,
      "d": 121.95100000000093,
      "v": 100
    },
    {
      "midi": 40,
      "hit": false,
      "t": 167682.62500000105,
      "d": 1.0162583333440125,
      "v": 100
    },
    {
      "midi": 44,
      "hit": false,
      "t": 167682.62500000105,
      "d": 1.0162583333440125,
      "v": 100
    },
    {
      "midi": 70,
      "hit": false,
      "t": 167682.62500002608,
      "d": 60.975500000000466,
      "v": 100
    },
    {
      "midi": 65,
      "hit": false,
      "t": 167682.62500002608,
      "d": 60.975500000000466,
      "v": 100
    },
    {
      "midi": 62,
      "hit": false,
      "t": 167682.62500002608,
      "d": 60.975500000000466,
      "v": 100
    },
    {
      "midi": 79,
      "hit": false,
      "t": 167804.576,
      "d": 1951.2159999999858,
      "v": 120
    },
    {
      "midi": 79,
      "hit": false,
      "t": 167804.57600000058,
      "d": 243.90200000000186,
      "v": 100
    },
    {
      "midi": 75,
      "hit": false,
      "t": 167804.57600000058,
      "d": 243.90200000000186,
      "v": 100
    },
    {
      "midi": 70,
      "hit": false,
      "t": 167804.57600000058,
      "d": 243.90200000000186,
      "v": 100
    },
    {
      "midi": 54,
      "hit": false,
      "t": 167804.5760000007,
      "d": 1.0162583333440125,
      "v": 80
    },
    {
      "midi": 77,
      "hit": false,
      "t": 167804.57600000073,
      "d": 243.90200000000186,
      "v": 100
    },
    {
      "midi": 72,
      "hit": false,
      "t": 167804.57600000073,
      "d": 243.90200000000186,
      "v": 100
    },
    {
      "midi": 75,
      "hit": false,
      "t": 167804.57600000076,
      "d": 121.95100000000093,
      "v": 100
    },
    {
      "midi": 27,
      "hit": false,
      "t": 167804.57600000076,
      "d": 243.90200000000186,
      "v": 100
    },
    {
      "midi": 33,
      "hit": false,
      "t": 167804.57600000105,
      "d": 1.0162583333440125,
      "v": 127
    },
    {
      "midi": 42,
      "hit": false,
      "t": 167804.57600000105,
      "d": 1.0162583333440125,
      "v": 100
    },
    {
      "midi": 39,
      "hit": false,
      "t": 167804.57600000303,
      "d": 1219.5100000000093,
      "v": 100
    },
    {
      "midi": 46,
      "hit": false,
      "t": 167804.57600000303,
      "d": 1219.5100000000093,
      "v": 100
    },
    {
      "midi": 67,
      "hit": false,
      "t": 167804.57600002608,
      "d": 487.8040000000037,
      "v": 100
    },
    {
      "midi": 58,
      "hit": false,
      "t": 167804.57600002608,
      "d": 487.8040000000037,
      "v": 100
    },
    {
      "midi": 63,
      "hit": false,
      "t": 167804.57600002608,
      "d": 487.8040000000037,
      "v": 100
    },
    {
      "midi": 54,
      "hit": false,
      "t": 167926.5270000007,
      "d": 1.0162583333440125,
      "v": 60
    },
    {
      "midi": 67,
      "hit": false,
      "t": 167926.527000001,
      "d": 121.95100000000093,
      "v": 100
    },
    {
      "midi": 63,
      "hit": false,
      "t": 167926.527000001,
      "d": 121.95100000000093,
      "v": 100
    },
    {
      "midi": 58,
      "hit": false,
      "t": 167926.527000001,
      "d": 121.95100000000093,
      "v": 100
    },
    {
      "midi": 40,
      "hit": false,
      "t": 167926.52700000105,
      "d": 1.0162583333440125,
      "v": 100
    },
    {
      "midi": 54,
      "hit": false,
      "t": 168048.4780000007,
      "d": 1.0162583333440125,
      "v": 60
    },
    {
      "midi": 75,
      "hit": false,
      "t": 168048.47800000073,
      "d": 121.95100000000093,
      "v": 100
    },
    {
      "midi": 70,
      "hit": false,
      "t": 168048.47800000073,
      "d": 121.95100000000093,
      "v": 100
    },
    {
      "midi": 27,
      "hit": false,
      "t": 168048.47800000076,
      "d": 20.325166666676523,
      "v": 100
    },
    {
      "midi": 67,
      "hit": false,
      "t": 168048.478000001,
      "d": 121.95100000000093,
      "v": 100
    },
    {
      "midi": 63,
      "hit": false,
      "t": 168048.478000001,
      "d": 121.95100000000093,
      "v": 100
    },
    {
      "midi": 58,
      "hit": false,
      "t": 168048.478000001,
      "d": 121.95100000000093,
      "v": 100
    },
    {
      "midi": 46,
      "hit": false,
      "t": 168048.47800000105,
      "d": 1.0162583333440125,
      "v": 100
    },
    {
      "midi": 40,
      "hit": false,
      "t": 168048.47800000105,
      "d": 1.0162583333440125,
      "v": 40
    },
    {
      "midi": 79,
      "hit": false,
      "t": 168170.4290000006,
      "d": 243.90200000000186,
      "v": 100
    },
    {
      "midi": 75,
      "hit": false,
      "t": 168170.4290000006,
      "d": 243.90200000000186,
      "v": 100
    },
    {
      "midi": 70,
      "hit": false,
      "t": 168170.4290000006,
      "d": 243.90200000000186,
      "v": 100
    },
    {
      "midi": 54,
      "hit": false,
      "t": 168170.4290000007,
      "d": 1.0162583333440125,
      "v": 60
    },
    {
      "midi": 75,
      "hit": false,
      "t": 168170.42900000073,
      "d": 975.6080000000075,
      "v": 100
    },
    {
      "midi": 70,
      "hit": false,
      "t": 168170.42900000073,
      "d": 975.6080000000075,
      "v": 100
    },
    {
      "midi": 27,
      "hit": false,
      "t": 168170.42900000076,
      "d": 243.90200000000186,
      "v": 100
    },
    {
      "midi": 44,
      "hit": false,
      "t": 168170.42900000105,
      "d": 1.0162583333440125,
      "v": 100
    },
    {
      "midi": 40,
      "hit": false,
      "t": 168170.42900000105,
      "d": 1.0162583333440125,
      "v": 100
    },
    {
      "midi": 54,
      "hit": false,
      "t": 168292.3800000007,
      "d": 1.0162583333440125,
      "v": 80
    },
    {
      "midi": 67,
      "hit": false,
      "t": 168292.380000001,
      "d": 121.95100000000093,
      "v": 100
    },
    {
      "midi": 63,
      "hit": false,
      "t": 168292.380000001,
      "d": 121.95100000000093,
      "v": 100
    },
    {
      "midi": 58,
      "hit": false,
      "t": 168292.380000001,
      "d": 121.95100000000093,
      "v": 100
    },
    {
      "midi": 33,
      "hit": false,
      "t": 168292.38000000105,
      "d": 1.0162583333440125,
      "v": 127
    },
    {
      "midi": 46,
      "hit": false,
      "t": 168292.38000000105,
      "d": 1.0162583333440125,
      "v": 100
    },
    {
      "midi": 67,
      "hit": false,
      "t": 168292.38000002608,
      "d": 60.97549999988405,
      "v": 100
    },
    {
      "midi": 58,
      "hit": false,
      "t": 168292.38000002608,
      "d": 60.97549999988405,
      "v": 100
    },
    {
      "midi": 63,
      "hit": false,
      "t": 168292.38000002608,
      "d": 60.97549999988405,
      "v": 100
    },
    {
      "midi": 54,
      "hit": false,
      "t": 168414.3310000007,
      "d": 1.0162583333440125,
      "v": 60
    },
    {
      "midi": 27,
      "hit": false,
      "t": 168414.33100000076,
      "d": 20.325166666676523,
      "v": 100
    },
    {
      "midi": 67,
      "hit": false,
      "t": 168414.331000001,
      "d": 121.95100000000093,
      "v": 100
    },
    {
      "midi": 63,
      "hit": false,
      "t": 168414.331000001,
      "d": 121.95100000000093,
      "v": 100
    },
    {
      "midi": 58,
      "hit": false,
      "t": 168414.331000001,
      "d": 121.95100000000093,
      "v": 100
    },
    {
      "midi": 44,
      "hit": false,
      "t": 168414.33100000105,
      "d": 1.0162583333440125,
      "v": 100
    },
    {
      "midi": 67,
      "hit": false,
      "t": 168414.33100002597,
      "d": 60.975500000000466,
      "v": 100
    },
    {
      "midi": 58,
      "hit": false,
      "t": 168414.33100002597,
      "d": 60.975500000000466,
      "v": 100
    },
    {
      "midi": 63,
      "hit": false,
      "t": 168414.33100002597,
      "d": 60.975500000000466,
      "v": 100
    },
    {
      "midi": 79,
      "hit": false,
      "t": 168536.2820000006,
      "d": 243.90200000000186,
      "v": 100
    },
    {
      "midi": 75,
      "hit": false,
      "t": 168536.2820000006,
      "d": 243.90200000000186,
      "v": 100
    },
    {
      "midi": 70,
      "hit": false,
      "t": 168536.2820000006,
      "d": 243.90200000000186,
      "v": 100
    },
    {
      "midi": 54,
      "hit": false,
      "t": 168536.2820000007,
      "d": 1.0162583333440125,
      "v": 60
    },
    {
      "midi": 27,
      "hit": false,
      "t": 168536.28200000076,
      "d": 243.90200000000186,
      "v": 100
    },
    {
      "midi": 46,
      "hit": false,
      "t": 168536.28200000105,
      "d": 1.0162583333440125,
      "v": 100
    },
    {
      "midi": 40,
      "hit": false,
      "t": 168536.28200000105,
      "d": 1.0162583333440125,
      "v": 100
    },
    {
      "midi": 67,
      "hit": false,
      "t": 168536.28200002588,
      "d": 60.975500000000466,
      "v": 100
    },
    {
      "midi": 58,
      "hit": false,
      "t": 168536.28200002588,
      "d": 60.975500000000466,
      "v": 100
    },
    {
      "midi": 63,
      "hit": false,
      "t": 168536.28200002588,
      "d": 60.975500000000466,
      "v": 100
    },
    {
      "midi": 54,
      "hit": false,
      "t": 168658.2330000007,
      "d": 1.0162583333440125,
      "v": 60
    },
    {
      "midi": 67,
      "hit": false,
      "t": 168658.233000001,
      "d": 121.95100000000093,
      "v": 100
    },
    {
      "midi": 63,
      "hit": false,
      "t": 168658.233000001,
      "d": 121.95100000000093,
      "v": 100
    },
    {
      "midi": 58,
      "hit": false,
      "t": 168658.233000001,
      "d": 121.95100000000093,
      "v": 100
    },
    {
      "midi": 44,
      "hit": false,
      "t": 168658.23300000106,
      "d": 1.0162583333440125,
      "v": 100
    },
    {
      "midi": 67,
      "hit": false,
      "t": 168658.23300002588,
      "d": 60.975500000000466,
      "v": 100
    },
    {
      "midi": 58,
      "hit": false,
      "t": 168658.23300002588,
      "d": 60.975500000000466,
      "v": 100
    },
    {
      "midi": 63,
      "hit": false,
      "t": 168658.23300002588,
      "d": 60.975500000000466,
      "v": 100
    },
    {
      "midi": 54,
      "hit": false,
      "t": 168780.1840000007,
      "d": 1.0162583333440125,
      "v": 80
    },
    {
      "midi": 27,
      "hit": false,
      "t": 168780.18400000077,
      "d": 20.325166666676523,
      "v": 100
    },
    {
      "midi": 67,
      "hit": false,
      "t": 168780.184000001,
      "d": 121.95100000000093,
      "v": 100
    },
    {
      "midi": 63,
      "hit": false,
      "t": 168780.184000001,
      "d": 121.95100000000093,
      "v": 100
    },
    {
      "midi": 58,
      "hit": false,
      "t": 168780.184000001,
      "d": 121.95100000000093,
      "v": 100
    },
    {
      "midi": 42,
      "hit": false,
      "t": 168780.18400000106,
      "d": 1.0162583333440125,
      "v": 100
    },
    {
      "midi": 33,
      "hit": false,
      "t": 168780.18400000106,
      "d": 1.0162583333440125,
      "v": 127
    },
    {
      "midi": 67,
      "hit": false,
      "t": 168780.18400002588,
      "d": 60.97549999988405,
      "v": 100
    },
    {
      "midi": 58,
      "hit": false,
      "t": 168780.18400002588,
      "d": 60.97549999988405,
      "v": 100
    },
    {
      "midi": 63,
      "hit": false,
      "t": 168780.18400002588,
      "d": 60.97549999988405,
      "v": 100
    },
    {
      "midi": 79,
      "hit": false,
      "t": 168902.1350000006,
      "d": 243.90200000000186,
      "v": 100
    },
    {
      "midi": 75,
      "hit": false,
      "t": 168902.1350000006,
      "d": 243.90200000000186,
      "v": 100
    },
    {
      "midi": 70,
      "hit": false,
      "t": 168902.1350000006,
      "d": 243.90200000000186,
      "v": 100
    },
    {
      "midi": 54,
      "hit": false,
      "t": 168902.1350000007,
      "d": 1.0162583333440125,
      "v": 60
    },
    {
      "midi": 27,
      "hit": false,
      "t": 168902.13500000077,
      "d": 243.90200000000186,
      "v": 100
    },
    {
      "midi": 40,
      "hit": false,
      "t": 168902.13500000106,
      "d": 1.0162583333440125,
      "v": 100
    },
    {
      "midi": 67,
      "hit": false,
      "t": 168902.13500002577,
      "d": 60.975500000000466,
      "v": 100
    },
    {
      "midi": 58,
      "hit": false,
      "t": 168902.13500002577,
      "d": 60.975500000000466,
      "v": 100
    },
    {
      "midi": 63,
      "hit": false,
      "t": 168902.13500002577,
      "d": 60.975500000000466,
      "v": 100
    },
    {
      "midi": 54,
      "hit": false,
      "t": 169024.0860000007,
      "d": 1.0162583333440125,
      "v": 60
    },
    {
      "midi": 67,
      "hit": false,
      "t": 169024.086000001,
      "d": 121.95100000000093,
      "v": 100
    },
    {
      "midi": 63,
      "hit": false,
      "t": 169024.086000001,
      "d": 121.95100000000093,
      "v": 100
    },
    {
      "midi": 58,
      "hit": false,
      "t": 169024.086000001,
      "d": 121.95100000000093,
      "v": 100
    },
    {
      "midi": 46,
      "hit": false,
      "t": 169024.08600000106,
      "d": 1.0162583333440125,
      "v": 100
    },
    {
      "midi": 55,
      "hit": false,
      "t": 169024.08600000304,
      "d": 731.7060000003839,
      "v": 100
    },
    {
      "midi": 51,
      "hit": false,
      "t": 169024.08600000304,
      "d": 731.7060000003839,
      "v": 100
    },
    {
      "midi": 67,
      "hit": false,
      "t": 169024.08600002568,
      "d": 60.975500000000466,
      "v": 100
    },
    {
      "midi": 58,
      "hit": false,
      "t": 169024.08600002568,
      "d": 60.975500000000466,
      "v": 100
    },
    {
      "midi": 63,
      "hit": false,
      "t": 169024.08600002568,
      "d": 60.975500000000466,
      "v": 100
    },
    {
      "midi": 54,
      "hit": false,
      "t": 169146.0370000007,
      "d": 1.0162583333440125,
      "v": 60
    },
    {
      "midi": 27,
      "hit": false,
      "t": 169146.03700000077,
      "d": 20.325166666676523,
      "v": 100
    },
    {
      "midi": 67,
      "hit": false,
      "t": 169146.037000001,
      "d": 121.95100000000093,
      "v": 100
    },
    {
      "midi": 63,
      "hit": false,
      "t": 169146.037000001,
      "d": 121.95100000000093,
      "v": 100
    },
    {
      "midi": 58,
      "hit": false,
      "t": 169146.037000001,
      "d": 121.95100000000093,
      "v": 100
    },
    {
      "midi": 44,
      "hit": false,
      "t": 169146.03700000106,
      "d": 1.0162583333440125,
      "v": 100
    },
    {
      "midi": 67,
      "hit": false,
      "t": 169146.03700002568,
      "d": 60.975500000000466,
      "v": 100
    },
    {
      "midi": 58,
      "hit": false,
      "t": 169146.03700002568,
      "d": 60.975500000000466,
      "v": 100
    },
    {
      "midi": 63,
      "hit": false,
      "t": 169146.03700002568,
      "d": 60.975500000000466,
      "v": 100
    },
    {
      "midi": 79,
      "hit": false,
      "t": 169267.9880000006,
      "d": 243.90200000000186,
      "v": 100
    },
    {
      "midi": 75,
      "hit": false,
      "t": 169267.9880000006,
      "d": 243.90200000000186,
      "v": 100
    },
    {
      "midi": 70,
      "hit": false,
      "t": 169267.9880000006,
      "d": 243.90200000000186,
      "v": 100
    },
    {
      "midi": 54,
      "hit": false,
      "t": 169267.9880000007,
      "d": 1.0162583333440125,
      "v": 80
    },
    {
      "midi": 79,
      "hit": false,
      "t": 169267.98800000074,
      "d": 243.90200000000186,
      "v": 100
    },
    {
      "midi": 75,
      "hit": false,
      "t": 169267.98800000074,
      "d": 243.90200000000186,
      "v": 100
    },
    {
      "midi": 27,
      "hit": false,
      "t": 169267.98800000077,
      "d": 243.90200000000186,
      "v": 100
    },
    {
      "midi": 40,
      "hit": false,
      "t": 169267.98800000106,
      "d": 1.0162583333440125,
      "v": 100
    },
    {
      "midi": 46,
      "hit": false,
      "t": 169267.98800000106,
      "d": 1.0162583333440125,
      "v": 100
    },
    {
      "midi": 33,
      "hit": false,
      "t": 169267.98800000106,
      "d": 1.0162583333440125,
      "v": 127
    },
    {
      "midi": 57,
      "hit": false,
      "t": 169267.98800000106,
      "d": 1.0162583333440125,
      "v": 100
    },
    {
      "midi": 67,
      "hit": false,
      "t": 169267.98800002568,
      "d": 243.90199999985634,
      "v": 100
    },
    {
      "midi": 58,
      "hit": false,
      "t": 169267.98800002568,
      "d": 243.90199999985634,
      "v": 100
    },
    {
      "midi": 63,
      "hit": false,
      "t": 169267.98800002568,
      "d": 243.90199999985634,
      "v": 100
    },
    {
      "midi": 54,
      "hit": false,
      "t": 169389.9390000007,
      "d": 1.0162583333440125,
      "v": 60
    },
    {
      "midi": 44,
      "hit": false,
      "t": 169389.93900000106,
      "d": 1.0162583333440125,
      "v": 100
    },
    {
      "midi": 79,
      "hit": false,
      "t": 169511.8900000006,
      "d": 243.90200000000186,
      "v": 100
    },
    {
      "midi": 75,
      "hit": false,
      "t": 169511.8900000006,
      "d": 243.90200000000186,
      "v": 100
    },
    {
      "midi": 70,
      "hit": false,
      "t": 169511.8900000006,
      "d": 243.90200000000186,
      "v": 100
    },
    {
      "midi": 54,
      "hit": false,
      "t": 169511.8900000007,
      "d": 1.0162583333440125,
      "v": 60
    },
    {
      "midi": 82,
      "hit": false,
      "t": 169511.89000000074,
      "d": 243.90200000000186,
      "v": 100
    },
    {
      "midi": 79,
      "hit": false,
      "t": 169511.89000000074,
      "d": 243.90200000000186,
      "v": 100
    },
    {
      "midi": 27,
      "hit": false,
      "t": 169511.89000000077,
      "d": 243.90200000000186,
      "v": 100
    },
    {
      "midi": 40,
      "hit": false,
      "t": 169511.89000000106,
      "d": 1.0162583333440125,
      "v": 100
    },
    {
      "midi": 46,
      "hit": false,
      "t": 169511.89000000106,
      "d": 1.0162583333440125,
      "v": 100
    },
    {
      "midi": 67,
      "hit": false,
      "t": 169511.89000002554,
      "d": 60.975500000000466,
      "v": 100
    },
    {
      "midi": 58,
      "hit": false,
      "t": 169511.89000002554,
      "d": 60.975500000000466,
      "v": 100
    },
    {
      "midi": 63,
      "hit": false,
      "t": 169511.89000002554,
      "d": 60.975500000000466,
      "v": 100
    },
    {
      "midi": 54,
      "hit": false,
      "t": 169633.8410000007,
      "d": 1.0162583333440125,
      "v": 60
    },
    {
      "midi": 40,
      "hit": false,
      "t": 169633.84100000106,
      "d": 1.0162583333440125,
      "v": 100
    },
    {
      "midi": 44,
      "hit": false,
      "t": 169633.84100000106,
      "d": 1.0162583333440125,
      "v": 100
    },
    {
      "midi": 67,
      "hit": false,
      "t": 169633.84100002554,
      "d": 60.975500000000466,
      "v": 100
    },
    {
      "midi": 58,
      "hit": false,
      "t": 169633.84100002554,
      "d": 60.975500000000466,
      "v": 100
    },
    {
      "midi": 63,
      "hit": false,
      "t": 169633.84100002554,
      "d": 60.975500000000466,
      "v": 100
    },
    {
      "midi": 84,
      "hit": false,
      "t": 169755.7920000006,
      "d": 243.90200000000186,
      "v": 100
    },
    {
      "midi": 79,
      "hit": false,
      "t": 169755.7920000006,
      "d": 243.90200000000186,
      "v": 100
    },
    {
      "midi": 75,
      "hit": false,
      "t": 169755.7920000006,
      "d": 243.90200000000186,
      "v": 100
    },
    {
      "midi": 54,
      "hit": false,
      "t": 169755.7920000007,
      "d": 1.0162583333440125,
      "v": 80
    },
    {
      "midi": 84,
      "hit": false,
      "t": 169755.79200000074,
      "d": 243.90200000000186,
      "v": 100
    },
    {
      "midi": 79,
      "hit": false,
      "t": 169755.79200000074,
      "d": 243.90200000000186,
      "v": 100
    },
    {
      "midi": 72,
      "hit": false,
      "t": 169755.79200000077,
      "d": 121.95100000000093,
      "v": 100
    },
    {
      "midi": 36,
      "hit": false,
      "t": 169755.79200000077,
      "d": 243.90200000000186,
      "v": 100
    },
    {
      "midi": 33,
      "hit": false,
      "t": 169755.79200000106,
      "d": 1.0162583333440125,
      "v": 127
    },
    {
      "midi": 42,
      "hit": false,
      "t": 169755.79200000106,
      "d": 1.0162583333440125,
      "v": 100
    },
    {
      "midi": 57,
      "hit": false,
      "t": 169755.79200000106,
      "d": 1.0162583333440125,
      "v": 100
    },
    {
      "midi": 48,
      "hit": false,
      "t": 169755.79200000342,
      "d": 975.6080000000075,
      "v": 100
    },
    {
      "midi": 55,
      "hit": false,
      "t": 169755.79200000342,
      "d": 975.6080000000075,
      "v": 100
    },
    {
      "midi": 72,
      "hit": false,
      "t": 169755.79200002554,
      "d": 487.8040000000037,
      "v": 100
    },
    {
      "midi": 67,
      "hit": false,
      "t": 169755.79200002554,
      "d": 487.8040000000037,
      "v": 100
    },
    {
      "midi": 63,
      "hit": false,
      "t": 169755.79200002554,
      "d": 487.8040000000037,
      "v": 100
    },
    {
      "midi": 54,
      "hit": false,
      "t": 169877.74300000072,
      "d": 1.0162583333440125,
      "v": 60
    },
    {
      "midi": 72,
      "hit": false,
      "t": 169877.74300000077,
      "d": 121.95100000000093,
      "v": 100
    },
    {
      "midi": 72,
      "hit": false,
      "t": 169877.743000001,
      "d": 121.95100000000093,
      "v": 100
    },
    {
      "midi": 67,
      "hit": false,
      "t": 169877.743000001,
      "d": 121.95100000000093,
      "v": 100
    },
    {
      "midi": 63,
      "hit": false,
      "t": 169877.743000001,
      "d": 121.95100000000093,
      "v": 100
    },
    {
      "midi": 54,
      "hit": false,
      "t": 169999.69400000072,
      "d": 1.0162583333440125,
      "v": 60
    },
    {
      "midi": 79,
      "hit": false,
      "t": 169999.69400000077,
      "d": 121.95100000000093,
      "v": 100
    },
    {
      "midi": 36,
      "hit": false,
      "t": 169999.69400000077,
      "d": 243.90200000000186,
      "v": 100
    },
    {
      "midi": 72,
      "hit": false,
      "t": 169999.694000001,
      "d": 121.95100000000093,
      "v": 100
    },
    {
      "midi": 67,
      "hit": false,
      "t": 169999.694000001,
      "d": 121.95100000000093,
      "v": 100
    },
    {
      "midi": 63,
      "hit": false,
      "t": 169999.694000001,
      "d": 121.95100000000093,
      "v": 100
    },
    {
      "midi": 46,
      "hit": false,
      "t": 169999.69400000107,
      "d": 1.0162583333440125,
      "v": 100
    },
    {
      "midi": 54,
      "hit": false,
      "t": 170121.64500000072,
      "d": 1.0162583333440125,
      "v": 60
    },
    {
      "midi": 79,
      "hit": false,
      "t": 170121.64500000078,
      "d": 121.95100000000093,
      "v": 100
    },
    {
      "midi": 44,
      "hit": false,
      "t": 170121.64500000107,
      "d": 1.0162583333440125,
      "v": 100
    },
    {
      "midi": 84,
      "hit": false,
      "t": 170243.5960000006,
      "d": 243.90200000000186,
      "v": 100
    },
    {
      "midi": 79,
      "hit": false,
      "t": 170243.5960000006,
      "d": 243.90200000000186,
      "v": 100
    },
    {
      "midi": 75,
      "hit": false,
      "t": 170243.5960000006,
      "d": 243.90200000000186,
      "v": 100
    },
    {
      "midi": 54,
      "hit": false,
      "t": 170243.59600000072,
      "d": 1.0162583333440125,
      "v": 80
    },
    {
      "midi": 84,
      "hit": false,
      "t": 170243.59600000075,
      "d": 243.90200000000186,
      "v": 100
    },
    {
      "midi": 79,
      "hit": false,
      "t": 170243.59600000075,
      "d": 243.90200000000186,
      "v": 100
    },
    {
      "midi": 75,
      "hit": false,
      "t": 170243.59600000078,
      "d": 121.95100000000093,
      "v": 100
    },
    {
      "midi": 36,
      "hit": false,
      "t": 170243.59600000078,
      "d": 243.90200000000186,
      "v": 100
    },
    {
      "midi": 72,
      "hit": false,
      "t": 170243.596000001,
      "d": 121.95100000000093,
      "v": 100
    },
    {
      "midi": 67,
      "hit": false,
      "t": 170243.596000001,
      "d": 121.95100000000093,
      "v": 100
    },
    {
      "midi": 63,
      "hit": false,
      "t": 170243.596000001,
      "d": 121.95100000000093,
      "v": 100
    },
    {
      "midi": 33,
      "hit": false,
      "t": 170243.59600000107,
      "d": 1.0162583333440125,
      "v": 127
    },
    {
      "midi": 40,
      "hit": false,
      "t": 170243.59600000107,
      "d": 1.0162583333440125,
      "v": 100
    },
    {
      "midi": 46,
      "hit": false,
      "t": 170243.59600000107,
      "d": 1.0162583333440125,
      "v": 100
    },
    {
      "midi": 72,
      "hit": false,
      "t": 170243.59600002554,
      "d": 60.97549999988405,
      "v": 100
    },
    {
      "midi": 67,
      "hit": false,
      "t": 170243.59600002554,
      "d": 60.97549999988405,
      "v": 100
    },
    {
      "midi": 63,
      "hit": false,
      "t": 170243.59600002554,
      "d": 60.97549999988405,
      "v": 100
    },
    {
      "midi": 54,
      "hit": false,
      "t": 170365.54700000072,
      "d": 1.0162583333440125,
      "v": 60
    },
    {
      "midi": 75,
      "hit": false,
      "t": 170365.54700000078,
      "d": 121.95100000000093,
      "v": 100
    },
    {
      "midi": 44,
      "hit": false,
      "t": 170365.54700000107,
      "d": 1.0162583333440125,
      "v": 100
    },
    {
      "midi": 72,
      "hit": false,
      "t": 170365.54700002543,
      "d": 60.975500000000466,
      "v": 100
    },
    {
      "midi": 67,
      "hit": false,
      "t": 170365.54700002543,
      "d": 60.975500000000466,
      "v": 100
    },
    {
      "midi": 63,
      "hit": false,
      "t": 170365.54700002543,
      "d": 60.975500000000466,
      "v": 100
    },
    {
      "midi": 84,
      "hit": false,
      "t": 170487.4980000006,
      "d": 30.487750000000233,
      "v": 100
    },
    {
      "midi": 79,
      "hit": false,
      "t": 170487.4980000006,
      "d": 30.487750000000233,
      "v": 100
    },
    {
      "midi": 54,
      "hit": false,
      "t": 170487.49800000072,
      "d": 1.0162583333440125,
      "v": 60
    },
    {
      "midi": 87,
      "hit": false,
      "t": 170487.49800000075,
      "d": 121.95100000000093,
      "v": 100
    },
    {
      "midi": 82,
      "hit": false,
      "t": 170487.49800000075,
      "d": 121.95100000000093,
      "v": 100
    },
    {
      "midi": 82,
      "hit": false,
      "t": 170487.49800000078,
      "d": 121.95100000000093,
      "v": 100
    },
    {
      "midi": 36,
      "hit": false,
      "t": 170487.49800000078,
      "d": 60.975500000000466,
      "v": 100
    },
    {
      "midi": 72,
      "hit": false,
      "t": 170487.498000001,
      "d": 121.95100000000093,
      "v": 100
    },
    {
      "midi": 67,
      "hit": false,
      "t": 170487.498000001,
      "d": 121.95100000000093,
      "v": 100
    },
    {
      "midi": 63,
      "hit": false,
      "t": 170487.498000001,
      "d": 121.95100000000093,
      "v": 100
    },
    {
      "midi": 46,
      "hit": false,
      "t": 170487.49800000107,
      "d": 1.0162583333440125,
      "v": 100
    },
    {
      "midi": 72,
      "hit": false,
      "t": 170487.49800002534,
      "d": 60.975500000000466,
      "v": 100
    },
    {
      "midi": 67,
      "hit": false,
      "t": 170487.49800002534,
      "d": 60.975500000000466,
      "v": 100
    },
    {
      "midi": 63,
      "hit": false,
      "t": 170487.49800002534,
      "d": 60.975500000000466,
      "v": 100
    },
    {
      "midi": 84,
      "hit": false,
      "t": 170609.4490000006,
      "d": 243.90200000000186,
      "v": 100
    },
    {
      "midi": 80,
      "hit": false,
      "t": 170609.4490000006,
      "d": 243.90200000000186,
      "v": 100
    },
    {
      "midi": 75,
      "hit": false,
      "t": 170609.4490000006,
      "d": 243.90200000000186,
      "v": 100
    },
    {
      "midi": 54,
      "hit": false,
      "t": 170609.44900000072,
      "d": 1.0162583333440125,
      "v": 60
    },
    {
      "midi": 84,
      "hit": false,
      "t": 170609.44900000075,
      "d": 365.8530000000028,
      "v": 100
    },
    {
      "midi": 80,
      "hit": false,
      "t": 170609.44900000075,
      "d": 365.8530000000028,
      "v": 100
    },
    {
      "midi": 82,
      "hit": false,
      "t": 170609.44900000078,
      "d": 121.95100000000093,
      "v": 100
    },
    {
      "midi": 32,
      "hit": false,
      "t": 170609.44900000078,
      "d": 243.90200000000186,
      "v": 100
    },
    {
      "midi": 44,
      "hit": false,
      "t": 170609.44900000107,
      "d": 1.0162583333440125,
      "v": 100
    },
    {
      "midi": 72,
      "hit": false,
      "t": 170609.44900002534,
      "d": 60.975500000000466,
      "v": 100
    },
    {
      "midi": 67,
      "hit": false,
      "t": 170609.44900002534,
      "d": 60.975500000000466,
      "v": 100
    },
    {
      "midi": 63,
      "hit": false,
      "t": 170609.44900002534,
      "d": 60.975500000000466,
      "v": 100
    },
    {
      "midi": 54,
      "hit": false,
      "t": 170731.40000000072,
      "d": 1.0162583333440125,
      "v": 80
    },
    {
      "midi": 84,
      "hit": false,
      "t": 170731.40000000078,
      "d": 121.95100000000093,
      "v": 100
    },
    {
      "midi": 68,
      "hit": false,
      "t": 170731.400000001,
      "d": 121.95100000000093,
      "v": 100
    },
    {
      "midi": 63,
      "hit": false,
      "t": 170731.400000001,
      "d": 121.95100000000093,
      "v": 100
    },
    {
      "midi": 60,
      "hit": false,
      "t": 170731.400000001,
      "d": 121.95100000000093,
      "v": 100
    },
    {
      "midi": 33,
      "hit": false,
      "t": 170731.40000000107,
      "d": 1.0162583333440125,
      "v": 127
    },
    {
      "midi": 42,
      "hit": false,
      "t": 170731.40000000107,
      "d": 1.0162583333440125,
      "v": 100
    },
    {
      "midi": 44,
      "hit": false,
      "t": 170731.40000000343,
      "d": 975.6080000000075,
      "v": 100
    },
    {
      "midi": 51,
      "hit": false,
      "t": 170731.40000000343,
      "d": 975.6080000000075,
      "v": 100
    },
    {
      "midi": 68,
      "hit": false,
      "t": 170731.40000002534,
      "d": 60.97549999988405,
      "v": 100
    },
    {
      "midi": 63,
      "hit": false,
      "t": 170731.40000002534,
      "d": 60.97549999988405,
      "v": 100
    },
    {
      "midi": 60,
      "hit": false,
      "t": 170731.40000002534,
      "d": 60.97549999988405,
      "v": 100
    },
    {
      "midi": 84,
      "hit": false,
      "t": 170853.3510000006,
      "d": 121.95100000000093,
      "v": 100
    },
    {
      "midi": 80,
      "hit": false,
      "t": 170853.3510000006,
      "d": 121.95100000000093,
      "v": 100
    },
    {
      "midi": 75,
      "hit": false,
      "t": 170853.3510000006,
      "d": 121.95100000000093,
      "v": 100
    },
    {
      "midi": 54,
      "hit": false,
      "t": 170853.35100000072,
      "d": 1.0162583333440125,
      "v": 60
    },
    {
      "midi": 84,
      "hit": false,
      "t": 170853.35100000078,
      "d": 121.95100000000093,
      "v": 100
    },
    {
      "midi": 32,
      "hit": false,
      "t": 170853.35100000078,
      "d": 121.95100000000093,
      "v": 100
    },
    {
      "midi": 68,
      "hit": false,
      "t": 170853.351000001,
      "d": 121.95100000000093,
      "v": 100
    },
    {
      "midi": 63,
      "hit": false,
      "t": 170853.351000001,
      "d": 121.95100000000093,
      "v": 100
    },
    {
      "midi": 60,
      "hit": false,
      "t": 170853.351000001,
      "d": 121.95100000000093,
      "v": 100
    },
    {
      "midi": 68,
      "hit": false,
      "t": 170853.35100002523,
      "d": 60.975500000000466,
      "v": 100
    },
    {
      "midi": 63,
      "hit": false,
      "t": 170853.35100002523,
      "d": 60.975500000000466,
      "v": 100
    },
    {
      "midi": 60,
      "hit": false,
      "t": 170853.35100002523,
      "d": 60.975500000000466,
      "v": 100
    },
    {
      "midi": 84,
      "hit": false,
      "t": 170975.3020000006,
      "d": 243.90200000000186,
      "v": 100
    },
    {
      "midi": 80,
      "hit": false,
      "t": 170975.3020000006,
      "d": 243.90200000000186,
      "v": 100
    },
    {
      "midi": 75,
      "hit": false,
      "t": 170975.3020000006,
      "d": 243.90200000000186,
      "v": 100
    },
    {
      "midi": 54,
      "hit": false,
      "t": 170975.30200000072,
      "d": 1.0162583333440125,
      "v": 60
    },
    {
      "midi": 80,
      "hit": false,
      "t": 170975.30200000078,
      "d": 121.95100000000093,
      "v": 100
    },
    {
      "midi": 32,
      "hit": false,
      "t": 170975.30200000078,
      "d": 243.90200000000186,
      "v": 100
    },
    {
      "midi": 46,
      "hit": false,
      "t": 170975.30200000107,
      "d": 1.0162583333440125,
      "v": 100
    },
    {
      "midi": 68,
      "hit": false,
      "t": 170975.30200002514,
      "d": 60.975500000000466,
      "v": 100
    },
    {
      "midi": 63,
      "hit": false,
      "t": 170975.30200002514,
      "d": 60.975500000000466,
      "v": 100
    },
    {
      "midi": 60,
      "hit": false,
      "t": 170975.30200002514,
      "d": 60.975500000000466,
      "v": 100
    },
    {
      "midi": 54,
      "hit": false,
      "t": 171097.25300000072,
      "d": 1.0162583333440125,
      "v": 60
    },
    {
      "midi": 80,
      "hit": false,
      "t": 171097.25300000078,
      "d": 121.95100000000093,
      "v": 100
    },
    {
      "midi": 68,
      "hit": false,
      "t": 171097.25300000102,
      "d": 121.95100000000093,
      "v": 100
    },
    {
      "midi": 63,
      "hit": false,
      "t": 171097.25300000102,
      "d": 121.95100000000093,
      "v": 100
    },
    {
      "midi": 60,
      "hit": false,
      "t": 171097.25300000102,
      "d": 121.95100000000093,
      "v": 100
    },
    {
      "midi": 44,
      "hit": false,
      "t": 171097.25300000107,
      "d": 1.0162583333440125,
      "v": 100
    },
    {
      "midi": 68,
      "hit": false,
      "t": 171097.25300002514,
      "d": 60.975500000000466,
      "v": 100
    },
    {
      "midi": 63,
      "hit": false,
      "t": 171097.25300002514,
      "d": 60.975500000000466,
      "v": 100
    },
    {
      "midi": 60,
      "hit": false,
      "t": 171097.25300002514,
      "d": 60.975500000000466,
      "v": 100
    },
    {
      "midi": 84,
      "hit": false,
      "t": 171219.2040000006,
      "d": 243.90200000000186,
      "v": 100
    },
    {
      "midi": 80,
      "hit": false,
      "t": 171219.2040000006,
      "d": 243.90200000000186,
      "v": 100
    },
    {
      "midi": 75,
      "hit": false,
      "t": 171219.2040000006,
      "d": 243.90200000000186,
      "v": 100
    },
    {
      "midi": 54,
      "hit": false,
      "t": 171219.20400000073,
      "d": 1.0162583333440125,
      "v": 80
    },
    {
      "midi": 84,
      "hit": false,
      "t": 171219.20400000075,
      "d": 243.90200000000186,
      "v": 100
    },
    {
      "midi": 82,
      "hit": false,
      "t": 171219.20400000075,
      "d": 243.90200000000186,
      "v": 100
    },
    {
      "midi": 75,
      "hit": false,
      "t": 171219.20400000078,
      "d": 121.95100000000093,
      "v": 100
    },
    {
      "midi": 32,
      "hit": false,
      "t": 171219.20400000078,
      "d": 243.90200000000186,
      "v": 100
    },
    {
      "midi": 33,
      "hit": false,
      "t": 171219.20400000107,
      "d": 1.0162583333440125,
      "v": 127
    },
    {
      "midi": 40,
      "hit": false,
      "t": 171219.20400000107,
      "d": 1.0162583333440125,
      "v": 100
    },
    {
      "midi": 46,
      "hit": false,
      "t": 171219.20400000107,
      "d": 1.0162583333440125,
      "v": 100
    },
    {
      "midi": 68,
      "hit": false,
      "t": 171219.20400002514,
      "d": 243.90199999985634,
      "v": 100
    },
    {
      "midi": 63,
      "hit": false,
      "t": 171219.20400002514,
      "d": 243.90199999985634,
      "v": 100
    },
    {
      "midi": 60,
      "hit": false,
      "t": 171219.20400002514,
      "d": 243.90199999985634,
      "v": 100
    },
    {
      "midi": 54,
      "hit": false,
      "t": 171341.15500000073,
      "d": 1.0162583333440125,
      "v": 60
    },
    {
      "midi": 75,
      "hit": false,
      "t": 171341.15500000078,
      "d": 121.95100000000093,
      "v": 100
    },
    {
      "midi": 44,
      "hit": false,
      "t": 171341.15500000108,
      "d": 1.0162583333440125,
      "v": 100
    },
    {
      "midi": 84,
      "hit": false,
      "t": 171463.1060000006,
      "d": 243.90200000000186,
      "v": 100
    },
    {
      "midi": 80,
      "hit": false,
      "t": 171463.1060000006,
      "d": 243.90200000000186,
      "v": 100
    },
    {
      "midi": 75,
      "hit": false,
      "t": 171463.1060000006,
      "d": 243.90200000000186,
      "v": 100
    },
    {
      "midi": 54,
      "hit": false,
      "t": 171463.10600000073,
      "d": 1.0162583333440125,
      "v": 60
    },
    {
      "midi": 87,
      "hit": false,
      "t": 171463.10600000076,
      "d": 243.90200000000186,
      "v": 100
    },
    {
      "midi": 84,
      "hit": false,
      "t": 171463.10600000076,
      "d": 243.90200000000186,
      "v": 100
    },
    {
      "midi": 72,
      "hit": false,
      "t": 171463.1060000008,
      "d": 121.95100000000093,
      "v": 100
    },
    {
      "midi": 32,
      "hit": false,
      "t": 171463.1060000008,
      "d": 243.90200000000186,
      "v": 100
    },
    {
      "midi": 40,
      "hit": false,
      "t": 171463.10600000108,
      "d": 1.0162583333440125,
      "v": 40
    },
    {
      "midi": 46,
      "hit": false,
      "t": 171463.10600000108,
      "d": 1.0162583333440125,
      "v": 100
    },
    {
      "midi": 68,
      "hit": false,
      "t": 171463.106000025,
      "d": 60.975500000000466,
      "v": 100
    },
    {
      "midi": 63,
      "hit": false,
      "t": 171463.106000025,
      "d": 60.975500000000466,
      "v": 100
    },
    {
      "midi": 60,
      "hit": false,
      "t": 171463.106000025,
      "d": 60.975500000000466,
      "v": 100
    },
    {
      "midi": 54,
      "hit": false,
      "t": 171585.05700000073,
      "d": 1.0162583333440125,
      "v": 60
    },
    {
      "midi": 72,
      "hit": false,
      "t": 171585.0570000008,
      "d": 121.95100000000093,
      "v": 100
    },
    {
      "midi": 40,
      "hit": false,
      "t": 171585.05700000108,
      "d": 1.0162583333440125,
      "v": 100
    },
    {
      "midi": 44,
      "hit": false,
      "t": 171585.05700000108,
      "d": 1.0162583333440125,
      "v": 100
    },
    {
      "midi": 68,
      "hit": false,
      "t": 171585.057000025,
      "d": 60.975500000000466,
      "v": 100
    },
    {
      "midi": 63,
      "hit": false,
      "t": 171585.057000025,
      "d": 60.975500000000466,
      "v": 100
    },
    {
      "midi": 60,
      "hit": false,
      "t": 171585.057000025,
      "d": 60.975500000000466,
      "v": 100
    },
    {
      "midi": 86,
      "hit": false,
      "t": 171707.0080000006,
      "d": 243.90200000000186,
      "v": 100
    },
    {
      "midi": 82,
      "hit": false,
      "t": 171707.0080000006,
      "d": 243.90200000000186,
      "v": 100
    },
    {
      "midi": 77,
      "hit": false,
      "t": 171707.0080000006,
      "d": 243.90200000000186,
      "v": 100
    },
    {
      "midi": 54,
      "hit": false,
      "t": 171707.00800000073,
      "d": 1.0162583333440125,
      "v": 80
    },
    {
      "midi": 86,
      "hit": false,
      "t": 171707.00800000076,
      "d": 243.90200000000186,
      "v": 100
    },
    {
      "midi": 82,
      "hit": false,
      "t": 171707.00800000076,
      "d": 243.90200000000186,
      "v": 100
    },
    {
      "midi": 70,
      "hit": false,
      "t": 171707.0080000008,
      "d": 121.95100000000093,
      "v": 100
    },
    {
      "midi": 34,
      "hit": false,
      "t": 171707.0080000008,
      "d": 243.90200000000186,
      "v": 100
    },
    {
      "midi": 33,
      "hit": false,
      "t": 171707.00800000108,
      "d": 1.0162583333440125,
      "v": 127
    },
    {
      "midi": 42,
      "hit": false,
      "t": 171707.00800000108,
      "d": 1.0162583333440125,
      "v": 100
    },
    {
      "midi": 46,
      "hit": false,
      "t": 171707.00800000344,
      "d": 975.6080000000075,
      "v": 100
    },
    {
      "midi": 53,
      "hit": false,
      "t": 171707.00800000344,
      "d": 975.6080000000075,
      "v": 100
    },
    {
      "midi": 70,
      "hit": false,
      "t": 171707.008000025,
      "d": 487.8040000000037,
      "v": 100
    },
    {
      "midi": 65,
      "hit": false,
      "t": 171707.008000025,
      "d": 487.8040000000037,
      "v": 100
    },
    {
      "midi": 62,
      "hit": false,
      "t": 171707.008000025,
      "d": 487.8040000000037,
      "v": 100
    },
    {
      "midi": 54,
      "hit": false,
      "t": 171828.95900000073,
      "d": 1.0162583333440125,
      "v": 60
    },
    {
      "midi": 70,
      "hit": false,
      "t": 171828.9590000008,
      "d": 121.95100000000093,
      "v": 100
    },
    {
      "midi": 70,
      "hit": false,
      "t": 171828.95900000102,
      "d": 121.95100000000093,
      "v": 100
    },
    {
      "midi": 65,
      "hit": false,
      "t": 171828.95900000102,
      "d": 121.95100000000093,
      "v": 100
    },
    {
      "midi": 62,
      "hit": false,
      "t": 171828.95900000102,
      "d": 121.95100000000093,
      "v": 100
    },
    {
      "midi": 54,
      "hit": false,
      "t": 171950.91000000073,
      "d": 1.0162583333440125,
      "v": 60
    },
    {
      "midi": 82,
      "hit": false,
      "t": 171950.91000000076,
      "d": 121.95100000000093,
      "v": 100
    },
    {
      "midi": 79,
      "hit": false,
      "t": 171950.91000000076,
      "d": 121.95100000000093,
      "v": 100
    },
    {
      "midi": 74,
      "hit": false,
      "t": 171950.9100000008,
      "d": 121.95100000000093,
      "v": 100
    },
    {
      "midi": 34,
      "hit": false,
      "t": 171950.9100000008,
      "d": 243.90200000000186,
      "v": 100
    },
    {
      "midi": 70,
      "hit": false,
      "t": 171950.91000000102,
      "d": 121.95100000000093,
      "v": 100
    },
    {
      "midi": 65,
      "hit": false,
      "t": 171950.91000000102,
      "d": 121.95100000000093,
      "v": 100
    },
    {
      "midi": 62,
      "hit": false,
      "t": 171950.91000000102,
      "d": 121.95100000000093,
      "v": 100
    },
    {
      "midi": 46,
      "hit": false,
      "t": 171950.91000000108,
      "d": 1.0162583333440125,
      "v": 100
    },
    {
      "midi": 54,
      "hit": false,
      "t": 172072.86100000073,
      "d": 1.0162583333440125,
      "v": 60
    },
    {
      "midi": 74,
      "hit": false,
      "t": 172072.8610000008,
      "d": 121.95100000000093,
      "v": 100
    },
    {
      "midi": 44,
      "hit": false,
      "t": 172072.86100000108,
      "d": 1.0162583333440125,
      "v": 100
    },
    {
      "midi": 82,
      "hit": false,
      "t": 172194.81200000062,
      "d": 243.90200000000186,
      "v": 100
    },
    {
      "midi": 77,
      "hit": false,
      "t": 172194.81200000062,
      "d": 243.90200000000186,
      "v": 100
    },
    {
      "midi": 54,
      "hit": false,
      "t": 172194.81200000073,
      "d": 1.0162583333440125,
      "v": 80
    },
    {
      "midi": 82,
      "hit": false,
      "t": 172194.81200000076,
      "d": 243.90200000000186,
      "v": 100
    },
    {
      "midi": 79,
      "hit": false,
      "t": 172194.81200000076,
      "d": 243.90200000000186,
      "v": 100
    },
    {
      "midi": 70,
      "hit": false,
      "t": 172194.8120000008,
      "d": 121.95100000000093,
      "v": 100
    },
    {
      "midi": 34,
      "hit": false,
      "t": 172194.8120000008,
      "d": 243.90200000000186,
      "v": 100
    },
    {
      "midi": 70,
      "hit": false,
      "t": 172194.81200000102,
      "d": 121.95100000000093,
      "v": 100
    },
    {
      "midi": 65,
      "hit": false,
      "t": 172194.81200000102,
      "d": 121.95100000000093,
      "v": 100
    },
    {
      "midi": 62,
      "hit": false,
      "t": 172194.81200000102,
      "d": 121.95100000000093,
      "v": 100
    },
    {
      "midi": 33,
      "hit": false,
      "t": 172194.81200000108,
      "d": 1.0162583333440125,
      "v": 127
    },
    {
      "midi": 40,
      "hit": false,
      "t": 172194.81200000108,
      "d": 1.0162583333440125,
      "v": 100
    },
    {
      "midi": 46,
      "hit": false,
      "t": 172194.81200000108,
      "d": 1.0162583333440125,
      "v": 100
    },
    {
      "midi": 70,
      "hit": false,
      "t": 172194.812000025,
      "d": 60.97549999988405,
      "v": 100
    },
    {
      "midi": 65,
      "hit": false,
      "t": 172194.812000025,
      "d": 60.97549999988405,
      "v": 100
    },
    {
      "midi": 62,
      "hit": false,
      "t": 172194.812000025,
      "d": 60.97549999988405,
      "v": 100
    },
    {
      "midi": 54,
      "hit": false,
      "t": 172316.76300000073,
      "d": 1.0162583333440125,
      "v": 60
    },
    {
      "midi": 70,
      "hit": false,
      "t": 172316.7630000008,
      "d": 121.95100000000093,
      "v": 100
    },
    {
      "midi": 44,
      "hit": false,
      "t": 172316.76300000108,
      "d": 1.0162583333440125,
      "v": 100
    },
    {
      "midi": 70,
      "hit": false,
      "t": 172316.7630000249,
      "d": 60.975500000000466,
      "v": 100
    },
    {
      "midi": 65,
      "hit": false,
      "t": 172316.7630000249,
      "d": 60.975500000000466,
      "v": 100
    },
    {
      "midi": 62,
      "hit": false,
      "t": 172316.7630000249,
      "d": 60.975500000000466,
      "v": 100
    },
    {
      "midi": 77,
      "hit": false,
      "t": 172438.71400000062,
      "d": 40.65033333332394,
      "v": 100
    },
    {
      "midi": 82,
      "hit": false,
      "t": 172438.71400000062,
      "d": 40.65033333332394,
      "v": 100
    },
    {
      "midi": 54,
      "hit": false,
      "t": 172438.71400000073,
      "d": 1.0162583333440125,
      "v": 60
    },
    {
      "midi": 79,
      "hit": false,
      "t": 172438.71400000076,
      "d": 121.95100000000093,
      "v": 100
    },
    {
      "midi": 75,
      "hit": false,
      "t": 172438.71400000076,
      "d": 121.95100000000093,
      "v": 100
    },
    {
      "midi": 79,
      "hit": false,
      "t": 172438.7140000008,
      "d": 121.95100000000093,
      "v": 100
    },
    {
      "midi": 34,
      "hit": false,
      "t": 172438.7140000008,
      "d": 71.13808333332418,
      "v": 100
    },
    {
      "midi": 70,
      "hit": false,
      "t": 172438.71400000103,
      "d": 121.95100000000093,
      "v": 100
    },
    {
      "midi": 65,
      "hit": false,
      "t": 172438.71400000103,
      "d": 121.95100000000093,
      "v": 100
    },
    {
      "midi": 62,
      "hit": false,
      "t": 172438.71400000103,
      "d": 121.95100000000093,
      "v": 100
    },
    {
      "midi": 46,
      "hit": false,
      "t": 172438.71400000108,
      "d": 1.0162583333440125,
      "v": 100
    },
    {
      "midi": 70,
      "hit": false,
      "t": 172438.7140000248,
      "d": 60.975500000000466,
      "v": 100
    },
    {
      "midi": 65,
      "hit": false,
      "t": 172438.7140000248,
      "d": 60.975500000000466,
      "v": 100
    },
    {
      "midi": 62,
      "hit": false,
      "t": 172438.7140000248,
      "d": 60.975500000000466,
      "v": 100
    },
    {
      "midi": 82,
      "hit": false,
      "t": 172560.66500000062,
      "d": 243.90200000000186,
      "v": 100
    },
    {
      "midi": 77,
      "hit": false,
      "t": 172560.66500000062,
      "d": 243.90200000000186,
      "v": 100
    },
    {
      "midi": 74,
      "hit": false,
      "t": 172560.66500000062,
      "d": 325.20266666667885,
      "v": 100
    },
    {
      "midi": 54,
      "hit": false,
      "t": 172560.66500000074,
      "d": 1.0162583333440125,
      "v": 60
    },
    {
      "midi": 82,
      "hit": false,
      "t": 172560.66500000076,
      "d": 487.8040000000037,
      "v": 100
    },
    {
      "midi": 79,
      "hit": false,
      "t": 172560.66500000076,
      "d": 487.8040000000037,
      "v": 100
    },
    {
      "midi": 79,
      "hit": false,
      "t": 172560.6650000008,
      "d": 121.95100000000093,
      "v": 100
    },
    {
      "midi": 31,
      "hit": false,
      "t": 172560.6650000008,
      "d": 243.90200000000186,
      "v": 100
    },
    {
      "midi": 44,
      "hit": false,
      "t": 172560.66500000108,
      "d": 1.0162583333440125,
      "v": 100
    },
    {
      "midi": 70,
      "hit": false,
      "t": 172560.6650000248,
      "d": 60.975500000000466,
      "v": 100
    },
    {
      "midi": 65,
      "hit": false,
      "t": 172560.6650000248,
      "d": 60.975500000000466,
      "v": 100
    },
    {
      "midi": 62,
      "hit": false,
      "t": 172560.6650000248,
      "d": 60.975500000000466,
      "v": 100
    },
    {
      "midi": 54,
      "hit": false,
      "t": 172682.61600000074,
      "d": 1.0162583333440125,
      "v": 80
    },
    {
      "midi": 79,
      "hit": false,
      "t": 172682.6160000008,
      "d": 121.95100000000093,
      "v": 100
    },
    {
      "midi": 67,
      "hit": false,
      "t": 172682.61600000103,
      "d": 121.95100000000093,
      "v": 100
    },
    {
      "midi": 63,
      "hit": false,
      "t": 172682.61600000103,
      "d": 121.95100000000093,
      "v": 100
    },
    {
      "midi": 58,
      "hit": false,
      "t": 172682.61600000103,
      "d": 121.95100000000093,
      "v": 100
    },
    {
      "midi": 33,
      "hit": false,
      "t": 172682.6160000011,
      "d": 1.0162583333440125,
      "v": 127
    },
    {
      "midi": 42,
      "hit": false,
      "t": 172682.6160000011,
      "d": 1.0162583333440125,
      "v": 100
    },
    {
      "midi": 50,
      "hit": false,
      "t": 172682.61600000344,
      "d": 975.6080000000075,
      "v": 100
    },
    {
      "midi": 43,
      "hit": false,
      "t": 172682.61600000344,
      "d": 975.6080000000075,
      "v": 100
    },
    {
      "midi": 67,
      "hit": false,
      "t": 172682.6160000248,
      "d": 60.97549999988405,
      "v": 100
    },
    {
      "midi": 62,
      "hit": false,
      "t": 172682.6160000248,
      "d": 60.97549999988405,
      "v": 100
    },
    {
      "midi": 58,
      "hit": false,
      "t": 172682.6160000248,
      "d": 60.97549999988405,
      "v": 100
    },
    {
      "midi": 54,
      "hit": false,
      "t": 172804.56700000074,
      "d": 1.0162583333440125,
      "v": 60
    },
    {
      "midi": 79,
      "hit": false,
      "t": 172804.5670000008,
      "d": 121.95100000000093,
      "v": 100
    },
    {
      "midi": 31,
      "hit": false,
      "t": 172804.5670000008,
      "d": 121.95100000000093,
      "v": 100
    },
    {
      "midi": 67,
      "hit": false,
      "t": 172804.56700000103,
      "d": 121.95100000000093,
      "v": 100
    },
    {
      "midi": 63,
      "hit": false,
      "t": 172804.56700000103,
      "d": 121.95100000000093,
      "v": 100
    },
    {
      "midi": 58,
      "hit": false,
      "t": 172804.56700000103,
      "d": 121.95100000000093,
      "v": 100
    },
    {
      "midi": 67,
      "hit": false,
      "t": 172804.5670000247,
      "d": 60.975500000000466,
      "v": 100
    },
    {
      "midi": 62,
      "hit": false,
      "t": 172804.5670000247,
      "d": 60.975500000000466,
      "v": 100
    },
    {
      "midi": 58,
      "hit": false,
      "t": 172804.5670000247,
      "d": 60.975500000000466,
      "v": 100
    },
    {
      "midi": 74,
      "hit": false,
      "t": 172926.51800000062,
      "d": 243.90200000000186,
      "v": 100
    },
    {
      "midi": 82,
      "hit": false,
      "t": 172926.51800000062,
      "d": 243.90200000000186,
      "v": 100
    },
    {
      "midi": 77,
      "hit": false,
      "t": 172926.51800000062,
      "d": 243.90200000000186,
      "v": 100
    },
    {
      "midi": 54,
      "hit": false,
      "t": 172926.51800000074,
      "d": 1.0162583333440125,
      "v": 60
    },
    {
      "midi": 79,
      "hit": false,
      "t": 172926.5180000008,
      "d": 121.95100000000093,
      "v": 100
    },
    {
      "midi": 31,
      "hit": false,
      "t": 172926.5180000008,
      "d": 243.90200000000186,
      "v": 100
    },
    {
      "midi": 46,
      "hit": false,
      "t": 172926.5180000011,
      "d": 1.0162583333440125,
      "v": 100
    },
    {
      "midi": 67,
      "hit": false,
      "t": 172926.5180000246,
      "d": 60.975500000000466,
      "v": 100
    },
    {
      "midi": 62,
      "hit": false,
      "t": 172926.5180000246,
      "d": 60.975500000000466,
      "v": 100
    },
    {
      "midi": 58,
      "hit": false,
      "t": 172926.5180000246,
      "d": 60.975500000000466,
      "v": 100
    },
    {
      "midi": 54,
      "hit": false,
      "t": 173048.46900000074,
      "d": 1.0162583333440125,
      "v": 60
    },
    {
      "midi": 79,
      "hit": false,
      "t": 173048.4690000008,
      "d": 121.95100000000093,
      "v": 100
    },
    {
      "midi": 67,
      "hit": false,
      "t": 173048.46900000103,
      "d": 121.95100000000093,
      "v": 100
    },
    {
      "midi": 63,
      "hit": false,
      "t": 173048.46900000103,
      "d": 121.95100000000093,
      "v": 100
    },
    {
      "midi": 58,
      "hit": false,
      "t": 173048.46900000103,
      "d": 121.95100000000093,
      "v": 100
    },
    {
      "midi": 44,
      "hit": false,
      "t": 173048.4690000011,
      "d": 1.0162583333440125,
      "v": 100
    },
    {
      "midi": 67,
      "hit": false,
      "t": 173048.4690000246,
      "d": 60.975500000000466,
      "v": 100
    },
    {
      "midi": 62,
      "hit": false,
      "t": 173048.4690000246,
      "d": 60.975500000000466,
      "v": 100
    },
    {
      "midi": 58,
      "hit": false,
      "t": 173048.4690000246,
      "d": 60.975500000000466,
      "v": 100
    },
    {
      "midi": 74,
      "hit": false,
      "t": 173170.42000000062,
      "d": 243.90200000000186,
      "v": 100
    },
    {
      "midi": 79,
      "hit": false,
      "t": 173170.42000000062,
      "d": 243.90200000000186,
      "v": 100
    },
    {
      "midi": 77,
      "hit": false,
      "t": 173170.42000000062,
      "d": 243.90200000000186,
      "v": 100
    },
    {
      "midi": 54,
      "hit": false,
      "t": 173170.42000000074,
      "d": 1.0162583333440125,
      "v": 80
    },
    {
      "midi": 80,
      "hit": false,
      "t": 173170.42000000077,
      "d": 243.90200000000186,
      "v": 100
    },
    {
      "midi": 77,
      "hit": false,
      "t": 173170.42000000077,
      "d": 243.90200000000186,
      "v": 100
    },
    {
      "midi": 74,
      "hit": false,
      "t": 173170.4200000008,
      "d": 121.95100000000093,
      "v": 100
    },
    {
      "midi": 29,
      "hit": false,
      "t": 173170.4200000008,
      "d": 243.90200000000186,
      "v": 100
    },
    {
      "midi": 33,
      "hit": false,
      "t": 173170.4200000011,
      "d": 1.0162583333440125,
      "v": 127
    },
    {
      "midi": 40,
      "hit": false,
      "t": 173170.4200000011,
      "d": 1.0162583333440125,
      "v": 100
    },
    {
      "midi": 46,
      "hit": false,
      "t": 173170.4200000011,
      "d": 1.0162583333440125,
      "v": 100
    },
    {
      "midi": 67,
      "hit": false,
      "t": 173170.4200000246,
      "d": 243.90199999985634,
      "v": 100
    },
    {
      "midi": 62,
      "hit": false,
      "t": 173170.4200000246,
      "d": 243.90199999985634,
      "v": 100
    },
    {
      "midi": 58,
      "hit": false,
      "t": 173170.4200000246,
      "d": 243.90199999985634,
      "v": 100
    },
    {
      "midi": 54,
      "hit": false,
      "t": 173292.37100000074,
      "d": 1.0162583333440125,
      "v": 60
    },
    {
      "midi": 74,
      "hit": false,
      "t": 173292.3710000008,
      "d": 121.95100000000093,
      "v": 100
    },
    {
      "midi": 44,
      "hit": false,
      "t": 173292.3710000011,
      "d": 1.0162583333440125,
      "v": 100
    },
    {
      "midi": 74,
      "hit": false,
      "t": 173414.32200000063,
      "d": 243.90200000000186,
      "v": 100
    },
    {
      "midi": 82,
      "hit": false,
      "t": 173414.32200000063,
      "d": 243.90200000000186,
      "v": 100
    },
    {
      "midi": 77,
      "hit": false,
      "t": 173414.32200000063,
      "d": 243.90200000000186,
      "v": 100
    },
    {
      "midi": 54,
      "hit": false,
      "t": 173414.32200000074,
      "d": 1.0162583333440125,
      "v": 60
    },
    {
      "midi": 82,
      "hit": false,
      "t": 173414.32200000077,
      "d": 243.90200000000186,
      "v": 100
    },
    {
      "midi": 79,
      "hit": false,
      "t": 173414.32200000077,
      "d": 243.90200000000186,
      "v": 100
    },
    {
      "midi": 79,
      "hit": false,
      "t": 173414.3220000008,
      "d": 121.95100000000093,
      "v": 100
    },
    {
      "midi": 31,
      "hit": false,
      "t": 173414.3220000008,
      "d": 243.90200000000186,
      "v": 100
    },
    {
      "midi": 40,
      "hit": false,
      "t": 173414.3220000011,
      "d": 1.0162583333440125,
      "v": 40
    },
    {
      "midi": 46,
      "hit": false,
      "t": 173414.3220000011,
      "d": 1.0162583333440125,
      "v": 100
    },
    {
      "midi": 67,
      "hit": false,
      "t": 173414.32200002446,
      "d": 60.975500000000466,
      "v": 100
    },
    {
      "midi": 62,
      "hit": false,
      "t": 173414.32200002446,
      "d": 60.975500000000466,
      "v": 100
    },
    {
      "midi": 58,
      "hit": false,
      "t": 173414.32200002446,
      "d": 60.975500000000466,
      "v": 100
    },
    {
      "midi": 54,
      "hit": false,
      "t": 173536.27300000074,
      "d": 1.0162583333440125,
      "v": 60
    },
    {
      "midi": 79,
      "hit": false,
      "t": 173536.2730000008,
      "d": 121.95100000000093,
      "v": 100
    },
    {
      "midi": 40,
      "hit": false,
      "t": 173536.2730000011,
      "d": 1.0162583333440125,
      "v": 100
    },
    {
      "midi": 44,
      "hit": false,
      "t": 173536.2730000011,
      "d": 1.0162583333440125,
      "v": 100
    },
    {
      "midi": 67,
      "hit": false,
      "t": 173536.27300002446,
      "d": 60.975500000000466,
      "v": 100
    },
    {
      "midi": 62,
      "hit": false,
      "t": 173536.27300002446,
      "d": 60.975500000000466,
      "v": 100
    },
    {
      "midi": 58,
      "hit": false,
      "t": 173536.27300002446,
      "d": 60.975500000000466,
      "v": 100
    },
    {
      "midi": 80,
      "hit": false,
      "t": 173658.22400000063,
      "d": 243.90200000000186,
      "v": 100
    },
    {
      "midi": 75,
      "hit": false,
      "t": 173658.22400000063,
      "d": 243.90200000000186,
      "v": 100
    },
    {
      "midi": 72,
      "hit": false,
      "t": 173658.22400000063,
      "d": 243.90200000000186,
      "v": 100
    },
    {
      "midi": 54,
      "hit": false,
      "t": 173658.22400000074,
      "d": 1.0162583333440125,
      "v": 80
    },
    {
      "midi": 80,
      "hit": false,
      "t": 173658.22400000077,
      "d": 243.90200000000186,
      "v": 100
    },
    {
      "midi": 75,
      "hit": false,
      "t": 173658.22400000077,
      "d": 243.90200000000186,
      "v": 100
    },
    {
      "midi": 72,
      "hit": false,
      "t": 173658.2240000008,
      "d": 121.95100000000093,
      "v": 100
    },
    {
      "midi": 32,
      "hit": false,
      "t": 173658.2240000008,
      "d": 243.90200000000186,
      "v": 100
    },
    {
      "midi": 33,
      "hit": false,
      "t": 173658.2240000011,
      "d": 1.0162583333440125,
      "v": 127
    },
    {
      "midi": 42,
      "hit": false,
      "t": 173658.2240000011,
      "d": 1.0162583333440125,
      "v": 100
    },
    {
      "midi": 44,
      "hit": false,
      "t": 173658.22400000345,
      "d": 975.6080000000075,
      "v": 100
    },
    {
      "midi": 51,
      "hit": false,
      "t": 173658.22400000345,
      "d": 975.6080000000075,
      "v": 100
    },
    {
      "midi": 68,
      "hit": false,
      "t": 173658.22400002446,
      "d": 487.8040000000037,
      "v": 100
    },
    {
      "midi": 63,
      "hit": false,
      "t": 173658.22400002446,
      "d": 487.8040000000037,
      "v": 100
    },
    {
      "midi": 60,
      "hit": false,
      "t": 173658.22400002446,
      "d": 487.8040000000037,
      "v": 100
    },
    {
      "midi": 54,
      "hit": false,
      "t": 173780.17500000075,
      "d": 1.0162583333440125,
      "v": 60
    },
    {
      "midi": 72,
      "hit": false,
      "t": 173780.1750000008,
      "d": 121.95100000000093,
      "v": 100
    },
    {
      "midi": 68,
      "hit": false,
      "t": 173780.17500000104,
      "d": 121.95100000000093,
      "v": 100
    },
    {
      "midi": 63,
      "hit": false,
      "t": 173780.17500000104,
      "d": 121.95100000000093,
      "v": 100
    },
    {
      "midi": 60,
      "hit": false,
      "t": 173780.17500000104,
      "d": 121.95100000000093,
      "v": 100
    },
    {
      "midi": 54,
      "hit": false,
      "t": 173902.12600000075,
      "d": 1.0162583333440125,
      "v": 60
    },
    {
      "midi": 68,
      "hit": false,
      "t": 173902.1260000008,
      "d": 121.95100000000093,
      "v": 100
    },
    {
      "midi": 32,
      "hit": false,
      "t": 173902.1260000008,
      "d": 243.90200000000186,
      "v": 100
    },
    {
      "midi": 68,
      "hit": false,
      "t": 173902.12600000104,
      "d": 121.95100000000093,
      "v": 100
    },
    {
      "midi": 63,
      "hit": false,
      "t": 173902.12600000104,
      "d": 121.95100000000093,
      "v": 100
    },
    {
      "midi": 60,
      "hit": false,
      "t": 173902.12600000104,
      "d": 121.95100000000093,
      "v": 100
    },
    {
      "midi": 46,
      "hit": false,
      "t": 173902.1260000011,
      "d": 1.0162583333440125,
      "v": 100
    },
    {
      "midi": 54,
      "hit": false,
      "t": 174024.07700000075,
      "d": 1.0162583333440125,
      "v": 60
    },
    {
      "midi": 68,
      "hit": false,
      "t": 174024.0770000008,
      "d": 121.95100000000093,
      "v": 100
    },
    {
      "midi": 44,
      "hit": false,
      "t": 174024.0770000011,
      "d": 1.0162583333440125,
      "v": 100
    },
    {
      "midi": 80,
      "hit": false,
      "t": 174146.02800000063,
      "d": 243.90200000000186,
      "v": 100
    },
    {
      "midi": 75,
      "hit": false,
      "t": 174146.02800000063,
      "d": 243.90200000000186,
      "v": 100
    },
    {
      "midi": 72,
      "hit": false,
      "t": 174146.02800000063,
      "d": 243.90200000000186,
      "v": 100
    },
    {
      "midi": 54,
      "hit": false,
      "t": 174146.02800000075,
      "d": 1.0162583333440125,
      "v": 80
    },
    {
      "midi": 80,
      "hit": false,
      "t": 174146.02800000078,
      "d": 243.90200000000186,
      "v": 100
    },
    {
      "midi": 75,
      "hit": false,
      "t": 174146.02800000078,
      "d": 243.90200000000186,
      "v": 100
    },
    {
      "midi": 72,
      "hit": false,
      "t": 174146.0280000008,
      "d": 121.95100000000093,
      "v": 100
    },
    {
      "midi": 32,
      "hit": false,
      "t": 174146.0280000008,
      "d": 243.90200000000186,
      "v": 100
    },
    {
      "midi": 68,
      "hit": false,
      "t": 174146.02800000104,
      "d": 121.95100000000093,
      "v": 100
    },
    {
      "midi": 63,
      "hit": false,
      "t": 174146.02800000104,
      "d": 121.95100000000093,
      "v": 100
    },
    {
      "midi": 60,
      "hit": false,
      "t": 174146.02800000104,
      "d": 121.95100000000093,
      "v": 100
    },
    {
      "midi": 33,
      "hit": false,
      "t": 174146.0280000011,
      "d": 1.0162583333440125,
      "v": 127
    },
    {
      "midi": 40,
      "hit": false,
      "t": 174146.0280000011,
      "d": 1.0162583333440125,
      "v": 100
    },
    {
      "midi": 46,
      "hit": false,
      "t": 174146.0280000011,
      "d": 1.0162583333440125,
      "v": 100
    },
    {
      "midi": 68,
      "hit": false,
      "t": 174146.02800002447,
      "d": 60.97549999988405,
      "v": 100
    },
    {
      "midi": 63,
      "hit": false,
      "t": 174146.02800002447,
      "d": 60.97549999988405,
      "v": 100
    },
    {
      "midi": 60,
      "hit": false,
      "t": 174146.02800002447,
      "d": 60.97549999988405,
      "v": 100
    },
    {
      "midi": 54,
      "hit": false,
      "t": 174267.97900000075,
      "d": 1.0162583333440125,
      "v": 60
    },
    {
      "midi": 72,
      "hit": false,
      "t": 174267.9790000008,
      "d": 121.95100000000093,
      "v": 100
    },
    {
      "midi": 44,
      "hit": false,
      "t": 174267.9790000011,
      "d": 1.0162583333440125,
      "v": 100
    },
    {
      "midi": 68,
      "hit": false,
      "t": 174267.97900002435,
      "d": 60.975500000000466,
      "v": 100
    },
    {
      "midi": 63,
      "hit": false,
      "t": 174267.97900002435,
      "d": 60.975500000000466,
      "v": 100
    },
    {
      "midi": 60,
      "hit": false,
      "t": 174267.97900002435,
      "d": 60.975500000000466,
      "v": 100
    },
    {
      "midi": 54,
      "hit": false,
      "t": 174389.93000000075,
      "d": 1.0162583333440125,
      "v": 60
    },
    {
      "midi": 82,
      "hit": false,
      "t": 174389.93000000078,
      "d": 121.95100000000093,
      "v": 100
    },
    {
      "midi": 77,
      "hit": false,
      "t": 174389.93000000078,
      "d": 121.95100000000093,
      "v": 100
    },
    {
      "midi": 77,
      "hit": false,
      "t": 174389.9300000008,
      "d": 121.95100000000093,
      "v": 100
    },
    {
      "midi": 32,
      "hit": false,
      "t": 174389.9300000008,
      "d": 71.13808333332418,
      "v": 100
    },
    {
      "midi": 68,
      "hit": false,
      "t": 174389.93000000104,
      "d": 121.95100000000093,
      "v": 100
    },
    {
      "midi": 63,
      "hit": false,
      "t": 174389.93000000104,
      "d": 121.95100000000093,
      "v": 100
    },
    {
      "midi": 60,
      "hit": false,
      "t": 174389.93000000104,
      "d": 121.95100000000093,
      "v": 100
    },
    {
      "midi": 46,
      "hit": false,
      "t": 174389.9300000011,
      "d": 1.0162583333440125,
      "v": 100
    },
    {
      "midi": 68,
      "hit": false,
      "t": 174389.93000002427,
      "d": 60.975500000000466,
      "v": 100
    },
    {
      "midi": 63,
      "hit": false,
      "t": 174389.93000002427,
      "d": 60.975500000000466,
      "v": 100
    },
    {
      "midi": 60,
      "hit": false,
      "t": 174389.93000002427,
      "d": 60.975500000000466,
      "v": 100
    },
    {
      "midi": 77,
      "hit": false,
      "t": 174511.88100000063,
      "d": 365.8530000000028,
      "v": 100
    },
    {
      "midi": 75,
      "hit": false,
      "t": 174511.88100000063,
      "d": 365.8530000000028,
      "v": 100
    },
    {
      "midi": 72,
      "hit": false,
      "t": 174511.88100000063,
      "d": 365.8530000000028,
      "v": 100
    },
    {
      "midi": 54,
      "hit": false,
      "t": 174511.88100000075,
      "d": 1.0162583333440125,
      "v": 60
    },
    {
      "midi": 77,
      "hit": false,
      "t": 174511.88100000078,
      "d": 487.8040000000037,
      "v": 100
    },
    {
      "midi": 72,
      "hit": false,
      "t": 174511.88100000078,
      "d": 487.8040000000037,
      "v": 100
    },
    {
      "midi": 77,
      "hit": false,
      "t": 174511.8810000008,
      "d": 121.95100000000093,
      "v": 100
    },
    {
      "midi": 29,
      "hit": false,
      "t": 174511.8810000008,
      "d": 243.90200000000186,
      "v": 100
    },
    {
      "midi": 44,
      "hit": false,
      "t": 174511.8810000011,
      "d": 1.0162583333440125,
      "v": 100
    },
    {
      "midi": 68,
      "hit": false,
      "t": 174511.88100002427,
      "d": 60.975500000000466,
      "v": 100
    },
    {
      "midi": 63,
      "hit": false,
      "t": 174511.88100002427,
      "d": 60.975500000000466,
      "v": 100
    },
    {
      "midi": 60,
      "hit": false,
      "t": 174511.88100002427,
      "d": 60.975500000000466,
      "v": 100
    },
    {
      "midi": 54,
      "hit": false,
      "t": 174633.83200000075,
      "d": 1.0162583333440125,
      "v": 80
    },
    {
      "midi": 77,
      "hit": false,
      "t": 174633.8320000008,
      "d": 121.95100000000093,
      "v": 100
    },
    {
      "midi": 68,
      "hit": false,
      "t": 174633.83200000104,
      "d": 121.95100000000093,
      "v": 100
    },
    {
      "midi": 63,
      "hit": false,
      "t": 174633.83200000104,
      "d": 121.95100000000093,
      "v": 100
    },
    {
      "midi": 60,
      "hit": false,
      "t": 174633.83200000104,
      "d": 121.95100000000093,
      "v": 100
    },
    {
      "midi": 33,
      "hit": false,
      "t": 174633.8320000011,
      "d": 1.0162583333440125,
      "v": 127
    },
    {
      "midi": 42,
      "hit": false,
      "t": 174633.8320000011,
      "d": 1.0162583333440125,
      "v": 100
    },
    {
      "midi": 48,
      "hit": false,
      "t": 174633.83200000346,
      "d": 975.6080000000075,
      "v": 100
    },
    {
      "midi": 41,
      "hit": false,
      "t": 174633.83200000346,
      "d": 975.6080000000075,
      "v": 100
    },
    {
      "midi": 68,
      "hit": false,
      "t": 174633.83200002427,
      "d": 60.97549999988405,
      "v": 100
    },
    {
      "midi": 63,
      "hit": false,
      "t": 174633.83200002427,
      "d": 60.97549999988405,
      "v": 100
    },
    {
      "midi": 60,
      "hit": false,
      "t": 174633.83200002427,
      "d": 60.97549999988405,
      "v": 100
    },
    {
      "midi": 54,
      "hit": false,
      "t": 174755.78300000075,
      "d": 1.0162583333440125,
      "v": 60
    },
    {
      "midi": 77,
      "hit": false,
      "t": 174755.7830000008,
      "d": 121.95100000000093,
      "v": 100
    },
    {
      "midi": 29,
      "hit": false,
      "t": 174755.7830000008,
      "d": 121.95100000000093,
      "v": 100
    },
    {
      "midi": 68,
      "hit": false,
      "t": 174755.78300000104,
      "d": 121.95100000000093,
      "v": 100
    },
    {
      "midi": 63,
      "hit": false,
      "t": 174755.78300000104,
      "d": 121.95100000000093,
      "v": 100
    },
    {
      "midi": 60,
      "hit": false,
      "t": 174755.78300000104,
      "d": 121.95100000000093,
      "v": 100
    },
    {
      "midi": 68,
      "hit": false,
      "t": 174755.78300002415,
      "d": 60.975500000000466,
      "v": 100
    },
    {
      "midi": 63,
      "hit": false,
      "t": 174755.78300002415,
      "d": 60.975500000000466,
      "v": 100
    },
    {
      "midi": 60,
      "hit": false,
      "t": 174755.78300002415,
      "d": 60.975500000000466,
      "v": 100
    },
    {
      "midi": 77,
      "hit": false,
      "t": 174877.73400000064,
      "d": 243.90200000000186,
      "v": 100
    },
    {
      "midi": 75,
      "hit": false,
      "t": 174877.73400000064,
      "d": 243.90200000000186,
      "v": 100
    },
    {
      "midi": 72,
      "hit": false,
      "t": 174877.73400000064,
      "d": 243.90200000000186,
      "v": 100
    },
    {
      "midi": 54,
      "hit": false,
      "t": 174877.73400000075,
      "d": 1.0162583333440125,
      "v": 60
    },
    {
      "midi": 77,
      "hit": false,
      "t": 174877.7340000008,
      "d": 121.95100000000093,
      "v": 100
    },
    {
      "midi": 29,
      "hit": false,
      "t": 174877.7340000008,
      "d": 243.90200000000186,
      "v": 100
    },
    {
      "midi": 46,
      "hit": false,
      "t": 174877.7340000011,
      "d": 1.0162583333440125,
      "v": 100
    },
    {
      "midi": 68,
      "hit": false,
      "t": 174877.73400002407,
      "d": 60.975500000000466,
      "v": 100
    },
    {
      "midi": 63,
      "hit": false,
      "t": 174877.73400002407,
      "d": 60.975500000000466,
      "v": 100
    },
    {
      "midi": 60,
      "hit": false,
      "t": 174877.73400002407,
      "d": 60.975500000000466,
      "v": 100
    },
    {
      "midi": 54,
      "hit": false,
      "t": 174999.68500000075,
      "d": 1.0162583333440125,
      "v": 60
    },
    {
      "midi": 77,
      "hit": false,
      "t": 174999.6850000008,
      "d": 121.95100000000093,
      "v": 100
    },
    {
      "midi": 68,
      "hit": false,
      "t": 174999.68500000105,
      "d": 121.95100000000093,
      "v": 100
    },
    {
      "midi": 63,
      "hit": false,
      "t": 174999.68500000105,
      "d": 121.95100000000093,
      "v": 100
    },
    {
      "midi": 60,
      "hit": false,
      "t": 174999.68500000105,
      "d": 121.95100000000093,
      "v": 100
    },
    {
      "midi": 44,
      "hit": false,
      "t": 174999.6850000011,
      "d": 1.0162583333440125,
      "v": 100
    },
    {
      "midi": 68,
      "hit": false,
      "t": 174999.68500002407,
      "d": 60.975500000000466,
      "v": 100
    },
    {
      "midi": 63,
      "hit": false,
      "t": 174999.68500002407,
      "d": 60.975500000000466,
      "v": 100
    },
    {
      "midi": 60,
      "hit": false,
      "t": 174999.68500002407,
      "d": 60.975500000000466,
      "v": 100
    },
    {
      "midi": 75,
      "hit": false,
      "t": 175121.63600000064,
      "d": 243.90200000000186,
      "v": 100
    },
    {
      "midi": 72,
      "hit": false,
      "t": 175121.63600000064,
      "d": 243.90200000000186,
      "v": 100
    },
    {
      "midi": 68,
      "hit": false,
      "t": 175121.63600000064,
      "d": 243.90200000000186,
      "v": 100
    },
    {
      "midi": 54,
      "hit": false,
      "t": 175121.63600000076,
      "d": 1.0162583333440125,
      "v": 80
    },
    {
      "midi": 75,
      "hit": false,
      "t": 175121.63600000078,
      "d": 243.90200000000186,
      "v": 100
    },
    {
      "midi": 70,
      "hit": false,
      "t": 175121.63600000078,
      "d": 243.90200000000186,
      "v": 100
    },
    {
      "midi": 72,
      "hit": false,
      "t": 175121.6360000008,
      "d": 121.95100000000093,
      "v": 100
    },
    {
      "midi": 26,
      "hit": false,
      "t": 175121.6360000008,
      "d": 243.90200000000186,
      "v": 100
    },
    {
      "midi": 33,
      "hit": false,
      "t": 175121.6360000011,
      "d": 1.0162583333440125,
      "v": 127
    },
    {
      "midi": 40,
      "hit": false,
      "t": 175121.6360000011,
      "d": 1.0162583333440125,
      "v": 100
    },
    {
      "midi": 46,
      "hit": false,
      "t": 175121.6360000011,
      "d": 1.0162583333440125,
      "v": 100
    },
    {
      "midi": 68,
      "hit": false,
      "t": 175121.63600002407,
      "d": 243.90199999985634,
      "v": 100
    },
    {
      "midi": 63,
      "hit": false,
      "t": 175121.63600002407,
      "d": 243.90199999985634,
      "v": 100
    },
    {
      "midi": 60,
      "hit": false,
      "t": 175121.63600002407,
      "d": 243.90199999985634,
      "v": 100
    },
    {
      "midi": 54,
      "hit": false,
      "t": 175243.58700000076,
      "d": 1.0162583333440125,
      "v": 60
    },
    {
      "midi": 72,
      "hit": false,
      "t": 175243.5870000008,
      "d": 121.95100000000093,
      "v": 100
    },
    {
      "midi": 44,
      "hit": false,
      "t": 175243.5870000011,
      "d": 1.0162583333440125,
      "v": 100
    },
    {
      "midi": 77,
      "hit": false,
      "t": 175365.53800000064,
      "d": 243.90200000000186,
      "v": 100
    },
    {
      "midi": 75,
      "hit": false,
      "t": 175365.53800000064,
      "d": 243.90200000000186,
      "v": 100
    },
    {
      "midi": 72,
      "hit": false,
      "t": 175365.53800000064,
      "d": 243.90200000000186,
      "v": 100
    },
    {
      "midi": 54,
      "hit": false,
      "t": 175365.53800000076,
      "d": 1.0162583333440125,
      "v": 60
    },
    {
      "midi": 77,
      "hit": false,
      "t": 175365.5380000008,
      "d": 243.90200000000186,
      "v": 100
    },
    {
      "midi": 72,
      "hit": false,
      "t": 175365.5380000008,
      "d": 243.90200000000186,
      "v": 100
    },
    {
      "midi": 77,
      "hit": false,
      "t": 175365.53800000082,
      "d": 121.95100000000093,
      "v": 100
    },
    {
      "midi": 29,
      "hit": false,
      "t": 175365.53800000082,
      "d": 243.90200000000186,
      "v": 100
    },
    {
      "midi": 40,
      "hit": false,
      "t": 175365.5380000011,
      "d": 1.0162583333440125,
      "v": 40
    },
    {
      "midi": 46,
      "hit": false,
      "t": 175365.5380000011,
      "d": 1.0162583333440125,
      "v": 100
    },
    {
      "midi": 68,
      "hit": false,
      "t": 175365.53800002392,
      "d": 60.975500000000466,
      "v": 100
    },
    {
      "midi": 63,
      "hit": false,
      "t": 175365.53800002392,
      "d": 60.975500000000466,
      "v": 100
    },
    {
      "midi": 60,
      "hit": false,
      "t": 175365.53800002392,
      "d": 60.975500000000466,
      "v": 100
    },
    {
      "midi": 54,
      "hit": false,
      "t": 175487.48900000076,
      "d": 1.0162583333440125,
      "v": 60
    },
    {
      "midi": 77,
      "hit": false,
      "t": 175487.48900000082,
      "d": 121.95100000000093,
      "v": 100
    },
    {
      "midi": 40,
      "hit": false,
      "t": 175487.4890000011,
      "d": 1.0162583333440125,
      "v": 100
    },
    {
      "midi": 44,
      "hit": false,
      "t": 175487.4890000011,
      "d": 1.0162583333440125,
      "v": 100
    },
    {
      "midi": 68,
      "hit": false,
      "t": 175487.48900002392,
      "d": 60.975500000000466,
      "v": 100
    },
    {
      "midi": 63,
      "hit": false,
      "t": 175487.48900002392,
      "d": 60.975500000000466,
      "v": 100
    },
    {
      "midi": 60,
      "hit": false,
      "t": 175487.48900002392,
      "d": 60.975500000000466,
      "v": 100
    },
    {
      "midi": 79,
      "hit": false,
      "t": 175609.44000000064,
      "d": 243.90200000000186,
      "v": 100
    },
    {
      "midi": 74,
      "hit": false,
      "t": 175609.44000000064,
      "d": 243.90200000000186,
      "v": 100
    },
    {
      "midi": 70,
      "hit": false,
      "t": 175609.44000000064,
      "d": 243.90200000000186,
      "v": 100
    },
    {
      "midi": 54,
      "hit": false,
      "t": 175609.44000000076,
      "d": 1.0162583333440125,
      "v": 80
    },
    {
      "midi": 79,
      "hit": false,
      "t": 175609.4400000008,
      "d": 243.90200000000186,
      "v": 100
    },
    {
      "midi": 74,
      "hit": false,
      "t": 175609.4400000008,
      "d": 243.90200000000186,
      "v": 100
    },
    {
      "midi": 67,
      "hit": false,
      "t": 175609.44000000082,
      "d": 121.95100000000093,
      "v": 100
    },
    {
      "midi": 31,
      "hit": false,
      "t": 175609.44000000082,
      "d": 243.90200000000186,
      "v": 100
    },
    {
      "midi": 33,
      "hit": false,
      "t": 175609.4400000011,
      "d": 1.0162583333440125,
      "v": 127
    },
    {
      "midi": 42,
      "hit": false,
      "t": 175609.4400000011,
      "d": 1.0162583333440125,
      "v": 100
    },
    {
      "midi": 50,
      "hit": false,
      "t": 175609.44000000347,
      "d": 975.6080000000075,
      "v": 100
    },
    {
      "midi": 43,
      "hit": false,
      "t": 175609.44000000347,
      "d": 975.6080000000075,
      "v": 100
    },
    {
      "midi": 67,
      "hit": false,
      "t": 175609.44000002393,
      "d": 487.8040000000037,
      "v": 100
    },
    {
      "midi": 62,
      "hit": false,
      "t": 175609.44000002393,
      "d": 487.8040000000037,
      "v": 100
    },
    {
      "midi": 58,
      "hit": false,
      "t": 175609.44000002393,
      "d": 487.8040000000037,
      "v": 100
    },
    {
      "midi": 54,
      "hit": false,
      "t": 175731.39100000076,
      "d": 1.0162583333440125,
      "v": 60
    },
    {
      "midi": 67,
      "hit": false,
      "t": 175731.39100000082,
      "d": 121.95100000000093,
      "v": 100
    },
    {
      "midi": 67,
      "hit": false,
      "t": 175731.39100000105,
      "d": 121.95100000000093,
      "v": 100
    },
    {
      "midi": 62,
      "hit": false,
      "t": 175731.39100000105,
      "d": 121.95100000000093,
      "v": 100
    },
    {
      "midi": 58,
      "hit": false,
      "t": 175731.39100000105,
      "d": 121.95100000000093,
      "v": 100
    },
    {
      "midi": 54,
      "hit": false,
      "t": 175853.34200000076,
      "d": 1.0162583333440125,
      "v": 60
    },
    {
      "midi": 70,
      "hit": false,
      "t": 175853.34200000082,
      "d": 121.95100000000093,
      "v": 100
    },
    {
      "midi": 31,
      "hit": false,
      "t": 175853.34200000082,
      "d": 243.90200000000186,
      "v": 100
    },
    {
      "midi": 67,
      "hit": false,
      "t": 175853.34200000105,
      "d": 121.95100000000093,
      "v": 100
    },
    {
      "midi": 62,
      "hit": false,
      "t": 175853.34200000105,
      "d": 121.95100000000093,
      "v": 100
    },
    {
      "midi": 58,
      "hit": false,
      "t": 175853.34200000105,
      "d": 121.95100000000093,
      "v": 100
    },
    {
      "midi": 46,
      "hit": false,
      "t": 175853.3420000011,
      "d": 1.0162583333440125,
      "v": 100
    },
    {
      "midi": 54,
      "hit": false,
      "t": 175975.29300000076,
      "d": 1.0162583333440125,
      "v": 60
    },
    {
      "midi": 70,
      "hit": false,
      "t": 175975.29300000082,
      "d": 121.95100000000093,
      "v": 100
    },
    {
      "midi": 44,
      "hit": false,
      "t": 175975.2930000011,
      "d": 1.0162583333440125,
      "v": 100
    },
    {
      "midi": 79,
      "hit": false,
      "t": 176097.24400000065,
      "d": 243.90200000000186,
      "v": 100
    },
    {
      "midi": 74,
      "hit": false,
      "t": 176097.24400000065,
      "d": 243.90200000000186,
      "v": 100
    },
    {
      "midi": 82,
      "hit": false,
      "t": 176097.24400000065,
      "d": 243.90200000000186,
      "v": 100
    },
    {
      "midi": 54,
      "hit": false,
      "t": 176097.24400000076,
      "d": 1.0162583333440125,
      "v": 80
    },
    {
      "midi": 86,
      "hit": false,
      "t": 176097.2440000008,
      "d": 487.8040000000037,
      "v": 100
    },
    {
      "midi": 79,
      "hit": false,
      "t": 176097.2440000008,
      "d": 487.8040000000037,
      "v": 100
    },
    {
      "midi": 74,
      "hit": false,
      "t": 176097.24400000082,
      "d": 121.95100000000093,
      "v": 100
    },
    {
      "midi": 31,
      "hit": false,
      "t": 176097.24400000082,
      "d": 243.90200000000186,
      "v": 100
    },
    {
      "midi": 67,
      "hit": false,
      "t": 176097.24400000105,
      "d": 121.95100000000093,
      "v": 100
    },
    {
      "midi": 62,
      "hit": false,
      "t": 176097.24400000105,
      "d": 121.95100000000093,
      "v": 100
    },
    {
      "midi": 58,
      "hit": false,
      "t": 176097.24400000105,
      "d": 121.95100000000093,
      "v": 100
    },
    {
      "midi": 33,
      "hit": false,
      "t": 176097.2440000011,
      "d": 1.0162583333440125,
      "v": 127
    },
    {
      "midi": 40,
      "hit": false,
      "t": 176097.2440000011,
      "d": 1.0162583333440125,
      "v": 100
    },
    {
      "midi": 46,
      "hit": false,
      "t": 176097.2440000011,
      "d": 1.0162583333440125,
      "v": 100
    },
    {
      "midi": 67,
      "hit": false,
      "t": 176097.24400002393,
      "d": 60.97549999988405,
      "v": 100
    },
    {
      "midi": 62,
      "hit": false,
      "t": 176097.24400002393,
      "d": 60.97549999988405,
      "v": 100
    },
    {
      "midi": 58,
      "hit": false,
      "t": 176097.24400002393,
      "d": 60.97549999988405,
      "v": 100
    },
    {
      "midi": 54,
      "hit": false,
      "t": 176219.19500000076,
      "d": 1.0162583333440125,
      "v": 60
    },
    {
      "midi": 74,
      "hit": false,
      "t": 176219.19500000082,
      "d": 121.95100000000093,
      "v": 100
    },
    {
      "midi": 44,
      "hit": false,
      "t": 176219.1950000011,
      "d": 1.0162583333440125,
      "v": 100
    },
    {
      "midi": 67,
      "hit": false,
      "t": 176219.1950000238,
      "d": 60.975500000000466,
      "v": 100
    },
    {
      "midi": 62,
      "hit": false,
      "t": 176219.1950000238,
      "d": 60.975500000000466,
      "v": 100
    },
    {
      "midi": 58,
      "hit": false,
      "t": 176219.1950000238,
      "d": 60.975500000000466,
      "v": 100
    },
    {
      "midi": 54,
      "hit": false,
      "t": 176341.14600000076,
      "d": 1.0162583333440125,
      "v": 60
    },
    {
      "midi": 79,
      "hit": false,
      "t": 176341.14600000082,
      "d": 121.95100000000093,
      "v": 100
    },
    {
      "midi": 31,
      "hit": false,
      "t": 176341.14600000082,
      "d": 71.13808333332418,
      "v": 100
    },
    {
      "midi": 67,
      "hit": false,
      "t": 176341.14600000106,
      "d": 121.95100000000093,
      "v": 100
    },
    {
      "midi": 62,
      "hit": false,
      "t": 176341.14600000106,
      "d": 121.95100000000093,
      "v": 100
    },
    {
      "midi": 58,
      "hit": false,
      "t": 176341.14600000106,
      "d": 121.95100000000093,
      "v": 100
    },
    {
      "midi": 46,
      "hit": false,
      "t": 176341.1460000011,
      "d": 1.0162583333440125,
      "v": 100
    },
    {
      "midi": 67,
      "hit": false,
      "t": 176341.14600002373,
      "d": 60.975500000000466,
      "v": 100
    },
    {
      "midi": 62,
      "hit": false,
      "t": 176341.14600002373,
      "d": 60.975500000000466,
      "v": 100
    },
    {
      "midi": 58,
      "hit": false,
      "t": 176341.14600002373,
      "d": 60.975500000000466,
      "v": 100
    },
    {
      "midi": 82,
      "hit": false,
      "t": 176463.09700000065,
      "d": 365.8530000000028,
      "v": 100
    },
    {
      "midi": 79,
      "hit": false,
      "t": 176463.09700000065,
      "d": 365.8530000000028,
      "v": 100
    },
    {
      "midi": 74,
      "hit": false,
      "t": 176463.09700000065,
      "d": 365.8530000000028,
      "v": 100
    },
    {
      "midi": 54,
      "hit": false,
      "t": 176463.09700000077,
      "d": 1.0162583333440125,
      "v": 60
    },
    {
      "midi": 79,
      "hit": false,
      "t": 176463.09700000082,
      "d": 121.95100000000093,
      "v": 100
    },
    {
      "midi": 34,
      "hit": false,
      "t": 176463.09700000082,
      "d": 243.90200000000186,
      "v": 100
    },
    {
      "midi": 44,
      "hit": false,
      "t": 176463.09700000111,
      "d": 1.0162583333440125,
      "v": 100
    },
    {
      "midi": 67,
      "hit": false,
      "t": 176463.09700002373,
      "d": 60.975500000000466,
      "v": 100
    },
    {
      "midi": 62,
      "hit": false,
      "t": 176463.09700002373,
      "d": 60.975500000000466,
      "v": 100
    },
    {
      "midi": 58,
      "hit": false,
      "t": 176463.09700002373,
      "d": 60.975500000000466,
      "v": 100
    },
    {
      "midi": 54,
      "hit": false,
      "t": 176585.04800000077,
      "d": 1.0162583333440125,
      "v": 80
    },
    {
      "midi": 82,
      "hit": false,
      "t": 176585.0480000008,
      "d": 365.8530000000028,
      "v": 100
    },
    {
      "midi": 74,
      "hit": false,
      "t": 176585.0480000008,
      "d": 365.8530000000028,
      "v": 100
    },
    {
      "midi": 82,
      "hit": false,
      "t": 176585.04800000082,
      "d": 121.95100000000093,
      "v": 100
    },
    {
      "midi": 70,
      "hit": false,
      "t": 176585.04800000106,
      "d": 121.95100000000093,
      "v": 100
    },
    {
      "midi": 65,
      "hit": false,
      "t": 176585.04800000106,
      "d": 121.95100000000093,
      "v": 100
    },
    {
      "midi": 62,
      "hit": false,
      "t": 176585.04800000106,
      "d": 121.95100000000093,
      "v": 100
    },
    {
      "midi": 33,
      "hit": false,
      "t": 176585.04800000112,
      "d": 1.0162583333440125,
      "v": 127
    },
    {
      "midi": 42,
      "hit": false,
      "t": 176585.04800000112,
      "d": 1.0162583333440125,
      "v": 100
    },
    {
      "midi": 46,
      "hit": false,
      "t": 176585.04800000347,
      "d": 975.6080000000075,
      "v": 100
    },
    {
      "midi": 53,
      "hit": false,
      "t": 176585.04800000347,
      "d": 975.6080000000075,
      "v": 100
    },
    {
      "midi": 70,
      "hit": false,
      "t": 176585.04800002373,
      "d": 60.97549999988405,
      "v": 100
    },
    {
      "midi": 65,
      "hit": false,
      "t": 176585.04800002373,
      "d": 60.97549999988405,
      "v": 100
    },
    {
      "midi": 62,
      "hit": false,
      "t": 176585.04800002373,
      "d": 60.97549999988405,
      "v": 100
    },
    {
      "midi": 54,
      "hit": false,
      "t": 176706.99900000077,
      "d": 1.0162583333440125,
      "v": 60
    },
    {
      "midi": 82,
      "hit": false,
      "t": 176706.99900000083,
      "d": 121.95100000000093,
      "v": 100
    },
    {
      "midi": 34,
      "hit": false,
      "t": 176706.99900000083,
      "d": 121.95100000000093,
      "v": 100
    },
    {
      "midi": 70,
      "hit": false,
      "t": 176706.99900000106,
      "d": 121.95100000000093,
      "v": 100
    },
    {
      "midi": 65,
      "hit": false,
      "t": 176706.99900000106,
      "d": 121.95100000000093,
      "v": 100
    },
    {
      "midi": 62,
      "hit": false,
      "t": 176706.99900000106,
      "d": 121.95100000000093,
      "v": 100
    },
    {
      "midi": 70,
      "hit": false,
      "t": 176706.9990000236,
      "d": 60.975500000000466,
      "v": 100
    },
    {
      "midi": 65,
      "hit": false,
      "t": 176706.9990000236,
      "d": 60.975500000000466,
      "v": 100
    },
    {
      "midi": 62,
      "hit": false,
      "t": 176706.9990000236,
      "d": 60.975500000000466,
      "v": 100
    },
    {
      "midi": 82,
      "hit": false,
      "t": 176828.95000000065,
      "d": 243.90200000000186,
      "v": 100
    },
    {
      "midi": 79,
      "hit": false,
      "t": 176828.95000000065,
      "d": 243.90200000000186,
      "v": 100
    },
    {
      "midi": 74,
      "hit": false,
      "t": 176828.95000000065,
      "d": 243.90200000000186,
      "v": 100
    },
    {
      "midi": 54,
      "hit": false,
      "t": 176828.95000000077,
      "d": 1.0162583333440125,
      "v": 60
    },
    {
      "midi": 79,
      "hit": false,
      "t": 176828.95000000083,
      "d": 121.95100000000093,
      "v": 100
    },
    {
      "midi": 34,
      "hit": false,
      "t": 176828.95000000083,
      "d": 243.90200000000186,
      "v": 100
    },
    {
      "midi": 46,
      "hit": false,
      "t": 176828.95000000112,
      "d": 1.0162583333440125,
      "v": 100
    },
    {
      "midi": 70,
      "hit": false,
      "t": 176828.95000002353,
      "d": 60.975500000000466,
      "v": 100
    },
    {
      "midi": 65,
      "hit": false,
      "t": 176828.95000002353,
      "d": 60.975500000000466,
      "v": 100
    },
    {
      "midi": 62,
      "hit": false,
      "t": 176828.95000002353,
      "d": 60.975500000000466,
      "v": 100
    },
    {
      "midi": 54,
      "hit": false,
      "t": 176950.90100000077,
      "d": 1.0162583333440125,
      "v": 60
    },
    {
      "midi": 79,
      "hit": false,
      "t": 176950.90100000083,
      "d": 121.95100000000093,
      "v": 100
    },
    {
      "midi": 70,
      "hit": false,
      "t": 176950.90100000106,
      "d": 121.95100000000093,
      "v": 100
    },
    {
      "midi": 65,
      "hit": false,
      "t": 176950.90100000106,
      "d": 121.95100000000093,
      "v": 100
    },
    {
      "midi": 62,
      "hit": false,
      "t": 176950.90100000106,
      "d": 121.95100000000093,
      "v": 100
    },
    {
      "midi": 44,
      "hit": false,
      "t": 176950.90100000112,
      "d": 1.0162583333440125,
      "v": 100
    },
    {
      "midi": 70,
      "hit": false,
      "t": 176950.90100002353,
      "d": 60.975500000000466,
      "v": 100
    },
    {
      "midi": 65,
      "hit": false,
      "t": 176950.90100002353,
      "d": 60.975500000000466,
      "v": 100
    },
    {
      "midi": 62,
      "hit": false,
      "t": 176950.90100002353,
      "d": 60.975500000000466,
      "v": 100
    },
    {
      "midi": 79,
      "hit": false,
      "t": 177072.85200000065,
      "d": 243.90200000000186,
      "v": 100
    },
    {
      "midi": 74,
      "hit": false,
      "t": 177072.85200000065,
      "d": 243.90200000000186,
      "v": 100
    },
    {
      "midi": 70,
      "hit": false,
      "t": 177072.85200000065,
      "d": 243.90200000000186,
      "v": 100
    },
    {
      "midi": 54,
      "hit": false,
      "t": 177072.85200000077,
      "d": 1.0162583333440125,
      "v": 80
    },
    {
      "midi": 79,
      "hit": false,
      "t": 177072.8520000008,
      "d": 243.90200000000186,
      "v": 100
    },
    {
      "midi": 75,
      "hit": false,
      "t": 177072.8520000008,
      "d": 243.90200000000186,
      "v": 100
    },
    {
      "midi": 74,
      "hit": false,
      "t": 177072.85200000083,
      "d": 121.95100000000093,
      "v": 100
    },
    {
      "midi": 31,
      "hit": false,
      "t": 177072.85200000083,
      "d": 243.90200000000186,
      "v": 100
    },
    {
      "midi": 33,
      "hit": false,
      "t": 177072.85200000112,
      "d": 1.0162583333440125,
      "v": 127
    },
    {
      "midi": 40,
      "hit": false,
      "t": 177072.85200000112,
      "d": 1.0162583333440125,
      "v": 100
    },
    {
      "midi": 46,
      "hit": false,
      "t": 177072.85200000112,
      "d": 1.0162583333440125,
      "v": 100
    },
    {
      "midi": 57,
      "hit": false,
      "t": 177072.85200000112,
      "d": 1.0162583333440125,
      "v": 100
    },
    {
      "midi": 70,
      "hit": false,
      "t": 177072.85200002353,
      "d": 243.90199999985634,
      "v": 100
    },
    {
      "midi": 65,
      "hit": false,
      "t": 177072.85200002353,
      "d": 243.90199999985634,
      "v": 100
    },
    {
      "midi": 62,
      "hit": false,
      "t": 177072.85200002353,
      "d": 243.90199999985634,
      "v": 100
    },
    {
      "midi": 54,
      "hit": false,
      "t": 177194.80300000077,
      "d": 1.0162583333440125,
      "v": 60
    },
    {
      "midi": 74,
      "hit": false,
      "t": 177194.80300000083,
      "d": 121.95100000000093,
      "v": 100
    },
    {
      "midi": 44,
      "hit": false,
      "t": 177194.80300000112,
      "d": 1.0162583333440125,
      "v": 100
    },
    {
      "midi": 82,
      "hit": false,
      "t": 177316.75400000066,
      "d": 243.90200000000186,
      "v": 100
    },
    {
      "midi": 79,
      "hit": false,
      "t": 177316.75400000066,
      "d": 243.90200000000186,
      "v": 100
    },
    {
      "midi": 74,
      "hit": false,
      "t": 177316.75400000066,
      "d": 243.90200000000186,
      "v": 100
    },
    {
      "midi": 54,
      "hit": false,
      "t": 177316.75400000077,
      "d": 1.0162583333440125,
      "v": 60
    },
    {
      "midi": 82,
      "hit": false,
      "t": 177316.7540000008,
      "d": 243.90200000000186,
      "v": 100
    },
    {
      "midi": 79,
      "hit": false,
      "t": 177316.7540000008,
      "d": 243.90200000000186,
      "v": 100
    },
    {
      "midi": 70,
      "hit": false,
      "t": 177316.75400000083,
      "d": 121.95100000000093,
      "v": 100
    },
    {
      "midi": 34,
      "hit": false,
      "t": 177316.75400000083,
      "d": 243.90200000000186,
      "v": 100
    },
    {
      "midi": 40,
      "hit": false,
      "t": 177316.75400000112,
      "d": 1.0162583333440125,
      "v": 40
    },
    {
      "midi": 46,
      "hit": false,
      "t": 177316.75400000112,
      "d": 1.0162583333440125,
      "v": 100
    },
    {
      "midi": 70,
      "hit": false,
      "t": 177316.7540000234,
      "d": 60.975500000000466,
      "v": 100
    },
    {
      "midi": 65,
      "hit": false,
      "t": 177316.7540000234,
      "d": 60.975500000000466,
      "v": 100
    },
    {
      "midi": 62,
      "hit": false,
      "t": 177316.7540000234,
      "d": 60.975500000000466,
      "v": 100
    },
    {
      "midi": 54,
      "hit": false,
      "t": 177438.70500000077,
      "d": 1.0162583333440125,
      "v": 60
    },
    {
      "midi": 70,
      "hit": false,
      "t": 177438.70500000083,
      "d": 121.95100000000093,
      "v": 100
    },
    {
      "midi": 40,
      "hit": false,
      "t": 177438.70500000112,
      "d": 1.0162583333440125,
      "v": 100
    },
    {
      "midi": 44,
      "hit": false,
      "t": 177438.70500000112,
      "d": 1.0162583333440125,
      "v": 100
    },
    {
      "midi": 70,
      "hit": false,
      "t": 177438.7050000234,
      "d": 60.975500000000466,
      "v": 100
    },
    {
      "midi": 65,
      "hit": false,
      "t": 177438.7050000234,
      "d": 60.975500000000466,
      "v": 100
    },
    {
      "midi": 62,
      "hit": false,
      "t": 177438.7050000234,
      "d": 60.975500000000466,
      "v": 100
    },
    {
      "midi": 84,
      "hit": false,
      "t": 177560.65600000066,
      "d": 243.90200000000186,
      "v": 100
    },
    {
      "midi": 79,
      "hit": false,
      "t": 177560.65600000066,
      "d": 243.90200000000186,
      "v": 100
    },
    {
      "midi": 75,
      "hit": false,
      "t": 177560.65600000066,
      "d": 243.90200000000186,
      "v": 100
    },
    {
      "midi": 54,
      "hit": false,
      "t": 177560.65600000077,
      "d": 1.0162583333440125,
      "v": 80
    },
    {
      "midi": 84,
      "hit": false,
      "t": 177560.6560000008,
      "d": 243.90200000000186,
      "v": 100
    },
    {
      "midi": 79,
      "hit": false,
      "t": 177560.6560000008,
      "d": 243.90200000000186,
      "v": 100
    },
    {
      "midi": 72,
      "hit": false,
      "t": 177560.65600000083,
      "d": 121.95100000000093,
      "v": 100
    },
    {
      "midi": 36,
      "hit": false,
      "t": 177560.65600000083,
      "d": 243.90200000000186,
      "v": 100
    },
    {
      "midi": 33,
      "hit": false,
      "t": 177560.65600000112,
      "d": 1.0162583333440125,
      "v": 127
    },
    {
      "midi": 42,
      "hit": false,
      "t": 177560.65600000112,
      "d": 1.0162583333440125,
      "v": 100
    },
    {
      "midi": 57,
      "hit": false,
      "t": 177560.65600000112,
      "d": 1.0162583333440125,
      "v": 100
    },
    {
      "midi": 48,
      "hit": false,
      "t": 177560.65600000348,
      "d": 975.6080000000075,
      "v": 100
    },
    {
      "midi": 55,
      "hit": false,
      "t": 177560.65600000348,
      "d": 975.6080000000075,
      "v": 100
    },
    {
      "midi": 72,
      "hit": false,
      "t": 177560.6560000234,
      "d": 487.8040000000037,
      "v": 100
    },
    {
      "midi": 67,
      "hit": false,
      "t": 177560.6560000234,
      "d": 487.8040000000037,
      "v": 100
    },
    {
      "midi": 63,
      "hit": false,
      "t": 177560.6560000234,
      "d": 487.8040000000037,
      "v": 100
    },
    {
      "midi": 54,
      "hit": false,
      "t": 177682.60700000077,
      "d": 1.0162583333440125,
      "v": 60
    },
    {
      "midi": 72,
      "hit": false,
      "t": 177682.60700000083,
      "d": 121.95100000000093,
      "v": 100
    },
    {
      "midi": 72,
      "hit": false,
      "t": 177682.60700000107,
      "d": 121.95100000000093,
      "v": 100
    },
    {
      "midi": 67,
      "hit": false,
      "t": 177682.60700000107,
      "d": 121.95100000000093,
      "v": 100
    },
    {
      "midi": 63,
      "hit": false,
      "t": 177682.60700000107,
      "d": 121.95100000000093,
      "v": 100
    },
    {
      "midi": 54,
      "hit": false,
      "t": 177804.55800000078,
      "d": 1.0162583333440125,
      "v": 60
    },
    {
      "midi": 79,
      "hit": false,
      "t": 177804.55800000083,
      "d": 121.95100000000093,
      "v": 100
    },
    {
      "midi": 36,
      "hit": false,
      "t": 177804.55800000083,
      "d": 243.90200000000186,
      "v": 100
    },
    {
      "midi": 72,
      "hit": false,
      "t": 177804.55800000107,
      "d": 121.95100000000093,
      "v": 100
    },
    {
      "midi": 67,
      "hit": false,
      "t": 177804.55800000107,
      "d": 121.95100000000093,
      "v": 100
    },
    {
      "midi": 63,
      "hit": false,
      "t": 177804.55800000107,
      "d": 121.95100000000093,
      "v": 100
    },
    {
      "midi": 46,
      "hit": false,
      "t": 177804.55800000113,
      "d": 1.0162583333440125,
      "v": 100
    },
    {
      "midi": 54,
      "hit": false,
      "t": 177926.50900000078,
      "d": 1.0162583333440125,
      "v": 60
    },
    {
      "midi": 79,
      "hit": false,
      "t": 177926.50900000083,
      "d": 121.95100000000093,
      "v": 100
    },
    {
      "midi": 44,
      "hit": false,
      "t": 177926.50900000113,
      "d": 1.0162583333440125,
      "v": 100
    },
    {
      "midi": 84,
      "hit": false,
      "t": 178048.46000000066,
      "d": 243.90200000000186,
      "v": 100
    },
    {
      "midi": 79,
      "hit": false,
      "t": 178048.46000000066,
      "d": 243.90200000000186,
      "v": 100
    },
    {
      "midi": 75,
      "hit": false,
      "t": 178048.46000000066,
      "d": 243.90200000000186,
      "v": 100
    },
    {
      "midi": 54,
      "hit": false,
      "t": 178048.46000000078,
      "d": 1.0162583333440125,
      "v": 80
    },
    {
      "midi": 84,
      "hit": false,
      "t": 178048.4600000008,
      "d": 243.90200000000186,
      "v": 100
    },
    {
      "midi": 79,
      "hit": false,
      "t": 178048.4600000008,
      "d": 243.90200000000186,
      "v": 100
    },
    {
      "midi": 75,
      "hit": false,
      "t": 178048.46000000084,
      "d": 121.95100000000093,
      "v": 100
    },
    {
      "midi": 36,
      "hit": false,
      "t": 178048.46000000084,
      "d": 243.90200000000186,
      "v": 100
    },
    {
      "midi": 72,
      "hit": false,
      "t": 178048.46000000107,
      "d": 121.95100000000093,
      "v": 100
    },
    {
      "midi": 67,
      "hit": false,
      "t": 178048.46000000107,
      "d": 121.95100000000093,
      "v": 100
    },
    {
      "midi": 63,
      "hit": false,
      "t": 178048.46000000107,
      "d": 121.95100000000093,
      "v": 100
    },
    {
      "midi": 33,
      "hit": false,
      "t": 178048.46000000113,
      "d": 1.0162583333440125,
      "v": 127
    },
    {
      "midi": 40,
      "hit": false,
      "t": 178048.46000000113,
      "d": 1.0162583333440125,
      "v": 100
    },
    {
      "midi": 46,
      "hit": false,
      "t": 178048.46000000113,
      "d": 1.0162583333440125,
      "v": 100
    },
    {
      "midi": 72,
      "hit": false,
      "t": 178048.4600000234,
      "d": 60.97549999988405,
      "v": 100
    },
    {
      "midi": 67,
      "hit": false,
      "t": 178048.4600000234,
      "d": 60.97549999988405,
      "v": 100
    },
    {
      "midi": 63,
      "hit": false,
      "t": 178048.4600000234,
      "d": 60.97549999988405,
      "v": 100
    },
    {
      "midi": 54,
      "hit": false,
      "t": 178170.41100000078,
      "d": 1.0162583333440125,
      "v": 60
    },
    {
      "midi": 75,
      "hit": false,
      "t": 178170.41100000084,
      "d": 121.95100000000093,
      "v": 100
    },
    {
      "midi": 44,
      "hit": false,
      "t": 178170.41100000113,
      "d": 1.0162583333440125,
      "v": 100
    },
    {
      "midi": 72,
      "hit": false,
      "t": 178170.41100002328,
      "d": 60.975500000000466,
      "v": 100
    },
    {
      "midi": 67,
      "hit": false,
      "t": 178170.41100002328,
      "d": 60.975500000000466,
      "v": 100
    },
    {
      "midi": 63,
      "hit": false,
      "t": 178170.41100002328,
      "d": 60.975500000000466,
      "v": 100
    },
    {
      "midi": 84,
      "hit": false,
      "t": 178292.36200000066,
      "d": 30.487750000000233,
      "v": 100
    },
    {
      "midi": 79,
      "hit": false,
      "t": 178292.36200000066,
      "d": 30.487750000000233,
      "v": 100
    },
    {
      "midi": 54,
      "hit": false,
      "t": 178292.36200000078,
      "d": 1.0162583333440125,
      "v": 60
    },
    {
      "midi": 87,
      "hit": false,
      "t": 178292.3620000008,
      "d": 121.95100000000093,
      "v": 100
    },
    {
      "midi": 82,
      "hit": false,
      "t": 178292.3620000008,
      "d": 121.95100000000093,
      "v": 100
    },
    {
      "midi": 82,
      "hit": false,
      "t": 178292.36200000084,
      "d": 121.95100000000093,
      "v": 100
    },
    {
      "midi": 36,
      "hit": false,
      "t": 178292.36200000084,
      "d": 71.13808333332418,
      "v": 100
    },
    {
      "midi": 72,
      "hit": false,
      "t": 178292.36200000107,
      "d": 121.95100000000093,
      "v": 100
    },
    {
      "midi": 67,
      "hit": false,
      "t": 178292.36200000107,
      "d": 121.95100000000093,
      "v": 100
    },
    {
      "midi": 63,
      "hit": false,
      "t": 178292.36200000107,
      "d": 121.95100000000093,
      "v": 100
    },
    {
      "midi": 46,
      "hit": false,
      "t": 178292.36200000113,
      "d": 1.0162583333440125,
      "v": 100
    },
    {
      "midi": 72,
      "hit": false,
      "t": 178292.3620000232,
      "d": 60.975500000000466,
      "v": 100
    },
    {
      "midi": 67,
      "hit": false,
      "t": 178292.3620000232,
      "d": 60.975500000000466,
      "v": 100
    },
    {
      "midi": 63,
      "hit": false,
      "t": 178292.3620000232,
      "d": 60.975500000000466,
      "v": 100
    },
    {
      "midi": 84,
      "hit": false,
      "t": 178414.31300000066,
      "d": 243.90200000000186,
      "v": 100
    },
    {
      "midi": 80,
      "hit": false,
      "t": 178414.31300000066,
      "d": 243.90200000000186,
      "v": 100
    },
    {
      "midi": 75,
      "hit": false,
      "t": 178414.31300000066,
      "d": 243.90200000000186,
      "v": 100
    },
    {
      "midi": 54,
      "hit": false,
      "t": 178414.31300000078,
      "d": 1.0162583333440125,
      "v": 60
    },
    {
      "midi": 84,
      "hit": false,
      "t": 178414.3130000008,
      "d": 365.8530000000028,
      "v": 100
    },
    {
      "midi": 80,
      "hit": false,
      "t": 178414.3130000008,
      "d": 365.8530000000028,
      "v": 100
    },
    {
      "midi": 82,
      "hit": false,
      "t": 178414.31300000084,
      "d": 121.95100000000093,
      "v": 100
    },
    {
      "midi": 32,
      "hit": false,
      "t": 178414.31300000084,
      "d": 243.90200000000186,
      "v": 100
    },
    {
      "midi": 44,
      "hit": false,
      "t": 178414.31300000113,
      "d": 1.0162583333440125,
      "v": 100
    },
    {
      "midi": 72,
      "hit": false,
      "t": 178414.3130000232,
      "d": 60.975500000000466,
      "v": 100
    },
    {
      "midi": 67,
      "hit": false,
      "t": 178414.3130000232,
      "d": 60.975500000000466,
      "v": 100
    },
    {
      "midi": 63,
      "hit": false,
      "t": 178414.3130000232,
      "d": 60.975500000000466,
      "v": 100
    },
    {
      "midi": 54,
      "hit": false,
      "t": 178536.26400000078,
      "d": 1.0162583333440125,
      "v": 80
    },
    {
      "midi": 84,
      "hit": false,
      "t": 178536.26400000084,
      "d": 121.95100000000093,
      "v": 100
    },
    {
      "midi": 68,
      "hit": false,
      "t": 178536.26400000107,
      "d": 121.95100000000093,
      "v": 100
    },
    {
      "midi": 63,
      "hit": false,
      "t": 178536.26400000107,
      "d": 121.95100000000093,
      "v": 100
    },
    {
      "midi": 60,
      "hit": false,
      "t": 178536.26400000107,
      "d": 121.95100000000093,
      "v": 100
    },
    {
      "midi": 33,
      "hit": false,
      "t": 178536.26400000113,
      "d": 1.0162583333440125,
      "v": 127
    },
    {
      "midi": 42,
      "hit": false,
      "t": 178536.26400000113,
      "d": 1.0162583333440125,
      "v": 100
    },
    {
      "midi": 44,
      "hit": false,
      "t": 178536.2640000035,
      "d": 975.6080000000075,
      "v": 100
    },
    {
      "midi": 51,
      "hit": false,
      "t": 178536.2640000035,
      "d": 975.6080000000075,
      "v": 100
    },
    {
      "midi": 68,
      "hit": false,
      "t": 178536.2640000232,
      "d": 60.97549999988405,
      "v": 100
    },
    {
      "midi": 63,
      "hit": false,
      "t": 178536.2640000232,
      "d": 60.97549999988405,
      "v": 100
    },
    {
      "midi": 60,
      "hit": false,
      "t": 178536.2640000232,
      "d": 60.97549999988405,
      "v": 100
    },
    {
      "midi": 84,
      "hit": false,
      "t": 178658.21500000067,
      "d": 121.95100000000093,
      "v": 100
    },
    {
      "midi": 80,
      "hit": false,
      "t": 178658.21500000067,
      "d": 121.95100000000093,
      "v": 100
    },
    {
      "midi": 75,
      "hit": false,
      "t": 178658.21500000067,
      "d": 121.95100000000093,
      "v": 100
    },
    {
      "midi": 54,
      "hit": false,
      "t": 178658.21500000078,
      "d": 1.0162583333440125,
      "v": 60
    },
    {
      "midi": 84,
      "hit": false,
      "t": 178658.21500000084,
      "d": 121.95100000000093,
      "v": 100
    },
    {
      "midi": 32,
      "hit": false,
      "t": 178658.21500000084,
      "d": 121.95100000000093,
      "v": 100
    },
    {
      "midi": 68,
      "hit": false,
      "t": 178658.21500000107,
      "d": 121.95100000000093,
      "v": 100
    },
    {
      "midi": 63,
      "hit": false,
      "t": 178658.21500000107,
      "d": 121.95100000000093,
      "v": 100
    },
    {
      "midi": 60,
      "hit": false,
      "t": 178658.21500000107,
      "d": 121.95100000000093,
      "v": 100
    },
    {
      "midi": 68,
      "hit": false,
      "t": 178658.21500002308,
      "d": 60.975500000000466,
      "v": 100
    },
    {
      "midi": 63,
      "hit": false,
      "t": 178658.21500002308,
      "d": 60.975500000000466,
      "v": 100
    },
    {
      "midi": 60,
      "hit": false,
      "t": 178658.21500002308,
      "d": 60.975500000000466,
      "v": 100
    },
    {
      "midi": 84,
      "hit": false,
      "t": 178780.16600000067,
      "d": 243.90200000000186,
      "v": 100
    },
    {
      "midi": 80,
      "hit": false,
      "t": 178780.16600000067,
      "d": 243.90200000000186,
      "v": 100
    },
    {
      "midi": 75,
      "hit": false,
      "t": 178780.16600000067,
      "d": 243.90200000000186,
      "v": 100
    },
    {
      "midi": 54,
      "hit": false,
      "t": 178780.16600000078,
      "d": 1.0162583333440125,
      "v": 60
    },
    {
      "midi": 80,
      "hit": false,
      "t": 178780.16600000084,
      "d": 121.95100000000093,
      "v": 100
    },
    {
      "midi": 32,
      "hit": false,
      "t": 178780.16600000084,
      "d": 243.90200000000186,
      "v": 100
    },
    {
      "midi": 46,
      "hit": false,
      "t": 178780.16600000113,
      "d": 1.0162583333440125,
      "v": 100
    },
    {
      "midi": 68,
      "hit": false,
      "t": 178780.166000023,
      "d": 60.975500000000466,
      "v": 100
    },
    {
      "midi": 63,
      "hit": false,
      "t": 178780.166000023,
      "d": 60.975500000000466,
      "v": 100
    },
    {
      "midi": 60,
      "hit": false,
      "t": 178780.166000023,
      "d": 60.975500000000466,
      "v": 100
    },
    {
      "midi": 54,
      "hit": false,
      "t": 178902.11700000078,
      "d": 1.0162583333440125,
      "v": 60
    },
    {
      "midi": 80,
      "hit": false,
      "t": 178902.11700000084,
      "d": 121.95100000000093,
      "v": 100
    },
    {
      "midi": 68,
      "hit": false,
      "t": 178902.11700000108,
      "d": 121.95100000000093,
      "v": 100
    },
    {
      "midi": 63,
      "hit": false,
      "t": 178902.11700000108,
      "d": 121.95100000000093,
      "v": 100
    },
    {
      "midi": 60,
      "hit": false,
      "t": 178902.11700000108,
      "d": 121.95100000000093,
      "v": 100
    },
    {
      "midi": 44,
      "hit": false,
      "t": 178902.11700000113,
      "d": 1.0162583333440125,
      "v": 100
    },
    {
      "midi": 68,
      "hit": false,
      "t": 178902.117000023,
      "d": 60.975500000000466,
      "v": 100
    },
    {
      "midi": 63,
      "hit": false,
      "t": 178902.117000023,
      "d": 60.975500000000466,
      "v": 100
    },
    {
      "midi": 60,
      "hit": false,
      "t": 178902.117000023,
      "d": 60.975500000000466,
      "v": 100
    },
    {
      "midi": 84,
      "hit": false,
      "t": 179024.06800000067,
      "d": 243.90200000000186,
      "v": 100
    },
    {
      "midi": 80,
      "hit": false,
      "t": 179024.06800000067,
      "d": 243.90200000000186,
      "v": 100
    },
    {
      "midi": 75,
      "hit": false,
      "t": 179024.06800000067,
      "d": 243.90200000000186,
      "v": 100
    },
    {
      "midi": 54,
      "hit": false,
      "t": 179024.06800000079,
      "d": 1.0162583333440125,
      "v": 80
    },
    {
      "midi": 84,
      "hit": false,
      "t": 179024.0680000008,
      "d": 243.90200000000186,
      "v": 100
    },
    {
      "midi": 82,
      "hit": false,
      "t": 179024.0680000008,
      "d": 243.90200000000186,
      "v": 100
    },
    {
      "midi": 75,
      "hit": false,
      "t": 179024.06800000084,
      "d": 121.95100000000093,
      "v": 100
    },
    {
      "midi": 32,
      "hit": false,
      "t": 179024.06800000084,
      "d": 243.90200000000186,
      "v": 100
    },
    {
      "midi": 33,
      "hit": false,
      "t": 179024.06800000113,
      "d": 1.0162583333440125,
      "v": 127
    },
    {
      "midi": 40,
      "hit": false,
      "t": 179024.06800000113,
      "d": 1.0162583333440125,
      "v": 100
    },
    {
      "midi": 46,
      "hit": false,
      "t": 179024.06800000113,
      "d": 1.0162583333440125,
      "v": 100
    },
    {
      "midi": 68,
      "hit": false,
      "t": 179024.068000023,
      "d": 243.90199999985634,
      "v": 100
    },
    {
      "midi": 63,
      "hit": false,
      "t": 179024.068000023,
      "d": 243.90199999985634,
      "v": 100
    },
    {
      "midi": 60,
      "hit": false,
      "t": 179024.068000023,
      "d": 243.90199999985634,
      "v": 100
    },
    {
      "midi": 54,
      "hit": false,
      "t": 179146.0190000008,
      "d": 1.0162583333440125,
      "v": 60
    },
    {
      "midi": 75,
      "hit": false,
      "t": 179146.01900000084,
      "d": 121.95100000000093,
      "v": 100
    },
    {
      "midi": 44,
      "hit": false,
      "t": 179146.01900000114,
      "d": 1.0162583333440125,
      "v": 100
    },
    {
      "midi": 84,
      "hit": false,
      "t": 179267.97000000067,
      "d": 243.90200000000186,
      "v": 100
    },
    {
      "midi": 80,
      "hit": false,
      "t": 179267.97000000067,
      "d": 243.90200000000186,
      "v": 100
    },
    {
      "midi": 75,
      "hit": false,
      "t": 179267.97000000067,
      "d": 243.90200000000186,
      "v": 100
    },
    {
      "midi": 54,
      "hit": false,
      "t": 179267.9700000008,
      "d": 1.0162583333440125,
      "v": 60
    },
    {
      "midi": 87,
      "hit": false,
      "t": 179267.97000000082,
      "d": 243.90200000000186,
      "v": 100
    },
    {
      "midi": 84,
      "hit": false,
      "t": 179267.97000000082,
      "d": 243.90200000000186,
      "v": 100
    },
    {
      "midi": 72,
      "hit": false,
      "t": 179267.97000000085,
      "d": 121.95100000000093,
      "v": 100
    },
    {
      "midi": 32,
      "hit": false,
      "t": 179267.97000000085,
      "d": 243.90200000000186,
      "v": 100
    },
    {
      "midi": 40,
      "hit": false,
      "t": 179267.97000000114,
      "d": 1.0162583333440125,
      "v": 40
    },
    {
      "midi": 46,
      "hit": false,
      "t": 179267.97000000114,
      "d": 1.0162583333440125,
      "v": 100
    },
    {
      "midi": 68,
      "hit": false,
      "t": 179267.97000002285,
      "d": 60.975500000000466,
      "v": 100
    },
    {
      "midi": 63,
      "hit": false,
      "t": 179267.97000002285,
      "d": 60.975500000000466,
      "v": 100
    },
    {
      "midi": 60,
      "hit": false,
      "t": 179267.97000002285,
      "d": 60.975500000000466,
      "v": 100
    },
    {
      "midi": 54,
      "hit": false,
      "t": 179389.9210000008,
      "d": 1.0162583333440125,
      "v": 60
    },
    {
      "midi": 72,
      "hit": false,
      "t": 179389.92100000085,
      "d": 121.95100000000093,
      "v": 100
    },
    {
      "midi": 40,
      "hit": false,
      "t": 179389.92100000114,
      "d": 1.0162583333440125,
      "v": 100
    },
    {
      "midi": 44,
      "hit": false,
      "t": 179389.92100000114,
      "d": 1.0162583333440125,
      "v": 100
    },
    {
      "midi": 68,
      "hit": false,
      "t": 179389.92100002285,
      "d": 60.975500000000466,
      "v": 100
    },
    {
      "midi": 63,
      "hit": false,
      "t": 179389.92100002285,
      "d": 60.975500000000466,
      "v": 100
    },
    {
      "midi": 60,
      "hit": false,
      "t": 179389.92100002285,
      "d": 60.975500000000466,
      "v": 100
    },
    {
      "midi": 86,
      "hit": false,
      "t": 179511.87200000067,
      "d": 243.90200000000186,
      "v": 100
    },
    {
      "midi": 82,
      "hit": false,
      "t": 179511.87200000067,
      "d": 243.90200000000186,
      "v": 100
    },
    {
      "midi": 77,
      "hit": false,
      "t": 179511.87200000067,
      "d": 243.90200000000186,
      "v": 100
    },
    {
      "midi": 54,
      "hit": false,
      "t": 179511.8720000008,
      "d": 1.0162583333440125,
      "v": 80
    },
    {
      "midi": 86,
      "hit": false,
      "t": 179511.87200000082,
      "d": 243.90200000000186,
      "v": 100
    },
    {
      "midi": 82,
      "hit": false,
      "t": 179511.87200000082,
      "d": 243.90200000000186,
      "v": 100
    },
    {
      "midi": 70,
      "hit": false,
      "t": 179511.87200000085,
      "d": 121.95100000000093,
      "v": 100
    },
    {
      "midi": 34,
      "hit": false,
      "t": 179511.87200000085,
      "d": 243.90200000000186,
      "v": 100
    },
    {
      "midi": 33,
      "hit": false,
      "t": 179511.87200000114,
      "d": 1.0162583333440125,
      "v": 127
    },
    {
      "midi": 42,
      "hit": false,
      "t": 179511.87200000114,
      "d": 1.0162583333440125,
      "v": 100
    },
    {
      "midi": 46,
      "hit": false,
      "t": 179511.8720000035,
      "d": 975.6080000000075,
      "v": 100
    },
    {
      "midi": 53,
      "hit": false,
      "t": 179511.8720000035,
      "d": 975.6080000000075,
      "v": 100
    },
    {
      "midi": 70,
      "hit": false,
      "t": 179511.87200002285,
      "d": 487.8040000000037,
      "v": 100
    },
    {
      "midi": 65,
      "hit": false,
      "t": 179511.87200002285,
      "d": 487.8040000000037,
      "v": 100
    },
    {
      "midi": 62,
      "hit": false,
      "t": 179511.87200002285,
      "d": 487.8040000000037,
      "v": 100
    },
    {
      "midi": 54,
      "hit": false,
      "t": 179633.8230000008,
      "d": 1.0162583333440125,
      "v": 60
    },
    {
      "midi": 70,
      "hit": false,
      "t": 179633.82300000085,
      "d": 121.95100000000093,
      "v": 100
    },
    {
      "midi": 70,
      "hit": false,
      "t": 179633.82300000108,
      "d": 121.95100000000093,
      "v": 100
    },
    {
      "midi": 65,
      "hit": false,
      "t": 179633.82300000108,
      "d": 121.95100000000093,
      "v": 100
    },
    {
      "midi": 62,
      "hit": false,
      "t": 179633.82300000108,
      "d": 121.95100000000093,
      "v": 100
    },
    {
      "midi": 54,
      "hit": false,
      "t": 179755.7740000008,
      "d": 1.0162583333440125,
      "v": 60
    },
    {
      "midi": 82,
      "hit": false,
      "t": 179755.77400000082,
      "d": 121.95100000000093,
      "v": 100
    },
    {
      "midi": 79,
      "hit": false,
      "t": 179755.77400000082,
      "d": 121.95100000000093,
      "v": 100
    },
    {
      "midi": 74,
      "hit": false,
      "t": 179755.77400000085,
      "d": 121.95100000000093,
      "v": 100
    },
    {
      "midi": 34,
      "hit": false,
      "t": 179755.77400000085,
      "d": 243.90200000000186,
      "v": 100
    },
    {
      "midi": 70,
      "hit": false,
      "t": 179755.77400000108,
      "d": 121.95100000000093,
      "v": 100
    },
    {
      "midi": 65,
      "hit": false,
      "t": 179755.77400000108,
      "d": 121.95100000000093,
      "v": 100
    },
    {
      "midi": 62,
      "hit": false,
      "t": 179755.77400000108,
      "d": 121.95100000000093,
      "v": 100
    },
    {
      "midi": 46,
      "hit": false,
      "t": 179755.77400000114,
      "d": 1.0162583333440125,
      "v": 100
    },
    {
      "midi": 54,
      "hit": false,
      "t": 179877.7250000008,
      "d": 1.0162583333440125,
      "v": 60
    },
    {
      "midi": 74,
      "hit": false,
      "t": 179877.72500000085,
      "d": 121.95100000000093,
      "v": 100
    },
    {
      "midi": 44,
      "hit": false,
      "t": 179877.72500000114,
      "d": 1.0162583333440125,
      "v": 100
    },
    {
      "midi": 82,
      "hit": false,
      "t": 179999.67600000068,
      "d": 243.90200000000186,
      "v": 100
    },
    {
      "midi": 77,
      "hit": false,
      "t": 179999.67600000068,
      "d": 243.90200000000186,
      "v": 100
    },
    {
      "midi": 54,
      "hit": false,
      "t": 179999.6760000008,
      "d": 1.0162583333440125,
      "v": 80
    },
    {
      "midi": 82,
      "hit": false,
      "t": 179999.67600000082,
      "d": 243.90200000000186,
      "v": 100
    },
    {
      "midi": 79,
      "hit": false,
      "t": 179999.67600000082,
      "d": 243.90200000000186,
      "v": 100
    },
    {
      "midi": 70,
      "hit": false,
      "t": 179999.67600000085,
      "d": 121.95100000000093,
      "v": 100
    },
    {
      "midi": 34,
      "hit": false,
      "t": 179999.67600000085,
      "d": 243.90200000000186,
      "v": 100
    },
    {
      "midi": 70,
      "hit": false,
      "t": 179999.67600000108,
      "d": 121.95100000000093,
      "v": 100
    },
    {
      "midi": 65,
      "hit": false,
      "t": 179999.67600000108,
      "d": 121.95100000000093,
      "v": 100
    },
    {
      "midi": 62,
      "hit": false,
      "t": 179999.67600000108,
      "d": 121.95100000000093,
      "v": 100
    },
    {
      "midi": 33,
      "hit": false,
      "t": 179999.67600000114,
      "d": 1.0162583333440125,
      "v": 127
    },
    {
      "midi": 40,
      "hit": false,
      "t": 179999.67600000114,
      "d": 1.0162583333440125,
      "v": 100
    },
    {
      "midi": 46,
      "hit": false,
      "t": 179999.67600000114,
      "d": 1.0162583333440125,
      "v": 100
    },
    {
      "midi": 70,
      "hit": false,
      "t": 179999.67600002285,
      "d": 60.97549999988405,
      "v": 100
    },
    {
      "midi": 65,
      "hit": false,
      "t": 179999.67600002285,
      "d": 60.97549999988405,
      "v": 100
    },
    {
      "midi": 62,
      "hit": false,
      "t": 179999.67600002285,
      "d": 60.97549999988405,
      "v": 100
    },
    {
      "midi": 54,
      "hit": false,
      "t": 180121.6270000008,
      "d": 1.0162583333440125,
      "v": 60
    },
    {
      "midi": 70,
      "hit": false,
      "t": 180121.62700000085,
      "d": 121.95100000000093,
      "v": 100
    },
    {
      "midi": 44,
      "hit": false,
      "t": 180121.62700000114,
      "d": 1.0162583333440125,
      "v": 100
    },
    {
      "midi": 70,
      "hit": false,
      "t": 180121.62700002274,
      "d": 60.975500000000466,
      "v": 100
    },
    {
      "midi": 65,
      "hit": false,
      "t": 180121.62700002274,
      "d": 60.975500000000466,
      "v": 100
    },
    {
      "midi": 62,
      "hit": false,
      "t": 180121.62700002274,
      "d": 60.975500000000466,
      "v": 100
    },
    {
      "midi": 77,
      "hit": false,
      "t": 180243.57800000068,
      "d": 40.65033333332394,
      "v": 100
    },
    {
      "midi": 82,
      "hit": false,
      "t": 180243.57800000068,
      "d": 40.65033333332394,
      "v": 100
    },
    {
      "midi": 54,
      "hit": false,
      "t": 180243.5780000008,
      "d": 1.0162583333440125,
      "v": 60
    },
    {
      "midi": 79,
      "hit": false,
      "t": 180243.57800000082,
      "d": 121.95100000000093,
      "v": 100
    },
    {
      "midi": 75,
      "hit": false,
      "t": 180243.57800000082,
      "d": 121.95100000000093,
      "v": 100
    },
    {
      "midi": 79,
      "hit": false,
      "t": 180243.57800000085,
      "d": 121.95100000000093,
      "v": 100
    },
    {
      "midi": 34,
      "hit": false,
      "t": 180243.57800000085,
      "d": 71.13808333332418,
      "v": 100
    },
    {
      "midi": 70,
      "hit": false,
      "t": 180243.5780000011,
      "d": 121.95100000000093,
      "v": 100
    },
    {
      "midi": 65,
      "hit": false,
      "t": 180243.5780000011,
      "d": 121.95100000000093,
      "v": 100
    },
    {
      "midi": 62,
      "hit": false,
      "t": 180243.5780000011,
      "d": 121.95100000000093,
      "v": 100
    },
    {
      "midi": 46,
      "hit": false,
      "t": 180243.57800000114,
      "d": 1.0162583333440125,
      "v": 100
    },
    {
      "midi": 70,
      "hit": false,
      "t": 180243.57800002265,
      "d": 60.975500000000466,
      "v": 100
    },
    {
      "midi": 65,
      "hit": false,
      "t": 180243.57800002265,
      "d": 60.975500000000466,
      "v": 100
    },
    {
      "midi": 62,
      "hit": false,
      "t": 180243.57800002265,
      "d": 60.975500000000466,
      "v": 100
    },
    {
      "midi": 82,
      "hit": false,
      "t": 180365.52900000068,
      "d": 243.90200000000186,
      "v": 100
    },
    {
      "midi": 77,
      "hit": false,
      "t": 180365.52900000068,
      "d": 243.90200000000186,
      "v": 100
    },
    {
      "midi": 74,
      "hit": false,
      "t": 180365.52900000068,
      "d": 325.20266666667885,
      "v": 100
    },
    {
      "midi": 54,
      "hit": false,
      "t": 180365.5290000008,
      "d": 1.0162583333440125,
      "v": 60
    },
    {
      "midi": 82,
      "hit": false,
      "t": 180365.52900000082,
      "d": 487.8040000000037,
      "v": 100
    },
    {
      "midi": 79,
      "hit": false,
      "t": 180365.52900000082,
      "d": 487.8040000000037,
      "v": 100
    },
    {
      "midi": 79,
      "hit": false,
      "t": 180365.52900000085,
      "d": 121.95100000000093,
      "v": 100
    },
    {
      "midi": 31,
      "hit": false,
      "t": 180365.52900000085,
      "d": 243.90200000000186,
      "v": 100
    },
    {
      "midi": 44,
      "hit": false,
      "t": 180365.52900000114,
      "d": 1.0162583333440125,
      "v": 100
    },
    {
      "midi": 40,
      "hit": false,
      "t": 180365.52900000114,
      "d": 1.0162583333440125,
      "v": 100
    },
    {
      "midi": 70,
      "hit": false,
      "t": 180365.52900002265,
      "d": 60.975500000000466,
      "v": 100
    },
    {
      "midi": 65,
      "hit": false,
      "t": 180365.52900002265,
      "d": 60.975500000000466,
      "v": 100
    },
    {
      "midi": 62,
      "hit": false,
      "t": 180365.52900002265,
      "d": 60.975500000000466,
      "v": 100
    },
    {
      "midi": 54,
      "hit": false,
      "t": 180487.4800000008,
      "d": 1.0162583333440125,
      "v": 80
    },
    {
      "midi": 79,
      "hit": false,
      "t": 180487.48000000085,
      "d": 121.95100000000093,
      "v": 100
    },
    {
      "midi": 67,
      "hit": false,
      "t": 180487.4800000011,
      "d": 121.95100000000093,
      "v": 100
    },
    {
      "midi": 63,
      "hit": false,
      "t": 180487.4800000011,
      "d": 121.95100000000093,
      "v": 100
    },
    {
      "midi": 58,
      "hit": false,
      "t": 180487.4800000011,
      "d": 121.95100000000093,
      "v": 100
    },
    {
      "midi": 33,
      "hit": false,
      "t": 180487.48000000115,
      "d": 1.0162583333440125,
      "v": 127
    },
    {
      "midi": 42,
      "hit": false,
      "t": 180487.48000000115,
      "d": 1.0162583333440125,
      "v": 100
    },
    {
      "midi": 50,
      "hit": false,
      "t": 180487.4800000035,
      "d": 975.6080000000075,
      "v": 100
    },
    {
      "midi": 43,
      "hit": false,
      "t": 180487.4800000035,
      "d": 975.6080000000075,
      "v": 100
    },
    {
      "midi": 67,
      "hit": false,
      "t": 180487.48000002265,
      "d": 60.97549999988405,
      "v": 100
    },
    {
      "midi": 62,
      "hit": false,
      "t": 180487.48000002265,
      "d": 60.97549999988405,
      "v": 100
    },
    {
      "midi": 58,
      "hit": false,
      "t": 180487.48000002265,
      "d": 60.97549999988405,
      "v": 100
    },
    {
      "midi": 54,
      "hit": false,
      "t": 180609.4310000008,
      "d": 1.0162583333440125,
      "v": 60
    },
    {
      "midi": 79,
      "hit": false,
      "t": 180609.43100000086,
      "d": 121.95100000000093,
      "v": 100
    },
    {
      "midi": 31,
      "hit": false,
      "t": 180609.43100000086,
      "d": 121.95100000000093,
      "v": 100
    },
    {
      "midi": 67,
      "hit": false,
      "t": 180609.4310000011,
      "d": 121.95100000000093,
      "v": 100
    },
    {
      "midi": 63,
      "hit": false,
      "t": 180609.4310000011,
      "d": 121.95100000000093,
      "v": 100
    },
    {
      "midi": 58,
      "hit": false,
      "t": 180609.4310000011,
      "d": 121.95100000000093,
      "v": 100
    },
    {
      "midi": 40,
      "hit": false,
      "t": 180609.43100000115,
      "d": 1.0162583333440125,
      "v": 100
    },
    {
      "midi": 67,
      "hit": false,
      "t": 180609.43100002254,
      "d": 60.975500000000466,
      "v": 100
    },
    {
      "midi": 62,
      "hit": false,
      "t": 180609.43100002254,
      "d": 60.975500000000466,
      "v": 100
    },
    {
      "midi": 58,
      "hit": false,
      "t": 180609.43100002254,
      "d": 60.975500000000466,
      "v": 100
    },
    {
      "midi": 74,
      "hit": false,
      "t": 180731.38200000068,
      "d": 243.90200000000186,
      "v": 100
    },
    {
      "midi": 82,
      "hit": false,
      "t": 180731.38200000068,
      "d": 243.90200000000186,
      "v": 100
    },
    {
      "midi": 77,
      "hit": false,
      "t": 180731.38200000068,
      "d": 243.90200000000186,
      "v": 100
    },
    {
      "midi": 54,
      "hit": false,
      "t": 180731.3820000008,
      "d": 1.0162583333440125,
      "v": 60
    },
    {
      "midi": 79,
      "hit": false,
      "t": 180731.38200000086,
      "d": 121.95100000000093,
      "v": 100
    },
    {
      "midi": 31,
      "hit": false,
      "t": 180731.38200000086,
      "d": 243.90200000000186,
      "v": 100
    },
    {
      "midi": 46,
      "hit": false,
      "t": 180731.38200000115,
      "d": 1.0162583333440125,
      "v": 100
    },
    {
      "midi": 67,
      "hit": false,
      "t": 180731.38200002245,
      "d": 60.975500000000466,
      "v": 100
    },
    {
      "midi": 62,
      "hit": false,
      "t": 180731.38200002245,
      "d": 60.975500000000466,
      "v": 100
    },
    {
      "midi": 58,
      "hit": false,
      "t": 180731.38200002245,
      "d": 60.975500000000466,
      "v": 100
    },
    {
      "midi": 54,
      "hit": false,
      "t": 180853.3330000008,
      "d": 1.0162583333440125,
      "v": 60
    },
    {
      "midi": 79,
      "hit": false,
      "t": 180853.33300000086,
      "d": 121.95100000000093,
      "v": 100
    },
    {
      "midi": 67,
      "hit": false,
      "t": 180853.3330000011,
      "d": 121.95100000000093,
      "v": 100
    },
    {
      "midi": 63,
      "hit": false,
      "t": 180853.3330000011,
      "d": 121.95100000000093,
      "v": 100
    },
    {
      "midi": 58,
      "hit": false,
      "t": 180853.3330000011,
      "d": 121.95100000000093,
      "v": 100
    },
    {
      "midi": 44,
      "hit": false,
      "t": 180853.33300000115,
      "d": 1.0162583333440125,
      "v": 100
    },
    {
      "midi": 67,
      "hit": false,
      "t": 180853.33300002245,
      "d": 60.975500000000466,
      "v": 100
    },
    {
      "midi": 62,
      "hit": false,
      "t": 180853.33300002245,
      "d": 60.975500000000466,
      "v": 100
    },
    {
      "midi": 58,
      "hit": false,
      "t": 180853.33300002245,
      "d": 60.975500000000466,
      "v": 100
    },
    {
      "midi": 74,
      "hit": false,
      "t": 180975.28400000068,
      "d": 243.90200000000186,
      "v": 100
    },
    {
      "midi": 79,
      "hit": false,
      "t": 180975.28400000068,
      "d": 243.90200000000186,
      "v": 100
    },
    {
      "midi": 77,
      "hit": false,
      "t": 180975.28400000068,
      "d": 243.90200000000186,
      "v": 100
    },
    {
      "midi": 54,
      "hit": false,
      "t": 180975.2840000008,
      "d": 1.0162583333440125,
      "v": 80
    },
    {
      "midi": 80,
      "hit": false,
      "t": 180975.28400000083,
      "d": 243.90200000000186,
      "v": 100
    },
    {
      "midi": 77,
      "hit": false,
      "t": 180975.28400000083,
      "d": 243.90200000000186,
      "v": 100
    },
    {
      "midi": 74,
      "hit": false,
      "t": 180975.28400000086,
      "d": 121.95100000000093,
      "v": 100
    },
    {
      "midi": 31,
      "hit": false,
      "t": 180975.28400000086,
      "d": 243.90200000000186,
      "v": 100
    },
    {
      "midi": 33,
      "hit": false,
      "t": 180975.28400000115,
      "d": 1.0162583333440125,
      "v": 127
    },
    {
      "midi": 40,
      "hit": false,
      "t": 180975.28400000115,
      "d": 1.0162583333440125,
      "v": 100
    },
    {
      "midi": 46,
      "hit": false,
      "t": 180975.28400000115,
      "d": 1.0162583333440125,
      "v": 100
    },
    {
      "midi": 67,
      "hit": false,
      "t": 180975.28400002245,
      "d": 243.90199999985634,
      "v": 100
    },
    {
      "midi": 62,
      "hit": false,
      "t": 180975.28400002245,
      "d": 243.90199999985634,
      "v": 100
    },
    {
      "midi": 58,
      "hit": false,
      "t": 180975.28400002245,
      "d": 243.90199999985634,
      "v": 100
    },
    {
      "midi": 54,
      "hit": false,
      "t": 181097.2350000008,
      "d": 1.0162583333440125,
      "v": 60
    },
    {
      "midi": 74,
      "hit": false,
      "t": 181097.23500000086,
      "d": 121.95100000000093,
      "v": 100
    },
    {
      "midi": 44,
      "hit": false,
      "t": 181097.23500000115,
      "d": 1.0162583333440125,
      "v": 100
    },
    {
      "midi": 74,
      "hit": false,
      "t": 181219.1860000007,
      "d": 243.90200000000186,
      "v": 100
    },
    {
      "midi": 82,
      "hit": false,
      "t": 181219.1860000007,
      "d": 243.90200000000186,
      "v": 100
    },
    {
      "midi": 77,
      "hit": false,
      "t": 181219.1860000007,
      "d": 243.90200000000186,
      "v": 100
    },
    {
      "midi": 54,
      "hit": false,
      "t": 181219.1860000008,
      "d": 1.0162583333440125,
      "v": 60
    },
    {
      "midi": 82,
      "hit": false,
      "t": 181219.18600000083,
      "d": 243.90200000000186,
      "v": 100
    },
    {
      "midi": 79,
      "hit": false,
      "t": 181219.18600000083,
      "d": 243.90200000000186,
      "v": 100
    },
    {
      "midi": 79,
      "hit": false,
      "t": 181219.18600000086,
      "d": 121.95100000000093,
      "v": 100
    },
    {
      "midi": 31,
      "hit": false,
      "t": 181219.18600000086,
      "d": 243.90200000000186,
      "v": 100
    },
    {
      "midi": 40,
      "hit": false,
      "t": 181219.18600000115,
      "d": 1.0162583333440125,
      "v": 40
    },
    {
      "midi": 46,
      "hit": false,
      "t": 181219.18600000115,
      "d": 1.0162583333440125,
      "v": 100
    },
    {
      "midi": 67,
      "hit": false,
      "t": 181219.1860000223,
      "d": 60.975500000000466,
      "v": 100
    },
    {
      "midi": 62,
      "hit": false,
      "t": 181219.1860000223,
      "d": 60.975500000000466,
      "v": 100
    },
    {
      "midi": 58,
      "hit": false,
      "t": 181219.1860000223,
      "d": 60.975500000000466,
      "v": 100
    },
    {
      "midi": 54,
      "hit": false,
      "t": 181341.1370000008,
      "d": 1.0162583333440125,
      "v": 60
    },
    {
      "midi": 79,
      "hit": false,
      "t": 181341.13700000086,
      "d": 121.95100000000093,
      "v": 100
    },
    {
      "midi": 40,
      "hit": false,
      "t": 181341.13700000115,
      "d": 1.0162583333440125,
      "v": 100
    },
    {
      "midi": 44,
      "hit": false,
      "t": 181341.13700000115,
      "d": 1.0162583333440125,
      "v": 100
    },
    {
      "midi": 67,
      "hit": false,
      "t": 181341.1370000223,
      "d": 60.975500000000466,
      "v": 100
    },
    {
      "midi": 62,
      "hit": false,
      "t": 181341.1370000223,
      "d": 60.975500000000466,
      "v": 100
    },
    {
      "midi": 58,
      "hit": false,
      "t": 181341.1370000223,
      "d": 60.975500000000466,
      "v": 100
    },
    {
      "midi": 80,
      "hit": false,
      "t": 181463.0880000007,
      "d": 243.90200000000186,
      "v": 100
    },
    {
      "midi": 75,
      "hit": false,
      "t": 181463.0880000007,
      "d": 243.90200000000186,
      "v": 100
    },
    {
      "midi": 72,
      "hit": false,
      "t": 181463.0880000007,
      "d": 243.90200000000186,
      "v": 100
    },
    {
      "midi": 54,
      "hit": false,
      "t": 181463.0880000008,
      "d": 1.0162583333440125,
      "v": 80
    },
    {
      "midi": 80,
      "hit": false,
      "t": 181463.08800000083,
      "d": 243.90200000000186,
      "v": 100
    },
    {
      "midi": 77,
      "hit": false,
      "t": 181463.08800000083,
      "d": 243.90200000000186,
      "v": 100
    },
    {
      "midi": 65,
      "hit": false,
      "t": 181463.08800000086,
      "d": 121.95100000000093,
      "v": 100
    },
    {
      "midi": 29,
      "hit": false,
      "t": 181463.08800000086,
      "d": 243.90200000000186,
      "v": 100
    },
    {
      "midi": 33,
      "hit": false,
      "t": 181463.08800000115,
      "d": 1.0162583333440125,
      "v": 127
    },
    {
      "midi": 42,
      "hit": false,
      "t": 181463.08800000115,
      "d": 1.0162583333440125,
      "v": 100
    },
    {
      "midi": 41,
      "hit": false,
      "t": 181463.0880000035,
      "d": 975.6080000000075,
      "v": 100
    },
    {
      "midi": 48,
      "hit": false,
      "t": 181463.0880000035,
      "d": 975.6080000000075,
      "v": 100
    },
    {
      "midi": 68,
      "hit": false,
      "t": 181463.0880000223,
      "d": 487.8040000000037,
      "v": 100
    },
    {
      "midi": 63,
      "hit": false,
      "t": 181463.0880000223,
      "d": 487.8040000000037,
      "v": 100
    },
    {
      "midi": 60,
      "hit": false,
      "t": 181463.0880000223,
      "d": 487.8040000000037,
      "v": 100
    },
    {
      "midi": 54,
      "hit": false,
      "t": 181585.0390000008,
      "d": 1.0162583333440125,
      "v": 60
    },
    {
      "midi": 58,
      "hit": false,
      "t": 181585.03900000086,
      "d": 121.95100000000093,
      "v": 100
    },
    {
      "midi": 60,
      "hit": false,
      "t": 181585.0390000011,
      "d": 121.95100000000093,
      "v": 100
    },
    {
      "midi": 63,
      "hit": false,
      "t": 181585.0390000011,
      "d": 121.95100000000093,
      "v": 100
    },
    {
      "midi": 68,
      "hit": false,
      "t": 181585.0390000011,
      "d": 121.95100000000093,
      "v": 100
    },
    {
      "midi": 54,
      "hit": false,
      "t": 181706.9900000008,
      "d": 1.0162583333440125,
      "v": 60
    },
    {
      "midi": 65,
      "hit": false,
      "t": 181706.99000000086,
      "d": 121.95100000000093,
      "v": 100
    },
    {
      "midi": 29,
      "hit": false,
      "t": 181706.99000000086,
      "d": 243.90200000000186,
      "v": 100
    },
    {
      "midi": 68,
      "hit": false,
      "t": 181706.9900000011,
      "d": 121.95100000000093,
      "v": 100
    },
    {
      "midi": 63,
      "hit": false,
      "t": 181706.9900000011,
      "d": 121.95100000000093,
      "v": 100
    },
    {
      "midi": 60,
      "hit": false,
      "t": 181706.9900000011,
      "d": 121.95100000000093,
      "v": 100
    },
    {
      "midi": 46,
      "hit": false,
      "t": 181706.99000000115,
      "d": 1.0162583333440125,
      "v": 100
    },
    {
      "midi": 54,
      "hit": false,
      "t": 181828.9410000008,
      "d": 1.0162583333440125,
      "v": 60
    },
    {
      "midi": 70,
      "hit": false,
      "t": 181828.94100000086,
      "d": 121.95100000000093,
      "v": 100
    },
    {
      "midi": 44,
      "hit": false,
      "t": 181828.94100000116,
      "d": 1.0162583333440125,
      "v": 100
    },
    {
      "midi": 80,
      "hit": false,
      "t": 181950.8920000007,
      "d": 243.90200000000186,
      "v": 100
    },
    {
      "midi": 75,
      "hit": false,
      "t": 181950.8920000007,
      "d": 243.90200000000186,
      "v": 100
    },
    {
      "midi": 72,
      "hit": false,
      "t": 181950.8920000007,
      "d": 243.90200000000186,
      "v": 100
    },
    {
      "midi": 54,
      "hit": false,
      "t": 181950.8920000008,
      "d": 1.0162583333440125,
      "v": 80
    },
    {
      "midi": 80,
      "hit": false,
      "t": 181950.89200000084,
      "d": 243.90200000000186,
      "v": 100
    },
    {
      "midi": 77,
      "hit": false,
      "t": 181950.89200000084,
      "d": 243.90200000000186,
      "v": 100
    },
    {
      "midi": 65,
      "hit": false,
      "t": 181950.89200000087,
      "d": 121.95100000000093,
      "v": 100
    },
    {
      "midi": 29,
      "hit": false,
      "t": 181950.89200000087,
      "d": 243.90200000000186,
      "v": 100
    },
    {
      "midi": 68,
      "hit": false,
      "t": 181950.8920000011,
      "d": 121.95100000000093,
      "v": 100
    },
    {
      "midi": 63,
      "hit": false,
      "t": 181950.8920000011,
      "d": 121.95100000000093,
      "v": 100
    },
    {
      "midi": 60,
      "hit": false,
      "t": 181950.8920000011,
      "d": 121.95100000000093,
      "v": 100
    },
    {
      "midi": 33,
      "hit": false,
      "t": 181950.89200000116,
      "d": 1.0162583333440125,
      "v": 127
    },
    {
      "midi": 40,
      "hit": false,
      "t": 181950.89200000116,
      "d": 1.0162583333440125,
      "v": 100
    },
    {
      "midi": 46,
      "hit": false,
      "t": 181950.89200000116,
      "d": 1.0162583333440125,
      "v": 100
    },
    {
      "midi": 68,
      "hit": false,
      "t": 181950.89200002232,
      "d": 60.97549999988405,
      "v": 100
    },
    {
      "midi": 63,
      "hit": false,
      "t": 181950.89200002232,
      "d": 60.97549999988405,
      "v": 100
    },
    {
      "midi": 60,
      "hit": false,
      "t": 181950.89200002232,
      "d": 60.97549999988405,
      "v": 100
    },
    {
      "midi": 54,
      "hit": false,
      "t": 182072.8430000008,
      "d": 1.0162583333440125,
      "v": 60
    },
    {
      "midi": 70,
      "hit": false,
      "t": 182072.84300000087,
      "d": 121.95100000000093,
      "v": 100
    },
    {
      "midi": 44,
      "hit": false,
      "t": 182072.84300000116,
      "d": 1.0162583333440125,
      "v": 100
    },
    {
      "midi": 68,
      "hit": false,
      "t": 182072.8430000222,
      "d": 60.975500000000466,
      "v": 100
    },
    {
      "midi": 63,
      "hit": false,
      "t": 182072.8430000222,
      "d": 60.975500000000466,
      "v": 100
    },
    {
      "midi": 60,
      "hit": false,
      "t": 182072.8430000222,
      "d": 60.975500000000466,
      "v": 100
    },
    {
      "midi": 54,
      "hit": false,
      "t": 182194.7940000008,
      "d": 1.0162583333440125,
      "v": 60
    },
    {
      "midi": 82,
      "hit": false,
      "t": 182194.79400000084,
      "d": 121.95100000000093,
      "v": 100
    },
    {
      "midi": 79,
      "hit": false,
      "t": 182194.79400000084,
      "d": 121.95100000000093,
      "v": 100
    },
    {
      "midi": 77,
      "hit": false,
      "t": 182194.79400000087,
      "d": 121.95100000000093,
      "v": 100
    },
    {
      "midi": 29,
      "hit": false,
      "t": 182194.79400000087,
      "d": 71.13808333332418,
      "v": 100
    },
    {
      "midi": 68,
      "hit": false,
      "t": 182194.7940000011,
      "d": 121.95100000000093,
      "v": 100
    },
    {
      "midi": 63,
      "hit": false,
      "t": 182194.7940000011,
      "d": 121.95100000000093,
      "v": 100
    },
    {
      "midi": 60,
      "hit": false,
      "t": 182194.7940000011,
      "d": 121.95100000000093,
      "v": 100
    },
    {
      "midi": 46,
      "hit": false,
      "t": 182194.79400000116,
      "d": 1.0162583333440125,
      "v": 100
    },
    {
      "midi": 68,
      "hit": false,
      "t": 182194.7940000221,
      "d": 60.975500000000466,
      "v": 100
    },
    {
      "midi": 63,
      "hit": false,
      "t": 182194.7940000221,
      "d": 60.975500000000466,
      "v": 100
    },
    {
      "midi": 60,
      "hit": false,
      "t": 182194.7940000221,
      "d": 60.975500000000466,
      "v": 100
    },
    {
      "midi": 82,
      "hit": false,
      "t": 182316.7450000007,
      "d": 365.8530000000028,
      "v": 100
    },
    {
      "midi": 77,
      "hit": false,
      "t": 182316.7450000007,
      "d": 365.8530000000028,
      "v": 100
    },
    {
      "midi": 74,
      "hit": false,
      "t": 182316.7450000007,
      "d": 365.8530000000028,
      "v": 100
    },
    {
      "midi": 54,
      "hit": false,
      "t": 182316.7450000008,
      "d": 1.0162583333440125,
      "v": 60
    },
    {
      "midi": 77,
      "hit": false,
      "t": 182316.74500000084,
      "d": 487.8040000000037,
      "v": 100
    },
    {
      "midi": 74,
      "hit": false,
      "t": 182316.74500000084,
      "d": 487.8040000000037,
      "v": 100
    },
    {
      "midi": 82,
      "hit": false,
      "t": 182316.74500000087,
      "d": 121.95100000000093,
      "v": 100
    },
    {
      "midi": 34,
      "hit": false,
      "t": 182316.74500000087,
      "d": 243.90200000000186,
      "v": 100
    },
    {
      "midi": 44,
      "hit": false,
      "t": 182316.74500000116,
      "d": 1.0162583333440125,
      "v": 100
    },
    {
      "midi": 68,
      "hit": false,
      "t": 182316.7450000221,
      "d": 60.975500000000466,
      "v": 100
    },
    {
      "midi": 63,
      "hit": false,
      "t": 182316.7450000221,
      "d": 60.975500000000466,
      "v": 100
    },
    {
      "midi": 60,
      "hit": false,
      "t": 182316.7450000221,
      "d": 60.975500000000466,
      "v": 100
    },
    {
      "midi": 54,
      "hit": false,
      "t": 182438.6960000008,
      "d": 1.0162583333440125,
      "v": 80
    },
    {
      "midi": 82,
      "hit": false,
      "t": 182438.69600000087,
      "d": 121.95100000000093,
      "v": 100
    },
    {
      "midi": 70,
      "hit": false,
      "t": 182438.6960000011,
      "d": 121.95100000000093,
      "v": 100
    },
    {
      "midi": 65,
      "hit": false,
      "t": 182438.6960000011,
      "d": 121.95100000000093,
      "v": 100
    },
    {
      "midi": 62,
      "hit": false,
      "t": 182438.6960000011,
      "d": 121.95100000000093,
      "v": 100
    },
    {
      "midi": 33,
      "hit": false,
      "t": 182438.69600000116,
      "d": 1.0162583333440125,
      "v": 127
    },
    {
      "midi": 42,
      "hit": false,
      "t": 182438.69600000116,
      "d": 1.0162583333440125,
      "v": 100
    },
    {
      "midi": 46,
      "hit": false,
      "t": 182438.69600000352,
      "d": 975.6080000000075,
      "v": 100
    },
    {
      "midi": 53,
      "hit": false,
      "t": 182438.69600000352,
      "d": 975.6080000000075,
      "v": 100
    },
    {
      "midi": 70,
      "hit": false,
      "t": 182438.69600002212,
      "d": 60.97549999988405,
      "v": 100
    },
    {
      "midi": 65,
      "hit": false,
      "t": 182438.69600002212,
      "d": 60.97549999988405,
      "v": 100
    },
    {
      "midi": 62,
      "hit": false,
      "t": 182438.69600002212,
      "d": 60.97549999988405,
      "v": 100
    },
    {
      "midi": 54,
      "hit": false,
      "t": 182560.6470000008,
      "d": 1.0162583333440125,
      "v": 60
    },
    {
      "midi": 82,
      "hit": false,
      "t": 182560.64700000087,
      "d": 121.95100000000093,
      "v": 100
    },
    {
      "midi": 34,
      "hit": false,
      "t": 182560.64700000087,
      "d": 121.95100000000093,
      "v": 100
    },
    {
      "midi": 70,
      "hit": false,
      "t": 182560.6470000011,
      "d": 121.95100000000093,
      "v": 100
    },
    {
      "midi": 65,
      "hit": false,
      "t": 182560.6470000011,
      "d": 121.95100000000093,
      "v": 100
    },
    {
      "midi": 62,
      "hit": false,
      "t": 182560.6470000011,
      "d": 121.95100000000093,
      "v": 100
    },
    {
      "midi": 70,
      "hit": false,
      "t": 182560.647000022,
      "d": 60.975500000000466,
      "v": 100
    },
    {
      "midi": 65,
      "hit": false,
      "t": 182560.647000022,
      "d": 60.975500000000466,
      "v": 100
    },
    {
      "midi": 62,
      "hit": false,
      "t": 182560.647000022,
      "d": 60.975500000000466,
      "v": 100
    },
    {
      "midi": 82,
      "hit": false,
      "t": 182682.5980000007,
      "d": 243.90200000000186,
      "v": 100
    },
    {
      "midi": 77,
      "hit": false,
      "t": 182682.5980000007,
      "d": 243.90200000000186,
      "v": 100
    },
    {
      "midi": 74,
      "hit": false,
      "t": 182682.5980000007,
      "d": 243.90200000000186,
      "v": 100
    },
    {
      "midi": 54,
      "hit": false,
      "t": 182682.5980000008,
      "d": 1.0162583333440125,
      "v": 60
    },
    {
      "midi": 82,
      "hit": false,
      "t": 182682.59800000087,
      "d": 121.95100000000093,
      "v": 100
    },
    {
      "midi": 34,
      "hit": false,
      "t": 182682.59800000087,
      "d": 243.90200000000186,
      "v": 100
    },
    {
      "midi": 46,
      "hit": false,
      "t": 182682.59800000116,
      "d": 1.0162583333440125,
      "v": 100
    },
    {
      "midi": 70,
      "hit": false,
      "t": 182682.5980000219,
      "d": 60.975500000000466,
      "v": 100
    },
    {
      "midi": 65,
      "hit": false,
      "t": 182682.5980000219,
      "d": 60.975500000000466,
      "v": 100
    },
    {
      "midi": 62,
      "hit": false,
      "t": 182682.5980000219,
      "d": 60.975500000000466,
      "v": 100
    },
    {
      "midi": 54,
      "hit": false,
      "t": 182804.5490000008,
      "d": 1.0162583333440125,
      "v": 60
    },
    {
      "midi": 82,
      "hit": false,
      "t": 182804.54900000087,
      "d": 121.95100000000093,
      "v": 100
    },
    {
      "midi": 70,
      "hit": false,
      "t": 182804.5490000011,
      "d": 121.95100000000093,
      "v": 100
    },
    {
      "midi": 65,
      "hit": false,
      "t": 182804.5490000011,
      "d": 121.95100000000093,
      "v": 100
    },
    {
      "midi": 62,
      "hit": false,
      "t": 182804.5490000011,
      "d": 121.95100000000093,
      "v": 100
    },
    {
      "midi": 44,
      "hit": false,
      "t": 182804.54900000116,
      "d": 1.0162583333440125,
      "v": 100
    },
    {
      "midi": 70,
      "hit": false,
      "t": 182804.5490000219,
      "d": 60.975500000000466,
      "v": 100
    },
    {
      "midi": 65,
      "hit": false,
      "t": 182804.5490000219,
      "d": 60.975500000000466,
      "v": 100
    },
    {
      "midi": 62,
      "hit": false,
      "t": 182804.5490000219,
      "d": 60.975500000000466,
      "v": 100
    },
    {
      "midi": 77,
      "hit": false,
      "t": 182926.5000000007,
      "d": 243.90200000000186,
      "v": 100
    },
    {
      "midi": 74,
      "hit": false,
      "t": 182926.5000000007,
      "d": 243.90200000000186,
      "v": 100
    },
    {
      "midi": 70,
      "hit": false,
      "t": 182926.5000000007,
      "d": 243.90200000000186,
      "v": 100
    },
    {
      "midi": 54,
      "hit": false,
      "t": 182926.50000000081,
      "d": 1.0162583333440125,
      "v": 80
    },
    {
      "midi": 77,
      "hit": false,
      "t": 182926.50000000084,
      "d": 243.90200000000186,
      "v": 100
    },
    {
      "midi": 72,
      "hit": false,
      "t": 182926.50000000084,
      "d": 243.90200000000186,
      "v": 100
    },
    {
      "midi": 77,
      "hit": false,
      "t": 182926.50000000087,
      "d": 121.95100000000093,
      "v": 100
    },
    {
      "midi": 34,
      "hit": false,
      "t": 182926.50000000087,
      "d": 243.90200000000186,
      "v": 100
    },
    {
      "midi": 33,
      "hit": false,
      "t": 182926.50000000116,
      "d": 1.0162583333440125,
      "v": 127
    },
    {
      "midi": 40,
      "hit": false,
      "t": 182926.50000000116,
      "d": 1.0162583333440125,
      "v": 100
    },
    {
      "midi": 46,
      "hit": false,
      "t": 182926.50000000116,
      "d": 1.0162583333440125,
      "v": 100
    },
    {
      "midi": 70,
      "hit": false,
      "t": 182926.50000002192,
      "d": 243.90199999985634,
      "v": 100
    },
    {
      "midi": 65,
      "hit": false,
      "t": 182926.50000002192,
      "d": 243.90199999985634,
      "v": 100
    },
    {
      "midi": 62,
      "hit": false,
      "t": 182926.50000002192,
      "d": 243.90199999985634,
      "v": 100
    },
    {
      "midi": 54,
      "hit": false,
      "t": 183048.45100000082,
      "d": 1.0162583333440125,
      "v": 60
    },
    {
      "midi": 77,
      "hit": false,
      "t": 183048.45100000087,
      "d": 121.95100000000093,
      "v": 100
    },
    {
      "midi": 44,
      "hit": false,
      "t": 183048.45100000117,
      "d": 1.0162583333440125,
      "v": 100
    },
    {
      "midi": 79,
      "hit": false,
      "t": 183170.4020000007,
      "d": 243.90200000000186,
      "v": 100
    },
    {
      "midi": 77,
      "hit": false,
      "t": 183170.4020000007,
      "d": 243.90200000000186,
      "v": 100
    },
    {
      "midi": 74,
      "hit": false,
      "t": 183170.4020000007,
      "d": 243.90200000000186,
      "v": 100
    },
    {
      "midi": 54,
      "hit": false,
      "t": 183170.40200000082,
      "d": 1.0162583333440125,
      "v": 60
    },
    {
      "midi": 79,
      "hit": false,
      "t": 183170.40200000085,
      "d": 243.90200000000186,
      "v": 100
    },
    {
      "midi": 74,
      "hit": false,
      "t": 183170.40200000085,
      "d": 243.90200000000186,
      "v": 100
    },
    {
      "midi": 79,
      "hit": false,
      "t": 183170.40200000087,
      "d": 121.95100000000093,
      "v": 100
    },
    {
      "midi": 34,
      "hit": false,
      "t": 183170.40200000087,
      "d": 243.90200000000186,
      "v": 100
    },
    {
      "midi": 40,
      "hit": false,
      "t": 183170.40200000117,
      "d": 1.0162583333440125,
      "v": 40
    },
    {
      "midi": 46,
      "hit": false,
      "t": 183170.40200000117,
      "d": 1.0162583333440125,
      "v": 100
    },
    {
      "midi": 70,
      "hit": false,
      "t": 183170.40200002177,
      "d": 60.975500000000466,
      "v": 100
    },
    {
      "midi": 65,
      "hit": false,
      "t": 183170.40200002177,
      "d": 60.975500000000466,
      "v": 100
    },
    {
      "midi": 62,
      "hit": false,
      "t": 183170.40200002177,
      "d": 60.975500000000466,
      "v": 100
    },
    {
      "midi": 54,
      "hit": false,
      "t": 183292.35300000082,
      "d": 1.0162583333440125,
      "v": 60
    },
    {
      "midi": 79,
      "hit": false,
      "t": 183292.35300000088,
      "d": 121.95100000000093,
      "v": 100
    },
    {
      "midi": 40,
      "hit": false,
      "t": 183292.35300000117,
      "d": 1.0162583333440125,
      "v": 100
    },
    {
      "midi": 44,
      "hit": false,
      "t": 183292.35300000117,
      "d": 1.0162583333440125,
      "v": 100
    },
    {
      "midi": 70,
      "hit": false,
      "t": 183292.35300002177,
      "d": 60.975500000000466,
      "v": 100
    },
    {
      "midi": 65,
      "hit": false,
      "t": 183292.35300002177,
      "d": 60.975500000000466,
      "v": 100
    },
    {
      "midi": 62,
      "hit": false,
      "t": 183292.35300002177,
      "d": 60.975500000000466,
      "v": 100
    },
    {
      "midi": 79,
      "hit": false,
      "t": 183414.30399999997,
      "d": 1951.2159999999858,
      "v": 127
    },
    {
      "midi": 79,
      "hit": false,
      "t": 183414.3040000007,
      "d": 243.90200000000186,
      "v": 100
    },
    {
      "midi": 75,
      "hit": false,
      "t": 183414.3040000007,
      "d": 243.90200000000186,
      "v": 100
    },
    {
      "midi": 70,
      "hit": false,
      "t": 183414.3040000007,
      "d": 243.90200000000186,
      "v": 100
    },
    {
      "midi": 54,
      "hit": false,
      "t": 183414.30400000082,
      "d": 1.0162583333440125,
      "v": 80
    },
    {
      "midi": 77,
      "hit": false,
      "t": 183414.30400000085,
      "d": 243.90200000000186,
      "v": 100
    },
    {
      "midi": 72,
      "hit": false,
      "t": 183414.30400000085,
      "d": 243.90200000000186,
      "v": 100
    },
    {
      "midi": 75,
      "hit": false,
      "t": 183414.30400000088,
      "d": 121.95100000000093,
      "v": 100
    },
    {
      "midi": 27,
      "hit": false,
      "t": 183414.30400000088,
      "d": 243.90200000000186,
      "v": 100
    },
    {
      "midi": 33,
      "hit": false,
      "t": 183414.30400000117,
      "d": 1.0162583333440125,
      "v": 127
    },
    {
      "midi": 42,
      "hit": false,
      "t": 183414.30400000117,
      "d": 1.0162583333440125,
      "v": 100
    },
    {
      "midi": 39,
      "hit": false,
      "t": 183414.30400000353,
      "d": 1219.5100000000093,
      "v": 100
    },
    {
      "midi": 46,
      "hit": false,
      "t": 183414.30400000353,
      "d": 1219.5100000000093,
      "v": 100
    },
    {
      "midi": 67,
      "hit": false,
      "t": 183414.30400002177,
      "d": 487.8040000000037,
      "v": 100
    },
    {
      "midi": 58,
      "hit": false,
      "t": 183414.30400002177,
      "d": 487.8040000000037,
      "v": 100
    },
    {
      "midi": 63,
      "hit": false,
      "t": 183414.30400002177,
      "d": 487.8040000000037,
      "v": 100
    },
    {
      "midi": 67,
      "hit": false,
      "t": 183536.2550000011,
      "d": 121.95100000000093,
      "v": 100
    },
    {
      "midi": 63,
      "hit": false,
      "t": 183536.2550000011,
      "d": 121.95100000000093,
      "v": 100
    },
    {
      "midi": 58,
      "hit": false,
      "t": 183536.2550000011,
      "d": 121.95100000000093,
      "v": 100
    },
    {
      "midi": 40,
      "hit": false,
      "t": 183536.25500000117,
      "d": 1.0162583333440125,
      "v": 100
    },
    {
      "midi": 75,
      "hit": false,
      "t": 183658.20600000085,
      "d": 121.95100000000093,
      "v": 100
    },
    {
      "midi": 70,
      "hit": false,
      "t": 183658.20600000085,
      "d": 121.95100000000093,
      "v": 100
    },
    {
      "midi": 27,
      "hit": false,
      "t": 183658.20600000088,
      "d": 20.325166666676523,
      "v": 100
    },
    {
      "midi": 67,
      "hit": false,
      "t": 183658.2060000011,
      "d": 121.95100000000093,
      "v": 100
    },
    {
      "midi": 63,
      "hit": false,
      "t": 183658.2060000011,
      "d": 121.95100000000093,
      "v": 100
    },
    {
      "midi": 58,
      "hit": false,
      "t": 183658.2060000011,
      "d": 121.95100000000093,
      "v": 100
    },
    {
      "midi": 46,
      "hit": false,
      "t": 183658.20600000117,
      "d": 1.0162583333440125,
      "v": 100
    },
    {
      "midi": 75,
      "hit": false,
      "t": 183780.15700000085,
      "d": 1585.363000000012,
      "v": 100
    },
    {
      "midi": 70,
      "hit": false,
      "t": 183780.15700000085,
      "d": 1585.363000000012,
      "v": 100
    },
    {
      "midi": 27,
      "hit": false,
      "t": 183780.15700000088,
      "d": 243.90200000000186,
      "v": 100
    },
    {
      "midi": 44,
      "hit": false,
      "t": 183780.15700000117,
      "d": 1.0162583333440125,
      "v": 100
    },
    {
      "midi": 36,
      "hit": false,
      "t": 183902.1080000007,
      "d": 1463.4120000000112,
      "v": 100
    },
    {
      "midi": 67,
      "hit": false,
      "t": 183902.1080000011,
      "d": 121.95100000000093,
      "v": 100
    },
    {
      "midi": 63,
      "hit": false,
      "t": 183902.1080000011,
      "d": 121.95100000000093,
      "v": 100
    },
    {
      "midi": 58,
      "hit": false,
      "t": 183902.1080000011,
      "d": 121.95100000000093,
      "v": 100
    },
    {
      "midi": 46,
      "hit": false,
      "t": 183902.10800000117,
      "d": 1.0162583333440125,
      "v": 100
    },
    {
      "midi": 40,
      "hit": false,
      "t": 183902.10800000117,
      "d": 1.0162583333440125,
      "v": 100
    },
    {
      "midi": 67,
      "hit": false,
      "t": 183902.10800002178,
      "d": 60.97549999988405,
      "v": 100
    },
    {
      "midi": 58,
      "hit": false,
      "t": 183902.10800002178,
      "d": 60.97549999988405,
      "v": 100
    },
    {
      "midi": 63,
      "hit": false,
      "t": 183902.10800002178,
      "d": 60.97549999988405,
      "v": 100
    },
    {
      "midi": 39,
      "hit": false,
      "t": 183963.0835000007,
      "d": 182.9265000000014,
      "v": 100
    },
    {
      "midi": 41,
      "hit": false,
      "t": 184024.0590000007,
      "d": 182.9265000000014,
      "v": 100
    },
    {
      "midi": 27,
      "hit": false,
      "t": 184024.05900000088,
      "d": 20.325166666676523,
      "v": 100
    },
    {
      "midi": 67,
      "hit": false,
      "t": 184024.0590000011,
      "d": 121.95100000000093,
      "v": 100
    },
    {
      "midi": 63,
      "hit": false,
      "t": 184024.0590000011,
      "d": 121.95100000000093,
      "v": 100
    },
    {
      "midi": 58,
      "hit": false,
      "t": 184024.0590000011,
      "d": 121.95100000000093,
      "v": 100
    },
    {
      "midi": 44,
      "hit": false,
      "t": 184024.05900000117,
      "d": 1.0162583333440125,
      "v": 100
    },
    {
      "midi": 67,
      "hit": false,
      "t": 184024.05900002166,
      "d": 60.975500000000466,
      "v": 100
    },
    {
      "midi": 58,
      "hit": false,
      "t": 184024.05900002166,
      "d": 60.975500000000466,
      "v": 100
    },
    {
      "midi": 63,
      "hit": false,
      "t": 184024.05900002166,
      "d": 60.975500000000466,
      "v": 100
    },
    {
      "midi": 43,
      "hit": false,
      "t": 184085.0345000007,
      "d": 182.9265000000014,
      "v": 100
    },
    {
      "midi": 46,
      "hit": false,
      "t": 184146.0100000007,
      "d": 182.9265000000014,
      "v": 100
    },
    {
      "midi": 27,
      "hit": false,
      "t": 184146.01000000088,
      "d": 243.90200000000186,
      "v": 100
    },
    {
      "midi": 46,
      "hit": false,
      "t": 184146.01000000117,
      "d": 1.0162583333440125,
      "v": 100
    },
    {
      "midi": 67,
      "hit": false,
      "t": 184146.01000002158,
      "d": 60.975500000000466,
      "v": 100
    },
    {
      "midi": 58,
      "hit": false,
      "t": 184146.01000002158,
      "d": 60.975500000000466,
      "v": 100
    },
    {
      "midi": 63,
      "hit": false,
      "t": 184146.01000002158,
      "d": 60.975500000000466,
      "v": 100
    },
    {
      "midi": 48,
      "hit": false,
      "t": 184206.9855000007,
      "d": 182.9265000000014,
      "v": 100
    },
    {
      "midi": 51,
      "hit": false,
      "t": 184267.9610000007,
      "d": 182.9265000000014,
      "v": 100
    },
    {
      "midi": 67,
      "hit": false,
      "t": 184267.96100000112,
      "d": 121.95100000000093,
      "v": 100
    },
    {
      "midi": 63,
      "hit": false,
      "t": 184267.96100000112,
      "d": 121.95100000000093,
      "v": 100
    },
    {
      "midi": 58,
      "hit": false,
      "t": 184267.96100000112,
      "d": 121.95100000000093,
      "v": 100
    },
    {
      "midi": 44,
      "hit": false,
      "t": 184267.96100000117,
      "d": 1.0162583333440125,
      "v": 100
    },
    {
      "midi": 40,
      "hit": false,
      "t": 184267.96100000117,
      "d": 1.0162583333440125,
      "v": 100
    },
    {
      "midi": 67,
      "hit": false,
      "t": 184267.96100002158,
      "d": 60.975500000000466,
      "v": 100
    },
    {
      "midi": 58,
      "hit": false,
      "t": 184267.96100002158,
      "d": 60.975500000000466,
      "v": 100
    },
    {
      "midi": 63,
      "hit": false,
      "t": 184267.96100002158,
      "d": 60.975500000000466,
      "v": 100
    },
    {
      "midi": 53,
      "hit": false,
      "t": 184328.9365000007,
      "d": 182.9265000000014,
      "v": 100
    },
    {
      "midi": 40,
      "hit": false,
      "t": 184339.09908333453,
      "d": 1.0162583333440125,
      "v": 100
    },
    {
      "midi": 55,
      "hit": false,
      "t": 184389.9120000007,
      "d": 182.9265000000014,
      "v": 100
    },
    {
      "midi": 27,
      "hit": false,
      "t": 184389.91200000088,
      "d": 20.325166666676523,
      "v": 100
    },
    {
      "midi": 67,
      "hit": false,
      "t": 184389.91200000112,
      "d": 121.95100000000093,
      "v": 100
    },
    {
      "midi": 63,
      "hit": false,
      "t": 184389.91200000112,
      "d": 121.95100000000093,
      "v": 100
    },
    {
      "midi": 58,
      "hit": false,
      "t": 184389.91200000112,
      "d": 121.95100000000093,
      "v": 100
    },
    {
      "midi": 42,
      "hit": false,
      "t": 184389.9120000012,
      "d": 1.0162583333440125,
      "v": 100
    },
    {
      "midi": 40,
      "hit": false,
      "t": 184389.9120000012,
      "d": 1.0162583333440125,
      "v": 100
    },
    {
      "midi": 67,
      "hit": false,
      "t": 184389.91200002158,
      "d": 60.97549999988405,
      "v": 100
    },
    {
      "midi": 58,
      "hit": false,
      "t": 184389.91200002158,
      "d": 60.97549999988405,
      "v": 100
    },
    {
      "midi": 63,
      "hit": false,
      "t": 184389.91200002158,
      "d": 60.97549999988405,
      "v": 100
    },
    {
      "midi": 58,
      "hit": false,
      "t": 184450.8875000007,
      "d": 182.9265000000014,
      "v": 100
    },
    {
      "midi": 60,
      "hit": false,
      "t": 184511.8630000007,
      "d": 182.9265000000014,
      "v": 100
    },
    {
      "midi": 27,
      "hit": false,
      "t": 184511.86300000089,
      "d": 243.90200000000186,
      "v": 100
    },
    {
      "midi": 67,
      "hit": false,
      "t": 184511.86300002146,
      "d": 60.975500000000466,
      "v": 100
    },
    {
      "midi": 58,
      "hit": false,
      "t": 184511.86300002146,
      "d": 60.975500000000466,
      "v": 100
    },
    {
      "midi": 63,
      "hit": false,
      "t": 184511.86300002146,
      "d": 60.975500000000466,
      "v": 100
    },
    {
      "midi": 63,
      "hit": false,
      "t": 184572.8385000007,
      "d": 182.9265000000014,
      "v": 100
    },
    {
      "midi": 65,
      "hit": false,
      "t": 184633.8140000007,
      "d": 182.9265000000014,
      "v": 100
    },
    {
      "midi": 67,
      "hit": false,
      "t": 184633.81400000112,
      "d": 121.95100000000093,
      "v": 100
    },
    {
      "midi": 63,
      "hit": false,
      "t": 184633.81400000112,
      "d": 121.95100000000093,
      "v": 100
    },
    {
      "midi": 58,
      "hit": false,
      "t": 184633.81400000112,
      "d": 121.95100000000093,
      "v": 100
    },
    {
      "midi": 46,
      "hit": false,
      "t": 184633.8140000012,
      "d": 1.0162583333440125,
      "v": 100
    },
    {
      "midi": 55,
      "hit": false,
      "t": 184633.81400000353,
      "d": 731.7060000003839,
      "v": 100
    },
    {
      "midi": 51,
      "hit": false,
      "t": 184633.81400000353,
      "d": 731.7060000003839,
      "v": 100
    },
    {
      "midi": 67,
      "hit": false,
      "t": 184633.81400002138,
      "d": 60.975500000000466,
      "v": 100
    },
    {
      "midi": 58,
      "hit": false,
      "t": 184633.81400002138,
      "d": 60.975500000000466,
      "v": 100
    },
    {
      "midi": 63,
      "hit": false,
      "t": 184633.81400002138,
      "d": 60.975500000000466,
      "v": 100
    },
    {
      "midi": 67,
      "hit": false,
      "t": 184694.7895000007,
      "d": 182.9265000000014,
      "v": 100
    },
    {
      "midi": 70,
      "hit": false,
      "t": 184755.7650000007,
      "d": 182.9265000000014,
      "v": 100
    },
    {
      "midi": 27,
      "hit": false,
      "t": 184755.7650000009,
      "d": 20.325166666676523,
      "v": 100
    },
    {
      "midi": 67,
      "hit": false,
      "t": 184755.76500000112,
      "d": 121.95100000000093,
      "v": 100
    },
    {
      "midi": 63,
      "hit": false,
      "t": 184755.76500000112,
      "d": 121.95100000000093,
      "v": 100
    },
    {
      "midi": 58,
      "hit": false,
      "t": 184755.76500000112,
      "d": 121.95100000000093,
      "v": 100
    },
    {
      "midi": 44,
      "hit": false,
      "t": 184755.7650000012,
      "d": 1.0162583333440125,
      "v": 100
    },
    {
      "midi": 67,
      "hit": false,
      "t": 184755.76500002138,
      "d": 60.975500000000466,
      "v": 100
    },
    {
      "midi": 58,
      "hit": false,
      "t": 184755.76500002138,
      "d": 60.975500000000466,
      "v": 100
    },
    {
      "midi": 63,
      "hit": false,
      "t": 184755.76500002138,
      "d": 60.975500000000466,
      "v": 100
    },
    {
      "midi": 72,
      "hit": false,
      "t": 184816.7405000007,
      "d": 182.9265000000014,
      "v": 100
    },
    {
      "midi": 75,
      "hit": false,
      "t": 184877.7160000007,
      "d": 182.9265000000014,
      "v": 100
    },
    {
      "midi": 27,
      "hit": false,
      "t": 184877.7160000009,
      "d": 243.90200000000186,
      "v": 100
    },
    {
      "midi": 40,
      "hit": false,
      "t": 184877.7160000012,
      "d": 1.0162583333440125,
      "v": 100
    },
    {
      "midi": 46,
      "hit": false,
      "t": 184877.7160000012,
      "d": 1.0162583333440125,
      "v": 100
    },
    {
      "midi": 57,
      "hit": false,
      "t": 184877.7160000012,
      "d": 1.0162583333440125,
      "v": 100
    },
    {
      "midi": 67,
      "hit": false,
      "t": 184877.71600002138,
      "d": 243.90199999985634,
      "v": 100
    },
    {
      "midi": 58,
      "hit": false,
      "t": 184877.71600002138,
      "d": 243.90199999985634,
      "v": 100
    },
    {
      "midi": 63,
      "hit": false,
      "t": 184877.71600002138,
      "d": 243.90199999985634,
      "v": 100
    },
    {
      "midi": 77,
      "hit": false,
      "t": 184938.6915000007,
      "d": 182.9265000000014,
      "v": 100
    },
    {
      "midi": 79,
      "hit": false,
      "t": 184999.6670000007,
      "d": 182.9265000000014,
      "v": 100
    },
    {
      "midi": 44,
      "hit": false,
      "t": 184999.6670000012,
      "d": 1.0162583333440125,
      "v": 100
    },
    {
      "midi": 82,
      "hit": false,
      "t": 185060.64250000071,
      "d": 182.9265000000014,
      "v": 100
    },
    {
      "midi": 84,
      "hit": false,
      "t": 185121.61800000072,
      "d": 182.9265000000014,
      "v": 100
    },
    {
      "midi": 27,
      "hit": false,
      "t": 185121.6180000009,
      "d": 243.90200000000186,
      "v": 100
    },
    {
      "midi": 40,
      "hit": false,
      "t": 185121.6180000012,
      "d": 1.0162583333440125,
      "v": 100
    },
    {
      "midi": 46,
      "hit": false,
      "t": 185121.6180000012,
      "d": 1.0162583333440125,
      "v": 100
    },
    {
      "midi": 67,
      "hit": false,
      "t": 185121.61800002123,
      "d": 60.975500000000466,
      "v": 100
    },
    {
      "midi": 58,
      "hit": false,
      "t": 185121.61800002123,
      "d": 60.975500000000466,
      "v": 100
    },
    {
      "midi": 63,
      "hit": false,
      "t": 185121.61800002123,
      "d": 60.975500000000466,
      "v": 100
    },
    {
      "midi": 87,
      "hit": false,
      "t": 185182.59350000072,
      "d": 182.9265000000014,
      "v": 100
    },
    {
      "midi": 89,
      "hit": false,
      "t": 185243.56900000072,
      "d": 182.9265000000014,
      "v": 100
    },
    {
      "midi": 40,
      "hit": false,
      "t": 185243.5690000012,
      "d": 1.0162583333440125,
      "v": 100
    },
    {
      "midi": 44,
      "hit": false,
      "t": 185243.5690000012,
      "d": 1.0162583333440125,
      "v": 100
    },
    {
      "midi": 67,
      "hit": false,
      "t": 185243.56900002123,
      "d": 60.975500000000466,
      "v": 100
    },
    {
      "midi": 58,
      "hit": false,
      "t": 185243.56900002123,
      "d": 60.975500000000466,
      "v": 100
    },
    {
      "midi": 63,
      "hit": false,
      "t": 185243.56900002123,
      "d": 60.975500000000466,
      "v": 100
    },
    {
      "midi": 91,
      "hit": false,
      "t": 185304.54450000072,
      "d": 182.9265000000014,
      "v": 100
    },
    {
      "midi": 63,
      "hit": false,
      "t": 185365.52,
      "d": 487.8040000000037,
      "v": 100
    },
    {
      "midi": 60,
      "hit": false,
      "t": 185365.52,
      "d": 487.8040000000037,
      "v": 100
    },
    {
      "midi": 48,
      "hit": false,
      "t": 185365.52,
      "d": 731.7060000000056,
      "v": 100
    },
    {
      "midi": 72,
      "hit": false,
      "t": 185365.52000000072,
      "d": 487.8040000000037,
      "v": 100
    },
    {
      "midi": 55,
      "hit": false,
      "t": 185609.422,
      "d": 487.8040000000037,
      "v": 100
    },
    {
      "midi": 63,
      "hit": false,
      "t": 185853.324,
      "d": 487.8040000000037,
      "v": 100
    },
    {
      "midi": 72,
      "hit": false,
      "t": 185853.32400000072,
      "d": 243.90200000000186,
      "v": 100
    },
    {
      "midi": 60,
      "hit": false,
      "t": 186097.226,
      "d": 243.90200000000186,
      "v": 100
    },
    {
      "midi": 75,
      "hit": false,
      "t": 186097.22600000072,
      "d": 243.90200000000186,
      "v": 100
    },
    {
      "midi": 56,
      "hit": false,
      "t": 186341.128,
      "d": 487.8040000000037,
      "v": 100
    },
    {
      "midi": 44,
      "hit": false,
      "t": 186341.128,
      "d": 731.7060000000056,
      "v": 100
    },
    {
      "midi": 72,
      "hit": false,
      "t": 186341.12800000072,
      "d": 731.7060000000056,
      "v": 100
    },
    {
      "midi": 51,
      "hit": false,
      "t": 186585.03,
      "d": 487.8040000000037,
      "v": 100
    },
    {
      "midi": 63,
      "hit": false,
      "t": 186828.932,
      "d": 487.8040000000037,
      "v": 100
    },
    {
      "midi": 60,
      "hit": false,
      "t": 187072.834,
      "d": 243.90200000000186,
      "v": 100
    },
    {
      "midi": 75,
      "hit": false,
      "t": 187072.83400000073,
      "d": 243.90200000000186,
      "v": 100
    },
    {
      "midi": 58,
      "hit": false,
      "t": 187316.736,
      "d": 487.8040000000037,
      "v": 100
    },
    {
      "midi": 46,
      "hit": false,
      "t": 187316.736,
      "d": 731.7060000000056,
      "v": 100
    },
    {
      "midi": 74,
      "hit": false,
      "t": 187316.73600000073,
      "d": 487.8040000000037,
      "v": 100
    },
    {
      "midi": 55,
      "hit": false,
      "t": 187560.638,
      "d": 487.8040000000037,
      "v": 100
    },
    {
      "midi": 65,
      "hit": false,
      "t": 187804.54,
      "d": 487.8040000000037,
      "v": 100
    },
    {
      "midi": 70,
      "hit": false,
      "t": 187804.54000000074,
      "d": 243.90200000000186,
      "v": 100
    },
    {
      "midi": 62,
      "hit": false,
      "t": 188048.442,
      "d": 243.90200000000186,
      "v": 100
    },
    {
      "midi": 67,
      "hit": false,
      "t": 188048.44200000074,
      "d": 243.90200000000186,
      "v": 100
    },
    {
      "midi": 58,
      "hit": false,
      "t": 188292.344,
      "d": 487.8040000000037,
      "v": 100
    },
    {
      "midi": 43,
      "hit": false,
      "t": 188292.344,
      "d": 731.7060000000056,
      "v": 100
    },
    {
      "midi": 70,
      "hit": false,
      "t": 188292.34400000074,
      "d": 487.8040000000037,
      "v": 100
    },
    {
      "midi": 55,
      "hit": false,
      "t": 188536.246,
      "d": 487.8040000000037,
      "v": 100
    },
    {
      "midi": 62,
      "hit": false,
      "t": 188780.14800000002,
      "d": 487.8040000000037,
      "v": 100
    },
    {
      "midi": 68,
      "hit": false,
      "t": 188780.14800000074,
      "d": 243.90200000000186,
      "v": 100
    },
    {
      "midi": 58,
      "hit": false,
      "t": 189024.05000000002,
      "d": 243.90200000000186,
      "v": 100
    },
    {
      "midi": 70,
      "hit": false,
      "t": 189024.05000000075,
      "d": 243.90200000000186,
      "v": 100
    },
    {
      "midi": 56,
      "hit": false,
      "t": 189267.95200000002,
      "d": 487.8040000000037,
      "v": 100
    },
    {
      "midi": 44,
      "hit": false,
      "t": 189267.95200000002,
      "d": 853.6570000000065,
      "v": 100
    },
    {
      "midi": 68,
      "hit": false,
      "t": 189267.95200000075,
      "d": 487.8040000000037,
      "v": 100
    },
    {
      "midi": 72,
      "hit": false,
      "t": 189267.95200000075,
      "d": 487.8040000000037,
      "v": 100
    },
    {
      "midi": 51,
      "hit": false,
      "t": 189511.85400000002,
      "d": 487.8040000000037,
      "v": 100
    },
    {
      "midi": 63,
      "hit": false,
      "t": 189755.75600000002,
      "d": 487.8040000000037,
      "v": 100
    },
    {
      "midi": 63,
      "hit": false,
      "t": 189755.75600000075,
      "d": 487.8040000000037,
      "v": 100
    },
    {
      "midi": 60,
      "hit": false,
      "t": 189999.65800000002,
      "d": 243.90200000000186,
      "v": 100
    },
    {
      "midi": 72,
      "hit": false,
      "t": 189999.65800000075,
      "d": 243.90200000000186,
      "v": 100
    },
    {
      "midi": 53,
      "hit": false,
      "t": 190243.56000000003,
      "d": 487.8040000000037,
      "v": 100
    },
    {
      "midi": 41,
      "hit": false,
      "t": 190243.56000000003,
      "d": 731.7060000000056,
      "v": 100
    },
    {
      "midi": 65,
      "hit": false,
      "t": 190243.56000000075,
      "d": 487.8040000000037,
      "v": 100
    },
    {
      "midi": 48,
      "hit": false,
      "t": 190487.46200000003,
      "d": 487.8040000000037,
      "v": 100
    },
    {
      "midi": 60,
      "hit": false,
      "t": 190731.36400000003,
      "d": 487.8040000000037,
      "v": 100
    },
    {
      "midi": 63,
      "hit": false,
      "t": 190731.36400000076,
      "d": 243.90200000000186,
      "v": 100
    },
    {
      "midi": 56,
      "hit": false,
      "t": 190975.26600000003,
      "d": 243.90200000000186,
      "v": 100
    },
    {
      "midi": 65,
      "hit": false,
      "t": 190975.26600000076,
      "d": 243.90200000000186,
      "v": 100
    },
    {
      "midi": 79,
      "hit": false,
      "t": 191219.16799999995,
      "d": 2926.8239999999932,
      "v": 100
    },
    {
      "midi": 55,
      "hit": false,
      "t": 191219.16800000003,
      "d": 487.8040000000037,
      "v": 100
    },
    {
      "midi": 43,
      "hit": false,
      "t": 191219.16800000003,
      "d": 1585.363000000012,
      "v": 100
    },
    {
      "midi": 67,
      "hit": false,
      "t": 191219.16800000076,
      "d": 487.8040000000037,
      "v": 100
    },
    {
      "midi": 58,
      "hit": false,
      "t": 191463.07000000004,
      "d": 487.8040000000037,
      "v": 100
    },
    {
      "midi": 62,
      "hit": false,
      "t": 191706.97200000004,
      "d": 487.8040000000037,
      "v": 100
    },
    {
      "midi": 74,
      "hit": false,
      "t": 191706.97200000077,
      "d": 243.90200000000186,
      "v": 100
    },
    {
      "midi": 65,
      "hit": false,
      "t": 191950.87400000004,
      "d": 487.8040000000037,
      "v": 100
    },
    {
      "midi": 70,
      "hit": false,
      "t": 191950.87400000077,
      "d": 243.90200000000186,
      "v": 100
    },
    {
      "midi": 33,
      "hit": false,
      "t": 191991.52433333456,
      "d": 1.0162583333440125,
      "v": 10
    },
    {
      "midi": 33,
      "hit": false,
      "t": 192032.1746666679,
      "d": 1.0162583333440125,
      "v": 20
    },
    {
      "midi": 33,
      "hit": false,
      "t": 192072.82500000126,
      "d": 1.0162583333440125,
      "v": 30
    },
    {
      "midi": 33,
      "hit": false,
      "t": 192113.47533333462,
      "d": 1.0162583333440125,
      "v": 40
    },
    {
      "midi": 33,
      "hit": false,
      "t": 192154.12566666797,
      "d": 1.0162583333440125,
      "v": 50
    },
    {
      "midi": 67,
      "hit": false,
      "t": 192194.77600000004,
      "d": 487.8040000000037,
      "v": 100
    },
    {
      "midi": 70,
      "hit": false,
      "t": 192194.77600000077,
      "d": 487.8040000000037,
      "v": 100
    },
    {
      "midi": 33,
      "hit": false,
      "t": 192194.77600000132,
      "d": 1.0162583333440125,
      "v": 60
    },
    {
      "midi": 33,
      "hit": false,
      "t": 192235.42633333468,
      "d": 1.0162583333440125,
      "v": 70
    },
    {
      "midi": 33,
      "hit": false,
      "t": 192276.07666666803,
      "d": 1.0162583333440125,
      "v": 80
    },
    {
      "midi": 33,
      "hit": false,
      "t": 192316.72700000138,
      "d": 1.0162583333440125,
      "v": 90
    },
    {
      "midi": 33,
      "hit": false,
      "t": 192357.37733333473,
      "d": 1.0162583333440125,
      "v": 100
    },
    {
      "midi": 33,
      "hit": false,
      "t": 192398.0276666681,
      "d": 1.0162583333440125,
      "v": 100
    },
    {
      "midi": 62,
      "hit": false,
      "t": 192438.67800000004,
      "d": 487.8040000000037,
      "v": 100
    },
    {
      "midi": 33,
      "hit": false,
      "t": 192438.67800000144,
      "d": 1.0162583333440125,
      "v": 100
    },
    {
      "midi": 33,
      "hit": false,
      "t": 192479.3283333348,
      "d": 1.0162583333440125,
      "v": 110
    },
    {
      "midi": 33,
      "hit": false,
      "t": 192519.97866666815,
      "d": 1.0162583333440125,
      "v": 120
    },
    {
      "midi": 33,
      "hit": false,
      "t": 192560.6290000015,
      "d": 1.0162583333440125,
      "v": 100
    },
    {
      "midi": 33,
      "hit": false,
      "t": 192601.27933333485,
      "d": 1.0162583333440125,
      "v": 100
    },
    {
      "midi": 58,
      "hit": false,
      "t": 192682.58000000005,
      "d": 487.8040000000037,
      "v": 100
    },
    {
      "midi": 68,
      "hit": false,
      "t": 192682.58000000077,
      "d": 243.90200000000186,
      "v": 100
    },
    {
      "midi": 33,
      "hit": false,
      "t": 192682.58000000153,
      "d": 1.0162583333440125,
      "v": 100
    },
    {
      "midi": 33,
      "hit": false,
      "t": 192804.53100000153,
      "d": 1.0162583333440125,
      "v": 100
    },
    {
      "midi": 55,
      "hit": false,
      "t": 192926.48200000005,
      "d": 121.95100000000093,
      "v": 100
    },
    {
      "midi": 71,
      "hit": false,
      "t": 192926.48200000077,
      "d": 243.90200000000186,
      "v": 100
    },
    {
      "midi": 33,
      "hit": false,
      "t": 192926.48200000153,
      "d": 1.0162583333440125,
      "v": 100
    },
    {
      "midi": 33,
      "hit": false,
      "t": 193048.43300000153,
      "d": 1.0162583333440125,
      "v": 100
    },
    {
      "midi": 64,
      "hit": false,
      "t": 193170.38400000005,
      "d": 487.8040000000037,
      "v": 100
    },
    {
      "midi": 61,
      "hit": false,
      "t": 193170.38400000005,
      "d": 487.8040000000037,
      "v": 100
    },
    {
      "midi": 49,
      "hit": false,
      "t": 193170.38400000005,
      "d": 731.7060000000056,
      "v": 100
    },
    {
      "midi": 73,
      "hit": false,
      "t": 193170.38400000078,
      "d": 487.8040000000037,
      "v": 100
    },
    {
      "midi": 33,
      "hit": false,
      "t": 193170.38400000153,
      "d": 1.0162583333440125,
      "v": 127
    },
    {
      "midi": 44,
      "hit": false,
      "t": 193170.38400000153,
      "d": 1.0162583333440125,
      "v": 127
    },
    {
      "midi": 57,
      "hit": false,
      "t": 193170.38400000153,
      "d": 1.0162583333440125,
      "v": 127
    },
    {
      "midi": 73,
      "hit": false,
      "t": 193170.38400002124,
      "d": 487.80400000003283,
      "v": 100
    },
    {
      "midi": 68,
      "hit": false,
      "t": 193170.38400002124,
      "d": 487.80400000003283,
      "v": 100
    },
    {
      "midi": 64,
      "hit": false,
      "t": 193170.38400002124,
      "d": 487.80400000003283,
      "v": 100
    },
    {
      "midi": 44,
      "hit": false,
      "t": 193292.33500000153,
      "d": 1.0162583333440125,
      "v": 70
    },
    {
      "midi": 56,
      "hit": false,
      "t": 193414.28600000005,
      "d": 487.8040000000037,
      "v": 100
    },
    {
      "midi": 46,
      "hit": false,
      "t": 193414.28600000154,
      "d": 1.0162583333440125,
      "v": 100
    },
    {
      "midi": 64,
      "hit": false,
      "t": 193658.18800000005,
      "d": 487.8040000000037,
      "v": 100
    },
    {
      "midi": 73,
      "hit": false,
      "t": 193658.18800000078,
      "d": 243.90200000000186,
      "v": 100
    },
    {
      "midi": 33,
      "hit": false,
      "t": 193658.18800000154,
      "d": 1.0162583333440125,
      "v": 127
    },
    {
      "midi": 44,
      "hit": false,
      "t": 193658.18800000154,
      "d": 1.0162583333440125,
      "v": 127
    },
    {
      "midi": 73,
      "hit": false,
      "t": 193658.18800002127,
      "d": 60.97549999988405,
      "v": 100
    },
    {
      "midi": 68,
      "hit": false,
      "t": 193658.18800002127,
      "d": 60.97549999988405,
      "v": 100
    },
    {
      "midi": 64,
      "hit": false,
      "t": 193658.18800002127,
      "d": 60.97549999988405,
      "v": 100
    },
    {
      "midi": 44,
      "hit": false,
      "t": 193780.13900000154,
      "d": 1.0162583333440125,
      "v": 70
    },
    {
      "midi": 73,
      "hit": false,
      "t": 193780.13900002115,
      "d": 60.975500000000466,
      "v": 100
    },
    {
      "midi": 68,
      "hit": false,
      "t": 193780.13900002115,
      "d": 60.975500000000466,
      "v": 100
    },
    {
      "midi": 64,
      "hit": false,
      "t": 193780.13900002115,
      "d": 60.975500000000466,
      "v": 100
    },
    {
      "midi": 61,
      "hit": false,
      "t": 193902.09000000005,
      "d": 243.90200000000186,
      "v": 100
    },
    {
      "midi": 76,
      "hit": false,
      "t": 193902.09000000078,
      "d": 243.90200000000186,
      "v": 100
    },
    {
      "midi": 46,
      "hit": false,
      "t": 193902.09000000154,
      "d": 1.0162583333440125,
      "v": 100
    },
    {
      "midi": 73,
      "hit": false,
      "t": 193902.09000002104,
      "d": 60.975500000000466,
      "v": 100
    },
    {
      "midi": 68,
      "hit": false,
      "t": 193902.09000002104,
      "d": 60.975500000000466,
      "v": 100
    },
    {
      "midi": 64,
      "hit": false,
      "t": 193902.09000002104,
      "d": 60.975500000000466,
      "v": 100
    },
    {
      "midi": 73,
      "hit": false,
      "t": 194024.04100002104,
      "d": 60.975500000000466,
      "v": 100
    },
    {
      "midi": 68,
      "hit": false,
      "t": 194024.04100002104,
      "d": 60.975500000000466,
      "v": 100
    },
    {
      "midi": 64,
      "hit": false,
      "t": 194024.04100002104,
      "d": 60.975500000000466,
      "v": 100
    },
    {
      "midi": 57,
      "hit": false,
      "t": 194145.99200000006,
      "d": 487.8040000000037,
      "v": 100
    },
    {
      "midi": 45,
      "hit": false,
      "t": 194145.99200000006,
      "d": 731.7060000000056,
      "v": 100
    },
    {
      "midi": 73,
      "hit": false,
      "t": 194145.99200000078,
      "d": 731.7060000000056,
      "v": 100
    },
    {
      "midi": 33,
      "hit": false,
      "t": 194145.99200000154,
      "d": 1.0162583333440125,
      "v": 127
    },
    {
      "midi": 44,
      "hit": false,
      "t": 194145.99200000154,
      "d": 1.0162583333440125,
      "v": 127
    },
    {
      "midi": 69,
      "hit": false,
      "t": 194145.99200002104,
      "d": 60.97549999988405,
      "v": 100
    },
    {
      "midi": 64,
      "hit": false,
      "t": 194145.99200002104,
      "d": 60.97549999988405,
      "v": 100
    },
    {
      "midi": 61,
      "hit": false,
      "t": 194145.99200002104,
      "d": 60.97549999988405,
      "v": 100
    },
    {
      "midi": 44,
      "hit": false,
      "t": 194267.94300000154,
      "d": 1.0162583333440125,
      "v": 70
    },
    {
      "midi": 69,
      "hit": false,
      "t": 194267.94300002092,
      "d": 60.975500000000466,
      "v": 100
    },
    {
      "midi": 64,
      "hit": false,
      "t": 194267.94300002092,
      "d": 60.975500000000466,
      "v": 100
    },
    {
      "midi": 61,
      "hit": false,
      "t": 194267.94300002092,
      "d": 60.975500000000466,
      "v": 100
    },
    {
      "midi": 52,
      "hit": false,
      "t": 194389.89400000006,
      "d": 487.8040000000037,
      "v": 100
    },
    {
      "midi": 46,
      "hit": false,
      "t": 194389.89400000154,
      "d": 1.0162583333440125,
      "v": 100
    },
    {
      "midi": 69,
      "hit": false,
      "t": 194389.8940000208,
      "d": 60.975500000000466,
      "v": 100
    },
    {
      "midi": 64,
      "hit": false,
      "t": 194389.8940000208,
      "d": 60.975500000000466,
      "v": 100
    },
    {
      "midi": 61,
      "hit": false,
      "t": 194389.8940000208,
      "d": 60.975500000000466,
      "v": 100
    },
    {
      "midi": 69,
      "hit": false,
      "t": 194511.8450000208,
      "d": 60.975500000000466,
      "v": 100
    },
    {
      "midi": 64,
      "hit": false,
      "t": 194511.8450000208,
      "d": 60.975500000000466,
      "v": 100
    },
    {
      "midi": 61,
      "hit": false,
      "t": 194511.8450000208,
      "d": 60.975500000000466,
      "v": 100
    },
    {
      "midi": 64,
      "hit": false,
      "t": 194633.79600000006,
      "d": 487.8040000000037,
      "v": 100
    },
    {
      "midi": 33,
      "hit": false,
      "t": 194633.79600000154,
      "d": 1.0162583333440125,
      "v": 127
    },
    {
      "midi": 44,
      "hit": false,
      "t": 194633.79600000154,
      "d": 1.0162583333440125,
      "v": 127
    },
    {
      "midi": 69,
      "hit": false,
      "t": 194633.7960000208,
      "d": 243.90199999982724,
      "v": 100
    },
    {
      "midi": 64,
      "hit": false,
      "t": 194633.7960000208,
      "d": 243.90199999982724,
      "v": 100
    },
    {
      "midi": 61,
      "hit": false,
      "t": 194633.7960000208,
      "d": 243.90199999982724,
      "v": 100
    },
    {
      "midi": 44,
      "hit": false,
      "t": 194755.74700000155,
      "d": 1.0162583333440125,
      "v": 70
    },
    {
      "midi": 61,
      "hit": false,
      "t": 194877.69800000006,
      "d": 243.90200000000186,
      "v": 100
    },
    {
      "midi": 76,
      "hit": false,
      "t": 194877.6980000008,
      "d": 243.90200000000186,
      "v": 100
    },
    {
      "midi": 46,
      "hit": false,
      "t": 194877.69800000155,
      "d": 1.0162583333440125,
      "v": 100
    },
    {
      "midi": 69,
      "hit": false,
      "t": 194877.69800002064,
      "d": 60.975500000000466,
      "v": 100
    },
    {
      "midi": 64,
      "hit": false,
      "t": 194877.69800002064,
      "d": 60.975500000000466,
      "v": 100
    },
    {
      "midi": 61,
      "hit": false,
      "t": 194877.69800002064,
      "d": 60.975500000000466,
      "v": 100
    },
    {
      "midi": 69,
      "hit": false,
      "t": 194999.64900002064,
      "d": 60.975500000000466,
      "v": 100
    },
    {
      "midi": 64,
      "hit": false,
      "t": 194999.64900002064,
      "d": 60.975500000000466,
      "v": 100
    },
    {
      "midi": 61,
      "hit": false,
      "t": 194999.64900002064,
      "d": 60.975500000000466,
      "v": 100
    },
    {
      "midi": 59,
      "hit": false,
      "t": 195121.60000000006,
      "d": 487.8040000000037,
      "v": 100
    },
    {
      "midi": 47,
      "hit": false,
      "t": 195121.60000000006,
      "d": 731.7060000000056,
      "v": 100
    },
    {
      "midi": 75,
      "hit": false,
      "t": 195121.6000000008,
      "d": 243.90200000000186,
      "v": 100
    },
    {
      "midi": 33,
      "hit": false,
      "t": 195121.60000000155,
      "d": 1.0162583333440125,
      "v": 127
    },
    {
      "midi": 44,
      "hit": false,
      "t": 195121.60000000155,
      "d": 1.0162583333440125,
      "v": 127
    },
    {
      "midi": 71,
      "hit": false,
      "t": 195121.60000002064,
      "d": 487.80400000003283,
      "v": 100
    },
    {
      "midi": 66,
      "hit": false,
      "t": 195121.60000002064,
      "d": 487.80400000003283,
      "v": 100
    },
    {
      "midi": 63,
      "hit": false,
      "t": 195121.60000002064,
      "d": 487.80400000003283,
      "v": 100
    },
    {
      "midi": 44,
      "hit": false,
      "t": 195243.55100000155,
      "d": 1.0162583333440125,
      "v": 70
    },
    {
      "midi": 56,
      "hit": false,
      "t": 195365.50200000007,
      "d": 487.8040000000037,
      "v": 100
    },
    {
      "midi": 71,
      "hit": false,
      "t": 195365.5020000008,
      "d": 243.90200000000186,
      "v": 100
    },
    {
      "midi": 46,
      "hit": false,
      "t": 195365.50200000155,
      "d": 1.0162583333440125,
      "v": 100
    },
    {
      "midi": 66,
      "hit": false,
      "t": 195609.40400000007,
      "d": 487.8040000000037,
      "v": 100
    },
    {
      "midi": 71,
      "hit": false,
      "t": 195609.4040000008,
      "d": 243.90200000000186,
      "v": 100
    },
    {
      "midi": 33,
      "hit": false,
      "t": 195609.40400000155,
      "d": 1.0162583333440125,
      "v": 127
    },
    {
      "midi": 44,
      "hit": false,
      "t": 195609.40400000155,
      "d": 1.0162583333440125,
      "v": 127
    },
    {
      "midi": 71,
      "hit": false,
      "t": 195609.40400002067,
      "d": 60.97549999988405,
      "v": 100
    },
    {
      "midi": 66,
      "hit": false,
      "t": 195609.40400002067,
      "d": 60.97549999988405,
      "v": 100
    },
    {
      "midi": 63,
      "hit": false,
      "t": 195609.40400002067,
      "d": 60.97549999988405,
      "v": 100
    },
    {
      "midi": 44,
      "hit": false,
      "t": 195731.35500000155,
      "d": 1.0162583333440125,
      "v": 70
    },
    {
      "midi": 71,
      "hit": false,
      "t": 195731.35500002056,
      "d": 60.975500000000466,
      "v": 100
    },
    {
      "midi": 66,
      "hit": false,
      "t": 195731.35500002056,
      "d": 60.975500000000466,
      "v": 100
    },
    {
      "midi": 63,
      "hit": false,
      "t": 195731.35500002056,
      "d": 60.975500000000466,
      "v": 100
    },
    {
      "midi": 63,
      "hit": false,
      "t": 195853.30600000007,
      "d": 243.90200000000186,
      "v": 100
    },
    {
      "midi": 68,
      "hit": false,
      "t": 195853.3060000008,
      "d": 243.90200000000186,
      "v": 100
    },
    {
      "midi": 46,
      "hit": false,
      "t": 195853.30600000155,
      "d": 1.0162583333440125,
      "v": 100
    },
    {
      "midi": 71,
      "hit": false,
      "t": 195853.30600002044,
      "d": 60.975500000000466,
      "v": 100
    },
    {
      "midi": 66,
      "hit": false,
      "t": 195853.30600002044,
      "d": 60.975500000000466,
      "v": 100
    },
    {
      "midi": 63,
      "hit": false,
      "t": 195853.30600002044,
      "d": 60.975500000000466,
      "v": 100
    },
    {
      "midi": 71,
      "hit": false,
      "t": 195975.25700002044,
      "d": 60.975500000000466,
      "v": 100
    },
    {
      "midi": 66,
      "hit": false,
      "t": 195975.25700002044,
      "d": 60.975500000000466,
      "v": 100
    },
    {
      "midi": 63,
      "hit": false,
      "t": 195975.25700002044,
      "d": 60.975500000000466,
      "v": 100
    },
    {
      "midi": 59,
      "hit": false,
      "t": 196097.20800000007,
      "d": 487.8040000000037,
      "v": 100
    },
    {
      "midi": 44,
      "hit": false,
      "t": 196097.20800000007,
      "d": 731.7060000000056,
      "v": 100
    },
    {
      "midi": 71,
      "hit": false,
      "t": 196097.2080000008,
      "d": 487.8040000000037,
      "v": 100
    },
    {
      "midi": 33,
      "hit": false,
      "t": 196097.20800000156,
      "d": 1.0162583333440125,
      "v": 127
    },
    {
      "midi": 44,
      "hit": false,
      "t": 196097.20800000156,
      "d": 1.0162583333440125,
      "v": 127
    },
    {
      "midi": 68,
      "hit": false,
      "t": 196097.20800002044,
      "d": 60.97549999988405,
      "v": 100
    },
    {
      "midi": 63,
      "hit": false,
      "t": 196097.20800002044,
      "d": 60.97549999988405,
      "v": 100
    },
    {
      "midi": 59,
      "hit": false,
      "t": 196097.20800002044,
      "d": 60.97549999988405,
      "v": 100
    },
    {
      "midi": 44,
      "hit": false,
      "t": 196219.15900000156,
      "d": 1.0162583333440125,
      "v": 70
    },
    {
      "midi": 68,
      "hit": false,
      "t": 196219.15900002033,
      "d": 60.975500000000466,
      "v": 100
    },
    {
      "midi": 63,
      "hit": false,
      "t": 196219.15900002033,
      "d": 60.975500000000466,
      "v": 100
    },
    {
      "midi": 59,
      "hit": false,
      "t": 196219.15900002033,
      "d": 60.975500000000466,
      "v": 100
    },
    {
      "midi": 56,
      "hit": false,
      "t": 196341.11000000007,
      "d": 487.8040000000037,
      "v": 100
    },
    {
      "midi": 46,
      "hit": false,
      "t": 196341.11000000156,
      "d": 1.0162583333440125,
      "v": 100
    },
    {
      "midi": 68,
      "hit": false,
      "t": 196341.1100000202,
      "d": 60.975500000000466,
      "v": 100
    },
    {
      "midi": 63,
      "hit": false,
      "t": 196341.1100000202,
      "d": 60.975500000000466,
      "v": 100
    },
    {
      "midi": 59,
      "hit": false,
      "t": 196341.1100000202,
      "d": 60.975500000000466,
      "v": 100
    },
    {
      "midi": 68,
      "hit": false,
      "t": 196463.0610000202,
      "d": 60.975500000000466,
      "v": 100
    },
    {
      "midi": 63,
      "hit": false,
      "t": 196463.0610000202,
      "d": 60.975500000000466,
      "v": 100
    },
    {
      "midi": 59,
      "hit": false,
      "t": 196463.0610000202,
      "d": 60.975500000000466,
      "v": 100
    },
    {
      "midi": 63,
      "hit": false,
      "t": 196585.01200000008,
      "d": 487.8040000000037,
      "v": 100
    },
    {
      "midi": 68,
      "hit": false,
      "t": 196585.0120000008,
      "d": 487.8040000000037,
      "v": 100
    },
    {
      "midi": 33,
      "hit": false,
      "t": 196585.01200000156,
      "d": 1.0162583333440125,
      "v": 127
    },
    {
      "midi": 44,
      "hit": false,
      "t": 196585.01200000156,
      "d": 1.0162583333440125,
      "v": 127
    },
    {
      "midi": 68,
      "hit": false,
      "t": 196585.01200002022,
      "d": 243.90199999982724,
      "v": 100
    },
    {
      "midi": 63,
      "hit": false,
      "t": 196585.01200002022,
      "d": 243.90199999982724,
      "v": 100
    },
    {
      "midi": 59,
      "hit": false,
      "t": 196585.01200002022,
      "d": 243.90199999982724,
      "v": 100
    },
    {
      "midi": 44,
      "hit": false,
      "t": 196706.96300000156,
      "d": 1.0162583333440125,
      "v": 70
    },
    {
      "midi": 59,
      "hit": false,
      "t": 196828.91400000008,
      "d": 243.90200000000186,
      "v": 100
    },
    {
      "midi": 46,
      "hit": false,
      "t": 196828.91400000156,
      "d": 1.0162583333440125,
      "v": 100
    },
    {
      "midi": 68,
      "hit": false,
      "t": 196828.91400002004,
      "d": 60.975500000000466,
      "v": 100
    },
    {
      "midi": 63,
      "hit": false,
      "t": 196828.91400002004,
      "d": 60.975500000000466,
      "v": 100
    },
    {
      "midi": 59,
      "hit": false,
      "t": 196828.91400002004,
      "d": 60.975500000000466,
      "v": 100
    },
    {
      "midi": 68,
      "hit": false,
      "t": 196950.86500002004,
      "d": 60.975500000000466,
      "v": 100
    },
    {
      "midi": 63,
      "hit": false,
      "t": 196950.86500002004,
      "d": 60.975500000000466,
      "v": 100
    },
    {
      "midi": 59,
      "hit": false,
      "t": 196950.86500002004,
      "d": 60.975500000000466,
      "v": 100
    },
    {
      "midi": 64,
      "hit": false,
      "t": 197072.81600000008,
      "d": 365.8530000000028,
      "v": 100
    },
    {
      "midi": 42,
      "hit": false,
      "t": 197072.81600000008,
      "d": 731.7060000000056,
      "v": 100
    },
    {
      "midi": 69,
      "hit": false,
      "t": 197072.8160000008,
      "d": 731.7060000000056,
      "v": 100
    },
    {
      "midi": 33,
      "hit": false,
      "t": 197072.81600000156,
      "d": 1.0162583333440125,
      "v": 127
    },
    {
      "midi": 44,
      "hit": false,
      "t": 197072.81600000156,
      "d": 1.0162583333440125,
      "v": 127
    },
    {
      "midi": 69,
      "hit": false,
      "t": 197072.81600002004,
      "d": 487.80400000003283,
      "v": 100
    },
    {
      "midi": 64,
      "hit": false,
      "t": 197072.81600002004,
      "d": 487.80400000003283,
      "v": 100
    },
    {
      "midi": 61,
      "hit": false,
      "t": 197072.81600002004,
      "d": 487.80400000003283,
      "v": 100
    },
    {
      "midi": 44,
      "hit": false,
      "t": 197194.76700000156,
      "d": 1.0162583333440125,
      "v": 70
    },
    {
      "midi": 52,
      "hit": false,
      "t": 197316.71800000008,
      "d": 365.8530000000028,
      "v": 100
    },
    {
      "midi": 46,
      "hit": false,
      "t": 197316.71800000157,
      "d": 1.0162583333440125,
      "v": 100
    },
    {
      "midi": 61,
      "hit": false,
      "t": 197438.66900000008,
      "d": 365.8530000000028,
      "v": 100
    },
    {
      "midi": 33,
      "hit": false,
      "t": 197560.62000000157,
      "d": 1.0162583333440125,
      "v": 127
    },
    {
      "midi": 44,
      "hit": false,
      "t": 197560.62000000157,
      "d": 1.0162583333440125,
      "v": 127
    },
    {
      "midi": 69,
      "hit": false,
      "t": 197560.62000002008,
      "d": 60.97549999988405,
      "v": 100
    },
    {
      "midi": 64,
      "hit": false,
      "t": 197560.62000002008,
      "d": 60.97549999988405,
      "v": 100
    },
    {
      "midi": 61,
      "hit": false,
      "t": 197560.62000002008,
      "d": 60.97549999988405,
      "v": 100
    },
    {
      "midi": 52,
      "hit": false,
      "t": 197682.57100000008,
      "d": 365.8530000000028,
      "v": 100
    },
    {
      "midi": 44,
      "hit": false,
      "t": 197682.57100000157,
      "d": 1.0162583333440125,
      "v": 70
    },
    {
      "midi": 69,
      "hit": false,
      "t": 197682.57100001996,
      "d": 60.975500000000466,
      "v": 100
    },
    {
      "midi": 64,
      "hit": false,
      "t": 197682.57100001996,
      "d": 60.975500000000466,
      "v": 100
    },
    {
      "midi": 61,
      "hit": false,
      "t": 197682.57100001996,
      "d": 60.975500000000466,
      "v": 100
    },
    {
      "midi": 57,
      "hit": false,
      "t": 197804.52200000008,
      "d": 365.8530000000028,
      "v": 100
    },
    {
      "midi": 69,
      "hit": false,
      "t": 197804.5220000008,
      "d": 243.90200000000186,
      "v": 100
    },
    {
      "midi": 46,
      "hit": false,
      "t": 197804.52200000157,
      "d": 1.0162583333440125,
      "v": 100
    },
    {
      "midi": 69,
      "hit": false,
      "t": 197804.52200001985,
      "d": 60.975500000000466,
      "v": 100
    },
    {
      "midi": 64,
      "hit": false,
      "t": 197804.52200001985,
      "d": 60.975500000000466,
      "v": 100
    },
    {
      "midi": 61,
      "hit": false,
      "t": 197804.52200001985,
      "d": 60.975500000000466,
      "v": 100
    },
    {
      "midi": 69,
      "hit": false,
      "t": 197926.47300001985,
      "d": 60.975500000000466,
      "v": 100
    },
    {
      "midi": 64,
      "hit": false,
      "t": 197926.47300001985,
      "d": 60.975500000000466,
      "v": 100
    },
    {
      "midi": 61,
      "hit": false,
      "t": 197926.47300001985,
      "d": 60.975500000000466,
      "v": 100
    },
    {
      "midi": 59,
      "hit": false,
      "t": 198048.4240000001,
      "d": 365.8530000000028,
      "v": 100
    },
    {
      "midi": 54,
      "hit": false,
      "t": 198048.4240000001,
      "d": 487.8040000000037,
      "v": 100
    },
    {
      "midi": 47,
      "hit": false,
      "t": 198048.4240000001,
      "d": 731.7060000000056,
      "v": 100
    },
    {
      "midi": 71,
      "hit": false,
      "t": 198048.4240000008,
      "d": 487.8040000000037,
      "v": 100
    },
    {
      "midi": 33,
      "hit": false,
      "t": 198048.42400000157,
      "d": 1.0162583333440125,
      "v": 127
    },
    {
      "midi": 44,
      "hit": false,
      "t": 198048.42400000157,
      "d": 1.0162583333440125,
      "v": 127
    },
    {
      "midi": 71,
      "hit": false,
      "t": 198048.42400001985,
      "d": 60.97549999988405,
      "v": 100
    },
    {
      "midi": 66,
      "hit": false,
      "t": 198048.42400001985,
      "d": 60.97549999988405,
      "v": 100
    },
    {
      "midi": 63,
      "hit": false,
      "t": 198048.42400001985,
      "d": 60.97549999988405,
      "v": 100
    },
    {
      "midi": 44,
      "hit": false,
      "t": 198170.37500000157,
      "d": 1.0162583333440125,
      "v": 70
    },
    {
      "midi": 71,
      "hit": false,
      "t": 198170.37500001973,
      "d": 60.975500000000466,
      "v": 100
    },
    {
      "midi": 66,
      "hit": false,
      "t": 198170.37500001973,
      "d": 60.975500000000466,
      "v": 100
    },
    {
      "midi": 63,
      "hit": false,
      "t": 198170.37500001973,
      "d": 60.975500000000466,
      "v": 100
    },
    {
      "midi": 57,
      "hit": false,
      "t": 198292.3260000001,
      "d": 487.8040000000037,
      "v": 100
    },
    {
      "midi": 46,
      "hit": false,
      "t": 198292.32600000157,
      "d": 1.0162583333440125,
      "v": 100
    },
    {
      "midi": 71,
      "hit": false,
      "t": 198292.32600001962,
      "d": 60.975500000000466,
      "v": 100
    },
    {
      "midi": 66,
      "hit": false,
      "t": 198292.32600001962,
      "d": 60.975500000000466,
      "v": 100
    },
    {
      "midi": 63,
      "hit": false,
      "t": 198292.32600001962,
      "d": 60.975500000000466,
      "v": 100
    },
    {
      "midi": 71,
      "hit": false,
      "t": 198414.27700001962,
      "d": 60.975500000000466,
      "v": 100
    },
    {
      "midi": 66,
      "hit": false,
      "t": 198414.27700001962,
      "d": 60.975500000000466,
      "v": 100
    },
    {
      "midi": 63,
      "hit": false,
      "t": 198414.27700001962,
      "d": 60.975500000000466,
      "v": 100
    },
    {
      "midi": 61,
      "hit": false,
      "t": 198536.2280000001,
      "d": 487.8040000000037,
      "v": 100
    },
    {
      "midi": 71,
      "hit": false,
      "t": 198536.22800000082,
      "d": 487.8040000000037,
      "v": 100
    },
    {
      "midi": 33,
      "hit": false,
      "t": 198536.22800000157,
      "d": 1.0162583333440125,
      "v": 127
    },
    {
      "midi": 44,
      "hit": false,
      "t": 198536.22800000157,
      "d": 1.0162583333440125,
      "v": 127
    },
    {
      "midi": 71,
      "hit": false,
      "t": 198536.22800001962,
      "d": 243.90199999982724,
      "v": 100
    },
    {
      "midi": 66,
      "hit": false,
      "t": 198536.22800001962,
      "d": 243.90199999982724,
      "v": 100
    },
    {
      "midi": 63,
      "hit": false,
      "t": 198536.22800001962,
      "d": 243.90199999982724,
      "v": 100
    },
    {
      "midi": 44,
      "hit": false,
      "t": 198658.17900000158,
      "d": 1.0162583333440125,
      "v": 70
    },
    {
      "midi": 57,
      "hit": false,
      "t": 198780.1300000001,
      "d": 243.90200000000186,
      "v": 100
    },
    {
      "midi": 46,
      "hit": false,
      "t": 198780.13000000158,
      "d": 1.0162583333440125,
      "v": 100
    },
    {
      "midi": 71,
      "hit": false,
      "t": 198780.13000001945,
      "d": 60.975500000000466,
      "v": 100
    },
    {
      "midi": 66,
      "hit": false,
      "t": 198780.13000001945,
      "d": 60.975500000000466,
      "v": 100
    },
    {
      "midi": 63,
      "hit": false,
      "t": 198780.13000001945,
      "d": 60.975500000000466,
      "v": 100
    },
    {
      "midi": 71,
      "hit": false,
      "t": 198902.08100001945,
      "d": 60.975500000000466,
      "v": 100
    },
    {
      "midi": 66,
      "hit": false,
      "t": 198902.08100001945,
      "d": 60.975500000000466,
      "v": 100
    },
    {
      "midi": 63,
      "hit": false,
      "t": 198902.08100001945,
      "d": 60.975500000000466,
      "v": 100
    },
    {
      "midi": 79,
      "hit": false,
      "t": 199024.03199999995,
      "d": 2439.0199999999895,
      "v": 127
    },
    {
      "midi": 52,
      "hit": false,
      "t": 199024.0320000001,
      "d": 853.6570000000065,
      "v": 100
    },
    {
      "midi": 76,
      "hit": false,
      "t": 199024.03200000082,
      "d": 731.7060000000056,
      "v": 100
    },
    {
      "midi": 33,
      "hit": false,
      "t": 199024.03200000158,
      "d": 1.0162583333440125,
      "v": 127
    },
    {
      "midi": 57,
      "hit": false,
      "t": 199024.03200000158,
      "d": 1.0162583333440125,
      "v": 127
    },
    {
      "midi": 40,
      "hit": false,
      "t": 199145.98300000158,
      "d": 1.0162583333440125,
      "v": 127
    },
    {
      "midi": 57,
      "hit": false,
      "t": 199267.9340000001,
      "d": 487.8040000000037,
      "v": 100
    },
    {
      "midi": 59,
      "hit": false,
      "t": 199389.8850000001,
      "d": 487.8040000000037,
      "v": 100
    },
    {
      "midi": 40,
      "hit": false,
      "t": 199389.88500000158,
      "d": 1.0162583333440125,
      "v": 40
    },
    {
      "midi": 40,
      "hit": false,
      "t": 199511.83600000158,
      "d": 1.0162583333440125,
      "v": 127
    },
    {
      "midi": 69,
      "hit": false,
      "t": 199633.7870000001,
      "d": 487.8040000000037,
      "v": 100
    },
    {
      "midi": 71,
      "hit": false,
      "t": 199755.7380000001,
      "d": 487.8040000000037,
      "v": 100
    },
    {
      "midi": 76,
      "hit": false,
      "t": 199755.73800000083,
      "d": 243.90200000000186,
      "v": 100
    },
    {
      "midi": 33,
      "hit": false,
      "t": 199796.38833333494,
      "d": 1.0162583333440125,
      "v": 10
    },
    {
      "midi": 33,
      "hit": false,
      "t": 199837.0386666683,
      "d": 1.0162583333440125,
      "v": 20
    },
    {
      "midi": 33,
      "hit": false,
      "t": 199877.68900000164,
      "d": 1.0162583333440125,
      "v": 30
    },
    {
      "midi": 40,
      "hit": false,
      "t": 199877.68900000164,
      "d": 1.0162583333440125,
      "v": 127
    },
    {
      "midi": 33,
      "hit": false,
      "t": 199918.339333335,
      "d": 1.0162583333440125,
      "v": 40
    },
    {
      "midi": 33,
      "hit": false,
      "t": 199958.98966666835,
      "d": 1.0162583333440125,
      "v": 50
    },
    {
      "midi": 52,
      "hit": false,
      "t": 199999.6400000001,
      "d": 1951.216000000015,
      "v": 100
    },
    {
      "midi": 66,
      "hit": false,
      "t": 199999.6400000001,
      "d": 1951.216000000015,
      "v": 100
    },
    {
      "midi": 76,
      "hit": false,
      "t": 199999.64000000083,
      "d": 975.6080000000075,
      "v": 100
    },
    {
      "midi": 33,
      "hit": false,
      "t": 199999.6400000017,
      "d": 1.0162583333440125,
      "v": 60
    },
    {
      "midi": 40,
      "hit": false,
      "t": 199999.6400000017,
      "d": 1.0162583333440125,
      "v": 127
    },
    {
      "midi": 68,
      "hit": false,
      "t": 200019.96516666678,
      "d": 1951.216000000015,
      "v": 100
    },
    {
      "midi": 33,
      "hit": false,
      "t": 200040.29033333506,
      "d": 1.0162583333440125,
      "v": 70
    },
    {
      "midi": 33,
      "hit": false,
      "t": 200080.9406666684,
      "d": 1.0162583333440125,
      "v": 80
    },
    {
      "midi": 33,
      "hit": false,
      "t": 200121.59100000176,
      "d": 1.0162583333440125,
      "v": 90
    },
    {
      "midi": 33,
      "hit": false,
      "t": 200162.2413333351,
      "d": 1.0162583333440125,
      "v": 100
    },
    {
      "midi": 33,
      "hit": false,
      "t": 200202.89166666847,
      "d": 1.0162583333440125,
      "v": 100
    },
    {
      "midi": 33,
      "hit": false,
      "t": 200243.54200000182,
      "d": 1.0162583333440125,
      "v": 100
    },
    {
      "midi": 33,
      "hit": false,
      "t": 200284.19233333517,
      "d": 1.0162583333440125,
      "v": 110
    },
    {
      "midi": 33,
      "hit": false,
      "t": 200324.84266666853,
      "d": 1.0162583333440125,
      "v": 120
    },
    {
      "midi": 33,
      "hit": false,
      "t": 200365.49300000188,
      "d": 1.0162583333440125,
      "v": 100
    },
    {
      "midi": 40,
      "hit": false,
      "t": 200365.49300000188,
      "d": 1.0162583333440125,
      "v": 40
    },
    {
      "midi": 33,
      "hit": false,
      "t": 200406.14333333523,
      "d": 1.0162583333440125,
      "v": 100
    },
    {
      "midi": 33,
      "hit": false,
      "t": 200487.4440000019,
      "d": 1.0162583333440125,
      "v": 100
    },
    {
      "midi": 40,
      "hit": false,
      "t": 200487.4440000019,
      "d": 1.0162583333440125,
      "v": 127
    },
    {
      "midi": 33,
      "hit": false,
      "t": 200609.3950000019,
      "d": 1.0162583333440125,
      "v": 100
    },
    {
      "midi": 33,
      "hit": false,
      "t": 200731.3460000019,
      "d": 1.0162583333440125,
      "v": 100
    },
    {
      "midi": 40,
      "hit": false,
      "t": 200731.3460000019,
      "d": 1.0162583333440125,
      "v": 50
    },
    {
      "midi": 33,
      "hit": false,
      "t": 200853.2970000019,
      "d": 1.0162583333440125,
      "v": 100
    },
    {
      "midi": 40,
      "hit": false,
      "t": 200853.2970000019,
      "d": 1.0162583333440125,
      "v": 127
    },
    {
      "midi": 85,
      "hit": false,
      "t": 200975.24800000084,
      "d": 243.90200000000186,
      "v": 100
    },
    {
      "midi": 80,
      "hit": false,
      "t": 200975.24800000084,
      "d": 243.90200000000186,
      "v": 100
    },
    {
      "midi": 76,
      "hit": false,
      "t": 200975.24800000084,
      "d": 243.90200000000186,
      "v": 100
    },
    {
      "midi": 54,
      "hit": false,
      "t": 200975.24800000084,
      "d": 1.0162583333440125,
      "v": 80
    },
    {
      "midi": 85,
      "hit": false,
      "t": 200975.24800000087,
      "d": 243.90200000000186,
      "v": 100
    },
    {
      "midi": 80,
      "hit": false,
      "t": 200975.24800000087,
      "d": 243.90200000000186,
      "v": 100
    },
    {
      "midi": 73,
      "hit": false,
      "t": 200975.24800000087,
      "d": 121.95100000000093,
      "v": 100
    },
    {
      "midi": 37,
      "hit": false,
      "t": 200975.2480000009,
      "d": 243.90200000000186,
      "v": 100
    },
    {
      "midi": 33,
      "hit": false,
      "t": 200975.2480000019,
      "d": 1.0162583333440125,
      "v": 127
    },
    {
      "midi": 42,
      "hit": false,
      "t": 200975.2480000019,
      "d": 1.0162583333440125,
      "v": 100
    },
    {
      "midi": 57,
      "hit": false,
      "t": 200975.2480000019,
      "d": 1.0162583333440125,
      "v": 100
    },
    {
      "midi": 49,
      "hit": false,
      "t": 200975.24800000392,
      "d": 975.6080000000075,
      "v": 100
    },
    {
      "midi": 56,
      "hit": false,
      "t": 200975.24800000392,
      "d": 975.6080000000075,
      "v": 100
    },
    {
      "midi": 73,
      "hit": false,
      "t": 200975.24800001946,
      "d": 487.8040000000037,
      "v": 100
    },
    {
      "midi": 68,
      "hit": false,
      "t": 200975.24800001946,
      "d": 487.8040000000037,
      "v": 100
    },
    {
      "midi": 64,
      "hit": false,
      "t": 200975.24800001946,
      "d": 487.8040000000037,
      "v": 100
    },
    {
      "midi": 54,
      "hit": false,
      "t": 201097.19900000084,
      "d": 1.0162583333440125,
      "v": 60
    },
    {
      "midi": 73,
      "hit": false,
      "t": 201097.19900000087,
      "d": 121.95100000000093,
      "v": 100
    },
    {
      "midi": 73,
      "hit": false,
      "t": 201097.19900000113,
      "d": 121.95100000000093,
      "v": 100
    },
    {
      "midi": 68,
      "hit": false,
      "t": 201097.19900000113,
      "d": 121.95100000000093,
      "v": 100
    },
    {
      "midi": 64,
      "hit": false,
      "t": 201097.19900000113,
      "d": 121.95100000000093,
      "v": 100
    },
    {
      "midi": 54,
      "hit": false,
      "t": 201219.15000000084,
      "d": 1.0162583333440125,
      "v": 60
    },
    {
      "midi": 80,
      "hit": false,
      "t": 201219.15000000087,
      "d": 121.95100000000093,
      "v": 100
    },
    {
      "midi": 37,
      "hit": false,
      "t": 201219.1500000009,
      "d": 243.90200000000186,
      "v": 100
    },
    {
      "midi": 73,
      "hit": false,
      "t": 201219.15000000113,
      "d": 121.95100000000093,
      "v": 100
    },
    {
      "midi": 68,
      "hit": false,
      "t": 201219.15000000113,
      "d": 121.95100000000093,
      "v": 100
    },
    {
      "midi": 64,
      "hit": false,
      "t": 201219.15000000113,
      "d": 121.95100000000093,
      "v": 100
    },
    {
      "midi": 46,
      "hit": false,
      "t": 201219.15000000192,
      "d": 1.0162583333440125,
      "v": 100
    },
    {
      "midi": 54,
      "hit": false,
      "t": 201341.10100000084,
      "d": 1.0162583333440125,
      "v": 60
    },
    {
      "midi": 80,
      "hit": false,
      "t": 201341.10100000087,
      "d": 121.95100000000093,
      "v": 100
    },
    {
      "midi": 44,
      "hit": false,
      "t": 201341.10100000192,
      "d": 1.0162583333440125,
      "v": 100
    },
    {
      "midi": 85,
      "hit": false,
      "t": 201463.05200000084,
      "d": 243.90200000000186,
      "v": 100
    },
    {
      "midi": 80,
      "hit": false,
      "t": 201463.05200000084,
      "d": 243.90200000000186,
      "v": 100
    },
    {
      "midi": 76,
      "hit": false,
      "t": 201463.05200000084,
      "d": 243.90200000000186,
      "v": 100
    },
    {
      "midi": 54,
      "hit": false,
      "t": 201463.05200000084,
      "d": 1.0162583333440125,
      "v": 80
    },
    {
      "midi": 85,
      "hit": false,
      "t": 201463.05200000087,
      "d": 243.90200000000186,
      "v": 100
    },
    {
      "midi": 80,
      "hit": false,
      "t": 201463.05200000087,
      "d": 243.90200000000186,
      "v": 100
    },
    {
      "midi": 76,
      "hit": false,
      "t": 201463.05200000087,
      "d": 121.95100000000093,
      "v": 100
    },
    {
      "midi": 37,
      "hit": false,
      "t": 201463.0520000009,
      "d": 243.90200000000186,
      "v": 100
    },
    {
      "midi": 73,
      "hit": false,
      "t": 201463.05200000113,
      "d": 121.95100000000093,
      "v": 100
    },
    {
      "midi": 68,
      "hit": false,
      "t": 201463.05200000113,
      "d": 121.95100000000093,
      "v": 100
    },
    {
      "midi": 64,
      "hit": false,
      "t": 201463.05200000113,
      "d": 121.95100000000093,
      "v": 100
    },
    {
      "midi": 33,
      "hit": false,
      "t": 201463.05200000192,
      "d": 1.0162583333440125,
      "v": 127
    },
    {
      "midi": 40,
      "hit": false,
      "t": 201463.05200000192,
      "d": 1.0162583333440125,
      "v": 100
    },
    {
      "midi": 46,
      "hit": false,
      "t": 201463.05200000192,
      "d": 1.0162583333440125,
      "v": 100
    },
    {
      "midi": 73,
      "hit": false,
      "t": 201463.05200001947,
      "d": 60.97549999988405,
      "v": 100
    },
    {
      "midi": 68,
      "hit": false,
      "t": 201463.05200001947,
      "d": 60.97549999988405,
      "v": 100
    },
    {
      "midi": 64,
      "hit": false,
      "t": 201463.05200001947,
      "d": 60.97549999988405,
      "v": 100
    },
    {
      "midi": 54,
      "hit": false,
      "t": 201585.00300000084,
      "d": 1.0162583333440125,
      "v": 60
    },
    {
      "midi": 76,
      "hit": false,
      "t": 201585.00300000087,
      "d": 121.95100000000093,
      "v": 100
    },
    {
      "midi": 44,
      "hit": false,
      "t": 201585.00300000192,
      "d": 1.0162583333440125,
      "v": 100
    },
    {
      "midi": 73,
      "hit": false,
      "t": 201585.00300001935,
      "d": 60.975500000000466,
      "v": 100
    },
    {
      "midi": 68,
      "hit": false,
      "t": 201585.00300001935,
      "d": 60.975500000000466,
      "v": 100
    },
    {
      "midi": 64,
      "hit": false,
      "t": 201585.00300001935,
      "d": 60.975500000000466,
      "v": 100
    },
    {
      "midi": 85,
      "hit": false,
      "t": 201706.95400000084,
      "d": 30.487750000000233,
      "v": 100
    },
    {
      "midi": 80,
      "hit": false,
      "t": 201706.95400000084,
      "d": 30.487750000000233,
      "v": 100
    },
    {
      "midi": 54,
      "hit": false,
      "t": 201706.95400000084,
      "d": 1.0162583333440125,
      "v": 60
    },
    {
      "midi": 88,
      "hit": false,
      "t": 201706.95400000087,
      "d": 121.95100000000093,
      "v": 100
    },
    {
      "midi": 83,
      "hit": false,
      "t": 201706.95400000087,
      "d": 121.95100000000093,
      "v": 100
    },
    {
      "midi": 83,
      "hit": false,
      "t": 201706.95400000087,
      "d": 121.95100000000093,
      "v": 100
    },
    {
      "midi": 37,
      "hit": false,
      "t": 201706.9540000009,
      "d": 60.975500000000466,
      "v": 100
    },
    {
      "midi": 73,
      "hit": false,
      "t": 201706.95400000113,
      "d": 121.95100000000093,
      "v": 100
    },
    {
      "midi": 68,
      "hit": false,
      "t": 201706.95400000113,
      "d": 121.95100000000093,
      "v": 100
    },
    {
      "midi": 64,
      "hit": false,
      "t": 201706.95400000113,
      "d": 121.95100000000093,
      "v": 100
    },
    {
      "midi": 46,
      "hit": false,
      "t": 201706.95400000192,
      "d": 1.0162583333440125,
      "v": 100
    },
    {
      "midi": 73,
      "hit": false,
      "t": 201706.95400001926,
      "d": 60.975500000000466,
      "v": 100
    },
    {
      "midi": 68,
      "hit": false,
      "t": 201706.95400001926,
      "d": 60.975500000000466,
      "v": 100
    },
    {
      "midi": 64,
      "hit": false,
      "t": 201706.95400001926,
      "d": 60.975500000000466,
      "v": 100
    },
    {
      "midi": 85,
      "hit": false,
      "t": 201828.90500000084,
      "d": 243.90200000000186,
      "v": 100
    },
    {
      "midi": 81,
      "hit": false,
      "t": 201828.90500000084,
      "d": 243.90200000000186,
      "v": 100
    },
    {
      "midi": 76,
      "hit": false,
      "t": 201828.90500000084,
      "d": 243.90200000000186,
      "v": 100
    },
    {
      "midi": 54,
      "hit": false,
      "t": 201828.90500000084,
      "d": 1.0162583333440125,
      "v": 60
    },
    {
      "midi": 85,
      "hit": false,
      "t": 201828.90500000087,
      "d": 365.8530000000028,
      "v": 100
    },
    {
      "midi": 81,
      "hit": false,
      "t": 201828.90500000087,
      "d": 365.8530000000028,
      "v": 100
    },
    {
      "midi": 83,
      "hit": false,
      "t": 201828.90500000087,
      "d": 121.95100000000093,
      "v": 100
    },
    {
      "midi": 33,
      "hit": false,
      "t": 201828.9050000009,
      "d": 243.90200000000186,
      "v": 100
    },
    {
      "midi": 44,
      "hit": false,
      "t": 201828.90500000192,
      "d": 1.0162583333440125,
      "v": 100
    },
    {
      "midi": 73,
      "hit": false,
      "t": 201828.90500001927,
      "d": 60.975500000000466,
      "v": 100
    },
    {
      "midi": 68,
      "hit": false,
      "t": 201828.90500001927,
      "d": 60.975500000000466,
      "v": 100
    },
    {
      "midi": 64,
      "hit": false,
      "t": 201828.90500001927,
      "d": 60.975500000000466,
      "v": 100
    },
    {
      "midi": 54,
      "hit": false,
      "t": 201950.85600000084,
      "d": 1.0162583333440125,
      "v": 80
    },
    {
      "midi": 85,
      "hit": false,
      "t": 201950.85600000087,
      "d": 121.95100000000093,
      "v": 100
    },
    {
      "midi": 69,
      "hit": false,
      "t": 201950.85600000113,
      "d": 121.95100000000093,
      "v": 100
    },
    {
      "midi": 64,
      "hit": false,
      "t": 201950.85600000113,
      "d": 121.95100000000093,
      "v": 100
    },
    {
      "midi": 61,
      "hit": false,
      "t": 201950.85600000113,
      "d": 121.95100000000093,
      "v": 100
    },
    {
      "midi": 33,
      "hit": false,
      "t": 201950.85600000192,
      "d": 1.0162583333440125,
      "v": 127
    },
    {
      "midi": 42,
      "hit": false,
      "t": 201950.85600000192,
      "d": 1.0162583333440125,
      "v": 100
    },
    {
      "midi": 45,
      "hit": false,
      "t": 201950.85600000393,
      "d": 975.6080000000075,
      "v": 100
    },
    {
      "midi": 52,
      "hit": false,
      "t": 201950.85600000393,
      "d": 975.6080000000075,
      "v": 100
    },
    {
      "midi": 69,
      "hit": false,
      "t": 201950.85600001927,
      "d": 60.97549999988405,
      "v": 100
    },
    {
      "midi": 64,
      "hit": false,
      "t": 201950.85600001927,
      "d": 60.97549999988405,
      "v": 100
    },
    {
      "midi": 61,
      "hit": false,
      "t": 201950.85600001927,
      "d": 60.97549999988405,
      "v": 100
    },
    {
      "midi": 85,
      "hit": false,
      "t": 202072.80700000084,
      "d": 121.95100000000093,
      "v": 100
    },
    {
      "midi": 81,
      "hit": false,
      "t": 202072.80700000084,
      "d": 121.95100000000093,
      "v": 100
    },
    {
      "midi": 76,
      "hit": false,
      "t": 202072.80700000084,
      "d": 121.95100000000093,
      "v": 100
    },
    {
      "midi": 54,
      "hit": false,
      "t": 202072.80700000084,
      "d": 1.0162583333440125,
      "v": 60
    },
    {
      "midi": 85,
      "hit": false,
      "t": 202072.80700000087,
      "d": 121.95100000000093,
      "v": 100
    },
    {
      "midi": 33,
      "hit": false,
      "t": 202072.8070000009,
      "d": 121.95100000000093,
      "v": 100
    },
    {
      "midi": 69,
      "hit": false,
      "t": 202072.80700000114,
      "d": 121.95100000000093,
      "v": 100
    },
    {
      "midi": 64,
      "hit": false,
      "t": 202072.80700000114,
      "d": 121.95100000000093,
      "v": 100
    },
    {
      "midi": 61,
      "hit": false,
      "t": 202072.80700000114,
      "d": 121.95100000000093,
      "v": 100
    },
    {
      "midi": 69,
      "hit": false,
      "t": 202072.80700001915,
      "d": 60.975500000000466,
      "v": 100
    },
    {
      "midi": 64,
      "hit": false,
      "t": 202072.80700001915,
      "d": 60.975500000000466,
      "v": 100
    },
    {
      "midi": 61,
      "hit": false,
      "t": 202072.80700001915,
      "d": 60.975500000000466,
      "v": 100
    },
    {
      "midi": 85,
      "hit": false,
      "t": 202194.75800000085,
      "d": 243.90200000000186,
      "v": 100
    },
    {
      "midi": 81,
      "hit": false,
      "t": 202194.75800000085,
      "d": 243.90200000000186,
      "v": 100
    },
    {
      "midi": 76,
      "hit": false,
      "t": 202194.75800000085,
      "d": 243.90200000000186,
      "v": 100
    },
    {
      "midi": 54,
      "hit": false,
      "t": 202194.75800000085,
      "d": 1.0162583333440125,
      "v": 60
    },
    {
      "midi": 81,
      "hit": false,
      "t": 202194.75800000087,
      "d": 121.95100000000093,
      "v": 100
    },
    {
      "midi": 33,
      "hit": false,
      "t": 202194.7580000009,
      "d": 243.90200000000186,
      "v": 100
    },
    {
      "midi": 46,
      "hit": false,
      "t": 202194.75800000192,
      "d": 1.0162583333440125,
      "v": 100
    },
    {
      "midi": 69,
      "hit": false,
      "t": 202194.75800001906,
      "d": 60.975500000000466,
      "v": 100
    },
    {
      "midi": 64,
      "hit": false,
      "t": 202194.75800001906,
      "d": 60.975500000000466,
      "v": 100
    },
    {
      "midi": 61,
      "hit": false,
      "t": 202194.75800001906,
      "d": 60.975500000000466,
      "v": 100
    },
    {
      "midi": 54,
      "hit": false,
      "t": 202316.70900000085,
      "d": 1.0162583333440125,
      "v": 60
    },
    {
      "midi": 81,
      "hit": false,
      "t": 202316.70900000088,
      "d": 121.95100000000093,
      "v": 100
    },
    {
      "midi": 69,
      "hit": false,
      "t": 202316.70900000114,
      "d": 121.95100000000093,
      "v": 100
    },
    {
      "midi": 64,
      "hit": false,
      "t": 202316.70900000114,
      "d": 121.95100000000093,
      "v": 100
    },
    {
      "midi": 61,
      "hit": false,
      "t": 202316.70900000114,
      "d": 121.95100000000093,
      "v": 100
    },
    {
      "midi": 44,
      "hit": false,
      "t": 202316.70900000192,
      "d": 1.0162583333440125,
      "v": 100
    },
    {
      "midi": 69,
      "hit": false,
      "t": 202316.70900001907,
      "d": 60.975500000000466,
      "v": 100
    },
    {
      "midi": 64,
      "hit": false,
      "t": 202316.70900001907,
      "d": 60.975500000000466,
      "v": 100
    },
    {
      "midi": 61,
      "hit": false,
      "t": 202316.70900001907,
      "d": 60.975500000000466,
      "v": 100
    },
    {
      "midi": 85,
      "hit": false,
      "t": 202438.66000000085,
      "d": 243.90200000000186,
      "v": 100
    },
    {
      "midi": 81,
      "hit": false,
      "t": 202438.66000000085,
      "d": 243.90200000000186,
      "v": 100
    },
    {
      "midi": 76,
      "hit": false,
      "t": 202438.66000000085,
      "d": 243.90200000000186,
      "v": 100
    },
    {
      "midi": 54,
      "hit": false,
      "t": 202438.66000000085,
      "d": 1.0162583333440125,
      "v": 80
    },
    {
      "midi": 85,
      "hit": false,
      "t": 202438.66000000088,
      "d": 243.90200000000186,
      "v": 100
    },
    {
      "midi": 83,
      "hit": false,
      "t": 202438.66000000088,
      "d": 243.90200000000186,
      "v": 100
    },
    {
      "midi": 76,
      "hit": false,
      "t": 202438.66000000088,
      "d": 121.95100000000093,
      "v": 100
    },
    {
      "midi": 33,
      "hit": false,
      "t": 202438.6600000009,
      "d": 243.90200000000186,
      "v": 100
    },
    {
      "midi": 33,
      "hit": false,
      "t": 202438.66000000192,
      "d": 1.0162583333440125,
      "v": 127
    },
    {
      "midi": 40,
      "hit": false,
      "t": 202438.66000000192,
      "d": 1.0162583333440125,
      "v": 100
    },
    {
      "midi": 46,
      "hit": false,
      "t": 202438.66000000192,
      "d": 1.0162583333440125,
      "v": 100
    },
    {
      "midi": 69,
      "hit": false,
      "t": 202438.66000001907,
      "d": 243.90199999985634,
      "v": 100
    },
    {
      "midi": 64,
      "hit": false,
      "t": 202438.66000001907,
      "d": 243.90199999985634,
      "v": 100
    },
    {
      "midi": 61,
      "hit": false,
      "t": 202438.66000001907,
      "d": 243.90199999985634,
      "v": 100
    },
    {
      "midi": 54,
      "hit": false,
      "t": 202560.61100000085,
      "d": 1.0162583333440125,
      "v": 60
    },
    {
      "midi": 76,
      "hit": false,
      "t": 202560.61100000088,
      "d": 121.95100000000093,
      "v": 100
    },
    {
      "midi": 44,
      "hit": false,
      "t": 202560.61100000193,
      "d": 1.0162583333440125,
      "v": 100
    },
    {
      "midi": 85,
      "hit": false,
      "t": 202682.56200000085,
      "d": 243.90200000000186,
      "v": 100
    },
    {
      "midi": 81,
      "hit": false,
      "t": 202682.56200000085,
      "d": 243.90200000000186,
      "v": 100
    },
    {
      "midi": 76,
      "hit": false,
      "t": 202682.56200000085,
      "d": 243.90200000000186,
      "v": 100
    },
    {
      "midi": 54,
      "hit": false,
      "t": 202682.56200000085,
      "d": 1.0162583333440125,
      "v": 60
    },
    {
      "midi": 88,
      "hit": false,
      "t": 202682.56200000088,
      "d": 243.90200000000186,
      "v": 100
    },
    {
      "midi": 85,
      "hit": false,
      "t": 202682.56200000088,
      "d": 243.90200000000186,
      "v": 100
    },
    {
      "midi": 73,
      "hit": false,
      "t": 202682.56200000088,
      "d": 121.95100000000093,
      "v": 100
    },
    {
      "midi": 33,
      "hit": false,
      "t": 202682.5620000009,
      "d": 243.90200000000186,
      "v": 100
    },
    {
      "midi": 40,
      "hit": false,
      "t": 202682.56200000193,
      "d": 1.0162583333440125,
      "v": 40
    },
    {
      "midi": 46,
      "hit": false,
      "t": 202682.56200000193,
      "d": 1.0162583333440125,
      "v": 100
    },
    {
      "midi": 69,
      "hit": false,
      "t": 202682.56200001892,
      "d": 60.975500000000466,
      "v": 100
    },
    {
      "midi": 64,
      "hit": false,
      "t": 202682.56200001892,
      "d": 60.975500000000466,
      "v": 100
    },
    {
      "midi": 61,
      "hit": false,
      "t": 202682.56200001892,
      "d": 60.975500000000466,
      "v": 100
    },
    {
      "midi": 54,
      "hit": false,
      "t": 202804.51300000085,
      "d": 1.0162583333440125,
      "v": 60
    },
    {
      "midi": 73,
      "hit": false,
      "t": 202804.51300000088,
      "d": 121.95100000000093,
      "v": 100
    },
    {
      "midi": 40,
      "hit": false,
      "t": 202804.51300000193,
      "d": 1.0162583333440125,
      "v": 100
    },
    {
      "midi": 44,
      "hit": false,
      "t": 202804.51300000193,
      "d": 1.0162583333440125,
      "v": 100
    },
    {
      "midi": 69,
      "hit": false,
      "t": 202804.51300001892,
      "d": 60.975500000000466,
      "v": 100
    },
    {
      "midi": 64,
      "hit": false,
      "t": 202804.51300001892,
      "d": 60.975500000000466,
      "v": 100
    },
    {
      "midi": 61,
      "hit": false,
      "t": 202804.51300001892,
      "d": 60.975500000000466,
      "v": 100
    },
    {
      "midi": 87,
      "hit": false,
      "t": 202926.46400000085,
      "d": 243.90200000000186,
      "v": 100
    },
    {
      "midi": 83,
      "hit": false,
      "t": 202926.46400000085,
      "d": 243.90200000000186,
      "v": 100
    },
    {
      "midi": 78,
      "hit": false,
      "t": 202926.46400000085,
      "d": 243.90200000000186,
      "v": 100
    },
    {
      "midi": 54,
      "hit": false,
      "t": 202926.46400000085,
      "d": 1.0162583333440125,
      "v": 80
    },
    {
      "midi": 87,
      "hit": false,
      "t": 202926.46400000088,
      "d": 243.90200000000186,
      "v": 100
    },
    {
      "midi": 83,
      "hit": false,
      "t": 202926.46400000088,
      "d": 243.90200000000186,
      "v": 100
    },
    {
      "midi": 71,
      "hit": false,
      "t": 202926.46400000088,
      "d": 121.95100000000093,
      "v": 100
    },
    {
      "midi": 35,
      "hit": false,
      "t": 202926.4640000009,
      "d": 243.90200000000186,
      "v": 100
    },
    {
      "midi": 33,
      "hit": false,
      "t": 202926.46400000193,
      "d": 1.0162583333440125,
      "v": 127
    },
    {
      "midi": 42,
      "hit": false,
      "t": 202926.46400000193,
      "d": 1.0162583333440125,
      "v": 100
    },
    {
      "midi": 47,
      "hit": false,
      "t": 202926.46400000394,
      "d": 975.6080000000075,
      "v": 100
    },
    {
      "midi": 54,
      "hit": false,
      "t": 202926.46400000394,
      "d": 975.6080000000075,
      "v": 100
    },
    {
      "midi": 71,
      "hit": false,
      "t": 202926.46400001892,
      "d": 487.8040000000037,
      "v": 100
    },
    {
      "midi": 66,
      "hit": false,
      "t": 202926.46400001892,
      "d": 487.8040000000037,
      "v": 100
    },
    {
      "midi": 63,
      "hit": false,
      "t": 202926.46400001892,
      "d": 487.8040000000037,
      "v": 100
    },
    {
      "midi": 54,
      "hit": false,
      "t": 203048.41500000085,
      "d": 1.0162583333440125,
      "v": 60
    },
    {
      "midi": 71,
      "hit": false,
      "t": 203048.41500000088,
      "d": 121.95100000000093,
      "v": 100
    },
    {
      "midi": 71,
      "hit": false,
      "t": 203048.41500000114,
      "d": 121.95100000000093,
      "v": 100
    },
    {
      "midi": 66,
      "hit": false,
      "t": 203048.41500000114,
      "d": 121.95100000000093,
      "v": 100
    },
    {
      "midi": 63,
      "hit": false,
      "t": 203048.41500000114,
      "d": 121.95100000000093,
      "v": 100
    },
    {
      "midi": 54,
      "hit": false,
      "t": 203170.36600000085,
      "d": 1.0162583333440125,
      "v": 60
    },
    {
      "midi": 83,
      "hit": false,
      "t": 203170.36600000088,
      "d": 121.95100000000093,
      "v": 100
    },
    {
      "midi": 80,
      "hit": false,
      "t": 203170.36600000088,
      "d": 121.95100000000093,
      "v": 100
    },
    {
      "midi": 75,
      "hit": false,
      "t": 203170.36600000088,
      "d": 121.95100000000093,
      "v": 100
    },
    {
      "midi": 35,
      "hit": false,
      "t": 203170.3660000009,
      "d": 243.90200000000186,
      "v": 100
    },
    {
      "midi": 71,
      "hit": false,
      "t": 203170.36600000114,
      "d": 121.95100000000093,
      "v": 100
    },
    {
      "midi": 66,
      "hit": false,
      "t": 203170.36600000114,
      "d": 121.95100000000093,
      "v": 100
    },
    {
      "midi": 63,
      "hit": false,
      "t": 203170.36600000114,
      "d": 121.95100000000093,
      "v": 100
    },
    {
      "midi": 46,
      "hit": false,
      "t": 203170.36600000193,
      "d": 1.0162583333440125,
      "v": 100
    },
    {
      "midi": 54,
      "hit": false,
      "t": 203292.31700000085,
      "d": 1.0162583333440125,
      "v": 60
    },
    {
      "midi": 75,
      "hit": false,
      "t": 203292.31700000088,
      "d": 121.95100000000093,
      "v": 100
    },
    {
      "midi": 44,
      "hit": false,
      "t": 203292.31700000193,
      "d": 1.0162583333440125,
      "v": 100
    },
    {
      "midi": 83,
      "hit": false,
      "t": 203414.26800000085,
      "d": 243.90200000000186,
      "v": 100
    },
    {
      "midi": 78,
      "hit": false,
      "t": 203414.26800000085,
      "d": 243.90200000000186,
      "v": 100
    },
    {
      "midi": 54,
      "hit": false,
      "t": 203414.26800000085,
      "d": 1.0162583333440125,
      "v": 80
    },
    {
      "midi": 83,
      "hit": false,
      "t": 203414.26800000088,
      "d": 243.90200000000186,
      "v": 100
    },
    {
      "midi": 80,
      "hit": false,
      "t": 203414.26800000088,
      "d": 243.90200000000186,
      "v": 100
    },
    {
      "midi": 71,
      "hit": false,
      "t": 203414.26800000088,
      "d": 121.95100000000093,
      "v": 100
    },
    {
      "midi": 35,
      "hit": false,
      "t": 203414.2680000009,
      "d": 243.90200000000186,
      "v": 100
    },
    {
      "midi": 71,
      "hit": false,
      "t": 203414.26800000115,
      "d": 121.95100000000093,
      "v": 100
    },
    {
      "midi": 66,
      "hit": false,
      "t": 203414.26800000115,
      "d": 121.95100000000093,
      "v": 100
    },
    {
      "midi": 63,
      "hit": false,
      "t": 203414.26800000115,
      "d": 121.95100000000093,
      "v": 100
    },
    {
      "midi": 33,
      "hit": false,
      "t": 203414.26800000193,
      "d": 1.0162583333440125,
      "v": 127
    },
    {
      "midi": 40,
      "hit": false,
      "t": 203414.26800000193,
      "d": 1.0162583333440125,
      "v": 100
    },
    {
      "midi": 46,
      "hit": false,
      "t": 203414.26800000193,
      "d": 1.0162583333440125,
      "v": 100
    },
    {
      "midi": 71,
      "hit": false,
      "t": 203414.26800001893,
      "d": 60.97549999988405,
      "v": 100
    },
    {
      "midi": 66,
      "hit": false,
      "t": 203414.26800001893,
      "d": 60.97549999988405,
      "v": 100
    },
    {
      "midi": 63,
      "hit": false,
      "t": 203414.26800001893,
      "d": 60.97549999988405,
      "v": 100
    },
    {
      "midi": 54,
      "hit": false,
      "t": 203536.21900000086,
      "d": 1.0162583333440125,
      "v": 60
    },
    {
      "midi": 71,
      "hit": false,
      "t": 203536.21900000088,
      "d": 121.95100000000093,
      "v": 100
    },
    {
      "midi": 44,
      "hit": false,
      "t": 203536.21900000193,
      "d": 1.0162583333440125,
      "v": 100
    },
    {
      "midi": 71,
      "hit": false,
      "t": 203536.2190000188,
      "d": 60.975500000000466,
      "v": 100
    },
    {
      "midi": 66,
      "hit": false,
      "t": 203536.2190000188,
      "d": 60.975500000000466,
      "v": 100
    },
    {
      "midi": 63,
      "hit": false,
      "t": 203536.2190000188,
      "d": 60.975500000000466,
      "v": 100
    },
    {
      "midi": 78,
      "hit": false,
      "t": 203658.17000000086,
      "d": 40.65033333332394,
      "v": 100
    },
    {
      "midi": 83,
      "hit": false,
      "t": 203658.17000000086,
      "d": 40.65033333332394,
      "v": 100
    },
    {
      "midi": 54,
      "hit": false,
      "t": 203658.17000000086,
      "d": 1.0162583333440125,
      "v": 60
    },
    {
      "midi": 80,
      "hit": false,
      "t": 203658.1700000009,
      "d": 121.95100000000093,
      "v": 100
    },
    {
      "midi": 76,
      "hit": false,
      "t": 203658.1700000009,
      "d": 121.95100000000093,
      "v": 100
    },
    {
      "midi": 80,
      "hit": false,
      "t": 203658.1700000009,
      "d": 121.95100000000093,
      "v": 100
    },
    {
      "midi": 35,
      "hit": false,
      "t": 203658.17000000092,
      "d": 71.13808333332418,
      "v": 100
    },
    {
      "midi": 71,
      "hit": false,
      "t": 203658.17000000115,
      "d": 121.95100000000093,
      "v": 100
    },
    {
      "midi": 66,
      "hit": false,
      "t": 203658.17000000115,
      "d": 121.95100000000093,
      "v": 100
    },
    {
      "midi": 63,
      "hit": false,
      "t": 203658.17000000115,
      "d": 121.95100000000093,
      "v": 100
    },
    {
      "midi": 46,
      "hit": false,
      "t": 203658.17000000193,
      "d": 1.0162583333440125,
      "v": 100
    },
    {
      "midi": 71,
      "hit": false,
      "t": 203658.17000001873,
      "d": 60.975500000000466,
      "v": 100
    },
    {
      "midi": 66,
      "hit": false,
      "t": 203658.17000001873,
      "d": 60.975500000000466,
      "v": 100
    },
    {
      "midi": 63,
      "hit": false,
      "t": 203658.17000001873,
      "d": 60.975500000000466,
      "v": 100
    },
    {
      "midi": 83,
      "hit": false,
      "t": 203780.12100000086,
      "d": 243.90200000000186,
      "v": 100
    },
    {
      "midi": 78,
      "hit": false,
      "t": 203780.12100000086,
      "d": 243.90200000000186,
      "v": 100
    },
    {
      "midi": 75,
      "hit": false,
      "t": 203780.12100000086,
      "d": 325.20266666667885,
      "v": 100
    },
    {
      "midi": 54,
      "hit": false,
      "t": 203780.12100000086,
      "d": 1.0162583333440125,
      "v": 60
    },
    {
      "midi": 83,
      "hit": false,
      "t": 203780.1210000009,
      "d": 487.8040000000037,
      "v": 100
    },
    {
      "midi": 80,
      "hit": false,
      "t": 203780.1210000009,
      "d": 487.8040000000037,
      "v": 100
    },
    {
      "midi": 80,
      "hit": false,
      "t": 203780.1210000009,
      "d": 121.95100000000093,
      "v": 100
    },
    {
      "midi": 32,
      "hit": false,
      "t": 203780.12100000092,
      "d": 243.90200000000186,
      "v": 100
    },
    {
      "midi": 44,
      "hit": false,
      "t": 203780.12100000193,
      "d": 1.0162583333440125,
      "v": 100
    },
    {
      "midi": 71,
      "hit": false,
      "t": 203780.12100001873,
      "d": 60.975500000000466,
      "v": 100
    },
    {
      "midi": 66,
      "hit": false,
      "t": 203780.12100001873,
      "d": 60.975500000000466,
      "v": 100
    },
    {
      "midi": 63,
      "hit": false,
      "t": 203780.12100001873,
      "d": 60.975500000000466,
      "v": 100
    },
    {
      "midi": 54,
      "hit": false,
      "t": 203902.07200000086,
      "d": 1.0162583333440125,
      "v": 80
    },
    {
      "midi": 80,
      "hit": false,
      "t": 203902.0720000009,
      "d": 121.95100000000093,
      "v": 100
    },
    {
      "midi": 68,
      "hit": false,
      "t": 203902.07200000115,
      "d": 121.95100000000093,
      "v": 100
    },
    {
      "midi": 64,
      "hit": false,
      "t": 203902.07200000115,
      "d": 121.95100000000093,
      "v": 100
    },
    {
      "midi": 59,
      "hit": false,
      "t": 203902.07200000115,
      "d": 121.95100000000093,
      "v": 100
    },
    {
      "midi": 33,
      "hit": false,
      "t": 203902.07200000194,
      "d": 1.0162583333440125,
      "v": 127
    },
    {
      "midi": 42,
      "hit": false,
      "t": 203902.07200000194,
      "d": 1.0162583333440125,
      "v": 100
    },
    {
      "midi": 51,
      "hit": false,
      "t": 203902.07200000394,
      "d": 975.6080000000075,
      "v": 100
    },
    {
      "midi": 44,
      "hit": false,
      "t": 203902.07200000394,
      "d": 975.6080000000075,
      "v": 100
    },
    {
      "midi": 68,
      "hit": false,
      "t": 203902.07200001873,
      "d": 60.97549999988405,
      "v": 100
    },
    {
      "midi": 63,
      "hit": false,
      "t": 203902.07200001873,
      "d": 60.97549999988405,
      "v": 100
    },
    {
      "midi": 59,
      "hit": false,
      "t": 203902.07200001873,
      "d": 60.97549999988405,
      "v": 100
    },
    {
      "midi": 54,
      "hit": false,
      "t": 204024.02300000086,
      "d": 1.0162583333440125,
      "v": 60
    },
    {
      "midi": 80,
      "hit": false,
      "t": 204024.0230000009,
      "d": 121.95100000000093,
      "v": 100
    },
    {
      "midi": 32,
      "hit": false,
      "t": 204024.02300000092,
      "d": 121.95100000000093,
      "v": 100
    },
    {
      "midi": 68,
      "hit": false,
      "t": 204024.02300000115,
      "d": 121.95100000000093,
      "v": 100
    },
    {
      "midi": 64,
      "hit": false,
      "t": 204024.02300000115,
      "d": 121.95100000000093,
      "v": 100
    },
    {
      "midi": 59,
      "hit": false,
      "t": 204024.02300000115,
      "d": 121.95100000000093,
      "v": 100
    },
    {
      "midi": 68,
      "hit": false,
      "t": 204024.0230000186,
      "d": 60.975500000000466,
      "v": 100
    },
    {
      "midi": 63,
      "hit": false,
      "t": 204024.0230000186,
      "d": 60.975500000000466,
      "v": 100
    },
    {
      "midi": 59,
      "hit": false,
      "t": 204024.0230000186,
      "d": 60.975500000000466,
      "v": 100
    },
    {
      "midi": 75,
      "hit": false,
      "t": 204145.97400000086,
      "d": 243.90200000000186,
      "v": 100
    },
    {
      "midi": 83,
      "hit": false,
      "t": 204145.97400000086,
      "d": 243.90200000000186,
      "v": 100
    },
    {
      "midi": 78,
      "hit": false,
      "t": 204145.97400000086,
      "d": 243.90200000000186,
      "v": 100
    },
    {
      "midi": 54,
      "hit": false,
      "t": 204145.97400000086,
      "d": 1.0162583333440125,
      "v": 60
    },
    {
      "midi": 80,
      "hit": false,
      "t": 204145.9740000009,
      "d": 121.95100000000093,
      "v": 100
    },
    {
      "midi": 32,
      "hit": false,
      "t": 204145.97400000092,
      "d": 243.90200000000186,
      "v": 100
    },
    {
      "midi": 46,
      "hit": false,
      "t": 204145.97400000194,
      "d": 1.0162583333440125,
      "v": 100
    },
    {
      "midi": 68,
      "hit": false,
      "t": 204145.97400001853,
      "d": 60.975500000000466,
      "v": 100
    },
    {
      "midi": 63,
      "hit": false,
      "t": 204145.97400001853,
      "d": 60.975500000000466,
      "v": 100
    },
    {
      "midi": 59,
      "hit": false,
      "t": 204145.97400001853,
      "d": 60.975500000000466,
      "v": 100
    },
    {
      "midi": 54,
      "hit": false,
      "t": 204267.92500000086,
      "d": 1.0162583333440125,
      "v": 60
    },
    {
      "midi": 80,
      "hit": false,
      "t": 204267.9250000009,
      "d": 121.95100000000093,
      "v": 100
    },
    {
      "midi": 68,
      "hit": false,
      "t": 204267.92500000115,
      "d": 121.95100000000093,
      "v": 100
    },
    {
      "midi": 64,
      "hit": false,
      "t": 204267.92500000115,
      "d": 121.95100000000093,
      "v": 100
    },
    {
      "midi": 59,
      "hit": false,
      "t": 204267.92500000115,
      "d": 121.95100000000093,
      "v": 100
    },
    {
      "midi": 44,
      "hit": false,
      "t": 204267.92500000194,
      "d": 1.0162583333440125,
      "v": 100
    },
    {
      "midi": 68,
      "hit": false,
      "t": 204267.92500001853,
      "d": 60.975500000000466,
      "v": 100
    },
    {
      "midi": 63,
      "hit": false,
      "t": 204267.92500001853,
      "d": 60.975500000000466,
      "v": 100
    },
    {
      "midi": 59,
      "hit": false,
      "t": 204267.92500001853,
      "d": 60.975500000000466,
      "v": 100
    },
    {
      "midi": 75,
      "hit": false,
      "t": 204389.87600000086,
      "d": 243.90200000000186,
      "v": 100
    },
    {
      "midi": 80,
      "hit": false,
      "t": 204389.87600000086,
      "d": 243.90200000000186,
      "v": 100
    },
    {
      "midi": 78,
      "hit": false,
      "t": 204389.87600000086,
      "d": 243.90200000000186,
      "v": 100
    },
    {
      "midi": 54,
      "hit": false,
      "t": 204389.87600000086,
      "d": 1.0162583333440125,
      "v": 80
    },
    {
      "midi": 81,
      "hit": false,
      "t": 204389.8760000009,
      "d": 243.90200000000186,
      "v": 100
    },
    {
      "midi": 78,
      "hit": false,
      "t": 204389.8760000009,
      "d": 243.90200000000186,
      "v": 100
    },
    {
      "midi": 75,
      "hit": false,
      "t": 204389.8760000009,
      "d": 121.95100000000093,
      "v": 100
    },
    {
      "midi": 30,
      "hit": false,
      "t": 204389.87600000092,
      "d": 243.90200000000186,
      "v": 100
    },
    {
      "midi": 33,
      "hit": false,
      "t": 204389.87600000194,
      "d": 1.0162583333440125,
      "v": 127
    },
    {
      "midi": 40,
      "hit": false,
      "t": 204389.87600000194,
      "d": 1.0162583333440125,
      "v": 100
    },
    {
      "midi": 46,
      "hit": false,
      "t": 204389.87600000194,
      "d": 1.0162583333440125,
      "v": 100
    },
    {
      "midi": 68,
      "hit": false,
      "t": 204389.87600001853,
      "d": 243.90199999985634,
      "v": 100
    },
    {
      "midi": 63,
      "hit": false,
      "t": 204389.87600001853,
      "d": 243.90199999985634,
      "v": 100
    },
    {
      "midi": 59,
      "hit": false,
      "t": 204389.87600001853,
      "d": 243.90199999985634,
      "v": 100
    },
    {
      "midi": 54,
      "hit": false,
      "t": 204511.82700000086,
      "d": 1.0162583333440125,
      "v": 60
    },
    {
      "midi": 75,
      "hit": false,
      "t": 204511.8270000009,
      "d": 121.95100000000093,
      "v": 100
    },
    {
      "midi": 44,
      "hit": false,
      "t": 204511.82700000194,
      "d": 1.0162583333440125,
      "v": 100
    },
    {
      "midi": 75,
      "hit": false,
      "t": 204633.77800000086,
      "d": 243.90200000000186,
      "v": 100
    },
    {
      "midi": 83,
      "hit": false,
      "t": 204633.77800000086,
      "d": 243.90200000000186,
      "v": 100
    },
    {
      "midi": 78,
      "hit": false,
      "t": 204633.77800000086,
      "d": 243.90200000000186,
      "v": 100
    },
    {
      "midi": 54,
      "hit": false,
      "t": 204633.77800000086,
      "d": 1.0162583333440125,
      "v": 60
    },
    {
      "midi": 83,
      "hit": false,
      "t": 204633.7780000009,
      "d": 243.90200000000186,
      "v": 100
    },
    {
      "midi": 80,
      "hit": false,
      "t": 204633.7780000009,
      "d": 243.90200000000186,
      "v": 100
    },
    {
      "midi": 80,
      "hit": false,
      "t": 204633.7780000009,
      "d": 121.95100000000093,
      "v": 100
    },
    {
      "midi": 32,
      "hit": false,
      "t": 204633.77800000092,
      "d": 243.90200000000186,
      "v": 100
    },
    {
      "midi": 40,
      "hit": false,
      "t": 204633.77800000194,
      "d": 1.0162583333440125,
      "v": 40
    },
    {
      "midi": 46,
      "hit": false,
      "t": 204633.77800000194,
      "d": 1.0162583333440125,
      "v": 100
    },
    {
      "midi": 68,
      "hit": false,
      "t": 204633.77800001838,
      "d": 60.975500000000466,
      "v": 100
    },
    {
      "midi": 63,
      "hit": false,
      "t": 204633.77800001838,
      "d": 60.975500000000466,
      "v": 100
    },
    {
      "midi": 59,
      "hit": false,
      "t": 204633.77800001838,
      "d": 60.975500000000466,
      "v": 100
    },
    {
      "midi": 54,
      "hit": false,
      "t": 204755.72900000087,
      "d": 1.0162583333440125,
      "v": 60
    },
    {
      "midi": 80,
      "hit": false,
      "t": 204755.7290000009,
      "d": 121.95100000000093,
      "v": 100
    },
    {
      "midi": 40,
      "hit": false,
      "t": 204755.72900000194,
      "d": 1.0162583333440125,
      "v": 100
    },
    {
      "midi": 44,
      "hit": false,
      "t": 204755.72900000194,
      "d": 1.0162583333440125,
      "v": 100
    },
    {
      "midi": 68,
      "hit": false,
      "t": 204755.7290000184,
      "d": 60.975500000000466,
      "v": 100
    },
    {
      "midi": 63,
      "hit": false,
      "t": 204755.7290000184,
      "d": 60.975500000000466,
      "v": 100
    },
    {
      "midi": 59,
      "hit": false,
      "t": 204755.7290000184,
      "d": 60.975500000000466,
      "v": 100
    },
    {
      "midi": 81,
      "hit": false,
      "t": 204877.68000000087,
      "d": 243.90200000000186,
      "v": 100
    },
    {
      "midi": 76,
      "hit": false,
      "t": 204877.68000000087,
      "d": 243.90200000000186,
      "v": 100
    },
    {
      "midi": 73,
      "hit": false,
      "t": 204877.68000000087,
      "d": 243.90200000000186,
      "v": 100
    },
    {
      "midi": 54,
      "hit": false,
      "t": 204877.68000000087,
      "d": 1.0162583333440125,
      "v": 80
    },
    {
      "midi": 81,
      "hit": false,
      "t": 204877.6800000009,
      "d": 243.90200000000186,
      "v": 100
    },
    {
      "midi": 76,
      "hit": false,
      "t": 204877.6800000009,
      "d": 243.90200000000186,
      "v": 100
    },
    {
      "midi": 73,
      "hit": false,
      "t": 204877.6800000009,
      "d": 121.95100000000093,
      "v": 100
    },
    {
      "midi": 33,
      "hit": false,
      "t": 204877.68000000092,
      "d": 243.90200000000186,
      "v": 100
    },
    {
      "midi": 33,
      "hit": false,
      "t": 204877.68000000194,
      "d": 1.0162583333440125,
      "v": 127
    },
    {
      "midi": 42,
      "hit": false,
      "t": 204877.68000000194,
      "d": 1.0162583333440125,
      "v": 100
    },
    {
      "midi": 45,
      "hit": false,
      "t": 204877.68000000395,
      "d": 975.6080000000075,
      "v": 100
    },
    {
      "midi": 52,
      "hit": false,
      "t": 204877.68000000395,
      "d": 975.6080000000075,
      "v": 100
    },
    {
      "midi": 69,
      "hit": false,
      "t": 204877.6800000184,
      "d": 487.8040000000037,
      "v": 100
    },
    {
      "midi": 64,
      "hit": false,
      "t": 204877.6800000184,
      "d": 487.8040000000037,
      "v": 100
    },
    {
      "midi": 61,
      "hit": false,
      "t": 204877.6800000184,
      "d": 487.8040000000037,
      "v": 100
    },
    {
      "midi": 54,
      "hit": false,
      "t": 204999.63100000087,
      "d": 1.0162583333440125,
      "v": 60
    },
    {
      "midi": 73,
      "hit": false,
      "t": 204999.6310000009,
      "d": 121.95100000000093,
      "v": 100
    },
    {
      "midi": 69,
      "hit": false,
      "t": 204999.63100000116,
      "d": 121.95100000000093,
      "v": 100
    },
    {
      "midi": 64,
      "hit": false,
      "t": 204999.63100000116,
      "d": 121.95100000000093,
      "v": 100
    },
    {
      "midi": 61,
      "hit": false,
      "t": 204999.63100000116,
      "d": 121.95100000000093,
      "v": 100
    },
    {
      "midi": 54,
      "hit": false,
      "t": 205121.58200000087,
      "d": 1.0162583333440125,
      "v": 60
    },
    {
      "midi": 69,
      "hit": false,
      "t": 205121.5820000009,
      "d": 121.95100000000093,
      "v": 100
    },
    {
      "midi": 33,
      "hit": false,
      "t": 205121.58200000093,
      "d": 243.90200000000186,
      "v": 100
    },
    {
      "midi": 69,
      "hit": false,
      "t": 205121.58200000116,
      "d": 121.95100000000093,
      "v": 100
    },
    {
      "midi": 64,
      "hit": false,
      "t": 205121.58200000116,
      "d": 121.95100000000093,
      "v": 100
    },
    {
      "midi": 61,
      "hit": false,
      "t": 205121.58200000116,
      "d": 121.95100000000093,
      "v": 100
    },
    {
      "midi": 46,
      "hit": false,
      "t": 205121.58200000194,
      "d": 1.0162583333440125,
      "v": 100
    },
    {
      "midi": 54,
      "hit": false,
      "t": 205243.53300000087,
      "d": 1.0162583333440125,
      "v": 60
    },
    {
      "midi": 69,
      "hit": false,
      "t": 205243.5330000009,
      "d": 121.95100000000093,
      "v": 100
    },
    {
      "midi": 44,
      "hit": false,
      "t": 205243.53300000195,
      "d": 1.0162583333440125,
      "v": 100
    },
    {
      "midi": 81,
      "hit": false,
      "t": 205365.48400000087,
      "d": 243.90200000000186,
      "v": 100
    },
    {
      "midi": 76,
      "hit": false,
      "t": 205365.48400000087,
      "d": 243.90200000000186,
      "v": 100
    },
    {
      "midi": 73,
      "hit": false,
      "t": 205365.48400000087,
      "d": 243.90200000000186,
      "v": 100
    },
    {
      "midi": 54,
      "hit": false,
      "t": 205365.48400000087,
      "d": 1.0162583333440125,
      "v": 80
    },
    {
      "midi": 81,
      "hit": false,
      "t": 205365.4840000009,
      "d": 243.90200000000186,
      "v": 100
    },
    {
      "midi": 76,
      "hit": false,
      "t": 205365.4840000009,
      "d": 243.90200000000186,
      "v": 100
    },
    {
      "midi": 73,
      "hit": false,
      "t": 205365.4840000009,
      "d": 121.95100000000093,
      "v": 100
    },
    {
      "midi": 33,
      "hit": false,
      "t": 205365.48400000093,
      "d": 243.90200000000186,
      "v": 100
    },
    {
      "midi": 69,
      "hit": false,
      "t": 205365.48400000116,
      "d": 121.95100000000093,
      "v": 100
    },
    {
      "midi": 64,
      "hit": false,
      "t": 205365.48400000116,
      "d": 121.95100000000093,
      "v": 100
    },
    {
      "midi": 61,
      "hit": false,
      "t": 205365.48400000116,
      "d": 121.95100000000093,
      "v": 100
    },
    {
      "midi": 33,
      "hit": false,
      "t": 205365.48400000195,
      "d": 1.0162583333440125,
      "v": 127
    },
    {
      "midi": 40,
      "hit": false,
      "t": 205365.48400000195,
      "d": 1.0162583333440125,
      "v": 100
    },
    {
      "midi": 46,
      "hit": false,
      "t": 205365.48400000195,
      "d": 1.0162583333440125,
      "v": 100
    },
    {
      "midi": 69,
      "hit": false,
      "t": 205365.4840000184,
      "d": 60.97549999988405,
      "v": 100
    },
    {
      "midi": 64,
      "hit": false,
      "t": 205365.4840000184,
      "d": 60.97549999988405,
      "v": 100
    },
    {
      "midi": 61,
      "hit": false,
      "t": 205365.4840000184,
      "d": 60.97549999988405,
      "v": 100
    },
    {
      "midi": 54,
      "hit": false,
      "t": 205487.43500000087,
      "d": 1.0162583333440125,
      "v": 60
    },
    {
      "midi": 73,
      "hit": false,
      "t": 205487.4350000009,
      "d": 121.95100000000093,
      "v": 100
    },
    {
      "midi": 44,
      "hit": false,
      "t": 205487.43500000195,
      "d": 1.0162583333440125,
      "v": 100
    },
    {
      "midi": 69,
      "hit": false,
      "t": 205487.43500001827,
      "d": 60.975500000000466,
      "v": 100
    },
    {
      "midi": 64,
      "hit": false,
      "t": 205487.43500001827,
      "d": 60.975500000000466,
      "v": 100
    },
    {
      "midi": 61,
      "hit": false,
      "t": 205487.43500001827,
      "d": 60.975500000000466,
      "v": 100
    },
    {
      "midi": 54,
      "hit": false,
      "t": 205609.38600000087,
      "d": 1.0162583333440125,
      "v": 60
    },
    {
      "midi": 83,
      "hit": false,
      "t": 205609.3860000009,
      "d": 121.95100000000093,
      "v": 100
    },
    {
      "midi": 78,
      "hit": false,
      "t": 205609.3860000009,
      "d": 121.95100000000093,
      "v": 100
    },
    {
      "midi": 78,
      "hit": false,
      "t": 205609.3860000009,
      "d": 121.95100000000093,
      "v": 100
    },
    {
      "midi": 33,
      "hit": false,
      "t": 205609.38600000093,
      "d": 71.13808333332418,
      "v": 100
    },
    {
      "midi": 69,
      "hit": false,
      "t": 205609.38600000116,
      "d": 121.95100000000093,
      "v": 100
    },
    {
      "midi": 64,
      "hit": false,
      "t": 205609.38600000116,
      "d": 121.95100000000093,
      "v": 100
    },
    {
      "midi": 61,
      "hit": false,
      "t": 205609.38600000116,
      "d": 121.95100000000093,
      "v": 100
    },
    {
      "midi": 46,
      "hit": false,
      "t": 205609.38600000195,
      "d": 1.0162583333440125,
      "v": 100
    },
    {
      "midi": 69,
      "hit": false,
      "t": 205609.3860000182,
      "d": 60.975500000000466,
      "v": 100
    },
    {
      "midi": 64,
      "hit": false,
      "t": 205609.3860000182,
      "d": 60.975500000000466,
      "v": 100
    },
    {
      "midi": 61,
      "hit": false,
      "t": 205609.3860000182,
      "d": 60.975500000000466,
      "v": 100
    },
    {
      "midi": 78,
      "hit": false,
      "t": 205731.33700000087,
      "d": 365.8530000000028,
      "v": 100
    },
    {
      "midi": 76,
      "hit": false,
      "t": 205731.33700000087,
      "d": 365.8530000000028,
      "v": 100
    },
    {
      "midi": 73,
      "hit": false,
      "t": 205731.33700000087,
      "d": 365.8530000000028,
      "v": 100
    },
    {
      "midi": 54,
      "hit": false,
      "t": 205731.33700000087,
      "d": 1.0162583333440125,
      "v": 60
    },
    {
      "midi": 78,
      "hit": false,
      "t": 205731.3370000009,
      "d": 487.8040000000037,
      "v": 100
    },
    {
      "midi": 73,
      "hit": false,
      "t": 205731.3370000009,
      "d": 487.8040000000037,
      "v": 100
    },
    {
      "midi": 78,
      "hit": false,
      "t": 205731.3370000009,
      "d": 121.95100000000093,
      "v": 100
    },
    {
      "midi": 30,
      "hit": false,
      "t": 205731.33700000093,
      "d": 243.90200000000186,
      "v": 100
    },
    {
      "midi": 44,
      "hit": false,
      "t": 205731.33700000195,
      "d": 1.0162583333440125,
      "v": 100
    },
    {
      "midi": 69,
      "hit": false,
      "t": 205731.3370000182,
      "d": 60.975500000000466,
      "v": 100
    },
    {
      "midi": 64,
      "hit": false,
      "t": 205731.3370000182,
      "d": 60.975500000000466,
      "v": 100
    },
    {
      "midi": 61,
      "hit": false,
      "t": 205731.3370000182,
      "d": 60.975500000000466,
      "v": 100
    },
    {
      "midi": 54,
      "hit": false,
      "t": 205853.28800000087,
      "d": 1.0162583333440125,
      "v": 80
    },
    {
      "midi": 78,
      "hit": false,
      "t": 205853.2880000009,
      "d": 121.95100000000093,
      "v": 100
    },
    {
      "midi": 69,
      "hit": false,
      "t": 205853.28800000116,
      "d": 121.95100000000093,
      "v": 100
    },
    {
      "midi": 64,
      "hit": false,
      "t": 205853.28800000116,
      "d": 121.95100000000093,
      "v": 100
    },
    {
      "midi": 61,
      "hit": false,
      "t": 205853.28800000116,
      "d": 121.95100000000093,
      "v": 100
    },
    {
      "midi": 33,
      "hit": false,
      "t": 205853.28800000195,
      "d": 1.0162583333440125,
      "v": 127
    },
    {
      "midi": 42,
      "hit": false,
      "t": 205853.28800000195,
      "d": 1.0162583333440125,
      "v": 100
    },
    {
      "midi": 49,
      "hit": false,
      "t": 205853.28800000396,
      "d": 975.6080000000075,
      "v": 100
    },
    {
      "midi": 42,
      "hit": false,
      "t": 205853.28800000396,
      "d": 975.6080000000075,
      "v": 100
    },
    {
      "midi": 69,
      "hit": false,
      "t": 205853.2880000182,
      "d": 60.97549999988405,
      "v": 100
    },
    {
      "midi": 64,
      "hit": false,
      "t": 205853.2880000182,
      "d": 60.97549999988405,
      "v": 100
    },
    {
      "midi": 61,
      "hit": false,
      "t": 205853.2880000182,
      "d": 60.97549999988405,
      "v": 100
    },
    {
      "midi": 54,
      "hit": false,
      "t": 205975.23900000087,
      "d": 1.0162583333440125,
      "v": 60
    },
    {
      "midi": 78,
      "hit": false,
      "t": 205975.2390000009,
      "d": 121.95100000000093,
      "v": 100
    },
    {
      "midi": 30,
      "hit": false,
      "t": 205975.23900000093,
      "d": 121.95100000000093,
      "v": 100
    },
    {
      "midi": 69,
      "hit": false,
      "t": 205975.23900000117,
      "d": 121.95100000000093,
      "v": 100
    },
    {
      "midi": 64,
      "hit": false,
      "t": 205975.23900000117,
      "d": 121.95100000000093,
      "v": 100
    },
    {
      "midi": 61,
      "hit": false,
      "t": 205975.23900000117,
      "d": 121.95100000000093,
      "v": 100
    },
    {
      "midi": 69,
      "hit": false,
      "t": 205975.23900001807,
      "d": 60.975500000000466,
      "v": 100
    },
    {
      "midi": 64,
      "hit": false,
      "t": 205975.23900001807,
      "d": 60.975500000000466,
      "v": 100
    },
    {
      "midi": 61,
      "hit": false,
      "t": 205975.23900001807,
      "d": 60.975500000000466,
      "v": 100
    },
    {
      "midi": 78,
      "hit": false,
      "t": 206097.19000000088,
      "d": 243.90200000000186,
      "v": 100
    },
    {
      "midi": 76,
      "hit": false,
      "t": 206097.19000000088,
      "d": 243.90200000000186,
      "v": 100
    },
    {
      "midi": 73,
      "hit": false,
      "t": 206097.19000000088,
      "d": 243.90200000000186,
      "v": 100
    },
    {
      "midi": 54,
      "hit": false,
      "t": 206097.19000000088,
      "d": 1.0162583333440125,
      "v": 60
    },
    {
      "midi": 78,
      "hit": false,
      "t": 206097.1900000009,
      "d": 121.95100000000093,
      "v": 100
    },
    {
      "midi": 30,
      "hit": false,
      "t": 206097.19000000093,
      "d": 243.90200000000186,
      "v": 100
    },
    {
      "midi": 46,
      "hit": false,
      "t": 206097.19000000195,
      "d": 1.0162583333440125,
      "v": 100
    },
    {
      "midi": 69,
      "hit": false,
      "t": 206097.190000018,
      "d": 60.975500000000466,
      "v": 100
    },
    {
      "midi": 64,
      "hit": false,
      "t": 206097.190000018,
      "d": 60.975500000000466,
      "v": 100
    },
    {
      "midi": 61,
      "hit": false,
      "t": 206097.190000018,
      "d": 60.975500000000466,
      "v": 100
    },
    {
      "midi": 54,
      "hit": false,
      "t": 206219.14100000088,
      "d": 1.0162583333440125,
      "v": 60
    },
    {
      "midi": 78,
      "hit": false,
      "t": 206219.1410000009,
      "d": 121.95100000000093,
      "v": 100
    },
    {
      "midi": 69,
      "hit": false,
      "t": 206219.14100000117,
      "d": 121.95100000000093,
      "v": 100
    },
    {
      "midi": 64,
      "hit": false,
      "t": 206219.14100000117,
      "d": 121.95100000000093,
      "v": 100
    },
    {
      "midi": 61,
      "hit": false,
      "t": 206219.14100000117,
      "d": 121.95100000000093,
      "v": 100
    },
    {
      "midi": 44,
      "hit": false,
      "t": 206219.14100000195,
      "d": 1.0162583333440125,
      "v": 100
    },
    {
      "midi": 69,
      "hit": false,
      "t": 206219.141000018,
      "d": 60.975500000000466,
      "v": 100
    },
    {
      "midi": 64,
      "hit": false,
      "t": 206219.141000018,
      "d": 60.975500000000466,
      "v": 100
    },
    {
      "midi": 61,
      "hit": false,
      "t": 206219.141000018,
      "d": 60.975500000000466,
      "v": 100
    },
    {
      "midi": 76,
      "hit": false,
      "t": 206341.09200000088,
      "d": 243.90200000000186,
      "v": 100
    },
    {
      "midi": 73,
      "hit": false,
      "t": 206341.09200000088,
      "d": 243.90200000000186,
      "v": 100
    },
    {
      "midi": 69,
      "hit": false,
      "t": 206341.09200000088,
      "d": 243.90200000000186,
      "v": 100
    },
    {
      "midi": 54,
      "hit": false,
      "t": 206341.09200000088,
      "d": 1.0162583333440125,
      "v": 80
    },
    {
      "midi": 76,
      "hit": false,
      "t": 206341.0920000009,
      "d": 243.90200000000186,
      "v": 100
    },
    {
      "midi": 71,
      "hit": false,
      "t": 206341.0920000009,
      "d": 243.90200000000186,
      "v": 100
    },
    {
      "midi": 73,
      "hit": false,
      "t": 206341.0920000009,
      "d": 121.95100000000093,
      "v": 100
    },
    {
      "midi": 27,
      "hit": false,
      "t": 206341.09200000094,
      "d": 243.90200000000186,
      "v": 100
    },
    {
      "midi": 33,
      "hit": false,
      "t": 206341.09200000195,
      "d": 1.0162583333440125,
      "v": 127
    },
    {
      "midi": 40,
      "hit": false,
      "t": 206341.09200000195,
      "d": 1.0162583333440125,
      "v": 100
    },
    {
      "midi": 46,
      "hit": false,
      "t": 206341.09200000195,
      "d": 1.0162583333440125,
      "v": 100
    },
    {
      "midi": 69,
      "hit": false,
      "t": 206341.092000018,
      "d": 243.90199999985634,
      "v": 100
    },
    {
      "midi": 64,
      "hit": false,
      "t": 206341.092000018,
      "d": 243.90199999985634,
      "v": 100
    },
    {
      "midi": 61,
      "hit": false,
      "t": 206341.092000018,
      "d": 243.90199999985634,
      "v": 100
    },
    {
      "midi": 54,
      "hit": false,
      "t": 206463.04300000088,
      "d": 1.0162583333440125,
      "v": 60
    },
    {
      "midi": 73,
      "hit": false,
      "t": 206463.0430000009,
      "d": 121.95100000000093,
      "v": 100
    },
    {
      "midi": 44,
      "hit": false,
      "t": 206463.04300000196,
      "d": 1.0162583333440125,
      "v": 100
    },
    {
      "midi": 78,
      "hit": false,
      "t": 206584.99400000088,
      "d": 243.90200000000186,
      "v": 100
    },
    {
      "midi": 76,
      "hit": false,
      "t": 206584.99400000088,
      "d": 243.90200000000186,
      "v": 100
    },
    {
      "midi": 73,
      "hit": false,
      "t": 206584.99400000088,
      "d": 243.90200000000186,
      "v": 100
    },
    {
      "midi": 54,
      "hit": false,
      "t": 206584.99400000088,
      "d": 1.0162583333440125,
      "v": 60
    },
    {
      "midi": 78,
      "hit": false,
      "t": 206584.9940000009,
      "d": 243.90200000000186,
      "v": 100
    },
    {
      "midi": 73,
      "hit": false,
      "t": 206584.9940000009,
      "d": 243.90200000000186,
      "v": 100
    },
    {
      "midi": 78,
      "hit": false,
      "t": 206584.9940000009,
      "d": 121.95100000000093,
      "v": 100
    },
    {
      "midi": 30,
      "hit": false,
      "t": 206584.99400000094,
      "d": 243.90200000000186,
      "v": 100
    },
    {
      "midi": 40,
      "hit": false,
      "t": 206584.99400000196,
      "d": 1.0162583333440125,
      "v": 40
    },
    {
      "midi": 46,
      "hit": false,
      "t": 206584.99400000196,
      "d": 1.0162583333440125,
      "v": 100
    },
    {
      "midi": 69,
      "hit": false,
      "t": 206584.99400001785,
      "d": 60.975500000000466,
      "v": 100
    },
    {
      "midi": 64,
      "hit": false,
      "t": 206584.99400001785,
      "d": 60.975500000000466,
      "v": 100
    },
    {
      "midi": 61,
      "hit": false,
      "t": 206584.99400001785,
      "d": 60.975500000000466,
      "v": 100
    },
    {
      "midi": 54,
      "hit": false,
      "t": 206706.94500000088,
      "d": 1.0162583333440125,
      "v": 60
    },
    {
      "midi": 78,
      "hit": false,
      "t": 206706.9450000009,
      "d": 121.95100000000093,
      "v": 100
    },
    {
      "midi": 40,
      "hit": false,
      "t": 206706.94500000196,
      "d": 1.0162583333440125,
      "v": 100
    },
    {
      "midi": 44,
      "hit": false,
      "t": 206706.94500000196,
      "d": 1.0162583333440125,
      "v": 100
    },
    {
      "midi": 69,
      "hit": false,
      "t": 206706.94500001785,
      "d": 60.975500000000466,
      "v": 100
    },
    {
      "midi": 64,
      "hit": false,
      "t": 206706.94500001785,
      "d": 60.975500000000466,
      "v": 100
    },
    {
      "midi": 61,
      "hit": false,
      "t": 206706.94500001785,
      "d": 60.975500000000466,
      "v": 100
    },
    {
      "midi": 80,
      "hit": false,
      "t": 206828.89600000088,
      "d": 243.90200000000186,
      "v": 100
    },
    {
      "midi": 75,
      "hit": false,
      "t": 206828.89600000088,
      "d": 243.90200000000186,
      "v": 100
    },
    {
      "midi": 71,
      "hit": false,
      "t": 206828.89600000088,
      "d": 243.90200000000186,
      "v": 100
    },
    {
      "midi": 54,
      "hit": false,
      "t": 206828.89600000088,
      "d": 1.0162583333440125,
      "v": 80
    },
    {
      "midi": 80,
      "hit": false,
      "t": 206828.8960000009,
      "d": 243.90200000000186,
      "v": 100
    },
    {
      "midi": 75,
      "hit": false,
      "t": 206828.8960000009,
      "d": 243.90200000000186,
      "v": 100
    },
    {
      "midi": 68,
      "hit": false,
      "t": 206828.8960000009,
      "d": 121.95100000000093,
      "v": 100
    },
    {
      "midi": 32,
      "hit": false,
      "t": 206828.89600000094,
      "d": 243.90200000000186,
      "v": 100
    },
    {
      "midi": 33,
      "hit": false,
      "t": 206828.89600000196,
      "d": 1.0162583333440125,
      "v": 127
    },
    {
      "midi": 42,
      "hit": false,
      "t": 206828.89600000196,
      "d": 1.0162583333440125,
      "v": 100
    },
    {
      "midi": 51,
      "hit": false,
      "t": 206828.89600000397,
      "d": 975.6080000000075,
      "v": 100
    },
    {
      "midi": 44,
      "hit": false,
      "t": 206828.89600000397,
      "d": 975.6080000000075,
      "v": 100
    },
    {
      "midi": 68,
      "hit": false,
      "t": 206828.89600001785,
      "d": 487.8040000000037,
      "v": 100
    },
    {
      "midi": 63,
      "hit": false,
      "t": 206828.89600001785,
      "d": 487.8040000000037,
      "v": 100
    },
    {
      "midi": 59,
      "hit": false,
      "t": 206828.89600001785,
      "d": 487.8040000000037,
      "v": 100
    },
    {
      "midi": 54,
      "hit": false,
      "t": 206950.84700000088,
      "d": 1.0162583333440125,
      "v": 60
    },
    {
      "midi": 68,
      "hit": false,
      "t": 206950.8470000009,
      "d": 121.95100000000093,
      "v": 100
    },
    {
      "midi": 68,
      "hit": false,
      "t": 206950.84700000117,
      "d": 121.95100000000093,
      "v": 100
    },
    {
      "midi": 63,
      "hit": false,
      "t": 206950.84700000117,
      "d": 121.95100000000093,
      "v": 100
    },
    {
      "midi": 59,
      "hit": false,
      "t": 206950.84700000117,
      "d": 121.95100000000093,
      "v": 100
    },
    {
      "midi": 54,
      "hit": false,
      "t": 207072.79800000088,
      "d": 1.0162583333440125,
      "v": 60
    },
    {
      "midi": 71,
      "hit": false,
      "t": 207072.7980000009,
      "d": 121.95100000000093,
      "v": 100
    },
    {
      "midi": 32,
      "hit": false,
      "t": 207072.79800000094,
      "d": 243.90200000000186,
      "v": 100
    },
    {
      "midi": 68,
      "hit": false,
      "t": 207072.79800000117,
      "d": 121.95100000000093,
      "v": 100
    },
    {
      "midi": 63,
      "hit": false,
      "t": 207072.79800000117,
      "d": 121.95100000000093,
      "v": 100
    },
    {
      "midi": 59,
      "hit": false,
      "t": 207072.79800000117,
      "d": 121.95100000000093,
      "v": 100
    },
    {
      "midi": 46,
      "hit": false,
      "t": 207072.79800000196,
      "d": 1.0162583333440125,
      "v": 100
    },
    {
      "midi": 54,
      "hit": false,
      "t": 207194.74900000088,
      "d": 1.0162583333440125,
      "v": 60
    },
    {
      "midi": 71,
      "hit": false,
      "t": 207194.7490000009,
      "d": 121.95100000000093,
      "v": 100
    },
    {
      "midi": 44,
      "hit": false,
      "t": 207194.74900000196,
      "d": 1.0162583333440125,
      "v": 100
    },
    {
      "midi": 80,
      "hit": false,
      "t": 207316.70000000088,
      "d": 243.90200000000186,
      "v": 100
    },
    {
      "midi": 75,
      "hit": false,
      "t": 207316.70000000088,
      "d": 243.90200000000186,
      "v": 100
    },
    {
      "midi": 83,
      "hit": false,
      "t": 207316.70000000088,
      "d": 243.90200000000186,
      "v": 100
    },
    {
      "midi": 54,
      "hit": false,
      "t": 207316.70000000088,
      "d": 1.0162583333440125,
      "v": 80
    },
    {
      "midi": 87,
      "hit": false,
      "t": 207316.7000000009,
      "d": 487.8040000000037,
      "v": 100
    },
    {
      "midi": 80,
      "hit": false,
      "t": 207316.7000000009,
      "d": 487.8040000000037,
      "v": 100
    },
    {
      "midi": 75,
      "hit": false,
      "t": 207316.7000000009,
      "d": 121.95100000000093,
      "v": 100
    },
    {
      "midi": 32,
      "hit": false,
      "t": 207316.70000000094,
      "d": 243.90200000000186,
      "v": 100
    },
    {
      "midi": 68,
      "hit": false,
      "t": 207316.70000000118,
      "d": 121.95100000000093,
      "v": 100
    },
    {
      "midi": 63,
      "hit": false,
      "t": 207316.70000000118,
      "d": 121.95100000000093,
      "v": 100
    },
    {
      "midi": 59,
      "hit": false,
      "t": 207316.70000000118,
      "d": 121.95100000000093,
      "v": 100
    },
    {
      "midi": 33,
      "hit": false,
      "t": 207316.70000000196,
      "d": 1.0162583333440125,
      "v": 127
    },
    {
      "midi": 40,
      "hit": false,
      "t": 207316.70000000196,
      "d": 1.0162583333440125,
      "v": 100
    },
    {
      "midi": 46,
      "hit": false,
      "t": 207316.70000000196,
      "d": 1.0162583333440125,
      "v": 100
    },
    {
      "midi": 68,
      "hit": false,
      "t": 207316.70000001785,
      "d": 60.97549999988405,
      "v": 100
    },
    {
      "midi": 63,
      "hit": false,
      "t": 207316.70000001785,
      "d": 60.97549999988405,
      "v": 100
    },
    {
      "midi": 59,
      "hit": false,
      "t": 207316.70000001785,
      "d": 60.97549999988405,
      "v": 100
    },
    {
      "midi": 54,
      "hit": false,
      "t": 207438.6510000009,
      "d": 1.0162583333440125,
      "v": 60
    },
    {
      "midi": 75,
      "hit": false,
      "t": 207438.65100000091,
      "d": 121.95100000000093,
      "v": 100
    },
    {
      "midi": 44,
      "hit": false,
      "t": 207438.65100000196,
      "d": 1.0162583333440125,
      "v": 100
    },
    {
      "midi": 68,
      "hit": false,
      "t": 207438.65100001774,
      "d": 60.975500000000466,
      "v": 100
    },
    {
      "midi": 63,
      "hit": false,
      "t": 207438.65100001774,
      "d": 60.975500000000466,
      "v": 100
    },
    {
      "midi": 59,
      "hit": false,
      "t": 207438.65100001774,
      "d": 60.975500000000466,
      "v": 100
    },
    {
      "midi": 54,
      "hit": false,
      "t": 207560.6020000009,
      "d": 1.0162583333440125,
      "v": 60
    },
    {
      "midi": 80,
      "hit": false,
      "t": 207560.60200000092,
      "d": 121.95100000000093,
      "v": 100
    },
    {
      "midi": 32,
      "hit": false,
      "t": 207560.60200000094,
      "d": 71.13808333332418,
      "v": 100
    },
    {
      "midi": 68,
      "hit": false,
      "t": 207560.60200000118,
      "d": 121.95100000000093,
      "v": 100
    },
    {
      "midi": 63,
      "hit": false,
      "t": 207560.60200000118,
      "d": 121.95100000000093,
      "v": 100
    },
    {
      "midi": 59,
      "hit": false,
      "t": 207560.60200000118,
      "d": 121.95100000000093,
      "v": 100
    },
    {
      "midi": 46,
      "hit": false,
      "t": 207560.60200000196,
      "d": 1.0162583333440125,
      "v": 100
    },
    {
      "midi": 68,
      "hit": false,
      "t": 207560.60200001765,
      "d": 60.975500000000466,
      "v": 100
    },
    {
      "midi": 63,
      "hit": false,
      "t": 207560.60200001765,
      "d": 60.975500000000466,
      "v": 100
    },
    {
      "midi": 59,
      "hit": false,
      "t": 207560.60200001765,
      "d": 60.975500000000466,
      "v": 100
    },
    {
      "midi": 83,
      "hit": false,
      "t": 207682.5530000009,
      "d": 365.8530000000028,
      "v": 100
    },
    {
      "midi": 80,
      "hit": false,
      "t": 207682.5530000009,
      "d": 365.8530000000028,
      "v": 100
    },
    {
      "midi": 75,
      "hit": false,
      "t": 207682.5530000009,
      "d": 365.8530000000028,
      "v": 100
    },
    {
      "midi": 54,
      "hit": false,
      "t": 207682.5530000009,
      "d": 1.0162583333440125,
      "v": 60
    },
    {
      "midi": 80,
      "hit": false,
      "t": 207682.55300000092,
      "d": 121.95100000000093,
      "v": 100
    },
    {
      "midi": 35,
      "hit": false,
      "t": 207682.55300000095,
      "d": 243.90200000000186,
      "v": 100
    },
    {
      "midi": 44,
      "hit": false,
      "t": 207682.55300000196,
      "d": 1.0162583333440125,
      "v": 100
    },
    {
      "midi": 68,
      "hit": false,
      "t": 207682.55300001765,
      "d": 60.975500000000466,
      "v": 100
    },
    {
      "midi": 63,
      "hit": false,
      "t": 207682.55300001765,
      "d": 60.975500000000466,
      "v": 100
    },
    {
      "midi": 59,
      "hit": false,
      "t": 207682.55300001765,
      "d": 60.975500000000466,
      "v": 100
    },
    {
      "midi": 54,
      "hit": false,
      "t": 207804.5040000009,
      "d": 1.0162583333440125,
      "v": 80
    },
    {
      "midi": 83,
      "hit": false,
      "t": 207804.50400000092,
      "d": 365.8530000000028,
      "v": 100
    },
    {
      "midi": 75,
      "hit": false,
      "t": 207804.50400000092,
      "d": 365.8530000000028,
      "v": 100
    },
    {
      "midi": 83,
      "hit": false,
      "t": 207804.50400000092,
      "d": 121.95100000000093,
      "v": 100
    },
    {
      "midi": 71,
      "hit": false,
      "t": 207804.50400000118,
      "d": 121.95100000000093,
      "v": 100
    },
    {
      "midi": 66,
      "hit": false,
      "t": 207804.50400000118,
      "d": 121.95100000000093,
      "v": 100
    },
    {
      "midi": 63,
      "hit": false,
      "t": 207804.50400000118,
      "d": 121.95100000000093,
      "v": 100
    },
    {
      "midi": 33,
      "hit": false,
      "t": 207804.50400000197,
      "d": 1.0162583333440125,
      "v": 127
    },
    {
      "midi": 42,
      "hit": false,
      "t": 207804.50400000197,
      "d": 1.0162583333440125,
      "v": 100
    },
    {
      "midi": 47,
      "hit": false,
      "t": 207804.50400000397,
      "d": 975.6080000000075,
      "v": 100
    },
    {
      "midi": 54,
      "hit": false,
      "t": 207804.50400000397,
      "d": 975.6080000000075,
      "v": 100
    },
    {
      "midi": 71,
      "hit": false,
      "t": 207804.50400001765,
      "d": 60.97549999988405,
      "v": 100
    },
    {
      "midi": 66,
      "hit": false,
      "t": 207804.50400001765,
      "d": 60.97549999988405,
      "v": 100
    },
    {
      "midi": 63,
      "hit": false,
      "t": 207804.50400001765,
      "d": 60.97549999988405,
      "v": 100
    },
    {
      "midi": 54,
      "hit": false,
      "t": 207926.4550000009,
      "d": 1.0162583333440125,
      "v": 60
    },
    {
      "midi": 83,
      "hit": false,
      "t": 207926.45500000092,
      "d": 121.95100000000093,
      "v": 100
    },
    {
      "midi": 35,
      "hit": false,
      "t": 207926.45500000095,
      "d": 121.95100000000093,
      "v": 100
    },
    {
      "midi": 71,
      "hit": false,
      "t": 207926.45500000118,
      "d": 121.95100000000093,
      "v": 100
    },
    {
      "midi": 66,
      "hit": false,
      "t": 207926.45500000118,
      "d": 121.95100000000093,
      "v": 100
    },
    {
      "midi": 63,
      "hit": false,
      "t": 207926.45500000118,
      "d": 121.95100000000093,
      "v": 100
    },
    {
      "midi": 71,
      "hit": false,
      "t": 207926.45500001754,
      "d": 60.975500000000466,
      "v": 100
    },
    {
      "midi": 66,
      "hit": false,
      "t": 207926.45500001754,
      "d": 60.975500000000466,
      "v": 100
    },
    {
      "midi": 63,
      "hit": false,
      "t": 207926.45500001754,
      "d": 60.975500000000466,
      "v": 100
    },
    {
      "midi": 83,
      "hit": false,
      "t": 208048.4060000009,
      "d": 243.90200000000186,
      "v": 100
    },
    {
      "midi": 80,
      "hit": false,
      "t": 208048.4060000009,
      "d": 243.90200000000186,
      "v": 100
    },
    {
      "midi": 75,
      "hit": false,
      "t": 208048.4060000009,
      "d": 243.90200000000186,
      "v": 100
    },
    {
      "midi": 54,
      "hit": false,
      "t": 208048.4060000009,
      "d": 1.0162583333440125,
      "v": 60
    },
    {
      "midi": 80,
      "hit": false,
      "t": 208048.40600000092,
      "d": 121.95100000000093,
      "v": 100
    },
    {
      "midi": 35,
      "hit": false,
      "t": 208048.40600000095,
      "d": 243.90200000000186,
      "v": 100
    },
    {
      "midi": 46,
      "hit": false,
      "t": 208048.40600000197,
      "d": 1.0162583333440125,
      "v": 100
    },
    {
      "midi": 71,
      "hit": false,
      "t": 208048.40600001745,
      "d": 60.975500000000466,
      "v": 100
    },
    {
      "midi": 66,
      "hit": false,
      "t": 208048.40600001745,
      "d": 60.975500000000466,
      "v": 100
    },
    {
      "midi": 63,
      "hit": false,
      "t": 208048.40600001745,
      "d": 60.975500000000466,
      "v": 100
    },
    {
      "midi": 54,
      "hit": false,
      "t": 208170.3570000009,
      "d": 1.0162583333440125,
      "v": 60
    },
    {
      "midi": 80,
      "hit": false,
      "t": 208170.35700000092,
      "d": 121.95100000000093,
      "v": 100
    },
    {
      "midi": 71,
      "hit": false,
      "t": 208170.35700000118,
      "d": 121.95100000000093,
      "v": 100
    },
    {
      "midi": 66,
      "hit": false,
      "t": 208170.35700000118,
      "d": 121.95100000000093,
      "v": 100
    },
    {
      "midi": 63,
      "hit": false,
      "t": 208170.35700000118,
      "d": 121.95100000000093,
      "v": 100
    },
    {
      "midi": 44,
      "hit": false,
      "t": 208170.35700000197,
      "d": 1.0162583333440125,
      "v": 100
    },
    {
      "midi": 71,
      "hit": false,
      "t": 208170.35700001745,
      "d": 60.975500000000466,
      "v": 100
    },
    {
      "midi": 66,
      "hit": false,
      "t": 208170.35700001745,
      "d": 60.975500000000466,
      "v": 100
    },
    {
      "midi": 63,
      "hit": false,
      "t": 208170.35700001745,
      "d": 60.975500000000466,
      "v": 100
    },
    {
      "midi": 80,
      "hit": false,
      "t": 208292.3080000009,
      "d": 243.90200000000186,
      "v": 100
    },
    {
      "midi": 75,
      "hit": false,
      "t": 208292.3080000009,
      "d": 243.90200000000186,
      "v": 100
    },
    {
      "midi": 71,
      "hit": false,
      "t": 208292.3080000009,
      "d": 243.90200000000186,
      "v": 100
    },
    {
      "midi": 54,
      "hit": false,
      "t": 208292.3080000009,
      "d": 1.0162583333440125,
      "v": 80
    },
    {
      "midi": 80,
      "hit": false,
      "t": 208292.30800000092,
      "d": 243.90200000000186,
      "v": 100
    },
    {
      "midi": 76,
      "hit": false,
      "t": 208292.30800000092,
      "d": 243.90200000000186,
      "v": 100
    },
    {
      "midi": 75,
      "hit": false,
      "t": 208292.30800000092,
      "d": 121.95100000000093,
      "v": 100
    },
    {
      "midi": 32,
      "hit": false,
      "t": 208292.30800000095,
      "d": 243.90200000000186,
      "v": 100
    },
    {
      "midi": 33,
      "hit": false,
      "t": 208292.30800000197,
      "d": 1.0162583333440125,
      "v": 127
    },
    {
      "midi": 40,
      "hit": false,
      "t": 208292.30800000197,
      "d": 1.0162583333440125,
      "v": 100
    },
    {
      "midi": 46,
      "hit": false,
      "t": 208292.30800000197,
      "d": 1.0162583333440125,
      "v": 100
    },
    {
      "midi": 57,
      "hit": false,
      "t": 208292.30800000197,
      "d": 1.0162583333440125,
      "v": 100
    },
    {
      "midi": 71,
      "hit": false,
      "t": 208292.30800001745,
      "d": 243.90199999985634,
      "v": 100
    },
    {
      "midi": 66,
      "hit": false,
      "t": 208292.30800001745,
      "d": 243.90199999985634,
      "v": 100
    },
    {
      "midi": 63,
      "hit": false,
      "t": 208292.30800001745,
      "d": 243.90199999985634,
      "v": 100
    },
    {
      "midi": 54,
      "hit": false,
      "t": 208414.2590000009,
      "d": 1.0162583333440125,
      "v": 60
    },
    {
      "midi": 75,
      "hit": false,
      "t": 208414.25900000092,
      "d": 121.95100000000093,
      "v": 100
    },
    {
      "midi": 44,
      "hit": false,
      "t": 208414.25900000197,
      "d": 1.0162583333440125,
      "v": 100
    },
    {
      "midi": 83,
      "hit": false,
      "t": 208536.2100000009,
      "d": 243.90200000000186,
      "v": 100
    },
    {
      "midi": 80,
      "hit": false,
      "t": 208536.2100000009,
      "d": 243.90200000000186,
      "v": 100
    },
    {
      "midi": 75,
      "hit": false,
      "t": 208536.2100000009,
      "d": 243.90200000000186,
      "v": 100
    },
    {
      "midi": 54,
      "hit": false,
      "t": 208536.2100000009,
      "d": 1.0162583333440125,
      "v": 60
    },
    {
      "midi": 83,
      "hit": false,
      "t": 208536.21000000092,
      "d": 243.90200000000186,
      "v": 100
    },
    {
      "midi": 80,
      "hit": false,
      "t": 208536.21000000092,
      "d": 243.90200000000186,
      "v": 100
    },
    {
      "midi": 71,
      "hit": false,
      "t": 208536.21000000092,
      "d": 121.95100000000093,
      "v": 100
    },
    {
      "midi": 35,
      "hit": false,
      "t": 208536.21000000095,
      "d": 243.90200000000186,
      "v": 100
    },
    {
      "midi": 40,
      "hit": false,
      "t": 208536.21000000197,
      "d": 1.0162583333440125,
      "v": 40
    },
    {
      "midi": 46,
      "hit": false,
      "t": 208536.21000000197,
      "d": 1.0162583333440125,
      "v": 100
    },
    {
      "midi": 71,
      "hit": false,
      "t": 208536.2100000173,
      "d": 60.975500000000466,
      "v": 100
    },
    {
      "midi": 66,
      "hit": false,
      "t": 208536.2100000173,
      "d": 60.975500000000466,
      "v": 100
    },
    {
      "midi": 63,
      "hit": false,
      "t": 208536.2100000173,
      "d": 60.975500000000466,
      "v": 100
    },
    {
      "midi": 54,
      "hit": false,
      "t": 208658.1610000009,
      "d": 1.0162583333440125,
      "v": 60
    },
    {
      "midi": 71,
      "hit": false,
      "t": 208658.16100000092,
      "d": 121.95100000000093,
      "v": 100
    },
    {
      "midi": 40,
      "hit": false,
      "t": 208658.16100000197,
      "d": 1.0162583333440125,
      "v": 100
    },
    {
      "midi": 44,
      "hit": false,
      "t": 208658.16100000197,
      "d": 1.0162583333440125,
      "v": 100
    },
    {
      "midi": 71,
      "hit": false,
      "t": 208658.1610000173,
      "d": 60.975500000000466,
      "v": 100
    },
    {
      "midi": 66,
      "hit": false,
      "t": 208658.1610000173,
      "d": 60.975500000000466,
      "v": 100
    },
    {
      "midi": 63,
      "hit": false,
      "t": 208658.1610000173,
      "d": 60.975500000000466,
      "v": 100
    },
    {
      "midi": 85,
      "hit": false,
      "t": 208780.1120000009,
      "d": 243.90200000000186,
      "v": 100
    },
    {
      "midi": 80,
      "hit": false,
      "t": 208780.1120000009,
      "d": 243.90200000000186,
      "v": 100
    },
    {
      "midi": 76,
      "hit": false,
      "t": 208780.1120000009,
      "d": 243.90200000000186,
      "v": 100
    },
    {
      "midi": 54,
      "hit": false,
      "t": 208780.1120000009,
      "d": 1.0162583333440125,
      "v": 80
    },
    {
      "midi": 85,
      "hit": false,
      "t": 208780.11200000093,
      "d": 243.90200000000186,
      "v": 100
    },
    {
      "midi": 80,
      "hit": false,
      "t": 208780.11200000093,
      "d": 243.90200000000186,
      "v": 100
    },
    {
      "midi": 73,
      "hit": false,
      "t": 208780.11200000093,
      "d": 121.95100000000093,
      "v": 100
    },
    {
      "midi": 37,
      "hit": false,
      "t": 208780.11200000095,
      "d": 243.90200000000186,
      "v": 100
    },
    {
      "midi": 33,
      "hit": false,
      "t": 208780.11200000197,
      "d": 1.0162583333440125,
      "v": 127
    },
    {
      "midi": 42,
      "hit": false,
      "t": 208780.11200000197,
      "d": 1.0162583333440125,
      "v": 100
    },
    {
      "midi": 57,
      "hit": false,
      "t": 208780.11200000197,
      "d": 1.0162583333440125,
      "v": 100
    },
    {
      "midi": 49,
      "hit": false,
      "t": 208780.11200000398,
      "d": 975.6080000000075,
      "v": 100
    },
    {
      "midi": 56,
      "hit": false,
      "t": 208780.11200000398,
      "d": 975.6080000000075,
      "v": 100
    },
    {
      "midi": 73,
      "hit": false,
      "t": 208780.1120000173,
      "d": 487.8040000000037,
      "v": 100
    },
    {
      "midi": 68,
      "hit": false,
      "t": 208780.1120000173,
      "d": 487.8040000000037,
      "v": 100
    },
    {
      "midi": 64,
      "hit": false,
      "t": 208780.1120000173,
      "d": 487.8040000000037,
      "v": 100
    },
    {
      "midi": 54,
      "hit": false,
      "t": 208902.0630000009,
      "d": 1.0162583333440125,
      "v": 60
    },
    {
      "midi": 73,
      "hit": false,
      "t": 208902.06300000093,
      "d": 121.95100000000093,
      "v": 100
    },
    {
      "midi": 73,
      "hit": false,
      "t": 208902.0630000012,
      "d": 121.95100000000093,
      "v": 100
    },
    {
      "midi": 68,
      "hit": false,
      "t": 208902.0630000012,
      "d": 121.95100000000093,
      "v": 100
    },
    {
      "midi": 64,
      "hit": false,
      "t": 208902.0630000012,
      "d": 121.95100000000093,
      "v": 100
    },
    {
      "midi": 54,
      "hit": false,
      "t": 209024.0140000009,
      "d": 1.0162583333440125,
      "v": 60
    },
    {
      "midi": 80,
      "hit": false,
      "t": 209024.01400000093,
      "d": 121.95100000000093,
      "v": 100
    },
    {
      "midi": 37,
      "hit": false,
      "t": 209024.01400000096,
      "d": 243.90200000000186,
      "v": 100
    },
    {
      "midi": 73,
      "hit": false,
      "t": 209024.0140000012,
      "d": 121.95100000000093,
      "v": 100
    },
    {
      "midi": 68,
      "hit": false,
      "t": 209024.0140000012,
      "d": 121.95100000000093,
      "v": 100
    },
    {
      "midi": 64,
      "hit": false,
      "t": 209024.0140000012,
      "d": 121.95100000000093,
      "v": 100
    },
    {
      "midi": 46,
      "hit": false,
      "t": 209024.01400000197,
      "d": 1.0162583333440125,
      "v": 100
    },
    {
      "midi": 54,
      "hit": false,
      "t": 209145.9650000009,
      "d": 1.0162583333440125,
      "v": 60
    },
    {
      "midi": 80,
      "hit": false,
      "t": 209145.96500000093,
      "d": 121.95100000000093,
      "v": 100
    },
    {
      "midi": 44,
      "hit": false,
      "t": 209145.96500000198,
      "d": 1.0162583333440125,
      "v": 100
    },
    {
      "midi": 85,
      "hit": false,
      "t": 209267.9160000009,
      "d": 243.90200000000186,
      "v": 100
    },
    {
      "midi": 80,
      "hit": false,
      "t": 209267.9160000009,
      "d": 243.90200000000186,
      "v": 100
    },
    {
      "midi": 76,
      "hit": false,
      "t": 209267.9160000009,
      "d": 243.90200000000186,
      "v": 100
    },
    {
      "midi": 54,
      "hit": false,
      "t": 209267.9160000009,
      "d": 1.0162583333440125,
      "v": 80
    },
    {
      "midi": 85,
      "hit": false,
      "t": 209267.91600000093,
      "d": 243.90200000000186,
      "v": 100
    },
    {
      "midi": 80,
      "hit": false,
      "t": 209267.91600000093,
      "d": 243.90200000000186,
      "v": 100
    },
    {
      "midi": 76,
      "hit": false,
      "t": 209267.91600000093,
      "d": 121.95100000000093,
      "v": 100
    },
    {
      "midi": 37,
      "hit": false,
      "t": 209267.91600000096,
      "d": 243.90200000000186,
      "v": 100
    },
    {
      "midi": 73,
      "hit": false,
      "t": 209267.9160000012,
      "d": 121.95100000000093,
      "v": 100
    },
    {
      "midi": 68,
      "hit": false,
      "t": 209267.9160000012,
      "d": 121.95100000000093,
      "v": 100
    },
    {
      "midi": 64,
      "hit": false,
      "t": 209267.9160000012,
      "d": 121.95100000000093,
      "v": 100
    },
    {
      "midi": 33,
      "hit": false,
      "t": 209267.91600000198,
      "d": 1.0162583333440125,
      "v": 127
    },
    {
      "midi": 40,
      "hit": false,
      "t": 209267.91600000198,
      "d": 1.0162583333440125,
      "v": 100
    },
    {
      "midi": 46,
      "hit": false,
      "t": 209267.91600000198,
      "d": 1.0162583333440125,
      "v": 100
    },
    {
      "midi": 73,
      "hit": false,
      "t": 209267.9160000173,
      "d": 60.97549999988405,
      "v": 100
    },
    {
      "midi": 68,
      "hit": false,
      "t": 209267.9160000173,
      "d": 60.97549999988405,
      "v": 100
    },
    {
      "midi": 64,
      "hit": false,
      "t": 209267.9160000173,
      "d": 60.97549999988405,
      "v": 100
    },
    {
      "midi": 54,
      "hit": false,
      "t": 209389.8670000009,
      "d": 1.0162583333440125,
      "v": 60
    },
    {
      "midi": 76,
      "hit": false,
      "t": 209389.86700000093,
      "d": 121.95100000000093,
      "v": 100
    },
    {
      "midi": 44,
      "hit": false,
      "t": 209389.86700000198,
      "d": 1.0162583333440125,
      "v": 100
    },
    {
      "midi": 73,
      "hit": false,
      "t": 209389.8670000172,
      "d": 60.975500000000466,
      "v": 100
    },
    {
      "midi": 68,
      "hit": false,
      "t": 209389.8670000172,
      "d": 60.975500000000466,
      "v": 100
    },
    {
      "midi": 64,
      "hit": false,
      "t": 209389.8670000172,
      "d": 60.975500000000466,
      "v": 100
    },
    {
      "midi": 85,
      "hit": false,
      "t": 209511.8180000009,
      "d": 30.487750000000233,
      "v": 100
    },
    {
      "midi": 80,
      "hit": false,
      "t": 209511.8180000009,
      "d": 30.487750000000233,
      "v": 100
    },
    {
      "midi": 54,
      "hit": false,
      "t": 209511.8180000009,
      "d": 1.0162583333440125,
      "v": 60
    },
    {
      "midi": 88,
      "hit": false,
      "t": 209511.81800000093,
      "d": 121.95100000000093,
      "v": 100
    },
    {
      "midi": 83,
      "hit": false,
      "t": 209511.81800000093,
      "d": 121.95100000000093,
      "v": 100
    },
    {
      "midi": 83,
      "hit": false,
      "t": 209511.81800000093,
      "d": 121.95100000000093,
      "v": 100
    },
    {
      "midi": 37,
      "hit": false,
      "t": 209511.81800000096,
      "d": 71.13808333332418,
      "v": 100
    },
    {
      "midi": 73,
      "hit": false,
      "t": 209511.8180000012,
      "d": 121.95100000000093,
      "v": 100
    },
    {
      "midi": 68,
      "hit": false,
      "t": 209511.8180000012,
      "d": 121.95100000000093,
      "v": 100
    },
    {
      "midi": 64,
      "hit": false,
      "t": 209511.8180000012,
      "d": 121.95100000000093,
      "v": 100
    },
    {
      "midi": 46,
      "hit": false,
      "t": 209511.81800000198,
      "d": 1.0162583333440125,
      "v": 100
    },
    {
      "midi": 73,
      "hit": false,
      "t": 209511.8180000171,
      "d": 60.975500000000466,
      "v": 100
    },
    {
      "midi": 68,
      "hit": false,
      "t": 209511.8180000171,
      "d": 60.975500000000466,
      "v": 100
    },
    {
      "midi": 64,
      "hit": false,
      "t": 209511.8180000171,
      "d": 60.975500000000466,
      "v": 100
    },
    {
      "midi": 85,
      "hit": false,
      "t": 209633.7690000009,
      "d": 243.90200000000186,
      "v": 100
    },
    {
      "midi": 81,
      "hit": false,
      "t": 209633.7690000009,
      "d": 243.90200000000186,
      "v": 100
    },
    {
      "midi": 76,
      "hit": false,
      "t": 209633.7690000009,
      "d": 243.90200000000186,
      "v": 100
    },
    {
      "midi": 54,
      "hit": false,
      "t": 209633.7690000009,
      "d": 1.0162583333440125,
      "v": 60
    },
    {
      "midi": 85,
      "hit": false,
      "t": 209633.76900000093,
      "d": 365.8530000000028,
      "v": 100
    },
    {
      "midi": 81,
      "hit": false,
      "t": 209633.76900000093,
      "d": 365.8530000000028,
      "v": 100
    },
    {
      "midi": 83,
      "hit": false,
      "t": 209633.76900000093,
      "d": 121.95100000000093,
      "v": 100
    },
    {
      "midi": 33,
      "hit": false,
      "t": 209633.76900000096,
      "d": 243.90200000000186,
      "v": 100
    },
    {
      "midi": 44,
      "hit": false,
      "t": 209633.76900000198,
      "d": 1.0162583333440125,
      "v": 100
    },
    {
      "midi": 73,
      "hit": false,
      "t": 209633.7690000171,
      "d": 60.975500000000466,
      "v": 100
    },
    {
      "midi": 68,
      "hit": false,
      "t": 209633.7690000171,
      "d": 60.975500000000466,
      "v": 100
    },
    {
      "midi": 64,
      "hit": false,
      "t": 209633.7690000171,
      "d": 60.975500000000466,
      "v": 100
    },
    {
      "midi": 54,
      "hit": false,
      "t": 209755.7200000009,
      "d": 1.0162583333440125,
      "v": 80
    },
    {
      "midi": 85,
      "hit": false,
      "t": 209755.72000000093,
      "d": 121.95100000000093,
      "v": 100
    },
    {
      "midi": 69,
      "hit": false,
      "t": 209755.7200000012,
      "d": 121.95100000000093,
      "v": 100
    },
    {
      "midi": 64,
      "hit": false,
      "t": 209755.7200000012,
      "d": 121.95100000000093,
      "v": 100
    },
    {
      "midi": 61,
      "hit": false,
      "t": 209755.7200000012,
      "d": 121.95100000000093,
      "v": 100
    },
    {
      "midi": 33,
      "hit": false,
      "t": 209755.72000000198,
      "d": 1.0162583333440125,
      "v": 127
    },
    {
      "midi": 42,
      "hit": false,
      "t": 209755.72000000198,
      "d": 1.0162583333440125,
      "v": 100
    },
    {
      "midi": 45,
      "hit": false,
      "t": 209755.720000004,
      "d": 975.6080000000075,
      "v": 100
    },
    {
      "midi": 52,
      "hit": false,
      "t": 209755.720000004,
      "d": 975.6080000000075,
      "v": 100
    },
    {
      "midi": 69,
      "hit": false,
      "t": 209755.7200000171,
      "d": 60.97549999988405,
      "v": 100
    },
    {
      "midi": 64,
      "hit": false,
      "t": 209755.7200000171,
      "d": 60.97549999988405,
      "v": 100
    },
    {
      "midi": 61,
      "hit": false,
      "t": 209755.7200000171,
      "d": 60.97549999988405,
      "v": 100
    },
    {
      "midi": 85,
      "hit": false,
      "t": 209877.6710000009,
      "d": 121.95100000000093,
      "v": 100
    },
    {
      "midi": 81,
      "hit": false,
      "t": 209877.6710000009,
      "d": 121.95100000000093,
      "v": 100
    },
    {
      "midi": 76,
      "hit": false,
      "t": 209877.6710000009,
      "d": 121.95100000000093,
      "v": 100
    },
    {
      "midi": 54,
      "hit": false,
      "t": 209877.6710000009,
      "d": 1.0162583333440125,
      "v": 60
    },
    {
      "midi": 85,
      "hit": false,
      "t": 209877.67100000093,
      "d": 121.95100000000093,
      "v": 100
    },
    {
      "midi": 33,
      "hit": false,
      "t": 209877.67100000096,
      "d": 121.95100000000093,
      "v": 100
    },
    {
      "midi": 69,
      "hit": false,
      "t": 209877.6710000012,
      "d": 121.95100000000093,
      "v": 100
    },
    {
      "midi": 64,
      "hit": false,
      "t": 209877.6710000012,
      "d": 121.95100000000093,
      "v": 100
    },
    {
      "midi": 61,
      "hit": false,
      "t": 209877.6710000012,
      "d": 121.95100000000093,
      "v": 100
    },
    {
      "midi": 69,
      "hit": false,
      "t": 209877.671000017,
      "d": 60.975500000000466,
      "v": 100
    },
    {
      "midi": 64,
      "hit": false,
      "t": 209877.671000017,
      "d": 60.975500000000466,
      "v": 100
    },
    {
      "midi": 61,
      "hit": false,
      "t": 209877.671000017,
      "d": 60.975500000000466,
      "v": 100
    },
    {
      "midi": 85,
      "hit": false,
      "t": 209999.6220000009,
      "d": 243.90200000000186,
      "v": 100
    },
    {
      "midi": 81,
      "hit": false,
      "t": 209999.6220000009,
      "d": 243.90200000000186,
      "v": 100
    },
    {
      "midi": 76,
      "hit": false,
      "t": 209999.6220000009,
      "d": 243.90200000000186,
      "v": 100
    },
    {
      "midi": 54,
      "hit": false,
      "t": 209999.6220000009,
      "d": 1.0162583333440125,
      "v": 60
    },
    {
      "midi": 81,
      "hit": false,
      "t": 209999.62200000093,
      "d": 121.95100000000093,
      "v": 100
    },
    {
      "midi": 33,
      "hit": false,
      "t": 209999.62200000096,
      "d": 243.90200000000186,
      "v": 100
    },
    {
      "midi": 46,
      "hit": false,
      "t": 209999.62200000198,
      "d": 1.0162583333440125,
      "v": 100
    },
    {
      "midi": 69,
      "hit": false,
      "t": 209999.6220000169,
      "d": 60.975500000000466,
      "v": 100
    },
    {
      "midi": 64,
      "hit": false,
      "t": 209999.6220000169,
      "d": 60.975500000000466,
      "v": 100
    },
    {
      "midi": 61,
      "hit": false,
      "t": 209999.6220000169,
      "d": 60.975500000000466,
      "v": 100
    },
    {
      "midi": 54,
      "hit": false,
      "t": 210121.5730000009,
      "d": 1.0162583333440125,
      "v": 60
    },
    {
      "midi": 81,
      "hit": false,
      "t": 210121.57300000094,
      "d": 121.95100000000093,
      "v": 100
    },
    {
      "midi": 69,
      "hit": false,
      "t": 210121.5730000012,
      "d": 121.95100000000093,
      "v": 100
    },
    {
      "midi": 64,
      "hit": false,
      "t": 210121.5730000012,
      "d": 121.95100000000093,
      "v": 100
    },
    {
      "midi": 61,
      "hit": false,
      "t": 210121.5730000012,
      "d": 121.95100000000093,
      "v": 100
    },
    {
      "midi": 44,
      "hit": false,
      "t": 210121.57300000198,
      "d": 1.0162583333440125,
      "v": 100
    },
    {
      "midi": 69,
      "hit": false,
      "t": 210121.5730000169,
      "d": 60.975500000000466,
      "v": 100
    },
    {
      "midi": 64,
      "hit": false,
      "t": 210121.5730000169,
      "d": 60.975500000000466,
      "v": 100
    },
    {
      "midi": 61,
      "hit": false,
      "t": 210121.5730000169,
      "d": 60.975500000000466,
      "v": 100
    },
    {
      "midi": 85,
      "hit": false,
      "t": 210243.5240000009,
      "d": 243.90200000000186,
      "v": 100
    },
    {
      "midi": 81,
      "hit": false,
      "t": 210243.5240000009,
      "d": 243.90200000000186,
      "v": 100
    },
    {
      "midi": 76,
      "hit": false,
      "t": 210243.5240000009,
      "d": 243.90200000000186,
      "v": 100
    },
    {
      "midi": 54,
      "hit": false,
      "t": 210243.5240000009,
      "d": 1.0162583333440125,
      "v": 80
    },
    {
      "midi": 85,
      "hit": false,
      "t": 210243.52400000094,
      "d": 243.90200000000186,
      "v": 100
    },
    {
      "midi": 83,
      "hit": false,
      "t": 210243.52400000094,
      "d": 243.90200000000186,
      "v": 100
    },
    {
      "midi": 76,
      "hit": false,
      "t": 210243.52400000094,
      "d": 121.95100000000093,
      "v": 100
    },
    {
      "midi": 33,
      "hit": false,
      "t": 210243.52400000097,
      "d": 243.90200000000186,
      "v": 100
    },
    {
      "midi": 33,
      "hit": false,
      "t": 210243.52400000198,
      "d": 1.0162583333440125,
      "v": 127
    },
    {
      "midi": 40,
      "hit": false,
      "t": 210243.52400000198,
      "d": 1.0162583333440125,
      "v": 100
    },
    {
      "midi": 46,
      "hit": false,
      "t": 210243.52400000198,
      "d": 1.0162583333440125,
      "v": 100
    },
    {
      "midi": 69,
      "hit": false,
      "t": 210243.5240000169,
      "d": 243.90199999985634,
      "v": 100
    },
    {
      "midi": 64,
      "hit": false,
      "t": 210243.5240000169,
      "d": 243.90199999985634,
      "v": 100
    },
    {
      "midi": 61,
      "hit": false,
      "t": 210243.5240000169,
      "d": 243.90199999985634,
      "v": 100
    },
    {
      "midi": 54,
      "hit": false,
      "t": 210365.4750000009,
      "d": 1.0162583333440125,
      "v": 60
    },
    {
      "midi": 76,
      "hit": false,
      "t": 210365.47500000094,
      "d": 121.95100000000093,
      "v": 100
    },
    {
      "midi": 44,
      "hit": false,
      "t": 210365.47500000198,
      "d": 1.0162583333440125,
      "v": 100
    },
    {
      "midi": 85,
      "hit": false,
      "t": 210487.4260000009,
      "d": 243.90200000000186,
      "v": 100
    },
    {
      "midi": 81,
      "hit": false,
      "t": 210487.4260000009,
      "d": 243.90200000000186,
      "v": 100
    },
    {
      "midi": 76,
      "hit": false,
      "t": 210487.4260000009,
      "d": 243.90200000000186,
      "v": 100
    },
    {
      "midi": 54,
      "hit": false,
      "t": 210487.4260000009,
      "d": 1.0162583333440125,
      "v": 60
    },
    {
      "midi": 88,
      "hit": false,
      "t": 210487.42600000094,
      "d": 243.90200000000186,
      "v": 100
    },
    {
      "midi": 85,
      "hit": false,
      "t": 210487.42600000094,
      "d": 243.90200000000186,
      "v": 100
    },
    {
      "midi": 73,
      "hit": false,
      "t": 210487.42600000094,
      "d": 121.95100000000093,
      "v": 100
    },
    {
      "midi": 33,
      "hit": false,
      "t": 210487.42600000097,
      "d": 243.90200000000186,
      "v": 100
    },
    {
      "midi": 40,
      "hit": false,
      "t": 210487.426000002,
      "d": 1.0162583333440125,
      "v": 40
    },
    {
      "midi": 46,
      "hit": false,
      "t": 210487.426000002,
      "d": 1.0162583333440125,
      "v": 100
    },
    {
      "midi": 69,
      "hit": false,
      "t": 210487.42600001677,
      "d": 60.975500000000466,
      "v": 100
    },
    {
      "midi": 64,
      "hit": false,
      "t": 210487.42600001677,
      "d": 60.975500000000466,
      "v": 100
    },
    {
      "midi": 61,
      "hit": false,
      "t": 210487.42600001677,
      "d": 60.975500000000466,
      "v": 100
    },
    {
      "midi": 54,
      "hit": false,
      "t": 210609.3770000009,
      "d": 1.0162583333440125,
      "v": 60
    },
    {
      "midi": 73,
      "hit": false,
      "t": 210609.37700000094,
      "d": 121.95100000000093,
      "v": 100
    },
    {
      "midi": 40,
      "hit": false,
      "t": 210609.377000002,
      "d": 1.0162583333440125,
      "v": 100
    },
    {
      "midi": 44,
      "hit": false,
      "t": 210609.377000002,
      "d": 1.0162583333440125,
      "v": 100
    },
    {
      "midi": 69,
      "hit": false,
      "t": 210609.37700001677,
      "d": 60.975500000000466,
      "v": 100
    },
    {
      "midi": 64,
      "hit": false,
      "t": 210609.37700001677,
      "d": 60.975500000000466,
      "v": 100
    },
    {
      "midi": 61,
      "hit": false,
      "t": 210609.37700001677,
      "d": 60.975500000000466,
      "v": 100
    },
    {
      "midi": 87,
      "hit": false,
      "t": 210731.3280000009,
      "d": 243.90200000000186,
      "v": 100
    },
    {
      "midi": 83,
      "hit": false,
      "t": 210731.3280000009,
      "d": 243.90200000000186,
      "v": 100
    },
    {
      "midi": 78,
      "hit": false,
      "t": 210731.3280000009,
      "d": 243.90200000000186,
      "v": 100
    },
    {
      "midi": 54,
      "hit": false,
      "t": 210731.3280000009,
      "d": 1.0162583333440125,
      "v": 80
    },
    {
      "midi": 87,
      "hit": false,
      "t": 210731.32800000094,
      "d": 243.90200000000186,
      "v": 100
    },
    {
      "midi": 83,
      "hit": false,
      "t": 210731.32800000094,
      "d": 243.90200000000186,
      "v": 100
    },
    {
      "midi": 71,
      "hit": false,
      "t": 210731.32800000094,
      "d": 121.95100000000093,
      "v": 100
    },
    {
      "midi": 35,
      "hit": false,
      "t": 210731.32800000097,
      "d": 243.90200000000186,
      "v": 100
    },
    {
      "midi": 33,
      "hit": false,
      "t": 210731.328000002,
      "d": 1.0162583333440125,
      "v": 127
    },
    {
      "midi": 42,
      "hit": false,
      "t": 210731.328000002,
      "d": 1.0162583333440125,
      "v": 100
    },
    {
      "midi": 47,
      "hit": false,
      "t": 210731.328000004,
      "d": 975.6080000000075,
      "v": 100
    },
    {
      "midi": 54,
      "hit": false,
      "t": 210731.328000004,
      "d": 975.6080000000075,
      "v": 100
    },
    {
      "midi": 71,
      "hit": false,
      "t": 210731.32800001677,
      "d": 487.8040000000037,
      "v": 100
    },
    {
      "midi": 66,
      "hit": false,
      "t": 210731.32800001677,
      "d": 487.8040000000037,
      "v": 100
    },
    {
      "midi": 63,
      "hit": false,
      "t": 210731.32800001677,
      "d": 487.8040000000037,
      "v": 100
    },
    {
      "midi": 54,
      "hit": false,
      "t": 210853.2790000009,
      "d": 1.0162583333440125,
      "v": 60
    },
    {
      "midi": 71,
      "hit": false,
      "t": 210853.27900000094,
      "d": 121.95100000000093,
      "v": 100
    },
    {
      "midi": 71,
      "hit": false,
      "t": 210853.2790000012,
      "d": 121.95100000000093,
      "v": 100
    },
    {
      "midi": 66,
      "hit": false,
      "t": 210853.2790000012,
      "d": 121.95100000000093,
      "v": 100
    },
    {
      "midi": 63,
      "hit": false,
      "t": 210853.2790000012,
      "d": 121.95100000000093,
      "v": 100
    },
    {
      "midi": 54,
      "hit": false,
      "t": 210975.2300000009,
      "d": 1.0162583333440125,
      "v": 60
    },
    {
      "midi": 83,
      "hit": false,
      "t": 210975.23000000094,
      "d": 121.95100000000093,
      "v": 100
    },
    {
      "midi": 80,
      "hit": false,
      "t": 210975.23000000094,
      "d": 121.95100000000093,
      "v": 100
    },
    {
      "midi": 75,
      "hit": false,
      "t": 210975.23000000094,
      "d": 121.95100000000093,
      "v": 100
    },
    {
      "midi": 35,
      "hit": false,
      "t": 210975.23000000097,
      "d": 243.90200000000186,
      "v": 100
    },
    {
      "midi": 71,
      "hit": false,
      "t": 210975.2300000012,
      "d": 121.95100000000093,
      "v": 100
    },
    {
      "midi": 66,
      "hit": false,
      "t": 210975.2300000012,
      "d": 121.95100000000093,
      "v": 100
    },
    {
      "midi": 63,
      "hit": false,
      "t": 210975.2300000012,
      "d": 121.95100000000093,
      "v": 100
    },
    {
      "midi": 46,
      "hit": false,
      "t": 210975.230000002,
      "d": 1.0162583333440125,
      "v": 100
    },
    {
      "midi": 54,
      "hit": false,
      "t": 211097.1810000009,
      "d": 1.0162583333440125,
      "v": 60
    },
    {
      "midi": 75,
      "hit": false,
      "t": 211097.18100000094,
      "d": 121.95100000000093,
      "v": 100
    },
    {
      "midi": 44,
      "hit": false,
      "t": 211097.181000002,
      "d": 1.0162583333440125,
      "v": 100
    },
    {
      "midi": 83,
      "hit": false,
      "t": 211219.13200000091,
      "d": 243.90200000000186,
      "v": 100
    },
    {
      "midi": 78,
      "hit": false,
      "t": 211219.13200000091,
      "d": 243.90200000000186,
      "v": 100
    },
    {
      "midi": 54,
      "hit": false,
      "t": 211219.13200000091,
      "d": 1.0162583333440125,
      "v": 80
    },
    {
      "midi": 83,
      "hit": false,
      "t": 211219.13200000094,
      "d": 243.90200000000186,
      "v": 100
    },
    {
      "midi": 80,
      "hit": false,
      "t": 211219.13200000094,
      "d": 243.90200000000186,
      "v": 100
    },
    {
      "midi": 71,
      "hit": false,
      "t": 211219.13200000094,
      "d": 121.95100000000093,
      "v": 100
    },
    {
      "midi": 35,
      "hit": false,
      "t": 211219.13200000097,
      "d": 243.90200000000186,
      "v": 100
    },
    {
      "midi": 71,
      "hit": false,
      "t": 211219.1320000012,
      "d": 121.95100000000093,
      "v": 100
    },
    {
      "midi": 66,
      "hit": false,
      "t": 211219.1320000012,
      "d": 121.95100000000093,
      "v": 100
    },
    {
      "midi": 63,
      "hit": false,
      "t": 211219.1320000012,
      "d": 121.95100000000093,
      "v": 100
    },
    {
      "midi": 33,
      "hit": false,
      "t": 211219.132000002,
      "d": 1.0162583333440125,
      "v": 127
    },
    {
      "midi": 40,
      "hit": false,
      "t": 211219.132000002,
      "d": 1.0162583333440125,
      "v": 100
    },
    {
      "midi": 46,
      "hit": false,
      "t": 211219.132000002,
      "d": 1.0162583333440125,
      "v": 100
    },
    {
      "midi": 71,
      "hit": false,
      "t": 211219.13200001678,
      "d": 60.97549999988405,
      "v": 100
    },
    {
      "midi": 66,
      "hit": false,
      "t": 211219.13200001678,
      "d": 60.97549999988405,
      "v": 100
    },
    {
      "midi": 63,
      "hit": false,
      "t": 211219.13200001678,
      "d": 60.97549999988405,
      "v": 100
    },
    {
      "midi": 54,
      "hit": false,
      "t": 211341.08300000092,
      "d": 1.0162583333440125,
      "v": 60
    },
    {
      "midi": 71,
      "hit": false,
      "t": 211341.08300000094,
      "d": 121.95100000000093,
      "v": 100
    },
    {
      "midi": 44,
      "hit": false,
      "t": 211341.083000002,
      "d": 1.0162583333440125,
      "v": 100
    },
    {
      "midi": 71,
      "hit": false,
      "t": 211341.08300001666,
      "d": 60.975500000000466,
      "v": 100
    },
    {
      "midi": 66,
      "hit": false,
      "t": 211341.08300001666,
      "d": 60.975500000000466,
      "v": 100
    },
    {
      "midi": 63,
      "hit": false,
      "t": 211341.08300001666,
      "d": 60.975500000000466,
      "v": 100
    },
    {
      "midi": 78,
      "hit": false,
      "t": 211463.03400000092,
      "d": 40.65033333332394,
      "v": 100
    },
    {
      "midi": 83,
      "hit": false,
      "t": 211463.03400000092,
      "d": 40.65033333332394,
      "v": 100
    },
    {
      "midi": 54,
      "hit": false,
      "t": 211463.03400000092,
      "d": 1.0162583333440125,
      "v": 60
    },
    {
      "midi": 80,
      "hit": false,
      "t": 211463.03400000095,
      "d": 121.95100000000093,
      "v": 100
    },
    {
      "midi": 76,
      "hit": false,
      "t": 211463.03400000095,
      "d": 121.95100000000093,
      "v": 100
    },
    {
      "midi": 80,
      "hit": false,
      "t": 211463.03400000095,
      "d": 121.95100000000093,
      "v": 100
    },
    {
      "midi": 35,
      "hit": false,
      "t": 211463.03400000097,
      "d": 71.13808333332418,
      "v": 100
    },
    {
      "midi": 71,
      "hit": false,
      "t": 211463.0340000012,
      "d": 121.95100000000093,
      "v": 100
    },
    {
      "midi": 66,
      "hit": false,
      "t": 211463.0340000012,
      "d": 121.95100000000093,
      "v": 100
    },
    {
      "midi": 63,
      "hit": false,
      "t": 211463.0340000012,
      "d": 121.95100000000093,
      "v": 100
    },
    {
      "midi": 46,
      "hit": false,
      "t": 211463.034000002,
      "d": 1.0162583333440125,
      "v": 100
    },
    {
      "midi": 71,
      "hit": false,
      "t": 211463.03400001657,
      "d": 60.975500000000466,
      "v": 100
    },
    {
      "midi": 66,
      "hit": false,
      "t": 211463.03400001657,
      "d": 60.975500000000466,
      "v": 100
    },
    {
      "midi": 63,
      "hit": false,
      "t": 211463.03400001657,
      "d": 60.975500000000466,
      "v": 100
    },
    {
      "midi": 83,
      "hit": false,
      "t": 211584.98500000092,
      "d": 243.90200000000186,
      "v": 100
    },
    {
      "midi": 78,
      "hit": false,
      "t": 211584.98500000092,
      "d": 243.90200000000186,
      "v": 100
    },
    {
      "midi": 75,
      "hit": false,
      "t": 211584.98500000092,
      "d": 325.20266666667885,
      "v": 100
    },
    {
      "midi": 54,
      "hit": false,
      "t": 211584.98500000092,
      "d": 1.0162583333440125,
      "v": 60
    },
    {
      "midi": 83,
      "hit": false,
      "t": 211584.98500000095,
      "d": 487.8040000000037,
      "v": 100
    },
    {
      "midi": 80,
      "hit": false,
      "t": 211584.98500000095,
      "d": 487.8040000000037,
      "v": 100
    },
    {
      "midi": 80,
      "hit": false,
      "t": 211584.98500000095,
      "d": 121.95100000000093,
      "v": 100
    },
    {
      "midi": 32,
      "hit": false,
      "t": 211584.98500000098,
      "d": 243.90200000000186,
      "v": 100
    },
    {
      "midi": 44,
      "hit": false,
      "t": 211584.985000002,
      "d": 1.0162583333440125,
      "v": 100
    },
    {
      "midi": 40,
      "hit": false,
      "t": 211584.985000002,
      "d": 1.0162583333440125,
      "v": 100
    },
    {
      "midi": 71,
      "hit": false,
      "t": 211584.98500001658,
      "d": 60.975500000000466,
      "v": 100
    },
    {
      "midi": 66,
      "hit": false,
      "t": 211584.98500001658,
      "d": 60.975500000000466,
      "v": 100
    },
    {
      "midi": 63,
      "hit": false,
      "t": 211584.98500001658,
      "d": 60.975500000000466,
      "v": 100
    },
    {
      "midi": 54,
      "hit": false,
      "t": 211706.93600000092,
      "d": 1.0162583333440125,
      "v": 80
    },
    {
      "midi": 80,
      "hit": false,
      "t": 211706.93600000095,
      "d": 121.95100000000093,
      "v": 100
    },
    {
      "midi": 68,
      "hit": false,
      "t": 211706.9360000012,
      "d": 121.95100000000093,
      "v": 100
    },
    {
      "midi": 64,
      "hit": false,
      "t": 211706.9360000012,
      "d": 121.95100000000093,
      "v": 100
    },
    {
      "midi": 59,
      "hit": false,
      "t": 211706.9360000012,
      "d": 121.95100000000093,
      "v": 100
    },
    {
      "midi": 33,
      "hit": false,
      "t": 211706.936000002,
      "d": 1.0162583333440125,
      "v": 127
    },
    {
      "midi": 42,
      "hit": false,
      "t": 211706.936000002,
      "d": 1.0162583333440125,
      "v": 100
    },
    {
      "midi": 51,
      "hit": false,
      "t": 211706.936000004,
      "d": 975.6080000000075,
      "v": 100
    },
    {
      "midi": 44,
      "hit": false,
      "t": 211706.936000004,
      "d": 975.6080000000075,
      "v": 100
    },
    {
      "midi": 68,
      "hit": false,
      "t": 211706.93600001658,
      "d": 60.97549999988405,
      "v": 100
    },
    {
      "midi": 63,
      "hit": false,
      "t": 211706.93600001658,
      "d": 60.97549999988405,
      "v": 100
    },
    {
      "midi": 59,
      "hit": false,
      "t": 211706.93600001658,
      "d": 60.97549999988405,
      "v": 100
    },
    {
      "midi": 54,
      "hit": false,
      "t": 211828.88700000092,
      "d": 1.0162583333440125,
      "v": 60
    },
    {
      "midi": 80,
      "hit": false,
      "t": 211828.88700000095,
      "d": 121.95100000000093,
      "v": 100
    },
    {
      "midi": 32,
      "hit": false,
      "t": 211828.88700000098,
      "d": 121.95100000000093,
      "v": 100
    },
    {
      "midi": 68,
      "hit": false,
      "t": 211828.8870000012,
      "d": 121.95100000000093,
      "v": 100
    },
    {
      "midi": 64,
      "hit": false,
      "t": 211828.8870000012,
      "d": 121.95100000000093,
      "v": 100
    },
    {
      "midi": 59,
      "hit": false,
      "t": 211828.8870000012,
      "d": 121.95100000000093,
      "v": 100
    },
    {
      "midi": 40,
      "hit": false,
      "t": 211828.887000002,
      "d": 1.0162583333440125,
      "v": 100
    },
    {
      "midi": 68,
      "hit": false,
      "t": 211828.88700001646,
      "d": 60.975500000000466,
      "v": 100
    },
    {
      "midi": 63,
      "hit": false,
      "t": 211828.88700001646,
      "d": 60.975500000000466,
      "v": 100
    },
    {
      "midi": 59,
      "hit": false,
      "t": 211828.88700001646,
      "d": 60.975500000000466,
      "v": 100
    },
    {
      "midi": 75,
      "hit": false,
      "t": 211950.83800000092,
      "d": 243.90200000000186,
      "v": 100
    },
    {
      "midi": 83,
      "hit": false,
      "t": 211950.83800000092,
      "d": 243.90200000000186,
      "v": 100
    },
    {
      "midi": 78,
      "hit": false,
      "t": 211950.83800000092,
      "d": 243.90200000000186,
      "v": 100
    },
    {
      "midi": 54,
      "hit": false,
      "t": 211950.83800000092,
      "d": 1.0162583333440125,
      "v": 60
    },
    {
      "midi": 80,
      "hit": false,
      "t": 211950.83800000095,
      "d": 121.95100000000093,
      "v": 100
    },
    {
      "midi": 32,
      "hit": false,
      "t": 211950.83800000098,
      "d": 243.90200000000186,
      "v": 100
    },
    {
      "midi": 46,
      "hit": false,
      "t": 211950.838000002,
      "d": 1.0162583333440125,
      "v": 100
    },
    {
      "midi": 68,
      "hit": false,
      "t": 211950.83800001637,
      "d": 60.975500000000466,
      "v": 100
    },
    {
      "midi": 63,
      "hit": false,
      "t": 211950.83800001637,
      "d": 60.975500000000466,
      "v": 100
    },
    {
      "midi": 59,
      "hit": false,
      "t": 211950.83800001637,
      "d": 60.975500000000466,
      "v": 100
    },
    {
      "midi": 54,
      "hit": false,
      "t": 212072.78900000092,
      "d": 1.0162583333440125,
      "v": 60
    },
    {
      "midi": 80,
      "hit": false,
      "t": 212072.78900000095,
      "d": 121.95100000000093,
      "v": 100
    },
    {
      "midi": 68,
      "hit": false,
      "t": 212072.7890000012,
      "d": 121.95100000000093,
      "v": 100
    },
    {
      "midi": 64,
      "hit": false,
      "t": 212072.7890000012,
      "d": 121.95100000000093,
      "v": 100
    },
    {
      "midi": 59,
      "hit": false,
      "t": 212072.7890000012,
      "d": 121.95100000000093,
      "v": 100
    },
    {
      "midi": 44,
      "hit": false,
      "t": 212072.789000002,
      "d": 1.0162583333440125,
      "v": 100
    },
    {
      "midi": 68,
      "hit": false,
      "t": 212072.78900001638,
      "d": 60.975500000000466,
      "v": 100
    },
    {
      "midi": 63,
      "hit": false,
      "t": 212072.78900001638,
      "d": 60.975500000000466,
      "v": 100
    },
    {
      "midi": 59,
      "hit": false,
      "t": 212072.78900001638,
      "d": 60.975500000000466,
      "v": 100
    },
    {
      "midi": 75,
      "hit": false,
      "t": 212194.74000000092,
      "d": 243.90200000000186,
      "v": 100
    },
    {
      "midi": 80,
      "hit": false,
      "t": 212194.74000000092,
      "d": 243.90200000000186,
      "v": 100
    },
    {
      "midi": 78,
      "hit": false,
      "t": 212194.74000000092,
      "d": 243.90200000000186,
      "v": 100
    },
    {
      "midi": 54,
      "hit": false,
      "t": 212194.74000000092,
      "d": 1.0162583333440125,
      "v": 80
    },
    {
      "midi": 81,
      "hit": false,
      "t": 212194.74000000095,
      "d": 243.90200000000186,
      "v": 100
    },
    {
      "midi": 78,
      "hit": false,
      "t": 212194.74000000095,
      "d": 243.90200000000186,
      "v": 100
    },
    {
      "midi": 75,
      "hit": false,
      "t": 212194.74000000095,
      "d": 121.95100000000093,
      "v": 100
    },
    {
      "midi": 32,
      "hit": false,
      "t": 212194.74000000098,
      "d": 243.90200000000186,
      "v": 100
    },
    {
      "midi": 33,
      "hit": false,
      "t": 212194.740000002,
      "d": 1.0162583333440125,
      "v": 127
    },
    {
      "midi": 40,
      "hit": false,
      "t": 212194.740000002,
      "d": 1.0162583333440125,
      "v": 100
    },
    {
      "midi": 46,
      "hit": false,
      "t": 212194.740000002,
      "d": 1.0162583333440125,
      "v": 100
    },
    {
      "midi": 68,
      "hit": false,
      "t": 212194.74000001638,
      "d": 243.90199999985634,
      "v": 100
    },
    {
      "midi": 63,
      "hit": false,
      "t": 212194.74000001638,
      "d": 243.90199999985634,
      "v": 100
    },
    {
      "midi": 59,
      "hit": false,
      "t": 212194.74000001638,
      "d": 243.90199999985634,
      "v": 100
    },
    {
      "midi": 54,
      "hit": false,
      "t": 212316.69100000092,
      "d": 1.0162583333440125,
      "v": 60
    },
    {
      "midi": 75,
      "hit": false,
      "t": 212316.69100000095,
      "d": 121.95100000000093,
      "v": 100
    },
    {
      "midi": 44,
      "hit": false,
      "t": 212316.691000002,
      "d": 1.0162583333440125,
      "v": 100
    },
    {
      "midi": 75,
      "hit": false,
      "t": 212438.64200000092,
      "d": 243.90200000000186,
      "v": 100
    },
    {
      "midi": 83,
      "hit": false,
      "t": 212438.64200000092,
      "d": 243.90200000000186,
      "v": 100
    },
    {
      "midi": 78,
      "hit": false,
      "t": 212438.64200000092,
      "d": 243.90200000000186,
      "v": 100
    },
    {
      "midi": 54,
      "hit": false,
      "t": 212438.64200000092,
      "d": 1.0162583333440125,
      "v": 60
    },
    {
      "midi": 83,
      "hit": false,
      "t": 212438.64200000095,
      "d": 243.90200000000186,
      "v": 100
    },
    {
      "midi": 80,
      "hit": false,
      "t": 212438.64200000095,
      "d": 243.90200000000186,
      "v": 100
    },
    {
      "midi": 80,
      "hit": false,
      "t": 212438.64200000095,
      "d": 121.95100000000093,
      "v": 100
    },
    {
      "midi": 32,
      "hit": false,
      "t": 212438.64200000098,
      "d": 243.90200000000186,
      "v": 100
    },
    {
      "midi": 40,
      "hit": false,
      "t": 212438.642000002,
      "d": 1.0162583333440125,
      "v": 40
    },
    {
      "midi": 46,
      "hit": false,
      "t": 212438.642000002,
      "d": 1.0162583333440125,
      "v": 100
    },
    {
      "midi": 68,
      "hit": false,
      "t": 212438.64200001623,
      "d": 60.975500000000466,
      "v": 100
    },
    {
      "midi": 63,
      "hit": false,
      "t": 212438.64200001623,
      "d": 60.975500000000466,
      "v": 100
    },
    {
      "midi": 59,
      "hit": false,
      "t": 212438.64200001623,
      "d": 60.975500000000466,
      "v": 100
    },
    {
      "midi": 54,
      "hit": false,
      "t": 212560.59300000092,
      "d": 1.0162583333440125,
      "v": 60
    },
    {
      "midi": 80,
      "hit": false,
      "t": 212560.59300000095,
      "d": 121.95100000000093,
      "v": 100
    },
    {
      "midi": 40,
      "hit": false,
      "t": 212560.593000002,
      "d": 1.0162583333440125,
      "v": 100
    },
    {
      "midi": 44,
      "hit": false,
      "t": 212560.593000002,
      "d": 1.0162583333440125,
      "v": 100
    },
    {
      "midi": 68,
      "hit": false,
      "t": 212560.59300001623,
      "d": 60.975500000000466,
      "v": 100
    },
    {
      "midi": 63,
      "hit": false,
      "t": 212560.59300001623,
      "d": 60.975500000000466,
      "v": 100
    },
    {
      "midi": 59,
      "hit": false,
      "t": 212560.59300001623,
      "d": 60.975500000000466,
      "v": 100
    },
    {
      "midi": 81,
      "hit": false,
      "t": 212682.54400000093,
      "d": 243.90200000000186,
      "v": 100
    },
    {
      "midi": 76,
      "hit": false,
      "t": 212682.54400000093,
      "d": 243.90200000000186,
      "v": 100
    },
    {
      "midi": 73,
      "hit": false,
      "t": 212682.54400000093,
      "d": 243.90200000000186,
      "v": 100
    },
    {
      "midi": 54,
      "hit": false,
      "t": 212682.54400000093,
      "d": 1.0162583333440125,
      "v": 80
    },
    {
      "midi": 81,
      "hit": false,
      "t": 212682.54400000095,
      "d": 243.90200000000186,
      "v": 100
    },
    {
      "midi": 78,
      "hit": false,
      "t": 212682.54400000095,
      "d": 243.90200000000186,
      "v": 100
    },
    {
      "midi": 66,
      "hit": false,
      "t": 212682.54400000095,
      "d": 121.95100000000093,
      "v": 100
    },
    {
      "midi": 30,
      "hit": false,
      "t": 212682.54400000098,
      "d": 243.90200000000186,
      "v": 100
    },
    {
      "midi": 33,
      "hit": false,
      "t": 212682.544000002,
      "d": 1.0162583333440125,
      "v": 127
    },
    {
      "midi": 42,
      "hit": false,
      "t": 212682.544000002,
      "d": 1.0162583333440125,
      "v": 100
    },
    {
      "midi": 42,
      "hit": false,
      "t": 212682.544000004,
      "d": 975.6080000000075,
      "v": 100
    },
    {
      "midi": 49,
      "hit": false,
      "t": 212682.544000004,
      "d": 975.6080000000075,
      "v": 100
    },
    {
      "midi": 69,
      "hit": false,
      "t": 212682.54400001623,
      "d": 487.8040000000037,
      "v": 100
    },
    {
      "midi": 64,
      "hit": false,
      "t": 212682.54400001623,
      "d": 487.8040000000037,
      "v": 100
    },
    {
      "midi": 61,
      "hit": false,
      "t": 212682.54400001623,
      "d": 487.8040000000037,
      "v": 100
    },
    {
      "midi": 54,
      "hit": false,
      "t": 212804.49500000093,
      "d": 1.0162583333440125,
      "v": 60
    },
    {
      "midi": 59,
      "hit": false,
      "t": 212804.49500000096,
      "d": 121.95100000000093,
      "v": 100
    },
    {
      "midi": 61,
      "hit": false,
      "t": 212804.49500000122,
      "d": 121.95100000000093,
      "v": 100
    },
    {
      "midi": 64,
      "hit": false,
      "t": 212804.49500000122,
      "d": 121.95100000000093,
      "v": 100
    },
    {
      "midi": 69,
      "hit": false,
      "t": 212804.49500000122,
      "d": 121.95100000000093,
      "v": 100
    },
    {
      "midi": 54,
      "hit": false,
      "t": 212926.44600000093,
      "d": 1.0162583333440125,
      "v": 60
    },
    {
      "midi": 66,
      "hit": false,
      "t": 212926.44600000096,
      "d": 121.95100000000093,
      "v": 100
    },
    {
      "midi": 30,
      "hit": false,
      "t": 212926.446000001,
      "d": 243.90200000000186,
      "v": 100
    },
    {
      "midi": 69,
      "hit": false,
      "t": 212926.44600000122,
      "d": 121.95100000000093,
      "v": 100
    },
    {
      "midi": 64,
      "hit": false,
      "t": 212926.44600000122,
      "d": 121.95100000000093,
      "v": 100
    },
    {
      "midi": 61,
      "hit": false,
      "t": 212926.44600000122,
      "d": 121.95100000000093,
      "v": 100
    },
    {
      "midi": 46,
      "hit": false,
      "t": 212926.446000002,
      "d": 1.0162583333440125,
      "v": 100
    },
    {
      "midi": 54,
      "hit": false,
      "t": 213048.39700000093,
      "d": 1.0162583333440125,
      "v": 60
    },
    {
      "midi": 71,
      "hit": false,
      "t": 213048.39700000096,
      "d": 121.95100000000093,
      "v": 100
    },
    {
      "midi": 44,
      "hit": false,
      "t": 213048.397000002,
      "d": 1.0162583333440125,
      "v": 100
    },
    {
      "midi": 81,
      "hit": false,
      "t": 213170.34800000093,
      "d": 243.90200000000186,
      "v": 100
    },
    {
      "midi": 76,
      "hit": false,
      "t": 213170.34800000093,
      "d": 243.90200000000186,
      "v": 100
    },
    {
      "midi": 73,
      "hit": false,
      "t": 213170.34800000093,
      "d": 243.90200000000186,
      "v": 100
    },
    {
      "midi": 54,
      "hit": false,
      "t": 213170.34800000093,
      "d": 1.0162583333440125,
      "v": 80
    },
    {
      "midi": 81,
      "hit": false,
      "t": 213170.34800000096,
      "d": 243.90200000000186,
      "v": 100
    },
    {
      "midi": 78,
      "hit": false,
      "t": 213170.34800000096,
      "d": 243.90200000000186,
      "v": 100
    },
    {
      "midi": 66,
      "hit": false,
      "t": 213170.34800000096,
      "d": 121.95100000000093,
      "v": 100
    },
    {
      "midi": 30,
      "hit": false,
      "t": 213170.348000001,
      "d": 243.90200000000186,
      "v": 100
    },
    {
      "midi": 69,
      "hit": false,
      "t": 213170.34800000122,
      "d": 121.95100000000093,
      "v": 100
    },
    {
      "midi": 64,
      "hit": false,
      "t": 213170.34800000122,
      "d": 121.95100000000093,
      "v": 100
    },
    {
      "midi": 61,
      "hit": false,
      "t": 213170.34800000122,
      "d": 121.95100000000093,
      "v": 100
    },
    {
      "midi": 33,
      "hit": false,
      "t": 213170.348000002,
      "d": 1.0162583333440125,
      "v": 127
    },
    {
      "midi": 40,
      "hit": false,
      "t": 213170.348000002,
      "d": 1.0162583333440125,
      "v": 100
    },
    {
      "midi": 46,
      "hit": false,
      "t": 213170.348000002,
      "d": 1.0162583333440125,
      "v": 100
    },
    {
      "midi": 69,
      "hit": false,
      "t": 213170.34800001624,
      "d": 60.97549999988405,
      "v": 100
    },
    {
      "midi": 64,
      "hit": false,
      "t": 213170.34800001624,
      "d": 60.97549999988405,
      "v": 100
    },
    {
      "midi": 61,
      "hit": false,
      "t": 213170.34800001624,
      "d": 60.97549999988405,
      "v": 100
    },
    {
      "midi": 54,
      "hit": false,
      "t": 213292.29900000093,
      "d": 1.0162583333440125,
      "v": 60
    },
    {
      "midi": 71,
      "hit": false,
      "t": 213292.29900000096,
      "d": 121.95100000000093,
      "v": 100
    },
    {
      "midi": 44,
      "hit": false,
      "t": 213292.299000002,
      "d": 1.0162583333440125,
      "v": 100
    },
    {
      "midi": 69,
      "hit": false,
      "t": 213292.29900001612,
      "d": 60.975500000000466,
      "v": 100
    },
    {
      "midi": 64,
      "hit": false,
      "t": 213292.29900001612,
      "d": 60.975500000000466,
      "v": 100
    },
    {
      "midi": 61,
      "hit": false,
      "t": 213292.29900001612,
      "d": 60.975500000000466,
      "v": 100
    },
    {
      "midi": 54,
      "hit": false,
      "t": 213414.25000000093,
      "d": 1.0162583333440125,
      "v": 60
    },
    {
      "midi": 83,
      "hit": false,
      "t": 213414.25000000096,
      "d": 121.95100000000093,
      "v": 100
    },
    {
      "midi": 80,
      "hit": false,
      "t": 213414.25000000096,
      "d": 121.95100000000093,
      "v": 100
    },
    {
      "midi": 78,
      "hit": false,
      "t": 213414.25000000096,
      "d": 121.95100000000093,
      "v": 100
    },
    {
      "midi": 30,
      "hit": false,
      "t": 213414.250000001,
      "d": 71.13808333332418,
      "v": 100
    },
    {
      "midi": 69,
      "hit": false,
      "t": 213414.25000000122,
      "d": 121.95100000000093,
      "v": 100
    },
    {
      "midi": 64,
      "hit": false,
      "t": 213414.25000000122,
      "d": 121.95100000000093,
      "v": 100
    },
    {
      "midi": 61,
      "hit": false,
      "t": 213414.25000000122,
      "d": 121.95100000000093,
      "v": 100
    },
    {
      "midi": 46,
      "hit": false,
      "t": 213414.250000002,
      "d": 1.0162583333440125,
      "v": 100
    },
    {
      "midi": 69,
      "hit": false,
      "t": 213414.25000001604,
      "d": 60.975500000000466,
      "v": 100
    },
    {
      "midi": 64,
      "hit": false,
      "t": 213414.25000001604,
      "d": 60.975500000000466,
      "v": 100
    },
    {
      "midi": 61,
      "hit": false,
      "t": 213414.25000001604,
      "d": 60.975500000000466,
      "v": 100
    },
    {
      "midi": 83,
      "hit": false,
      "t": 213536.20100000093,
      "d": 365.8530000000028,
      "v": 100
    },
    {
      "midi": 78,
      "hit": false,
      "t": 213536.20100000093,
      "d": 365.8530000000028,
      "v": 100
    },
    {
      "midi": 75,
      "hit": false,
      "t": 213536.20100000093,
      "d": 365.8530000000028,
      "v": 100
    },
    {
      "midi": 54,
      "hit": false,
      "t": 213536.20100000093,
      "d": 1.0162583333440125,
      "v": 60
    },
    {
      "midi": 78,
      "hit": false,
      "t": 213536.20100000096,
      "d": 487.8040000000037,
      "v": 100
    },
    {
      "midi": 75,
      "hit": false,
      "t": 213536.20100000096,
      "d": 487.8040000000037,
      "v": 100
    },
    {
      "midi": 83,
      "hit": false,
      "t": 213536.20100000096,
      "d": 121.95100000000093,
      "v": 100
    },
    {
      "midi": 35,
      "hit": false,
      "t": 213536.201000001,
      "d": 243.90200000000186,
      "v": 100
    },
    {
      "midi": 44,
      "hit": false,
      "t": 213536.201000002,
      "d": 1.0162583333440125,
      "v": 100
    },
    {
      "midi": 69,
      "hit": false,
      "t": 213536.20100001604,
      "d": 60.975500000000466,
      "v": 100
    },
    {
      "midi": 64,
      "hit": false,
      "t": 213536.20100001604,
      "d": 60.975500000000466,
      "v": 100
    },
    {
      "midi": 61,
      "hit": false,
      "t": 213536.20100001604,
      "d": 60.975500000000466,
      "v": 100
    },
    {
      "midi": 54,
      "hit": false,
      "t": 213658.15200000093,
      "d": 1.0162583333440125,
      "v": 80
    },
    {
      "midi": 83,
      "hit": false,
      "t": 213658.15200000096,
      "d": 121.95100000000093,
      "v": 100
    },
    {
      "midi": 71,
      "hit": false,
      "t": 213658.15200000122,
      "d": 121.95100000000093,
      "v": 100
    },
    {
      "midi": 66,
      "hit": false,
      "t": 213658.15200000122,
      "d": 121.95100000000093,
      "v": 100
    },
    {
      "midi": 63,
      "hit": false,
      "t": 213658.15200000122,
      "d": 121.95100000000093,
      "v": 100
    },
    {
      "midi": 33,
      "hit": false,
      "t": 213658.152000002,
      "d": 1.0162583333440125,
      "v": 127
    },
    {
      "midi": 42,
      "hit": false,
      "t": 213658.152000002,
      "d": 1.0162583333440125,
      "v": 100
    },
    {
      "midi": 47,
      "hit": false,
      "t": 213658.15200000402,
      "d": 975.6080000000075,
      "v": 100
    },
    {
      "midi": 54,
      "hit": false,
      "t": 213658.15200000402,
      "d": 975.6080000000075,
      "v": 100
    },
    {
      "midi": 71,
      "hit": false,
      "t": 213658.15200001604,
      "d": 60.97549999988405,
      "v": 100
    },
    {
      "midi": 66,
      "hit": false,
      "t": 213658.15200001604,
      "d": 60.97549999988405,
      "v": 100
    },
    {
      "midi": 63,
      "hit": false,
      "t": 213658.15200001604,
      "d": 60.97549999988405,
      "v": 100
    },
    {
      "midi": 54,
      "hit": false,
      "t": 213780.10300000093,
      "d": 1.0162583333440125,
      "v": 60
    },
    {
      "midi": 83,
      "hit": false,
      "t": 213780.10300000096,
      "d": 121.95100000000093,
      "v": 100
    },
    {
      "midi": 35,
      "hit": false,
      "t": 213780.103000001,
      "d": 121.95100000000093,
      "v": 100
    },
    {
      "midi": 71,
      "hit": false,
      "t": 213780.10300000123,
      "d": 121.95100000000093,
      "v": 100
    },
    {
      "midi": 66,
      "hit": false,
      "t": 213780.10300000123,
      "d": 121.95100000000093,
      "v": 100
    },
    {
      "midi": 63,
      "hit": false,
      "t": 213780.10300000123,
      "d": 121.95100000000093,
      "v": 100
    },
    {
      "midi": 71,
      "hit": false,
      "t": 213780.10300001592,
      "d": 60.975500000000466,
      "v": 100
    },
    {
      "midi": 66,
      "hit": false,
      "t": 213780.10300001592,
      "d": 60.975500000000466,
      "v": 100
    },
    {
      "midi": 63,
      "hit": false,
      "t": 213780.10300001592,
      "d": 60.975500000000466,
      "v": 100
    },
    {
      "midi": 83,
      "hit": false,
      "t": 213902.05400000094,
      "d": 243.90200000000186,
      "v": 100
    },
    {
      "midi": 78,
      "hit": false,
      "t": 213902.05400000094,
      "d": 243.90200000000186,
      "v": 100
    },
    {
      "midi": 75,
      "hit": false,
      "t": 213902.05400000094,
      "d": 243.90200000000186,
      "v": 100
    },
    {
      "midi": 54,
      "hit": false,
      "t": 213902.05400000094,
      "d": 1.0162583333440125,
      "v": 60
    },
    {
      "midi": 83,
      "hit": false,
      "t": 213902.05400000096,
      "d": 121.95100000000093,
      "v": 100
    },
    {
      "midi": 35,
      "hit": false,
      "t": 213902.054000001,
      "d": 243.90200000000186,
      "v": 100
    },
    {
      "midi": 46,
      "hit": false,
      "t": 213902.054000002,
      "d": 1.0162583333440125,
      "v": 100
    },
    {
      "midi": 71,
      "hit": false,
      "t": 213902.05400001584,
      "d": 60.975500000000466,
      "v": 100
    },
    {
      "midi": 66,
      "hit": false,
      "t": 213902.05400001584,
      "d": 60.975500000000466,
      "v": 100
    },
    {
      "midi": 63,
      "hit": false,
      "t": 213902.05400001584,
      "d": 60.975500000000466,
      "v": 100
    },
    {
      "midi": 54,
      "hit": false,
      "t": 214024.00500000094,
      "d": 1.0162583333440125,
      "v": 60
    },
    {
      "midi": 83,
      "hit": false,
      "t": 214024.00500000097,
      "d": 121.95100000000093,
      "v": 100
    },
    {
      "midi": 71,
      "hit": false,
      "t": 214024.00500000123,
      "d": 121.95100000000093,
      "v": 100
    },
    {
      "midi": 66,
      "hit": false,
      "t": 214024.00500000123,
      "d": 121.95100000000093,
      "v": 100
    },
    {
      "midi": 63,
      "hit": false,
      "t": 214024.00500000123,
      "d": 121.95100000000093,
      "v": 100
    },
    {
      "midi": 44,
      "hit": false,
      "t": 214024.005000002,
      "d": 1.0162583333440125,
      "v": 100
    },
    {
      "midi": 71,
      "hit": false,
      "t": 214024.00500001584,
      "d": 60.975500000000466,
      "v": 100
    },
    {
      "midi": 66,
      "hit": false,
      "t": 214024.00500001584,
      "d": 60.975500000000466,
      "v": 100
    },
    {
      "midi": 63,
      "hit": false,
      "t": 214024.00500001584,
      "d": 60.975500000000466,
      "v": 100
    },
    {
      "midi": 78,
      "hit": false,
      "t": 214145.95600000094,
      "d": 243.90200000000186,
      "v": 100
    },
    {
      "midi": 75,
      "hit": false,
      "t": 214145.95600000094,
      "d": 243.90200000000186,
      "v": 100
    },
    {
      "midi": 71,
      "hit": false,
      "t": 214145.95600000094,
      "d": 243.90200000000186,
      "v": 100
    },
    {
      "midi": 54,
      "hit": false,
      "t": 214145.95600000094,
      "d": 1.0162583333440125,
      "v": 80
    },
    {
      "midi": 78,
      "hit": false,
      "t": 214145.95600000097,
      "d": 243.90200000000186,
      "v": 100
    },
    {
      "midi": 73,
      "hit": false,
      "t": 214145.95600000097,
      "d": 243.90200000000186,
      "v": 100
    },
    {
      "midi": 78,
      "hit": false,
      "t": 214145.95600000097,
      "d": 121.95100000000093,
      "v": 100
    },
    {
      "midi": 35,
      "hit": false,
      "t": 214145.956000001,
      "d": 243.90200000000186,
      "v": 100
    },
    {
      "midi": 33,
      "hit": false,
      "t": 214145.956000002,
      "d": 1.0162583333440125,
      "v": 127
    },
    {
      "midi": 40,
      "hit": false,
      "t": 214145.956000002,
      "d": 1.0162583333440125,
      "v": 100
    },
    {
      "midi": 46,
      "hit": false,
      "t": 214145.956000002,
      "d": 1.0162583333440125,
      "v": 100
    },
    {
      "midi": 71,
      "hit": false,
      "t": 214145.95600001584,
      "d": 243.90199999985634,
      "v": 100
    },
    {
      "midi": 66,
      "hit": false,
      "t": 214145.95600001584,
      "d": 243.90199999985634,
      "v": 100
    },
    {
      "midi": 63,
      "hit": false,
      "t": 214145.95600001584,
      "d": 243.90199999985634,
      "v": 100
    },
    {
      "midi": 54,
      "hit": false,
      "t": 214267.90700000094,
      "d": 1.0162583333440125,
      "v": 60
    },
    {
      "midi": 78,
      "hit": false,
      "t": 214267.90700000097,
      "d": 121.95100000000093,
      "v": 100
    },
    {
      "midi": 44,
      "hit": false,
      "t": 214267.90700000201,
      "d": 1.0162583333440125,
      "v": 100
    },
    {
      "midi": 80,
      "hit": false,
      "t": 214389.85800000094,
      "d": 243.90200000000186,
      "v": 100
    },
    {
      "midi": 78,
      "hit": false,
      "t": 214389.85800000094,
      "d": 243.90200000000186,
      "v": 100
    },
    {
      "midi": 75,
      "hit": false,
      "t": 214389.85800000094,
      "d": 243.90200000000186,
      "v": 100
    },
    {
      "midi": 54,
      "hit": false,
      "t": 214389.85800000094,
      "d": 1.0162583333440125,
      "v": 60
    },
    {
      "midi": 80,
      "hit": false,
      "t": 214389.85800000097,
      "d": 243.90200000000186,
      "v": 100
    },
    {
      "midi": 75,
      "hit": false,
      "t": 214389.85800000097,
      "d": 243.90200000000186,
      "v": 100
    },
    {
      "midi": 80,
      "hit": false,
      "t": 214389.85800000097,
      "d": 121.95100000000093,
      "v": 100
    },
    {
      "midi": 35,
      "hit": false,
      "t": 214389.858000001,
      "d": 243.90200000000186,
      "v": 100
    },
    {
      "midi": 40,
      "hit": false,
      "t": 214389.85800000202,
      "d": 1.0162583333440125,
      "v": 40
    },
    {
      "midi": 46,
      "hit": false,
      "t": 214389.85800000202,
      "d": 1.0162583333440125,
      "v": 100
    },
    {
      "midi": 71,
      "hit": false,
      "t": 214389.8580000157,
      "d": 60.975500000000466,
      "v": 100
    },
    {
      "midi": 66,
      "hit": false,
      "t": 214389.8580000157,
      "d": 60.975500000000466,
      "v": 100
    },
    {
      "midi": 63,
      "hit": false,
      "t": 214389.8580000157,
      "d": 60.975500000000466,
      "v": 100
    },
    {
      "midi": 54,
      "hit": false,
      "t": 214511.80900000094,
      "d": 1.0162583333440125,
      "v": 60
    },
    {
      "midi": 80,
      "hit": false,
      "t": 214511.80900000097,
      "d": 121.95100000000093,
      "v": 100
    },
    {
      "midi": 40,
      "hit": false,
      "t": 214511.80900000202,
      "d": 1.0162583333440125,
      "v": 100
    },
    {
      "midi": 44,
      "hit": false,
      "t": 214511.80900000202,
      "d": 1.0162583333440125,
      "v": 100
    },
    {
      "midi": 71,
      "hit": false,
      "t": 214511.8090000157,
      "d": 60.975500000000466,
      "v": 100
    },
    {
      "midi": 66,
      "hit": false,
      "t": 214511.8090000157,
      "d": 60.975500000000466,
      "v": 100
    },
    {
      "midi": 63,
      "hit": false,
      "t": 214511.8090000157,
      "d": 60.975500000000466,
      "v": 100
    },
    {
      "midi": 79,
      "hit": false,
      "t": 214633.75999999995,
      "d": 1951.2159999999858,
      "v": 120
    },
    {
      "midi": 80,
      "hit": false,
      "t": 214633.76000000094,
      "d": 243.90200000000186,
      "v": 100
    },
    {
      "midi": 76,
      "hit": false,
      "t": 214633.76000000094,
      "d": 243.90200000000186,
      "v": 100
    },
    {
      "midi": 71,
      "hit": false,
      "t": 214633.76000000094,
      "d": 243.90200000000186,
      "v": 100
    },
    {
      "midi": 54,
      "hit": false,
      "t": 214633.76000000094,
      "d": 1.0162583333440125,
      "v": 80
    },
    {
      "midi": 78,
      "hit": false,
      "t": 214633.76000000097,
      "d": 243.90200000000186,
      "v": 100
    },
    {
      "midi": 73,
      "hit": false,
      "t": 214633.76000000097,
      "d": 243.90200000000186,
      "v": 100
    },
    {
      "midi": 76,
      "hit": false,
      "t": 214633.76000000097,
      "d": 121.95100000000093,
      "v": 100
    },
    {
      "midi": 28,
      "hit": false,
      "t": 214633.760000001,
      "d": 243.90200000000186,
      "v": 100
    },
    {
      "midi": 33,
      "hit": false,
      "t": 214633.76000000202,
      "d": 1.0162583333440125,
      "v": 127
    },
    {
      "midi": 42,
      "hit": false,
      "t": 214633.76000000202,
      "d": 1.0162583333440125,
      "v": 100
    },
    {
      "midi": 40,
      "hit": false,
      "t": 214633.76000000403,
      "d": 1219.5100000000093,
      "v": 100
    },
    {
      "midi": 47,
      "hit": false,
      "t": 214633.76000000403,
      "d": 1219.5100000000093,
      "v": 100
    },
    {
      "midi": 68,
      "hit": false,
      "t": 214633.7600000157,
      "d": 487.8040000000037,
      "v": 100
    },
    {
      "midi": 59,
      "hit": false,
      "t": 214633.7600000157,
      "d": 487.8040000000037,
      "v": 100
    },
    {
      "midi": 64,
      "hit": false,
      "t": 214633.7600000157,
      "d": 487.8040000000037,
      "v": 100
    },
    {
      "midi": 54,
      "hit": false,
      "t": 214755.71100000094,
      "d": 1.0162583333440125,
      "v": 60
    },
    {
      "midi": 68,
      "hit": false,
      "t": 214755.71100000123,
      "d": 121.95100000000093,
      "v": 100
    },
    {
      "midi": 64,
      "hit": false,
      "t": 214755.71100000123,
      "d": 121.95100000000093,
      "v": 100
    },
    {
      "midi": 59,
      "hit": false,
      "t": 214755.71100000123,
      "d": 121.95100000000093,
      "v": 100
    },
    {
      "midi": 40,
      "hit": false,
      "t": 214755.71100000202,
      "d": 1.0162583333440125,
      "v": 100
    },
    {
      "midi": 54,
      "hit": false,
      "t": 214877.66200000094,
      "d": 1.0162583333440125,
      "v": 60
    },
    {
      "midi": 76,
      "hit": false,
      "t": 214877.66200000097,
      "d": 121.95100000000093,
      "v": 100
    },
    {
      "midi": 71,
      "hit": false,
      "t": 214877.66200000097,
      "d": 121.95100000000093,
      "v": 100
    },
    {
      "midi": 28,
      "hit": false,
      "t": 214877.662000001,
      "d": 20.325166666676523,
      "v": 100
    },
    {
      "midi": 68,
      "hit": false,
      "t": 214877.66200000123,
      "d": 121.95100000000093,
      "v": 100
    },
    {
      "midi": 64,
      "hit": false,
      "t": 214877.66200000123,
      "d": 121.95100000000093,
      "v": 100
    },
    {
      "midi": 59,
      "hit": false,
      "t": 214877.66200000123,
      "d": 121.95100000000093,
      "v": 100
    },
    {
      "midi": 46,
      "hit": false,
      "t": 214877.66200000202,
      "d": 1.0162583333440125,
      "v": 100
    },
    {
      "midi": 40,
      "hit": false,
      "t": 214877.66200000202,
      "d": 1.0162583333440125,
      "v": 40
    },
    {
      "midi": 80,
      "hit": false,
      "t": 214999.61300000094,
      "d": 243.90200000000186,
      "v": 100
    },
    {
      "midi": 76,
      "hit": false,
      "t": 214999.61300000094,
      "d": 243.90200000000186,
      "v": 100
    },
    {
      "midi": 71,
      "hit": false,
      "t": 214999.61300000094,
      "d": 243.90200000000186,
      "v": 100
    },
    {
      "midi": 54,
      "hit": false,
      "t": 214999.61300000094,
      "d": 1.0162583333440125,
      "v": 60
    },
    {
      "midi": 76,
      "hit": false,
      "t": 214999.61300000097,
      "d": 975.6080000000075,
      "v": 100
    },
    {
      "midi": 71,
      "hit": false,
      "t": 214999.61300000097,
      "d": 975.6080000000075,
      "v": 100
    },
    {
      "midi": 28,
      "hit": false,
      "t": 214999.613000001,
      "d": 243.90200000000186,
      "v": 100
    },
    {
      "midi": 44,
      "hit": false,
      "t": 214999.61300000202,
      "d": 1.0162583333440125,
      "v": 100
    },
    {
      "midi": 40,
      "hit": false,
      "t": 214999.61300000202,
      "d": 1.0162583333440125,
      "v": 100
    },
    {
      "midi": 54,
      "hit": false,
      "t": 215121.56400000094,
      "d": 1.0162583333440125,
      "v": 80
    },
    {
      "midi": 68,
      "hit": false,
      "t": 215121.56400000124,
      "d": 121.95100000000093,
      "v": 100
    },
    {
      "midi": 64,
      "hit": false,
      "t": 215121.56400000124,
      "d": 121.95100000000093,
      "v": 100
    },
    {
      "midi": 59,
      "hit": false,
      "t": 215121.56400000124,
      "d": 121.95100000000093,
      "v": 100
    },
    {
      "midi": 33,
      "hit": false,
      "t": 215121.56400000202,
      "d": 1.0162583333440125,
      "v": 127
    },
    {
      "midi": 46,
      "hit": false,
      "t": 215121.56400000202,
      "d": 1.0162583333440125,
      "v": 100
    },
    {
      "midi": 68,
      "hit": false,
      "t": 215121.5640000157,
      "d": 60.97549999988405,
      "v": 100
    },
    {
      "midi": 59,
      "hit": false,
      "t": 215121.5640000157,
      "d": 60.97549999988405,
      "v": 100
    },
    {
      "midi": 64,
      "hit": false,
      "t": 215121.5640000157,
      "d": 60.97549999988405,
      "v": 100
    },
    {
      "midi": 54,
      "hit": false,
      "t": 215243.51500000095,
      "d": 1.0162583333440125,
      "v": 60
    },
    {
      "midi": 28,
      "hit": false,
      "t": 215243.515000001,
      "d": 20.325166666676523,
      "v": 100
    },
    {
      "midi": 68,
      "hit": false,
      "t": 215243.51500000124,
      "d": 121.95100000000093,
      "v": 100
    },
    {
      "midi": 64,
      "hit": false,
      "t": 215243.51500000124,
      "d": 121.95100000000093,
      "v": 100
    },
    {
      "midi": 59,
      "hit": false,
      "t": 215243.51500000124,
      "d": 121.95100000000093,
      "v": 100
    },
    {
      "midi": 44,
      "hit": false,
      "t": 215243.51500000202,
      "d": 1.0162583333440125,
      "v": 100
    },
    {
      "midi": 68,
      "hit": false,
      "t": 215243.51500001558,
      "d": 60.975500000000466,
      "v": 100
    },
    {
      "midi": 59,
      "hit": false,
      "t": 215243.51500001558,
      "d": 60.975500000000466,
      "v": 100
    },
    {
      "midi": 64,
      "hit": false,
      "t": 215243.51500001558,
      "d": 60.975500000000466,
      "v": 100
    },
    {
      "midi": 80,
      "hit": false,
      "t": 215365.46600000095,
      "d": 243.90200000000186,
      "v": 100
    },
    {
      "midi": 76,
      "hit": false,
      "t": 215365.46600000095,
      "d": 243.90200000000186,
      "v": 100
    },
    {
      "midi": 71,
      "hit": false,
      "t": 215365.46600000095,
      "d": 243.90200000000186,
      "v": 100
    },
    {
      "midi": 54,
      "hit": false,
      "t": 215365.46600000095,
      "d": 1.0162583333440125,
      "v": 60
    },
    {
      "midi": 28,
      "hit": false,
      "t": 215365.466000001,
      "d": 243.90200000000186,
      "v": 100
    },
    {
      "midi": 46,
      "hit": false,
      "t": 215365.46600000202,
      "d": 1.0162583333440125,
      "v": 100
    },
    {
      "midi": 40,
      "hit": false,
      "t": 215365.46600000202,
      "d": 1.0162583333440125,
      "v": 100
    },
    {
      "midi": 68,
      "hit": false,
      "t": 215365.4660000155,
      "d": 60.975500000000466,
      "v": 100
    },
    {
      "midi": 59,
      "hit": false,
      "t": 215365.4660000155,
      "d": 60.975500000000466,
      "v": 100
    },
    {
      "midi": 64,
      "hit": false,
      "t": 215365.4660000155,
      "d": 60.975500000000466,
      "v": 100
    },
    {
      "midi": 54,
      "hit": false,
      "t": 215487.41700000095,
      "d": 1.0162583333440125,
      "v": 60
    },
    {
      "midi": 68,
      "hit": false,
      "t": 215487.41700000124,
      "d": 121.95100000000093,
      "v": 100
    },
    {
      "midi": 64,
      "hit": false,
      "t": 215487.41700000124,
      "d": 121.95100000000093,
      "v": 100
    },
    {
      "midi": 59,
      "hit": false,
      "t": 215487.41700000124,
      "d": 121.95100000000093,
      "v": 100
    },
    {
      "midi": 44,
      "hit": false,
      "t": 215487.41700000202,
      "d": 1.0162583333440125,
      "v": 100
    },
    {
      "midi": 68,
      "hit": false,
      "t": 215487.4170000155,
      "d": 60.975500000000466,
      "v": 100
    },
    {
      "midi": 59,
      "hit": false,
      "t": 215487.4170000155,
      "d": 60.975500000000466,
      "v": 100
    },
    {
      "midi": 64,
      "hit": false,
      "t": 215487.4170000155,
      "d": 60.975500000000466,
      "v": 100
    },
    {
      "midi": 54,
      "hit": false,
      "t": 215609.36800000095,
      "d": 1.0162583333440125,
      "v": 80
    },
    {
      "midi": 28,
      "hit": false,
      "t": 215609.368000001,
      "d": 20.325166666676523,
      "v": 100
    },
    {
      "midi": 68,
      "hit": false,
      "t": 215609.36800000124,
      "d": 121.95100000000093,
      "v": 100
    },
    {
      "midi": 64,
      "hit": false,
      "t": 215609.36800000124,
      "d": 121.95100000000093,
      "v": 100
    },
    {
      "midi": 59,
      "hit": false,
      "t": 215609.36800000124,
      "d": 121.95100000000093,
      "v": 100
    },
    {
      "midi": 42,
      "hit": false,
      "t": 215609.36800000202,
      "d": 1.0162583333440125,
      "v": 100
    },
    {
      "midi": 33,
      "hit": false,
      "t": 215609.36800000202,
      "d": 1.0162583333440125,
      "v": 127
    },
    {
      "midi": 68,
      "hit": false,
      "t": 215609.3680000155,
      "d": 60.97549999988405,
      "v": 100
    },
    {
      "midi": 59,
      "hit": false,
      "t": 215609.3680000155,
      "d": 60.97549999988405,
      "v": 100
    },
    {
      "midi": 64,
      "hit": false,
      "t": 215609.3680000155,
      "d": 60.97549999988405,
      "v": 100
    },
    {
      "midi": 80,
      "hit": false,
      "t": 215731.31900000095,
      "d": 243.90200000000186,
      "v": 100
    },
    {
      "midi": 76,
      "hit": false,
      "t": 215731.31900000095,
      "d": 243.90200000000186,
      "v": 100
    },
    {
      "midi": 71,
      "hit": false,
      "t": 215731.31900000095,
      "d": 243.90200000000186,
      "v": 100
    },
    {
      "midi": 54,
      "hit": false,
      "t": 215731.31900000095,
      "d": 1.0162583333440125,
      "v": 60
    },
    {
      "midi": 28,
      "hit": false,
      "t": 215731.319000001,
      "d": 243.90200000000186,
      "v": 100
    },
    {
      "midi": 40,
      "hit": false,
      "t": 215731.31900000203,
      "d": 1.0162583333440125,
      "v": 100
    },
    {
      "midi": 68,
      "hit": false,
      "t": 215731.31900001538,
      "d": 60.975500000000466,
      "v": 100
    },
    {
      "midi": 59,
      "hit": false,
      "t": 215731.31900001538,
      "d": 60.975500000000466,
      "v": 100
    },
    {
      "midi": 64,
      "hit": false,
      "t": 215731.31900001538,
      "d": 60.975500000000466,
      "v": 100
    },
    {
      "midi": 54,
      "hit": false,
      "t": 215853.27000000095,
      "d": 1.0162583333440125,
      "v": 60
    },
    {
      "midi": 68,
      "hit": false,
      "t": 215853.27000000124,
      "d": 121.95100000000093,
      "v": 100
    },
    {
      "midi": 64,
      "hit": false,
      "t": 215853.27000000124,
      "d": 121.95100000000093,
      "v": 100
    },
    {
      "midi": 59,
      "hit": false,
      "t": 215853.27000000124,
      "d": 121.95100000000093,
      "v": 100
    },
    {
      "midi": 46,
      "hit": false,
      "t": 215853.27000000203,
      "d": 1.0162583333440125,
      "v": 100
    },
    {
      "midi": 56,
      "hit": false,
      "t": 215853.27000000403,
      "d": 731.7060000003839,
      "v": 100
    },
    {
      "midi": 52,
      "hit": false,
      "t": 215853.27000000403,
      "d": 731.7060000003839,
      "v": 100
    },
    {
      "midi": 68,
      "hit": false,
      "t": 215853.2700000153,
      "d": 60.975500000000466,
      "v": 100
    },
    {
      "midi": 59,
      "hit": false,
      "t": 215853.2700000153,
      "d": 60.975500000000466,
      "v": 100
    },
    {
      "midi": 64,
      "hit": false,
      "t": 215853.2700000153,
      "d": 60.975500000000466,
      "v": 100
    },
    {
      "midi": 54,
      "hit": false,
      "t": 215975.22100000095,
      "d": 1.0162583333440125,
      "v": 60
    },
    {
      "midi": 28,
      "hit": false,
      "t": 215975.221000001,
      "d": 20.325166666676523,
      "v": 100
    },
    {
      "midi": 68,
      "hit": false,
      "t": 215975.22100000124,
      "d": 121.95100000000093,
      "v": 100
    },
    {
      "midi": 64,
      "hit": false,
      "t": 215975.22100000124,
      "d": 121.95100000000093,
      "v": 100
    },
    {
      "midi": 59,
      "hit": false,
      "t": 215975.22100000124,
      "d": 121.95100000000093,
      "v": 100
    },
    {
      "midi": 44,
      "hit": false,
      "t": 215975.22100000203,
      "d": 1.0162583333440125,
      "v": 100
    },
    {
      "midi": 68,
      "hit": false,
      "t": 215975.2210000153,
      "d": 60.975500000000466,
      "v": 100
    },
    {
      "midi": 59,
      "hit": false,
      "t": 215975.2210000153,
      "d": 60.975500000000466,
      "v": 100
    },
    {
      "midi": 64,
      "hit": false,
      "t": 215975.2210000153,
      "d": 60.975500000000466,
      "v": 100
    },
    {
      "midi": 80,
      "hit": false,
      "t": 216097.17200000095,
      "d": 243.90200000000186,
      "v": 100
    },
    {
      "midi": 76,
      "hit": false,
      "t": 216097.17200000095,
      "d": 243.90200000000186,
      "v": 100
    },
    {
      "midi": 71,
      "hit": false,
      "t": 216097.17200000095,
      "d": 243.90200000000186,
      "v": 100
    },
    {
      "midi": 54,
      "hit": false,
      "t": 216097.17200000095,
      "d": 1.0162583333440125,
      "v": 80
    },
    {
      "midi": 80,
      "hit": false,
      "t": 216097.17200000098,
      "d": 243.90200000000186,
      "v": 100
    },
    {
      "midi": 76,
      "hit": false,
      "t": 216097.17200000098,
      "d": 243.90200000000186,
      "v": 100
    },
    {
      "midi": 28,
      "hit": false,
      "t": 216097.172000001,
      "d": 243.90200000000186,
      "v": 100
    },
    {
      "midi": 40,
      "hit": false,
      "t": 216097.17200000203,
      "d": 1.0162583333440125,
      "v": 100
    },
    {
      "midi": 46,
      "hit": false,
      "t": 216097.17200000203,
      "d": 1.0162583333440125,
      "v": 100
    },
    {
      "midi": 33,
      "hit": false,
      "t": 216097.17200000203,
      "d": 1.0162583333440125,
      "v": 127
    },
    {
      "midi": 57,
      "hit": false,
      "t": 216097.17200000203,
      "d": 1.0162583333440125,
      "v": 100
    },
    {
      "midi": 68,
      "hit": false,
      "t": 216097.1720000153,
      "d": 243.90199999985634,
      "v": 100
    },
    {
      "midi": 59,
      "hit": false,
      "t": 216097.1720000153,
      "d": 243.90199999985634,
      "v": 100
    },
    {
      "midi": 64,
      "hit": false,
      "t": 216097.1720000153,
      "d": 243.90199999985634,
      "v": 100
    },
    {
      "midi": 54,
      "hit": false,
      "t": 216219.12300000095,
      "d": 1.0162583333440125,
      "v": 60
    },
    {
      "midi": 44,
      "hit": false,
      "t": 216219.12300000203,
      "d": 1.0162583333440125,
      "v": 100
    },
    {
      "midi": 80,
      "hit": false,
      "t": 216341.07400000095,
      "d": 243.90200000000186,
      "v": 100
    },
    {
      "midi": 76,
      "hit": false,
      "t": 216341.07400000095,
      "d": 243.90200000000186,
      "v": 100
    },
    {
      "midi": 71,
      "hit": false,
      "t": 216341.07400000095,
      "d": 243.90200000000186,
      "v": 100
    },
    {
      "midi": 54,
      "hit": false,
      "t": 216341.07400000095,
      "d": 1.0162583333440125,
      "v": 60
    },
    {
      "midi": 83,
      "hit": false,
      "t": 216341.07400000098,
      "d": 243.90200000000186,
      "v": 100
    },
    {
      "midi": 80,
      "hit": false,
      "t": 216341.07400000098,
      "d": 243.90200000000186,
      "v": 100
    },
    {
      "midi": 28,
      "hit": false,
      "t": 216341.074000001,
      "d": 243.90200000000186,
      "v": 100
    },
    {
      "midi": 40,
      "hit": false,
      "t": 216341.07400000203,
      "d": 1.0162583333440125,
      "v": 100
    },
    {
      "midi": 46,
      "hit": false,
      "t": 216341.07400000203,
      "d": 1.0162583333440125,
      "v": 100
    },
    {
      "midi": 68,
      "hit": false,
      "t": 216341.07400001516,
      "d": 60.975500000000466,
      "v": 100
    },
    {
      "midi": 59,
      "hit": false,
      "t": 216341.07400001516,
      "d": 60.975500000000466,
      "v": 100
    },
    {
      "midi": 64,
      "hit": false,
      "t": 216341.07400001516,
      "d": 60.975500000000466,
      "v": 100
    },
    {
      "midi": 54,
      "hit": false,
      "t": 216463.02500000095,
      "d": 1.0162583333440125,
      "v": 60
    },
    {
      "midi": 40,
      "hit": false,
      "t": 216463.02500000203,
      "d": 1.0162583333440125,
      "v": 100
    },
    {
      "midi": 44,
      "hit": false,
      "t": 216463.02500000203,
      "d": 1.0162583333440125,
      "v": 100
    },
    {
      "midi": 68,
      "hit": false,
      "t": 216463.02500001516,
      "d": 60.975500000000466,
      "v": 100
    },
    {
      "midi": 59,
      "hit": false,
      "t": 216463.02500001516,
      "d": 60.975500000000466,
      "v": 100
    },
    {
      "midi": 64,
      "hit": false,
      "t": 216463.02500001516,
      "d": 60.975500000000466,
      "v": 100
    },
    {
      "midi": 85,
      "hit": false,
      "t": 216584.97600000096,
      "d": 243.90200000000186,
      "v": 100
    },
    {
      "midi": 80,
      "hit": false,
      "t": 216584.97600000096,
      "d": 243.90200000000186,
      "v": 100
    },
    {
      "midi": 76,
      "hit": false,
      "t": 216584.97600000096,
      "d": 243.90200000000186,
      "v": 100
    },
    {
      "midi": 54,
      "hit": false,
      "t": 216584.97600000096,
      "d": 1.0162583333440125,
      "v": 80
    },
    {
      "midi": 85,
      "hit": false,
      "t": 216584.97600000098,
      "d": 243.90200000000186,
      "v": 100
    },
    {
      "midi": 80,
      "hit": false,
      "t": 216584.97600000098,
      "d": 243.90200000000186,
      "v": 100
    },
    {
      "midi": 73,
      "hit": false,
      "t": 216584.97600000098,
      "d": 121.95100000000093,
      "v": 100
    },
    {
      "midi": 37,
      "hit": false,
      "t": 216584.976000001,
      "d": 243.90200000000186,
      "v": 100
    },
    {
      "midi": 33,
      "hit": false,
      "t": 216584.97600000203,
      "d": 1.0162583333440125,
      "v": 127
    },
    {
      "midi": 42,
      "hit": false,
      "t": 216584.97600000203,
      "d": 1.0162583333440125,
      "v": 100
    },
    {
      "midi": 57,
      "hit": false,
      "t": 216584.97600000203,
      "d": 1.0162583333440125,
      "v": 100
    },
    {
      "midi": 49,
      "hit": false,
      "t": 216584.97600000442,
      "d": 975.6080000000075,
      "v": 100
    },
    {
      "midi": 56,
      "hit": false,
      "t": 216584.97600000442,
      "d": 975.6080000000075,
      "v": 100
    },
    {
      "midi": 73,
      "hit": false,
      "t": 216584.97600001516,
      "d": 487.8040000000037,
      "v": 100
    },
    {
      "midi": 68,
      "hit": false,
      "t": 216584.97600001516,
      "d": 487.8040000000037,
      "v": 100
    },
    {
      "midi": 64,
      "hit": false,
      "t": 216584.97600001516,
      "d": 487.8040000000037,
      "v": 100
    },
    {
      "midi": 54,
      "hit": false,
      "t": 216706.92700000096,
      "d": 1.0162583333440125,
      "v": 60
    },
    {
      "midi": 73,
      "hit": false,
      "t": 216706.927000001,
      "d": 121.95100000000093,
      "v": 100
    },
    {
      "midi": 73,
      "hit": false,
      "t": 216706.92700000125,
      "d": 121.95100000000093,
      "v": 100
    },
    {
      "midi": 68,
      "hit": false,
      "t": 216706.92700000125,
      "d": 121.95100000000093,
      "v": 100
    },
    {
      "midi": 64,
      "hit": false,
      "t": 216706.92700000125,
      "d": 121.95100000000093,
      "v": 100
    },
    {
      "midi": 54,
      "hit": false,
      "t": 216828.87800000096,
      "d": 1.0162583333440125,
      "v": 60
    },
    {
      "midi": 80,
      "hit": false,
      "t": 216828.878000001,
      "d": 121.95100000000093,
      "v": 100
    },
    {
      "midi": 37,
      "hit": false,
      "t": 216828.87800000102,
      "d": 243.90200000000186,
      "v": 100
    },
    {
      "midi": 73,
      "hit": false,
      "t": 216828.87800000125,
      "d": 121.95100000000093,
      "v": 100
    },
    {
      "midi": 68,
      "hit": false,
      "t": 216828.87800000125,
      "d": 121.95100000000093,
      "v": 100
    },
    {
      "midi": 64,
      "hit": false,
      "t": 216828.87800000125,
      "d": 121.95100000000093,
      "v": 100
    },
    {
      "midi": 46,
      "hit": false,
      "t": 216828.87800000203,
      "d": 1.0162583333440125,
      "v": 100
    },
    {
      "midi": 54,
      "hit": false,
      "t": 216950.82900000096,
      "d": 1.0162583333440125,
      "v": 60
    },
    {
      "midi": 80,
      "hit": false,
      "t": 216950.829000001,
      "d": 121.95100000000093,
      "v": 100
    },
    {
      "midi": 44,
      "hit": false,
      "t": 216950.82900000204,
      "d": 1.0162583333440125,
      "v": 100
    },
    {
      "midi": 85,
      "hit": false,
      "t": 217072.78000000096,
      "d": 243.90200000000186,
      "v": 100
    },
    {
      "midi": 80,
      "hit": false,
      "t": 217072.78000000096,
      "d": 243.90200000000186,
      "v": 100
    },
    {
      "midi": 76,
      "hit": false,
      "t": 217072.78000000096,
      "d": 243.90200000000186,
      "v": 100
    },
    {
      "midi": 54,
      "hit": false,
      "t": 217072.78000000096,
      "d": 1.0162583333440125,
      "v": 80
    },
    {
      "midi": 85,
      "hit": false,
      "t": 217072.780000001,
      "d": 243.90200000000186,
      "v": 100
    },
    {
      "midi": 80,
      "hit": false,
      "t": 217072.780000001,
      "d": 243.90200000000186,
      "v": 100
    },
    {
      "midi": 76,
      "hit": false,
      "t": 217072.780000001,
      "d": 121.95100000000093,
      "v": 100
    },
    {
      "midi": 37,
      "hit": false,
      "t": 217072.78000000102,
      "d": 243.90200000000186,
      "v": 100
    },
    {
      "midi": 73,
      "hit": false,
      "t": 217072.78000000125,
      "d": 121.95100000000093,
      "v": 100
    },
    {
      "midi": 68,
      "hit": false,
      "t": 217072.78000000125,
      "d": 121.95100000000093,
      "v": 100
    },
    {
      "midi": 64,
      "hit": false,
      "t": 217072.78000000125,
      "d": 121.95100000000093,
      "v": 100
    },
    {
      "midi": 33,
      "hit": false,
      "t": 217072.78000000204,
      "d": 1.0162583333440125,
      "v": 127
    },
    {
      "midi": 40,
      "hit": false,
      "t": 217072.78000000204,
      "d": 1.0162583333440125,
      "v": 100
    },
    {
      "midi": 46,
      "hit": false,
      "t": 217072.78000000204,
      "d": 1.0162583333440125,
      "v": 100
    },
    {
      "midi": 73,
      "hit": false,
      "t": 217072.78000001516,
      "d": 60.97549999988405,
      "v": 100
    },
    {
      "midi": 68,
      "hit": false,
      "t": 217072.78000001516,
      "d": 60.97549999988405,
      "v": 100
    },
    {
      "midi": 64,
      "hit": false,
      "t": 217072.78000001516,
      "d": 60.97549999988405,
      "v": 100
    },
    {
      "midi": 54,
      "hit": false,
      "t": 217194.73100000096,
      "d": 1.0162583333440125,
      "v": 60
    },
    {
      "midi": 76,
      "hit": false,
      "t": 217194.731000001,
      "d": 121.95100000000093,
      "v": 100
    },
    {
      "midi": 44,
      "hit": false,
      "t": 217194.73100000204,
      "d": 1.0162583333440125,
      "v": 100
    },
    {
      "midi": 73,
      "hit": false,
      "t": 217194.73100001505,
      "d": 60.975500000000466,
      "v": 100
    },
    {
      "midi": 68,
      "hit": false,
      "t": 217194.73100001505,
      "d": 60.975500000000466,
      "v": 100
    },
    {
      "midi": 64,
      "hit": false,
      "t": 217194.73100001505,
      "d": 60.975500000000466,
      "v": 100
    },
    {
      "midi": 85,
      "hit": false,
      "t": 217316.68200000096,
      "d": 30.487750000000233,
      "v": 100
    },
    {
      "midi": 80,
      "hit": false,
      "t": 217316.68200000096,
      "d": 30.487750000000233,
      "v": 100
    },
    {
      "midi": 54,
      "hit": false,
      "t": 217316.68200000096,
      "d": 1.0162583333440125,
      "v": 60
    },
    {
      "midi": 88,
      "hit": false,
      "t": 217316.682000001,
      "d": 121.95100000000093,
      "v": 100
    },
    {
      "midi": 83,
      "hit": false,
      "t": 217316.682000001,
      "d": 121.95100000000093,
      "v": 100
    },
    {
      "midi": 83,
      "hit": false,
      "t": 217316.682000001,
      "d": 121.95100000000093,
      "v": 100
    },
    {
      "midi": 37,
      "hit": false,
      "t": 217316.68200000102,
      "d": 60.975500000000466,
      "v": 100
    },
    {
      "midi": 73,
      "hit": false,
      "t": 217316.68200000125,
      "d": 121.95100000000093,
      "v": 100
    },
    {
      "midi": 68,
      "hit": false,
      "t": 217316.68200000125,
      "d": 121.95100000000093,
      "v": 100
    },
    {
      "midi": 64,
      "hit": false,
      "t": 217316.68200000125,
      "d": 121.95100000000093,
      "v": 100
    },
    {
      "midi": 46,
      "hit": false,
      "t": 217316.68200000204,
      "d": 1.0162583333440125,
      "v": 100
    },
    {
      "midi": 73,
      "hit": false,
      "t": 217316.68200001496,
      "d": 60.975500000000466,
      "v": 100
    },
    {
      "midi": 68,
      "hit": false,
      "t": 217316.68200001496,
      "d": 60.975500000000466,
      "v": 100
    },
    {
      "midi": 64,
      "hit": false,
      "t": 217316.68200001496,
      "d": 60.975500000000466,
      "v": 100
    },
    {
      "midi": 85,
      "hit": false,
      "t": 217438.63300000096,
      "d": 243.90200000000186,
      "v": 100
    },
    {
      "midi": 81,
      "hit": false,
      "t": 217438.63300000096,
      "d": 243.90200000000186,
      "v": 100
    },
    {
      "midi": 76,
      "hit": false,
      "t": 217438.63300000096,
      "d": 243.90200000000186,
      "v": 100
    },
    {
      "midi": 54,
      "hit": false,
      "t": 217438.63300000096,
      "d": 1.0162583333440125,
      "v": 60
    },
    {
      "midi": 85,
      "hit": false,
      "t": 217438.633000001,
      "d": 365.8530000000028,
      "v": 100
    },
    {
      "midi": 81,
      "hit": false,
      "t": 217438.633000001,
      "d": 365.8530000000028,
      "v": 100
    },
    {
      "midi": 83,
      "hit": false,
      "t": 217438.633000001,
      "d": 121.95100000000093,
      "v": 100
    },
    {
      "midi": 33,
      "hit": false,
      "t": 217438.63300000102,
      "d": 243.90200000000186,
      "v": 100
    },
    {
      "midi": 44,
      "hit": false,
      "t": 217438.63300000204,
      "d": 1.0162583333440125,
      "v": 100
    },
    {
      "midi": 73,
      "hit": false,
      "t": 217438.63300001496,
      "d": 60.975500000000466,
      "v": 100
    },
    {
      "midi": 68,
      "hit": false,
      "t": 217438.63300001496,
      "d": 60.975500000000466,
      "v": 100
    },
    {
      "midi": 64,
      "hit": false,
      "t": 217438.63300001496,
      "d": 60.975500000000466,
      "v": 100
    },
    {
      "midi": 54,
      "hit": false,
      "t": 217560.58400000096,
      "d": 1.0162583333440125,
      "v": 80
    },
    {
      "midi": 85,
      "hit": false,
      "t": 217560.584000001,
      "d": 121.95100000000093,
      "v": 100
    },
    {
      "midi": 69,
      "hit": false,
      "t": 217560.58400000125,
      "d": 121.95100000000093,
      "v": 100
    },
    {
      "midi": 64,
      "hit": false,
      "t": 217560.58400000125,
      "d": 121.95100000000093,
      "v": 100
    },
    {
      "midi": 61,
      "hit": false,
      "t": 217560.58400000125,
      "d": 121.95100000000093,
      "v": 100
    },
    {
      "midi": 33,
      "hit": false,
      "t": 217560.58400000204,
      "d": 1.0162583333440125,
      "v": 127
    },
    {
      "midi": 42,
      "hit": false,
      "t": 217560.58400000204,
      "d": 1.0162583333440125,
      "v": 100
    },
    {
      "midi": 45,
      "hit": false,
      "t": 217560.58400000443,
      "d": 975.6080000000075,
      "v": 100
    },
    {
      "midi": 52,
      "hit": false,
      "t": 217560.58400000443,
      "d": 975.6080000000075,
      "v": 100
    },
    {
      "midi": 69,
      "hit": false,
      "t": 217560.58400001496,
      "d": 60.97549999988405,
      "v": 100
    },
    {
      "midi": 64,
      "hit": false,
      "t": 217560.58400001496,
      "d": 60.97549999988405,
      "v": 100
    },
    {
      "midi": 61,
      "hit": false,
      "t": 217560.58400001496,
      "d": 60.97549999988405,
      "v": 100
    },
    {
      "midi": 85,
      "hit": false,
      "t": 217682.53500000096,
      "d": 121.95100000000093,
      "v": 100
    },
    {
      "midi": 81,
      "hit": false,
      "t": 217682.53500000096,
      "d": 121.95100000000093,
      "v": 100
    },
    {
      "midi": 76,
      "hit": false,
      "t": 217682.53500000096,
      "d": 121.95100000000093,
      "v": 100
    },
    {
      "midi": 54,
      "hit": false,
      "t": 217682.53500000096,
      "d": 1.0162583333440125,
      "v": 60
    },
    {
      "midi": 85,
      "hit": false,
      "t": 217682.535000001,
      "d": 121.95100000000093,
      "v": 100
    },
    {
      "midi": 33,
      "hit": false,
      "t": 217682.53500000102,
      "d": 121.95100000000093,
      "v": 100
    },
    {
      "midi": 69,
      "hit": false,
      "t": 217682.53500000125,
      "d": 121.95100000000093,
      "v": 100
    },
    {
      "midi": 64,
      "hit": false,
      "t": 217682.53500000125,
      "d": 121.95100000000093,
      "v": 100
    },
    {
      "midi": 61,
      "hit": false,
      "t": 217682.53500000125,
      "d": 121.95100000000093,
      "v": 100
    },
    {
      "midi": 69,
      "hit": false,
      "t": 217682.53500001485,
      "d": 60.975500000000466,
      "v": 100
    },
    {
      "midi": 64,
      "hit": false,
      "t": 217682.53500001485,
      "d": 60.975500000000466,
      "v": 100
    },
    {
      "midi": 61,
      "hit": false,
      "t": 217682.53500001485,
      "d": 60.975500000000466,
      "v": 100
    },
    {
      "midi": 85,
      "hit": false,
      "t": 217804.48600000096,
      "d": 243.90200000000186,
      "v": 100
    },
    {
      "midi": 81,
      "hit": false,
      "t": 217804.48600000096,
      "d": 243.90200000000186,
      "v": 100
    },
    {
      "midi": 76,
      "hit": false,
      "t": 217804.48600000096,
      "d": 243.90200000000186,
      "v": 100
    },
    {
      "midi": 54,
      "hit": false,
      "t": 217804.48600000096,
      "d": 1.0162583333440125,
      "v": 60
    },
    {
      "midi": 81,
      "hit": false,
      "t": 217804.486000001,
      "d": 121.95100000000093,
      "v": 100
    },
    {
      "midi": 33,
      "hit": false,
      "t": 217804.48600000102,
      "d": 243.90200000000186,
      "v": 100
    },
    {
      "midi": 46,
      "hit": false,
      "t": 217804.48600000204,
      "d": 1.0162583333440125,
      "v": 100
    },
    {
      "midi": 69,
      "hit": false,
      "t": 217804.48600001476,
      "d": 60.975500000000466,
      "v": 100
    },
    {
      "midi": 64,
      "hit": false,
      "t": 217804.48600001476,
      "d": 60.975500000000466,
      "v": 100
    },
    {
      "midi": 61,
      "hit": false,
      "t": 217804.48600001476,
      "d": 60.975500000000466,
      "v": 100
    },
    {
      "midi": 54,
      "hit": false,
      "t": 217926.43700000097,
      "d": 1.0162583333440125,
      "v": 60
    },
    {
      "midi": 81,
      "hit": false,
      "t": 217926.437000001,
      "d": 121.95100000000093,
      "v": 100
    },
    {
      "midi": 69,
      "hit": false,
      "t": 217926.43700000126,
      "d": 121.95100000000093,
      "v": 100
    },
    {
      "midi": 64,
      "hit": false,
      "t": 217926.43700000126,
      "d": 121.95100000000093,
      "v": 100
    },
    {
      "midi": 61,
      "hit": false,
      "t": 217926.43700000126,
      "d": 121.95100000000093,
      "v": 100
    },
    {
      "midi": 44,
      "hit": false,
      "t": 217926.43700000204,
      "d": 1.0162583333440125,
      "v": 100
    },
    {
      "midi": 69,
      "hit": false,
      "t": 217926.43700001476,
      "d": 60.975500000000466,
      "v": 100
    },
    {
      "midi": 64,
      "hit": false,
      "t": 217926.43700001476,
      "d": 60.975500000000466,
      "v": 100
    },
    {
      "midi": 61,
      "hit": false,
      "t": 217926.43700001476,
      "d": 60.975500000000466,
      "v": 100
    },
    {
      "midi": 85,
      "hit": false,
      "t": 218048.38800000097,
      "d": 243.90200000000186,
      "v": 100
    },
    {
      "midi": 81,
      "hit": false,
      "t": 218048.38800000097,
      "d": 243.90200000000186,
      "v": 100
    },
    {
      "midi": 76,
      "hit": false,
      "t": 218048.38800000097,
      "d": 243.90200000000186,
      "v": 100
    },
    {
      "midi": 54,
      "hit": false,
      "t": 218048.38800000097,
      "d": 1.0162583333440125,
      "v": 80
    },
    {
      "midi": 85,
      "hit": false,
      "t": 218048.388000001,
      "d": 243.90200000000186,
      "v": 100
    },
    {
      "midi": 83,
      "hit": false,
      "t": 218048.388000001,
      "d": 243.90200000000186,
      "v": 100
    },
    {
      "midi": 76,
      "hit": false,
      "t": 218048.388000001,
      "d": 121.95100000000093,
      "v": 100
    },
    {
      "midi": 33,
      "hit": false,
      "t": 218048.38800000102,
      "d": 243.90200000000186,
      "v": 100
    },
    {
      "midi": 33,
      "hit": false,
      "t": 218048.38800000204,
      "d": 1.0162583333440125,
      "v": 127
    },
    {
      "midi": 40,
      "hit": false,
      "t": 218048.38800000204,
      "d": 1.0162583333440125,
      "v": 100
    },
    {
      "midi": 46,
      "hit": false,
      "t": 218048.38800000204,
      "d": 1.0162583333440125,
      "v": 100
    },
    {
      "midi": 69,
      "hit": false,
      "t": 218048.38800001476,
      "d": 243.90199999985634,
      "v": 100
    },
    {
      "midi": 64,
      "hit": false,
      "t": 218048.38800001476,
      "d": 243.90199999985634,
      "v": 100
    },
    {
      "midi": 61,
      "hit": false,
      "t": 218048.38800001476,
      "d": 243.90199999985634,
      "v": 100
    },
    {
      "midi": 54,
      "hit": false,
      "t": 218170.33900000097,
      "d": 1.0162583333440125,
      "v": 60
    },
    {
      "midi": 76,
      "hit": false,
      "t": 218170.339000001,
      "d": 121.95100000000093,
      "v": 100
    },
    {
      "midi": 44,
      "hit": false,
      "t": 218170.33900000204,
      "d": 1.0162583333440125,
      "v": 100
    },
    {
      "midi": 85,
      "hit": false,
      "t": 218292.29000000097,
      "d": 243.90200000000186,
      "v": 100
    },
    {
      "midi": 81,
      "hit": false,
      "t": 218292.29000000097,
      "d": 243.90200000000186,
      "v": 100
    },
    {
      "midi": 76,
      "hit": false,
      "t": 218292.29000000097,
      "d": 243.90200000000186,
      "v": 100
    },
    {
      "midi": 54,
      "hit": false,
      "t": 218292.29000000097,
      "d": 1.0162583333440125,
      "v": 60
    },
    {
      "midi": 88,
      "hit": false,
      "t": 218292.290000001,
      "d": 243.90200000000186,
      "v": 100
    },
    {
      "midi": 85,
      "hit": false,
      "t": 218292.290000001,
      "d": 243.90200000000186,
      "v": 100
    },
    {
      "midi": 73,
      "hit": false,
      "t": 218292.290000001,
      "d": 121.95100000000093,
      "v": 100
    },
    {
      "midi": 33,
      "hit": false,
      "t": 218292.29000000103,
      "d": 243.90200000000186,
      "v": 100
    },
    {
      "midi": 40,
      "hit": false,
      "t": 218292.29000000205,
      "d": 1.0162583333440125,
      "v": 40
    },
    {
      "midi": 46,
      "hit": false,
      "t": 218292.29000000205,
      "d": 1.0162583333440125,
      "v": 100
    },
    {
      "midi": 69,
      "hit": false,
      "t": 218292.29000001462,
      "d": 60.975500000000466,
      "v": 100
    },
    {
      "midi": 64,
      "hit": false,
      "t": 218292.29000001462,
      "d": 60.975500000000466,
      "v": 100
    },
    {
      "midi": 61,
      "hit": false,
      "t": 218292.29000001462,
      "d": 60.975500000000466,
      "v": 100
    },
    {
      "midi": 54,
      "hit": false,
      "t": 218414.24100000097,
      "d": 1.0162583333440125,
      "v": 60
    },
    {
      "midi": 73,
      "hit": false,
      "t": 218414.241000001,
      "d": 121.95100000000093,
      "v": 100
    },
    {
      "midi": 40,
      "hit": false,
      "t": 218414.24100000205,
      "d": 1.0162583333440125,
      "v": 100
    },
    {
      "midi": 44,
      "hit": false,
      "t": 218414.24100000205,
      "d": 1.0162583333440125,
      "v": 100
    },
    {
      "midi": 69,
      "hit": false,
      "t": 218414.24100001462,
      "d": 60.975500000000466,
      "v": 100
    },
    {
      "midi": 64,
      "hit": false,
      "t": 218414.24100001462,
      "d": 60.975500000000466,
      "v": 100
    },
    {
      "midi": 61,
      "hit": false,
      "t": 218414.24100001462,
      "d": 60.975500000000466,
      "v": 100
    },
    {
      "midi": 87,
      "hit": false,
      "t": 218536.19200000097,
      "d": 243.90200000000186,
      "v": 100
    },
    {
      "midi": 83,
      "hit": false,
      "t": 218536.19200000097,
      "d": 243.90200000000186,
      "v": 100
    },
    {
      "midi": 78,
      "hit": false,
      "t": 218536.19200000097,
      "d": 243.90200000000186,
      "v": 100
    },
    {
      "midi": 54,
      "hit": false,
      "t": 218536.19200000097,
      "d": 1.0162583333440125,
      "v": 80
    },
    {
      "midi": 87,
      "hit": false,
      "t": 218536.192000001,
      "d": 243.90200000000186,
      "v": 100
    },
    {
      "midi": 83,
      "hit": false,
      "t": 218536.192000001,
      "d": 243.90200000000186,
      "v": 100
    },
    {
      "midi": 71,
      "hit": false,
      "t": 218536.192000001,
      "d": 121.95100000000093,
      "v": 100
    },
    {
      "midi": 35,
      "hit": false,
      "t": 218536.19200000103,
      "d": 243.90200000000186,
      "v": 100
    },
    {
      "midi": 33,
      "hit": false,
      "t": 218536.19200000205,
      "d": 1.0162583333440125,
      "v": 127
    },
    {
      "midi": 42,
      "hit": false,
      "t": 218536.19200000205,
      "d": 1.0162583333440125,
      "v": 100
    },
    {
      "midi": 47,
      "hit": false,
      "t": 218536.19200000443,
      "d": 975.6080000000075,
      "v": 100
    },
    {
      "midi": 54,
      "hit": false,
      "t": 218536.19200000443,
      "d": 975.6080000000075,
      "v": 100
    },
    {
      "midi": 71,
      "hit": false,
      "t": 218536.19200001462,
      "d": 487.8040000000037,
      "v": 100
    },
    {
      "midi": 66,
      "hit": false,
      "t": 218536.19200001462,
      "d": 487.8040000000037,
      "v": 100
    },
    {
      "midi": 63,
      "hit": false,
      "t": 218536.19200001462,
      "d": 487.8040000000037,
      "v": 100
    },
    {
      "midi": 54,
      "hit": false,
      "t": 218658.14300000097,
      "d": 1.0162583333440125,
      "v": 60
    },
    {
      "midi": 71,
      "hit": false,
      "t": 218658.143000001,
      "d": 121.95100000000093,
      "v": 100
    },
    {
      "midi": 71,
      "hit": false,
      "t": 218658.14300000126,
      "d": 121.95100000000093,
      "v": 100
    },
    {
      "midi": 66,
      "hit": false,
      "t": 218658.14300000126,
      "d": 121.95100000000093,
      "v": 100
    },
    {
      "midi": 63,
      "hit": false,
      "t": 218658.14300000126,
      "d": 121.95100000000093,
      "v": 100
    },
    {
      "midi": 54,
      "hit": false,
      "t": 218780.09400000097,
      "d": 1.0162583333440125,
      "v": 60
    },
    {
      "midi": 83,
      "hit": false,
      "t": 218780.094000001,
      "d": 121.95100000000093,
      "v": 100
    },
    {
      "midi": 80,
      "hit": false,
      "t": 218780.094000001,
      "d": 121.95100000000093,
      "v": 100
    },
    {
      "midi": 75,
      "hit": false,
      "t": 218780.094000001,
      "d": 121.95100000000093,
      "v": 100
    },
    {
      "midi": 35,
      "hit": false,
      "t": 218780.09400000103,
      "d": 243.90200000000186,
      "v": 100
    },
    {
      "midi": 71,
      "hit": false,
      "t": 218780.09400000126,
      "d": 121.95100000000093,
      "v": 100
    },
    {
      "midi": 66,
      "hit": false,
      "t": 218780.09400000126,
      "d": 121.95100000000093,
      "v": 100
    },
    {
      "midi": 63,
      "hit": false,
      "t": 218780.09400000126,
      "d": 121.95100000000093,
      "v": 100
    },
    {
      "midi": 46,
      "hit": false,
      "t": 218780.09400000205,
      "d": 1.0162583333440125,
      "v": 100
    },
    {
      "midi": 54,
      "hit": false,
      "t": 218902.04500000097,
      "d": 1.0162583333440125,
      "v": 60
    },
    {
      "midi": 75,
      "hit": false,
      "t": 218902.045000001,
      "d": 121.95100000000093,
      "v": 100
    },
    {
      "midi": 44,
      "hit": false,
      "t": 218902.04500000205,
      "d": 1.0162583333440125,
      "v": 100
    },
    {
      "midi": 83,
      "hit": false,
      "t": 219023.99600000097,
      "d": 243.90200000000186,
      "v": 100
    },
    {
      "midi": 78,
      "hit": false,
      "t": 219023.99600000097,
      "d": 243.90200000000186,
      "v": 100
    },
    {
      "midi": 54,
      "hit": false,
      "t": 219023.99600000097,
      "d": 1.0162583333440125,
      "v": 80
    },
    {
      "midi": 83,
      "hit": false,
      "t": 219023.996000001,
      "d": 243.90200000000186,
      "v": 100
    },
    {
      "midi": 80,
      "hit": false,
      "t": 219023.996000001,
      "d": 243.90200000000186,
      "v": 100
    },
    {
      "midi": 71,
      "hit": false,
      "t": 219023.996000001,
      "d": 121.95100000000093,
      "v": 100
    },
    {
      "midi": 35,
      "hit": false,
      "t": 219023.99600000103,
      "d": 243.90200000000186,
      "v": 100
    },
    {
      "midi": 71,
      "hit": false,
      "t": 219023.99600000127,
      "d": 121.95100000000093,
      "v": 100
    },
    {
      "midi": 66,
      "hit": false,
      "t": 219023.99600000127,
      "d": 121.95100000000093,
      "v": 100
    },
    {
      "midi": 63,
      "hit": false,
      "t": 219023.99600000127,
      "d": 121.95100000000093,
      "v": 100
    },
    {
      "midi": 33,
      "hit": false,
      "t": 219023.99600000205,
      "d": 1.0162583333440125,
      "v": 127
    },
    {
      "midi": 40,
      "hit": false,
      "t": 219023.99600000205,
      "d": 1.0162583333440125,
      "v": 100
    },
    {
      "midi": 46,
      "hit": false,
      "t": 219023.99600000205,
      "d": 1.0162583333440125,
      "v": 100
    },
    {
      "midi": 71,
      "hit": false,
      "t": 219023.99600001462,
      "d": 60.97549999988405,
      "v": 100
    },
    {
      "midi": 66,
      "hit": false,
      "t": 219023.99600001462,
      "d": 60.97549999988405,
      "v": 100
    },
    {
      "midi": 63,
      "hit": false,
      "t": 219023.99600001462,
      "d": 60.97549999988405,
      "v": 100
    },
    {
      "midi": 54,
      "hit": false,
      "t": 219145.94700000098,
      "d": 1.0162583333440125,
      "v": 60
    },
    {
      "midi": 71,
      "hit": false,
      "t": 219145.947000001,
      "d": 121.95100000000093,
      "v": 100
    },
    {
      "midi": 44,
      "hit": false,
      "t": 219145.94700000205,
      "d": 1.0162583333440125,
      "v": 100
    },
    {
      "midi": 71,
      "hit": false,
      "t": 219145.9470000145,
      "d": 60.975500000000466,
      "v": 100
    },
    {
      "midi": 66,
      "hit": false,
      "t": 219145.9470000145,
      "d": 60.975500000000466,
      "v": 100
    },
    {
      "midi": 63,
      "hit": false,
      "t": 219145.9470000145,
      "d": 60.975500000000466,
      "v": 100
    },
    {
      "midi": 78,
      "hit": false,
      "t": 219267.89800000098,
      "d": 40.65033333332394,
      "v": 100
    },
    {
      "midi": 83,
      "hit": false,
      "t": 219267.89800000098,
      "d": 40.65033333332394,
      "v": 100
    },
    {
      "midi": 54,
      "hit": false,
      "t": 219267.89800000098,
      "d": 1.0162583333440125,
      "v": 60
    },
    {
      "midi": 80,
      "hit": false,
      "t": 219267.898000001,
      "d": 121.95100000000093,
      "v": 100
    },
    {
      "midi": 76,
      "hit": false,
      "t": 219267.898000001,
      "d": 121.95100000000093,
      "v": 100
    },
    {
      "midi": 80,
      "hit": false,
      "t": 219267.898000001,
      "d": 121.95100000000093,
      "v": 100
    },
    {
      "midi": 35,
      "hit": false,
      "t": 219267.89800000103,
      "d": 71.13808333332418,
      "v": 100
    },
    {
      "midi": 71,
      "hit": false,
      "t": 219267.89800000127,
      "d": 121.95100000000093,
      "v": 100
    },
    {
      "midi": 66,
      "hit": false,
      "t": 219267.89800000127,
      "d": 121.95100000000093,
      "v": 100
    },
    {
      "midi": 63,
      "hit": false,
      "t": 219267.89800000127,
      "d": 121.95100000000093,
      "v": 100
    },
    {
      "midi": 46,
      "hit": false,
      "t": 219267.89800000205,
      "d": 1.0162583333440125,
      "v": 100
    },
    {
      "midi": 71,
      "hit": false,
      "t": 219267.89800001442,
      "d": 60.975500000000466,
      "v": 100
    },
    {
      "midi": 66,
      "hit": false,
      "t": 219267.89800001442,
      "d": 60.975500000000466,
      "v": 100
    },
    {
      "midi": 63,
      "hit": false,
      "t": 219267.89800001442,
      "d": 60.975500000000466,
      "v": 100
    },
    {
      "midi": 83,
      "hit": false,
      "t": 219389.84900000098,
      "d": 243.90200000000186,
      "v": 100
    },
    {
      "midi": 78,
      "hit": false,
      "t": 219389.84900000098,
      "d": 243.90200000000186,
      "v": 100
    },
    {
      "midi": 75,
      "hit": false,
      "t": 219389.84900000098,
      "d": 325.20266666667885,
      "v": 100
    },
    {
      "midi": 54,
      "hit": false,
      "t": 219389.84900000098,
      "d": 1.0162583333440125,
      "v": 60
    },
    {
      "midi": 83,
      "hit": false,
      "t": 219389.849000001,
      "d": 487.8040000000037,
      "v": 100
    },
    {
      "midi": 80,
      "hit": false,
      "t": 219389.849000001,
      "d": 487.8040000000037,
      "v": 100
    },
    {
      "midi": 80,
      "hit": false,
      "t": 219389.849000001,
      "d": 121.95100000000093,
      "v": 100
    },
    {
      "midi": 32,
      "hit": false,
      "t": 219389.84900000104,
      "d": 243.90200000000186,
      "v": 100
    },
    {
      "midi": 44,
      "hit": false,
      "t": 219389.84900000205,
      "d": 1.0162583333440125,
      "v": 100
    },
    {
      "midi": 71,
      "hit": false,
      "t": 219389.84900001442,
      "d": 60.975500000000466,
      "v": 100
    },
    {
      "midi": 66,
      "hit": false,
      "t": 219389.84900001442,
      "d": 60.975500000000466,
      "v": 100
    },
    {
      "midi": 63,
      "hit": false,
      "t": 219389.84900001442,
      "d": 60.975500000000466,
      "v": 100
    },
    {
      "midi": 54,
      "hit": false,
      "t": 219511.80000000098,
      "d": 1.0162583333440125,
      "v": 80
    },
    {
      "midi": 80,
      "hit": false,
      "t": 219511.800000001,
      "d": 121.95100000000093,
      "v": 100
    },
    {
      "midi": 68,
      "hit": false,
      "t": 219511.80000000127,
      "d": 121.95100000000093,
      "v": 100
    },
    {
      "midi": 64,
      "hit": false,
      "t": 219511.80000000127,
      "d": 121.95100000000093,
      "v": 100
    },
    {
      "midi": 59,
      "hit": false,
      "t": 219511.80000000127,
      "d": 121.95100000000093,
      "v": 100
    },
    {
      "midi": 33,
      "hit": false,
      "t": 219511.80000000205,
      "d": 1.0162583333440125,
      "v": 127
    },
    {
      "midi": 42,
      "hit": false,
      "t": 219511.80000000205,
      "d": 1.0162583333440125,
      "v": 100
    },
    {
      "midi": 51,
      "hit": false,
      "t": 219511.80000000444,
      "d": 975.6080000000075,
      "v": 100
    },
    {
      "midi": 44,
      "hit": false,
      "t": 219511.80000000444,
      "d": 975.6080000000075,
      "v": 100
    },
    {
      "midi": 68,
      "hit": false,
      "t": 219511.80000001442,
      "d": 60.97549999988405,
      "v": 100
    },
    {
      "midi": 63,
      "hit": false,
      "t": 219511.80000001442,
      "d": 60.97549999988405,
      "v": 100
    },
    {
      "midi": 59,
      "hit": false,
      "t": 219511.80000001442,
      "d": 60.97549999988405,
      "v": 100
    },
    {
      "midi": 54,
      "hit": false,
      "t": 219633.75100000098,
      "d": 1.0162583333440125,
      "v": 60
    },
    {
      "midi": 80,
      "hit": false,
      "t": 219633.751000001,
      "d": 121.95100000000093,
      "v": 100
    },
    {
      "midi": 32,
      "hit": false,
      "t": 219633.75100000104,
      "d": 121.95100000000093,
      "v": 100
    },
    {
      "midi": 68,
      "hit": false,
      "t": 219633.75100000127,
      "d": 121.95100000000093,
      "v": 100
    },
    {
      "midi": 64,
      "hit": false,
      "t": 219633.75100000127,
      "d": 121.95100000000093,
      "v": 100
    },
    {
      "midi": 59,
      "hit": false,
      "t": 219633.75100000127,
      "d": 121.95100000000093,
      "v": 100
    },
    {
      "midi": 68,
      "hit": false,
      "t": 219633.7510000143,
      "d": 60.975500000000466,
      "v": 100
    },
    {
      "midi": 63,
      "hit": false,
      "t": 219633.7510000143,
      "d": 60.975500000000466,
      "v": 100
    },
    {
      "midi": 59,
      "hit": false,
      "t": 219633.7510000143,
      "d": 60.975500000000466,
      "v": 100
    },
    {
      "midi": 75,
      "hit": false,
      "t": 219755.70200000098,
      "d": 243.90200000000186,
      "v": 100
    },
    {
      "midi": 83,
      "hit": false,
      "t": 219755.70200000098,
      "d": 243.90200000000186,
      "v": 100
    },
    {
      "midi": 78,
      "hit": false,
      "t": 219755.70200000098,
      "d": 243.90200000000186,
      "v": 100
    },
    {
      "midi": 54,
      "hit": false,
      "t": 219755.70200000098,
      "d": 1.0162583333440125,
      "v": 60
    },
    {
      "midi": 80,
      "hit": false,
      "t": 219755.702000001,
      "d": 121.95100000000093,
      "v": 100
    },
    {
      "midi": 32,
      "hit": false,
      "t": 219755.70200000104,
      "d": 243.90200000000186,
      "v": 100
    },
    {
      "midi": 46,
      "hit": false,
      "t": 219755.70200000206,
      "d": 1.0162583333440125,
      "v": 100
    },
    {
      "midi": 68,
      "hit": false,
      "t": 219755.70200001422,
      "d": 60.975500000000466,
      "v": 100
    },
    {
      "midi": 63,
      "hit": false,
      "t": 219755.70200001422,
      "d": 60.975500000000466,
      "v": 100
    },
    {
      "midi": 59,
      "hit": false,
      "t": 219755.70200001422,
      "d": 60.975500000000466,
      "v": 100
    },
    {
      "midi": 54,
      "hit": false,
      "t": 219877.65300000098,
      "d": 1.0162583333440125,
      "v": 60
    },
    {
      "midi": 80,
      "hit": false,
      "t": 219877.653000001,
      "d": 121.95100000000093,
      "v": 100
    },
    {
      "midi": 68,
      "hit": false,
      "t": 219877.65300000127,
      "d": 121.95100000000093,
      "v": 100
    },
    {
      "midi": 64,
      "hit": false,
      "t": 219877.65300000127,
      "d": 121.95100000000093,
      "v": 100
    },
    {
      "midi": 59,
      "hit": false,
      "t": 219877.65300000127,
      "d": 121.95100000000093,
      "v": 100
    },
    {
      "midi": 44,
      "hit": false,
      "t": 219877.65300000206,
      "d": 1.0162583333440125,
      "v": 100
    },
    {
      "midi": 68,
      "hit": false,
      "t": 219877.65300001422,
      "d": 60.975500000000466,
      "v": 100
    },
    {
      "midi": 63,
      "hit": false,
      "t": 219877.65300001422,
      "d": 60.975500000000466,
      "v": 100
    },
    {
      "midi": 59,
      "hit": false,
      "t": 219877.65300001422,
      "d": 60.975500000000466,
      "v": 100
    },
    {
      "midi": 75,
      "hit": false,
      "t": 219999.60400000098,
      "d": 243.90200000000186,
      "v": 100
    },
    {
      "midi": 80,
      "hit": false,
      "t": 219999.60400000098,
      "d": 243.90200000000186,
      "v": 100
    },
    {
      "midi": 78,
      "hit": false,
      "t": 219999.60400000098,
      "d": 243.90200000000186,
      "v": 100
    },
    {
      "midi": 54,
      "hit": false,
      "t": 219999.60400000098,
      "d": 1.0162583333440125,
      "v": 80
    },
    {
      "midi": 81,
      "hit": false,
      "t": 219999.604000001,
      "d": 243.90200000000186,
      "v": 100
    },
    {
      "midi": 78,
      "hit": false,
      "t": 219999.604000001,
      "d": 243.90200000000186,
      "v": 100
    },
    {
      "midi": 75,
      "hit": false,
      "t": 219999.604000001,
      "d": 121.95100000000093,
      "v": 100
    },
    {
      "midi": 30,
      "hit": false,
      "t": 219999.60400000104,
      "d": 243.90200000000186,
      "v": 100
    },
    {
      "midi": 33,
      "hit": false,
      "t": 219999.60400000206,
      "d": 1.0162583333440125,
      "v": 127
    },
    {
      "midi": 40,
      "hit": false,
      "t": 219999.60400000206,
      "d": 1.0162583333440125,
      "v": 100
    },
    {
      "midi": 46,
      "hit": false,
      "t": 219999.60400000206,
      "d": 1.0162583333440125,
      "v": 100
    },
    {
      "midi": 68,
      "hit": false,
      "t": 219999.60400001422,
      "d": 243.90199999985634,
      "v": 100
    },
    {
      "midi": 63,
      "hit": false,
      "t": 219999.60400001422,
      "d": 243.90199999985634,
      "v": 100
    },
    {
      "midi": 59,
      "hit": false,
      "t": 219999.60400001422,
      "d": 243.90199999985634,
      "v": 100
    },
    {
      "midi": 54,
      "hit": false,
      "t": 220121.55500000098,
      "d": 1.0162583333440125,
      "v": 60
    },
    {
      "midi": 75,
      "hit": false,
      "t": 220121.555000001,
      "d": 121.95100000000093,
      "v": 100
    },
    {
      "midi": 44,
      "hit": false,
      "t": 220121.55500000206,
      "d": 1.0162583333440125,
      "v": 100
    },
    {
      "midi": 75,
      "hit": false,
      "t": 220243.50600000098,
      "d": 243.90200000000186,
      "v": 100
    },
    {
      "midi": 83,
      "hit": false,
      "t": 220243.50600000098,
      "d": 243.90200000000186,
      "v": 100
    },
    {
      "midi": 78,
      "hit": false,
      "t": 220243.50600000098,
      "d": 243.90200000000186,
      "v": 100
    },
    {
      "midi": 54,
      "hit": false,
      "t": 220243.50600000098,
      "d": 1.0162583333440125,
      "v": 60
    },
    {
      "midi": 83,
      "hit": false,
      "t": 220243.506000001,
      "d": 243.90200000000186,
      "v": 100
    },
    {
      "midi": 80,
      "hit": false,
      "t": 220243.506000001,
      "d": 243.90200000000186,
      "v": 100
    },
    {
      "midi": 80,
      "hit": false,
      "t": 220243.506000001,
      "d": 121.95100000000093,
      "v": 100
    },
    {
      "midi": 32,
      "hit": false,
      "t": 220243.50600000104,
      "d": 243.90200000000186,
      "v": 100
    },
    {
      "midi": 40,
      "hit": false,
      "t": 220243.50600000206,
      "d": 1.0162583333440125,
      "v": 40
    },
    {
      "midi": 46,
      "hit": false,
      "t": 220243.50600000206,
      "d": 1.0162583333440125,
      "v": 100
    },
    {
      "midi": 68,
      "hit": false,
      "t": 220243.50600001408,
      "d": 60.975500000000466,
      "v": 100
    },
    {
      "midi": 63,
      "hit": false,
      "t": 220243.50600001408,
      "d": 60.975500000000466,
      "v": 100
    },
    {
      "midi": 59,
      "hit": false,
      "t": 220243.50600001408,
      "d": 60.975500000000466,
      "v": 100
    },
    {
      "midi": 54,
      "hit": false,
      "t": 220365.45700000098,
      "d": 1.0162583333440125,
      "v": 60
    },
    {
      "midi": 80,
      "hit": false,
      "t": 220365.457000001,
      "d": 121.95100000000093,
      "v": 100
    },
    {
      "midi": 40,
      "hit": false,
      "t": 220365.45700000206,
      "d": 1.0162583333440125,
      "v": 100
    },
    {
      "midi": 44,
      "hit": false,
      "t": 220365.45700000206,
      "d": 1.0162583333440125,
      "v": 100
    },
    {
      "midi": 68,
      "hit": false,
      "t": 220365.45700001408,
      "d": 60.975500000000466,
      "v": 100
    },
    {
      "midi": 63,
      "hit": false,
      "t": 220365.45700001408,
      "d": 60.975500000000466,
      "v": 100
    },
    {
      "midi": 59,
      "hit": false,
      "t": 220365.45700001408,
      "d": 60.975500000000466,
      "v": 100
    },
    {
      "midi": 81,
      "hit": false,
      "t": 220487.40800000099,
      "d": 243.90200000000186,
      "v": 100
    },
    {
      "midi": 76,
      "hit": false,
      "t": 220487.40800000099,
      "d": 243.90200000000186,
      "v": 100
    },
    {
      "midi": 73,
      "hit": false,
      "t": 220487.40800000099,
      "d": 243.90200000000186,
      "v": 100
    },
    {
      "midi": 54,
      "hit": false,
      "t": 220487.40800000099,
      "d": 1.0162583333440125,
      "v": 80
    },
    {
      "midi": 81,
      "hit": false,
      "t": 220487.408000001,
      "d": 243.90200000000186,
      "v": 100
    },
    {
      "midi": 76,
      "hit": false,
      "t": 220487.408000001,
      "d": 243.90200000000186,
      "v": 100
    },
    {
      "midi": 73,
      "hit": false,
      "t": 220487.408000001,
      "d": 121.95100000000093,
      "v": 100
    },
    {
      "midi": 33,
      "hit": false,
      "t": 220487.40800000104,
      "d": 243.90200000000186,
      "v": 100
    },
    {
      "midi": 33,
      "hit": false,
      "t": 220487.40800000206,
      "d": 1.0162583333440125,
      "v": 127
    },
    {
      "midi": 42,
      "hit": false,
      "t": 220487.40800000206,
      "d": 1.0162583333440125,
      "v": 100
    },
    {
      "midi": 45,
      "hit": false,
      "t": 220487.40800000445,
      "d": 975.6080000000075,
      "v": 100
    },
    {
      "midi": 52,
      "hit": false,
      "t": 220487.40800000445,
      "d": 975.6080000000075,
      "v": 100
    },
    {
      "midi": 69,
      "hit": false,
      "t": 220487.40800001408,
      "d": 487.8040000000037,
      "v": 100
    },
    {
      "midi": 64,
      "hit": false,
      "t": 220487.40800001408,
      "d": 487.8040000000037,
      "v": 100
    },
    {
      "midi": 61,
      "hit": false,
      "t": 220487.40800001408,
      "d": 487.8040000000037,
      "v": 100
    },
    {
      "midi": 54,
      "hit": false,
      "t": 220609.359000001,
      "d": 1.0162583333440125,
      "v": 60
    },
    {
      "midi": 73,
      "hit": false,
      "t": 220609.35900000102,
      "d": 121.95100000000093,
      "v": 100
    },
    {
      "midi": 69,
      "hit": false,
      "t": 220609.35900000128,
      "d": 121.95100000000093,
      "v": 100
    },
    {
      "midi": 64,
      "hit": false,
      "t": 220609.35900000128,
      "d": 121.95100000000093,
      "v": 100
    },
    {
      "midi": 61,
      "hit": false,
      "t": 220609.35900000128,
      "d": 121.95100000000093,
      "v": 100
    },
    {
      "midi": 54,
      "hit": false,
      "t": 220731.310000001,
      "d": 1.0162583333440125,
      "v": 60
    },
    {
      "midi": 69,
      "hit": false,
      "t": 220731.31000000102,
      "d": 121.95100000000093,
      "v": 100
    },
    {
      "midi": 33,
      "hit": false,
      "t": 220731.31000000105,
      "d": 243.90200000000186,
      "v": 100
    },
    {
      "midi": 69,
      "hit": false,
      "t": 220731.31000000128,
      "d": 121.95100000000093,
      "v": 100
    },
    {
      "midi": 64,
      "hit": false,
      "t": 220731.31000000128,
      "d": 121.95100000000093,
      "v": 100
    },
    {
      "midi": 61,
      "hit": false,
      "t": 220731.31000000128,
      "d": 121.95100000000093,
      "v": 100
    },
    {
      "midi": 46,
      "hit": false,
      "t": 220731.31000000206,
      "d": 1.0162583333440125,
      "v": 100
    },
    {
      "midi": 54,
      "hit": false,
      "t": 220853.261000001,
      "d": 1.0162583333440125,
      "v": 60
    },
    {
      "midi": 69,
      "hit": false,
      "t": 220853.26100000102,
      "d": 121.95100000000093,
      "v": 100
    },
    {
      "midi": 44,
      "hit": false,
      "t": 220853.26100000206,
      "d": 1.0162583333440125,
      "v": 100
    },
    {
      "midi": 81,
      "hit": false,
      "t": 220975.212000001,
      "d": 243.90200000000186,
      "v": 100
    },
    {
      "midi": 76,
      "hit": false,
      "t": 220975.212000001,
      "d": 243.90200000000186,
      "v": 100
    },
    {
      "midi": 73,
      "hit": false,
      "t": 220975.212000001,
      "d": 243.90200000000186,
      "v": 100
    },
    {
      "midi": 54,
      "hit": false,
      "t": 220975.212000001,
      "d": 1.0162583333440125,
      "v": 80
    },
    {
      "midi": 81,
      "hit": false,
      "t": 220975.21200000102,
      "d": 243.90200000000186,
      "v": 100
    },
    {
      "midi": 76,
      "hit": false,
      "t": 220975.21200000102,
      "d": 243.90200000000186,
      "v": 100
    },
    {
      "midi": 73,
      "hit": false,
      "t": 220975.21200000102,
      "d": 121.95100000000093,
      "v": 100
    },
    {
      "midi": 33,
      "hit": false,
      "t": 220975.21200000105,
      "d": 243.90200000000186,
      "v": 100
    },
    {
      "midi": 69,
      "hit": false,
      "t": 220975.21200000128,
      "d": 121.95100000000093,
      "v": 100
    },
    {
      "midi": 64,
      "hit": false,
      "t": 220975.21200000128,
      "d": 121.95100000000093,
      "v": 100
    },
    {
      "midi": 61,
      "hit": false,
      "t": 220975.21200000128,
      "d": 121.95100000000093,
      "v": 100
    },
    {
      "midi": 33,
      "hit": false,
      "t": 220975.21200000207,
      "d": 1.0162583333440125,
      "v": 127
    },
    {
      "midi": 40,
      "hit": false,
      "t": 220975.21200000207,
      "d": 1.0162583333440125,
      "v": 100
    },
    {
      "midi": 46,
      "hit": false,
      "t": 220975.21200000207,
      "d": 1.0162583333440125,
      "v": 100
    },
    {
      "midi": 69,
      "hit": false,
      "t": 220975.2120000141,
      "d": 60.97549999988405,
      "v": 100
    },
    {
      "midi": 64,
      "hit": false,
      "t": 220975.2120000141,
      "d": 60.97549999988405,
      "v": 100
    },
    {
      "midi": 61,
      "hit": false,
      "t": 220975.2120000141,
      "d": 60.97549999988405,
      "v": 100
    },
    {
      "midi": 54,
      "hit": false,
      "t": 221097.163000001,
      "d": 1.0162583333440125,
      "v": 60
    },
    {
      "midi": 73,
      "hit": false,
      "t": 221097.16300000102,
      "d": 121.95100000000093,
      "v": 100
    },
    {
      "midi": 44,
      "hit": false,
      "t": 221097.16300000207,
      "d": 1.0162583333440125,
      "v": 100
    },
    {
      "midi": 69,
      "hit": false,
      "t": 221097.16300001397,
      "d": 60.975500000000466,
      "v": 100
    },
    {
      "midi": 64,
      "hit": false,
      "t": 221097.16300001397,
      "d": 60.975500000000466,
      "v": 100
    },
    {
      "midi": 61,
      "hit": false,
      "t": 221097.16300001397,
      "d": 60.975500000000466,
      "v": 100
    },
    {
      "midi": 54,
      "hit": false,
      "t": 221219.114000001,
      "d": 1.0162583333440125,
      "v": 60
    },
    {
      "midi": 83,
      "hit": false,
      "t": 221219.11400000102,
      "d": 121.95100000000093,
      "v": 100
    },
    {
      "midi": 78,
      "hit": false,
      "t": 221219.11400000102,
      "d": 121.95100000000093,
      "v": 100
    },
    {
      "midi": 78,
      "hit": false,
      "t": 221219.11400000102,
      "d": 121.95100000000093,
      "v": 100
    },
    {
      "midi": 33,
      "hit": false,
      "t": 221219.11400000105,
      "d": 71.13808333332418,
      "v": 100
    },
    {
      "midi": 69,
      "hit": false,
      "t": 221219.11400000128,
      "d": 121.95100000000093,
      "v": 100
    },
    {
      "midi": 64,
      "hit": false,
      "t": 221219.11400000128,
      "d": 121.95100000000093,
      "v": 100
    },
    {
      "midi": 61,
      "hit": false,
      "t": 221219.11400000128,
      "d": 121.95100000000093,
      "v": 100
    },
    {
      "midi": 46,
      "hit": false,
      "t": 221219.11400000207,
      "d": 1.0162583333440125,
      "v": 100
    },
    {
      "midi": 69,
      "hit": false,
      "t": 221219.11400001388,
      "d": 60.975500000000466,
      "v": 100
    },
    {
      "midi": 64,
      "hit": false,
      "t": 221219.11400001388,
      "d": 60.975500000000466,
      "v": 100
    },
    {
      "midi": 61,
      "hit": false,
      "t": 221219.11400001388,
      "d": 60.975500000000466,
      "v": 100
    },
    {
      "midi": 78,
      "hit": false,
      "t": 221341.065000001,
      "d": 365.8530000000028,
      "v": 100
    },
    {
      "midi": 76,
      "hit": false,
      "t": 221341.065000001,
      "d": 365.8530000000028,
      "v": 100
    },
    {
      "midi": 73,
      "hit": false,
      "t": 221341.065000001,
      "d": 365.8530000000028,
      "v": 100
    },
    {
      "midi": 54,
      "hit": false,
      "t": 221341.065000001,
      "d": 1.0162583333440125,
      "v": 60
    },
    {
      "midi": 78,
      "hit": false,
      "t": 221341.06500000102,
      "d": 487.8040000000037,
      "v": 100
    },
    {
      "midi": 73,
      "hit": false,
      "t": 221341.06500000102,
      "d": 487.8040000000037,
      "v": 100
    },
    {
      "midi": 78,
      "hit": false,
      "t": 221341.06500000102,
      "d": 121.95100000000093,
      "v": 100
    },
    {
      "midi": 30,
      "hit": false,
      "t": 221341.06500000105,
      "d": 243.90200000000186,
      "v": 100
    },
    {
      "midi": 44,
      "hit": false,
      "t": 221341.06500000207,
      "d": 1.0162583333440125,
      "v": 100
    },
    {
      "midi": 69,
      "hit": false,
      "t": 221341.06500001388,
      "d": 60.975500000000466,
      "v": 100
    },
    {
      "midi": 64,
      "hit": false,
      "t": 221341.06500001388,
      "d": 60.975500000000466,
      "v": 100
    },
    {
      "midi": 61,
      "hit": false,
      "t": 221341.06500001388,
      "d": 60.975500000000466,
      "v": 100
    },
    {
      "midi": 54,
      "hit": false,
      "t": 221463.016000001,
      "d": 1.0162583333440125,
      "v": 80
    },
    {
      "midi": 78,
      "hit": false,
      "t": 221463.01600000102,
      "d": 121.95100000000093,
      "v": 100
    },
    {
      "midi": 69,
      "hit": false,
      "t": 221463.01600000128,
      "d": 121.95100000000093,
      "v": 100
    },
    {
      "midi": 64,
      "hit": false,
      "t": 221463.01600000128,
      "d": 121.95100000000093,
      "v": 100
    },
    {
      "midi": 61,
      "hit": false,
      "t": 221463.01600000128,
      "d": 121.95100000000093,
      "v": 100
    },
    {
      "midi": 33,
      "hit": false,
      "t": 221463.01600000207,
      "d": 1.0162583333440125,
      "v": 127
    },
    {
      "midi": 42,
      "hit": false,
      "t": 221463.01600000207,
      "d": 1.0162583333440125,
      "v": 100
    },
    {
      "midi": 49,
      "hit": false,
      "t": 221463.01600000446,
      "d": 975.6080000000075,
      "v": 100
    },
    {
      "midi": 42,
      "hit": false,
      "t": 221463.01600000446,
      "d": 975.6080000000075,
      "v": 100
    },
    {
      "midi": 69,
      "hit": false,
      "t": 221463.0160000139,
      "d": 60.97549999988405,
      "v": 100
    },
    {
      "midi": 64,
      "hit": false,
      "t": 221463.0160000139,
      "d": 60.97549999988405,
      "v": 100
    },
    {
      "midi": 61,
      "hit": false,
      "t": 221463.0160000139,
      "d": 60.97549999988405,
      "v": 100
    },
    {
      "midi": 54,
      "hit": false,
      "t": 221584.967000001,
      "d": 1.0162583333440125,
      "v": 60
    },
    {
      "midi": 78,
      "hit": false,
      "t": 221584.96700000102,
      "d": 121.95100000000093,
      "v": 100
    },
    {
      "midi": 30,
      "hit": false,
      "t": 221584.96700000105,
      "d": 121.95100000000093,
      "v": 100
    },
    {
      "midi": 69,
      "hit": false,
      "t": 221584.96700000128,
      "d": 121.95100000000093,
      "v": 100
    },
    {
      "midi": 64,
      "hit": false,
      "t": 221584.96700000128,
      "d": 121.95100000000093,
      "v": 100
    },
    {
      "midi": 61,
      "hit": false,
      "t": 221584.96700000128,
      "d": 121.95100000000093,
      "v": 100
    },
    {
      "midi": 69,
      "hit": false,
      "t": 221584.96700001377,
      "d": 60.975500000000466,
      "v": 100
    },
    {
      "midi": 64,
      "hit": false,
      "t": 221584.96700001377,
      "d": 60.975500000000466,
      "v": 100
    },
    {
      "midi": 61,
      "hit": false,
      "t": 221584.96700001377,
      "d": 60.975500000000466,
      "v": 100
    },
    {
      "midi": 78,
      "hit": false,
      "t": 221706.918000001,
      "d": 243.90200000000186,
      "v": 100
    },
    {
      "midi": 76,
      "hit": false,
      "t": 221706.918000001,
      "d": 243.90200000000186,
      "v": 100
    },
    {
      "midi": 73,
      "hit": false,
      "t": 221706.918000001,
      "d": 243.90200000000186,
      "v": 100
    },
    {
      "midi": 54,
      "hit": false,
      "t": 221706.918000001,
      "d": 1.0162583333440125,
      "v": 60
    },
    {
      "midi": 78,
      "hit": false,
      "t": 221706.91800000102,
      "d": 121.95100000000093,
      "v": 100
    },
    {
      "midi": 30,
      "hit": false,
      "t": 221706.91800000105,
      "d": 243.90200000000186,
      "v": 100
    },
    {
      "midi": 46,
      "hit": false,
      "t": 221706.91800000207,
      "d": 1.0162583333440125,
      "v": 100
    },
    {
      "midi": 69,
      "hit": false,
      "t": 221706.91800001368,
      "d": 60.975500000000466,
      "v": 100
    },
    {
      "midi": 64,
      "hit": false,
      "t": 221706.91800001368,
      "d": 60.975500000000466,
      "v": 100
    },
    {
      "midi": 61,
      "hit": false,
      "t": 221706.91800001368,
      "d": 60.975500000000466,
      "v": 100
    },
    {
      "midi": 54,
      "hit": false,
      "t": 221828.869000001,
      "d": 1.0162583333440125,
      "v": 60
    },
    {
      "midi": 78,
      "hit": false,
      "t": 221828.86900000102,
      "d": 121.95100000000093,
      "v": 100
    },
    {
      "midi": 69,
      "hit": false,
      "t": 221828.8690000013,
      "d": 121.95100000000093,
      "v": 100
    },
    {
      "midi": 64,
      "hit": false,
      "t": 221828.8690000013,
      "d": 121.95100000000093,
      "v": 100
    },
    {
      "midi": 61,
      "hit": false,
      "t": 221828.8690000013,
      "d": 121.95100000000093,
      "v": 100
    },
    {
      "midi": 44,
      "hit": false,
      "t": 221828.86900000207,
      "d": 1.0162583333440125,
      "v": 100
    },
    {
      "midi": 69,
      "hit": false,
      "t": 221828.86900001368,
      "d": 60.975500000000466,
      "v": 100
    },
    {
      "midi": 64,
      "hit": false,
      "t": 221828.86900001368,
      "d": 60.975500000000466,
      "v": 100
    },
    {
      "midi": 61,
      "hit": false,
      "t": 221828.86900001368,
      "d": 60.975500000000466,
      "v": 100
    },
    {
      "midi": 76,
      "hit": false,
      "t": 221950.820000001,
      "d": 243.90200000000186,
      "v": 100
    },
    {
      "midi": 73,
      "hit": false,
      "t": 221950.820000001,
      "d": 243.90200000000186,
      "v": 100
    },
    {
      "midi": 69,
      "hit": false,
      "t": 221950.820000001,
      "d": 243.90200000000186,
      "v": 100
    },
    {
      "midi": 54,
      "hit": false,
      "t": 221950.820000001,
      "d": 1.0162583333440125,
      "v": 80
    },
    {
      "midi": 76,
      "hit": false,
      "t": 221950.82000000103,
      "d": 243.90200000000186,
      "v": 100
    },
    {
      "midi": 71,
      "hit": false,
      "t": 221950.82000000103,
      "d": 243.90200000000186,
      "v": 100
    },
    {
      "midi": 73,
      "hit": false,
      "t": 221950.82000000103,
      "d": 121.95100000000093,
      "v": 100
    },
    {
      "midi": 27,
      "hit": false,
      "t": 221950.82000000105,
      "d": 243.90200000000186,
      "v": 100
    },
    {
      "midi": 33,
      "hit": false,
      "t": 221950.82000000207,
      "d": 1.0162583333440125,
      "v": 127
    },
    {
      "midi": 40,
      "hit": false,
      "t": 221950.82000000207,
      "d": 1.0162583333440125,
      "v": 100
    },
    {
      "midi": 46,
      "hit": false,
      "t": 221950.82000000207,
      "d": 1.0162583333440125,
      "v": 100
    },
    {
      "midi": 69,
      "hit": false,
      "t": 221950.8200000137,
      "d": 243.90199999985634,
      "v": 100
    },
    {
      "midi": 64,
      "hit": false,
      "t": 221950.8200000137,
      "d": 243.90199999985634,
      "v": 100
    },
    {
      "midi": 61,
      "hit": false,
      "t": 221950.8200000137,
      "d": 243.90199999985634,
      "v": 100
    },
    {
      "midi": 54,
      "hit": false,
      "t": 222072.771000001,
      "d": 1.0162583333440125,
      "v": 60
    },
    {
      "midi": 73,
      "hit": false,
      "t": 222072.77100000103,
      "d": 121.95100000000093,
      "v": 100
    },
    {
      "midi": 44,
      "hit": false,
      "t": 222072.77100000207,
      "d": 1.0162583333440125,
      "v": 100
    },
    {
      "midi": 78,
      "hit": false,
      "t": 222194.722000001,
      "d": 243.90200000000186,
      "v": 100
    },
    {
      "midi": 76,
      "hit": false,
      "t": 222194.722000001,
      "d": 243.90200000000186,
      "v": 100
    },
    {
      "midi": 73,
      "hit": false,
      "t": 222194.722000001,
      "d": 243.90200000000186,
      "v": 100
    },
    {
      "midi": 54,
      "hit": false,
      "t": 222194.722000001,
      "d": 1.0162583333440125,
      "v": 60
    },
    {
      "midi": 78,
      "hit": false,
      "t": 222194.72200000103,
      "d": 243.90200000000186,
      "v": 100
    },
    {
      "midi": 73,
      "hit": false,
      "t": 222194.72200000103,
      "d": 243.90200000000186,
      "v": 100
    },
    {
      "midi": 78,
      "hit": false,
      "t": 222194.72200000103,
      "d": 121.95100000000093,
      "v": 100
    },
    {
      "midi": 30,
      "hit": false,
      "t": 222194.72200000106,
      "d": 243.90200000000186,
      "v": 100
    },
    {
      "midi": 40,
      "hit": false,
      "t": 222194.72200000208,
      "d": 1.0162583333440125,
      "v": 40
    },
    {
      "midi": 46,
      "hit": false,
      "t": 222194.72200000208,
      "d": 1.0162583333440125,
      "v": 100
    },
    {
      "midi": 69,
      "hit": false,
      "t": 222194.72200001354,
      "d": 60.975500000000466,
      "v": 100
    },
    {
      "midi": 64,
      "hit": false,
      "t": 222194.72200001354,
      "d": 60.975500000000466,
      "v": 100
    },
    {
      "midi": 61,
      "hit": false,
      "t": 222194.72200001354,
      "d": 60.975500000000466,
      "v": 100
    },
    {
      "midi": 54,
      "hit": false,
      "t": 222316.673000001,
      "d": 1.0162583333440125,
      "v": 60
    },
    {
      "midi": 78,
      "hit": false,
      "t": 222316.67300000103,
      "d": 121.95100000000093,
      "v": 100
    },
    {
      "midi": 40,
      "hit": false,
      "t": 222316.67300000208,
      "d": 1.0162583333440125,
      "v": 100
    },
    {
      "midi": 44,
      "hit": false,
      "t": 222316.67300000208,
      "d": 1.0162583333440125,
      "v": 100
    },
    {
      "midi": 69,
      "hit": false,
      "t": 222316.67300001354,
      "d": 60.975500000000466,
      "v": 100
    },
    {
      "midi": 64,
      "hit": false,
      "t": 222316.67300001354,
      "d": 60.975500000000466,
      "v": 100
    },
    {
      "midi": 61,
      "hit": false,
      "t": 222316.67300001354,
      "d": 60.975500000000466,
      "v": 100
    },
    {
      "midi": 80,
      "hit": false,
      "t": 222438.624000001,
      "d": 243.90200000000186,
      "v": 100
    },
    {
      "midi": 75,
      "hit": false,
      "t": 222438.624000001,
      "d": 243.90200000000186,
      "v": 100
    },
    {
      "midi": 71,
      "hit": false,
      "t": 222438.624000001,
      "d": 243.90200000000186,
      "v": 100
    },
    {
      "midi": 54,
      "hit": false,
      "t": 222438.624000001,
      "d": 1.0162583333440125,
      "v": 80
    },
    {
      "midi": 80,
      "hit": false,
      "t": 222438.62400000103,
      "d": 243.90200000000186,
      "v": 100
    },
    {
      "midi": 75,
      "hit": false,
      "t": 222438.62400000103,
      "d": 243.90200000000186,
      "v": 100
    },
    {
      "midi": 68,
      "hit": false,
      "t": 222438.62400000103,
      "d": 121.95100000000093,
      "v": 100
    },
    {
      "midi": 32,
      "hit": false,
      "t": 222438.62400000106,
      "d": 243.90200000000186,
      "v": 100
    },
    {
      "midi": 33,
      "hit": false,
      "t": 222438.62400000208,
      "d": 1.0162583333440125,
      "v": 127
    },
    {
      "midi": 42,
      "hit": false,
      "t": 222438.62400000208,
      "d": 1.0162583333440125,
      "v": 100
    },
    {
      "midi": 51,
      "hit": false,
      "t": 222438.62400000446,
      "d": 975.6080000000075,
      "v": 100
    },
    {
      "midi": 44,
      "hit": false,
      "t": 222438.62400000446,
      "d": 975.6080000000075,
      "v": 100
    },
    {
      "midi": 68,
      "hit": false,
      "t": 222438.62400001354,
      "d": 487.8040000000037,
      "v": 100
    },
    {
      "midi": 63,
      "hit": false,
      "t": 222438.62400001354,
      "d": 487.8040000000037,
      "v": 100
    },
    {
      "midi": 59,
      "hit": false,
      "t": 222438.62400001354,
      "d": 487.8040000000037,
      "v": 100
    },
    {
      "midi": 54,
      "hit": false,
      "t": 222560.575000001,
      "d": 1.0162583333440125,
      "v": 60
    },
    {
      "midi": 68,
      "hit": false,
      "t": 222560.57500000103,
      "d": 121.95100000000093,
      "v": 100
    },
    {
      "midi": 68,
      "hit": false,
      "t": 222560.5750000013,
      "d": 121.95100000000093,
      "v": 100
    },
    {
      "midi": 63,
      "hit": false,
      "t": 222560.5750000013,
      "d": 121.95100000000093,
      "v": 100
    },
    {
      "midi": 59,
      "hit": false,
      "t": 222560.5750000013,
      "d": 121.95100000000093,
      "v": 100
    },
    {
      "midi": 54,
      "hit": false,
      "t": 222682.526000001,
      "d": 1.0162583333440125,
      "v": 60
    },
    {
      "midi": 71,
      "hit": false,
      "t": 222682.52600000103,
      "d": 121.95100000000093,
      "v": 100
    },
    {
      "midi": 32,
      "hit": false,
      "t": 222682.52600000106,
      "d": 243.90200000000186,
      "v": 100
    },
    {
      "midi": 68,
      "hit": false,
      "t": 222682.5260000013,
      "d": 121.95100000000093,
      "v": 100
    },
    {
      "midi": 63,
      "hit": false,
      "t": 222682.5260000013,
      "d": 121.95100000000093,
      "v": 100
    },
    {
      "midi": 59,
      "hit": false,
      "t": 222682.5260000013,
      "d": 121.95100000000093,
      "v": 100
    },
    {
      "midi": 46,
      "hit": false,
      "t": 222682.52600000208,
      "d": 1.0162583333440125,
      "v": 100
    },
    {
      "midi": 54,
      "hit": false,
      "t": 222804.477000001,
      "d": 1.0162583333440125,
      "v": 60
    },
    {
      "midi": 71,
      "hit": false,
      "t": 222804.47700000103,
      "d": 121.95100000000093,
      "v": 100
    },
    {
      "midi": 44,
      "hit": false,
      "t": 222804.47700000208,
      "d": 1.0162583333440125,
      "v": 100
    },
    {
      "midi": 80,
      "hit": false,
      "t": 222926.428000001,
      "d": 243.90200000000186,
      "v": 100
    },
    {
      "midi": 75,
      "hit": false,
      "t": 222926.428000001,
      "d": 243.90200000000186,
      "v": 100
    },
    {
      "midi": 83,
      "hit": false,
      "t": 222926.428000001,
      "d": 243.90200000000186,
      "v": 100
    },
    {
      "midi": 54,
      "hit": false,
      "t": 222926.428000001,
      "d": 1.0162583333440125,
      "v": 80
    },
    {
      "midi": 87,
      "hit": false,
      "t": 222926.42800000103,
      "d": 487.8040000000037,
      "v": 100
    },
    {
      "midi": 80,
      "hit": false,
      "t": 222926.42800000103,
      "d": 487.8040000000037,
      "v": 100
    },
    {
      "midi": 75,
      "hit": false,
      "t": 222926.42800000103,
      "d": 121.95100000000093,
      "v": 100
    },
    {
      "midi": 32,
      "hit": false,
      "t": 222926.42800000106,
      "d": 243.90200000000186,
      "v": 100
    },
    {
      "midi": 68,
      "hit": false,
      "t": 222926.4280000013,
      "d": 121.95100000000093,
      "v": 100
    },
    {
      "midi": 63,
      "hit": false,
      "t": 222926.4280000013,
      "d": 121.95100000000093,
      "v": 100
    },
    {
      "midi": 59,
      "hit": false,
      "t": 222926.4280000013,
      "d": 121.95100000000093,
      "v": 100
    },
    {
      "midi": 33,
      "hit": false,
      "t": 222926.42800000208,
      "d": 1.0162583333440125,
      "v": 127
    },
    {
      "midi": 40,
      "hit": false,
      "t": 222926.42800000208,
      "d": 1.0162583333440125,
      "v": 100
    },
    {
      "midi": 46,
      "hit": false,
      "t": 222926.42800000208,
      "d": 1.0162583333440125,
      "v": 100
    },
    {
      "midi": 68,
      "hit": false,
      "t": 222926.42800001355,
      "d": 60.97549999988405,
      "v": 100
    },
    {
      "midi": 63,
      "hit": false,
      "t": 222926.42800001355,
      "d": 60.97549999988405,
      "v": 100
    },
    {
      "midi": 59,
      "hit": false,
      "t": 222926.42800001355,
      "d": 60.97549999988405,
      "v": 100
    },
    {
      "midi": 54,
      "hit": false,
      "t": 223048.379000001,
      "d": 1.0162583333440125,
      "v": 60
    },
    {
      "midi": 75,
      "hit": false,
      "t": 223048.37900000103,
      "d": 121.95100000000093,
      "v": 100
    },
    {
      "midi": 44,
      "hit": false,
      "t": 223048.37900000208,
      "d": 1.0162583333440125,
      "v": 100
    },
    {
      "midi": 68,
      "hit": false,
      "t": 223048.37900001343,
      "d": 60.975500000000466,
      "v": 100
    },
    {
      "midi": 63,
      "hit": false,
      "t": 223048.37900001343,
      "d": 60.975500000000466,
      "v": 100
    },
    {
      "midi": 59,
      "hit": false,
      "t": 223048.37900001343,
      "d": 60.975500000000466,
      "v": 100
    },
    {
      "midi": 54,
      "hit": false,
      "t": 223170.330000001,
      "d": 1.0162583333440125,
      "v": 60
    },
    {
      "midi": 80,
      "hit": false,
      "t": 223170.33000000103,
      "d": 121.95100000000093,
      "v": 100
    },
    {
      "midi": 32,
      "hit": false,
      "t": 223170.33000000106,
      "d": 71.13808333332418,
      "v": 100
    },
    {
      "midi": 68,
      "hit": false,
      "t": 223170.3300000013,
      "d": 121.95100000000093,
      "v": 100
    },
    {
      "midi": 63,
      "hit": false,
      "t": 223170.3300000013,
      "d": 121.95100000000093,
      "v": 100
    },
    {
      "midi": 59,
      "hit": false,
      "t": 223170.3300000013,
      "d": 121.95100000000093,
      "v": 100
    },
    {
      "midi": 46,
      "hit": false,
      "t": 223170.33000000208,
      "d": 1.0162583333440125,
      "v": 100
    },
    {
      "midi": 68,
      "hit": false,
      "t": 223170.33000001335,
      "d": 60.975500000000466,
      "v": 100
    },
    {
      "midi": 63,
      "hit": false,
      "t": 223170.33000001335,
      "d": 60.975500000000466,
      "v": 100
    },
    {
      "midi": 59,
      "hit": false,
      "t": 223170.33000001335,
      "d": 60.975500000000466,
      "v": 100
    },
    {
      "midi": 83,
      "hit": false,
      "t": 223292.281000001,
      "d": 365.8530000000028,
      "v": 100
    },
    {
      "midi": 80,
      "hit": false,
      "t": 223292.281000001,
      "d": 365.8530000000028,
      "v": 100
    },
    {
      "midi": 75,
      "hit": false,
      "t": 223292.281000001,
      "d": 365.8530000000028,
      "v": 100
    },
    {
      "midi": 54,
      "hit": false,
      "t": 223292.281000001,
      "d": 1.0162583333440125,
      "v": 60
    },
    {
      "midi": 80,
      "hit": false,
      "t": 223292.28100000104,
      "d": 121.95100000000093,
      "v": 100
    },
    {
      "midi": 35,
      "hit": false,
      "t": 223292.28100000106,
      "d": 243.90200000000186,
      "v": 100
    },
    {
      "midi": 44,
      "hit": false,
      "t": 223292.28100000208,
      "d": 1.0162583333440125,
      "v": 100
    },
    {
      "midi": 68,
      "hit": false,
      "t": 223292.28100001335,
      "d": 60.975500000000466,
      "v": 100
    },
    {
      "midi": 63,
      "hit": false,
      "t": 223292.28100001335,
      "d": 60.975500000000466,
      "v": 100
    },
    {
      "midi": 59,
      "hit": false,
      "t": 223292.28100001335,
      "d": 60.975500000000466,
      "v": 100
    },
    {
      "midi": 54,
      "hit": false,
      "t": 223414.232000001,
      "d": 1.0162583333440125,
      "v": 80
    },
    {
      "midi": 83,
      "hit": false,
      "t": 223414.23200000104,
      "d": 365.8530000000028,
      "v": 100
    },
    {
      "midi": 75,
      "hit": false,
      "t": 223414.23200000104,
      "d": 365.8530000000028,
      "v": 100
    },
    {
      "midi": 83,
      "hit": false,
      "t": 223414.23200000104,
      "d": 121.95100000000093,
      "v": 100
    },
    {
      "midi": 71,
      "hit": false,
      "t": 223414.2320000013,
      "d": 121.95100000000093,
      "v": 100
    },
    {
      "midi": 66,
      "hit": false,
      "t": 223414.2320000013,
      "d": 121.95100000000093,
      "v": 100
    },
    {
      "midi": 63,
      "hit": false,
      "t": 223414.2320000013,
      "d": 121.95100000000093,
      "v": 100
    },
    {
      "midi": 33,
      "hit": false,
      "t": 223414.23200000208,
      "d": 1.0162583333440125,
      "v": 127
    },
    {
      "midi": 42,
      "hit": false,
      "t": 223414.23200000208,
      "d": 1.0162583333440125,
      "v": 100
    },
    {
      "midi": 47,
      "hit": false,
      "t": 223414.23200000447,
      "d": 975.6080000000075,
      "v": 100
    },
    {
      "midi": 54,
      "hit": false,
      "t": 223414.23200000447,
      "d": 975.6080000000075,
      "v": 100
    },
    {
      "midi": 71,
      "hit": false,
      "t": 223414.23200001335,
      "d": 60.97549999988405,
      "v": 100
    },
    {
      "midi": 66,
      "hit": false,
      "t": 223414.23200001335,
      "d": 60.97549999988405,
      "v": 100
    },
    {
      "midi": 63,
      "hit": false,
      "t": 223414.23200001335,
      "d": 60.97549999988405,
      "v": 100
    },
    {
      "midi": 54,
      "hit": false,
      "t": 223536.183000001,
      "d": 1.0162583333440125,
      "v": 60
    },
    {
      "midi": 83,
      "hit": false,
      "t": 223536.18300000104,
      "d": 121.95100000000093,
      "v": 100
    },
    {
      "midi": 35,
      "hit": false,
      "t": 223536.18300000107,
      "d": 121.95100000000093,
      "v": 100
    },
    {
      "midi": 71,
      "hit": false,
      "t": 223536.1830000013,
      "d": 121.95100000000093,
      "v": 100
    },
    {
      "midi": 66,
      "hit": false,
      "t": 223536.1830000013,
      "d": 121.95100000000093,
      "v": 100
    },
    {
      "midi": 63,
      "hit": false,
      "t": 223536.1830000013,
      "d": 121.95100000000093,
      "v": 100
    },
    {
      "midi": 71,
      "hit": false,
      "t": 223536.18300001323,
      "d": 60.975500000000466,
      "v": 100
    },
    {
      "midi": 66,
      "hit": false,
      "t": 223536.18300001323,
      "d": 60.975500000000466,
      "v": 100
    },
    {
      "midi": 63,
      "hit": false,
      "t": 223536.18300001323,
      "d": 60.975500000000466,
      "v": 100
    },
    {
      "midi": 83,
      "hit": false,
      "t": 223658.134000001,
      "d": 243.90200000000186,
      "v": 100
    },
    {
      "midi": 80,
      "hit": false,
      "t": 223658.134000001,
      "d": 243.90200000000186,
      "v": 100
    },
    {
      "midi": 75,
      "hit": false,
      "t": 223658.134000001,
      "d": 243.90200000000186,
      "v": 100
    },
    {
      "midi": 54,
      "hit": false,
      "t": 223658.134000001,
      "d": 1.0162583333440125,
      "v": 60
    },
    {
      "midi": 80,
      "hit": false,
      "t": 223658.13400000104,
      "d": 121.95100000000093,
      "v": 100
    },
    {
      "midi": 35,
      "hit": false,
      "t": 223658.13400000107,
      "d": 243.90200000000186,
      "v": 100
    },
    {
      "midi": 46,
      "hit": false,
      "t": 223658.1340000021,
      "d": 1.0162583333440125,
      "v": 100
    },
    {
      "midi": 71,
      "hit": false,
      "t": 223658.13400001315,
      "d": 60.975500000000466,
      "v": 100
    },
    {
      "midi": 66,
      "hit": false,
      "t": 223658.13400001315,
      "d": 60.975500000000466,
      "v": 100
    },
    {
      "midi": 63,
      "hit": false,
      "t": 223658.13400001315,
      "d": 60.975500000000466,
      "v": 100
    },
    {
      "midi": 54,
      "hit": false,
      "t": 223780.085000001,
      "d": 1.0162583333440125,
      "v": 60
    },
    {
      "midi": 80,
      "hit": false,
      "t": 223780.08500000104,
      "d": 121.95100000000093,
      "v": 100
    },
    {
      "midi": 71,
      "hit": false,
      "t": 223780.0850000013,
      "d": 121.95100000000093,
      "v": 100
    },
    {
      "midi": 66,
      "hit": false,
      "t": 223780.0850000013,
      "d": 121.95100000000093,
      "v": 100
    },
    {
      "midi": 63,
      "hit": false,
      "t": 223780.0850000013,
      "d": 121.95100000000093,
      "v": 100
    },
    {
      "midi": 44,
      "hit": false,
      "t": 223780.0850000021,
      "d": 1.0162583333440125,
      "v": 100
    },
    {
      "midi": 71,
      "hit": false,
      "t": 223780.08500001315,
      "d": 60.975500000000466,
      "v": 100
    },
    {
      "midi": 66,
      "hit": false,
      "t": 223780.08500001315,
      "d": 60.975500000000466,
      "v": 100
    },
    {
      "midi": 63,
      "hit": false,
      "t": 223780.08500001315,
      "d": 60.975500000000466,
      "v": 100
    },
    {
      "midi": 80,
      "hit": false,
      "t": 223902.036000001,
      "d": 243.90200000000186,
      "v": 100
    },
    {
      "midi": 75,
      "hit": false,
      "t": 223902.036000001,
      "d": 243.90200000000186,
      "v": 100
    },
    {
      "midi": 71,
      "hit": false,
      "t": 223902.036000001,
      "d": 243.90200000000186,
      "v": 100
    },
    {
      "midi": 54,
      "hit": false,
      "t": 223902.036000001,
      "d": 1.0162583333440125,
      "v": 80
    },
    {
      "midi": 80,
      "hit": false,
      "t": 223902.03600000104,
      "d": 243.90200000000186,
      "v": 100
    },
    {
      "midi": 76,
      "hit": false,
      "t": 223902.03600000104,
      "d": 243.90200000000186,
      "v": 100
    },
    {
      "midi": 75,
      "hit": false,
      "t": 223902.03600000104,
      "d": 121.95100000000093,
      "v": 100
    },
    {
      "midi": 32,
      "hit": false,
      "t": 223902.03600000107,
      "d": 243.90200000000186,
      "v": 100
    },
    {
      "midi": 33,
      "hit": false,
      "t": 223902.0360000021,
      "d": 1.0162583333440125,
      "v": 127
    },
    {
      "midi": 40,
      "hit": false,
      "t": 223902.0360000021,
      "d": 1.0162583333440125,
      "v": 100
    },
    {
      "midi": 46,
      "hit": false,
      "t": 223902.0360000021,
      "d": 1.0162583333440125,
      "v": 100
    },
    {
      "midi": 57,
      "hit": false,
      "t": 223902.0360000021,
      "d": 1.0162583333440125,
      "v": 100
    },
    {
      "midi": 71,
      "hit": false,
      "t": 223902.03600001315,
      "d": 243.90199999985634,
      "v": 100
    },
    {
      "midi": 66,
      "hit": false,
      "t": 223902.03600001315,
      "d": 243.90199999985634,
      "v": 100
    },
    {
      "midi": 63,
      "hit": false,
      "t": 223902.03600001315,
      "d": 243.90199999985634,
      "v": 100
    },
    {
      "midi": 54,
      "hit": false,
      "t": 224023.987000001,
      "d": 1.0162583333440125,
      "v": 60
    },
    {
      "midi": 75,
      "hit": false,
      "t": 224023.98700000104,
      "d": 121.95100000000093,
      "v": 100
    },
    {
      "midi": 44,
      "hit": false,
      "t": 224023.9870000021,
      "d": 1.0162583333440125,
      "v": 100
    },
    {
      "midi": 83,
      "hit": false,
      "t": 224145.938000001,
      "d": 243.90200000000186,
      "v": 100
    },
    {
      "midi": 80,
      "hit": false,
      "t": 224145.938000001,
      "d": 243.90200000000186,
      "v": 100
    },
    {
      "midi": 75,
      "hit": false,
      "t": 224145.938000001,
      "d": 243.90200000000186,
      "v": 100
    },
    {
      "midi": 54,
      "hit": false,
      "t": 224145.938000001,
      "d": 1.0162583333440125,
      "v": 60
    },
    {
      "midi": 83,
      "hit": false,
      "t": 224145.93800000104,
      "d": 243.90200000000186,
      "v": 100
    },
    {
      "midi": 80,
      "hit": false,
      "t": 224145.93800000104,
      "d": 243.90200000000186,
      "v": 100
    },
    {
      "midi": 71,
      "hit": false,
      "t": 224145.93800000104,
      "d": 121.95100000000093,
      "v": 100
    },
    {
      "midi": 35,
      "hit": false,
      "t": 224145.93800000107,
      "d": 243.90200000000186,
      "v": 100
    },
    {
      "midi": 40,
      "hit": false,
      "t": 224145.9380000021,
      "d": 1.0162583333440125,
      "v": 40
    },
    {
      "midi": 46,
      "hit": false,
      "t": 224145.9380000021,
      "d": 1.0162583333440125,
      "v": 100
    },
    {
      "midi": 71,
      "hit": false,
      "t": 224145.938000013,
      "d": 60.975500000000466,
      "v": 100
    },
    {
      "midi": 66,
      "hit": false,
      "t": 224145.938000013,
      "d": 60.975500000000466,
      "v": 100
    },
    {
      "midi": 63,
      "hit": false,
      "t": 224145.938000013,
      "d": 60.975500000000466,
      "v": 100
    },
    {
      "midi": 54,
      "hit": false,
      "t": 224267.889000001,
      "d": 1.0162583333440125,
      "v": 60
    },
    {
      "midi": 71,
      "hit": false,
      "t": 224267.88900000104,
      "d": 121.95100000000093,
      "v": 100
    },
    {
      "midi": 40,
      "hit": false,
      "t": 224267.8890000021,
      "d": 1.0162583333440125,
      "v": 100
    },
    {
      "midi": 44,
      "hit": false,
      "t": 224267.8890000021,
      "d": 1.0162583333440125,
      "v": 100
    },
    {
      "midi": 71,
      "hit": false,
      "t": 224267.889000013,
      "d": 60.975500000000466,
      "v": 100
    },
    {
      "midi": 66,
      "hit": false,
      "t": 224267.889000013,
      "d": 60.975500000000466,
      "v": 100
    },
    {
      "midi": 63,
      "hit": false,
      "t": 224267.889000013,
      "d": 60.975500000000466,
      "v": 100
    },
    {
      "midi": 85,
      "hit": false,
      "t": 224389.84000000102,
      "d": 243.90200000000186,
      "v": 100
    },
    {
      "midi": 80,
      "hit": false,
      "t": 224389.84000000102,
      "d": 243.90200000000186,
      "v": 100
    },
    {
      "midi": 76,
      "hit": false,
      "t": 224389.84000000102,
      "d": 243.90200000000186,
      "v": 100
    },
    {
      "midi": 54,
      "hit": false,
      "t": 224389.84000000102,
      "d": 1.0162583333440125,
      "v": 80
    },
    {
      "midi": 85,
      "hit": false,
      "t": 224389.84000000104,
      "d": 243.90200000000186,
      "v": 100
    },
    {
      "midi": 80,
      "hit": false,
      "t": 224389.84000000104,
      "d": 243.90200000000186,
      "v": 100
    },
    {
      "midi": 73,
      "hit": false,
      "t": 224389.84000000104,
      "d": 121.95100000000093,
      "v": 100
    },
    {
      "midi": 37,
      "hit": false,
      "t": 224389.84000000107,
      "d": 243.90200000000186,
      "v": 100
    },
    {
      "midi": 33,
      "hit": false,
      "t": 224389.8400000021,
      "d": 1.0162583333440125,
      "v": 127
    },
    {
      "midi": 42,
      "hit": false,
      "t": 224389.8400000021,
      "d": 1.0162583333440125,
      "v": 100
    },
    {
      "midi": 57,
      "hit": false,
      "t": 224389.8400000021,
      "d": 1.0162583333440125,
      "v": 100
    },
    {
      "midi": 49,
      "hit": false,
      "t": 224389.84000000448,
      "d": 975.6080000000075,
      "v": 100
    },
    {
      "midi": 56,
      "hit": false,
      "t": 224389.84000000448,
      "d": 975.6080000000075,
      "v": 100
    },
    {
      "midi": 73,
      "hit": false,
      "t": 224389.840000013,
      "d": 487.8040000000037,
      "v": 100
    },
    {
      "midi": 68,
      "hit": false,
      "t": 224389.840000013,
      "d": 487.8040000000037,
      "v": 100
    },
    {
      "midi": 64,
      "hit": false,
      "t": 224389.840000013,
      "d": 487.8040000000037,
      "v": 100
    },
    {
      "midi": 54,
      "hit": false,
      "t": 224511.79100000102,
      "d": 1.0162583333440125,
      "v": 60
    },
    {
      "midi": 73,
      "hit": false,
      "t": 224511.79100000105,
      "d": 121.95100000000093,
      "v": 100
    },
    {
      "midi": 73,
      "hit": false,
      "t": 224511.7910000013,
      "d": 121.95100000000093,
      "v": 100
    },
    {
      "midi": 68,
      "hit": false,
      "t": 224511.7910000013,
      "d": 121.95100000000093,
      "v": 100
    },
    {
      "midi": 64,
      "hit": false,
      "t": 224511.7910000013,
      "d": 121.95100000000093,
      "v": 100
    },
    {
      "midi": 54,
      "hit": false,
      "t": 224633.74200000102,
      "d": 1.0162583333440125,
      "v": 60
    },
    {
      "midi": 80,
      "hit": false,
      "t": 224633.74200000105,
      "d": 121.95100000000093,
      "v": 100
    },
    {
      "midi": 37,
      "hit": false,
      "t": 224633.74200000108,
      "d": 243.90200000000186,
      "v": 100
    },
    {
      "midi": 73,
      "hit": false,
      "t": 224633.7420000013,
      "d": 121.95100000000093,
      "v": 100
    },
    {
      "midi": 68,
      "hit": false,
      "t": 224633.7420000013,
      "d": 121.95100000000093,
      "v": 100
    },
    {
      "midi": 64,
      "hit": false,
      "t": 224633.7420000013,
      "d": 121.95100000000093,
      "v": 100
    },
    {
      "midi": 46,
      "hit": false,
      "t": 224633.7420000021,
      "d": 1.0162583333440125,
      "v": 100
    },
    {
      "midi": 54,
      "hit": false,
      "t": 224755.69300000102,
      "d": 1.0162583333440125,
      "v": 60
    },
    {
      "midi": 80,
      "hit": false,
      "t": 224755.69300000105,
      "d": 121.95100000000093,
      "v": 100
    },
    {
      "midi": 44,
      "hit": false,
      "t": 224755.6930000021,
      "d": 1.0162583333440125,
      "v": 100
    },
    {
      "midi": 85,
      "hit": false,
      "t": 224877.64400000102,
      "d": 243.90200000000186,
      "v": 100
    },
    {
      "midi": 80,
      "hit": false,
      "t": 224877.64400000102,
      "d": 243.90200000000186,
      "v": 100
    },
    {
      "midi": 76,
      "hit": false,
      "t": 224877.64400000102,
      "d": 243.90200000000186,
      "v": 100
    },
    {
      "midi": 54,
      "hit": false,
      "t": 224877.64400000102,
      "d": 1.0162583333440125,
      "v": 80
    },
    {
      "midi": 85,
      "hit": false,
      "t": 224877.64400000105,
      "d": 243.90200000000186,
      "v": 100
    },
    {
      "midi": 80,
      "hit": false,
      "t": 224877.64400000105,
      "d": 243.90200000000186,
      "v": 100
    },
    {
      "midi": 76,
      "hit": false,
      "t": 224877.64400000105,
      "d": 121.95100000000093,
      "v": 100
    },
    {
      "midi": 37,
      "hit": false,
      "t": 224877.64400000108,
      "d": 243.90200000000186,
      "v": 100
    },
    {
      "midi": 73,
      "hit": false,
      "t": 224877.6440000013,
      "d": 121.95100000000093,
      "v": 100
    },
    {
      "midi": 68,
      "hit": false,
      "t": 224877.6440000013,
      "d": 121.95100000000093,
      "v": 100
    },
    {
      "midi": 64,
      "hit": false,
      "t": 224877.6440000013,
      "d": 121.95100000000093,
      "v": 100
    },
    {
      "midi": 33,
      "hit": false,
      "t": 224877.6440000021,
      "d": 1.0162583333440125,
      "v": 127
    },
    {
      "midi": 40,
      "hit": false,
      "t": 224877.6440000021,
      "d": 1.0162583333440125,
      "v": 100
    },
    {
      "midi": 46,
      "hit": false,
      "t": 224877.6440000021,
      "d": 1.0162583333440125,
      "v": 100
    },
    {
      "midi": 73,
      "hit": false,
      "t": 224877.644000013,
      "d": 60.97549999988405,
      "v": 100
    },
    {
      "midi": 68,
      "hit": false,
      "t": 224877.644000013,
      "d": 60.97549999988405,
      "v": 100
    },
    {
      "midi": 64,
      "hit": false,
      "t": 224877.644000013,
      "d": 60.97549999988405,
      "v": 100
    },
    {
      "midi": 54,
      "hit": false,
      "t": 224999.59500000102,
      "d": 1.0162583333440125,
      "v": 60
    },
    {
      "midi": 76,
      "hit": false,
      "t": 224999.59500000105,
      "d": 121.95100000000093,
      "v": 100
    },
    {
      "midi": 44,
      "hit": false,
      "t": 224999.5950000021,
      "d": 1.0162583333440125,
      "v": 100
    },
    {
      "midi": 73,
      "hit": false,
      "t": 224999.5950000129,
      "d": 60.975500000000466,
      "v": 100
    },
    {
      "midi": 68,
      "hit": false,
      "t": 224999.5950000129,
      "d": 60.975500000000466,
      "v": 100
    },
    {
      "midi": 64,
      "hit": false,
      "t": 224999.5950000129,
      "d": 60.975500000000466,
      "v": 100
    },
    {
      "midi": 85,
      "hit": false,
      "t": 225121.54600000102,
      "d": 30.487750000000233,
      "v": 100
    },
    {
      "midi": 80,
      "hit": false,
      "t": 225121.54600000102,
      "d": 30.487750000000233,
      "v": 100
    },
    {
      "midi": 54,
      "hit": false,
      "t": 225121.54600000102,
      "d": 1.0162583333440125,
      "v": 60
    },
    {
      "midi": 88,
      "hit": false,
      "t": 225121.54600000105,
      "d": 121.95100000000093,
      "v": 100
    },
    {
      "midi": 83,
      "hit": false,
      "t": 225121.54600000105,
      "d": 121.95100000000093,
      "v": 100
    },
    {
      "midi": 83,
      "hit": false,
      "t": 225121.54600000105,
      "d": 121.95100000000093,
      "v": 100
    },
    {
      "midi": 37,
      "hit": false,
      "t": 225121.54600000108,
      "d": 71.13808333332418,
      "v": 100
    },
    {
      "midi": 73,
      "hit": false,
      "t": 225121.5460000013,
      "d": 121.95100000000093,
      "v": 100
    },
    {
      "midi": 68,
      "hit": false,
      "t": 225121.5460000013,
      "d": 121.95100000000093,
      "v": 100
    },
    {
      "midi": 64,
      "hit": false,
      "t": 225121.5460000013,
      "d": 121.95100000000093,
      "v": 100
    },
    {
      "midi": 46,
      "hit": false,
      "t": 225121.5460000021,
      "d": 1.0162583333440125,
      "v": 100
    },
    {
      "midi": 73,
      "hit": false,
      "t": 225121.5460000128,
      "d": 60.975500000000466,
      "v": 100
    },
    {
      "midi": 68,
      "hit": false,
      "t": 225121.5460000128,
      "d": 60.975500000000466,
      "v": 100
    },
    {
      "midi": 64,
      "hit": false,
      "t": 225121.5460000128,
      "d": 60.975500000000466,
      "v": 100
    },
    {
      "midi": 85,
      "hit": false,
      "t": 225243.49700000102,
      "d": 243.90200000000186,
      "v": 100
    },
    {
      "midi": 81,
      "hit": false,
      "t": 225243.49700000102,
      "d": 243.90200000000186,
      "v": 100
    },
    {
      "midi": 76,
      "hit": false,
      "t": 225243.49700000102,
      "d": 243.90200000000186,
      "v": 100
    },
    {
      "midi": 54,
      "hit": false,
      "t": 225243.49700000102,
      "d": 1.0162583333440125,
      "v": 60
    },
    {
      "midi": 85,
      "hit": false,
      "t": 225243.49700000105,
      "d": 365.8530000000028,
      "v": 100
    },
    {
      "midi": 81,
      "hit": false,
      "t": 225243.49700000105,
      "d": 365.8530000000028,
      "v": 100
    },
    {
      "midi": 83,
      "hit": false,
      "t": 225243.49700000105,
      "d": 121.95100000000093,
      "v": 100
    },
    {
      "midi": 33,
      "hit": false,
      "t": 225243.49700000108,
      "d": 243.90200000000186,
      "v": 100
    },
    {
      "midi": 44,
      "hit": false,
      "t": 225243.4970000021,
      "d": 1.0162583333440125,
      "v": 100
    },
    {
      "midi": 73,
      "hit": false,
      "t": 225243.4970000128,
      "d": 60.975500000000466,
      "v": 100
    },
    {
      "midi": 68,
      "hit": false,
      "t": 225243.4970000128,
      "d": 60.975500000000466,
      "v": 100
    },
    {
      "midi": 64,
      "hit": false,
      "t": 225243.4970000128,
      "d": 60.975500000000466,
      "v": 100
    },
    {
      "midi": 54,
      "hit": false,
      "t": 225365.44800000102,
      "d": 1.0162583333440125,
      "v": 80
    },
    {
      "midi": 85,
      "hit": false,
      "t": 225365.44800000105,
      "d": 121.95100000000093,
      "v": 100
    },
    {
      "midi": 69,
      "hit": false,
      "t": 225365.4480000013,
      "d": 121.95100000000093,
      "v": 100
    },
    {
      "midi": 64,
      "hit": false,
      "t": 225365.4480000013,
      "d": 121.95100000000093,
      "v": 100
    },
    {
      "midi": 61,
      "hit": false,
      "t": 225365.4480000013,
      "d": 121.95100000000093,
      "v": 100
    },
    {
      "midi": 33,
      "hit": false,
      "t": 225365.4480000021,
      "d": 1.0162583333440125,
      "v": 127
    },
    {
      "midi": 42,
      "hit": false,
      "t": 225365.4480000021,
      "d": 1.0162583333440125,
      "v": 100
    },
    {
      "midi": 45,
      "hit": false,
      "t": 225365.4480000045,
      "d": 975.6080000000075,
      "v": 100
    },
    {
      "midi": 52,
      "hit": false,
      "t": 225365.4480000045,
      "d": 975.6080000000075,
      "v": 100
    },
    {
      "midi": 69,
      "hit": false,
      "t": 225365.4480000128,
      "d": 60.97549999988405,
      "v": 100
    },
    {
      "midi": 64,
      "hit": false,
      "t": 225365.4480000128,
      "d": 60.97549999988405,
      "v": 100
    },
    {
      "midi": 61,
      "hit": false,
      "t": 225365.4480000128,
      "d": 60.97549999988405,
      "v": 100
    },
    {
      "midi": 85,
      "hit": false,
      "t": 225487.39900000102,
      "d": 121.95100000000093,
      "v": 100
    },
    {
      "midi": 81,
      "hit": false,
      "t": 225487.39900000102,
      "d": 121.95100000000093,
      "v": 100
    },
    {
      "midi": 76,
      "hit": false,
      "t": 225487.39900000102,
      "d": 121.95100000000093,
      "v": 100
    },
    {
      "midi": 54,
      "hit": false,
      "t": 225487.39900000102,
      "d": 1.0162583333440125,
      "v": 60
    },
    {
      "midi": 85,
      "hit": false,
      "t": 225487.39900000105,
      "d": 121.95100000000093,
      "v": 100
    },
    {
      "midi": 33,
      "hit": false,
      "t": 225487.39900000108,
      "d": 121.95100000000093,
      "v": 100
    },
    {
      "midi": 69,
      "hit": false,
      "t": 225487.39900000131,
      "d": 121.95100000000093,
      "v": 100
    },
    {
      "midi": 64,
      "hit": false,
      "t": 225487.39900000131,
      "d": 121.95100000000093,
      "v": 100
    },
    {
      "midi": 61,
      "hit": false,
      "t": 225487.39900000131,
      "d": 121.95100000000093,
      "v": 100
    },
    {
      "midi": 69,
      "hit": false,
      "t": 225487.3990000127,
      "d": 60.975500000000466,
      "v": 100
    },
    {
      "midi": 64,
      "hit": false,
      "t": 225487.3990000127,
      "d": 60.975500000000466,
      "v": 100
    },
    {
      "midi": 61,
      "hit": false,
      "t": 225487.3990000127,
      "d": 60.975500000000466,
      "v": 100
    },
    {
      "midi": 85,
      "hit": false,
      "t": 225609.35000000102,
      "d": 243.90200000000186,
      "v": 100
    },
    {
      "midi": 81,
      "hit": false,
      "t": 225609.35000000102,
      "d": 243.90200000000186,
      "v": 100
    },
    {
      "midi": 76,
      "hit": false,
      "t": 225609.35000000102,
      "d": 243.90200000000186,
      "v": 100
    },
    {
      "midi": 54,
      "hit": false,
      "t": 225609.35000000102,
      "d": 1.0162583333440125,
      "v": 60
    },
    {
      "midi": 81,
      "hit": false,
      "t": 225609.35000000105,
      "d": 121.95100000000093,
      "v": 100
    },
    {
      "midi": 33,
      "hit": false,
      "t": 225609.35000000108,
      "d": 243.90200000000186,
      "v": 100
    },
    {
      "midi": 46,
      "hit": false,
      "t": 225609.3500000021,
      "d": 1.0162583333440125,
      "v": 100
    },
    {
      "midi": 69,
      "hit": false,
      "t": 225609.3500000126,
      "d": 60.975500000000466,
      "v": 100
    },
    {
      "midi": 64,
      "hit": false,
      "t": 225609.3500000126,
      "d": 60.975500000000466,
      "v": 100
    },
    {
      "midi": 61,
      "hit": false,
      "t": 225609.3500000126,
      "d": 60.975500000000466,
      "v": 100
    },
    {
      "midi": 54,
      "hit": false,
      "t": 225731.30100000103,
      "d": 1.0162583333440125,
      "v": 60
    },
    {
      "midi": 81,
      "hit": false,
      "t": 225731.30100000105,
      "d": 121.95100000000093,
      "v": 100
    },
    {
      "midi": 69,
      "hit": false,
      "t": 225731.30100000132,
      "d": 121.95100000000093,
      "v": 100
    },
    {
      "midi": 64,
      "hit": false,
      "t": 225731.30100000132,
      "d": 121.95100000000093,
      "v": 100
    },
    {
      "midi": 61,
      "hit": false,
      "t": 225731.30100000132,
      "d": 121.95100000000093,
      "v": 100
    },
    {
      "midi": 44,
      "hit": false,
      "t": 225731.3010000021,
      "d": 1.0162583333440125,
      "v": 100
    },
    {
      "midi": 69,
      "hit": false,
      "t": 225731.3010000126,
      "d": 60.975500000000466,
      "v": 100
    },
    {
      "midi": 64,
      "hit": false,
      "t": 225731.3010000126,
      "d": 60.975500000000466,
      "v": 100
    },
    {
      "midi": 61,
      "hit": false,
      "t": 225731.3010000126,
      "d": 60.975500000000466,
      "v": 100
    },
    {
      "midi": 85,
      "hit": false,
      "t": 225853.25200000103,
      "d": 243.90200000000186,
      "v": 100
    },
    {
      "midi": 81,
      "hit": false,
      "t": 225853.25200000103,
      "d": 243.90200000000186,
      "v": 100
    },
    {
      "midi": 76,
      "hit": false,
      "t": 225853.25200000103,
      "d": 243.90200000000186,
      "v": 100
    },
    {
      "midi": 54,
      "hit": false,
      "t": 225853.25200000103,
      "d": 1.0162583333440125,
      "v": 80
    },
    {
      "midi": 85,
      "hit": false,
      "t": 225853.25200000106,
      "d": 243.90200000000186,
      "v": 100
    },
    {
      "midi": 83,
      "hit": false,
      "t": 225853.25200000106,
      "d": 243.90200000000186,
      "v": 100
    },
    {
      "midi": 76,
      "hit": false,
      "t": 225853.25200000106,
      "d": 121.95100000000093,
      "v": 100
    },
    {
      "midi": 33,
      "hit": false,
      "t": 225853.25200000108,
      "d": 243.90200000000186,
      "v": 100
    },
    {
      "midi": 33,
      "hit": false,
      "t": 225853.2520000021,
      "d": 1.0162583333440125,
      "v": 127
    },
    {
      "midi": 40,
      "hit": false,
      "t": 225853.2520000021,
      "d": 1.0162583333440125,
      "v": 100
    },
    {
      "midi": 46,
      "hit": false,
      "t": 225853.2520000021,
      "d": 1.0162583333440125,
      "v": 100
    },
    {
      "midi": 69,
      "hit": false,
      "t": 225853.2520000126,
      "d": 243.90199999985634,
      "v": 100
    },
    {
      "midi": 64,
      "hit": false,
      "t": 225853.2520000126,
      "d": 243.90199999985634,
      "v": 100
    },
    {
      "midi": 61,
      "hit": false,
      "t": 225853.2520000126,
      "d": 243.90199999985634,
      "v": 100
    },
    {
      "midi": 54,
      "hit": false,
      "t": 225975.20300000103,
      "d": 1.0162583333440125,
      "v": 60
    },
    {
      "midi": 76,
      "hit": false,
      "t": 225975.20300000106,
      "d": 121.95100000000093,
      "v": 100
    },
    {
      "midi": 44,
      "hit": false,
      "t": 225975.2030000021,
      "d": 1.0162583333440125,
      "v": 100
    },
    {
      "midi": 85,
      "hit": false,
      "t": 226097.15400000103,
      "d": 243.90200000000186,
      "v": 100
    },
    {
      "midi": 81,
      "hit": false,
      "t": 226097.15400000103,
      "d": 243.90200000000186,
      "v": 100
    },
    {
      "midi": 76,
      "hit": false,
      "t": 226097.15400000103,
      "d": 243.90200000000186,
      "v": 100
    },
    {
      "midi": 54,
      "hit": false,
      "t": 226097.15400000103,
      "d": 1.0162583333440125,
      "v": 60
    },
    {
      "midi": 88,
      "hit": false,
      "t": 226097.15400000106,
      "d": 243.90200000000186,
      "v": 100
    },
    {
      "midi": 85,
      "hit": false,
      "t": 226097.15400000106,
      "d": 243.90200000000186,
      "v": 100
    },
    {
      "midi": 73,
      "hit": false,
      "t": 226097.15400000106,
      "d": 121.95100000000093,
      "v": 100
    },
    {
      "midi": 33,
      "hit": false,
      "t": 226097.1540000011,
      "d": 243.90200000000186,
      "v": 100
    },
    {
      "midi": 40,
      "hit": false,
      "t": 226097.1540000021,
      "d": 1.0162583333440125,
      "v": 40
    },
    {
      "midi": 46,
      "hit": false,
      "t": 226097.1540000021,
      "d": 1.0162583333440125,
      "v": 100
    },
    {
      "midi": 69,
      "hit": false,
      "t": 226097.15400001247,
      "d": 60.975500000000466,
      "v": 100
    },
    {
      "midi": 64,
      "hit": false,
      "t": 226097.15400001247,
      "d": 60.975500000000466,
      "v": 100
    },
    {
      "midi": 61,
      "hit": false,
      "t": 226097.15400001247,
      "d": 60.975500000000466,
      "v": 100
    },
    {
      "midi": 54,
      "hit": false,
      "t": 226219.10500000103,
      "d": 1.0162583333440125,
      "v": 60
    },
    {
      "midi": 73,
      "hit": false,
      "t": 226219.10500000106,
      "d": 121.95100000000093,
      "v": 100
    },
    {
      "midi": 40,
      "hit": false,
      "t": 226219.1050000021,
      "d": 1.0162583333440125,
      "v": 100
    },
    {
      "midi": 44,
      "hit": false,
      "t": 226219.1050000021,
      "d": 1.0162583333440125,
      "v": 100
    },
    {
      "midi": 69,
      "hit": false,
      "t": 226219.10500001247,
      "d": 60.975500000000466,
      "v": 100
    },
    {
      "midi": 64,
      "hit": false,
      "t": 226219.10500001247,
      "d": 60.975500000000466,
      "v": 100
    },
    {
      "midi": 61,
      "hit": false,
      "t": 226219.10500001247,
      "d": 60.975500000000466,
      "v": 100
    },
    {
      "midi": 87,
      "hit": false,
      "t": 226341.05600000103,
      "d": 243.90200000000186,
      "v": 100
    },
    {
      "midi": 83,
      "hit": false,
      "t": 226341.05600000103,
      "d": 243.90200000000186,
      "v": 100
    },
    {
      "midi": 78,
      "hit": false,
      "t": 226341.05600000103,
      "d": 243.90200000000186,
      "v": 100
    },
    {
      "midi": 54,
      "hit": false,
      "t": 226341.05600000103,
      "d": 1.0162583333440125,
      "v": 80
    },
    {
      "midi": 87,
      "hit": false,
      "t": 226341.05600000106,
      "d": 243.90200000000186,
      "v": 100
    },
    {
      "midi": 83,
      "hit": false,
      "t": 226341.05600000106,
      "d": 243.90200000000186,
      "v": 100
    },
    {
      "midi": 71,
      "hit": false,
      "t": 226341.05600000106,
      "d": 121.95100000000093,
      "v": 100
    },
    {
      "midi": 35,
      "hit": false,
      "t": 226341.0560000011,
      "d": 243.90200000000186,
      "v": 100
    },
    {
      "midi": 33,
      "hit": false,
      "t": 226341.0560000021,
      "d": 1.0162583333440125,
      "v": 127
    },
    {
      "midi": 42,
      "hit": false,
      "t": 226341.0560000021,
      "d": 1.0162583333440125,
      "v": 100
    },
    {
      "midi": 47,
      "hit": false,
      "t": 226341.0560000045,
      "d": 975.6080000000075,
      "v": 100
    },
    {
      "midi": 54,
      "hit": false,
      "t": 226341.0560000045,
      "d": 975.6080000000075,
      "v": 100
    },
    {
      "midi": 71,
      "hit": false,
      "t": 226341.05600001247,
      "d": 487.8040000000037,
      "v": 100
    },
    {
      "midi": 66,
      "hit": false,
      "t": 226341.05600001247,
      "d": 487.8040000000037,
      "v": 100
    },
    {
      "midi": 63,
      "hit": false,
      "t": 226341.05600001247,
      "d": 487.8040000000037,
      "v": 100
    },
    {
      "midi": 54,
      "hit": false,
      "t": 226463.00700000103,
      "d": 1.0162583333440125,
      "v": 60
    },
    {
      "midi": 71,
      "hit": false,
      "t": 226463.00700000106,
      "d": 121.95100000000093,
      "v": 100
    },
    {
      "midi": 71,
      "hit": false,
      "t": 226463.00700000132,
      "d": 121.95100000000093,
      "v": 100
    },
    {
      "midi": 66,
      "hit": false,
      "t": 226463.00700000132,
      "d": 121.95100000000093,
      "v": 100
    },
    {
      "midi": 63,
      "hit": false,
      "t": 226463.00700000132,
      "d": 121.95100000000093,
      "v": 100
    },
    {
      "midi": 54,
      "hit": false,
      "t": 226584.95800000103,
      "d": 1.0162583333440125,
      "v": 60
    },
    {
      "midi": 83,
      "hit": false,
      "t": 226584.95800000106,
      "d": 121.95100000000093,
      "v": 100
    },
    {
      "midi": 80,
      "hit": false,
      "t": 226584.95800000106,
      "d": 121.95100000000093,
      "v": 100
    },
    {
      "midi": 75,
      "hit": false,
      "t": 226584.95800000106,
      "d": 121.95100000000093,
      "v": 100
    },
    {
      "midi": 35,
      "hit": false,
      "t": 226584.9580000011,
      "d": 243.90200000000186,
      "v": 100
    },
    {
      "midi": 71,
      "hit": false,
      "t": 226584.95800000132,
      "d": 121.95100000000093,
      "v": 100
    },
    {
      "midi": 66,
      "hit": false,
      "t": 226584.95800000132,
      "d": 121.95100000000093,
      "v": 100
    },
    {
      "midi": 63,
      "hit": false,
      "t": 226584.95800000132,
      "d": 121.95100000000093,
      "v": 100
    },
    {
      "midi": 46,
      "hit": false,
      "t": 226584.9580000021,
      "d": 1.0162583333440125,
      "v": 100
    },
    {
      "midi": 54,
      "hit": false,
      "t": 226706.90900000103,
      "d": 1.0162583333440125,
      "v": 60
    },
    {
      "midi": 75,
      "hit": false,
      "t": 226706.90900000106,
      "d": 121.95100000000093,
      "v": 100
    },
    {
      "midi": 44,
      "hit": false,
      "t": 226706.9090000021,
      "d": 1.0162583333440125,
      "v": 100
    },
    {
      "midi": 83,
      "hit": false,
      "t": 226828.86000000103,
      "d": 243.90200000000186,
      "v": 100
    },
    {
      "midi": 78,
      "hit": false,
      "t": 226828.86000000103,
      "d": 243.90200000000186,
      "v": 100
    },
    {
      "midi": 54,
      "hit": false,
      "t": 226828.86000000103,
      "d": 1.0162583333440125,
      "v": 80
    },
    {
      "midi": 83,
      "hit": false,
      "t": 226828.86000000106,
      "d": 243.90200000000186,
      "v": 100
    },
    {
      "midi": 80,
      "hit": false,
      "t": 226828.86000000106,
      "d": 243.90200000000186,
      "v": 100
    },
    {
      "midi": 71,
      "hit": false,
      "t": 226828.86000000106,
      "d": 121.95100000000093,
      "v": 100
    },
    {
      "midi": 35,
      "hit": false,
      "t": 226828.8600000011,
      "d": 243.90200000000186,
      "v": 100
    },
    {
      "midi": 71,
      "hit": false,
      "t": 226828.86000000132,
      "d": 121.95100000000093,
      "v": 100
    },
    {
      "midi": 66,
      "hit": false,
      "t": 226828.86000000132,
      "d": 121.95100000000093,
      "v": 100
    },
    {
      "midi": 63,
      "hit": false,
      "t": 226828.86000000132,
      "d": 121.95100000000093,
      "v": 100
    },
    {
      "midi": 33,
      "hit": false,
      "t": 226828.8600000021,
      "d": 1.0162583333440125,
      "v": 127
    },
    {
      "midi": 40,
      "hit": false,
      "t": 226828.8600000021,
      "d": 1.0162583333440125,
      "v": 100
    },
    {
      "midi": 46,
      "hit": false,
      "t": 226828.8600000021,
      "d": 1.0162583333440125,
      "v": 100
    },
    {
      "midi": 71,
      "hit": false,
      "t": 226828.86000001247,
      "d": 60.97549999988405,
      "v": 100
    },
    {
      "midi": 66,
      "hit": false,
      "t": 226828.86000001247,
      "d": 60.97549999988405,
      "v": 100
    },
    {
      "midi": 63,
      "hit": false,
      "t": 226828.86000001247,
      "d": 60.97549999988405,
      "v": 100
    },
    {
      "midi": 54,
      "hit": false,
      "t": 226950.81100000103,
      "d": 1.0162583333440125,
      "v": 60
    },
    {
      "midi": 71,
      "hit": false,
      "t": 226950.81100000106,
      "d": 121.95100000000093,
      "v": 100
    },
    {
      "midi": 44,
      "hit": false,
      "t": 226950.8110000021,
      "d": 1.0162583333440125,
      "v": 100
    },
    {
      "midi": 71,
      "hit": false,
      "t": 226950.81100001236,
      "d": 60.975500000000466,
      "v": 100
    },
    {
      "midi": 66,
      "hit": false,
      "t": 226950.81100001236,
      "d": 60.975500000000466,
      "v": 100
    },
    {
      "midi": 63,
      "hit": false,
      "t": 226950.81100001236,
      "d": 60.975500000000466,
      "v": 100
    },
    {
      "midi": 78,
      "hit": false,
      "t": 227072.76200000104,
      "d": 40.65033333332394,
      "v": 100
    },
    {
      "midi": 83,
      "hit": false,
      "t": 227072.76200000104,
      "d": 40.65033333332394,
      "v": 100
    },
    {
      "midi": 54,
      "hit": false,
      "t": 227072.76200000104,
      "d": 1.0162583333440125,
      "v": 60
    },
    {
      "midi": 80,
      "hit": false,
      "t": 227072.76200000106,
      "d": 121.95100000000093,
      "v": 100
    },
    {
      "midi": 76,
      "hit": false,
      "t": 227072.76200000106,
      "d": 121.95100000000093,
      "v": 100
    },
    {
      "midi": 80,
      "hit": false,
      "t": 227072.76200000106,
      "d": 121.95100000000093,
      "v": 100
    },
    {
      "midi": 35,
      "hit": false,
      "t": 227072.7620000011,
      "d": 71.13808333332418,
      "v": 100
    },
    {
      "midi": 71,
      "hit": false,
      "t": 227072.76200000133,
      "d": 121.95100000000093,
      "v": 100
    },
    {
      "midi": 66,
      "hit": false,
      "t": 227072.76200000133,
      "d": 121.95100000000093,
      "v": 100
    },
    {
      "midi": 63,
      "hit": false,
      "t": 227072.76200000133,
      "d": 121.95100000000093,
      "v": 100
    },
    {
      "midi": 46,
      "hit": false,
      "t": 227072.7620000021,
      "d": 1.0162583333440125,
      "v": 100
    },
    {
      "midi": 71,
      "hit": false,
      "t": 227072.76200001227,
      "d": 60.975500000000466,
      "v": 100
    },
    {
      "midi": 66,
      "hit": false,
      "t": 227072.76200001227,
      "d": 60.975500000000466,
      "v": 100
    },
    {
      "midi": 63,
      "hit": false,
      "t": 227072.76200001227,
      "d": 60.975500000000466,
      "v": 100
    },
    {
      "midi": 83,
      "hit": false,
      "t": 227194.71300000104,
      "d": 243.90200000000186,
      "v": 100
    },
    {
      "midi": 78,
      "hit": false,
      "t": 227194.71300000104,
      "d": 243.90200000000186,
      "v": 100
    },
    {
      "midi": 75,
      "hit": false,
      "t": 227194.71300000104,
      "d": 325.20266666667885,
      "v": 100
    },
    {
      "midi": 54,
      "hit": false,
      "t": 227194.71300000104,
      "d": 1.0162583333440125,
      "v": 60
    },
    {
      "midi": 83,
      "hit": false,
      "t": 227194.71300000107,
      "d": 487.8040000000037,
      "v": 100
    },
    {
      "midi": 80,
      "hit": false,
      "t": 227194.71300000107,
      "d": 487.8040000000037,
      "v": 100
    },
    {
      "midi": 80,
      "hit": false,
      "t": 227194.71300000107,
      "d": 121.95100000000093,
      "v": 100
    },
    {
      "midi": 32,
      "hit": false,
      "t": 227194.7130000011,
      "d": 243.90200000000186,
      "v": 100
    },
    {
      "midi": 44,
      "hit": false,
      "t": 227194.7130000021,
      "d": 1.0162583333440125,
      "v": 100
    },
    {
      "midi": 40,
      "hit": false,
      "t": 227194.7130000021,
      "d": 1.0162583333440125,
      "v": 100
    },
    {
      "midi": 71,
      "hit": false,
      "t": 227194.71300001227,
      "d": 60.975500000000466,
      "v": 100
    },
    {
      "midi": 66,
      "hit": false,
      "t": 227194.71300001227,
      "d": 60.975500000000466,
      "v": 100
    },
    {
      "midi": 63,
      "hit": false,
      "t": 227194.71300001227,
      "d": 60.975500000000466,
      "v": 100
    },
    {
      "midi": 54,
      "hit": false,
      "t": 227316.66400000104,
      "d": 1.0162583333440125,
      "v": 80
    },
    {
      "midi": 80,
      "hit": false,
      "t": 227316.66400000107,
      "d": 121.95100000000093,
      "v": 100
    },
    {
      "midi": 68,
      "hit": false,
      "t": 227316.66400000133,
      "d": 121.95100000000093,
      "v": 100
    },
    {
      "midi": 64,
      "hit": false,
      "t": 227316.66400000133,
      "d": 121.95100000000093,
      "v": 100
    },
    {
      "midi": 59,
      "hit": false,
      "t": 227316.66400000133,
      "d": 121.95100000000093,
      "v": 100
    },
    {
      "midi": 33,
      "hit": false,
      "t": 227316.6640000021,
      "d": 1.0162583333440125,
      "v": 127
    },
    {
      "midi": 42,
      "hit": false,
      "t": 227316.6640000021,
      "d": 1.0162583333440125,
      "v": 100
    },
    {
      "midi": 51,
      "hit": false,
      "t": 227316.6640000045,
      "d": 975.6080000000075,
      "v": 100
    },
    {
      "midi": 44,
      "hit": false,
      "t": 227316.6640000045,
      "d": 975.6080000000075,
      "v": 100
    },
    {
      "midi": 68,
      "hit": false,
      "t": 227316.66400001227,
      "d": 60.97549999988405,
      "v": 100
    },
    {
      "midi": 63,
      "hit": false,
      "t": 227316.66400001227,
      "d": 60.97549999988405,
      "v": 100
    },
    {
      "midi": 59,
      "hit": false,
      "t": 227316.66400001227,
      "d": 60.97549999988405,
      "v": 100
    },
    {
      "midi": 54,
      "hit": false,
      "t": 227438.61500000104,
      "d": 1.0162583333440125,
      "v": 60
    },
    {
      "midi": 80,
      "hit": false,
      "t": 227438.61500000107,
      "d": 121.95100000000093,
      "v": 100
    },
    {
      "midi": 32,
      "hit": false,
      "t": 227438.6150000011,
      "d": 121.95100000000093,
      "v": 100
    },
    {
      "midi": 68,
      "hit": false,
      "t": 227438.61500000133,
      "d": 121.95100000000093,
      "v": 100
    },
    {
      "midi": 64,
      "hit": false,
      "t": 227438.61500000133,
      "d": 121.95100000000093,
      "v": 100
    },
    {
      "midi": 59,
      "hit": false,
      "t": 227438.61500000133,
      "d": 121.95100000000093,
      "v": 100
    },
    {
      "midi": 40,
      "hit": false,
      "t": 227438.61500000212,
      "d": 1.0162583333440125,
      "v": 100
    },
    {
      "midi": 68,
      "hit": false,
      "t": 227438.61500001216,
      "d": 60.975500000000466,
      "v": 100
    },
    {
      "midi": 63,
      "hit": false,
      "t": 227438.61500001216,
      "d": 60.975500000000466,
      "v": 100
    },
    {
      "midi": 59,
      "hit": false,
      "t": 227438.61500001216,
      "d": 60.975500000000466,
      "v": 100
    },
    {
      "midi": 75,
      "hit": false,
      "t": 227560.56600000104,
      "d": 243.90200000000186,
      "v": 100
    },
    {
      "midi": 83,
      "hit": false,
      "t": 227560.56600000104,
      "d": 243.90200000000186,
      "v": 100
    },
    {
      "midi": 78,
      "hit": false,
      "t": 227560.56600000104,
      "d": 243.90200000000186,
      "v": 100
    },
    {
      "midi": 54,
      "hit": false,
      "t": 227560.56600000104,
      "d": 1.0162583333440125,
      "v": 60
    },
    {
      "midi": 80,
      "hit": false,
      "t": 227560.56600000107,
      "d": 121.95100000000093,
      "v": 100
    },
    {
      "midi": 32,
      "hit": false,
      "t": 227560.5660000011,
      "d": 243.90200000000186,
      "v": 100
    },
    {
      "midi": 46,
      "hit": false,
      "t": 227560.56600000212,
      "d": 1.0162583333440125,
      "v": 100
    },
    {
      "midi": 68,
      "hit": false,
      "t": 227560.56600001207,
      "d": 60.975500000000466,
      "v": 100
    },
    {
      "midi": 63,
      "hit": false,
      "t": 227560.56600001207,
      "d": 60.975500000000466,
      "v": 100
    },
    {
      "midi": 59,
      "hit": false,
      "t": 227560.56600001207,
      "d": 60.975500000000466,
      "v": 100
    },
    {
      "midi": 54,
      "hit": false,
      "t": 227682.51700000104,
      "d": 1.0162583333440125,
      "v": 60
    },
    {
      "midi": 80,
      "hit": false,
      "t": 227682.51700000107,
      "d": 121.95100000000093,
      "v": 100
    },
    {
      "midi": 68,
      "hit": false,
      "t": 227682.51700000133,
      "d": 121.95100000000093,
      "v": 100
    },
    {
      "midi": 64,
      "hit": false,
      "t": 227682.51700000133,
      "d": 121.95100000000093,
      "v": 100
    },
    {
      "midi": 59,
      "hit": false,
      "t": 227682.51700000133,
      "d": 121.95100000000093,
      "v": 100
    },
    {
      "midi": 44,
      "hit": false,
      "t": 227682.51700000212,
      "d": 1.0162583333440125,
      "v": 100
    },
    {
      "midi": 68,
      "hit": false,
      "t": 227682.51700001207,
      "d": 60.975500000000466,
      "v": 100
    },
    {
      "midi": 63,
      "hit": false,
      "t": 227682.51700001207,
      "d": 60.975500000000466,
      "v": 100
    },
    {
      "midi": 59,
      "hit": false,
      "t": 227682.51700001207,
      "d": 60.975500000000466,
      "v": 100
    },
    {
      "midi": 75,
      "hit": false,
      "t": 227804.46800000104,
      "d": 243.90200000000186,
      "v": 100
    },
    {
      "midi": 80,
      "hit": false,
      "t": 227804.46800000104,
      "d": 243.90200000000186,
      "v": 100
    },
    {
      "midi": 78,
      "hit": false,
      "t": 227804.46800000104,
      "d": 243.90200000000186,
      "v": 100
    },
    {
      "midi": 54,
      "hit": false,
      "t": 227804.46800000104,
      "d": 1.0162583333440125,
      "v": 80
    },
    {
      "midi": 81,
      "hit": false,
      "t": 227804.46800000107,
      "d": 243.90200000000186,
      "v": 100
    },
    {
      "midi": 78,
      "hit": false,
      "t": 227804.46800000107,
      "d": 243.90200000000186,
      "v": 100
    },
    {
      "midi": 75,
      "hit": false,
      "t": 227804.46800000107,
      "d": 121.95100000000093,
      "v": 100
    },
    {
      "midi": 32,
      "hit": false,
      "t": 227804.4680000011,
      "d": 243.90200000000186,
      "v": 100
    },
    {
      "midi": 33,
      "hit": false,
      "t": 227804.46800000212,
      "d": 1.0162583333440125,
      "v": 127
    },
    {
      "midi": 40,
      "hit": false,
      "t": 227804.46800000212,
      "d": 1.0162583333440125,
      "v": 100
    },
    {
      "midi": 46,
      "hit": false,
      "t": 227804.46800000212,
      "d": 1.0162583333440125,
      "v": 100
    },
    {
      "midi": 68,
      "hit": false,
      "t": 227804.46800001207,
      "d": 243.90199999985634,
      "v": 100
    },
    {
      "midi": 63,
      "hit": false,
      "t": 227804.46800001207,
      "d": 243.90199999985634,
      "v": 100
    },
    {
      "midi": 59,
      "hit": false,
      "t": 227804.46800001207,
      "d": 243.90199999985634,
      "v": 100
    },
    {
      "midi": 54,
      "hit": false,
      "t": 227926.41900000104,
      "d": 1.0162583333440125,
      "v": 60
    },
    {
      "midi": 75,
      "hit": false,
      "t": 227926.41900000107,
      "d": 121.95100000000093,
      "v": 100
    },
    {
      "midi": 44,
      "hit": false,
      "t": 227926.41900000212,
      "d": 1.0162583333440125,
      "v": 100
    },
    {
      "midi": 75,
      "hit": false,
      "t": 228048.37000000104,
      "d": 243.90200000000186,
      "v": 100
    },
    {
      "midi": 83,
      "hit": false,
      "t": 228048.37000000104,
      "d": 243.90200000000186,
      "v": 100
    },
    {
      "midi": 78,
      "hit": false,
      "t": 228048.37000000104,
      "d": 243.90200000000186,
      "v": 100
    },
    {
      "midi": 54,
      "hit": false,
      "t": 228048.37000000104,
      "d": 1.0162583333440125,
      "v": 60
    },
    {
      "midi": 83,
      "hit": false,
      "t": 228048.37000000107,
      "d": 243.90200000000186,
      "v": 100
    },
    {
      "midi": 80,
      "hit": false,
      "t": 228048.37000000107,
      "d": 243.90200000000186,
      "v": 100
    },
    {
      "midi": 80,
      "hit": false,
      "t": 228048.37000000107,
      "d": 121.95100000000093,
      "v": 100
    },
    {
      "midi": 32,
      "hit": false,
      "t": 228048.3700000011,
      "d": 243.90200000000186,
      "v": 100
    },
    {
      "midi": 40,
      "hit": false,
      "t": 228048.37000000212,
      "d": 1.0162583333440125,
      "v": 40
    },
    {
      "midi": 46,
      "hit": false,
      "t": 228048.37000000212,
      "d": 1.0162583333440125,
      "v": 100
    },
    {
      "midi": 68,
      "hit": false,
      "t": 228048.37000001193,
      "d": 60.975500000000466,
      "v": 100
    },
    {
      "midi": 63,
      "hit": false,
      "t": 228048.37000001193,
      "d": 60.975500000000466,
      "v": 100
    },
    {
      "midi": 59,
      "hit": false,
      "t": 228048.37000001193,
      "d": 60.975500000000466,
      "v": 100
    },
    {
      "midi": 54,
      "hit": false,
      "t": 228170.32100000104,
      "d": 1.0162583333440125,
      "v": 60
    },
    {
      "midi": 80,
      "hit": false,
      "t": 228170.32100000107,
      "d": 121.95100000000093,
      "v": 100
    },
    {
      "midi": 40,
      "hit": false,
      "t": 228170.32100000212,
      "d": 1.0162583333440125,
      "v": 100
    },
    {
      "midi": 44,
      "hit": false,
      "t": 228170.32100000212,
      "d": 1.0162583333440125,
      "v": 100
    },
    {
      "midi": 68,
      "hit": false,
      "t": 228170.32100001193,
      "d": 60.975500000000466,
      "v": 100
    },
    {
      "midi": 63,
      "hit": false,
      "t": 228170.32100001193,
      "d": 60.975500000000466,
      "v": 100
    },
    {
      "midi": 59,
      "hit": false,
      "t": 228170.32100001193,
      "d": 60.975500000000466,
      "v": 100
    },
    {
      "midi": 81,
      "hit": false,
      "t": 228292.27200000104,
      "d": 243.90200000000186,
      "v": 100
    },
    {
      "midi": 76,
      "hit": false,
      "t": 228292.27200000104,
      "d": 243.90200000000186,
      "v": 100
    },
    {
      "midi": 73,
      "hit": false,
      "t": 228292.27200000104,
      "d": 243.90200000000186,
      "v": 100
    },
    {
      "midi": 54,
      "hit": false,
      "t": 228292.27200000104,
      "d": 1.0162583333440125,
      "v": 80
    },
    {
      "midi": 81,
      "hit": false,
      "t": 228292.27200000107,
      "d": 243.90200000000186,
      "v": 100
    },
    {
      "midi": 78,
      "hit": false,
      "t": 228292.27200000107,
      "d": 243.90200000000186,
      "v": 100
    },
    {
      "midi": 66,
      "hit": false,
      "t": 228292.27200000107,
      "d": 121.95100000000093,
      "v": 100
    },
    {
      "midi": 30,
      "hit": false,
      "t": 228292.2720000011,
      "d": 243.90200000000186,
      "v": 100
    },
    {
      "midi": 33,
      "hit": false,
      "t": 228292.27200000212,
      "d": 1.0162583333440125,
      "v": 127
    },
    {
      "midi": 42,
      "hit": false,
      "t": 228292.27200000212,
      "d": 1.0162583333440125,
      "v": 100
    },
    {
      "midi": 42,
      "hit": false,
      "t": 228292.2720000045,
      "d": 975.6080000000075,
      "v": 100
    },
    {
      "midi": 49,
      "hit": false,
      "t": 228292.2720000045,
      "d": 975.6080000000075,
      "v": 100
    },
    {
      "midi": 69,
      "hit": false,
      "t": 228292.27200001193,
      "d": 487.8040000000037,
      "v": 100
    },
    {
      "midi": 64,
      "hit": false,
      "t": 228292.27200001193,
      "d": 487.8040000000037,
      "v": 100
    },
    {
      "midi": 61,
      "hit": false,
      "t": 228292.27200001193,
      "d": 487.8040000000037,
      "v": 100
    },
    {
      "midi": 54,
      "hit": false,
      "t": 228414.22300000105,
      "d": 1.0162583333440125,
      "v": 60
    },
    {
      "midi": 59,
      "hit": false,
      "t": 228414.22300000107,
      "d": 121.95100000000093,
      "v": 100
    },
    {
      "midi": 61,
      "hit": false,
      "t": 228414.22300000134,
      "d": 121.95100000000093,
      "v": 100
    },
    {
      "midi": 64,
      "hit": false,
      "t": 228414.22300000134,
      "d": 121.95100000000093,
      "v": 100
    },
    {
      "midi": 69,
      "hit": false,
      "t": 228414.22300000134,
      "d": 121.95100000000093,
      "v": 100
    },
    {
      "midi": 54,
      "hit": false,
      "t": 228536.17400000105,
      "d": 1.0162583333440125,
      "v": 60
    },
    {
      "midi": 66,
      "hit": false,
      "t": 228536.17400000108,
      "d": 121.95100000000093,
      "v": 100
    },
    {
      "midi": 30,
      "hit": false,
      "t": 228536.1740000011,
      "d": 243.90200000000186,
      "v": 100
    },
    {
      "midi": 69,
      "hit": false,
      "t": 228536.17400000134,
      "d": 121.95100000000093,
      "v": 100
    },
    {
      "midi": 64,
      "hit": false,
      "t": 228536.17400000134,
      "d": 121.95100000000093,
      "v": 100
    },
    {
      "midi": 61,
      "hit": false,
      "t": 228536.17400000134,
      "d": 121.95100000000093,
      "v": 100
    },
    {
      "midi": 46,
      "hit": false,
      "t": 228536.17400000212,
      "d": 1.0162583333440125,
      "v": 100
    },
    {
      "midi": 54,
      "hit": false,
      "t": 228658.12500000105,
      "d": 1.0162583333440125,
      "v": 60
    },
    {
      "midi": 71,
      "hit": false,
      "t": 228658.12500000108,
      "d": 121.95100000000093,
      "v": 100
    },
    {
      "midi": 44,
      "hit": false,
      "t": 228658.12500000212,
      "d": 1.0162583333440125,
      "v": 100
    },
    {
      "midi": 81,
      "hit": false,
      "t": 228780.07600000105,
      "d": 243.90200000000186,
      "v": 100
    },
    {
      "midi": 76,
      "hit": false,
      "t": 228780.07600000105,
      "d": 243.90200000000186,
      "v": 100
    },
    {
      "midi": 73,
      "hit": false,
      "t": 228780.07600000105,
      "d": 243.90200000000186,
      "v": 100
    },
    {
      "midi": 54,
      "hit": false,
      "t": 228780.07600000105,
      "d": 1.0162583333440125,
      "v": 80
    },
    {
      "midi": 81,
      "hit": false,
      "t": 228780.07600000108,
      "d": 243.90200000000186,
      "v": 100
    },
    {
      "midi": 78,
      "hit": false,
      "t": 228780.07600000108,
      "d": 243.90200000000186,
      "v": 100
    },
    {
      "midi": 66,
      "hit": false,
      "t": 228780.07600000108,
      "d": 121.95100000000093,
      "v": 100
    },
    {
      "midi": 30,
      "hit": false,
      "t": 228780.0760000011,
      "d": 243.90200000000186,
      "v": 100
    },
    {
      "midi": 69,
      "hit": false,
      "t": 228780.07600000134,
      "d": 121.95100000000093,
      "v": 100
    },
    {
      "midi": 64,
      "hit": false,
      "t": 228780.07600000134,
      "d": 121.95100000000093,
      "v": 100
    },
    {
      "midi": 61,
      "hit": false,
      "t": 228780.07600000134,
      "d": 121.95100000000093,
      "v": 100
    },
    {
      "midi": 33,
      "hit": false,
      "t": 228780.07600000213,
      "d": 1.0162583333440125,
      "v": 127
    },
    {
      "midi": 40,
      "hit": false,
      "t": 228780.07600000213,
      "d": 1.0162583333440125,
      "v": 100
    },
    {
      "midi": 46,
      "hit": false,
      "t": 228780.07600000213,
      "d": 1.0162583333440125,
      "v": 100
    },
    {
      "midi": 69,
      "hit": false,
      "t": 228780.07600001193,
      "d": 60.97549999988405,
      "v": 100
    },
    {
      "midi": 64,
      "hit": false,
      "t": 228780.07600001193,
      "d": 60.97549999988405,
      "v": 100
    },
    {
      "midi": 61,
      "hit": false,
      "t": 228780.07600001193,
      "d": 60.97549999988405,
      "v": 100
    },
    {
      "midi": 54,
      "hit": false,
      "t": 228902.02700000105,
      "d": 1.0162583333440125,
      "v": 60
    },
    {
      "midi": 71,
      "hit": false,
      "t": 228902.02700000108,
      "d": 121.95100000000093,
      "v": 100
    },
    {
      "midi": 44,
      "hit": false,
      "t": 228902.02700000213,
      "d": 1.0162583333440125,
      "v": 100
    },
    {
      "midi": 69,
      "hit": false,
      "t": 228902.02700001182,
      "d": 60.975500000000466,
      "v": 100
    },
    {
      "midi": 64,
      "hit": false,
      "t": 228902.02700001182,
      "d": 60.975500000000466,
      "v": 100
    },
    {
      "midi": 61,
      "hit": false,
      "t": 228902.02700001182,
      "d": 60.975500000000466,
      "v": 100
    },
    {
      "midi": 54,
      "hit": false,
      "t": 229023.97800000105,
      "d": 1.0162583333440125,
      "v": 60
    },
    {
      "midi": 83,
      "hit": false,
      "t": 229023.97800000108,
      "d": 121.95100000000093,
      "v": 100
    },
    {
      "midi": 80,
      "hit": false,
      "t": 229023.97800000108,
      "d": 121.95100000000093,
      "v": 100
    },
    {
      "midi": 78,
      "hit": false,
      "t": 229023.97800000108,
      "d": 121.95100000000093,
      "v": 100
    },
    {
      "midi": 30,
      "hit": false,
      "t": 229023.9780000011,
      "d": 71.13808333332418,
      "v": 100
    },
    {
      "midi": 69,
      "hit": false,
      "t": 229023.97800000134,
      "d": 121.95100000000093,
      "v": 100
    },
    {
      "midi": 64,
      "hit": false,
      "t": 229023.97800000134,
      "d": 121.95100000000093,
      "v": 100
    },
    {
      "midi": 61,
      "hit": false,
      "t": 229023.97800000134,
      "d": 121.95100000000093,
      "v": 100
    },
    {
      "midi": 46,
      "hit": false,
      "t": 229023.97800000213,
      "d": 1.0162583333440125,
      "v": 100
    },
    {
      "midi": 69,
      "hit": false,
      "t": 229023.97800001173,
      "d": 60.975500000000466,
      "v": 100
    },
    {
      "midi": 64,
      "hit": false,
      "t": 229023.97800001173,
      "d": 60.975500000000466,
      "v": 100
    },
    {
      "midi": 61,
      "hit": false,
      "t": 229023.97800001173,
      "d": 60.975500000000466,
      "v": 100
    },
    {
      "midi": 83,
      "hit": false,
      "t": 229145.92900000105,
      "d": 365.8530000000028,
      "v": 100
    },
    {
      "midi": 78,
      "hit": false,
      "t": 229145.92900000105,
      "d": 365.8530000000028,
      "v": 100
    },
    {
      "midi": 75,
      "hit": false,
      "t": 229145.92900000105,
      "d": 365.8530000000028,
      "v": 100
    },
    {
      "midi": 54,
      "hit": false,
      "t": 229145.92900000105,
      "d": 1.0162583333440125,
      "v": 60
    },
    {
      "midi": 78,
      "hit": false,
      "t": 229145.92900000108,
      "d": 487.8040000000037,
      "v": 100
    },
    {
      "midi": 75,
      "hit": false,
      "t": 229145.92900000108,
      "d": 487.8040000000037,
      "v": 100
    },
    {
      "midi": 83,
      "hit": false,
      "t": 229145.92900000108,
      "d": 121.95100000000093,
      "v": 100
    },
    {
      "midi": 35,
      "hit": false,
      "t": 229145.9290000011,
      "d": 243.90200000000186,
      "v": 100
    },
    {
      "midi": 44,
      "hit": false,
      "t": 229145.92900000213,
      "d": 1.0162583333440125,
      "v": 100
    },
    {
      "midi": 69,
      "hit": false,
      "t": 229145.92900001173,
      "d": 60.975500000000466,
      "v": 100
    },
    {
      "midi": 64,
      "hit": false,
      "t": 229145.92900001173,
      "d": 60.975500000000466,
      "v": 100
    },
    {
      "midi": 61,
      "hit": false,
      "t": 229145.92900001173,
      "d": 60.975500000000466,
      "v": 100
    },
    {
      "midi": 54,
      "hit": false,
      "t": 229267.88000000105,
      "d": 1.0162583333440125,
      "v": 80
    },
    {
      "midi": 83,
      "hit": false,
      "t": 229267.88000000108,
      "d": 121.95100000000093,
      "v": 100
    },
    {
      "midi": 71,
      "hit": false,
      "t": 229267.88000000134,
      "d": 121.95100000000093,
      "v": 100
    },
    {
      "midi": 66,
      "hit": false,
      "t": 229267.88000000134,
      "d": 121.95100000000093,
      "v": 100
    },
    {
      "midi": 63,
      "hit": false,
      "t": 229267.88000000134,
      "d": 121.95100000000093,
      "v": 100
    },
    {
      "midi": 33,
      "hit": false,
      "t": 229267.88000000213,
      "d": 1.0162583333440125,
      "v": 127
    },
    {
      "midi": 42,
      "hit": false,
      "t": 229267.88000000213,
      "d": 1.0162583333440125,
      "v": 100
    },
    {
      "midi": 47,
      "hit": false,
      "t": 229267.88000000452,
      "d": 975.6080000000075,
      "v": 100
    },
    {
      "midi": 54,
      "hit": false,
      "t": 229267.88000000452,
      "d": 975.6080000000075,
      "v": 100
    },
    {
      "midi": 71,
      "hit": false,
      "t": 229267.88000001173,
      "d": 60.97549999988405,
      "v": 100
    },
    {
      "midi": 66,
      "hit": false,
      "t": 229267.88000001173,
      "d": 60.97549999988405,
      "v": 100
    },
    {
      "midi": 63,
      "hit": false,
      "t": 229267.88000001173,
      "d": 60.97549999988405,
      "v": 100
    },
    {
      "midi": 54,
      "hit": false,
      "t": 229389.83100000105,
      "d": 1.0162583333440125,
      "v": 60
    },
    {
      "midi": 83,
      "hit": false,
      "t": 229389.83100000108,
      "d": 121.95100000000093,
      "v": 100
    },
    {
      "midi": 35,
      "hit": false,
      "t": 229389.8310000011,
      "d": 121.95100000000093,
      "v": 100
    },
    {
      "midi": 71,
      "hit": false,
      "t": 229389.83100000134,
      "d": 121.95100000000093,
      "v": 100
    },
    {
      "midi": 66,
      "hit": false,
      "t": 229389.83100000134,
      "d": 121.95100000000093,
      "v": 100
    },
    {
      "midi": 63,
      "hit": false,
      "t": 229389.83100000134,
      "d": 121.95100000000093,
      "v": 100
    },
    {
      "midi": 71,
      "hit": false,
      "t": 229389.83100001162,
      "d": 60.975500000000466,
      "v": 100
    },
    {
      "midi": 66,
      "hit": false,
      "t": 229389.83100001162,
      "d": 60.975500000000466,
      "v": 100
    },
    {
      "midi": 63,
      "hit": false,
      "t": 229389.83100001162,
      "d": 60.975500000000466,
      "v": 100
    },
    {
      "midi": 83,
      "hit": false,
      "t": 229511.78200000105,
      "d": 243.90200000000186,
      "v": 100
    },
    {
      "midi": 78,
      "hit": false,
      "t": 229511.78200000105,
      "d": 243.90200000000186,
      "v": 100
    },
    {
      "midi": 75,
      "hit": false,
      "t": 229511.78200000105,
      "d": 243.90200000000186,
      "v": 100
    },
    {
      "midi": 54,
      "hit": false,
      "t": 229511.78200000105,
      "d": 1.0162583333440125,
      "v": 60
    },
    {
      "midi": 83,
      "hit": false,
      "t": 229511.78200000108,
      "d": 121.95100000000093,
      "v": 100
    },
    {
      "midi": 35,
      "hit": false,
      "t": 229511.7820000011,
      "d": 243.90200000000186,
      "v": 100
    },
    {
      "midi": 46,
      "hit": false,
      "t": 229511.78200000213,
      "d": 1.0162583333440125,
      "v": 100
    },
    {
      "midi": 71,
      "hit": false,
      "t": 229511.78200001153,
      "d": 60.975500000000466,
      "v": 100
    },
    {
      "midi": 66,
      "hit": false,
      "t": 229511.78200001153,
      "d": 60.975500000000466,
      "v": 100
    },
    {
      "midi": 63,
      "hit": false,
      "t": 229511.78200001153,
      "d": 60.975500000000466,
      "v": 100
    },
    {
      "midi": 54,
      "hit": false,
      "t": 229633.73300000106,
      "d": 1.0162583333440125,
      "v": 60
    },
    {
      "midi": 83,
      "hit": false,
      "t": 229633.73300000108,
      "d": 121.95100000000093,
      "v": 100
    },
    {
      "midi": 71,
      "hit": false,
      "t": 229633.73300000135,
      "d": 121.95100000000093,
      "v": 100
    },
    {
      "midi": 66,
      "hit": false,
      "t": 229633.73300000135,
      "d": 121.95100000000093,
      "v": 100
    },
    {
      "midi": 63,
      "hit": false,
      "t": 229633.73300000135,
      "d": 121.95100000000093,
      "v": 100
    },
    {
      "midi": 44,
      "hit": false,
      "t": 229633.73300000213,
      "d": 1.0162583333440125,
      "v": 100
    },
    {
      "midi": 71,
      "hit": false,
      "t": 229633.73300001153,
      "d": 60.975500000000466,
      "v": 100
    },
    {
      "midi": 66,
      "hit": false,
      "t": 229633.73300001153,
      "d": 60.975500000000466,
      "v": 100
    },
    {
      "midi": 63,
      "hit": false,
      "t": 229633.73300001153,
      "d": 60.975500000000466,
      "v": 100
    },
    {
      "midi": 78,
      "hit": false,
      "t": 229755.68400000106,
      "d": 243.90200000000186,
      "v": 100
    },
    {
      "midi": 75,
      "hit": false,
      "t": 229755.68400000106,
      "d": 243.90200000000186,
      "v": 100
    },
    {
      "midi": 71,
      "hit": false,
      "t": 229755.68400000106,
      "d": 243.90200000000186,
      "v": 100
    },
    {
      "midi": 54,
      "hit": false,
      "t": 229755.68400000106,
      "d": 1.0162583333440125,
      "v": 80
    },
    {
      "midi": 78,
      "hit": false,
      "t": 229755.68400000109,
      "d": 243.90200000000186,
      "v": 100
    },
    {
      "midi": 73,
      "hit": false,
      "t": 229755.68400000109,
      "d": 243.90200000000186,
      "v": 100
    },
    {
      "midi": 78,
      "hit": false,
      "t": 229755.68400000109,
      "d": 121.95100000000093,
      "v": 100
    },
    {
      "midi": 35,
      "hit": false,
      "t": 229755.6840000011,
      "d": 243.90200000000186,
      "v": 100
    },
    {
      "midi": 33,
      "hit": false,
      "t": 229755.68400000213,
      "d": 1.0162583333440125,
      "v": 127
    },
    {
      "midi": 40,
      "hit": false,
      "t": 229755.68400000213,
      "d": 1.0162583333440125,
      "v": 100
    },
    {
      "midi": 46,
      "hit": false,
      "t": 229755.68400000213,
      "d": 1.0162583333440125,
      "v": 100
    },
    {
      "midi": 71,
      "hit": false,
      "t": 229755.68400001153,
      "d": 243.90199999985634,
      "v": 100
    },
    {
      "midi": 66,
      "hit": false,
      "t": 229755.68400001153,
      "d": 243.90199999985634,
      "v": 100
    },
    {
      "midi": 63,
      "hit": false,
      "t": 229755.68400001153,
      "d": 243.90199999985634,
      "v": 100
    },
    {
      "midi": 54,
      "hit": false,
      "t": 229877.63500000106,
      "d": 1.0162583333440125,
      "v": 60
    },
    {
      "midi": 78,
      "hit": false,
      "t": 229877.6350000011,
      "d": 121.95100000000093,
      "v": 100
    },
    {
      "midi": 44,
      "hit": false,
      "t": 229877.63500000213,
      "d": 1.0162583333440125,
      "v": 100
    },
    {
      "midi": 80,
      "hit": false,
      "t": 229999.58600000106,
      "d": 243.90200000000186,
      "v": 100
    },
    {
      "midi": 78,
      "hit": false,
      "t": 229999.58600000106,
      "d": 243.90200000000186,
      "v": 100
    },
    {
      "midi": 75,
      "hit": false,
      "t": 229999.58600000106,
      "d": 243.90200000000186,
      "v": 100
    },
    {
      "midi": 54,
      "hit": false,
      "t": 229999.58600000106,
      "d": 1.0162583333440125,
      "v": 60
    },
    {
      "midi": 80,
      "hit": false,
      "t": 229999.5860000011,
      "d": 243.90200000000186,
      "v": 100
    },
    {
      "midi": 75,
      "hit": false,
      "t": 229999.5860000011,
      "d": 243.90200000000186,
      "v": 100
    },
    {
      "midi": 80,
      "hit": false,
      "t": 229999.5860000011,
      "d": 121.95100000000093,
      "v": 100
    },
    {
      "midi": 35,
      "hit": false,
      "t": 229999.58600000112,
      "d": 243.90200000000186,
      "v": 100
    },
    {
      "midi": 40,
      "hit": false,
      "t": 229999.58600000213,
      "d": 1.0162583333440125,
      "v": 40
    },
    {
      "midi": 46,
      "hit": false,
      "t": 229999.58600000213,
      "d": 1.0162583333440125,
      "v": 100
    },
    {
      "midi": 71,
      "hit": false,
      "t": 229999.5860000114,
      "d": 60.975500000000466,
      "v": 100
    },
    {
      "midi": 66,
      "hit": false,
      "t": 229999.5860000114,
      "d": 60.975500000000466,
      "v": 100
    },
    {
      "midi": 63,
      "hit": false,
      "t": 229999.5860000114,
      "d": 60.975500000000466,
      "v": 100
    },
    {
      "midi": 54,
      "hit": false,
      "t": 230121.53700000106,
      "d": 1.0162583333440125,
      "v": 60
    },
    {
      "midi": 80,
      "hit": false,
      "t": 230121.5370000011,
      "d": 121.95100000000093,
      "v": 100
    },
    {
      "midi": 40,
      "hit": false,
      "t": 230121.53700000214,
      "d": 1.0162583333440125,
      "v": 100
    },
    {
      "midi": 44,
      "hit": false,
      "t": 230121.53700000214,
      "d": 1.0162583333440125,
      "v": 100
    },
    {
      "midi": 71,
      "hit": false,
      "t": 230121.5370000114,
      "d": 60.975500000000466,
      "v": 100
    },
    {
      "midi": 66,
      "hit": false,
      "t": 230121.5370000114,
      "d": 60.975500000000466,
      "v": 100
    },
    {
      "midi": 63,
      "hit": false,
      "t": 230121.5370000114,
      "d": 60.975500000000466,
      "v": 100
    },
    {
      "midi": 79,
      "hit": false,
      "t": 230243.48799999992,
      "d": 1951.2159999999858,
      "v": 127
    },
    {
      "midi": 80,
      "hit": false,
      "t": 230243.48800000106,
      "d": 243.90200000000186,
      "v": 100
    },
    {
      "midi": 76,
      "hit": false,
      "t": 230243.48800000106,
      "d": 243.90200000000186,
      "v": 100
    },
    {
      "midi": 71,
      "hit": false,
      "t": 230243.48800000106,
      "d": 243.90200000000186,
      "v": 100
    },
    {
      "midi": 54,
      "hit": false,
      "t": 230243.48800000106,
      "d": 1.0162583333440125,
      "v": 80
    },
    {
      "midi": 78,
      "hit": false,
      "t": 230243.4880000011,
      "d": 243.90200000000186,
      "v": 100
    },
    {
      "midi": 73,
      "hit": false,
      "t": 230243.4880000011,
      "d": 243.90200000000186,
      "v": 100
    },
    {
      "midi": 76,
      "hit": false,
      "t": 230243.4880000011,
      "d": 121.95100000000093,
      "v": 100
    },
    {
      "midi": 28,
      "hit": false,
      "t": 230243.48800000112,
      "d": 243.90200000000186,
      "v": 100
    },
    {
      "midi": 33,
      "hit": false,
      "t": 230243.48800000214,
      "d": 1.0162583333440125,
      "v": 127
    },
    {
      "midi": 42,
      "hit": false,
      "t": 230243.48800000214,
      "d": 1.0162583333440125,
      "v": 100
    },
    {
      "midi": 40,
      "hit": false,
      "t": 230243.48800000452,
      "d": 487.8040000000037,
      "v": 100
    },
    {
      "midi": 47,
      "hit": false,
      "t": 230243.48800000452,
      "d": 487.8040000000037,
      "v": 100
    },
    {
      "midi": 68,
      "hit": false,
      "t": 230243.4880000114,
      "d": 487.8040000000037,
      "v": 100
    },
    {
      "midi": 59,
      "hit": false,
      "t": 230243.4880000114,
      "d": 487.8040000000037,
      "v": 100
    },
    {
      "midi": 64,
      "hit": false,
      "t": 230243.4880000114,
      "d": 487.8040000000037,
      "v": 100
    },
    {
      "midi": 68,
      "hit": false,
      "t": 230365.43900000135,
      "d": 121.95100000000093,
      "v": 100
    },
    {
      "midi": 64,
      "hit": false,
      "t": 230365.43900000135,
      "d": 121.95100000000093,
      "v": 100
    },
    {
      "midi": 59,
      "hit": false,
      "t": 230365.43900000135,
      "d": 121.95100000000093,
      "v": 100
    },
    {
      "midi": 40,
      "hit": false,
      "t": 230365.43900000214,
      "d": 1.0162583333440125,
      "v": 100
    },
    {
      "midi": 76,
      "hit": false,
      "t": 230487.3900000011,
      "d": 121.95100000000093,
      "v": 100
    },
    {
      "midi": 71,
      "hit": false,
      "t": 230487.3900000011,
      "d": 121.95100000000093,
      "v": 100
    },
    {
      "midi": 28,
      "hit": false,
      "t": 230487.39000000112,
      "d": 20.325166666676523,
      "v": 100
    },
    {
      "midi": 68,
      "hit": false,
      "t": 230487.39000000135,
      "d": 121.95100000000093,
      "v": 100
    },
    {
      "midi": 64,
      "hit": false,
      "t": 230487.39000000135,
      "d": 121.95100000000093,
      "v": 100
    },
    {
      "midi": 59,
      "hit": false,
      "t": 230487.39000000135,
      "d": 121.95100000000093,
      "v": 100
    },
    {
      "midi": 46,
      "hit": false,
      "t": 230487.39000000214,
      "d": 1.0162583333440125,
      "v": 100
    },
    {
      "midi": 76,
      "hit": false,
      "t": 230609.3410000011,
      "d": 1585.363000000012,
      "v": 100
    },
    {
      "midi": 71,
      "hit": false,
      "t": 230609.3410000011,
      "d": 1585.363000000012,
      "v": 100
    },
    {
      "midi": 28,
      "hit": false,
      "t": 230609.34100000112,
      "d": 243.90200000000186,
      "v": 100
    },
    {
      "midi": 44,
      "hit": false,
      "t": 230609.34100000214,
      "d": 1.0162583333440125,
      "v": 100
    },
    {
      "midi": 37,
      "hit": false,
      "t": 230731.29200000106,
      "d": 1463.4120000000112,
      "v": 100
    },
    {
      "midi": 68,
      "hit": false,
      "t": 230731.29200000135,
      "d": 121.95100000000093,
      "v": 100
    },
    {
      "midi": 64,
      "hit": false,
      "t": 230731.29200000135,
      "d": 121.95100000000093,
      "v": 100
    },
    {
      "midi": 59,
      "hit": false,
      "t": 230731.29200000135,
      "d": 121.95100000000093,
      "v": 100
    },
    {
      "midi": 46,
      "hit": false,
      "t": 230731.29200000214,
      "d": 1.0162583333440125,
      "v": 100
    },
    {
      "midi": 40,
      "hit": false,
      "t": 230731.29200000214,
      "d": 1.0162583333440125,
      "v": 100
    },
    {
      "midi": 68,
      "hit": false,
      "t": 230731.29200000453,
      "d": 1219.509999999922,
      "v": 127
    },
    {
      "midi": 68,
      "hit": false,
      "t": 230731.2920000114,
      "d": 60.97549999988405,
      "v": 100
    },
    {
      "midi": 59,
      "hit": false,
      "t": 230731.2920000114,
      "d": 60.97549999988405,
      "v": 100
    },
    {
      "midi": 64,
      "hit": false,
      "t": 230731.2920000114,
      "d": 60.97549999988405,
      "v": 100
    },
    {
      "midi": 40,
      "hit": false,
      "t": 230792.26750000106,
      "d": 182.9265000000014,
      "v": 100
    },
    {
      "midi": 42,
      "hit": false,
      "t": 230853.24300000106,
      "d": 182.9265000000014,
      "v": 100
    },
    {
      "midi": 28,
      "hit": false,
      "t": 230853.24300000112,
      "d": 20.325166666676523,
      "v": 100
    },
    {
      "midi": 68,
      "hit": false,
      "t": 230853.24300000136,
      "d": 121.95100000000093,
      "v": 100
    },
    {
      "midi": 64,
      "hit": false,
      "t": 230853.24300000136,
      "d": 121.95100000000093,
      "v": 100
    },
    {
      "midi": 59,
      "hit": false,
      "t": 230853.24300000136,
      "d": 121.95100000000093,
      "v": 100
    },
    {
      "midi": 44,
      "hit": false,
      "t": 230853.24300000214,
      "d": 1.0162583333440125,
      "v": 100
    },
    {
      "midi": 68,
      "hit": false,
      "t": 230853.24300001128,
      "d": 60.975500000000466,
      "v": 100
    },
    {
      "midi": 59,
      "hit": false,
      "t": 230853.24300001128,
      "d": 60.975500000000466,
      "v": 100
    },
    {
      "midi": 64,
      "hit": false,
      "t": 230853.24300001128,
      "d": 60.975500000000466,
      "v": 100
    },
    {
      "midi": 44,
      "hit": false,
      "t": 230914.21850000106,
      "d": 182.9265000000014,
      "v": 100
    },
    {
      "midi": 47,
      "hit": false,
      "t": 230975.19400000107,
      "d": 182.9265000000014,
      "v": 100
    },
    {
      "midi": 28,
      "hit": false,
      "t": 230975.19400000112,
      "d": 243.90200000000186,
      "v": 100
    },
    {
      "midi": 46,
      "hit": false,
      "t": 230975.19400000214,
      "d": 1.0162583333440125,
      "v": 100
    },
    {
      "midi": 68,
      "hit": false,
      "t": 230975.1940000112,
      "d": 60.975500000000466,
      "v": 100
    },
    {
      "midi": 59,
      "hit": false,
      "t": 230975.1940000112,
      "d": 60.975500000000466,
      "v": 100
    },
    {
      "midi": 64,
      "hit": false,
      "t": 230975.1940000112,
      "d": 60.975500000000466,
      "v": 100
    },
    {
      "midi": 49,
      "hit": false,
      "t": 231036.16950000107,
      "d": 182.9265000000014,
      "v": 100
    },
    {
      "midi": 52,
      "hit": false,
      "t": 231097.14500000107,
      "d": 182.9265000000014,
      "v": 100
    },
    {
      "midi": 68,
      "hit": false,
      "t": 231097.14500000136,
      "d": 121.95100000000093,
      "v": 100
    },
    {
      "midi": 64,
      "hit": false,
      "t": 231097.14500000136,
      "d": 121.95100000000093,
      "v": 100
    },
    {
      "midi": 59,
      "hit": false,
      "t": 231097.14500000136,
      "d": 121.95100000000093,
      "v": 100
    },
    {
      "midi": 44,
      "hit": false,
      "t": 231097.14500000214,
      "d": 1.0162583333440125,
      "v": 100
    },
    {
      "midi": 40,
      "hit": false,
      "t": 231097.14500000214,
      "d": 1.0162583333440125,
      "v": 100
    },
    {
      "midi": 68,
      "hit": false,
      "t": 231097.1450000112,
      "d": 60.975500000000466,
      "v": 100
    },
    {
      "midi": 59,
      "hit": false,
      "t": 231097.1450000112,
      "d": 60.975500000000466,
      "v": 100
    },
    {
      "midi": 64,
      "hit": false,
      "t": 231097.1450000112,
      "d": 60.975500000000466,
      "v": 100
    },
    {
      "midi": 54,
      "hit": false,
      "t": 231158.12050000107,
      "d": 182.9265000000014,
      "v": 100
    },
    {
      "midi": 40,
      "hit": false,
      "t": 231168.2830833355,
      "d": 1.0162583333440125,
      "v": 100
    },
    {
      "midi": 56,
      "hit": false,
      "t": 231219.09600000107,
      "d": 182.9265000000014,
      "v": 100
    },
    {
      "midi": 28,
      "hit": false,
      "t": 231219.09600000113,
      "d": 20.325166666676523,
      "v": 100
    },
    {
      "midi": 68,
      "hit": false,
      "t": 231219.09600000136,
      "d": 121.95100000000093,
      "v": 100
    },
    {
      "midi": 64,
      "hit": false,
      "t": 231219.09600000136,
      "d": 121.95100000000093,
      "v": 100
    },
    {
      "midi": 59,
      "hit": false,
      "t": 231219.09600000136,
      "d": 121.95100000000093,
      "v": 100
    },
    {
      "midi": 42,
      "hit": false,
      "t": 231219.09600000217,
      "d": 1.0162583333440125,
      "v": 100
    },
    {
      "midi": 40,
      "hit": false,
      "t": 231219.09600000217,
      "d": 1.0162583333440125,
      "v": 100
    },
    {
      "midi": 68,
      "hit": false,
      "t": 231219.0960000112,
      "d": 60.97549999988405,
      "v": 100
    },
    {
      "midi": 59,
      "hit": false,
      "t": 231219.0960000112,
      "d": 60.97549999988405,
      "v": 100
    },
    {
      "midi": 64,
      "hit": false,
      "t": 231219.0960000112,
      "d": 60.97549999988405,
      "v": 100
    },
    {
      "midi": 59,
      "hit": false,
      "t": 231280.07150000107,
      "d": 182.9265000000014,
      "v": 100
    },
    {
      "midi": 61,
      "hit": false,
      "t": 231341.04700000107,
      "d": 182.9265000000014,
      "v": 100
    },
    {
      "midi": 28,
      "hit": false,
      "t": 231341.04700000113,
      "d": 243.90200000000186,
      "v": 100
    },
    {
      "midi": 68,
      "hit": false,
      "t": 231341.04700001108,
      "d": 60.975500000000466,
      "v": 100
    },
    {
      "midi": 59,
      "hit": false,
      "t": 231341.04700001108,
      "d": 60.975500000000466,
      "v": 100
    },
    {
      "midi": 64,
      "hit": false,
      "t": 231341.04700001108,
      "d": 60.975500000000466,
      "v": 100
    },
    {
      "midi": 64,
      "hit": false,
      "t": 231402.02250000107,
      "d": 182.9265000000014,
      "v": 100
    },
    {
      "midi": 66,
      "hit": false,
      "t": 231462.99800000107,
      "d": 182.9265000000014,
      "v": 100
    },
    {
      "midi": 68,
      "hit": false,
      "t": 231462.99800000136,
      "d": 121.95100000000093,
      "v": 100
    },
    {
      "midi": 64,
      "hit": false,
      "t": 231462.99800000136,
      "d": 121.95100000000093,
      "v": 100
    },
    {
      "midi": 59,
      "hit": false,
      "t": 231462.99800000136,
      "d": 121.95100000000093,
      "v": 100
    },
    {
      "midi": 46,
      "hit": false,
      "t": 231462.99800000218,
      "d": 1.0162583333440125,
      "v": 100
    },
    {
      "midi": 68,
      "hit": false,
      "t": 231462.998000011,
      "d": 60.975500000000466,
      "v": 100
    },
    {
      "midi": 59,
      "hit": false,
      "t": 231462.998000011,
      "d": 60.975500000000466,
      "v": 100
    },
    {
      "midi": 64,
      "hit": false,
      "t": 231462.998000011,
      "d": 60.975500000000466,
      "v": 100
    },
    {
      "midi": 68,
      "hit": false,
      "t": 231523.97350000107,
      "d": 182.9265000000014,
      "v": 100
    },
    {
      "midi": 71,
      "hit": false,
      "t": 231584.94900000107,
      "d": 182.9265000000014,
      "v": 100
    },
    {
      "midi": 28,
      "hit": false,
      "t": 231584.94900000113,
      "d": 20.325166666676523,
      "v": 100
    },
    {
      "midi": 68,
      "hit": false,
      "t": 231584.94900000136,
      "d": 121.95100000000093,
      "v": 100
    },
    {
      "midi": 64,
      "hit": false,
      "t": 231584.94900000136,
      "d": 121.95100000000093,
      "v": 100
    },
    {
      "midi": 59,
      "hit": false,
      "t": 231584.94900000136,
      "d": 121.95100000000093,
      "v": 100
    },
    {
      "midi": 44,
      "hit": false,
      "t": 231584.94900000218,
      "d": 1.0162583333440125,
      "v": 100
    },
    {
      "midi": 68,
      "hit": false,
      "t": 231584.949000011,
      "d": 60.975500000000466,
      "v": 100
    },
    {
      "midi": 59,
      "hit": false,
      "t": 231584.949000011,
      "d": 60.975500000000466,
      "v": 100
    },
    {
      "midi": 64,
      "hit": false,
      "t": 231584.949000011,
      "d": 60.975500000000466,
      "v": 100
    },
    {
      "midi": 73,
      "hit": false,
      "t": 231645.92450000107,
      "d": 182.9265000000014,
      "v": 100
    },
    {
      "midi": 76,
      "hit": false,
      "t": 231706.90000000107,
      "d": 182.9265000000014,
      "v": 100
    },
    {
      "midi": 28,
      "hit": false,
      "t": 231706.90000000113,
      "d": 243.90200000000186,
      "v": 100
    },
    {
      "midi": 40,
      "hit": false,
      "t": 231706.90000000218,
      "d": 1.0162583333440125,
      "v": 100
    },
    {
      "midi": 46,
      "hit": false,
      "t": 231706.90000000218,
      "d": 1.0162583333440125,
      "v": 100
    },
    {
      "midi": 57,
      "hit": false,
      "t": 231706.90000000218,
      "d": 1.0162583333440125,
      "v": 100
    },
    {
      "midi": 68,
      "hit": false,
      "t": 231706.900000011,
      "d": 243.90199999985634,
      "v": 100
    },
    {
      "midi": 59,
      "hit": false,
      "t": 231706.900000011,
      "d": 243.90199999985634,
      "v": 100
    },
    {
      "midi": 64,
      "hit": false,
      "t": 231706.900000011,
      "d": 243.90199999985634,
      "v": 100
    },
    {
      "midi": 78,
      "hit": false,
      "t": 231767.87550000107,
      "d": 182.9265000000014,
      "v": 100
    },
    {
      "midi": 80,
      "hit": false,
      "t": 231828.85100000107,
      "d": 182.9265000000014,
      "v": 100
    },
    {
      "midi": 44,
      "hit": false,
      "t": 231828.85100000218,
      "d": 1.0162583333440125,
      "v": 100
    },
    {
      "midi": 83,
      "hit": false,
      "t": 231889.82650000107,
      "d": 182.9265000000014,
      "v": 100
    },
    {
      "midi": 85,
      "hit": false,
      "t": 231950.80200000107,
      "d": 182.9265000000014,
      "v": 100
    },
    {
      "midi": 28,
      "hit": false,
      "t": 231950.80200000113,
      "d": 243.90200000000186,
      "v": 100
    },
    {
      "midi": 40,
      "hit": false,
      "t": 231950.80200000218,
      "d": 1.0162583333440125,
      "v": 100
    },
    {
      "midi": 46,
      "hit": false,
      "t": 231950.80200000218,
      "d": 1.0162583333440125,
      "v": 100
    },
    {
      "midi": 66,
      "hit": false,
      "t": 231950.80200000445,
      "d": 121.95100000000093,
      "v": 127
    },
    {
      "midi": 68,
      "hit": false,
      "t": 231950.80200001085,
      "d": 60.975500000000466,
      "v": 100
    },
    {
      "midi": 59,
      "hit": false,
      "t": 231950.80200001085,
      "d": 60.975500000000466,
      "v": 100
    },
    {
      "midi": 64,
      "hit": false,
      "t": 231950.80200001085,
      "d": 60.975500000000466,
      "v": 100
    },
    {
      "midi": 88,
      "hit": false,
      "t": 232011.77750000107,
      "d": 182.9265000000014,
      "v": 100
    },
    {
      "midi": 90,
      "hit": false,
      "t": 232072.75300000107,
      "d": 182.9265000000014,
      "v": 100
    },
    {
      "midi": 40,
      "hit": false,
      "t": 232072.75300000218,
      "d": 1.0162583333440125,
      "v": 100
    },
    {
      "midi": 44,
      "hit": false,
      "t": 232072.75300000218,
      "d": 1.0162583333440125,
      "v": 100
    },
    {
      "midi": 63,
      "hit": false,
      "t": 232072.75300000445,
      "d": 121.95100000000093,
      "v": 127
    },
    {
      "midi": 68,
      "hit": false,
      "t": 232072.75300001085,
      "d": 60.975500000000466,
      "v": 100
    },
    {
      "midi": 59,
      "hit": false,
      "t": 232072.75300001085,
      "d": 60.975500000000466,
      "v": 100
    },
    {
      "midi": 64,
      "hit": false,
      "t": 232072.75300001085,
      "d": 60.975500000000466,
      "v": 100
    },
    {
      "midi": 92,
      "hit": false,
      "t": 232133.72850000107,
      "d": 182.9265000000014,
      "v": 100
    },
    {
      "midi": 85,
      "hit": false,
      "t": 232194.70400000107,
      "d": 243.90200000000186,
      "v": 100
    },
    {
      "midi": 80,
      "hit": false,
      "t": 232194.70400000107,
      "d": 243.90200000000186,
      "v": 100
    },
    {
      "midi": 76,
      "hit": false,
      "t": 232194.70400000107,
      "d": 243.90200000000186,
      "v": 100
    },
    {
      "midi": 54,
      "hit": false,
      "t": 232194.70400000107,
      "d": 1.0162583333440125,
      "v": 80
    },
    {
      "midi": 73,
      "hit": false,
      "t": 232194.7040000011,
      "d": 121.95100000000093,
      "v": 100
    },
    {
      "midi": 37,
      "hit": false,
      "t": 232194.70400000113,
      "d": 243.90200000000186,
      "v": 100
    },
    {
      "midi": 33,
      "hit": false,
      "t": 232194.70400000218,
      "d": 1.0162583333440125,
      "v": 127
    },
    {
      "midi": 42,
      "hit": false,
      "t": 232194.70400000218,
      "d": 1.0162583333440125,
      "v": 100
    },
    {
      "midi": 57,
      "hit": false,
      "t": 232194.70400000218,
      "d": 1.0162583333440125,
      "v": 100
    },
    {
      "midi": 66,
      "hit": false,
      "t": 232194.70400000445,
      "d": 365.8530000000028,
      "v": 127
    },
    {
      "midi": 73,
      "hit": false,
      "t": 232194.70400001085,
      "d": 487.8040000000037,
      "v": 100
    },
    {
      "midi": 68,
      "hit": false,
      "t": 232194.70400001085,
      "d": 487.8040000000037,
      "v": 100
    },
    {
      "midi": 64,
      "hit": false,
      "t": 232194.70400001085,
      "d": 487.8040000000037,
      "v": 100
    },
    {
      "midi": 54,
      "hit": false,
      "t": 232316.65500000108,
      "d": 1.0162583333440125,
      "v": 60
    },
    {
      "midi": 73,
      "hit": false,
      "t": 232316.6550000011,
      "d": 121.95100000000093,
      "v": 100
    },
    {
      "midi": 73,
      "hit": false,
      "t": 232316.65500000137,
      "d": 121.95100000000093,
      "v": 100
    },
    {
      "midi": 68,
      "hit": false,
      "t": 232316.65500000137,
      "d": 121.95100000000093,
      "v": 100
    },
    {
      "midi": 64,
      "hit": false,
      "t": 232316.65500000137,
      "d": 121.95100000000093,
      "v": 100
    },
    {
      "midi": 54,
      "hit": false,
      "t": 232438.60600000108,
      "d": 1.0162583333440125,
      "v": 60
    },
    {
      "midi": 80,
      "hit": false,
      "t": 232438.6060000011,
      "d": 121.95100000000093,
      "v": 100
    },
    {
      "midi": 37,
      "hit": false,
      "t": 232438.60600000113,
      "d": 243.90200000000186,
      "v": 100
    },
    {
      "midi": 73,
      "hit": false,
      "t": 232438.60600000137,
      "d": 121.95100000000093,
      "v": 100
    },
    {
      "midi": 68,
      "hit": false,
      "t": 232438.60600000137,
      "d": 121.95100000000093,
      "v": 100
    },
    {
      "midi": 64,
      "hit": false,
      "t": 232438.60600000137,
      "d": 121.95100000000093,
      "v": 100
    },
    {
      "midi": 46,
      "hit": false,
      "t": 232438.60600000218,
      "d": 1.0162583333440125,
      "v": 100
    },
    {
      "midi": 54,
      "hit": false,
      "t": 232560.55700000108,
      "d": 1.0162583333440125,
      "v": 60
    },
    {
      "midi": 80,
      "hit": false,
      "t": 232560.5570000011,
      "d": 121.95100000000093,
      "v": 100
    },
    {
      "midi": 44,
      "hit": false,
      "t": 232560.55700000218,
      "d": 1.0162583333440125,
      "v": 100
    },
    {
      "midi": 61,
      "hit": false,
      "t": 232560.55700000445,
      "d": 365.8530000000028,
      "v": 127
    },
    {
      "midi": 85,
      "hit": false,
      "t": 232682.50800000108,
      "d": 243.90200000000186,
      "v": 100
    },
    {
      "midi": 80,
      "hit": false,
      "t": 232682.50800000108,
      "d": 243.90200000000186,
      "v": 100
    },
    {
      "midi": 76,
      "hit": false,
      "t": 232682.50800000108,
      "d": 243.90200000000186,
      "v": 100
    },
    {
      "midi": 54,
      "hit": false,
      "t": 232682.50800000108,
      "d": 1.0162583333440125,
      "v": 80
    },
    {
      "midi": 76,
      "hit": false,
      "t": 232682.5080000011,
      "d": 121.95100000000093,
      "v": 100
    },
    {
      "midi": 37,
      "hit": false,
      "t": 232682.50800000114,
      "d": 243.90200000000186,
      "v": 100
    },
    {
      "midi": 73,
      "hit": false,
      "t": 232682.50800000137,
      "d": 121.95100000000093,
      "v": 100
    },
    {
      "midi": 68,
      "hit": false,
      "t": 232682.50800000137,
      "d": 121.95100000000093,
      "v": 100
    },
    {
      "midi": 64,
      "hit": false,
      "t": 232682.50800000137,
      "d": 121.95100000000093,
      "v": 100
    },
    {
      "midi": 33,
      "hit": false,
      "t": 232682.50800000218,
      "d": 1.0162583333440125,
      "v": 127
    },
    {
      "midi": 40,
      "hit": false,
      "t": 232682.50800000218,
      "d": 1.0162583333440125,
      "v": 100
    },
    {
      "midi": 46,
      "hit": false,
      "t": 232682.50800000218,
      "d": 1.0162583333440125,
      "v": 100
    },
    {
      "midi": 73,
      "hit": false,
      "t": 232682.50800001086,
      "d": 60.97549999988405,
      "v": 100
    },
    {
      "midi": 68,
      "hit": false,
      "t": 232682.50800001086,
      "d": 60.97549999988405,
      "v": 100
    },
    {
      "midi": 64,
      "hit": false,
      "t": 232682.50800001086,
      "d": 60.97549999988405,
      "v": 100
    },
    {
      "midi": 54,
      "hit": false,
      "t": 232804.45900000108,
      "d": 1.0162583333440125,
      "v": 60
    },
    {
      "midi": 76,
      "hit": false,
      "t": 232804.4590000011,
      "d": 121.95100000000093,
      "v": 100
    },
    {
      "midi": 44,
      "hit": false,
      "t": 232804.45900000219,
      "d": 1.0162583333440125,
      "v": 100
    },
    {
      "midi": 73,
      "hit": false,
      "t": 232804.45900001074,
      "d": 60.975500000000466,
      "v": 100
    },
    {
      "midi": 68,
      "hit": false,
      "t": 232804.45900001074,
      "d": 60.975500000000466,
      "v": 100
    },
    {
      "midi": 64,
      "hit": false,
      "t": 232804.45900001074,
      "d": 60.975500000000466,
      "v": 100
    },
    {
      "midi": 85,
      "hit": false,
      "t": 232926.41000000108,
      "d": 30.487750000000233,
      "v": 100
    },
    {
      "midi": 80,
      "hit": false,
      "t": 232926.41000000108,
      "d": 30.487750000000233,
      "v": 100
    },
    {
      "midi": 54,
      "hit": false,
      "t": 232926.41000000108,
      "d": 1.0162583333440125,
      "v": 60
    },
    {
      "midi": 83,
      "hit": false,
      "t": 232926.4100000011,
      "d": 121.95100000000093,
      "v": 100
    },
    {
      "midi": 37,
      "hit": false,
      "t": 232926.41000000114,
      "d": 60.975500000000466,
      "v": 100
    },
    {
      "midi": 73,
      "hit": false,
      "t": 232926.41000000137,
      "d": 121.95100000000093,
      "v": 100
    },
    {
      "midi": 68,
      "hit": false,
      "t": 232926.41000000137,
      "d": 121.95100000000093,
      "v": 100
    },
    {
      "midi": 64,
      "hit": false,
      "t": 232926.41000000137,
      "d": 121.95100000000093,
      "v": 100
    },
    {
      "midi": 46,
      "hit": false,
      "t": 232926.4100000022,
      "d": 1.0162583333440125,
      "v": 100
    },
    {
      "midi": 64,
      "hit": false,
      "t": 232926.41000000446,
      "d": 243.90200000000186,
      "v": 127
    },
    {
      "midi": 73,
      "hit": false,
      "t": 232926.41000001066,
      "d": 60.975500000000466,
      "v": 100
    },
    {
      "midi": 68,
      "hit": false,
      "t": 232926.41000001066,
      "d": 60.975500000000466,
      "v": 100
    },
    {
      "midi": 64,
      "hit": false,
      "t": 232926.41000001066,
      "d": 60.975500000000466,
      "v": 100
    },
    {
      "midi": 85,
      "hit": false,
      "t": 233048.36100000108,
      "d": 243.90200000000186,
      "v": 100
    },
    {
      "midi": 81,
      "hit": false,
      "t": 233048.36100000108,
      "d": 243.90200000000186,
      "v": 100
    },
    {
      "midi": 76,
      "hit": false,
      "t": 233048.36100000108,
      "d": 243.90200000000186,
      "v": 100
    },
    {
      "midi": 54,
      "hit": false,
      "t": 233048.36100000108,
      "d": 1.0162583333440125,
      "v": 60
    },
    {
      "midi": 83,
      "hit": false,
      "t": 233048.3610000011,
      "d": 121.95100000000093,
      "v": 100
    },
    {
      "midi": 33,
      "hit": false,
      "t": 233048.36100000114,
      "d": 243.90200000000186,
      "v": 100
    },
    {
      "midi": 44,
      "hit": false,
      "t": 233048.3610000022,
      "d": 1.0162583333440125,
      "v": 100
    },
    {
      "midi": 73,
      "hit": false,
      "t": 233048.36100001066,
      "d": 60.975500000000466,
      "v": 100
    },
    {
      "midi": 68,
      "hit": false,
      "t": 233048.36100001066,
      "d": 60.975500000000466,
      "v": 100
    },
    {
      "midi": 64,
      "hit": false,
      "t": 233048.36100001066,
      "d": 60.975500000000466,
      "v": 100
    },
    {
      "midi": 54,
      "hit": false,
      "t": 233170.31200000108,
      "d": 1.0162583333440125,
      "v": 80
    },
    {
      "midi": 85,
      "hit": false,
      "t": 233170.3120000011,
      "d": 121.95100000000093,
      "v": 100
    },
    {
      "midi": 69,
      "hit": false,
      "t": 233170.31200000137,
      "d": 121.95100000000093,
      "v": 100
    },
    {
      "midi": 64,
      "hit": false,
      "t": 233170.31200000137,
      "d": 121.95100000000093,
      "v": 100
    },
    {
      "midi": 61,
      "hit": false,
      "t": 233170.31200000137,
      "d": 121.95100000000093,
      "v": 100
    },
    {
      "midi": 33,
      "hit": false,
      "t": 233170.3120000022,
      "d": 1.0162583333440125,
      "v": 127
    },
    {
      "midi": 42,
      "hit": false,
      "t": 233170.3120000022,
      "d": 1.0162583333440125,
      "v": 100
    },
    {
      "midi": 64,
      "hit": false,
      "t": 233170.31200000446,
      "d": 975.6079999998037,
      "v": 127
    },
    {
      "midi": 69,
      "hit": false,
      "t": 233170.31200001066,
      "d": 60.97549999988405,
      "v": 100
    },
    {
      "midi": 64,
      "hit": false,
      "t": 233170.31200001066,
      "d": 60.97549999988405,
      "v": 100
    },
    {
      "midi": 61,
      "hit": false,
      "t": 233170.31200001066,
      "d": 60.97549999988405,
      "v": 100
    },
    {
      "midi": 85,
      "hit": false,
      "t": 233292.26300000108,
      "d": 121.95100000000093,
      "v": 100
    },
    {
      "midi": 81,
      "hit": false,
      "t": 233292.26300000108,
      "d": 121.95100000000093,
      "v": 100
    },
    {
      "midi": 76,
      "hit": false,
      "t": 233292.26300000108,
      "d": 121.95100000000093,
      "v": 100
    },
    {
      "midi": 54,
      "hit": false,
      "t": 233292.26300000108,
      "d": 1.0162583333440125,
      "v": 60
    },
    {
      "midi": 85,
      "hit": false,
      "t": 233292.2630000011,
      "d": 121.95100000000093,
      "v": 100
    },
    {
      "midi": 33,
      "hit": false,
      "t": 233292.26300000114,
      "d": 121.95100000000093,
      "v": 100
    },
    {
      "midi": 69,
      "hit": false,
      "t": 233292.26300000137,
      "d": 121.95100000000093,
      "v": 100
    },
    {
      "midi": 64,
      "hit": false,
      "t": 233292.26300000137,
      "d": 121.95100000000093,
      "v": 100
    },
    {
      "midi": 61,
      "hit": false,
      "t": 233292.26300000137,
      "d": 121.95100000000093,
      "v": 100
    },
    {
      "midi": 69,
      "hit": false,
      "t": 233292.26300001054,
      "d": 60.975500000000466,
      "v": 100
    },
    {
      "midi": 64,
      "hit": false,
      "t": 233292.26300001054,
      "d": 60.975500000000466,
      "v": 100
    },
    {
      "midi": 61,
      "hit": false,
      "t": 233292.26300001054,
      "d": 60.975500000000466,
      "v": 100
    },
    {
      "midi": 85,
      "hit": false,
      "t": 233414.21400000108,
      "d": 243.90200000000186,
      "v": 100
    },
    {
      "midi": 81,
      "hit": false,
      "t": 233414.21400000108,
      "d": 243.90200000000186,
      "v": 100
    },
    {
      "midi": 76,
      "hit": false,
      "t": 233414.21400000108,
      "d": 243.90200000000186,
      "v": 100
    },
    {
      "midi": 54,
      "hit": false,
      "t": 233414.21400000108,
      "d": 1.0162583333440125,
      "v": 60
    },
    {
      "midi": 81,
      "hit": false,
      "t": 233414.2140000011,
      "d": 121.95100000000093,
      "v": 100
    },
    {
      "midi": 33,
      "hit": false,
      "t": 233414.21400000114,
      "d": 243.90200000000186,
      "v": 100
    },
    {
      "midi": 46,
      "hit": false,
      "t": 233414.2140000022,
      "d": 1.0162583333440125,
      "v": 100
    },
    {
      "midi": 69,
      "hit": false,
      "t": 233414.21400001046,
      "d": 60.975500000000466,
      "v": 100
    },
    {
      "midi": 64,
      "hit": false,
      "t": 233414.21400001046,
      "d": 60.975500000000466,
      "v": 100
    },
    {
      "midi": 61,
      "hit": false,
      "t": 233414.21400001046,
      "d": 60.975500000000466,
      "v": 100
    },
    {
      "midi": 54,
      "hit": false,
      "t": 233536.16500000108,
      "d": 1.0162583333440125,
      "v": 60
    },
    {
      "midi": 81,
      "hit": false,
      "t": 233536.1650000011,
      "d": 121.95100000000093,
      "v": 100
    },
    {
      "midi": 69,
      "hit": false,
      "t": 233536.16500000138,
      "d": 121.95100000000093,
      "v": 100
    },
    {
      "midi": 64,
      "hit": false,
      "t": 233536.16500000138,
      "d": 121.95100000000093,
      "v": 100
    },
    {
      "midi": 61,
      "hit": false,
      "t": 233536.16500000138,
      "d": 121.95100000000093,
      "v": 100
    },
    {
      "midi": 44,
      "hit": false,
      "t": 233536.1650000022,
      "d": 1.0162583333440125,
      "v": 100
    },
    {
      "midi": 69,
      "hit": false,
      "t": 233536.16500001046,
      "d": 60.975500000000466,
      "v": 100
    },
    {
      "midi": 64,
      "hit": false,
      "t": 233536.16500001046,
      "d": 60.975500000000466,
      "v": 100
    },
    {
      "midi": 61,
      "hit": false,
      "t": 233536.16500001046,
      "d": 60.975500000000466,
      "v": 100
    },
    {
      "midi": 85,
      "hit": false,
      "t": 233658.1160000011,
      "d": 243.90200000000186,
      "v": 100
    },
    {
      "midi": 81,
      "hit": false,
      "t": 233658.1160000011,
      "d": 243.90200000000186,
      "v": 100
    },
    {
      "midi": 76,
      "hit": false,
      "t": 233658.1160000011,
      "d": 243.90200000000186,
      "v": 100
    },
    {
      "midi": 54,
      "hit": false,
      "t": 233658.1160000011,
      "d": 1.0162583333440125,
      "v": 80
    },
    {
      "midi": 76,
      "hit": false,
      "t": 233658.11600000112,
      "d": 121.95100000000093,
      "v": 100
    },
    {
      "midi": 33,
      "hit": false,
      "t": 233658.11600000114,
      "d": 243.90200000000186,
      "v": 100
    },
    {
      "midi": 33,
      "hit": false,
      "t": 233658.1160000022,
      "d": 1.0162583333440125,
      "v": 127
    },
    {
      "midi": 40,
      "hit": false,
      "t": 233658.1160000022,
      "d": 1.0162583333440125,
      "v": 100
    },
    {
      "midi": 46,
      "hit": false,
      "t": 233658.1160000022,
      "d": 1.0162583333440125,
      "v": 100
    },
    {
      "midi": 69,
      "hit": false,
      "t": 233658.11600001046,
      "d": 243.90199999985634,
      "v": 100
    },
    {
      "midi": 64,
      "hit": false,
      "t": 233658.11600001046,
      "d": 243.90199999985634,
      "v": 100
    },
    {
      "midi": 61,
      "hit": false,
      "t": 233658.11600001046,
      "d": 243.90199999985634,
      "v": 100
    },
    {
      "midi": 54,
      "hit": false,
      "t": 233780.0670000011,
      "d": 1.0162583333440125,
      "v": 60
    },
    {
      "midi": 76,
      "hit": false,
      "t": 233780.06700000112,
      "d": 121.95100000000093,
      "v": 100
    },
    {
      "midi": 44,
      "hit": false,
      "t": 233780.0670000022,
      "d": 1.0162583333440125,
      "v": 100
    },
    {
      "midi": 85,
      "hit": false,
      "t": 233902.0180000011,
      "d": 243.90200000000186,
      "v": 100
    },
    {
      "midi": 81,
      "hit": false,
      "t": 233902.0180000011,
      "d": 243.90200000000186,
      "v": 100
    },
    {
      "midi": 76,
      "hit": false,
      "t": 233902.0180000011,
      "d": 243.90200000000186,
      "v": 100
    },
    {
      "midi": 54,
      "hit": false,
      "t": 233902.0180000011,
      "d": 1.0162583333440125,
      "v": 60
    },
    {
      "midi": 73,
      "hit": false,
      "t": 233902.01800000112,
      "d": 121.95100000000093,
      "v": 100
    },
    {
      "midi": 33,
      "hit": false,
      "t": 233902.01800000115,
      "d": 243.90200000000186,
      "v": 100
    },
    {
      "midi": 40,
      "hit": false,
      "t": 233902.0180000022,
      "d": 1.0162583333440125,
      "v": 40
    },
    {
      "midi": 46,
      "hit": false,
      "t": 233902.0180000022,
      "d": 1.0162583333440125,
      "v": 100
    },
    {
      "midi": 69,
      "hit": false,
      "t": 233902.0180000103,
      "d": 60.975500000000466,
      "v": 100
    },
    {
      "midi": 64,
      "hit": false,
      "t": 233902.0180000103,
      "d": 60.975500000000466,
      "v": 100
    },
    {
      "midi": 61,
      "hit": false,
      "t": 233902.0180000103,
      "d": 60.975500000000466,
      "v": 100
    },
    {
      "midi": 54,
      "hit": false,
      "t": 234023.9690000011,
      "d": 1.0162583333440125,
      "v": 60
    },
    {
      "midi": 73,
      "hit": false,
      "t": 234023.96900000112,
      "d": 121.95100000000093,
      "v": 100
    },
    {
      "midi": 40,
      "hit": false,
      "t": 234023.9690000022,
      "d": 1.0162583333440125,
      "v": 100
    },
    {
      "midi": 44,
      "hit": false,
      "t": 234023.9690000022,
      "d": 1.0162583333440125,
      "v": 100
    },
    {
      "midi": 69,
      "hit": false,
      "t": 234023.96900001031,
      "d": 60.975500000000466,
      "v": 100
    },
    {
      "midi": 64,
      "hit": false,
      "t": 234023.96900001031,
      "d": 60.975500000000466,
      "v": 100
    },
    {
      "midi": 61,
      "hit": false,
      "t": 234023.96900001031,
      "d": 60.975500000000466,
      "v": 100
    },
    {
      "midi": 87,
      "hit": false,
      "t": 234145.9200000011,
      "d": 243.90200000000186,
      "v": 100
    },
    {
      "midi": 83,
      "hit": false,
      "t": 234145.9200000011,
      "d": 243.90200000000186,
      "v": 100
    },
    {
      "midi": 78,
      "hit": false,
      "t": 234145.9200000011,
      "d": 243.90200000000186,
      "v": 100
    },
    {
      "midi": 54,
      "hit": false,
      "t": 234145.9200000011,
      "d": 1.0162583333440125,
      "v": 80
    },
    {
      "midi": 71,
      "hit": false,
      "t": 234145.92000000112,
      "d": 121.95100000000093,
      "v": 100
    },
    {
      "midi": 35,
      "hit": false,
      "t": 234145.92000000115,
      "d": 243.90200000000186,
      "v": 100
    },
    {
      "midi": 33,
      "hit": false,
      "t": 234145.9200000022,
      "d": 1.0162583333440125,
      "v": 127
    },
    {
      "midi": 42,
      "hit": false,
      "t": 234145.9200000022,
      "d": 1.0162583333440125,
      "v": 100
    },
    {
      "midi": 63,
      "hit": false,
      "t": 234145.92000000426,
      "d": 365.8530000000028,
      "v": 127
    },
    {
      "midi": 71,
      "hit": false,
      "t": 234145.92000001032,
      "d": 487.8040000000037,
      "v": 100
    },
    {
      "midi": 66,
      "hit": false,
      "t": 234145.92000001032,
      "d": 487.8040000000037,
      "v": 100
    },
    {
      "midi": 63,
      "hit": false,
      "t": 234145.92000001032,
      "d": 487.8040000000037,
      "v": 100
    },
    {
      "midi": 54,
      "hit": false,
      "t": 234267.8710000011,
      "d": 1.0162583333440125,
      "v": 60
    },
    {
      "midi": 71,
      "hit": false,
      "t": 234267.87100000112,
      "d": 121.95100000000093,
      "v": 100
    },
    {
      "midi": 71,
      "hit": false,
      "t": 234267.87100000138,
      "d": 121.95100000000093,
      "v": 100
    },
    {
      "midi": 66,
      "hit": false,
      "t": 234267.87100000138,
      "d": 121.95100000000093,
      "v": 100
    },
    {
      "midi": 63,
      "hit": false,
      "t": 234267.87100000138,
      "d": 121.95100000000093,
      "v": 100
    },
    {
      "midi": 54,
      "hit": false,
      "t": 234389.8220000011,
      "d": 1.0162583333440125,
      "v": 60
    },
    {
      "midi": 75,
      "hit": false,
      "t": 234389.82200000112,
      "d": 121.95100000000093,
      "v": 100
    },
    {
      "midi": 35,
      "hit": false,
      "t": 234389.82200000115,
      "d": 243.90200000000186,
      "v": 100
    },
    {
      "midi": 71,
      "hit": false,
      "t": 234389.82200000138,
      "d": 121.95100000000093,
      "v": 100
    },
    {
      "midi": 66,
      "hit": false,
      "t": 234389.82200000138,
      "d": 121.95100000000093,
      "v": 100
    },
    {
      "midi": 63,
      "hit": false,
      "t": 234389.82200000138,
      "d": 121.95100000000093,
      "v": 100
    },
    {
      "midi": 46,
      "hit": false,
      "t": 234389.8220000022,
      "d": 1.0162583333440125,
      "v": 100
    },
    {
      "midi": 54,
      "hit": false,
      "t": 234511.7730000011,
      "d": 1.0162583333440125,
      "v": 60
    },
    {
      "midi": 75,
      "hit": false,
      "t": 234511.77300000112,
      "d": 121.95100000000093,
      "v": 100
    },
    {
      "midi": 44,
      "hit": false,
      "t": 234511.7730000022,
      "d": 1.0162583333440125,
      "v": 100
    },
    {
      "midi": 61,
      "hit": false,
      "t": 234511.77300000426,
      "d": 365.8530000000028,
      "v": 127
    },
    {
      "midi": 83,
      "hit": false,
      "t": 234633.7240000011,
      "d": 243.90200000000186,
      "v": 100
    },
    {
      "midi": 78,
      "hit": false,
      "t": 234633.7240000011,
      "d": 243.90200000000186,
      "v": 100
    },
    {
      "midi": 54,
      "hit": false,
      "t": 234633.7240000011,
      "d": 1.0162583333440125,
      "v": 80
    },
    {
      "midi": 71,
      "hit": false,
      "t": 234633.72400000112,
      "d": 121.95100000000093,
      "v": 100
    },
    {
      "midi": 35,
      "hit": false,
      "t": 234633.72400000115,
      "d": 243.90200000000186,
      "v": 100
    },
    {
      "midi": 71,
      "hit": false,
      "t": 234633.72400000138,
      "d": 121.95100000000093,
      "v": 100
    },
    {
      "midi": 66,
      "hit": false,
      "t": 234633.72400000138,
      "d": 121.95100000000093,
      "v": 100
    },
    {
      "midi": 63,
      "hit": false,
      "t": 234633.72400000138,
      "d": 121.95100000000093,
      "v": 100
    },
    {
      "midi": 33,
      "hit": false,
      "t": 234633.7240000022,
      "d": 1.0162583333440125,
      "v": 127
    },
    {
      "midi": 40,
      "hit": false,
      "t": 234633.7240000022,
      "d": 1.0162583333440125,
      "v": 100
    },
    {
      "midi": 46,
      "hit": false,
      "t": 234633.7240000022,
      "d": 1.0162583333440125,
      "v": 100
    },
    {
      "midi": 71,
      "hit": false,
      "t": 234633.72400001032,
      "d": 60.97549999988405,
      "v": 100
    },
    {
      "midi": 66,
      "hit": false,
      "t": 234633.72400001032,
      "d": 60.97549999988405,
      "v": 100
    },
    {
      "midi": 63,
      "hit": false,
      "t": 234633.72400001032,
      "d": 60.97549999988405,
      "v": 100
    },
    {
      "midi": 54,
      "hit": false,
      "t": 234755.6750000011,
      "d": 1.0162583333440125,
      "v": 60
    },
    {
      "midi": 71,
      "hit": false,
      "t": 234755.67500000112,
      "d": 121.95100000000093,
      "v": 100
    },
    {
      "midi": 44,
      "hit": false,
      "t": 234755.6750000022,
      "d": 1.0162583333440125,
      "v": 100
    },
    {
      "midi": 71,
      "hit": false,
      "t": 234755.6750000102,
      "d": 60.975500000000466,
      "v": 100
    },
    {
      "midi": 66,
      "hit": false,
      "t": 234755.6750000102,
      "d": 60.975500000000466,
      "v": 100
    },
    {
      "midi": 63,
      "hit": false,
      "t": 234755.6750000102,
      "d": 60.975500000000466,
      "v": 100
    },
    {
      "midi": 78,
      "hit": false,
      "t": 234877.6260000011,
      "d": 40.65033333332394,
      "v": 100
    },
    {
      "midi": 83,
      "hit": false,
      "t": 234877.6260000011,
      "d": 40.65033333332394,
      "v": 100
    },
    {
      "midi": 54,
      "hit": false,
      "t": 234877.6260000011,
      "d": 1.0162583333440125,
      "v": 60
    },
    {
      "midi": 80,
      "hit": false,
      "t": 234877.62600000112,
      "d": 121.95100000000093,
      "v": 100
    },
    {
      "midi": 35,
      "hit": false,
      "t": 234877.62600000115,
      "d": 71.13808333332418,
      "v": 100
    },
    {
      "midi": 71,
      "hit": false,
      "t": 234877.6260000014,
      "d": 121.95100000000093,
      "v": 100
    },
    {
      "midi": 66,
      "hit": false,
      "t": 234877.6260000014,
      "d": 121.95100000000093,
      "v": 100
    },
    {
      "midi": 63,
      "hit": false,
      "t": 234877.6260000014,
      "d": 121.95100000000093,
      "v": 100
    },
    {
      "midi": 46,
      "hit": false,
      "t": 234877.6260000022,
      "d": 1.0162583333440125,
      "v": 100
    },
    {
      "midi": 59,
      "hit": false,
      "t": 234877.62600000427,
      "d": 243.90200000000186,
      "v": 127
    },
    {
      "midi": 71,
      "hit": false,
      "t": 234877.62600001012,
      "d": 60.975500000000466,
      "v": 100
    },
    {
      "midi": 66,
      "hit": false,
      "t": 234877.62600001012,
      "d": 60.975500000000466,
      "v": 100
    },
    {
      "midi": 63,
      "hit": false,
      "t": 234877.62600001012,
      "d": 60.975500000000466,
      "v": 100
    },
    {
      "midi": 83,
      "hit": false,
      "t": 234999.5770000011,
      "d": 243.90200000000186,
      "v": 100
    },
    {
      "midi": 78,
      "hit": false,
      "t": 234999.5770000011,
      "d": 243.90200000000186,
      "v": 100
    },
    {
      "midi": 75,
      "hit": false,
      "t": 234999.5770000011,
      "d": 325.20266666667885,
      "v": 100
    },
    {
      "midi": 54,
      "hit": false,
      "t": 234999.5770000011,
      "d": 1.0162583333440125,
      "v": 60
    },
    {
      "midi": 80,
      "hit": false,
      "t": 234999.57700000113,
      "d": 121.95100000000093,
      "v": 100
    },
    {
      "midi": 32,
      "hit": false,
      "t": 234999.57700000115,
      "d": 243.90200000000186,
      "v": 100
    },
    {
      "midi": 44,
      "hit": false,
      "t": 234999.5770000022,
      "d": 1.0162583333440125,
      "v": 100
    },
    {
      "midi": 71,
      "hit": false,
      "t": 234999.57700001012,
      "d": 60.975500000000466,
      "v": 100
    },
    {
      "midi": 66,
      "hit": false,
      "t": 234999.57700001012,
      "d": 60.975500000000466,
      "v": 100
    },
    {
      "midi": 63,
      "hit": false,
      "t": 234999.57700001012,
      "d": 60.975500000000466,
      "v": 100
    },
    {
      "midi": 54,
      "hit": false,
      "t": 235121.5280000011,
      "d": 1.0162583333440125,
      "v": 80
    },
    {
      "midi": 80,
      "hit": false,
      "t": 235121.52800000113,
      "d": 121.95100000000093,
      "v": 100
    },
    {
      "midi": 68,
      "hit": false,
      "t": 235121.5280000014,
      "d": 121.95100000000093,
      "v": 100
    },
    {
      "midi": 64,
      "hit": false,
      "t": 235121.5280000014,
      "d": 121.95100000000093,
      "v": 100
    },
    {
      "midi": 59,
      "hit": false,
      "t": 235121.5280000014,
      "d": 121.95100000000093,
      "v": 100
    },
    {
      "midi": 33,
      "hit": false,
      "t": 235121.5280000022,
      "d": 1.0162583333440125,
      "v": 127
    },
    {
      "midi": 42,
      "hit": false,
      "t": 235121.5280000022,
      "d": 1.0162583333440125,
      "v": 100
    },
    {
      "midi": 71,
      "hit": false,
      "t": 235121.52800000427,
      "d": 853.6569999999774,
      "v": 127
    },
    {
      "midi": 59,
      "hit": false,
      "t": 235121.52800000427,
      "d": 853.6569999999774,
      "v": 127
    },
    {
      "midi": 68,
      "hit": false,
      "t": 235121.52800001012,
      "d": 60.97549999988405,
      "v": 100
    },
    {
      "midi": 63,
      "hit": false,
      "t": 235121.52800001012,
      "d": 60.97549999988405,
      "v": 100
    },
    {
      "midi": 59,
      "hit": false,
      "t": 235121.52800001012,
      "d": 60.97549999988405,
      "v": 100
    },
    {
      "midi": 54,
      "hit": false,
      "t": 235243.4790000011,
      "d": 1.0162583333440125,
      "v": 60
    },
    {
      "midi": 80,
      "hit": false,
      "t": 235243.47900000113,
      "d": 121.95100000000093,
      "v": 100
    },
    {
      "midi": 32,
      "hit": false,
      "t": 235243.47900000116,
      "d": 121.95100000000093,
      "v": 100
    },
    {
      "midi": 68,
      "hit": false,
      "t": 235243.4790000014,
      "d": 121.95100000000093,
      "v": 100
    },
    {
      "midi": 64,
      "hit": false,
      "t": 235243.4790000014,
      "d": 121.95100000000093,
      "v": 100
    },
    {
      "midi": 59,
      "hit": false,
      "t": 235243.4790000014,
      "d": 121.95100000000093,
      "v": 100
    },
    {
      "midi": 68,
      "hit": false,
      "t": 235243.47900001,
      "d": 60.975500000000466,
      "v": 100
    },
    {
      "midi": 63,
      "hit": false,
      "t": 235243.47900001,
      "d": 60.975500000000466,
      "v": 100
    },
    {
      "midi": 59,
      "hit": false,
      "t": 235243.47900001,
      "d": 60.975500000000466,
      "v": 100
    },
    {
      "midi": 75,
      "hit": false,
      "t": 235365.4300000011,
      "d": 243.90200000000186,
      "v": 100
    },
    {
      "midi": 83,
      "hit": false,
      "t": 235365.4300000011,
      "d": 243.90200000000186,
      "v": 100
    },
    {
      "midi": 78,
      "hit": false,
      "t": 235365.4300000011,
      "d": 243.90200000000186,
      "v": 100
    },
    {
      "midi": 54,
      "hit": false,
      "t": 235365.4300000011,
      "d": 1.0162583333440125,
      "v": 60
    },
    {
      "midi": 80,
      "hit": false,
      "t": 235365.43000000113,
      "d": 121.95100000000093,
      "v": 100
    },
    {
      "midi": 32,
      "hit": false,
      "t": 235365.43000000116,
      "d": 243.90200000000186,
      "v": 100
    },
    {
      "midi": 46,
      "hit": false,
      "t": 235365.4300000022,
      "d": 1.0162583333440125,
      "v": 100
    },
    {
      "midi": 68,
      "hit": false,
      "t": 235365.43000000992,
      "d": 60.975500000000466,
      "v": 100
    },
    {
      "midi": 63,
      "hit": false,
      "t": 235365.43000000992,
      "d": 60.975500000000466,
      "v": 100
    },
    {
      "midi": 59,
      "hit": false,
      "t": 235365.43000000992,
      "d": 60.975500000000466,
      "v": 100
    },
    {
      "midi": 54,
      "hit": false,
      "t": 235487.3810000011,
      "d": 1.0162583333440125,
      "v": 60
    },
    {
      "midi": 80,
      "hit": false,
      "t": 235487.38100000113,
      "d": 121.95100000000093,
      "v": 100
    },
    {
      "midi": 68,
      "hit": false,
      "t": 235487.3810000014,
      "d": 121.95100000000093,
      "v": 100
    },
    {
      "midi": 64,
      "hit": false,
      "t": 235487.3810000014,
      "d": 121.95100000000093,
      "v": 100
    },
    {
      "midi": 59,
      "hit": false,
      "t": 235487.3810000014,
      "d": 121.95100000000093,
      "v": 100
    },
    {
      "midi": 44,
      "hit": false,
      "t": 235487.3810000022,
      "d": 1.0162583333440125,
      "v": 100
    },
    {
      "midi": 68,
      "hit": false,
      "t": 235487.38100000992,
      "d": 60.975500000000466,
      "v": 100
    },
    {
      "midi": 63,
      "hit": false,
      "t": 235487.38100000992,
      "d": 60.975500000000466,
      "v": 100
    },
    {
      "midi": 59,
      "hit": false,
      "t": 235487.38100000992,
      "d": 60.975500000000466,
      "v": 100
    },
    {
      "midi": 75,
      "hit": false,
      "t": 235609.3320000011,
      "d": 243.90200000000186,
      "v": 100
    },
    {
      "midi": 80,
      "hit": false,
      "t": 235609.3320000011,
      "d": 243.90200000000186,
      "v": 100
    },
    {
      "midi": 78,
      "hit": false,
      "t": 235609.3320000011,
      "d": 243.90200000000186,
      "v": 100
    },
    {
      "midi": 54,
      "hit": false,
      "t": 235609.3320000011,
      "d": 1.0162583333440125,
      "v": 80
    },
    {
      "midi": 75,
      "hit": false,
      "t": 235609.33200000113,
      "d": 121.95100000000093,
      "v": 100
    },
    {
      "midi": 30,
      "hit": false,
      "t": 235609.33200000116,
      "d": 243.90200000000186,
      "v": 100
    },
    {
      "midi": 33,
      "hit": false,
      "t": 235609.3320000022,
      "d": 1.0162583333440125,
      "v": 127
    },
    {
      "midi": 40,
      "hit": false,
      "t": 235609.3320000022,
      "d": 1.0162583333440125,
      "v": 100
    },
    {
      "midi": 46,
      "hit": false,
      "t": 235609.3320000022,
      "d": 1.0162583333440125,
      "v": 100
    },
    {
      "midi": 68,
      "hit": false,
      "t": 235609.33200000992,
      "d": 243.90199999985634,
      "v": 100
    },
    {
      "midi": 63,
      "hit": false,
      "t": 235609.33200000992,
      "d": 243.90199999985634,
      "v": 100
    },
    {
      "midi": 59,
      "hit": false,
      "t": 235609.33200000992,
      "d": 243.90199999985634,
      "v": 100
    },
    {
      "midi": 54,
      "hit": false,
      "t": 235731.2830000011,
      "d": 1.0162583333440125,
      "v": 60
    },
    {
      "midi": 75,
      "hit": false,
      "t": 235731.28300000113,
      "d": 121.95100000000093,
      "v": 100
    },
    {
      "midi": 44,
      "hit": false,
      "t": 235731.2830000022,
      "d": 1.0162583333440125,
      "v": 100
    },
    {
      "midi": 75,
      "hit": false,
      "t": 235853.2340000011,
      "d": 243.90200000000186,
      "v": 100
    },
    {
      "midi": 83,
      "hit": false,
      "t": 235853.2340000011,
      "d": 243.90200000000186,
      "v": 100
    },
    {
      "midi": 78,
      "hit": false,
      "t": 235853.2340000011,
      "d": 243.90200000000186,
      "v": 100
    },
    {
      "midi": 54,
      "hit": false,
      "t": 235853.2340000011,
      "d": 1.0162583333440125,
      "v": 60
    },
    {
      "midi": 80,
      "hit": false,
      "t": 235853.23400000113,
      "d": 121.95100000000093,
      "v": 100
    },
    {
      "midi": 32,
      "hit": false,
      "t": 235853.23400000116,
      "d": 243.90200000000186,
      "v": 100
    },
    {
      "midi": 40,
      "hit": false,
      "t": 235853.2340000022,
      "d": 1.0162583333440125,
      "v": 40
    },
    {
      "midi": 46,
      "hit": false,
      "t": 235853.2340000022,
      "d": 1.0162583333440125,
      "v": 100
    },
    {
      "midi": 68,
      "hit": false,
      "t": 235853.23400000978,
      "d": 60.975500000000466,
      "v": 100
    },
    {
      "midi": 63,
      "hit": false,
      "t": 235853.23400000978,
      "d": 60.975500000000466,
      "v": 100
    },
    {
      "midi": 59,
      "hit": false,
      "t": 235853.23400000978,
      "d": 60.975500000000466,
      "v": 100
    },
    {
      "midi": 54,
      "hit": false,
      "t": 235975.1850000011,
      "d": 1.0162583333440125,
      "v": 60
    },
    {
      "midi": 80,
      "hit": false,
      "t": 235975.18500000113,
      "d": 121.95100000000093,
      "v": 100
    },
    {
      "midi": 40,
      "hit": false,
      "t": 235975.1850000022,
      "d": 1.0162583333440125,
      "v": 100
    },
    {
      "midi": 44,
      "hit": false,
      "t": 235975.1850000022,
      "d": 1.0162583333440125,
      "v": 100
    },
    {
      "midi": 56,
      "hit": false,
      "t": 235975.18500000425,
      "d": 121.95100000000093,
      "v": 127
    },
    {
      "midi": 68,
      "hit": false,
      "t": 235975.18500000978,
      "d": 60.975500000000466,
      "v": 100
    },
    {
      "midi": 63,
      "hit": false,
      "t": 235975.18500000978,
      "d": 60.975500000000466,
      "v": 100
    },
    {
      "midi": 59,
      "hit": false,
      "t": 235975.18500000978,
      "d": 60.975500000000466,
      "v": 100
    },
    {
      "midi": 81,
      "hit": false,
      "t": 236097.1360000011,
      "d": 243.90200000000186,
      "v": 100
    },
    {
      "midi": 76,
      "hit": false,
      "t": 236097.1360000011,
      "d": 243.90200000000186,
      "v": 100
    },
    {
      "midi": 73,
      "hit": false,
      "t": 236097.1360000011,
      "d": 243.90200000000186,
      "v": 100
    },
    {
      "midi": 54,
      "hit": false,
      "t": 236097.1360000011,
      "d": 1.0162583333440125,
      "v": 80
    },
    {
      "midi": 73,
      "hit": false,
      "t": 236097.13600000113,
      "d": 121.95100000000093,
      "v": 100
    },
    {
      "midi": 33,
      "hit": false,
      "t": 236097.13600000116,
      "d": 243.90200000000186,
      "v": 100
    },
    {
      "midi": 33,
      "hit": false,
      "t": 236097.1360000022,
      "d": 1.0162583333440125,
      "v": 127
    },
    {
      "midi": 42,
      "hit": false,
      "t": 236097.1360000022,
      "d": 1.0162583333440125,
      "v": 100
    },
    {
      "midi": 57,
      "hit": false,
      "t": 236097.13600000425,
      "d": 162.60133333332487,
      "v": 127
    },
    {
      "midi": 69,
      "hit": false,
      "t": 236097.13600000978,
      "d": 487.8040000000037,
      "v": 100
    },
    {
      "midi": 64,
      "hit": false,
      "t": 236097.13600000978,
      "d": 487.8040000000037,
      "v": 100
    },
    {
      "midi": 61,
      "hit": false,
      "t": 236097.13600000978,
      "d": 487.8040000000037,
      "v": 100
    },
    {
      "midi": 54,
      "hit": false,
      "t": 236219.0870000011,
      "d": 1.0162583333440125,
      "v": 60
    },
    {
      "midi": 73,
      "hit": false,
      "t": 236219.08700000113,
      "d": 121.95100000000093,
      "v": 100
    },
    {
      "midi": 69,
      "hit": false,
      "t": 236219.0870000014,
      "d": 121.95100000000093,
      "v": 100
    },
    {
      "midi": 64,
      "hit": false,
      "t": 236219.0870000014,
      "d": 121.95100000000093,
      "v": 100
    },
    {
      "midi": 61,
      "hit": false,
      "t": 236219.0870000014,
      "d": 121.95100000000093,
      "v": 100
    },
    {
      "midi": 59,
      "hit": false,
      "t": 236259.73733333757,
      "d": 162.60133333332487,
      "v": 127
    },
    {
      "midi": 54,
      "hit": false,
      "t": 236341.0380000011,
      "d": 1.0162583333440125,
      "v": 60
    },
    {
      "midi": 69,
      "hit": false,
      "t": 236341.03800000114,
      "d": 121.95100000000093,
      "v": 100
    },
    {
      "midi": 33,
      "hit": false,
      "t": 236341.03800000116,
      "d": 243.90200000000186,
      "v": 100
    },
    {
      "midi": 69,
      "hit": false,
      "t": 236341.0380000014,
      "d": 121.95100000000093,
      "v": 100
    },
    {
      "midi": 64,
      "hit": false,
      "t": 236341.0380000014,
      "d": 121.95100000000093,
      "v": 100
    },
    {
      "midi": 61,
      "hit": false,
      "t": 236341.0380000014,
      "d": 121.95100000000093,
      "v": 100
    },
    {
      "midi": 46,
      "hit": false,
      "t": 236341.0380000022,
      "d": 1.0162583333440125,
      "v": 100
    },
    {
      "midi": 61,
      "hit": false,
      "t": 236422.3386666709,
      "d": 162.60133333332487,
      "v": 127
    },
    {
      "midi": 54,
      "hit": false,
      "t": 236462.9890000011,
      "d": 1.0162583333440125,
      "v": 60
    },
    {
      "midi": 69,
      "hit": false,
      "t": 236462.98900000114,
      "d": 121.95100000000093,
      "v": 100
    },
    {
      "midi": 44,
      "hit": false,
      "t": 236462.9890000022,
      "d": 1.0162583333440125,
      "v": 100
    },
    {
      "midi": 81,
      "hit": false,
      "t": 236584.9400000011,
      "d": 243.90200000000186,
      "v": 100
    },
    {
      "midi": 76,
      "hit": false,
      "t": 236584.9400000011,
      "d": 243.90200000000186,
      "v": 100
    },
    {
      "midi": 73,
      "hit": false,
      "t": 236584.9400000011,
      "d": 243.90200000000186,
      "v": 100
    },
    {
      "midi": 54,
      "hit": false,
      "t": 236584.9400000011,
      "d": 1.0162583333440125,
      "v": 80
    },
    {
      "midi": 73,
      "hit": false,
      "t": 236584.94000000114,
      "d": 121.95100000000093,
      "v": 100
    },
    {
      "midi": 33,
      "hit": false,
      "t": 236584.94000000117,
      "d": 243.90200000000186,
      "v": 100
    },
    {
      "midi": 69,
      "hit": false,
      "t": 236584.9400000014,
      "d": 121.95100000000093,
      "v": 100
    },
    {
      "midi": 64,
      "hit": false,
      "t": 236584.9400000014,
      "d": 121.95100000000093,
      "v": 100
    },
    {
      "midi": 61,
      "hit": false,
      "t": 236584.9400000014,
      "d": 121.95100000000093,
      "v": 100
    },
    {
      "midi": 33,
      "hit": false,
      "t": 236584.9400000022,
      "d": 1.0162583333440125,
      "v": 127
    },
    {
      "midi": 40,
      "hit": false,
      "t": 236584.9400000022,
      "d": 1.0162583333440125,
      "v": 100
    },
    {
      "midi": 46,
      "hit": false,
      "t": 236584.9400000022,
      "d": 1.0162583333440125,
      "v": 100
    },
    {
      "midi": 63,
      "hit": false,
      "t": 236584.94000000422,
      "d": 162.60133333332487,
      "v": 127
    },
    {
      "midi": 69,
      "hit": false,
      "t": 236584.94000000978,
      "d": 60.97549999988405,
      "v": 100
    },
    {
      "midi": 64,
      "hit": false,
      "t": 236584.94000000978,
      "d": 60.97549999988405,
      "v": 100
    },
    {
      "midi": 61,
      "hit": false,
      "t": 236584.94000000978,
      "d": 60.97549999988405,
      "v": 100
    },
    {
      "midi": 54,
      "hit": false,
      "t": 236706.8910000011,
      "d": 1.0162583333440125,
      "v": 60
    },
    {
      "midi": 73,
      "hit": false,
      "t": 236706.89100000114,
      "d": 121.95100000000093,
      "v": 100
    },
    {
      "midi": 44,
      "hit": false,
      "t": 236706.89100000222,
      "d": 1.0162583333440125,
      "v": 100
    },
    {
      "midi": 69,
      "hit": false,
      "t": 236706.89100000967,
      "d": 60.975500000000466,
      "v": 100
    },
    {
      "midi": 64,
      "hit": false,
      "t": 236706.89100000967,
      "d": 60.975500000000466,
      "v": 100
    },
    {
      "midi": 61,
      "hit": false,
      "t": 236706.89100000967,
      "d": 60.975500000000466,
      "v": 100
    },
    {
      "midi": 64,
      "hit": false,
      "t": 236747.54133333755,
      "d": 162.60133333332487,
      "v": 127
    },
    {
      "midi": 54,
      "hit": false,
      "t": 236828.8420000011,
      "d": 1.0162583333440125,
      "v": 60
    },
    {
      "midi": 78,
      "hit": false,
      "t": 236828.84200000114,
      "d": 121.95100000000093,
      "v": 100
    },
    {
      "midi": 33,
      "hit": false,
      "t": 236828.84200000117,
      "d": 71.13808333332418,
      "v": 100
    },
    {
      "midi": 69,
      "hit": false,
      "t": 236828.8420000014,
      "d": 121.95100000000093,
      "v": 100
    },
    {
      "midi": 64,
      "hit": false,
      "t": 236828.8420000014,
      "d": 121.95100000000093,
      "v": 100
    },
    {
      "midi": 61,
      "hit": false,
      "t": 236828.8420000014,
      "d": 121.95100000000093,
      "v": 100
    },
    {
      "midi": 46,
      "hit": false,
      "t": 236828.84200000222,
      "d": 1.0162583333440125,
      "v": 100
    },
    {
      "midi": 69,
      "hit": false,
      "t": 236828.84200000958,
      "d": 60.975500000000466,
      "v": 100
    },
    {
      "midi": 64,
      "hit": false,
      "t": 236828.84200000958,
      "d": 60.975500000000466,
      "v": 100
    },
    {
      "midi": 61,
      "hit": false,
      "t": 236828.84200000958,
      "d": 60.975500000000466,
      "v": 100
    },
    {
      "midi": 66,
      "hit": false,
      "t": 236910.14266667087,
      "d": 162.60133333332487,
      "v": 127
    },
    {
      "midi": 78,
      "hit": false,
      "t": 236950.7930000011,
      "d": 365.8530000000028,
      "v": 100
    },
    {
      "midi": 76,
      "hit": false,
      "t": 236950.7930000011,
      "d": 365.8530000000028,
      "v": 100
    },
    {
      "midi": 73,
      "hit": false,
      "t": 236950.7930000011,
      "d": 365.8530000000028,
      "v": 100
    },
    {
      "midi": 54,
      "hit": false,
      "t": 236950.7930000011,
      "d": 1.0162583333440125,
      "v": 60
    },
    {
      "midi": 78,
      "hit": false,
      "t": 236950.79300000114,
      "d": 121.95100000000093,
      "v": 100
    },
    {
      "midi": 30,
      "hit": false,
      "t": 236950.79300000117,
      "d": 243.90200000000186,
      "v": 100
    },
    {
      "midi": 44,
      "hit": false,
      "t": 236950.79300000222,
      "d": 1.0162583333440125,
      "v": 100
    },
    {
      "midi": 69,
      "hit": false,
      "t": 236950.79300000958,
      "d": 60.975500000000466,
      "v": 100
    },
    {
      "midi": 64,
      "hit": false,
      "t": 236950.79300000958,
      "d": 60.975500000000466,
      "v": 100
    },
    {
      "midi": 61,
      "hit": false,
      "t": 236950.79300000958,
      "d": 60.975500000000466,
      "v": 100
    },
    {
      "midi": 54,
      "hit": false,
      "t": 237072.7440000011,
      "d": 1.0162583333440125,
      "v": 80
    },
    {
      "midi": 78,
      "hit": false,
      "t": 237072.74400000114,
      "d": 121.95100000000093,
      "v": 100
    },
    {
      "midi": 69,
      "hit": false,
      "t": 237072.7440000014,
      "d": 121.95100000000093,
      "v": 100
    },
    {
      "midi": 64,
      "hit": false,
      "t": 237072.7440000014,
      "d": 121.95100000000093,
      "v": 100
    },
    {
      "midi": 61,
      "hit": false,
      "t": 237072.7440000014,
      "d": 121.95100000000093,
      "v": 100
    },
    {
      "midi": 33,
      "hit": false,
      "t": 237072.74400000222,
      "d": 1.0162583333440125,
      "v": 127
    },
    {
      "midi": 42,
      "hit": false,
      "t": 237072.74400000222,
      "d": 1.0162583333440125,
      "v": 100
    },
    {
      "midi": 68,
      "hit": false,
      "t": 237072.7440000042,
      "d": 162.60133333332487,
      "v": 127
    },
    {
      "midi": 69,
      "hit": false,
      "t": 237072.74400000958,
      "d": 60.97549999988405,
      "v": 100
    },
    {
      "midi": 64,
      "hit": false,
      "t": 237072.74400000958,
      "d": 60.97549999988405,
      "v": 100
    },
    {
      "midi": 61,
      "hit": false,
      "t": 237072.74400000958,
      "d": 60.97549999988405,
      "v": 100
    },
    {
      "midi": 54,
      "hit": false,
      "t": 237194.6950000011,
      "d": 1.0162583333440125,
      "v": 60
    },
    {
      "midi": 78,
      "hit": false,
      "t": 237194.69500000114,
      "d": 121.95100000000093,
      "v": 100
    },
    {
      "midi": 30,
      "hit": false,
      "t": 237194.69500000117,
      "d": 121.95100000000093,
      "v": 100
    },
    {
      "midi": 69,
      "hit": false,
      "t": 237194.6950000014,
      "d": 121.95100000000093,
      "v": 100
    },
    {
      "midi": 64,
      "hit": false,
      "t": 237194.6950000014,
      "d": 121.95100000000093,
      "v": 100
    },
    {
      "midi": 61,
      "hit": false,
      "t": 237194.6950000014,
      "d": 121.95100000000093,
      "v": 100
    },
    {
      "midi": 69,
      "hit": false,
      "t": 237194.69500000947,
      "d": 60.975500000000466,
      "v": 100
    },
    {
      "midi": 64,
      "hit": false,
      "t": 237194.69500000947,
      "d": 60.975500000000466,
      "v": 100
    },
    {
      "midi": 61,
      "hit": false,
      "t": 237194.69500000947,
      "d": 60.975500000000466,
      "v": 100
    },
    {
      "midi": 71,
      "hit": false,
      "t": 237235.34533333752,
      "d": 325.20266666662064,
      "v": 127
    },
    {
      "midi": 78,
      "hit": false,
      "t": 237316.6460000011,
      "d": 243.90200000000186,
      "v": 100
    },
    {
      "midi": 76,
      "hit": false,
      "t": 237316.6460000011,
      "d": 243.90200000000186,
      "v": 100
    },
    {
      "midi": 73,
      "hit": false,
      "t": 237316.6460000011,
      "d": 243.90200000000186,
      "v": 100
    },
    {
      "midi": 54,
      "hit": false,
      "t": 237316.6460000011,
      "d": 1.0162583333440125,
      "v": 60
    },
    {
      "midi": 78,
      "hit": false,
      "t": 237316.64600000114,
      "d": 121.95100000000093,
      "v": 100
    },
    {
      "midi": 30,
      "hit": false,
      "t": 237316.64600000117,
      "d": 243.90200000000186,
      "v": 100
    },
    {
      "midi": 46,
      "hit": false,
      "t": 237316.64600000222,
      "d": 1.0162583333440125,
      "v": 100
    },
    {
      "midi": 69,
      "hit": false,
      "t": 237316.64600000938,
      "d": 60.975500000000466,
      "v": 100
    },
    {
      "midi": 64,
      "hit": false,
      "t": 237316.64600000938,
      "d": 60.975500000000466,
      "v": 100
    },
    {
      "midi": 61,
      "hit": false,
      "t": 237316.64600000938,
      "d": 60.975500000000466,
      "v": 100
    },
    {
      "midi": 54,
      "hit": false,
      "t": 237438.59700000111,
      "d": 1.0162583333440125,
      "v": 60
    },
    {
      "midi": 78,
      "hit": false,
      "t": 237438.59700000114,
      "d": 121.95100000000093,
      "v": 100
    },
    {
      "midi": 69,
      "hit": false,
      "t": 237438.5970000014,
      "d": 121.95100000000093,
      "v": 100
    },
    {
      "midi": 64,
      "hit": false,
      "t": 237438.5970000014,
      "d": 121.95100000000093,
      "v": 100
    },
    {
      "midi": 61,
      "hit": false,
      "t": 237438.5970000014,
      "d": 121.95100000000093,
      "v": 100
    },
    {
      "midi": 44,
      "hit": false,
      "t": 237438.59700000222,
      "d": 1.0162583333440125,
      "v": 100
    },
    {
      "midi": 69,
      "hit": false,
      "t": 237438.59700000938,
      "d": 60.975500000000466,
      "v": 100
    },
    {
      "midi": 64,
      "hit": false,
      "t": 237438.59700000938,
      "d": 60.975500000000466,
      "v": 100
    },
    {
      "midi": 61,
      "hit": false,
      "t": 237438.59700000938,
      "d": 60.975500000000466,
      "v": 100
    },
    {
      "midi": 76,
      "hit": false,
      "t": 237560.54800000112,
      "d": 243.90200000000186,
      "v": 100
    },
    {
      "midi": 73,
      "hit": false,
      "t": 237560.54800000112,
      "d": 243.90200000000186,
      "v": 100
    },
    {
      "midi": 69,
      "hit": false,
      "t": 237560.54800000112,
      "d": 243.90200000000186,
      "v": 100
    },
    {
      "midi": 54,
      "hit": false,
      "t": 237560.54800000112,
      "d": 1.0162583333440125,
      "v": 80
    },
    {
      "midi": 73,
      "hit": false,
      "t": 237560.54800000114,
      "d": 121.95100000000093,
      "v": 100
    },
    {
      "midi": 27,
      "hit": false,
      "t": 237560.54800000117,
      "d": 243.90200000000186,
      "v": 100
    },
    {
      "midi": 33,
      "hit": false,
      "t": 237560.54800000222,
      "d": 1.0162583333440125,
      "v": 127
    },
    {
      "midi": 40,
      "hit": false,
      "t": 237560.54800000222,
      "d": 1.0162583333440125,
      "v": 100
    },
    {
      "midi": 46,
      "hit": false,
      "t": 237560.54800000222,
      "d": 1.0162583333440125,
      "v": 100
    },
    {
      "midi": 68,
      "hit": false,
      "t": 237560.54800000414,
      "d": 162.60133333332487,
      "v": 127
    },
    {
      "midi": 69,
      "hit": false,
      "t": 237560.54800000938,
      "d": 243.90199999985634,
      "v": 100
    },
    {
      "midi": 64,
      "hit": false,
      "t": 237560.54800000938,
      "d": 243.90199999985634,
      "v": 100
    },
    {
      "midi": 61,
      "hit": false,
      "t": 237560.54800000938,
      "d": 243.90199999985634,
      "v": 100
    },
    {
      "midi": 54,
      "hit": false,
      "t": 237682.49900000112,
      "d": 1.0162583333440125,
      "v": 60
    },
    {
      "midi": 73,
      "hit": false,
      "t": 237682.49900000115,
      "d": 121.95100000000093,
      "v": 100
    },
    {
      "midi": 44,
      "hit": false,
      "t": 237682.49900000222,
      "d": 1.0162583333440125,
      "v": 100
    },
    {
      "midi": 69,
      "hit": false,
      "t": 237723.14933333747,
      "d": 162.60133333332487,
      "v": 127
    },
    {
      "midi": 78,
      "hit": false,
      "t": 237804.45000000112,
      "d": 243.90200000000186,
      "v": 100
    },
    {
      "midi": 76,
      "hit": false,
      "t": 237804.45000000112,
      "d": 243.90200000000186,
      "v": 100
    },
    {
      "midi": 73,
      "hit": false,
      "t": 237804.45000000112,
      "d": 243.90200000000186,
      "v": 100
    },
    {
      "midi": 54,
      "hit": false,
      "t": 237804.45000000112,
      "d": 1.0162583333440125,
      "v": 60
    },
    {
      "midi": 78,
      "hit": false,
      "t": 237804.45000000115,
      "d": 121.95100000000093,
      "v": 100
    },
    {
      "midi": 30,
      "hit": false,
      "t": 237804.45000000118,
      "d": 243.90200000000186,
      "v": 100
    },
    {
      "midi": 40,
      "hit": false,
      "t": 237804.45000000222,
      "d": 1.0162583333440125,
      "v": 40
    },
    {
      "midi": 46,
      "hit": false,
      "t": 237804.45000000222,
      "d": 1.0162583333440125,
      "v": 100
    },
    {
      "midi": 69,
      "hit": false,
      "t": 237804.45000000924,
      "d": 60.975500000000466,
      "v": 100
    },
    {
      "midi": 64,
      "hit": false,
      "t": 237804.45000000924,
      "d": 60.975500000000466,
      "v": 100
    },
    {
      "midi": 61,
      "hit": false,
      "t": 237804.45000000924,
      "d": 60.975500000000466,
      "v": 100
    },
    {
      "midi": 71,
      "hit": false,
      "t": 237885.7506666708,
      "d": 162.60133333332487,
      "v": 127
    },
    {
      "midi": 54,
      "hit": false,
      "t": 237926.40100000112,
      "d": 1.0162583333440125,
      "v": 60
    },
    {
      "midi": 78,
      "hit": false,
      "t": 237926.40100000115,
      "d": 121.95100000000093,
      "v": 100
    },
    {
      "midi": 40,
      "hit": false,
      "t": 237926.40100000222,
      "d": 1.0162583333440125,
      "v": 100
    },
    {
      "midi": 44,
      "hit": false,
      "t": 237926.40100000222,
      "d": 1.0162583333440125,
      "v": 100
    },
    {
      "midi": 69,
      "hit": false,
      "t": 237926.40100000924,
      "d": 60.975500000000466,
      "v": 100
    },
    {
      "midi": 64,
      "hit": false,
      "t": 237926.40100000924,
      "d": 60.975500000000466,
      "v": 100
    },
    {
      "midi": 61,
      "hit": false,
      "t": 237926.40100000924,
      "d": 60.975500000000466,
      "v": 100
    },
    {
      "midi": 80,
      "hit": false,
      "t": 238048.35200000112,
      "d": 243.90200000000186,
      "v": 100
    },
    {
      "midi": 75,
      "hit": false,
      "t": 238048.35200000112,
      "d": 243.90200000000186,
      "v": 100
    },
    {
      "midi": 71,
      "hit": false,
      "t": 238048.35200000112,
      "d": 243.90200000000186,
      "v": 100
    },
    {
      "midi": 54,
      "hit": false,
      "t": 238048.35200000112,
      "d": 1.0162583333440125,
      "v": 80
    },
    {
      "midi": 68,
      "hit": false,
      "t": 238048.35200000115,
      "d": 121.95100000000093,
      "v": 100
    },
    {
      "midi": 32,
      "hit": false,
      "t": 238048.35200000118,
      "d": 243.90200000000186,
      "v": 100
    },
    {
      "midi": 33,
      "hit": false,
      "t": 238048.35200000223,
      "d": 1.0162583333440125,
      "v": 127
    },
    {
      "midi": 42,
      "hit": false,
      "t": 238048.35200000223,
      "d": 1.0162583333440125,
      "v": 100
    },
    {
      "midi": 66,
      "hit": false,
      "t": 238048.35200000412,
      "d": 325.20266666659154,
      "v": 127
    },
    {
      "midi": 68,
      "hit": false,
      "t": 238048.35200000924,
      "d": 487.8040000000037,
      "v": 100
    },
    {
      "midi": 63,
      "hit": false,
      "t": 238048.35200000924,
      "d": 487.8040000000037,
      "v": 100
    },
    {
      "midi": 59,
      "hit": false,
      "t": 238048.35200000924,
      "d": 487.8040000000037,
      "v": 100
    },
    {
      "midi": 54,
      "hit": false,
      "t": 238170.30300000112,
      "d": 1.0162583333440125,
      "v": 60
    },
    {
      "midi": 68,
      "hit": false,
      "t": 238170.30300000115,
      "d": 121.95100000000093,
      "v": 100
    },
    {
      "midi": 68,
      "hit": false,
      "t": 238170.3030000014,
      "d": 121.95100000000093,
      "v": 100
    },
    {
      "midi": 63,
      "hit": false,
      "t": 238170.3030000014,
      "d": 121.95100000000093,
      "v": 100
    },
    {
      "midi": 59,
      "hit": false,
      "t": 238170.3030000014,
      "d": 121.95100000000093,
      "v": 100
    },
    {
      "midi": 54,
      "hit": false,
      "t": 238292.25400000112,
      "d": 1.0162583333440125,
      "v": 60
    },
    {
      "midi": 71,
      "hit": false,
      "t": 238292.25400000115,
      "d": 121.95100000000093,
      "v": 100
    },
    {
      "midi": 32,
      "hit": false,
      "t": 238292.25400000118,
      "d": 243.90200000000186,
      "v": 100
    },
    {
      "midi": 68,
      "hit": false,
      "t": 238292.2540000014,
      "d": 121.95100000000093,
      "v": 100
    },
    {
      "midi": 63,
      "hit": false,
      "t": 238292.2540000014,
      "d": 121.95100000000093,
      "v": 100
    },
    {
      "midi": 59,
      "hit": false,
      "t": 238292.2540000014,
      "d": 121.95100000000093,
      "v": 100
    },
    {
      "midi": 46,
      "hit": false,
      "t": 238292.25400000223,
      "d": 1.0162583333440125,
      "v": 100
    },
    {
      "midi": 64,
      "hit": false,
      "t": 238373.5546666707,
      "d": 325.20266666667885,
      "v": 127
    },
    {
      "midi": 54,
      "hit": false,
      "t": 238414.20500000112,
      "d": 1.0162583333440125,
      "v": 60
    },
    {
      "midi": 71,
      "hit": false,
      "t": 238414.20500000115,
      "d": 121.95100000000093,
      "v": 100
    },
    {
      "midi": 44,
      "hit": false,
      "t": 238414.20500000223,
      "d": 1.0162583333440125,
      "v": 100
    },
    {
      "midi": 80,
      "hit": false,
      "t": 238536.15600000112,
      "d": 243.90200000000186,
      "v": 100
    },
    {
      "midi": 75,
      "hit": false,
      "t": 238536.15600000112,
      "d": 243.90200000000186,
      "v": 100
    },
    {
      "midi": 83,
      "hit": false,
      "t": 238536.15600000112,
      "d": 243.90200000000186,
      "v": 100
    },
    {
      "midi": 54,
      "hit": false,
      "t": 238536.15600000112,
      "d": 1.0162583333440125,
      "v": 80
    },
    {
      "midi": 75,
      "hit": false,
      "t": 238536.15600000115,
      "d": 121.95100000000093,
      "v": 100
    },
    {
      "midi": 32,
      "hit": false,
      "t": 238536.15600000118,
      "d": 243.90200000000186,
      "v": 100
    },
    {
      "midi": 68,
      "hit": false,
      "t": 238536.1560000014,
      "d": 121.95100000000093,
      "v": 100
    },
    {
      "midi": 63,
      "hit": false,
      "t": 238536.1560000014,
      "d": 121.95100000000093,
      "v": 100
    },
    {
      "midi": 59,
      "hit": false,
      "t": 238536.1560000014,
      "d": 121.95100000000093,
      "v": 100
    },
    {
      "midi": 33,
      "hit": false,
      "t": 238536.15600000223,
      "d": 1.0162583333440125,
      "v": 127
    },
    {
      "midi": 40,
      "hit": false,
      "t": 238536.15600000223,
      "d": 1.0162583333440125,
      "v": 100
    },
    {
      "midi": 46,
      "hit": false,
      "t": 238536.15600000223,
      "d": 1.0162583333440125,
      "v": 100
    },
    {
      "midi": 68,
      "hit": false,
      "t": 238536.15600000924,
      "d": 60.97549999988405,
      "v": 100
    },
    {
      "midi": 63,
      "hit": false,
      "t": 238536.15600000924,
      "d": 60.97549999988405,
      "v": 100
    },
    {
      "midi": 59,
      "hit": false,
      "t": 238536.15600000924,
      "d": 60.97549999988405,
      "v": 100
    },
    {
      "midi": 54,
      "hit": false,
      "t": 238658.10700000112,
      "d": 1.0162583333440125,
      "v": 60
    },
    {
      "midi": 75,
      "hit": false,
      "t": 238658.10700000115,
      "d": 121.95100000000093,
      "v": 100
    },
    {
      "midi": 44,
      "hit": false,
      "t": 238658.10700000223,
      "d": 1.0162583333440125,
      "v": 100
    },
    {
      "midi": 68,
      "hit": false,
      "t": 238658.10700000913,
      "d": 60.975500000000466,
      "v": 100
    },
    {
      "midi": 63,
      "hit": false,
      "t": 238658.10700000913,
      "d": 60.975500000000466,
      "v": 100
    },
    {
      "midi": 59,
      "hit": false,
      "t": 238658.10700000913,
      "d": 60.975500000000466,
      "v": 100
    },
    {
      "midi": 66,
      "hit": false,
      "t": 238698.7573333374,
      "d": 243.90200000000186,
      "v": 127
    },
    {
      "midi": 54,
      "hit": false,
      "t": 238780.05800000113,
      "d": 1.0162583333440125,
      "v": 60
    },
    {
      "midi": 80,
      "hit": false,
      "t": 238780.05800000115,
      "d": 121.95100000000093,
      "v": 100
    },
    {
      "midi": 32,
      "hit": false,
      "t": 238780.05800000118,
      "d": 71.13808333332418,
      "v": 100
    },
    {
      "midi": 68,
      "hit": false,
      "t": 238780.05800000142,
      "d": 121.95100000000093,
      "v": 100
    },
    {
      "midi": 63,
      "hit": false,
      "t": 238780.05800000142,
      "d": 121.95100000000093,
      "v": 100
    },
    {
      "midi": 59,
      "hit": false,
      "t": 238780.05800000142,
      "d": 121.95100000000093,
      "v": 100
    },
    {
      "midi": 46,
      "hit": false,
      "t": 238780.05800000223,
      "d": 1.0162583333440125,
      "v": 100
    },
    {
      "midi": 68,
      "hit": false,
      "t": 238780.05800000904,
      "d": 60.975500000000466,
      "v": 100
    },
    {
      "midi": 63,
      "hit": false,
      "t": 238780.05800000904,
      "d": 60.975500000000466,
      "v": 100
    },
    {
      "midi": 59,
      "hit": false,
      "t": 238780.05800000904,
      "d": 60.975500000000466,
      "v": 100
    },
    {
      "midi": 83,
      "hit": false,
      "t": 238902.00900000113,
      "d": 365.8530000000028,
      "v": 100
    },
    {
      "midi": 80,
      "hit": false,
      "t": 238902.00900000113,
      "d": 365.8530000000028,
      "v": 100
    },
    {
      "midi": 75,
      "hit": false,
      "t": 238902.00900000113,
      "d": 365.8530000000028,
      "v": 100
    },
    {
      "midi": 54,
      "hit": false,
      "t": 238902.00900000113,
      "d": 1.0162583333440125,
      "v": 60
    },
    {
      "midi": 80,
      "hit": false,
      "t": 238902.00900000116,
      "d": 121.95100000000093,
      "v": 100
    },
    {
      "midi": 35,
      "hit": false,
      "t": 238902.00900000118,
      "d": 243.90200000000186,
      "v": 100
    },
    {
      "midi": 44,
      "hit": false,
      "t": 238902.00900000223,
      "d": 1.0162583333440125,
      "v": 100
    },
    {
      "midi": 68,
      "hit": false,
      "t": 238902.00900000904,
      "d": 60.975500000000466,
      "v": 100
    },
    {
      "midi": 63,
      "hit": false,
      "t": 238902.00900000904,
      "d": 60.975500000000466,
      "v": 100
    },
    {
      "midi": 59,
      "hit": false,
      "t": 238902.00900000904,
      "d": 60.975500000000466,
      "v": 100
    },
    {
      "midi": 54,
      "hit": false,
      "t": 239023.96000000113,
      "d": 1.0162583333440125,
      "v": 80
    },
    {
      "midi": 83,
      "hit": false,
      "t": 239023.96000000116,
      "d": 121.95100000000093,
      "v": 100
    },
    {
      "midi": 71,
      "hit": false,
      "t": 239023.96000000142,
      "d": 121.95100000000093,
      "v": 100
    },
    {
      "midi": 66,
      "hit": false,
      "t": 239023.96000000142,
      "d": 121.95100000000093,
      "v": 100
    },
    {
      "midi": 63,
      "hit": false,
      "t": 239023.96000000142,
      "d": 121.95100000000093,
      "v": 100
    },
    {
      "midi": 33,
      "hit": false,
      "t": 239023.96000000223,
      "d": 1.0162583333440125,
      "v": 127
    },
    {
      "midi": 42,
      "hit": false,
      "t": 239023.96000000223,
      "d": 1.0162583333440125,
      "v": 100
    },
    {
      "midi": 68,
      "hit": false,
      "t": 239023.96000000407,
      "d": 325.20266666659154,
      "v": 127
    },
    {
      "midi": 71,
      "hit": false,
      "t": 239023.96000000904,
      "d": 60.97549999988405,
      "v": 100
    },
    {
      "midi": 66,
      "hit": false,
      "t": 239023.96000000904,
      "d": 60.97549999988405,
      "v": 100
    },
    {
      "midi": 63,
      "hit": false,
      "t": 239023.96000000904,
      "d": 60.97549999988405,
      "v": 100
    },
    {
      "midi": 54,
      "hit": false,
      "t": 239145.91100000113,
      "d": 1.0162583333440125,
      "v": 60
    },
    {
      "midi": 83,
      "hit": false,
      "t": 239145.91100000116,
      "d": 121.95100000000093,
      "v": 100
    },
    {
      "midi": 35,
      "hit": false,
      "t": 239145.9110000012,
      "d": 121.95100000000093,
      "v": 100
    },
    {
      "midi": 71,
      "hit": false,
      "t": 239145.91100000142,
      "d": 121.95100000000093,
      "v": 100
    },
    {
      "midi": 66,
      "hit": false,
      "t": 239145.91100000142,
      "d": 121.95100000000093,
      "v": 100
    },
    {
      "midi": 63,
      "hit": false,
      "t": 239145.91100000142,
      "d": 121.95100000000093,
      "v": 100
    },
    {
      "midi": 71,
      "hit": false,
      "t": 239145.91100000893,
      "d": 60.975500000000466,
      "v": 100
    },
    {
      "midi": 66,
      "hit": false,
      "t": 239145.91100000893,
      "d": 60.975500000000466,
      "v": 100
    },
    {
      "midi": 63,
      "hit": false,
      "t": 239145.91100000893,
      "d": 60.975500000000466,
      "v": 100
    },
    {
      "midi": 83,
      "hit": false,
      "t": 239267.86200000113,
      "d": 243.90200000000186,
      "v": 100
    },
    {
      "midi": 80,
      "hit": false,
      "t": 239267.86200000113,
      "d": 243.90200000000186,
      "v": 100
    },
    {
      "midi": 75,
      "hit": false,
      "t": 239267.86200000113,
      "d": 243.90200000000186,
      "v": 100
    },
    {
      "midi": 54,
      "hit": false,
      "t": 239267.86200000113,
      "d": 1.0162583333440125,
      "v": 60
    },
    {
      "midi": 80,
      "hit": false,
      "t": 239267.86200000116,
      "d": 121.95100000000093,
      "v": 100
    },
    {
      "midi": 35,
      "hit": false,
      "t": 239267.8620000012,
      "d": 243.90200000000186,
      "v": 100
    },
    {
      "midi": 46,
      "hit": false,
      "t": 239267.86200000223,
      "d": 1.0162583333440125,
      "v": 100
    },
    {
      "midi": 71,
      "hit": false,
      "t": 239267.86200000884,
      "d": 60.975500000000466,
      "v": 100
    },
    {
      "midi": 66,
      "hit": false,
      "t": 239267.86200000884,
      "d": 60.975500000000466,
      "v": 100
    },
    {
      "midi": 63,
      "hit": false,
      "t": 239267.86200000884,
      "d": 60.975500000000466,
      "v": 100
    },
    {
      "midi": 66,
      "hit": false,
      "t": 239349.16266667066,
      "d": 650.405333333154,
      "v": 127
    },
    {
      "midi": 54,
      "hit": false,
      "t": 239389.81300000113,
      "d": 1.0162583333440125,
      "v": 60
    },
    {
      "midi": 80,
      "hit": false,
      "t": 239389.81300000116,
      "d": 121.95100000000093,
      "v": 100
    },
    {
      "midi": 71,
      "hit": false,
      "t": 239389.81300000142,
      "d": 121.95100000000093,
      "v": 100
    },
    {
      "midi": 66,
      "hit": false,
      "t": 239389.81300000142,
      "d": 121.95100000000093,
      "v": 100
    },
    {
      "midi": 63,
      "hit": false,
      "t": 239389.81300000142,
      "d": 121.95100000000093,
      "v": 100
    },
    {
      "midi": 44,
      "hit": false,
      "t": 239389.81300000224,
      "d": 1.0162583333440125,
      "v": 100
    },
    {
      "midi": 71,
      "hit": false,
      "t": 239389.81300000884,
      "d": 60.975500000000466,
      "v": 100
    },
    {
      "midi": 66,
      "hit": false,
      "t": 239389.81300000884,
      "d": 60.975500000000466,
      "v": 100
    },
    {
      "midi": 63,
      "hit": false,
      "t": 239389.81300000884,
      "d": 60.975500000000466,
      "v": 100
    },
    {
      "midi": 80,
      "hit": false,
      "t": 239511.76400000113,
      "d": 243.90200000000186,
      "v": 100
    },
    {
      "midi": 75,
      "hit": false,
      "t": 239511.76400000113,
      "d": 243.90200000000186,
      "v": 100
    },
    {
      "midi": 71,
      "hit": false,
      "t": 239511.76400000113,
      "d": 243.90200000000186,
      "v": 100
    },
    {
      "midi": 54,
      "hit": false,
      "t": 239511.76400000113,
      "d": 1.0162583333440125,
      "v": 80
    },
    {
      "midi": 75,
      "hit": false,
      "t": 239511.76400000116,
      "d": 121.95100000000093,
      "v": 100
    },
    {
      "midi": 32,
      "hit": false,
      "t": 239511.7640000012,
      "d": 243.90200000000186,
      "v": 100
    },
    {
      "midi": 33,
      "hit": false,
      "t": 239511.76400000224,
      "d": 1.0162583333440125,
      "v": 127
    },
    {
      "midi": 40,
      "hit": false,
      "t": 239511.76400000224,
      "d": 1.0162583333440125,
      "v": 100
    },
    {
      "midi": 46,
      "hit": false,
      "t": 239511.76400000224,
      "d": 1.0162583333440125,
      "v": 100
    },
    {
      "midi": 57,
      "hit": false,
      "t": 239511.76400000224,
      "d": 1.0162583333440125,
      "v": 100
    },
    {
      "midi": 71,
      "hit": false,
      "t": 239511.76400000884,
      "d": 243.90199999985634,
      "v": 100
    },
    {
      "midi": 66,
      "hit": false,
      "t": 239511.76400000884,
      "d": 243.90199999985634,
      "v": 100
    },
    {
      "midi": 63,
      "hit": false,
      "t": 239511.76400000884,
      "d": 243.90199999985634,
      "v": 100
    },
    {
      "midi": 54,
      "hit": false,
      "t": 239633.71500000113,
      "d": 1.0162583333440125,
      "v": 60
    },
    {
      "midi": 75,
      "hit": false,
      "t": 239633.71500000116,
      "d": 121.95100000000093,
      "v": 100
    },
    {
      "midi": 44,
      "hit": false,
      "t": 239633.71500000224,
      "d": 1.0162583333440125,
      "v": 100
    },
    {
      "midi": 83,
      "hit": false,
      "t": 239755.66600000113,
      "d": 243.90200000000186,
      "v": 100
    },
    {
      "midi": 80,
      "hit": false,
      "t": 239755.66600000113,
      "d": 243.90200000000186,
      "v": 100
    },
    {
      "midi": 75,
      "hit": false,
      "t": 239755.66600000113,
      "d": 243.90200000000186,
      "v": 100
    },
    {
      "midi": 54,
      "hit": false,
      "t": 239755.66600000113,
      "d": 1.0162583333440125,
      "v": 60
    },
    {
      "midi": 71,
      "hit": false,
      "t": 239755.66600000116,
      "d": 121.95100000000093,
      "v": 100
    },
    {
      "midi": 35,
      "hit": false,
      "t": 239755.6660000012,
      "d": 243.90200000000186,
      "v": 100
    },
    {
      "midi": 40,
      "hit": false,
      "t": 239755.66600000224,
      "d": 1.0162583333440125,
      "v": 40
    },
    {
      "midi": 46,
      "hit": false,
      "t": 239755.66600000224,
      "d": 1.0162583333440125,
      "v": 100
    },
    {
      "midi": 71,
      "hit": false,
      "t": 239755.6660000087,
      "d": 60.975500000000466,
      "v": 100
    },
    {
      "midi": 66,
      "hit": false,
      "t": 239755.6660000087,
      "d": 60.975500000000466,
      "v": 100
    },
    {
      "midi": 63,
      "hit": false,
      "t": 239755.6660000087,
      "d": 60.975500000000466,
      "v": 100
    },
    {
      "midi": 54,
      "hit": false,
      "t": 239877.61700000113,
      "d": 1.0162583333440125,
      "v": 60
    },
    {
      "midi": 71,
      "hit": false,
      "t": 239877.61700000116,
      "d": 121.95100000000093,
      "v": 100
    },
    {
      "midi": 40,
      "hit": false,
      "t": 239877.61700000224,
      "d": 1.0162583333440125,
      "v": 100
    },
    {
      "midi": 44,
      "hit": false,
      "t": 239877.61700000224,
      "d": 1.0162583333440125,
      "v": 100
    },
    {
      "midi": 71,
      "hit": false,
      "t": 239877.6170000087,
      "d": 60.975500000000466,
      "v": 100
    },
    {
      "midi": 66,
      "hit": false,
      "t": 239877.6170000087,
      "d": 60.975500000000466,
      "v": 100
    },
    {
      "midi": 63,
      "hit": false,
      "t": 239877.6170000087,
      "d": 60.975500000000466,
      "v": 100
    },
    {
      "midi": 85,
      "hit": false,
      "t": 239999.56800000113,
      "d": 243.90200000000186,
      "v": 100
    },
    {
      "midi": 80,
      "hit": false,
      "t": 239999.56800000113,
      "d": 243.90200000000186,
      "v": 100
    },
    {
      "midi": 76,
      "hit": false,
      "t": 239999.56800000113,
      "d": 243.90200000000186,
      "v": 100
    },
    {
      "midi": 54,
      "hit": false,
      "t": 239999.56800000113,
      "d": 1.0162583333440125,
      "v": 80
    },
    {
      "midi": 73,
      "hit": false,
      "t": 239999.56800000116,
      "d": 121.95100000000093,
      "v": 100
    },
    {
      "midi": 37,
      "hit": false,
      "t": 239999.5680000012,
      "d": 243.90200000000186,
      "v": 100
    },
    {
      "midi": 33,
      "hit": false,
      "t": 239999.56800000224,
      "d": 1.0162583333440125,
      "v": 127
    },
    {
      "midi": 42,
      "hit": false,
      "t": 239999.56800000224,
      "d": 1.0162583333440125,
      "v": 100
    },
    {
      "midi": 57,
      "hit": false,
      "t": 239999.56800000224,
      "d": 1.0162583333440125,
      "v": 100
    },
    {
      "midi": 73,
      "hit": false,
      "t": 239999.5680000087,
      "d": 487.8040000000037,
      "v": 100
    },
    {
      "midi": 68,
      "hit": false,
      "t": 239999.5680000087,
      "d": 487.8040000000037,
      "v": 100
    },
    {
      "midi": 64,
      "hit": false,
      "t": 239999.5680000087,
      "d": 487.8040000000037,
      "v": 100
    },
    {
      "midi": 54,
      "hit": false,
      "t": 240121.51900000114,
      "d": 1.0162583333440125,
      "v": 60
    },
    {
      "midi": 73,
      "hit": false,
      "t": 240121.51900000116,
      "d": 121.95100000000093,
      "v": 100
    },
    {
      "midi": 73,
      "hit": false,
      "t": 240121.51900000143,
      "d": 121.95100000000093,
      "v": 100
    },
    {
      "midi": 68,
      "hit": false,
      "t": 240121.51900000143,
      "d": 121.95100000000093,
      "v": 100
    },
    {
      "midi": 64,
      "hit": false,
      "t": 240121.51900000143,
      "d": 121.95100000000093,
      "v": 100
    },
    {
      "midi": 54,
      "hit": false,
      "t": 240243.47000000114,
      "d": 1.0162583333440125,
      "v": 60
    },
    {
      "midi": 80,
      "hit": false,
      "t": 240243.47000000117,
      "d": 121.95100000000093,
      "v": 100
    },
    {
      "midi": 37,
      "hit": false,
      "t": 240243.4700000012,
      "d": 243.90200000000186,
      "v": 100
    },
    {
      "midi": 73,
      "hit": false,
      "t": 240243.47000000143,
      "d": 121.95100000000093,
      "v": 100
    },
    {
      "midi": 68,
      "hit": false,
      "t": 240243.47000000143,
      "d": 121.95100000000093,
      "v": 100
    },
    {
      "midi": 64,
      "hit": false,
      "t": 240243.47000000143,
      "d": 121.95100000000093,
      "v": 100
    },
    {
      "midi": 46,
      "hit": false,
      "t": 240243.47000000224,
      "d": 1.0162583333440125,
      "v": 100
    },
    {
      "midi": 73,
      "hit": false,
      "t": 240243.4700000038,
      "d": 731.7059999999183,
      "v": 127
    },
    {
      "midi": 54,
      "hit": false,
      "t": 240365.42100000114,
      "d": 1.0162583333440125,
      "v": 60
    },
    {
      "midi": 80,
      "hit": false,
      "t": 240365.42100000117,
      "d": 121.95100000000093,
      "v": 100
    },
    {
      "midi": 44,
      "hit": false,
      "t": 240365.42100000224,
      "d": 1.0162583333440125,
      "v": 100
    },
    {
      "midi": 85,
      "hit": false,
      "t": 240487.37200000114,
      "d": 243.90200000000186,
      "v": 100
    },
    {
      "midi": 80,
      "hit": false,
      "t": 240487.37200000114,
      "d": 243.90200000000186,
      "v": 100
    },
    {
      "midi": 76,
      "hit": false,
      "t": 240487.37200000114,
      "d": 243.90200000000186,
      "v": 100
    },
    {
      "midi": 54,
      "hit": false,
      "t": 240487.37200000114,
      "d": 1.0162583333440125,
      "v": 80
    },
    {
      "midi": 76,
      "hit": false,
      "t": 240487.37200000117,
      "d": 121.95100000000093,
      "v": 100
    },
    {
      "midi": 37,
      "hit": false,
      "t": 240487.3720000012,
      "d": 243.90200000000186,
      "v": 100
    },
    {
      "midi": 73,
      "hit": false,
      "t": 240487.37200000143,
      "d": 121.95100000000093,
      "v": 100
    },
    {
      "midi": 68,
      "hit": false,
      "t": 240487.37200000143,
      "d": 121.95100000000093,
      "v": 100
    },
    {
      "midi": 64,
      "hit": false,
      "t": 240487.37200000143,
      "d": 121.95100000000093,
      "v": 100
    },
    {
      "midi": 33,
      "hit": false,
      "t": 240487.37200000224,
      "d": 1.0162583333440125,
      "v": 127
    },
    {
      "midi": 40,
      "hit": false,
      "t": 240487.37200000224,
      "d": 1.0162583333440125,
      "v": 100
    },
    {
      "midi": 46,
      "hit": false,
      "t": 240487.37200000224,
      "d": 1.0162583333440125,
      "v": 100
    },
    {
      "midi": 73,
      "hit": false,
      "t": 240487.3720000087,
      "d": 60.97549999988405,
      "v": 100
    },
    {
      "midi": 68,
      "hit": false,
      "t": 240487.3720000087,
      "d": 60.97549999988405,
      "v": 100
    },
    {
      "midi": 64,
      "hit": false,
      "t": 240487.3720000087,
      "d": 60.97549999988405,
      "v": 100
    },
    {
      "midi": 54,
      "hit": false,
      "t": 240609.32300000114,
      "d": 1.0162583333440125,
      "v": 60
    },
    {
      "midi": 76,
      "hit": false,
      "t": 240609.32300000117,
      "d": 121.95100000000093,
      "v": 100
    },
    {
      "midi": 44,
      "hit": false,
      "t": 240609.32300000224,
      "d": 1.0162583333440125,
      "v": 100
    },
    {
      "midi": 73,
      "hit": false,
      "t": 240609.3230000086,
      "d": 60.975500000000466,
      "v": 100
    },
    {
      "midi": 68,
      "hit": false,
      "t": 240609.3230000086,
      "d": 60.975500000000466,
      "v": 100
    },
    {
      "midi": 64,
      "hit": false,
      "t": 240609.3230000086,
      "d": 60.975500000000466,
      "v": 100
    },
    {
      "midi": 85,
      "hit": false,
      "t": 240731.27400000114,
      "d": 30.487750000000233,
      "v": 100
    },
    {
      "midi": 80,
      "hit": false,
      "t": 240731.27400000114,
      "d": 30.487750000000233,
      "v": 100
    },
    {
      "midi": 54,
      "hit": false,
      "t": 240731.27400000114,
      "d": 1.0162583333440125,
      "v": 60
    },
    {
      "midi": 83,
      "hit": false,
      "t": 240731.27400000117,
      "d": 121.95100000000093,
      "v": 100
    },
    {
      "midi": 37,
      "hit": false,
      "t": 240731.2740000012,
      "d": 71.13808333332418,
      "v": 100
    },
    {
      "midi": 73,
      "hit": false,
      "t": 240731.27400000143,
      "d": 121.95100000000093,
      "v": 100
    },
    {
      "midi": 68,
      "hit": false,
      "t": 240731.27400000143,
      "d": 121.95100000000093,
      "v": 100
    },
    {
      "midi": 64,
      "hit": false,
      "t": 240731.27400000143,
      "d": 121.95100000000093,
      "v": 100
    },
    {
      "midi": 46,
      "hit": false,
      "t": 240731.27400000225,
      "d": 1.0162583333440125,
      "v": 100
    },
    {
      "midi": 73,
      "hit": false,
      "t": 240731.2740000085,
      "d": 60.975500000000466,
      "v": 100
    },
    {
      "midi": 68,
      "hit": false,
      "t": 240731.2740000085,
      "d": 60.975500000000466,
      "v": 100
    },
    {
      "midi": 64,
      "hit": false,
      "t": 240731.2740000085,
      "d": 60.975500000000466,
      "v": 100
    },
    {
      "midi": 85,
      "hit": false,
      "t": 240853.22500000114,
      "d": 243.90200000000186,
      "v": 100
    },
    {
      "midi": 81,
      "hit": false,
      "t": 240853.22500000114,
      "d": 243.90200000000186,
      "v": 100
    },
    {
      "midi": 76,
      "hit": false,
      "t": 240853.22500000114,
      "d": 243.90200000000186,
      "v": 100
    },
    {
      "midi": 54,
      "hit": false,
      "t": 240853.22500000114,
      "d": 1.0162583333440125,
      "v": 60
    },
    {
      "midi": 83,
      "hit": false,
      "t": 240853.22500000117,
      "d": 121.95100000000093,
      "v": 100
    },
    {
      "midi": 33,
      "hit": false,
      "t": 240853.2250000012,
      "d": 243.90200000000186,
      "v": 100
    },
    {
      "midi": 44,
      "hit": false,
      "t": 240853.22500000225,
      "d": 1.0162583333440125,
      "v": 100
    },
    {
      "midi": 73,
      "hit": false,
      "t": 240853.2250000085,
      "d": 60.975500000000466,
      "v": 100
    },
    {
      "midi": 68,
      "hit": false,
      "t": 240853.2250000085,
      "d": 60.975500000000466,
      "v": 100
    },
    {
      "midi": 64,
      "hit": false,
      "t": 240853.2250000085,
      "d": 60.975500000000466,
      "v": 100
    },
    {
      "midi": 54,
      "hit": false,
      "t": 240975.17600000114,
      "d": 1.0162583333440125,
      "v": 80
    },
    {
      "midi": 85,
      "hit": false,
      "t": 240975.17600000117,
      "d": 121.95100000000093,
      "v": 100
    },
    {
      "midi": 69,
      "hit": false,
      "t": 240975.17600000143,
      "d": 121.95100000000093,
      "v": 100
    },
    {
      "midi": 64,
      "hit": false,
      "t": 240975.17600000143,
      "d": 121.95100000000093,
      "v": 100
    },
    {
      "midi": 61,
      "hit": false,
      "t": 240975.17600000143,
      "d": 121.95100000000093,
      "v": 100
    },
    {
      "midi": 33,
      "hit": false,
      "t": 240975.17600000225,
      "d": 1.0162583333440125,
      "v": 127
    },
    {
      "midi": 42,
      "hit": false,
      "t": 240975.17600000225,
      "d": 1.0162583333440125,
      "v": 100
    },
    {
      "midi": 73,
      "hit": false,
      "t": 240975.17600000373,
      "d": 162.60133333332487,
      "v": 127
    },
    {
      "midi": 69,
      "hit": false,
      "t": 240975.1760000085,
      "d": 60.97549999988405,
      "v": 100
    },
    {
      "midi": 64,
      "hit": false,
      "t": 240975.1760000085,
      "d": 60.97549999988405,
      "v": 100
    },
    {
      "midi": 61,
      "hit": false,
      "t": 240975.1760000085,
      "d": 60.97549999988405,
      "v": 100
    },
    {
      "midi": 85,
      "hit": false,
      "t": 241097.12700000114,
      "d": 121.95100000000093,
      "v": 100
    },
    {
      "midi": 81,
      "hit": false,
      "t": 241097.12700000114,
      "d": 121.95100000000093,
      "v": 100
    },
    {
      "midi": 76,
      "hit": false,
      "t": 241097.12700000114,
      "d": 121.95100000000093,
      "v": 100
    },
    {
      "midi": 54,
      "hit": false,
      "t": 241097.12700000114,
      "d": 1.0162583333440125,
      "v": 60
    },
    {
      "midi": 85,
      "hit": false,
      "t": 241097.12700000117,
      "d": 121.95100000000093,
      "v": 100
    },
    {
      "midi": 33,
      "hit": false,
      "t": 241097.1270000012,
      "d": 121.95100000000093,
      "v": 100
    },
    {
      "midi": 69,
      "hit": false,
      "t": 241097.12700000143,
      "d": 121.95100000000093,
      "v": 100
    },
    {
      "midi": 64,
      "hit": false,
      "t": 241097.12700000143,
      "d": 121.95100000000093,
      "v": 100
    },
    {
      "midi": 61,
      "hit": false,
      "t": 241097.12700000143,
      "d": 121.95100000000093,
      "v": 100
    },
    {
      "midi": 69,
      "hit": false,
      "t": 241097.1270000084,
      "d": 60.975500000000466,
      "v": 100
    },
    {
      "midi": 64,
      "hit": false,
      "t": 241097.1270000084,
      "d": 60.975500000000466,
      "v": 100
    },
    {
      "midi": 61,
      "hit": false,
      "t": 241097.1270000084,
      "d": 60.975500000000466,
      "v": 100
    },
    {
      "midi": 68,
      "hit": false,
      "t": 241137.77733333706,
      "d": 162.60133333332487,
      "v": 127
    },
    {
      "midi": 85,
      "hit": false,
      "t": 241219.07800000114,
      "d": 243.90200000000186,
      "v": 100
    },
    {
      "midi": 81,
      "hit": false,
      "t": 241219.07800000114,
      "d": 243.90200000000186,
      "v": 100
    },
    {
      "midi": 76,
      "hit": false,
      "t": 241219.07800000114,
      "d": 243.90200000000186,
      "v": 100
    },
    {
      "midi": 54,
      "hit": false,
      "t": 241219.07800000114,
      "d": 1.0162583333440125,
      "v": 60
    },
    {
      "midi": 81,
      "hit": false,
      "t": 241219.07800000117,
      "d": 121.95100000000093,
      "v": 100
    },
    {
      "midi": 33,
      "hit": false,
      "t": 241219.0780000012,
      "d": 243.90200000000186,
      "v": 100
    },
    {
      "midi": 46,
      "hit": false,
      "t": 241219.07800000225,
      "d": 1.0162583333440125,
      "v": 100
    },
    {
      "midi": 69,
      "hit": false,
      "t": 241219.0780000083,
      "d": 60.975500000000466,
      "v": 100
    },
    {
      "midi": 64,
      "hit": false,
      "t": 241219.0780000083,
      "d": 60.975500000000466,
      "v": 100
    },
    {
      "midi": 61,
      "hit": false,
      "t": 241219.0780000083,
      "d": 60.975500000000466,
      "v": 100
    },
    {
      "midi": 75,
      "hit": false,
      "t": 241300.37866667038,
      "d": 162.60133333332487,
      "v": 127
    },
    {
      "midi": 54,
      "hit": false,
      "t": 241341.02900000114,
      "d": 1.0162583333440125,
      "v": 60
    },
    {
      "midi": 81,
      "hit": false,
      "t": 241341.02900000117,
      "d": 121.95100000000093,
      "v": 100
    },
    {
      "midi": 69,
      "hit": false,
      "t": 241341.02900000144,
      "d": 121.95100000000093,
      "v": 100
    },
    {
      "midi": 64,
      "hit": false,
      "t": 241341.02900000144,
      "d": 121.95100000000093,
      "v": 100
    },
    {
      "midi": 61,
      "hit": false,
      "t": 241341.02900000144,
      "d": 121.95100000000093,
      "v": 100
    },
    {
      "midi": 44,
      "hit": false,
      "t": 241341.02900000225,
      "d": 1.0162583333440125,
      "v": 100
    },
    {
      "midi": 69,
      "hit": false,
      "t": 241341.0290000083,
      "d": 60.975500000000466,
      "v": 100
    },
    {
      "midi": 64,
      "hit": false,
      "t": 241341.0290000083,
      "d": 60.975500000000466,
      "v": 100
    },
    {
      "midi": 61,
      "hit": false,
      "t": 241341.0290000083,
      "d": 60.975500000000466,
      "v": 100
    },
    {
      "midi": 85,
      "hit": false,
      "t": 241462.98000000115,
      "d": 243.90200000000186,
      "v": 100
    },
    {
      "midi": 81,
      "hit": false,
      "t": 241462.98000000115,
      "d": 243.90200000000186,
      "v": 100
    },
    {
      "midi": 76,
      "hit": false,
      "t": 241462.98000000115,
      "d": 243.90200000000186,
      "v": 100
    },
    {
      "midi": 54,
      "hit": false,
      "t": 241462.98000000115,
      "d": 1.0162583333440125,
      "v": 80
    },
    {
      "midi": 76,
      "hit": false,
      "t": 241462.98000000117,
      "d": 121.95100000000093,
      "v": 100
    },
    {
      "midi": 33,
      "hit": false,
      "t": 241462.9800000012,
      "d": 243.90200000000186,
      "v": 100
    },
    {
      "midi": 33,
      "hit": false,
      "t": 241462.98000000225,
      "d": 1.0162583333440125,
      "v": 127
    },
    {
      "midi": 40,
      "hit": false,
      "t": 241462.98000000225,
      "d": 1.0162583333440125,
      "v": 100
    },
    {
      "midi": 46,
      "hit": false,
      "t": 241462.98000000225,
      "d": 1.0162583333440125,
      "v": 100
    },
    {
      "midi": 68,
      "hit": false,
      "t": 241462.9800000037,
      "d": 162.60133333332487,
      "v": 127
    },
    {
      "midi": 69,
      "hit": false,
      "t": 241462.9800000083,
      "d": 243.90199999985634,
      "v": 100
    },
    {
      "midi": 64,
      "hit": false,
      "t": 241462.9800000083,
      "d": 243.90199999985634,
      "v": 100
    },
    {
      "midi": 61,
      "hit": false,
      "t": 241462.9800000083,
      "d": 243.90199999985634,
      "v": 100
    },
    {
      "midi": 54,
      "hit": false,
      "t": 241584.93100000115,
      "d": 1.0162583333440125,
      "v": 60
    },
    {
      "midi": 76,
      "hit": false,
      "t": 241584.93100000118,
      "d": 121.95100000000093,
      "v": 100
    },
    {
      "midi": 44,
      "hit": false,
      "t": 241584.93100000225,
      "d": 1.0162583333440125,
      "v": 100
    },
    {
      "midi": 76,
      "hit": false,
      "t": 241625.58133333703,
      "d": 162.60133333332487,
      "v": 127
    },
    {
      "midi": 85,
      "hit": false,
      "t": 241706.88200000115,
      "d": 243.90200000000186,
      "v": 100
    },
    {
      "midi": 81,
      "hit": false,
      "t": 241706.88200000115,
      "d": 243.90200000000186,
      "v": 100
    },
    {
      "midi": 76,
      "hit": false,
      "t": 241706.88200000115,
      "d": 243.90200000000186,
      "v": 100
    },
    {
      "midi": 54,
      "hit": false,
      "t": 241706.88200000115,
      "d": 1.0162583333440125,
      "v": 60
    },
    {
      "midi": 73,
      "hit": false,
      "t": 241706.88200000118,
      "d": 121.95100000000093,
      "v": 100
    },
    {
      "midi": 33,
      "hit": false,
      "t": 241706.8820000012,
      "d": 243.90200000000186,
      "v": 100
    },
    {
      "midi": 40,
      "hit": false,
      "t": 241706.88200000225,
      "d": 1.0162583333440125,
      "v": 40
    },
    {
      "midi": 46,
      "hit": false,
      "t": 241706.88200000225,
      "d": 1.0162583333440125,
      "v": 100
    },
    {
      "midi": 69,
      "hit": false,
      "t": 241706.88200000816,
      "d": 60.975500000000466,
      "v": 100
    },
    {
      "midi": 64,
      "hit": false,
      "t": 241706.88200000816,
      "d": 60.975500000000466,
      "v": 100
    },
    {
      "midi": 61,
      "hit": false,
      "t": 241706.88200000816,
      "d": 60.975500000000466,
      "v": 100
    },
    {
      "midi": 68,
      "hit": false,
      "t": 241788.18266667036,
      "d": 162.60133333332487,
      "v": 127
    },
    {
      "midi": 54,
      "hit": false,
      "t": 241828.83300000115,
      "d": 1.0162583333440125,
      "v": 60
    },
    {
      "midi": 73,
      "hit": false,
      "t": 241828.83300000118,
      "d": 121.95100000000093,
      "v": 100
    },
    {
      "midi": 40,
      "hit": false,
      "t": 241828.83300000225,
      "d": 1.0162583333440125,
      "v": 100
    },
    {
      "midi": 44,
      "hit": false,
      "t": 241828.83300000225,
      "d": 1.0162583333440125,
      "v": 100
    },
    {
      "midi": 69,
      "hit": false,
      "t": 241828.83300000816,
      "d": 60.975500000000466,
      "v": 100
    },
    {
      "midi": 64,
      "hit": false,
      "t": 241828.83300000816,
      "d": 60.975500000000466,
      "v": 100
    },
    {
      "midi": 61,
      "hit": false,
      "t": 241828.83300000816,
      "d": 60.975500000000466,
      "v": 100
    },
    {
      "midi": 87,
      "hit": false,
      "t": 241950.78400000115,
      "d": 243.90200000000186,
      "v": 100
    },
    {
      "midi": 83,
      "hit": false,
      "t": 241950.78400000115,
      "d": 243.90200000000186,
      "v": 100
    },
    {
      "midi": 78,
      "hit": false,
      "t": 241950.78400000115,
      "d": 243.90200000000186,
      "v": 100
    },
    {
      "midi": 54,
      "hit": false,
      "t": 241950.78400000115,
      "d": 1.0162583333440125,
      "v": 80
    },
    {
      "midi": 71,
      "hit": false,
      "t": 241950.78400000118,
      "d": 121.95100000000093,
      "v": 100
    },
    {
      "midi": 35,
      "hit": false,
      "t": 241950.7840000012,
      "d": 243.90200000000186,
      "v": 100
    },
    {
      "midi": 33,
      "hit": false,
      "t": 241950.78400000226,
      "d": 1.0162583333440125,
      "v": 127
    },
    {
      "midi": 42,
      "hit": false,
      "t": 241950.78400000226,
      "d": 1.0162583333440125,
      "v": 100
    },
    {
      "midi": 78,
      "hit": false,
      "t": 241950.78400000368,
      "d": 487.8039999999455,
      "v": 127
    },
    {
      "midi": 71,
      "hit": false,
      "t": 241950.78400000816,
      "d": 487.8040000000037,
      "v": 100
    },
    {
      "midi": 66,
      "hit": false,
      "t": 241950.78400000816,
      "d": 487.8040000000037,
      "v": 100
    },
    {
      "midi": 63,
      "hit": false,
      "t": 241950.78400000816,
      "d": 487.8040000000037,
      "v": 100
    },
    {
      "midi": 54,
      "hit": false,
      "t": 242072.73500000115,
      "d": 1.0162583333440125,
      "v": 60
    },
    {
      "midi": 71,
      "hit": false,
      "t": 242072.73500000118,
      "d": 121.95100000000093,
      "v": 100
    },
    {
      "midi": 71,
      "hit": false,
      "t": 242072.73500000144,
      "d": 121.95100000000093,
      "v": 100
    },
    {
      "midi": 66,
      "hit": false,
      "t": 242072.73500000144,
      "d": 121.95100000000093,
      "v": 100
    },
    {
      "midi": 63,
      "hit": false,
      "t": 242072.73500000144,
      "d": 121.95100000000093,
      "v": 100
    },
    {
      "midi": 54,
      "hit": false,
      "t": 242194.68600000115,
      "d": 1.0162583333440125,
      "v": 60
    },
    {
      "midi": 75,
      "hit": false,
      "t": 242194.68600000118,
      "d": 121.95100000000093,
      "v": 100
    },
    {
      "midi": 35,
      "hit": false,
      "t": 242194.6860000012,
      "d": 243.90200000000186,
      "v": 100
    },
    {
      "midi": 71,
      "hit": false,
      "t": 242194.68600000144,
      "d": 121.95100000000093,
      "v": 100
    },
    {
      "midi": 66,
      "hit": false,
      "t": 242194.68600000144,
      "d": 121.95100000000093,
      "v": 100
    },
    {
      "midi": 63,
      "hit": false,
      "t": 242194.68600000144,
      "d": 121.95100000000093,
      "v": 100
    },
    {
      "midi": 46,
      "hit": false,
      "t": 242194.68600000226,
      "d": 1.0162583333440125,
      "v": 100
    },
    {
      "midi": 54,
      "hit": false,
      "t": 242316.63700000115,
      "d": 1.0162583333440125,
      "v": 60
    },
    {
      "midi": 75,
      "hit": false,
      "t": 242316.63700000118,
      "d": 121.95100000000093,
      "v": 100
    },
    {
      "midi": 44,
      "hit": false,
      "t": 242316.63700000226,
      "d": 1.0162583333440125,
      "v": 100
    },
    {
      "midi": 83,
      "hit": false,
      "t": 242438.58800000115,
      "d": 243.90200000000186,
      "v": 100
    },
    {
      "midi": 78,
      "hit": false,
      "t": 242438.58800000115,
      "d": 243.90200000000186,
      "v": 100
    },
    {
      "midi": 54,
      "hit": false,
      "t": 242438.58800000115,
      "d": 1.0162583333440125,
      "v": 80
    },
    {
      "midi": 71,
      "hit": false,
      "t": 242438.58800000118,
      "d": 121.95100000000093,
      "v": 100
    },
    {
      "midi": 35,
      "hit": false,
      "t": 242438.5880000012,
      "d": 243.90200000000186,
      "v": 100
    },
    {
      "midi": 71,
      "hit": false,
      "t": 242438.58800000144,
      "d": 121.95100000000093,
      "v": 100
    },
    {
      "midi": 66,
      "hit": false,
      "t": 242438.58800000144,
      "d": 121.95100000000093,
      "v": 100
    },
    {
      "midi": 63,
      "hit": false,
      "t": 242438.58800000144,
      "d": 121.95100000000093,
      "v": 100
    },
    {
      "midi": 33,
      "hit": false,
      "t": 242438.58800000226,
      "d": 1.0162583333440125,
      "v": 127
    },
    {
      "midi": 40,
      "hit": false,
      "t": 242438.58800000226,
      "d": 1.0162583333440125,
      "v": 100
    },
    {
      "midi": 46,
      "hit": false,
      "t": 242438.58800000226,
      "d": 1.0162583333440125,
      "v": 100
    },
    {
      "midi": 75,
      "hit": false,
      "t": 242438.58800000363,
      "d": 162.60133333332487,
      "v": 127
    },
    {
      "midi": 71,
      "hit": false,
      "t": 242438.58800000817,
      "d": 60.97549999988405,
      "v": 100
    },
    {
      "midi": 66,
      "hit": false,
      "t": 242438.58800000817,
      "d": 60.97549999988405,
      "v": 100
    },
    {
      "midi": 63,
      "hit": false,
      "t": 242438.58800000817,
      "d": 60.97549999988405,
      "v": 100
    },
    {
      "midi": 54,
      "hit": false,
      "t": 242560.53900000115,
      "d": 1.0162583333440125,
      "v": 60
    },
    {
      "midi": 71,
      "hit": false,
      "t": 242560.53900000118,
      "d": 121.95100000000093,
      "v": 100
    },
    {
      "midi": 44,
      "hit": false,
      "t": 242560.53900000226,
      "d": 1.0162583333440125,
      "v": 100
    },
    {
      "midi": 71,
      "hit": false,
      "t": 242560.53900000805,
      "d": 60.975500000000466,
      "v": 100
    },
    {
      "midi": 66,
      "hit": false,
      "t": 242560.53900000805,
      "d": 60.975500000000466,
      "v": 100
    },
    {
      "midi": 63,
      "hit": false,
      "t": 242560.53900000805,
      "d": 60.975500000000466,
      "v": 100
    },
    {
      "midi": 76,
      "hit": false,
      "t": 242601.18933333695,
      "d": 162.60133333332487,
      "v": 127
    },
    {
      "midi": 78,
      "hit": false,
      "t": 242682.49000000115,
      "d": 40.65033333332394,
      "v": 100
    },
    {
      "midi": 83,
      "hit": false,
      "t": 242682.49000000115,
      "d": 40.65033333332394,
      "v": 100
    },
    {
      "midi": 54,
      "hit": false,
      "t": 242682.49000000115,
      "d": 1.0162583333440125,
      "v": 60
    },
    {
      "midi": 80,
      "hit": false,
      "t": 242682.49000000118,
      "d": 121.95100000000093,
      "v": 100
    },
    {
      "midi": 35,
      "hit": false,
      "t": 242682.4900000012,
      "d": 71.13808333332418,
      "v": 100
    },
    {
      "midi": 71,
      "hit": false,
      "t": 242682.49000000145,
      "d": 121.95100000000093,
      "v": 100
    },
    {
      "midi": 66,
      "hit": false,
      "t": 242682.49000000145,
      "d": 121.95100000000093,
      "v": 100
    },
    {
      "midi": 63,
      "hit": false,
      "t": 242682.49000000145,
      "d": 121.95100000000093,
      "v": 100
    },
    {
      "midi": 46,
      "hit": false,
      "t": 242682.49000000226,
      "d": 1.0162583333440125,
      "v": 100
    },
    {
      "midi": 71,
      "hit": false,
      "t": 242682.49000000797,
      "d": 60.975500000000466,
      "v": 100
    },
    {
      "midi": 66,
      "hit": false,
      "t": 242682.49000000797,
      "d": 60.975500000000466,
      "v": 100
    },
    {
      "midi": 63,
      "hit": false,
      "t": 242682.49000000797,
      "d": 60.975500000000466,
      "v": 100
    },
    {
      "midi": 78,
      "hit": false,
      "t": 242763.79066667028,
      "d": 162.60133333332487,
      "v": 127
    },
    {
      "midi": 83,
      "hit": false,
      "t": 242804.44100000116,
      "d": 243.90200000000186,
      "v": 100
    },
    {
      "midi": 78,
      "hit": false,
      "t": 242804.44100000116,
      "d": 243.90200000000186,
      "v": 100
    },
    {
      "midi": 75,
      "hit": false,
      "t": 242804.44100000116,
      "d": 325.20266666667885,
      "v": 100
    },
    {
      "midi": 54,
      "hit": false,
      "t": 242804.44100000116,
      "d": 1.0162583333440125,
      "v": 60
    },
    {
      "midi": 80,
      "hit": false,
      "t": 242804.44100000118,
      "d": 121.95100000000093,
      "v": 100
    },
    {
      "midi": 32,
      "hit": false,
      "t": 242804.4410000012,
      "d": 243.90200000000186,
      "v": 100
    },
    {
      "midi": 44,
      "hit": false,
      "t": 242804.44100000226,
      "d": 1.0162583333440125,
      "v": 100
    },
    {
      "midi": 40,
      "hit": false,
      "t": 242804.44100000226,
      "d": 1.0162583333440125,
      "v": 100
    },
    {
      "midi": 71,
      "hit": false,
      "t": 242804.44100000797,
      "d": 60.975500000000466,
      "v": 100
    },
    {
      "midi": 66,
      "hit": false,
      "t": 242804.44100000797,
      "d": 60.975500000000466,
      "v": 100
    },
    {
      "midi": 63,
      "hit": false,
      "t": 242804.44100000797,
      "d": 60.975500000000466,
      "v": 100
    },
    {
      "midi": 54,
      "hit": false,
      "t": 242926.39200000116,
      "d": 1.0162583333440125,
      "v": 80
    },
    {
      "midi": 80,
      "hit": false,
      "t": 242926.3920000012,
      "d": 121.95100000000093,
      "v": 100
    },
    {
      "midi": 68,
      "hit": false,
      "t": 242926.39200000145,
      "d": 121.95100000000093,
      "v": 100
    },
    {
      "midi": 64,
      "hit": false,
      "t": 242926.39200000145,
      "d": 121.95100000000093,
      "v": 100
    },
    {
      "midi": 59,
      "hit": false,
      "t": 242926.39200000145,
      "d": 121.95100000000093,
      "v": 100
    },
    {
      "midi": 33,
      "hit": false,
      "t": 242926.39200000226,
      "d": 1.0162583333440125,
      "v": 127
    },
    {
      "midi": 42,
      "hit": false,
      "t": 242926.39200000226,
      "d": 1.0162583333440125,
      "v": 100
    },
    {
      "midi": 71,
      "hit": false,
      "t": 242926.3920000036,
      "d": 975.6079999997455,
      "v": 127
    },
    {
      "midi": 68,
      "hit": false,
      "t": 242926.39200000797,
      "d": 60.97549999988405,
      "v": 100
    },
    {
      "midi": 63,
      "hit": false,
      "t": 242926.39200000797,
      "d": 60.97549999988405,
      "v": 100
    },
    {
      "midi": 59,
      "hit": false,
      "t": 242926.39200000797,
      "d": 60.97549999988405,
      "v": 100
    },
    {
      "midi": 54,
      "hit": false,
      "t": 243048.34300000116,
      "d": 1.0162583333440125,
      "v": 60
    },
    {
      "midi": 80,
      "hit": false,
      "t": 243048.3430000012,
      "d": 121.95100000000093,
      "v": 100
    },
    {
      "midi": 32,
      "hit": false,
      "t": 243048.34300000122,
      "d": 121.95100000000093,
      "v": 100
    },
    {
      "midi": 68,
      "hit": false,
      "t": 243048.34300000145,
      "d": 121.95100000000093,
      "v": 100
    },
    {
      "midi": 64,
      "hit": false,
      "t": 243048.34300000145,
      "d": 121.95100000000093,
      "v": 100
    },
    {
      "midi": 59,
      "hit": false,
      "t": 243048.34300000145,
      "d": 121.95100000000093,
      "v": 100
    },
    {
      "midi": 40,
      "hit": false,
      "t": 243048.34300000226,
      "d": 1.0162583333440125,
      "v": 100
    },
    {
      "midi": 68,
      "hit": false,
      "t": 243048.34300000785,
      "d": 60.975500000000466,
      "v": 100
    },
    {
      "midi": 63,
      "hit": false,
      "t": 243048.34300000785,
      "d": 60.975500000000466,
      "v": 100
    },
    {
      "midi": 59,
      "hit": false,
      "t": 243048.34300000785,
      "d": 60.975500000000466,
      "v": 100
    },
    {
      "midi": 75,
      "hit": false,
      "t": 243170.29400000116,
      "d": 243.90200000000186,
      "v": 100
    },
    {
      "midi": 83,
      "hit": false,
      "t": 243170.29400000116,
      "d": 243.90200000000186,
      "v": 100
    },
    {
      "midi": 78,
      "hit": false,
      "t": 243170.29400000116,
      "d": 243.90200000000186,
      "v": 100
    },
    {
      "midi": 54,
      "hit": false,
      "t": 243170.29400000116,
      "d": 1.0162583333440125,
      "v": 60
    },
    {
      "midi": 80,
      "hit": false,
      "t": 243170.2940000012,
      "d": 121.95100000000093,
      "v": 100
    },
    {
      "midi": 32,
      "hit": false,
      "t": 243170.29400000122,
      "d": 243.90200000000186,
      "v": 100
    },
    {
      "midi": 46,
      "hit": false,
      "t": 243170.29400000226,
      "d": 1.0162583333440125,
      "v": 100
    },
    {
      "midi": 68,
      "hit": false,
      "t": 243170.29400000777,
      "d": 60.975500000000466,
      "v": 100
    },
    {
      "midi": 63,
      "hit": false,
      "t": 243170.29400000777,
      "d": 60.975500000000466,
      "v": 100
    },
    {
      "midi": 59,
      "hit": false,
      "t": 243170.29400000777,
      "d": 60.975500000000466,
      "v": 100
    },
    {
      "midi": 54,
      "hit": false,
      "t": 243292.24500000116,
      "d": 1.0162583333440125,
      "v": 60
    },
    {
      "midi": 80,
      "hit": false,
      "t": 243292.2450000012,
      "d": 121.95100000000093,
      "v": 100
    },
    {
      "midi": 68,
      "hit": false,
      "t": 243292.24500000145,
      "d": 121.95100000000093,
      "v": 100
    },
    {
      "midi": 64,
      "hit": false,
      "t": 243292.24500000145,
      "d": 121.95100000000093,
      "v": 100
    },
    {
      "midi": 59,
      "hit": false,
      "t": 243292.24500000145,
      "d": 121.95100000000093,
      "v": 100
    },
    {
      "midi": 44,
      "hit": false,
      "t": 243292.24500000227,
      "d": 1.0162583333440125,
      "v": 100
    },
    {
      "midi": 68,
      "hit": false,
      "t": 243292.24500000777,
      "d": 60.975500000000466,
      "v": 100
    },
    {
      "midi": 63,
      "hit": false,
      "t": 243292.24500000777,
      "d": 60.975500000000466,
      "v": 100
    },
    {
      "midi": 59,
      "hit": false,
      "t": 243292.24500000777,
      "d": 60.975500000000466,
      "v": 100
    },
    {
      "midi": 75,
      "hit": false,
      "t": 243414.19600000116,
      "d": 243.90200000000186,
      "v": 100
    },
    {
      "midi": 80,
      "hit": false,
      "t": 243414.19600000116,
      "d": 243.90200000000186,
      "v": 100
    },
    {
      "midi": 78,
      "hit": false,
      "t": 243414.19600000116,
      "d": 243.90200000000186,
      "v": 100
    },
    {
      "midi": 54,
      "hit": false,
      "t": 243414.19600000116,
      "d": 1.0162583333440125,
      "v": 80
    },
    {
      "midi": 75,
      "hit": false,
      "t": 243414.1960000012,
      "d": 121.95100000000093,
      "v": 100
    },
    {
      "midi": 32,
      "hit": false,
      "t": 243414.19600000122,
      "d": 243.90200000000186,
      "v": 100
    },
    {
      "midi": 33,
      "hit": false,
      "t": 243414.19600000227,
      "d": 1.0162583333440125,
      "v": 127
    },
    {
      "midi": 40,
      "hit": false,
      "t": 243414.19600000227,
      "d": 1.0162583333440125,
      "v": 100
    },
    {
      "midi": 46,
      "hit": false,
      "t": 243414.19600000227,
      "d": 1.0162583333440125,
      "v": 100
    },
    {
      "midi": 68,
      "hit": false,
      "t": 243414.19600000777,
      "d": 243.90199999985634,
      "v": 100
    },
    {
      "midi": 63,
      "hit": false,
      "t": 243414.19600000777,
      "d": 243.90199999985634,
      "v": 100
    },
    {
      "midi": 59,
      "hit": false,
      "t": 243414.19600000777,
      "d": 243.90199999985634,
      "v": 100
    },
    {
      "midi": 54,
      "hit": false,
      "t": 243536.14700000116,
      "d": 1.0162583333440125,
      "v": 60
    },
    {
      "midi": 75,
      "hit": false,
      "t": 243536.1470000012,
      "d": 121.95100000000093,
      "v": 100
    },
    {
      "midi": 44,
      "hit": false,
      "t": 243536.14700000227,
      "d": 1.0162583333440125,
      "v": 100
    },
    {
      "midi": 75,
      "hit": false,
      "t": 243658.09800000116,
      "d": 243.90200000000186,
      "v": 100
    },
    {
      "midi": 83,
      "hit": false,
      "t": 243658.09800000116,
      "d": 243.90200000000186,
      "v": 100
    },
    {
      "midi": 78,
      "hit": false,
      "t": 243658.09800000116,
      "d": 243.90200000000186,
      "v": 100
    },
    {
      "midi": 54,
      "hit": false,
      "t": 243658.09800000116,
      "d": 1.0162583333440125,
      "v": 60
    },
    {
      "midi": 80,
      "hit": false,
      "t": 243658.0980000012,
      "d": 121.95100000000093,
      "v": 100
    },
    {
      "midi": 32,
      "hit": false,
      "t": 243658.09800000122,
      "d": 243.90200000000186,
      "v": 100
    },
    {
      "midi": 40,
      "hit": false,
      "t": 243658.09800000227,
      "d": 1.0162583333440125,
      "v": 40
    },
    {
      "midi": 46,
      "hit": false,
      "t": 243658.09800000227,
      "d": 1.0162583333440125,
      "v": 100
    },
    {
      "midi": 68,
      "hit": false,
      "t": 243658.09800000762,
      "d": 60.975500000000466,
      "v": 100
    },
    {
      "midi": 63,
      "hit": false,
      "t": 243658.09800000762,
      "d": 60.975500000000466,
      "v": 100
    },
    {
      "midi": 59,
      "hit": false,
      "t": 243658.09800000762,
      "d": 60.975500000000466,
      "v": 100
    },
    {
      "midi": 54,
      "hit": false,
      "t": 243780.04900000116,
      "d": 1.0162583333440125,
      "v": 60
    },
    {
      "midi": 80,
      "hit": false,
      "t": 243780.0490000012,
      "d": 121.95100000000093,
      "v": 100
    },
    {
      "midi": 40,
      "hit": false,
      "t": 243780.04900000227,
      "d": 1.0162583333440125,
      "v": 100
    },
    {
      "midi": 44,
      "hit": false,
      "t": 243780.04900000227,
      "d": 1.0162583333440125,
      "v": 100
    },
    {
      "midi": 68,
      "hit": false,
      "t": 243780.04900000762,
      "d": 60.975500000000466,
      "v": 100
    },
    {
      "midi": 63,
      "hit": false,
      "t": 243780.04900000762,
      "d": 60.975500000000466,
      "v": 100
    },
    {
      "midi": 59,
      "hit": false,
      "t": 243780.04900000762,
      "d": 60.975500000000466,
      "v": 100
    },
    {
      "midi": 81,
      "hit": false,
      "t": 243902.00000000116,
      "d": 243.90200000000186,
      "v": 100
    },
    {
      "midi": 76,
      "hit": false,
      "t": 243902.00000000116,
      "d": 243.90200000000186,
      "v": 100
    },
    {
      "midi": 73,
      "hit": false,
      "t": 243902.00000000116,
      "d": 243.90200000000186,
      "v": 100
    },
    {
      "midi": 54,
      "hit": false,
      "t": 243902.00000000116,
      "d": 1.0162583333440125,
      "v": 80
    },
    {
      "midi": 66,
      "hit": false,
      "t": 243902.0000000012,
      "d": 121.95100000000093,
      "v": 100
    },
    {
      "midi": 30,
      "hit": false,
      "t": 243902.00000000122,
      "d": 243.90200000000186,
      "v": 100
    },
    {
      "midi": 33,
      "hit": false,
      "t": 243902.00000000227,
      "d": 1.0162583333440125,
      "v": 127
    },
    {
      "midi": 42,
      "hit": false,
      "t": 243902.00000000227,
      "d": 1.0162583333440125,
      "v": 100
    },
    {
      "midi": 73,
      "hit": false,
      "t": 243902.00000000335,
      "d": 162.60133333323756,
      "v": 127
    },
    {
      "midi": 69,
      "hit": false,
      "t": 243902.00000000763,
      "d": 487.8040000000037,
      "v": 100
    },
    {
      "midi": 64,
      "hit": false,
      "t": 243902.00000000763,
      "d": 487.8040000000037,
      "v": 100
    },
    {
      "midi": 61,
      "hit": false,
      "t": 243902.00000000763,
      "d": 487.8040000000037,
      "v": 100
    },
    {
      "midi": 54,
      "hit": false,
      "t": 244023.95100000117,
      "d": 1.0162583333440125,
      "v": 60
    },
    {
      "midi": 59,
      "hit": false,
      "t": 244023.9510000012,
      "d": 121.95100000000093,
      "v": 100
    },
    {
      "midi": 61,
      "hit": false,
      "t": 244023.95100000146,
      "d": 121.95100000000093,
      "v": 100
    },
    {
      "midi": 64,
      "hit": false,
      "t": 244023.95100000146,
      "d": 121.95100000000093,
      "v": 100
    },
    {
      "midi": 69,
      "hit": false,
      "t": 244023.95100000146,
      "d": 121.95100000000093,
      "v": 100
    },
    {
      "midi": 76,
      "hit": false,
      "t": 244064.60133333658,
      "d": 162.60133333332487,
      "v": 127
    },
    {
      "midi": 54,
      "hit": false,
      "t": 244145.90200000117,
      "d": 1.0162583333440125,
      "v": 60
    },
    {
      "midi": 66,
      "hit": false,
      "t": 244145.9020000012,
      "d": 121.95100000000093,
      "v": 100
    },
    {
      "midi": 30,
      "hit": false,
      "t": 244145.90200000122,
      "d": 243.90200000000186,
      "v": 100
    },
    {
      "midi": 69,
      "hit": false,
      "t": 244145.90200000146,
      "d": 121.95100000000093,
      "v": 100
    },
    {
      "midi": 64,
      "hit": false,
      "t": 244145.90200000146,
      "d": 121.95100000000093,
      "v": 100
    },
    {
      "midi": 61,
      "hit": false,
      "t": 244145.90200000146,
      "d": 121.95100000000093,
      "v": 100
    },
    {
      "midi": 46,
      "hit": false,
      "t": 244145.90200000227,
      "d": 1.0162583333440125,
      "v": 100
    },
    {
      "midi": 73,
      "hit": false,
      "t": 244227.2026666699,
      "d": 162.60133333332487,
      "v": 127
    },
    {
      "midi": 54,
      "hit": false,
      "t": 244267.85300000117,
      "d": 1.0162583333440125,
      "v": 60
    },
    {
      "midi": 71,
      "hit": false,
      "t": 244267.8530000012,
      "d": 121.95100000000093,
      "v": 100
    },
    {
      "midi": 44,
      "hit": false,
      "t": 244267.85300000227,
      "d": 1.0162583333440125,
      "v": 100
    },
    {
      "midi": 81,
      "hit": false,
      "t": 244389.80400000117,
      "d": 243.90200000000186,
      "v": 100
    },
    {
      "midi": 76,
      "hit": false,
      "t": 244389.80400000117,
      "d": 243.90200000000186,
      "v": 100
    },
    {
      "midi": 73,
      "hit": false,
      "t": 244389.80400000117,
      "d": 243.90200000000186,
      "v": 100
    },
    {
      "midi": 54,
      "hit": false,
      "t": 244389.80400000117,
      "d": 1.0162583333440125,
      "v": 80
    },
    {
      "midi": 66,
      "hit": false,
      "t": 244389.8040000012,
      "d": 121.95100000000093,
      "v": 100
    },
    {
      "midi": 30,
      "hit": false,
      "t": 244389.80400000123,
      "d": 243.90200000000186,
      "v": 100
    },
    {
      "midi": 69,
      "hit": false,
      "t": 244389.80400000146,
      "d": 121.95100000000093,
      "v": 100
    },
    {
      "midi": 64,
      "hit": false,
      "t": 244389.80400000146,
      "d": 121.95100000000093,
      "v": 100
    },
    {
      "midi": 61,
      "hit": false,
      "t": 244389.80400000146,
      "d": 121.95100000000093,
      "v": 100
    },
    {
      "midi": 33,
      "hit": false,
      "t": 244389.80400000227,
      "d": 1.0162583333440125,
      "v": 127
    },
    {
      "midi": 40,
      "hit": false,
      "t": 244389.80400000227,
      "d": 1.0162583333440125,
      "v": 100
    },
    {
      "midi": 46,
      "hit": false,
      "t": 244389.80400000227,
      "d": 1.0162583333440125,
      "v": 100
    },
    {
      "midi": 75,
      "hit": false,
      "t": 244389.80400000323,
      "d": 162.60133333323756,
      "v": 127
    },
    {
      "midi": 69,
      "hit": false,
      "t": 244389.80400000763,
      "d": 60.97549999988405,
      "v": 100
    },
    {
      "midi": 64,
      "hit": false,
      "t": 244389.80400000763,
      "d": 60.97549999988405,
      "v": 100
    },
    {
      "midi": 61,
      "hit": false,
      "t": 244389.80400000763,
      "d": 60.97549999988405,
      "v": 100
    },
    {
      "midi": 54,
      "hit": false,
      "t": 244511.75500000117,
      "d": 1.0162583333440125,
      "v": 60
    },
    {
      "midi": 71,
      "hit": false,
      "t": 244511.7550000012,
      "d": 121.95100000000093,
      "v": 100
    },
    {
      "midi": 44,
      "hit": false,
      "t": 244511.75500000227,
      "d": 1.0162583333440125,
      "v": 100
    },
    {
      "midi": 69,
      "hit": false,
      "t": 244511.7550000075,
      "d": 60.975500000000466,
      "v": 100
    },
    {
      "midi": 64,
      "hit": false,
      "t": 244511.7550000075,
      "d": 60.975500000000466,
      "v": 100
    },
    {
      "midi": 61,
      "hit": false,
      "t": 244511.7550000075,
      "d": 60.975500000000466,
      "v": 100
    },
    {
      "midi": 78,
      "hit": false,
      "t": 244552.40533333647,
      "d": 162.60133333332487,
      "v": 127
    },
    {
      "midi": 54,
      "hit": false,
      "t": 244633.70600000117,
      "d": 1.0162583333440125,
      "v": 60
    },
    {
      "midi": 78,
      "hit": false,
      "t": 244633.7060000012,
      "d": 121.95100000000093,
      "v": 100
    },
    {
      "midi": 30,
      "hit": false,
      "t": 244633.70600000123,
      "d": 71.13808333332418,
      "v": 100
    },
    {
      "midi": 69,
      "hit": false,
      "t": 244633.70600000146,
      "d": 121.95100000000093,
      "v": 100
    },
    {
      "midi": 64,
      "hit": false,
      "t": 244633.70600000146,
      "d": 121.95100000000093,
      "v": 100
    },
    {
      "midi": 61,
      "hit": false,
      "t": 244633.70600000146,
      "d": 121.95100000000093,
      "v": 100
    },
    {
      "midi": 46,
      "hit": false,
      "t": 244633.70600000228,
      "d": 1.0162583333440125,
      "v": 100
    },
    {
      "midi": 69,
      "hit": false,
      "t": 244633.70600000743,
      "d": 60.975500000000466,
      "v": 100
    },
    {
      "midi": 64,
      "hit": false,
      "t": 244633.70600000743,
      "d": 60.975500000000466,
      "v": 100
    },
    {
      "midi": 61,
      "hit": false,
      "t": 244633.70600000743,
      "d": 60.975500000000466,
      "v": 100
    },
    {
      "midi": 75,
      "hit": false,
      "t": 244715.0066666698,
      "d": 162.60133333332487,
      "v": 127
    },
    {
      "midi": 83,
      "hit": false,
      "t": 244755.65700000117,
      "d": 365.8530000000028,
      "v": 100
    },
    {
      "midi": 78,
      "hit": false,
      "t": 244755.65700000117,
      "d": 365.8530000000028,
      "v": 100
    },
    {
      "midi": 75,
      "hit": false,
      "t": 244755.65700000117,
      "d": 365.8530000000028,
      "v": 100
    },
    {
      "midi": 54,
      "hit": false,
      "t": 244755.65700000117,
      "d": 1.0162583333440125,
      "v": 60
    },
    {
      "midi": 83,
      "hit": false,
      "t": 244755.6570000012,
      "d": 121.95100000000093,
      "v": 100
    },
    {
      "midi": 35,
      "hit": false,
      "t": 244755.65700000123,
      "d": 243.90200000000186,
      "v": 100
    },
    {
      "midi": 44,
      "hit": false,
      "t": 244755.65700000228,
      "d": 1.0162583333440125,
      "v": 100
    },
    {
      "midi": 69,
      "hit": false,
      "t": 244755.65700000743,
      "d": 60.975500000000466,
      "v": 100
    },
    {
      "midi": 64,
      "hit": false,
      "t": 244755.65700000743,
      "d": 60.975500000000466,
      "v": 100
    },
    {
      "midi": 61,
      "hit": false,
      "t": 244755.65700000743,
      "d": 60.975500000000466,
      "v": 100
    },
    {
      "midi": 54,
      "hit": false,
      "t": 244877.60800000117,
      "d": 1.0162583333440125,
      "v": 80
    },
    {
      "midi": 83,
      "hit": false,
      "t": 244877.6080000012,
      "d": 121.95100000000093,
      "v": 100
    },
    {
      "midi": 71,
      "hit": false,
      "t": 244877.60800000146,
      "d": 121.95100000000093,
      "v": 100
    },
    {
      "midi": 66,
      "hit": false,
      "t": 244877.60800000146,
      "d": 121.95100000000093,
      "v": 100
    },
    {
      "midi": 63,
      "hit": false,
      "t": 244877.60800000146,
      "d": 121.95100000000093,
      "v": 100
    },
    {
      "midi": 33,
      "hit": false,
      "t": 244877.60800000228,
      "d": 1.0162583333440125,
      "v": 127
    },
    {
      "midi": 42,
      "hit": false,
      "t": 244877.60800000228,
      "d": 1.0162583333440125,
      "v": 100
    },
    {
      "midi": 76,
      "hit": false,
      "t": 244877.60800000312,
      "d": 162.60133333323756,
      "v": 127
    },
    {
      "midi": 71,
      "hit": false,
      "t": 244877.60800000743,
      "d": 60.97549999988405,
      "v": 100
    },
    {
      "midi": 66,
      "hit": false,
      "t": 244877.60800000743,
      "d": 60.97549999988405,
      "v": 100
    },
    {
      "midi": 63,
      "hit": false,
      "t": 244877.60800000743,
      "d": 60.97549999988405,
      "v": 100
    },
    {
      "midi": 54,
      "hit": false,
      "t": 244999.55900000117,
      "d": 1.0162583333440125,
      "v": 60
    },
    {
      "midi": 83,
      "hit": false,
      "t": 244999.5590000012,
      "d": 121.95100000000093,
      "v": 100
    },
    {
      "midi": 35,
      "hit": false,
      "t": 244999.55900000123,
      "d": 121.95100000000093,
      "v": 100
    },
    {
      "midi": 71,
      "hit": false,
      "t": 244999.55900000146,
      "d": 121.95100000000093,
      "v": 100
    },
    {
      "midi": 66,
      "hit": false,
      "t": 244999.55900000146,
      "d": 121.95100000000093,
      "v": 100
    },
    {
      "midi": 63,
      "hit": false,
      "t": 244999.55900000146,
      "d": 121.95100000000093,
      "v": 100
    },
    {
      "midi": 71,
      "hit": false,
      "t": 244999.5590000073,
      "d": 60.975500000000466,
      "v": 100
    },
    {
      "midi": 66,
      "hit": false,
      "t": 244999.5590000073,
      "d": 60.975500000000466,
      "v": 100
    },
    {
      "midi": 63,
      "hit": false,
      "t": 244999.5590000073,
      "d": 60.975500000000466,
      "v": 100
    },
    {
      "midi": 80,
      "hit": false,
      "t": 245040.20933333636,
      "d": 162.60133333332487,
      "v": 127
    },
    {
      "midi": 83,
      "hit": false,
      "t": 245121.51000000117,
      "d": 243.90200000000186,
      "v": 100
    },
    {
      "midi": 78,
      "hit": false,
      "t": 245121.51000000117,
      "d": 243.90200000000186,
      "v": 100
    },
    {
      "midi": 75,
      "hit": false,
      "t": 245121.51000000117,
      "d": 243.90200000000186,
      "v": 100
    },
    {
      "midi": 54,
      "hit": false,
      "t": 245121.51000000117,
      "d": 1.0162583333440125,
      "v": 60
    },
    {
      "midi": 83,
      "hit": false,
      "t": 245121.5100000012,
      "d": 121.95100000000093,
      "v": 100
    },
    {
      "midi": 35,
      "hit": false,
      "t": 245121.51000000123,
      "d": 243.90200000000186,
      "v": 100
    },
    {
      "midi": 46,
      "hit": false,
      "t": 245121.51000000228,
      "d": 1.0162583333440125,
      "v": 100
    },
    {
      "midi": 71,
      "hit": false,
      "t": 245121.51000000723,
      "d": 60.975500000000466,
      "v": 100
    },
    {
      "midi": 66,
      "hit": false,
      "t": 245121.51000000723,
      "d": 60.975500000000466,
      "v": 100
    },
    {
      "midi": 63,
      "hit": false,
      "t": 245121.51000000723,
      "d": 60.975500000000466,
      "v": 100
    },
    {
      "midi": 76,
      "hit": false,
      "t": 245202.81066666968,
      "d": 162.60133333332487,
      "v": 127
    },
    {
      "midi": 54,
      "hit": false,
      "t": 245243.46100000117,
      "d": 1.0162583333440125,
      "v": 60
    },
    {
      "midi": 83,
      "hit": false,
      "t": 245243.4610000012,
      "d": 121.95100000000093,
      "v": 100
    },
    {
      "midi": 71,
      "hit": false,
      "t": 245243.46100000147,
      "d": 121.95100000000093,
      "v": 100
    },
    {
      "midi": 66,
      "hit": false,
      "t": 245243.46100000147,
      "d": 121.95100000000093,
      "v": 100
    },
    {
      "midi": 63,
      "hit": false,
      "t": 245243.46100000147,
      "d": 121.95100000000093,
      "v": 100
    },
    {
      "midi": 44,
      "hit": false,
      "t": 245243.46100000228,
      "d": 1.0162583333440125,
      "v": 100
    },
    {
      "midi": 71,
      "hit": false,
      "t": 245243.46100000723,
      "d": 60.975500000000466,
      "v": 100
    },
    {
      "midi": 66,
      "hit": false,
      "t": 245243.46100000723,
      "d": 60.975500000000466,
      "v": 100
    },
    {
      "midi": 63,
      "hit": false,
      "t": 245243.46100000723,
      "d": 60.975500000000466,
      "v": 100
    },
    {
      "midi": 78,
      "hit": false,
      "t": 245365.41200000118,
      "d": 243.90200000000186,
      "v": 100
    },
    {
      "midi": 75,
      "hit": false,
      "t": 245365.41200000118,
      "d": 243.90200000000186,
      "v": 100
    },
    {
      "midi": 71,
      "hit": false,
      "t": 245365.41200000118,
      "d": 243.90200000000186,
      "v": 100
    },
    {
      "midi": 54,
      "hit": false,
      "t": 245365.41200000118,
      "d": 1.0162583333440125,
      "v": 80
    },
    {
      "midi": 78,
      "hit": false,
      "t": 245365.4120000012,
      "d": 121.95100000000093,
      "v": 100
    },
    {
      "midi": 35,
      "hit": false,
      "t": 245365.41200000123,
      "d": 243.90200000000186,
      "v": 100
    },
    {
      "midi": 33,
      "hit": false,
      "t": 245365.41200000228,
      "d": 1.0162583333440125,
      "v": 127
    },
    {
      "midi": 40,
      "hit": false,
      "t": 245365.41200000228,
      "d": 1.0162583333440125,
      "v": 100
    },
    {
      "midi": 46,
      "hit": false,
      "t": 245365.41200000228,
      "d": 1.0162583333440125,
      "v": 100
    },
    {
      "midi": 83,
      "hit": false,
      "t": 245365.412000003,
      "d": 162.60133333332487,
      "v": 127
    },
    {
      "midi": 71,
      "hit": false,
      "t": 245365.41200000723,
      "d": 243.90199999985634,
      "v": 100
    },
    {
      "midi": 66,
      "hit": false,
      "t": 245365.41200000723,
      "d": 243.90199999985634,
      "v": 100
    },
    {
      "midi": 63,
      "hit": false,
      "t": 245365.41200000723,
      "d": 243.90199999985634,
      "v": 100
    },
    {
      "midi": 54,
      "hit": false,
      "t": 245487.36300000118,
      "d": 1.0162583333440125,
      "v": 60
    },
    {
      "midi": 78,
      "hit": false,
      "t": 245487.3630000012,
      "d": 121.95100000000093,
      "v": 100
    },
    {
      "midi": 44,
      "hit": false,
      "t": 245487.36300000228,
      "d": 1.0162583333440125,
      "v": 100
    },
    {
      "midi": 81,
      "hit": false,
      "t": 245528.01333333633,
      "d": 162.60133333332487,
      "v": 127
    },
    {
      "midi": 80,
      "hit": false,
      "t": 245609.31400000118,
      "d": 243.90200000000186,
      "v": 100
    },
    {
      "midi": 78,
      "hit": false,
      "t": 245609.31400000118,
      "d": 243.90200000000186,
      "v": 100
    },
    {
      "midi": 75,
      "hit": false,
      "t": 245609.31400000118,
      "d": 243.90200000000186,
      "v": 100
    },
    {
      "midi": 54,
      "hit": false,
      "t": 245609.31400000118,
      "d": 1.0162583333440125,
      "v": 60
    },
    {
      "midi": 80,
      "hit": false,
      "t": 245609.3140000012,
      "d": 121.95100000000093,
      "v": 100
    },
    {
      "midi": 35,
      "hit": false,
      "t": 245609.31400000124,
      "d": 243.90200000000186,
      "v": 100
    },
    {
      "midi": 40,
      "hit": false,
      "t": 245609.31400000228,
      "d": 1.0162583333440125,
      "v": 40
    },
    {
      "midi": 46,
      "hit": false,
      "t": 245609.31400000228,
      "d": 1.0162583333440125,
      "v": 100
    },
    {
      "midi": 71,
      "hit": false,
      "t": 245609.31400000709,
      "d": 60.975500000000466,
      "v": 100
    },
    {
      "midi": 66,
      "hit": false,
      "t": 245609.31400000709,
      "d": 60.975500000000466,
      "v": 100
    },
    {
      "midi": 63,
      "hit": false,
      "t": 245609.31400000709,
      "d": 60.975500000000466,
      "v": 100
    },
    {
      "midi": 80,
      "hit": false,
      "t": 245690.61466666966,
      "d": 162.60133333332487,
      "v": 127
    },
    {
      "midi": 54,
      "hit": false,
      "t": 245731.26500000118,
      "d": 1.0162583333440125,
      "v": 60
    },
    {
      "midi": 80,
      "hit": false,
      "t": 245731.2650000012,
      "d": 121.95100000000093,
      "v": 100
    },
    {
      "midi": 40,
      "hit": false,
      "t": 245731.26500000228,
      "d": 1.0162583333440125,
      "v": 100
    },
    {
      "midi": 44,
      "hit": false,
      "t": 245731.26500000228,
      "d": 1.0162583333440125,
      "v": 100
    },
    {
      "midi": 71,
      "hit": false,
      "t": 245731.2650000071,
      "d": 60.975500000000466,
      "v": 100
    },
    {
      "midi": 66,
      "hit": false,
      "t": 245731.2650000071,
      "d": 60.975500000000466,
      "v": 100
    },
    {
      "midi": 63,
      "hit": false,
      "t": 245731.2650000071,
      "d": 60.975500000000466,
      "v": 100
    },
    {
      "midi": 79,
      "hit": false,
      "t": 245853.2159999999,
      "d": 1951.2159999999858,
      "v": 127
    },
    {
      "midi": 80,
      "hit": false,
      "t": 245853.21600000118,
      "d": 243.90200000000186,
      "v": 100
    },
    {
      "midi": 76,
      "hit": false,
      "t": 245853.21600000118,
      "d": 243.90200000000186,
      "v": 100
    },
    {
      "midi": 71,
      "hit": false,
      "t": 245853.21600000118,
      "d": 243.90200000000186,
      "v": 100
    },
    {
      "midi": 54,
      "hit": false,
      "t": 245853.21600000118,
      "d": 1.0162583333440125,
      "v": 80
    },
    {
      "midi": 76,
      "hit": false,
      "t": 245853.2160000012,
      "d": 121.95100000000093,
      "v": 100
    },
    {
      "midi": 28,
      "hit": false,
      "t": 245853.21600000124,
      "d": 243.90200000000186,
      "v": 100
    },
    {
      "midi": 33,
      "hit": false,
      "t": 245853.21600000228,
      "d": 1.0162583333440125,
      "v": 127
    },
    {
      "midi": 42,
      "hit": false,
      "t": 245853.21600000228,
      "d": 1.0162583333440125,
      "v": 100
    },
    {
      "midi": 78,
      "hit": false,
      "t": 245853.21600000298,
      "d": 162.60133333332487,
      "v": 127
    },
    {
      "midi": 68,
      "hit": false,
      "t": 245853.2160000071,
      "d": 487.8040000000037,
      "v": 100
    },
    {
      "midi": 59,
      "hit": false,
      "t": 245853.2160000071,
      "d": 487.8040000000037,
      "v": 100
    },
    {
      "midi": 64,
      "hit": false,
      "t": 245853.2160000071,
      "d": 487.8040000000037,
      "v": 100
    },
    {
      "midi": 68,
      "hit": false,
      "t": 245975.16700000147,
      "d": 121.95100000000093,
      "v": 100
    },
    {
      "midi": 64,
      "hit": false,
      "t": 245975.16700000147,
      "d": 121.95100000000093,
      "v": 100
    },
    {
      "midi": 59,
      "hit": false,
      "t": 245975.16700000147,
      "d": 121.95100000000093,
      "v": 100
    },
    {
      "midi": 40,
      "hit": false,
      "t": 245975.1670000023,
      "d": 1.0162583333440125,
      "v": 100
    },
    {
      "midi": 80,
      "hit": false,
      "t": 246015.8173333363,
      "d": 162.60133333332487,
      "v": 127
    },
    {
      "midi": 28,
      "hit": false,
      "t": 246097.11800000124,
      "d": 20.325166666676523,
      "v": 100
    },
    {
      "midi": 68,
      "hit": false,
      "t": 246097.11800000147,
      "d": 121.95100000000093,
      "v": 100
    },
    {
      "midi": 64,
      "hit": false,
      "t": 246097.11800000147,
      "d": 121.95100000000093,
      "v": 100
    },
    {
      "midi": 59,
      "hit": false,
      "t": 246097.11800000147,
      "d": 121.95100000000093,
      "v": 100
    },
    {
      "midi": 46,
      "hit": false,
      "t": 246097.1180000023,
      "d": 1.0162583333440125,
      "v": 100
    },
    {
      "midi": 76,
      "hit": false,
      "t": 246178.41866666963,
      "d": 162.60133333332487,
      "v": 127
    },
    {
      "midi": 28,
      "hit": false,
      "t": 246219.06900000124,
      "d": 243.90200000000186,
      "v": 100
    },
    {
      "midi": 44,
      "hit": false,
      "t": 246219.0690000023,
      "d": 1.0162583333440125,
      "v": 100
    },
    {
      "midi": 37,
      "hit": false,
      "t": 246341.02000000118,
      "d": 1463.4120000000112,
      "v": 100
    },
    {
      "midi": 68,
      "hit": false,
      "t": 246341.02000000147,
      "d": 121.95100000000093,
      "v": 100
    },
    {
      "midi": 64,
      "hit": false,
      "t": 246341.02000000147,
      "d": 121.95100000000093,
      "v": 100
    },
    {
      "midi": 59,
      "hit": false,
      "t": 246341.02000000147,
      "d": 121.95100000000093,
      "v": 100
    },
    {
      "midi": 46,
      "hit": false,
      "t": 246341.0200000023,
      "d": 1.0162583333440125,
      "v": 100
    },
    {
      "midi": 40,
      "hit": false,
      "t": 246341.0200000023,
      "d": 1.0162583333440125,
      "v": 100
    },
    {
      "midi": 69,
      "hit": false,
      "t": 246341.02000000296,
      "d": 162.60133333332487,
      "v": 127
    },
    {
      "midi": 68,
      "hit": false,
      "t": 246341.0200000071,
      "d": 60.97549999988405,
      "v": 100
    },
    {
      "midi": 59,
      "hit": false,
      "t": 246341.0200000071,
      "d": 60.97549999988405,
      "v": 100
    },
    {
      "midi": 64,
      "hit": false,
      "t": 246341.0200000071,
      "d": 60.97549999988405,
      "v": 100
    },
    {
      "midi": 40,
      "hit": false,
      "t": 246401.99550000118,
      "d": 182.9265000000014,
      "v": 100
    },
    {
      "midi": 42,
      "hit": false,
      "t": 246462.97100000118,
      "d": 182.9265000000014,
      "v": 100
    },
    {
      "midi": 28,
      "hit": false,
      "t": 246462.97100000124,
      "d": 20.325166666676523,
      "v": 100
    },
    {
      "midi": 68,
      "hit": false,
      "t": 246462.97100000147,
      "d": 121.95100000000093,
      "v": 100
    },
    {
      "midi": 64,
      "hit": false,
      "t": 246462.97100000147,
      "d": 121.95100000000093,
      "v": 100
    },
    {
      "midi": 59,
      "hit": false,
      "t": 246462.97100000147,
      "d": 121.95100000000093,
      "v": 100
    },
    {
      "midi": 44,
      "hit": false,
      "t": 246462.9710000023,
      "d": 1.0162583333440125,
      "v": 100
    },
    {
      "midi": 68,
      "hit": false,
      "t": 246462.97100000698,
      "d": 60.975500000000466,
      "v": 100
    },
    {
      "midi": 59,
      "hit": false,
      "t": 246462.97100000698,
      "d": 60.975500000000466,
      "v": 100
    },
    {
      "midi": 64,
      "hit": false,
      "t": 246462.97100000698,
      "d": 60.975500000000466,
      "v": 100
    },
    {
      "midi": 68,
      "hit": false,
      "t": 246503.62133333628,
      "d": 1300.8106666661333,
      "v": 127
    },
    {
      "midi": 44,
      "hit": false,
      "t": 246523.94650000118,
      "d": 182.9265000000014,
      "v": 100
    },
    {
      "midi": 47,
      "hit": false,
      "t": 246584.92200000118,
      "d": 182.9265000000014,
      "v": 100
    },
    {
      "midi": 28,
      "hit": false,
      "t": 246584.92200000124,
      "d": 243.90200000000186,
      "v": 100
    },
    {
      "midi": 46,
      "hit": false,
      "t": 246584.9220000023,
      "d": 1.0162583333440125,
      "v": 100
    },
    {
      "midi": 68,
      "hit": false,
      "t": 246584.9220000069,
      "d": 60.975500000000466,
      "v": 100
    },
    {
      "midi": 59,
      "hit": false,
      "t": 246584.9220000069,
      "d": 60.975500000000466,
      "v": 100
    },
    {
      "midi": 64,
      "hit": false,
      "t": 246584.9220000069,
      "d": 60.975500000000466,
      "v": 100
    },
    {
      "midi": 49,
      "hit": false,
      "t": 246645.89750000119,
      "d": 182.9265000000014,
      "v": 100
    },
    {
      "midi": 52,
      "hit": false,
      "t": 246706.8730000012,
      "d": 182.9265000000014,
      "v": 100
    },
    {
      "midi": 68,
      "hit": false,
      "t": 246706.87300000148,
      "d": 121.95100000000093,
      "v": 100
    },
    {
      "midi": 64,
      "hit": false,
      "t": 246706.87300000148,
      "d": 121.95100000000093,
      "v": 100
    },
    {
      "midi": 59,
      "hit": false,
      "t": 246706.87300000148,
      "d": 121.95100000000093,
      "v": 100
    },
    {
      "midi": 44,
      "hit": false,
      "t": 246706.8730000023,
      "d": 1.0162583333440125,
      "v": 100
    },
    {
      "midi": 40,
      "hit": false,
      "t": 246706.8730000023,
      "d": 1.0162583333440125,
      "v": 100
    },
    {
      "midi": 68,
      "hit": false,
      "t": 246706.8730000069,
      "d": 60.975500000000466,
      "v": 100
    },
    {
      "midi": 59,
      "hit": false,
      "t": 246706.8730000069,
      "d": 60.975500000000466,
      "v": 100
    },
    {
      "midi": 64,
      "hit": false,
      "t": 246706.8730000069,
      "d": 60.975500000000466,
      "v": 100
    },
    {
      "midi": 54,
      "hit": false,
      "t": 246767.8485000012,
      "d": 182.9265000000014,
      "v": 100
    },
    {
      "midi": 40,
      "hit": false,
      "t": 246778.01108333564,
      "d": 1.0162583333440125,
      "v": 100
    },
    {
      "midi": 56,
      "hit": false,
      "t": 246828.8240000012,
      "d": 182.9265000000014,
      "v": 100
    },
    {
      "midi": 28,
      "hit": false,
      "t": 246828.82400000124,
      "d": 20.325166666676523,
      "v": 100
    },
    {
      "midi": 68,
      "hit": false,
      "t": 246828.82400000148,
      "d": 121.95100000000093,
      "v": 100
    },
    {
      "midi": 64,
      "hit": false,
      "t": 246828.82400000148,
      "d": 121.95100000000093,
      "v": 100
    },
    {
      "midi": 59,
      "hit": false,
      "t": 246828.82400000148,
      "d": 121.95100000000093,
      "v": 100
    },
    {
      "midi": 42,
      "hit": false,
      "t": 246828.82400000232,
      "d": 1.0162583333440125,
      "v": 100
    },
    {
      "midi": 40,
      "hit": false,
      "t": 246828.82400000232,
      "d": 1.0162583333440125,
      "v": 100
    },
    {
      "midi": 68,
      "hit": false,
      "t": 246828.8240000069,
      "d": 60.97549999988405,
      "v": 100
    },
    {
      "midi": 59,
      "hit": false,
      "t": 246828.8240000069,
      "d": 60.97549999988405,
      "v": 100
    },
    {
      "midi": 64,
      "hit": false,
      "t": 246828.8240000069,
      "d": 60.97549999988405,
      "v": 100
    },
    {
      "midi": 59,
      "hit": false,
      "t": 246889.7995000012,
      "d": 182.9265000000014,
      "v": 100
    },
    {
      "midi": 61,
      "hit": false,
      "t": 246950.7750000012,
      "d": 182.9265000000014,
      "v": 100
    },
    {
      "midi": 28,
      "hit": false,
      "t": 246950.77500000125,
      "d": 243.90200000000186,
      "v": 100
    },
    {
      "midi": 68,
      "hit": false,
      "t": 246950.77500000678,
      "d": 60.975500000000466,
      "v": 100
    },
    {
      "midi": 59,
      "hit": false,
      "t": 246950.77500000678,
      "d": 60.975500000000466,
      "v": 100
    },
    {
      "midi": 64,
      "hit": false,
      "t": 246950.77500000678,
      "d": 60.975500000000466,
      "v": 100
    },
    {
      "midi": 64,
      "hit": false,
      "t": 247011.7505000012,
      "d": 182.9265000000014,
      "v": 100
    },
    {
      "midi": 66,
      "hit": false,
      "t": 247072.7260000012,
      "d": 182.9265000000014,
      "v": 100
    },
    {
      "midi": 68,
      "hit": false,
      "t": 247072.72600000148,
      "d": 121.95100000000093,
      "v": 100
    },
    {
      "midi": 64,
      "hit": false,
      "t": 247072.72600000148,
      "d": 121.95100000000093,
      "v": 100
    },
    {
      "midi": 59,
      "hit": false,
      "t": 247072.72600000148,
      "d": 121.95100000000093,
      "v": 100
    },
    {
      "midi": 46,
      "hit": false,
      "t": 247072.72600000232,
      "d": 1.0162583333440125,
      "v": 100
    },
    {
      "midi": 68,
      "hit": false,
      "t": 247072.7260000067,
      "d": 60.975500000000466,
      "v": 100
    },
    {
      "midi": 59,
      "hit": false,
      "t": 247072.7260000067,
      "d": 60.975500000000466,
      "v": 100
    },
    {
      "midi": 64,
      "hit": false,
      "t": 247072.7260000067,
      "d": 60.975500000000466,
      "v": 100
    },
    {
      "midi": 68,
      "hit": false,
      "t": 247133.7015000012,
      "d": 182.9265000000014,
      "v": 100
    },
    {
      "midi": 71,
      "hit": false,
      "t": 247194.6770000012,
      "d": 182.9265000000014,
      "v": 100
    },
    {
      "midi": 28,
      "hit": false,
      "t": 247194.67700000125,
      "d": 20.325166666676523,
      "v": 100
    },
    {
      "midi": 68,
      "hit": false,
      "t": 247194.67700000148,
      "d": 121.95100000000093,
      "v": 100
    },
    {
      "midi": 64,
      "hit": false,
      "t": 247194.67700000148,
      "d": 121.95100000000093,
      "v": 100
    },
    {
      "midi": 59,
      "hit": false,
      "t": 247194.67700000148,
      "d": 121.95100000000093,
      "v": 100
    },
    {
      "midi": 44,
      "hit": false,
      "t": 247194.67700000232,
      "d": 1.0162583333440125,
      "v": 100
    },
    {
      "midi": 68,
      "hit": false,
      "t": 247194.6770000067,
      "d": 60.975500000000466,
      "v": 100
    },
    {
      "midi": 59,
      "hit": false,
      "t": 247194.6770000067,
      "d": 60.975500000000466,
      "v": 100
    },
    {
      "midi": 64,
      "hit": false,
      "t": 247194.6770000067,
      "d": 60.975500000000466,
      "v": 100
    },
    {
      "midi": 73,
      "hit": false,
      "t": 247255.6525000012,
      "d": 182.9265000000014,
      "v": 100
    },
    {
      "midi": 76,
      "hit": false,
      "t": 247316.6280000012,
      "d": 182.9265000000014,
      "v": 100
    },
    {
      "midi": 28,
      "hit": false,
      "t": 247316.62800000125,
      "d": 243.90200000000186,
      "v": 100
    },
    {
      "midi": 40,
      "hit": false,
      "t": 247316.62800000233,
      "d": 1.0162583333440125,
      "v": 100
    },
    {
      "midi": 46,
      "hit": false,
      "t": 247316.62800000233,
      "d": 1.0162583333440125,
      "v": 100
    },
    {
      "midi": 57,
      "hit": false,
      "t": 247316.62800000233,
      "d": 1.0162583333440125,
      "v": 100
    },
    {
      "midi": 68,
      "hit": false,
      "t": 247316.6280000067,
      "d": 243.90199999985634,
      "v": 100
    },
    {
      "midi": 59,
      "hit": false,
      "t": 247316.6280000067,
      "d": 243.90199999985634,
      "v": 100
    },
    {
      "midi": 64,
      "hit": false,
      "t": 247316.6280000067,
      "d": 243.90199999985634,
      "v": 100
    },
    {
      "midi": 78,
      "hit": false,
      "t": 247377.6035000012,
      "d": 182.9265000000014,
      "v": 100
    },
    {
      "midi": 80,
      "hit": false,
      "t": 247438.5790000012,
      "d": 182.9265000000014,
      "v": 100
    },
    {
      "midi": 44,
      "hit": false,
      "t": 247438.57900000233,
      "d": 1.0162583333440125,
      "v": 100
    },
    {
      "midi": 83,
      "hit": false,
      "t": 247499.5545000012,
      "d": 182.9265000000014,
      "v": 100
    },
    {
      "midi": 85,
      "hit": false,
      "t": 247560.5300000012,
      "d": 182.9265000000014,
      "v": 100
    },
    {
      "midi": 28,
      "hit": false,
      "t": 247560.53000000125,
      "d": 243.90200000000186,
      "v": 100
    },
    {
      "midi": 40,
      "hit": false,
      "t": 247560.53000000233,
      "d": 1.0162583333440125,
      "v": 100
    },
    {
      "midi": 46,
      "hit": false,
      "t": 247560.53000000233,
      "d": 1.0162583333440125,
      "v": 100
    },
    {
      "midi": 68,
      "hit": false,
      "t": 247560.53000000655,
      "d": 60.975500000000466,
      "v": 100
    },
    {
      "midi": 59,
      "hit": false,
      "t": 247560.53000000655,
      "d": 60.975500000000466,
      "v": 100
    },
    {
      "midi": 64,
      "hit": false,
      "t": 247560.53000000655,
      "d": 60.975500000000466,
      "v": 100
    },
    {
      "midi": 88,
      "hit": false,
      "t": 247621.5055000012,
      "d": 182.9265000000014,
      "v": 100
    },
    {
      "midi": 90,
      "hit": false,
      "t": 247682.4810000012,
      "d": 182.9265000000014,
      "v": 100
    },
    {
      "midi": 40,
      "hit": false,
      "t": 247682.48100000233,
      "d": 1.0162583333440125,
      "v": 100
    },
    {
      "midi": 44,
      "hit": false,
      "t": 247682.48100000233,
      "d": 1.0162583333440125,
      "v": 100
    },
    {
      "midi": 68,
      "hit": false,
      "t": 247682.48100000655,
      "d": 60.975500000000466,
      "v": 100
    },
    {
      "midi": 59,
      "hit": false,
      "t": 247682.48100000655,
      "d": 60.975500000000466,
      "v": 100
    },
    {
      "midi": 64,
      "hit": false,
      "t": 247682.48100000655,
      "d": 60.975500000000466,
      "v": 100
    },
    {
      "midi": 92,
      "hit": false,
      "t": 247743.4565000012,
      "d": 182.9265000000014,
      "v": 100
    },
    {
      "midi": 64,
      "hit": false,
      "t": 247804.43200000012,
      "d": 487.8040000000037,
      "v": 100
    },
    {
      "midi": 61,
      "hit": false,
      "t": 247804.43200000012,
      "d": 487.8040000000037,
      "v": 100
    },
    {
      "midi": 49,
      "hit": false,
      "t": 247804.43200000012,
      "d": 731.7060000000056,
      "v": 100
    },
    {
      "midi": 73,
      "hit": false,
      "t": 247804.4320000012,
      "d": 487.8040000000037,
      "v": 100
    },
    {
      "midi": 73,
      "hit": false,
      "t": 247804.43200000122,
      "d": 121.95100000000093,
      "v": 100
    },
    {
      "midi": 73,
      "hit": false,
      "t": 247926.38300000122,
      "d": 121.95100000000093,
      "v": 100
    },
    {
      "midi": 56,
      "hit": false,
      "t": 248048.33400000012,
      "d": 487.8040000000037,
      "v": 100
    },
    {
      "midi": 80,
      "hit": false,
      "t": 248048.33400000122,
      "d": 121.95100000000093,
      "v": 100
    },
    {
      "midi": 80,
      "hit": false,
      "t": 248170.28500000123,
      "d": 121.95100000000093,
      "v": 100
    },
    {
      "midi": 64,
      "hit": false,
      "t": 248292.23600000012,
      "d": 487.8040000000037,
      "v": 100
    },
    {
      "midi": 73,
      "hit": false,
      "t": 248292.2360000012,
      "d": 243.90200000000186,
      "v": 100
    },
    {
      "midi": 76,
      "hit": false,
      "t": 248292.23600000123,
      "d": 121.95100000000093,
      "v": 100
    },
    {
      "midi": 76,
      "hit": false,
      "t": 248414.18700000123,
      "d": 121.95100000000093,
      "v": 100
    },
    {
      "midi": 61,
      "hit": false,
      "t": 248536.13800000012,
      "d": 243.90200000000186,
      "v": 100
    },
    {
      "midi": 76,
      "hit": false,
      "t": 248536.1380000012,
      "d": 243.90200000000186,
      "v": 100
    },
    {
      "midi": 83,
      "hit": false,
      "t": 248536.13800000123,
      "d": 121.95100000000093,
      "v": 100
    },
    {
      "midi": 83,
      "hit": false,
      "t": 248658.08900000123,
      "d": 121.95100000000093,
      "v": 100
    },
    {
      "midi": 57,
      "hit": false,
      "t": 248780.04000000012,
      "d": 487.8040000000037,
      "v": 100
    },
    {
      "midi": 45,
      "hit": false,
      "t": 248780.04000000012,
      "d": 731.7060000000056,
      "v": 100
    },
    {
      "midi": 73,
      "hit": false,
      "t": 248780.0400000012,
      "d": 731.7060000000056,
      "v": 100
    },
    {
      "midi": 85,
      "hit": false,
      "t": 248780.04000000123,
      "d": 121.95100000000093,
      "v": 100
    },
    {
      "midi": 85,
      "hit": false,
      "t": 248901.99100000123,
      "d": 121.95100000000093,
      "v": 100
    },
    {
      "midi": 52,
      "hit": false,
      "t": 249023.94200000013,
      "d": 487.8040000000037,
      "v": 100
    },
    {
      "midi": 81,
      "hit": false,
      "t": 249023.94200000123,
      "d": 121.95100000000093,
      "v": 100
    },
    {
      "midi": 81,
      "hit": false,
      "t": 249145.89300000123,
      "d": 121.95100000000093,
      "v": 100
    },
    {
      "midi": 64,
      "hit": false,
      "t": 249267.84400000013,
      "d": 487.8040000000037,
      "v": 100
    },
    {
      "midi": 76,
      "hit": false,
      "t": 249267.84400000123,
      "d": 121.95100000000093,
      "v": 100
    },
    {
      "midi": 76,
      "hit": false,
      "t": 249389.79500000124,
      "d": 121.95100000000093,
      "v": 100
    },
    {
      "midi": 61,
      "hit": false,
      "t": 249511.74600000013,
      "d": 243.90200000000186,
      "v": 100
    },
    {
      "midi": 76,
      "hit": false,
      "t": 249511.7460000012,
      "d": 243.90200000000186,
      "v": 100
    },
    {
      "midi": 73,
      "hit": false,
      "t": 249511.74600000124,
      "d": 121.95100000000093,
      "v": 100
    },
    {
      "midi": 73,
      "hit": false,
      "t": 249633.69700000124,
      "d": 121.95100000000093,
      "v": 100
    },
    {
      "midi": 59,
      "hit": false,
      "t": 249755.64800000013,
      "d": 487.8040000000037,
      "v": 100
    },
    {
      "midi": 47,
      "hit": false,
      "t": 249755.64800000013,
      "d": 731.7060000000056,
      "v": 100
    },
    {
      "midi": 75,
      "hit": false,
      "t": 249755.6480000012,
      "d": 487.8040000000037,
      "v": 100
    },
    {
      "midi": 71,
      "hit": false,
      "t": 249755.64800000124,
      "d": 121.95100000000093,
      "v": 100
    },
    {
      "midi": 71,
      "hit": false,
      "t": 249877.59900000124,
      "d": 121.95100000000093,
      "v": 100
    },
    {
      "midi": 56,
      "hit": false,
      "t": 249999.55000000013,
      "d": 487.8040000000037,
      "v": 100
    },
    {
      "midi": 75,
      "hit": false,
      "t": 249999.55000000124,
      "d": 121.95100000000093,
      "v": 100
    },
    {
      "midi": 75,
      "hit": false,
      "t": 250121.50100000124,
      "d": 121.95100000000093,
      "v": 100
    },
    {
      "midi": 66,
      "hit": false,
      "t": 250243.45200000014,
      "d": 487.8040000000037,
      "v": 100
    },
    {
      "midi": 71,
      "hit": false,
      "t": 250243.4520000012,
      "d": 243.90200000000186,
      "v": 100
    },
    {
      "midi": 71,
      "hit": false,
      "t": 250243.45200000124,
      "d": 121.95100000000093,
      "v": 100
    },
    {
      "midi": 71,
      "hit": false,
      "t": 250365.40300000124,
      "d": 121.95100000000093,
      "v": 100
    },
    {
      "midi": 63,
      "hit": false,
      "t": 250487.35400000014,
      "d": 243.90200000000186,
      "v": 100
    },
    {
      "midi": 68,
      "hit": false,
      "t": 250487.3540000012,
      "d": 243.90200000000186,
      "v": 100
    },
    {
      "midi": 80,
      "hit": false,
      "t": 250487.35400000124,
      "d": 121.95100000000093,
      "v": 100
    },
    {
      "midi": 80,
      "hit": false,
      "t": 250609.30500000124,
      "d": 121.95100000000093,
      "v": 100
    },
    {
      "midi": 59,
      "hit": false,
      "t": 250731.25600000014,
      "d": 487.8040000000037,
      "v": 100
    },
    {
      "midi": 44,
      "hit": false,
      "t": 250731.25600000014,
      "d": 731.7060000000056,
      "v": 100
    },
    {
      "midi": 71,
      "hit": false,
      "t": 250731.25600000122,
      "d": 487.8040000000037,
      "v": 100
    },
    {
      "midi": 80,
      "hit": false,
      "t": 250731.25600000125,
      "d": 121.95100000000093,
      "v": 100
    },
    {
      "midi": 80,
      "hit": false,
      "t": 250853.20700000125,
      "d": 121.95100000000093,
      "v": 100
    },
    {
      "midi": 56,
      "hit": false,
      "t": 250975.15800000014,
      "d": 487.8040000000037,
      "v": 100
    },
    {
      "midi": 80,
      "hit": false,
      "t": 250975.15800000125,
      "d": 121.95100000000093,
      "v": 100
    },
    {
      "midi": 80,
      "hit": false,
      "t": 251097.10900000125,
      "d": 121.95100000000093,
      "v": 100
    },
    {
      "midi": 63,
      "hit": false,
      "t": 251219.06000000014,
      "d": 487.8040000000037,
      "v": 100
    },
    {
      "midi": 69,
      "hit": false,
      "t": 251219.06000000122,
      "d": 243.90200000000186,
      "v": 100
    },
    {
      "midi": 75,
      "hit": false,
      "t": 251219.06000000125,
      "d": 121.95100000000093,
      "v": 100
    },
    {
      "midi": 75,
      "hit": false,
      "t": 251341.01100000125,
      "d": 121.95100000000093,
      "v": 100
    },
    {
      "midi": 59,
      "hit": false,
      "t": 251462.96200000015,
      "d": 243.90200000000186,
      "v": 100
    },
    {
      "midi": 71,
      "hit": false,
      "t": 251462.96200000122,
      "d": 243.90200000000186,
      "v": 100
    },
    {
      "midi": 80,
      "hit": false,
      "t": 251462.96200000125,
      "d": 121.95100000000093,
      "v": 100
    },
    {
      "midi": 80,
      "hit": false,
      "t": 251584.91300000125,
      "d": 121.95100000000093,
      "v": 100
    },
    {
      "midi": 57,
      "hit": false,
      "t": 251706.86400000015,
      "d": 487.8040000000037,
      "v": 100
    },
    {
      "midi": 45,
      "hit": false,
      "t": 251706.86400000015,
      "d": 853.6570000000065,
      "v": 100
    },
    {
      "midi": 69,
      "hit": false,
      "t": 251706.86400000122,
      "d": 487.8040000000037,
      "v": 100
    },
    {
      "midi": 73,
      "hit": false,
      "t": 251706.86400000122,
      "d": 487.8040000000037,
      "v": 100
    },
    {
      "midi": 73,
      "hit": false,
      "t": 251706.86400000125,
      "d": 121.95100000000093,
      "v": 100
    },
    {
      "midi": 73,
      "hit": false,
      "t": 251828.81500000125,
      "d": 121.95100000000093,
      "v": 100
    },
    {
      "midi": 52,
      "hit": false,
      "t": 251950.76600000015,
      "d": 487.8040000000037,
      "v": 100
    },
    {
      "midi": 69,
      "hit": false,
      "t": 251950.76600000125,
      "d": 121.95100000000093,
      "v": 100
    },
    {
      "midi": 69,
      "hit": false,
      "t": 252072.71700000126,
      "d": 121.95100000000093,
      "v": 100
    },
    {
      "midi": 64,
      "hit": false,
      "t": 252194.66800000015,
      "d": 487.8040000000037,
      "v": 100
    },
    {
      "midi": 64,
      "hit": false,
      "t": 252194.66800000123,
      "d": 487.8040000000037,
      "v": 100
    },
    {
      "midi": 73,
      "hit": false,
      "t": 252194.66800000126,
      "d": 121.95100000000093,
      "v": 100
    },
    {
      "midi": 73,
      "hit": false,
      "t": 252316.61900000126,
      "d": 121.95100000000093,
      "v": 100
    },
    {
      "midi": 61,
      "hit": false,
      "t": 252438.57000000015,
      "d": 243.90200000000186,
      "v": 100
    },
    {
      "midi": 73,
      "hit": false,
      "t": 252438.57000000123,
      "d": 243.90200000000186,
      "v": 100
    },
    {
      "midi": 78,
      "hit": false,
      "t": 252438.57000000126,
      "d": 121.95100000000093,
      "v": 100
    },
    {
      "midi": 78,
      "hit": false,
      "t": 252560.52100000126,
      "d": 121.95100000000093,
      "v": 100
    },
    {
      "midi": 54,
      "hit": false,
      "t": 252682.47200000015,
      "d": 487.8040000000037,
      "v": 100
    },
    {
      "midi": 42,
      "hit": false,
      "t": 252682.47200000015,
      "d": 731.7060000000056,
      "v": 100
    },
    {
      "midi": 66,
      "hit": false,
      "t": 252682.47200000123,
      "d": 487.8040000000037,
      "v": 100
    },
    {
      "midi": 78,
      "hit": false,
      "t": 252682.47200000126,
      "d": 121.95100000000093,
      "v": 100
    },
    {
      "midi": 78,
      "hit": false,
      "t": 252804.42300000126,
      "d": 121.95100000000093,
      "v": 100
    },
    {
      "midi": 49,
      "hit": false,
      "t": 252926.37400000016,
      "d": 487.8040000000037,
      "v": 100
    },
    {
      "midi": 78,
      "hit": false,
      "t": 252926.37400000126,
      "d": 121.95100000000093,
      "v": 100
    },
    {
      "midi": 78,
      "hit": false,
      "t": 253048.32500000126,
      "d": 121.95100000000093,
      "v": 100
    },
    {
      "midi": 61,
      "hit": false,
      "t": 253170.27600000016,
      "d": 487.8040000000037,
      "v": 100
    },
    {
      "midi": 64,
      "hit": false,
      "t": 253170.27600000123,
      "d": 243.90200000000186,
      "v": 100
    },
    {
      "midi": 73,
      "hit": false,
      "t": 253170.27600000126,
      "d": 121.95100000000093,
      "v": 100
    },
    {
      "midi": 73,
      "hit": false,
      "t": 253292.22700000126,
      "d": 121.95100000000093,
      "v": 100
    },
    {
      "midi": 57,
      "hit": false,
      "t": 253414.17800000016,
      "d": 243.90200000000186,
      "v": 100
    },
    {
      "midi": 66,
      "hit": false,
      "t": 253414.17800000124,
      "d": 243.90200000000186,
      "v": 100
    },
    {
      "midi": 78,
      "hit": false,
      "t": 253414.17800000127,
      "d": 121.95100000000093,
      "v": 100
    },
    {
      "midi": 78,
      "hit": false,
      "t": 253536.12900000127,
      "d": 121.95100000000093,
      "v": 100
    },
    {
      "midi": 56,
      "hit": false,
      "t": 253658.08000000016,
      "d": 487.8040000000037,
      "v": 100
    },
    {
      "midi": 44,
      "hit": false,
      "t": 253658.08000000016,
      "d": 1585.363000000012,
      "v": 100
    },
    {
      "midi": 68,
      "hit": false,
      "t": 253658.08000000124,
      "d": 487.8040000000037,
      "v": 100
    },
    {
      "midi": 68,
      "hit": false,
      "t": 253658.08000000127,
      "d": 121.95100000000093,
      "v": 100
    },
    {
      "midi": 68,
      "hit": false,
      "t": 253780.03100000127,
      "d": 121.95100000000093,
      "v": 100
    },
    {
      "midi": 59,
      "hit": false,
      "t": 253901.98200000016,
      "d": 487.8040000000037,
      "v": 100
    },
    {
      "midi": 71,
      "hit": false,
      "t": 253901.98200000127,
      "d": 121.95100000000093,
      "v": 100
    },
    {
      "midi": 71,
      "hit": false,
      "t": 254023.93300000127,
      "d": 121.95100000000093,
      "v": 100
    },
    {
      "midi": 63,
      "hit": false,
      "t": 254145.88400000017,
      "d": 487.8040000000037,
      "v": 100
    },
    {
      "midi": 75,
      "hit": false,
      "t": 254145.88400000124,
      "d": 243.90200000000186,
      "v": 100
    },
    {
      "midi": 75,
      "hit": false,
      "t": 254145.88400000127,
      "d": 121.95100000000093,
      "v": 100
    },
    {
      "midi": 75,
      "hit": false,
      "t": 254267.83500000127,
      "d": 121.95100000000093,
      "v": 100
    },
    {
      "midi": 66,
      "hit": false,
      "t": 254389.78600000017,
      "d": 487.8040000000037,
      "v": 100
    },
    {
      "midi": 71,
      "hit": false,
      "t": 254389.78600000124,
      "d": 243.90200000000186,
      "v": 100
    },
    {
      "midi": 80,
      "hit": false,
      "t": 254389.78600000127,
      "d": 121.95100000000093,
      "v": 100
    },
    {
      "midi": 80,
      "hit": false,
      "t": 254511.73700000127,
      "d": 121.95100000000093,
      "v": 100
    },
    {
      "midi": 68,
      "hit": false,
      "t": 254633.68800000017,
      "d": 487.8040000000037,
      "v": 100
    },
    {
      "midi": 71,
      "hit": false,
      "t": 254633.68800000125,
      "d": 487.8040000000037,
      "v": 100
    },
    {
      "midi": 83,
      "hit": false,
      "t": 254633.68800000128,
      "d": 121.95100000000093,
      "v": 100
    },
    {
      "midi": 83,
      "hit": false,
      "t": 254755.63900000128,
      "d": 121.95100000000093,
      "v": 100
    },
    {
      "midi": 63,
      "hit": false,
      "t": 254877.59000000017,
      "d": 487.8040000000037,
      "v": 100
    },
    {
      "midi": 80,
      "hit": false,
      "t": 254877.59000000128,
      "d": 121.95100000000093,
      "v": 100
    },
    {
      "midi": 80,
      "hit": false,
      "t": 254999.54100000128,
      "d": 121.95100000000093,
      "v": 100
    },
    {
      "midi": 59,
      "hit": false,
      "t": 255121.49200000017,
      "d": 487.8040000000037,
      "v": 100
    },
    {
      "midi": 68,
      "hit": false,
      "t": 255121.49200000125,
      "d": 243.90200000000186,
      "v": 100
    },
    {
      "midi": 75,
      "hit": false,
      "t": 255121.49200000128,
      "d": 121.95100000000093,
      "v": 100
    },
    {
      "midi": 75,
      "hit": false,
      "t": 255243.44300000128,
      "d": 121.95100000000093,
      "v": 100
    },
    {
      "midi": 56,
      "hit": false,
      "t": 255365.39400000017,
      "d": 121.95100000000093,
      "v": 100
    },
    {
      "midi": 71,
      "hit": false,
      "t": 255365.39400000125,
      "d": 243.90200000000186,
      "v": 100
    },
    {
      "midi": 71,
      "hit": false,
      "t": 255365.39400000128,
      "d": 121.95100000000093,
      "v": 100
    },
    {
      "midi": 71,
      "hit": false,
      "t": 255487.34500000128,
      "d": 121.95100000000093,
      "v": 100
    },
    {
      "midi": 64,
      "hit": false,
      "t": 255609.29600000018,
      "d": 487.8040000000037,
      "v": 100
    },
    {
      "midi": 61,
      "hit": false,
      "t": 255609.29600000018,
      "d": 487.8040000000037,
      "v": 100
    },
    {
      "midi": 49,
      "hit": false,
      "t": 255609.29600000018,
      "d": 731.7060000000056,
      "v": 100
    },
    {
      "midi": 73,
      "hit": false,
      "t": 255609.29600000125,
      "d": 487.8040000000037,
      "v": 100
    },
    {
      "midi": 73,
      "hit": false,
      "t": 255609.29600000128,
      "d": 121.95100000000093,
      "v": 100
    },
    {
      "midi": 73,
      "hit": false,
      "t": 255731.24700000128,
      "d": 121.95100000000093,
      "v": 100
    },
    {
      "midi": 56,
      "hit": false,
      "t": 255853.19800000018,
      "d": 487.8040000000037,
      "v": 100
    },
    {
      "midi": 80,
      "hit": false,
      "t": 255853.19800000128,
      "d": 121.95100000000093,
      "v": 100
    },
    {
      "midi": 80,
      "hit": false,
      "t": 255975.1490000013,
      "d": 121.95100000000093,
      "v": 100
    },
    {
      "midi": 64,
      "hit": false,
      "t": 256097.10000000018,
      "d": 487.8040000000037,
      "v": 100
    },
    {
      "midi": 73,
      "hit": false,
      "t": 256097.10000000126,
      "d": 243.90200000000186,
      "v": 100
    },
    {
      "midi": 76,
      "hit": false,
      "t": 256097.1000000013,
      "d": 121.95100000000093,
      "v": 100
    },
    {
      "midi": 76,
      "hit": false,
      "t": 256219.0510000013,
      "d": 121.95100000000093,
      "v": 100
    },
    {
      "midi": 61,
      "hit": false,
      "t": 256341.00200000018,
      "d": 243.90200000000186,
      "v": 100
    },
    {
      "midi": 76,
      "hit": false,
      "t": 256341.00200000126,
      "d": 243.90200000000186,
      "v": 100
    },
    {
      "midi": 83,
      "hit": false,
      "t": 256341.0020000013,
      "d": 121.95100000000093,
      "v": 100
    },
    {
      "midi": 83,
      "hit": false,
      "t": 256462.9530000013,
      "d": 121.95100000000093,
      "v": 100
    },
    {
      "midi": 57,
      "hit": false,
      "t": 256584.90400000018,
      "d": 487.8040000000037,
      "v": 100
    },
    {
      "midi": 45,
      "hit": false,
      "t": 256584.90400000018,
      "d": 731.7060000000056,
      "v": 100
    },
    {
      "midi": 73,
      "hit": false,
      "t": 256584.90400000126,
      "d": 731.7060000000056,
      "v": 100
    },
    {
      "midi": 85,
      "hit": false,
      "t": 256584.9040000013,
      "d": 121.95100000000093,
      "v": 100
    },
    {
      "midi": 85,
      "hit": false,
      "t": 256706.8550000013,
      "d": 121.95100000000093,
      "v": 100
    },
    {
      "midi": 52,
      "hit": false,
      "t": 256828.8060000002,
      "d": 487.8040000000037,
      "v": 100
    },
    {
      "midi": 81,
      "hit": false,
      "t": 256828.8060000013,
      "d": 121.95100000000093,
      "v": 100
    },
    {
      "midi": 81,
      "hit": false,
      "t": 256950.7570000013,
      "d": 121.95100000000093,
      "v": 100
    },
    {
      "midi": 64,
      "hit": false,
      "t": 257072.7080000002,
      "d": 487.8040000000037,
      "v": 100
    },
    {
      "midi": 76,
      "hit": false,
      "t": 257072.7080000013,
      "d": 121.95100000000093,
      "v": 100
    },
    {
      "midi": 76,
      "hit": false,
      "t": 257194.6590000013,
      "d": 121.95100000000093,
      "v": 100
    },
    {
      "midi": 61,
      "hit": false,
      "t": 257316.6100000002,
      "d": 243.90200000000186,
      "v": 100
    },
    {
      "midi": 76,
      "hit": false,
      "t": 257316.61000000127,
      "d": 243.90200000000186,
      "v": 100
    },
    {
      "midi": 73,
      "hit": false,
      "t": 257316.6100000013,
      "d": 121.95100000000093,
      "v": 100
    },
    {
      "midi": 73,
      "hit": false,
      "t": 257438.5610000013,
      "d": 121.95100000000093,
      "v": 100
    },
    {
      "midi": 59,
      "hit": false,
      "t": 257560.5120000002,
      "d": 487.8040000000037,
      "v": 100
    },
    {
      "midi": 47,
      "hit": false,
      "t": 257560.5120000002,
      "d": 731.7060000000056,
      "v": 100
    },
    {
      "midi": 75,
      "hit": false,
      "t": 257560.51200000127,
      "d": 243.90200000000186,
      "v": 100
    },
    {
      "midi": 71,
      "hit": false,
      "t": 257560.5120000013,
      "d": 121.95100000000093,
      "v": 100
    },
    {
      "midi": 71,
      "hit": false,
      "t": 257682.4630000013,
      "d": 121.95100000000093,
      "v": 100
    },
    {
      "midi": 56,
      "hit": false,
      "t": 257804.4140000002,
      "d": 487.8040000000037,
      "v": 100
    },
    {
      "midi": 71,
      "hit": false,
      "t": 257804.41400000127,
      "d": 243.90200000000186,
      "v": 100
    },
    {
      "midi": 75,
      "hit": false,
      "t": 257804.4140000013,
      "d": 121.95100000000093,
      "v": 100
    },
    {
      "midi": 75,
      "hit": false,
      "t": 257926.3650000013,
      "d": 121.95100000000093,
      "v": 100
    },
    {
      "midi": 66,
      "hit": false,
      "t": 258048.3160000002,
      "d": 487.8040000000037,
      "v": 100
    },
    {
      "midi": 71,
      "hit": false,
      "t": 258048.31600000127,
      "d": 243.90200000000186,
      "v": 100
    },
    {
      "midi": 71,
      "hit": false,
      "t": 258048.3160000013,
      "d": 121.95100000000093,
      "v": 100
    },
    {
      "midi": 71,
      "hit": false,
      "t": 258170.2670000013,
      "d": 121.95100000000093,
      "v": 100
    },
    {
      "midi": 63,
      "hit": false,
      "t": 258292.2180000002,
      "d": 243.90200000000186,
      "v": 100
    },
    {
      "midi": 68,
      "hit": false,
      "t": 258292.21800000127,
      "d": 243.90200000000186,
      "v": 100
    },
    {
      "midi": 80,
      "hit": false,
      "t": 258292.2180000013,
      "d": 121.95100000000093,
      "v": 100
    },
    {
      "midi": 80,
      "hit": false,
      "t": 258414.1690000013,
      "d": 121.95100000000093,
      "v": 100
    },
    {
      "midi": 59,
      "hit": false,
      "t": 258536.1200000002,
      "d": 487.8040000000037,
      "v": 100
    },
    {
      "midi": 44,
      "hit": false,
      "t": 258536.1200000002,
      "d": 731.7060000000056,
      "v": 100
    },
    {
      "midi": 71,
      "hit": false,
      "t": 258536.12000000128,
      "d": 487.8040000000037,
      "v": 100
    },
    {
      "midi": 80,
      "hit": false,
      "t": 258536.1200000013,
      "d": 121.95100000000093,
      "v": 100
    },
    {
      "midi": 80,
      "hit": false,
      "t": 258658.0710000013,
      "d": 121.95100000000093,
      "v": 100
    },
    {
      "midi": 56,
      "hit": false,
      "t": 258780.0220000002,
      "d": 487.8040000000037,
      "v": 100
    },
    {
      "midi": 80,
      "hit": false,
      "t": 258780.0220000013,
      "d": 121.95100000000093,
      "v": 100
    },
    {
      "midi": 80,
      "hit": false,
      "t": 258901.9730000013,
      "d": 121.95100000000093,
      "v": 100
    },
    {
      "midi": 63,
      "hit": false,
      "t": 259023.9240000002,
      "d": 487.8040000000037,
      "v": 100
    },
    {
      "midi": 68,
      "hit": false,
      "t": 259023.92400000128,
      "d": 487.8040000000037,
      "v": 100
    },
    {
      "midi": 75,
      "hit": false,
      "t": 259023.9240000013,
      "d": 121.95100000000093,
      "v": 100
    },
    {
      "midi": 75,
      "hit": false,
      "t": 259145.8750000013,
      "d": 121.95100000000093,
      "v": 100
    },
    {
      "midi": 59,
      "hit": false,
      "t": 259267.8260000002,
      "d": 243.90200000000186,
      "v": 100
    },
    {
      "midi": 80,
      "hit": false,
      "t": 259267.8260000013,
      "d": 121.95100000000093,
      "v": 100
    },
    {
      "midi": 80,
      "hit": false,
      "t": 259389.7770000013,
      "d": 121.95100000000093,
      "v": 100
    },
    {
      "midi": 64,
      "hit": false,
      "t": 259511.7280000002,
      "d": 365.8530000000028,
      "v": 100
    },
    {
      "midi": 42,
      "hit": false,
      "t": 259511.7280000002,
      "d": 731.7060000000056,
      "v": 100
    },
    {
      "midi": 69,
      "hit": false,
      "t": 259511.72800000128,
      "d": 731.7060000000056,
      "v": 100
    },
    {
      "midi": 66,
      "hit": false,
      "t": 259511.7280000013,
      "d": 121.95100000000093,
      "v": 100
    },
    {
      "midi": 59,
      "hit": false,
      "t": 259633.6790000013,
      "d": 121.95100000000093,
      "v": 100
    },
    {
      "midi": 52,
      "hit": false,
      "t": 259755.6300000002,
      "d": 365.8530000000028,
      "v": 100
    },
    {
      "midi": 66,
      "hit": false,
      "t": 259755.6300000013,
      "d": 121.95100000000093,
      "v": 100
    },
    {
      "midi": 61,
      "hit": false,
      "t": 259877.5810000002,
      "d": 365.8530000000028,
      "v": 100
    },
    {
      "midi": 71,
      "hit": false,
      "t": 259877.58100000132,
      "d": 121.95100000000093,
      "v": 100
    },
    {
      "midi": 66,
      "hit": false,
      "t": 259999.53200000132,
      "d": 121.95100000000093,
      "v": 100
    },
    {
      "midi": 52,
      "hit": false,
      "t": 260121.4830000002,
      "d": 365.8530000000028,
      "v": 100
    },
    {
      "midi": 71,
      "hit": false,
      "t": 260121.48300000132,
      "d": 121.95100000000093,
      "v": 100
    },
    {
      "midi": 57,
      "hit": false,
      "t": 260243.4340000002,
      "d": 365.8530000000028,
      "v": 100
    },
    {
      "midi": 69,
      "hit": false,
      "t": 260243.4340000013,
      "d": 243.90200000000186,
      "v": 100
    },
    {
      "midi": 78,
      "hit": false,
      "t": 260243.43400000132,
      "d": 121.95100000000093,
      "v": 100
    },
    {
      "midi": 83,
      "hit": false,
      "t": 260365.38500000132,
      "d": 121.95100000000093,
      "v": 100
    },
    {
      "midi": 59,
      "hit": false,
      "t": 260487.3360000002,
      "d": 365.8530000000028,
      "v": 100
    },
    {
      "midi": 54,
      "hit": false,
      "t": 260487.3360000002,
      "d": 487.8040000000037,
      "v": 100
    },
    {
      "midi": 47,
      "hit": false,
      "t": 260487.3360000002,
      "d": 731.7060000000056,
      "v": 100
    },
    {
      "midi": 71,
      "hit": false,
      "t": 260487.3360000013,
      "d": 487.8040000000037,
      "v": 100
    },
    {
      "midi": 83,
      "hit": false,
      "t": 260487.33600000132,
      "d": 121.95100000000093,
      "v": 100
    },
    {
      "midi": 83,
      "hit": false,
      "t": 260609.28700000132,
      "d": 121.95100000000093,
      "v": 100
    },
    {
      "midi": 57,
      "hit": false,
      "t": 260731.23800000022,
      "d": 487.8040000000037,
      "v": 100
    },
    {
      "midi": 83,
      "hit": false,
      "t": 260731.23800000132,
      "d": 121.95100000000093,
      "v": 100
    },
    {
      "midi": 83,
      "hit": false,
      "t": 260853.18900000132,
      "d": 121.95100000000093,
      "v": 100
    },
    {
      "midi": 61,
      "hit": false,
      "t": 260975.14000000022,
      "d": 487.8040000000037,
      "v": 100
    },
    {
      "midi": 71,
      "hit": false,
      "t": 260975.1400000013,
      "d": 487.8040000000037,
      "v": 100
    },
    {
      "midi": 78,
      "hit": false,
      "t": 260975.14000000132,
      "d": 121.95100000000093,
      "v": 100
    },
    {
      "midi": 78,
      "hit": false,
      "t": 261097.09100000132,
      "d": 121.95100000000093,
      "v": 100
    },
    {
      "midi": 57,
      "hit": false,
      "t": 261219.04200000022,
      "d": 243.90200000000186,
      "v": 100
    },
    {
      "midi": 80,
      "hit": false,
      "t": 261219.04200000133,
      "d": 121.95100000000093,
      "v": 100
    },
    {
      "midi": 80,
      "hit": false,
      "t": 261340.99300000133,
      "d": 121.95100000000093,
      "v": 100
    },
    {
      "midi": 52,
      "hit": false,
      "t": 261462.94400000022,
      "d": 853.6569999999774,
      "v": 100
    },
    {
      "midi": 76,
      "hit": false,
      "t": 261462.9440000013,
      "d": 731.7060000000056,
      "v": 100
    },
    {
      "midi": 76,
      "hit": false,
      "t": 261462.94400000133,
      "d": 121.95100000000093,
      "v": 100
    },
    {
      "midi": 57,
      "hit": false,
      "t": 261706.84600000022,
      "d": 487.8039999999746,
      "v": 100
    },
    {
      "midi": 59,
      "hit": false,
      "t": 261828.79700000022,
      "d": 487.8039999999746,
      "v": 100
    },
    {
      "midi": 69,
      "hit": false,
      "t": 262072.69900000023,
      "d": 487.8039999999746,
      "v": 100
    },
    {
      "midi": 71,
      "hit": false,
      "t": 262194.6500000002,
      "d": 487.8040000000037,
      "v": 100
    },
    {
      "midi": 76,
      "hit": false,
      "t": 262194.6500000013,
      "d": 243.90200000000186,
      "v": 100
    },
    {
      "midi": 52,
      "hit": false,
      "t": 262438.5520000002,
      "d": 1951.216000000015,
      "v": 100
    },
    {
      "midi": 66,
      "hit": false,
      "t": 262438.5520000002,
      "d": 1951.216000000015,
      "v": 100
    },
    {
      "midi": 76,
      "hit": false,
      "t": 262438.5520000013,
      "d": 975.6080000000075,
      "v": 100
    },
    {
      "midi": 68,
      "hit": false,
      "t": 262458.87716666685,
      "d": 1951.216000000015,
      "v": 100
    }
  ]
}