{
  "jsonPath": "Pop/Stomp Pop/Dirty on Purpose/cheat-death.json",
  "path": "Pop\\Stomp Pop\\Dirty on Purpose\\Cheat Death.mid",
  "name": "Cheat Death",
  "difficulty": "Advanced",
  "bpm": 75,
  "notes": [
    {
      "midi": 57,
      "hit": false,
      "t": 3200,
      "d": 3066.666666666667,
      "v": 82
    },
    {
      "midi": 62,
      "hit": false,
      "t": 3200,
      "d": 3066.666666666667,
      "v": 82
    },
    {
      "midi": 66,
      "hit": false,
      "t": 3200,
      "d": 3066.666666666667,
      "v": 82
    },
    {
      "midi": 50,
      "hit": false,
      "t": 3213.3333333333335,
      "d": 3066.6666666666665,
      "v": 79
    },
    {
      "midi": 54,
      "hit": false,
      "t": 6400,
      "d": 3066.666666666666,
      "v": 82
    },
    {
      "midi": 59,
      "hit": false,
      "t": 6400,
      "d": 3066.666666666666,
      "v": 82
    },
    {
      "midi": 62,
      "hit": false,
      "t": 6400,
      "d": 3066.666666666666,
      "v": 82
    },
    {
      "midi": 47,
      "hit": false,
      "t": 6413.333333333333,
      "d": 3066.666666666667,
      "v": 79
    },
    {
      "midi": 55,
      "hit": false,
      "t": 9600,
      "d": 3066.666666666668,
      "v": 82
    },
    {
      "midi": 59,
      "hit": false,
      "t": 9600,
      "d": 3066.666666666668,
      "v": 82
    },
    {
      "midi": 62,
      "hit": false,
      "t": 9600,
      "d": 3066.666666666668,
      "v": 82
    },
    {
      "midi": 43,
      "hit": false,
      "t": 9613.333333333334,
      "d": 3066.666666666668,
      "v": 79
    },
    {
      "midi": 57,
      "hit": false,
      "t": 12800.000000000002,
      "d": 3066.666666666668,
      "v": 82
    },
    {
      "midi": 61,
      "hit": false,
      "t": 12800.000000000002,
      "d": 3066.666666666668,
      "v": 82
    },
    {
      "midi": 64,
      "hit": false,
      "t": 12800.000000000002,
      "d": 3066.666666666668,
      "v": 82
    },
    {
      "midi": 45,
      "hit": false,
      "t": 12813.333333333336,
      "d": 3066.666666666668,
      "v": 79
    },
    {
      "midi": 57,
      "hit": false,
      "t": 16000.000000000004,
      "d": 3066.666666666668,
      "v": 82
    },
    {
      "midi": 62,
      "hit": false,
      "t": 16000.000000000004,
      "d": 3066.666666666668,
      "v": 82
    },
    {
      "midi": 66,
      "hit": false,
      "t": 16000.000000000004,
      "d": 3066.666666666668,
      "v": 82
    },
    {
      "midi": 50,
      "hit": false,
      "t": 16013.333333333338,
      "d": 3066.666666666666,
      "v": 79
    },
    {
      "midi": 54,
      "hit": false,
      "t": 19200.000000000004,
      "d": 3066.6666666666642,
      "v": 82
    },
    {
      "midi": 59,
      "hit": false,
      "t": 19200.000000000004,
      "d": 3066.6666666666642,
      "v": 82
    },
    {
      "midi": 62,
      "hit": false,
      "t": 19200.000000000004,
      "d": 3066.6666666666642,
      "v": 82
    },
    {
      "midi": 47,
      "hit": false,
      "t": 19213.333333333336,
      "d": 3066.6666666666642,
      "v": 79
    },
    {
      "midi": 55,
      "hit": false,
      "t": 22400,
      "d": 3066.6666666666642,
      "v": 82
    },
    {
      "midi": 59,
      "hit": false,
      "t": 22400,
      "d": 3066.6666666666642,
      "v": 82
    },
    {
      "midi": 62,
      "hit": false,
      "t": 22400,
      "d": 3066.6666666666642,
      "v": 82
    },
    {
      "midi": 43,
      "hit": false,
      "t": 22413.333333333332,
      "d": 3066.6666666666642,
      "v": 79
    },
    {
      "midi": 57,
      "hit": false,
      "t": 25599.999999999996,
      "d": 3066.6666666666642,
      "v": 82
    },
    {
      "midi": 61,
      "hit": false,
      "t": 25599.999999999996,
      "d": 3066.6666666666642,
      "v": 82
    },
    {
      "midi": 64,
      "hit": false,
      "t": 25599.999999999996,
      "d": 3066.6666666666642,
      "v": 82
    },
    {
      "midi": 45,
      "hit": false,
      "t": 25613.33333333333,
      "d": 3066.6666666666642,
      "v": 79
    },
    {
      "midi": 54,
      "hit": false,
      "t": 28799.999999999993,
      "d": 1026.6666666666642,
      "v": 73
    },
    {
      "midi": 57,
      "hit": false,
      "t": 28799.999999999993,
      "d": 1026.6666666666642,
      "v": 73
    },
    {
      "midi": 62,
      "hit": false,
      "t": 28799.999999999993,
      "d": 1026.6666666666642,
      "v": 73
    },
    {
      "midi": 50,
      "hit": false,
      "t": 28813.333333333325,
      "d": 1380,
      "v": 64
    },
    {
      "midi": 62,
      "hit": false,
      "t": 29866.666666666657,
      "d": 266.6666666666679,
      "v": 48
    },
    {
      "midi": 66,
      "hit": false,
      "t": 30133.333333333325,
      "d": 213.33333333333212,
      "v": 76
    },
    {
      "midi": 54,
      "hit": false,
      "t": 30399.99999999999,
      "d": 1026.6666666666642,
      "v": 73
    },
    {
      "midi": 59,
      "hit": false,
      "t": 30399.99999999999,
      "d": 1026.6666666666642,
      "v": 73
    },
    {
      "midi": 62,
      "hit": false,
      "t": 30399.99999999999,
      "d": 1026.6666666666642,
      "v": 73
    },
    {
      "midi": 47,
      "hit": false,
      "t": 30413.33333333332,
      "d": 1380,
      "v": 64
    },
    {
      "midi": 59,
      "hit": false,
      "t": 31466.666666666653,
      "d": 266.6666666666679,
      "v": 48
    },
    {
      "midi": 62,
      "hit": false,
      "t": 31733.33333333332,
      "d": 213.33333333333212,
      "v": 76
    },
    {
      "midi": 55,
      "hit": false,
      "t": 31999.999999999985,
      "d": 1280,
      "v": 69
    },
    {
      "midi": 59,
      "hit": false,
      "t": 31999.999999999985,
      "d": 1280,
      "v": 69
    },
    {
      "midi": 62,
      "hit": false,
      "t": 31999.999999999985,
      "d": 1280,
      "v": 69
    },
    {
      "midi": 43,
      "hit": false,
      "t": 32026.666666666653,
      "d": 1306.6666666666679,
      "v": 66
    },
    {
      "midi": 57,
      "hit": false,
      "t": 33346.66666666666,
      "d": 1633.3333333333358,
      "v": 70
    },
    {
      "midi": 61,
      "hit": false,
      "t": 33346.66666666666,
      "d": 1633.3333333333358,
      "v": 70
    },
    {
      "midi": 64,
      "hit": false,
      "t": 33346.66666666666,
      "d": 1633.3333333333358,
      "v": 70
    },
    {
      "midi": 45,
      "hit": false,
      "t": 33373.33333333332,
      "d": 846.6666666666715,
      "v": 67
    },
    {
      "midi": 73,
      "hit": false,
      "t": 34146.66666666666,
      "d": 793.3333333333358,
      "v": 63
    },
    {
      "midi": 45,
      "hit": false,
      "t": 34946.66666666666,
      "d": 200,
      "v": 63
    },
    {
      "midi": 57,
      "hit": false,
      "t": 35199.99999999999,
      "d": 1280,
      "v": 67
    },
    {
      "midi": 62,
      "hit": false,
      "t": 35199.99999999999,
      "d": 1280,
      "v": 67
    },
    {
      "midi": 66,
      "hit": false,
      "t": 35199.99999999999,
      "d": 1280,
      "v": 67
    },
    {
      "midi": 50,
      "hit": false,
      "t": 35226.66666666666,
      "d": 1253.3333333333358,
      "v": 64
    },
    {
      "midi": 54,
      "hit": false,
      "t": 36546.66666666666,
      "d": 1633.3333333333358,
      "v": 70
    },
    {
      "midi": 59,
      "hit": false,
      "t": 36546.66666666666,
      "d": 1633.3333333333358,
      "v": 70
    },
    {
      "midi": 62,
      "hit": false,
      "t": 36546.66666666666,
      "d": 1633.3333333333358,
      "v": 70
    },
    {
      "midi": 47,
      "hit": false,
      "t": 36573.33333333332,
      "d": 846.6666666666715,
      "v": 67
    },
    {
      "midi": 74,
      "hit": false,
      "t": 37346.66666666666,
      "d": 793.3333333333358,
      "v": 63
    },
    {
      "midi": 47,
      "hit": false,
      "t": 38146.66666666666,
      "d": 200,
      "v": 63
    },
    {
      "midi": 55,
      "hit": false,
      "t": 38399.99999999999,
      "d": 1026.6666666666715,
      "v": 73
    },
    {
      "midi": 59,
      "hit": false,
      "t": 38399.99999999999,
      "d": 1026.6666666666715,
      "v": 73
    },
    {
      "midi": 62,
      "hit": false,
      "t": 38399.99999999999,
      "d": 1026.6666666666715,
      "v": 73
    },
    {
      "midi": 43,
      "hit": false,
      "t": 38413.33333333333,
      "d": 1380,
      "v": 64
    },
    {
      "midi": 55,
      "hit": false,
      "t": 39466.666666666664,
      "d": 266.66666666666424,
      "v": 48
    },
    {
      "midi": 59,
      "hit": false,
      "t": 39733.33333333333,
      "d": 213.33333333333576,
      "v": 76
    },
    {
      "midi": 57,
      "hit": false,
      "t": 40000,
      "d": 1026.6666666666715,
      "v": 73
    },
    {
      "midi": 61,
      "hit": false,
      "t": 40000,
      "d": 1026.6666666666715,
      "v": 73
    },
    {
      "midi": 64,
      "hit": false,
      "t": 40000,
      "d": 1026.6666666666715,
      "v": 73
    },
    {
      "midi": 45,
      "hit": false,
      "t": 40013.333333333336,
      "d": 1380,
      "v": 64
    },
    {
      "midi": 57,
      "hit": false,
      "t": 41066.66666666667,
      "d": 266.66666666666424,
      "v": 48
    },
    {
      "midi": 61,
      "hit": false,
      "t": 41333.333333333336,
      "d": 213.33333333333576,
      "v": 76
    },
    {
      "midi": 57,
      "hit": false,
      "t": 41600.00000000001,
      "d": 1600,
      "v": 67
    },
    {
      "midi": 62,
      "hit": false,
      "t": 41600.00000000001,
      "d": 1600,
      "v": 67
    },
    {
      "midi": 66,
      "hit": false,
      "t": 41600.00000000001,
      "d": 1600,
      "v": 67
    },
    {
      "midi": 50,
      "hit": false,
      "t": 41626.66666666667,
      "d": 1500,
      "v": 64
    },
    {
      "midi": 61,
      "hit": false,
      "t": 43200.00000000001,
      "d": 306.66666666666424,
      "v": 65
    },
    {
      "midi": 66,
      "hit": false,
      "t": 43200.00000000001,
      "d": 746.6666666666642,
      "v": 73
    },
    {
      "midi": 69,
      "hit": false,
      "t": 43200.00000000001,
      "d": 1066.6666666666642,
      "v": 69
    },
    {
      "midi": 42,
      "hit": false,
      "t": 43200.00000000001,
      "d": 1213.3333333333285,
      "v": 46
    },
    {
      "midi": 57,
      "hit": false,
      "t": 43466.66666666667,
      "d": 1073.3333333333285,
      "v": 64
    },
    {
      "midi": 61,
      "hit": false,
      "t": 43733.333333333336,
      "d": 60,
      "v": 63
    },
    {
      "midi": 61,
      "hit": false,
      "t": 44000.00000000001,
      "d": 240,
      "v": 60
    },
    {
      "midi": 66,
      "hit": false,
      "t": 44266.66666666667,
      "d": 266.66666666666424,
      "v": 69
    },
    {
      "midi": 69,
      "hit": false,
      "t": 44533.333333333336,
      "d": 80,
      "v": 92
    },
    {
      "midi": 55,
      "hit": false,
      "t": 44800,
      "d": 1026.6666666666715,
      "v": 73
    },
    {
      "midi": 59,
      "hit": false,
      "t": 44800,
      "d": 1026.6666666666715,
      "v": 73
    },
    {
      "midi": 62,
      "hit": false,
      "t": 44800,
      "d": 1026.6666666666715,
      "v": 73
    },
    {
      "midi": 43,
      "hit": false,
      "t": 44813.333333333336,
      "d": 1380,
      "v": 64
    },
    {
      "midi": 55,
      "hit": false,
      "t": 45866.66666666667,
      "d": 266.66666666666424,
      "v": 48
    },
    {
      "midi": 59,
      "hit": false,
      "t": 46133.333333333336,
      "d": 213.33333333333576,
      "v": 76
    },
    {
      "midi": 57,
      "hit": false,
      "t": 46400.00000000001,
      "d": 1026.6666666666715,
      "v": 73
    },
    {
      "midi": 61,
      "hit": false,
      "t": 46400.00000000001,
      "d": 1026.6666666666715,
      "v": 73
    },
    {
      "midi": 64,
      "hit": false,
      "t": 46400.00000000001,
      "d": 1026.6666666666715,
      "v": 73
    },
    {
      "midi": 45,
      "hit": false,
      "t": 46413.33333333334,
      "d": 1380,
      "v": 64
    },
    {
      "midi": 57,
      "hit": false,
      "t": 47466.66666666668,
      "d": 266.66666666666424,
      "v": 48
    },
    {
      "midi": 61,
      "hit": false,
      "t": 47733.33333333334,
      "d": 213.33333333333576,
      "v": 76
    },
    {
      "midi": 57,
      "hit": false,
      "t": 48000.000000000015,
      "d": 1013.3333333333285,
      "v": 69
    },
    {
      "midi": 62,
      "hit": false,
      "t": 48000.000000000015,
      "d": 1279.9999999999927,
      "v": 69
    },
    {
      "midi": 66,
      "hit": false,
      "t": 48000.000000000015,
      "d": 1279.9999999999927,
      "v": 69
    },
    {
      "midi": 50,
      "hit": false,
      "t": 48026.66666666668,
      "d": 1306.6666666666642,
      "v": 66
    },
    {
      "midi": 61,
      "hit": false,
      "t": 49346.66666666668,
      "d": 546.6666666666642,
      "v": 65
    },
    {
      "midi": 66,
      "hit": false,
      "t": 49346.66666666668,
      "d": 986.6666666666642,
      "v": 73
    },
    {
      "midi": 69,
      "hit": false,
      "t": 49346.66666666668,
      "d": 1306.6666666666642,
      "v": 69
    },
    {
      "midi": 42,
      "hit": false,
      "t": 49346.66666666668,
      "d": 1453.3333333333358,
      "v": 46
    },
    {
      "midi": 57,
      "hit": false,
      "t": 49866.66666666668,
      "d": 1073.3333333333358,
      "v": 64
    },
    {
      "midi": 61,
      "hit": false,
      "t": 50133.33333333334,
      "d": 60,
      "v": 63
    },
    {
      "midi": 61,
      "hit": false,
      "t": 50400.00000000001,
      "d": 240,
      "v": 60
    },
    {
      "midi": 66,
      "hit": false,
      "t": 50666.66666666668,
      "d": 266.6666666666715,
      "v": 69
    },
    {
      "midi": 69,
      "hit": false,
      "t": 50933.33333333335,
      "d": 80,
      "v": 92
    },
    {
      "midi": 55,
      "hit": false,
      "t": 51200.000000000015,
      "d": 1600,
      "v": 67
    },
    {
      "midi": 59,
      "hit": false,
      "t": 51200.000000000015,
      "d": 1600,
      "v": 67
    },
    {
      "midi": 62,
      "hit": false,
      "t": 51200.000000000015,
      "d": 1600,
      "v": 67
    },
    {
      "midi": 43,
      "hit": false,
      "t": 51226.66666666668,
      "d": 1500,
      "v": 64
    },
    {
      "midi": 64,
      "hit": false,
      "t": 52800.000000000015,
      "d": 306.66666666666424,
      "v": 65
    },
    {
      "midi": 69,
      "hit": false,
      "t": 52800.000000000015,
      "d": 746.6666666666642,
      "v": 73
    },
    {
      "midi": 73,
      "hit": false,
      "t": 52800.000000000015,
      "d": 1066.6666666666642,
      "v": 69
    },
    {
      "midi": 45,
      "hit": false,
      "t": 52800.000000000015,
      "d": 1213.3333333333285,
      "v": 46
    },
    {
      "midi": 61,
      "hit": false,
      "t": 53066.66666666668,
      "d": 1073.3333333333285,
      "v": 64
    },
    {
      "midi": 64,
      "hit": false,
      "t": 53333.33333333334,
      "d": 60,
      "v": 63
    },
    {
      "midi": 64,
      "hit": false,
      "t": 53600.000000000015,
      "d": 240,
      "v": 60
    },
    {
      "midi": 69,
      "hit": false,
      "t": 53866.66666666668,
      "d": 266.66666666666424,
      "v": 69
    },
    {
      "midi": 73,
      "hit": false,
      "t": 54133.33333333334,
      "d": 80,
      "v": 92
    },
    {
      "midi": 62,
      "hit": false,
      "t": 54400.00000000001,
      "d": 1580,
      "v": 69
    },
    {
      "midi": 66,
      "hit": false,
      "t": 54400.00000000001,
      "d": 1580,
      "v": 69
    },
    {
      "midi": 50,
      "hit": false,
      "t": 54426.66666666667,
      "d": 1306.6666666666642,
      "v": 66
    },
    {
      "midi": 57,
      "hit": false,
      "t": 55746.66666666667,
      "d": 233.33333333333576,
      "v": 62
    },
    {
      "midi": 54,
      "hit": false,
      "t": 56000.00000000001,
      "d": 1026.6666666666715,
      "v": 73
    },
    {
      "midi": 59,
      "hit": false,
      "t": 56000.00000000001,
      "d": 1026.6666666666715,
      "v": 73
    },
    {
      "midi": 62,
      "hit": false,
      "t": 56000.00000000001,
      "d": 1026.6666666666715,
      "v": 73
    },
    {
      "midi": 47,
      "hit": false,
      "t": 56013.33333333334,
      "d": 1380,
      "v": 64
    },
    {
      "midi": 59,
      "hit": false,
      "t": 57066.66666666668,
      "d": 266.66666666666424,
      "v": 48
    },
    {
      "midi": 62,
      "hit": false,
      "t": 57333.33333333334,
      "d": 213.33333333333576,
      "v": 76
    },
    {
      "midi": 55,
      "hit": false,
      "t": 57600.000000000015,
      "d": 1026.6666666666715,
      "v": 73
    },
    {
      "midi": 59,
      "hit": false,
      "t": 57600.000000000015,
      "d": 1026.6666666666715,
      "v": 73
    },
    {
      "midi": 62,
      "hit": false,
      "t": 57600.000000000015,
      "d": 1026.6666666666715,
      "v": 73
    },
    {
      "midi": 43,
      "hit": false,
      "t": 57613.33333333335,
      "d": 1380,
      "v": 64
    },
    {
      "midi": 55,
      "hit": false,
      "t": 58666.666666666686,
      "d": 266.66666666666424,
      "v": 48
    },
    {
      "midi": 59,
      "hit": false,
      "t": 58933.33333333335,
      "d": 213.33333333333576,
      "v": 76
    },
    {
      "midi": 57,
      "hit": false,
      "t": 59200.00000000002,
      "d": 1026.6666666666715,
      "v": 73
    },
    {
      "midi": 61,
      "hit": false,
      "t": 59200.00000000002,
      "d": 1026.6666666666715,
      "v": 73
    },
    {
      "midi": 64,
      "hit": false,
      "t": 59200.00000000002,
      "d": 1026.6666666666715,
      "v": 73
    },
    {
      "midi": 45,
      "hit": false,
      "t": 59213.33333333336,
      "d": 1380,
      "v": 64
    },
    {
      "midi": 57,
      "hit": false,
      "t": 60266.66666666669,
      "d": 266.66666666666424,
      "v": 48
    },
    {
      "midi": 61,
      "hit": false,
      "t": 60533.33333333336,
      "d": 213.33333333333576,
      "v": 76
    },
    {
      "midi": 57,
      "hit": false,
      "t": 60800.00000000003,
      "d": 1013.3333333333285,
      "v": 69
    },
    {
      "midi": 62,
      "hit": false,
      "t": 60800.00000000003,
      "d": 1279.9999999999927,
      "v": 69
    },
    {
      "midi": 66,
      "hit": false,
      "t": 60800.00000000003,
      "d": 1279.9999999999927,
      "v": 69
    },
    {
      "midi": 50,
      "hit": false,
      "t": 60826.66666666669,
      "d": 1306.6666666666642,
      "v": 66
    },
    {
      "midi": 54,
      "hit": false,
      "t": 62146.66666666669,
      "d": 1633.3333333333358,
      "v": 70
    },
    {
      "midi": 59,
      "hit": false,
      "t": 62146.66666666669,
      "d": 1633.3333333333358,
      "v": 70
    },
    {
      "midi": 62,
      "hit": false,
      "t": 62146.66666666669,
      "d": 1633.3333333333358,
      "v": 70
    },
    {
      "midi": 47,
      "hit": false,
      "t": 62173.33333333336,
      "d": 846.6666666666715,
      "v": 67
    },
    {
      "midi": 74,
      "hit": false,
      "t": 62946.66666666669,
      "d": 793.3333333333358,
      "v": 63
    },
    {
      "midi": 47,
      "hit": false,
      "t": 63746.66666666669,
      "d": 200,
      "v": 63
    },
    {
      "midi": 55,
      "hit": false,
      "t": 64000.00000000003,
      "d": 1280,
      "v": 69
    },
    {
      "midi": 59,
      "hit": false,
      "t": 64000.00000000003,
      "d": 1280,
      "v": 69
    },
    {
      "midi": 62,
      "hit": false,
      "t": 64000.00000000003,
      "d": 1280,
      "v": 69
    },
    {
      "midi": 43,
      "hit": false,
      "t": 64026.66666666669,
      "d": 1306.6666666666715,
      "v": 66
    },
    {
      "midi": 64,
      "hit": false,
      "t": 65346.6666666667,
      "d": 546.6666666666715,
      "v": 65
    },
    {
      "midi": 69,
      "hit": false,
      "t": 65346.6666666667,
      "d": 986.6666666666715,
      "v": 73
    },
    {
      "midi": 73,
      "hit": false,
      "t": 65346.6666666667,
      "d": 1306.6666666666715,
      "v": 69
    },
    {
      "midi": 45,
      "hit": false,
      "t": 65346.6666666667,
      "d": 1453.3333333333285,
      "v": 46
    },
    {
      "midi": 61,
      "hit": false,
      "t": 65866.6666666667,
      "d": 1073.3333333333285,
      "v": 64
    },
    {
      "midi": 64,
      "hit": false,
      "t": 66133.33333333337,
      "d": 60,
      "v": 63
    },
    {
      "midi": 64,
      "hit": false,
      "t": 66400.00000000004,
      "d": 240,
      "v": 60
    },
    {
      "midi": 69,
      "hit": false,
      "t": 66666.6666666667,
      "d": 266.66666666665697,
      "v": 69
    },
    {
      "midi": 73,
      "hit": false,
      "t": 66933.33333333336,
      "d": 80,
      "v": 92
    },
    {
      "midi": 57,
      "hit": false,
      "t": 67200.00000000003,
      "d": 1026.666666666657,
      "v": 73
    },
    {
      "midi": 62,
      "hit": false,
      "t": 67200.00000000003,
      "d": 1026.666666666657,
      "v": 73
    },
    {
      "midi": 66,
      "hit": false,
      "t": 67200.00000000003,
      "d": 1026.666666666657,
      "v": 73
    },
    {
      "midi": 50,
      "hit": false,
      "t": 67213.33333333336,
      "d": 1380,
      "v": 64
    },
    {
      "midi": 62,
      "hit": false,
      "t": 68266.66666666669,
      "d": 266.6666666666715,
      "v": 48
    },
    {
      "midi": 66,
      "hit": false,
      "t": 68533.33333333336,
      "d": 213.33333333332848,
      "v": 76
    },
    {
      "midi": 57,
      "hit": false,
      "t": 68800.00000000001,
      "d": 1393.3333333333576,
      "v": 70
    },
    {
      "midi": 61,
      "hit": false,
      "t": 68800.00000000001,
      "d": 1393.3333333333576,
      "v": 70
    },
    {
      "midi": 66,
      "hit": false,
      "t": 68800.00000000001,
      "d": 1393.3333333333576,
      "v": 70
    },
    {
      "midi": 42,
      "hit": false,
      "t": 68826.66666666669,
      "d": 606.6666666666715,
      "v": 67
    },
    {
      "midi": 69,
      "hit": false,
      "t": 69346.66666666669,
      "d": 793.333333333343,
      "v": 63
    },
    {
      "midi": 42,
      "hit": false,
      "t": 70146.6666666667,
      "d": 200,
      "v": 63
    },
    {
      "midi": 55,
      "hit": false,
      "t": 70400.00000000003,
      "d": 1600,
      "v": 67
    },
    {
      "midi": 59,
      "hit": false,
      "t": 70400.00000000003,
      "d": 1600,
      "v": 67
    },
    {
      "midi": 62,
      "hit": false,
      "t": 70400.00000000003,
      "d": 1600,
      "v": 67
    },
    {
      "midi": 43,
      "hit": false,
      "t": 70426.6666666667,
      "d": 1500,
      "v": 64
    },
    {
      "midi": 57,
      "hit": false,
      "t": 72000.00000000003,
      "d": 1026.666666666657,
      "v": 73
    },
    {
      "midi": 61,
      "hit": false,
      "t": 72000.00000000003,
      "d": 1026.666666666657,
      "v": 73
    },
    {
      "midi": 64,
      "hit": false,
      "t": 72000.00000000003,
      "d": 1026.666666666657,
      "v": 73
    },
    {
      "midi": 45,
      "hit": false,
      "t": 72013.33333333336,
      "d": 1380,
      "v": 64
    },
    {
      "midi": 57,
      "hit": false,
      "t": 73066.66666666669,
      "d": 266.6666666666715,
      "v": 48
    },
    {
      "midi": 61,
      "hit": false,
      "t": 73333.33333333336,
      "d": 213.33333333332848,
      "v": 76
    },
    {
      "midi": 57,
      "hit": false,
      "t": 73600.00000000001,
      "d": 1026.666666666657,
      "v": 73
    },
    {
      "midi": 62,
      "hit": false,
      "t": 73600.00000000001,
      "d": 1026.666666666657,
      "v": 73
    },
    {
      "midi": 66,
      "hit": false,
      "t": 73600.00000000001,
      "d": 1026.666666666657,
      "v": 73
    },
    {
      "midi": 50,
      "hit": false,
      "t": 73613.33333333334,
      "d": 1380,
      "v": 64
    },
    {
      "midi": 62,
      "hit": false,
      "t": 74666.66666666667,
      "d": 266.6666666666715,
      "v": 48
    },
    {
      "midi": 66,
      "hit": false,
      "t": 74933.33333333334,
      "d": 213.33333333332848,
      "v": 76
    },
    {
      "midi": 55,
      "hit": false,
      "t": 75200,
      "d": 1393.3333333333576,
      "v": 70
    },
    {
      "midi": 59,
      "hit": false,
      "t": 75200,
      "d": 1393.3333333333576,
      "v": 70
    },
    {
      "midi": 62,
      "hit": false,
      "t": 75200,
      "d": 1393.3333333333576,
      "v": 70
    },
    {
      "midi": 43,
      "hit": false,
      "t": 75226.66666666667,
      "d": 606.6666666666715,
      "v": 67
    },
    {
      "midi": 71,
      "hit": false,
      "t": 75746.66666666667,
      "d": 793.333333333343,
      "v": 63
    },
    {
      "midi": 43,
      "hit": false,
      "t": 76546.66666666669,
      "d": 200,
      "v": 63
    },
    {
      "midi": 57,
      "hit": false,
      "t": 76800.00000000001,
      "d": 1280,
      "v": 67
    },
    {
      "midi": 62,
      "hit": false,
      "t": 76800.00000000001,
      "d": 1280,
      "v": 67
    },
    {
      "midi": 66,
      "hit": false,
      "t": 76800.00000000001,
      "d": 1280,
      "v": 67
    },
    {
      "midi": 50,
      "hit": false,
      "t": 76826.66666666669,
      "d": 1253.3333333333285,
      "v": 64
    },
    {
      "midi": 56,
      "hit": false,
      "t": 78146.66666666669,
      "d": 1633.3333333333285,
      "v": 70
    },
    {
      "midi": 61,
      "hit": false,
      "t": 78146.66666666669,
      "d": 1633.3333333333285,
      "v": 70
    },
    {
      "midi": 65,
      "hit": false,
      "t": 78146.66666666669,
      "d": 1633.3333333333285,
      "v": 70
    },
    {
      "midi": 49,
      "hit": false,
      "t": 78173.33333333336,
      "d": 846.666666666657,
      "v": 67
    },
    {
      "midi": 68,
      "hit": false,
      "t": 78946.66666666669,
      "d": 793.3333333333285,
      "v": 63
    },
    {
      "midi": 49,
      "hit": false,
      "t": 79746.66666666669,
      "d": 200,
      "v": 63
    },
    {
      "midi": 57,
      "hit": false,
      "t": 80000.00000000001,
      "d": 1280,
      "v": 74
    },
    {
      "midi": 61,
      "hit": false,
      "t": 80000.00000000001,
      "d": 1280,
      "v": 74
    },
    {
      "midi": 66,
      "hit": false,
      "t": 80000.00000000001,
      "d": 1280,
      "v": 74
    },
    {
      "midi": 42,
      "hit": false,
      "t": 80026.66666666669,
      "d": 1253.3333333333285,
      "v": 71
    },
    {
      "midi": 59,
      "hit": false,
      "t": 81346.66666666669,
      "d": 1633.3333333333285,
      "v": 77
    },
    {
      "midi": 61,
      "hit": false,
      "t": 81346.66666666669,
      "d": 1633.3333333333285,
      "v": 77
    },
    {
      "midi": 65,
      "hit": false,
      "t": 81346.66666666669,
      "d": 1633.3333333333285,
      "v": 77
    },
    {
      "midi": 44,
      "hit": false,
      "t": 81373.33333333336,
      "d": 846.666666666657,
      "v": 74
    },
    {
      "midi": 68,
      "hit": false,
      "t": 82146.66666666669,
      "d": 780,
      "v": 70
    },
    {
      "midi": 44,
      "hit": false,
      "t": 82946.66666666669,
      "d": 200,
      "v": 70
    },
    {
      "midi": 57,
      "hit": false,
      "t": 83200.00000000001,
      "d": 1580,
      "v": 76
    },
    {
      "midi": 61,
      "hit": false,
      "t": 83200.00000000001,
      "d": 1580,
      "v": 76
    },
    {
      "midi": 66,
      "hit": false,
      "t": 83200.00000000001,
      "d": 1580,
      "v": 76
    },
    {
      "midi": 45,
      "hit": false,
      "t": 83226.66666666669,
      "d": 1306.6666666666715,
      "v": 73
    },
    {
      "midi": 49,
      "hit": false,
      "t": 84546.66666666669,
      "d": 253.33333333332848,
      "v": 69
    },
    {
      "midi": 59,
      "hit": false,
      "t": 84800.00000000001,
      "d": 1026.666666666657,
      "v": 76
    },
    {
      "midi": 61,
      "hit": false,
      "t": 84800.00000000001,
      "d": 1026.666666666657,
      "v": 76
    },
    {
      "midi": 65,
      "hit": false,
      "t": 84800.00000000001,
      "d": 1026.666666666657,
      "v": 76
    },
    {
      "midi": 68,
      "hit": false,
      "t": 84800.00000000001,
      "d": 1026.666666666657,
      "v": 76
    },
    {
      "midi": 44,
      "hit": false,
      "t": 84813.33333333334,
      "d": 1380,
      "v": 71
    },
    {
      "midi": 59,
      "hit": false,
      "t": 85866.66666666667,
      "d": 266.6666666666715,
      "v": 55
    },
    {
      "midi": 65,
      "hit": false,
      "t": 86133.33333333334,
      "d": 213.33333333332848,
      "v": 83
    },
    {
      "midi": 57,
      "hit": false,
      "t": 86400,
      "d": 1013.3333333333285,
      "v": 76
    },
    {
      "midi": 61,
      "hit": false,
      "t": 86400,
      "d": 1026.666666666657,
      "v": 76
    },
    {
      "midi": 66,
      "hit": false,
      "t": 86400,
      "d": 1026.666666666657,
      "v": 76
    },
    {
      "midi": 42,
      "hit": false,
      "t": 86413.33333333333,
      "d": 1266.666666666657,
      "v": 71
    },
    {
      "midi": 59,
      "hit": false,
      "t": 87746.66666666666,
      "d": 1633.3333333333285,
      "v": 77
    },
    {
      "midi": 64,
      "hit": false,
      "t": 87746.66666666666,
      "d": 1633.3333333333285,
      "v": 77
    },
    {
      "midi": 65,
      "hit": false,
      "t": 87746.66666666666,
      "d": 1633.3333333333285,
      "v": 77
    },
    {
      "midi": 49,
      "hit": false,
      "t": 87773.33333333333,
      "d": 846.666666666657,
      "v": 74
    },
    {
      "midi": 68,
      "hit": false,
      "t": 88546.66666666666,
      "d": 780,
      "v": 70
    },
    {
      "midi": 49,
      "hit": false,
      "t": 89346.66666666666,
      "d": 200,
      "v": 70
    },
    {
      "midi": 57,
      "hit": false,
      "t": 89599.99999999999,
      "d": 1580,
      "v": 76
    },
    {
      "midi": 61,
      "hit": false,
      "t": 89599.99999999999,
      "d": 1580,
      "v": 76
    },
    {
      "midi": 66,
      "hit": false,
      "t": 89599.99999999999,
      "d": 1580,
      "v": 76
    },
    {
      "midi": 42,
      "hit": false,
      "t": 89626.66666666666,
      "d": 1306.6666666666715,
      "v": 73
    },
    {
      "midi": 49,
      "hit": false,
      "t": 90946.66666666666,
      "d": 253.33333333332848,
      "v": 69
    },
    {
      "midi": 57,
      "hit": false,
      "t": 91199.99999999999,
      "d": 800,
      "v": 74
    },
    {
      "midi": 62,
      "hit": false,
      "t": 91199.99999999999,
      "d": 800,
      "v": 74
    },
    {
      "midi": 66,
      "hit": false,
      "t": 91199.99999999999,
      "d": 800,
      "v": 74
    },
    {
      "midi": 50,
      "hit": false,
      "t": 91213.33333333331,
      "d": 786.6666666666715,
      "v": 71
    },
    {
      "midi": 56,
      "hit": false,
      "t": 91999.99999999999,
      "d": 800,
      "v": 74
    },
    {
      "midi": 59,
      "hit": false,
      "t": 91999.99999999999,
      "d": 800,
      "v": 74
    },
    {
      "midi": 64,
      "hit": false,
      "t": 91999.99999999999,
      "d": 800,
      "v": 74
    },
    {
      "midi": 52,
      "hit": false,
      "t": 92013.33333333331,
      "d": 786.6666666666715,
      "v": 71
    },
    {
      "midi": 57,
      "hit": false,
      "t": 92799.99999999999,
      "d": 1280,
      "v": 74
    },
    {
      "midi": 61,
      "hit": false,
      "t": 92799.99999999999,
      "d": 1280,
      "v": 74
    },
    {
      "midi": 64,
      "hit": false,
      "t": 92799.99999999999,
      "d": 1280,
      "v": 74
    },
    {
      "midi": 45,
      "hit": false,
      "t": 92826.66666666666,
      "d": 1253.3333333333285,
      "v": 71
    },
    {
      "midi": 64,
      "hit": false,
      "t": 94146.66666666666,
      "d": 546.6666666666715,
      "v": 72
    },
    {
      "midi": 68,
      "hit": false,
      "t": 94146.66666666666,
      "d": 986.6666666666715,
      "v": 80
    },
    {
      "midi": 71,
      "hit": false,
      "t": 94146.66666666666,
      "d": 1306.6666666666715,
      "v": 76
    },
    {
      "midi": 52,
      "hit": false,
      "t": 94146.66666666666,
      "d": 1453.3333333333285,
      "v": 53
    },
    {
      "midi": 59,
      "hit": false,
      "t": 94666.66666666666,
      "d": 1073.3333333333285,
      "v": 71
    },
    {
      "midi": 64,
      "hit": false,
      "t": 94933.33333333333,
      "d": 60,
      "v": 70
    },
    {
      "midi": 64,
      "hit": false,
      "t": 95200,
      "d": 240,
      "v": 67
    },
    {
      "midi": 68,
      "hit": false,
      "t": 95466.66666666666,
      "d": 266.66666666665697,
      "v": 76
    },
    {
      "midi": 71,
      "hit": false,
      "t": 95733.33333333331,
      "d": 80,
      "v": 99
    },
    {
      "midi": 57,
      "hit": false,
      "t": 95999.99999999999,
      "d": 1013.3333333333285,
      "v": 76
    },
    {
      "midi": 61,
      "hit": false,
      "t": 95999.99999999999,
      "d": 1013.3333333333285,
      "v": 76
    },
    {
      "midi": 64,
      "hit": false,
      "t": 95999.99999999999,
      "d": 1026.666666666657,
      "v": 76
    },
    {
      "midi": 45,
      "hit": false,
      "t": 96013.33333333331,
      "d": 1266.666666666657,
      "v": 71
    },
    {
      "midi": 56,
      "hit": false,
      "t": 97346.66666666664,
      "d": 1633.3333333333285,
      "v": 77
    },
    {
      "midi": 59,
      "hit": false,
      "t": 97346.66666666664,
      "d": 1633.3333333333285,
      "v": 77
    },
    {
      "midi": 64,
      "hit": false,
      "t": 97346.66666666664,
      "d": 1633.3333333333285,
      "v": 77
    },
    {
      "midi": 52,
      "hit": false,
      "t": 97373.33333333331,
      "d": 846.666666666657,
      "v": 74
    },
    {
      "midi": 71,
      "hit": false,
      "t": 98146.66666666664,
      "d": 793.3333333333285,
      "v": 70
    },
    {
      "midi": 52,
      "hit": false,
      "t": 98946.66666666664,
      "d": 200,
      "v": 70
    },
    {
      "midi": 64,
      "hit": false,
      "t": 99199.99999999997,
      "d": 1933.3333333333285,
      "v": 57
    },
    {
      "midi": 67,
      "hit": false,
      "t": 99199.99999999997,
      "d": 2220,
      "v": 73
    },
    {
      "midi": 71,
      "hit": false,
      "t": 99199.99999999997,
      "d": 2433.3333333333285,
      "v": 73
    },
    {
      "midi": 52,
      "hit": false,
      "t": 99199.99999999997,
      "d": 2986.666666666657,
      "v": 63
    },
    {
      "midi": 64,
      "hit": false,
      "t": 101333.3333333333,
      "d": 720,
      "v": 65
    },
    {
      "midi": 59,
      "hit": false,
      "t": 101866.66666666663,
      "d": 533.333333333343,
      "v": 73
    },
    {
      "midi": 55,
      "hit": false,
      "t": 102133.3333333333,
      "d": 113.33333333332848,
      "v": 101
    },
    {
      "midi": 57,
      "hit": false,
      "t": 102399.99999999997,
      "d": 1026.666666666657,
      "v": 76
    },
    {
      "midi": 61,
      "hit": false,
      "t": 102399.99999999997,
      "d": 1026.666666666657,
      "v": 76
    },
    {
      "midi": 64,
      "hit": false,
      "t": 102399.99999999997,
      "d": 1026.666666666657,
      "v": 76
    },
    {
      "midi": 45,
      "hit": false,
      "t": 102413.3333333333,
      "d": 1380,
      "v": 71
    },
    {
      "midi": 57,
      "hit": false,
      "t": 103466.66666666663,
      "d": 266.6666666666715,
      "v": 55
    },
    {
      "midi": 61,
      "hit": false,
      "t": 103733.3333333333,
      "d": 213.33333333332848,
      "v": 83
    },
    {
      "midi": 57,
      "hit": false,
      "t": 103999.99999999996,
      "d": 800,
      "v": 74
    },
    {
      "midi": 61,
      "hit": false,
      "t": 103999.99999999996,
      "d": 800,
      "v": 74
    },
    {
      "midi": 64,
      "hit": false,
      "t": 103999.99999999996,
      "d": 800,
      "v": 74
    },
    {
      "midi": 45,
      "hit": false,
      "t": 104013.33333333328,
      "d": 786.6666666666715,
      "v": 71
    },
    {
      "midi": 57,
      "hit": false,
      "t": 105599.99999999996,
      "d": 1280,
      "v": 67
    },
    {
      "midi": 62,
      "hit": false,
      "t": 105599.99999999996,
      "d": 1280,
      "v": 67
    },
    {
      "midi": 66,
      "hit": false,
      "t": 105599.99999999996,
      "d": 1280,
      "v": 67
    },
    {
      "midi": 50,
      "hit": false,
      "t": 105626.66666666663,
      "d": 1253.3333333333285,
      "v": 64
    },
    {
      "midi": 54,
      "hit": false,
      "t": 106946.66666666663,
      "d": 1633.3333333333285,
      "v": 70
    },
    {
      "midi": 59,
      "hit": false,
      "t": 106946.66666666663,
      "d": 1633.3333333333285,
      "v": 70
    },
    {
      "midi": 62,
      "hit": false,
      "t": 106946.66666666663,
      "d": 1633.3333333333285,
      "v": 70
    },
    {
      "midi": 47,
      "hit": false,
      "t": 106973.3333333333,
      "d": 846.666666666657,
      "v": 67
    },
    {
      "midi": 74,
      "hit": false,
      "t": 107746.66666666663,
      "d": 793.3333333333285,
      "v": 63
    },
    {
      "midi": 47,
      "hit": false,
      "t": 108546.66666666663,
      "d": 200,
      "v": 63
    },
    {
      "midi": 55,
      "hit": false,
      "t": 108799.99999999996,
      "d": 1580,
      "v": 69
    },
    {
      "midi": 59,
      "hit": false,
      "t": 108799.99999999996,
      "d": 1580,
      "v": 69
    },
    {
      "midi": 62,
      "hit": false,
      "t": 108799.99999999996,
      "d": 1580,
      "v": 69
    },
    {
      "midi": 43,
      "hit": false,
      "t": 108826.66666666663,
      "d": 1306.6666666666715,
      "v": 66
    },
    {
      "midi": 50,
      "hit": false,
      "t": 110146.66666666663,
      "d": 253.33333333332848,
      "v": 62
    },
    {
      "midi": 57,
      "hit": false,
      "t": 110399.99999999996,
      "d": 1393.3333333333576,
      "v": 70
    },
    {
      "midi": 61,
      "hit": false,
      "t": 110399.99999999996,
      "d": 1393.3333333333576,
      "v": 70
    },
    {
      "midi": 64,
      "hit": false,
      "t": 110399.99999999996,
      "d": 1393.3333333333576,
      "v": 70
    },
    {
      "midi": 45,
      "hit": false,
      "t": 110426.66666666663,
      "d": 606.6666666666715,
      "v": 67
    },
    {
      "midi": 73,
      "hit": false,
      "t": 110946.66666666663,
      "d": 793.333333333343,
      "v": 63
    },
    {
      "midi": 45,
      "hit": false,
      "t": 111746.66666666664,
      "d": 200,
      "v": 63
    },
    {
      "midi": 57,
      "hit": false,
      "t": 111999.99999999997,
      "d": 1026.666666666657,
      "v": 73
    },
    {
      "midi": 62,
      "hit": false,
      "t": 111999.99999999997,
      "d": 1026.666666666657,
      "v": 73
    },
    {
      "midi": 66,
      "hit": false,
      "t": 111999.99999999997,
      "d": 1026.666666666657,
      "v": 73
    },
    {
      "midi": 50,
      "hit": false,
      "t": 112013.3333333333,
      "d": 1380,
      "v": 64
    },
    {
      "midi": 62,
      "hit": false,
      "t": 113066.66666666663,
      "d": 266.6666666666715,
      "v": 48
    },
    {
      "midi": 66,
      "hit": false,
      "t": 113333.3333333333,
      "d": 213.33333333332848,
      "v": 76
    },
    {
      "midi": 54,
      "hit": false,
      "t": 113599.99999999996,
      "d": 1026.666666666657,
      "v": 73
    },
    {
      "midi": 59,
      "hit": false,
      "t": 113599.99999999996,
      "d": 1026.666666666657,
      "v": 73
    },
    {
      "midi": 62,
      "hit": false,
      "t": 113599.99999999996,
      "d": 1026.666666666657,
      "v": 73
    },
    {
      "midi": 47,
      "hit": false,
      "t": 113613.33333333328,
      "d": 1380,
      "v": 64
    },
    {
      "midi": 59,
      "hit": false,
      "t": 114666.66666666661,
      "d": 266.6666666666715,
      "v": 48
    },
    {
      "midi": 62,
      "hit": false,
      "t": 114933.33333333328,
      "d": 213.33333333332848,
      "v": 76
    },
    {
      "midi": 55,
      "hit": false,
      "t": 115199.99999999994,
      "d": 1600,
      "v": 67
    },
    {
      "midi": 59,
      "hit": false,
      "t": 115199.99999999994,
      "d": 1600,
      "v": 67
    },
    {
      "midi": 62,
      "hit": false,
      "t": 115199.99999999994,
      "d": 1600,
      "v": 67
    },
    {
      "midi": 43,
      "hit": false,
      "t": 115226.66666666661,
      "d": 1500,
      "v": 64
    },
    {
      "midi": 57,
      "hit": false,
      "t": 116799.99999999994,
      "d": 1393.3333333333576,
      "v": 70
    },
    {
      "midi": 61,
      "hit": false,
      "t": 116799.99999999994,
      "d": 1393.3333333333576,
      "v": 70
    },
    {
      "midi": 64,
      "hit": false,
      "t": 116799.99999999994,
      "d": 1393.3333333333576,
      "v": 70
    },
    {
      "midi": 45,
      "hit": false,
      "t": 116826.66666666661,
      "d": 606.6666666666715,
      "v": 67
    },
    {
      "midi": 73,
      "hit": false,
      "t": 117346.66666666661,
      "d": 793.333333333343,
      "v": 63
    },
    {
      "midi": 45,
      "hit": false,
      "t": 118146.66666666663,
      "d": 200,
      "v": 63
    },
    {
      "midi": 62,
      "hit": false,
      "t": 118399.99999999996,
      "d": 1580,
      "v": 69
    },
    {
      "midi": 66,
      "hit": false,
      "t": 118399.99999999996,
      "d": 1580,
      "v": 69
    },
    {
      "midi": 50,
      "hit": false,
      "t": 118426.66666666663,
      "d": 1306.6666666666715,
      "v": 66
    },
    {
      "midi": 57,
      "hit": false,
      "t": 119746.66666666663,
      "d": 233.33333333332848,
      "v": 62
    },
    {
      "midi": 57,
      "hit": false,
      "t": 119999.99999999996,
      "d": 1026.666666666657,
      "v": 73
    },
    {
      "midi": 61,
      "hit": false,
      "t": 119999.99999999996,
      "d": 1026.666666666657,
      "v": 73
    },
    {
      "midi": 66,
      "hit": false,
      "t": 119999.99999999996,
      "d": 1026.666666666657,
      "v": 73
    },
    {
      "midi": 42,
      "hit": false,
      "t": 120013.33333333328,
      "d": 1380,
      "v": 64
    },
    {
      "midi": 54,
      "hit": false,
      "t": 121066.66666666661,
      "d": 266.6666666666715,
      "v": 48
    },
    {
      "midi": 57,
      "hit": false,
      "t": 121333.33333333328,
      "d": 213.33333333332848,
      "v": 76
    },
    {
      "midi": 55,
      "hit": false,
      "t": 121599.99999999994,
      "d": 1280,
      "v": 69
    },
    {
      "midi": 59,
      "hit": false,
      "t": 121599.99999999994,
      "d": 1280,
      "v": 69
    },
    {
      "midi": 62,
      "hit": false,
      "t": 121599.99999999994,
      "d": 1280,
      "v": 69
    },
    {
      "midi": 43,
      "hit": false,
      "t": 121626.66666666661,
      "d": 1306.666666666657,
      "v": 66
    },
    {
      "midi": 57,
      "hit": false,
      "t": 122946.6666666666,
      "d": 1633.3333333333285,
      "v": 70
    },
    {
      "midi": 61,
      "hit": false,
      "t": 122946.6666666666,
      "d": 1633.3333333333285,
      "v": 70
    },
    {
      "midi": 64,
      "hit": false,
      "t": 122946.6666666666,
      "d": 1633.3333333333285,
      "v": 70
    },
    {
      "midi": 45,
      "hit": false,
      "t": 122973.33333333327,
      "d": 846.666666666657,
      "v": 67
    },
    {
      "midi": 73,
      "hit": false,
      "t": 123746.6666666666,
      "d": 793.3333333333285,
      "v": 63
    },
    {
      "midi": 45,
      "hit": false,
      "t": 124546.6666666666,
      "d": 200,
      "v": 63
    },
    {
      "midi": 57,
      "hit": false,
      "t": 124799.99999999993,
      "d": 1013.333333333343,
      "v": 69
    },
    {
      "midi": 62,
      "hit": false,
      "t": 124799.99999999993,
      "d": 1280.0000000000146,
      "v": 69
    },
    {
      "midi": 66,
      "hit": false,
      "t": 124799.99999999993,
      "d": 1280.0000000000146,
      "v": 69
    },
    {
      "midi": 50,
      "hit": false,
      "t": 124826.6666666666,
      "d": 1306.6666666666715,
      "v": 66
    },
    {
      "midi": 66,
      "hit": false,
      "t": 126146.6666666666,
      "d": 546.6666666666715,
      "v": 65
    },
    {
      "midi": 71,
      "hit": false,
      "t": 126146.6666666666,
      "d": 986.6666666666715,
      "v": 73
    },
    {
      "midi": 74,
      "hit": false,
      "t": 126146.6666666666,
      "d": 1306.6666666666715,
      "v": 69
    },
    {
      "midi": 47,
      "hit": false,
      "t": 126146.6666666666,
      "d": 1453.3333333333285,
      "v": 46
    },
    {
      "midi": 62,
      "hit": false,
      "t": 126666.6666666666,
      "d": 1073.3333333333285,
      "v": 64
    },
    {
      "midi": 66,
      "hit": false,
      "t": 126933.33333333327,
      "d": 60,
      "v": 63
    },
    {
      "midi": 66,
      "hit": false,
      "t": 127199.99999999994,
      "d": 240,
      "v": 60
    },
    {
      "midi": 71,
      "hit": false,
      "t": 127466.6666666666,
      "d": 266.66666666665697,
      "v": 69
    },
    {
      "midi": 74,
      "hit": false,
      "t": 127733.33333333326,
      "d": 80,
      "v": 92
    },
    {
      "midi": 55,
      "hit": false,
      "t": 127999.99999999993,
      "d": 800,
      "v": 67
    },
    {
      "midi": 59,
      "hit": false,
      "t": 127999.99999999993,
      "d": 800,
      "v": 67
    },
    {
      "midi": 62,
      "hit": false,
      "t": 127999.99999999993,
      "d": 800,
      "v": 67
    },
    {
      "midi": 43,
      "hit": false,
      "t": 128013.33333333326,
      "d": 786.6666666666715,
      "v": 64
    },
    {
      "midi": 62,
      "hit": false,
      "t": 129346.6666666666,
      "d": 546.6666666666715,
      "v": 65
    },
    {
      "midi": 67,
      "hit": false,
      "t": 129346.6666666666,
      "d": 986.6666666666715,
      "v": 73
    },
    {
      "midi": 71,
      "hit": false,
      "t": 129346.6666666666,
      "d": 1306.6666666666715,
      "v": 69
    },
    {
      "midi": 45,
      "hit": false,
      "t": 129346.6666666666,
      "d": 1453.3333333333285,
      "v": 46
    },
    {
      "midi": 59,
      "hit": false,
      "t": 129866.6666666666,
      "d": 1073.3333333333285,
      "v": 64
    },
    {
      "midi": 62,
      "hit": false,
      "t": 130133.33333333327,
      "d": 60,
      "v": 63
    },
    {
      "midi": 62,
      "hit": false,
      "t": 130399.99999999994,
      "d": 240,
      "v": 60
    },
    {
      "midi": 67,
      "hit": false,
      "t": 130666.6666666666,
      "d": 266.66666666665697,
      "v": 69
    },
    {
      "midi": 71,
      "hit": false,
      "t": 130933.33333333326,
      "d": 80,
      "v": 92
    },
    {
      "midi": 57,
      "hit": false,
      "t": 131199.9999999999,
      "d": 2386.666666666686,
      "v": 84
    },
    {
      "midi": 62,
      "hit": false,
      "t": 131199.9999999999,
      "d": 2386.666666666686,
      "v": 84
    },
    {
      "midi": 66,
      "hit": false,
      "t": 131199.9999999999,
      "d": 2386.666666666686,
      "v": 84
    },
    {
      "midi": 50,
      "hit": false,
      "t": 131213.33333333326,
      "d": 2626.666666666686,
      "v": 64
    },
    {
      "midi": 62,
      "hit": false,
      "t": 133599.99999999994,
      "d": 440,
      "v": 53
    },
    {
      "midi": 66,
      "hit": false,
      "t": 133866.6666666666,
      "d": 273.33333333334303,
      "v": 52
    },
    {
      "midi": 69,
      "hit": false,
      "t": 134133.33333333328,
      "d": 193.33333333331393,
      "v": 73
    },
    {
      "midi": 57,
      "hit": false,
      "t": 134399.99999999994,
      "d": 2800,
      "v": 67
    },
    {
      "midi": 62,
      "hit": false,
      "t": 134399.99999999994,
      "d": 2800,
      "v": 67
    },
    {
      "midi": 66,
      "hit": false,
      "t": 134399.99999999994,
      "d": 2800,
      "v": 67
    },
    {
      "midi": 50,
      "hit": false,
      "t": 134413.33333333328,
      "d": 2786.666666666657,
      "v": 64
    }
  ]
}